start_time,end_time,note_value,velocity,instrument_program_number
0.0,1.090908,40,36,42
1.090908,1.909089,43,36,42
1.909089,2.181816,47,36,42
2.181816,3.272724,48,36,42
3.272724,4.363632,47,36,42
4.363632,4.636359,45,36,42
4.636359,4.7727227,47,36,42
4.7727227,4.909086,45,36,42
4.909086,5.0182834,43,36,42
5.181813,5.2910104,45,36,42
5.45454,6.272721,47,36,42
6.272721,6.545448,43,36,42
6.545448,7.636356,40,36,42
7.636356,8.999991,42,36,42
8.999991,9.109188,39,36,42
9.272718,9.381915,42,36,42
9.545445,9.654642,47,36,42
9.818172,10.636353,51,36,42
10.636353,10.90908,54,36,42
10.90908,11.999988,54,36,42
11.999988,13.090896,42,36,42
13.090896,14.181804,55,36,42
14.181804,14.999985,42,36,42
14.999985,15.136349,44,36,42
15.136349,15.272712,46,36,42
15.272712,16.36362,47,36,42
17.454529,18.545437,60,36,42
18.545437,19.363617,62,36,42
19.363617,19.636345,64,36,42
19.636345,21.81816,62,36,42
21.81816,22.909067,60,36,42
22.909067,23.054487,62,36,42
23.272882,23.4183,64,36,42
23.636162,23.781582,66,36,42
23.999975,24.54543,64,36,42
24.54543,26.181791,62,36,42
26.181791,27.2727,64,36,42
27.2727,28.090881,66,36,42
28.090881,28.363607,67,36,42
28.363607,29.454515,66,36,42
29.454515,30.272697,67,36,42
30.272697,30.545424,69,36,42
30.545424,31.636332,67,36,42
31.636332,32.454514,69,36,42
32.454514,32.72724,71,36,42
32.72724,33.81815,72,36,42
33.81815,34.909058,72,36,42
34.909058,36.545418,72,36,42
36.545418,37.090874,69,36,42
37.090874,37.636326,67,36,42
37.636326,38.18178,66,36,42
38.18178,38.727234,69,36,42
38.727234,39.27269,66,36,42
39.27269,39.818142,64,36,42
39.818142,40.363598,63,36,42
40.363598,40.90905,66,36,42
40.90905,41.454502,63,36,42
41.454502,41.999958,62,36,42
41.999958,42.54541,60,36,42
42.54541,43.090866,59,36,42
43.090866,43.63632,57,36,42
43.63632,44.181774,57,36,42
44.181774,44.727226,55,36,42
44.727226,45.272682,54,36,42
45.272682,45.818134,52,36,42
45.818134,46.18195,57,36,42
46.18195,46.54523,55,36,42
46.54523,46.909042,54,36,42
46.909042,47.272858,55,36,42
47.272858,47.63614,51,36,42
47.63614,47.99995,52,36,42
47.99995,48.545406,48,36,42
48.545406,49.09086,47,36,42
49.09086,49.636314,43,36,42
49.636314,50.181767,40,36,42
50.181767,50.54558,48,36,42
50.54558,50.908863,47,36,42
50.908863,51.272675,45,36,42
51.272675,51.63649,47,36,42
51.63649,51.99977,42,36,42
51.99977,52.363583,43,36,42
52.363583,53.45449,43,36,42
53.999947,54.5454,43,75,42
54.818127,55.090855,36,88,42
55.090855,55.363583,43,88,42
55.363583,55.636307,48,88,42
55.636307,56.45449,52,88,42
56.45449,56.727215,70,88,42
56.727215,57.818123,70,88,42
57.818123,58.90903,58,88,42
59.18176,59.454487,41,88,42
59.454487,59.727215,48,88,42
59.727215,59.99994,53,88,42
59.99994,60.818123,57,88,42
60.818123,61.090847,72,88,42
61.090847,62.181755,72,88,42
62.181755,63.272663,60,88,42
63.272663,64.90903,47,88,42
64.90903,65.181755,49,88,42
65.181755,65.45448,51,88,42
65.45448,65.99993,52,88,42
65.99993,67.09084,47,110,42
67.09084,67.36357,45,88,42
67.36357,67.6363,42,88,42
67.6363,69.818115,40,88,42
69.818115,71.99993,43,88,42
71.99993,73.090836,36,49,42
73.090836,73.90902,40,49,42
73.90902,74.18175,43,49,42
74.18175,75.27265,44,49,42
75.27265,76.36356,43,49,42
76.36356,76.636284,42,49,42
76.636284,76.77265,43,49,42
76.77265,76.90901,42,49,42
76.90901,77.18174,41,49,42
77.18174,77.45447,42,49,42
77.45447,78.27265,43,49,42
78.27265,78.54538,43,49,42
78.54538,79.636284,44,49,42
79.636284,80.18174,43,49,42
80.18174,80.727196,43,49,42
80.727196,81.8181,55,49,42
81.8181,82.363556,43,49,42
82.363556,82.909004,43,49,42
82.909004,83.999916,55,49,42
83.999916,84.54537,43,49,42
84.54537,85.09082,43,49,42
85.09082,86.18173,41,49,42
86.18173,87.27264,40,49,42
87.27264,88.36355,38,49,42
88.36355,89.45445,43,49,42
89.45445,89.99991,53,49,42
89.99991,90.545364,52,49,42
90.545364,91.09082,52,49,42
91.09082,91.63627,53,49,42
91.63627,92.72718,57,49,42
92.72718,93.27264,55,49,42
93.27264,93.818085,48,49,42
93.818085,94.36354,60,62,42
94.36354,94.909,59,62,42
94.909,95.45445,59,62,42
95.45445,95.9999,60,62,42
95.9999,97.09081,64,75,42
97.09081,97.63627,62,75,42
97.63627,98.18172,55,75,42
98.18172,98.72717,67,88,42
98.72717,99.27263,66,88,42
99.27263,99.818085,66,88,42
99.818085,100.36353,67,88,42
100.36353,100.90899,67,88,42
100.90899,101.454445,66,88,42
101.454445,101.9999,66,88,42
101.9999,102.54535,67,88,42
102.54535,103.090805,65,88,42
103.090805,103.63626,64,88,42
103.63626,104.18172,64,88,42
104.18172,104.727165,65,88,42
104.727165,105.27262,63,88,42
105.27262,105.81808,62,88,42
105.81808,106.36353,62,88,42
106.36353,106.90898,63,88,42
106.90898,107.45444,64,88,42
107.45444,107.99989,63,88,42
107.99989,108.54535,63,88,42
108.54535,109.0908,64,88,42
109.0908,109.63625,64,88,42
109.63625,110.18171,63,88,42
110.18171,110.727165,63,88,42
110.727165,111.27261,64,88,42
111.27261,111.81807,62,88,42
111.81807,112.363525,61,88,42
112.363525,112.90898,61,88,42
112.90898,113.45443,62,88,42
113.45443,113.999886,61,88,42
113.999886,114.54534,59,88,42
114.54534,115.0908,59,88,42
115.0908,115.636246,61,88,42
115.636246,116.1817,58,88,42
116.999886,117.27261,54,88,42
117.27261,117.545334,58,88,42
117.545334,117.81806,61,88,42
117.81806,118.90897,64,88,42
118.90897,119.45443,62,88,42
119.45443,119.99988,61,88,42
120.272606,120.545334,54,88,42
120.545334,120.81806,58,88,42
120.81806,121.09079,61,88,42
121.09079,122.181694,64,88,42
122.181694,122.72715,62,88,42
122.72715,123.272606,61,88,42
124.09078,124.36351,54,88,42
124.36351,125.181694,59,88,42
125.181694,125.45442,54,88,42
125.45442,125.72715,59,88,42
125.72715,125.99987,62,88,42
125.99987,126.818054,59,88,42
126.818054,127.09078,54,88,42
127.09078,127.36351,59,88,42
127.36351,127.63624,62,88,42
127.63624,127.908966,59,88,42
127.908966,128.18169,54,88,42
128.18169,128.45442,59,88,42
128.45442,128.72714,62,88,42
128.72714,129.54532,66,88,42
129.54532,129.81805,67,88,42
129.81805,130.63623,67,88,42
130.63623,130.90897,61,88,42
130.90897,131.72714,66,88,42
131.72714,131.99986,71,88,42
131.99986,132.81805,71,88,42
132.81805,133.09077,59,88,42
133.09077,133.90895,61,88,42
133.90895,134.18169,62,88,42
134.18169,134.72714,64,88,42
134.72714,134.99986,62,88,42
134.99986,135.2726,61,88,42
135.2726,135.54532,61,88,42
135.54532,135.6135,61,88,42
135.6135,135.68169,62,88,42
135.68169,135.74986,61,88,42
135.74986,135.81804,60,88,42
135.81804,136.09077,61,88,42
136.09077,136.3635,62,88,42
136.3635,136.63623,66,88,42
136.63623,136.90895,64,88,42
136.90895,137.01816,62,88,42
137.18169,137.29088,61,88,42
137.4544,138.27258,59,88,42
138.27258,138.54532,61,88,42
138.54532,139.3635,58,88,42
139.3635,139.63623,61,88,42
139.63623,140.4544,56,88,42
140.4544,140.72713,61,88,42
140.72713,141.27258,54,88,42
148.09076,148.3635,42,49,42
148.3635,148.63622,43,49,42
148.63622,148.90894,45,49,42
148.90894,149.18167,43,49,42
149.18167,149.45439,42,49,42
149.45439,149.72713,43,49,42
149.72713,149.99985,45,49,42
149.99985,150.27258,43,49,42
150.27258,150.5453,41,49,42
150.5453,150.81802,42,49,42
150.81802,151.09076,43,49,42
151.09076,151.90894,42,49,42
151.90894,152.18167,40,49,42
152.18167,152.99985,40,49,42
152.99985,153.27257,39,49,42
153.27257,154.09076,39,49,42
154.09076,154.36348,38,49,42
154.36348,154.90894,38,49,42
155.18166,155.45439,37,36,42
155.45439,155.72711,40,36,42
155.72711,155.99985,38,36,42
155.99985,156.5453,37,36,42
156.5453,156.81802,38,36,42
156.81802,157.09076,40,36,42
157.36348,157.6362,37,36,42
157.6362,157.90894,40,36,42
157.90894,158.18166,38,36,42
158.18166,158.72711,37,36,42
158.72711,158.99985,38,36,42
158.99985,159.27257,40,36,42
159.54529,159.81802,41,36,42
159.81802,160.6362,41,36,42
160.6362,160.90894,42,36,42
160.90894,161.72711,42,36,42
161.72711,161.99983,43,36,42
161.99983,162.81802,43,36,42
162.81802,163.09074,41,36,42
163.09074,163.6362,41,36,42
163.6362,164.45438,42,36,42
165.81801,166.6362,46,36,42
165.81801,166.6362,52,36,42
167.99983,168.54529,54,36,42
168.54529,169.09074,47,36,42
169.09074,169.6362,66,36,42
169.6362,170.18164,59,36,42
170.18164,170.7271,54,36,42
170.7271,171.27255,47,36,42
171.27255,171.81801,54,36,42
171.81801,172.36346,47,36,42
172.36346,172.90892,54,36,42
172.90892,173.45438,47,36,42
173.45438,173.99983,54,36,42
173.99983,174.54527,47,36,42
174.54527,175.09073,54,36,42
175.09073,175.63618,47,36,42
175.63618,176.18164,54,36,42
176.18164,176.7271,47,36,42
176.7271,177.27255,54,36,42
177.27255,177.81801,47,36,42
178.36346,178.9089,66,36,42
178.9089,179.45436,69,36,42
179.45436,179.99982,68,36,42
179.99982,180.54527,67,36,42
180.54527,181.09073,66,36,42
181.09073,181.63618,65,36,42
181.63618,181.9089,66,36,42
181.9089,182.18164,59,36,42
182.18164,182.7271,62,36,42
182.7271,183.27254,61,36,42
183.27254,183.818,63,36,42
183.818,184.09073,64,36,42
184.09073,184.36345,61,36,42
184.36345,184.9089,64,36,42
184.9089,185.45436,63,36,42
185.45436,185.99982,61,36,42
185.99982,186.54527,59,36,42
186.54527,187.63617,54,36,42
187.63617,188.18163,59,36,42
188.18163,188.72708,54,36,42
188.72708,189.818,51,36,42
196.36343,197.45435,40,36,42
197.45435,198.27252,43,36,42
198.27252,198.54526,47,36,42
198.54526,199.63617,48,36,42
199.63617,200.72707,47,36,42
200.72707,200.9998,45,36,42
200.9998,201.13617,47,36,42
201.13617,201.27252,45,36,42
201.27252,201.38173,43,36,42
201.54526,201.65445,45,36,42
201.81798,202.63615,47,36,42
202.63615,202.90889,43,36,42
202.90889,203.9998,40,36,42
203.9998,205.36343,42,36,42
205.36343,205.47263,39,36,42
205.63615,205.74536,42,36,42
205.90889,206.01808,47,36,42
206.18161,206.99979,51,36,42
206.99979,207.27252,54,36,42
207.27252,208.36343,54,36,42
208.36343,209.45433,42,36,42
209.45433,210.54524,55,36,42
210.54524,211.36342,42,36,42
211.36342,211.49979,44,36,42
211.49979,211.63615,46,36,42
211.63615,212.72707,47,36,42
213.81796,214.90887,60,36,42
214.90887,215.72705,62,36,42
215.72705,215.99979,64,36,42
215.99979,218.1816,62,36,42
218.1816,219.2725,60,36,42
219.2725,219.41792,62,36,42
219.63632,219.78174,64,36,42
219.9996,220.14502,66,36,42
220.36342,220.90887,64,36,42
220.90887,222.54523,62,36,42
222.54523,223.63614,64,36,42
223.63614,224.45432,66,36,42
224.45432,224.72705,67,36,42
224.72705,225.81796,66,36,42
225.81796,226.63614,67,36,42
226.63614,226.90886,69,36,42
226.90886,227.99977,67,36,42
227.99977,228.81795,69,36,42
228.81795,229.09068,71,36,42
229.09068,230.1816,72,36,42
230.1816,231.27249,72,36,42
231.27249,232.90886,72,36,42
232.90886,233.45432,69,36,42
233.45432,233.99977,67,36,42
233.99977,234.54523,66,36,42
234.54523,235.09067,69,36,42
235.09067,235.63612,66,36,42
235.63612,236.18158,64,36,42
236.18158,236.72704,63,36,42
236.72704,237.27249,66,36,42
237.27249,237.81795,63,36,42
237.81795,238.3634,62,36,42
238.3634,238.90886,60,36,42
238.90886,239.4543,59,36,42
239.4543,239.99976,57,36,42
239.99976,240.54521,57,36,42
240.54521,241.09067,55,36,42
241.09067,241.63612,54,36,42
241.63612,242.18158,52,36,42
242.18158,242.5454,57,36,42
242.5454,242.90868,55,36,42
242.90868,243.27249,54,36,42
243.27249,243.63629,55,36,42
243.63629,243.99957,51,36,42
243.99957,244.36339,52,36,42
244.36339,244.90884,48,36,42
244.90884,245.4543,47,36,42
245.4543,245.99976,43,36,42
245.99976,246.54521,40,36,42
246.54521,246.90903,48,36,42
246.90903,247.27231,47,36,42
247.27231,247.63611,45,36,42
247.63611,247.99992,47,36,42
247.99992,248.3632,42,36,42
248.3632,248.72702,43,36,42
248.72702,249.81793,43,36,42
250.36339,250.90884,43,75,42
251.18156,251.4543,36,88,42
251.4543,251.72702,43,88,42
251.72702,251.99974,48,88,42
251.99974,252.81793,52,88,42
252.81793,253.09065,70,88,42
253.09065,254.18156,70,88,42
254.18156,255.27248,58,88,42
255.5452,255.81793,41,88,42
255.81793,256.09067,48,88,42
256.09067,256.36337,53,88,42
256.36337,257.18155,57,88,42
257.18155,257.45428,72,88,42
257.45428,258.5452,72,88,42
258.5452,259.6361,60,88,42
259.6361,261.27246,47,88,42
261.27246,261.5452,49,88,42
261.5452,261.81793,51,88,42
261.81793,262.36337,52,88,42
262.36337,263.45428,47,110,42
263.45428,263.72702,45,88,42
263.72702,263.99973,42,88,42
263.99973,266.18155,40,88,42
266.18155,268.36337,43,88,42
268.36337,269.45428,36,49,42
269.45428,270.27246,40,49,42
270.27246,270.5452,43,49,42
270.5452,271.63608,44,49,42
271.63608,272.727,43,49,42
272.727,272.99973,42,49,42
272.99973,273.13608,43,49,42
273.13608,273.27246,42,49,42
273.27246,273.54517,41,49,42
273.54517,273.8179,42,49,42
273.8179,274.63608,43,49,42
274.63608,274.9088,43,49,42
274.9088,275.99973,44,49,42
275.99973,276.54517,43,49,42
276.54517,277.09064,43,49,42
277.09064,278.18155,55,49,42
278.18155,278.727,43,49,42
278.727,279.27246,43,49,42
279.27246,280.36334,55,49,42
280.36334,280.9088,43,49,42
280.9088,281.45425,43,49,42
281.45425,282.54517,41,49,42
282.54517,283.63608,40,49,42
283.63608,284.727,38,49,42
284.727,285.8179,43,49,42
285.8179,286.36334,53,49,42
286.36334,286.9088,52,49,42
286.9088,287.45425,52,49,42
287.45425,287.99973,53,49,42
287.99973,289.0906,57,49,42
289.0906,289.63608,55,49,42
289.63608,290.18152,48,49,42
290.18152,290.727,60,62,42
290.727,291.27243,59,62,42
291.27243,291.8179,59,62,42
291.8179,292.36334,60,62,42
292.36334,293.45425,64,75,42
293.45425,293.9997,62,75,42
293.9997,294.54517,55,75,42
294.54517,295.0906,67,88,42
295.0906,295.63608,66,88,42
295.63608,296.18152,66,88,42
296.18152,296.727,67,88,42
296.727,297.27243,67,88,42
297.27243,297.81787,66,88,42
297.81787,298.36334,66,88,42
298.36334,298.90878,67,88,42
298.90878,299.45425,65,88,42
299.45425,299.9997,64,88,42
299.9997,300.54517,64,88,42
300.54517,301.0906,65,88,42
301.0906,301.63605,63,88,42
301.63605,302.18152,62,88,42
302.18152,302.72696,62,88,42
302.72696,303.27243,63,88,42
303.27243,303.81787,64,88,42
303.81787,304.36334,63,88,42
304.36334,304.90878,63,88,42
304.90878,305.45425,64,88,42
305.45425,305.9997,64,88,42
305.9997,306.54514,63,88,42
306.54514,307.0906,63,88,42
307.0906,307.63605,64,88,42
307.63605,308.18152,62,88,42
308.18152,308.72696,61,88,42
308.72696,309.27243,61,88,42
309.27243,309.81787,62,88,42
309.81787,310.3633,61,88,42
310.3633,310.90878,59,88,42
310.90878,311.45422,59,88,42
311.45422,311.9997,61,88,42
311.9997,312.54514,58,88,42
313.3633,313.63605,54,88,42
313.63605,313.90878,58,88,42
313.90878,314.18152,61,88,42
314.18152,315.2724,64,88,42
315.2724,315.81787,62,88,42
315.81787,316.3633,61,88,42
316.63605,316.90878,54,88,42
316.90878,317.1815,58,88,42
317.1815,317.45422,61,88,42
317.45422,318.54514,64,88,42
318.54514,319.09058,62,88,42
319.09058,319.63605,61,88,42
320.45422,320.72696,54,88,42
320.72696,321.54514,59,88,42
321.54514,321.81787,54,88,42
321.81787,322.09058,59,88,42
322.09058,322.3633,62,88,42
322.3633,323.1815,59,88,42
323.1815,323.45422,54,88,42
323.45422,323.72696,59,88,42
323.72696,323.99966,62,88,42
323.99966,324.2724,59,88,42
324.2724,324.54514,54,88,42
324.54514,324.81787,59,88,42
324.81787,325.09058,62,88,42
325.09058,325.90875,66,88,42
325.90875,326.1815,67,88,42
326.1815,326.99966,67,88,42
326.99966,327.2724,61,88,42
327.2724,328.09058,66,88,42
328.09058,328.3633,71,88,42
328.3633,329.1815,71,88,42
329.1815,329.45422,59,88,42
329.45422,330.2724,61,88,42
330.2724,330.54514,62,88,42
330.54514,331.09058,64,88,42
331.09058,331.3633,62,88,42
331.3633,331.63602,61,88,42
331.63602,331.90875,61,88,42
331.90875,331.97693,61,88,42
331.97693,332.04514,62,88,42
332.04514,332.1133,61,88,42
332.1133,332.1815,60,88,42
332.1815,332.45422,61,88,42
332.45422,332.72693,62,88,42
332.72693,332.99966,66,88,42
332.99966,333.2724,64,88,42
333.2724,333.3816,62,88,42
333.54514,333.65433,61,88,42
333.81784,334.63602,59,88,42
334.63602,334.90875,61,88,42
334.90875,335.72693,58,88,42
335.72693,335.99966,61,88,42
335.99966,336.81784,56,88,42
336.81784,337.09058,61,88,42
337.09058,337.63602,54,88,42
344.4542,344.72693,42,49,42
344.72693,344.99966,43,49,42
344.99966,345.27237,45,49,42
345.27237,345.5451,43,49,42
345.5451,345.81784,42,49,42
345.81784,346.09058,43,49,42
346.09058,346.36328,45,49,42
346.36328,346.63602,43,49,42
346.63602,346.90875,41,49,42
346.90875,347.18146,42,49,42
347.18146,347.4542,43,49,42
347.4542,348.27237,42,49,42
348.27237,348.5451,40,49,42
348.5451,349.36328,40,49,42
349.36328,349.63602,39,49,42
349.63602,350.4542,39,49,42
350.4542,350.72693,38,49,42
350.72693,351.27237,38,49,42
351.5451,351.81784,37,36,42
351.81784,352.09055,40,36,42
352.09055,352.36328,38,36,42
352.36328,352.90875,37,36,42
352.90875,353.18146,38,36,42
353.18146,353.4542,40,36,42
353.72693,353.99963,37,36,42
353.99963,354.27237,40,36,42
354.27237,354.5451,38,36,42
354.5451,355.09055,37,36,42
355.09055,355.36328,38,36,42
355.36328,355.63602,40,36,42
355.90872,356.18146,41,36,42
356.18146,356.99963,41,36,42
356.99963,357.27237,42,36,42
357.27237,358.09055,42,36,42
358.09055,358.36328,43,36,42
358.36328,359.18146,43,36,42
359.18146,359.4542,41,36,42
359.4542,359.99963,41,36,42
359.99963,360.8178,42,36,42
362.18146,362.99963,46,36,42
362.18146,362.99963,52,36,42
364.36328,364.90872,54,36,42
364.90872,365.4542,47,36,42
365.4542,365.99963,66,36,42
365.99963,366.54507,59,36,42
366.54507,367.09055,54,36,42
367.09055,367.636,47,36,42
367.636,368.18146,54,36,42
368.18146,368.7269,47,36,42
368.7269,369.27237,54,36,42
369.27237,369.8178,47,36,42
369.8178,370.36328,54,36,42
370.36328,370.90872,47,36,42
370.90872,371.45416,54,36,42
371.45416,371.99963,47,36,42
371.99963,372.54507,54,36,42
372.54507,373.09055,47,36,42
373.09055,373.636,54,36,42
373.636,374.18146,47,36,42
374.7269,375.27234,66,36,42
375.27234,375.8178,69,36,42
375.8178,376.36325,68,36,42
376.36325,376.90872,67,36,42
376.90872,377.45416,66,36,42
377.45416,377.99963,65,36,42
377.99963,378.27234,66,36,42
378.27234,378.54507,59,36,42
378.54507,379.0905,62,36,42
379.0905,379.636,61,36,42
379.636,380.18143,63,36,42
380.18143,380.45416,64,36,42
380.45416,380.7269,61,36,42
380.7269,381.27234,64,36,42
381.27234,381.8178,63,36,42
381.8178,382.36325,61,36,42
382.36325,382.90872,59,36,42
382.90872,383.9996,54,36,42
383.9996,384.54507,59,36,42
384.54507,385.0905,54,36,42
385.0905,386.18143,51,36,42
392.72687,393.81778,55,49,42
393.81778,394.63596,59,49,42
394.63596,394.9087,62,49,42
394.9087,395.9996,63,49,42
395.9996,397.0905,62,49,42
398.72687,399.27234,43,49,42
399.27234,399.81778,42,49,42
399.81778,400.36325,46,49,42
400.36325,400.9087,41,49,42
400.9087,401.45413,46,49,42
401.45413,401.9996,39,49,42
401.9996,402.54504,46,49,42
402.54504,403.0905,38,49,42
403.0905,403.63596,46,49,42
403.63596,404.18143,36,49,42
404.18143,404.72687,48,49,42
404.72687,405.2723,41,49,42
405.2723,405.81778,53,49,42
405.81778,406.36322,46,49,42
406.36322,406.9087,46,49,42
406.9087,407.45413,39,49,42
407.45413,407.9996,48,49,42
407.9996,408.54504,41,49,42
408.54504,409.0905,46,49,42
409.0905,409.63596,41,49,42
409.63596,410.1814,53,49,42
410.1814,410.72687,46,49,42
410.72687,411.2723,53,49,42
411.2723,411.81778,46,49,42
411.81778,412.36322,53,49,42
412.36322,412.9087,45,49,42
412.9087,413.45413,51,49,42
413.45413,413.99957,46,49,42
414.2723,414.54504,65,49,42
414.54504,415.63596,66,49,42
415.63596,416.72687,65,49,42
416.72687,418.36322,49,49,42
418.63596,418.90866,65,49,42
418.90866,419.99957,70,49,42
419.99957,421.09048,68,49,42
421.09048,422.1814,67,49,42
422.1814,423.2723,66,49,42
423.2723,423.54504,65,49,42
423.54504,423.6814,66,49,42
423.6814,423.81775,65,49,42
423.81775,424.09048,63,49,42
424.09048,424.36322,65,49,42
424.36322,425.1814,66,49,42
425.1814,425.45413,63,49,42
425.45413,426.545,61,49,42
426.545,427.63593,63,49,42
427.63593,428.1814,65,49,42
428.1814,429.2723,49,49,42
429.2723,430.36322,49,49,42
430.36322,431.4541,49,49,42
431.4541,432.545,37,49,42
432.545,433.63593,37,49,42
433.63593,434.72684,49,49,42
434.72684,435.81775,49,49,42
436.09048,436.3632,61,49,42
436.3632,437.4541,70,62,42
437.4541,438.545,68,62,42
438.545,439.09048,41,75,42
439.09048,440.18137,41,75,42
440.4541,440.72684,65,75,42
440.72684,441.81775,74,88,42
441.81775,442.63593,72,88,42
442.63593,442.90866,65,88,42
442.90866,443.99954,71,101,42
443.99954,444.545,72,101,42
444.81775,445.09045,65,101,42
445.09045,446.18137,71,101,42
446.18137,446.72684,72,101,42
446.99954,447.27228,65,101,42
447.27228,448.3632,69,101,42
448.3632,448.90863,70,101,42
449.18137,449.4541,64,101,42
449.4541,450.545,68,101,42
450.545,451.09045,69,101,42
451.49954,451.56772,56,101,42
451.09045,451.63593,65,101,42
451.56772,451.63593,49,101,42
451.63593,452.18137,41,101,42
452.59045,452.65863,57,101,42
452.18137,452.7268,65,101,42
452.65863,452.7268,48,101,42
452.7268,453.27228,41,101,42
453.68137,453.74954,56,101,42
453.27228,453.81772,65,101,42
453.74954,453.81772,49,101,42
453.81772,454.3632,41,101,42
454.77228,454.84045,57,101,42
454.3632,454.90863,65,101,42
454.84045,454.90863,48,101,42
454.90863,455.4541,41,101,42
455.8632,455.93137,57,101,42
455.4541,455.99954,65,101,42
455.93137,455.99954,48,101,42
455.99954,456.54498,41,101,42
456.9541,457.02228,58,101,42
456.54498,457.09045,65,101,42
457.02228,457.09045,50,101,42
457.09045,457.6359,41,101,42
458.04498,458.1132,58,101,42
457.6359,458.18137,65,101,42
458.1132,458.18137,50,101,42
458.18137,458.7268,41,101,42
459.1359,459.20407,57,101,42
458.7268,459.27228,65,101,42
459.20407,459.27228,48,101,42
459.27228,459.81772,41,101,42
460.2268,460.29498,56,101,42
459.81772,460.3632,65,101,42
460.29498,460.3632,49,101,42
460.3632,460.90863,41,101,42
461.31772,461.3859,57,101,42
460.90863,461.45407,65,101,42
461.3859,461.45407,48,101,42
461.45407,461.99954,41,101,42
462.40863,462.4768,56,101,42
461.99954,462.54498,65,101,42
462.4768,462.54498,49,101,42
462.54498,463.09045,41,101,42
463.49954,463.56772,57,101,42
463.09045,463.6359,65,101,42
463.56772,463.6359,48,101,42
463.6359,464.18137,41,101,42
464.59045,464.65863,56,101,42
464.18137,464.7268,65,101,42
464.65863,464.7268,49,101,42
464.7268,465.27225,41,101,42
465.68137,465.74954,57,101,42
465.27225,465.81772,65,101,42
465.74954,465.81772,48,101,42
465.81772,466.36316,41,101,42
466.77225,466.84045,53,101,42
466.36316,466.90863,65,101,42
466.84045,466.90863,43,101,42
466.90863,467.45407,36,101,42
467.86316,467.93134,52,101,42
467.45407,467.99954,60,101,42
467.93134,467.99954,43,101,42
467.99954,468.54498,36,101,42
468.54498,469.09045,48,101,42
469.36316,469.6359,36,101,42
469.6359,470.45407,41,101,42
470.45407,470.7268,36,101,42
470.7268,470.99954,41,101,42
470.99954,471.27225,44,101,42
471.27225,472.09042,41,101,42
472.09042,472.36316,36,101,42
472.36316,472.6359,41,101,42
472.6359,472.90863,44,101,42
472.90863,473.18134,41,101,42
473.18134,473.45407,36,101,42
473.45407,473.7268,41,101,42
473.7268,473.9995,44,101,42
473.9995,474.81772,48,101,42
474.81772,475.09042,46,101,42
475.09042,475.9086,46,101,42
475.9086,476.18134,45,101,42
476.18134,476.9995,45,101,42
476.9995,477.27225,44,101,42
477.27225,477.81772,44,101,42
477.81772,478.6359,46,101,42
477.81772,478.6359,53,101,42
478.6359,478.9086,53,101,42
478.9086,479.45407,65,101,42
479.45407,479.7268,53,101,42
479.7268,479.9995,53,101,42
479.9995,480.8177,46,101,42
479.9995,480.8177,53,101,42
480.8177,481.09042,53,101,42
481.09042,481.6359,65,101,42
481.6359,481.9086,53,101,42
481.9086,482.18134,53,101,42
482.45407,482.72678,55,101,42
482.72678,483.27225,67,101,42
483.54498,483.8177,55,101,42
483.8177,484.36316,67,101,42
484.63586,484.9086,43,101,42
484.9086,485.45407,55,101,42
485.72678,485.9995,36,101,42
485.9995,486.27225,43,101,42
485.9995,486.27225,52,101,42
485.9995,486.27225,60,101,42
486.8177,487.09042,48,49,42
487.09042,487.9086,51,49,42
487.9086,488.18134,48,49,42
488.18134,488.45407,51,49,42
488.45407,488.72678,53,49,42
488.72678,489.54495,51,49,42
489.54495,489.8177,48,49,42
489.8177,490.09042,51,49,42
490.09042,490.36316,53,49,42
490.36316,490.63586,51,49,42
490.63586,490.9086,48,49,42
490.9086,491.18134,51,49,42
491.18134,491.45404,53,49,42
491.45404,492.27225,51,49,42
492.27225,492.54495,63,49,42
492.54495,493.09042,63,49,42
493.63586,494.9995,50,62,42
493.63586,494.9995,66,62,42
494.9995,495.27222,50,62,42
495.27222,496.09042,55,49,42
496.09042,496.36313,50,49,42
496.36313,496.63586,55,49,42
496.63586,496.9086,59,49,42
496.9086,497.72678,55,49,42
497.72678,497.9995,50,49,42
497.9995,498.27222,55,49,42
498.27222,498.54495,59,49,42
498.54495,498.8177,55,49,42
498.8177,499.09042,50,49,42
499.09042,499.36313,55,49,42
499.36313,499.63586,59,49,42
499.63586,500.45404,62,49,42
500.45404,500.72678,67,49,42
500.72678,501.54495,67,49,42
501.54495,501.8177,68,49,42
501.8177,502.36313,68,62,42
502.36313,502.9086,65,62,42
502.9086,503.45404,64,62,42
503.45404,503.99948,62,62,42
503.99948,504.54495,61,49,42
504.54495,505.0904,58,49,42
505.0904,505.63586,57,49,42
505.63586,506.1813,55,49,42
506.1813,506.72678,54,49,42
506.72678,507.27222,51,49,42
507.27222,507.8177,50,49,42
507.8177,508.36313,48,49,42
508.90857,509.45404,51,49,42
509.45404,509.99948,50,49,42
509.99948,510.54495,48,49,42
510.54495,511.0904,47,49,42
518.72675,519.2722,54,49,42
519.2722,519.8177,59,49,42
519.8177,520.3631,57,49,42
520.3631,520.90857,55,49,42
520.90857,521.45404,54,49,42
521.45404,521.99945,52,49,42
521.99945,522.2722,54,49,42
522.2722,522.5449,49,49,42
522.5449,523.0904,52,49,42
523.0904,523.63586,51,49,42
523.63586,524.1813,50,49,42
524.1813,524.45404,52,49,42
524.45404,524.72675,47,49,42
524.72675,525.2722,50,49,42
525.2722,525.8176,48,49,42
525.8176,526.3631,45,49,42
526.3631,526.90857,43,49,42
526.90857,527.45404,42,49,42
527.45404,528.8176,47,49,42
530.72675,531.2722,55,49,42
531.2722,531.8176,54,49,42
531.8176,533.1813,59,49,42
535.0904,535.6358,52,49,42
535.6358,536.1813,47,49,42
536.1813,536.72675,59,49,42
537.2722,537.8176,52,49,42
537.8176,538.3631,47,49,42
538.3631,538.90857,59,49,42
539.454,539.99945,52,49,42
539.99945,541.0904,47,49,42
541.6358,542.1813,52,49,42
542.1813,543.8176,47,49,42
543.8176,544.3631,48,49,42
544.3631,545.99945,47,36,42
545.99945,547.09033,45,36,42
547.09033,547.6358,42,36,42
547.6358,548.72675,40,49,42
548.72675,549.5449,43,49,42
549.5449,549.8176,47,49,42
549.8176,550.90857,48,49,42
550.90857,551.99945,47,49,42
551.99945,552.27216,45,49,42
552.27216,552.4085,47,49,42
552.4085,552.5449,45,49,42
552.5449,552.6541,43,49,42
552.8176,552.9268,45,49,42
553.09033,553.9085,47,49,42
553.9085,554.1813,43,49,42
554.1813,555.27216,40,49,42
555.27216,556.3631,42,49,42
556.3631,556.6358,42,49,42
556.6358,556.745,39,49,42
556.9085,557.01776,42,49,42
557.1813,557.29047,47,49,42
557.454,558.27216,51,49,42
558.27216,558.5449,54,49,42
558.5449,559.6358,54,49,42
559.6358,560.7267,42,49,42
560.7267,561.8176,55,49,42
561.8176,562.6358,42,49,42
562.6358,562.77216,44,49,42
562.77216,562.9085,46,49,42
562.9085,563.99945,47,49,42
565.09033,566.1813,60,49,42
566.1813,566.99945,62,49,42
566.99945,567.27216,64,49,42
567.27216,569.454,62,62,42
569.454,570.54486,60,62,42
570.54486,570.6903,62,62,42
570.9087,571.05414,64,62,42
571.272,571.4174,66,62,42
571.6358,572.1813,64,62,42
572.1813,573.8176,62,62,42
573.8176,574.9085,64,75,42
574.9085,575.7267,66,75,42
575.7267,575.99945,67,75,42
575.99945,577.09033,66,75,42
577.09033,577.9085,67,75,42
577.9085,578.1812,69,75,42
578.1812,579.27216,67,75,42
579.27216,580.09033,69,75,42
580.09033,580.36304,71,75,42
580.36304,581.454,72,75,42
581.454,582.54486,72,75,42
582.54486,584.1812,72,88,42
584.1812,584.7267,69,88,42
584.7267,585.27216,67,88,42
585.27216,585.81757,66,88,42
585.81757,586.36304,69,88,42
586.36304,586.9085,66,88,42
586.9085,587.454,64,88,42
587.454,587.9994,63,88,42
587.9994,588.54486,66,88,42
588.54486,589.09033,63,88,42
589.09033,589.6358,62,88,42
589.6358,590.1812,60,88,42
590.1812,590.7267,59,88,42
590.7267,591.27216,57,88,42
591.27216,591.81757,57,49,42
591.81757,592.36304,55,49,42
592.36304,592.9085,54,49,42
592.9085,593.454,52,49,42
593.454,593.81775,57,49,42
593.81775,594.181,55,49,42
594.181,594.54486,54,49,42
594.54486,594.9087,55,49,42
594.9087,595.272,51,49,42
595.272,595.63574,52,49,42
595.63574,596.1812,48,49,42
596.1812,596.7267,47,49,42
596.7267,597.27216,43,49,42
597.27216,597.81757,40,49,42
597.81757,598.1814,48,62,42
598.1814,598.5447,47,62,42
598.5447,598.9085,45,62,42
598.9085,599.2723,47,62,42
599.2723,599.63556,42,62,42
599.63556,599.9994,43,62,42
599.9994,601.09033,43,75,42
601.63574,602.1812,43,75,42
602.4539,602.7267,36,88,42
602.7267,602.9994,43,88,42
602.9994,603.2721,48,88,42
603.2721,604.09033,52,88,42
604.09033,604.36304,70,88,42
604.36304,605.4539,70,88,42
605.4539,606.54486,58,88,42
606.81757,607.09033,41,88,42
607.09033,607.36304,48,88,42
607.36304,607.63574,53,88,42
607.63574,608.4539,57,88,42
608.4539,608.7267,72,88,42
608.7267,609.81757,72,88,42
609.81757,610.9085,60,88,42
610.9085,612.54486,47,88,42
612.54486,612.81757,49,88,42
612.81757,613.0903,51,88,42
613.0903,613.63574,52,88,42
613.63574,614.7267,47,110,42
614.7267,614.9994,45,88,42
614.9994,615.2721,42,88,42
615.2721,617.4539,40,88,42
617.4539,619.63574,36,88,42
619.63574,620.7266,41,49,42
620.7266,621.54486,45,49,42
621.54486,621.81757,48,49,42
621.81757,622.90845,49,49,42
622.90845,623.9994,48,49,42
623.9994,624.2721,47,49,42
624.2721,624.40845,48,49,42
624.40845,624.5448,47,49,42
624.5448,624.81757,46,49,42
624.81757,625.0903,47,49,42
625.0903,625.90845,48,49,42
625.90845,626.1812,48,49,42
626.1812,627.2721,49,49,42
627.2721,627.81757,48,49,42
627.81757,628.36304,48,49,42
628.36304,629.4539,48,49,42
629.4539,629.9994,36,49,42
629.9994,630.5448,36,49,42
630.5448,631.63574,48,49,42
631.63574,632.1812,36,49,42
632.1812,632.7266,36,49,42
632.7266,633.81757,46,49,42
633.81757,634.90845,45,49,42
634.90845,635.9994,43,49,42
635.9994,637.0903,48,49,42
637.0903,637.63574,58,49,42
637.63574,638.18115,57,49,42
638.18115,638.7266,57,49,42
638.7266,639.2721,58,49,42
639.2721,640.363,62,49,42
640.363,640.90845,60,49,42
640.90845,641.4539,53,49,42
641.4539,641.9993,65,62,42
641.9993,642.5448,64,62,42
642.5448,643.0903,64,62,42
643.0903,643.63574,65,62,42
643.63574,644.7266,69,75,42
644.7266,645.2721,67,75,42
645.2721,645.81757,60,75,42
645.81757,646.363,72,88,42
646.363,646.90845,71,88,42
646.90845,647.4539,71,88,42
647.4539,647.9993,72,88,42
647.9993,648.5448,72,88,42
648.5448,649.0903,71,88,42
649.0903,649.63574,71,88,42
649.63574,650.18115,72,88,42
650.18115,650.7266,70,88,42
650.7266,651.2721,69,88,42
651.2721,651.8175,69,88,42
651.8175,652.363,70,88,42
652.363,652.90845,68,88,42
652.90845,653.4539,67,88,42
653.4539,653.9993,67,88,42
653.9993,654.5448,68,88,42
654.5448,655.0903,69,88,42
655.0903,655.6357,68,88,42
655.6357,656.18115,68,88,42
656.18115,656.7266,69,88,42
656.7266,657.2721,69,88,42
657.2721,657.8175,68,88,42
657.8175,658.363,68,88,42
658.363,658.90845,69,88,42
658.90845,659.45386,67,88,42
659.45386,659.9993,66,88,42
659.9993,660.5448,66,88,42
660.5448,661.0903,67,88,42
661.0903,661.6357,66,88,42
661.6357,662.18115,64,88,42
662.18115,662.7266,64,88,42
662.7266,663.27203,66,88,42
663.27203,663.8175,63,88,42
664.6357,664.90845,47,88,42
664.90845,665.18115,51,88,42
665.18115,665.45386,54,88,42
665.45386,666.5448,57,88,42
666.5448,667.0903,55,88,42
667.0903,667.6357,54,88,42
667.90845,668.18115,59,88,42
668.18115,668.45386,63,88,42
668.45386,668.7266,66,88,42
668.7266,669.8175,69,88,42
669.8175,670.363,67,88,42
670.363,670.90845,66,88,42
671.7266,671.9993,59,88,42
671.9993,672.8175,64,88,42
672.8175,673.0902,59,88,42
673.0902,673.363,64,88,42
673.363,673.6357,67,88,42
673.6357,674.45386,64,88,42
674.45386,674.7266,59,88,42
674.7266,674.9993,64,88,42
674.9993,675.27203,67,88,42
675.27203,675.5448,64,88,42
675.5448,675.8175,59,88,42
675.8175,676.0902,64,88,42
676.0902,676.363,67,88,42
676.363,677.18115,71,88,42
677.18115,677.45386,72,88,42
677.45386,678.27203,72,88,42
678.27203,678.5448,66,88,42
678.5448,679.363,71,88,42
679.363,679.6357,76,88,42
679.6357,680.45386,76,88,42
680.45386,680.72656,64,88,42
680.72656,681.5448,66,88,42
681.5448,681.8175,67,88,42
681.8175,682.363,69,88,42
682.363,682.6357,67,88,42
682.6357,682.9084,66,88,42
682.9084,683.18115,67,88,42
683.18115,683.2722,69,88,42
683.2722,683.3628,67,88,42
683.3628,683.45386,66,88,42
683.45386,683.72656,66,88,42
683.72656,683.9993,67,88,42
683.9993,684.27203,71,88,42
684.27203,684.5448,69,88,42
684.5448,684.8175,67,88,42
684.8175,685.0902,66,88,42
685.0902,685.9084,64,88,42
685.9084,686.18115,66,88,42
686.18115,686.9993,63,88,42
686.9993,687.27203,66,88,42
687.27203,688.0902,61,88,42
688.0902,688.363,66,88,42
688.363,688.9084,59,88,42
688.9084,689.45386,47,88,42
689.45386,691.3629,43,88,42
689.45386,691.3629,52,88,42
691.6357,691.9084,40,49,42
691.6357,691.9084,52,49,42
691.3629,692.18115,43,88,42
691.9084,692.18115,43,49,42
691.9084,692.18115,55,49,42
692.18115,693.54474,40,49,42
692.18115,693.54474,52,49,42
693.8175,694.0902,40,49,42
693.8175,694.0902,52,49,42
694.0902,694.3629,55,49,42
693.54474,694.3629,43,49,42
694.0902,694.3629,43,49,42
694.3629,695.18115,40,49,42
694.3629,695.18115,52,49,42
695.18115,695.45386,43,49,42
695.45386,695.72656,40,49,42
695.45386,695.72656,52,49,42
695.72656,695.9993,55,49,42
695.72656,695.9993,43,49,42
695.9993,696.27203,52,49,42
696.27203,696.54474,43,49,42
696.54474,696.8175,52,49,42
696.8175,697.0902,55,49,42
697.0902,697.3629,52,49,42
697.3629,697.6357,43,49,42
697.6357,697.9084,52,49,42
697.9084,698.1811,55,49,42
698.1811,698.9993,59,49,42
698.9993,699.27203,60,49,42
699.27203,700.0902,60,49,42
700.0902,700.3629,59,49,42
700.3629,701.1811,59,49,42
701.1811,701.45386,60,49,42
701.45386,702.27203,60,49,42
702.27203,702.54474,59,49,42
702.54474,703.3629,54,36,42
703.3629,703.6357,55,36,42
703.6357,704.1811,57,36,42
704.1811,704.45386,55,36,42
704.45386,704.72656,54,36,42
704.72656,705.54474,54,36,42
705.54474,705.8175,55,36,42
705.8175,706.0902,59,36,42
706.0902,706.3629,57,36,42
706.3629,706.6357,55,36,42
706.6357,706.9084,54,36,42
706.9084,707.72656,52,36,42
707.72656,707.99927,54,36,42
707.99927,708.81744,52,36,42
708.81744,709.0902,54,36,42
709.0902,709.9084,52,36,42
709.9084,710.1811,54,36,42
710.1811,710.99927,52,36,42
710.99927,711.27203,54,36,42
711.27203,711.81744,52,36,42
711.81744,712.3629,47,36,42
712.9084,713.99927,48,36,42
713.99927,714.54474,47,36,42
715.6356,716.1811,47,36,42
716.1811,716.72656,40,36,42
716.72656,717.27203,59,36,42
717.27203,717.81744,52,36,42
717.81744,718.3629,47,36,42
718.3629,718.9084,40,36,42
718.9084,719.4538,47,36,42
719.4538,719.99927,40,36,42
719.99927,720.54474,47,36,42
720.54474,721.0902,40,36,42
721.0902,721.6356,47,36,42
721.6356,722.1811,40,36,42
722.1811,722.72656,47,36,42
722.72656,723.27203,40,36,42
723.27203,723.81744,47,36,42
723.81744,724.3629,40,36,42
724.3629,724.9084,47,36,42
724.9084,725.4538,40,36,42
725.99927,726.54474,59,36,42
726.54474,727.0902,62,36,42
727.0902,727.6356,61,36,42
727.6356,728.1811,60,36,42
728.1811,728.72656,59,36,42
728.72656,729.272,58,36,42
729.272,729.54474,59,36,42
729.54474,729.81744,52,36,42
729.81744,730.3629,55,36,42
730.3629,730.9084,54,36,42
730.9084,731.4538,68,36,42
731.4538,731.72656,69,36,42
731.72656,731.99927,66,36,42
731.99927,732.54474,69,36,42
732.54474,733.09015,68,36,42
733.09015,733.6356,66,36,42
733.6356,734.1811,64,36,42
734.1811,735.272,59,36,42
735.272,735.81744,64,23,42
735.81744,736.3629,59,23,42
736.3629,737.4538,56,23,42
737.4538,737.99927,57,23,42
737.99927,738.54474,56,23,42
738.54474,739.6356,54,23,42
739.6356,740.1811,56,23,42
740.1811,740.72656,54,23,42
740.72656,741.81744,52,23,42
741.81744,742.3629,54,23,42
742.3629,742.9083,52,23,42
742.9083,744.54474,47,23,42
744.54474,745.09015,54,23,42
745.09015,745.6356,52,23,42
745.6356,746.1811,47,23,42
746.1811,746.7265,40,49,42
746.7265,747.272,47,49,42
747.272,747.81744,40,36,42
747.81744,748.3629,47,36,42
748.3629,748.9083,40,49,42
748.9083,749.99927,40,49,42
749.99927,750.5447,47,49,42
750.5447,751.09015,40,49,42
751.09015,752.1811,40,49,42
752.4538,752.7265,59,49,42
752.7265,754.9083,60,49,42
754.9083,757.09015,59,49,42
757.09015,759.272,57,49,42
759.272,761.4538,56,49,42
761.4538,762.5447,54,49,42
762.5447,763.6356,61,49,42
763.6356,764.7265,59,49,42
764.7265,765.81744,57,49,42
765.81744,766.36285,56,49,42
771.8174,772.36285,40,49,42
772.36285,773.4538,52,49,42
773.4538,774.5447,53,49,42
774.5447,775.63556,51,49,42
775.63556,776.7265,52,49,42
776.7265,777.8174,49,49,42
777.8174,779.9992,48,49,42
779.9992,780.5447,47,49,42
780.5447,781.09015,56,49,42
781.09015,782.181,54,49,42
782.181,783.272,61,49,42
783.272,784.36285,59,49,42
784.36285,785.45374,57,49,42
785.45374,786.5447,56,62,42
786.5447,787.63556,71,62,42
787.63556,788.7265,69,62,42
788.7265,789.8174,68,62,42
789.8174,790.9083,66,75,42
790.9083,791.9992,64,75,42
791.9992,793.0901,63,75,42
793.0901,794.181,61,75,42
794.181,795.2719,60,75,42
795.2719,796.36285,59,75,42
796.36285,797.45374,58,62,42
797.45374,797.9992,59,62,42
797.9992,798.5447,56,62,42
798.5447,799.0901,54,49,42
799.0901,799.63556,52,49,42
799.63556,801.2719,47,49,42
801.2719,801.8174,54,49,42
801.8174,802.36285,52,49,42
802.36285,802.58124,47,49,42
802.90826,805.0901,44,36,42
805.0901,807.2719,44,36,42
807.2719,811.63556,44,36,42
493.09042,493.63586,38,62,45
511.0904,511.63586,47,49,45
511.63586,512.18134,35,49,45
513.2722,513.8177,47,49,45
513.8177,514.3631,35,49,45
515.45404,515.9995,47,49,45
515.9995,516.5449,35,49,45
0.545454,0.76384866,64,36,0
0.545454,0.76384866,67,36,0
0.545454,0.76384866,71,36,0
0.545454,0.76384866,76,36,0
0.545454,0.76384866,52,36,0
0.545454,0.76384866,55,36,0
0.545454,0.76384866,59,36,0
1.636362,1.8547567,64,36,0
1.636362,1.8547567,67,36,0
1.636362,1.8547567,71,36,0
1.636362,1.8547567,76,36,0
1.636362,1.8547567,52,36,0
1.636362,1.8547567,55,36,0
1.636362,1.8547567,59,36,0
2.72727,2.9456646,64,36,0
2.72727,2.9456646,66,36,0
2.72727,2.9456646,69,36,0
2.72727,2.9456646,76,36,0
2.72727,2.9456646,52,36,0
2.72727,2.9456646,54,36,0
2.72727,2.9456646,57,36,0
3.818178,4.0365725,64,36,0
3.818178,4.0365725,67,36,0
3.818178,4.0365725,71,36,0
3.818178,4.0365725,76,36,0
3.818178,4.0365725,52,36,0
3.818178,4.0365725,55,36,0
3.818178,4.0365725,59,36,0
4.909086,5.1274805,64,36,0
4.909086,5.1274805,66,36,0
4.909086,5.1274805,72,36,0
4.909086,5.1274805,76,36,0
4.909086,5.1274805,52,36,0
4.909086,5.1274805,54,36,0
4.909086,5.1274805,60,36,0
5.999994,6.2183886,64,36,0
5.999994,6.2183886,67,36,0
5.999994,6.2183886,71,36,0
5.999994,6.2183886,76,36,0
5.999994,6.2183886,52,36,0
5.999994,6.2183886,55,36,0
5.999994,6.2183886,59,36,0
7.090902,7.3092966,67,36,0
7.090902,7.3092966,71,36,0
7.090902,7.3092966,76,36,0
7.090902,7.3092966,79,36,0
7.090902,7.3092966,52,36,0
7.090902,7.3092966,55,36,0
7.090902,7.3092966,59,36,0
7.090902,7.3092966,64,36,0
8.18181,8.400205,66,36,0
8.18181,8.400205,70,36,0
8.18181,8.400205,73,36,0
8.18181,8.400205,78,36,0
8.18181,8.400205,54,36,0
8.18181,8.400205,58,36,0
8.18181,8.400205,61,36,0
9.272718,9.491113,66,36,0
9.272718,9.491113,71,36,0
9.272718,9.491113,75,36,0
9.272718,9.491113,78,36,0
9.272718,9.491113,54,36,0
9.272718,9.491113,59,36,0
9.272718,9.491113,63,36,0
10.363626,10.582021,66,36,0
10.363626,10.582021,71,36,0
10.363626,10.582021,75,36,0
10.363626,10.582021,54,36,0
10.363626,10.582021,59,36,0
10.363626,10.582021,63,36,0
11.454534,11.672929,66,36,0
11.454534,11.672929,71,36,0
11.454534,11.672929,73,36,0
11.454534,11.672929,54,36,0
11.454534,11.672929,59,36,0
11.454534,11.672929,61,36,0
12.545442,12.763837,66,36,0
12.545442,12.763837,70,36,0
12.545442,12.763837,73,36,0
12.545442,12.763837,54,36,0
12.545442,12.763837,58,36,0
12.545442,12.763837,61,36,0
13.63635,13.854745,64,36,0
13.63635,13.854745,71,36,0
13.63635,13.854745,73,36,0
13.63635,13.854745,76,36,0
13.63635,13.854745,52,36,0
13.63635,13.854745,59,36,0
13.63635,13.854745,61,36,0
14.727258,14.945653,66,36,0
14.727258,14.945653,70,36,0
14.727258,14.945653,73,36,0
14.727258,14.945653,54,36,0
14.727258,14.945653,58,36,0
14.727258,14.945653,61,36,0
15.818166,16.03656,66,36,0
15.818166,16.03656,71,36,0
15.818166,16.03656,75,36,0
15.818166,16.03656,54,36,0
15.818166,16.03656,59,36,0
15.818166,16.03656,63,36,0
16.909075,17.127468,63,36,0
16.909075,17.127468,66,36,0
16.909075,17.127468,71,36,0
16.909075,17.127468,47,36,0
16.909075,17.127468,59,36,0
17.999983,18.218376,64,36,0
17.999983,18.218376,67,36,0
17.999983,18.218376,72,36,0
17.999983,18.218376,59,36,0
19.09089,19.309284,64,36,0
19.09089,19.309284,67,36,0
19.09089,19.309284,72,36,0
19.09089,19.309284,57,36,0
20.181799,20.400192,62,36,0
20.181799,20.400192,66,36,0
20.181799,20.400192,69,36,0
20.181799,20.400192,74,36,0
20.181799,20.400192,60,36,0
21.272705,21.4911,62,36,0
21.272705,21.4911,67,36,0
21.272705,21.4911,74,36,0
21.272705,21.4911,59,36,0
22.363613,22.582008,64,36,0
22.363613,22.582008,67,36,0
22.363613,22.582008,72,36,0
22.363613,22.582008,59,36,0
23.454521,23.672916,64,36,0
23.454521,23.672916,69,36,0
23.454521,23.672916,72,36,0
23.454521,23.672916,57,36,0
24.54543,24.763824,62,36,0
24.54543,24.763824,66,36,0
24.54543,24.763824,69,36,0
24.54543,24.763824,74,36,0
24.54543,24.763824,60,36,0
25.636337,25.854733,62,36,0
25.636337,25.854733,67,36,0
25.636337,25.854733,74,36,0
25.636337,25.854733,59,36,0
26.727245,26.94564,64,36,0
26.727245,26.94564,67,36,0
26.727245,26.94564,72,36,0
26.727245,26.94564,59,36,0
27.818153,28.036549,64,36,0
27.818153,28.036549,69,36,0
27.818153,28.036549,72,36,0
27.818153,28.036549,57,36,0
28.909061,29.127457,66,36,0
28.909061,29.127457,69,36,0
28.909061,29.127457,74,36,0
28.909061,29.127457,60,36,0
29.99997,30.218365,66,36,0
29.99997,30.218365,71,36,0
29.99997,30.218365,74,36,0
29.99997,30.218365,59,36,0
31.090878,31.309273,67,36,0
31.090878,31.309273,71,36,0
31.090878,31.309273,76,36,0
31.090878,31.309273,62,36,0
32.181786,32.40018,69,36,0
32.181786,32.40018,72,36,0
32.181786,32.40018,76,36,0
32.181786,32.40018,60,36,0
33.272694,33.49109,69,36,0
33.272694,33.49109,72,36,0
33.272694,33.49109,81,36,0
33.272694,33.49109,66,36,0
34.3636,34.581997,72,36,0
34.3636,34.581997,79,36,0
34.3636,34.581997,84,36,0
34.3636,34.581997,64,36,0
34.3636,34.581997,67,36,0
35.249966,35.45451,78,36,0
35.318146,35.45451,81,36,0
35.318146,35.45451,63,36,0
35.38633,35.45451,66,36,0
35.45451,37.636326,78,36,0
35.45451,37.636326,81,36,0
35.45451,37.636326,84,36,0
35.45451,37.636326,90,36,0
35.45451,37.636326,63,36,0
35.45451,37.636326,66,36,0
35.45451,37.636326,69,36,0
35.45451,37.636326,72,36,0
43.63632,44.727226,76,36,0
43.63632,44.727226,76,36,0
43.63632,44.727226,64,36,0
43.63632,44.727226,64,36,0
44.727226,45.54541,79,36,0
44.727226,45.54541,67,36,0
45.54541,45.818134,83,36,0
45.54541,45.818134,71,36,0
45.818134,46.36359,66,36,0
45.818134,46.909042,76,36,0
45.818134,46.909042,84,36,0
45.818134,46.909042,64,36,0
45.818134,46.909042,72,36,0
46.36359,47.4545,69,36,0
46.909042,47.99995,76,36,0
46.909042,47.99995,83,36,0
47.4545,47.99995,67,36,0
46.909042,47.99995,64,36,0
46.909042,47.99995,71,36,0
47.99995,48.27268,81,36,0
47.99995,48.27268,69,36,0
48.27268,48.409042,83,36,0
48.27268,48.409042,71,36,0
48.409042,48.545406,81,36,0
48.409042,48.545406,69,36,0
48.545406,48.818134,79,36,0
48.545406,48.818134,67,36,0
48.818134,49.09086,81,36,0
48.818134,49.09086,69,36,0
49.09086,49.909042,83,36,0
49.09086,49.909042,71,36,0
49.909042,50.181767,79,36,0
47.99995,50.181767,76,36,0
49.909042,50.181767,67,36,0
47.99995,50.181767,64,36,0
50.181767,51.272675,67,36,0
50.181767,51.272675,76,36,0
50.181767,51.272675,55,36,0
50.181767,51.272675,64,36,0
51.272675,52.63631,67,36,0
52.363583,52.63631,71,36,0
51.272675,52.63631,74,36,0
51.272675,52.63631,77,36,0
51.272675,52.63631,55,36,0
51.272675,52.63631,62,36,0
51.272675,52.63631,65,36,0
52.63631,52.90904,74,36,0
52.63631,52.90904,62,36,0
52.90904,53.181767,77,62,0
52.90904,53.181767,65,62,0
53.181767,53.45449,83,62,0
53.181767,53.45449,71,62,0
53.45449,54.272675,74,62,0
53.45449,54.272675,86,62,0
54.272675,54.5454,79,75,0
54.272675,54.5454,91,75,0
53.999947,54.5454,53,75,0
53.999947,54.5454,55,75,0
53.999947,54.5454,59,75,0
53.999947,54.5454,62,75,0
54.5454,55.636307,79,88,0
54.5454,55.636307,91,88,0
55.636307,56.727215,67,88,0
55.636307,56.727215,79,88,0
54.5454,56.727215,52,88,0
54.5454,56.727215,55,88,0
54.5454,56.727215,60,88,0
54.5454,56.727215,64,88,0
56.727215,56.999943,36,88,0
56.999943,57.27267,64,88,0
56.999943,57.27267,43,88,0
57.27267,57.5454,67,88,0
57.27267,57.5454,48,88,0
57.5454,57.818123,72,88,0
57.5454,57.818123,52,88,0
57.818123,58.36358,55,88,0
57.818123,58.636307,76,88,0
58.636307,58.90903,65,88,0
58.636307,58.90903,77,88,0
58.636307,58.90903,81,88,0
58.36358,58.90903,48,88,0
58.36358,58.90903,60,88,0
58.90903,59.99994,69,88,0
58.90903,59.99994,77,88,0
58.90903,59.99994,81,88,0
58.90903,59.99994,48,88,0
58.90903,59.99994,53,88,0
58.90903,59.99994,57,88,0
58.90903,59.99994,60,88,0
59.99994,61.090847,65,88,0
59.99994,61.090847,69,88,0
60.545395,61.090847,41,88,0
61.090847,61.363575,33,88,0
61.363575,61.636303,57,88,0
61.363575,61.636303,45,88,0
61.636303,61.909027,60,88,0
61.636303,61.909027,48,88,0
61.909027,62.181755,65,88,0
61.909027,62.181755,53,88,0
62.181755,62.454483,69,88,0
62.181755,62.454483,57,88,0
62.454483,62.72721,72,88,0
62.454483,62.72721,60,88,0
62.72721,62.999935,77,88,0
62.72721,62.999935,65,88,0
63.272663,63.54539,35,88,0
63.54539,63.81812,59,88,0
63.54539,63.81812,47,88,0
63.81812,64.09084,64,88,0
63.81812,64.09084,52,88,0
64.09084,64.36357,67,88,0
64.09084,64.36357,55,88,0
64.36357,64.6363,71,88,0
64.36357,64.6363,59,88,0
64.6363,64.90903,76,88,0
64.6363,64.90903,64,88,0
64.90903,65.181755,81,88,0
64.90903,65.181755,69,88,0
65.181755,65.45448,78,88,0
64.90903,65.45448,71,88,0
65.181755,65.45448,66,88,0
64.90903,65.45448,59,88,0
65.45448,65.7272,71,88,0
65.45448,65.7272,79,88,0
65.45448,65.7272,59,88,0
65.45448,65.7272,67,88,0
65.7272,65.99993,67,88,0
65.7272,65.99993,55,88,0
65.99993,66.27266,71,88,0
65.99993,66.27266,59,88,0
66.27266,66.54539,76,88,0
66.27266,66.54539,64,88,0
66.54539,66.818115,79,88,0
66.54539,66.818115,67,88,0
66.818115,67.09084,83,88,0
66.818115,67.09084,71,88,0
67.09084,67.36357,85,88,0
67.09084,67.36357,73,88,0
67.36357,67.6363,87,88,0
67.09084,67.6363,81,88,0
67.36357,67.6363,75,88,0
67.09084,67.6363,69,88,0
67.6363,68.18175,79,88,0
67.6363,68.18175,88,88,0
67.6363,68.18175,67,88,0
67.6363,68.18175,76,88,0
68.7272,70.90902,76,88,0
68.7272,70.90902,79,88,0
68.7272,70.90902,88,88,0
68.7272,70.90902,55,88,0
68.7272,70.90902,64,88,0
68.7272,70.90902,67,88,0
70.90902,71.12741,86,88,0
71.454475,71.67287,83,88,0
70.90902,71.99993,74,88,0
70.90902,71.99993,77,88,0
70.90902,71.99993,55,88,0
70.90902,71.99993,62,88,0
70.90902,71.99993,65,88,0
71.99993,72.18157,72,49,0
71.99993,72.18157,84,49,0
72.18157,72.36374,76,49,0
72.36374,72.54538,84,49,0
71.99993,72.54538,60,49,0
71.99993,72.54538,64,49,0
72.54538,72.72702,79,49,0
72.72702,72.909195,76,49,0
72.909195,73.090836,79,49,0
72.54538,73.090836,64,49,0
72.54538,73.090836,67,49,0
73.090836,73.27248,77,49,0
73.27248,73.45465,74,49,0
73.45465,73.63629,77,49,0
73.090836,73.63629,62,49,0
73.090836,73.63629,65,49,0
73.63629,73.81793,76,49,0
73.81793,74.00011,72,49,0
74.00011,74.18175,76,49,0
73.63629,74.18175,60,49,0
73.63629,74.18175,64,49,0
74.18175,74.36339,75,49,0
74.36339,74.545555,72,49,0
74.545555,74.727196,75,49,0
74.727196,74.90884,72,49,0
74.90884,75.09101,75,49,0
75.09101,75.27265,72,49,0
74.18175,75.27265,54,49,0
74.18175,75.27265,60,49,0
74.18175,75.27265,63,49,0
75.27265,75.45429,76,49,0
75.45429,75.63647,72,49,0
75.63647,75.81811,76,49,0
75.27265,75.81811,55,49,0
75.27265,75.81811,60,49,0
75.27265,75.81811,64,49,0
75.81811,75.99975,79,49,0
75.99975,76.18192,76,49,0
76.18192,76.36356,79,49,0
75.81811,76.36356,60,49,0
75.81811,76.36356,64,49,0
75.81811,76.36356,67,49,0
76.36356,76.545204,80,49,0
76.545204,76.72737,75,49,0
76.72737,76.90901,80,49,0
76.36356,76.90901,68,49,0
76.90901,77.09065,84,49,0
77.09065,77.27283,75,49,0
77.27283,77.45447,84,49,0
76.90901,77.45447,72,49,0
76.36356,77.45447,60,49,0
76.36356,77.45447,63,49,0
77.45447,77.63611,79,49,0
77.63611,77.81828,76,49,0
77.81828,77.99992,79,49,0
77.45447,77.99992,67,49,0
77.45447,77.99992,60,49,0
77.45447,77.99992,64,49,0
77.99992,78.181564,76,49,0
78.181564,78.36374,72,49,0
78.36374,78.54538,76,49,0
77.99992,78.54538,64,49,0
77.99992,78.54538,55,49,0
77.99992,78.54538,60,49,0
78.54538,78.72701,75,49,0
78.72701,78.90919,72,49,0
78.90919,79.09083,75,49,0
79.09083,79.27247,72,49,0
79.27247,79.45464,75,49,0
79.45464,79.636284,72,49,0
78.54538,79.636284,54,49,0
78.54538,79.636284,60,49,0
78.54538,79.636284,63,49,0
79.636284,79.817924,76,49,0
79.817924,80.0001,72,49,0
80.0001,80.18174,76,49,0
79.636284,80.18174,55,49,0
79.636284,80.18174,60,49,0
79.636284,80.18174,64,49,0
80.18174,80.36338,79,49,0
80.36338,80.545555,76,49,0
80.545555,80.727196,79,49,0
80.18174,80.727196,64,49,0
80.18174,80.727196,67,49,0
80.727196,80.90883,81,49,0
80.90883,81.091,77,49,0
81.091,81.272644,81,49,0
80.727196,81.272644,69,49,0
81.272644,81.454285,86,49,0
81.454285,81.63646,77,49,0
81.63646,81.8181,86,49,0
81.272644,81.8181,74,49,0
80.727196,81.8181,65,49,0
81.8181,81.99974,79,49,0
81.99974,82.181915,76,49,0
82.181915,82.363556,79,49,0
81.8181,82.363556,67,49,0
81.8181,82.363556,64,49,0
82.363556,82.5452,84,49,0
82.5452,82.72737,76,49,0
82.72737,82.909004,84,49,0
82.363556,82.909004,72,49,0
82.363556,82.909004,64,49,0
82.909004,83.090645,77,49,0
83.090645,83.27282,74,49,0
83.27282,83.45446,77,49,0
82.909004,83.45446,65,49,0
83.45446,83.6361,83,49,0
83.6361,83.818275,74,49,0
83.818275,83.999916,83,49,0
83.45446,83.999916,71,49,0
82.909004,83.999916,62,49,0
83.999916,84.18156,81,49,0
84.18156,84.36373,72,49,0
84.36373,84.54537,81,49,0
83.999916,84.54537,69,49,0
83.999916,84.54537,60,49,0
84.54537,84.72701,76,49,0
84.72701,84.90919,72,49,0
84.90919,85.09082,76,49,0
84.54537,85.09082,64,49,0
84.54537,85.09082,60,49,0
85.09082,85.27246,76,49,0
85.27246,85.454636,72,49,0
85.454636,85.63628,76,49,0
85.09082,85.63628,60,49,0
85.09082,85.63628,64,49,0
85.63628,85.81792,74,49,0
85.81792,86.00009,71,49,0
86.00009,86.18173,74,49,0
85.63628,86.18173,59,49,0
85.63628,86.18173,62,49,0
85.09082,86.18173,53,49,0
86.18173,86.36337,74,49,0
86.36337,86.54555,71,49,0
86.54555,86.72719,74,49,0
86.18173,86.72719,59,49,0
86.18173,86.72719,62,49,0
86.72719,86.90883,76,49,0
86.90883,87.090996,72,49,0
87.090996,87.27264,76,49,0
86.72719,87.27264,60,49,0
86.72719,87.27264,64,49,0
86.18173,87.27264,52,49,0
87.27264,87.45428,79,49,0
87.45428,87.63645,72,49,0
87.63645,87.81809,79,49,0
87.81809,87.99973,72,49,0
87.99973,88.18191,79,49,0
88.18191,88.36355,72,49,0
87.27264,88.36355,50,49,0
87.34082,88.36355,57,49,0
87.409004,88.36355,60,49,0
87.47719,88.36355,67,49,0
88.36355,88.54519,77,49,0
88.54519,88.72736,71,49,0
88.72736,88.909004,77,49,0
88.36355,88.909004,65,49,0
88.909004,89.090645,74,49,0
89.090645,89.27281,65,49,0
89.27281,89.45445,74,49,0
88.909004,89.45445,62,49,0
88.36355,89.45445,55,49,0
88.36355,89.45445,59,49,0
89.45445,89.63609,79,49,0
89.63609,89.81827,70,49,0
89.81827,89.99991,67,49,0
89.99991,90.18155,72,49,0
90.18155,90.36372,70,49,0
90.36372,90.545364,60,49,0
89.45445,90.545364,48,49,0
90.545364,90.727005,72,49,0
90.727005,90.90918,70,49,0
90.90918,91.09082,60,49,0
90.545364,91.09082,36,49,0
91.09082,91.27246,72,49,0
91.27246,91.45463,69,49,0
91.45463,91.63627,60,49,0
91.09082,91.63627,36,49,0
91.63627,91.81791,82,49,0
91.81791,92.000084,76,49,0
92.000084,92.181725,70,49,0
92.181725,92.363365,76,49,0
92.363365,92.54554,70,49,0
92.54554,92.72718,64,49,0
91.63627,92.72718,48,49,0
92.72718,92.90882,76,49,0
92.90882,93.090996,70,49,0
93.090996,93.27264,64,49,0
92.72718,93.27264,36,49,0
93.27264,93.45428,77,49,0
93.45428,93.636444,69,49,0
93.636444,93.818085,65,49,0
93.27264,93.818085,36,49,0
93.818085,93.999725,81,62,0
93.999725,94.1819,77,62,0
94.1819,94.36354,69,62,0
94.36354,94.54518,79,62,0
94.54518,94.727356,77,62,0
94.727356,94.909,67,62,0
93.818085,94.909,48,62,0
94.909,95.09064,79,62,0
95.09064,95.27281,77,62,0
95.27281,95.45445,67,62,0
94.909,95.45445,36,62,0
95.45445,95.63609,79,62,0
95.63609,95.81826,76,62,0
95.81826,95.9999,67,62,0
95.45445,95.9999,36,62,0
95.9999,96.18154,89,75,0
96.18154,96.363716,79,75,0
96.363716,96.54536,77,75,0
96.54536,96.727,83,75,0
96.727,96.90917,77,75,0
96.90917,97.09081,71,75,0
95.9999,97.09081,48,75,0
97.09081,97.27245,83,75,0
97.27245,97.45463,77,75,0
97.45463,97.63627,71,75,0
97.09081,97.63627,36,75,0
97.63627,97.81791,84,75,0
97.81791,98.00008,76,75,0
98.00008,98.18172,72,75,0
97.63627,98.18172,36,75,0
98.18172,98.36336,34,88,0
98.36336,98.54553,36,88,0
98.54553,98.72717,46,88,0
98.72717,98.90881,33,88,0
98.90881,99.09099,36,88,0
98.18172,99.27263,72,88,0
98.18172,99.27263,84,88,0
99.09099,99.27263,45,88,0
99.27263,99.45427,33,88,0
99.45427,99.636444,36,88,0
99.27263,99.818085,72,88,0
99.636444,99.818085,45,88,0
99.818085,99.999725,34,88,0
99.999725,100.18189,36,88,0
100.18189,100.36353,46,88,0
100.36353,100.54517,34,88,0
100.54517,100.72735,36,88,0
100.72735,100.90899,46,88,0
100.90899,101.09063,33,88,0
101.09063,101.272804,36,88,0
99.818085,101.454445,72,88,0
100.36353,101.454445,84,88,0
101.272804,101.454445,45,88,0
101.454445,101.636086,33,88,0
101.636086,101.81826,36,88,0
101.454445,101.9999,72,88,0
101.81826,101.9999,45,88,0
101.9999,102.18154,34,88,0
102.18154,102.36371,36,88,0
102.36371,102.54535,46,88,0
102.54535,102.72699,32,88,0
102.72699,102.909164,36,88,0
102.909164,103.090805,44,88,0
103.090805,103.272446,31,88,0
103.272446,103.45462,36,88,0
101.9999,103.63626,72,88,0
102.54535,103.63626,84,88,0
103.45462,103.63626,43,88,0
103.63626,103.8179,31,88,0
103.8179,104.00008,36,88,0
103.63626,104.18172,72,88,0
104.00008,104.18172,43,88,0
104.18172,104.36336,32,88,0
104.36336,104.545525,36,88,0
104.545525,104.727165,44,88,0
104.727165,104.908806,31,88,0
104.908806,105.09098,36,88,0
105.09098,105.27262,43,88,0
105.27262,105.45426,30,88,0
105.45426,105.63644,36,88,0
104.18172,105.81808,72,88,0
104.727165,105.81808,84,88,0
105.63644,105.81808,42,88,0
105.81808,105.99972,30,88,0
105.99972,106.18189,36,88,0
105.81808,106.36353,72,88,0
106.18189,106.36353,42,88,0
106.36353,106.54517,31,88,0
106.54517,106.72734,36,88,0
106.36353,106.90898,72,88,0
106.72734,106.90898,43,88,0
106.90898,107.09062,85,88,0
107.09062,107.2728,76,88,0
107.2728,107.45444,73,88,0
107.45444,107.63608,84,88,0
107.63608,107.81825,75,88,0
107.81825,107.99989,72,88,0
106.90898,107.99989,42,88,0
106.90898,107.99989,54,88,0
107.99989,108.18153,84,88,0
108.18153,108.36371,75,88,0
108.36371,108.54535,72,88,0
107.99989,108.54535,30,88,0
107.99989,108.54535,42,88,0
108.54535,108.72699,85,88,0
108.72699,108.90916,76,88,0
108.90916,109.0908,73,88,0
109.0908,109.27244,85,88,0
109.27244,109.45461,76,88,0
109.45461,109.63625,73,88,0
109.63625,109.817894,84,88,0
109.817894,110.00007,75,88,0
110.00007,110.18171,72,88,0
108.54535,110.18171,42,88,0
109.0908,110.18171,54,88,0
110.18171,110.36335,84,88,0
110.36335,110.545525,75,88,0
110.545525,110.727165,72,88,0
110.18171,110.727165,30,88,0
110.18171,110.727165,42,88,0
110.727165,110.908806,85,88,0
110.908806,111.09097,76,88,0
111.09097,111.27261,73,88,0
111.27261,111.454254,83,88,0
111.454254,111.63643,74,88,0
111.63643,111.81807,71,88,0
111.81807,111.99971,82,88,0
111.99971,112.181885,73,88,0
112.181885,112.363525,70,88,0
110.727165,112.363525,42,88,0
111.27261,112.363525,54,88,0
112.363525,112.545166,82,88,0
112.545166,112.72734,73,88,0
112.72734,112.90898,70,88,0
112.363525,112.90898,30,88,0
112.363525,112.90898,42,88,0
112.90898,113.09062,83,88,0
113.09062,113.27279,74,88,0
113.27279,113.45443,71,88,0
113.45443,113.63607,81,88,0
113.63607,113.818245,73,88,0
113.818245,113.999886,69,88,0
113.999886,114.181526,79,88,0
114.181526,114.3637,71,88,0
114.3637,114.54534,67,88,0
112.90898,114.54534,42,88,0
113.45443,114.54534,54,88,0
114.54534,114.72698,79,88,0
114.72698,114.90916,71,88,0
114.90916,115.0908,67,88,0
114.54534,115.0908,30,88,0
114.54534,115.0908,42,88,0
115.0908,115.27244,77,88,0
115.27244,115.454605,71,88,0
115.454605,115.636246,65,88,0
115.0908,115.636246,42,88,0
115.636246,115.90897,30,88,0
115.636246,116.1817,66,88,0
115.636246,116.1817,70,88,0
115.636246,116.1817,78,88,0
115.90897,116.1817,42,88,0
116.1817,116.45443,46,88,0
116.45443,116.72716,49,88,0
116.72716,117.81806,42,88,0
116.72716,117.81806,52,88,0
118.09079,118.36352,66,88,0
117.81806,118.36352,50,88,0
118.36352,118.636246,70,88,0
118.636246,118.90897,73,88,0
118.36352,118.90897,49,88,0
117.81806,118.90897,42,88,0
118.90897,119.1817,30,88,0
119.1817,119.45443,42,88,0
119.45443,119.72715,46,88,0
118.90897,119.99988,64,88,0
118.90897,119.99988,76,88,0
119.72715,119.99988,49,88,0
119.99988,120.272606,42,88,0
119.99988,120.272606,54,88,0
119.99988,120.545334,74,88,0
120.272606,120.545334,58,88,0
120.545334,120.81806,61,88,0
120.545334,121.09079,73,88,0
120.81806,121.09079,64,88,0
121.36352,121.636246,70,88,0
121.36352,121.636246,82,88,0
121.636246,121.908966,73,88,0
121.636246,121.908966,85,88,0
121.908966,122.181694,76,88,0
121.908966,122.181694,88,88,0
121.09079,122.181694,54,88,0
121.09079,122.181694,67,88,0
122.181694,122.72715,66,88,0
122.181694,123.272606,79,88,0
122.181694,123.272606,91,88,0
122.72715,123.272606,64,88,0
122.181694,123.272606,54,88,0
123.272606,123.818054,78,88,0
123.272606,123.818054,90,88,0
123.272606,123.818054,62,88,0
123.818054,124.36351,70,88,0
123.818054,124.36351,76,88,0
123.818054,124.36351,82,88,0
123.818054,124.36351,61,88,0
123.272606,124.36351,54,88,0
124.63624,124.908966,66,88,0
124.63624,124.908966,54,88,0
124.908966,125.72715,62,88,0
124.908966,125.72715,71,88,0
124.908966,125.72715,47,88,0
125.72715,125.99987,66,88,0
125.72715,125.99987,54,88,0
125.99987,126.2726,62,88,0
125.99987,126.2726,71,88,0
125.99987,126.2726,47,88,0
126.2726,126.54533,66,88,0
126.2726,126.54533,74,88,0
126.2726,126.54533,42,88,0
126.54533,127.36351,62,88,0
126.54533,127.36351,71,88,0
126.54533,127.36351,35,88,0
127.36351,127.63624,66,88,0
127.36351,127.63624,54,88,0
127.63624,127.908966,62,88,0
127.63624,127.908966,71,88,0
127.63624,127.908966,47,88,0
127.908966,128.18169,66,88,0
127.908966,128.18169,74,88,0
127.908966,128.18169,42,88,0
128.18169,128.45442,62,88,0
128.18169,128.45442,71,88,0
128.18169,128.45442,35,88,0
128.45442,128.72714,66,88,0
128.45442,128.72714,54,88,0
128.72714,128.99988,62,88,0
128.72714,128.99988,71,88,0
128.72714,128.99988,47,88,0
128.99988,129.2726,66,88,0
128.99988,129.2726,74,88,0
128.99988,129.2726,42,88,0
129.2726,130.09077,66,88,0
129.2726,130.09077,74,88,0
129.2726,130.09077,78,88,0
129.2726,130.09077,35,88,0
129.2726,130.09077,47,88,0
130.09077,130.36351,64,88,0
130.09077,130.36351,73,88,0
130.09077,130.36351,76,88,0
130.09077,130.36351,34,88,0
130.09077,130.36351,46,88,0
130.36351,131.18169,64,88,0
130.36351,131.18169,73,88,0
130.36351,131.18169,76,88,0
130.36351,131.18169,34,88,0
130.36351,131.18169,46,88,0
131.18169,131.4544,63,88,0
131.18169,131.4544,71,88,0
131.18169,131.4544,75,88,0
131.18169,131.4544,33,88,0
131.18169,131.4544,45,88,0
131.4544,132.2726,63,88,0
131.4544,132.2726,71,88,0
131.4544,132.2726,75,88,0
131.4544,132.2726,33,88,0
131.4544,132.2726,45,88,0
132.2726,132.54532,64,88,0
132.2726,132.54532,71,88,0
132.2726,132.54532,76,88,0
132.2726,132.54532,32,88,0
132.2726,132.54532,44,88,0
132.54532,133.09077,64,88,0
132.54532,133.09077,71,88,0
132.54532,133.09077,76,88,0
132.54532,133.09077,32,88,0
132.54532,133.09077,44,88,0
133.09077,133.36351,31,88,0
133.09077,133.36351,43,88,0
133.36351,133.63623,47,88,0
133.36351,133.63623,47,88,0
133.36351,133.90895,64,88,0
133.63623,133.90895,76,88,0
133.63623,133.90895,43,88,0
133.63623,133.90895,55,88,0
133.90895,134.18169,66,88,0
133.90895,134.18169,78,88,0
133.90895,134.18169,42,88,0
133.90895,134.18169,54,88,0
134.18169,134.72714,67,88,0
134.18169,134.72714,79,88,0
134.18169,134.72714,40,88,0
134.18169,134.72714,52,88,0
134.72714,134.99986,66,88,0
134.72714,134.99986,78,88,0
134.72714,134.99986,42,88,0
134.72714,134.99986,54,88,0
134.99986,135.2726,64,88,0
134.99986,135.2726,76,88,0
134.99986,135.2726,43,88,0
134.99986,135.2726,55,88,0
134.18169,135.2726,47,88,0
135.2726,135.54532,31,88,0
135.2726,135.54532,43,88,0
135.54532,135.81804,47,88,0
135.54532,135.81804,47,88,0
135.54532,136.09077,64,88,0
135.81804,136.09077,76,88,0
135.81804,136.09077,43,88,0
135.81804,136.09077,55,88,0
136.09077,136.3635,66,88,0
136.09077,136.3635,78,88,0
136.09077,136.3635,54,88,0
136.3635,136.63623,69,88,0
136.3635,136.63623,81,88,0
136.63623,136.90895,67,88,0
136.63623,136.90895,79,88,0
136.3635,136.90895,40,88,0
136.3635,136.90895,52,88,0
136.90895,137.18169,66,88,0
136.90895,137.18169,78,88,0
136.90895,137.18169,42,88,0
136.90895,137.18169,54,88,0
137.18169,137.4544,64,88,0
137.18169,137.4544,76,88,0
137.18169,137.4544,43,88,0
137.18169,137.4544,55,88,0
136.3635,137.4544,47,88,0
137.72714,137.99986,44,88,0
137.72714,137.99986,56,88,0
137.4544,138.27258,65,88,0
137.4544,138.27258,77,88,0
138.27258,138.54532,73,88,0
137.99986,138.81804,49,88,0
138.81804,139.09077,42,88,0
138.81804,139.09077,54,88,0
138.54532,139.3635,66,88,0
138.54532,139.3635,78,88,0
139.3635,139.63623,73,88,0
139.09077,139.90895,49,88,0
139.90895,140.18167,37,88,0
139.63623,140.4544,68,88,0
139.63623,140.4544,77,88,0
139.63623,140.4544,80,88,0
140.4544,140.72713,73,88,0
140.18167,140.99986,49,88,0
140.72713,141.27258,70,88,0
140.72713,141.27258,78,88,0
140.72713,141.27258,82,88,0
140.99986,141.27258,30,88,0
141.27258,141.81804,54,88,0
141.27258,141.81804,42,88,0
142.63622,142.90895,30,88,0
141.81804,143.72713,47,88,0
141.81804,143.72713,50,88,0
141.81804,143.72713,59,88,0
143.72713,143.99986,50,88,0
143.72713,143.99986,50,88,0
143.99986,144.27258,59,88,0
142.90895,144.27258,31,88,0
144.27258,144.5453,62,88,0
144.27258,144.5453,30,88,0
144.5453,144.81804,31,88,0
144.81804,145.09076,33,88,0
144.5453,145.90895,59,88,0
143.72713,145.90895,38,88,0
145.90895,146.18167,50,88,0
146.18167,146.45439,59,88,0
145.09076,146.45439,31,88,0
146.45439,146.72713,62,88,0
146.45439,146.72713,30,88,0
146.72713,146.99985,31,88,0
146.99985,147.27258,33,88,0
146.72713,147.5453,59,88,0
145.90895,147.5453,38,88,0
146.18167,147.5453,50,88,0
147.5453,147.81804,50,88,0
147.5453,147.81804,50,88,0
147.81804,148.09076,59,88,0
147.27258,148.09076,31,88,0
148.09076,148.3635,62,49,0
148.09076,148.3635,30,49,0
148.3635,148.63622,59,49,0
147.5453,148.63622,38,88,0
148.3635,148.63622,31,49,0
148.63622,148.90894,50,49,0
148.63622,148.90894,33,49,0
148.90894,149.18167,59,49,0
148.90894,149.18167,31,49,0
149.18167,149.45439,62,49,0
149.18167,149.45439,30,49,0
149.45439,149.72713,59,49,0
148.63622,149.72713,38,49,0
149.45439,149.72713,31,49,0
149.72713,149.99985,50,49,0
149.72713,149.99985,33,49,0
149.99985,150.27258,59,49,0
149.99985,150.27258,31,49,0
150.27258,150.5453,62,49,0
149.72713,150.5453,38,49,0
150.27258,150.5453,29,49,0
150.5453,150.81802,30,49,0
150.81802,151.09076,31,49,0
150.5453,151.36348,66,49,0
151.36348,151.63622,67,49,0
150.5453,151.63622,59,49,0
150.5453,151.63622,62,49,0
151.09076,151.63622,30,49,0
151.63622,152.45439,67,49,0
152.45439,152.72713,66,49,0
151.63622,152.72713,58,49,0
151.63622,152.72713,61,49,0
152.45439,152.72713,54,49,0
152.72713,153.5453,66,49,0
152.72713,153.5453,54,49,0
153.5453,153.81802,67,49,0
152.72713,153.81802,59,49,0
153.5453,153.81802,55,49,0
152.72713,153.81802,47,49,0
153.81802,154.63622,67,49,0
153.81802,154.63622,55,49,0
154.63622,154.90894,66,49,0
153.81802,154.90894,59,49,0
154.63622,154.90894,54,49,0
153.81802,154.90894,47,49,0
154.90894,155.72711,61,36,0
154.90894,155.72711,49,36,0
155.72711,155.99985,62,36,0
154.90894,155.99985,59,36,0
155.72711,155.99985,50,36,0
154.90894,155.99985,47,36,0
155.99985,156.5453,64,36,0
155.99985,156.5453,52,36,0
156.5453,156.81802,62,36,0
156.5453,156.81802,50,36,0
156.81802,157.09076,61,36,0
155.99985,157.09076,59,36,0
156.81802,157.09076,49,36,0
155.99985,157.09076,47,36,0
157.09076,157.90894,61,36,0
157.09076,157.90894,49,36,0
157.90894,158.18166,62,36,0
157.09076,158.18166,59,36,0
157.90894,158.18166,50,36,0
157.09076,158.18166,47,36,0
158.18166,158.45439,66,36,0
158.18166,158.45439,54,36,0
158.45439,158.72711,64,36,0
158.45439,158.72711,52,36,0
158.72711,158.99985,62,36,0
158.72711,158.99985,50,36,0
158.99985,159.27257,61,36,0
158.18166,159.27257,59,36,0
158.99985,159.27257,49,36,0
158.18166,159.27257,47,36,0
159.27257,160.09074,59,36,0
159.27257,160.09074,47,36,0
160.09074,160.36348,61,36,0
160.09074,160.36348,49,36,0
160.36348,161.18166,59,36,0
160.36348,161.18166,47,36,0
161.18166,161.45439,61,36,0
161.18166,161.45439,49,36,0
161.45439,162.27257,59,36,0
161.45439,162.27257,47,36,0
162.27257,162.54529,61,36,0
162.27257,162.54529,49,36,0
162.54529,163.36348,59,36,0
162.54529,163.36348,47,36,0
163.36348,163.6362,61,36,0
163.36348,163.6362,49,36,0
163.6362,164.18166,59,36,0
163.6362,164.18166,47,36,0
164.18166,164.72711,54,36,0
164.18166,164.72711,42,36,0
165.27257,166.36346,55,36,0
165.81801,166.6362,30,36,0
165.81801,166.6362,42,36,0
166.36346,166.90892,54,36,0
167.45438,167.99983,54,36,0
167.45438,167.99983,42,36,0
167.99983,168.54529,47,36,0
167.99983,168.54529,35,36,0
168.54529,169.09074,66,36,0
168.54529,169.09074,42,36,0
169.09074,169.6362,59,36,0
169.09074,169.6362,35,36,0
169.6362,170.18164,66,36,0
169.6362,170.18164,78,36,0
169.6362,170.18164,42,36,0
170.18164,170.7271,71,36,0
170.18164,170.7271,75,36,0
170.18164,170.7271,83,36,0
170.18164,170.7271,35,36,0
170.7271,171.27255,70,36,0
170.7271,171.27255,78,36,0
170.7271,171.27255,82,36,0
170.7271,171.27255,42,36,0
171.27255,171.81801,68,36,0
171.27255,171.81801,76,36,0
171.27255,171.81801,80,36,0
171.27255,171.81801,35,36,0
171.81801,172.36346,66,36,0
171.81801,172.36346,75,36,0
171.81801,172.36346,78,36,0
171.81801,172.36346,42,36,0
172.36346,172.90892,64,36,0
172.36346,172.90892,73,36,0
172.36346,172.90892,76,36,0
172.36346,172.90892,35,36,0
172.90892,173.18164,66,36,0
172.90892,173.18164,75,36,0
172.90892,173.18164,78,36,0
173.18164,173.45438,61,36,0
173.18164,173.45438,70,36,0
173.18164,173.45438,73,36,0
172.90892,173.45438,42,36,0
173.45438,173.99983,64,36,0
173.45438,173.99983,73,36,0
173.45438,173.99983,76,36,0
173.45438,173.99983,35,36,0
173.99983,174.54527,63,36,0
173.99983,174.54527,71,36,0
173.99983,174.54527,75,36,0
173.99983,174.54527,42,36,0
174.54527,175.09073,64,36,0
174.54527,175.09073,73,36,0
174.54527,175.09073,35,36,0
175.09073,175.36346,66,36,0
175.09073,175.36346,75,36,0
175.36346,175.63618,61,36,0
175.36346,175.63618,70,36,0
175.09073,175.63618,42,36,0
175.63618,176.18164,64,36,0
175.63618,176.18164,73,36,0
175.63618,176.18164,35,36,0
176.18164,176.7271,63,36,0
176.18164,176.7271,71,36,0
176.18164,176.7271,42,36,0
176.7271,177.27255,61,36,0
176.7271,177.27255,64,36,0
176.7271,177.27255,35,36,0
177.27255,177.81801,59,36,0
177.27255,177.81801,63,36,0
177.27255,177.81801,42,36,0
177.81801,178.36346,35,36,0
177.81801,178.9089,54,36,0
177.81801,178.9089,61,36,0
176.7271,178.9089,66,36,0
178.36346,178.9089,42,36,0
178.9089,179.45436,66,36,0
178.9089,179.45436,78,36,0
178.9089,179.45436,35,36,0
179.45436,179.99982,59,36,0
179.45436,179.99982,71,36,0
179.45436,179.99982,40,36,0
179.99982,180.54527,66,36,0
179.99982,180.54527,78,36,0
179.99982,180.54527,35,36,0
180.54527,181.09073,59,36,0
180.54527,181.09073,71,36,0
180.54527,181.09073,38,36,0
181.09073,181.63618,62,36,0
181.09073,181.63618,74,36,0
181.09073,181.63618,35,36,0
181.63618,182.18164,59,36,0
181.63618,182.18164,71,36,0
181.63618,182.18164,42,36,0
182.18164,182.7271,66,36,0
182.18164,182.7271,78,36,0
182.18164,182.7271,30,36,0
182.7271,183.27254,66,36,0
182.7271,183.27254,42,36,0
183.27254,183.818,66,36,0
183.27254,183.818,30,36,0
183.818,184.09073,68,36,0
184.09073,184.36345,64,36,0
183.27254,184.36345,54,36,0
183.818,184.36345,42,36,0
184.36345,184.9089,68,36,0
184.36345,184.9089,30,36,0
184.9089,185.45436,66,36,0
184.36345,185.45436,54,36,0
184.9089,185.45436,42,36,0
185.45436,185.99982,64,36,0
185.45436,185.99982,30,36,0
185.99982,186.54527,63,36,0
185.45436,186.54527,54,36,0
185.99982,186.54527,42,36,0
186.54527,187.09073,30,36,0
186.54527,187.63617,61,36,0
186.54527,187.63617,54,36,0
187.09073,187.63617,42,36,0
187.63617,188.18163,63,36,0
187.63617,188.18163,30,36,0
188.18163,188.72708,61,36,0
187.63617,188.72708,54,36,0
188.18163,188.72708,42,36,0
188.72708,189.27254,30,36,0
188.72708,189.818,59,36,0
188.72708,189.818,54,36,0
189.27254,189.818,42,36,0
189.818,190.36345,54,36,0
189.818,190.36345,57,36,0
189.818,190.36345,35,36,0
190.36345,190.9089,52,36,0
190.36345,190.9089,55,36,0
190.36345,190.9089,47,36,0
190.9089,191.45436,35,36,0
190.9089,191.9998,51,36,0
190.9089,191.9998,54,36,0
191.45436,191.9998,47,36,0
191.9998,192.54526,54,36,0
191.9998,192.54526,57,36,0
191.9998,192.54526,36,36,0
192.54526,193.09071,52,36,0
192.54526,193.09071,55,36,0
192.54526,193.09071,48,36,0
193.09071,193.63617,36,36,0
193.63617,194.18163,48,36,0
193.09071,194.72708,51,36,0
193.09071,194.72708,54,36,0
194.18163,194.72708,35,36,0
194.72708,195.27254,52,36,0
194.72708,195.27254,55,36,0
194.72708,195.27254,47,36,0
195.27254,195.818,35,36,0
195.27254,196.36343,51,36,0
195.27254,196.36343,54,36,0
195.818,196.36343,47,36,0
196.90889,197.45435,64,36,0
196.90889,197.45435,67,36,0
196.90889,197.45435,71,36,0
196.90889,197.45435,76,36,0
196.90889,197.45435,52,36,0
196.90889,197.45435,55,36,0
196.90889,197.45435,59,36,0
197.9998,198.54526,64,36,0
197.9998,198.54526,67,36,0
197.9998,198.54526,71,36,0
197.9998,198.54526,76,36,0
197.9998,198.54526,52,36,0
197.9998,198.54526,55,36,0
197.9998,198.54526,59,36,0
199.09071,199.3091,64,36,0
199.09071,199.3091,66,36,0
199.09071,199.3091,69,36,0
199.09071,199.3091,76,36,0
199.09071,199.3091,52,36,0
199.09071,199.3091,54,36,0
199.09071,199.3091,57,36,0
200.18163,200.40001,64,36,0
200.18163,200.40001,67,36,0
200.18163,200.40001,71,36,0
200.18163,200.40001,76,36,0
200.18163,200.40001,52,36,0
200.18163,200.40001,55,36,0
200.18163,200.40001,59,36,0
201.27252,201.49092,64,36,0
201.27252,201.49092,66,36,0
201.27252,201.49092,72,36,0
201.27252,201.49092,76,36,0
201.27252,201.49092,52,36,0
201.27252,201.49092,54,36,0
201.27252,201.49092,60,36,0
202.36343,202.58183,64,36,0
202.36343,202.58183,67,36,0
202.36343,202.58183,71,36,0
202.36343,202.58183,76,36,0
202.36343,202.58183,52,36,0
202.36343,202.58183,55,36,0
202.36343,202.58183,59,36,0
203.45435,203.67273,67,36,0
203.45435,203.67273,71,36,0
203.45435,203.67273,76,36,0
203.45435,203.67273,79,36,0
203.45435,203.67273,52,36,0
203.45435,203.67273,55,36,0
203.45435,203.67273,59,36,0
203.45435,203.67273,64,36,0
204.54526,204.76364,66,36,0
204.54526,204.76364,70,36,0
204.54526,204.76364,73,36,0
204.54526,204.76364,78,36,0
204.54526,204.76364,54,36,0
204.54526,204.76364,58,36,0
204.54526,204.76364,61,36,0
205.63615,205.85455,66,36,0
205.63615,205.85455,71,36,0
205.63615,205.85455,75,36,0
205.63615,205.85455,78,36,0
205.63615,205.85455,54,36,0
205.63615,205.85455,59,36,0
205.63615,205.85455,63,36,0
206.72707,206.94547,66,36,0
206.72707,206.94547,71,36,0
206.72707,206.94547,75,36,0
206.72707,206.94547,54,36,0
206.72707,206.94547,59,36,0
206.72707,206.94547,63,36,0
207.81798,208.03636,66,36,0
207.81798,208.03636,71,36,0
207.81798,208.03636,73,36,0
207.81798,208.03636,54,36,0
207.81798,208.03636,59,36,0
207.81798,208.03636,61,36,0
208.90887,209.12727,66,36,0
208.90887,209.12727,70,36,0
208.90887,209.12727,73,36,0
208.90887,209.12727,54,36,0
208.90887,209.12727,58,36,0
208.90887,209.12727,61,36,0
209.99979,210.21819,64,36,0
209.99979,210.21819,71,36,0
209.99979,210.21819,73,36,0
209.99979,210.21819,76,36,0
209.99979,210.21819,52,36,0
209.99979,210.21819,59,36,0
209.99979,210.21819,61,36,0
211.0907,211.3091,66,36,0
211.0907,211.3091,70,36,0
211.0907,211.3091,73,36,0
211.0907,211.3091,54,36,0
211.0907,211.3091,58,36,0
211.0907,211.3091,61,36,0
212.18161,212.4,66,36,0
212.18161,212.4,71,36,0
212.18161,212.4,75,36,0
212.18161,212.4,54,36,0
212.18161,212.4,59,36,0
212.18161,212.4,63,36,0
213.2725,213.4909,63,36,0
213.2725,213.4909,66,36,0
213.2725,213.4909,71,36,0
213.2725,213.4909,47,36,0
213.2725,213.4909,59,36,0
214.36342,214.58182,64,36,0
214.36342,214.58182,67,36,0
214.36342,214.58182,72,36,0
214.36342,214.58182,59,36,0
215.45433,215.67273,64,36,0
215.45433,215.67273,67,36,0
215.45433,215.67273,72,36,0
215.45433,215.67273,57,36,0
216.54524,216.76363,62,36,0
216.54524,216.76363,66,36,0
216.54524,216.76363,69,36,0
216.54524,216.76363,74,36,0
216.54524,216.76363,60,36,0
217.63614,217.85454,62,36,0
217.63614,217.85454,67,36,0
217.63614,217.85454,74,36,0
217.63614,217.85454,59,36,0
218.72705,218.94545,64,36,0
218.72705,218.94545,67,36,0
218.72705,218.94545,72,36,0
218.72705,218.94545,59,36,0
219.81796,220.03636,64,36,0
219.81796,220.03636,69,36,0
219.81796,220.03636,72,36,0
219.81796,220.03636,57,36,0
220.90887,221.12726,62,36,0
220.90887,221.12726,66,36,0
220.90887,221.12726,69,36,0
220.90887,221.12726,74,36,0
220.90887,221.12726,60,36,0
221.99977,222.21817,62,36,0
221.99977,222.21817,67,36,0
221.99977,222.21817,74,36,0
221.99977,222.21817,59,36,0
223.09068,223.30908,64,36,0
223.09068,223.30908,67,36,0
223.09068,223.30908,72,36,0
223.09068,223.30908,59,36,0
224.1816,224.4,64,36,0
224.1816,224.4,69,36,0
224.1816,224.4,72,36,0
224.1816,224.4,57,36,0
225.2725,225.49089,66,36,0
225.2725,225.49089,69,36,0
225.2725,225.49089,74,36,0
225.2725,225.49089,60,36,0
226.3634,226.5818,66,36,0
226.3634,226.5818,71,36,0
226.3634,226.5818,74,36,0
226.3634,226.5818,59,36,0
227.45432,227.67271,67,36,0
227.45432,227.67271,71,36,0
227.45432,227.67271,76,36,0
227.45432,227.67271,62,36,0
228.54523,228.76363,69,36,0
228.54523,228.76363,72,36,0
228.54523,228.76363,76,36,0
228.54523,228.76363,60,36,0
229.63614,229.85452,69,36,0
229.63614,229.85452,72,36,0
229.63614,229.85452,81,36,0
229.63614,229.85452,66,36,0
230.72704,230.94543,72,36,0
230.72704,230.94543,79,36,0
230.72704,230.94543,84,36,0
230.72704,230.94543,64,36,0
230.72704,230.94543,67,36,0
231.6134,231.81795,78,36,0
231.68158,231.81795,81,36,0
231.68158,231.81795,63,36,0
231.74977,231.81795,66,36,0
231.81795,233.99977,78,36,0
231.81795,233.99977,81,36,0
231.81795,233.99977,84,36,0
231.81795,233.99977,90,36,0
231.81795,233.99977,63,36,0
231.81795,233.99977,66,36,0
231.81795,233.99977,69,36,0
231.81795,233.99977,72,36,0
239.99976,241.09067,76,36,0
239.99976,241.09067,76,36,0
239.99976,241.09067,64,36,0
239.99976,241.09067,64,36,0
241.09067,241.90884,79,36,0
241.09067,241.90884,67,36,0
241.90884,242.18158,83,36,0
241.90884,242.18158,71,36,0
242.18158,242.72704,66,36,0
242.18158,243.27249,76,36,0
242.18158,243.27249,84,36,0
242.18158,243.27249,64,36,0
242.18158,243.27249,72,36,0
242.72704,243.81793,69,36,0
243.27249,244.36339,76,36,0
243.27249,244.36339,83,36,0
243.81793,244.36339,67,36,0
243.27249,244.36339,64,36,0
243.27249,244.36339,71,36,0
244.36339,244.63612,81,36,0
244.36339,244.63612,69,36,0
244.63612,244.77248,83,36,0
244.63612,244.77248,71,36,0
244.77248,244.90884,81,36,0
244.77248,244.90884,69,36,0
244.90884,245.18158,79,36,0
244.90884,245.18158,67,36,0
245.18158,245.4543,81,36,0
245.18158,245.4543,69,36,0
245.4543,246.27248,83,36,0
245.4543,246.27248,71,36,0
246.27248,246.54521,79,36,0
244.36339,246.54521,76,36,0
246.27248,246.54521,67,36,0
244.36339,246.54521,64,36,0
246.54521,247.63611,67,36,0
246.54521,247.63611,76,36,0
246.54521,247.63611,55,36,0
246.54521,247.63611,64,36,0
247.63611,248.99976,67,36,0
248.72702,248.99976,71,36,0
247.63611,248.99976,74,36,0
247.63611,248.99976,77,36,0
247.63611,248.99976,55,36,0
247.63611,248.99976,62,36,0
247.63611,248.99976,65,36,0
248.99976,249.27248,74,36,0
248.99976,249.27248,62,36,0
249.27248,249.54521,77,62,0
249.27248,249.54521,65,62,0
249.54521,249.81793,83,62,0
249.54521,249.81793,71,62,0
249.81793,250.63611,74,62,0
249.81793,250.63611,86,62,0
250.63611,250.90884,79,75,0
250.63611,250.90884,91,75,0
250.36339,250.90884,53,75,0
250.36339,250.90884,55,75,0
250.36339,250.90884,59,75,0
250.36339,250.90884,62,75,0
250.90884,251.99974,79,88,0
250.90884,251.99974,91,88,0
251.99974,253.09065,67,88,0
251.99974,253.09065,79,88,0
250.90884,253.09065,52,88,0
250.90884,253.09065,55,88,0
250.90884,253.09065,60,88,0
250.90884,253.09065,64,88,0
253.09065,253.36339,36,88,0
253.36339,253.63611,64,88,0
253.36339,253.63611,43,88,0
253.63611,253.90884,67,88,0
253.63611,253.90884,48,88,0
253.90884,254.18156,72,88,0
253.90884,254.18156,52,88,0
254.18156,254.72702,55,88,0
254.18156,254.99974,76,88,0
254.99974,255.27248,65,88,0
254.99974,255.27248,77,88,0
254.99974,255.27248,81,88,0
254.72702,255.27248,48,88,0
254.72702,255.27248,60,88,0
255.27248,256.36337,69,88,0
255.27248,256.36337,77,88,0
255.27248,256.36337,81,88,0
255.27248,256.36337,48,88,0
255.27248,256.36337,53,88,0
255.27248,256.36337,57,88,0
255.27248,256.36337,60,88,0
256.36337,257.45428,65,88,0
256.36337,257.45428,69,88,0
256.90884,257.45428,41,88,0
257.45428,257.72702,33,88,0
257.72702,257.99976,57,88,0
257.72702,257.99976,45,88,0
257.99976,258.27246,60,88,0
257.99976,258.27246,48,88,0
258.27246,258.5452,65,88,0
258.27246,258.5452,53,88,0
258.5452,258.81793,69,88,0
258.5452,258.81793,57,88,0
258.81793,259.09064,72,88,0
258.81793,259.09064,60,88,0
259.09064,259.36337,77,88,0
259.09064,259.36337,65,88,0
259.6361,259.90884,35,88,0
259.90884,260.18155,59,88,0
259.90884,260.18155,47,88,0
260.18155,260.45428,64,88,0
260.18155,260.45428,52,88,0
260.45428,260.72702,67,88,0
260.45428,260.72702,55,88,0
260.72702,260.99973,71,88,0
260.72702,260.99973,59,88,0
260.99973,261.27246,76,88,0
260.99973,261.27246,64,88,0
261.27246,261.5452,81,88,0
261.27246,261.5452,69,88,0
261.5452,261.81793,78,88,0
261.27246,261.81793,71,88,0
261.5452,261.81793,66,88,0
261.27246,261.81793,59,88,0
261.81793,262.09064,71,88,0
261.81793,262.09064,79,88,0
261.81793,262.09064,59,88,0
261.81793,262.09064,67,88,0
262.09064,262.36337,67,88,0
262.09064,262.36337,55,88,0
262.36337,262.6361,71,88,0
262.36337,262.6361,59,88,0
262.6361,262.9088,76,88,0
262.6361,262.9088,64,88,0
262.9088,263.18155,79,88,0
262.9088,263.18155,67,88,0
263.18155,263.45428,83,88,0
263.18155,263.45428,71,88,0
263.45428,263.72702,85,88,0
263.45428,263.72702,73,88,0
263.72702,263.99973,87,88,0
263.45428,263.99973,81,88,0
263.72702,263.99973,75,88,0
263.45428,263.99973,69,88,0
263.99973,264.5452,79,88,0
263.99973,264.5452,88,88,0
263.99973,264.5452,67,88,0
263.99973,264.5452,76,88,0
265.09064,267.27246,76,88,0
265.09064,267.27246,79,88,0
265.09064,267.27246,88,88,0
265.09064,267.27246,55,88,0
265.09064,267.27246,64,88,0
265.09064,267.27246,67,88,0
267.27246,267.49084,86,88,0
267.8179,268.03632,83,88,0
267.27246,268.36337,74,88,0
267.27246,268.36337,77,88,0
267.27246,268.36337,55,88,0
267.27246,268.36337,62,88,0
267.27246,268.36337,65,88,0
268.36337,268.545,72,49,0
268.36337,268.545,84,49,0
268.545,268.72717,76,49,0
268.72717,268.9088,84,49,0
268.36337,268.9088,60,49,0
268.36337,268.9088,64,49,0
268.9088,269.09045,79,49,0
269.09045,269.27264,76,49,0
269.27264,269.45428,79,49,0
268.9088,269.45428,64,49,0
268.9088,269.45428,67,49,0
269.45428,269.63593,77,49,0
269.63593,269.81808,74,49,0
269.81808,269.99973,77,49,0
269.45428,269.99973,62,49,0
269.45428,269.99973,65,49,0
269.99973,270.18137,76,49,0
270.18137,270.36356,72,49,0
270.36356,270.5452,76,49,0
269.99973,270.5452,60,49,0
269.99973,270.5452,64,49,0
270.5452,270.72684,75,49,0
270.72684,270.909,72,49,0
270.909,271.09064,75,49,0
271.09064,271.27228,72,49,0
271.27228,271.45444,75,49,0
271.45444,271.63608,72,49,0
270.5452,271.63608,54,49,0
270.5452,271.63608,60,49,0
270.5452,271.63608,63,49,0
271.63608,271.81772,76,49,0
271.81772,271.9999,72,49,0
271.9999,272.18155,76,49,0
271.63608,272.18155,55,49,0
271.63608,272.18155,60,49,0
271.63608,272.18155,64,49,0
272.18155,272.3632,79,49,0
272.3632,272.54535,76,49,0
272.54535,272.727,79,49,0
272.18155,272.727,60,49,0
272.18155,272.727,64,49,0
272.18155,272.727,67,49,0
272.727,272.90863,80,49,0
272.90863,273.09082,75,49,0
273.09082,273.27246,80,49,0
272.727,273.27246,68,49,0
273.27246,273.4541,84,49,0
273.4541,273.63626,75,49,0
273.63626,273.8179,84,49,0
273.27246,273.8179,72,49,0
272.727,273.8179,60,49,0
272.727,273.8179,63,49,0
273.8179,273.99954,79,49,0
273.99954,274.18173,76,49,0
274.18173,274.36337,79,49,0
273.8179,274.36337,67,49,0
273.8179,274.36337,60,49,0
273.8179,274.36337,64,49,0
274.36337,274.545,76,49,0
274.545,274.72717,72,49,0
274.72717,274.9088,76,49,0
274.36337,274.9088,64,49,0
274.36337,274.9088,55,49,0
274.36337,274.9088,60,49,0
274.9088,275.09045,75,49,0
275.09045,275.27264,72,49,0
275.27264,275.45428,75,49,0
275.45428,275.63593,72,49,0
275.63593,275.81808,75,49,0
275.81808,275.99973,72,49,0
274.9088,275.99973,54,49,0
274.9088,275.99973,60,49,0
274.9088,275.99973,63,49,0
275.99973,276.18137,76,49,0
276.18137,276.36353,72,49,0
276.36353,276.54517,76,49,0
275.99973,276.54517,55,49,0
275.99973,276.54517,60,49,0
275.99973,276.54517,64,49,0
276.54517,276.7268,79,49,0
276.7268,276.909,76,49,0
276.909,277.09064,79,49,0
276.54517,277.09064,64,49,0
276.54517,277.09064,67,49,0
277.09064,277.27228,81,49,0
277.27228,277.45444,77,49,0
277.45444,277.63608,81,49,0
277.09064,277.63608,69,49,0
277.63608,277.81772,86,49,0
277.81772,277.9999,77,49,0
277.9999,278.18155,86,49,0
277.63608,278.18155,74,49,0
277.09064,278.18155,65,49,0
278.18155,278.3632,79,49,0
278.3632,278.54535,76,49,0
278.54535,278.727,79,49,0
278.18155,278.727,67,49,0
278.18155,278.727,64,49,0
278.727,278.90863,84,49,0
278.90863,279.09082,76,49,0
279.09082,279.27246,84,49,0
278.727,279.27246,72,49,0
278.727,279.27246,64,49,0
279.27246,279.4541,77,49,0
279.4541,279.63626,74,49,0
279.63626,279.8179,77,49,0
279.27246,279.8179,65,49,0
279.8179,279.99954,83,49,0
279.99954,280.1817,74,49,0
280.1817,280.36334,83,49,0
279.8179,280.36334,71,49,0
279.27246,280.36334,62,49,0
280.36334,280.54498,81,49,0
280.54498,280.72717,72,49,0
280.72717,280.9088,81,49,0
280.36334,280.9088,69,49,0
280.36334,280.9088,60,49,0
280.9088,281.09045,76,49,0
281.09045,281.2726,72,49,0
281.2726,281.45425,76,49,0
280.9088,281.45425,64,49,0
280.9088,281.45425,60,49,0
281.45425,281.6359,76,49,0
281.6359,281.81808,72,49,0
281.81808,281.99973,76,49,0
281.45425,281.99973,60,49,0
281.45425,281.99973,64,49,0
281.99973,282.18137,74,49,0
282.18137,282.36353,71,49,0
282.36353,282.54517,74,49,0
281.99973,282.54517,59,49,0
281.99973,282.54517,62,49,0
281.45425,282.54517,53,49,0
282.54517,282.7268,74,49,0
282.7268,282.909,71,49,0
282.909,283.09064,74,49,0
282.54517,283.09064,59,49,0
282.54517,283.09064,62,49,0
283.09064,283.27228,76,49,0
283.27228,283.45444,72,49,0
283.45444,283.63608,76,49,0
283.09064,283.63608,60,49,0
283.09064,283.63608,64,49,0
282.54517,283.63608,52,49,0
283.63608,283.81772,79,49,0
283.81772,283.9999,72,49,0
283.9999,284.18155,79,49,0
284.18155,284.3632,72,49,0
284.3632,284.54535,79,49,0
284.54535,284.727,72,49,0
283.63608,284.727,50,49,0
283.70425,284.727,57,49,0
283.77243,284.727,60,49,0
283.84064,284.727,67,49,0
284.727,284.90863,77,49,0
284.90863,285.0908,71,49,0
285.0908,285.27243,77,49,0
284.727,285.27243,65,49,0
285.27243,285.45407,74,49,0
285.45407,285.63626,65,49,0
285.63626,285.8179,74,49,0
285.27243,285.8179,62,49,0
284.727,285.8179,55,49,0
284.727,285.8179,59,49,0
285.8179,285.99954,79,49,0
285.99954,286.1817,70,49,0
286.1817,286.36334,67,49,0
286.36334,286.54498,72,49,0
286.54498,286.72717,70,49,0
286.72717,286.9088,60,49,0
285.8179,286.9088,48,49,0
286.9088,287.09045,72,49,0
287.09045,287.2726,70,49,0
287.2726,287.45425,60,49,0
286.9088,287.45425,36,49,0
287.45425,287.6359,72,49,0
287.6359,287.81808,69,49,0
287.81808,287.99973,60,49,0
287.45425,287.99973,36,49,0
287.99973,288.18137,82,49,0
288.18137,288.36353,76,49,0
288.36353,288.54517,70,49,0
288.54517,288.7268,76,49,0
288.7268,288.90897,70,49,0
288.90897,289.0906,64,49,0
287.99973,289.0906,48,49,0
289.0906,289.27225,76,49,0
289.27225,289.45444,70,49,0
289.45444,289.63608,64,49,0
289.0906,289.63608,36,49,0
289.63608,289.81772,77,49,0
289.81772,289.99988,69,49,0
289.99988,290.18152,65,49,0
289.63608,290.18152,36,49,0
290.18152,290.36316,81,62,0
290.36316,290.54535,77,62,0
290.54535,290.727,69,62,0
290.727,290.90863,79,62,0
290.90863,291.0908,77,62,0
291.0908,291.27243,67,62,0
290.18152,291.27243,48,62,0
291.27243,291.45407,79,62,0
291.45407,291.63626,77,62,0
291.63626,291.8179,67,62,0
291.27243,291.8179,36,62,0
291.8179,291.99954,79,62,0
291.99954,292.1817,76,62,0
292.1817,292.36334,67,62,0
291.8179,292.36334,36,62,0
292.36334,292.54498,89,75,0
292.54498,292.72714,79,75,0
292.72714,292.90878,77,75,0
292.90878,293.09042,83,75,0
293.09042,293.2726,77,75,0
293.2726,293.45425,71,75,0
292.36334,293.45425,48,75,0
293.45425,293.6359,83,75,0
293.6359,293.81805,77,75,0
293.81805,293.9997,71,75,0
293.45425,293.9997,36,75,0
293.9997,294.18134,84,75,0
294.18134,294.36353,76,75,0
294.36353,294.54517,72,75,0
293.9997,294.54517,36,75,0
294.54517,294.7268,34,88,0
294.7268,294.90897,36,88,0
294.90897,295.0906,46,88,0
295.0906,295.27225,33,88,0
295.27225,295.45444,36,88,0
294.54517,295.63608,72,88,0
294.54517,295.63608,84,88,0
295.45444,295.63608,45,88,0
295.63608,295.81772,33,88,0
295.81772,295.99988,36,88,0
295.63608,296.18152,72,88,0
295.99988,296.18152,45,88,0
296.18152,296.36316,34,88,0
296.36316,296.54535,36,88,0
296.54535,296.727,46,88,0
296.727,296.90863,34,88,0
296.90863,297.0908,36,88,0
297.0908,297.27243,46,88,0
297.27243,297.45407,33,88,0
297.45407,297.63623,36,88,0
296.18152,297.81787,72,88,0
296.727,297.81787,84,88,0
297.63623,297.81787,45,88,0
297.81787,297.9995,33,88,0
297.9995,298.1817,36,88,0
297.81787,298.36334,72,88,0
298.1817,298.36334,45,88,0
298.36334,298.54498,34,88,0
298.54498,298.72714,36,88,0
298.72714,298.90878,46,88,0
298.90878,299.09042,32,88,0
299.09042,299.2726,36,88,0
299.2726,299.45425,44,88,0
299.45425,299.6359,31,88,0
299.6359,299.81805,36,88,0
298.36334,299.9997,72,88,0
298.90878,299.9997,84,88,0
299.81805,299.9997,43,88,0
299.9997,300.18134,31,88,0
300.18134,300.36353,36,88,0
299.9997,300.54517,72,88,0
300.36353,300.54517,43,88,0
300.54517,300.7268,32,88,0
300.7268,300.90897,36,88,0
300.90897,301.0906,44,88,0
301.0906,301.27225,31,88,0
301.27225,301.4544,36,88,0
301.4544,301.63605,43,88,0
301.63605,301.8177,30,88,0
301.8177,301.99988,36,88,0
300.54517,302.18152,72,88,0
301.0906,302.18152,84,88,0
301.99988,302.18152,42,88,0
302.18152,302.36316,30,88,0
302.36316,302.54532,36,88,0
302.18152,302.72696,72,88,0
302.54532,302.72696,42,88,0
302.72696,302.9086,31,88,0
302.9086,303.0908,36,88,0
302.72696,303.27243,72,88,0
303.0908,303.27243,43,88,0
303.27243,303.45407,85,88,0
303.45407,303.63623,76,88,0
303.63623,303.81787,73,88,0
303.81787,303.9995,84,88,0
303.9995,304.1817,75,88,0
304.1817,304.36334,72,88,0
303.27243,304.36334,42,88,0
303.27243,304.36334,54,88,0
304.36334,304.54498,84,88,0
304.54498,304.72714,75,88,0
304.72714,304.90878,72,88,0
304.36334,304.90878,30,88,0
304.36334,304.90878,42,88,0
304.90878,305.09042,85,88,0
305.09042,305.2726,76,88,0
305.2726,305.45425,73,88,0
305.45425,305.6359,85,88,0
305.6359,305.81805,76,88,0
305.81805,305.9997,73,88,0
305.9997,306.18134,84,88,0
306.18134,306.3635,75,88,0
306.3635,306.54514,72,88,0
304.90878,306.54514,42,88,0
305.45425,306.54514,54,88,0
306.54514,306.72678,84,88,0
306.72678,306.90897,75,88,0
306.90897,307.0906,72,88,0
306.54514,307.0906,30,88,0
306.54514,307.0906,42,88,0
307.0906,307.27225,85,88,0
307.27225,307.4544,76,88,0
307.4544,307.63605,73,88,0
307.63605,307.8177,83,88,0
307.8177,307.99988,74,88,0
307.99988,308.18152,71,88,0
308.18152,308.36316,82,88,0
308.36316,308.54532,73,88,0
308.54532,308.72696,70,88,0
307.0906,308.72696,42,88,0
307.63605,308.72696,54,88,0
308.72696,308.9086,82,88,0
308.9086,309.0908,73,88,0
309.0908,309.27243,70,88,0
308.72696,309.27243,30,88,0
308.72696,309.27243,42,88,0
309.27243,309.45407,83,88,0
309.45407,309.63623,74,88,0
309.63623,309.81787,71,88,0
309.81787,309.9995,81,88,0
309.9995,310.18167,73,88,0
310.18167,310.3633,69,88,0
310.3633,310.54495,79,88,0
310.54495,310.72714,71,88,0
310.72714,310.90878,67,88,0
309.27243,310.90878,42,88,0
309.81787,310.90878,54,88,0
310.90878,311.09042,79,88,0
311.09042,311.27258,71,88,0
311.27258,311.45422,67,88,0
310.90878,311.45422,30,88,0
310.90878,311.45422,42,88,0
311.45422,311.63586,77,88,0
311.63586,311.81805,71,88,0
311.81805,311.9997,65,88,0
311.45422,311.9997,42,88,0
311.9997,312.2724,30,88,0
311.9997,312.54514,66,88,0
311.9997,312.54514,70,88,0
311.9997,312.54514,78,88,0
312.2724,312.54514,42,88,0
312.54514,312.81787,46,88,0
312.81787,313.0906,49,88,0
313.0906,314.18152,42,88,0
313.0906,314.18152,52,88,0
314.45422,314.72696,66,88,0
314.18152,314.72696,50,88,0
314.72696,314.9997,70,88,0
314.9997,315.2724,73,88,0
314.72696,315.2724,49,88,0
314.18152,315.2724,42,88,0
315.2724,315.54514,30,88,0
315.54514,315.81787,42,88,0
315.81787,316.0906,46,88,0
315.2724,316.3633,64,88,0
315.2724,316.3633,76,88,0
316.0906,316.3633,49,88,0
316.3633,316.63605,42,88,0
316.3633,316.63605,54,88,0
316.3633,316.90878,74,88,0
316.63605,316.90878,58,88,0
316.90878,317.1815,61,88,0
316.90878,317.45422,73,88,0
317.1815,317.45422,64,88,0
317.72696,317.9997,70,88,0
317.72696,317.9997,82,88,0
317.9997,318.2724,73,88,0
317.9997,318.2724,85,88,0
318.2724,318.54514,76,88,0
318.2724,318.54514,88,88,0
317.45422,318.54514,54,88,0
317.45422,318.54514,67,88,0
318.54514,319.09058,66,88,0
318.54514,319.63605,79,88,0
318.54514,319.63605,91,88,0
319.09058,319.63605,64,88,0
318.54514,319.63605,54,88,0
319.63605,320.1815,78,88,0
319.63605,320.1815,90,88,0
319.63605,320.1815,62,88,0
320.1815,320.72696,70,88,0
320.1815,320.72696,76,88,0
320.1815,320.72696,82,88,0
320.1815,320.72696,61,88,0
319.63605,320.72696,54,88,0
320.99966,321.2724,66,88,0
320.99966,321.2724,54,88,0
321.2724,322.09058,62,88,0
321.2724,322.09058,71,88,0
321.2724,322.09058,47,88,0
322.09058,322.3633,66,88,0
322.09058,322.3633,54,88,0
322.3633,322.63605,62,88,0
322.3633,322.63605,71,88,0
322.3633,322.63605,47,88,0
322.63605,322.90878,66,88,0
322.63605,322.90878,74,88,0
322.63605,322.90878,42,88,0
322.90878,323.72696,62,88,0
322.90878,323.72696,71,88,0
322.90878,323.72696,35,88,0
323.72696,323.99966,66,88,0
323.72696,323.99966,54,88,0
323.99966,324.2724,62,88,0
323.99966,324.2724,71,88,0
323.99966,324.2724,47,88,0
324.2724,324.54514,66,88,0
324.2724,324.54514,74,88,0
324.2724,324.54514,42,88,0
324.54514,324.81787,62,88,0
324.54514,324.81787,71,88,0
324.54514,324.81787,35,88,0
324.81787,325.09058,66,88,0
324.81787,325.09058,54,88,0
325.09058,325.3633,62,88,0
325.09058,325.3633,71,88,0
325.09058,325.3633,47,88,0
325.3633,325.63605,66,88,0
325.3633,325.63605,74,88,0
325.3633,325.63605,42,88,0
325.63605,326.45422,66,88,0
325.63605,326.45422,74,88,0
325.63605,326.45422,78,88,0
325.63605,326.45422,35,88,0
325.63605,326.45422,47,88,0
326.45422,326.72696,64,88,0
326.45422,326.72696,73,88,0
326.45422,326.72696,76,88,0
326.45422,326.72696,34,88,0
326.45422,326.72696,46,88,0
326.72696,327.54514,64,88,0
326.72696,327.54514,73,88,0
326.72696,327.54514,76,88,0
326.72696,327.54514,34,88,0
326.72696,327.54514,46,88,0
327.54514,327.81784,63,88,0
327.54514,327.81784,71,88,0
327.54514,327.81784,75,88,0
327.54514,327.81784,33,88,0
327.54514,327.81784,45,88,0
327.81784,328.63605,63,88,0
327.81784,328.63605,71,88,0
327.81784,328.63605,75,88,0
327.81784,328.63605,33,88,0
327.81784,328.63605,45,88,0
328.63605,328.90875,64,88,0
328.63605,328.90875,71,88,0
328.63605,328.90875,76,88,0
328.63605,328.90875,32,88,0
328.63605,328.90875,44,88,0
328.90875,329.45422,64,88,0
328.90875,329.45422,71,88,0
328.90875,329.45422,76,88,0
328.90875,329.45422,32,88,0
328.90875,329.45422,44,88,0
329.45422,329.72693,31,88,0
329.45422,329.72693,43,88,0
329.72693,329.99966,47,88,0
329.72693,329.99966,47,88,0
329.72693,330.2724,64,88,0
329.99966,330.2724,76,88,0
329.99966,330.2724,43,88,0
329.99966,330.2724,55,88,0
330.2724,330.54514,66,88,0
330.2724,330.54514,78,88,0
330.2724,330.54514,42,88,0
330.2724,330.54514,54,88,0
330.54514,331.09058,67,88,0
330.54514,331.09058,79,88,0
330.54514,331.09058,40,88,0
330.54514,331.09058,52,88,0
331.09058,331.3633,66,88,0
331.09058,331.3633,78,88,0
331.09058,331.3633,42,88,0
331.09058,331.3633,54,88,0
331.3633,331.63602,64,88,0
331.3633,331.63602,76,88,0
331.3633,331.63602,43,88,0
331.3633,331.63602,55,88,0
330.54514,331.63602,47,88,0
331.63602,331.90875,31,88,0
331.63602,331.90875,43,88,0
331.90875,332.1815,47,88,0
331.90875,332.1815,47,88,0
331.90875,332.45422,64,88,0
332.1815,332.45422,76,88,0
332.1815,332.45422,43,88,0
332.1815,332.45422,55,88,0
332.45422,332.72693,66,88,0
332.45422,332.72693,78,88,0
332.45422,332.72693,54,88,0
332.72693,332.99966,69,88,0
332.72693,332.99966,81,88,0
332.99966,333.2724,67,88,0
332.99966,333.2724,79,88,0
332.72693,333.2724,40,88,0
332.72693,333.2724,52,88,0
333.2724,333.54514,66,88,0
333.2724,333.54514,78,88,0
333.2724,333.54514,42,88,0
333.2724,333.54514,54,88,0
333.54514,333.81784,64,88,0
333.54514,333.81784,76,88,0
333.54514,333.81784,43,88,0
333.54514,333.81784,55,88,0
332.72693,333.81784,47,88,0
334.09058,334.3633,44,88,0
334.09058,334.3633,56,88,0
333.81784,334.63602,65,88,0
333.81784,334.63602,77,88,0
334.63602,334.90875,73,88,0
334.3633,335.1815,49,88,0
335.1815,335.45422,42,88,0
335.1815,335.45422,54,88,0
334.90875,335.72693,66,88,0
334.90875,335.72693,78,88,0
335.72693,335.99966,73,88,0
335.45422,336.2724,49,88,0
336.2724,336.5451,37,88,0
335.99966,336.81784,68,88,0
335.99966,336.81784,77,88,0
335.99966,336.81784,80,88,0
336.81784,337.09058,73,88,0
336.5451,337.3633,49,88,0
337.09058,337.63602,70,88,0
337.09058,337.63602,78,88,0
337.09058,337.63602,82,88,0
337.3633,337.63602,30,88,0
337.63602,338.1815,54,88,0
337.63602,338.1815,42,88,0
338.99966,339.2724,30,88,0
338.1815,340.09058,47,88,0
338.1815,340.09058,50,88,0
338.1815,340.09058,59,88,0
340.09058,340.36328,50,88,0
340.09058,340.36328,50,88,0
340.36328,340.63602,59,88,0
339.2724,340.63602,31,88,0
340.63602,340.90875,62,88,0
340.63602,340.90875,30,88,0
340.90875,341.1815,31,88,0
341.1815,341.4542,33,88,0
340.90875,342.2724,59,88,0
340.09058,342.2724,38,88,0
342.2724,342.5451,50,88,0
342.5451,342.81784,59,88,0
341.4542,342.81784,31,88,0
342.81784,343.09058,62,88,0
342.81784,343.09058,30,88,0
343.09058,343.36328,31,88,0
343.36328,343.63602,33,88,0
343.09058,343.90875,59,88,0
342.2724,343.90875,38,88,0
342.5451,343.90875,50,88,0
343.90875,344.1815,50,88,0
343.90875,344.1815,50,88,0
344.1815,344.4542,59,88,0
343.63602,344.4542,31,88,0
344.4542,344.72693,62,49,0
344.4542,344.72693,30,49,0
344.72693,344.99966,59,49,0
343.90875,344.99966,38,88,0
344.72693,344.99966,31,49,0
344.99966,345.27237,50,49,0
344.99966,345.27237,33,49,0
345.27237,345.5451,59,49,0
345.27237,345.5451,31,49,0
345.5451,345.81784,62,49,0
345.5451,345.81784,30,49,0
345.81784,346.09058,59,49,0
344.99966,346.09058,38,49,0
345.81784,346.09058,31,49,0
346.09058,346.36328,50,49,0
346.09058,346.36328,33,49,0
346.36328,346.63602,59,49,0
346.36328,346.63602,31,49,0
346.63602,346.90875,62,49,0
346.09058,346.90875,38,49,0
346.63602,346.90875,29,49,0
346.90875,347.18146,30,49,0
347.18146,347.4542,31,49,0
346.90875,347.72693,66,49,0
347.72693,347.99966,67,49,0
346.90875,347.99966,59,49,0
346.90875,347.99966,62,49,0
347.4542,347.99966,30,49,0
347.99966,348.81784,67,49,0
348.81784,349.09055,66,49,0
347.99966,349.09055,58,49,0
347.99966,349.09055,61,49,0
348.81784,349.09055,54,49,0
349.09055,349.90875,66,49,0
349.09055,349.90875,54,49,0
349.90875,350.18146,67,49,0
349.09055,350.18146,59,49,0
349.90875,350.18146,55,49,0
349.09055,350.18146,47,49,0
350.18146,350.99963,67,49,0
350.18146,350.99963,55,49,0
350.99963,351.27237,66,49,0
350.18146,351.27237,59,49,0
350.99963,351.27237,54,49,0
350.18146,351.27237,47,49,0
351.27237,352.09055,61,36,0
351.27237,352.09055,49,36,0
352.09055,352.36328,62,36,0
351.27237,352.36328,59,36,0
352.09055,352.36328,50,36,0
351.27237,352.36328,47,36,0
352.36328,352.90875,64,36,0
352.36328,352.90875,52,36,0
352.90875,353.18146,62,36,0
352.90875,353.18146,50,36,0
353.18146,353.4542,61,36,0
352.36328,353.4542,59,36,0
353.18146,353.4542,49,36,0
352.36328,353.4542,47,36,0
353.4542,354.27237,61,36,0
353.4542,354.27237,49,36,0
354.27237,354.5451,62,36,0
353.4542,354.5451,59,36,0
354.27237,354.5451,50,36,0
353.4542,354.5451,47,36,0
354.5451,354.81784,66,36,0
354.5451,354.81784,54,36,0
354.81784,355.09055,64,36,0
354.81784,355.09055,52,36,0
355.09055,355.36328,62,36,0
355.09055,355.36328,50,36,0
355.36328,355.63602,61,36,0
354.5451,355.63602,59,36,0
355.36328,355.63602,49,36,0
354.5451,355.63602,47,36,0
355.63602,356.4542,59,36,0
355.63602,356.4542,47,36,0
356.4542,356.72693,61,36,0
356.4542,356.72693,49,36,0
356.72693,357.5451,59,36,0
356.72693,357.5451,47,36,0
357.5451,357.8178,61,36,0
357.5451,357.8178,49,36,0
357.8178,358.63602,59,36,0
357.8178,358.63602,47,36,0
358.63602,358.90872,61,36,0
358.63602,358.90872,49,36,0
358.90872,359.7269,59,36,0
358.90872,359.7269,47,36,0
359.7269,359.99963,61,36,0
359.7269,359.99963,49,36,0
359.99963,360.5451,59,36,0
359.99963,360.5451,47,36,0
360.5451,361.09055,54,36,0
360.5451,361.09055,42,36,0
361.63602,362.7269,55,36,0
362.18146,362.99963,30,36,0
362.18146,362.99963,42,36,0
362.7269,363.27237,54,36,0
363.8178,364.36328,54,36,0
363.8178,364.36328,42,36,0
364.36328,364.90872,47,36,0
364.36328,364.90872,35,36,0
364.90872,365.4542,66,36,0
364.90872,365.4542,42,36,0
365.4542,365.99963,59,36,0
365.4542,365.99963,35,36,0
365.99963,366.54507,66,36,0
365.99963,366.54507,78,36,0
365.99963,366.54507,42,36,0
366.54507,367.09055,71,36,0
366.54507,367.09055,75,36,0
366.54507,367.09055,83,36,0
366.54507,367.09055,35,36,0
367.09055,367.636,70,36,0
367.09055,367.636,78,36,0
367.09055,367.636,82,36,0
367.09055,367.636,42,36,0
367.636,368.18146,68,36,0
367.636,368.18146,76,36,0
367.636,368.18146,80,36,0
367.636,368.18146,35,36,0
368.18146,368.7269,66,36,0
368.18146,368.7269,75,36,0
368.18146,368.7269,78,36,0
368.18146,368.7269,42,36,0
368.7269,369.27237,64,36,0
368.7269,369.27237,73,36,0
368.7269,369.27237,76,36,0
368.7269,369.27237,35,36,0
369.27237,369.54507,66,36,0
369.27237,369.54507,75,36,0
369.27237,369.54507,78,36,0
369.54507,369.8178,61,36,0
369.54507,369.8178,70,36,0
369.54507,369.8178,73,36,0
369.27237,369.8178,42,36,0
369.8178,370.36328,64,36,0
369.8178,370.36328,73,36,0
369.8178,370.36328,76,36,0
369.8178,370.36328,35,36,0
370.36328,370.90872,63,36,0
370.36328,370.90872,71,36,0
370.36328,370.90872,75,36,0
370.36328,370.90872,42,36,0
370.90872,371.45416,64,36,0
370.90872,371.45416,73,36,0
370.90872,371.45416,35,36,0
371.45416,371.7269,66,36,0
371.45416,371.7269,75,36,0
371.7269,371.99963,61,36,0
371.7269,371.99963,70,36,0
371.45416,371.99963,42,36,0
371.99963,372.54507,64,36,0
371.99963,372.54507,73,36,0
371.99963,372.54507,35,36,0
372.54507,373.09055,63,36,0
372.54507,373.09055,71,36,0
372.54507,373.09055,42,36,0
373.09055,373.636,61,36,0
373.09055,373.636,64,36,0
373.09055,373.636,35,36,0
373.636,374.18146,59,36,0
373.636,374.18146,63,36,0
373.636,374.18146,42,36,0
374.18146,374.7269,35,36,0
374.18146,375.27234,54,36,0
374.18146,375.27234,61,36,0
373.09055,375.27234,66,36,0
374.7269,375.27234,42,36,0
375.27234,375.8178,66,36,0
375.27234,375.8178,78,36,0
375.27234,375.8178,35,36,0
375.8178,376.36325,59,36,0
375.8178,376.36325,71,36,0
375.8178,376.36325,40,36,0
376.36325,376.90872,66,36,0
376.36325,376.90872,78,36,0
376.36325,376.90872,35,36,0
376.90872,377.45416,59,36,0
376.90872,377.45416,71,36,0
376.90872,377.45416,38,36,0
377.45416,377.99963,62,36,0
377.45416,377.99963,74,36,0
377.45416,377.99963,35,36,0
377.99963,378.54507,59,36,0
377.99963,378.54507,71,36,0
377.99963,378.54507,42,36,0
378.54507,379.0905,66,36,0
378.54507,379.0905,78,36,0
378.54507,379.0905,30,36,0
379.0905,379.636,66,36,0
379.0905,379.636,42,36,0
379.636,380.18143,66,36,0
379.636,380.18143,30,36,0
380.18143,380.45416,68,36,0
380.45416,380.7269,64,36,0
379.636,380.7269,54,36,0
380.18143,380.7269,42,36,0
380.7269,381.27234,68,36,0
380.7269,381.27234,30,36,0
381.27234,381.8178,66,36,0
380.7269,381.8178,54,36,0
381.27234,381.8178,42,36,0
381.8178,382.36325,64,36,0
381.8178,382.36325,30,36,0
382.36325,382.90872,63,36,0
381.8178,382.90872,54,36,0
382.36325,382.90872,42,36,0
382.90872,383.45416,30,36,0
382.90872,383.9996,61,36,0
382.90872,383.9996,54,36,0
383.45416,383.9996,42,36,0
383.9996,384.54507,63,36,0
383.9996,384.54507,30,36,0
384.54507,385.0905,61,36,0
383.9996,385.0905,54,36,0
384.54507,385.0905,42,36,0
385.0905,385.636,30,36,0
385.0905,386.18143,59,36,0
385.0905,386.18143,54,36,0
385.636,386.18143,42,36,0
386.18143,386.7269,54,36,0
386.18143,386.7269,57,36,0
386.18143,386.7269,35,36,0
386.7269,387.27234,52,36,0
386.7269,387.27234,55,36,0
386.7269,387.27234,47,36,0
387.27234,387.81778,35,36,0
387.27234,388.36325,51,36,0
387.27234,388.36325,54,36,0
387.81778,388.36325,47,36,0
388.36325,388.9087,54,36,0
388.36325,388.9087,57,36,0
388.36325,388.9087,36,36,0
388.9087,389.45416,52,36,0
388.9087,389.45416,55,36,0
388.9087,389.45416,48,36,0
389.45416,389.9996,36,36,0
389.9996,390.54507,48,36,0
389.45416,391.0905,51,36,0
389.45416,391.0905,54,36,0
390.54507,391.0905,36,36,0
391.0905,391.636,52,36,0
391.0905,391.636,55,36,0
391.0905,391.636,48,36,0
391.636,392.18143,36,36,0
391.636,392.72687,51,36,0
391.636,392.72687,54,36,0
392.18143,392.72687,48,36,0
392.72687,393.27234,35,49,0
392.72687,393.81778,50,49,0
392.72687,393.81778,55,49,0
393.27234,393.81778,47,49,0
393.81778,394.36325,31,49,0
393.81778,394.9087,55,49,0
393.81778,394.9087,59,49,0
394.36325,394.9087,43,49,0
394.9087,395.45416,30,49,0
394.9087,395.9996,57,49,0
394.9087,395.9996,60,49,0
395.45416,395.9996,42,49,0
395.9996,396.54504,31,49,0
395.9996,396.81778,55,49,0
395.9996,396.81778,59,49,0
396.81778,397.0905,74,49,0
396.54504,397.0905,43,49,0
397.0905,397.63596,30,49,0
397.0905,398.18143,63,49,0
397.0905,398.18143,69,49,0
397.0905,398.18143,72,49,0
397.0905,398.18143,75,49,0
397.63596,398.18143,42,49,0
398.18143,398.72687,31,49,0
398.18143,398.9996,62,49,0
398.18143,398.9996,70,49,0
398.18143,398.9996,74,49,0
398.9996,399.27234,86,49,0
398.72687,399.27234,43,49,0
398.72687,399.27234,46,49,0
399.27234,400.36325,75,49,0
399.27234,400.36325,82,49,0
399.27234,400.36325,87,49,0
399.27234,400.36325,42,49,0
399.27234,400.36325,46,49,0
399.27234,400.36325,51,49,0
400.36325,401.18143,46,49,0
400.36325,401.18143,53,49,0
400.36325,401.18143,58,49,0
400.36325,401.45413,74,49,0
400.36325,401.45413,82,49,0
400.36325,401.45413,86,49,0
401.18143,401.45413,62,49,0
401.45413,402.54504,72,49,0
401.45413,402.54504,82,49,0
401.45413,402.54504,84,49,0
401.45413,402.54504,58,49,0
401.45413,402.54504,67,49,0
402.54504,403.63596,74,49,0
402.54504,403.63596,82,49,0
402.54504,403.63596,86,49,0
402.54504,403.63596,58,49,0
402.54504,403.63596,65,49,0
403.63596,404.72687,79,49,0
403.63596,404.72687,82,49,0
403.63596,404.72687,91,49,0
403.63596,404.72687,60,49,0
403.63596,404.72687,64,49,0
404.72687,405.81778,81,49,0
404.72687,405.81778,84,49,0
404.72687,405.81778,93,49,0
404.72687,405.81778,53,49,0
404.72687,405.81778,63,49,0
405.81778,406.0905,62,49,0
406.0905,406.22687,63,49,0
405.81778,406.36322,82,49,0
405.81778,406.36322,94,49,0
406.22687,406.36322,62,49,0
406.36322,406.63596,60,49,0
406.36322,406.9087,80,49,0
405.81778,406.9087,89,49,0
406.36322,406.9087,92,49,0
406.63596,406.9087,62,49,0
405.81778,406.9087,58,49,0
406.9087,407.45413,79,49,0
406.9087,407.45413,87,49,0
406.9087,407.45413,91,49,0
406.9087,407.72687,63,49,0
407.45413,407.9996,75,49,0
407.45413,407.9996,79,49,0
407.45413,407.9996,87,49,0
407.72687,407.9996,60,49,0
406.9087,407.9996,51,49,0
407.9996,409.0905,74,49,0
407.9996,409.0905,82,49,0
407.9996,409.0905,86,49,0
407.9996,409.0905,53,49,0
407.9996,409.0905,58,49,0
409.0905,410.1814,72,49,0
409.0905,410.1814,81,49,0
409.0905,410.1814,84,49,0
409.0905,410.1814,53,49,0
409.0905,410.1814,60,49,0
410.1814,411.2723,70,49,0
410.1814,411.2723,77,49,0
410.1814,411.2723,82,49,0
410.1814,411.2723,58,49,0
410.1814,411.2723,62,49,0
411.2723,412.09048,74,49,0
411.2723,412.09048,82,49,0
411.2723,412.09048,86,49,0
411.2723,412.09048,53,49,0
411.2723,412.09048,58,49,0
412.09048,412.36322,77,49,0
412.09048,412.36322,86,49,0
412.09048,412.36322,89,49,0
412.09048,412.36322,50,49,0
412.09048,412.36322,53,49,0
412.36322,413.45413,78,49,0
412.36322,413.45413,87,49,0
412.36322,413.45413,90,49,0
412.36322,413.45413,48,49,0
412.36322,413.45413,51,49,0
413.45413,413.99957,50,49,0
413.45413,413.99957,53,49,0
413.45413,414.54504,77,49,0
413.45413,414.54504,86,49,0
413.45413,414.54504,89,49,0
413.99957,414.54504,46,49,0
414.54504,415.09048,33,49,0
414.54504,415.63596,51,49,0
414.54504,415.63596,54,49,0
414.54504,415.63596,60,49,0
415.09048,415.63596,45,49,0
415.63596,416.1814,34,49,0
415.63596,416.45413,53,49,0
415.63596,416.45413,58,49,0
415.63596,416.45413,62,49,0
416.45413,416.72687,77,49,0
416.1814,416.72687,46,49,0
416.72687,417.2723,33,49,0
416.72687,417.81775,66,49,0
416.72687,417.81775,73,49,0
416.72687,417.81775,78,49,0
417.2723,417.81775,45,49,0
417.81775,418.36322,32,49,0
417.81775,418.90866,65,49,0
417.81775,418.90866,73,49,0
417.81775,418.90866,77,49,0
418.36322,418.90866,44,49,0
418.90866,419.45413,63,49,0
418.90866,419.45413,75,49,0
418.90866,419.45413,30,49,0
419.45413,419.99957,42,49,0
419.45413,420.54504,64,49,0
419.45413,420.54504,76,49,0
418.90866,420.54504,73,49,0
419.99957,420.54504,29,49,0
420.54504,421.09048,65,49,0
420.54504,421.09048,77,49,0
420.54504,421.09048,73,49,0
420.54504,421.09048,41,49,0
421.09048,421.63596,70,49,0
421.09048,421.63596,82,49,0
421.09048,421.63596,27,49,0
421.63596,422.1814,39,49,0
421.63596,422.72684,63,49,0
421.63596,422.72684,75,49,0
421.09048,422.72684,73,49,0
422.1814,422.72684,32,49,0
422.72684,423.2723,75,49,0
422.72684,423.2723,84,49,0
422.72684,423.2723,72,49,0
422.72684,423.2723,44,49,0
423.2723,423.81775,73,49,0
423.2723,423.81775,85,49,0
423.2723,423.81775,37,49,0
423.81775,424.36322,72,49,0
423.2723,424.36322,80,49,0
423.81775,424.36322,84,49,0
423.81775,424.36322,49,49,0
424.36322,424.90866,71,49,0
424.36322,424.90866,80,49,0
424.36322,424.90866,83,49,0
424.36322,424.90866,42,49,0
424.90866,425.45413,70,49,0
424.90866,425.45413,78,49,0
424.90866,425.45413,82,49,0
424.90866,425.45413,54,49,0
425.45413,425.99957,68,49,0
425.45413,425.99957,73,49,0
425.45413,425.99957,77,49,0
425.45413,425.99957,44,49,0
425.99957,426.545,70,49,0
425.99957,426.545,76,49,0
425.99957,426.545,79,49,0
425.99957,426.545,56,49,0
426.545,427.09048,72,49,0
426.545,427.09048,75,49,0
426.545,427.09048,80,49,0
426.545,427.09048,44,49,0
427.09048,427.63593,68,49,0
427.09048,427.63593,72,49,0
427.09048,427.63593,78,49,0
427.09048,427.63593,56,49,0
427.63593,428.1814,68,49,0
427.63593,428.1814,73,49,0
427.63593,428.1814,77,49,0
428.1814,428.72684,73,49,0
428.1814,428.72684,77,49,0
427.63593,428.72684,37,49,0
427.63593,428.72684,49,49,0
428.72684,429.2723,61,49,0
428.72684,429.2723,65,49,0
428.72684,429.545,41,49,0
428.72684,429.545,53,49,0
429.2723,429.81775,73,49,0
429.2723,429.81775,77,49,0
429.545,429.81775,44,49,0
429.545,429.81775,56,49,0
429.81775,430.36322,61,49,0
429.81775,430.36322,64,49,0
430.36322,430.90866,73,49,0
430.36322,430.90866,76,49,0
429.81775,430.90866,45,49,0
429.81775,430.90866,57,49,0
430.90866,431.4541,61,49,0
430.90866,431.4541,65,49,0
430.90866,431.72684,44,49,0
430.90866,431.72684,56,49,0
431.4541,431.99957,73,49,0
431.4541,431.99957,77,49,0
431.72684,431.99957,56,49,0
431.72684,431.99957,68,49,0
431.99957,432.545,66,49,0
432.545,433.09048,73,49,0
432.545,433.09048,78,49,0
431.99957,433.09048,58,49,0
431.99957,433.09048,61,49,0
431.99957,433.09048,70,49,0
433.09048,433.63593,65,49,0
433.09048,433.90866,56,49,0
433.09048,433.90866,61,49,0
433.09048,433.90866,68,49,0
433.63593,434.1814,73,49,0
433.63593,434.1814,77,49,0
433.90866,434.1814,44,49,0
433.90866,434.1814,56,49,0
434.1814,434.72684,61,49,0
434.1814,434.72684,64,49,0
434.72684,435.27228,73,49,0
434.72684,435.27228,76,49,0
434.1814,435.27228,45,49,0
434.1814,435.27228,57,49,0
435.27228,435.81775,61,49,0
435.27228,435.81775,65,49,0
435.81775,436.3632,73,49,0
435.81775,436.3632,77,49,0
435.27228,436.3632,44,49,0
435.27228,436.3632,56,49,0
436.3632,436.90866,61,62,0
436.3632,436.90866,70,62,0
436.90866,437.4541,73,62,0
436.90866,437.4541,82,62,0
436.3632,437.4541,42,62,0
436.3632,437.4541,54,62,0
437.4541,437.99957,61,62,0
437.4541,437.99957,68,62,0
437.4541,438.27228,41,62,0
437.4541,438.27228,53,62,0
437.99957,438.545,73,62,0
437.99957,438.545,80,62,0
438.27228,438.545,41,62,0
438.27228,438.545,53,62,0
438.545,439.09048,65,75,0
438.545,439.09048,68,75,0
439.09048,439.63593,77,75,0
439.09048,439.63593,80,75,0
438.545,439.63593,49,75,0
438.545,439.63593,61,75,0
439.63593,440.18137,65,75,0
439.63593,440.18137,69,75,0
440.18137,440.72684,77,75,0
440.18137,440.72684,81,75,0
439.63593,440.72684,48,75,0
439.63593,440.72684,60,75,0
440.72684,441.27228,65,88,0
440.72684,441.27228,74,88,0
440.72684,441.27228,77,88,0
441.27228,441.81775,77,88,0
441.27228,441.81775,86,88,0
441.27228,441.81775,89,88,0
440.72684,441.81775,46,88,0
440.72684,441.81775,58,88,0
441.81775,442.3632,65,88,0
441.81775,442.3632,72,88,0
441.81775,442.3632,77,88,0
441.81775,442.63593,45,88,0
441.81775,442.63593,57,88,0
442.3632,442.90866,77,88,0
442.3632,442.90866,84,88,0
442.3632,442.90866,89,88,0
442.63593,442.90866,41,88,0
442.63593,442.90866,53,88,0
442.90866,443.4541,68,101,0
442.90866,443.4541,71,101,0
442.90866,443.4541,80,101,0
443.4541,443.99954,80,101,0
443.4541,443.99954,83,101,0
443.4541,443.99954,92,101,0
442.90866,443.99954,53,101,0
442.90866,443.99954,65,101,0
443.99954,444.545,69,101,0
443.99954,444.545,72,101,0
443.99954,444.545,81,101,0
443.99954,444.545,41,101,0
443.99954,444.545,53,101,0
444.545,445.09045,81,101,0
444.545,445.09045,84,101,0
444.545,445.09045,93,101,0
444.81775,445.09045,41,101,0
444.81775,445.09045,53,101,0
445.09045,445.63593,68,101,0
445.09045,445.63593,71,101,0
445.09045,445.63593,80,101,0
445.63593,446.18137,80,101,0
445.63593,446.18137,83,101,0
445.63593,446.18137,92,101,0
445.09045,446.18137,53,101,0
445.09045,446.18137,65,101,0
446.18137,446.72684,69,101,0
446.18137,446.72684,72,101,0
446.18137,446.72684,81,101,0
446.18137,446.72684,41,101,0
446.18137,446.72684,53,101,0
446.72684,447.27228,81,101,0
446.72684,447.27228,84,101,0
446.72684,447.27228,93,101,0
446.99954,447.27228,41,101,0
446.99954,447.27228,53,101,0
447.27228,447.81775,66,101,0
447.27228,447.81775,70,101,0
447.27228,447.81775,78,101,0
447.81775,448.3632,78,101,0
447.81775,448.3632,81,101,0
447.81775,448.3632,90,101,0
447.27228,448.3632,53,101,0
447.27228,448.3632,65,101,0
448.3632,448.90863,67,101,0
448.3632,448.90863,70,101,0
448.3632,448.90863,79,101,0
448.3632,448.90863,29,101,0
448.3632,448.90863,41,101,0
448.90863,449.4541,79,101,0
448.90863,449.4541,82,101,0
448.90863,449.4541,91,101,0
449.18137,449.4541,29,101,0
449.18137,449.4541,41,101,0
449.4541,449.99954,64,101,0
449.4541,449.99954,68,101,0
449.4541,449.99954,76,101,0
449.99954,450.545,76,101,0
449.99954,450.545,80,101,0
449.99954,450.545,88,101,0
449.4541,450.545,53,101,0
449.4541,450.545,65,101,0
450.545,451.09045,65,101,0
450.545,451.09045,69,101,0
450.545,451.09045,77,101,0
450.545,451.09045,29,101,0
450.545,451.09045,41,101,0
451.3632,451.63593,77,101,0
451.3632,451.63593,89,101,0
451.3632,451.63593,29,101,0
451.3632,451.63593,41,101,0
451.63593,452.7268,73,101,0
451.63593,452.7268,77,101,0
451.63593,452.7268,80,101,0
451.63593,452.7268,85,101,0
451.63593,452.7268,47,101,0
451.63593,452.7268,53,101,0
451.63593,452.7268,59,101,0
452.7268,453.27228,72,101,0
452.7268,453.27228,77,101,0
452.7268,453.27228,81,101,0
452.7268,453.27228,84,101,0
452.7268,453.27228,48,101,0
452.7268,453.27228,53,101,0
452.7268,453.27228,60,101,0
453.545,453.81772,77,101,0
453.545,453.81772,89,101,0
453.545,453.81772,29,101,0
453.545,453.81772,41,101,0
453.81772,454.90863,73,101,0
453.81772,454.90863,77,101,0
453.81772,454.90863,80,101,0
453.81772,454.90863,85,101,0
453.81772,454.90863,47,101,0
453.81772,454.90863,53,101,0
453.81772,454.90863,59,101,0
454.90863,455.4541,72,101,0
454.90863,455.4541,81,101,0
454.90863,455.4541,84,101,0
454.90863,455.4541,48,101,0
454.90863,455.4541,53,101,0
454.90863,455.4541,60,101,0
455.7268,455.99954,77,101,0
455.7268,455.99954,89,101,0
455.7268,455.99954,29,101,0
455.7268,455.99954,41,101,0
455.99954,457.09045,72,101,0
455.99954,457.09045,77,101,0
455.99954,457.09045,84,101,0
455.99954,457.09045,45,101,0
455.99954,457.09045,53,101,0
455.99954,457.09045,57,101,0
457.09045,457.6359,70,101,0
457.09045,457.6359,77,101,0
457.09045,457.6359,82,101,0
457.09045,457.6359,46,101,0
457.09045,457.6359,53,101,0
457.09045,457.6359,58,101,0
457.90863,458.18137,77,101,0
457.90863,458.18137,89,101,0
457.90863,458.18137,29,101,0
457.90863,458.18137,41,101,0
458.18137,459.27228,70,101,0
458.18137,459.27228,77,101,0
458.18137,459.27228,82,101,0
458.18137,459.27228,44,101,0
458.18137,459.27228,53,101,0
458.18137,459.27228,56,101,0
459.27228,459.81772,69,101,0
459.27228,459.81772,77,101,0
459.27228,459.81772,81,101,0
459.27228,459.81772,45,101,0
459.27228,459.81772,53,101,0
459.27228,459.81772,57,101,0
460.09045,460.3632,77,101,0
460.09045,460.3632,89,101,0
460.09045,460.3632,29,101,0
460.09045,460.3632,41,101,0
460.3632,461.45407,68,101,0
460.3632,461.45407,73,101,0
460.3632,461.45407,77,101,0
460.3632,461.45407,80,101,0
460.3632,461.45407,49,101,0
460.3632,461.45407,53,101,0
460.3632,461.45407,56,101,0
460.3632,461.45407,61,101,0
461.45407,461.99954,69,101,0
461.45407,461.99954,72,101,0
461.45407,461.99954,77,101,0
461.45407,461.99954,81,101,0
461.45407,461.99954,48,101,0
461.45407,461.99954,53,101,0
461.45407,461.99954,57,101,0
461.45407,461.99954,60,101,0
462.27228,462.54498,77,101,0
462.27228,462.54498,89,101,0
462.27228,462.54498,29,101,0
462.27228,462.54498,41,101,0
462.54498,463.6359,68,101,0
462.54498,463.6359,73,101,0
462.54498,463.6359,77,101,0
462.54498,463.6359,80,101,0
462.54498,463.6359,49,101,0
462.54498,463.6359,53,101,0
462.54498,463.6359,56,101,0
462.54498,463.6359,61,101,0
463.6359,464.18137,69,101,0
463.6359,464.18137,72,101,0
463.6359,464.18137,77,101,0
463.6359,464.18137,81,101,0
463.6359,464.18137,48,101,0
463.6359,464.18137,53,101,0
463.6359,464.18137,57,101,0
463.6359,464.18137,60,101,0
464.45407,464.7268,77,101,0
464.45407,464.7268,89,101,0
464.45407,464.7268,29,101,0
464.45407,464.7268,41,101,0
464.7268,465.81772,68,101,0
464.7268,465.81772,73,101,0
464.7268,465.81772,77,101,0
464.7268,465.81772,80,101,0
464.7268,465.81772,49,101,0
464.7268,465.81772,53,101,0
464.7268,465.81772,56,101,0
464.7268,465.81772,61,101,0
465.81772,466.90863,69,101,0
465.81772,466.90863,72,101,0
465.81772,466.90863,77,101,0
465.81772,466.90863,81,101,0
465.81772,466.90863,48,101,0
465.81772,466.90863,53,101,0
465.81772,466.90863,57,101,0
465.81772,466.90863,60,101,0
466.90863,467.99954,72,101,0
466.90863,467.99954,77,101,0
466.90863,467.99954,79,101,0
466.90863,467.99954,84,101,0
466.90863,467.99954,36,101,0
466.90863,467.99954,41,101,0
466.90863,467.99954,43,101,0
466.90863,467.99954,48,101,0
467.99954,469.09045,72,101,0
467.99954,469.09045,76,101,0
467.99954,469.09045,79,101,0
467.99954,469.09045,84,101,0
467.99954,469.09045,36,101,0
467.99954,469.09045,40,101,0
467.99954,469.09045,43,101,0
467.99954,469.09045,48,101,0
469.09045,469.90863,65,101,0
469.09045,469.90863,68,101,0
469.09045,469.90863,77,101,0
469.09045,469.90863,41,101,0
469.09045,469.90863,44,101,0
469.09045,469.90863,53,101,0
469.90863,470.18134,72,101,0
469.90863,470.18134,48,101,0
470.18134,470.45407,68,101,0
470.18134,470.45407,77,101,0
470.18134,470.45407,41,101,0
470.18134,470.45407,44,101,0
470.18134,470.45407,53,101,0
470.45407,470.7268,72,101,0
470.45407,470.7268,80,101,0
470.45407,470.7268,60,101,0
470.7268,471.54498,68,101,0
470.7268,471.54498,77,101,0
470.7268,471.54498,53,101,0
470.7268,471.54498,56,101,0
470.7268,471.54498,65,101,0
471.54498,471.81772,72,101,0
471.54498,471.81772,48,101,0
471.81772,472.09042,68,101,0
471.81772,472.09042,77,101,0
471.81772,472.09042,41,101,0
471.81772,472.09042,44,101,0
471.81772,472.09042,53,101,0
472.09042,472.36316,72,101,0
472.09042,472.36316,80,101,0
472.09042,472.36316,60,101,0
472.36316,472.6359,68,101,0
472.36316,472.6359,77,101,0
472.36316,472.6359,53,101,0
472.36316,472.6359,56,101,0
472.36316,472.6359,65,101,0
472.6359,472.90863,72,101,0
472.6359,472.90863,48,101,0
472.90863,473.18134,68,101,0
472.90863,473.18134,77,101,0
472.90863,473.18134,41,101,0
472.90863,473.18134,44,101,0
472.90863,473.18134,53,101,0
473.18134,473.45407,72,101,0
473.18134,473.45407,80,101,0
473.18134,473.45407,60,101,0
473.45407,474.27225,72,101,0
473.45407,474.27225,80,101,0
473.45407,474.27225,84,101,0
473.45407,474.27225,53,101,0
473.45407,474.27225,56,101,0
473.45407,474.27225,65,101,0
474.27225,474.54498,73,101,0
474.27225,474.54498,85,101,0
474.27225,474.54498,61,101,0
474.54498,475.36316,73,101,0
474.54498,475.36316,77,101,0
474.54498,475.36316,85,101,0
474.54498,475.36316,53,101,0
474.54498,475.36316,61,101,0
474.54498,475.36316,65,101,0
475.36316,475.6359,67,101,0
475.36316,475.6359,79,101,0
475.36316,475.6359,55,101,0
475.6359,476.45407,72,101,0
475.6359,476.45407,76,101,0
475.6359,476.45407,79,101,0
475.6359,476.45407,84,101,0
475.6359,476.45407,52,101,0
475.6359,476.45407,55,101,0
475.6359,476.45407,60,101,0
476.45407,476.7268,77,101,0
476.45407,476.7268,89,101,0
476.45407,476.7268,65,101,0
476.7268,477.54498,77,101,0
476.7268,477.54498,84,101,0
476.7268,477.54498,89,101,0
476.7268,477.54498,53,101,0
476.7268,477.54498,60,101,0
476.7268,477.54498,65,101,0
477.54498,477.81772,65,101,0
477.54498,477.81772,77,101,0
478.09042,478.36316,34,101,0
478.09042,478.36316,46,101,0
477.81772,478.6359,67,101,0
477.81772,478.6359,79,101,0
478.36316,478.6359,46,101,0
478.36316,478.6359,58,101,0
478.6359,478.9086,68,101,0
478.6359,478.9086,80,101,0
478.6359,478.9086,44,101,0
478.6359,478.9086,56,101,0
478.9086,479.45407,70,101,0
478.9086,479.45407,82,101,0
478.9086,479.45407,43,101,0
478.9086,479.45407,55,101,0
479.45407,479.7268,68,101,0
479.45407,479.7268,80,101,0
479.45407,479.7268,44,101,0
479.45407,479.7268,56,101,0
479.7268,479.9995,67,101,0
479.7268,479.9995,79,101,0
479.7268,479.9995,46,101,0
479.7268,479.9995,58,101,0
480.27225,480.54498,34,101,0
480.27225,480.54498,46,101,0
479.9995,480.8177,67,101,0
479.9995,480.8177,79,101,0
480.54498,480.8177,46,101,0
480.54498,480.8177,58,101,0
480.8177,481.09042,68,101,0
480.8177,481.09042,80,101,0
480.8177,481.09042,44,101,0
480.8177,481.09042,56,101,0
481.09042,481.36316,72,101,0
481.09042,481.36316,84,101,0
481.36316,481.6359,70,101,0
481.36316,481.6359,82,101,0
481.09042,481.6359,43,101,0
481.09042,481.6359,55,101,0
481.6359,481.9086,68,101,0
481.6359,481.9086,80,101,0
481.6359,481.9086,44,101,0
481.6359,481.9086,56,101,0
481.9086,482.18134,67,101,0
481.9086,482.18134,79,101,0
481.9086,482.18134,46,101,0
481.9086,482.18134,58,101,0
482.18134,482.9995,65,101,0
482.18134,482.9995,74,101,0
482.18134,482.9995,77,101,0
482.18134,482.9995,47,101,0
482.18134,482.9995,55,101,0
482.18134,482.9995,59,101,0
482.9995,483.27225,67,101,0
482.9995,483.27225,79,101,0
482.9995,483.27225,43,101,0
482.9995,483.27225,55,101,0
483.27225,484.09042,64,101,0
483.27225,484.09042,72,101,0
483.27225,484.09042,76,101,0
483.27225,484.09042,48,101,0
483.27225,484.09042,55,101,0
483.27225,484.09042,60,101,0
484.09042,484.36316,67,101,0
484.09042,484.36316,79,101,0
484.09042,484.36316,43,101,0
484.09042,484.36316,55,101,0
484.36316,485.18134,67,101,0
484.36316,485.18134,71,101,0
484.36316,485.18134,74,101,0
484.36316,485.18134,50,101,0
484.36316,485.18134,55,101,0
484.36316,485.18134,62,101,0
485.18134,485.45407,79,101,0
485.18134,485.45407,43,101,0
485.18134,485.45407,55,101,0
485.45407,486.27225,67,101,0
485.45407,486.27225,72,101,0
485.45407,486.27225,52,101,0
485.45407,486.27225,55,101,0
485.45407,486.27225,60,101,0
485.45407,486.27225,64,101,0
486.27225,486.54498,72,101,0
486.27225,486.54498,60,101,0
486.54498,487.36316,69,49,0
486.54498,487.36316,77,49,0
486.54498,487.36316,57,49,0
486.54498,487.36316,65,49,0
487.36316,487.63586,72,49,0
487.36316,487.63586,60,49,0
487.63586,487.9086,69,49,0
487.63586,487.9086,77,49,0
487.63586,487.9086,57,49,0
487.63586,487.9086,65,49,0
487.9086,488.18134,72,49,0
487.9086,488.18134,81,49,0
487.9086,488.18134,60,49,0
487.9086,488.18134,69,49,0
488.18134,488.9995,69,49,0
488.18134,488.9995,77,49,0
488.18134,488.9995,57,49,0
488.18134,488.9995,65,49,0
488.9995,489.27225,72,49,0
488.9995,489.27225,60,49,0
489.27225,489.54495,69,49,0
489.27225,489.54495,77,49,0
489.27225,489.54495,57,49,0
489.27225,489.54495,65,49,0
489.54495,489.8177,72,49,0
489.54495,489.8177,81,49,0
489.54495,489.8177,60,49,0
489.54495,489.8177,69,49,0
489.8177,490.09042,69,49,0
489.8177,490.09042,77,49,0
489.8177,490.09042,57,49,0
489.8177,490.09042,65,49,0
490.09042,490.36316,72,49,0
490.09042,490.36316,60,49,0
490.36316,490.63586,69,49,0
490.36316,490.63586,77,49,0
490.36316,490.63586,57,49,0
490.36316,490.63586,65,49,0
490.63586,490.9086,72,49,0
490.63586,490.9086,81,49,0
490.63586,490.9086,60,49,0
490.63586,490.9086,69,49,0
490.9086,491.72678,77,49,0
490.9086,491.72678,81,49,0
490.9086,491.72678,84,49,0
490.9086,491.72678,65,49,0
490.9086,491.72678,69,49,0
490.9086,491.72678,72,49,0
491.72678,491.9995,89,49,0
491.72678,491.9995,77,49,0
491.9995,492.8177,81,49,0
491.9995,492.8177,84,49,0
491.9995,492.8177,89,49,0
491.9995,492.8177,69,49,0
491.9995,492.8177,72,49,0
491.9995,492.8177,77,49,0
492.8177,493.09042,90,49,0
492.8177,493.09042,78,49,0
493.09042,493.63586,81,62,0
493.09042,493.63586,84,62,0
493.09042,493.63586,90,62,0
493.09042,493.63586,69,62,0
493.09042,493.63586,72,62,0
493.09042,493.63586,78,62,0
493.63586,494.18134,84,62,0
493.63586,494.18134,87,62,0
493.63586,494.18134,72,62,0
493.63586,494.18134,75,62,0
494.18134,494.72678,82,62,0
494.18134,494.72678,86,62,0
494.18134,494.72678,70,62,0
494.18134,494.72678,74,62,0
494.72678,495.27222,81,62,0
494.72678,495.27222,84,62,0
494.72678,495.27222,69,62,0
494.72678,495.27222,72,62,0
495.27222,495.54495,79,49,0
495.27222,495.54495,83,49,0
495.27222,495.54495,67,49,0
495.27222,495.54495,71,49,0
495.54495,495.8177,74,49,0
495.54495,495.8177,62,49,0
495.8177,496.63586,71,49,0
495.8177,496.63586,77,49,0
495.8177,496.63586,59,49,0
495.8177,496.63586,65,49,0
496.63586,496.9086,74,49,0
496.63586,496.9086,62,49,0
496.9086,497.18134,77,49,0
496.9086,497.18134,65,49,0
497.18134,497.45404,79,49,0
497.18134,497.45404,67,49,0
497.45404,498.27222,71,49,0
497.45404,498.27222,77,49,0
497.45404,498.27222,59,49,0
497.45404,498.27222,65,49,0
498.27222,498.54495,74,49,0
498.27222,498.54495,62,49,0
498.54495,498.8177,71,49,0
498.54495,498.8177,77,49,0
498.54495,498.8177,59,49,0
498.54495,498.8177,65,49,0
498.8177,499.09042,79,49,0
498.8177,499.09042,67,49,0
499.09042,499.36313,71,49,0
499.09042,499.36313,77,49,0
499.09042,499.36313,59,49,0
499.09042,499.36313,65,49,0
499.36313,499.63586,74,49,0
499.36313,499.63586,62,49,0
499.63586,499.9086,71,49,0
499.63586,499.9086,77,49,0
499.63586,499.9086,59,49,0
499.63586,499.9086,65,49,0
499.9086,500.1813,79,49,0
499.9086,500.1813,67,49,0
500.1813,500.9995,71,49,0
500.1813,500.9995,77,49,0
500.9995,501.27222,77,49,0
500.9995,501.27222,89,49,0
500.1813,501.27222,59,49,0
500.1813,501.27222,65,49,0
501.27222,501.8177,77,49,0
501.27222,501.8177,83,49,0
501.27222,501.8177,86,49,0
501.27222,501.8177,89,49,0
501.27222,501.8177,71,49,0
501.27222,501.8177,74,49,0
501.8177,501.99933,77,62,0
501.8177,501.99933,83,62,0
501.8177,501.99933,86,62,0
501.8177,501.99933,89,62,0
501.8177,502.03607,40,62,0
501.99933,502.1815,89,62,0
502.1815,502.36313,86,62,0
502.36313,502.54477,83,62,0
502.54477,502.72696,80,62,0
502.72696,502.9086,77,62,0
502.9086,503.09024,74,62,0
502.36313,503.1813,59,62,0
502.36313,503.1813,62,62,0
502.36313,503.1813,68,62,0
503.09024,503.2724,71,62,0
503.2724,503.45404,68,62,0
503.45404,503.63568,65,62,0
503.63568,503.81784,62,62,0
503.81784,503.99948,59,62,0
503.99948,504.2179,33,49,0
504.18112,504.3633,88,49,0
504.3633,504.54495,85,49,0
504.54495,504.7266,82,49,0
504.7266,504.90875,79,49,0
504.90875,505.0904,76,49,0
505.0904,505.27203,73,49,0
504.54495,505.36313,58,49,0
504.54495,505.36313,61,49,0
504.54495,505.36313,67,49,0
505.27203,505.45422,70,49,0
505.45422,505.63586,67,49,0
505.63586,505.8175,64,49,0
505.8175,505.99966,61,49,0
505.99966,506.1813,58,49,0
506.1813,506.39972,38,49,0
506.36295,506.54514,87,49,0
506.54514,506.72678,84,49,0
506.72678,506.90842,81,49,0
506.90842,507.09058,78,49,0
507.09058,507.27222,75,49,0
507.27222,507.45386,72,49,0
506.72678,507.54495,57,49,0
506.72678,507.54495,60,49,0
506.72678,507.54495,66,49,0
507.45386,507.63605,69,49,0
507.63605,507.8177,66,49,0
507.8177,507.99933,63,49,0
507.99933,508.1815,60,49,0
508.1815,508.36313,57,49,0
508.54477,508.72693,84,49,0
508.72693,508.90857,81,49,0
508.90857,509.0902,78,49,0
509.0902,509.2724,75,49,0
509.2724,509.45404,72,49,0
508.90857,509.45404,39,49,0
509.45404,509.63568,69,49,0
509.63568,509.81784,66,49,0
509.81784,509.99948,63,49,0
509.45404,509.99948,38,49,0
509.99948,510.18112,60,49,0
510.18112,510.3633,57,49,0
510.3633,510.54495,54,49,0
509.99948,510.54495,36,49,0
510.54495,510.7266,51,49,0
510.7266,510.90875,54,49,0
510.90875,511.0904,57,49,0
511.0904,511.27203,60,49,0
511.27203,511.45422,63,49,0
511.45422,511.63586,66,49,0
511.63586,511.8175,69,49,0
511.8175,511.99966,66,49,0
511.99966,512.18134,63,49,0
510.54495,512.18134,35,49,0
512.18134,512.363,60,49,0
512.363,512.5451,57,49,0
512.5451,512.72675,54,49,0
512.18134,512.72675,47,49,0
512.72675,512.9084,57,49,0
512.9084,513.0906,60,49,0
513.0906,513.2722,63,49,0
513.2722,513.45386,66,49,0
513.45386,513.63605,69,49,0
513.63605,513.8177,72,49,0
513.8177,513.9993,75,49,0
513.9993,514.18146,72,49,0
514.18146,514.3631,69,49,0
512.72675,514.3631,35,49,0
514.3631,514.54474,66,49,0
514.54474,514.7269,63,49,0
514.7269,514.90857,60,49,0
514.3631,514.90857,47,49,0
514.90857,515.0902,63,49,0
515.0902,515.2724,66,49,0
515.2724,515.45404,69,49,0
515.45404,515.6357,72,49,0
515.6357,515.8179,75,49,0
515.8179,515.9995,78,49,0
515.9995,516.18115,81,49,0
516.18115,516.3633,78,49,0
516.3633,516.5449,75,49,0
514.90857,516.5449,35,49,0
516.5449,516.72656,72,49,0
516.72656,516.90875,75,49,0
516.90875,517.0904,78,49,0
516.5449,517.0904,47,49,0
517.0904,517.27203,81,49,0
517.27203,517.4542,78,49,0
517.4542,517.63586,75,49,0
517.0904,517.63586,35,49,0
517.63586,517.8175,72,49,0
517.8175,517.99963,75,49,0
517.99963,518.1813,78,49,0
517.63586,518.1813,47,49,0
518.1813,518.3629,81,49,0
518.3629,518.5451,78,49,0
518.5451,518.72675,75,49,0
518.1813,518.72675,35,49,0
518.72675,518.9084,72,49,0
518.9084,519.0906,75,49,0
519.0906,519.2722,78,49,0
518.72675,519.2722,47,49,0
519.2722,519.45386,81,49,0
519.45386,519.63605,78,49,0
519.63605,519.8177,75,49,0
519.2722,519.8177,35,49,0
519.8177,519.9993,72,49,0
519.9993,520.18146,75,49,0
520.18146,520.3631,78,49,0
519.8177,520.3631,47,49,0
520.3631,520.54474,81,49,0
520.54474,520.7269,75,49,0
520.7269,520.90857,72,49,0
520.3631,520.90857,35,49,0
520.90857,521.0902,69,49,0
521.0902,521.2724,72,49,0
521.2724,521.45404,75,49,0
520.90857,521.45404,47,49,0
521.45404,521.6357,79,49,0
521.6357,521.8178,73,49,0
521.8178,521.99945,70,49,0
521.45404,521.99945,35,49,0
521.99945,522.1811,67,49,0
522.1811,522.3633,70,49,0
522.3633,522.5449,73,49,0
521.99945,522.5449,47,49,0
522.5449,522.72656,78,49,0
522.72656,522.90875,72,49,0
522.90875,523.0904,69,49,0
522.5449,523.0904,35,49,0
523.0904,523.27203,66,49,0
523.27203,523.4542,69,49,0
523.4542,523.63586,72,49,0
523.0904,523.63586,47,49,0
523.63586,523.8175,77,49,0
523.8175,523.99963,71,49,0
523.99963,524.1813,68,49,0
523.63586,524.1813,35,49,0
524.1813,524.3629,65,49,0
524.3629,524.5451,68,49,0
524.5451,524.72675,71,49,0
524.1813,524.72675,47,49,0
524.72675,524.9084,76,49,0
524.9084,525.0906,72,49,0
525.0906,525.2722,69,49,0
524.72675,525.2722,35,49,0
525.2722,525.45386,64,49,0
525.45386,525.636,69,49,0
525.636,525.8176,72,49,0
525.2722,525.8176,47,49,0
525.8176,525.99927,75,49,0
525.99927,526.18146,72,49,0
526.18146,526.3631,66,49,0
525.8176,526.3631,35,49,0
526.3631,526.54474,64,49,0
526.54474,526.7269,71,49,0
526.7269,526.90857,76,49,0
526.3631,526.90857,47,49,0
526.90857,527.0902,81,49,0
527.0902,527.2724,76,49,0
527.2724,527.45404,72,49,0
526.90857,527.45404,35,49,0
527.45404,527.6357,71,49,0
527.6357,527.8178,75,49,0
527.8178,527.99945,78,49,0
527.45404,527.99945,47,49,0
527.99945,528.2722,35,49,0
527.9313,528.5449,83,49,0
527.99945,528.5449,95,49,0
528.5449,528.72656,72,49,0
528.72656,528.90875,69,49,0
528.5449,529.0904,81,49,0
528.5449,529.0904,93,49,0
528.90875,529.0904,66,49,0
529.0904,529.27203,71,49,0
529.27203,529.4542,67,49,0
529.0904,529.63586,79,49,0
529.0904,529.63586,91,49,0
529.4542,529.63586,64,49,0
529.63586,529.8175,59,49,0
529.8175,529.99963,55,49,0
529.63586,530.1813,78,49,0
529.63586,530.1813,90,49,0
529.99963,530.1813,52,49,0
530.1813,530.45404,35,49,0
530.1813,530.72675,76,49,0
530.1813,530.72675,88,49,0
530.72675,530.9084,70,49,0
530.72675,530.99945,78,49,0
530.72675,530.99945,90,49,0
530.9084,531.0906,67,49,0
530.99945,531.2722,73,49,0
530.99945,531.2722,85,49,0
531.0906,531.2722,64,49,0
531.2722,531.45386,69,49,0
531.45386,531.636,66,49,0
531.2722,531.8176,76,49,0
531.2722,531.8176,88,49,0
531.636,531.8176,60,49,0
531.8176,531.99927,57,49,0
531.99927,532.18146,54,49,0
531.8176,532.3631,75,49,0
531.8176,532.3631,87,49,0
532.18146,532.3631,48,49,0
532.3631,532.6358,35,49,0
532.3631,532.90857,74,49,0
532.3631,532.90857,86,49,0
532.90857,533.0902,68,49,0
532.90857,533.1813,76,49,0
532.90857,533.1813,88,49,0
533.0902,533.2724,64,49,0
533.1813,533.45404,71,49,0
533.1813,533.45404,83,49,0
533.2724,533.45404,62,49,0
533.45404,533.6357,69,49,0
533.6357,533.8178,64,49,0
533.45404,533.99945,74,49,0
533.45404,533.99945,86,49,0
533.8178,533.99945,60,49,0
533.99945,534.1811,57,49,0
534.1811,534.3633,52,49,0
533.99945,534.5449,72,49,0
533.99945,534.5449,84,49,0
534.3633,534.5449,48,49,0
534.5449,534.7633,69,49,0
534.5449,534.7633,78,49,0
534.5449,534.7633,81,49,0
534.5449,534.8176,35,49,0
535.0904,535.27203,64,49,0
535.0904,535.3088,67,49,0
535.0904,535.3088,76,49,0
535.0904,535.3088,79,49,0
535.27203,535.45416,59,49,0
535.45416,535.6358,55,49,0
535.6358,535.81744,59,49,0
535.81744,535.99963,57,49,0
535.99963,536.1813,54,49,0
536.1813,536.3629,47,49,0
536.3629,536.5451,45,49,0
535.6358,536.72675,66,49,0
535.6358,536.72675,75,49,0
535.6358,536.72675,78,49,0
536.5451,536.72675,42,49,0
536.72675,536.9451,69,49,0
536.72675,536.9451,78,49,0
536.72675,536.9451,81,49,0
536.72675,536.99945,35,49,0
537.2722,537.45386,64,49,0
537.2722,537.4906,67,49,0
537.2722,537.4906,76,49,0
537.2722,537.4906,79,49,0
537.45386,537.636,59,49,0
537.636,537.8176,55,49,0
537.8176,537.99927,59,49,0
537.99927,538.18146,57,49,0
538.18146,538.3631,54,49,0
538.3631,538.54474,47,49,0
538.54474,538.7269,45,49,0
537.8176,538.90857,66,49,0
537.8176,538.90857,75,49,0
537.8176,538.90857,78,49,0
538.7269,538.90857,42,49,0
538.90857,539.12695,66,49,0
538.90857,539.12695,69,49,0
538.90857,539.1813,35,49,0
539.1813,539.454,59,49,0
539.454,539.6724,64,49,0
539.454,539.6724,67,49,0
539.454,539.72675,52,49,0
539.72675,539.99945,43,49,0
539.99945,540.2722,47,49,0
540.2722,540.5449,45,49,0
540.5449,540.8176,42,49,0
539.99945,541.0904,63,49,0
539.99945,541.0904,66,49,0
540.8176,541.0904,35,49,0
541.3631,541.6358,59,49,0
541.6358,541.90857,52,49,0
541.6358,542.1813,64,49,0
541.6358,542.1813,67,49,0
541.90857,542.1813,43,49,0
542.1813,542.454,47,49,0
542.454,542.72675,45,49,0
542.72675,542.99945,42,49,0
542.1813,543.27216,63,49,0
542.1813,543.27216,66,49,0
542.99945,543.27216,35,49,0
543.27216,543.5449,42,49,0
543.27216,543.5449,42,49,0
543.5449,543.8176,45,49,0
543.5449,543.8176,45,49,0
543.8176,544.0904,48,49,0
543.8176,544.0904,48,49,0
544.0904,544.3631,51,36,0
544.3631,544.6358,54,36,0
544.6358,544.90857,57,36,0
544.3631,544.90857,42,36,0
544.3631,544.90857,45,36,0
544.3631,544.90857,51,36,0
544.90857,545.1813,60,36,0
545.1813,545.454,63,36,0
545.454,545.72675,66,36,0
545.72675,545.99945,69,36,0
545.99945,546.27216,72,36,0
546.27216,546.5449,75,36,0
546.5449,546.8176,78,36,0
547.90857,548.1813,79,49,0
548.1813,548.39966,52,49,0
548.1813,548.39966,55,49,0
548.1813,548.454,76,49,0
548.454,548.72675,67,49,0
548.72675,548.99945,69,49,0
548.99945,549.27216,67,49,0
549.27216,549.4906,52,49,0
549.27216,549.4906,55,49,0
549.27216,549.5449,64,49,0
549.5449,549.8176,59,49,0
550.09033,550.3631,79,49,0
550.3631,550.5815,52,49,0
550.3631,550.5815,55,49,0
550.3631,550.6358,76,49,0
550.6358,550.90857,67,49,0
550.90857,551.1813,69,49,0
551.1813,551.454,67,49,0
551.454,551.67236,52,49,0
551.454,551.67236,55,49,0
551.454,551.72675,64,49,0
551.72675,551.99945,59,49,0
552.27216,552.5449,78,49,0
552.5449,552.7633,52,49,0
552.5449,552.7633,54,49,0
552.5449,552.7633,60,49,0
552.5449,552.8176,76,49,0
552.8176,553.09033,66,49,0
553.09033,553.3631,69,49,0
553.3631,553.6358,67,49,0
553.6358,553.8542,52,49,0
553.6358,553.8542,55,49,0
553.6358,553.9085,64,49,0
553.9085,554.1813,59,49,0
554.454,554.72675,79,49,0
554.72675,554.99945,76,49,0
554.99945,555.27216,71,49,0
554.72675,555.27216,52,49,0
554.72675,555.27216,55,49,0
554.72675,555.27216,59,49,0
555.27216,555.5449,74,49,0
555.5449,555.8176,73,49,0
555.8176,556.09033,70,49,0
556.09033,556.3631,66,49,0
555.8176,556.3631,54,49,0
555.8176,556.3631,58,49,0
556.6358,556.9085,78,49,0
556.9085,557.1813,75,49,0
557.1813,557.454,71,49,0
556.9085,557.454,54,49,0
556.9085,557.454,59,49,0
557.454,557.7267,72,49,0
557.7267,557.99945,71,49,0
557.99945,558.27216,66,49,0
558.27216,558.5449,63,49,0
557.99945,558.5449,51,49,0
557.99945,558.5449,54,49,0
558.8176,559.09033,78,49,0
559.09033,559.3631,73,49,0
559.3631,559.6358,71,49,0
559.09033,559.6358,54,49,0
559.09033,559.6358,59,49,0
559.09033,559.6358,61,49,0
559.6358,559.9085,74,49,0
559.9085,560.1813,73,49,0
560.1813,560.454,70,49,0
560.454,560.7267,64,49,0
560.1813,560.7267,54,49,0
560.1813,560.7267,58,49,0
560.1813,560.7267,61,49,0
560.99945,561.27216,79,49,0
561.27216,561.5449,73,49,0
561.5449,561.8176,71,49,0
561.27216,561.8176,52,49,0
561.27216,561.8176,61,49,0
561.8176,562.09033,74,49,0
562.09033,562.3631,73,49,0
562.3631,562.6358,70,49,0
562.6358,562.9085,64,49,0
562.3631,562.9085,54,49,0
562.3631,562.9085,58,49,0
562.3631,562.9085,61,49,0
563.1813,563.454,75,49,0
563.454,563.7267,71,49,0
563.7267,563.99945,66,49,0
563.454,563.99945,54,49,0
563.454,563.99945,59,49,0
563.454,563.99945,63,49,0
563.99945,564.27216,67,49,0
564.27216,564.54486,66,49,0
564.54486,564.8176,63,49,0
564.8176,565.09033,59,49,0
564.54486,565.09033,47,49,0
564.54486,565.09033,54,49,0
565.3631,565.6358,84,49,0
565.6358,565.9085,79,49,0
565.9085,566.1813,76,49,0
565.6358,566.1813,59,49,0
565.6358,566.1813,64,49,0
565.6358,566.1813,67,49,0
566.1813,566.454,78,49,0
566.454,566.7267,76,49,0
566.7267,566.99945,72,49,0
566.7267,567.27216,67,49,0
566.99945,567.27216,67,49,0
566.7267,567.27216,57,49,0
567.54486,567.8176,86,62,0
567.8176,568.09033,81,62,0
568.09033,568.3631,74,62,0
567.8176,568.3631,60,62,0
567.8176,568.3631,66,62,0
568.3631,568.6358,76,62,0
568.6358,568.9085,74,62,0
568.9085,569.1813,71,62,0
569.1813,569.454,62,62,0
568.9085,569.454,59,62,0
568.9085,569.454,67,62,0
569.7267,569.99945,84,62,0
569.99945,570.27216,79,62,0
570.27216,570.54486,76,62,0
569.99945,570.54486,59,62,0
569.99945,570.54486,64,62,0
569.99945,570.54486,67,62,0
570.54486,570.8176,78,62,0
570.8176,571.09033,76,62,0
571.09033,571.36304,72,62,0
571.36304,571.6358,64,62,0
571.09033,571.6358,57,62,0
571.09033,571.6358,66,62,0
571.9085,572.1813,86,62,0
572.1813,572.454,81,62,0
572.454,572.7267,74,62,0
572.1813,572.7267,60,62,0
572.1813,572.7267,66,62,0
572.7267,572.99945,76,62,0
572.99945,573.27216,74,62,0
573.27216,573.54486,71,62,0
573.54486,573.8176,62,62,0
573.27216,573.8176,59,62,0
573.27216,573.8176,67,62,0
574.09033,574.36304,84,75,0
574.36304,574.6358,79,75,0
574.6358,574.9085,76,75,0
574.36304,574.9085,59,75,0
574.36304,574.9085,64,75,0
574.9085,575.1812,72,75,0
575.1812,575.454,67,75,0
575.454,575.7267,64,75,0
575.7267,575.99945,72,75,0
575.454,575.99945,57,75,0
575.454,575.99945,60,75,0
576.27216,576.54486,86,75,0
576.54486,576.8176,81,75,0
576.8176,577.09033,78,75,0
576.54486,577.09033,60,75,0
576.54486,577.09033,66,75,0
577.09033,577.36304,74,75,0
577.36304,577.6358,69,75,0
577.6358,577.9085,66,75,0
577.9085,578.1812,74,75,0
577.6358,578.1812,59,75,0
577.6358,578.1812,62,75,0
578.454,578.7267,88,75,0
578.7267,578.99945,83,75,0
578.99945,579.27216,79,75,0
578.7267,579.27216,62,75,0
578.7267,579.27216,67,75,0
579.27216,579.54486,76,75,0
579.54486,579.8176,71,75,0
579.8176,580.09033,69,75,0
580.09033,580.36304,76,75,0
579.8176,580.36304,60,75,0
579.8176,580.36304,64,75,0
580.6358,580.9085,93,75,0
580.9085,581.1812,84,75,0
581.1812,581.454,81,75,0
580.9085,581.454,66,75,0
580.9085,581.454,69,75,0
581.7267,581.9994,91,75,0
581.9994,582.27216,84,75,0
582.27216,582.54486,79,75,0
581.9994,582.54486,64,75,0
581.9994,582.54486,67,75,0
581.9994,582.54486,72,75,0
582.8176,583.09033,90,88,0
583.09033,583.36304,84,88,0
583.36304,583.6358,81,88,0
583.6358,583.9085,78,88,0
583.09033,584.1812,72,110,0
583.9085,584.1812,72,88,0
583.09033,584.454,69,110,0
584.1812,584.454,69,88,0
583.09033,584.7267,66,110,0
584.454,584.7267,66,88,0
583.09033,584.7267,63,110,0
584.7267,584.9994,63,88,0
584.9994,585.27216,60,88,0
585.27216,585.54486,57,88,0
585.54486,585.81757,54,88,0
585.81757,586.09033,51,88,0
591.27216,592.36304,76,49,0
591.27216,592.36304,76,49,0
591.27216,592.36304,64,49,0
591.27216,592.36304,64,49,0
592.36304,593.1812,79,49,0
592.36304,593.1812,67,49,0
593.1812,593.454,83,49,0
593.1812,593.454,71,49,0
593.454,593.9994,66,49,0
593.454,594.54486,76,49,0
593.454,594.54486,84,49,0
593.454,594.54486,64,49,0
593.454,594.54486,72,49,0
593.9994,595.09033,69,49,0
594.54486,595.63574,76,49,0
594.54486,595.63574,83,49,0
594.54486,595.63574,64,49,0
594.54486,595.63574,71,49,0
595.09033,595.63574,67,49,0
595.63574,595.9085,81,49,0
595.63574,595.9085,69,49,0
595.9085,596.04486,83,49,0
595.9085,596.04486,71,49,0
596.04486,596.1812,81,49,0
596.04486,596.1812,69,49,0
596.1812,596.454,79,49,0
596.1812,596.454,67,49,0
596.454,596.7267,81,49,0
596.454,596.7267,69,49,0
596.7267,597.54486,83,49,0
596.7267,597.54486,71,49,0
597.54486,597.81757,79,49,0
595.63574,597.81757,76,49,0
597.54486,597.81757,67,49,0
595.63574,597.81757,64,49,0
597.81757,598.9085,67,62,0
597.81757,598.9085,76,62,0
597.81757,598.9085,55,62,0
597.81757,598.9085,64,62,0
598.9085,600.27216,67,62,0
598.9085,600.27216,74,62,0
598.9085,600.27216,77,62,0
598.9085,600.27216,55,62,0
598.9085,600.27216,62,62,0
598.9085,600.27216,65,62,0
600.27216,600.54486,74,75,0
600.27216,600.54486,62,75,0
600.54486,600.81757,77,75,0
600.54486,600.81757,65,75,0
600.81757,601.09033,83,75,0
600.81757,601.09033,71,75,0
601.09033,601.9085,74,75,0
601.09033,601.9085,86,75,0
601.9085,602.1812,79,75,0
601.9085,602.1812,91,75,0
601.63574,602.1812,53,75,0
601.63574,602.1812,55,75,0
601.63574,602.1812,59,75,0
601.63574,602.1812,62,75,0
602.1812,603.2721,79,88,0
602.1812,603.2721,91,88,0
602.1812,603.81757,52,88,0
602.1812,603.81757,55,88,0
602.1812,603.81757,60,88,0
602.1812,603.81757,64,88,0
603.2721,604.36304,67,88,0
603.2721,604.36304,79,88,0
603.81757,604.36304,48,88,0
604.36304,604.63574,36,88,0
604.63574,604.9085,64,88,0
604.63574,604.9085,43,88,0
604.9085,605.1812,67,88,0
604.9085,605.1812,48,88,0
605.1812,605.4539,72,88,0
605.1812,605.4539,52,88,0
605.4539,605.9994,55,88,0
605.4539,606.2721,76,88,0
606.2721,606.54486,69,88,0
606.2721,606.54486,77,88,0
606.2721,606.54486,81,88,0
605.9994,606.54486,48,88,0
605.9994,606.54486,60,88,0
606.54486,607.63574,69,88,0
606.54486,607.63574,77,88,0
606.54486,607.63574,81,88,0
606.54486,607.63574,48,88,0
606.54486,607.63574,53,88,0
606.54486,607.63574,57,88,0
606.54486,607.63574,60,88,0
607.63574,608.7267,65,88,0
607.63574,608.7267,69,88,0
608.1812,608.7267,41,88,0
608.7267,608.9994,33,88,0
608.9994,609.2721,57,88,0
608.9994,609.2721,45,88,0
609.2721,609.54486,60,88,0
609.2721,609.54486,48,88,0
609.54486,609.81757,65,88,0
609.54486,609.81757,53,88,0
609.81757,610.0903,69,88,0
609.81757,610.0903,57,88,0
610.0903,610.36304,72,88,0
610.0903,610.36304,60,88,0
610.36304,610.63574,77,88,0
610.36304,610.63574,65,88,0
610.9085,611.1812,35,88,0
611.1812,611.4539,59,88,0
611.1812,611.4539,47,88,0
611.4539,611.7267,64,88,0
611.4539,611.7267,52,88,0
611.7267,611.9994,67,88,0
611.7267,611.9994,55,88,0
611.9994,612.2721,59,88,0
611.9994,612.2721,71,88,0
612.2721,612.54486,64,88,0
612.2721,612.54486,76,88,0
612.54486,612.81757,69,88,0
612.54486,612.81757,81,88,0
612.81757,613.0903,66,88,0
612.81757,613.0903,78,88,0
612.54486,613.0903,38,88,0
612.54486,613.0903,50,88,0
613.0903,613.36304,59,88,0
613.0903,613.36304,67,88,0
613.0903,613.36304,71,88,0
613.0903,613.36304,79,88,0
613.36304,613.63574,55,88,0
613.36304,613.63574,67,88,0
613.63574,613.90845,59,88,0
613.63574,613.90845,71,88,0
613.90845,614.1812,64,88,0
613.90845,614.1812,76,88,0
614.1812,614.4539,67,88,0
614.1812,614.4539,79,88,0
614.4539,614.7267,71,88,0
614.4539,614.7267,83,88,0
614.7267,614.9994,73,88,0
614.7267,614.9994,85,88,0
614.9994,615.2721,75,88,0
614.9994,615.2721,87,88,0
615.2721,615.81757,67,88,0
615.2721,615.81757,76,88,0
615.2721,615.81757,79,88,0
615.2721,615.81757,88,88,0
616.36304,618.54486,55,88,0
616.36304,618.54486,64,88,0
616.36304,618.54486,67,88,0
616.36304,618.54486,76,88,0
616.36304,618.54486,79,88,0
616.36304,618.54486,88,88,0
618.54486,618.76324,91,88,0
619.0903,619.30865,88,88,0
618.54486,619.63574,79,88,0
618.54486,619.63574,82,88,0
618.54486,619.63574,48,88,0
618.54486,619.63574,55,88,0
618.54486,619.63574,58,88,0
618.54486,619.63574,60,88,0
619.63574,619.8174,77,49,0
619.63574,619.8174,89,49,0
619.8174,619.9996,81,49,0
619.9996,620.1812,89,49,0
619.63574,620.1812,53,49,0
619.63574,620.1812,57,49,0
620.1812,620.36285,84,49,0
620.36285,620.545,81,49,0
620.545,620.7266,84,49,0
620.1812,620.7266,57,49,0
620.1812,620.7266,60,49,0
620.7266,620.90826,82,49,0
620.90826,621.09045,79,49,0
621.09045,621.2721,82,49,0
620.7266,621.2721,55,49,0
620.7266,621.2721,58,49,0
621.2721,621.45374,81,49,0
621.45374,621.6359,77,49,0
621.6359,621.81757,81,49,0
621.2721,621.81757,53,49,0
621.2721,621.81757,57,49,0
621.81757,621.9992,80,49,0
621.9992,622.1814,77,49,0
622.1814,622.36304,80,49,0
622.36304,622.5447,77,49,0
622.5447,622.7268,80,49,0
622.7268,622.90845,77,49,0
621.81757,622.90845,71,49,0
621.81757,622.90845,53,49,0
621.81757,622.90845,56,49,0
621.81757,622.90845,59,49,0
622.90845,623.0901,81,49,0
623.0901,623.2723,77,49,0
623.2723,623.4539,81,49,0
622.90845,623.4539,72,49,0
622.90845,623.4539,53,49,0
622.90845,623.4539,57,49,0
622.90845,623.4539,60,49,0
623.4539,623.63556,84,49,0
623.63556,623.81775,81,49,0
623.81775,623.9994,84,49,0
623.4539,623.9994,77,49,0
623.4539,623.9994,53,49,0
623.4539,623.9994,57,49,0
623.4539,623.9994,60,49,0
623.9994,624.181,85,49,0
624.181,624.36316,80,49,0
624.36316,624.5448,85,49,0
623.9994,624.5448,61,49,0
624.5448,624.72644,89,49,0
624.72644,624.9086,80,49,0
624.9086,625.0903,89,49,0
623.9994,625.0903,77,49,0
624.5448,625.0903,65,49,0
623.9994,625.0903,53,49,0
623.9994,625.0903,56,49,0
625.0903,625.2719,84,49,0
625.2719,625.4541,81,49,0
625.4541,625.63574,84,49,0
625.0903,625.63574,77,49,0
625.0903,625.63574,60,49,0
625.0903,625.63574,57,49,0
625.63574,625.8174,81,49,0
625.8174,625.9996,77,49,0
625.9996,626.1812,81,49,0
625.63574,626.1812,57,49,0
625.63574,626.1812,53,49,0
626.1812,626.36285,80,49,0
626.36285,626.545,77,49,0
626.545,626.7266,80,49,0
626.7266,626.90826,77,49,0
626.90826,627.09045,80,49,0
627.09045,627.2721,77,49,0
626.1812,627.2721,71,49,0
626.1812,627.2721,59,49,0
626.1812,627.2721,53,49,0
626.1812,627.2721,56,49,0
627.2721,627.45374,81,49,0
627.45374,627.6359,77,49,0
627.6359,627.81757,81,49,0
627.2721,627.81757,72,49,0
627.2721,627.81757,60,49,0
627.2721,627.81757,53,49,0
627.2721,627.81757,57,49,0
627.81757,627.9992,84,49,0
627.9992,628.1814,81,49,0
628.1814,628.36304,84,49,0
627.81757,628.36304,60,49,0
627.81757,628.36304,57,49,0
628.36304,628.5447,86,49,0
628.5447,628.7268,82,49,0
628.7268,628.90845,86,49,0
628.36304,628.90845,62,49,0
628.90845,629.0901,91,49,0
629.0901,629.2723,82,49,0
629.2723,629.4539,91,49,0
628.90845,629.4539,67,49,0
628.36304,629.4539,58,49,0
629.4539,629.63556,84,49,0
629.63556,629.81775,81,49,0
629.81775,629.9994,84,49,0
629.4539,629.9994,60,49,0
629.4539,629.9994,57,49,0
629.9994,630.181,89,49,0
630.181,630.36316,81,49,0
630.36316,630.5448,89,49,0
629.9994,630.5448,65,49,0
629.9994,630.5448,57,49,0
630.5448,630.72644,82,49,0
630.72644,630.9086,79,49,0
630.9086,631.0903,82,49,0
630.5448,631.0903,58,49,0
631.0903,631.2719,88,49,0
631.2719,631.4541,79,49,0
631.4541,631.63574,88,49,0
631.0903,631.63574,64,49,0
630.5448,631.63574,55,49,0
631.63574,631.8174,86,49,0
631.8174,631.9996,77,49,0
631.9996,632.1812,86,49,0
631.63574,632.1812,62,49,0
631.63574,632.1812,53,49,0
632.1812,632.36285,81,49,0
632.36285,632.545,77,49,0
632.545,632.7266,81,49,0
632.1812,632.7266,57,49,0
632.1812,632.7266,53,49,0
632.7266,632.90826,81,49,0
632.90826,633.09045,77,49,0
633.09045,633.2721,81,49,0
632.7266,633.2721,57,49,0
632.7266,633.2721,53,49,0
633.2721,633.45374,79,49,0
633.45374,633.6359,76,49,0
633.6359,633.81757,79,49,0
633.2721,633.81757,55,49,0
633.2721,633.81757,52,49,0
633.81757,633.9992,79,49,0
633.9992,634.18134,76,49,0
634.18134,634.363,79,49,0
633.81757,634.363,55,49,0
633.81757,634.363,52,49,0
634.363,634.5446,81,49,0
634.5446,634.7268,77,49,0
634.7268,634.90845,81,49,0
634.363,634.90845,57,49,0
634.363,634.90845,53,49,0
634.90845,635.0901,84,49,0
635.0901,635.2723,77,49,0
635.2723,635.4539,84,49,0
635.4539,635.63556,77,49,0
635.63556,635.81775,84,49,0
635.81775,635.9994,77,49,0
634.90845,635.9994,60,49,0
634.90845,635.9994,50,49,0
634.90845,635.9994,53,49,0
635.9994,636.181,82,49,0
636.181,636.36316,76,49,0
636.36316,636.5448,82,49,0
635.9994,636.5448,58,49,0
636.5448,636.72644,79,49,0
636.72644,636.9086,70,49,0
636.9086,637.0903,79,49,0
636.5448,637.0903,55,49,0
635.9994,637.0903,48,49,0
635.9994,637.0903,52,49,0
637.0903,637.2719,84,49,0
637.2719,637.4541,75,49,0
637.4541,637.63574,72,49,0
637.63574,637.8174,77,49,0
637.8174,637.9995,75,49,0
637.9995,638.18115,65,49,0
637.0903,638.18115,53,49,0
638.18115,638.3628,77,49,0
638.3628,638.545,75,49,0
638.545,638.7266,65,49,0
638.18115,638.7266,41,49,0
638.7266,638.90826,77,49,0
638.90826,639.09045,74,49,0
639.09045,639.2721,65,49,0
638.7266,639.2721,41,49,0
639.2721,639.45374,87,49,0
639.45374,639.6359,81,49,0
639.6359,639.81757,75,49,0
639.81757,639.9992,81,49,0
639.9992,640.18134,75,49,0
640.18134,640.363,69,49,0
639.2721,640.363,53,49,0
640.363,640.5446,81,49,0
640.5446,640.7268,75,49,0
640.7268,640.90845,69,49,0
640.363,640.90845,41,49,0
640.90845,641.0901,82,49,0
641.0901,641.2723,74,49,0
641.2723,641.4539,70,49,0
640.90845,641.4539,41,49,0
641.4539,641.63556,86,62,0
641.63556,641.8177,82,62,0
641.8177,641.9993,74,62,0
641.9993,642.18097,84,62,0
642.18097,642.36316,82,62,0
642.36316,642.5448,72,62,0
641.4539,642.5448,53,62,0
642.5448,642.72644,84,62,0
642.72644,642.9086,82,62,0
642.9086,643.0903,72,62,0
642.5448,643.0903,41,62,0
643.0903,643.2719,84,62,0
643.2719,643.4541,81,62,0
643.4541,643.63574,72,62,0
643.0903,643.63574,41,62,0
643.63574,643.8174,94,75,0
643.8174,643.9995,84,75,0
643.9995,644.18115,82,75,0
644.18115,644.3628,88,75,0
644.3628,644.545,82,75,0
644.545,644.7266,76,75,0
643.63574,644.7266,53,75,0
644.7266,644.90826,88,75,0
644.90826,645.09045,82,75,0
645.09045,645.2721,76,75,0
644.7266,645.2721,41,75,0
645.2721,645.45374,89,75,0
645.45374,645.6359,81,75,0
645.2721,645.81757,41,75,0
645.81757,645.9992,39,88,0
645.9992,646.18134,41,88,0
646.18134,646.363,51,88,0
646.363,646.5446,38,88,0
646.5446,646.7268,41,88,0
645.6359,646.90845,77,75,0
645.81757,646.90845,89,88,0
646.7268,646.90845,50,88,0
646.90845,647.0901,38,88,0
647.0901,647.2723,41,88,0
646.90845,647.4539,77,88,0
647.2723,647.4539,50,88,0
647.4539,647.63556,39,88,0
647.63556,647.8177,41,88,0
647.8177,647.9993,51,88,0
647.9993,648.18097,39,88,0
648.18097,648.36316,41,88,0
648.36316,648.5448,51,88,0
648.5448,648.72644,38,88,0
648.72644,648.9086,41,88,0
647.4539,649.0903,77,88,0
647.9993,649.0903,89,88,0
648.9086,649.0903,50,88,0
649.0903,649.2719,38,88,0
649.2719,649.4541,41,88,0
649.0903,649.63574,77,88,0
649.4541,649.63574,50,88,0
649.63574,649.8174,39,88,0
649.8174,649.9995,41,88,0
649.9995,650.18115,51,88,0
650.18115,650.3628,37,88,0
650.3628,650.545,41,88,0
650.545,650.7266,49,88,0
650.7266,650.90826,36,88,0
650.90826,651.09045,41,88,0
649.63574,651.2721,77,88,0
650.18115,651.2721,89,88,0
651.09045,651.2721,48,88,0
651.2721,651.45374,36,88,0
651.45374,651.63586,41,88,0
651.2721,651.8175,77,88,0
651.63586,651.8175,48,88,0
651.8175,651.99915,37,88,0
651.99915,652.18134,41,88,0
652.18134,652.363,49,88,0
652.363,652.5446,36,88,0
652.5446,652.7268,41,88,0
652.7268,652.90845,48,88,0
652.90845,653.0901,35,88,0
653.0901,653.2723,41,88,0
651.8175,653.4539,77,88,0
652.363,653.4539,89,88,0
653.2723,653.4539,47,88,0
653.4539,653.63556,35,88,0
653.63556,653.8177,41,88,0
653.4539,653.9993,77,88,0
653.8177,653.9993,47,88,0
653.9993,654.18097,36,88,0
654.18097,654.36316,41,88,0
653.9993,654.5448,77,88,0
654.36316,654.5448,48,88,0
654.5448,654.72644,90,88,0
654.72644,654.9086,81,88,0
654.9086,655.0903,78,88,0
655.0903,655.2719,89,88,0
655.2719,655.45404,80,88,0
655.45404,655.6357,77,88,0
654.5448,655.6357,47,88,0
654.5448,655.6357,59,88,0
655.6357,655.8173,89,88,0
655.8173,655.9995,80,88,0
655.9995,656.18115,77,88,0
655.6357,656.18115,35,88,0
655.6357,656.18115,47,88,0
656.18115,656.3628,90,88,0
656.3628,656.545,81,88,0
656.545,656.7266,78,88,0
656.7266,656.90826,90,88,0
656.90826,657.09045,81,88,0
657.09045,657.2721,78,88,0
657.2721,657.45374,89,88,0
657.45374,657.63586,80,88,0
657.63586,657.8175,77,88,0
656.18115,657.8175,47,88,0
656.7266,657.8175,59,88,0
657.8175,657.99915,89,88,0
657.99915,658.18134,80,88,0
658.18134,658.363,77,88,0
657.8175,658.363,35,88,0
657.8175,658.363,47,88,0
658.363,658.5446,90,88,0
658.5446,658.7268,81,88,0
658.7268,658.90845,78,88,0
658.90845,659.0901,88,88,0
659.0901,659.2722,79,88,0
659.2722,659.45386,76,88,0
659.45386,659.6355,87,88,0
659.6355,659.8177,78,88,0
659.8177,659.9993,75,88,0
658.363,659.9993,47,88,0
658.90845,659.9993,59,88,0
659.9993,660.18097,87,88,0
660.18097,660.36316,78,88,0
660.36316,660.5448,75,88,0
659.9993,660.5448,35,88,0
659.9993,660.5448,47,88,0
660.5448,660.72644,88,88,0
660.72644,660.9086,79,88,0
660.9086,661.0903,76,88,0
661.0903,661.2719,86,88,0
661.2719,661.45404,78,88,0
661.45404,661.6357,74,88,0
661.6357,661.8173,84,88,0
661.8173,661.9995,76,88,0
661.9995,662.18115,72,88,0
660.5448,662.18115,47,88,0
661.0903,662.18115,59,88,0
662.18115,662.3628,84,88,0
662.3628,662.545,76,88,0
662.545,662.7266,72,88,0
662.18115,662.7266,47,88,0
662.7266,662.90826,82,88,0
662.90826,663.0904,76,88,0
663.0904,663.27203,70,88,0
662.7266,663.27203,47,88,0
663.27203,663.5448,35,88,0
663.27203,663.8175,71,88,0
663.27203,663.8175,75,88,0
663.27203,663.8175,83,88,0
663.5448,663.8175,47,88,0
663.8175,664.0903,51,88,0
664.0903,664.363,54,88,0
664.363,665.45386,47,88,0
664.363,665.45386,57,88,0
665.7266,665.9993,59,88,0
665.45386,665.9993,55,88,0
665.9993,666.27203,63,88,0
666.27203,666.5448,66,88,0
665.9993,666.5448,54,88,0
665.45386,666.5448,47,88,0
666.5448,666.8175,35,88,0
666.8175,667.0903,47,88,0
667.0903,667.363,51,88,0
666.5448,667.6357,59,88,0
666.5448,667.6357,69,88,0
667.363,667.6357,54,88,0
667.6357,667.90845,47,88,0
667.6357,668.18115,67,88,0
667.90845,668.18115,51,88,0
668.18115,668.45386,54,88,0
668.18115,668.7266,66,88,0
668.45386,668.7266,57,88,0
668.9993,669.27203,63,88,0
668.9993,669.27203,75,88,0
669.27203,669.5448,66,88,0
669.27203,669.5448,78,88,0
669.5448,669.8175,69,88,0
669.5448,669.8175,81,88,0
668.7266,669.8175,47,88,0
668.7266,669.8175,60,88,0
669.8175,670.363,59,88,0
669.8175,670.90845,72,88,0
669.8175,670.90845,84,88,0
670.363,670.90845,57,88,0
669.8175,670.90845,47,88,0
670.90845,671.45386,71,88,0
670.90845,671.45386,83,88,0
670.90845,671.45386,55,88,0
671.45386,671.9993,69,88,0
671.45386,671.9993,75,88,0
671.45386,671.9993,54,88,0
670.90845,671.9993,47,88,0
672.27203,672.5448,71,88,0
672.27203,672.5448,47,88,0
672.5448,673.363,64,88,0
672.5448,673.363,67,88,0
672.5448,673.363,76,88,0
672.5448,673.363,40,88,0
673.363,673.6357,71,88,0
673.363,673.6357,59,88,0
673.6357,673.90845,67,88,0
673.6357,673.90845,76,88,0
673.6357,673.90845,52,88,0
673.90845,674.18115,71,88,0
673.90845,674.18115,79,88,0
673.90845,674.18115,47,88,0
674.18115,674.9993,67,88,0
674.18115,674.9993,76,88,0
674.18115,674.9993,40,88,0
674.9993,675.27203,71,88,0
674.9993,675.27203,59,88,0
675.27203,675.5448,67,88,0
675.27203,675.5448,76,88,0
675.27203,675.5448,52,88,0
675.5448,675.8175,71,88,0
675.5448,675.8175,79,88,0
675.5448,675.8175,47,88,0
675.8175,676.0902,67,88,0
675.8175,676.0902,76,88,0
675.8175,676.0902,40,88,0
676.0902,676.363,71,88,0
676.0902,676.363,59,88,0
676.363,676.6357,67,88,0
676.363,676.6357,76,88,0
676.363,676.6357,52,88,0
676.6357,676.9084,71,88,0
676.6357,676.9084,79,88,0
676.6357,676.9084,47,88,0
676.9084,677.7266,71,88,0
676.9084,677.7266,79,88,0
676.9084,677.7266,83,88,0
676.9084,677.7266,40,88,0
676.9084,677.7266,52,88,0
677.7266,677.9993,69,88,0
677.7266,677.9993,78,88,0
677.7266,677.9993,81,88,0
677.7266,677.9993,39,88,0
677.7266,677.9993,51,88,0
677.9993,678.8175,69,88,0
677.9993,678.8175,78,88,0
677.9993,678.8175,81,88,0
677.9993,678.8175,39,88,0
677.9993,678.8175,51,88,0
678.8175,679.0902,68,88,0
678.8175,679.0902,76,88,0
678.8175,679.0902,80,88,0
678.8175,679.0902,38,88,0
678.8175,679.0902,50,88,0
679.0902,679.9084,68,88,0
679.0902,679.9084,76,88,0
679.0902,679.9084,80,88,0
679.0902,679.9084,38,88,0
679.0902,679.9084,50,88,0
679.9084,680.18115,69,88,0
679.9084,680.18115,76,88,0
679.9084,680.18115,81,88,0
679.9084,680.18115,37,88,0
679.9084,680.18115,49,88,0
680.18115,680.72656,69,88,0
680.18115,680.72656,76,88,0
680.18115,680.72656,81,88,0
680.18115,680.72656,37,88,0
680.18115,680.72656,49,88,0
680.72656,680.9993,36,88,0
680.72656,680.9993,36,88,0
680.9993,681.27203,40,88,0
680.72656,681.5448,69,88,0
680.72656,681.5448,81,88,0
681.27203,681.5448,48,88,0
681.5448,681.8175,71,88,0
681.5448,681.8175,83,88,0
681.5448,681.8175,35,88,0
681.5448,681.8175,35,88,0
681.5448,681.8175,47,88,0
681.8175,682.363,72,88,0
681.8175,682.363,84,88,0
681.8175,682.363,33,88,0
681.8175,682.363,45,88,0
682.363,682.6357,71,88,0
682.363,682.6357,83,88,0
682.363,682.6357,35,88,0
682.363,682.6357,47,88,0
682.6357,682.9084,69,88,0
682.6357,682.9084,81,88,0
682.6357,682.9084,36,88,0
682.6357,682.9084,48,88,0
681.8175,682.9084,40,88,0
682.9084,683.18115,36,88,0
682.9084,683.18115,36,88,0
683.18115,683.45386,40,88,0
682.9084,683.72656,69,88,0
682.9084,683.72656,81,88,0
683.45386,683.72656,48,88,0
683.72656,683.9993,71,88,0
683.72656,683.9993,83,88,0
683.72656,683.9993,35,88,0
683.72656,683.9993,35,88,0
683.72656,683.9993,47,88,0
683.9993,684.27203,74,88,0
683.9993,684.27203,86,88,0
684.27203,684.5448,72,88,0
684.27203,684.5448,84,88,0
683.9993,684.5448,33,88,0
683.9993,684.5448,45,88,0
684.5448,684.8175,71,88,0
684.5448,684.8175,83,88,0
684.5448,684.8175,35,88,0
684.5448,684.8175,47,88,0
684.8175,685.0902,69,88,0
684.8175,685.0902,81,88,0
684.8175,685.0902,36,88,0
684.8175,685.0902,48,88,0
683.9993,685.0902,40,88,0
685.363,685.6357,49,88,0
685.363,685.6357,61,88,0
685.0902,685.9084,70,88,0
685.0902,685.9084,82,88,0
685.9084,686.18115,78,88,0
685.6357,686.45386,54,88,0
686.45386,686.72656,47,88,0
686.45386,686.72656,59,88,0
686.18115,686.9993,71,88,0
686.18115,686.9993,83,88,0
686.9993,687.27203,78,88,0
686.72656,687.54474,54,88,0
687.27203,688.0902,70,88,0
687.27203,688.0902,73,88,0
687.27203,688.0902,82,88,0
688.0902,688.363,78,88,0
687.54474,688.6357,42,88,0
687.8175,688.6357,54,88,0
688.363,689.18115,75,88,0
688.363,689.18115,83,88,0
688.363,689.18115,87,88,0
688.6357,689.45386,35,88,0
688.9084,689.45386,47,88,0
690.27203,690.54474,35,49,0
690.54474,691.9084,36,49,0
691.9084,692.18115,35,49,0
692.18115,692.45386,36,49,0
692.45386,692.72656,38,49,0
692.72656,693.8175,36,49,0
693.8175,694.0902,36,49,0
694.0902,694.3629,35,49,0
694.3629,694.6357,36,49,0
694.6357,694.9084,38,49,0
694.9084,695.72656,36,49,0
695.72656,695.9993,35,49,0
695.72656,695.9993,47,49,0
695.9993,696.27203,36,49,0
695.9993,696.27203,48,49,0
696.27203,696.54474,38,49,0
696.27203,696.54474,50,49,0
696.54474,696.8175,36,49,0
696.54474,696.8175,48,49,0
696.8175,697.0902,35,49,0
696.8175,697.0902,47,49,0
697.0902,697.3629,36,49,0
697.0902,697.3629,48,49,0
697.3629,697.6357,38,49,0
697.3629,697.6357,50,49,0
697.6357,697.9084,36,49,0
697.6357,697.9084,48,49,0
697.9084,698.1811,34,49,0
697.9084,698.1811,46,49,0
698.1811,698.45386,35,49,0
698.1811,698.45386,47,49,0
698.45386,698.72656,36,49,0
698.45386,698.72656,48,49,0
698.1811,699.27203,52,49,0
698.1811,699.27203,55,49,0
698.72656,699.54474,35,49,0
698.72656,699.54474,47,49,0
699.54474,699.8175,33,49,0
699.54474,699.8175,45,49,0
699.27203,700.3629,51,49,0
699.27203,700.3629,54,49,0
699.8175,700.6357,33,49,0
699.8175,700.6357,45,49,0
700.6357,700.9084,32,49,0
700.6357,700.9084,44,49,0
700.3629,701.45386,52,49,0
700.9084,701.72656,32,49,0
700.9084,701.72656,44,49,0
701.72656,701.99927,31,49,0
701.72656,701.99927,43,49,0
701.45386,702.54474,52,49,0
701.99927,702.54474,31,49,0
701.99927,702.54474,43,49,0
702.8175,703.0902,30,36,0
702.8175,703.0902,42,36,0
703.0902,703.3629,33,36,0
703.0902,703.3629,45,36,0
702.54474,703.6357,40,36,0
702.54474,703.6357,52,36,0
703.3629,703.6357,31,36,0
703.3629,703.6357,43,36,0
703.6357,704.1811,30,36,0
703.6357,704.1811,42,36,0
704.1811,704.45386,31,36,0
704.1811,704.45386,43,36,0
703.6357,704.72656,40,36,0
703.6357,704.72656,52,36,0
704.45386,704.72656,33,36,0
704.45386,704.72656,45,36,0
704.99927,705.27203,30,36,0
704.99927,705.27203,42,36,0
705.27203,705.54474,33,36,0
705.27203,705.54474,45,36,0
704.72656,705.8175,40,36,0
704.72656,705.8175,52,36,0
705.54474,705.8175,31,36,0
705.54474,705.8175,43,36,0
705.8175,706.3629,30,36,0
705.8175,706.3629,42,36,0
706.3629,706.6357,31,36,0
706.3629,706.6357,43,36,0
705.8175,706.9084,40,36,0
705.8175,706.9084,52,36,0
706.6357,706.9084,33,36,0
706.6357,706.9084,45,36,0
707.1811,707.45386,34,36,0
707.1811,707.45386,46,36,0
706.9084,707.99927,40,36,0
706.9084,707.99927,52,36,0
707.45386,707.99927,34,36,0
707.45386,707.99927,46,36,0
708.27203,708.54474,35,36,0
708.27203,708.54474,47,36,0
707.99927,709.0902,40,36,0
707.99927,709.0902,52,36,0
708.54474,709.0902,35,36,0
708.54474,709.0902,47,36,0
709.3629,709.6357,36,36,0
709.3629,709.6357,48,36,0
709.0902,710.1811,40,36,0
709.0902,710.1811,52,36,0
709.6357,710.1811,36,36,0
709.6357,710.1811,48,36,0
710.45386,710.72656,34,36,0
710.45386,710.72656,46,36,0
710.1811,711.27203,40,36,0
710.1811,711.27203,52,36,0
710.72656,711.27203,34,36,0
710.72656,711.27203,46,36,0
711.27203,712.0902,35,36,0
711.27203,712.0902,47,36,0
713.45386,713.99927,57,36,0
713.45386,713.99927,63,36,0
713.45386,713.99927,35,36,0
713.45386,713.99927,42,36,0
715.0902,715.6356,59,36,0
715.0902,715.6356,35,36,0
715.6356,716.1811,52,36,0
715.6356,716.1811,28,36,0
715.6356,716.1811,40,36,0
716.1811,716.72656,59,36,0
716.1811,716.72656,71,36,0
716.1811,716.72656,35,36,0
716.72656,717.27203,64,36,0
716.72656,717.27203,28,36,0
716.72656,717.27203,40,36,0
717.27203,717.81744,71,36,0
717.27203,717.81744,83,36,0
717.27203,717.81744,35,36,0
717.81744,718.3629,76,36,0
717.81744,718.3629,80,36,0
717.81744,718.3629,88,36,0
717.81744,718.3629,28,36,0
717.81744,718.3629,40,36,0
718.3629,718.9084,75,36,0
718.3629,718.9084,83,36,0
718.3629,718.9084,87,36,0
718.3629,718.9084,35,36,0
718.9084,719.4538,73,36,0
718.9084,719.4538,81,36,0
718.9084,719.4538,85,36,0
718.9084,719.4538,28,36,0
718.9084,719.4538,40,36,0
719.4538,719.99927,71,36,0
719.4538,719.99927,80,36,0
719.4538,719.99927,83,36,0
719.4538,719.99927,35,36,0
719.99927,720.54474,69,36,0
719.99927,720.54474,78,36,0
719.99927,720.54474,81,36,0
719.99927,720.54474,28,36,0
719.99927,720.54474,40,36,0
720.54474,720.81744,71,36,0
720.54474,720.81744,80,36,0
720.54474,720.81744,83,36,0
720.81744,721.0902,66,36,0
720.81744,721.0902,75,36,0
720.81744,721.0902,78,36,0
720.54474,721.0902,35,36,0
721.0902,721.6356,69,36,0
721.0902,721.6356,78,36,0
721.0902,721.6356,81,36,0
721.0902,721.6356,28,36,0
721.0902,721.6356,40,36,0
721.6356,722.1811,68,36,0
721.6356,722.1811,76,36,0
721.6356,722.1811,80,36,0
721.6356,722.1811,35,36,0
722.1811,722.72656,66,36,0
722.1811,722.72656,69,36,0
722.1811,722.72656,78,36,0
722.1811,722.72656,28,36,0
722.1811,722.72656,40,36,0
722.72656,722.99927,71,36,0
722.72656,722.99927,80,36,0
722.99927,723.27203,66,36,0
722.99927,723.27203,75,36,0
722.72656,723.27203,35,36,0
723.27203,723.81744,69,36,0
723.27203,723.81744,78,36,0
723.27203,723.81744,28,36,0
723.27203,723.81744,40,36,0
723.81744,724.3629,68,36,0
723.81744,724.3629,76,36,0
723.81744,724.3629,35,36,0
724.3629,724.9084,66,36,0
724.3629,724.9084,69,36,0
724.3629,724.9084,28,36,0
724.3629,724.9084,40,36,0
724.9084,725.4538,64,36,0
724.9084,725.4538,68,36,0
724.9084,725.4538,35,36,0
725.4538,725.99927,28,36,0
725.4538,725.99927,40,36,0
725.4538,726.54474,59,36,0
725.4538,726.54474,66,36,0
725.99927,726.54474,47,36,0
726.54474,727.0902,71,36,0
726.54474,727.0902,83,36,0
726.54474,727.0902,40,36,0
727.0902,727.6356,64,36,0
727.0902,727.6356,76,36,0
727.0902,727.6356,45,36,0
727.6356,728.1811,69,36,0
727.6356,728.1811,81,36,0
727.6356,728.1811,40,36,0
728.1811,728.72656,64,36,0
728.1811,728.72656,76,36,0
728.1811,728.72656,43,36,0
728.72656,729.272,67,36,0
728.72656,729.272,79,36,0
728.72656,729.272,40,36,0
729.272,729.81744,64,36,0
729.272,729.81744,76,36,0
729.272,729.81744,47,36,0
729.81744,730.3629,71,36,0
729.81744,730.3629,83,36,0
729.81744,730.3629,35,36,0
730.3629,730.9084,71,36,0
730.3629,730.9084,47,36,0
730.9084,731.4538,71,36,0
730.9084,731.4538,35,36,0
731.4538,731.72656,73,36,0
731.72656,731.99927,69,36,0
730.9084,731.99927,59,36,0
731.4538,731.99927,47,36,0
731.99927,732.54474,73,36,0
731.99927,732.54474,35,36,0
732.54474,733.09015,71,36,0
731.99927,733.09015,59,36,0
732.54474,733.09015,47,36,0
733.09015,733.6356,69,36,0
733.09015,733.6356,35,36,0
733.6356,734.1811,68,36,0
733.09015,734.1811,59,36,0
733.6356,734.1811,47,36,0
734.1811,734.72656,35,36,0
734.1811,735.272,66,36,0
734.1811,735.272,59,36,0
734.72656,735.272,47,36,0
735.272,735.81744,68,23,0
735.272,735.81744,35,23,0
735.81744,736.3629,66,23,0
735.272,736.3629,59,23,0
735.81744,736.3629,47,23,0
736.3629,736.9083,35,23,0
736.3629,737.4538,64,23,0
736.3629,737.4538,59,23,0
736.9083,737.4538,47,23,0
737.4538,737.99927,66,23,0
737.4538,737.99927,35,23,0
737.99927,738.54474,64,23,0
737.4538,738.54474,59,23,0
737.99927,738.54474,47,23,0
738.54474,739.09015,35,23,0
738.54474,739.6356,59,23,0
738.54474,739.6356,59,23,0
739.09015,739.6356,47,23,0
739.6356,740.1811,64,23,0
739.6356,740.1811,35,23,0
740.1811,740.72656,59,23,0
740.1811,740.72656,59,23,0
740.1811,740.72656,47,23,0
740.72656,741.272,35,23,0
740.72656,741.81744,56,23,0
741.272,741.81744,47,23,0
741.81744,742.3629,57,23,0
741.81744,742.3629,35,23,0
742.3629,742.9083,56,23,0
741.81744,742.9083,59,23,0
742.3629,742.9083,47,23,0
742.9083,743.4538,35,23,0
743.4538,743.99927,47,23,0
742.9083,744.54474,54,23,0
742.9083,744.54474,59,23,0
743.99927,744.54474,35,23,0
744.54474,745.09015,57,23,0
744.54474,745.09015,47,23,0
745.09015,745.6356,56,23,0
744.54474,745.6356,59,23,0
745.09015,745.6356,35,23,0
745.6356,746.1811,54,23,0
745.6356,746.1811,59,23,0
745.6356,746.1811,47,23,0
746.1811,746.7265,40,49,0
746.1811,747.272,64,49,0
746.1811,747.272,68,49,0
746.1811,747.272,71,49,0
746.1811,747.272,76,49,0
747.272,748.09015,76,36,0
747.272,748.09015,80,36,0
748.09015,748.3629,83,36,0
747.272,748.3629,64,36,0
747.272,748.3629,68,36,0
747.272,748.3629,71,36,0
748.3629,749.4538,76,49,0
748.3629,749.4538,79,49,0
748.3629,749.4538,82,49,0
748.3629,749.4538,84,49,0
748.3629,749.4538,64,49,0
748.3629,749.4538,67,49,0
748.3629,749.4538,70,49,0
748.3629,749.4538,72,49,0
749.4538,750.272,76,49,0
749.4538,750.272,80,49,0
749.4538,750.272,83,49,0
749.4538,750.272,64,49,0
749.4538,750.272,68,49,0
749.4538,750.272,71,49,0
750.272,750.5447,71,49,0
750.5447,751.6356,64,49,0
750.5447,751.6356,67,49,0
750.5447,751.6356,72,49,0
750.5447,751.6356,52,49,0
750.5447,751.6356,55,49,0
750.5447,751.6356,58,49,0
751.6356,752.1811,52,49,0
751.6356,752.1811,56,49,0
751.6356,752.1811,59,49,0
751.6356,752.7265,64,49,0
751.6356,752.7265,68,49,0
751.6356,752.7265,71,49,0
752.1811,752.7265,40,49,0
752.7265,753.272,28,49,0
752.7265,753.81744,48,49,0
752.7265,753.81744,55,49,0
752.7265,753.81744,58,49,0
753.272,753.81744,40,49,0
753.81744,754.36285,29,49,0
753.81744,754.9083,48,49,0
753.81744,754.9083,53,49,0
753.81744,754.9083,57,49,0
754.36285,754.9083,41,49,0
754.9083,755.4538,30,49,0
754.9083,755.99927,47,49,0
754.9083,755.99927,51,49,0
754.9083,755.99927,57,49,0
755.4538,755.99927,42,49,0
755.99927,756.5447,32,49,0
755.99927,757.09015,47,49,0
755.99927,757.09015,52,49,0
755.99927,757.09015,56,49,0
756.5447,757.09015,44,49,0
757.09015,757.6356,33,49,0
757.09015,758.181,52,49,0
757.6356,758.181,45,49,0
758.181,758.7265,35,49,0
757.09015,759.272,54,49,0
758.7265,759.272,47,49,0
759.272,759.81744,36,49,0
758.181,760.36285,51,49,0
759.272,760.36285,54,49,0
759.81744,760.36285,48,49,0
760.36285,760.9083,37,49,0
760.36285,761.4538,52,49,0
760.9083,761.4538,49,49,0
761.4538,761.99927,33,49,0
761.99927,762.5447,45,49,0
762.5447,763.09015,33,49,0
761.4538,763.6356,52,49,0
761.4538,763.6356,54,49,0
763.09015,763.6356,45,49,0
763.6356,764.181,35,49,0
764.181,764.7265,47,49,0
764.7265,765.272,35,49,0
763.6356,765.81744,51,49,0
763.6356,765.81744,54,49,0
765.272,765.81744,47,49,0
766.36285,766.9083,76,49,0
766.36285,766.9083,80,49,0
765.81744,766.9083,40,49,0
765.81744,766.9083,52,49,0
766.9083,767.4538,64,49,0
766.9083,767.4538,68,49,0
766.9083,767.7265,44,49,0
766.9083,767.7265,56,49,0
767.4538,767.9992,76,49,0
767.4538,767.9992,80,49,0
767.7265,767.9992,47,49,0
767.7265,767.9992,59,49,0
767.9992,768.5447,64,49,0
767.9992,768.5447,67,49,0
768.5447,769.09015,76,49,0
768.5447,769.09015,79,49,0
767.9992,769.09015,48,49,0
767.9992,769.09015,60,49,0
769.09015,769.6356,64,49,0
769.09015,769.6356,68,49,0
769.09015,769.9083,47,49,0
769.09015,769.9083,59,49,0
769.6356,770.181,76,49,0
769.6356,770.181,80,49,0
769.9083,770.181,59,49,0
769.9083,770.181,71,49,0
770.181,770.7265,67,49,0
770.181,770.7265,70,49,0
770.7265,771.272,76,49,0
770.7265,771.272,79,49,0
770.181,771.272,60,49,0
770.181,771.272,72,49,0
771.272,771.8174,68,49,0
771.272,771.8174,71,49,0
771.272,771.8174,71,49,0
771.272,772.09015,59,49,0
771.8174,772.36285,76,49,0
771.8174,772.36285,80,49,0
772.09015,772.36285,47,49,0
772.36285,772.9083,55,49,0
772.36285,772.9083,58,49,0
772.9083,773.4538,67,49,0
772.9083,773.4538,70,49,0
773.4538,773.9992,53,49,0
773.4538,773.9992,57,49,0
773.9992,774.5447,65,49,0
773.9992,774.5447,69,49,0
772.36285,774.5447,36,49,0
772.36285,774.5447,48,49,0
774.5447,775.09015,54,49,0
774.5447,775.09015,57,49,0
775.09015,775.63556,66,49,0
775.09015,775.63556,69,49,0
775.63556,776.181,52,49,0
775.63556,776.181,56,49,0
776.181,776.7265,64,49,0
776.181,776.7265,68,49,0
774.5447,776.7265,35,49,0
774.5447,776.7265,47,49,0
776.7265,777.272,52,49,0
776.7265,777.272,54,49,0
777.272,777.8174,64,49,0
777.272,777.8174,66,49,0
777.8174,778.36285,51,49,0
777.8174,778.36285,54,49,0
778.36285,778.9083,63,49,0
778.36285,778.9083,66,49,0
776.7265,778.9083,33,49,0
776.7265,778.9083,45,49,0
778.9083,779.4538,51,49,0
778.9083,779.4538,54,49,0
779.4538,779.9992,63,49,0
779.4538,779.9992,66,49,0
779.9992,780.5447,47,49,0
779.9992,780.5447,52,49,0
780.5447,781.09015,59,49,0
780.5447,781.09015,64,49,0
778.9083,781.09015,32,49,0
778.9083,781.09015,44,49,0
781.09015,781.63556,33,49,0
781.63556,782.181,45,49,0
782.181,782.7265,33,49,0
781.09015,783.272,52,49,0
781.09015,783.272,54,49,0
782.7265,783.272,45,49,0
783.272,783.8174,35,49,0
783.272,784.36285,59,49,0
783.8174,784.36285,47,49,0
784.36285,784.9083,35,49,0
784.36285,785.45374,66,49,0
783.272,785.45374,51,49,0
784.9083,785.45374,47,49,0
785.45374,785.9992,28,62,0
785.45374,786.5447,52,62,0
785.45374,786.5447,64,62,0
785.9992,786.5447,40,62,0
786.5447,787.09015,28,62,0
786.5447,787.63556,56,62,0
786.5447,787.63556,62,62,0
787.09015,787.63556,40,62,0
787.63556,788.181,33,62,0
787.63556,788.7265,57,62,0
787.63556,788.7265,61,62,0
788.181,788.7265,45,62,0
788.7265,789.2719,33,62,0
788.7265,789.8174,64,62,0
788.7265,789.8174,76,62,0
789.2719,789.8174,45,62,0
789.8174,790.36285,34,75,0
789.8174,790.9083,63,75,0
789.8174,790.9083,75,75,0
790.36285,790.9083,46,75,0
790.9083,791.45374,34,75,0
790.9083,791.9992,61,75,0
790.9083,791.9992,73,75,0
791.45374,791.9992,46,75,0
791.9992,792.5447,35,75,0
791.9992,793.0901,59,75,0
791.9992,793.0901,71,75,0
792.5447,793.0901,47,75,0
793.0901,793.63556,37,75,0
793.0901,794.181,58,75,0
793.0901,794.181,70,75,0
793.63556,794.181,49,75,0
794.181,794.7265,39,75,0
794.181,795.2719,57,75,0
794.181,795.2719,69,75,0
794.7265,795.2719,51,75,0
795.2719,795.8174,40,75,0
795.2719,796.36285,56,75,0
795.2719,796.36285,68,75,0
795.8174,796.36285,52,75,0
796.36285,796.90826,36,62,0
796.36285,797.45374,55,62,0
796.36285,797.45374,67,62,0
796.90826,797.45374,48,62,0
797.45374,797.9992,56,62,0
797.45374,797.9992,68,62,0
797.45374,797.9992,35,62,0
797.9992,798.5447,59,62,0
797.9992,798.5447,47,62,0
798.5447,799.0901,57,49,0
798.5447,799.0901,35,49,0
799.0901,799.63556,56,49,0
799.0901,799.63556,47,49,0
799.63556,800.181,35,49,0
800.181,800.7265,47,49,0
799.63556,801.2719,54,49,0
799.63556,801.2719,59,49,0
800.7265,801.2719,35,49,0
801.2719,801.8174,57,49,0
801.2719,801.8174,47,49,0
801.8174,802.36285,56,49,0
801.2719,802.36285,59,49,0
801.8174,802.36285,35,49,0
802.36285,802.90826,54,49,0
802.36285,802.90826,59,49,0
802.36285,802.90826,47,49,0
802.90826,803.45374,28,36,0
803.45374,803.9992,40,36,0
803.9992,804.5447,28,36,0
802.90826,805.0901,52,36,0
802.90826,805.0901,59,36,0
804.5447,805.0901,40,36,0
805.0901,805.63556,28,36,0
805.63556,806.181,40,36,0
806.181,806.72644,28,36,0
805.0901,807.2719,52,36,0
805.0901,807.2719,59,36,0
807.2719,811.63556,52,36,0
807.2719,811.63556,59,36,0
807.2719,811.63556,28,36,0
806.72644,811.63556,40,36,0
