start_time,end_time,note_value,velocity,instrument_program_number
1.5,1.9,52,71,42
2.0,2.6,57,71,42
2.75,2.95,59,71,42
3.0,3.2,60,71,42
3.25,3.45,57,71,42
3.5,3.9,56,71,42
4.0,4.4,64,71,42
4.5,4.9,64,71,42
5.0,5.6,57,71,42
5.75,5.95,59,71,42
6.0,6.2,60,71,42
6.25,6.485417,57,71,42
6.5,6.9,59,71,42
7.0,7.4,65,71,42
7.5,7.9,65,71,42
8.0,8.6,60,71,42
8.75,8.95,62,71,42
9.0,9.2,64,71,42
9.25,9.45,67,71,42
9.5,10.1,67,71,42
10.25,10.45,66,71,42
10.5,10.7,67,71,42
10.75,10.95,64,71,42
11.0,11.6,62,71,42
11.75,11.95,60,71,42
12.0,12.2,62,71,42
12.25,12.45,59,71,42
12.5,12.7,57,71,42
12.75,12.95,59,71,42
13.0,13.4,55,71,42
13.5,13.9,53,71,42
14.0,14.8,52,71,42
15.0,15.2,60,71,42
15.25,15.45,59,71,42
15.5,15.7,57,71,42
15.75,15.95,59,71,42
16.0,16.4,55,71,42
16.5,16.9,53,71,42
17.0,17.8,52,71,42
18.0,18.2,41,71,42
18.25,18.45,40,71,42
18.5,19.3,40,71,42
19.5,19.7,41,71,42
19.75,19.95,40,71,42
20.0,20.8,40,71,42
21.0,21.2,65,71,42
21.25,21.45,64,71,42
21.5,21.7,62,71,42
21.75,21.95,64,71,42
22.0,22.4,60,71,42
22.5,22.9,59,71,42
23.0,23.2,57,71,42
23.25,23.45,53,71,42
23.5,23.7,52,71,42
23.75,23.95,48,71,42
24.0,24.4,45,71,42
24.5,24.7,59,71,42
24.75,24.95,53,71,42
25.0,25.2,52,71,42
25.25,25.45,47,71,42
25.5,25.9,40,71,42
26.0,26.2,57,71,42
26.25,26.45,53,71,42
26.5,26.7,52,71,42
26.75,26.95,48,71,42
27.0,27.4,45,71,42
27.5,27.7,62,71,42
27.75,27.95,56,71,42
28.0,28.2,55,71,42
28.25,28.45,50,71,42
28.5,28.9,43,71,42
29.0,29.2,60,71,42
29.25,29.45,57,71,42
29.5,29.7,55,71,42
29.75,29.95,52,71,42
30.0,30.4,48,71,42
30.5,30.7,64,71,42
30.75,30.95,59,71,42
31.0,31.4,60,71,42
31.5,31.9,59,71,42
32.0,32.2,59,71,42
32.25,32.45,54,71,42
32.5,32.9,55,71,42
33.0,33.4,54,71,42
33.5,33.9,54,71,42
34.0,34.4,55,71,42
34.5,34.9,57,71,42
35.0,35.4,60,71,42
35.5,35.9,59,71,42
36.0,36.4,52,71,42
36.5,36.9,54,71,42
37.0,37.4,55,71,42
37.5,37.9,57,71,42
38.0,38.4,60,71,42
38.5,38.9,59,71,42
39.0,39.4,57,71,42
39.5,39.9,60,71,42
40.0,40.4,59,71,42
40.5,40.9,57,71,42
41.0,41.4,60,71,42
41.5,41.9,59,71,42
43.5,43.9,52,71,42
44.0,44.6,55,71,42
44.75,44.95,57,71,42
45.0,45.2,58,71,42
45.25,45.45,55,71,42
45.5,45.9,55,71,42
46.0,46.4,54,71,42
46.5,46.9,54,71,42
47.0,47.6,53,71,42
47.75,47.95,55,71,42
48.0,48.2,56,71,42
48.25,48.45,53,71,42
48.5,48.9,53,71,42
49.0,49.4,52,71,42
49.5,49.9,52,71,42
50.0,50.6,51,71,42
50.75,50.95,55,71,42
51.0,51.2,60,71,42
51.25,51.45,63,71,42
51.5,51.9,67,71,42
52.0,52.4,62,71,42
52.5,52.9,62,71,42
53.0,53.2,39,71,42
53.25,53.45,43,71,42
53.5,53.7,48,71,42
53.75,53.95,51,71,42
54.0,54.2,55,71,42
54.25,54.45,63,71,42
54.5,54.9,67,71,42
55.0,55.4,62,71,42
55.5,55.9,62,71,42
57.0,57.4,67,71,42
57.5,57.9,66,71,42
58.0,58.4,65,71,42
58.5,58.9,64,71,42
59.0,59.05,63,71,42
59.0625,59.1125,65,71,42
59.125,59.7,63,71,42
59.75,59.95,62,71,42
60.0,60.4,63,71,42
60.5,60.9,62,71,42
61.0,61.4,55,71,42
61.5,61.9,55,71,42
62.0,62.8,55,71,42
63.0,63.4,72,71,42
63.5,63.9,71,71,42
64.0,64.4,70,71,42
64.5,64.9,69,71,42
65.0,65.05,68,71,42
65.0625,65.1125,70,71,42
65.125,65.7,68,71,42
65.75,65.95,67,71,42
66.0,66.4,68,71,42
66.5,66.9,67,71,42
67.0,67.4,60,71,42
67.5,67.9,56,71,42
68.0,68.8,55,71,42
69.0,69.4,43,71,42
69.5,69.7,43,71,42
69.75,69.95,45,71,42
70.0,70.4,41,71,42
70.5,70.9,40,71,42
71.0,71.8,38,71,42
72.0,72.4,50,71,42
72.5,72.7,48,71,42
72.75,72.95,50,71,42
73.0,73.4,46,71,42
73.5,73.9,45,71,42
74.0,74.8,43,81,42
75.0,75.4,55,81,42
75.5,76.3,41,81,42
76.5,76.9,53,81,42
77.0,77.8,40,81,42
78.0,78.4,52,81,42
78.5,79.3,42,91,42
79.5,79.9,54,91,42
80.0,80.8,43,91,42
81.0,81.4,41,91,42
81.5,82.3,40,91,42
82.5,82.9,42,91,42
83.0,83.4,43,104,42
83.5,83.9,41,104,42
84.0,84.4,40,104,42
84.5,84.9,43,104,42
85.0,85.4,41,104,42
85.5,85.9,40,104,42
86.0,86.4,40,104,42
88.5,88.9,52,104,42
89.0,89.6,57,71,42
89.75,89.95,59,71,42
90.0,90.2,60,71,42
90.25,90.45,57,71,42
90.5,90.9,56,71,42
91.0,91.4,64,71,42
91.5,91.9,64,71,42
92.0,92.6,57,71,42
92.75,92.95,59,71,42
93.0,93.2,60,71,42
93.25,93.45,57,71,42
93.5,93.9,59,71,42
94.0,94.4,65,71,42
94.5,94.9,65,71,42
95.0,95.6,60,71,42
95.75,95.95,62,71,42
96.0,96.2,64,71,42
96.25,96.45,67,71,42
96.5,97.1,67,71,42
97.25,97.45,66,71,42
97.5,97.7,67,71,42
97.75,97.95,60,71,42
98.0,98.6,67,91,42
98.75,98.95,66,91,42
99.0,99.2,67,91,42
99.25,99.45,61,91,42
99.5,99.7,62,81,42
99.75,99.95,64,81,42
100.0,100.4,60,81,42
100.5,100.9,59,81,42
101.0,101.8,57,81,42
102.0,102.2,67,81,42
102.25,102.45,65,81,42
102.5,102.7,64,81,42
102.75,102.95,65,81,42
103.0,103.4,60,71,42
103.5,103.9,59,71,42
104.0,104.4,57,71,42
104.5,104.7,69,104,42
104.75,104.95,67,91,42
105.0,105.2,65,81,42
105.25,105.45,64,81,42
105.5,105.7,62,81,42
105.75,105.95,64,81,42
106.0,106.4,61,81,42
106.5,106.7,60,58,42
106.75,106.95,62,58,42
107.0,107.4,59,58,42
107.5,107.7,58,58,42
107.75,107.95,62,58,42
108.0,108.4,57,58,42
108.5,108.9,53,58,42
109.5,109.9,52,71,42
110.5,110.9,56,71,42
110.5,110.9,40,71,42
110.5,110.9,47,71,42
111.5,111.9,45,71,42
111.5,111.9,57,71,42
111.5,111.9,52,71,42
112.5,112.9,56,71,42
112.5,112.9,47,71,42
112.5,112.9,40,71,42
113.0,113.4,52,71,42
113.0,113.4,57,71,42
113.0,113.4,45,71,42
117.0,117.2,62,71,42
117.25,117.45,61,71,42
117.5,117.7,60,71,42
117.75,117.95,61,71,42
118.0,118.2,59,71,42
118.25,118.45,57,71,42
118.5,118.7,56,71,42
118.75,118.95,54,71,42
119.0,119.2,52,71,42
119.25,119.45,53,71,42
119.5,119.7,56,71,42
119.75,119.95,59,71,42
120.0,120.2,64,71,42
120.25,120.45,62,71,42
120.5,120.7,61,71,42
120.75,120.95,62,71,42
121.0,121.2,61,71,42
121.25,121.45,59,71,42
121.5,121.7,57,71,42
121.75,121.95,56,71,42
122.0,122.2,53,71,42
122.25,122.45,54,71,42
122.5,122.7,57,71,42
122.75,122.95,61,71,42
123.0,123.2,68,71,42
123.25,123.45,66,71,42
123.5,123.7,65,71,42
123.75,123.95,66,71,42
124.0,124.2,68,71,42
124.25,124.45,66,71,42
124.5,124.7,65,71,42
124.75,124.95,66,71,42
125.0,125.2,68,71,42
125.25,125.45,66,71,42
125.5,125.7,65,71,42
125.75,125.95,66,71,42
126.0,126.2,68,71,42
126.25,126.45,66,71,42
126.5,126.7,65,91,42
126.75,126.95,66,91,42
127.0,127.2,65,91,42
127.25,127.45,63,91,42
127.5,127.7,61,91,42
127.75,127.95,59,91,42
128.0,128.2,57,91,42
128.25,128.45,58,91,42
128.5,128.7,60,91,42
128.75,128.95,61,91,42
129.0,129.2,59,91,42
129.25,129.45,56,91,42
129.5,129.7,53,71,42
129.75,129.95,54,71,42
130.0,130.2,56,71,42
130.25,130.45,57,71,42
130.5,130.7,62,71,42
130.75,130.95,61,71,42
131.0,131.2,60,71,42
131.25,131.45,61,71,42
132.0,132.2,62,71,42
132.25,132.45,61,71,42
132.5,132.7,60,71,42
132.75,132.95,61,71,42
133.5,133.7,62,71,42
133.75,133.95,61,71,42
134.0,134.2,60,71,42
134.25,134.45,61,71,42
134.5,134.7,59,71,42
134.75,134.95,57,71,42
135.0,135.2,56,71,42
135.25,135.45,54,71,42
135.5,135.7,52,71,42
135.75,135.95,53,71,42
136.0,136.2,56,71,42
136.25,136.45,59,71,42
136.5,136.7,64,71,42
136.75,136.95,62,71,42
137.0,137.2,61,71,42
137.25,137.45,62,71,42
137.5,137.7,61,71,42
137.75,137.95,59,71,42
138.0,138.2,57,71,42
138.25,138.45,56,71,42
138.5,138.7,53,71,42
138.75,138.95,54,71,42
139.0,139.2,57,71,42
139.25,139.45,61,71,42
139.5,139.7,68,71,42
139.75,139.95,66,71,42
140.0,140.2,65,71,42
140.25,140.45,66,71,42
140.5,140.7,68,71,42
140.75,140.95,66,71,42
141.0,141.2,65,71,42
141.25,141.45,66,71,42
141.5,141.7,68,71,42
141.75,141.95,66,71,42
142.0,142.2,65,71,42
142.25,142.45,66,71,42
142.5,142.7,68,71,42
142.75,142.95,66,71,42
143.0,143.2,65,91,42
143.25,143.45,66,91,42
143.5,143.7,65,91,42
143.75,143.95,63,91,42
144.0,144.2,61,91,42
144.25,144.45,59,91,42
144.5,144.7,57,91,42
144.75,144.95,58,91,42
145.0,145.2,60,91,42
145.25,145.45,61,91,42
145.5,145.7,59,91,42
145.75,145.95,56,91,42
146.0,146.2,53,71,42
146.25,146.45,54,71,42
146.5,146.7,56,71,42
146.75,146.95,57,71,42
147.0,147.2,62,71,42
147.25,147.45,61,71,42
147.5,147.7,60,71,42
147.75,147.95,61,71,42
148.5,148.7,62,71,42
148.75,148.95,61,71,42
149.0,149.2,60,71,42
149.25,149.45,61,71,42
150.0,150.2,62,71,42
150.25,150.45,61,71,42
150.5,150.7,60,71,42
150.75,150.95,61,71,42
151.0,151.2,59,71,42
151.25,151.45,57,71,42
151.5,151.7,56,71,42
151.75,151.95,54,71,42
152.0,152.2,52,71,42
152.25,152.45,53,71,42
152.5,152.7,56,71,42
152.75,152.95,59,71,42
153.0,153.2,64,71,42
153.25,153.45,62,71,42
153.5,153.7,61,71,42
153.75,153.95,62,71,42
154.0,154.2,61,71,42
154.25,154.45,59,71,42
154.5,154.7,57,71,42
154.75,154.95,56,71,42
155.0,155.2,56,71,42
155.25,155.45,57,71,42
155.5,155.7,61,71,42
155.75,155.95,64,71,42
156.0,156.2,71,71,42
156.25,156.45,69,71,42
156.5,156.7,68,81,42
156.75,156.95,69,81,42
157.0,157.2,71,81,42
157.25,157.45,69,81,42
157.5,157.7,68,81,42
157.75,157.95,69,81,42
158.0,158.2,71,81,42
158.25,158.45,69,81,42
158.5,158.7,68,91,42
158.75,158.95,69,91,42
159.0,159.2,71,91,42
159.25,159.45,69,91,42
159.5,159.7,68,91,42
159.75,159.95,69,91,42
160.0,160.2,68,91,42
160.25,160.45,66,91,42
160.5,160.7,64,104,42
160.75,160.95,62,104,42
161.0,161.2,60,104,42
161.25,161.45,61,104,42
161.5,161.7,59,104,42
161.75,161.95,57,91,42
162.0,162.2,56,81,42
162.25,162.45,54,81,42
162.5,162.7,53,71,42
162.75,162.95,56,71,42
163.0,163.2,59,71,42
163.25,163.45,61,71,42
163.5,163.7,64,71,42
163.75,163.95,62,71,42
164.0,164.2,60,71,42
164.25,164.45,61,71,42
165.5,165.7,37,71,42
165.75,165.95,44,71,42
166.0,166.2,49,71,42
166.25,166.45,53,71,42
166.5,166.7,56,71,42
166.75,166.95,61,71,42
167.0,167.2,62,71,42
167.25,167.45,61,71,42
167.5,167.7,60,71,42
167.75,167.95,61,71,42
168.0,168.2,64,71,42
168.25,168.45,62,71,42
168.5,168.7,61,71,42
168.75,168.95,62,71,42
169.0,169.2,67,81,42
169.25,169.45,65,81,42
169.5,169.7,64,81,42
169.75,169.95,65,81,42
170.0,170.2,69,104,42
170.25,170.45,64,104,42
170.5,170.7,61,104,42
170.75,170.95,57,104,42
171.0,171.13333,56,104,42
171.16667,171.3,59,104,42
171.33333,171.46666,57,104,42
171.5,171.7,56,81,42
171.75,171.95,54,81,42
172.0,172.2,54,81,42
172.25,172.45,57,81,42
172.5,172.7,60,81,42
172.75,172.95,61,81,42
173.0,173.2,62,81,42
173.25,173.45,61,81,42
173.5,173.7,60,81,42
173.75,173.95,61,81,42
174.0,174.2,64,81,42
174.25,174.45,62,81,42
174.5,174.7,61,81,42
174.75,174.95,62,81,42
175.0,175.2,67,91,42
175.25,175.45,65,91,42
175.5,175.7,64,91,42
175.75,175.95,65,91,42
176.0,176.2,69,91,42
176.25,176.45,64,91,42
176.5,176.7,61,91,42
176.75,176.95,57,91,42
177.0,177.13333,56,81,42
177.16667,177.3,59,81,42
177.33333,177.46666,57,81,42
177.5,177.7,56,81,42
177.75,177.95,54,81,42
178.0,178.4,54,81,42
178.5,178.7,62,81,42
178.75,178.95,61,81,42
179.0,179.2,60,81,42
179.25,179.45,61,81,42
179.5,179.7,59,81,42
179.75,179.95,57,81,42
180.0,180.2,56,81,42
180.25,180.45,54,81,42
180.5,180.7,52,81,42
180.75,180.95,53,81,42
181.0,181.2,56,81,42
181.25,181.45,59,81,42
181.5,181.7,64,81,42
181.75,181.95,62,81,42
182.0,182.2,61,81,42
182.25,182.45,62,81,42
182.5,182.7,61,81,42
182.75,182.95,59,81,42
183.0,183.2,57,81,42
183.25,183.45,56,81,42
183.5,183.7,56,81,42
183.75,183.95,57,81,42
184.0,184.2,61,81,42
184.25,184.45,64,81,42
184.5,184.7,71,81,42
184.75,184.95,69,81,42
185.0,185.2,68,81,42
185.25,185.45,69,81,42
185.5,185.7,71,81,42
185.75,185.95,69,81,42
186.0,186.2,68,81,42
186.25,186.45,69,81,42
186.5,186.7,71,81,42
186.75,186.95,69,81,42
187.0,187.2,68,91,42
187.25,187.45,69,91,42
187.5,187.7,71,91,42
187.75,187.95,69,91,42
188.0,188.2,68,91,42
188.25,188.45,69,91,42
188.5,188.7,68,91,42
188.75,188.95,66,91,42
189.0,189.2,64,104,42
189.25,189.45,62,104,42
189.5,189.7,60,104,42
189.75,189.95,61,104,42
190.0,190.2,59,104,42
190.25,190.45,57,91,42
190.5,190.7,56,81,42
190.75,190.95,54,81,42
191.0,191.2,53,71,42
191.25,191.45,56,71,42
191.5,191.7,59,71,42
191.75,191.95,61,71,42
192.0,192.2,64,71,42
192.25,192.45,62,71,42
192.5,192.7,60,71,42
192.75,192.95,61,71,42
194.0,194.2,37,71,42
194.25,194.45,44,71,42
194.5,194.7,49,71,42
194.75,194.95,53,71,42
195.0,195.2,56,71,42
195.25,195.45,61,71,42
195.5,195.7,62,71,42
195.75,195.95,61,71,42
196.0,196.2,60,71,42
196.25,196.45,61,71,42
196.5,196.7,64,71,42
196.75,196.95,62,71,42
197.0,197.2,61,71,42
197.25,197.45,62,71,42
197.5,197.7,67,81,42
197.75,197.95,65,81,42
198.0,198.2,64,81,42
198.25,198.45,65,81,42
198.5,198.7,69,104,42
198.75,198.95,64,104,42
199.0,199.2,61,104,42
199.25,199.45,57,104,42
199.5,199.63333,56,104,42
199.66667,199.8,59,104,42
199.83333,199.96666,57,104,42
200.0,200.2,56,81,42
200.25,200.45,54,81,42
200.5,200.7,54,81,42
200.75,200.95,57,81,42
201.0,201.2,60,81,42
201.25,201.45,61,81,42
201.5,201.7,62,81,42
201.75,201.95,61,81,42
202.0,202.2,60,81,42
202.25,202.45,61,81,42
202.5,202.7,64,81,42
202.75,202.95,62,81,42
203.0,203.2,61,81,42
203.25,203.45,62,81,42
203.5,203.7,67,91,42
203.75,203.95,65,91,42
204.0,204.2,64,91,42
204.25,204.45,65,91,42
204.5,204.7,69,91,42
204.75,204.95,64,91,42
205.0,205.2,61,91,42
205.25,205.45,57,91,42
205.5,205.63333,56,81,42
205.66667,205.8,59,81,42
205.83333,205.96666,57,81,42
206.0,206.2,56,81,42
206.25,206.45,54,81,42
206.5,206.9,54,81,42
207.0,207.13333,52,81,42
207.16667,207.3,55,81,42
207.33333,207.46666,54,81,42
207.5,207.7,52,58,42
207.75,207.95,50,58,42
208.0,208.4,50,58,42
208.5,208.63333,49,58,42
208.66667,208.8,52,58,42
208.83333,208.96666,50,58,42
209.0,209.2,49,58,42
209.25,209.65,47,58,42
209.75,209.95,45,58,42
210.0,210.2,44,58,42
210.25,210.45,45,58,42
210.5,210.9,44,58,42
211.0,212.4,42,58,42
212.5,213.9,41,58,42
214.0,214.8,40,81,42
219.0,219.4,52,71,42
219.5,220.1,57,71,42
220.25,220.45,59,71,42
220.5,220.7,60,71,42
220.75,220.95,57,71,42
221.0,221.4,56,71,42
221.5,221.9,64,71,42
222.0,222.4,64,71,42
222.5,223.1,57,71,42
223.25,223.45,59,71,42
223.5,223.7,60,71,42
223.75,223.98541,57,71,42
224.0,224.4,59,71,42
224.5,224.9,65,71,42
225.0,225.4,65,71,42
225.5,226.1,60,71,42
226.25,226.45,62,71,42
226.5,226.7,64,71,42
226.75,226.95,67,71,42
227.0,227.6,67,71,42
227.75,227.95,66,71,42
228.0,228.2,67,71,42
228.25,228.45,64,71,42
228.5,229.1,62,71,42
229.25,229.45,60,71,42
229.5,229.7,62,71,42
229.75,229.95,59,71,42
230.0,230.2,57,71,42
230.25,230.45,59,71,42
230.5,230.9,55,71,42
231.0,231.4,53,71,42
231.5,232.3,52,71,42
232.5,232.7,60,71,42
232.75,232.95,59,71,42
233.0,233.2,57,71,42
233.25,233.45,59,71,42
233.5,233.9,55,71,42
234.0,234.4,53,71,42
234.5,235.3,52,71,42
235.5,235.7,41,71,42
235.75,235.95,40,71,42
236.0,236.8,40,71,42
237.0,237.2,41,71,42
237.25,237.45,40,71,42
237.5,238.3,40,71,42
238.5,238.7,65,71,42
238.75,238.95,64,71,42
239.0,239.2,62,71,42
239.25,239.45,64,71,42
239.5,239.9,60,71,42
240.0,240.4,59,71,42
240.5,240.7,57,71,42
240.75,240.95,53,71,42
241.0,241.2,52,71,42
241.25,241.45,48,71,42
241.5,241.9,45,71,42
242.0,242.2,59,71,42
242.25,242.45,53,71,42
242.5,242.7,52,71,42
242.75,242.95,47,71,42
243.0,243.4,40,71,42
243.5,243.7,57,71,42
243.75,243.95,53,71,42
244.0,244.2,52,71,42
244.25,244.45,48,71,42
244.5,244.9,45,71,42
245.0,245.2,62,71,42
245.25,245.45,56,71,42
245.5,245.7,55,71,42
245.75,245.95,50,71,42
246.0,246.4,43,71,42
246.5,246.7,60,71,42
246.75,246.95,57,71,42
247.0,247.2,55,71,42
247.25,247.45,52,71,42
247.5,247.9,48,71,42
248.0,248.2,64,71,42
248.25,248.45,59,71,42
248.5,248.9,60,71,42
249.0,249.4,59,71,42
249.5,249.7,59,71,42
249.75,249.95,54,71,42
250.0,250.4,55,71,42
250.5,250.9,54,71,42
251.0,251.4,54,71,42
251.5,251.9,55,71,42
252.0,252.4,57,71,42
252.5,252.9,60,71,42
253.0,253.4,59,71,42
253.5,253.9,52,71,42
254.0,254.4,54,71,42
254.5,254.9,55,71,42
255.0,255.4,57,71,42
255.5,255.9,60,71,42
256.0,256.4,59,71,42
256.5,256.9,57,71,42
257.0,257.4,60,71,42
257.5,257.9,59,71,42
258.0,258.4,57,71,42
258.5,258.9,60,71,42
259.0,259.4,59,71,42
261.0,261.4,52,71,42
261.5,262.1,55,71,42
262.25,262.45,57,71,42
262.5,262.7,58,71,42
262.75,262.95,55,71,42
263.0,263.4,55,71,42
263.5,263.9,54,71,42
264.0,264.4,54,71,42
264.5,265.1,53,71,42
265.25,265.45,55,71,42
265.5,265.7,56,71,42
265.75,265.95,53,71,42
266.0,266.4,53,71,42
266.5,266.9,52,71,42
267.0,267.4,52,71,42
267.5,268.1,51,71,42
268.25,268.45,55,71,42
268.5,268.7,60,71,42
268.75,268.95,63,71,42
269.0,269.4,67,71,42
269.5,269.9,62,71,42
270.0,270.4,62,71,42
270.5,270.7,39,71,42
270.75,270.95,43,71,42
271.0,271.2,48,71,42
271.25,271.45,51,71,42
271.5,271.7,55,71,42
271.75,271.95,63,71,42
272.0,272.4,67,71,42
272.5,272.9,62,71,42
273.0,273.4,62,71,42
274.5,274.9,67,71,42
275.0,275.4,66,71,42
275.5,275.9,65,71,42
276.0,276.4,64,71,42
276.5,276.55,63,71,42
276.5625,276.6125,65,71,42
276.625,277.2,63,71,42
277.25,277.45,62,71,42
277.5,277.9,63,71,42
278.0,278.4,62,71,42
278.5,278.9,55,71,42
279.0,279.4,55,71,42
279.5,280.3,55,71,42
280.5,280.9,72,71,42
281.0,281.4,71,71,42
281.5,281.9,70,71,42
282.0,282.4,69,71,42
282.5,282.55,68,71,42
282.5625,282.6125,70,71,42
282.625,283.2,68,71,42
283.25,283.45,67,71,42
283.5,283.9,68,71,42
284.0,284.4,67,71,42
284.5,284.9,60,71,42
285.0,285.4,56,71,42
285.5,286.3,55,71,42
286.5,286.9,43,71,42
287.0,287.2,43,71,42
287.25,287.45,45,71,42
287.5,287.9,41,71,42
288.0,288.4,40,71,42
288.5,289.3,38,71,42
289.5,289.9,50,71,42
290.0,290.2,48,71,42
290.25,290.45,50,71,42
290.5,290.9,46,71,42
291.0,291.4,45,71,42
291.5,292.3,43,81,42
292.5,292.9,55,81,42
293.0,293.8,41,81,42
294.0,294.4,53,81,42
294.5,295.3,40,81,42
295.5,295.9,52,81,42
296.0,296.8,42,91,42
297.0,297.4,54,91,42
297.5,298.3,43,91,42
298.5,298.9,41,91,42
299.0,299.8,40,91,42
300.0,300.4,42,91,42
300.5,300.9,43,104,42
301.0,301.4,41,104,42
301.5,301.9,40,104,42
302.0,302.4,43,104,42
302.5,302.9,41,104,42
303.0,303.4,40,104,42
303.5,303.9,40,104,42
306.0,306.4,52,104,42
306.5,307.1,57,71,42
307.25,307.45,59,71,42
307.5,307.7,60,71,42
307.75,307.95,57,71,42
308.0,308.4,56,71,42
308.5,308.9,64,71,42
309.0,309.4,64,71,42
309.5,310.1,57,71,42
310.25,310.45,59,71,42
310.5,310.7,60,71,42
310.75,310.95,57,71,42
311.0,311.4,59,71,42
311.5,311.9,65,71,42
312.0,312.4,65,71,42
312.5,313.1,60,71,42
313.25,313.45,62,71,42
313.5,313.7,64,71,42
313.75,313.95,67,71,42
314.0,314.6,67,71,42
314.75,314.95,66,71,42
315.0,315.2,67,71,42
315.25,315.45,60,71,42
315.5,316.1,67,91,42
316.25,316.45,66,91,42
316.5,316.7,67,91,42
316.75,316.95,61,91,42
317.0,317.2,62,81,42
317.25,317.45,64,81,42
317.5,317.9,60,81,42
318.0,318.4,59,81,42
318.5,319.3,57,81,42
319.5,319.7,67,81,42
319.75,319.95,65,81,42
320.0,320.2,64,81,42
320.25,320.45,65,81,42
320.5,320.9,60,71,42
321.0,321.4,59,71,42
321.5,321.9,57,71,42
322.0,322.2,69,104,42
322.25,322.45,67,91,42
322.5,322.7,65,81,42
322.75,322.95,64,81,42
323.0,323.2,62,81,42
323.25,323.45,64,81,42
323.5,323.9,61,81,42
324.0,324.2,60,58,42
324.25,324.45,62,58,42
324.5,324.9,59,58,42
325.0,325.2,58,58,42
325.25,325.45,62,58,42
325.5,325.9,57,58,42
326.0,326.4,53,58,42
327.0,327.4,52,71,42
328.0,328.4,56,71,42
328.0,328.4,40,71,42
328.0,328.4,47,71,42
329.0,329.4,45,71,42
329.0,329.4,57,71,42
329.0,329.4,52,71,42
330.0,330.4,56,71,42
330.0,330.4,47,71,42
330.0,330.4,40,71,42
330.5,330.9,52,71,42
330.5,330.9,57,71,42
330.5,330.9,45,71,42
0.0,0.2,89,71,0
0.0,0.2,77,71,0
0.25,0.45,76,71,0
0.25,0.45,88,71,0
0.5,0.7,86,71,0
0.5,0.7,74,71,0
0.75,0.95,88,71,0
0.75,0.95,76,71,0
1.0,1.4,72,71,0
1.0,1.4,84,71,0
1.5,1.9,83,71,0
1.5,1.9,71,71,0
2.0,2.2,81,71,0
2.25,2.45,77,71,0
2.0,2.8,72,71,0
2.5,2.9,76,71,0
3.0,3.4,72,71,0
3.0,3.4,76,71,0
3.5,3.7,83,71,0
3.75,3.95,77,71,0
3.5,4.3,74,71,0
4.0,4.4,76,71,0
4.5,4.9,74,71,0
4.5,4.9,76,71,0
5.0,5.2,81,71,0
5.25,5.45,77,71,0
5.0,5.8,72,71,0
5.5,5.9,76,71,0
6.0,6.4,76,71,0
6.0,6.4,72,71,0
6.5,6.7,86,71,0
6.75,6.95,80,71,0
7.0,7.4,79,71,0
7.0,7.4,74,71,0
7.5,7.9,79,71,0
7.5,7.9,74,71,0
8.0,8.2,84,71,0
8.25,8.45,81,71,0
8.0,8.8,76,71,0
8.5,8.9,79,71,0
9.0,9.4,76,71,0
9.0,9.4,79,71,0
9.5,9.7,88,71,0
9.5,9.9,79,71,0
9.75,9.95,83,71,0
10.0,10.4,81,71,0
10.0,10.4,84,71,0
10.5,10.9,79,71,0
10.5,10.9,83,71,0
11.0,11.2,83,71,0
11.0,11.4,74,71,0
11.25,11.45,78,71,0
11.5,11.9,76,71,0
11.5,11.9,79,71,0
12.0,12.4,74,71,0
12.0,12.4,78,71,0
12.5,12.9,66,71,0
12.5,12.9,60,71,0
12.5,12.9,72,71,0
12.5,12.9,78,71,0
13.0,13.4,71,71,0
13.0,13.4,59,71,0
13.0,13.4,67,71,0
13.0,13.4,79,71,0
13.5,13.9,74,71,0
13.5,13.9,69,71,0
14.0,14.4,69,71,0
14.0,14.4,72,71,0
14.0,14.8,76,71,0
14.5,14.9,68,71,0
14.5,14.9,71,71,0
15.5,15.9,72,71,0
15.5,15.9,66,71,0
15.5,15.9,78,71,0
16.0,16.4,79,71,0
16.0,16.4,71,71,0
16.0,16.4,67,71,0
16.5,16.9,69,71,0
16.5,16.9,74,71,0
17.0,17.4,69,71,0
17.0,17.4,72,71,0
17.0,17.8,76,71,0
17.5,17.9,71,71,0
17.5,17.9,68,71,0
18.0,18.4,62,71,0
18.5,18.9,60,71,0
18.5,19.3,64,71,0
19.0,19.4,59,71,0
19.5,19.9,62,71,0
20.0,20.4,60,71,0
20.0,20.8,64,71,0
20.5,20.9,59,71,0
22.5,22.9,64,71,0
23.0,23.6,60,71,0
23.0,23.6,64,71,0
23.0,23.6,69,71,0
23.75,23.95,71,71,0
24.0,24.2,72,71,0
24.0,24.2,64,71,0
24.25,24.45,69,71,0
24.5,24.9,64,71,0
24.5,24.9,68,71,0
25.0,25.4,76,71,0
25.5,25.9,76,71,0
25.5,25.9,68,71,0
25.5,25.9,64,71,0
26.0,26.6,60,71,0
26.0,26.6,64,71,0
26.0,26.6,69,71,0
26.75,26.95,71,71,0
27.0,27.2,72,71,0
27.0,27.2,64,71,0
27.25,27.45,69,71,0
27.5,27.9,71,71,0
27.5,27.9,65,71,0
28.0,28.4,77,71,0
28.5,28.9,71,71,0
28.5,28.9,65,71,0
28.5,28.9,77,71,0
29.0,29.6,67,71,0
29.0,29.6,72,71,0
29.0,29.6,64,71,0
29.75,29.95,74,71,0
30.0,30.2,67,71,0
30.0,30.2,72,71,0
30.0,30.2,76,71,0
30.25,30.45,79,71,0
30.5,30.9,71,71,0
30.5,30.9,67,71,0
30.5,31.1,79,71,0
31.0,31.2,72,71,0
31.0,31.2,69,71,0
31.25,31.45,78,71,0
31.5,31.7,79,71,0
31.5,31.7,71,71,0
31.5,31.7,67,71,0
31.75,31.95,76,71,0
32.0,32.4,62,71,0
32.0,32.4,66,71,0
32.0,32.6,74,71,0
32.5,32.7,67,71,0
32.5,32.7,64,71,0
32.75,32.95,72,71,0
33.0,33.2,66,71,0
33.0,33.2,62,71,0
33.0,33.2,74,71,0
33.25,33.45,71,71,0
33.5,33.7,69,71,0
33.5,33.9,66,71,0
33.5,33.9,60,71,0
33.75,33.95,71,71,0
34.0,34.4,59,71,0
34.0,34.4,62,71,0
34.0,34.4,67,71,0
34.5,34.9,57,71,0
34.5,34.9,62,71,0
34.5,34.9,65,71,0
35.0,35.4,57,71,0
35.0,35.8,64,71,0
35.5,35.9,56,71,0
36.0,36.2,72,71,0
36.0,36.2,64,71,0
36.25,36.45,71,71,0
36.25,36.45,62,71,0
36.5,36.7,69,71,0
36.5,36.9,60,71,0
36.75,36.95,71,71,0
37.0,37.4,62,71,0
37.0,37.4,59,71,0
37.0,37.4,67,71,0
37.5,37.9,62,71,0
37.5,37.9,57,71,0
37.5,37.9,65,71,0
38.0,38.8,64,71,0
39.0,39.2,65,71,0
39.25,39.45,64,71,0
39.5,40.3,64,71,0
40.5,40.7,65,71,0
40.75,40.95,64,71,0
41.0,41.8,64,71,0
42.0,42.2,89,71,0
42.0,42.2,77,71,0
42.25,42.45,88,71,0
42.25,42.45,76,71,0
42.5,42.7,74,71,0
42.5,42.7,86,71,0
42.75,42.95,76,71,0
42.75,42.95,88,71,0
43.0,43.4,85,71,0
43.0,43.4,73,71,0
43.5,43.9,71,71,0
43.5,43.9,83,71,0
44.0,44.2,81,71,0
44.0,44.2,69,71,0
44.25,44.45,65,71,0
44.25,44.45,77,71,0
44.0,44.8,61,71,0
44.0,44.8,73,71,0
44.5,44.9,76,71,0
44.5,44.9,64,71,0
45.0,45.4,61,71,0
45.0,45.4,73,71,0
45.0,45.4,76,71,0
45.0,45.4,64,71,0
45.5,45.7,81,71,0
45.75,45.95,75,71,0
45.5,46.3,72,71,0
46.0,46.4,74,71,0
46.5,46.9,72,71,0
46.5,46.9,74,71,0
47.0,47.2,80,71,0
47.25,47.45,75,71,0
47.0,47.8,71,71,0
47.5,47.9,74,71,0
48.0,48.4,74,71,0
48.0,48.4,71,71,0
48.5,48.7,79,71,0
48.75,48.95,74,71,0
48.5,49.3,67,71,0
49.0,49.4,72,71,0
49.5,49.9,67,71,0
49.5,49.9,72,71,0
50.0,50.2,79,71,0
50.25,50.45,74,71,0
50.0,50.8,67,71,0
50.5,50.9,72,71,0
51.0,51.4,67,71,0
51.0,51.4,72,71,0
51.5,51.7,79,71,0
51.75,51.95,72,71,0
51.5,52.3,67,71,0
52.0,52.4,71,71,0
52.5,52.9,67,71,0
52.5,52.9,71,71,0
53.0,53.2,79,71,0
53.25,53.45,74,71,0
53.0,53.8,67,71,0
53.5,53.9,72,71,0
54.0,54.4,67,71,0
54.0,54.4,72,71,0
54.5,54.7,79,71,0
54.75,54.95,72,71,0
54.5,55.3,67,71,0
55.0,55.4,71,71,0
55.5,55.9,67,71,0
55.5,55.9,71,71,0
56.0,56.05,75,71,0
56.0625,56.1125,77,71,0
56.0,56.6,72,71,0
56.125,56.7,75,71,0
56.75,56.95,71,71,0
56.75,56.95,74,71,0
57.0,57.4,75,71,0
57.0,57.4,72,71,0
57.5,57.9,74,71,0
57.5,57.9,69,71,0
58.0,58.4,67,71,0
58.5,58.9,67,71,0
59.0,59.8,67,71,0
60.0,60.4,79,71,0
60.0,60.4,72,71,0
60.5,60.9,78,71,0
60.5,61.3,74,71,0
61.0,61.4,77,71,0
61.5,61.9,76,71,0
61.5,61.9,72,71,0
62.0,62.05,76,71,0
62.0625,62.1125,77,71,0
62.0,62.6,72,71,0
62.125,62.7,76,71,0
62.75,62.95,71,71,0
62.75,62.95,74,71,0
63.0,63.4,76,71,0
63.0,63.4,72,71,0
63.5,63.9,79,71,0
63.5,63.9,67,71,0
64.0,64.4,70,71,0
64.0,64.4,72,71,0
64.5,64.9,69,71,0
64.5,64.9,72,71,0
65.0,65.8,68,71,0
65.0,65.8,72,71,0
66.0,66.4,84,71,0
66.0,66.4,72,71,0
66.5,66.7,82,71,0
66.75,66.95,80,71,0
67.0,67.2,79,71,0
67.25,67.45,80,71,0
67.5,67.7,77,71,0
67.75,67.95,74,71,0
68.0,68.05,72,71,0
68.0625,68.1125,74,71,0
68.0,68.6,64,71,0
68.125,68.7,72,71,0
68.75,68.95,62,71,0
68.75,68.95,71,71,0
69.0,69.4,72,71,0
69.0,69.4,64,71,0
69.5,70.3,74,71,0
69.5,70.3,71,71,0
70.5,70.9,67,71,0
70.5,70.9,76,71,0
71.0,71.05,77,71,0
71.0625,71.1125,79,71,0
71.0,71.6,69,71,0
71.0,71.6,74,71,0
71.125,71.7,77,71,0
71.75,71.95,76,71,0
71.75,71.95,67,71,0
71.75,71.95,73,71,0
72.0,72.4,74,71,0
72.0,72.4,69,71,0
72.0,72.4,77,71,0
72.5,73.3,76,71,0
72.5,73.3,79,71,0
72.5,73.3,70,71,0
73.5,73.9,81,71,0
73.5,73.9,72,71,0
74.0,74.05,82,81,0
74.0625,74.1125,84,81,0
74.125,74.7,82,81,0
74.0,74.8,74,81,0
74.75,74.95,81,81,0
75.0,75.4,74,81,0
75.0,75.4,82,81,0
75.5,75.9,86,81,0
75.5,76.3,74,81,0
76.0,76.4,81,81,0
76.5,76.9,81,81,0
76.5,76.9,74,81,0
77.0,77.05,80,81,0
77.0625,77.1125,81,81,0
77.125,77.7,80,81,0
77.0,77.8,74,81,0
77.75,77.95,78,81,0
78.0,78.4,80,81,0
78.0,78.4,74,81,0
78.5,78.9,86,91,0
78.5,79.3,74,91,0
79.0,79.4,81,91,0
79.5,79.9,81,91,0
79.5,79.9,74,91,0
80.0,80.05,82,91,0
80.0625,80.1125,84,91,0
80.125,80.225,82,91,0
80.25,80.45,81,91,0
80.5,80.7,82,91,0
80.0,80.8,74,91,0
80.75,80.95,86,91,0
81.0,81.2,81,91,0
81.0,81.4,74,91,0
81.25,81.45,86,91,0
81.5,81.55,80,91,0
81.5625,81.6125,81,91,0
81.625,81.725,80,91,0
81.75,81.95,78,91,0
82.0,82.2,80,91,0
81.5,82.3,74,91,0
82.25,82.45,86,91,0
82.5,82.7,81,91,0
82.5,82.9,74,91,0
82.75,82.95,86,91,0
83.0,83.2,82,104,0
83.0,83.4,74,104,0
83.25,83.45,86,104,0
83.5,83.7,81,104,0
83.5,83.9,74,104,0
83.75,83.95,86,104,0
84.0,84.2,80,104,0
84.0,84.4,74,104,0
84.25,84.45,86,104,0
84.5,84.7,82,104,0
84.5,84.9,74,104,0
84.75,84.95,86,104,0
85.0,85.2,81,104,0
85.0,85.4,74,104,0
85.25,85.45,86,104,0
85.5,85.7,80,104,0
85.5,85.9,74,104,0
85.75,85.95,86,104,0
86.0,86.2,74,104,0
86.0,86.2,80,104,0
86.25,86.45,88,104,0
86.25,86.45,76,104,0
86.5,86.7,86,104,0
86.5,86.7,74,104,0
86.75,86.95,88,104,0
86.75,86.95,76,104,0
87.0,87.2,74,104,0
87.0,87.2,86,104,0
87.25,87.45,88,104,0
87.25,87.45,76,104,0
87.5,87.7,74,104,0
87.5,87.7,86,104,0
87.75,87.95,76,104,0
87.75,87.95,88,104,0
88.0,88.4,84,104,0
88.0,88.4,72,104,0
88.5,88.9,83,104,0
88.5,88.9,71,104,0
89.0,89.2,81,71,0
89.0,89.2,69,71,0
89.25,89.45,77,71,0
89.25,89.45,74,71,0
89.5,89.7,72,71,0
89.5,89.7,76,71,0
90.0,90.2,72,71,0
90.0,90.2,76,71,0
90.5,90.7,83,71,0
90.5,90.7,71,71,0
90.75,90.95,77,71,0
90.75,90.95,74,71,0
91.0,91.2,71,71,0
91.0,91.2,76,71,0
91.5,91.7,71,71,0
91.5,91.7,76,71,0
92.0,92.2,81,71,0
92.0,92.2,69,71,0
92.25,92.45,74,71,0
92.25,92.45,77,71,0
92.5,92.7,76,71,0
92.5,92.7,72,71,0
93.0,93.2,72,71,0
93.0,93.2,76,71,0
93.5,93.7,86,71,0
93.5,93.7,74,71,0
93.75,93.95,77,71,0
93.75,93.95,80,71,0
94.0,94.2,79,71,0
94.0,94.2,74,71,0
94.5,94.7,74,71,0
94.5,94.7,79,71,0
95.0,95.2,88,71,0
95.0,95.2,76,71,0
95.25,95.45,81,71,0
95.5,95.7,76,71,0
95.5,95.7,79,71,0
96.0,96.2,76,71,0
96.0,96.2,79,71,0
96.5,96.7,88,71,0
96.5,96.7,76,71,0
96.75,96.95,81,71,0
97.0,97.2,76,71,0
97.0,97.2,79,71,0
97.5,97.7,79,71,0
97.5,97.7,76,71,0
98.0,98.2,88,91,0
98.0,98.2,76,91,0
98.25,98.45,81,91,0
98.5,98.7,76,91,0
98.5,98.7,79,91,0
99.0,99.2,76,91,0
99.0,99.2,79,91,0
99.75,99.95,77,71,0
99.75,99.95,81,71,0
99.75,99.95,69,71,0
100.25,100.45,76,71,0
100.25,100.45,69,71,0
100.25,100.45,72,71,0
100.75,100.95,71,71,0
100.75,100.95,68,71,0
100.75,100.95,76,71,0
101.25,101.45,74,58,0
101.25,101.45,69,58,0
101.25,101.45,77,58,0
101.5,101.7,81,58,0
101.75,101.95,76,58,0
101.75,101.95,69,58,0
101.75,101.95,73,58,0
102.75,102.95,69,58,0
102.75,102.95,77,58,0
102.75,102.95,74,58,0
103.25,103.45,69,58,0
103.25,103.45,72,58,0
103.25,103.45,76,58,0
103.75,103.95,71,58,0
103.75,103.95,68,58,0
103.75,103.95,76,58,0
104.25,104.45,69,58,0
104.25,104.45,77,58,0
104.25,104.45,74,58,0
104.5,104.7,81,58,0
104.75,104.95,73,58,0
104.75,104.95,69,58,0
104.75,104.95,76,58,0
105.75,105.95,65,71,0
105.75,105.95,74,71,0
105.75,105.95,69,71,0
106.25,106.45,64,71,0
106.25,106.45,69,71,0
106.25,106.45,73,71,0
106.75,106.95,69,58,0
106.75,106.95,72,58,0
106.75,106.95,63,58,0
107.25,107.45,71,58,0
107.25,107.45,62,58,0
107.25,107.45,67,58,0
107.75,107.95,62,58,0
107.75,107.95,67,58,0
107.75,107.95,70,58,0
108.25,108.45,69,58,0
108.25,108.45,65,58,0
108.25,108.45,62,58,0
108.75,108.95,69,58,0
108.75,108.95,65,58,0
108.75,108.95,60,58,0
109.5,109.7,89,71,0
109.5,109.7,77,71,0
109.75,109.95,88,71,0
109.75,109.95,76,71,0
110.0,110.2,86,71,0
110.0,110.2,74,71,0
110.25,110.45,76,71,0
110.25,110.45,88,71,0
110.5,110.9,72,71,0
110.5,110.9,84,71,0
111.0,111.4,83,71,0
111.0,111.4,71,71,0
111.5,111.9,81,71,0
111.5,111.9,69,71,0
112.5,112.9,59,71,0
112.5,112.9,56,71,0
113.0,113.4,57,71,0
114.0,114.1,86,71,0
114.0,114.1,86,71,0
114.125,114.225,73,71,0
114.25,114.45,85,71,0
114.25,114.45,85,71,0
114.5,114.6,84,71,0
114.5,114.6,84,71,0
114.625,114.725,73,71,0
114.75,114.95,85,71,0
114.75,114.95,85,71,0
115.5,115.6,86,71,0
115.5,115.6,86,71,0
115.625,115.725,73,71,0
115.75,115.95,85,71,0
115.75,115.95,85,71,0
116.0,116.1,84,71,0
116.0,116.1,84,71,0
116.125,116.225,73,71,0
116.25,116.45,85,71,0
116.25,116.45,85,71,0
117.0,117.1,86,71,0
117.0,117.1,86,71,0
117.125,117.225,73,71,0
117.25,117.45,85,71,0
117.25,117.45,85,71,0
117.5,117.6,84,71,0
117.5,117.6,84,71,0
117.625,117.725,73,71,0
117.75,117.95,85,71,0
117.75,117.95,85,71,0
118.0,118.1,83,71,0
118.0,118.1,83,71,0
118.125,118.225,73,71,0
118.25,118.45,81,71,0
118.25,118.45,81,71,0
118.5,118.6,80,71,0
118.5,118.6,80,71,0
118.625,118.725,73,71,0
118.75,118.95,78,71,0
118.75,118.95,78,71,0
119.0,119.1,76,71,0
119.0,119.1,76,71,0
119.125,119.225,74,71,0
119.25,119.45,77,71,0
119.25,119.45,77,71,0
119.5,119.6,80,71,0
119.5,119.6,80,71,0
119.625,119.725,74,71,0
119.75,119.95,83,71,0
119.75,119.95,83,71,0
120.0,120.1,88,71,0
120.0,120.1,88,71,0
120.125,120.225,74,71,0
120.25,120.45,86,71,0
120.25,120.45,86,71,0
120.5,120.6,85,71,0
120.5,120.6,85,71,0
120.625,120.725,74,71,0
120.75,120.95,86,71,0
120.75,120.95,86,71,0
121.0,121.1,85,71,0
121.0,121.1,85,71,0
121.125,121.225,74,71,0
121.25,121.45,83,71,0
121.25,121.45,83,71,0
121.5,121.6,81,71,0
121.5,121.6,81,71,0
121.625,121.725,74,71,0
121.75,121.95,80,71,0
121.75,121.95,80,71,0
122.0,122.1,77,71,0
122.0,122.1,77,71,0
122.125,122.225,73,71,0
122.25,122.45,78,71,0
122.25,122.45,78,71,0
122.5,122.6,81,71,0
122.5,122.6,81,71,0
122.625,122.725,73,71,0
122.75,122.95,85,71,0
122.75,122.95,85,71,0
123.0,123.1,92,71,0
123.0,123.1,92,71,0
123.125,123.225,78,71,0
123.25,123.45,90,71,0
123.25,123.45,90,71,0
123.5,123.6,89,71,0
123.5,123.6,89,71,0
123.625,123.725,78,71,0
123.75,123.95,90,71,0
123.75,123.95,90,71,0
124.0,124.1,92,71,0
124.0,124.1,92,71,0
124.125,124.225,78,71,0
124.25,124.45,90,71,0
124.25,124.45,90,71,0
124.5,124.6,89,71,0
124.5,124.6,89,71,0
124.625,124.725,78,71,0
124.75,124.95,90,71,0
124.75,124.95,90,71,0
125.0,125.1,92,71,0
125.0,125.1,92,71,0
125.125,125.225,78,71,0
125.25,125.45,90,71,0
125.25,125.45,90,71,0
125.5,125.6,89,71,0
125.5,125.6,89,71,0
125.625,125.725,78,71,0
125.75,125.95,90,71,0
125.75,125.95,90,71,0
126.0,126.1,92,71,0
126.0,126.1,92,71,0
126.125,126.225,78,71,0
126.25,126.45,90,71,0
126.25,126.45,90,71,0
126.5,126.6,89,91,0
126.5,126.6,89,91,0
126.625,126.725,78,91,0
126.75,126.95,90,91,0
126.75,126.95,90,91,0
127.0,127.1,89,91,0
127.0,127.1,89,91,0
127.125,127.225,78,91,0
127.25,127.45,87,91,0
127.25,127.45,87,91,0
127.5,127.6,85,91,0
127.5,127.6,85,91,0
127.625,127.725,78,91,0
127.75,127.95,83,91,0
127.75,127.95,83,91,0
128.0,128.1,81,91,0
128.0,128.1,81,91,0
128.125,128.225,78,91,0
128.25,128.45,82,91,0
128.25,128.45,82,91,0
128.5,128.6,84,91,0
128.5,128.6,84,91,0
128.625,128.725,78,91,0
128.75,128.95,85,91,0
128.75,128.95,85,91,0
129.0,129.1,83,91,0
129.0,129.1,83,91,0
129.125,129.225,73,91,0
129.25,129.45,80,91,0
129.25,129.45,80,91,0
129.5,129.6,77,71,0
129.5,129.6,77,71,0
129.625,129.725,73,71,0
129.75,129.95,78,71,0
129.75,129.95,78,71,0
130.0,130.1,80,71,0
130.0,130.1,80,71,0
130.125,130.225,73,71,0
130.25,130.45,81,71,0
130.25,130.45,81,71,0
130.5,130.6,86,71,0
130.5,130.6,86,71,0
130.625,130.725,73,71,0
130.75,130.95,85,71,0
130.75,130.95,85,71,0
131.0,131.1,84,71,0
131.0,131.1,84,71,0
131.125,131.225,73,71,0
131.25,131.45,85,71,0
131.25,131.45,85,71,0
132.0,132.1,86,71,0
132.0,132.1,86,71,0
132.125,132.225,73,71,0
132.25,132.45,85,71,0
132.25,132.45,85,71,0
132.5,132.6,84,71,0
132.5,132.6,84,71,0
132.625,132.725,73,71,0
132.75,132.95,85,71,0
132.75,132.95,85,71,0
133.5,133.6,86,71,0
133.5,133.6,86,71,0
133.625,133.725,73,71,0
133.75,133.95,85,71,0
133.75,133.95,85,71,0
134.0,134.1,84,71,0
134.0,134.1,84,71,0
134.125,134.225,73,71,0
134.25,134.45,85,71,0
134.25,134.45,85,71,0
134.5,134.6,83,71,0
134.5,134.6,83,71,0
134.625,134.725,73,71,0
134.75,134.95,81,71,0
134.75,134.95,81,71,0
135.0,135.1,80,71,0
135.0,135.1,80,71,0
135.125,135.225,73,71,0
135.25,135.45,78,71,0
135.25,135.45,78,71,0
135.5,135.6,76,71,0
135.5,135.6,76,71,0
135.625,135.725,74,71,0
135.75,135.95,77,71,0
135.75,135.95,77,71,0
136.0,136.1,80,71,0
136.0,136.1,80,71,0
136.125,136.225,74,71,0
136.25,136.45,83,71,0
136.25,136.45,83,71,0
136.5,136.6,88,71,0
136.5,136.6,88,71,0
136.625,136.725,74,71,0
136.75,136.95,86,71,0
136.75,136.95,86,71,0
137.0,137.1,85,71,0
137.0,137.1,85,71,0
137.125,137.225,74,71,0
137.25,137.45,86,71,0
137.25,137.45,86,71,0
137.5,137.6,85,71,0
137.5,137.6,85,71,0
137.625,137.725,74,71,0
137.75,137.95,83,71,0
137.75,137.95,83,71,0
138.0,138.1,81,71,0
138.0,138.1,81,71,0
138.125,138.225,74,71,0
138.25,138.45,80,71,0
138.25,138.45,80,71,0
138.5,138.6,77,71,0
138.5,138.6,77,71,0
138.625,138.725,73,71,0
138.75,138.95,78,71,0
138.75,138.95,78,71,0
139.0,139.1,81,71,0
139.0,139.1,81,71,0
139.125,139.225,73,71,0
139.25,139.45,85,71,0
139.25,139.45,85,71,0
139.5,139.6,92,71,0
139.5,139.6,92,71,0
139.625,139.725,78,71,0
139.75,139.95,90,71,0
139.75,139.95,90,71,0
140.0,140.1,89,71,0
140.0,140.1,89,71,0
140.125,140.225,78,71,0
140.25,140.45,90,71,0
140.25,140.45,90,71,0
140.5,140.6,92,71,0
140.5,140.6,92,71,0
140.625,140.725,78,71,0
140.75,140.95,90,71,0
140.75,140.95,90,71,0
141.0,141.1,89,71,0
141.0,141.1,89,71,0
141.125,141.225,78,71,0
141.25,141.45,90,71,0
141.25,141.45,90,71,0
141.5,141.6,92,71,0
141.5,141.6,92,71,0
141.625,141.725,78,71,0
141.75,141.95,90,71,0
141.75,141.95,90,71,0
142.0,142.1,89,71,0
142.0,142.1,89,71,0
142.125,142.225,78,71,0
142.25,142.45,90,71,0
142.25,142.45,90,71,0
142.5,142.6,92,71,0
142.5,142.6,92,71,0
142.625,142.725,78,71,0
142.75,142.95,90,71,0
142.75,142.95,90,71,0
143.0,143.1,89,91,0
143.0,143.1,89,91,0
143.125,143.225,78,91,0
143.25,143.45,90,91,0
143.25,143.45,90,91,0
143.5,143.6,89,91,0
143.5,143.6,89,91,0
143.625,143.725,78,91,0
143.75,143.95,87,91,0
143.75,143.95,87,91,0
144.0,144.1,85,91,0
144.0,144.1,85,91,0
144.125,144.225,78,91,0
144.25,144.45,83,91,0
144.25,144.45,83,91,0
144.5,144.6,81,91,0
144.5,144.6,81,91,0
144.625,144.725,78,91,0
144.75,144.95,82,91,0
144.75,144.95,82,91,0
145.0,145.1,84,91,0
145.0,145.1,84,91,0
145.125,145.225,78,91,0
145.25,145.45,85,91,0
145.25,145.45,85,91,0
145.5,145.6,83,91,0
145.5,145.6,83,91,0
145.625,145.725,73,91,0
145.75,145.95,80,91,0
145.75,145.95,80,91,0
146.0,146.1,77,71,0
146.0,146.1,77,71,0
146.125,146.225,73,71,0
146.25,146.45,78,71,0
146.25,146.45,78,71,0
146.5,146.6,80,71,0
146.5,146.6,80,71,0
146.625,146.725,73,71,0
146.75,146.95,81,71,0
146.75,146.95,81,71,0
147.0,147.1,86,71,0
147.0,147.1,86,71,0
147.125,147.225,73,71,0
147.25,147.45,85,71,0
147.25,147.45,85,71,0
147.5,147.6,84,71,0
147.5,147.6,84,71,0
147.625,147.725,73,71,0
147.75,147.95,85,71,0
147.75,147.95,85,71,0
148.5,148.6,86,71,0
148.5,148.6,86,71,0
148.625,148.725,73,71,0
148.75,148.95,85,71,0
148.75,148.95,85,71,0
149.0,149.1,84,71,0
149.0,149.1,84,71,0
149.125,149.225,73,71,0
149.25,149.45,85,71,0
149.25,149.45,85,71,0
150.0,150.1,86,71,0
150.0,150.1,86,71,0
150.125,150.225,73,71,0
150.25,150.45,85,71,0
150.25,150.45,85,71,0
150.5,150.6,84,71,0
150.5,150.6,84,71,0
150.625,150.725,73,71,0
150.75,150.95,85,71,0
150.75,150.95,85,71,0
151.0,151.1,83,71,0
151.0,151.1,83,71,0
151.125,151.225,73,71,0
151.25,151.45,81,71,0
151.25,151.45,81,71,0
151.5,151.6,80,71,0
151.5,151.6,80,71,0
151.625,151.725,73,71,0
151.75,151.95,78,71,0
151.75,151.95,78,71,0
152.0,152.1,76,71,0
152.0,152.1,76,71,0
152.125,152.225,74,71,0
152.25,152.45,77,71,0
152.25,152.45,77,71,0
152.5,152.6,80,71,0
152.5,152.6,80,71,0
152.625,152.725,74,71,0
152.75,152.95,83,71,0
152.75,152.95,83,71,0
153.0,153.1,88,71,0
153.0,153.1,88,71,0
153.125,153.225,77,71,0
153.25,153.45,86,71,0
153.25,153.45,86,71,0
153.5,153.6,85,71,0
153.5,153.6,85,71,0
153.625,153.725,77,71,0
153.75,153.95,86,71,0
153.75,153.95,86,71,0
154.0,154.1,85,71,0
154.0,154.1,85,71,0
154.125,154.225,77,71,0
154.25,154.45,83,71,0
154.25,154.45,81,71,0
154.5,154.6,81,71,0
154.5,154.6,81,71,0
154.5,154.7,68,71,0
154.625,154.725,77,71,0
154.75,154.95,71,71,0
154.75,154.95,80,71,0
154.75,154.95,80,71,0
155.0,155.1,80,71,0
155.0,155.1,80,71,0
155.125,155.225,76,71,0
155.25,155.45,81,71,0
155.25,155.45,81,71,0
155.5,155.6,85,71,0
155.5,155.6,85,71,0
155.625,155.725,76,71,0
155.75,155.95,88,71,0
155.75,155.95,88,71,0
156.0,156.1,95,71,0
156.0,156.1,95,71,0
156.125,156.225,81,71,0
156.25,156.45,93,71,0
156.25,156.45,93,71,0
156.5,156.6,92,81,0
156.5,156.6,92,81,0
156.625,156.725,81,81,0
156.75,156.95,93,81,0
156.75,156.95,93,81,0
157.0,157.1,95,81,0
157.0,157.1,95,81,0
157.125,157.225,81,81,0
157.25,157.45,93,81,0
157.25,157.45,93,81,0
157.5,157.6,92,81,0
157.5,157.6,92,81,0
157.625,157.725,81,81,0
157.75,157.95,93,81,0
157.75,157.95,93,81,0
158.0,158.1,95,81,0
158.0,158.1,95,81,0
158.125,158.225,81,81,0
158.25,158.45,93,81,0
158.25,158.45,93,81,0
158.5,158.6,92,91,0
158.5,158.6,92,91,0
158.625,158.725,81,91,0
158.75,158.95,93,91,0
158.75,158.95,93,91,0
159.0,159.1,95,91,0
159.0,159.1,95,91,0
159.125,159.225,81,91,0
159.25,159.45,93,91,0
159.25,159.45,93,91,0
159.5,159.6,92,91,0
159.5,159.6,92,91,0
159.625,159.725,81,91,0
159.75,159.95,93,91,0
159.75,159.95,93,91,0
160.0,160.1,92,91,0
160.0,160.1,92,91,0
160.125,160.225,81,91,0
160.25,160.45,90,91,0
160.25,160.45,90,91,0
160.5,160.6,88,104,0
160.5,160.6,88,104,0
160.625,160.725,81,104,0
160.75,160.95,86,104,0
160.75,160.95,86,104,0
161.0,161.1,84,104,0
161.0,161.1,84,104,0
161.125,161.225,81,104,0
161.25,161.45,85,104,0
161.25,161.45,85,104,0
161.5,161.6,83,104,0
161.5,161.6,83,104,0
161.625,161.725,73,91,0
161.75,161.95,81,91,0
161.75,161.95,81,91,0
162.0,162.1,80,81,0
162.0,162.1,80,81,0
162.125,162.225,75,81,0
162.25,162.45,78,81,0
162.25,162.45,78,81,0
162.5,162.6,77,81,0
162.5,162.6,77,81,0
162.625,162.725,73,81,0
162.75,162.95,80,81,0
162.75,162.95,80,81,0
163.0,163.1,84,81,0
163.0,163.1,84,81,0
163.125,163.225,73,81,0
163.25,163.45,85,81,0
163.25,163.45,85,81,0
163.5,163.6,88,81,0
163.5,163.6,88,81,0
163.625,163.725,74,81,0
163.75,163.95,86,81,0
163.75,163.95,86,81,0
164.0,164.1,84,81,0
164.0,164.1,84,81,0
164.125,164.225,73,81,0
164.25,164.45,85,81,0
164.25,164.45,85,81,0
165.0,165.1,88,81,0
165.0,165.1,88,81,0
165.125,165.225,74,81,0
165.25,165.45,86,81,0
165.25,165.45,86,81,0
165.5,165.6,82,81,0
165.5,165.6,82,81,0
165.625,165.725,74,81,0
165.75,165.95,83,81,0
165.75,165.95,83,81,0
166.5,166.6,86,81,0
166.5,166.6,86,81,0
166.625,166.725,73,81,0
166.75,166.95,85,81,0
166.75,166.95,85,81,0
167.0,167.1,80,81,0
167.0,167.1,80,81,0
167.125,167.225,73,81,0
167.25,167.45,81,81,0
167.25,167.45,81,81,0
168.0,168.1,80,81,0
168.0,168.1,80,81,0
168.125,168.225,69,81,0
168.25,168.45,81,81,0
168.25,168.45,81,81,0
169.0,169.1,85,81,0
169.0,169.1,85,81,0
169.125,169.225,74,81,0
169.25,169.45,86,81,0
169.25,169.45,86,81,0
170.0,170.1,87,91,0
170.0,170.1,87,91,0
170.125,170.225,76,91,0
170.25,170.45,88,91,0
170.25,170.45,88,91,0
170.5,170.6,87,81,0
170.5,170.6,87,81,0
170.625,170.725,76,81,0
170.75,170.95,88,81,0
170.75,170.95,88,81,0
171.0,171.1,88,71,0
171.0,171.1,88,71,0
171.125,171.225,77,71,0
171.25,171.45,89,71,0
171.25,171.45,89,71,0
171.5,171.6,89,71,0
171.5,171.6,89,71,0
171.625,171.725,78,71,0
171.75,171.95,90,71,0
171.75,171.95,90,71,0
172.0,172.1,85,71,0
172.0,172.1,85,71,0
172.125,172.225,78,71,0
172.25,172.45,81,71,0
172.25,172.45,81,71,0
172.5,172.6,80,71,0
172.5,172.6,80,71,0
172.625,172.725,69,71,0
172.75,172.95,78,71,0
172.75,172.95,78,71,0
173.0,173.1,74,71,0
173.0,173.1,74,71,0
173.125,173.225,81,71,0
173.25,173.45,73,71,0
173.25,173.45,73,71,0
173.5,173.6,72,71,0
173.5,173.6,72,71,0
173.625,173.725,81,71,0
173.75,173.95,73,71,0
173.75,173.95,73,71,0
174.0,174.1,76,81,0
174.0,174.1,76,81,0
174.125,174.225,81,81,0
174.25,174.45,74,81,0
174.25,174.45,74,81,0
174.5,174.6,73,81,0
174.5,174.6,73,81,0
174.625,174.725,81,81,0
174.75,174.95,74,81,0
174.75,174.95,74,81,0
175.0,175.1,79,91,0
175.0,175.1,79,91,0
175.125,175.225,86,91,0
175.25,175.45,77,91,0
175.25,175.45,77,91,0
175.5,175.6,76,91,0
175.5,175.6,76,91,0
175.625,175.725,86,91,0
175.75,175.95,77,91,0
175.75,175.95,77,91,0
176.0,176.1,81,104,0
176.0,176.1,81,104,0
176.125,176.225,88,104,0
176.25,176.45,76,104,0
176.25,176.45,76,104,0
176.5,176.6,73,91,0
176.5,176.6,73,91,0
176.625,176.725,81,91,0
176.75,176.95,69,91,0
176.75,176.95,69,91,0
177.0,177.1,68,81,0
177.0,177.1,68,81,0
177.125,177.225,77,81,0
177.25,177.45,65,81,0
177.25,177.45,65,81,0
177.5,177.6,69,81,0
177.5,177.6,69,81,0
177.625,177.725,78,81,0
177.75,177.95,66,81,0
177.75,177.95,66,81,0
178.5,178.6,86,81,0
178.5,178.6,86,81,0
178.625,178.725,73,81,0
178.75,178.95,85,81,0
178.75,178.95,85,81,0
179.0,179.1,84,81,0
179.0,179.1,84,81,0
179.125,179.225,73,81,0
179.25,179.45,85,81,0
179.25,179.45,85,81,0
179.5,179.6,83,81,0
179.5,179.6,83,81,0
179.625,179.725,73,81,0
179.75,179.95,81,81,0
179.75,179.95,81,81,0
180.0,180.1,80,81,0
180.0,180.1,80,81,0
180.125,180.225,73,81,0
180.25,180.45,78,81,0
180.25,180.45,78,81,0
180.5,180.6,76,81,0
180.5,180.6,76,81,0
180.625,180.725,74,81,0
180.75,180.95,77,81,0
180.75,180.95,77,81,0
181.0,181.1,80,81,0
181.0,181.1,80,81,0
181.125,181.225,74,81,0
181.25,181.45,83,81,0
181.25,181.45,83,81,0
181.5,181.6,88,81,0
181.5,181.6,88,81,0
181.625,181.725,77,81,0
181.75,181.95,86,81,0
181.75,181.95,86,81,0
182.0,182.1,85,81,0
182.0,182.1,85,81,0
182.125,182.225,77,81,0
182.25,182.45,86,81,0
182.25,182.45,86,81,0
182.5,182.6,85,81,0
182.5,182.6,85,81,0
182.625,182.725,77,81,0
182.75,182.95,83,81,0
182.75,182.95,81,81,0
183.0,183.1,81,81,0
183.0,183.1,81,81,0
183.0,183.2,68,81,0
183.125,183.225,77,81,0
183.25,183.45,71,81,0
183.25,183.45,80,81,0
183.25,183.45,80,81,0
183.5,183.6,80,81,0
183.5,183.6,80,81,0
183.625,183.725,76,81,0
183.75,183.95,81,81,0
183.75,183.95,81,81,0
184.0,184.1,85,81,0
184.0,184.1,85,81,0
184.125,184.225,76,81,0
184.25,184.45,88,81,0
184.25,184.45,88,81,0
184.5,184.6,95,81,0
184.5,184.6,95,81,0
184.625,184.725,81,81,0
184.75,184.95,93,81,0
184.75,184.95,93,81,0
185.0,185.1,92,81,0
185.0,185.1,92,81,0
185.125,185.225,81,81,0
185.25,185.45,93,81,0
185.25,185.45,93,81,0
185.5,185.6,95,81,0
185.5,185.6,95,81,0
185.625,185.725,81,81,0
185.75,185.95,93,81,0
185.75,185.95,93,81,0
186.0,186.1,92,81,0
186.0,186.1,92,81,0
186.125,186.225,81,81,0
186.25,186.45,93,81,0
186.25,186.45,93,81,0
186.5,186.6,95,81,0
186.5,186.6,95,81,0
186.625,186.725,81,81,0
186.75,186.95,93,81,0
186.75,186.95,93,81,0
187.0,187.1,92,91,0
187.0,187.1,92,91,0
187.125,187.225,81,91,0
187.25,187.45,93,91,0
187.25,187.45,93,91,0
187.5,187.6,95,91,0
187.5,187.6,95,91,0
187.625,187.725,81,91,0
187.75,187.95,93,91,0
187.75,187.95,93,91,0
188.0,188.1,92,91,0
188.0,188.1,92,91,0
188.125,188.225,81,91,0
188.25,188.45,93,91,0
188.25,188.45,93,91,0
188.5,188.6,92,91,0
188.5,188.6,92,91,0
188.625,188.725,81,91,0
188.75,188.95,90,91,0
188.75,188.95,90,91,0
189.0,189.1,88,104,0
189.0,189.1,88,104,0
189.125,189.225,81,104,0
189.25,189.45,86,104,0
189.25,189.45,86,104,0
189.5,189.6,84,104,0
189.5,189.6,84,104,0
189.625,189.725,81,104,0
189.75,189.95,85,104,0
189.75,189.95,85,104,0
190.0,190.1,83,104,0
190.0,190.1,83,104,0
190.125,190.225,73,91,0
190.25,190.45,81,91,0
190.25,190.45,81,91,0
190.5,190.6,80,81,0
190.5,190.6,80,81,0
190.625,190.725,75,81,0
190.75,190.95,78,81,0
190.75,190.95,78,81,0
191.0,191.1,77,81,0
191.0,191.1,77,81,0
191.125,191.225,73,81,0
191.25,191.45,80,81,0
191.25,191.45,80,81,0
191.5,191.6,84,81,0
191.5,191.6,84,81,0
191.625,191.725,73,81,0
191.75,191.95,85,81,0
191.75,191.95,85,81,0
192.0,192.1,88,81,0
192.0,192.1,88,81,0
192.125,192.225,74,81,0
192.25,192.45,86,81,0
192.25,192.45,86,81,0
192.5,192.6,84,81,0
192.5,192.6,84,81,0
192.625,192.725,73,81,0
192.75,192.95,85,81,0
192.75,192.95,85,81,0
193.5,193.6,88,81,0
193.5,193.6,88,81,0
193.625,193.725,74,81,0
193.75,193.95,86,81,0
193.75,193.95,86,81,0
194.0,194.1,82,81,0
194.0,194.1,82,81,0
194.125,194.225,74,81,0
194.25,194.45,83,81,0
194.25,194.45,83,81,0
195.0,195.1,86,81,0
195.0,195.1,86,81,0
195.125,195.225,73,81,0
195.25,195.45,85,81,0
195.25,195.45,85,81,0
195.5,195.6,80,81,0
195.5,195.6,80,81,0
195.625,195.725,73,81,0
195.75,195.95,81,81,0
195.75,195.95,81,81,0
196.5,196.6,80,81,0
196.5,196.6,80,81,0
196.625,196.725,69,81,0
196.75,196.95,81,81,0
196.75,196.95,81,81,0
197.5,197.6,85,81,0
197.5,197.6,85,81,0
197.625,197.725,74,81,0
197.75,197.95,86,81,0
197.75,197.95,86,81,0
198.5,198.6,87,91,0
198.5,198.6,87,91,0
198.625,198.725,76,91,0
198.75,198.95,88,91,0
198.75,198.95,88,91,0
199.0,199.1,87,81,0
199.0,199.1,87,81,0
199.125,199.225,76,81,0
199.25,199.45,88,81,0
199.25,199.45,88,81,0
199.5,199.6,88,71,0
199.5,199.6,88,71,0
199.625,199.725,77,71,0
199.75,199.95,89,71,0
199.75,199.95,89,71,0
200.0,200.1,89,71,0
200.0,200.1,89,71,0
200.125,200.225,78,71,0
200.25,200.45,90,71,0
200.25,200.45,90,71,0
200.5,200.6,85,71,0
200.5,200.6,85,71,0
200.625,200.725,78,71,0
200.75,200.95,81,71,0
200.75,200.95,81,71,0
201.0,201.1,80,71,0
201.0,201.1,80,71,0
201.125,201.225,69,71,0
201.25,201.45,78,71,0
201.25,201.45,78,71,0
201.5,201.6,74,71,0
201.5,201.6,74,71,0
201.625,201.725,81,71,0
201.75,201.95,73,71,0
201.75,201.95,73,71,0
202.0,202.1,72,71,0
202.0,202.1,72,71,0
202.125,202.225,81,71,0
202.25,202.45,73,71,0
202.25,202.45,73,71,0
202.5,202.6,76,81,0
202.5,202.6,76,81,0
202.625,202.725,81,81,0
202.75,202.95,74,81,0
202.75,202.95,74,81,0
203.0,203.1,73,81,0
203.0,203.1,73,81,0
203.125,203.225,81,81,0
203.25,203.45,74,81,0
203.25,203.45,74,81,0
203.5,203.6,79,91,0
203.5,203.6,79,91,0
203.625,203.725,86,91,0
203.75,203.95,77,91,0
203.75,203.95,77,91,0
204.0,204.1,76,91,0
204.0,204.1,76,91,0
204.125,204.225,86,91,0
204.25,204.45,77,91,0
204.25,204.45,77,91,0
204.5,204.6,81,104,0
204.5,204.6,81,104,0
204.625,204.725,88,104,0
204.75,204.95,76,104,0
204.75,204.95,76,104,0
205.0,205.1,73,91,0
205.0,205.1,73,91,0
205.125,205.225,81,91,0
205.25,205.45,69,91,0
205.25,205.45,69,91,0
205.5,205.6,68,81,0
205.5,205.6,68,81,0
205.625,205.725,77,81,0
205.75,205.95,65,81,0
205.75,205.95,65,81,0
206.0,206.13333,69,81,0
206.16667,206.3,78,81,0
206.33333,206.46666,66,81,0
206.5,206.63333,69,81,0
206.66667,206.8,78,81,0
206.83333,206.96666,66,81,0
207.0,207.13333,67,81,0
207.16667,207.3,76,81,0
207.33333,207.46666,64,81,0
207.5,207.63333,66,58,0
207.66667,207.8,74,58,0
207.83333,207.96666,62,58,0
208.0,208.13333,66,58,0
208.16667,208.3,74,58,0
208.33333,208.46666,62,58,0
208.5,208.63333,66,58,0
208.66667,208.8,73,58,0
208.83333,208.96666,61,58,0
209.0,209.13333,62,58,0
209.16667,209.3,71,58,0
209.33333,209.46666,59,58,0
209.5,209.63333,61,58,0
209.66667,209.8,69,58,0
209.83333,209.96666,57,58,0
210.0,210.13333,59,58,0
210.16667,210.3,68,58,0
210.33333,210.46666,56,58,0
210.5,210.63333,59,58,0
210.66667,210.8,65,58,0
210.83333,210.96666,53,58,0
211.0,211.13333,57,58,0
211.16667,211.3,66,58,0
211.33333,211.46666,54,58,0
211.5,211.63333,57,58,0
211.66667,211.8,66,58,0
211.83333,211.96666,54,58,0
212.0,212.13333,57,58,0
212.16667,212.3,66,58,0
212.33333,212.46666,54,58,0
212.5,212.63333,62,58,0
212.66667,212.8,69,58,0
212.83333,212.96666,57,58,0
213.0,213.13333,62,58,0
213.16667,213.3,69,58,0
213.33333,213.46666,57,58,0
213.5,213.63333,62,58,0
213.66667,213.8,69,58,0
213.83333,213.96666,57,81,0
214.5,214.63333,56,81,0
214.66667,214.8,59,81,0
214.83333,214.96666,62,81,0
215.0,215.13333,68,91,0
215.16667,215.3,71,91,0
215.33333,215.46666,74,91,0
215.5,215.9,77,91,0
216.0,216.4,76,91,0
216.5,216.9,77,91,0
217.0,217.4,76,91,0
217.5,217.7,89,71,0
217.5,217.7,77,71,0
217.75,217.95,76,71,0
217.75,217.95,88,71,0
218.0,218.2,86,71,0
218.0,218.2,74,71,0
218.25,218.45,88,71,0
218.25,218.45,76,71,0
218.5,218.9,72,71,0
218.5,218.9,84,71,0
219.0,219.4,83,71,0
219.0,219.4,71,71,0
219.5,219.7,81,71,0
219.75,219.95,77,71,0
219.5,220.3,72,71,0
220.0,220.4,76,71,0
220.5,220.9,72,71,0
220.5,220.9,76,71,0
221.0,221.2,83,71,0
221.25,221.45,77,71,0
221.0,221.8,74,71,0
221.5,221.9,76,71,0
222.0,222.4,74,71,0
222.0,222.4,76,71,0
222.5,222.7,81,71,0
222.75,222.95,77,71,0
222.5,223.3,72,71,0
223.0,223.4,76,71,0
223.5,223.9,76,71,0
223.5,223.9,72,71,0
224.0,224.2,86,71,0
224.25,224.45,80,71,0
224.5,224.9,79,71,0
224.5,224.9,74,71,0
225.0,225.4,79,71,0
225.0,225.4,74,71,0
225.5,225.7,84,71,0
225.75,225.95,81,71,0
225.5,226.3,76,71,0
226.0,226.4,79,71,0
226.5,226.9,76,71,0
226.5,226.9,79,71,0
227.0,227.2,88,71,0
227.0,227.4,79,71,0
227.25,227.45,83,71,0
227.5,227.9,81,71,0
227.5,227.9,84,71,0
228.0,228.4,79,71,0
228.0,228.4,83,71,0
228.5,228.7,83,71,0
228.5,228.9,74,71,0
228.75,228.95,78,71,0
229.0,229.4,76,71,0
229.0,229.4,79,71,0
229.5,229.9,74,71,0
229.5,229.9,78,71,0
230.0,230.4,66,71,0
230.0,230.4,60,71,0
230.0,230.4,72,71,0
230.0,230.4,78,71,0
230.5,230.9,71,71,0
230.5,230.9,59,71,0
230.5,230.9,67,71,0
230.5,230.9,79,71,0
231.0,231.4,74,71,0
231.0,231.4,69,71,0
231.5,231.9,69,71,0
231.5,231.9,72,71,0
231.5,232.3,76,71,0
232.0,232.4,68,71,0
232.0,232.4,71,71,0
233.0,233.4,72,71,0
233.0,233.4,66,71,0
233.0,233.4,78,71,0
233.5,233.9,79,71,0
233.5,233.9,71,71,0
233.5,233.9,67,71,0
234.0,234.4,69,71,0
234.0,234.4,74,71,0
234.5,234.9,69,71,0
234.5,234.9,72,71,0
234.5,235.3,76,71,0
235.0,235.4,71,71,0
235.0,235.4,68,71,0
235.5,235.9,62,71,0
236.0,236.4,60,71,0
236.0,236.8,64,71,0
236.5,236.9,59,71,0
237.0,237.4,62,71,0
237.5,237.9,60,71,0
237.5,238.3,64,71,0
238.0,238.4,59,71,0
240.0,240.4,64,71,0
240.5,241.1,60,71,0
240.5,241.1,64,71,0
240.5,241.1,69,71,0
241.25,241.45,71,71,0
241.5,241.7,72,71,0
241.5,241.7,64,71,0
241.75,241.95,69,71,0
242.0,242.4,64,71,0
242.0,242.4,68,71,0
242.5,242.9,76,71,0
243.0,243.4,76,71,0
243.0,243.4,68,71,0
243.0,243.4,64,71,0
243.5,244.1,60,71,0
243.5,244.1,64,71,0
243.5,244.1,69,71,0
244.25,244.45,71,71,0
244.5,244.7,72,71,0
244.5,244.7,64,71,0
244.75,244.95,69,71,0
245.0,245.4,71,71,0
245.0,245.4,65,71,0
245.5,245.9,77,71,0
246.0,246.4,71,71,0
246.0,246.4,65,71,0
246.0,246.4,77,71,0
246.5,247.1,67,71,0
246.5,247.1,72,71,0
246.5,247.1,64,71,0
247.25,247.45,74,71,0
247.5,247.7,67,71,0
247.5,247.7,72,71,0
247.5,247.7,76,71,0
247.75,247.95,79,71,0
248.0,248.4,71,71,0
248.0,248.4,67,71,0
248.0,248.6,79,71,0
248.5,248.7,72,71,0
248.5,248.7,69,71,0
248.75,248.95,78,71,0
249.0,249.2,79,71,0
249.0,249.2,71,71,0
249.0,249.2,67,71,0
249.25,249.45,76,71,0
249.5,249.9,62,71,0
249.5,249.9,66,71,0
249.5,250.1,74,71,0
250.0,250.2,67,71,0
250.0,250.2,64,71,0
250.25,250.45,72,71,0
250.5,250.7,66,71,0
250.5,250.7,62,71,0
250.5,250.7,74,71,0
250.75,250.95,71,71,0
251.0,251.2,69,71,0
251.0,251.4,66,71,0
251.0,251.4,60,71,0
251.25,251.45,71,71,0
251.5,251.9,59,71,0
251.5,251.9,62,71,0
251.5,251.9,67,71,0
252.0,252.4,57,71,0
252.0,252.4,62,71,0
252.0,252.4,65,71,0
252.5,252.9,57,71,0
252.5,253.3,64,71,0
253.0,253.4,56,71,0
253.5,253.7,72,71,0
253.5,253.7,64,71,0
253.75,253.95,71,71,0
253.75,253.95,62,71,0
254.0,254.2,69,71,0
254.0,254.4,60,71,0
254.25,254.45,71,71,0
254.5,254.9,62,71,0
254.5,254.9,59,71,0
254.5,254.9,67,71,0
255.0,255.4,62,71,0
255.0,255.4,57,71,0
255.0,255.4,65,71,0
255.5,256.3,64,71,0
256.5,256.7,65,71,0
256.75,256.95,64,71,0
257.0,257.8,64,71,0
258.0,258.2,65,71,0
258.25,258.45,64,71,0
258.5,259.3,64,71,0
259.5,259.7,89,71,0
259.5,259.7,77,71,0
259.75,259.95,88,71,0
259.75,259.95,76,71,0
260.0,260.2,74,71,0
260.0,260.2,86,71,0
260.25,260.45,76,71,0
260.25,260.45,88,71,0
260.5,260.9,85,71,0
260.5,260.9,73,71,0
261.0,261.4,71,71,0
261.0,261.4,83,71,0
261.5,261.7,81,71,0
261.5,261.7,69,71,0
261.75,261.95,65,71,0
261.75,261.95,77,71,0
261.5,262.3,61,71,0
261.5,262.3,73,71,0
262.0,262.4,76,71,0
262.0,262.4,64,71,0
262.5,262.9,61,71,0
262.5,262.9,73,71,0
262.5,262.9,76,71,0
262.5,262.9,64,71,0
263.0,263.2,81,71,0
263.25,263.45,75,71,0
263.0,263.8,72,71,0
263.5,263.9,74,71,0
264.0,264.4,72,71,0
264.0,264.4,74,71,0
264.5,264.7,80,71,0
264.75,264.95,75,71,0
264.5,265.3,71,71,0
265.0,265.4,74,71,0
265.5,265.9,74,71,0
265.5,265.9,71,71,0
266.0,266.2,79,71,0
266.25,266.45,74,71,0
266.0,266.8,67,71,0
266.5,266.9,72,71,0
267.0,267.4,67,71,0
267.0,267.4,72,71,0
267.5,267.7,79,71,0
267.75,267.95,74,71,0
267.5,268.3,67,71,0
268.0,268.4,72,71,0
268.5,268.9,67,71,0
268.5,268.9,72,71,0
269.0,269.2,79,71,0
269.25,269.45,72,71,0
269.0,269.8,67,71,0
269.5,269.9,71,71,0
270.0,270.4,67,71,0
270.0,270.4,71,71,0
270.5,270.7,79,71,0
270.75,270.95,74,71,0
270.5,271.3,67,71,0
271.0,271.4,72,71,0
271.5,271.9,67,71,0
271.5,271.9,72,71,0
272.0,272.2,79,71,0
272.25,272.45,72,71,0
272.0,272.8,67,71,0
272.5,272.9,71,71,0
273.0,273.4,67,71,0
273.0,273.4,71,71,0
273.5,273.55,75,71,0
273.5625,273.6125,77,71,0
273.5,274.1,72,71,0
273.625,274.2,75,71,0
274.25,274.45,71,71,0
274.25,274.45,74,71,0
274.5,274.9,75,71,0
274.5,274.9,72,71,0
275.0,275.4,74,71,0
275.0,275.4,69,71,0
275.5,275.9,67,71,0
276.0,276.4,67,71,0
276.5,277.3,67,71,0
277.5,277.9,79,71,0
277.5,277.9,72,71,0
278.0,278.4,78,71,0
278.0,278.8,74,71,0
278.5,278.9,77,71,0
279.0,279.4,76,71,0
279.0,279.4,72,71,0
279.5,279.55,76,71,0
279.5625,279.6125,77,71,0
279.5,280.1,72,71,0
279.625,280.2,76,71,0
280.25,280.45,71,71,0
280.25,280.45,74,71,0
280.5,280.9,76,71,0
280.5,280.9,72,71,0
281.0,281.4,79,71,0
281.0,281.4,67,71,0
281.5,281.9,70,71,0
281.5,281.9,72,71,0
282.0,282.4,69,71,0
282.0,282.4,72,71,0
282.5,283.3,68,71,0
282.5,283.3,72,71,0
283.5,283.9,84,71,0
283.5,283.9,72,71,0
284.0,284.2,82,71,0
284.25,284.45,80,71,0
284.5,284.7,79,71,0
284.75,284.95,80,71,0
285.0,285.2,77,71,0
285.25,285.45,74,71,0
285.5,285.55,72,71,0
285.5625,285.6125,74,71,0
285.5,286.1,64,71,0
285.625,286.2,72,71,0
286.25,286.45,62,71,0
286.25,286.45,71,71,0
286.5,286.9,72,71,0
286.5,286.9,64,71,0
287.0,287.8,74,71,0
287.0,287.8,71,71,0
288.0,288.4,67,71,0
288.0,288.4,76,71,0
288.5,288.55,77,71,0
288.5625,288.6125,79,71,0
288.5,289.1,69,71,0
288.5,289.1,74,71,0
288.625,289.2,77,71,0
289.25,289.45,76,71,0
289.25,289.45,67,71,0
289.25,289.45,73,71,0
289.5,289.9,74,71,0
289.5,289.9,69,71,0
289.5,289.9,77,71,0
290.0,290.8,76,71,0
290.0,290.8,79,71,0
290.0,290.8,70,71,0
291.0,291.4,81,71,0
291.0,291.4,72,71,0
291.5,291.55,82,81,0
291.5625,291.6125,84,81,0
291.625,292.2,82,81,0
291.5,292.3,74,81,0
292.25,292.45,81,81,0
292.5,292.9,74,81,0
292.5,292.9,82,81,0
293.0,293.4,86,81,0
293.0,293.8,74,81,0
293.5,293.9,81,81,0
294.0,294.4,81,81,0
294.0,294.4,74,81,0
294.5,294.55,80,81,0
294.5625,294.6125,81,81,0
294.625,295.2,80,81,0
294.5,295.3,74,81,0
295.25,295.45,78,81,0
295.5,295.9,80,81,0
295.5,295.9,74,81,0
296.0,296.4,86,91,0
296.0,296.8,74,91,0
296.5,296.9,81,91,0
297.0,297.4,81,91,0
297.0,297.4,74,91,0
297.5,297.55,82,91,0
297.5625,297.6125,84,91,0
297.625,297.725,82,91,0
297.75,297.95,81,91,0
298.0,298.2,82,91,0
297.5,298.3,74,91,0
298.25,298.45,86,91,0
298.5,298.7,81,91,0
298.5,298.9,74,91,0
298.75,298.95,86,91,0
299.0,299.05,80,91,0
299.0625,299.1125,81,91,0
299.125,299.225,80,91,0
299.25,299.45,78,91,0
299.5,299.7,80,91,0
299.0,299.8,74,91,0
299.75,299.95,86,91,0
300.0,300.2,81,91,0
300.0,300.4,74,91,0
300.25,300.45,86,91,0
300.5,300.7,82,104,0
300.5,300.9,74,104,0
300.75,300.95,86,104,0
301.0,301.2,81,104,0
301.0,301.4,74,104,0
301.25,301.45,86,104,0
301.5,301.7,80,104,0
301.5,301.9,74,104,0
301.75,301.95,86,104,0
302.0,302.2,82,104,0
302.0,302.4,74,104,0
302.25,302.45,86,104,0
302.5,302.7,81,104,0
302.5,302.9,74,104,0
302.75,302.95,86,104,0
303.0,303.2,80,104,0
303.0,303.4,74,104,0
303.25,303.45,86,104,0
303.5,303.7,74,104,0
303.5,303.7,80,104,0
303.75,303.95,88,104,0
303.75,303.95,76,104,0
304.0,304.2,86,104,0
304.0,304.2,74,104,0
304.25,304.45,88,104,0
304.25,304.45,76,104,0
304.5,304.7,74,104,0
304.5,304.7,86,104,0
304.75,304.95,88,104,0
304.75,304.95,76,104,0
305.0,305.2,74,104,0
305.0,305.2,86,104,0
305.25,305.45,76,104,0
305.25,305.45,88,104,0
305.5,305.9,84,104,0
305.5,305.9,72,104,0
306.0,306.4,83,104,0
306.0,306.4,71,104,0
306.5,306.7,81,71,0
306.5,306.7,69,71,0
306.75,306.95,77,71,0
306.75,306.95,74,71,0
307.0,307.2,72,71,0
307.0,307.2,76,71,0
307.5,307.7,72,71,0
307.5,307.7,76,71,0
308.0,308.2,83,71,0
308.0,308.2,71,71,0
308.25,308.45,77,71,0
308.25,308.45,74,71,0
308.5,308.7,71,71,0
308.5,308.7,76,71,0
309.0,309.2,71,71,0
309.0,309.2,76,71,0
309.5,309.7,81,71,0
309.5,309.7,69,71,0
309.75,309.95,74,71,0
309.75,309.95,77,71,0
310.0,310.2,76,71,0
310.0,310.2,72,71,0
310.5,310.7,72,71,0
310.5,310.7,76,71,0
311.0,311.2,86,71,0
311.0,311.2,74,71,0
311.25,311.45,77,71,0
311.25,311.45,80,71,0
311.5,311.7,79,71,0
311.5,311.7,74,71,0
312.0,312.2,74,71,0
312.0,312.2,79,71,0
312.5,312.7,88,71,0
312.5,312.7,76,71,0
312.75,312.95,81,71,0
313.0,313.2,76,71,0
313.0,313.2,79,71,0
313.5,313.7,76,71,0
313.5,313.7,79,71,0
314.0,314.2,88,71,0
314.0,314.2,76,71,0
314.25,314.45,81,71,0
314.5,314.7,76,71,0
314.5,314.7,79,71,0
315.0,315.2,79,71,0
315.0,315.2,76,71,0
315.5,315.7,88,91,0
315.5,315.7,76,91,0
315.75,315.95,81,91,0
316.0,316.2,76,91,0
316.0,316.2,79,91,0
316.5,316.7,76,91,0
316.5,316.7,79,91,0
317.25,317.45,77,71,0
317.25,317.45,81,71,0
317.25,317.45,69,71,0
317.75,317.95,76,71,0
317.75,317.95,69,71,0
317.75,317.95,72,71,0
318.25,318.45,71,71,0
318.25,318.45,68,71,0
318.25,318.45,76,71,0
318.75,318.95,74,58,0
318.75,318.95,69,58,0
318.75,318.95,77,58,0
319.0,319.2,81,58,0
319.25,319.45,76,58,0
319.25,319.45,69,58,0
319.25,319.45,73,58,0
320.25,320.45,69,58,0
320.25,320.45,77,58,0
320.25,320.45,74,58,0
320.75,320.95,69,58,0
320.75,320.95,72,58,0
320.75,320.95,76,58,0
321.25,321.45,71,58,0
321.25,321.45,68,58,0
321.25,321.45,76,58,0
321.75,321.95,69,58,0
321.75,321.95,77,58,0
321.75,321.95,74,58,0
322.0,322.2,81,58,0
322.25,322.45,73,58,0
322.25,322.45,69,58,0
322.25,322.45,76,58,0
323.25,323.45,65,71,0
323.25,323.45,74,71,0
323.25,323.45,69,71,0
323.75,323.95,64,71,0
323.75,323.95,69,71,0
323.75,323.95,73,71,0
324.25,324.45,69,58,0
324.25,324.45,72,58,0
324.25,324.45,63,58,0
324.75,324.95,71,58,0
324.75,324.95,62,58,0
324.75,324.95,67,58,0
325.25,325.45,62,58,0
325.25,325.45,67,58,0
325.25,325.45,70,58,0
325.75,325.95,69,58,0
325.75,325.95,65,58,0
325.75,325.95,62,58,0
326.25,326.45,69,58,0
326.25,326.45,65,58,0
326.25,326.45,60,58,0
327.0,327.2,89,71,0
327.0,327.2,77,71,0
327.25,327.45,88,71,0
327.25,327.45,76,71,0
327.5,327.7,86,71,0
327.5,327.7,74,71,0
327.75,327.95,76,71,0
327.75,327.95,88,71,0
328.0,328.4,72,71,0
328.0,328.4,84,71,0
328.5,328.9,83,71,0
328.5,328.9,71,71,0
329.0,329.4,81,71,0
329.0,329.4,69,71,0
330.0,330.4,59,71,0
330.0,330.4,56,71,0
330.5,330.9,57,71,0
0.0,0.2,65,71,0
0.25,0.45,64,71,0
0.5,0.7,62,71,0
0.75,0.95,64,71,0
1.0,1.4,60,71,0
1.5,1.9,59,71,0
2.0,2.2,69,71,0
2.25,2.45,65,71,0
2.0,2.8,60,71,0
2.5,2.9,64,71,0
3.0,3.4,64,71,0
3.0,3.4,60,71,0
3.5,3.7,71,71,0
3.75,3.95,65,71,0
3.5,4.3,62,71,0
4.0,4.4,64,71,0
4.5,4.9,62,71,0
4.5,4.9,64,71,0
5.0,5.2,69,71,0
5.25,5.45,65,71,0
5.0,5.8,60,71,0
5.5,5.9,64,71,0
6.0,6.4,64,71,0
6.0,6.4,60,71,0
6.5,6.7,74,71,0
6.75,6.95,68,71,0
6.5,7.3,65,71,0
7.0,7.4,67,71,0
7.5,7.9,65,71,0
7.5,7.9,67,71,0
8.0,8.2,72,71,0
8.25,8.45,69,71,0
8.0,8.8,64,71,0
8.5,8.9,67,71,0
9.0,9.4,64,71,0
9.0,9.4,67,71,0
9.5,9.7,76,71,0
9.5,9.9,67,71,0
9.75,9.95,71,71,0
10.0,10.4,69,71,0
10.0,10.4,72,71,0
10.5,10.9,67,71,0
10.5,10.9,71,71,0
11.0,11.2,71,71,0
11.0,11.4,62,71,0
11.25,11.45,66,71,0
11.5,11.9,64,71,0
11.5,11.9,67,71,0
12.0,12.4,62,71,0
12.0,12.4,66,71,0
13.5,13.9,53,71,0
13.5,13.9,57,71,0
13.5,13.9,62,71,0
14.0,14.4,60,71,0
14.0,14.4,57,71,0
14.0,14.8,52,71,0
14.5,14.9,59,71,0
14.5,14.9,56,71,0
15.5,15.9,60,71,0
16.0,16.4,59,71,0
16.5,16.9,62,71,0
16.5,16.9,57,71,0
16.5,16.9,53,71,0
17.0,17.4,60,71,0
17.0,17.4,57,71,0
17.0,17.8,52,71,0
17.5,17.9,59,71,0
17.5,17.9,56,71,0
18.0,18.4,53,71,0
18.0,18.4,57,71,0
18.5,18.9,57,71,0
18.5,19.3,52,71,0
19.0,19.4,56,71,0
19.5,19.9,57,71,0
19.5,19.9,53,71,0
20.0,20.4,57,71,0
20.0,20.8,52,71,0
20.5,20.9,56,71,0
22.5,22.9,40,71,0
22.5,22.9,52,71,0
23.0,23.4,45,71,0
23.0,23.4,33,71,0
24.0,24.4,45,71,0
24.0,24.4,57,71,0
24.5,24.9,52,71,0
24.5,24.9,40,71,0
25.5,25.9,52,71,0
25.5,25.9,59,71,0
26.0,26.4,45,71,0
26.0,26.4,33,71,0
27.0,27.4,45,71,0
27.0,27.4,57,71,0
27.5,27.9,43,71,0
27.5,27.9,31,71,0
28.5,28.9,43,71,0
28.5,28.9,50,71,0
29.0,29.4,36,71,0
29.0,29.4,48,71,0
30.0,30.4,60,71,0
30.0,30.4,48,71,0
30.5,30.9,52,71,0
30.5,30.9,40,71,0
31.0,31.4,45,71,0
31.0,31.4,57,71,0
31.5,31.9,52,71,0
31.5,31.9,40,71,0
32.0,32.4,35,71,0
32.0,32.4,47,71,0
32.5,32.9,52,71,0
32.5,32.9,40,71,0
33.0,33.4,47,71,0
33.0,33.4,35,71,0
33.5,33.9,38,71,0
33.5,33.9,50,71,0
34.0,34.4,43,71,0
34.5,34.9,50,71,0
35.0,35.8,52,71,0
36.0,36.4,36,71,0
36.5,36.9,38,71,0
37.0,37.4,43,71,0
37.5,37.9,50,71,0
38.0,38.4,57,71,0
38.0,38.8,52,71,0
38.5,38.9,56,71,0
39.0,39.4,57,71,0
39.0,39.4,38,71,0
39.5,39.9,57,71,0
39.5,40.3,40,71,0
40.0,40.4,56,71,0
40.5,40.9,57,71,0
40.5,40.9,38,71,0
41.0,41.4,57,71,0
41.0,41.8,40,71,0
41.5,41.9,56,71,0
42.0,42.2,65,71,0
42.25,42.45,64,71,0
42.5,42.7,62,71,0
42.75,42.95,64,71,0
43.0,43.4,61,71,0
43.5,43.9,59,71,0
45.5,45.7,69,71,0
45.75,45.95,63,71,0
45.5,46.3,60,71,0
46.0,46.4,62,71,0
46.5,46.9,60,71,0
46.5,46.9,62,71,0
47.0,47.2,68,71,0
47.25,47.45,63,71,0
47.0,47.8,59,71,0
47.5,47.9,62,71,0
48.0,48.4,59,71,0
48.0,48.4,62,71,0
48.5,48.7,55,71,0
48.5,48.7,55,71,0
48.75,48.95,62,71,0
49.0,49.4,60,71,0
49.5,49.9,55,71,0
49.5,49.9,60,71,0
50.0,50.2,55,71,0
50.0,50.2,55,71,0
50.25,50.45,62,71,0
50.5,50.9,60,71,0
51.0,51.4,55,71,0
51.0,51.4,60,71,0
51.5,51.7,55,71,0
51.5,51.7,55,71,0
51.75,51.95,60,71,0
52.0,52.4,59,71,0
52.5,52.9,55,71,0
52.5,52.9,59,71,0
53.0,53.2,55,71,0
53.0,53.2,55,71,0
53.25,53.45,62,71,0
53.5,53.9,60,71,0
54.0,54.4,55,71,0
54.0,54.4,60,71,0
54.5,54.7,55,71,0
54.5,54.7,55,71,0
54.75,54.95,60,71,0
55.0,55.4,59,71,0
55.5,55.9,55,71,0
55.5,55.9,59,71,0
56.0,56.2,36,71,0
56.25,56.45,43,71,0
56.5,56.7,48,71,0
56.75,56.95,51,71,0
57.0,57.2,55,71,0
57.25,57.45,48,71,0
57.5,57.7,57,71,0
57.75,57.95,48,71,0
58.0,58.2,59,71,0
58.25,58.45,48,71,0
58.5,58.7,60,71,0
58.75,58.95,48,71,0
59.0,59.2,36,71,0
59.25,59.45,43,71,0
59.5,59.7,48,71,0
59.75,59.95,51,71,0
60.0,60.2,55,71,0
60.25,60.45,48,71,0
60.5,60.7,57,71,0
60.75,60.95,48,71,0
61.0,61.2,59,71,0
61.25,61.45,48,71,0
61.5,61.7,60,71,0
61.75,61.95,48,71,0
62.0,62.2,36,71,0
62.25,62.45,43,71,0
62.5,62.7,48,71,0
62.75,62.95,55,71,0
63.0,63.2,60,71,0
63.25,63.45,48,71,0
63.5,63.7,62,71,0
63.75,63.95,48,71,0
64.0,64.2,64,71,0
64.25,64.45,48,71,0
64.5,64.7,65,71,0
64.75,64.95,53,71,0
65.0,65.2,41,71,0
65.25,65.45,48,71,0
65.5,65.7,53,71,0
65.75,65.95,56,71,0
66.0,66.2,60,71,0
66.25,66.45,53,71,0
66.5,66.7,62,71,0
66.75,66.95,53,71,0
67.0,67.2,64,71,0
67.25,67.45,53,71,0
67.5,67.7,65,71,0
67.75,67.95,53,71,0
68.0,68.2,43,71,0
68.25,68.45,48,71,0
68.5,68.7,52,71,0
68.75,68.95,55,71,0
69.0,69.2,60,71,0
69.25,69.45,64,71,0
69.5,69.7,67,71,0
69.75,69.95,62,71,0
70.0,70.2,59,71,0
70.25,70.45,55,71,0
70.5,70.7,61,71,0
70.75,70.95,52,71,0
71.0,71.2,38,71,0
71.25,71.45,41,71,0
71.5,71.7,45,71,0
71.75,71.95,50,71,0
72.0,72.2,53,71,0
72.25,72.45,57,71,0
72.5,72.7,60,71,0
72.75,72.95,55,71,0
73.0,73.2,52,71,0
73.25,73.45,48,71,0
73.5,73.7,54,71,0
73.75,73.95,45,71,0
74.0,74.2,43,81,0
74.25,74.45,50,81,0
74.5,74.7,55,81,0
74.75,74.95,58,81,0
75.0,75.2,62,81,0
75.25,75.45,50,81,0
75.5,75.7,41,81,0
75.75,75.95,50,81,0
76.0,76.2,53,81,0
76.25,76.45,57,81,0
76.5,76.7,62,81,0
76.75,76.95,50,81,0
77.0,77.2,40,81,0
77.25,77.45,50,81,0
77.5,77.7,52,81,0
77.75,77.95,59,81,0
78.0,78.2,62,81,0
78.25,78.45,50,81,0
78.5,78.7,42,91,0
78.75,78.95,50,91,0
79.0,79.2,54,91,0
79.25,79.45,57,91,0
79.5,79.7,62,91,0
79.75,79.95,50,91,0
80.0,80.2,43,91,0
80.25,80.45,50,91,0
80.5,80.7,55,91,0
80.75,80.95,58,91,0
81.0,81.2,62,91,0
81.25,81.45,50,91,0
81.5,81.7,40,91,0
81.75,81.95,50,91,0
82.0,82.2,52,91,0
82.25,82.45,59,91,0
82.5,82.7,62,91,0
82.75,82.95,50,91,0
83.0,83.2,55,104,0
83.0,83.2,58,104,0
83.25,83.45,62,104,0
83.5,83.7,53,104,0
83.5,83.7,57,104,0
83.75,83.95,62,104,0
84.0,84.2,56,104,0
84.0,84.2,52,104,0
84.25,84.45,62,104,0
84.5,84.7,55,104,0
84.5,84.7,58,104,0
84.75,84.95,62,104,0
85.0,85.2,53,104,0
85.0,85.2,57,104,0
85.25,85.45,62,104,0
85.5,85.7,56,104,0
85.5,85.7,52,104,0
85.75,85.95,62,104,0
86.0,86.2,56,104,0
86.0,86.2,52,104,0
86.25,86.45,64,104,0
86.5,86.7,62,104,0
86.75,86.95,64,104,0
87.0,87.2,62,104,0
87.25,87.45,64,104,0
87.5,87.7,62,104,0
87.75,87.95,64,104,0
88.0,88.4,60,104,0
88.5,88.9,59,104,0
89.0,89.4,57,71,0
89.75,89.95,62,71,0
89.75,89.95,65,71,0
90.0,90.2,64,71,0
90.0,90.2,60,71,0
90.25,90.45,57,71,0
90.5,90.9,56,71,0
91.25,91.45,62,71,0
91.25,91.45,65,71,0
91.5,91.7,64,71,0
91.5,91.7,59,71,0
91.75,91.95,56,71,0
92.0,92.4,57,71,0
92.75,92.95,62,71,0
92.75,92.95,65,71,0
93.0,93.2,64,71,0
93.0,93.2,60,71,0
93.25,93.45,57,71,0
93.5,93.9,59,71,0
94.25,94.45,68,71,0
94.25,94.45,65,71,0
94.5,94.7,67,71,0
94.5,94.7,62,71,0
94.75,94.95,59,71,0
95.0,95.4,60,71,0
95.75,95.95,69,71,0
96.0,96.2,64,71,0
96.0,96.2,67,71,0
96.25,96.45,60,71,0
96.5,96.9,58,71,0
97.25,97.45,69,71,0
97.5,97.7,64,71,0
97.5,97.7,67,71,0
97.75,97.95,58,71,0
98.0,98.4,57,91,0
98.75,98.95,69,91,0
99.0,99.2,67,91,0
99.0,99.2,64,91,0
99.25,99.45,57,91,0
99.5,99.9,50,71,0
100.0,100.4,52,71,0
100.5,100.9,64,71,0
101.0,101.4,65,58,0
101.0,101.4,62,58,0
101.0,101.8,57,58,0
101.5,101.9,64,58,0
101.5,101.9,61,58,0
102.5,102.9,50,58,0
103.0,103.4,52,58,0
103.5,103.9,64,58,0
104.0,104.4,62,58,0
104.0,104.4,65,58,0
104.0,104.8,57,58,0
104.5,104.9,61,58,0
104.5,104.9,64,58,0
105.5,105.9,38,71,0
106.0,106.4,40,71,0
106.5,106.9,42,58,0
107.0,107.4,43,58,0
107.5,107.9,46,58,0
108.0,108.4,50,58,0
108.5,108.9,51,58,0
109.40625,109.4375,52,58,0
109.40625,109.4375,57,58,0
109.4375,109.46875,60,58,0
109.5625,109.9625,57,71,0
109.5625,109.9625,52,71,0
109.5625,109.9625,64,71,0
109.5625,109.9625,60,71,0
110.40625,110.4375,59,71,0
110.40625,110.4375,52,71,0
110.4375,110.46875,62,71,0
110.5625,110.9625,59,71,0
110.5625,110.9625,62,71,0
110.5625,110.9625,68,71,0
110.5625,110.9625,52,71,0
111.5,111.925,57,71,0
111.625,111.925,64,71,0
111.5625,111.925,60,71,0
112.25,112.45,52,71,0
112.5,112.9,40,71,0
113.0,113.4,33,71,0
113.0,113.4,45,71,0
114.0,114.2,62,71,0
114.25,114.45,61,71,0
114.5,114.7,60,71,0
114.75,114.95,61,71,0
115.5,115.7,62,71,0
115.75,115.95,61,71,0
116.0,116.2,60,71,0
116.25,116.45,61,71,0
117.5,117.7,42,71,0
117.75,117.95,49,71,0
118.0,118.2,54,71,0
118.25,118.45,57,71,0
118.5,118.7,61,71,0
118.75,118.95,66,71,0
119.0,119.2,44,71,0
119.25,119.45,49,71,0
119.5,119.7,53,71,0
119.75,119.95,59,71,0
120.0,120.2,62,71,0
120.25,120.45,65,71,0
120.5,120.7,47,71,0
120.75,120.95,53,71,0
121.0,121.2,56,71,0
121.25,121.45,59,71,0
121.5,121.7,65,71,0
121.75,121.95,68,71,0
122.0,122.2,45,71,0
122.25,122.45,49,71,0
122.5,122.7,54,71,0
122.75,122.95,57,71,0
123.0,123.2,61,71,0
123.25,123.45,66,71,0
123.5,123.7,46,81,0
123.75,123.95,52,81,0
124.0,124.2,54,81,0
124.25,124.45,61,81,0
124.5,124.7,47,81,0
124.75,124.95,51,81,0
125.0,125.2,54,81,0
125.25,125.45,63,81,0
125.5,125.7,49,81,0
125.75,125.95,54,81,0
126.0,126.2,58,81,0
126.25,126.45,64,81,0
126.5,126.7,51,91,0
126.75,126.95,54,91,0
127.0,127.2,59,91,0
127.25,127.45,66,91,0
127.5,127.7,50,91,0
127.75,127.95,54,91,0
128.0,128.2,49,91,0
128.25,128.45,54,91,0
128.5,128.7,58,91,0
128.75,128.95,61,91,0
129.0,129.2,49,91,0
129.25,129.45,53,91,0
129.5,129.7,42,71,0
129.75,129.95,49,71,0
130.0,130.2,54,71,0
130.25,130.45,57,71,0
130.5,130.7,61,71,0
130.75,130.95,66,71,0
131.0,131.4,69,71,0
134.0,134.2,42,71,0
134.25,134.45,49,71,0
134.5,134.7,54,71,0
134.75,134.95,57,71,0
135.0,135.2,61,71,0
135.25,135.45,66,71,0
135.5,135.7,44,71,0
135.75,135.95,49,71,0
136.0,136.2,53,71,0
136.25,136.45,59,71,0
136.5,136.7,62,71,0
136.75,136.95,65,71,0
137.0,137.2,47,71,0
137.25,137.45,53,71,0
137.5,137.7,56,71,0
137.75,137.95,59,71,0
138.0,138.2,65,71,0
138.25,138.45,68,71,0
138.5,138.7,45,71,0
138.75,138.95,49,71,0
139.0,139.2,54,71,0
139.25,139.45,57,71,0
139.5,139.7,61,71,0
139.75,139.95,66,71,0
140.0,140.2,46,81,0
140.25,140.45,52,81,0
140.5,140.7,54,81,0
140.75,140.95,61,81,0
141.0,141.2,47,81,0
141.25,141.45,51,81,0
141.5,141.7,54,81,0
141.75,141.95,63,81,0
142.0,142.2,49,81,0
142.25,142.45,54,81,0
142.5,142.7,58,81,0
142.75,142.95,64,81,0
143.0,143.2,51,91,0
143.25,143.45,54,91,0
143.5,143.7,59,91,0
143.75,143.95,66,91,0
144.0,144.2,50,91,0
144.25,144.45,54,91,0
144.5,144.7,49,91,0
144.75,144.95,54,91,0
145.0,145.2,58,91,0
145.25,145.45,61,91,0
145.5,145.7,49,91,0
145.75,145.95,53,91,0
146.0,146.2,42,71,0
146.25,146.45,49,71,0
146.5,146.7,54,71,0
146.75,146.95,57,71,0
147.0,147.2,61,71,0
147.25,147.45,66,71,0
147.5,147.9,69,71,0
150.5,150.7,45,71,0
150.75,150.95,52,71,0
151.0,151.2,57,71,0
151.25,151.45,61,71,0
151.5,151.7,64,71,0
151.75,151.95,69,71,0
152.0,152.2,47,71,0
152.25,152.45,56,71,0
152.5,152.7,59,71,0
152.75,152.95,62,71,0
153.0,153.2,65,71,0
153.25,153.45,68,71,0
153.5,153.7,50,71,0
153.75,153.95,56,71,0
154.0,154.2,59,71,0
154.25,154.45,65,71,0
155.0,155.2,49,71,0
155.25,155.45,52,71,0
155.5,155.7,57,71,0
155.75,155.95,64,71,0
156.0,156.2,69,71,0
156.25,156.45,73,71,0
156.5,156.7,55,81,0
156.5,156.7,55,81,0
156.75,156.95,61,81,0
157.0,157.2,64,81,0
157.25,157.45,69,81,0
157.5,157.7,54,81,0
157.5,157.7,54,81,0
157.75,157.95,57,81,0
158.0,158.2,62,81,0
158.25,158.45,69,81,0
158.5,158.7,53,91,0
158.5,158.7,53,91,0
158.75,158.95,57,91,0
159.0,159.2,62,91,0
159.25,159.45,69,91,0
159.5,159.7,52,91,0
159.75,159.95,57,91,0
160.0,160.2,61,91,0
160.25,160.45,69,91,0
160.5,160.7,53,104,0
160.75,160.95,59,104,0
161.0,161.2,54,104,0
161.25,161.45,57,104,0
161.5,161.7,61,91,0
161.75,161.95,64,91,0
162.0,162.2,48,81,0
162.25,162.45,57,81,0
162.5,162.7,49,71,0
162.75,162.95,56,71,0
163.0,163.2,59,71,0
163.25,163.45,65,71,0
163.5,163.7,68,71,0
163.75,163.95,71,71,0
165.0,165.2,64,71,0
165.25,165.45,62,71,0
165.5,165.7,58,71,0
165.75,165.95,59,71,0
166.5,166.7,62,71,0
166.75,166.95,61,71,0
167.0,167.2,42,71,0
167.25,167.45,49,71,0
167.5,167.7,54,71,0
167.75,167.95,57,71,0
168.0,168.2,41,71,0
168.25,168.45,45,71,0
168.5,168.7,50,71,0
168.75,168.95,57,71,0
169.0,169.2,38,81,0
169.25,169.45,45,81,0
169.5,169.7,50,81,0
169.75,169.95,53,81,0
170.0,170.2,37,91,0
170.25,170.45,40,91,0
170.5,170.7,45,81,0
170.75,170.95,52,81,0
171.0,171.2,49,71,0
171.25,171.45,59,71,0
171.5,171.7,42,71,0
171.75,171.95,49,71,0
172.0,172.2,54,71,0
172.25,172.45,57,71,0
172.5,172.7,61,71,0
172.75,172.95,66,71,0
173.0,173.2,42,71,0
173.25,173.45,49,71,0
173.5,173.7,54,71,0
173.75,173.95,57,71,0
174.0,174.2,41,81,0
174.25,174.45,45,81,0
174.5,174.7,50,81,0
174.75,174.95,57,81,0
175.0,175.2,38,91,0
175.25,175.45,45,91,0
175.5,175.7,50,91,0
175.75,175.95,53,91,0
176.0,176.2,37,104,0
176.25,176.45,40,104,0
176.5,176.7,45,91,0
176.75,176.95,52,91,0
177.0,177.2,49,81,0
177.25,177.45,59,81,0
177.5,177.7,42,81,0
177.75,177.95,49,81,0
178.0,178.2,54,81,0
178.25,178.45,57,81,0
178.5,178.7,61,81,0
179.0,179.2,45,81,0
179.25,179.45,52,81,0
179.5,179.7,57,81,0
179.75,179.95,61,81,0
180.0,180.2,64,81,0
180.25,180.45,69,81,0
180.5,180.7,47,81,0
180.75,180.95,56,81,0
181.0,181.2,59,81,0
181.25,181.45,62,81,0
181.5,181.7,65,81,0
181.75,181.95,68,81,0
182.0,182.2,50,81,0
182.25,182.45,56,81,0
182.5,182.7,59,81,0
182.75,182.95,65,81,0
183.5,183.7,49,81,0
183.75,183.95,52,81,0
184.0,184.2,57,81,0
184.25,184.45,64,81,0
184.5,184.7,69,81,0
184.75,184.95,73,81,0
185.0,185.2,55,81,0
185.0,185.2,55,81,0
185.25,185.45,61,81,0
185.5,185.7,64,81,0
185.75,185.95,69,81,0
186.0,186.2,54,81,0
186.0,186.2,54,81,0
186.25,186.45,57,81,0
186.5,186.7,62,81,0
186.75,186.95,69,81,0
187.0,187.2,53,91,0
187.0,187.2,53,91,0
187.25,187.45,57,91,0
187.5,187.7,62,91,0
187.75,187.95,69,91,0
188.0,188.2,52,91,0
188.25,188.45,57,91,0
188.5,188.7,61,91,0
188.75,188.95,69,91,0
189.0,189.2,53,104,0
189.25,189.45,59,104,0
189.5,189.7,54,104,0
189.75,189.95,57,104,0
190.0,190.2,61,91,0
190.25,190.45,64,91,0
190.5,190.7,48,81,0
190.75,190.95,57,81,0
191.0,191.2,49,71,0
191.25,191.45,56,71,0
191.5,191.7,59,71,0
191.75,191.95,65,71,0
192.0,192.2,68,71,0
192.25,192.45,71,71,0
193.5,193.7,64,71,0
193.75,193.95,62,71,0
194.0,194.2,58,71,0
194.25,194.45,59,71,0
195.0,195.2,62,71,0
195.25,195.45,61,71,0
195.5,195.7,42,71,0
195.75,195.95,49,71,0
196.0,196.2,54,71,0
196.25,196.45,57,71,0
196.5,196.7,41,71,0
196.75,196.95,45,71,0
197.0,197.2,50,71,0
197.25,197.45,57,71,0
197.5,197.7,38,81,0
197.75,197.95,45,81,0
198.0,198.2,50,81,0
198.25,198.45,53,81,0
198.5,198.7,37,91,0
198.75,198.95,40,91,0
199.0,199.2,45,81,0
199.25,199.45,52,81,0
199.5,199.7,49,71,0
199.75,199.95,59,71,0
200.0,200.2,42,71,0
200.25,200.45,49,71,0
200.5,200.7,54,71,0
200.75,200.95,57,71,0
201.0,201.2,61,71,0
201.25,201.45,66,71,0
201.5,201.7,42,71,0
201.75,201.95,49,71,0
202.0,202.2,54,71,0
202.25,202.45,57,71,0
202.5,202.7,41,81,0
202.75,202.95,45,81,0
203.0,203.2,50,81,0
203.25,203.45,57,81,0
203.5,203.7,38,91,0
203.75,203.95,45,91,0
204.0,204.2,50,91,0
204.25,204.45,53,91,0
204.5,204.7,37,104,0
204.75,204.95,40,104,0
205.0,205.2,45,91,0
205.25,205.45,52,91,0
205.5,205.7,49,81,0
205.75,205.95,59,81,0
206.0,206.2,42,81,0
206.25,206.45,49,81,0
206.5,206.7,57,81,0
206.75,206.95,42,81,0
207.0,207.2,58,81,0
207.25,207.45,49,81,0
207.5,207.7,42,81,0
207.75,207.95,50,81,0
208.0,208.2,59,81,0
208.25,208.45,42,81,0
208.5,208.7,57,81,0
208.75,208.95,42,81,0
209.0,209.2,56,81,0
209.25,209.45,42,81,0
209.5,209.7,54,81,0
209.75,209.95,42,81,0
210.0,210.2,53,81,0
210.25,210.45,42,81,0
210.5,210.7,50,81,0
210.75,210.95,42,81,0
211.0,211.2,49,81,0
211.25,211.45,42,81,0
211.5,211.7,49,81,0
211.75,211.95,42,81,0
212.0,212.2,49,81,0
212.25,212.45,42,81,0
212.5,212.7,50,58,0
212.75,212.95,41,58,0
213.0,213.2,50,58,0
213.25,213.45,41,58,0
213.5,213.7,50,58,0
213.75,213.95,41,58,0
214.0,214.13333,40,81,0
214.16667,214.3,50,81,0
214.33333,214.46666,52,81,0
215.5,215.9,65,91,0
216.0,216.4,64,91,0
216.5,216.9,65,91,0
217.0,217.4,64,91,0
217.5,217.7,65,71,0
217.75,217.95,64,71,0
218.0,218.2,62,71,0
218.25,218.45,64,71,0
218.5,218.9,60,71,0
219.0,219.4,59,71,0
219.5,219.7,69,71,0
219.75,219.95,65,71,0
219.5,220.3,60,71,0
220.0,220.4,64,71,0
220.5,220.9,64,71,0
220.5,220.9,60,71,0
221.0,221.2,71,71,0
221.25,221.45,65,71,0
221.0,221.8,62,71,0
221.5,221.9,64,71,0
222.0,222.4,62,71,0
222.0,222.4,64,71,0
222.5,222.7,69,71,0
222.75,222.95,65,71,0
222.5,223.3,60,71,0
223.0,223.4,64,71,0
223.5,223.9,64,71,0
223.5,223.9,60,71,0
224.0,224.2,74,71,0
224.25,224.45,68,71,0
224.0,224.8,65,71,0
224.5,224.9,67,71,0
225.0,225.4,65,71,0
225.0,225.4,67,71,0
225.5,225.7,72,71,0
225.75,225.95,69,71,0
225.5,226.3,64,71,0
226.0,226.4,67,71,0
226.5,226.9,64,71,0
226.5,226.9,67,71,0
227.0,227.2,76,71,0
227.0,227.4,67,71,0
227.25,227.45,71,71,0
227.5,227.9,69,71,0
227.5,227.9,72,71,0
228.0,228.4,67,71,0
228.0,228.4,71,71,0
228.5,228.7,71,71,0
228.5,228.9,62,71,0
228.75,228.95,66,71,0
229.0,229.4,64,71,0
229.0,229.4,67,71,0
229.5,229.9,62,71,0
229.5,229.9,66,71,0
231.0,231.4,53,71,0
231.0,231.4,57,71,0
231.0,231.4,62,71,0
231.5,231.9,60,71,0
231.5,231.9,57,71,0
231.5,232.3,52,71,0
232.0,232.4,59,71,0
232.0,232.4,56,71,0
233.0,233.4,60,71,0
233.5,233.9,59,71,0
234.0,234.4,62,71,0
234.0,234.4,57,71,0
234.0,234.4,53,71,0
234.5,234.9,60,71,0
234.5,234.9,57,71,0
234.5,235.3,52,71,0
235.0,235.4,59,71,0
235.0,235.4,56,71,0
235.5,235.9,53,71,0
235.5,235.9,57,71,0
236.0,236.4,57,71,0
236.0,236.8,52,71,0
236.5,236.9,56,71,0
237.0,237.4,57,71,0
237.0,237.4,53,71,0
237.5,237.9,57,71,0
237.5,238.3,52,71,0
238.0,238.4,56,71,0
240.0,240.4,40,71,0
240.0,240.4,52,71,0
240.5,240.9,45,71,0
240.5,240.9,33,71,0
241.5,241.9,45,71,0
241.5,241.9,57,71,0
242.0,242.4,52,71,0
242.0,242.4,40,71,0
243.0,243.4,52,71,0
243.0,243.4,59,71,0
243.5,243.9,45,71,0
243.5,243.9,33,71,0
244.5,244.9,45,71,0
244.5,244.9,57,71,0
245.0,245.4,43,71,0
245.0,245.4,31,71,0
246.0,246.4,43,71,0
246.0,246.4,50,71,0
246.5,246.9,36,71,0
246.5,246.9,48,71,0
247.5,247.9,60,71,0
247.5,247.9,48,71,0
248.0,248.4,52,71,0
248.0,248.4,40,71,0
248.5,248.9,45,71,0
248.5,248.9,57,71,0
249.0,249.4,52,71,0
249.0,249.4,40,71,0
249.5,249.9,35,71,0
249.5,249.9,47,71,0
250.0,250.4,52,71,0
250.0,250.4,40,71,0
250.5,250.9,47,71,0
250.5,250.9,35,71,0
251.0,251.4,38,71,0
251.0,251.4,50,71,0
251.5,251.9,43,71,0
252.0,252.4,50,71,0
252.5,253.3,52,71,0
253.5,253.9,36,71,0
254.0,254.4,38,71,0
254.5,254.9,43,71,0
255.0,255.4,50,71,0
255.5,255.9,57,71,0
255.5,256.3,52,71,0
256.0,256.4,56,71,0
256.5,256.9,57,71,0
256.5,256.9,38,71,0
257.0,257.4,57,71,0
257.0,257.8,40,71,0
257.5,257.9,56,71,0
258.0,258.4,57,71,0
258.0,258.4,38,71,0
258.5,258.9,57,71,0
258.5,259.3,40,71,0
259.0,259.4,56,71,0
259.5,259.7,65,71,0
259.75,259.95,64,71,0
260.0,260.2,62,71,0
260.25,260.45,64,71,0
260.5,260.9,61,71,0
261.0,261.4,59,71,0
263.0,263.2,69,71,0
263.25,263.45,63,71,0
263.0,263.8,60,71,0
263.5,263.9,62,71,0
264.0,264.4,60,71,0
264.0,264.4,62,71,0
264.5,264.7,68,71,0
264.75,264.95,63,71,0
264.5,265.3,59,71,0
265.0,265.4,62,71,0
265.5,265.9,59,71,0
265.5,265.9,62,71,0
266.0,266.2,55,71,0
266.0,266.2,55,71,0
266.25,266.45,62,71,0
266.5,266.9,60,71,0
267.0,267.4,55,71,0
267.0,267.4,60,71,0
267.5,267.7,55,71,0
267.5,267.7,55,71,0
267.75,267.95,62,71,0
268.0,268.4,60,71,0
268.5,268.9,55,71,0
268.5,268.9,60,71,0
269.0,269.2,55,71,0
269.0,269.2,55,71,0
269.25,269.45,60,71,0
269.5,269.9,59,71,0
270.0,270.4,55,71,0
270.0,270.4,59,71,0
270.5,270.7,55,71,0
270.5,270.7,55,71,0
270.75,270.95,62,71,0
271.0,271.4,60,71,0
271.5,271.9,55,71,0
271.5,271.9,60,71,0
272.0,272.2,55,71,0
272.0,272.2,55,71,0
272.25,272.45,60,71,0
272.5,272.9,59,71,0
273.0,273.4,55,71,0
273.0,273.4,59,71,0
273.5,273.7,36,71,0
273.75,273.95,43,71,0
274.0,274.2,48,71,0
274.25,274.45,51,71,0
274.5,274.7,55,71,0
274.75,274.95,48,71,0
275.0,275.2,57,71,0
275.25,275.45,48,71,0
275.5,275.7,59,71,0
275.75,275.95,48,71,0
276.0,276.2,60,71,0
276.25,276.45,48,71,0
276.5,276.7,36,71,0
276.75,276.95,43,71,0
277.0,277.2,48,71,0
277.25,277.45,51,71,0
277.5,277.7,55,71,0
277.75,277.95,48,71,0
278.0,278.2,57,71,0
278.25,278.45,48,71,0
278.5,278.7,59,71,0
278.75,278.95,48,71,0
279.0,279.2,60,71,0
279.25,279.45,48,71,0
279.5,279.7,36,71,0
279.75,279.95,43,71,0
280.0,280.2,48,71,0
280.25,280.45,55,71,0
280.5,280.7,60,71,0
280.75,280.95,48,71,0
281.0,281.2,62,71,0
281.25,281.45,48,71,0
281.5,281.7,64,71,0
281.75,281.95,48,71,0
282.0,282.2,65,71,0
282.25,282.45,53,71,0
282.5,282.7,41,71,0
282.75,282.95,48,71,0
283.0,283.2,53,71,0
283.25,283.45,56,71,0
283.5,283.7,60,71,0
283.75,283.95,53,71,0
284.0,284.2,62,71,0
284.25,284.45,53,71,0
284.5,284.7,64,71,0
284.75,284.95,53,71,0
285.0,285.2,65,71,0
285.25,285.45,53,71,0
285.5,285.7,43,71,0
285.75,285.95,48,71,0
286.0,286.2,52,71,0
286.25,286.45,55,71,0
286.5,286.7,60,71,0
286.75,286.95,64,71,0
287.0,287.2,67,71,0
287.25,287.45,62,71,0
287.5,287.7,59,71,0
287.75,287.95,55,71,0
288.0,288.2,61,71,0
288.25,288.45,52,71,0
288.5,288.7,38,71,0
288.75,288.95,41,71,0
289.0,289.2,45,71,0
289.25,289.45,50,71,0
289.5,289.7,53,71,0
289.75,289.95,57,71,0
290.0,290.2,60,71,0
290.25,290.45,55,71,0
290.5,290.7,52,71,0
290.75,290.95,48,71,0
291.0,291.2,54,71,0
291.25,291.45,45,71,0
291.5,291.7,43,81,0
291.75,291.95,50,81,0
292.0,292.2,55,81,0
292.25,292.45,58,81,0
292.5,292.7,62,81,0
292.75,292.95,50,81,0
293.0,293.2,41,81,0
293.25,293.45,50,81,0
293.5,293.7,53,81,0
293.75,293.95,57,81,0
294.0,294.2,62,81,0
294.25,294.45,50,81,0
294.5,294.7,40,81,0
294.75,294.95,50,81,0
295.0,295.2,52,81,0
295.25,295.45,59,81,0
295.5,295.7,62,81,0
295.75,295.95,50,81,0
296.0,296.2,42,91,0
296.25,296.45,50,91,0
296.5,296.7,54,91,0
296.75,296.95,57,91,0
297.0,297.2,62,91,0
297.25,297.45,50,91,0
297.5,297.7,43,91,0
297.75,297.95,50,91,0
298.0,298.2,55,91,0
298.25,298.45,58,91,0
298.5,298.7,62,91,0
298.75,298.95,50,91,0
299.0,299.2,40,91,0
299.25,299.45,50,91,0
299.5,299.7,52,91,0
299.75,299.95,59,91,0
300.0,300.2,62,91,0
300.25,300.45,50,91,0
300.5,300.7,55,104,0
300.5,300.7,58,104,0
300.75,300.95,62,104,0
301.0,301.2,53,104,0
301.0,301.2,57,104,0
301.25,301.45,62,104,0
301.5,301.7,56,104,0
301.5,301.7,52,104,0
301.75,301.95,62,104,0
302.0,302.2,55,104,0
302.0,302.2,58,104,0
302.25,302.45,62,104,0
302.5,302.7,53,104,0
302.5,302.7,57,104,0
302.75,302.95,62,104,0
303.0,303.2,56,104,0
303.0,303.2,52,104,0
303.25,303.45,62,104,0
303.5,303.7,56,104,0
303.5,303.7,52,104,0
303.75,303.95,64,104,0
304.0,304.2,62,104,0
304.25,304.45,64,104,0
304.5,304.7,62,104,0
304.75,304.95,64,104,0
305.0,305.2,62,104,0
305.25,305.45,64,104,0
305.5,305.9,60,104,0
306.0,306.4,59,104,0
306.5,306.9,57,71,0
307.25,307.45,62,71,0
307.25,307.45,65,71,0
307.5,307.7,64,71,0
307.5,307.7,60,71,0
307.75,307.95,57,71,0
308.0,308.4,56,71,0
308.75,308.95,62,71,0
308.75,308.95,65,71,0
309.0,309.2,64,71,0
309.0,309.2,59,71,0
309.25,309.45,56,71,0
309.5,309.9,57,71,0
310.25,310.45,62,71,0
310.25,310.45,65,71,0
310.5,310.7,64,71,0
310.5,310.7,60,71,0
310.75,310.95,57,71,0
311.0,311.4,59,71,0
311.75,311.95,68,71,0
311.75,311.95,65,71,0
312.0,312.2,67,71,0
312.0,312.2,62,71,0
312.25,312.45,59,71,0
312.5,312.9,60,71,0
313.25,313.45,69,71,0
313.5,313.7,64,71,0
313.5,313.7,67,71,0
313.75,313.95,60,71,0
314.0,314.4,58,71,0
314.75,314.95,69,71,0
315.0,315.2,64,71,0
315.0,315.2,67,71,0
315.25,315.45,58,71,0
315.5,315.9,57,91,0
316.25,316.45,69,91,0
316.5,316.7,67,91,0
316.5,316.7,64,91,0
316.75,316.95,57,91,0
317.0,317.4,50,71,0
317.5,317.9,52,71,0
318.0,318.4,64,71,0
318.5,318.9,65,58,0
318.5,318.9,62,58,0
318.5,319.3,57,58,0
319.0,319.4,64,58,0
319.0,319.4,61,58,0
320.0,320.4,50,58,0
320.5,320.9,52,58,0
321.0,321.4,64,58,0
321.5,321.9,62,58,0
321.5,321.9,65,58,0
321.5,322.3,57,58,0
322.0,322.4,61,58,0
322.0,322.4,64,58,0
323.0,323.4,38,71,0
323.5,323.9,40,71,0
324.0,324.4,42,58,0
324.5,324.9,43,58,0
325.0,325.4,46,58,0
325.5,325.9,50,58,0
326.0,326.4,51,58,0
326.90625,326.9375,52,58,0
326.90625,326.9375,57,58,0
326.9375,326.96875,60,58,0
327.0625,327.4625,57,71,0
327.0625,327.4625,52,71,0
327.0625,327.4625,64,71,0
327.0625,327.4625,60,71,0
327.90625,327.9375,59,71,0
327.90625,327.9375,52,71,0
327.9375,327.96875,62,71,0
328.0625,328.4625,59,71,0
328.0625,328.4625,62,71,0
328.0625,328.4625,68,71,0
328.0625,328.4625,52,71,0
329.0,329.425,57,71,0
329.125,329.425,64,71,0
329.0625,329.425,60,71,0
329.75,329.95,52,71,0
330.0,330.4,40,71,0
330.5,330.9,33,71,0
330.5,330.9,45,71,0
