start_time,end_time,note_value,velocity,instrument_program_number
7.61904,7.999992,59,104,42
8.09523,8.698404,47,104,42
8.73015,8.857134,49,104,42
8.88888,9.015864,51,104,42
9.04761,9.174594,49,104,42
9.20634,9.333324,51,104,42
9.36507,9.492054,52,104,42
9.5238,9.650784,51,104,42
9.68253,9.809514,52,104,42
9.84126,9.968244,54,104,42
9.99999,10.603164,47,104,42
10.63491,10.761894,49,104,42
10.79364,10.920624,51,104,42
10.95237,11.079354,49,104,42
11.1111,11.238084,51,104,42
11.26983,11.396814,52,104,42
11.42856,11.555544,51,104,42
11.58729,11.714274,52,104,42
11.74602,11.873004,54,104,42
11.90475,12.507924,55,104,42
12.53967,12.666654,46,104,42
12.6984,12.825384,49,104,42
12.85713,13.460304,54,104,42
13.49205,13.619034,52,104,42
13.65078,13.777764,51,104,42
13.80951,13.936494,49,104,42
13.96824,14.095224,51,104,42
14.12697,14.253954,52,104,42
14.2857,14.412684,51,104,42
14.44443,14.571414,45,104,42
14.60316,14.730144,43,104,42
14.76189,14.888874,42,104,42
14.92062,15.047604,43,104,42
15.07935,15.206334,45,104,42
15.23808,15.619032,43,104,42
15.952365,16.142841,64,104,42
16.19046,16.380936,62,104,42
16.428555,16.619032,59,104,42
16.66665,16.857126,60,104,42
16.904745,17.09522,54,104,42
17.14284,17.333317,59,104,42
17.380936,17.571411,52,104,42
17.857124,18.047602,64,104,42
18.09522,18.285696,62,104,42
18.333315,18.52379,59,104,42
18.57141,18.761887,60,104,42
18.809505,18.99998,54,104,42
19.0476,19.238075,59,104,42
19.285694,19.476171,52,104,42
19.761885,19.95236,59,104,42
19.99998,20.190456,57,104,42
20.238075,20.42855,51,104,42
20.714266,20.904741,57,104,42
20.95236,21.142836,55,104,42
21.190454,21.380932,49,104,42
21.42855,21.619026,51,104,42
21.666645,21.85712,54,104,42
21.90474,22.095217,52,104,42
22.142836,22.333311,55,104,42
22.38093,22.571405,46,104,42
22.619024,22.809502,49,104,42
22.85712,23.047596,47,104,42
23.095215,23.28569,59,104,42
23.33331,23.714262,54,104,42
23.8095,23.999975,52,104,42
24.047594,24.238071,64,104,42
24.28569,24.666641,49,104,42
24.76188,24.888865,54,104,42
24.92061,25.047594,56,104,42
25.07934,25.206324,58,104,42
25.23807,25.365053,59,104,42
25.3968,25.523785,58,104,42
25.55553,25.682514,56,104,42
25.71426,25.841244,58,104,42
25.87299,25.999973,61,104,42
26.03172,26.158705,62,104,42
26.19045,26.317434,64,104,42
26.34918,26.476164,62,104,42
26.50791,26.634893,61,104,42
26.66664,26.857117,59,104,42
26.904736,27.095211,47,104,42
27.14283,27.523783,52,104,42
27.61902,27.809496,59,104,42
27.857115,28.04759,47,104,42
28.09521,28.476162,51,104,42
28.5714,28.761875,52,104,42
28.809496,28.999971,52,104,42
29.04759,29.238066,55,104,42
29.285685,29.47616,55,104,42
29.52378,29.904732,64,104,42
29.99997,30.047588,63,104,42
30.059494,30.107113,64,104,42
30.119017,30.166637,63,104,42
30.178541,30.22616,64,104,42
30.238066,30.285685,63,104,42
30.297588,30.345207,64,104,42
30.357113,30.404732,63,104,42
30.416636,30.464254,64,104,42
30.47616,30.666636,64,104,42
30.714254,30.904732,52,104,42
30.95235,31.142826,55,104,42
31.190445,31.38092,55,104,42
31.42854,31.809492,64,104,42
31.90473,31.952349,62,104,42
31.964254,32.01187,64,104,42
32.023777,32.071396,62,104,42
32.0833,32.13092,64,104,42
32.142826,32.190445,62,104,42
32.20235,32.24997,64,104,42
32.26187,32.30949,62,104,42
32.321396,32.369015,64,104,42
32.38092,32.605125,67,104,42
32.619015,32.80949,55,104,42
32.85711,33.047585,64,104,42
33.095203,33.285683,52,104,42
33.3333,33.523777,66,104,42
33.571396,33.76187,54,104,42
33.80949,33.999966,63,104,42
34.047585,34.23806,51,104,42
34.28568,34.476154,64,104,42
34.523773,34.714252,52,104,42
34.76187,35.142822,60,104,42
35.23806,35.428535,59,104,42
35.476154,35.66663,52,104,42
35.71425,36.095203,55,104,42
36.19044,36.571392,54,104,42
36.904724,37.0952,59,104,42
37.14282,37.333298,57,104,42
37.380917,37.571392,54,104,42
37.61901,37.809486,55,104,42
37.857105,38.04758,49,104,42
38.0952,38.285675,54,104,42
38.333294,38.52377,47,104,42
38.809486,38.99996,59,104,42
39.04758,39.238056,57,104,42
39.285675,39.47615,56,104,42
39.52377,39.714245,57,104,42
39.761864,39.95234,54,104,42
39.99996,40.190437,56,104,42
40.238056,40.42853,49,104,42
40.714245,40.90472,61,104,42
40.95234,41.142815,59,104,42
41.190434,41.380913,56,104,42
41.42853,41.619007,57,104,42
41.666626,41.8571,51,104,42
41.90472,42.095196,56,104,42
42.142815,42.33329,49,104,42
42.619003,42.809483,61,104,42
42.8571,43.047577,59,104,42
43.095196,43.28567,58,104,42
43.33329,43.523766,59,104,42
43.571384,43.76186,56,104,42
43.80948,43.999954,59,104,42
44.047577,44.238052,58,104,42
44.28567,44.476147,59,104,42
44.523766,44.71424,56,104,42
44.76186,44.952335,59,104,42
44.999954,45.19043,58,104,42
45.23805,45.428528,59,104,42
45.476147,45.666622,54,104,42
45.71424,45.904716,59,104,42
45.952335,46.14281,58,104,42
46.19043,46.380905,59,104,42
46.428524,46.619,47,104,42
46.66662,47.047573,60,110,42
47.14281,48.761856,36,104,42
49.04757,49.42852,60,104,42
49.52376,50.666615,36,104,42
50.95233,51.333282,58,104,42
51.42852,51.80947,46,116,42
51.90471,52.285664,57,116,42
52.3809,52.761852,45,116,42
52.85709,53.23804,53,116,42
53.33328,53.714233,41,116,42
53.80947,54.190422,54,116,42
54.28566,54.66661,47,116,42
54.76185,55.142803,54,116,42
55.23804,55.428516,47,116,42
55.476135,55.66661,54,116,42
55.71423,55.904705,47,116,42
55.952324,56.1428,54,116,42
56.19042,56.380898,47,116,42
56.428516,56.61899,54,116,42
56.66661,56.857086,47,124,42
57.1428,57.52375,64,116,42
57.61899,58.222164,40,116,42
58.25391,58.380894,42,116,42
58.41264,58.539623,43,116,42
58.57137,58.698353,42,116,42
58.7301,58.857082,43,116,42
58.88883,59.015816,45,116,42
59.04756,59.174545,43,116,42
59.20629,59.333275,45,116,42
59.36502,59.492004,47,116,42
59.52375,60.126923,40,116,42
60.15867,60.285652,42,116,42
60.3174,60.444386,43,116,42
60.47613,60.603115,42,116,42
60.63486,60.761845,43,116,42
60.79359,60.920574,45,116,42
60.95232,61.079304,43,116,42
61.11105,61.238033,45,116,42
61.26978,61.396763,47,116,42
61.42851,61.809464,40,116,42
61.9047,62.031685,42,116,42
62.06343,62.190414,43,116,42
62.22216,62.349144,45,116,42
62.38089,62.76184,38,116,42
62.85708,62.984062,40,116,42
63.01581,63.142796,41,116,42
63.17454,63.301525,43,116,42
63.33327,63.523746,36,116,42
63.571365,63.76184,48,116,42
63.80946,63.999935,39,116,42
64.047554,64.23803,40,116,42
64.28565,64.6666,47,116,42
64.76184,65.14279,40,116,42
65.23803,65.8412,64,116,42
65.87295,65.99993,62,116,42
66.03168,66.15866,60,116,42
66.19041,66.31739,62,116,42
66.34914,66.47613,60,116,42
66.50787,66.63486,59,116,42
66.6666,66.79359,60,116,42
66.82533,66.95232,59,116,42
66.98406,67.111046,57,116,42
67.14279,67.745964,64,116,42
67.77771,67.90469,62,116,42
67.93644,68.06342,60,116,42
68.09517,68.22215,62,116,42
68.2539,68.38088,60,116,42
68.41263,68.53961,59,116,42
68.57136,68.69834,60,116,42
68.73009,68.85707,59,116,42
68.88882,69.0158,57,116,42
69.04755,69.65073,64,116,42
69.68247,69.809456,60,116,42
69.8412,69.968185,57,116,42
69.99993,70.38088,64,116,42
70.47612,70.85707,60,71,42
70.95231,71.33326,57,71,42
71.4285,71.80945,55,71,42
71.90469,72.285645,52,71,42
72.38088,73.142784,64,104,42
73.33326,74.09516,38,104,42
74.28564,75.04755,37,104,42
75.23802,75.99992,67,104,42
76.1904,76.9523,36,104,42
77.14278,77.904686,67,104,42
78.09516,78.85706,36,104,42
79.04754,80.380875,69,104,42
80.47611,80.85706,66,91,42
80.9523,81.33325,64,81,42
81.42849,81.80944,62,81,42
82.38087,82.761826,50,81,42
82.85706,83.460236,62,81,42
83.49198,83.618965,60,81,42
83.65071,83.777695,59,81,42
83.80944,83.936424,60,81,42
83.96817,84.09515,59,81,42
84.1269,84.25388,57,81,42
84.28563,84.66658,55,81,42
84.76182,85.36499,67,81,42
85.39674,85.52373,66,81,42
85.55547,85.68246,64,81,42
85.7142,85.84119,66,81,42
85.87293,85.999916,64,81,42
86.03166,86.158646,62,81,42
86.66658,87.04753,52,81,42
87.14277,87.74594,64,81,42
87.77769,87.90467,62,81,42
87.93642,88.0634,60,81,42
88.09515,88.22214,62,81,42
88.25388,88.38087,60,81,42
88.41261,88.5396,59,81,42
88.57134,88.95229,57,81,42
89.04753,89.6507,69,81,42
89.68245,89.80943,67,81,42
89.84118,89.96816,66,81,42
89.99991,90.12689,67,81,42
90.15864,90.28562,64,81,42
90.31737,90.44435,62,81,42
90.4761,90.857056,57,81,42
90.95229,91.555466,69,81,42
91.58721,91.714195,67,81,42
91.74594,91.872925,66,81,42
91.90467,92.031654,67,81,42
92.0634,92.190384,64,81,42
92.22213,92.34911,62,81,42
92.38086,92.76181,57,81,42
92.85705,93.714195,69,81,42
93.80943,94.190384,57,81,42
94.28562,95.04752,60,81,42
95.238,95.9999,58,110,42
96.19038,96.571335,57,71,42
96.66657,97.04752,55,71,42
97.14276,97.90466,59,58,42
98.09514,98.85704,57,58,42
99.04752,99.17451,43,71,42
99.20625,99.33324,50,71,42
99.36498,99.49197,59,71,42
99.52371,99.650696,50,71,42
99.68244,99.809425,59,71,42
99.84117,99.968155,50,71,42
99.9999,100.126884,43,71,42
100.15863,100.285614,50,71,42
100.31736,100.44434,60,71,42
100.47609,100.60307,50,71,42
100.63482,100.7618,60,71,42
100.79355,100.92053,50,71,42
100.95228,101.07926,43,71,42
101.11101,101.23799,50,71,42
101.26974,101.39672,59,71,42
101.42847,101.55545,43,71,42
101.5872,101.71419,52,71,42
101.74593,101.87292,60,71,42
101.90466,102.03165,43,71,42
102.06339,102.19038,50,71,42
102.22212,102.349106,60,71,42
102.38085,102.507835,50,71,42
102.53958,102.666565,60,71,42
102.69831,102.825294,50,71,42
102.85704,102.984024,43,71,42
103.01577,103.14275,50,71,42
103.1745,103.30148,59,104,42
103.33323,103.71418,67,104,42
103.80942,104.19037,66,104,42
104.28561,104.666565,62,104,42
104.7618,105.14275,67,104,42
105.23799,105.61894,66,91,42
105.71418,105.904655,62,91,42
105.95228,106.14275,64,81,42
106.19037,106.380844,62,81,42
106.42847,106.61894,61,81,42
106.66656,106.85703,59,81,42
106.904655,107.09513,61,81,42
107.14275,107.80942,62,81,42
107.85703,108.04751,64,71,42
108.09513,108.28561,62,71,42
108.33322,108.523705,61,71,42
108.57132,108.761795,59,71,42
108.80942,108.99989,61,71,42
109.04751,109.71417,62,81,42
109.761795,109.95227,64,71,42
109.99989,110.19037,62,71,42
110.23798,110.42846,61,71,42
110.47608,110.603065,50,71,42
110.63481,110.761795,59,71,42
110.79354,110.920525,50,71,42
110.95227,111.079254,59,71,42
111.111,111.23798,50,71,42
111.26973,111.39671,59,71,42
111.42846,111.55544,50,71,42
111.58719,111.71417,59,71,42
111.74592,111.8729,50,71,42
111.90465,112.03163,50,71,42
112.06338,112.19036,58,71,42
112.22211,112.34909,50,71,42
112.38084,112.50783,50,71,42
112.53957,112.66656,59,71,42
112.6983,112.82529,50,71,42
112.85703,112.98402,58,71,42
113.01576,113.142746,50,71,42
113.17449,113.301476,58,71,42
113.33322,113.460205,50,71,42
113.49195,113.618935,59,71,42
113.65068,113.777664,50,71,42
113.80941,113.93639,50,71,42
113.96814,114.09512,58,71,42
114.12687,114.25385,50,71,42
114.2856,114.41258,50,81,42
114.44433,114.57131,59,91,42
114.60306,114.73004,50,71,42
114.76179,114.95226,67,71,42
115.118935,115.21417,66,71,42
115.23798,115.42846,66,71,42
115.59512,115.69036,62,71,42
115.71417,115.90465,62,71,42
116.07131,116.16655,67,71,42
116.19036,116.38084,67,71,42
116.5475,116.64274,66,71,42
116.66655,116.857025,66,71,42
117.02369,117.11893,62,71,42
117.14274,117.33321,62,71,42
117.38084,117.57131,64,71,42
117.61893,117.8094,62,58,42
117.857025,118.0475,60,58,42
118.09512,118.2856,59,58,42
118.33321,118.52369,62,58,42
118.57131,118.95226,71,71,42
119.0475,119.42845,69,71,42
119.52369,119.90464,66,71,42
119.99988,120.38083,64,71,42
120.47607,120.857025,62,71,42
120.95226,121.33321,55,71,42
121.42845,121.8094,57,71,42
121.90464,122.28559,50,71,42
122.38083,123.04749,59,71,42
123.095116,123.28559,58,71,42
123.33321,123.52369,59,71,42
123.571304,123.76178,57,71,42
123.8094,124.19035,50,71,42
124.28559,124.85702,62,81,42
124.99988,125.19035,64,71,42
125.23797,125.428444,62,71,42
125.47607,125.66654,60,71,42
125.71416,125.90463,59,71,42
125.952255,126.14273,55,71,42
126.19035,126.76178,59,81,42
126.90463,127.09511,58,71,42
127.14273,127.333206,59,71,42
127.38082,127.571304,57,71,42
127.61892,127.809395,50,71,42
127.85702,128.04749,59,71,42
128.09511,128.66653,62,71,42
128.8094,128.99988,64,71,42
129.04749,129.71416,62,71,42
129.76178,129.95226,64,81,42
129.99986,130.5713,62,91,42
130.71416,130.90463,64,81,42
130.95226,131.14273,62,71,42
131.19034,131.38081,60,71,42
131.42844,131.61891,59,71,42
131.66653,131.85701,58,71,42
131.90463,132.09511,59,71,42
132.14273,132.3332,57,71,42
132.38081,132.57129,55,71,42
132.61891,132.80939,54,71,42
132.85701,133.04749,55,71,42
133.09511,133.28558,56,71,42
133.3332,133.52368,57,71,42
133.57129,133.95224,52,71,42
134.04749,134.23796,57,71,42
134.28558,134.47606,50,71,42
134.52368,134.71416,70,71,42
134.76176,134.95224,71,71,42
134.99986,135.19034,69,71,42
135.23796,135.42844,62,71,42
135.47606,135.66653,66,71,42
135.71416,135.90463,67,71,42
135.95224,136.14272,66,71,42
136.19034,136.38081,59,71,42
136.42844,136.61891,63,71,42
136.66653,136.85701,64,71,42
136.90463,137.09511,62,71,42
137.14272,137.33319,60,71,42
137.38081,137.57129,59,71,42
137.61891,137.80939,57,71,42
138.33319,138.52367,70,91,42
138.57129,138.76176,71,91,42
138.80939,138.99986,69,91,42
139.04749,139.23796,67,91,42
139.28557,139.47604,66,91,42
139.52367,139.71414,64,91,42
139.76176,140.14272,64,91,42
140.23796,140.61891,64,91,42
140.71414,140.90462,57,81,42
141.19034,141.38081,61,81,42
141.42844,141.99986,62,81,42
142.14272,142.33319,60,81,42
142.38081,142.57129,59,81,42
142.61891,142.80939,57,81,42
142.857,142.98398,55,71,42
143.01573,143.14272,57,71,42
143.17445,143.30144,59,71,42
143.33319,143.46017,57,71,42
143.49191,143.6189,59,71,42
143.65065,143.77763,60,71,42
143.80939,143.93637,59,71,42
143.96811,144.0951,60,71,42
144.12685,144.25383,62,71,42
144.76176,144.88875,55,71,42
144.92049,145.04747,57,71,42
145.07922,145.2062,59,71,42
145.23795,145.36493,57,71,42
145.39668,145.52367,59,71,42
145.5554,145.68239,60,71,42
145.71414,145.84113,59,71,42
145.87286,145.99985,60,71,42
146.0316,146.15858,62,71,42
146.66652,146.7935,56,71,42
146.82526,146.95224,57,71,42
146.98398,147.11096,59,71,42
147.14272,147.2697,57,71,42
147.30144,147.42842,59,71,42
147.46017,147.58716,60,71,42
147.6189,147.74588,59,71,42
147.77763,147.90462,60,71,42
147.93636,148.06334,62,71,42
148.57127,149.33319,62,81,42
149.52367,150.28557,68,91,42
150.47604,150.857,66,110,42
150.95222,152.0951,54,71,42
152.3808,152.76175,64,71,42
152.857,153.99985,52,71,42
154.28555,154.66652,63,81,42
154.76175,155.52365,51,81,42
155.71413,156.57127,51,81,42
156.6665,157.42842,51,81,42
157.6189,157.99985,63,81,42
158.09508,158.47603,53,81,42
158.57127,159.33318,53,81,42
159.52365,159.9046,65,81,42
159.99985,160.3808,55,91,42
160.47603,161.23793,55,91,42
161.4284,161.80936,67,91,42
161.9046,162.28555,56,91,42
162.38078,163.1427,56,91,42
163.33318,163.71413,53,91,42
163.80936,163.99983,55,104,42
164.04745,164.23793,59,104,42
164.28555,164.47603,59,104,42
164.52365,164.71413,62,104,42
164.76173,164.95221,62,104,42
164.99983,165.1903,65,104,42
165.23793,165.4284,65,104,42
165.47603,165.6665,68,104,42
165.71413,165.9046,62,104,42
165.95221,166.14268,65,104,42
166.1903,166.38078,59,104,42
166.4284,166.61888,62,104,42
166.6665,166.85698,56,104,42
166.9046,167.09508,60,104,42
167.14268,167.33316,53,104,42
167.38078,167.57126,56,104,42
167.61888,167.80936,50,104,42
167.85698,168.04745,53,104,42
168.09508,168.28555,47,104,42
168.33316,168.52364,50,104,42
168.57126,168.76173,44,104,42
168.80936,168.99983,48,104,42
169.04745,169.23793,41,104,42
169.28554,169.47603,44,104,42
169.52364,169.71411,44,104,42
169.76173,169.95221,48,104,42
169.99983,170.1903,41,104,42
170.23793,170.4284,44,104,42
170.47601,170.66649,44,104,42
170.71411,170.90459,48,104,42
170.95221,171.14268,42,104,42
171.1903,171.38078,45,104,42
171.4284,171.80936,43,104,42
179.04744,179.23792,50,110,42
179.28554,179.47601,38,71,42
179.52364,179.71411,42,71,42
179.76172,179.9522,42,71,42
179.99982,180.38077,50,81,42
180.47601,180.85696,49,71,42
181.19029,181.38077,45,71,42
181.42839,181.61887,49,71,42
181.66649,181.85696,49,71,42
181.90459,182.28554,57,81,42
182.38077,182.76172,55,71,42
183.09506,183.28554,43,71,42
183.33315,183.52362,47,71,42
183.57124,183.76172,47,71,42
183.80934,183.99982,52,71,42
184.04744,184.23792,52,71,42
184.28552,184.47601,45,71,42
184.52362,184.7141,45,71,42
184.76172,184.9522,50,71,42
184.99982,185.19029,50,71,42
185.23792,185.42839,43,71,42
185.476,185.66647,43,71,42
185.7141,185.90457,49,81,42
185.9522,186.14267,49,81,42
186.19029,186.38077,37,91,42
186.42839,186.61887,37,91,42
186.66647,187.04744,42,91,42
190.476,190.85695,47,91,42
190.9522,191.55536,59,91,42
191.58711,191.7141,57,91,42
191.74583,191.87282,55,91,42
191.90457,192.03156,57,91,42
192.0633,192.19028,55,91,42
192.22203,192.34901,54,91,42
192.38075,192.76172,55,91,42
192.85695,193.46013,67,91,42
193.49187,193.61885,66,91,42
193.6506,193.77759,64,91,42
193.80933,193.93631,66,91,42
193.96806,194.09505,64,91,42
194.12679,194.25377,63,91,42
194.28552,194.66647,64,91,42
194.7617,195.36488,64,91,42
195.39664,195.52362,62,91,42
195.55536,195.68234,61,91,42
195.7141,196.31726,62,91,42
196.34901,196.476,61,91,42
196.50774,196.63472,59,91,42
196.66647,197.26964,61,91,42
197.30139,197.42838,59,91,42
197.46011,197.5871,58,91,42
197.61885,197.80933,59,91,42
197.85695,198.04742,60,91,42
198.09505,198.28552,61,110,42
198.33313,198.5236,49,71,42
198.57123,198.7617,53,71,42
198.80933,198.9998,53,71,42
199.04742,199.42838,61,81,42
199.5236,199.90456,60,71,42
200.2379,200.42838,48,71,42
200.47598,200.66647,52,71,42
200.71408,200.90456,52,81,42
200.95218,201.33313,60,81,42
201.42838,201.80933,59,71,42
202.14265,202.33313,47,71,42
202.38075,202.57123,51,71,42
202.61885,202.80933,51,71,42
202.85693,203.23788,59,81,42
203.33313,203.71408,58,71,42
204.04741,204.23788,46,71,42
204.2855,204.47598,51,71,42
204.5236,204.71408,51,71,42
204.7617,205.14265,58,81,42
205.23788,205.61884,59,71,42
205.95218,206.14265,47,81,42
206.19028,206.38075,51,81,42
206.42836,206.61884,51,81,42
206.66646,207.04741,59,81,42
207.14265,207.5236,58,81,42
207.85693,208.04741,46,91,42
208.09503,208.2855,51,91,42
208.33313,208.5236,51,91,42
208.57121,209.14265,58,91,42
209.2855,209.47598,58,91,42
209.5236,210.09503,63,91,42
210.23788,210.42836,59,91,42
210.47598,211.04741,63,91,42
211.19026,211.38074,60,91,42
211.42836,211.99979,64,91,42
212.14264,212.33311,59,91,42
212.38074,212.95216,63,91,42
213.09503,213.2855,64,91,42
213.33311,213.90454,61,116,42
214.04741,214.23788,64,116,42
214.2855,214.85693,61,116,42
214.99979,215.19026,64,116,42
215.23788,215.80931,61,124,42
215.95216,216.14264,64,124,42
216.19026,216.76169,61,124,42
216.90454,217.09502,64,124,42
217.14264,217.52359,63,104,42
217.61884,218.222,72,104,42
218.25375,218.38074,71,104,42
218.41248,218.53946,69,104,42
218.57121,218.6982,71,104,42
218.72993,218.85692,69,104,42
218.88867,219.01566,67,104,42
219.0474,219.17438,66,104,42
219.20613,219.33311,67,104,42
219.36485,219.49184,69,104,42
219.52359,220.12677,71,104,42
220.15851,220.28549,69,104,42
220.31725,220.44423,67,104,42
220.47597,220.60295,69,104,42
220.6347,220.76169,67,104,42
220.79343,220.92041,66,104,42
220.95216,221.07915,64,104,42
221.11089,221.23787,66,104,42
221.26962,221.3966,67,104,42
221.42834,222.03152,69,104,42
222.06326,222.19025,67,104,42
222.222,222.34898,66,104,42
222.38074,222.50772,67,104,42
222.53946,222.66644,66,104,42
222.6982,222.82518,64,104,42
222.85692,222.9839,69,104,42
223.01566,223.14264,67,104,42
223.17438,223.30136,66,104,42
223.33311,223.4601,67,104,42
223.49184,223.61882,66,104,42
223.65057,223.77756,64,104,42
223.8093,223.93628,64,104,42
223.96803,224.09502,63,104,42
224.12675,224.25374,61,104,42
224.28549,224.41248,61,104,42
224.44421,224.5712,63,104,42
224.60295,224.72993,64,104,42
224.76167,224.95215,63,104,42
224.99977,225.19025,59,104,42
225.23787,225.84105,72,104,42
225.87279,225.99977,71,104,42
226.03152,226.15851,69,104,42
226.19025,226.31723,71,104,42
226.34898,226.47597,69,104,42
226.5077,226.63469,67,104,42
226.66644,226.79343,66,104,42
226.82516,226.95215,67,104,42
226.9839,227.11089,69,104,42
227.14262,227.7458,71,104,42
227.77756,227.90454,69,104,42
227.93628,228.06326,67,104,42
228.09502,228.222,69,104,42
228.25374,228.38072,67,104,42
228.41248,228.53946,66,104,42
228.5712,228.69818,64,104,42
228.72993,228.85692,66,104,42
228.88866,229.01564,67,104,42
229.0474,229.65056,69,104,42
229.68231,229.8093,67,104,42
229.84103,229.96802,66,104,42
229.99977,230.12675,67,104,42
230.1585,230.28548,66,104,42
230.31723,230.44421,64,104,42
230.47597,230.60295,69,104,42
230.63469,230.76167,67,104,42
230.79343,230.92041,66,104,42
230.95215,231.07913,67,104,42
231.11089,231.23787,66,104,42
231.2696,231.39659,64,104,42
231.42834,231.55533,64,104,42
231.58707,231.71405,63,104,42
231.7458,231.87279,61,104,42
231.90453,232.03151,61,104,42
232.06326,232.19025,63,104,42
232.22198,232.34897,64,104,42
232.38072,232.5712,63,104,42
232.8569,233.23787,71,91,42
233.3331,233.71405,70,91,42
233.8093,234.19025,66,91,42
234.28548,234.66643,71,91,42
234.76167,235.14262,70,91,42
235.23785,235.42833,66,91,42
235.47595,235.66643,68,91,42
235.71405,235.90453,66,91,42
235.95215,236.14262,64,91,42
236.19025,236.38072,63,91,42
236.42833,236.6188,66,91,42
236.66643,237.04738,75,71,42
237.14262,237.52357,73,71,42
237.6188,237.99976,70,71,42
238.095,238.47595,68,71,42
238.5712,238.95215,66,71,42
239.04738,239.42833,59,71,42
239.52357,239.90453,61,71,42
239.99976,240.3807,63,71,42
240.47595,241.04738,63,81,42
241.19023,241.3807,62,71,42
241.42833,241.6188,63,71,42
241.66643,241.8569,61,71,42
241.90453,242.095,54,71,42
242.14261,242.33308,63,71,42
242.3807,242.95213,66,81,42
243.095,243.28548,68,71,42
243.33308,243.52356,66,71,42
243.57118,243.76166,64,71,42
243.80928,244.19023,63,71,42
244.28548,244.8569,63,81,42
244.99976,245.19023,62,71,42
245.23785,245.42833,63,71,42
245.47595,245.66643,61,71,42
245.71404,245.90451,54,71,42
245.95213,246.14261,63,71,42
246.19023,246.76166,66,71,42
246.90451,247.09499,68,71,42
247.14261,247.80928,66,81,42
247.85689,248.04738,68,91,42
248.09499,248.66641,66,81,42
248.80928,248.99976,68,71,42
249.04736,249.23784,66,71,42
249.28546,249.47594,64,71,42
249.52356,249.90451,63,71,42
250.23784,250.42831,59,104,42
250.47594,250.66641,57,104,42
250.71404,250.90451,54,104,42
250.95213,251.14261,55,104,42
251.19023,251.3807,49,104,42
251.42831,251.61879,54,104,42
251.66641,251.85689,47,104,42
252.14261,252.33308,59,104,42
252.3807,252.57118,57,104,42
252.61879,252.80927,54,104,42
252.85689,253.04736,55,104,42
253.09499,253.28546,49,104,42
253.33308,253.52356,54,104,42
253.57118,253.76166,47,104,42
254.04736,254.23784,54,104,42
254.28546,254.47594,52,104,42
254.52356,254.71404,46,104,42
254.99974,255.19022,52,104,42
255.23784,255.42831,51,104,42
255.47594,255.66641,47,104,42
255.71404,255.90451,46,104,42
255.95212,256.1426,49,104,42
256.19022,256.3807,47,104,42
256.4283,256.6188,52,104,42
256.6664,256.85687,51,104,42
256.9045,257.09497,54,104,42
257.1426,257.52356,52,104,42
257.85687,258.04736,64,104,42
258.09497,258.28546,62,104,42
258.33307,258.52356,59,104,42
258.57117,258.76166,60,104,42
258.80927,258.99976,54,104,42
259.04736,259.23782,59,104,42
259.28546,259.47592,52,104,42
259.76166,259.95212,64,104,42
259.99973,260.19022,62,104,42
260.23782,260.4283,59,104,42
260.47592,260.6664,60,104,42
260.71402,260.9045,54,104,42
260.95212,261.1426,59,104,42
261.19022,261.38068,52,104,42
261.6664,261.85687,59,104,42
261.9045,262.09497,57,104,42
262.1426,262.33307,51,104,42
262.61877,262.80927,57,104,42
262.85687,263.04736,55,104,42
263.09497,263.28546,49,104,42
263.33307,263.52356,51,104,42
263.57117,263.76163,54,104,42
263.80927,263.99973,52,104,42
264.04736,264.23782,55,104,42
264.28546,264.47592,46,104,42
264.52356,264.71402,49,104,42
264.76163,264.95212,47,104,42
264.99973,265.19022,59,104,42
265.23782,265.61877,54,104,42
265.71402,265.9045,52,104,42
265.95212,266.14258,64,104,42
266.19022,266.57117,49,104,42
266.6664,266.7934,54,104,42
266.82513,266.95212,56,104,42
266.98386,267.11084,58,104,42
267.14258,267.26956,59,104,42
267.30133,267.4283,58,104,42
267.46005,267.58704,56,104,42
267.61877,267.74576,58,104,42
267.7775,267.90448,61,104,42
267.93625,268.06323,62,104,42
268.09497,268.22195,64,104,42
268.2537,268.38068,62,104,42
268.41245,268.53943,61,104,42
268.57117,268.76163,59,104,42
268.80927,268.99973,47,104,42
269.04736,269.4283,52,104,42
269.52353,269.71402,59,104,42
269.76163,269.95212,47,104,42
269.99973,270.38068,51,104,42
270.47592,270.66638,52,104,42
270.71402,270.90448,52,104,42
270.95212,271.14258,55,104,42
271.19022,271.38068,55,104,42
271.4283,271.80927,64,104,42
271.90448,271.95212,63,104,42
271.96402,272.01163,64,104,42
272.02353,272.07117,63,104,42
272.08307,272.13068,64,104,42
272.14258,272.19022,63,104,42
272.20212,272.24973,64,104,42
272.26163,272.30927,61,104,42
272.32117,272.36877,63,104,42
272.38068,272.57117,64,104,42
272.61877,272.80927,52,104,42
272.85687,273.04733,55,104,42
273.09497,273.28543,55,104,42
273.33307,273.71402,64,104,42
273.80927,273.85687,62,104,42
273.86877,273.91638,64,104,42
273.92828,273.97592,62,104,42
273.98782,274.03543,64,104,42
274.04733,274.09497,62,104,42
274.10687,274.15448,64,104,42
274.16638,274.21402,60,104,42
274.22592,274.27353,62,104,42
274.28543,274.47592,67,104,42
274.52353,274.71402,55,104,42
274.76163,274.95212,64,104,42
274.99973,275.19022,52,104,42
275.23782,275.42828,66,104,42
275.47592,275.66638,54,104,42
275.71402,275.90448,63,104,42
275.95212,276.14258,51,104,42
276.1902,276.38068,64,104,42
276.42828,276.61877,52,104,42
276.66638,277.04733,60,104,42
277.14258,277.33307,59,104,42
277.38068,277.57114,52,104,42
277.61877,277.99973,55,104,42
278.09497,278.47592,54,104,42
278.80923,278.99973,59,104,42
279.04733,279.23782,57,104,42
279.28543,279.47592,54,104,42
279.52353,279.71402,55,104,42
279.76163,279.9521,49,104,42
279.99973,280.1902,54,104,42
280.23782,280.42828,47,104,42
280.71402,280.90448,59,104,42
280.9521,281.14258,57,104,42
281.1902,281.38068,56,104,42
281.42828,281.61877,57,104,42
281.66638,281.85687,54,104,42
281.90448,282.09497,56,104,42
282.14258,282.33304,49,104,42
282.61877,282.80923,61,104,42
282.85687,283.04733,59,104,42
283.09494,283.28543,56,104,42
283.33304,283.52353,57,104,42
283.57114,283.76163,51,104,42
283.80923,283.99973,56,104,42
284.04733,284.23782,49,104,42
284.52353,284.714,61,104,42
284.76163,284.9521,59,104,42
284.99973,285.1902,58,104,42
285.23782,285.42828,59,104,42
285.4759,285.66638,56,104,42
285.714,285.90448,59,104,42
285.9521,286.14258,58,104,42
286.1902,286.38068,59,104,42
286.42828,286.61877,56,104,42
286.66638,286.85684,59,104,42
286.90448,287.09494,58,104,42
287.14258,287.33304,59,104,42
287.38068,287.57114,54,104,42
287.61877,287.80923,59,104,42
287.85684,288.04733,58,104,42
288.09494,288.28543,59,104,42
288.33304,288.52353,47,104,42
288.57114,288.9521,60,104,42
289.04733,290.66638,36,104,42
290.9521,291.33304,60,104,42
291.42828,292.57114,36,104,42
292.85684,293.2378,58,104,42
293.33304,293.714,46,104,42
293.80923,294.1902,57,104,42
294.28543,294.66638,45,104,42
294.7616,295.14255,53,104,42
295.2378,295.61874,41,104,42
295.714,296.09494,54,104,42
296.1902,296.57114,47,104,42
296.66638,297.04733,54,104,42
297.14255,297.33304,47,104,42
297.38065,297.57114,54,104,42
297.61874,297.80923,47,104,42
297.85684,298.04733,54,104,42
298.09494,298.28543,47,104,42
298.33304,298.5235,54,104,42
298.57114,298.7616,47,104,42
299.04733,299.42828,64,104,42
299.5235,300.12668,40,104,42
300.15842,300.2854,42,104,42
300.31717,300.44415,43,104,42
300.4759,300.60287,42,104,42
300.6346,300.7616,43,104,42
300.79333,300.92035,45,104,42
300.9521,301.07907,43,104,42
301.1108,301.2378,45,104,42
301.26953,301.3965,47,104,42
301.42828,302.03143,40,104,42
302.0632,302.1902,42,104,42
302.22192,302.3489,43,104,42
302.38065,302.50763,42,104,42
302.53937,302.66635,43,104,42
302.69812,302.8251,45,104,42
302.85684,302.98383,43,104,42
303.01556,303.14255,45,104,42
303.1743,303.30127,47,104,42
303.33304,303.714,40,104,42
303.80923,303.93622,42,104,42
303.96796,304.09494,43,104,42
304.12668,304.25366,45,104,42
304.2854,304.66635,38,104,42
304.7616,304.88858,40,104,42
304.92032,305.0473,41,104,42
305.07907,305.20605,43,104,42
305.2378,305.42825,36,104,42
305.4759,305.66635,48,104,42
305.714,305.90445,39,104,42
305.9521,306.14255,40,104,42
306.19016,306.57114,47,104,42
306.66635,307.0473,40,104,42
307.14255,307.74573,64,104,42
307.77747,307.90445,62,104,42
307.9362,308.06317,60,104,42
308.09494,308.22192,62,104,42
308.25366,308.38065,60,104,42
308.41238,308.53937,59,104,42
308.5711,308.6981,60,104,42
308.72986,308.85684,59,104,42
308.88858,309.01556,57,104,42
309.0473,309.65048,64,104,42
309.68222,309.8092,62,104,42
309.84097,309.96796,60,104,42
309.9997,310.12668,62,104,42
310.15842,310.2854,60,104,42
310.31714,310.44412,59,104,42
310.4759,310.60287,60,104,42
310.6346,310.7616,59,104,42
310.79333,310.92032,57,104,42
310.95206,311.333,64,104,42
311.42825,311.55524,64,104,42
311.58698,311.714,60,104,42
311.74573,311.8727,57,104,42
311.90445,312.2854,64,104,42
312.38065,312.7616,60,71,42
312.85684,313.2378,57,81,42
313.333,313.71396,55,81,42
313.8092,314.19016,52,91,42
314.2854,315.0473,64,91,42
315.2378,315.9997,38,91,42
316.19016,316.95206,37,91,42
317.14255,317.90445,67,91,42
318.0949,318.8568,36,91,42
319.0473,319.8092,67,91,42
319.9997,320.7616,47,91,42
320.95206,322.2854,73,104,42
322.3806,322.7616,67,104,42
322.8568,323.23776,66,91,42
323.333,323.71396,64,91,42
323.8092,324.5711,71,91,42
325.23776,325.6187,64,81,42
325.71396,326.47586,71,104,42
327.14252,327.52347,59,104,42
327.6187,328.3806,64,104,42
329.0473,329.42825,52,104,42
329.52347,330.29968,59,104,42
330.49966,331.36243,59,104,42
331.58673,331.68674,52,71,42
331.71173,331.81174,54,71,42
331.83673,331.93674,55,71,42
331.96173,332.06174,54,71,42
332.08673,332.18674,55,71,42
332.21173,332.31174,57,71,42
332.33673,332.43674,55,71,42
332.46173,332.56174,57,71,42
332.58673,332.68674,59,71,42
332.71173,332.81174,54,71,42
332.83673,332.93674,55,71,42
332.96173,333.06174,57,71,42
333.08673,333.18674,55,71,42
333.21173,333.31174,57,71,42
333.33673,333.43674,59,71,42
333.46173,333.56174,56,71,42
333.58673,333.68674,57,71,42
333.71173,333.81174,59,71,42
333.83673,333.93674,57,71,42
333.96173,334.06174,59,71,42
334.08673,334.18674,60,71,42
334.21173,334.31174,59,71,42
334.33673,334.43674,60,71,42
334.46173,334.56174,62,71,42
334.58673,334.68674,60,71,42
334.71173,334.81174,62,71,42
334.83673,334.93674,64,110,42
334.96173,335.41174,66,71,42
335.52423,335.67422,63,71,42
335.71173,336.23672,64,71,42
336.27423,336.42422,61,71,42
336.46173,336.61172,62,71,42
336.64923,336.79922,59,71,42
336.83673,336.98672,60,71,42
337.02423,337.17422,57,71,42
337.21173,337.36172,55,71,42
337.39923,337.54922,54,71,42
337.58673,337.88672,55,71,42
338.14923,338.29922,54,71,42
338.33673,338.48672,59,71,42
338.52423,338.67422,55,71,42
338.89923,339.04922,54,71,42
339.08673,339.23672,59,71,42
339.27423,339.42422,55,71,42
339.64923,339.79922,56,71,42
339.83673,339.98672,64,71,42
340.02423,340.17422,57,71,42
340.39923,340.54922,59,71,42
340.58673,340.73672,64,71,42
340.77423,340.92422,60,71,42
340.96173,341.11172,58,71,42
341.14923,341.29922,61,71,42
341.33673,341.48672,66,71,42
341.52423,341.67422,59,71,42
341.71173,341.86172,56,71,42
341.89923,342.04922,59,71,42
342.08673,342.23672,64,71,42
342.27423,342.42422,57,71,42
342.46173,342.61172,54,71,42
342.64923,342.79922,55,71,42
342.83673,343.13672,48,71,42
343.21173,343.36172,47,71,42
343.39923,343.54922,59,71,42
343.58673,343.73672,60,71,42
343.77423,343.92422,57,71,42
343.96173,344.11172,55,71,42
344.14923,344.29922,54,71,42
344.52423,344.67422,57,71,42
344.71173,344.86172,59,71,42
344.89923,345.04922,62,71,42
345.08673,345.23672,64,71,42
345.27423,345.42422,60,71,42
345.46173,345.61172,59,71,42
345.64923,345.79922,57,71,42
346.02423,346.17422,61,71,42
346.21173,346.36172,62,71,42
346.39923,346.54922,66,71,42
346.58673,347.18674,66,81,42
347.33673,347.93674,59,81,42
348.08673,348.68674,52,91,42
348.83673,349.28674,45,91,42
349.39923,349.54922,56,91,42
349.58673,350.03674,57,91,42
350.14923,350.29922,57,91,42
350.33673,350.78674,60,91,42
350.89923,351.04922,60,91,42
351.08673,351.68674,69,91,42
351.83673,352.43674,69,91,42
352.58673,352.73672,67,116,42
352.77423,352.92422,71,116,42
352.96173,353.11172,66,116,42
353.14923,353.29922,69,116,42
353.33673,353.48672,64,116,42
353.52423,353.67422,67,116,42
353.71173,353.86172,63,116,42
353.89923,354.04922,66,116,42
354.08673,354.23672,64,116,42
354.27423,354.42422,67,116,42
354.46173,354.61172,62,116,42
354.64923,354.79922,65,116,42
354.83673,354.98672,60,116,42
355.02423,355.17422,64,116,42
355.21173,355.36172,59,116,42
355.39923,355.54922,62,116,42
355.58673,355.73672,64,116,42
355.77423,355.92422,67,116,42
355.96173,356.11172,62,116,42
356.14923,356.29922,65,116,42
356.33673,356.48672,60,116,42
356.52423,356.67422,64,116,42
356.71173,356.86172,59,116,42
356.89923,357.04922,62,116,42
357.08673,357.23672,60,116,42
357.27423,357.42422,64,116,42
357.46173,357.61172,57,116,42
357.64923,357.79922,60,116,42
357.83673,357.98672,55,116,42
358.02423,358.17422,59,116,42
358.21173,358.36172,53,116,42
358.39923,358.54922,57,116,42
358.58673,358.68674,55,116,42
358.71173,358.81174,57,116,42
358.83673,358.93674,59,116,42
358.96173,359.06174,54,116,42
359.08673,359.18674,55,116,42
359.21173,359.31174,57,116,42
359.33673,359.43674,55,116,42
359.46173,359.56174,57,116,42
359.58673,359.68674,59,116,42
359.71173,359.81174,54,116,42
359.83673,359.93674,55,116,42
359.96173,360.06174,57,116,42
360.08673,360.18674,55,116,42
360.21173,360.31174,57,116,42
360.33673,360.43674,59,116,42
360.46173,360.56174,66,116,42
360.58673,360.68674,67,116,42
360.71173,360.81174,69,116,42
360.83673,360.93674,67,116,42
360.96173,361.06174,69,116,42
361.08673,361.18674,71,116,42
361.21173,361.31174,66,116,42
361.33673,361.43674,67,116,42
361.46173,361.56174,69,116,42
361.58673,361.68674,67,116,42
361.71173,361.81174,69,116,42
361.83673,361.93674,71,116,42
361.96173,362.11172,66,116,42
362.14923,362.29922,69,116,42
362.33673,362.48672,67,116,42
362.52423,362.67422,71,116,42
362.71173,362.86172,64,116,42
362.89923,363.04922,67,116,42
363.08673,363.23672,60,116,42
363.27423,363.42422,64,116,42
363.46173,363.61172,57,116,42
363.64923,363.79922,60,116,42
363.83673,363.98672,53,116,42
364.02423,364.17422,57,116,42
364.21173,364.36172,48,116,42
364.39923,364.54922,53,116,42
364.58673,364.88672,45,116,42
365.33673,365.63672,57,116,42
365.33673,365.63672,47,116,42
365.33673,365.63672,63,116,42
366.08673,366.38672,40,116,42
366.08673,366.38672,47,116,42
366.08673,366.98672,55,116,42
366.08673,366.98672,64,116,42
0.0,0.380952,88,104,0
0.0,0.380952,76,104,0
0.0,0.380952,64,104,0
0.47619,1.047618,76,104,0
0.47619,1.047618,64,104,0
7.61904,7.999992,83,104,0
7.61904,7.999992,71,104,0
8.09523,8.666658,71,104,0
8.09523,8.666658,59,104,0
15.23808,15.619032,76,104,0
15.23808,15.619032,88,104,0
15.71427,16.317444,64,104,0
15.71427,16.317444,76,104,0
16.34919,16.476173,66,104,0
16.50792,16.634905,67,104,0
16.66665,16.793634,66,104,0
16.82538,16.952364,67,104,0
16.98411,17.111094,69,104,0
17.14284,17.269823,67,104,0
17.30157,17.428555,69,104,0
17.4603,17.587284,71,104,0
17.61903,18.222204,64,104,0
18.25395,18.380934,66,104,0
18.41268,18.539663,67,104,0
18.57141,18.698395,66,104,0
18.73014,18.857124,67,104,0
18.88887,19.015854,69,104,0
19.0476,19.174583,67,104,0
19.20633,19.333315,69,104,0
19.36506,19.492044,71,104,0
19.52379,20.126965,72,104,0
20.15871,20.285694,63,104,0
20.31744,20.444424,66,104,0
20.47617,21.079344,71,104,0
21.11109,21.238073,69,104,0
21.26982,21.396805,67,104,0
21.42855,21.555534,66,104,0
21.58728,21.714264,67,104,0
21.74601,21.872993,69,104,0
21.90474,22.031725,67,104,0
22.06347,22.190454,64,104,0
22.2222,22.349184,63,104,0
22.38093,22.507914,61,104,0
22.53966,22.666643,63,104,0
22.69839,22.825375,64,104,0
22.85712,23.047596,63,104,0
23.095215,23.28569,75,104,0
23.33331,23.714262,69,104,0
23.8095,23.999975,67,104,0
24.047594,24.238071,79,104,0
24.28569,24.666641,71,104,0
24.76188,24.888865,70,104,0
24.92061,25.047594,71,104,0
25.07934,25.206324,73,104,0
25.23807,25.365053,74,104,0
25.3968,25.523785,73,104,0
25.55553,25.682514,71,104,0
25.71426,25.841244,73,104,0
25.87299,25.999973,76,104,0
26.03172,26.158705,78,104,0
26.19045,26.317434,79,104,0
26.34918,26.476164,78,104,0
26.50791,26.634893,76,104,0
26.66664,26.793625,75,104,0
26.82537,26.952354,76,104,0
26.9841,27.111084,78,104,0
27.14283,27.269814,79,104,0
27.30156,27.428543,78,104,0
27.46029,27.587275,76,104,0
27.61902,27.746004,78,104,0
27.77775,27.904734,81,104,0
27.93648,28.063463,83,104,0
28.09521,28.222195,84,104,0
28.25394,28.380924,83,104,0
28.41267,28.539654,81,104,0
28.5714,28.698383,79,104,0
28.73013,28.857115,78,104,0
28.88886,29.015844,76,104,0
29.285685,29.47616,88,104,0
29.285685,29.47616,76,104,0
29.52378,29.714256,86,104,0
29.52378,29.714256,74,104,0
29.761875,29.95235,83,104,0
29.761875,29.95235,71,104,0
29.99997,30.190447,72,104,0
29.99997,30.190447,84,104,0
30.238066,30.428541,78,104,0
30.238066,30.428541,66,104,0
30.47616,30.666636,71,104,0
30.47616,30.666636,83,104,0
30.714254,30.904732,76,104,0
30.714254,30.904732,64,104,0
31.190445,31.38092,88,104,0
31.190445,31.38092,76,104,0
31.42854,31.619017,74,104,0
31.42854,31.619017,86,104,0
31.666636,31.857111,71,104,0
31.666636,31.857111,83,104,0
31.90473,32.095207,72,104,0
31.90473,32.095207,84,104,0
32.142826,32.3333,78,104,0
32.142826,32.3333,66,104,0
32.38092,32.571396,71,104,0
32.38092,32.571396,83,104,0
32.619015,32.80949,76,104,0
32.619015,32.80949,64,104,0
33.095203,33.285683,71,104,0
33.095203,33.285683,83,104,0
33.3333,33.523777,81,104,0
33.3333,33.523777,69,104,0
33.571396,33.76187,75,104,0
33.571396,33.76187,63,104,0
34.047585,34.23806,81,104,0
34.047585,34.23806,69,104,0
34.28568,34.476154,67,104,0
34.28568,34.476154,79,104,0
34.523773,34.714252,61,104,0
34.523773,34.714252,73,104,0
34.76187,34.952347,63,104,0
34.76187,34.952347,75,104,0
34.999966,35.19044,66,104,0
34.999966,35.19044,78,104,0
35.23806,35.428535,64,104,0
35.23806,35.428535,76,104,0
35.476154,35.66663,67,104,0
35.476154,35.66663,79,104,0
35.71425,35.904724,58,104,0
35.71425,35.904724,70,104,0
35.952347,36.142822,61,104,0
35.952347,36.142822,73,104,0
36.19044,36.380917,59,104,0
36.19044,36.380917,71,104,0
36.428535,36.61901,59,104,0
36.428535,36.61901,71,104,0
36.66663,36.857105,63,104,0
36.66663,36.857105,75,104,0
36.904724,37.0952,63,104,0
36.904724,37.0952,75,104,0
37.14282,37.523773,71,104,0
37.14282,37.523773,83,104,0
37.61901,37.66663,82,104,0
37.678535,37.726154,83,104,0
37.738056,37.785675,82,104,0
37.79758,37.8452,83,104,0
37.857105,37.904724,82,104,0
37.91663,37.96425,83,104,0
37.61901,37.99996,70,104,0
37.976154,38.023773,80,104,0
38.035675,38.083294,82,104,0
38.0952,38.285675,71,104,0
38.0952,38.285675,83,104,0
38.333294,38.52377,59,104,0
38.333294,38.52377,71,104,0
38.57139,38.761868,75,104,0
38.57139,38.761868,63,104,0
38.809486,38.99996,75,104,0
39.04758,39.42853,83,104,0
39.04758,39.42853,71,104,0
39.52377,39.57139,84,104,0
39.583294,39.630913,85,104,0
39.64282,39.690437,84,104,0
39.702343,39.74996,85,104,0
39.761864,39.809483,84,104,0
39.82139,39.869007,85,104,0
39.52377,39.90472,72,104,0
39.880913,39.92853,83,104,0
39.940437,39.988056,84,104,0
39.99996,40.190437,85,104,0
39.99996,40.190437,73,104,0
40.238056,40.42853,61,104,0
40.238056,40.42853,73,104,0
40.47615,40.666626,65,104,0
40.47615,40.666626,77,104,0
40.714245,40.90472,65,104,0
40.714245,40.90472,77,104,0
40.95234,41.33329,85,104,0
40.95234,41.33329,73,104,0
41.42853,41.47615,84,104,0
41.488052,41.53567,85,104,0
41.547577,41.595196,84,104,0
41.6071,41.65472,85,104,0
41.666626,41.714245,84,104,0
41.72615,41.77377,85,104,0
41.42853,41.809483,72,104,0
41.78567,41.83329,83,104,0
41.845196,41.892815,84,104,0
41.90472,42.095196,85,104,0
41.90472,42.095196,73,104,0
42.142815,42.33329,61,104,0
42.142815,42.33329,73,104,0
42.38091,42.571384,65,104,0
42.38091,42.571384,77,104,0
42.619003,42.809483,65,104,0
42.619003,42.809483,77,104,0
42.8571,43.238052,85,104,0
42.8571,43.238052,73,104,0
43.33329,43.38091,86,104,0
43.392815,43.440434,88,104,0
43.45234,43.499958,86,104,0
43.51186,43.55948,88,104,0
43.571384,43.619003,86,104,0
43.63091,43.678528,88,104,0
43.690434,43.738052,86,104,0
43.749958,43.797577,88,104,0
43.33329,44.190434,74,104,0
43.80948,44.190434,86,104,0
44.28567,44.33329,87,104,0
44.345192,44.392815,88,104,0
44.404716,44.452335,87,104,0
44.46424,44.51186,88,104,0
44.523766,44.571384,87,104,0
44.58329,44.63091,88,104,0
44.64281,44.69043,87,104,0
44.702335,44.749954,88,104,0
44.28567,45.047573,75,104,0
44.76186,45.14281,87,104,0
45.23805,45.285667,90,104,0
45.297573,45.345192,92,104,0
45.357098,45.404716,90,104,0
45.416622,45.46424,92,104,0
45.476147,45.523766,90,104,0
45.535667,45.583286,92,104,0
45.595192,45.64281,90,104,0
45.654716,45.702335,92,104,0
45.71424,46.095192,90,104,0
45.23805,46.095192,87,104,0
45.23805,46.095192,78,104,0
46.19043,46.57138,88,116,0
46.19043,46.57138,91,116,0
46.19043,46.57138,79,116,0
46.66662,47.745983,67,110,0
46.66662,47.745983,76,116,0
46.66662,47.745983,79,116,0
47.77773,47.904713,78,116,0
47.77773,47.904713,81,116,0
47.93646,48.063442,82,116,0
47.93646,48.063442,79,116,0
48.09519,48.222176,78,116,0
48.09519,48.222176,81,116,0
48.25392,48.380905,82,116,0
48.25392,48.380905,79,116,0
48.41265,48.539635,84,116,0
48.41265,48.539635,81,116,0
48.57138,48.698364,79,116,0
48.57138,48.698364,82,116,0
48.73011,48.857094,84,116,0
48.73011,48.857094,81,116,0
48.88884,49.015823,86,116,0
48.88884,49.015823,82,116,0
49.04757,49.650745,79,116,0
49.04757,49.650745,76,116,0
49.68249,49.809475,78,116,0
49.68249,49.809475,81,116,0
49.84122,49.968204,82,116,0
49.84122,49.968204,79,116,0
49.99995,50.126934,81,116,0
49.99995,50.126934,78,116,0
50.15868,50.285664,79,116,0
50.15868,50.285664,82,116,0
50.31741,50.444393,81,116,0
50.31741,50.444393,84,116,0
50.47614,50.603123,82,116,0
50.47614,50.603123,79,116,0
50.63487,50.761852,81,116,0
50.63487,50.761852,84,116,0
50.7936,50.920586,86,116,0
50.7936,50.920586,82,116,0
50.95233,51.555504,84,116,0
50.95233,51.555504,88,116,0
51.58725,51.714233,79,116,0
51.74598,51.872963,88,116,0
51.90471,52.507885,81,116,0
51.90471,52.507885,84,116,0
51.90471,52.507885,89,116,0
52.53963,52.666615,81,116,0
52.69836,52.825344,89,116,0
52.85709,53.460262,93,116,0
52.85709,53.460262,84,116,0
53.49201,53.618996,81,116,0
53.65074,53.777725,93,116,0
53.80947,54.412643,99,116,0
53.80947,54.412643,87,116,0
54.44439,54.571373,69,116,0
54.60312,54.730103,81,116,0
54.76185,55.365025,75,116,0
54.76185,55.365025,87,116,0
55.39677,55.523754,69,116,0
55.5555,55.682484,81,116,0
55.71423,55.841213,87,116,0
55.71423,55.841213,75,116,0
55.87296,55.999943,69,116,0
56.03169,56.158672,81,116,0
56.19042,56.317406,87,116,0
56.19042,56.317406,75,116,0
56.34915,56.476135,69,116,0
56.50788,56.634865,87,116,0
56.50788,56.634865,75,116,0
56.66661,56.793594,78,124,0
56.66661,56.793594,90,124,0
56.82534,56.952324,81,124,0
56.82534,56.952324,69,124,0
56.98407,57.111053,75,124,0
56.98407,57.111053,87,124,0
57.1428,57.52375,79,116,0
57.1428,57.52375,83,116,0
57.1428,57.52375,88,116,0
57.61899,57.745975,88,116,0
57.77772,57.904705,86,116,0
57.93645,58.063435,84,116,0
58.09518,58.222164,86,116,0
58.25391,58.380894,84,116,0
57.1428,58.380894,76,116,0
58.41264,58.539623,83,116,0
58.57137,58.698353,84,116,0
58.7301,58.857082,83,116,0
58.57137,58.95232,76,116,0
58.88883,59.015816,81,116,0
59.04756,59.650734,88,116,0
59.68248,59.809464,86,116,0
59.84121,59.968193,84,116,0
59.99994,60.126923,86,116,0
59.04756,60.190414,76,116,0
60.15867,60.285652,84,116,0
60.3174,60.444386,83,116,0
60.47613,60.603115,84,116,0
60.63486,60.761845,83,116,0
60.47613,60.857082,76,116,0
60.79359,60.920574,81,116,0
60.95232,61.33327,83,116,0
60.95232,61.33327,79,116,0
60.95232,61.555492,88,116,0
61.58724,61.714226,86,116,0
61.42851,61.809464,79,116,0
61.42851,61.809464,82,116,0
61.74597,61.872955,85,116,0
61.9047,62.285652,81,116,0
61.9047,62.285652,78,116,0
61.9047,62.507874,86,116,0
62.53962,62.666603,84,116,0
62.38089,62.76184,77,116,0
62.38089,62.76184,80,116,0
62.69835,62.825333,83,116,0
62.85708,63.238033,79,116,0
62.85708,63.238033,76,116,0
62.85708,63.460255,84,116,0
63.492,63.618984,83,116,0
63.33327,63.714222,76,116,0
63.33327,63.714222,78,116,0
63.65073,63.777714,81,116,0
63.80946,63.999935,71,116,0
63.80946,63.999935,83,116,0
63.80946,63.999935,78,116,0
64.047554,64.23803,79,116,0
64.047554,64.23803,67,116,0
64.047554,64.23803,76,116,0
64.28565,64.47613,76,116,0
64.28565,64.6666,78,116,0
64.28565,64.6666,71,116,0
64.28565,64.6666,66,116,0
64.52374,64.71422,75,116,0
64.76184,65.14279,67,116,0
64.76184,65.14279,71,116,0
64.76184,65.14279,76,116,0
64.76184,65.36501,64,116,0
65.39676,65.52374,66,116,0
65.55549,65.68247,67,116,0
65.71422,65.8412,66,116,0
65.87295,65.99993,67,116,0
66.03168,66.15866,69,116,0
66.19041,66.31739,67,116,0
66.34914,66.47613,69,116,0
66.50787,66.63486,71,116,0
66.6666,67.047554,72,116,0
66.6666,67.047554,69,116,0
67.14279,67.269775,67,116,0
66.6666,67.269775,64,116,0
67.14279,67.269775,71,116,0
67.30152,67.428505,66,116,0
67.46025,67.587234,67,116,0
67.61898,67.745964,66,116,0
67.77771,67.90469,67,116,0
67.93644,68.06342,69,116,0
68.09517,68.22215,67,116,0
68.2539,68.38088,69,116,0
68.41263,68.53961,71,116,0
68.57136,68.95231,72,116,0
68.57136,68.95231,69,116,0
69.04755,69.17454,71,116,0
68.57136,69.17454,64,116,0
69.04755,69.17454,67,116,0
69.20628,69.33327,66,116,0
69.36501,69.492,67,116,0
69.52374,69.90469,72,116,0
69.52374,69.90469,69,116,0
69.99993,70.126915,67,116,0
69.99993,70.126915,71,116,0
69.52374,70.126915,64,116,0
70.15866,70.285645,66,116,0
70.31739,70.444374,67,116,0
70.47612,70.6031,64,71,0
70.63485,70.76183,66,71,0
70.79358,70.92056,67,71,0
70.95231,71.07929,64,71,0
71.11104,71.23802,66,71,0
70.47612,71.23802,69,71,0
70.47612,71.23802,72,71,0
71.26977,71.39675,67,71,0
71.4285,71.55548,64,71,0
71.58723,71.71421,66,71,0
71.74596,71.87295,67,71,0
71.90469,72.03168,64,71,0
72.06342,72.19041,66,71,0
71.4285,72.19041,71,71,0
72.22215,72.34914,67,71,0
72.38088,72.507866,64,104,0
72.53961,72.666595,66,104,0
72.69834,72.825325,67,104,0
72.85707,72.984055,64,104,0
73.0158,73.142784,66,104,0
72.38088,73.142784,70,104,0
73.17453,73.30151,67,104,0
73.33326,73.46024,64,104,0
73.49199,73.61897,66,104,0
73.65072,73.7777,67,104,0
73.80945,73.93643,64,104,0
73.96818,74.09516,66,104,0
73.33326,74.09516,70,104,0
74.12691,74.25389,67,104,0
74.28564,74.41262,64,104,0
74.44437,74.57136,66,104,0
74.6031,74.73009,67,104,0
74.76183,74.88882,64,104,0
74.92056,75.04755,66,104,0
74.28564,75.04755,69,104,0
75.07929,75.206276,67,104,0
75.23802,75.365005,69,104,0
75.39675,75.523735,76,104,0
75.55548,75.682465,79,104,0
75.71421,75.841194,69,104,0
75.87294,75.99992,76,104,0
75.23802,75.99992,81,104,0
76.03167,76.15865,79,104,0
76.1904,76.31738,63,104,0
76.34913,76.47611,66,104,0
76.50786,76.63484,67,104,0
76.66659,76.79357,63,104,0
76.82532,76.9523,66,104,0
76.1904,76.9523,69,104,0
76.98405,77.11103,67,104,0
77.14278,77.26977,69,104,0
77.30151,77.4285,75,104,0
77.46024,77.58723,79,104,0
77.61897,77.74596,69,104,0
77.7777,77.904686,75,104,0
77.14278,77.904686,81,104,0
77.93643,78.063416,79,104,0
78.09516,78.222145,62,104,0
78.25389,78.380875,65,104,0
78.41262,78.539604,66,104,0
78.57135,78.69833,62,104,0
78.73008,78.85706,65,104,0
78.09516,78.85706,69,104,0
78.88881,79.01579,66,104,0
79.04754,79.17452,69,104,0
79.20627,79.33325,74,104,0
79.365,79.49198,78,104,0
79.52373,79.65071,69,104,0
79.68246,79.80944,74,104,0
79.84119,79.96818,78,104,0
79.99992,80.12691,69,91,0
80.15865,80.28564,74,91,0
80.31738,80.44437,78,91,0
80.47611,80.603096,69,91,0
80.63484,80.761826,74,91,0
80.79357,80.920555,78,81,0
80.9523,81.079285,69,81,0
81.11103,81.238014,74,81,0
81.26976,81.39674,78,81,0
79.04754,81.52373,81,104,0
81.42849,81.55547,69,81,0
81.58722,81.7142,74,81,0
81.74595,81.87293,78,81,0
82.85706,83.238014,64,81,0
83.33325,83.936424,76,81,0
83.96817,84.09515,74,81,0
84.1269,84.25388,72,81,0
84.28563,84.41261,74,81,0
84.44436,84.57134,72,81,0
84.60309,84.73007,71,81,0
84.76182,85.14277,69,81,0
85.23801,85.84119,81,81,0
85.87293,85.999916,79,81,0
86.03166,86.158646,78,81,0
86.19039,86.317375,79,81,0
86.34912,86.476105,76,81,0
86.66658,87.26975,86,81,0
86.50785,87.26975,74,81,0
87.3015,87.42848,84,81,0
87.46023,87.58721,83,81,0
87.61896,87.74594,84,81,0
87.77769,87.90467,83,81,0
87.93642,88.0634,81,81,0
88.09515,88.476105,79,81,0
88.57134,89.174515,91,81,0
89.20626,89.333244,90,81,0
89.36499,89.491974,88,81,0
89.52372,89.6507,90,81,0
89.68245,89.80943,88,81,0
89.84118,89.96816,86,81,0
89.99991,90.38086,79,81,0
90.4761,91.07928,91,81,0
91.11102,91.23801,90,81,0
91.26975,91.396736,88,81,0
91.42848,91.555466,90,81,0
91.58721,91.714195,88,81,0
91.74594,91.872925,86,81,0
92.38086,92.98403,91,81,0
93.01578,93.14276,90,81,0
91.90467,93.14276,79,81,0
93.17451,93.30149,88,81,0
93.33324,93.93642,91,81,0
93.96816,94.095146,90,81,0
93.33324,94.095146,81,81,0
94.12689,94.253876,88,81,0
94.28562,94.33324,90,81,0
94.345146,94.39276,91,81,0
94.40467,94.452286,90,81,0
94.46419,94.51181,91,81,0
94.52371,94.571335,90,81,0
94.58324,94.63086,91,81,0
94.64276,94.690384,90,81,0
94.702286,94.74991,91,81,0
94.76181,94.809425,90,81,0
94.821335,94.86895,91,81,0
94.88086,94.928474,90,81,0
94.940384,94.988,91,81,0
94.99991,95.04752,90,81,0
94.28562,95.04752,81,81,0
95.059425,95.10705,91,81,0
95.11895,95.16657,88,81,0
95.178474,95.2261,90,81,0
95.238,95.9999,91,81,0
95.238,95.9999,79,81,0
96.19038,96.952286,73,81,0
96.19038,96.952286,85,81,0
97.14276,97.90466,86,58,0
97.14276,97.90466,74,81,0
98.09514,98.85704,78,58,0
98.09514,98.85704,72,58,0
99.04752,99.428474,79,58,0
99.04752,99.428474,71,58,0
100.63482,100.7618,69,58,0
100.79355,100.92053,81,58,0
100.95228,101.07926,71,58,0
101.11101,101.23799,83,58,0
101.26974,101.39672,74,58,0
101.42847,101.55545,72,58,0
101.5872,101.71419,84,58,0
101.74593,101.87292,76,58,0
101.90466,102.03165,74,58,0
102.06339,102.19038,86,58,0
102.22212,102.349106,81,58,0
102.53958,102.666565,69,58,0
102.69831,102.825294,81,58,0
102.85704,102.984024,71,58,0
102.85704,103.047516,62,58,0
103.01577,103.14275,83,58,0
103.09514,103.285614,55,58,0
103.1745,103.30148,74,104,0
103.33323,103.46021,72,104,0
103.49196,103.61894,84,104,0
103.65069,103.77767,76,104,0
103.80942,103.9364,70,104,0
103.96815,104.09513,82,104,0
104.12688,104.25386,76,104,0
104.28561,104.4126,71,104,0
104.44434,104.57133,83,104,0
104.60307,104.73006,74,104,0
104.7618,104.88879,64,104,0
104.92053,105.047516,76,104,0
105.07926,105.206245,70,104,0
105.23799,105.364975,62,91,0
105.39672,105.523705,74,91,0
105.55545,105.682434,71,91,0
105.71418,105.84116,56,91,0
105.87291,105.99989,68,81,0
106.03164,106.15862,62,81,0
106.19037,106.31735,58,81,0
106.3491,106.47608,70,81,0
106.50783,106.63481,64,81,0
106.66656,106.79354,59,81,0
106.82529,106.95227,71,81,0
106.98402,107.11101,66,81,0
107.14275,107.26974,58,81,0
107.14275,107.26974,58,81,0
107.30148,107.42847,70,81,0
107.46021,107.5872,67,81,0
107.61894,107.745926,70,81,0
107.77767,107.904655,67,71,0
107.9364,108.063385,70,71,0
108.09513,108.222115,66,71,0
108.25386,108.380844,70,71,0
108.41259,108.53957,64,71,0
108.57132,108.6983,59,71,0
108.73005,108.85703,71,71,0
108.88878,109.01576,66,71,0
109.04751,109.17449,58,81,0
109.04751,109.17449,58,81,0
109.20624,109.33322,70,81,0
109.36497,109.49195,67,81,0
109.5237,109.65068,70,81,0
109.68243,109.80942,67,71,0
109.84116,109.96815,70,71,0
109.99989,110.12688,66,71,0
110.15862,110.28561,70,71,0
110.31735,110.444336,64,71,0
110.47608,110.85703,71,71,0
110.47608,110.85703,59,71,0
110.47608,110.85703,62,71,0
111.19037,111.380844,91,71,0
111.19037,111.380844,79,71,0
111.42846,111.618935,78,71,0
111.42846,111.618935,90,71,0
111.66656,111.85703,74,71,0
111.66656,111.85703,86,71,0
111.90465,112.09512,76,71,0
111.90465,112.09512,88,71,0
112.142746,112.33322,73,71,0
112.142746,112.33322,85,71,0
112.38084,112.57132,86,71,0
112.38084,112.57132,74,71,0
112.618935,112.80941,78,71,0
113.09512,113.2856,79,71,0
113.09512,113.2856,91,71,0
113.33322,113.5237,90,71,0
113.33322,113.5237,78,71,0
113.57131,113.76179,74,71,0
113.57131,113.76179,86,71,0
113.80941,113.999886,88,71,0
113.80941,113.999886,76,71,0
114.04751,114.23798,85,71,0
114.04751,114.23798,73,71,0
114.2856,114.476074,86,81,0
114.2856,114.476074,74,81,0
114.5237,114.71417,78,81,0
114.999886,115.19036,62,81,0
114.999886,115.19036,67,81,0
114.999886,115.19036,71,81,0
115.476074,115.66655,69,71,0
115.476074,115.66655,66,71,0
115.476074,115.66655,60,71,0
115.95226,116.14274,62,71,0
115.95226,116.14274,66,71,0
116.42845,116.618935,64,71,0
116.42845,116.618935,60,71,0
116.42845,116.618935,55,71,0
116.90465,117.09512,57,71,0
116.90465,117.09512,62,71,0
116.90465,117.09512,54,71,0
117.38084,117.57131,55,71,0
117.38084,117.57131,60,71,0
117.857025,118.0475,57,71,0
117.857025,118.0475,62,71,0
118.33321,118.52369,62,71,0
118.33321,118.52369,59,71,0
118.51179,118.54155,67,71,0
118.51179,118.54155,71,71,0
118.63084,118.82131,67,71,0
118.63084,118.82131,71,71,0
118.63084,118.82131,79,71,0
119.0475,119.07726,72,71,0
119.0475,119.07726,66,71,0
118.987976,119.08321,78,71,0
119.16655,119.357025,78,71,0
119.16655,119.357025,66,71,0
119.16655,119.357025,72,71,0
119.58321,119.612976,66,71,0
119.58321,119.612976,62,71,0
119.52369,119.61893,74,71,0
119.70226,119.89274,66,71,0
119.70226,119.89274,74,71,0
119.70226,119.89274,62,71,0
120.0594,120.214165,76,71,0
120.11893,120.214165,79,71,0
119.99988,120.214165,67,71,0
120.41655,120.446304,74,71,0
120.41655,120.446304,66,71,0
120.357025,120.45226,78,71,0
120.53559,120.72607,74,71,0
120.53559,120.72607,66,71,0
120.53559,120.72607,78,71,0
120.95226,120.982025,62,71,0
120.95226,120.982025,67,71,0
120.89274,120.987976,74,71,0
121.071304,121.26178,67,71,0
121.071304,121.26178,62,71,0
121.071304,121.26178,74,71,0
121.3094,121.49988,76,71,0
121.487976,121.51774,69,71,0
121.487976,121.51774,62,71,0
121.60702,121.7975,74,71,0
121.60702,121.7975,69,71,0
121.60702,121.7975,62,71,0
121.845116,122.03559,72,71,0
121.90464,122.095116,71,71,0
121.90464,122.28559,62,71,0
122.14274,122.33321,73,71,0
122.38083,122.952255,74,81,0
122.38083,123.14273,62,81,0
123.095116,123.28559,76,71,0
123.33321,123.52369,74,71,0
123.33321,123.714165,62,71,0
123.571304,123.76178,72,71,0
123.8094,123.99988,71,71,0
124.04749,124.23797,74,71,0
124.28559,124.85702,83,81,0
124.28559,124.85702,71,81,0
124.99988,125.19035,82,71,0
124.99988,125.19035,70,71,0
125.23797,125.428444,71,71,0
125.23797,125.428444,83,71,0
125.47607,125.66654,69,71,0
125.47607,125.66654,81,71,0
125.71416,125.90463,71,71,0
125.952255,126.14273,73,71,0
126.19035,126.76178,74,81,0
126.90463,127.09511,76,71,0
127.14273,127.333206,74,71,0
127.38082,127.571304,72,71,0
127.61892,127.809395,71,71,0
127.61892,127.99987,62,71,0
127.85702,128.04749,74,71,0
128.09511,128.66653,71,71,0
128.09511,128.66653,83,71,0
128.8094,128.99988,70,71,0
128.8094,128.99988,82,71,0
129.04749,129.71416,71,71,0
129.04749,129.71416,83,71,0
129.76178,129.95226,70,81,0
129.76178,129.95226,82,81,0
129.99986,130.5713,83,91,0
129.99986,130.5713,71,91,0
130.71416,130.90463,70,81,0
130.71416,130.90463,82,81,0
130.95226,131.14273,83,71,0
130.95226,131.14273,71,71,0
131.19034,131.38081,69,71,0
131.19034,131.38081,81,71,0
131.42844,131.61891,74,71,0
131.42844,131.61891,71,71,0
131.66653,131.85701,78,71,0
131.90463,132.09511,79,71,0
132.14273,132.3332,78,71,0
132.14273,132.3332,66,71,0
132.38081,132.57129,71,71,0
132.38081,132.57129,67,71,0
132.61891,132.80939,75,71,0
132.85701,133.04749,76,71,0
133.09511,133.28558,74,71,0
133.3332,133.52368,72,71,0
133.57129,133.76176,71,71,0
133.3332,133.90463,64,71,0
133.80939,133.99986,69,71,0
134.04749,134.23796,64,71,0
134.04749,134.23796,60,71,0
134.28558,134.66653,59,71,0
134.28558,134.66653,67,71,0
134.76176,135.14272,60,71,0
134.76176,135.14272,66,71,0
135.23796,135.61891,62,71,0
135.23796,135.61891,59,71,0
135.95224,136.14272,66,71,0
135.95224,136.14272,69,71,0
136.19034,136.38081,59,71,0
136.19034,136.38081,67,71,0
136.90463,137.09511,62,71,0
136.90463,137.09511,65,71,0
137.14272,137.33319,64,71,0
137.14272,137.33319,60,71,0
137.38081,137.57129,62,81,0
137.38081,137.57129,68,81,0
137.61891,137.80939,69,81,0
137.61891,137.80939,60,81,0
137.85701,138.04749,67,81,0
137.85701,138.04749,64,81,0
138.0951,138.28558,62,81,0
138.0951,138.28558,66,81,0
138.33319,138.52367,61,91,0
138.33319,138.52367,64,91,0
138.57129,138.76176,62,91,0
138.57129,138.76176,59,91,0
138.80939,138.99986,60,91,0
138.80939,138.99986,66,91,0
139.04749,139.23796,59,91,0
139.04749,139.23796,67,91,0
139.28557,139.47604,75,91,0
139.28557,139.47604,69,91,0
139.52367,139.71414,76,91,0
139.52367,139.71414,67,91,0
139.76176,139.95224,74,91,0
139.76176,139.95224,71,91,0
139.99986,140.19034,72,91,0
140.23796,140.42844,71,91,0
139.99986,140.57129,64,91,0
140.47604,140.66652,69,81,0
140.71414,140.90462,60,81,0
140.71414,140.90462,64,81,0
140.95224,141.71414,59,81,0
140.95224,141.71414,67,81,0
141.90462,142.66652,66,81,0
141.90462,142.66652,60,81,0
143.80939,143.93637,67,71,0
143.96811,144.0951,69,71,0
144.12685,144.25383,71,71,0
144.28557,144.41255,69,71,0
144.4443,144.57129,71,71,0
144.60303,144.73001,72,71,0
144.76176,144.88875,71,71,0
144.76176,144.88875,67,71,0
144.76176,144.88875,62,71,0
144.92049,145.04747,72,71,0
145.07922,145.2062,74,71,0
145.71414,145.84113,67,71,0
145.87286,145.99985,69,71,0
146.0316,146.15858,71,71,0
146.19032,146.3173,69,71,0
146.34906,146.47604,71,71,0
146.5078,146.63478,72,71,0
146.66652,146.7935,62,71,0
146.66652,146.7935,68,71,0
146.66652,146.7935,71,71,0
146.82526,146.95224,72,71,0
146.98398,147.11096,74,71,0
147.6189,147.74588,68,71,0
147.77763,147.90462,69,71,0
147.93636,148.06334,71,71,0
148.0951,148.22208,69,71,0
148.25381,148.3808,71,71,0
148.41255,148.53954,73,71,0
148.57127,148.69826,68,81,0
148.57127,148.69826,71,81,0
148.73001,148.857,73,81,0
148.88873,149.01572,74,81,0
149.04747,149.17445,68,81,0
149.04747,149.17445,71,81,0
149.2062,149.33319,73,81,0
149.36493,149.49191,74,91,0
149.52367,149.65065,71,91,0
149.52367,149.65065,74,91,0
149.68239,149.80937,80,91,0
149.84113,149.96811,83,91,0
149.99985,150.12683,71,91,0
149.99985,150.12683,74,91,0
150.15858,150.28557,80,91,0
150.3173,150.44429,83,91,0
150.47604,150.66652,78,71,0
150.47604,150.66652,73,71,0
150.47604,150.66652,82,110,0
151.42842,151.5554,66,71,0
151.58714,151.71413,68,71,0
151.74588,151.87286,70,71,0
151.90462,152.0316,68,71,0
152.06334,152.19032,70,71,0
152.22208,152.34906,71,71,0
152.3808,152.50778,64,71,0
152.3808,152.50778,70,71,0
152.53954,152.66652,71,71,0
152.69826,152.82524,73,71,0
153.33318,153.46016,66,71,0
153.49191,153.6189,68,71,0
153.65063,153.77762,70,71,0
153.80937,153.93636,68,71,0
153.9681,154.09508,70,71,0
154.12683,154.25381,71,71,0
154.28555,154.41254,70,81,0
154.28555,154.41254,63,81,0
154.44429,154.57127,71,81,0
154.60303,154.73001,73,81,0
155.23795,155.36493,67,81,0
155.39667,155.52365,68,81,0
155.5554,155.68239,70,81,0
155.71413,155.84111,68,81,0
155.87286,155.99985,70,81,0
156.03159,156.15857,71,81,0
156.19032,156.3173,70,81,0
156.34904,156.47603,71,81,0
156.50778,156.63477,73,81,0
156.6665,156.79349,73,81,0
156.82524,156.95222,75,81,0
156.98396,157.11095,76,81,0
157.1427,157.26968,68,81,0
157.30144,157.42842,70,81,0
157.46016,157.58714,71,81,0
157.6189,157.74588,71,81,0
157.77762,157.9046,73,81,0
157.93636,158.06334,75,81,0
158.09508,158.22206,72,81,0
158.25381,158.3808,73,81,0
158.41254,158.53952,75,81,0
158.57127,158.69826,75,81,0
158.73,158.85698,77,81,0
158.88873,159.01572,78,81,0
159.04745,159.17444,70,81,0
159.20619,159.33318,72,81,0
159.36491,159.4919,73,81,0
159.52365,159.65063,73,81,0
159.68237,159.80936,75,81,0
159.84111,159.9681,77,81,0
159.99985,160.12683,74,91,0
160.15857,160.28555,75,91,0
160.3173,160.44429,77,91,0
160.47603,160.60301,77,91,0
160.63477,160.76175,79,91,0
160.79349,160.92047,80,91,0
160.95222,161.07921,72,91,0
161.11095,161.23793,74,91,0
161.26968,161.39667,75,91,0
161.4284,161.55539,75,91,0
161.58714,161.71413,77,91,0
161.74586,161.87285,79,91,0
161.9046,162.03159,74,91,0
162.06332,162.1903,75,91,0
162.22206,162.34904,77,91,0
162.38078,162.50777,77,91,0
162.53952,162.6665,79,91,0
162.69826,162.82524,80,91,0
162.85698,162.98396,71,91,0
163.01572,163.1427,72,91,0
163.17444,163.30142,74,91,0
163.33318,163.46016,74,91,0
163.4919,163.61888,75,91,0
163.65063,163.77762,77,91,0
163.80936,163.93634,67,91,0
163.9681,164.09508,69,91,0
164.12682,164.2538,71,91,0
164.28555,164.41254,71,91,0
164.44427,164.57126,72,91,0
164.60301,164.73,74,91,0
164.76173,164.88872,74,91,0
164.92047,165.04745,75,91,0
165.0792,165.20618,77,91,0
165.23793,165.36491,77,91,0
165.39667,165.52365,79,91,0
165.55539,165.68237,80,91,0
165.71413,165.84111,74,91,0
165.87285,165.99983,75,91,0
166.03159,166.15857,77,91,0
166.1903,166.31729,71,91,0
166.34904,166.47603,72,91,0
166.50777,166.63475,74,91,0
166.6665,166.79349,68,91,0
166.82523,166.95221,70,91,0
166.98396,167.11095,72,91,0
167.14268,167.26967,65,91,0
167.30142,167.4284,67,91,0
167.46014,167.58713,68,91,0
167.61888,167.74586,62,91,0
167.7776,167.90459,63,91,0
167.93634,168.06332,65,91,0
168.09508,168.22206,59,91,0
168.2538,168.38078,60,91,0
168.41254,168.53952,62,91,0
168.57126,168.69824,56,91,0
168.73,168.85698,58,91,0
168.88872,169.0157,60,91,0
169.04745,169.17444,53,91,0
169.20618,169.33316,55,91,0
169.36491,169.4919,56,91,0
169.52364,169.65062,56,91,0
169.68237,169.80936,58,91,0
169.8411,169.96808,60,91,0
169.99983,170.12682,53,91,0
170.15855,170.28554,55,91,0
170.31729,170.44427,56,91,0
170.47601,170.603,56,91,0
170.63475,170.76173,58,91,0
170.79349,170.92047,60,91,0
170.95221,171.0792,54,91,0
171.11095,171.23793,55,91,0
171.26967,171.39665,57,91,0
172.38078,172.76173,68,91,0
172.38078,172.76173,56,91,0
172.85696,173.46014,68,91,0
172.85696,173.46014,80,91,0
173.4919,173.61888,79,91,0
173.65062,173.7776,77,91,0
173.80936,173.93634,67,91,0
173.80936,173.93634,79,91,0
173.96808,174.09506,77,91,0
174.12682,174.2538,75,91,0
174.28554,174.66649,77,91,0
174.28554,174.66649,65,91,0
174.76173,175.39665,89,91,0
174.76173,175.39665,77,91,0
175.39665,175.52364,87,91,0
175.55537,175.68236,86,91,0
175.71411,175.8411,87,91,0
175.71411,175.8411,75,91,0
175.87283,175.99982,86,91,0
176.03157,176.15855,84,91,0
176.1903,176.79347,74,91,0
176.1903,176.79347,86,91,0
176.82523,176.95221,84,91,0
176.98395,177.11093,82,91,0
177.14268,177.74585,72,91,0
177.14268,177.74585,84,91,0
177.7776,177.90459,82,91,0
177.93633,178.06331,81,91,0
178.09506,178.66649,82,91,0
178.09506,178.66649,70,91,0
178.80934,178.99982,70,91,0
178.80934,178.99982,76,91,0
178.80934,178.99982,79,91,0
178.80934,178.99982,82,91,0
179.04744,179.23792,78,91,0
179.04744,179.23792,69,91,0
179.04744,179.23792,81,91,0
180.23792,180.42839,62,71,0
180.23792,180.42839,66,71,0
180.47601,180.66649,69,71,0
180.47601,180.66649,66,71,0
180.71411,180.90459,69,71,0
180.71411,180.90459,66,71,0
180.9522,181.33315,78,71,0
180.9522,181.33315,69,71,0
181.42839,181.80934,76,71,0
181.42839,181.80934,67,71,0
182.14267,182.33315,69,71,0
182.14267,182.33315,73,71,0
182.38077,182.57124,71,71,0
182.38077,182.57124,74,71,0
182.61887,182.80934,71,71,0
182.61887,182.80934,74,71,0
182.85696,183.23792,83,71,0
182.85696,183.23792,74,71,0
183.33315,183.7141,81,71,0
183.33315,183.93633,75,71,0
183.96806,184.1268,76,71,0
184.1268,184.28552,74,71,0
183.80934,184.44426,79,71,0
184.44426,184.57124,81,71,0
184.603,184.72998,79,71,0
184.28552,184.92046,73,71,0
184.92046,185.04744,74,71,0
185.07918,185.20616,73,71,0
184.76172,185.3649,78,71,0
185.39664,185.52362,79,71,0
185.55537,185.68236,78,71,0
185.23792,185.84108,71,71,0
185.87283,185.99982,73,81,0
185.7141,186.09505,76,81,0
186.03156,186.31728,71,91,0
186.34901,186.476,73,91,0
186.19029,186.57124,77,91,0
186.50775,186.63474,71,91,0
186.66647,187.04744,66,91,0
186.66647,187.04744,70,91,0
186.66647,187.04744,78,91,0
186.66647,187.04744,73,91,0
187.61887,187.99982,67,91,0
187.61887,187.99982,55,91,0
188.09505,188.69823,67,91,0
188.09505,188.69823,79,91,0
188.72997,188.85695,78,91,0
188.8887,189.01569,76,91,0
189.04742,189.17441,78,91,0
189.04742,189.17441,66,91,0
189.20616,189.33315,76,91,0
189.36488,189.49187,74,91,0
189.52362,189.90457,76,91,0
189.52362,189.90457,64,91,0
189.99982,190.38077,82,91,0
189.99982,190.38077,88,91,0
189.99982,190.38077,76,91,0
190.476,190.85695,75,91,0
190.476,190.85695,83,91,0
190.476,190.85695,87,91,0
191.42838,191.80933,64,91,0
191.42838,191.80933,76,91,0
191.90457,192.50775,76,91,0
191.90457,192.50775,88,91,0
192.53949,192.66647,86,91,0
192.69823,192.82521,84,91,0
192.85695,192.98393,86,91,0
193.01569,193.14267,84,91,0
193.17441,193.30139,83,91,0
193.33315,193.7141,72,91,0
193.33315,193.7141,84,91,0
193.80933,194.4125,96,91,0
193.80933,194.4125,84,91,0
194.44424,194.57123,95,91,0
194.60298,194.72997,93,91,0
194.7617,194.88869,83,91,0
194.7617,194.88869,95,91,0
194.92044,195.04742,93,91,0
195.07916,195.20616,91,91,0
195.2379,195.84108,81,91,0
195.2379,195.84108,93,91,0
195.87282,195.9998,91,91,0
196.03156,196.15854,90,91,0
196.19028,196.79346,91,91,0
196.19028,196.79346,79,91,0
196.8252,196.95218,90,91,0
196.98393,197.11092,88,91,0
197.14265,197.71408,78,91,0
197.14265,197.71408,90,91,0
197.85695,198.04742,78,91,0
197.85695,198.04742,84,91,0
197.85695,198.04742,90,91,0
198.09505,198.28552,89,91,0
198.09505,198.28552,85,91,0
198.09505,198.28552,77,91,0
199.28552,199.476,61,71,0
199.28552,199.476,65,71,0
199.5236,199.71408,65,71,0
199.5236,199.71408,68,71,0
199.7617,199.95218,68,71,0
199.7617,199.95218,65,71,0
199.9998,200.38075,68,71,0
199.9998,200.38075,77,71,0
200.47598,200.85695,67,71,0
200.47598,200.85695,76,71,0
201.19028,201.38075,64,71,0
201.19028,201.38075,60,71,0
201.42838,201.61885,67,71,0
201.42838,201.61885,64,71,0
201.66646,201.85693,64,71,0
201.90456,202.2855,76,71,0
201.66646,202.2855,67,71,0
202.38075,202.7617,66,71,0
202.38075,202.7617,75,71,0
203.09503,203.2855,59,71,0
203.09503,203.2855,63,71,0
203.33313,203.5236,63,71,0
203.33313,203.5236,66,71,0
203.57123,203.7617,63,71,0
203.80933,204.57123,75,71,0
203.57123,204.57123,66,71,0
204.9998,205.19028,63,71,0
205.23788,205.42836,75,71,0
204.9998,205.42836,66,71,0
205.47598,205.66646,66,71,0
205.47598,206.47598,75,71,0
205.71408,206.47598,78,81,0
206.90456,207.09503,66,81,0
207.14265,207.33313,78,81,0
206.90456,207.33313,75,81,0
207.38075,207.57123,75,81,0
207.61884,208.38074,87,91,0
207.38075,208.38074,78,81,0
208.80931,208.99979,75,91,0
209.04741,209.23788,87,91,0
208.80931,209.23788,78,91,0
209.2855,209.47598,78,91,0
209.2855,209.47598,75,91,0
209.2855,209.47598,87,91,0
209.5236,210.09503,87,91,0
209.5236,210.09503,78,91,0
209.5236,210.09503,90,91,0
210.23788,210.42836,78,91,0
210.23788,210.42836,75,91,0
210.23788,210.42836,87,91,0
210.47598,211.04741,90,91,0
210.47598,211.04741,87,91,0
210.47598,211.04741,78,91,0
211.19026,211.38074,88,91,0
211.19026,211.38074,79,91,0
211.19026,211.38074,76,91,0
211.42836,211.99979,91,91,0
211.42836,211.99979,79,91,0
211.42836,211.99979,88,91,0
212.14264,212.33311,87,91,0
212.14264,212.33311,78,91,0
212.14264,212.33311,75,91,0
212.38074,212.95216,78,91,0
212.38074,212.95216,87,91,0
212.38074,212.95216,90,91,0
213.09503,213.2855,79,91,0
213.09503,213.2855,88,91,0
213.09503,213.2855,76,91,0
213.33311,213.90454,79,116,0
213.33311,213.90454,91,116,0
213.33311,213.90454,88,116,0
214.04741,214.23788,88,116,0
214.04741,214.23788,76,116,0
214.2855,214.85693,92,116,0
214.2855,214.85693,80,116,0
214.2855,214.85693,85,116,0
214.99979,215.19026,88,116,0
214.99979,215.19026,76,116,0
215.23788,215.80931,81,116,0
215.23788,215.80931,85,116,0
215.23788,215.80931,93,116,0
215.23788,215.80931,88,116,0
215.95216,216.14264,88,116,0
215.95216,216.14264,76,116,0
216.19026,216.76169,88,116,0
216.19026,216.76169,85,116,0
216.19026,216.76169,82,116,0
216.19026,216.76169,94,116,0
216.90454,217.09502,90,116,0
216.90454,217.09502,78,116,0
217.14264,217.52359,87,104,0
217.14264,217.52359,83,104,0
217.14264,217.52359,95,104,0
217.14264,217.52359,90,104,0
217.61884,217.74582,83,104,0
217.61884,217.74582,90,104,0
217.61884,217.74582,87,104,0
217.61884,217.74582,95,104,0
217.77756,217.90454,93,104,0
217.9363,218.06328,91,104,0
218.09502,218.222,93,104,0
218.09502,218.222,81,104,0
218.25375,218.38074,91,104,0
218.41248,218.53946,90,104,0
218.57121,218.6982,79,104,0
218.57121,218.6982,91,104,0
218.72993,218.85692,90,104,0
218.88867,219.01566,88,104,0
219.0474,219.65057,81,104,0
219.0474,219.65057,93,104,0
219.68233,219.80931,91,104,0
219.84105,219.96803,90,104,0
219.99979,220.12677,79,104,0
219.99979,220.12677,91,104,0
220.15851,220.28549,90,104,0
220.31725,220.44423,88,104,0
220.47597,220.60295,78,104,0
220.47597,220.60295,90,104,0
220.6347,220.76169,88,104,0
220.79343,220.92041,87,104,0
220.95216,221.55533,91,104,0
220.95216,221.55533,79,104,0
221.58708,221.71407,90,104,0
221.7458,221.87279,88,104,0
221.90454,222.03152,90,104,0
221.90454,222.03152,78,104,0
222.06326,222.19025,88,104,0
222.222,222.34898,87,104,0
222.38074,222.50772,76,104,0
222.38074,222.50772,88,104,0
222.53946,222.66644,87,104,0
222.6982,222.82518,85,104,0
222.85692,222.9839,90,104,0
222.85692,222.9839,78,104,0
223.01566,223.14264,88,104,0
223.17438,223.30136,87,104,0
223.33311,223.4601,76,104,0
223.33311,223.4601,88,104,0
223.49184,223.61882,87,104,0
223.65057,223.77756,85,104,0
223.8093,223.93628,79,104,0
223.8093,223.93628,91,104,0
223.96803,224.09502,90,104,0
224.12675,224.25374,88,104,0
224.28549,224.41248,94,104,0
224.28549,224.41248,82,104,0
224.44421,224.5712,92,104,0
224.60295,224.72993,90,104,0
224.76167,224.95215,95,104,0
224.99977,225.19025,83,104,0
225.23787,225.42834,95,104,0
225.47597,225.66644,83,104,0
225.71407,225.90454,95,104,0
225.95215,226.14262,83,104,0
226.19025,226.38072,95,104,0
226.42834,226.61882,83,104,0
226.66644,226.85692,95,104,0
226.90454,227.09502,83,104,0
227.14262,227.3331,95,104,0
227.38072,227.5712,83,104,0
227.61882,227.8093,95,104,0
227.85692,228.0474,83,104,0
228.09502,228.28549,95,104,0
228.3331,228.52357,83,104,0
228.5712,228.76167,95,104,0
228.8093,228.99977,83,104,0
229.0474,229.23787,95,104,0
229.28549,229.47597,83,104,0
229.52357,229.71405,95,104,0
229.76167,229.95215,83,104,0
229.99977,230.19025,95,104,0
230.23787,230.42834,83,104,0
230.47597,230.66644,95,104,0
230.71405,230.90453,83,104,0
230.95215,231.14262,95,104,0
231.19025,231.38072,83,104,0
231.42834,231.61882,95,104,0
231.66643,231.85692,83,104,0
231.90453,232.095,95,104,0
232.14262,232.3331,83,104,0
232.38072,232.5712,95,104,0
233.095,233.28548,63,71,0
233.095,233.28548,66,71,0
233.095,233.28548,71,71,0
233.5712,233.76167,66,71,0
233.5712,233.76167,70,71,0
233.5712,233.76167,64,71,0
234.04738,234.23785,66,71,0
234.04738,234.23785,59,71,0
234.52357,234.71405,68,71,0
234.52357,234.71405,71,71,0
234.52357,234.71405,64,71,0
234.99977,235.19025,70,71,0
234.99977,235.19025,66,71,0
234.99977,235.19025,61,71,0
235.47595,235.66643,64,71,0
235.47595,235.66643,59,71,0
235.95215,236.14262,66,71,0
235.95215,236.14262,61,71,0
236.42833,236.6188,66,71,0
236.42833,236.6188,63,71,0
236.63667,236.65254,71,71,0
236.63667,236.65254,75,71,0
236.6962,236.88667,71,71,0
236.6962,236.88667,75,71,0
236.6962,236.88667,83,71,0
237.05333,237.14857,82,71,0
237.14262,237.1585,76,71,0
237.14262,237.1585,70,71,0
237.20215,237.39262,76,71,0
237.20215,237.39262,70,71,0
237.20215,237.39262,82,71,0
237.55928,237.65453,78,71,0
237.64857,237.66444,66,71,0
237.64857,237.66444,70,71,0
237.7081,237.89857,70,71,0
237.7081,237.89857,66,71,0
237.7081,237.89857,78,71,0
238.06523,238.16048,83,71,0
238.15453,238.30928,80,71,0
238.21405,238.30928,83,71,0
238.095,238.30928,71,71,0
238.45215,238.54738,82,71,0
238.54143,238.5573,73,71,0
238.54143,238.5573,70,71,0
238.5712,238.76167,73,71,0
238.5712,238.76167,70,71,0
238.5712,238.76167,82,71,0
238.92833,239.02357,78,71,0
239.01762,239.0335,71,71,0
239.01762,239.0335,66,71,0
239.04738,239.23785,71,71,0
239.04738,239.23785,66,71,0
239.04738,239.23785,78,71,0
239.28548,239.47595,80,71,0
239.4938,239.50967,73,71,0
239.4938,239.50967,66,71,0
239.55333,239.7438,73,71,0
239.55333,239.7438,66,71,0
239.55333,239.7438,78,71,0
239.79143,239.9819,76,71,0
239.99976,240.19023,75,71,0
240.23785,240.42833,77,71,0
240.47595,241.14261,78,81,0
241.19023,241.3807,80,71,0
241.42833,241.6188,78,71,0
241.66643,241.8569,76,71,0
241.90453,242.095,75,71,0
242.14261,242.33308,78,71,0
242.3807,242.95213,75,81,0
242.3807,242.95213,87,71,0
243.095,243.28548,86,71,0
243.095,243.28548,74,71,0
243.33308,243.52356,87,71,0
243.33308,243.52356,75,71,0
243.57118,243.76166,85,71,0
243.57118,243.76166,73,71,0
243.80928,243.99976,75,71,0
244.04738,244.23785,77,71,0
244.28548,244.8569,78,81,0
244.99976,245.19023,80,71,0
245.23785,245.42833,78,71,0
245.47595,245.66643,76,71,0
245.71404,245.90451,75,71,0
245.95213,246.14261,78,71,0
246.19023,246.76166,75,71,0
246.19023,246.76166,87,71,0
246.90451,247.09499,74,71,0
246.90451,247.09499,86,71,0
247.14261,247.80928,75,71,0
247.14261,247.80928,87,71,0
247.85689,248.04738,74,91,0
247.85689,248.04738,86,91,0
248.09499,248.66641,87,91,0
248.09499,248.66641,75,91,0
248.80928,248.99976,74,71,0
248.80928,248.99976,86,71,0
249.04736,249.23784,87,71,0
249.04736,249.23784,75,71,0
249.28546,249.47594,85,71,0
249.28546,249.47594,73,71,0
249.52356,249.90451,75,104,0
249.52356,249.90451,78,104,0
249.52356,249.90451,66,104,0
257.1426,257.52356,76,104,0
257.1426,257.52356,88,104,0
257.6188,258.22195,76,104,0
257.6188,258.22195,64,104,0
258.25372,258.3807,66,104,0
258.41245,258.53943,67,104,0
258.57117,258.69815,66,104,0
258.7299,258.85687,67,104,0
258.88864,259.01562,69,104,0
259.04736,259.17435,67,104,0
259.2061,259.33307,69,104,0
259.3648,259.4918,71,104,0
259.52356,260.1267,64,104,0
260.15848,260.28546,66,104,0
260.3172,260.44418,67,104,0
260.47592,260.6029,66,104,0
260.63467,260.76166,67,104,0
260.7934,260.92038,69,104,0
260.95212,261.0791,67,104,0
261.11084,261.23782,69,104,0
261.2696,261.39658,71,104,0
261.4283,262.0315,72,104,0
262.06323,262.19022,63,104,0
262.22195,262.34894,66,104,0
262.38068,262.98386,71,104,0
263.01562,263.1426,69,104,0
263.17435,263.30133,67,104,0
263.33307,263.46005,66,104,0
263.4918,263.61877,67,104,0
263.65054,263.77753,69,104,0
263.80927,263.93625,67,104,0
263.968,264.09497,64,104,0
264.1267,264.2537,63,104,0
264.28546,264.41245,61,104,0
264.44418,264.57117,63,104,0
264.6029,264.7299,64,104,0
264.76163,264.95212,63,104,0
264.99973,265.19022,75,104,0
265.23782,265.61877,69,104,0
265.71402,265.9045,67,104,0
265.95212,266.14258,79,104,0
266.19022,266.57117,71,104,0
266.6664,266.7934,70,104,0
266.82513,266.95212,71,104,0
266.98386,267.11084,73,104,0
267.14258,267.26956,74,104,0
267.30133,267.4283,73,104,0
267.46005,267.58704,71,104,0
267.61877,267.7775,73,104,0
267.7775,267.93625,76,104,0
267.93625,268.09497,78,104,0
268.09497,268.2537,79,104,0
268.2537,268.38068,78,104,0
268.41245,268.53943,76,104,0
268.57117,268.69815,75,104,0
268.7299,268.85687,76,104,0
268.8886,269.0156,78,104,0
269.04736,269.17435,79,104,0
269.2061,269.33307,78,104,0
269.3648,269.4918,76,104,0
269.52353,269.6505,78,104,0
269.68228,269.80927,81,104,0
269.841,269.968,83,104,0
269.99973,270.1267,84,104,0
270.15845,270.28543,83,104,0
270.3172,270.44418,81,104,0
270.47592,270.6029,79,104,0
270.63464,270.76163,78,104,0
270.79337,270.92035,76,104,0
271.19022,271.38068,76,104,0
271.19022,271.38068,88,104,0
271.4283,271.61877,74,104,0
271.4283,271.61877,86,104,0
271.66638,271.85687,71,104,0
271.66638,271.85687,83,104,0
271.90448,272.09497,72,104,0
271.90448,272.09497,84,104,0
272.14258,272.33307,66,104,0
272.14258,272.33307,78,104,0
272.38068,272.57117,71,104,0
272.38068,272.57117,83,104,0
272.61877,272.80927,64,104,0
272.61877,272.80927,76,104,0
273.09497,273.28543,76,104,0
273.09497,273.28543,88,104,0
273.33307,273.52353,86,104,0
273.33307,273.52353,74,104,0
273.57117,273.76163,71,104,0
273.57117,273.76163,83,104,0
273.80927,273.99973,72,104,0
273.80927,273.99973,84,104,0
274.04733,274.23782,78,104,0
274.04733,274.23782,66,104,0
274.28543,274.47592,83,104,0
274.28543,274.47592,71,104,0
274.52353,274.71402,64,104,0
274.52353,274.71402,76,104,0
274.99973,275.19022,71,104,0
274.99973,275.19022,83,104,0
275.23782,275.42828,81,104,0
275.23782,275.42828,69,104,0
275.47592,275.66638,63,104,0
275.47592,275.66638,75,104,0
275.95212,276.14258,69,104,0
275.95212,276.14258,81,104,0
276.1902,276.38068,79,104,0
276.1902,276.38068,67,104,0
276.42828,276.61877,61,104,0
276.42828,276.61877,73,104,0
276.66638,276.85687,75,104,0
276.66638,276.85687,63,104,0
276.90448,277.09497,66,104,0
276.90448,277.09497,78,104,0
277.14258,277.33307,76,104,0
277.14258,277.33307,64,104,0
277.38068,277.57114,67,104,0
277.38068,277.57114,79,104,0
277.61877,277.80923,70,104,0
277.61877,277.80923,58,104,0
277.85687,278.04733,73,104,0
277.85687,278.04733,61,104,0
278.09497,278.28543,71,104,0
278.09497,278.28543,59,104,0
278.33307,278.52353,59,104,0
278.33307,278.52353,71,104,0
278.57114,278.76163,63,104,0
278.57114,278.76163,75,104,0
278.80923,278.99973,75,104,0
278.80923,278.99973,63,104,0
279.04733,279.42828,71,104,0
279.04733,279.42828,83,104,0
279.52353,279.57114,82,104,0
279.58307,279.63068,83,104,0
279.64258,279.6902,82,104,0
279.7021,279.74973,83,104,0
279.76163,279.80923,82,104,0
279.82114,279.86877,83,104,0
279.52353,279.90448,70,104,0
279.88068,279.92828,80,104,0
279.9402,279.98782,82,104,0
279.99973,280.1902,71,104,0
279.99973,280.1902,83,104,0
280.23782,280.42828,71,104,0
280.23782,280.42828,59,104,0
280.47592,280.66638,75,104,0
280.47592,280.66638,63,104,0
280.71402,280.90448,63,104,0
280.71402,280.90448,75,104,0
280.9521,281.33304,71,104,0
280.9521,281.33304,83,104,0
281.42828,281.47592,84,104,0
281.48782,281.53543,85,104,0
281.54733,281.59497,84,104,0
281.60687,281.65448,85,104,0
281.66638,281.714,84,104,0
281.72592,281.77353,85,104,0
281.42828,281.80923,72,104,0
281.78543,281.83304,83,104,0
281.84497,281.89258,84,104,0
281.90448,282.09497,73,104,0
281.90448,282.09497,85,104,0
282.14258,282.33304,61,104,0
282.14258,282.33304,73,104,0
282.38068,282.57114,77,104,0
282.38068,282.57114,65,104,0
282.61877,282.80923,77,104,0
282.61877,282.80923,65,104,0
282.85687,283.23782,73,104,0
282.85687,283.23782,85,104,0
283.33304,283.38068,84,104,0
283.39258,283.4402,85,104,0
283.4521,283.49973,84,104,0
283.51163,283.55923,85,104,0
283.57114,283.61877,84,104,0
283.63068,283.67828,85,104,0
283.33304,283.714,72,104,0
283.6902,283.73782,83,104,0
283.74973,283.79733,84,104,0
283.80923,283.99973,73,104,0
283.80923,283.99973,85,104,0
284.04733,284.23782,73,104,0
284.04733,284.23782,61,104,0
284.28543,284.4759,77,104,0
284.28543,284.4759,65,104,0
284.52353,284.714,77,104,0
284.52353,284.714,65,104,0
284.76163,285.14258,73,104,0
284.76163,285.14258,85,104,0
285.23782,285.28543,86,104,0
285.29733,285.34494,88,104,0
285.35687,285.40448,86,104,0
285.41638,285.464,88,104,0
285.4759,285.52353,86,104,0
285.53543,285.58304,88,104,0
285.59494,285.64258,86,104,0
285.65448,285.7021,88,104,0
285.714,286.09494,86,104,0
285.23782,286.09494,74,104,0
286.1902,286.23782,87,104,0
286.24973,286.29733,88,104,0
286.30923,286.35684,87,104,0
286.36877,286.41638,88,104,0
286.42828,286.4759,87,104,0
286.48782,286.53543,88,104,0
286.54733,286.59494,87,104,0
286.60684,286.65448,88,104,0
286.1902,286.9521,75,104,0
286.66638,287.04733,87,104,0
287.14258,287.1902,90,104,0
287.2021,287.24973,92,104,0
287.26163,287.30923,90,104,0
287.32114,287.36877,92,104,0
287.38068,287.42828,90,104,0
287.4402,287.4878,92,104,0
287.49973,287.54733,90,104,0
287.55923,287.60684,92,104,0
287.61877,287.99973,90,104,0
287.14258,287.99973,87,104,0
287.14258,287.99973,78,104,0
288.09494,288.4759,79,116,0
288.09494,288.4759,88,104,0
288.09494,288.4759,91,104,0
288.57114,289.6505,79,116,0
288.57114,289.6505,67,116,0
288.57114,289.6505,76,116,0
289.68225,289.80923,78,116,0
289.68225,289.80923,81,116,0
289.84097,289.96796,79,116,0
289.84097,289.96796,82,116,0
289.9997,290.1267,78,116,0
289.9997,290.1267,81,116,0
290.15845,290.28543,82,116,0
290.15845,290.28543,79,116,0
290.31717,290.44415,81,116,0
290.31717,290.44415,84,116,0
290.4759,290.60287,79,116,0
290.4759,290.60287,82,116,0
290.63464,290.76163,81,116,0
290.63464,290.76163,84,116,0
290.79337,290.92035,82,116,0
290.79337,290.92035,86,116,0
290.9521,291.55527,76,116,0
290.9521,291.55527,79,116,0
291.587,291.714,78,116,0
291.587,291.714,81,116,0
291.74573,291.8727,79,116,0
291.74573,291.8727,82,116,0
291.90448,292.03146,78,116,0
291.90448,292.03146,81,116,0
292.0632,292.1902,82,116,0
292.0632,292.1902,79,116,0
292.22192,292.3489,81,116,0
292.22192,292.3489,84,116,0
292.38065,292.50763,82,116,0
292.38065,292.50763,79,116,0
292.5394,292.66638,84,116,0
292.5394,292.66638,81,116,0
292.69812,292.8251,86,116,0
292.69812,292.8251,82,116,0
292.85684,293.49176,88,116,0
292.85684,293.49176,84,116,0
293.49176,293.61874,79,116,0
293.6505,293.7775,88,116,0
293.80923,294.4124,89,116,0
293.80923,294.4124,81,116,0
293.80923,294.4124,84,116,0
294.44415,294.57114,81,116,0
294.60287,294.72986,89,116,0
294.7616,295.36478,93,116,0
294.7616,295.36478,84,116,0
295.3965,295.52353,81,116,0
295.55527,295.68225,93,116,0
295.714,296.31717,99,116,0
295.714,296.31717,87,116,0
296.3489,296.4759,69,116,0
296.50763,296.6346,81,116,0
296.66638,297.26953,75,116,0
296.66638,297.26953,87,116,0
297.3013,297.42828,69,116,0
297.46002,297.587,81,116,0
297.61874,297.74573,87,116,0
297.61874,297.74573,75,116,0
297.77747,297.90445,69,116,0
297.93622,298.0632,81,116,0
298.09494,298.22192,87,116,0
298.09494,298.22192,75,116,0
298.25366,298.38065,69,116,0
298.4124,298.5394,87,116,0
298.4124,298.5394,75,116,0
298.57114,298.69812,90,116,0
298.57114,298.69812,78,116,0
298.72986,298.85684,81,116,0
298.72986,298.85684,69,116,0
298.88858,299.01556,75,116,0
298.88858,299.01556,87,116,0
299.04733,299.42828,83,104,0
299.04733,299.42828,79,104,0
299.04733,299.65048,88,104,0
299.68225,299.80923,86,104,0
299.84097,299.96796,84,104,0
299.9997,300.12668,86,104,0
299.04733,300.1902,76,104,0
300.15842,300.2854,84,104,0
300.31717,300.44415,83,104,0
300.4759,300.60287,84,104,0
300.6346,300.7616,83,104,0
300.4759,300.85684,76,104,0
300.79333,300.92035,81,104,0
300.9521,301.55527,88,104,0
300.9521,301.55527,79,104,0
301.587,301.714,86,104,0
301.74573,301.8727,84,104,0
301.90445,302.03143,86,104,0
300.9521,302.09494,76,104,0
302.0632,302.1902,84,104,0
302.22192,302.3489,83,104,0
302.38065,302.50763,84,104,0
302.53937,302.66635,83,104,0
302.38065,302.7616,76,104,0
302.69812,302.8251,81,104,0
302.85684,303.2378,83,104,0
302.85684,303.2378,79,104,0
302.85684,303.46002,88,104,0
303.49176,303.61874,86,104,0
303.33304,303.714,82,104,0
303.33304,303.714,79,104,0
303.65048,303.77747,85,104,0
303.80923,304.1902,81,104,0
303.80923,304.1902,78,104,0
303.80923,304.41238,86,104,0
304.44415,304.57114,84,104,0
304.2854,304.66635,77,104,0
304.2854,304.66635,80,104,0
304.60287,304.72986,83,104,0
304.7616,305.14255,76,104,0
304.7616,305.14255,79,104,0
304.7616,305.36478,84,104,0
305.3965,305.5235,83,104,0
305.2378,305.61874,76,104,0
305.2378,305.61874,78,104,0
305.55524,305.68222,82,104,0
305.714,305.90445,71,104,0
305.714,305.90445,83,104,0
305.714,305.90445,78,104,0
305.9521,306.14255,76,104,0
305.9521,306.14255,79,104,0
305.9521,306.14255,67,104,0
306.19016,306.38065,76,104,0
306.19016,306.57114,71,104,0
306.19016,306.57114,66,104,0
306.19016,306.57114,78,104,0
306.42825,306.61874,75,104,0
306.66635,307.0473,67,104,0
306.66635,307.0473,76,104,0
306.66635,307.0473,71,104,0
306.66635,307.26953,64,104,0
307.30127,307.42825,66,104,0
307.46002,307.587,67,104,0
307.61874,307.74573,66,104,0
307.77747,307.90445,67,104,0
307.9362,308.06317,69,104,0
308.09494,308.22192,67,104,0
308.25366,308.38065,69,104,0
308.41238,308.53937,71,104,0
308.5711,308.95206,72,104,0
308.5711,308.95206,69,104,0
308.5711,309.1743,64,104,0
309.0473,309.2378,71,104,0
309.0473,309.2378,67,104,0
309.20605,309.33304,66,104,0
309.36478,309.49176,67,104,0
309.5235,309.65048,66,104,0
309.68222,309.8092,67,104,0
309.84097,309.96796,69,104,0
309.9997,310.12668,67,104,0
310.15842,310.2854,69,104,0
310.31714,310.44412,71,104,0
310.4759,310.85684,69,104,0
310.4759,310.85684,72,104,0
310.4759,311.07904,64,104,0
310.95206,311.14255,71,104,0
310.95206,311.14255,67,104,0
311.1108,311.2378,66,104,0
311.26953,311.3965,67,104,0
311.42825,311.8092,72,104,0
311.42825,311.8092,69,104,0
311.42825,312.03143,64,104,0
311.90445,312.09494,67,104,0
311.90445,312.09494,71,104,0
312.06317,312.19016,66,104,0
312.22192,312.3489,67,104,0
312.38065,312.50763,64,71,0
312.53937,312.66635,66,71,0
312.6981,312.82507,67,71,0
312.85684,312.98383,64,71,0
313.01556,313.14255,66,71,0
312.38065,313.14255,69,71,0
312.38065,313.14255,72,71,0
313.1743,313.30127,67,71,0
313.333,313.46,64,71,0
313.49176,313.61874,66,91,0
313.65048,313.77747,67,91,0
313.8092,313.9362,64,91,0
313.96793,314.0949,66,91,0
313.333,314.0949,71,71,0
314.12668,314.25366,67,91,0
314.2854,314.41238,64,91,0
314.44412,314.5711,66,91,0
314.60287,314.72986,67,91,0
314.7616,314.88858,64,91,0
314.92032,315.0473,66,91,0
314.2854,315.0473,70,91,0
315.07904,315.20602,67,91,0
315.2378,315.36478,64,91,0
315.3965,315.5235,66,91,0
315.55524,315.68222,67,91,0
315.71396,315.84094,64,91,0
315.8727,315.9997,66,91,0
315.2378,315.9997,70,91,0
316.03143,316.15842,67,91,0
316.19016,316.31714,64,91,0
316.34888,316.47586,66,91,0
316.50763,316.6346,67,91,0
316.66635,316.79333,64,91,0
316.82507,316.95206,66,91,0
316.19016,316.95206,69,91,0
316.9838,317.11078,67,91,0
317.14255,317.26953,69,91,0
317.30127,317.42825,76,91,0
317.46,317.58698,79,91,0
317.61874,317.74573,69,91,0
317.77747,317.90445,76,91,0
317.14255,317.90445,81,91,0
317.9362,318.06317,79,91,0
318.0949,318.2219,64,91,0
318.25366,318.38065,66,91,0
318.41238,318.53937,67,91,0
318.5711,318.6981,64,91,0
318.72983,318.8568,66,91,0
318.0949,318.8568,70,91,0
318.88858,319.01556,67,91,0
319.0473,319.1743,70,91,0
319.20602,319.333,76,91,0
319.36475,319.49173,79,91,0
319.5235,319.65048,70,91,0
319.68222,319.8092,76,91,0
319.0473,319.8092,82,91,0
319.84094,319.96793,79,91,0
319.9997,320.12668,64,91,0
320.15842,320.2854,66,91,0
320.31714,320.44412,67,91,0
320.47586,320.60284,64,91,0
320.6346,320.7616,66,91,0
319.9997,320.7616,71,91,0
320.79333,320.92032,67,104,0
320.95206,321.07904,73,104,0
321.11078,321.23776,76,104,0
321.26953,321.3965,79,104,0
321.42825,321.55524,73,104,0
321.58698,321.71396,76,104,0
321.7457,321.87268,79,104,0
321.90445,322.03143,73,104,0
322.06317,322.19016,76,104,0
322.2219,322.34888,79,104,0
322.3806,322.5076,73,104,0
322.53937,322.66635,76,104,0
322.6981,322.82507,79,91,0
322.8568,322.9838,73,91,0
323.01556,323.14255,76,91,0
323.1743,323.30127,79,91,0
320.95206,323.42825,85,104,0
323.333,323.46,73,91,0
323.49173,323.6187,76,91,0
323.65048,323.77747,79,91,0
323.8092,323.9362,71,81,0
323.96793,324.0949,76,81,0
324.12665,324.25363,80,81,0
324.2854,324.41238,71,81,0
324.44412,324.5711,76,81,0
323.8092,324.5711,83,81,0
324.60284,324.72983,80,81,0
324.76157,324.88855,71,81,0
324.92032,325.0473,76,81,0
325.07904,325.20602,79,81,0
325.23776,325.36475,71,81,0
325.3965,325.5235,76,81,0
324.76157,325.5235,83,81,0
325.55524,325.68222,79,81,0
325.71396,325.84094,70,81,0
325.87268,325.99966,76,81,0
326.03143,326.15842,79,81,0
326.19016,326.31714,70,81,0
326.34888,326.47586,76,81,0
325.71396,326.47586,82,81,0
326.5076,326.63458,79,81,0
326.66635,326.79333,69,81,0
326.82507,326.95206,75,81,0
326.9838,327.11078,78,81,0
327.14252,327.2695,69,81,0
327.30127,327.42825,75,81,0
326.66635,327.42825,81,81,0
327.46,327.58698,78,81,0
327.6187,327.7457,68,81,0
327.77744,327.90442,71,81,0
327.9362,328.06317,76,81,0
328.0949,328.2219,68,81,0
328.25363,328.3806,71,81,0
327.6187,328.3806,80,81,0
328.41238,328.53937,76,81,0
328.5711,328.6981,67,81,0
328.72983,328.8568,70,81,0
328.88855,329.01553,76,81,0
329.0473,329.1743,67,81,0
329.20602,329.333,70,81,0
328.5711,329.333,79,81,0
329.36475,329.49173,76,81,0
329.52347,329.65045,66,81,0
329.68222,329.8092,71,81,0
329.84094,329.96793,76,81,0
329.99966,330.133,66,81,0
330.16635,330.29968,71,81,0
329.52347,330.29968,78,81,0
330.333,330.46634,76,81,0
330.49966,330.64,66,81,0
330.6751,330.81546,69,81,0
330.85056,330.9909,75,81,0
331.026,331.1755,66,81,0
331.2129,331.36243,69,81,0
330.49966,331.36243,78,81,0
331.3998,331.54935,75,81,0
331.58673,331.88672,76,71,0
331.58673,331.88672,67,71,0
332.14923,332.29922,66,71,0
332.14923,332.29922,59,71,0
332.14923,332.29922,69,71,0
332.33673,332.63672,59,71,0
332.33673,332.63672,67,71,0
332.33673,332.63672,64,71,0
332.89923,333.04922,59,71,0
332.89923,333.04922,69,71,0
332.89923,333.04922,66,71,0
333.08673,333.38672,64,71,0
333.08673,333.38672,67,71,0
333.08673,333.38672,59,71,0
333.64923,333.79922,68,71,0
333.64923,333.79922,64,71,0
333.64923,333.79922,59,71,0
333.83673,334.13672,57,71,0
333.83673,334.13672,69,71,0
333.83673,334.13672,64,71,0
334.39923,334.54922,68,71,0
334.39923,334.54922,71,71,0
334.39923,334.54922,62,71,0
334.58673,334.88672,64,81,0
334.58673,334.88672,72,81,0
334.58673,334.88672,69,81,0
334.96173,335.11172,70,110,0
334.96173,335.41174,78,81,0
334.96173,335.41174,73,81,0
335.14923,335.44922,66,81,0
335.52423,335.67422,75,81,0
335.52423,335.67422,66,81,0
335.52423,335.67422,71,81,0
335.71173,335.86172,68,81,0
335.71173,336.01172,71,81,0
335.71173,336.01172,76,81,0
335.89923,336.23672,64,81,0
336.08673,336.23672,76,81,0
336.08673,336.23672,71,81,0
336.27423,336.42422,73,81,0
336.27423,336.42422,69,81,0
336.27423,336.42422,64,81,0
336.46173,336.61172,69,81,0
336.46173,336.61172,62,81,0
336.46173,336.61172,66,81,0
336.46173,336.61172,74,81,0
336.64923,336.79922,71,81,0
336.64923,336.79922,67,81,0
336.64923,336.79922,62,81,0
336.83673,336.98672,60,81,0
336.83673,336.98672,66,81,0
336.83673,336.98672,72,81,0
337.02423,337.17422,69,81,0
337.02423,337.17422,66,81,0
337.02423,337.17422,60,81,0
337.21173,337.36172,64,81,0
337.21173,337.36172,67,81,0
337.21173,337.36172,59,81,0
337.39923,337.54922,63,81,0
337.39923,337.54922,66,81,0
337.39923,337.54922,59,81,0
337.58673,337.68674,64,81,0
337.71173,337.81174,66,81,0
337.83673,337.93674,67,81,0
337.96173,338.06174,66,81,0
338.08673,338.18674,67,81,0
338.21173,338.31174,69,81,0
338.33673,338.43674,67,81,0
338.46173,338.56174,69,81,0
338.58673,338.68674,71,81,0
338.71173,338.81174,66,81,0
338.83673,338.93674,67,81,0
338.96173,339.06174,69,81,0
339.08673,339.18674,67,81,0
339.21173,339.31174,69,81,0
339.33673,339.43674,71,81,0
339.46173,339.56174,68,81,0
339.58673,339.68674,69,81,0
339.71173,339.81174,71,81,0
339.83673,339.93674,69,81,0
339.96173,340.06174,71,81,0
340.08673,340.18674,72,81,0
340.21173,340.31174,71,81,0
340.33673,340.43674,72,81,0
340.46173,340.56174,74,81,0
340.58673,340.68674,72,81,0
340.71173,340.81174,74,81,0
340.83673,340.93674,76,81,0
340.96173,341.41174,73,81,0
340.96173,341.41174,78,81,0
340.96173,341.41174,66,81,0
341.52423,341.67422,71,81,0
341.52423,341.67422,75,81,0
341.52423,341.67422,66,81,0
341.71173,342.23672,71,81,0
341.71173,342.23672,76,81,0
341.71173,342.23672,64,81,0
342.27423,342.42422,64,81,0
342.27423,342.42422,69,81,0
342.27423,342.42422,73,81,0
342.46173,342.61172,62,81,0
342.46173,342.61172,69,81,0
342.46173,342.61172,74,81,0
342.64923,342.79922,62,81,0
342.64923,342.79922,71,81,0
342.64923,342.79922,67,81,0
342.83673,342.98672,72,81,0
342.83673,342.98672,60,81,0
342.83673,342.98672,66,81,0
343.02423,343.17422,60,81,0
343.02423,343.17422,66,81,0
343.02423,343.17422,69,81,0
343.21173,343.36172,67,81,0
343.21173,343.36172,59,81,0
343.21173,343.36172,64,81,0
343.39923,343.54922,59,81,0
343.39923,343.54922,63,81,0
343.39923,343.54922,66,81,0
343.77423,343.92422,66,81,0
343.77423,343.92422,60,81,0
343.96173,344.11172,67,81,0
343.96173,344.11172,64,81,0
343.96173,344.11172,59,81,0
344.14923,344.29922,66,81,0
344.14923,344.29922,63,81,0
344.14923,344.29922,71,81,0
344.33673,344.48672,69,81,0
344.33673,344.48672,64,81,0
344.33673,344.48672,76,81,0
344.52423,344.67422,72,81,0
344.52423,344.67422,69,81,0
344.52423,344.67422,64,81,0
344.71173,344.86172,71,81,0
344.71173,344.86172,67,81,0
344.71173,344.86172,62,81,0
344.89923,345.04922,62,81,0
344.89923,345.04922,69,81,0
344.89923,345.04922,66,81,0
345.27423,345.42422,64,81,0
345.27423,345.42422,69,81,0
345.46173,345.61172,62,81,0
345.46173,345.61172,71,81,0
345.46173,345.61172,67,81,0
345.64923,345.79922,66,81,0
345.64923,345.79922,69,81,0
345.64923,345.79922,74,81,0
345.83673,345.98672,67,81,0
345.83673,345.98672,73,81,0
345.83673,345.98672,79,81,0
346.02423,346.17422,73,81,0
346.02423,346.17422,67,81,0
346.02423,346.17422,76,81,0
346.21173,346.36172,66,81,0
346.21173,346.36172,71,81,0
346.21173,346.36172,74,81,0
346.39923,346.54922,66,81,0
346.39923,346.54922,73,81,0
346.39923,346.54922,70,81,0
346.77423,346.92422,73,81,0
346.77423,346.92422,70,81,0
346.96173,347.11172,75,81,0
346.96173,347.11172,71,81,0
347.14923,347.29922,76,81,0
347.14923,347.29922,73,81,0
347.33673,347.48672,78,81,0
347.33673,347.48672,75,81,0
347.52423,347.67422,66,81,0
347.52423,347.67422,78,81,0
347.52423,347.67422,75,81,0
347.71173,347.86172,76,81,0
347.71173,347.86172,79,81,0
347.71173,347.86172,67,81,0
347.89923,348.04922,69,81,0
347.89923,348.04922,78,81,0
347.89923,348.04922,81,81,0
348.08673,348.23672,80,91,0
348.08673,348.23672,71,91,0
348.08673,348.23672,83,91,0
348.27423,348.42422,80,91,0
348.27423,348.42422,83,91,0
348.27423,348.42422,71,91,0
348.46173,348.61172,84,91,0
348.46173,348.61172,72,91,0
348.46173,348.61172,81,91,0
348.64923,348.79922,86,91,0
348.64923,348.79922,74,91,0
348.64923,348.79922,83,91,0
348.83673,348.98672,88,91,0
348.83673,348.98672,84,91,0
348.83673,348.98672,76,91,0
349.02423,349.17422,76,91,0
349.02423,349.17422,88,91,0
349.02423,349.17422,84,91,0
349.21173,349.73672,77,91,0
349.21173,349.73672,84,91,0
349.21173,349.73672,89,91,0
349.77423,349.92422,89,91,0
349.77423,349.92422,77,91,0
349.96173,350.41174,93,91,0
349.96173,350.41174,89,91,0
349.96173,350.41174,81,91,0
350.52423,350.67422,81,91,0
350.52423,350.67422,93,91,0
350.71173,351.38672,96,91,0
350.71173,351.38672,84,91,0
350.71173,351.38672,93,91,0
351.46173,352.06174,96,104,0
351.46173,352.06174,93,104,0
351.46173,352.06174,84,104,0
352.21173,352.51172,84,104,0
352.21173,352.51172,96,104,0
352.21173,352.51172,93,104,0
352.58673,352.68674,83,104,0
352.58673,352.68674,91,104,0
352.71173,352.81174,93,104,0
352.83673,352.93674,95,104,0
352.96173,353.06174,81,104,0
352.96173,353.06174,90,104,0
353.08673,353.18674,91,104,0
353.21173,353.31174,93,104,0
353.33673,353.43674,79,104,0
353.33673,353.43674,88,104,0
353.46173,353.56174,90,104,0
353.58673,353.68674,91,104,0
353.71173,353.81174,78,104,0
353.71173,353.81174,87,104,0
353.83673,353.93674,88,104,0
353.96173,354.06174,90,104,0
354.08673,354.18674,88,104,0
354.08673,354.18674,79,104,0
354.21173,354.31174,90,104,0
354.33673,354.43674,91,104,0
354.46173,354.56174,86,104,0
354.46173,354.56174,77,104,0
354.58673,354.68674,88,104,0
354.71173,354.81174,89,104,0
354.83673,354.93674,84,104,0
354.83673,354.93674,76,104,0
354.96173,355.06174,86,104,0
355.08673,355.18674,88,104,0
355.21173,355.31174,83,104,0
355.21173,355.31174,74,104,0
355.33673,355.43674,84,104,0
355.46173,355.56174,86,104,0
355.58673,355.68674,88,104,0
355.58673,355.68674,79,104,0
355.71173,355.81174,90,104,0
355.83673,355.93674,91,104,0
355.96173,356.06174,77,104,0
355.96173,356.06174,86,104,0
356.08673,356.18674,88,104,0
356.21173,356.31174,89,104,0
356.33673,356.43674,84,104,0
356.33673,356.43674,76,104,0
356.46173,356.56174,86,104,0
356.58673,356.68674,88,104,0
356.71173,356.81174,74,104,0
356.71173,356.81174,83,104,0
356.83673,356.93674,84,104,0
356.96173,357.06174,86,104,0
357.08673,357.18674,76,104,0
357.08673,357.18674,84,104,0
357.21173,357.31174,86,104,0
357.33673,357.43674,88,104,0
357.46173,357.56174,72,104,0
357.46173,357.56174,81,104,0
357.58673,357.68674,83,104,0
357.71173,357.81174,84,104,0
357.83673,357.93674,79,104,0
357.83673,357.93674,71,104,0
357.96173,358.06174,81,104,0
358.08673,358.18674,83,104,0
358.21173,358.31174,69,104,0
358.21173,358.31174,77,104,0
358.33673,358.43674,79,104,0
358.46173,358.56174,81,104,0
358.58673,358.88672,67,104,0
358.58673,358.88672,76,104,0
358.58673,358.88672,79,104,0
359.14923,359.29922,75,104,0
359.14923,359.29922,78,104,0
359.14923,359.29922,66,104,0
359.33673,359.63672,76,104,0
359.33673,359.63672,79,104,0
359.33673,359.63672,67,104,0
359.89923,360.04922,78,104,0
359.89923,360.04922,83,104,0
359.89923,360.04922,71,104,0
359.89923,360.04922,75,104,0
360.08673,360.38672,71,104,0
360.08673,360.38672,79,104,0
360.08673,360.38672,83,104,0
360.08673,360.38672,76,104,0
360.64923,360.79922,78,104,0
360.64923,360.79922,90,104,0
360.64923,360.79922,87,104,0
360.83673,361.13672,79,104,0
360.83673,361.13672,88,104,0
360.83673,361.13672,91,104,0
361.39923,361.54922,95,104,0
361.39923,361.54922,83,104,0
361.39923,361.54922,90,104,0
361.39923,361.54922,87,104,0
361.58673,361.88672,91,104,0
361.58673,361.88672,83,104,0
361.58673,361.88672,88,104,0
361.58673,361.88672,95,104,0
361.96173,362.06174,78,104,0
362.08673,362.18674,79,104,0
362.21173,362.31174,81,104,0
362.21173,362.31174,69,104,0
362.33673,362.43674,79,104,0
362.46173,362.56174,81,104,0
362.58673,362.68674,71,104,0
362.58673,362.68674,83,104,0
362.71173,362.81174,76,104,0
362.83673,362.93674,78,104,0
362.96173,363.06174,67,104,0
362.96173,363.06174,79,104,0
363.08673,363.18674,84,104,0
363.21173,363.31174,86,104,0
363.33673,363.43674,76,104,0
363.33673,363.43674,88,104,0
363.46173,363.56174,81,104,0
363.58673,363.68674,83,104,0
363.71173,363.81174,84,104,0
363.71173,363.81174,72,104,0
363.83673,363.93674,77,104,0
363.96173,364.06174,80,104,0
364.08673,364.18674,69,104,0
364.08673,364.18674,81,104,0
364.21173,364.31174,72,104,0
364.33673,364.43674,76,104,0
364.46173,364.56174,77,104,0
364.46173,364.56174,65,104,0
364.58673,364.88672,69,104,0
365.33673,365.63672,83,104,0
365.33673,365.63672,78,104,0
365.33673,365.63672,71,104,0
365.33673,365.63672,75,104,0
366.08673,366.98672,79,104,0
366.08673,366.98672,88,104,0
366.08673,366.98672,76,104,0
366.08673,366.98672,83,104,0
0.0,0.380952,52,104,0
0.47619,1.079364,40,104,0
0.47619,1.079364,52,104,0
1.11111,1.238094,54,104,0
1.26984,1.396824,55,104,0
1.42857,1.555554,54,104,0
1.5873,1.714284,55,104,0
1.74603,1.873014,57,104,0
1.90476,2.031744,55,104,0
2.06349,2.190474,57,104,0
2.22222,2.349204,59,104,0
2.38095,2.984124,52,104,0
3.01587,3.142854,54,104,0
3.1746,3.301584,55,104,0
3.33333,3.460314,54,104,0
3.49206,3.619044,55,104,0
3.65079,3.777774,57,104,0
3.80952,3.936504,55,104,0
3.96825,4.095234,57,104,0
4.12698,4.253964,59,104,0
4.28571,4.888884,60,104,0
4.92063,5.047614,51,104,0
5.07936,5.206344,54,104,0
5.23809,5.841264,59,104,0
5.87301,5.999994,57,104,0
6.03174,6.158724,55,104,0
6.19047,6.317454,54,104,0
6.3492,6.476184,55,104,0
6.50793,6.634914,57,104,0
6.66666,6.793644,55,104,0
6.82539,6.952374,52,104,0
6.98412,7.111104,51,104,0
7.14285,7.269834,49,104,0
7.30158,7.428564,51,104,0
7.46031,7.587294,52,104,0
7.61904,7.999992,47,104,0
7.61904,7.999992,51,104,0
8.333325,8.523801,59,104,0
8.57142,8.761896,57,104,0
8.809515,8.999991,54,104,0
9.04761,9.238086,55,104,0
9.285705,9.476181,49,104,0
9.5238,9.714276,54,104,0
9.761895,9.952371,47,104,0
10.238085,10.428561,59,104,0
10.47618,10.666656,57,104,0
10.714275,10.904751,54,104,0
10.95237,11.142846,55,104,0
11.190465,11.380941,49,104,0
11.42856,11.619036,54,104,0
11.666655,11.857131,47,104,0
12.142845,12.333321,54,104,0
12.38094,12.571416,52,104,0
12.619035,12.809511,46,104,0
13.095225,13.285701,52,104,0
13.33332,13.523796,51,104,0
13.571415,13.761891,47,104,0
13.80951,13.999986,46,104,0
14.047605,14.238081,49,104,0
14.2857,14.476176,47,104,0
14.523795,14.714271,52,104,0
14.76189,14.952366,51,104,0
14.999985,15.190461,54,104,0
15.23808,15.428556,52,104,0
15.476175,15.666651,40,104,0
15.71427,15.904746,43,104,0
15.952365,16.142841,43,104,0
16.19046,16.571411,52,104,0
16.66665,16.71427,51,104,0
16.726173,16.773792,52,104,0
16.785698,16.833317,51,104,0
16.84522,16.89284,52,104,0
16.904745,16.952364,51,104,0
16.96427,17.011889,52,104,0
17.023792,17.071411,51,104,0
17.083317,17.130936,52,104,0
17.14284,17.333317,52,104,0
17.380936,17.571411,40,104,0
17.61903,17.809505,43,104,0
17.857124,18.047602,43,104,0
18.09522,18.476171,52,104,0
18.57141,18.619028,50,104,0
18.630934,18.678553,52,104,0
18.690458,18.738077,50,104,0
18.74998,18.7976,52,104,0
18.809505,18.857124,50,104,0
18.869028,18.916647,52,104,0
18.928553,18.976171,50,104,0
18.988077,19.035696,52,104,0
19.0476,19.238075,55,104,0
19.285694,19.476171,43,104,0
19.52379,19.714266,52,104,0
19.761885,19.95236,40,104,0
19.99998,20.190456,54,104,0
20.238075,20.42855,42,104,0
20.47617,20.666645,51,104,0
20.714266,20.904741,39,104,0
20.95236,21.142836,52,104,0
21.190454,21.380932,40,104,0
21.42855,21.809502,47,104,0
21.90474,22.095217,52,104,0
22.142836,22.333311,40,104,0
22.38093,22.761883,42,104,0
22.85712,22.984104,35,104,0
23.01585,23.142834,47,104,0
23.17458,23.301563,49,104,0
23.33331,23.460295,51,104,0
23.49204,23.619024,49,104,0
23.65077,23.777754,47,104,0
23.8095,23.936483,49,104,0
23.96823,24.095215,52,104,0
24.12696,24.253944,54,104,0
24.28569,24.412674,55,104,0
24.44442,24.571404,54,104,0
24.60315,24.730133,52,104,0
24.76188,24.952356,54,104,0
24.999975,25.19045,42,104,0
25.23807,25.619022,47,104,0
25.71426,25.904736,54,104,0
25.952354,26.142832,42,104,0
26.19045,26.571402,46,104,0
26.66664,26.857117,47,104,0
26.904736,27.095211,51,104,0
27.14283,27.333305,49,104,0
27.380924,27.571402,52,104,0
27.61902,27.809496,51,104,0
27.857115,28.04759,54,104,0
28.09521,28.285686,47,104,0
28.333305,28.52378,59,104,0
28.5714,28.952353,52,104,0
28.5714,28.952353,64,104,0
29.04759,29.650764,52,104,0
29.04759,29.650764,40,104,0
29.68251,29.809494,42,104,0
29.84124,29.968224,43,104,0
29.99997,30.126953,42,104,0
30.1587,30.285685,43,104,0
30.31743,30.444414,45,104,0
30.47616,30.603144,43,104,0
30.63489,30.761873,45,104,0
30.79362,30.920605,47,104,0
30.95235,31.555525,40,104,0
31.58727,31.714254,42,104,0
31.746,31.872984,43,104,0
31.90473,32.031715,42,104,0
32.06346,32.190445,43,104,0
32.22219,32.349174,45,104,0
32.38092,32.507904,43,104,0
32.53965,32.666634,45,104,0
32.69838,32.825363,47,104,0
32.85711,33.460285,48,104,0
33.49203,33.619015,39,104,0
33.65076,33.777744,42,104,0
33.80949,34.412663,47,104,0
34.44441,34.571396,45,104,0
34.60314,34.730125,43,104,0
34.76187,34.888855,42,104,0
34.9206,35.047585,43,104,0
35.07933,35.206314,45,104,0
35.23806,35.365044,43,104,0
35.39679,35.523773,40,104,0
35.55552,35.682503,39,104,0
35.71425,35.841232,37,104,0
35.87298,35.999966,39,104,0
36.03171,36.158695,40,104,0
36.19044,36.380917,39,104,0
36.428535,36.61901,51,104,0
36.66663,36.857105,47,104,0
36.904724,37.0952,47,104,0
37.14282,37.523773,39,104,0
37.61901,37.99996,40,104,0
38.0952,38.285675,39,104,0
38.333294,38.52377,51,104,0
38.57139,38.761868,47,104,0
38.809486,38.99996,47,104,0
39.04758,39.42853,39,104,0
39.04758,39.42853,51,104,0
39.52377,39.90472,50,104,0
39.52377,39.90472,38,104,0
39.99996,40.190437,49,104,0
39.99996,40.190437,37,104,0
40.238056,40.42853,53,104,0
40.47615,40.666626,49,104,0
40.714245,40.90472,49,104,0
40.95234,41.33329,53,104,0
40.95234,41.33329,41,104,0
41.42853,41.809483,54,104,0
41.42853,41.809483,42,104,0
41.90472,42.095196,41,104,0
41.90472,42.095196,53,104,0
42.142815,42.33329,53,104,0
42.38091,42.571384,49,104,0
42.619003,42.809483,49,104,0
42.8571,43.238052,53,104,0
42.8571,43.238052,41,104,0
43.33329,44.190434,52,104,0
43.33329,44.190434,44,104,0
43.33329,44.190434,40,104,0
44.28567,45.047573,39,104,0
44.28567,45.047573,44,104,0
44.28567,45.047573,51,104,0
45.23805,46.095192,42,104,0
45.23805,46.095192,47,104,0
45.23805,46.095192,35,104,0
46.19043,46.57138,40,116,0
46.19043,46.57138,28,116,0
46.66662,47.745983,64,116,0
46.66662,47.745983,55,116,0
46.66662,47.745983,52,116,0
47.77773,47.904713,54,116,0
47.77773,47.904713,57,116,0
47.93646,48.063442,58,116,0
47.93646,48.063442,55,116,0
48.09519,48.222176,54,116,0
48.09519,48.222176,57,116,0
48.25392,48.380905,58,116,0
48.25392,48.380905,55,116,0
48.41265,48.539635,60,116,0
48.41265,48.539635,57,116,0
48.57138,48.698364,55,116,0
48.57138,48.698364,58,116,0
48.73011,48.857094,57,116,0
48.73011,48.857094,60,116,0
48.88884,49.015823,62,116,0
48.88884,49.015823,58,116,0
49.04757,49.650745,52,116,0
49.04757,49.650745,55,116,0
49.68249,49.809475,57,116,0
49.68249,49.809475,54,116,0
49.84122,49.968204,58,116,0
49.84122,49.968204,55,116,0
49.99995,50.126934,54,116,0
49.99995,50.126934,57,116,0
50.15868,50.285664,55,116,0
50.15868,50.285664,58,116,0
50.31741,50.444393,60,116,0
50.31741,50.444393,57,116,0
50.47614,50.603123,55,116,0
50.47614,50.603123,58,116,0
50.63487,50.761852,55,116,0
50.63487,50.761852,60,116,0
50.7936,50.920586,62,116,0
50.7936,50.920586,58,116,0
50.95233,51.555504,60,116,0
50.95233,51.555504,64,116,0
51.58725,51.714233,55,116,0
51.74598,51.872963,64,116,0
51.90471,52.507885,60,116,0
51.90471,52.507885,65,116,0
51.90471,52.507885,57,116,0
52.53963,52.666615,57,116,0
52.69836,52.825344,65,116,0
52.85709,53.460262,60,116,0
52.85709,53.460262,69,116,0
53.49201,53.618996,69,116,0
53.65074,53.777725,57,116,0
53.80947,54.412643,57,116,0
53.80947,54.412643,59,116,0
53.80947,54.412643,54,116,0
53.80947,54.412643,47,116,0
54.60312,55.365025,54,116,0
54.44439,55.365025,57,116,0
54.76185,55.365025,47,116,0
55.39677,55.523754,57,116,0
55.5555,55.682484,54,116,0
55.71423,55.841213,47,116,0
55.87296,55.999943,57,116,0
56.03169,56.158672,54,116,0
56.19042,56.317406,47,116,0
56.34915,56.476135,57,116,0
56.50788,56.634865,54,124,0
56.66661,56.793594,47,124,0
56.82534,56.952324,59,124,0
56.98407,57.111053,47,124,0
57.1428,57.52375,52,116,0
57.1428,57.52375,43,116,0
57.1428,57.52375,47,116,0
57.1428,57.52375,40,116,0
57.61899,57.745975,64,116,0
57.77772,57.904705,62,116,0
57.93645,58.063435,60,116,0
58.09518,58.222164,62,116,0
58.25391,58.380894,60,116,0
57.61899,58.380894,52,116,0
58.41264,58.539623,59,116,0
58.57137,58.698353,60,116,0
58.7301,58.857082,59,116,0
58.57137,58.95232,52,116,0
58.88883,59.015816,57,116,0
59.04756,60.190414,52,116,0
60.47613,60.857082,52,116,0
60.95232,61.33327,55,116,0
60.95232,61.33327,52,116,0
60.95232,61.555492,64,116,0
61.58724,61.714226,62,116,0
61.42851,61.809464,55,116,0
61.42851,61.809464,58,116,0
61.74597,61.872955,61,116,0
61.9047,62.285652,54,116,0
61.9047,62.285652,57,116,0
61.9047,62.507874,62,116,0
62.53962,62.666603,60,116,0
62.38089,62.76184,56,116,0
62.38089,62.76184,53,116,0
62.69835,62.825333,59,116,0
62.85708,63.238033,55,116,0
62.85708,63.238033,52,116,0
62.85708,63.460255,60,116,0
63.492,63.618984,59,116,0
63.33327,63.714222,54,116,0
63.33327,63.714222,52,116,0
63.65073,63.777714,57,116,0
63.80946,63.999935,51,116,0
63.80946,63.999935,54,116,0
63.80946,63.999935,59,116,0
64.047554,64.23803,52,116,0
64.047554,64.23803,55,116,0
64.28565,64.47613,52,116,0
64.28565,64.6666,59,116,0
64.28565,64.6666,47,116,0
64.28565,64.6666,54,116,0
64.52374,64.71422,51,116,0
64.76184,65.14279,47,116,0
64.76184,65.14279,43,116,0
64.76184,65.14279,52,116,0
64.76184,65.36501,40,116,0
65.39676,65.52374,42,116,0
65.55549,65.68247,43,116,0
65.71422,65.8412,42,116,0
65.87295,65.99993,43,116,0
66.03168,66.15866,45,116,0
66.19041,66.31739,43,116,0
66.34914,66.47613,45,116,0
66.50787,66.63486,47,116,0
66.6666,67.047554,45,116,0
66.6666,67.047554,48,116,0
67.14279,67.269775,47,116,0
67.14279,67.269775,43,116,0
66.6666,67.269775,40,116,0
67.30152,67.428505,42,116,0
67.46025,67.587234,43,116,0
67.61898,67.745964,42,116,0
67.77771,67.90469,43,116,0
67.93644,68.06342,45,116,0
68.09517,68.22215,43,116,0
68.2539,68.38088,45,116,0
68.41263,68.53961,47,116,0
68.57136,68.95231,48,116,0
68.57136,68.95231,45,116,0
69.04755,69.17454,43,116,0
68.57136,69.17454,40,116,0
69.04755,69.17454,47,116,0
69.20628,69.33327,42,116,0
69.36501,69.492,43,116,0
69.52374,69.90469,45,116,0
69.52374,69.90469,48,116,0
69.52374,70.126915,40,116,0
69.99993,70.126915,43,116,0
69.99993,70.126915,47,116,0
70.15866,70.285645,42,116,0
70.31739,70.444374,43,116,0
70.47612,70.6031,40,71,0
70.63485,70.76183,42,71,0
70.79358,70.92056,43,91,0
70.95231,71.07929,40,91,0
71.11104,71.23802,42,91,0
70.47612,71.23802,45,71,0
70.47612,71.23802,48,71,0
71.26977,71.39675,43,91,0
71.4285,71.55548,40,91,0
71.58723,71.71421,42,91,0
71.74596,71.87295,43,91,0
71.90469,72.03168,40,91,0
72.06342,72.19041,42,91,0
71.4285,72.19041,47,91,0
72.22215,72.34914,43,91,0
72.38088,72.507866,40,104,0
72.53961,72.666595,42,104,0
72.69834,72.825325,43,104,0
72.85707,72.984055,40,104,0
73.0158,73.142784,42,104,0
72.38088,73.142784,46,104,0
73.17453,73.30151,43,104,0
73.33326,73.46024,52,104,0
73.49199,73.61897,54,104,0
73.65072,73.7777,55,104,0
73.80945,73.93643,52,104,0
73.96818,74.09516,54,104,0
73.33326,74.09516,58,104,0
74.12691,74.25389,55,104,0
74.28564,74.41262,52,104,0
74.44437,74.57136,54,104,0
74.6031,74.73009,55,104,0
74.76183,74.88882,52,104,0
74.92056,75.04755,54,104,0
74.28564,75.04755,57,104,0
75.07929,75.206276,55,104,0
75.23802,75.365005,37,104,0
75.39675,75.523735,45,104,0
75.55548,75.682465,49,104,0
75.71421,75.841194,37,104,0
75.87294,75.99992,45,104,0
76.03167,76.15865,49,104,0
76.1904,76.31738,51,104,0
76.34913,76.47611,54,104,0
76.50786,76.63484,55,104,0
76.66659,76.79357,51,104,0
76.82532,76.9523,54,104,0
76.1904,76.9523,57,104,0
76.98405,77.11103,55,104,0
77.14278,77.26977,36,104,0
77.30151,77.4285,45,104,0
77.46024,77.58723,48,104,0
77.61897,77.74596,36,104,0
77.7777,77.904686,45,104,0
77.93643,78.063416,48,104,0
78.09516,78.222145,50,104,0
78.25389,78.380875,53,104,0
78.41262,78.539604,54,104,0
78.57135,78.69833,50,104,0
78.73008,78.85706,53,104,0
78.09516,78.85706,57,104,0
78.88881,79.01579,54,104,0
79.04754,79.238014,36,104,0
79.28564,79.47611,48,104,0
79.52373,79.7142,36,104,0
79.761826,79.9523,48,104,0
79.99992,80.1904,36,91,0
80.238014,80.42849,48,91,0
80.47611,80.66659,36,91,0
80.7142,80.90468,48,91,0
80.9523,81.14278,36,81,0
81.19039,81.380875,48,81,0
81.42849,81.618965,36,81,0
81.66659,81.85706,48,81,0
81.90468,82.09515,36,71,0
82.14278,82.33325,48,71,0
82.38087,82.57134,36,71,0
82.618965,82.80944,48,71,0
82.85706,83.04754,36,71,0
83.09515,83.28563,48,71,0
83.33325,83.52373,36,71,0
83.57134,83.76182,48,71,0
83.80944,83.999916,36,71,0
84.04754,84.238014,48,71,0
84.28563,84.476105,35,71,0
84.52373,84.7142,47,71,0
84.76182,84.95229,36,71,0
84.999916,85.19039,48,71,0
85.23801,85.42849,36,71,0
85.476105,85.66658,48,71,0
85.7142,85.90468,36,71,0
85.95229,86.14277,48,71,0
86.19039,86.38087,35,71,0
86.42848,86.61896,47,71,0
86.66658,86.857056,36,71,0
86.90468,87.09515,48,71,0
87.14277,87.333244,36,71,0
87.38087,87.57134,48,71,0
87.61896,87.80943,36,71,0
87.857056,88.04753,48,71,0
88.09515,88.28563,35,71,0
88.333244,88.52372,47,71,0
88.57134,88.76182,36,71,0
88.80943,88.99991,48,71,0
89.04753,89.23801,36,71,0
89.28562,89.476105,48,71,0
89.52372,89.714195,36,71,0
89.76182,89.95229,48,71,0
89.99991,90.190384,35,71,0
90.23801,90.42848,47,71,0
90.4761,90.66657,37,71,0
90.714195,90.90467,49,71,0
90.95229,91.14277,37,71,0
91.190384,91.38086,49,71,0
91.42848,91.61896,38,71,0
91.66657,91.85705,50,71,0
91.90467,92.095146,35,71,0
92.14276,92.333244,47,71,0
92.38086,92.571335,37,71,0
92.61896,92.80943,49,71,0
92.85705,93.04752,37,71,0
93.095146,93.28562,49,71,0
93.33324,93.52372,38,71,0
93.571335,93.76181,50,71,0
93.80943,93.99991,38,71,0
94.04752,94.238,50,71,0
94.28562,94.4761,38,71,0
94.52371,94.71419,50,71,0
94.76181,94.952286,38,71,0
94.99991,95.190384,50,71,0
95.238,95.428474,39,71,0
95.4761,95.66657,51,71,0
95.71419,95.90466,39,71,0
95.952286,96.14276,51,71,0
96.19038,96.38086,40,71,0
96.428474,96.61895,52,71,0
96.66657,96.85705,40,71,0
96.90466,97.09514,52,71,0
97.14276,97.33324,38,58,0
97.38085,97.57133,50,58,0
97.61895,97.809425,38,58,0
97.85705,98.04752,50,58,0
98.09514,98.285614,38,58,0
98.33324,98.52371,50,58,0
98.57133,98.7618,38,58,0
98.809425,98.9999,50,58,0
99.04752,99.428474,43,58,0
99.7618,99.95228,67,58,0
99.9999,100.19038,66,58,0
100.23799,100.428474,62,58,0
100.47609,100.666565,64,58,0
100.71419,100.90466,60,58,0
100.95228,101.14275,62,58,0
101.19038,101.38085,55,58,0
101.666565,101.85704,67,58,0
101.90466,102.09514,66,58,0
102.14275,102.33323,62,58,0
102.38085,102.57133,64,58,0
102.61894,102.80942,60,58,0
103.33323,103.523705,28,104,0
103.57133,103.7618,40,104,0
103.80942,103.99989,30,104,0
104.047516,104.23799,42,104,0
104.28561,104.47609,35,104,0
104.523705,104.71418,47,104,0
104.7618,104.95228,37,104,0
104.99989,105.19037,49,104,0
105.23799,105.42847,38,91,0
105.47608,105.66656,50,91,0
105.71418,105.904655,40,91,0
105.95228,106.14275,52,81,0
106.19037,106.380844,42,81,0
106.42847,106.61894,54,81,0
106.66656,106.85703,38,81,0
107.14275,108.28561,38,81,0
106.904655,108.28561,50,81,0
108.57132,108.761795,38,81,0
109.04751,110.19037,38,81,0
108.80942,110.19037,50,81,0
110.47608,110.85703,50,81,0
110.47608,110.85703,38,81,0
112.142746,112.33322,58,81,0
112.38084,112.57132,59,81,0
112.618935,112.80941,62,81,0
112.85703,113.04751,61,81,0
113.09512,113.2856,64,81,0
113.33322,113.5237,62,81,0
113.57131,113.76179,71,81,0
114.04751,114.23798,58,81,0
114.2856,114.476074,59,81,0
114.5237,114.71417,62,71,0
114.76179,114.95226,43,71,0
114.76179,114.95226,31,71,0
115.23798,115.42846,45,71,0
115.23798,115.42846,33,71,0
115.71417,115.90465,47,71,0
115.71417,115.90465,35,71,0
116.19036,116.38084,36,71,0
116.19036,116.38084,48,71,0
116.66655,116.857025,50,71,0
116.66655,116.857025,38,71,0
117.14274,117.33321,52,71,0
117.14274,117.33321,40,71,0
117.61893,117.8094,42,71,0
117.61893,117.8094,54,71,0
118.09512,118.2856,55,71,0
118.09512,118.2856,43,71,0
118.57131,118.76179,43,71,0
118.57131,118.76179,31,71,0
119.0475,119.237976,33,71,0
119.0475,119.237976,45,71,0
119.52369,119.714165,47,71,0
119.52369,119.714165,35,71,0
119.99988,120.19035,48,71,0
119.99988,120.19035,36,71,0
120.47607,120.66655,38,71,0
120.47607,120.66655,50,71,0
120.95226,121.14274,52,71,0
120.95226,121.14274,40,71,0
121.42845,121.61893,42,71,0
121.42845,121.61893,54,71,0
121.90464,122.095116,55,71,0
121.90464,122.095116,43,71,0
122.38083,123.14273,54,81,0
122.38083,123.14273,42,81,0
123.33321,123.714165,50,71,0
123.33321,123.714165,38,71,0
123.8094,124.19035,55,71,0
123.8094,124.19035,62,71,0
123.8094,124.19035,43,71,0
124.28559,125.04749,54,81,0
124.28559,125.04749,42,81,0
125.23797,125.61892,38,71,0
125.23797,125.61892,50,71,0
125.71416,126.095116,43,71,0
125.71416,126.095116,62,71,0
125.71416,126.095116,55,71,0
126.19035,126.952255,62,81,0
126.19035,126.952255,54,81,0
126.19035,126.952255,42,81,0
127.14273,127.52368,38,71,0
127.14273,127.52368,50,71,0
127.14273,127.52368,62,71,0
127.61892,127.99987,55,71,0
127.61892,127.99987,43,71,0
128.09511,128.85701,54,71,0
128.09511,128.85701,42,71,0
129.04749,129.90463,35,71,0
129.04749,129.90463,47,71,0
129.99986,130.76178,38,91,0
129.99986,130.76178,50,91,0
130.95226,131.3332,38,81,0
130.95226,131.3332,26,81,0
131.42844,131.80939,31,81,0
131.42844,131.80939,43,81,0
132.14273,132.3332,51,81,0
132.14273,132.3332,39,81,0
132.38081,132.57129,52,81,0
132.38081,132.57129,40,81,0
133.09511,133.28558,47,81,0
133.09511,133.28558,35,81,0
133.3332,134.09511,36,81,0
133.3332,134.09511,48,81,0
134.28558,135.04749,38,81,0
134.28558,135.04749,50,81,0
135.23796,135.61891,50,81,0
135.23796,135.61891,43,81,0
135.95224,136.14272,51,81,0
135.95224,136.14272,39,81,0
136.19034,136.38081,52,81,0
136.19034,136.38081,40,81,0
136.90463,137.09511,47,81,0
136.90463,137.09511,35,81,0
137.14272,137.71414,48,81,0
137.14272,137.71414,36,81,0
137.85701,138.04749,37,81,0
137.85701,138.04749,49,81,0
138.0951,138.66653,38,81,0
138.0951,138.66653,50,81,0
138.80939,138.99986,39,91,0
138.80939,138.99986,51,91,0
139.04749,139.61891,52,91,0
139.04749,139.61891,40,91,0
139.76176,139.95224,32,91,0
139.76176,139.95224,44,91,0
139.99986,140.38081,33,91,0
139.99986,140.38081,45,91,0
140.47604,140.857,48,81,0
140.47604,140.857,36,81,0
140.95224,141.71414,50,71,0
140.95224,141.71414,38,71,0
141.90462,142.66652,38,71,0
142.857,143.23795,55,71,0
142.857,143.23795,43,71,0
143.33319,144.47604,43,71,0
143.33319,144.47604,31,71,0
144.76176,145.14272,53,71,0
144.76176,145.14272,41,71,0
145.23795,146.38081,29,71,0
145.23795,146.38081,41,71,0
146.66652,147.04747,52,71,0
146.66652,147.04747,40,71,0
147.14272,148.28557,40,71,0
147.14272,148.28557,28,71,0
148.57127,148.95222,41,81,0
148.57127,148.95222,53,81,0
149.04747,150.19032,29,81,0
149.04747,150.19032,41,81,0
150.47604,150.60303,42,81,0
150.47604,150.60303,54,81,0
150.63477,150.76175,56,81,0
150.7935,150.92049,58,81,0
150.95222,151.07921,56,81,0
151.11096,151.23795,58,81,0
151.26968,151.39667,59,81,0
151.42842,151.5554,58,81,0
151.58714,151.71413,59,81,0
151.74588,151.87286,61,81,0
152.3808,152.50778,42,81,0
152.53954,152.66652,44,81,0
152.69826,152.82524,46,81,0
152.857,152.98398,44,81,0
153.01572,153.1427,46,81,0
153.17445,153.30144,47,81,0
153.33318,153.46016,46,81,0
153.49191,153.6189,47,81,0
153.65063,153.77762,49,81,0
154.28555,154.41254,43,81,0
154.44429,154.57127,44,81,0
154.60303,154.73001,46,81,0
154.76175,154.88873,44,81,0
154.92049,155.04747,46,81,0
155.07921,155.20619,47,81,0
155.23795,155.36493,46,81,0
155.39667,155.52365,47,81,0
155.5554,155.68239,49,81,0
156.19032,156.3173,43,81,0
156.34904,156.47603,44,81,0
156.50778,156.63477,46,81,0
156.6665,156.79349,46,81,0
156.82524,156.95222,47,81,0
156.98396,157.11095,49,81,0
157.1427,157.26968,47,81,0
157.30144,157.42842,49,81,0
157.46016,157.58714,51,81,0
157.6189,157.74588,44,81,0
157.77762,157.9046,46,81,0
157.93636,158.06334,47,81,0
158.09508,158.22206,45,81,0
158.25381,158.3808,46,81,0
158.41254,158.53952,48,81,0
158.57127,158.69826,48,81,0
158.73,158.85698,49,81,0
158.88873,159.01572,51,81,0
159.04745,159.17444,49,81,0
159.20619,159.33318,51,81,0
159.36491,159.4919,53,81,0
159.52365,159.65063,46,81,0
159.68237,159.80936,48,81,0
159.84111,159.9681,49,81,0
159.99985,160.12683,47,91,0
160.15857,160.28555,48,91,0
160.3173,160.44429,50,91,0
160.47603,160.60301,50,91,0
160.63477,160.76175,51,91,0
160.79349,160.92047,53,91,0
160.95222,161.07921,51,91,0
161.11095,161.23793,53,91,0
161.26968,161.39667,55,91,0
161.4284,161.55539,48,91,0
161.58714,161.71413,50,91,0
161.74586,161.87285,51,91,0
161.9046,162.03159,47,91,0
162.06332,162.1903,48,91,0
162.22206,162.34904,50,91,0
162.38078,162.50777,50,91,0
162.53952,162.6665,51,91,0
162.69826,162.82524,53,91,0
162.85698,162.98396,50,91,0
163.01572,163.1427,51,91,0
163.17444,163.30142,53,91,0
163.33318,163.46016,53,91,0
163.4919,163.61888,55,91,0
163.65063,163.77762,56,91,0
163.80936,163.93634,55,91,0
163.9681,164.09508,57,91,0
164.12682,164.2538,59,91,0
164.28555,164.41254,59,91,0
164.44427,164.57126,60,91,0
164.60301,164.73,62,91,0
164.76173,164.88872,62,91,0
164.92047,165.04745,63,91,0
165.0792,165.20618,65,91,0
165.23793,165.36491,65,91,0
165.39667,165.52365,67,91,0
165.55539,165.68237,68,91,0
165.71413,165.84111,62,91,0
165.87285,165.99983,63,91,0
166.03159,166.15857,65,91,0
166.1903,166.31729,59,91,0
166.34904,166.47603,60,91,0
166.50777,166.63475,62,91,0
166.6665,166.79349,56,91,0
166.82523,166.95221,58,91,0
166.98396,167.11095,60,91,0
167.14268,167.26967,53,91,0
167.30142,167.4284,55,91,0
167.46014,167.58713,56,91,0
167.61888,167.74586,50,91,0
167.7776,167.90459,51,91,0
167.93634,168.06332,53,91,0
168.09508,168.22206,47,91,0
168.2538,168.38078,48,91,0
168.41254,168.53952,50,91,0
168.57126,168.69824,44,91,0
168.73,168.85698,46,91,0
168.88872,169.0157,48,91,0
169.04745,169.17444,41,91,0
169.20618,169.33316,43,91,0
169.36491,169.4919,44,91,0
169.52364,169.65062,44,91,0
169.68237,169.80936,46,91,0
169.8411,169.96808,48,91,0
169.99983,170.12682,41,91,0
170.15855,170.28554,43,91,0
170.31729,170.44427,44,91,0
170.47601,170.603,44,91,0
170.63475,170.76173,46,91,0
170.79349,170.92047,48,91,0
170.95221,171.0792,42,91,0
171.11095,171.23793,43,91,0
171.26967,171.39665,45,91,0
171.4284,171.80936,31,91,0
171.4284,171.80936,43,91,0
171.90459,172.28554,43,91,0
171.90459,172.50777,55,91,0
172.5395,172.66649,53,91,0
172.69824,172.82523,51,91,0
172.85696,172.98395,53,91,0
172.85696,172.98395,41,91,0
173.0157,173.14268,51,91,0
173.17442,173.3014,50,91,0
173.33316,173.71411,51,91,0
173.33316,173.71411,39,91,0
173.80936,174.41252,51,91,0
173.80936,174.41252,63,91,0
174.44427,174.57126,62,91,0
174.603,174.72998,60,91,0
174.76173,174.88872,50,91,0
174.76173,174.88872,62,91,0
174.92046,175.04744,60,91,0
175.0792,175.20618,59,91,0
175.23792,175.61887,60,91,0
175.23792,175.61887,48,91,0
175.71411,176.31729,72,91,0
175.71411,176.31729,60,91,0
176.34903,176.47601,70,91,0
176.50777,176.63475,69,91,0
176.66649,177.26967,58,91,0
176.66649,177.26967,70,91,0
177.3014,177.42839,69,91,0
177.46014,177.58713,67,91,0
177.61887,178.22205,69,91,0
177.61887,178.22205,57,91,0
178.25378,178.38077,67,91,0
178.41252,178.5395,66,91,0
178.57124,178.76172,55,91,0
178.57124,178.76172,67,91,0
178.80934,178.99982,61,91,0
178.80934,178.99982,49,91,0
179.04744,179.23792,62,91,0
179.04744,179.23792,50,91,0
180.23792,180.42839,50,71,0
180.23792,180.42839,54,71,0
180.47601,180.66649,57,71,0
180.47601,180.66649,54,71,0
180.71411,180.90459,54,71,0
180.71411,180.90459,57,71,0
180.9522,181.33315,57,71,0
180.9522,181.33315,66,71,0
181.42839,181.80934,55,71,0
181.42839,181.80934,64,71,0
182.14267,182.33315,61,71,0
182.14267,182.33315,57,71,0
182.38077,182.57124,59,71,0
182.38077,182.57124,62,71,0
182.61887,182.80934,62,71,0
182.61887,182.80934,59,71,0
182.85696,183.23792,62,71,0
182.85696,183.23792,71,71,0
183.33315,183.7141,69,71,0
183.33315,183.93633,63,71,0
183.96806,184.1268,64,71,0
184.1268,184.28552,62,71,0
183.80934,184.41252,67,71,0
184.44426,184.57124,69,71,0
184.603,184.72998,67,71,0
184.28552,184.92046,61,71,0
184.92046,185.04744,62,71,0
185.07918,185.20616,61,71,0
184.76172,185.3649,66,71,0
185.39664,185.52362,67,71,0
185.55537,185.68236,66,71,0
185.23792,185.84108,59,71,0
185.87283,185.99982,61,81,0
185.7141,186.09505,64,81,0
186.03156,186.31728,59,91,0
186.34901,186.476,61,91,0
186.19029,186.57124,65,91,0
186.50775,186.63474,59,91,0
186.66647,187.04744,30,91,0
186.66647,187.04744,42,91,0
187.14267,187.74585,54,91,0
187.14267,187.74585,42,91,0
187.77759,187.90457,52,91,0
187.93633,188.06331,50,91,0
188.09505,188.22203,52,91,0
188.09505,188.22203,40,91,0
188.25378,188.38077,50,91,0
188.4125,188.53949,49,91,0
188.57124,188.9522,50,91,0
188.57124,188.9522,38,91,0
189.04742,189.6506,62,91,0
189.04742,189.6506,50,91,0
189.68234,189.80934,61,91,0
189.84108,189.96806,59,91,0
189.99982,190.19029,61,91,0
189.99982,190.19029,49,91,0
190.2379,190.42838,54,91,0
190.2379,190.42838,42,91,0
190.476,190.85695,47,91,0
190.476,190.85695,59,91,0
191.42838,191.80933,48,91,0
191.42838,191.80933,36,91,0
191.90457,192.50775,48,91,0
191.90457,192.50775,60,91,0
192.53949,192.66647,59,91,0
192.69823,192.82521,57,91,0
192.85695,192.98393,59,91,0
193.01569,193.14267,57,91,0
193.17441,193.30139,55,91,0
193.33315,193.7141,45,91,0
193.33315,193.7141,57,91,0
193.80933,194.4125,57,91,0
193.80933,194.4125,69,91,0
194.44424,194.57123,67,91,0
194.60298,194.72997,66,91,0
194.7617,194.88869,67,91,0
194.7617,194.88869,55,91,0
194.92044,195.04742,66,91,0
195.07916,195.20616,64,91,0
195.2379,195.84108,66,91,0
195.2379,195.84108,54,91,0
195.87282,195.9998,64,91,0
196.03156,196.15854,62,91,0
196.19028,196.79346,52,91,0
196.19028,196.79346,64,91,0
196.8252,196.95218,62,91,0
196.98393,197.11092,61,91,0
197.14265,197.71408,62,91,0
197.14265,197.71408,50,91,0
197.85695,198.04742,50,91,0
197.85695,198.04742,38,91,0
198.09505,198.28552,49,91,0
198.09505,198.28552,37,91,0
199.28552,199.476,49,71,0
199.28552,199.476,53,71,0
199.5236,199.71408,53,71,0
199.5236,199.71408,56,71,0
199.7617,199.95218,53,71,0
199.7617,199.95218,56,71,0
199.9998,200.38075,65,71,0
199.9998,200.38075,56,71,0
200.47598,200.85695,55,71,0
200.47598,200.85695,64,71,0
201.19028,201.38075,48,71,0
201.19028,201.38075,52,71,0
201.42838,201.61885,52,71,0
201.42838,201.61885,55,71,0
201.66646,201.85693,52,71,0
201.90456,202.2855,64,71,0
201.66646,202.2855,55,71,0
202.38075,202.7617,63,71,0
202.38075,202.7617,54,71,0
203.09503,203.2855,47,71,0
203.09503,203.2855,51,71,0
203.33313,203.5236,51,71,0
203.33313,203.5236,54,71,0
203.57123,203.7617,51,71,0
203.80933,204.57123,63,71,0
203.57123,204.57123,54,71,0
204.9998,205.19028,51,71,0
204.9998,205.42836,54,71,0
205.23788,205.42836,63,71,0
205.47598,205.66646,54,71,0
205.71408,206.47598,66,81,0
205.47598,206.47598,63,71,0
206.90456,207.09503,54,81,0
207.14265,207.33313,66,81,0
206.90456,207.33313,63,81,0
207.38075,207.57123,63,81,0
207.61884,208.38074,75,91,0
207.38075,208.38074,66,81,0
208.80931,208.99979,63,91,0
209.04741,209.23788,75,91,0
208.80931,209.23788,66,91,0
209.76169,209.95216,47,91,0
209.76169,209.95216,35,91,0
209.99979,210.57121,59,91,0
209.99979,210.57121,47,91,0
210.71408,210.90456,48,91,0
210.71408,210.90456,36,91,0
210.95216,211.61884,60,91,0
210.95216,211.61884,48,91,0
211.66646,211.85693,35,91,0
211.66646,211.85693,47,91,0
211.90456,212.47598,47,91,0
211.90456,212.47598,59,91,0
212.61884,212.80931,46,91,0
212.61884,212.80931,34,91,0
212.85693,213.52359,46,91,0
212.85693,213.52359,58,91,0
213.57121,213.76169,45,116,0
213.57121,213.76169,33,116,0
213.80931,214.38074,57,116,0
213.80931,214.38074,45,116,0
214.52359,214.71407,32,116,0
214.52359,214.71407,44,116,0
214.76169,215.42836,56,116,0
214.76169,215.42836,44,116,0
215.47597,215.66646,43,124,0
215.47597,215.66646,31,124,0
215.71407,216.28549,55,124,0
215.71407,216.28549,43,124,0
216.42836,216.61884,30,124,0
216.42836,216.61884,42,124,0
216.66644,217.04741,54,124,0
216.66644,217.04741,42,124,0
217.14264,217.33311,35,104,0
217.38074,217.57121,47,104,0
217.61884,217.80931,35,104,0
217.85692,218.0474,47,104,0
218.09502,218.28549,35,104,0
218.33311,218.52359,47,104,0
218.57121,218.76169,35,104,0
218.80931,218.99979,47,104,0
219.0474,219.23787,35,104,0
219.28549,219.47597,47,104,0
219.52359,219.71407,35,104,0
219.76169,219.95216,47,104,0
219.99979,220.19026,35,104,0
220.23787,220.42834,47,104,0
220.47597,220.66644,35,104,0
220.71407,220.90454,47,104,0
220.95216,221.14264,35,104,0
221.19026,221.38074,47,104,0
221.42834,221.61882,35,104,0
221.66644,221.85692,47,104,0
221.90454,222.09502,35,104,0
222.14264,222.33311,47,104,0
222.38074,222.57121,35,104,0
222.61882,222.8093,47,104,0
222.85692,223.0474,35,104,0
223.09502,223.28549,47,104,0
223.33311,223.52359,35,104,0
223.5712,223.76169,47,104,0
223.8093,223.99977,35,104,0
224.0474,224.23787,47,104,0
224.28549,224.47597,35,104,0
224.52359,224.71407,47,104,0
224.76167,225.36485,59,104,0
225.3966,225.52359,57,104,0
224.76167,225.52359,47,104,0
225.55533,225.68231,55,104,0
225.71407,225.84105,57,104,0
225.87279,225.99977,55,104,0
226.03152,226.15851,54,104,0
226.19025,226.31723,55,104,0
226.34898,226.47597,54,104,0
225.71407,226.47597,47,104,0
226.5077,226.63469,52,104,0
226.66644,227.2696,57,104,0
227.30136,227.42834,55,104,0
226.66644,227.42834,47,104,0
227.46008,227.58707,54,104,0
227.61882,227.7458,55,104,0
227.77756,227.90454,54,104,0
227.93628,228.06326,52,104,0
228.09502,228.222,54,104,0
228.25374,228.38072,52,104,0
227.61882,228.38072,47,104,0
228.41248,228.53946,51,104,0
228.5712,229.17438,55,104,0
229.20612,229.3331,54,104,0
228.5712,229.3331,47,104,0
229.36485,229.49184,52,104,0
229.52357,229.65056,54,104,0
229.68231,229.8093,52,104,0
229.84103,229.96802,51,104,0
229.99977,230.12675,52,104,0
230.1585,230.28548,51,104,0
229.52357,230.28548,47,104,0
230.31723,230.44421,49,104,0
230.47597,230.60295,54,104,0
230.63469,230.76167,52,104,0
230.79343,230.92041,51,104,0
230.95215,231.07913,52,104,0
231.11089,231.23787,51,104,0
230.47597,231.23787,47,104,0
231.2696,231.39659,49,104,0
231.42834,231.55533,55,104,0
231.58707,231.71405,54,104,0
231.7458,231.87279,52,104,0
231.90453,232.03151,58,104,0
232.06326,232.19025,56,104,0
231.42834,232.19025,47,104,0
232.22198,232.34897,54,104,0
232.38072,232.5712,47,104,0
232.38072,232.5712,59,104,0
232.8569,233.23787,47,71,0
232.8569,233.23787,47,71,0
233.3331,233.71405,49,71,0
233.8093,234.19025,47,71,0
233.8093,234.19025,51,71,0
234.28548,234.66643,52,71,0
234.28548,235.04738,47,71,0
234.76167,235.14262,54,71,0
235.23785,235.6188,56,71,0
235.23785,235.99977,47,71,0
235.71405,236.095,58,71,0
236.19025,236.5712,59,71,0
236.19025,236.5712,47,71,0
236.66643,236.8569,35,71,0
236.66643,236.8569,47,71,0
237.14262,237.3331,49,71,0
237.14262,237.3331,37,71,0
237.6188,237.80928,51,71,0
237.6188,237.80928,39,71,0
238.095,238.28548,40,71,0
238.095,238.28548,52,71,0
238.5712,238.76167,54,71,0
238.5712,238.76167,42,71,0
239.04738,239.23785,44,71,0
239.04738,239.23785,56,71,0
239.52357,239.71405,58,71,0
239.52357,239.71405,46,71,0
239.99976,240.3807,59,71,0
239.99976,240.3807,66,71,0
239.99976,240.3807,47,71,0
240.47595,241.23785,46,81,0
240.47595,241.23785,66,81,0
240.47595,241.23785,58,81,0
241.42833,241.80928,66,71,0
241.42833,241.80928,54,71,0
241.42833,241.80928,42,71,0
241.90453,242.28548,66,71,0
241.90453,242.28548,59,71,0
241.90453,242.28548,47,71,0
242.3807,243.14261,58,81,0
242.3807,243.14261,46,81,0
243.33308,243.71404,42,71,0
243.33308,243.71404,54,71,0
243.80928,244.19023,59,71,0
243.80928,244.19023,66,71,0
243.80928,244.19023,47,71,0
244.28548,245.04738,58,81,0
244.28548,245.04738,66,81,0
244.28548,245.04738,46,81,0
245.23785,245.6188,66,71,0
245.23785,245.6188,42,71,0
245.23785,245.6188,54,71,0
245.71404,246.09499,59,71,0
245.71404,246.09499,66,71,0
245.71404,246.09499,47,71,0
246.19023,246.95213,46,71,0
246.19023,246.95213,58,71,0
247.14261,247.99976,51,81,0
247.14261,247.99976,39,81,0
248.09499,248.85689,42,91,0
248.09499,248.85689,54,91,0
249.04736,249.42833,42,71,0
249.04736,249.42833,30,71,0
249.52356,249.90451,59,104,0
249.52356,249.90451,47,104,0
249.99976,250.60292,47,104,0
249.99976,250.60292,35,104,0
250.63467,250.76166,49,104,0
250.7934,250.92038,51,104,0
250.95213,251.07912,49,104,0
251.11086,251.23784,51,104,0
251.26959,251.39658,52,104,0
251.42831,251.5553,51,104,0
251.58705,251.71404,52,104,0
251.74577,251.87276,54,104,0
251.90451,252.50769,47,104,0
252.53943,252.66641,49,104,0
252.69817,252.82515,51,104,0
252.85689,252.98387,49,104,0
253.01562,253.14261,51,104,0
253.17435,253.30133,52,104,0
253.33308,253.46007,51,104,0
253.4918,253.61879,52,104,0
253.65054,253.77753,54,104,0
253.80927,254.41245,55,104,0
254.44418,254.57117,46,104,0
254.60292,254.7299,49,104,0
254.76164,255.36482,54,104,0
255.39658,255.52356,52,104,0
255.5553,255.68228,51,104,0
255.71404,255.84102,49,104,0
255.87276,255.99974,51,104,0
256.0315,256.15848,52,104,0
256.19022,256.3172,51,104,0
256.34894,256.47592,45,104,0
256.5077,256.63467,43,104,0
256.6664,256.7934,42,104,0
256.82513,256.95212,43,104,0
256.98386,257.11084,45,104,0
257.1426,257.33307,43,104,0
257.3807,257.57117,40,104,0
257.6188,257.80927,43,104,0
257.85687,258.04736,43,104,0
258.09497,258.47592,52,104,0
258.57117,258.61877,51,104,0
258.6307,258.6783,52,104,0
258.69022,258.73782,51,104,0
258.74976,258.79736,52,104,0
258.80927,258.85687,51,104,0
258.86877,258.9164,52,104,0
258.9283,258.97592,49,104,0
258.98782,259.03546,51,104,0
259.04736,259.23782,52,104,0
259.28546,259.47592,40,104,0
259.52356,259.71402,43,104,0
259.76166,259.95212,43,104,0
259.99973,260.3807,52,104,0
260.47592,260.52356,50,104,0
260.53546,260.58307,52,104,0
260.59497,260.6426,50,104,0
260.6545,260.70212,52,104,0
260.71402,260.76166,50,104,0
260.77356,260.82117,52,104,0
260.83307,260.88068,48,104,0
260.8926,260.94022,50,104,0
260.95212,261.1426,55,104,0
261.19022,261.38068,43,104,0
261.4283,261.61877,52,104,0
261.6664,261.85687,40,104,0
261.9045,262.09497,54,104,0
262.1426,262.33307,42,104,0
262.38068,262.57117,51,104,0
262.61877,262.80927,39,104,0
262.85687,263.04736,52,104,0
263.09497,263.28546,40,104,0
263.33307,263.71402,47,104,0
263.80927,263.99973,52,104,0
264.04736,264.23782,40,104,0
264.28546,264.6664,42,104,0
264.76163,264.92038,35,104,0
264.92038,265.04736,47,104,0
265.0791,265.2061,49,104,0
265.23782,265.3648,51,104,0
265.39655,265.52353,49,104,0
265.5553,265.68228,47,104,0
265.71402,265.841,49,104,0
265.87274,265.99973,52,104,0
266.0315,266.15848,54,104,0
266.19022,266.3172,55,104,0
266.34894,266.47592,54,104,0
266.50766,266.63464,52,104,0
266.6664,266.85687,54,104,0
266.90448,267.09497,42,104,0
267.14258,267.52353,47,104,0
267.61877,267.80927,54,104,0
267.85687,268.04736,42,104,0
268.09497,268.47592,46,104,0
268.57117,268.76163,47,104,0
268.80927,268.99973,51,104,0
269.04736,269.23782,49,104,0
269.28543,269.47592,52,104,0
269.52353,269.71402,51,104,0
269.76163,269.95212,54,104,0
269.99973,270.19022,47,104,0
270.23782,270.4283,59,104,0
270.47592,270.85687,52,104,0
270.47592,270.85687,64,104,0
270.95212,271.5553,52,104,0
270.95212,271.5553,40,104,0
271.58704,271.71402,42,104,0
271.74576,271.87274,43,104,0
271.90448,272.03146,42,104,0
272.06323,272.19022,43,104,0
272.22195,272.34894,45,104,0
272.38068,272.50766,43,104,0
272.5394,272.66638,45,104,0
272.69815,272.82513,47,104,0
272.85687,273.46005,40,104,0
273.4918,273.61877,42,104,0
273.6505,273.7775,43,104,0
273.80927,273.93625,42,104,0
273.968,274.09497,43,104,0
274.1267,274.2537,45,104,0
274.28543,274.4124,43,104,0
274.44418,274.57117,45,104,0
274.6029,274.7299,47,104,0
274.76163,275.3648,48,104,0
275.39655,275.52353,39,104,0
275.55527,275.68225,42,104,0
275.71402,276.31717,47,104,0
276.34894,276.47592,45,104,0
276.50766,276.63464,43,104,0
276.66638,276.79337,42,104,0
276.82513,276.95212,43,104,0
276.98386,277.11084,45,104,0
277.14258,277.3013,43,104,0
277.3013,277.46005,40,104,0
277.46005,277.61877,39,104,0
277.61877,277.74576,37,104,0
277.7775,277.90448,39,104,0
277.93622,278.0632,40,104,0
278.09497,278.28543,39,104,0
278.33307,278.52353,51,104,0
278.57114,278.76163,47,104,0
278.80923,278.99973,45,104,0
279.04733,279.42828,39,104,0
279.52353,279.90448,40,104,0
279.99973,280.1902,39,104,0
280.23782,280.42828,51,104,0
280.47592,280.66638,47,104,0
280.71402,280.90448,47,104,0
280.9521,281.33304,51,104,0
280.9521,281.33304,39,104,0
281.42828,281.80923,50,104,0
281.42828,281.80923,38,104,0
281.90448,282.09497,49,104,0
281.90448,282.09497,37,104,0
282.14258,282.33304,53,104,0
282.38068,282.57114,49,104,0
282.61877,282.80923,49,104,0
282.85687,283.23782,53,104,0
282.85687,283.23782,41,104,0
283.33304,283.714,54,104,0
283.33304,283.714,42,104,0
283.80923,283.99973,41,104,0
283.80923,283.99973,53,104,0
284.04733,284.23782,53,104,0
284.28543,284.4759,49,104,0
284.52353,284.714,49,104,0
284.76163,285.14258,41,104,0
284.76163,285.14258,53,104,0
285.23782,286.09494,44,104,0
285.23782,286.09494,40,104,0
285.23782,286.09494,52,104,0
286.1902,286.9521,51,104,0
286.1902,286.9521,39,104,0
286.1902,286.9521,44,104,0
287.14258,287.99973,47,104,0
287.14258,287.99973,42,104,0
287.14258,287.99973,35,104,0
288.09494,288.4759,28,116,0
288.09494,288.4759,40,104,0
288.57114,289.6505,55,116,0
288.57114,289.6505,64,116,0
288.57114,289.6505,52,116,0
289.68225,289.80923,54,116,0
289.68225,289.80923,57,116,0
289.84097,289.96796,55,116,0
289.84097,289.96796,58,116,0
289.9997,290.1267,54,116,0
289.9997,290.1267,57,116,0
290.15845,290.28543,58,116,0
290.15845,290.28543,55,116,0
290.31717,290.44415,60,116,0
290.31717,290.44415,57,116,0
290.4759,290.60287,55,116,0
290.4759,290.60287,58,116,0
290.63464,290.76163,60,116,0
290.63464,290.76163,57,116,0
290.79337,290.92035,58,116,0
290.79337,290.92035,62,116,0
290.9521,291.55527,55,116,0
290.9521,291.55527,52,116,0
291.587,291.714,57,116,0
291.587,291.714,54,116,0
291.74573,291.8727,58,116,0
291.74573,291.8727,55,116,0
291.90448,292.03146,54,116,0
291.90448,292.03146,57,116,0
292.0632,292.1902,58,116,0
292.0632,292.1902,55,116,0
292.22192,292.3489,60,116,0
292.22192,292.3489,57,116,0
292.38065,292.50763,55,116,0
292.38065,292.50763,58,116,0
292.5394,292.66638,57,116,0
292.5394,292.66638,60,116,0
292.69812,292.8251,58,116,0
292.69812,292.8251,62,116,0
292.85684,293.46002,64,116,0
292.85684,293.46002,60,116,0
293.49176,293.61874,55,116,0
293.6505,293.7775,64,116,0
293.80923,294.4124,60,116,0
293.80923,294.4124,65,116,0
293.80923,294.4124,57,116,0
294.44415,294.57114,57,116,0
294.60287,294.72986,65,116,0
294.7616,295.36478,60,116,0
294.7616,295.36478,69,116,0
295.3965,295.52353,69,116,0
295.55527,295.68225,57,116,0
295.714,296.31717,47,116,0
295.714,296.31717,57,116,0
295.714,296.31717,54,116,0
295.714,296.31717,59,116,0
296.66638,297.26953,47,116,0
296.50763,297.26953,54,116,0
296.3489,297.26953,57,116,0
297.3013,297.42828,57,116,0
297.46002,297.587,54,116,0
297.61874,297.74573,47,116,0
297.77747,297.90445,57,116,0
297.93622,298.0632,54,116,0
298.09494,298.22192,47,116,0
298.25366,298.38065,57,116,0
298.4124,298.5394,54,116,0
298.57114,298.7616,59,116,0
298.80923,298.9997,47,116,0
299.04733,299.42828,52,104,0
299.04733,299.42828,40,104,0
299.04733,299.42828,43,104,0
299.04733,299.42828,47,104,0
299.5235,299.65048,64,104,0
299.68225,299.80923,62,104,0
299.84097,299.96796,60,104,0
299.9997,300.12668,62,104,0
300.15842,300.2854,60,104,0
299.5235,300.2854,52,104,0
300.31717,300.44415,59,104,0
300.4759,300.60287,60,104,0
300.6346,300.7616,59,104,0
300.4759,300.85684,52,104,0
300.79333,300.92035,57,104,0
300.9521,301.55527,55,104,0
300.9521,301.55527,64,104,0
301.587,301.714,62,104,0
301.74573,301.8727,60,104,0
301.90445,302.03143,62,104,0
300.9521,302.09494,52,104,0
302.0632,302.1902,60,104,0
302.22192,302.3489,59,104,0
302.38065,302.50763,60,104,0
302.53937,302.66635,59,104,0
302.38065,302.7616,52,104,0
302.69812,302.8251,57,104,0
302.85684,303.2378,59,104,0
302.85684,303.2378,55,104,0
302.85684,303.46002,64,104,0
303.49176,303.61874,62,104,0
303.33304,303.714,55,104,0
303.33304,303.714,58,104,0
303.65048,303.77747,61,104,0
303.80923,304.1902,57,104,0
303.80923,304.1902,54,104,0
303.80923,304.41238,62,104,0
304.44415,304.57114,60,104,0
304.2854,304.66635,53,104,0
304.2854,304.66635,56,104,0
304.60287,304.72986,59,104,0
304.7616,305.14255,55,104,0
304.7616,305.14255,52,104,0
304.7616,305.36478,60,104,0
305.3965,305.5235,59,104,0
305.2378,305.61874,52,104,0
305.2378,305.61874,54,104,0
305.55524,305.68222,58,104,0
305.714,305.90445,51,104,0
305.714,305.90445,54,104,0
305.714,305.90445,59,104,0
305.9521,306.14255,52,104,0
305.9521,306.14255,55,104,0
306.19016,306.38065,52,104,0
306.19016,306.57114,59,104,0
306.19016,306.57114,47,104,0
306.19016,306.57114,54,104,0
306.42825,306.61874,51,104,0
306.66635,307.0473,47,104,0
306.66635,307.0473,43,104,0
306.66635,307.0473,52,104,0
306.66635,307.26953,40,104,0
307.30127,307.42825,42,104,0
307.46002,307.587,43,104,0
307.61874,307.74573,42,104,0
307.77747,307.90445,43,104,0
307.9362,308.06317,45,104,0
308.09494,308.22192,43,104,0
308.25366,308.38065,45,104,0
308.41238,308.53937,47,104,0
308.5711,308.95206,48,104,0
308.5711,308.95206,45,104,0
308.5711,309.1743,40,104,0
309.0473,309.2378,47,104,0
309.0473,309.2378,43,104,0
309.20605,309.33304,42,104,0
309.36478,309.49176,43,104,0
309.5235,309.65048,42,104,0
309.68222,309.8092,43,104,0
309.84097,309.96796,45,104,0
309.9997,310.12668,43,104,0
310.15842,310.2854,45,104,0
310.31714,310.44412,47,104,0
310.4759,310.85684,45,104,0
310.4759,310.85684,48,104,0
310.4759,311.07904,40,104,0
310.95206,311.14255,47,104,0
310.95206,311.14255,43,104,0
311.1108,311.2378,42,104,0
311.26953,311.3965,43,104,0
311.42825,311.8092,48,104,0
311.42825,311.8092,45,104,0
311.42825,312.03143,40,104,0
311.90445,312.09494,43,104,0
311.90445,312.09494,47,104,0
312.06317,312.19016,42,104,0
312.22192,312.3489,43,104,0
312.38065,312.50763,40,71,0
312.53937,312.66635,42,71,0
312.6981,312.82507,43,81,0
312.85684,312.98383,40,81,0
313.01556,313.14255,42,81,0
312.38065,313.14255,45,71,0
312.38065,313.14255,48,71,0
313.1743,313.30127,43,81,0
313.333,313.46,40,81,0
313.49176,313.61874,42,91,0
313.65048,313.77747,43,91,0
313.8092,313.9362,40,91,0
313.96793,314.0949,42,91,0
313.333,314.0949,47,81,0
314.12668,314.25366,43,91,0
314.2854,314.41238,40,91,0
314.44412,314.5711,42,91,0
314.60287,314.72986,43,91,0
314.7616,314.88858,40,91,0
314.92032,315.0473,42,91,0
314.2854,315.0473,46,91,0
315.07904,315.20602,43,91,0
315.2378,315.36478,40,91,0
315.3965,315.5235,42,91,0
315.55524,315.68222,43,91,0
315.71396,315.84094,40,91,0
315.8727,315.9997,42,91,0
315.2378,315.9997,58,91,0
316.03143,316.15842,43,91,0
316.19016,316.31714,52,91,0
316.34888,316.47586,54,91,0
316.50763,316.6346,55,91,0
316.66635,316.79333,52,91,0
316.82507,316.95206,54,91,0
316.19016,316.95206,57,91,0
316.9838,317.11078,55,91,0
317.14255,317.26953,37,91,0
317.30127,317.42825,45,91,0
317.46,317.58698,49,91,0
317.61874,317.74573,37,91,0
317.77747,317.90445,45,91,0
317.9362,318.06317,49,91,0
318.0949,318.2219,52,91,0
318.25366,318.38065,54,91,0
318.41238,318.53937,55,91,0
318.5711,318.6981,52,91,0
318.72983,318.8568,54,91,0
318.0949,318.8568,58,91,0
318.88858,319.01556,55,91,0
319.0473,319.23776,36,91,0
319.2854,319.47586,48,91,0
319.5235,319.71396,36,91,0
319.7616,319.95206,48,91,0
319.9997,320.12668,47,91,0
320.15842,320.2854,52,91,0
320.31714,320.44412,55,91,0
320.47586,320.60284,47,91,0
320.6346,320.7616,52,91,0
320.79333,320.92032,55,91,0
320.95206,321.17627,34,91,0
321.19016,321.41437,46,91,0
321.42825,321.65247,34,91,0
321.66635,321.89056,46,91,0
321.90445,322.0949,34,91,0
322.14255,322.333,46,91,0
322.3806,322.5711,34,91,0
322.6187,322.8092,46,91,0
322.8568,323.0473,34,91,0
323.0949,323.2854,46,91,0
323.333,323.5235,34,91,0
323.5711,323.76157,46,91,0
323.8092,323.99966,35,91,0
324.0473,324.23776,47,91,0
324.2854,324.47586,35,91,0
324.5235,324.71396,47,91,0
324.76157,324.95206,35,91,0
324.99966,325.19016,47,81,0
325.23776,325.42825,35,81,0
325.47586,325.66635,47,81,0
325.71396,325.90445,35,81,0
325.95206,326.14252,47,81,0
326.19016,326.3806,35,81,0
326.42825,326.6187,47,81,0
326.66635,326.8568,35,81,0
326.90445,327.0949,47,81,0
327.14252,327.333,35,81,0
327.3806,327.5711,47,81,0
327.6187,327.8092,35,81,0
327.8568,328.0473,47,81,0
328.0949,328.2854,35,81,0
328.333,328.52347,47,81,0
328.5711,328.76157,35,81,0
328.8092,328.99966,47,81,0
329.0473,329.23776,35,81,0
329.28537,329.47586,47,81,0
329.52347,329.71396,35,81,0
329.76157,329.95206,47,81,0
329.99966,330.19968,35,81,0
330.24966,330.44968,47,81,0
330.49966,330.7102,35,81,0
330.76282,330.97336,47,81,0
331.026,331.25027,35,81,0
331.30637,331.53067,47,81,0
331.58673,331.88672,40,71,0
332.14923,332.29922,51,71,0
332.14923,332.29922,39,71,0
332.33673,332.63672,40,71,0
332.33673,332.63672,52,71,0
332.89923,333.04922,51,71,0
332.89923,333.04922,39,71,0
333.08673,333.38672,52,71,0
333.08673,333.38672,40,71,0
333.64923,333.79922,50,71,0
333.64923,333.79922,38,71,0
333.83673,334.13672,48,71,0
333.83673,334.13672,36,71,0
334.39923,334.54922,35,71,0
334.39923,334.54922,47,71,0
334.58673,334.88672,33,81,0
334.58673,334.88672,45,81,0
334.96173,335.06174,30,81,0
334.96173,335.06174,42,110,0
335.08673,335.18674,44,81,0
335.21173,335.31174,46,81,0
335.33673,335.43674,44,81,0
335.46173,335.56174,46,81,0
335.58673,335.68674,47,81,0
335.71173,335.81174,40,81,0
335.83673,335.93674,42,81,0
335.96173,336.06174,44,81,0
336.08673,336.18674,42,81,0
336.21173,336.31174,44,81,0
336.33673,336.43674,45,81,0
336.46173,336.56174,38,81,0
336.58673,336.68674,50,81,0
336.71173,336.81174,43,81,0
336.83673,336.93674,45,81,0
336.96173,337.06174,33,81,0
337.08673,337.18674,45,81,0
337.21173,337.31174,35,81,0
337.33673,337.43674,47,81,0
337.46173,337.56174,35,81,0
337.58673,337.88672,40,71,0
338.14923,338.29922,51,71,0
338.14923,338.29922,39,71,0
338.33673,338.63672,52,71,0
338.33673,338.63672,40,71,0
338.89923,339.04922,39,71,0
338.89923,339.04922,51,71,0
339.08673,339.38672,40,71,0
339.08673,339.38672,52,71,0
339.64923,339.79922,50,71,0
339.64923,339.79922,38,71,0
339.83673,340.13672,48,71,0
339.83673,340.13672,36,71,0
340.39923,340.54922,32,71,0
340.39923,340.54922,44,71,0
340.58673,340.88672,45,71,0
340.58673,340.88672,33,71,0
340.96173,341.06174,42,71,0
340.96173,341.06174,30,71,0
341.08673,341.18674,44,71,0
341.21173,341.31174,46,71,0
341.33673,341.43674,44,71,0
341.46173,341.56174,46,71,0
341.58673,341.68674,47,71,0
341.71173,341.81174,40,71,0
341.83673,341.93674,42,71,0
341.96173,342.06174,44,71,0
342.08673,342.18674,42,71,0
342.21173,342.31174,44,71,0
342.33673,342.43674,45,71,0
342.46173,342.56174,38,71,0
342.58673,342.68674,50,71,0
342.71173,342.81174,43,71,0
342.83673,342.93674,45,71,0
342.96173,343.06174,33,71,0
343.08673,343.18674,45,71,0
343.21173,343.31174,35,71,0
343.33673,343.43674,47,71,0
343.46173,343.56174,35,71,0
343.58673,343.68674,45,71,0
343.71173,343.81174,33,71,0
343.83673,343.93674,45,71,0
343.96173,344.06174,35,71,0
344.08673,344.18674,47,71,0
344.21173,344.31174,35,71,0
344.33673,344.43674,48,71,0
344.46173,344.56174,36,71,0
344.58673,344.68674,48,71,0
344.71173,344.81174,38,71,0
344.83673,344.93674,50,71,0
344.96173,345.06174,38,71,0
345.08673,345.18674,48,71,0
345.21173,345.31174,36,71,0
345.33673,345.43674,48,71,0
345.46173,345.56174,38,71,0
345.58673,345.68674,50,71,0
345.71173,345.81174,38,71,0
345.83673,345.93674,40,71,0
345.96173,346.06174,52,71,0
346.08673,346.18674,40,71,0
346.21173,346.31174,54,71,0
346.33673,346.43674,42,71,0
346.46173,346.56174,54,71,0
346.58673,346.68674,54,71,0
346.71173,346.81174,66,71,0
346.83673,346.93674,54,71,0
346.96173,347.06174,59,71,0
347.08673,347.18674,47,71,0
347.21173,347.31174,59,71,0
347.33673,347.43674,47,71,0
347.46173,347.56174,59,71,0
347.58673,347.68674,47,71,0
347.71173,347.81174,52,71,0
347.83673,347.93674,40,71,0
347.96173,348.06174,52,71,0
348.08673,348.18674,40,91,0
348.21173,348.31174,52,91,0
348.33673,348.43674,40,91,0
348.46173,348.56174,45,91,0
348.58673,348.68674,33,91,0
348.71173,348.81174,45,91,0
348.83673,348.93674,33,91,0
348.96173,349.06174,45,91,0
349.08673,349.18674,33,91,0
349.21173,349.31174,45,91,0
349.33673,349.43674,33,91,0
349.46173,349.56174,45,91,0
349.58673,349.68674,33,91,0
349.71173,349.81174,45,91,0
349.83673,349.93674,33,91,0
349.96173,350.06174,41,91,0
350.08673,350.18674,29,91,0
350.21173,350.31174,41,91,0
350.33673,350.43674,29,91,0
350.46173,350.56174,41,91,0
350.58673,350.68674,29,91,0
350.71173,350.81174,39,91,0
350.83673,350.93674,27,91,0
350.96173,351.06174,39,91,0
351.08673,351.18674,27,91,0
351.21173,351.31174,39,91,0
351.33673,351.43674,27,91,0
351.46173,351.56174,39,91,0
351.58673,351.68674,27,91,0
351.71173,351.81174,39,91,0
351.83673,351.93674,27,91,0
351.96173,352.06174,39,91,0
352.08673,352.18674,27,91,0
352.21173,352.31174,39,91,0
352.33673,352.43674,27,91,0
352.46173,352.56174,39,91,0
352.58673,352.73672,28,116,0
352.77423,352.92422,40,116,0
352.96173,353.11172,30,116,0
353.14923,353.29922,42,116,0
353.33673,353.48672,31,116,0
353.52423,353.67422,43,116,0
353.71173,353.86172,35,116,0
353.89923,354.04922,47,116,0
354.08673,354.23672,31,116,0
354.27423,354.42422,43,116,0
354.46173,354.61172,35,116,0
354.64923,354.79922,47,116,0
354.83673,354.98672,36,116,0
355.02423,355.17422,48,116,0
355.21173,355.36172,43,116,0
355.39923,355.54922,55,116,0
355.58673,355.73672,36,116,0
355.77423,355.92422,48,116,0
355.96173,356.11172,38,116,0
356.14923,356.29922,50,116,0
356.33673,356.48672,40,116,0
356.52423,356.67422,52,116,0
356.71173,356.86172,43,116,0
356.89923,357.04922,55,116,0
357.08673,357.23672,40,116,0
357.27423,357.42422,52,116,0
357.46173,357.61172,41,116,0
357.64923,357.79922,53,116,0
357.83673,357.98672,43,116,0
358.02423,358.17422,55,116,0
358.21173,358.36172,45,116,0
358.39923,358.54922,57,116,0
358.58673,358.88672,59,116,0
358.58673,358.88672,47,116,0
359.14923,359.29922,35,116,0
359.14923,359.29922,47,116,0
359.33673,359.63672,47,116,0
359.33673,359.63672,59,116,0
359.89923,360.04922,47,116,0
359.89923,360.04922,35,116,0
360.08673,360.38672,47,116,0
360.08673,360.38672,59,116,0
360.64923,360.79922,35,116,0
360.64923,360.79922,47,116,0
360.83673,361.13672,59,116,0
360.83673,361.13672,47,116,0
361.39923,361.54922,35,116,0
361.39923,361.54922,47,116,0
361.58673,361.88672,47,116,0
361.58673,361.88672,59,116,0
361.96173,362.06174,66,116,0
362.08673,362.18674,67,116,0
362.21173,362.31174,69,116,0
362.33673,362.43674,67,116,0
362.46173,362.56174,69,116,0
362.58673,362.68674,71,116,0
362.71173,362.81174,64,116,0
362.83673,362.93674,66,116,0
362.96173,363.06174,67,116,0
363.08673,363.18674,60,116,0
363.21173,363.31174,62,116,0
363.33673,363.43674,64,116,0
363.46173,363.56174,57,116,0
363.58673,363.68674,59,116,0
363.71173,363.81174,60,116,0
363.83673,363.93674,53,116,0
363.96173,364.06174,56,116,0
364.08673,364.18674,57,116,0
364.21173,364.31174,48,116,0
364.33673,364.43674,52,116,0
364.46173,364.56174,53,116,0
364.58673,364.88672,45,116,0
365.33673,365.63672,54,116,0
365.33673,365.63672,51,116,0
365.33673,365.63672,47,116,0
365.33673,365.63672,59,116,0
366.08673,366.98672,40,116,0
366.08673,366.98672,47,116,0
366.08673,366.98672,52,116,0
366.08673,366.98672,43,116,0
