start_time,end_time,note_value,velocity,instrument_program_number
0.52916664,0.53333336,33,84,0
1.0291667,1.0333333,33,84,0
1.5291667,1.5333333,33,84,0
8.029166,9.029166,72,54,71
9.029166,9.529166,68,54,71
9.529166,10.529166,65,54,71
10.529166,11.029166,80,54,71
11.029166,11.779166,77,54,71
11.779166,12.029166,73,54,71
12.029166,12.279166,77,54,71
12.279166,12.529166,73,54,71
12.529166,13.529166,70,54,71
13.529166,14.029166,85,54,71
14.029166,15.029166,76,54,71
15.029166,15.529166,79,54,71
15.529166,16.529167,68,64,71
16.529167,17.029167,77,84,71
17.029167,18.029167,67,84,71
18.029167,18.195833,70,84,71
18.195833,18.3625,68,84,71
18.3625,18.529167,67,84,71
18.529167,19.029167,67,84,71
20.029167,20.529167,76,84,71
20.529167,21.029167,80,84,71
21.029167,21.529167,79,84,71
21.529167,22.029167,72,84,71
22.029167,22.529167,77,84,71
22.529167,23.029167,75,84,71
23.029167,23.779167,73,84,71
23.779167,24.029167,72,84,71
24.029167,24.279167,75,84,71
24.279167,24.529167,73,84,71
24.529167,25.029167,72,84,71
26.029167,26.279167,52,84,71
26.279167,26.529167,55,84,71
26.529167,26.779167,60,84,71
26.779167,27.029167,64,84,71
27.029167,27.279167,68,84,71
27.279167,27.529167,67,84,71
27.529167,27.779167,60,74,71
27.779167,28.029167,65,74,71
28.029167,28.279167,68,74,71
28.279167,28.529167,72,64,71
28.529167,28.779167,77,64,71
28.779167,29.029167,75,54,71
29.029167,29.779167,73,54,71
29.779167,30.029167,72,54,71
30.029167,30.279167,77,44,71
30.279167,30.529167,75,44,71
30.529167,31.279167,73,44,71
31.279167,31.529167,72,44,71
31.529167,31.779167,75,44,71
31.779167,32.029167,73,44,71
32.029167,32.779167,70,44,71
32.779167,33.029167,73,44,71
33.029167,33.779167,72,44,71
33.779167,34.029167,69,44,71
34.029167,34.779167,70,44,71
34.779167,35.029167,65,24,71
35.029167,36.029167,68,24,71
36.529167,37.529167,66,84,71
38.029167,38.529167,65,84,71
39.529167,39.779167,77,84,71
39.779167,40.029167,73,84,71
40.029167,40.279167,77,84,71
40.279167,40.529167,73,84,71
40.529167,40.779167,68,84,71
40.779167,41.029167,65,84,71
41.029167,41.529167,61,84,71
42.529167,42.695835,82,84,71
42.695835,42.8625,80,84,71
42.8625,43.029167,78,84,71
43.029167,43.195835,82,84,71
43.195835,43.3625,78,84,71
43.3625,43.529167,73,84,71
43.529167,43.695835,70,84,71
43.695835,43.8625,66,84,71
43.8625,44.029167,61,84,71
44.195835,44.3625,60,84,71
44.3625,44.529167,64,84,71
44.529167,44.695835,67,84,71
44.695835,44.8625,72,84,71
44.8625,45.029167,76,84,71
45.029167,45.529167,79,84,71
45.695835,45.8625,56,84,71
45.8625,46.029167,61,84,71
46.029167,46.195835,65,84,71
46.195835,46.3625,68,84,71
46.3625,46.529167,73,84,71
46.529167,47.029167,77,84,71
50.195835,50.3625,80,84,71
50.3625,50.529167,78,84,71
50.529167,50.695835,82,84,71
50.695835,50.8625,80,84,71
50.8625,51.029167,78,84,71
51.029167,51.195835,73,84,71
51.195835,51.3625,70,84,71
51.3625,51.529167,66,84,71
51.695835,51.8625,63,84,71
51.8625,52.029167,66,84,71
52.029167,52.195835,72,84,71
52.195835,52.3625,75,84,71
52.3625,52.529167,78,84,71
52.529167,53.029167,82,84,71
53.195835,53.3625,60,84,71
53.3625,53.529167,63,84,71
53.529167,53.695835,66,84,71
53.695835,53.8625,72,84,71
53.8625,54.029167,75,84,71
54.029167,54.529167,78,84,71
61.029167,61.529167,63,54,71
61.529167,62.029167,70,54,71
62.029167,63.529167,73,54,71
64.02917,64.52917,63,54,71
64.52917,65.02917,70,54,71
65.02917,66.02917,73,54,71
66.02917,66.52917,73,54,71
66.52917,67.02917,77,54,71
67.02917,67.52917,75,54,71
67.52917,68.52917,73,44,71
68.52917,69.02917,72,44,71
69.02917,69.52917,75,44,71
69.52917,70.02917,68,44,71
70.02917,71.02917,80,44,71
71.02917,72.02917,78,44,71
72.02917,72.77917,77,44,71
72.77917,73.02917,75,44,71
73.02917,73.27917,73,44,71
73.27917,73.52917,70,44,71
73.52917,73.77917,66,44,71
73.77917,74.02917,65,44,71
74.02917,74.52917,63,44,71
74.52917,75.02917,68,44,71
75.02917,75.77917,65,44,71
75.77917,76.02917,63,44,71
76.02917,76.27917,61,44,71
76.27917,76.52917,57,44,71
76.52917,76.77917,54,44,71
76.77917,77.02917,53,44,71
77.02917,77.52917,51,44,71
78.02917,79.02917,56,54,71
79.02917,80.02917,53,54,71
80.02917,80.27917,50,54,71
80.27917,80.52917,51,54,71
80.52917,80.77917,53,54,71
80.90417,81.02917,50,54,71
81.02917,81.52917,51,54,71
83.02917,83.27917,60,54,71
83.27917,83.52917,62,54,71
83.52917,83.77917,63,54,71
83.90417,84.02917,60,54,71
84.02917,84.52917,58,54,71
86.02917,86.27917,62,54,71
86.27917,86.52917,63,54,71
86.52917,86.77917,65,54,71
86.90417,87.02917,62,54,71
87.02917,87.52917,63,54,71
87.52917,87.77917,67,64,71
87.77917,88.02917,70,64,71
88.02917,88.27917,68,74,71
88.40417,88.52917,65,74,71
88.52917,89.02917,67,84,71
89.02917,89.27917,72,84,71
89.27917,89.52917,74,84,71
89.52917,89.77917,75,84,71
89.90417,90.02917,72,84,71
90.02917,90.52917,70,84,71
91.52917,91.77917,85,84,71
91.77917,92.02917,84,84,71
92.02917,92.27917,82,84,71
92.40417,92.52917,80,84,71
92.52917,93.65417,79,84,71
93.65417,93.77917,80,84,71
93.77917,93.90417,77,84,71
93.90417,94.02917,74,84,71
94.02917,94.15417,71,84,71
94.15417,94.27917,68,84,71
94.27917,94.40417,65,84,71
94.40417,94.52917,62,84,71
94.52917,94.65417,55,84,71
94.65417,94.77917,60,84,71
94.77917,94.8625,63,84,71
94.8625,94.94583,67,84,71
94.94583,95.02917,72,84,71
95.02917,96.65417,75,84,71
96.65417,96.77917,74,84,71
96.77917,96.90417,72,84,71
96.90417,97.02917,68,84,71
97.02917,97.15417,63,84,71
97.15417,97.27917,60,84,71
97.27917,97.40417,56,84,71
97.40417,97.52917,53,84,71
97.52917,97.6125,55,84,71
97.6125,97.69583,59,84,71
97.69583,97.77917,62,84,71
97.77917,97.84167,67,84,71
97.84167,97.90417,71,84,71
97.90417,97.96667,74,84,71
97.96667,98.02917,79,84,71
98.02917,99.65417,84,84,71
99.65417,99.77917,85,84,71
99.77917,99.90417,82,84,71
99.90417,100.02917,79,84,71
100.02917,100.15417,76,84,71
100.15417,100.27917,73,84,71
100.27917,100.40417,70,84,71
100.40417,100.52917,67,84,71
100.52917,100.6125,60,84,71
100.6125,100.69583,64,84,71
100.69583,100.77917,67,84,71
100.77917,100.8625,72,84,71
100.8625,100.94583,76,84,71
100.94583,101.02917,79,84,71
101.02917,101.27917,72,84,71
104.02917,104.52917,80,84,71
104.52917,105.02917,79,84,71
105.02917,105.52917,77,84,71
105.52917,106.02917,75,84,71
106.02917,106.52917,74,84,71
106.52917,107.02917,79,84,71
107.02917,107.52917,77,54,71
107.52917,108.02917,75,54,71
108.02917,108.52917,74,54,71
108.52917,109.02917,72,54,71
109.02917,109.27917,80,54,71
109.27917,109.52917,77,54,71
109.52917,109.77917,79,54,71
109.77917,110.02917,75,54,71
110.02917,110.27917,77,54,71
110.27917,110.52917,74,54,71
110.52917,110.77917,75,54,71
110.77917,111.02917,72,54,71
111.02917,111.27917,74,54,71
111.27917,111.52917,71,54,71
111.52917,111.77917,67,54,71
111.77917,112.02917,63,54,71
112.02917,112.27917,65,54,71
112.27917,112.52917,62,54,71
112.52917,112.77917,63,54,71
112.77917,113.02917,60,54,71
113.02917,113.27917,62,54,71
113.27917,113.52917,59,54,71
114.02917,114.27917,55,84,71
114.27917,114.52917,51,84,71
115.02917,115.27917,53,84,71
115.27917,115.52917,50,84,71
119.02917,119.15417,86,84,71
119.15417,119.27917,84,84,71
119.27917,119.40417,80,84,71
119.40417,119.52917,77,84,71
119.52917,120.15417,74,84,71
120.15417,120.27917,72,84,71
120.27917,120.40417,68,84,71
120.40417,120.52917,65,84,71
120.52917,121.02917,62,84,71
121.02917,121.52917,63,84,71
121.52917,122.02917,62,84,71
122.02917,122.52917,60,84,71
124.02917,124.15417,84,84,71
124.15417,124.27917,82,84,71
124.27917,124.40417,79,84,71
124.40417,124.52917,76,84,71
124.52917,125.02917,72,84,71
125.52917,125.65417,85,84,71
125.65417,125.77917,84,84,71
125.77917,125.90417,81,84,71
125.90417,126.02917,78,84,71
126.02917,126.15417,82,84,71
126.15417,126.27917,81,84,71
126.27917,126.40417,78,84,71
126.40417,126.52917,72,84,71
126.52917,127.02917,71,84,71
129.52916,129.65416,86,84,71
129.65416,129.77916,84,84,71
129.77916,129.90416,80,84,71
129.90416,130.02916,77,84,71
130.02916,130.65416,74,74,71
130.65416,130.77916,72,54,71
130.77916,130.90416,68,54,71
130.90416,131.02916,65,54,71
131.02916,131.27916,62,54,71
131.27916,131.52916,68,54,71
131.52916,131.77916,67,54,71
131.77916,132.02916,65,54,71
132.02916,132.27916,63,54,71
132.27916,132.52916,62,54,71
133.02916,133.52916,60,54,71
134.52916,135.02916,60,54,71
139.02916,139.52916,70,44,71
139.52916,140.02916,77,44,71
140.02916,140.77916,80,44,71
140.77916,141.02916,79,44,71
141.02916,141.27916,82,44,71
141.27916,141.52916,80,44,71
141.52916,142.02916,72,44,71
142.02916,142.52916,70,44,71
142.52916,143.02916,76,44,71
143.02916,143.77916,80,44,71
143.77916,144.02916,79,44,71
144.02916,144.27916,82,44,71
144.27916,144.52916,80,44,71
145.02916,146.52916,51,44,71
146.52916,147.02916,56,44,71
147.02916,147.52916,58,44,71
147.52916,148.02916,60,44,71
148.02916,148.52916,65,44,71
148.52916,149.02916,63,54,71
149.02916,149.77916,61,54,71
149.77916,150.02916,60,54,71
150.02916,150.27916,63,54,71
150.27916,150.52916,61,54,71
150.52916,151.02916,59,54,71
151.02916,152.02916,71,54,71
152.02916,153.02916,69,54,71
153.02916,153.52916,68,54,71
154.02916,154.52916,66,54,71
154.52916,155.02916,73,44,71
155.02916,155.77916,76,44,71
155.77916,156.02916,75,54,71
156.02916,156.27916,78,54,71
156.27916,156.52916,76,54,71
157.52916,158.02916,73,54,71
158.02916,158.77916,76,44,71
158.77916,159.02916,75,54,71
159.02916,159.27916,78,54,71
159.27916,159.52916,76,44,71
160.52916,161.77916,75,54,71
161.77916,162.02916,73,54,71
162.02916,162.27916,76,54,71
162.27916,162.52916,75,44,71
162.52916,164.77916,73,44,71
164.77916,165.02916,71,54,71
165.02916,165.27916,75,54,71
165.27916,165.52916,73,54,71
165.52916,166.77916,71,54,71
166.77916,167.02916,69,44,71
167.02916,167.27916,73,54,71
167.27916,167.52916,71,54,71
167.52916,168.27916,69,44,71
168.27916,168.52916,68,54,71
168.52916,168.77916,71,44,71
168.77916,169.02916,69,44,71
169.02916,169.27916,68,44,71
169.27916,169.52916,66,44,71
169.52916,169.77916,68,44,71
169.77916,170.02916,66,44,71
170.02916,170.27916,64,44,71
170.27916,170.52916,63,44,71
171.27916,171.52916,66,44,71
171.52916,171.77916,71,84,71
171.77916,172.02916,69,84,71
172.02916,172.27916,68,84,71
172.27916,172.52916,66,84,71
172.52916,172.77916,68,84,71
172.77916,173.02916,66,84,71
173.02916,173.27916,64,84,71
173.27916,173.52916,63,84,71
174.77916,175.27916,76,84,71
175.27916,175.77916,75,84,71
175.77916,176.02916,73,84,71
177.77916,178.27916,83,84,71
178.27916,178.77916,81,84,71
178.77916,179.02916,80,84,71
181.40416,181.52916,73,84,71
181.52916,182.02916,75,84,71
182.90416,183.02916,73,84,71
183.02916,183.52916,75,84,71
186.02916,186.27916,75,84,71
186.27916,186.52916,73,84,71
186.52916,186.77916,72,84,71
186.90416,187.02916,70,84,71
187.02916,187.77916,68,84,71
188.02916,188.27916,85,84,71
188.27916,188.52916,83,84,71
188.52916,188.77916,81,84,71
188.77916,189.02916,80,84,71
189.02916,189.27916,73,84,71
194.02916,194.52916,78,84,71
194.52916,195.27916,80,84,71
195.27916,195.52916,73,84,71
195.52916,195.77916,78,84,71
195.77916,196.27916,85,84,71
196.27916,196.77916,73,84,71
196.77916,197.02916,61,84,71
197.02916,197.77916,61,84,71
202.02916,203.52916,64,84,71
203.52916,204.52916,62,54,71
204.52916,206.02916,61,54,71
206.02916,207.52916,59,54,71
207.52916,208.52916,60,54,71
208.52916,209.02916,56,54,71
209.02916,209.69583,53,54,71
209.69583,209.8625,56,54,71
209.8625,210.02916,61,54,71
210.02916,210.19583,65,54,71
210.19583,210.3625,68,54,71
210.3625,210.52916,80,54,71
210.52916,211.27916,77,54,71
211.27916,211.52916,73,54,71
211.52916,211.77916,77,54,71
211.77916,212.02916,73,54,71
212.02916,212.69583,70,54,71
212.69583,212.8625,66,54,71
212.8625,213.02916,70,54,71
213.02916,213.19583,73,54,71
213.19583,213.3625,82,54,71
213.3625,213.52916,85,54,71
213.52916,214.52916,76,54,71
214.52916,215.02916,79,54,71
215.02916,216.02916,68,54,71
216.02916,216.52916,77,84,71
216.52916,217.52916,67,84,71
217.52916,217.69583,70,84,71
217.69583,217.8625,68,84,71
217.8625,218.02916,67,84,71
218.02916,218.52916,67,84,71
219.77916,220.02916,87,84,71
220.02916,220.27916,78,84,71
220.27916,220.52916,75,84,71
220.52916,221.02916,66,84,71
221.27916,221.52916,81,84,71
221.52916,221.77916,70,74,71
221.77916,222.02916,79,74,71
222.02916,222.27916,70,74,71
222.27916,222.52916,78,64,71
222.52916,222.77916,70,74,71
222.77916,223.02916,81,74,71
223.02916,223.27916,70,74,71
223.27916,223.52916,79,74,71
223.52916,223.77916,70,74,71
224.27916,224.52916,77,74,71
224.52916,224.77916,67,54,71
224.77916,225.02916,76,54,71
225.02916,225.27916,67,54,71
225.27916,225.52916,75,54,71
225.52916,225.77916,67,54,71
225.77916,226.02916,77,54,71
226.02916,226.27916,67,54,71
226.27916,226.52916,76,54,71
226.52916,226.77916,67,54,71
226.77916,227.02916,74,54,71
227.02916,227.27916,64,54,71
227.52916,228.52916,72,54,71
229.02916,230.02916,72,54,71
233.52916,234.02916,67,54,71
234.02916,234.52916,74,54,71
234.52916,236.02916,77,54,71
236.52916,237.02916,67,54,71
237.02916,237.52916,74,54,71
237.52916,238.52916,77,54,71
238.52916,239.02916,77,54,71
239.02916,239.52916,81,54,71
239.52916,240.02916,79,54,71
240.02916,241.02916,77,54,71
241.02916,241.52916,76,54,71
241.52916,242.02916,79,54,71
242.02916,242.52916,72,54,71
242.52916,243.52916,84,54,71
243.52916,244.52916,82,54,71
244.52916,245.27916,81,54,71
245.27916,245.52916,79,54,71
245.52916,245.77916,77,54,71
245.77916,246.02916,74,54,71
246.02916,246.27916,70,54,71
246.27916,246.52916,69,54,71
246.52916,247.02916,67,54,71
247.02916,247.52916,72,54,71
247.52916,248.27916,69,54,71
248.27916,248.52916,67,54,71
248.52916,248.77916,65,44,71
248.77916,249.02916,61,44,71
249.02916,249.27916,58,44,71
249.27916,249.52916,56,44,71
249.52916,250.02916,55,44,71
250.52916,251.52916,60,54,71
251.52916,252.52916,56,54,71
258.52917,258.77917,55,54,71
258.77917,259.02917,56,54,71
259.02917,259.27917,58,54,71
259.40417,259.52917,55,54,71
259.52917,260.02917,56,54,71
260.02917,260.27917,60,54,71
260.27917,260.52917,63,54,71
260.52917,260.77917,61,54,71
260.90417,261.02917,58,74,71
261.02917,261.52917,60,74,71
261.52917,261.77917,77,84,71
261.77917,262.02917,79,84,71
262.02917,262.27917,80,84,71
262.40417,262.52917,77,84,71
262.52917,263.02917,75,84,71
264.02917,264.27917,79,84,71
264.27917,264.52917,77,84,71
264.52917,264.77917,75,84,71
264.90417,265.02917,73,84,71
265.02917,266.15417,72,84,71
266.15417,266.27917,73,84,71
266.27917,266.40417,70,84,71
266.40417,266.52917,67,84,71
266.52917,266.65417,64,84,71
266.65417,266.77917,61,84,71
266.77917,266.90417,58,84,71
266.90417,267.02917,55,84,71
267.02917,267.1125,56,84,71
267.1125,267.19583,60,84,71
267.19583,267.27917,65,84,71
267.27917,267.3625,68,84,71
267.3625,267.44583,72,84,71
267.44583,267.52917,77,84,71
267.52917,269.15417,80,84,71
269.15417,269.27917,79,84,71
269.27917,269.40417,77,84,71
269.40417,269.52917,73,84,71
269.52917,269.65417,68,84,71
269.65417,269.77917,65,84,71
269.77917,269.90417,61,84,71
269.90417,270.02917,58,84,71
270.02917,270.1125,55,84,71
270.1125,270.19583,60,84,71
270.19583,270.27917,64,84,71
270.27917,270.3625,67,84,71
270.3625,270.44583,72,84,71
270.44583,270.52917,76,84,71
270.52917,272.15417,77,84,71
272.15417,272.27917,78,84,71
272.27917,272.40417,75,84,71
272.40417,272.52917,72,84,71
272.52917,272.65417,69,84,71
272.65417,272.77917,66,84,71
272.77917,272.90417,63,84,71
272.90417,273.02917,60,84,71
273.02917,273.1125,53,84,71
273.1125,273.19583,57,84,71
273.19583,273.27917,60,84,71
273.27917,273.3625,65,84,71
273.3625,273.44583,69,84,71
273.44583,273.52917,72,84,71
273.52917,273.77917,77,84,71
276.52917,277.02917,85,84,71
277.02917,277.52917,84,84,71
277.52917,278.02917,82,84,71
278.02917,278.52917,80,84,71
278.52917,279.02917,79,84,71
279.02917,279.52917,84,84,71
279.52917,280.02917,82,54,71
280.02917,280.52917,80,54,71
280.52917,281.02917,79,54,71
281.02917,281.52917,77,54,71
281.52917,281.77917,85,54,71
281.77917,282.02917,82,54,71
282.02917,282.27917,84,54,71
282.27917,282.52917,80,54,71
282.52917,282.77917,82,54,71
282.77917,283.02917,79,54,71
283.02917,283.27917,80,54,71
283.27917,283.52917,77,54,71
283.52917,283.77917,79,54,71
283.77917,284.02917,76,54,71
284.02917,284.27917,72,54,71
284.27917,284.52917,68,54,71
284.52917,284.77917,70,54,71
284.77917,285.02917,67,54,71
285.02917,285.27917,68,54,71
285.27917,285.52917,65,54,71
285.52917,285.77917,67,54,71
285.77917,286.02917,64,54,71
286.52917,286.77917,60,84,71
286.77917,287.02917,56,84,71
287.52917,287.77917,58,84,71
287.77917,288.02917,55,84,71
291.52917,291.65417,79,84,71
291.65417,291.77917,77,84,71
291.77917,291.90417,73,84,71
291.90417,292.02917,70,84,71
292.02917,292.65417,67,84,71
292.65417,292.77917,65,84,71
292.77917,292.90417,61,84,71
292.90417,293.02917,58,84,71
293.02917,293.52917,55,84,71
293.52917,294.02917,68,84,71
294.02917,294.52917,67,84,71
296.52917,296.65417,77,84,71
296.65417,296.77917,75,84,71
296.77917,296.90417,72,84,71
296.90417,297.02917,69,84,71
297.02917,297.52917,65,84,71
298.02917,298.15417,79,84,71
298.15417,298.27917,77,84,71
298.27917,298.40417,74,84,71
298.40417,298.52917,71,84,71
298.52917,299.02917,67,84,71
299.02917,299.15417,84,84,71
299.15417,299.27917,82,84,71
299.27917,299.40417,79,84,71
299.40417,299.52917,76,84,71
299.52917,300.15417,72,84,71
300.15417,300.27917,70,94,71
300.27917,300.40417,67,94,71
300.40417,300.52917,64,94,71
300.52917,301.02917,60,94,71
301.02917,301.52917,82,94,71
301.52917,302.02917,80,94,71
302.02917,302.65417,79,94,71
302.65417,302.77917,77,94,71
302.77917,302.90417,74,94,71
302.90417,303.02917,71,94,71
303.02917,303.15417,67,94,71
303.15417,303.27917,65,94,71
303.27917,303.40417,62,94,71
303.40417,303.52917,59,94,71
303.52917,304.02917,55,94,71
309.52917,310.52917,60,54,71
310.52917,311.02917,56,54,71
311.02917,312.02917,53,54,71
312.02917,312.52917,57,64,71
312.52917,313.27917,65,74,71
313.27917,313.52917,62,74,71
313.52917,313.77917,65,84,71
313.77917,314.02917,62,84,71
314.02917,314.69583,58,84,71
314.69583,314.8625,61,84,71
314.8625,315.02917,65,84,71
315.02917,315.19583,70,84,71
315.19583,315.3625,73,84,71
315.3625,315.52917,77,84,71
315.52917,317.19583,82,84,71
317.19583,317.3625,80,84,71
317.3625,317.52917,78,84,71
317.52917,317.69583,82,84,71
317.69583,317.8625,78,84,71
317.8625,318.02917,77,84,71
318.02917,318.19583,75,84,71
318.19583,318.3625,73,84,71
318.3625,318.52917,72,84,71
318.52917,320.19583,77,84,71
320.19583,320.3625,75,54,71
320.3625,320.52917,73,54,71
320.52917,320.69583,77,54,71
320.69583,320.8625,73,54,71
320.8625,321.02917,72,54,71
321.02917,321.19583,70,54,71
321.19583,321.3625,68,54,71
321.3625,321.52917,67,54,71
321.52917,322.69583,72,54,71
322.69583,322.8625,73,54,71
322.8625,323.02917,75,54,71
323.02917,324.19583,72,54,71
324.19583,324.3625,76,54,71
324.3625,324.52917,79,54,71
324.52917,325.69583,72,54,71
325.69583,325.8625,77,54,71
325.8625,326.02917,84,54,71
326.02917,326.52917,82,54,71
326.52917,326.69583,80,54,71
326.69583,326.8625,77,54,71
326.8625,327.02917,72,54,71
327.02917,327.27917,79,54,71
327.27917,327.52917,82,54,71
327.52917,327.69583,80,54,71
327.69583,327.8625,77,54,71
327.8625,328.02917,72,54,71
328.02917,328.27917,71,54,71
328.27917,328.52917,70,54,71
328.52917,328.77917,67,54,71
328.77917,329.02917,68,54,71
329.02917,329.27917,65,54,71
329.27917,329.52917,72,54,71
329.52917,330.19583,72,54,71
330.19583,330.3625,73,54,71
330.3625,330.52917,75,54,71
330.52917,331.52917,72,54,71
331.52917,332.19583,72,54,71
332.19583,332.3625,76,54,71
332.3625,332.52917,79,54,71
332.52917,333.02917,72,54,71
333.02917,333.19583,72,54,71
333.19583,333.3625,77,64,71
333.3625,333.52917,72,64,71
333.52917,334.02917,72,54,71
334.02917,334.19583,72,74,71
334.19583,334.3625,74,84,71
334.3625,334.52917,75,84,71
334.52917,335.02917,75,84,71
335.02917,335.19583,74,84,71
335.19583,335.3625,79,84,71
335.3625,335.52917,74,84,71
335.52917,336.02917,77,84,71
336.02917,336.19583,79,84,71
336.19583,336.3625,84,84,71
336.3625,336.52917,79,84,71
336.52917,336.77917,82,84,71
336.77917,337.02917,80,84,71
337.02917,337.27917,79,84,71
337.27917,337.52917,77,84,71
337.52917,337.77917,73,84,71
337.77917,338.02917,64,74,71
347.02917,347.52917,72,44,71
347.52917,348.02917,77,44,71
348.02917,348.52917,75,44,71
348.52917,349.27917,73,44,71
349.27917,349.52917,72,44,71
349.52917,349.77917,75,44,71
349.77917,350.02917,73,44,71
350.02917,351.52917,72,44,71
351.52917,353.02917,72,44,71
353.02917,355.02917,72,44,71
0.52916664,0.53333336,33,127,0
1.0291667,1.0333333,33,127,0
1.5291667,1.5333333,33,127,0
2.0291667,2.5291667,72,84,0
2.0291667,2.5291667,60,84,0
2.0291667,2.5291667,48,84,0
2.5291667,3.0291667,77,84,0
2.5291667,3.0291667,65,84,0
2.5291667,3.0291667,53,84,0
3.0291667,3.5291667,63,84,0
3.0291667,3.5291667,75,84,0
3.0291667,3.5291667,51,84,0
3.5291667,4.2791667,73,84,0
3.5291667,4.2791667,61,84,0
3.5291667,4.2791667,49,84,0
4.2791667,4.5291667,72,84,0
4.2791667,4.5291667,60,84,0
4.2791667,4.5291667,48,84,0
4.5291667,4.775,51,84,0
4.5291667,4.7791667,63,84,0
4.5291667,4.7791667,75,84,0
4.7791667,4.9666667,61,84,0
4.7791667,4.9666667,73,84,0
4.7791667,4.9666667,49,84,0
5.0291667,5.275,46,84,0
5.0291667,5.2791667,58,84,0
5.0291667,5.2791667,70,84,0
5.2791667,5.5291667,61,84,0
5.2791667,5.5291667,73,84,0
5.2791667,5.5291667,49,84,0
5.5291667,5.7791667,72,84,0
5.5291667,5.7791667,60,84,0
5.5291667,5.7791667,48,84,0
5.7791667,6.0291667,56,84,0
5.7791667,6.0291667,68,84,0
5.7791667,6.0291667,44,84,0
6.0291667,6.2791667,58,84,0
6.0291667,6.2791667,70,84,0
6.0291667,6.2791667,46,84,0
6.2791667,6.4625,41,84,0
6.2791667,6.4666667,65,84,0
6.2791667,6.4666667,53,84,0
6.5291667,7.5291667,56,84,0
6.5291667,7.5291667,68,84,0
6.5291667,7.5291667,44,84,0
7.5291667,7.925,66,74,0
7.5291667,7.925,54,74,0
7.5291667,7.925,42,74,0
8.029166,8.279166,41,54,0
8.279166,8.525,36,54,0
8.529166,8.779166,41,54,0
8.779166,8.9625,48,54,0
8.529166,9.425,65,54,0
8.529166,9.425,60,54,0
8.529166,9.425,53,54,0
9.529166,9.779166,41,54,0
9.779166,10.029166,37,54,0
10.029166,10.279166,41,54,0
10.279166,10.466666,49,54,0
10.029166,10.920834,61,54,0
10.029166,10.925,53,54,0
10.029166,10.925,65,54,0
11.029166,11.279166,46,54,0
11.279166,11.529166,41,54,0
11.529166,11.779166,46,54,0
11.779166,12.029166,49,54,0
11.529166,12.425,65,54,0
11.529166,12.425,53,54,0
11.529166,12.425,61,54,0
12.529166,12.779166,46,54,0
12.779166,13.029166,42,54,0
13.029166,13.279166,46,54,0
13.279166,13.529166,49,54,0
13.029166,13.925,66,54,0
13.029166,13.925,70,54,0
13.029166,13.925,61,54,0
13.029166,13.925,58,54,0
14.025,14.279166,36,54,0
14.279166,14.529166,43,54,0
14.529166,14.779166,48,54,0
14.779166,15.029166,52,54,0
14.529166,15.420834,64,54,0
14.529166,15.425,67,54,0
14.529166,15.425,58,54,0
15.529166,15.779166,37,54,0
15.779166,16.029167,44,54,0
16.029167,16.279167,49,54,0
16.279167,16.529167,53,54,0
16.029167,16.925,65,54,0
16.029167,16.925,56,54,0
16.029167,16.925,61,54,0
17.029167,17.529167,65,54,0
17.029167,17.529167,47,54,0
17.029167,17.529167,53,54,0
17.029167,17.529167,62,54,0
17.025,17.816668,43,54,0
17.529167,18.029167,63,64,0
17.529167,18.029167,36,64,0
17.529167,18.029167,60,64,0
17.529167,18.029167,51,64,0
18.029167,18.425,61,74,0
18.029167,18.425,53,74,0
18.029167,18.425,43,74,0
18.029167,18.425,58,74,0
18.029167,18.425,46,74,0
18.529167,18.716667,55,84,0
18.529167,18.716667,52,84,0
18.529167,18.716667,36,84,0
18.529167,18.716667,48,84,0
18.529167,18.716667,60,84,0
18.904167,18.9875,60,84,0
18.904167,18.9875,84,84,0
18.904167,18.9875,72,84,0
18.904167,18.9875,48,84,0
19.029167,20.216667,72,84,0
19.029167,20.216667,84,84,0
19.029167,20.216667,48,84,0
19.029167,20.216667,60,84,0
20.404167,20.4875,46,84,0
20.404167,20.4875,72,84,0
20.404167,20.4875,64,84,0
20.404167,20.4875,58,84,0
20.404167,20.4875,48,84,0
20.404167,20.4875,60,84,0
20.529167,21.716667,46,84,0
20.529167,21.716667,72,84,0
20.529167,21.716667,48,84,0
20.529167,21.716667,58,84,0
20.529167,21.716667,64,84,0
20.529167,21.716667,60,84,0
21.904167,21.9875,60,84,0
21.904167,21.9875,44,84,0
21.904167,21.9875,53,84,0
21.904167,21.9875,48,84,0
22.029167,23.425,53,84,0
22.029167,23.425,48,84,0
22.029167,23.425,60,84,0
22.029167,23.425,44,84,0
23.529167,24.420834,46,84,0
23.529167,24.425,43,84,0
23.529167,24.425,58,84,0
23.529167,24.425,53,84,0
24.529167,24.716667,55,84,0
24.525,24.716667,36,84,0
24.529167,24.716667,48,84,0
24.529167,24.716667,52,84,0
24.904167,24.9875,60,84,0
24.904167,24.9875,84,84,0
24.904167,24.9875,48,84,0
24.904167,24.9875,72,84,0
25.029167,26.216667,72,84,0
25.025,26.216667,48,84,0
25.029167,26.216667,84,84,0
25.029167,26.216667,60,84,0
26.529167,27.716667,46,84,0
26.529167,27.716667,72,84,0
26.529167,27.716667,60,84,0
26.529167,27.716667,58,84,0
26.529167,27.716667,48,84,0
26.529167,27.716667,64,84,0
28.029167,28.820833,60,84,0
28.029167,28.820833,44,84,0
28.029167,28.820833,48,84,0
28.029167,28.820833,53,84,0
29.025,29.279167,41,84,0
29.279167,29.529167,44,84,0
29.529167,29.779167,37,74,0
29.779167,30.029167,41,74,0
29.029167,30.029167,68,84,0
29.029167,30.029167,65,84,0
29.029167,30.029167,56,84,0
30.029167,30.279167,44,64,0
30.279167,30.529167,42,64,0
30.029167,30.529167,60,74,0
30.029167,30.529167,56,74,0
30.029167,30.529167,68,74,0
30.529167,30.779167,41,54,0
30.779167,31.029167,44,54,0
31.029167,31.279167,49,54,0
30.529167,31.529167,68,64,0
30.529167,31.529167,65,64,0
30.529167,31.529167,56,64,0
31.529167,32.029167,56,54,0
31.529167,32.029167,68,54,0
31.279167,32.529167,53,54,0
32.529167,33.029167,52,44,0
32.029167,33.029167,55,44,0
32.029167,33.029167,67,44,0
33.029167,33.525,66,44,0
33.029167,33.529167,54,44,0
33.029167,34.029167,51,44,0
34.029167,34.529167,50,44,0
33.529167,34.529167,65,44,0
33.529167,34.529167,53,44,0
34.529167,34.920834,58,44,0
34.529167,35.529167,49,44,0
35.029167,36.529167,51,44,0
35.029167,36.529167,63,44,0
35.529167,37.029167,48,44,0
37.029167,37.425,46,24,0
36.529167,37.425,49,24,0
36.529167,37.425,61,24,0
38.029167,38.195835,41,84,0
38.195835,38.3625,36,84,0
38.3625,38.529167,41,84,0
38.529167,38.695835,48,84,0
38.029167,38.779167,65,84,0
38.029167,38.779167,60,84,0
38.029167,38.779167,72,84,0
38.695835,38.858334,53,84,0
38.779167,38.9625,68,84,0
38.8625,38.9875,56,84,0
39.029167,39.279167,72,84,0
39.029167,39.279167,60,84,0
39.279167,39.4625,56,84,0
39.279167,39.466667,68,84,0
39.529167,40.529167,65,84,0
39.529167,40.529167,56,84,0
39.529167,40.529167,41,84,0
39.529167,40.529167,53,84,0
39.529167,40.529167,49,84,0
39.529167,40.529167,61,84,0
39.529167,40.529167,44,84,0
40.529167,40.779167,68,84,0
40.529167,40.779167,41,84,0
40.529167,40.779167,80,84,0
40.529167,40.779167,53,84,0
41.029167,41.195835,46,84,0
41.195835,41.3625,41,84,0
41.3625,41.529167,46,84,0
41.529167,41.695835,53,84,0
41.029167,41.695835,73,84,0
41.029167,41.695835,77,84,0
41.029167,41.695835,70,84,0
41.029167,41.695835,65,84,0
41.695835,41.8625,75,84,0
41.695835,41.8625,58,84,0
41.8625,41.9875,61,84,0
41.8625,42.029167,73,84,0
42.029167,42.195835,77,84,0
42.029167,42.195835,65,84,0
42.195835,42.3625,73,84,0
42.195835,42.3625,61,84,0
42.3625,42.4875,72,84,0
42.3625,42.4875,60,84,0
42.529167,43.529167,70,84,0
42.529167,43.529167,66,84,0
42.529167,43.529167,54,84,0
42.529167,43.529167,58,84,0
42.529167,43.529167,46,84,0
42.529167,43.529167,61,84,0
42.529167,43.529167,49,84,0
43.529167,43.779167,58,84,0
43.529167,43.779167,85,84,0
43.529167,43.779167,46,84,0
43.529167,43.779167,73,84,0
44.029167,45.029167,55,84,0
44.029167,45.029167,48,84,0
44.029167,45.029167,60,84,0
44.029167,45.029167,70,84,0
44.029167,45.029167,76,84,0
44.029167,45.029167,64,84,0
45.029167,45.279167,67,84,0
45.029167,45.279167,36,84,0
45.029167,45.279167,48,84,0
45.029167,45.279167,79,84,0
45.529167,46.529167,68,84,0
45.529167,46.529167,49,84,0
45.529167,46.529167,56,84,0
45.529167,46.529167,61,84,0
45.529167,46.529167,53,84,0
45.529167,46.529167,65,84,0
46.529167,46.779167,65,84,0
46.529167,46.779167,37,84,0
46.529167,46.779167,49,84,0
46.529167,46.779167,77,84,0
47.029167,47.775,50,84,0
47.029167,47.779167,62,84,0
47.029167,47.779167,53,84,0
47.029167,47.779167,55,84,0
47.029167,47.779167,59,84,0
47.029167,47.779167,47,84,0
47.029167,47.779167,41,84,0
47.029167,47.779167,67,84,0
47.029167,47.779167,43,84,0
47.779167,48.025,38,84,0
47.779167,48.029167,50,84,0
47.779167,48.029167,59,84,0
47.779167,48.029167,71,84,0
48.029167,48.279167,46,84,0
48.029167,48.279167,74,84,0
48.029167,48.279167,62,84,0
48.279167,48.404167,43,84,0
48.279167,48.404167,67,84,0
48.279167,48.404167,79,84,0
48.529167,48.925,72,84,0
48.529167,48.925,64,84,0
48.529167,48.925,48,84,0
48.529167,48.925,67,84,0
48.529167,48.925,36,84,0
48.529167,48.925,76,84,0
48.529167,48.925,43,84,0
49.195835,49.3625,73,84,0
49.195835,49.3625,61,84,0
49.3625,49.529167,72,84,0
49.3625,49.529167,60,84,0
49.529167,49.695835,75,84,0
49.529167,49.695835,63,84,0
49.695835,49.8625,73,84,0
49.695835,49.8625,61,84,0
49.8625,49.9875,72,84,0
49.8625,49.9875,60,84,0
50.029167,51.029167,70,84,0
50.029167,51.029167,54,84,0
50.029167,51.029167,46,84,0
50.029167,51.029167,61,84,0
50.029167,51.029167,58,84,0
50.029167,51.029167,49,84,0
50.029167,51.029167,66,84,0
51.029167,51.279167,73,84,0
51.029167,51.279167,46,84,0
51.029167,51.279167,58,84,0
51.029167,51.279167,85,84,0
51.529167,52.529167,66,84,0
51.529167,52.529167,63,84,0
51.529167,52.529167,75,84,0
51.529167,52.529167,56,84,0
51.529167,52.529167,48,84,0
51.529167,52.529167,51,84,0
51.529167,52.529167,60,84,0
52.529167,52.779167,82,84,0
52.529167,52.779167,48,84,0
52.529167,52.779167,36,84,0
53.029167,54.025,63,84,0
53.029167,54.029167,66,84,0
53.029167,54.029167,72,84,0
53.029167,54.029167,60,84,0
53.029167,54.029167,56,84,0
53.029167,54.029167,51,84,0
54.029167,54.275,39,84,0
54.029167,54.279167,78,84,0
54.029167,54.279167,51,84,0
54.029167,54.279167,66,84,0
54.525,55.279167,54,84,0
55.279167,55.529167,51,84,0
55.529167,55.779167,48,84,0
54.529167,55.925,60,84,0
54.529167,55.925,69,84,0
54.529167,55.925,63,84,0
55.779167,56.779167,42,84,0
56.779167,57.029167,51,74,0
56.029167,57.029167,70,84,0
57.029167,57.275,48,64,0
56.029167,57.425,63,84,0
57.029167,57.425,68,74,0
56.029167,57.425,60,84,0
57.279167,57.466667,42,54,0
57.525,58.525,41,54,0
57.529167,58.529167,53,54,0
58.029167,59.029167,68,54,0
58.029167,59.029167,56,54,0
58.025,59.029167,61,54,0
58.529167,59.529167,46,54,0
58.529167,59.529167,58,54,0
59.029167,60.025,54,54,0
59.029167,60.029167,66,54,0
59.029167,60.029167,61,54,0
60.029167,60.529167,54,54,0
59.529167,60.529167,56,54,0
59.529167,60.529167,44,54,0
60.529167,61.025,54,54,0
60.029167,61.029167,65,54,0
60.029167,61.029167,61,54,0
60.529167,62.1125,42,54,0
61.029167,62.216667,63,54,0
61.029167,62.216667,51,54,0
61.029167,62.216667,61,54,0
61.029167,62.216667,58,54,0
62.529167,63.025,41,54,0
62.529167,63.029167,61,54,0
62.529167,63.029167,53,54,0
62.529167,63.029167,56,54,0
62.529167,63.029167,68,54,0
63.029167,63.425,49,54,0
63.029167,63.425,37,54,0
63.029167,63.820835,53,54,0
63.029167,63.820835,65,54,0
63.029167,63.820835,61,54,0
63.529167,65.1125,42,54,0
63.529167,65.1125,54,54,0
64.02917,65.21667,58,54,0
64.02917,65.21667,51,54,0
64.02917,65.21667,63,54,0
64.02917,65.21667,61,54,0
65.52917,66.02917,61,54,0
65.52917,66.02917,58,54,0
65.52917,66.02917,63,54,0
65.52917,66.32083,55,54,0
65.52917,66.32083,43,54,0
66.02917,66.425,70,54,0
66.52917,67.025,73,54,0
66.52917,67.02917,61,54,0
67.02917,67.52917,60,54,0
67.02917,67.52917,72,54,0
66.52917,67.71667,51,54,0
66.52917,67.71667,39,54,0
68.02917,68.52917,56,54,0
67.52917,68.52917,58,54,0
67.52917,68.52917,70,54,0
68.02917,69.025,44,54,0
68.52917,69.02917,68,54,0
68.52917,69.02917,56,54,0
69.02917,69.42083,42,44,0
69.02917,69.425,54,44,0
69.02917,69.52917,60,54,0
69.52917,70.32083,53,44,0
69.52917,70.32083,41,44,0
70.02917,71.025,61,44,0
70.02917,71.02917,49,44,0
70.52917,71.32083,46,44,0
70.52917,71.32083,58,44,0
71.02917,72.025,73,44,0
71.02917,72.02917,61,44,0
71.52917,72.32083,44,44,0
71.52917,72.32083,56,44,0
72.02917,73.02917,62,44,0
72.02917,73.02917,74,44,0
72.02917,73.02917,71,44,0
72.52917,73.316666,42,44,0
72.52917,73.32083,54,44,0
73.02917,73.525,75,44,0
73.02917,73.52917,63,44,0
73.52917,74.02917,70,44,0
73.52917,74.02917,82,44,0
73.52917,74.32083,61,44,0
73.52917,74.32083,58,44,0
73.52917,74.32083,53,44,0
74.52917,75.02917,53,44,0
74.525,75.02917,41,44,0
75.02917,75.525,37,44,0
75.02917,75.52917,49,44,0
74.02917,75.6125,85,44,0
74.02917,75.6125,73,44,0
75.52917,76.425,42,44,0
75.52917,76.425,54,44,0
76.02917,76.52917,63,44,0
76.52917,77.02917,69,44,0
76.52917,77.02917,57,44,0
76.52917,77.925,43,44,0
76.52917,77.925,45,44,0
76.52917,77.925,49,44,0
78.02917,78.925,53,44,0
77.02917,78.925,61,44,0
77.02917,78.925,73,44,0
78.02917,78.925,41,44,0
79.02917,79.925,48,44,0
79.02917,79.925,44,44,0
79.02917,79.925,56,44,0
79.02917,79.925,60,44,0
80.02917,80.15417,47,54,0
80.02917,80.15417,50,54,0
80.15417,80.27917,55,54,0
80.27917,80.40417,48,54,0
80.27917,80.40417,51,54,0
80.02917,80.525,43,54,0
80.40417,80.52917,55,54,0
80.52917,80.65417,53,54,0
80.52917,80.65417,50,54,0
80.52917,80.7125,43,54,0
80.65417,80.7375,55,54,0
80.90417,80.9875,55,54,0
80.90417,80.9875,43,54,0
80.90417,80.9875,50,54,0
80.90417,80.9875,47,54,0
81.02917,81.425,51,54,0
81.02917,81.425,36,54,0
81.02917,81.425,48,54,0
81.02917,81.425,55,54,0
81.52917,81.65417,55,54,0
81.52917,81.65417,51,54,0
81.65417,81.77917,51,54,0
81.77917,81.90417,58,54,0
81.90417,82.02917,50,54,0
81.52917,82.02917,39,54,0
82.02917,82.1125,56,54,0
82.02917,82.21667,53,54,0
82.02917,82.21667,41,54,0
82.15417,82.2375,48,54,0
82.40417,82.4875,53,54,0
82.40417,82.4875,44,54,0
82.40417,82.4875,56,54,0
82.40417,82.4875,48,54,0
82.52917,82.925,55,54,0
82.52917,82.925,36,54,0
82.52917,82.925,48,54,0
82.52917,82.925,51,54,0
83.02917,83.15417,56,54,0
83.02917,83.15417,60,54,0
83.15417,83.275,68,54,0
83.27917,83.40417,62,54,0
83.27917,83.40417,58,54,0
83.40417,83.52917,68,54,0
83.02917,83.52917,51,54,0
83.02917,83.52917,44,54,0
83.52917,83.65417,63,54,0
83.52917,83.65417,60,54,0
83.52917,83.71667,44,54,0
83.65417,83.7375,68,54,0
83.90417,83.98333,44,54,0
83.90417,83.9875,60,54,0
83.90417,83.9875,56,54,0
84.02917,84.425,55,54,0
84.025,84.425,39,54,0
84.02917,84.425,51,54,0
84.02917,84.425,58,54,0
84.52917,84.77917,56,54,0
84.52917,84.77917,44,54,0
84.77917,85.02917,55,54,0
84.77917,85.02917,43,54,0
85.02917,85.21667,53,54,0
85.02917,85.21667,41,54,0
85.40417,85.4875,51,54,0
85.40417,85.4875,39,54,0
85.52917,86.32083,57,54,0
85.52917,86.32083,54,54,0
85.52917,86.32083,50,54,0
85.52917,86.425,38,54,0
86.40417,86.4875,48,54,0
86.52917,86.6125,47,54,0
86.52917,86.6125,55,54,0
86.65417,86.7375,50,54,0
86.77917,86.8625,55,54,0
86.775,86.8625,47,54,0
86.90417,86.9875,59,54,0
86.90417,86.9875,43,54,0
87.02917,87.1125,55,54,0
87.025,87.15417,36,54,0
87.15417,87.23333,51,54,0
87.27917,87.3625,48,54,0
87.27917,87.40417,39,54,0
87.40417,87.4875,43,54,0
88.02917,88.1125,50,54,0
88.02917,88.1125,48,54,0
88.15417,88.2375,53,54,0
88.15417,88.2375,44,54,0
88.27917,88.3625,56,54,0
88.27917,88.3625,41,54,0
88.40417,88.4875,60,54,0
88.40417,88.4875,38,54,0
88.52917,88.6125,55,54,0
88.52917,88.65,39,54,0
88.65417,88.7375,51,54,0
88.77917,88.85833,48,54,0
88.77917,88.9,39,54,0
88.90417,88.9875,43,54,0
89.52917,89.60833,36,54,0
89.52917,89.6125,68,64,0
89.65417,89.7375,63,64,0
89.65417,89.7375,39,54,0
89.77917,89.85833,44,54,0
89.77917,89.8625,60,64,0
89.90417,89.9875,56,64,0
89.90417,89.9875,48,54,0
90.02917,90.1125,55,74,0
90.02917,90.1125,51,54,0
90.15417,90.2375,58,74,0
90.15417,90.2375,46,54,0
90.27917,90.3625,63,74,0
90.27917,90.3625,43,54,0
90.40417,90.4875,67,74,0
90.40417,90.4875,39,54,0
90.52917,90.77917,56,84,0
90.52917,90.77917,44,84,0
90.77917,91.02917,43,84,0
90.77917,91.02917,55,84,0
91.02917,91.21667,41,84,0
91.02917,91.21667,53,84,0
91.40417,91.4875,51,84,0
91.40417,91.4875,39,84,0
91.52917,91.925,62,84,0
91.52917,91.925,56,84,0
91.52917,91.925,41,84,0
91.52917,91.925,50,84,0
91.52917,91.925,60,84,0
92.52917,92.925,86,84,0
92.52917,92.925,55,84,0
92.52917,92.925,79,84,0
92.52917,92.925,67,84,0
92.52917,92.925,62,84,0
92.52917,92.925,59,84,0
92.52917,92.925,74,84,0
92.52917,92.925,83,84,0
93.02917,93.425,84,84,0
93.02917,93.425,48,84,0
93.02917,93.425,87,84,0
93.02917,93.425,60,84,0
93.02917,93.425,55,84,0
93.02917,93.425,51,84,0
93.02917,93.425,75,84,0
93.02917,93.425,79,84,0
93.52917,93.925,43,84,0
93.52917,93.925,55,84,0
93.52917,93.925,86,84,0
93.52917,93.925,77,84,0
93.52917,93.925,89,84,0
93.52917,93.925,50,84,0
93.52917,93.925,83,84,0
93.52917,93.925,47,84,0
94.40417,94.4875,62,84,0
94.40417,94.4875,43,84,0
94.40417,94.4875,59,84,0
94.52917,94.925,63,84,0
94.52917,94.925,36,84,0
94.52917,94.925,48,84,0
94.52917,94.925,60,84,0
95.52917,95.925,79,84,0
95.52917,95.925,75,84,0
95.52917,95.925,51,84,0
95.52917,95.925,63,84,0
95.52917,95.925,67,84,0
96.02917,96.425,74,84,0
96.02917,96.425,51,84,0
96.02917,96.425,39,84,0
96.02917,96.425,82,84,0
96.02917,96.425,70,84,0
96.52917,96.925,72,84,0
96.52917,96.925,44,84,0
96.52917,96.925,80,84,0
96.52917,96.925,56,84,0
96.52917,96.925,68,84,0
96.52917,96.925,48,84,0
97.40417,97.4875,48,84,0
97.40417,97.4875,44,84,0
97.40417,97.4875,53,84,0
97.52917,97.925,47,84,0
97.52917,97.925,55,84,0
97.52917,97.925,43,84,0
98.52917,98.92083,60,84,0
98.52917,98.925,72,84,0
98.52917,98.925,82,84,0
98.52917,98.925,67,84,0
98.52917,98.925,79,84,0
98.52917,98.925,64,84,0
98.52917,98.925,76,84,0
98.52917,98.925,88,84,0
99.025,99.42083,53,84,0
99.02917,99.425,65,84,0
99.02917,99.425,60,84,0
99.02917,99.425,89,84,0
99.02917,99.425,80,84,0
99.02917,99.425,77,84,0
99.02917,99.425,56,84,0
99.02917,99.425,90,84,0
99.52917,99.92083,82,84,0
99.52917,99.925,93,84,0
99.52917,99.925,48,84,0
99.52917,99.925,79,84,0
99.52917,99.925,91,84,0
99.52917,99.925,88,84,0
99.52917,99.925,52,84,0
99.52917,99.925,60,84,0
99.52917,99.925,55,84,0
100.40417,100.4875,52,84,0
100.40417,100.4875,36,84,0
100.40417,100.4875,60,84,0
100.40417,100.4875,48,84,0
100.525,100.92083,40,84,0
100.52917,100.925,48,84,0
100.52917,100.925,55,84,0
100.52917,100.925,58,84,0
101.02917,101.27917,68,84,0
101.025,101.27917,56,84,0
101.02917,101.27917,44,84,0
101.02917,101.27917,80,84,0
101.27917,101.52917,79,84,0
101.27917,101.52917,43,84,0
101.27917,101.52917,55,84,0
101.27917,101.52917,67,84,0
101.52917,101.77917,77,84,0
101.52917,101.77917,41,84,0
101.52917,101.77917,53,84,0
101.52917,101.77917,65,84,0
101.77917,102.02917,63,84,0
101.77917,102.02917,51,84,0
101.77917,102.02917,39,84,0
101.77917,102.02917,75,84,0
102.02917,102.21667,50,84,0
102.02917,102.21667,38,84,0
102.02917,102.21667,62,84,0
102.02917,102.21667,74,84,0
102.40417,102.48333,38,84,0
102.40417,102.4875,74,84,0
102.40417,102.4875,78,84,0
102.40417,102.4875,86,84,0
102.40417,102.4875,81,84,0
102.52917,102.925,55,84,0
102.52917,102.925,74,84,0
102.52917,102.925,79,84,0
102.525,102.925,43,84,0
102.52917,102.925,83,84,0
102.52917,102.925,86,84,0
103.02917,103.1125,47,84,0
103.02917,103.1125,80,84,0
103.15417,103.2375,74,84,0
103.15417,103.2375,41,84,0
103.27917,103.3625,50,84,0
103.27917,103.3625,65,84,0
103.40417,103.4875,74,84,0
103.40417,103.4875,41,84,0
103.52917,103.6125,79,84,0
103.52917,103.6125,36,84,0
103.65417,103.7375,43,84,0
103.65417,103.7375,72,84,0
103.77917,103.8625,63,84,0
103.775,103.8625,51,84,0
103.90417,103.9875,72,84,0
103.90417,103.9875,43,84,0
104.02917,104.1125,77,84,0
104.02917,104.1125,38,84,0
104.15417,104.23333,44,84,0
104.15417,104.2375,71,84,0
104.27917,104.3625,62,84,0
104.27917,104.3625,53,84,0
104.40417,104.48333,44,84,0
104.40417,104.4875,71,84,0
104.52917,104.6125,75,84,0
104.52917,104.6125,39,84,0
104.65417,104.73333,48,84,0
104.65417,104.7375,67,84,0
104.77917,104.8625,60,84,0
104.77917,104.8625,55,84,0
104.90417,104.9875,67,84,0
104.90417,104.9875,48,84,0
105.02917,105.1125,74,84,0
105.02917,105.1125,41,84,0
105.15417,105.2375,68,84,0
105.15417,105.2375,48,84,0
105.27917,105.3625,60,84,0
105.27917,105.3625,56,84,0
105.40417,105.4875,68,84,0
105.40417,105.4875,48,84,0
105.52917,105.6125,79,84,0
105.52917,105.6125,43,84,0
105.65417,105.7375,72,84,0
105.65,105.7375,51,84,0
105.77917,105.8625,63,84,0
105.77917,105.8625,60,84,0
105.90417,105.9875,72,84,0
105.90417,105.9875,51,84,0
106.02917,106.1125,77,84,0
106.02917,106.1125,44,84,0
106.15417,106.2375,71,84,0
106.15,106.2375,50,84,0
106.27917,106.35833,59,84,0
106.27917,106.3625,62,84,0
106.40417,106.4875,71,84,0
106.40417,106.4875,50,84,0
106.52917,106.60833,45,84,0
106.52917,106.6125,75,84,0
106.65417,106.7375,67,84,0
106.65417,106.7375,51,84,0
106.77917,106.8625,60,84,0
106.77917,106.8625,57,84,0
106.90417,106.9875,67,84,0
106.90417,106.9875,51,84,0
107.02917,107.10833,46,84,0
107.02917,107.1125,74,84,0
107.15417,107.2375,65,84,0
107.15417,107.2375,50,84,0
107.27917,107.35833,58,84,0
107.27917,107.3625,62,84,0
107.40417,107.4875,65,84,0
107.40417,107.4875,50,84,0
107.52917,107.60833,48,84,0
107.52917,107.6125,72,84,0
107.65417,107.7375,66,84,0
107.65417,107.7375,51,84,0
107.77917,107.8625,60,84,0
107.77917,107.8625,57,84,0
107.90417,107.9875,66,84,0
107.90417,107.9875,51,84,0
108.02917,108.425,77,84,0
108.02917,108.425,55,84,0
108.02917,108.425,36,84,0
108.02917,108.425,50,84,0
108.02917,108.425,48,84,0
108.02917,108.425,43,84,0
108.02917,108.425,71,84,0
108.02917,108.425,67,84,0
108.02917,108.425,79,84,0
108.52917,108.6125,41,54,0
108.65417,108.7375,44,54,0
108.77917,108.8625,47,54,0
108.52917,108.90417,82,84,0
108.52917,108.925,76,84,0
108.52917,108.925,84,84,0
108.52917,108.925,72,84,0
108.90417,108.9875,48,54,0
109.025,109.1125,39,54,0
109.02917,109.21667,60,54,0
109.02917,109.21667,72,54,0
109.02917,109.21667,68,54,0
109.15,109.2375,43,54,0
109.27917,109.3625,46,54,0
109.4,109.4875,48,54,0
109.52917,109.6125,39,54,0
109.52917,109.71667,60,54,0
109.52917,109.71667,55,54,0
109.65,109.7375,43,54,0
109.77917,109.85833,46,54,0
109.90417,109.9875,48,54,0
110.02917,110.10833,38,54,0
110.15417,110.2375,41,54,0
110.02917,110.27917,80,54,0
110.27917,110.35833,44,54,0
110.27917,110.4625,77,54,0
110.40417,110.4875,48,54,0
110.52917,110.6125,39,54,0
110.65417,110.7375,43,54,0
110.52917,110.77917,79,54,0
110.77917,110.8625,48,54,0
110.77917,110.96667,75,54,0
110.90417,110.9875,51,54,0
111.02917,111.1125,43,54,0
111.15417,111.2375,47,54,0
111.02917,111.27917,77,54,0
111.27917,111.3625,50,54,0
111.27917,111.46667,74,54,0
111.40417,111.4875,55,54,0
111.52917,111.6125,45,54,0
111.65417,111.7375,48,54,0
111.52917,111.77917,75,54,0
111.77917,111.8625,51,54,0
111.77917,111.96667,72,54,0
111.90417,111.98333,55,54,0
112.025,112.1125,47,54,0
112.15417,112.23333,50,54,0
112.02917,112.27917,74,54,0
112.27917,112.3625,53,54,0
112.27917,112.46667,71,54,0
112.40417,112.48333,55,54,0
112.525,112.6125,48,54,0
112.65417,112.7375,51,54,0
112.52917,112.775,67,54,0
112.77917,112.8625,55,54,0
112.77917,112.96667,63,54,0
112.90417,112.9875,57,54,0
113.02917,113.21667,43,54,0
113.02917,113.27917,65,54,0
113.27917,113.46667,62,54,0
113.52917,113.65417,36,54,0
113.65417,113.77917,39,54,0
113.77917,113.90417,43,54,0
113.90417,113.9875,45,54,0
114.02917,114.27917,63,54,0
114.27917,114.4625,60,54,0
114.52917,114.65,43,54,0
114.65417,114.77917,47,54,0
114.77917,114.90417,50,54,0
114.90417,114.9875,55,54,0
115.02917,115.27917,62,54,0
115.27917,115.46667,59,54,0
116.02917,116.27917,55,84,0
116.02917,116.27917,51,84,0
116.02917,116.42083,36,84,0
116.02917,116.425,48,84,0
116.27917,116.52917,60,84,0
116.52917,116.77917,53,84,0
116.52917,116.77917,62,84,0
116.52917,116.77917,58,84,0
116.52917,116.925,46,84,0
116.77917,117.025,65,84,0
117.02917,117.27917,67,84,0
117.02917,117.425,39,84,0
117.27917,117.46667,70,84,0
117.52917,117.925,65,84,0
117.525,117.925,37,84,0
117.52917,117.925,70,84,0
117.52917,117.925,58,84,0
118.02917,118.925,67,84,0
118.02917,118.925,72,84,0
118.02917,118.925,36,84,0
118.02917,118.925,64,84,0
118.02917,118.925,60,84,0
119.02917,119.425,56,84,0
119.02917,119.425,48,84,0
119.02917,119.425,41,84,0
119.02917,119.425,50,84,0
119.02917,119.82083,60,84,0
119.02917,119.82083,74,84,0
119.02917,119.82083,72,84,0
119.02917,119.82083,62,84,0
119.52917,119.925,50,84,0
119.52917,119.925,55,84,0
119.52917,119.925,48,84,0
119.52917,119.925,43,84,0
120.02917,120.425,53,84,0
120.02917,120.425,44,84,0
120.02917,120.425,48,84,0
120.02917,120.425,50,84,0
120.02917,120.82083,60,84,0
120.02917,120.82083,74,84,0
120.02917,120.82083,72,84,0
120.02917,120.82083,62,84,0
120.52917,120.925,43,84,0
120.52917,120.925,55,84,0
120.52917,120.925,50,84,0
120.52917,120.925,48,84,0
121.02917,121.52917,55,84,0
121.02917,121.52917,63,84,0
121.025,121.52917,45,84,0
121.52917,121.92083,47,84,0
121.52917,121.925,43,84,0
121.52917,121.925,53,84,0
121.52917,121.925,62,84,0
122.02917,122.27917,51,84,0
122.02917,122.27917,55,84,0
122.02917,122.425,48,84,0
122.025,122.425,36,84,0
122.27917,122.525,60,84,0
122.52917,122.77917,53,84,0
122.52917,122.77917,62,84,0
122.52917,122.77917,58,84,0
122.52917,122.925,46,84,0
122.77917,123.02917,65,84,0
123.02917,123.27917,58,84,0
123.02917,123.27917,67,84,0
123.02917,123.27917,63,84,0
123.02917,123.425,39,84,0
123.27917,123.4625,70,84,0
123.52917,123.925,65,84,0
123.52917,123.925,37,84,0
123.52917,123.925,58,84,0
123.52917,123.925,70,84,0
124.02917,124.425,36,84,0
124.02917,124.65417,67,84,0
124.02917,124.65417,72,84,0
124.02917,124.65417,64,84,0
124.02917,124.65417,60,84,0
124.69583,124.816666,68,84,0
124.69583,124.82083,60,84,0
124.69583,124.82083,65,84,0
124.52917,124.925,48,84,0
124.52917,124.925,41,84,0
124.52917,124.925,44,84,0
124.52917,124.925,53,84,0
124.8625,124.9875,72,84,0
125.02917,125.425,43,84,0
125.02917,125.425,67,84,0
125.02917,125.425,39,84,0
125.02917,125.425,72,84,0
125.02917,125.425,51,84,0
125.02917,125.425,48,84,0
125.02917,125.425,60,84,0
125.52917,125.92083,38,84,0
125.52917,125.925,42,84,0
125.52917,125.925,50,84,0
125.52917,125.925,45,84,0
126.02917,126.425,50,84,0
126.02917,126.425,54,84,0
125.52917,126.425,62,84,0
125.52917,126.425,74,84,0
125.52917,126.425,69,84,0
126.02917,126.425,60,84,0
125.52917,126.425,66,84,0
126.52917,126.65,91,84,0
126.65417,126.77917,89,84,0
126.77917,126.9,86,84,0
126.52917,126.925,77,84,0
126.52917,126.925,59,84,0
126.52917,126.925,53,84,0
126.52917,126.925,50,84,0
126.52917,126.925,43,84,0
126.52917,126.925,79,84,0
126.90417,126.9875,83,84,0
127.02917,127.42083,53,84,0
127.02917,127.425,67,84,0
127.02917,127.425,50,84,0
127.02917,127.425,65,84,0
127.02917,127.425,60,84,0
127.02917,127.425,45,84,0
127.02917,127.6125,79,84,0
127.65417,127.77917,77,84,0
127.77917,127.90417,74,84,0
127.52917,127.925,50,84,0
127.52917,127.925,55,84,0
127.52917,127.925,62,84,0
127.52917,127.925,47,84,0
127.52917,127.925,53,84,0
127.90417,128.025,71,84,0
128.02916,128.425,65,84,0
128.02916,128.425,55,84,0
128.02916,128.425,53,84,0
128.02916,128.425,48,84,0
128.02916,128.425,67,84,0
128.02916,128.425,60,84,0
128.52916,129.02916,65,84,0
128.52916,129.02916,53,84,0
128.52916,129.02916,38,84,0
128.52916,129.02916,50,84,0
128.52916,129.02916,59,84,0
129.02916,129.425,63,84,0
129.02916,129.425,60,84,0
129.02916,129.425,36,84,0
129.02916,129.425,48,84,0
129.02916,129.425,51,84,0
129.52916,129.92084,41,84,0
129.52916,129.925,56,84,0
129.52916,129.925,50,84,0
129.52916,129.925,48,84,0
130.02916,130.425,55,84,0
129.52916,130.425,74,84,0
130.02916,130.425,50,84,0
129.52916,130.425,60,84,0
129.52916,130.425,72,84,0
129.52916,130.425,62,84,0
130.02916,130.425,48,84,0
130.02916,130.425,43,84,0
130.52916,130.925,53,84,0
130.52916,130.925,44,84,0
130.52916,130.925,48,84,0
130.52916,130.925,50,84,0
131.02916,131.21666,55,84,0
131.02916,131.21666,50,84,0
131.02916,131.21666,48,84,0
131.02916,131.21666,43,84,0
130.52916,131.425,72,84,0
130.52916,131.425,74,84,0
130.52916,131.425,60,84,0
130.52916,131.425,62,84,0
131.27916,131.52916,43,84,0
131.52916,131.77916,63,84,0
131.52916,131.77916,55,84,0
131.77916,131.9625,53,84,0
131.77916,131.96666,62,84,0
131.52916,132.02916,45,84,0
132.02916,132.27916,55,74,0
132.02916,132.27916,51,74,0
132.02916,132.425,47,84,0
132.02916,132.425,43,84,0
132.27916,132.4625,53,64,0
132.27916,132.46666,50,64,0
132.525,132.925,36,54,0
133.02916,133.425,51,54,0
133.025,133.425,48,54,0
134.02916,134.425,36,54,0
134.52916,134.925,48,54,0
134.52916,134.925,51,54,0
135.52916,136.31667,36,54,0
136.02916,136.82083,63,54,0
136.02916,136.82083,51,54,0
136.02916,136.82083,56,54,0
136.52916,137.32083,41,54,0
137.02916,137.81667,56,54,0
137.02916,137.82083,49,54,0
137.02916,137.82083,61,54,0
137.52916,138.32083,39,54,0
138.025,138.82083,51,54,0
138.02916,138.82083,60,54,0
138.02916,138.82083,56,54,0
138.52916,139.27916,37,54,0
139.27916,139.52916,36,54,0
139.52916,139.77916,39,54,0
139.77916,140.02916,37,54,0
139.02916,140.21666,56,54,0
139.02916,140.21666,58,54,0
139.02916,140.21666,53,54,0
140.02916,140.42084,46,54,0
140.52916,141.7125,56,54,0
140.52916,141.71666,53,54,0
140.52916,141.71666,61,54,0
141.525,142.27916,49,44,0
142.27916,142.52916,48,44,0
142.52916,142.77916,51,44,0
142.77916,142.96666,49,44,0
142.02916,143.21666,68,44,0
142.02916,143.21666,70,44,0
142.02916,143.21666,65,44,0
143.02916,143.425,46,44,0
143.52916,144.32083,73,44,0
143.52916,144.32083,65,44,0
143.52916,144.32083,68,44,0
144.52916,145.02916,68,44,0
144.52916,145.02916,72,44,0
144.52916,145.27916,39,44,0
145.27916,145.525,38,44,0
145.02916,145.52916,77,44,0
145.52916,145.77916,41,44,0
145.52916,146.02916,75,44,0
145.52916,146.02916,69,44,0
145.52916,146.02916,68,44,0
145.77916,146.425,39,44,0
146.02916,146.52916,70,44,0
146.02916,146.77916,73,44,0
146.52916,147.025,65,44,0
146.77916,147.02916,72,44,0
147.02916,147.27916,75,44,0
147.27916,147.46666,73,44,0
147.02916,147.525,67,44,0
147.52916,148.02916,68,44,0
147.52916,148.02916,72,44,0
147.52916,148.27916,51,44,0
148.27916,148.52916,50,44,0
148.02916,148.52916,68,44,0
148.52916,148.77916,53,44,0
148.52916,149.02916,69,44,0
148.02916,149.02916,60,44,0
148.77916,149.42084,51,44,0
149.02916,149.52916,70,44,0
149.02916,149.52916,61,44,0
149.52916,150.02916,56,44,0
149.52916,150.02916,65,44,0
150.02916,150.425,67,44,0
150.02916,150.425,58,44,0
150.52916,150.925,68,54,0
150.52916,150.925,59,54,0
150.52916,151.32083,44,54,0
151.02916,152.02916,52,54,0
151.02916,152.02916,64,54,0
151.52916,152.32083,37,54,0
151.52916,152.32083,49,54,0
152.02916,153.02916,57,54,0
152.02916,153.02916,64,54,0
152.52916,153.31667,47,54,0
153.02916,154.02916,64,54,0
153.02916,154.02916,56,54,0
153.525,154.275,45,54,0
154.27916,154.525,44,54,0
154.52916,154.775,47,54,0
154.77916,154.96666,45,54,0
154.02916,155.02916,61,54,0
154.02916,155.02916,64,54,0
154.02916,155.02916,54,54,0
155.02916,155.425,42,54,0
155.52916,156.32083,73,54,0
155.52916,156.32083,69,54,0
155.525,156.32083,64,54,0
156.52916,157.1125,58,54,0
157.27916,157.52916,56,54,0
157.52916,157.77916,59,54,0
157.02916,157.925,61,44,0
157.02916,157.925,66,44,0
157.02916,157.925,64,44,0
157.77916,157.96666,58,54,0
158.025,158.425,54,54,0
158.52916,159.925,66,44,0
158.52916,159.925,63,44,0
158.52916,159.925,59,44,0
159.52916,160.27916,45,54,0
160.27916,160.52916,44,54,0
160.52916,160.77916,47,54,0
160.77916,161.02916,45,54,0
160.02916,161.21666,64,44,0
160.02916,161.21666,59,44,0
160.02916,161.21666,71,44,0
161.02916,162.02916,44,54,0
161.52916,162.7125,64,44,0
161.52916,162.71666,73,44,0
161.52916,162.71666,69,44,0
162.02916,163.275,56,54,0
163.27916,163.52916,54,54,0
163.52916,163.77916,57,54,0
163.77916,163.96666,56,54,0
163.02916,164.21666,69,44,0
163.025,164.21666,75,44,0
164.02916,165.02916,54,54,0
164.52916,165.71666,75,44,0
164.52916,165.71666,80,44,0
164.52916,165.71666,71,44,0
165.02916,166.27916,66,54,0
166.27916,166.52916,64,54,0
166.52916,166.77916,68,54,0
166.02916,166.81667,73,44,0
166.02916,166.82083,69,44,0
166.02916,166.82083,78,44,0
166.77916,166.96666,66,54,0
167.02916,167.77916,64,54,0
167.77916,168.02916,63,54,0
168.02916,168.27916,66,54,0
168.27916,168.46666,64,54,0
168.52916,168.925,63,54,0
168.77916,169.175,73,44,0
168.77916,169.175,66,44,0
169.02916,169.425,45,54,0
169.52916,169.925,51,54,0
169.77916,170.175,57,44,0
169.77916,170.175,61,44,0
170.02916,170.42084,42,54,0
171.52916,171.925,63,44,0
171.77916,172.175,72,44,0
171.77916,172.175,66,44,0
172.02916,172.425,44,44,0
172.52916,172.925,51,44,0
172.77916,173.175,60,44,0
172.77916,173.175,54,44,0
173.02916,173.425,44,44,0
174.52916,174.92084,37,84,0
174.52916,174.925,49,84,0
174.77916,175.02916,56,84,0
174.77916,175.02916,68,84,0
175.02916,175.21666,58,84,0
175.02916,175.21666,70,84,0
175.02916,175.42084,42,84,0
175.02916,175.425,54,84,0
175.27916,175.52916,60,84,0
175.27916,175.52916,72,84,0
175.52916,175.77916,68,84,0
175.52916,175.77916,56,84,0
175.52916,175.925,52,84,0
175.52916,175.925,40,84,0
175.77916,175.96666,61,84,0
175.77916,175.96666,73,84,0
175.77916,175.96666,68,84,0
176.02916,176.21666,51,84,0
176.02916,176.21666,39,84,0
176.19167,176.3625,72,84,0
176.3625,176.52916,66,84,0
176.3625,176.52916,78,84,0
176.27916,176.96666,51,84,0
176.275,176.96666,54,84,0
176.27916,176.96666,60,84,0
177.02916,177.15,44,84,0
176.52916,177.27916,69,84,0
176.52916,177.27916,81,84,0
177.27916,177.40416,68,84,0
177.27916,177.40416,71,84,0
177.27916,177.40416,54,84,0
177.27916,177.40416,51,84,0
177.27916,177.40416,60,84,0
177.27916,177.40416,75,84,0
177.27916,177.40416,80,84,0
177.69583,177.8625,77,84,0
177.69167,177.8625,71,84,0
177.69583,177.8625,65,84,0
177.52916,177.925,49,84,0
177.52916,177.925,37,84,0
177.8625,177.9875,68,84,0
177.8625,177.9875,80,84,0
177.8625,177.9875,71,84,0
178.02916,178.10834,61,84,0
178.02916,178.1125,73,84,0
178.19583,178.3625,69,84,0
178.19583,178.3625,63,84,0
178.19583,178.3625,75,84,0
178.02916,178.425,54,84,0
178.02916,178.425,42,84,0
178.3625,178.4875,78,84,0
178.3625,178.4875,66,84,0
178.3625,178.4875,69,84,0
178.52916,178.6125,56,84,0
178.52916,178.6125,68,84,0
178.69583,178.8625,73,84,0
178.69583,178.8625,61,84,0
178.69583,178.8625,68,84,0
178.52916,178.925,52,84,0
178.52916,178.925,40,84,0
178.8625,179.02916,64,84,0
178.8625,179.02916,68,84,0
178.8625,179.02916,76,84,0
179.02916,179.21666,51,84,0
179.02916,179.21666,39,84,0
179.19583,179.3625,79,84,0
179.19583,179.3625,67,84,0
179.3625,179.52916,73,84,0
179.3625,179.52916,85,84,0
179.27916,179.96666,58,84,0
179.27916,179.96666,61,84,0
179.27916,179.96666,51,84,0
180.02916,180.15416,44,84,0
179.52916,180.21666,88,84,0
179.52916,180.21666,76,84,0
180.27916,180.40416,78,84,0
180.27916,180.40416,72,84,0
180.27916,180.40416,56,84,0
180.27916,180.40416,60,84,0
180.27916,180.40416,51,84,0
180.27916,180.40416,84,84,0
180.27916,180.40416,75,84,0
180.52916,180.77916,76,84,0
180.52916,180.77916,49,84,0
180.52916,180.77916,61,84,0
180.52916,180.77916,52,84,0
180.52916,180.77916,73,84,0
180.52916,180.77916,85,84,0
180.77916,181.025,56,84,0
180.77916,181.02916,87,84,0
180.77916,181.02916,63,84,0
180.77916,181.02916,75,84,0
180.77916,181.02916,80,84,0
181.02916,181.27916,85,84,0
181.02916,181.27916,76,84,0
181.02916,181.27916,64,84,0
181.02916,181.27916,61,84,0
181.02916,181.27916,88,84,0
181.40416,181.48334,45,84,0
181.40416,181.4875,61,84,0
181.40416,181.4875,73,84,0
181.52916,181.6125,72,84,0
181.52916,181.6125,60,84,0
181.65416,181.7375,66,84,0
181.65,181.7375,69,84,0
181.77916,181.8625,68,84,0
181.77916,181.8625,64,84,0
181.52916,181.90416,44,84,0
181.90416,181.9875,66,84,0
181.90416,181.9875,63,84,0
182.02916,182.27916,52,84,0
182.02916,182.27916,61,84,0
182.02916,182.27916,73,84,0
182.02916,182.27916,49,84,0
182.02916,182.27916,76,84,0
182.02916,182.27916,64,84,0
182.27916,182.52916,68,84,0
182.27916,182.52916,52,84,0
182.27916,182.52916,80,84,0
182.27916,182.52916,61,84,0
182.27916,182.52916,64,84,0
182.52916,182.71666,66,84,0
182.52916,182.71666,73,84,0
182.52916,182.71666,78,84,0
182.52916,182.71666,57,84,0
182.52916,182.71666,61,84,0
182.90416,182.9875,45,84,0
182.90416,182.9875,61,84,0
182.90416,182.9875,49,84,0
183.02916,183.1125,60,84,0
183.02916,183.1125,48,84,0
183.15416,183.2375,54,84,0
183.15416,183.2375,57,84,0
183.27916,183.3625,52,84,0
183.27916,183.3625,56,84,0
183.02916,183.42084,44,74,0
183.40416,183.4875,54,84,0
183.40416,183.4875,51,84,0
183.52916,183.77916,80,84,0
183.52916,183.77916,68,84,0
183.52916,183.77916,40,84,0
183.52916,183.77916,52,84,0
183.52916,183.77916,76,84,0
183.77916,184.02916,59,84,0
183.77916,184.02916,78,84,0
183.77916,184.02916,69,84,0
183.77916,184.02916,81,84,0
184.02916,184.21666,83,84,0
184.02916,184.21666,56,84,0
184.02916,184.21666,52,84,0
184.02916,184.21666,80,84,0
184.02916,184.21666,64,84,0
184.02916,184.21666,71,84,0
184.40416,184.4875,76,84,0
184.40416,184.4875,73,84,0
184.40416,184.4875,61,84,0
184.4,184.4875,49,84,0
184.40416,184.4875,64,84,0
184.40416,184.4875,52,84,0
184.52916,184.925,78,84,0
184.52916,184.925,59,84,0
184.52916,184.925,75,84,0
184.52916,184.925,51,84,0
184.52916,184.925,47,84,0
184.52916,184.925,66,84,0
185.02916,185.27916,45,84,0
185.02916,185.27916,57,84,0
185.02916,185.27916,69,84,0
185.27916,185.52916,56,84,0
185.27916,185.52916,44,84,0
185.27916,185.52916,68,84,0
185.02916,185.6125,37,74,0
185.52916,185.71666,66,84,0
185.52916,185.71666,42,84,0
185.52916,185.71666,54,84,0
185.90416,185.9875,73,84,0
185.90416,185.9875,40,84,0
185.90416,185.9875,85,84,0
186.02916,186.925,59,84,0
186.02916,186.925,51,84,0
186.02916,186.925,63,84,0
186.02916,186.925,39,84,0
186.02916,186.925,61,84,0
186.02916,186.925,54,84,0
187.02916,187.27916,72,84,0
187.02916,187.27916,75,84,0
187.02916,187.27916,80,84,0
187.02916,187.27916,68,84,0
187.27916,187.52916,66,84,0
187.27916,187.52916,78,84,0
187.52916,187.71666,76,84,0
187.52916,187.71666,64,84,0
187.02916,187.82083,51,84,0
187.02916,187.82083,48,84,0
187.02916,187.82083,42,84,0
187.02916,187.82083,54,84,0
187.90416,187.9875,63,84,0
187.90416,187.9875,75,84,0
188.02916,188.425,73,84,0
188.025,188.425,49,84,0
188.02916,188.425,61,84,0
188.02916,188.425,53,84,0
188.02916,188.425,41,84,0
188.02916,188.425,47,84,0
188.02916,188.425,68,84,0
188.02916,188.425,71,84,0
188.52916,188.77916,85,84,0
188.52916,188.77916,73,84,0
188.52916,188.77916,81,84,0
188.77916,189.02916,83,84,0
188.77916,189.02916,80,84,0
188.77916,189.02916,71,84,0
188.52916,189.1125,61,84,0
188.52916,189.1125,59,84,0
188.52916,189.1125,52,84,0
188.52916,189.1125,65,84,0
189.02916,189.21666,73,84,0
189.02916,189.21666,81,84,0
189.02916,189.21666,69,84,0
189.40416,189.48334,74,84,0
189.40416,189.4875,71,84,0
189.40416,189.4875,80,84,0
189.27916,189.52916,40,84,0
189.27916,189.52916,52,84,0
189.52916,189.775,54,84,0
189.52916,189.77916,69,84,0
189.52916,189.77916,42,84,0
189.52916,189.77916,73,84,0
189.52916,189.77916,78,84,0
189.77916,190.02916,71,84,0
189.77916,190.02916,76,84,0
189.77916,190.02916,56,84,0
189.77916,190.02916,44,84,0
189.77916,190.02916,68,84,0
190.02916,190.21666,74,84,0
190.02916,190.21666,66,84,0
190.02916,190.21666,45,84,0
190.02916,190.21666,57,84,0
190.02916,190.21666,69,84,0
190.40416,190.4875,73,84,0
190.40416,190.4875,68,84,0
190.40416,190.4875,64,84,0
190.27916,190.525,45,84,0
190.52916,190.77916,66,84,0
190.52916,190.77916,47,84,0
190.52916,190.77916,62,84,0
190.52916,190.77916,71,84,0
190.77916,191.02916,64,84,0
190.77916,191.02916,49,84,0
190.77916,191.02916,61,84,0
190.77916,191.02916,69,84,0
191.02916,191.21666,59,84,0
191.02916,191.21666,62,84,0
191.02916,191.21666,38,84,0
191.02916,191.21666,50,84,0
191.02916,191.21666,68,84,0
191.27916,191.52916,38,84,0
191.4,191.59166,57,84,0
191.40416,191.59166,66,84,0
191.40416,191.59166,61,84,0
191.52916,191.77916,40,84,0
191.65416,191.84166,56,84,0
191.65416,191.84166,59,84,0
191.65416,191.84166,64,84,0
191.77916,192.02916,42,84,0
191.90416,192.09166,54,84,0
191.90416,192.09166,57,84,0
191.90416,192.09166,62,84,0
192.02916,192.275,44,84,0
192.15416,192.34166,61,84,0
192.15416,192.34166,52,84,0
192.15416,192.34166,56,84,0
192.27916,192.46666,45,84,0
192.40416,192.4875,54,84,0
192.40416,192.4875,59,84,0
192.40416,192.4875,50,84,0
192.52916,192.925,61,84,0
192.52916,192.925,44,84,0
192.52916,192.925,49,84,0
192.52916,192.925,53,84,0
193.02916,193.52916,61,84,0
193.02916,193.52916,49,84,0
193.02916,193.82083,56,84,0
193.02916,193.82083,51,84,0
193.02916,193.82083,44,84,0
193.02916,193.82083,63,84,0
193.52916,193.925,60,84,0
193.52916,194.02916,48,84,0
194.02916,194.425,69,84,0
194.02916,194.425,37,84,0
194.02916,194.425,78,84,0
194.02916,194.425,49,84,0
194.02916,194.425,42,84,0
194.02916,194.425,45,84,0
194.02916,194.425,66,84,0
194.02916,194.425,73,84,0
194.52916,195.025,54,84,0
194.52916,195.02916,66,84,0
194.52916,195.02916,78,84,0
194.52916,195.32083,61,84,0
194.52916,195.32083,49,84,0
194.52916,195.32083,68,84,0
194.52916,195.32083,56,84,0
194.52916,195.32083,73,84,0
195.02916,195.42084,53,84,0
195.02916,195.52916,65,84,0
195.02916,195.52916,77,84,0
195.52916,195.92084,42,84,0
195.52916,195.925,54,84,0
195.52916,195.925,45,84,0
195.52916,195.925,78,84,0
195.52916,195.925,49,84,0
195.52916,195.925,73,84,0
195.52916,195.925,66,84,0
195.52916,195.925,69,84,0
196.02916,196.425,73,84,0
196.02916,196.425,49,84,0
196.02916,196.425,85,84,0
196.02916,196.425,61,84,0
196.52916,196.925,49,84,0
196.52916,196.925,73,84,0
196.52916,196.925,59,84,0
196.52916,196.925,83,84,0
196.52916,196.925,71,84,0
196.52916,196.925,47,84,0
197.02916,197.52916,81,84,0
197.02916,197.52916,54,84,0
197.02916,197.52916,57,84,0
197.02916,197.52916,45,84,0
197.02916,197.52916,69,84,0
197.02916,197.52916,78,84,0
197.52916,197.71666,76,84,0
197.52916,197.71666,52,84,0
197.77916,198.02916,67,84,0
197.77916,198.02916,41,84,0
197.77916,198.02916,53,84,0
197.77916,198.02916,51,84,0
197.77916,198.02916,74,84,0
197.77916,198.02916,79,84,0
198.02916,198.21666,71,84,0
198.02916,198.21666,83,84,0
198.27916,198.52916,69,84,0
198.27916,198.52916,49,84,0
198.27916,198.52916,73,84,0
198.27916,198.52916,42,84,0
198.27916,198.52916,81,84,0
198.27916,198.52916,54,84,0
198.52916,198.7125,45,84,0
198.52916,198.71666,49,84,0
198.52916,198.71666,78,84,0
198.52916,198.71666,57,84,0
198.52916,198.71666,66,84,0
198.52916,198.71666,73,84,0
198.77916,199.02916,47,84,0
198.77916,199.02916,56,84,0
198.77916,199.02916,64,84,0
198.77916,199.02916,44,84,0
198.77916,199.02916,71,84,0
198.77916,199.02916,76,84,0
199.02916,199.21666,68,84,0
199.02916,199.21666,40,84,0
199.02916,199.21666,80,84,0
199.02916,199.21666,52,84,0
199.27916,199.52916,47,84,0
199.27916,199.52916,56,84,0
199.27916,199.52916,71,84,0
199.275,199.52916,44,84,0
199.27916,199.52916,64,84,0
199.27916,199.52916,76,84,0
199.52916,199.71666,50,84,0
199.52916,199.71666,78,84,0
199.52916,199.71666,38,84,0
199.52916,199.71666,66,84,0
199.77916,199.96666,73,84,0
199.77916,199.96666,57,84,0
199.77916,199.96666,45,84,0
199.77916,199.96666,61,84,0
199.77916,199.96666,69,84,0
200.02916,201.025,73,84,0
200.02916,201.02916,64,84,0
200.02916,201.02916,45,84,0
200.02916,201.02916,76,84,0
201.02916,201.425,66,84,0
201.02916,201.425,74,84,0
201.02916,201.425,47,84,0
201.02916,201.425,62,84,0
201.52916,201.925,65,84,0
201.52916,201.925,73,84,0
201.52916,201.925,37,84,0
201.52916,201.925,61,84,0
201.52916,201.925,49,84,0
202.02916,203.21666,47,84,0
202.02916,203.21666,52,84,0
202.02916,203.21666,44,84,0
203.52916,204.32083,54,84,0
203.52916,204.32083,42,84,0
203.52916,204.32083,45,84,0
203.52916,204.32083,50,84,0
204.57083,204.7375,41,54,0
204.7375,204.90416,37,54,0
204.57083,204.9625,56,54,0
204.57083,204.96666,44,54,0
204.57083,204.96666,49,54,0
204.90416,205.07083,41,54,0
205.07083,205.32083,80,54,0
205.32083,205.57083,77,54,0
205.57083,205.82083,73,54,0
205.07083,205.8625,37,54,0
205.07083,205.8625,41,54,0
205.82083,206.00833,68,54,0
206.07083,206.23334,41,54,0
206.2375,206.40416,47,54,0
206.40416,206.56667,53,54,0
206.57083,206.82083,77,54,0
206.82083,207.07083,73,54,0
207.07083,207.32083,68,54,0
206.57083,207.3625,53,54,0
206.57083,207.3625,47,54,0
206.57083,207.3625,41,54,0
207.32083,207.50833,65,54,0
207.57083,207.7375,41,54,0
207.7375,207.90416,36,54,0
207.90416,208.07083,41,54,0
208.07083,208.2375,72,54,0
208.07083,208.2375,48,54,0
208.2375,208.4,56,54,0
208.2375,208.40416,68,54,0
208.40416,208.57083,65,54,0
208.40416,208.57083,53,54,0
208.57083,208.7375,60,54,0
208.57083,208.7375,48,54,0
208.7375,208.90416,56,54,0
208.7375,208.90416,44,54,0
208.90416,209.025,53,54,0
208.90416,209.07083,41,54,0
209.07083,210.46666,44,54,0
209.07083,210.46666,49,54,0
209.07083,210.46666,41,54,0
210.57083,210.7375,46,54,0
210.7375,210.90416,41,54,0
210.90416,211.07083,46,54,0
211.07083,211.2375,53,54,0
210.57083,211.2375,77,54,0
210.57083,211.2375,65,54,0
210.57083,211.2375,73,54,0
211.2375,211.40416,73,54,0
211.2375,211.40416,61,54,0
211.40416,211.57083,70,54,0
211.40416,211.57083,58,54,0
211.57083,211.73334,53,54,0
211.57083,211.7375,65,54,0
211.7375,211.90416,61,54,0
211.7375,211.90416,49,54,0
211.90416,212.02916,58,54,0
211.90416,212.02916,46,54,0
212.07083,213.25833,46,54,0
212.07083,213.46666,54,54,0
212.07083,213.46666,49,54,0
213.57083,213.7375,36,54,0
213.7375,213.90416,43,54,0
213.57083,213.96666,67,54,0
213.57083,213.96666,58,54,0
213.57083,213.96666,55,54,0
213.90416,214.07083,48,54,0
214.07083,214.23334,52,54,0
214.2375,214.40416,55,54,0
214.40416,214.56667,58,54,0
214.57083,214.96666,58,54,0
214.57083,214.96666,55,54,0
214.57083,214.96666,64,54,0
215.07083,215.2375,37,54,0
215.2375,215.4,41,54,0
215.07083,215.46666,53,54,0
215.07083,215.46666,56,54,0
215.07083,215.46666,65,54,0
215.40416,215.57083,44,54,0
215.57083,215.7375,49,54,0
215.7375,215.9,53,54,0
215.90416,216.07083,56,54,0
216.07083,216.46666,53,54,0
216.07083,216.46666,56,54,0
216.07083,216.46666,65,54,0
216.57083,217.07083,65,54,0
216.57083,217.07083,53,54,0
216.57083,217.07083,43,54,0
216.57083,217.07083,47,54,0
216.57083,217.07083,62,54,0
217.07083,217.57083,60,64,0
217.07083,217.57083,39,54,0
217.07083,217.57083,51,64,0
217.07083,217.57083,63,64,0
217.57083,217.9625,43,54,0
217.57083,217.96666,58,74,0
217.57083,217.96666,53,74,0
217.57083,217.96666,61,74,0
218.07083,218.19583,60,84,0
218.07083,218.19583,36,84,0
218.07083,218.19583,52,84,0
218.07083,218.19583,55,84,0
218.44583,218.52916,72,84,0
218.44583,218.52916,48,84,0
218.44583,218.52916,60,84,0
218.44583,218.52916,84,84,0
218.57083,219.07083,72,84,0
218.57083,219.07083,84,84,0
219.07083,219.32083,81,84,0
219.07083,219.32083,87,84,0
219.07083,219.32083,78,84,0
219.07083,219.32083,75,84,0
218.56667,219.75833,48,84,0
218.57083,219.75833,60,84,0
219.94583,220.02916,48,84,0
219.94583,220.02916,36,84,0
219.57083,220.57083,78,84,0
219.57083,220.57083,69,84,0
219.57083,220.57083,66,84,0
219.57083,220.57083,75,84,0
220.57083,220.82083,69,84,0
220.57083,220.82083,81,84,0
220.07083,221.25833,48,84,0
220.07083,221.25833,36,84,0
221.44583,221.525,36,84,0
221.57083,223.3625,36,84,0
221.07083,223.46666,58,84,0
221.07083,223.46666,70,84,0
221.07083,223.46666,62,84,0
223.57083,223.82083,73,74,0
223.57083,223.82083,70,74,0
223.57083,223.82083,77,74,0
223.57083,223.82083,65,74,0
223.57083,223.96666,61,74,0
223.57083,223.96666,48,74,0
223.57083,223.96666,55,74,0
224.07083,224.35834,48,74,0
224.44583,224.52916,36,74,0
224.57083,226.3625,36,74,0
224.07083,226.46666,55,64,0
224.07083,226.46666,58,64,0
224.07083,226.46666,67,64,0
226.57083,226.96666,65,54,0
226.57083,226.96666,48,54,0
226.57083,226.96666,55,54,0
226.57083,226.96666,58,54,0
226.57083,226.96666,74,54,0
226.57083,226.96666,62,54,0
227.07083,228.25417,36,54,0
227.57083,228.46666,64,54,0
227.57083,228.46666,55,54,0
227.57083,228.46666,58,54,0
228.57083,229.75833,46,54,0
229.07083,229.9625,55,54,0
229.07083,229.96666,60,54,0
229.07083,229.96666,64,54,0
230.07083,231.07083,45,54,0
230.56667,231.57083,72,54,0
230.57083,231.57083,60,54,0
230.57083,231.57083,65,54,0
231.07083,232.07083,38,54,0
231.07083,232.07083,50,54,0
231.57083,232.56667,70,54,0
231.57083,232.57083,65,54,0
231.57083,232.57083,58,54,0
232.07083,232.8625,36,54,0
232.07083,232.8625,48,54,0
232.57083,233.3625,69,54,0
232.57083,233.3625,65,54,0
232.57083,233.3625,57,54,0
233.57083,234.75833,65,54,0
233.57083,234.75833,67,54,0
233.57083,234.75833,62,54,0
233.57083,234.75833,55,54,0
233.07083,234.96666,46,54,0
235.07083,235.57083,72,54,0
235.07083,235.57083,45,54,0
235.07083,235.57083,60,54,0
235.07083,235.57083,65,54,0
235.57083,235.96666,41,54,0
235.57083,236.3625,57,54,0
235.57083,236.3625,65,54,0
235.57083,236.3625,69,54,0
236.57083,237.75833,67,54,0
236.57083,237.75833,62,54,0
236.57083,237.75833,65,54,0
236.57083,237.75833,55,54,0
236.07083,237.96666,46,54,0
238.07083,238.57083,65,54,0
238.07083,238.57083,67,54,0
238.07083,238.57083,62,54,0
238.57083,238.96666,74,54,0
238.07083,239.07083,47,54,0
239.07083,239.56667,77,54,0
239.07083,239.57083,65,54,0
239.57083,240.07083,76,54,0
239.57083,240.07083,64,54,0
239.07083,240.46666,43,54,0
239.07083,240.96666,71,54,0
240.07083,240.96666,74,54,0
240.07083,240.96666,62,54,0
241.07083,241.57083,72,54,0
240.57083,241.57083,48,54,0
240.57083,241.57083,36,54,0
241.07083,241.57083,60,54,0
241.57083,241.9625,46,54,0
241.57083,241.96666,64,54,0
242.06667,242.96666,45,54,0
242.57083,243.46666,53,54,0
242.56667,243.46666,65,54,0
243.07083,243.96666,38,54,0
243.07083,243.96666,50,54,0
243.57083,244.46666,77,54,0
243.57083,244.46666,65,54,0
244.07083,244.96666,36,54,0
244.07083,244.96666,48,54,0
244.57083,245.46666,75,54,0
244.57083,245.46666,66,54,0
244.57083,245.46666,78,54,0
245.07083,245.9625,46,54,0
245.57083,246.06667,79,54,0
245.57083,246.07083,67,54,0
246.07083,246.57083,74,54,0
246.07083,246.57083,86,54,0
246.07083,246.9625,58,54,0
246.07083,246.96666,62,54,0
246.07083,246.96666,65,54,0
247.07083,247.57083,45,54,0
247.57083,247.96666,41,54,0
246.57083,248.46666,89,54,0
246.57083,248.46666,77,54,0
248.07083,248.96666,46,54,0
248.57083,249.07083,55,54,0
248.57083,249.07083,67,54,0
249.07083,249.57083,61,54,0
249.07083,249.57083,73,54,0
249.07083,250.46666,53,54,0
249.07083,250.46666,46,54,0
249.07083,250.46666,49,54,0
250.56667,251.46666,44,44,0
249.57083,251.57083,77,54,0
249.57083,251.57083,65,54,0
251.57083,252.46666,53,44,0
251.57083,252.46666,41,44,0
251.57083,252.46666,60,44,0
251.57083,252.46666,48,44,0
252.59166,252.71666,55,54,0
252.71666,252.84166,60,54,0
252.59166,252.84166,52,54,0
252.84166,252.96666,56,54,0
252.96666,253.09166,60,54,0
252.84166,253.09166,53,54,0
252.59166,253.09166,36,54,0
253.09166,253.21666,58,54,0
253.09166,253.27916,55,54,0
253.09166,253.27916,48,54,0
253.21666,253.3,60,54,0
253.46666,253.55,55,54,0
253.46666,253.55,51,54,0
253.46666,253.55,36,54,0
253.59166,253.9875,53,54,0
253.59166,253.9875,56,54,0
253.5875,253.9875,41,54,0
254.09166,254.21666,60,54,0
254.21666,254.34166,56,54,0
254.34166,254.46666,63,54,0
254.46666,254.59166,55,54,0
254.09166,254.59166,44,54,0
254.59166,254.7125,61,54,0
254.59166,254.77916,46,54,0
254.71666,254.8,53,54,0
254.96666,255.05,58,54,0
254.96666,255.05,53,54,0
254.96666,255.05,37,54,0
255.09166,255.4875,60,54,0
255.09166,255.4875,56,54,0
255.09166,255.4875,41,54,0
255.59166,255.71666,65,54,0
255.71666,255.84166,73,54,0
255.59166,255.84166,61,54,0
255.84166,255.96666,67,54,0
255.59166,256.0875,49,54,0
255.84166,256.09167,63,54,0
255.59166,256.09167,56,54,0
255.96666,256.09167,73,54,0
256.09167,256.21667,68,54,0
256.09167,256.275,37,54,0
256.09167,256.27917,65,54,0
256.21667,256.3375,73,54,0
256.46667,256.55,61,54,0
256.46667,256.55,65,54,0
256.46667,256.55,51,54,0
256.59167,256.9875,60,54,0
256.59167,256.9875,44,54,0
256.59167,256.9875,56,54,0
256.59167,256.9875,63,54,0
257.09167,257.34167,61,54,0
257.09167,257.34167,49,54,0
257.34167,257.59167,60,54,0
257.34167,257.59167,48,54,0
257.59167,257.77917,58,54,0
257.59167,257.77917,46,54,0
257.96667,258.04584,44,54,0
257.96667,258.05,56,54,0
258.09167,258.88333,62,54,0
258.09167,258.88333,59,54,0
258.09167,258.88333,55,54,0
258.0875,258.96667,43,54,0
258.9625,259.05,53,54,0
259.09167,259.175,52,54,0
259.09167,259.175,48,54,0
259.21667,259.3,55,54,0
259.2125,259.3,43,54,0
259.34167,259.425,60,54,0
259.34167,259.425,40,54,0
259.46667,259.55,61,54,0
259.46667,259.55,36,54,0
259.59167,259.675,60,54,0
259.59167,259.71667,41,54,0
259.71667,259.8,56,54,0
259.84167,259.925,53,54,0
259.84167,259.96667,44,54,0
259.96667,260.05,48,54,0
260.59167,260.675,55,54,0
260.59167,260.675,53,54,0
260.71667,260.8,58,54,0
260.71667,260.8,49,54,0
260.84167,260.925,61,54,0
260.84167,260.925,46,54,0
260.96667,261.05,65,54,0
260.96667,261.05,43,54,0
261.09167,261.175,60,54,0
261.09167,261.21667,44,54,0
261.21667,261.29584,56,54,0
261.34167,261.425,53,54,0
261.3375,261.46667,44,54,0
261.46667,261.54584,48,54,0
262.09167,262.175,73,54,0
262.09167,262.175,41,54,0
262.21667,262.29584,44,54,0
262.21667,262.3,68,54,0
262.34167,262.425,65,54,0
262.34167,262.425,49,54,0
262.46667,262.55,61,54,0
262.46667,262.55,53,54,0
262.59167,262.675,60,64,0
262.59167,262.675,56,64,0
262.71667,262.8,63,64,0
262.71667,262.8,51,64,0
262.84167,262.925,68,74,0
262.84167,262.925,48,74,0
262.96667,263.05,72,74,0
262.96667,263.05,44,74,0
263.09167,263.34167,61,84,0
263.09167,263.34167,49,84,0
263.09167,263.34167,37,84,0
263.34167,263.5875,48,84,0
263.34167,263.59167,60,84,0
263.34167,263.59167,36,84,0
263.59167,263.77917,58,84,0
263.59167,263.77917,46,84,0
263.96667,264.05,44,84,0
263.96667,264.05,56,84,0
264.09167,264.77917,65,84,0
264.09167,264.77917,55,84,0
264.09167,264.77917,61,84,0
264.09167,264.77917,46,84,0
264.09167,264.77917,67,84,0
265.09167,265.4875,67,84,0
265.09167,265.4875,64,84,0
265.09167,265.4875,79,84,0
265.09167,265.4875,60,84,0
265.09167,265.4875,76,84,0
265.09167,265.4875,72,84,0
265.59167,265.9875,80,84,0
265.59167,265.9875,68,84,0
265.59167,265.9875,65,84,0
265.59167,265.9875,77,84,0
265.59167,265.9875,53,84,0
265.59167,265.9875,72,84,0
265.59167,265.9875,60,84,0
266.09167,266.4875,76,84,0
266.09167,266.4875,48,84,0
266.09167,266.4875,70,84,0
266.09167,266.4875,82,84,0
266.09167,266.4875,60,84,0
266.09167,266.4875,52,84,0
266.09167,266.4875,55,84,0
266.09167,266.4875,79,84,0
266.96667,267.04584,51,84,0
266.96667,267.05,55,84,0
266.96667,267.05,36,84,0
267.09167,267.4875,53,84,0
267.09167,267.4875,41,84,0
267.09167,267.4875,56,84,0
268.09167,268.4875,72,84,0
268.09167,268.4875,80,84,0
268.09167,268.4875,68,84,0
268.0875,268.4875,56,84,0
268.09167,268.4875,84,84,0
268.09167,268.4875,60,84,0
268.59167,268.9875,79,84,0
268.59167,268.9875,75,84,0
268.59167,268.9875,87,84,0
268.59167,268.9875,44,84,0
268.59167,268.9875,56,84,0
269.09167,269.4875,73,84,0
269.09167,269.4875,85,84,0
269.09167,269.4875,61,84,0
269.09167,269.4875,49,84,0
269.09167,269.4875,77,84,0
269.09167,269.4875,53,84,0
269.96667,270.05,58,84,0
269.96667,270.05,37,84,0
269.96667,270.05,49,84,0
269.96667,270.05,53,84,0
270.09167,270.48334,60,84,0
270.09167,270.4875,48,84,0
270.09167,270.4875,36,84,0
270.09167,270.4875,52,84,0
271.09167,271.4875,75,84,0
271.09167,271.4875,63,84,0
271.09167,271.4875,81,84,0
271.09167,271.4875,53,84,0
271.09167,271.4875,65,84,0
271.09167,271.4875,60,84,0
271.09167,271.4875,72,84,0
271.09167,271.4875,69,84,0
271.59167,271.9875,77,84,0
271.59167,271.9875,46,84,0
271.59167,271.9875,73,84,0
271.59167,271.9875,58,84,0
271.59167,271.9875,82,84,0
271.59167,271.9875,70,84,0
271.59167,271.9875,49,84,0
271.59167,271.9875,53,84,0
272.09167,272.4875,45,84,0
272.09167,272.4875,84,84,0
272.09167,272.4875,81,84,0
272.09167,272.4875,75,84,0
272.09167,272.4875,41,84,0
272.09167,272.4875,53,84,0
272.09167,272.4875,72,84,0
272.09167,272.4875,48,84,0
272.96667,273.05,57,84,0
272.96667,273.05,41,84,0
272.96667,273.05,65,84,0
272.96667,273.05,53,84,0
273.09167,273.4875,60,84,0
273.09167,273.4875,45,84,0
273.09167,273.4875,53,84,0
273.09167,273.4875,63,84,0
273.59167,273.8375,61,84,0
273.59167,273.84167,49,84,0
273.59167,273.84167,73,84,0
273.59167,273.84167,85,84,0
273.84167,274.0875,72,84,0
273.84167,274.09167,60,84,0
273.84167,274.09167,84,84,0
273.84167,274.09167,48,84,0
274.09167,274.34167,70,84,0
274.09167,274.34167,58,84,0
274.09167,274.34167,82,84,0
274.09167,274.34167,46,84,0
274.34167,274.59167,68,84,0
274.34167,274.59167,44,84,0
274.34167,274.59167,56,84,0
274.34167,274.59167,80,84,0
274.59167,274.77917,43,84,0
274.59167,274.77917,79,84,0
274.59167,274.77917,67,84,0
274.59167,274.77917,55,84,0
274.96667,275.05,79,84,0
274.96667,275.05,86,84,0
274.96667,275.05,83,84,0
274.96667,275.05,91,84,0
274.96667,275.05,43,84,0
275.09167,275.4875,88,84,0
275.09167,275.4875,91,84,0
275.09167,275.4875,84,84,0
275.09167,275.4875,36,84,0
275.09167,275.4875,48,84,0
275.09167,275.4875,79,84,0
275.59167,275.71667,85,84,0
275.59167,275.71667,40,84,0
275.71667,275.84167,46,84,0
275.71667,275.84167,79,84,0
275.84167,275.96667,55,84,0
275.84167,275.96667,70,84,0
275.96667,276.09167,79,84,0
275.96667,276.09167,46,84,0
276.09167,276.21667,41,84,0
276.09167,276.21667,84,84,0
276.21667,276.34167,77,84,0
276.21667,276.34167,48,84,0
276.34167,276.46667,68,84,0
276.34167,276.46667,56,84,0
276.46667,276.59167,77,84,0
276.46667,276.59167,48,84,0
276.59167,276.71667,43,84,0
276.59167,276.71667,82,84,0
276.71667,276.84167,52,84,0
276.71667,276.84167,76,84,0
276.84167,276.96667,67,84,0
276.84167,276.96667,58,84,0
276.96667,277.09167,80,84,0
276.96667,277.09167,51,84,0
277.09167,277.21667,72,84,0
277.09167,277.21667,53,84,0
277.21667,277.34167,60,84,0
277.21667,277.34167,65,84,0
276.96667,277.34167,44,84,0
277.34167,277.4625,46,84,0
277.34167,277.46667,79,84,0
277.46667,277.59167,53,84,0
277.46667,277.59167,73,84,0
277.59167,277.71667,61,84,0
277.59167,277.71667,65,84,0
277.71667,277.8,79,84,0
277.71667,277.8,48,84,0
277.84167,277.925,55,84,0
277.8375,277.925,70,84,0
277.96667,278.05,67,84,0
277.96667,278.05,60,84,0
278.09167,278.21667,84,84,0
278.09167,278.21667,37,84,0
278.21667,278.34167,44,84,0
278.21667,278.34167,77,84,0
278.34167,278.46667,53,84,0
278.34167,278.46667,68,84,0
278.46667,278.55,38,84,0
278.46667,278.59167,77,84,0
278.59167,278.71667,82,84,0
278.59167,278.71667,39,84,0
278.71667,278.84167,46,84,0
278.71667,278.84167,73,84,0
278.84167,278.96667,55,84,0
278.84167,278.96667,67,84,0
278.96667,279.05,40,84,0
278.96667,279.09167,73,84,0
279.09167,279.21667,80,84,0
279.09167,279.21667,41,84,0
279.21667,279.3375,72,84,0
279.21667,279.34167,48,84,0
279.34167,279.4625,65,84,0
279.34167,279.46667,56,84,0
279.46667,279.5875,79,84,0
279.46667,279.59167,43,84,0
279.59167,279.71667,52,84,0
279.59167,279.71667,70,84,0
279.71667,279.84167,58,84,0
279.71667,279.84167,64,84,0
279.84167,279.96667,77,84,0
279.84167,279.96667,44,84,0
279.96667,280.09167,53,84,0
279.96667,280.09167,72,84,0
280.09167,280.21667,56,84,0
280.09167,280.21667,65,84,0
280.21667,280.34167,77,84,0
280.21667,280.34167,47,84,0
280.34167,280.46667,50,84,0
280.34167,280.46667,72,84,0
280.46667,280.5875,65,84,0
280.46667,280.59167,56,84,0
280.59167,280.9875,51,84,0
280.59167,280.9875,60,84,0
280.59167,280.9875,84,84,0
280.59167,280.9875,58,84,0
280.59167,280.9875,76,84,0
280.59167,280.9875,48,84,0
280.59167,280.9875,82,84,0
280.59167,280.9875,72,84,0
280.59167,280.9875,55,84,0
280.59167,280.9875,79,84,0
281.09167,281.34167,87,84,0
281.09167,281.34167,55,84,0
281.09167,281.34167,41,84,0
281.09167,281.34167,57,84,0
281.09167,281.34167,48,84,0
281.09167,281.34167,51,84,0
281.09167,281.34167,89,84,0
281.09167,281.34167,81,84,0
281.09167,281.34167,77,84,0
281.09167,281.34167,43,84,0
281.59167,281.675,46,54,0
281.59167,281.775,73,54,0
281.59167,281.77917,77,54,0
281.59167,281.77917,65,54,0
281.71667,281.8,49,54,0
281.8375,281.925,52,54,0
281.96667,282.04584,53,54,0
282.09167,282.175,44,54,0
282.09167,282.27917,60,54,0
282.09167,282.27917,65,54,0
282.21667,282.29584,48,54,0
282.34167,282.425,51,54,0
282.46667,282.54584,53,54,0
282.5875,282.675,43,54,0
282.71667,282.8,46,54,0
282.59167,282.8375,85,54,0
282.84167,282.925,49,54,0
282.84167,283.02917,82,54,0
282.96667,283.05,53,54,0
283.09167,283.175,44,54,0
283.21667,283.3,48,54,0
283.09167,283.3375,84,54,0
283.34167,283.425,53,54,0
283.34167,283.52917,80,54,0
283.4625,283.55,56,54,0
283.59167,283.675,48,54,0
283.7125,283.8,52,54,0
283.59167,283.84167,82,54,0
283.84167,283.925,55,54,0
283.84167,284.02917,79,54,0
283.9625,284.05,60,54,0
284.09167,284.17084,50,54,0
284.21667,284.3,53,54,0
284.09167,284.34167,80,54,0
284.34167,284.425,56,54,0
284.34167,284.525,77,54,0
284.46667,284.55,60,54,0
284.59167,284.67084,52,54,0
284.71667,284.8,55,54,0
284.59167,284.84167,79,54,0
284.84167,284.925,58,54,0
284.84167,285.025,76,54,0
284.96667,285.05,60,54,0
285.09167,285.175,53,54,0
285.21667,285.3,56,54,0
285.09167,285.34167,72,54,0
285.34167,285.425,60,54,0
285.34167,285.52917,68,54,0
285.46667,285.55,62,54,0
285.59167,285.77917,48,54,0
285.59167,285.84167,70,54,0
285.84167,286.02917,67,54,0
286.0875,286.175,41,54,0
286.21667,286.29584,44,54,0
286.34167,286.425,48,54,0
286.46667,286.54584,50,54,0
286.59167,286.8375,68,54,0
286.84167,287.02917,65,54,0
287.09167,287.175,36,54,0
287.21667,287.3,40,54,0
287.34167,287.425,43,54,0
287.46667,287.55,48,54,0
287.59167,287.84167,67,54,0
287.84167,288.02917,64,54,0
288.6125,288.8625,60,84,0
288.6125,289.10834,41,84,0
288.6125,289.1125,56,84,0
288.6125,289.1125,53,84,0
288.8625,289.1125,65,84,0
289.1125,289.3625,67,84,0
289.3625,289.6125,70,84,0
289.1125,289.6125,63,84,0
289.1125,289.6125,51,84,0
289.1125,289.6125,39,84,0
289.1125,289.6125,58,84,0
289.6125,289.8625,72,84,0
289.6125,290.00833,44,84,0
289.6125,290.1125,68,84,0
289.6125,290.1125,63,84,0
289.8625,290.1125,75,84,0
290.1125,290.50833,75,84,0
290.1125,290.50833,42,84,0
290.1125,290.50833,70,84,0
290.1125,290.50833,63,84,0
290.6125,291.50833,65,84,0
290.6125,291.50833,77,84,0
290.60834,291.50833,41,84,0
290.6125,291.50833,69,84,0
290.6125,291.50833,72,84,0
291.6125,292.00833,46,84,0
291.6125,292.00833,55,84,0
291.6125,292.00833,61,84,0
291.6125,292.00833,53,84,0
292.1125,292.50833,60,84,0
291.6125,292.50833,79,84,0
292.1125,292.50833,48,84,0
291.6125,292.50833,67,84,0
291.6125,292.50833,77,84,0
291.6125,292.50833,65,84,0
292.1125,292.50833,53,84,0
292.1125,292.50833,55,84,0
292.6125,293.00833,55,84,0
292.6125,293.00833,58,84,0
292.60834,293.00833,49,84,0
292.6125,293.00833,53,84,0
293.1125,293.50833,48,84,0
292.6125,293.50833,79,84,0
293.1125,293.50833,53,84,0
292.6125,293.50833,77,84,0
292.6125,293.50833,65,84,0
292.6125,293.50833,67,84,0
293.1125,293.50833,55,84,0
293.1125,293.50833,60,84,0
293.6125,294.1125,60,84,0
293.60834,294.1125,36,84,0
293.6125,294.1125,53,84,0
293.6125,294.1125,50,84,0
294.1125,294.50833,58,84,0
294.1125,294.50833,48,84,0
294.1125,294.50833,52,84,0
294.1125,294.50833,55,84,0
294.60834,294.6125,56,84,0
294.6125,294.8625,60,84,0
294.6125,295.00833,56,84,0
294.6125,295.1125,41,84,0
294.6125,295.1125,53,84,0
294.8625,295.1125,65,84,0
295.1125,295.3625,67,84,0
295.1125,295.50833,58,84,0
295.1125,295.50833,63,84,0
295.1125,295.6125,39,84,0
295.1125,295.6125,51,84,0
295.3625,295.6125,70,84,0
295.6125,295.8625,72,84,0
295.6125,296.00833,63,84,0
295.6125,296.00833,68,84,0
295.6125,296.00833,44,84,0
295.8625,296.05,75,84,0
296.1125,296.50833,70,84,0
296.1125,296.50833,42,84,0
296.1125,296.50833,75,84,0
296.1125,296.50833,63,84,0
296.6125,297.00833,41,84,0
296.6125,297.2375,65,84,0
296.6125,297.2375,72,84,0
296.6125,297.2375,77,84,0
296.6125,297.2375,69,84,0
297.27917,297.44583,70,84,0
297.27917,297.44583,73,84,0
297.27917,297.44583,65,84,0
297.1125,297.50418,58,84,0
297.1125,297.50833,49,84,0
297.1125,297.50833,53,84,0
297.1125,297.50833,46,84,0
297.44583,297.57083,77,84,0
297.6125,298.00833,72,84,0
297.6125,298.00833,65,84,0
297.6125,298.00833,44,84,0
297.6125,298.00833,53,84,0
297.6125,298.00833,56,84,0
297.6125,298.00833,77,84,0
297.6125,298.00833,48,84,0
298.1125,298.50833,74,84,0
298.1125,298.50833,47,84,0
298.1125,298.50833,67,84,0
298.1125,298.50833,43,84,0
298.1125,298.50833,50,84,0
298.1125,298.50833,55,84,0
298.1125,298.50833,71,84,0
298.6125,298.7375,75,84,0
298.6125,298.7375,67,84,0
298.7375,298.8625,73,84,0
298.8625,298.98334,70,84,0
298.6125,299.00833,65,84,0
298.6125,299.00833,59,84,0
298.1125,299.00833,79,84,0
298.60834,299.00833,55,84,0
298.9875,299.07083,67,84,0
299.1125,299.50833,48,84,0
299.1125,299.50833,58,84,0
299.1125,299.50833,64,84,0
299.1125,299.50833,55,84,0
299.1125,299.90417,84,84,0
299.1125,299.90417,82,84,0
299.1125,299.90417,72,84,0
299.6125,300.00833,58,84,0
299.6125,300.00833,50,84,0
299.6125,300.00833,65,84,0
299.6125,300.00833,55,84,0
300.1125,300.50833,60,84,0
300.1125,300.50833,55,84,0
300.1125,300.50833,58,84,0
300.1125,300.50833,52,84,0
300.1125,300.50833,67,84,0
300.1125,300.9,84,84,0
300.1125,300.90417,82,84,0
300.1125,300.90417,72,84,0
300.6125,301.00833,58,84,0
300.6125,301.00833,53,84,0
300.6125,301.00833,60,84,0
300.6125,301.00833,65,84,0
301.1125,301.6125,64,84,0
301.1125,301.6125,58,84,0
301.1125,301.6125,43,84,0
301.1125,301.6125,55,84,0
301.1125,301.6125,70,84,0
301.6125,302.00833,68,84,0
301.6125,302.00833,65,84,0
301.6125,302.00833,41,84,0
301.6125,302.00833,53,84,0
301.6125,302.00833,56,84,0
302.1125,302.2375,91,94,0
302.2375,302.3625,89,94,0
302.3625,302.4875,85,94,0
302.1125,302.50833,79,94,0
302.1125,302.50833,77,94,0
302.1125,302.50833,55,94,0
302.1125,302.50833,53,94,0
302.1125,302.50833,61,94,0
302.1125,302.50833,46,94,0
302.4875,302.57083,82,94,0
302.6125,303.50833,48,94,0
302.6125,303.50833,79,94,0
302.6125,303.50833,55,94,0
302.6125,303.50833,62,94,0
302.6125,303.50833,65,94,0
302.6125,303.50833,67,94,0
302.6125,303.50833,47,94,0
302.6125,303.50833,53,94,0
303.6125,303.8625,43,94,0
303.6125,303.8625,55,94,0
304.1125,304.85834,58,94,0
304.1125,304.8625,60,94,0
304.1125,304.8625,75,94,0
304.1125,304.8625,48,94,0
304.1125,304.8625,82,94,0
304.1125,304.8625,84,94,0
304.1125,304.8625,72,94,0
304.1125,304.8625,52,94,0
305.10834,305.35834,36,94,0
305.1125,305.3625,48,94,0
305.6125,306.40417,52,94,0
305.6125,306.40417,48,94,0
305.6125,306.40417,68,94,0
305.6125,306.40417,80,94,0
305.6125,306.40417,56,94,0
305.6125,306.40417,76,94,0
305.6125,306.40417,60,94,0
306.6125,306.8625,41,84,0
307.1125,307.90417,53,84,0
307.1125,307.90417,65,84,0
307.10834,307.90417,48,84,0
307.1125,307.90417,41,84,0
307.1125,307.90417,60,84,0
308.1125,308.3625,41,84,0
308.6125,309.40417,41,84,0
308.6125,309.40417,65,84,0
308.6125,309.40417,56,84,0
308.6125,309.40417,53,84,0
308.6125,309.40417,44,84,0
309.6125,310.00833,41,54,0
310.1125,311.00833,65,54,0
310.1125,311.00833,41,54,0
310.10834,311.00833,53,54,0
311.1125,311.50833,41,54,0
311.6125,312.50833,63,54,0
311.6125,312.50833,65,54,0
311.60834,312.50833,53,54,0
311.6125,312.50833,41,54,0
311.6125,312.50833,48,54,0
312.6125,313.00833,41,54,0
313.1125,314.00833,46,54,0
313.1125,314.00833,65,54,0
313.1125,314.00833,62,54,0
313.1125,314.00833,53,54,0
313.1125,314.00833,41,54,0
314.1125,314.50833,41,64,0
314.6125,315.4,41,74,0
314.6125,315.40417,70,74,0
314.6125,315.40417,53,74,0
314.6125,315.40417,49,74,0
314.6125,315.40417,61,74,0
314.6125,315.40417,58,74,0
315.6125,315.77917,42,84,0
315.77917,315.94583,46,84,0
315.94583,316.1125,51,84,0
316.1125,316.275,54,84,0
315.6125,316.27917,82,84,0
316.27917,316.44583,80,84,0
316.27917,316.44583,58,84,0
316.44583,316.6125,78,84,0
316.44583,316.6125,63,84,0
316.6125,316.775,66,84,0
316.6125,316.77917,82,84,0
315.6125,316.79584,70,84,0
315.6125,316.8,75,84,0
316.77917,316.94583,63,84,0
316.77917,316.94583,78,84,0
316.94583,317.07083,77,84,0
316.94583,317.07083,61,84,0
317.1125,318.3,66,84,0
317.1125,318.3,54,84,0
317.1125,318.3,48,84,0
317.1125,318.3,51,84,0
317.1125,318.3,60,84,0
317.1125,318.3,70,84,0
317.1125,318.3,75,84,0
317.1125,318.3,63,84,0
318.6125,318.77917,37,84,0
318.77917,318.94583,41,84,0
318.94583,319.1125,46,84,0
318.6125,319.23334,77,84,0
319.1125,319.27917,49,84,0
319.27917,319.40417,75,84,0
319.27917,319.44583,53,84,0
319.44583,319.57083,73,84,0
319.44583,319.60834,58,84,0
319.6125,319.73334,77,84,0
319.6125,319.77917,54,84,0
319.6125,319.77917,61,84,0
318.6125,319.8,65,84,0
318.6125,319.8,70,84,0
319.77917,319.90417,73,84,0
319.77917,319.94583,58,84,0
319.94583,320.07083,72,84,0
319.94583,320.1125,57,84,0
320.1125,320.90417,55,84,0
320.1125,320.90417,58,84,0
320.1125,320.90417,61,84,0
320.1125,320.90417,70,84,0
320.1125,320.90417,65,84,0
321.1125,321.50833,65,84,0
321.1125,321.50833,67,84,0
321.1125,321.50833,61,84,0
321.1125,321.50833,55,84,0
321.1125,321.50833,46,84,0
321.63333,322.09167,68,84,0
321.63333,322.09167,48,84,0
321.63333,322.09167,36,84,0
321.63333,322.09167,44,84,0
321.63333,322.09167,65,84,0
321.63333,322.09167,41,84,0
321.63333,322.09167,60,84,0
322.13333,322.3,65,54,0
321.63333,322.3,72,84,0
322.13333,322.3,60,54,0
322.3,322.46667,58,54,0
322.13333,322.46667,56,54,0
322.3,322.46667,70,54,0
322.46667,322.52917,56,54,0
322.13333,322.52917,48,54,0
322.13333,322.52917,53,54,0
322.46667,322.59167,68,54,0
322.63333,323.02917,68,54,0
322.63333,323.02917,60,54,0
322.63333,323.02917,48,54,0
322.63333,323.02917,56,54,0
322.63333,323.02917,53,54,0
322.63333,323.02917,65,54,0
323.13333,323.52917,68,54,0
323.13333,323.52917,65,54,0
323.13333,323.52917,44,54,0
323.12918,323.52917,36,54,0
323.13333,323.52917,48,54,0
323.13333,323.52917,41,54,0
323.13333,323.52917,60,54,0
323.63333,323.8,60,54,0
322.63333,323.8,72,54,0
323.63333,323.8,65,54,0
323.8,323.9625,68,54,0
323.8,323.96667,56,54,0
323.63333,323.96667,53,54,0
323.96667,324.02917,53,54,0
323.63333,324.02917,48,54,0
323.96667,324.09167,65,54,0
324.13333,324.52917,60,54,0
324.13333,324.52917,55,54,0
324.13333,324.52917,48,54,0
324.13333,324.52917,52,54,0
324.13333,324.52917,64,54,0
324.63333,325.02917,64,54,0
324.63333,325.02917,36,54,0
324.63333,325.02917,48,54,0
324.63333,325.02917,43,54,0
324.63333,325.02917,60,54,0
325.13333,325.3,60,54,0
324.13333,325.3,72,54,0
325.13333,325.3,64,54,0
325.3,325.46667,55,54,0
325.3,325.46667,67,54,0
325.13333,325.46667,48,54,0
325.46667,325.52917,48,54,0
325.12918,325.52917,52,54,0
325.46667,325.63333,60,54,0
325.63333,326.025,36,54,0
325.63333,326.02917,41,54,0
325.63333,326.02917,72,54,0
325.63333,326.02917,50,54,0
325.63333,326.02917,65,54,0
325.63333,326.02917,62,54,0
326.13333,326.3,52,54,0
326.13333,326.3,60,54,0
326.3,326.46667,67,54,0
326.13333,326.46667,72,54,0
326.3,326.46667,55,54,0
326.46667,326.52917,72,54,0
326.13333,326.52917,36,54,0
326.13333,326.52917,43,54,0
326.46667,326.52917,60,54,0
326.63333,326.88333,65,54,0
326.63333,326.88333,44,54,0
326.63333,326.88333,36,54,0
326.63333,326.88333,53,54,0
326.63333,327.02917,60,54,0
326.63333,327.02917,72,54,0
326.88333,327.07083,62,54,0
326.88333,327.07083,50,54,0
327.13333,327.3,52,54,0
327.12918,327.3,36,54,0
327.13333,327.3,43,54,0
327.13333,327.3,60,54,0
327.3,327.46667,55,54,0
327.3,327.46667,67,54,0
327.13333,327.46667,72,54,0
327.46667,327.525,72,54,0
327.46667,327.52917,60,54,0
327.63333,327.88333,73,54,0
327.63333,327.88333,65,54,0
327.63333,327.88333,61,54,0
327.63333,328.02917,56,54,0
327.63333,328.02917,60,54,0
327.62918,328.02917,48,54,0
327.63333,328.02917,53,54,0
327.88333,328.13333,62,54,0
327.88333,328.13333,74,54,0
328.13333,328.38333,77,54,0
328.13333,328.38333,65,54,0
328.13333,328.38333,68,54,0
328.13333,328.52917,56,54,0
328.13333,328.52917,60,54,0
328.13333,328.52917,48,54,0
328.13333,328.52917,53,54,0
328.38333,328.63333,76,54,0
328.38333,328.63333,64,54,0
328.63333,328.88333,70,54,0
328.63333,328.88333,79,54,0
328.63333,328.88333,67,54,0
328.63333,329.02917,60,54,0
328.63333,329.02917,55,54,0
328.63333,329.02917,52,54,0
328.63333,329.02917,48,54,0
328.63333,329.02917,58,54,0
328.63333,329.02917,49,54,0
328.88333,329.07083,72,54,0
329.13333,329.52917,40,54,0
329.13333,329.52917,41,54,0
329.13333,329.52917,65,54,0
329.13333,329.52917,60,54,0
329.13333,329.52917,44,54,0
329.13333,329.52917,48,54,0
329.13333,329.52917,53,54,0
329.13333,329.52917,68,54,0
329.13333,329.8,72,54,0
329.8,329.96667,70,54,0
329.63333,330.02917,56,54,0
329.63333,330.02917,53,54,0
329.96667,330.13333,68,54,0
330.13333,330.525,39,54,0
330.13333,330.52917,60,54,0
330.13333,330.52917,67,54,0
330.13333,330.52917,48,54,0
330.13333,330.52917,51,54,0
330.13333,330.52917,43,54,0
330.13333,330.92084,72,54,0
330.63333,331.02917,60,54,0
330.63333,331.02917,51,54,0
330.63333,331.02917,55,54,0
330.63333,331.02917,67,54,0
331.13333,331.52917,65,54,0
331.13333,331.52917,60,54,0
331.13333,331.52917,37,54,0
331.13333,331.52917,41,54,0
331.13333,331.52917,49,54,0
331.13333,331.52917,44,54,0
331.13333,331.8,72,54,0
331.8,331.96667,68,54,0
331.63333,331.96667,65,54,0
331.96667,332.02917,65,54,0
331.63333,332.02917,60,54,0
331.63333,332.02917,53,54,0
331.63333,332.02917,49,54,0
332.13333,332.52917,60,54,0
332.13333,332.52917,48,54,0
332.13333,332.52917,43,54,0
332.12918,332.52917,36,54,0
332.13333,332.52917,72,54,0
332.13333,332.52917,64,54,0
332.63333,332.8,72,54,0
332.8,332.96667,67,54,0
332.63333,333.02917,60,54,0
332.63333,333.02917,64,54,0
332.63333,333.02917,55,54,0
332.63333,333.02917,58,54,0
332.63333,333.02917,48,54,0
332.96667,333.09167,72,54,0
333.13333,333.52917,60,54,0
333.13333,333.52917,51,54,0
333.13333,333.52917,43,54,0
333.13333,333.52917,41,54,0
333.13333,333.52917,48,54,0
333.13333,333.52917,57,54,0
333.13333,333.52917,63,54,0
333.13333,333.75833,72,54,0
333.8,333.96667,58,54,0
333.79584,333.96667,70,54,0
333.63333,334.025,51,54,0
333.63333,334.02917,41,54,0
333.63333,334.02917,53,54,0
333.63333,334.02917,45,54,0
333.63333,334.02917,63,54,0
333.96667,334.09167,69,54,0
333.96667,334.09167,57,54,0
334.13333,334.52917,65,54,0
334.13333,334.52917,51,54,0
334.13333,334.52917,69,54,0
334.13333,334.52917,41,54,0
334.13333,334.52917,53,54,0
334.13333,334.52917,45,54,0
334.13333,334.52917,63,54,0
334.13333,334.52917,57,54,0
334.63333,334.8,70,54,0
334.8,334.9625,65,54,0
334.63333,335.02917,46,54,0
334.63333,335.02917,53,54,0
334.63333,335.02917,51,54,0
334.96667,335.09167,70,54,0
335.13333,335.52917,67,64,0
335.13333,335.52917,53,54,0
335.13333,335.52917,43,54,0
335.13333,335.52917,59,64,0
335.13333,335.52917,55,54,0
335.13333,335.52917,50,54,0
335.13333,335.52917,65,64,0
335.13333,335.52917,71,64,0
335.13333,335.52917,62,64,0
335.63333,335.8,74,74,0
335.8,335.96667,79,74,0
335.96667,336.09167,74,74,0
335.63333,336.13333,67,54,0
335.63333,336.13333,58,54,0
335.63333,336.13333,62,54,0
335.63333,336.13333,65,54,0
335.63333,336.13333,55,54,0
335.63333,336.13333,71,54,0
335.63333,336.13333,59,54,0
336.13333,336.38333,65,84,0
336.13333,336.38333,77,84,0
336.38333,336.57083,64,84,0
336.38333,336.57083,76,84,0
336.13333,336.62918,58,54,0
336.13333,336.63333,70,54,0
336.13333,336.63333,47,54,0
336.13333,336.63333,48,54,0
336.13333,336.63333,55,54,0
336.13333,336.63333,60,54,0
336.63333,336.88333,77,84,0
336.63333,336.88333,41,84,0
336.88333,337.06668,53,84,0
336.88333,337.07083,48,84,0
336.88333,337.07083,68,84,0
336.88333,337.07083,65,84,0
337.13333,337.38333,73,84,0
337.13333,337.38333,37,84,0
337.38333,337.57083,65,84,0
337.38333,337.57083,46,84,0
337.38333,337.57083,43,84,0
337.38333,337.57083,61,84,0
337.63333,337.88333,64,84,0
337.63333,337.88333,39,84,0
337.88333,338.07083,55,84,0
337.88333,338.07083,58,84,0
337.88333,338.13333,43,84,0
337.88333,338.13333,48,84,0
338.13333,338.29584,41,84,0
338.13333,338.38333,67,84,0
338.13333,338.38333,70,84,0
338.13333,338.38333,58,84,0
338.3,338.46667,48,84,0
338.46667,338.57083,55,84,0
338.38333,338.57083,68,74,0
338.38333,338.57083,65,74,0
338.38333,338.57083,56,74,0
338.63333,339.02917,37,84,0
339.13333,339.25833,46,84,0
339.13333,339.37918,67,74,0
339.13333,339.38333,63,74,0
339.13333,339.38333,55,74,0
339.3,339.4625,41,84,0
339.46667,339.57083,46,84,0
339.38333,339.57083,65,74,0
339.38333,339.57083,53,74,0
339.38333,339.57083,61,74,0
339.63333,340.025,43,74,0
340.13333,340.3,39,64,0
340.13333,340.38333,61,64,0
340.13333,340.38333,49,64,0
340.13333,340.38333,58,64,0
340.3,340.46667,43,64,0
340.38333,340.57083,52,64,0
340.46667,340.62918,48,64,0
340.63333,341.02917,36,64,0
341.13333,341.63333,53,54,0
341.12918,341.63333,41,54,0
341.63333,342.12918,36,54,0
341.63333,342.13333,60,54,0
341.63333,342.52917,48,54,0
342.13333,342.63333,58,54,0
342.13333,342.63333,46,54,0
342.63333,343.38333,56,54,0
342.63333,343.38333,44,54,0
343.38333,343.63333,55,54,0
343.38333,343.63333,43,54,0
343.63333,343.88333,58,54,0
343.63333,343.88333,46,54,0
342.63333,344.02917,60,54,0
342.63333,344.02917,48,54,0
343.88333,344.06668,44,54,0
343.88333,344.07083,56,54,0
344.13333,345.32083,53,54,0
344.13333,345.32083,60,54,0
344.13333,345.32083,48,54,0
344.13333,345.32083,41,54,0
345.63333,346.82083,41,54,0
345.63333,346.82083,60,54,0
345.63333,346.82083,53,54,0
345.63333,346.82083,48,54,0
347.13333,348.31668,51,44,0
347.13333,348.32083,41,44,0
347.13333,348.32083,60,44,0
347.13333,348.32083,53,44,0
347.13333,348.32083,63,44,0
347.13333,348.32083,72,44,0
347.13333,348.32083,45,44,0
347.13333,348.32083,69,44,0
348.63333,349.82083,67,44,0
348.63333,349.82083,53,44,0
348.63333,349.82083,46,44,0
348.63333,349.82083,55,44,0
348.63333,349.82083,49,44,0
348.63333,349.82083,70,44,0
348.63333,349.82083,58,44,0
348.63333,349.82083,61,44,0
350.13333,350.32083,41,44,0
350.38333,350.57083,36,44,0
350.63333,350.82083,41,44,0
350.88333,351.07083,45,44,0
351.13333,351.32083,48,44,0
350.13333,351.32083,69,44,0
350.13333,351.32083,60,44,0
350.13333,351.32083,57,44,0
350.13333,351.32083,65,44,0
351.38333,351.56668,53,44,0
351.63333,351.81668,57,44,0
351.63333,352.02917,65,44,0
351.63333,352.02917,69,44,0
351.88333,352.06668,60,44,0
352.13333,352.32083,65,44,0
352.38333,352.57083,69,44,0
352.62918,352.82083,72,44,0
352.87918,353.07083,77,44,0
353.13333,354.32083,77,44,0
353.13333,354.32083,41,44,0
353.13333,354.32083,89,44,0
353.13333,354.32083,57,44,0
353.13333,354.32083,81,44,0
353.13333,354.32083,48,44,0
354.63333,354.88333,41,44,0
