start_time,end_time,note_value,velocity,instrument_program_number
0.52916664,0.5327381,33,54,0
0.9577377,0.9613091,33,54,0
1.3863087,1.3898801,33,54,0
2.6720216,3.1005926,68,54,71
3.1005926,3.7434492,77,54,71
3.7434492,3.9577346,75,54,71
3.9577346,4.17202,74,54,71
4.17202,4.386306,70,54,71
4.386306,5.029162,72,54,71
5.029162,5.243448,70,54,71
5.243448,5.457733,68,54,71
5.457733,5.6720185,65,54,71
5.6720185,5.8863044,67,54,71
5.8863044,6.1005898,70,54,71
6.1005898,6.7434464,75,54,71
6.7434464,6.9577317,65,54,71
6.9577317,7.172017,67,54,71
7.172017,7.3863025,70,54,71
7.3863025,8.02916,75,54,71
8.02916,8.243444,68,54,71
8.243444,8.886301,77,54,71
8.886301,9.100587,75,54,71
9.100587,9.314872,74,54,71
9.314872,9.529158,70,54,71
9.529158,10.172014,72,54,71
10.172014,10.3863,70,54,71
10.3863,10.600585,75,54,71
10.600585,10.814871,67,54,71
10.814871,11.029156,68,54,71
11.029156,11.243442,65,54,71
11.243442,11.886298,68,54,71
11.886298,12.100584,63,54,71
12.100584,12.314869,68,54,71
12.314869,12.529155,65,54,71
12.529155,13.172011,68,54,71
13.172011,13.386296,63,54,71
13.386296,13.600582,62,54,71
13.600582,13.814868,65,54,71
13.814868,14.029153,68,54,71
14.672009,14.886295,53,54,71
14.886295,15.10058,56,54,71
15.10058,15.314866,65,54,71
16.172009,16.386293,55,54,71
16.386293,16.600578,53,54,71
16.600578,16.814865,56,54,71
16.814865,17.243435,60,54,71
17.457722,17.672007,58,54,71
17.672007,17.886292,56,54,71
17.886292,18.100578,60,54,71
18.100578,18.529148,63,54,71
18.529148,18.743435,62,54,71
18.743435,18.95772,65,54,71
18.95772,19.172005,68,54,71
19.814861,20.029148,51,54,71
20.029148,20.243433,58,54,71
20.243433,20.457718,61,54,71
21.100574,21.529146,53,54,71
21.529146,21.743431,51,54,71
21.743431,21.957716,56,84,71
21.957716,22.386288,60,84,71
22.386288,22.81486,53,84,71
22.81486,23.029144,51,84,71
23.029144,23.24343,60,84,71
23.24343,23.672,63,84,71
23.672,24.314857,51,84,71
24.314857,24.529142,53,84,71
24.529142,24.743427,55,84,71
24.743427,24.957714,58,84,71
24.957714,25.60057,56,84,71
25.60057,25.814856,58,84,71
25.814856,26.02914,60,84,71
26.02914,26.243427,63,84,71
26.243427,26.457712,61,84,71
26.457712,26.671997,58,84,71
26.671997,27.314854,51,84,71
27.314854,27.52914,61,84,71
27.52914,27.743425,60,84,71
27.743425,27.95771,56,84,71
27.95771,28.600567,51,84,71
28.600567,28.814852,63,84,71
28.814852,29.457708,63,84,71
29.457708,29.671995,65,84,71
29.671995,29.88628,67,84,71
29.88628,30.100565,70,84,71
30.100565,30.743422,68,84,71
30.743422,30.957708,70,84,71
30.957708,31.171993,72,84,71
31.171993,31.386278,75,84,71
31.386278,31.600565,68,84,71
31.600565,31.81485,70,84,71
31.81485,32.029137,72,84,71
32.029137,32.24342,75,84,71
32.24342,32.671993,80,84,71
32.671993,32.886276,73,84,71
32.886276,33.100563,75,84,71
33.100563,33.31485,77,84,71
33.31485,33.529133,80,84,71
33.529133,33.957706,68,84,71
33.957706,34.386276,82,84,71
34.386276,34.814846,80,84,71
35.243416,35.67199,82,84,71
35.67199,36.10056,80,84,71
39.100555,39.314842,50,54,71
39.314842,39.52913,56,54,71
39.52913,39.743412,62,54,71
39.743412,39.9577,68,54,71
39.9577,40.171986,77,54,71
40.38627,40.600555,68,54,71
40.600555,40.814842,65,54,71
40.814842,41.029125,56,54,71
41.029125,41.243412,53,54,71
41.243412,41.4577,58,54,71
41.88627,42.100555,55,54,71
42.100555,42.31484,53,54,71
42.31484,42.529125,56,54,71
42.529125,42.743412,60,54,71
42.743412,42.957695,63,54,71
43.17198,43.386265,55,54,71
43.386265,43.60055,56,54,71
43.60055,43.81484,60,54,71
43.81484,44.02912,63,54,71
44.02912,44.24341,68,54,71
44.24341,44.457695,77,54,71
44.457695,44.671978,75,54,71
44.671978,44.886265,74,54,71
44.886265,45.10055,72,54,71
45.10055,45.314835,68,54,71
45.314835,45.52912,65,54,71
45.52912,45.74341,84,54,71
45.74341,45.95769,82,54,71
45.95769,46.171978,80,54,71
46.171978,46.386265,77,54,71
46.386265,46.600548,73,54,71
46.600548,46.814835,67,54,71
46.814835,47.02912,68,54,71
47.02912,47.243404,73,54,71
47.243404,47.88626,72,54,71
47.88626,48.100548,63,54,71
48.100548,48.314835,68,54,71
48.314835,48.529118,77,54,71
48.529118,49.171974,75,54,71
49.171974,49.38626,51,54,71
49.38626,49.600548,56,54,71
49.600548,49.81483,61,54,71
49.81483,50.457687,60,54,71
50.457687,50.671974,51,54,71
50.671974,50.88626,56,54,71
50.88626,51.100544,65,54,71
51.100544,51.7434,63,54,71
51.7434,51.957687,51,54,71
51.957687,52.17197,56,54,71
52.17197,52.386257,61,54,71
52.386257,52.600544,60,54,71
52.600544,52.814827,65,54,71
52.814827,53.029114,63,54,71
53.029114,53.2434,70,54,71
53.2434,53.457684,68,54,71
53.457684,53.67197,73,54,71
53.67197,53.886257,72,54,71
53.886257,54.10054,75,54,71
54.10054,54.314827,74,54,71
54.314827,54.529114,77,54,71
54.529114,55.17197,75,54,71
55.17197,55.386253,73,54,71
55.386253,55.60054,70,54,71
55.60054,55.814827,75,54,71
55.814827,56.457684,79,54,71
56.457684,56.671967,75,54,71
56.671967,56.886253,73,54,71
56.886253,57.10054,77,54,71
57.10054,58.814823,80,54,71
58.814823,59.243393,60,54,71
59.243393,59.671967,56,54,71
59.671967,60.957676,55,54,71
60.957676,61.38625,56,84,71
62.24339,62.886246,51,84,71
62.886246,63.100533,53,84,71
63.100533,63.31482,55,84,71
63.31482,63.529102,58,84,71
63.529102,64.17196,56,84,71
64.17196,64.386246,58,84,71
64.386246,64.60053,60,84,71
64.60053,64.81482,63,84,71
64.81482,65.0291,61,84,71
65.0291,65.243385,58,84,71
65.243385,65.886246,51,84,71
65.886246,66.10053,61,84,71
66.10053,66.31481,60,84,71
66.31481,66.5291,56,84,71
66.5291,67.17196,51,84,71
67.17196,67.386246,63,84,71
67.386246,68.0291,63,84,71
68.0291,68.243385,65,84,71
68.243385,68.45767,67,84,71
68.45767,68.67196,70,84,71
68.67196,69.31481,68,84,71
69.31481,69.5291,70,84,71
69.5291,69.743385,72,84,71
69.743385,69.95767,75,84,71
69.95767,70.17195,68,84,71
70.17195,70.38624,70,84,71
70.38624,70.600525,72,84,71
70.600525,70.81481,75,84,71
70.81481,71.243385,80,84,71
71.243385,71.457664,73,84,71
71.457664,71.67195,75,84,71
71.67195,71.88624,77,84,71
71.88624,72.100525,80,84,71
72.100525,72.52909,68,84,71
72.52909,72.957664,82,84,71
72.957664,73.38624,80,84,71
73.814804,74.24338,82,84,71
74.24338,74.67195,80,84,71
77.67194,77.88623,50,54,71
77.88623,78.10052,56,54,71
78.10052,78.314804,62,54,71
78.314804,78.52909,68,54,71
78.52909,78.74338,77,54,71
78.95766,79.17194,68,54,71
79.17194,79.38623,65,54,71
79.38623,79.60052,56,54,71
79.60052,79.814804,53,54,71
79.814804,80.02909,58,54,71
80.45766,80.67194,55,54,71
80.67194,80.88623,53,54,71
80.88623,81.10052,56,54,71
81.10052,81.3148,60,54,71
81.3148,81.52908,63,54,71
81.74337,81.95766,55,54,71
81.95766,82.17194,56,54,71
82.17194,82.38623,60,54,71
82.38623,82.60051,63,54,71
82.60051,82.8148,68,54,71
82.8148,83.02908,77,54,71
83.02908,83.24337,75,54,71
83.24337,83.45766,74,54,71
83.45766,83.67194,72,54,71
83.67194,83.88622,68,54,71
83.88622,84.10051,65,54,71
84.10051,84.3148,84,54,71
84.3148,84.52908,82,54,71
84.52908,84.74337,80,54,71
84.74337,84.95766,77,54,71
84.95766,85.171936,73,54,71
85.171936,85.38622,67,54,71
85.38622,85.60051,68,54,71
85.60051,85.8148,73,54,71
85.8148,86.45765,72,54,71
86.45765,86.671936,63,54,71
86.671936,86.88622,68,54,71
86.88622,87.10051,77,54,71
87.10051,87.74336,75,54,71
87.74336,87.95765,51,54,71
87.95765,88.171936,56,54,71
88.171936,88.38622,61,54,71
88.38622,89.029076,60,54,71
89.029076,89.24336,51,54,71
89.24336,89.45765,56,54,71
89.45765,89.671936,65,54,71
89.671936,90.31479,63,54,71
90.31479,90.529076,51,54,71
90.529076,90.74336,56,54,71
90.74336,90.95765,61,54,71
90.95765,91.171936,60,54,71
91.171936,91.386215,65,54,71
91.386215,91.6005,63,54,71
91.6005,91.81479,70,54,71
91.81479,92.029076,68,54,71
92.029076,92.24336,73,54,71
92.24336,92.45765,72,54,71
92.45765,92.67193,75,54,71
92.67193,92.886215,74,54,71
92.886215,93.1005,77,54,71
93.1005,93.74336,75,54,71
93.74336,93.95764,73,54,71
93.95764,94.17193,70,54,71
94.17193,94.386215,75,54,71
94.386215,95.029076,79,54,71
95.029076,95.243355,75,54,71
95.243355,95.45764,73,54,71
95.45764,95.67193,77,54,71
95.67193,97.386215,80,54,71
97.386215,97.81478,60,54,71
97.81478,98.243355,56,54,71
98.243355,99.52907,55,54,71
99.52907,99.95764,56,54,71
100.81478,102.100494,53,54,71
102.100494,103.38621,53,54,71
103.38621,103.81478,53,54,71
103.81478,104.67192,52,54,71
104.67192,105.100494,53,54,71
105.100494,105.957634,50,54,71
105.957634,107.24335,51,54,71
107.24335,108.52906,51,54,71
108.52906,108.95763,51,54,71
108.95763,109.3862,52,54,71
109.3862,110.67191,53,44,71
110.67191,111.10049,52,44,71
116.24334,117.52905,51,44,71
117.52905,118.814766,51,44,71
118.814766,119.24333,51,44,71
119.24333,119.671906,52,44,71
119.671906,120.10048,53,54,71
120.10048,120.529045,51,54,71
120.529045,120.95762,50,54,71
120.95762,121.38619,51,54,71
122.24333,122.6719,67,54,71
122.6719,123.10047,68,54,71
123.10047,123.529045,70,54,71
123.529045,123.95761,72,54,71
123.95761,124.386185,78,54,71
124.386185,124.81476,77,54,71
124.81476,125.243324,75,64,71
125.243324,125.6719,73,64,71
125.6719,126.10047,72,64,71
126.10047,126.52904,70,64,71
126.52904,126.95761,71,54,71
126.95761,127.386185,68,54,71
127.386185,127.81475,70,54,71
127.81475,129.10046,71,54,71
129.10046,129.52904,70,54,71
129.52904,129.95761,74,54,71
129.95761,130.38618,72,54,71
130.38618,131.67189,70,54,71
131.67189,132.10046,71,54,71
132.10046,132.52904,68,54,71
132.52904,132.95761,70,54,71
132.95761,134.24332,71,54,71
134.24332,134.67189,71,54,71
134.67189,135.10046,75,54,71
135.10046,135.52904,73,54,71
135.52904,136.81474,71,54,71
136.81474,137.24332,72,54,71
137.24332,137.67189,68,54,71
137.67189,138.10046,70,54,71
138.10046,138.52902,72,54,71
138.52902,138.9576,68,54,71
138.9576,139.38617,70,54,71
139.38617,139.81474,72,54,71
139.81474,140.24332,75,54,71
140.24332,140.67189,73,54,71
140.67189,141.10045,72,54,71
141.10045,141.52902,77,54,71
141.52902,141.9576,79,54,71
141.9576,142.38617,80,54,71
142.38617,142.81474,79,54,71
142.81474,143.24332,77,54,71
143.24332,143.67188,75,54,71
143.67188,144.10045,73,54,71
144.10045,144.52902,72,54,71
144.52902,144.9576,70,54,71
144.9576,145.38617,73,54,71
145.38617,145.81474,72,54,71
145.81474,146.2433,68,54,71
146.2433,146.67188,72,54,71
146.67188,147.10045,70,54,71
147.10045,147.52902,68,54,71
147.52902,147.9576,67,54,71
147.9576,148.38615,65,54,71
148.38615,148.81473,63,54,71
148.81473,149.2433,61,54,71
149.2433,149.67188,60,54,71
149.67188,150.10045,58,54,71
150.10045,150.52902,65,54,71
150.52902,150.95758,63,44,71
150.95758,151.38615,62,44,71
151.38615,151.81473,61,44,71
151.81473,152.2433,60,44,71
152.2433,152.67188,55,44,71
152.67188,153.10045,61,44,71
153.10045,153.529,60,54,71
153.529,153.95758,58,54,71
153.95758,154.38615,55,54,71
154.38615,154.81473,53,54,71
155.67188,156.10043,67,54,71
156.10043,156.529,68,54,71
156.529,156.95758,70,54,71
156.95758,157.38615,72,54,71
157.38615,157.81473,78,54,71
157.81473,158.2433,77,54,71
158.2433,158.67186,75,64,71
158.67186,159.10043,73,64,71
159.10043,159.529,72,64,71
159.529,159.95758,70,64,71
159.95758,160.38615,71,54,71
160.38615,160.81473,68,54,71
160.81473,161.24329,70,54,71
161.24329,162.529,71,54,71
162.529,162.95758,70,54,71
162.95758,163.38615,74,54,71
163.38615,163.81471,72,54,71
163.81471,165.10043,70,54,71
165.10043,165.529,71,54,71
165.529,165.95757,68,54,71
165.95757,166.38614,70,54,71
166.38614,167.67186,71,54,71
167.67186,168.10043,71,54,71
168.10043,168.52899,75,54,71
168.52899,168.95757,73,54,71
168.95757,170.24329,71,54,71
170.24329,170.67186,72,54,71
170.67186,171.10042,68,54,71
171.10042,171.52899,70,54,71
171.52899,171.95757,72,54,71
171.95757,172.38614,68,54,71
172.38614,172.81471,70,54,71
172.81471,173.24329,72,54,71
173.24329,173.67184,75,54,71
173.67184,174.10042,73,54,71
174.10042,174.52899,72,54,71
174.52899,174.95757,77,54,71
174.95757,175.38614,79,54,71
175.38614,175.81471,80,54,71
175.81471,176.24327,79,54,71
176.24327,176.67184,77,54,71
176.67184,177.10042,75,54,71
177.10042,177.52899,73,54,71
177.52899,177.95757,72,54,71
177.95757,178.38614,70,54,71
178.38614,178.8147,73,54,71
178.8147,179.24327,72,54,71
179.24327,179.67184,68,54,71
179.67184,180.10042,72,54,71
180.10042,180.52899,70,54,71
180.52899,180.95755,68,54,71
180.95755,181.38612,67,54,71
181.38612,181.8147,65,54,71
181.8147,182.24327,63,54,71
182.24327,182.67184,61,54,71
182.67184,183.10042,60,54,71
183.10042,183.52898,58,54,71
183.52898,183.95755,65,54,71
183.95755,184.38612,63,44,71
184.38612,184.8147,62,44,71
184.8147,185.24327,61,44,71
185.24327,185.67184,60,44,71
185.67184,186.1004,55,44,71
186.1004,186.52898,61,44,71
186.52898,186.95755,60,44,71
186.95755,187.38612,58,44,71
187.38612,187.8147,55,44,71
187.8147,188.24327,53,44,71
190.38612,190.8147,68,54,71
190.8147,191.45755,77,54,71
191.45755,191.67183,75,54,71
191.67183,191.88612,74,54,71
191.88612,192.1004,70,54,71
192.1004,192.74326,72,54,71
192.74326,192.95755,70,54,71
192.95755,193.17183,68,54,71
193.17183,193.38612,65,54,71
193.38612,193.6004,67,54,71
193.6004,193.81468,70,54,71
193.81468,194.45755,75,54,71
194.45755,194.67183,65,54,71
194.67183,194.88611,67,54,71
194.88611,195.1004,70,54,71
195.1004,195.74326,75,54,71
195.74326,195.95755,68,54,71
195.95755,196.6004,77,54,71
196.6004,196.81468,75,54,71
196.81468,197.02898,74,54,71
197.02898,197.24326,70,54,71
197.24326,197.88611,72,54,71
197.88611,198.1004,70,54,71
198.1004,198.31468,75,54,71
198.31468,198.52896,67,54,71
198.52896,198.74326,68,54,71
198.74326,198.95753,65,54,71
198.95753,199.6004,68,54,71
199.6004,199.81468,63,54,71
199.81468,200.02896,68,54,71
200.02896,200.24326,65,54,71
200.24326,200.88611,68,54,71
210.95753,211.3861,63,84,71
211.3861,212.02896,51,84,71
212.02896,212.24324,53,84,71
212.24324,212.45752,55,84,71
212.45752,212.67181,58,84,71
212.67181,213.31467,56,84,71
213.31467,213.52896,58,84,71
213.52896,213.74324,60,84,71
213.74324,213.95752,63,84,71
213.95752,214.17181,61,84,71
214.17181,214.3861,58,84,71
214.3861,215.02895,51,84,71
215.02895,215.24324,61,84,71
215.24324,215.45752,60,84,71
215.45752,215.67181,56,84,71
215.67181,216.31467,51,84,71
216.31467,216.52895,63,84,71
216.52895,217.17181,63,84,71
217.17181,217.3861,65,84,71
217.3861,217.60037,67,84,71
217.60037,217.81467,70,84,71
217.81467,218.45752,68,84,71
218.45752,218.6718,70,84,71
218.6718,218.8861,72,84,71
218.8861,219.10037,75,84,71
219.10037,219.31467,68,84,71
219.31467,219.52895,70,84,71
219.52895,219.74324,72,84,71
219.74324,219.95752,75,84,71
219.95752,220.3861,80,84,71
220.3861,220.60037,73,84,71
220.60037,220.81467,75,84,71
220.81467,221.02895,77,84,71
221.02895,221.24323,80,84,71
221.24323,221.6718,68,84,71
221.6718,222.10037,82,84,71
222.10037,222.52895,80,84,71
222.95752,223.3861,82,84,71
223.3861,223.81465,80,84,71
226.81465,227.02895,50,54,71
227.02895,227.24323,56,54,71
227.24323,227.4575,62,54,71
227.4575,227.6718,68,54,71
227.6718,227.88608,77,54,71
228.10037,228.31465,68,54,71
228.31465,228.52895,65,54,71
228.52895,228.74323,56,54,71
228.74323,228.9575,53,54,71
228.9575,229.1718,58,54,71
229.60037,229.81465,55,54,71
229.81465,230.02893,53,54,71
230.02893,230.24323,56,54,71
230.24323,230.4575,60,54,71
230.4575,230.6718,63,54,71
230.88608,231.10036,55,54,71
231.10036,231.31465,56,54,71
231.31465,231.52893,60,54,71
231.52893,231.74323,63,54,71
231.74323,231.9575,68,54,71
231.9575,232.1718,77,54,71
232.1718,232.38608,75,54,71
232.38608,232.60036,74,54,71
232.60036,232.81465,72,54,71
232.81465,233.02893,68,54,71
233.02893,233.24323,65,54,71
233.24323,233.4575,84,54,71
233.4575,233.67178,82,54,71
233.67178,233.88608,80,54,71
233.88608,234.10036,77,54,71
234.10036,234.31465,73,54,71
234.31465,234.52893,67,54,71
234.52893,234.74323,68,54,71
234.74323,234.9575,73,54,71
234.9575,235.60036,72,54,71
235.60036,235.81465,63,54,71
235.81465,236.02893,68,54,71
236.02893,236.24321,77,54,71
236.24321,236.88608,75,54,71
236.88608,237.10036,51,54,71
237.10036,237.31465,56,54,71
237.31465,237.52893,61,54,71
237.52893,238.17178,60,54,71
238.17178,238.38608,51,54,71
238.38608,238.60036,56,54,71
238.60036,238.81464,65,54,71
238.81464,239.4575,63,54,71
239.4575,239.67178,51,54,71
239.67178,239.88606,56,54,71
239.88606,240.10036,61,54,71
240.10036,240.31464,60,54,71
240.31464,240.52893,65,54,71
240.52893,240.74321,63,54,71
240.74321,240.9575,70,54,71
240.9575,241.17178,68,54,71
241.17178,241.38606,73,54,71
241.38606,241.60036,72,54,71
241.60036,241.81464,75,54,71
241.81464,242.02893,74,54,71
242.02893,242.24321,77,54,71
242.24321,242.88606,75,54,71
242.88606,243.10036,73,54,71
243.10036,243.31464,70,54,71
243.31464,243.52893,75,54,71
243.52893,244.17178,79,54,71
244.17178,244.38606,75,54,71
244.38606,244.60036,73,54,71
244.60036,244.81464,77,54,71
244.81464,246.52892,80,54,71
246.52892,246.95749,60,54,71
246.95749,247.38606,56,54,71
247.38606,248.67177,55,54,71
248.67177,249.10034,56,54,71
0.52916664,0.5327381,33,127,0
0.9577377,0.9613091,33,127,0
1.3863087,1.3898801,33,127,0
2.6720216,3.0970213,68,54,0
3.0970213,3.5255923,34,54,0
3.5255923,3.868449,46,54,0
3.1005926,3.868449,56,54,0
3.1005926,3.868449,62,54,0
3.9541633,4.3827343,65,54,0
4.386306,4.8148766,38,54,0
4.8148766,5.1505904,46,54,0
4.386306,5.154162,53,54,0
4.386306,5.154162,56,54,0
5.2398763,5.668447,58,54,0
5.6720185,6.011304,51,54,0
5.6720185,6.011304,55,54,0
5.668447,6.011304,39,54,0
6.1005898,6.314875,53,54,0
6.314875,6.5291605,56,54,0
6.0970182,6.864875,32,54,0
6.1005898,6.868446,48,54,0
6.5291605,6.9041605,60,54,0
6.9577317,7.2934456,39,54,0
6.9577317,7.3327312,55,54,0
6.9577317,7.3327312,51,54,0
6.9577317,7.3327312,58,54,0
7.3863025,7.597017,56,54,0
7.6005883,7.811302,60,54,0
7.3827314,8.150588,51,54,0
7.3827314,8.150588,36,54,0
7.811302,8.189874,63,54,0
8.239873,8.668445,34,54,0
8.239873,8.918444,62,54,0
8.239873,8.922015,56,54,0
8.672015,9.011301,46,54,0
9.097015,9.525586,65,54,0
9.529158,9.957728,27,54,0
9.957728,10.293443,39,54,0
9.529158,10.297014,55,54,0
9.529158,10.297014,49,54,0
10.382729,10.814871,58,54,0
10.814871,11.150584,32,54,0
10.814871,11.243442,53,54,0
10.814871,11.243442,49,54,0
11.243442,11.454156,51,54,0
11.454156,11.672012,56,54,0
11.243442,12.007727,44,54,0
11.243442,12.011298,48,54,0
11.672012,12.047012,60,54,0
12.100584,12.439869,32,54,0
12.100584,12.525583,61,54,0
12.100584,12.529155,53,54,0
12.529155,12.739869,60,54,0
12.743441,12.954154,63,54,0
12.529155,13.297011,56,54,0
12.529155,13.297011,44,54,0
12.529155,13.297011,51,54,0
12.957726,13.329154,68,54,0
13.386296,13.814868,58,54,0
13.386296,13.814868,46,54,0
13.386296,14.025581,77,54,0
13.814868,14.154153,34,54,0
14.029153,14.239867,75,54,0
14.243439,14.454153,74,54,0
14.457725,14.614867,70,54,0
14.672009,15.09701,50,54,0
14.668438,15.09701,46,54,0
14.672009,15.314866,72,54,0
15.09701,15.439866,34,54,0
15.314866,15.529152,70,54,0
15.529152,15.739865,68,54,0
15.739865,15.900579,65,54,0
15.954151,16.168436,67,54,0
15.954151,16.293436,51,54,0
15.954151,16.293436,39,54,0
16.172009,16.382723,70,54,0
16.386293,16.975578,75,54,0
16.382723,17.15058,53,54,0
16.386293,17.15415,48,54,0
16.386293,17.15415,44,54,0
17.02915,17.239864,65,54,0
17.243435,17.45415,67,54,0
17.243435,17.57915,51,54,0
17.243435,17.57915,46,54,0
17.243435,17.57915,55,54,0
17.45415,17.672007,70,54,0
17.672007,18.25772,75,54,0
17.672007,18.43629,51,54,0
17.672007,18.43629,48,54,0
17.672007,18.43629,56,54,0
18.314863,18.525578,68,54,0
18.529148,18.95772,56,54,0
18.529148,18.95772,46,54,0
18.529148,19.168434,77,54,0
18.95772,19.297005,34,54,0
19.168434,19.382719,75,54,0
19.386292,19.597004,74,54,0
19.600576,19.757719,70,54,0
19.81129,20.150576,51,54,0
19.81129,20.154146,55,54,0
19.81129,20.454147,72,54,0
19.81129,20.454147,61,54,0
20.243433,20.579147,39,54,0
20.454147,20.672003,70,54,0
20.672003,20.882717,75,54,0
20.882717,21.043432,67,54,0
21.097004,21.311289,68,54,0
21.31486,21.525574,65,54,0
21.097004,21.525574,49,54,0
21.525574,22.118431,68,54,0
21.525574,22.29343,48,54,0
21.097004,22.297003,44,54,0
22.172003,22.382717,63,54,0
22.382717,22.597002,68,54,0
22.600573,22.811287,65,54,0
22.382717,22.811287,61,54,0
22.382717,22.811287,44,54,0
22.811287,23.154144,60,54,0
22.811287,23.154144,32,54,0
22.81486,23.186287,68,54,0
23.24343,23.454144,63,54,0
23.239859,23.454144,51,54,0
23.672,24.097,63,84,0
23.672,24.100573,75,84,0
23.672,24.100573,72,84,0
23.668428,24.436285,39,84,0
24.100573,24.439857,61,84,0
24.100573,24.439857,70,84,0
24.100573,24.439857,73,84,0
24.529142,24.739857,70,84,0
24.529142,24.868427,39,84,0
24.529142,24.868427,61,84,0
24.529142,24.868427,73,84,0
24.743427,24.90057,67,84,0
24.954142,25.386284,73,84,0
24.954142,25.386284,70,84,0
24.954142,25.386284,61,84,0
25.386284,25.721998,60,84,0
24.954142,25.721998,39,84,0
25.386284,25.721998,72,84,0
25.386284,25.72557,68,84,0
25.811285,26.02914,68,84,0
25.811285,26.02914,51,84,0
25.811285,26.15057,72,84,0
25.811285,26.15057,60,84,0
26.02914,26.186283,65,84,0
26.239855,26.668427,72,84,0
26.239855,26.668427,68,84,0
26.239855,26.882711,39,84,0
26.668427,27.011284,67,84,0
26.668427,27.011284,70,84,0
26.239855,27.043427,61,84,0
26.886284,27.100569,41,84,0
27.100569,27.311283,43,84,0
27.100569,27.314854,63,84,0
27.100569,27.314854,61,84,0
27.100569,27.314854,58,84,0
27.100569,27.436283,39,84,0
27.314854,27.475569,46,84,0
27.52914,27.95771,65,84,0
27.52914,27.95771,77,84,0
27.52914,28.168425,44,84,0
27.52914,28.20771,72,84,0
27.95771,28.296995,63,84,0
27.525568,28.296995,39,84,0
27.95771,28.296995,75,84,0
28.171997,28.386282,46,84,0
28.386282,28.596996,56,84,0
28.386282,28.596996,48,84,0
28.386282,28.600567,60,84,0
28.386282,28.600567,63,84,0
28.386282,28.721996,39,84,0
28.600567,28.75771,51,84,0
28.811281,29.029139,49,84,0
28.811281,29.150566,39,84,0
28.811281,29.243423,72,84,0
28.811281,29.243423,80,84,0
28.811281,29.243423,84,84,0
29.029139,29.243423,46,84,0
29.243423,29.579138,82,84,0
29.243423,29.582708,79,84,0
29.243423,29.582708,70,84,0
29.671995,29.88271,67,84,0
29.671995,29.88271,75,84,0
29.243423,29.88271,39,84,0
29.671995,29.88271,63,84,0
29.671995,29.88271,70,84,0
29.88271,30.043423,49,84,0
30.100565,30.31128,48,84,0
30.100565,30.43628,39,84,0
30.314852,30.525566,44,84,0
30.100565,30.529137,80,84,0
30.100565,30.529137,77,84,0
30.100565,30.529137,89,84,0
30.529137,30.864851,87,84,0
30.529137,30.868422,75,84,0
30.529137,30.868422,84,84,0
30.529137,31.16842,39,84,0
30.957708,31.171993,68,84,0
30.957708,31.171993,60,84,0
30.957708,31.171993,63,84,0
31.386278,31.811277,77,84,0
31.386278,31.811277,73,84,0
31.171993,32.025562,44,84,0
31.81485,32.154137,75,84,0
31.81485,32.154137,72,84,0
31.386278,32.154137,32,84,0
31.386278,32.154137,66,84,0
32.029137,32.24342,46,84,0
32.24342,32.457706,48,84,0
32.24342,32.579136,67,84,0
32.24342,32.579136,68,84,0
32.24342,32.579136,44,84,0
32.24342,32.579136,63,84,0
32.457706,32.61842,51,84,0
32.671993,33.096992,78,84,0
32.671993,33.100563,82,84,0
32.671993,33.100563,70,84,0
32.671993,33.311275,49,84,0
33.100563,33.436275,68,84,0
33.100563,33.436275,77,84,0
32.66842,33.436275,37,84,0
33.100563,33.436275,80,84,0
33.31485,33.525562,51,84,0
33.525562,33.74342,77,84,0
33.525562,33.74342,80,84,0
33.525562,33.74342,68,84,0
33.525562,33.74342,53,84,0
33.525562,33.86485,49,84,0
33.74342,33.900562,56,84,0
33.957706,34.17199,54,84,0
34.17199,34.386276,51,84,0
33.957706,34.600563,68,84,0
33.957706,34.600563,60,84,0
34.600563,34.811275,70,84,0
34.814846,35.025562,72,84,0
33.954132,35.154133,56,84,0
35.025562,35.186275,75,84,0
34.386276,35.186275,48,84,0
35.243416,35.454132,53,84,0
35.457703,35.66842,49,84,0
35.243416,35.8827,73,84,0
35.243416,35.886272,68,84,0
35.886272,36.10056,75,84,0
36.10056,36.314846,77,84,0
35.243416,36.436275,56,84,0
36.314846,36.47556,80,84,0
35.66842,36.47556,44,84,0
36.52913,36.957703,70,84,0
36.52913,36.957703,66,84,0
36.52913,37.20413,44,84,0
36.52913,37.20413,36,84,0
36.957703,37.293415,68,84,0
36.957703,37.293415,56,84,0
37.386272,37.81127,65,84,0
37.386272,37.814842,70,84,0
37.3827,38.06127,37,84,0
37.386272,38.064842,44,84,0
37.814842,38.15056,56,84,0
37.814842,38.15056,68,84,0
38.243416,38.671986,70,74,0
38.243416,38.671986,63,74,0
38.671986,39.011272,56,64,0
38.243416,39.011272,44,74,0
38.243416,39.011272,47,74,0
38.671986,39.011272,68,64,0
39.096985,39.52913,34,54,0
39.100555,39.743412,77,54,0
39.52913,39.868412,46,54,0
39.743412,39.9577,75,54,0
39.9577,40.16841,74,54,0
40.16841,40.32913,70,54,0
40.382698,40.811268,38,54,0
40.38627,41.025555,72,54,0
40.814842,41.150555,46,54,0
41.025555,41.243412,70,54,0
41.243412,41.4577,68,54,0
41.4577,41.618412,65,54,0
41.67198,41.882698,67,54,0
41.882698,42.100555,70,54,0
41.67198,42.100555,51,54,0
42.100555,42.686268,75,54,0
42.100555,42.864838,32,54,0
42.743412,42.954124,65,54,0
42.954124,43.17198,67,54,0
43.17198,43.382694,70,54,0
42.954124,43.382694,39,54,0
43.382694,44.02555,75,54,0
43.382694,44.15055,36,54,0
44.02912,44.186264,68,54,0
44.24341,44.454124,63,54,0
44.239838,44.668407,34,54,0
44.454124,44.671978,53,54,0
44.671978,44.886265,56,54,0
44.671978,45.007694,46,54,0
44.886265,45.10055,63,54,0
45.10055,45.311264,62,54,0
45.311264,45.471977,56,54,0
45.52912,45.739838,73,54,0
45.74341,45.95412,61,54,0
45.52555,45.95412,39,54,0
45.95412,46.168407,65,54,0
45.95412,46.293407,51,54,0
46.168407,46.386265,68,54,0
46.386265,46.600548,67,54,0
46.600548,46.761265,63,54,0
46.814835,47.025547,61,54,0
47.025547,47.243404,56,54,0
46.814835,47.243404,65,54,0
46.814835,47.45412,32,54,0
47.243404,47.57912,63,54,0
47.243404,47.614834,60,54,0
47.45769,47.668404,39,54,0
47.671978,47.88269,44,54,0
47.88269,48.043404,39,54,0
48.100548,48.314835,53,54,0
48.314835,48.525547,56,54,0
48.100548,48.525547,61,54,0
48.096977,48.739834,32,54,0
48.529118,48.868404,60,54,0
48.529118,48.900547,51,54,0
48.743404,48.954117,39,54,0
48.954117,49.168404,44,54,0
49.171974,49.329117,39,54,0
49.38626,49.596973,73,54,0
49.596973,49.81126,68,54,0
49.38626,49.81483,77,54,0
49.38269,50.029118,32,54,0
49.81483,50.150547,75,54,0
49.81483,50.18983,72,54,0
50.029118,50.243404,39,54,0
50.243404,50.454117,44,54,0
50.454117,50.61483,39,54,0
50.671974,50.882687,65,54,0
50.88626,51.096973,68,54,0
50.671974,51.096973,73,54,0
50.671974,51.31126,32,54,0
51.096973,51.43626,72,54,0
51.096973,51.471973,63,54,0
51.31483,51.525543,39,54,0
51.525543,51.7434,44,54,0
51.7434,51.904114,39,54,0
54.529114,54.954113,72,54,0
54.529114,54.954113,56,54,0
54.529114,54.954113,68,54,0
54.529114,54.954113,60,54,0
54.954113,55.29697,67,54,0
54.529114,55.29697,51,54,0
54.954113,55.29697,58,54,0
54.529114,55.29697,63,54,0
54.954113,55.29697,55,54,0
54.954113,55.29697,70,54,0
55.811253,56.239826,75,54,0
55.811253,56.243397,63,54,0
55.811253,56.243397,72,54,0
55.811253,56.243397,60,54,0
56.243397,56.57911,61,54,0
56.243397,56.57911,70,54,0
55.811253,56.57911,51,54,0
56.243397,56.57911,58,54,0
56.243397,56.57911,73,54,0
57.10054,57.52554,68,54,0
57.10054,57.52554,77,54,0
57.10054,57.52554,65,54,0
57.10054,57.52911,80,54,0
57.52911,57.95411,67,54,0
57.52911,57.95768,63,54,0
57.52911,57.95768,79,54,0
57.52911,57.95768,75,54,0
57.95768,58.38268,73,54,0
57.95768,58.38268,61,54,0
57.95768,58.386253,77,54,0
57.95768,58.386253,65,54,0
58.386253,58.725536,63,54,0
58.386253,58.725536,75,54,0
57.096966,58.725536,56,54,0
58.386253,58.725536,72,54,0
58.386253,58.725536,60,54,0
59.025536,59.243393,53,54,0
58.814823,59.243393,32,54,0
59.243393,59.45411,51,54,0
59.45411,59.671967,56,54,0
59.243393,59.671967,36,54,0
59.671967,60.096966,61,54,0
59.671967,60.100536,53,54,0
60.100536,60.525536,51,54,0
60.100536,60.529106,60,54,0
60.529106,60.957676,58,54,0
60.529106,60.957676,49,54,0
60.957676,61.296963,56,54,0
60.957676,61.296963,44,54,0
59.671967,61.38268,39,54,0
61.38625,61.721962,32,54,0
61.81125,62.029106,63,84,0
61.81125,62.029106,51,84,0
62.24339,62.66839,63,84,0
62.24339,62.671963,75,84,0
62.24339,62.671963,72,84,0
62.23982,63.007675,39,84,0
62.671963,63.011246,61,84,0
62.671963,63.011246,70,84,0
62.671963,63.011246,73,84,0
63.100533,63.311245,70,84,0
63.100533,63.43982,39,84,0
63.100533,63.43982,61,84,0
63.100533,63.43982,73,84,0
63.31482,63.471962,67,84,0
63.529102,63.9541,73,84,0
63.529102,63.9541,70,84,0
63.529102,63.9541,61,84,0
63.52553,64.29339,39,84,0
63.9541,64.29696,72,84,0
63.9541,64.29696,60,84,0
63.9541,64.29696,68,84,0
64.386246,64.60053,68,84,0
64.386246,64.60053,51,84,0
64.386246,64.72553,72,84,0
64.386246,64.72553,60,84,0
64.60053,64.757675,65,84,0
64.81482,65.239815,72,84,0
64.81482,65.239815,68,84,0
64.81482,65.4541,39,84,0
65.239815,65.5791,67,84,0
65.239815,65.5791,70,84,0
64.81482,65.614815,61,84,0
65.4541,65.66839,41,84,0
65.66839,65.882675,43,84,0
65.66839,65.886246,63,84,0
65.66839,65.886246,61,84,0
65.66839,65.886246,58,84,0
65.66839,66.011246,39,84,0
65.886246,66.04696,46,84,0
66.10053,66.5291,65,84,0
66.10053,66.5291,77,84,0
66.10053,66.739815,44,84,0
66.10053,66.7791,72,84,0
66.5291,66.868385,63,84,0
66.09696,66.868385,39,84,0
66.5291,66.868385,75,84,0
66.743385,66.95767,46,84,0
66.95767,67.16839,48,84,0
66.95767,67.17196,63,84,0
66.95767,67.17196,60,84,0
66.95767,67.17196,56,84,0
66.95767,67.29339,39,84,0
67.17196,67.3291,51,84,0
67.386246,67.600525,49,84,0
67.38267,67.721954,39,84,0
67.386246,67.81481,72,84,0
67.386246,67.81481,80,84,0
67.386246,67.81481,84,84,0
67.600525,67.81481,46,84,0
67.81481,68.15053,79,84,0
67.81481,68.15053,70,84,0
67.81481,68.15053,82,84,0
68.243385,68.45767,67,84,0
68.243385,68.45767,75,84,0
67.81481,68.45767,39,84,0
68.243385,68.45767,63,84,0
68.243385,68.45767,70,84,0
68.45767,68.614815,49,84,0
68.67196,68.88624,48,84,0
68.67196,69.00767,39,84,0
68.88624,69.096954,44,84,0
68.67196,69.096954,77,84,0
68.67196,69.100525,80,84,0
68.67196,69.100525,89,84,0
69.100525,69.43624,87,84,0
69.100525,69.43981,75,84,0
69.100525,69.43981,84,84,0
69.5291,69.739815,63,84,0
69.100525,69.739815,39,84,0
69.5291,69.739815,68,84,0
69.5291,69.739815,60,84,0
69.95767,70.38267,77,84,0
69.95767,70.38267,73,84,0
69.739815,70.596954,44,84,0
70.38267,70.725525,75,84,0
70.38267,70.725525,72,84,0
69.95767,70.725525,32,84,0
69.95767,70.725525,66,84,0
70.596954,70.81124,46,84,0
70.81481,71.0291,48,84,0
70.81481,71.15053,67,84,0
70.81481,71.15053,68,84,0
70.81481,71.15053,44,84,0
70.81481,71.15053,63,84,0
71.0291,71.18981,51,84,0
71.243385,71.66838,82,84,0
71.243385,71.66838,78,84,0
71.243385,71.67195,70,84,0
71.243385,71.88267,49,84,0
71.67195,72.00767,68,84,0
71.67195,72.00767,77,84,0
71.23981,72.00767,37,84,0
71.67195,72.00767,80,84,0
71.88624,72.100525,51,84,0
72.100525,72.31124,68,84,0
72.100525,72.31124,80,84,0
72.100525,72.31124,53,84,0
72.100525,72.31481,77,84,0
72.100525,72.43624,49,84,0
72.31481,72.471954,56,84,0
72.52909,72.74338,54,84,0
72.74338,72.957664,51,84,0
72.52909,73.17195,68,84,0
72.52909,73.17195,60,84,0
73.17195,73.38267,70,84,0
73.38267,73.596954,72,84,0
72.52552,73.725525,56,84,0
73.600525,73.75767,75,84,0
72.957664,73.75767,48,84,0
73.814804,74.02552,53,84,0
74.02552,74.23981,49,84,0
73.814804,74.454094,68,84,0
73.814804,74.454094,73,84,0
74.454094,74.67195,75,84,0
74.67195,74.88267,77,84,0
73.814804,75.01124,56,84,0
74.88624,75.04695,80,84,0
74.23981,75.04695,44,84,0
75.10052,75.52552,70,84,0
75.10052,75.52552,66,84,0
75.10052,75.77909,44,84,0
75.10052,75.77909,36,84,0
75.52552,75.86481,68,84,0
75.52552,75.86481,56,84,0
75.957664,76.38266,70,84,0
75.957664,76.38266,65,84,0
75.954094,76.63266,37,84,0
75.957664,76.63623,44,84,0
76.38266,76.72195,56,84,0
76.38266,76.72195,68,84,0
76.814804,77.23981,63,74,0
76.814804,77.24338,70,74,0
77.24338,77.582664,56,64,0
76.814804,77.582664,44,74,0
76.814804,77.582664,47,74,0
77.24338,77.582664,68,64,0
77.66837,78.10052,34,54,0
77.66837,78.314804,77,54,0
78.10052,78.439804,46,54,0
78.314804,78.52552,75,54,0
78.52552,78.7398,74,54,0
78.74338,78.90052,70,54,0
78.95409,79.38266,38,54,0
78.95766,79.60052,72,54,0
79.38266,79.72195,46,54,0
79.60052,79.814804,70,54,0
79.814804,80.02909,68,54,0
80.02909,80.189804,65,54,0
80.2398,80.45409,67,54,0
80.45766,80.66837,70,54,0
80.2398,80.66837,51,54,0
80.67194,81.25766,75,54,0
80.67194,81.436226,32,54,0
81.3148,81.52908,65,54,0
81.52908,81.74337,67,54,0
81.74337,81.95766,70,54,0
81.52908,81.95766,39,54,0
81.95766,82.59694,75,54,0
81.95766,82.72194,36,54,0
82.60051,82.75765,68,54,0
82.811226,83.02908,63,54,0
82.811226,83.2398,34,54,0
83.02908,83.24337,53,54,0
83.24337,83.45766,56,54,0
83.24337,83.58266,46,54,0
83.45766,83.668365,63,54,0
83.668365,83.88265,62,54,0
83.88265,84.043365,56,54,0
84.10051,84.311226,73,54,0
84.09694,84.52551,39,54,0
84.3148,84.52908,61,54,0
84.52908,84.74337,65,54,0
84.52908,84.8648,51,54,0
84.74337,84.95766,68,54,0
84.95766,85.171936,67,54,0
85.171936,85.33266,63,54,0
85.38622,85.59694,61,54,0
85.59694,85.8148,56,54,0
85.38622,85.8148,65,54,0
85.38622,86.02551,32,54,0
85.8148,86.15051,63,54,0
85.8148,86.186226,60,54,0
86.02908,86.23979,39,54,0
86.23979,86.45408,44,54,0
86.45408,86.61479,39,54,0
86.671936,86.88622,53,54,0
86.88622,87.10051,56,54,0
86.671936,87.10051,61,54,0
86.671936,87.311226,32,54,0
87.10051,87.4398,60,54,0
87.10051,87.47194,51,54,0
87.3148,87.525505,39,54,0
87.52908,87.73979,44,54,0
87.74336,87.900505,39,54,0
87.95765,88.168365,73,54,0
88.168365,88.38265,68,54,0
87.95765,88.38622,77,54,0
87.95408,88.60051,32,54,0
88.38622,88.72551,75,54,0
88.38622,88.76122,72,54,0
88.60051,88.81122,39,54,0
88.81122,89.025505,44,54,0
89.025505,89.18622,39,54,0
89.23979,89.45408,65,54,0
89.45765,89.668365,68,54,0
89.23979,89.668365,73,54,0
89.23979,89.88265,32,54,0
89.668365,90.00765,72,54,0
89.668365,90.043365,63,54,0
89.88265,90.1005,39,54,0
90.1005,90.31479,44,54,0
90.31479,90.4755,39,54,0
93.1005,93.529076,72,54,0
93.1005,93.529076,56,54,0
93.1005,93.529076,68,54,0
93.1005,93.529076,60,54,0
93.529076,93.86836,67,54,0
93.1005,93.86836,51,54,0
93.529076,93.86836,58,54,0
93.1005,93.86836,63,54,0
93.529076,93.86836,55,54,0
93.529076,93.86836,70,54,0
94.386215,94.81122,75,54,0
94.386215,94.81479,63,54,0
94.386215,94.81479,72,54,0
94.386215,94.81479,60,54,0
94.81479,95.154076,61,54,0
94.81479,95.154076,70,54,0
94.386215,95.154076,51,54,0
94.81479,95.154076,58,54,0
94.81479,95.154076,73,54,0
95.67193,96.09693,65,54,0
95.67193,96.1005,68,54,0
95.67193,96.1005,80,54,0
95.67193,96.1005,77,54,0
96.1005,96.5255,67,54,0
96.1005,96.52907,63,54,0
96.1005,96.52907,79,54,0
96.1005,96.52907,75,54,0
96.52907,96.95764,77,54,0
96.52907,96.95764,73,54,0
96.52907,96.95764,65,54,0
96.52907,96.95764,61,54,0
96.95764,97.29693,63,54,0
96.95764,97.29693,75,54,0
95.66836,97.29693,56,54,0
96.95764,97.29693,72,54,0
96.95764,97.29693,60,54,0
97.596924,97.81478,53,54,0
97.382645,97.81478,32,54,0
97.81478,98.0255,51,54,0
98.02907,98.243355,56,54,0
97.81478,98.243355,36,54,0
98.243355,98.66836,61,54,0
98.243355,98.67193,53,54,0
98.67193,99.096924,60,54,0
98.67193,99.096924,51,54,0
99.096924,99.52907,58,54,0
99.096924,99.52907,49,54,0
99.52907,99.868355,56,54,0
99.52907,99.868355,44,54,0
98.243355,99.95407,39,54,0
99.95764,100.29335,32,54,0
100.81121,101.23978,77,54,0
101.0255,101.457634,80,54,0
101.0255,101.457634,92,54,0
101.243355,101.66835,75,54,0
101.457634,101.88264,91,54,0
101.457634,101.88621,79,54,0
101.67192,102.100494,73,54,0
101.88621,102.31121,89,54,0
101.88621,102.31478,77,54,0
102.100494,102.52907,72,54,0
102.31478,102.74335,75,54,0
102.31478,102.74335,87,54,0
102.52907,102.95406,70,54,0
102.74335,103.17192,73,54,0
102.74335,103.17192,85,54,0
102.95406,103.38264,68,54,0
103.17192,103.596924,72,54,0
103.17192,103.596924,84,54,0
103.38621,103.8112,67,54,0
103.596924,104.02549,70,54,0
103.596924,104.02906,82,54,0
103.8112,104.24335,58,54,0
104.02906,104.45406,73,54,0
104.02906,104.45406,85,54,0
104.24335,104.66835,67,54,0
104.45406,104.88621,84,54,0
104.45406,104.88621,72,54,0
104.66835,105.09692,60,54,0
104.88621,105.3112,68,54,0
104.88621,105.3112,80,54,0
105.100494,105.52549,56,54,0
105.3112,105.73978,72,54,0
105.3112,105.74335,84,54,0
105.52549,105.86478,65,54,0
105.74335,106.16835,70,54,0
105.74335,106.16835,82,54,0
105.957634,106.38263,58,54,0
106.16835,106.60049,68,54,0
106.16835,106.60049,80,54,0
106.38263,106.8112,63,54,0
106.60049,107.02549,67,54,0
106.60049,107.02549,79,54,0
106.81477,107.23978,61,54,0
107.02549,107.45406,77,54,0
107.02906,107.457634,65,54,0
107.23978,107.67191,60,54,0
107.457634,107.88263,63,54,0
107.457634,107.88263,75,54,0
107.67191,108.09692,58,54,0
107.8862,108.31477,73,54,0
107.8862,108.31477,61,54,0
108.10049,108.52549,56,54,0
108.31477,108.73977,72,54,0
108.31477,108.73977,60,54,0
108.73977,108.95763,58,54,0
108.52906,108.95763,55,54,0
108.95763,109.16834,58,54,0
108.73977,109.17191,70,54,0
109.17191,109.59692,61,54,0
109.17191,109.59692,73,54,0
109.3862,109.8112,56,54,0
109.59692,110.02906,60,54,0
109.59692,110.02906,72,54,0
109.8112,110.23977,41,54,0
110.02906,110.454056,56,54,0
110.02906,110.454056,68,54,0
110.24334,110.66834,44,54,0
110.454056,110.88263,65,54,0
110.454056,110.8862,56,54,0
110.66834,111.00763,48,54,0
110.8862,111.04691,60,54,0
110.8862,111.04691,55,54,0
111.10049,111.52548,77,44,0
111.31477,111.74334,80,44,0
111.31477,111.74334,92,44,0
111.52548,111.954056,75,44,0
111.74334,112.16834,79,44,0
111.74334,112.16834,91,44,0
111.10049,112.29334,65,44,0
111.95763,112.38263,73,44,0
112.16834,112.59691,89,44,0
112.16834,112.60049,77,44,0
112.3862,112.814766,72,44,0
112.60049,113.02548,75,44,0
112.60049,113.02548,87,44,0
112.814766,113.23977,70,44,0
113.02548,113.45763,85,44,0
113.02548,113.45763,73,44,0
112.3862,113.58263,65,44,0
113.23977,113.58263,68,44,0
113.45763,113.88262,84,44,0
113.45763,113.88262,72,44,0
113.67191,114.09691,65,44,0
113.88262,114.311195,82,44,0
113.8862,114.314766,70,44,0
114.10048,114.52905,63,44,0
114.314766,114.73977,73,44,0
114.314766,114.73977,85,44,0
113.66834,114.86477,67,44,0
114.52905,114.86477,64,44,0
114.74334,115.171906,84,44,0
114.74334,115.171906,72,44,0
114.95763,115.38262,65,44,0
115.171906,115.59691,80,44,0
115.171906,115.59691,68,44,0
115.38619,115.811195,61,44,0
115.59691,116.02548,84,44,0
115.59691,116.02905,72,44,0
115.814766,116.15405,62,44,0
116.02905,116.45405,70,44,0
116.02905,116.45405,82,44,0
116.24334,116.671906,58,44,0
116.24334,116.671906,65,44,0
116.45762,116.88619,68,44,0
116.45762,116.88619,80,44,0
116.671906,117.09691,63,44,0
116.88619,117.311195,67,44,0
116.88619,117.314766,79,44,0
117.10048,117.525475,61,44,0
117.314766,117.73976,65,44,0
117.314766,117.74333,77,44,0
117.52905,117.95762,60,44,0
117.74333,118.168335,63,44,0
117.74333,118.168335,75,44,0
117.95762,118.38619,58,44,0
118.168335,118.60048,73,44,0
118.168335,118.60048,61,44,0
118.38619,118.81119,56,44,0
118.60048,119.025475,72,44,0
118.60048,119.025475,60,44,0
118.814766,119.23976,55,44,0
119.029045,119.24333,58,44,0
119.24333,119.45405,58,44,0
119.029045,119.45762,70,44,0
119.45762,119.88262,61,44,0
119.45762,119.88619,73,44,0
119.671906,120.10048,56,44,0
119.88619,120.31476,60,44,0
119.88619,120.31476,72,44,0
120.10048,120.525475,41,44,0
120.31476,120.74333,56,44,0
120.31476,120.74333,68,44,0
120.525475,120.95405,46,44,0
120.74333,121.168335,56,44,0
120.74333,121.171906,65,44,0
120.95762,121.293335,39,44,0
121.171906,121.32905,63,44,0
121.171906,121.33262,55,44,0
121.38619,121.81476,61,54,0
121.60047,122.025475,64,54,0
121.81476,122.23976,60,54,0
122.029045,122.45405,63,54,0
121.38619,122.57905,51,54,0
122.23976,122.66833,58,54,0
122.45762,122.882614,61,54,0
122.6719,123.0969,56,54,0
122.882614,123.31476,60,54,0
123.0969,123.529045,55,54,0
123.31476,123.73976,58,54,0
123.529045,123.86833,54,54,0
122.6719,123.86833,51,54,0
123.73976,123.900475,57,54,0
123.95404,124.382614,48,54,0
124.16833,124.5969,69,54,0
124.386185,124.7219,49,54,0
123.95404,124.7219,44,54,0
124.5969,125.029045,68,54,0
124.81119,125.15047,51,54,0
124.81476,125.154045,44,54,0
124.81476,125.154045,36,54,0
125.029045,125.45404,66,54,0
125.243324,125.6719,53,54,0
125.243324,125.6719,37,54,0
125.45404,125.882614,65,54,0
125.6719,126.0969,54,54,0
125.6719,126.0969,39,54,0
125.886185,126.31118,63,54,0
125.243324,126.43976,44,54,0
126.0969,126.43976,40,54,0
126.0969,126.43976,55,54,0
126.31476,126.47547,61,54,0
126.52904,127.761185,56,64,0
126.52547,127.761185,41,64,0
126.52904,127.761185,44,64,0
126.52904,127.761185,62,64,0
127.81118,128.23975,56,54,0
128.23975,128.67189,53,54,0
128.67189,129.01118,55,54,0
127.81118,129.04332,41,64,0
127.81118,129.04332,62,64,0
127.81475,129.04332,44,64,0
129.10046,130.32904,41,54,0
129.10046,130.33261,46,54,0
129.10046,130.33261,56,54,0
129.10046,130.33261,62,54,0
130.38261,130.81117,56,54,0
130.81117,131.23975,53,54,0
131.24332,131.57904,55,54,0
130.38261,131.61475,41,54,0
130.38261,131.61475,46,54,0
130.38261,131.61475,62,54,0
131.67189,132.90404,62,54,0
131.66832,132.90404,44,54,0
131.67189,132.90404,40,54,0
131.67189,132.90404,56,54,0
132.95761,133.3826,56,54,0
133.3826,133.81474,52,54,0
133.81474,134.15404,54,54,0
132.95761,134.18617,44,54,0
132.95761,134.18617,40,54,0
132.95761,134.18617,62,54,0
134.24332,135.4719,61,54,0
134.24332,135.47546,56,54,0
134.24332,135.47546,49,54,0
134.24332,135.47546,41,54,0
135.52547,135.95403,56,54,0
135.9576,136.3826,53,54,0
136.38617,136.7219,55,54,0
135.52904,136.7576,61,54,0
135.52904,136.7576,49,54,0
135.52904,136.7576,41,54,0
136.81117,137.23975,56,54,0
136.81474,137.24332,60,54,0
137.24332,137.67189,56,54,0
137.24332,137.67189,53,54,0
137.67189,138.01117,58,54,0
137.67189,138.01117,55,54,0
136.81474,138.04689,41,54,0
136.81474,138.04689,48,54,0
138.0969,138.52902,72,54,0
138.0969,138.52902,44,54,0
138.0969,138.52902,48,54,0
138.0969,138.52902,41,54,0
138.0969,138.52902,60,54,0
138.0969,138.52902,68,54,0
138.52902,138.95403,41,54,0
138.52902,138.9576,72,54,0
138.52902,138.9576,44,54,0
138.52902,138.9576,63,54,0
138.52902,138.9576,75,54,0
138.9576,139.29689,70,54,0
138.9576,139.29689,61,54,0
138.9576,139.29689,46,54,0
138.9576,139.29689,43,54,0
138.9576,139.29689,73,54,0
139.38617,139.81474,68,54,0
139.38617,139.81474,48,54,0
139.38617,139.81474,44,54,0
139.3826,139.81474,41,54,0
139.38617,139.81474,72,54,0
139.38617,139.81474,60,54,0
139.81474,140.23975,63,54,0
139.81474,140.23975,60,54,0
139.81474,140.24332,68,54,0
139.81474,140.24332,65,54,0
140.24332,140.57903,67,54,0
139.81474,140.57903,53,54,0
140.24332,140.57903,70,54,0
140.24332,140.67189,58,54,0
140.24332,140.67189,61,54,0
140.67189,141.0076,53,54,0
140.67189,141.01117,60,54,0
140.67189,141.01117,56,54,0
140.67189,141.09688,68,54,0
140.67189,141.10045,72,54,0
141.10045,141.52902,75,54,0
141.10045,141.52902,72,54,0
141.52902,141.86832,70,54,0
141.10045,141.86832,53,54,0
141.10045,141.86832,65,54,0
141.52902,141.86832,73,54,0
141.9576,142.3826,68,54,0
141.9576,142.38617,72,54,0
142.17188,142.59688,77,54,0
142.17188,142.59688,89,54,0
141.95403,142.72188,65,54,0
142.38617,142.81117,70,54,0
142.38617,142.81117,67,54,0
142.59688,143.02902,87,54,0
142.59688,143.02902,75,54,0
142.81117,143.24332,65,54,0
142.81117,143.24332,68,54,0
143.02902,143.45403,85,54,0
143.02902,143.4576,73,54,0
143.24332,143.6683,67,54,0
143.24332,143.6683,63,54,0
143.4576,143.8826,84,54,0
143.4576,143.88617,72,54,0
143.6683,144.09688,61,54,0
143.6683,144.10045,65,54,0
143.88617,144.31474,82,54,0
143.88617,144.31474,70,54,0
143.24332,144.43617,53,54,0
144.10045,144.43974,60,54,0
144.10045,144.43974,63,54,0
144.31474,144.7433,80,54,0
144.31474,144.7433,68,54,0
144.52902,144.9576,58,54,0
144.52902,144.9576,53,54,0
144.7433,145.17188,79,54,0
144.7433,145.17188,67,54,0
144.52902,145.2933,61,54,0
144.9576,145.38617,55,54,0
144.9576,145.38617,52,54,0
145.17188,145.59688,70,54,0
145.17188,145.60045,82,54,0
145.38617,145.72188,60,54,0
145.38617,145.81116,55,54,0
145.38617,145.81474,58,54,0
145.60045,146.02545,64,54,0
145.60045,146.02902,76,54,0
145.81474,146.23973,53,54,0
145.81474,146.23973,56,54,0
146.02902,146.4576,77,54,0
146.02902,146.4576,65,54,0
145.81474,146.5826,60,54,0
146.23973,146.67188,50,54,0
146.23973,146.67188,53,54,0
146.4576,146.88617,80,54,0
146.4576,146.88617,68,54,0
146.67188,147.10045,58,54,0
146.67188,147.10045,56,54,0
146.67188,147.10045,53,54,0
146.88617,147.31116,62,54,0
146.88617,147.31473,74,54,0
147.10045,147.52545,56,54,0
147.10045,147.52902,60,54,0
147.31473,147.73973,65,54,0
147.31473,147.7433,77,54,0
147.52902,147.95403,58,54,0
147.52902,147.95403,55,54,0
147.7433,148.17188,75,54,0
147.7433,148.17188,63,54,0
147.10045,148.29688,51,54,0
147.9576,148.38615,53,54,0
147.9576,148.38615,56,54,0
148.17188,148.60045,61,54,0
148.17188,148.60045,73,54,0
148.38615,148.81116,51,54,0
148.38615,148.81116,55,54,0
148.60045,149.02545,60,54,0
148.60045,149.02902,72,54,0
148.81116,149.23973,49,54,0
148.81116,149.23973,53,54,0
149.02902,149.45403,70,54,0
149.02902,149.4576,58,54,0
149.23973,149.6683,51,54,0
149.23973,149.67188,39,54,0
149.23973,149.67188,48,54,0
149.4576,149.88615,68,54,0
149.4576,149.88615,56,54,0
149.67188,150.09688,38,54,0
149.88615,150.31473,65,54,0
149.88615,150.31473,53,54,0
149.67188,150.43616,46,54,0
150.09688,150.52545,37,54,0
150.31473,150.73973,55,54,0
150.31473,150.7433,67,54,0
150.52902,150.95401,48,54,0
150.52902,150.95758,36,54,0
150.7433,151.07901,68,54,0
150.7433,151.08258,56,54,0
150.95758,151.38258,46,54,0
150.95758,151.38258,34,54,0
151.17188,151.60045,56,54,0
151.17188,151.60045,53,54,0
151.38258,151.81473,43,54,0
151.38258,151.81473,31,54,0
151.60045,152.02902,58,54,0
151.60045,152.02902,52,54,0
151.81473,152.15402,44,54,0
151.81473,152.15402,32,54,0
152.02902,152.18616,51,44,0
152.02902,152.18616,60,44,0
152.23973,152.6683,34,44,0
152.2433,152.67188,46,44,0
152.45401,152.88258,49,44,0
152.45758,152.88615,61,44,0
152.67188,153.10045,40,44,0
152.88615,153.31116,55,44,0
152.88615,153.31116,58,44,0
153.10045,153.52544,41,44,0
153.31116,153.7433,53,44,0
153.31116,153.7433,56,44,0
153.52544,153.95401,34,44,0
153.7433,154.1683,55,44,0
153.7433,154.1683,53,44,0
153.95758,154.38258,36,44,0
154.1683,154.59686,55,44,0
154.1683,154.59686,51,44,0
154.38258,154.72186,29,44,0
154.59686,154.76115,53,44,0
154.81473,155.23973,61,54,0
155.02544,155.45401,64,54,0
155.2433,155.6683,60,54,0
155.45758,155.88258,63,54,0
154.81473,156.00758,51,54,0
155.67188,156.09686,58,54,0
155.88615,156.31473,61,54,0
156.10043,156.529,56,54,0
156.31473,156.7433,60,54,0
156.529,156.95401,55,54,0
156.7433,157.16829,58,54,0
156.95401,157.29686,54,54,0
156.10043,157.29686,51,54,0
157.17186,157.32901,57,54,0
157.38615,157.81116,48,54,0
157.59686,158.029,69,54,0
157.38258,158.15044,44,54,0
157.81116,158.154,49,54,0
158.029,158.45758,68,54,0
158.23973,158.57901,51,54,0
158.23973,158.58258,44,54,0
158.23973,158.58258,36,54,0
158.45758,158.88258,66,54,0
158.67186,159.10043,53,54,0
158.67186,159.10043,37,54,0
158.88258,159.31116,65,54,0
159.10043,159.52544,39,54,0
159.10043,159.529,54,54,0
159.31473,159.73972,63,54,0
158.67186,159.86472,44,54,0
159.529,159.86472,40,54,0
159.529,159.86472,55,54,0
159.73972,159.90044,61,54,0
159.95758,161.18973,56,64,0
159.95401,161.18973,41,64,0
159.95758,161.18973,44,64,0
159.95758,161.18973,62,64,0
161.23972,161.67186,56,54,0
161.67186,162.09686,53,54,0
162.10043,162.43971,55,54,0
161.24329,162.47543,41,64,0
161.24329,162.47543,62,64,0
161.24329,162.47543,44,64,0
162.529,163.75757,41,54,0
162.529,163.76114,46,54,0
162.529,163.76114,56,54,0
162.529,163.76114,62,54,0
163.81471,164.23972,56,54,0
164.24329,164.66829,53,54,0
164.67186,165.00757,55,54,0
163.81471,165.04329,41,54,0
163.81471,165.04686,46,54,0
163.81471,165.04686,62,54,0
165.10043,166.33257,62,54,0
165.09686,166.33257,44,54,0
165.10043,166.33257,40,54,0
165.10043,166.33257,56,54,0
166.38257,166.81471,56,54,0
166.81471,167.24329,52,54,0
167.24329,167.58257,54,54,0
166.38257,167.61829,44,54,0
166.38257,167.61829,40,54,0
166.38257,167.61829,62,54,0
167.67186,168.90042,61,54,0
167.67186,168.90399,56,54,0
167.67186,168.90399,49,54,0
167.67186,168.90399,41,54,0
168.954,169.38257,56,54,0
169.38614,169.81114,53,54,0
169.81471,170.15042,55,54,0
168.954,170.18614,61,54,0
168.954,170.18971,49,54,0
168.954,170.18971,41,54,0
170.24329,170.67186,60,54,0
170.23972,170.67186,56,54,0
170.67186,171.10042,56,54,0
170.67186,171.10042,53,54,0
171.10042,171.43971,58,54,0
171.10042,171.43971,55,54,0
170.24329,171.47185,41,54,0
170.24329,171.47185,48,54,0
171.52899,171.954,72,54,0
171.52899,171.954,44,54,0
171.52899,171.954,48,54,0
171.52899,171.954,41,54,0
171.52899,171.954,60,54,0
171.52899,171.954,68,54,0
171.95757,172.38257,75,54,0
171.95757,172.38257,63,54,0
171.95757,172.38257,41,54,0
171.95757,172.38257,44,54,0
171.95757,172.38257,72,54,0
172.38257,172.72185,70,54,0
172.38257,172.72185,61,54,0
172.38257,172.72185,46,54,0
172.38257,172.72185,43,54,0
172.38257,172.72185,73,54,0
172.81471,173.24329,68,54,0
172.81114,173.24329,48,54,0
172.81114,173.24329,44,54,0
172.81114,173.24329,41,54,0
172.81114,173.24329,72,54,0
172.81114,173.24329,60,54,0
173.24329,173.67184,68,54,0
173.24329,173.67184,63,54,0
173.24329,173.67184,65,54,0
173.24329,173.67184,60,54,0
173.24329,174.00757,53,54,0
173.67184,174.01114,70,54,0
173.67184,174.01114,67,54,0
173.67184,174.09685,58,54,0
173.67184,174.09685,61,54,0
174.09685,174.43614,56,54,0
174.09685,174.43614,53,54,0
174.09685,174.43614,60,54,0
174.09685,174.52542,68,54,0
174.09685,174.52899,72,54,0
174.52899,174.954,75,54,0
174.52899,174.954,72,54,0
174.95757,175.29684,70,54,0
174.52899,175.29684,53,54,0
174.52899,175.29684,65,54,0
174.954,175.29684,73,54,0
175.38614,175.81113,72,54,0
175.38614,175.81113,68,54,0
175.60042,176.02899,77,54,0
175.60042,176.02899,89,54,0
175.38257,176.15399,65,54,0
175.81471,176.24327,70,54,0
175.81471,176.24327,67,54,0
176.02899,176.45757,87,54,0
176.02899,176.45757,75,54,0
176.24327,176.67184,65,54,0
176.24327,176.67184,68,54,0
176.45757,176.88257,85,54,0
176.45757,176.88614,73,54,0
176.67184,177.09685,67,54,0
176.67184,177.10042,63,54,0
176.88614,177.31113,84,54,0
176.88614,177.3147,72,54,0
177.10042,177.52899,61,54,0
177.10042,177.52899,65,54,0
177.3147,177.74327,82,54,0
177.3147,177.74327,70,54,0
176.67184,177.8647,53,54,0
177.52899,177.86827,60,54,0
177.52899,177.86827,63,54,0
177.74327,178.17184,80,54,0
177.74327,178.17184,68,54,0
177.95757,178.38255,58,54,0
177.95757,178.38255,53,54,0
178.17184,178.59685,79,54,0
178.17184,178.59685,67,54,0
177.95757,178.72185,61,54,0
178.38255,178.81113,55,54,0
178.38255,178.81113,52,54,0
178.59685,179.02542,70,54,0
178.59685,179.02899,82,54,0
178.81113,179.15042,60,54,0
178.81113,179.2397,55,54,0
178.81113,179.24327,58,54,0
179.02899,179.454,64,54,0
179.02899,179.454,76,54,0
179.24327,179.67184,53,54,0
179.24327,179.67184,56,54,0
179.454,179.88612,77,54,0
179.454,179.88612,65,54,0
179.24327,180.00755,60,54,0
179.67184,180.10042,50,54,0
179.67184,180.10042,53,54,0
179.88612,180.31113,80,54,0
179.88612,180.31113,68,54,0
180.10042,180.52899,58,54,0
180.10042,180.52899,56,54,0
180.10042,180.52899,53,54,0
180.31113,180.7397,62,54,0
180.31113,180.74327,74,54,0
180.52899,180.95398,56,54,0
180.52899,180.95398,60,54,0
180.74327,181.16827,65,54,0
180.74327,181.16827,77,54,0
180.95398,181.38612,58,54,0
180.95398,181.38612,55,54,0
181.17184,181.60042,75,54,0
181.17184,181.60042,63,54,0
180.52899,181.72185,51,54,0
181.38612,181.81113,53,54,0
181.38612,181.81113,56,54,0
181.60042,182.02542,61,54,0
181.60042,182.02542,73,54,0
181.8147,182.2397,51,54,0
181.8147,182.24327,55,54,0
182.02542,182.45398,60,54,0
182.02542,182.45755,72,54,0
182.24327,182.66827,49,54,0
182.24327,182.67184,53,54,0
182.45755,182.88255,70,54,0
182.45755,182.88255,58,54,0
182.67184,183.09685,48,54,0
182.67184,183.09685,39,54,0
182.67184,183.09685,51,54,0
182.88255,183.3147,68,54,0
182.88255,183.3147,56,54,0
183.09685,183.5254,38,54,0
183.3147,183.7397,65,54,0
183.3147,183.7397,53,54,0
183.09685,183.8647,46,54,0
183.52898,183.95398,37,54,0
183.7397,184.16827,55,54,0
183.7397,184.17184,67,54,0
183.95755,184.38255,48,54,0
183.95755,184.38612,36,54,0
184.17184,184.50755,68,54,0
184.17184,184.51112,56,54,0
184.38612,184.8147,46,54,0
184.38612,184.8147,34,54,0
184.60042,185.02898,56,54,0
184.60042,185.02898,53,54,0
184.8147,185.24327,43,54,0
184.8147,185.24327,31,54,0
185.02898,185.45398,58,54,0
185.02898,185.45398,52,54,0
185.24327,185.57898,44,54,0
185.24327,185.57898,32,54,0
185.45398,185.6147,51,44,0
185.45398,185.61827,60,44,0
185.66827,186.09683,46,44,0
185.66827,186.09683,34,44,0
185.88255,186.31113,49,44,0
185.88255,186.31113,61,44,0
186.09683,186.5254,40,44,0
186.31113,186.74327,55,44,0
186.31113,186.74327,58,44,0
186.5254,186.95398,41,44,0
186.74327,187.16826,53,44,0
186.74327,187.16826,56,44,0
186.95755,187.38255,34,44,0
187.16826,187.59683,53,44,0
187.17184,187.6004,55,44,0
187.38255,187.8147,36,44,0
187.6004,188.02898,55,44,0
187.6004,188.02898,51,44,0
187.8147,188.15398,29,44,0
188.02898,188.1897,53,44,0
188.6897,189.0254,53,44,0
188.68613,189.0254,29,44,0
189.54683,190.3147,53,44,0
189.54683,190.3147,29,44,0
190.4004,190.82898,65,54,0
190.83255,191.26112,34,54,0
191.26112,191.59683,46,54,0
190.83255,191.6004,56,54,0
190.83255,191.6004,62,54,0
191.68611,192.11826,65,54,0
192.11826,192.54326,38,54,0
192.54326,192.88255,46,54,0
192.11826,192.88255,53,54,0
192.11826,192.88255,56,54,0
192.9754,193.40398,58,54,0
193.40398,193.74326,51,54,0
193.40398,193.74326,55,54,0
193.40398,193.74326,39,54,0
193.83255,194.04326,53,54,0
194.04683,194.25754,56,54,0
193.83255,194.59683,48,54,0
193.83255,194.59683,32,54,0
194.25754,194.63254,60,54,0
194.68611,195.02898,39,54,0
194.68968,195.06111,55,54,0
194.68968,195.06111,51,54,0
194.68968,195.06468,58,54,0
195.11826,195.32898,56,54,0
195.32898,195.54326,60,54,0
195.11826,195.88611,51,54,0
195.11826,195.88611,36,54,0
195.54683,195.91826,63,54,0
195.97183,196.40398,34,54,0
195.9754,196.6504,56,54,0
195.9754,196.6504,62,54,0
196.40398,196.74326,46,54,0
196.82896,197.26111,65,54,0
197.26111,197.68968,27,54,0
197.68968,198.02539,39,54,0
197.26111,198.02539,55,54,0
197.26111,198.02539,49,54,0
198.11826,198.54683,58,54,0
198.54683,198.88611,32,54,0
198.54683,198.97183,53,54,0
198.54683,198.97183,49,54,0
198.9754,199.18611,51,54,0
199.18968,199.40039,56,54,0
198.9754,199.73969,48,54,0
198.9754,199.73969,44,54,0
199.40396,199.77539,60,54,0
199.82896,200.17183,32,54,0
199.83253,200.25754,53,54,0
199.82896,200.25754,61,54,0
200.25754,200.47182,60,54,0
200.47182,200.68611,63,54,0
200.25754,201.02896,56,54,0
200.25754,201.02896,44,54,0
200.25754,201.02896,51,54,0
200.68968,201.06111,68,54,0
201.11469,201.32896,34,54,0
201.32896,201.54683,50,54,0
201.54683,201.70753,56,54,0
201.11826,201.76111,77,54,0
201.76111,201.97539,75,54,0
201.97539,202.18611,74,54,0
202.18611,202.34682,70,54,0
202.40039,202.61469,46,54,0
202.61826,202.82896,56,54,0
202.83253,202.98969,62,54,0
202.40396,203.04324,72,54,0
203.04324,203.26111,70,54,0
203.26111,203.47539,68,54,0
203.47539,203.63611,65,54,0
203.68968,203.90039,67,54,0
203.68968,204.06111,39,54,0
203.90396,204.11826,70,54,0
204.11826,204.32896,44,54,0
204.11826,204.32896,53,54,0
204.11826,204.33253,48,54,0
204.33253,204.54324,56,54,0
204.11826,204.70396,75,54,0
204.54681,204.91824,60,54,0
204.76111,204.97182,65,54,0
204.97539,205.18968,67,54,0
204.97539,205.34682,58,54,0
204.97539,205.35039,46,54,0
204.97539,205.35039,51,54,0
205.18968,205.40039,70,54,0
205.40396,205.61824,56,54,0
205.40396,205.61824,48,54,0
205.40396,205.61824,51,54,0
205.61824,205.82896,60,54,0
205.40396,205.98967,75,54,0
205.82896,206.20396,63,54,0
206.04324,206.25754,68,54,0
206.26111,206.47182,46,54,0
206.47182,206.68968,56,54,0
206.68968,206.85039,62,54,0
206.26111,206.90396,77,54,0
206.90396,207.11824,75,54,0
207.11824,207.32896,74,54,0
207.32896,207.48967,70,54,0
207.54324,207.75754,39,54,0
207.76111,207.97182,51,54,0
207.97539,208.13254,55,54,0
207.54324,208.1861,72,54,0
207.54681,208.18967,61,54,0
208.18967,208.40039,70,54,0
208.40039,208.61824,75,54,0
208.61824,208.77896,67,54,0
208.82896,209.04681,68,54,0
208.82896,209.04681,49,54,0
208.82896,209.04681,53,54,0
208.82896,209.17181,44,54,0
209.04681,209.25752,49,54,0
209.04681,209.26111,65,54,0
209.26111,209.47182,48,54,0
209.47539,209.6861,51,54,0
209.26111,209.84682,68,54,0
209.26111,210.02539,44,54,0
209.68967,210.0611,60,54,0
209.90396,210.11467,63,54,0
210.11824,210.32896,53,54,0
210.11824,210.33253,68,54,0
210.11824,210.45396,44,54,0
210.33253,210.54324,49,54,0
210.33253,210.54681,65,54,0
210.54681,210.7611,48,54,0
210.54681,210.8861,44,54,0
210.7611,210.92181,56,54,0
210.54681,210.92181,68,54,0
210.97539,211.1861,51,84,0
210.97539,211.18967,63,54,0
211.40039,211.83252,75,84,0
211.40039,211.83252,72,84,0
211.40039,211.83252,63,84,0
211.83252,212.16824,73,84,0
211.40039,212.16824,39,84,0
211.83252,212.16824,61,84,0
211.83252,212.16824,70,84,0
212.25752,212.47539,70,84,0
212.25752,212.59682,39,84,0
212.25752,212.60039,61,84,0
212.25752,212.60039,73,84,0
212.47539,212.6361,67,84,0
212.68967,213.11824,73,84,0
212.68967,213.11824,70,84,0
212.68967,213.11824,61,84,0
213.11824,213.45752,68,84,0
212.68967,213.45752,39,84,0
213.11824,213.45752,72,84,0
213.11824,213.45752,60,84,0
213.54681,213.75752,68,84,0
213.54324,213.75752,51,84,0
213.54681,213.88252,72,84,0
213.54681,213.8861,60,84,0
213.7611,213.92181,65,84,0
213.97182,213.97539,39,84,0
213.97539,214.40395,72,84,0
213.97539,214.40395,68,84,0
213.97539,214.61467,39,84,0
214.40395,214.74324,67,84,0
214.40395,214.74324,70,84,0
213.97539,214.77538,61,84,0
214.61824,214.83252,41,84,0
214.83252,215.04681,61,84,0
214.83252,215.04681,58,84,0
214.83252,215.04681,63,84,0
214.83252,215.04681,43,84,0
214.83252,215.16824,39,84,0
215.04681,215.20395,46,84,0
215.2611,215.6861,65,84,0
215.2611,215.6861,77,84,0
215.2611,215.90395,44,84,0
215.2611,215.9361,72,84,0
215.25752,216.02538,39,84,0
215.6861,216.02895,75,84,0
215.6861,216.02895,63,84,0
215.90395,216.11467,46,84,0
216.11824,216.33252,60,84,0
216.11824,216.33252,56,84,0
216.11824,216.33252,63,84,0
216.11824,216.33252,48,84,0
216.11824,216.45395,39,84,0
216.33252,216.48967,51,84,0
216.54681,216.75752,49,84,0
216.54681,216.88252,39,84,0
216.7611,216.9718,46,84,0
216.54681,216.97537,80,84,0
216.54681,216.97537,84,84,0
216.54681,216.97537,72,84,0
216.97537,217.3111,82,84,0
216.97537,217.31467,79,84,0
216.97537,217.31467,70,84,0
216.97537,217.61467,39,84,0
217.40395,217.61824,70,84,0
217.40038,217.61824,63,84,0
217.40395,217.61824,75,84,0
217.40395,217.61824,67,84,0
217.61824,217.77895,49,84,0
217.82895,218.04323,48,84,0
217.82895,218.1718,39,84,0
218.04323,218.25752,44,84,0
217.82895,218.2611,80,84,0
217.82895,218.2611,77,84,0
217.82895,218.2611,89,84,0
218.2611,218.60037,75,84,0
218.2611,218.60037,84,84,0
218.2611,218.60037,87,84,0
218.2611,218.90038,39,84,0
218.6861,218.90395,68,84,0
218.68967,218.90395,60,84,0
218.68967,218.90395,63,84,0
219.11824,219.5468,77,84,0
219.11824,219.5468,73,84,0
218.90395,219.75752,44,84,0
219.11467,219.88252,32,84,0
219.5468,219.8861,72,84,0
219.5468,219.8861,75,84,0
219.11824,219.8861,66,84,0
219.75752,219.9718,46,84,0
219.9718,220.1861,48,84,0
219.9718,220.31467,67,84,0
219.9718,220.31467,68,84,0
219.9718,220.31467,44,84,0
219.9718,220.31467,63,84,0
220.18967,220.3468,51,84,0
220.40395,220.82895,70,84,0
220.40038,220.82895,78,84,0
220.40395,220.82895,82,84,0
220.40038,221.0468,49,84,0
220.40038,221.16823,37,84,0
220.82895,221.1718,77,84,0
220.82895,221.1718,68,84,0
220.82895,221.1718,80,84,0
221.0468,221.25752,51,84,0
221.2611,221.47537,77,84,0
221.2611,221.47537,80,84,0
221.2611,221.47537,68,84,0
221.2611,221.47537,53,84,0
221.2611,221.60037,49,84,0
221.47537,221.63252,56,84,0
221.68967,221.90038,54,84,0
221.90395,222.11465,51,84,0
221.68967,222.32895,60,84,0
221.68967,222.33252,68,84,0
222.33252,222.5468,70,84,0
222.5468,222.7611,72,84,0
221.68967,222.8861,56,84,0
222.7611,222.9218,75,84,0
222.11823,222.9218,48,84,0
222.9718,223.18608,53,84,0
223.18965,223.40038,49,84,0
222.9718,223.61465,73,84,0
222.9718,223.61823,68,84,0
223.61823,223.82895,75,84,0
223.83252,224.0468,77,84,0
222.9718,224.1718,56,84,0
223.40395,224.20395,44,84,0
224.0468,224.20752,80,84,0
224.2611,224.68965,70,84,0
224.2611,224.68965,66,84,0
224.2575,224.93608,36,84,0
224.2611,224.93965,44,84,0
224.68965,225.02895,68,84,0
224.68965,225.02895,56,84,0
225.11823,225.54323,70,84,0
225.11823,225.54323,65,84,0
225.11823,225.7968,44,84,0
225.11823,225.7968,37,84,0
225.54323,225.8825,56,84,0
225.54323,225.88608,68,84,0
225.97537,226.40038,70,74,0
225.97537,226.40038,63,74,0
225.9718,226.73965,44,74,0
225.97537,226.74323,47,74,0
226.40038,226.74323,68,64,0
226.40038,226.74323,56,64,0
226.82893,227.2575,34,54,0
226.8325,227.4718,77,54,0
227.26108,227.5968,46,54,0
227.4718,227.68965,75,54,0
227.68965,227.90395,74,54,0
227.90395,228.06465,70,54,0
228.11823,228.54323,38,54,0
228.11823,228.7575,72,54,0
228.5468,228.8825,46,54,0
228.76108,228.9718,70,54,0
228.97537,229.18608,68,54,0
229.18608,229.3468,65,54,0
229.40393,229.61823,67,54,0
229.61823,229.82893,70,54,0
229.40393,229.82893,51,54,0
229.8325,230.41823,75,54,0
229.8325,230.59679,32,54,0
230.47179,230.68608,65,54,0
230.68965,230.90393,67,54,0
230.68965,231.11465,39,54,0
230.90393,231.11823,70,54,0
231.11823,231.7575,75,54,0
231.11823,231.88608,36,54,0
231.7575,231.91823,68,54,0
231.97179,232.18608,63,54,0
232.18965,232.40036,53,54,0
231.97179,232.40036,34,54,0
232.40036,232.61465,56,54,0
232.40036,232.73965,46,54,0
232.61465,232.82893,63,54,0
232.82893,233.0468,62,54,0
233.0468,233.2075,56,54,0
233.26108,233.47179,73,54,0
233.47179,233.68965,61,54,0
233.26108,233.68965,39,54,0
233.68965,233.90036,65,54,0
233.68965,234.02536,51,54,0
233.90393,234.11465,68,54,0
234.11823,234.32893,67,54,0
234.3325,234.48965,63,54,0
234.54678,234.76108,61,54,0
234.76108,234.97179,56,54,0
234.54678,234.97179,65,54,0
234.54321,235.18608,32,54,0
234.97179,235.31465,63,54,0
234.97179,235.34679,60,54,0
235.18608,235.40036,39,54,0
235.40036,235.61464,44,54,0
235.61821,235.77536,39,54,0
235.8325,236.04321,53,54,0
236.04678,236.2575,56,54,0
235.8325,236.26108,61,54,0
235.82893,236.47536,32,54,0
236.26108,236.59679,60,54,0
236.26108,236.63608,51,54,0
236.47536,236.68965,39,54,0
236.68965,236.90393,44,54,0
236.90393,237.06465,39,54,0
237.11821,237.32893,73,54,0
237.3325,237.54321,68,54,0
237.11821,237.54321,77,54,0
237.11821,237.7575,32,54,0
237.54321,237.8825,75,54,0
237.54321,237.91821,72,54,0
237.76108,237.97536,39,54,0
237.97536,238.18964,44,54,0
238.18964,238.35036,39,54,0
238.40393,238.61821,65,54,0
238.61821,238.8325,68,54,0
238.40393,238.8325,73,54,0
238.40393,239.04321,32,54,0
238.8325,239.16821,72,54,0
238.8325,239.20393,63,54,0
239.04678,239.25749,39,54,0
239.26108,239.47179,44,54,0
239.47536,239.63249,39,54,0
242.26106,242.68607,68,54,0
242.26106,242.68964,60,54,0
242.26106,242.68964,56,54,0
242.26106,242.68964,72,54,0
242.25749,243.02536,51,54,0
242.68964,243.02893,58,54,0
242.68964,243.02893,70,54,0
242.26106,243.02893,63,54,0
242.68964,243.02893,67,54,0
242.68964,243.02893,55,54,0
243.54678,243.97179,72,54,0
243.54678,243.97179,60,54,0
243.54678,243.97179,63,54,0
243.54678,243.97179,75,54,0
243.54321,244.31107,51,54,0
243.97536,244.31464,73,54,0
243.97179,244.31464,58,54,0
243.97179,244.31464,70,54,0
243.97536,244.31464,61,54,0
244.82892,245.26106,80,54,0
244.82892,245.26106,77,54,0
244.82892,245.26106,68,54,0
244.82892,245.26106,65,54,0
245.26106,245.68607,63,54,0
245.26106,245.68607,75,54,0
245.26106,245.68607,67,54,0
245.26106,245.68964,79,54,0
245.68964,246.11464,61,54,0
245.68964,246.11821,65,54,0
245.68964,246.11821,77,54,0
245.68964,246.11821,73,54,0
246.11821,246.45392,72,54,0
244.82892,246.45392,56,54,0
246.11821,246.45749,60,54,0
246.11821,246.45749,75,54,0
246.11821,246.45749,63,54,0
246.54678,246.97177,32,54,0
246.76106,246.97534,53,54,0
246.97534,247.18964,51,54,0
247.18964,247.40034,56,54,0
246.97534,247.40034,36,54,0
247.40392,247.83249,53,54,0
247.40392,247.83249,61,54,0
247.83249,248.25749,51,54,0
247.83249,248.26106,60,54,0
248.26106,248.68607,58,54,0
248.26106,248.68607,49,54,0
247.40392,248.68607,39,54,0
248.68607,249.02534,32,54,0
248.68607,249.02892,56,54,0
248.68607,249.02892,44,54,0
