start_time,end_time,note_value,velocity,instrument_program_number
0.52916664,0.53125,33,94,0
0.77916664,0.78125,33,94,0
1.0291667,1.03125,33,84,0
1.2791667,1.28125,33,84,0
5.2791667,5.4041667,83,84,71
5.4041667,5.5291667,84,84,71
5.5291667,6.7791667,72,84,71
7.2791667,7.4041667,71,54,71
7.4041667,7.5291667,72,54,71
7.5291667,8.779166,60,54,71
9.279166,9.404166,71,54,71
9.404166,9.529166,72,54,71
9.529166,10.154166,74,54,71
10.154166,10.279166,72,54,71
10.279166,10.404166,70,54,71
10.404166,10.529166,69,54,71
10.529166,10.654166,67,54,71
10.654166,10.779166,69,54,71
10.779166,10.904166,70,54,71
10.904166,11.029166,72,54,71
11.029166,11.154166,70,54,71
11.154166,11.279166,69,54,71
11.279166,11.404166,65,54,71
11.404166,11.529166,65,54,71
11.529166,11.654166,70,54,71
11.654166,11.779166,70,54,71
11.779166,11.904166,69,54,71
11.904166,12.029166,69,54,71
12.029166,12.154166,67,54,71
12.154166,12.279166,67,54,71
12.279166,12.404166,70,54,71
12.404166,12.529166,69,54,71
12.529166,12.654166,64,54,71
12.654166,12.779166,64,54,71
12.779166,12.904166,62,54,71
12.904166,13.029166,62,54,71
13.029166,13.154166,60,54,71
13.154166,13.279166,60,54,71
13.279166,13.404166,71,54,71
13.404166,13.529166,72,54,71
13.529166,14.154166,74,54,71
14.154166,14.279166,72,54,71
14.279166,14.404166,70,54,71
14.404166,14.529166,69,54,71
14.529166,14.654166,67,54,71
14.654166,14.779166,69,54,71
14.779166,14.904166,70,54,71
14.904166,15.029166,72,54,71
15.029166,15.154166,70,54,71
15.154166,15.279166,69,54,71
15.279166,15.404166,67,54,71
15.404166,15.529166,65,54,71
15.529166,16.279167,64,54,71
16.279167,16.404167,72,54,71
16.404167,16.529167,71,54,71
16.529167,17.279167,69,54,71
21.279167,21.404167,72,54,71
21.404167,21.529167,69,54,71
21.529167,21.654167,71,54,71
21.654167,21.779167,68,54,71
21.779167,21.904167,64,54,71
21.904167,22.029167,59,54,71
22.029167,22.154167,64,54,71
22.154167,22.279167,68,54,71
22.279167,22.404167,72,54,71
22.404167,22.529167,69,54,71
22.529167,22.654167,71,54,71
22.654167,22.779167,68,54,71
22.779167,22.904167,64,54,71
22.904167,23.029167,59,54,71
23.029167,23.154167,71,54,71
23.154167,23.279167,68,54,71
23.279167,23.404167,64,54,71
23.404167,23.529167,59,54,71
23.529167,24.029167,71,54,71
24.029167,24.529167,72,54,71
24.529167,25.029167,72,54,71
25.029167,25.529167,73,54,71
25.529167,26.154167,74,54,71
26.154167,26.279167,72,54,71
26.279167,26.404167,70,54,71
26.404167,26.529167,69,54,71
26.529167,26.654167,67,54,71
26.654167,26.779167,69,54,71
26.779167,26.904167,70,54,71
26.904167,27.029167,72,54,71
27.029167,27.154167,70,54,71
27.154167,27.279167,69,54,71
27.279167,27.404167,65,54,71
27.404167,27.529167,65,54,71
27.529167,27.654167,70,64,71
27.654167,27.779167,70,64,71
27.779167,27.904167,69,64,71
27.904167,28.029167,69,64,71
28.029167,28.154167,67,74,71
28.154167,28.279167,67,74,71
28.279167,28.404167,70,84,71
28.404167,28.529167,69,84,71
28.529167,28.654167,64,84,71
28.654167,28.779167,64,84,71
28.779167,28.904167,62,84,71
28.904167,29.029167,62,84,71
29.029167,29.154167,61,84,71
29.154167,29.279167,61,84,71
29.279167,29.404167,68,84,71
29.404167,29.529167,69,84,71
29.529167,29.904167,74,84,71
29.904167,30.029167,76,84,71
30.029167,30.154167,77,84,71
30.154167,30.279167,72,84,71
30.279167,30.404167,70,84,71
30.404167,30.529167,69,84,71
30.529167,30.654167,79,84,71
30.654167,30.779167,76,84,71
30.779167,30.904167,70,84,71
30.904167,31.029167,72,84,71
31.029167,31.154167,70,84,71
31.154167,31.279167,69,84,71
31.279167,31.404167,77,84,71
31.404167,31.529167,79,84,71
31.529167,32.279167,81,84,71
32.279167,32.404167,74,84,71
32.404167,32.529167,76,84,71
32.529167,33.029167,77,84,71
33.029167,33.529167,77,84,71
33.529167,34.154167,77,84,71
34.154167,34.279167,72,84,71
34.279167,34.404167,70,84,71
34.404167,34.529167,67,84,71
34.529167,35.029167,77,84,71
35.029167,35.529167,77,84,71
35.529167,36.154167,77,84,71
36.154167,36.279167,72,84,71
36.279167,36.404167,70,84,71
36.404167,36.529167,67,84,71
41.654167,41.779167,79,54,71
41.779167,41.904167,77,54,71
41.904167,42.029167,74,54,71
42.029167,42.154167,71,54,71
42.154167,42.279167,67,54,71
42.279167,42.404167,65,54,71
42.404167,42.529167,62,54,71
42.695835,42.8625,60,54,71
42.8625,43.029167,72,54,71
43.029167,43.529167,84,54,71
43.695835,43.8625,60,54,71
43.8625,44.029167,72,54,71
44.029167,44.529167,84,54,71
44.695835,44.8625,55,54,71
44.8625,45.029167,67,54,71
45.029167,45.529167,79,54,71
45.695835,45.8625,55,54,71
45.8625,46.029167,67,54,71
46.029167,46.529167,79,54,71
47.195835,47.3625,76,54,71
47.3625,47.529167,77,54,71
47.529167,48.195835,81,54,71
48.195835,48.3625,79,54,71
48.3625,48.529167,76,54,71
48.529167,48.8625,77,54,71
48.8625,49.195835,74,54,71
49.195835,49.3625,76,54,71
49.3625,49.529167,73,54,71
49.529167,49.8625,74,54,71
49.8625,50.195835,71,54,71
50.195835,50.3625,72,54,71
50.3625,50.529167,69,54,71
50.529167,50.695835,71,54,71
50.695835,50.8625,76,54,71
50.8625,51.029167,74,54,71
51.029167,51.3625,81,54,71
51.3625,51.529167,80,54,71
51.529167,51.695835,79,54,71
51.695835,51.8625,74,54,71
51.8625,52.029167,76,54,71
52.029167,52.3625,71,54,71
52.3625,52.529167,72,54,71
52.529167,52.695835,73,54,71
52.695835,52.8625,77,54,71
52.8625,53.029167,76,54,71
53.029167,53.3625,82,54,71
53.3625,53.529167,81,54,71
53.529167,53.695835,81,54,71
53.695835,53.8625,76,54,71
53.8625,54.029167,77,54,71
54.029167,54.3625,73,54,71
54.3625,54.529167,74,54,71
55.029167,55.154167,71,54,71
55.154167,55.279167,76,54,71
55.279167,55.404167,74,54,71
55.404167,55.529167,81,54,71
55.529167,55.779167,79,54,71
56.029167,56.154167,67,54,71
56.154167,56.279167,62,54,71
56.279167,56.404167,64,54,71
56.404167,56.529167,58,54,71
56.529167,56.654167,57,54,71
57.029167,57.154167,73,64,71
57.154167,57.279167,77,54,71
57.279167,57.404167,76,54,71
57.404167,57.529167,82,54,71
57.529167,57.779167,81,54,71
58.029167,58.154167,69,84,71
58.154167,58.279167,64,54,71
58.279167,58.404167,65,54,71
58.404167,58.529167,62,54,71
58.529167,59.279167,59,54,71
59.279167,59.779167,81,54,71
59.779167,60.029167,76,54,71
60.029167,60.279167,77,54,71
60.279167,60.529167,73,54,71
60.529167,61.529167,76,54,71
61.529167,62.029167,74,84,71
62.529167,63.029167,72,84,71
63.029167,63.529167,72,84,71
63.529167,64.77917,72,84,71
65.15417,65.27917,60,84,71
65.27917,65.40417,62,84,71
65.40417,65.52917,65,84,71
65.52917,66.02917,64,84,71
66.15417,66.27917,60,84,71
66.27917,66.40417,62,84,71
66.40417,66.52917,55,84,71
66.52917,67.02917,60,84,71
67.02917,67.52917,60,84,71
67.52917,68.52917,60,84,71
73.27917,73.40417,83,84,71
73.40417,73.52917,84,84,71
73.52917,74.77917,72,84,71
75.27917,75.40417,71,54,71
75.40417,75.52917,72,54,71
75.52917,76.77917,60,54,71
77.27917,77.40417,71,54,71
77.40417,77.52917,72,54,71
77.52917,78.15417,74,54,71
78.15417,78.27917,72,54,71
78.27917,78.40417,70,54,71
78.40417,78.52917,69,54,71
78.52917,78.65417,67,54,71
78.65417,78.77917,69,54,71
78.77917,78.90417,70,54,71
78.90417,79.02917,72,54,71
79.02917,79.15417,70,54,71
79.15417,79.27917,69,54,71
79.27917,79.40417,65,54,71
79.40417,79.52917,65,54,71
79.52917,79.65417,70,54,71
79.65417,79.77917,70,54,71
79.77917,79.90417,69,54,71
79.90417,80.02917,69,54,71
80.02917,80.15417,67,54,71
80.15417,80.27917,67,54,71
80.27917,80.40417,70,54,71
80.40417,80.52917,69,54,71
80.52917,80.65417,64,54,71
80.65417,80.77917,64,54,71
80.77917,80.90417,62,54,71
80.90417,81.02917,62,54,71
81.02917,81.15417,60,54,71
81.15417,81.27917,60,54,71
81.27917,81.40417,71,54,71
81.40417,81.52917,72,54,71
81.52917,82.15417,74,54,71
82.15417,82.27917,72,54,71
82.27917,82.40417,70,54,71
82.40417,82.52917,69,54,71
82.52917,82.65417,67,54,71
82.65417,82.77917,69,54,71
82.77917,82.90417,70,54,71
82.90417,83.02917,72,54,71
83.02917,83.15417,70,54,71
83.15417,83.27917,69,54,71
83.27917,83.40417,67,54,71
83.40417,83.52917,65,54,71
83.52917,84.27917,64,54,71
84.27917,84.40417,72,54,71
84.40417,84.52917,71,54,71
84.52917,85.27917,69,54,71
93.52917,93.65417,70,54,71
93.65417,93.77917,65,54,71
93.77917,93.90417,62,54,71
93.90417,94.02917,58,54,71
94.02917,94.15417,57,54,71
94.15417,94.27917,69,54,71
94.27917,94.40417,65,54,71
94.40417,94.52917,60,54,71
94.52917,94.65417,64,54,71
94.65417,94.77917,58,54,71
94.77917,94.90417,55,54,71
94.90417,95.02917,52,54,71
95.02917,95.15417,53,54,71
95.15417,95.27917,60,54,71
97.27917,97.40417,68,84,71
97.40417,97.52917,69,84,71
97.52917,97.90417,74,84,71
97.90417,98.02917,76,84,71
98.02917,98.15417,77,84,71
98.15417,98.27917,72,84,71
98.27917,98.40417,70,84,71
98.40417,98.52917,69,84,71
98.52917,98.65417,79,84,71
98.65417,98.77917,76,84,71
98.77917,98.90417,70,84,71
98.90417,99.02917,72,84,71
99.02917,99.15417,70,84,71
99.15417,99.27917,69,84,71
99.27917,99.40417,77,84,71
99.40417,99.52917,79,84,71
99.52917,100.27917,81,84,71
100.27917,100.40417,74,84,71
100.40417,100.52917,76,84,71
100.52917,101.27917,77,84,71
105.52917,106.15417,74,84,71
106.15417,106.27917,72,84,71
106.27917,106.40417,70,84,71
106.40417,106.52917,69,84,71
106.52917,106.65417,67,84,71
106.65417,106.77917,69,84,71
106.77917,106.90417,70,84,71
106.90417,107.02917,72,84,71
107.02917,107.15417,70,84,71
107.15417,107.27917,69,84,71
109.52917,109.65417,50,84,71
109.65417,109.77917,58,84,71
109.77917,109.90417,62,84,71
109.90417,110.02917,58,84,71
110.02917,110.15417,50,84,71
110.15417,110.27917,58,84,71
110.27917,110.40417,62,84,71
110.40417,110.52917,58,84,71
110.52917,110.65417,50,84,71
110.65417,110.77917,58,84,71
110.77917,110.90417,62,84,71
110.90417,111.02917,58,84,71
111.02917,111.15417,52,84,71
111.15417,111.27917,57,84,71
111.77917,111.90417,58,84,71
111.90417,112.02917,57,84,71
112.02917,112.52917,55,84,71
112.52917,112.77917,57,84,71
113.77917,113.90417,55,84,71
113.90417,114.02917,53,84,71
114.02917,114.52917,52,84,71
114.52917,114.77917,57,84,71
116.90417,117.02917,80,64,71
117.02917,117.40417,79,64,71
118.90417,119.02917,56,54,71
119.02917,119.40417,57,54,71
123.52917,123.90417,64,54,71
123.90417,124.02917,65,54,71
124.02917,124.27917,64,54,71
124.52917,124.90417,70,54,71
124.90417,125.02917,69,54,71
125.02917,125.27917,64,54,71
125.52917,125.90417,65,54,71
125.90417,126.02917,64,54,71
126.02917,126.40417,70,54,71
126.40417,126.52917,70,44,71
126.52917,127.15417,70,44,71
127.15417,127.27917,74,44,71
127.27917,127.40417,72,44,71
127.40417,127.52917,70,44,71
127.52917,127.90417,69,44,71
127.90417,128.02916,70,44,71
128.02916,128.27916,69,44,71
128.52916,128.90416,70,44,71
128.90416,129.02916,72,44,71
129.02916,129.27916,70,44,71
129.52916,129.65416,69,44,71
129.65416,129.77916,65,44,71
129.77916,129.90416,69,44,71
129.90416,130.02916,74,44,71
130.02916,130.52916,67,44,71
130.52916,130.65416,65,54,71
130.65416,130.77916,62,54,71
130.77916,130.90416,65,54,71
130.90416,131.02916,69,54,71
131.02916,131.52916,64,54,71
135.52916,135.90416,69,84,71
135.90416,136.02916,70,74,71
136.02916,136.27916,69,64,71
136.52916,136.90416,70,44,71
136.90416,137.02916,72,44,71
137.02916,137.27916,70,44,71
137.52916,137.90416,57,44,71
137.90416,138.02916,58,44,71
138.02916,138.27916,57,44,71
138.52916,138.90416,58,44,71
138.90416,139.02916,60,44,71
139.02916,139.40416,60,44,71
139.40416,139.52916,62,44,71
139.52916,139.77916,62,44,71
139.77916,140.02916,60,44,71
140.02916,140.27916,58,44,71
140.27916,140.52916,53,44,71
140.52916,140.77916,57,44,71
141.52916,141.77916,55,54,71
142.52916,143.02916,53,54,71
143.02916,143.52916,53,54,71
143.52916,144.52916,53,54,71
144.52916,145.02916,53,54,71
145.02916,145.52916,53,54,71
145.52916,146.52916,53,54,71
146.52916,147.02916,77,54,71
147.02916,147.52916,77,54,71
147.52916,148.52916,77,54,71
148.52916,149.02916,77,54,71
149.02916,149.52916,77,54,71
149.52916,150.52916,77,54,71
151.19583,151.3625,64,54,71
151.3625,151.52916,76,54,71
151.52916,151.77916,77,54,71
152.19583,152.3625,72,54,71
152.3625,152.52916,60,54,71
152.52916,152.77916,57,54,71
153.19583,153.3625,66,54,71
153.3625,153.52916,78,54,71
153.52916,153.77916,79,54,71
154.19583,154.3625,74,54,71
154.3625,154.52916,62,54,71
154.52916,154.77916,60,54,71
158.27916,158.77916,86,84,71
158.77916,159.02916,81,84,71
159.02916,159.27916,82,84,71
159.27916,159.52916,77,84,71
159.52916,159.77916,76,84,71
163.52916,164.02916,73,44,71
164.02916,164.52916,73,44,71
164.52916,165.77916,73,44,71
166.52916,167.02916,61,44,71
167.02916,167.52916,61,44,71
167.52916,168.77916,61,44,71
169.52916,170.02916,57,44,71
170.02916,170.52916,57,44,71
170.52916,171.77916,57,44,71
174.52916,175.02916,77,84,71
175.02916,175.52916,77,84,71
175.52916,176.15416,77,84,71
176.15416,176.27916,72,84,71
176.27916,176.40416,70,84,71
176.40416,176.52916,67,84,71
176.52916,176.65416,69,84,71
176.65416,176.77916,72,84,71
176.77916,176.90416,70,84,71
176.90416,177.02916,74,84,71
177.02916,177.40416,72,84,71
177.40416,177.52916,67,84,71
177.52916,177.65416,69,84,71
177.65416,177.77916,72,84,71
177.77916,177.90416,74,84,71
177.90416,178.02916,77,84,71
178.02916,178.40416,72,84,71
178.40416,178.52916,67,94,71
178.52916,178.65416,69,94,71
178.65416,178.77916,72,94,71
178.77916,178.90416,70,94,71
178.90416,179.02916,74,94,71
179.02916,179.15416,64,84,71
179.15416,179.27916,67,84,71
179.27916,179.40416,65,84,71
179.40416,179.52916,69,84,71
179.52916,179.90416,59,84,71
179.90416,180.02916,62,84,71
180.02916,180.15416,67,84,71
180.15416,180.27916,71,84,71
180.27916,180.40416,72,84,71
180.40416,180.52916,81,84,71
180.52916,180.77916,77,84,71
181.65416,181.77916,55,54,71
181.77916,181.90416,59,54,71
181.90416,182.02916,62,54,71
182.02916,182.15416,66,54,71
182.15416,182.27916,67,54,71
182.27916,182.40416,71,54,71
182.40416,182.52916,74,54,71
182.52916,182.77916,64,54,71
183.65416,183.77916,82,54,71
183.77916,183.90416,79,54,71
183.90416,184.02916,76,54,71
184.02916,184.15416,74,54,71
184.15416,184.27916,72,54,71
184.27916,184.40416,70,54,71
184.40416,184.52916,67,54,71
184.52916,184.77916,64,54,71
184.77916,185.02916,65,54,71
185.02916,185.27916,61,54,71
185.27916,185.52916,62,44,71
185.52916,185.77916,55,44,71
185.77916,186.02916,60,44,71
186.02916,186.27916,53,44,71
186.27916,186.52916,65,44,71
186.52916,186.77916,70,44,71
186.77916,187.02916,69,44,71
187.02916,187.27916,67,84,71
187.27916,187.52916,65,84,71
187.52916,187.77916,64,84,71
187.77916,188.02916,62,74,71
188.02916,188.27916,60,74,71
190.27916,190.52916,69,54,71
190.52916,190.77916,67,54,71
190.77916,191.02916,65,54,71
191.02916,191.27916,64,84,71
191.27916,191.52916,74,84,71
191.52916,191.77916,72,84,71
191.77916,192.02916,71,84,71
192.02916,192.27916,69,84,71
192.77916,193.02916,52,74,71
193.02916,193.52916,57,64,71
193.65416,193.77916,52,54,71
193.77916,194.02916,57,54,71
194.15416,194.27916,57,54,71
194.27916,194.52916,52,54,71
196.27916,196.52916,72,84,71
196.52916,197.27916,71,84,71
197.27916,197.52916,72,54,71
197.52916,198.02916,71,54,71
198.02916,198.52916,71,54,71
198.52916,199.02916,71,54,71
199.02916,199.52916,72,54,71
199.52916,200.02916,72,54,71
200.02916,200.52916,73,54,71
200.52916,201.15416,74,54,71
201.15416,201.27916,72,54,71
201.27916,201.40416,70,54,71
201.40416,201.52916,69,54,71
201.52916,201.65416,67,54,71
201.65416,201.77916,69,54,71
201.77916,201.90416,70,54,71
201.90416,202.02916,72,54,71
202.02916,202.15416,70,54,71
202.15416,202.27916,69,54,71
202.27916,202.40416,65,54,71
202.40416,202.52916,65,54,71
202.52916,202.65416,70,64,71
202.65416,202.77916,70,64,71
202.77916,202.90416,69,64,71
202.90416,203.02916,69,64,71
203.02916,203.15416,67,74,71
203.15416,203.27916,67,74,71
203.27916,203.40416,70,84,71
203.40416,203.52916,69,84,71
203.52916,203.65416,64,84,71
203.65416,203.77916,64,84,71
203.77916,203.90416,62,84,71
203.90416,204.02916,62,84,71
204.02916,204.15416,61,84,71
204.15416,204.27916,61,84,71
204.27916,204.40416,68,84,71
204.40416,204.52916,69,84,71
204.52916,204.90416,74,84,71
204.90416,205.02916,76,84,71
205.02916,205.15416,77,84,71
205.15416,205.27916,72,84,71
205.27916,205.40416,70,84,71
205.40416,205.52916,69,84,71
205.52916,205.65416,79,84,71
205.65416,205.77916,76,84,71
205.77916,205.90416,70,84,71
205.90416,206.02916,72,84,71
206.02916,206.15416,70,84,71
206.15416,206.27916,69,84,71
206.27916,206.40416,77,84,71
206.40416,206.52916,79,84,71
206.52916,207.27916,81,84,71
207.27916,207.40416,74,84,71
207.40416,207.52916,76,84,71
207.52916,208.02916,77,84,71
208.02916,208.52916,77,84,71
208.52916,209.15416,77,84,71
209.15416,209.27916,72,84,71
209.27916,209.40416,70,84,71
209.40416,209.52916,67,84,71
209.52916,210.02916,81,84,71
210.02916,210.52916,81,84,71
210.52916,210.90416,81,84,71
210.90416,211.02916,77,84,71
211.02916,211.15416,77,84,71
211.15416,211.27916,72,84,71
211.27916,211.40416,72,84,71
211.40416,211.52916,67,84,71
212.02916,212.40416,72,84,71
212.40416,212.52916,67,84,71
213.02916,213.40416,77,84,71
213.40416,213.52916,72,94,71
214.52916,214.90416,81,94,71
214.90416,215.02916,76,94,71
215.02916,215.40416,81,94,71
215.40416,215.52916,76,84,71
215.52916,215.56041,76,84,71
215.56041,215.59166,77,84,71
215.59166,215.62291,76,84,71
215.62291,215.65416,77,84,71
215.65416,215.68541,76,84,71
215.68541,215.71666,77,84,71
215.71666,215.74791,76,84,71
215.74791,215.77916,77,84,71
215.77916,215.81041,76,84,71
215.81041,215.84166,77,84,71
215.84166,215.87291,76,84,71
215.87291,215.90416,77,84,71
215.90416,215.93541,76,84,71
215.93541,215.96666,77,84,71
215.96666,215.99791,76,84,71
215.99791,216.02916,77,84,71
216.02916,216.06041,76,84,71
216.06041,216.09166,77,84,71
216.09166,216.12291,76,84,71
216.12291,216.15416,77,84,71
216.15416,216.18541,76,84,71
216.18541,216.21666,77,84,71
216.21666,216.24791,76,84,71
216.24791,216.27916,77,84,71
216.27916,216.31041,76,84,71
216.31041,216.34166,77,84,71
216.34166,216.37291,76,84,71
216.37291,216.40416,77,84,71
216.40416,216.43541,76,84,71
216.43541,216.46666,77,84,71
216.46666,216.49791,74,84,71
216.49791,216.52916,76,84,71
216.52916,216.77916,77,84,71
217.02916,217.1125,53,84,71
217.1125,217.19583,57,84,71
217.19583,217.27916,60,84,71
217.27916,217.3625,65,84,71
217.3625,217.44583,69,84,71
217.44583,217.52916,72,84,71
217.52916,217.77916,77,84,71
218.02916,218.1125,53,84,71
218.1125,218.19583,57,84,71
218.19583,218.27916,60,84,71
218.27916,218.3625,65,84,71
218.3625,218.44583,69,84,71
218.44583,218.52916,72,84,71
218.52916,219.52916,81,84,71
219.52916,219.77916,77,84,71
220.02916,220.27916,77,84,71
220.52916,221.52916,53,84,71
0.52916664,0.53125,33,127,0
0.77916664,0.78125,33,127,0
1.0291667,1.03125,33,127,0
1.2791667,1.28125,33,127,0
1.5291667,1.925,77,94,0
2.1541667,2.2333333,65,84,0
2.1541667,2.2375,69,84,0
2.2791667,2.3625,70,84,0
2.2791667,2.3625,67,84,0
2.0291667,2.425,77,94,0
2.4041667,2.4875,74,84,0
2.4041667,2.4875,70,84,0
2.5291667,2.6125,72,84,0
2.5291667,2.6125,69,84,0
2.6541667,2.7375,69,84,0
2.6541667,2.7375,65,84,0
2.7791667,2.8625,70,84,0
2.7791667,2.8625,67,84,0
2.9041667,2.9875,67,84,0
2.9041667,2.9875,60,84,0
3.0291667,3.1125,69,84,0
3.0291667,3.1125,65,84,0
2.5291667,3.1125,77,94,0
3.1541667,3.2375,72,84,0
3.1541667,3.2375,65,84,0
3.1541667,3.2375,57,84,0
3.2791667,3.3625,70,84,0
3.2791667,3.3625,64,84,0
3.2791667,3.3625,60,84,0
3.4041667,3.4875,67,84,0
3.4041667,3.4875,58,84,0
3.4041667,3.4875,48,84,0
3.5291667,3.6125,69,84,0
3.5291667,3.6125,60,84,0
3.5291667,3.6125,53,84,0
3.6541667,3.7375,72,84,0
3.65,3.7375,41,84,0
3.7791667,3.8625,62,84,0
3.7791667,3.8625,70,84,0
3.7791667,3.8625,46,84,0
3.9041667,3.9875,74,84,0
3.9041667,3.9875,34,84,0
4.0291667,4.1125,48,84,0
4.1541667,4.2375,36,84,0
4.2791667,4.3625,48,84,0
4.0291667,4.4,64,84,0
4.0291667,4.4041667,72,84,0
4.4041667,4.4875,67,84,0
4.4041667,4.4875,52,84,0
4.5291667,4.608333,53,84,0
4.5291667,4.6125,60,84,0
4.5291667,4.6125,69,84,0
4.6541667,4.7375,72,84,0
4.6541667,4.7375,41,84,0
4.7791667,4.858333,46,84,0
4.7791667,4.8625,62,84,0
4.7791667,4.8625,70,84,0
4.9041667,4.9875,74,84,0
4.9041667,4.9875,34,84,0
5.0291667,5.108333,48,84,0
5.0291667,5.1125,72,84,0
5.0291667,5.1125,64,84,0
5.1541667,5.2375,76,84,0
5.1541667,5.2375,36,84,0
5.2791667,5.3625,74,84,0
5.2791667,5.3625,65,84,0
5.2791667,5.3625,43,84,0
5.4041667,5.4875,77,84,0
5.4041667,5.4875,31,84,0
5.5291667,5.925,72,84,0
5.5291667,5.925,24,84,0
5.5291667,5.925,67,84,0
5.5291667,5.925,36,84,0
5.5291667,5.925,76,84,0
5.5291667,5.925,64,84,0
6.0291667,6.425,77,84,0
6.0291667,6.425,60,84,0
6.0291667,6.425,69,84,0
6.0291667,6.425,48,84,0
6.0291667,6.425,74,84,0
6.0291667,6.425,65,84,0
6.5291667,7.1125,60,84,0
6.5291667,7.1125,48,84,0
6.5291667,7.2166667,79,84,0
6.5291667,7.2166667,76,84,0
6.5291667,7.2166667,67,84,0
6.5291667,7.2166667,70,84,0
7.5291667,7.925,72,54,0
7.5291667,7.925,48,54,0
7.5291667,7.925,55,54,0
7.5291667,7.925,64,54,0
8.029166,8.425,65,54,0
8.029166,8.425,48,54,0
8.029166,8.425,53,54,0
8.025,8.425,57,54,0
8.029166,8.425,72,54,0
8.029166,8.425,62,54,0
8.529166,9.1125,67,54,0
8.529166,9.1125,48,54,0
8.529166,9.1125,52,54,0
8.529166,9.1125,58,54,0
8.529166,9.1125,72,54,0
8.529166,9.1125,60,54,0
9.529166,9.654166,70,54,0
9.654166,9.775,65,54,0
9.779166,9.904166,62,54,0
9.525,9.904166,29,54,0
9.904166,10.025,58,54,0
10.029166,10.154166,57,54,0
10.154166,10.279166,69,54,0
10.279166,10.404166,65,54,0
10.029166,10.404166,29,54,0
10.404166,10.4875,60,54,0
10.529166,10.654166,64,54,0
10.654166,10.779166,58,54,0
10.779166,10.904166,55,54,0
10.904166,11.029166,52,54,0
10.529166,11.1125,29,54,0
11.029166,11.154166,48,54,0
11.154166,11.279166,53,54,0
11.279166,11.3625,57,54,0
11.529166,11.591666,38,54,0
11.654166,11.716666,50,54,0
11.779166,11.841666,58,54,0
11.779166,11.841666,53,54,0
11.904166,11.966666,58,54,0
11.9,11.966666,53,54,0
12.029166,12.154166,52,54,0
12.029166,12.154166,40,54,0
12.154166,12.216666,55,54,0
12.154166,12.216666,61,54,0
12.279166,12.404166,53,54,0
12.279166,12.404166,41,54,0
12.404166,12.4625,57,54,0
12.404166,12.466666,62,54,0
12.529166,12.591666,43,54,0
12.654166,12.716666,55,54,0
12.779166,12.858334,59,54,0
12.779166,12.8625,65,54,0
12.904166,12.9875,65,54,0
12.904166,12.9875,59,54,0
13.025,13.154166,48,54,0
13.154166,13.2125,60,54,0
13.154166,13.216666,64,54,0
13.275,13.404166,60,54,0
13.404166,13.466666,64,54,0
13.404166,13.466666,67,54,0
13.529166,13.654166,70,54,0
13.654166,13.775,65,54,0
13.779166,13.904166,62,54,0
13.529166,13.925,29,54,0
13.904166,14.029166,58,54,0
14.029166,14.154166,57,54,0
14.154166,14.279166,69,54,0
14.279166,14.404166,65,54,0
14.029166,14.404166,29,54,0
14.404166,14.4875,60,54,0
14.529166,14.654166,64,54,0
14.654166,14.779166,58,54,0
14.779166,14.904166,55,54,0
14.904166,15.029166,52,54,0
14.529166,15.1125,29,54,0
15.029166,15.154166,48,54,0
15.154166,15.275,53,54,0
15.279166,15.3625,57,54,0
15.279166,15.404166,50,54,0
15.279166,15.404166,38,54,0
15.529166,15.654166,36,54,0
15.654166,15.779166,48,54,0
15.779166,15.904166,52,54,0
15.904166,16.029167,60,54,0
15.904166,16.029167,57,54,0
16.029167,16.1125,64,54,0
16.029167,16.1125,52,54,0
16.029167,16.1125,56,54,0
16.029167,16.1125,59,54,0
16.529167,16.654167,45,54,0
16.654167,16.779167,53,54,0
16.779167,16.9,57,54,0
16.904167,17.029167,65,54,0
16.904167,17.029167,62,54,0
17.029167,17.1125,69,54,0
17.029167,17.1125,57,54,0
17.029167,17.1125,60,54,0
17.029167,17.1125,64,54,0
17.279167,17.4,65,54,0
17.279167,17.404167,77,54,0
17.404167,17.529167,74,54,0
17.404167,17.529167,62,54,0
17.529167,17.65,64,54,0
17.529167,17.654167,76,54,0
17.654167,17.779167,72,54,0
17.654167,17.779167,60,54,0
17.779167,17.904167,69,54,0
17.779167,17.904167,57,54,0
17.904167,18.029167,64,54,0
17.904167,18.029167,52,54,0
18.029167,18.154167,69,54,0
18.029167,18.154167,57,54,0
18.154167,18.2375,72,54,0
18.154167,18.2375,60,54,0
18.279167,18.4,50,54,0
18.279167,18.404167,62,54,0
18.279167,18.404167,65,54,0
18.279167,18.404167,77,54,0
18.404167,18.483334,53,54,0
18.404167,18.529167,74,54,0
18.529167,18.6125,52,54,0
18.529167,18.654167,64,54,0
18.529167,18.654167,76,54,0
18.654167,18.7375,57,54,0
18.654167,18.779167,72,54,0
18.779167,18.904167,69,54,0
18.779167,18.983334,60,54,0
18.904167,18.9875,64,54,0
19.025,19.029167,52,54,0
19.029167,19.1125,52,54,0
19.029167,19.154167,76,54,0
19.154167,19.2375,56,54,0
19.154167,19.279167,71,54,0
19.279167,19.404167,68,54,0
19.404167,19.4875,64,54,0
19.279167,19.4875,59,54,0
19.525,19.654167,45,54,0
19.654167,19.779167,52,54,0
19.779167,19.904167,57,54,0
19.529167,19.904167,69,54,0
19.529167,19.904167,73,54,0
19.529167,19.904167,76,54,0
19.904167,19.9875,61,54,0
20.029167,20.425,73,54,0
20.029167,20.425,69,54,0
20.029167,20.425,64,54,0
20.529167,20.654167,45,54,0
20.654167,20.779167,52,54,0
20.779167,20.904167,57,54,0
20.529167,20.925,69,54,0
20.529167,20.925,73,54,0
20.529167,20.925,64,54,0
20.904167,20.9875,61,54,0
21.279167,21.4,60,54,0
21.029167,21.404167,64,54,0
21.029167,21.404167,69,54,0
21.404167,21.529167,57,54,0
21.529167,21.654167,59,54,0
21.654167,21.779167,56,54,0
21.779167,21.904167,52,54,0
21.529167,21.925,68,54,0
21.529167,21.925,64,54,0
21.904167,22.025,47,54,0
22.029167,22.154167,52,54,0
22.154167,22.233334,56,54,0
22.279167,22.404167,45,54,0
22.279167,22.404167,57,54,0
22.279167,22.466667,64,54,0
22.279167,22.466667,69,54,0
22.404167,22.529167,48,54,0
22.529167,22.6125,47,54,0
22.654167,22.733334,52,54,0
22.529167,22.925,68,54,0
22.529167,22.925,64,54,0
22.779167,22.9875,56,54,0
23.029167,23.1125,47,54,0
23.154167,23.2375,51,54,0
23.029167,23.425,63,54,0
23.029167,23.425,66,54,0
23.279167,23.4875,54,54,0
23.529167,23.654167,40,54,0
23.654167,23.779167,47,54,0
23.779167,23.904167,52,54,0
23.529167,23.904167,68,54,0
23.529167,23.925,64,54,0
23.904167,23.9875,56,54,0
24.029167,24.425,64,54,0
24.029167,24.425,69,54,0
24.529167,24.65,40,54,0
24.654167,24.779167,45,54,0
24.779167,24.9,52,54,0
24.529167,24.904167,69,54,0
24.529167,24.925,64,54,0
24.904167,24.9875,57,54,0
25.529167,25.654167,70,54,0
25.654167,25.779167,65,54,0
25.779167,25.904167,62,54,0
25.529167,25.904167,29,54,0
25.904167,26.029167,58,54,0
26.029167,26.154167,57,54,0
26.154167,26.275,69,54,0
26.279167,26.404167,65,54,0
26.029167,26.425,29,54,0
26.404167,26.483334,60,54,0
26.529167,26.654167,64,54,0
26.654167,26.775,58,54,0
26.779167,26.904167,55,54,0
26.904167,27.029167,52,54,0
26.525,27.1125,29,54,0
27.029167,27.154167,48,54,0
27.154167,27.279167,53,54,0
27.279167,27.3625,57,54,0
27.529167,27.591667,38,54,0
27.654167,27.716667,50,54,0
27.779167,27.8375,53,54,0
27.779167,27.841667,58,54,0
27.904167,27.966667,53,54,0
27.904167,27.966667,58,54,0
28.029167,28.154167,52,54,0
28.029167,28.154167,40,54,0
28.154167,28.216667,61,54,0
28.154167,28.216667,55,54,0
28.279167,28.404167,53,54,0
28.279167,28.404167,41,54,0
28.404167,28.466667,62,54,0
28.404167,28.466667,57,54,0
28.529167,28.591667,43,54,0
28.654167,28.716667,55,54,0
28.779167,28.841667,64,64,0
28.779167,28.841667,58,64,0
28.904167,28.966667,58,64,0
28.9,28.966667,64,64,0
29.029167,29.15,45,64,0
29.154167,29.216667,61,74,0
29.154167,29.216667,64,74,0
29.279167,29.4,57,74,0
29.404167,29.4625,69,74,0
29.404167,29.466667,61,74,0
29.529167,29.654167,70,84,0
29.654167,29.779167,65,84,0
29.779167,29.904167,62,84,0
29.904167,30.029167,58,84,0
29.529167,30.029167,34,84,0
30.029167,30.154167,57,84,0
30.029167,30.216667,41,84,0
30.154167,30.279167,60,84,0
30.279167,30.3625,65,84,0
30.529167,30.654167,64,84,0
30.654167,30.775,58,84,0
30.779167,30.904167,55,84,0
30.904167,31.029167,52,84,0
30.525,31.029167,36,84,0
31.029167,31.154167,48,84,0
31.029167,31.216667,41,84,0
31.154167,31.279167,53,84,0
31.279167,31.3625,57,84,0
31.279167,31.404167,38,84,0
31.279167,31.404167,50,84,0
31.529167,31.654167,33,84,0
31.654167,31.779167,45,84,0
31.779167,31.904167,49,84,0
31.904167,32.029167,57,84,0
31.529167,32.029167,73,84,0
31.529167,32.029167,69,84,0
31.529167,32.029167,61,84,0
32.029167,32.154167,46,84,0
32.029167,32.154167,50,84,0
32.029167,32.216667,70,84,0
32.029167,32.216667,74,84,0
32.029167,32.216667,62,84,0
32.279167,32.404167,79,84,0
32.279167,32.404167,70,84,0
32.279167,32.404167,36,84,0
32.279167,32.404167,48,84,0
32.279167,32.404167,67,84,0
32.525,32.654167,29,84,0
32.654167,32.779167,41,84,0
32.779167,32.9,46,84,0
32.529167,32.925,74,84,0
32.529167,32.925,70,84,0
32.529167,32.925,62,84,0
32.904167,33.029167,53,84,0
33.029167,33.425,69,84,0
33.029167,33.425,60,84,0
33.029167,33.425,41,84,0
33.029167,33.425,48,84,0
33.029167,33.425,65,84,0
33.529167,33.654167,29,84,0
33.654167,33.779167,41,84,0
33.779167,33.904167,46,84,0
33.529167,33.925,58,84,0
33.529167,33.925,67,84,0
33.529167,33.925,70,84,0
33.904167,34.029167,53,84,0
34.029167,34.154167,65,84,0
34.029167,34.154167,57,84,0
34.029167,34.154167,48,84,0
34.029167,34.154167,41,84,0
34.029167,34.154167,69,84,0
34.279167,34.404167,67,84,0
34.279167,34.404167,55,84,0
34.279167,34.404167,48,84,0
34.279167,34.404167,41,84,0
34.279167,34.404167,64,84,0
34.529167,34.654167,29,84,0
34.654167,34.775,41,84,0
34.779167,34.904167,46,84,0
34.529167,34.904167,58,84,0
34.529167,34.904167,62,84,0
34.529167,34.925,70,84,0
34.904167,35.029167,53,84,0
35.029167,35.425,57,84,0
35.029167,35.425,60,84,0
35.029167,35.425,41,84,0
35.029167,35.425,48,84,0
35.029167,35.425,69,84,0
35.529167,35.654167,29,84,0
35.654167,35.779167,41,84,0
35.779167,35.904167,46,84,0
35.529167,35.904167,55,84,0
35.529167,35.904167,58,84,0
35.529167,35.925,67,84,0
35.904167,36.029167,53,84,0
36.029167,36.154167,57,84,0
36.029167,36.154167,53,84,0
36.029167,36.154167,41,84,0
36.029167,36.154167,48,84,0
36.029167,36.154167,65,84,0
36.279167,36.404167,52,84,0
36.279167,36.404167,60,84,0
36.279167,36.404167,41,84,0
36.279167,36.404167,48,84,0
36.279167,36.404167,55,84,0
36.525,36.654167,41,84,0
36.654167,36.779167,53,84,0
36.779167,36.904167,57,84,0
36.529167,36.904167,81,84,0
36.529167,36.904167,69,84,0
36.529167,36.904167,77,84,0
36.904167,36.9875,62,84,0
37.029167,37.425,79,84,0
37.029167,37.425,69,84,0
37.029167,37.425,81,84,0
37.029167,37.425,76,84,0
37.029167,37.4875,53,84,0
37.029167,37.4875,61,84,0
37.529167,37.654167,41,84,0
37.654167,37.779167,53,84,0
37.779167,37.904167,57,84,0
37.529167,37.925,77,84,0
37.529167,37.925,69,84,0
37.529167,37.925,81,84,0
37.529167,37.925,74,84,0
37.904167,38.029167,65,84,0
38.029167,38.154167,62,84,0
38.029167,38.154167,57,84,0
38.029167,38.154167,53,84,0
38.154167,38.279167,74,84,0
38.279167,38.404167,72,84,0
38.279167,38.404167,41,84,0
38.404167,38.4875,69,84,0
38.529167,38.925,71,84,0
38.529167,38.925,67,84,0
38.529167,38.925,55,84,0
38.529167,38.925,62,84,0
38.525,38.925,53,84,0
38.529167,38.925,79,84,0
38.529167,38.925,59,84,0
39.029167,39.15,57,84,0
39.029167,39.154167,53,84,0
39.029167,39.154167,60,84,0
39.029167,39.154167,62,84,0
39.154167,39.279167,74,84,0
39.279167,39.404167,72,84,0
39.279167,39.404167,41,84,0
39.404167,39.483334,69,84,0
39.529167,39.925,62,84,0
39.529167,39.925,59,84,0
39.529167,39.925,53,84,0
39.529167,39.925,55,84,0
39.529167,39.9875,71,84,0
39.529167,39.9875,79,84,0
39.529167,39.9875,67,84,0
40.029167,40.154167,60,84,0
40.029167,40.154167,53,84,0
40.029167,40.154167,57,84,0
40.029167,40.154167,62,84,0
40.154167,40.275,74,84,0
40.279167,40.404167,72,84,0
40.279167,40.404167,41,84,0
40.404167,40.4875,69,84,0
40.65,40.779167,86,84,0
40.779167,40.904167,84,74,0
40.529167,40.966667,60,84,0
40.529167,40.966667,65,84,0
40.525,40.966667,53,84,0
40.529167,40.966667,57,84,0
40.904167,41.029167,81,74,0
41.029167,41.154167,77,74,0
41.029167,41.154167,38,64,0
41.154167,41.279167,74,64,0
41.279167,41.4,72,64,0
41.404167,41.4875,69,64,0
41.529167,42.1125,59,54,0
41.529167,42.529167,53,54,0
41.529167,42.529167,43,54,0
42.529167,42.925,36,54,0
43.195835,43.358334,60,54,0
43.195835,43.3625,52,54,0
43.025,43.425,36,54,0
43.3625,43.4875,53,54,0
43.3625,43.4875,62,54,0
43.529167,44.154167,65,54,0
43.529167,44.154167,57,54,0
44.195835,44.3625,64,54,0
44.195835,44.3625,55,54,0
43.529167,44.425,36,54,0
44.3625,44.483334,60,54,0
44.3625,44.4875,52,54,0
44.529167,44.820835,53,54,0
44.529167,44.820835,62,54,0
44.525,44.925,36,54,0
44.8625,45.154167,59,54,0
44.8625,45.154167,50,54,0
45.195835,45.3625,60,54,0
45.191666,45.3625,52,54,0
45.029167,45.425,36,54,0
45.3625,45.4875,57,54,0
45.3625,45.4875,52,54,0
45.529167,45.820835,50,54,0
45.529167,45.820835,59,54,0
45.8625,46.154167,57,54,0
45.8625,46.154167,48,54,0
46.195835,46.3625,55,54,0
46.195835,46.3625,47,54,0
45.529167,46.420834,36,54,0
46.3625,46.4875,62,54,0
46.3625,46.4875,57,54,0
46.529167,46.816666,57,54,0
46.529167,46.820835,65,54,0
46.695835,46.8625,36,54,0
46.8625,46.9875,48,54,0
46.8625,47.154167,63,54,0
46.8625,47.154167,54,54,0
47.025,47.320835,60,54,0
47.195835,47.3625,64,54,0
47.195835,47.3625,72,54,0
47.3625,47.4875,55,54,0
47.3625,47.4875,48,54,0
47.3625,47.4875,74,54,0
47.3625,47.4875,65,54,0
47.695835,47.8625,36,54,0
47.8625,47.983334,48,54,0
47.529167,48.154167,69,54,0
47.525,48.154167,77,54,0
48.195835,48.3625,67,54,0
48.195835,48.3625,76,54,0
48.3625,48.4875,72,54,0
48.3625,48.4875,64,54,0
48.029167,48.4875,60,54,0
48.529167,48.820835,74,54,0
48.529167,48.820835,65,54,0
48.691666,48.8625,36,54,0
48.8625,48.9875,48,54,0
48.8625,49.154167,71,54,0
48.8625,49.154167,62,54,0
49.195835,49.3625,64,54,0
49.191666,49.3625,72,54,0
49.029167,49.483334,60,54,0
49.3625,49.4875,70,54,0
49.3625,49.4875,67,54,0
49.529167,49.820835,66,54,0
49.529167,49.820835,69,54,0
49.695835,49.8625,36,54,0
49.8625,49.9875,48,54,0
49.8625,50.15,68,54,0
49.8625,50.154167,65,54,0
50.195835,50.3625,67,54,0
50.195835,50.3625,64,54,0
50.3625,50.4875,63,54,0
50.3625,50.4875,66,54,0
50.029167,50.4875,60,54,0
50.529167,50.9875,62,54,0
50.529167,50.9875,67,54,0
50.529167,50.9875,41,54,0
50.529167,50.9875,53,54,0
50.529167,50.9875,55,54,0
51.195835,51.3625,74,54,0
51.029167,51.3625,59,54,0
51.029167,51.3625,53,54,0
51.3625,51.4875,71,54,0
51.3625,51.4875,62,54,0
51.529167,51.820835,72,54,0
51.529167,51.9875,55,54,0
51.529167,51.9875,52,54,0
52.195835,52.3625,55,54,0
52.029167,52.483334,40,54,0
52.3625,52.4875,58,54,0
52.529167,52.820835,57,54,0
52.529167,52.820835,69,54,0
52.529167,52.820835,61,54,0
52.529167,52.983334,43,54,0
52.529167,52.9875,55,54,0
53.195835,53.3625,76,54,0
53.029167,53.3625,61,54,0
53.029167,53.3625,55,54,0
53.3625,53.4875,73,54,0
53.3625,53.4875,64,54,0
53.529167,53.820835,74,54,0
53.529167,53.9875,53,54,0
53.529167,53.9875,57,54,0
54.195835,54.3625,57,54,0
54.3625,54.4875,60,54,0
54.029167,54.4875,41,54,0
54.529167,54.654167,59,54,0
54.529167,54.716667,41,54,0
54.529167,54.716667,50,54,0
54.529167,54.716667,55,54,0
54.654167,54.779167,64,54,0
54.779167,54.904167,62,54,0
54.904167,55.029167,69,54,0
55.029167,55.216667,59,54,0
55.029167,55.216667,53,54,0
55.029167,55.216667,62,54,0
55.029167,55.2375,67,54,0
55.529167,55.654167,79,54,0
55.529167,55.7125,52,54,0
55.529167,55.716667,64,54,0
55.529167,55.716667,60,54,0
55.654167,55.779167,74,54,0
55.779167,55.904167,76,54,0
55.904167,56.029167,71,54,0
56.029167,56.216667,48,54,0
56.029167,56.216667,40,54,0
56.029167,56.233334,72,54,0
56.529167,56.654167,61,54,0
56.529167,56.716667,57,54,0
56.529167,56.716667,52,54,0
56.529167,56.716667,43,54,0
56.654167,56.779167,65,54,0
56.779167,56.904167,64,54,0
56.904167,57.029167,70,54,0
57.029167,57.216667,61,54,0
57.029167,57.216667,55,54,0
57.029167,57.216667,64,54,0
57.029167,57.2375,69,54,0
57.529167,57.654167,81,54,0
57.525,57.716667,65,54,0
57.529167,57.716667,53,54,0
57.529167,57.716667,62,54,0
57.654167,57.779167,76,54,0
57.779167,57.904167,77,54,0
57.904167,58.029167,73,54,0
58.029167,58.216667,74,54,0
58.029167,58.216667,41,54,0
58.029167,58.216667,50,54,0
58.279167,58.775,69,64,0
58.279167,58.779167,81,64,0
58.279167,58.779167,77,64,0
58.779167,59.025,73,54,0
58.779167,59.029167,64,54,0
58.779167,59.029167,76,54,0
59.029167,59.216667,77,54,0
58.529167,59.216667,43,54,0
59.029167,59.216667,74,54,0
59.029167,59.216667,65,54,0
59.279167,59.529167,72,54,0
59.279167,59.529167,60,54,0
59.279167,59.529167,69,54,0
59.275,59.7125,43,84,0
59.279167,59.716667,53,84,0
59.279167,59.716667,50,84,0
59.529167,59.775,62,54,0
59.529167,59.779167,59,54,0
59.529167,59.779167,71,54,0
59.779167,60.025,58,84,0
59.779167,60.029167,61,54,0
59.779167,60.029167,73,54,0
59.779167,60.029167,70,54,0
60.029167,60.216667,59,84,0
60.029167,60.275,71,54,0
60.029167,60.279167,62,54,0
60.029167,60.279167,74,54,0
60.279167,60.466667,76,54,0
60.279167,60.466667,64,54,0
60.279167,60.466667,70,54,0
60.279167,60.529167,55,84,0
60.279167,60.529167,57,84,0
60.529167,60.925,55,84,0
60.529167,60.925,59,84,0
60.529167,61.529167,67,84,0
60.529167,61.529167,71,84,0
60.529167,61.529167,79,84,0
61.529167,61.925,70,54,0
61.029167,61.925,43,54,0
61.529167,61.925,77,54,0
61.529167,61.925,65,54,0
63.154167,63.2375,64,84,0
63.154167,63.2375,60,84,0
63.279167,63.358334,62,84,0
63.279167,63.3625,65,84,0
63.404167,63.4875,69,84,0
63.404167,63.4875,65,84,0
63.525,63.529167,67,84,0
63.529167,63.925,72,84,0
63.529167,63.925,67,84,0
63.529167,63.925,64,84,0
64.15417,64.2375,64,84,0
64.15417,64.2375,60,84,0
64.27917,64.3625,65,84,0
64.27917,64.3625,62,84,0
64.40417,64.4875,62,84,0
64.40417,64.4875,55,84,0
64.52917,64.925,64,84,0
64.52917,64.925,60,84,0
64.02917,64.925,72,84,0
64.02917,64.925,70,84,0
65.15417,65.2375,52,84,0
65.27917,65.3625,55,84,0
65.40417,65.4875,62,84,0
65.02917,65.925,67,84,0
65.02917,65.925,72,84,0
65.02917,65.925,70,84,0
65.52917,65.9875,60,84,0
66.15,66.2375,52,84,0
66.27917,66.3625,55,84,0
66.02917,66.425,70,84,0
66.02917,66.425,67,84,0
66.02917,66.425,72,84,0
66.4,66.4875,43,84,0
66.77917,66.8625,72,84,0
66.77917,66.8625,64,84,0
66.52917,66.925,48,84,0
66.52917,66.925,46,84,0
66.90417,66.9875,76,84,0
67.02917,67.10833,65,84,0
67.02917,67.1125,74,84,0
67.15417,67.2375,77,84,0
67.27917,67.35833,69,84,0
67.27917,67.3625,77,84,0
67.02917,67.425,48,84,0
67.02917,67.425,46,84,0
67.40417,67.4875,81,84,0
67.52917,67.60833,67,84,0
67.52917,67.6125,76,84,0
67.65417,67.7375,79,84,0
67.77917,67.8625,72,84,0
67.77917,67.8625,64,84,0
67.90417,67.9875,76,84,0
68.02917,68.1125,74,84,0
68.02917,68.1125,65,84,0
68.15417,68.2375,77,84,0
68.27917,68.3625,62,84,0
68.27917,68.3625,67,84,0
67.52917,68.42083,46,84,0
67.52917,68.425,48,84,0
68.40417,68.4875,74,84,0
68.52917,68.6125,72,84,0
68.52917,68.6125,64,84,0
68.65417,68.73333,76,84,0
68.77917,68.8625,70,84,0
68.775,68.8625,60,84,0
68.52917,68.925,44,84,0
68.52917,68.925,48,84,0
68.90417,68.98333,72,84,0
69.02917,69.1125,68,84,0
69.02917,69.1125,62,84,0
69.15417,69.23333,74,84,0
69.27917,69.3625,69,84,0
69.27917,69.3625,65,84,0
69.02917,69.40417,48,84,0
69.02917,69.40417,41,84,0
69.40417,69.4875,77,84,0
69.52917,69.6125,72,84,0
69.52917,69.6125,64,84,0
69.65417,69.7375,76,84,0
69.77917,69.8625,64,84,0
69.77917,69.8625,60,84,0
69.90417,69.9875,72,84,0
70.02917,70.1125,67,84,0
70.02917,70.1125,62,84,0
69.52917,70.21667,48,84,0
69.52917,70.21667,36,84,0
70.15,70.2375,74,84,0
70.27917,70.3625,62,84,0
70.27917,70.3625,55,84,0
70.27917,70.46667,43,84,0
70.27917,70.46667,48,84,0
70.27917,70.46667,50,84,0
70.40417,70.4875,67,84,0
70.52917,70.6125,64,84,0
70.52917,70.6125,72,84,0
70.65,70.7375,76,84,0
70.77917,70.8625,64,84,0
70.77917,70.8625,60,84,0
70.90417,70.9875,72,84,0
71.02917,71.1125,67,84,0
71.02917,71.1125,62,84,0
70.52917,71.21667,48,84,0
70.525,71.21667,36,84,0
71.15417,71.2375,74,84,0
71.27917,71.35833,62,84,0
71.27917,71.3625,55,84,0
71.275,71.46667,43,84,0
71.27917,71.46667,48,84,0
71.27917,71.46667,50,84,0
71.40417,71.4875,67,84,0
71.52917,71.60833,70,84,0
71.52917,71.6125,67,84,0
71.65417,71.7375,79,84,0
71.77917,71.85833,70,84,0
71.77917,71.8625,64,84,0
71.90417,71.9875,76,84,0
72.02917,72.1125,70,84,0
72.02917,72.1125,65,84,0
71.52917,72.2125,36,84,0
71.52917,72.21667,48,84,0
72.15417,72.2375,77,84,0
72.27917,72.3625,70,84,0
72.27917,72.3625,62,84,0
72.27917,72.4625,43,84,0
72.27917,72.46667,48,84,0
72.27917,72.46667,53,84,0
72.40417,72.4875,74,84,0
72.52917,72.6125,76,84,0
72.52917,72.6125,70,84,0
72.65417,72.7375,82,84,0
72.77917,72.8625,67,84,0
72.77917,72.8625,76,84,0
72.90417,72.98333,79,84,0
73.02917,73.1125,77,84,0
73.025,73.1125,69,84,0
72.52917,73.21667,48,84,0
72.52917,73.21667,36,84,0
73.15417,73.23333,81,84,0
73.27917,73.3625,71,84,0
73.27917,73.3625,65,84,0
73.27917,73.3625,74,84,0
73.27917,73.46667,55,84,0
73.27917,73.46667,43,84,0
73.27917,73.46667,48,84,0
73.40417,73.48333,77,84,0
73.52917,73.65417,43,84,0
73.52917,73.65417,36,84,0
73.65417,73.77917,48,84,0
73.77917,73.90417,55,84,0
73.52917,73.90417,76,84,0
73.52917,73.90417,72,84,0
73.52917,73.90417,84,84,0
73.90417,73.9875,60,84,0
74.02917,74.15417,53,84,0
74.02917,74.15417,48,84,0
74.02917,74.15417,57,84,0
74.15417,74.27917,60,84,0
74.27917,74.40417,65,84,0
74.02917,74.40417,72,84,0
74.02917,74.40417,74,84,0
74.02917,74.40417,77,84,0
74.02917,74.425,84,84,0
74.40417,74.4875,69,84,0
74.52917,75.1125,79,84,0
74.52917,75.1125,60,84,0
74.52917,75.1125,84,84,0
74.52917,75.1125,67,84,0
74.52917,75.1125,72,84,0
74.52917,75.1125,76,84,0
75.52917,75.925,67,54,0
75.52917,75.925,64,54,0
75.52917,75.925,72,54,0
75.52917,76.1125,36,54,0
76.15417,76.27917,48,54,0
76.27917,76.40417,50,54,0
76.02917,76.425,72,54,0
76.02917,76.425,62,54,0
76.02917,76.425,69,54,0
76.02917,76.425,65,54,0
76.40417,76.4875,53,54,0
76.52917,77.1125,67,54,0
76.52917,77.1125,52,54,0
76.52917,77.1125,70,54,0
76.52917,77.1125,48,54,0
76.52917,77.1125,60,54,0
76.52917,77.1125,64,54,0
77.52917,77.65417,70,54,0
77.65417,77.77917,65,54,0
77.77917,77.90417,62,54,0
77.525,77.90417,29,54,0
77.90417,78.02917,58,54,0
78.02917,78.15417,57,54,0
78.15417,78.27917,69,54,0
78.27917,78.40417,65,54,0
78.02917,78.40417,28,54,0
78.40417,78.4875,60,54,0
78.52917,78.65417,64,54,0
78.65417,78.77917,58,54,0
78.77917,78.90417,55,54,0
78.90417,79.02917,52,54,0
79.02917,79.15,48,54,0
78.52917,79.21667,29,54,0
79.15417,79.27917,53,54,0
79.27917,79.35833,57,54,0
79.52917,79.59167,38,54,0
79.65417,79.7125,50,54,0
79.77917,79.84167,58,54,0
79.77917,79.84167,53,54,0
79.90417,79.96667,58,54,0
79.90417,79.96667,53,54,0
80.02917,80.15417,52,54,0
80.02917,80.15417,40,54,0
80.15417,80.2125,55,54,0
80.15417,80.21667,61,54,0
80.27917,80.40417,53,54,0
80.27917,80.40417,41,54,0
80.40417,80.46667,62,54,0
80.40417,80.46667,57,54,0
80.52917,80.59167,43,54,0
80.65417,80.71667,55,54,0
80.77917,80.84167,65,54,0
80.77917,80.84167,59,54,0
80.90417,80.96667,65,54,0
80.90417,80.96667,59,54,0
81.025,81.15417,48,54,0
81.15417,81.21667,60,54,0
81.15417,81.21667,64,54,0
81.275,81.40417,60,54,0
81.40417,81.46667,67,54,0
81.40417,81.46667,64,54,0
81.52917,81.65417,70,54,0
81.65417,81.775,65,54,0
81.77917,81.90417,62,54,0
81.525,81.925,29,54,0
81.90417,82.025,58,54,0
82.02917,82.15417,57,54,0
82.15417,82.27917,69,54,0
82.27917,82.40417,65,54,0
82.02917,82.425,29,54,0
82.40417,82.4875,60,54,0
82.52917,82.65417,64,54,0
82.65417,82.77917,58,54,0
82.77917,82.90417,55,54,0
82.90417,83.02917,52,54,0
82.52917,83.1125,29,54,0
83.02917,83.15417,48,54,0
83.15417,83.275,53,54,0
83.27917,83.3625,57,54,0
83.27917,83.46667,50,54,0
83.27917,83.46667,38,54,0
83.52917,83.65,36,54,0
83.65417,83.77917,48,54,0
83.77917,83.90417,52,54,0
83.90417,84.025,57,54,0
83.90417,84.02917,60,54,0
84.02917,84.1125,64,54,0
84.02917,84.1125,56,54,0
84.02917,84.1125,52,54,0
84.02917,84.1125,59,54,0
84.52917,84.65417,45,54,0
84.65417,84.77917,53,54,0
84.77917,84.90417,57,54,0
84.90417,85.02917,65,54,0
84.90417,85.02917,62,54,0
85.02917,85.1125,64,54,0
85.02917,85.1125,60,54,0
85.02917,85.1125,57,54,0
85.02917,85.1125,69,54,0
85.27917,85.4,65,54,0
85.27917,85.40417,77,54,0
85.40417,85.52917,74,54,0
85.40417,85.52917,62,54,0
85.52917,85.65417,76,54,0
85.52917,85.65417,64,54,0
85.65417,85.77917,72,54,0
85.65417,85.77917,60,54,0
85.77917,85.90417,69,54,0
85.77917,85.90417,57,54,0
85.90417,86.02917,64,54,0
85.90417,86.02917,52,54,0
86.02917,86.15417,69,54,0
86.02917,86.15417,57,54,0
86.15417,86.23333,60,54,0
86.15417,86.2375,72,54,0
86.27917,86.4,62,54,0
86.27917,86.40417,50,54,0
86.27917,86.40417,77,54,0
86.27917,86.40417,65,54,0
86.40417,86.52917,74,54,0
86.40417,86.52917,53,54,0
86.52917,86.65417,64,54,0
86.52917,86.65417,76,54,0
86.52917,86.65417,52,54,0
86.65417,86.77917,72,54,0
86.65417,86.77917,57,54,0
86.77917,86.90417,69,54,0
86.77917,86.96667,60,54,0
86.90417,86.9875,64,54,0
87.02917,87.15417,76,54,0
87.02917,87.15417,52,54,0
87.15417,87.275,56,54,0
87.15417,87.27917,71,54,0
87.27917,87.40417,68,54,0
87.40417,87.4875,64,54,0
87.27917,87.4875,59,54,0
87.525,87.65,45,54,0
87.65417,87.77917,52,54,0
87.77917,87.9,57,54,0
87.52917,87.925,73,54,0
87.52917,87.925,76,54,0
87.52917,87.925,69,54,0
87.90417,87.9875,61,54,0
88.02917,88.425,73,54,0
88.02917,88.425,69,54,0
88.02917,88.425,64,54,0
88.52917,88.65417,45,54,0
88.65417,88.77917,52,54,0
88.77917,88.90417,57,54,0
88.52917,88.925,64,54,0
88.52917,88.925,73,54,0
88.52917,88.925,69,54,0
88.90417,88.9875,61,54,0
89.02917,89.2125,64,54,0
89.02917,89.21667,69,54,0
89.27917,89.4,60,54,0
89.27917,89.40417,72,54,0
89.40417,89.52917,69,54,0
89.40417,89.52917,57,54,0
89.52917,89.65,59,54,0
89.52917,89.65417,71,54,0
89.65417,89.77917,68,54,0
89.65417,89.77917,56,54,0
89.77917,89.90417,64,54,0
89.77917,89.90417,52,54,0
89.90417,90.02917,59,54,0
89.90417,90.02917,47,54,0
90.02917,90.15417,64,54,0
90.02917,90.15417,52,54,0
90.15417,90.2375,68,54,0
90.15417,90.2375,56,54,0
90.27917,90.3625,57,54,0
90.27917,90.3625,45,54,0
90.27917,90.40417,60,54,0
90.27917,90.40417,72,54,0
90.40417,90.4875,48,54,0
90.40417,90.52917,69,54,0
90.52917,90.6125,47,54,0
90.52917,90.65417,59,54,0
90.52917,90.65417,71,54,0
90.65417,90.7375,52,54,0
90.65417,90.775,68,54,0
90.77917,90.90417,64,54,0
90.77917,90.98333,56,54,0
90.90417,90.9875,59,54,0
91.025,91.02917,47,54,0
91.02917,91.1125,47,54,0
91.02917,91.15417,71,54,0
91.15417,91.2375,51,54,0
91.15417,91.27917,66,54,0
91.27917,91.40417,63,54,0
91.40417,91.4875,59,54,0
91.27917,91.4875,54,54,0
91.52917,91.65417,40,54,0
91.65417,91.77917,47,54,0
91.77917,91.9,52,54,0
91.52917,91.925,71,54,0
91.52917,91.925,64,54,0
91.52917,91.925,68,54,0
91.90417,91.9875,56,54,0
92.02917,92.425,64,54,0
92.02917,92.425,72,54,0
92.02917,92.425,69,54,0
92.52917,92.65417,40,54,0
92.65417,92.77917,45,54,0
92.77917,92.90417,52,54,0
92.52917,92.90417,69,54,0
92.52917,92.90417,72,54,0
92.52917,92.90417,64,54,0
92.90417,92.9875,57,54,0
93.02917,93.425,73,54,0
93.02917,93.425,64,54,0
93.02917,93.425,69,54,0
93.52917,93.925,29,54,0
93.52917,94.15417,74,54,0
94.15417,94.275,72,54,0
94.27917,94.40417,70,54,0
94.02917,94.425,29,54,0
94.40417,94.48333,69,54,0
94.52917,94.65417,67,54,0
94.65417,94.77917,69,54,0
94.77917,94.90417,70,54,0
94.90417,95.02917,72,54,0
94.525,95.1125,29,54,0
95.02917,95.15417,70,54,0
95.15417,95.2375,69,54,0
95.27917,95.3625,77,54,0
95.4,95.4875,65,54,0
95.52917,95.6125,82,54,0
95.525,95.6125,58,54,0
95.52917,95.6125,53,54,0
95.52917,95.6125,50,54,0
95.65417,95.7375,70,54,0
95.65417,95.7375,62,54,0
95.77917,95.8625,81,54,0
95.9,95.9875,69,54,0
96.02917,96.1125,79,54,0
96.025,96.1125,52,54,0
96.02917,96.1125,61,54,0
96.02917,96.1125,55,54,0
96.15417,96.2375,67,54,0
96.15417,96.2375,64,54,0
96.27917,96.3625,62,54,0
96.275,96.3625,57,54,0
96.27917,96.3625,53,54,0
96.27917,96.40417,82,54,0
96.27917,96.40417,70,54,0
96.40417,96.4875,69,54,0
96.40417,96.4875,81,54,0
96.40417,96.4875,65,54,0
96.52917,96.6125,76,54,0
96.52917,96.6125,55,54,0
96.52917,96.6125,58,54,0
96.65417,96.7375,64,54,0
96.65,96.7375,67,54,0
96.77917,96.8625,74,54,0
96.90417,96.9875,62,54,0
97.02917,97.1125,73,54,0
97.15417,97.2375,61,54,0
97.02917,97.2375,64,54,0
97.02917,97.2375,57,54,0
97.52917,97.65417,70,84,0
97.65417,97.77917,65,84,0
97.77917,97.90417,62,84,0
97.90417,98.02917,58,84,0
97.52917,98.02917,34,84,0
98.02917,98.15417,57,84,0
98.02917,98.21667,41,84,0
98.15417,98.275,60,84,0
98.27917,98.3625,65,84,0
98.52917,98.65417,64,84,0
98.65417,98.775,58,84,0
98.77917,98.90417,55,84,0
98.90417,99.02917,52,84,0
98.525,99.02917,36,84,0
99.02917,99.15417,48,84,0
99.02917,99.21667,41,84,0
99.15417,99.27917,53,84,0
99.27917,99.3625,57,84,0
99.52917,99.65417,33,84,0
99.65417,99.77917,45,84,0
99.77917,99.90417,49,84,0
99.90417,100.02917,57,84,0
99.52917,100.02917,69,84,0
99.52917,100.02917,73,84,0
99.52917,100.02917,61,84,0
100.02917,100.15417,70,84,0
100.02917,100.15417,62,84,0
100.02917,100.15417,46,84,0
100.02917,100.15417,50,84,0
100.02917,100.15417,74,84,0
100.27917,100.40417,79,84,0
100.27917,100.40417,67,84,0
100.275,100.40417,36,84,0
100.27917,100.40417,48,84,0
100.27917,100.40417,70,84,0
100.52917,100.65,29,84,0
100.65417,100.77917,41,84,0
100.77917,100.9,46,84,0
100.90417,101.02917,53,84,0
100.52917,101.02917,74,84,0
100.52917,101.02917,62,84,0
100.52917,101.02917,70,84,0
101.02917,101.15,60,84,0
101.02917,101.15417,69,84,0
101.02917,101.15417,72,84,0
101.02917,101.2375,48,84,0
101.02917,101.2375,41,84,0
101.27917,101.40417,69,84,0
101.27917,101.40417,29,84,0
101.27917,101.40417,77,84,0
101.27917,101.40417,81,84,0
101.40417,101.4875,74,84,0
101.40417,101.4875,41,84,0
101.52917,101.65417,76,84,0
101.52917,101.65417,36,84,0
101.52917,101.65417,79,84,0
101.52917,101.65417,67,84,0
101.65417,101.77917,72,84,0
101.65417,101.77917,48,84,0
101.77917,101.9,52,84,0
101.77917,101.90417,67,84,0
101.90417,102.02917,64,84,0
101.90417,102.02917,55,84,0
102.02917,102.15,52,84,0
102.02917,102.15417,67,84,0
102.15417,102.2375,72,84,0
102.15417,102.2375,48,84,0
102.27917,102.40417,81,84,0
102.27917,102.40417,28,84,0
102.27917,102.40417,69,84,0
102.27917,102.40417,77,84,0
102.40417,102.4875,74,84,0
102.40417,102.4875,41,84,0
102.52917,102.65417,76,84,0
102.52917,102.65417,36,84,0
102.52917,102.65417,67,84,0
102.52917,102.65417,79,84,0
102.65417,102.77917,72,84,0
102.65417,102.77917,48,84,0
102.77917,102.90417,67,84,0
102.77917,102.90417,52,84,0
102.90417,102.9875,64,84,0
102.90417,102.9875,55,84,0
103.02917,103.15,31,84,0
103.02917,103.15417,79,84,0
103.02917,103.15417,74,84,0
103.02917,103.15417,67,84,0
103.15417,103.23333,43,84,0
103.15417,103.2375,71,84,0
103.27917,103.40417,77,84,0
103.27917,103.40417,26,84,0
103.27917,103.40417,65,84,0
103.27917,103.40417,74,84,0
103.40417,103.48333,38,84,0
103.40417,103.4875,71,84,0
103.52917,103.65,33,84,0
103.52917,103.65417,76,84,0
103.52917,103.65417,73,84,0
103.52917,103.65417,64,84,0
103.65417,103.77917,69,84,0
103.65417,103.77917,45,84,0
103.77917,103.90417,64,84,0
103.77917,103.90417,49,84,0
103.90417,104.025,52,84,0
103.90417,104.02917,61,84,0
104.02917,104.15417,64,84,0
104.02917,104.15417,49,84,0
104.15417,104.2375,69,84,0
104.15417,104.2375,45,84,0
104.27917,104.40417,77,84,0
104.275,104.40417,26,84,0
104.27917,104.40417,65,84,0
104.27917,104.40417,74,84,0
104.40417,104.4875,71,84,0
104.40417,104.4875,38,84,0
104.52917,104.65417,64,84,0
104.525,104.65417,33,84,0
104.52917,104.65417,73,84,0
104.52917,104.65417,76,84,0
104.65417,104.77917,69,84,0
104.65417,104.77917,45,84,0
104.77917,104.90417,64,84,0
104.77917,104.90417,49,84,0
104.90417,104.9875,61,84,0
104.90417,105.025,52,84,0
105.02917,105.15417,76,84,0
105.02917,105.15417,28,84,0
105.02917,105.15417,71,84,0
105.02917,105.15417,64,84,0
105.15417,105.2375,68,84,0
105.15417,105.27917,40,84,0
105.27917,105.40417,57,84,0
105.27917,105.40417,69,84,0
105.27917,105.40417,33,84,0
105.40417,105.4875,61,84,0
105.40417,105.52917,45,84,0
105.52917,105.65417,62,84,0
105.65417,105.77917,58,84,0
105.77917,105.90417,50,84,0
105.52917,105.92083,38,84,0
105.90417,106.02917,58,84,0
106.02917,106.15417,62,84,0
106.15417,106.27917,57,84,0
106.27917,106.40417,50,84,0
106.02917,106.425,38,84,0
106.40417,106.52917,57,84,0
106.52917,106.65417,62,84,0
106.65417,106.775,52,84,0
106.77917,106.90417,50,84,0
106.90417,107.025,52,84,0
107.02917,107.15417,62,84,0
106.52917,107.21667,38,84,0
107.15417,107.275,53,84,0
107.27917,107.40417,50,84,0
107.27917,107.40417,41,84,0
107.40417,107.4875,53,84,0
107.52917,107.65417,46,84,0
107.65417,107.71667,65,84,0
107.65417,107.71667,62,84,0
107.65417,107.71667,58,84,0
107.77917,107.90417,45,84,0
107.90417,107.96667,62,84,0
107.90417,107.96667,65,84,0
107.90417,107.96667,57,84,0
108.02917,108.15417,43,84,0
108.15417,108.21667,65,84,0
108.15417,108.21667,62,84,0
108.15417,108.21667,55,84,0
108.27917,108.40417,46,84,0
108.40417,108.46667,65,84,0
108.40417,108.46667,62,84,0
108.40417,108.46667,57,84,0
108.40417,108.4875,45,84,0
108.52917,108.65417,41,84,0
108.65417,108.71667,65,84,0
108.65417,108.71667,62,84,0
108.65417,108.71667,53,84,0
108.77917,108.90417,40,84,0
108.90417,108.96667,61,84,0
108.90417,108.96667,55,84,0
108.90417,108.96667,52,84,0
109.02917,109.15417,38,84,0
109.15417,109.21667,62,84,0
109.15417,109.21667,53,84,0
109.27917,109.40417,77,84,0
109.27917,109.40417,75,84,0
109.275,109.40417,41,84,0
109.27917,109.40417,53,84,0
109.27917,109.40417,69,84,0
109.52917,109.92083,46,84,0
109.52917,110.1125,86,84,0
109.52917,110.1125,77,84,0
109.52917,110.1125,74,84,0
110.15417,110.27917,76,84,0
110.15417,110.27917,84,84,0
110.27917,110.40417,74,84,0
110.27917,110.40417,82,84,0
110.02917,110.40417,43,84,0
110.40417,110.52917,81,84,0
110.40417,110.52917,72,84,0
110.52917,110.65,70,84,0
110.52917,110.65417,79,84,0
110.65417,110.77917,72,84,0
110.65417,110.77917,81,84,0
110.77917,110.9,82,84,0
110.77917,110.90417,74,84,0
110.52917,110.90417,40,84,0
110.90417,111.02917,84,84,0
110.90417,111.02917,76,84,0
111.02917,111.15417,74,84,0
111.02917,111.15417,82,84,0
111.02917,111.21667,45,84,0
111.15417,111.2375,73,84,0
111.15417,111.2375,81,84,0
111.27917,111.40417,79,84,0
111.27917,111.40417,67,84,0
111.27917,111.40417,64,84,0
111.27917,111.40417,76,84,0
111.40417,111.4875,77,84,0
111.40417,111.4875,65,84,0
111.40417,111.4875,62,84,0
111.40417,111.4875,74,84,0
111.52917,112.2375,73,84,0
111.52917,112.2375,61,84,0
111.52917,112.2375,64,84,0
111.52917,112.2375,76,84,0
112.27917,112.40417,76,84,0
112.275,112.40417,72,84,0
112.27917,112.40417,64,84,0
112.27917,112.40417,84,84,0
112.40417,112.4875,74,84,0
112.40417,112.4875,62,84,0
112.40417,112.4875,70,84,0
112.40417,112.4875,82,84,0
112.52917,112.65417,73,84,0
112.525,112.65417,69,84,0
112.52917,112.65417,61,84,0
112.52917,112.65417,81,84,0
112.775,112.9,67,84,0
112.77917,112.90417,64,84,0
112.77917,112.90417,79,84,0
112.77917,112.90417,76,84,0
112.90417,112.98333,62,84,0
112.90417,112.9875,65,84,0
112.90417,112.9875,74,84,0
112.90417,112.9875,77,84,0
113.02917,113.21667,73,84,0
113.02917,113.21667,61,84,0
113.02917,113.21667,64,84,0
113.02917,113.21667,76,84,0
113.27917,113.4,62,84,0
113.27917,113.40417,65,84,0
113.27917,113.40417,74,84,0
113.27917,113.40417,77,84,0
113.40417,113.48333,64,84,0
113.40417,113.4875,60,84,0
113.40417,113.4875,76,84,0
113.40417,113.4875,72,84,0
113.52917,114.2125,74,84,0
113.52917,114.21667,70,84,0
113.52917,114.2375,62,84,0
113.52917,114.2375,58,84,0
114.27917,114.4,64,84,0
114.27917,114.40417,72,84,0
114.27917,114.46667,43,84,0
114.40417,114.4875,62,84,0
114.40417,114.4875,70,84,0
114.52917,114.65417,61,84,0
114.52917,114.65417,69,84,0
114.52917,114.65417,45,84,0
114.77917,114.90417,52,84,0
114.77917,114.90417,40,84,0
114.90417,114.9875,70,84,0
114.90417,114.9875,62,84,0
114.90417,114.9875,67,84,0
115.02917,115.15,45,84,0
115.02917,115.15417,69,84,0
115.02917,115.15417,57,84,0
115.02917,115.15417,61,84,0
115.02917,115.15417,64,84,0
115.275,115.4,40,84,0
115.27917,115.40417,52,84,0
115.40417,115.4875,70,84,0
115.40417,115.4875,67,84,0
115.40417,115.4875,62,84,0
115.52917,115.65417,69,84,0
115.52917,115.65417,45,84,0
115.52917,115.65417,61,84,0
115.52917,115.65417,64,84,0
115.90417,115.9875,82,84,0
115.77917,116.02917,57,84,0
115.77917,116.02917,61,84,0
116.02917,116.21667,64,74,0
116.02917,116.21667,61,74,0
116.02917,116.3625,81,74,0
116.52917,116.775,62,64,0
116.52917,116.77917,65,64,0
116.77917,117.025,62,64,0
116.77917,117.02917,59,64,0
117.02917,117.21667,65,64,0
117.02917,117.21667,62,64,0
117.52917,117.77917,64,64,0
117.52917,117.77917,67,64,0
117.90417,117.9875,72,64,0
117.77917,118.02917,64,64,0
117.77917,118.02917,60,64,0
118.02917,118.2125,67,64,0
118.02917,118.21667,64,64,0
118.02917,118.3625,70,64,0
118.52917,118.77917,67,54,0
118.52917,118.77917,64,54,0
118.77917,119.02917,61,54,0
118.77917,119.02917,64,54,0
119.02917,119.21667,67,54,0
119.02917,119.21667,64,54,0
119.52917,119.90417,69,54,0
119.77917,119.96667,65,54,0
119.77917,119.96667,62,54,0
119.90417,119.98333,70,54,0
120.02917,120.2375,69,54,0
120.27917,120.46667,65,54,0
120.27917,120.46667,61,54,0
120.52917,120.90417,70,54,0
120.77917,120.96667,67,54,0
120.77917,120.96667,64,54,0
120.77917,120.96667,60,54,0
120.90417,120.9875,72,54,0
121.02917,121.2375,70,54,0
121.27917,121.46667,67,54,0
121.27917,121.46667,64,54,0
121.27917,121.46667,61,54,0
121.52917,121.77917,69,54,0
121.77917,121.96667,74,54,0
121.77917,121.96667,62,54,0
121.77917,121.96667,65,54,0
122.27917,122.46667,58,54,0
122.27917,122.46667,62,54,0
122.02917,122.46667,67,54,0
122.52917,122.77917,65,54,0
122.77917,122.96667,69,54,0
122.77917,122.96667,57,54,0
122.77917,122.96667,62,54,0
123.025,123.4625,64,54,0
123.27917,123.46667,57,54,0
123.27917,123.46667,61,54,0
123.77917,123.96667,61,54,0
123.775,123.96667,64,54,0
124.02917,124.21667,56,54,0
124.27917,124.46667,61,54,0
124.27917,124.46667,64,54,0
124.52917,124.71667,55,54,0
124.77917,124.96667,61,54,0
124.77917,124.96667,64,54,0
125.02917,125.21667,53,54,0
125.27917,125.46667,69,54,0
125.27917,125.46667,62,54,0
125.52917,125.71667,57,54,0
125.77917,125.96667,61,54,0
125.77917,125.96667,64,54,0
126.02917,126.2125,55,54,0
126.27917,126.46667,61,54,0
126.27917,126.46667,64,54,0
126.52917,126.7125,53,54,0
126.77917,126.9625,62,54,0
126.77917,126.96667,70,54,0
127.02917,127.21667,55,54,0
127.27917,127.46667,74,54,0
127.27917,127.46667,64,54,0
127.525,127.71667,62,44,0
127.77917,127.96667,69,44,0
127.775,127.96667,65,44,0
128.02916,128.21666,61,44,0
128.27916,128.46666,69,44,0
128.275,128.46666,65,44,0
128.52916,128.71666,60,44,0
128.77916,128.96666,70,44,0
128.77916,128.96666,67,44,0
128.775,128.96666,64,44,0
129.02916,129.21666,61,44,0
129.27916,129.46666,67,44,0
129.27916,129.46666,64,44,0
129.27916,129.46666,70,44,0
129.52916,129.71666,62,44,0
129.77916,129.96666,65,44,0
129.77916,129.96666,69,44,0
130.02916,130.21666,58,44,0
130.27916,130.46666,67,44,0
130.27916,130.46666,62,44,0
130.52916,130.7125,57,44,0
130.77916,130.9625,62,44,0
130.77916,130.96666,65,44,0
131.02916,131.21666,45,44,0
131.27916,131.4625,61,44,0
131.27916,131.46666,64,44,0
131.525,131.90416,64,54,0
131.77916,131.96666,61,54,0
131.77916,131.96666,57,54,0
131.90416,131.9875,65,54,0
132.025,132.23334,64,54,0
132.27916,132.46666,61,54,0
132.27916,132.46666,56,54,0
132.52916,132.90416,64,54,0
132.77916,132.96666,55,54,0
132.77916,132.96666,61,54,0
132.90416,132.9875,70,54,0
133.02916,133.2375,69,54,0
133.27916,133.46666,62,54,0
133.27916,133.46666,53,54,0
133.52916,133.90416,64,54,0
133.77916,133.96666,57,54,0
133.77916,133.96666,61,54,0
133.90416,133.9875,65,54,0
134.02916,134.15,64,54,0
134.15416,134.27916,69,54,0
134.27916,134.4,67,64,0
134.27916,134.46666,61,54,0
134.27916,134.46666,52,54,0
134.40416,134.4875,72,64,0
134.52916,134.90416,70,64,0
134.90416,134.9875,77,64,0
134.77916,135.02916,62,64,0
134.77916,135.02916,53,64,0
135.02916,135.15416,76,74,0
135.02916,135.2125,58,64,0
135.02916,135.21666,62,64,0
135.15416,135.27916,74,74,0
135.27916,135.40416,70,74,0
135.27916,135.4625,64,64,0
135.27916,135.46666,55,64,0
135.40416,135.4875,67,74,0
135.52916,135.71666,62,74,0
135.77916,135.96666,65,84,0
135.77916,135.96666,69,84,0
136.025,136.21666,61,74,0
136.27916,136.46666,57,84,0
136.27916,136.46666,49,84,0
136.52916,136.71666,37,84,0
136.27916,136.77916,69,84,0
136.27916,136.77916,77,84,0
136.27916,136.77916,81,84,0
136.77916,136.96666,67,74,0
136.77916,136.96666,76,74,0
136.77916,136.96666,79,74,0
137.02916,137.21666,49,74,0
137.27916,137.46666,64,64,0
137.27916,137.46666,43,64,0
137.27916,137.46666,58,64,0
137.27916,137.46666,61,64,0
137.52916,137.71666,50,44,0
137.77916,137.96666,53,44,0
137.77916,137.96666,57,44,0
138.02916,138.21666,49,44,0
138.27916,138.46666,65,44,0
138.27916,138.46666,69,44,0
138.27916,138.46666,57,44,0
138.52916,138.7125,48,44,0
138.77916,138.96666,70,44,0
138.77916,138.96666,67,44,0
138.77916,138.96666,64,44,0
139.02916,139.2125,46,44,0
139.27916,139.46666,60,44,0
139.27916,139.46666,55,44,0
139.27916,139.46666,64,44,0
139.52916,139.71666,45,44,0
139.77916,139.96666,65,44,0
139.77916,139.96666,72,44,0
139.77916,139.96666,60,44,0
140.025,140.21666,43,44,0
140.27916,140.4625,62,44,0
140.27916,140.46666,70,44,0
140.27916,140.46666,65,44,0
140.52916,140.71666,48,44,0
140.77916,140.96666,69,44,0
140.77916,140.96666,65,44,0
140.77916,140.96666,60,44,0
141.52916,141.71666,36,44,0
141.77916,141.96666,58,44,0
141.77916,141.96666,64,44,0
142.71666,142.88333,65,54,0
142.88333,143.00417,77,54,0
143.21666,143.38333,65,54,0
143.21666,143.38333,57,54,0
143.38333,143.50833,67,54,0
143.05,143.50833,89,54,0
143.05,143.50833,77,54,0
143.38333,143.50833,58,54,0
143.71666,143.88333,65,54,0
143.88333,144.00833,77,54,0
143.55,144.175,70,54,0
143.55,144.175,62,54,0
144.21666,144.38333,69,54,0
144.2125,144.38333,60,54,0
144.38333,144.50417,65,54,0
144.05,144.50833,77,54,0
144.05,144.50833,89,54,0
144.38333,144.50833,57,54,0
144.55,144.84166,58,54,0
144.55,144.84166,67,54,0
144.71666,144.88333,60,54,0
144.88333,145.00833,72,54,0
144.88333,145.175,55,54,0
144.88333,145.175,64,54,0
145.21666,145.38333,57,54,0
145.21666,145.38333,65,54,0
145.38333,145.50833,53,54,0
145.05,145.50833,72,54,0
145.05,145.50833,84,54,0
145.38333,145.50833,62,54,0
145.55,145.8375,64,54,0
145.55,145.84166,55,54,0
145.71666,145.88333,60,54,0
145.88333,146.00833,72,54,0
145.88333,146.175,53,54,0
145.88333,146.175,62,54,0
146.21666,146.38333,60,54,0
146.21666,146.38333,52,54,0
146.38333,146.50833,67,54,0
146.05,146.50833,72,54,0
146.05,146.50833,84,54,0
146.38333,146.50833,58,54,0
146.55,146.84166,70,54,0
146.54584,146.84166,62,54,0
146.71666,146.87917,29,54,0
146.88333,147.00417,41,54,0
146.88333,147.175,68,54,0
146.88333,147.175,59,54,0
147.21666,147.38333,69,54,0
147.21666,147.38333,60,54,0
147.38333,147.50833,70,54,0
147.38333,147.50833,62,54,0
147.05,147.50833,53,54,0
147.7125,147.88333,29,54,0
147.88333,148.00833,41,54,0
147.55,148.175,74,54,0
147.55,148.175,65,54,0
148.21666,148.38333,64,54,0
148.2125,148.38333,72,54,0
148.38333,148.50417,60,54,0
148.38333,148.50833,69,54,0
148.05,148.50833,53,54,0
148.55,148.84166,70,54,0
148.55,148.84166,62,54,0
148.71666,148.88333,29,54,0
148.88333,149.00833,41,54,0
148.88333,149.17084,68,54,0
148.88333,149.175,59,54,0
149.21666,149.38333,69,54,0
149.21666,149.38333,60,54,0
149.38333,149.50833,63,54,0
149.05,149.50833,53,54,0
149.38333,149.50833,60,54,0
149.38333,149.50833,66,54,0
149.55,149.84166,62,54,0
149.55,149.84166,59,54,0
149.55,149.84166,67,54,0
149.71666,149.88333,29,54,0
149.88333,150.00833,41,54,0
149.88333,150.175,58,54,0
149.88333,150.175,61,54,0
149.88333,150.175,64,54,0
150.21666,150.38333,60,54,0
150.21666,150.38333,65,54,0
150.21666,150.38333,57,54,0
150.38333,150.50833,61,54,0
150.04584,150.50833,53,54,0
150.38333,150.50833,56,54,0
150.38333,150.50833,59,54,0
150.55,150.71666,48,54,0
150.63333,150.8,55,54,0
150.63333,150.8,60,54,0
150.71666,150.88333,53,54,0
150.8,150.96666,65,54,0
150.88333,151.04584,52,54,0
150.96666,151.13333,64,54,0
151.05,151.21666,57,54,0
151.13333,151.29584,69,54,0
151.21666,151.38333,55,54,0
150.55,151.38333,46,54,0
151.38333,151.44583,46,54,0
151.3,151.46666,67,54,0
151.38333,151.55,62,54,0
151.46666,151.63333,74,54,0
151.55,151.71666,60,54,0
151.63333,151.8,72,54,0
151.71666,151.88333,55,54,0
151.8,151.96666,67,54,0
151.88333,152.05,57,54,0
151.96666,152.13333,69,54,0
152.05,152.2125,52,54,0
152.13333,152.3,64,54,0
152.21666,152.38333,53,54,0
152.3,152.44583,65,54,0
151.55,152.44583,45,54,0
152.38333,152.55,51,54,0
152.46666,152.63333,63,54,0
152.55,152.7125,50,54,0
152.63333,152.8,62,54,0
152.71666,152.88333,55,54,0
152.8,152.96666,67,54,0
152.88333,153.05,54,54,0
152.96666,153.13333,66,54,0
153.05,153.21666,58,54,0
153.13333,153.3,70,54,0
153.21666,153.38333,57,54,0
152.55,153.38333,48,54,0
153.38333,153.44583,48,54,0
153.3,153.44583,69,54,0
153.38333,153.55,63,54,0
153.46666,153.62917,75,54,0
153.55,153.71666,62,54,0
153.63333,153.8,74,54,0
153.71666,153.87917,57,54,0
153.8,153.96666,69,54,0
153.88333,154.05,58,54,0
153.96666,154.12917,70,54,0
154.05,154.21666,54,54,0
154.13333,154.3,66,54,0
154.21666,154.38333,55,54,0
153.55,154.44167,46,54,0
154.3,154.46666,67,54,0
154.38333,154.50833,53,54,0
154.46666,154.52916,65,54,0
154.55,154.675,64,54,0
154.55,154.7375,46,54,0
154.55,154.7375,60,54,0
154.55,154.7375,52,54,0
154.675,154.8,69,54,0
154.8,154.925,67,54,0
154.925,155.00833,74,54,0
155.05,155.175,76,54,0
155.05,155.23334,58,54,0
155.05,155.2375,67,54,0
155.05,155.2375,72,54,0
155.175,155.29584,81,54,0
155.3,155.425,79,54,0
155.425,155.50417,86,54,0
155.55,155.675,84,54,0
155.55,155.7375,65,54,0
155.55,155.7375,57,54,0
155.675,155.8,79,54,0
155.8,155.925,81,54,0
155.925,156.00833,76,54,0
156.05,156.13333,72,54,0
156.05,156.13333,77,54,0
156.05,156.2375,45,54,0
156.05,156.2375,53,54,0
156.175,156.25833,67,54,0
156.3,156.38333,69,54,0
156.42084,156.50833,63,54,0
156.55,156.675,66,54,0
156.55,156.7375,62,54,0
156.55,156.7375,48,54,0
156.55,156.7375,57,54,0
156.675,156.8,70,54,0
156.8,156.925,69,54,0
156.925,157.00833,75,54,0
157.05,157.17084,78,54,0
157.05,157.2375,69,54,0
157.05,157.2375,60,54,0
157.05,157.2375,74,54,0
157.175,157.3,82,54,0
157.3,157.42084,81,54,0
157.425,157.50833,87,54,0
157.55,157.67084,86,54,0
157.55,157.7375,67,54,0
157.55,157.7375,58,54,0
157.675,157.8,81,54,0
157.8,157.925,82,54,0
157.925,158.00833,78,54,0
158.05,158.17084,74,54,0
158.05,158.175,79,54,0
158.05,158.23334,55,54,0
158.05,158.2375,46,54,0
158.175,158.3,69,54,0
158.3,158.425,70,54,0
158.425,158.50833,67,54,0
158.55,158.675,55,84,0
158.55,158.675,64,84,0
158.55,158.675,36,84,0
158.55,158.675,48,84,0
158.55,158.675,58,84,0
159.3,159.425,36,84,0
159.3,159.425,48,84,0
159.3,159.8,82,94,0
159.3,159.8,86,94,0
159.3,159.8,74,94,0
159.55,159.9875,58,84,0
159.55,159.9875,64,84,0
159.55,159.9875,55,84,0
159.8,160.05,69,84,0
159.8,160.05,78,84,0
159.8,160.05,81,84,0
160.05,160.2375,79,84,0
160.05,160.2375,70,84,0
160.05,160.2375,82,84,0
160.3,160.425,48,84,0
160.3,160.425,36,84,0
160.3,160.8,86,94,0
160.3,160.8,89,94,0
160.3,160.8,77,94,0
160.54584,160.9875,55,84,0
160.55,160.9875,67,84,0
160.55,160.9875,58,84,0
160.8,161.05,73,84,0
160.8,161.05,85,84,0
160.8,161.05,81,84,0
161.05,161.2375,86,84,0
161.05,161.2375,74,84,0
161.05,161.2375,82,84,0
161.29584,161.42084,36,84,0
161.3,161.425,48,84,0
161.3,161.8,81,94,0
161.3,161.8,93,94,0
161.3,161.8,89,94,0
161.55,161.94583,60,84,0
161.55,161.94583,67,84,0
161.55,161.94583,70,84,0
161.8,162.05,79,84,0
161.8,162.05,88,84,0
161.8,162.05,91,84,0
162.05,162.2375,77,84,0
162.05,162.2375,86,84,0
162.05,162.2375,89,84,0
162.05,162.44583,58,84,0
162.05,162.44583,60,84,0
162.05,162.44583,67,84,0
162.3,162.55,84,84,0
162.3,162.55,88,84,0
162.3,162.55,76,84,0
162.55,162.7375,86,84,0
162.55,162.7375,82,84,0
162.55,162.7375,74,84,0
162.55,162.94583,58,84,0
162.55,162.94583,55,84,0
162.55,162.94583,67,84,0
162.8,163.05,81,84,0
162.8,163.05,84,84,0
162.8,163.05,72,84,0
163.05,163.175,60,84,0
163.05,163.175,48,84,0
163.05,163.175,52,84,0
163.05,163.2375,70,84,0
163.05,163.2375,79,84,0
163.05,163.2375,82,84,0
163.3,163.425,79,84,0
163.3,163.425,48,84,0
163.3,163.425,70,84,0
163.3,163.425,36,84,0
163.3,163.425,76,84,0
163.3,163.425,67,84,0
163.55,163.675,77,84,0
163.54584,163.675,61,84,0
163.55,163.675,65,84,0
163.55,163.675,56,84,0
163.55,163.675,53,84,0
163.55,163.675,49,84,0
163.55,163.675,73,84,0
163.55,163.675,68,84,0
164.55,164.94583,37,44,0
164.8,165.2375,73,44,0
164.8,165.2375,61,44,0
165.05,165.44583,49,44,0
165.3,165.7375,73,44,0
165.3,165.7375,85,44,0
165.79584,165.8,65,44,0
165.8,166.05,74,44,0
165.8,166.05,65,44,0
165.55,166.12917,61,44,0
165.8,166.2375,73,44,0
165.8,166.2375,85,44,0
166.05,166.3,75,44,0
166.05,166.3,66,44,0
166.3,166.54584,70,44,0
166.3,166.55,78,44,0
166.3,166.69167,61,44,0
166.55,166.7375,68,44,0
166.3,166.7375,73,44,0
166.3,166.7375,85,44,0
166.55,166.7375,77,44,0
167.55,167.94583,33,44,0
168.04584,168.05,45,44,0
167.8,168.2375,61,44,0
167.79584,168.2375,49,44,0
168.05,168.44583,45,44,0
168.3,168.7375,73,44,0
168.29584,168.7375,61,44,0
168.8,169.04584,61,44,0
168.8,169.05,73,44,0
168.55,169.13333,57,44,0
168.79584,169.19583,45,44,0
169.05,169.3,62,44,0
169.05,169.3,74,44,0
169.3,169.4875,69,44,0
169.3,169.4875,66,44,0
169.3,169.4875,78,44,0
169.3,169.69583,57,44,0
169.3,169.69583,45,44,0
169.55,169.7375,64,44,0
169.55,169.7375,76,44,0
169.55,169.7375,69,44,0
171.05,171.55,29,44,0
171.55,171.94583,41,44,0
171.05,172.05,57,44,0
171.05,172.05,45,44,0
172.05,172.55,57,44,0
172.05,172.55,53,44,0
172.05,172.55,41,44,0
172.55,173.55,53,44,0
172.55,173.55,50,44,0
172.55,173.55,41,44,0
172.55,173.55,58,44,0
173.55,174.44583,53,44,0
173.55,174.44583,62,44,0
173.55,174.54584,41,44,0
173.55,174.55,46,44,0
174.55,174.7375,53,44,0
174.55,174.7375,41,44,0
174.55,174.7375,45,44,0
174.55,174.7375,60,44,0
175.175,175.25833,69,84,0
175.175,175.25833,65,84,0
175.3,175.38333,70,84,0
175.3,175.38333,67,84,0
175.425,175.50833,74,84,0
175.425,175.50833,70,84,0
175.55,175.63333,72,84,0
175.55,175.63333,69,84,0
175.675,175.75833,69,84,0
175.675,175.75833,65,84,0
175.8,175.88333,70,84,0
175.8,175.88333,67,84,0
175.925,176.00833,67,84,0
175.925,176.00833,60,84,0
176.05,176.13333,69,84,0
176.04584,176.13333,65,84,0
176.175,176.25833,65,84,0
176.175,176.25833,57,84,0
176.3,176.38333,67,84,0
176.29584,176.38333,60,84,0
176.425,176.50833,64,84,0
176.425,176.50833,48,84,0
176.55,176.63333,60,84,0
176.54584,176.63333,53,84,0
176.675,176.75417,41,84,0
176.675,176.75833,69,84,0
176.8,176.88333,62,84,0
176.8,176.88333,46,84,0
176.925,177.00417,34,84,0
176.925,177.00833,70,84,0
177.04584,177.13333,48,84,0
177.175,177.25833,36,84,0
177.3,177.38333,48,84,0
177.425,177.50417,52,84,0
177.05,177.50833,64,84,0
177.05,177.50833,67,84,0
177.55,177.63333,60,84,0
177.55,177.63333,53,84,0
177.675,177.75833,69,84,0
177.675,177.75833,41,84,0
177.8,177.88333,65,84,0
177.8,177.88333,46,84,0
177.925,178.00833,74,84,0
177.925,178.00833,34,84,0
178.05,178.13333,48,84,0
178.17084,178.25833,36,84,0
178.3,178.37917,48,84,0
178.425,178.50833,52,84,0
178.05,178.50833,67,84,0
178.05,178.50833,64,84,0
178.55,178.63333,60,84,0
178.55,178.63333,53,84,0
178.675,178.75833,69,84,0
178.67084,178.75833,41,84,0
178.8,178.87917,46,84,0
178.8,178.88333,62,84,0
178.925,179.00833,70,84,0
178.925,179.00833,34,84,0
179.05,179.12917,48,84,0
179.05,179.13333,55,84,0
179.175,179.25833,64,84,0
179.175,179.25833,36,84,0
179.3,179.37917,41,84,0
179.3,179.38333,57,84,0
179.425,179.50833,65,84,0
179.425,179.50833,29,84,0
179.55,180.13333,41,84,0
179.55,180.175,50,94,0
179.55,180.175,55,94,0
179.55,180.175,59,94,0
180.175,180.25833,62,84,0
180.175,180.3,30,84,0
180.3,180.38333,42,84,0
180.3,180.42084,60,84,0
180.3,180.425,69,84,0
180.3,180.425,64,84,0
180.425,180.50417,72,84,0
180.425,180.55,31,84,0
180.55,180.94583,77,84,0
180.55,180.94583,70,84,0
180.55,180.94583,67,84,0
180.55,180.94583,43,84,0
180.55,180.94583,74,84,0
180.55,180.94583,65,84,0
181.05,181.44583,69,84,0
181.05,181.44583,77,84,0
181.05,181.44583,57,84,0
181.05,181.44583,50,84,0
181.05,181.44583,60,84,0
181.05,181.44583,65,84,0
181.05,181.44583,72,84,0
181.55,182.13333,77,84,0
181.55,182.13333,55,84,0
181.55,182.13333,71,84,0
181.55,182.13333,59,84,0
181.55,182.13333,62,84,0
181.55,182.13333,67,84,0
181.55,182.13333,74,84,0
181.55,182.13333,65,84,0
182.55,182.94583,67,54,0
182.55,182.94583,70,54,0
182.54584,182.94583,48,54,0
182.55,182.94583,72,54,0
182.55,182.94583,64,54,0
183.05,183.44583,72,54,0
183.05,183.44583,65,54,0
183.04584,183.44583,55,54,0
183.05,183.44583,70,54,0
183.05,183.44583,62,54,0
183.55,183.94583,72,54,0
183.55,183.94583,60,54,0
183.55,183.94583,64,54,0
183.55,183.94583,70,54,0
184.3,184.3625,72,54,0
184.3,184.3625,70,54,0
184.425,184.4875,82,54,0
184.425,184.4875,84,54,0
184.55,184.6125,74,54,0
184.54584,184.6125,70,54,0
184.675,184.7375,86,54,0
184.675,184.7375,82,54,0
184.8,184.8625,72,54,0
184.8,184.8625,69,54,0
184.925,184.9875,84,54,0
184.925,184.9875,81,54,0
185.05,185.1125,67,54,0
185.04584,185.1125,70,54,0
185.175,185.2375,79,54,0
185.175,185.2375,82,54,0
185.3,185.3625,65,54,0
185.3,185.3625,69,54,0
185.425,185.4875,81,54,0
185.425,185.4875,77,54,0
185.55,185.60834,63,54,0
185.55,185.6125,70,54,0
185.675,185.7375,75,54,0
185.675,185.7375,82,54,0
185.8,185.85834,64,54,0
185.8,185.8625,72,54,0
185.925,185.9875,84,54,0
185.925,185.9875,76,54,0
186.05,186.10834,68,54,0
186.05,186.1125,64,54,0
186.175,186.2375,76,54,0
186.175,186.2375,80,54,0
186.3,186.3625,69,54,0
186.3,186.3625,65,54,0
186.425,186.4875,81,54,0
186.425,186.4875,77,54,0
186.55,186.675,49,44,0
186.675,186.7375,64,44,0
186.675,186.7375,58,44,0
186.8,186.925,50,44,0
186.925,186.9875,65,44,0
186.925,186.9875,57,44,0
187.05,187.175,40,44,0
187.175,187.2375,61,44,0
187.175,187.2375,58,44,0
187.3,187.42084,41,44,0
187.425,187.4875,62,44,0
187.425,187.4875,57,44,0
187.55,187.67084,43,44,0
187.675,187.73334,55,44,0
187.675,187.7375,58,44,0
187.8,187.92084,43,44,0
187.925,187.98334,53,44,0
187.925,187.9875,59,44,0
188.05,188.175,36,44,0
188.175,188.23334,60,44,0
188.175,188.2375,52,44,0
188.3,188.4875,60,84,0
188.3,188.4875,57,84,0
188.425,188.50833,72,84,0
188.425,188.50833,81,84,0
188.425,188.50833,84,84,0
188.55,188.675,61,84,0
188.675,188.8,61,84,0
188.55,188.8,57,84,0
188.55,188.925,48,84,0
188.675,188.925,69,84,0
188.675,188.925,73,84,0
188.8,188.9875,62,84,0
188.8,188.9875,59,84,0
188.925,189.00833,86,74,0
188.925,189.00833,82,74,0
188.925,189.00833,74,74,0
189.05,189.3,59,74,0
189.05,189.3,56,74,0
189.175,189.425,80,74,0
189.175,189.425,83,74,0
189.05,189.425,48,74,0
189.175,189.425,71,74,0
189.3,189.4875,60,74,0
189.3,189.4875,57,74,0
189.425,189.50833,72,74,0
189.425,189.50833,81,74,0
189.425,189.50833,84,74,0
189.55,189.8,57,64,0
189.55,189.8,54,64,0
189.675,189.92084,78,64,0
189.675,189.925,69,64,0
189.675,189.925,81,64,0
189.54584,189.94583,49,64,0
189.8,189.9875,55,64,0
189.8,189.9875,58,64,0
189.925,190.00833,70,64,0
189.925,190.00833,79,64,0
189.925,190.00833,82,64,0
190.05,190.29584,56,64,0
190.05,190.3,52,64,0
190.175,190.42084,80,64,0
190.175,190.425,76,64,0
190.04584,190.425,50,64,0
190.175,190.425,68,64,0
190.3,190.4875,57,64,0
190.3,190.4875,53,64,0
190.425,190.50417,69,64,0
190.425,190.50833,81,64,0
190.425,190.50833,77,64,0
190.8,190.925,48,54,0
190.8,190.925,45,54,0
190.925,190.9875,60,54,0
190.925,190.9875,57,54,0
191.05,191.175,47,54,0
191.05,191.175,40,54,0
191.175,191.2375,56,54,0
191.175,191.2375,64,54,0
191.8,191.925,50,54,0
191.8,191.925,53,54,0
191.925,191.98334,62,54,0
191.925,191.9875,65,54,0
192.05,192.175,45,54,0
192.05,192.175,52,54,0
192.175,192.23334,60,54,0
192.175,192.2375,69,54,0
192.3,192.4875,77,84,0
192.3,192.4875,65,84,0
192.3,192.8,74,84,0
192.3,192.8,62,84,0
192.8,193.05,71,84,0
192.8,193.05,59,84,0
193.05,193.2375,72,84,0
192.55,193.2375,76,84,0
192.55,193.2375,64,84,0
193.05,193.2375,60,84,0
193.3,193.4875,77,84,0
193.3,193.4875,65,84,0
193.3,193.675,74,84,0
193.3,193.675,62,84,0
193.675,193.8,72,74,0
193.675,193.8,60,74,0
193.8,193.925,62,74,0
193.8,193.925,74,74,0
193.54584,193.9875,64,84,0
193.55,193.9875,76,84,0
193.925,194.05,59,74,0
193.925,194.05,71,74,0
194.05,194.175,72,64,0
194.05,194.175,64,64,0
194.05,194.175,60,64,0
194.175,194.3,69,64,0
194.175,194.3,57,64,0
194.3,194.425,68,64,0
194.3,194.425,59,64,0
194.3,194.425,71,64,0
194.3,194.425,56,64,0
194.05,194.4875,76,74,0
194.425,194.50833,64,64,0
194.425,194.50833,52,64,0
194.54584,194.675,45,54,0
194.675,194.8,52,54,0
194.8,194.925,57,54,0
194.55,194.925,69,54,0
194.55,194.94583,73,54,0
194.55,194.94583,76,54,0
194.925,195.00833,61,54,0
195.05,195.44583,73,54,0
195.05,195.44583,69,54,0
195.05,195.44583,64,54,0
195.55,195.67084,45,54,0
195.675,195.8,52,54,0
195.8,195.92084,57,54,0
195.55,195.925,73,54,0
195.55,195.94583,64,54,0
195.55,195.94583,69,54,0
195.925,196.00833,61,54,0
196.05,196.23334,64,54,0
196.05,196.2375,69,54,0
196.3,196.4875,60,84,0
196.3,196.7375,57,84,0
196.3,196.8,69,84,0
196.8,197.04584,47,84,0
196.8,197.05,66,84,0
196.8,197.05,54,84,0
197.05,197.2375,56,84,0
196.54584,197.2375,59,84,0
197.05,197.2375,52,84,0
197.05,197.2375,68,84,0
197.3,197.4875,60,84,0
197.3,197.63333,57,84,0
197.3,197.675,69,84,0
197.675,197.8,66,84,0
197.675,197.8,54,84,0
197.675,197.8,47,84,0
197.8,197.925,68,84,0
197.55,197.9875,59,84,0
197.8,198.00833,56,84,0
197.8,198.00833,52,84,0
197.925,198.00833,63,84,0
198.05,198.175,67,74,0
198.05,198.175,64,74,0
198.05,198.175,55,74,0
198.175,198.3,61,74,0
198.175,198.3,52,84,0
198.3,198.425,66,64,0
198.3,198.425,62,64,0
198.3,198.425,54,64,0
198.3,198.50417,46,84,0
198.425,198.50833,59,64,0
198.54584,198.675,40,54,0
198.675,198.8,47,54,0
198.8,198.925,52,54,0
198.55,198.94583,68,54,0
198.55,198.94583,64,54,0
198.925,199.00833,56,54,0
199.05,199.44583,69,54,0
199.05,199.44583,64,54,0
199.55,199.67084,40,54,0
199.675,199.8,45,54,0
199.8,199.92084,52,54,0
199.55,199.94583,69,54,0
199.55,199.94583,64,54,0
199.925,200.00833,57,54,0
200.05,200.44583,64,54,0
200.05,200.44583,69,54,0
200.55,200.675,70,54,0
200.675,200.8,65,54,0
200.8,200.925,62,54,0
200.55,200.925,29,54,0
200.925,201.05,58,54,0
201.05,201.175,57,54,0
201.175,201.3,69,54,0
201.3,201.425,65,54,0
201.05,201.425,29,54,0
201.425,201.50417,60,54,0
201.55,201.675,64,54,0
201.675,201.79584,58,54,0
201.8,201.925,55,54,0
201.925,202.04584,52,54,0
201.54584,202.13333,29,54,0
202.05,202.175,48,54,0
202.175,202.3,53,54,0
202.3,202.38333,57,54,0
202.55,202.6125,38,54,0
202.675,202.7375,50,54,0
202.8,202.85834,53,54,0
202.8,202.8625,58,54,0
202.925,202.9875,58,54,0
202.925,202.9875,53,54,0
203.05,203.175,52,54,0
203.05,203.175,40,54,0
203.175,203.2375,55,54,0
203.175,203.2375,61,54,0
203.3,203.425,41,54,0
203.3,203.425,53,54,0
203.425,203.4875,57,54,0
203.425,203.4875,62,54,0
203.55,203.6125,43,54,0
203.675,203.7375,55,54,0
203.8,203.8625,64,64,0
203.8,203.8625,58,64,0
203.925,203.9875,64,64,0
203.92084,203.9875,58,64,0
204.05,204.175,45,64,0
204.175,204.2375,64,74,0
204.175,204.2375,61,74,0
204.3,204.42084,57,74,0
204.425,204.4875,69,74,0
204.425,204.4875,61,74,0
204.55,204.675,70,84,0
204.675,204.8,65,84,0
204.8,204.925,62,84,0
204.925,205.05,58,84,0
204.55,205.05,46,84,0
205.05,205.175,57,84,0
205.05,205.2375,41,84,0
205.175,205.3,60,84,0
205.3,205.38333,65,84,0
205.55,205.675,64,84,0
205.675,205.79584,58,84,0
205.8,205.925,55,84,0
205.925,206.05,52,84,0
205.55,206.05,36,84,0
206.05,206.175,48,84,0
206.05,206.2375,41,84,0
206.175,206.3,53,84,0
206.3,206.38333,57,84,0
206.3,206.425,50,84,0
206.3,206.425,38,84,0
206.55,206.675,33,84,0
206.675,206.8,45,84,0
206.8,206.925,49,84,0
206.925,207.05,57,84,0
206.55,207.05,69,84,0
206.55,207.05,61,84,0
206.55,207.05,73,84,0
207.05,207.175,62,84,0
207.05,207.175,74,84,0
207.05,207.175,46,84,0
207.05,207.175,50,84,0
207.05,207.175,70,84,0
207.3,207.425,67,84,0
207.3,207.425,70,84,0
207.3,207.425,36,84,0
207.3,207.425,48,84,0
207.3,207.425,79,84,0
207.54584,207.675,29,84,0
207.675,207.8,41,84,0
207.8,207.92084,46,84,0
207.55,207.94583,62,84,0
207.55,207.94583,74,84,0
207.55,207.94583,70,84,0
207.925,208.00833,53,84,0
208.05,208.44583,72,84,0
208.05,208.44583,60,84,0
208.05,208.44583,69,84,0
208.05,208.50833,41,84,0
208.04584,208.50833,48,84,0
208.55,208.675,29,84,0
208.675,208.8,41,84,0
208.8,208.925,46,84,0
208.55,208.925,58,84,0
208.55,208.925,67,84,0
208.55,208.94167,70,84,0
208.925,209.00833,53,84,0
209.05,209.175,57,84,0
209.05,209.175,69,84,0
209.05,209.175,41,84,0
209.05,209.175,48,84,0
209.05,209.175,65,84,0
209.3,209.425,67,84,0
209.3,209.425,60,84,0
209.3,209.425,40,84,0
209.3,209.425,48,84,0
209.3,209.425,72,84,0
209.55,209.675,26,84,0
209.675,209.8,38,84,0
209.8,209.925,45,84,0
209.55,209.94583,77,84,0
209.55,209.94583,74,84,0
209.55,209.94583,69,84,0
209.55,209.94583,65,84,0
209.925,210.00417,50,84,0
210.05,210.44583,76,84,0
210.05,210.44583,67,84,0
210.05,210.44583,64,84,0
210.05,210.44583,72,84,0
210.05,210.50833,41,84,0
210.05,210.50833,53,84,0
210.55,210.675,34,84,0
210.675,210.8,46,84,0
210.8,210.925,50,84,0
210.55,210.925,74,84,0
210.55,210.925,62,84,0
210.55,210.94583,65,84,0
210.55,210.94583,69,84,0
210.925,211.00833,53,84,0
211.05,211.17084,48,84,0
211.05,211.175,72,84,0
211.05,211.175,60,84,0
211.05,211.175,57,84,0
211.05,211.175,65,84,0
211.05,211.175,69,84,0
211.3,211.425,64,84,0
211.3,211.425,60,84,0
211.3,211.425,36,84,0
211.3,211.425,48,84,0
211.3,211.425,67,84,0
211.55,211.63333,60,84,0
211.55,211.63333,69,84,0
211.55,211.63333,53,84,0
211.675,211.75833,72,84,0
211.675,211.75833,41,84,0
211.8,211.88333,62,84,0
211.8,211.88333,70,84,0
211.8,211.88333,46,84,0
211.925,212.00833,74,84,0
211.925,212.00833,34,84,0
212.05,212.13333,48,84,0
212.175,212.25833,36,84,0
212.3,212.38333,48,84,0
212.05,212.425,72,94,0
212.05,212.425,64,94,0
212.425,212.50833,67,84,0
212.425,212.50833,52,84,0
212.55,212.63333,69,84,0
212.55,212.63333,60,84,0
212.55,212.63333,53,84,0
212.675,212.75833,72,84,0
212.67084,212.75833,41,84,0
212.8,212.88333,62,84,0
212.8,212.88333,70,84,0
212.8,212.88333,46,84,0
212.925,213.00833,74,84,0
212.925,213.00833,34,84,0
213.05,213.13333,41,84,0
213.175,213.25833,29,84,0
213.3,213.38333,41,84,0
213.05,213.425,65,94,0
213.05,213.425,69,94,0
213.05,213.425,77,94,0
213.425,213.50833,72,84,0
213.425,213.50833,45,84,0
213.55,213.62917,53,84,0
213.55,213.63333,69,84,0
213.55,213.63333,60,84,0
213.675,213.75833,72,84,0
213.675,213.75833,41,84,0
213.8,213.87917,46,84,0
213.8,213.88333,62,84,0
213.8,213.88333,70,84,0
213.925,214.00833,74,84,0
213.925,214.00833,34,84,0
214.05,214.12917,57,84,0
214.05,214.13333,73,84,0
214.05,214.13333,64,84,0
214.175,214.25833,76,84,0
214.175,214.25833,45,84,0
214.3,214.38333,74,84,0
214.3,214.38333,65,84,0
214.3,214.38333,50,84,0
214.425,214.50833,77,84,0
214.425,214.50833,38,84,0
214.55,214.9875,76,94,0
214.55,214.9875,73,94,0
214.55,214.9875,45,94,0
214.55,214.9875,81,94,0
214.55,214.9875,69,94,0
215.05,215.4875,73,94,0
215.05,215.4875,45,94,0
215.05,215.4875,52,94,0
215.05,215.4875,57,94,0
215.05,215.4875,64,94,0
215.05,215.4875,76,94,0
215.55,215.98334,36,94,0
215.55,215.9875,72,94,0
215.55,215.9875,69,94,0
215.55,215.9875,48,94,0
215.55,215.9875,76,94,0
215.55,215.9875,81,94,0
216.05,216.2375,79,94,0
216.05,216.2375,76,94,0
216.05,216.2375,70,94,0
216.05,216.2375,67,94,0
216.05,216.4875,58,94,0
216.05,216.4875,60,94,0
216.05,216.4875,48,94,0
216.05,216.4875,52,94,0
216.55,216.675,53,84,0
216.55,216.675,57,84,0
216.55,216.675,41,84,0
216.55,216.675,48,84,0
216.55,217.34166,65,84,0
216.55,217.34166,77,84,0
216.55,217.34166,69,84,0
216.55,217.34166,72,84,0
217.55,217.67084,60,84,0
217.55,217.675,65,84,0
217.55,217.675,53,84,0
217.55,217.675,57,84,0
217.55,218.34166,69,84,0
217.55,218.34166,81,84,0
217.55,218.34166,72,84,0
217.55,218.34166,77,84,0
218.55,219.34166,89,84,0
218.55,219.34166,36,84,0
218.55,219.34166,77,84,0
218.55,219.34166,41,84,0
218.55,219.34166,84,84,0
218.55,219.34166,81,84,0
219.55,219.675,72,84,0
219.55,219.675,41,84,0
219.55,219.675,69,84,0
219.55,219.675,48,84,0
219.55,219.675,53,84,0
219.55,219.675,57,84,0
219.55,219.675,77,84,0
219.55,219.675,65,84,0
220.05,220.175,72,84,0
220.05,220.175,41,84,0
220.05,220.175,77,84,0
220.05,220.175,48,84,0
220.05,220.175,53,84,0
220.05,220.175,57,84,0
220.05,220.175,69,84,0
220.05,220.175,65,84,0
220.55,222.13333,60,84,0
220.55,222.13333,41,84,0
220.55,222.13333,57,84,0
220.55,222.13333,29,84,0
220.55,222.13333,65,84,0
220.55,222.13333,53,84,0
