start_time,end_time,note_value,velocity,instrument_program_number
11.7,12.3,67,64,73
12.3,12.6,71,64,73
12.6,13.2,72,64,73
13.2,13.5,60,64,73
13.5,14.1,67,64,73
14.1,14.4,71,64,73
14.4,15.0,72,64,73
15.0,15.3,60,64,73
15.3,15.9,71,64,73
15.9,16.2,76,64,73
16.2,16.8,72,64,73
16.8,17.1,64,64,73
17.1,17.7,71,64,73
17.7,18.3,76,64,73
18.3,18.6,72,64,73
18.6,19.2,72,64,73
19.2,19.5,71,64,73
19.5,20.1,69,64,73
20.1,20.4,67,64,73
20.4,21.0,65,64,73
21.0,21.3,64,64,73
21.3,21.6,62,64,73
21.6,22.8,64,64,73
23.4,24.6,64,64,73
36.9,37.5,67,64,73
37.5,37.8,71,64,73
37.8,38.4,72,64,73
38.4,38.7,60,64,73
38.7,39.3,67,64,73
39.3,39.6,71,64,73
39.6,40.2,72,64,73
40.2,40.5,60,64,73
40.5,41.1,71,64,73
41.1,41.4,76,64,73
41.4,42.0,72,64,73
42.0,42.3,64,64,73
42.3,42.9,71,64,73
42.9,43.5,76,64,73
43.5,43.8,72,64,73
43.8,44.4,72,64,73
44.4,44.7,71,64,73
44.7,45.3,69,64,73
45.3,45.6,67,64,73
45.6,46.2,65,64,73
46.2,46.5,64,64,73
46.5,46.8,62,64,73
46.8,48.0,64,64,73
48.6,49.8,64,64,73
53.4,53.55,67,64,73
53.55,53.7,69,64,73
53.7,53.85,67,64,73
53.85,54.0,69,64,73
54.0,54.3,70,64,73
54.3,54.6,66,64,73
54.6,54.9,67,64,73
54.9,55.2,76,64,73
55.2,55.5,71,64,73
55.5,55.8,73,64,73
55.8,56.1,81,64,73
56.1,56.4,79,64,73
56.4,56.7,78,64,73
56.7,57.0,79,64,73
57.0,58.2,88,64,73
58.2,58.5,78,64,73
58.5,58.8,79,64,73
58.8,60.0,88,64,73
60.0,60.3,77,64,73
60.3,60.6,78,64,73
60.6,61.8,87,64,73
61.8,62.1,77,64,73
62.1,62.4,78,64,73
62.4,63.6,87,64,73
63.6,63.9,77,64,73
63.9,64.2,78,64,73
64.2,65.4,87,64,73
65.4,65.7,78,64,73
65.7,66.0,87,64,73
66.0,66.3,78,64,73
66.3,66.6,87,64,73
66.6,66.9,78,64,73
66.9,67.2,87,64,73
67.2,67.5,78,64,73
67.5,67.8,87,64,73
67.8,68.1,85,64,73
68.1,68.4,87,64,73
68.4,68.7,85,64,73
68.7,69.0,83,64,73
69.0,69.3,85,64,73
69.3,69.6,83,64,73
69.6,69.9,81,64,73
69.9,70.2,83,64,73
70.2,70.5,81,64,73
70.5,70.8,80,64,73
70.8,71.4,83,64,73
71.4,71.55,78,64,73
71.55,71.7,80,64,73
71.7,72.3,81,64,73
72.3,72.6,80,64,73
72.6,73.2,83,64,73
73.2,73.35,78,64,73
73.35,73.5,80,64,73
73.5,74.1,81,64,73
74.1,74.4,80,64,73
74.4,75.0,88,64,73
75.0,75.15,78,64,73
75.15,75.3,80,64,73
75.3,75.9,81,64,73
75.9,76.2,80,64,73
76.2,76.8,88,64,73
76.8,76.95,80,64,73
76.95,77.1,81,64,73
77.1,77.4,83,64,73
77.4,77.7,84,64,73
93.6,94.05,76,64,73
94.05,94.2,74,64,73
94.2,94.5,72,64,73
94.5,95.7,81,64,73
95.7,96.0,80,64,73
96.0,96.3,81,64,73
96.3,96.6,79,64,73
96.6,96.9,77,64,73
96.9,97.2,75,64,73
97.2,97.5,74,36,73
97.5,97.8,72,36,73
97.8,98.1,70,36,73
98.1,98.4,72,36,73
98.4,98.7,70,36,73
98.7,99.0,69,36,73
99.0,99.3,74,36,73
99.3,99.6,72,36,73
99.6,99.9,70,36,73
99.9,100.2,72,36,73
100.2,100.5,70,36,73
100.5,100.8,69,36,73
100.8,101.1,74,36,73
101.1,101.4,72,36,73
101.4,101.7,70,36,73
101.7,102.0,75,36,73
102.0,102.3,74,36,73
102.3,102.6,72,36,73
102.6,102.9,77,36,73
102.9,103.2,75,36,73
103.2,103.5,74,36,73
103.5,103.8,75,36,73
103.8,104.1,74,36,73
104.1,104.4,72,36,73
104.4,104.7,77,36,73
104.7,105.0,75,36,73
105.0,105.3,74,36,73
105.3,105.6,77,36,73
105.6,105.9,75,36,73
105.9,106.2,74,36,73
106.2,106.5,89,36,73
106.5,106.8,88,36,73
106.8,107.1,86,36,73
107.1,107.4,84,88,73
107.4,107.7,83,88,73
107.7,108.0,81,88,73
108.0,108.3,80,88,73
113.4,114.3,81,36,73
114.3,115.2,80,36,73
115.2,116.1,77,36,73
116.1,117.0,76,36,73
117.0,120.9,74,36,73
135.9,136.5,65,36,73
136.5,136.8,69,36,73
136.8,137.7,70,36,73
137.7,138.3,65,36,73
138.3,138.6,69,36,73
138.6,139.5,70,36,73
139.5,140.1,62,36,73
140.1,140.4,66,36,73
140.4,141.3,67,36,73
141.3,141.9,62,36,73
141.9,142.2,66,36,73
142.2,143.1,67,36,73
156.9,157.2,85,36,73
157.2,157.5,86,36,73
157.5,157.8,84,36,73
157.8,158.1,82,36,73
158.1,158.4,80,36,73
158.4,158.7,79,36,73
158.7,159.0,77,36,73
159.0,159.3,75,36,73
159.3,159.75,74,36,73
159.75,159.9,76,36,73
159.9,160.2,73,36,73
160.2,160.8,74,49,73
165.6,166.5,86,49,73
166.5,166.8,74,49,73
185.1,185.4,81,49,73
185.4,186.0,84,88,73
186.0,186.9,82,88,73
186.9,187.2,82,88,73
187.2,187.8,84,88,73
187.8,188.7,82,88,73
188.7,189.0,82,88,73
189.0,189.6,81,88,73
189.6,190.5,79,88,73
190.5,190.8,79,88,73
190.8,191.4,81,88,73
191.4,192.3,79,88,73
192.3,192.6,79,88,73
192.6,193.5,78,88,73
193.5,193.95,77,88,73
193.95,194.01,83,88,73
194.1,194.16,86,88,73
194.25,194.31,89,88,73
194.4,194.7,88,88,73
195.3,195.47969,77,88,73
195.75,195.81,83,88,73
195.9,195.96,86,88,73
196.05,196.11,89,88,73
196.2,196.5,90,88,73
197.1,197.55,79,88,73
197.55,197.61,83,88,73
197.7,197.76,86,88,73
197.85,197.91,91,88,73
198.0,198.3,92,88,73
198.9,199.35,81,88,73
199.35,199.41,85,88,73
199.5,199.56,88,88,73
199.65,199.71,93,88,73
199.8,200.7,86,88,73
200.7,201.0,74,88,73
203.1,204.0,65,88,73
204.0,204.9,70,88,73
204.9,205.2,74,88,73
205.2,205.5,75,88,73
205.5,205.8,74,88,73
205.8,206.1,72,88,73
206.1,206.4,70,88,73
206.4,206.7,72,88,73
206.7,207.0,69,88,73
207.0,207.6,65,88,73
207.6,208.5,70,88,73
208.5,208.8,74,88,73
208.8,209.1,79,88,73
209.1,209.4,77,88,73
209.4,210.0,75,88,73
210.0,210.3,74,88,73
210.3,210.6,72,88,73
210.6,211.2,74,88,73
211.2,212.1,77,88,73
212.1,212.4,79,88,73
212.4,213.0,81,88,73
213.0,213.9,86,88,73
213.9,214.2,89,88,73
214.2,214.8,81,88,73
214.8,215.7,81,88,73
215.7,216.0,83,88,73
216.0,216.6,84,88,73
216.6,217.5,89,88,73
217.5,217.8,93,88,73
217.8,218.1,84,88,73
218.7,219.0,72,49,73
219.6,219.9,84,49,73
220.5,220.8,72,49,73
221.4,221.52,81,49,73
222.3,222.42,79,49,73
223.2,223.32,81,49,73
224.1,224.22,79,49,73
225.0,225.3,78,49,73
225.9,226.35,77,49,73
226.35,226.41,83,49,73
226.5,226.56,86,49,73
226.65,226.71,89,49,73
226.8,227.1,88,49,73
227.7,228.15,75,49,73
228.15,228.21,81,49,73
228.3,228.36,84,49,73
228.45,228.51,87,49,73
228.6,228.9,86,49,73
229.5,229.95,73,49,73
229.95,230.01,77,49,73
230.1,230.16,80,49,73
230.25,230.31,85,49,73
230.4,230.7,84,49,73
231.3,231.75,72,49,73
231.75,231.81,76,49,73
231.9,231.96,79,49,73
232.05,232.11,84,49,73
232.2,233.1,89,75,73
233.1,233.4,77,49,73
235.5,236.4,68,49,73
236.4,237.3,73,49,73
237.3,237.6,77,49,73
237.6,237.9,78,49,73
237.9,238.2,77,49,73
238.2,238.5,75,49,73
238.5,238.8,73,49,73
238.8,239.1,75,49,73
239.1,239.4,72,49,73
239.4,240.0,68,49,73
240.0,240.9,73,49,73
240.9,241.2,77,49,73
241.2,241.5,82,49,73
241.5,241.8,80,49,73
241.8,242.1,78,49,73
242.1,242.4,78,49,73
242.4,242.7,77,49,73
242.7,243.0,75,49,73
243.0,243.6,77,49,73
243.6,244.5,80,49,73
244.5,244.8,85,49,73
244.8,246.6,92,49,73
262.8,264.6,75,88,73
264.6,266.1,87,101,73
267.9,268.8,77,101,73
268.8,269.7,82,101,73
269.7,270.0,86,101,73
270.0,270.3,87,101,73
270.3,270.6,86,101,73
270.6,270.9,84,101,73
270.9,271.2,82,101,73
271.2,271.5,84,101,73
271.5,271.8,81,101,73
271.8,272.4,77,101,73
272.4,273.3,82,101,73
273.3,273.6,86,101,73
273.6,273.9,91,101,73
273.9,274.2,89,101,73
274.2,274.5,87,101,73
274.5,274.8,87,101,73
274.8,275.1,86,101,73
275.1,275.4,84,101,73
275.4,276.0,86,101,73
276.0,276.9,77,101,73
276.9,277.2,79,101,73
277.2,277.8,81,101,73
277.8,278.7,86,101,73
278.7,279.0,89,101,73
279.0,279.6,81,101,73
279.6,280.5,81,101,73
280.5,280.8,83,101,73
280.8,281.4,84,101,73
281.4,282.3,89,101,73
282.3,282.6,93,101,73
282.6,283.2,84,101,73
283.2,284.1,82,101,73
284.1,284.4,82,101,73
284.4,285.0,84,101,73
285.0,285.9,82,101,73
285.9,286.2,82,101,73
286.2,286.8,81,101,73
286.8,287.7,79,101,73
287.7,288.0,79,101,73
288.0,288.6,81,101,73
288.6,289.5,79,101,73
289.5,289.8,79,101,73
289.8,290.4,78,101,73
290.7,291.15,77,101,73
291.15,291.21,83,101,73
291.3,291.36,86,101,73
291.45,291.51,89,101,73
291.6,291.9,88,101,73
292.5,292.95,75,101,73
292.95,293.01,81,101,73
293.1,293.16,84,101,73
293.25,293.31,87,101,73
293.4,293.7,86,101,73
294.3,294.75,79,101,73
294.75,294.81,84,101,73
294.9,294.96,87,101,73
295.05,295.11,91,101,73
295.2,295.5,89,101,73
296.1,296.55,93,101,73
296.55,296.61,84,101,73
296.7,296.76,89,101,73
296.85,296.91,93,101,73
297.0,297.9,94,88,73
297.9,298.2,82,88,73
311.4,312.0,74,49,73
312.0,312.9,77,49,73
312.9,313.2,80,49,73
313.2,314.7,82,49,73
315.6,316.2,80,49,73
317.4,318.0,81,49,73
319.2,319.8,82,49,73
321.0,321.6,82,36,73
322.8,323.4,82,36,73
337.5,338.1,67,36,73
338.1,338.4,71,36,73
338.4,339.0,72,36,73
339.0,339.3,60,36,73
339.3,339.9,67,36,73
339.9,340.2,71,36,73
340.2,340.8,72,36,73
340.8,341.1,60,36,73
341.1,341.7,71,36,73
341.7,342.0,76,36,73
342.0,342.6,72,36,73
342.6,342.9,64,36,73
342.9,343.5,71,36,73
343.5,344.1,76,36,73
344.1,344.4,72,36,73
344.4,345.0,72,36,73
345.0,345.3,71,36,73
345.3,345.9,69,36,73
345.9,346.2,67,36,73
346.2,346.8,65,36,73
346.8,347.1,64,36,73
347.1,347.4,62,36,73
347.4,348.6,64,36,73
349.2,350.4,64,36,73
354.0,354.15,67,36,73
354.15,354.3,69,36,73
354.3,354.45,67,36,73
354.45,354.6,69,36,73
354.6,354.9,70,36,73
354.9,355.2,66,36,73
355.2,355.5,67,36,73
355.5,355.8,76,36,73
355.8,356.1,71,36,73
356.1,356.4,73,36,73
356.4,356.7,81,36,73
356.7,357.0,79,36,73
357.0,357.3,78,36,73
357.3,357.6,79,36,73
357.6,358.8,88,36,73
358.8,359.1,78,36,73
359.1,359.4,79,36,73
359.4,360.6,88,36,73
360.6,360.9,77,36,73
360.9,361.2,78,36,73
361.2,362.4,87,36,73
362.4,362.7,77,36,73
362.7,363.0,78,36,73
363.0,364.2,87,36,73
364.2,364.5,77,36,73
364.5,364.8,78,36,73
364.8,366.0,87,36,73
366.0,366.3,78,36,73
366.3,366.6,87,36,73
366.6,366.9,78,36,73
366.9,367.2,87,36,73
367.2,367.5,78,36,73
367.5,367.8,87,36,73
367.8,368.1,78,36,73
368.1,368.4,87,36,73
368.4,368.7,85,36,73
368.7,369.0,87,36,73
369.0,369.3,85,36,73
369.3,369.6,83,36,73
369.6,369.9,85,36,73
369.9,370.2,83,36,73
370.2,370.5,81,36,73
370.5,370.8,83,36,73
370.8,371.1,81,36,73
371.1,371.4,80,36,73
371.4,372.0,83,36,73
372.0,372.15,78,36,73
372.15,372.3,80,36,73
372.3,372.9,81,36,73
372.9,373.2,80,36,73
373.2,373.8,83,36,73
373.8,373.95,78,36,73
373.95,374.1,80,36,73
374.1,374.7,81,36,73
374.7,375.0,80,36,73
375.0,375.6,88,36,73
375.6,375.75,78,36,73
375.75,375.9,80,36,73
375.9,376.5,81,36,73
376.5,376.8,80,36,73
376.8,377.4,88,36,73
377.4,377.55,80,36,73
377.55,377.7,81,36,73
377.7,378.0,83,36,73
378.0,378.3,84,36,73
394.2,394.65,76,36,73
394.65,394.8,74,36,73
394.8,395.1,72,36,73
395.1,396.3,81,36,73
396.3,396.6,80,36,73
396.6,396.9,81,36,73
396.9,397.2,79,36,73
397.2,397.5,77,36,73
397.5,397.8,75,36,73
397.8,398.1,74,36,73
398.1,398.4,72,36,73
398.4,398.7,70,36,73
398.7,399.0,72,36,73
399.0,399.3,70,36,73
399.3,399.6,69,36,73
399.6,399.9,74,36,73
399.9,400.2,72,36,73
400.2,400.5,70,36,73
400.5,400.8,72,36,73
400.8,401.1,70,36,73
401.1,401.4,69,36,73
401.4,401.7,74,36,73
401.7,402.0,72,36,73
402.0,402.3,70,36,73
402.3,402.6,75,36,73
402.6,402.9,74,36,73
402.9,403.2,72,36,73
403.2,403.5,77,36,73
403.5,403.8,75,36,73
403.8,404.1,74,36,73
404.1,404.4,75,36,73
404.4,404.7,74,36,73
404.7,405.0,72,36,73
405.0,405.3,77,36,73
405.3,405.6,75,36,73
405.6,405.9,74,36,73
405.9,406.2,77,36,73
406.2,406.5,75,36,73
406.5,406.8,74,36,73
406.8,407.1,89,36,73
407.1,407.4,88,36,73
407.4,407.7,86,36,73
407.7,408.0,84,36,73
408.0,408.3,83,36,73
408.3,408.6,81,36,73
408.6,408.9,80,36,73
414.0,414.9,81,36,73
414.9,415.8,80,36,73
415.8,416.7,77,36,73
416.7,417.6,76,36,73
417.6,421.5,74,36,73
436.5,437.1,65,36,73
437.1,437.4,69,36,73
437.4,438.3,70,36,73
438.3,438.9,65,36,73
438.9,439.2,69,36,73
439.2,440.1,70,36,73
440.1,440.7,62,36,73
440.7,441.0,66,36,73
441.0,441.9,67,36,73
441.9,442.5,62,36,73
442.5,442.8,66,36,73
442.8,443.7,67,36,73
457.5,457.8,85,36,73
457.8,458.1,86,36,73
458.1,458.4,84,36,73
458.4,458.7,82,36,73
458.7,459.0,80,36,73
459.0,459.3,79,36,73
459.3,459.6,77,36,73
459.6,459.9,75,36,73
459.9,460.35,74,36,73
460.35,460.5,76,36,73
460.5,460.8,73,36,73
460.8,461.4,74,49,73
466.2,467.1,86,49,73
467.1,467.4,74,49,73
3.0,3.15,50,64,70
3.15,3.3,52,64,70
3.3,3.45,50,64,70
3.45,3.6,52,64,70
3.6,3.9,53,64,70
3.9,4.2,49,64,70
4.2,4.5,50,64,70
4.5,4.8,58,64,70
4.8,5.1,54,64,70
5.1,5.4,55,64,70
5.4,5.7,64,64,70
5.7,6.0,62,64,70
6.0,6.3,61,64,70
6.3,6.6,62,64,70
6.6,7.5,57,64,70
7.5,7.8,56,64,70
7.8,8.1,50,64,70
8.1,8.4,49,64,70
8.4,9.3,55,64,70
9.3,9.6,54,64,70
9.6,9.9,48,64,70
9.9,10.2,47,64,70
10.2,11.1,53,64,70
11.1,11.4,52,64,70
11.7,12.3,55,64,70
12.3,12.6,59,64,70
12.6,13.2,60,64,70
13.2,13.5,48,64,70
13.5,14.1,55,64,70
14.1,14.4,59,64,70
14.4,15.0,60,64,70
15.0,15.3,48,64,70
15.3,15.9,59,64,70
15.9,16.2,64,64,70
16.2,16.8,60,64,70
16.8,17.1,52,64,70
17.1,17.7,59,64,70
17.7,18.3,64,64,70
18.3,18.6,60,64,70
18.6,19.2,60,64,70
19.2,19.5,59,64,70
19.5,20.1,57,64,70
20.1,20.4,55,64,70
20.4,21.0,53,64,70
21.0,21.3,52,64,70
21.3,21.6,50,64,70
21.6,22.5,52,64,70
22.5,22.8,45,64,70
23.4,24.3,52,64,70
24.3,24.6,45,64,70
25.2,26.1,58,64,70
26.1,26.4,57,64,70
27.0,27.9,58,64,70
27.9,28.2,57,64,70
28.2,28.35,50,64,70
28.35,28.5,52,64,70
28.5,28.65,50,64,70
28.65,28.8,52,64,70
28.8,29.1,53,64,70
29.1,29.4,49,64,70
29.4,29.7,50,64,70
29.7,30.0,58,64,70
30.0,30.3,54,64,70
30.3,30.6,55,64,70
30.6,30.9,64,64,70
30.9,31.2,62,64,70
31.2,31.5,61,64,70
31.5,31.8,62,64,70
31.8,32.7,57,64,70
32.7,33.0,56,64,70
33.0,33.3,50,64,70
33.3,33.6,49,64,70
33.6,34.5,55,64,70
34.5,34.8,54,64,70
34.8,35.1,48,64,70
35.1,35.4,47,64,70
35.4,36.3,53,64,70
36.3,36.6,52,64,70
36.9,37.5,55,64,70
37.5,37.8,59,64,70
37.8,38.4,60,64,70
38.4,38.7,48,64,70
38.7,39.3,55,64,70
39.3,39.6,59,64,70
39.6,40.2,60,64,70
40.2,40.5,48,64,70
40.5,41.1,59,64,70
41.1,41.4,64,64,70
41.4,42.0,60,64,70
42.0,42.3,52,64,70
42.3,42.9,59,64,70
42.9,43.5,64,64,70
43.5,43.8,60,64,70
43.8,44.4,60,64,70
44.4,44.7,59,64,70
44.7,45.3,57,64,70
45.3,45.6,55,64,70
45.6,46.2,53,64,70
46.2,46.5,52,64,70
46.5,46.8,50,64,70
46.8,47.7,52,64,70
47.7,48.0,45,64,70
48.6,49.5,52,64,70
49.5,49.8,45,64,70
50.4,51.3,58,64,70
51.3,51.6,57,64,70
52.2,53.1,58,64,70
53.1,53.4,57,64,70
57.6,58.5,49,90,70
59.4,59.76,49,64,70
61.2,62.1,48,64,70
63.0,63.9,48,64,70
64.8,70.2,47,36,70
70.2,76.5,47,36,70
76.5,77.4,40,36,70
77.4,77.7,45,36,70
83.7,84.6,59,36,70
84.6,84.9,52,36,70
84.9,85.2,62,36,70
85.2,85.5,60,36,70
85.5,85.8,58,36,70
85.8,86.1,57,36,70
86.1,86.4,54,36,70
86.4,87.0,53,36,70
87.0,87.3,53,36,70
87.3,87.9,52,36,70
87.9,88.2,52,36,70
88.2,88.5,45,36,70
89.1,89.4,40,36,70
90.0,90.3,45,36,70
90.9,91.2,43,36,70
91.8,92.1,48,36,70
92.7,93.0,43,36,70
94.5,95.4,59,36,70
95.4,96.0,52,36,70
96.0,96.3,53,36,70
96.3,96.6,49,36,70
96.6,96.9,50,36,70
96.9,97.2,45,36,70
97.2,97.5,46,36,70
106.2,106.8,56,36,70
106.8,107.1,59,36,70
107.1,107.4,57,88,70
107.4,107.7,59,88,70
107.7,108.0,60,88,70
108.0,108.3,59,88,70
113.4,114.3,63,88,70
114.3,115.2,64,88,70
115.2,116.1,60,88,70
116.1,117.0,61,88,70
117.0,117.9,56,88,70
117.9,118.8,57,88,70
118.8,120.6,59,88,70
120.6,120.9,57,88,70
126.3,126.6,52,88,70
126.6,126.9,53,88,70
126.9,127.2,55,88,70
127.2,127.5,51,88,70
127.5,127.8,52,88,70
127.8,128.1,61,88,70
128.1,128.4,56,88,70
128.4,128.7,57,88,70
128.7,129.0,53,88,70
129.0,129.3,52,88,70
129.3,129.6,50,88,70
129.6,129.9,52,88,70
129.9,130.5,59,88,70
130.5,130.8,58,88,70
130.8,131.1,57,88,70
131.1,131.4,51,88,70
131.4,131.7,50,88,70
131.7,132.6,57,88,70
132.6,132.9,55,88,70
132.9,133.2,49,88,70
133.2,133.5,48,88,70
133.5,134.4,54,88,70
134.4,134.7,53,88,70
134.7,135.0,45,88,70
135.0,135.3,46,88,70
135.9,136.5,53,88,70
136.5,136.8,57,88,70
136.8,137.4,58,88,70
137.4,137.7,46,88,70
137.7,138.3,53,88,70
138.3,138.6,57,88,70
138.6,139.2,58,88,70
139.2,139.5,46,88,70
139.5,140.1,50,88,70
140.1,140.4,54,88,70
140.4,141.0,55,88,70
141.0,141.3,46,88,70
141.3,141.9,50,88,70
141.9,142.2,54,88,70
142.2,142.8,55,88,70
142.8,143.1,55,88,70
143.1,143.4,58,88,70
143.4,143.7,57,88,70
143.7,144.0,55,88,70
144.0,144.6,58,88,70
144.6,144.9,55,88,70
144.9,145.5,53,88,70
145.5,145.8,52,88,70
145.8,146.1,50,88,70
156.6,157.2,57,88,70
157.2,157.5,58,88,70
157.5,157.8,54,88,70
157.8,158.1,55,88,70
158.1,158.4,50,88,70
158.4,158.7,51,88,70
158.7,159.0,53,88,70
159.0,159.3,55,88,70
159.3,159.9,57,88,70
159.9,160.2,45,88,70
160.2,160.8,50,88,70
167.4,168.3,50,88,70
168.3,169.2,38,88,70
169.2,170.1,50,88,70
170.1,171.0,38,88,70
171.0,171.9,46,88,70
171.9,172.8,34,88,70
172.8,173.7,46,88,70
173.7,174.6,34,88,70
174.6,175.5,46,88,70
175.5,176.4,34,88,70
176.4,177.3,46,88,70
177.3,178.2,34,88,70
178.2,179.1,46,88,70
179.1,180.0,34,88,70
180.0,180.9,47,88,70
180.9,181.8,35,88,70
181.8,182.7,48,88,70
182.7,183.6,36,88,70
183.6,184.5,50,88,70
184.5,185.4,38,88,70
185.4,186.0,51,88,70
186.0,186.3,51,88,70
186.3,186.9,52,88,70
186.9,187.2,52,88,70
187.2,187.8,51,88,70
187.8,188.7,52,88,70
188.7,189.0,52,88,70
189.0,189.6,52,88,70
189.6,190.5,53,88,70
190.5,190.8,53,88,70
190.8,191.4,52,88,70
191.4,192.3,53,88,70
192.3,192.6,53,88,70
192.6,193.2,54,88,70
197.1,198.0,53,88,70
198.0,198.9,52,88,70
198.9,199.8,45,88,70
199.8,200.7,38,88,70
200.7,201.0,50,88,70
203.1,204.0,50,88,70
204.0,204.9,50,88,70
204.9,205.2,53,88,70
205.2,205.5,55,88,70
205.5,205.8,53,88,70
205.8,206.1,51,88,70
206.1,206.4,50,88,70
206.4,206.7,51,88,70
206.7,207.0,48,88,70
207.0,207.6,50,88,70
207.6,208.5,50,88,70
208.5,209.1,58,88,70
209.1,209.4,57,88,70
209.4,210.0,55,88,70
210.0,210.3,53,88,70
210.3,210.6,51,88,70
210.6,211.5,53,88,70
211.5,212.4,50,88,70
212.4,213.3,62,88,70
213.3,214.2,50,88,70
214.2,215.1,65,88,70
215.1,216.0,53,88,70
216.0,216.9,65,88,70
216.9,217.8,53,88,70
217.8,218.1,51,88,70
218.7,219.0,52,49,70
219.6,219.9,51,49,70
220.5,220.8,52,49,70
221.4,221.52,52,49,70
222.3,222.42,53,49,70
223.2,223.32,52,49,70
224.1,224.22,53,49,70
225.0,225.9,54,49,70
225.9,226.8,55,49,70
226.8,227.7,56,49,70
227.7,228.6,57,49,70
228.6,229.5,58,49,70
229.5,230.4,59,49,70
230.4,231.3,60,49,70
231.3,232.2,58,49,70
232.2,233.1,57,49,70
233.1,233.4,53,49,70
246.6,247.2,52,49,70
247.2,247.5,56,49,70
247.5,248.1,56,49,70
248.1,248.4,61,49,70
248.4,250.2,68,49,70
250.2,250.8,69,49,70
259.2,259.8,48,49,70
259.8,260.1,52,49,70
260.1,260.7,52,49,70
260.7,261.0,57,49,70
261.0,261.9,60,49,70
261.9,262.8,60,49,70
262.8,264.6,59,88,70
264.6,266.1,41,88,70
267.9,268.8,53,101,70
268.8,269.7,50,101,70
269.7,270.0,53,101,70
270.0,270.3,55,101,70
270.3,270.6,53,101,70
270.6,270.9,51,101,70
270.9,271.2,50,101,70
271.2,271.5,51,101,70
271.5,271.8,48,101,70
271.8,272.4,50,101,70
272.4,273.3,50,101,70
273.3,273.6,53,101,70
273.6,273.9,58,101,70
273.9,274.2,57,101,70
274.2,274.5,55,101,70
274.5,274.8,55,101,70
274.8,275.1,53,101,70
275.1,275.4,51,101,70
275.4,276.0,53,101,70
276.0,276.9,53,101,70
276.9,277.2,55,101,70
277.2,277.8,57,101,70
277.8,278.7,62,101,70
278.7,279.0,65,101,70
279.0,279.6,57,101,70
279.6,280.5,57,101,70
280.5,280.8,59,101,70
280.8,281.4,60,101,70
281.4,282.3,57,101,70
282.3,282.6,53,101,70
282.6,283.2,51,101,70
283.2,284.1,52,101,70
284.1,284.4,52,101,70
284.4,285.0,51,101,70
285.0,285.9,51,101,70
285.9,286.2,52,101,70
286.2,286.8,52,101,70
286.8,287.7,53,101,70
287.7,288.0,53,101,70
288.0,288.6,52,101,70
288.6,289.5,53,101,70
289.5,289.8,53,101,70
289.8,290.7,54,101,70
290.7,291.6,55,101,70
291.6,292.5,56,101,70
292.5,293.4,57,101,70
293.4,294.3,58,101,70
294.3,295.2,51,101,70
295.2,296.1,53,101,70
296.1,297.0,53,101,70
297.0,297.9,46,88,70
297.9,298.2,58,88,70
300.6,300.8397,46,49,70
301.5,301.7397,34,49,70
302.4,302.63968,46,49,70
303.3,303.53967,34,49,70
304.2,304.4397,46,49,70
305.1,305.3397,34,49,70
306.0,306.2397,46,49,70
306.9,307.13968,34,49,70
307.8,308.03967,46,49,70
308.7,308.9397,34,49,70
309.6,309.8397,46,49,70
310.5,310.7397,34,49,70
311.4,311.63968,46,49,70
312.3,312.53967,34,49,70
313.2,313.4397,46,49,70
314.1,314.3397,34,49,70
315.0,315.2397,46,49,70
315.9,316.13968,34,49,70
316.8,317.03967,46,49,70
317.7,317.9397,34,49,70
318.6,318.8397,46,36,70
319.5,319.7397,34,36,70
320.4,320.63968,46,36,70
321.3,321.53967,34,36,70
322.2,322.4397,46,36,70
324.0,324.2397,34,36,70
325.8,326.4,46,36,70
328.8,328.95,50,36,70
328.95,329.1,52,36,70
329.1,329.25,50,36,70
329.25,329.4,52,36,70
329.4,329.7,53,36,70
329.7,330.0,49,36,70
330.0,330.3,50,36,70
330.3,330.6,58,36,70
330.6,330.9,54,36,70
330.9,331.2,55,36,70
331.2,331.5,64,36,70
331.5,331.8,62,36,70
331.8,332.1,61,36,70
332.1,332.4,62,36,70
332.4,333.3,57,36,70
333.3,333.6,56,36,70
333.6,333.9,50,36,70
333.9,334.2,49,36,70
334.2,335.1,55,36,70
335.1,335.4,54,36,70
335.4,335.7,48,36,70
335.7,336.0,47,36,70
336.0,336.9,53,36,70
336.9,337.2,52,36,70
337.5,338.1,55,36,70
338.1,338.4,59,36,70
338.4,339.0,60,36,70
339.0,339.3,48,36,70
339.3,339.9,55,36,70
339.9,340.2,59,36,70
340.2,340.8,60,36,70
340.8,341.1,48,36,70
341.1,341.7,59,36,70
341.7,342.0,64,36,70
342.0,342.6,60,36,70
342.6,342.9,52,36,70
342.9,343.5,59,36,70
343.5,344.1,64,36,70
344.1,344.4,60,36,70
344.4,345.0,60,36,70
345.0,345.3,59,36,70
345.3,345.9,57,36,70
345.9,346.2,55,36,70
346.2,346.8,53,36,70
346.8,347.1,52,36,70
347.1,347.4,50,36,70
347.4,348.3,52,36,70
348.3,348.6,45,36,70
349.2,350.1,52,36,70
350.1,350.4,45,36,70
351.0,351.9,58,36,70
351.9,352.2,57,36,70
352.8,353.7,58,36,70
353.7,354.0,57,36,70
358.2,359.1,49,62,70
360.0,360.36,49,36,70
361.8,362.7,48,36,70
363.6,364.5,48,36,70
365.4,370.8,47,36,70
370.8,377.1,47,36,70
377.1,378.0,40,36,70
378.0,378.3,45,36,70
384.3,385.2,59,36,70
385.2,385.5,52,36,70
385.5,385.8,62,36,70
385.8,386.1,60,36,70
386.1,386.4,58,36,70
386.4,386.7,57,36,70
386.7,387.0,54,36,70
387.0,387.6,53,36,70
387.6,387.9,53,36,70
387.9,388.5,52,36,70
388.5,388.8,52,36,70
388.8,389.1,45,36,70
389.7,390.0,40,36,70
390.6,390.9,45,36,70
391.5,391.8,43,36,70
392.4,392.7,48,36,70
393.3,393.6,43,36,70
395.1,396.0,59,36,70
396.0,396.6,52,36,70
396.6,396.9,53,36,70
396.9,397.2,49,36,70
397.2,397.5,50,36,70
397.5,397.8,45,36,70
397.8,398.1,46,36,70
406.8,407.4,56,36,70
407.4,407.7,59,36,70
407.7,408.0,57,36,70
408.0,408.3,59,36,70
408.3,408.6,60,36,70
408.6,408.9,59,36,70
414.0,414.9,63,36,70
414.9,415.8,64,36,70
415.8,416.7,60,36,70
416.7,417.6,61,36,70
417.6,418.5,56,36,70
418.5,419.4,57,36,70
419.4,421.2,59,36,70
421.2,421.5,57,36,70
426.9,427.2,52,36,70
427.2,427.5,53,36,70
427.5,427.8,55,36,70
427.8,428.1,51,36,70
428.1,428.4,52,36,70
428.4,428.7,61,36,70
428.7,429.0,56,36,70
429.0,429.3,57,36,70
429.3,429.6,53,36,70
429.6,429.9,52,36,70
429.9,430.2,50,36,70
430.2,430.5,52,36,70
430.5,431.1,59,36,70
431.1,431.4,58,36,70
431.4,431.7,57,36,70
431.7,432.0,51,36,70
432.0,432.3,50,36,70
432.3,433.2,57,36,70
433.2,433.5,55,36,70
433.5,433.8,49,36,70
433.8,434.1,48,36,70
434.1,435.0,54,36,70
435.0,435.3,53,36,70
435.3,435.6,45,36,70
435.6,435.9,46,36,70
436.5,437.1,53,36,70
437.1,437.4,57,36,70
437.4,438.0,58,36,70
438.0,438.3,46,36,70
438.3,438.9,53,36,70
438.9,439.2,57,36,70
439.2,439.8,58,36,70
439.8,440.1,46,36,70
440.1,440.7,50,36,70
440.7,441.0,54,36,70
441.0,441.6,55,36,70
441.6,441.9,46,36,70
441.9,442.5,50,36,70
442.5,442.8,54,36,70
442.8,443.4,55,36,70
443.4,443.7,55,36,70
443.7,444.0,58,36,70
444.0,444.3,57,36,70
444.3,444.6,55,36,70
444.6,445.2,58,36,70
445.2,445.5,55,36,70
445.5,446.1,53,36,70
446.1,446.4,52,36,70
446.4,446.7,50,36,70
457.2,457.8,57,36,70
457.8,458.1,58,36,70
458.1,458.4,54,36,70
458.4,458.7,55,36,70
458.7,459.0,50,36,70
459.0,459.3,51,36,70
459.3,459.6,53,36,70
459.6,459.9,55,36,70
459.9,460.5,57,36,70
460.5,460.8,45,36,70
460.8,461.4,50,36,70
25.2,26.1,79,49,60
26.1,26.4,76,49,60
27.0,27.9,79,49,60
27.9,28.2,76,49,60
50.4,51.3,79,49,60
51.3,51.6,76,49,60
52.2,53.1,79,49,60
57.6,58.5,69,75,60
59.4,60.6,69,75,60
61.2,62.1,69,49,60
63.0,63.9,69,49,60
64.8,69.3,69,36,60
69.3,70.2,66,36,60
70.2,76.5,71,36,60
76.5,77.4,76,36,60
78.3,78.9,76,36,60
78.9,79.2,76,36,60
79.2,79.5,76,36,60
80.1,80.7,79,36,60
80.7,81.0,79,36,60
81.0,81.3,79,36,60
81.9,82.5,79,36,60
82.5,82.8,79,36,60
82.8,83.1,79,36,60
83.7,84.6,78,36,60
84.6,84.9,76,36,60
89.1,89.7,76,36,60
89.7,90.0,76,36,60
90.0,90.3,76,36,60
90.9,91.5,79,36,60
91.5,91.8,79,36,60
91.8,92.1,79,36,60
92.7,93.3,79,36,60
93.3,93.6,79,36,60
93.6,93.9,79,36,60
94.5,95.4,78,36,60
95.4,95.7,76,36,60
101.7,102.3,78,36,60
102.3,102.6,78,36,60
102.6,103.5,77,36,60
103.5,104.1,78,36,60
104.1,104.4,78,36,60
104.4,105.3,77,36,60
105.3,106.2,78,36,60
106.2,106.8,77,36,60
106.8,107.1,77,36,60
107.1,107.7,78,88,60
107.7,108.0,78,88,60
108.0,108.3,76,49,60
113.4,114.3,81,36,60
114.3,115.2,80,36,60
115.2,116.1,78,36,60
116.1,117.0,76,36,60
117.0,119.7,76,36,60
119.7,120.6,77,36,60
120.6,121.2,78,36,60
146.7,147.3,69,49,60
147.3,147.6,69,49,60
147.6,147.9,69,49,60
148.5,149.1,72,49,60
149.1,149.4,72,49,60
149.4,149.7,72,49,60
150.3,150.9,72,49,60
150.9,151.2,72,49,60
151.2,151.5,72,49,60
152.1,152.7,76,49,60
152.7,153.0,76,49,60
153.0,153.3,76,49,60
159.3,159.9,69,49,60
159.9,160.2,69,49,60
160.2,160.8,69,49,60
162.0,162.6,69,49,60
163.8,164.4,69,49,60
165.6,166.5,74,49,60
166.5,166.8,62,49,60
167.4,168.3,74,88,60
168.3,169.2,62,88,60
169.2,170.1,74,88,60
170.1,171.0,62,88,60
171.0,171.9,74,88,60
171.9,172.8,62,88,60
172.8,173.7,72,88,60
173.7,174.6,58,88,60
174.6,175.5,74,88,60
175.5,176.4,62,88,60
176.4,177.3,75,88,60
177.3,178.2,60,88,60
178.2,179.1,74,88,60
179.1,180.0,62,88,60
180.0,180.9,74,88,60
180.9,181.8,62,88,60
181.8,182.7,77,88,60
182.7,183.6,65,88,60
183.6,184.5,74,88,60
184.5,185.4,65,88,60
185.4,187.2,72,88,60
187.2,188.7,72,88,60
188.7,189.0,72,88,60
189.0,189.6,73,88,60
189.6,190.5,74,88,60
190.5,190.8,74,88,60
190.8,191.4,73,88,60
191.4,192.3,74,88,60
192.3,192.9,74,88,60
194.1,194.4,74,88,60
194.4,194.7,74,88,60
195.9,196.2,74,88,60
196.2,196.5,74,88,60
197.7,198.0,74,88,60
198.0,198.3,74,88,60
198.9,199.8,69,88,60
199.8,200.7,62,88,60
200.7,201.0,74,88,60
210.6,212.4,74,88,60
212.4,214.2,69,88,60
214.2,216.0,69,88,60
216.0,217.8,69,88,60
217.8,219.6,72,49,60
219.6,221.4,72,49,60
221.4,223.2,79,49,60
223.2,224.7,79,49,60
224.7,225.0,74,36,60
225.0,227.7,74,36,60
227.7,228.6,72,36,60
228.6,229.5,74,36,60
229.5,230.4,77,36,60
230.4,231.3,81,36,60
231.3,232.2,79,36,60
232.2,232.8,77,36,60
235.8,239.4,80,49,60
239.4,241.2,80,49,60
241.2,243.0,78,49,60
243.0,246.6,80,49,60
246.6,249.9,76,49,60
249.9,250.2,76,49,60
250.2,250.8,69,49,60
251.1,251.7,57,49,60
252.0,252.6,69,49,60
252.9,253.5,57,49,60
253.8,254.4,69,49,60
254.7,255.3,57,49,60
255.6,256.2,69,49,60
256.5,257.1,57,49,60
257.4,258.0,69,49,60
258.3,258.9,57,49,60
259.2,259.8,69,49,60
260.1,260.7,57,49,60
261.0,261.6,81,49,60
261.6,261.9,69,49,60
261.9,262.5,81,49,60
262.5,262.8,69,49,60
262.8,263.4,81,49,60
263.4,263.7,69,49,60
263.7,264.3,81,49,60
264.3,264.6,69,49,60
264.6,266.1,81,88,60
267.9,268.5,77,101,60
271.5,271.8,77,101,60
271.8,272.1,77,101,60
275.1,275.4,77,101,60
275.4,275.7,77,101,60
276.9,277.2,77,101,60
277.2,277.5,77,101,60
278.7,279.0,77,101,60
279.0,279.3,77,101,60
280.5,280.8,77,101,60
280.8,281.1,77,101,60
282.3,282.6,77,101,60
282.6,283.5,72,101,60
283.5,284.4,72,101,60
284.4,285.3,72,101,60
285.3,285.9,72,101,60
286.2,287.1,79,101,60
287.1,288.0,79,101,60
288.0,288.9,79,101,60
288.9,289.5,79,101,60
289.5,289.8,74,101,60
289.8,290.7,74,101,60
290.7,291.6,74,101,60
291.6,292.5,74,101,60
292.5,293.4,72,101,60
293.4,294.3,77,101,60
294.3,295.2,79,101,60
295.2,296.1,77,101,60
296.1,297.0,77,101,60
297.0,297.9,77,88,60
351.0,351.9,79,49,60
351.9,352.2,76,49,60
352.8,353.7,79,49,60
353.7,354.0,76,49,60
358.2,359.1,69,75,60
360.0,361.2,69,75,60
361.8,362.7,69,49,60
363.6,364.5,69,49,60
365.4,369.9,69,36,60
369.9,370.8,66,36,60
370.8,377.1,71,36,60
377.1,378.0,76,36,60
378.9,379.5,76,36,60
379.5,379.8,76,36,60
379.8,380.1,76,36,60
380.7,381.3,79,36,60
381.3,381.6,79,36,60
381.6,381.9,79,36,60
382.5,383.1,79,36,60
383.1,383.4,79,36,60
383.4,383.7,79,36,60
384.3,385.2,78,36,60
385.2,385.5,76,36,60
389.7,390.3,76,36,60
390.3,390.6,76,36,60
390.6,390.9,76,36,60
391.5,392.1,79,36,60
392.1,392.4,79,36,60
392.4,392.7,79,36,60
393.3,393.9,79,36,60
393.9,394.2,79,36,60
394.2,394.5,79,36,60
395.1,396.0,78,36,60
396.0,396.3,76,36,60
402.3,402.9,78,36,60
402.9,403.2,78,36,60
403.2,404.1,77,36,60
404.1,404.7,78,36,60
404.7,405.0,78,36,60
405.0,405.9,77,36,60
405.9,406.8,78,36,60
406.8,407.4,77,36,60
407.4,407.7,77,36,60
407.7,408.3,78,36,60
408.3,408.6,78,36,60
408.6,408.9,76,49,60
414.0,414.9,81,36,60
414.9,415.8,80,36,60
415.8,416.7,78,36,60
416.7,417.6,76,36,60
417.6,420.3,76,36,60
420.3,421.2,77,36,60
421.2,421.8,78,36,60
447.3,447.9,69,49,60
447.9,448.2,69,49,60
448.2,448.5,69,49,60
449.1,449.7,72,49,60
449.7,450.0,72,49,60
450.0,450.3,72,49,60
450.9,451.5,72,49,60
451.5,451.8,72,49,60
451.8,452.1,72,49,60
452.7,453.3,76,49,60
453.3,453.6,76,49,60
453.6,453.9,76,49,60
459.9,460.5,69,49,60
460.5,460.8,69,49,60
460.8,461.4,69,49,60
462.6,463.2,69,49,60
464.4,465.0,69,49,60
466.2,467.1,74,49,60
467.1,467.4,62,49,60
3.0,3.15,62,64,40
3.15,3.3,64,64,40
3.3,3.45,62,64,40
3.45,3.6,64,64,40
3.6,3.9,65,64,40
3.9,4.2,61,64,40
4.2,4.5,62,64,40
4.5,4.8,70,64,40
4.8,5.1,66,64,40
5.1,5.4,67,64,40
5.4,5.7,76,64,40
5.7,6.0,74,64,40
6.0,6.3,73,64,40
6.3,6.6,74,64,40
6.6,7.5,81,64,40
7.5,7.8,80,64,40
7.8,8.1,74,64,40
8.1,8.4,73,64,40
8.4,9.3,79,64,40
9.3,9.6,78,64,40
9.6,9.9,72,64,40
9.9,10.2,71,64,40
10.2,11.1,77,64,40
11.1,11.4,76,64,40
11.4,12.0,79,64,40
12.0,12.15,74,64,40
12.15,12.3,76,64,40
12.3,12.9,77,64,40
12.9,13.2,76,64,40
13.2,13.8,79,64,40
13.8,13.95,74,64,40
13.95,14.1,76,64,40
14.1,14.7,77,64,40
14.7,15.0,76,64,40
15.0,15.6,81,64,40
15.6,15.75,80,64,40
15.75,15.9,81,64,40
15.9,16.5,83,64,40
16.5,16.8,76,64,40
16.8,17.4,81,64,40
17.4,17.55,80,64,40
17.55,17.7,81,64,40
17.7,18.3,83,64,40
18.3,18.6,76,64,40
18.6,19.2,81,64,40
19.2,19.35,79,64,40
19.35,19.5,81,64,40
19.5,20.1,77,64,40
20.1,20.25,76,64,40
20.25,20.4,77,64,40
20.4,21.0,74,64,40
21.0,21.3,72,64,40
21.3,21.6,70,64,40
21.6,22.5,68,64,40
22.5,22.8,69,64,40
23.4,24.3,68,64,40
24.3,24.6,69,64,40
28.2,28.35,62,64,40
28.35,28.5,64,64,40
28.5,28.65,62,64,40
28.65,28.8,64,64,40
28.8,29.1,65,64,40
29.1,29.4,61,64,40
29.4,29.7,62,64,40
29.7,30.0,70,64,40
30.0,30.3,66,64,40
30.3,30.6,67,64,40
30.6,30.9,76,64,40
30.9,31.2,74,64,40
31.2,31.5,73,64,40
31.5,31.8,74,64,40
31.8,32.7,81,64,40
32.7,33.0,80,64,40
33.0,33.3,74,64,40
33.3,33.6,73,64,40
33.6,34.5,79,64,40
34.5,34.8,78,64,40
34.8,35.1,72,64,40
35.1,35.4,71,64,40
35.4,36.3,77,64,40
36.3,36.6,76,64,40
36.6,37.2,79,64,40
37.2,37.35,74,64,40
37.35,37.5,76,64,40
37.5,38.1,77,64,40
38.1,38.4,76,64,40
38.4,39.0,79,64,40
39.0,39.15,74,64,40
39.15,39.3,76,64,40
39.3,39.9,77,64,40
39.9,40.2,76,64,40
40.2,40.8,81,64,40
40.8,40.95,80,64,40
40.95,41.1,81,64,40
41.1,41.7,83,64,40
41.7,42.0,76,64,40
42.0,42.6,81,64,40
42.6,42.75,80,64,40
42.75,42.9,81,64,40
42.9,43.5,83,64,40
43.5,43.8,76,64,40
43.8,44.4,81,64,40
44.4,44.55,79,64,40
44.55,44.7,81,64,40
44.7,45.3,77,64,40
45.3,45.45,76,64,40
45.45,45.6,77,64,40
45.6,46.2,74,64,40
46.2,46.5,72,64,40
46.5,46.8,70,64,40
46.8,47.7,68,64,40
47.7,48.0,69,64,40
48.6,49.5,68,64,40
49.5,49.8,69,64,40
70.2,70.5,71,64,40
70.5,70.8,59,64,40
70.8,71.1,71,64,40
71.1,71.4,59,64,40
71.4,71.7,71,64,40
71.7,72.0,59,64,40
72.0,72.3,71,64,40
72.3,72.6,59,64,40
72.6,72.9,71,64,40
72.9,73.2,59,64,40
73.2,73.5,71,64,40
73.5,73.8,59,64,40
73.8,74.1,71,64,40
74.1,74.4,59,64,40
74.4,74.7,71,64,40
74.7,75.0,59,64,40
75.0,75.3,71,64,40
75.3,75.6,59,64,40
75.6,75.9,71,64,40
75.9,76.2,59,64,40
76.2,76.5,71,64,40
76.5,76.8,62,64,40
76.8,77.1,71,64,40
77.4,77.7,72,49,40
77.7,78.0,68,49,40
78.0,78.3,69,49,40
78.3,79.2,76,49,40
79.2,79.5,72,49,40
79.5,79.8,68,49,40
79.8,80.1,69,49,40
80.1,81.0,77,49,40
81.0,81.45,76,49,40
81.45,81.6,74,49,40
81.6,81.9,72,49,40
81.9,82.8,77,49,40
82.8,83.25,76,49,40
83.25,83.4,74,49,40
83.4,83.7,72,49,40
83.7,84.9,81,49,40
84.9,85.2,80,49,40
85.2,85.5,81,49,40
85.5,85.8,79,49,40
85.8,86.1,77,49,40
86.1,86.4,75,49,40
86.4,86.7,74,49,40
86.7,87.0,72,49,40
87.0,87.3,70,49,40
87.3,87.9,72,49,40
87.9,88.2,68,49,40
88.2,88.5,69,49,40
88.5,88.62,60,49,40
88.8,88.92,64,49,40
89.4,89.52,59,49,40
89.7,89.82,64,49,40
90.3,90.42,60,49,40
90.6,90.72,64,49,40
91.2,91.32,62,49,40
91.5,91.62,67,49,40
92.1,92.22,64,49,40
92.4,92.52,67,49,40
93.0,93.12,62,49,40
93.3,93.42,67,49,40
93.9,94.02,64,49,40
94.2,94.32,67,49,40
94.8,94.92,66,49,40
95.1,95.22,71,49,40
105.3,105.6,65,36,40
105.6,105.9,63,36,40
105.9,106.2,62,36,40
106.2,106.5,77,36,40
106.5,106.8,76,36,40
106.8,107.1,74,36,40
107.1,107.4,72,88,40
107.4,107.7,71,88,40
107.7,108.0,69,88,40
108.0,108.3,76,49,40
108.3,108.6,70,49,40
108.6,108.9,71,49,40
109.8,110.1,77,49,40
110.1,110.4,70,49,40
110.4,110.7,71,49,40
111.6,111.9,78,49,40
111.9,112.2,72,49,40
112.2,112.5,73,49,40
113.4,113.7,81,49,40
113.7,114.0,77,49,40
114.0,114.3,78,49,40
114.3,114.6,80,49,40
114.6,114.9,72,49,40
114.9,115.2,73,49,40
115.2,115.5,78,49,40
115.5,115.8,74,49,40
115.8,116.1,75,49,40
116.1,116.4,76,49,40
116.4,116.7,67,49,40
116.7,117.0,68,49,40
117.0,117.3,74,49,40
117.3,117.6,67,49,40
117.6,117.9,68,49,40
117.9,118.2,74,49,40
118.2,118.5,68,49,40
118.5,118.8,69,49,40
118.8,119.1,74,49,40
119.1,119.4,70,49,40
119.4,119.7,71,49,40
119.7,120.0,74,49,40
120.0,120.3,70,49,40
120.3,120.6,71,49,40
120.6,120.9,74,49,40
120.9,121.2,68,49,40
121.2,121.8,69,49,40
121.8,122.1,61,49,40
122.1,122.4,62,49,40
125.4,125.7,61,49,40
125.7,126.0,62,49,40
126.0,126.3,65,49,40
126.3,126.6,61,49,40
126.6,126.9,62,49,40
126.9,127.2,70,49,40
127.2,127.5,66,49,40
127.5,127.8,67,49,40
127.8,128.1,76,49,40
128.1,128.4,74,49,40
128.4,128.7,73,49,40
128.7,129.0,74,49,40
129.0,129.9,81,49,40
129.9,130.2,80,49,40
130.2,130.5,74,49,40
130.5,130.8,73,49,40
130.8,131.7,79,49,40
131.7,132.0,78,49,40
132.0,132.3,72,49,40
132.3,132.6,71,49,40
132.6,133.5,77,49,40
133.5,133.8,76,49,40
133.8,134.1,70,49,40
134.1,134.4,69,49,40
134.4,135.3,75,49,40
135.3,135.6,74,49,40
135.6,135.9,77,49,40
135.9,136.2,77,49,40
136.2,136.35,72,49,40
136.35,136.5,74,49,40
136.5,137.1,75,49,40
137.1,137.4,74,49,40
137.4,138.0,77,49,40
138.0,138.15,72,49,40
138.15,138.3,74,49,40
138.3,138.9,75,49,40
138.9,139.2,74,49,40
139.2,139.8,79,49,40
139.8,139.95,78,49,40
139.95,140.1,79,49,40
140.1,140.7,81,49,40
140.7,141.0,74,49,40
141.0,141.6,79,49,40
141.6,141.75,78,49,40
141.75,141.9,79,49,40
141.9,142.5,81,49,40
142.5,142.8,74,49,40
142.8,143.4,79,49,40
143.4,143.55,77,49,40
143.55,143.7,79,49,40
143.7,144.3,75,49,40
144.3,144.45,74,49,40
144.45,144.6,75,49,40
144.6,145.2,70,49,40
145.2,145.5,69,49,40
145.5,145.8,61,49,40
145.8,146.1,62,49,40
146.1,146.4,65,49,40
146.1,146.4,57,49,40
146.4,146.7,65,49,40
146.4,146.7,69,49,40
147.0,147.3,64,49,40
147.0,147.3,57,49,40
147.3,147.6,65,49,40
147.3,147.6,69,49,40
147.9,148.2,65,49,40
147.9,148.2,57,49,40
148.2,148.5,65,49,40
148.2,148.5,69,49,40
148.8,149.1,67,49,40
148.8,149.1,60,49,40
149.1,149.4,67,49,40
149.1,149.4,72,49,40
149.7,150.0,69,49,40
149.7,150.0,60,49,40
150.0,150.3,69,49,40
150.0,150.3,72,49,40
150.6,150.9,67,49,40
150.6,150.9,60,49,40
150.9,151.2,67,49,40
150.9,151.2,72,49,40
151.5,151.8,69,49,40
151.5,151.8,60,49,40
151.8,152.1,69,49,40
151.8,152.1,72,49,40
152.4,152.7,71,49,40
152.4,152.7,64,49,40
152.7,153.0,71,49,40
153.0,153.3,69,49,40
153.3,153.6,67,49,40
153.6,153.9,65,49,40
153.6,153.9,70,49,40
153.9,154.2,69,49,40
154.2,154.5,67,49,40
154.5,154.8,65,49,40
154.8,155.1,63,49,40
155.1,155.4,62,49,40
155.4,155.7,58,49,40
155.7,156.3,57,49,40
156.3,156.6,57,49,40
156.6,157.2,79,49,40
157.2,157.5,77,49,40
157.5,157.8,75,49,40
157.8,158.1,74,49,40
158.1,158.4,77,49,40
158.4,158.7,75,49,40
158.7,159.0,70,49,40
159.0,159.3,67,49,40
159.3,159.75,65,49,40
159.75,159.9,67,49,40
159.9,160.2,64,49,40
160.2,160.8,62,49,40
162.0,162.6,62,49,40
163.8,163.95,62,49,40
163.95,164.1,64,49,40
164.1,164.25,62,49,40
164.25,164.4,64,49,40
164.4,164.55,65,49,40
164.55,164.7,67,49,40
164.7,164.85,65,49,40
164.85,165.0,67,49,40
165.0,165.15,69,49,40
165.15,165.3,73,49,40
165.3,165.45,69,49,40
165.45,165.6,73,49,40
165.6,166.5,74,49,40
166.5,166.8,62,49,40
170.7,171.6,65,88,40
171.6,172.5,70,88,40
172.5,172.8,74,88,40
172.8,173.1,75,88,40
173.1,173.4,74,88,40
173.4,173.7,72,88,40
173.7,174.0,70,88,40
174.0,174.3,72,88,40
174.3,174.6,69,88,40
174.6,175.2,65,88,40
175.2,176.1,70,88,40
176.1,176.4,74,88,40
176.4,176.7,79,88,40
176.7,177.0,77,88,40
177.0,177.3,75,88,40
177.3,177.6,75,88,40
177.6,177.9,74,88,40
177.9,178.2,72,88,40
178.2,178.8,74,88,40
178.8,179.7,77,88,40
179.7,180.0,79,88,40
180.0,180.6,81,88,40
180.6,181.5,86,88,40
181.5,181.8,89,88,40
181.8,182.4,81,88,40
182.4,183.3,81,88,40
183.3,183.6,83,88,40
183.6,184.2,84,88,40
184.2,185.1,89,88,40
185.1,185.4,93,88,40
185.4,185.7,96,88,40
186.3,186.6,70,49,40
187.2,187.5,84,88,40
187.2,187.5,69,88,40
188.1,188.4,70,49,40
189.0,189.3,81,88,40
189.9,190.2,67,49,40
189.9,190.2,55,49,40
190.8,191.1,81,88,40
191.7,192.0,67,49,40
191.7,192.0,55,49,40
192.6,193.5,78,49,40
193.5,194.4,77,49,40
194.4,195.3,76,49,40
195.3,196.2,77,49,40
196.2,197.1,78,49,40
197.1,198.0,79,49,40
198.0,198.9,80,49,40
198.9,199.8,81,49,40
199.8,200.7,86,88,40
200.7,201.0,74,88,40
209.7,210.0,57,49,40
210.0,210.3,58,49,40
210.3,210.6,60,49,40
210.6,211.2,62,49,40
211.2,212.1,65,49,40
212.1,212.4,67,49,40
212.4,213.0,69,49,40
213.0,213.9,74,49,40
213.9,214.2,77,49,40
214.2,214.8,69,49,40
214.8,215.7,69,49,40
215.7,216.0,71,49,40
216.0,216.6,72,49,40
216.6,217.5,77,49,40
217.5,217.8,81,49,40
217.8,218.4,84,49,40
218.4,219.3,82,49,40
219.3,219.6,82,49,40
219.6,220.2,84,49,40
220.2,221.1,82,49,40
221.1,221.4,82,49,40
221.4,222.0,81,49,40
222.0,222.9,79,49,40
222.9,223.2,79,49,40
223.2,223.8,81,49,40
223.8,224.7,79,49,40
224.7,225.0,79,49,40
225.0,225.9,78,36,40
225.9,226.8,77,36,40
226.8,227.7,76,36,40
227.7,228.6,75,36,40
228.6,229.5,74,36,40
230.3625,230.4,72,36,40
229.5,230.4,73,36,40
230.4,231.3,84,36,40
231.3,232.2,76,36,40
232.2,233.1,77,36,40
233.1,233.4,65,36,40
235.5,236.4,56,49,40
236.4,237.3,61,49,40
237.3,237.6,65,49,40
237.6,237.9,66,49,40
237.9,238.2,65,49,40
238.2,238.5,63,49,40
238.5,238.8,61,49,40
238.8,239.1,63,49,40
239.1,239.4,60,49,40
239.4,240.0,56,49,40
240.0,240.9,61,49,40
240.9,241.2,65,49,40
241.2,241.5,70,49,40
241.5,241.8,68,49,40
241.8,242.1,66,49,40
242.1,242.4,66,49,40
242.4,242.7,65,49,40
242.7,243.0,63,49,40
243.0,243.6,65,49,40
243.6,244.5,68,49,40
244.5,244.8,73,49,40
244.8,246.6,80,49,40
255.3,255.6,61,49,40
255.6,255.9,66,49,40
255.9,256.2,64,49,40
256.2,256.5,62,49,40
256.5,256.8,62,49,40
256.8,257.1,61,49,40
257.1,257.4,59,49,40
257.4,258.0,61,49,40
258.0,258.9,64,49,40
258.9,259.2,69,49,40
259.2,261.0,76,49,40
261.0,261.6,75,49,40
261.0,261.6,63,49,40
261.6,262.5,69,49,40
261.6,262.5,81,49,40
262.5,262.8,72,49,40
262.5,262.8,84,49,40
262.8,264.6,69,49,40
262.8,264.6,87,49,40
264.6,265.5,57,101,40
265.5,266.1,60,101,40
266.1,266.4,63,101,40
266.4,266.7,69,101,40
266.7,267.0,72,101,40
267.0,267.3,75,101,40
267.3,267.6,81,101,40
267.6,267.9,84,101,40
267.9,268.2,87,101,40
296.7,297.0,75,49,40
296.7,297.0,81,49,40
297.0,297.9,74,88,40
297.0,297.9,82,88,40
297.9,298.2,70,88,40
328.8,328.95,62,88,40
328.95,329.1,64,88,40
329.1,329.25,62,88,40
329.25,329.4,64,88,40
329.4,329.7,65,88,40
329.7,330.0,61,88,40
330.0,330.3,62,88,40
330.3,330.6,70,88,40
330.6,330.9,66,88,40
330.9,331.2,67,88,40
331.2,331.5,76,88,40
331.5,331.8,74,88,40
331.8,332.1,73,88,40
332.1,332.4,74,88,40
332.4,333.3,81,88,40
333.3,333.6,80,88,40
333.6,333.9,74,88,40
333.9,334.2,73,88,40
334.2,335.1,79,88,40
335.1,335.4,78,88,40
335.4,335.7,72,88,40
335.7,336.0,71,88,40
336.0,336.9,77,88,40
336.9,337.2,76,88,40
337.2,337.8,79,88,40
337.8,337.95,74,88,40
337.95,338.1,76,88,40
338.1,338.7,77,88,40
338.7,339.0,76,88,40
339.0,339.6,79,88,40
339.6,339.75,74,88,40
339.75,339.9,76,88,40
339.9,340.5,77,88,40
340.5,340.8,76,88,40
340.8,341.4,81,88,40
341.4,341.55,80,88,40
341.55,341.7,81,88,40
341.7,342.3,83,88,40
342.3,342.6,76,88,40
342.6,343.2,81,88,40
343.2,343.35,80,88,40
343.35,343.5,81,88,40
343.5,344.1,83,88,40
344.1,344.4,76,88,40
344.4,345.0,81,88,40
345.0,345.15,79,88,40
345.15,345.3,81,88,40
345.3,345.9,77,88,40
345.9,346.05,76,88,40
346.05,346.2,77,88,40
346.2,346.8,74,88,40
346.8,347.1,72,88,40
347.1,347.4,70,88,40
347.4,348.3,68,88,40
348.3,348.6,69,88,40
349.2,350.1,68,88,40
350.1,350.4,69,88,40
370.8,371.1,71,88,40
371.1,371.4,59,88,40
371.4,371.7,71,88,40
371.7,372.0,59,88,40
372.0,372.3,71,88,40
372.3,372.6,59,88,40
372.6,372.9,71,88,40
372.9,373.2,59,88,40
373.2,373.5,71,88,40
373.5,373.8,59,88,40
373.8,374.1,71,88,40
374.1,374.4,59,88,40
374.4,374.7,71,88,40
374.7,375.0,59,88,40
375.0,375.3,71,88,40
375.3,375.6,59,88,40
375.6,375.9,71,88,40
375.9,376.2,59,88,40
376.2,376.5,71,88,40
376.5,376.8,59,88,40
376.8,377.1,71,88,40
377.1,377.4,62,88,40
377.4,377.7,71,88,40
378.0,378.3,72,49,40
378.3,378.6,68,49,40
378.6,378.9,69,49,40
378.9,379.8,76,49,40
379.8,380.1,72,49,40
380.1,380.4,68,49,40
380.4,380.7,69,49,40
380.7,381.6,77,49,40
381.6,382.05,76,49,40
382.05,382.2,74,49,40
382.2,382.5,72,49,40
382.5,383.4,77,49,40
383.4,383.85,76,49,40
383.85,384.0,74,49,40
384.0,384.3,72,49,40
384.3,385.5,81,49,40
385.5,385.8,80,49,40
385.8,386.1,81,49,40
386.1,386.4,79,49,40
386.4,386.7,77,49,40
386.7,387.0,75,49,40
387.0,387.3,74,49,40
387.3,387.6,72,49,40
387.6,387.9,70,49,40
387.9,388.5,72,49,40
388.5,388.8,68,49,40
388.8,389.1,69,49,40
389.1,389.22,60,49,40
389.4,389.52,64,49,40
390.0,390.12,59,49,40
390.3,390.42,64,49,40
390.9,391.02,60,49,40
391.2,391.32,64,49,40
391.8,391.92,62,49,40
392.1,392.22,67,49,40
392.7,392.82,64,49,40
393.0,393.12,67,49,40
393.6,393.72,62,49,40
393.9,394.02,67,49,40
394.5,394.62,64,49,40
394.8,394.92,67,49,40
395.4,395.52,66,49,40
395.7,395.82,71,49,40
405.9,406.2,65,49,40
406.2,406.5,63,49,40
406.5,406.8,62,49,40
406.8,407.1,77,49,40
407.1,407.4,76,49,40
407.4,407.7,74,49,40
407.7,408.0,72,49,40
408.0,408.3,71,49,40
408.3,408.6,69,49,40
408.6,408.9,76,49,40
408.9,409.2,70,49,40
409.2,409.5,71,49,40
410.4,410.7,77,49,40
410.7,411.0,70,49,40
411.0,411.3,71,49,40
412.2,412.5,78,49,40
412.5,412.8,72,49,40
412.8,413.1,73,49,40
414.0,414.3,81,49,40
414.3,414.6,77,49,40
414.6,414.9,78,49,40
414.9,415.2,80,49,40
415.2,415.5,72,49,40
415.5,415.8,73,49,40
415.8,416.1,78,49,40
416.1,416.4,74,49,40
416.4,416.7,75,49,40
416.7,417.0,76,49,40
417.0,417.3,67,49,40
417.3,417.6,68,49,40
417.6,417.9,74,49,40
417.9,418.2,67,49,40
418.2,418.5,68,49,40
418.5,418.8,74,49,40
418.8,419.1,68,49,40
419.1,419.4,69,49,40
419.4,419.7,74,49,40
419.7,420.0,70,49,40
420.0,420.3,71,49,40
420.3,420.6,74,49,40
420.6,420.9,70,49,40
420.9,421.2,71,49,40
421.2,421.5,74,49,40
421.5,421.8,68,49,40
421.8,422.4,69,49,40
422.4,422.7,61,49,40
422.7,423.0,62,49,40
426.0,426.3,61,49,40
426.3,426.6,62,49,40
426.6,426.9,65,49,40
426.9,427.2,61,49,40
427.2,427.5,62,49,40
427.5,427.8,70,49,40
427.8,428.1,66,49,40
428.1,428.4,67,49,40
428.4,428.7,76,49,40
428.7,429.0,74,49,40
429.0,429.3,73,49,40
429.3,429.6,74,49,40
429.6,430.5,81,49,40
430.5,430.8,80,49,40
430.8,431.1,74,49,40
431.1,431.4,73,49,40
431.4,432.3,79,49,40
432.3,432.6,78,49,40
432.6,432.9,72,49,40
432.9,433.2,71,49,40
433.2,434.1,77,49,40
434.1,434.4,76,49,40
434.4,434.7,70,49,40
434.7,435.0,69,49,40
435.0,435.9,75,49,40
435.9,436.2,74,49,40
436.2,436.5,77,49,40
436.5,436.8,77,49,40
436.8,436.95,72,49,40
436.95,437.1,74,49,40
437.1,437.7,75,49,40
437.7,438.0,74,49,40
438.0,438.6,77,49,40
438.6,438.75,72,49,40
438.75,438.9,74,49,40
438.9,439.5,75,49,40
439.5,439.8,74,49,40
439.8,440.4,79,49,40
440.4,440.55,78,49,40
440.55,440.7,79,49,40
440.7,441.3,81,49,40
441.3,441.6,74,49,40
441.6,442.2,79,49,40
442.2,442.35,78,49,40
442.35,442.5,79,49,40
442.5,443.1,81,49,40
443.1,443.4,74,49,40
443.4,444.0,79,49,40
444.0,444.15,77,49,40
444.15,444.3,79,49,40
444.3,444.9,75,49,40
444.9,445.05,74,49,40
445.05,445.2,75,49,40
445.2,445.8,70,49,40
445.8,446.1,69,49,40
446.1,446.4,61,49,40
446.4,446.7,62,49,40
446.7,447.0,65,49,40
446.7,447.0,57,49,40
447.0,447.3,65,49,40
447.0,447.3,69,49,40
447.6,447.9,64,49,40
447.6,447.9,57,49,40
447.9,448.2,65,49,40
447.9,448.2,69,49,40
448.5,448.8,65,49,40
448.5,448.8,57,49,40
448.8,449.1,65,49,40
448.8,449.1,69,49,40
449.4,449.7,67,49,40
449.4,449.7,60,49,40
449.7,450.0,67,49,40
449.7,450.0,72,49,40
450.3,450.6,69,49,40
450.3,450.6,60,49,40
450.6,450.9,69,49,40
450.6,450.9,72,49,40
451.2,451.5,67,49,40
451.2,451.5,60,49,40
451.5,451.8,67,49,40
451.5,451.8,72,49,40
452.1,452.4,69,49,40
452.1,452.4,60,49,40
452.4,452.7,69,49,40
452.4,452.7,72,49,40
453.0,453.3,71,49,40
453.0,453.3,64,49,40
453.3,453.6,71,49,40
453.6,453.9,69,49,40
453.9,454.2,67,49,40
454.2,454.5,65,49,40
454.2,454.5,70,49,40
454.5,454.8,69,49,40
454.8,455.1,67,49,40
455.1,455.4,65,49,40
455.4,455.7,63,49,40
455.7,456.0,62,49,40
456.0,456.3,58,49,40
456.3,456.9,57,49,40
456.9,457.2,57,49,40
457.2,457.8,79,49,40
457.8,458.1,77,49,40
458.1,458.4,75,49,40
458.4,458.7,74,49,40
458.7,459.0,77,49,40
459.0,459.3,75,49,40
459.3,459.6,70,49,40
459.6,459.9,67,49,40
459.9,460.35,65,49,40
460.35,460.5,67,49,40
460.5,460.8,64,49,40
460.8,461.4,62,49,40
462.6,463.2,62,49,40
464.4,464.55,62,49,40
464.55,464.7,64,49,40
464.7,464.85,62,49,40
464.85,465.0,64,49,40
465.0,465.15,65,49,40
465.15,465.3,67,49,40
465.3,465.45,65,49,40
465.45,465.6,67,49,40
465.6,465.75,69,49,40
465.75,465.9,73,49,40
465.9,466.05,69,49,40
466.05,466.2,73,49,40
466.2,467.1,74,49,40
467.1,467.4,62,49,40
250.2,250.5,81,49,45
250.2,250.5,72,49,45
250.2,250.5,64,49,45
250.2,250.5,57,49,45
268.8,269.1,58,101,45
268.8,269.1,65,101,45
268.8,269.1,74,101,45
269.1,269.4,62,101,45
269.1,269.4,58,101,45
270.6,270.9,58,101,45
270.6,270.9,67,101,45
270.6,270.9,75,101,45
270.9,271.2,67,101,45
270.9,271.2,58,101,45
272.4,272.7,58,101,45
272.4,272.7,65,101,45
272.4,272.7,74,101,45
272.7,273.0,62,101,45
272.7,273.0,58,101,45
274.2,274.5,58,101,45
274.2,274.5,67,101,45
274.2,274.5,75,101,45
274.5,274.8,67,101,45
274.5,274.8,58,101,45
276.0,276.3,58,101,45
276.0,276.3,65,101,45
276.0,276.3,74,101,45
276.3,276.6,62,101,45
276.3,276.6,58,101,45
277.8,278.1,57,101,45
277.8,278.1,65,101,45
277.8,278.1,74,101,45
278.1,278.4,62,101,45
278.1,278.4,57,101,45
279.6,279.9,60,101,45
279.6,279.9,65,101,45
279.6,279.9,69,101,45
279.6,279.9,77,101,45
279.9,280.2,69,101,45
279.9,280.2,65,101,45
279.9,280.2,60,101,45
281.4,281.7,60,101,45
281.4,281.7,65,101,45
281.4,281.7,69,101,45
281.4,281.7,77,101,45
281.7,282.0,69,101,45
281.7,282.0,65,101,45
281.7,282.0,60,101,45
282.6,282.9,84,88,45
282.6,282.9,69,88,45
282.6,282.9,66,88,45
283.5,283.8,82,49,45
284.4,284.7,84,88,45
284.4,284.7,69,88,45
284.4,284.7,66,88,45
285.3,285.6,82,49,45
286.2,286.5,81,88,45
286.2,286.5,70,88,45
287.1,287.4,79,49,45
287.1,287.4,71,49,45
288.0,288.3,81,88,45
288.0,288.3,71,88,45
288.9,289.2,79,49,45
288.9,289.2,71,49,45
290.4,290.7,71,49,45
290.4,290.7,78,49,45
291.3,291.6,71,49,45
291.3,291.6,77,49,45
292.2,292.5,71,49,45
292.2,292.5,76,49,45
293.1,293.4,72,49,45
293.1,293.4,75,49,45
294.0,294.3,65,49,45
294.0,294.3,74,49,45
294.9,295.2,72,49,45
294.9,295.2,79,49,45
295.8,296.1,74,49,45
295.8,296.1,77,49,45
3.0,3.15,50,64,41
3.15,3.3,52,64,41
3.3,3.45,50,64,41
3.45,3.6,52,64,41
3.6,3.9,53,64,41
3.9,4.2,49,64,41
4.2,4.5,50,64,41
4.5,4.8,58,64,41
4.8,5.1,54,64,41
5.1,5.4,55,64,41
5.4,5.7,64,64,41
5.7,6.0,62,64,41
6.0,6.3,61,64,41
6.3,6.6,62,64,41
6.6,7.5,69,64,41
7.5,7.8,68,64,41
7.8,8.1,62,64,41
8.1,8.4,61,64,41
8.4,9.3,67,64,41
9.3,9.6,66,64,41
9.6,9.9,60,64,41
9.9,10.2,59,64,41
10.2,11.1,65,64,41
11.1,11.4,64,64,41
11.4,12.0,72,64,41
12.0,12.15,71,64,41
12.15,12.3,72,64,41
12.3,12.9,74,64,41
12.9,13.8,72,64,41
13.8,13.95,71,64,41
13.95,14.1,72,64,41
14.1,14.7,74,64,41
14.7,15.3,72,64,41
15.3,15.6,71,64,41
15.6,15.75,76,64,41
15.75,15.9,78,64,41
15.9,16.5,80,64,41
16.5,17.4,76,64,41
17.4,17.55,76,64,41
17.55,17.7,78,64,41
17.7,18.3,80,64,41
18.3,18.6,76,64,41
18.6,19.2,76,64,41
19.2,19.5,76,64,41
19.5,20.1,72,64,41
20.1,20.4,72,64,41
20.4,21.0,71,64,41
21.0,21.3,64,64,41
21.3,21.6,65,64,41
21.6,22.5,64,64,41
22.5,22.8,57,64,41
22.8,22.95,60,64,41
22.95,23.1,62,64,41
23.1,23.25,60,64,41
23.25,23.4,62,64,41
23.4,24.3,64,64,41
24.3,24.6,57,64,41
24.6,24.75,55,64,41
24.75,24.9,57,64,41
24.9,25.05,55,64,41
25.05,25.2,57,64,41
25.2,26.1,58,64,41
26.1,26.4,57,64,41
26.4,26.55,55,64,41
26.55,26.7,57,64,41
26.7,26.85,55,64,41
26.85,27.0,57,64,41
27.0,27.9,58,64,41
27.9,28.2,57,64,41
28.2,28.35,50,64,41
28.35,28.5,52,64,41
28.5,28.65,50,64,41
28.65,28.8,52,64,41
28.8,29.1,53,64,41
29.1,29.4,49,64,41
29.4,29.7,50,64,41
29.7,30.0,58,64,41
30.0,30.3,54,64,41
30.3,30.6,55,64,41
30.6,30.9,64,64,41
30.9,31.2,62,64,41
31.2,31.5,61,64,41
31.5,31.8,62,64,41
31.8,32.7,69,64,41
32.7,33.0,68,64,41
33.0,33.3,62,64,41
33.3,33.6,61,64,41
33.6,34.5,67,64,41
34.5,34.8,66,64,41
34.8,35.1,60,64,41
35.1,35.4,59,64,41
35.4,36.3,65,64,41
36.3,36.6,64,64,41
36.6,37.2,72,64,41
37.2,37.35,71,64,41
37.35,37.5,72,64,41
37.5,38.1,74,64,41
38.1,39.0,72,64,41
39.0,39.15,71,64,41
39.15,39.3,72,64,41
39.3,39.9,74,64,41
39.9,40.5,72,64,41
40.5,40.8,71,64,41
40.8,40.95,76,64,41
40.95,41.1,78,64,41
41.1,41.7,80,64,41
41.7,42.6,76,64,41
42.6,42.75,76,64,41
42.75,42.9,78,64,41
42.9,43.5,80,64,41
43.5,43.8,76,64,41
43.8,44.4,76,64,41
44.4,44.7,76,64,41
44.7,45.3,72,64,41
45.3,45.6,72,64,41
45.6,46.2,71,64,41
46.2,46.5,64,64,41
46.5,46.8,65,64,41
46.8,47.7,64,64,41
47.7,48.0,57,64,41
48.0,48.15,60,64,41
48.15,48.3,62,64,41
48.3,48.45,60,64,41
48.45,48.6,62,64,41
48.6,49.5,64,64,41
49.5,49.8,57,64,41
49.8,49.95,55,64,41
49.95,50.1,57,64,41
50.1,50.25,55,64,41
50.25,50.4,57,64,41
50.4,51.3,58,64,41
51.3,51.6,57,64,41
51.6,51.75,55,64,41
51.75,51.9,57,64,41
51.9,52.05,55,64,41
52.05,52.2,57,64,41
52.2,53.1,58,64,41
53.1,53.4,57,64,41
53.4,53.55,55,64,41
53.55,53.7,57,64,41
53.7,53.85,55,64,41
53.85,54.0,57,64,41
54.0,54.3,58,64,41
54.3,54.6,54,64,41
54.6,54.9,55,64,41
54.9,55.2,64,64,41
55.2,55.5,59,64,41
55.5,55.8,61,64,41
55.8,56.1,69,64,41
56.1,56.4,67,64,41
56.4,56.7,66,64,41
56.7,57.0,67,64,41
57.0,58.2,76,64,41
58.2,58.5,66,64,41
58.5,58.8,67,64,41
58.8,60.0,76,64,41
60.0,60.3,65,64,41
60.3,60.6,66,64,41
60.6,61.8,75,64,41
61.8,62.1,65,64,41
62.1,62.4,66,64,41
62.4,63.6,75,64,41
63.6,63.9,65,64,41
63.9,64.2,66,64,41
64.2,65.4,75,64,41
65.4,65.7,66,64,41
65.7,66.0,75,64,41
66.0,66.3,66,64,41
66.3,66.6,75,64,41
66.6,66.9,66,64,41
66.9,67.2,75,64,41
67.2,67.5,66,64,41
67.5,67.8,75,64,41
67.8,68.1,73,64,41
68.1,68.4,75,64,41
68.4,68.7,73,64,41
68.7,69.0,71,64,41
69.0,69.3,73,64,41
69.3,69.6,71,64,41
69.6,69.9,69,64,41
69.9,70.2,71,64,41
70.2,70.5,59,64,41
70.5,70.8,52,64,41
70.8,71.1,59,64,41
71.1,71.4,51,64,41
71.4,71.7,59,64,41
71.7,72.0,51,64,41
72.0,72.3,59,64,41
72.3,72.6,52,64,41
72.6,72.9,59,64,41
72.9,73.2,51,64,41
73.2,73.5,59,64,41
73.5,73.8,51,64,41
73.8,74.1,59,64,41
74.1,74.4,52,64,41
74.4,74.7,59,64,41
74.7,75.0,51,64,41
75.0,75.3,59,64,41
75.3,75.6,51,64,41
75.6,75.9,59,64,41
75.9,76.2,52,64,41
76.2,76.5,59,64,41
76.5,76.8,52,64,41
76.8,77.4,62,64,41
77.4,77.52,60,64,41
77.7,77.82,57,64,41
78.0,78.12,64,64,41
78.6,78.72,59,64,41
78.9,79.02,64,64,41
79.5,79.62,57,64,41
79.8,79.92,64,64,41
80.4,80.52,62,64,41
80.7,80.82,67,64,41
81.3,81.42,60,64,41
81.6,81.72,67,64,41
82.2,82.32,62,64,41
82.5,82.62,67,64,41
83.1,83.22,60,64,41
83.4,83.52,67,64,41
84.0,84.12,66,64,41
84.3,85.2,71,64,41
85.2,85.5,69,64,41
85.5,85.8,58,64,41
85.8,86.1,57,64,41
86.1,86.4,54,64,41
86.4,87.0,53,64,41
87.0,87.3,53,64,41
87.3,87.6,57,64,41
87.6,87.9,64,64,41
87.9,88.2,62,64,41
88.2,88.5,60,64,41
88.5,88.62,52,64,41
88.8,88.92,60,64,41
89.4,89.52,52,64,41
89.7,89.82,59,64,41
90.3,90.42,52,64,41
90.6,90.72,60,64,41
91.2,91.32,55,64,41
91.5,91.62,62,64,41
92.1,92.22,55,64,41
92.4,92.52,64,64,41
93.0,93.12,55,64,41
93.3,93.42,62,64,41
93.9,94.02,55,64,41
94.2,94.32,64,64,41
94.8,94.92,59,64,41
95.1,95.22,66,64,41
95.4,95.7,64,64,41
95.7,96.0,62,64,41
96.0,96.3,60,64,41
96.3,96.6,58,64,41
96.6,96.9,57,64,41
97.1625,97.2,53,64,41
96.9,97.2,54,64,41
97.2,97.5,62,36,41
97.5,97.8,60,36,41
97.8,98.1,58,36,41
98.1,98.4,60,36,41
98.4,98.7,58,36,41
98.7,99.0,57,36,41
99.0,99.3,62,36,41
99.3,99.6,60,36,41
99.6,99.9,58,36,41
99.9,100.2,60,36,41
100.2,100.5,58,36,41
100.5,100.8,57,36,41
100.8,101.1,62,36,41
101.1,101.4,60,36,41
101.4,101.7,58,36,41
101.7,102.0,63,36,41
102.0,102.3,62,36,41
102.3,102.6,60,36,41
102.6,102.9,65,36,41
102.9,103.2,63,36,41
103.2,103.5,62,36,41
103.5,103.8,63,36,41
103.8,104.1,62,36,41
104.1,104.4,60,36,41
104.4,104.7,65,36,41
104.7,105.0,63,36,41
105.0,105.3,62,36,41
105.3,105.6,65,36,41
105.6,105.9,63,36,41
105.9,106.2,62,36,41
106.2,106.8,68,36,41
106.2,106.8,59,36,41
106.8,107.1,68,36,41
107.1,107.4,69,88,41
107.4,107.7,68,88,41
107.7,108.0,66,88,41
108.0,108.3,68,88,41
108.6,108.9,64,88,41
108.9,109.2,58,88,41
109.2,109.5,59,88,41
110.4,110.7,65,88,41
110.7,111.0,58,88,41
111.0,111.3,59,88,41
112.2,112.5,66,88,41
112.5,112.8,60,88,41
112.8,113.1,61,88,41
117.0,119.7,52,88,41
119.7,120.6,53,88,41
120.6,121.2,54,88,41
122.1,122.7,62,36,41
122.7,123.0,56,36,41
123.0,123.6,57,36,41
123.6,123.9,49,36,41
123.9,124.5,50,36,41
124.5,124.8,49,36,41
124.8,125.4,50,36,41
125.4,125.7,49,36,41
125.7,126.0,50,36,41
126.0,126.3,53,36,41
126.3,126.6,49,36,41
126.6,126.9,50,36,41
126.9,127.2,58,36,41
127.2,127.5,54,36,41
127.5,127.8,55,36,41
127.8,128.1,64,36,41
128.1,128.4,62,36,41
128.4,128.7,61,36,41
128.7,129.0,62,36,41
129.0,129.6,72,36,41
129.6,129.9,69,36,41
129.9,130.2,68,36,41
130.2,130.5,62,36,41
130.5,130.8,61,36,41
130.8,131.7,67,36,41
131.7,132.0,66,36,41
132.0,132.3,60,36,41
132.3,132.6,59,36,41
132.6,133.5,65,36,41
133.5,133.8,64,36,41
133.8,134.1,58,36,41
134.1,134.4,57,36,41
134.4,135.3,63,36,41
135.3,135.6,62,36,41
135.6,136.2,70,36,41
136.2,136.35,69,36,41
136.35,136.5,70,36,41
136.5,137.1,72,36,41
137.1,137.4,74,36,41
137.4,138.0,70,36,41
138.0,138.15,69,36,41
138.15,138.3,70,36,41
138.3,138.9,72,36,41
138.9,139.2,74,36,41
139.2,139.8,70,36,41
139.8,139.95,69,36,41
139.95,140.1,70,36,41
140.1,140.7,72,36,41
140.7,141.0,74,36,41
141.0,141.6,70,36,41
141.6,141.75,69,36,41
141.75,141.9,70,36,41
141.9,142.5,72,36,41
142.5,142.8,74,36,41
142.8,143.4,70,36,41
143.4,143.7,69,36,41
143.7,144.3,67,36,41
144.3,144.6,65,36,41
144.6,144.9,63,36,41
144.9,145.5,62,36,41
145.5,145.8,57,36,41
145.8,146.1,65,36,41
146.1,146.4,61,36,41
146.4,146.7,62,36,41
146.7,147.6,69,36,41
147.6,147.9,65,36,41
147.9,148.2,61,36,41
148.2,148.5,62,36,41
148.5,149.4,70,36,41
149.4,149.85,69,36,41
149.85,150.0,67,36,41
150.0,150.3,65,36,41
150.3,151.2,70,36,41
151.2,151.65,69,36,41
151.65,151.8,67,36,41
151.8,152.1,65,36,41
152.1,153.0,74,36,41
153.0,153.3,74,36,41
153.3,153.6,73,36,41
153.6,153.9,74,36,41
153.9,154.2,72,36,41
154.2,154.5,70,36,41
154.5,154.8,68,36,41
154.8,155.1,67,36,41
155.1,155.4,65,36,41
155.4,156.0,63,36,41
156.0,156.3,62,36,41
156.3,156.6,61,36,41
156.9,157.2,73,36,41
157.2,157.5,74,36,41
157.5,157.8,72,36,41
157.8,158.1,70,36,41
158.1,158.4,68,36,41
158.4,158.7,67,36,41
158.7,159.0,65,36,41
159.0,159.3,63,36,41
159.3,159.75,62,36,41
159.75,159.9,64,36,41
159.9,160.2,61,36,41
160.2,161.1,62,49,41
161.1,161.4,50,49,41
161.4,161.55,53,49,41
161.55,161.7,55,49,41
161.7,161.85,53,49,41
161.85,162.0,55,49,41
162.0,162.9,57,49,41
162.9,163.2,50,49,41
163.2,163.35,53,49,41
163.35,163.5,55,49,41
163.5,163.65,53,49,41
163.65,163.8,55,49,41
163.8,164.7,57,49,41
164.7,165.0,50,49,41
170.7,171.6,53,88,41
171.6,172.5,58,88,41
172.5,172.8,65,88,41
172.8,173.1,67,88,41
173.1,173.4,65,88,41
173.4,173.7,63,88,41
173.7,174.0,62,88,41
174.0,174.3,63,88,41
174.3,174.6,60,88,41
174.6,175.2,62,88,41
175.2,176.1,62,88,41
176.1,176.4,70,88,41
176.4,176.7,70,88,41
176.7,177.0,69,88,41
177.0,177.3,67,88,41
177.3,177.6,67,88,41
177.6,177.9,65,88,41
177.9,178.2,63,88,41
178.2,178.8,65,88,41
178.8,179.7,65,88,41
179.7,180.0,67,88,41
180.0,180.6,69,88,41
180.6,181.5,74,88,41
181.5,181.8,77,88,41
181.8,182.4,69,88,41
182.4,183.3,69,88,41
183.3,183.6,71,88,41
183.6,184.2,72,88,41
184.2,185.4,69,88,41
184.2,185.4,77,88,41
185.4,185.7,78,88,41
185.4,185.7,69,88,41
186.3,186.6,67,49,41
186.3,186.6,55,49,41
187.2,187.5,66,88,41
187.2,187.5,57,88,41
188.1,188.4,67,49,41
188.1,188.4,55,49,41
189.0,189.3,70,88,41
189.0,189.3,61,88,41
189.9,190.2,71,49,41
189.9,190.2,62,49,41
190.8,191.1,70,88,41
190.8,191.1,61,88,41
191.7,192.0,71,49,41
191.7,192.0,62,49,41
192.6,198.0,62,49,41
192.6,198.0,71,49,41
198.0,198.9,62,49,41
198.0,198.9,71,49,41
198.9,199.8,64,49,41
198.9,199.8,73,49,41
199.8,200.7,65,88,41
199.8,200.7,74,88,41
200.7,201.0,62,88,41
201.6,202.5,62,88,41
202.5,203.4,50,88,41
203.4,204.3,58,88,41
203.4,204.3,62,88,41
204.3,205.2,50,88,41
205.2,206.1,51,88,41
205.2,206.1,60,88,41
206.1,207.0,53,88,41
207.0,207.9,58,88,41
207.0,207.9,62,88,41
207.9,208.8,50,88,41
208.8,209.7,58,88,41
208.8,209.7,63,88,41
209.7,210.6,51,49,41
210.6,211.2,50,49,41
211.2,212.1,53,49,41
212.1,212.4,55,49,41
212.4,213.0,57,49,41
213.0,213.9,62,49,41
213.9,214.2,65,49,41
214.2,214.8,57,49,41
214.8,215.7,57,49,41
215.7,216.0,59,49,41
216.0,216.6,60,49,41
216.6,217.8,69,49,41
216.6,217.8,77,49,41
217.8,218.4,78,49,41
217.8,218.4,69,49,41
218.4,219.3,67,49,41
218.4,219.3,79,49,41
219.3,219.6,67,49,41
219.3,219.6,79,49,41
219.6,220.2,78,49,41
219.6,220.2,69,49,41
220.2,221.1,67,49,41
220.2,221.1,79,49,41
221.1,221.4,67,49,41
221.4,222.0,70,49,41
221.4,222.0,61,49,41
222.0,222.9,62,49,41
222.0,222.9,71,49,41
222.9,223.2,62,49,41
222.9,223.2,71,49,41
223.2,223.8,70,49,41
223.2,223.8,61,49,41
223.8,224.7,62,49,41
223.8,224.7,71,49,41
224.7,225.0,71,49,41
225.0,227.7,59,36,41
225.0,227.7,62,36,41
227.7,228.6,60,36,41
228.6,229.5,65,36,41
229.5,230.4,68,36,41
230.4,231.3,65,36,41
230.4,231.3,69,36,41
231.3,232.2,67,36,41
231.3,232.2,70,36,41
232.2,233.1,60,36,41
232.2,233.1,69,36,41
233.1,233.4,65,36,41
234.0,234.9,65,49,41
234.9,235.8,53,49,41
235.8,236.7,65,49,41
236.7,237.6,53,49,41
237.6,238.5,63,49,41
238.5,239.4,54,49,41
239.4,240.3,65,49,41
240.3,241.2,53,49,41
241.2,242.1,66,49,41
242.1,243.0,54,49,41
243.0,243.9,65,49,41
243.9,244.8,53,49,41
244.8,245.7,65,49,41
245.7,246.6,53,49,41
246.6,247.5,64,49,41
247.5,248.4,52,49,41
248.4,249.3,64,49,41
249.9,250.2,49,62,41
250.2,250.8,49,62,41
250.8,251.7,49,62,41
251.7,252.0,52,62,41
252.0,252.3,54,62,41
252.3,252.6,52,62,41
252.6,252.9,50,62,41
252.9,253.2,49,62,41
253.2,253.5,50,62,41
253.5,253.8,50,62,41
253.8,254.4,49,62,41
254.4,255.3,49,62,41
255.3,255.6,57,62,41
255.6,255.9,62,62,41
255.9,256.2,61,62,41
256.2,256.5,59,62,41
256.5,256.8,59,62,41
256.8,257.1,57,62,41
257.1,257.4,56,62,41
257.4,259.2,57,62,41
259.2,261.0,57,62,41
261.0,262.8,57,62,41
261.0,262.8,69,62,41
262.8,264.6,59,62,41
262.8,264.6,69,62,41
264.6,265.5,60,101,41
264.6,265.5,69,101,41
265.5,266.1,48,101,41
266.1,266.4,51,101,41
266.4,266.7,57,101,41
266.7,267.0,60,101,41
267.0,267.3,63,101,41
267.3,267.6,69,101,41
267.6,267.9,72,101,41
267.9,268.2,75,101,41
296.7,297.0,60,49,41
296.7,297.0,65,49,41
297.0,297.9,62,88,41
297.0,297.9,65,88,41
297.9,298.2,58,88,41
300.6,301.5,62,49,41
301.5,302.4,65,49,41
302.4,303.3,67,49,41
303.3,304.2,63,49,41
304.2,305.1,62,49,41
305.1,306.0,65,49,41
306.0,306.9,63,49,41
306.9,307.8,57,49,41
307.8,308.7,58,49,41
308.7,309.6,56,49,41
309.6,310.5,55,49,41
310.5,311.4,54,49,41
311.4,312.3,53,49,41
312.3,313.2,56,49,41
313.2,314.1,55,49,41
314.1,315.0,54,49,41
315.0,315.9,53,49,41
315.9,316.8,56,49,41
316.8,317.7,55,49,41
317.7,318.6,54,49,41
318.6,319.5,53,49,41
319.5,320.4,56,49,41
320.4,321.3,55,49,41
321.3,322.2,54,49,41
322.2,323.1,53,23,41
324.0,324.9,53,23,41
325.8,326.7,53,23,41
328.8,328.95,50,23,41
328.95,329.1,52,23,41
329.1,329.25,50,23,41
329.25,329.4,52,23,41
329.4,329.7,53,23,41
329.7,330.0,49,23,41
330.0,330.3,50,23,41
330.3,330.6,58,23,41
330.6,330.9,54,23,41
330.9,331.2,55,23,41
331.2,331.5,64,23,41
331.5,331.8,62,23,41
331.8,332.1,61,23,41
332.1,332.4,62,23,41
332.4,333.3,69,23,41
333.3,333.6,68,23,41
333.6,333.9,62,23,41
333.9,334.2,61,23,41
334.2,335.1,67,23,41
335.1,335.4,66,23,41
335.4,335.7,60,23,41
335.7,336.0,59,23,41
336.0,336.9,65,23,41
336.9,337.2,64,23,41
337.2,337.8,72,23,41
337.8,337.95,71,23,41
337.95,338.1,72,23,41
338.1,338.7,74,23,41
338.7,339.6,72,23,41
339.6,339.75,71,23,41
339.75,339.9,72,23,41
339.9,340.5,74,23,41
340.5,341.1,72,23,41
341.1,341.4,71,23,41
341.4,341.55,76,23,41
341.55,341.7,78,23,41
341.7,342.3,80,23,41
342.3,343.2,76,23,41
343.2,343.35,76,23,41
343.35,343.5,78,23,41
343.5,344.1,80,23,41
344.1,344.4,76,23,41
344.4,345.0,76,23,41
345.0,345.3,76,23,41
345.3,345.9,72,23,41
345.9,346.2,72,23,41
346.2,346.8,71,23,41
346.8,347.1,64,23,41
347.1,347.4,65,23,41
347.4,348.3,64,23,41
348.3,348.6,57,23,41
348.6,348.75,60,23,41
348.75,348.9,62,23,41
348.9,349.05,60,23,41
349.05,349.2,62,23,41
349.2,350.1,64,23,41
350.1,350.4,57,23,41
350.4,350.55,55,23,41
350.55,350.7,57,23,41
350.7,350.85,55,23,41
350.85,351.0,57,23,41
351.0,351.9,58,23,41
351.9,352.2,57,23,41
352.2,352.35,55,23,41
352.35,352.5,57,23,41
352.5,352.65,55,23,41
352.65,352.8,57,23,41
352.8,353.7,58,23,41
353.7,354.0,57,23,41
354.0,354.15,55,23,41
354.15,354.3,57,23,41
354.3,354.45,55,23,41
354.45,354.6,57,23,41
354.6,354.9,58,23,41
354.9,355.2,54,23,41
355.2,355.5,55,23,41
355.5,355.8,64,23,41
355.8,356.1,59,23,41
356.1,356.4,61,23,41
356.4,356.7,69,23,41
356.7,357.0,67,23,41
357.0,357.3,66,23,41
357.3,357.6,67,23,41
357.6,358.8,76,23,41
358.8,359.1,66,23,41
359.1,359.4,67,23,41
359.4,360.6,76,23,41
360.6,360.9,65,23,41
360.9,361.2,66,23,41
361.2,362.4,75,23,41
362.4,362.7,65,23,41
362.7,363.0,66,23,41
363.0,364.2,75,23,41
364.2,364.5,65,23,41
364.5,364.8,66,23,41
364.8,366.0,75,23,41
366.0,366.3,66,23,41
366.3,366.6,75,23,41
366.6,366.9,66,23,41
366.9,367.2,75,23,41
367.2,367.5,66,23,41
367.5,367.8,75,23,41
367.8,368.1,66,23,41
368.1,368.4,75,23,41
368.4,368.7,73,23,41
368.7,369.0,75,23,41
369.0,369.3,73,23,41
369.3,369.6,71,23,41
369.6,369.9,73,23,41
369.9,370.2,71,23,41
370.2,370.5,69,23,41
370.5,370.8,71,23,41
370.8,371.1,59,23,41
371.1,371.4,52,23,41
371.4,371.7,59,23,41
371.7,372.0,51,23,41
372.0,372.3,59,23,41
372.3,372.6,51,23,41
372.6,372.9,59,23,41
372.9,373.2,52,23,41
373.2,373.5,59,23,41
373.5,373.8,51,23,41
373.8,374.1,59,23,41
374.1,374.4,51,23,41
374.4,374.7,59,23,41
374.7,375.0,52,23,41
375.0,375.3,59,23,41
375.3,375.6,51,23,41
375.6,375.9,59,23,41
375.9,376.2,51,23,41
376.2,376.5,59,23,41
376.5,376.8,52,23,41
376.8,377.1,59,23,41
377.1,377.4,52,23,41
377.4,378.0,62,23,41
378.0,378.12,60,23,41
378.3,378.42,57,23,41
378.6,378.72,64,23,41
379.2,379.32,59,23,41
379.5,379.62,64,23,41
380.1,380.22,57,23,41
380.4,380.52,64,23,41
381.0,381.12,62,23,41
381.3,381.42,67,23,41
381.9,382.02,60,23,41
382.2,382.32,67,23,41
382.8,382.92,62,23,41
383.1,383.22,67,23,41
383.7,383.82,60,23,41
384.0,384.12,67,23,41
384.6,384.72,66,23,41
384.9,385.8,71,23,41
385.8,386.1,69,23,41
386.1,386.4,58,23,41
386.4,386.7,57,23,41
386.7,387.0,54,23,41
387.0,387.6,53,23,41
387.6,387.9,53,23,41
387.9,388.2,57,23,41
388.2,388.5,64,23,41
388.5,388.8,62,23,41
388.8,389.1,60,23,41
389.1,389.22,52,23,41
389.4,389.52,60,23,41
390.0,390.12,52,23,41
390.3,390.42,59,23,41
390.9,391.02,52,23,41
391.2,391.32,60,23,41
391.8,391.92,55,23,41
392.1,392.22,62,23,41
392.7,392.82,55,23,41
393.0,393.12,64,23,41
393.6,393.72,55,23,41
393.9,394.02,62,23,41
394.5,394.62,55,23,41
394.8,394.92,64,23,41
395.4,395.52,59,23,41
395.7,395.82,66,23,41
396.0,396.3,64,23,41
396.3,396.6,62,23,41
396.6,396.9,60,23,41
396.9,397.2,58,23,41
397.2,397.5,57,23,41
397.7625,397.8,53,23,41
397.5,397.8,54,23,41
397.8,398.1,62,23,41
398.1,398.4,60,23,41
398.4,398.7,58,23,41
398.7,399.0,60,23,41
399.0,399.3,58,23,41
399.3,399.6,57,23,41
399.6,399.9,62,23,41
399.9,400.2,60,23,41
400.2,400.5,58,23,41
400.5,400.8,60,23,41
400.8,401.1,58,23,41
401.1,401.4,57,23,41
401.4,401.7,62,23,41
401.7,402.0,60,23,41
402.0,402.3,58,23,41
402.3,402.6,63,23,41
402.6,402.9,62,23,41
402.9,403.2,60,23,41
403.2,403.5,65,23,41
403.5,403.8,63,23,41
403.8,404.1,62,23,41
404.1,404.4,63,23,41
404.4,404.7,62,23,41
404.7,405.0,60,23,41
405.0,405.3,65,23,41
405.3,405.6,63,23,41
405.6,405.9,62,23,41
405.9,406.2,65,23,41
406.2,406.5,63,23,41
406.5,406.8,62,23,41
406.8,407.4,68,23,41
406.8,407.4,59,23,41
407.4,407.7,68,23,41
407.7,408.0,69,23,41
408.0,408.3,68,23,41
408.3,408.6,66,23,41
408.6,408.9,68,23,41
409.2,409.5,64,23,41
409.5,409.8,58,23,41
409.8,410.1,59,23,41
411.0,411.3,65,23,41
411.3,411.6,58,23,41
411.6,411.9,59,23,41
412.8,413.1,66,23,41
413.1,413.4,60,23,41
413.4,413.7,61,23,41
417.6,420.3,52,23,41
420.3,421.2,53,23,41
421.2,421.8,54,23,41
422.7,423.3,62,36,41
423.3,423.6,56,36,41
423.6,424.2,57,36,41
424.2,424.5,49,36,41
424.5,425.1,50,36,41
425.1,425.4,49,36,41
425.4,426.0,50,36,41
426.0,426.3,49,36,41
426.3,426.6,50,36,41
426.6,426.9,53,36,41
426.9,427.2,49,36,41
427.2,427.5,50,36,41
427.5,427.8,58,36,41
427.8,428.1,54,36,41
428.1,428.4,55,36,41
428.4,428.7,64,36,41
428.7,429.0,62,36,41
429.0,429.3,61,36,41
429.3,429.6,62,36,41
429.6,430.2,72,36,41
430.2,430.5,69,36,41
430.5,430.8,68,36,41
430.8,431.1,62,36,41
431.1,431.4,61,36,41
431.4,432.3,67,36,41
432.3,432.6,66,36,41
432.6,432.9,60,36,41
432.9,433.2,59,36,41
433.2,434.1,65,36,41
434.1,434.4,64,36,41
434.4,434.7,58,36,41
434.7,435.0,57,36,41
435.0,435.9,63,36,41
435.9,436.2,62,36,41
436.2,436.8,70,36,41
436.8,436.95,69,36,41
436.95,437.1,70,36,41
437.1,437.7,72,36,41
437.7,438.0,74,36,41
438.0,438.6,70,36,41
438.6,438.75,69,36,41
438.75,438.9,70,36,41
438.9,439.5,72,36,41
439.5,439.8,74,36,41
439.8,440.4,70,36,41
440.4,440.55,69,36,41
440.55,440.7,70,36,41
440.7,441.3,72,36,41
441.3,441.6,74,36,41
441.6,442.2,70,36,41
442.2,442.35,69,36,41
442.35,442.5,70,36,41
442.5,443.1,72,36,41
443.1,443.4,74,36,41
443.4,444.0,70,36,41
444.0,444.3,69,36,41
444.3,444.9,67,36,41
444.9,445.2,65,36,41
445.2,445.5,63,36,41
445.5,446.1,62,36,41
446.1,446.4,57,36,41
446.4,446.7,65,36,41
446.7,447.0,61,36,41
447.0,447.3,62,36,41
447.3,448.2,69,36,41
448.2,448.5,65,36,41
448.5,448.8,61,36,41
448.8,449.1,62,36,41
449.1,450.0,70,36,41
450.0,450.45,69,36,41
450.45,450.6,67,36,41
450.6,450.9,65,36,41
450.9,451.8,70,36,41
451.8,452.25,69,36,41
452.25,452.4,67,36,41
452.4,452.7,65,36,41
452.7,453.6,74,36,41
453.6,453.9,74,36,41
453.9,454.2,73,36,41
454.2,454.5,74,36,41
454.5,454.8,72,36,41
454.8,455.1,70,36,41
455.1,455.4,68,36,41
455.4,455.7,67,36,41
455.7,456.0,65,36,41
456.0,456.6,63,36,41
456.6,456.9,62,36,41
456.9,457.2,61,36,41
457.5,457.8,73,36,41
457.8,458.1,74,36,41
458.1,458.4,72,36,41
458.4,458.7,70,36,41
458.7,459.0,68,36,41
459.0,459.3,67,36,41
459.3,459.6,65,36,41
459.6,459.9,63,36,41
459.9,460.35,62,36,41
460.35,460.5,64,36,41
460.5,460.8,61,36,41
460.8,461.7,62,49,41
461.7,462.0,50,49,41
462.0,462.15,53,49,41
462.15,462.3,55,49,41
462.3,462.45,53,49,41
462.45,462.6,55,49,41
462.6,463.5,57,49,41
463.5,463.8,50,49,41
463.8,463.95,53,49,41
463.95,464.1,55,49,41
464.1,464.25,53,49,41
464.25,464.4,55,49,41
464.4,465.3,57,49,41
465.3,465.6,50,49,41
268.8,269.1,50,101,45
268.8,269.1,58,101,45
268.8,269.1,65,101,45
269.1,269.4,58,101,45
269.1,269.4,50,101,45
270.6,270.9,51,101,45
270.6,270.9,58,101,45
270.6,270.9,67,101,45
270.9,271.2,58,101,45
270.9,271.2,51,101,45
272.4,272.7,50,101,45
272.4,272.7,58,101,45
272.4,272.7,65,101,45
272.7,273.0,58,101,45
272.7,273.0,50,101,45
274.2,274.5,51,101,45
274.2,274.5,58,101,45
274.2,274.5,67,101,45
274.5,274.8,58,101,45
274.5,274.8,51,101,45
276.0,276.3,50,101,45
276.0,276.3,58,101,45
276.0,276.3,65,101,45
276.3,276.6,58,101,45
276.3,276.6,50,101,45
277.8,278.1,50,101,45
277.8,278.1,57,101,45
277.8,278.1,65,101,45
278.1,278.4,57,101,45
278.1,278.4,50,101,45
279.6,279.9,53,101,45
279.6,279.9,60,101,45
279.6,279.9,69,101,45
279.9,280.2,60,101,45
279.9,280.2,53,101,45
281.4,281.7,53,101,45
281.4,281.7,60,101,45
281.4,281.7,69,101,45
281.7,282.0,60,101,45
281.7,282.0,53,101,45
282.6,282.9,66,88,45
282.6,282.9,57,88,45
283.5,283.8,67,49,45
283.5,283.8,58,49,45
284.4,284.7,66,88,45
284.4,284.7,57,88,45
285.3,285.6,67,49,45
285.3,285.6,58,49,45
286.2,286.5,61,88,45
286.2,286.5,55,88,45
287.1,287.4,62,49,45
287.1,287.4,55,49,45
288.0,288.3,61,88,45
288.0,288.3,55,88,45
288.9,289.2,62,49,45
288.9,289.2,55,49,45
290.4,290.7,59,49,45
290.4,290.7,62,49,45
291.3,291.6,59,49,45
291.3,291.6,62,49,45
292.2,292.5,59,49,45
292.2,292.5,62,49,45
293.1,293.4,57,49,45
293.1,293.4,60,49,45
294.0,294.3,53,49,45
294.0,294.3,58,49,45
294.9,295.2,55,49,45
294.9,295.2,60,49,45
295.8,296.1,58,49,45
295.8,296.1,62,49,45
3.0,3.15,38,64,42
3.15,3.3,40,64,42
3.3,3.45,38,64,42
3.45,3.6,40,64,42
3.6,3.9,41,64,42
3.9,4.2,37,64,42
4.2,4.5,38,64,42
4.5,4.8,46,64,42
4.8,5.1,42,64,42
5.1,5.4,43,64,42
5.4,5.7,52,64,42
5.7,6.0,50,64,42
6.0,6.3,49,64,42
6.3,6.9,50,64,42
6.9,7.2,41,64,42
7.2,8.7,40,64,42
8.7,9.0,39,64,42
9.0,10.5,38,64,42
10.5,10.8,37,64,42
10.8,11.4,36,64,42
11.4,11.7,40,64,42
11.7,12.3,43,64,42
12.3,12.6,43,64,42
12.6,13.2,48,64,42
13.2,13.5,52,64,42
13.5,14.1,55,64,42
14.1,14.4,43,64,42
14.4,15.0,48,64,42
15.0,15.3,45,64,42
15.3,15.9,52,64,42
15.9,16.2,40,64,42
16.2,16.8,45,64,42
16.8,17.1,48,64,42
17.1,17.7,52,64,42
17.7,18.0,40,64,42
18.0,18.6,45,64,42
18.6,18.9,48,64,42
18.9,19.5,52,64,42
19.5,19.8,53,64,42
19.8,20.4,55,64,42
20.4,20.7,56,64,42
20.7,21.3,57,64,42
21.3,21.6,50,64,42
21.6,22.5,52,64,42
22.5,22.8,45,64,42
23.4,24.3,52,64,42
24.3,24.6,45,64,42
25.2,26.1,43,64,42
26.1,26.4,45,64,42
27.0,27.9,43,64,42
27.9,28.2,45,64,42
28.2,28.35,38,64,42
28.35,28.5,40,64,42
28.5,28.65,38,64,42
28.65,28.8,40,64,42
28.8,29.1,41,64,42
29.1,29.4,37,64,42
29.4,29.7,38,64,42
29.7,30.0,46,64,42
30.0,30.3,42,64,42
30.3,30.6,43,64,42
30.6,30.9,52,64,42
30.9,31.2,50,64,42
31.2,31.5,49,64,42
31.5,32.1,50,64,42
32.1,32.4,41,64,42
32.4,33.9,40,64,42
33.9,34.2,39,64,42
34.2,35.7,38,64,42
35.7,36.0,37,64,42
36.0,36.6,36,64,42
36.6,36.9,40,64,42
36.9,37.5,43,64,42
37.5,37.8,43,64,42
37.8,38.4,48,64,42
38.4,38.7,52,64,42
38.7,39.3,55,64,42
39.3,39.6,43,64,42
39.6,40.2,48,64,42
40.2,40.5,45,64,42
40.5,41.1,52,64,42
41.1,41.4,40,64,42
41.4,42.0,45,64,42
42.0,42.3,48,64,42
42.3,42.9,52,64,42
42.9,43.2,40,64,42
43.2,43.8,45,64,42
43.8,44.1,48,64,42
44.1,44.7,52,64,42
44.7,45.0,53,64,42
45.0,45.6,55,64,42
45.6,45.9,56,64,42
45.9,46.5,57,64,42
46.5,46.8,50,64,42
46.8,47.7,52,64,42
47.7,48.0,45,64,42
48.6,49.5,52,64,42
49.5,49.8,45,64,42
50.4,51.3,43,64,42
51.3,51.6,45,64,42
52.2,53.1,43,64,42
53.1,53.4,45,64,42
57.3,57.6,48,64,42
57.6,57.9,49,64,42
57.9,59.1,57,64,42
59.1,59.4,48,64,42
59.4,59.7,49,64,42
59.7,60.9,57,64,42
60.9,61.2,47,64,42
61.2,61.5,48,64,42
61.5,62.7,57,64,42
62.7,63.0,47,64,42
63.0,63.3,48,64,42
63.3,64.5,57,64,42
64.5,64.8,46,64,42
64.8,65.1,47,64,42
65.1,66.0,57,64,42
66.0,66.3,47,64,42
66.3,66.6,57,64,42
66.6,66.9,47,64,42
66.9,67.2,57,64,42
67.2,67.5,47,64,42
67.5,67.8,57,64,42
67.8,68.1,47,64,42
68.1,68.4,57,64,42
68.4,68.7,47,64,42
68.7,69.0,57,64,42
69.0,69.3,47,64,42
69.3,69.6,54,64,42
69.6,69.9,47,64,42
69.9,70.2,54,64,42
70.2,70.5,47,64,42
70.5,70.8,56,64,42
70.8,71.1,47,64,42
71.1,71.4,54,64,42
71.4,71.7,47,64,42
71.7,72.0,54,64,42
72.0,72.3,47,64,42
72.3,72.6,56,64,42
72.6,72.9,47,64,42
72.9,73.2,54,64,42
73.2,73.5,47,64,42
73.5,73.8,54,64,42
73.8,74.1,47,64,42
74.1,74.4,56,64,42
74.4,74.7,47,64,42
74.7,75.0,54,64,42
75.0,75.3,47,64,42
75.3,75.6,54,64,42
75.6,75.9,47,64,42
75.9,76.2,56,64,42
76.2,76.5,47,64,42
76.5,76.8,52,64,42
76.8,77.1,40,64,42
77.1,77.4,52,64,42
77.4,77.52,45,64,42
77.7,77.82,52,64,42
78.0,78.12,60,64,42
78.3,78.42,40,64,42
78.6,78.72,52,64,42
78.9,79.02,59,64,42
79.2,79.32,45,64,42
79.5,79.62,52,64,42
79.8,79.92,60,64,42
80.1,80.22,43,64,42
80.4,80.52,55,64,42
80.7,80.82,62,64,42
81.0,81.12,48,64,42
81.3,81.42,55,64,42
81.6,81.72,64,64,42
81.9,82.02,43,64,42
82.2,82.32,55,64,42
82.5,82.62,62,64,42
82.8,82.92,48,64,42
83.1,83.22,55,64,42
83.4,83.52,64,64,42
83.7,83.82,47,64,42
84.0,84.12,59,64,42
84.3,84.6,66,64,42
84.6,85.2,52,64,42
85.2,85.5,53,64,42
85.5,85.8,49,64,42
85.8,86.1,50,64,42
86.1,86.4,45,64,42
86.4,86.7,46,64,42
86.7,87.0,48,64,42
87.0,87.3,50,64,42
87.3,87.9,52,64,42
87.9,88.2,52,64,42
88.2,88.5,60,64,42
88.5,88.8,56,64,42
88.8,89.1,57,64,42
89.1,90.0,64,64,42
90.0,90.3,60,64,42
90.3,90.6,56,64,42
90.6,90.9,57,64,42
90.9,91.8,65,64,42
91.8,92.25,64,64,42
92.25,92.4,62,64,42
92.4,92.7,60,64,42
92.7,93.6,65,64,42
93.6,94.05,64,64,42
94.05,94.2,62,64,42
94.2,94.5,60,64,42
94.5,95.7,69,64,42
95.7,96.0,68,64,42
96.0,96.3,69,64,42
96.3,96.6,67,64,42
96.6,96.9,65,64,42
96.9,97.2,63,64,42
97.2,97.5,46,36,42
97.5,97.8,48,36,42
97.8,98.1,50,36,42
98.1,98.4,45,36,42
98.4,98.7,46,36,42
98.7,99.0,48,36,42
99.0,99.3,46,36,42
99.3,99.6,48,36,42
99.6,99.9,50,36,42
99.9,100.2,45,36,42
100.2,100.5,46,36,42
100.5,100.8,48,36,42
100.8,101.1,46,36,42
101.1,101.4,48,36,42
101.4,101.7,50,36,42
101.7,102.0,48,36,42
102.0,102.3,50,36,42
102.3,102.6,51,36,42
102.6,102.9,50,36,42
102.9,103.2,51,36,42
103.2,103.5,53,36,42
103.5,103.8,48,36,42
103.8,104.1,50,36,42
104.1,104.4,51,36,42
104.4,104.7,50,36,42
104.7,105.0,51,36,42
105.0,105.3,53,36,42
105.3,105.6,50,36,42
105.6,105.9,51,36,42
105.9,106.2,53,36,42
106.2,106.5,50,36,42
106.5,106.8,52,36,42
106.8,107.1,53,36,42
107.1,107.7,51,88,42
107.7,108.0,51,88,42
108.0,109.5,52,88,42
109.5,109.8,50,88,42
109.8,111.3,49,88,42
111.3,111.6,47,88,42
111.6,113.1,45,88,42
113.1,113.4,44,88,42
113.4,114.3,42,88,42
114.3,115.2,40,88,42
115.2,116.1,39,88,42
116.1,117.0,37,88,42
117.0,117.9,47,88,42
117.9,118.8,45,88,42
118.8,119.7,44,88,42
119.7,120.6,43,88,42
120.6,124.2,42,36,42
126.3,126.6,40,36,42
126.6,126.9,41,36,42
126.9,127.2,43,36,42
127.2,127.5,39,36,42
127.5,127.8,40,36,42
127.8,128.1,49,36,42
128.1,128.4,44,36,42
128.4,128.7,45,36,42
128.7,129.0,53,36,42
129.0,129.3,52,36,42
129.3,129.6,50,36,42
129.6,129.9,52,36,42
129.9,130.5,47,36,42
130.5,130.8,46,36,42
130.8,131.1,45,36,42
131.1,131.4,39,36,42
131.4,131.7,38,36,42
131.7,132.6,44,36,42
132.6,132.9,43,36,42
132.9,133.2,37,36,42
133.2,133.5,36,36,42
133.5,134.4,42,36,42
134.4,134.7,41,36,42
134.7,135.0,45,36,42
135.0,135.6,46,36,42
135.6,135.9,50,36,42
135.9,136.5,53,36,42
136.5,136.8,41,36,42
136.8,137.4,46,36,42
137.4,137.7,50,36,42
137.7,138.3,53,36,42
138.3,138.6,41,36,42
138.6,139.2,46,36,42
139.2,139.5,43,36,42
139.5,140.1,50,36,42
140.1,140.4,38,36,42
140.4,141.0,46,36,42
141.0,141.3,43,36,42
141.3,141.9,50,36,42
141.9,142.2,38,36,42
142.2,142.8,43,36,42
142.8,143.1,46,36,42
143.1,143.7,50,36,42
143.7,144.0,52,36,42
144.0,144.6,53,36,42
144.6,144.9,55,36,42
144.9,145.5,57,36,42
145.5,145.8,45,36,42
145.8,146.1,38,49,42
146.1,146.4,45,49,42
146.4,146.52,50,49,42
146.7,146.82,45,49,42
147.0,147.12,57,49,42
147.3,147.42,52,49,42
147.6,147.72,38,49,42
147.9,148.02,45,49,42
148.2,148.32,50,49,42
148.5,148.62,36,49,42
148.8,148.92,48,49,42
149.1,149.22,52,49,42
149.4,149.52,41,49,42
149.7,149.82,48,49,42
150.0,150.12,53,49,42
150.3,150.42,36,49,42
150.6,150.72,48,49,42
150.9,151.02,52,49,42
151.2,151.32,41,49,42
151.5,151.62,48,49,42
151.8,151.92,53,49,42
152.1,152.22,40,49,42
152.4,152.52,52,49,42
152.7,153.0,59,49,42
153.0,153.6,57,49,42
153.6,153.9,58,49,42
153.9,154.2,63,49,42
154.2,154.5,62,49,42
154.5,154.8,60,49,42
154.8,155.1,58,49,42
155.1,155.4,56,49,42
155.4,156.0,55,49,42
156.0,156.3,53,49,42
156.3,156.6,52,49,42
156.6,157.2,67,49,42
157.2,157.5,65,49,42
157.5,157.8,63,49,42
157.8,158.1,62,49,42
158.1,158.4,65,49,42
158.4,158.7,63,49,42
158.7,159.0,58,49,42
159.0,159.3,55,49,42
159.3,159.75,53,49,42
159.75,159.9,55,49,42
159.9,160.2,52,49,42
160.2,161.1,50,49,42
161.1,161.4,38,49,42
162.0,162.9,50,49,42
162.9,163.2,38,49,42
163.8,164.7,50,49,42
164.7,165.0,38,49,42
170.7,171.6,53,88,42
171.6,172.5,58,88,42
172.5,172.8,62,88,42
172.8,173.1,63,88,42
173.1,173.4,62,88,42
173.4,173.7,60,88,42
173.7,174.0,58,88,42
174.0,174.3,60,88,42
174.3,174.6,57,88,42
174.6,175.2,53,88,42
175.2,176.1,58,88,42
176.1,176.4,62,88,42
176.4,176.7,67,88,42
176.7,177.0,65,88,42
177.0,177.3,63,88,42
177.3,177.6,63,88,42
177.6,177.9,62,88,42
177.9,178.2,60,88,42
178.2,178.8,62,88,42
178.8,180.6,53,88,42
178.8,180.6,62,88,42
180.6,181.8,53,88,42
180.6,181.8,57,88,42
181.8,182.4,57,88,42
181.8,182.4,53,88,42
182.4,184.2,57,88,42
182.4,184.2,65,88,42
184.2,185.4,57,88,42
184.2,185.4,60,88,42
192.6,193.5,54,49,42
193.5,194.4,55,49,42
194.4,195.3,56,49,42
195.3,196.2,55,49,42
196.2,197.1,54,49,42
197.1,198.0,53,49,42
198.0,198.9,52,49,42
198.9,199.8,45,49,42
199.8,200.7,38,88,42
199.8,200.7,45,88,42
200.7,201.0,62,88,42
200.7,201.0,53,88,42
201.6,202.5,50,88,42
202.5,203.4,38,88,42
203.4,204.3,58,88,42
204.3,205.2,46,88,42
205.2,206.1,58,88,42
206.1,207.0,46,88,42
207.0,207.9,58,88,42
207.9,208.8,46,88,42
208.8,209.7,58,88,42
209.7,210.6,46,49,42
210.6,211.5,58,49,42
211.5,212.4,46,49,42
212.4,213.3,59,49,42
213.3,214.2,47,49,42
214.2,215.1,60,49,42
215.1,216.0,48,49,42
216.0,216.9,62,49,42
216.9,217.5,50,49,42
217.5,217.8,62,49,42
217.8,218.4,63,49,42
218.4,219.3,64,49,42
219.3,219.6,64,49,42
219.6,220.2,63,49,42
220.2,220.5,64,49,42
220.5,221.1,64,49,42
221.1,222.0,52,49,42
222.0,222.9,53,49,42
222.9,223.2,53,49,42
223.2,223.8,52,49,42
223.8,224.7,53,49,42
224.7,225.0,53,49,42
225.0,225.9,54,36,42
225.9,226.8,55,36,42
226.8,227.7,56,36,42
227.7,228.6,57,36,42
228.6,229.5,58,36,42
229.5,230.4,59,36,42
230.4,231.3,60,36,42
231.3,232.2,48,36,42
232.2,233.1,41,36,42
233.1,233.4,53,36,42
234.0,234.9,53,49,42
234.9,235.8,41,49,42
249.9,250.8,52,62,42
250.8,251.7,57,62,42
251.7,252.0,61,62,42
252.0,252.3,62,62,42
252.3,252.6,61,62,42
252.6,252.9,59,62,42
252.9,253.2,57,62,42
253.2,253.5,59,62,42
253.5,253.8,56,62,42
253.8,254.4,52,62,42
254.4,255.3,57,62,42
255.3,255.6,61,62,42
255.6,255.9,66,62,42
255.9,256.2,64,62,42
256.2,256.5,62,62,42
256.5,256.8,62,62,42
256.8,257.1,61,62,42
257.1,257.4,59,62,42
257.4,258.0,61,62,42
258.0,258.9,61,62,42
258.9,259.2,61,62,42
259.2,261.0,60,62,42
261.0,262.8,53,62,42
261.0,262.8,60,62,42
262.8,264.6,53,62,42
264.6,265.5,45,101,42
265.5,266.1,36,101,42
266.1,266.4,39,101,42
266.4,266.7,45,101,42
266.7,267.0,48,101,42
267.0,267.3,51,101,42
267.3,267.6,57,101,42
267.6,267.9,60,101,42
267.9,268.2,63,101,42
268.2,269.1,62,101,42
268.15,269.1,46,101,42
268.175,269.1,53,101,42
269.1,270.0,46,101,42
269.1,270.0,50,101,42
270.0,270.9,46,101,42
270.0,270.9,55,101,42
270.0,270.9,63,101,42
270.9,271.8,46,101,42
270.9,271.8,51,101,42
271.8,272.7,46,101,42
271.8,272.7,53,101,42
271.8,272.7,62,101,42
272.7,273.6,46,101,42
273.55,273.6,46,101,42
272.7,273.6,50,101,42
273.6,274.5,63,101,42
273.575,274.5,55,101,42
274.5,275.4,46,101,42
275.35,275.4,46,101,42
274.5,275.4,51,101,42
275.4,276.3,62,101,42
275.375,276.3,53,101,42
276.3,277.2,46,101,42
276.3,277.2,50,101,42
277.2,278.1,62,101,42
277.15,278.1,47,101,42
277.175,278.1,53,101,42
278.1,279.0,46,101,42
278.1,279.0,50,101,42
279.0,279.9,65,101,42
278.95,279.9,48,101,42
278.975,279.9,57,101,42
279.9,280.8,50,101,42
280.75,280.8,50,101,42
279.9,280.8,57,101,42
280.775,280.8,57,101,42
280.8,281.7,65,101,42
281.7,282.6,50,101,42
281.7,282.6,57,101,42
282.6,282.9,51,88,42
283.5,283.8,52,49,42
284.4,284.7,51,88,42
285.3,285.6,52,49,42
286.2,286.5,52,88,42
287.1,287.4,53,49,42
288.0,288.3,52,88,42
288.9,289.2,53,49,42
289.8,290.7,54,49,42
290.7,291.6,55,49,42
291.6,292.5,56,49,42
292.5,293.4,57,49,42
293.4,294.3,58,49,42
294.3,295.2,51,49,42
295.2,296.1,53,49,42
296.1,297.0,41,49,42
297.0,297.9,46,88,42
297.9,298.2,62,88,42
297.9,298.2,53,88,42
298.8,299.7,58,49,42
299.7,300.6,46,49,42
300.6,301.5,58,49,42
301.5,302.4,56,49,42
302.4,303.3,55,49,42
303.3,304.2,57,49,42
304.2,305.1,58,49,42
305.1,306.0,56,49,42
306.0,306.9,55,49,42
306.9,307.8,54,49,42
307.8,308.7,53,49,42
308.7,309.6,50,49,42
309.6,310.5,51,49,42
310.5,311.4,48,49,42
311.4,312.3,50,49,42
312.3,313.2,50,49,42
313.2,314.1,51,49,42
314.1,315.0,48,49,42
315.0,315.9,50,49,42
315.9,316.8,50,49,42
316.8,317.7,51,49,42
317.7,318.6,48,49,42
318.6,320.4,50,49,42
320.4,321.3,51,49,42
321.3,322.2,48,49,42
322.2,323.1,50,49,42
324.0,324.9,50,49,42
325.8,326.7,50,49,42
328.8,328.95,38,49,42
328.95,329.1,40,49,42
329.1,329.25,38,49,42
329.25,329.4,40,49,42
329.4,329.7,41,49,42
329.7,330.0,37,49,42
330.0,330.3,38,49,42
330.3,330.6,46,49,42
330.6,330.9,42,49,42
330.9,331.2,43,49,42
331.2,331.5,52,49,42
331.5,331.8,50,49,42
331.8,332.1,49,49,42
332.1,332.7,50,49,42
332.7,333.0,41,49,42
333.0,334.5,40,49,42
334.5,334.8,39,49,42
334.8,336.3,38,49,42
336.3,336.6,37,49,42
336.6,337.2,36,49,42
337.2,337.5,40,49,42
337.5,338.1,43,49,42
338.1,338.4,43,49,42
338.4,339.0,48,49,42
339.0,339.3,52,49,42
339.3,339.9,55,49,42
339.9,340.2,43,49,42
340.2,340.8,48,49,42
340.8,341.1,45,49,42
341.1,341.7,52,49,42
341.7,342.0,40,49,42
342.0,342.6,45,49,42
342.6,342.9,48,49,42
342.9,343.5,52,49,42
343.5,343.8,40,49,42
343.8,344.4,45,49,42
344.4,344.7,48,49,42
344.7,345.3,52,49,42
345.3,345.6,53,49,42
345.6,346.2,55,49,42
346.2,346.5,56,49,42
346.5,347.1,57,49,42
347.1,347.4,50,49,42
347.4,348.3,52,49,42
348.3,348.6,45,49,42
349.2,350.1,52,49,42
350.1,350.4,45,49,42
351.0,351.9,43,49,42
351.9,352.2,45,49,42
352.8,353.7,43,49,42
353.7,354.0,45,49,42
357.9,358.2,48,49,42
358.2,358.5,49,49,42
358.5,359.7,57,49,42
359.7,360.0,48,49,42
360.0,360.3,49,49,42
360.3,361.5,57,49,42
361.5,361.8,47,49,42
361.8,362.1,48,49,42
362.1,363.3,57,49,42
363.3,363.6,47,49,42
363.6,363.9,48,49,42
363.9,365.1,57,49,42
365.1,365.4,46,49,42
365.4,365.7,47,49,42
365.7,366.6,57,49,42
366.6,366.9,47,49,42
366.9,367.2,57,49,42
367.2,367.5,47,49,42
367.5,367.8,57,49,42
367.8,368.1,47,49,42
368.1,368.4,57,49,42
368.4,368.7,47,49,42
368.7,369.0,57,49,42
369.0,369.3,47,49,42
369.3,369.6,57,49,42
369.6,369.9,47,49,42
369.9,370.2,54,49,42
370.2,370.5,47,49,42
370.5,370.8,54,49,42
370.8,371.1,47,49,42
371.1,371.4,56,49,42
371.4,371.7,47,49,42
371.7,372.0,54,49,42
372.0,372.3,47,49,42
372.3,372.6,54,49,42
372.6,372.9,47,49,42
372.9,373.2,56,49,42
373.2,373.5,47,49,42
373.5,373.8,54,49,42
373.8,374.1,47,49,42
374.1,374.4,54,49,42
374.4,374.7,47,49,42
374.7,375.0,56,49,42
375.0,375.3,47,49,42
375.3,375.6,54,49,42
375.6,375.9,47,49,42
375.9,376.2,54,49,42
376.2,376.5,47,49,42
376.5,376.8,56,49,42
376.8,377.1,47,49,42
377.1,377.4,52,49,42
377.4,377.7,40,49,42
377.7,378.0,52,49,42
378.0,378.12,45,49,42
378.3,378.42,52,49,42
378.6,378.72,60,49,42
378.9,379.02,40,49,42
379.2,379.32,52,49,42
379.5,379.62,59,49,42
379.8,379.92,45,49,42
380.1,380.22,52,49,42
380.4,380.52,60,49,42
380.7,380.82,43,49,42
381.0,381.12,55,49,42
381.3,381.42,62,49,42
381.6,381.72,48,49,42
381.9,382.02,55,49,42
382.2,382.32,64,49,42
382.5,382.62,43,49,42
382.8,382.92,55,49,42
383.1,383.22,62,49,42
383.4,383.52,48,49,42
383.7,383.82,55,49,42
384.0,384.12,64,49,42
384.3,384.42,47,49,42
384.6,384.72,59,49,42
384.9,385.2,66,49,42
385.2,385.8,52,49,42
385.8,386.1,53,49,42
386.1,386.4,49,49,42
386.4,386.7,50,49,42
386.7,387.0,45,49,42
387.0,387.3,46,49,42
387.3,387.6,48,49,42
387.6,387.9,50,49,42
387.9,388.5,52,49,42
388.5,388.8,52,49,42
388.8,389.1,60,49,42
389.1,389.4,56,49,42
389.4,389.7,57,49,42
389.7,390.6,64,49,42
390.6,390.9,60,49,42
390.9,391.2,56,49,42
391.2,391.5,57,49,42
391.5,392.4,65,49,42
392.4,392.85,64,49,42
392.85,393.0,62,49,42
393.0,393.3,60,49,42
393.3,394.2,65,49,42
394.2,394.65,64,49,42
394.65,394.8,62,49,42
394.8,395.1,60,49,42
395.1,396.3,69,49,42
396.3,396.6,68,49,42
396.6,396.9,69,49,42
396.9,397.2,67,49,42
397.2,397.5,65,49,42
397.5,397.8,63,49,42
397.8,398.1,46,49,42
398.1,398.4,48,49,42
398.4,398.7,50,49,42
398.7,399.0,45,49,42
399.0,399.3,46,49,42
399.3,399.6,48,49,42
399.6,399.9,46,49,42
399.9,400.2,48,49,42
400.2,400.5,50,49,42
400.5,400.8,45,49,42
400.8,401.1,46,49,42
401.1,401.4,48,49,42
401.4,401.7,46,49,42
401.7,402.0,48,49,42
402.0,402.3,50,49,42
402.3,402.6,48,49,42
402.6,402.9,50,49,42
402.9,403.2,51,49,42
403.2,403.5,50,49,42
403.5,403.8,51,49,42
403.8,404.1,53,49,42
404.1,404.4,48,49,42
404.4,404.7,50,49,42
404.7,405.0,51,49,42
405.0,405.3,50,49,42
405.3,405.6,51,49,42
405.6,405.9,53,49,42
405.9,406.2,50,49,42
406.2,406.5,51,49,42
406.5,406.8,53,49,42
406.8,407.1,50,49,42
407.1,407.4,52,49,42
407.4,407.7,53,49,42
407.7,408.3,51,49,42
408.3,408.6,51,49,42
408.6,410.1,52,49,42
410.1,410.4,50,49,42
410.4,411.9,49,49,42
411.9,412.2,47,49,42
412.2,413.7,45,49,42
413.7,414.0,44,49,42
414.0,414.9,42,49,42
414.9,415.8,40,49,42
415.8,416.7,39,49,42
416.7,417.6,37,49,42
417.6,418.5,47,49,42
418.5,419.4,45,49,42
419.4,420.3,44,49,42
420.3,421.2,43,49,42
421.2,424.8,42,36,42
426.9,427.2,40,36,42
427.2,427.5,41,36,42
427.5,427.8,43,36,42
427.8,428.1,39,36,42
428.1,428.4,40,36,42
428.4,428.7,49,36,42
428.7,429.0,44,36,42
429.0,429.3,45,36,42
429.3,429.6,53,36,42
429.6,429.9,52,36,42
429.9,430.2,50,36,42
430.2,430.5,52,36,42
430.5,431.1,47,36,42
431.1,431.4,46,36,42
431.4,431.7,45,36,42
431.7,432.0,39,36,42
432.0,432.3,38,36,42
432.3,433.2,44,36,42
433.2,433.5,43,36,42
433.5,433.8,37,36,42
433.8,434.1,36,36,42
434.1,435.0,42,36,42
435.0,435.3,41,36,42
435.3,435.6,45,36,42
435.6,436.2,46,36,42
436.2,436.5,50,36,42
436.5,437.1,53,36,42
437.1,437.4,41,36,42
437.4,438.0,46,36,42
438.0,438.3,50,36,42
438.3,438.9,53,36,42
438.9,439.2,41,36,42
439.2,439.8,46,36,42
439.8,440.1,43,36,42
440.1,440.7,50,36,42
440.7,441.0,38,36,42
441.0,441.6,46,36,42
441.6,441.9,43,36,42
441.9,442.5,50,36,42
442.5,442.8,38,36,42
442.8,443.4,43,36,42
443.4,443.7,46,36,42
443.7,444.3,50,36,42
444.3,444.6,52,36,42
444.6,445.2,53,36,42
445.2,445.5,55,36,42
445.5,446.1,57,36,42
446.1,446.4,45,36,42
446.4,446.7,38,49,42
446.7,447.0,45,49,42
447.0,447.12,50,49,42
447.3,447.42,45,49,42
447.6,447.72,57,49,42
447.9,448.02,52,49,42
448.2,448.32,38,49,42
448.5,448.62,45,49,42
448.8,448.92,50,49,42
449.1,449.22,36,49,42
449.4,449.52,48,49,42
449.7,449.82,52,49,42
450.0,450.12,41,49,42
450.3,450.42,48,49,42
450.6,450.72,53,49,42
450.9,451.02,36,49,42
451.2,451.32,48,49,42
451.5,451.62,52,49,42
451.8,451.92,41,49,42
452.1,452.22,48,49,42
452.4,452.52,53,49,42
452.7,452.82,40,49,42
453.0,453.12,52,49,42
453.3,453.6,59,49,42
453.6,454.2,57,49,42
454.2,454.5,58,49,42
454.5,454.8,63,49,42
454.8,455.1,62,49,42
455.1,455.4,60,49,42
455.4,455.7,58,49,42
455.7,456.0,56,49,42
456.0,456.6,55,49,42
456.6,456.9,53,49,42
456.9,457.2,52,49,42
457.2,457.8,67,49,42
457.8,458.1,65,49,42
458.1,458.4,63,49,42
458.4,458.7,62,49,42
458.7,459.0,65,49,42
459.0,459.3,63,49,42
459.3,459.6,58,49,42
459.6,459.9,55,49,42
459.9,460.35,53,49,42
460.35,460.5,55,49,42
460.5,460.8,52,49,42
460.8,461.7,50,49,42
461.7,462.0,38,49,42
462.6,463.5,50,49,42
463.5,463.8,38,49,42
464.4,465.3,50,49,42
465.3,465.6,38,49,42
185.4,185.7,51,88,45
186.3,186.6,52,49,45
187.2,187.5,51,88,45
188.1,188.4,52,49,45
189.0,189.3,52,88,45
189.9,190.2,53,49,45
190.8,191.1,52,88,45
191.7,192.0,53,49,45
10.8,11.4,48,64,43
11.4,11.7,52,64,43
11.7,12.3,55,64,43
12.3,12.6,43,64,43
12.6,13.2,48,64,43
13.2,13.5,52,64,43
13.5,14.1,55,64,43
14.1,14.4,43,64,43
14.4,15.0,48,64,43
15.0,15.3,45,64,43
15.3,15.9,52,64,43
15.9,16.2,40,64,43
16.2,16.8,45,64,43
16.8,17.1,48,64,43
17.1,17.7,52,64,43
17.7,18.0,40,64,43
18.0,18.6,45,64,43
18.6,18.9,48,64,43
18.9,19.5,52,64,43
19.5,19.8,53,64,43
19.8,20.4,55,64,43
20.4,20.7,56,64,43
20.7,21.3,57,64,43
21.3,21.6,50,64,43
21.6,22.5,52,64,43
22.5,22.8,45,64,43
23.4,24.3,52,64,43
24.3,24.6,45,64,43
25.2,26.1,43,64,43
26.1,26.4,45,64,43
27.0,27.9,43,64,43
27.9,28.2,45,64,43
36.0,36.6,48,64,43
36.6,36.9,52,64,43
36.9,37.5,55,64,43
37.5,37.8,43,64,43
37.8,38.4,48,64,43
38.4,38.7,52,64,43
38.7,39.3,55,64,43
39.3,39.6,43,64,43
39.6,40.2,48,64,43
40.2,40.5,45,64,43
40.5,41.1,52,64,43
41.1,41.4,40,64,43
41.4,42.0,45,64,43
42.0,42.3,48,64,43
42.3,42.9,52,64,43
42.9,43.2,40,64,43
43.2,43.8,45,64,43
43.8,44.1,48,64,43
44.1,44.7,52,64,43
44.7,45.0,53,64,43
45.0,45.6,55,64,43
45.6,45.9,56,64,43
45.9,46.5,57,64,43
46.5,46.8,50,64,43
46.8,47.7,52,64,43
47.7,48.0,45,64,43
48.6,49.5,52,64,43
49.5,49.8,45,64,43
50.4,51.3,43,64,43
51.3,51.6,45,64,43
52.2,53.1,43,64,43
77.4,77.7,45,64,43
78.3,78.6,40,64,43
79.2,79.5,45,64,43
80.1,80.4,43,64,43
81.0,81.3,48,64,43
81.9,82.2,43,64,43
82.8,83.1,48,64,43
83.7,84.0,47,64,43
84.6,85.2,52,64,43
85.2,85.5,53,64,43
85.5,85.8,49,64,43
85.8,86.1,50,64,43
86.1,86.4,45,64,43
86.4,86.7,46,64,43
86.7,87.0,48,64,43
87.0,87.3,50,64,43
87.3,87.9,52,64,43
87.9,88.2,52,64,43
88.2,88.5,45,64,43
89.1,89.4,40,64,43
90.0,90.3,45,64,43
90.9,91.2,43,64,43
91.8,92.1,48,64,43
92.7,93.0,43,64,43
93.6,93.9,48,64,43
94.5,94.8,47,64,43
95.4,96.0,52,64,43
96.0,96.3,53,64,43
96.3,96.6,49,64,43
96.6,96.9,50,64,43
96.9,97.2,45,64,43
103.5,103.8,48,36,43
103.8,104.1,50,36,43
104.1,104.4,51,36,43
104.4,104.7,50,36,43
104.7,105.0,51,36,43
105.0,105.3,53,36,43
105.3,105.6,50,36,43
105.6,105.9,51,36,43
105.9,106.2,53,36,43
106.2,106.5,50,36,43
106.5,106.8,52,36,43
106.8,107.1,53,36,43
107.1,107.7,51,88,43
107.7,108.0,51,88,43
108.0,108.3,52,88,43
201.6,202.5,62,88,43
202.5,203.4,50,88,43
203.4,204.3,58,88,43
204.3,205.2,46,88,43
205.2,206.1,58,88,43
206.1,207.0,46,88,43
207.0,207.9,58,88,43
207.9,208.8,46,88,43
208.8,209.7,58,88,43
209.7,210.6,46,49,43
210.6,211.5,58,49,43
211.5,212.4,46,49,43
212.4,213.3,59,49,43
213.3,214.2,47,49,43
214.2,215.1,60,49,43
215.1,216.0,48,49,43
216.0,216.9,62,49,43
216.9,217.5,50,49,43
217.5,217.8,62,49,43
217.8,218.1,63,88,43
218.7,219.0,64,49,43
219.6,219.9,63,49,43
220.5,220.8,64,49,43
221.4,221.7,52,49,43
222.3,222.6,53,49,43
223.2,223.5,52,49,43
224.1,224.4,53,49,43
225.0,225.9,54,36,43
225.9,226.8,55,36,43
226.8,227.7,56,36,43
227.7,228.6,57,36,43
228.6,229.5,58,36,43
229.5,230.4,59,36,43
230.4,231.3,60,36,43
231.3,232.2,48,36,43
232.2,233.1,41,36,43
233.1,233.4,53,36,43
234.0,234.9,53,49,43
234.9,235.8,41,49,43
235.8,236.7,61,49,43
236.7,237.6,49,49,43
237.6,238.5,61,49,43
238.5,239.4,49,49,43
239.4,240.3,61,49,43
240.3,241.2,49,49,43
241.2,242.1,61,49,43
242.1,243.0,49,49,43
243.0,243.9,61,49,43
243.9,244.8,49,49,43
244.8,245.7,61,49,43
245.7,246.6,49,49,43
246.6,247.5,61,49,43
247.5,248.4,49,49,43
248.4,249.3,61,49,43
249.3,250.2,49,49,43
261.0,261.9,53,62,43
261.9,262.8,41,62,43
262.8,263.7,53,62,43
263.7,264.6,41,62,43
264.6,266.1,41,101,43
268.2,269.1,58,101,43
269.1,270.0,46,101,43
270.0,270.9,58,101,43
270.9,271.8,46,101,43
271.8,272.7,58,101,43
272.7,273.6,46,101,43
273.6,274.5,58,101,43
274.5,275.4,46,101,43
275.4,276.3,58,101,43
276.3,277.2,46,101,43
277.2,278.1,59,101,43
278.1,279.0,46,101,43
279.0,279.9,60,101,43
279.9,280.8,48,101,43
280.8,281.7,62,101,43
281.7,282.6,50,101,43
282.6,282.9,51,88,43
283.5,283.8,52,49,43
284.4,284.7,51,88,43
285.3,285.6,52,49,43
286.2,286.5,52,88,43
287.1,287.4,53,49,43
288.0,288.3,52,88,43
288.9,289.2,53,49,43
289.8,290.1,54,49,43
296.1,297.0,53,49,43
297.0,297.9,46,88,43
297.9,298.2,58,88,43
298.8,299.7,58,49,43
299.7,300.6,46,49,43
404.1,404.4,48,49,43
404.4,404.7,50,49,43
404.7,405.0,51,49,43
405.0,405.3,50,49,43
405.3,405.6,51,49,43
405.6,405.9,53,49,43
405.9,406.2,50,49,43
406.2,406.5,51,49,43
406.5,406.8,53,49,43
406.8,407.1,50,49,43
407.1,407.4,52,49,43
407.4,407.7,53,49,43
407.7,408.3,51,49,43
408.3,408.6,51,49,43
408.6,408.9,52,49,43
97.2,97.5,46,36,45
98.1,98.4,45,36,45
99.0,99.3,46,36,45
99.9,100.2,45,36,45
100.8,101.1,46,36,45
101.7,102.0,48,36,45
102.6,102.9,50,36,45
109.5,109.8,50,88,45
109.8,110.1,49,88,45
111.3,111.6,47,88,45
111.6,111.9,45,88,45
113.1,113.4,56,88,45
113.4,113.7,54,88,45
114.3,114.6,52,88,45
115.2,115.5,51,88,45
116.1,116.4,49,88,45
117.0,117.3,47,88,45
117.9,118.2,45,88,45
118.8,119.1,44,88,45
119.7,120.0,43,88,45
120.6,120.9,41,23,45
122.4,122.7,41,23,45
135.0,135.6,46,23,45
135.6,135.9,50,23,45
135.9,136.5,53,23,45
136.5,136.8,41,23,45
136.8,137.4,46,23,45
137.4,137.7,50,23,45
137.7,138.3,53,23,45
138.3,138.6,41,23,45
138.6,139.2,46,23,45
139.2,139.5,43,23,45
139.5,140.1,50,23,45
140.1,140.4,50,23,45
140.4,141.0,46,23,45
141.0,141.3,43,23,45
141.3,141.9,50,23,45
141.9,142.2,50,23,45
142.2,142.8,43,23,45
142.8,143.1,46,23,45
143.1,143.7,50,23,45
143.7,144.0,52,23,45
144.0,144.6,53,23,45
144.6,144.9,55,23,45
144.9,145.5,57,23,45
145.5,145.8,45,23,45
145.8,146.1,50,23,45
146.7,147.0,45,23,45
147.6,147.9,50,23,45
148.5,148.8,48,23,45
149.4,149.7,53,23,45
150.3,150.6,48,23,45
151.2,151.5,53,23,45
152.1,152.4,52,23,45
153.0,153.6,57,23,45
153.6,153.9,58,23,45
153.9,154.2,54,23,45
154.2,154.5,55,23,45
154.5,154.8,50,23,45
154.8,155.1,51,23,45
155.1,155.4,53,23,45
155.4,155.7,55,23,45
155.7,156.3,57,23,45
156.3,156.6,45,23,45
156.6,157.2,57,23,45
157.2,157.5,58,23,45
157.5,157.8,54,23,45
157.8,158.1,55,23,45
158.1,158.4,50,23,45
158.4,158.7,51,23,45
158.7,159.0,53,23,45
159.0,159.3,55,23,45
159.3,159.9,57,23,45
159.9,160.2,45,23,45
160.2,161.1,50,49,45
161.1,161.4,50,49,45
162.0,162.9,50,49,45
162.9,163.2,50,49,45
163.8,164.7,50,49,45
164.7,165.0,50,49,45
171.0,171.3,58,88,45
171.9,172.2,46,88,45
172.8,173.1,58,88,45
173.7,174.0,46,88,45
174.6,174.9,58,88,45
175.5,175.8,46,88,45
176.4,176.7,58,88,45
177.3,177.6,46,88,45
178.2,178.5,58,88,45
179.1,179.4,46,88,45
180.0,180.3,59,88,45
180.9,181.2,47,88,45
181.8,182.1,60,88,45
182.7,183.0,48,88,45
183.6,183.9,62,88,45
184.5,184.8,50,88,45
185.4,185.7,51,88,45
186.3,186.6,52,49,45
187.2,187.5,51,88,45
188.1,188.4,52,49,45
189.0,189.3,52,88,45
189.9,190.2,53,49,45
190.8,191.1,52,88,45
191.7,192.0,53,49,45
250.2,250.5,57,62,45
251.1,251.4,45,62,45
252.0,252.3,57,62,45
252.9,253.2,45,62,45
253.8,254.1,57,62,45
254.7,255.0,45,62,45
255.6,255.9,57,62,45
256.5,256.8,45,62,45
257.4,257.7,57,62,45
258.3,258.6,45,62,45
259.2,259.5,57,62,45
260.1,260.4,45,62,45
300.6,300.9,58,49,45
301.5,301.8,46,49,45
302.4,302.7,58,49,45
303.3,303.6,46,49,45
304.2,304.5,58,49,45
305.1,305.4,46,49,45
306.0,306.3,58,49,45
306.9,307.2,46,49,45
307.8,308.1,58,49,45
308.7,309.0,46,49,45
309.6,309.9,58,49,45
310.5,310.8,46,49,45
311.4,311.7,58,49,45
312.3,312.6,46,49,45
313.2,313.5,58,49,45
314.1,314.4,46,49,45
315.0,315.3,58,49,45
315.9,316.2,46,49,45
316.8,317.1,58,49,45
317.7,318.0,46,49,45
318.6,318.9,58,49,45
319.5,319.8,46,49,45
320.4,320.7,58,49,45
321.3,321.6,46,49,45
322.2,322.5,58,49,45
324.0,324.3,46,49,45
325.8,326.1,58,49,45
336.6,337.2,48,49,45
337.2,337.5,52,49,45
337.5,338.1,55,49,45
338.1,338.4,43,49,45
338.4,339.0,48,49,45
339.0,339.3,52,49,45
339.3,339.9,55,49,45
339.9,340.2,43,49,45
340.2,340.8,48,49,45
340.8,341.1,45,49,45
341.1,341.7,52,49,45
341.7,342.0,40,49,45
342.0,342.6,45,49,45
342.6,342.9,48,49,45
342.9,343.5,52,49,45
343.5,343.8,40,49,45
343.8,344.4,45,49,45
344.4,344.7,48,49,45
344.7,345.3,52,49,45
345.3,345.6,53,49,45
345.6,346.2,55,49,45
346.2,346.5,56,49,45
346.5,347.1,57,49,45
347.1,347.4,50,49,45
347.4,348.3,52,49,45
348.3,348.6,45,49,45
349.2,350.1,52,49,45
350.1,350.4,45,49,45
351.0,351.9,43,49,45
351.9,352.2,45,49,45
352.8,353.7,43,49,45
353.7,354.0,45,49,45
378.0,378.3,45,49,45
378.9,379.2,40,49,45
379.8,380.1,45,49,45
380.7,381.0,43,49,45
381.6,381.9,48,49,45
382.5,382.8,43,49,45
383.4,383.7,48,49,45
384.3,384.6,47,49,45
385.2,385.8,52,49,45
385.8,386.1,53,49,45
386.1,386.4,49,49,45
386.4,386.7,50,49,45
386.7,387.0,45,49,45
387.0,387.3,46,49,45
387.3,387.6,48,49,45
387.6,387.9,50,49,45
387.9,388.5,52,49,45
388.5,388.8,52,49,45
388.8,389.1,45,49,45
389.7,390.0,40,49,45
390.6,390.9,45,49,45
391.5,391.8,43,49,45
392.4,392.7,48,49,45
393.3,393.6,43,49,45
394.2,394.5,48,49,45
395.1,395.4,47,49,45
396.0,396.6,52,49,45
396.6,396.9,53,49,45
396.9,397.2,49,49,45
397.2,397.5,50,49,45
397.5,397.8,45,49,45
397.8,398.1,46,49,45
398.7,399.0,45,49,45
399.6,399.9,46,49,45
400.5,400.8,45,49,45
401.4,401.7,46,49,45
402.3,402.6,48,49,45
403.2,403.5,50,49,45
410.1,410.4,50,49,45
410.4,410.7,49,49,45
411.9,412.2,47,49,45
412.2,412.5,45,49,45
413.7,414.0,56,49,45
414.0,414.3,54,49,45
414.9,415.2,52,49,45
415.8,416.1,51,49,45
416.7,417.0,49,49,45
417.6,417.9,47,49,45
418.5,418.8,45,49,45
419.4,419.7,44,49,45
420.3,420.6,43,49,45
421.2,421.5,41,23,45
423.0,423.3,41,23,45
435.6,436.2,46,23,45
436.2,436.5,50,23,45
436.5,437.1,53,23,45
437.1,437.4,41,23,45
437.4,438.0,46,23,45
438.0,438.3,50,23,45
438.3,438.9,53,23,45
438.9,439.2,41,23,45
439.2,439.8,46,23,45
439.8,440.1,43,23,45
440.1,440.7,50,23,45
440.7,441.0,50,23,45
441.0,441.6,46,23,45
441.6,441.9,43,23,45
441.9,442.5,50,23,45
442.5,442.8,50,23,45
442.8,443.4,43,23,45
443.4,443.7,46,23,45
443.7,444.3,50,23,45
444.3,444.6,52,23,45
444.6,445.2,53,23,45
445.2,445.5,55,23,45
445.5,446.1,57,23,45
446.1,446.4,45,23,45
446.4,446.7,50,23,45
447.3,447.6,45,23,45
448.2,448.5,50,23,45
449.1,449.4,48,23,45
450.0,450.3,53,23,45
450.9,451.2,48,23,45
451.8,452.1,53,23,45
452.7,453.0,52,23,45
453.6,454.2,57,23,45
454.2,454.5,58,23,45
454.5,454.8,54,23,45
454.8,455.1,55,23,45
455.1,455.4,50,23,45
455.4,455.7,51,23,45
455.7,456.0,53,23,45
456.0,456.3,55,23,45
456.3,456.9,57,23,45
456.9,457.2,45,23,45
457.2,457.8,57,23,45
457.8,458.1,58,23,45
458.1,458.4,54,23,45
458.4,458.7,55,23,45
458.7,459.0,50,23,45
459.0,459.3,51,23,45
459.3,459.6,53,23,45
459.6,459.9,55,23,45
459.9,460.5,57,23,45
460.5,460.8,45,23,45
460.8,461.7,50,49,45
461.7,462.0,50,49,45
462.6,463.5,50,49,45
463.5,463.8,50,49,45
464.4,465.3,50,49,45
465.3,465.6,50,49,45
11.1,11.4,64,64,71
11.4,12.0,67,64,71
12.0,12.15,62,64,71
12.15,12.3,64,64,71
12.3,12.9,65,64,71
12.9,13.2,64,64,71
13.2,13.8,67,64,71
13.8,13.95,62,64,71
13.95,14.1,64,64,71
14.1,14.7,65,64,71
14.7,15.0,64,64,71
15.0,15.6,69,64,71
15.6,15.75,68,64,71
15.75,15.9,69,64,71
15.9,16.5,71,64,71
16.5,16.8,64,64,71
16.8,17.4,69,64,71
17.4,17.55,68,64,71
17.55,17.7,69,64,71
17.7,18.3,71,64,71
18.3,18.6,64,64,71
18.6,19.2,69,64,71
19.2,19.35,67,64,71
19.35,19.5,69,64,71
19.5,20.1,65,64,71
20.1,20.25,64,64,71
20.25,20.4,65,64,71
20.4,21.0,62,64,71
21.0,21.3,60,64,71
21.3,21.6,62,64,71
21.6,22.5,59,64,71
22.5,22.8,57,64,71
23.4,24.3,59,64,71
24.3,24.6,57,64,71
25.2,26.1,67,64,71
26.1,26.4,64,64,71
27.0,27.9,67,64,71
27.9,28.2,64,64,71
36.3,36.6,64,64,71
36.6,37.2,67,64,71
37.2,37.35,62,64,71
37.35,37.5,64,64,71
37.5,38.1,65,64,71
38.1,38.4,64,64,71
38.4,39.0,67,64,71
39.0,39.15,62,64,71
39.15,39.3,64,64,71
39.3,39.9,65,64,71
39.9,40.2,64,64,71
40.2,40.8,69,64,71
40.8,40.95,68,64,71
40.95,41.1,69,64,71
41.1,41.7,71,64,71
41.7,42.0,64,64,71
42.0,42.6,69,64,71
42.6,42.75,68,64,71
42.75,42.9,69,64,71
42.9,43.5,71,64,71
43.5,43.8,64,64,71
43.8,44.4,69,64,71
44.4,44.55,67,64,71
44.55,44.7,69,64,71
44.7,45.3,65,64,71
45.3,45.45,64,64,71
45.45,45.6,65,64,71
45.6,46.2,62,64,71
46.2,46.5,60,64,71
46.5,46.8,62,64,71
46.8,47.7,59,64,71
47.7,48.0,57,64,71
48.6,49.5,59,64,71
49.5,49.8,57,64,71
50.4,51.3,67,64,71
51.3,51.6,64,64,71
52.2,53.1,67,64,71
53.1,53.4,64,64,71
57.6,58.5,67,75,71
59.4,60.3,67,75,71
60.3,60.6,66,49,71
61.2,62.1,66,49,71
63.0,63.9,66,49,71
64.8,65.4,75,49,71
65.4,65.7,75,49,71
65.7,66.0,78,49,71
66.0,66.3,75,49,71
66.3,66.6,78,49,71
66.6,66.9,75,49,71
66.9,67.2,78,49,71
67.2,67.5,75,49,71
67.5,68.1,78,49,71
68.1,68.4,75,49,71
68.4,68.7,78,49,71
68.7,69.0,75,49,71
69.0,69.3,78,49,71
69.3,69.6,75,49,71
69.6,69.9,78,49,71
69.9,70.2,75,49,71
70.2,70.5,69,49,71
70.5,70.8,68,49,71
70.8,71.4,71,49,71
71.4,71.55,66,49,71
71.55,71.7,68,49,71
71.7,72.3,69,49,71
72.3,72.6,68,49,71
72.6,73.2,71,49,71
73.2,73.35,66,49,71
73.35,73.5,68,49,71
73.5,74.1,69,49,71
74.1,74.4,68,49,71
74.4,75.0,76,49,71
75.0,75.15,66,49,71
75.15,75.3,68,49,71
75.3,75.9,69,49,71
75.9,76.2,68,49,71
76.2,76.5,76,49,71
76.5,76.8,68,49,71
76.8,77.1,69,49,71
77.1,77.4,71,49,71
77.4,77.7,72,49,71
78.3,78.6,68,49,71
78.6,78.9,69,49,71
78.9,79.2,71,49,71
79.2,79.5,72,49,71
80.1,80.4,71,49,71
80.4,80.7,72,49,71
80.7,81.0,74,49,71
81.0,81.3,76,49,71
81.9,82.2,71,49,71
82.2,82.5,72,49,71
82.5,82.8,74,49,71
82.8,83.1,76,49,71
83.7,84.0,75,49,71
84.0,84.3,76,49,71
84.3,84.6,78,49,71
84.6,84.9,76,49,71
84.9,85.2,74,49,71
85.2,85.5,72,49,71
85.5,85.8,70,49,71
85.8,86.1,69,49,71
86.1,86.4,66,49,71
86.4,86.7,65,49,71
89.1,89.4,68,49,71
89.4,89.7,69,49,71
89.7,90.0,71,49,71
90.0,90.3,72,49,71
90.9,91.2,71,49,71
91.2,91.5,72,49,71
91.5,91.8,74,49,71
91.8,92.1,76,49,71
92.7,93.0,71,49,71
93.0,93.3,72,49,71
93.3,93.6,74,49,71
93.6,93.9,76,49,71
94.5,94.8,75,49,71
94.8,95.1,76,49,71
95.1,95.4,78,49,71
95.4,95.7,76,49,71
95.7,96.0,74,49,71
96.0,96.3,72,49,71
96.3,96.6,71,49,71
96.6,96.9,69,49,71
96.9,97.2,66,49,71
97.2,97.8,65,36,71
97.8,98.1,50,36,71
98.1,98.7,51,36,71
98.7,99.0,51,36,71
99.0,99.3,50,36,71
99.3,99.6,53,36,71
99.6,99.9,50,36,71
99.9,100.5,51,36,71
100.5,100.8,51,36,71
100.8,101.1,50,36,71
101.1,101.4,53,36,71
101.4,101.7,50,36,71
101.7,102.3,57,36,71
102.3,102.6,57,36,71
102.6,103.5,59,36,71
103.5,104.1,57,36,71
104.1,104.4,57,36,71
104.4,105.3,59,36,71
105.3,106.2,59,36,71
106.2,106.8,71,36,71
106.8,107.1,74,36,71
107.1,107.4,72,88,71
107.4,107.7,71,88,71
107.7,108.0,69,88,71
108.0,111.6,68,88,71
111.6,113.4,69,36,71
135.3,135.6,62,36,71
135.6,136.2,65,36,71
136.2,136.35,60,36,71
136.35,136.5,62,36,71
136.5,137.1,63,36,71
137.1,137.4,62,36,71
137.4,138.0,65,36,71
138.0,138.15,60,36,71
138.15,138.3,62,36,71
138.3,138.6,63,36,71
138.6,138.9,63,36,71
138.9,139.2,62,36,71
139.2,139.8,67,36,71
139.8,139.95,66,36,71
139.95,140.1,67,36,71
140.1,140.7,69,36,71
140.7,141.0,62,36,71
141.0,141.6,67,36,71
141.6,141.75,66,36,71
141.75,141.9,67,36,71
141.9,142.5,69,36,71
142.5,142.8,62,36,71
142.8,143.4,67,36,71
143.4,143.55,65,36,71
143.55,143.7,67,36,71
143.7,144.3,63,36,71
144.3,144.45,62,36,71
144.45,144.6,63,36,71
144.6,144.9,58,36,71
144.9,145.5,62,36,71
145.5,145.8,61,36,71
145.8,146.1,62,36,71
146.7,147.0,61,49,71
147.0,147.3,62,49,71
147.3,147.6,64,49,71
147.6,147.9,65,49,71
148.5,148.8,64,49,71
148.8,149.1,65,49,71
149.1,149.4,67,49,71
149.4,149.7,69,49,71
150.3,150.6,64,49,71
150.6,150.9,65,49,71
150.9,151.2,67,49,71
151.2,151.5,69,49,71
152.1,152.4,68,49,71
152.4,152.7,69,49,71
152.7,153.0,71,49,71
153.0,153.3,64,49,71
156.6,157.2,79,49,71
157.2,157.5,77,49,71
157.5,157.8,75,49,71
157.8,158.1,74,49,71
158.1,158.4,77,49,71
158.4,158.7,75,49,71
158.7,159.0,70,49,71
159.0,159.3,67,49,71
159.3,159.75,65,49,71
159.75,159.9,67,49,71
159.9,160.2,64,49,71
160.2,160.8,62,49,71
165.6,166.5,77,49,71
166.5,166.8,74,49,71
180.9,182.7,69,88,71
182.7,183.6,57,88,71
183.6,184.5,69,88,71
184.5,185.1,77,88,71
185.1,185.4,77,88,71
185.4,186.0,78,88,71
186.0,186.9,79,88,71
186.9,187.2,79,88,71
187.2,187.8,78,88,71
187.8,188.7,79,88,71
189.0,192.3,67,88,71
192.3,192.6,67,88,71
192.6,193.2,67,88,71
197.1,198.0,74,88,71
198.0,198.9,74,88,71
198.9,199.8,76,88,71
199.8,200.7,77,88,71
200.7,201.0,74,88,71
203.1,204.0,62,88,71
204.0,204.9,62,88,71
204.9,205.2,65,88,71
205.2,205.5,67,88,71
205.5,205.8,65,88,71
205.8,206.1,63,88,71
206.1,206.4,62,88,71
206.4,206.7,63,88,71
206.7,207.0,60,88,71
207.0,207.6,62,88,71
207.6,208.5,62,88,71
208.5,209.1,70,88,71
209.1,209.4,69,88,71
209.4,210.0,67,88,71
210.0,210.3,65,88,71
210.3,210.6,63,88,71
210.6,211.2,65,88,71
211.2,213.0,74,88,71
213.0,214.2,74,88,71
214.2,214.8,77,88,71
214.8,216.0,77,88,71
216.0,216.6,77,88,71
216.6,217.8,72,88,71
217.8,218.1,72,88,71
218.7,219.0,70,49,71
219.6,219.9,72,49,71
220.5,220.8,70,49,71
221.4,221.52,70,49,71
222.3,222.42,71,49,71
223.2,223.32,70,49,71
224.1,224.22,71,49,71
225.9,226.35,65,49,71
226.35,226.41,71,49,71
226.5,226.56,74,49,71
226.65,226.71,77,49,71
226.8,227.1,76,49,71
227.7,228.15,63,49,71
228.15,228.21,69,49,71
228.3,228.36,72,49,71
228.45,228.51,75,49,71
228.6,228.9,74,49,71
229.5,229.95,61,49,71
229.95,230.01,65,49,71
230.1,230.16,68,49,71
230.25,230.31,73,49,71
230.4,230.7,72,49,71
231.3,231.75,60,49,71
231.75,231.81,64,49,71
231.9,231.96,67,49,71
232.05,232.11,72,49,71
232.2,233.1,77,75,71
233.1,233.4,65,49,71
235.8,237.6,65,49,71
237.6,239.4,63,49,71
239.4,241.2,65,49,71
241.2,243.0,66,49,71
243.0,246.6,65,49,71
246.6,247.2,64,49,71
247.2,248.1,68,49,71
248.1,248.4,73,49,71
248.4,250.2,80,49,71
250.2,250.8,81,49,71
253.5,253.8,64,49,71
253.8,254.1,64,49,71
257.1,257.4,64,49,71
257.4,257.7,64,49,71
259.2,259.8,60,49,71
259.8,260.1,64,49,71
260.1,260.7,64,49,71
260.7,261.0,69,49,71
261.0,261.9,72,49,71
261.9,262.8,72,49,71
262.8,264.6,71,88,71
264.6,266.1,72,88,71
267.9,268.8,77,101,71
268.8,269.7,74,101,71
269.7,270.0,77,101,71
270.0,270.3,79,101,71
270.3,270.6,77,101,71
270.6,270.9,75,101,71
270.9,271.2,74,101,71
271.2,271.5,75,101,71
271.5,271.8,72,101,71
271.8,272.4,74,101,71
272.4,273.3,74,101,71
273.3,273.6,77,101,71
273.6,273.9,82,101,71
273.9,274.2,81,101,71
274.2,274.5,79,101,71
274.5,274.8,79,101,71
274.8,275.1,77,101,71
275.1,275.4,75,101,71
275.4,276.0,77,101,71
276.0,276.9,77,101,71
276.9,277.2,79,101,71
277.2,277.8,81,101,71
277.8,278.7,74,101,71
278.7,279.0,77,101,71
279.0,279.6,69,101,71
279.6,280.5,69,101,71
280.5,280.8,71,101,71
280.8,281.4,72,101,71
281.4,282.3,77,101,71
282.3,282.6,81,101,71
282.6,283.2,78,101,71
283.2,284.1,79,101,71
284.1,284.4,79,101,71
284.4,285.0,78,101,71
285.0,285.9,79,101,71
285.9,286.2,79,101,71
286.2,286.8,73,101,71
286.8,287.7,74,101,71
287.7,288.0,74,101,71
288.0,288.6,73,101,71
288.6,289.5,74,101,71
289.5,289.8,74,101,71
289.8,290.4,74,101,71
290.7,291.15,65,101,71
291.15,291.21,71,101,71
291.3,291.36,74,101,71
291.45,291.51,77,101,71
291.6,291.9,76,101,71
292.5,292.95,63,101,71
292.95,293.01,69,101,71
293.1,293.16,72,101,71
293.25,293.31,75,101,71
293.4,293.7,74,101,71
294.3,294.75,67,101,71
294.75,294.81,72,101,71
294.9,294.96,75,101,71
295.05,295.11,79,101,71
295.2,295.5,77,101,71
296.1,296.55,69,101,71
296.55,296.61,72,101,71
296.7,296.76,77,101,71
296.85,296.91,81,101,71
297.0,297.9,82,88,71
297.9,298.2,70,88,71
300.3,301.2,65,49,71
301.2,302.1,70,49,71
302.1,302.4,74,49,71
302.4,302.7,75,49,71
302.7,302.82,74,49,71
303.0,303.12,72,49,71
303.3,303.42,70,49,71
303.6,303.9,72,49,71
303.9,304.2,69,49,71
304.2,304.8,65,49,71
304.8,305.7,70,49,71
305.7,306.0,74,49,71
306.0,306.3,79,49,71
306.3,306.6,77,49,71
306.6,306.9,75,49,71
306.9,307.2,75,49,71
307.2,307.5,74,49,71
307.5,307.8,72,49,71
307.8,308.4,74,49,71
308.4,309.3,77,49,71
309.3,309.6,80,49,71
309.6,311.4,82,49,71
311.4,312.0,62,49,71
312.0,312.9,65,49,71
312.9,313.2,68,49,71
313.2,315.0,70,49,71
315.6,316.2,68,49,71
317.4,318.0,69,49,71
319.2,319.8,70,49,71
321.0,321.6,70,36,71
322.8,323.4,70,36,71
336.9,337.2,64,36,71
337.2,337.8,67,36,71
337.8,337.95,62,36,71
337.95,338.1,64,36,71
338.1,338.7,65,36,71
338.7,339.0,64,36,71
339.0,339.6,67,36,71
339.6,339.75,62,36,71
339.75,339.9,64,36,71
339.9,340.5,65,36,71
340.5,340.8,64,36,71
340.8,341.4,69,36,71
341.4,341.55,68,36,71
341.55,341.7,69,36,71
341.7,342.3,71,36,71
342.3,342.6,64,36,71
342.6,343.2,69,36,71
343.2,343.35,68,36,71
343.35,343.5,69,36,71
343.5,344.1,71,36,71
344.1,344.4,64,36,71
344.4,345.0,69,36,71
345.0,345.15,67,36,71
345.15,345.3,69,36,71
345.3,345.9,65,36,71
345.9,346.05,64,36,71
346.05,346.2,65,36,71
346.2,346.8,62,36,71
346.8,347.1,60,36,71
347.1,347.4,62,36,71
347.4,348.3,59,36,71
348.3,348.6,57,36,71
349.2,350.1,59,36,71
350.1,350.4,57,36,71
351.0,351.9,67,36,71
351.9,352.2,64,36,71
352.8,353.7,67,36,71
353.7,354.0,64,36,71
358.2,359.1,67,75,71
360.0,360.9,67,75,71
360.9,361.2,66,49,71
361.8,362.7,66,49,71
363.6,364.5,66,49,71
365.4,366.0,75,49,71
366.0,366.3,75,49,71
366.3,366.6,78,49,71
366.6,366.9,75,49,71
366.9,367.2,78,49,71
367.2,367.5,75,49,71
367.5,367.8,78,49,71
367.8,368.1,75,49,71
368.1,368.7,78,49,71
368.7,369.0,75,49,71
369.0,369.3,78,49,71
369.3,369.6,75,49,71
369.6,369.9,78,49,71
369.9,370.2,75,49,71
370.2,370.5,78,49,71
370.5,370.8,75,49,71
370.8,371.1,69,49,71
371.1,371.4,68,49,71
371.4,372.0,71,49,71
372.0,372.15,66,49,71
372.15,372.3,68,49,71
372.3,372.9,69,49,71
372.9,373.2,68,49,71
373.2,373.8,71,49,71
373.8,373.95,66,49,71
373.95,374.1,68,49,71
374.1,374.7,69,49,71
374.7,375.0,68,49,71
375.0,375.6,76,49,71
375.6,375.75,66,49,71
375.75,375.9,68,49,71
375.9,376.5,69,49,71
376.5,376.8,68,49,71
376.8,377.1,76,49,71
377.1,377.4,68,49,71
377.4,377.7,69,49,71
377.7,378.0,71,49,71
378.0,378.3,72,49,71
378.9,379.2,68,49,71
379.2,379.5,69,49,71
379.5,379.8,71,49,71
379.8,380.1,72,49,71
380.7,381.0,71,49,71
381.0,381.3,72,49,71
381.3,381.6,74,49,71
381.6,381.9,76,49,71
382.5,382.8,71,49,71
382.8,383.1,72,49,71
383.1,383.4,74,49,71
383.4,383.7,76,49,71
384.3,384.6,75,49,71
384.6,384.9,76,49,71
384.9,385.2,78,49,71
385.2,385.5,76,49,71
385.5,385.8,74,49,71
385.8,386.1,72,49,71
386.1,386.4,70,49,71
386.4,386.7,69,49,71
386.7,387.0,66,49,71
387.0,387.3,65,49,71
389.7,390.0,68,49,71
390.0,390.3,69,49,71
390.3,390.6,71,49,71
390.6,390.9,72,49,71
391.5,391.8,71,49,71
391.8,392.1,72,49,71
392.1,392.4,74,49,71
392.4,392.7,76,49,71
393.3,393.6,71,49,71
393.6,393.9,72,49,71
393.9,394.2,74,49,71
394.2,394.5,76,49,71
395.1,395.4,75,49,71
395.4,395.7,76,49,71
395.7,396.0,78,49,71
396.0,396.3,76,49,71
396.3,396.6,74,49,71
396.6,396.9,72,49,71
396.9,397.2,71,49,71
397.2,397.5,69,49,71
397.5,397.8,66,49,71
397.8,398.4,65,49,71
398.4,398.7,50,49,71
398.7,399.3,51,49,71
399.3,399.6,51,49,71
399.6,399.9,50,49,71
399.9,400.2,53,49,71
400.2,400.5,50,49,71
400.5,401.1,51,49,71
401.1,401.4,51,49,71
401.4,401.7,50,49,71
401.7,402.0,53,49,71
402.0,402.3,50,49,71
402.3,402.9,57,49,71
402.9,403.2,57,49,71
403.2,404.1,59,49,71
404.1,404.7,57,49,71
404.7,405.0,57,49,71
405.0,405.9,59,49,71
405.9,406.8,59,49,71
406.8,407.4,71,49,71
407.4,407.7,74,49,71
407.7,408.0,72,49,71
408.0,408.3,71,49,71
408.3,408.6,69,49,71
408.6,412.2,68,49,71
412.2,414.0,69,36,71
435.9,436.2,62,36,71
436.2,436.8,65,36,71
436.8,436.95,60,36,71
436.95,437.1,62,36,71
437.1,437.7,63,36,71
437.7,438.0,62,36,71
438.0,438.6,65,36,71
438.6,438.75,60,36,71
438.75,438.9,62,36,71
438.9,439.2,63,36,71
439.2,439.5,63,36,71
439.5,439.8,62,36,71
439.8,440.4,67,36,71
440.4,440.55,66,36,71
440.55,440.7,67,36,71
440.7,441.3,69,36,71
441.3,441.6,62,36,71
441.6,442.2,67,36,71
442.2,442.35,66,36,71
442.35,442.5,67,36,71
442.5,443.1,69,36,71
443.1,443.4,62,36,71
443.4,444.0,67,36,71
444.0,444.15,65,36,71
444.15,444.3,67,36,71
444.3,444.9,63,36,71
444.9,445.05,62,36,71
445.05,445.2,63,36,71
445.2,445.5,58,36,71
445.5,446.1,62,36,71
446.1,446.4,61,36,71
446.4,446.7,62,36,71
447.3,447.6,61,49,71
447.6,447.9,62,49,71
447.9,448.2,64,49,71
448.2,448.5,65,49,71
449.1,449.4,64,49,71
449.4,449.7,65,49,71
449.7,450.0,67,49,71
450.0,450.3,69,49,71
450.9,451.2,64,49,71
451.2,451.5,65,49,71
451.5,451.8,67,49,71
451.8,452.1,69,49,71
452.7,453.0,68,49,71
453.0,453.3,69,49,71
453.3,453.6,71,49,71
453.6,453.9,64,49,71
457.2,457.8,79,49,71
457.8,458.1,77,49,71
458.1,458.4,75,49,71
458.4,458.7,74,49,71
458.7,459.0,77,49,71
459.0,459.3,75,49,71
459.3,459.6,70,49,71
459.6,459.9,67,49,71
459.9,460.35,65,49,71
460.35,460.5,67,49,71
460.5,460.8,64,49,71
460.8,461.4,62,49,71
466.2,467.1,77,49,71
467.1,467.4,74,49,71
11.1,11.4,64,64,71
11.4,12.0,60,64,71
12.0,12.15,59,64,71
12.15,12.3,60,64,71
12.3,12.9,62,64,71
12.9,13.8,60,64,71
13.8,13.95,59,64,71
13.95,14.1,60,64,71
14.1,14.7,62,64,71
14.7,15.3,60,64,71
15.3,15.6,59,64,71
15.6,15.75,64,64,71
15.75,15.9,66,64,71
15.9,16.5,68,64,71
16.5,17.4,64,64,71
17.4,17.55,64,64,71
17.55,17.7,66,64,71
17.7,18.3,68,64,71
18.3,18.6,64,64,71
18.6,19.2,64,64,71
19.2,19.5,64,64,71
19.5,20.1,60,64,71
20.1,20.4,60,64,71
20.4,21.0,59,64,71
21.0,21.3,57,64,71
21.3,21.6,58,64,71
21.6,22.5,56,64,71
22.5,22.8,57,64,71
23.4,24.3,56,64,71
24.3,24.6,57,64,71
25.2,26.1,62,64,71
26.1,26.4,61,64,71
27.0,27.9,62,64,71
27.9,28.2,60,64,71
36.3,36.6,64,64,71
36.6,37.2,60,64,71
37.2,37.35,59,64,71
37.35,37.5,60,64,71
37.5,38.1,62,64,71
38.1,39.0,60,64,71
39.0,39.15,59,64,71
39.15,39.3,60,64,71
39.3,39.9,62,64,71
39.9,40.5,60,64,71
40.5,40.8,59,64,71
40.8,40.95,64,64,71
40.95,41.1,66,64,71
41.1,41.7,68,64,71
41.7,42.6,64,64,71
42.6,42.75,64,64,71
42.75,42.9,66,64,71
42.9,43.5,68,64,71
43.5,43.8,64,64,71
43.8,44.4,64,64,71
44.4,44.7,64,64,71
44.7,45.3,60,64,71
45.3,45.6,60,64,71
45.6,46.2,59,64,71
46.2,46.5,57,64,71
46.5,46.8,58,64,71
46.8,47.7,56,64,71
47.7,48.0,57,64,71
48.6,49.5,56,64,71
49.5,49.8,57,64,71
50.4,51.3,62,64,71
51.3,51.6,61,64,71
52.2,53.1,62,64,71
53.1,53.4,60,64,71
57.6,58.5,64,90,71
59.4,60.3,64,90,71
60.3,60.6,63,64,71
61.2,62.1,63,64,71
63.0,63.9,63,64,71
64.8,70.2,66,36,71
70.2,70.5,66,36,71
70.5,70.8,64,36,71
70.8,71.4,68,36,71
71.4,71.55,63,36,71
71.55,71.7,64,36,71
71.7,72.3,66,36,71
72.3,72.6,64,36,71
72.6,73.2,68,36,71
73.2,73.35,63,36,71
73.35,73.5,64,36,71
73.5,74.1,66,36,71
74.1,74.4,64,36,71
74.4,75.0,68,36,71
75.0,75.15,63,36,71
75.15,75.3,64,36,71
75.3,75.9,66,36,71
75.9,76.2,64,36,71
76.2,76.5,68,36,71
76.5,76.8,64,49,71
76.8,77.1,66,49,71
77.1,77.4,68,49,71
77.4,77.7,69,49,71
78.3,78.6,64,49,71
78.6,78.9,66,49,71
78.9,79.2,68,49,71
79.2,79.5,69,49,71
80.1,80.4,67,49,71
80.4,80.7,69,49,71
80.7,81.0,71,49,71
81.0,81.3,72,49,71
81.9,82.2,67,49,71
82.2,82.5,69,49,71
82.5,82.8,71,49,71
82.8,83.1,72,49,71
83.7,84.0,71,49,71
84.0,84.3,73,49,71
84.3,84.6,75,49,71
84.6,85.2,71,49,71
85.2,85.5,69,49,71
85.5,85.8,67,49,71
85.8,86.1,65,49,71
86.1,86.4,63,49,71
86.4,86.7,62,49,71
86.7,87.0,63,49,71
87.0,87.3,65,49,71
87.3,87.6,60,49,71
87.6,87.9,57,49,71
87.9,88.2,59,49,71
88.2,88.5,60,49,71
89.1,89.4,64,49,71
89.4,89.7,66,49,71
89.7,90.0,68,49,71
90.0,90.3,69,49,71
90.9,91.2,67,49,71
91.2,91.5,69,49,71
91.5,91.8,71,49,71
91.8,92.1,72,49,71
92.7,93.0,67,49,71
93.0,93.3,69,49,71
93.3,93.6,71,49,71
93.6,93.9,72,49,71
94.5,94.8,71,49,71
94.8,95.1,73,49,71
95.1,95.4,75,49,71
95.4,96.0,71,49,71
96.0,96.3,69,49,71
96.3,96.6,67,49,71
96.6,96.9,65,49,71
96.9,97.2,63,49,71
97.2,97.5,62,36,71
97.5,97.8,60,36,71
97.8,98.1,58,36,71
98.1,98.7,54,36,71
98.7,99.0,54,36,71
99.0,99.9,53,36,71
99.9,100.5,54,36,71
100.5,100.8,54,36,71
100.8,101.7,53,36,71
101.7,102.3,54,36,71
102.3,102.6,54,36,71
102.6,103.5,56,36,71
103.5,104.1,54,36,71
104.1,104.4,54,36,71
104.4,105.3,56,36,71
105.3,106.2,56,36,71
106.2,107.1,68,36,71
107.1,107.4,69,88,71
107.4,107.7,68,88,71
107.7,108.0,66,88,71
108.0,108.3,64,88,71
109.8,111.6,65,36,71
111.6,113.4,66,36,71
113.4,114.3,72,36,71
114.3,115.2,73,36,71
115.2,117.0,68,36,71
135.3,135.6,62,36,71
135.6,136.2,58,36,71
136.2,136.35,57,36,71
136.35,136.5,58,36,71
136.5,137.1,60,36,71
137.1,137.4,62,36,71
137.4,138.0,58,36,71
138.0,138.15,57,36,71
138.15,138.3,58,36,71
138.3,138.9,60,36,71
138.9,139.2,62,36,71
139.2,139.8,58,36,71
139.8,139.95,57,36,71
139.95,140.1,58,36,71
140.1,140.7,60,36,71
140.7,141.0,62,36,71
141.0,141.6,58,36,71
141.6,141.75,57,36,71
141.75,141.9,58,36,71
141.9,142.5,60,36,71
142.5,142.8,58,36,71
142.8,143.1,62,36,71
143.1,143.7,62,36,71
143.7,144.0,58,36,71
144.0,144.6,58,36,71
146.7,147.0,57,49,71
147.0,147.3,59,49,71
147.3,147.6,61,49,71
147.6,147.9,62,49,71
148.5,148.8,60,49,71
148.8,149.1,62,49,71
149.1,149.4,64,49,71
149.4,149.7,65,49,71
150.3,150.6,60,49,71
150.6,150.9,62,49,71
150.9,151.2,64,49,71
151.2,151.5,65,49,71
152.1,152.4,64,49,71
152.4,152.7,66,49,71
152.7,153.0,68,49,71
153.0,153.3,69,49,71
156.6,157.2,76,49,71
157.2,157.5,74,49,71
157.5,157.8,69,49,71
157.8,158.1,70,49,71
158.1,158.4,65,49,71
158.4,158.7,67,49,71
158.7,159.0,65,49,71
159.0,159.3,63,49,71
159.3,159.75,62,49,71
159.75,159.9,64,49,71
159.9,160.2,61,49,71
160.2,160.8,62,49,71
165.6,166.5,69,49,71
166.5,166.8,62,49,71
171.0,171.9,50,88,71
171.9,172.8,50,88,71
172.8,173.7,53,88,71
173.7,174.6,53,88,71
174.6,175.5,50,88,71
175.5,176.4,50,88,71
176.4,177.3,51,88,71
177.3,178.2,53,88,71
178.2,179.1,53,88,71
179.1,180.0,53,88,71
180.0,180.9,53,88,71
180.9,181.8,53,88,71
181.8,182.7,57,88,71
182.7,183.6,53,88,71
183.6,184.5,65,88,71
184.5,185.1,69,88,71
185.1,185.4,65,88,71
185.4,186.0,69,88,71
186.0,186.9,67,88,71
186.9,187.2,67,88,71
187.2,187.8,69,88,71
187.8,188.7,67,88,71
188.7,189.0,72,88,71
189.0,189.6,70,88,71
189.6,190.5,71,88,71
190.5,190.8,71,88,71
190.8,191.4,70,88,71
191.4,192.3,71,88,71
192.3,193.2,71,88,71
197.1,198.0,71,88,71
198.0,198.9,71,88,71
198.9,199.8,69,88,71
199.8,200.7,69,88,71
200.7,201.0,69,88,71
203.1,204.0,53,88,71
204.0,204.9,58,88,71
204.9,205.2,62,88,71
205.2,205.5,63,88,71
205.5,205.8,62,88,71
205.8,206.1,60,88,71
206.1,206.4,58,88,71
206.4,206.7,60,88,71
206.7,207.0,57,88,71
207.0,207.6,53,88,71
207.6,208.5,58,88,71
208.5,208.8,62,88,71
208.8,209.1,67,88,71
209.1,209.4,65,88,71
209.4,210.0,63,88,71
210.0,210.3,62,88,71
210.3,210.6,60,88,71
210.6,211.2,62,88,71
211.2,213.0,65,88,71
213.0,214.2,65,88,71
214.2,214.8,69,88,71
214.8,216.0,69,88,71
216.0,216.6,69,88,71
216.6,217.8,69,88,71
217.8,218.1,66,88,71
218.7,219.0,67,49,71
219.6,219.9,66,49,71
220.5,220.8,67,49,71
221.4,221.52,61,49,71
222.3,222.42,62,49,71
223.2,223.32,61,49,71
224.1,224.22,62,49,71
225.0,227.7,71,49,71
227.7,228.6,72,49,71
228.6,230.4,65,49,71
230.4,231.3,65,49,71
231.3,232.2,60,49,71
232.2,233.1,57,49,71
235.8,237.6,56,49,71
237.6,239.4,54,49,71
239.4,241.2,56,49,71
241.2,243.0,58,49,71
243.0,246.6,57,49,71
246.6,249.3,56,49,71
249.9,250.2,52,49,71
250.2,250.5,64,49,71
253.5,253.8,52,49,71
253.8,254.1,52,49,71
257.1,257.4,52,49,71
257.4,257.7,52,49,71
258.9,259.2,52,49,71
259.2,259.5,52,49,71
260.7,261.0,64,49,71
261.0,261.9,63,49,71
261.9,262.5,63,49,71
262.5,262.8,63,49,71
262.8,264.3,63,88,71
264.3,264.6,63,88,71
264.6,266.1,63,88,71
267.9,268.8,53,101,71
268.8,269.7,58,101,71
269.7,270.0,62,101,71
270.0,270.3,63,101,71
270.3,270.6,62,101,71
270.6,270.9,60,101,71
270.9,271.2,58,101,71
271.2,271.5,60,101,71
271.5,271.8,57,101,71
271.8,272.4,53,101,71
272.4,273.3,58,101,71
273.3,273.6,62,101,71
273.6,273.9,67,101,71
273.9,274.2,65,101,71
274.2,274.5,63,101,71
274.5,274.8,63,101,71
274.8,275.1,62,101,71
275.1,275.4,60,101,71
275.4,276.0,62,101,71
276.0,276.9,65,101,71
276.9,277.2,67,101,71
277.2,277.8,69,101,71
277.8,278.7,74,101,71
278.7,279.0,77,101,71
279.0,279.6,69,101,71
279.6,280.5,69,101,71
280.5,280.8,71,101,71
280.8,281.4,72,101,71
281.4,282.3,65,101,71
282.3,282.6,69,101,71
282.6,283.2,69,101,71
283.2,284.1,70,101,71
284.1,284.4,70,101,71
284.4,285.0,69,101,71
285.0,285.9,70,101,71
285.9,286.2,70,101,71
286.2,286.8,69,101,71
286.8,287.7,71,101,71
287.7,288.0,71,101,71
288.0,288.6,69,101,71
288.6,288.9,71,101,71
288.9,289.5,70,101,71
289.5,289.8,71,101,71
289.8,290.7,71,101,71
290.7,291.6,71,101,71
291.6,292.5,71,101,71
292.5,293.4,72,101,71
293.4,294.3,70,101,71
294.3,295.2,72,101,71
295.2,296.1,74,101,71
296.1,297.0,75,101,71
297.0,297.9,74,88,71
297.9,298.2,70,88,71
300.3,301.2,53,49,71
301.2,302.1,58,49,71
302.1,302.4,62,49,71
302.4,302.7,63,49,71
302.7,303.0,62,49,71
303.0,303.3,60,49,71
303.3,303.6,58,49,71
303.6,303.9,60,49,71
303.9,304.2,57,49,71
304.2,304.8,53,49,71
304.8,305.7,58,49,71
305.7,306.0,62,49,71
306.0,306.3,67,49,71
306.3,306.6,65,49,71
306.6,306.9,63,49,71
306.9,307.2,63,49,71
307.2,307.5,62,49,71
307.5,307.8,60,49,71
307.8,308.4,62,49,71
308.4,309.3,65,49,71
309.3,309.6,68,49,71
309.6,311.4,70,49,71
311.4,312.0,62,49,71
312.0,312.9,65,49,71
312.9,313.2,68,49,71
313.2,315.0,70,49,71
315.6,316.2,68,49,71
317.4,318.0,69,49,71
319.2,319.8,70,49,71
321.0,321.6,70,49,71
322.8,323.4,70,49,71
336.9,337.2,64,49,71
337.2,337.8,60,49,71
337.8,337.95,59,49,71
337.95,338.1,60,49,71
338.1,338.7,62,49,71
338.7,339.6,60,49,71
339.6,339.75,59,49,71
339.75,339.9,60,49,71
339.9,340.5,62,49,71
340.5,341.1,60,49,71
341.1,341.4,59,49,71
341.4,341.55,64,49,71
341.55,341.7,66,49,71
341.7,342.3,68,49,71
342.3,343.2,64,49,71
343.2,343.35,64,49,71
343.35,343.5,66,49,71
343.5,344.1,68,49,71
344.1,344.4,64,49,71
344.4,345.0,64,49,71
345.0,345.3,64,49,71
345.3,345.9,60,49,71
345.9,346.2,60,49,71
346.2,346.8,59,49,71
346.8,347.1,57,49,71
347.1,347.4,58,49,71
347.4,348.3,56,49,71
348.3,348.6,57,49,71
349.2,350.1,56,49,71
350.1,350.4,57,49,71
351.0,351.9,62,49,71
351.9,352.2,61,49,71
352.8,353.7,62,49,71
353.7,354.0,60,49,71
358.2,359.1,64,75,71
360.0,360.9,64,75,71
360.9,361.2,63,49,71
361.8,362.7,63,49,71
363.6,364.5,63,49,71
365.4,370.8,66,36,71
370.8,371.1,66,36,71
371.1,371.4,64,36,71
371.4,372.0,68,36,71
372.0,372.15,63,36,71
372.15,372.3,64,36,71
372.3,372.9,66,36,71
372.9,373.2,64,36,71
373.2,373.8,68,36,71
373.8,373.95,63,36,71
373.95,374.1,64,36,71
374.1,374.7,66,36,71
374.7,375.0,64,36,71
375.0,375.6,68,36,71
375.6,375.75,63,36,71
375.75,375.9,64,36,71
375.9,376.5,66,36,71
376.5,376.8,64,36,71
376.8,377.1,68,36,71
377.1,377.4,64,49,71
377.4,377.7,66,49,71
377.7,378.0,68,49,71
378.0,378.3,69,49,71
378.9,379.2,64,49,71
379.2,379.5,66,49,71
379.5,379.8,68,49,71
379.8,380.1,69,49,71
380.7,381.0,67,49,71
381.0,381.3,69,49,71
381.3,381.6,71,49,71
381.6,381.9,72,49,71
382.5,382.8,67,49,71
382.8,383.1,69,49,71
383.1,383.4,71,49,71
383.4,383.7,72,49,71
384.3,384.6,71,49,71
384.6,384.9,73,49,71
384.9,385.2,75,49,71
385.2,385.8,71,49,71
385.8,386.1,69,49,71
386.1,386.4,67,49,71
386.4,386.7,65,49,71
386.7,387.0,63,49,71
387.0,387.3,62,49,71
387.3,387.6,63,49,71
387.6,387.9,65,49,71
387.9,388.2,60,49,71
388.2,388.5,57,49,71
388.5,388.8,59,49,71
388.8,389.1,60,49,71
389.7,390.0,64,49,71
390.0,390.3,66,49,71
390.3,390.6,68,49,71
390.6,390.9,69,49,71
391.5,391.8,67,49,71
391.8,392.1,69,49,71
392.1,392.4,71,49,71
392.4,392.7,72,49,71
393.3,393.6,67,49,71
393.6,393.9,69,49,71
393.9,394.2,71,49,71
394.2,394.5,72,49,71
395.1,395.4,71,49,71
395.4,395.7,73,49,71
395.7,396.0,75,49,71
396.0,396.6,71,49,71
396.6,396.9,69,49,71
396.9,397.2,67,49,71
397.2,397.5,65,49,71
397.5,397.8,63,49,71
397.8,398.1,62,49,71
398.1,398.4,60,49,71
398.4,398.7,58,49,71
398.7,399.3,54,49,71
399.3,399.6,54,49,71
399.6,400.5,53,49,71
400.5,401.1,54,49,71
401.1,401.4,54,49,71
401.4,402.3,53,49,71
402.3,402.9,54,49,71
402.9,403.2,54,49,71
403.2,404.1,56,49,71
404.1,404.7,54,49,71
404.7,405.0,54,49,71
405.0,405.9,56,49,71
405.9,406.8,56,49,71
406.8,407.7,68,49,71
407.7,408.0,69,49,71
408.0,408.3,68,49,71
408.3,408.6,66,49,71
408.6,408.9,64,49,71
410.4,412.2,65,36,71
412.2,414.0,66,36,71
414.0,414.9,72,36,71
414.9,415.8,73,36,71
415.8,417.6,68,36,71
435.9,436.2,62,36,71
436.2,436.8,58,36,71
436.8,436.95,57,36,71
436.95,437.1,58,36,71
437.1,437.7,60,36,71
437.7,438.0,62,36,71
438.0,438.6,58,36,71
438.6,438.75,57,36,71
438.75,438.9,58,36,71
438.9,439.5,60,36,71
439.5,439.8,62,36,71
439.8,440.4,58,36,71
440.4,440.55,57,36,71
440.55,440.7,58,36,71
440.7,441.3,60,36,71
441.3,441.6,62,36,71
441.6,442.2,58,36,71
442.2,442.35,57,36,71
442.35,442.5,58,36,71
442.5,443.1,60,36,71
443.1,443.4,58,36,71
443.4,443.7,62,36,71
443.7,444.3,62,36,71
444.3,444.6,58,36,71
444.6,445.2,58,36,71
447.3,447.6,57,49,71
447.6,447.9,59,49,71
447.9,448.2,61,49,71
448.2,448.5,62,49,71
449.1,449.4,60,49,71
449.4,449.7,62,49,71
449.7,450.0,64,49,71
450.0,450.3,65,49,71
450.9,451.2,60,49,71
451.2,451.5,62,49,71
451.5,451.8,64,49,71
451.8,452.1,65,49,71
452.7,453.0,64,49,71
453.0,453.3,66,49,71
453.3,453.6,68,49,71
453.6,453.9,69,49,71
457.2,457.8,76,49,71
457.8,458.1,74,49,71
458.1,458.4,69,49,71
458.4,458.7,70,49,71
458.7,459.0,65,49,71
459.0,459.3,67,49,71
459.3,459.6,65,49,71
459.6,459.9,63,49,71
459.9,460.35,62,49,71
460.35,460.5,64,49,71
460.5,460.8,61,49,71
460.8,461.4,62,49,71
466.2,467.1,69,49,71
467.1,467.4,62,49,71
