start_time,end_time,note_value,velocity,instrument_program_number
11.892845,11.999988,86,88,73
11.999988,12.428559,81,88,73
13.607129,13.714272,90,88,73
13.714272,14.142843,85,88,73
17.035698,17.14284,86,88,73
17.14284,17.571411,88,114,73
20.357122,20.370516,86,88,73
20.571407,20.742836,88,127,73
23.571405,23.65712,83,49,73
23.78569,23.871405,79,49,73
23.999975,24.013369,76,49,73
24.214262,24.299976,83,49,73
24.428547,24.514261,79,49,73
24.642832,24.728546,76,49,73
24.857119,24.942833,73,49,73
25.071404,25.157118,79,49,73
25.285688,25.371403,76,49,73
25.499975,25.58569,73,49,73
25.71426,25.799974,69,88,73
29.035685,29.142828,86,88,73
29.142828,29.5714,81,88,73
30.74997,30.857113,78,88,73
30.857113,31.071398,76,88,73
31.178541,31.285683,78,88,73
31.285683,31.499968,79,88,73
31.607111,31.714254,80,88,73
31.714254,31.92854,81,88,73
32.035683,32.142826,83,88,73
32.142826,32.35711,85,88,73
32.464252,32.571396,86,88,73
32.571396,32.785683,88,88,73
32.892826,32.999966,83,88,73
32.999966,33.214252,85,88,73
33.321396,33.42854,86,88,73
33.42854,33.642822,88,88,73
33.749966,33.85711,83,88,73
33.85711,34.071396,85,88,73
34.178535,34.28568,86,88,73
34.28568,35.03568,86,101,73
35.03568,35.142822,86,101,73
35.142822,35.892822,86,101,73
35.892822,35.999966,86,101,73
35.999966,36.74996,86,101,73
36.74996,36.857105,86,101,73
36.857105,37.607105,86,101,73
37.607105,37.71425,86,101,73
37.71425,38.46425,80,101,73
38.46425,38.57139,80,101,73
38.57139,39.42853,80,101,73
39.42853,40.17853,79,101,73
40.17853,40.285675,79,101,73
40.285675,40.39282,91,101,73
40.39282,40.499958,90,101,73
40.499958,40.6071,88,101,73
40.6071,40.714245,86,101,73
40.714245,40.82139,85,101,73
40.82139,40.92853,83,101,73
40.92853,41.035675,81,101,73
41.035675,41.142815,85,101,73
41.142815,41.3571,86,101,73
41.464245,41.57139,81,101,73
41.57139,41.78567,83,101,73
41.892815,41.999958,85,101,73
41.999958,42.214245,86,101,73
42.321384,42.428528,81,101,73
42.428528,42.642815,85,101,73
42.749958,42.8571,86,101,73
42.8571,43.071384,90,101,73
43.178528,43.28567,83,101,73
43.28567,43.499958,85,101,73
43.607098,43.71424,86,101,73
43.71424,43.928528,90,101,73
44.03567,44.142815,83,101,73
44.142815,44.357098,86,101,73
44.46424,44.571384,90,101,73
44.571384,44.78567,92,101,73
44.89281,44.999954,85,101,73
44.999954,45.21424,89,101,73
45.321384,45.428528,92,101,73
45.428528,45.64281,93,101,73
45.749954,45.857098,85,101,73
45.857098,46.07138,90,101,73
46.178524,46.285667,90,101,73
46.285667,47.035667,92,101,73
47.035667,47.14281,92,101,73
47.14281,47.89281,90,101,73
47.89281,47.99995,90,101,73
47.99995,48.74995,89,101,73
48.74995,48.857094,81,101,73
48.857094,49.07138,78,101,73
49.178524,49.285664,80,101,73
49.285664,49.49995,81,101,73
49.607094,49.714237,85,101,73
49.714237,49.92852,90,101,73
50.035664,50.142807,88,101,73
50.142807,50.357094,86,101,73
50.464233,50.571377,85,101,73
50.571377,50.785664,83,101,73
51.642807,51.85709,88,49,73
51.85709,52.285664,88,49,73
55.071373,55.28566,90,49,73
55.28566,55.71423,90,49,73
58.499943,58.714226,92,49,73
58.714226,62.571365,92,49,73
62.571365,62.999935,90,49,73
62.999935,63.42851,88,49,73
63.42851,63.64279,88,49,73
77.57135,77.99992,76,49,73
77.99992,78.42849,88,49,73
78.42849,78.514206,86,49,73
78.64278,78.72849,83,49,73
78.85706,79.28564,81,49,73
79.28564,79.49992,76,49,73
79.49992,79.7142,81,49,73
79.7142,80.14278,83,49,73
80.14278,80.35706,76,49,73
80.35706,80.57135,83,49,73
80.57135,80.999916,85,49,73
80.999916,81.05662,93,49,73
81.14233,81.19992,91,49,73
81.28563,81.34233,88,49,73
81.42849,81.85706,86,49,73
81.85706,81.91376,90,49,73
81.99947,82.05706,86,49,73
82.14278,82.19947,83,49,73
82.28563,82.7142,80,49,73
82.7142,83.14278,81,49,73
83.14278,83.57134,86,49,73
83.57134,83.999916,85,49,73
83.999916,84.42849,80,49,73
84.42849,84.857056,81,49,73
84.857056,85.28563,90,49,73
85.28563,85.7142,88,49,73
85.7142,86.14277,83,49,73
86.14277,86.57134,85,49,73
86.57134,86.999916,86,49,73
86.999916,87.42848,93,49,73
87.42848,87.857056,92,49,73
87.857056,88.28563,90,49,73
88.28563,88.714195,88,49,73
88.714195,89.14277,86,49,73
89.14277,89.357056,83,49,73
92.78562,93.214195,81,49,73
93.214195,93.64276,85,49,73
93.64276,94.071335,88,49,73
94.071335,94.928474,91,49,73
94.928474,95.14276,90,88,73
95.14276,95.35705,88,88,73
95.35705,95.571335,86,88,73
95.571335,95.78562,85,88,73
95.78562,95.9999,83,88,73
95.9999,96.21419,81,88,73
96.21419,96.428474,79,88,73
96.428474,96.64276,78,88,73
96.64276,96.85705,76,88,73
96.85705,97.071335,74,88,73
105.32132,105.42847,86,88,73
105.42847,105.85704,81,88,73
107.03561,107.14275,90,88,73
107.14275,107.57132,85,88,73
110.46417,110.57132,86,88,73
110.57132,110.999886,88,75,73
110.999886,111.0856,86,49,73
111.21417,111.29989,85,49,73
111.42846,111.514175,83,49,73
111.642746,111.72846,86,49,73
111.85703,111.94274,85,49,73
112.07132,112.15703,83,49,73
112.2856,112.499886,81,49,73
112.499886,112.71417,78,49,73
112.71417,112.92846,76,49,73
112.92846,113.142746,81,49,73
113.142746,113.35703,78,88,73
113.35703,113.57131,76,88,73
113.57131,113.7856,76,88,73
113.7856,113.871315,86,88,73
113.999886,114.42846,88,114,73
114.42846,114.51417,84,88,73
114.642746,114.728455,83,88,73
114.857025,114.94274,81,88,73
115.07131,115.15703,84,88,73
115.2856,115.371315,83,88,73
115.499886,115.5856,81,88,73
115.71417,115.92846,79,88,73
115.92846,116.14274,76,88,73
116.14274,116.357025,74,88,73
116.357025,116.57131,79,88,73
116.57131,116.7856,76,88,73
116.7856,116.999886,74,88,73
116.999886,117.214165,74,88,73
117.214165,117.29988,86,88,73
117.42845,118.07131,88,114,73
118.07131,118.15703,86,88,73
118.2856,118.92845,88,114,73
118.92845,119.14274,86,88,73
119.14274,119.357025,88,88,73
119.357025,119.57131,86,88,73
119.57131,119.78559,88,88,73
119.78559,119.99988,86,88,73
119.99988,120.214165,88,88,73
120.214165,120.42845,86,88,73
120.42845,120.64274,88,88,73
120.64274,120.857025,86,88,73
120.857025,121.28559,88,114,73
121.28559,121.49988,84,88,73
121.49988,121.714165,83,88,73
121.714165,121.92845,81,88,73
121.92845,122.14274,84,88,73
122.14274,122.35702,83,88,73
122.35702,122.571304,81,88,73
122.571304,122.78559,79,88,73
122.78559,122.99988,76,88,73
122.99988,123.214165,74,88,73
123.214165,123.42845,79,88,73
123.42845,123.64273,76,88,73
123.64273,123.85702,74,88,73
123.85702,124.071304,74,88,73
126.428444,126.85702,79,88,73
126.85702,127.71416,86,88,73
127.71416,131.14273,79,88,73
131.14273,132.85701,84,88,73
132.85701,132.94272,79,88,73
133.07129,133.15701,81,88,73
133.28558,133.71416,83,88,73
133.71416,133.79987,84,88,73
133.92844,134.01414,86,88,73
134.14272,134.57129,88,88,73
134.57129,134.65701,86,88,73
134.78558,134.87129,84,88,73
134.99986,135.42844,83,88,73
135.42844,135.51414,84,88,73
135.64272,135.72844,83,88,73
135.85701,136.28558,81,88,73
136.28558,138.42844,79,88,73
139.71414,140.14272,79,88,73
140.14272,140.35701,72,88,73
140.35701,140.57129,79,88,73
140.57129,140.99986,81,88,73
140.99986,141.21414,72,88,73
141.21414,142.28557,81,88,73
142.71414,142.79985,77,88,73
142.79985,142.88557,79,88,73
142.88557,142.97084,81,88,73
142.97084,143.05655,82,88,73
143.05655,143.14272,84,88,73
143.14272,143.57129,86,75,73
143.57129,143.657,82,49,73
143.78557,143.87129,81,49,73
143.99986,144.08557,79,49,73
144.21414,144.29985,82,49,73
144.42842,144.51414,81,49,73
144.64272,144.72842,79,49,73
144.857,144.94272,77,49,73
145.07129,145.157,74,49,73
145.28557,145.37128,72,49,73
145.49985,145.58557,78,49,73
145.71414,145.79985,74,49,73
145.92842,146.01414,72,49,73
146.14272,146.22842,72,49,73
157.92842,158.1427,80,49,73
158.1427,158.57127,81,49,73
159.6427,159.85698,80,49,73
159.85698,160.28555,81,49,73
160.49983,160.71413,80,49,73
160.71413,161.1427,81,49,73
161.35698,161.57127,80,49,73
161.57127,161.78555,81,49,73
161.78555,161.99983,80,49,73
161.99983,162.21413,81,49,73
162.21413,162.4284,80,49,73
162.4284,162.6427,81,49,73
162.6427,162.85698,80,49,73
162.85698,162.96413,81,88,73
162.96413,163.07126,80,88,73
163.07126,163.1784,81,88,73
163.1784,163.28555,80,88,73
163.28555,163.3927,81,88,73
163.3927,163.49983,80,88,73
163.49983,163.60698,81,88,73
163.60698,163.71413,80,88,73
163.71413,163.82126,81,88,73
163.82126,163.9284,80,88,73
163.9284,164.03555,81,88,73
164.03555,164.1427,80,88,73
164.1427,164.24983,81,88,73
164.24983,164.35698,80,88,73
164.35698,164.46413,81,88,73
164.46413,164.57126,79,88,73
164.57126,164.6784,78,88,73
164.6784,164.78555,79,88,73
164.78555,164.89268,78,88,73
164.89268,164.99983,76,88,73
164.99983,165.10698,78,88,73
165.10698,165.21413,81,88,73
165.21413,165.32126,78,88,73
165.32126,165.4284,74,88,73
165.4284,165.53555,73,88,73
165.53555,165.64268,74,88,73
165.64268,165.74983,73,88,73
165.74983,165.85698,71,88,73
165.85698,165.96413,73,88,73
165.96413,166.07126,76,88,73
166.07126,166.1784,73,88,73
166.1784,166.28555,69,88,73
166.28555,166.39268,66,88,73
166.39268,166.49983,67,88,73
166.49983,166.60698,66,88,73
166.60698,166.71413,64,88,73
166.71413,166.82126,66,88,73
166.82126,166.9284,69,88,73
166.9284,167.03555,74,88,73
167.03555,167.14268,78,88,73
167.14268,167.24983,67,88,73
167.24983,167.35698,69,88,73
167.35698,167.46411,67,88,73
167.46411,167.57126,66,88,73
167.57126,167.6784,67,88,73
167.6784,167.78555,69,88,73
167.78555,167.89268,76,88,73
167.89268,167.99983,79,88,73
167.99983,168.10698,69,88,73
168.10698,168.21411,71,88,73
168.21411,168.32126,69,88,73
168.32126,168.4284,68,88,73
168.4284,168.53555,69,88,73
168.53555,168.64268,73,88,73
168.64268,168.74983,76,88,73
168.74983,168.85698,79,88,73
168.85698,168.96411,78,88,73
168.96411,169.07126,79,88,73
169.07126,169.1784,78,88,73
169.1784,169.28554,76,88,73
169.28554,169.39268,78,88,73
169.39268,169.49983,81,88,73
169.49983,169.60698,78,88,73
169.60698,169.71411,74,88,73
169.71411,169.82126,76,88,73
169.82126,169.9284,78,88,73
169.9284,170.03554,76,88,73
170.03554,170.14268,75,88,73
170.14268,170.24983,76,88,73
170.24983,170.35698,74,88,73
170.35698,170.46411,68,88,73
170.46411,170.57126,64,88,73
170.57126,170.6784,61,88,73
170.6784,170.78554,62,88,73
170.78554,170.89268,61,88,73
170.89268,170.99983,64,88,73
170.99983,171.10698,69,88,73
171.10698,171.21411,73,88,73
171.21411,171.32126,76,88,73
171.32126,171.4284,80,88,73
171.4284,171.48196,81,88,73
171.48196,171.53554,83,88,73
171.53554,171.58911,81,88,73
171.58911,171.64268,83,88,73
171.64268,171.69626,81,88,73
171.69626,171.74983,83,88,73
171.74983,171.8034,81,88,73
171.8034,171.85696,83,88,73
171.85696,171.91054,81,88,73
171.91054,171.96411,83,88,73
171.96411,172.01768,81,88,73
172.01768,172.07126,83,88,73
172.07126,172.12483,81,88,73
172.12483,172.1784,83,88,73
172.1784,172.23196,81,88,73
172.23196,172.28554,83,88,73
172.28554,172.33911,81,88,73
172.33911,172.39268,83,88,73
172.39268,172.44626,81,88,73
172.44626,172.49983,83,88,73
172.49983,172.5534,81,88,73
172.5534,172.60696,83,88,73
172.60696,172.66054,81,88,73
172.66054,172.71411,83,88,73
172.71411,172.76768,81,88,73
172.76768,172.82126,83,88,73
172.82126,172.87483,81,88,73
172.87483,172.9284,83,88,73
172.9284,172.98196,81,88,73
172.98196,173.03554,83,88,73
173.03554,173.08911,81,88,73
173.08911,173.14268,83,88,73
173.14268,173.19626,81,88,73
173.19626,173.24983,83,88,73
173.24983,173.30339,81,88,73
173.30339,173.35696,83,88,73
173.35696,173.41054,81,88,73
173.41054,173.46411,83,88,73
173.46411,173.51768,81,88,73
173.51768,173.57126,83,88,73
173.57126,173.62483,81,88,73
173.62483,173.67839,83,88,73
173.67839,173.73196,81,88,73
173.73196,173.78554,83,88,73
173.78554,173.83911,81,88,73
173.83911,173.89268,83,88,73
173.89268,173.94626,81,88,73
173.94626,173.99983,83,88,73
173.99983,174.05339,81,88,73
174.05339,174.10696,83,88,73
174.10696,174.16054,81,88,73
174.16054,174.21411,83,88,73
174.21411,174.26768,81,88,73
174.26768,174.32126,83,88,73
174.32126,174.37483,81,88,73
174.37483,174.42839,83,88,73
174.42839,174.48196,81,88,73
174.48196,174.53554,83,88,73
174.53554,174.58911,81,88,73
174.58911,174.64268,83,88,73
174.64268,174.69626,81,88,73
174.69626,174.74983,83,88,73
174.74983,174.80339,81,88,73
174.80339,174.85696,83,88,73
174.85696,174.91054,81,88,73
174.91054,174.96411,83,88,73
174.96411,175.01768,81,88,73
175.01768,175.07126,83,88,73
175.07126,175.12483,81,88,73
175.12483,175.17839,83,88,73
175.17839,175.23196,81,88,73
175.23196,175.28554,83,88,73
175.28554,175.33911,81,88,73
175.33911,175.39268,83,88,73
175.39268,175.44626,81,88,73
175.44626,175.49982,83,88,73
175.49982,175.55339,81,88,73
175.55339,175.60696,83,88,73
175.60696,175.66054,81,88,73
175.66054,175.71411,80,88,73
175.71411,176.14268,81,88,73
179.57124,179.99982,76,88,73
179.99982,180.42839,88,88,73
180.42839,180.5141,84,88,73
180.64267,180.7284,81,88,73
180.85696,181.71411,76,88,73
181.71411,182.14267,71,88,73
188.14267,188.57124,81,49,73
188.57124,188.99982,93,49,73
188.99982,189.08553,91,49,73
189.2141,189.2998,88,49,73
189.42838,189.85695,86,49,73
189.85695,189.94267,81,49,73
190.07124,190.15695,86,49,73
190.28552,190.7141,88,49,73
190.7141,190.7998,81,49,73
190.92838,191.0141,88,49,73
191.14267,191.57124,90,49,73
191.57124,191.62793,86,49,73
191.71365,191.77124,84,49,73
191.85695,191.91365,81,49,73
191.9998,192.42838,79,49,73
192.42838,192.48508,83,49,73
192.57079,192.62837,79,49,73
192.7141,192.77078,76,49,73
192.85695,193.28552,73,49,73
193.28552,193.7141,74,49,73
193.7141,194.14267,79,49,73
194.14267,194.57123,78,49,73
194.57123,194.9998,73,49,73
194.9998,195.42838,74,49,73
195.42838,195.85695,83,49,73
195.85695,196.28552,81,49,73
196.28552,196.7141,88,49,73
196.7141,197.14265,90,49,73
197.14265,197.57123,88,49,73
197.57123,197.9998,86,49,73
197.9998,198.42838,97,49,73
198.42838,198.85695,95,49,73
198.85695,199.28552,93,49,73
199.28552,199.71408,91,49,73
199.71408,199.92838,88,49,73
203.35693,203.7855,80,49,73
203.7855,204.21408,81,49,73
204.21408,204.64265,83,49,73
204.64265,205.07123,85,49,73
205.07123,205.2855,86,49,73
205.2855,205.4998,88,49,73
205.4998,205.71408,89,49,73
205.71408,205.92836,91,49,73
205.92836,206.14265,92,49,73
206.14265,206.35693,93,49,73
206.35693,206.57123,91,49,73
206.57123,206.7855,90,75,73
215.03549,215.14264,69,88,73
215.14264,215.35693,78,88,73
215.46407,215.57121,78,88,73
215.57121,215.78549,78,88,73
215.89264,215.99979,79,88,73
215.99979,216.21407,81,88,73
216.32121,216.42836,86,88,73
216.42836,216.64264,81,88,73
216.74979,216.85693,86,88,73
216.85693,217.07121,81,88,73
217.17836,217.28549,81,88,73
217.28549,217.49979,81,88,73
217.60692,217.71407,83,88,73
217.71407,217.92836,85,88,73
218.03549,218.14264,90,88,73
218.14264,218.35692,85,88,73
218.46407,218.57121,90,88,73
218.57121,218.78549,89,88,73
218.89264,218.99979,90,88,73
218.99979,219.21407,92,88,73
219.32121,219.42834,93,88,73
219.42834,219.64264,92,88,73
219.74979,219.85692,90,88,73
219.85692,220.07121,85,88,73
220.17834,220.28549,86,88,73
220.28549,220.49979,88,88,73
220.60692,220.71407,83,88,73
220.71407,220.92834,85,88,73
221.03549,221.14264,86,88,73
221.14264,221.35692,88,88,73
221.46407,221.57121,83,88,73
221.57121,221.78549,85,88,73
221.89264,221.93504,86,88,73
221.99977,222.42834,88,114,73
222.42834,222.51407,86,88,73
222.64264,222.72835,85,88,73
222.85692,222.94263,83,88,73
223.07121,223.15692,86,88,73
223.28549,223.3712,85,88,73
223.49977,223.5855,83,88,73
223.71407,223.92834,81,88,73
223.92834,224.14264,78,88,73
224.14264,224.35692,76,88,73
224.35692,224.5712,81,88,73
224.5712,224.78549,78,88,73
224.78549,224.99977,76,88,73
224.99977,225.21407,76,88,73
225.21407,225.29977,86,88,73
225.42834,225.85692,88,114,73
225.85692,225.94263,84,88,73
226.0712,226.15692,83,88,73
226.28549,226.49977,81,88,73
226.49977,226.71407,84,88,73
226.71407,226.92834,83,88,73
226.92834,227.14262,81,88,73
227.14262,227.35692,79,88,73
227.35692,227.5712,76,88,73
227.5712,227.78549,74,88,73
227.78549,227.99977,79,88,73
227.99977,228.21405,76,49,73
228.21405,228.42834,74,49,73
228.42834,228.64262,74,49,73
228.64262,228.85692,76,49,73
228.85692,229.28549,78,49,73
229.92834,230.14262,86,49,73
230.14262,230.5712,81,49,73
231.64262,231.85692,90,88,73
231.85692,232.0712,85,88,73
232.0712,232.28548,78,88,73
232.28548,232.49977,76,88,73
232.6069,232.71405,78,88,73
232.71405,232.92834,79,88,73
233.03548,233.14262,80,88,73
233.14262,233.3569,81,88,73
233.46405,233.5712,83,88,73
233.5712,233.78548,85,88,73
233.89262,233.99977,86,88,73
233.99977,234.21405,88,88,73
234.3212,234.42833,83,88,73
234.42833,234.64262,85,88,73
234.74977,234.8569,86,88,73
234.8569,235.0712,88,88,73
235.17833,235.28548,83,88,73
235.28548,235.49977,85,88,73
235.6069,235.71405,86,88,73
235.71405,236.46405,86,101,73
236.46405,236.5712,86,101,73
236.5712,237.3212,86,101,73
237.3212,237.42833,86,101,73
237.42833,238.17833,86,101,73
238.17833,238.28548,86,101,73
238.28548,239.03548,86,101,73
239.03548,239.14262,86,101,73
239.14262,239.89262,80,101,73
239.89262,239.99976,80,101,73
239.99976,240.8569,80,101,73
240.8569,241.6069,79,101,73
241.6069,241.71405,79,101,73
241.71405,241.82118,91,101,73
241.82118,241.92833,90,101,73
241.92833,242.03548,88,101,73
242.03548,242.14261,86,101,73
242.14261,242.24976,85,101,73
242.24976,242.3569,83,101,73
242.3569,242.46405,81,101,73
242.46405,242.57118,79,101,73
242.57118,242.78548,90,101,73
242.89261,242.99976,81,101,73
242.99976,243.21404,83,101,73
243.32118,243.42833,84,101,73
243.42833,243.64261,86,101,73
243.74976,243.8569,81,101,73
243.8569,244.07118,83,101,73
244.17833,244.28548,84,101,73
244.28548,244.49976,88,101,73
244.6069,244.71404,79,101,73
244.71404,244.92833,83,101,73
245.03548,245.14261,84,101,73
245.14261,245.3569,88,101,73
245.46404,245.57118,79,101,73
245.57118,245.78546,83,101,73
245.89261,245.99976,84,101,73
245.99976,246.21404,90,101,73
246.32118,246.42833,81,101,73
246.42833,246.64261,83,101,73
246.74976,246.8569,84,101,73
246.8569,247.07118,91,101,73
247.17833,247.28546,83,101,73
247.28546,247.49976,85,101,73
247.60689,247.71404,86,101,73
247.71404,247.92833,94,101,73
248.03546,248.14261,83,101,73
248.14261,248.35689,85,101,73
248.46404,248.57118,86,101,73
248.57118,248.78546,95,101,73
248.89261,248.99976,80,101,73
248.99976,249.21404,86,101,73
249.32118,249.36359,95,101,73
249.42833,249.85689,93,127,73
251.78546,251.87117,90,101,73
251.99974,252.42831,93,127,73
254.35689,254.57117,90,101,73
254.57117,254.99974,91,127,73
256.28546,256.71402,95,127,73
256.71402,256.79974,93,101,73
256.9283,257.01404,91,101,73
257.1426,257.2283,90,101,73
257.35687,257.4426,93,101,73
257.57117,257.6569,91,101,73
257.78546,257.8712,90,101,73
257.99976,258.08545,88,101,73
258.21402,258.29974,84,101,73
258.4283,258.51404,90,101,73
259.71402,260.1426,88,127,73
260.1426,260.35687,86,101,73
260.35687,260.57117,84,101,73
260.57117,260.78546,83,101,73
260.78546,260.99973,86,101,73
260.99973,261.21402,84,101,73
261.21402,261.4283,83,101,73
261.4283,261.6426,81,101,73
261.6426,261.85687,78,101,73
261.85687,262.07117,79,101,73
263.57117,263.78546,79,101,73
263.78546,263.99973,88,101,73
263.99973,264.21402,79,101,73
264.21402,264.4283,86,101,73
264.4283,264.64258,79,101,73
264.64258,264.85687,84,101,73
264.85687,265.07117,79,101,73
265.07117,265.28546,83,101,73
265.28546,265.49973,79,101,73
266.99973,267.21402,79,101,73
267.21402,267.4283,88,101,73
267.4283,267.64258,79,101,73
267.64258,267.85687,86,101,73
267.85687,268.07117,79,101,73
268.07117,268.28543,84,101,73
268.28543,268.49973,79,101,73
268.49973,268.71402,83,101,73
268.71402,268.9283,79,101,73
268.9283,269.14258,88,101,73
269.14258,269.35687,79,101,73
269.35687,269.57117,86,101,73
269.57117,269.78543,79,101,73
269.78543,269.99973,84,101,73
269.99973,270.21402,79,101,73
270.21402,270.4283,83,101,73
272.35687,272.4426,81,101,73
272.78543,272.87115,74,101,73
273.21402,273.2997,81,101,73
273.64258,275.14258,86,36,73
275.35687,276.85687,88,36,73
277.07114,278.57114,90,36,73
278.57114,279.42828,91,36,73
279.42828,280.28543,93,36,73
280.28543,282.85687,93,36,73
282.85687,283.714,85,36,73
283.714,284.14258,86,36,73
284.99973,285.42828,69,49,73
285.42828,286.28543,81,49,73
295.28543,295.714,74,49,73
295.714,296.9997,81,49,73
296.9997,297.42828,79,49,73
297.42828,298.714,83,49,73
298.714,299.14255,81,49,73
299.14255,302.14255,91,101,73
302.14255,302.57114,81,101,73
302.57114,305.14255,91,101,73
305.14255,305.9997,85,101,73
305.9997,306.214,86,101,73
306.64255,306.85684,76,101,73
306.85684,307.07114,78,101,73
307.4997,307.714,81,101,73
307.714,307.92825,78,101,73
308.35684,308.5711,76,101,73
308.5711,308.7854,78,101,73
309.214,309.42825,81,101,73
309.42825,309.64255,78,101,73
310.0711,310.2854,81,101,73
310.2854,310.4997,86,101,73
310.92825,311.14255,88,101,73
311.14255,311.35684,90,101,73
311.7854,311.9997,85,101,73
311.9997,312.21396,86,101,73
312.64255,312.85684,85,101,73
312.85684,313.0711,86,101,73
313.71396,313.92825,85,101,73
314.5711,315.42825,86,101,73
3.428568,3.6428535,54,88,71
3.7499962,3.857139,54,88,71
3.857139,4.0714245,54,88,71
4.1785674,4.28571,55,88,71
4.28571,4.4999957,57,88,71
4.607138,4.714281,62,88,71
4.714281,4.9285665,57,88,71
5.0357094,5.142852,62,88,71
5.142852,5.3571377,57,88,71
5.46428,5.571423,57,88,71
5.571423,5.7857084,57,88,71
5.8928514,5.999994,59,88,71
5.999994,6.2142797,61,88,71
6.321422,6.428565,66,88,71
6.428565,6.6428504,61,88,71
6.7499933,6.857136,66,88,71
6.857136,7.0714216,65,88,71
7.178564,7.285707,66,88,71
7.285707,7.4999924,68,88,71
7.6071353,7.714278,69,88,71
7.714278,7.9285636,68,88,71
8.0357065,8.142849,66,88,71
8.142849,8.357135,61,88,71
8.464277,8.57142,62,88,71
8.57142,8.785706,64,88,71
8.892848,8.999991,59,88,71
8.999991,9.214276,61,88,71
9.32142,9.428562,62,88,71
9.428562,9.642847,64,88,71
9.74999,9.857133,59,88,71
9.857133,10.071419,61,88,71
11.464274,11.571417,74,88,71
11.571417,11.785703,69,88,71
11.892845,11.999988,74,88,71
11.999988,12.428559,69,88,71
13.178558,13.285701,78,88,71
13.285701,13.499987,73,88,71
13.607129,13.714272,78,88,71
13.714272,14.142843,73,88,71
15.321413,15.428556,74,88,71
15.428556,15.642841,76,88,71
16.178555,16.285698,74,88,71
16.285698,16.499983,76,88,71
17.035698,17.14284,74,88,71
17.14284,17.571411,76,114,71
20.357122,20.370516,74,88,71
20.571407,20.742836,76,127,71
23.571405,23.65712,71,49,71
23.78569,23.871405,67,49,71
23.999975,24.013369,64,49,71
24.214262,24.299976,71,49,71
24.428547,24.514261,67,49,71
24.642832,24.728546,64,49,71
24.857119,24.942833,61,49,71
25.071404,25.157118,67,49,71
25.285688,25.371403,64,49,71
25.499975,25.58569,61,49,71
25.71426,25.799974,57,88,71
27.321402,27.428543,57,88,71
27.428543,27.64283,66,88,71
27.749971,27.857115,66,88,71
27.857115,28.0714,66,88,71
28.178543,28.285686,67,88,71
28.285686,28.499971,69,88,71
28.607115,28.714256,74,88,71
28.714256,28.928543,69,88,71
29.035685,29.142828,74,88,71
29.142828,29.357113,69,88,71
29.464256,29.5714,69,88,71
29.5714,29.785685,69,88,71
29.892828,29.99997,71,88,71
29.99997,30.214256,73,88,71
30.321398,30.428541,78,88,71
30.428541,30.642826,73,88,71
30.74997,30.857113,62,88,71
30.857113,31.071398,74,88,71
31.178541,31.285683,74,88,71
31.285683,31.499968,74,88,71
31.607111,31.714254,64,88,71
31.714254,31.92854,76,88,71
32.035683,32.142826,76,88,71
32.142826,32.35711,76,88,71
32.464252,32.571396,78,88,71
32.571396,32.785683,79,88,71
32.892826,32.999966,79,88,71
32.999966,33.214252,76,88,71
33.321396,33.42854,78,88,71
33.42854,33.642822,79,88,71
33.749966,33.85711,79,88,71
33.85711,34.071396,76,88,71
34.178535,34.28568,78,88,71
34.28568,35.03568,78,101,71
35.03568,35.142822,78,101,71
35.142822,35.892822,78,101,71
35.892822,35.999966,78,101,71
35.999966,36.74996,79,101,71
36.74996,36.857105,79,101,71
36.857105,37.607105,78,101,71
37.607105,37.71425,78,101,71
37.71425,38.46425,76,101,71
38.46425,38.57139,76,101,71
38.57139,39.42853,76,101,71
39.42853,40.17853,73,101,71
40.17853,40.285675,73,101,71
40.285675,41.142815,73,101,71
41.142815,41.57139,74,101,71
41.892815,41.999958,76,101,71
41.999958,42.428528,74,101,71
42.749958,42.8571,74,101,71
42.8571,43.28567,74,101,71
43.607098,43.71424,74,101,71
43.71424,44.142815,74,101,71
44.46424,44.571384,74,101,71
44.571384,44.999954,77,101,71
45.321384,45.428528,77,101,71
45.428528,45.64281,78,101,71
45.749954,45.857098,73,101,71
45.857098,46.07138,78,101,71
46.178524,46.285667,78,101,71
46.285667,47.035667,80,101,71
47.035667,47.14281,80,101,71
47.14281,47.89281,78,101,71
47.89281,47.99995,78,101,71
47.99995,48.74995,77,101,71
48.74995,48.857094,73,101,71
48.857094,49.07138,75,101,71
49.178524,49.285664,77,101,71
49.285664,49.49995,78,101,71
49.607094,49.714237,80,101,71
49.714237,49.92852,78,101,71
50.035664,50.142807,76,101,71
50.142807,50.357094,74,101,71
50.464233,50.571377,73,101,71
50.571377,50.785664,71,101,71
52.499947,52.714233,76,101,71
52.714233,53.142803,76,101,71
53.78566,53.999947,74,101,71
53.999947,54.214233,76,101,71
54.214233,54.428516,74,101,71
54.428516,54.642803,73,101,71
54.642803,54.857086,77,101,71
54.857086,55.071373,78,101,71
55.928516,56.1428,78,101,71
56.1428,56.571373,78,101,71
57.21423,57.428513,77,101,71
57.428513,57.6428,78,101,71
57.6428,57.857086,76,101,71
57.857086,58.07137,75,101,71
58.07137,58.285656,79,101,71
58.285656,58.499943,80,101,71
59.357082,59.57137,80,101,71
59.57137,60.428513,80,101,71
60.428513,60.857082,75,101,71
60.857082,61.714226,75,101,71
61.714226,63.42851,74,101,71
63.42851,63.64279,73,101,71
68.57136,69.428505,71,101,71
69.428505,69.85707,76,101,71
70.285645,71.142784,68,101,71
71.142784,71.99993,67,101,71
71.99993,72.4285,63,101,71
72.4285,73.285645,66,101,71
73.285645,73.71421,71,101,71
73.71421,74.57136,64,101,71
74.57136,75.4285,66,101,71
75.4285,75.85706,68,101,71
77.14278,77.99992,73,101,71
77.99992,78.85706,71,101,71
78.85706,79.7142,73,101,71
79.7142,80.57135,71,101,71
80.57135,81.42849,73,101,71
81.42849,81.85706,74,101,71
81.85706,82.28563,71,101,71
82.28563,82.7142,68,101,71
82.7142,83.14278,69,101,71
83.14278,83.57134,74,101,71
83.57134,83.999916,71,101,71
84.42849,84.857056,69,101,71
84.857056,85.28563,78,101,71
85.28563,85.7142,76,101,71
86.14277,86.57134,73,101,71
86.57134,86.999916,83,101,71
86.999916,87.42848,79,101,71
87.42848,87.857056,76,101,71
87.857056,88.28563,75,101,71
88.28563,88.714195,73,101,71
88.714195,89.14277,71,101,71
89.14277,89.357056,68,101,71
92.78562,93.214195,69,101,71
93.214195,93.64276,73,101,71
93.64276,94.071335,76,101,71
94.071335,94.928474,79,101,71
94.928474,95.14276,78,88,71
95.14276,95.35705,76,88,71
95.35705,95.571335,74,88,71
95.571335,95.78562,73,88,71
95.78562,95.9999,71,88,71
95.9999,96.21419,69,88,71
96.21419,96.428474,67,88,71
96.428474,96.64276,66,88,71
96.64276,96.85705,64,88,71
96.85705,97.071335,54,88,71
97.178474,97.285614,54,88,71
97.285614,97.4999,54,88,71
97.60705,97.71419,55,88,71
97.71419,97.928474,57,88,71
98.035614,98.14276,62,88,71
98.14276,98.35705,57,88,71
98.46419,98.57133,62,88,71
98.57133,98.785614,57,88,71
98.89276,98.9999,57,88,71
98.9999,99.21419,57,88,71
99.32133,99.428474,59,88,71
99.428474,99.64276,61,88,71
99.7499,99.85704,66,88,71
99.85704,100.07133,61,88,71
100.178474,100.285614,66,88,71
100.285614,100.4999,65,88,71
100.60704,100.71419,66,88,71
100.71419,100.92847,68,88,71
101.035614,101.14275,69,88,71
101.14275,101.35704,68,88,71
101.46419,101.57133,66,88,71
101.57133,101.785614,61,88,71
101.89275,101.9999,62,88,71
101.9999,102.21418,64,88,71
102.32133,102.42847,59,88,71
102.42847,102.64275,61,88,71
102.7499,102.85704,62,88,71
102.85704,103.07133,64,88,71
103.17847,103.285614,59,88,71
103.285614,103.49989,61,88,71
104.89275,104.99989,74,88,71
104.99989,105.21418,69,88,71
105.32132,105.42847,74,88,71
105.42847,105.85704,69,88,71
106.60703,106.71418,78,88,71
106.71418,106.92847,73,88,71
107.03561,107.14275,78,88,71
107.14275,107.57132,73,88,71
108.74989,108.85703,74,88,71
108.85703,109.07132,76,88,71
109.60703,109.71417,74,88,71
109.71417,109.92846,76,88,71
110.46417,110.57132,74,88,71
110.57132,110.999886,76,75,71
110.999886,111.0856,76,49,71
111.21417,111.29989,76,49,71
111.42846,111.514175,76,49,71
111.642746,111.72846,76,49,71
111.85703,111.94274,76,49,71
112.07132,112.15703,76,49,71
112.2856,112.499886,76,49,71
112.499886,112.71417,74,49,71
112.71417,112.92846,73,49,71
112.92846,113.142746,76,49,71
113.142746,113.35703,74,88,71
113.35703,113.57131,73,88,71
113.57131,113.7856,73,88,71
113.7856,113.871315,74,88,71
113.999886,114.42846,76,114,71
114.42846,114.51417,74,88,71
114.642746,114.728455,74,88,71
114.857025,114.94274,74,88,71
115.07131,115.15703,74,88,71
115.2856,115.371315,74,88,71
115.499886,115.5856,74,88,71
115.71417,115.92846,74,88,71
115.92846,116.14274,73,88,71
116.14274,116.357025,71,88,71
116.357025,116.57131,74,88,71
116.57131,116.7856,73,88,71
116.7856,116.999886,71,88,71
116.999886,117.214165,71,88,71
117.214165,117.29988,74,88,71
117.42845,118.07131,76,114,71
118.07131,118.15703,74,88,71
118.2856,118.92845,76,114,71
120.64274,120.857025,74,88,71
120.857025,121.28559,76,114,71
121.28559,121.49988,76,88,71
121.49988,121.714165,79,88,71
121.714165,121.92845,77,88,71
121.92845,122.14274,81,88,71
122.14274,122.35702,79,88,71
122.35702,122.571304,77,88,71
122.571304,122.78559,76,88,71
122.78559,122.99988,72,88,71
122.99988,123.214165,71,88,71
123.214165,123.42845,76,88,71
123.42845,123.64273,72,88,71
123.64273,123.85702,71,88,71
123.85702,124.071304,71,88,71
124.714165,125.14273,67,88,71
125.14273,125.99987,79,88,71
126.428444,126.85702,67,88,71
126.85702,127.71416,74,88,71
127.71416,128.14273,67,88,71
128.5713,128.99988,67,49,71
128.99988,129.08559,69,49,71
129.21416,129.29987,71,49,71
129.42844,129.51416,72,49,71
129.64273,129.72844,74,49,71
129.85701,130.28558,76,49,71
130.28558,130.37129,77,49,71
130.49986,130.58559,76,49,71
130.71416,131.14273,74,49,71
131.14273,131.22844,76,49,71
131.35701,131.44272,77,49,71
131.5713,131.99986,79,49,71
131.99986,132.01326,81,49,71
132.21416,132.22754,79,49,71
132.42844,132.85701,77,49,71
132.85701,133.71416,77,49,71
133.71416,133.79987,76,49,71
133.92844,134.01414,77,49,71
134.14272,134.57129,79,49,71
134.57129,134.65701,77,49,71
134.78558,134.87129,76,49,71
134.99986,135.42844,74,49,71
135.42844,135.51414,76,49,71
135.64272,135.72844,74,49,71
135.85701,136.28558,72,49,71
136.28558,136.71414,71,49,71
142.28557,143.14272,75,49,71
143.14272,143.57129,74,49,71
143.57129,143.657,70,49,71
143.78557,143.87129,69,49,71
143.99986,144.08557,67,49,71
144.21414,144.29985,70,49,71
144.42842,144.51414,69,49,71
144.64272,144.72842,67,49,71
144.857,144.94272,65,49,71
145.07129,145.157,70,49,71
145.28557,145.37128,69,49,71
145.49985,145.58557,74,49,71
145.71414,145.79985,70,49,71
145.92842,146.01414,69,49,71
146.14272,146.22842,69,49,71
148.92842,149.14272,53,49,71
149.14272,149.28513,62,49,71
149.28513,149.42842,63,49,71
149.42842,149.48512,62,49,71
149.57127,149.71368,65,49,71
149.71368,149.857,62,49,71
149.857,149.9137,58,49,71
149.99985,150.14226,60,49,71
150.14226,150.28557,62,49,71
150.28557,150.34225,60,49,71
150.42842,150.57083,65,49,71
150.57083,150.71414,60,49,71
150.71414,150.77083,54,49,71
150.857,150.9994,58,49,71
150.9994,151.1427,60,49,71
151.1427,151.1994,58,49,71
151.28557,151.42798,62,49,71
151.42798,151.57127,60,49,71
151.57127,151.62798,58,49,71
151.71413,151.85655,57,49,71
151.85655,151.99985,58,49,71
151.99985,152.05655,60,49,71
152.1427,152.57127,55,49,71
152.57127,152.99985,57,49,71
171.4284,172.28554,61,88,71
172.28554,172.71411,62,88,71
173.14268,173.99983,73,88,71
173.99983,174.42839,74,88,71
174.85696,175.71411,64,88,71
175.71411,176.35696,69,88,71
176.35696,176.57126,67,88,71
176.57126,177.42839,66,88,71
177.42839,178.28554,68,88,71
178.28554,179.14268,69,88,71
179.14268,179.57124,61,88,71
179.57124,180.42839,64,88,71
180.42839,180.85696,69,88,71
180.85696,181.28554,68,88,71
181.28554,181.71411,73,88,71
181.71411,182.14267,71,88,71
182.14267,182.57124,76,88,71
182.57124,183.42839,73,88,71
183.42839,184.28552,74,88,71
184.28552,184.7141,76,88,71
187.7141,187.92839,66,36,71
188.35695,188.57124,66,36,71
188.57124,188.78552,69,36,71
189.2141,189.42838,69,36,71
189.42838,189.64267,74,36,71
190.07124,190.28552,74,36,71
190.28552,190.49982,76,36,71
190.92838,191.14267,76,36,71
191.14267,191.57124,78,36,71
191.57124,191.9998,81,36,71
191.9998,192.42838,79,36,71
192.42838,192.85695,74,36,71
193.07123,193.4998,57,36,71
193.4998,193.7141,69,36,71
193.7141,194.35695,76,36,71
194.35695,194.57123,74,36,71
194.78552,195.2141,57,36,71
195.2141,195.42838,69,36,71
195.42838,196.07123,79,36,71
196.07123,196.28552,78,36,71
196.4998,196.7141,61,36,71
196.7141,196.92838,62,36,71
196.92838,197.14265,74,36,71
197.14265,197.78552,79,36,71
197.78552,197.9998,78,36,71
197.9998,198.64265,76,36,71
198.64265,198.85695,74,36,71
198.85695,199.4998,73,36,71
199.4998,199.71408,71,36,71
199.71408,199.92838,69,36,71
203.35693,203.7855,74,49,71
203.7855,204.21408,74,49,71
204.21408,204.64265,74,49,71
204.64265,205.07123,70,49,71
205.07123,205.2855,69,49,71
205.2855,205.4998,73,49,71
205.4998,205.71408,74,49,71
205.71408,205.92836,76,49,71
205.92836,206.14265,74,49,71
206.14265,206.35693,73,49,71
206.35693,206.57123,76,49,71
206.57123,206.7855,74,75,71
206.89265,206.99979,53,75,71
206.99979,207.21408,53,75,71
207.32123,207.42836,55,75,71
207.42836,207.64265,57,75,71
207.74979,207.85693,62,75,71
207.85693,208.07123,57,75,71
208.17836,208.2855,62,75,71
208.2855,208.49979,57,75,71
208.60693,208.71408,57,75,71
208.71408,208.92836,57,75,71
209.0355,209.14265,58,75,71
209.14265,209.35693,60,75,71
209.46408,209.57121,65,75,71
209.57121,209.7855,60,75,71
209.89265,209.99979,65,75,71
209.99979,210.21408,64,75,71
210.32121,210.42836,65,75,71
210.42836,210.64264,67,75,71
210.74979,210.85693,69,75,71
210.85693,211.07121,65,88,71
211.17836,211.2855,67,88,71
211.2855,211.49979,69,88,71
211.60693,211.71408,70,88,71
211.71408,211.92836,68,88,71
212.0355,212.14264,69,88,71
212.14264,212.35693,71,88,71
212.46408,212.57121,73,88,71
212.57121,212.7855,71,88,71
212.89264,212.99979,69,88,71
212.99979,213.21407,61,88,71
213.32121,213.42836,62,88,71
213.42836,213.64264,64,88,71
213.74979,213.85693,59,88,71
213.85693,214.07121,61,88,71
214.17836,214.2855,62,88,71
214.2855,214.49979,64,88,71
214.60693,214.71407,59,88,71
214.71407,214.92836,61,88,71
215.03549,215.14264,69,88,71
215.14264,215.35693,78,88,71
215.46407,215.57121,78,88,71
215.57121,215.78549,78,88,71
215.89264,215.99979,79,88,71
215.99979,216.21407,81,88,71
216.32121,216.42836,74,88,71
216.42836,216.64264,69,88,71
216.74979,216.85693,74,88,71
216.85693,217.07121,69,88,71
217.17836,217.28549,69,88,71
217.28549,217.49979,69,88,71
217.60692,217.71407,71,88,71
217.71407,217.92836,73,88,71
218.03549,218.14264,78,88,71
218.14264,218.35692,73,88,71
218.46407,218.57121,78,88,71
218.57121,218.78549,77,88,71
218.89264,218.99979,78,88,71
218.99979,219.21407,80,88,71
219.32121,219.42834,81,88,71
219.42834,219.64264,80,88,71
219.74979,219.85692,78,88,71
219.85692,220.07121,73,88,71
220.17834,220.28549,74,88,71
220.28549,220.49979,76,88,71
220.60692,220.71407,71,88,71
220.71407,220.92834,73,88,71
221.03549,221.14264,74,88,71
221.14264,221.35692,76,88,71
221.46407,221.57121,71,88,71
221.57121,221.78549,73,88,71
221.89264,221.93504,74,88,71
221.99977,222.42834,76,114,71
222.42834,222.51407,74,88,71
222.64264,222.72835,73,88,71
222.85692,222.94263,71,88,71
223.07121,223.15692,74,88,71
223.28549,223.3712,73,88,71
223.49977,223.5855,71,88,71
223.71407,223.92834,69,88,71
223.92834,224.14264,66,88,71
224.14264,224.35692,64,88,71
224.35692,224.5712,69,88,71
224.5712,224.78549,66,88,71
224.78549,224.99977,64,88,71
224.99977,225.21407,64,88,71
225.21407,225.29977,74,88,71
225.42834,225.85692,76,114,71
225.85692,225.94263,72,88,71
226.0712,226.15692,71,88,71
226.28549,226.49977,69,88,71
226.49977,226.71407,72,88,71
226.71407,226.92834,71,88,71
226.92834,227.14262,69,88,71
227.14262,227.35692,67,88,71
227.35692,227.5712,64,88,71
227.5712,227.78549,62,88,71
227.78549,227.99977,67,88,71
227.99977,228.21405,64,49,71
228.21405,228.42834,62,49,71
228.42834,228.64262,61,49,71
228.64262,228.85692,73,49,71
228.85692,229.28549,74,49,71
229.92834,230.14262,74,49,71
230.14262,230.5712,69,49,71
231.64262,231.85692,78,88,71
231.85692,232.0712,73,88,71
232.0712,232.28548,74,88,71
232.28548,232.49977,74,88,71
232.6069,232.71405,74,88,71
232.71405,232.92834,74,88,71
233.03548,233.14262,76,88,71
233.14262,233.3569,76,88,71
233.46405,233.5712,76,88,71
233.5712,233.78548,76,88,71
233.89262,233.99977,74,88,71
233.99977,234.21405,76,88,71
234.3212,234.42833,71,88,71
234.42833,234.64262,73,88,71
234.74977,234.8569,74,88,71
234.8569,235.0712,76,88,71
235.17833,235.28548,71,88,71
235.28548,235.49977,73,88,71
235.6069,235.71405,74,88,71
235.71405,236.46405,78,101,71
236.46405,236.5712,78,101,71
236.5712,237.3212,78,101,71
237.3212,237.42833,78,101,71
237.42833,238.17833,79,101,71
238.17833,238.28548,79,101,71
238.28548,239.03548,78,101,71
239.03548,239.14262,78,101,71
239.14262,239.89262,76,101,71
239.89262,239.99976,76,101,71
239.99976,240.8569,76,101,71
240.8569,241.6069,73,101,71
241.6069,241.71405,73,101,71
241.71405,242.57118,73,101,71
242.57118,242.99976,74,101,71
243.32118,243.42833,74,101,71
243.42833,243.8569,74,101,71
244.17833,244.28548,74,101,71
244.28548,244.71404,76,101,71
245.03548,245.14261,76,101,71
245.14261,245.57118,76,101,71
245.89261,245.99976,76,101,71
245.99976,246.42833,69,101,71
246.74976,246.8569,69,101,71
246.8569,247.28546,74,101,71
247.60689,247.71404,74,101,71
247.71404,248.14261,74,101,71
248.46404,248.57118,74,101,71
248.57118,248.99976,74,101,71
249.32118,249.36359,74,101,71
249.42833,249.85689,78,127,71
251.78546,251.87117,78,101,71
251.99974,252.42831,81,127,71
254.35689,254.57117,74,101,71
254.57117,254.99974,74,127,71
256.28546,256.71402,83,127,71
256.71402,256.79974,81,101,71
256.9283,257.01404,79,101,71
257.1426,257.2283,78,101,71
257.35687,257.4426,81,101,71
257.57117,257.6569,79,101,71
257.78546,257.8712,78,101,71
257.99976,258.08545,76,101,71
258.21402,258.29974,72,101,71
258.4283,258.51404,78,101,71
259.71402,260.1426,76,127,71
260.1426,260.35687,74,101,71
260.35687,260.57117,72,101,71
260.57117,260.78546,71,101,71
260.78546,260.99973,74,101,71
260.99973,261.21402,72,101,71
261.21402,261.4283,71,101,71
261.4283,261.6426,69,101,71
261.6426,261.85687,66,101,71
261.85687,262.07117,67,101,71
263.57117,263.78546,67,101,71
263.78546,263.99973,76,101,71
263.99973,264.21402,67,101,71
264.21402,264.4283,74,101,71
264.4283,264.64258,67,101,71
264.64258,264.85687,72,101,71
264.85687,265.07117,67,101,71
265.07117,265.28546,71,101,71
265.28546,265.49973,67,101,71
266.99973,267.21402,67,101,71
267.21402,267.4283,76,101,71
267.4283,267.64258,67,101,71
267.64258,267.85687,73,101,71
267.85687,268.07117,67,101,71
268.07117,268.28543,72,101,71
268.28543,268.49973,67,101,71
268.49973,268.71402,71,101,71
268.71402,268.9283,67,101,71
268.9283,269.14258,76,101,71
269.14258,269.35687,67,101,71
269.35687,269.57117,74,101,71
269.57117,269.78543,67,101,71
269.78543,269.99973,72,101,71
269.99973,270.21402,67,101,71
270.21402,270.4283,71,101,71
270.64258,270.7283,76,101,71
271.07117,271.15686,74,101,71
271.49973,271.58545,76,101,71
271.9283,272.014,74,101,71
272.35687,272.4426,76,101,71
272.78543,272.87115,74,101,71
273.21402,273.2997,76,101,71
273.64258,275.14258,71,36,71
275.35687,276.85687,64,36,71
277.07114,278.57114,66,36,71
278.57114,279.42828,67,36,71
279.42828,280.28543,69,36,71
280.28543,282.85687,69,36,71
282.85687,283.714,67,36,71
283.714,284.14258,66,36,71
286.714,287.14258,69,49,71
287.14258,287.99973,74,49,71
293.57114,293.9997,69,75,71
293.9997,295.28543,76,75,71
295.28543,295.714,74,75,71
295.714,296.9997,78,75,71
296.9997,297.42828,71,75,71
297.42828,298.714,79,75,71
298.714,299.14255,76,75,71
299.14255,302.14255,79,101,71
302.14255,302.57114,76,101,71
302.57114,305.14255,79,101,71
305.14255,305.9997,79,101,71
305.9997,306.214,78,101,71
306.64255,306.85684,76,101,71
306.85684,307.07114,78,101,71
307.4997,307.714,81,101,71
307.714,307.92825,78,101,71
308.35684,308.5711,76,101,71
308.5711,308.7854,78,101,71
309.214,309.42825,81,101,71
309.42825,309.64255,78,101,71
310.0711,310.2854,76,101,71
310.2854,310.4997,78,101,71
310.92825,311.14255,76,101,71
311.14255,311.35684,78,101,71
311.7854,311.9997,76,101,71
311.9997,312.21396,78,101,71
312.64255,312.85684,76,101,71
312.85684,313.0711,78,101,71
313.71396,313.92825,76,101,71
314.5711,315.42825,74,101,71
3.428568,3.6428535,50,88,71
3.7499962,3.857139,50,88,71
3.857139,4.0714245,50,88,71
4.1785674,4.28571,52,88,71
4.28571,4.4999957,54,88,71
4.607138,4.714281,54,88,71
4.714281,4.9285665,54,88,71
5.0357094,5.142852,54,88,71
5.142852,5.3571377,54,88,71
5.46428,5.571423,54,88,71
5.571423,5.7857084,54,88,71
5.8928514,5.999994,50,88,71
5.999994,6.2142797,57,88,71
6.321422,6.428565,57,88,71
6.428565,6.6428504,57,88,71
6.7499933,6.857136,57,88,71
6.857136,7.0714216,56,88,71
7.178564,7.285707,57,88,71
7.285707,7.4999924,59,88,71
7.6071353,7.714278,61,88,71
7.714278,7.9285636,59,88,71
8.0357065,8.142849,57,88,71
8.142849,8.357135,57,88,71
8.464277,8.57142,59,88,71
8.57142,8.785706,61,88,71
8.892848,8.999991,56,88,71
8.999991,9.214276,57,88,71
9.32142,9.428562,59,88,71
9.428562,9.642847,61,88,71
9.74999,9.857133,55,88,71
9.857133,10.071419,57,88,71
11.464274,11.571417,66,88,71
11.571417,11.785703,66,88,71
11.892845,11.999988,66,88,71
11.999988,12.428559,66,88,71
13.178558,13.285701,69,88,71
13.285701,13.499987,69,88,71
13.607129,13.714272,69,88,71
13.714272,14.142843,73,88,71
15.321413,15.428556,71,88,71
15.428556,15.642841,73,88,71
16.178555,16.285698,71,88,71
16.285698,16.499983,73,88,71
17.035698,17.14284,74,88,71
17.14284,17.571411,76,114,71
20.357122,20.370516,74,88,71
20.571407,20.742836,76,127,71
27.321402,27.428543,57,88,71
27.428543,27.64283,62,88,71
27.749971,27.857115,62,88,71
27.857115,28.0714,62,88,71
28.178543,28.285686,64,88,71
28.285686,28.499971,66,88,71
28.607115,28.714256,66,88,71
28.714256,28.928543,66,88,71
29.035685,29.142828,66,88,71
29.142828,29.357113,66,88,71
29.464256,29.5714,66,88,71
29.5714,29.785685,66,88,71
29.892828,29.99997,62,88,71
29.99997,30.214256,69,88,71
30.321398,30.428541,69,88,71
30.428541,30.642826,69,88,71
30.74997,30.857113,66,88,71
30.857113,31.071398,64,88,71
31.178541,31.285683,66,88,71
31.285683,31.499968,67,88,71
31.607111,31.714254,68,88,71
31.714254,31.92854,69,88,71
32.035683,32.142826,71,88,71
32.142826,32.35711,73,88,71
32.464252,32.571396,74,88,71
32.571396,32.785683,76,88,71
32.892826,32.999966,71,88,71
32.999966,33.214252,73,88,71
33.321396,33.42854,74,88,71
33.42854,33.642822,76,88,71
33.749966,33.85711,71,88,71
33.85711,34.071396,73,88,71
34.178535,34.28568,74,88,71
34.28568,35.03568,74,101,71
35.03568,35.142822,74,101,71
35.142822,35.892822,74,101,71
35.892822,35.999966,74,101,71
35.999966,36.74996,71,101,71
36.74996,36.857105,71,101,71
36.857105,37.607105,69,101,71
37.607105,37.71425,69,101,71
37.71425,38.46425,74,101,71
38.46425,38.57139,74,101,71
38.57139,39.42853,74,101,71
39.42853,40.17853,67,101,71
40.17853,40.285675,67,101,71
40.285675,41.142815,67,101,71
41.142815,41.57139,66,101,71
41.892815,41.999958,67,101,71
41.999958,42.428528,66,101,71
42.749958,42.8571,66,101,71
42.8571,43.28567,66,101,71
43.607098,43.71424,66,101,71
43.71424,44.142815,66,101,71
44.46424,44.571384,66,101,71
44.571384,44.999954,73,101,71
45.321384,45.428528,73,101,71
45.428528,45.64281,73,101,71
45.749954,45.857098,69,101,71
45.857098,46.07138,73,101,71
46.178524,46.285667,69,101,71
46.285667,47.035667,71,101,71
47.035667,47.14281,73,101,71
47.14281,47.89281,69,101,71
47.89281,47.99995,71,101,71
47.99995,48.74995,68,101,71
48.74995,48.857094,69,101,71
48.857094,49.07138,68,101,71
49.178524,49.285664,68,101,71
49.285664,49.49995,69,101,71
49.607094,49.714237,73,101,71
49.714237,49.92852,66,101,71
50.035664,50.142807,66,101,71
50.142807,50.357094,71,101,71
50.464233,50.571377,61,101,71
50.571377,50.785664,64,101,71
52.499947,52.714233,64,101,71
52.714233,53.142803,64,101,71
53.78566,53.999947,71,101,71
53.999947,54.214233,73,101,71
54.214233,54.428516,71,101,71
54.428516,54.642803,69,101,71
54.642803,54.857086,68,101,71
54.857086,55.071373,70,101,71
55.928516,56.1428,66,101,71
56.1428,56.571373,66,101,71
57.21423,57.428513,67,101,71
57.428513,57.6428,70,101,71
57.6428,57.857086,73,101,71
57.857086,58.07137,72,101,71
58.07137,58.285656,70,101,71
58.285656,58.499943,72,101,71
59.357082,59.57137,68,101,71
59.57137,62.571365,68,101,71
62.571365,62.999935,69,101,71
62.999935,63.42851,71,101,71
63.42851,63.64279,69,101,71
68.57136,69.428505,66,101,71
69.428505,69.85707,68,101,71
70.285645,70.71422,56,101,71
70.71422,71.57136,59,101,71
71.57136,71.99993,64,101,71
71.99993,72.85707,63,101,71
72.85707,73.285645,62,101,71
73.285645,73.71421,59,101,71
73.71421,74.57136,64,101,71
74.57136,75.4285,63,101,71
75.4285,75.85706,62,101,71
77.14278,77.99992,69,101,71
77.99992,78.85706,68,101,71
78.85706,79.7142,69,101,71
79.7142,80.57135,68,101,71
80.57135,81.42849,67,101,71
81.42849,82.28563,66,101,71
82.28563,82.7142,64,101,71
82.7142,83.14278,64,101,71
83.14278,83.57134,71,101,71
83.57134,83.999916,69,101,71
84.42849,84.857056,64,101,71
84.857056,85.28563,73,101,71
85.28563,85.7142,73,101,71
85.7142,86.14277,68,101,71
86.14277,86.57134,69,101,71
86.57134,86.999916,71,101,71
86.999916,87.42848,73,101,71
87.42848,87.857056,74,101,71
87.857056,88.28563,75,101,71
88.28563,88.714195,76,101,71
88.714195,89.14277,74,101,71
89.14277,89.357056,71,101,71
92.78562,93.214195,61,101,71
93.214195,93.64276,69,101,71
93.64276,94.071335,73,101,71
94.071335,94.928474,76,101,71
94.928474,95.14276,74,88,71
95.14276,95.35705,73,88,71
95.35705,95.571335,71,88,71
95.571335,95.78562,69,88,71
95.78562,95.9999,67,88,71
95.9999,96.21419,66,88,71
96.21419,96.428474,64,88,71
96.428474,96.64276,62,88,71
96.64276,96.85705,61,88,71
96.85705,97.071335,50,88,71
97.178474,97.285614,50,88,71
97.285614,97.4999,50,88,71
97.60705,97.71419,52,88,71
97.71419,97.928474,54,88,71
98.035614,98.14276,54,88,71
98.14276,98.35705,54,88,71
98.46419,98.57133,54,88,71
98.57133,98.785614,54,88,71
98.89276,98.9999,54,88,71
98.9999,99.21419,54,88,71
99.32133,99.428474,50,88,71
99.428474,99.64276,57,88,71
99.7499,99.85704,57,88,71
99.85704,100.07133,57,88,71
100.178474,100.285614,57,88,71
100.285614,100.4999,56,88,71
100.60704,100.71419,57,88,71
100.71419,100.92847,59,88,71
101.035614,101.14275,61,88,71
101.14275,101.35704,59,88,71
101.46419,101.57133,57,88,71
101.57133,101.785614,57,88,71
101.89275,101.9999,59,88,71
101.9999,102.21418,61,88,71
102.32133,102.42847,56,88,71
102.42847,102.64275,57,88,71
102.7499,102.85704,59,88,71
102.85704,103.07133,61,88,71
103.17847,103.285614,55,88,71
103.285614,103.49989,57,88,71
104.89275,104.99989,66,88,71
104.99989,105.21418,66,88,71
105.32132,105.42847,66,88,71
105.42847,105.85704,66,88,71
106.60703,106.71418,69,88,71
106.71418,106.92847,69,88,71
107.03561,107.14275,69,88,71
107.14275,107.57132,73,88,71
108.74989,108.85703,71,88,71
108.85703,109.07132,73,88,71
109.60703,109.71417,71,88,71
109.71417,109.92846,73,88,71
110.46417,110.57132,74,88,71
110.57132,110.999886,76,75,71
110.999886,111.0856,74,49,71
111.21417,111.29989,73,49,71
111.42846,111.514175,71,49,71
111.642746,111.72846,74,49,71
111.85703,111.94274,73,49,71
112.07132,112.15703,71,49,71
112.2856,112.499886,69,49,71
112.499886,112.71417,66,49,71
112.71417,112.92846,64,49,71
112.92846,113.142746,69,49,71
113.142746,113.35703,66,88,71
113.35703,113.57131,64,88,71
113.57131,113.7856,64,88,71
113.7856,113.871315,74,88,71
113.999886,114.42846,76,114,71
114.42846,114.51417,72,88,71
114.642746,114.728455,71,88,71
114.857025,114.94274,69,88,71
115.07131,115.15703,72,88,71
115.2856,115.371315,71,88,71
115.499886,115.5856,69,88,71
115.71417,115.92846,67,88,71
115.92846,116.14274,64,88,71
116.14274,116.357025,62,88,71
116.357025,116.57131,67,88,71
116.57131,116.7856,64,88,71
116.7856,116.999886,62,88,71
116.999886,117.214165,62,88,71
117.214165,117.29988,74,88,71
117.42845,118.07131,76,114,71
118.07131,118.15703,74,88,71
118.2856,118.92845,76,114,71
118.92845,119.14274,74,88,71
119.14274,119.357025,76,88,71
119.357025,119.57131,74,88,71
119.57131,119.78559,76,88,71
119.78559,119.99988,74,88,71
119.99988,120.214165,76,88,71
120.214165,120.42845,62,88,71
120.42845,120.64274,64,88,71
120.64274,120.857025,62,88,71
120.857025,121.28559,67,114,71
121.28559,121.49988,72,88,71
121.49988,121.714165,71,88,71
121.714165,121.92845,69,88,71
121.92845,122.14274,72,88,71
122.14274,122.35702,71,88,71
122.35702,122.571304,69,88,71
122.571304,122.78559,67,88,71
122.78559,122.99988,64,88,71
122.99988,123.214165,62,88,71
123.214165,123.42845,67,88,71
123.42845,123.64273,64,88,71
123.64273,123.85702,62,88,71
123.85702,124.071304,62,88,71
125.571304,125.99987,67,88,71
125.99987,126.85702,72,88,71
127.28558,127.71416,74,88,71
127.71416,128.14273,79,88,71
131.14273,131.22844,67,88,71
131.35701,131.44272,69,88,71
131.5713,131.99986,70,88,71
131.99986,132.01326,72,88,71
132.21416,132.22754,70,88,71
132.42844,132.85701,69,88,71
132.85701,132.94272,71,88,71
133.07129,133.15701,72,88,71
133.28558,133.71416,74,88,71
133.71416,133.79987,76,88,71
133.92844,134.01414,74,88,71
134.14272,134.57129,72,88,71
134.57129,134.65701,71,88,71
134.78558,134.87129,72,88,71
134.99986,135.42844,74,88,71
135.42844,135.51414,72,88,71
135.64272,135.72844,74,88,71
135.85701,136.28558,75,88,71
136.28558,136.71414,74,88,71
142.28557,143.14272,72,88,71
143.14272,143.57129,70,49,71
143.57129,143.657,62,49,71
143.78557,143.87129,65,49,71
143.99986,144.08557,63,49,71
144.21414,144.29985,67,49,71
144.42842,144.51414,65,49,71
144.64272,144.72842,63,49,71
144.857,144.94272,62,49,71
145.07129,145.157,65,49,71
145.28557,145.37128,65,49,71
145.49985,145.58557,65,49,71
145.71414,145.79985,65,49,71
145.92842,146.01414,65,49,71
146.14272,146.22842,65,49,71
151.07127,151.28557,50,49,71
151.28557,151.42798,58,49,71
151.42798,151.57127,57,49,71
151.57127,151.62798,55,49,71
151.71413,151.85655,53,49,71
151.85655,151.99985,55,49,71
151.99985,152.05655,57,49,71
152.1427,152.357,52,49,71
152.357,152.57127,50,49,71
152.57127,152.99985,49,49,71
157.92842,158.1427,68,49,71
158.1427,158.57127,69,49,71
159.6427,159.85698,68,49,71
159.85698,160.28555,69,49,71
160.49983,160.71413,68,49,71
160.71413,161.1427,69,49,71
161.35698,161.57127,68,49,71
161.57127,161.78555,69,49,71
161.78555,161.99983,68,49,71
161.99983,162.21413,69,49,71
162.21413,162.4284,68,49,71
162.4284,162.6427,69,49,71
162.6427,162.85698,68,49,71
162.85698,163.07126,69,88,71
171.4284,172.28554,55,88,71
172.28554,172.71411,55,88,71
173.14268,173.99983,67,88,71
173.99983,174.42839,66,88,71
174.85696,175.71411,61,88,71
175.71411,176.14268,62,88,71
176.14268,176.57126,61,88,71
176.57126,178.28554,62,88,71
178.28554,179.14268,61,88,71
181.71411,182.35696,71,88,71
182.35696,182.57124,67,88,71
182.57124,183.42839,64,88,71
183.42839,184.28552,62,88,71
184.28552,184.7141,61,88,71
187.7141,187.92839,62,36,71
188.35695,188.57124,62,36,71
188.57124,188.78552,64,36,71
189.2141,189.42838,64,36,71
189.42838,189.64267,66,36,71
190.07124,190.28552,66,36,71
190.28552,190.49982,69,36,71
190.92838,191.14267,69,36,71
191.14267,191.9998,72,36,71
191.9998,192.42838,71,36,71
192.42838,192.5141,67,36,71
192.64267,192.72838,59,36,71
192.85695,193.28552,67,36,71
193.28552,193.7141,66,36,71
193.7141,194.14267,61,36,71
194.14267,194.57123,62,36,71
194.57123,194.9998,64,36,71
194.9998,195.42838,62,36,71
195.42838,195.85695,64,36,71
195.85695,196.28552,66,36,71
196.28552,196.7141,61,36,71
196.7141,197.14265,62,36,71
197.14265,197.57123,64,36,71
197.57123,197.9998,69,36,71
197.9998,198.42838,67,36,71
198.42838,198.85695,68,36,71
198.85695,199.28552,69,36,71
199.28552,199.71408,71,36,71
199.71408,199.92838,73,36,71
203.35693,203.7855,66,49,71
203.7855,204.21408,66,49,71
204.21408,204.64265,66,49,71
204.64265,205.07123,64,49,71
205.07123,205.2855,65,49,71
205.2855,205.4998,67,49,71
205.4998,205.71408,65,49,71
205.71408,206.35693,64,49,71
206.35693,206.57123,57,49,71
206.57123,206.7855,62,75,71
206.89265,206.99979,50,75,71
206.99979,207.21408,50,75,71
207.32123,207.42836,52,75,71
207.42836,207.64265,53,75,71
207.74979,207.85693,53,75,71
207.85693,208.07123,53,75,71
208.17836,208.2855,53,75,71
208.2855,208.49979,53,75,71
208.60693,208.71408,53,75,71
208.71408,208.92836,53,75,71
209.0355,209.14265,55,75,71
209.14265,209.35693,57,75,71
209.46408,209.57121,57,75,71
209.57121,209.7855,57,75,71
209.89265,209.99979,57,75,71
209.99979,210.21408,55,75,71
210.32121,210.42836,57,75,71
210.42836,210.64264,58,75,71
210.74979,210.85693,60,75,71
210.85693,211.07121,57,88,71
211.17836,211.2855,58,88,71
211.2855,211.49979,60,88,71
211.60693,211.71408,62,88,71
211.71408,211.92836,59,88,71
212.0355,212.14264,61,88,71
212.14264,212.35693,62,88,71
212.46408,212.57121,64,88,71
212.57121,212.7855,62,88,71
212.89264,212.99979,61,88,71
212.99979,213.21407,57,88,71
213.32121,213.42836,59,88,71
213.42836,213.64264,61,88,71
213.74979,213.85693,56,88,71
213.85693,214.07121,57,88,71
214.17836,214.2855,59,88,71
214.2855,214.49979,61,88,71
214.60693,214.71407,55,88,71
214.71407,214.92836,57,88,71
215.03549,215.14264,69,88,71
215.14264,215.35693,74,88,71
215.46407,215.57121,74,88,71
215.57121,215.78549,74,88,71
215.89264,215.99979,76,88,71
215.99979,216.21407,78,88,71
216.32121,216.42836,66,88,71
216.42836,216.64264,66,88,71
216.74979,216.85693,66,88,71
216.85693,217.07121,66,88,71
217.17836,217.28549,66,88,71
217.28549,217.49979,66,88,71
217.60692,217.71407,68,88,71
217.71407,217.92836,69,88,71
218.03549,218.14264,69,88,71
218.14264,218.35692,69,88,71
218.46407,218.57121,69,88,71
218.57121,218.78549,68,88,71
218.89264,218.99979,69,88,71
218.99979,219.21407,71,88,71
219.32121,219.42834,73,88,71
219.42834,219.64264,71,88,71
219.74979,219.85692,69,88,71
219.85692,220.07121,69,88,71
220.17834,220.28549,71,88,71
220.28549,220.49979,73,88,71
220.60692,220.71407,68,88,71
220.71407,220.92834,69,88,71
221.03549,221.14264,71,88,71
221.14264,221.35692,73,88,71
221.46407,221.57121,68,88,71
221.57121,221.78549,69,88,71
221.89264,221.93504,74,88,71
221.99977,222.42834,76,114,71
222.42834,222.51407,56,88,71
222.64264,222.72835,57,88,71
222.85692,222.94263,59,88,71
223.07121,223.15692,56,88,71
223.28549,223.3712,57,88,71
223.49977,223.5855,59,88,71
223.71407,223.92834,61,88,71
223.92834,224.14264,62,88,71
224.14264,224.35692,64,88,71
224.35692,224.5712,61,88,71
224.5712,224.78549,62,88,71
224.78549,224.99977,64,88,71
224.99977,225.21407,64,88,71
225.21407,225.29977,74,88,71
225.42834,225.85692,76,114,71
225.85692,225.94263,54,88,71
226.0712,226.15692,55,88,71
226.28549,226.49977,57,88,71
226.49977,226.71407,54,88,71
226.71407,226.92834,55,88,71
226.92834,227.14262,57,88,71
227.14262,227.35692,59,88,71
227.35692,227.5712,61,88,71
227.5712,227.78549,62,88,71
227.78549,227.99977,59,88,71
227.99977,228.21405,61,49,71
228.21405,228.42834,62,49,71
228.42834,228.64262,62,49,71
228.64262,228.85692,69,49,71
228.85692,229.28549,74,49,71
232.0712,232.28548,66,88,71
232.28548,232.49977,64,88,71
232.6069,232.71405,66,88,71
232.71405,232.92834,67,88,71
233.03548,233.14262,68,88,71
233.14262,233.3569,69,88,71
233.46405,233.5712,71,88,71
233.5712,233.78548,73,88,71
233.89262,233.99977,66,88,71
233.99977,234.21405,71,88,71
234.3212,234.42833,71,88,71
234.42833,234.64262,69,88,71
234.74977,234.8569,66,88,71
234.8569,235.0712,71,88,71
235.17833,235.28548,71,88,71
235.28548,235.49977,69,88,71
235.6069,235.71405,66,88,71
235.71405,236.46405,69,101,71
236.46405,236.5712,69,101,71
236.5712,237.3212,69,101,71
237.3212,237.42833,69,101,71
237.42833,238.17833,71,101,71
238.17833,238.28548,71,101,71
238.28548,239.03548,69,101,71
239.03548,239.14262,69,101,71
239.14262,239.89262,74,101,71
239.89262,239.99976,74,101,71
239.99976,240.8569,74,101,71
240.8569,241.6069,67,101,71
241.6069,241.71405,67,101,71
241.71405,242.57118,67,101,71
242.57118,242.99976,66,101,71
243.32118,243.42833,66,101,71
243.42833,243.8569,66,101,71
244.17833,244.28548,66,101,71
244.28548,244.71404,67,101,71
245.03548,245.14261,67,101,71
245.14261,245.57118,67,101,71
245.89261,245.99976,67,101,71
245.99976,246.42833,72,101,71
246.74976,246.8569,72,101,71
246.8569,247.28546,71,101,71
247.60689,247.71404,71,101,71
247.71404,248.14261,71,101,71
248.46404,248.57118,71,101,71
248.57118,248.99976,71,101,71
249.32118,249.36359,71,101,71
249.42833,249.85689,69,127,71
251.78546,251.87117,74,101,71
251.99974,252.42831,78,127,71
254.35689,254.57117,69,101,71
254.57117,254.99974,71,127,71
256.28546,256.71402,71,127,71
256.71402,256.79974,69,101,71
256.9283,257.01404,67,101,71
257.1426,257.2283,66,101,71
257.35687,257.4426,69,101,71
257.57117,257.6569,67,101,71
257.78546,257.8712,66,101,71
257.99976,258.08545,64,101,71
258.21402,258.29974,60,101,71
258.4283,258.51404,66,101,71
259.71402,260.1426,64,127,71
260.1426,260.35687,62,101,71
260.35687,260.57117,72,101,71
260.57117,260.78546,71,101,71
260.78546,260.99973,74,101,71
260.99973,261.21402,72,101,71
261.21402,261.4283,71,101,71
261.4283,261.6426,69,101,71
261.6426,261.85687,66,101,71
261.85687,262.07117,67,101,71
263.57117,263.78546,67,101,71
263.78546,263.99973,76,101,71
263.99973,264.21402,67,101,71
264.21402,264.4283,74,101,71
264.4283,264.64258,67,101,71
264.64258,264.85687,72,101,71
264.85687,265.07117,67,101,71
265.07117,265.28546,71,101,71
265.28546,265.49973,67,101,71
266.99973,267.21402,67,101,71
267.21402,267.4283,76,101,71
267.4283,267.64258,67,101,71
267.64258,267.85687,74,101,71
267.85687,268.07117,67,101,71
268.07117,268.28543,72,101,71
268.28543,268.49973,67,101,71
268.49973,268.71402,71,101,71
270.64258,270.7283,72,101,71
271.07117,271.15686,71,101,71
271.49973,271.58545,72,101,71
271.9283,272.014,71,101,71
272.35687,272.4426,72,101,71
272.78543,272.87115,71,101,71
273.21402,273.2997,72,101,71
273.64258,275.14258,62,36,71
275.35687,276.85687,62,36,71
277.07114,280.28543,62,36,71
280.28543,282.85687,62,36,71
282.85687,283.714,61,36,71
283.714,284.14258,62,36,71
288.42828,288.85684,57,49,71
288.85684,289.714,69,49,71
293.57114,293.9997,64,75,71
293.9997,295.28543,73,75,71
295.28543,295.714,69,75,71
295.714,296.9997,72,75,71
296.9997,298.714,71,75,71
298.714,299.14255,73,75,71
299.14255,302.14255,73,101,71
302.14255,302.57114,73,101,71
302.57114,305.14255,73,101,71
305.14255,305.9997,76,101,71
305.9997,306.214,74,101,71
306.64255,306.85684,73,101,71
306.85684,307.07114,74,101,71
307.4997,307.714,73,101,71
307.714,307.92825,74,101,71
308.35684,308.5711,73,101,71
308.5711,308.7854,74,101,71
309.214,309.42825,73,101,71
309.42825,309.64255,74,101,71
310.0711,310.2854,73,101,71
310.2854,310.4997,74,101,71
310.92825,311.14255,73,101,71
311.14255,311.35684,74,101,71
311.7854,311.9997,73,101,71
311.9997,312.21396,74,101,71
312.64255,312.85684,73,101,71
312.85684,313.0711,74,101,71
313.71396,313.92825,67,101,71
314.5711,315.42825,66,101,71
3.3214252,3.428568,45,88,70
3.428568,3.6428535,50,88,70
4.1785674,4.28571,45,88,70
4.28571,4.4999957,50,88,70
5.0357094,5.142852,45,88,70
5.142852,5.3571377,50,88,70
5.8928514,5.999994,45,88,70
5.999994,6.2142797,54,88,70
6.7499933,6.857136,49,88,70
6.857136,7.0714216,61,88,70
7.6071353,7.714278,54,88,70
7.714278,7.9285636,54,88,70
8.464277,8.57142,52,88,70
8.57142,8.999991,52,88,70
8.999991,9.214276,57,88,70
9.32142,9.428562,52,88,70
9.428562,9.857133,52,88,70
9.857133,10.071419,57,88,70
11.892845,11.999988,54,88,70
11.999988,12.428559,54,88,70
13.607129,13.714272,57,88,70
13.714272,14.142843,61,88,70
16.178555,16.285698,59,88,70
16.285698,16.499983,61,88,70
17.035698,17.14284,62,88,70
17.14284,17.571411,64,114,70
20.357122,20.370516,62,88,70
20.571407,20.742836,64,127,70
23.571405,23.65712,59,49,70
23.78569,23.871405,55,49,70
23.999975,24.013369,52,49,70
24.214262,24.299976,59,49,70
24.428547,24.514261,55,49,70
24.642832,24.728546,52,49,70
24.857119,24.942833,49,49,70
25.071404,25.157118,55,49,70
25.285688,25.371403,52,49,70
25.499975,25.58569,49,49,70
25.71426,25.799974,45,88,70
28.607115,28.714256,54,88,70
28.714256,28.928543,54,88,70
29.035685,29.142828,62,88,70
29.142828,29.5714,57,88,70
30.321398,30.428541,66,88,70
30.428541,30.642826,61,88,70
30.74997,30.857113,43,88,70
30.857113,31.071398,55,88,70
31.178541,31.285683,54,88,70
31.285683,31.499968,52,88,70
31.607111,31.714254,50,88,70
31.714254,31.92854,49,88,70
32.035683,32.142826,47,88,70
32.142826,32.35711,45,88,70
32.464252,32.571396,50,88,70
32.571396,32.785683,43,88,70
32.892826,32.999966,40,88,70
32.999966,33.214252,45,88,70
33.321396,33.42854,50,88,70
33.42854,33.642822,43,88,70
33.749966,33.85711,40,88,70
33.85711,34.071396,45,88,70
34.178535,34.28568,50,88,70
34.28568,34.499966,62,101,70
34.60711,34.714252,57,101,70
34.714252,34.928535,59,101,70
35.03568,35.142822,61,101,70
35.142822,35.35711,62,101,70
35.46425,35.571392,57,101,70
35.571392,35.78568,59,101,70
35.892822,35.999966,61,101,70
35.999966,36.21425,59,101,70
36.321392,36.428535,55,101,70
36.428535,36.642822,57,101,70
36.74996,36.857105,59,101,70
36.857105,37.071392,57,101,70
37.178535,37.28568,54,101,70
37.28568,37.49996,55,101,70
37.607105,37.71425,57,101,70
37.71425,37.92853,56,101,70
38.035675,38.14282,56,101,70
38.14282,38.357105,59,101,70
38.46425,38.57139,64,101,70
38.57139,39.64282,64,127,70
39.74996,39.8571,57,101,70
39.8571,40.07139,64,101,70
40.17853,40.285675,57,101,70
40.285675,41.142815,57,101,70
41.142815,41.57139,54,101,70
41.892815,41.999958,55,101,70
41.999958,42.428528,54,101,70
42.749958,42.8571,54,101,70
42.8571,43.28567,54,101,70
43.607098,43.71424,54,101,70
43.71424,44.142815,54,101,70
44.46424,44.571384,62,101,70
44.571384,44.999954,65,101,70
45.321384,45.428528,65,101,70
45.428528,45.857098,66,101,70
46.607098,46.714237,59,101,70
46.714237,47.14281,64,101,70
47.464237,47.57138,57,101,70
47.57138,47.99995,62,101,70
48.32138,48.428524,56,101,70
48.428524,48.857094,61,101,70
48.857094,49.07138,59,101,70
49.178524,49.285664,56,101,70
49.285664,49.49995,54,101,70
49.607094,49.714237,52,101,70
49.714237,49.92852,50,101,70
50.035664,50.142807,49,101,70
50.142807,50.357094,47,101,70
50.464233,50.571377,45,101,70
50.571377,50.785664,44,101,70
50.785664,50.99995,52,101,70
50.99995,51.42852,52,101,70
51.42852,51.642807,52,101,70
53.35709,53.571377,52,101,70
53.571377,53.999947,52,101,70
55.071373,55.28566,66,101,70
55.28566,55.928516,66,101,70
56.785656,56.999943,54,101,70
56.999943,57.428513,54,101,70
58.499943,58.714226,68,101,70
58.714226,59.357082,68,101,70
60.214226,60.428513,56,101,70
60.428513,62.571365,56,101,70
62.571365,62.999935,59,101,70
62.999935,63.42851,52,101,70
63.42851,63.64279,57,101,70
68.57136,69.428505,63,101,70
69.428505,69.85707,64,101,70
77.57135,77.99992,52,101,70
77.99992,78.42849,64,101,70
78.42849,78.514206,62,101,70
78.64278,78.72849,59,101,70
78.85706,79.28564,57,101,70
79.28564,79.49992,52,101,70
79.49992,79.7142,57,101,70
79.7142,80.14278,59,101,70
80.14278,80.35706,52,101,70
80.35706,80.57135,59,101,70
80.57135,80.999916,61,101,70
80.999916,81.14233,69,101,70
81.14233,81.28563,67,101,70
81.28563,81.42849,64,101,70
81.42849,81.85706,61,101,70
81.85706,81.99947,66,101,70
81.99947,82.14278,62,101,70
82.14278,82.28563,59,101,70
82.28563,82.7142,62,101,70
82.7142,83.14278,61,101,70
83.14278,83.57134,56,101,70
83.57134,83.999916,57,101,70
83.999916,84.42849,62,101,70
84.42849,84.857056,61,101,70
84.857056,85.28563,56,101,70
85.28563,85.7142,57,101,70
85.7142,86.14277,50,101,70
86.14277,86.57134,49,101,70
86.57134,86.999916,44,101,70
86.999916,87.42848,45,101,70
87.42848,87.857056,47,101,70
87.857056,88.28563,48,101,70
88.28563,88.714195,49,101,70
88.714195,89.14277,50,101,70
89.14277,89.357056,52,101,70
92.78562,93.214195,54,101,70
93.214195,93.64276,57,101,70
93.64276,94.071335,52,101,70
94.071335,94.28562,45,101,70
94.28562,94.928474,45,88,70
94.928474,95.14276,47,88,70
95.14276,95.35705,49,88,70
95.35705,95.571335,50,88,70
95.571335,95.78562,52,88,70
95.78562,95.9999,54,88,70
95.9999,96.21419,55,88,70
96.21419,96.428474,57,88,70
96.428474,96.64276,59,88,70
96.64276,96.85705,61,88,70
96.85705,97.071335,62,88,70
100.178474,100.285614,55,88,70
100.285614,100.4999,61,88,70
105.32132,105.42847,54,88,70
105.42847,105.85704,54,88,70
107.03561,107.14275,57,88,70
107.14275,107.57132,61,88,70
108.74989,108.85703,66,88,70
108.85703,109.07132,64,88,70
109.60703,109.71417,66,88,70
109.71417,109.92846,64,88,70
110.46417,110.57132,62,88,70
110.57132,110.999886,64,75,70
113.7856,113.871315,62,88,70
113.999886,114.42846,64,114,70
117.214165,117.29988,62,88,70
117.42845,118.07131,64,114,70
118.07131,118.15703,62,88,70
118.2856,118.92845,64,114,70
118.92845,119.14274,62,88,70
119.14274,119.357025,64,88,70
119.357025,119.57131,62,88,70
119.57131,119.78559,64,88,70
119.78559,119.99988,50,88,70
119.99988,120.214165,52,88,70
120.214165,120.42845,50,88,70
120.42845,120.64274,52,88,70
120.64274,120.857025,38,88,70
120.857025,121.28559,36,114,70
121.28559,121.49988,36,88,70
121.49988,121.714165,40,88,70
121.714165,121.92845,41,88,70
121.92845,122.14274,41,88,70
122.14274,122.35702,45,88,70
122.35702,122.571304,47,88,70
122.571304,122.78559,48,88,70
122.78559,122.99988,52,88,70
122.99988,123.214165,55,88,70
123.214165,123.42845,48,88,70
123.42845,123.64273,52,88,70
123.64273,123.85702,55,88,70
123.85702,124.071304,55,88,70
125.571304,125.99987,55,88,70
125.99987,126.85702,60,88,70
128.14273,128.5713,55,49,70
128.5713,128.99988,67,49,70
128.99988,129.08559,65,49,70
129.21416,129.29987,62,49,70
129.42844,129.85701,60,49,70
129.85701,129.94273,55,49,70
130.0713,130.15701,60,49,70
130.28558,130.71416,62,49,70
130.71416,130.79987,55,49,70
130.92844,131.01416,62,49,70
131.14273,131.5713,60,49,70
131.5713,131.65701,48,49,70
131.78558,131.87129,55,49,70
131.99986,132.42844,53,49,70
132.42844,132.64273,48,49,70
132.64273,132.85701,53,49,70
132.85701,133.28558,50,49,70
133.28558,133.49986,43,49,70
133.49986,133.71416,50,49,70
133.71416,134.14272,48,49,70
134.14272,134.35701,43,49,70
134.35701,134.57129,48,49,70
134.57129,134.99986,50,49,70
134.99986,135.21416,43,49,70
135.21416,135.42844,50,49,70
135.42844,135.85701,52,49,70
135.85701,136.07129,43,49,70
136.07129,136.28558,54,49,70
136.28558,136.49986,55,49,70
142.28557,143.14272,53,49,70
143.14272,143.57129,58,49,70
143.57129,143.657,46,49,70
143.78557,143.87129,52,49,70
143.99986,144.08557,51,49,70
144.21414,144.29985,39,49,70
144.42842,144.51414,43,49,70
144.64272,144.72842,45,49,70
144.857,144.94272,46,49,70
145.07129,145.157,50,49,70
145.28557,145.37128,53,49,70
145.49985,145.58557,47,49,70
145.71414,145.79985,50,49,70
145.92842,146.01414,53,49,70
146.14272,146.22842,53,49,70
156.6427,156.85698,57,49,70
156.85698,156.99939,53,49,70
156.99939,157.1427,57,49,70
157.1427,157.1994,53,49,70
157.28555,157.42796,62,49,70
157.42796,157.57127,57,49,70
157.57127,157.62796,53,49,70
157.71413,158.1427,57,49,70
158.35698,158.57127,57,49,70
158.57127,158.71368,53,49,70
158.71368,158.85698,57,49,70
158.85698,158.91368,53,49,70
158.99985,159.14226,62,49,70
159.14226,159.28555,57,49,70
159.28555,159.34225,53,49,70
159.4284,159.85698,57,49,70
160.07127,160.28555,53,49,70
160.28555,160.71413,57,49,70
160.9284,161.1427,53,49,70
161.1427,161.35698,57,49,70
161.35698,161.78555,57,49,70
161.78555,162.21413,57,49,70
162.21413,162.6427,57,49,70
162.6427,163.07126,57,49,70
171.4284,172.28554,57,88,70
172.28554,172.71411,50,88,70
173.14268,173.99983,57,88,70
173.99983,174.42839,51,88,70
179.14268,180.42839,45,88,70
180.42839,180.85696,48,88,70
180.85696,181.71411,52,88,70
181.71411,182.57124,43,88,70
182.57124,184.28552,45,88,70
184.28552,184.7141,45,88,70
188.14267,188.57124,57,49,70
188.57124,188.99982,69,49,70
188.99982,189.08553,67,49,70
189.2141,189.2998,64,49,70
189.42838,189.85695,62,49,70
189.85695,189.94267,57,49,70
190.07124,190.15695,62,49,70
190.28552,190.7141,64,49,70
190.7141,190.7998,57,49,70
190.92838,191.0141,64,49,70
191.14267,191.9998,62,49,70
191.9998,192.85695,55,49,70
192.85695,194.57123,57,49,70
194.57123,194.9998,55,49,70
194.9998,195.42838,54,49,70
195.42838,195.85695,49,49,70
195.85695,196.28552,50,49,70
196.28552,196.7141,55,49,70
196.7141,197.14265,54,49,70
197.14265,197.57123,49,49,70
197.57123,197.9998,50,49,70
197.9998,198.42838,52,49,70
198.42838,198.85695,53,49,70
198.85695,199.28552,54,49,70
199.28552,199.71408,55,49,70
199.71408,199.92838,57,49,70
203.57123,203.9998,58,49,70
203.9998,204.42836,57,49,70
204.42836,204.85693,56,49,70
204.85693,205.07123,55,49,70
205.07123,205.2855,53,49,70
205.2855,205.4998,52,49,70
205.4998,205.71408,50,49,70
205.71408,205.92836,49,49,70
205.92836,206.14265,47,49,70
206.14265,206.35693,45,49,70
206.35693,206.57123,49,49,70
206.57123,206.7855,50,75,70
207.32123,207.42836,45,75,70
207.42836,207.64265,50,75,70
208.17836,208.2855,45,75,70
208.2855,208.49979,50,75,70
209.0355,209.14265,46,75,70
209.14265,209.35693,53,75,70
209.89265,209.99979,48,75,70
209.99979,210.21408,60,75,70
210.74979,210.85693,53,75,70
210.85693,211.07121,65,88,70
211.60693,211.71408,62,88,70
211.71408,211.92836,64,88,70
212.46408,212.57121,40,88,70
212.57121,212.7855,52,88,70
213.32121,213.42836,40,88,70
213.42836,213.85693,52,88,70
213.85693,214.07121,45,88,70
214.17836,214.2855,40,88,70
214.2855,214.71407,52,88,70
214.71407,214.92836,45,88,70
215.46407,215.57121,45,88,70
215.57121,215.78549,50,88,70
215.89264,215.99979,50,88,70
215.99979,216.21407,50,88,70
216.32121,216.42836,62,88,70
216.42836,216.64264,57,88,70
216.74979,216.85693,62,88,70
216.85693,217.07121,57,88,70
217.17836,217.28549,45,88,70
217.28549,217.49979,50,88,70
217.60692,217.71407,50,88,70
217.71407,217.92836,54,88,70
218.03549,218.14264,66,88,70
218.14264,218.35692,61,88,70
218.46407,218.57121,66,88,70
218.57121,218.99979,61,88,70
219.32121,219.42834,54,88,70
219.42834,219.64264,54,88,70
220.17834,220.28549,66,88,70
220.28549,220.49979,64,88,70
220.49979,220.71407,62,88,70
220.71407,220.92834,61,88,70
220.92834,221.14264,66,88,70
221.14264,221.35692,64,88,70
221.35692,221.57121,62,88,70
221.57121,221.78549,61,88,70
221.89264,221.93504,62,88,70
221.99977,222.42834,64,114,70
222.42834,222.51407,52,88,70
222.64264,222.72835,54,88,70
222.85692,222.94263,56,88,70
223.07121,223.15692,52,88,70
223.28549,223.3712,54,88,70
223.49977,223.5855,56,88,70
223.71407,223.92834,57,88,70
223.92834,224.14264,59,88,70
224.14264,224.35692,61,88,70
224.35692,224.5712,57,88,70
224.5712,224.78549,59,88,70
224.78549,224.99977,61,88,70
224.99977,225.21407,61,88,70
225.21407,225.29977,62,88,70
225.42834,225.85692,64,114,70
225.85692,225.94263,50,88,70
226.0712,226.15692,52,88,70
226.28549,226.49977,54,88,70
226.49977,226.71407,50,88,70
226.71407,226.92834,52,88,70
226.92834,227.14262,54,88,70
227.14262,227.35692,55,88,70
227.35692,227.5712,57,88,70
227.5712,227.78549,59,88,70
227.78549,227.99977,55,88,70
227.99977,228.21405,57,49,70
228.21405,228.42834,59,49,70
228.42834,228.64262,59,49,70
228.64262,228.85692,64,49,70
228.85692,229.28549,66,49,70
229.92834,230.14262,62,49,70
230.14262,230.5712,57,49,70
231.64262,231.85692,66,88,70
231.85692,232.0712,61,88,70
232.0712,232.28548,43,88,70
232.28548,232.49977,55,88,70
232.49977,232.6069,55,88,70
232.6069,232.71405,54,88,70
232.71405,232.92834,52,88,70
233.03548,233.14262,50,88,70
233.14262,233.3569,49,88,70
233.46405,233.5712,47,88,70
233.5712,233.78548,45,88,70
233.89262,233.99977,50,88,70
233.99977,234.21405,43,88,70
234.3212,234.42833,40,88,70
234.42833,234.64262,45,88,70
234.74977,234.8569,50,88,70
234.8569,235.0712,43,88,70
235.17833,235.28548,40,88,70
235.28548,235.49977,45,88,70
235.6069,235.71405,50,88,70
235.71405,235.92833,62,101,70
236.03548,236.14262,57,101,70
236.14262,236.3569,59,101,70
236.46405,236.5712,60,101,70
236.5712,236.78548,62,101,70
236.89262,236.99976,57,101,70
236.99976,237.21405,59,101,70
237.3212,237.42833,60,101,70
237.42833,237.64262,59,101,70
237.74976,237.8569,55,101,70
237.8569,238.0712,57,101,70
238.17833,238.28548,59,101,70
238.28548,238.49976,57,101,70
238.6069,238.71405,54,101,70
238.71405,238.92833,55,101,70
239.03548,239.14262,57,101,70
239.14262,239.3569,56,101,70
239.46405,239.57118,56,101,70
239.57118,239.78548,59,101,70
239.89262,239.99976,64,101,70
239.99976,241.07118,64,101,70
241.17833,241.28548,57,101,70
241.28548,241.49976,64,101,70
241.6069,241.71405,57,101,70
241.71405,242.57118,57,101,70
242.57118,242.99976,62,101,70
243.32118,243.42833,62,101,70
243.42833,243.8569,62,101,70
244.17833,244.28548,62,101,70
244.28548,244.71404,64,101,70
245.03548,245.14261,64,101,70
245.14261,245.57118,64,101,70
245.89261,245.99976,64,101,70
245.99976,246.42833,66,101,70
246.74976,246.8569,66,101,70
246.8569,247.28546,67,101,70
247.60689,247.71404,67,101,70
247.71404,248.14261,50,101,70
248.46404,248.57118,50,101,70
248.57118,248.99976,56,101,70
249.32118,249.36359,56,101,70
249.42833,249.85689,57,127,70
249.85689,250.07118,64,101,70
250.07118,250.28546,62,101,70
250.28546,250.49976,57,101,70
250.49976,250.71404,64,101,70
250.71404,250.92831,62,101,70
250.92831,251.14261,57,101,70
251.14261,251.35689,62,101,70
251.35689,251.57118,57,101,70
251.57118,251.65689,54,101,70
251.78546,251.87117,50,101,70
251.99974,252.42831,45,127,70
252.42831,252.64261,64,101,70
252.64261,252.85689,62,101,70
252.85689,253.07118,57,101,70
253.07118,253.28546,64,101,70
253.28546,253.49974,62,101,70
253.49974,253.71404,57,101,70
253.71404,253.92831,59,101,70
253.92831,254.14261,54,101,70
254.14261,254.35689,50,101,70
254.35689,254.57117,47,101,70
254.57117,254.99974,55,127,70
256.71402,257.1426,52,127,70
257.1426,257.2283,50,101,70
257.35687,257.4426,48,101,70
257.57117,257.6569,47,101,70
257.78546,257.8712,50,101,70
257.99976,258.08545,48,101,70
258.21402,258.29974,47,101,70
258.4283,258.51404,45,101,70
258.6426,258.7283,42,101,70
258.85687,259.07117,47,101,70
260.1426,260.57117,57,127,70
260.57117,260.78546,55,101,70
260.78546,260.99973,54,101,70
260.99973,261.21402,52,101,70
261.21402,261.4283,55,101,70
261.4283,261.6426,54,101,70
261.6426,261.85687,57,101,70
261.85687,262.07117,55,101,70
263.57117,263.78546,55,101,70
263.78546,263.99973,64,101,70
263.99973,264.21402,55,101,70
264.21402,264.4283,62,101,70
264.4283,264.64258,55,101,70
264.64258,264.85687,60,101,70
264.85687,265.07117,55,101,70
265.07117,265.28546,59,101,70
265.28546,265.49973,55,101,70
266.99973,267.21402,55,101,70
267.21402,267.4283,64,101,70
267.4283,267.64258,55,101,70
267.64258,267.85687,62,101,70
267.85687,268.07117,55,101,70
268.07117,268.28543,60,101,70
268.28543,268.49973,55,101,70
268.49973,268.71402,59,101,70
268.71402,269.14258,60,101,70
269.14258,269.57117,59,101,70
269.57117,269.99973,57,101,70
269.99973,270.4283,55,101,70
270.4283,270.59973,66,101,70
270.85687,271.0283,67,101,70
271.28543,271.45688,66,101,70
271.71402,271.88544,67,101,70
272.14258,272.31403,66,101,70
272.57117,272.74258,67,101,70
272.99973,273.17114,66,101,70
273.42828,275.14258,67,36,70
275.14258,276.85687,59,36,70
276.85687,278.57114,50,36,70
278.57114,279.42828,52,36,70
279.42828,280.28543,54,36,70
280.28543,281.14258,54,36,70
281.14258,281.99973,53,36,70
281.99973,282.85687,52,36,70
282.85687,283.714,57,36,70
283.714,285.42828,62,49,70
285.42828,287.14258,57,49,70
287.14258,288.85684,54,49,70
288.85684,290.57114,57,49,70
290.57114,291.85684,50,49,70
291.85684,292.28543,59,49,70
292.28543,293.14258,62,49,70
293.14258,293.57114,62,49,70
293.57114,293.9997,61,75,70
293.9997,295.28543,67,75,70
295.28543,295.714,66,75,70
295.714,296.9997,62,75,70
296.9997,297.42828,67,75,70
297.42828,298.714,62,75,70
298.714,299.14255,57,75,70
299.14255,300.42828,45,101,70
300.42828,300.85684,57,101,70
300.85684,302.14255,45,101,70
302.14255,302.57114,57,101,70
302.57114,303.85684,45,101,70
303.85684,304.2854,57,101,70
304.2854,304.714,45,101,70
304.714,305.14255,57,101,70
305.14255,305.57114,45,101,70
305.57114,305.9997,57,101,70
305.9997,306.214,50,101,70
306.64255,306.85684,57,101,70
306.85684,307.07114,62,101,70
307.4997,307.714,57,101,70
307.714,307.92825,62,101,70
308.35684,308.5711,57,101,70
308.5711,308.7854,62,101,70
309.214,309.42825,57,101,70
309.42825,309.64255,62,101,70
310.0711,310.2854,57,101,70
310.2854,310.4997,62,101,70
310.92825,311.14255,57,101,70
311.14255,311.35684,62,101,70
311.7854,311.9997,57,101,70
311.9997,312.21396,62,101,70
312.64255,312.85684,57,101,70
312.85684,313.0711,62,101,70
313.71396,313.92825,57,101,70
314.5711,315.42825,50,101,70
11.892845,11.999988,74,88,60
11.999988,12.428559,69,88,60
13.607129,13.714272,78,88,60
13.714272,14.142843,73,88,60
16.178555,16.285698,74,88,60
16.285698,16.499983,76,88,60
17.14284,20.357122,76,88,60
20.357122,20.442837,74,88,60
20.571407,20.999979,76,114,60
20.999979,23.571405,74,88,60
28.607115,28.714256,74,88,60
28.714256,28.928543,69,88,60
29.035685,29.142828,66,88,60
29.142828,29.5714,66,88,60
30.321398,30.428541,69,88,60
30.428541,30.642826,69,88,60
30.74997,30.857113,74,88,60
30.857113,31.285683,74,88,60
31.285683,31.499968,74,88,60
31.607111,31.714254,76,88,60
31.714254,32.142826,76,88,60
32.142826,32.35711,76,88,60
32.999966,33.42854,69,88,60
33.85711,34.28568,69,88,60
34.28568,34.499966,74,101,60
34.60711,34.714252,69,101,60
34.714252,34.928535,71,101,60
35.03568,35.142822,73,101,60
35.142822,35.35711,74,101,60
35.46425,35.571392,69,101,60
35.571392,35.78568,71,101,60
35.892822,35.999966,73,101,60
35.999966,36.428535,71,101,60
36.74996,36.857105,71,101,60
36.857105,37.28568,69,101,60
37.607105,37.71425,69,101,60
37.71425,37.92853,68,101,60
38.035675,38.14282,68,101,60
38.14282,38.357105,71,101,60
38.46425,38.57139,76,101,60
38.57139,39.64282,76,127,60
39.74996,39.8571,69,101,60
39.8571,40.07139,76,101,60
40.17853,40.285675,81,101,60
40.285675,41.142815,81,101,60
41.142815,41.57139,74,101,60
41.892815,41.999958,76,101,60
41.999958,42.428528,74,101,60
42.749958,42.8571,74,101,60
42.8571,43.28567,74,101,60
43.607098,43.71424,74,101,60
43.71424,44.142815,74,101,60
44.46424,44.571384,78,101,60
44.571384,44.999954,80,101,60
45.321384,45.428528,80,101,60
45.428528,45.857098,81,101,60
46.607098,46.714237,71,101,60
46.714237,47.14281,76,101,60
47.464237,47.57138,69,101,60
47.57138,47.99995,74,101,60
48.32138,48.428524,68,101,60
48.428524,48.857094,73,101,60
49.714237,49.92852,74,101,60
50.142807,50.357094,74,101,60
50.571377,50.785664,76,101,60
50.785664,50.99995,76,101,60
50.99995,51.42852,76,101,60
51.42852,51.642807,76,101,60
53.35709,53.571377,76,101,60
53.571377,53.999947,76,101,60
56.785656,56.999943,78,101,60
56.999943,57.428513,78,101,60
61.285652,61.714226,71,101,60
61.714226,63.42851,76,101,60
63.42851,68.57136,76,101,60
68.57136,69.428505,86,101,60
69.428505,69.85707,86,101,60
77.14278,80.57135,76,101,60
80.57135,81.42849,81,101,60
81.42849,82.28563,78,101,60
82.499916,82.92849,76,101,60
82.92849,83.14278,76,101,60
83.14278,83.999916,76,101,60
84.2142,84.64277,76,101,60
84.64277,84.857056,76,101,60
84.857056,85.7142,76,101,60
85.92848,86.357056,76,101,60
86.357056,86.57134,76,101,60
86.57134,86.999916,76,101,60
88.28563,88.714195,76,101,60
88.714195,89.14277,78,101,60
89.14277,89.357056,76,101,60
92.99991,93.17133,69,101,60
93.428474,93.59991,69,101,60
93.85705,94.02848,69,101,60
94.28562,96.428474,69,88,60
96.428474,96.85705,69,88,60
96.85705,97.285614,74,88,60
97.60705,97.71419,57,88,60
97.71419,97.928474,62,88,60
98.46419,98.57133,57,88,60
98.57133,98.785614,62,88,60
99.32133,99.428474,62,88,60
99.428474,99.64276,66,88,60
101.035614,101.14275,66,88,60
101.14275,101.35704,78,88,60
101.89275,101.9999,64,88,60
101.9999,102.42847,76,88,60
102.42847,102.64275,69,88,60
102.7499,102.85704,64,88,60
102.85704,103.285614,76,88,60
103.285614,103.49989,69,88,60
103.60704,103.71418,69,88,60
103.71418,103.92847,74,88,60
104.46418,104.57133,69,88,60
104.57133,104.78561,74,88,60
105.32132,105.42847,69,88,60
105.42847,105.64275,74,88,60
106.17847,106.28561,74,88,60
106.28561,106.49989,78,88,60
107.03561,107.14275,73,88,60
107.14275,107.35703,73,88,60
107.892746,107.99989,66,88,60
107.99989,108.21418,78,88,60
108.74989,108.85703,64,88,60
108.85703,109.28561,76,88,60
109.28561,109.49989,69,88,60
109.60703,109.71417,64,88,60
109.71417,110.142746,76,88,60
110.142746,110.35703,69,88,60
110.46417,110.57132,74,88,60
110.57132,110.999886,76,49,60
110.999886,111.0856,76,49,60
111.21417,111.29989,76,49,60
111.42846,111.514175,76,49,60
111.642746,111.72846,76,49,60
111.85703,111.94274,76,49,60
112.07132,112.15703,76,49,60
112.2856,112.499886,76,49,60
112.499886,112.71417,76,49,60
112.71417,112.92846,76,49,60
112.92846,113.142746,76,49,60
113.142746,113.35703,76,88,60
113.35703,113.57131,76,88,60
113.57131,113.7856,76,88,60
113.7856,113.871315,74,88,60
113.999886,114.42846,76,114,60
114.42846,114.51417,74,49,60
114.642746,114.728455,74,49,60
114.857025,114.94274,74,49,60
115.07131,115.15703,74,49,60
115.2856,115.371315,74,49,60
115.499886,115.5856,74,49,60
115.71417,115.92846,74,49,60
115.92846,116.14274,74,49,60
116.14274,116.357025,74,49,60
116.357025,116.57131,74,49,60
116.57131,116.7856,74,49,60
116.7856,116.999886,74,49,60
116.999886,117.214165,74,49,60
117.214165,117.29988,74,49,60
117.42845,118.07131,76,75,60
118.07131,118.15703,74,49,60
118.2856,118.92845,76,75,60
118.92845,119.14274,74,49,60
119.14274,119.357025,76,49,60
119.357025,119.57131,74,49,60
119.57131,119.78559,76,49,60
119.78559,119.99988,74,49,60
119.99988,120.214165,76,88,60
120.214165,120.42845,74,88,60
120.42845,120.64274,76,88,60
120.64274,120.857025,74,88,60
120.857025,121.071304,72,114,60
127.28558,127.71416,74,88,60
127.71416,131.14273,79,88,60
131.14273,131.99986,72,88,60
131.99986,132.85701,77,88,60
132.85701,136.28558,79,88,60
136.28558,139.71414,79,88,60
139.71414,140.57129,72,88,60
140.57129,140.99986,77,88,60
141.42844,141.857,81,88,60
141.857,142.07129,72,88,60
142.07129,142.28557,81,88,60
142.28557,142.71414,81,88,60
142.71414,142.92842,72,88,60
142.92842,143.14272,81,88,60
143.14272,143.57129,82,49,60
154.92842,155.1427,69,49,60
155.1427,155.28511,77,49,60
155.28511,155.42842,79,49,60
155.42842,155.4851,77,49,60
155.57127,155.71368,81,49,60
155.71368,155.857,77,49,60
155.857,155.91368,74,49,60
155.99985,156.14226,76,49,60
156.14226,156.28555,77,49,60
156.28555,156.34225,76,49,60
156.42842,156.57083,81,49,60
156.57083,156.71413,76,49,60
156.71413,156.77083,69,49,60
156.85698,156.99939,74,49,60
156.99939,157.1427,76,49,60
157.1427,157.1994,74,49,60
157.28555,157.42796,77,49,60
157.42796,157.57127,76,49,60
157.57127,157.62796,74,49,60
157.71413,158.1427,76,49,60
158.35698,158.57127,69,49,60
158.57127,158.71368,74,49,60
158.71368,158.85698,76,49,60
158.85698,158.91368,74,49,60
158.99985,159.14226,77,49,60
159.14226,159.28555,76,49,60
159.28555,159.34225,74,49,60
159.4284,159.85698,76,49,60
160.07127,160.28555,74,49,60
160.28555,160.71413,76,49,60
160.9284,161.1427,74,49,60
161.1427,161.35698,76,49,60
161.35698,161.78555,76,49,60
161.78555,162.21413,76,49,60
162.21413,162.6427,76,49,60
162.6427,163.07126,76,49,60
164.99983,165.4284,69,88,60
165.4284,165.85698,81,88,60
165.85698,166.07126,79,88,60
166.07126,166.28555,76,88,60
166.28555,166.71413,74,88,60
166.71413,166.9284,69,88,60
166.9284,167.14268,74,88,60
167.14268,167.57126,76,88,60
167.57126,167.78555,69,88,60
167.78555,167.99983,76,88,60
167.99983,168.4284,78,88,60
168.4284,168.57082,81,88,60
168.57082,168.71411,79,88,60
168.71411,168.85698,76,88,60
168.85698,169.28554,74,88,60
169.28554,169.49983,69,88,60
169.49983,169.71411,74,88,60
169.71411,170.14268,76,88,60
170.14268,170.35698,71,88,60
170.35698,170.57126,76,88,60
170.57126,173.14268,81,88,60
173.14268,176.14268,81,88,60
180.85696,181.28554,68,88,60
181.28554,182.14267,71,88,60
182.14267,182.57124,76,88,60
182.57124,183.42839,79,88,60
183.42839,184.28552,78,88,60
184.28552,184.7141,76,88,60
188.99982,189.42838,69,88,60
189.42838,189.85695,81,88,60
189.85695,189.94267,74,88,60
190.07124,190.15695,69,88,60
190.28552,190.7141,81,88,60
190.7141,190.7998,76,88,60
190.92838,191.0141,69,88,60
191.14267,191.57124,81,88,60
191.57124,191.78552,78,88,60
191.78552,191.9998,74,88,60
191.9998,192.85695,74,88,60
193.07123,193.4998,69,49,60
193.4998,193.7141,69,49,60
193.7141,194.57123,69,49,60
194.78552,195.2141,69,49,60
195.2141,195.42838,69,49,60
195.42838,196.28552,69,49,60
196.4998,196.92838,69,49,60
196.92838,197.14265,69,49,60
197.14265,197.57123,69,49,60
197.57123,197.9998,69,49,60
197.9998,198.42838,73,49,60
198.42838,198.85695,74,49,60
198.85695,199.28552,78,49,60
199.28552,199.71408,76,49,60
199.71408,199.92838,73,49,60
203.57123,203.9998,74,49,60
203.9998,204.42836,74,49,60
204.42836,204.85693,74,49,60
205.2855,206.57123,69,49,60
206.57123,206.99979,74,75,60
207.32123,207.42836,69,75,60
207.42836,207.85693,74,75,60
208.17836,208.2855,69,75,60
208.2855,208.71408,74,75,60
209.0355,209.14265,74,75,60
209.14265,209.57121,77,75,60
209.89265,209.99979,72,75,60
209.99979,210.42836,72,75,60
210.74979,210.85693,77,75,60
210.85693,211.2855,77,88,60
211.60693,211.71408,74,88,60
211.71408,212.14264,76,88,60
212.46408,212.57121,76,88,60
212.57121,212.99979,76,88,60
213.32121,213.42836,76,88,60
213.42836,213.85693,76,88,60
213.85693,214.07121,69,88,60
214.17836,214.2855,64,88,60
214.2855,214.71407,76,88,60
214.71407,214.92836,69,88,60
215.03549,215.14264,69,88,60
215.14264,215.35693,74,88,60
215.46407,215.57121,69,88,60
215.57121,215.78549,74,88,60
215.89264,215.99979,74,88,60
215.99979,216.21407,74,88,60
216.32121,216.42836,66,88,60
216.42836,216.64264,66,88,60
216.74979,216.85693,66,88,60
216.85693,217.07121,66,88,60
217.17836,217.28549,69,88,60
217.28549,217.49979,74,88,60
217.60692,217.71407,74,88,60
217.71407,217.92836,78,88,60
218.03549,218.14264,69,88,60
218.14264,218.35692,69,88,60
218.46407,218.57121,69,88,60
218.57121,218.99979,73,88,60
219.32121,219.42834,78,88,60
219.42834,219.64264,78,88,60
220.17834,220.28549,76,88,60
220.28549,220.71407,76,88,60
220.71407,220.92834,69,88,60
221.03549,221.14264,76,88,60
221.14264,221.57121,76,88,60
221.57121,221.78549,69,88,60
221.89264,221.93504,74,88,60
221.99977,222.42834,76,114,60
222.42834,222.51407,76,88,60
222.64264,222.72835,76,88,60
222.85692,222.94263,76,88,60
223.07121,223.15692,76,88,60
223.28549,223.3712,76,88,60
223.49977,223.5855,76,88,60
223.71407,223.92834,76,88,60
223.92834,224.14264,76,88,60
224.14264,224.35692,76,88,60
224.35692,224.5712,76,88,60
224.5712,224.78549,76,88,60
224.78549,224.99977,76,88,60
224.99977,225.21407,76,88,60
225.21407,225.29977,74,88,60
225.42834,225.85692,76,114,60
225.85692,225.94263,74,88,60
226.0712,226.15692,74,88,60
226.28549,226.49977,74,88,60
226.49977,226.71407,74,88,60
226.71407,226.92834,74,88,60
226.92834,227.14262,74,88,60
227.14262,227.35692,74,88,60
227.35692,227.5712,74,88,60
227.5712,227.78549,74,88,60
227.78549,227.99977,74,88,60
227.99977,228.21405,74,49,60
228.21405,228.42834,74,49,60
228.42834,228.64262,74,49,60
228.64262,228.72835,69,49,60
228.85692,229.02834,74,49,60
229.49977,229.58548,69,49,60
229.71405,229.88548,74,49,60
230.35692,230.44263,69,49,60
230.5712,230.74263,74,49,60
231.21405,231.29977,74,49,60
231.42834,231.85692,78,88,60
232.0712,232.28548,74,88,60
232.28548,232.49977,74,88,60
232.6069,232.71405,74,88,60
232.71405,232.92834,74,88,60
233.03548,233.14262,76,88,60
233.14262,233.3569,76,88,60
233.46405,233.5712,76,88,60
233.5712,233.78548,76,88,60
233.99977,234.21405,76,88,60
234.42833,234.64262,69,88,60
234.8569,235.0712,76,88,60
235.28548,235.49977,69,88,60
235.71405,235.92833,74,101,60
236.03548,236.14262,69,101,60
236.14262,236.3569,71,101,60
236.46405,236.5712,72,101,60
236.5712,236.78548,74,101,60
236.89262,236.99976,69,101,60
236.99976,237.21405,71,101,60
237.3212,237.42833,72,101,60
237.42833,237.8569,71,101,60
238.17833,238.28548,71,101,60
238.28548,238.71405,69,101,60
239.03548,239.14262,69,101,60
239.14262,239.3569,68,101,60
239.46405,239.57118,68,101,60
239.57118,239.78548,71,101,60
239.89262,239.99976,76,101,60
239.99976,241.07118,76,101,60
241.17833,241.28548,69,101,60
241.28548,241.49976,76,101,60
241.6069,241.71405,81,101,60
241.71405,242.57118,81,101,60
242.57118,242.99976,78,101,60
243.32118,243.42833,78,101,60
243.42833,243.8569,78,101,60
244.17833,244.28548,78,101,60
244.28548,244.71404,79,101,60
245.03548,245.14261,79,101,60
245.14261,245.57118,79,101,60
245.89261,245.99976,79,101,60
245.99976,246.21404,74,101,60
246.32118,246.42833,74,101,60
246.42833,246.64261,74,101,60
246.74976,246.8569,74,101,60
246.8569,247.07118,74,101,60
247.17833,247.28546,74,101,60
247.28546,247.49976,74,101,60
247.60689,247.71404,74,101,60
247.71404,247.92833,74,101,60
248.03546,248.14261,74,101,60
248.14261,248.35689,74,101,60
248.46404,248.57118,74,101,60
248.57118,248.78546,74,101,60
248.89261,248.99976,74,101,60
248.99976,249.21404,74,101,60
249.32118,249.36359,74,101,60
249.42833,249.85689,81,127,60
249.85689,250.07118,79,101,60
250.07118,250.28546,78,101,60
250.28546,250.49976,76,101,60
250.49976,250.71404,79,101,60
250.71404,250.92831,78,101,60
250.92831,251.14261,76,101,60
251.14261,251.35689,78,101,60
251.35689,251.57118,76,101,60
251.57118,251.65689,74,101,60
251.78546,251.87117,74,101,60
251.99974,252.42831,81,127,60
252.42831,252.64261,79,101,60
252.64261,252.85689,78,101,60
252.85689,253.07118,76,101,60
253.07118,253.28546,79,101,60
253.28546,253.49974,78,101,60
253.49974,253.71404,76,101,60
253.71404,253.92831,78,101,60
253.92831,254.14261,76,101,60
254.14261,254.35689,74,101,60
254.35689,254.57117,74,101,60
254.57117,254.99974,74,127,60
256.71402,257.1426,76,127,60
257.1426,257.2283,74,101,60
257.35687,257.4426,72,101,60
257.57117,257.6569,71,101,60
257.78546,257.8712,74,101,60
257.99976,258.08545,72,101,60
258.21402,258.29974,71,101,60
258.4283,258.51404,69,101,60
258.6426,258.7283,66,101,60
258.85687,259.07117,71,101,60
260.1426,260.57117,81,127,60
260.57117,260.78546,79,101,60
260.78546,260.99973,78,101,60
260.99973,261.21402,76,101,60
261.21402,261.4283,79,101,60
261.4283,261.6426,78,101,60
261.6426,261.85687,81,101,60
261.85687,262.07117,79,101,60
263.57117,263.78546,79,101,60
263.78546,263.99973,76,101,60
263.99973,264.21402,79,101,60
264.21402,264.4283,74,101,60
264.4283,264.64258,79,101,60
264.64258,264.85687,72,101,60
264.85687,265.07117,79,101,60
266.99973,267.21402,79,101,60
267.21402,267.4283,76,101,60
267.4283,267.64258,79,101,60
267.64258,267.85687,74,101,60
267.85687,268.07117,79,101,60
268.07117,268.28543,72,101,60
268.28543,268.49973,79,101,60
268.71402,268.9283,79,101,60
269.14258,269.35687,79,101,60
269.57117,269.78543,79,101,60
269.99973,270.21402,79,101,60
272.14258,272.31403,74,101,60
272.57117,272.74258,74,101,60
272.99973,273.17114,74,101,60
273.42828,275.14258,74,36,60
275.14258,276.85687,74,36,60
276.85687,278.57114,74,36,60
278.57114,279.42828,76,36,60
279.42828,280.28543,78,36,60
280.28543,281.99973,78,36,60
281.99973,282.85687,76,36,60
282.85687,283.714,81,36,60
283.714,285.42828,78,49,60
285.42828,287.14258,76,49,60
287.14258,288.85684,74,49,60
288.85684,290.57114,76,49,60
290.57114,291.85684,78,49,60
291.85684,293.9997,62,49,60
293.9997,295.28543,69,49,60
295.28543,295.714,74,49,60
295.714,296.9997,62,49,60
296.9997,297.42828,74,49,60
297.42828,298.714,62,49,60
298.714,299.14255,69,49,60
299.14255,299.57114,69,101,60
299.57114,299.65683,76,101,60
299.7854,299.87112,69,101,60
299.9997,300.85684,81,127,60
301.2854,301.37112,76,101,60
301.4997,301.58542,69,101,60
301.714,302.57114,81,127,60
302.9997,303.08542,76,101,60
303.214,303.29968,69,101,60
303.42825,303.85684,81,101,60
303.85684,303.94257,76,101,60
304.07114,304.15683,69,101,60
304.2854,304.714,81,101,60
304.714,304.79968,76,101,60
304.92825,305.01398,69,101,60
305.14255,305.9997,81,101,60
305.9997,306.214,74,101,60
306.64255,306.85684,76,101,60
306.85684,307.07114,78,101,60
307.4997,307.714,81,101,60
307.714,307.92825,78,101,60
308.35684,308.5711,76,101,60
308.5711,308.7854,78,101,60
309.214,309.42825,81,101,60
309.42825,309.64255,78,101,60
310.0711,310.2854,76,101,60
310.2854,310.4997,78,101,60
310.92825,311.14255,79,101,60
311.14255,311.35684,78,101,60
311.7854,311.9997,79,101,60
311.9997,312.21396,78,101,60
312.64255,312.85684,79,101,60
312.85684,313.0711,78,101,60
313.71396,313.92825,76,101,60
314.5711,315.42825,74,101,60
10.178561,10.285704,57,88,40
10.285704,10.4999895,66,88,40
10.607132,10.714275,66,88,40
10.714275,10.92856,66,88,40
11.035704,11.142846,67,88,40
11.142846,11.357132,69,88,40
11.142846,11.357132,62,88,40
11.464274,11.571417,74,88,40
11.571417,11.785703,69,88,40
11.892845,11.999988,74,88,40
11.999988,12.214273,69,88,40
11.999988,12.214273,62,88,40
12.321416,12.428559,69,88,40
12.428559,12.642844,69,88,40
12.749988,12.85713,71,88,40
12.85713,13.071416,73,88,40
13.178558,13.285701,78,88,40
13.285701,13.499987,73,88,40
13.607129,13.714272,78,88,40
13.714272,13.928557,77,88,40
14.0357,14.142843,78,88,40
14.142843,14.357128,80,88,40
14.464272,14.571414,81,88,40
14.571414,14.7857,80,88,40
14.892842,14.999985,78,88,40
14.999985,15.214271,73,88,40
15.321413,15.428556,74,88,40
15.428556,15.642841,76,88,40
15.749984,15.857127,71,88,40
15.857127,16.071413,73,88,40
16.178555,16.285698,74,88,40
16.285698,16.499983,76,88,40
16.607126,16.71427,71,88,40
16.71427,16.928555,73,88,40
17.035698,17.14284,86,88,40
17.14284,17.571411,88,88,40
17.571411,17.785696,86,88,40
17.785696,17.999983,85,88,40
17.999983,18.214268,83,88,40
18.214268,18.428553,86,88,40
18.428553,18.64284,85,88,40
18.64284,18.857124,83,88,40
18.857124,19.07141,81,88,40
19.07141,19.285694,78,88,40
19.285694,19.49998,76,88,40
19.49998,19.714266,81,88,40
19.714266,19.92855,78,88,40
19.92855,20.142838,76,88,40
20.142838,20.228552,76,88,40
20.357122,20.442837,86,88,40
20.571407,20.999979,88,127,40
20.999979,21.214264,84,49,40
21.214264,21.42855,83,49,40
21.42855,21.642836,81,49,40
21.642836,21.85712,84,49,40
21.85712,22.071407,83,49,40
22.071407,22.285692,81,49,40
22.285692,22.499977,79,49,40
22.499977,22.714264,76,49,40
22.714264,22.928549,74,49,40
22.928549,23.142834,79,49,40
23.142834,23.357119,76,49,40
23.357119,23.571405,74,49,40
23.571405,23.78569,74,49,40
26.035688,26.142832,59,88,40
26.142832,26.357117,61,88,40
26.46426,26.571402,62,88,40
26.571402,26.785688,64,88,40
26.89283,26.999973,66,88,40
26.999973,27.214258,67,88,40
27.321402,27.428543,69,88,40
27.428543,27.64283,66,88,40
27.749971,27.857115,66,88,40
27.857115,28.0714,66,88,40
28.178543,28.285686,67,88,40
28.285686,28.499971,69,88,40
28.607115,28.714256,74,88,40
28.714256,28.928543,69,88,40
29.035685,29.142828,74,88,40
29.142828,29.357113,69,88,40
29.464256,29.5714,69,88,40
29.5714,29.785685,69,88,40
29.892828,29.99997,71,88,40
29.99997,30.214256,73,88,40
30.321398,30.428541,78,88,40
30.428541,30.642826,73,88,40
30.74997,30.857113,78,88,40
30.857113,31.071398,76,88,40
31.178541,31.285683,78,88,40
31.285683,31.499968,79,88,40
31.607111,31.714254,80,88,40
31.714254,31.92854,81,88,40
32.035683,32.142826,83,88,40
32.142826,32.35711,85,88,40
32.464252,32.571396,86,88,40
32.571396,32.785683,88,88,40
32.892826,32.999966,83,88,40
32.999966,33.214252,85,88,40
33.321396,33.42854,86,88,40
33.42854,33.642822,88,88,40
33.749966,33.85711,83,88,40
33.85711,34.071396,85,88,40
34.178535,34.28568,86,88,40
34.28568,35.03568,86,101,40
34.28568,35.03568,74,101,40
35.03568,35.142822,74,101,40
35.03568,35.142822,86,101,40
35.142822,35.892822,86,101,40
35.142822,35.892822,74,101,40
35.892822,35.999966,74,101,40
35.892822,35.999966,86,101,40
35.999966,36.74996,86,101,40
35.999966,36.74996,74,101,40
36.74996,36.857105,74,101,40
36.74996,36.857105,86,101,40
36.857105,37.607105,86,101,40
36.857105,37.607105,74,101,40
37.607105,37.71425,74,101,40
37.607105,37.71425,86,101,40
37.71425,37.821392,86,101,40
37.821392,37.92853,85,101,40
37.92853,38.035675,83,101,40
38.035675,38.14282,85,101,40
38.14282,38.24996,86,101,40
38.24996,38.357105,88,101,40
38.357105,38.46425,90,101,40
38.46425,38.57139,88,101,40
38.57139,38.67853,86,101,40
38.67853,38.785675,85,101,40
38.785675,38.89282,83,101,40
38.89282,38.99996,81,101,40
38.99996,39.107105,80,101,40
39.107105,39.214245,78,101,40
39.214245,39.32139,76,101,40
39.32139,39.42853,74,101,40
39.42853,39.535675,73,101,40
39.535675,39.64282,74,101,40
39.64282,39.74996,76,101,40
39.74996,39.8571,78,101,40
39.8571,39.964245,79,101,40
39.964245,40.07139,81,101,40
40.07139,40.17853,83,101,40
40.17853,40.285675,81,101,40
40.285675,40.39282,79,101,40
40.39282,40.499958,78,101,40
40.499958,40.6071,76,101,40
40.6071,40.714245,74,101,40
40.714245,40.82139,73,101,40
40.82139,40.92853,71,101,40
40.92853,41.035675,69,101,40
41.035675,41.142815,67,101,40
41.142815,41.3571,74,101,40
41.142815,41.3571,66,101,40
41.464245,41.57139,69,101,40
41.57139,41.78567,71,101,40
41.892815,41.999958,73,101,40
41.999958,42.214245,74,101,40
42.321384,42.428528,69,101,40
42.428528,42.642815,73,101,40
42.749958,42.8571,74,101,40
42.8571,43.071384,78,101,40
43.178528,43.28567,71,101,40
43.28567,43.499958,73,101,40
43.607098,43.71424,74,101,40
43.71424,43.928528,78,101,40
44.03567,44.142815,71,101,40
44.142815,44.357098,74,101,40
44.46424,44.571384,78,101,40
44.571384,44.78567,80,101,40
44.89281,44.999954,73,101,40
44.999954,45.21424,77,101,40
45.321384,45.428528,80,101,40
45.428528,45.64281,81,101,40
45.749954,45.857098,73,101,40
45.857098,46.07138,78,101,40
46.178524,46.285667,81,101,40
46.285667,47.035667,83,101,40
47.035667,47.14281,85,101,40
47.14281,47.89281,81,101,40
47.89281,47.99995,83,101,40
47.99995,48.74995,80,101,40
48.74995,48.857094,81,101,40
48.857094,49.07138,78,101,40
49.178524,49.285664,80,101,40
49.285664,49.49995,81,101,40
49.607094,49.714237,85,101,40
49.714237,50.571377,90,101,40
50.571377,50.785664,88,101,40
51.214233,51.321377,74,101,40
51.321377,51.42852,74,101,40
51.42852,51.535664,76,101,40
51.535664,51.642807,76,101,40
51.642807,51.749947,71,101,40
51.749947,51.85709,71,101,40
51.85709,51.964233,73,101,40
51.964233,52.071377,73,101,40
52.071377,52.17852,74,101,40
52.17852,52.285664,74,101,40
52.285664,52.392803,76,101,40
52.392803,52.499947,76,101,40
52.499947,52.60709,71,101,40
52.60709,52.714233,71,101,40
52.714233,52.821377,73,101,40
52.821377,52.92852,73,101,40
52.92852,53.03566,74,101,40
53.03566,53.142803,74,101,40
53.142803,53.249947,76,101,40
53.249947,53.35709,76,101,40
53.35709,53.464233,71,101,40
53.464233,53.571377,71,101,40
53.571377,53.678516,73,101,40
53.678516,53.78566,73,101,40
53.78566,53.892803,74,101,40
53.892803,53.999947,74,101,40
53.999947,54.10709,76,101,40
54.10709,54.214233,76,101,40
54.214233,54.321373,74,101,40
54.321373,54.428516,74,101,40
54.428516,54.53566,73,101,40
54.53566,54.642803,73,101,40
54.642803,54.749947,77,101,40
54.749947,54.857086,77,101,40
54.857086,54.96423,78,101,40
54.96423,55.071373,78,101,40
55.071373,55.178516,74,101,40
55.178516,55.28566,74,101,40
55.28566,55.392803,73,101,40
55.392803,55.499943,73,101,40
55.499943,55.607086,77,101,40
55.607086,55.71423,77,101,40
55.71423,55.821373,78,101,40
55.821373,55.928516,78,101,40
55.928516,56.03566,74,101,40
56.03566,56.1428,74,101,40
56.1428,56.249943,73,101,40
56.249943,56.357086,73,101,40
56.357086,56.46423,77,101,40
56.46423,56.571373,77,101,40
56.571373,56.678516,78,101,40
56.678516,56.785656,78,101,40
56.785656,56.8928,74,101,40
56.8928,56.999943,74,101,40
56.999943,57.107086,73,101,40
57.107086,57.21423,73,101,40
57.21423,57.321373,77,101,40
57.321373,57.428513,77,101,40
57.428513,57.535656,78,101,40
57.535656,57.6428,78,101,40
57.6428,57.749943,76,101,40
57.749943,57.857086,76,101,40
57.857086,57.96423,75,101,40
57.96423,58.07137,75,101,40
58.07137,58.178513,79,101,40
58.178513,58.285656,79,101,40
58.285656,58.3928,80,101,40
58.3928,58.499943,80,101,40
58.499943,58.607082,76,101,40
58.607082,58.714226,76,101,40
58.714226,58.82137,75,101,40
58.82137,58.928513,75,101,40
58.928513,59.035656,79,101,40
59.035656,59.1428,79,101,40
59.1428,59.24994,80,101,40
59.24994,59.357082,80,101,40
59.357082,59.464226,76,101,40
59.464226,59.57137,76,101,40
59.57137,59.678513,75,101,40
59.678513,59.785656,75,101,40
59.785656,59.892796,79,101,40
59.892796,59.99994,79,101,40
59.99994,60.107082,80,101,40
60.107082,60.214226,80,101,40
60.214226,60.32137,80,101,40
60.32137,60.428513,80,101,40
60.428513,60.535652,75,101,40
60.535652,60.642796,75,101,40
60.642796,60.74994,75,101,40
60.74994,60.857082,75,101,40
60.857082,60.964226,75,101,40
60.964226,61.07137,75,101,40
61.07137,61.17851,75,101,40
61.17851,61.285652,75,101,40
61.285652,61.392796,75,101,40
61.392796,61.49994,75,101,40
61.49994,61.607082,75,101,40
61.607082,61.714226,75,101,40
61.714226,61.821365,74,101,40
61.821365,61.92851,74,101,40
61.92851,62.035652,74,101,40
62.035652,62.142796,74,101,40
62.142796,62.24994,74,101,40
62.24994,62.357082,74,101,40
62.357082,62.464222,74,101,40
62.464222,62.571365,74,101,40
62.571365,62.67851,74,101,40
62.67851,62.785652,74,101,40
62.785652,62.892796,74,101,40
62.892796,62.999935,74,101,40
62.999935,63.10708,74,101,40
63.10708,63.214222,74,101,40
63.214222,63.321365,74,101,40
63.321365,63.42851,74,101,40
63.42851,63.64279,73,101,40
63.85708,64.28565,64,49,40
64.28565,64.71422,76,49,40
64.71422,64.928505,74,49,40
64.928505,65.14279,71,49,40
65.14279,65.571365,69,49,40
65.571365,65.78565,64,49,40
65.78565,65.99993,69,49,40
65.99993,66.428505,71,49,40
66.428505,66.64279,64,49,40
66.64279,66.85708,71,49,40
66.85708,67.285645,73,49,40
67.285645,67.34235,76,49,40
67.428055,67.48565,74,49,40
67.57136,67.62806,71,49,40
67.71422,68.14279,69,49,40
68.14279,68.35707,64,49,40
68.35707,68.57136,69,49,40
68.57136,68.99993,71,49,40
68.99993,69.21422,66,49,40
69.21422,69.428505,71,49,40
69.428505,70.285645,76,49,40
70.71422,71.142784,71,49,40
71.142784,71.57136,83,49,40
71.57136,71.657074,79,49,40
71.785645,71.87135,76,49,40
71.99993,72.85707,71,49,40
72.85707,73.285645,78,49,40
73.285645,73.37135,74,49,40
73.49992,73.58564,71,49,40
73.71421,74.57136,68,49,40
74.57136,75.4285,69,49,40
75.4285,75.85706,71,49,40
77.57135,77.99992,64,49,40
77.99992,78.42849,76,49,40
78.42849,78.514206,74,49,40
78.64278,78.72849,71,49,40
78.85706,79.28564,69,49,40
79.28564,79.49992,64,49,40
79.49992,79.7142,69,49,40
79.7142,80.14278,71,49,40
80.14278,80.35706,64,49,40
80.35706,80.57135,71,49,40
80.57135,80.999916,73,49,40
80.999916,81.05662,81,49,40
81.14233,81.19992,79,49,40
81.28563,81.34233,76,49,40
81.42849,81.85706,74,49,40
81.85706,81.91376,78,49,40
81.99947,82.05706,74,49,40
82.14278,82.19947,71,49,40
82.28563,82.7142,68,49,40
82.7142,83.14278,69,49,40
83.14278,83.57134,74,49,40
83.57134,83.999916,73,49,40
83.999916,84.42849,68,49,40
84.42849,84.857056,69,49,40
84.857056,85.28563,78,49,40
85.28563,85.7142,76,49,40
85.7142,86.14277,71,49,40
86.14277,86.57134,73,49,40
86.57134,86.999916,83,49,40
86.999916,87.42848,81,49,40
87.42848,87.857056,80,49,40
87.857056,88.28563,78,49,40
88.28563,88.714195,76,49,40
88.714195,89.14277,74,49,40
89.14277,89.357056,71,49,40
89.357056,89.78562,74,49,40
89.78562,89.99991,73,49,40
89.99991,90.214195,71,49,40
90.214195,90.42848,69,49,40
90.42848,90.64277,68,49,40
90.64277,90.857056,66,49,40
90.857056,91.071335,64,49,40
91.071335,91.49991,71,49,40
91.49991,91.714195,69,49,40
91.714195,91.92848,68,49,40
91.92848,92.14276,66,49,40
92.14276,92.35705,64,49,40
92.35705,92.571335,62,49,40
92.571335,92.78562,61,49,40
92.99991,93.214195,69,49,40
92.99991,93.214195,57,49,40
93.428474,93.64276,69,49,40
93.428474,93.64276,57,49,40
93.85705,94.071335,69,49,40
93.85705,94.071335,57,49,40
94.28562,96.428474,69,88,40
94.28562,96.428474,81,88,40
96.428474,96.4883,57,88,40
96.428474,96.543655,64,88,40
96.428474,96.59991,73,88,40
96.85705,96.91687,57,88,40
96.85705,96.97222,66,88,40
96.85705,97.02847,74,88,40
103.60704,103.71418,57,88,40
103.71418,103.92847,66,88,40
104.035614,104.14275,66,88,40
104.14275,104.35704,66,88,40
104.46418,104.57133,67,88,40
104.57133,104.78561,69,88,40
104.57133,104.78561,62,88,40
104.89275,104.99989,74,88,40
104.99989,105.21418,69,88,40
105.32132,105.42847,74,88,40
105.42847,105.64275,69,88,40
105.74989,105.85704,69,88,40
105.85704,106.07132,69,88,40
106.17847,106.28561,71,88,40
106.28561,106.49989,73,88,40
106.60703,106.71418,78,88,40
106.71418,106.92847,73,88,40
107.03561,107.14275,78,88,40
107.14275,107.35703,77,88,40
107.46418,107.57132,78,88,40
107.57132,107.78561,80,88,40
107.892746,107.99989,81,88,40
107.99989,108.21418,80,88,40
108.32132,108.42847,78,88,40
108.42847,108.642746,73,88,40
108.74989,108.85703,74,88,40
108.85703,109.07132,76,88,40
109.17846,109.28561,71,88,40
109.17846,109.28561,62,88,40
109.28561,109.49989,73,88,40
109.28561,109.49989,64,88,40
109.60703,109.71417,74,88,40
109.71417,109.92846,76,88,40
110.03561,110.142746,71,88,40
110.03561,110.142746,62,88,40
110.142746,110.35703,73,88,40
110.142746,110.35703,64,88,40
117.64274,117.857025,62,88,40
117.857025,118.2856,64,88,40
118.49988,118.714165,62,88,40
118.714165,119.14274,64,88,40
119.357025,119.57131,62,88,40
119.57131,119.78559,64,88,40
119.78559,119.99988,74,88,40
119.99988,120.214165,76,88,40
120.214165,120.42845,74,88,40
120.42845,120.64274,76,88,40
120.64274,120.857025,86,88,40
120.857025,121.28559,88,114,40
121.28559,121.39274,84,88,40
121.39274,121.49988,84,88,40
121.49988,121.60702,83,88,40
121.60702,121.714165,83,88,40
121.714165,121.821304,81,88,40
121.821304,121.92845,81,88,40
121.92845,122.03559,84,88,40
122.03559,122.14274,84,88,40
122.14274,122.24988,83,88,40
122.24988,122.35702,83,88,40
122.35702,122.464165,81,88,40
122.464165,122.571304,81,88,40
122.571304,122.67845,79,88,40
122.67845,122.78559,79,88,40
122.78559,122.89273,76,88,40
122.89273,122.99988,76,88,40
122.99988,123.10702,74,88,40
123.10702,123.214165,74,88,40
123.214165,123.321304,79,88,40
123.321304,123.42845,79,88,40
123.42845,123.53559,76,88,40
123.53559,123.64273,76,88,40
123.64273,123.74988,74,88,40
123.74988,123.85702,74,88,40
123.85702,124.071304,74,88,40
124.071304,124.15702,55,88,40
124.28559,124.428,64,88,40
124.428,124.571304,65,88,40
124.571304,124.714165,64,88,40
124.714165,124.856575,67,88,40
124.856575,124.99988,64,88,40
124.99988,125.14273,60,88,40
125.14273,125.28514,62,88,40
125.28514,125.428444,64,88,40
125.428444,125.571304,62,88,40
125.571304,125.713715,67,88,40
125.713715,125.85702,62,88,40
125.85702,125.99987,55,88,40
125.99987,126.14229,60,88,40
126.14229,126.28559,62,88,40
126.28559,126.428444,60,88,40
126.428444,126.570854,64,88,40
126.570854,126.71416,62,88,40
126.71416,126.85702,60,88,40
126.85702,126.99943,59,88,40
126.99943,127.14273,60,88,40
127.14273,127.28558,62,88,40
127.28558,127.71416,57,88,40
127.71416,131.14273,55,88,40
127.71416,131.14273,67,88,40
131.14273,131.99986,60,88,40
131.99986,132.85701,60,88,40
132.85701,136.17844,55,88,40
136.12486,136.17844,55,88,40
136.17844,136.23201,64,88,40
136.23201,136.28558,71,88,40
136.28558,137.57129,79,88,40
137.57129,137.657,77,88,40
137.78558,137.87129,74,88,40
137.99986,138.42844,72,88,40
138.42844,138.64272,67,88,40
138.64272,138.85701,72,88,40
138.85701,139.28557,74,88,40
139.28557,139.49986,67,88,40
139.49986,139.71414,74,88,40
139.71414,140.57129,76,88,40
140.57129,143.14272,77,88,40
143.14272,143.357,74,49,40
172.71411,173.14268,69,49,40
173.14268,173.57126,81,49,40
173.57126,173.65697,79,49,40
173.78554,173.87126,76,49,40
173.99983,174.42839,74,49,40
174.42839,174.64268,69,49,40
174.64268,174.85696,74,49,40
174.85696,175.28554,76,49,40
175.28554,175.49982,69,49,40
175.49982,175.71411,76,49,40
175.71411,176.14268,78,49,40
176.14268,176.19937,81,49,40
176.2851,176.34268,79,49,40
176.42839,176.48509,76,49,40
176.57126,176.99982,74,49,40
176.99982,177.21411,69,49,40
177.21411,177.42839,74,49,40
177.42839,177.85696,76,49,40
177.85696,178.07124,71,49,40
178.07124,178.28554,76,49,40
178.28554,179.14268,81,49,40
179.57124,179.99982,64,49,40
179.99982,180.42839,76,49,40
180.42839,180.5141,72,49,40
180.64267,180.7284,69,49,40
180.85696,181.71411,64,49,40
181.71411,182.14267,83,49,40
182.14267,182.2284,79,49,40
182.35696,182.44267,76,49,40
182.57124,183.42839,73,49,40
183.42839,184.28552,74,49,40
184.28552,184.7141,76,49,40
188.14267,188.57124,69,49,40
188.57124,188.99982,81,49,40
188.99982,189.2141,79,49,40
189.2141,189.42838,76,49,40
189.42838,189.85695,74,49,40
189.85695,190.07124,69,49,40
190.07124,190.28552,74,49,40
190.28552,190.7141,76,49,40
190.7141,190.7998,69,49,40
190.92838,191.0141,76,49,40
191.14267,191.57124,78,49,40
191.57124,191.62793,86,49,40
191.71365,191.77124,84,49,40
191.85695,191.91365,81,49,40
191.9998,192.42838,79,49,40
192.42838,192.48508,83,49,40
192.57079,192.62837,79,49,40
192.7141,192.77078,76,49,40
192.85695,193.28552,73,49,40
193.28552,193.7141,74,49,40
193.7141,194.14267,79,49,40
194.14267,194.57123,78,49,40
194.57123,194.9998,73,49,40
194.9998,195.42838,74,49,40
195.42838,195.85695,83,49,40
195.85695,196.28552,81,49,40
196.28552,196.7141,76,49,40
196.7141,197.14265,78,49,40
197.14265,197.57123,88,49,40
197.57123,197.9998,86,49,40
197.9998,198.42838,85,49,40
198.42838,198.85695,83,49,40
198.85695,199.28552,81,49,40
199.28552,199.71408,79,49,40
199.71408,199.92838,76,49,40
199.92838,200.35695,79,49,40
200.35695,200.57123,77,49,40
200.57123,200.7855,76,49,40
200.7855,200.9998,74,49,40
200.9998,201.21408,73,49,40
201.21408,201.42838,70,49,40
201.42838,201.64265,69,49,40
201.64265,202.07123,76,49,40
202.07123,202.2855,74,49,40
202.2855,202.4998,73,49,40
202.4998,202.71408,70,49,40
202.71408,202.92838,69,49,40
202.92838,203.14265,67,49,40
203.14265,203.35693,65,49,40
203.35693,203.7855,68,49,40
203.7855,204.21408,69,49,40
204.21408,204.64265,71,49,40
204.64265,205.07123,73,49,40
205.07123,205.2855,74,49,40
205.2855,205.4998,76,49,40
205.4998,205.71408,77,49,40
205.71408,205.92836,79,49,40
205.92836,206.14265,80,49,40
206.14265,206.35693,81,49,40
206.35693,206.57123,79,49,40
206.57123,206.7855,77,75,40
211.60693,211.71408,70,88,40
211.71408,211.92836,68,88,40
212.0355,212.14264,69,88,40
212.14264,212.35693,71,88,40
212.46408,212.57121,73,88,40
212.57121,212.7855,71,88,40
212.89264,212.99979,69,88,40
212.99979,213.21407,61,88,40
213.32121,213.42836,62,88,40
213.42836,213.64264,64,88,40
213.74979,213.85693,59,88,40
213.85693,214.07121,61,88,40
214.17836,214.2855,62,88,40
214.2855,214.49979,64,88,40
214.60693,214.71407,59,88,40
214.71407,214.92836,61,88,40
215.03549,215.14264,57,88,40
215.14264,215.35693,66,88,40
215.46407,215.57121,66,88,40
215.57121,215.78549,66,88,40
215.89264,215.99979,67,88,40
215.99979,216.21407,69,88,40
216.32121,216.42836,74,88,40
216.42836,216.64264,69,88,40
216.74979,216.85693,74,88,40
216.85693,217.07121,69,88,40
217.17836,217.28549,69,88,40
217.28549,217.49979,69,88,40
217.60692,217.71407,71,88,40
217.71407,217.92836,73,88,40
218.03549,218.14264,78,88,40
218.14264,218.35692,73,88,40
218.46407,218.57121,78,88,40
218.57121,218.78549,77,88,40
218.89264,218.99979,78,88,40
218.99979,219.21407,80,88,40
219.32121,219.42834,81,88,40
219.42834,219.64264,80,88,40
219.74979,219.85692,78,88,40
219.85692,220.07121,73,88,40
220.17834,220.28549,74,88,40
220.28549,220.49979,76,88,40
220.60692,220.71407,71,88,40
220.71407,220.92834,73,88,40
221.03549,221.14264,74,88,40
221.14264,221.35692,76,88,40
221.46407,221.57121,71,88,40
221.57121,221.78549,73,88,40
221.89264,221.93504,86,88,40
221.99977,222.42834,88,114,40
222.42834,222.51407,86,88,40
222.64264,222.72835,85,88,40
222.85692,222.94263,83,88,40
223.07121,223.15692,86,88,40
223.28549,223.3712,85,88,40
223.49977,223.5855,83,88,40
223.71407,223.92834,81,88,40
223.92834,224.14264,78,88,40
224.14264,224.35692,76,88,40
224.35692,224.5712,81,88,40
224.5712,224.78549,78,88,40
224.78549,224.99977,76,88,40
224.99977,225.21407,76,88,40
225.21407,225.29977,86,88,40
225.42834,225.85692,88,114,40
225.85692,225.94263,84,88,40
226.0712,226.15692,83,88,40
226.28549,226.49977,81,88,40
226.49977,226.71407,84,88,40
226.71407,226.92834,83,88,40
226.92834,227.14262,81,88,40
227.14262,227.35692,79,88,40
227.35692,227.5712,76,88,40
227.5712,227.78549,74,88,40
227.78549,227.99977,79,88,40
227.99977,228.21405,76,49,40
228.21405,228.42834,74,49,40
228.42834,228.64262,74,49,40
228.64262,228.85692,69,49,40
228.85692,228.99933,66,49,40
228.99933,229.14262,64,49,40
229.14262,229.28549,66,49,40
229.28549,229.4279,64,49,40
229.4279,229.5712,66,49,40
229.5712,229.71405,67,49,40
229.71405,230.35692,69,49,40
230.35692,230.5712,74,49,40
230.5712,230.71361,69,49,40
230.71361,230.85692,68,49,40
230.85692,230.99977,69,49,40
230.99977,231.14218,68,49,40
231.14218,231.28548,69,49,40
231.28548,231.42834,71,49,40
231.42834,232.0712,73,88,40
232.0712,232.28548,78,88,40
232.28548,232.49977,76,88,40
232.6069,232.71405,78,88,40
232.71405,232.92834,79,88,40
233.03548,233.14262,80,88,40
233.14262,233.3569,81,88,40
233.46405,233.5712,83,88,40
233.5712,233.78548,85,88,40
233.89262,233.99977,86,88,40
233.99977,234.21405,88,88,40
234.3212,234.42833,83,88,40
234.42833,234.64262,85,88,40
234.74977,234.8569,86,88,40
234.8569,235.0712,88,88,40
235.17833,235.28548,83,88,40
235.28548,235.49977,85,88,40
235.6069,235.71405,86,88,40
235.71405,236.46405,86,101,40
235.71405,236.46405,74,101,40
236.46405,236.5712,74,101,40
236.46405,236.5712,86,101,40
236.5712,237.3212,86,101,40
236.5712,237.3212,74,101,40
237.3212,237.42833,74,101,40
237.3212,237.42833,86,101,40
237.42833,238.17833,86,101,40
237.42833,238.17833,74,101,40
238.17833,238.28548,74,101,40
238.17833,238.28548,86,101,40
238.28548,239.03548,86,101,40
238.28548,239.03548,74,101,40
239.03548,239.14262,74,101,40
239.03548,239.14262,86,101,40
239.14262,239.24976,86,101,40
239.24976,239.3569,85,101,40
239.3569,239.46405,83,101,40
239.46405,239.57118,85,101,40
239.57118,239.67833,86,101,40
239.67833,239.78548,88,101,40
239.78548,239.89262,90,101,40
239.89262,239.99976,88,101,40
239.99976,240.1069,86,101,40
240.1069,240.21405,85,101,40
240.21405,240.32118,83,101,40
240.32118,240.42833,81,101,40
240.42833,240.53548,80,101,40
240.53548,240.64262,78,101,40
240.64262,240.74976,76,101,40
240.74976,240.8569,74,101,40
240.8569,240.96405,73,101,40
240.96405,241.07118,74,101,40
241.07118,241.17833,76,101,40
241.17833,241.28548,78,101,40
241.28548,241.39261,79,101,40
241.39261,241.49976,81,101,40
241.49976,241.6069,83,101,40
241.6069,241.71405,81,101,40
241.71405,241.82118,79,101,40
241.82118,241.92833,78,101,40
241.92833,242.03548,76,101,40
242.03548,242.14261,74,101,40
242.14261,242.24976,73,101,40
242.24976,242.3569,71,101,40
242.3569,242.46405,69,101,40
242.46405,242.57118,67,101,40
242.57118,242.78548,74,101,40
242.57118,242.78548,66,101,40
242.89261,242.99976,69,101,40
242.99976,243.21404,71,101,40
243.32118,243.42833,72,101,40
243.42833,243.64261,74,101,40
243.74976,243.8569,69,101,40
243.8569,244.07118,71,101,40
244.17833,244.28548,72,101,40
244.28548,244.49976,76,101,40
244.6069,244.71404,67,101,40
244.71404,244.92833,71,101,40
245.03548,245.14261,72,101,40
245.14261,245.3569,76,101,40
245.46404,245.57118,67,101,40
245.57118,245.78546,71,101,40
245.89261,245.99976,72,101,40
245.99976,246.21404,78,101,40
246.32118,246.42833,69,101,40
246.42833,246.64261,71,101,40
246.74976,246.8569,72,101,40
246.8569,247.07118,79,101,40
247.17833,247.28546,71,101,40
247.28546,247.49976,73,101,40
247.60689,247.71404,74,101,40
247.71404,247.92833,80,101,40
248.03546,248.14261,71,101,40
248.14261,248.35689,73,101,40
248.46404,248.57118,74,101,40
248.57118,248.78546,83,101,40
248.89261,248.99976,68,101,40
248.99976,249.21404,74,101,40
249.32118,249.36359,83,101,40
249.42833,249.85689,81,127,40
249.42833,249.85689,69,127,40
249.85689,249.96404,79,101,40
249.96404,250.07118,79,101,40
250.07118,250.17831,78,101,40
250.17831,250.28546,78,101,40
250.28546,250.39261,76,101,40
250.39261,250.49976,76,101,40
250.49976,250.60689,79,101,40
250.60689,250.71404,79,101,40
250.71404,250.82118,78,101,40
250.82118,250.92831,78,101,40
250.92831,251.03546,76,101,40
251.03546,251.14261,76,101,40
251.14261,251.24976,78,101,40
251.24976,251.35689,78,101,40
251.35689,251.46404,76,101,40
251.46404,251.57118,76,101,40
251.57118,251.65689,74,101,40
251.78546,251.87117,78,101,40
251.99974,252.42831,81,127,40
251.99974,252.42831,69,127,40
252.42831,252.53546,79,101,40
252.53546,252.64261,79,101,40
252.64261,252.74974,78,101,40
252.74974,252.85689,78,101,40
252.85689,252.96404,76,101,40
252.96404,253.07118,76,101,40
253.07118,253.17831,79,101,40
253.17831,253.28546,79,101,40
253.28546,253.39261,78,101,40
253.39261,253.49974,78,101,40
253.49974,253.60689,76,101,40
253.60689,253.71404,76,101,40
253.71404,253.82118,78,101,40
253.82118,253.92831,78,101,40
253.92831,254.03546,76,101,40
254.03546,254.14261,76,101,40
254.14261,254.35689,74,101,40
254.35689,254.57117,78,101,40
254.57117,254.99974,86,127,40
254.57117,254.99974,74,127,40
254.99974,255.08546,85,101,40
255.21404,255.29974,83,101,40
255.42831,255.51402,81,101,40
255.64261,255.72832,84,101,40
255.85689,255.9426,83,101,40
256.07117,256.1569,81,101,40
256.28546,256.49976,79,101,40
256.49976,256.71402,76,101,40
256.71402,256.9283,81,101,40
257.99976,258.4283,79,101,40
258.4283,258.6426,78,101,40
258.6426,258.85687,76,101,40
258.85687,259.07117,75,101,40
259.07117,259.28546,78,101,40
259.28546,259.49973,76,101,40
259.49973,259.71402,74,101,40
259.71402,259.9283,72,101,40
259.9283,260.1426,69,101,40
260.1426,260.35687,74,101,40
261.85687,262.07117,67,101,40
262.07117,262.28546,72,101,40
262.28546,262.49973,67,101,40
262.49973,262.71402,71,101,40
262.71402,262.9283,67,101,40
262.9283,263.1426,69,101,40
263.1426,263.35687,67,101,40
263.35687,263.57117,67,101,40
263.57117,263.78546,55,101,40
265.28546,265.37115,67,101,40
265.49973,265.58545,72,101,40
265.71402,265.79974,67,101,40
265.9283,266.014,71,101,40
266.14258,266.2283,67,101,40
266.35687,266.4426,69,101,40
266.57117,266.6569,67,101,40
266.78546,266.87115,67,101,40
266.99973,267.08545,55,101,40
268.71402,268.9283,67,101,40
268.9283,269.14258,76,101,40
269.14258,269.35687,67,101,40
269.35687,269.57117,74,101,40
269.57117,269.78543,67,101,40
269.78543,269.99973,72,101,40
269.99973,270.21402,67,101,40
270.21402,270.4283,71,101,40
270.64258,270.7283,76,101,40
271.07117,271.15686,74,101,40
271.49973,271.58545,76,101,40
271.9283,272.014,74,101,40
272.35687,272.4426,81,101,40
272.78543,272.87115,74,101,40
273.21402,273.2997,81,101,40
273.64258,275.14258,71,36,40
273.64258,275.14258,74,36,40
275.35687,276.85687,74,36,40
275.35687,276.85687,76,36,40
277.07114,278.57114,78,36,40
277.07114,279.42828,62,36,40
278.57114,279.42828,79,36,40
279.42828,280.28543,62,36,40
279.42828,280.28543,81,36,40
280.28543,282.85687,81,36,40
282.85687,283.714,73,36,40
291.85684,292.28543,67,36,40
292.28543,293.57114,71,36,40
293.57114,293.9997,69,36,40
293.9997,295.28543,76,36,40
295.28543,295.714,74,36,40
295.714,296.9997,81,36,40
296.9997,297.42828,79,36,40
297.42828,298.714,83,36,40
298.714,299.14255,81,36,40
299.14255,300.42828,69,101,40
299.14255,300.42828,91,101,40
300.42828,300.5354,76,101,40
300.5354,300.64255,78,101,40
300.64255,300.7497,76,101,40
300.7497,300.85684,74,101,40
300.85684,300.964,76,127,40
300.964,301.07114,81,101,40
301.07114,301.17828,76,101,40
301.17828,301.2854,69,101,40
302.14255,302.2497,76,101,40
302.2497,302.35684,78,101,40
302.35684,302.464,76,101,40
302.464,302.57114,74,101,40
302.57114,302.67828,76,127,40
302.67828,302.7854,81,101,40
302.7854,302.89255,76,101,40
302.89255,302.9997,69,101,40
303.42825,303.5354,76,127,40
303.5354,303.64255,81,101,40
303.64255,303.7497,76,101,40
303.7497,303.85684,69,101,40
304.2854,304.39255,76,127,40
304.39255,304.4997,81,101,40
304.4997,304.60684,76,101,40
304.60684,304.714,69,101,40
305.14255,305.2497,76,127,40
305.2497,305.35684,81,101,40
305.35684,305.464,76,101,40
305.464,305.57114,69,101,40
305.9997,306.214,86,101,40
305.9997,306.214,78,101,40
305.9997,306.214,69,101,40
306.42825,306.5354,64,101,40
306.5354,306.64255,69,101,40
306.64255,306.7497,64,101,40
306.7497,306.85684,57,101,40
306.85684,306.964,66,101,40
306.964,307.07114,69,101,40
307.07114,307.17825,66,101,40
307.17825,307.2854,57,101,40
307.2854,307.39255,64,101,40
307.39255,307.4997,69,101,40
307.4997,307.60684,64,101,40
307.60684,307.714,57,101,40
307.714,307.8211,66,101,40
307.8211,307.92825,69,101,40
307.92825,308.0354,66,101,40
308.0354,308.14255,57,101,40
308.14255,308.2497,64,101,40
308.2497,308.35684,73,101,40
308.35684,308.464,64,101,40
308.464,308.5711,57,101,40
308.5711,308.67825,66,101,40
308.67825,308.7854,74,101,40
308.7854,308.89255,66,101,40
308.89255,308.9997,57,101,40
308.9997,309.10684,73,101,40
309.10684,309.214,76,101,40
309.214,309.3211,73,101,40
309.3211,309.42825,69,101,40
309.42825,309.5354,74,101,40
309.5354,309.64255,78,101,40
309.64255,309.7497,74,101,40
309.7497,309.85684,69,101,40
309.85684,309.964,81,101,40
309.85684,309.964,69,101,40
309.964,310.0711,81,101,40
309.964,310.0711,69,101,40
310.0711,310.17825,81,101,40
310.0711,310.17825,69,101,40
310.17825,310.2854,69,101,40
310.17825,310.2854,81,101,40
310.2854,310.39255,86,101,40
310.2854,310.39255,69,101,40
310.39255,310.4997,86,101,40
310.39255,310.4997,69,101,40
310.4997,310.60684,86,101,40
310.4997,310.60684,69,101,40
310.60684,310.714,86,101,40
310.60684,310.714,69,101,40
310.714,310.8211,88,101,40
310.714,310.8211,69,101,40
310.8211,310.92825,88,101,40
310.8211,310.92825,69,101,40
310.92825,311.0354,88,101,40
310.92825,311.0354,69,101,40
311.0354,311.14255,69,101,40
311.0354,311.14255,88,101,40
311.14255,311.35684,90,101,40
311.14255,311.35684,69,101,40
311.7854,311.9997,76,101,40
311.7854,311.9997,85,101,40
311.9997,312.21396,86,101,40
311.9997,312.21396,78,101,40
312.64255,312.85684,76,101,40
312.64255,312.85684,85,101,40
312.85684,313.0711,86,101,40
312.85684,313.0711,78,101,40
313.71396,313.92825,81,101,40
313.71396,313.92825,76,101,40
314.5711,315.42825,62,101,40
314.5711,315.42825,74,101,40
314.5711,315.42825,78,101,40
146.14272,146.357,79,49,45
146.357,146.57129,75,49,45
146.57129,146.78557,72,49,45
146.78557,146.99985,78,49,45
146.99985,147.21414,75,49,45
147.21414,147.42842,72,49,45
147.42842,147.64272,69,49,45
147.64272,147.857,75,49,45
147.857,148.07127,72,49,45
148.07127,148.28557,69,49,45
148.28557,148.49985,66,49,45
148.49985,148.71414,63,49,45
148.71414,148.92842,60,49,45
148.92842,149.14272,57,49,45
149.14272,149.357,58,49,45
149.357,149.57127,58,49,45
149.78557,149.99985,58,49,45
150.21414,150.42842,58,49,45
150.6427,150.857,58,49,45
151.07127,151.28557,58,49,45
152.1427,152.357,82,49,45
152.357,152.57127,79,49,45
152.57127,152.78557,76,49,45
152.78557,152.99985,82,49,45
152.99985,153.21413,79,49,45
153.21413,153.42842,76,49,45
153.42842,153.6427,73,49,45
153.6427,153.857,79,49,45
153.857,154.07127,76,49,45
154.07127,154.28555,73,49,45
154.28555,154.49985,70,49,45
154.49985,154.71413,67,49,45
154.71413,154.92842,64,49,45
154.92842,155.1427,61,49,45
155.1427,155.357,57,49,45
155.357,155.57127,57,49,45
155.78555,155.99985,57,49,45
156.21413,156.42842,57,49,45
156.6427,156.85698,57,49,45
157.07127,157.28555,57,49,45
157.49985,157.71413,57,49,45
157.92842,158.1427,57,49,45
158.35698,158.57127,57,49,45
158.78555,158.99985,57,49,45
159.21413,159.4284,57,49,45
159.6427,159.85698,57,49,45
160.07127,160.28555,57,49,45
160.49983,160.71413,57,49,45
160.9284,161.1427,57,49,45
161.35698,161.57127,57,49,45
161.78555,161.99983,57,49,45
162.21413,162.4284,57,49,45
162.6427,162.85698,57,49,45
162.85698,163.07126,69,88,45
162.85698,163.07126,64,88,45
162.85698,163.07126,57,88,45
3.428568,3.6428535,50,88,41
3.7499962,3.857139,50,88,41
3.857139,4.0714245,50,88,41
4.1785674,4.28571,52,88,41
4.28571,4.4999957,54,88,41
4.607138,4.714281,54,88,41
4.714281,4.9285665,54,88,41
5.0357094,5.142852,54,88,41
5.142852,5.3571377,54,88,41
5.46428,5.571423,54,88,41
5.571423,5.7857084,54,88,41
5.8928514,5.999994,50,88,41
5.999994,6.2142797,57,88,41
5.999994,6.2142797,54,88,41
6.321422,6.428565,57,88,41
6.428565,6.6428504,57,88,41
6.7499933,6.857136,49,88,41
6.7499933,6.857136,57,88,41
6.857136,7.0714216,56,88,41
6.857136,7.0714216,49,88,41
7.178564,7.285707,57,88,41
7.285707,7.4999924,59,88,41
7.6071353,7.714278,54,88,41
7.6071353,7.714278,61,88,41
7.714278,7.9285636,59,88,41
7.714278,7.9285636,54,88,41
8.0357065,8.142849,57,88,41
8.142849,8.357135,57,88,41
8.464277,8.57142,52,88,41
8.464277,8.57142,59,88,41
8.57142,8.785706,61,88,41
8.57142,8.785706,52,88,41
8.892848,8.999991,56,88,41
8.999991,9.214276,57,88,41
9.32142,9.428562,52,88,41
9.32142,9.428562,59,88,41
9.428562,9.642847,61,88,41
9.428562,9.642847,52,88,41
9.74999,9.857133,56,88,41
9.857133,10.071419,57,88,41
10.285704,10.4999895,62,88,41
10.607132,10.714275,62,88,41
10.714275,10.92856,62,88,41
11.035704,11.142846,64,88,41
11.142846,11.357132,66,88,41
11.464274,11.571417,66,88,41
11.571417,11.785703,66,88,41
11.892845,11.999988,62,88,41
11.999988,12.214273,66,88,41
12.321416,12.428559,66,88,41
12.428559,12.642844,66,88,41
12.749988,12.85713,68,88,41
12.85713,13.071416,69,88,41
13.178558,13.285701,69,88,41
13.285701,13.499987,69,88,41
13.607129,13.714272,69,88,41
13.714272,13.928557,68,88,41
14.0357,14.142843,69,88,41
14.142843,14.357128,71,88,41
14.464272,14.571414,73,88,41
14.571414,14.7857,71,88,41
14.892842,14.999985,69,88,41
14.999985,15.214271,69,88,41
14.999985,15.214271,66,88,41
15.321413,15.428556,66,88,41
15.321413,15.428556,71,88,41
15.428556,15.642841,73,88,41
15.428556,15.642841,64,88,41
15.749984,15.857127,68,88,41
15.857127,16.071413,69,88,41
16.178555,16.285698,66,88,41
16.178555,16.285698,71,88,41
16.285698,16.499983,73,88,41
16.607126,16.71427,68,88,41
16.71427,16.928555,69,88,41
17.035698,17.14284,62,88,41
17.14284,17.571411,64,88,41
17.571411,17.678555,56,88,41
17.678555,17.785696,64,88,41
17.785696,17.89284,57,88,41
17.89284,17.999983,64,88,41
17.999983,18.107124,59,88,41
18.107124,18.214268,64,88,41
18.214268,18.321411,56,88,41
18.321411,18.428553,64,88,41
18.428553,18.535696,57,88,41
18.535696,18.64284,64,88,41
18.64284,18.74998,59,88,41
18.74998,18.857124,64,88,41
18.857124,18.964266,61,88,41
18.964266,19.07141,64,88,41
19.07141,19.178553,62,88,41
19.178553,19.285694,64,88,41
19.285694,19.392838,64,88,41
19.392838,19.49998,64,88,41
19.49998,19.607122,61,88,41
19.607122,19.714266,64,88,41
19.714266,19.82141,62,88,41
19.82141,19.92855,64,88,41
19.92855,20.035694,64,88,41
20.035694,20.142838,64,88,41
20.142838,20.228552,64,88,41
20.357122,20.442837,62,88,41
20.571407,20.999979,64,114,41
20.999979,21.107122,54,49,41
21.107122,21.214264,62,49,41
21.214264,21.321407,55,49,41
21.321407,21.42855,62,49,41
21.42855,21.535692,57,49,41
21.535692,21.642836,62,49,41
21.642836,21.749979,54,49,41
21.749979,21.85712,62,49,41
21.85712,21.964264,55,49,41
21.964264,22.071407,62,49,41
22.071407,22.178549,57,49,41
22.178549,22.285692,62,49,41
22.285692,22.392836,59,49,41
22.392836,22.499977,62,49,41
22.499977,22.60712,62,49,41
22.60712,22.714264,62,49,41
22.714264,22.821405,62,49,41
22.821405,22.928549,62,49,41
22.928549,23.03569,59,49,41
23.03569,23.142834,62,49,41
23.142834,23.249977,61,49,41
23.249977,23.357119,62,49,41
23.357119,23.464262,62,49,41
23.464262,23.571405,62,49,41
23.571405,23.78569,62,49,41
26.035688,26.142832,56,88,41
26.142832,26.357117,57,88,41
26.46426,26.571402,59,88,41
26.571402,26.785688,61,88,41
26.89283,26.999973,62,88,41
26.999973,27.214258,64,88,41
27.321402,27.428543,61,88,41
27.428543,27.64283,62,88,41
27.749971,27.857115,62,88,41
27.857115,28.0714,62,88,41
28.178543,28.285686,64,88,41
28.285686,28.499971,66,88,41
28.607115,28.714256,66,88,41
28.714256,28.928543,66,88,41
29.035685,29.142828,66,88,41
29.142828,29.357113,66,88,41
29.464256,29.5714,66,88,41
29.5714,29.785685,66,88,41
29.892828,29.99997,62,88,41
29.99997,30.214256,69,88,41
30.321398,30.428541,69,88,41
30.428541,30.642826,69,88,41
30.74997,30.857113,62,88,41
30.857113,31.071398,71,88,41
31.178541,31.285683,69,88,41
31.285683,31.499968,67,88,41
31.607111,31.714254,71,88,41
31.714254,31.92854,69,88,41
32.035683,32.142826,68,88,41
32.142826,32.35711,69,88,41
32.464252,32.571396,66,88,41
32.571396,32.785683,71,88,41
32.892826,32.999966,67,88,41
32.999966,33.214252,64,88,41
33.321396,33.42854,66,88,41
33.42854,33.642822,71,88,41
33.749966,33.85711,67,88,41
33.85711,34.071396,64,88,41
34.178535,34.28568,66,88,41
34.28568,35.03568,74,101,41
34.28568,35.03568,66,101,41
35.03568,35.142822,66,101,41
35.03568,35.142822,74,101,41
35.142822,35.892822,74,101,41
35.142822,35.892822,66,101,41
35.892822,35.999966,66,101,41
35.892822,35.999966,74,101,41
35.999966,36.74996,74,101,41
35.999966,36.74996,67,101,41
36.74996,36.857105,67,101,41
36.74996,36.857105,74,101,41
36.857105,37.607105,74,101,41
36.857105,37.607105,66,101,41
37.607105,37.71425,66,101,41
37.607105,37.71425,74,101,41
37.71425,37.821392,74,101,41
37.821392,37.92853,73,101,41
37.92853,38.035675,71,101,41
38.035675,38.14282,73,101,41
38.14282,38.24996,74,101,41
38.24996,38.357105,76,101,41
38.357105,38.46425,78,101,41
38.46425,38.57139,76,101,41
38.57139,38.67853,74,101,41
38.67853,38.785675,73,101,41
38.785675,38.89282,71,101,41
38.89282,38.99996,69,101,41
38.99996,39.107105,68,101,41
39.107105,39.214245,66,101,41
39.214245,39.32139,64,101,41
39.32139,39.42853,62,101,41
39.42853,39.535675,61,101,41
39.535675,39.64282,62,101,41
39.64282,39.74996,64,101,41
39.74996,39.8571,66,101,41
39.8571,39.964245,67,101,41
39.964245,40.07139,69,101,41
40.07139,40.17853,71,101,41
40.17853,40.285675,69,101,41
40.285675,41.142815,61,101,41
40.285675,41.142815,69,101,41
41.142815,41.3571,69,101,41
41.142815,41.3571,62,101,41
41.464245,41.57139,66,101,41
41.57139,41.78567,67,101,41
41.892815,41.999958,64,101,41
41.999958,42.214245,66,101,41
42.321384,42.428528,66,101,41
42.428528,42.642815,64,101,41
42.749958,42.8571,66,101,41
42.8571,43.071384,74,101,41
42.8571,43.071384,62,101,41
43.178528,43.28567,66,101,41
43.28567,43.499958,70,101,41
43.607098,43.71424,71,101,41
43.71424,43.928528,74,101,41
43.71424,43.928528,62,101,41
44.03567,44.142815,62,101,41
44.142815,44.357098,66,101,41
44.46424,44.571384,74,101,41
44.571384,44.78567,77,101,41
44.89281,44.999954,68,101,41
44.999954,45.21424,73,101,41
45.321384,45.428528,65,101,41
45.428528,45.64281,66,101,41
45.749954,45.857098,69,101,41
45.857098,46.07138,73,101,41
46.178524,46.285667,78,101,41
46.285667,47.035667,80,101,41
47.035667,47.14281,80,101,41
47.14281,47.89281,78,101,41
47.89281,47.99995,78,101,41
47.99995,48.74995,77,101,41
48.74995,48.857094,73,101,41
48.857094,49.07138,75,101,41
49.178524,49.285664,77,101,41
49.285664,49.49995,78,101,41
49.607094,49.714237,80,101,41
49.714237,50.571377,81,101,41
50.571377,50.785664,83,101,41
51.214233,51.321377,71,101,41
51.321377,51.42852,71,101,41
51.42852,51.535664,73,101,41
51.535664,51.642807,73,101,41
51.642807,51.749947,68,101,41
51.749947,51.85709,68,101,41
51.85709,51.964233,69,101,41
51.964233,52.071377,69,101,41
52.071377,52.17852,71,101,41
52.17852,52.285664,71,101,41
52.285664,52.392803,73,101,41
52.392803,52.499947,73,101,41
52.499947,52.60709,68,101,41
52.60709,52.714233,68,101,41
52.714233,52.821377,69,101,41
52.821377,52.92852,69,101,41
52.92852,53.03566,71,101,41
53.03566,53.142803,71,101,41
53.142803,53.249947,73,101,41
53.249947,53.35709,73,101,41
53.35709,53.464233,68,101,41
53.464233,53.571377,68,101,41
53.571377,53.678516,69,101,41
53.678516,53.78566,69,101,41
53.78566,53.892803,71,101,41
53.892803,53.999947,71,101,41
53.999947,54.10709,73,101,41
54.10709,54.214233,73,101,41
54.214233,54.321373,71,101,41
54.321373,54.428516,71,101,41
54.428516,54.53566,69,101,41
54.53566,54.642803,69,101,41
54.642803,54.749947,68,101,41
54.749947,54.857086,68,101,41
54.857086,54.96423,70,101,41
54.96423,55.071373,70,101,41
55.071373,55.178516,71,101,41
55.178516,55.28566,71,101,41
55.28566,55.392803,70,101,41
55.392803,55.499943,70,101,41
55.499943,55.607086,68,101,41
55.607086,55.71423,68,101,41
55.71423,55.821373,70,101,41
55.821373,55.928516,70,101,41
55.928516,56.03566,71,101,41
56.03566,56.1428,71,101,41
56.1428,56.249943,70,101,41
56.249943,56.357086,70,101,41
56.357086,56.46423,68,101,41
56.46423,56.571373,68,101,41
56.571373,56.678516,70,101,41
56.678516,56.785656,70,101,41
56.785656,56.8928,71,101,41
56.8928,56.999943,71,101,41
56.999943,57.107086,70,101,41
57.107086,57.21423,70,101,41
57.21423,57.321373,68,101,41
57.321373,57.428513,68,101,41
57.428513,57.535656,70,101,41
57.535656,57.6428,70,101,41
57.6428,57.749943,73,101,41
57.749943,57.857086,73,101,41
57.857086,57.96423,72,101,41
57.96423,58.07137,72,101,41
58.07137,58.178513,70,101,41
58.178513,58.285656,70,101,41
58.285656,58.3928,72,101,41
58.3928,58.499943,72,101,41
58.499943,58.607082,73,101,41
58.607082,58.714226,73,101,41
58.714226,58.82137,72,101,41
58.82137,58.928513,72,101,41
58.928513,59.035656,70,101,41
59.035656,59.1428,70,101,41
59.1428,59.24994,72,101,41
59.24994,59.357082,72,101,41
59.357082,59.464226,73,101,41
59.464226,59.57137,73,101,41
59.57137,59.678513,72,101,41
59.678513,59.785656,72,101,41
59.785656,59.892796,70,101,41
59.892796,59.99994,70,101,41
59.99994,60.107082,72,101,41
60.107082,60.214226,72,101,41
60.214226,60.32137,72,101,41
60.32137,60.428513,72,101,41
60.428513,60.535652,72,101,41
60.535652,60.642796,72,101,41
60.642796,60.74994,72,101,41
60.74994,60.857082,72,101,41
60.857082,60.964226,71,101,41
60.964226,61.07137,71,101,41
61.07137,61.17851,71,101,41
61.17851,61.285652,71,101,41
61.285652,61.392796,71,101,41
61.392796,61.49994,71,101,41
61.49994,61.607082,71,101,41
61.607082,61.714226,71,101,41
61.714226,61.821365,71,101,41
61.821365,61.92851,71,101,41
61.92851,62.035652,71,101,41
62.035652,62.142796,71,101,41
62.142796,62.24994,71,101,41
62.24994,62.357082,71,101,41
62.357082,62.464222,71,101,41
62.464222,62.571365,71,101,41
62.571365,62.67851,69,101,41
62.67851,62.785652,69,101,41
62.785652,62.892796,69,101,41
62.892796,62.999935,69,101,41
62.999935,63.10708,68,101,41
63.10708,63.214222,68,101,41
63.214222,63.321365,68,101,41
63.321365,63.42851,68,101,41
63.42851,63.57092,69,49,41
63.42851,63.57092,61,49,41
63.57092,63.714222,62,49,41
63.714222,63.85708,61,49,41
63.85708,63.99949,64,49,41
63.99949,64.14279,61,49,41
64.14279,64.28565,57,49,41
64.28565,64.42806,56,49,41
64.42806,64.571365,57,49,41
64.571365,64.71422,56,49,41
64.71422,64.85663,59,49,41
64.85663,64.99993,56,49,41
64.99993,65.14279,52,49,41
65.14279,65.2852,49,49,41
65.2852,65.428505,50,49,41
65.428505,65.571365,49,49,41
65.571365,65.713776,52,49,41
65.713776,65.85708,57,49,41
65.85708,65.99993,61,49,41
65.99993,66.14234,50,49,41
66.14234,66.285645,52,49,41
66.285645,66.428505,50,49,41
66.428505,66.570915,56,49,41
66.570915,66.71422,59,49,41
66.71422,66.85708,62,49,41
66.85708,66.99949,52,49,41
66.99949,67.14279,54,49,41
67.14279,67.285645,52,49,41
67.285645,67.428055,56,49,41
67.428055,67.57136,59,49,41
67.57136,67.71422,64,49,41
67.71422,67.85663,61,49,41
67.85663,67.99993,62,49,41
67.99993,68.14279,61,49,41
68.14279,68.2852,64,49,41
68.2852,68.428505,61,49,41
68.428505,68.57136,57,49,41
68.57136,68.71377,62,49,41
68.71377,68.85707,64,49,41
68.85707,68.99993,62,49,41
68.99993,69.14234,59,49,41
69.14234,69.285645,57,49,41
69.285645,69.428505,54,49,41
69.428505,69.570915,52,49,41
69.570915,69.71422,54,49,41
69.71422,69.85707,52,49,41
69.85707,69.99948,56,49,41
69.99948,70.142784,59,49,41
70.142784,70.285645,64,49,41
70.285645,70.428055,68,49,41
70.428055,70.57136,69,49,41
70.57136,70.71422,68,49,41
70.71422,70.85663,71,49,41
70.85663,70.99993,68,49,41
70.99993,71.142784,64,49,41
71.142784,71.285194,64,49,41
71.285194,71.4285,66,49,41
71.4285,71.57136,64,49,41
71.57136,71.71377,67,49,41
71.71377,71.85707,64,49,41
71.85707,71.99993,59,49,41
71.99993,72.14234,63,49,41
72.14234,72.285645,64,49,41
72.285645,72.4285,63,49,41
72.4285,72.57091,66,49,41
72.57091,72.71421,63,49,41
72.71421,72.85707,59,49,41
72.85707,72.99948,59,49,41
72.99948,73.142784,61,49,41
73.142784,73.285645,59,49,41
73.285645,73.428055,62,49,41
73.428055,73.57136,59,49,41
73.57136,73.71421,54,49,41
73.71421,73.85662,52,49,41
73.85662,73.99992,54,49,41
73.99992,74.142784,52,49,41
74.142784,74.285194,66,49,41
74.285194,74.4285,63,49,41
74.4285,74.57136,64,49,41
74.57136,74.71377,54,49,41
74.71377,74.85707,56,49,41
74.85707,74.99992,54,49,41
74.99992,75.142334,64,49,41
75.142334,75.28564,62,49,41
75.28564,75.4285,63,49,41
75.4285,75.57091,56,49,41
75.57091,75.71421,57,49,41
75.71421,75.85706,56,49,41
75.85706,75.99948,66,49,41
75.99948,76.142784,61,49,41
76.142784,76.28564,62,49,41
76.28564,76.42805,58,49,41
76.42805,76.57135,59,49,41
76.57135,76.71421,55,49,41
76.71421,76.85662,56,49,41
76.85662,76.99992,52,49,41
76.99992,77.14278,62,49,41
77.14278,77.28519,61,49,41
77.28519,77.4285,62,49,41
77.4285,77.57135,61,49,41
77.57135,77.71376,64,49,41
77.71376,77.85706,61,49,41
77.85706,77.99992,57,49,41
77.99992,78.142334,56,49,41
78.142334,78.28564,57,49,41
78.28564,78.42849,56,49,41
78.42849,78.5709,59,49,41
78.5709,78.71421,55,49,41
78.71421,78.85706,52,49,41
78.85706,78.99947,49,49,41
78.99947,79.14278,50,49,41
79.14278,79.28564,49,49,41
79.28564,79.42805,52,49,41
79.42805,79.57135,57,49,41
79.57135,79.7142,61,49,41
79.7142,79.85661,52,49,41
79.85661,79.99992,54,49,41
79.99992,80.14278,52,49,41
80.14278,80.28519,56,49,41
80.28519,80.42849,59,49,41
80.42849,80.57135,62,49,41
80.57135,80.71376,57,49,41
80.71376,80.85706,59,49,41
80.85706,80.999916,57,49,41
80.999916,81.14233,61,49,41
81.14233,81.28563,64,49,41
81.28563,81.42849,68,49,41
81.42849,81.5709,66,49,41
81.5709,81.7142,62,49,41
81.7142,81.85706,57,49,41
81.85706,81.99947,62,49,41
81.99947,82.14278,57,49,41
82.14278,82.28563,54,49,41
82.28563,82.42804,62,49,41
82.42804,82.57134,64,49,41
82.57134,82.7142,62,49,41
82.7142,82.85661,61,49,41
82.85661,82.999916,62,49,41
82.999916,83.14278,61,49,41
83.14278,83.28519,56,49,41
83.28519,83.42849,57,49,41
83.42849,83.57134,56,49,41
83.57134,83.71375,57,49,41
83.71375,83.857056,59,49,41
83.857056,83.999916,57,49,41
83.999916,84.42849,66,49,41
84.42849,84.857056,64,49,41
84.857056,85.28563,59,49,41
85.28563,85.7142,61,49,41
85.7142,86.14277,66,49,41
86.14277,86.57134,64,49,41
86.57134,86.999916,59,49,41
86.999916,87.42848,61,49,41
87.42848,87.857056,62,49,41
87.857056,88.28563,63,49,41
88.28563,88.714195,64,49,41
88.714195,89.14277,66,49,41
89.14277,89.357056,64,49,41
89.357056,89.78562,71,49,41
89.78562,89.99991,69,49,41
89.99991,90.214195,68,49,41
90.214195,90.42848,66,49,41
90.42848,90.64277,64,49,41
90.64277,90.857056,63,49,41
90.857056,91.071335,64,49,41
91.071335,91.49991,68,49,41
91.49991,91.714195,66,49,41
91.714195,91.92848,64,49,41
91.92848,92.14276,62,49,41
92.14276,92.35705,61,49,41
92.35705,92.571335,59,49,41
92.571335,92.78562,61,49,41
92.99991,93.214195,61,49,41
93.428474,93.64276,61,49,41
93.428474,93.64276,56,49,41
93.85705,94.071335,64,49,41
94.28562,94.928474,49,88,41
94.928474,95.14276,50,88,41
95.14276,95.35705,52,88,41
95.35705,95.571335,54,88,41
95.571335,95.78562,55,88,41
95.78562,95.9999,57,88,41
95.9999,96.21419,59,88,41
96.21419,96.428474,61,88,41
96.428474,96.64276,62,88,41
96.64276,96.85705,64,88,41
96.85705,97.071335,66,88,41
97.178474,97.285614,50,88,41
97.285614,97.4999,50,88,41
97.60705,97.71419,52,88,41
97.71419,97.928474,54,88,41
98.035614,98.14276,54,88,41
98.14276,98.35705,54,88,41
98.46419,98.57133,54,88,41
98.57133,98.785614,54,88,41
98.89276,98.9999,54,88,41
98.9999,99.21419,54,88,41
99.32133,99.428474,50,88,41
99.428474,99.64276,57,88,41
99.428474,99.64276,54,88,41
99.7499,99.85704,57,88,41
99.85704,100.07133,57,88,41
100.178474,100.285614,57,88,41
100.285614,100.4999,56,88,41
100.285614,100.4999,49,88,41
100.60704,100.71419,57,88,41
100.71419,100.92847,59,88,41
101.035614,101.14275,61,88,41
101.14275,101.35704,59,88,41
101.14275,101.35704,54,88,41
101.46419,101.57133,57,88,41
101.57133,101.785614,57,88,41
101.89275,101.9999,52,88,41
101.89275,101.9999,59,88,41
101.9999,102.21418,61,88,41
101.9999,102.21418,52,88,41
102.32133,102.42847,56,88,41
102.42847,102.64275,57,88,41
102.7499,102.85704,52,88,41
102.7499,102.85704,59,88,41
102.85704,103.07133,61,88,41
102.85704,103.07133,52,88,41
103.17847,103.285614,56,88,41
103.285614,103.49989,57,88,41
103.60704,103.71418,57,88,41
103.71418,103.92847,62,88,41
104.035614,104.14275,62,88,41
104.14275,104.35704,62,88,41
104.46418,104.57133,64,88,41
104.57133,104.78561,66,88,41
104.89275,104.99989,66,88,41
104.99989,105.21418,66,88,41
105.32132,105.42847,62,88,41
105.42847,105.64275,66,88,41
105.74989,105.85704,66,88,41
105.85704,106.07132,66,88,41
106.17847,106.28561,68,88,41
106.28561,106.49989,69,88,41
106.60703,106.71418,69,88,41
106.71418,106.92847,69,88,41
107.03561,107.14275,69,88,41
107.14275,107.35703,68,88,41
107.46418,107.57132,69,88,41
107.57132,107.78561,71,88,41
107.892746,107.99989,73,88,41
107.99989,108.21418,71,88,41
108.32132,108.42847,69,88,41
108.42847,108.642746,69,88,41
108.74989,108.85703,66,88,41
108.74989,108.85703,71,88,41
108.85703,109.07132,73,88,41
108.85703,109.07132,64,88,41
109.17846,109.28561,68,88,41
109.28561,109.49989,69,88,41
109.60703,109.71417,66,88,41
109.60703,109.71417,71,88,41
109.71417,109.92846,73,88,41
109.71417,109.92846,64,88,41
110.03561,110.142746,68,88,41
110.142746,110.35703,69,88,41
110.999886,111.10703,56,49,41
111.10703,111.21417,56,49,41
111.21417,111.32132,57,49,41
111.32132,111.42846,57,49,41
111.42846,111.53561,59,49,41
111.53561,111.642746,59,49,41
111.642746,111.749886,56,49,41
111.749886,111.85703,56,49,41
111.85703,111.96417,57,49,41
111.96417,112.07132,57,49,41
112.07132,112.17846,59,49,41
112.17846,112.2856,59,49,41
112.2856,112.392746,61,49,41
112.392746,112.499886,61,49,41
112.499886,112.60703,62,49,41
112.60703,112.71417,62,49,41
112.71417,112.82131,64,49,41
112.82131,112.92846,64,49,41
112.92846,113.0356,61,49,41
113.0356,113.142746,61,49,41
113.142746,113.249886,62,88,41
113.249886,113.35703,62,88,41
113.35703,113.46417,64,88,41
113.46417,113.57131,64,88,41
113.57131,113.7856,64,88,41
114.42846,114.5356,54,88,41
114.5356,114.642746,54,88,41
114.642746,114.749886,55,88,41
114.749886,114.857025,55,88,41
114.857025,114.96417,57,88,41
114.96417,115.07131,57,88,41
115.07131,115.17846,54,88,41
115.17846,115.2856,54,88,41
115.2856,115.39274,55,88,41
115.39274,115.499886,55,88,41
115.499886,115.607025,57,88,41
115.607025,115.71417,57,88,41
115.71417,115.82131,59,88,41
115.82131,115.92846,59,88,41
115.92846,116.0356,61,88,41
116.0356,116.14274,61,88,41
116.14274,116.249886,62,88,41
116.249886,116.357025,62,88,41
116.357025,116.46417,59,88,41
116.46417,116.57131,59,88,41
116.57131,116.67845,61,88,41
116.67845,116.7856,61,88,41
116.7856,116.89274,62,88,41
116.89274,116.999886,62,88,41
116.999886,117.214165,62,88,41
117.64274,117.857025,62,88,41
117.857025,118.2856,64,88,41
118.49988,118.714165,62,88,41
118.714165,119.14274,64,88,41
119.357025,119.57131,62,88,41
119.57131,119.78559,64,88,41
119.78559,119.99988,62,88,41
119.99988,120.214165,64,88,41
120.214165,120.42845,62,88,41
120.42845,120.64274,64,88,41
120.64274,120.857025,62,88,41
120.857025,121.28559,64,114,41
120.857025,121.28559,55,114,41
121.28559,121.39274,64,88,41
121.39274,121.49988,64,88,41
121.49988,121.60702,67,88,41
121.60702,121.714165,67,88,41
121.714165,121.821304,65,88,41
121.821304,121.92845,65,88,41
121.92845,122.03559,69,88,41
122.03559,122.14274,69,88,41
122.14274,122.24988,67,88,41
122.24988,122.35702,67,88,41
122.35702,122.464165,65,88,41
122.464165,122.571304,65,88,41
122.571304,122.67845,64,88,41
122.67845,122.78559,64,88,41
122.78559,122.89273,60,88,41
122.89273,122.99988,60,88,41
122.99988,123.10702,59,88,41
123.10702,123.214165,59,88,41
123.214165,123.321304,64,88,41
123.321304,123.42845,64,88,41
123.42845,123.53559,60,88,41
123.53559,123.64273,60,88,41
123.64273,123.74988,59,88,41
123.74988,123.85702,59,88,41
123.85702,124.071304,60,88,41
127.071304,127.28558,55,88,41
127.28558,127.71416,54,88,41
127.71416,127.928444,55,88,41
128.14273,128.5713,55,88,41
128.5713,128.99988,67,88,41
128.99988,129.21416,65,88,41
129.21416,129.42844,62,88,41
129.42844,129.85701,60,88,41
129.85701,130.0713,55,88,41
130.0713,130.28558,60,88,41
130.28558,130.71416,62,88,41
130.71416,130.92844,55,88,41
130.92844,131.14273,62,88,41
131.14273,131.5713,60,88,41
131.5713,131.78558,48,88,41
131.78558,131.99986,55,88,41
131.99986,132.42844,53,88,41
132.42844,132.64273,48,88,41
132.64273,132.85701,53,88,41
132.85701,133.28558,50,88,41
133.28558,136.28558,55,88,41
136.28558,137.78558,55,88,41
136.28558,137.78558,67,88,41
137.78558,137.87129,66,88,41
137.99986,138.42844,64,88,41
137.99986,138.42844,55,88,41
138.42844,138.64272,67,88,41
138.64272,138.85701,60,88,41
138.85701,139.28557,59,88,41
139.28557,139.49986,67,88,41
139.49986,139.71414,59,88,41
139.71414,140.57129,60,88,41
140.57129,142.28557,60,88,41
142.28557,143.14272,65,114,41
140.57129,143.14272,72,88,41
143.14272,143.357,66,49,41
164.57126,167.99983,50,88,41
164.57126,167.99983,57,88,41
167.99983,169.71411,50,88,41
167.99983,169.71411,57,88,41
169.71411,170.57126,56,88,41
170.57126,171.4284,57,88,41
171.4284,171.53554,49,88,41
171.53554,171.64268,50,88,41
171.64268,171.74983,49,88,41
171.74983,171.85696,52,88,41
171.85696,171.96411,57,88,41
171.96411,172.07126,61,88,41
172.07126,172.1784,64,88,41
172.1784,172.28554,67,88,41
172.28554,172.39268,66,88,41
172.39268,172.49983,67,88,41
172.49983,172.60696,66,88,41
172.60696,172.71411,64,88,41
172.71411,172.82126,66,88,41
172.82126,172.9284,69,88,41
172.9284,173.03554,66,88,41
173.03554,173.14268,62,88,41
173.14268,173.24983,61,88,41
173.24983,173.35696,62,88,41
173.35696,173.46411,61,88,41
173.46411,173.57126,59,88,41
173.57126,173.67839,61,88,41
173.67839,173.78554,64,88,41
173.78554,173.89268,61,88,41
173.89268,173.99983,57,88,41
173.99983,174.10696,54,88,41
174.10696,174.21411,55,88,41
174.21411,174.32126,54,88,41
174.32126,174.42839,52,88,41
174.42839,174.53554,54,88,41
174.53554,174.64268,57,88,41
174.64268,174.74983,62,88,41
174.74983,174.85696,66,88,41
174.85696,174.96411,55,88,41
174.96411,175.07126,57,88,41
175.07126,175.17839,55,88,41
175.17839,175.28554,54,88,41
175.28554,175.39268,55,88,41
175.39268,175.49982,57,88,41
175.49982,175.60696,61,88,41
175.60696,175.71411,64,88,41
175.71411,175.82126,57,88,41
175.82126,175.92839,59,88,41
175.92839,176.03554,57,88,41
176.03554,176.14268,56,88,41
176.14268,176.24982,57,88,41
176.24982,176.35696,61,88,41
176.35696,176.46411,64,88,41
176.46411,176.57126,67,88,41
176.57126,176.67839,66,88,41
176.67839,176.78554,67,88,41
176.78554,176.89268,66,88,41
176.89268,176.99982,64,88,41
176.99982,177.10696,66,88,41
177.10696,177.21411,62,88,41
177.21411,177.32126,57,88,41
177.32126,177.42839,54,88,41
177.42839,177.53554,64,88,41
177.53554,177.64268,66,88,41
177.64268,177.74982,64,88,41
177.74982,177.85696,63,88,41
177.85696,177.96411,64,88,41
177.96411,178.07124,62,88,41
178.07124,178.17839,56,88,41
178.17839,178.28554,52,88,41
178.28554,178.39268,49,88,41
178.39268,178.49982,50,88,41
178.49982,178.60696,49,88,41
178.60696,178.71411,52,88,41
178.71411,178.82124,57,88,41
178.82124,178.92839,61,88,41
178.92839,179.03554,64,88,41
179.03554,179.14268,69,88,41
179.14268,179.24982,73,88,41
179.24982,179.35696,74,88,41
179.35696,179.46411,73,88,41
179.46411,179.57124,71,88,41
179.57124,179.67839,73,88,41
179.67839,179.78554,69,88,41
179.78554,179.89267,64,88,41
179.89267,179.99982,61,88,41
179.99982,180.21411,60,88,41
181.71411,181.82124,59,88,41
181.82124,181.92839,60,88,41
181.92839,182.03554,59,88,41
182.03554,182.14267,58,88,41
182.14267,182.24982,59,88,41
182.24982,182.35696,64,88,41
182.35696,182.4641,67,88,41
182.4641,182.57124,71,88,41
182.57124,182.67839,57,88,41
182.67839,182.78554,59,88,41
182.78554,182.89267,57,88,41
182.89267,182.99982,56,88,41
182.99982,183.10696,57,88,41
183.10696,183.2141,69,88,41
183.2141,183.32124,68,88,41
183.32124,183.42839,69,88,41
183.42839,183.53554,59,88,41
183.53554,183.64267,61,88,41
183.64267,183.74982,59,88,41
183.74982,183.85696,58,88,41
183.85696,183.9641,59,88,41
183.9641,184.07124,68,88,41
184.07124,184.17839,67,88,41
184.17839,184.28552,68,88,41
184.28552,184.39267,61,88,41
184.39267,184.49982,62,88,41
184.49982,184.60696,61,88,41
184.60696,184.7141,59,88,41
184.7141,184.82124,61,88,41
184.82124,184.92839,67,88,41
184.92839,185.03552,66,88,41
185.03552,185.14267,67,88,41
185.14267,185.24982,63,88,41
185.24982,185.35696,64,88,41
185.35696,185.4641,63,88,41
185.4641,185.57124,64,88,41
185.57124,185.67839,60,88,41
185.67839,185.78552,61,88,41
185.78552,185.89267,60,88,41
185.89267,185.99982,61,88,41
185.99982,186.10696,57,88,41
186.10696,186.2141,59,88,41
186.2141,186.32124,57,88,41
186.32124,186.42839,59,88,41
186.42839,186.53552,56,88,41
186.53552,186.64267,57,88,41
186.64267,186.74982,56,88,41
186.74982,186.85695,57,88,41
186.85695,186.9641,55,88,41
186.9641,187.07124,57,88,41
187.07124,187.17839,55,88,41
187.17839,187.28552,57,88,41
187.28552,187.39267,52,88,41
187.39267,187.49982,57,88,41
187.49982,187.60695,52,88,41
187.60695,187.7141,57,88,41
187.7141,187.82124,66,88,41
187.82124,187.92839,67,88,41
187.92839,188.03552,66,88,41
188.03552,188.14267,64,88,41
188.14267,188.24982,66,88,41
188.24982,188.35695,69,88,41
188.35695,188.4641,66,88,41
188.4641,188.57124,62,88,41
188.57124,188.67838,61,88,41
188.67838,188.78552,62,88,41
188.78552,188.89267,61,88,41
188.89267,188.99982,59,88,41
188.99982,189.10695,61,88,41
189.10695,189.2141,64,88,41
189.2141,189.32124,61,88,41
189.32124,189.42838,57,88,41
189.42838,189.53552,54,88,41
189.53552,189.64267,55,88,41
189.64267,189.74982,54,88,41
189.74982,189.85695,52,88,41
189.85695,189.9641,54,88,41
189.9641,190.07124,57,88,41
190.07124,190.17838,62,88,41
190.17838,190.28552,66,88,41
190.28552,190.39267,55,88,41
190.39267,190.49982,57,88,41
190.49982,190.60695,55,88,41
190.60695,190.7141,54,88,41
190.7141,190.82124,55,88,41
190.82124,190.92838,57,88,41
190.92838,191.03552,64,88,41
191.03552,191.14267,67,88,41
191.14267,191.2498,57,88,41
191.2498,191.35695,59,88,41
191.35695,191.4641,57,88,41
191.4641,191.57124,56,88,41
191.57124,191.67838,57,88,41
191.67838,191.78552,60,88,41
191.78552,191.89267,62,88,41
191.89267,191.9998,66,88,41
191.9998,192.10695,59,88,41
192.10695,192.2141,62,88,41
192.2141,192.32124,66,88,41
192.32124,192.42838,67,88,41
192.42838,192.53552,62,88,41
192.53552,192.64267,66,88,41
192.64267,192.7498,67,88,41
192.7498,192.85695,71,88,41
192.85695,192.9641,67,88,41
192.9641,193.07123,69,88,41
193.07123,193.17838,67,88,41
193.17838,193.28552,69,88,41
193.28552,193.39267,66,88,41
193.39267,193.4998,69,88,41
193.4998,193.60695,66,88,41
193.60695,193.7141,69,88,41
193.7141,193.82123,61,88,41
193.82123,193.92838,69,88,41
193.92838,194.03552,61,88,41
194.03552,194.14267,69,88,41
194.14267,194.2498,62,88,41
194.2498,194.35695,69,88,41
194.35695,194.4641,62,88,41
194.4641,194.57123,69,88,41
194.57123,194.67838,64,88,41
194.67838,194.78552,69,88,41
194.78552,194.89267,64,88,41
194.89267,194.9998,69,88,41
194.9998,195.10695,62,88,41
195.10695,195.2141,69,88,41
195.2141,195.32123,62,88,41
195.32123,195.42838,69,88,41
195.42838,195.53552,64,88,41
195.53552,195.64265,69,88,41
195.64265,195.7498,64,88,41
195.7498,195.85695,69,88,41
195.85695,195.9641,66,88,41
195.9641,196.07123,69,88,41
196.07123,196.17838,66,88,41
196.17838,196.28552,69,88,41
196.28552,196.39265,64,88,41
196.39265,196.4998,69,88,41
196.4998,196.60695,64,88,41
196.60695,196.7141,69,88,41
196.7141,196.82123,66,88,41
196.82123,196.92838,69,88,41
196.92838,197.03552,66,88,41
197.03552,197.14265,69,88,41
197.14265,197.2498,76,88,41
197.2498,197.35695,69,88,41
197.35695,197.46408,76,88,41
197.46408,197.57123,69,88,41
197.57123,197.67838,74,88,41
197.67838,197.78552,69,88,41
197.78552,197.89265,74,88,41
197.89265,197.9998,69,88,41
197.9998,198.10695,73,88,41
198.10695,198.21408,67,88,41
198.21408,198.32123,73,88,41
198.32123,198.42838,67,88,41
198.42838,198.53552,71,88,41
198.53552,198.64265,68,88,41
198.64265,198.7498,71,88,41
198.7498,198.85695,68,88,41
198.85695,198.96408,69,88,41
198.96408,199.07123,66,88,41
199.07123,199.17838,69,88,41
199.17838,199.28552,66,88,41
199.28552,199.39265,67,88,41
199.39265,199.4998,64,88,41
199.4998,199.60695,67,88,41
199.60695,199.71408,64,88,41
199.71408,199.92838,61,88,41
199.92838,200.35695,76,88,41
200.35695,200.57123,74,88,41
200.57123,200.7855,73,88,41
200.7855,200.9998,70,88,41
200.9998,201.21408,69,88,41
201.21408,201.42838,67,88,41
201.42838,201.64265,69,88,41
201.64265,202.07123,73,88,41
202.07123,202.2855,70,88,41
202.2855,202.4998,69,88,41
202.4998,202.71408,67,88,41
202.71408,202.92838,65,88,41
202.92838,203.14265,64,88,41
203.14265,203.35693,62,49,41
203.35693,203.7855,66,49,41
203.35693,203.7855,62,49,41
203.7855,204.21408,62,49,41
203.7855,204.21408,66,49,41
204.21408,204.64265,66,49,41
204.21408,204.64265,62,49,41
204.64265,205.07123,64,49,41
205.07123,205.2855,62,49,41
205.2855,205.4998,67,49,41
205.4998,205.71408,65,49,41
205.71408,205.92836,64,49,41
205.92836,206.14265,62,49,41
206.14265,206.35693,61,49,41
206.35693,206.57123,57,49,41
206.57123,206.7855,50,75,41
206.89265,206.99979,50,75,41
206.99979,207.21408,50,75,41
207.32123,207.42836,52,75,41
207.42836,207.64265,53,75,41
207.74979,207.85693,53,75,41
207.85693,208.07123,53,75,41
208.17836,208.2855,53,75,41
208.2855,208.49979,53,75,41
208.60693,208.71408,53,75,41
208.71408,208.92836,53,75,41
209.0355,209.14265,50,75,41
209.14265,209.35693,57,75,41
209.14265,209.35693,53,75,41
209.46408,209.57121,57,75,41
209.57121,209.7855,57,75,41
209.89265,209.99979,65,75,41
209.99979,210.21408,64,75,41
210.32121,210.42836,65,75,41
210.42836,210.64264,67,75,41
210.74979,210.85693,69,75,41
210.85693,211.07121,66,88,41
211.17836,211.2855,67,88,41
211.2855,211.49979,69,88,41
211.60693,211.71408,70,88,41
211.71408,211.92836,68,88,41
212.0355,212.14264,69,88,41
212.14264,212.35693,71,88,41
212.46408,212.57121,73,88,41
212.57121,212.7855,71,88,41
212.89264,212.99979,69,88,41
212.99979,213.21407,61,88,41
213.32121,213.42836,62,88,41
213.42836,213.64264,64,88,41
213.74979,213.85693,59,88,41
213.85693,214.07121,61,88,41
214.17836,214.2855,62,88,41
214.2855,214.49979,64,88,41
214.60693,214.71407,59,88,41
214.71407,214.92836,61,88,41
215.03549,215.14264,57,88,41
215.14264,215.35693,62,88,41
215.46407,215.57121,62,88,41
215.57121,215.78549,62,88,41
215.89264,215.99979,64,88,41
215.99979,216.21407,66,88,41
216.32121,216.42836,66,88,41
216.42836,216.64264,66,88,41
216.74979,216.85693,62,88,41
216.85693,217.07121,66,88,41
217.17836,217.28549,66,88,41
217.28549,217.49979,66,88,41
217.60692,217.71407,68,88,41
217.71407,217.92836,69,88,41
218.03549,218.14264,69,88,41
218.14264,218.35692,69,88,41
218.46407,218.57121,69,88,41
218.57121,218.78549,68,88,41
218.89264,218.99979,69,88,41
218.99979,219.21407,71,88,41
219.32121,219.42834,73,88,41
219.42834,219.64264,71,88,41
219.74979,219.85692,69,88,41
219.85692,220.07121,69,88,41
220.17834,220.28549,71,88,41
220.28549,220.49979,73,88,41
220.60692,220.71407,67,88,41
220.71407,220.92834,69,88,41
221.03549,221.14264,71,88,41
221.14264,221.35692,69,88,41
221.46407,221.57121,68,88,41
221.57121,221.78549,69,88,41
221.89264,221.93504,62,88,41
221.99977,222.42834,64,114,41
222.42834,222.53549,56,88,41
222.53549,222.64264,64,88,41
222.64264,222.74977,57,88,41
222.74977,222.85692,64,88,41
222.85692,222.96407,59,88,41
222.96407,223.07121,64,88,41
223.07121,223.17834,56,88,41
223.17834,223.28549,64,88,41
223.28549,223.39264,57,88,41
223.39264,223.49977,64,88,41
223.49977,223.60692,59,88,41
223.60692,223.71407,64,88,41
223.71407,223.8212,61,88,41
223.8212,223.92834,64,88,41
223.92834,224.03549,62,88,41
224.03549,224.14264,64,88,41
224.14264,224.24977,64,88,41
224.24977,224.35692,64,88,41
224.35692,224.46407,61,88,41
224.46407,224.5712,64,88,41
224.5712,224.67834,62,88,41
224.67834,224.78549,64,88,41
224.78549,224.89264,64,88,41
224.89264,224.99977,64,88,41
224.99977,225.21407,64,88,41
225.21407,225.29977,62,88,41
225.42834,225.85692,64,114,41
225.85692,225.96407,54,88,41
225.96407,226.0712,62,88,41
226.0712,226.17834,55,88,41
226.17834,226.28549,62,88,41
226.28549,226.39262,57,88,41
226.39262,226.49977,62,88,41
226.49977,226.60692,54,88,41
226.60692,226.71407,62,88,41
226.71407,226.8212,55,88,41
226.8212,226.92834,62,88,41
226.92834,227.03549,57,88,41
227.03549,227.14262,62,88,41
227.14262,227.24977,59,88,41
227.24977,227.35692,62,88,41
227.35692,227.46407,61,88,41
227.46407,227.5712,62,88,41
227.5712,227.67834,62,88,41
227.67834,227.78549,62,88,41
227.78549,227.89262,59,88,41
227.89262,227.99977,62,88,41
227.99977,228.10692,61,49,41
228.10692,228.21405,62,49,41
228.21405,228.3212,62,49,41
228.3212,228.42834,62,49,41
228.42834,228.64262,62,49,41
228.64262,228.85692,61,49,41
228.85692,228.99933,62,49,41
228.99933,229.14262,61,49,41
229.14262,229.28549,62,49,41
229.28549,229.4279,61,49,41
229.4279,229.5712,62,49,41
229.5712,229.71405,64,49,41
229.71405,230.35692,66,49,41
230.35692,230.5712,62,49,41
230.5712,230.71361,66,49,41
230.71361,230.85692,65,49,41
230.85692,230.99977,66,49,41
230.99977,231.14218,65,49,41
231.14218,231.28548,66,49,41
231.28548,231.42834,68,49,41
231.42834,232.0712,69,88,41
232.0712,232.28548,62,88,41
232.0712,232.28548,74,88,41
232.28548,232.49977,71,88,41
232.6069,232.71405,69,88,41
232.71405,232.92834,67,88,41
233.03548,233.14262,71,88,41
233.14262,233.3569,69,88,41
233.46405,233.5712,68,88,41
233.5712,233.78548,69,88,41
233.89262,233.99977,66,88,41
233.99977,234.21405,71,88,41
234.3212,234.42833,67,88,41
234.42833,234.64262,64,88,41
234.74977,234.8569,66,88,41
234.8569,235.0712,71,88,41
235.17833,235.28548,67,88,41
235.28548,235.49977,64,88,41
235.6069,235.71405,66,88,41
235.71405,236.46405,74,101,41
235.71405,236.46405,66,101,41
236.46405,236.5712,66,101,41
236.46405,236.5712,74,101,41
236.5712,237.3212,74,101,41
236.5712,237.3212,66,101,41
237.3212,237.42833,66,101,41
237.3212,237.42833,74,101,41
237.42833,238.17833,74,101,41
237.42833,238.17833,67,101,41
238.17833,238.28548,67,101,41
238.17833,238.28548,74,101,41
238.28548,239.03548,74,101,41
238.28548,239.03548,66,101,41
239.03548,239.14262,66,101,41
239.03548,239.14262,74,101,41
239.14262,239.24976,74,101,41
239.24976,239.3569,73,101,41
239.3569,239.46405,71,101,41
239.46405,239.57118,73,101,41
239.57118,239.67833,74,101,41
239.67833,239.78548,76,101,41
239.78548,239.89262,78,101,41
239.89262,239.99976,76,101,41
239.99976,240.1069,74,101,41
240.1069,240.21405,73,101,41
240.21405,240.32118,71,101,41
240.32118,240.42833,69,101,41
240.42833,240.53548,80,101,41
240.53548,240.64262,78,101,41
240.64262,240.74976,76,101,41
240.74976,240.8569,74,101,41
240.8569,240.96405,73,101,41
240.96405,241.07118,74,101,41
241.07118,241.17833,76,101,41
241.17833,241.28548,78,101,41
241.28548,241.39261,79,101,41
241.39261,241.49976,81,101,41
241.49976,241.6069,83,101,41
241.6069,241.71405,81,101,41
241.71405,242.57118,71,101,41
241.71405,242.57118,79,101,41
242.57118,243.32118,66,101,41
242.57118,243.32118,62,101,41
243.32118,243.42833,62,101,41
243.32118,243.42833,66,101,41
243.42833,244.17833,66,101,41
243.42833,244.17833,62,101,41
244.17833,244.28548,62,101,41
244.17833,244.28548,66,101,41
244.28548,245.03548,64,101,41
244.28548,245.03548,55,101,41
245.03548,245.14261,55,101,41
245.03548,245.14261,64,101,41
245.14261,245.89261,64,101,41
245.14261,245.89261,55,101,41
245.89261,245.99976,55,101,41
245.89261,245.99976,64,101,41
245.99976,246.74976,69,101,41
245.99976,246.74976,66,101,41
246.74976,246.8569,66,101,41
246.74976,246.8569,69,101,41
246.8569,247.60689,71,101,41
246.8569,247.60689,67,101,41
247.60689,247.71404,67,101,41
247.60689,247.71404,71,101,41
247.71404,248.46404,71,101,41
247.71404,248.46404,68,101,41
248.46404,248.57118,68,101,41
248.46404,248.57118,71,101,41
248.57118,249.32118,74,101,41
248.57118,249.32118,68,101,41
249.32118,249.34216,68,101,41
249.32118,249.36359,74,101,41
249.42833,249.85689,74,127,41
249.42833,249.85689,66,127,41
249.85689,249.96404,76,101,41
249.96404,250.07118,76,101,41
250.07118,250.17831,74,101,41
250.17831,250.28546,74,101,41
250.28546,250.39261,69,101,41
250.39261,250.49976,69,101,41
250.49976,250.60689,76,101,41
250.60689,250.71404,76,101,41
250.71404,250.82118,74,101,41
250.82118,250.92831,74,101,41
250.92831,251.03546,69,101,41
251.03546,251.14261,69,101,41
251.14261,251.24976,74,101,41
251.24976,251.35689,74,101,41
251.35689,251.46404,69,101,41
251.46404,251.57118,69,101,41
251.57118,251.65689,66,101,41
251.78546,251.87117,74,101,41
251.99974,252.42831,74,127,41
251.99974,252.42831,66,127,41
252.42831,252.53546,76,101,41
252.53546,252.64261,76,101,41
252.64261,252.74974,74,101,41
252.74974,252.85689,74,101,41
252.85689,252.96404,69,101,41
252.96404,253.07118,69,101,41
253.07118,253.17831,76,101,41
253.17831,253.28546,76,101,41
253.28546,253.39261,74,101,41
253.39261,253.49974,74,101,41
253.49974,253.60689,69,101,41
253.60689,253.71404,69,101,41
253.71404,253.82118,74,101,41
253.82118,253.92831,74,101,41
253.92831,254.03546,69,101,41
254.03546,254.14261,69,101,41
254.14261,254.35689,66,101,41
254.35689,254.57117,62,101,41
254.57117,254.99974,71,127,41
254.57117,254.99974,62,127,41
254.99974,255.08546,73,101,41
255.21404,255.29974,71,101,41
255.42831,255.51402,69,101,41
255.64261,255.72832,72,101,41
255.85689,255.9426,71,101,41
256.07117,256.1569,69,101,41
256.28546,256.49976,67,101,41
256.49976,256.71402,64,101,41
256.71402,256.9283,69,101,41
257.99976,258.4283,67,101,41
258.4283,258.6426,66,101,41
258.6426,258.85687,64,101,41
258.85687,259.07117,63,101,41
259.07117,259.28546,66,101,41
259.28546,259.49973,64,101,41
259.49973,259.71402,62,101,41
259.71402,259.9283,60,101,41
259.9283,260.1426,57,101,41
260.1426,260.35687,62,101,41
261.85687,262.07117,55,101,41
262.07117,262.28546,60,101,41
262.28546,262.49973,55,101,41
262.49973,262.71402,59,101,41
262.71402,262.9283,55,101,41
262.9283,263.1426,57,101,41
263.1426,263.35687,55,101,41
263.35687,263.57117,55,101,41
263.57117,263.78546,55,101,41
265.28546,265.37115,55,101,41
265.49973,265.58545,60,101,41
265.71402,265.79974,55,101,41
265.9283,266.014,59,101,41
266.14258,266.2283,55,101,41
266.35687,266.4426,57,101,41
266.57117,266.6569,55,101,41
266.78546,266.87115,55,101,41
266.99973,267.08545,55,101,41
268.71402,268.9283,67,101,41
269.14258,269.35687,67,101,41
269.57117,269.78543,67,101,41
269.99973,270.21402,67,101,41
270.64258,270.7283,72,101,41
271.07117,271.15686,71,101,41
271.49973,271.58545,72,101,41
271.9283,272.014,71,101,41
272.14258,272.185,62,101,41
272.14258,272.2283,66,101,41
272.57117,272.65686,67,101,41
272.99973,273.04214,62,101,41
272.99973,273.08545,66,101,41
273.42828,275.14258,55,36,41
273.42828,275.14258,67,36,41
275.35687,276.85687,62,36,41
275.35687,276.85687,64,36,41
277.07114,278.57114,66,36,41
277.07114,279.42828,62,36,41
278.57114,279.42828,67,36,41
279.42828,280.28543,62,36,41
279.42828,280.28543,69,36,41
280.28543,281.99973,62,36,41
280.28543,281.99973,69,36,41
281.99973,282.85687,57,36,41
281.99973,282.85687,62,36,41
282.85687,283.714,55,36,41
282.85687,283.714,64,36,41
290.14258,290.57114,57,36,41
290.57114,291.85684,60,36,41
291.85684,292.28543,59,36,41
292.28543,293.57114,62,36,41
293.57114,293.9997,61,36,41
293.9997,295.28543,67,36,41
295.28543,295.714,66,36,41
295.714,296.9997,72,36,41
296.9997,297.42828,71,36,41
297.42828,298.714,74,36,41
298.714,299.14255,73,36,41
299.14255,300.42828,64,101,41
299.14255,300.42828,73,101,41
300.42828,300.85684,57,101,41
300.42828,300.85684,64,101,41
300.85684,301.714,57,101,41
300.85684,301.714,67,101,41
301.714,302.14255,67,101,41
301.714,302.14255,57,101,41
302.14255,302.57114,57,101,41
302.14255,302.57114,64,101,41
302.57114,303.42825,57,101,41
302.57114,303.42825,67,101,41
303.42825,303.85684,67,101,41
303.42825,303.85684,57,101,41
303.85684,304.2854,57,101,41
303.85684,304.2854,64,101,41
304.2854,304.714,67,101,41
304.2854,304.714,57,101,41
304.714,305.14255,57,101,41
304.714,305.14255,64,101,41
305.14255,305.57114,67,101,41
305.14255,305.57114,57,101,41
305.57114,305.9997,57,101,41
305.57114,305.9997,64,101,41
305.9997,306.214,66,101,41
305.9997,306.214,57,101,41
306.42825,306.5354,64,101,41
306.5354,306.64255,69,101,41
306.64255,306.7497,64,101,41
306.7497,306.85684,57,101,41
306.85684,306.964,66,101,41
306.964,307.07114,69,101,41
307.07114,307.17825,66,101,41
307.17825,307.2854,57,101,41
307.2854,307.39255,64,101,41
307.39255,307.4997,69,101,41
307.4997,307.60684,64,101,41
307.60684,307.714,57,101,41
307.714,307.8211,66,101,41
307.8211,307.92825,69,101,41
307.92825,308.0354,66,101,41
308.0354,308.14255,57,101,41
308.14255,308.2497,64,101,41
308.2497,308.35684,69,101,41
308.35684,308.464,64,101,41
308.464,308.5711,57,101,41
308.5711,308.67825,66,101,41
308.67825,308.7854,69,101,41
308.7854,308.89255,66,101,41
308.89255,308.9997,57,101,41
308.9997,309.10684,64,101,41
309.10684,309.214,69,101,41
309.214,309.3211,64,101,41
309.3211,309.42825,57,101,41
309.42825,309.5354,66,101,41
309.5354,309.64255,69,101,41
309.64255,309.7497,66,101,41
309.7497,309.85684,57,101,41
309.85684,309.964,64,101,41
309.964,310.0711,73,101,41
310.0711,310.17825,64,101,41
310.17825,310.2854,57,101,41
310.2854,310.39255,66,101,41
310.39255,310.4997,74,101,41
310.4997,310.60684,66,101,41
310.60684,310.714,57,101,41
310.714,310.8211,64,101,41
310.8211,310.92825,73,101,41
310.92825,311.0354,64,101,41
311.0354,311.14255,57,101,41
311.14255,311.35684,74,101,41
311.14255,311.35684,66,101,41
311.7854,311.9997,57,101,41
311.7854,311.9997,64,101,41
311.7854,311.9997,69,101,41
311.9997,312.21396,69,101,41
311.9997,312.21396,66,101,41
311.9997,312.21396,62,101,41
312.64255,312.85684,57,101,41
312.64255,312.85684,64,101,41
312.64255,312.85684,69,101,41
312.85684,313.0711,69,101,41
312.85684,313.0711,66,101,41
312.85684,313.0711,62,101,41
313.71396,313.92825,69,101,41
313.71396,313.92825,64,101,41
313.71396,313.92825,57,101,41
314.5711,315.42825,62,101,41
314.5711,315.42825,66,101,41
314.5711,315.42825,69,101,41
124.49988,124.714165,55,88,45
124.49988,124.714165,48,88,45
124.928444,125.14273,48,88,45
124.928444,125.14273,55,88,45
125.35702,125.571304,55,88,45
125.35702,125.571304,48,88,45
125.78559,125.99987,48,88,45
125.78559,125.99987,55,88,45
126.21416,126.428444,55,88,45
126.21416,126.428444,48,88,45
126.64273,126.85702,48,88,45
126.64273,126.85702,55,88,45
146.14272,146.357,75,49,45
146.357,146.57129,72,49,45
146.57129,146.78557,69,49,45
146.78557,146.99985,75,49,45
146.99985,147.21414,72,49,45
147.21414,147.42842,69,49,45
147.42842,147.64272,66,49,45
147.64272,147.857,72,49,45
147.857,148.07127,69,49,45
148.07127,148.28557,66,49,45
148.28557,148.49985,63,49,45
148.49985,148.71414,60,49,45
148.71414,148.92842,57,49,45
148.92842,149.14272,54,49,45
149.14272,149.357,53,49,45
149.357,149.57127,53,49,45
149.78557,149.99985,53,49,45
150.21414,150.42842,53,49,45
150.6427,150.857,53,49,45
151.07127,151.28557,53,49,45
151.49985,151.71413,50,49,45
152.1427,152.357,79,49,45
152.357,152.57127,76,49,45
152.57127,152.78557,73,49,45
152.78557,152.99985,79,49,45
152.99985,153.21413,76,49,45
153.21413,153.42842,73,49,45
153.42842,153.6427,70,49,45
153.6427,153.857,76,49,45
153.857,154.07127,73,49,45
154.07127,154.28555,70,49,45
154.28555,154.49985,67,49,45
154.49985,154.71413,64,49,45
154.71413,154.92842,61,49,45
154.92842,155.1427,58,49,45
155.1427,155.357,57,49,45
155.357,155.57127,50,49,45
155.78555,155.99985,50,49,45
156.21413,156.42842,52,49,45
156.6427,156.85698,52,49,45
157.07127,157.28555,50,49,45
157.49985,157.71413,50,49,45
157.92842,158.1427,52,49,45
158.35698,158.57127,52,49,45
158.78555,158.99985,50,49,45
159.21413,159.4284,50,49,45
159.6427,159.85698,52,49,45
160.07127,160.28555,50,49,45
160.49983,160.71413,52,49,45
160.9284,161.1427,50,49,45
161.35698,161.57127,52,49,45
161.78555,161.99983,52,49,45
162.21413,162.4284,52,49,45
162.6427,162.85698,52,49,45
162.85698,163.07126,64,88,45
162.85698,163.07126,57,88,45
162.85698,163.07126,52,88,45
3.3214252,3.428568,45,88,42
3.428568,3.6428535,54,88,42
3.7499962,3.857139,54,88,42
3.857139,4.0714245,54,88,42
4.1785674,4.28571,55,88,42
4.28571,4.4999957,57,88,42
4.28571,4.4999957,50,88,42
4.607138,4.714281,62,88,42
4.714281,4.9285665,57,88,42
5.0357094,5.142852,62,88,42
5.142852,5.3571377,57,88,42
5.142852,5.3571377,50,88,42
5.46428,5.571423,57,88,42
5.571423,5.7857084,57,88,42
5.8928514,5.999994,59,88,42
5.999994,6.2142797,61,88,42
6.321422,6.428565,66,88,42
6.428565,6.6428504,61,88,42
6.7499933,6.857136,66,88,42
6.857136,7.0714216,65,88,42
7.178564,7.285707,66,88,42
7.285707,7.4999924,68,88,42
7.6071353,7.714278,69,88,42
7.714278,7.9285636,68,88,42
8.0357065,8.142849,66,88,42
8.142849,8.357135,61,88,42
8.464277,8.57142,62,88,42
8.57142,8.785706,64,88,42
8.892848,8.999991,59,88,42
8.999991,9.214276,61,88,42
9.32142,9.428562,62,88,42
9.428562,9.642847,64,88,42
9.74999,9.857133,59,88,42
9.857133,10.071419,61,88,42
10.178561,10.285704,45,88,42
10.285704,10.4999895,50,88,42
10.607132,10.714275,57,88,42
10.714275,10.92856,62,88,42
11.035704,11.142846,45,88,42
11.142846,11.357132,50,88,42
11.464274,11.571417,57,88,42
11.571417,11.785703,62,88,42
11.892845,11.999988,45,88,42
11.999988,12.214273,50,88,42
12.321416,12.428559,57,88,42
12.428559,12.642844,62,88,42
12.749988,12.85713,47,88,42
12.85713,13.071416,54,88,42
13.178558,13.285701,49,88,42
13.285701,13.499987,54,88,42
13.607129,13.714272,49,88,42
13.714272,13.928557,61,88,42
14.0357,14.142843,54,88,42
14.142843,14.357128,61,88,42
14.464272,14.571414,54,88,42
14.571414,14.7857,61,88,42
14.892842,14.999985,54,88,42
14.999985,15.214271,66,88,42
15.321413,15.428556,52,88,42
15.428556,15.857127,64,88,42
15.857127,16.071413,57,88,42
16.178555,16.285698,52,88,42
16.285698,16.71427,64,88,42
16.71427,16.928555,57,88,42
17.035698,17.14284,62,88,42
17.14284,17.571411,64,88,42
131.14273,131.5713,55,88,42
131.5713,131.78558,48,88,42
131.78558,131.99986,55,88,42
131.99986,132.42844,53,88,42
132.42844,132.64273,48,88,42
132.64273,132.85701,53,88,42
132.85701,133.28558,50,88,42
133.28558,133.49986,43,88,42
133.49986,133.71416,50,88,42
133.71416,134.14272,48,88,42
134.14272,134.35701,43,88,42
134.35701,134.57129,48,88,42
134.57129,134.99986,50,88,42
134.99986,135.21416,43,88,42
135.21416,135.42844,50,88,42
135.42844,135.85701,52,88,42
135.85701,136.07129,43,88,42
136.07129,136.28558,54,88,42
136.28558,136.49986,55,88,42
136.71414,137.14272,43,88,42
137.14272,137.57129,45,88,42
137.57129,137.99986,47,88,42
137.99986,138.08557,48,88,42
138.21414,138.29987,50,88,42
138.42844,138.85701,52,88,42
138.85701,138.94272,53,88,42
139.07129,139.157,52,88,42
139.28557,139.71414,50,88,42
139.71414,139.79987,48,88,42
139.92844,140.01414,47,88,42
140.14272,140.57129,46,88,42
140.57129,140.657,45,88,42
140.78557,140.87129,43,88,42
140.99986,142.28557,41,88,42
142.28557,143.14272,53,114,42
143.14272,143.357,46,49,42
164.57126,167.99983,38,88,42
164.57126,167.99983,45,88,42
167.99983,169.71411,38,88,42
167.99983,169.71411,45,88,42
169.71411,170.57126,47,88,42
170.57126,171.85696,45,88,42
172.28554,175.71411,38,88,42
172.28554,175.71411,45,88,42
175.71411,177.42839,38,88,42
175.71411,177.42839,45,88,42
177.42839,178.28554,47,88,42
178.28554,179.14268,45,88,42
179.99982,180.10696,60,88,42
180.10696,180.21411,62,88,42
180.21411,180.32124,60,88,42
180.32124,180.42839,59,88,42
180.42839,180.53554,60,88,42
180.53554,180.64267,57,88,42
180.64267,180.74982,52,88,42
180.74982,180.85696,48,88,42
180.85696,180.96411,47,88,42
180.96411,181.07124,48,88,42
181.07124,181.17839,47,88,42
181.17839,181.28554,46,88,42
181.28554,181.39267,47,88,42
181.39267,181.49982,52,88,42
181.49982,181.60696,55,88,42
181.60696,181.71411,59,88,42
181.71411,182.57124,43,88,42
182.57124,184.7141,45,88,42
187.7141,191.14267,38,88,42
187.7141,191.14267,45,88,42
191.14267,191.9998,38,88,42
191.9998,192.85695,43,88,42
192.85695,194.57123,45,88,42
194.57123,194.67838,55,88,42
194.67838,194.78552,57,88,42
194.78552,194.89267,55,88,42
194.89267,194.9998,57,88,42
194.9998,195.10695,54,88,42
195.10695,195.2141,57,88,42
195.2141,195.32123,54,88,42
195.32123,195.42838,57,88,42
195.42838,195.53552,49,88,42
195.53552,195.64265,57,88,42
195.64265,195.7498,49,88,42
195.7498,195.85695,57,88,42
195.85695,195.9641,50,88,42
195.9641,196.07123,57,88,42
196.07123,196.17838,50,88,42
196.17838,196.28552,57,88,42
196.28552,196.39265,55,88,42
196.39265,196.4998,57,88,42
196.4998,196.60695,55,88,42
196.60695,196.7141,57,88,42
196.7141,196.82123,54,88,42
196.82123,196.92838,57,88,42
196.92838,197.03552,54,88,42
197.03552,197.14265,57,88,42
197.14265,197.2498,49,88,42
197.2498,197.35695,57,88,42
197.35695,197.46408,49,88,42
197.46408,197.57123,57,88,42
197.57123,197.67838,50,88,42
197.67838,197.78552,57,88,42
197.78552,197.89265,50,88,42
197.89265,197.9998,57,88,42
197.9998,198.10695,52,88,42
198.10695,198.21408,55,88,42
198.21408,198.32123,50,88,42
198.32123,198.42838,55,88,42
198.42838,198.53552,53,88,42
198.53552,198.64265,56,88,42
198.64265,198.7498,53,88,42
198.7498,198.85695,56,88,42
198.85695,198.96408,54,88,42
198.96408,199.07123,57,88,42
199.07123,199.17838,54,88,42
199.17838,199.28552,57,88,42
199.28552,199.39265,55,88,42
199.39265,199.4998,59,88,42
199.4998,199.60695,55,88,42
199.60695,199.71408,59,88,42
199.71408,199.92838,61,88,42
200.7855,201.21408,67,88,42
201.21408,201.42838,65,88,42
201.42838,201.64265,64,88,42
202.4998,202.92838,64,88,42
202.92838,203.14265,61,88,42
203.14265,203.35693,62,49,42
203.57123,203.9998,58,49,42
203.9998,204.42836,57,49,42
204.42836,204.85693,56,49,42
204.85693,205.07123,55,49,42
205.07123,205.2855,53,49,42
205.2855,205.4998,52,49,42
205.4998,205.71408,50,49,42
205.71408,205.92836,49,49,42
205.92836,206.14265,47,49,42
206.14265,206.35693,45,49,42
206.35693,206.57123,45,49,42
206.57123,206.7855,53,75,42
206.89265,206.99979,53,75,42
206.99979,207.21408,53,75,42
207.32123,207.42836,55,75,42
207.42836,207.64265,57,75,42
207.74979,207.85693,62,75,42
207.85693,208.07123,57,75,42
208.17836,208.2855,62,75,42
208.2855,208.49979,57,75,42
208.60693,208.71408,57,75,42
208.71408,208.92836,57,75,42
209.0355,209.14265,58,75,42
209.14265,209.35693,60,75,42
209.46408,209.57121,65,75,42
209.57121,209.7855,60,75,42
209.89265,209.99979,57,75,42
209.99979,210.21408,55,75,42
210.32121,210.42836,57,75,42
210.42836,210.64264,58,75,42
210.74979,210.85693,60,75,42
210.85693,211.07121,57,88,42
211.17836,211.2855,58,88,42
211.2855,211.49979,60,88,42
211.60693,211.71408,62,88,42
211.71408,211.92836,59,88,42
212.0355,212.14264,61,88,42
212.14264,212.35693,62,88,42
212.46408,212.57121,64,88,42
212.57121,212.7855,62,88,42
212.89264,212.99979,61,88,42
212.99979,213.21407,57,88,42
213.32121,213.42836,59,88,42
213.42836,213.64264,61,88,42
213.74979,213.85693,56,88,42
213.85693,214.07121,57,88,42
214.17836,214.2855,59,88,42
214.2855,214.49979,61,88,42
214.60693,214.71407,56,88,42
214.71407,214.92836,57,88,42
215.03549,215.14264,45,88,42
215.14264,215.35693,50,88,42
215.46407,215.57121,57,88,42
215.57121,215.78549,62,88,42
215.89264,215.99979,45,88,42
215.99979,216.21407,50,88,42
216.32121,216.42836,57,88,42
216.42836,216.64264,62,88,42
216.74979,216.85693,45,88,42
216.85693,217.07121,50,88,42
217.17836,217.28549,57,88,42
217.28549,217.49979,62,88,42
217.60692,217.71407,47,88,42
217.71407,217.92836,54,88,42
218.03549,218.14264,49,88,42
218.14264,218.35692,54,88,42
218.46407,218.57121,49,88,42
218.57121,218.78549,61,88,42
218.89264,218.99979,54,88,42
218.99979,219.21407,61,88,42
219.32121,219.42834,54,88,42
219.42834,219.64264,61,88,42
219.42834,219.64264,54,88,42
219.74979,219.85692,54,88,42
219.85692,220.07121,66,88,42
220.17834,220.28549,52,88,42
220.28549,220.71407,64,88,42
220.71407,220.92834,57,88,42
221.03549,221.14264,52,88,42
221.14264,221.57121,64,88,42
221.57121,221.78549,57,88,42
221.89264,221.93504,62,88,42
221.99977,222.42834,64,114,42
222.42834,222.53549,52,88,42
222.53549,222.64264,52,88,42
222.64264,222.74977,54,88,42
222.74977,222.85692,54,88,42
222.85692,222.96407,56,88,42
222.96407,223.07121,56,88,42
223.07121,223.17834,52,88,42
223.17834,223.28549,52,88,42
223.28549,223.39264,54,88,42
223.39264,223.49977,54,88,42
223.49977,223.60692,56,88,42
223.60692,223.71407,56,88,42
223.71407,223.8212,57,88,42
223.8212,223.92834,57,88,42
223.92834,224.03549,59,88,42
224.03549,224.14264,59,88,42
224.14264,224.24977,61,88,42
224.24977,224.35692,61,88,42
224.35692,224.46407,57,88,42
224.46407,224.5712,57,88,42
224.5712,224.67834,59,88,42
224.67834,224.78549,59,88,42
224.78549,224.89264,61,88,42
224.89264,224.99977,61,88,42
224.99977,225.21407,61,88,42
225.21407,225.29977,62,88,42
225.42834,225.85692,64,114,42
225.85692,225.96407,50,88,42
225.96407,226.0712,50,88,42
226.0712,226.17834,52,88,42
226.17834,226.28549,52,88,42
226.28549,226.39262,54,88,42
226.39262,226.49977,54,88,42
226.49977,226.60692,50,88,42
226.60692,226.71407,50,88,42
226.71407,226.8212,52,88,42
226.8212,226.92834,52,88,42
226.92834,227.03549,54,88,42
227.03549,227.14262,54,88,42
227.14262,227.24977,55,88,42
227.24977,227.35692,55,88,42
227.35692,227.46407,57,88,42
227.46407,227.5712,57,88,42
227.5712,227.67834,59,88,42
227.67834,227.78549,59,88,42
227.78549,227.89262,55,88,42
227.89262,227.99977,55,88,42
227.99977,228.10692,57,49,42
228.10692,228.21405,57,49,42
228.21405,228.3212,59,49,42
228.3212,228.42834,59,49,42
228.42834,228.64262,59,49,42
232.0712,232.28548,43,88,42
232.28548,232.49977,55,88,42
232.6069,232.71405,54,88,42
232.71405,232.92834,52,88,42
233.03548,233.14262,50,88,42
233.14262,233.3569,49,88,42
233.46405,233.5712,47,88,42
233.5712,233.78548,45,88,42
233.89262,233.99977,50,88,42
233.99977,234.21405,43,88,42
234.3212,234.42833,40,88,42
234.42833,234.64262,45,88,42
234.74977,234.8569,50,88,42
234.8569,235.0712,43,88,42
235.17833,235.28548,40,88,42
235.28548,235.49977,45,88,42
235.6069,235.71405,50,88,42
235.71405,235.92833,62,101,42
236.03548,236.14262,57,101,42
236.14262,236.3569,59,101,42
236.46405,236.5712,60,101,42
236.5712,236.78548,62,101,42
236.89262,236.99976,57,101,42
236.99976,237.21405,59,101,42
237.3212,237.42833,60,101,42
237.42833,237.64262,59,101,42
237.74976,237.8569,55,101,42
237.8569,238.0712,57,101,42
238.17833,238.28548,59,101,42
238.28548,238.49976,57,101,42
238.6069,238.71405,54,101,42
238.71405,238.92833,55,101,42
239.03548,239.14262,57,101,42
239.14262,239.3569,56,101,42
239.46405,239.57118,56,101,42
239.57118,239.78548,59,101,42
239.89262,239.99976,64,101,42
239.99976,241.07118,64,101,42
241.17833,241.28548,57,101,42
241.28548,241.49976,64,101,42
241.6069,241.71405,69,101,42
241.71405,242.57118,69,101,42
242.57118,243.32118,50,101,42
243.32118,243.42833,50,101,42
243.42833,244.17833,50,101,42
244.17833,244.28548,50,101,42
244.28548,245.03548,48,101,42
245.03548,245.14261,48,101,42
245.14261,245.89261,48,101,42
245.89261,245.99976,48,101,42
245.99976,246.74976,45,101,42
246.74976,246.8569,45,101,42
246.8569,247.60689,43,101,42
247.60689,247.71404,43,101,42
247.71404,248.46404,41,101,42
248.46404,248.57118,41,101,42
248.57118,249.32118,40,101,42
249.32118,249.36359,40,101,42
249.42833,249.85689,45,127,42
251.78546,251.87117,50,101,42
251.99974,252.42831,45,127,42
254.35689,254.57117,50,101,42
254.57117,254.99974,43,127,42
254.99974,255.42831,67,101,42
255.42831,255.51402,66,101,42
255.64261,255.72832,64,101,42
255.85689,255.9426,63,101,42
256.07117,256.1569,66,101,42
256.28546,256.49976,64,101,42
256.49976,256.71402,62,101,42
256.71402,256.9283,61,101,42
256.9283,257.1426,57,101,42
257.1426,257.35687,62,101,42
258.4283,258.85687,60,101,42
258.85687,259.07117,59,101,42
259.07117,259.28546,57,101,42
259.28546,259.49973,55,101,42
259.49973,259.71402,59,101,42
259.71402,259.9283,57,101,42
259.9283,260.1426,55,101,42
260.1426,260.35687,54,101,42
260.35687,260.57117,50,101,42
260.57117,260.78546,55,101,42
261.85687,262.28546,52,101,42
262.28546,262.71402,50,101,42
262.71402,263.1426,48,101,42
263.1426,263.57117,47,101,42
263.57117,263.99973,48,101,42
263.99973,264.4283,47,101,42
264.4283,264.85687,45,101,42
264.85687,265.28546,43,101,42
265.28546,265.71402,52,101,42
265.71402,266.14258,50,101,42
266.14258,266.57117,48,101,42
266.57117,266.99973,47,101,42
266.99973,267.4283,48,101,42
267.4283,267.85687,47,101,42
267.85687,268.28543,45,101,42
268.28543,268.71402,43,101,42
268.71402,269.14258,48,101,42
269.14258,269.57117,47,101,42
269.57117,269.99973,45,101,42
269.99973,273.42828,43,101,42
273.42828,275.14258,55,36,42
275.14258,276.85687,43,36,42
276.85687,280.28543,45,36,42
280.28543,283.714,45,36,42
283.714,284.14258,50,36,42
284.14258,284.24973,66,49,42
284.24973,284.35687,67,49,42
284.35687,284.464,66,49,42
284.464,284.57114,64,49,42
284.57114,284.67828,66,49,42
284.67828,284.78543,69,49,42
284.78543,284.89258,66,49,42
284.89258,284.99973,62,49,42
285.85684,285.964,61,49,42
285.964,286.07114,62,49,42
286.07114,286.17828,61,49,42
286.17828,286.28543,59,49,42
286.28543,286.39258,61,49,42
286.39258,286.49973,64,49,42
286.49973,286.60684,61,49,42
286.60684,286.714,57,49,42
287.57114,287.67828,54,49,42
287.67828,287.78543,55,49,42
287.78543,287.89258,54,49,42
287.89258,287.99973,52,49,42
287.99973,288.10684,54,49,42
288.10684,288.214,57,49,42
288.214,288.32114,54,49,42
288.32114,288.42828,50,49,42
289.28543,289.39258,49,49,42
289.39258,289.49973,50,49,42
289.49973,289.60684,49,49,42
289.60684,289.714,47,49,42
289.714,289.82114,49,49,42
289.82114,289.92828,52,49,42
289.92828,290.03543,49,49,42
290.03543,290.14258,45,49,42
290.9997,291.10684,54,49,42
291.10684,291.214,55,49,42
291.214,291.32114,54,49,42
291.32114,291.42828,52,49,42
291.42828,291.53543,54,49,42
291.53543,291.64258,57,49,42
291.64258,291.7497,54,49,42
291.7497,291.85684,50,49,42
292.714,292.82114,55,49,42
292.82114,292.92828,57,49,42
292.92828,293.03543,55,49,42
293.03543,293.14258,54,49,42
293.14258,293.2497,55,49,42
293.2497,293.35684,59,49,42
293.35684,293.464,55,49,42
293.464,293.57114,50,49,42
294.42828,294.53543,57,49,42
294.53543,294.64255,59,49,42
294.64255,294.7497,57,49,42
294.7497,294.85684,56,49,42
294.85684,294.964,57,49,42
294.964,295.07114,64,49,42
295.07114,295.17828,57,49,42
295.17828,295.28543,50,49,42
296.14255,296.2497,66,49,42
296.2497,296.35684,67,49,42
296.35684,296.464,66,49,42
296.464,296.57114,64,49,42
296.57114,296.67828,66,49,42
296.67828,296.78543,69,49,42
296.78543,296.89255,66,49,42
296.89255,296.9997,62,49,42
297.85684,297.964,62,49,42
297.964,298.07114,64,49,42
298.07114,298.17828,62,49,42
298.17828,298.28543,61,49,42
298.28543,298.39255,62,49,42
298.39255,298.4997,67,49,42
298.4997,298.60684,62,49,42
298.60684,298.714,59,49,42
299.57114,299.67828,64,101,42
299.67828,299.7854,66,101,42
299.7854,299.89255,64,101,42
299.89255,299.9997,62,101,42
299.9997,300.10684,64,101,42
300.10684,300.214,69,101,42
300.214,300.32114,64,101,42
300.32114,300.42828,57,101,42
301.2854,301.39255,64,101,42
301.39255,301.4997,66,101,42
301.4997,301.60684,64,101,42
301.60684,301.714,62,101,42
301.714,301.82114,64,127,42
301.82114,301.92828,69,101,42
301.92828,302.0354,64,101,42
302.0354,302.14255,57,101,42
302.9997,303.10684,64,127,42
303.10684,303.214,69,101,42
303.214,303.32114,64,101,42
303.32114,303.42825,57,101,42
303.85684,303.964,64,127,42
303.964,304.07114,69,101,42
304.07114,304.17825,64,101,42
304.17825,304.2854,57,101,42
304.714,304.82114,64,127,42
304.82114,304.92825,69,101,42
304.92825,305.0354,64,101,42
305.0354,305.14255,57,101,42
305.57114,305.67825,64,127,42
305.67825,305.7854,69,101,42
305.7854,305.89255,64,101,42
305.89255,305.9997,57,101,42
305.9997,306.214,50,101,42
306.64255,306.85684,45,101,42
306.85684,307.07114,50,101,42
307.4997,307.714,45,101,42
307.714,307.92825,50,101,42
308.35684,308.5711,45,101,42
308.5711,308.7854,50,101,42
309.214,309.42825,45,101,42
309.42825,309.64255,50,101,42
310.0711,310.2854,45,101,42
310.2854,310.4997,50,101,42
310.92825,311.14255,45,101,42
311.14255,311.35684,50,101,42
311.7854,311.9997,45,101,42
311.9997,312.21396,50,101,42
312.64255,312.85684,45,101,42
312.85684,313.0711,50,101,42
313.71396,313.92825,45,101,42
314.5711,315.42825,50,101,42
17.571411,17.785696,52,88,45
17.785696,17.999983,54,88,45
17.999983,18.214268,56,88,45
18.214268,18.428553,52,88,45
18.428553,18.64284,54,88,45
18.64284,18.857124,55,88,45
18.857124,19.07141,57,88,45
19.07141,19.285694,59,88,45
19.285694,19.49998,61,88,45
19.49998,19.714266,57,88,45
19.714266,19.92855,59,88,45
19.92855,20.142838,61,88,45
20.142838,20.357122,61,88,45
20.999979,21.214264,50,49,45
21.214264,21.42855,52,49,45
21.42855,21.642836,54,49,45
21.642836,21.85712,50,49,45
21.85712,22.071407,52,49,45
22.071407,22.285692,54,49,45
22.285692,22.499977,55,49,45
22.499977,22.714264,57,49,45
22.714264,22.928549,59,49,45
22.928549,23.142834,55,49,45
23.142834,23.357119,57,49,45
23.357119,23.571405,59,49,45
23.571405,23.78569,59,49,45
26.035688,26.142832,45,88,45
26.142832,26.357117,57,88,45
26.46426,26.571402,45,88,45
26.571402,26.785688,57,88,45
26.89283,26.999973,45,88,45
26.999973,27.214258,57,88,45
27.321402,27.428543,45,88,45
27.428543,27.64283,50,88,45
27.749971,27.857115,57,88,45
27.857115,28.0714,62,88,45
28.178543,28.285686,45,88,45
28.285686,28.499971,50,88,45
28.607115,28.714256,57,88,45
28.714256,28.928543,62,88,45
29.035685,29.142828,45,88,45
29.142828,29.357113,50,88,45
29.464256,29.5714,57,88,45
29.5714,29.785685,62,88,45
29.892828,29.99997,47,88,45
29.99997,30.214256,54,88,45
30.321398,30.428541,61,88,45
30.428541,30.642826,66,88,45
30.74997,30.857113,43,88,45
30.857113,31.071398,55,88,45
31.178541,31.285683,54,88,45
31.285683,31.499968,52,88,45
31.607111,31.714254,50,88,45
31.714254,31.92854,49,88,45
32.035683,32.142826,47,88,45
32.142826,32.35711,45,88,45
32.464252,32.571396,50,88,45
32.571396,32.785683,43,88,45
32.892826,32.999966,40,88,45
32.999966,33.214252,45,88,45
33.321396,33.42854,50,88,45
33.42854,33.642822,43,88,45
33.749966,33.85711,40,88,45
33.85711,34.071396,45,88,45
34.178535,34.28568,50,88,45
34.28568,34.499966,62,101,45
34.60711,34.714252,57,101,45
34.714252,34.928535,59,101,45
35.03568,35.142822,61,101,45
35.142822,35.35711,62,101,45
35.46425,35.571392,57,101,45
35.571392,35.78568,59,101,45
35.892822,35.999966,61,101,45
35.999966,36.21425,59,101,45
36.321392,36.428535,55,101,45
36.428535,36.642822,57,101,45
36.74996,36.857105,59,101,45
36.857105,37.071392,57,101,45
37.178535,37.28568,54,101,45
37.28568,37.49996,55,101,45
37.607105,37.71425,57,101,45
37.71425,37.92853,56,101,45
38.035675,38.14282,56,101,45
38.14282,38.357105,59,101,45
38.46425,38.57139,64,101,45
38.57139,39.42853,64,101,45
39.42853,39.64282,64,101,45
39.74996,39.8571,57,101,45
39.8571,40.07139,64,101,45
40.17853,40.285675,69,101,45
40.285675,41.142815,71,101,45
41.142815,41.892815,50,101,45
41.892815,41.999958,50,101,45
41.999958,42.749958,50,101,45
42.749958,42.8571,50,101,45
42.8571,43.607098,47,101,45
43.607098,43.71424,47,101,45
43.71424,44.46424,47,101,45
44.46424,44.571384,47,101,45
44.571384,45.321384,44,101,45
45.321384,45.428528,44,101,45
45.428528,46.178524,42,101,45
46.178524,46.285667,54,101,45
46.285667,47.035667,52,101,45
47.035667,47.14281,57,101,45
47.14281,47.89281,50,101,45
47.89281,47.99995,56,101,45
47.99995,48.74995,49,101,45
48.74995,48.857094,54,101,45
48.857094,49.07138,59,101,45
49.178524,49.285664,56,101,45
49.285664,49.49995,54,101,45
49.607094,49.714237,52,101,45
49.714237,49.92852,50,101,45
50.035664,50.142807,49,101,45
50.142807,50.357094,47,101,45
50.464233,50.571377,45,101,45
50.571377,50.785664,44,101,45
54.214233,54.428516,53,49,45
54.428516,54.642803,54,49,45
54.642803,54.857086,49,49,45
54.857086,55.071373,42,49,45
57.6428,57.857086,55,49,45
57.857086,58.07137,56,49,45
58.07137,58.285656,51,49,45
58.285656,58.499943,44,49,45
60.214226,60.428513,44,49,45
60.428513,61.714226,44,49,45
61.714226,63.42851,40,49,45
63.42851,68.57136,45,49,45
68.57136,69.428505,42,49,45
69.428505,69.85707,40,49,45
70.285645,71.142784,52,49,45
71.142784,71.99993,43,49,45
71.99993,72.85707,47,49,45
72.85707,73.71421,38,49,45
73.71421,76.71421,40,49,45
77.14278,79.7142,45,49,45
79.7142,80.57135,45,49,45
80.57135,81.42849,45,49,45
81.42849,82.28563,50,49,45
82.28563,83.14278,52,49,45
83.14278,83.999916,52,49,45
83.999916,84.14233,62,49,45
84.14233,84.28563,64,49,45
84.28563,84.42849,62,49,45
84.42849,84.5709,61,49,45
84.5709,84.7142,62,49,45
84.7142,84.857056,61,49,45
84.857056,84.999466,56,49,45
84.999466,85.14277,57,49,45
85.14277,85.28563,56,49,45
85.28563,85.42804,57,49,45
85.42804,85.57134,59,49,45
85.57134,85.7142,57,49,45
85.7142,85.85661,50,49,45
85.85661,85.999916,52,49,45
85.999916,86.14277,50,49,45
86.14277,86.28518,49,49,45
86.28518,86.42848,50,49,45
86.42848,86.57134,49,49,45
86.57134,86.71375,44,49,45
86.71375,86.857056,42,49,45
86.857056,86.999916,44,49,45
86.999916,87.14233,45,49,45
87.14233,87.28563,44,49,45
87.28563,87.42848,45,49,45
87.42848,87.57089,47,49,45
87.57089,87.714195,45,49,45
87.714195,87.857056,47,49,45
87.857056,87.999466,48,49,45
87.999466,88.14277,47,49,45
88.14277,88.28563,48,49,45
88.28563,88.42804,49,49,45
88.42804,88.57134,48,49,45
88.57134,88.714195,49,49,45
88.714195,88.856606,50,49,45
88.856606,88.99991,49,49,45
88.99991,89.14277,50,49,45
89.14277,89.357056,52,49,45
90.64277,90.857056,60,49,45
90.857056,91.071335,59,49,45
92.35705,92.571335,57,49,45
92.571335,92.78562,56,49,45
92.99991,93.428474,54,75,45
93.428474,93.85705,52,75,45
93.85705,94.28562,49,75,45
94.28562,96.7499,45,88,45
96.7499,96.85705,45,88,45
96.85705,97.071335,54,88,45
97.178474,97.285614,54,88,45
97.285614,97.4999,54,88,45
97.60705,97.71419,55,88,45
97.71419,97.928474,57,88,45
97.71419,97.928474,50,88,45
98.035614,98.14276,62,88,45
98.14276,98.35705,57,88,45
98.46419,98.57133,62,88,45
98.57133,98.785614,57,88,45
98.57133,98.785614,50,88,45
98.89276,98.9999,57,88,45
98.9999,99.21419,57,88,45
99.32133,99.428474,59,88,45
99.428474,99.64276,59,88,45
99.7499,99.85704,66,88,45
99.85704,100.07133,61,88,45
100.178474,100.285614,66,88,45
100.285614,100.4999,65,88,45
100.60704,100.71419,66,88,45
100.71419,100.92847,68,88,45
101.035614,101.14275,69,88,45
101.14275,101.35704,68,88,45
101.46419,101.57133,66,88,45
101.57133,101.785614,61,88,45
101.89275,101.9999,62,88,45
101.9999,102.21418,64,88,45
102.32133,102.42847,59,88,45
102.42847,102.64275,61,88,45
102.7499,102.85704,62,88,45
102.85704,103.07133,64,88,45
103.17847,103.285614,59,88,45
103.285614,103.49989,61,88,45
103.60704,103.71418,45,88,45
103.71418,103.92847,50,88,45
104.035614,104.14275,57,88,45
104.14275,104.35704,62,88,45
104.46418,104.57133,45,88,45
104.57133,104.78561,50,88,45
104.89275,104.99989,57,88,45
104.99989,105.21418,62,88,45
105.32132,105.42847,45,88,45
105.42847,105.64275,50,88,45
105.74989,105.85704,57,88,45
105.85704,106.07132,62,88,45
106.17847,106.28561,47,88,45
106.28561,106.49989,54,88,45
106.60703,106.71418,49,88,45
106.71418,106.92847,54,88,45
107.03561,107.14275,49,88,45
107.14275,107.35703,61,88,45
107.46418,107.57132,54,88,45
107.57132,107.78561,61,88,45
107.892746,107.99989,54,88,45
107.99989,108.21418,61,88,45
107.99989,108.21418,54,88,45
108.32132,108.42847,54,88,45
108.42847,108.642746,66,88,45
108.74989,108.85703,52,88,45
108.85703,109.28561,64,88,45
109.28561,109.49989,57,88,45
109.60703,109.71417,52,88,45
109.71417,110.142746,64,88,45
110.142746,110.35703,57,88,45
110.999886,111.10703,52,49,45
111.10703,111.21417,52,49,45
111.21417,111.32132,54,49,45
111.32132,111.42846,54,49,45
111.42846,111.53561,56,49,45
111.53561,111.642746,56,49,45
111.642746,111.749886,52,49,45
111.749886,111.85703,52,49,45
111.85703,111.96417,54,49,45
111.96417,112.07132,54,49,45
112.07132,112.17846,56,49,45
112.17846,112.2856,56,49,45
112.2856,112.392746,57,49,45
112.392746,112.499886,57,49,45
112.499886,112.60703,59,49,45
112.60703,112.71417,59,49,45
112.71417,112.82131,61,49,45
112.82131,112.92846,61,49,45
112.92846,113.0356,57,49,45
113.0356,113.142746,57,49,45
113.142746,113.249886,59,88,45
113.249886,113.35703,59,88,45
113.35703,113.46417,62,88,45
113.46417,113.57131,62,88,45
113.57131,113.7856,62,88,45
114.42846,114.5356,50,88,45
114.5356,114.642746,50,88,45
114.642746,114.749886,52,88,45
114.749886,114.857025,52,88,45
114.857025,114.96417,54,88,45
114.96417,115.07131,54,88,45
115.07131,115.17846,50,88,45
115.17846,115.2856,50,88,45
115.2856,115.39274,52,88,45
115.39274,115.499886,52,88,45
115.499886,115.607025,54,88,45
115.607025,115.71417,54,88,45
115.71417,115.82131,55,88,45
115.82131,115.92846,55,88,45
115.92846,116.0356,57,88,45
116.0356,116.14274,57,88,45
116.14274,116.249886,59,88,45
116.249886,116.357025,59,88,45
116.357025,116.46417,55,88,45
116.46417,116.57131,55,88,45
116.57131,116.67845,57,88,45
116.67845,116.7856,57,88,45
116.7856,116.89274,59,88,45
116.89274,116.999886,59,88,45
116.999886,117.214165,61,88,45
117.64274,117.857025,50,88,45
117.857025,118.2856,52,88,45
118.49988,118.714165,50,88,45
118.714165,119.14274,52,88,45
119.357025,119.57131,50,88,45
119.57131,119.78559,52,88,45
119.78559,119.99988,50,88,45
119.99988,120.214165,52,88,45
120.214165,120.42845,50,88,45
120.42845,120.64274,52,88,45
120.64274,120.857025,50,88,45
120.857025,121.28559,48,114,45
121.28559,121.49988,48,88,45
121.49988,121.714165,52,88,45
121.714165,121.92845,53,88,45
121.92845,122.14274,41,88,45
122.14274,122.35702,45,88,45
122.35702,122.571304,47,88,45
122.571304,122.78559,48,88,45
122.78559,122.99988,52,88,45
122.99988,123.214165,55,88,45
123.214165,123.42845,49,88,45
123.42845,123.64273,52,88,45
123.64273,123.85702,55,88,45
123.85702,124.071304,55,88,45
124.49988,124.714165,43,88,45
124.49988,124.714165,36,88,45
124.928444,125.14273,36,88,45
124.928444,125.14273,43,88,45
125.35702,125.571304,43,88,45
125.35702,125.571304,36,88,45
125.78559,125.99987,36,88,45
125.78559,125.99987,43,88,45
126.21416,126.428444,43,88,45
126.21416,126.428444,36,88,45
126.64273,126.85702,36,88,45
126.64273,126.85702,43,88,45
127.071304,127.28558,38,88,45
127.49987,127.71416,50,88,45
127.71416,127.928444,43,88,45
149.357,149.57127,46,49,45
149.78557,149.99985,46,49,45
150.21414,150.42842,46,49,45
150.6427,150.857,46,49,45
151.07127,151.28557,46,49,45
151.49985,151.71413,46,49,45
151.92842,152.1427,53,49,45
152.357,152.57127,50,49,45
152.57127,152.78557,52,49,45
155.357,155.57127,45,49,45
155.78555,155.99985,45,49,45
156.21413,156.42842,45,49,45
156.6427,156.85698,45,49,45
157.07127,157.28555,45,49,45
157.49985,157.71413,45,49,45
157.92842,158.1427,45,49,45
158.35698,158.57127,45,49,45
158.78555,158.99985,45,49,45
159.21413,159.4284,45,49,45
159.6427,159.85698,45,49,45
160.07127,160.28555,45,49,45
160.49983,160.71413,45,49,45
160.9284,161.1427,45,49,45
161.35698,161.57127,45,49,45
161.78555,161.99983,45,49,45
162.21413,162.4284,45,49,45
162.6427,162.85698,45,49,45
162.85698,163.07126,45,88,45
228.64262,228.85692,45,49,45
228.85692,229.0712,50,49,45
229.0712,229.28549,57,49,45
229.28549,229.49977,62,49,45
229.49977,229.71405,45,49,45
229.71405,230.14262,50,49,45
230.35692,230.5712,45,49,45
230.5712,230.78548,50,49,45
230.78548,230.99977,57,49,45
230.99977,231.21405,62,49,45
231.21405,231.42834,47,49,45
231.42834,231.64262,54,88,45
3.3214252,3.428568,45,88,43
3.428568,3.6428535,50,88,43
4.1785674,4.28571,45,88,43
4.28571,4.4999957,50,88,43
5.0357094,5.142852,45,88,43
5.142852,5.3571377,50,88,43
5.8928514,5.999994,45,88,43
5.999994,6.2142797,54,88,43
6.7499933,6.857136,49,88,43
6.857136,7.0714216,61,88,43
7.6071353,7.714278,54,88,43
7.714278,7.9285636,66,88,43
8.464277,8.57142,52,88,43
8.57142,8.999991,64,88,43
8.999991,9.214276,57,88,43
9.32142,9.428562,52,88,43
9.428562,9.857133,64,88,43
9.857133,10.071419,57,88,43
10.178561,10.285704,45,88,43
10.285704,10.4999895,50,88,43
11.035704,11.142846,45,88,43
11.142846,11.357132,50,88,43
11.892845,11.999988,45,88,43
11.999988,12.214273,50,88,43
12.749988,12.85713,47,88,43
12.85713,13.071416,54,88,43
13.607129,13.714272,49,88,43
13.714272,13.928557,61,88,43
14.464272,14.571414,54,88,43
14.571414,14.7857,66,88,43
15.321413,15.428556,52,88,43
15.428556,15.857127,64,88,43
15.857127,16.071413,57,88,43
16.178555,16.285698,52,88,43
16.285698,16.71427,64,88,43
16.71427,16.928555,57,88,43
27.321402,27.428543,45,88,43
27.428543,27.64283,50,88,43
28.178543,28.285686,45,88,43
28.285686,28.499971,50,88,43
29.035685,29.142828,45,88,43
29.142828,29.357113,50,88,43
29.892828,29.99997,47,88,43
29.99997,30.214256,54,88,43
30.74997,30.857113,43,88,43
30.857113,31.071398,55,88,43
31.178541,31.285683,54,88,43
31.285683,31.499968,52,88,43
31.607111,31.714254,50,88,43
31.714254,31.92854,49,88,43
32.035683,32.142826,47,88,43
32.142826,32.35711,45,88,43
32.464252,32.571396,50,88,43
32.571396,32.785683,43,88,43
32.892826,32.999966,40,88,43
32.999966,33.214252,45,88,43
33.321396,33.42854,50,88,43
33.42854,33.642822,43,88,43
33.749966,33.85711,40,88,43
33.85711,34.071396,45,88,43
34.178535,34.28568,50,88,43
34.28568,34.714252,50,101,43
35.03568,35.142822,50,101,43
35.142822,35.571392,50,101,43
35.892822,35.999966,50,101,43
35.999966,36.428535,55,101,43
36.74996,36.857105,55,101,43
36.857105,37.28568,50,101,43
37.607105,37.71425,50,101,43
37.71425,38.14282,52,101,43
38.46425,38.57139,52,101,43
38.57139,39.42853,52,101,43
39.42853,39.8571,45,101,43
40.17853,40.285675,45,101,43
40.285675,41.142815,45,101,43
41.142815,41.892815,50,101,43
41.892815,41.999958,50,101,43
41.999958,42.749958,50,101,43
42.749958,42.8571,50,101,43
42.8571,43.607098,47,101,43
43.607098,43.71424,47,101,43
43.71424,44.46424,47,101,43
44.46424,44.571384,47,101,43
44.571384,45.321384,44,101,43
45.321384,45.428528,44,101,43
45.428528,46.178524,42,101,43
46.178524,46.285667,54,101,43
46.285667,47.035667,52,101,43
47.035667,47.14281,57,101,43
47.14281,47.89281,50,101,43
47.89281,47.99995,56,101,43
47.99995,48.74995,49,101,43
48.74995,48.857094,54,101,43
48.857094,49.07138,59,101,43
49.178524,49.285664,56,101,43
49.285664,49.49995,54,101,43
49.607094,49.714237,52,101,43
49.714237,49.92852,50,101,43
50.035664,50.142807,49,101,43
50.142807,50.357094,47,101,43
50.464233,50.571377,45,101,43
50.571377,50.785664,44,101,43
61.714226,63.42851,40,101,43
63.42851,63.85708,45,101,43
90.64277,90.857056,57,49,43
90.857056,91.071335,56,49,43
92.35705,92.571335,54,49,43
92.571335,92.78562,53,49,43
92.99991,93.428474,54,75,43
93.428474,93.85705,52,75,43
93.85705,94.28562,49,75,43
94.28562,96.7499,45,88,43
96.7499,96.85705,45,88,43
96.85705,97.071335,50,88,43
97.60705,97.71419,45,88,43
97.71419,97.928474,50,88,43
98.46419,98.57133,45,88,43
98.57133,98.785614,50,88,43
99.32133,99.428474,47,88,43
99.428474,99.64276,54,88,43
100.178474,100.285614,49,88,43
100.285614,100.4999,61,88,43
101.035614,101.14275,54,88,43
101.14275,101.35704,66,88,43
101.89275,101.9999,52,88,43
101.9999,102.42847,64,88,43
102.42847,102.64275,57,88,43
102.7499,102.85704,52,88,43
102.85704,103.285614,64,88,43
103.285614,103.49989,57,88,43
103.60704,103.71418,45,88,43
103.71418,103.92847,50,88,43
104.46418,104.57133,45,88,43
104.57133,104.78561,50,88,43
105.32132,105.42847,45,88,43
105.42847,105.64275,50,88,43
106.17847,106.28561,47,88,43
106.28561,106.49989,54,88,43
107.03561,107.14275,49,88,43
107.14275,107.35703,61,88,43
107.892746,107.99989,54,88,43
107.99989,108.21418,66,88,43
108.74989,108.85703,52,88,43
108.85703,109.28561,64,88,43
109.28561,109.49989,57,88,43
109.60703,109.71417,52,88,43
109.71417,110.142746,64,88,43
110.142746,110.35703,57,88,43
119.357025,119.57131,62,88,43
119.57131,119.78559,64,88,43
119.78559,119.99988,62,88,43
119.99988,120.214165,64,88,43
120.214165,120.42845,62,88,43
120.42845,120.64274,64,88,43
120.64274,120.857025,50,88,43
120.857025,121.28559,48,114,43
121.28559,121.49988,48,88,43
121.49988,121.714165,52,88,43
121.714165,121.92845,53,88,43
121.92845,122.14274,41,88,43
122.14274,122.35702,45,88,43
122.35702,122.571304,47,88,43
122.571304,122.78559,48,88,43
122.78559,122.99988,52,88,43
122.99988,123.214165,55,88,43
123.214165,123.42845,49,88,43
123.42845,123.64273,52,88,43
123.64273,123.85702,55,88,43
123.85702,124.071304,55,88,43
136.71414,137.14272,43,88,43
137.14272,137.57129,45,88,43
137.57129,137.99986,47,88,43
137.99986,138.08557,48,88,43
138.21414,138.29987,50,88,43
138.42844,138.85701,52,88,43
138.85701,138.94272,53,88,43
139.07129,139.157,52,88,43
139.28557,139.71414,50,88,43
139.71414,139.79987,48,88,43
139.92844,140.01414,47,88,43
140.14272,140.57129,46,88,43
140.57129,140.657,45,88,43
140.78557,140.87129,43,88,43
140.99986,142.28557,41,88,43
142.28557,143.14272,53,114,43
143.14272,143.357,46,49,43
179.14268,180.42839,45,88,43
180.42839,180.85696,48,88,43
180.85696,181.71411,52,88,43
181.71411,182.57124,43,88,43
182.57124,184.7141,45,88,43
196.28552,196.7141,55,88,43
196.7141,197.14265,54,88,43
197.14265,197.57123,49,88,43
197.57123,197.9998,50,88,43
197.9998,198.42838,52,88,43
198.42838,198.85695,53,88,43
198.85695,199.28552,54,88,43
199.28552,199.71408,55,88,43
199.71408,199.92838,57,88,43
200.7855,201.21408,64,88,43
201.21408,201.42838,62,88,43
201.42838,201.64265,61,88,43
202.4998,202.92838,61,88,43
202.92838,203.14265,57,88,43
203.14265,203.35693,58,49,43
203.57123,203.9998,58,49,43
203.9998,204.42836,57,49,43
204.42836,204.85693,56,49,43
204.85693,205.07123,55,49,43
205.07123,205.2855,53,49,43
205.2855,205.4998,52,49,43
205.4998,205.71408,50,49,43
205.71408,205.92836,49,49,43
205.92836,206.14265,47,49,43
206.14265,206.35693,45,49,43
206.35693,206.57123,49,49,43
206.57123,206.7855,50,75,43
207.32123,207.42836,45,75,43
207.42836,207.64265,50,75,43
208.17836,208.2855,45,75,43
208.2855,208.49979,50,75,43
209.0355,209.14265,46,75,43
209.14265,209.35693,53,75,43
209.89265,209.99979,48,75,43
209.99979,210.21408,60,75,43
210.74979,210.85693,53,75,43
210.85693,211.07121,65,88,43
211.60693,211.71408,62,88,43
211.71408,211.92836,64,88,43
212.46408,212.57121,52,88,43
212.57121,212.7855,64,88,43
213.32121,213.42836,52,88,43
213.42836,213.85693,64,88,43
213.85693,214.07121,57,88,43
214.17836,214.2855,52,88,43
214.2855,214.71407,64,88,43
214.71407,214.92836,57,88,43
215.03549,215.14264,45,88,43
215.14264,215.35693,50,88,43
215.89264,215.99979,45,88,43
215.99979,216.21407,50,88,43
216.74979,216.85693,45,88,43
216.85693,217.07121,50,88,43
217.60692,217.71407,47,88,43
217.71407,217.92836,54,88,43
218.46407,218.57121,49,88,43
218.57121,218.78549,61,88,43
219.32121,219.42834,54,88,43
219.42834,219.64264,66,88,43
220.17834,220.28549,52,88,43
220.28549,220.71407,64,88,43
220.71407,220.92834,57,88,43
221.03549,221.14264,52,88,43
221.14264,221.57121,64,88,43
221.57121,221.78549,57,88,43
232.0712,232.28548,43,88,43
232.28548,232.49977,55,88,43
232.6069,232.71405,54,88,43
232.71405,232.92834,52,88,43
233.03548,233.14262,50,88,43
233.14262,233.3569,49,88,43
233.46405,233.5712,47,88,43
233.5712,233.78548,45,88,43
233.89262,233.99977,50,88,43
233.99977,234.21405,43,88,43
234.3212,234.42833,40,88,43
234.42833,234.64262,45,88,43
234.74977,234.8569,50,88,43
234.8569,235.0712,43,88,43
235.17833,235.28548,40,88,43
235.28548,235.49977,45,88,43
235.6069,235.71405,50,88,43
235.71405,236.14262,50,101,43
236.46405,236.5712,50,101,43
236.5712,236.99976,50,101,43
237.3212,237.42833,50,101,43
237.42833,237.8569,55,101,43
238.17833,238.28548,55,101,43
238.28548,238.71405,50,101,43
239.03548,239.14262,50,101,43
239.14262,239.57118,52,101,43
239.89262,239.99976,52,101,43
239.99976,240.8569,52,101,43
240.8569,241.28548,45,101,43
241.6069,241.71405,45,101,43
241.71405,242.57118,45,101,43
242.57118,243.32118,50,101,43
243.32118,243.42833,50,101,43
243.42833,244.17833,50,101,43
244.17833,244.28548,50,101,43
244.28548,245.03548,48,101,43
245.03548,245.14261,48,101,43
245.14261,245.89261,48,101,43
245.89261,245.99976,48,101,43
245.99976,246.74976,45,101,43
246.74976,246.8569,45,101,43
246.8569,247.60689,43,101,43
247.60689,247.71404,43,101,43
247.71404,248.46404,41,101,43
248.46404,248.57118,41,101,43
248.57118,249.32118,40,101,43
249.32118,249.36359,40,101,43
249.42833,249.85689,45,127,43
251.78546,251.87117,50,101,43
251.99974,252.42831,45,127,43
254.35689,254.57117,50,101,43
254.57117,254.99974,43,127,43
254.99974,255.42831,67,101,43
255.42831,255.51402,66,101,43
255.64261,255.72832,64,101,43
255.85689,255.9426,63,101,43
256.07117,256.1569,66,101,43
256.28546,256.49976,64,101,43
256.49976,256.71402,62,101,43
256.71402,256.9283,61,101,43
256.9283,257.1426,57,101,43
257.1426,257.35687,62,101,43
258.4283,258.85687,60,101,43
258.85687,259.07117,59,101,43
259.07117,259.28546,57,101,43
259.28546,259.49973,55,101,43
259.49973,259.71402,59,101,43
259.71402,259.9283,57,101,43
259.9283,260.1426,55,101,43
260.1426,260.35687,54,101,43
260.35687,260.57117,50,101,43
260.57117,260.78546,55,101,43
261.85687,262.28546,52,101,43
262.28546,262.71402,50,101,43
262.71402,263.1426,48,101,43
263.1426,263.57117,47,101,43
263.57117,263.99973,48,101,43
263.99973,264.4283,47,101,43
264.4283,264.85687,45,101,43
264.85687,265.28546,43,101,43
265.28546,265.71402,52,101,43
265.71402,266.14258,50,101,43
266.14258,266.57117,48,101,43
266.57117,266.99973,47,101,43
266.99973,267.4283,48,101,43
267.4283,267.85687,47,101,43
267.85687,268.28543,45,101,43
268.28543,273.42828,43,101,43
273.42828,275.14258,55,36,43
275.14258,276.85687,43,36,43
276.85687,280.28543,45,36,43
280.28543,283.714,45,36,43
283.714,285.42828,50,49,43
285.42828,287.14258,50,49,43
287.14258,288.85684,50,49,43
288.85684,290.57114,50,49,43
290.57114,292.28543,50,49,43
292.28543,293.9997,50,49,43
293.9997,295.714,50,49,43
295.714,297.42828,50,49,43
297.42828,299.14255,50,49,43
299.14255,302.57114,50,101,43
302.57114,305.14255,50,101,43
305.14255,305.9997,50,101,43
305.9997,306.214,50,101,43
306.64255,306.85684,45,101,43
306.85684,307.07114,50,101,43
307.4997,307.714,45,101,43
307.714,307.92825,50,101,43
308.35684,308.5711,45,101,43
308.5711,308.7854,50,101,43
309.214,309.42825,45,101,43
309.42825,309.64255,50,101,43
310.0711,310.2854,45,101,43
310.2854,310.4997,50,101,43
310.92825,311.14255,45,101,43
311.14255,311.35684,50,101,43
311.7854,311.9997,45,101,43
311.9997,312.21396,50,101,43
312.64255,312.85684,45,101,43
312.85684,313.0711,50,101,43
313.71396,313.92825,45,101,43
314.5711,315.42825,50,101,43
124.49988,124.714165,48,88,45
124.928444,125.14273,48,88,45
125.35702,125.571304,48,88,45
125.78559,125.99987,48,88,45
126.21416,126.428444,48,88,45
126.64273,126.85702,48,88,45
127.071304,127.28558,50,88,45
127.49987,127.71416,50,88,45
127.71416,127.928444,43,88,45
149.357,149.57127,46,49,45
149.78557,149.99985,46,49,45
150.21414,150.42842,46,49,45
150.6427,150.857,46,49,45
151.07127,151.28557,46,49,45
151.49985,151.71413,46,49,45
151.92842,152.1427,48,49,45
152.357,152.57127,47,49,45
152.57127,152.78557,45,49,45
155.357,155.57127,45,49,45
155.78555,155.99985,45,49,45
156.21413,156.42842,45,49,45
156.6427,156.85698,45,49,45
157.07127,157.28555,45,49,45
157.49985,157.71413,45,49,45
157.92842,158.1427,45,49,45
158.35698,158.57127,45,49,45
158.78555,158.99985,45,49,45
159.21413,159.4284,45,49,45
159.6427,159.85698,45,49,45
160.07127,160.28555,45,49,45
160.49983,160.71413,45,49,45
160.9284,161.1427,45,49,45
161.35698,161.57127,45,49,45
161.78555,161.99983,45,49,45
162.21413,162.4284,45,49,45
162.6427,162.85698,45,49,45
162.85698,163.07126,45,88,45
167.99983,168.4284,50,88,45
168.85698,169.28554,50,88,45
169.71411,170.14268,47,88,45
170.57126,170.99983,45,88,45
175.71411,176.14268,50,88,45
176.57126,176.99982,50,88,45
177.42839,177.85696,47,88,45
178.28554,178.71411,45,88,45
228.64262,228.85692,45,49,45
228.85692,229.0712,50,49,45
229.0712,229.28549,57,49,45
229.28549,229.49977,62,49,45
229.49977,229.71405,45,49,45
229.71405,230.14262,50,49,45
230.35692,230.5712,45,49,45
230.5712,230.78548,50,49,45
230.78548,230.99977,57,49,45
230.99977,231.21405,62,49,45
231.21405,231.42834,47,49,45
231.42834,231.64262,54,88,45
