start_time,end_time,note_value,velocity,instrument_program_number
1.333332,1.895832,89,75,40
1.895832,2.0794258,91,75,40
2.083332,2.645832,91,78,40
2.645832,2.8294258,92,88,40
2.833332,3.208332,92,92,40
3.208332,3.520832,83,92,40
3.958332,4.333332,72,75,40
4.333332,4.989582,68,75,40
5.083332,5.270832,67,75,40
5.270832,5.454426,74,75,40
5.458332,5.645832,74,75,40
5.645832,5.829426,77,75,40
5.833332,6.489582,72,75,40
6.583332,6.770832,71,73,40
6.770832,6.954426,74,73,40
6.958332,7.145832,74,73,40
7.145832,7.329426,83,73,40
7.333332,7.989582,83,102,40
8.083332,8.458332,84,71,40
8.458332,8.833332,79,70,40
8.833332,9.208332,77,69,40
9.208332,9.520832,75,68,40
9.583332,9.958332,73,67,40
9.958332,10.270832,79,65,40
10.333332,10.520832,78,63,40
10.520832,10.704426,73,62,40
10.708332,10.895832,73,61,40
10.895832,11.079426,74,60,40
11.083332,12.016258,74,60,40
12.016258,12.1953745,73,70,40
12.199185,12.382112,73,72,40
12.382112,12.561227,74,75,40
12.565038,13.477467,74,60,40
13.477467,13.654424,76,60,40
13.658189,13.838911,76,67,40
13.838911,14.015869,77,75,40
14.019634,14.921095,77,60,40
14.921095,15.095945,76,60,40
15.099666,15.278237,76,76,40
15.278237,15.453088,77,92,40
15.456808,16.34551,77,75,40
16.34551,16.516294,76,92,40
16.51993,16.694347,76,92,40
16.694347,16.865131,77,88,40
16.868767,17.03922,77,84,40
17.03922,17.206123,76,80,40
17.209675,17.380129,76,75,40
17.380129,17.547033,77,75,40
17.550585,17.725002,77,75,40
17.725002,17.895788,79,77,40
17.899422,18.07384,79,79,40
18.07384,18.244625,80,81,40
18.248259,18.424728,80,83,40
18.424728,18.597523,84,85,40
18.601198,18.77767,84,87,40
18.77767,18.950464,89,89,40
18.95414,19.51664,89,92,40
19.51664,19.700233,91,92,40
19.70414,20.26664,91,90,40
20.26664,20.450233,92,83,40
20.45414,20.82914,92,81,40
20.82914,21.14164,83,75,40
21.57914,21.95414,72,60,40
21.95414,22.586668,68,60,40
22.67703,22.857752,67,60,40
22.857752,23.03471,74,60,40
23.038475,23.219198,74,60,40
23.219198,23.396154,77,60,40
23.39992,24.017567,72,60,40
24.105803,24.282272,71,65,40
24.282272,24.455067,74,66,40
24.458742,24.635214,74,67,40
24.635214,24.808008,83,68,40
24.811684,25.408276,83,69,40
25.493502,25.834412,84,74,40
25.834412,26.118502,78,77,40
26.17532,26.342224,79,80,40
26.51623,26.683132,72,82,40
26.857138,27.024042,79,84,40
27.198048,27.36495,71,88,40
27.538956,28.135548,86,92,40
28.220774,28.561684,87,92,40
28.561684,28.845774,78,92,40
28.902592,29.073378,79,92,40
29.251429,29.422215,72,92,40
29.600266,29.777224,79,92,40
29.961712,30.138668,71,92,40
30.323156,30.489822,72,92,40
30.489822,30.653017,71,92,40
30.656488,30.823156,71,92,40
30.823156,30.98635,72,92,40
30.989822,31.156488,72,92,40
31.156488,31.319683,71,92,40
31.323154,31.489822,71,92,40
31.489822,31.653015,72,92,40
31.656488,31.823154,72,92,40
31.823154,31.98635,74,92,40
31.98982,32.156487,74,92,40
32.156487,32.319683,75,92,40
32.323154,32.489822,75,92,40
32.489822,32.653015,79,92,40
32.656487,32.823154,79,92,40
32.823154,32.986347,83,92,40
32.98982,33.156487,84,92,40
33.156487,33.31968,83,91,40
33.323154,33.48982,83,91,40
33.48982,33.653015,84,90,40
33.656487,33.82315,84,89,40
33.82315,33.986347,83,88,40
33.98982,34.156487,83,87,40
34.156487,34.31968,84,86,40
34.32315,34.48982,84,85,40
34.48982,34.65301,80,84,40
34.656487,34.82315,80,83,40
34.82315,34.986347,77,82,40
34.98982,35.156483,77,81,40
35.156483,35.31968,74,80,40
35.32315,35.48982,74,79,40
35.48982,35.65301,72,78,40
35.656483,35.82315,79,77,40
35.82315,35.986343,78,76,40
35.98982,36.156483,78,75,40
36.156483,36.31968,79,74,40
36.32315,36.489815,79,73,40
36.489815,36.65301,78,72,40
36.656483,36.82315,78,71,40
36.82315,36.986343,79,70,40
36.989815,37.156483,79,69,40
37.156483,37.319675,83,68,40
37.32315,37.489815,83,67,40
37.489815,37.65301,86,66,40
37.656483,37.823147,86,65,40
37.823147,37.986343,90,64,40
37.989815,38.156483,90,63,40
38.156483,38.319675,91,62,40
38.323147,38.489815,91,60,40
38.489815,38.653008,90,60,40
38.656483,38.823147,90,60,40
38.823147,38.986343,91,60,40
38.989815,39.15648,91,60,40
39.15648,39.319675,90,60,40
39.323147,39.489815,90,60,40
39.489815,39.653008,91,60,40
39.65648,39.823147,91,60,40
39.823147,39.98634,87,60,40
39.989815,40.15648,87,60,40
40.15648,40.319675,84,60,40
40.323147,40.48981,84,60,40
40.48981,40.653008,81,60,40
40.65648,40.823147,81,60,40
40.823147,40.98634,79,60,40
40.98981,41.15648,86,60,40
41.15648,41.31967,79,60,40
41.323147,41.48981,79,60,40
41.48981,41.653008,86,61,40
41.65648,41.823143,86,61,40
41.823143,41.98634,74,62,40
41.98981,42.15648,74,63,40
42.15648,42.31967,86,64,40
42.323143,42.48981,86,65,40
42.48981,42.653004,79,66,40
42.65648,42.823143,79,67,40
42.823143,42.98634,86,68,40
42.98981,43.156475,86,69,40
43.156475,43.31967,74,70,40
43.323143,43.48981,74,71,40
43.48981,43.653004,86,72,40
43.656475,43.823143,86,73,40
43.823143,43.986336,79,74,40
43.989807,44.156475,79,75,40
44.156475,44.31967,74,76,40
44.323143,44.489807,74,77,40
44.489807,44.653004,67,78,40
44.656475,44.823143,67,79,40
44.823143,44.986336,74,80,40
44.989807,45.16628,74,81,40
45.16628,45.339073,67,82,40
45.34275,45.51922,67,83,40
45.51922,45.692013,62,84,40
45.69569,45.87641,62,85,40
45.87641,46.05337,55,86,40
46.057137,46.237858,55,87,40
46.237858,46.414814,60,88,40
46.81858,46.936634,72,92,40
46.985245,47.103302,68,92,40
47.151913,47.26997,70,92,40
47.31858,47.436634,67,92,40
47.485245,47.603302,68,92,40
47.651913,47.707466,65,92,40
47.81858,47.981773,67,92,40
47.985245,48.14844,63,91,40
48.151913,48.315105,67,90,40
48.318577,48.481773,75,89,40
48.485245,48.648438,79,88,40
48.651913,48.815105,75,87,40
48.818577,48.981773,67,86,40
48.985245,49.148438,75,85,40
49.151913,49.315105,73,84,40
49.318577,49.481773,65,83,40
49.485245,49.648438,68,82,40
49.65191,49.815105,77,81,40
49.818577,49.98177,75,80,40
49.985245,50.148438,67,79,40
50.15191,50.315105,70,78,40
50.318577,50.48177,67,77,40
50.485245,50.648438,73,76,40
50.65191,50.815105,68,75,40
50.818577,50.98177,65,74,40
50.98524,51.148438,68,73,40
51.15191,51.3151,67,72,40
51.318577,51.48177,63,70,40
51.48524,51.648438,59,68,40
51.65191,51.8151,62,66,40
52.15191,52.269962,67,60,40
52.318573,52.43663,63,60,40
52.48524,52.6033,65,60,40
52.65191,52.769962,62,60,40
52.818573,52.93663,63,60,40
52.98524,53.040794,60,60,40
53.15191,53.3151,62,60,40
53.318573,53.48177,58,70,40
53.48524,53.648434,62,81,40
53.651905,53.8151,70,92,40
53.818573,53.981766,74,92,40
53.98524,54.148434,70,87,40
54.151905,54.3151,62,82,40
54.318573,54.481766,70,77,40
54.818573,54.936626,70,60,40
54.985237,55.103294,66,60,40
55.151905,55.269962,68,60,40
55.318573,55.436626,65,64,40
55.485237,55.603294,66,68,40
55.651905,55.70746,63,72,40
55.81857,55.981766,65,77,40
55.985237,56.148434,62,82,40
56.151905,56.315098,65,87,40
56.31857,56.481766,74,92,40
56.485237,56.64843,77,92,40
56.651905,56.815098,74,87,40
56.81857,56.981766,70,81,40
56.985237,57.14843,74,75,40
57.985237,58.065098,74,92,40
58.1519,58.231762,77,92,40
58.31857,58.39843,70,92,40
58.485233,58.985233,82,92,40
58.985233,59.04079,80,92,40
59.1519,59.6519,79,92,40
59.6519,59.707455,77,92,40
59.818565,60.318565,75,92,40
60.318565,60.374123,79,68,40
60.485233,60.985233,80,60,40
60.985233,61.040787,82,60,40
61.151897,61.651897,84,60,40
61.651897,61.815094,87,84,40
61.818565,62.151897,87,92,40
62.151897,62.429676,77,60,40
62.48523,62.98523,84,60,40
62.98523,63.148426,87,84,40
63.151897,63.48523,87,92,40
63.48523,63.76301,77,60,40
63.81856,64.65189,86,92,40
64.65189,64.818565,84,92,40
64.818565,64.98523,82,90,40
64.98523,65.15189,84,87,40
65.15189,65.33262,82,84,40
65.33262,65.51334,80,81,40
65.51334,65.69406,78,78,40
65.69406,65.87479,80,75,40
65.87479,66.055504,78,72,40
66.055504,66.23623,77,69,40
66.23623,66.416954,75,66,40
66.416954,66.59391,77,63,40
66.59767,67.50129,75,60,40
67.50129,67.68201,73,60,40
67.68201,67.86273,72,60,40
67.86273,68.04346,73,60,40
68.04346,68.23096,72,60,40
68.23096,68.41846,70,60,40
68.41846,68.60596,69,60,40
68.60596,68.79346,70,60,40
68.79346,68.98096,68,60,40
68.98096,69.16846,66,60,40
69.16846,69.35596,65,60,40
69.35596,69.53955,66,60,40
69.54346,69.72705,65,60,40
70.29346,70.47705,66,60,40
71.23576,71.61637,63,60,40
71.62038,72.133194,63,60,40
72.1973,72.517815,60,60,40
72.96653,73.15483,65,68,40
73.73576,73.924065,65,76,40
74.31268,74.69329,65,82,40
74.697296,75.21012,65,86,40
75.27422,75.65884,82,92,40
75.65884,75.95295,87,92,40
76.01178,76.48236,85,92,40
76.54119,76.71766,84,92,40
76.71766,76.89413,82,92,40
76.89413,77.0706,84,92,40
77.0706,77.24707,82,92,40
77.24707,77.41986,80,92,40
77.42354,77.89413,83,92,40
77.95295,78.129425,82,92,40
78.129425,78.30589,80,92,40
78.30589,78.48236,82,92,40
78.48236,78.65516,80,92,40
78.65884,78.835304,79,92,40
78.835304,79.01177,82,92,40
79.01177,79.18457,75,92,40
79.364716,79.54118,76,92,40
79.54118,79.71766,79,92,40
79.71766,79.89045,72,92,40
80.070595,80.24707,77,92,40
80.24707,80.42354,80,92,40
80.42354,80.59633,75,92,40
80.77648,80.95295,74,92,40
80.95295,81.12942,77,92,40
81.12942,81.302216,70,92,40
81.48236,81.65883,79,92,40
81.65883,81.835304,82,92,40
81.835304,82.008095,75,92,40
82.18824,82.364716,79,92,40
82.364716,82.54118,83,92,40
82.54118,82.71398,75,92,40
82.89413,83.070595,79,92,40
83.070595,83.24707,84,92,40
83.24707,83.41986,75,92,40
83.42354,83.600006,85,92,40
83.600006,83.772804,75,92,40
83.77648,83.95295,86,92,40
83.95295,84.12574,74,92,40
84.12942,84.65883,87,92,40
84.65883,84.83163,86,92,40
84.835304,85.364716,84,92,40
85.364716,85.537506,82,92,40
85.54118,86.070595,80,92,40
86.070595,86.243385,79,80,40
86.24706,86.42354,77,76,40
86.42354,86.600006,75,72,40
86.600006,86.7728,74,68,40
86.776474,86.95295,72,64,40
86.95295,87.12942,75,60,40
87.12942,87.30221,68,60,40
87.48236,87.65883,72,60,40
87.65883,87.8353,76,60,40
87.8353,88.008095,68,60,40
88.18824,88.36471,72,60,40
88.36471,88.54118,77,60,40
88.54118,88.713974,68,60,40
88.71765,88.89412,80,60,40
88.89412,89.06692,72,60,40
89.070595,89.24706,84,60,40
89.24706,89.41986,72,60,40
89.42353,89.600006,79,60,40
89.600006,89.7728,67,60,40
89.95294,90.037506,74,60,40
90.12942,90.213974,77,60,40
90.305885,90.39044,71,60,40
90.48235,91.01177,83,60,40
91.01177,91.18456,84,60,40
91.18824,91.71765,85,60,40
91.71765,91.89044,84,60,40
91.89412,92.070595,82,60,40
92.070595,92.24706,80,60,40
92.24706,92.42353,79,60,40
92.42353,92.59633,77,60,40
92.78072,92.96145,77,60,40
92.96145,93.14217,80,60,40
93.14217,93.31913,73,60,40
93.50362,93.68434,77,60,40
93.68434,93.86506,81,60,40
93.86506,94.042015,73,60,40
94.233284,94.420784,77,60,40
94.420784,94.608284,82,64,40
94.608284,94.79188,73,68,40
94.795784,94.983284,85,72,40
94.983284,95.16688,77,77,40
95.170784,95.358284,89,82,40
95.358284,95.54188,80,87,40
95.545784,96.1227,89,92,40
96.1227,96.311005,91,92,40
96.31501,96.89194,91,92,40
96.89194,97.08024,92,92,40
97.08424,97.46886,92,92,40
97.46886,97.78937,83,75,40
98.6227,100.201645,65,92,40
100.201645,100.793755,65,60,40
100.793755,100.98701,67,75,40
100.99112,101.58322,67,75,40
101.58322,101.77648,68,60,40
101.780594,102.57006,68,60,40
102.57006,102.89901,65,60,40
103.16217,103.22796,65,60,40
103.359535,104.14901,70,75,40
104.14901,104.47795,64,60,40
104.74111,104.8069,64,60,40
104.93848,105.31348,68,60,40
105.31348,105.68848,65,60,40
105.68848,106.06348,62,60,40
106.06348,106.37598,63,60,40
106.43848,107.18848,64,75,40
107.18848,107.50098,65,60,40
107.56348,107.93848,58,60,40
107.93848,108.31348,68,60,40
108.31348,108.68848,65,60,40
108.68848,109.06348,61,60,40
109.06348,109.37598,62,65,40
109.43848,109.81348,74,70,40
109.81348,110.18848,70,75,40
110.18848,110.56348,64,80,40
110.56348,110.87598,65,86,40
110.93848,111.29142,75,92,40
111.29142,111.64436,74,92,40
111.64436,111.9973,72,92,40
111.9973,112.64436,70,92,40
112.703186,113.32083,68,82,40
113.409065,114.05612,67,72,40
114.114944,114.7326,65,62,40
114.82083,115.114944,65,51,40
115.173775,115.703186,65,45,40
115.703186,115.87598,67,45,40
115.879654,116.409065,67,45,40
116.409065,116.581856,68,45,40
116.58553,117.20318,68,45,40
117.9973,118.52671,67,45,40
118.52671,118.6995,69,46,40
118.70318,119.23259,69,46,40
119.23259,119.40539,70,48,40
119.409065,120.02671,70,48,40
120.82082,121.350235,69,52,40
121.350235,121.52303,71,54,40
121.52671,122.05612,71,54,40
122.05612,122.22891,72,56,40
122.23259,122.850235,72,56,40
122.93848,123.46789,69,59,40
123.46789,123.64068,71,61,40
123.644356,124.17377,71,61,40
124.17377,124.34656,72,63,40
124.350235,124.87965,81,63,40
124.87965,125.052444,83,65,40
125.05612,125.57938,83,65,40
125.57938,125.75016,84,67,40
125.75379,126.27705,81,67,40
126.27705,126.44783,83,69,40
126.45147,126.974724,83,69,40
126.974724,127.14551,84,71,40
127.14914,127.67239,84,72,40
127.67239,127.84318,86,75,40
127.84682,128.36406,86,76,40
128.36406,128.53288,87,79,40
128.53647,129.05371,84,80,40
129.05371,129.22253,86,83,40
129.22612,129.74336,86,84,40
129.74336,129.91219,87,87,40
129.91577,130.43301,87,88,40
130.43301,130.60184,88,91,40
130.60544,131.10542,88,92,40
131.10542,131.26863,89,92,40
131.93877,132.46817,88,92,40
132.46817,132.64098,89,92,40
133.35052,133.91302,89,92,40
133.91302,134.09662,91,92,40
134.10052,134.66302,91,92,40
134.66302,134.84662,92,92,40
134.85052,135.22552,92,92,40
135.22552,135.53802,83,92,40
135.97552,136.35052,72,92,40
136.35052,136.9869,68,92,40
137.44144,137.74446,75,92,40
137.80507,138.42271,72,92,40
138.86389,139.21683,84,92,40
139.21683,139.71683,80,75,40
139.71683,139.88004,78,75,40
139.8835,140.05017,75,60,40
140.05017,140.21683,68,60,40
140.21683,140.3835,72,60,40
140.3835,140.55017,75,60,40
140.55017,141.05017,80,60,40
141.05017,141.21336,78,60,40
141.21683,141.3835,75,60,40
141.3835,141.55017,68,60,40
141.55017,141.71683,72,60,40
141.71683,141.8835,75,60,40
141.8835,142.16127,80,60,40
142.21683,142.80017,78,60,40
142.8835,143.21683,75,71,40
143.21683,143.50092,72,77,40
143.55774,144.0163,66,83,40
144.07512,144.15968,81,92,40
144.25159,144.33615,78,92,40
144.42805,144.51262,75,92,40
144.60454,144.77498,76,92,40
144.77498,144.9419,80,91,40
144.94543,145.11589,80,90,40
145.11589,145.28279,78,89,40
145.28635,145.4568,78,88,40
145.4568,145.6237,76,87,40
145.62726,145.79771,76,86,40
145.79771,145.96461,73,85,40
145.96817,146.13863,73,84,40
146.13863,146.30553,71,83,40
146.30908,146.47954,71,82,40
146.47954,146.64644,70,81,40
146.64998,146.82043,70,79,40
146.82043,146.98735,68,77,40
146.99089,147.16135,68,75,40
147.16135,147.32825,64,75,40
147.67271,148.01363,80,75,40
148.01363,148.61021,76,78,40
149.03635,149.37726,83,88,40
149.37726,149.97385,80,92,40
150.39998,150.74089,92,75,40
150.74089,151.25226,88,60,40
151.25226,151.41916,86,45,40
151.42271,151.59317,83,45,40
151.59317,151.76363,76,45,40
151.76363,151.93408,80,45,40
151.93408,152.10452,83,45,40
152.10452,152.61589,88,45,40
152.61589,152.78279,86,52,40
152.78635,152.9568,83,54,40
152.9568,153.12726,76,56,40
153.12726,153.29771,80,58,40
153.29771,153.46817,83,60,40
153.46817,153.75226,88,62,40
153.80907,154.31688,86,67,40
154.32043,154.40211,83,74,40
154.49089,154.57257,80,76,40
154.66135,154.74303,76,78,40
154.8318,154.91348,74,80,40
155.00226,155.08394,71,82,40
155.17271,155.25438,64,84,40
155.34317,155.42484,76,88,40
155.51363,155.68407,81,92,40
155.68407,155.85098,79,92,40
155.85452,156.02498,79,92,40
156.02498,156.19188,77,92,40
156.19543,156.36589,77,92,40
156.36589,156.53279,76,92,40
156.53635,156.7068,76,92,40
156.7068,156.8737,72,92,40
156.87726,157.04771,72,92,40
157.04771,157.21461,71,89,40
157.21817,157.38863,71,86,40
157.38863,157.55553,69,83,40
157.55907,157.72952,69,80,40
157.72952,157.89642,67,77,40
157.89998,158.07043,67,74,40
158.07043,158.23734,64,71,40
158.5818,158.92271,70,60,40
158.92271,159.26361,71,60,40
159.26361,159.54771,66,60,40
159.94543,160.28635,72,60,40
160.28635,160.62726,78,63,40
160.62726,160.91135,71,66,40
161.30907,161.64998,78,72,40
161.64998,162.67271,79,76,40
162.67271,162.9568,71,88,40
163.01361,163.69543,83,92,40
163.69543,164.03635,84,75,40
164.03635,164.32043,79,75,40
164.37726,164.71815,77,75,40
164.71815,165.00226,76,75,40
166.42271,167.10452,76,60,40
167.10452,167.44543,77,60,40
167.44543,167.72952,72,60,40
167.78635,168.12726,71,60,40
168.12726,168.41135,69,68,40
168.46815,168.80907,65,76,40
168.80907,169.09315,63,84,40
169.14998,169.32043,64,92,40
169.32043,169.48734,59,92,40
169.49089,169.66135,59,92,40
169.66135,169.82825,64,92,40
169.8318,170.00226,64,92,40
170.00226,170.16916,57,90,40
170.1727,170.34315,57,88,40
170.34315,170.51007,64,86,40
170.51361,170.68407,64,84,40
170.68407,170.85097,59,81,40
170.85452,171.02498,59,78,40
171.02498,171.19188,64,75,40
171.19543,171.36589,64,72,40
171.36589,171.53279,57,69,40
171.53635,171.7068,57,66,40
171.7068,171.8737,64,63,40
171.87726,172.0477,64,60,40
172.0477,172.21461,59,60,40
172.21815,172.38861,59,60,40
172.38861,172.55551,64,60,40
172.55907,172.72952,64,60,40
172.72952,172.89642,71,60,40
172.89998,173.07043,71,60,40
173.07043,173.23734,76,60,40
173.24089,173.41135,76,60,40
173.41135,173.57825,71,63,40
173.5818,173.75224,71,66,40
173.75224,173.91916,76,69,40
173.9227,174.09918,76,72,40
174.09918,174.27197,83,75,40
174.27565,174.45212,83,78,40
174.45212,174.62491,88,81,40
174.96191,175.07997,81,92,40
175.12859,175.24664,77,92,40
175.29526,175.41331,79,92,40
175.46191,175.57997,76,92,40
175.62859,175.74664,77,92,40
175.79526,175.85081,74,92,40
175.96191,176.1251,76,92,40
176.12859,176.29178,72,92,40
176.29526,176.45845,76,92,40
176.46191,176.6251,84,92,40
176.62859,176.79178,88,92,40
176.79526,176.95845,84,92,40
176.96191,177.1251,76,92,40
177.12859,177.29178,84,92,40
177.29526,177.45845,82,92,40
177.46191,177.6251,74,92,40
177.62859,177.79178,77,92,40
177.79526,177.95845,86,91,40
177.96191,178.1251,84,91,40
178.12859,178.29178,76,90,40
178.29526,178.45845,79,89,40
178.46191,178.6251,76,88,40
178.62859,178.79178,82,87,40
178.79524,178.95845,77,86,40
178.96191,179.1251,74,85,40
179.12859,179.29178,77,84,40
179.29524,179.45845,76,83,40
179.46191,179.6251,72,82,40
179.62859,179.79178,71,81,40
179.79524,179.95845,68,80,40
180.29524,180.4133,76,77,40
180.46191,180.57997,72,76,40
180.62859,180.74664,74,75,40
180.79524,180.9133,71,74,40
180.96191,181.07997,72,73,40
181.12859,181.18414,69,72,40
181.29524,181.45844,71,71,40
181.46191,181.6251,67,70,40
181.62859,181.79178,71,69,40
181.79524,181.95844,79,68,40
181.96191,182.1251,83,67,40
182.12859,182.29178,79,66,40
182.29524,182.45844,71,65,40
182.46191,182.6251,79,64,40
182.96191,183.07997,79,60,40
183.12859,183.24663,75,60,40
183.29524,183.4133,77,60,40
183.46191,183.57997,74,60,40
183.62857,183.74663,75,60,40
183.79524,183.8508,72,60,40
183.96191,184.1251,74,60,40
184.12857,184.29178,71,60,40
184.29524,184.45844,74,60,40
184.46191,184.6251,83,60,40
184.62857,184.79178,86,60,40
184.79524,184.95844,83,60,40
184.96191,185.1251,79,60,40
185.12857,185.29176,83,60,40
186.12857,186.20844,71,92,40
186.29524,186.3751,74,92,40
186.46191,186.54176,67,92,40
186.62857,187.12857,79,92,40
187.12857,187.18413,77,92,40
187.29524,187.79524,76,92,40
187.79524,187.8508,74,92,40
187.96191,188.46191,72,92,40
188.46191,188.51746,76,92,40
188.62857,189.12857,77,92,40
189.12857,189.18413,79,92,40
189.29524,189.79524,81,92,40
189.79524,189.95844,84,92,40
189.9619,190.29524,84,92,40
190.29524,190.57301,74,92,40
190.62857,191.12857,81,92,40
191.12857,191.29176,84,92,40
191.29524,191.62857,84,92,40
191.62857,191.90634,74,92,40
191.9619,192.79524,83,75,40
192.79524,192.9619,81,75,40
192.9619,193.12857,79,74,40
193.12857,193.29524,81,73,40
193.29524,193.4619,79,72,40
193.4619,193.62857,77,71,40
193.62857,193.79523,75,70,40
193.79523,193.9619,77,69,40
193.9619,194.12857,75,68,40
194.12857,194.29523,74,66,40
194.29523,194.4619,72,64,40
194.4619,194.62509,74,62,40
194.62857,195.4619,72,60,40
195.4619,195.62857,70,60,40
195.62857,195.79523,69,60,40
195.79523,195.9619,70,60,40
195.9619,196.13235,69,60,40
196.13235,196.30281,67,59,40
196.30281,196.47327,66,57,40
196.47327,196.64372,67,55,40
196.64372,196.82019,65,53,40
196.82019,196.99666,63,51,40
196.99666,197.17313,62,49,40
197.17313,197.34592,63,47,40
197.3496,197.52655,62,45,40
198.0725,198.24945,63,45,40
198.98288,199.35397,60,45,40
199.35788,199.85788,60,45,40
199.92038,200.10397,57,45,40
200.67038,200.85397,62,45,40
201.42038,201.60397,62,57,40
201.98288,202.35397,62,66,40
202.35788,202.85788,62,72,40
202.92038,203.29538,79,84,40
203.29538,203.59659,84,92,40
203.65683,204.13875,82,92,40
204.19899,204.37971,81,88,40
204.37971,204.56044,79,87,40
204.56044,204.74117,81,86,40
204.74117,204.91763,79,85,40
204.91763,205.09042,77,84,40
205.0941,205.56468,80,83,40
205.6235,205.79999,79,79,40
205.79999,205.97646,77,78,40
205.97646,206.15292,79,77,40
206.15292,206.31982,77,76,40
206.32338,206.49384,76,75,40
206.49384,206.66429,79,74,40
206.66429,206.83119,72,72,40
207.00519,207.17564,73,68,40
207.17564,207.3461,76,66,40
207.3461,207.513,69,64,40
207.68323,207.8499,74,60,40
207.8499,208.01656,77,60,40
208.01656,208.17975,72,60,40
208.34988,208.51656,71,60,40
208.51656,208.68323,74,60,40
208.68323,208.84642,67,60,40
209.01656,209.18323,76,60,40
209.18323,209.34988,79,62,40
209.34988,209.51309,72,64,40
209.68323,209.84988,76,68,40
209.84988,210.01656,80,70,40
210.01656,210.17975,72,72,40
210.34988,210.51656,76,76,40
210.51656,210.68323,81,78,40
210.68323,210.84642,72,80,40
210.84988,211.01656,82,82,40
211.01656,211.17975,72,84,40
211.18323,211.34988,83,86,40
211.34988,211.51308,71,89,40
211.51656,212.01656,84,92,40
212.01656,212.17975,83,92,40
212.18323,212.68323,81,92,40
212.68323,212.84642,79,92,40
212.84988,213.34988,77,92,40
213.34988,213.51308,76,86,40
213.51656,213.68321,74,84,40
213.68321,213.84988,72,82,40
213.84988,214.01308,71,80,40
214.01656,214.18321,69,78,40
214.18321,214.34988,72,76,40
214.34988,214.51308,65,74,40
214.68321,214.84988,69,70,40
214.84988,215.01656,73,68,40
215.01656,215.17975,65,66,40
215.34988,215.51656,69,62,40
215.51656,215.68321,74,60,40
215.68321,215.8464,65,60,40
215.84988,216.01656,77,60,40
216.01656,216.17975,69,64,40
216.18321,216.34988,81,68,40
216.34988,216.51308,69,72,40
216.51656,216.68321,76,77,40
216.68321,216.8464,64,82,40
217.01656,217.0964,71,92,40
217.18321,217.26308,74,92,40
217.34988,217.42975,68,92,40
217.51656,218.01656,80,92,40
218.01656,218.17975,81,92,40
218.18321,218.68321,82,92,40
218.68321,218.8464,81,82,40
218.84988,219.01654,79,79,40
219.01654,219.18321,77,76,40
219.18321,219.34988,76,72,40
219.34988,219.51308,74,68,40
219.68321,219.84988,74,60,40
219.84988,220.01654,77,60,40
220.01654,220.17973,70,60,40
220.34988,220.51654,74,60,40
220.51654,220.68321,78,60,40
220.68321,220.8464,70,60,40
221.02429,221.19872,74,60,40
221.19872,221.37314,79,64,40
221.37314,221.54391,70,68,40
221.54755,221.72827,82,72,40
221.72827,221.90523,74,77,40
221.909,222.08972,86,82,40
222.08972,222.26668,77,87,40
222.27045,222.83295,86,92,40
222.83295,223.01654,88,92,40
223.02045,223.58295,88,92,40
223.58295,223.76654,89,92,40
223.77045,224.14545,89,92,40
224.14545,224.45795,80,75,40
225.27045,226.77045,74,75,40
226.77045,227.33295,74,60,40
227.33295,227.51654,76,60,40
227.52045,228.08295,76,60,40
228.08295,228.26654,77,60,40
228.27045,228.99333,77,84,40
228.99333,229.29454,74,45,40
229.5355,229.59575,74,45,40
229.71622,230.43912,79,84,40
230.43912,230.74031,73,45,40
230.98128,231.04152,73,45,40
231.162,231.51083,77,45,40
231.51083,231.85968,74,45,40
231.85968,232.20851,71,45,40
232.20851,232.4992,72,45,40
232.55736,233.25502,73,63,40
233.25502,233.54572,74,45,40
233.60387,233.9527,67,45,40
233.9527,234.30153,79,45,40
234.30153,234.65038,75,50,40
234.65038,234.9992,69,56,40
234.9992,235.2899,70,62,40
235.34805,235.68895,82,68,40
235.68895,236.02986,79,74,40
236.02986,236.37077,74,80,40
236.37077,236.65486,75,86,40
236.71169,237.04501,87,92,40
237.04501,237.37834,84,92,40
237.37834,237.71169,80,92,40
237.71169,238.3228,79,92,40
238.37834,239.04501,78,92,40
239.04501,239.71169,76,79,40
239.71169,240.37834,74,66,40
240.37834,240.65613,69,52,40
240.71169,241.21169,74,45,40
241.21169,241.37488,76,45,40
241.37834,241.87834,76,51,40
241.87834,242.04153,77,69,40
242.04501,242.71167,77,75,40
242.71167,242.98946,74,60,40
243.21167,243.26723,74,45,40
243.37834,244.04501,81,63,40
244.04501,244.32278,75,48,40
244.54501,244.60057,76,51,40
244.71167,245.37834,79,51,40
245.37834,245.65611,78,55,40
245.87834,245.9339,78,58,40
246.04501,246.71167,83,59,40
246.71167,246.87486,77,63,40
247.21167,247.37486,78,66,40
247.37834,248.045,81,67,40
248.045,248.32278,79,71,40
248.545,248.7082,79,74,40
248.71167,249.37834,84,75,40
249.37834,249.54153,79,79,40
249.87834,250.04153,79,82,40
250.045,250.71167,88,83,40
250.71167,250.87486,82,87,40
251.21167,251.37486,82,90,40
251.37834,251.96167,91,92,40
252.045,252.98944,91,92,40
253.045,253.62833,91,92,40
253.71167,254.32277,91,92,40
254.37833,254.96167,91,92,40
255.045,255.65611,91,92,40
255.71167,256.29498,88,92,40
256.37833,256.98944,88,92,40
257.04498,257.62833,89,92,40
257.71167,258.32278,87,89,40
258.37833,258.96167,86,86,40
259.04498,259.6561,84,82,40
259.71167,260.29498,82,78,40
260.37833,261.00235,80,74,40
261.0605,261.67096,77,70,40
261.75818,262.04886,75,66,40
262.8299,263.8653,74,60,40
265.85278,266.9861,74,45,40
268.42926,268.48807,62,75,40
268.6057,268.7724,62,75,40
268.7724,268.93558,65,76,40
268.93906,269.1057,65,77,40
269.1057,269.26892,71,78,40
269.2724,269.43906,71,79,40
269.43906,269.60226,74,80,40
269.6057,269.7724,74,81,40
269.7724,269.93558,77,82,40
269.93906,270.1057,77,83,40
270.1057,270.26892,83,84,40
270.2724,270.44284,83,85,40
270.44284,270.60974,86,86,40
270.6133,270.79404,86,88,40
270.79404,270.97098,89,90,40
270.97476,271.53726,89,92,40
271.53726,271.72086,91,92,40
271.72476,272.28726,91,92,40
272.28726,272.47086,92,92,40
272.47476,272.84976,92,92,40
272.84976,273.16226,83,75,40
273.78726,273.97086,84,75,40
273.97476,274.3277,87,74,40
274.3277,274.6218,78,72,40
275.21005,275.38284,79,67,40
275.3865,275.73944,82,66,40
275.73944,276.03357,73,64,40
276.44534,276.73944,74,60,40
276.79828,277.63162,70,60,40
277.63162,277.7948,77,60,40
277.79828,277.96494,77,60,40
277.96494,278.12814,82,60,40
278.1316,278.96494,72,60,40
278.96494,279.12814,77,65,40
279.1316,279.29828,77,66,40
279.29828,279.46146,84,67,40
279.46494,280.29828,74,67,40
280.29828,280.46146,79,72,40
280.46494,280.6316,79,73,40
280.6316,280.7948,86,74,40
280.79828,280.96494,77,75,40
280.96494,281.12814,84,76,40
281.1316,281.29828,84,77,40
281.29828,281.46146,89,78,40
281.46494,281.6316,77,79,40
281.6316,281.7948,84,80,40
281.79828,281.96494,84,81,40
281.96494,282.12814,89,82,40
282.1316,282.29828,79,83,40
282.29828,282.46146,86,84,40
282.46494,282.6316,86,85,40
282.6316,282.7948,91,86,40
282.79828,282.96494,79,87,40
282.96494,283.12814,86,88,40
283.1316,283.29828,86,89,40
283.29828,283.46146,91,90,40
283.46494,284.3816,92,92,40
284.46494,284.79828,87,92,40
284.79828,285.1316,84,89,40
285.1316,285.46494,80,86,40
285.46494,285.79828,75,83,40
285.79828,286.07605,72,79,40
286.1316,286.71494,68,75,40
286.79828,286.96494,67,75,40
286.96494,287.1281,74,72,40
287.1316,287.29828,74,68,40
287.29828,287.46146,77,64,40
287.46494,288.04828,72,60,40
288.1316,288.29825,71,60,40
288.29825,288.46146,74,60,40
288.46494,288.6316,74,60,40
288.6316,288.7948,83,60,40
288.79825,289.3816,83,60,40
289.46494,289.79825,84,62,40
289.79825,290.1316,79,63,40
290.1316,290.46494,77,63,40
290.46494,290.7427,75,64,40
290.79825,291.1316,73,65,40
291.1316,291.40936,79,66,40
291.46494,291.6316,78,67,40
291.6316,291.7948,73,67,40
291.79825,291.96494,73,67,40
291.96494,292.1281,74,67,40
292.1316,292.96494,74,67,40
292.96494,293.1281,73,69,40
293.1316,293.29825,73,69,40
293.29825,293.46146,74,69,40
293.46494,294.2948,74,69,40
294.29825,294.46146,76,71,40
294.46494,294.6316,76,71,40
294.6316,294.7948,77,71,40
294.79825,295.6316,77,71,40
295.6316,295.79477,76,74,40
295.79825,295.96494,76,74,40
295.96494,296.1281,77,74,40
296.1316,296.96494,77,74,40
296.96494,297.1281,76,77,40
297.1316,297.29825,76,78,40
297.29825,297.46146,77,79,40
297.46494,297.6316,77,80,40
297.6316,297.79477,76,81,40
297.79825,297.96494,76,82,40
297.96494,298.1281,77,83,40
298.1316,298.29825,77,84,40
298.29825,298.46146,79,85,40
298.4649,298.6316,79,86,40
298.6316,298.79477,80,87,40
298.79825,298.9649,80,88,40
298.9649,299.1281,84,89,40
299.1316,299.29825,84,90,40
299.29825,299.46146,89,91,40
299.4649,299.9649,92,92,40
299.9649,300.1281,91,92,40
300.1316,300.6316,91,92,40
300.6316,300.79477,89,92,40
300.79825,300.9649,89,92,40
300.9649,301.1316,84,90,40
301.1316,301.29825,84,87,40
301.29825,301.46146,80,84,40
301.4649,301.6316,80,81,40
301.6316,301.79477,77,78,40
301.79825,301.9649,77,75,40
301.9649,302.1281,72,75,40
302.1316,302.6316,77,92,40
302.6316,302.79477,75,92,40
302.79825,303.29825,75,92,40
303.29825,303.46146,73,92,40
303.4649,303.6316,73,92,40
303.6316,303.79477,68,91,40
303.79825,303.9649,68,89,40
303.9649,304.1281,65,87,40
304.1316,304.29825,65,85,40
304.29825,304.46146,61,83,40
304.4649,304.6316,61,81,40
304.6316,304.79477,56,79,40
304.9649,305.1281,65,75,40
305.1316,305.29825,65,75,40
305.29825,305.46143,77,75,40
305.4649,305.6316,77,75,40
305.6316,305.79477,76,75,40
305.79825,305.9649,76,75,40
305.9649,306.1281,77,75,40
306.1316,306.29825,58,75,40
306.29825,306.46143,70,75,40
306.4649,306.6316,70,75,40
306.6316,306.79477,77,75,40
306.79825,306.9649,77,75,40
306.9649,307.1281,88,75,40
307.1316,307.29825,88,75,40
307.29825,307.46143,89,75,40
307.4649,307.6316,89,75,40
307.6316,307.79477,86,75,40
307.79825,307.9649,86,75,40
307.9649,308.1281,83,75,40
308.1316,308.29825,83,75,40
308.29825,308.46143,79,75,40
308.4649,308.63156,79,75,40
308.63156,308.79477,80,75,40
308.79825,308.9649,80,75,40
308.9649,309.1281,77,75,40
309.13156,309.29825,77,75,40
309.29825,309.46143,74,75,40
309.4649,309.63156,74,75,40
309.63156,309.79477,71,75,40
309.79825,309.9649,71,75,40
309.9649,310.1281,72,75,40
310.13156,310.29825,72,75,40
310.29825,310.46143,68,75,40
310.4649,310.63156,68,75,40
310.63156,310.79477,63,75,40
310.79825,310.9649,63,75,40
310.9649,311.1281,60,75,40
311.13156,311.29825,60,75,40
311.29825,311.46143,56,75,40
311.4649,312.38156,56,75,40
312.4649,312.6281,56,92,40
312.4649,312.71143,63,92,40
312.54825,312.71143,72,92,40
312.79825,313.24268,60,105,40
312.79825,313.24268,68,105,40
313.79825,313.96143,62,75,40
313.79825,314.04477,71,75,40
313.88156,314.04477,77,75,40
314.13156,314.57602,60,105,40
314.13156,314.57602,72,105,40
315.13156,315.29477,62,92,40
315.13156,315.37808,74,92,40
315.2149,315.37808,86,92,40
315.4649,315.62808,62,92,40
315.4649,316.07602,74,92,40
315.54825,316.07602,83,92,40
316.13156,316.4649,84,92,40
316.4649,316.74268,78,92,40
316.79825,316.96143,79,92,40
317.13156,317.29477,72,92,40
317.4649,317.62808,79,92,40
317.79825,317.96143,71,92,40
318.13156,318.7149,86,92,40
318.79822,319.13156,87,92,40
319.13156,319.40933,78,92,40
319.4649,319.62808,79,92,40
319.79822,319.96143,72,92,40
320.13156,320.29477,79,92,40
320.4649,320.62808,71,92,40
321.12433,321.4504,72,92,40
321.4504,321.7765,70,92,40
321.7765,322.10257,68,92,40
322.10257,322.3743,67,92,40
322.42865,322.9993,55,92,40
322.42865,322.9993,67,92,40
323.08084,323.67288,55,92,40
323.08084,323.67288,67,92,40
323.72607,324.04523,72,92,40
324.04523,324.36435,70,92,40
324.36435,324.6835,68,92,40
324.6835,324.94946,67,92,40
325.00266,325.56116,55,92,40
325.00266,325.56116,67,92,40
325.64096,326.22052,55,92,40
325.64096,326.22052,67,92,40
326.2726,326.5851,79,92,40
326.5851,326.8976,77,91,40
326.8976,327.2101,75,90,40
327.2101,327.47052,73,89,40
327.5226,328.0695,73,88,40
328.1476,328.72052,73,86,40
328.7726,329.3195,72,84,40
329.3976,329.97052,72,81,40
330.0226,330.5695,71,79,40
330.6476,330.8006,71,75,40
330.9601,331.1131,72,75,40
331.2726,331.8195,68,75,40
331.8976,332.47052,66,73,40
332.5226,333.0695,67,71,40
333.1476,333.72052,62,69,40
333.7726,334.3195,63,67,40
334.3976,334.97052,59,65,40
335.0226,335.5695,59,63,40
335.6476,336.8195,59,60,40
336.8976,337.15802,59,60,40
337.2101,337.3601,60,60,40
337.3601,337.507,62,62,40
337.5101,337.6601,62,64,40
337.6601,337.80698,63,66,40
337.8101,337.9601,63,68,40
337.9601,338.10696,67,70,40
338.1101,338.2601,72,72,40
338.2601,338.40698,74,74,40
338.4101,338.55716,74,76,40
338.55716,338.70114,75,78,40
338.70422,338.8513,75,80,40
338.8513,338.99527,79,82,40
338.99835,339.1454,79,84,40
339.1454,339.2894,84,86,40
339.29245,339.4395,84,88,40
339.4395,339.5835,87,90,40
339.58658,339.90237,87,92,40
339.90237,340.16553,78,75,40
340.84973,341.02252,72,92,40
340.84973,341.02252,79,92,40
341.5556,341.75143,55,92,40
341.5556,341.85144,62,92,40
341.6556,341.85144,71,92,40
342.35562,342.94937,55,92,40
342.35562,344.0056,63,92,40
342.5056,344.0056,72,92,40
1.333332,1.895832,77,75,40
1.895832,2.0794258,79,75,40
2.083332,2.645832,79,78,40
2.645832,2.8294258,80,88,40
2.833332,3.208332,80,92,40
3.208332,3.520832,71,92,40
4.708332,5.083332,60,75,40
5.083332,5.739582,62,75,40
6.208332,6.583332,65,75,40
6.583332,7.239582,62,74,40
7.708332,8.083332,74,71,40
8.083332,8.739582,67,70,40
9.208332,9.583332,72,66,40
9.583332,10.239582,67,64,40
10.333332,10.516926,69,60,40
11.458332,11.641926,66,60,40
11.833332,12.012447,67,62,40
12.930891,13.110006,67,69,40
13.296744,13.4737015,62,71,40
13.296744,13.4737015,69,71,40
14.381079,14.558037,62,78,40
14.381079,14.558037,69,78,40
14.742524,14.917375,62,80,40
14.742524,14.917375,71,80,40
15.81395,15.988801,71,88,40
16.171091,16.694347,72,92,40
16.694347,16.865131,71,75,40
16.868767,17.380129,71,75,40
17.380129,17.547033,72,75,40
17.550585,17.841282,72,75,40
18.95414,19.14164,77,92,40
19.14164,19.325233,75,92,40
19.32914,19.51664,75,92,40
19.51664,19.700233,73,90,40
19.70414,19.89164,73,88,40
19.89164,20.075233,72,86,40
20.07914,20.26664,72,84,40
20.26664,20.450233,68,82,40
20.45414,20.64164,68,80,40
20.64164,20.825233,67,78,40
20.82914,21.01664,67,76,40
21.01664,21.200233,65,74,40
21.20414,21.39164,65,72,40
21.39164,21.575233,63,70,40
21.57914,21.76664,63,68,40
21.76664,21.950233,60,66,40
22.315584,22.67703,60,60,40
22.67703,23.309559,62,60,40
23.752861,24.105803,65,60,40
24.105803,24.723448,62,62,40
25.152594,25.493502,74,71,40
25.493502,25.834412,67,74,40
25.834412,26.118502,69,77,40
26.17532,26.342224,55,80,40
26.17532,26.42745,63,80,40
26.260548,26.42745,72,80,40
26.857138,27.024042,55,84,40
26.857138,27.024042,62,84,40
26.857138,27.024042,71,84,40
27.538956,27.879866,80,92,40
27.879866,28.163956,77,92,40
28.220774,28.561684,75,92,40
28.561684,28.845774,72,92,40
28.902592,29.073378,55,92,40
28.902592,29.160585,63,92,40
28.989801,29.160585,72,92,40
29.600266,29.777224,55,92,40
29.600266,29.867584,62,92,40
29.690628,29.867584,71,92,40
30.323156,30.823156,67,92,40
30.823156,30.98635,66,92,40
30.989822,31.489822,66,92,40
31.489822,31.653015,67,92,40
31.656488,31.934265,67,92,40
32.98982,33.48982,77,87,40
33.48982,33.653015,79,85,40
33.656487,34.156487,79,85,40
34.156487,34.31968,80,83,40
34.32315,34.60093,80,83,40
35.656483,36.156483,74,76,40
36.156483,36.31968,75,73,40
36.32315,36.82315,72,72,40
36.82315,36.986343,67,69,40
36.989815,37.267593,67,68,40
38.323147,38.823147,72,60,40
38.823147,38.986343,74,60,40
38.989815,39.489815,74,60,40
39.489815,39.653008,75,60,40
39.65648,39.934258,75,60,40
40.98981,41.48981,67,60,40
41.48981,41.653008,68,62,40
41.65648,42.15648,68,62,40
42.15648,42.31967,67,65,40
42.323143,42.823143,67,66,40
42.823143,42.98634,68,69,40
42.98981,43.48981,68,70,40
43.48981,43.653004,67,73,40
43.656475,43.934254,67,74,40
46.81858,47.151913,60,92,40
47.151913,47.485245,58,92,40
47.485245,47.81858,56,92,40
47.81858,48.096355,55,92,40
48.151913,48.485245,63,92,40
48.485245,48.818577,67,90,40
48.818577,49.096355,63,88,40
49.151913,49.485245,61,86,40
49.485245,49.818577,65,84,40
49.818577,50.15191,63,81,40
50.15191,50.429688,58,78,40
50.485245,50.818577,61,75,40
50.818577,51.15191,56,72,40
51.15191,51.429688,55,69,40
52.15191,52.48524,63,60,40
52.48524,52.818573,62,60,40
52.818573,53.15191,60,60,40
53.15191,53.429684,58,70,40
53.48524,53.818573,70,81,40
53.818573,54.151905,74,92,40
54.151905,54.429684,70,75,40
54.818573,55.151905,66,60,40
55.151905,55.485237,65,60,40
55.485237,55.81857,63,68,40
55.81857,56.096348,62,76,40
56.151905,56.485237,74,84,40
56.485237,56.81857,77,92,40
56.81857,57.096348,70,75,40
58.6519,58.731762,62,92,40
58.81857,58.89843,65,92,40
58.985233,59.065094,58,92,40
59.1519,59.6519,70,92,40
59.6519,59.707455,68,92,40
59.818565,60.318565,67,92,40
60.318565,60.374123,73,68,40
60.485233,60.985233,72,60,40
60.985233,61.040787,75,60,40
61.151897,61.651897,75,60,40
61.651897,61.815094,72,84,40
61.818565,62.151897,72,92,40
62.151897,62.429676,75,60,40
62.48523,62.98523,75,60,40
62.98523,63.148426,72,84,40
63.151897,63.48523,72,92,40
63.48523,63.76301,75,60,40
63.81856,63.98523,74,92,40
63.98523,64.15189,62,92,40
64.15189,64.318565,63,92,40
64.318565,64.48176,65,84,40
64.48523,64.818565,66,76,40
64.818565,65.51334,78,60,40
65.51334,66.23623,70,60,40
66.23623,66.53744,69,60,40
66.7784,66.95912,57,60,40
66.95912,67.13984,58,60,40
67.13984,67.320564,60,60,40
67.320564,68.79346,61,60,40
68.79346,69.10596,60,60,40
69.16846,69.54346,72,60,40
69.54346,69.85596,77,60,40
69.91846,70.41846,75,60,40
70.48096,70.66846,72,60,40
70.66846,70.85596,70,60,40
70.85596,71.03955,72,60,40
71.04346,71.42807,70,60,40
71.42807,72.10114,69,60,40
72.1973,72.58192,77,60,40
72.58192,72.90243,82,65,40
72.96653,73.47935,80,70,40
73.54345,73.73576,77,78,40
73.73576,73.92807,75,80,40
73.92807,74.11637,77,83,40
74.12038,74.50499,75,86,40
74.50499,75.17806,74,92,40
76.01178,76.364716,79,92,40
76.364716,76.71766,82,92,40
76.71766,77.01177,76,92,40
77.42354,77.77648,77,92,40
77.77648,78.129425,80,92,40
78.129425,78.42354,74,92,40
78.65884,79.01177,70,92,40
79.01177,79.18457,67,92,40
79.364716,79.71766,67,92,40
79.71766,79.89045,64,92,40
80.070595,80.42354,68,92,40
80.42354,80.59633,65,92,40
80.77648,81.12942,65,92,40
81.12942,81.302216,62,92,40
81.48236,81.65883,67,92,40
81.65883,81.835304,70,92,40
81.835304,82.008095,63,92,40
82.18824,82.364716,67,92,40
82.364716,82.54118,71,92,40
82.54118,82.71398,63,92,40
82.89413,83.070595,67,92,40
83.070595,83.24707,72,92,40
83.24707,83.41986,63,92,40
83.42354,83.600006,73,92,40
83.600006,83.772804,63,92,40
83.77648,83.95295,74,92,40
83.95295,84.12574,62,92,40
84.12942,84.65883,84,92,40
84.65883,84.83163,82,92,40
84.835304,85.364716,81,92,40
85.364716,85.537506,79,92,40
85.54118,86.070595,77,92,40
86.070595,86.243385,75,80,40
86.24706,86.42354,74,76,40
86.42354,86.600006,72,72,40
86.600006,86.776474,71,68,40
86.776474,86.94927,72,64,40
87.12942,87.305885,60,60,40
87.305885,87.48236,63,60,40
87.48236,87.65515,56,60,40
87.8353,88.01177,60,60,40
88.01177,88.18824,64,60,40
88.18824,88.36104,56,60,40
88.54118,88.71765,60,60,40
88.71765,88.89412,65,60,40
88.89412,89.06692,56,60,40
89.070595,89.24706,66,60,40
89.24706,89.41986,56,60,40
89.42353,89.600006,67,60,40
89.600006,89.7728,55,60,40
89.776474,90.305885,68,60,40
90.305885,90.47868,67,60,40
90.48235,91.01177,65,60,40
91.01177,91.18456,63,60,40
91.36471,91.54118,76,60,40
91.54118,91.71765,79,60,40
91.71765,91.89044,72,60,40
92.070595,92.24706,68,60,40
92.24706,92.41985,72,60,40
92.42353,92.600006,65,60,40
92.600006,92.78072,68,60,40
92.78072,92.95768,61,60,40
93.14217,93.32289,65,60,40
93.32289,93.50362,69,60,40
93.50362,93.68057,61,60,40
93.86506,94.045784,65,60,40
94.045784,94.233284,70,63,40
94.233284,94.41688,61,66,40
94.420784,94.608284,65,69,40
94.608284,94.79188,58,72,40
94.795784,94.983284,65,76,40
94.983284,95.16688,56,80,40
95.170784,95.358284,61,84,40
95.358284,95.54188,56,88,40
95.545784,96.1227,77,92,40
96.1227,96.311005,79,92,40
96.31501,96.89194,79,92,40
96.89194,97.08024,80,92,40
97.08424,97.46886,80,92,40
97.46886,97.78937,71,75,40
98.6227,100.201645,63,92,40
100.201645,100.89243,62,60,40
100.99112,101.68191,62,60,40
101.780594,102.86611,62,60,40
103.16217,103.22796,62,60,40
103.359535,104.44506,61,60,40
104.74111,104.8069,61,60,40
104.93848,105.59473,60,60,40
105.68848,106.06348,59,60,40
106.06348,106.37598,58,60,40
106.43848,107.18848,61,75,40
107.18848,107.50098,62,60,40
107.93848,108.68848,62,60,40
108.68848,110.18848,65,60,40
110.18848,111.2326,70,78,40
111.29142,111.9973,63,92,40
111.9973,112.29142,67,92,40
112.35024,113.05612,65,87,40
113.05612,113.76201,64,77,40
113.76201,114.46789,60,67,40
114.46789,115.08553,63,56,40
115.173775,115.46789,62,45,40
116.58553,117.114944,63,45,40
117.114944,117.28774,65,45,40
117.29142,117.82083,65,45,40
117.82083,117.99362,58,45,40
117.9973,118.29142,58,45,40
118.70318,119.23259,66,45,40
119.23259,119.40539,65,47,40
119.409065,119.93848,65,47,40
119.93848,120.11127,67,49,40
120.114944,120.644356,67,49,40
120.644356,120.817154,60,51,40
120.82082,121.114944,60,51,40
122.23259,122.850235,69,78,40
123.644356,124.262,69,86,40
125.05612,125.66658,69,95,40
125.05612,125.66658,81,95,40
126.45147,127.061935,69,103,40
126.45147,127.061935,81,103,40
127.84682,128.36406,72,80,40
127.84682,128.36406,84,80,40
128.36406,128.53288,79,82,40
129.22612,129.74336,72,85,40
129.22612,129.74336,84,85,40
129.74336,129.91219,79,87,40
130.60544,131.10542,72,92,40
130.60544,131.10542,84,92,40
131.10542,131.26863,60,92,40
131.93877,132.46817,72,92,40
131.93877,132.46817,84,92,40
132.46817,132.64098,60,92,40
133.35052,133.53802,77,92,40
133.53802,133.72162,75,92,40
133.72552,133.91302,75,92,40
133.91302,134.09662,73,92,40
134.10052,134.28802,73,92,40
134.28802,134.47162,72,92,40
134.47552,134.66302,72,92,40
134.66302,134.84662,68,92,40
134.85052,135.03802,68,92,40
135.03802,135.22162,67,92,40
135.22552,135.41302,67,92,40
135.41302,135.59662,65,92,40
135.60052,135.78802,65,92,40
135.78802,135.97162,63,92,40
135.97552,136.16302,63,92,40
136.16302,136.34662,60,92,40
136.53235,136.61946,63,60,40
136.71416,136.89598,63,60,40
136.89598,137.074,60,60,40
137.25961,137.34674,63,60,40
137.44144,137.62326,63,62,40
137.62326,137.80128,60,65,40
137.98154,138.04036,68,71,40
138.158,138.33449,68,74,40
138.33449,138.50728,63,77,40
138.68742,138.74625,68,83,40
138.86389,139.04036,68,86,40
139.04036,139.21317,63,89,40
139.21683,139.55017,72,92,40
139.55017,139.82794,63,92,40
140.21683,140.8835,72,60,40
140.8835,141.16127,63,60,40
141.55017,142.21683,72,60,40
142.21683,142.49461,63,68,40
142.71683,143.05017,72,74,40
143.05017,143.21336,63,78,40
143.38728,143.7282,72,82,40
143.7282,143.8951,63,86,40
144.07512,144.15968,78,92,40
144.25159,144.33615,75,92,40
144.42805,144.51262,72,92,40
144.60454,144.77498,73,92,40
144.77498,144.9419,71,91,40
144.94543,145.11589,71,90,40
145.11589,145.28279,69,89,40
145.28635,145.4568,69,88,40
145.4568,145.6237,68,87,40
145.62726,145.79771,68,86,40
145.79771,145.96461,64,85,40
145.96817,146.13863,64,84,40
146.13863,146.30553,63,83,40
146.30908,146.47954,63,82,40
146.47954,146.64644,61,81,40
146.64998,146.82043,61,79,40
146.82043,146.98735,59,77,40
146.99089,147.16135,59,75,40
147.16135,147.32825,56,75,40
147.50226,147.55908,68,75,40
147.67271,147.84317,68,76,40
147.84317,148.01007,64,77,40
148.18408,148.24089,68,79,40
148.35452,148.52498,68,80,40
148.52498,148.6919,64,81,40
148.86589,148.92271,71,83,40
149.03635,149.2068,71,84,40
149.2068,149.3737,68,85,40
149.54771,149.60452,76,87,40
149.71817,149.88863,76,88,40
149.88863,150.05553,71,90,40
150.05908,150.39998,80,92,40
150.39998,150.85452,76,60,40
150.91135,151.0818,74,45,40
151.0818,151.25226,71,45,40
151.25226,151.42271,64,45,40
151.42271,151.59317,68,45,40
151.59317,151.76363,71,45,40
151.76363,152.21817,76,45,40
152.27498,152.44543,74,45,40
152.44543,152.61589,71,47,40
152.61589,152.78635,64,49,40
152.78635,152.9568,68,51,40
152.9568,153.12726,71,53,40
153.12726,153.29771,76,55,40
153.29771,153.46461,64,57,40
153.63863,153.80907,71,61,40
153.80907,153.97952,76,63,40
153.97952,154.14644,64,65,40
154.32043,154.49089,71,71,40
154.49089,154.66135,76,74,40
154.66135,154.82825,64,77,40
155.00226,155.08394,77,83,40
155.17271,155.25438,74,85,40
155.34317,155.42484,71,88,40
155.51363,155.68407,72,92,40
155.68407,155.85098,76,92,40
155.85452,156.02498,76,92,40
156.02498,156.19188,74,92,40
156.19543,156.36589,74,92,40
156.36589,156.53279,72,92,40
156.53635,156.7068,72,92,40
156.7068,156.8737,69,92,40
156.87726,157.04771,69,92,40
157.04771,157.21461,67,89,40
157.21817,157.38863,67,86,40
157.38863,157.55553,66,83,40
157.55907,157.72952,66,80,40
157.72952,157.89642,64,76,40
157.89998,158.07043,64,72,40
158.07043,158.23734,60,68,40
158.41135,158.46817,64,60,40
158.5818,158.75226,64,60,40
158.75226,158.91916,66,60,40
159.26361,159.54771,66,60,40
159.77498,159.8318,66,60,40
159.94543,160.11589,66,61,40
160.11589,160.28279,69,62,40
160.62726,160.91135,69,66,40
161.13861,161.19543,69,70,40
161.30907,161.47952,69,71,40
161.47952,161.64642,72,72,40
161.82043,161.87726,71,76,40
161.99089,162.16135,71,78,40
162.16135,162.32825,76,80,40
162.3318,162.50226,76,82,40
162.50226,162.66916,71,84,40
162.67271,162.84315,71,86,40
162.84315,163.01007,64,88,40
163.18407,163.24089,80,92,40
163.35452,163.52498,80,92,40
163.52498,163.69188,74,92,40
163.86589,163.92271,79,75,40
164.03635,164.2068,79,75,40
164.2068,164.3737,67,75,40
164.37726,164.54771,67,75,40
164.54771,164.71461,60,75,40
164.71815,164.88861,60,75,40
164.88861,165.05553,64,75,40
165.22952,165.28635,74,75,40
165.39998,165.57043,74,74,40
165.57043,165.73734,71,72,40
165.91135,165.96815,72,68,40
166.0818,166.25226,72,66,40
166.25226,166.41916,69,64,40
166.59315,166.64998,68,60,40
166.76361,166.93407,68,60,40
166.93407,167.10097,64,60,40
167.27498,167.3318,72,60,40
167.44543,167.61589,72,60,40
167.61589,167.78279,65,60,40
167.78635,167.95325,60,60,40
167.9568,168.29416,60,64,40
168.2977,168.63507,60,72,40
168.63861,168.97597,60,80,40
168.97952,169.14642,60,88,40
169.14998,169.66135,59,92,40
169.66135,169.82825,57,92,40
169.8318,170.34315,57,92,40
170.34315,170.51007,59,84,40
170.51361,171.02498,59,82,40
171.02498,171.19188,57,74,40
171.19543,171.7068,57,72,40
171.7068,171.8737,59,63,40
171.87726,172.16135,59,60,40
173.24089,173.41135,64,60,40
173.41135,173.57825,59,63,40
173.5818,173.75224,59,66,40
173.75224,173.91916,64,69,40
173.9227,174.09918,64,72,40
174.09918,174.27197,71,75,40
174.27565,174.45212,71,78,40
174.45212,174.62491,76,81,40
174.96191,175.29526,65,92,40
175.29526,175.62859,64,92,40
175.62859,175.96191,62,92,40
175.96191,176.2397,60,92,40
176.29526,176.62859,64,91,40
176.62859,176.96191,72,90,40
176.96191,177.2397,64,89,40
177.29526,177.62859,62,88,40
177.62859,177.96191,65,87,40
177.96191,178.2397,64,86,40
178.29526,178.62859,64,85,40
178.62859,179.21191,62,84,40
179.29524,179.62859,60,81,40
179.62859,179.90636,56,80,40
180.29524,180.62859,60,76,40
180.62859,180.96191,59,74,40
180.96191,181.29524,57,72,40
181.29524,181.57303,55,70,40
181.62859,182.29524,59,68,40
182.29524,182.57303,64,64,40
182.96191,183.29524,63,60,40
183.29524,183.62857,62,60,40
183.62857,183.96191,60,60,40
183.96191,184.23969,59,60,40
184.29524,184.87857,67,60,40
184.96191,185.29524,71,75,40
185.29524,185.62857,74,92,40
185.62857,185.90636,67,75,40
186.79524,186.8751,59,92,40
186.96191,187.04176,62,92,40
187.12857,187.20844,55,92,40
187.29524,187.79524,67,92,40
187.79524,187.8508,65,92,40
187.96191,188.46191,64,92,40
188.46191,188.51746,70,92,40
188.62857,189.12857,69,92,40
189.12857,189.18413,72,92,40
189.29524,189.79524,72,92,40
189.79524,189.95844,69,92,40
189.9619,190.29524,69,92,40
190.29524,190.57301,72,92,40
190.62857,191.12857,72,92,40
191.12857,191.29176,69,92,40
191.29524,191.62857,69,92,40
191.62857,191.90634,72,92,40
191.9619,192.12857,71,92,40
192.12857,192.29524,59,88,40
192.29524,192.4619,60,84,40
192.4619,192.62509,62,80,40
192.62857,193.2119,63,76,40
193.29524,194.29523,69,60,40
194.29523,194.57301,62,60,40
194.62857,195.87857,62,60,40
195.9619,196.64372,63,60,40
196.64372,196.93784,60,60,40
196.99666,197.3496,69,60,40
197.3496,197.6508,74,84,40
197.71104,198.19298,72,60,40
198.2532,198.43393,69,55,40
198.43393,198.61465,67,53,40
198.61465,198.79161,69,51,40
198.79538,199.17038,67,49,40
199.17038,199.82663,66,45,40
199.92038,200.29538,74,60,40
200.29538,200.60788,79,84,40
200.67038,201.17038,77,60,40
201.23288,201.42038,74,66,40
201.42038,201.60788,72,68,40
201.60788,201.79147,74,70,40
201.79538,202.17038,72,72,40
202.17038,202.82663,71,76,40
203.65683,204.01826,76,92,40
204.01826,204.37971,79,92,40
204.37971,204.68092,73,89,40
205.0941,205.44704,74,83,40
205.44704,205.79999,77,80,40
205.79999,206.0941,71,77,40
206.32338,206.66429,67,73,40
206.66429,206.83119,64,71,40
207.00519,207.3461,64,68,40
207.3461,207.513,61,64,40
207.68323,208.01656,65,60,40
208.01656,208.17975,62,60,40
208.34988,208.68323,62,60,40
208.68323,208.84642,59,60,40
209.01656,209.18323,64,60,40
209.18323,209.34988,67,62,40
209.34988,209.51309,60,64,40
209.68323,209.84988,64,68,40
209.84988,210.01656,68,70,40
210.01656,210.17975,60,72,40
210.34988,210.51656,64,76,40
210.51656,210.68323,69,78,40
210.68323,210.84642,60,80,40
210.84988,211.01656,70,82,40
211.01656,211.17975,60,84,40
211.18323,211.34988,71,86,40
211.34988,211.51308,59,89,40
211.51656,212.01656,81,92,40
212.01656,212.17975,79,92,40
212.18323,212.68323,78,92,40
212.68323,212.84642,76,92,40
212.84988,213.34988,74,92,40
213.34988,213.51308,72,87,40
213.51656,213.68321,71,86,40
213.68321,213.84988,69,84,40
213.84988,214.01656,68,82,40
214.01656,214.17975,69,80,40
214.34988,214.51656,57,76,40
214.51656,214.68321,60,74,40
214.68321,214.84642,65,72,40
215.01656,215.18321,57,68,40
215.18321,215.34988,61,66,40
215.34988,215.51308,65,64,40
215.68321,215.84988,57,60,40
215.84988,216.01656,62,60,40
216.01656,216.17975,65,60,40
216.18321,216.34988,63,60,40
216.34988,216.51308,69,68,40
216.51656,216.68321,68,76,40
216.68321,216.8464,64,84,40
216.84988,217.34988,77,92,40
217.34988,217.51308,76,92,40
217.51656,218.01656,74,92,40
218.01656,218.17975,72,92,40
218.34988,218.51654,73,92,40
218.51654,218.68321,76,89,40
218.68321,218.8464,69,86,40
219.01654,219.18321,65,80,40
219.18321,219.3464,69,77,40
219.34988,219.51654,62,74,40
219.51654,219.68321,65,71,40
219.68321,219.8464,58,68,40
220.01654,220.18321,62,60,40
220.18321,220.34988,66,60,40
220.34988,220.51308,58,60,40
220.68321,220.84988,62,60,40
220.84988,221.02429,67,63,40
221.02429,221.19508,58,66,40
221.19872,221.37314,70,69,40
221.37314,221.54391,62,72,40
221.54755,221.72827,65,75,40
221.72827,221.90523,74,78,40
221.909,222.08972,65,81,40
222.08972,222.26668,70,84,40
222.45795,222.64545,62,92,40
222.64545,222.83295,65,92,40
222.83295,223.01654,58,92,40
223.20795,223.39545,62,92,40
223.39545,223.58295,65,92,40
223.58295,223.76654,57,92,40
223.95795,224.14545,62,75,40
224.14545,224.33295,65,75,40
224.33295,224.51654,56,60,40
225.27045,226.6767,62,75,40
225.27045,226.6767,72,75,40
226.77045,227.4267,71,60,40
227.52045,228.1767,71,60,40
228.27045,229.26442,71,60,40
229.5355,229.59575,71,45,40
229.71622,230.71019,70,60,40
230.98128,231.04152,70,45,40
231.162,231.51083,69,45,40
231.51083,232.20851,68,60,40
232.20851,232.4992,67,45,40
232.55736,233.25502,70,63,40
233.25502,233.54572,71,45,40
233.9527,234.65038,70,45,40
234.65038,236.02986,67,56,40
236.02986,236.62645,70,80,40
236.71169,237.04501,68,92,40
237.04501,237.71169,75,92,40
237.71169,238.3228,76,92,40
238.37834,238.96169,74,92,40
239.04501,240.62834,72,79,40
240.71169,240.98946,71,45,40
241.37834,241.65613,71,45,40
242.04501,242.96167,71,75,40
243.21167,243.26723,69,45,40
243.37834,244.04501,72,63,40
244.04501,244.2082,72,48,40
244.54501,244.60057,73,50,40
244.71167,245.37834,73,51,40
245.37834,245.65611,75,55,40
245.87834,245.9339,75,58,40
246.04501,246.62834,74,59,40
246.71167,246.87486,74,63,40
247.21167,247.37486,75,66,40
247.37834,248.045,75,67,40
248.045,248.32278,76,71,40
248.545,248.7082,76,74,40
248.71167,249.295,76,75,40
249.37834,249.4339,76,79,40
249.87834,250.04153,76,82,40
250.045,250.62834,79,83,40
250.71167,250.87486,79,87,40
251.21167,251.37486,79,90,40
251.37834,252.98944,88,92,40
253.045,253.37833,87,92,40
253.37833,253.65611,88,92,40
253.71167,254.32277,86,92,40
254.37833,254.71167,84,92,40
254.71167,254.98944,86,92,40
255.045,255.65611,84,92,40
255.71167,256.04498,82,92,40
256.04498,256.32278,84,92,40
256.37833,256.98944,82,92,40
257.04498,257.62833,81,92,40
257.71167,258.32278,81,89,40
258.37833,258.96167,82,86,40
259.04498,259.6561,80,82,40
259.71167,260.29498,77,78,40
260.37833,261.00235,77,74,40
261.0605,261.67096,68,70,40
261.75818,262.04886,67,66,40
262.8299,263.8653,68,60,40
265.85278,266.9861,69,45,40
268.42926,268.48807,59,75,40
268.6057,268.7724,59,75,40
268.7724,268.93558,62,76,40
268.93906,269.1057,62,77,40
269.1057,269.26892,65,78,40
269.2724,269.43906,65,79,40
269.43906,269.60226,71,80,40
269.6057,269.7724,71,81,40
269.7724,269.93558,74,82,40
269.93906,270.1057,74,83,40
270.1057,270.26892,77,84,40
270.2724,270.44284,77,85,40
270.44284,270.60974,83,86,40
270.6133,270.79404,83,88,40
270.79404,270.97098,71,90,40
270.97476,271.16226,71,92,40
271.16226,271.34586,72,92,40
271.34976,271.53726,72,92,40
271.53726,271.72086,73,92,40
271.72476,271.91226,73,92,40
271.91226,272.09586,70,92,40
272.09976,272.28726,70,92,40
272.28726,272.47086,68,92,40
273.97476,274.1512,72,92,40
274.1512,274.324,74,90,40
274.3277,274.50415,74,88,40
274.50415,274.67694,75,86,40
274.68063,274.8571,75,84,40
274.8571,275.0299,72,82,40
275.03357,275.21005,72,80,40
275.21005,275.38284,70,78,40
275.3865,275.563,67,76,40
275.563,275.73578,69,74,40
275.73944,275.91592,69,72,40
275.91592,276.0887,70,69,40
276.0924,276.26886,70,66,40
276.26886,276.44165,67,63,40
276.44534,276.6218,67,60,40
276.6218,276.7946,65,60,40
276.79828,277.07605,65,60,40
278.1316,278.79828,57,60,40
278.79828,279.3816,56,64,40
279.46494,279.6316,55,68,40
279.6316,279.7948,62,69,40
279.79828,279.96494,62,70,40
279.96494,280.12814,67,71,40
280.1316,280.29828,67,72,40
280.29828,280.46146,74,73,40
280.46494,280.6316,74,74,40
280.6316,280.7948,67,75,40
280.79828,280.96494,60,76,40
280.96494,281.12814,65,77,40
281.1316,281.29828,65,78,40
281.29828,281.46146,72,79,40
281.46494,281.6316,72,80,40
281.6316,281.7948,77,81,40
281.79828,281.96494,77,82,40
281.96494,282.12814,72,83,40
282.1316,282.29828,62,84,40
282.29828,282.46146,67,85,40
282.46494,282.6316,67,86,40
282.6316,282.7948,74,87,40
282.79828,282.96494,74,88,40
282.96494,283.12814,79,89,40
283.1316,283.29828,79,90,40
283.29828,283.46146,74,91,40
283.46494,283.6316,75,92,40
283.6316,283.7948,80,92,40
283.79828,283.96494,80,92,40
283.96494,284.12814,84,92,40
284.1316,284.29828,84,92,40
284.29828,284.46146,80,92,40
284.46494,284.6316,80,92,40
284.6316,284.7948,75,91,40
284.79828,284.96494,75,90,40
284.96494,285.1281,72,89,40
285.1316,285.29828,72,88,40
285.29828,285.46146,68,87,40
285.46494,285.6316,68,86,40
285.6316,285.7948,63,85,40
285.79828,285.96494,63,83,40
285.96494,286.1281,60,81,40
286.46494,286.79828,60,75,40
286.79828,287.3816,62,75,40
287.79828,288.1316,65,60,40
288.1316,288.71494,62,60,40
289.1316,289.46494,74,60,40
289.46494,290.04825,67,61,40
290.46494,290.79825,72,64,40
290.79825,291.3816,67,65,40
291.46494,291.6281,69,68,40
292.29825,292.35382,66,70,40
292.46494,292.6316,66,70,40
292.6316,292.7948,67,70,40
292.79825,293.07605,67,70,40
293.6316,293.68713,67,73,40
293.79825,293.96494,67,74,40
293.96494,294.1281,69,75,40
294.1316,294.40936,69,76,40
294.96494,295.02048,62,81,40
294.96494,295.02048,69,81,40
295.1316,295.29825,62,82,40
295.1316,295.29825,69,82,40
295.29825,295.46146,62,83,40
295.29825,295.46146,71,83,40
295.46494,295.7427,62,84,40
295.46494,295.7427,71,84,40
296.29825,296.35382,71,89,40
296.46494,296.6316,71,90,40
296.6316,296.79477,72,91,40
296.79825,297.29825,60,92,40
297.29825,297.46146,71,92,40
297.46494,297.96494,71,92,40
297.96494,298.1281,72,92,40
298.1316,298.40936,72,92,40
299.79825,299.9649,65,92,40
299.9649,300.1281,77,92,40
300.1316,300.29825,77,92,40
300.29825,300.46146,76,92,40
300.4649,300.6316,76,92,40
300.6316,300.79477,77,92,40
300.79825,301.07602,77,92,40
302.1316,302.29825,68,92,40
302.29825,302.46146,80,92,40
302.4649,302.6316,80,92,40
302.6316,302.79477,81,92,40
302.79825,302.9649,81,92,40
302.9649,303.1281,78,92,40
303.1316,303.29825,78,92,40
303.29825,303.46146,77,92,40
303.4649,303.7427,77,92,40
304.79825,305.29825,73,75,40
305.29825,305.46143,72,75,40
305.4649,305.9649,72,75,40
305.9649,306.1281,71,75,40
306.1316,306.6316,77,75,40
306.6316,306.79477,73,75,40
306.79825,307.29825,72,75,40
307.29825,307.46143,71,75,40
307.4649,307.74268,62,75,40
307.4649,307.74268,71,75,40
309.63156,309.68713,71,75,40
309.79825,309.9649,71,75,40
309.9649,310.1281,72,75,40
310.13156,310.29825,72,75,40
310.29825,310.46143,68,75,40
310.4649,310.63156,68,75,40
310.63156,310.79477,63,75,40
310.79825,310.9649,63,75,40
310.9649,311.1281,60,75,40
311.13156,311.29825,60,75,40
311.29825,311.46143,56,75,40
311.4649,312.38156,56,75,40
312.4649,312.6281,56,92,40
312.4649,312.71143,63,92,40
312.54825,312.71143,72,92,40
312.79825,313.24268,56,105,40
312.79825,313.24268,60,105,40
313.79825,313.96143,55,75,40
313.79825,313.96143,62,75,40
314.13156,314.57602,56,105,40
314.13156,314.57602,65,105,40
315.13156,315.29477,62,92,40
315.13156,315.29477,74,92,40
315.4649,315.62808,62,92,40
315.4649,316.07602,71,92,40
315.54825,316.07602,80,92,40
316.13156,316.29825,79,92,40
316.29825,316.46143,75,92,40
316.4649,316.63156,75,92,40
316.63156,316.79477,68,92,40
316.79825,316.96143,63,92,40
316.79825,316.96143,72,92,40
317.4649,317.62808,62,92,40
317.4649,317.62808,71,92,40
318.13156,318.29477,62,92,40
318.13156,318.74268,71,92,40
318.2149,318.74268,80,92,40
318.79822,318.9649,79,92,40
318.9649,319.12808,72,92,40
319.13156,319.29822,72,92,40
319.29822,319.46143,75,92,40
319.4649,319.62808,55,92,40
319.4649,319.71143,63,92,40
319.54822,319.71143,72,92,40
320.13156,320.29477,55,92,40
320.13156,320.37808,62,92,40
320.2149,320.37808,71,92,40
321.12433,321.28397,60,92,40
321.28735,321.44702,68,92,40
321.4504,321.61005,60,92,40
321.61343,321.7731,67,92,40
321.7765,321.93613,60,92,40
321.93954,322.09918,65,92,40
322.10257,322.2622,59,92,40
322.26562,322.42526,62,92,40
322.42865,322.58832,59,92,40
322.5917,322.75134,55,92,40
322.75476,322.9144,60,92,40
322.9178,323.07742,55,92,40
323.08084,323.24048,59,92,40
323.24387,323.40353,55,92,40
323.40692,323.56317,60,92,40
323.5665,323.72275,55,92,40
323.72607,323.88232,60,92,40
323.88565,324.0419,68,92,40
324.04523,324.20148,60,92,40
324.2048,324.36105,67,92,40
324.36435,324.5206,60,92,40
324.52393,324.68018,65,92,40
324.6835,324.83975,59,92,40
324.84308,324.99933,62,92,40
325.00266,325.1589,59,92,40
325.16223,325.31848,55,92,40
325.3218,325.47806,60,92,40
325.48138,325.63763,55,92,40
325.64096,325.7972,59,92,40
325.80054,325.9568,55,92,40
325.9601,326.1131,60,92,40
326.11636,326.26935,63,92,40
326.2726,326.4256,67,92,40
326.42886,326.58185,75,92,40
326.5851,326.7381,67,92,40
326.74136,326.89435,74,92,40
326.8976,327.0506,67,92,40
327.05386,327.20685,72,92,40
327.2101,327.3631,67,92,40
327.36636,327.51935,70,92,40
327.5226,327.6756,64,92,40
327.67886,327.83185,61,92,40
327.8351,327.9881,64,92,40
327.99136,328.14435,61,92,40
328.1476,328.3006,64,91,40
328.30386,328.45685,61,90,40
328.4601,328.6131,64,89,40
328.61636,328.76935,61,88,40
328.7726,328.9256,67,87,40
328.92886,329.08185,60,86,40
329.0851,329.2381,65,85,40
329.24136,329.39435,60,84,40
329.3976,329.5506,64,83,40
329.55386,329.70685,60,82,40
329.7101,329.8631,65,81,40
329.86636,330.01935,60,80,40
330.0226,330.1756,65,79,40
330.17886,330.33185,62,78,40
330.3351,330.4881,62,77,40
330.49136,330.64435,59,76,40
330.6476,330.8006,62,75,40
330.9601,331.1131,60,75,40
331.2726,331.4256,60,75,40
331.2726,331.4256,63,75,40
331.42886,331.7381,60,75,40
331.42886,331.7381,63,75,40
331.74136,332.0506,60,75,40
332.05386,332.3631,60,75,40
332.36636,332.6756,60,75,40
332.67886,332.8351,60,75,40
332.8351,332.9881,63,75,40
332.99136,333.1476,63,75,40
333.1476,333.3006,56,75,40
333.30386,333.6131,56,75,40
333.61636,333.7726,56,74,40
333.7726,333.9256,55,73,40
333.92886,334.2381,55,72,40
334.24136,334.3976,55,70,40
334.3976,334.5506,56,69,40
334.3976,334.5506,65,69,40
334.55386,334.8631,56,68,40
334.55386,334.8631,65,68,40
334.86636,335.1756,56,66,40
334.86636,335.1756,65,66,40
335.17886,335.4881,56,64,40
335.17886,335.4881,65,64,40
335.49136,335.8006,56,62,40
335.49136,335.8006,65,62,40
335.80386,336.1131,56,60,40
335.80386,336.1131,65,60,40
336.11636,336.4256,56,60,40
336.11636,336.4256,65,60,40
336.42886,336.7381,56,60,40
336.42886,336.7381,65,60,40
336.74136,337.0506,56,60,40
336.74136,337.0506,65,60,40
337.05386,337.20685,56,60,40
337.05386,337.20685,65,60,40
337.2101,337.35696,55,60,40
337.2101,337.35696,63,60,40
338.1101,338.2601,63,60,40
338.2601,338.40698,67,63,40
338.4101,338.55716,67,66,40
338.55716,338.70114,55,69,40
338.70422,338.8513,55,72,40
338.8513,338.99527,67,75,40
338.99835,339.1454,67,78,40
339.1454,339.2894,79,81,40
339.29245,339.4395,79,84,40
339.4395,339.5835,84,88,40
339.58658,339.90237,84,92,40
339.90237,340.16553,75,75,40
340.84973,341.02252,55,92,40
340.84973,341.11075,67,92,40
340.93796,341.11075,75,92,40
341.5556,341.75143,55,92,40
341.5556,341.85144,62,92,40
341.6556,341.85144,71,92,40
342.35562,342.94937,55,92,40
342.35562,344.0056,63,92,40
342.5056,344.0056,72,92,40
1.333332,1.895832,65,75,41
1.895832,2.0794258,67,75,41
2.083332,2.645832,67,78,41
2.645832,2.8294258,68,88,41
2.833332,3.208332,68,92,41
3.208332,3.520832,59,92,41
4.333332,4.520832,48,75,41
4.520832,4.704426,51,75,41
4.708332,4.895832,51,75,41
4.895832,5.079426,56,75,41
5.083332,5.270832,50,75,41
5.270832,5.454426,55,75,41
5.458332,5.645832,55,75,41
5.645832,5.829426,62,75,41
5.833332,6.020832,53,75,41
6.020832,6.204426,56,75,41
6.208332,6.395832,56,75,41
6.395832,6.579426,60,75,41
6.583332,6.770832,55,75,41
6.770832,6.954426,59,75,41
6.958332,7.145832,59,75,41
7.145832,7.329426,62,75,41
7.333332,7.520832,55,75,41
7.520832,7.704426,62,75,41
7.708332,7.895832,62,74,41
7.895832,8.079426,67,73,41
8.083332,8.270832,55,72,41
8.270832,8.454426,60,71,41
8.458332,8.645832,60,70,41
8.645832,8.829426,67,69,41
8.833332,9.020832,55,68,41
9.020832,9.204426,60,67,41
9.208332,9.395832,60,66,41
9.395832,9.579426,63,65,41
9.583332,9.770832,51,64,41
9.770832,9.954426,55,63,41
9.958332,10.145832,55,62,41
10.145832,10.329426,61,61,41
10.333332,10.516926,62,60,41
11.458332,11.641926,57,60,41
11.833332,12.012447,58,62,41
12.930891,13.110006,58,69,41
12.930891,13.110006,62,69,41
13.296744,13.4737015,57,71,41
13.296744,13.4737015,65,71,41
14.381079,14.558037,65,78,41
14.742524,14.917375,67,80,41
15.81395,15.988801,62,88,41
16.171091,16.694347,65,92,41
16.694347,16.865131,67,92,41
16.868767,17.380129,67,75,41
17.380129,17.547033,68,75,41
17.550585,17.841282,68,75,41
18.95414,19.14164,65,92,41
19.14164,19.325233,72,92,41
19.32914,19.51664,72,92,41
19.51664,19.700233,70,90,41
19.70414,19.89164,70,88,41
19.89164,20.075233,68,86,41
20.07914,20.26664,68,84,41
20.26664,20.450233,65,82,41
20.45414,20.64164,65,80,41
20.64164,20.825233,63,78,41
20.82914,21.01664,63,76,41
21.01664,21.200233,62,74,41
21.20414,21.39164,62,72,41
21.39164,21.575233,60,69,41
21.57914,21.76664,60,66,41
21.76664,21.950233,56,63,41
21.95414,22.134863,48,60,41
22.134863,22.31182,51,60,41
22.315584,22.496307,51,60,41
22.496307,22.673265,56,60,41
22.67703,22.857752,50,60,41
22.857752,23.03471,55,60,41
23.038475,23.219198,55,60,41
23.219198,23.396154,62,60,41
23.39992,23.576391,53,60,41
23.576391,23.749184,56,61,41
23.752861,23.92933,56,62,41
23.92933,24.102125,60,63,41
24.105803,24.282272,55,64,41
24.282272,24.455067,59,65,41
24.458742,24.635214,59,66,41
24.635214,24.808008,62,67,41
24.811684,24.982138,55,68,41
24.982138,25.149042,62,69,41
25.152594,25.323048,62,70,41
25.323048,25.48995,67,71,41
25.493502,25.663956,55,72,41
25.663956,25.83086,60,73,41
25.834412,26.004866,60,74,41
26.004866,26.171768,67,75,41
26.17532,26.342224,55,76,41
26.17532,26.342224,63,76,41
26.857138,27.024042,55,84,41
26.857138,27.024042,62,84,41
27.538956,27.70941,59,92,41
27.70941,27.876314,68,92,41
27.879866,28.05032,68,92,41
28.05032,28.217222,59,92,41
28.220774,28.391228,60,92,41
28.391228,28.558132,72,92,41
28.561684,28.732138,72,92,41
28.732138,28.89904,60,92,41
28.902592,29.073378,55,92,41
28.902592,29.073378,63,92,41
29.600266,29.777224,55,92,41
29.600266,29.777224,62,92,41
30.323156,30.823156,63,92,41
30.823156,30.98635,62,92,41
30.989822,31.489822,62,92,41
31.489822,31.653015,60,92,41
31.656488,31.934265,60,92,41
32.98982,33.48982,60,87,41
33.48982,33.653015,64,85,41
33.656487,34.156487,64,85,41
34.156487,34.31968,65,83,41
34.32315,34.60093,65,83,41
35.656483,36.156483,71,76,41
36.156483,36.31968,72,73,41
36.32315,36.82315,63,72,41
36.82315,36.986343,62,69,41
36.989815,37.267593,62,68,41
38.323147,38.823147,67,60,41
38.823147,38.986343,71,60,41
38.989815,39.489815,71,60,41
39.489815,39.653008,72,60,41
39.65648,39.934258,72,60,41
40.98981,41.48981,59,60,41
41.48981,41.653008,65,63,41
41.65648,42.15648,65,63,41
42.15648,42.31967,59,66,41
42.323143,42.823143,59,67,41
42.823143,42.98634,65,70,41
42.98981,43.48981,65,71,41
43.48981,43.653004,59,74,41
43.656475,43.934254,59,75,41
44.489807,44.545364,55,80,41
44.656475,44.823143,55,81,41
44.823143,44.986336,62,82,41
44.989807,45.16628,74,83,41
45.16628,45.339073,67,84,41
45.34275,45.51922,67,85,41
45.51922,45.692013,62,86,41
45.69569,45.87641,62,87,41
45.87641,46.05337,55,88,41
46.057137,46.237858,55,89,41
46.237858,46.414814,48,90,41
46.41858,46.751915,48,92,41
46.81858,47.151913,56,92,41
47.151913,47.485245,55,92,41
47.485245,47.81858,53,92,41
47.81858,48.096355,51,92,41
48.151913,48.485245,55,92,41
48.485245,48.818577,63,90,41
48.818577,49.096355,55,88,41
49.151913,49.485245,53,86,41
49.485245,49.818577,56,84,41
49.818577,50.40191,55,81,41
50.485245,50.818577,53,75,41
50.818577,51.15191,56,72,41
51.15191,51.48524,55,69,41
51.48524,51.76302,50,66,41
52.15191,52.48524,55,60,41
52.48524,52.818573,53,60,41
52.818573,53.15191,51,60,41
53.15191,53.429684,50,76,41
53.48524,54.068573,62,92,41
54.151905,54.429684,62,75,41
54.818573,55.151905,58,60,41
55.151905,55.485237,56,60,41
55.485237,55.81857,54,65,41
55.81857,56.096348,53,70,41
56.151905,56.485237,65,75,41
56.485237,56.763016,70,80,41
56.81857,57.1519,62,86,41
57.1519,57.485237,65,92,41
57.485237,57.763012,58,75,41
59.31857,59.39843,55,92,41
59.485233,59.565094,58,92,41
59.6519,59.731762,51,92,41
59.818565,60.4019,63,92,41
60.6519,60.731762,60,60,41
60.818565,60.898426,63,60,41
60.985233,61.065094,56,60,41
61.151897,61.735233,68,60,41
61.985233,62.065094,60,70,41
62.151897,62.23176,65,72,41
62.318565,62.398426,57,75,41
62.48523,63.068565,69,75,41
63.318565,63.398426,60,85,41
63.48523,63.56509,65,87,41
63.651897,63.73176,58,89,41
63.81856,65.15189,70,92,41
65.15189,66.23623,72,60,41
66.23623,66.53744,65,60,41
66.59767,68.04346,65,60,41
68.04346,68.79346,66,60,41
68.79346,69.35596,63,60,41
69.35596,69.53955,58,60,41
69.54346,69.72705,57,60,41
70.29346,70.47705,60,60,41
71.23576,71.61637,60,60,41
71.62038,72.19329,60,60,41
72.1973,72.385605,57,60,41
72.96653,73.15483,58,68,41
73.73576,73.924065,59,76,41
74.31268,74.69329,68,82,41
74.697296,75.21012,68,86,41
75.27422,75.65884,68,92,41
75.65884,75.95295,75,92,41
76.01178,76.48236,73,92,41
76.54119,76.71766,72,92,41
76.71766,76.89413,70,92,41
76.89413,77.0706,72,92,41
77.0706,77.24707,70,92,41
77.24707,77.41986,68,92,41
77.42354,77.77648,71,92,41
77.77648,78.129425,65,92,41
78.129425,78.42354,70,92,41
78.835304,79.18825,67,92,41
79.18825,79.54118,70,92,41
79.54118,79.835304,64,92,41
80.24707,80.600006,65,92,41
80.600006,80.95295,68,92,41
80.95295,81.24707,62,92,41
81.48236,81.65883,67,92,41
81.65883,81.835304,70,92,41
81.835304,82.008095,63,92,41
82.18824,82.364716,67,92,41
82.364716,82.54118,71,92,41
82.54118,82.71398,63,92,41
82.89413,83.070595,67,92,41
83.070595,83.24707,72,92,41
83.24707,83.41986,63,92,41
83.42354,83.600006,73,92,41
83.600006,83.772804,63,92,41
83.77648,83.94927,74,92,41
83.95295,84.12574,62,92,41
84.30589,84.39045,57,92,41
84.48236,84.56692,60,92,41
84.65883,84.74339,54,92,41
84.835304,85.364716,66,92,41
85.364716,85.537506,67,92,41
85.71765,85.89413,59,92,41
85.89413,86.070595,62,88,41
86.070595,86.243385,55,84,41
86.42354,86.600006,63,75,41
86.600006,86.7728,67,70,41
86.776474,86.95295,60,65,41
86.95295,87.12942,63,60,41
87.12942,87.30221,60,60,41
87.48236,87.65883,60,60,41
87.65883,87.8353,64,60,41
87.8353,88.008095,56,60,41
88.18824,88.36471,60,60,41
88.36471,88.54118,65,60,41
88.54118,88.713974,56,60,41
88.71765,88.89412,60,60,41
88.89412,89.06692,68,60,41
89.070595,89.36471,60,60,41
89.070595,89.36471,72,60,41
89.42353,89.71765,62,60,41
89.42353,89.71765,71,60,41
90.65883,90.743385,51,60,41
90.8353,90.91985,55,60,41
91.01177,91.09633,48,60,41
91.18824,92.42353,60,60,41
92.42353,92.59633,61,60,41
92.78072,92.96145,65,60,41
92.96145,93.14217,68,60,41
93.14217,93.31913,61,60,41
93.50362,93.68434,65,60,41
93.68434,93.86506,69,60,41
93.86506,94.042015,61,60,41
94.233284,94.41688,65,60,41
94.420784,94.60438,70,64,41
94.608284,94.79188,61,68,41
94.795784,94.97938,73,72,41
94.983284,95.16688,65,76,41
95.170784,95.35438,77,80,41
95.358284,95.54188,68,84,41
95.73809,95.9304,65,92,41
95.9304,96.1227,68,92,41
96.1227,96.311005,61,92,41
96.507324,96.69963,65,92,41
96.69963,96.89194,68,92,41
96.89194,97.08024,60,92,41
97.27655,97.46886,65,92,41
97.46886,97.66116,68,76,41
97.66116,97.849464,59,60,41
98.6227,100.201645,53,92,41
100.201645,100.72796,56,60,41
100.793755,100.98701,55,60,41
100.99112,101.58322,55,60,41
101.58322,101.77648,53,75,41
101.780594,102.57006,53,75,41
102.57006,102.89901,56,60,41
103.16217,103.22796,56,60,41
103.359535,104.14901,55,75,41
104.14901,104.47795,58,60,41
104.74111,104.8069,58,60,41
104.93848,105.31348,53,60,41
105.31348,106.06348,56,60,41
106.06348,106.37598,55,60,41
106.43848,107.18848,54,75,41
107.18848,107.50098,53,60,41
107.93848,108.25098,58,60,41
108.31348,108.96973,58,60,41
109.06348,109.75098,58,68,41
109.81348,110.46973,62,76,41
110.56348,111.2326,58,84,41
111.29142,111.9973,58,92,41
111.9973,112.29142,61,92,41
112.35024,112.96789,60,87,41
113.05612,113.673775,58,77,41
113.76201,114.379654,60,67,41
114.46789,115.08553,60,56,41
115.173775,115.46789,58,45,41
116.58553,117.114944,56,45,41
117.114944,117.28774,59,45,41
117.29142,117.82083,59,45,41
117.82083,117.99362,58,45,41
117.9973,118.29142,58,45,41
118.70318,119.23259,60,45,41
119.23259,119.40539,62,47,41
119.409065,119.93848,58,47,41
119.93848,120.11127,61,49,41
120.114944,120.644356,61,49,41
120.644356,120.817154,60,51,41
120.82082,121.114944,60,51,41
122.23259,122.762,62,78,41
122.762,122.9348,63,58,41
123.644356,124.17377,62,85,41
124.17377,124.34656,63,63,41
125.05612,125.57938,62,92,41
125.57938,125.75016,63,68,41
126.45147,126.974724,62,99,41
126.974724,127.14551,63,73,41
127.84682,128.36406,74,76,41
128.36406,128.53288,75,79,41
129.22612,129.74336,74,84,41
129.74336,129.91219,75,87,41
130.60544,131.10542,76,92,41
131.10542,131.26863,77,92,41
131.93877,132.46817,76,92,41
132.46817,132.64098,77,92,41
133.35052,133.53802,65,92,41
133.53802,133.72162,72,92,41
133.72552,133.91302,72,92,41
133.91302,134.09662,70,92,41
134.10052,134.28802,70,92,41
134.28802,134.47162,68,92,41
134.47552,134.66302,68,92,41
134.66302,134.84662,65,92,41
134.85052,135.03802,65,92,41
135.03802,135.22162,63,92,41
135.22552,135.41302,63,92,41
135.41302,135.59662,62,92,41
135.60052,135.78802,62,92,41
135.78802,135.97162,60,92,41
135.97552,136.16302,60,92,41
136.16302,136.34662,56,92,41
136.53235,136.61946,60,60,41
136.71416,136.89598,60,60,41
136.89598,137.074,56,60,41
137.25961,137.34674,60,60,41
137.44144,137.62326,60,62,41
137.62326,137.80128,56,65,41
137.98154,138.04036,60,71,41
138.158,138.45213,60,74,41
138.68742,138.74625,56,83,41
138.86389,139.158,56,86,41
139.21683,139.55017,68,92,41
139.55017,139.82794,56,75,41
140.21683,140.8835,68,60,41
140.8835,141.16127,56,60,41
141.55017,142.21683,68,60,41
142.21683,142.49461,56,68,41
142.71683,143.05017,68,74,41
143.05017,143.21336,56,78,41
143.38728,143.7282,68,82,41
143.7282,143.8951,56,86,41
144.07512,144.15968,63,92,41
144.25159,144.33615,56,92,41
144.42805,144.51262,68,92,41
144.60454,144.88863,61,92,41
147.50226,147.55908,59,92,41
147.67271,147.84317,59,92,41
147.84317,148.01007,56,92,41
148.18408,148.24089,64,92,41
148.35452,148.52498,64,92,41
148.52498,148.6919,56,92,41
148.86589,148.92271,64,92,41
149.03635,149.32043,64,89,41
149.54771,149.60452,64,79,41
149.71817,150.00226,64,75,41
150.74089,151.0818,68,60,41
151.0818,151.59317,64,45,41
151.59317,151.76363,62,45,41
151.76363,151.93408,59,45,41
151.93408,152.10098,52,45,41
152.10452,152.27498,56,45,41
152.27498,152.44543,59,47,41
152.44543,152.95325,64,49,41
152.9568,153.12726,68,55,41
153.12726,153.41135,71,57,41
153.63863,153.80907,64,64,41
153.80907,154.09317,68,66,41
154.32043,154.49089,68,73,41
154.49089,154.77498,71,75,41
155.00226,155.08394,74,83,41
155.17271,155.25438,71,85,41
155.34317,155.42484,68,88,41
155.51363,156.02498,69,92,41
156.02498,156.19188,71,92,41
156.19543,156.7068,71,92,41
156.7068,156.8737,72,92,41
156.87726,157.21817,72,92,41
157.21817,157.50226,63,85,41
158.41135,158.46817,54,60,41
158.5818,158.75226,54,60,41
158.75226,158.91916,64,60,41
159.26361,159.54771,63,60,41
159.77498,159.8318,57,60,41
159.94543,160.11589,57,61,41
160.11589,160.28279,66,62,41
160.62726,160.91135,66,66,41
161.13861,161.19543,66,70,41
161.30907,161.47952,66,71,41
161.47952,161.64642,69,72,41
161.82043,161.87726,67,76,41
161.99089,162.50226,67,78,41
162.50226,162.66916,64,84,41
162.67271,162.9568,64,86,41
163.18407,163.24089,62,92,41
163.35452,163.52498,62,92,41
163.52498,163.69188,71,92,41
163.86589,163.92271,60,75,41
164.03635,164.2068,60,75,41
164.2068,164.3737,72,75,41
164.37726,164.54771,72,75,41
164.54771,164.71461,67,75,41
164.71815,164.88861,67,75,41
164.88861,165.05553,60,75,41
165.22952,165.28635,65,75,41
165.39998,165.57043,65,74,41
165.57043,165.73734,62,72,41
165.91135,165.96815,64,68,41
166.0818,166.25226,64,66,41
166.25226,166.41916,60,64,41
166.59315,166.64998,52,60,41
166.76361,166.93407,52,60,41
166.93407,167.10097,56,60,41
167.27498,167.3318,57,60,41
167.44543,167.61589,57,60,41
167.61589,167.78279,60,60,41
167.78635,167.95325,57,60,41
167.9568,168.29416,57,64,41
168.2977,168.63507,57,72,41
168.63861,168.97597,57,80,41
168.97952,169.14642,57,88,41
169.14998,169.66135,56,92,41
169.66135,169.82825,54,92,41
169.8318,170.34315,54,92,41
170.34315,170.51007,56,84,41
170.51361,171.02498,56,82,41
171.02498,171.19188,54,74,41
171.19543,171.7068,54,72,41
171.7068,171.8737,56,63,41
171.87726,172.16135,56,60,41
172.72952,172.78635,59,60,41
172.89998,173.07043,59,60,41
173.07043,173.23734,64,60,41
173.24089,173.41135,64,60,41
173.41135,173.57825,59,63,41
173.5818,173.75224,59,66,41
173.75224,173.91916,64,69,41
173.9227,174.09918,64,72,41
174.09918,174.27197,59,75,41
174.27565,174.45212,59,78,41
174.45212,174.62491,52,81,41
174.96191,175.29526,69,92,41
175.29526,175.62859,67,92,41
175.62859,175.96191,65,92,41
175.96191,176.2397,64,92,41
176.29526,176.62859,72,91,41
176.62859,176.96191,76,90,41
176.96191,177.2397,72,88,41
177.29526,177.62859,70,86,41
177.62859,177.96191,74,84,41
177.96191,178.29526,72,82,41
178.29526,178.57303,67,80,41
178.62859,178.96191,70,78,41
178.96191,179.2397,65,76,41
179.29524,179.62859,64,74,41
179.62859,179.90636,59,72,41
180.29524,180.62859,64,68,41
180.62859,180.96191,62,66,41
180.96191,181.29524,60,64,41
181.29524,181.57303,59,62,41
181.62859,181.96191,67,60,41
181.96191,182.29524,71,75,41
182.29524,182.57303,67,60,41
182.96191,183.29524,67,60,41
183.29524,183.62857,65,60,41
183.62857,183.96191,63,60,41
183.96191,184.23969,62,60,41
184.29524,184.62857,71,75,41
184.62857,184.96191,74,92,41
184.96191,185.23969,67,75,41
187.46191,187.54176,52,92,41
187.62857,187.70844,55,92,41
187.79524,187.8751,48,92,41
187.96191,188.54524,60,92,41
188.79524,188.8751,57,92,41
188.9619,189.04176,60,92,41
189.12857,189.20844,53,92,41
189.29524,189.87857,65,92,41
190.12857,190.20844,57,92,41
190.29524,190.37509,62,92,41
190.4619,190.54176,54,92,41
190.62857,191.2119,66,92,41
191.4619,191.62509,59,92,41
191.62857,191.79176,62,92,41
191.79524,191.95844,55,92,41
191.9619,192.54524,67,92,41
192.62857,193.57301,67,75,41
193.62857,194.29523,67,60,41
194.29523,194.57301,66,60,41
194.79523,194.9619,54,60,41
194.9619,195.12857,55,60,41
195.12857,195.29523,57,60,41
195.29523,196.64372,58,60,41
196.64372,197.17313,57,60,41
197.17313,197.34592,55,49,41
197.3496,197.52655,54,45,41
198.0725,198.24945,57,45,41
198.98288,199.35397,57,45,41
199.35788,199.85788,57,45,41
199.92038,200.10397,54,45,41
200.67038,200.85397,55,45,41
201.42038,201.60397,56,60,41
201.98288,202.35397,65,72,41
202.35788,202.85788,65,80,41
202.92038,203.29538,67,92,41
203.29538,203.59659,72,92,41
203.65683,204.13875,70,92,41
204.19899,204.37971,69,88,41
204.37971,204.56044,67,87,41
204.56044,204.74117,69,86,41
204.74117,204.91763,67,85,41
204.91763,205.09042,65,84,41
205.0941,205.44704,68,83,41
205.44704,205.79999,62,81,41
205.79999,206.0941,67,78,41
206.49384,206.83475,64,72,41
206.83475,207.17564,67,69,41
207.17564,207.45975,61,66,41
207.8499,208.18323,62,60,41
208.18323,208.51656,65,60,41
208.51656,208.79434,59,60,41
209.01656,209.18323,52,60,41
209.18323,209.34988,55,62,41
209.34988,209.51309,48,64,41
209.68323,209.84988,52,68,41
209.84988,210.01656,56,70,41
210.01656,210.17975,48,72,41
210.34988,210.51656,52,76,41
210.51656,210.68323,57,78,41
210.68323,210.84642,48,80,41
210.84988,211.01656,58,82,41
211.01656,211.17975,48,84,41
211.18323,211.461,59,86,41
211.68323,211.76308,54,92,41
211.84988,211.92975,57,92,41
212.01656,212.09642,51,92,41
212.18323,212.68323,63,92,41
212.68323,212.84642,64,92,41
213.01656,213.18323,56,92,41
213.18323,213.34988,59,90,41
213.34988,213.51308,52,88,41
213.68321,213.84988,60,84,41
213.84988,214.01308,64,82,41
214.01656,214.18321,57,80,41
214.18321,214.34988,60,78,41
214.34988,214.51308,53,76,41
214.68321,214.84988,57,72,41
214.84988,215.01656,61,70,41
215.01656,215.17975,53,68,41
215.34988,215.51656,57,63,41
215.51656,215.68321,62,60,41
215.68321,215.8464,53,60,41
215.84988,216.01656,65,60,41
216.01656,216.17975,57,60,41
216.18321,216.34988,69,60,41
216.34988,216.51308,60,68,41
216.51656,216.68321,64,76,41
216.68321,216.8464,59,84,41
216.84988,217.34988,62,92,41
217.34988,217.51308,60,92,41
217.51656,218.01656,59,92,41
218.01656,218.17975,57,92,41
218.18321,218.68321,55,92,41
218.68321,218.8464,53,82,41
218.84988,219.01654,52,79,41
219.01654,219.18321,50,76,41
219.18321,219.34988,49,72,41
219.34988,219.51308,50,68,41
219.68321,219.84988,62,60,41
219.84988,220.01654,65,60,41
220.01654,220.17973,58,60,41
220.34988,220.51654,62,60,41
220.51654,220.68321,66,60,41
220.68321,220.8464,58,60,41
221.02429,221.19872,62,60,41
221.19872,221.37314,67,64,41
221.37314,221.54391,58,68,41
221.54755,221.72827,70,72,41
221.72827,221.90523,62,77,41
221.909,222.08972,74,82,41
222.08972,222.26668,65,87,41
222.27045,222.83295,74,92,41
222.83295,223.01654,76,92,41
223.02045,223.58295,76,92,41
223.58295,223.76654,77,92,41
223.77045,224.14545,77,92,41
224.14545,224.45795,68,75,41
225.27045,226.6767,60,75,41
225.27045,226.6767,62,75,41
226.77045,227.4267,59,60,41
226.77045,227.4267,65,60,41
227.52045,228.08295,64,60,41
228.08295,228.26654,62,60,41
228.27045,228.99333,62,84,41
228.99333,229.29454,65,60,41
229.5355,229.59575,65,45,41
229.71622,230.43912,61,84,41
230.43912,230.74031,67,45,41
230.98128,231.04152,64,45,41
231.162,231.51083,62,45,41
231.51083,232.20851,65,60,41
232.20851,232.4992,64,45,41
232.55736,233.25502,63,63,41
233.25502,233.54572,62,45,41
233.9527,236.02986,63,45,41
236.02986,236.62645,67,80,41
236.71169,237.37834,68,92,41
237.37834,237.71169,72,92,41
237.71169,238.3228,70,92,41
238.37834,239.04501,69,92,41
239.04501,239.71169,67,79,41
239.71169,239.98946,66,66,41
240.71169,241.37834,65,45,41
241.37834,241.87834,64,45,41
241.87834,242.04153,62,67,41
242.04501,242.71167,62,75,41
242.71167,242.98946,65,60,41
243.21167,243.26723,65,45,41
243.37834,244.04501,66,63,41
244.04501,244.2082,66,48,41
244.54501,244.60057,67,50,41
244.71167,245.37834,64,51,41
245.37834,245.65611,63,55,41
245.87834,245.9339,71,58,41
246.04501,246.62834,68,59,41
246.71167,246.87486,68,63,41
247.21167,247.37486,69,66,41
247.37834,248.045,66,67,41
248.045,248.32278,64,71,41
248.545,248.7082,72,74,41
248.71167,249.295,70,75,41
249.37834,249.4339,70,79,41
249.87834,250.04153,70,82,41
250.045,250.71167,70,83,41
250.71167,250.87486,76,87,41
251.21167,251.37486,64,90,41
251.37834,251.71167,76,92,41
251.71167,252.37833,71,92,41
252.37833,252.98944,79,92,41
253.045,253.37833,78,92,41
253.37833,253.65611,79,92,41
253.71167,254.32277,77,92,41
254.37833,254.71167,76,92,41
254.71167,254.98944,77,92,41
255.045,255.65611,76,92,41
255.71167,256.04498,79,92,41
256.04498,256.32278,81,92,41
256.37833,256.98944,79,92,41
257.04498,257.62833,77,92,41
257.71167,258.32278,77,89,41
258.37833,258.96167,77,86,41
259.04498,259.6561,77,82,41
259.71167,260.29498,74,78,41
260.37833,261.00235,72,74,41
261.0605,261.67096,72,70,41
261.75818,262.04886,72,66,41
262.8299,263.8653,62,60,41
262.8299,263.8653,72,60,41
265.85278,266.9861,62,45,41
265.85278,266.9861,72,45,41
268.25278,268.42557,55,92,41
268.6057,269.18906,67,105,41
269.6057,269.7724,71,75,41
269.7724,269.93558,65,75,41
269.93906,270.1057,65,75,41
270.1057,270.26892,62,75,41
270.2724,270.44284,62,75,41
270.44284,270.60974,65,75,41
270.6133,270.79404,65,75,41
270.79404,270.97098,67,75,41
270.97476,271.16226,67,92,41
271.16226,271.34586,68,92,41
271.34976,271.53726,68,92,41
271.53726,271.72086,70,92,41
271.72476,271.91226,70,92,41
271.91226,272.09586,67,92,41
272.09976,272.28726,67,92,41
272.28726,272.47086,65,92,41
272.47476,272.66226,65,92,41
272.66226,272.84586,67,92,41
272.84976,273.03726,67,92,41
273.03726,273.22086,68,92,41
273.22476,273.41226,68,92,41
273.41226,273.59586,65,92,41
273.59976,273.78726,65,92,41
273.78726,273.97086,63,92,41
275.3865,275.563,64,92,41
275.563,275.73578,65,88,41
275.73944,275.91592,65,84,41
275.91592,276.0887,67,80,41
276.0924,276.26886,67,76,41
276.26886,276.44165,64,72,41
276.44534,276.6218,64,68,41
276.6218,276.7946,62,64,41
276.79828,276.96494,62,60,41
276.96494,277.12814,65,60,41
277.13162,277.29828,65,60,41
277.29828,277.46146,70,60,41
277.46494,277.63162,65,60,41
277.63162,277.7948,70,60,41
277.79828,277.96494,70,60,41
277.96494,278.12814,65,60,41
278.1316,278.29828,65,60,41
278.29828,278.46146,60,61,41
278.46494,278.6316,60,61,41
278.6316,278.7948,65,62,41
278.79828,278.96494,65,63,41
278.96494,279.12814,72,64,41
279.1316,279.29828,72,65,41
279.29828,279.46146,65,66,41
279.46494,279.62814,62,67,41
279.46494,279.62814,67,67,41
279.6316,279.96146,62,68,41
279.6316,279.96146,67,68,41
279.96494,280.2948,62,70,41
279.96494,280.2948,67,70,41
280.29828,280.62814,62,72,41
280.29828,280.62814,67,72,41
280.6316,280.7948,62,74,41
280.6316,280.7948,67,74,41
280.79828,280.96146,60,75,41
280.79828,280.96146,65,75,41
280.96494,281.2948,60,76,41
280.96494,281.2948,65,76,41
281.29828,281.62814,60,78,41
281.29828,281.62814,65,78,41
281.6316,281.96146,60,80,41
281.6316,281.96146,65,80,41
281.96494,282.12814,60,82,41
281.96494,282.12814,65,82,41
282.1316,282.2948,59,83,41
282.1316,282.2948,67,83,41
282.29828,282.62814,59,84,41
282.29828,282.62814,67,84,41
282.6316,282.96146,59,86,41
282.6316,282.96146,67,86,41
282.96494,283.2948,59,88,41
282.96494,283.2948,67,88,41
283.29828,283.46146,59,90,41
283.29828,283.46146,67,90,41
283.46494,283.6316,60,92,41
283.6316,283.7948,63,92,41
283.79828,283.96494,63,92,41
283.96494,284.12814,68,92,41
284.1316,284.29828,68,92,41
284.29828,284.46146,72,92,41
284.46494,284.6316,72,92,41
284.6316,284.7948,68,91,41
284.79828,284.96494,68,90,41
284.96494,285.1281,63,89,41
285.1316,285.29828,63,87,41
285.29828,285.46146,60,85,41
285.46494,285.6316,60,83,41
285.6316,285.7948,56,81,41
285.79828,285.96494,56,79,41
285.96494,286.1281,51,77,41
286.1316,286.29828,48,75,41
286.29828,286.46146,51,75,41
286.46494,286.6316,51,75,41
286.6316,286.7948,56,75,41
286.79828,286.96494,50,75,41
286.96494,287.1281,55,72,41
287.1316,287.29828,55,68,41
287.29828,287.46146,62,64,41
287.46494,287.6316,53,60,41
287.6316,287.7948,56,60,41
287.79828,287.96494,56,60,41
287.96494,288.1281,60,60,41
288.1316,288.29825,55,60,41
288.29825,288.46146,59,60,41
288.46494,288.6316,59,60,41
288.6316,288.7948,62,60,41
288.79825,288.96494,55,60,41
288.96494,289.1281,62,60,41
289.1316,289.29825,62,60,41
289.29825,289.46146,67,60,41
289.46494,289.6316,55,60,41
289.6316,289.7948,60,60,41
289.79825,289.96494,60,60,41
289.96494,290.1281,67,60,41
290.1316,290.29825,55,60,41
290.29825,290.46146,60,60,41
290.46494,290.6316,60,60,41
290.6316,290.7948,63,60,41
290.79825,290.96494,51,60,41
290.96494,291.1281,55,60,41
291.1316,291.29825,55,60,41
291.29825,291.46146,61,60,41
291.46494,291.6281,62,60,41
292.29825,292.35382,57,64,41
292.46494,292.6316,57,65,41
292.6316,292.7948,58,66,41
292.79825,293.07605,58,67,41
293.6316,293.68713,62,72,41
293.79825,293.96494,62,73,41
293.96494,294.1281,65,74,41
294.1316,294.40936,65,75,41
294.96494,295.02048,65,80,41
295.1316,295.29825,65,81,41
295.29825,295.46146,67,82,41
295.46494,295.7427,67,83,41
296.29825,296.35382,62,88,41
296.46494,296.6316,62,89,41
296.6316,296.79477,65,90,41
296.79825,297.29825,65,92,41
297.29825,297.46146,67,92,41
297.46494,297.96494,67,92,41
297.96494,298.1281,68,92,41
298.1316,298.40936,68,92,41
299.4649,299.6316,48,92,41
299.6316,299.79477,60,92,41
299.79825,299.9649,60,92,41
299.9649,300.1281,59,92,41
300.1316,300.29825,59,92,41
300.29825,300.46146,71,92,41
300.4649,300.6316,71,92,41
300.6316,300.79477,72,92,41
300.79825,301.07602,72,92,41
302.1316,302.29825,49,92,41
302.29825,302.46146,65,92,41
302.4649,302.6316,65,92,41
302.6316,302.79477,66,92,41
302.79825,302.9649,66,92,41
302.9649,303.1281,69,92,41
303.1316,303.29825,69,92,41
303.29825,303.46146,68,92,41
303.4649,303.7427,68,92,41
304.9649,305.02048,53,75,41
305.1316,305.29825,53,75,41
305.29825,305.46143,65,75,41
305.4649,305.6316,65,75,41
305.6316,305.79477,64,75,41
305.79825,305.9649,64,75,41
305.9649,306.1281,65,75,41
306.29825,306.3538,65,75,41
306.4649,306.6316,65,75,41
306.6316,306.79477,77,75,41
306.79825,306.9649,77,75,41
306.9649,307.1281,76,75,41
307.1316,307.29825,76,75,41
307.29825,307.46143,77,75,41
307.4649,307.74268,77,75,41
308.29825,308.3538,67,75,41
308.4649,308.63156,67,75,41
308.63156,308.79477,68,75,41
308.79825,308.9649,68,75,41
308.9649,309.1281,65,75,41
309.13156,309.29825,65,75,41
309.29825,309.46143,62,75,41
309.4649,309.63156,62,75,41
309.63156,309.79477,59,75,41
309.79825,309.9649,59,75,41
309.9649,310.1281,60,75,41
310.13156,310.29825,60,75,41
310.29825,310.46143,56,75,41
310.4649,310.63156,56,75,41
310.63156,310.79477,51,75,41
310.79825,310.9649,63,75,41
310.9649,311.1281,60,75,41
311.13156,311.29825,60,75,41
311.29825,311.46143,56,75,41
311.4649,311.63156,56,75,41
311.63156,311.79477,51,75,41
311.79825,311.9649,51,75,41
311.9649,312.1281,48,75,41
312.13156,312.57602,48,75,41
313.13156,313.29477,56,92,41
313.13156,313.29477,66,92,41
313.4649,313.90936,55,105,41
313.4649,313.90936,67,105,41
314.4649,314.6281,48,92,41
314.4649,314.6281,56,92,41
314.54825,314.71143,65,92,41
314.54825,314.71143,72,92,41
314.79825,314.96143,55,92,41
314.79825,315.24268,71,92,41
314.88156,315.24268,74,92,41
315.79825,316.13156,59,92,41
315.79825,316.13156,62,92,41
316.13156,316.40933,60,92,41
316.13156,316.40933,67,92,41
316.4649,316.74268,60,92,41
316.4649,316.74268,68,92,41
316.79825,316.96143,63,92,41
316.79825,316.96143,67,92,41
317.4649,317.62808,55,92,41
317.4649,317.62808,62,92,41
318.29825,318.3538,62,92,41
318.4649,318.63156,62,92,41
318.63156,318.79477,71,92,41
318.79822,318.9649,72,92,41
318.9649,319.12808,63,92,41
319.13156,319.29822,63,92,41
319.29822,319.46143,60,92,41
319.4649,319.62808,63,92,41
319.4649,319.62808,67,92,41
320.13156,320.29477,55,92,41
320.13156,320.29477,62,92,41
321.12433,321.4504,56,92,41
321.4504,321.7765,55,92,41
321.7765,322.10257,53,92,41
322.10257,322.3743,50,92,41
322.42865,322.75476,62,92,41
322.75476,323.08084,63,92,41
323.08084,323.40692,65,92,41
323.40692,323.67288,63,92,41
323.72607,324.04523,56,92,41
324.04523,324.36435,55,92,41
324.36435,324.6835,53,92,41
324.6835,324.94946,50,92,41
325.00266,325.3218,62,92,41
325.3218,325.64096,63,92,41
325.64096,325.9601,65,92,41
325.9601,326.22052,63,92,41
326.2726,326.5851,63,92,41
326.5851,326.8976,62,91,41
326.8976,327.2101,60,90,41
327.2101,327.47052,58,89,41
327.5226,328.0695,67,88,41
328.1476,328.4601,68,86,41
328.4601,328.72052,70,85,41
328.7726,329.0851,64,84,41
329.0851,329.34552,65,83,41
329.3976,329.7101,70,82,41
329.7101,329.97052,68,81,41
330.0226,330.3351,62,79,41
330.3351,330.59552,65,77,41
330.6476,330.8006,68,75,41
330.9601,331.1131,67,75,41
331.2726,331.4256,56,75,41
331.42886,331.7381,56,75,41
331.74136,332.0506,56,75,41
332.05386,332.3631,56,75,41
332.36636,332.5226,56,75,41
332.5226,332.6756,55,75,41
332.67886,332.83185,55,75,41
332.8351,332.9881,55,75,41
332.99136,333.1476,55,75,41
333.1476,333.3006,53,75,41
333.30386,333.45685,53,75,41
333.4601,333.6131,53,75,41
333.61636,333.7726,53,74,41
333.7726,333.9256,51,73,41
333.92886,334.08185,51,72,41
334.0851,334.2381,51,71,41
334.24136,334.3976,51,70,41
334.3976,334.5506,50,69,41
334.3976,334.5506,59,69,41
334.55386,334.8631,50,68,41
334.55386,334.8631,59,68,41
334.86636,335.1756,50,66,41
334.86636,335.1756,59,66,41
335.17886,335.4881,50,64,41
335.17886,335.4881,59,64,41
335.49136,335.8006,50,62,41
335.49136,335.8006,59,62,41
335.80386,336.1131,50,60,41
335.80386,336.1131,59,60,41
336.11636,336.4256,50,60,41
336.11636,336.4256,59,60,41
336.42886,336.7381,50,60,41
336.42886,336.7381,59,60,41
336.74136,337.0506,50,60,41
336.74136,337.0506,59,60,41
337.05386,337.20685,50,60,41
337.05386,337.20685,59,60,41
337.2101,337.4601,51,60,41
337.2101,337.4601,60,60,41
338.70422,338.8513,60,60,41
338.8513,338.99527,62,65,41
338.99835,339.1454,62,70,41
339.1454,339.2894,63,75,41
339.29245,339.4395,63,80,41
339.4395,339.5835,72,86,41
339.58658,339.90237,72,92,41
339.90237,340.16553,60,75,41
340.84973,341.02252,55,92,41
340.84973,341.11075,63,92,41
340.93796,341.11075,72,92,41
341.5556,341.75143,55,92,41
341.5556,341.75143,62,92,41
342.35562,342.94937,48,92,41
342.35562,344.0056,55,92,41
342.5056,344.0056,63,92,41
1.333332,1.895832,65,75,42
1.895832,2.0794258,67,75,42
2.083332,2.645832,67,78,42
2.645832,2.8294258,68,88,42
2.833332,3.208332,68,92,42
3.208332,3.520832,59,92,42
4.333332,4.989582,48,75,42
5.083332,5.739582,47,75,42
5.833332,6.489582,44,75,42
6.583332,7.239582,43,73,42
7.333332,7.989582,41,71,42
8.083332,8.739582,39,69,42
8.833332,9.489582,36,66,42
9.583332,10.239582,39,63,42
10.333332,10.516926,38,60,42
11.458332,11.641926,38,60,42
11.833332,12.012447,43,62,42
12.930891,13.110006,43,69,42
13.296744,13.4737015,50,71,42
14.381079,14.558037,50,78,42
14.742524,14.917375,55,80,42
15.81395,15.988801,55,88,42
16.171091,16.694347,56,92,42
16.694347,16.865131,55,92,42
16.868767,17.380129,55,92,42
17.380129,17.547033,53,92,42
17.550585,17.841282,53,75,42
21.95414,22.586668,48,60,42
22.67703,23.309559,47,60,42
23.39992,24.017567,44,60,42
24.105803,24.723448,43,65,42
24.811684,25.408276,41,70,42
25.493502,25.834412,39,75,42
25.834412,26.118502,36,77,42
26.17532,26.342224,43,80,42
26.857138,27.024042,43,85,42
27.538956,27.61353,53,92,42
27.766228,27.840803,51,92,42
27.993502,28.068075,50,92,42
28.220774,28.295347,48,92,42
28.448046,28.522621,46,92,42
28.67532,28.749893,44,92,42
28.902592,29.073378,43,92,42
29.600266,29.777224,55,92,42
30.323156,30.823156,48,92,42
30.823156,30.98635,50,92,42
30.989822,31.489822,50,92,42
31.489822,31.653015,51,92,42
31.656488,31.934265,51,92,42
32.98982,33.48982,56,87,42
33.48982,33.653015,55,85,42
33.656487,34.156487,55,85,42
34.156487,34.31968,53,83,42
34.32315,34.60093,53,83,42
35.656483,36.156483,55,76,42
36.156483,36.31968,57,73,42
36.32315,36.82315,57,72,42
36.82315,36.986343,59,69,42
36.989815,37.267593,59,68,42
38.323147,38.823147,63,60,42
38.823147,38.986343,62,60,42
38.989815,39.489815,62,60,42
39.489815,39.653008,60,60,42
39.65648,39.934258,60,60,42
40.98981,41.48981,55,60,42
41.48981,41.653008,50,63,42
41.65648,42.15648,50,63,42
42.15648,42.31967,55,66,42
42.323143,42.823143,55,67,42
42.823143,42.98634,50,70,42
42.98981,43.48981,50,71,42
43.48981,43.653004,55,74,42
43.656475,43.934254,55,75,42
44.989807,45.16628,62,83,42
45.16628,45.339073,55,84,42
45.34275,45.51922,55,85,42
45.51922,45.692013,50,86,42
45.69569,45.87641,50,87,42
45.87641,46.05337,43,88,42
46.057137,46.237858,43,89,42
46.237858,46.414814,36,90,42
46.41858,49.068577,36,92,42
49.151913,49.485245,41,92,42
49.485245,49.763023,37,88,42
49.818577,50.40191,39,84,42
50.485245,51.068577,41,76,42
51.15191,51.73524,43,68,42
51.818577,52.73524,36,60,42
52.818573,53.09635,39,75,42
53.15191,53.73524,43,92,42
53.818573,54.401905,46,75,42
54.485237,55.401905,39,60,42
55.485237,55.763016,42,60,42
55.81857,56.401905,46,64,42
56.485237,57.06857,50,73,42
57.485237,57.81857,50,87,42
57.81857,58.1519,53,92,42
58.1519,58.42968,46,75,42
59.985233,60.065094,43,92,42
60.1519,60.231762,46,92,42
60.318565,60.398426,39,92,42
60.485233,61.068565,51,60,42
61.318565,61.398426,44,60,42
61.485233,61.565094,48,64,42
61.651897,61.73176,41,69,42
61.818565,62.401897,53,75,42
62.651897,62.73176,45,75,42
62.818565,62.898426,48,77,42
62.98523,63.06509,41,79,42
63.151897,63.73523,53,81,42
63.98523,64.15189,58,92,42
64.15189,64.318565,60,92,42
64.318565,64.48523,62,89,42
64.48523,65.87479,63,86,42
65.87479,66.50732,65,60,42
66.7784,66.95912,53,60,42
66.95912,67.13984,55,60,42
67.13984,67.320564,57,60,42
67.320564,68.79346,58,60,42
68.79346,69.44971,60,60,42
69.54346,69.72705,63,60,42
70.29346,70.47705,51,60,42
71.23576,71.42807,54,60,42
71.42807,71.62038,53,60,42
71.62038,71.81268,54,60,42
71.81268,72.133194,53,60,42
72.1973,72.385605,51,60,42
72.96653,73.15483,50,65,42
73.73576,73.924065,44,70,42
74.31268,74.50499,47,76,42
74.50499,74.697296,46,78,42
74.697296,74.8896,47,80,42
74.8896,75.21012,46,82,42
75.835304,76.01178,55,92,42
76.01178,76.18825,58,92,42
76.18825,76.36104,51,92,42
76.54119,76.71766,52,92,42
76.71766,76.89413,55,92,42
76.89413,77.066925,48,92,42
77.24707,77.42354,53,92,42
77.42354,77.60001,56,92,42
77.60001,77.772804,51,92,42
77.95295,78.129425,50,92,42
78.129425,78.30589,53,92,42
78.30589,78.47868,46,92,42
78.48236,78.835304,51,92,42
78.835304,79.30589,49,92,42
79.364716,79.54118,48,92,42
79.54118,79.71766,46,92,42
79.71766,79.89045,48,92,42
79.89413,80.070595,46,92,42
80.070595,80.24339,44,92,42
80.24707,80.71766,47,92,42
80.77648,80.95295,46,92,42
80.95295,81.12942,44,92,42
81.12942,81.302216,46,92,42
81.30589,81.364716,44,92,42
81.48236,81.65883,43,92,42
81.65883,81.835304,46,92,42
81.835304,82.008095,39,92,42
82.18824,82.364716,43,92,42
82.364716,82.54118,47,92,42
82.54118,82.71398,39,92,42
82.89413,83.070595,43,92,42
83.070595,83.24707,48,92,42
83.24707,83.41986,39,92,42
83.42354,83.71765,51,92,42
83.77648,84.070595,50,92,42
85.01177,85.09633,46,92,42
85.18824,85.272804,50,92,42
85.364716,85.44927,43,92,42
85.54118,86.776474,55,92,42
86.776474,86.94927,56,68,42
87.12942,87.305885,48,60,42
87.305885,87.48236,51,60,42
87.48236,87.65515,44,60,42
87.8353,88.01177,48,60,42
88.01177,88.18824,52,60,42
88.18824,88.36104,44,60,42
88.54118,88.71765,48,60,42
88.71765,88.89412,53,60,42
88.89412,89.06692,44,60,42
89.070595,89.36471,56,60,42
89.42353,89.71765,55,60,42
89.776474,90.305885,65,60,42
90.305885,90.47868,63,60,42
90.48235,91.01177,62,60,42
91.01177,91.18456,60,60,42
91.18824,91.71765,58,60,42
91.71765,91.89044,56,60,42
91.89412,92.070595,55,60,42
92.070595,92.24706,53,60,42
92.24706,92.41985,52,60,42
92.42353,92.600006,53,60,42
92.600006,92.78072,56,60,42
92.78072,92.95768,49,60,42
93.14217,93.32289,53,60,42
93.32289,93.50362,57,60,42
93.50362,93.68057,49,60,42
93.86506,94.045784,53,60,42
94.045784,94.233284,58,63,42
94.233284,94.41688,49,66,42
94.420784,94.608284,53,69,42
94.608284,94.79188,46,72,42
94.795784,94.983284,53,76,42
94.983284,95.16688,44,80,42
95.170784,95.358284,49,84,42
95.358284,95.54188,41,88,42
95.545784,95.73809,44,92,42
95.73809,95.92639,37,92,42
96.1227,96.31501,41,92,42
96.31501,96.507324,44,92,42
96.507324,96.695625,36,92,42
96.89194,97.08424,53,92,42
97.08424,97.27655,56,84,42
97.27655,97.46485,47,75,42
98.23809,99.41218,56,92,42
99.41218,99.74112,47,75,42
100.59638,101.28717,46,60,42
101.38586,102.109535,46,60,42
102.17532,102.86611,46,60,42
102.9648,103.688484,46,60,42
103.75427,104.44506,46,60,42
104.54374,105.25098,46,60,42
105.31348,105.96973,46,60,42
106.06348,106.75098,46,60,42
106.81348,107.46973,46,60,42
107.56348,108.25098,46,60,42
108.31348,108.96973,46,60,42
109.06348,109.43848,46,68,42
109.43848,109.75098,44,72,42
109.81348,110.46973,44,76,42
110.56348,110.87598,44,84,42
110.93848,111.2326,43,88,42
111.29142,111.909065,43,92,42
111.9973,112.29142,40,92,42
112.35024,112.96789,41,87,42
113.05612,113.673775,43,77,42
113.76201,114.379654,44,67,42
114.46789,115.08553,45,56,42
115.173775,115.46789,46,45,42
116.58553,117.114944,36,45,42
117.114944,117.28774,38,45,42
117.29142,117.82083,38,45,42
117.82083,117.99362,39,45,42
117.9973,118.29142,39,45,42
119.409065,119.93848,38,45,42
119.93848,120.11127,40,47,42
120.114944,120.644356,40,47,42
120.644356,120.817154,41,49,42
120.82082,121.114944,41,49,42
122.23259,122.762,41,54,42
122.762,122.9348,48,56,42
122.93848,123.46789,48,56,42
123.46789,123.64068,53,58,42
123.644356,124.17377,53,58,42
124.17377,124.34656,60,60,42
124.350235,124.87965,60,60,42
124.87965,125.052444,65,62,42
125.05612,125.57938,42,62,42
125.57938,125.75016,48,64,42
125.75379,126.27705,48,64,42
126.27705,126.44783,54,67,42
126.45147,126.974724,54,67,42
126.974724,127.14551,60,70,42
127.14914,127.67239,60,71,42
127.67239,127.84318,66,74,42
127.84682,128.36406,43,75,42
128.36406,128.53288,48,78,42
128.53647,129.05371,48,79,42
129.05371,129.22253,55,82,42
129.22612,129.74336,55,83,42
129.74336,129.91219,60,86,42
129.91577,130.43301,60,87,42
130.43301,130.60184,67,90,42
130.60544,131.10542,44,92,42
131.10542,131.26863,48,92,42
131.2721,131.7721,48,92,42
131.7721,131.93529,56,92,42
131.93877,132.46817,56,92,42
132.46817,132.64098,60,92,42
132.64464,133.17406,60,92,42
133.17406,133.34685,68,92,42
136.71416,137.0778,48,92,42
137.0778,137.71416,44,92,42
138.158,138.51096,39,92,42
138.51096,139.1286,36,92,42
139.55017,139.8835,60,75,42
139.8835,140.3835,56,60,42
140.3835,140.54669,54,60,42
140.55017,140.71683,51,60,42
140.71683,140.8835,44,60,42
140.8835,141.05017,48,60,42
141.05017,141.21683,51,60,42
141.21683,141.71683,56,60,42
141.71683,141.88002,54,64,42
141.8835,142.05017,51,65,42
142.05017,142.21683,44,66,42
142.21683,142.3835,48,67,42
142.3835,142.55017,51,68,42
142.55017,142.82794,56,69,42
142.8835,143.50092,54,72,42
143.55774,143.89865,51,80,42
143.89865,144.07144,48,84,42
144.25159,144.42438,44,88,42
144.60454,145.11589,61,92,42
145.11589,145.28279,63,92,42
145.28635,145.79771,63,92,42
145.79771,145.96461,64,87,42
145.96817,146.30908,64,86,42
146.30908,146.59317,55,83,42
146.99089,147.3318,44,75,42
147.3318,147.92839,40,75,42
148.35452,148.69543,47,75,42
148.69543,149.29202,44,75,42
149.71817,150.05908,68,75,42
150.05908,150.57043,64,75,42
150.57043,150.73734,62,60,42
150.74089,150.91135,59,60,42
150.91135,151.0818,52,60,42
151.0818,151.25226,56,45,42
151.25226,151.42271,59,45,42
151.42271,151.93408,64,45,42
151.93408,152.10098,62,45,42
152.10452,152.27498,59,45,42
152.27498,152.44543,52,47,42
152.44543,152.61589,56,49,42
152.61589,152.78635,59,51,42
152.78635,153.07043,64,53,42
153.12726,153.72385,62,57,42
153.80907,154.14998,59,67,42
154.14998,154.43407,56,72,42
154.49089,155.08748,52,77,42
155.17271,155.4568,40,87,42
155.51363,156.02498,57,92,42
156.02498,156.19188,59,92,42
156.19543,156.7068,59,92,42
156.7068,156.8737,60,92,42
156.87726,157.21817,60,92,42
157.21817,157.50226,51,87,42
157.89998,158.18407,52,75,42
158.24089,158.83748,48,60,42
158.92271,159.09317,47,60,42
159.09317,159.26007,54,60,42
159.26361,159.43407,54,60,42
159.43407,159.60098,57,60,42
159.60452,160.20111,52,60,42
160.28635,160.4568,51,60,42
160.4568,160.6237,54,62,42
160.62726,160.79771,54,64,42
160.79771,160.96461,63,66,42
160.96817,161.64998,63,68,42
161.64998,161.93407,64,76,42
161.99089,162.3318,59,80,42
162.3318,162.67271,57,84,42
162.67271,162.9568,55,88,42
163.01361,163.69543,41,92,42
163.69543,164.37726,40,75,42
164.37726,164.97385,36,75,42
165.05907,165.74089,56,75,42
165.74089,166.0818,57,68,42
166.0818,166.36589,52,64,42
166.42271,166.76361,50,60,42
166.76361,167.04771,48,60,42
167.10452,167.44543,47,60,42
167.44543,167.72952,45,60,42
167.78635,168.12726,43,60,42
168.12726,168.41135,41,68,42
168.46815,168.80907,57,76,42
168.80907,169.09315,45,84,42
169.14998,169.66135,40,92,42
169.66135,169.82825,36,92,42
169.8318,170.34315,36,92,42
170.34315,170.51007,40,84,42
170.51361,171.02498,40,82,42
171.02498,171.19188,36,74,42
171.19543,171.7068,36,72,42
171.7068,171.8737,40,63,42
171.87726,172.16135,40,60,42
173.24089,173.41135,64,60,42
173.41135,173.57825,59,64,42
173.5818,173.75224,59,68,42
173.75224,173.91916,52,72,42
173.9227,174.09918,52,76,42
174.09918,174.27197,47,80,42
174.27565,174.45212,47,84,42
174.45212,174.62491,40,88,42
174.62859,177.21191,45,92,42
177.29526,177.62859,50,92,42
177.62859,177.90636,46,90,42
177.96191,178.54524,48,88,42
178.62859,179.21191,50,84,42
179.29524,179.87859,52,80,42
179.96191,180.87859,45,76,42
180.96191,181.23969,48,70,42
181.29524,181.87859,52,68,42
181.96191,182.54524,55,64,42
182.62859,183.54524,48,60,42
183.62857,183.90636,51,60,42
183.96191,184.54524,55,60,42
184.62857,185.21191,59,60,42
185.62857,185.96191,59,75,42
185.96191,186.29524,62,92,42
186.29524,186.57301,55,75,42
188.12857,188.20844,40,92,42
188.29524,188.3751,43,92,42
188.46191,188.54176,36,92,42
188.62857,189.2119,48,92,42
189.4619,189.54176,41,92,42
189.62857,189.70844,45,92,42
189.79524,189.8751,36,92,42
189.9619,190.04176,50,92,42
190.79524,190.87509,42,92,42
190.9619,191.04176,45,92,42
191.12857,191.20844,38,92,42
191.29524,191.87857,50,92,42
192.12857,192.29524,55,92,42
192.29524,192.4619,57,90,42
192.4619,192.62857,59,87,42
192.62857,193.9619,60,84,42
193.9619,194.54523,62,60,42
194.79523,194.9619,50,60,42
194.9619,195.12857,52,60,42
195.12857,195.29523,54,60,42
195.29523,196.64372,55,60,42
196.64372,197.26137,57,60,42
197.3496,197.52655,60,45,42
198.0725,198.24945,48,45,42
198.98288,199.17038,51,45,42
199.17038,199.35788,50,45,42
199.35788,199.54538,51,45,42
199.54538,199.85788,50,45,42
199.92038,200.10397,48,45,42
200.67038,200.85397,47,45,42
201.42038,201.60397,41,57,42
201.98288,202.17038,44,66,42
202.17038,202.35788,43,69,42
202.35788,202.54538,44,72,42
202.54538,202.85788,43,75,42
203.4761,203.65683,52,92,42
203.65683,203.83754,55,92,42
203.83754,204.01451,48,92,42
204.19899,204.37971,49,92,42
204.37971,204.56044,52,91,42
204.56044,204.7374,45,90,42
204.91763,205.0941,50,88,42
205.0941,205.27057,53,87,42
205.27057,205.44336,48,86,42
205.6235,205.79999,47,84,42
205.79999,205.97646,50,83,42
205.97646,206.14925,43,82,42
206.15292,206.49384,48,80,42
206.49384,206.94838,46,76,42
207.00519,207.17564,45,70,42
207.17564,207.3461,43,68,42
207.3461,207.513,45,66,42
207.51656,207.68323,43,64,42
207.68323,207.84642,41,62,42
207.8499,208.29434,44,60,42
208.34988,208.51656,43,60,42
208.51656,208.68323,41,60,42
208.68323,208.84642,43,60,42
208.84988,208.90544,41,60,42
209.01656,209.18323,40,60,42
209.18323,209.34988,43,61,42
209.34988,209.51309,36,62,42
209.68323,209.84988,40,64,42
209.84988,210.01656,44,65,42
210.01656,210.17975,36,66,42
210.34988,210.51656,40,68,42
210.51656,210.68323,45,70,42
210.68323,210.84642,36,72,42
210.84988,211.12767,48,74,42
211.18323,211.461,47,78,42
212.34988,212.42975,43,92,42
212.51656,212.59642,47,92,42
212.68323,212.76308,40,92,42
212.84988,214.01656,52,92,42
214.01656,214.17975,53,80,42
214.34988,214.51656,45,76,42
214.51656,214.68321,48,74,42
214.68321,214.84642,41,72,42
215.01656,215.18321,45,68,42
215.18321,215.34988,49,66,42
215.34988,215.51308,41,64,42
215.68321,215.84988,45,60,42
215.84988,216.01656,50,60,42
216.01656,216.17975,41,60,42
216.18321,216.461,53,60,42
216.51656,216.79433,52,67,42
217.68321,217.76308,48,92,42
217.84988,217.92975,52,92,42
218.01656,218.0964,45,92,42
218.18321,219.09988,57,92,42
219.34988,219.51654,50,72,42
219.51654,219.68321,53,69,42
219.68321,219.8464,46,66,42
220.01654,220.18321,50,60,42
220.18321,220.34988,54,60,42
220.34988,220.51308,46,60,42
220.68321,220.84988,50,60,42
220.84988,221.02429,55,63,42
221.02429,221.19508,46,66,42
221.19872,221.37314,50,69,42
221.37314,221.54391,43,72,42
221.54755,221.72827,50,76,42
221.72827,221.90523,41,80,42
221.909,222.08972,46,84,42
222.08972,222.26668,50,88,42
222.27045,222.45795,53,92,42
222.45795,222.64154,46,92,42
222.83295,223.02045,50,92,42
223.02045,223.20795,53,92,42
223.20795,223.39154,45,92,42
223.58295,223.77045,50,75,42
223.77045,223.95795,53,75,42
223.95795,224.14154,44,75,42
224.89545,226.02045,53,105,42
226.02045,226.33295,44,75,42
226.77045,227.08295,43,60,42
227.14545,227.8017,55,60,42
227.89545,228.57164,55,60,42
228.63188,229.26442,55,60,42
229.35478,230.01743,55,45,42
230.07767,230.71019,55,45,42
230.80055,231.4527,55,45,42
231.51083,232.1213,55,45,42
232.20851,232.84805,55,45,42
232.90619,233.51665,55,45,42
233.60387,234.2434,55,45,42
234.30153,234.912,43,55,42
234.9992,235.34805,43,65,42
235.34805,235.63214,37,70,42
235.68895,236.28555,37,75,42
236.37077,236.65486,37,86,42
236.71169,236.98946,36,92,42
237.04501,237.62834,36,92,42
237.71169,238.04501,37,92,42
238.04501,238.71169,38,92,42
238.71169,239.37834,45,92,42
239.37834,240.04501,50,77,42
240.04501,240.32278,62,61,42
240.71169,240.98946,43,45,42
241.04501,241.62834,55,45,42
241.71169,241.87488,55,65,42
242.04501,242.32278,44,75,42
242.37834,243.04501,56,60,42
243.04501,243.2082,57,45,42
243.37834,243.65613,45,45,42
243.71167,244.29501,57,46,42
244.37834,244.54153,57,50,42
244.71167,244.98946,46,51,42
245.04501,245.71167,58,53,42
245.71167,245.87486,59,57,42
246.04501,246.32278,47,59,42
246.37834,246.96167,59,61,42
247.04501,247.2082,59,65,42
247.37834,247.65611,47,67,42
247.71167,248.37834,59,69,42
248.37834,248.54153,60,73,42
248.71167,248.98944,48,75,42
249.045,249.62834,60,77,42
249.71167,250.32278,61,81,42
250.37834,250.96167,61,85,42
251.045,251.32278,60,89,42
251.37834,251.71167,59,92,42
251.71167,251.98944,64,92,42
252.045,252.37833,67,92,42
252.37833,252.65611,70,92,42
252.71167,252.98944,71,92,42
253.045,253.62833,71,92,42
253.71167,254.045,71,92,42
254.045,254.32277,72,92,42
254.37833,254.96167,72,92,42
255.045,255.37833,72,92,42
255.37833,255.65611,73,92,42
255.71167,256.29498,73,92,42
256.37833,256.71167,73,92,42
256.71167,256.98944,74,92,42
257.04498,257.37833,74,92,42
257.37833,257.6561,72,91,42
257.71167,258.04498,72,90,42
258.04498,258.32278,70,88,42
258.37833,258.71167,70,86,42
258.71167,258.98944,65,84,42
259.04498,259.37833,65,82,42
259.37833,259.6561,58,80,42
259.71167,260.04498,58,78,42
260.04498,260.32278,53,76,42
260.37833,260.71167,53,74,42
260.71167,261.00235,38,72,42
261.0605,261.40933,38,70,42
261.40933,261.70004,39,68,42
261.75818,262.107,39,66,42
262.107,262.4082,41,64,42
262.8299,263.8653,53,60,42
265.0528,265.3861,42,60,42
265.85278,266.9861,54,45,42
268.25278,268.42557,43,92,42
268.6057,269.18906,55,105,42
269.6057,269.7724,67,75,42
269.7724,269.93558,62,75,42
269.93906,270.1057,62,75,42
270.1057,270.26892,55,75,42
270.2724,270.44284,55,75,42
270.44284,270.60974,50,75,42
270.6133,270.79404,50,75,42
270.79404,270.97098,43,75,42
270.97476,271.15836,43,92,42
272.47476,272.66226,62,92,42
272.66226,272.84586,63,92,42
272.84976,273.03726,63,92,42
273.03726,273.22086,65,92,42
273.22476,273.41226,65,92,42
273.41226,273.59586,62,92,42
273.59976,273.78726,62,92,42
273.78726,273.97086,60,92,42
273.97476,274.1512,57,92,42
274.1512,274.324,58,90,42
274.3277,274.50415,58,88,42
274.50415,274.67694,60,86,42
274.68063,274.8571,60,84,42
274.8571,275.0299,57,82,42
275.03357,275.21005,57,80,42
275.21005,275.38284,55,78,42
276.79828,277.46494,62,60,42
277.46494,278.04828,61,60,42
278.1316,278.4094,60,60,42
279.46494,280.1316,47,60,42
280.1316,280.71494,46,65,42
280.79828,281.46494,45,70,42
281.46494,282.04828,44,75,42
282.1316,282.79828,43,80,42
282.79828,283.3816,38,86,42
283.46494,284.71494,36,92,42
284.79828,285.3816,39,92,42
285.46494,286.04828,44,92,42
286.1316,286.71494,48,75,42
286.79828,287.3816,47,75,42
287.46494,288.04828,44,60,42
288.1316,288.71494,43,60,42
288.79825,289.3816,41,60,42
289.46494,290.04825,39,62,42
290.1316,290.71494,36,64,42
290.79825,291.3816,39,66,42
291.46494,291.6281,38,68,42
292.29825,292.35382,38,70,42
292.46494,292.6316,38,70,42
292.6316,292.7948,43,70,42
292.79825,293.07605,43,70,42
293.6316,293.68713,46,73,42
293.79825,293.96494,46,74,42
293.96494,294.1281,50,75,42
294.1316,294.40936,50,76,42
294.96494,295.02048,50,81,42
295.1316,295.29825,50,82,42
295.29825,295.46146,55,83,42
295.46494,295.7427,55,84,42
296.29825,296.35382,55,89,42
296.46494,296.6316,55,90,42
296.6316,296.79477,56,91,42
296.79825,297.29825,56,92,42
297.29825,297.46146,55,92,42
297.46494,297.96494,55,92,42
297.96494,298.1281,53,92,42
298.1316,298.40936,53,92,42
299.4649,299.9649,41,92,42
299.9649,300.1281,43,92,42
300.1316,300.6316,43,92,42
300.6316,300.79477,44,92,42
300.79825,301.07602,44,92,42
302.4649,302.6316,49,92,42
302.6316,302.79477,37,92,42
302.79825,302.9649,37,92,42
302.9649,303.1281,36,92,42
303.1316,303.29825,36,92,42
303.29825,303.46146,37,92,42
303.4649,303.7427,37,92,42
304.79825,305.29825,46,75,42
305.29825,305.46143,44,75,42
305.4649,305.9649,44,75,42
305.9649,306.1281,43,75,42
306.1316,306.6316,49,75,42
306.6316,306.79477,46,75,42
306.79825,307.29825,44,75,42
307.29825,307.46143,43,75,42
307.4649,307.74268,43,75,42
309.63156,309.68713,59,75,42
309.79825,309.9649,59,75,42
309.9649,310.1281,60,75,42
310.13156,310.29825,60,75,42
310.29825,310.46143,56,75,42
310.4649,310.63156,56,75,42
310.63156,310.79477,51,75,42
310.79825,310.9649,51,75,42
310.9649,311.1281,48,75,42
311.13156,311.29825,48,75,42
311.29825,311.46143,44,75,42
311.4649,311.63156,44,75,42
311.63156,311.79477,39,75,42
311.79825,311.9649,39,75,42
311.9649,312.1281,36,75,42
312.13156,312.57602,36,75,42
313.13156,313.29477,48,92,42
313.13156,313.29477,51,92,42
313.4649,313.90936,47,105,42
313.4649,313.90936,50,105,42
314.4649,314.6281,44,75,42
314.79825,315.24268,43,105,42
315.79825,316.13156,53,75,42
316.13156,316.40933,51,75,42
316.4649,316.74268,48,75,42
316.79825,316.96143,43,75,42
317.4649,317.62808,43,75,42
318.13156,318.2045,53,75,42
318.3538,318.4267,51,75,42
318.57602,318.64893,50,75,42
318.79822,318.87115,48,75,42
319.02045,319.09338,46,75,42
319.24268,319.31558,44,75,42
319.4649,319.62808,43,75,42
320.13156,320.29477,55,75,42
320.79822,322.3743,36,75,42
322.42865,322.75476,53,75,42
322.42865,323.0265,36,75,42
322.75476,323.0265,51,75,42
323.08084,323.40692,50,75,42
323.08084,323.67288,36,75,42
323.40692,323.67288,48,75,42
323.72607,324.28458,36,75,42
323.72607,324.28458,48,75,42
324.36435,324.94946,36,75,42
324.36435,324.94946,48,75,42
325.00266,325.3218,53,75,42
325.00266,325.58777,36,75,42
325.3218,325.58777,51,75,42
325.64096,325.9601,50,75,42
325.64096,326.22052,36,75,42
325.9601,326.22052,48,75,42
326.2726,326.8195,36,75,42
326.2726,326.8195,48,75,42
326.8976,327.47052,36,75,42
326.8976,327.47052,48,75,42
327.5226,327.8351,60,75,42
327.5226,328.09552,36,75,42
327.8351,328.09552,58,75,42
328.1476,328.4601,56,75,42
328.1476,328.72052,36,75,42
328.4601,328.72052,55,75,42
328.7726,329.0851,58,75,42
328.7726,329.34552,36,75,42
329.0851,329.34552,56,75,42
329.3976,329.7101,55,75,42
329.3976,329.97052,36,75,42
329.7101,329.97052,53,75,42
330.0226,330.3351,56,75,42
330.0226,330.59552,36,75,42
330.3351,330.59552,55,75,42
330.6476,330.8006,36,75,42
330.6476,330.8006,53,75,42
330.9601,331.1131,36,75,42
330.9601,331.1131,51,75,42
331.2726,331.5851,55,75,42
331.2726,331.84552,36,75,42
331.5851,331.84552,53,74,42
331.8976,332.2101,51,73,42
331.8976,332.47052,36,73,42
332.2101,332.47052,50,72,42
332.5226,332.8351,51,71,42
332.5226,333.09552,36,71,42
332.8351,333.09552,50,70,42
333.1476,333.4601,48,69,42
333.1476,333.72052,36,69,42
333.4601,333.72052,47,68,42
333.7726,334.0851,48,67,42
333.7726,334.34552,36,67,42
334.0851,334.34552,46,66,42
334.3976,334.97052,36,65,42
334.3976,334.97052,44,65,42
335.0226,335.5695,36,63,42
335.0226,335.5695,44,63,42
335.6476,336.8195,36,60,42
335.6476,336.8195,44,60,42
336.8976,337.0506,36,60,42
336.8976,337.0506,44,60,42
337.2101,337.35696,36,60,42
337.2101,337.35696,43,60,42
338.1101,338.2601,60,60,42
338.2601,338.40698,55,63,42
338.4101,338.55716,55,66,42
338.55716,338.70114,48,69,42
338.70422,338.8513,48,72,42
338.8513,338.99527,43,75,42
338.99835,339.1454,43,78,42
339.1454,339.2894,39,81,42
339.29245,339.4395,39,84,42
339.4395,339.5835,36,88,42
339.58658,339.90237,36,92,42
339.90237,340.05698,44,75,42
339.90237,340.21487,51,75,42
339.9813,340.21487,60,75,42
340.84973,341.02252,43,92,42
341.5556,341.75143,43,92,42
342.35562,344.0056,36,92,42
346.5556,347.0556,36,10,42
