start_time,end_time,note_value,velocity,instrument_program_number
2.454543,2.5852246,76,40,40
2.5909064,2.7215881,76,40,40
2.72727,2.8579516,76,40,40
2.8636334,2.9943151,76,40,40
2.999997,3.1306787,76,40,40
3.1363604,3.2670422,76,40,40
3.272724,3.4034057,81,40,40
3.4090874,3.5397692,81,40,40
3.545451,3.6761327,76,40,40
3.6818144,3.8124962,76,40,40
3.818178,3.9488597,76,40,40
3.9545414,4.085223,76,40,40
4.090905,4.2215867,78,40,40
4.2272687,4.35795,78,40,40
4.363632,4.4943137,76,40,40
4.4999957,4.630677,76,40,40
4.636359,4.7670407,76,40,40
4.7727227,4.903404,76,40,40
4.909086,5.0397677,76,40,40
5.0454497,5.1761312,74,40,40
5.181813,5.3124948,72,40,40
5.3181763,5.4488583,71,40,40
5.45454,5.585222,69,40,40
5.5909033,5.7215853,67,40,40
5.727267,5.857949,66,40,40
5.8636303,5.9943123,69,40,40
5.999994,6.130676,74,40,40
6.1363573,6.2670393,74,40,40
6.272721,6.403403,74,40,40
6.4090843,6.5397663,74,40,40
6.545448,6.67613,74,40,40
6.6818113,6.8124933,74,40,40
6.818175,6.948857,74,40,40
6.9545383,7.0852203,74,40,40
7.090902,7.221584,76,40,40
7.2272654,7.3579473,78,40,40
7.363629,7.488629,79,40,40
7.494064,7.619064,83,42,40
7.6244984,7.7494984,86,44,40
7.7549334,7.8799334,86,46,40
7.885368,8.010368,86,48,40
8.015802,8.140802,86,50,40
8.146237,8.271237,91,52,40
8.276672,8.401672,91,54,40
8.407107,8.532107,86,56,40
8.537541,8.662541,86,58,40
8.667976,8.792976,86,60,40
8.798411,8.923411,86,62,40
8.928846,9.053846,88,64,40
9.05928,9.18428,88,66,40
9.189715,9.314715,86,68,40
9.32015,9.44515,86,71,40
9.450585,9.575585,86,74,40
9.581019,9.706019,86,77,40
9.711454,9.831246,91,80,40
9.836454,9.956246,91,80,40
9.961454,10.081246,86,72,40
10.086454,10.206246,86,64,40
10.211454,10.331246,86,56,40
10.336454,10.456246,86,48,40
10.461454,10.586454,88,40,40
10.591889,10.716889,88,40,40
10.722324,10.847324,88,45,40
10.852758,10.977758,88,50,40
10.983193,11.108193,88,55,40
11.113628,11.238628,88,60,40
11.244063,11.374744,88,65,40
11.380426,11.511108,88,70,40
11.51679,11.647471,88,76,40
11.653153,11.783835,88,82,40
11.789517,11.920198,88,88,40
11.92588,12.056562,88,94,40
12.062244,12.192925,88,100,40
12.198607,12.329289,86,100,40
12.334971,12.465652,84,92,40
12.471334,12.602016,83,84,40
12.607698,12.7383795,81,76,40
12.744061,12.874743,79,68,40
12.880425,13.0111065,78,60,40
13.0167885,13.14747,76,60,40
13.153152,13.2838335,74,58,40
13.2895155,13.4201975,72,56,40
13.425879,13.5565605,71,54,40
13.5622425,13.6929245,69,52,40
13.698606,13.829288,67,49,40
13.8349695,13.9656515,66,46,40
13.971333,14.102015,64,43,40
14.107697,14.238379,62,40,40
17.131071,17.398117,55,60,40
17.403797,17.670843,57,60,40
17.676525,17.943571,59,60,40
17.949251,18.676523,60,60,40
18.767433,19.494705,59,60,40
19.585613,19.85266,57,60,40
19.858341,20.125385,59,60,40
20.131067,20.398113,57,60,40
20.403795,20.85834,55,60,40
20.94925,21.216293,59,60,40
21.221975,21.949247,62,60,40
22.040157,22.307201,62,60,40
22.312883,22.57993,64,60,40
22.585611,22.852655,66,60,40
22.858337,23.58561,67,60,40
23.67652,24.403791,62,60,40
24.4947,24.562881,59,60,40
24.562881,24.631063,60,60,40
24.631063,24.761745,59,60,40
24.767427,25.034472,57,60,40
25.040154,25.3072,55,60,40
25.312881,26.676516,62,60,40
26.676516,26.943562,61,60,40
26.949244,27.216288,62,60,40
27.22197,27.489016,64,61,40
27.494698,27.761742,66,62,40
27.767424,28.22197,67,63,40
28.312878,28.579924,62,65,40
28.585606,28.653788,59,66,40
28.653788,28.721968,60,66,40
28.721968,28.85265,59,66,40
28.858332,29.125378,57,66,40
29.13106,29.398104,55,67,40
29.403786,29.94924,59,68,40
29.94924,30.216286,61,70,40
30.221968,31.585602,61,71,40
31.585602,31.852648,62,78,40
31.85833,33.221966,62,80,40
33.221966,33.48901,64,80,40
33.49469,33.761738,64,80,40
33.767418,34.034462,66,80,40
34.040146,34.30719,67,80,40
34.312874,34.858326,66,80,40
34.858326,35.12537,71,72,40
35.131054,35.410816,69,68,40
35.416767,35.69653,66,64,40
35.70248,35.982243,62,60,40
35.988194,36.788197,64,55,40
36.888195,37.615467,62,40,40
37.706375,37.83706,57,40,40
37.979103,38.433647,62,40,40
38.524555,38.65524,55,40,40
38.797283,39.251827,62,40,40
41.79728,42.52455,74,40,40
42.615463,42.746143,81,53,40
42.888187,43.342735,76,57,40
43.433643,43.564323,77,66,40
43.70637,44.160915,76,70,40
44.251823,44.320007,76,80,40
44.320007,44.388187,78,80,40
44.388187,44.52455,76,80,40
44.52455,44.79728,72,80,40
44.79728,45.064323,74,80,40
45.070004,45.797276,76,80,40
45.888187,46.018867,78,80,40
46.16091,46.61546,76,60,40
46.706367,46.979095,76,40,40
46.979095,47.25182,72,40,40
47.25182,47.518867,71,40,40
47.524548,48.615456,69,40,40
48.615456,48.888184,71,40,40
48.888184,49.155228,72,40,40
49.16091,49.433636,74,40,40
49.433636,49.706364,71,40,40
49.706364,49.973408,69,40,40
49.97909,51.07,67,40,40
51.07,51.342728,69,40,40
51.342728,51.60977,71,40,40
51.61545,52.160908,72,40,40
52.160908,52.42795,71,48,40
52.433636,52.979088,76,52,40
52.979088,53.24613,74,61,40
53.251816,53.797268,79,65,40
53.797268,54.064316,78,75,40
54.069996,54.35571,76,80,40
54.35571,54.641422,74,80,40
54.641422,54.92714,72,75,40
54.92714,55.22714,71,70,40
55.22714,55.527138,69,65,40
55.527138,55.827137,67,60,40
55.827137,56.139637,66,55,40
56.139637,56.452137,64,50,40
56.452137,56.75813,62,45,40
56.764637,57.855545,67,40,40
57.855545,58.128273,69,40,40
58.128273,58.395317,71,40,40
58.401,60.173725,67,40,40
60.31009,60.582817,71,40,40
60.582817,60.85554,74,40,40
60.85554,61.12827,69,40,40
61.12827,61.400997,71,40,40
61.400997,61.66804,69,40,40
61.673725,62.764633,79,40,40
62.764633,63.037357,81,40,40
63.037357,63.304405,83,40,40
63.310085,65.08281,79,40,40
65.21918,65.491905,83,40,40
65.491905,65.764626,86,42,40
65.764626,66.03735,81,44,40
66.03735,66.31008,83,46,40
66.31008,66.85554,81,48,40
66.85554,67.128265,84,52,40
67.128265,67.40099,88,54,40
67.40099,67.67372,83,56,40
67.67372,67.94644,84,58,40
67.94644,68.48621,83,61,40
68.4919,68.764626,86,67,40
68.764626,69.317116,90,70,40
69.32307,69.60878,88,76,40
69.60878,70.18825,91,79,40
70.194496,70.49449,90,85,40
70.49449,71.10371,93,88,40
71.11028,71.42607,91,94,40
71.42607,71.73528,95,97,40
71.74186,72.0089,97,100,40
74.1964,74.32709,78,40,40
74.33277,74.46345,78,40,40
74.46913,74.599815,78,40,40
74.6055,74.736176,78,40,40
74.74186,74.87254,78,40,40
74.87822,75.0089,78,40,40
75.01459,75.14527,83,40,40
75.15095,75.28163,83,40,40
75.287315,75.41799,78,40,40
75.423676,75.55436,78,40,40
75.56004,75.69072,78,40,40
75.6964,75.82709,78,40,40
75.83276,75.96345,80,40,40
75.96913,76.099815,80,40,40
76.10549,76.236176,78,40,40
76.24186,76.372536,78,40,40
76.37822,76.5089,78,40,40
76.51459,76.64526,78,40,40
76.65095,76.78163,83,40,40
76.78731,76.91799,83,41,40
76.923676,77.05436,78,42,40
77.060036,77.19072,78,43,40
77.1964,77.32709,78,44,40
77.33276,77.46345,78,45,40
77.46913,77.59981,79,46,40
77.60549,77.736176,79,47,40
77.74186,77.872536,81,48,40
77.87822,78.0089,81,49,40
78.01458,78.14526,81,50,40
78.15095,78.28163,81,51,40
78.28731,78.41799,86,52,40
78.423676,78.55435,86,54,40
78.560036,78.69072,81,56,40
78.6964,78.82708,81,58,40
78.83276,78.96345,81,60,40
78.969124,79.09981,81,62,40
79.10549,79.24239,83,64,40
79.248344,79.385254,83,66,40
79.391205,79.52811,85,68,40
79.534065,79.67097,85,70,40
79.67692,79.81382,85,72,40
79.81978,79.95668,85,74,40
79.96263,80.106384,90,76,40
80.11263,80.256386,90,78,40
80.262634,80.40638,85,80,40
80.412636,80.55638,85,82,40
80.56263,80.70638,85,84,40
80.71263,80.856384,85,86,40
80.86263,81.01395,90,88,40
81.02053,81.171844,90,90,40
81.17842,81.329735,86,92,40
81.33632,81.48763,86,94,40
81.49421,81.64552,92,96,40
81.65211,81.80342,92,98,40
81.81,81.946365,93,100,40
81.946365,82.07704,81,100,40
82.082726,82.21909,81,100,40
82.21909,82.35545,69,100,40
82.35545,82.48614,81,100,40
82.49182,82.6225,81,100,40
82.62818,82.76454,93,100,40
82.76454,82.895226,81,100,40
82.90091,83.03727,81,100,40
83.03727,83.17364,69,100,40
83.17364,83.30431,81,100,40
83.31,83.44068,81,100,40
83.446365,83.582726,93,100,40
83.582726,83.71341,81,100,40
83.719086,83.85545,81,100,40
83.85545,83.99181,69,100,40
83.99181,84.1225,81,100,40
84.12818,84.25886,81,100,40
84.26454,84.40091,93,100,40
84.40091,84.531586,81,100,40
84.53727,84.67363,81,100,40
84.67363,84.81,69,100,40
84.81,84.94068,81,100,40
84.94636,85.07704,81,100,40
85.082726,85.219086,93,100,40
85.219086,85.34977,81,100,40
85.35545,85.49181,81,100,40
85.49181,85.62818,69,100,40
85.62818,85.75886,81,100,40
85.76454,85.895226,81,100,40
85.9009,86.03727,93,100,40
86.03727,86.16795,81,100,40
86.17363,86.31,81,100,40
86.31,86.44636,69,100,40
86.44636,86.57704,81,100,40
86.582726,86.7134,81,100,40
86.719086,86.855446,93,100,40
86.855446,86.98613,81,100,40
86.99181,87.128174,81,100,40
87.128174,87.26454,69,100,40
87.26454,87.39522,81,100,40
87.4009,87.531586,81,100,40
87.53727,87.67363,93,100,40
87.67363,87.80431,81,100,40
87.81,87.94636,81,100,40
87.94636,88.08272,69,100,40
88.08272,88.2134,81,100,40
88.219086,88.34977,81,100,40
88.355446,88.49181,91,100,40
88.49181,88.62249,79,100,40
88.628174,88.76454,90,100,40
88.76454,88.89522,78,100,40
88.9009,89.03726,88,100,40
89.03726,89.167946,76,100,40
89.17363,89.30999,88,100,40
89.30999,89.440674,76,100,40
89.44636,89.58272,76,100,40
89.58272,89.719086,71,100,40
89.719086,89.84976,76,100,40
89.855446,89.98613,76,100,40
89.99181,90.128174,87,100,40
90.128174,90.25886,75,100,40
90.264534,90.4009,75,100,40
90.4009,90.53726,69,100,40
90.53726,90.667946,75,100,40
90.67363,90.804306,75,100,40
90.80999,90.94636,85,100,40
90.94636,91.077034,73,100,40
91.08272,91.21908,73,100,40
91.21908,91.355446,69,100,40
91.355446,91.48613,73,100,40
91.491806,91.62249,73,100,40
91.628174,91.764534,83,100,40
91.764534,91.89522,71,98,40
91.9009,92.03726,71,96,40
92.03726,92.17363,69,94,40
92.17363,92.304306,71,92,40
92.30999,92.440674,71,90,40
92.44635,92.58272,83,88,40
92.58272,92.7134,71,86,40
92.71908,92.855446,81,84,40
92.855446,92.98612,71,82,40
92.991806,93.128174,80,80,40
93.128174,93.25885,71,78,40
93.264534,93.400894,81,76,40
93.400894,93.53158,69,74,40
93.53726,93.67362,79,72,40
93.67362,93.804306,69,69,40
93.80999,93.94635,76,66,40
93.94635,94.077034,69,63,40
94.08272,94.21908,81,60,40
94.21908,94.35544,79,60,40
94.35544,94.491806,78,60,40
94.491806,94.62817,76,60,40
94.62817,94.764534,74,60,40
94.764534,94.89522,73,60,40
94.900894,95.03726,79,60,40
95.03726,95.17362,78,60,40
95.17362,95.30999,76,60,40
95.30999,95.44635,74,60,40
95.44635,95.58271,73,60,40
95.58271,95.713394,71,60,40
95.71908,95.85544,78,60,40
95.85544,95.991806,76,60,40
95.991806,96.12817,74,60,40
96.12817,96.264534,73,60,40
96.264534,96.400894,71,60,40
96.400894,96.53158,69,60,40
96.537254,96.67362,76,60,40
96.67362,96.80998,74,60,40
96.80998,96.94635,73,60,40
96.94635,97.08271,71,60,40
97.08271,97.21908,69,60,40
97.21908,97.349754,76,60,40
97.35544,97.491806,78,60,40
97.491806,97.62817,76,60,40
97.62817,97.76453,75,60,40
97.76453,97.900894,73,60,40
97.900894,98.037254,71,60,40
98.037254,98.16794,78,60,40
98.17362,98.30998,79,60,40
98.30998,98.44635,76,60,40
98.44635,98.58271,71,60,40
98.58271,98.71907,76,60,40
98.71907,98.85544,79,60,40
98.85544,98.98612,83,60,40
98.9918,99.12817,86,60,40
99.12817,99.26453,84,60,40
99.26453,99.400894,83,60,40
99.400894,99.537254,81,60,40
99.537254,99.67362,79,60,40
99.67362,99.8043,78,60,40
99.80998,99.94634,84,60,40
99.94634,100.08271,83,60,40
100.08271,100.21907,81,60,40
100.21907,100.35544,79,60,40
100.35544,100.4918,78,60,40
100.4918,100.62248,76,60,40
100.62817,100.76453,74,60,40
100.76453,100.90089,72,60,40
100.90089,101.037254,71,60,40
101.037254,101.173615,69,60,40
101.173615,101.30998,67,60,40
101.30998,101.44066,66,60,40
101.44634,101.58271,83,60,40
101.58271,101.71907,81,62,40
101.71907,101.85544,79,64,40
101.85544,101.9918,78,66,40
101.9918,102.12816,76,68,40
102.12816,102.25884,74,70,40
102.26453,102.40089,81,72,40
102.40089,102.537254,79,74,40
102.537254,102.673615,78,76,40
102.673615,102.80998,76,78,40
102.80998,102.94634,74,80,40
102.94634,103.07703,73,82,40
103.0827,103.21907,71,84,40
103.21907,103.35543,69,86,40
103.35543,103.4918,67,88,40
103.4918,103.62816,66,91,40
103.62816,103.76453,64,94,40
103.76453,103.8952,62,97,40
103.90089,104.03725,79,100,40
104.03725,104.173615,78,100,40
104.173615,104.309975,76,100,40
104.309975,104.44634,74,100,40
104.44634,104.5827,73,100,40
104.5827,104.71907,71,100,40
104.71907,104.85543,69,100,40
104.85543,104.9918,67,100,40
104.9918,105.12816,66,100,40
105.12816,105.26452,64,100,40
105.26452,105.40089,62,100,40
105.40089,105.53725,61,100,40
105.53725,105.673615,59,100,40
105.673615,105.809975,57,100,40
105.809975,105.94066,55,100,40
109.62815,109.90088,69,60,40
109.90088,110.17361,62,60,40
110.17361,110.44065,69,60,40
110.446335,111.17361,72,60,40
111.26452,111.53725,74,60,40
111.53725,111.80997,69,60,40
111.80997,112.07702,74,60,40
112.082695,113.17361,81,60,40
113.17361,113.446335,78,92,40
113.446335,113.71338,81,60,40
113.71906,114.26451,86,40,40
114.26451,114.531555,79,40,40
114.53724,115.082695,84,40,40
115.082695,115.34974,78,40,40
116.1736,116.719055,83,40,40
116.719055,116.9861,76,53,40
116.99178,117.53724,81,59,40
117.53724,117.80428,74,72,40
118.62814,118.76451,91,100,40
118.76451,118.90087,90,100,40
118.90087,119.03724,88,100,40
119.03724,119.1736,86,100,40
119.1736,119.30996,85,100,40
119.30996,119.44064,83,100,40
119.44633,119.58269,81,100,40
119.58269,119.719055,79,100,40
119.719055,119.855415,78,100,40
119.855415,119.99178,76,100,40
119.99178,120.12814,74,100,40
120.12814,120.2645,73,100,40
120.2645,120.40087,71,100,40
120.40087,120.53723,69,100,40
120.53723,120.6736,67,100,40
120.6736,120.80996,66,100,40
120.80996,120.94633,64,100,40
120.94633,121.077,62,100,40
121.08269,121.34973,61,100,40
121.90087,122.167915,60,100,40
124.39437,125.9658,69,60,40
124.39437,125.9658,76,60,40
127.00866,128.50241,69,40,40
127.00866,128.50241,76,40,40
128.80865,128.93935,76,40,40
128.94502,129.0757,76,40,40
129.08139,129.21207,76,40,40
129.21774,129.34843,76,40,40
129.35411,129.48479,76,40,40
129.49048,129.62115,76,40,40
129.62683,129.75752,81,40,40
129.7632,129.89389,81,40,40
129.89957,130.03024,76,40,40
130.03593,130.16661,76,40,40
130.17229,130.30298,76,40,40
130.30865,130.43933,76,40,40
130.44502,130.5757,78,40,40
130.58138,130.71207,78,40,40
130.71774,130.84843,76,40,40
130.85411,130.98479,76,40,40
130.99048,131.12115,76,40,40
131.12683,131.25752,76,40,40
131.2632,131.39388,76,40,40
131.39957,131.53024,74,40,40
131.53593,131.66661,72,40,40
131.67229,131.80298,71,40,40
131.80865,131.93933,69,40,40
131.94502,132.0757,67,40,40
132.08138,132.21207,66,40,40
132.21774,132.34842,69,40,40
132.35411,132.48479,74,40,40
132.49048,132.62115,74,40,40
132.62683,132.75752,74,40,40
132.7632,132.89388,74,40,40
132.89957,133.03024,74,40,40
133.03592,133.16661,74,40,40
133.17229,133.30296,74,40,40
133.30865,133.43933,74,40,40
133.44502,133.5757,76,40,40
133.58138,133.71207,78,40,40
133.71774,133.84274,79,40,40
133.84818,133.97318,83,42,40
133.9786,134.1036,86,44,40
134.10905,134.23405,86,46,40
134.23949,134.36449,86,48,40
134.36992,134.49492,86,50,40
134.50035,134.62535,91,52,40
134.63078,134.75578,91,54,40
134.76122,134.88622,86,56,40
134.89166,135.01666,86,58,40
135.0221,135.1471,86,60,40
135.15253,135.27753,86,62,40
135.28296,135.40796,88,64,40
135.41339,135.53839,88,66,40
135.54382,135.66882,86,68,40
135.67427,135.79927,86,71,40
135.8047,135.9297,86,74,40
135.93513,136.06013,86,77,40
136.06557,136.18536,91,80,40
136.19057,136.31036,91,80,40
136.31557,136.43536,86,72,40
136.44057,136.56036,86,64,40
136.56557,136.68536,86,56,40
136.69057,136.81036,86,48,40
136.81557,136.94057,88,40,40
136.946,137.071,88,40,40
137.07643,137.20143,88,45,40
137.20688,137.33188,88,50,40
137.33731,137.46231,88,55,40
137.46774,137.59274,88,60,40
137.59818,137.72885,88,65,40
137.73454,137.86522,88,70,40
137.87091,138.00159,88,76,40
138.00726,138.13795,88,82,40
138.14363,138.2743,88,88,40
138.28,138.41068,88,94,40
138.41635,138.54704,88,100,40
138.55272,138.68341,86,100,40
138.68909,138.81976,84,92,40
138.82545,138.95613,83,84,40
138.9618,139.0925,81,76,40
139.09818,139.22885,79,68,40
139.23454,139.36522,78,60,40
139.3709,139.50159,76,60,40
139.50726,139.63795,74,58,40
139.64363,139.7743,72,56,40
139.78,139.91068,71,54,40
139.91635,140.04704,69,52,40
140.05272,140.1834,67,49,40
140.18909,140.31976,66,46,40
140.32544,140.45613,64,43,40
140.4618,140.5925,62,40,40
143.48518,143.75223,55,60,40
143.75792,144.02496,57,60,40
144.03064,144.29768,59,60,40
144.30336,145.03064,60,60,40
145.12155,145.84882,59,60,40
145.93973,146.20677,57,60,40
146.21245,146.4795,59,60,40
146.48518,146.75223,57,60,40
146.7579,147.21245,55,60,40
147.30336,147.5704,59,60,40
147.5761,148.30336,62,60,40
148.39427,148.66132,62,60,40
148.66699,148.93404,64,60,40
148.93973,149.20677,66,60,40
149.21245,149.93973,67,60,40
150.03064,150.7579,62,60,40
150.84882,150.91699,59,60,40
150.91699,150.98518,60,60,40
150.98518,151.11586,59,60,40
151.12154,151.38858,57,60,40
151.39427,151.66132,55,60,40
151.66699,153.03062,62,60,40
153.03062,153.29767,61,60,40
153.30336,153.5704,62,60,40
153.57608,153.84312,64,61,40
153.84882,154.11586,66,62,40
154.12154,154.57608,67,63,40
154.66699,154.93404,62,65,40
154.93971,155.0079,59,66,40
155.0079,155.07608,60,66,40
155.07608,155.20676,59,66,40
155.21245,155.47949,57,66,40
155.48517,155.75221,55,67,40
155.7579,156.30336,59,68,40
156.30336,156.5704,61,70,40
156.57608,157.93971,61,71,40
157.93971,158.20676,62,78,40
158.21245,159.57608,62,80,40
159.57608,159.84312,64,80,40
159.8488,160.11584,64,80,40
160.12154,160.38858,66,80,40
160.39426,160.6613,67,80,40
160.66699,161.21243,66,80,40
161.21243,161.47949,71,72,40
161.48517,161.76492,69,68,40
161.77087,162.05064,66,64,40
162.0566,162.33635,62,60,40
162.34232,163.1423,64,55,40
163.24231,163.96957,62,40,40
164.06049,164.19118,57,40,40
164.33322,164.78777,62,40,40
164.87868,165.00935,55,40,40
165.1514,165.60594,62,40,40
168.1514,168.87866,74,40,40
168.96957,169.10025,81,53,40
169.24231,169.69685,76,57,40
169.78775,169.91844,77,66,40
170.06049,170.51503,76,70,40
170.60594,170.67412,76,80,40
170.67412,170.7423,78,80,40
170.7423,170.87866,76,80,40
170.87866,171.1514,72,80,40
171.1514,171.41844,74,80,40
171.42412,172.1514,76,80,40
172.2423,172.37299,78,80,40
172.51503,172.96957,76,60,40
173.06049,173.3332,76,40,40
173.3332,173.60594,72,40,40
173.60594,173.87299,71,40,40
173.87866,174.96957,69,40,40
174.96957,175.2423,71,40,40
175.2423,175.50934,72,40,40
175.51503,175.78775,74,40,40
175.78775,176.06047,71,40,40
176.06047,176.32753,69,40,40
176.3332,177.42412,67,40,40
177.42412,177.69684,69,40,40
177.69684,177.96388,71,40,40
177.96957,178.51501,72,40,40
178.51501,178.78206,71,48,40
178.78775,179.3332,76,52,40
179.3332,179.60025,74,61,40
179.60593,180.15138,79,65,40
180.15138,180.41843,78,75,40
180.4241,180.70982,76,80,40
180.70982,180.99554,74,80,40
180.99554,181.28125,72,75,40
181.28125,181.58125,71,70,40
181.58125,181.88126,69,65,40
181.88126,182.18126,67,60,40
182.18126,182.49376,66,55,40
182.49376,182.80626,64,50,40
182.80626,183.11224,62,45,40
183.11876,184.20966,67,40,40
184.20966,184.48239,69,40,40
184.48239,184.74944,71,40,40
184.75511,186.52783,67,40,40
186.6642,186.93694,71,40,40
186.93694,187.20966,74,40,40
187.20966,187.48239,69,40,40
187.48239,187.75511,71,40,40
187.75511,188.02216,69,40,40
188.02783,189.11874,79,40,40
189.11874,189.39148,81,40,40
189.39148,189.65852,83,40,40
189.6642,191.43692,79,40,40
191.57329,191.84602,83,40,40
191.84602,192.11874,86,42,40
192.11874,192.39146,81,44,40
192.39146,192.6642,83,46,40
192.6642,193.20966,81,48,40
193.20966,193.48238,84,52,40
193.48238,193.75511,88,54,40
193.75511,194.02783,83,56,40
194.02783,194.30055,84,58,40
194.30055,194.84033,83,61,40
194.84601,195.11874,86,67,40
195.11874,195.67123,90,70,40
195.67719,195.96289,88,76,40
195.96289,196.54236,91,79,40
196.54861,196.8486,90,85,40
196.8486,197.45782,93,88,40
197.4644,197.78018,91,94,40
197.78018,198.0894,95,97,40
198.09598,198.36302,97,100,40
200.55052,200.6812,78,40,40
200.68689,200.81757,78,40,40
200.82324,200.95393,78,40,40
200.95961,201.09029,78,40,40
201.09598,201.22665,78,40,40
201.23233,201.36302,78,40,40
201.3687,201.49937,83,40,40
201.50507,201.63574,83,40,40
201.64143,201.77211,78,40,40
201.77779,201.90848,78,40,40
201.91415,202.04483,78,40,40
202.05052,202.1812,78,40,40
202.18687,202.31757,80,40,40
202.32324,202.45393,80,40,40
202.45961,202.59029,78,40,40
202.59598,202.72665,78,40,40
202.73233,202.86302,78,40,40
202.8687,202.99937,78,40,40
203.00507,203.13574,83,40,40
203.14142,203.27211,83,41,40
203.27779,203.40848,78,42,40
203.41415,203.54483,78,43,40
203.55052,203.6812,78,44,40
203.68687,203.81757,78,45,40
203.82324,203.95392,79,46,40
203.95961,204.09029,79,47,40
204.09596,204.22665,81,48,40
204.23233,204.36302,81,49,40
204.3687,204.49937,81,50,40
204.50507,204.63574,81,51,40
204.64142,204.77211,86,52,40
204.77779,204.90846,86,54,40
204.91415,205.04483,81,56,40
205.05052,205.1812,81,58,40
205.18687,205.31757,81,60,40
205.32324,205.45392,81,62,40
205.45961,205.59651,83,64,40
205.60246,205.73936,83,66,40
205.74532,205.88222,85,68,40
205.88818,206.02509,85,70,40
206.03104,206.16794,85,72,40
206.17389,206.31079,85,74,40
206.31674,206.4605,90,76,40
206.46675,206.6105,90,78,40
206.61674,206.7605,85,80,40
206.76675,206.91049,85,82,40
206.91675,207.0605,85,84,40
207.06674,207.2105,85,86,40
207.21675,207.36806,90,88,40
207.37465,207.52596,90,90,40
207.53253,207.68385,86,92,40
207.69043,207.84175,86,94,40
207.84833,207.99963,92,96,40
208.00623,208.15753,92,98,40
208.16411,208.30048,93,100,40
208.30048,208.43115,81,100,40
208.43684,208.57321,81,100,40
208.57321,208.70956,69,100,40
208.70956,208.84026,81,100,40
208.84593,208.97661,81,100,40
208.9823,209.11865,93,100,40
209.11865,209.24934,81,100,40
209.25502,209.39139,81,100,40
209.39139,209.52776,69,100,40
209.52776,209.65843,81,100,40
209.66411,209.7948,81,100,40
209.80048,209.93684,93,100,40
209.93684,210.06752,81,100,40
210.0732,210.20956,81,100,40
210.20956,210.34593,69,100,40
210.34593,210.47661,81,100,40
210.4823,210.61298,81,100,40
210.61865,210.75502,93,100,40
210.75502,210.8857,81,100,40
210.89139,211.02774,81,100,40
211.02774,211.16411,69,100,40
211.16411,211.2948,81,100,40
211.30048,211.43115,81,100,40
211.43684,211.5732,93,100,40
211.5732,211.70389,81,100,40
211.70956,211.84593,81,100,40
211.84593,211.98228,69,100,40
211.98228,212.11298,81,100,40
212.11865,212.24934,81,100,40
212.25502,212.39139,93,100,40
212.39139,212.52206,81,100,40
212.52774,212.66411,81,100,40
212.66411,212.80048,69,100,40
212.80048,212.93115,81,100,40
212.93684,213.06752,81,100,40
213.0732,213.20956,93,100,40
213.20956,213.34024,81,100,40
213.34593,213.48228,81,100,40
213.48228,213.61865,69,100,40
213.61865,213.74933,81,100,40
213.75502,213.8857,81,100,40
213.89139,214.02774,93,100,40
214.02774,214.15843,81,100,40
214.16411,214.30048,81,100,40
214.30048,214.43683,69,100,40
214.43683,214.56752,81,100,40
214.5732,214.70387,81,100,40
214.70956,214.84593,91,100,40
214.84593,214.97661,79,100,40
214.98228,215.11865,90,100,40
215.11865,215.24933,78,100,40
215.25502,215.39137,88,100,40
215.39137,215.52206,76,100,40
215.52774,215.66411,88,100,40
215.66411,215.79478,76,100,40
215.80048,215.93683,76,100,40
215.93683,216.0732,71,100,40
216.0732,216.20387,76,100,40
216.20956,216.34024,76,100,40
216.34592,216.48228,87,100,40
216.48228,216.61298,75,100,40
216.61865,216.75502,75,100,40
216.75502,216.89137,69,100,40
216.89137,217.02206,75,100,40
217.02774,217.15842,75,100,40
217.16411,217.30048,85,100,40
217.30048,217.43115,73,100,40
217.43683,217.5732,73,100,40
217.5732,217.70956,69,100,40
217.70956,217.84024,73,100,40
217.84592,217.97661,73,100,40
217.98228,218.11865,83,100,40
218.11865,218.24933,71,98,40
218.25502,218.39137,71,96,40
218.39137,218.52774,69,94,40
218.52774,218.65842,71,92,40
218.66411,218.79478,71,90,40
218.80046,218.93683,83,88,40
218.93683,219.0675,71,86,40
219.0732,219.20956,81,84,40
219.20956,219.34024,71,82,40
219.34592,219.48228,80,80,40
219.48228,219.61296,71,78,40
219.61865,219.755,81,76,40
219.755,219.8857,69,74,40
219.89137,220.02774,79,72,40
220.02774,220.15842,69,69,40
220.16411,220.30046,76,66,40
220.30046,220.43115,69,63,40
220.43683,220.5732,81,60,40
220.5732,220.70955,79,60,40
220.70955,220.84592,78,60,40
220.84592,220.98228,76,60,40
220.98228,221.11865,74,60,40
221.11865,221.24933,73,60,40
221.255,221.39137,79,60,40
221.39137,221.52774,78,60,40
221.52774,221.6641,76,60,40
221.6641,221.80046,74,60,40
221.80046,221.93683,73,60,40
221.93683,222.0675,71,60,40
222.0732,222.20955,78,60,40
222.20955,222.34592,76,60,40
222.34592,222.48228,74,60,40
222.48228,222.61865,73,60,40
222.61865,222.755,71,60,40
222.755,222.8857,69,60,40
222.89137,223.02774,76,60,40
223.02774,223.1641,74,60,40
223.1641,223.30046,73,60,40
223.30046,223.43683,71,60,40
223.43683,223.5732,69,60,40
223.5732,223.70387,76,60,40
223.70955,223.84592,78,60,40
223.84592,223.98228,76,60,40
223.98228,224.11864,75,60,40
224.11864,224.255,73,60,40
224.255,224.39137,71,60,40
224.39137,224.52205,78,60,40
224.52774,224.6641,79,60,40
224.6641,224.80046,76,60,40
224.80046,224.93683,71,60,40
224.93683,225.07318,76,60,40
225.07318,225.20955,79,60,40
225.20955,225.34024,83,60,40
225.34592,225.48228,86,60,40
225.48228,225.61864,84,60,40
225.61864,225.755,83,60,40
225.755,225.89137,81,60,40
225.89137,226.02773,79,60,40
226.02773,226.15842,78,60,40
226.1641,226.30046,84,60,40
226.30046,226.43683,83,60,40
226.43683,226.57318,81,60,40
226.57318,226.70955,79,60,40
226.70955,226.84592,78,60,40
226.84592,226.9766,76,60,40
226.98228,227.11864,74,60,40
227.11864,227.255,72,60,40
227.255,227.39137,71,60,40
227.39137,227.52773,69,60,40
227.52773,227.6641,67,60,40
227.6641,227.79477,66,60,40
227.80046,227.93683,83,60,40
227.93683,228.07318,81,62,40
228.07318,228.20955,79,64,40
228.20955,228.34592,78,66,40
228.34592,228.48227,76,68,40
228.48227,228.61296,74,70,40
228.61864,228.755,81,72,40
228.755,228.89137,79,74,40
228.89137,229.02773,78,76,40
229.02773,229.1641,76,78,40
229.1641,229.30046,74,80,40
229.30046,229.43114,73,82,40
229.43681,229.57318,71,84,40
229.57318,229.70955,69,86,40
229.70955,229.84592,67,88,40
229.84592,229.98227,66,91,40
229.98227,230.11864,64,94,40
230.11864,230.24931,62,97,40
230.255,230.39136,79,100,40
230.39136,230.52773,78,100,40
230.52773,230.6641,76,100,40
230.6641,230.80046,74,100,40
230.80046,230.93681,73,100,40
230.93681,231.07318,71,100,40
231.07318,231.20955,69,100,40
231.20955,231.3459,67,100,40
231.3459,231.48227,66,100,40
231.48227,231.61864,64,100,40
231.61864,231.755,62,100,40
231.755,231.89136,61,100,40
231.89136,232.02773,59,100,40
232.02773,232.1641,57,100,40
232.1641,232.29477,55,100,40
235.98227,236.25499,69,60,40
236.25499,236.52773,62,60,40
236.52773,236.79477,69,60,40
236.80045,237.52773,72,60,40
237.61864,237.89136,74,60,40
237.89136,238.16408,69,60,40
238.16408,238.43112,74,60,40
238.43681,239.52773,81,60,40
239.52773,239.80045,78,92,40
239.80045,240.06749,81,60,40
240.07317,240.61862,86,40,40
240.61862,240.88567,79,40,40
240.89136,241.43681,84,40,40
241.43681,241.70386,78,40,40
242.52771,243.07317,83,40,40
243.07317,243.34021,76,53,40
243.3459,243.89136,81,59,40
243.89136,244.1584,74,72,40
244.98225,245.11862,91,100,40
245.11862,245.25499,90,100,40
245.25499,245.39134,88,100,40
245.39134,245.52771,86,100,40
245.52771,245.66408,85,100,40
245.66408,245.79475,83,100,40
245.80045,245.9368,81,100,40
245.9368,246.07317,79,100,40
246.07317,246.20953,78,100,40
246.20953,246.3459,76,100,40
246.3459,246.48225,74,100,40
246.48225,246.61862,73,100,40
246.61862,246.75499,71,100,40
246.75499,246.89134,69,100,40
246.89134,247.02771,67,100,40
247.02771,247.16408,66,100,40
247.16408,247.30045,64,100,40
247.30045,247.43112,62,100,40
247.4368,247.70384,61,100,40
248.25499,248.52203,60,100,40
250.74849,252.31992,69,60,40
250.74849,252.31992,76,60,40
253.36278,255.62982,81,40,40
253.36278,255.62982,88,40,40
260.27185,260.40253,81,40,40
260.40823,260.5389,81,40,40
260.5446,260.67526,81,40,40
260.68094,260.8116,81,40,40
260.81732,260.948,81,40,40
260.95367,261.08435,81,40,40
261.09003,261.2207,88,40,40
261.2264,261.3571,88,40,40
261.36276,261.49344,83,40,40
261.4991,261.62982,83,40,40
261.6355,261.76617,83,40,40
261.77185,261.90253,83,40,40
261.9082,262.0389,84,40,40
262.0446,262.17526,84,40,40
262.18094,262.3116,83,40,40
262.31732,262.448,83,40,40
262.45367,262.58435,83,40,40
262.59003,262.7207,83,40,40
262.7264,262.8571,81,40,40
262.86276,262.99344,79,40,40
262.9991,263.12982,78,40,40
263.1355,263.26617,79,40,40
263.27185,263.40253,81,40,40
263.4082,263.5389,83,40,40
263.5446,263.67526,79,40,40
263.68094,263.8116,78,40,40
263.8173,263.948,76,40,40
263.95367,264.08435,78,40,40
264.09003,264.2207,79,40,40
264.2264,264.3571,83,40,40
264.36276,264.49344,81,40,40
264.4991,264.6298,79,40,40
264.6355,264.76617,78,40,40
264.77185,264.90253,79,40,40
264.9082,265.0389,81,40,40
265.0446,265.17526,83,40,40
265.18094,265.3116,79,40,40
265.3173,265.448,78,40,40
265.45367,265.58435,76,40,40
265.59003,265.7207,79,40,40
265.7264,265.8571,78,40,40
265.86276,265.99344,76,40,40
265.9991,266.1298,72,40,40
266.1355,266.26617,69,40,40
266.27185,266.40253,71,40,40
266.4082,266.53888,69,40,40
266.5446,266.67526,67,40,40
266.68094,266.8116,71,40,40
266.8173,266.948,72,40,40
266.95367,267.08435,69,40,40
267.09003,267.2207,71,40,40
267.22638,267.3571,69,40,40
267.36276,267.49344,67,40,40
267.4991,267.6298,71,40,40
267.6355,267.77185,71,40,40
267.9082,268.0446,76,40,40
268.18094,268.3173,68,40,40
268.45367,268.59003,69,40,40
268.72638,268.86276,76,40,40
268.9991,269.13547,69,40,40
269.27185,269.4082,73,40,40
269.5446,269.68094,78,40,40
269.8173,269.95367,70,40,40
270.09003,270.22638,71,40,40
270.36276,270.4991,78,40,40
270.63547,270.77185,71,40,40
270.9082,271.0446,76,40,40
271.18094,271.3173,81,40,40
271.45367,271.59003,73,40,40
272.54456,272.67526,67,40,40
272.68094,272.8116,66,41,40
272.8173,272.94797,64,42,40
272.95367,273.08435,66,43,40
273.09003,273.2207,67,44,40
273.22638,273.35706,69,45,40
273.36276,273.49344,71,46,40
273.4991,273.6298,69,47,40
273.63547,273.76617,67,48,40
273.77185,273.90253,69,49,40
273.9082,274.03888,71,50,40
274.04456,274.17526,73,51,40
274.18094,274.3116,74,52,40
274.3173,274.44797,73,54,40
274.45364,274.58435,71,56,40
274.59003,274.7207,73,58,40
274.72638,274.85706,74,60,40
274.86276,274.99344,76,62,40
274.9991,275.13602,78,64,40
275.14197,275.27887,76,66,40
275.28482,275.42172,74,68,40
275.42767,275.56458,76,70,40
275.57053,275.70746,78,72,40
275.7134,275.8503,80,74,40
275.85626,276.0,81,76,40
276.00626,276.15,80,78,40
276.15625,276.30002,78,80,40
276.30624,276.45,80,82,40
276.45627,276.6,81,84,40
276.60626,276.75,83,86,40
276.75626,276.90756,81,88,40
276.91415,277.06546,80,90,40
277.07205,277.22336,78,92,40
277.22995,277.38126,80,94,40
277.38785,277.53915,81,96,40
277.54572,277.69705,83,98,40
277.7036,277.8343,85,100,40
277.84,277.97067,73,100,40
277.97635,278.10703,73,100,40
278.1127,278.2434,73,100,40
278.24908,278.37976,73,100,40
278.38544,278.5161,73,100,40
278.5218,278.6525,78,100,40
278.65817,278.78885,78,100,40
278.79453,278.9252,73,100,40
278.9309,279.06158,73,100,40
279.06726,279.19794,73,100,40
279.2036,279.3343,73,100,40
279.34,279.47067,74,100,40
279.47635,279.60703,74,100,40
279.6127,279.74338,73,100,40
279.74908,279.87976,73,100,40
279.88544,280.0161,73,100,40
280.0218,280.1525,73,100,40
280.15817,280.28885,71,100,40
280.29453,280.4252,71,100,40
280.43088,280.56158,71,100,40
280.56726,280.69794,71,100,40
280.7036,280.8343,71,100,40
280.84,280.97067,71,100,40
280.97635,281.10703,76,100,40
281.1127,281.24338,76,100,40
281.24908,281.37976,71,100,40
281.38544,281.5161,71,100,40
281.5218,281.6525,71,100,40
281.65817,281.78885,71,100,40
281.79453,281.9252,72,100,40
281.93088,282.06158,72,100,40
282.06726,282.19794,71,100,40
282.2036,282.3343,71,100,40
282.33997,282.47067,71,100,40
282.47635,282.60703,71,100,40
282.6127,282.74338,69,100,40
282.74908,282.87976,69,100,40
282.88544,283.0161,69,100,40
283.0218,283.15247,69,100,40
283.15817,283.28885,69,100,40
283.29453,283.4252,69,100,40
283.43088,283.56158,74,100,40
283.56726,283.69794,74,100,40
283.7036,283.8343,69,100,40
283.83997,283.97067,69,100,40
283.97635,284.10703,69,100,40
284.1127,284.24338,69,100,40
284.24908,284.37976,70,100,40
284.38544,284.5161,70,100,40
284.5218,284.65247,69,100,40
284.65817,284.78885,69,100,40
284.79453,284.9252,69,100,40
284.93088,285.06155,69,100,40
285.06726,285.19794,73,100,40
285.2036,285.3343,73,100,40
285.33997,285.47067,74,100,40
285.47635,285.60703,74,100,40
285.6127,285.74338,74,100,40
285.74905,285.87976,74,100,40
285.88544,286.0161,82,100,40
286.0218,286.15247,82,100,40
286.15817,286.28885,81,100,40
286.29453,286.4252,81,100,40
286.43088,286.56155,81,100,40
286.56726,286.69794,81,100,40
286.7036,286.8343,85,100,40
286.83997,286.97067,85,100,40
286.97635,287.10703,86,100,40
287.1127,287.24338,86,100,40
287.24905,287.37976,86,100,40
287.38544,287.5161,86,100,40
287.5218,287.65247,87,100,40
287.65817,287.78885,87,100,40
287.79453,287.9252,88,100,40
287.93088,288.06155,88,100,40
288.06726,288.19794,88,100,40
288.2036,288.3343,88,100,40
288.33997,288.47064,89,100,40
288.47635,288.60703,89,100,40
288.6127,288.74338,88,100,40
288.74905,288.87976,88,100,40
288.88544,289.0161,88,100,40
289.0218,289.15247,88,100,40
289.15814,289.28885,90,100,40
289.29453,289.4252,90,100,40
289.43088,289.56155,88,100,40
289.56726,289.69794,88,100,40
289.7036,289.8343,88,100,40
289.83997,289.97064,88,100,40
289.97635,290.10703,88,100,40
290.1127,290.24338,88,90,40
290.24905,290.37976,88,80,40
290.38544,290.5161,88,70,40
290.5218,290.65247,88,60,40
290.65814,290.78885,88,60,40
291.6127,291.74338,74,60,40
291.74905,291.87973,74,60,40
291.88544,292.0161,74,60,40
292.0218,292.15247,74,60,40
292.15814,292.28885,74,60,40
292.29453,292.4252,74,60,40
293.24905,293.37973,60,60,40
293.38544,293.5161,60,60,40
293.5218,293.65247,60,60,40
293.65814,293.78882,60,60,40
293.79453,293.9252,60,60,40
293.93088,294.06155,60,60,40
294.88544,295.0161,86,60,40
295.0218,295.15247,86,60,40
295.15814,295.28882,86,60,40
295.29453,295.4252,86,60,40
295.43088,295.56155,86,60,40
295.56723,295.69794,86,60,40
296.5218,296.65247,72,57,40
296.65814,296.78882,72,57,40
296.79453,296.9252,72,57,40
296.93088,297.06155,72,57,40
297.06723,297.1979,72,57,40
297.2036,297.3343,72,57,40
298.1971,298.34085,58,53,40
298.3471,298.49084,58,53,40
298.4971,298.64087,58,53,40
298.6471,298.79086,58,53,40
298.79712,298.94086,58,53,40
298.9471,299.09085,58,53,40
300.86267,300.99902,74,40,40
300.99902,301.13538,62,40,40
301.13538,301.27176,74,40,40
301.27176,301.4081,62,40,40
301.4081,301.54446,74,40,40
301.54446,301.67514,62,40,40
303.3172,303.45355,74,40,40
303.45355,303.58994,62,40,40
303.58994,303.7263,74,40,40
303.7263,303.86264,62,40,40
303.86264,303.99902,74,40,40
303.99902,304.1297,62,40,40
304.95355,305.08994,75,40,40
305.08994,305.2263,63,40,40
305.2263,305.36264,75,40,40
305.36264,305.49902,63,40,40
305.49902,305.63538,75,40,40
305.63538,305.76605,63,40,40
306.58994,306.7263,69,80,40
306.7263,306.86264,63,80,40
306.86264,306.99902,69,72,40
306.99902,307.13538,62,64,40
307.13538,307.27173,69,56,40
307.27173,307.40244,60,48,40
307.4081,307.67514,65,40,40
308.2263,308.36264,82,40,40
308.36264,308.49902,70,40,40
308.49902,308.63538,82,40,40
308.63538,308.77173,70,40,40
308.77173,308.9081,82,40,40
308.9081,309.0388,70,40,40
310.68082,310.8172,82,40,40
310.8172,310.95355,70,40,40
310.95355,311.0899,82,40,40
311.0899,311.2263,70,40,40
311.2263,311.36264,82,40,40
311.36264,311.49332,70,40,40
312.3172,312.45355,83,40,40
312.45355,312.5899,71,40,40
312.5899,312.7263,83,40,40
312.7263,312.86264,71,40,40
312.86264,312.999,83,40,40
312.999,313.1297,71,40,40
313.95355,314.0899,77,80,40
314.0899,314.2263,71,80,40
314.2263,314.36264,77,72,40
314.36264,314.499,69,64,40
314.499,314.63538,77,56,40
314.63538,314.76605,68,48,40
314.77173,315.2263,73,40,40
316.40808,316.54446,62,40,40
316.54446,316.68082,74,40,40
316.68082,316.8172,62,40,40
316.8172,316.95355,74,41,40
316.95355,317.0899,62,42,40
317.0899,317.22058,74,43,40
318.86264,318.999,55,56,40
318.999,319.13538,67,57,40
319.13538,319.27173,55,58,40
319.27173,319.40808,67,59,40
319.40808,319.54446,55,60,40
319.54446,319.67514,67,60,40
324.83002,325.10272,55,60,40
325.10272,325.37546,57,60,40
325.37546,325.6482,59,60,40
325.6482,326.46637,60,60,40
326.46637,327.19363,59,60,40
327.28455,327.55728,57,60,40
327.55728,327.83,59,60,40
327.83,328.09705,57,60,40
328.10272,328.6482,55,60,40
328.6482,328.91522,59,60,40
328.9209,329.6482,62,60,40
329.7391,330.0118,62,60,40
330.0118,330.28455,64,60,40
330.28455,330.55728,66,60,40
330.55728,331.37546,67,60,40
331.37546,332.10272,62,61,40
332.19363,332.2618,59,62,40
332.2618,332.33,60,62,40
332.33,332.46637,59,62,40
332.46637,332.73907,57,62,40
332.73907,333.0118,55,62,40
333.0118,334.37546,62,62,40
334.37546,334.6425,61,64,40
334.64816,334.9209,62,64,40
334.9209,335.19363,64,64,40
335.19363,335.46637,66,64,40
335.46637,336.0118,67,64,40
336.0118,336.27887,62,65,40
336.28455,336.35272,59,65,40
336.35272,336.4209,60,65,40
336.4209,336.55725,59,65,40
336.55725,336.83,57,65,40
336.83,337.09705,55,65,40
337.10272,337.64816,59,65,40
337.64816,337.91522,61,66,40
337.9209,339.28455,61,66,40
339.28455,339.55157,62,70,40
339.55725,340.9209,62,71,40
340.9209,341.18793,64,76,40
341.19363,341.46634,64,77,40
341.46634,341.73907,66,78,40
341.73907,342.00613,67,79,40
342.0118,342.55725,66,80,40
342.55725,342.8243,71,80,40
342.83,343.10272,69,80,40
343.10272,343.37543,66,80,40
343.37543,343.6425,62,80,40
343.64816,344.37543,64,80,40
344.46634,345.19363,62,60,40
345.28452,345.41522,57,60,40
345.55725,346.0118,62,60,40
346.10272,346.2334,55,61,40
346.37543,346.83,62,61,40
349.37543,350.1027,74,71,40
350.1936,350.3243,81,74,40
350.46634,350.9209,76,74,40
351.0118,351.1425,77,76,40
351.28452,351.73907,76,76,40
351.83,351.89816,76,80,40
351.89816,351.96634,78,80,40
351.96634,352.1027,76,80,40
352.1027,352.37543,72,80,40
352.37543,352.6425,74,80,40
352.64816,353.37543,76,80,40
353.46634,353.59702,78,80,40
353.73907,354.1936,76,60,40
354.28452,354.55725,76,40,40
354.55725,354.83,72,40,40
354.83,355.09702,71,40,40
355.1027,356.1936,69,40,40
356.1936,356.46634,71,40,40
356.46634,356.73337,72,40,40
356.73907,357.01178,74,40,40
357.01178,357.28452,71,40,40
357.28452,357.55157,69,40,40
357.55725,358.64816,67,40,40
358.64816,358.92087,69,40,40
358.92087,359.18793,71,40,40
359.1936,359.73907,72,40,40
359.73907,360.0061,71,53,40
360.01178,360.55725,76,59,40
360.55725,360.82428,74,72,40
360.82996,361.37543,79,79,40
361.37543,361.64246,78,93,40
361.64816,361.93387,76,100,40
361.93387,362.21957,74,100,40
362.21957,362.50528,72,95,40
362.50528,362.8053,71,90,40
362.8053,363.1053,69,85,40
363.1053,363.4053,67,80,40
363.4053,363.7178,66,75,40
363.7178,364.0303,64,70,40
364.0303,364.33627,62,65,40
364.3428,365.4337,67,60,40
365.4337,365.70642,69,60,40
365.70642,365.97348,71,60,40
365.97916,367.88824,67,60,40
367.88824,368.15527,71,60,40
368.16098,368.4337,74,60,40
368.4337,368.70642,69,60,40
368.70642,368.97916,71,60,40
368.97916,369.2462,69,60,40
369.2519,370.34277,79,60,40
370.34277,370.6155,81,60,40
370.6155,370.88257,83,60,40
370.88824,372.79733,79,60,40
372.79733,373.07007,83,60,40
373.07007,373.34277,86,61,40
373.34277,373.6155,81,62,40
373.6155,373.88824,83,63,40
373.88824,374.4337,81,64,40
374.4337,374.70642,84,66,40
374.70642,374.97916,88,68,40
374.97916,375.25186,83,70,40
375.25186,375.5246,84,72,40
375.5246,376.06436,83,74,40
376.07004,376.34277,74,78,40
376.34277,376.89526,78,80,40
376.9012,377.18692,76,84,40
377.18692,377.7664,79,86,40
377.77264,378.07266,78,90,40
378.07266,378.3664,81,92,40
378.37265,378.68515,79,94,40
378.68515,378.99115,83,96,40
378.99765,379.30365,85,98,40
379.31015,379.4465,86,100,40
379.4465,379.57718,74,100,40
379.5829,379.71924,74,100,40
379.71924,379.8556,62,100,40
379.8556,379.9863,74,100,40
379.99197,380.12265,74,100,40
380.12833,380.26468,86,100,40
380.26468,380.3954,74,100,40
380.40106,380.5374,74,100,40
380.5374,380.6738,62,100,40
380.6738,380.80447,74,100,40
380.81015,380.94083,74,100,40
380.9465,381.0829,86,100,40
381.0829,381.21356,74,100,40
381.21924,381.3556,74,100,40
381.3556,381.49197,62,100,40
381.49197,381.62265,74,100,40
381.62833,381.759,74,100,40
381.76468,381.90106,86,100,40
381.90106,382.03174,74,100,40
382.0374,382.17377,74,100,40
382.17377,382.31015,62,100,40
382.31015,382.44083,74,100,40
382.4465,382.57718,74,100,40
382.5829,382.71924,86,100,40
382.71924,382.8499,74,100,40
382.8556,382.99197,74,100,40
382.99197,383.12833,62,100,40
383.12833,383.259,74,100,40
383.26468,383.3954,74,100,40
383.40106,383.5374,86,100,40
383.5374,383.6681,74,100,40
383.67377,383.81015,74,100,40
383.81015,383.9465,62,100,40
383.9465,384.07718,74,100,40
384.0829,384.21356,74,100,40
384.21924,384.3556,86,100,40
384.3556,384.48627,74,100,40
384.49197,384.62833,74,100,40
384.62833,384.76468,62,100,40
384.76468,384.89536,74,100,40
384.90106,385.03174,74,100,40
385.0374,385.17377,86,100,40
385.17377,385.30447,74,100,40
385.31015,385.4465,74,100,40
385.4465,385.58286,62,100,40
385.58286,385.71356,74,100,40
385.71924,385.8499,74,100,40
385.8556,385.98627,84,100,40
385.99197,386.12265,72,100,40
386.12833,386.259,83,100,40
386.26468,386.39536,71,100,40
386.40106,386.53174,81,100,40
386.5374,386.6681,69,100,40
386.67377,386.81015,81,100,40
386.81015,386.94083,76,100,40
386.9465,387.08286,76,100,40
387.08286,387.21924,78,100,40
387.21924,387.3499,76,100,40
387.3556,387.48627,76,100,40
387.49194,387.62833,83,100,40
387.62833,387.759,76,100,40
387.76468,387.90106,76,100,40
387.90106,388.0374,78,100,40
388.0374,388.1681,76,100,40
388.17377,388.30444,76,100,40
388.31015,388.4465,84,100,40
388.4465,388.57718,76,100,40
388.58286,388.71924,76,100,40
388.71924,388.8556,78,100,40
388.8556,388.98627,76,100,40
388.99194,389.12265,76,100,40
389.12833,389.26468,83,100,40
389.26468,389.39536,76,98,40
389.40106,389.5374,76,96,40
389.5374,389.67377,78,94,40
389.67377,389.80444,76,92,40
389.81015,389.94083,76,90,40
389.9465,390.08286,81,88,40
390.08286,390.21924,69,86,40
390.21924,390.3556,79,84,40
390.3556,390.49194,69,82,40
390.49194,390.62833,76,80,40
390.62833,390.759,69,78,40
390.76468,390.90103,78,76,40
390.90103,391.0374,72,74,40
391.0374,391.17377,79,72,40
391.17377,391.31015,72,69,40
391.31015,391.4465,81,66,40
391.4465,391.57718,72,63,40
391.58286,391.71924,86,60,40
391.71924,391.8556,84,60,40
391.8556,391.99194,83,60,40
391.99194,392.12833,81,60,40
392.12833,392.26468,79,60,40
392.26468,392.39536,78,60,40
392.40103,392.5374,84,60,40
392.5374,392.67377,83,60,40
392.67377,392.81012,81,60,40
392.81012,392.9465,79,60,40
392.9465,393.08286,78,60,40
393.08286,393.21353,76,60,40
393.21924,393.3556,83,60,40
393.3556,393.49194,81,60,40
393.49194,393.62833,79,60,40
393.62833,393.76468,78,60,40
393.76468,393.90103,76,60,40
393.90103,394.03174,74,60,40
394.0374,394.17377,81,60,40
394.17377,394.31012,79,60,40
394.31012,394.4465,78,60,40
394.4465,394.58286,76,60,40
394.58286,394.71924,74,60,40
394.71924,394.8499,81,60,40
394.8556,394.99194,83,60,40
394.99194,395.12833,81,60,40
395.12833,395.26468,80,60,40
395.26468,395.40103,78,60,40
395.40103,395.5374,76,60,40
395.5374,395.6681,83,60,40
395.67377,395.81012,84,60,40
395.81012,395.9465,81,60,40
395.9465,396.08286,76,60,40
396.08286,396.2192,81,60,40
396.2192,396.3556,84,60,40
396.3556,396.48627,88,60,40
396.49194,396.62833,91,60,40
396.62833,396.76468,89,60,40
396.76468,396.90103,88,60,40
396.90103,397.0374,86,60,40
397.0374,397.17377,84,60,40
397.17377,397.30444,83,60,40
397.31012,397.4465,89,60,40
397.4465,397.58286,88,60,40
397.58286,397.7192,86,60,40
397.7192,397.8556,84,60,40
397.8556,397.99194,83,60,40
397.99194,398.1283,81,60,40
398.1283,398.26468,79,60,40
398.26468,398.40103,77,60,40
398.40103,398.5374,76,60,40
398.5374,398.67377,74,60,40
398.67377,398.81012,72,60,40
398.81012,398.9408,71,60,40
398.9465,399.08286,88,60,40
399.08286,399.2192,86,62,40
399.2192,399.3556,84,64,40
399.3556,399.49194,83,66,40
399.49194,399.6283,81,68,40
399.6283,399.759,79,70,40
399.76468,399.90103,86,72,40
399.90103,400.0374,84,74,40
400.0374,400.17377,83,76,40
400.17377,400.31012,81,78,40
400.31012,400.4465,79,80,40
400.4465,400.58286,78,82,40
400.58286,400.7192,76,84,40
400.7192,400.8556,74,86,40
400.8556,400.99194,72,88,40
400.99194,401.1283,71,91,40
401.1283,401.26468,69,94,40
401.26468,401.39536,67,97,40
401.40103,401.5317,84,100,40
401.53738,401.6681,83,100,40
401.67377,401.80444,81,100,40
401.81012,401.9408,79,100,40
401.9465,402.07718,78,100,40
402.08286,402.21353,76,100,40
402.2192,402.34988,74,100,40
402.3556,402.48627,72,100,40
402.49194,402.62262,71,100,40
402.6283,402.759,69,100,40
402.76468,402.89536,67,100,40
402.90103,403.0317,66,100,40
403.03738,403.1681,64,100,40
403.17377,403.30444,62,100,40
403.31012,403.4408,60,100,40
403.4465,403.57718,59,100,40
403.58286,403.71353,57,100,40
407.1283,407.40103,74,60,40
407.40103,407.67377,67,60,40
407.67377,407.94647,74,60,40
407.94647,408.67377,77,60,40
408.76468,409.03738,79,60,40
409.03738,409.31012,74,73,40
409.31012,409.58286,79,86,40
409.58286,410.67377,86,100,40
410.67377,410.94647,83,80,40
410.94647,411.21353,86,80,40
411.2192,411.76465,91,60,40
411.76465,412.0317,84,60,40
412.03738,412.58286,89,60,40
412.58286,412.84988,83,60,40
413.67374,414.2192,88,60,40
414.2192,414.48624,81,68,40
414.49194,415.03738,86,72,40
415.03738,415.30444,79,81,40
416.1283,416.25897,84,100,40
416.26465,416.39532,83,100,40
416.40103,416.5317,81,100,40
416.53738,416.66806,79,100,40
416.67374,416.80444,78,100,40
416.81012,416.9408,76,100,40
416.94647,417.07715,74,100,40
417.08282,417.21353,72,100,40
417.2192,417.34988,71,100,40
417.35556,417.48624,69,100,40
417.4919,417.62262,67,100,40
417.6283,417.75897,66,100,40
417.76465,417.89532,64,100,40
417.90103,418.0317,62,100,40
418.03738,418.16806,60,100,40
418.17374,418.3044,59,100,40
418.31012,418.4408,57,100,40
419.40103,419.5317,81,100,40
419.53738,419.66806,79,100,40
419.67374,419.8044,77,100,40
419.81012,419.9408,76,100,40
419.94647,420.07715,74,100,40
420.08282,420.2135,72,100,40
420.2192,420.34988,71,100,40
420.35556,420.48624,69,100,40
420.4919,420.62262,67,100,40
420.6283,420.75897,65,100,40
420.76465,420.89532,64,100,40
420.901,421.0317,62,100,40
421.03738,421.4919,61,100,40
421.85556,421.98624,91,100,40
421.9919,422.12262,89,98,40
422.1283,422.25897,87,96,40
422.26465,422.39532,86,94,40
422.401,422.5317,84,92,40
422.53738,422.66806,82,90,40
422.67374,422.8044,80,88,40
422.81012,422.9408,79,86,40
422.94647,423.07715,77,84,40
423.08282,423.2135,75,82,40
423.2192,423.34988,74,80,40
423.35556,423.48624,72,78,40
423.4919,423.94647,71,76,40
424.3101,425.8101,70,60,40
425.94647,426.401,71,60,40
426.76465,428.26465,70,60,40
428.401,428.85556,70,60,40
429.21918,430.71918,68,60,40
430.85556,431.58282,68,60,40
431.67374,432.08282,71,60,40
432.08282,432.4919,76,60,40
432.4919,432.901,74,60,40
432.901,433.3044,72,60,40
433.3101,434.1613,72,60,40
434.16724,435.06097,71,60,40
435.06723,435.99823,69,80,40
436.00473,436.1354,91,100,40
436.1411,436.2718,89,100,40
436.27747,436.40814,87,100,40
436.41382,436.5445,86,100,40
436.5502,436.68088,84,100,40
436.68655,436.81723,82,100,40
436.8229,436.9536,80,100,40
436.9593,437.08997,79,97,40
437.09564,437.22632,77,94,40
437.232,437.3627,75,91,40
437.36838,437.49905,74,88,40
437.50473,437.6354,72,85,40
437.64108,437.7718,68,82,40
437.77747,437.90814,67,79,40
437.91382,438.0445,65,76,40
438.0502,438.18088,63,72,40
438.18655,438.31723,62,68,40
438.3229,438.45358,60,64,40
438.4593,438.732,59,60,40
439.27747,440.77747,58,60,40
441.732,441.99905,74,60,40
442.00473,442.2718,67,60,40
442.27747,442.5445,74,60,40
442.55017,444.09564,75,60,40
444.18655,444.45926,75,60,40
444.45926,444.732,68,60,40
444.732,445.00473,75,60,40
445.00473,447.86835,76,60,40
448.00473,448.27747,76,60,40
448.27747,449.6354,79,60,40
449.64108,449.91382,79,63,40
449.91382,451.18655,83,63,40
451.27744,451.55017,83,66,40
451.55017,452.36835,84,67,40
452.36835,453.09564,83,70,40
453.18652,454.00473,88,73,40
454.00473,454.8229,86,76,40
454.8229,455.55017,84,79,40
455.64108,456.55945,83,82,40
456.55945,457.49695,88,85,40
457.49695,458.34802,86,88,40
458.4544,459.43265,91,91,40
459.43265,460.43265,88,94,40
460.43265,461.34174,85,97,40
461.45538,461.7224,74,100,40
461.45538,461.7224,86,100,40
466.34235,466.4707,79,40,40
466.4763,466.6046,79,40,40
466.6102,466.73856,79,40,40
466.74414,466.8725,79,40,40
466.87805,467.0064,79,40,40
467.012,467.14035,79,40,40
467.14594,467.27426,86,40,40
467.27985,467.4082,86,40,40
467.4138,467.5421,81,40,40
467.5477,467.67606,81,40,40
467.68164,467.81,81,40,40
467.81555,467.9439,81,40,40
467.9495,468.07785,83,40,40
468.08344,468.21176,83,40,40
468.21735,468.3457,81,40,40
468.3513,468.4796,81,40,40
468.4852,468.61356,81,40,40
468.61914,468.7475,81,40,40
468.75305,468.88028,79,40,40
468.8858,469.01303,78,43,40
469.01855,469.14575,76,46,40
469.1513,469.2785,78,49,40
469.28403,469.41125,79,52,40
469.41678,469.544,81,55,40
469.54953,469.67673,78,58,40
469.68225,469.80948,76,61,40
469.815,469.94223,74,64,40
469.94775,470.07495,76,67,40
470.0805,470.2077,78,70,40
470.21323,470.34045,81,73,40
470.34598,470.4732,79,76,40
470.47873,470.60593,78,80,40
470.61148,470.73868,76,84,40
470.7442,470.87143,78,88,40
470.87695,471.00418,79,92,40
471.0097,471.1369,81,96,40
471.14246,471.26852,78,100,40
471.27402,471.40012,76,100,40
471.4056,471.5317,74,100,40
471.53717,471.66327,76,100,40
471.66876,471.79486,74,100,40
471.80032,471.92642,72,100,40
471.93192,472.058,71,100,40
472.0635,472.18958,73,100,40
472.19507,472.32117,74,100,40
472.32666,472.45276,74,100,40
472.45822,472.58432,74,100,40
472.5898,472.7159,74,100,40
472.72137,472.84747,79,100,40
472.85297,472.97906,79,100,40
472.98456,473.11063,78,100,40
473.11612,473.24222,78,100,40
473.2477,473.3738,78,80,40
473.37927,473.50537,78,80,40
473.51086,473.63586,81,60,40
473.6413,473.7663,81,60,40
473.77173,473.89673,81,60,40
473.90216,474.02716,81,60,40
474.0326,474.1576,81,60,40
474.16302,474.28802,81,60,40
474.29346,474.41846,86,60,40
474.4239,474.5489,86,60,40
474.55435,474.67935,81,60,40
474.68478,474.80978,81,60,40
474.81522,474.94022,81,60,40
474.94565,475.07065,81,60,40
475.07608,475.20108,83,60,40
475.2065,475.3315,83,60,40
475.33694,475.46194,81,60,40
475.46738,475.59238,81,60,40
475.5978,475.7228,81,60,40
475.72824,475.85324,81,60,40
475.85867,475.9826,80,100,40
475.988,476.1119,78,100,40
476.1173,476.24124,76,100,40
476.2466,476.37054,77,100,40
476.37592,476.49985,76,100,40
476.50525,476.62915,74,100,40
476.63455,476.75845,72,100,40
476.76385,476.8878,74,100,40
476.89316,477.0171,76,100,40
477.0225,477.1464,76,100,40
477.1518,477.2757,76,100,40
477.2811,477.40503,76,100,40
477.4104,477.53433,81,100,40
477.5397,477.66364,81,100,40
477.66904,477.79294,80,100,40
477.79834,477.92227,80,100,40
477.92764,478.05157,80,80,40
478.05695,478.18088,80,80,40
478.18628,478.30914,83,60,40
478.31448,478.43735,83,60,40
478.4427,478.56555,83,60,40
478.5709,478.69376,83,60,40
478.6991,478.82196,83,60,40
478.8273,478.95016,83,60,40
478.9555,479.07837,88,60,40
479.0837,479.20657,88,60,40
479.2119,479.33478,83,60,40
479.34012,479.46298,83,60,40
479.46832,479.5912,83,60,40
479.59653,479.7194,83,60,40
479.72473,479.8476,84,60,40
479.85294,479.9758,84,60,40
479.98114,480.104,83,60,40
480.10934,480.2322,83,60,40
480.23755,480.3604,83,60,40
480.36575,480.48862,83,60,40
480.49396,480.61578,81,60,40
480.62106,480.7429,80,60,40
480.7482,480.87003,78,60,40
480.8753,480.99713,80,60,40
481.00244,481.12427,81,60,40
481.12955,481.25137,83,60,40
481.25668,481.37848,80,60,40
481.3838,481.5056,78,60,40
481.5109,481.63272,76,60,40
481.63803,481.75986,78,60,40
481.76514,481.88696,80,60,40
481.89227,482.0141,83,60,40
482.01938,482.1412,81,60,40
482.14648,482.2683,80,60,40
482.27362,482.39545,78,60,40
482.40073,482.52255,80,60,40
482.52786,482.6497,81,60,40
482.65497,482.7768,83,60,40
482.7821,482.9029,79,60,40
482.90814,483.02893,78,59,40
483.03418,483.155,76,58,40
483.16025,483.28104,78,57,40
483.2863,483.4071,79,56,40
483.41235,483.53314,81,55,40
483.5384,483.65918,78,54,40
483.66443,483.78525,76,53,40
483.7905,483.9113,74,52,40
483.91653,484.03735,76,51,40
484.0426,484.1634,78,50,40
484.16864,484.28943,81,49,40
484.2947,484.4155,79,48,40
484.42075,484.54153,78,47,40
484.54678,484.6676,76,46,40
484.67285,484.79364,78,45,40
484.7989,484.9197,79,44,40
484.92496,485.04575,81,42,40
485.051,485.17078,77,40,40
485.176,485.29578,76,40,40
485.301,485.42078,74,43,40
485.426,485.54578,76,46,40
485.551,485.67078,77,49,40
485.676,485.79578,79,52,40
485.801,485.92078,77,55,40
485.926,486.04578,76,58,40
486.051,486.17078,74,61,40
486.176,486.29578,76,64,40
486.301,486.42078,77,68,40
486.426,486.54578,79,72,40
486.551,486.67078,81,76,40
486.676,486.79578,79,80,40
486.801,486.92078,81,84,40
486.926,487.04578,83,88,40
487.051,487.17078,84,92,40
487.176,487.29578,86,96,40
487.301,487.42078,88,100,40
487.426,487.54578,86,100,40
487.551,487.67078,84,100,40
487.676,487.79578,83,100,40
487.801,487.92078,81,100,40
487.926,488.04578,79,100,40
488.051,488.29578,78,100,40
488.551,488.67078,62,80,40
488.676,488.79578,62,80,40
488.801,488.92078,69,80,40
488.926,489.04578,69,83,40
489.051,489.17078,72,86,40
489.176,489.29578,72,89,40
489.301,489.42078,62,92,40
489.426,489.54578,62,96,40
489.551,489.67078,74,100,40
489.676,489.79578,74,100,40
489.801,489.92078,74,100,40
489.926,490.04578,74,100,40
490.051,490.17078,74,100,40
490.176,490.29578,74,100,40
490.301,490.42078,79,100,40
490.426,490.54578,79,99,40
490.551,490.67078,74,98,40
490.676,490.79578,74,97,40
490.801,490.92078,74,96,40
490.926,491.04578,74,95,40
491.051,491.17078,76,94,40
491.176,491.29578,76,93,40
491.301,491.42078,74,92,40
491.426,491.54578,74,91,40
491.551,491.67078,74,90,40
491.676,491.79578,74,89,40
491.801,491.92078,76,88,40
491.926,492.04578,76,87,40
492.051,492.17078,76,86,40
492.176,492.29578,76,85,40
492.301,492.42078,76,84,40
492.426,492.54578,76,83,40
492.551,492.67078,81,82,40
492.676,492.79578,81,81,40
492.801,492.92078,76,80,40
492.926,493.04578,76,78,40
493.051,493.17078,76,76,40
493.176,493.29578,76,74,40
493.301,493.42078,78,72,40
493.426,493.54578,78,70,40
493.551,493.67078,76,68,40
493.676,493.79578,76,66,40
493.801,493.92078,76,64,40
493.926,494.04578,76,62,40
494.051,494.17078,78,60,40
494.176,494.29578,78,60,40
494.301,494.42078,78,60,40
494.426,494.54578,78,60,40
494.551,494.67078,78,60,40
494.676,494.79578,78,60,40
494.801,494.92078,83,60,40
494.926,495.04578,83,60,40
495.051,495.17078,78,60,40
495.176,495.29578,78,60,40
495.301,495.42078,78,60,40
495.426,495.54578,78,60,40
495.551,495.67078,79,60,40
495.676,495.79578,79,60,40
495.801,495.92078,79,60,40
495.926,496.04578,79,60,40
496.051,496.17078,79,60,40
496.176,496.29578,79,60,40
496.301,496.42078,84,60,40
496.426,496.54578,84,60,40
496.551,496.67078,81,60,40
496.676,496.79578,81,60,40
496.801,496.92078,81,60,40
496.926,497.04578,81,60,40
497.051,497.17078,86,60,40
497.176,497.29578,86,60,40
497.301,497.42078,83,60,40
497.426,497.54578,83,60,40
497.551,497.67078,83,60,40
497.676,497.79578,83,60,40
497.801,497.92078,88,60,40
497.926,498.04578,88,60,40
498.051,498.17078,84,60,40
498.176,498.29578,84,61,40
498.301,498.42078,84,62,40
498.426,498.54578,84,63,40
498.551,498.67078,88,64,40
498.676,498.79578,88,65,40
498.801,498.92078,84,66,40
498.926,499.04578,84,67,40
499.051,499.17078,84,68,40
499.176,499.29578,84,69,40
499.301,499.42078,88,69,40
499.426,499.54578,88,70,40
499.551,499.67078,84,71,40
499.676,499.79578,84,72,40
499.801,499.92078,84,73,40
499.926,500.04578,84,74,40
500.051,500.17078,88,75,40
500.176,500.29578,88,76,40
500.301,500.42078,84,77,40
500.426,500.54578,84,78,40
500.551,500.67078,84,79,40
500.676,500.79578,84,80,40
500.801,500.92078,84,81,40
500.926,501.04578,84,82,40
501.051,501.17078,84,83,40
501.176,501.29578,84,84,40
501.301,501.42078,84,85,40
501.426,501.54578,84,86,40
501.551,501.67078,84,87,40
501.676,501.79578,84,88,40
501.801,501.92078,84,89,40
501.926,502.04578,84,90,40
502.051,502.17078,84,91,40
502.176,502.29578,84,92,40
502.301,502.42078,84,93,40
502.426,502.54578,84,94,40
502.551,502.67078,84,95,40
502.676,502.79578,84,96,40
502.801,502.92078,84,97,40
502.926,503.04578,84,98,40
503.051,503.17078,93,100,40
503.176,503.29578,93,100,40
503.301,503.42078,93,100,40
503.426,503.54578,93,100,40
503.551,503.67078,93,100,40
503.676,503.79578,93,100,40
504.551,504.67078,79,80,40
504.676,504.79578,79,80,40
504.801,504.92078,79,80,40
504.926,505.04578,79,80,40
505.051,505.17078,79,80,40
505.176,505.29578,79,80,40
506.051,506.17078,65,60,40
506.176,506.29578,65,60,40
506.301,506.42078,65,60,40
506.426,506.54578,65,60,40
506.551,506.67078,65,60,40
506.676,506.79578,65,60,40
507.551,507.676,91,40,40
507.676,507.801,79,40,40
507.801,507.926,91,40,40
507.926,508.051,79,40,40
508.051,508.176,91,40,40
508.176,508.29578,79,40,40
509.051,509.176,77,40,40
509.176,509.301,65,40,40
509.301,509.426,77,40,40
509.426,509.551,65,40,40
509.551,509.676,77,40,40
509.676,509.79578,65,40,40
510.551,510.67078,63,40,40
510.676,510.79578,63,40,40
510.801,510.92078,63,40,40
510.926,511.04578,63,40,40
511.051,511.17078,63,40,40
511.176,511.29578,63,40,40
514.301,514.551,67,40,40
514.551,514.801,69,42,40
514.801,515.0458,71,44,40
515.051,515.71765,72,46,40
515.801,516.051,71,53,40
516.051,516.301,72,55,40
516.301,516.5458,74,57,40
516.551,517.051,79,59,40
517.051,517.2958,78,64,40
517.301,517.551,76,66,40
517.551,517.801,74,68,40
517.801,518.0458,72,70,40
518.051,518.2958,71,73,40
518.301,518.551,83,76,40
518.551,518.801,81,79,40
518.801,519.051,79,82,40
519.051,519.301,76,85,40
519.301,519.5458,72,88,40
519.551,519.801,71,91,40
519.801,520.051,74,94,40
520.051,520.2958,79,97,40
520.301,520.801,86,100,40
520.801,521.0458,78,80,40
521.051,521.176,67,60,40
521.051,521.176,79,60,40
521.301,521.426,67,60,40
521.301,521.426,79,60,40
521.801,521.926,67,60,40
521.801,521.926,79,60,40
522.051,522.176,67,60,40
522.051,522.176,79,60,40
522.551,522.676,67,60,40
522.551,522.676,79,60,40
522.801,522.926,67,60,40
522.801,522.926,79,60,40
524.801,525.051,83,60,40
525.051,525.301,84,62,40
525.301,525.5458,86,64,40
525.551,526.051,91,66,40
526.051,526.2958,90,70,40
526.301,526.551,88,72,40
526.551,526.801,86,74,40
526.801,527.0458,84,76,40
527.051,527.2958,83,78,40
527.301,527.551,95,80,40
527.551,527.801,93,82,40
527.801,528.051,91,84,40
528.051,528.301,88,86,40
528.301,528.5458,84,88,40
528.551,528.7958,83,91,40
528.801,529.051,74,94,40
529.051,529.301,79,97,40
529.301,529.801,90,100,40
529.801,530.0458,78,80,40
531.801,532.051,83,60,40
532.051,532.2958,81,60,40
532.301,532.551,79,60,40
532.551,532.801,76,64,40
532.801,533.0458,72,68,40
533.051,533.301,79,72,40
533.301,533.551,74,76,40
533.551,533.7958,71,80,40
533.801,534.051,79,85,40
534.051,534.301,76,90,40
534.301,534.5458,69,95,40
534.551,534.6708,62,100,40
534.551,534.7958,74,100,40
534.6135,534.7958,79,100,40
536.801,536.9208,93,100,40
536.926,537.0458,93,100,40
537.051,537.1708,88,100,40
537.176,537.2958,88,100,40
537.301,537.4208,88,100,40
537.426,537.5458,88,100,40
537.551,537.6708,93,100,40
537.676,537.7958,93,100,40
537.801,537.9208,88,100,40
537.926,538.0458,88,100,40
538.051,538.1708,88,100,40
538.176,538.2958,88,100,40
538.301,538.4208,90,100,40
538.426,538.5458,90,100,40
538.551,538.6708,88,100,40
538.676,538.7958,88,100,40
538.801,538.9208,88,100,40
538.926,539.0458,88,100,40
539.051,539.1708,84,100,40
539.176,539.2958,83,100,40
539.301,539.4208,81,100,40
539.426,539.5458,83,100,40
539.551,539.6708,84,100,40
539.676,539.7958,86,100,40
539.801,540.0458,83,100,40
540.551,540.6708,84,100,40
540.676,540.7958,83,100,40
540.801,540.9208,81,100,40
540.926,541.0458,83,100,40
541.051,541.1708,84,100,40
541.176,541.2958,86,100,40
541.301,541.5458,83,100,40
542.051,542.1708,84,100,40
542.176,542.2958,83,100,40
542.301,542.4208,81,100,40
542.426,542.5458,83,100,40
542.551,542.6708,84,100,40
542.676,542.7958,86,100,40
542.801,542.9208,88,100,40
542.926,543.0458,86,100,40
543.051,543.1708,84,100,40
543.176,543.2958,86,100,40
543.301,543.4208,88,100,40
543.426,543.5458,90,100,40
543.551,543.67395,91,100,40
543.7969,544.2067,83,99,40
544.2887,544.4117,86,97,40
544.5346,544.94446,79,96,40
545.0264,545.14935,83,94,40
545.2723,545.39526,74,93,40
545.5182,545.6412,79,92,40
545.7641,545.8841,71,91,40
546.0041,546.1241,74,90,40
546.2441,546.36414,67,89,40
546.48413,546.60913,71,88,40
546.73413,546.85913,62,87,40
546.98413,547.10913,67,86,40
547.23413,547.3705,62,85,40
547.50684,547.6432,67,84,40
547.77954,547.91595,62,82,40
548.0523,548.34607,67,80,40
550.1523,550.332,62,100,40
550.1523,550.5195,74,100,40
550.24603,550.5195,86,100,40
551.2773,552.26685,62,100,40
551.2773,554.0273,71,100,40
551.5273,554.0273,79,100,40
2.454543,2.5852246,72,40,40
2.5909064,2.7215881,72,40,40
2.72727,2.8579516,72,40,40
2.8636334,2.9943151,72,40,40
2.999997,3.1306787,72,40,40
3.1363604,3.2670422,72,40,40
3.272724,3.4034057,72,40,40
3.4090874,3.5397692,72,40,40
3.545451,3.6761327,72,40,40
3.6818144,3.8124962,72,40,40
3.818178,3.9488597,72,40,40
3.9545414,4.085223,72,40,40
4.090905,4.2215867,74,40,40
4.2272687,4.35795,74,40,40
4.363632,4.4943137,72,40,40
4.4999957,4.630677,72,40,40
4.636359,4.7670407,72,40,40
4.7727227,4.903404,72,40,40
4.909086,5.0397677,72,40,40
5.0454497,5.1761312,71,40,40
5.181813,5.3124948,69,40,40
5.3181763,5.4488583,67,40,40
5.45454,5.585222,66,40,40
5.5909033,5.7215853,64,40,40
5.727267,5.9943123,62,40,40
6.818175,6.948857,74,40,40
6.9545383,7.0852203,72,40,40
7.090902,7.221584,71,40,40
7.2272654,7.3579473,69,40,40
7.363629,7.488629,67,40,40
7.494064,7.619064,71,42,40
7.6244984,7.7494984,74,44,40
7.7549334,7.8799334,74,46,40
7.885368,8.010368,74,48,40
8.015802,8.140802,74,50,40
8.146237,8.271237,79,52,40
8.276672,8.401672,79,54,40
8.407107,8.532107,74,56,40
8.537541,8.662541,74,58,40
8.667976,8.792976,74,60,40
8.798411,8.923411,74,62,40
8.928846,9.053846,76,64,40
9.05928,9.18428,76,66,40
9.189715,9.314715,74,68,40
9.32015,9.44515,74,71,40
9.450585,9.575585,74,74,40
9.581019,9.706019,74,77,40
9.711454,9.831246,79,80,40
9.836454,9.956246,79,80,40
9.961454,10.081246,74,72,40
10.086454,10.206246,74,64,40
10.211454,10.331246,74,56,40
10.336454,10.456246,74,48,40
10.461454,10.586454,76,40,40
10.591889,10.716889,84,40,40
10.722324,10.847324,84,45,40
10.852758,10.977758,84,50,40
10.983193,11.108193,84,55,40
11.113628,11.238628,84,60,40
11.244063,11.374744,84,65,40
11.380426,11.511108,84,70,40
11.51679,11.647471,84,76,40
11.653153,11.783835,84,82,40
11.789517,11.920198,84,88,40
11.92588,12.056562,84,94,40
12.062244,12.192925,84,100,40
12.198607,12.329289,83,100,40
12.334971,12.465652,81,92,40
12.471334,12.602016,79,84,40
12.607698,12.7383795,78,76,40
12.744061,12.874743,76,68,40
12.880425,13.0111065,74,60,40
13.0167885,13.14747,72,60,40
13.153152,13.2838335,71,58,40
13.2895155,13.4201975,69,56,40
13.425879,13.5565605,67,54,40
13.5622425,13.6929245,66,52,40
13.698606,13.829288,64,49,40
13.8349695,13.9656515,62,46,40
13.971333,14.102015,61,43,40
14.107697,14.238379,62,40,40
36.888195,37.615467,66,40,40
37.706375,37.83706,66,40,40
37.979103,38.433647,66,40,40
38.524555,38.65524,67,40,40
38.797283,39.251827,66,40,40
39.34274,39.615463,65,40,40
39.615463,39.88819,62,40,40
39.88819,40.155235,64,40,40
40.16092,40.615463,65,40,40
41.79728,42.52455,74,40,40
42.615463,42.746143,73,53,40
42.888187,43.342735,73,57,40
43.433643,43.564323,74,66,40
43.70637,44.160915,73,70,40
44.251823,44.52455,72,80,40
44.52455,44.79728,69,80,40
44.79728,45.064323,71,80,40
45.070004,45.797276,72,80,40
45.888187,46.018867,74,80,40
46.16091,46.61546,72,60,40
46.706367,46.979095,72,40,40
46.979095,47.25182,69,40,40
47.25182,47.518867,67,40,40
47.524548,48.615456,66,40,40
48.615456,48.888184,67,40,40
48.888184,49.155228,69,40,40
49.16091,49.433636,71,40,40
49.433636,49.706364,67,40,40
49.706364,49.973408,66,40,40
49.97909,51.07,64,40,40
51.07,51.342728,66,40,40
51.342728,51.60977,67,40,40
51.61545,52.160908,69,40,40
52.160908,52.42795,67,48,40
52.433636,52.979088,72,52,40
52.979088,53.24613,71,61,40
53.251816,53.797268,76,65,40
53.797268,54.064316,74,75,40
54.069996,54.35571,72,80,40
54.35571,54.641422,71,80,40
54.641422,54.92714,69,75,40
54.92714,55.22714,67,70,40
55.22714,55.527138,66,65,40
55.527138,55.827137,64,60,40
55.827137,56.139637,57,55,40
56.139637,56.660473,60,50,40
56.764637,57.031685,59,40,40
57.037365,57.30441,57,40,40
57.310093,57.577137,55,40,40
57.58282,58.037365,55,40,40
61.673725,62.764633,67,40,40
62.764633,63.037357,69,40,40
63.037357,63.304405,71,40,40
63.310085,65.08281,67,40,40
65.21918,65.491905,71,40,40
65.491905,65.764626,74,42,40
65.764626,66.03735,69,44,40
66.03735,66.31008,71,46,40
66.31008,66.84985,69,48,40
66.85554,67.128265,72,52,40
67.128265,67.40099,76,54,40
67.40099,67.67372,71,56,40
67.67372,67.94644,72,58,40
67.94644,68.4919,71,61,40
68.4919,68.764626,74,67,40
68.764626,69.317116,78,70,40
69.32307,69.60878,76,76,40
69.60878,70.18825,79,79,40
70.194496,70.49449,78,85,40
70.49449,71.10371,81,88,40
71.11028,71.42607,79,94,40
71.42607,71.73528,83,97,40
71.74186,71.87254,73,100,40
71.87823,72.0089,73,100,40
72.01459,72.14527,73,92,40
72.150955,72.28163,73,84,40
72.287315,72.418,73,76,40
72.42368,72.55436,73,68,40
72.56004,72.69073,78,60,40
72.6964,72.82709,78,60,40
72.83277,72.963455,73,60,40
72.96913,73.099815,73,60,40
73.1055,73.236176,73,60,40
73.24186,73.37254,73,60,40
73.37823,73.5089,75,60,40
73.51459,73.64527,75,57,40
73.65095,73.78163,73,54,40
73.787315,73.918,73,51,40
73.923676,74.05436,73,48,40
74.06004,74.19072,73,44,40
74.1964,74.32709,73,40,40
74.33277,74.46345,71,40,40
74.46913,74.599815,70,40,40
74.6055,74.736176,68,40,40
74.74186,74.87254,66,40,40
74.87822,75.0089,64,40,40
75.01459,75.15095,63,40,40
75.287315,75.423676,71,40,40
75.83276,75.96345,59,40,40
75.96913,76.099815,61,40,40
76.10549,76.236176,63,40,40
76.24186,76.372536,64,40,40
76.37822,76.5089,66,40,40
76.51459,76.64526,68,40,40
76.65095,76.78731,69,40,40
76.923676,77.060036,59,43,40
77.46913,77.59981,71,49,40
77.60549,77.736176,73,50,40
77.74186,77.872536,74,51,40
77.87822,78.0089,76,52,40
78.01458,78.14526,78,53,40
78.15095,78.28163,79,54,40
78.28731,78.423676,81,55,40
78.560036,78.6964,74,58,40
79.10549,79.24239,74,64,40
79.248344,79.385254,76,66,40
79.391205,79.52811,73,68,40
79.534065,79.67097,78,70,40
79.67692,79.81382,82,72,40
79.81978,79.95668,78,74,40
79.96263,80.11263,78,76,40
80.262634,80.762634,73,80,40
80.86263,81.02053,78,88,40
81.17842,81.33632,74,92,40
81.49421,81.65211,80,96,40
81.81,82.082726,81,100,40
82.082726,82.53727,69,100,40
82.62818,82.90091,81,100,40
82.90091,83.35545,69,100,40
83.446365,83.719086,81,100,40
83.719086,84.17364,69,100,40
93.80999,94.077034,69,60,40
94.08272,94.62817,81,60,40
94.62817,94.89522,74,60,40
94.900894,95.44635,79,60,40
95.44635,95.713394,73,60,40
95.71908,96.264534,78,60,40
96.264534,96.53158,71,60,40
96.537254,96.80998,76,60,40
96.80998,97.08271,69,60,40
97.08271,97.349754,76,60,40
97.35544,97.62817,78,60,40
97.62817,97.900894,71,60,40
97.900894,98.16794,78,60,40
98.17362,98.44635,79,60,40
98.44635,98.900894,83,60,40
98.9918,99.537254,86,60,40
99.537254,99.8043,79,60,40
99.80998,100.35544,84,60,40
100.35544,100.62248,78,60,40
101.44634,101.90089,83,60,40
101.9918,102.25884,76,67,40
102.26453,102.71907,81,70,40
102.80998,103.07703,74,77,40
112.082695,112.90088,57,60,40
112.90088,113.35542,66,92,40
118.62814,118.76451,79,92,40
118.76451,118.90087,78,92,40
118.90087,119.03724,76,92,40
119.03724,119.1736,74,92,40
119.1736,119.30996,73,92,40
119.30996,119.44064,71,92,40
119.44633,119.58269,69,92,40
119.58269,119.719055,67,92,40
119.719055,119.855415,66,92,40
119.855415,119.99178,64,92,40
119.99178,120.12814,62,92,40
120.12814,120.2645,61,92,40
120.2645,120.39519,59,92,40
120.40087,120.53723,69,92,40
120.53723,120.6736,67,92,40
120.6736,120.80996,66,92,40
120.80996,120.94633,64,92,40
120.94633,121.077,62,92,40
121.08269,121.34973,61,92,40
121.90087,122.44632,60,92,40
122.44632,123.53723,60,75,40
123.53723,126.10866,60,60,40
126.10866,128.35866,60,45,40
128.80865,128.93935,72,40,40
128.94502,129.0757,72,40,40
129.08139,129.21207,72,40,40
129.21774,129.34843,72,40,40
129.35411,129.48479,72,40,40
129.49048,129.62115,72,40,40
129.62683,129.75752,72,40,40
129.7632,129.89389,72,40,40
129.89957,130.03024,72,40,40
130.03593,130.16661,72,40,40
130.17229,130.30298,72,40,40
130.30865,130.43933,72,40,40
130.44502,130.5757,74,40,40
130.58138,130.71207,74,40,40
130.71774,130.84843,72,40,40
130.85411,130.98479,72,40,40
130.99048,131.12115,72,40,40
131.12683,131.25752,72,40,40
131.2632,131.39388,72,40,40
131.39957,131.53024,71,40,40
131.53593,131.66661,69,40,40
131.67229,131.80298,67,40,40
131.80865,131.93933,66,40,40
131.94502,132.0757,64,40,40
132.08138,132.34842,62,40,40
133.17229,133.30296,74,40,40
133.30865,133.43933,72,40,40
133.44502,133.5757,71,40,40
133.58138,133.71207,69,40,40
133.71774,133.84274,67,40,40
133.84818,133.97318,71,42,40
133.9786,134.1036,74,44,40
134.10905,134.23405,74,46,40
134.23949,134.36449,74,48,40
134.36992,134.49492,74,50,40
134.50035,134.62535,79,52,40
134.63078,134.75578,79,54,40
134.76122,134.88622,74,56,40
134.89166,135.01666,74,58,40
135.0221,135.1471,74,60,40
135.15253,135.27753,74,62,40
135.28296,135.40796,76,64,40
135.41339,135.53839,76,66,40
135.54382,135.66882,74,68,40
135.67427,135.79927,74,71,40
135.8047,135.9297,74,74,40
135.93513,136.06013,74,77,40
136.06557,136.18536,79,80,40
136.19057,136.31036,79,80,40
136.31557,136.43536,74,72,40
136.44057,136.56036,74,64,40
136.56557,136.68536,74,56,40
136.69057,136.81036,74,48,40
136.81557,136.94057,76,40,40
136.946,137.071,84,40,40
137.07643,137.20143,84,45,40
137.20688,137.33188,84,50,40
137.33731,137.46231,84,55,40
137.46774,137.59274,84,60,40
137.59818,137.72885,84,65,40
137.73454,137.86522,84,70,40
137.87091,138.00159,84,76,40
138.00726,138.13795,84,82,40
138.14363,138.2743,84,88,40
138.28,138.41068,84,94,40
138.41635,138.54704,84,100,40
138.55272,138.68341,83,100,40
138.68909,138.81976,81,92,40
138.82545,138.95613,79,84,40
138.9618,139.0925,78,76,40
139.09818,139.22885,76,68,40
139.23454,139.36522,74,60,40
139.3709,139.50159,72,60,40
139.50726,139.63795,71,58,40
139.64363,139.7743,69,56,40
139.78,139.91068,67,54,40
139.91635,140.04704,66,52,40
140.05272,140.1834,64,49,40
140.18909,140.31976,62,46,40
140.32544,140.45613,61,43,40
140.4618,140.5925,62,40,40
163.24231,163.96957,66,40,40
164.06049,164.19118,66,40,40
164.33322,164.78777,66,40,40
164.87868,165.00935,67,40,40
165.1514,165.60594,66,40,40
165.69685,165.96957,65,40,40
165.96957,166.24231,62,40,40
166.24231,166.50935,64,40,40
166.51503,166.96957,65,40,40
168.1514,168.87866,74,40,40
168.96957,169.10025,73,53,40
169.24231,169.69685,73,57,40
169.78775,169.91844,74,66,40
170.06049,170.51503,73,70,40
170.60594,170.87866,72,80,40
170.87866,171.1514,69,80,40
171.1514,171.41844,71,80,40
171.42412,172.1514,72,80,40
172.2423,172.37299,74,80,40
172.51503,172.96957,72,60,40
173.06049,173.3332,72,40,40
173.3332,173.60594,69,40,40
173.60594,173.87299,67,40,40
173.87866,174.96957,66,40,40
174.96957,175.2423,67,40,40
175.2423,175.50934,69,40,40
175.51503,175.78775,71,40,40
175.78775,176.06047,67,40,40
176.06047,176.32753,66,40,40
176.3332,177.42412,64,40,40
177.42412,177.69684,66,40,40
177.69684,177.96388,67,40,40
177.96957,178.51501,69,40,40
178.51501,178.78206,67,48,40
178.78775,179.3332,72,52,40
179.3332,179.60025,71,61,40
179.60593,180.15138,76,65,40
180.15138,180.41843,74,75,40
180.4241,180.70982,72,80,40
180.70982,180.99554,71,80,40
180.99554,181.28125,69,75,40
181.28125,181.58125,67,70,40
181.58125,181.88126,66,65,40
181.88126,182.18126,64,60,40
182.18126,182.49376,57,55,40
182.49376,183.01459,60,50,40
183.11876,183.3858,59,40,40
183.39148,183.65852,57,40,40
183.6642,183.93124,55,40,40
183.93694,184.39148,55,40,40
188.02783,189.11874,67,40,40
189.11874,189.39148,69,40,40
189.39148,189.65852,71,40,40
189.6642,191.43692,67,40,40
191.57329,191.84602,71,40,40
191.84602,192.11874,74,42,40
192.11874,192.39146,69,44,40
192.39146,192.6642,71,46,40
192.6642,193.20396,69,48,40
193.20966,193.48238,72,52,40
193.48238,193.75511,76,54,40
193.75511,194.02783,71,56,40
194.02783,194.30055,72,58,40
194.30055,194.84601,71,61,40
194.84601,195.11874,74,67,40
195.11874,195.67123,78,70,40
195.67719,195.96289,76,76,40
195.96289,196.54236,79,79,40
196.54861,196.8486,78,85,40
196.8486,197.45782,81,88,40
197.4644,197.78018,79,94,40
197.78018,198.0894,83,97,40
198.09598,198.22665,73,100,40
198.23235,198.36302,73,100,40
198.3687,198.49939,73,92,40
198.50507,198.63574,73,84,40
198.64143,198.77211,73,76,40
198.77779,198.90848,73,68,40
198.91415,199.04485,78,60,40
199.05052,199.1812,78,60,40
199.18689,199.31757,73,60,40
199.32324,199.45393,73,60,40
199.45961,199.59029,73,60,40
199.59598,199.72665,73,60,40
199.73235,199.86302,75,60,40
199.8687,199.99939,75,57,40
200.00507,200.13574,73,54,40
200.14143,200.27211,73,51,40
200.27779,200.40848,73,48,40
200.41415,200.54483,73,44,40
200.55052,200.6812,73,40,40
200.68689,200.81757,71,40,40
200.82324,200.95393,70,40,40
200.95961,201.09029,68,40,40
201.09598,201.22665,66,40,40
201.23233,201.36302,64,40,40
201.3687,201.50507,63,40,40
201.64143,201.77779,71,40,40
202.18687,202.31757,59,40,40
202.32324,202.45393,61,40,40
202.45961,202.59029,63,40,40
202.59598,202.72665,64,40,40
202.73233,202.86302,66,40,40
202.8687,202.99937,68,40,40
203.00507,203.14142,69,40,40
203.27779,203.41415,59,43,40
203.82324,203.95392,71,49,40
203.95961,204.09029,73,50,40
204.09596,204.22665,74,51,40
204.23233,204.36302,76,52,40
204.3687,204.49937,78,53,40
204.50507,204.63574,79,54,40
204.64142,204.77779,81,55,40
204.91415,205.05052,74,58,40
205.45961,205.59651,74,64,40
205.60246,205.73936,76,66,40
205.74532,205.88222,73,68,40
205.88818,206.02509,78,70,40
206.03104,206.16794,82,72,40
206.17389,206.31079,78,74,40
206.31674,206.46675,78,76,40
206.61674,207.11674,73,80,40
207.21675,207.37465,78,88,40
207.53253,207.69043,74,92,40
207.84833,208.00623,80,96,40
208.16411,208.43684,81,100,40
208.43684,208.89139,69,100,40
208.9823,209.25502,81,100,40
209.25502,209.70956,69,100,40
209.80048,210.0732,81,100,40
210.0732,210.52774,69,100,40
220.16411,220.43115,69,60,40
220.43683,220.98228,81,60,40
220.98228,221.24933,74,60,40
221.255,221.80046,79,60,40
221.80046,222.0675,73,60,40
222.0732,222.61865,78,60,40
222.61865,222.8857,71,60,40
222.89137,223.1641,76,60,40
223.1641,223.43683,69,60,40
223.43683,223.70387,76,60,40
223.70955,223.98228,78,60,40
223.98228,224.255,71,60,40
224.255,224.52205,78,60,40
224.52774,224.80046,79,60,40
224.80046,225.255,83,60,40
225.34592,225.89137,86,60,40
225.89137,226.15842,79,60,40
226.1641,226.70955,84,60,40
226.70955,226.9766,78,60,40
227.80046,228.255,83,60,40
228.34592,228.61296,76,67,40
228.61864,229.07318,81,70,40
229.1641,229.43114,74,77,40
238.43681,239.25499,57,60,40
239.25499,239.70953,66,92,40
244.98225,245.11862,79,92,40
245.11862,245.25499,78,92,40
245.25499,245.39134,76,92,40
245.39134,245.52771,74,92,40
245.52771,245.66408,73,92,40
245.66408,245.79475,71,92,40
245.80045,245.9368,69,92,40
245.9368,246.07317,67,92,40
246.07317,246.20953,66,92,40
246.20953,246.3459,64,92,40
246.3459,246.48225,62,92,40
246.48225,246.61862,61,92,40
246.61862,246.7493,59,92,40
246.75499,246.89134,69,92,40
246.89134,247.02771,67,92,40
247.02771,247.16408,66,92,40
247.16408,247.30045,64,92,40
247.30045,247.43112,62,92,40
247.4368,247.70384,61,92,40
248.25499,248.80043,60,92,40
248.80043,249.89134,60,75,40
249.89134,252.46277,60,60,40
252.46277,255.35582,60,45,40
255.36276,255.49345,76,45,40
255.49913,255.62982,76,45,40
255.6355,255.76617,76,45,40
255.77187,255.90254,76,45,40
255.90822,256.0389,76,45,40
256.0446,256.17526,76,45,40
256.18094,256.31165,81,45,40
256.31732,256.448,81,45,40
256.45367,256.58435,76,45,40
256.59003,256.72073,76,45,40
256.7264,256.8571,76,45,40
256.86276,256.99344,76,45,40
256.99915,257.12982,78,45,40
257.1355,257.26617,78,45,40
257.27185,257.40253,76,45,40
257.40823,257.5389,76,45,40
257.5446,257.67526,76,45,40
257.68094,257.8116,76,45,40
257.81732,257.948,74,45,40
257.95367,258.08435,72,45,40
258.09003,258.22073,71,45,40
258.2264,258.3571,72,45,40
258.36276,258.49344,74,45,40
258.4991,258.62982,76,45,40
258.6355,258.76617,72,45,40
258.77185,258.90253,71,45,40
258.90823,259.0389,69,45,40
259.0446,259.17526,71,45,40
259.18094,259.3116,72,45,40
259.31732,259.448,76,45,40
259.45367,259.58435,74,45,40
259.59003,259.72073,72,45,40
259.7264,259.8571,71,45,40
259.86276,259.99344,72,45,40
259.9991,260.12982,74,45,40
260.1355,260.26617,76,45,40
260.27185,260.40253,72,45,40
260.40823,260.5389,71,45,40
260.5446,260.67526,69,45,40
260.68094,260.8116,72,45,40
260.81732,260.948,71,45,40
260.95367,261.08435,69,45,40
261.09003,261.2207,67,45,40
261.2264,261.3571,66,45,40
261.36276,261.49344,67,45,40
261.4991,261.62982,66,45,40
261.6355,261.76617,64,45,40
261.77185,261.90253,67,45,40
261.9082,262.0389,69,45,40
262.0446,262.17526,66,45,40
262.18094,262.3116,67,45,40
262.31732,262.448,66,45,40
262.45367,262.58435,64,45,40
262.59003,262.7207,67,45,40
262.7264,262.86276,66,45,40
262.9991,263.1355,71,45,40
263.27185,263.4082,63,45,40
263.5446,263.68094,64,45,40
263.8173,263.95367,71,45,40
264.09003,264.2264,61,45,40
264.36276,264.4991,63,45,40
264.6355,264.77185,71,45,40
264.9082,265.0446,59,45,40
265.18094,265.3116,64,45,40
265.3173,265.448,66,45,40
265.45367,265.58435,67,45,40
265.59003,265.7207,69,45,40
265.7264,265.8571,72,45,40
265.86276,265.99344,71,45,40
265.9991,266.26617,63,45,40
266.27185,266.40253,67,45,40
266.4082,266.53888,66,45,40
266.5446,266.67526,64,45,40
266.68094,266.8116,67,45,40
266.8173,267.08435,63,45,40
267.09003,267.2207,67,45,40
267.22638,267.3571,66,45,40
267.36276,267.49344,64,45,40
267.4991,267.6298,67,45,40
267.6355,267.90253,68,45,40
267.9082,268.03888,68,45,40
268.0446,268.17526,69,45,40
268.18094,268.3116,71,45,40
268.3173,268.448,64,45,40
268.45367,268.7207,64,45,40
268.72638,268.8571,60,45,40
268.86276,268.99344,62,45,40
268.9991,269.1298,64,45,40
269.13547,269.26617,72,45,40
269.27185,269.53888,70,45,40
269.5446,269.67526,70,45,40
269.68094,269.8116,71,45,40
269.8173,269.94797,73,45,40
269.95367,270.08435,66,45,40
270.09003,270.3571,66,45,40
270.36276,270.49344,62,45,40
270.4991,270.6298,64,45,40
270.63547,270.76617,66,45,40
270.77185,270.90253,74,45,40
270.9082,271.17526,73,45,40
271.18094,271.3116,73,45,40
271.3173,271.44797,74,45,40
271.45367,271.58435,76,45,40
271.59003,271.7207,69,45,40
272.54456,272.67526,67,45,40
272.68094,272.8116,66,46,40
272.8173,272.94797,64,47,40
272.95367,273.08435,66,48,40
273.09003,273.2207,67,49,40
273.22638,273.35706,69,50,40
273.36276,273.49344,71,51,40
273.4991,273.6298,69,52,40
273.63547,273.76617,67,53,40
273.77185,273.90253,69,54,40
273.9082,274.03888,71,55,40
274.04456,274.17526,73,56,40
274.18094,274.3116,74,57,40
274.3173,274.44797,73,58,40
274.45364,274.58435,71,59,40
274.59003,274.7207,73,60,40
274.72638,274.85706,74,61,40
274.86276,274.99344,76,62,40
274.9991,275.13602,78,63,40
275.14197,275.27887,76,64,40
275.28482,275.42172,74,65,40
275.42767,275.56458,76,66,40
275.57053,275.70746,78,67,40
275.7134,275.8503,80,68,40
275.85626,276.65625,69,69,40
275.85626,276.65625,78,69,40
276.75626,277.59836,69,80,40
276.75626,277.59836,78,80,40
277.7036,277.97067,73,92,40
277.7036,277.97067,77,92,40
278.5218,278.65817,70,92,40
278.79453,279.24908,70,92,40
279.34,279.47635,71,92,40
279.6127,280.06726,70,92,40
280.15817,280.29453,71,92,40
280.43088,280.88544,69,92,40
280.97635,281.1127,68,92,40
281.24908,281.7036,68,92,40
281.79453,281.93088,69,92,40
282.06726,282.5218,68,92,40
282.6127,282.74908,69,92,40
282.88544,283.33997,67,92,40
283.43088,283.56726,66,92,40
283.7036,284.15817,66,92,40
284.24908,284.38544,64,92,40
284.5218,284.97635,66,92,40
285.06726,285.2036,57,92,40
285.06726,285.2036,67,92,40
285.33997,285.79453,57,92,40
285.33997,285.79453,66,92,40
285.88544,286.0161,64,92,40
285.88544,286.0161,73,92,40
286.0218,286.15247,64,92,40
286.0218,286.15247,73,92,40
286.15817,286.28885,66,92,40
286.15817,286.28885,74,92,40
286.29453,286.4252,66,92,40
286.29453,286.4252,74,92,40
286.43088,286.56155,66,92,40
286.43088,286.56155,74,92,40
286.56726,286.69794,66,92,40
286.56726,286.69794,74,92,40
286.7036,286.8343,69,92,40
286.7036,286.8343,79,92,40
286.83997,286.97067,69,92,40
286.83997,286.97067,79,92,40
286.97635,287.10703,69,92,40
286.97635,287.10703,78,92,40
287.1127,287.24338,69,92,40
287.1127,287.24338,78,92,40
287.24905,287.37976,69,92,40
287.24905,287.37976,78,92,40
287.38544,287.5161,69,92,40
287.38544,287.5161,78,92,40
287.5218,287.65247,67,92,40
287.5218,287.65247,77,92,40
287.65817,287.78885,67,92,40
287.65817,287.78885,77,92,40
287.79453,287.9252,67,92,40
287.79453,287.9252,76,92,40
287.93088,288.06155,67,92,40
287.93088,288.06155,76,92,40
288.06726,288.19794,67,92,40
288.06726,288.19794,76,92,40
288.2036,288.3343,67,92,40
288.2036,288.3343,76,92,40
288.33997,288.47064,80,92,40
288.47635,288.60703,80,92,40
288.6127,288.74338,79,92,40
288.74905,288.87976,79,92,40
288.88544,289.0161,79,92,40
289.0218,289.15247,79,92,40
289.15814,289.28885,81,92,40
289.29453,289.4252,81,92,40
289.43088,289.56155,79,92,40
289.56726,289.69794,79,92,40
289.7036,289.8343,79,92,40
289.83997,289.97064,79,92,40
289.97635,290.10703,84,92,40
290.1127,290.24338,84,84,40
290.24905,290.37976,84,76,40
290.38544,290.5161,84,68,40
290.5218,290.65247,84,60,40
290.65814,290.78885,84,60,40
291.6127,291.74338,59,60,40
291.74905,291.87973,59,60,40
291.88544,292.0161,59,60,40
292.0218,292.15247,59,60,40
292.15814,292.28885,59,60,40
292.29453,292.4252,59,60,40
293.24905,293.37973,57,60,40
293.38544,293.5161,57,60,40
293.5218,293.65247,57,60,40
293.65814,293.78882,57,60,40
293.79453,293.9252,57,60,40
293.93088,294.06155,57,60,40
294.88544,295.0161,74,60,40
295.0218,295.15247,74,60,40
295.15814,295.28882,74,60,40
295.29453,295.4252,74,60,40
295.43088,295.56155,74,60,40
295.56723,295.69794,74,60,40
296.5218,296.65247,60,57,40
296.65814,296.78882,60,57,40
296.79453,296.9252,60,57,40
296.93088,297.06155,60,57,40
297.06723,297.1979,60,57,40
297.2036,297.3343,60,57,40
300.04446,300.3172,62,45,40
300.3172,300.58994,64,45,40
300.58994,300.86267,66,45,40
300.86267,301.68085,67,45,40
301.68085,302.4081,65,45,40
302.49902,302.77176,63,45,40
302.77176,303.04446,65,45,40
303.04446,303.31152,63,45,40
303.3172,303.86264,62,45,40
303.86264,304.13538,66,45,40
304.13538,307.40244,69,45,40
307.4081,307.68082,70,45,40
307.68082,307.95355,72,45,40
307.95355,308.2263,74,45,40
308.2263,309.04446,75,45,40
309.04446,309.77173,74,45,40
309.86264,310.13538,72,45,40
310.13538,310.4081,74,45,40
310.4081,310.68082,72,45,40
310.68082,311.2263,70,45,40
311.2263,311.49902,74,45,40
311.49902,314.76605,77,45,40
314.77173,315.2263,78,45,40
315.5899,316.13538,72,45,40
316.13538,316.40808,74,47,40
316.40808,316.68082,75,48,40
316.68082,316.95355,74,49,40
316.95355,317.22058,72,50,40
317.2263,318.04446,71,51,40
318.04446,318.86264,70,79,40
318.86264,319.13538,68,59,40
319.13538,319.40808,67,60,40
319.40808,319.67514,65,61,40
319.68082,320.499,64,62,40
320.499,321.5899,63,98,40
321.5899,321.86264,62,72,40
321.86264,322.12967,60,73,40
322.13538,322.9925,67,75,40
322.9925,324.20502,63,107,40
324.20502,324.51752,62,75,40
324.51752,324.8235,60,68,40
324.83002,325.28455,67,60,40
344.46634,345.19363,66,60,40
345.28452,345.41522,66,60,40
345.55725,346.0118,66,60,40
346.10272,346.2334,67,61,40
346.37543,346.83,66,61,40
346.9209,347.1936,65,62,40
347.1936,347.46634,62,62,40
347.46634,347.7334,64,62,40
347.73907,348.1936,65,62,40
349.37543,350.1027,74,66,40
350.1936,350.3243,73,69,40
350.46634,350.9209,73,69,40
351.0118,351.1425,74,71,40
351.28452,351.73907,73,71,40
351.83,352.1027,72,75,40
352.1027,352.37543,69,75,40
352.37543,352.6425,71,75,40
352.64816,353.37543,72,75,40
353.46634,353.59702,74,75,40
353.73907,354.1936,72,60,40
354.28452,354.55725,72,45,40
354.55725,354.83,69,45,40
354.83,355.09702,67,45,40
355.1027,356.1936,66,45,40
356.1936,356.46634,67,45,40
356.46634,356.73337,69,45,40
356.73907,357.01178,71,45,40
357.01178,357.28452,67,45,40
357.28452,357.55157,66,45,40
357.55725,358.64816,64,45,40
358.64816,358.92087,66,45,40
358.92087,359.18793,67,45,40
359.1936,359.73907,69,45,40
359.73907,360.0061,67,55,40
360.01178,360.55725,72,60,40
360.55725,360.82428,71,70,40
360.82996,361.37543,76,75,40
361.37543,361.64246,74,86,40
361.64816,361.93387,72,92,40
361.93387,362.21957,71,92,40
362.21957,362.50528,69,88,40
362.50528,362.8053,67,84,40
362.8053,363.1053,66,80,40
363.1053,363.4053,64,76,40
363.4053,363.7178,57,72,40
363.7178,364.23862,60,68,40
364.3428,364.6155,59,60,40
364.6155,364.88824,57,60,40
364.88824,365.1553,55,60,40
365.16098,365.6155,55,60,40
369.2519,370.34277,67,60,40
370.34277,370.6155,69,60,40
370.6155,370.88257,71,60,40
370.88824,372.79733,67,60,40
372.79733,373.07007,71,60,40
373.07007,373.34277,74,61,40
373.34277,373.6155,69,62,40
373.6155,373.88824,71,63,40
373.88824,374.4337,69,64,40
374.4337,374.70642,72,66,40
374.70642,374.97916,76,67,40
374.97916,375.25186,71,68,40
375.25186,375.5246,72,69,40
375.5246,376.06436,71,70,40
376.07004,376.34277,74,72,40
376.34277,376.89526,78,73,40
376.9012,377.18692,76,76,40
377.18692,377.7664,79,78,40
377.77264,378.07266,78,82,40
378.07266,378.3664,81,84,40
378.37265,378.68515,79,86,40
378.68515,378.99115,76,88,40
378.99765,379.30365,76,90,40
379.31015,379.5829,74,92,40
379.5829,380.0374,62,92,40
380.12833,380.40106,74,92,40
380.40106,380.8556,62,92,40
380.9465,381.21924,74,92,40
381.21924,381.67377,62,92,40
409.58286,410.40103,69,92,40
410.40103,410.85556,68,107,40
411.2192,411.35556,79,60,40
411.35556,411.49194,77,60,40
411.49194,411.6283,76,60,40
411.6283,411.76465,74,60,40
411.76465,411.90103,72,60,40
411.90103,412.0317,71,60,40
412.03738,412.17374,77,60,40
412.17374,412.31012,76,60,40
412.31012,412.44647,74,60,40
412.44647,412.58286,72,60,40
412.58286,412.7192,71,60,40
412.7192,412.85556,69,60,40
412.85556,412.99194,67,60,40
412.99194,413.1283,65,60,40
413.1283,413.26465,64,60,40
413.26465,413.40103,62,60,40
413.40103,413.53738,60,60,40
413.53738,413.66806,59,60,40
413.67374,413.81012,76,60,40
413.81012,413.94647,74,61,40
413.94647,414.08286,72,62,40
414.08286,414.2192,71,63,40
414.2192,414.35556,69,64,40
414.35556,414.48624,67,66,40
414.49194,414.6283,74,68,40
414.6283,414.76465,72,70,40
414.76465,414.90103,71,72,40
414.90103,415.03738,69,74,40
415.03738,415.17374,67,76,40
415.17374,415.31012,66,78,40
415.31012,415.44647,64,80,40
415.44647,415.58282,62,82,40
415.58282,415.7192,60,84,40
415.7192,415.85556,59,86,40
415.85556,415.99194,57,88,40
415.99194,416.12262,55,90,40
416.1283,416.26465,72,92,40
416.40103,416.53738,69,92,40
416.67374,416.81012,66,92,40
416.94647,417.08282,62,92,40
417.2192,417.35556,59,92,40
417.4919,417.6283,55,92,40
417.76465,417.90103,64,92,40
418.03738,418.17374,60,92,40
418.31012,418.44647,57,92,40
419.40103,419.5317,62,92,40
419.40103,419.66806,69,92,40
419.4692,419.66806,81,92,40
419.67374,419.81012,77,92,40
419.94647,420.08282,74,92,40
420.2192,420.35556,69,92,40
420.4919,420.6283,65,92,40
420.76465,420.901,62,92,40
421.03738,421.4919,57,92,40
421.85556,421.98624,55,92,40
421.85556,421.98624,63,92,40
421.92374,422.12262,72,92,40
421.92374,422.12262,79,92,40
422.1283,422.26465,75,91,40
422.401,422.53738,72,88,40
422.67374,422.81012,67,84,40
422.94647,423.08282,63,80,40
423.2192,423.35556,60,76,40
423.4919,423.94647,55,72,40
424.3101,425.8101,55,60,40
425.94647,426.401,55,60,40
426.76465,428.26465,55,60,40
428.401,428.85556,55,60,40
429.21918,430.71918,56,60,40
430.85556,432.08282,62,60,40
432.08282,432.4919,59,60,40
432.4919,432.901,64,60,40
432.901,433.3044,57,60,40
433.3101,434.91724,66,60,40
435.06723,435.99823,66,75,40
436.00473,436.1354,55,92,40
436.00473,436.1354,63,92,40
436.0729,436.2718,72,92,40
436.0729,436.2718,79,92,40
436.27747,436.41382,75,92,40
436.5502,436.68655,72,92,40
436.8229,436.9593,67,92,40
437.09564,437.232,63,87,40
437.36838,437.50473,60,82,40
437.64108,437.77747,55,77,40
437.91382,438.0502,63,72,40
438.18655,438.3229,60,66,40
438.4593,438.732,55,60,40
439.27747,439.5502,67,60,40
439.5502,439.8229,62,60,40
439.8229,440.09564,67,60,40
440.09564,441.36838,74,60,40
444.18655,445.00473,63,60,40
445.00473,445.732,68,60,40
445.8229,446.55017,68,60,40
446.64108,447.05017,71,60,40
447.05017,447.45926,76,60,40
447.45926,447.86835,74,60,40
447.86835,448.27176,72,60,40
448.27747,448.68655,74,60,40
448.68655,449.09564,79,61,40
449.09564,449.50473,77,62,40
449.50473,449.90814,76,63,40
449.91382,450.3229,78,64,40
450.3229,450.72632,83,65,40
450.732,451.14108,81,66,40
451.14108,451.55017,79,67,40
451.55017,451.95926,81,68,40
451.95926,452.36835,79,69,40
452.36835,452.64108,81,70,40
452.64108,452.91382,79,70,40
452.91382,453.18085,81,70,40
453.18652,453.45926,79,70,40
453.45926,453.732,81,70,40
453.732,454.00473,79,70,40
454.00473,454.27744,81,70,40
454.27744,454.55017,79,70,40
454.55017,454.8229,81,70,40
454.8229,455.02744,79,71,40
455.02744,455.232,81,71,40
455.232,455.43652,79,71,40
455.43652,455.6354,81,71,40
455.64108,455.8643,79,71,40
455.87067,456.09387,81,71,40
456.10025,456.3235,79,71,40
456.32986,456.55307,81,71,40
456.55945,456.63757,79,72,40
456.63757,456.7157,81,72,40
456.7157,456.79382,79,72,40
456.79382,456.87195,81,72,40
456.87195,456.95007,79,72,40
456.95007,457.0282,81,72,40
457.0282,457.10632,79,72,40
457.10632,457.18445,81,72,40
457.18445,457.26257,79,72,40
457.26257,457.3407,81,72,40
457.3407,457.41882,79,72,40
457.41882,457.49695,81,72,40
457.49695,457.57672,79,72,40
457.57672,457.65652,81,72,40
457.65652,457.7363,79,72,40
457.7363,457.8161,81,72,40
457.8161,457.89587,79,72,40
457.89587,457.97568,81,72,40
457.97568,458.05545,79,72,40
458.05545,458.13525,81,72,40
458.13525,458.21503,79,72,40
458.21503,458.29483,81,72,40
458.29483,458.3746,79,72,40
458.3746,458.44775,81,72,40
458.4544,458.53592,79,72,40
458.53592,458.61743,81,72,40
458.61743,458.69894,79,72,40
458.69894,458.7805,81,72,40
458.7805,458.862,79,72,40
458.862,458.9435,81,72,40
458.9435,459.02505,79,72,40
459.02505,459.10657,81,72,40
459.10657,459.18808,79,72,40
459.18808,459.26962,81,72,40
459.26962,459.35114,79,72,40
459.35114,459.43265,81,72,40
459.43265,459.516,79,72,40
459.516,459.5993,81,72,40
459.5993,459.68265,79,72,40
459.68265,459.766,81,72,40
459.766,459.8493,79,72,40
459.8493,459.93265,81,73,40
459.93265,460.016,79,74,40
460.016,460.0993,81,75,40
460.0993,460.18265,79,76,40
460.18265,460.266,81,77,40
460.266,460.3493,79,78,40
460.3493,460.43265,81,79,40
460.43265,460.51788,79,80,40
460.51788,460.60312,81,81,40
460.60312,460.68832,79,82,40
460.68832,460.77356,81,83,40
460.77356,460.8588,79,84,40
460.8588,460.944,81,85,40
460.944,461.02924,79,86,40
461.02924,461.11447,81,87,40
461.11447,461.22812,78,88,40
461.22812,461.34174,79,89,40
461.34174,461.44827,81,90,40
461.45538,461.58606,83,92,40
461.59174,461.7224,74,92,40
461.72812,461.8588,74,86,40
461.86447,461.99515,74,80,40
462.00082,462.1315,74,74,40
462.1372,462.26788,74,67,40
462.27356,462.40424,79,60,40
462.4099,462.5406,79,60,40
462.5463,462.67697,74,60,40
462.68265,462.81332,74,60,40
462.819,462.9497,74,60,40
462.95538,463.08606,74,60,40
463.09174,463.2224,76,60,40
463.2281,463.3588,76,60,40
463.36447,463.49515,74,60,40
463.50082,463.6315,74,60,40
463.6372,463.76788,74,60,40
463.77356,463.90424,74,60,40
463.9099,464.03943,72,60,40
464.04504,464.17456,71,60,40
464.18018,464.3097,69,60,40
464.31534,464.44482,71,60,40
464.45047,464.57996,72,59,40
464.5856,464.7151,74,58,40
464.72073,464.85022,71,57,40
464.85587,464.98538,69,56,40
464.991,465.1205,67,55,40
465.12613,465.25565,69,54,40
465.26126,465.39078,71,53,40
465.3964,465.5259,74,52,40
465.53156,465.66104,72,51,40
465.6667,465.79617,71,50,40
465.80182,465.9313,69,49,40
465.93695,466.06644,71,48,40
466.07208,466.2016,72,47,40
466.2072,466.33673,74,46,40
466.34235,466.4707,71,45,40
466.4763,466.6046,69,45,40
466.6102,466.73856,67,45,40
466.74414,466.8725,69,45,40
466.87805,467.0064,67,45,40
467.012,467.14035,66,45,40
467.14594,467.27426,64,45,40
467.27985,467.4082,67,45,40
467.4138,467.5421,66,45,40
467.5477,467.67606,64,45,40
467.68164,467.81,62,45,40
467.81555,467.9439,66,45,40
467.9495,468.07785,67,45,40
468.08344,468.21176,64,45,40
468.21735,468.3457,66,45,40
468.3513,468.4796,64,45,40
468.4852,468.61356,62,45,40
468.61914,468.7475,66,45,40
468.75305,468.8858,64,45,40
469.01855,469.1513,69,50,40
469.28403,469.41678,61,55,40
469.54953,469.68225,62,60,40
469.815,469.94775,69,65,40
470.0805,470.21323,59,70,40
470.34598,470.47873,61,75,40
470.61148,470.7442,69,80,40
470.87695,471.0097,57,86,40
471.14246,471.40012,62,92,40
471.4056,471.66327,66,92,40
471.66876,471.92642,69,92,40
471.93192,472.18958,67,92,40
472.19507,472.45276,66,92,40
472.45822,472.7159,62,92,40
472.72137,472.97906,73,92,40
472.98456,473.24222,74,92,40
473.2477,473.50537,62,75,40
473.51086,473.63586,66,60,40
473.6413,473.7663,64,60,40
473.77173,473.89673,62,60,40
473.90216,474.02716,64,60,40
474.0326,474.1576,62,60,40
474.16302,474.28802,60,60,40
474.29346,474.41846,59,60,40
474.4239,474.5489,61,60,40
474.55435,474.67935,62,60,40
474.68478,474.80978,62,60,40
474.81522,474.94022,62,60,40
474.94565,475.07065,62,60,40
475.07608,475.20108,67,60,40
475.2065,475.3315,67,60,40
475.33694,475.46194,66,60,40
475.46738,475.59238,66,60,40
475.5978,475.7228,66,60,40
475.72824,475.85324,66,60,40
475.85867,475.988,64,92,40
476.1173,476.2466,68,92,40
476.37592,476.50525,71,92,40
476.63455,476.76385,69,92,40
476.89316,477.0225,68,92,40
477.1518,477.2811,64,92,40
477.4104,477.5397,75,92,40
477.66904,477.79834,76,92,40
477.92764,478.05695,64,75,40
478.18628,478.30914,68,60,40
478.31448,478.43735,66,60,40
478.4427,478.56555,64,60,40
478.5709,478.69376,65,60,40
478.6991,478.82196,64,60,40
478.8273,478.95016,62,60,40
478.9555,479.07837,60,60,40
479.0837,479.20657,62,60,40
479.2119,479.33478,64,60,40
479.34012,479.46298,64,60,40
479.46832,479.5912,64,60,40
479.59653,479.7194,64,60,40
479.72473,479.8476,69,60,40
479.85294,479.9758,69,60,40
479.98114,480.104,68,60,40
480.10934,480.2322,68,60,40
480.23755,480.3604,68,60,40
480.36575,480.48862,68,60,40
480.49396,480.62106,66,60,40
480.7482,481.17194,59,60,40
481.25668,481.3838,64,60,40
481.5109,481.93463,59,60,40
482.01938,482.14648,66,60,40
482.27362,482.69736,59,60,40
482.7821,482.90814,64,60,40
483.03418,483.45435,57,59,40
483.5384,483.66443,62,56,40
483.7905,484.21066,57,55,40
484.2947,484.42075,64,51,40
484.54678,484.96695,57,49,40
485.051,485.29578,62,45,40
485.301,485.71765,55,45,40
485.801,485.92078,76,56,40
485.926,486.04578,72,59,40
486.051,486.17078,71,62,40
486.176,486.29578,72,65,40
486.301,486.42078,74,68,40
486.426,486.54578,76,71,40
486.551,486.67078,77,74,40
486.676,486.79578,76,77,40
486.801,486.92078,77,80,40
486.926,487.04578,79,83,40
487.051,487.17078,81,86,40
487.176,487.29578,83,89,40
487.301,487.42078,84,92,40
487.426,487.54578,83,92,40
487.551,487.67078,81,92,40
487.676,487.79578,79,92,40
487.801,487.92078,78,92,40
487.926,488.04578,76,92,40
488.051,488.29578,74,92,40
488.801,488.92078,62,107,40
488.926,489.04578,62,75,40
489.051,489.17078,62,107,40
489.051,489.17078,72,107,40
489.176,489.29578,62,75,40
489.176,489.29578,72,75,40
489.301,489.42078,62,80,40
489.301,489.42078,72,80,40
489.426,489.54578,62,86,40
489.426,489.54578,72,86,40
489.551,489.67078,72,92,40
489.676,489.79578,72,92,40
489.801,489.92078,72,92,40
489.926,490.04578,72,92,40
490.051,490.17078,72,92,40
490.176,490.29578,72,92,40
490.301,490.42078,71,92,40
490.426,490.54578,71,91,40
490.551,490.67078,71,90,40
490.676,490.79578,71,89,40
490.801,490.92078,71,88,40
490.926,491.04578,71,87,40
491.051,491.17078,72,86,40
491.176,491.29578,72,85,40
491.301,491.42078,71,84,40
491.426,491.54578,71,83,40
491.551,491.67078,71,82,40
491.676,491.79578,71,81,40
491.801,491.92078,76,80,40
491.926,492.04578,76,79,40
492.051,492.17078,74,78,40
492.176,492.29578,74,77,40
492.301,492.42078,74,76,40
492.426,492.54578,74,75,40
492.551,492.67078,73,74,40
492.676,492.79578,73,73,40
492.801,492.92078,73,72,40
492.926,493.04578,73,71,40
493.051,493.17078,73,70,40
493.176,493.29578,73,69,40
493.301,493.42078,74,68,40
493.426,493.54578,74,67,40
493.551,493.67078,73,66,40
493.676,493.79578,73,65,40
493.801,493.92078,73,64,40
493.926,494.04578,73,62,40
494.051,494.17078,78,60,40
494.176,494.29578,78,60,40
494.301,494.42078,76,60,40
494.426,494.54578,76,60,40
494.551,494.67078,76,60,40
494.676,494.79578,76,60,40
494.801,494.92078,75,60,40
494.926,495.04578,75,60,40
495.051,495.17078,75,60,40
495.176,495.29578,75,60,40
495.301,495.42078,75,60,40
495.426,495.54578,75,60,40
495.551,495.67078,79,60,40
495.676,495.79578,79,60,40
495.801,495.92078,77,60,40
495.926,496.04578,77,60,40
496.051,496.17078,77,60,40
496.176,496.29578,77,60,40
496.301,496.42078,76,60,40
496.426,496.54578,76,60,40
496.551,496.67078,81,60,40
496.676,496.79578,81,60,40
496.801,496.92078,81,60,40
496.926,497.04578,79,60,40
497.051,497.17078,78,60,40
497.176,497.29578,78,60,40
497.301,497.42078,83,60,40
497.426,497.54578,83,60,40
497.551,497.67078,83,60,40
497.676,497.79578,81,60,40
497.801,497.92078,80,60,40
497.926,498.04578,80,60,40
498.051,498.17078,81,60,40
498.176,498.29578,81,60,40
498.301,498.42078,81,60,40
498.426,498.54578,82,60,40
498.551,498.67078,82,60,40
498.676,498.79578,82,60,40
498.801,498.92078,81,60,40
498.926,499.04578,81,60,40
499.051,499.17078,81,60,40
499.176,499.29578,82,61,40
499.301,499.42078,82,61,40
499.426,499.54578,82,62,40
499.551,499.67078,81,63,40
499.676,499.79578,81,64,40
499.801,499.92078,81,65,40
499.926,500.04578,82,66,40
500.051,500.17078,82,67,40
500.176,500.29578,82,68,40
500.301,500.42078,81,69,40
500.426,500.54578,81,70,40
500.551,500.67078,81,71,40
500.676,500.79578,81,72,40
500.801,500.92078,82,73,40
500.926,501.04578,82,74,40
501.051,501.17078,82,75,40
501.176,501.29578,82,76,40
501.301,501.42078,79,77,40
501.426,501.54578,79,78,40
501.551,501.67078,81,79,40
501.676,501.79578,81,80,40
501.801,501.92078,81,81,40
501.926,502.04578,81,82,40
502.051,502.17078,82,83,40
502.176,502.29578,82,84,40
502.301,502.42078,82,85,40
502.426,502.54578,82,86,40
502.551,502.67078,82,87,40
502.676,502.79578,82,88,40
502.801,502.92078,82,89,40
502.926,503.04578,82,90,40
503.051,503.17078,81,92,40
503.176,503.29578,81,92,40
503.301,503.42078,81,92,40
503.426,503.54578,81,92,40
503.551,503.67078,81,92,40
503.676,503.79578,81,92,40
508.301,508.42078,68,45,40
508.426,508.54578,68,45,40
508.551,508.67078,68,45,40
508.676,508.79578,68,45,40
508.801,508.92078,68,45,40
508.926,509.04578,68,45,40
509.801,509.92078,55,45,40
509.926,510.04578,55,45,40
510.051,510.17078,55,45,40
510.176,510.29578,55,45,40
510.301,510.42078,55,45,40
510.426,510.54578,55,45,40
514.301,514.5458,55,45,40
514.551,514.7958,57,46,40
514.801,515.0458,59,48,40
515.051,515.71765,60,50,40
515.801,516.0458,59,56,40
516.051,516.2958,60,58,40
516.301,516.5458,62,60,40
516.551,517.051,67,62,40
517.051,517.2958,66,66,40
517.301,517.551,64,68,40
517.551,517.801,62,70,40
517.801,518.0458,60,72,40
518.051,518.2958,59,74,40
518.301,518.551,71,76,40
518.551,518.801,69,78,40
518.801,519.051,67,80,40
519.051,519.301,64,82,40
519.301,519.5458,60,84,40
519.551,519.801,59,86,40
519.801,520.051,62,88,40
520.051,520.2958,67,90,40
520.301,520.801,74,92,40
520.801,521.0458,66,75,40
521.051,521.1708,65,60,40
521.176,521.2958,64,60,40
521.301,521.4208,62,60,40
521.426,521.5458,64,60,40
521.551,521.6708,65,60,40
521.676,521.7958,67,60,40
521.801,521.9208,65,60,40
521.926,522.0458,64,60,40
522.051,522.1708,62,60,40
522.176,522.2958,64,60,40
522.301,522.4208,65,60,40
522.426,522.5458,67,60,40
522.551,522.6708,65,60,40
522.676,522.7958,64,60,40
522.801,522.9208,62,60,40
522.926,523.0458,64,60,40
523.051,523.1708,65,60,40
523.176,523.2958,67,60,40
523.301,523.4208,65,60,40
523.426,523.5458,64,60,40
523.551,523.6708,62,60,40
523.676,523.7958,64,60,40
523.801,523.9208,65,60,40
523.926,524.0458,67,60,40
524.051,524.1708,64,60,40
524.176,524.2958,62,60,40
524.301,524.4208,60,60,40
524.426,524.5458,62,60,40
524.551,524.6708,64,60,40
524.676,524.7958,67,60,40
524.801,525.051,71,60,40
525.051,525.301,72,61,40
525.301,525.5458,74,62,40
525.551,526.051,79,63,40
526.051,526.2958,78,66,40
526.301,526.551,76,68,40
526.551,526.801,74,70,40
526.801,527.0458,72,72,40
527.051,527.2958,71,74,40
527.301,527.551,83,76,40
527.551,527.801,81,78,40
527.801,528.051,79,80,40
528.051,528.301,76,82,40
528.301,528.5458,72,84,40
528.551,529.051,71,86,40
529.051,529.301,62,90,40
529.301,529.801,66,92,40
529.801,530.0458,72,75,40
530.051,530.71765,72,60,40
530.801,531.301,71,60,40
531.301,531.551,62,60,40
531.551,532.051,66,60,40
532.051,532.2958,72,60,40
532.301,532.96765,72,60,40
533.051,533.71765,71,70,40
533.801,534.46765,69,81,40
534.551,534.6708,74,92,40
534.676,534.7958,74,92,40
534.801,534.9208,74,92,40
534.926,535.0458,74,92,40
535.051,535.1708,74,92,40
535.176,535.2958,74,92,40
535.301,535.4208,79,92,40
535.426,535.5458,79,92,40
535.551,535.6708,74,92,40
535.676,535.7958,74,92,40
535.801,535.9208,74,92,40
535.926,536.0458,74,92,40
536.051,536.1708,76,92,40
536.176,536.2958,76,92,40
536.301,536.4208,74,92,40
536.426,536.5458,74,92,40
536.551,536.6708,74,92,40
536.676,536.7958,74,92,40
536.801,536.9208,81,92,40
536.926,537.0458,81,92,40
537.051,537.1708,76,92,40
537.176,537.2958,76,92,40
537.301,537.4208,76,92,40
537.426,537.5458,76,92,40
537.551,537.6708,81,92,40
537.676,537.7958,81,92,40
537.801,537.9208,76,92,40
537.926,538.0458,76,92,40
538.051,538.1708,76,92,40
538.176,538.2958,76,92,40
538.301,538.4208,78,92,40
538.426,538.5458,78,92,40
538.551,538.6708,76,92,40
538.676,538.7958,76,92,40
538.801,538.9208,76,92,40
538.926,539.0458,76,92,40
539.051,539.2958,69,92,40
539.801,539.9208,71,92,40
539.926,540.0458,69,92,40
540.051,540.1708,67,92,40
540.176,540.2958,69,92,40
540.301,540.4208,71,92,40
540.426,540.5458,73,92,40
540.551,540.7958,74,92,40
541.301,541.4208,71,92,40
541.426,541.5458,69,92,40
541.551,541.6708,67,92,40
541.676,541.7958,69,92,40
541.801,541.9208,71,92,40
541.926,542.0458,73,92,40
542.051,542.2958,74,92,40
542.801,542.9208,76,92,40
542.926,543.0458,74,92,40
543.051,543.1708,72,92,40
543.176,543.2958,74,92,40
543.301,543.4208,76,92,40
543.426,543.5458,78,92,40
543.551,543.6688,79,92,40
543.67395,543.79175,79,92,40
543.7969,543.91473,71,92,40
543.91986,544.03766,71,92,40
544.0428,544.16064,71,92,40
544.1658,544.28357,71,92,40
544.2887,544.40656,74,92,40
544.4117,544.5295,74,92,40
544.5346,544.6524,67,92,40
544.65753,544.7754,67,92,40
544.7805,544.8983,67,92,40
544.90344,545.0213,67,92,40
545.0264,545.1442,83,92,40
545.14935,545.2672,83,92,40
545.2723,545.39014,74,92,40
545.39526,545.51306,74,92,40
545.5182,545.63605,79,92,40
545.6412,545.759,79,92,40
545.7641,545.8791,71,92,40
545.8841,545.9991,71,92,40
546.0041,546.1191,74,91,40
546.1241,546.23914,74,90,40
546.2441,546.35913,67,89,40
546.36414,546.4791,67,88,40
546.48413,546.6039,71,87,40
546.60913,546.7289,71,86,40
546.73413,546.8539,62,85,40
546.85913,546.9789,62,84,40
546.98413,547.1039,67,83,40
547.10913,547.2289,67,82,40
547.23413,547.3648,62,81,40
547.3705,547.50116,62,80,40
547.50684,547.6375,67,79,40
547.6432,547.77386,67,78,40
547.77954,547.9102,62,77,40
547.91595,548.04663,62,76,40
548.0523,548.34607,67,75,40
550.1523,550.332,62,92,40
550.1523,550.5195,69,92,40
550.24603,550.5195,78,92,40
551.2773,552.26685,62,92,40
551.2773,554.0273,71,92,40
551.5273,554.0273,79,92,40
103.90089,104.16793,79,92,45
104.173615,104.44066,76,92,45
104.44634,104.71339,73,92,45
104.71907,104.986115,69,92,45
104.9918,105.25884,66,92,45
105.26452,105.53157,62,92,45
105.53725,105.80429,59,92,45
105.809975,106.07702,55,92,45
113.71906,113.98611,67,45,45
113.99178,114.258835,67,45,45
114.53724,114.80428,66,45,45
114.80997,115.07701,66,45,45
116.1736,116.44065,64,45,45
116.44633,116.71337,64,50,45
116.99178,117.25883,62,60,45
117.26451,117.531555,62,65,45
230.255,230.52205,79,92,45
230.52773,230.79477,76,92,45
230.80046,231.0675,73,92,45
231.07318,231.34023,69,92,45
231.3459,231.61296,66,92,45
231.61864,231.88568,62,92,45
231.89136,232.1584,59,92,45
232.1641,232.43114,55,92,45
240.07317,240.34023,67,45,45
240.3459,240.61295,67,45,45
240.89136,241.1584,66,45,45
241.16408,241.43112,66,45,45
242.52771,242.79475,64,45,45
242.80045,243.06749,64,50,45
243.3459,243.61295,62,60,45
243.61862,243.88567,62,65,45
381.76468,382.03174,74,92,45
382.0374,382.30447,67,92,45
382.5829,382.8499,72,92,45
382.8556,383.12265,66,92,45
383.40106,383.6681,71,92,45
383.67377,383.94083,64,92,45
384.21924,384.48627,69,92,45
384.49197,384.759,62,92,45
385.0374,385.30447,71,92,45
385.31015,385.57718,64,92,45
385.8556,386.12265,72,92,45
386.12833,386.39536,64,92,45
386.67377,386.94083,76,92,45
386.9465,387.21356,69,92,45
387.49194,387.759,74,92,45
387.76468,388.03174,68,92,45
388.31015,388.57718,72,92,45
388.58286,388.8499,66,92,45
389.12833,389.39536,71,92,45
389.40106,389.6681,64,89,45
389.9465,390.21353,69,83,45
390.21924,390.48627,67,80,45
390.76468,391.21924,66,72,45
391.31015,391.57718,74,64,45
391.58286,391.8499,86,60,45
391.8556,392.12265,83,60,45
392.12833,392.39536,79,60,45
392.40103,392.6681,84,60,45
392.67377,392.94083,81,60,45
392.9465,393.21353,78,60,45
393.21924,393.48627,83,60,45
393.49194,393.759,79,60,45
393.76468,394.03174,76,60,45
394.0374,394.30444,81,60,45
394.31012,394.57718,74,60,45
394.58286,394.8499,81,60,45
394.8556,395.12262,83,60,45
395.12833,395.39536,76,60,45
395.40103,395.6681,83,60,45
395.67377,395.94083,84,60,45
395.9465,396.21353,81,60,45
396.2192,396.48627,76,60,45
396.49194,396.759,79,60,45
396.76468,397.0317,76,60,45
397.0374,397.30444,72,60,45
397.31012,397.57718,77,60,45
397.58286,397.8499,74,60,45
397.8556,398.12262,71,60,45
398.9465,399.21353,76,60,45
399.2192,399.48627,72,63,45
399.49194,399.759,69,66,45
399.76468,400.0317,74,69,45
400.0374,400.30444,71,72,45
400.31012,400.57718,67,76,45
401.40103,401.6681,84,92,45
401.67377,401.9408,81,92,45
401.9465,402.21353,79,92,45
402.2192,402.48627,74,92,45
402.49194,402.759,71,92,45
402.76468,403.0317,67,92,45
403.03738,403.30444,64,92,45
403.31012,403.57718,60,92,45
403.58286,403.84988,57,92,45
2.454543,2.5852246,69,40,41
2.5909064,2.7215881,69,40,41
2.72727,2.8579516,69,40,41
2.8636334,2.9943151,69,40,41
2.999997,3.1306787,69,40,41
3.1363604,3.2670422,69,40,41
3.272724,3.4034057,64,40,41
3.4090874,3.5397692,64,40,41
3.545451,3.6761327,69,40,41
3.6818144,3.8124962,69,40,41
3.818178,3.9488597,69,40,41
3.9545414,4.085223,69,40,41
4.090905,4.2215867,62,40,41
4.2272687,4.35795,62,40,41
4.363632,4.4943137,69,40,41
4.4999957,4.630677,69,40,41
4.636359,4.7670407,69,40,41
4.7727227,4.903404,69,40,41
4.909086,5.1761312,69,40,41
5.999994,6.130676,74,40,41
6.1363573,6.2670393,72,40,41
6.272721,6.403403,71,40,41
6.4090843,6.5397663,69,40,41
6.545448,6.67613,67,40,41
6.6818113,6.8124933,71,40,41
6.818175,6.948857,74,40,41
6.9545383,7.0852203,74,40,41
7.090902,7.221584,74,40,41
7.2272654,7.3579473,74,40,41
7.363629,7.488629,71,40,41
7.494064,7.619064,67,42,41
7.6244984,7.7494984,74,44,41
7.7549334,7.8799334,72,46,41
7.885368,8.010368,71,48,41
8.015802,8.140802,69,50,41
8.146237,8.271237,67,52,41
8.276672,8.401672,71,54,41
8.407107,8.532107,74,56,41
8.537541,8.662541,74,58,41
8.667976,8.792976,74,60,41
8.798411,8.923411,74,62,41
8.928846,9.053846,71,64,41
9.05928,9.18428,71,66,41
9.189715,9.314715,69,68,41
9.32015,9.44515,69,71,41
9.450585,9.575585,69,74,41
9.581019,9.706019,69,77,41
9.711454,9.831246,67,80,41
9.836454,9.956246,71,80,41
9.961454,10.081246,74,72,41
10.086454,10.206246,74,64,41
10.211454,10.331246,74,56,41
10.336454,10.456246,74,48,41
10.461454,10.716889,72,40,41
10.722324,10.847324,52,40,41
10.852758,10.977758,55,46,41
10.983193,11.108193,60,52,41
11.113628,11.238628,64,58,41
11.244063,11.511108,64,64,41
11.51679,11.647471,48,76,41
11.653153,11.783835,52,82,41
11.789517,11.920198,55,88,41
11.92588,12.056562,60,94,41
12.062244,12.329289,60,100,41
12.607698,12.874743,50,100,41
12.880425,13.33497,50,87,41
13.425879,13.6929245,50,60,41
13.698606,14.153151,50,60,41
14.24406,14.511106,50,47,41
14.516787,14.992977,50,40,41
15.088215,15.367976,50,40,41
15.373929,15.850119,50,40,41
15.945357,16.225119,50,40,41
16.231071,16.731071,50,40,41
17.131071,17.585615,55,60,41
17.676525,17.943571,55,60,41
17.949251,18.403797,55,60,41
18.494705,18.761751,55,60,41
18.767433,19.221977,55,60,41
19.312887,19.579931,55,60,41
19.585613,20.04016,55,60,41
20.131067,20.398113,55,60,41
20.403795,20.85834,55,60,41
20.94925,21.216293,55,60,41
21.221975,21.676521,57,60,41
21.76743,22.034475,50,60,41
22.040157,22.494701,50,60,41
22.585611,22.852655,62,60,41
22.858337,23.312883,62,60,41
23.403791,23.670837,50,60,41
23.67652,24.131063,62,60,41
24.221973,24.489017,50,60,41
24.4947,24.949245,50,60,41
25.040154,25.3072,59,60,41
25.312881,25.767426,57,60,41
25.858335,26.12538,57,60,41
26.131062,26.585608,57,60,41
26.676516,26.943562,52,60,41
26.949244,27.22197,54,60,41
27.22197,27.494698,55,61,41
27.494698,27.761742,57,62,41
27.767424,28.040152,62,63,41
28.040152,28.312878,59,64,41
28.312878,28.579924,55,65,41
28.585606,29.04015,55,66,41
29.13106,29.398104,55,68,41
29.403786,29.676514,55,69,41
29.676514,29.94924,59,70,41
29.94924,30.216286,59,71,41
30.221968,30.676512,59,72,41
30.767422,31.034466,59,74,41
31.040148,31.312876,57,75,41
31.312876,31.57992,61,76,41
31.585602,31.852648,61,78,41
31.85833,32.312874,61,80,41
32.40378,32.67083,61,80,41
32.67651,32.949238,59,80,41
32.949238,33.21628,62,80,41
33.221966,33.48901,62,80,41
33.49469,33.949238,61,80,41
34.040146,34.30719,61,80,41
34.312874,34.767418,62,80,41
34.858326,35.12537,54,72,41
35.131054,35.607243,57,68,41
35.70248,35.982243,57,59,41
35.988194,36.788197,57,79,41
36.888195,37.615467,69,40,41
37.706375,37.83706,74,40,41
37.979103,38.433647,69,40,41
38.524555,38.65524,70,40,41
38.797283,39.251827,69,40,41
39.34274,39.41092,69,40,41
39.41092,39.479103,70,40,41
39.479103,39.615463,69,40,41
39.615463,39.88819,65,40,41
39.88819,40.155235,67,40,41
40.16092,40.615463,69,40,41
41.79728,42.52455,62,40,41
42.615463,42.746143,57,57,41
42.888187,43.342735,69,62,41
43.433643,43.564323,62,74,41
43.70637,44.160915,69,80,41
56.764637,57.037365,55,40,41
57.037365,57.310093,57,40,41
57.310093,57.577137,59,60,41
57.58282,58.401,60,80,41
58.401,59.128273,59,60,41
59.21918,59.49191,57,40,41
59.49191,59.764633,59,40,41
59.764633,60.03168,57,40,41
60.03736,60.582817,55,40,41
60.582817,60.84986,59,40,41
60.85554,61.582813,62,40,41
61.673725,61.94645,59,40,41
61.94645,62.219177,60,40,41
62.219177,62.48622,62,40,41
62.491905,63.310085,64,40,41
63.310085,64.03736,62,40,41
64.128265,64.40099,60,40,41
64.40099,64.67372,62,42,41
64.67372,64.940765,60,44,41
64.94645,65.491905,59,46,41
65.491905,65.75895,55,50,41
65.764626,66.4919,50,52,41
66.58281,67.03735,60,58,41
67.128265,67.39531,57,62,41
67.40099,67.85554,52,64,41
67.94644,68.21349,52,68,41
68.21917,68.67371,62,70,41
68.764626,69.03167,59,75,41
69.03735,69.51354,64,77,41
69.60878,69.88854,55,82,41
69.89449,70.39449,66,84,41
70.49449,70.788246,59,89,41
70.794495,71.32081,67,91,41
71.42607,71.73528,61,97,41
71.74186,71.87254,66,100,41
71.87823,72.0089,66,100,41
72.01459,72.14527,66,92,41
72.150955,72.28163,66,84,41
72.287315,72.418,66,76,41
72.42368,72.55436,66,68,41
72.56004,72.69073,61,60,41
72.6964,72.82709,61,60,41
72.83277,72.963455,66,60,41
72.96913,73.099815,66,60,41
73.1055,73.236176,66,60,41
73.24186,73.37254,66,60,41
73.37823,73.5089,59,60,41
73.51459,73.64527,59,57,41
73.65095,73.78163,66,54,41
73.787315,73.918,66,51,41
73.923676,74.05436,66,48,41
74.06004,74.19072,66,44,41
74.1964,74.32709,70,40,41
74.33277,74.46345,68,40,41
74.46913,74.599815,66,40,41
74.6055,74.736176,64,40,41
74.74186,74.87254,63,40,41
74.87822,75.0089,61,40,41
75.01459,75.15095,59,40,41
75.287315,75.423676,59,40,41
75.83276,75.96345,56,40,41
75.96913,76.099815,58,40,41
76.10549,76.236176,59,40,41
76.24186,76.372536,61,40,41
76.37822,76.5089,63,40,41
76.51459,76.64526,64,40,41
76.65095,76.78731,66,40,41
76.923676,77.060036,66,43,41
77.46913,77.59981,67,49,41
77.60549,77.736176,67,50,41
77.74186,77.872536,66,51,41
77.87822,78.0089,67,52,41
78.01458,78.14526,69,53,41
78.15095,78.28163,67,54,41
78.28731,78.423676,66,55,41
78.560036,78.6964,66,58,41
79.10549,79.24239,71,64,41
79.248344,79.385254,71,66,41
79.391205,79.52811,70,68,41
79.534065,79.67097,71,70,41
79.67692,79.81382,73,72,41
79.81978,79.95668,71,74,41
79.96263,80.106384,70,76,41
80.11263,80.256386,68,78,41
80.262634,80.40638,66,80,41
80.412636,80.55638,64,82,41
80.56263,80.70638,62,84,41
80.71263,80.856384,61,86,41
80.86263,81.02053,62,88,41
81.17842,81.33632,59,92,41
81.49421,81.65211,71,96,41
81.81,82.07704,64,100,41
104.71907,104.85543,69,92,41
104.85543,104.9918,67,92,41
104.9918,105.12816,66,92,41
105.12816,105.26452,64,92,41
105.26452,105.40089,62,92,41
105.40089,105.53725,61,92,41
105.53725,105.673615,59,92,41
105.673615,105.809975,57,92,41
105.809975,105.94634,55,92,41
105.94634,106.0827,54,92,41
106.0827,106.21906,52,92,41
106.21906,106.34975,50,92,41
106.35543,106.622475,49,92,41
107.173615,107.71906,48,92,41
107.71906,108.809975,48,75,41
108.809975,111.258835,48,60,41
111.26452,113.30997,48,60,41
113.71906,113.85542,74,45,41
113.85542,113.99178,72,45,41
113.99178,114.12815,71,45,41
114.12815,114.26451,69,45,41
114.26451,114.40088,67,45,41
114.40088,114.531555,66,45,41
114.53724,114.67361,72,45,41
114.67361,114.80997,71,45,41
114.80997,114.94633,69,45,41
114.94633,115.082695,67,45,41
115.082695,115.219055,66,45,41
115.219055,115.35542,64,45,41
115.35542,115.49178,62,45,41
115.49178,115.62815,60,45,41
115.62815,115.76451,59,45,41
115.76451,115.90087,57,45,41
115.90087,116.03724,55,45,41
116.03724,116.16792,54,45,41
116.1736,116.30997,71,45,41
116.30997,116.44633,69,47,41
116.44633,116.582695,67,49,41
116.582695,116.719055,66,51,41
116.719055,116.85542,64,53,41
116.85542,116.9861,62,55,41
116.99178,117.12814,69,57,41
117.12814,117.26451,67,59,41
117.26451,117.40087,66,62,41
117.40087,117.53724,64,65,41
117.53724,117.6736,62,68,41
117.6736,117.80997,61,71,41
117.80997,117.94633,59,74,41
117.94633,118.08269,57,77,41
118.08269,118.219055,55,80,41
118.219055,118.355415,54,83,41
118.355415,118.49178,52,86,41
118.49178,118.62246,50,89,41
118.62814,118.89519,79,92,41
118.90087,119.167915,76,92,41
119.1736,119.44064,73,92,41
119.44633,119.71337,69,92,41
119.719055,119.9861,66,92,41
119.99178,120.25883,62,92,41
120.2645,120.531555,59,92,41
120.53723,120.804276,55,92,41
120.80996,121.077,52,92,41
121.08269,121.34973,49,92,41
121.90087,122.167915,48,92,41
123.53723,124.95985,57,60,41
123.53723,124.95985,64,60,41
127.00866,128.50241,72,45,41
128.80865,128.93935,69,40,41
128.94502,129.0757,69,40,41
129.08139,129.21207,69,40,41
129.21774,129.34843,69,40,41
129.35411,129.48479,69,40,41
129.49048,129.62115,69,40,41
129.62683,129.75752,64,40,41
129.7632,129.89389,64,40,41
129.89957,130.03024,69,40,41
130.03593,130.16661,69,40,41
130.17229,130.30298,69,40,41
130.30865,130.43933,69,40,41
130.44502,130.5757,62,40,41
130.58138,130.71207,62,40,41
130.71774,130.84843,69,40,41
130.85411,130.98479,69,40,41
130.99048,131.12115,69,40,41
131.12683,131.25752,69,40,41
131.2632,131.53024,69,40,41
132.35411,132.48479,74,40,41
132.49048,132.62115,72,40,41
132.62683,132.75752,71,40,41
132.7632,132.89388,69,40,41
132.89957,133.03024,67,40,41
133.03592,133.16661,71,40,41
133.17229,133.30296,74,40,41
133.30865,133.43933,74,40,41
133.44502,133.5757,74,40,41
133.58138,133.71207,74,40,41
133.71774,133.84274,71,40,41
133.84818,133.97318,67,42,41
133.9786,134.1036,74,44,41
134.10905,134.23405,72,46,41
134.23949,134.36449,71,48,41
134.36992,134.49492,69,50,41
134.50035,134.62535,67,52,41
134.63078,134.75578,71,54,41
134.76122,134.88622,74,56,41
134.89166,135.01666,74,58,41
135.0221,135.1471,74,60,41
135.15253,135.27753,74,62,41
135.28296,135.40796,71,64,41
135.41339,135.53839,71,66,41
135.54382,135.66882,69,68,41
135.67427,135.79927,69,71,41
135.8047,135.9297,69,74,41
135.93513,136.06013,69,77,41
136.06557,136.18536,67,80,41
136.19057,136.31036,71,80,41
136.31557,136.43536,74,72,41
136.44057,136.56036,74,64,41
136.56557,136.68536,74,56,41
136.69057,136.81036,74,48,41
136.81557,137.071,72,40,41
137.07643,137.20143,52,40,41
137.20688,137.33188,55,46,41
137.33731,137.46231,60,52,41
137.46774,137.59274,64,58,41
137.59818,137.86522,64,64,41
137.87091,138.00159,48,76,41
138.00726,138.13795,52,82,41
138.14363,138.2743,55,88,41
138.28,138.41068,60,94,41
138.41635,138.68341,60,100,41
138.9618,139.22885,50,100,41
139.23454,139.68909,50,87,41
139.78,140.04704,50,60,41
140.05272,140.50726,50,60,41
140.59818,140.86522,50,47,41
140.8709,141.34709,50,40,41
141.44232,141.72209,50,40,41
141.72804,142.20424,50,40,41
142.29947,142.57924,50,40,41
142.58519,143.08519,50,40,41
143.48518,143.93973,55,60,41
144.03064,144.29768,55,60,41
144.30336,144.7579,55,60,41
144.84882,145.11586,55,60,41
145.12155,145.5761,55,60,41
145.667,145.93405,55,60,41
145.93973,146.39427,55,60,41
146.48518,146.75223,55,60,41
146.7579,147.21245,55,60,41
147.30336,147.5704,55,60,41
147.5761,148.03064,57,60,41
148.12155,148.3886,50,60,41
148.39427,148.84882,50,60,41
148.93973,149.20677,62,60,41
149.21245,149.66699,62,60,41
149.7579,150.02495,50,60,41
150.03064,150.48518,62,60,41
150.57608,150.84314,50,60,41
150.84882,151.30336,50,60,41
151.39427,151.66132,59,60,41
151.66699,152.12154,57,60,41
152.21245,152.47949,57,60,41
152.48517,152.93973,57,60,41
153.03062,153.29767,52,60,41
153.30336,153.57608,54,60,41
153.57608,153.84882,55,61,41
153.84882,154.11586,57,62,41
154.12154,154.39427,62,63,41
154.39427,154.66699,59,64,41
154.66699,154.93404,55,65,41
154.93971,155.39426,55,66,41
155.48517,155.75221,55,68,41
155.7579,156.03062,55,69,41
156.03062,156.30336,59,70,41
156.30336,156.5704,59,71,41
156.57608,157.03062,59,72,41
157.12154,157.38858,59,74,41
157.39426,157.66699,57,75,41
157.66699,157.93404,61,76,41
157.93971,158.20676,61,78,41
158.21245,158.66699,61,80,41
158.7579,159.02495,61,80,41
159.03062,159.30334,59,80,41
159.30334,159.57039,62,80,41
159.57608,159.84312,62,80,41
159.8488,160.30334,61,80,41
160.39426,160.6613,61,80,41
160.66699,161.12154,62,80,41
161.21243,161.47949,54,72,41
161.48517,161.96135,57,68,41
162.0566,162.33635,57,59,41
162.34232,163.1423,57,79,41
163.24231,163.96957,69,40,41
164.06049,164.19118,74,40,41
164.33322,164.78777,69,40,41
164.87868,165.00935,70,40,41
165.1514,165.60594,69,40,41
165.69685,165.76503,69,40,41
165.76503,165.83322,70,40,41
165.83322,165.96957,69,40,41
165.96957,166.24231,65,40,41
166.24231,166.50935,67,40,41
166.51503,166.96957,69,40,41
168.1514,168.87866,62,40,41
168.96957,169.10025,57,57,41
169.24231,169.69685,69,62,41
169.78775,169.91844,62,74,41
170.06049,170.51503,69,80,41
183.11876,183.39148,55,40,41
183.39148,183.6642,57,40,41
183.6642,183.93124,59,60,41
183.93694,184.75511,60,80,41
184.75511,185.48239,59,60,41
185.57329,185.84602,57,40,41
185.84602,186.11874,59,40,41
186.11874,186.38579,57,40,41
186.39148,186.93694,55,40,41
186.93694,187.20398,59,40,41
187.20966,187.93694,62,40,41
188.02783,188.30057,59,40,41
188.30057,188.57329,60,40,41
188.57329,188.84033,62,40,41
188.84602,189.6642,64,40,41
189.6642,190.39148,62,40,41
190.48238,190.75511,60,40,41
190.75511,191.02783,62,42,41
191.02783,191.29488,60,44,41
191.30057,191.84602,59,46,41
191.84602,192.11307,55,50,41
192.11874,192.84601,50,52,41
192.93692,193.39146,60,58,41
193.48238,193.74942,57,62,41
193.75511,194.20966,52,64,41
194.30055,194.56761,52,68,41
194.57329,195.02783,62,70,41
195.11874,195.38579,59,75,41
195.39146,195.86766,64,77,41
195.96289,196.24266,55,82,41
196.24861,196.74861,66,84,41
196.8486,197.14236,59,89,41
197.1486,197.67493,67,91,41
197.78018,198.0894,61,97,41
198.09598,198.22665,66,100,41
198.23235,198.36302,66,100,41
198.3687,198.49939,66,92,41
198.50507,198.63574,66,84,41
198.64143,198.77211,66,76,41
198.77779,198.90848,66,68,41
198.91415,199.04485,61,60,41
199.05052,199.1812,61,60,41
199.18689,199.31757,66,60,41
199.32324,199.45393,66,60,41
199.45961,199.59029,66,60,41
199.59598,199.72665,66,60,41
199.73235,199.86302,59,60,41
199.8687,199.99939,59,57,41
200.00507,200.13574,66,54,41
200.14143,200.27211,66,51,41
200.27779,200.40848,66,48,41
200.41415,200.54483,66,44,41
200.55052,200.6812,70,40,41
200.68689,200.81757,68,40,41
200.82324,200.95393,66,40,41
200.95961,201.09029,64,40,41
201.09598,201.22665,63,40,41
201.23233,201.36302,61,40,41
201.3687,201.50507,59,40,41
201.64143,201.77779,59,40,41
202.18687,202.31757,56,40,41
202.32324,202.45393,58,40,41
202.45961,202.59029,59,40,41
202.59598,202.72665,61,40,41
202.73233,202.86302,63,40,41
202.8687,202.99937,64,40,41
203.00507,203.14142,66,40,41
203.27779,203.41415,66,43,41
203.82324,203.95392,67,49,41
203.95961,204.09029,67,50,41
204.09596,204.22665,66,51,41
204.23233,204.36302,67,52,41
204.3687,204.49937,69,53,41
204.50507,204.63574,67,54,41
204.64142,204.77779,66,55,41
204.91415,205.05052,66,58,41
205.45961,205.59651,71,64,41
205.60246,205.73936,71,66,41
205.74532,205.88222,70,68,41
205.88818,206.02509,71,70,41
206.03104,206.16794,73,72,41
206.17389,206.31079,71,74,41
206.31674,206.4605,70,76,41
206.46675,206.6105,68,78,41
206.61674,206.7605,66,80,41
206.76675,206.91049,64,82,41
206.91675,207.0605,62,84,41
207.06674,207.2105,61,86,41
207.21675,207.37465,62,88,41
207.53253,207.69043,59,92,41
207.84833,208.00623,71,96,41
208.16411,208.43115,64,100,41
231.07318,231.20955,69,92,41
231.20955,231.3459,67,92,41
231.3459,231.48227,66,92,41
231.48227,231.61864,64,92,41
231.61864,231.755,62,92,41
231.755,231.89136,61,92,41
231.89136,232.02773,59,92,41
232.02773,232.1641,57,92,41
232.1641,232.30046,55,92,41
232.30046,232.43681,54,92,41
232.43681,232.57318,52,92,41
232.57318,232.70386,50,92,41
232.70955,232.9766,49,92,41
233.52773,234.07318,48,92,41
234.07318,235.1641,48,75,41
235.1641,237.61295,48,60,41
237.61864,239.66408,48,60,41
240.07317,240.20953,74,45,41
240.20953,240.3459,72,45,41
240.3459,240.48227,71,45,41
240.48227,240.61862,69,45,41
240.61862,240.75499,67,45,41
240.75499,240.88567,66,45,41
240.89136,241.02771,72,45,41
241.02771,241.16408,71,45,41
241.16408,241.30045,69,45,41
241.30045,241.43681,67,45,41
241.43681,241.57317,66,45,41
241.57317,241.70953,64,45,41
241.70953,241.8459,62,45,41
241.8459,241.98227,60,45,41
241.98227,242.11862,59,45,41
242.11862,242.25499,57,45,41
242.25499,242.39136,55,45,41
242.39136,242.52203,54,45,41
242.52771,242.66408,71,45,41
242.66408,242.80045,69,47,41
242.80045,242.93681,67,49,41
242.93681,243.07317,66,51,41
243.07317,243.20953,64,53,41
243.20953,243.34021,62,55,41
243.3459,243.48225,69,57,41
243.48225,243.61862,67,59,41
243.61862,243.75499,66,62,41
243.75499,243.89136,64,65,41
243.89136,244.02771,62,68,41
244.02771,244.16408,61,71,41
244.16408,244.30045,59,74,41
244.30045,244.4368,57,77,41
244.4368,244.57317,55,80,41
244.57317,244.70953,54,83,41
244.70953,244.8459,52,86,41
244.8459,244.97658,50,89,41
244.98225,245.2493,79,92,41
245.25499,245.52203,76,92,41
245.52771,245.79475,73,92,41
245.80045,246.06749,69,92,41
246.07317,246.34021,66,92,41
246.3459,246.61295,62,92,41
246.61862,246.88567,59,92,41
246.89134,247.15839,55,92,41
247.16408,247.43112,52,92,41
247.4368,247.70384,49,92,41
248.25499,248.52203,48,92,41
249.89134,251.31396,57,60,41
249.89134,251.31396,64,60,41
253.36278,255.62982,64,45,41
253.36278,255.62982,72,45,41
265.18094,265.3116,64,45,41
265.3173,265.448,64,45,41
265.45367,265.58435,64,45,41
265.59003,265.7207,64,45,41
265.7264,265.8571,64,45,41
265.86276,265.99344,64,45,41
265.9991,266.1298,69,45,41
266.1355,266.26617,69,45,41
266.27185,266.40253,64,45,41
266.4082,266.53888,64,45,41
266.5446,266.67526,64,45,41
266.68094,266.8116,64,45,41
266.8173,266.948,66,45,41
266.95367,267.08435,66,45,41
267.09003,267.2207,64,45,41
267.22638,267.3571,64,45,41
267.36276,267.49344,64,45,41
267.4991,267.6298,64,45,41
267.6355,267.76617,62,45,41
267.77185,267.90253,60,45,41
267.9082,268.03888,59,45,41
268.0446,268.17526,60,45,41
268.18094,268.3116,62,45,41
268.3173,268.448,64,45,41
268.45367,268.58435,60,45,41
268.59003,268.7207,59,45,41
268.72638,268.8571,57,45,41
268.86276,268.99344,59,45,41
268.9991,269.1298,60,45,41
269.13547,269.26617,64,45,41
269.27185,269.40253,64,45,41
269.4082,269.53888,62,45,41
269.5446,269.67526,61,45,41
269.68094,269.8116,62,45,41
269.8173,269.94797,64,45,41
269.95367,270.08435,66,45,41
270.09003,270.2207,62,45,41
270.22638,270.3571,61,45,41
270.36276,270.49344,59,45,41
270.4991,270.6298,61,45,41
270.63547,270.76617,62,45,41
270.77185,270.90253,66,45,41
270.9082,271.03888,67,45,41
271.0446,271.17526,66,45,41
271.18094,271.3116,64,45,41
271.3173,271.44797,66,45,41
271.45367,271.58435,67,45,41
271.59003,271.7207,69,45,41
271.72638,271.85706,67,45,41
271.86276,271.99344,66,45,41
271.9991,272.1298,64,45,41
272.13547,272.26617,66,45,41
272.27185,272.40253,67,45,41
272.4082,272.53888,69,45,41
272.54456,272.8116,67,45,41
272.8173,272.94797,52,47,41
272.95367,273.08435,54,48,41
273.09003,273.2207,55,49,41
273.22638,273.35706,57,50,41
273.36276,273.49344,59,51,41
273.4991,273.6298,57,52,41
273.63547,273.76617,55,53,41
273.77185,273.90253,57,54,41
273.9082,274.03888,59,55,41
274.04456,274.17526,61,56,41
274.18094,274.3116,62,57,41
274.3173,274.44797,61,58,41
274.45364,274.58435,59,59,41
274.59003,274.7207,61,60,41
274.72638,274.85706,62,61,41
274.86276,274.99344,64,62,41
274.9991,275.13602,66,63,41
275.14197,275.27887,64,64,41
275.28482,275.42172,62,65,41
275.42767,275.56458,64,66,41
275.57053,275.70746,66,67,41
275.7134,275.8503,68,68,41
275.85626,276.0,69,69,41
276.00626,276.15,68,70,41
276.15625,276.30002,66,72,41
276.30624,276.45,68,74,41
276.45627,276.6,69,76,41
276.60626,276.75,71,78,41
276.75626,276.90756,69,80,41
276.91415,277.06546,68,82,41
277.07205,277.22336,66,84,41
277.22995,277.38126,68,86,41
277.38785,277.53915,69,88,41
277.54572,277.69705,71,90,41
277.7036,277.8343,73,92,41
277.84,277.97067,73,92,41
277.97635,278.10703,73,92,41
278.1127,278.2434,73,92,41
278.24908,278.37976,73,92,41
278.38544,278.5161,73,92,41
278.5218,278.65817,66,92,41
278.79453,279.24908,66,92,41
279.34,279.47635,66,92,41
279.6127,280.06726,66,92,41
280.15817,280.29453,62,92,41
280.43088,280.88544,63,92,41
280.97635,281.1127,64,92,41
281.24908,281.7036,64,92,41
281.79453,281.93088,64,92,41
282.06726,282.5218,64,92,41
282.6127,282.74908,60,92,41
282.88544,283.33997,61,92,41
283.43088,283.56726,62,92,41
283.7036,284.15817,62,92,41
284.24908,284.38544,61,92,41
284.5218,284.97635,62,92,41
285.06726,285.2036,57,92,41
285.06726,285.2036,69,92,41
285.33997,285.79453,57,92,41
285.33997,285.79453,69,92,41
285.88544,286.0218,70,92,41
286.15817,286.6127,69,92,41
286.7036,286.83997,73,92,41
286.97635,287.43088,74,92,41
287.5218,287.78885,75,92,41
287.79453,288.24905,76,92,41
288.33997,288.60703,77,92,41
288.6127,289.06726,76,92,41
289.15814,289.4252,78,92,41
289.43088,289.88544,76,92,41
289.97635,290.24338,69,92,41
289.97635,290.24338,78,92,41
290.79453,290.9252,69,60,41
290.93088,291.06155,69,60,41
291.06723,291.19794,69,60,41
291.2036,291.3343,69,60,41
291.33997,291.47064,69,60,41
291.47635,291.60703,69,60,41
292.43088,292.56155,55,60,41
292.56723,292.69794,55,60,41
292.7036,292.8343,55,60,41
292.83997,292.97064,55,60,41
292.97635,293.10703,55,60,41
293.1127,293.24338,55,60,41
294.06723,294.19794,54,60,41
294.2036,294.3343,54,60,41
294.33997,294.47064,54,60,41
294.47632,294.60703,54,60,41
294.6127,294.74338,54,60,41
294.74905,294.87973,54,60,41
295.7036,295.8343,63,60,41
295.83997,295.97064,63,60,41
295.97632,296.10703,63,60,41
296.1127,296.24338,63,60,41
296.24905,296.37973,63,60,41
296.3854,296.5161,63,60,41
297.33997,297.47687,50,57,41
297.48282,297.61972,50,57,41
297.62567,297.76257,50,57,41
297.76852,297.90546,50,57,41
297.9114,298.0483,50,57,41
298.05426,298.19116,50,57,41
299.0971,299.2484,49,51,41
299.255,299.4063,49,50,41
299.4129,299.5642,49,49,41
299.5708,299.7221,49,48,41
299.7287,299.88,49,47,41
299.88657,300.0379,49,46,41
300.04446,300.3172,54,45,41
300.3172,300.58994,55,45,41
300.58994,300.86267,57,45,41
300.86267,301.68085,58,45,41
301.68085,302.4081,57,45,41
302.49902,302.77176,55,45,41
302.77176,303.04446,57,45,41
303.04446,303.3172,55,45,41
303.3172,303.58994,54,45,41
303.58994,303.86264,57,45,41
303.86264,304.1297,62,45,41
304.13538,305.68085,66,45,41
305.77173,306.3172,63,45,41
306.3172,306.58994,65,65,41
306.58994,306.86264,66,75,41
306.86264,307.13538,65,75,41
307.13538,307.40244,63,60,41
307.4081,307.68082,62,45,41
307.68082,307.95355,63,45,41
307.95355,308.2263,65,45,41
308.2263,309.04446,67,45,41
309.04446,309.77173,65,45,41
309.86264,310.13538,63,45,41
310.13538,310.4081,65,45,41
310.4081,310.68082,63,45,41
310.68082,310.95355,62,45,41
310.95355,311.2263,65,45,41
311.2263,311.49902,70,45,41
311.49902,313.04446,74,45,41
313.13538,313.68082,71,45,41
313.68082,313.95355,73,65,41
313.95355,314.2263,74,75,41
314.2263,314.499,73,75,41
314.499,314.76605,71,60,41
314.77173,315.2263,69,45,41
315.5899,316.13538,69,45,41
316.13538,316.40808,70,47,41
316.40808,316.68082,72,48,41
316.68082,316.95355,70,49,41
316.95355,317.49332,69,50,41
317.499,317.77173,62,52,41
317.77173,318.04446,66,53,41
318.04446,318.86264,67,78,41
318.86264,319.13538,65,58,41
319.13538,319.40808,63,59,41
319.40808,319.94788,62,60,41
319.95355,320.2263,55,62,41
320.2263,320.499,59,63,41
320.499,321.5899,60,96,41
321.5899,321.86264,58,71,41
321.86264,322.12967,56,73,41
322.13538,322.42108,55,75,41
322.42108,322.7068,55,75,41
322.7068,322.9925,59,75,41
322.9925,324.20502,60,107,41
324.20502,324.51752,58,75,41
324.51752,324.8235,56,68,41
324.83002,325.28455,55,60,41
325.37546,325.64252,55,60,41
325.6482,326.10272,55,60,41
326.19363,326.4607,55,60,41
326.46637,326.9209,55,60,41
327.0118,327.27887,55,60,41
327.28455,327.7391,55,60,41
327.83,328.09705,55,60,41
328.10272,328.55728,55,60,41
328.6482,328.91522,55,60,41
328.9209,329.37546,57,60,41
329.46637,329.7334,50,60,41
329.7391,330.19363,50,60,41
330.28455,330.55157,62,60,41
330.55728,331.0118,62,60,41
331.10272,331.36978,50,60,41
331.37546,331.83,62,60,41
331.9209,332.18796,50,60,41
332.19363,332.64816,50,60,41
332.73907,333.00613,59,60,41
333.0118,333.46637,57,60,41
333.55728,333.8243,57,60,41
333.83,334.28455,57,60,41
334.37546,334.6425,52,61,41
334.64816,334.9209,54,61,41
334.9209,335.19363,55,61,41
335.19363,335.46637,57,61,41
335.46637,335.73907,62,61,41
335.73907,336.0118,59,61,41
336.0118,336.27887,55,61,41
336.28455,336.73907,55,61,41
336.83,337.09705,55,62,41
337.10272,337.37546,55,62,41
337.37546,337.6425,59,62,41
337.64816,337.91522,59,62,41
337.9209,338.37546,59,62,41
338.46634,338.7334,59,63,41
338.73907,339.0118,57,63,41
339.0118,339.27884,61,64,41
339.28455,339.55157,61,65,41
339.55725,340.0118,61,66,41
340.10272,340.36975,61,68,41
340.37546,340.64816,59,69,41
340.64816,340.91522,62,70,41
340.9209,341.18793,62,71,41
341.19363,341.64816,61,72,41
341.73907,342.00613,61,74,41
342.0118,342.46634,62,75,41
342.55725,342.8243,54,75,41
342.83,343.28455,57,75,41
343.37543,343.6425,57,75,41
343.64816,344.37543,57,75,41
344.46634,345.19363,69,60,41
345.28452,345.41522,74,60,41
345.55725,346.0118,69,60,41
346.10272,346.2334,70,61,41
346.37543,346.83,69,61,41
346.9209,346.98907,69,62,41
346.98907,347.05725,70,62,41
347.05725,347.1936,69,62,41
347.1936,347.46634,65,62,41
347.46634,347.7334,67,62,41
347.73907,348.1936,69,62,41
349.37543,350.1027,62,68,41
350.1936,350.3243,57,71,41
350.46634,350.9209,69,71,41
351.0118,351.1425,62,73,41
351.28452,351.73907,69,75,41
364.3428,364.6155,55,60,41
364.6155,364.88824,57,60,41
364.88824,365.1553,59,60,41
365.16098,365.97916,60,60,41
365.97916,366.70642,59,60,41
366.79733,367.07007,57,60,41
367.07007,367.34277,59,60,41
367.34277,367.60983,57,60,41
367.6155,368.16098,55,60,41
368.16098,368.428,59,60,41
368.4337,369.16098,62,60,41
369.2519,369.5246,59,60,41
369.5246,369.79733,60,60,41
369.79733,370.07007,62,60,41
370.07007,370.88824,64,60,41
370.88824,371.6155,62,60,41
371.70642,371.97916,60,60,41
371.97916,372.25186,62,60,41
372.25186,372.51892,60,60,41
372.5246,373.07007,59,60,41
373.07007,373.3371,55,60,41
373.34277,374.07007,50,60,41
374.16095,374.70642,60,60,41
374.70642,374.97345,57,63,41
374.97916,375.4337,52,64,41
375.5246,375.79166,52,67,41
375.79733,376.34277,62,68,41
376.34277,376.60983,59,72,41
376.6155,377.18692,64,74,41
377.18692,377.4667,55,78,41
377.47266,378.07266,66,80,41
378.07266,378.3664,59,84,41
378.37265,378.68515,67,86,41
378.68515,378.99115,59,88,41
378.99765,379.30365,57,90,41
378.99765,379.30365,69,90,41
379.31015,379.57718,57,92,41
379.31015,379.57718,66,92,41
381.49197,381.759,62,92,41
381.76468,382.31015,74,92,41
382.31015,382.57718,67,92,41
382.5829,383.12833,72,92,41
383.12833,383.3954,66,92,41
383.40106,383.9465,71,92,41
383.9465,384.21356,64,92,41
384.21924,384.49197,69,92,41
384.49197,384.76468,62,92,41
384.76468,385.03174,69,92,41
385.0374,385.31015,71,92,41
385.31015,385.58286,64,92,41
385.58286,385.8499,71,92,41
385.8556,386.12833,72,92,41
386.12833,386.58286,76,92,41
386.67377,387.21924,76,92,41
387.21924,387.48627,69,92,41
387.49194,388.0374,74,92,41
388.0374,388.30444,68,92,41
388.31015,388.8556,72,92,41
388.8556,389.12265,66,92,41
389.12833,389.39536,71,92,41
389.40106,389.6681,64,89,41
389.67377,389.94083,71,86,41
389.9465,390.21353,73,83,41
390.21924,390.48627,74,80,41
390.49194,390.759,76,76,41
390.76468,391.21924,74,72,41
396.49194,397.0374,79,60,41
397.0374,397.30444,72,60,41
397.31012,397.8556,77,60,41
397.8556,398.12262,71,60,41
398.9465,399.49194,76,60,41
399.49194,399.759,69,64,41
399.76468,400.31012,74,66,41
400.31012,400.57718,67,70,41
403.03738,403.1681,64,92,41
403.17377,403.30444,62,92,41
403.31012,403.4408,60,92,41
403.4465,403.57718,59,92,41
403.58286,403.71353,57,92,41
403.7192,403.84988,55,92,41
403.8556,404.12262,54,92,41
404.67377,404.9408,53,92,41
406.31012,406.58286,69,60,41
406.58286,406.85556,62,60,41
406.85556,407.1283,69,60,41
407.1283,407.85556,71,60,41
407.94647,408.2192,69,60,41
408.2192,408.49194,62,60,41
408.49194,408.76468,69,60,41
408.76468,409.49194,71,60,41
409.58286,409.85556,69,76,41
409.85556,410.1283,62,81,41
410.1283,410.39536,69,86,41
410.40103,410.67377,68,92,41
410.67377,410.94647,62,92,41
410.94647,411.21353,68,75,41
411.2192,411.67377,67,60,41
412.03738,412.49194,65,60,41
413.67374,414.1283,64,60,41
414.49194,414.94647,62,70,41
416.1283,416.25897,72,92,41
416.26465,416.39532,71,92,41
416.40103,416.5317,69,92,41
416.53738,416.66806,67,92,41
416.67374,416.80444,66,92,41
416.81012,416.9408,64,92,41
416.94647,417.07715,62,92,41
417.08282,417.21353,72,92,41
417.2192,417.34988,71,92,41
417.35556,417.48624,69,92,41
417.4919,417.62262,67,92,41
417.6283,417.75897,66,92,41
417.76465,417.89532,64,92,41
417.90103,418.0317,62,92,41
418.03738,418.16806,60,92,41
418.17374,418.3044,59,92,41
418.31012,418.4408,57,92,41
418.44647,418.57715,55,92,41
418.58282,419.03738,54,92,41
419.40103,420.901,53,92,41
421.03738,421.4919,52,92,41
421.03738,421.4919,57,92,41
421.85556,422.401,51,92,41
421.85556,422.401,60,92,41
422.401,423.35556,51,75,41
422.401,423.35556,60,75,41
424.3101,424.58282,55,60,41
424.58282,424.85556,50,60,41
424.85556,425.1283,55,60,41
425.1283,426.401,62,60,41
426.76465,427.03738,62,60,41
427.03738,427.3101,55,70,41
427.3101,427.58282,62,81,41
427.58282,428.401,63,92,41
428.401,429.12827,63,75,41
429.21918,429.4919,63,60,41
429.4919,429.76465,56,60,41
429.76465,430.03738,63,75,41
430.03738,431.12827,64,92,41
431.12827,431.401,62,60,41
431.401,431.67374,64,60,41
431.67374,431.94647,62,60,41
431.94647,432.21918,64,60,41
432.21918,432.4919,59,60,41
432.4919,432.76465,64,60,41
432.76465,433.03735,57,60,41
433.03735,433.3044,64,60,41
433.3101,434.16724,64,60,41
434.16724,435.06723,62,60,41
435.06723,435.90057,60,75,41
436.00473,436.1354,55,92,41
436.00473,436.2718,63,92,41
436.0729,436.2718,72,92,41
436.27747,436.41382,75,92,41
436.5502,436.68655,72,92,41
436.8229,436.9593,67,92,41
437.09564,437.232,63,87,41
437.36838,437.50473,60,82,41
437.64108,437.77747,55,77,41
437.91382,438.0502,51,72,41
438.18655,438.3229,48,66,41
438.4593,438.732,55,60,41
439.27747,440.77747,55,60,41
440.91382,441.36838,59,60,41
441.732,443.232,58,60,41
443.36838,443.8229,58,60,41
444.18655,445.68655,56,60,41
445.8229,446.09564,64,60,41
446.09564,446.36835,62,60,41
446.36835,446.64108,64,60,41
446.64108,446.91382,62,60,41
446.91382,447.18655,64,60,41
447.18655,447.45926,62,60,41
447.45926,447.732,64,60,41
447.732,448.00473,57,60,41
448.00473,448.27176,64,60,41
448.27747,448.55017,67,60,41
448.55017,448.8229,55,60,41
448.8229,449.09564,67,60,41
449.09564,449.36835,62,60,41
449.36835,449.64108,67,60,41
449.64108,449.91382,60,60,41
449.91382,450.18655,71,60,41
450.18655,450.45926,59,60,41
450.45926,450.732,71,60,41
450.732,451.00473,66,60,41
451.00473,451.27744,71,60,41
451.27744,451.5445,64,60,41
451.55017,451.8229,72,60,41
451.8229,452.09564,67,60,41
452.09564,452.36835,72,61,41
452.36835,452.64108,67,61,41
452.64108,452.91382,71,62,41
452.91382,453.18085,67,63,41
453.18652,453.45926,76,64,41
453.45926,453.732,67,65,41
453.732,454.00473,76,66,41
454.00473,454.27744,67,67,41
454.27744,454.55017,74,68,41
454.55017,454.8229,67,69,41
454.8229,455.0956,72,70,41
455.0956,455.36835,67,71,41
455.36835,455.6354,72,72,41
455.64108,455.9472,67,73,41
455.9472,456.25333,71,74,41
456.25333,456.55945,67,75,41
456.55945,456.87195,76,76,41
456.87195,457.18445,67,77,41
457.18445,457.49695,76,78,41
457.49695,457.8161,67,79,41
457.8161,458.13525,74,80,41
458.13525,458.44775,67,81,41
458.4544,458.7805,73,82,41
458.7805,459.10657,67,83,41
459.10657,459.43265,73,84,41
459.43265,459.766,67,85,41
459.766,460.0993,76,86,41
460.0993,460.43265,67,87,41
460.43265,460.77356,73,88,41
460.77356,461.11447,67,89,41
461.11447,461.44827,73,90,41
461.45538,461.58606,55,92,41
461.45538,461.7224,62,92,41
461.52356,461.7224,74,92,41
486.551,486.67078,55,45,41
486.551,486.79578,65,45,41
486.6135,486.79578,71,45,41
487.301,487.42078,55,92,41
487.301,487.54578,64,92,41
487.3635,487.54578,72,92,41
488.051,488.29578,57,92,41
488.051,488.29578,66,92,41
488.551,488.67078,62,107,41
488.676,488.79578,62,75,41
488.801,488.92078,62,107,41
488.801,488.92078,69,107,41
488.926,489.04578,62,75,41
488.926,489.04578,69,75,41
489.051,489.17078,62,78,41
489.051,489.17078,69,78,41
489.176,489.29578,62,81,41
489.176,489.29578,69,81,41
489.301,489.42078,62,84,41
489.301,489.42078,69,84,41
489.426,489.54578,62,88,41
489.426,489.54578,69,88,41
489.551,489.67078,67,92,41
489.676,489.79578,67,92,41
489.801,489.92078,67,92,41
489.926,490.04578,67,92,41
490.051,490.17078,67,92,41
490.176,490.29578,67,92,41
490.301,490.42078,65,92,41
490.426,490.54578,65,91,41
490.551,490.67078,65,90,41
490.676,490.79578,65,89,41
490.801,490.92078,65,88,41
490.926,491.04578,65,87,41
491.051,491.17078,64,86,41
491.176,491.29578,64,85,41
491.301,491.42078,67,84,41
491.426,491.54578,67,83,41
491.551,491.67078,67,82,41
491.676,491.79578,67,81,41
491.801,491.92078,67,80,41
491.926,492.04578,67,79,41
492.051,492.17078,68,78,41
492.176,492.29578,68,77,41
492.301,492.42078,68,76,41
492.426,492.54578,68,75,41
492.551,492.67078,69,74,41
492.676,492.79578,69,73,41
492.801,492.92078,69,72,41
492.926,493.04578,69,71,41
493.051,493.17078,69,70,41
493.176,493.29578,69,69,41
493.301,493.42078,66,68,41
493.426,493.54578,66,67,41
493.551,493.67078,69,66,41
493.676,493.79578,69,65,41
493.801,493.92078,69,64,41
493.926,494.04578,69,62,41
494.051,494.17078,69,60,41
494.176,494.29578,69,60,41
494.301,494.42078,70,60,41
494.426,494.54578,70,60,41
494.551,494.67078,70,60,41
494.676,494.79578,70,60,41
494.801,494.92078,71,60,41
494.926,495.04578,71,60,41
495.051,495.17078,71,60,41
495.176,495.29578,71,60,41
495.301,495.42078,71,60,41
495.426,495.54578,71,60,41
495.551,495.67078,71,60,41
495.676,495.79578,71,60,41
495.801,495.92078,71,60,41
495.926,496.04578,71,60,41
496.051,496.17078,71,60,41
496.176,496.29578,71,60,41
496.301,496.42078,72,60,41
496.426,496.54578,72,60,41
496.551,496.67078,72,60,41
496.676,496.79578,72,60,41
496.801,496.92078,72,60,41
496.926,497.04578,73,60,41
497.051,497.17078,74,60,41
497.176,497.29578,74,60,41
497.301,497.42078,74,60,41
497.426,497.54578,74,60,41
497.551,497.67078,74,60,41
497.676,497.79578,75,60,41
497.801,497.92078,76,60,41
497.926,498.04578,76,60,41
498.051,498.17078,76,60,41
498.176,498.29578,76,60,41
498.301,498.42078,76,60,41
498.426,498.54578,76,60,41
498.551,498.67078,76,60,41
498.676,498.79578,76,60,41
498.801,498.92078,72,60,41
498.926,499.04578,72,60,41
499.051,499.17078,72,60,41
499.176,499.29578,72,61,41
499.301,499.42078,76,61,41
499.426,499.54578,76,62,41
499.551,499.67078,72,63,41
499.676,499.79578,72,64,41
499.801,499.92078,72,65,41
499.926,500.04578,72,66,41
500.051,500.17078,76,67,41
500.176,500.29578,76,68,41
500.301,500.42078,72,69,41
500.426,500.54578,72,70,41
500.551,500.67078,72,71,41
500.676,500.79578,72,72,41
500.801,500.92078,72,73,41
500.926,501.04578,72,74,41
501.051,501.17078,72,75,41
501.176,501.29578,72,76,41
501.301,501.42078,72,77,41
501.426,501.54578,72,78,41
501.551,501.67078,76,79,41
501.676,501.79578,76,80,41
501.801,501.92078,76,81,41
501.926,502.04578,76,82,41
502.051,502.17078,76,83,41
502.176,502.29578,76,84,41
502.301,502.42078,70,85,41
502.301,502.42078,76,85,41
502.426,502.54578,70,86,41
502.426,502.54578,76,86,41
502.551,502.67078,70,87,41
502.551,502.67078,76,87,41
502.676,502.79578,70,88,41
502.676,502.79578,76,88,41
502.801,502.92078,70,89,41
502.801,502.92078,76,89,41
502.926,503.04578,70,90,41
502.926,503.04578,76,90,41
503.051,503.17078,69,92,41
503.051,503.17078,77,92,41
503.176,503.29578,77,92,41
503.301,503.42078,77,92,41
503.426,503.54578,77,92,41
503.551,503.67078,77,92,41
503.676,503.79578,77,92,41
504.551,504.67078,64,75,41
504.676,504.79578,64,75,41
504.801,504.92078,64,75,41
504.926,505.04578,64,75,41
505.051,505.17078,64,75,41
505.176,505.29578,64,75,41
506.051,506.17078,62,60,41
506.176,506.29578,62,60,41
506.301,506.42078,62,60,41
506.426,506.54578,62,60,41
506.551,506.67078,62,60,41
506.676,506.79578,62,60,41
507.551,507.67078,79,45,41
507.676,507.79578,79,45,41
507.801,507.92078,79,45,41
507.926,508.04578,79,45,41
508.051,508.17078,79,45,41
508.176,508.29578,79,45,41
509.051,509.17078,65,45,41
509.176,509.29578,65,45,41
509.301,509.42078,65,45,41
509.426,509.54578,65,45,41
509.551,509.67078,65,45,41
509.676,509.79578,65,45,41
510.551,510.67078,51,45,41
510.676,510.79578,51,45,41
510.801,510.92078,51,45,41
510.926,511.04578,51,45,41
511.051,511.17078,51,45,41
511.176,511.29578,51,45,41
512.051,512.1708,53,45,41
512.176,512.2958,52,45,41
512.301,512.4208,50,45,41
512.426,512.5458,52,45,41
512.551,512.6708,53,45,41
512.676,512.7958,55,45,41
512.801,512.9208,53,45,41
512.926,513.0458,52,45,41
513.051,513.1708,50,45,41
513.176,513.2958,52,45,41
513.301,513.4208,53,45,41
513.426,513.5458,55,45,41
513.551,513.6708,53,45,41
513.676,513.7958,52,45,41
513.801,513.9208,50,45,41
513.926,514.0458,52,45,41
514.051,514.1708,53,45,41
514.176,514.2958,55,45,41
514.301,514.4208,53,45,41
514.426,514.5458,52,45,41
514.551,514.6708,50,45,41
514.676,514.7958,52,46,41
514.801,514.9208,53,47,41
514.926,515.0458,55,48,41
515.051,515.1708,52,49,41
515.176,515.2958,50,50,41
515.301,515.4208,48,51,41
515.426,515.5458,50,52,41
515.551,515.6708,52,53,41
515.676,515.7958,55,54,41
515.801,515.9208,53,55,41
515.926,516.0458,52,56,41
516.051,516.1708,50,57,41
516.176,516.2958,52,58,41
516.301,516.4208,53,59,41
516.426,516.5458,55,60,41
516.551,516.6708,52,61,41
516.676,516.7958,50,62,41
516.801,516.9208,48,63,41
516.926,517.0458,50,64,41
517.051,517.1708,52,65,41
517.176,517.2958,55,66,41
517.301,517.4208,54,67,41
517.426,517.5458,52,68,41
517.551,517.6708,50,69,41
517.676,517.7958,52,70,41
517.801,517.9208,54,71,41
517.926,518.0458,57,72,41
518.051,518.1708,55,73,41
518.176,518.2958,54,74,41
518.301,518.4208,52,75,41
518.426,518.5458,54,76,41
518.551,518.6708,55,77,41
518.676,518.7958,59,78,41
518.801,518.9208,55,79,41
518.926,519.0458,64,80,41
519.051,519.1708,72,81,41
519.176,519.2958,64,82,41
519.301,519.4208,72,83,41
519.426,519.5458,64,84,41
519.551,519.6708,55,85,41
519.676,519.7958,62,86,41
519.801,519.9208,71,87,41
519.926,520.0458,62,88,41
520.051,520.1708,71,89,41
520.176,520.2958,62,90,41
520.301,520.4208,50,92,41
520.426,520.5458,57,92,41
520.551,520.6708,62,92,41
520.676,520.7958,57,75,41
520.801,520.9208,62,75,41
520.926,521.0458,57,75,41
521.051,521.1708,53,60,41
521.176,521.2958,52,60,41
521.301,521.4208,50,60,41
521.426,521.5458,52,60,41
521.551,521.6708,53,60,41
521.676,521.7958,55,60,41
521.801,521.9208,53,60,41
521.926,522.0458,52,60,41
522.051,522.1708,50,60,41
522.176,522.2958,52,60,41
522.301,522.4208,53,60,41
522.426,522.5458,55,60,41
522.551,522.6708,53,60,41
522.676,522.7958,52,60,41
522.801,522.9208,50,60,41
522.926,523.0458,52,60,41
523.051,523.1708,53,60,41
523.176,523.2958,55,60,41
523.301,523.4208,53,60,41
523.426,523.5458,52,60,41
523.551,523.6708,50,60,41
523.676,523.7958,52,60,41
523.801,523.9208,53,60,41
523.926,524.0458,55,60,41
524.051,524.1708,52,60,41
524.176,524.2958,50,60,41
524.301,524.4208,48,60,41
524.426,524.5458,50,60,41
524.551,524.6708,52,60,41
524.676,524.7958,55,60,41
524.801,524.9208,65,60,41
524.926,525.0458,64,60,41
525.051,525.1708,62,60,41
525.176,525.2958,64,60,41
525.301,525.4208,65,60,41
525.426,525.5458,67,61,41
525.551,525.6708,64,61,41
525.676,525.7958,62,62,41
525.801,525.9208,60,63,41
525.926,526.0458,62,64,41
526.051,526.1708,64,65,41
526.176,526.2958,67,66,41
526.301,526.4208,66,67,41
526.426,526.5458,64,68,41
526.551,526.6708,62,69,41
526.676,526.7958,66,70,41
526.801,526.9208,69,71,41
526.926,527.0458,62,72,41
527.051,527.176,55,73,41
527.176,527.301,62,74,41
527.301,527.426,71,75,41
527.426,527.551,62,76,41
527.551,527.676,71,77,41
527.676,527.7958,62,78,41
527.801,527.926,55,79,41
527.926,528.051,64,80,41
528.051,528.176,72,81,41
528.176,528.301,64,82,41
528.301,528.426,72,83,41
528.426,528.5458,64,84,41
528.551,528.676,55,85,41
528.676,528.801,62,86,41
528.801,528.926,71,87,41
528.926,529.051,62,88,41
529.051,529.176,71,89,41
529.176,529.2958,62,90,41
529.301,529.426,71,92,41
529.426,529.551,62,92,41
529.551,529.676,71,92,41
529.676,529.801,62,75,41
529.801,529.926,69,75,41
529.926,530.0458,62,75,41
530.051,530.176,55,60,41
530.176,530.301,64,60,41
530.301,530.426,72,60,41
530.426,530.551,64,60,41
530.551,530.676,72,60,41
530.676,530.7958,64,60,41
530.801,530.926,55,60,41
530.926,531.051,62,60,41
531.051,531.176,71,60,41
531.176,531.301,62,60,41
531.301,531.426,71,60,41
531.426,531.5458,62,60,41
531.551,531.676,50,60,41
531.676,531.801,60,60,41
531.801,531.926,62,60,41
531.926,532.051,60,60,41
532.051,532.176,62,60,41
532.176,532.2958,60,60,41
532.301,532.426,67,60,41
532.426,532.551,60,61,41
532.551,532.676,67,62,41
532.676,532.801,60,63,41
532.801,532.926,67,64,41
532.926,533.0458,60,66,41
533.051,533.176,67,68,41
533.176,533.301,59,70,41
533.301,533.426,67,72,41
533.426,533.551,59,74,41
533.551,533.676,67,76,41
533.676,533.7958,59,78,41
533.801,533.926,67,80,41
533.926,534.051,64,82,41
534.051,534.176,67,84,41
534.176,534.301,64,86,41
534.301,534.426,67,88,41
534.426,534.5458,64,90,41
534.551,534.6708,62,92,41
534.676,534.7958,62,92,41
534.801,534.9208,62,92,41
534.926,535.0458,62,92,41
535.051,535.1708,62,92,41
535.176,535.2958,62,92,41
535.301,535.4208,67,92,41
535.426,535.5458,67,92,41
535.551,535.6708,62,92,41
535.676,535.7958,62,92,41
535.801,535.9208,62,92,41
535.926,536.0458,62,92,41
536.051,536.1708,64,92,41
536.176,536.2958,64,92,41
536.301,536.4208,62,92,41
536.426,536.5458,62,92,41
536.551,536.6708,62,92,41
536.676,536.7958,62,92,41
536.801,536.9208,69,92,41
536.926,537.0458,69,92,41
537.051,537.1708,64,92,41
537.176,537.2958,64,92,41
537.301,537.4208,64,92,41
537.426,537.5458,64,92,41
537.551,537.6708,69,92,41
537.676,537.7958,69,92,41
537.801,537.9208,64,92,41
537.926,538.0458,64,92,41
538.051,538.1708,64,92,41
538.176,538.2958,64,92,41
538.301,538.4208,63,92,41
538.426,538.5458,63,92,41
538.551,538.6708,64,92,41
538.676,538.7958,64,92,41
538.801,538.9208,64,92,41
538.926,539.0458,64,92,41
539.051,539.2958,57,92,41
539.051,539.2958,66,92,41
539.801,540.0458,59,92,41
539.801,540.0458,67,92,41
540.551,540.7958,66,92,41
540.551,540.7958,69,92,41
541.301,541.5458,67,92,41
541.301,541.5458,71,92,41
542.051,542.1708,62,92,41
542.051,542.1708,72,92,41
542.176,542.2958,62,92,41
542.176,542.2958,72,92,41
542.301,542.4208,62,92,41
542.301,542.4208,72,92,41
542.426,542.5458,62,92,41
542.426,542.5458,72,92,41
542.551,542.6708,62,92,41
542.551,542.6708,72,92,41
542.676,542.7958,62,92,41
542.676,542.7958,72,92,41
542.801,542.9208,62,92,41
542.801,542.9208,72,92,41
542.926,543.0458,62,92,41
542.926,543.0458,72,92,41
543.051,543.1708,62,92,41
543.051,543.1708,72,92,41
543.176,543.2958,62,92,41
543.176,543.2958,72,92,41
543.301,543.4208,62,92,41
543.301,543.4208,72,92,41
543.426,543.5458,62,92,41
543.426,543.5458,72,92,41
543.551,543.79175,62,92,41
543.551,543.79175,71,92,41
543.7969,543.91473,71,92,41
543.91986,544.03766,71,92,41
544.0428,544.16064,71,92,41
544.1658,544.28357,71,92,41
544.2887,544.40656,74,92,41
544.4117,544.5295,74,92,41
544.5346,544.6524,67,92,41
544.65753,544.7754,67,92,41
544.7805,544.8983,67,92,41
544.90344,545.0213,67,92,41
545.0264,545.1442,71,92,41
545.14935,545.2672,71,92,41
545.2723,545.39014,62,92,41
545.39526,545.51306,62,92,41
545.5182,545.63605,67,92,41
545.6412,545.759,67,92,41
545.7641,545.8791,59,92,41
545.8841,545.9991,59,92,41
546.0041,546.1191,62,91,41
546.1241,546.23914,62,90,41
546.2441,546.35913,55,89,41
546.36414,546.4791,55,88,41
546.48413,546.6039,59,87,41
546.60913,546.7289,59,86,41
546.73413,546.8539,50,85,41
546.85913,546.9789,50,84,41
546.98413,547.1039,55,83,41
547.10913,547.2289,55,82,41
547.23413,547.3648,50,81,41
547.3705,547.50116,50,80,41
547.50684,547.6375,55,79,41
547.6432,547.77386,55,78,41
547.77954,547.9102,50,77,41
547.91595,548.04663,50,76,41
548.0523,548.34607,55,75,41
550.1523,550.332,62,92,41
550.1523,550.5195,66,92,41
550.24603,550.5195,69,92,41
551.2773,552.26685,55,92,41
551.2773,554.0273,62,92,41
551.5273,554.0273,71,92,41
84.26454,84.531586,69,100,45
84.53727,84.80431,62,100,45
85.082726,85.34977,67,100,45
85.35545,85.6225,61,100,45
85.9009,86.16795,66,100,45
86.17363,86.440674,59,100,45
86.719086,86.98613,64,100,45
86.99181,87.25886,57,100,45
87.53727,87.80431,66,100,45
87.81,88.07704,59,100,45
88.355446,88.62249,67,100,45
88.628174,88.89522,59,100,45
89.17363,89.440674,71,100,45
89.44636,89.7134,64,100,45
89.99181,90.25886,69,100,45
90.264534,90.531586,63,100,45
90.80999,91.077034,67,100,45
91.08272,91.34976,61,100,45
91.628174,91.89522,66,100,45
91.9009,92.167946,59,96,45
92.44635,92.7134,64,88,45
92.71908,92.98612,62,84,45
93.264534,93.71908,61,75,45
94.08272,94.34976,62,60,45
94.35544,94.62249,66,60,45
94.900894,95.16794,61,60,45
95.17362,95.44067,64,60,45
95.71908,95.98612,59,60,45
95.991806,96.25885,62,60,45
96.537254,96.804306,57,60,45
96.80998,97.077034,61,60,45
97.35544,97.62248,59,60,45
97.62817,97.89521,66,60,45
98.17362,98.44067,59,60,45
98.44635,98.713394,67,60,45
98.9918,99.25884,67,60,45
99.26453,99.53157,67,60,45
99.80998,100.07703,66,60,45
100.08271,100.349754,66,60,45
101.44634,101.71339,64,60,45
101.71907,101.986115,64,62,45
102.26453,102.53157,62,66,45
102.537254,102.8043,62,68,45
210.61865,210.8857,69,100,45
210.89139,211.15843,62,100,45
211.43684,211.70389,67,100,45
211.70956,211.97661,61,100,45
212.25502,212.52206,66,100,45
212.52774,212.79478,59,100,45
213.0732,213.34024,64,100,45
213.34593,213.61298,57,100,45
213.89139,214.15843,66,100,45
214.16411,214.43115,59,100,45
214.70956,214.97661,67,100,45
214.98228,215.24933,59,100,45
215.52774,215.79478,71,100,45
215.80048,216.06752,64,100,45
216.34592,216.61298,69,100,45
216.61865,216.8857,63,100,45
217.16411,217.43115,67,100,45
217.43683,217.70387,61,100,45
217.98228,218.24933,66,100,45
218.25502,218.52206,59,96,45
218.80046,219.0675,64,88,45
219.0732,219.34024,62,84,45
219.61865,220.0732,61,75,45
220.43683,220.70387,62,60,45
220.70955,220.97661,66,60,45
221.255,221.52205,61,60,45
221.52774,221.79478,64,60,45
222.0732,222.34024,59,60,45
222.34592,222.61296,62,60,45
222.89137,223.15842,57,60,45
223.1641,223.43114,61,60,45
223.70955,223.9766,59,60,45
223.98228,224.24933,66,60,45
224.52774,224.79478,59,60,45
224.80046,225.0675,67,60,45
225.34592,225.61296,67,60,45
225.61864,225.88568,67,60,45
226.1641,226.43114,66,60,45
226.43683,226.70387,66,60,45
227.80046,228.0675,64,60,45
228.07318,228.34023,64,62,45
228.61864,228.88568,62,66,45
228.89137,229.15842,62,68,45
391.58286,391.8499,71,60,45
391.8556,392.12265,71,60,45
392.40103,392.6681,69,60,45
392.67377,392.94083,69,60,45
393.21924,393.48627,67,60,45
393.49194,393.759,67,60,45
394.0374,394.30444,69,60,45
394.31012,394.57718,69,60,45
394.8556,395.12262,71,60,45
395.12833,395.39536,71,60,45
395.67377,395.94083,72,60,45
466.34235,466.6046,67,45,45
466.6102,466.8725,67,45,45
466.87805,467.14035,67,45,45
467.14594,467.4082,74,45,45
467.4138,467.8602,67,45,45
467.9495,468.21176,71,45,45
468.21735,468.6638,67,45,45
468.75305,469.01303,67,45,45
469.01855,469.2785,64,50,45
469.28403,469.544,69,55,45
469.54953,469.80948,66,60,45
469.815,470.07495,62,65,45
470.0805,470.34045,69,70,45
470.34598,470.60593,67,75,45
470.61148,470.87143,64,80,45
470.87695,471.1369,69,86,45
471.14246,471.40012,66,92,45
471.4056,471.66327,62,92,45
471.66876,471.92642,60,92,45
471.93192,472.18958,59,92,45
472.19507,472.63367,62,92,45
472.72137,472.97906,67,92,45
472.98456,473.42313,66,75,45
473.51086,473.7663,67,60,45
473.77173,474.02716,67,60,45
474.0326,474.28802,67,60,45
474.29346,474.5489,74,60,45
474.55435,474.9891,67,60,45
475.07608,475.3315,71,60,45
475.33694,475.77173,67,60,45
475.85867,476.1119,68,92,45
476.1173,476.37054,64,92,45
476.37592,476.62915,62,92,45
476.63455,476.8878,60,92,45
476.89316,477.3242,64,92,45
477.4104,477.66364,69,92,45
477.66904,478.10007,68,75,45
478.18628,478.43735,71,60,45
478.4427,478.69376,71,60,45
478.6991,478.95016,71,60,45
478.9555,479.20657,76,60,45
479.2119,479.63925,71,60,45
479.72473,479.9758,72,60,45
479.98114,480.40848,71,60,45
480.49396,480.7429,69,60,45
480.7482,480.99713,66,60,45
481.00244,481.25137,71,60,45
481.25668,481.5056,68,60,45
481.5109,481.75986,64,60,45
481.76514,482.0141,71,60,45
482.01938,482.2683,69,60,45
482.27362,482.52255,66,60,45
482.52786,482.7768,71,60,45
482.7821,483.02893,67,60,45
483.03418,483.28104,64,59,45
483.2863,483.53314,69,58,45
483.5384,483.78525,66,57,45
483.7905,484.03735,62,55,45
484.0426,484.28943,69,53,45
484.2947,484.54153,67,51,45
484.54678,484.79364,62,49,45
484.7989,485.04575,69,47,45
485.051,485.29578,65,45,45
485.301,485.54578,62,45,45
5.727267,5.857949,62,40,41
5.8636303,5.9943123,66,40,41
5.999994,6.130676,66,40,41
6.1363573,6.2670393,69,40,41
6.272721,6.403403,67,40,41
6.4090843,6.5397663,66,40,41
6.545448,6.8124933,67,40,41
6.818175,6.948857,66,40,41
6.9545383,7.0852203,72,40,41
7.090902,7.221584,72,40,41
7.2272654,7.3579473,72,40,41
7.363629,7.619064,71,40,41
7.6244984,7.7494984,66,44,41
7.7549334,7.8799334,66,46,41
7.885368,8.010368,66,48,41
8.015802,8.140802,66,50,41
8.146237,8.401672,67,52,41
8.407107,8.532107,66,56,41
8.537541,8.662541,66,58,41
8.667976,8.792976,66,60,41
8.798411,8.923411,66,62,41
8.928846,9.18428,67,64,41
9.189715,9.314715,66,69,41
9.32015,9.44515,66,71,41
9.450585,9.575585,66,74,41
9.581019,9.706019,66,77,41
9.711454,9.956246,67,80,41
9.961454,10.081246,66,80,41
10.086454,10.206246,66,70,41
10.211454,10.331246,66,60,41
10.336454,10.456246,66,50,41
10.461454,10.586454,76,40,41
10.591889,10.716889,76,40,41
10.722324,10.847324,76,45,41
10.852758,10.977758,76,50,41
10.983193,11.108193,76,55,41
11.113628,11.238628,76,60,41
11.244063,11.374744,64,65,41
11.244063,11.374744,67,65,41
11.380426,11.511108,64,70,41
11.380426,11.511108,67,70,41
11.51679,11.647471,64,76,41
11.51679,11.647471,67,76,41
11.653153,11.783835,64,82,41
11.653153,11.783835,67,82,41
11.789517,11.920198,64,88,41
11.789517,11.920198,67,88,41
11.92588,12.056562,64,94,41
11.92588,12.056562,67,94,41
12.062244,12.329289,57,100,41
12.062244,12.329289,66,100,41
12.607698,12.874743,62,100,41
12.880425,13.33497,62,87,41
13.425879,13.6929245,62,60,41
13.698606,14.153151,62,60,41
14.24406,14.511106,62,47,41
14.516787,14.992977,62,40,41
15.088215,15.367976,62,40,41
15.373929,15.850119,55,40,41
15.945357,16.225119,55,40,41
33.221966,33.48901,59,80,41
33.49469,33.949238,59,80,41
34.040146,34.30719,59,80,41
34.312874,34.767418,59,80,41
34.858326,35.12537,62,72,41
35.131054,35.607243,62,68,41
35.70248,35.982243,62,59,41
35.988194,36.488194,62,55,41
36.588196,36.881947,61,45,41
36.888195,37.34274,62,40,41
39.34274,40.07001,53,40,41
40.16092,40.2916,53,40,41
40.433647,40.88819,53,40,41
40.9791,41.109783,55,40,41
41.251827,41.70637,53,40,41
41.79728,42.52455,50,40,41
42.615463,43.070007,52,53,41
44.251823,44.979095,60,80,41
45.070004,45.200687,60,80,41
45.34273,45.797276,60,80,41
45.888187,46.018867,62,80,41
46.16091,46.61546,60,60,41
71.74186,71.87254,70,100,41
71.87823,72.0089,70,100,41
72.01459,72.14527,70,92,41
72.150955,72.28163,70,84,41
72.287315,72.418,70,76,41
72.42368,72.55436,70,68,41
72.56004,72.69073,70,60,41
72.6964,72.82709,70,60,41
72.83277,72.963455,70,60,41
72.96913,73.099815,70,60,41
73.1055,73.236176,70,60,41
73.24186,73.37254,70,60,41
73.37823,73.5089,71,60,41
73.51459,73.64527,71,57,41
73.65095,73.78163,70,54,41
73.787315,73.918,70,51,41
73.923676,74.05436,70,48,41
74.06004,74.19072,70,44,41
74.1964,74.46345,66,40,41
78.28731,78.41799,69,40,41
78.423676,78.55435,67,42,41
78.560036,78.69072,66,44,41
78.6964,78.82708,64,46,41
78.83276,78.96345,62,48,41
78.969124,79.09981,60,50,41
79.10549,79.248344,59,52,41
79.391205,79.534065,66,57,41
79.96263,80.106384,73,67,41
80.11263,80.256386,71,69,41
80.262634,80.40638,70,71,41
80.412636,80.55638,68,73,41
80.56263,80.70638,66,76,41
80.71263,80.856384,64,79,41
80.86263,81.02053,62,82,41
81.17842,81.33632,59,88,41
81.49421,81.65211,62,94,41
81.81,82.07704,61,100,41
84.26454,84.531586,62,100,41
84.53727,84.80431,57,100,41
85.082726,85.34977,61,100,41
85.35545,85.6225,55,100,41
85.9009,86.16795,59,100,41
86.17363,86.440674,54,100,41
86.719086,86.98613,57,100,41
86.99181,87.25886,52,100,41
87.53727,87.80431,59,100,41
87.81,88.07704,54,100,41
88.355446,88.62249,59,100,41
88.628174,88.89522,55,100,41
89.17363,89.440674,64,100,41
89.44636,89.7134,59,100,41
89.99181,90.25886,63,100,41
90.264534,90.531586,57,100,41
90.80999,91.077034,61,100,41
91.08272,91.34976,55,100,41
91.628174,91.89522,59,100,41
91.9009,92.167946,54,94,41
92.44635,92.7134,62,81,41
92.71908,92.98612,52,74,41
93.264534,93.71908,52,60,41
98.9918,99.25884,74,60,41
99.26453,99.53157,71,60,41
99.537254,99.8043,67,60,41
99.80998,100.07703,72,60,41
100.08271,100.349754,69,60,41
100.35544,100.62248,66,60,41
101.44634,101.71339,71,60,41
101.71907,101.986115,67,64,41
101.9918,102.25884,64,68,41
102.26453,102.53157,69,72,41
102.537254,102.8043,66,76,41
102.80998,103.07703,62,80,41
103.90089,104.16793,67,100,41
104.173615,104.44066,64,100,41
104.44634,104.71339,61,100,41
104.71907,104.986115,57,100,41
104.9918,105.25884,66,100,41
105.26452,105.53157,62,100,41
105.53725,105.80429,59,100,41
105.809975,106.07702,55,100,41
106.0827,106.34975,52,100,41
106.35543,106.622475,49,100,41
107.173615,107.62816,48,100,41
112.082695,112.90088,64,60,41
112.90088,113.35542,63,92,41
118.62814,118.89519,67,92,41
118.90087,119.167915,64,92,41
119.1736,119.44064,61,92,41
119.44633,119.71337,57,92,41
119.719055,119.9861,66,92,41
119.99178,120.25883,62,92,41
120.2645,120.531555,59,92,41
120.53723,120.804276,55,92,41
120.80996,121.077,52,92,41
121.08269,121.34973,49,92,41
121.90087,122.44632,48,92,41
122.44632,123.53723,48,75,41
123.53723,124.95985,48,60,41
132.08138,132.21207,62,40,41
132.21774,132.34842,66,40,41
132.35411,132.48479,66,40,41
132.49048,132.62115,69,40,41
132.62683,132.75752,67,40,41
132.7632,132.89388,66,40,41
132.89957,133.16661,67,40,41
133.17229,133.30296,66,40,41
133.30865,133.43933,72,40,41
133.44502,133.5757,72,40,41
133.58138,133.71207,72,40,41
133.71774,133.97318,71,40,41
133.9786,134.1036,66,44,41
134.10905,134.23405,66,46,41
134.23949,134.36449,66,48,41
134.36992,134.49492,66,50,41
134.50035,134.75578,67,52,41
134.76122,134.88622,66,56,41
134.89166,135.01666,66,58,41
135.0221,135.1471,66,60,41
135.15253,135.27753,66,62,41
135.28296,135.53839,67,64,41
135.54382,135.66882,66,69,41
135.67427,135.79927,66,71,41
135.8047,135.9297,66,74,41
135.93513,136.06013,66,77,41
136.06557,136.31036,67,80,41
136.31557,136.43536,66,80,41
136.44057,136.56036,66,70,41
136.56557,136.68536,66,60,41
136.69057,136.81036,66,50,41
136.81557,136.94057,76,40,41
136.946,137.071,76,40,41
137.07643,137.20143,76,45,41
137.20688,137.33188,76,50,41
137.33731,137.46231,76,55,41
137.46774,137.59274,76,60,41
137.59818,137.72885,64,65,41
137.59818,137.72885,67,65,41
137.73454,137.86522,64,70,41
137.73454,137.86522,67,70,41
137.87091,138.00159,64,76,41
137.87091,138.00159,67,76,41
138.00726,138.13795,64,82,41
138.00726,138.13795,67,82,41
138.14363,138.2743,64,88,41
138.14363,138.2743,67,88,41
138.28,138.41068,64,94,41
138.28,138.41068,67,94,41
138.41635,138.68341,57,100,41
138.41635,138.68341,66,100,41
138.9618,139.22885,62,100,41
139.23454,139.68909,62,87,41
139.78,140.04704,62,60,41
140.05272,140.50726,62,60,41
140.59818,140.86522,62,47,41
140.8709,141.34709,62,40,41
141.44232,141.72209,62,40,41
141.72804,142.20424,55,40,41
142.29947,142.57924,55,40,41
159.57608,159.84312,59,80,41
159.8488,160.30334,59,80,41
160.39426,160.6613,59,80,41
160.66699,161.12154,59,80,41
161.21243,161.47949,62,72,41
161.48517,161.96135,62,68,41
162.0566,162.33635,62,59,41
162.34232,162.84232,62,55,41
162.9423,163.23605,61,45,41
163.24231,163.69685,62,40,41
165.69685,166.42412,53,40,41
166.51503,166.64572,53,40,41
166.78777,167.24231,53,40,41
167.33322,167.4639,55,40,41
167.60594,168.06049,53,40,41
168.1514,168.87866,50,40,41
168.96957,169.42412,52,53,41
170.60594,171.3332,60,80,41
171.42412,171.5548,60,80,41
171.69684,172.1514,60,80,41
172.2423,172.37299,62,80,41
172.51503,172.96957,60,60,41
198.09598,198.22665,70,100,41
198.23235,198.36302,70,100,41
198.3687,198.49939,70,92,41
198.50507,198.63574,70,84,41
198.64143,198.77211,70,76,41
198.77779,198.90848,70,68,41
198.91415,199.04485,70,60,41
199.05052,199.1812,70,60,41
199.18689,199.31757,70,60,41
199.32324,199.45393,70,60,41
199.45961,199.59029,70,60,41
199.59598,199.72665,70,60,41
199.73235,199.86302,71,60,41
199.8687,199.99939,71,57,41
200.00507,200.13574,70,54,41
200.14143,200.27211,70,51,41
200.27779,200.40848,70,48,41
200.41415,200.54483,70,44,41
200.55052,200.81757,66,40,41
204.64142,204.77211,69,40,41
204.77779,204.90846,67,42,41
204.91415,205.04483,66,44,41
205.05052,205.1812,64,46,41
205.18687,205.31757,62,48,41
205.32324,205.45392,60,50,41
205.45961,205.60246,59,52,41
205.74532,205.88818,66,57,41
206.31674,206.4605,73,67,41
206.46675,206.6105,71,69,41
206.61674,206.7605,70,71,41
206.76675,206.91049,68,73,41
206.91675,207.0605,66,76,41
207.06674,207.2105,64,79,41
207.21675,207.37465,62,82,41
207.53253,207.69043,59,88,41
207.84833,208.00623,62,94,41
208.16411,208.43115,61,100,41
210.61865,210.8857,62,100,41
210.89139,211.15843,57,100,41
211.43684,211.70389,61,100,41
211.70956,211.97661,55,100,41
212.25502,212.52206,59,100,41
212.52774,212.79478,54,100,41
213.0732,213.34024,57,100,41
213.34593,213.61298,52,100,41
213.89139,214.15843,59,100,41
214.16411,214.43115,54,100,41
214.70956,214.97661,59,100,41
214.98228,215.24933,55,100,41
215.52774,215.79478,64,100,41
215.80048,216.06752,59,100,41
216.34592,216.61298,63,100,41
216.61865,216.8857,57,100,41
217.16411,217.43115,61,100,41
217.43683,217.70387,55,100,41
217.98228,218.24933,59,100,41
218.25502,218.52206,54,94,41
218.80046,219.0675,62,81,41
219.0732,219.34024,52,74,41
219.61865,220.0732,52,60,41
225.34592,225.61296,74,60,41
225.61864,225.88568,71,60,41
225.89137,226.15842,67,60,41
226.1641,226.43114,72,60,41
226.43683,226.70387,69,60,41
226.70955,226.9766,66,60,41
227.80046,228.0675,71,60,41
228.07318,228.34023,67,64,41
228.34592,228.61296,64,68,41
228.61864,228.88568,69,72,41
228.89137,229.15842,66,76,41
229.1641,229.43114,62,80,41
230.255,230.52205,67,100,41
230.52773,230.79477,64,100,41
230.80046,231.0675,61,100,41
231.07318,231.34023,57,100,41
231.3459,231.61296,66,100,41
231.61864,231.88568,62,100,41
231.89136,232.1584,59,100,41
232.1641,232.43114,55,100,41
232.43681,232.70386,52,100,41
232.70955,232.9766,49,100,41
233.52773,233.98227,48,100,41
238.43681,239.25499,64,60,41
239.25499,239.70953,63,92,41
244.98225,245.2493,67,92,41
245.25499,245.52203,64,92,41
245.52771,245.79475,61,92,41
245.80045,246.06749,57,92,41
246.07317,246.34021,66,92,41
246.3459,246.61295,62,92,41
246.61862,246.88567,59,92,41
246.89134,247.15839,55,92,41
247.16408,247.43112,52,92,41
247.4368,247.70384,49,92,41
248.25499,248.80043,48,92,41
248.80043,249.89134,48,75,41
249.89134,251.31396,48,60,41
253.36278,255.62982,69,45,41
273.9082,274.17526,61,45,41
274.18094,274.44797,62,45,41
274.45364,274.7207,59,48,41
274.72638,274.99344,64,52,41
274.9991,275.27887,66,56,41
275.85626,276.65625,66,68,41
276.75626,277.59836,66,80,41
277.7036,277.97067,68,92,41
278.5218,278.65817,61,92,41
278.79453,279.24908,61,92,41
279.34,279.47635,59,92,41
279.6127,280.06726,61,92,41
280.15817,280.29453,59,92,41
280.43088,280.88544,59,92,41
280.97635,281.1127,59,92,41
281.24908,281.7036,59,92,41
281.79453,281.93088,57,92,41
282.06726,282.5218,59,92,41
282.6127,282.74908,57,92,41
282.88544,283.33997,57,92,41
283.43088,283.56726,57,92,41
283.7036,284.15817,57,92,41
284.24908,284.38544,55,92,41
284.5218,284.97635,57,92,41
285.06726,285.2036,69,92,41
285.33997,285.79453,62,92,41
285.33997,285.79453,69,92,41
285.88544,286.0161,64,92,41
286.0218,286.15247,64,92,41
286.15817,286.28885,66,92,41
286.29453,286.4252,66,92,41
286.43088,286.56155,66,92,41
286.56726,286.69794,66,92,41
286.7036,286.8343,69,92,41
286.83997,286.97067,69,92,41
286.97635,287.10703,69,92,41
287.1127,287.24338,69,92,41
287.24905,287.37976,69,92,41
287.38544,287.5161,69,92,41
287.5218,287.65247,71,92,41
287.65817,287.78885,71,92,41
287.79453,287.9252,72,92,41
287.93088,288.06155,72,92,41
288.06726,288.19794,72,92,41
288.2036,288.3343,72,92,41
288.33997,288.47064,71,92,41
288.47635,288.60703,71,92,41
288.6127,288.74338,72,92,41
288.74905,288.87976,72,92,41
288.88544,289.0161,72,92,41
289.0218,289.15247,72,92,41
289.15814,289.28885,71,92,41
289.29453,289.4252,71,92,41
289.43088,289.56155,72,92,41
289.56726,289.69794,72,92,41
289.7036,289.8343,72,92,41
289.83997,289.97064,72,92,41
289.97635,290.24338,62,92,41
289.97635,290.24338,72,92,41
290.79453,290.9252,66,60,41
290.93088,291.06155,66,60,41
291.06723,291.19794,66,60,41
291.2036,291.3343,66,60,41
291.33997,291.47064,66,60,41
291.47635,291.60703,66,60,41
295.7036,295.8343,51,60,41
295.83997,295.97064,51,60,41
295.97632,296.10703,51,60,41
296.1127,296.24338,51,60,41
296.24905,296.37973,51,60,41
296.3854,296.5161,51,60,41
301.68085,301.8172,50,45,41
301.8172,301.95355,62,45,41
301.95355,302.08994,50,45,41
302.08994,302.2263,62,45,41
302.2263,302.36264,50,45,41
302.36264,302.49335,62,45,41
304.13538,304.27173,48,45,41
304.27173,304.4081,60,45,41
304.4081,304.54446,48,45,41
304.54446,304.68085,60,45,41
304.68085,304.8172,48,45,41
304.8172,304.94788,60,45,41
305.77173,306.3172,60,45,41
306.3172,306.58994,62,65,41
306.58994,306.86264,63,75,41
306.86264,307.13538,62,60,41
307.13538,307.40244,60,60,41
307.4081,307.86264,58,45,41
309.04446,309.18082,58,45,41
309.18082,309.3172,70,45,41
309.3172,309.45355,58,45,41
309.45355,309.5899,70,45,41
309.5899,309.7263,58,45,41
309.7263,309.85696,70,45,41
311.49902,311.63538,56,45,41
311.63538,311.77173,68,45,41
311.77173,311.9081,56,45,41
311.9081,312.04446,68,45,41
312.04446,312.18082,56,45,41
312.18082,312.31152,68,45,41
313.13538,313.68082,68,45,41
313.68082,313.95355,69,65,41
313.95355,314.2263,71,75,41
314.2263,314.499,69,60,41
314.499,314.77173,68,60,41
314.77173,315.0388,68,45,41
315.04446,315.3172,57,45,41
315.3172,315.5899,61,60,41
315.5899,316.13538,66,75,41
316.13538,317.0899,66,60,41
317.2263,317.68082,62,45,41
318.31717,318.5899,55,45,41
318.5899,318.86264,62,47,41
318.86264,319.5899,59,73,41
319.68082,320.13538,55,55,41
320.77173,321.04446,48,63,41
321.04446,321.31717,55,65,41
321.31717,321.86264,54,99,41
321.86264,322.12967,60,72,41
322.13538,322.61154,59,75,41
323.2925,323.5925,48,75,41
323.5925,323.89252,60,72,41
323.89252,324.72583,54,101,41
324.83002,325.28455,55,60,41
340.9209,341.18793,59,60,41
341.19363,341.64816,59,60,41
341.73907,342.00613,59,60,41
342.0118,342.46634,59,75,41
342.55725,342.8243,62,75,41
342.83,343.28455,62,75,41
343.37543,343.6425,62,75,41
343.64816,344.10272,62,75,41
344.19363,344.46066,61,75,41
344.46634,344.9209,62,60,41
346.9209,347.64816,53,60,41
347.73907,347.86975,53,60,41
348.0118,348.46634,53,60,41
348.55725,348.68793,55,62,41
348.83,349.28452,53,62,41
349.37543,350.1027,50,64,41
350.1936,350.64816,52,67,41
351.83,352.55725,60,75,41
352.64816,352.77884,60,75,41
352.9209,353.37543,60,75,41
353.46634,353.59702,62,75,41
353.73907,354.1936,60,60,41
401.40103,401.6681,72,92,41
401.67377,401.9408,69,92,41
401.9465,402.21353,66,92,41
402.2192,402.48627,62,92,41
402.49194,402.759,59,92,41
402.76468,403.0317,67,92,41
403.03738,403.30444,64,92,41
403.31012,403.57718,60,92,41
403.58286,403.84988,57,92,41
403.8556,404.12262,54,92,41
404.67377,405.2192,53,92,41
405.2192,406.31012,53,75,41
406.31012,409.2192,53,60,41
409.58286,410.40103,62,60,41
410.40103,410.85556,71,92,41
435.06723,435.58807,60,75,41
435.06723,435.58807,66,75,41
436.00473,436.1354,51,92,41
436.00473,436.2718,60,92,41
436.0729,436.2718,67,92,41
440.91382,441.36838,55,60,41
441.732,443.232,55,60,41
443.36838,443.8229,55,60,41
444.18655,445.68655,56,60,41
445.8229,446.09564,56,60,41
446.09564,446.36835,64,60,41
446.36835,446.64108,56,60,41
446.64108,446.91382,64,60,41
446.91382,447.18655,62,60,41
447.18655,447.45926,64,60,41
447.45926,447.732,57,60,41
447.732,448.00473,64,60,41
448.00473,448.27176,57,60,41
448.27747,448.55017,62,60,41
448.55017,448.8229,67,60,41
448.8229,449.09564,62,60,41
449.09564,449.36835,67,60,41
449.36835,449.64108,55,60,41
449.64108,449.91382,67,60,41
449.91382,450.18655,66,60,41
450.18655,450.45926,71,60,41
450.45926,450.732,66,60,41
450.732,451.00473,71,60,41
451.00473,451.27744,59,60,41
451.27744,451.5445,71,60,41
451.55017,451.8229,67,60,41
451.8229,452.09564,55,60,41
452.09564,452.36835,67,61,41
452.36835,452.64108,55,61,41
452.64108,452.91382,67,62,41
452.91382,453.18085,55,63,41
453.18652,453.45926,67,64,41
453.45926,453.732,55,65,41
453.732,454.00473,67,66,41
454.00473,454.27744,55,67,41
454.27744,454.55017,67,68,41
454.55017,454.8229,55,69,41
454.8229,455.0956,67,70,41
455.0956,455.36835,55,71,41
455.36835,455.6354,67,72,41
455.64108,455.9472,55,73,41
455.9472,456.25333,67,74,41
456.25333,456.55945,55,75,41
456.55945,456.87195,67,76,41
456.87195,457.18445,55,77,41
457.18445,457.49695,67,78,41
457.49695,457.8161,55,79,41
457.8161,458.13525,67,80,41
458.13525,458.44775,55,81,41
458.4544,458.7805,67,82,41
458.7805,459.10657,57,83,41
459.10657,459.42584,67,84,41
459.43265,460.60312,57,85,41
459.43265,460.60312,67,85,41
485.551,485.79578,67,45,41
485.801,486.04578,65,45,41
486.051,486.29578,62,52,41
486.301,486.54578,67,60,41
486.551,486.79578,65,68,41
486.801,487.04578,62,76,41
487.051,487.29578,67,84,41
487.301,487.54578,64,92,41
488.051,488.29578,57,75,41
488.301,488.42078,60,107,41
488.426,488.54578,60,75,41
488.551,488.67078,60,75,41
488.676,488.79578,60,75,41
488.801,488.92078,60,75,41
488.926,489.04578,60,77,41
489.051,489.17078,62,80,41
489.176,489.29578,62,83,41
489.301,489.42078,62,86,41
489.426,489.54578,62,89,41
489.551,489.79578,55,92,41
490.301,490.42078,55,92,41
490.301,490.42078,67,92,41
490.426,490.54578,55,91,41
490.426,490.54578,67,91,41
490.551,490.67078,55,90,41
490.551,490.67078,67,90,41
490.676,490.79578,55,89,41
490.676,490.79578,67,89,41
490.801,490.92078,55,88,41
490.801,490.92078,67,88,41
490.926,491.04578,55,87,41
490.926,491.04578,67,87,41
491.051,491.17078,55,86,41
491.051,491.17078,67,86,41
491.176,491.29578,55,85,41
491.176,491.29578,67,85,41
491.301,491.42078,55,84,41
491.301,491.42078,67,84,41
491.426,491.54578,55,83,41
491.426,491.54578,67,83,41
491.551,491.67078,55,82,41
491.551,491.67078,67,82,41
491.676,491.79578,55,81,41
491.676,491.79578,67,81,41
491.801,491.92078,60,80,41
491.926,492.04578,60,79,41
492.051,492.17078,64,78,41
492.176,492.29578,64,77,41
492.301,492.42078,64,76,41
492.426,492.54578,64,75,41
492.551,492.67078,64,74,41
492.676,492.79578,64,73,41
492.801,492.92078,57,72,41
492.801,492.92078,69,72,41
492.926,493.04578,57,71,41
492.926,493.04578,69,71,41
493.051,493.17078,57,70,41
493.051,493.17078,69,70,41
493.176,493.29578,57,69,41
493.176,493.29578,69,69,41
493.301,493.42078,57,68,41
493.301,493.42078,69,68,41
493.426,493.54578,57,67,41
493.426,493.54578,69,67,41
493.551,493.67078,57,66,41
493.551,493.67078,69,66,41
493.676,493.79578,57,65,41
493.676,493.79578,69,65,41
493.801,493.92078,57,64,41
493.801,493.92078,69,64,41
493.926,494.04578,57,62,41
493.926,494.04578,69,62,41
494.051,494.17078,62,60,41
494.176,494.29578,62,60,41
494.301,494.42078,66,60,41
494.426,494.54578,66,60,41
494.551,494.67078,66,60,41
494.676,494.79578,66,60,41
494.801,494.92078,66,60,41
494.926,495.04578,66,60,41
495.051,495.17078,71,60,41
495.176,495.29578,71,60,41
495.301,495.42078,71,60,41
495.426,495.54578,71,60,41
495.551,495.67078,64,60,41
495.676,495.79578,64,60,41
495.801,495.92078,67,60,41
495.926,496.04578,67,60,41
496.051,496.17078,67,60,41
496.176,496.29578,67,60,41
496.301,496.42078,67,60,41
496.426,496.54578,67,60,41
496.551,496.67078,69,60,41
496.676,496.79578,69,60,41
496.801,496.92078,69,60,41
496.926,497.04578,69,60,41
497.051,497.17078,69,60,41
497.176,497.29578,69,60,41
497.301,497.42078,71,60,41
497.426,497.54578,71,60,41
497.551,497.67078,71,60,41
497.676,497.79578,71,60,41
497.801,497.92078,71,60,41
497.926,498.04578,71,60,41
498.051,498.17078,72,60,41
498.176,498.29578,72,60,41
498.301,498.42078,72,60,41
498.426,498.54578,72,60,41
498.551,498.67078,60,60,41
498.551,498.67078,72,60,41
498.676,498.79578,60,60,41
498.676,498.79578,72,60,41
498.801,498.92078,60,60,41
498.801,498.92078,72,60,41
498.926,499.04578,60,60,41
498.926,499.04578,72,60,41
499.051,499.17078,60,60,41
499.051,499.17078,72,60,41
499.176,499.29578,60,61,41
499.176,499.29578,72,61,41
499.301,499.42078,60,61,41
499.301,499.42078,72,61,41
499.426,499.54578,60,62,41
499.426,499.54578,72,62,41
499.551,499.67078,60,63,41
499.551,499.67078,72,63,41
499.676,499.79578,60,64,41
499.676,499.79578,72,64,41
499.801,499.92078,60,65,41
499.801,499.92078,72,65,41
499.926,500.04578,60,66,41
499.926,500.04578,72,66,41
500.051,500.17078,60,67,41
500.051,500.17078,72,67,41
500.176,500.29578,60,68,41
500.176,500.29578,72,68,41
500.301,500.42078,60,69,41
500.301,500.42078,72,69,41
500.426,500.54578,60,70,41
500.426,500.54578,72,70,41
500.551,500.67078,60,71,41
500.551,500.67078,72,71,41
500.676,500.79578,60,72,41
500.676,500.79578,72,72,41
500.801,500.92078,60,73,41
500.801,500.92078,72,73,41
500.926,501.04578,60,74,41
500.926,501.04578,72,74,41
501.051,501.17078,60,75,41
501.051,501.17078,72,75,41
501.176,501.29578,60,76,41
501.176,501.29578,72,76,41
501.301,501.42078,60,77,41
501.301,501.42078,72,77,41
501.426,501.54578,60,78,41
501.426,501.54578,72,78,41
501.551,501.67078,60,79,41
501.551,501.67078,72,79,41
501.676,501.79578,60,80,41
501.676,501.79578,72,80,41
501.801,501.92078,60,81,41
501.801,501.92078,72,81,41
501.926,502.04578,60,82,41
501.926,502.04578,72,82,41
502.051,502.17078,60,83,41
502.051,502.17078,72,83,41
502.176,502.29578,60,84,41
502.176,502.29578,72,84,41
502.301,502.42078,60,85,41
502.301,502.42078,72,85,41
502.426,502.54578,60,86,41
502.426,502.54578,72,86,41
502.551,502.67078,60,87,41
502.551,502.67078,72,87,41
502.676,502.79578,60,88,41
502.676,502.79578,72,88,41
502.801,502.92078,60,89,41
502.801,502.92078,72,89,41
502.926,503.04578,60,90,41
502.926,503.04578,72,90,41
503.051,503.29578,65,92,41
503.051,503.29578,69,92,41
503.801,503.92078,62,92,41
503.926,504.04578,62,92,41
504.051,504.17078,62,92,41
504.176,504.29578,62,92,41
504.301,504.42078,62,92,41
504.426,504.54578,62,92,41
505.301,505.42078,60,75,41
505.426,505.54578,60,75,41
505.551,505.67078,60,75,41
505.676,505.79578,60,75,41
505.801,505.92078,60,75,41
505.926,506.04578,60,75,41
508.301,508.42078,56,45,41
508.426,508.54578,56,45,41
508.551,508.67078,56,45,41
508.676,508.79578,56,45,41
508.801,508.92078,56,45,41
508.926,509.04578,56,45,41
515.801,516.051,67,60,41
516.051,516.301,69,60,41
516.301,516.5458,71,60,41
516.551,517.051,76,60,41
517.051,517.2958,74,60,41
517.301,517.551,72,60,41
517.551,517.801,71,60,41
517.801,518.0458,69,60,41
518.051,518.2958,67,60,41
518.301,518.551,79,60,41
518.551,518.801,78,60,41
518.801,519.051,76,60,41
519.051,519.301,72,60,41
519.301,519.5458,69,60,41
519.551,519.801,67,60,41
519.801,520.0458,71,60,41
520.051,520.301,71,60,41
520.301,520.801,72,92,41
520.801,521.0458,69,75,41
521.051,521.2958,55,60,41
521.051,521.2958,67,60,41
521.301,521.5458,55,60,41
521.301,521.5458,67,60,41
521.801,522.0458,55,60,41
521.801,522.0458,67,60,41
522.051,522.2958,55,60,41
522.051,522.2958,67,60,41
522.551,522.7958,55,60,41
522.551,522.7958,67,60,41
522.801,523.0458,55,60,41
522.801,523.0458,67,60,41
523.301,523.5458,55,60,41
523.301,523.5458,67,60,41
523.551,523.7958,55,60,41
523.551,523.7958,67,60,41
524.051,524.2958,55,60,41
524.051,524.2958,67,60,41
524.301,524.5458,55,60,41
524.301,524.5458,67,60,41
524.801,525.21765,67,60,41
525.301,525.5458,67,63,41
525.551,526.051,76,64,41
526.051,526.2958,74,67,41
526.301,526.551,72,68,41
526.551,526.801,71,70,41
526.801,527.0458,69,72,41
527.051,527.2958,67,74,41
527.301,527.551,79,76,41
527.551,527.801,78,78,41
527.801,528.051,76,80,41
528.051,528.301,72,82,41
528.301,528.5458,69,84,41
528.551,528.801,67,86,41
528.801,529.0458,71,88,41
529.051,529.301,50,90,41
529.301,529.96765,60,92,41
530.051,530.551,60,60,41
530.551,530.7958,67,60,41
530.801,531.301,67,60,41
531.301,531.5458,59,60,41
531.551,532.21765,60,60,41
532.301,532.426,60,60,41
532.426,532.551,67,61,41
532.551,532.676,60,62,41
532.676,532.801,67,63,41
532.801,532.926,60,64,41
532.926,533.0458,67,66,41
533.051,533.176,59,68,41
533.176,533.301,67,70,41
533.301,533.426,59,72,41
533.426,533.551,67,74,41
533.551,533.676,59,76,41
533.676,533.7958,67,78,41
533.801,533.926,57,80,41
533.926,534.051,67,82,41
534.051,534.176,57,84,41
534.176,534.301,67,86,41
534.301,534.426,57,88,41
534.426,534.5458,67,90,41
534.551,534.6708,55,92,41
534.551,534.7958,62,92,41
534.6135,534.7958,74,92,41
536.801,536.9208,69,92,41
536.926,537.0458,69,92,41
537.051,537.1708,64,92,41
537.176,537.2958,64,92,41
537.301,537.4208,64,92,41
537.426,537.5458,64,92,41
537.551,537.6708,57,92,41
537.551,537.6708,69,92,41
537.676,537.7958,57,92,41
537.676,537.7958,69,92,41
537.801,537.9208,57,92,41
537.801,537.9208,69,92,41
537.926,538.0458,57,92,41
537.926,538.0458,69,92,41
538.051,538.1708,57,92,41
538.051,538.1708,69,92,41
538.176,538.2958,57,92,41
538.176,538.2958,69,92,41
538.301,538.4208,57,92,41
538.301,538.4208,69,92,41
538.426,538.5458,57,92,41
538.426,538.5458,69,92,41
538.551,538.6708,57,92,41
538.551,538.6708,69,92,41
538.676,538.7958,57,92,41
538.676,538.7958,69,92,41
538.801,538.9208,57,92,41
538.801,538.9208,69,92,41
538.926,539.0458,57,92,41
538.926,539.0458,69,92,41
539.051,539.2958,57,92,41
539.051,539.2958,66,92,41
539.801,540.0458,59,92,41
539.801,540.0458,67,92,41
540.551,540.7958,62,92,41
540.551,540.7958,69,92,41
541.301,541.5458,59,92,41
541.301,541.5458,67,92,41
542.051,542.1708,66,92,41
542.051,542.1708,69,92,41
542.176,542.2958,66,92,41
542.176,542.2958,69,92,41
542.301,542.4208,66,92,41
542.301,542.4208,69,92,41
542.426,542.5458,66,92,41
542.426,542.5458,69,92,41
542.551,542.6708,66,92,41
542.551,542.6708,69,92,41
542.676,542.7958,66,92,41
542.676,542.7958,69,92,41
542.801,542.9208,66,92,41
542.801,542.9208,69,92,41
542.926,543.0458,66,92,41
542.926,543.0458,69,92,41
543.051,543.1708,66,92,41
543.051,543.1708,69,92,41
543.176,543.2958,66,92,41
543.176,543.2958,69,92,41
543.301,543.4208,66,92,41
543.301,543.4208,69,92,41
543.426,543.5458,66,92,41
543.426,543.5458,69,92,41
543.551,543.79175,62,92,41
543.551,543.79175,71,92,41
543.7969,543.91473,71,92,41
543.91986,544.03766,71,92,41
544.0428,544.16064,71,92,41
544.1658,544.28357,71,92,41
544.2887,544.40656,74,92,41
544.4117,544.5295,74,92,41
544.5346,544.6524,67,92,41
544.65753,544.7754,67,92,41
544.7805,544.8983,67,92,41
544.90344,545.0213,67,92,41
545.0264,545.1442,71,92,41
545.14935,545.2672,71,92,41
545.2723,545.39014,62,92,41
545.39526,545.51306,62,92,41
545.5182,545.63605,67,92,41
545.6412,545.759,67,92,41
545.7641,545.8791,59,92,41
545.8841,545.9991,59,92,41
546.0041,546.1191,62,91,41
546.1241,546.23914,62,90,41
546.2441,546.35913,55,89,41
546.36414,546.4791,55,88,41
546.48413,546.6039,59,87,41
546.60913,546.7289,59,86,41
546.73413,546.8539,50,85,41
546.85913,546.9789,50,84,41
546.98413,547.1039,55,83,41
547.10913,547.2289,55,82,41
547.23413,547.3648,50,81,41
547.3705,547.50116,50,80,41
547.50684,547.6375,55,79,41
547.6432,547.77386,55,78,41
547.77954,547.9102,50,77,41
547.91595,548.04663,50,76,41
548.0523,548.34607,55,75,41
550.1523,550.5195,62,92,41
550.1523,550.5195,69,92,41
551.2773,554.0273,59,92,41
551.2773,554.0273,67,92,41
113.71906,113.98611,62,45,45
113.99178,114.258835,62,45,45
114.53724,114.80428,60,45,45
114.80997,115.07701,60,45,45
116.1736,116.44065,59,45,45
116.44633,116.71337,59,50,45
116.99178,117.25883,57,60,45
117.26451,117.531555,57,65,45
240.07317,240.34023,62,45,45
240.3459,240.61295,62,45,45
240.89136,241.1584,60,45,45
241.16408,241.43112,60,45,45
242.52771,242.79475,59,45,45
242.80045,243.06749,59,50,45
243.3459,243.61295,57,60,45
243.61862,243.88567,57,65,45
381.76468,382.03174,67,60,45
382.0374,382.30447,62,60,45
382.5829,382.8499,66,60,45
382.8556,383.12265,60,60,45
383.40106,383.6681,64,60,45
383.67377,383.94083,59,60,45
384.21924,384.48627,62,60,45
384.49197,384.759,57,60,45
385.0374,385.30447,64,60,45
385.31015,385.57718,59,60,45
385.8556,386.12265,64,60,45
386.12833,386.39536,60,60,45
386.67377,386.94083,69,60,45
386.9465,387.21356,64,60,45
387.49194,387.759,68,60,45
387.76468,388.03174,62,60,45
388.31015,388.57718,66,60,45
388.58286,388.8499,60,60,45
389.12833,389.39536,64,60,45
389.40106,389.6681,59,60,45
389.9465,390.21353,67,60,45
390.21924,390.48627,57,60,45
390.76468,391.21924,57,60,45
390.76468,391.21924,66,60,45
391.58286,391.8499,67,60,45
391.8556,392.12265,67,60,45
392.40103,392.6681,66,60,45
392.67377,392.94083,66,60,45
393.21924,393.48627,64,60,45
393.49194,393.759,64,60,45
394.0374,394.30444,66,60,45
394.31012,394.57718,66,60,45
394.8556,395.12262,64,60,45
395.12833,395.39536,64,60,45
395.67377,395.94083,64,60,45
395.9465,396.21353,64,60,45
396.49194,396.759,72,60,45
396.76468,397.0317,72,60,45
397.31012,397.57718,71,60,45
397.58286,397.8499,71,60,45
398.9465,399.21353,69,60,45
399.2192,399.48627,69,63,45
399.76468,400.0317,67,69,45
400.0374,400.30444,67,72,45
411.2192,411.48627,72,60,45
411.49194,411.75897,72,60,45
412.03738,412.30444,71,60,45
412.31012,412.57715,71,60,45
413.67374,413.9408,69,60,45
413.94647,414.21353,69,63,45
414.49194,414.75897,67,69,45
414.76465,415.0317,67,72,45
416.1283,416.39532,72,92,45
416.40103,416.66806,69,92,45
416.67374,416.9408,66,92,45
416.94647,417.21353,62,92,45
417.2192,417.48624,71,92,45
417.4919,417.75897,67,92,45
417.76465,418.0317,64,92,45
418.03738,418.3044,60,92,45
418.31012,418.57715,57,92,45
418.58282,419.03738,54,92,45
419.40103,419.85556,53,92,45
419.40103,419.85556,57,92,45
419.40103,419.85556,62,92,45
419.40103,419.85556,69,92,45
421.03738,421.4919,52,92,45
421.03738,421.4919,61,92,45
421.03738,421.4919,69,92,45
421.85556,422.31012,51,92,45
421.85556,422.31012,60,92,45
421.85556,422.31012,67,92,45
423.4919,423.94647,50,71,45
423.4919,423.94647,59,71,45
423.4919,423.94647,67,71,45
424.3101,424.76465,50,60,45
424.3101,424.76465,58,60,45
424.3101,424.76465,67,60,45
425.94647,426.401,50,60,45
425.94647,426.401,59,60,45
425.94647,426.401,67,60,45
426.76465,427.21918,50,60,45
426.76465,427.21918,58,60,45
426.76465,427.21918,67,60,45
428.401,428.85556,51,60,45
428.401,428.85556,58,60,45
428.401,428.85556,67,60,45
429.21918,429.67374,51,60,45
429.21918,429.67374,60,60,45
429.21918,429.67374,68,60,45
430.85556,431.3101,52,60,45
430.85556,431.3101,62,60,45
430.85556,431.3101,68,60,45
431.67374,432.12827,52,60,45
431.67374,432.12827,62,60,45
431.67374,432.12827,71,60,45
432.4919,432.94647,52,60,45
432.4919,432.94647,60,60,45
432.4919,432.94647,69,60,45
433.3101,433.7863,60,60,45
433.3101,433.7863,66,60,45
433.3101,433.7863,69,60,45
461.45538,461.7224,62,92,45
461.72812,461.99515,62,75,45
462.00082,462.26788,62,60,45
462.27356,462.5406,67,60,45
462.5463,463.00082,62,60,45
463.09174,463.3588,64,60,45
463.36447,463.819,62,60,45
463.9099,464.17456,60,60,45
464.18018,464.44482,57,59,45
464.45047,464.7151,62,58,45
464.72073,464.98538,59,57,45
464.991,465.25565,55,55,45
465.26126,465.5259,62,53,45
465.53156,465.79617,60,51,45
465.80182,466.06644,57,49,45
466.07208,466.33673,62,47,45
466.34235,466.6046,59,45,45
466.6102,466.8725,55,45,45
466.87805,467.14035,54,45,45
467.14594,467.4082,52,45,45
467.4138,467.67606,54,45,45
467.68164,467.9439,50,45,45
467.9495,468.21176,55,45,45
468.21735,468.4796,54,45,45
468.4852,468.7475,50,45,45
468.75305,469.01303,52,45,45
469.01855,469.2785,57,50,45
469.54953,469.80948,50,60,45
469.815,470.07495,57,65,45
470.34598,470.60593,49,75,45
470.61148,470.87143,57,80,45
471.14246,471.40012,50,92,45
471.4056,471.66327,54,92,45
471.66876,471.92642,57,92,45
471.93192,472.18958,55,92,45
472.19507,472.45276,54,92,45
472.45822,472.7159,50,92,45
472.72137,472.97906,61,92,45
472.98456,473.24222,62,92,45
473.2477,473.50537,50,75,45
473.51086,473.7663,66,60,45
473.77173,474.02716,62,60,45
474.0326,474.28802,60,60,45
474.29346,474.5489,59,60,45
474.55435,474.9891,62,60,45
475.07608,475.3315,67,60,45
475.33694,475.77173,66,60,45
475.85867,476.1119,52,92,45
476.1173,476.37054,56,92,45
476.37592,476.62915,59,92,45
476.63455,476.8878,57,92,45
476.89316,477.1464,56,92,45
477.1518,477.40503,52,92,45
477.4104,477.66364,63,92,45
477.66904,477.92227,64,92,45
477.92764,478.18088,52,75,45
478.18628,478.43735,68,60,45
478.4427,478.69376,64,60,45
478.6991,478.95016,62,60,45
478.9555,479.20657,60,60,45
479.2119,479.63925,64,60,45
479.72473,479.9758,69,60,45
479.98114,480.40848,68,60,45
4.909086,5.0397677,57,40,42
5.0454497,5.1761312,57,40,42
5.181813,5.3124948,57,40,42
5.3181763,5.4488583,57,40,42
5.45454,5.585222,57,40,42
5.5909033,5.7215853,57,40,42
5.727267,5.857949,62,40,42
5.8636303,5.9943123,62,40,42
5.999994,6.130676,57,40,42
6.1363573,6.2670393,57,40,42
6.272721,6.403403,57,40,42
6.4090843,6.5397663,57,40,42
6.545448,6.67613,59,40,42
6.6818113,6.8124933,59,40,42
6.818175,6.948857,57,40,42
6.9545383,7.0852203,57,40,42
7.090902,7.221584,57,40,42
7.2272654,7.3579473,57,40,42
7.363629,7.488629,52,40,42
7.494064,7.619064,55,42,42
7.6244984,7.7494984,57,44,42
7.7549334,7.8799334,57,46,42
7.885368,8.010368,57,48,42
8.015802,8.140802,57,50,42
8.146237,8.271237,52,52,42
8.276672,8.401672,55,54,42
8.407107,8.532107,57,56,42
8.537541,8.662541,57,58,42
8.667976,8.792976,57,60,42
8.798411,8.923411,57,62,42
8.928846,9.053846,59,64,42
9.05928,9.18428,55,66,42
9.189715,9.314715,50,68,42
9.32015,9.44515,50,71,42
9.450585,9.575585,50,74,42
9.581019,9.706019,50,77,42
9.711454,9.831246,52,80,42
9.836454,9.956246,55,80,42
9.961454,10.081246,57,72,42
10.086454,10.206246,57,64,42
10.211454,10.331246,57,56,42
10.336454,10.456246,57,48,42
10.461454,10.716889,55,40,42
11.244063,11.511108,48,40,42
12.062244,12.329289,38,100,42
12.062244,12.329289,45,100,42
12.062244,12.329289,50,100,42
12.062244,12.329289,60,100,42
17.131071,17.403797,47,60,42
17.403797,17.676525,48,60,42
17.676525,17.943571,50,60,42
17.949251,18.676523,52,60,42
18.767433,19.494705,50,60,42
19.585613,19.858341,48,60,42
19.858341,20.131067,50,60,42
20.131067,20.398113,48,60,42
20.403795,20.85834,47,60,42
20.94925,21.216293,50,60,42
21.221975,21.676521,50,60,42
21.76743,22.034475,57,60,42
22.040157,22.494701,57,60,42
22.585611,22.852655,57,60,42
22.858337,23.312883,55,60,42
23.403791,23.670837,55,60,42
23.67652,24.131063,54,60,42
24.221973,24.489017,54,60,42
24.4947,24.949245,55,60,42
25.040154,25.3072,50,60,42
25.312881,25.767426,50,60,42
25.858335,26.12538,50,60,42
26.131062,26.585608,52,60,42
26.676516,26.943562,57,60,42
26.949244,27.403788,57,60,42
27.494698,27.761742,50,62,42
27.767424,28.22197,50,63,42
28.312878,28.579924,50,65,42
28.585606,29.04015,50,66,42
29.13106,29.398104,50,68,42
29.403786,29.858332,55,69,42
29.94924,30.216286,55,71,42
30.221968,30.676512,52,72,42
30.767422,31.034466,52,74,42
31.040148,31.494694,57,75,42
31.585602,31.852648,57,78,42
31.85833,32.312874,54,80,42
32.40378,32.67083,54,80,42
32.67651,33.131054,59,80,42
33.221966,33.48901,55,80,42
33.49469,33.949238,55,80,42
34.040146,34.30719,52,80,42
34.312874,34.767418,54,80,42
34.858326,35.12537,50,67,42
35.131054,35.607243,50,61,42
35.70248,35.982243,45,47,42
35.988194,36.488194,45,40,42
39.34274,40.07001,57,40,42
40.16092,40.2916,62,40,42
40.433647,40.88819,57,40,42
40.9791,41.109783,58,40,42
41.251827,41.70637,57,40,42
41.79728,41.865463,57,40,42
41.865463,41.933643,58,41,42
41.933643,42.070007,57,42,42
42.070007,42.342735,53,44,42
42.342735,42.60978,55,48,42
42.615463,43.070007,57,52,42
44.251823,44.979095,64,80,42
45.070004,45.200687,69,80,42
45.34273,45.797276,64,80,42
45.888187,46.018867,66,80,42
46.16091,46.61546,64,60,42
46.706367,47.797276,60,40,42
47.797276,48.070004,57,40,42
48.070004,48.337048,55,40,42
48.342728,49.433636,54,40,42
49.433636,49.706364,55,40,42
49.706364,49.97909,57,40,42
49.97909,50.25182,59,40,42
50.25182,50.524544,55,40,42
50.524544,50.79159,54,40,42
50.79727,51.524544,52,40,42
51.61545,51.88818,52,40,42
51.88818,52.160908,54,44,42
52.160908,52.70636,55,48,42
52.70636,52.979088,57,56,42
52.979088,53.524544,59,60,42
53.524544,53.797268,60,68,42
53.797268,54.34976,62,72,42
54.35571,54.8319,64,80,42
54.92714,55.220886,64,80,42
55.22714,55.72714,57,74,42
55.827137,56.13313,57,61,42
56.139637,56.660473,54,54,42
56.764637,57.037365,47,40,42
57.037365,57.310093,48,40,42
57.310093,57.577137,50,40,42
57.58282,58.401,52,40,42
58.401,59.128273,50,40,42
59.21918,59.49191,48,40,42
59.49191,59.764633,50,40,42
59.764633,60.03168,48,40,42
60.03736,60.31009,47,40,42
60.31009,60.582817,50,40,42
60.582817,60.84986,55,40,42
60.85554,61.582813,54,40,42
61.673725,61.94645,43,40,42
61.94645,62.219177,45,53,42
62.219177,62.48622,47,66,42
62.491905,63.310085,48,80,42
63.310085,64.03736,47,60,42
64.128265,64.40099,45,40,42
64.40099,64.67372,47,40,42
64.67372,64.940765,45,40,42
64.94645,65.40099,43,40,42
65.491905,65.75895,47,45,42
65.764626,66.4919,50,47,42
66.58281,67.03735,52,54,42
67.128265,67.39531,57,59,42
67.40099,67.85554,55,61,42
67.94644,68.21349,55,66,42
68.21917,68.67371,54,68,42
68.764626,69.03167,59,73,42
69.03735,69.51354,55,75,42
69.60878,69.88854,61,80,42
69.89449,70.39449,57,82,42
70.49449,70.788246,63,88,42
70.794495,71.32081,59,91,42
71.42607,71.73528,64,97,42
71.74186,72.0089,61,100,42
75.01459,75.14527,66,40,42
75.15095,75.28163,64,40,42
75.287315,75.41799,63,40,42
75.423676,75.55436,61,40,42
75.56004,75.69072,59,40,42
75.6964,75.82709,57,40,42
75.83276,75.96913,56,40,42
76.10549,76.24186,59,40,42
76.65095,76.78163,66,40,42
76.78731,76.91799,64,41,42
76.923676,77.05436,63,42,42
77.060036,77.19072,61,43,42
77.1964,77.32709,59,44,42
77.33276,77.46345,57,45,42
77.46913,77.60549,55,46,42
77.74186,77.87822,62,49,42
78.28731,78.41799,66,55,42
78.423676,78.55435,64,56,42
78.560036,78.69072,62,57,42
78.6964,78.82708,60,58,42
78.83276,78.96345,59,60,42
78.969124,79.09981,57,62,42
79.10549,79.248344,55,64,42
79.391205,79.534065,54,68,42
79.96263,80.106384,58,76,42
80.11263,80.256386,56,78,42
80.262634,80.40638,54,80,42
80.412636,80.55638,52,82,42
80.56263,80.70638,50,84,42
80.71263,80.856384,49,86,42
80.86263,81.02053,47,88,42
81.17842,81.33632,52,92,42
81.49421,81.65211,40,96,42
81.81,82.07704,45,100,42
83.99181,84.25886,57,100,42
84.26454,84.81,69,100,42
84.81,85.07704,62,100,42
85.082726,85.62818,67,100,42
85.62818,85.895226,61,100,42
85.9009,86.44636,66,100,42
86.44636,86.7134,59,100,42
86.719086,86.99181,64,100,42
86.99181,87.26454,57,100,42
87.26454,87.531586,64,100,42
87.53727,87.81,66,100,42
87.81,88.08272,59,100,42
88.08272,88.34977,66,100,42
88.355446,88.628174,67,100,42
88.628174,89.08272,71,100,42
89.17363,89.719086,71,100,42
89.719086,89.98613,64,100,42
89.99181,90.53726,69,100,42
90.53726,90.804306,63,100,42
90.80999,91.355446,67,100,42
91.355446,91.62249,61,100,42
91.628174,91.9009,66,100,42
91.9009,92.17363,59,94,42
92.17363,92.440674,66,88,42
92.44635,92.71908,68,81,42
92.71908,92.991806,69,74,42
92.991806,93.25885,71,67,42
93.264534,93.71908,69,60,42
108.809975,109.0827,64,60,42
109.0827,109.35543,57,60,42
109.35543,109.622475,64,60,42
109.62815,110.35542,66,60,42
110.446335,110.71906,64,60,42
110.71906,110.99179,57,60,42
110.99179,111.258835,64,60,42
111.26452,111.99179,66,60,42
112.082695,112.35542,64,76,42
112.35542,112.62815,57,81,42
112.62815,112.895195,64,86,42
112.90088,113.17361,63,92,42
113.17361,113.446335,57,75,42
113.446335,113.71338,63,60,42
113.71906,114.17361,62,45,42
118.62814,118.89519,67,92,42
118.90087,119.167915,64,92,42
119.1736,119.44064,61,92,42
119.44633,119.71337,57,92,42
119.719055,119.84973,66,92,42
119.855415,119.9861,64,92,42
119.99178,120.12246,62,92,42
120.12814,120.25883,61,92,42
120.2645,120.39519,59,92,42
120.40087,120.531555,57,92,42
120.53723,120.667915,55,92,42
120.6736,120.804276,54,92,42
120.80996,120.94064,52,92,42
120.94633,121.077,50,92,42
121.08269,121.34973,49,92,42
121.90087,122.167915,48,92,42
131.2632,131.39388,57,40,42
131.39957,131.53024,57,40,42
131.53593,131.66661,57,40,42
131.67229,131.80298,57,40,42
131.80865,131.93933,57,40,42
131.94502,132.0757,57,40,42
132.08138,132.21207,62,40,42
132.21774,132.34842,62,40,42
132.35411,132.48479,57,40,42
132.49048,132.62115,57,40,42
132.62683,132.75752,57,40,42
132.7632,132.89388,57,40,42
132.89957,133.03024,59,40,42
133.03592,133.16661,59,40,42
133.17229,133.30296,57,40,42
133.30865,133.43933,57,40,42
133.44502,133.5757,57,40,42
133.58138,133.71207,57,40,42
133.71774,133.84274,52,40,42
133.84818,133.97318,55,42,42
133.9786,134.1036,57,44,42
134.10905,134.23405,57,46,42
134.23949,134.36449,57,48,42
134.36992,134.49492,57,50,42
134.50035,134.62535,52,52,42
134.63078,134.75578,55,54,42
134.76122,134.88622,57,56,42
134.89166,135.01666,57,58,42
135.0221,135.1471,57,60,42
135.15253,135.27753,57,62,42
135.28296,135.40796,59,64,42
135.41339,135.53839,55,66,42
135.54382,135.66882,50,68,42
135.67427,135.79927,50,71,42
135.8047,135.9297,50,74,42
135.93513,136.06013,50,77,42
136.06557,136.18536,52,80,42
136.19057,136.31036,55,80,42
136.31557,136.43536,57,72,42
136.44057,136.56036,57,64,42
136.56557,136.68536,57,56,42
136.69057,136.81036,57,48,42
136.81557,137.071,55,40,42
137.59818,137.86522,48,40,42
138.41635,138.68341,38,100,42
138.41635,138.68341,45,100,42
138.41635,138.68341,50,100,42
138.41635,138.68341,60,100,42
143.48518,143.75792,47,60,42
143.75792,144.03064,48,60,42
144.03064,144.29768,50,60,42
144.30336,145.03064,52,60,42
145.12155,145.84882,50,60,42
145.93973,146.21245,48,60,42
146.21245,146.48518,50,60,42
146.48518,146.75223,48,60,42
146.7579,147.21245,47,60,42
147.30336,147.5704,50,60,42
147.5761,148.03064,50,60,42
148.12155,148.3886,57,60,42
148.39427,148.84882,57,60,42
148.93973,149.20677,57,60,42
149.21245,149.66699,55,60,42
149.7579,150.02495,55,60,42
150.03064,150.48518,54,60,42
150.57608,150.84314,54,60,42
150.84882,151.30336,55,60,42
151.39427,151.66132,50,60,42
151.66699,152.12154,50,60,42
152.21245,152.47949,50,60,42
152.48517,152.93973,52,60,42
153.03062,153.29767,57,60,42
153.30336,153.7579,57,60,42
153.84882,154.11586,50,62,42
154.12154,154.57608,50,63,42
154.66699,154.93404,50,65,42
154.93971,155.39426,50,66,42
155.48517,155.75221,50,68,42
155.7579,156.21245,55,69,42
156.30336,156.5704,55,71,42
156.57608,157.03062,52,72,42
157.12154,157.38858,52,74,42
157.39426,157.8488,57,75,42
157.93971,158.20676,57,78,42
158.21245,158.66699,54,80,42
158.7579,159.02495,54,80,42
159.03062,159.48517,59,80,42
159.57608,159.84312,55,80,42
159.8488,160.30334,55,80,42
160.39426,160.6613,52,80,42
160.66699,161.12154,54,80,42
161.21243,161.47949,50,67,42
161.48517,161.96135,50,61,42
162.0566,162.33635,45,47,42
162.34232,162.84232,45,40,42
165.69685,166.42412,57,40,42
166.51503,166.64572,62,40,42
166.78777,167.24231,57,40,42
167.33322,167.4639,58,40,42
167.60594,168.06049,57,40,42
168.1514,168.21957,57,40,42
168.21957,168.28777,58,41,42
168.28777,168.42412,57,42,42
168.42412,168.69685,53,44,42
168.69685,168.9639,55,48,42
168.96957,169.42412,57,52,42
170.60594,171.3332,64,80,42
171.42412,171.5548,69,80,42
171.69684,172.1514,64,80,42
172.2423,172.37299,66,80,42
172.51503,172.96957,64,60,42
173.06049,174.15138,60,40,42
174.15138,174.42412,57,40,42
174.42412,174.69116,55,40,42
174.69684,175.78775,54,40,42
175.78775,176.06047,55,40,42
176.06047,176.3332,57,40,42
176.3332,176.60593,59,40,42
176.60593,176.87866,55,40,42
176.87866,177.1457,54,40,42
177.15138,177.87866,52,40,42
177.96957,178.2423,52,40,42
178.2423,178.51501,54,44,42
178.51501,179.06047,55,48,42
179.06047,179.3332,57,56,42
179.3332,179.87866,59,60,42
179.87866,180.15138,60,68,42
180.15138,180.70387,62,72,42
180.70982,181.18602,64,80,42
181.28125,181.575,64,80,42
181.58125,182.08125,57,74,42
182.18126,182.48724,57,61,42
182.49376,183.01459,54,54,42
183.11876,183.39148,47,40,42
183.39148,183.6642,48,40,42
183.6642,183.93124,50,40,42
183.93694,184.75511,52,40,42
184.75511,185.48239,50,40,42
185.57329,185.84602,48,40,42
185.84602,186.11874,50,40,42
186.11874,186.38579,48,40,42
186.39148,186.6642,47,40,42
186.6642,186.93694,50,40,42
186.93694,187.20398,55,40,42
187.20966,187.93694,54,40,42
188.02783,188.30057,43,40,42
188.30057,188.57329,45,53,42
188.57329,188.84033,47,66,42
188.84602,189.6642,48,80,42
189.6642,190.39148,47,60,42
190.48238,190.75511,45,40,42
190.75511,191.02783,47,40,42
191.02783,191.29488,45,40,42
191.30057,191.75511,43,40,42
191.84602,192.11307,47,45,42
192.11874,192.84601,50,47,42
192.93692,193.39146,52,54,42
193.48238,193.74942,57,59,42
193.75511,194.20966,55,61,42
194.30055,194.56761,55,66,42
194.57329,195.02783,54,68,42
195.11874,195.38579,59,73,42
195.39146,195.86766,55,75,42
195.96289,196.24266,61,80,42
196.24861,196.74861,57,82,42
196.8486,197.14236,63,88,42
197.1486,197.67493,59,91,42
197.78018,198.0894,64,97,42
198.09598,198.36302,61,100,42
201.3687,201.49937,66,40,42
201.50507,201.63574,64,40,42
201.64143,201.77211,63,40,42
201.77779,201.90848,61,40,42
201.91415,202.04483,59,40,42
202.05052,202.1812,57,40,42
202.18687,202.32324,56,40,42
202.45961,202.59598,59,40,42
203.00507,203.13574,66,40,42
203.14142,203.27211,64,41,42
203.27779,203.40848,63,42,42
203.41415,203.54483,61,43,42
203.55052,203.6812,59,44,42
203.68687,203.81757,57,45,42
203.82324,203.95961,55,46,42
204.09596,204.23233,62,49,42
204.64142,204.77211,66,55,42
204.77779,204.90846,64,56,42
204.91415,205.04483,62,57,42
205.05052,205.1812,60,58,42
205.18687,205.31757,59,60,42
205.32324,205.45392,57,62,42
205.45961,205.60246,55,64,42
205.74532,205.88818,54,68,42
206.31674,206.4605,58,76,42
206.46675,206.6105,56,78,42
206.61674,206.7605,54,80,42
206.76675,206.91049,52,82,42
206.91675,207.0605,50,84,42
207.06674,207.2105,49,86,42
207.21675,207.37465,47,88,42
207.53253,207.69043,52,92,42
207.84833,208.00623,40,96,42
208.16411,208.43115,45,100,42
210.34593,210.61298,57,100,42
210.61865,211.16411,69,100,42
211.16411,211.43115,62,100,42
211.43684,211.98228,67,100,42
211.98228,212.24934,61,100,42
212.25502,212.80048,66,100,42
212.80048,213.06752,59,100,42
213.0732,213.34593,64,100,42
213.34593,213.61865,57,100,42
213.61865,213.8857,64,100,42
213.89139,214.16411,66,100,42
214.16411,214.43683,59,100,42
214.43683,214.70387,66,100,42
214.70956,214.98228,67,100,42
214.98228,215.43683,71,100,42
215.52774,216.0732,71,100,42
216.0732,216.34024,64,100,42
216.34592,216.89137,69,100,42
216.89137,217.15842,63,100,42
217.16411,217.70956,67,100,42
217.70956,217.97661,61,100,42
217.98228,218.25502,66,100,42
218.25502,218.52774,59,94,42
218.52774,218.79478,66,88,42
218.80046,219.0732,68,81,42
219.0732,219.34592,69,74,42
219.34592,219.61296,71,67,42
219.61865,220.0732,69,60,42
235.1641,235.43681,64,60,42
235.43681,235.70953,57,60,42
235.70953,235.9766,64,60,42
235.98227,236.70953,66,60,42
236.80045,237.07318,64,60,42
237.07318,237.3459,57,60,42
237.3459,237.61295,64,60,42
237.61864,238.3459,66,60,42
238.43681,238.70953,64,76,42
238.70953,238.98227,57,81,42
238.98227,239.24931,64,86,42
239.25499,239.52773,63,92,42
239.52773,239.80045,57,75,42
239.80045,240.06749,63,60,42
240.07317,240.52773,62,45,42
244.98225,245.2493,67,92,42
245.25499,245.52203,64,92,42
245.52771,245.79475,61,92,42
245.80045,246.06749,57,92,42
246.07317,246.20384,66,92,42
246.20953,246.34021,64,92,42
246.3459,246.47658,62,92,42
246.48225,246.61295,61,92,42
246.61862,246.7493,59,92,42
246.75499,246.88567,57,92,42
246.89134,247.02203,55,92,42
247.02771,247.15839,54,92,42
247.16408,247.29475,52,92,42
247.30045,247.43112,50,92,42
247.4368,247.70384,49,92,42
248.25499,248.52203,48,92,42
275.85626,276.65625,62,74,42
276.75626,277.59836,50,83,42
277.7036,277.97067,49,92,42
278.5218,278.6525,54,92,42
278.65817,278.78885,54,92,42
278.79453,278.9252,54,92,42
278.9309,279.06158,54,92,42
279.06726,279.19794,54,92,42
279.2036,279.3343,54,92,42
279.34,279.47067,59,92,42
279.47635,279.60703,59,92,42
279.6127,279.74338,54,92,42
279.74908,279.87976,54,92,42
279.88544,280.0161,54,92,42
280.0218,280.1525,54,92,42
280.15817,280.28885,55,92,42
280.29453,280.4252,55,92,42
280.43088,280.56158,53,92,42
280.56726,280.69794,53,92,42
280.7036,280.8343,53,92,42
280.84,280.97067,53,92,42
280.97635,281.10703,52,92,42
281.1127,281.24338,52,92,42
281.24908,281.37976,52,92,42
281.38544,281.5161,52,92,42
281.5218,281.6525,52,92,42
281.65817,281.78885,52,92,42
281.79453,281.9252,57,92,42
281.93088,282.06158,57,92,42
282.06726,282.19794,52,92,42
282.2036,282.3343,52,92,42
282.33997,282.47067,52,92,42
282.47635,282.60703,52,92,42
282.6127,282.74338,53,92,42
282.74908,282.87976,53,92,42
282.88544,283.0161,51,92,42
283.0218,283.15247,51,92,42
283.15817,283.28885,51,92,42
283.29453,283.4252,51,92,42
283.43088,283.56158,50,92,42
283.56726,283.69794,50,92,42
283.7036,283.8343,50,92,42
283.83997,283.97067,50,92,42
283.97635,284.10703,50,92,42
284.1127,284.24338,50,92,42
284.24908,284.37976,55,92,42
284.38544,284.5161,55,92,42
284.5218,284.65247,50,92,42
284.65817,284.78885,50,92,42
284.79453,284.9252,50,92,42
284.93088,285.06155,50,92,42
285.06726,285.19794,51,92,42
285.2036,285.3343,51,92,42
285.33997,285.47067,50,92,42
285.47635,285.60703,50,92,42
285.6127,285.74338,50,92,42
285.74905,285.87976,50,92,42
285.88544,286.0161,55,92,42
286.0218,286.15247,55,92,42
286.15817,286.28885,50,92,42
286.29453,286.4252,50,92,42
286.43088,286.56155,50,92,42
286.56726,286.69794,50,92,42
286.7036,286.8343,51,92,42
286.83997,286.97067,51,92,42
286.97635,287.10703,50,92,42
287.1127,287.24338,50,92,42
287.24905,287.37976,50,92,42
287.38544,287.5161,50,92,42
287.5218,287.65247,55,92,42
287.65817,287.78885,55,92,42
287.79453,287.9252,48,92,42
287.93088,288.06155,48,92,42
288.06726,288.19794,48,92,42
288.2036,288.3343,48,92,42
288.33997,288.47064,60,92,42
288.47635,288.60703,60,92,42
288.6127,288.74338,48,92,42
288.74905,288.87976,48,92,42
288.88544,289.0161,48,92,42
289.0218,289.15247,48,92,42
289.15814,289.28885,60,92,42
289.29453,289.4252,60,92,42
289.43088,289.56155,48,92,42
289.56726,289.69794,48,92,42
289.7036,289.8343,48,92,42
289.83997,289.97064,48,92,42
289.97635,290.24338,50,92,42
292.43088,292.56155,52,60,42
292.56723,292.69794,52,60,42
292.7036,292.8343,52,60,42
292.83997,292.97064,52,60,42
292.97635,293.10703,52,60,42
293.1127,293.24338,52,60,42
294.06723,294.19794,38,60,42
294.2036,294.3343,38,60,42
294.33997,294.47064,38,60,42
294.47632,294.60703,38,60,42
294.6127,294.74338,38,60,42
294.74905,294.87973,38,60,42
298.1971,298.34085,46,60,42
298.3471,298.49084,46,59,42
298.4971,298.64087,46,58,42
298.6471,298.79086,46,57,42
298.79712,298.94086,46,56,42
298.9471,299.09085,46,55,42
324.83002,325.10272,47,60,42
325.10272,325.37546,48,60,42
325.37546,325.6482,50,60,42
325.6482,326.46637,52,60,42
326.46637,327.19363,50,60,42
327.28455,327.55728,48,60,42
327.55728,327.83,50,60,42
327.83,328.10272,48,60,42
328.10272,328.6482,47,60,42
328.6482,328.91522,50,60,42
328.9209,329.37546,50,60,42
329.46637,329.7334,57,60,42
329.7391,330.19363,57,60,42
330.28455,330.55157,57,60,42
330.55728,331.0118,55,60,42
331.10272,331.36978,55,60,42
331.37546,331.83,54,60,42
331.9209,332.18796,54,60,42
332.19363,332.64816,55,60,42
332.73907,333.00613,50,60,42
333.0118,333.46637,50,60,42
333.55728,333.8243,50,60,42
333.83,334.28455,52,60,42
334.37546,334.6425,57,61,42
334.64816,335.10272,57,61,42
335.19363,335.46066,50,62,42
335.46637,335.9209,50,62,42
336.0118,336.27887,50,63,42
336.28455,336.73907,50,63,42
336.83,337.09705,50,64,42
337.10272,337.55725,55,64,42
337.64816,337.91522,55,65,42
337.9209,338.37546,52,65,42
338.46634,338.7334,52,66,42
338.73907,339.19363,57,66,42
339.28455,339.55157,57,67,42
339.55725,340.0118,54,67,42
340.10272,340.36975,54,68,42
340.37546,340.83,59,69,42
340.9209,341.18793,55,71,42
341.19363,341.64816,55,72,42
341.73907,342.00613,52,74,42
342.0118,342.46634,54,75,42
342.55725,342.8243,50,75,42
342.83,343.28455,50,75,42
343.37543,343.6425,45,75,42
343.64816,344.10272,45,75,42
346.9209,347.64816,57,60,42
347.73907,347.86975,62,60,42
348.0118,348.46634,57,60,42
348.55725,348.68793,58,62,42
348.83,349.28452,57,62,42
349.37543,349.4436,57,64,42
349.4436,349.5118,58,64,42
349.5118,349.64816,57,64,42
349.64816,349.9209,53,64,42
349.9209,350.18793,55,65,42
350.1936,350.64816,57,66,42
351.83,352.55725,64,75,42
352.64816,352.77884,69,75,42
352.9209,353.37543,64,75,42
353.46634,353.59702,66,75,42
353.73907,354.1936,64,60,42
354.28452,355.37543,60,45,42
355.37543,355.64816,57,45,42
355.64816,355.9152,55,45,42
355.92087,357.0061,54,45,42
357.01178,357.28452,55,45,42
357.28452,357.55725,57,45,42
357.55725,357.82996,59,45,42
357.82996,358.1027,55,45,42
358.1027,358.36975,54,45,42
358.37543,359.46634,52,45,42
359.46634,359.73907,54,61,42
359.73907,360.28452,55,65,42
360.28452,360.55725,57,73,42
360.55725,361.1027,59,77,42
361.1027,361.37543,60,87,42
361.37543,361.92792,62,92,42
361.93387,362.50528,64,92,42
362.50528,362.79904,64,84,42
362.8053,363.4053,57,80,42
363.4053,363.71127,57,72,42
363.7178,364.23862,54,68,42
364.3428,364.6155,47,60,42
364.6155,364.88824,48,60,42
364.88824,365.16098,50,60,42
365.16098,365.97916,52,60,42
365.97916,366.70642,50,60,42
366.79733,367.07007,48,60,42
367.07007,367.34277,50,60,42
367.34277,367.60983,48,60,42
367.6155,367.88824,47,60,42
367.88824,368.16098,50,60,42
368.16098,368.428,55,60,42
368.4337,369.16098,54,60,42
369.2519,369.5246,43,60,42
369.5246,369.79733,45,70,42
369.79733,370.07007,47,81,42
370.07007,370.88824,48,92,42
370.88824,371.6155,47,75,42
371.70642,371.97916,45,60,42
371.97916,372.25186,47,60,42
372.25186,372.51892,45,60,42
372.5246,373.07007,43,60,42
373.07007,373.3371,47,60,42
373.34277,374.07007,50,60,42
374.16095,374.70642,52,60,42
374.70642,374.97345,57,63,42
374.97916,375.4337,55,64,42
375.5246,375.79166,55,67,42
375.79733,376.34277,54,68,42
376.34277,376.60983,59,72,42
376.6155,377.18692,55,74,42
377.18692,377.4667,61,78,42
377.47266,378.07266,57,80,42
378.07266,378.3664,63,84,42
378.37265,378.68515,59,86,42
378.68515,378.99115,55,88,42
378.99765,379.30365,64,90,42
379.31015,379.57718,62,92,42
419.40103,419.66806,50,92,42
419.40103,419.66806,57,92,42
419.67374,419.9408,65,92,42
419.94647,420.2135,62,92,42
420.2192,420.48624,57,92,42
420.4919,420.75897,53,92,42
420.76465,421.0317,50,92,42
421.03738,421.4919,52,92,42
421.85556,422.12262,51,92,42
422.1283,422.39532,63,89,42
422.401,422.66806,60,86,42
422.67374,422.9408,55,83,42
422.94647,423.2135,51,80,42
423.2192,423.48624,48,76,42
423.4919,423.94647,50,72,42
435.06723,435.58807,50,75,42
436.00473,436.1411,51,92,42
436.27747,436.41382,63,92,42
436.5502,436.68655,60,92,42
436.8229,436.9593,55,92,42
437.09564,437.232,51,87,42
437.36838,437.50473,60,82,42
437.64108,437.77747,55,77,42
437.91382,438.0502,51,72,42
438.18655,438.3229,39,66,42
438.4593,438.91382,38,60,42
440.91382,441.36838,50,60,42
441.732,443.232,50,60,42
443.36838,443.8229,49,60,42
444.18655,445.68655,48,60,42
445.8229,446.64108,47,60,42
446.64108,447.45926,44,60,42
447.45926,448.18655,45,60,42
448.27747,449.09564,47,60,42
449.09564,449.91382,48,62,42
449.91382,450.64108,51,64,42
450.732,451.55017,52,66,42
451.55017,452.36835,51,68,42
452.36835,453.09564,50,70,42
453.18652,454.00473,48,72,42
454.00473,454.732,47,74,42
454.8229,455.64108,64,76,42
455.64108,456.4574,62,78,42
456.55945,457.49695,60,80,42
457.49695,458.34802,59,82,42
458.4544,459.32394,57,84,42
459.43265,460.32153,49,86,42
460.43265,461.34174,52,89,42
461.45538,461.7224,50,92,42
461.45538,461.7224,59,92,42
471.14246,471.26852,50,92,42
471.27402,471.40012,50,92,42
471.4056,471.5317,50,92,42
471.53717,471.66327,50,92,42
471.66876,471.79486,50,92,42
471.80032,471.92642,50,92,42
471.93192,472.058,55,92,42
472.0635,472.18958,55,92,42
472.19507,472.32117,50,92,42
472.32666,472.45276,50,92,42
472.45822,472.58432,50,92,42
472.5898,472.7159,50,92,42
472.72137,472.84747,52,92,42
472.85297,472.97906,52,92,42
472.98456,473.11063,50,92,42
473.11612,473.24222,50,92,42
473.2477,473.3738,50,75,42
473.37927,473.50537,50,75,42
475.85867,475.9826,52,92,42
475.988,476.1119,52,92,42
476.1173,476.24124,52,92,42
476.2466,476.37054,52,92,42
476.37592,476.49985,52,92,42
476.50525,476.62915,52,92,42
476.63455,476.75845,57,92,42
476.76385,476.8878,57,92,42
476.89316,477.0171,52,92,42
477.0225,477.1464,52,92,42
477.1518,477.2757,52,92,42
477.2811,477.40503,52,92,42
477.4104,477.53433,54,92,42
477.5397,477.66364,54,92,42
477.66904,477.79294,52,92,42
477.79834,477.92227,52,92,42
477.92764,478.05157,52,75,42
478.05695,478.18088,52,75,42
485.801,485.926,62,45,42
486.051,486.46765,55,69,42
486.551,486.676,55,63,42
486.801,487.21765,48,104,42
487.301,487.426,43,92,42
487.551,487.676,36,92,42
487.801,487.926,48,92,42
488.051,488.17078,50,107,42
488.176,488.29578,50,75,42
488.301,488.42078,50,75,42
488.426,488.54578,50,75,42
488.551,488.67078,50,75,42
488.676,488.79578,50,75,42
490.301,490.42078,55,92,42
490.426,490.54578,55,92,42
490.551,490.67078,55,92,42
490.676,490.79578,55,92,42
490.801,490.92078,55,92,42
490.926,491.04578,55,92,42
491.051,491.17078,60,92,42
491.176,491.29578,60,91,42
491.301,491.42078,55,90,42
491.426,491.54578,55,89,42
491.551,491.67078,55,88,42
491.676,491.79578,55,87,42
491.801,491.92078,60,86,42
491.926,492.04578,60,85,42
492.051,492.17078,58,84,42
492.176,492.29578,58,83,42
492.301,492.42078,58,82,42
492.426,492.54578,58,81,42
492.551,492.67078,57,80,42
492.676,492.79578,57,79,42
492.801,492.92078,57,78,42
492.926,493.04578,57,77,42
493.051,493.17078,57,76,42
493.176,493.29578,57,74,42
493.301,493.42078,62,72,42
493.426,493.54578,62,70,42
493.551,493.67078,57,68,42
493.676,493.79578,57,66,42
493.801,493.92078,57,64,42
493.926,494.04578,57,62,42
494.051,494.17078,62,60,42
494.176,494.29578,62,60,42
494.301,494.42078,60,60,42
494.426,494.54578,60,60,42
494.551,494.67078,60,60,42
494.676,494.79578,60,60,42
494.801,494.92078,59,60,42
494.926,495.04578,59,60,42
495.051,495.17078,59,60,42
495.176,495.29578,59,60,42
495.301,495.42078,59,60,42
495.426,495.54578,59,60,42
495.551,495.67078,64,60,42
495.676,495.79578,64,60,42
495.801,495.92078,62,60,42
495.926,496.04578,62,60,42
496.051,496.17078,62,60,42
496.176,496.29578,62,60,42
496.301,496.54578,60,60,42
496.551,496.92078,65,61,42
496.926,497.04578,63,62,42
497.051,497.29578,62,62,42
497.301,497.67078,67,63,42
497.676,497.79578,65,64,42
497.801,498.04578,64,64,42
498.051,498.42078,69,65,42
498.426,498.54578,67,67,42
498.551,498.79578,60,67,42
498.801,499.17078,69,68,42
499.176,499.29578,67,70,42
499.301,499.54578,60,70,42
499.551,499.92078,69,71,42
499.926,500.04578,67,73,42
500.051,500.29578,60,73,42
500.301,500.71765,69,74,42
500.801,501.21765,67,77,42
501.301,501.54578,60,80,42
501.551,501.96765,57,81,42
502.051,502.29578,55,84,42
502.301,502.426,48,86,42
502.551,502.96765,48,88,42
503.051,503.29578,53,92,42
503.801,503.92078,59,92,42
503.926,504.04578,59,92,42
504.051,504.17078,59,92,42
504.176,504.29578,59,92,42
504.301,504.42078,59,92,42
504.426,504.54578,59,92,42
505.301,505.42078,45,75,42
505.426,505.54578,45,75,42
505.551,505.67078,45,75,42
505.676,505.79578,45,75,42
505.801,505.92078,45,75,42
505.926,506.04578,45,75,42
506.801,506.92078,43,60,42
506.926,507.04578,43,60,42
507.051,507.17078,43,60,42
507.176,507.29578,43,60,42
507.301,507.42078,43,60,42
507.426,507.54578,43,60,42
509.801,509.92078,43,60,42
509.926,510.04578,43,60,42
510.051,510.17078,43,60,42
510.176,510.29578,43,60,42
510.301,510.42078,43,60,42
510.426,510.54578,43,60,42
511.301,511.42078,42,60,42
511.426,511.54578,42,60,42
511.551,511.67078,42,60,42
511.676,511.79578,42,60,42
511.801,511.92078,42,60,42
511.926,512.0458,42,60,42
512.051,512.2958,43,60,42
515.801,516.051,55,60,42
516.051,516.301,57,60,42
516.301,516.5458,59,60,42
516.551,517.051,64,60,42
517.051,517.2958,62,60,42
517.301,517.551,60,60,42
517.551,517.801,59,60,42
517.801,518.0458,57,60,42
518.051,518.2958,55,60,42
518.301,518.551,67,60,42
518.551,518.801,66,60,42
518.801,519.051,64,60,42
519.051,519.301,60,60,42
519.301,519.5458,57,60,42
519.551,519.801,55,60,42
519.801,520.0458,59,60,42
520.051,520.301,59,60,42
520.301,520.96765,60,92,42
521.051,521.46765,59,60,42
523.301,523.5458,43,60,42
523.551,523.7958,45,60,42
523.801,524.0458,47,60,42
524.051,524.71765,48,60,42
524.801,525.051,55,60,42
525.051,525.301,57,61,42
525.301,525.5458,59,62,42
525.551,526.051,64,63,42
526.051,526.2958,62,66,42
526.301,526.551,60,67,42
526.551,526.801,59,68,42
526.801,527.0458,57,70,42
527.051,527.2958,55,72,42
527.301,527.551,67,74,42
527.551,527.801,66,76,42
527.801,528.051,64,78,42
528.051,528.301,60,80,42
528.301,528.5458,57,82,42
528.551,528.96765,55,84,42
529.551,529.801,71,92,42
529.801,530.051,69,75,42
530.051,530.301,67,60,42
530.301,530.551,64,60,42
530.551,530.7958,60,60,42
530.801,531.0458,59,60,42
531.051,531.301,62,60,42
531.301,531.551,67,60,42
531.551,532.051,74,60,42
532.051,532.2958,66,60,42
532.301,532.551,67,60,42
532.551,532.801,64,63,42
532.801,533.0458,60,66,42
533.051,533.301,67,69,42
533.301,533.551,62,72,42
533.551,533.7958,59,76,42
533.801,534.051,67,80,42
534.051,534.301,64,84,42
534.301,534.5458,57,88,42
534.551,534.7958,67,92,42
536.801,536.926,69,92,42
537.051,537.46765,64,92,42
537.551,537.676,60,92,42
537.801,538.21765,48,92,42
538.301,538.426,60,92,42
538.551,538.96765,48,92,42
539.051,539.176,50,92,42
539.301,539.71765,62,92,42
539.801,539.926,55,92,42
540.051,540.46765,52,92,42
540.551,540.676,50,92,42
540.801,541.21765,62,92,42
541.301,541.426,55,92,42
541.551,541.96765,52,92,42
542.051,542.176,50,92,42
542.301,542.71765,62,92,42
542.801,542.926,50,92,42
543.051,543.46765,62,92,42
543.551,543.67395,67,92,42
543.7969,544.2067,59,92,42
544.2887,544.4117,62,90,42
544.5346,544.94446,55,89,42
545.0264,545.14935,59,87,42
545.2723,545.39526,50,86,42
545.5182,545.6412,55,85,42
545.7641,545.8841,47,84,42
546.0041,546.1241,50,83,42
546.2441,546.36414,43,82,42
546.48413,546.60913,47,81,42
546.73413,546.85913,38,80,42
546.98413,547.10913,43,79,42
547.23413,547.3705,38,78,42
547.50684,547.6432,43,77,42
547.77954,547.91595,38,76,42
548.0523,548.34607,43,75,42
550.1523,550.5195,50,92,42
551.2773,552.26685,43,92,42
551.2773,554.0273,50,92,42
551.5273,554.0273,59,92,42
103.90089,104.16793,52,92,45
104.173615,104.44066,64,92,45
104.44634,104.71339,61,92,45
104.71907,104.986115,57,92,45
104.9918,105.25884,54,92,45
105.26452,105.53157,50,92,45
105.53725,105.80429,47,92,45
105.809975,106.07702,43,92,45
106.0827,106.34975,40,92,45
106.35543,106.622475,37,92,45
107.173615,107.62816,36,92,45
230.255,230.52205,52,92,45
230.52773,230.79477,64,92,45
230.80046,231.0675,61,92,45
231.07318,231.34023,57,92,45
231.3459,231.61296,54,92,45
231.61864,231.88568,50,92,45
231.89136,232.1584,47,92,45
232.1641,232.43114,43,92,45
232.43681,232.70386,40,92,45
232.70955,232.9766,37,92,45
233.52773,233.98227,36,92,45
265.18094,265.448,52,45,45
265.45367,265.7207,52,45,45
265.7264,265.99344,52,45,45
265.9991,266.26617,57,45,45
266.27185,266.72638,52,45,45
266.8173,267.08435,54,45,45
267.09003,267.5446,52,45,45
267.6355,267.90253,50,45,45
267.9082,268.17526,47,45,45
268.18094,268.448,52,45,45
268.45367,268.7207,48,45,45
268.72638,268.99344,45,45,45
268.9991,269.26617,52,45,45
269.27185,269.53888,52,45,45
269.5446,269.8116,49,45,45
269.8173,270.08435,54,45,45
270.09003,270.3571,50,45,45
270.36276,270.6298,47,45,45
270.63547,270.90253,54,45,45
270.9082,271.17526,55,45,45
271.18094,271.44797,52,45,45
271.45367,271.7207,57,45,45
271.72638,271.99344,55,45,45
271.9991,272.26617,52,45,45
272.27185,272.53888,57,45,45
272.54456,272.8116,55,45,45
272.8173,273.08435,52,47,45
273.09003,273.35706,57,49,45
273.36276,273.6298,59,51,45
273.63547,273.90253,55,53,45
273.9082,274.17526,61,55,45
274.18094,274.44797,62,57,45
300.04446,300.49902,38,45,45
307.4081,307.86264,46,45,45
314.77173,315.2263,37,45,45
315.5899,316.04446,38,45,45
317.2263,317.68082,38,45,45
318.04446,318.499,43,49,45
319.68082,320.13538,43,58,45
321.31717,321.77173,36,69,45
322.13538,322.61154,43,75,45
323.89252,324.41333,36,75,45
381.76468,382.03174,59,92,45
382.0374,382.30447,59,92,45
382.5829,382.8499,57,92,45
382.8556,383.12265,57,92,45
383.40106,383.6681,55,92,45
383.67377,383.94083,55,92,45
384.21924,384.48627,54,92,45
384.49197,384.759,54,92,45
385.0374,385.30447,56,92,45
385.31015,385.57718,56,92,45
385.8556,386.12265,57,92,45
386.12833,386.39536,57,92,45
386.67377,386.94083,60,92,45
386.9465,387.21356,60,92,45
387.49194,387.759,59,92,45
387.76468,388.03174,59,92,45
388.31015,388.57718,57,92,45
388.58286,388.8499,57,92,45
389.12833,389.39536,56,92,45
389.40106,389.6681,56,90,45
389.9465,390.21353,57,84,45
390.21924,390.48627,57,81,45
390.76468,391.21924,38,75,45
401.40103,401.6681,57,92,45
401.67377,401.9408,69,92,45
401.9465,402.21353,66,92,45
402.2192,402.48627,62,92,45
402.49194,402.759,59,92,45
402.76468,403.0317,55,92,45
403.03738,403.30444,52,92,45
403.31012,403.57718,48,92,45
403.58286,403.84988,45,92,45
403.8556,404.12262,42,92,45
404.67377,404.9408,41,92,45
411.2192,411.67377,60,92,45
412.03738,412.49194,59,92,45
413.67374,414.1283,57,92,45
414.49194,414.94647,55,92,45
416.1283,416.39532,57,92,45
416.40103,416.66806,69,92,45
416.67374,416.9408,66,92,45
416.94647,417.21353,62,92,45
417.2192,417.48624,59,92,45
417.4919,417.75897,55,92,45
417.76465,418.0317,52,92,45
418.03738,418.3044,48,92,45
418.31012,418.57715,45,92,45
424.3101,424.76465,50,60,45
425.94647,426.401,50,60,45
426.76465,427.21918,50,60,45
428.401,428.85556,49,60,45
429.21918,429.67374,48,60,45
430.85556,431.3101,47,60,45
431.67374,432.12827,44,60,45
432.4919,432.94647,45,60,45
433.3101,433.7863,50,60,45
5.727267,5.857949,50,40,42
5.8636303,5.9943123,50,40,42
5.999994,6.130676,50,40,42
6.1363573,6.2670393,50,40,42
6.272721,6.403403,50,40,42
6.4090843,6.5397663,50,40,42
6.545448,6.67613,55,40,42
6.6818113,6.8124933,55,40,42
6.818175,6.948857,50,40,42
6.9545383,7.0852203,50,40,42
7.090902,7.221584,50,40,42
7.2272654,7.3579473,50,40,42
7.363629,7.488629,52,40,42
7.494064,7.619064,52,42,42
7.6244984,7.7494984,50,44,42
7.7549334,7.8799334,50,46,42
7.885368,8.010368,50,48,42
8.015802,8.140802,50,50,42
8.146237,8.271237,52,52,42
8.276672,8.401672,52,54,42
8.407107,8.532107,50,56,42
8.537541,8.662541,48,58,42
8.667976,8.792976,47,60,42
8.798411,8.923411,45,62,42
8.928846,9.053846,43,64,42
9.05928,9.18428,47,66,42
9.189715,9.314715,50,68,42
9.32015,9.44515,50,71,42
9.450585,9.575585,50,74,42
9.581019,9.706019,50,77,42
9.711454,9.831246,52,80,42
9.836454,9.956246,52,80,42
9.961454,10.081246,50,72,42
10.086454,10.206246,48,64,42
10.211454,10.331246,47,56,42
10.336454,10.456246,45,48,42
10.461454,10.586454,43,40,42
10.591889,10.716889,48,40,42
10.722324,10.847324,52,45,42
11.244063,11.312244,36,66,42
11.380426,11.511108,43,71,42
11.51679,11.647471,48,76,42
12.062244,12.329289,38,100,42
12.607698,12.874743,50,100,42
12.880425,13.33497,50,87,42
13.425879,13.6929245,50,60,42
13.698606,14.153151,50,60,42
14.24406,14.511106,50,47,42
14.516787,14.992977,43,40,42
15.088215,15.367976,43,40,42
15.373929,15.850119,43,40,42
15.945357,16.225119,43,40,42
16.231071,16.731071,43,40,42
16.831072,17.12482,43,40,42
17.131071,17.585615,43,60,42
17.676525,17.943571,43,60,42
17.949251,18.403797,43,60,42
18.494705,18.761751,43,60,42
18.767433,19.221977,43,60,42
19.312887,19.579931,43,60,42
19.585613,20.04016,43,60,42
20.131067,20.398113,43,60,42
20.403795,20.85834,43,60,42
20.94925,21.216293,43,60,42
21.221975,21.676521,42,60,42
21.76743,22.034475,42,60,42
22.040157,22.494701,48,60,42
22.585611,22.852655,48,60,42
22.858337,23.312883,47,60,42
23.403791,23.670837,47,60,42
23.67652,24.131063,45,60,42
24.221973,24.489017,45,60,42
24.4947,24.949245,43,60,42
25.040154,25.3072,43,60,42
25.312881,25.767426,42,60,42
25.858335,26.12538,42,60,42
26.131062,26.585608,45,60,42
26.676516,26.943562,45,60,42
26.949244,27.403788,45,60,42
27.494698,27.761742,48,62,42
27.767424,28.22197,47,63,42
28.312878,28.579924,47,65,42
28.585606,29.04015,43,66,42
29.13106,29.398104,43,68,42
29.403786,29.858332,40,69,42
29.94924,30.216286,40,71,42
30.221968,30.676512,43,72,42
30.767422,31.034466,43,74,42
31.040148,31.494694,42,75,42
31.585602,31.852648,42,78,42
31.85833,32.312874,45,80,42
32.40378,32.67083,45,80,42
32.67651,33.131054,43,80,42
33.221966,33.48901,43,80,42
33.49469,33.949238,40,80,42
34.040146,34.30719,40,80,42
34.312874,34.767418,38,80,42
34.858326,35.12537,38,72,42
35.131054,35.607243,42,68,42
35.70248,35.982243,42,59,42
35.988194,36.488194,45,79,42
36.588196,36.881947,45,45,42
36.888195,37.34274,38,40,42
39.34274,40.07001,50,40,42
40.16092,40.2916,45,40,42
40.433647,40.88819,50,40,42
40.9791,41.109783,43,40,42
41.251827,41.70637,50,40,42
41.79728,42.52455,46,40,42
42.615463,43.070007,45,53,42
44.251823,44.979095,57,80,42
45.070004,45.200687,52,80,42
45.34273,45.797276,57,80,42
45.888187,46.018867,50,80,42
46.16091,46.61546,57,60,42
46.706367,47.797276,45,40,42
47.797276,48.070004,42,40,42
48.070004,48.337048,40,40,42
48.342728,49.433636,38,40,42
49.433636,49.706364,40,40,42
49.706364,49.97909,42,40,42
49.97909,50.25182,43,40,42
50.25182,50.524544,40,40,42
50.524544,50.79159,38,40,42
50.79727,51.524544,36,40,42
51.61545,51.88818,36,40,42
51.88818,52.160908,38,44,42
52.160908,52.70636,40,48,42
52.70636,52.979088,42,56,42
52.979088,53.524544,43,60,42
53.524544,53.797268,45,68,42
53.797268,54.34976,47,72,42
54.35571,54.8319,48,80,42
54.92714,55.220886,48,80,42
55.22714,56.13313,49,74,42
56.139637,56.660473,50,54,42
56.764637,57.219185,43,40,42
57.310093,57.577137,43,40,42
57.58282,58.037365,43,40,42
58.128273,58.395317,43,40,42
58.401,58.855545,43,40,42
58.946453,59.2135,43,40,42
59.21918,59.673725,43,40,42
59.764633,60.03168,43,40,42
60.03736,60.491905,43,40,42
60.582817,60.84986,43,40,42
60.85554,61.31009,43,40,42
61.400997,61.66804,43,40,42
61.673725,62.12827,55,40,42
62.219177,62.48622,55,40,42
62.491905,62.94645,55,40,42
63.037357,63.304405,55,40,42
63.310085,63.76463,55,40,42
63.85554,64.12258,55,40,42
64.128265,64.58281,55,40,42
64.67372,64.940765,55,44,42
64.94645,65.40099,55,46,42
65.491905,65.75895,55,50,42
65.764626,66.21918,54,52,42
66.31008,66.577126,54,56,42
66.58281,67.03735,45,58,42
67.128265,67.39531,48,62,42
67.40099,68.128265,52,64,42
68.21917,68.67371,47,71,42
68.764626,69.03167,50,75,42
69.03735,69.51354,49,77,42
69.60878,69.88854,52,82,42
69.89449,70.39449,51,84,42
70.49449,70.788246,54,89,42
70.794495,71.32081,52,91,42
71.42607,71.73528,55,97,42
71.74186,72.0089,54,100,42
75.01459,75.14527,63,40,42
75.15095,75.28163,61,40,42
75.287315,75.41799,59,40,42
75.423676,75.55436,57,40,42
75.56004,75.69072,56,40,42
75.6964,75.82709,54,40,42
75.83276,75.96913,52,40,42
76.10549,76.24186,47,40,42
76.65095,76.78163,63,40,42
76.78731,76.91799,61,41,42
76.923676,77.05436,59,42,42
77.060036,77.19072,57,43,42
77.1964,77.32709,55,44,42
77.33276,77.46345,54,45,42
77.46913,77.60549,52,46,42
77.74186,77.87822,50,49,42
79.10549,79.248344,55,66,42
79.391205,79.534065,54,69,42
80.86263,81.02053,47,88,42
81.17842,81.33632,52,92,42
81.49421,81.65211,40,96,42
81.81,82.07704,45,100,42
84.26454,84.719086,42,100,42
85.082726,85.53727,40,100,42
85.9009,86.35545,38,100,42
86.719086,87.17363,37,100,42
87.53727,87.99181,39,100,42
88.355446,88.80999,40,100,42
89.17363,89.628174,43,100,42
89.99181,90.44636,42,100,42
90.80999,91.264534,40,100,42
91.628174,92.08272,39,100,42
92.44635,92.9009,40,88,42
93.264534,93.71908,45,75,42
106.35543,106.622475,49,92,42
107.173615,107.71906,48,92,42
107.71906,108.809975,48,75,42
108.809975,111.258835,48,60,42
111.26452,112.76451,48,60,42
112.90088,113.62815,48,92,42
113.71906,114.17361,47,45,42
114.53724,114.99178,45,45,42
116.1736,116.62814,43,45,42
116.99178,117.44633,42,60,42
118.62814,118.89519,40,92,42
118.90087,119.167915,64,92,42
119.1736,119.44064,61,92,42
119.44633,119.71337,57,92,42
119.719055,119.9861,54,92,42
119.99178,120.25883,50,92,42
120.2645,120.531555,47,92,42
120.53723,120.804276,43,92,42
120.80996,121.077,40,92,42
121.08269,121.34973,37,92,42
121.90087,122.167915,36,92,42
132.08138,132.21207,50,40,42
132.21774,132.34842,50,40,42
132.35411,132.48479,50,40,42
132.49048,132.62115,50,40,42
132.62683,132.75752,50,40,42
132.7632,132.89388,50,40,42
132.89957,133.03024,55,40,42
133.03592,133.16661,55,40,42
133.17229,133.30296,50,40,42
133.30865,133.43933,50,40,42
133.44502,133.5757,50,40,42
133.58138,133.71207,50,40,42
133.71774,133.84274,52,40,42
133.84818,133.97318,52,42,42
133.9786,134.1036,50,44,42
134.10905,134.23405,50,46,42
134.23949,134.36449,50,48,42
134.36992,134.49492,50,50,42
134.50035,134.62535,52,52,42
134.63078,134.75578,52,54,42
134.76122,134.88622,50,56,42
134.89166,135.01666,48,58,42
135.0221,135.1471,47,60,42
135.15253,135.27753,45,62,42
135.28296,135.40796,43,64,42
135.41339,135.53839,47,66,42
135.54382,135.66882,50,68,42
135.67427,135.79927,50,71,42
135.8047,135.9297,50,74,42
135.93513,136.06013,50,77,42
136.06557,136.18536,52,80,42
136.19057,136.31036,52,80,42
136.31557,136.43536,50,72,42
136.44057,136.56036,48,64,42
136.56557,136.68536,47,56,42
136.69057,136.81036,45,48,42
136.81557,136.94057,43,40,42
136.946,137.071,48,40,42
137.07643,137.20143,52,45,42
137.59818,137.66635,36,66,42
137.73454,137.86522,43,71,42
137.87091,138.00159,48,76,42
138.41635,138.68341,38,100,42
138.9618,139.22885,50,100,42
139.23454,139.68909,50,87,42
139.78,140.04704,50,60,42
140.05272,140.50726,50,60,42
140.59818,140.86522,50,47,42
140.8709,141.34709,43,40,42
141.44232,141.72209,43,40,42
141.72804,142.20424,43,40,42
142.29947,142.57924,43,40,42
142.58519,143.08519,43,40,42
143.18518,143.47893,43,40,42
143.48518,143.93973,43,60,42
144.03064,144.29768,43,60,42
144.30336,144.7579,43,60,42
144.84882,145.11586,43,60,42
145.12155,145.5761,43,60,42
145.667,145.93405,43,60,42
145.93973,146.39427,43,60,42
146.48518,146.75223,43,60,42
146.7579,147.21245,43,60,42
147.30336,147.5704,43,60,42
147.5761,148.03064,42,60,42
148.12155,148.3886,42,60,42
148.39427,148.84882,48,60,42
148.93973,149.20677,48,60,42
149.21245,149.66699,47,60,42
149.7579,150.02495,47,60,42
150.03064,150.48518,45,60,42
150.57608,150.84314,45,60,42
150.84882,151.30336,43,60,42
151.39427,151.66132,43,60,42
151.66699,152.12154,42,60,42
152.21245,152.47949,42,60,42
152.48517,152.93973,45,60,42
153.03062,153.29767,45,60,42
153.30336,153.7579,45,60,42
153.84882,154.11586,48,62,42
154.12154,154.57608,47,63,42
154.66699,154.93404,47,65,42
154.93971,155.39426,43,66,42
155.48517,155.75221,43,68,42
155.7579,156.21245,40,69,42
156.30336,156.5704,40,71,42
156.57608,157.03062,43,72,42
157.12154,157.38858,43,74,42
157.39426,157.8488,42,75,42
157.93971,158.20676,42,78,42
158.21245,158.66699,45,80,42
158.7579,159.02495,45,80,42
159.03062,159.48517,43,80,42
159.57608,159.84312,43,80,42
159.8488,160.30334,40,80,42
160.39426,160.6613,40,80,42
160.66699,161.12154,38,80,42
161.21243,161.47949,38,72,42
161.48517,161.96135,42,68,42
162.0566,162.33635,42,59,42
162.34232,162.84232,45,79,42
162.9423,163.23605,45,45,42
163.24231,163.69685,38,40,42
165.69685,166.42412,50,40,42
166.51503,166.64572,45,40,42
166.78777,167.24231,50,40,42
167.33322,167.4639,43,40,42
167.60594,168.06049,50,40,42
168.1514,168.87866,46,40,42
168.96957,169.42412,45,53,42
170.60594,171.3332,57,80,42
171.42412,171.5548,52,80,42
171.69684,172.1514,57,80,42
172.2423,172.37299,50,80,42
172.51503,172.96957,57,60,42
173.06049,174.15138,45,40,42
174.15138,174.42412,42,40,42
174.42412,174.69116,40,40,42
174.69684,175.78775,38,40,42
175.78775,176.06047,40,40,42
176.06047,176.3332,42,40,42
176.3332,176.60593,43,40,42
176.60593,176.87866,40,40,42
176.87866,177.1457,38,40,42
177.15138,177.87866,36,40,42
177.96957,178.2423,36,40,42
178.2423,178.51501,38,44,42
178.51501,179.06047,40,48,42
179.06047,179.3332,42,56,42
179.3332,179.87866,43,60,42
179.87866,180.15138,45,68,42
180.15138,180.70387,47,72,42
180.70982,181.18602,48,80,42
181.28125,181.575,48,80,42
181.58125,182.48724,49,74,42
182.49376,183.01459,50,54,42
183.11876,183.5733,43,40,42
183.6642,183.93124,43,40,42
183.93694,184.39148,43,40,42
184.48239,184.74944,43,40,42
184.75511,185.20966,43,40,42
185.30057,185.56761,43,40,42
185.57329,186.02785,43,40,42
186.11874,186.38579,43,40,42
186.39148,186.84602,43,40,42
186.93694,187.20398,43,40,42
187.20966,187.6642,43,40,42
187.75511,188.02216,43,40,42
188.02783,188.48238,55,40,42
188.57329,188.84033,55,40,42
188.84602,189.30057,55,40,42
189.39148,189.65852,55,40,42
189.6642,190.11874,55,40,42
190.20966,190.4767,55,40,42
190.48238,190.93692,55,40,42
191.02783,191.29488,55,44,42
191.30057,191.75511,55,46,42
191.84602,192.11307,55,50,42
192.11874,192.57329,54,52,42
192.6642,192.93124,54,56,42
192.93692,193.39146,45,58,42
193.48238,193.74942,48,62,42
193.75511,194.48238,52,64,42
194.57329,195.02783,47,71,42
195.11874,195.38579,50,75,42
195.39146,195.86766,49,77,42
195.96289,196.24266,52,82,42
196.24861,196.74861,51,84,42
196.8486,197.14236,54,89,42
197.1486,197.67493,52,91,42
197.78018,198.0894,55,97,42
198.09598,198.36302,54,100,42
201.3687,201.49937,63,40,42
201.50507,201.63574,61,40,42
201.64143,201.77211,59,40,42
201.77779,201.90848,57,40,42
201.91415,202.04483,56,40,42
202.05052,202.1812,54,40,42
202.18687,202.32324,52,40,42
202.45961,202.59598,47,40,42
203.00507,203.13574,63,40,42
203.14142,203.27211,61,41,42
203.27779,203.40848,59,42,42
203.41415,203.54483,57,43,42
203.55052,203.6812,55,44,42
203.68687,203.81757,54,45,42
203.82324,203.95961,52,46,42
204.09596,204.23233,50,49,42
205.45961,205.60246,55,66,42
205.74532,205.88818,54,69,42
207.21675,207.37465,47,88,42
207.53253,207.69043,52,92,42
207.84833,208.00623,40,96,42
208.16411,208.43115,45,100,42
210.61865,211.0732,42,100,42
211.43684,211.89139,40,100,42
212.25502,212.70956,38,100,42
213.0732,213.52774,37,100,42
213.89139,214.34593,39,100,42
214.70956,215.16411,40,100,42
215.52774,215.98228,43,100,42
216.34592,216.80048,42,100,42
217.16411,217.61865,40,100,42
217.98228,218.43683,39,100,42
218.80046,219.255,40,88,42
219.61865,220.0732,45,75,42
232.70955,232.9766,49,92,42
233.52773,234.07318,48,92,42
234.07318,235.1641,48,75,42
235.1641,237.61295,48,60,42
237.61864,239.11862,48,60,42
239.25499,239.98227,48,92,42
240.07317,240.52773,47,45,42
240.89136,241.3459,45,45,42
242.52771,242.98225,43,45,42
243.3459,243.80045,42,60,42
244.98225,245.2493,40,92,42
245.25499,245.52203,64,92,42
245.52771,245.79475,61,92,42
245.80045,246.06749,57,92,42
246.07317,246.34021,54,92,42
246.3459,246.61295,50,92,42
246.61862,246.88567,47,92,42
246.89134,247.15839,43,92,42
247.16408,247.43112,40,92,42
247.4368,247.70384,37,92,42
248.25499,248.52203,36,92,42
278.5218,278.65817,42,92,42
278.79453,278.9309,42,92,42
279.06726,279.2036,42,92,42
279.34,279.47635,47,92,42
279.6127,280.06726,42,92,42
280.15817,280.29453,43,92,42
280.43088,280.88544,41,92,42
280.97635,281.1127,40,92,42
281.24908,281.38544,40,92,42
281.5218,281.65817,40,92,42
281.79453,281.93088,45,92,42
282.06726,282.5218,40,92,42
282.6127,282.74908,41,92,42
282.88544,283.33997,39,92,42
283.43088,283.56726,38,92,42
283.7036,283.83997,38,92,42
283.97635,284.1127,38,92,42
284.24908,284.38544,43,92,42
284.5218,284.97635,38,92,42
285.06726,285.2036,39,92,42
285.33997,285.79453,38,92,42
285.88544,286.0218,43,92,42
286.15817,286.6127,38,92,42
286.7036,286.83997,39,92,42
286.97635,287.43088,38,92,42
287.5218,287.65817,43,92,42
287.79453,288.24905,36,92,42
288.33997,288.47635,48,92,42
288.6127,289.06726,36,92,42
289.15814,289.29453,48,92,42
289.43088,289.88544,36,92,42
289.97635,290.24338,38,92,42
297.33997,297.47687,38,92,42
297.48282,297.61972,38,90,42
297.62567,297.76257,38,87,42
297.76852,297.90546,38,84,42
297.9114,298.0483,38,81,42
298.05426,298.19116,38,78,42
299.0971,299.2484,37,57,42
299.255,299.4063,37,54,42
299.4129,299.5642,37,51,42
299.5708,299.7221,37,48,42
299.7287,299.88,37,45,42
299.88657,300.0379,37,45,42
305.77173,305.9081,41,45,42
305.9081,306.04446,48,48,42
306.04446,306.18085,41,52,42
306.18085,306.3172,48,56,42
306.3172,306.45355,41,60,42
306.45355,306.58423,48,60,42
313.13538,313.27173,49,45,42
313.27173,313.4081,56,45,42
313.4081,313.54446,49,50,42
313.54446,313.68082,56,55,42
313.68082,313.8172,49,60,42
313.8172,313.94788,56,60,42
315.5899,315.7263,50,45,42
315.7263,315.86264,57,45,42
315.86264,315.999,50,45,42
315.999,316.13538,57,45,42
316.13538,316.27173,50,45,42
316.27173,316.4024,57,45,42
318.04446,318.18082,50,45,42
318.18082,318.31717,55,45,42
318.31717,318.45355,50,45,42
318.45355,318.5899,55,45,42
318.5899,318.7263,50,45,42
318.7263,318.85696,55,45,42
320.499,320.63538,43,57,42
320.63538,320.77173,48,58,42
320.77173,320.90808,43,59,42
320.90808,321.04446,48,60,42
321.04446,321.18082,43,61,42
321.18082,321.3115,48,62,42
322.9925,323.14252,43,75,42
323.14252,323.2925,48,75,42
323.2925,323.4425,43,75,42
323.4425,323.5925,48,75,42
323.5925,323.7425,43,75,42
323.7425,323.88626,48,75,42
324.83002,325.28455,43,60,42
325.37546,325.64252,43,60,42
325.6482,326.10272,43,60,42
326.19363,326.4607,43,60,42
326.46637,326.9209,43,60,42
327.0118,327.27887,43,60,42
327.28455,327.7391,43,60,42
327.83,328.09705,43,60,42
328.10272,328.55728,43,60,42
328.6482,328.91522,43,60,42
328.9209,329.37546,42,60,42
329.46637,329.7334,42,60,42
329.7391,330.19363,48,60,42
330.28455,330.55157,48,60,42
330.55728,331.0118,47,60,42
331.10272,331.36978,47,60,42
331.37546,331.83,45,60,42
331.9209,332.18796,45,60,42
332.19363,332.64816,43,60,42
332.73907,333.00613,43,60,42
333.0118,333.46637,42,60,42
333.55728,333.8243,42,60,42
333.83,334.28455,45,60,42
334.37546,334.6425,45,61,42
334.64816,335.10272,45,61,42
335.19363,335.46066,48,62,42
335.46637,335.9209,47,62,42
336.0118,336.27887,47,63,42
336.28455,336.73907,43,63,42
336.83,337.09705,43,64,42
337.10272,337.55725,40,64,42
337.64816,337.91522,40,65,42
337.9209,338.37546,43,65,42
338.46634,338.7334,43,66,42
338.73907,339.19363,42,66,42
339.28455,339.55157,42,67,42
339.55725,340.0118,45,67,42
340.10272,340.36975,45,68,42
340.37546,340.83,43,69,42
340.9209,341.18793,43,71,42
341.19363,341.64816,40,72,42
341.73907,342.00613,40,74,42
342.0118,342.46634,38,75,42
342.55725,342.8243,38,75,42
342.83,343.28455,42,75,42
343.37543,343.6425,42,75,42
343.64816,344.10272,45,75,42
344.19363,344.46066,45,75,42
344.46634,344.9209,38,60,42
346.9209,347.64816,50,60,42
347.73907,347.86975,45,60,42
348.0118,348.46634,50,60,42
348.55725,348.68793,43,62,42
348.83,349.28452,50,62,42
349.37543,350.1027,46,64,42
350.1936,350.64816,45,67,42
351.83,352.55725,57,75,42
352.64816,352.77884,52,75,42
352.9209,353.37543,57,75,42
353.46634,353.59702,50,75,42
353.73907,354.1936,57,60,42
354.28452,355.37543,45,45,42
355.37543,355.64816,42,45,42
355.64816,355.9152,40,45,42
355.92087,357.0061,38,45,42
357.01178,357.28452,40,45,42
357.28452,357.55725,42,45,42
357.55725,357.82996,43,45,42
357.82996,358.1027,40,45,42
358.1027,358.36975,38,45,42
358.37543,359.46634,36,45,42
359.46634,359.73907,38,61,42
359.73907,360.28452,40,65,42
360.28452,360.55725,42,73,42
360.55725,361.1027,43,77,42
361.1027,361.37543,45,87,42
361.37543,361.92792,47,92,42
361.93387,362.50528,48,92,42
362.50528,362.79904,48,84,42
362.8053,363.4053,49,80,42
363.4053,363.71127,49,72,42
363.7178,364.23862,50,68,42
364.3428,364.79733,43,60,42
364.88824,365.1553,43,60,42
365.16098,365.6155,43,60,42
365.70642,365.97348,43,60,42
365.97916,366.4337,43,60,42
366.5246,366.79166,43,60,42
366.79733,367.2519,43,60,42
367.34277,367.60983,43,60,42
367.6155,368.07007,43,60,42
368.16098,368.428,43,60,42
368.4337,368.88824,43,60,42
368.97916,369.2462,43,60,42
369.2519,369.70642,55,60,42
369.79733,370.06436,55,60,42
370.07007,370.5246,55,60,42
370.6155,370.88257,55,60,42
370.88824,371.34277,55,60,42
371.4337,371.70074,55,60,42
371.70642,372.16098,55,60,42
372.25186,372.51892,55,60,42
372.5246,372.97916,55,60,42
373.07007,373.3371,55,60,42
373.34277,373.79733,54,60,42
373.88824,374.15527,54,60,42
374.16095,374.6155,45,60,42
374.70642,374.97345,48,63,42
374.97916,375.70642,52,64,42
375.79733,376.25186,47,69,42
376.34277,376.60983,50,72,42
376.6155,377.0917,49,74,42
377.18692,377.4667,52,78,42
377.47266,377.97266,51,80,42
378.07266,378.3664,54,84,42
378.37265,378.8935,52,86,42
378.99765,379.30365,45,90,42
379.31015,379.57718,38,92,42
403.8556,404.12262,54,92,42
404.67377,405.2192,53,92,42
405.2192,406.31012,53,75,42
406.31012,411.21353,53,60,42
411.2192,411.67377,52,60,42
412.03738,412.49194,50,60,42
413.67374,414.1283,48,60,42
414.49194,414.94647,47,70,42
416.1283,416.58282,45,92,42
418.58282,419.03738,42,92,42
419.40103,420.901,41,92,42
421.03738,421.4919,40,92,42
421.85556,422.401,39,92,42
422.401,423.35556,39,75,42
423.4919,423.94647,38,75,42
424.3101,425.8101,38,60,42
425.94647,426.401,38,60,42
426.76465,428.26465,38,60,42
428.401,428.85556,37,60,42
429.21918,430.71918,36,60,42
430.85556,431.58282,47,60,42
431.67374,432.401,44,60,42
432.4919,433.21918,45,60,42
433.3101,434.91724,38,60,42
435.06723,435.90057,38,75,42
436.00473,436.4593,39,92,42
438.4593,438.732,38,60,42
439.27747,440.77747,38,60,42
440.91382,441.36838,38,60,42
441.732,443.232,38,60,42
443.36838,443.8229,37,60,42
444.18655,445.68655,36,60,42
445.8229,446.64108,47,60,42
446.64108,447.45926,44,60,42
447.45926,448.18655,45,60,42
448.27747,449.09564,47,60,42
449.09564,449.91382,48,62,42
449.91382,450.64108,51,64,42
450.732,451.55017,52,66,42
451.55017,452.36835,51,68,42
452.36835,453.09564,50,70,42
453.18652,454.00473,48,72,42
454.00473,454.732,47,74,42
454.8229,455.64108,52,76,42
455.64108,456.4574,50,78,42
456.55945,457.49695,48,80,42
457.49695,458.34802,47,82,42
458.4544,459.32394,45,84,42
459.43265,460.32153,37,86,42
460.43265,461.34174,40,89,42
461.45538,461.7224,38,92,42
486.301,486.426,55,68,42
486.551,486.96765,48,74,42
487.051,487.29578,48,86,42
487.301,487.426,43,92,42
487.551,487.676,36,92,42
487.801,487.926,48,92,42
488.051,488.29578,50,75,42
490.301,490.42078,43,92,42
490.426,490.54578,43,92,42
490.551,490.67078,43,92,42
490.676,490.79578,43,92,42
490.801,490.92078,43,92,42
490.926,491.04578,43,92,42
491.051,491.176,48,92,42
491.301,491.71765,43,90,42
491.801,491.926,48,85,42
492.051,492.46765,46,83,42
492.551,492.67078,45,78,42
492.676,492.79578,45,77,42
492.801,492.92078,45,76,42
492.926,493.04578,45,75,42
493.051,493.17078,45,74,42
493.176,493.29578,45,73,42
493.301,493.426,50,72,42
493.551,493.96765,45,68,42
494.051,494.176,50,60,42
494.301,494.71765,48,60,42
494.801,494.92078,47,60,42
494.926,495.04578,47,60,42
495.051,495.17078,47,60,42
495.176,495.29578,47,60,42
495.301,495.42078,47,60,42
495.426,495.54578,47,60,42
495.551,495.676,52,60,42
495.801,496.21765,50,60,42
496.301,496.54578,48,60,42
496.551,496.92078,53,61,42
496.926,497.04578,51,62,42
497.051,497.29578,50,62,42
497.301,497.67078,55,63,42
497.676,497.79578,53,64,42
497.801,498.04578,52,64,42
498.051,498.42078,57,65,42
498.426,498.54578,55,67,42
498.551,498.79578,48,67,42
498.801,499.17078,57,68,42
499.176,499.29578,55,70,42
499.301,499.54578,48,70,42
499.551,499.92078,57,71,42
499.926,500.04578,55,73,42
500.051,500.29578,48,73,42
500.301,500.71765,57,74,42
500.801,501.21765,55,77,42
501.301,501.54578,48,80,42
501.551,501.96765,45,81,42
502.051,502.29578,43,84,42
502.301,502.426,36,86,42
502.551,502.96765,48,88,42
503.051,503.29578,41,92,42
506.801,506.92078,47,60,42
506.926,507.04578,47,60,42
507.051,507.17078,47,60,42
507.176,507.29578,47,60,42
507.301,507.42078,47,60,42
507.426,507.54578,47,60,42
523.301,523.5458,43,60,42
523.551,523.7958,45,60,42
523.801,524.0458,47,60,42
524.051,524.71765,48,60,42
524.801,525.051,43,60,42
525.051,525.301,45,61,42
525.301,525.5458,47,62,42
525.551,525.96765,48,63,42
526.051,526.2958,36,66,42
526.301,526.71765,38,68,42
526.801,527.0458,42,72,42
527.051,527.46765,43,74,42
527.551,527.7958,47,78,42
527.801,528.21765,48,80,42
528.301,528.5458,36,84,42
528.551,528.96765,38,86,42
529.301,529.71765,50,92,42
530.051,530.46765,52,60,42
530.801,531.21765,50,60,42
531.551,531.96765,50,60,42
532.301,532.71765,52,60,42
533.051,533.46765,50,70,42
533.801,534.21765,48,80,42
534.551,534.7958,47,92,42
537.551,537.676,48,92,42
537.801,538.21765,36,92,42
538.301,538.426,48,92,42
538.551,538.96765,36,92,42
539.051,539.46765,38,92,42
539.801,539.926,43,92,42
540.051,540.46765,40,92,42
540.551,540.96765,38,92,42
541.301,541.426,55,92,42
541.551,541.96765,52,92,42
542.051,542.301,50,92,42
542.801,543.051,38,92,42
543.551,543.67395,43,92,42
543.7969,544.2067,59,92,42
544.2887,544.4117,62,90,42
544.5346,544.94446,55,89,42
545.0264,545.14935,59,87,42
545.2723,545.39526,50,86,42
545.5182,545.6412,55,85,42
545.7641,545.8841,47,84,42
546.0041,546.1241,50,83,42
546.2441,546.36414,43,82,42
546.48413,546.60913,47,81,42
546.73413,546.85913,38,80,42
546.98413,547.10913,43,79,42
547.23413,547.3705,38,78,42
547.50684,547.6432,43,77,42
547.77954,547.91595,38,76,42
548.0523,548.34607,43,75,42
550.1523,550.5195,38,92,42
551.2773,554.0273,43,92,42
94.08272,94.34976,50,60,45
94.35544,94.62249,62,60,45
94.900894,95.16794,50,60,45
95.17362,95.44067,61,60,45
95.71908,95.98612,50,60,45
95.991806,96.25885,59,60,45
96.537254,96.804306,49,60,45
96.80998,97.077034,57,60,45
97.35544,97.62248,51,60,45
97.62817,97.89521,59,60,45
98.17362,98.44067,52,60,45
98.44635,98.713394,59,60,45
98.9918,99.25884,59,60,45
99.26453,99.53157,59,60,45
99.80998,100.07703,57,60,45
100.08271,100.349754,57,60,45
101.44634,101.71339,55,60,45
101.71907,101.986115,55,63,45
102.26453,102.53157,54,69,45
102.537254,102.8043,54,72,45
103.90089,104.35543,40,92,45
220.43683,220.70387,50,60,45
220.70955,220.97661,62,60,45
221.255,221.52205,50,60,45
221.52774,221.79478,61,60,45
222.0732,222.34024,50,60,45
222.34592,222.61296,59,60,45
222.89137,223.15842,49,60,45
223.1641,223.43114,57,60,45
223.70955,223.9766,51,60,45
223.98228,224.24933,59,60,45
224.52774,224.79478,52,60,45
224.80046,225.0675,59,60,45
225.34592,225.61296,59,60,45
225.61864,225.88568,59,60,45
226.1641,226.43114,57,60,45
226.43683,226.70387,57,60,45
227.80046,228.0675,55,60,45
228.07318,228.34023,55,63,45
228.61864,228.88568,54,69,45
228.89137,229.15842,54,72,45
230.255,230.70955,40,92,45
381.76468,382.21924,47,92,45
382.5829,383.0374,45,92,45
383.40106,383.8556,43,92,45
384.21924,384.67377,42,92,45
385.0374,385.49197,44,92,45
385.8556,386.31015,45,92,45
386.67377,387.12833,48,92,45
387.49194,387.9465,47,92,45
388.31015,388.76468,45,92,45
389.12833,389.58286,44,92,45
389.9465,390.40103,45,82,45
390.76468,391.21924,38,72,45
391.58286,391.8499,55,60,45
391.8556,392.12265,55,60,45
392.40103,392.6681,55,60,45
392.67377,392.94083,55,60,45
393.21924,393.48627,55,60,45
393.49194,393.759,55,60,45
394.0374,394.30444,54,60,45
394.31012,394.57718,54,60,45
394.8556,395.12262,56,60,45
395.12833,395.39536,56,60,45
395.67377,395.94083,57,60,45
395.9465,396.21353,57,60,45
396.49194,396.759,64,60,45
396.76468,397.0317,64,60,45
397.31012,397.57718,62,60,45
397.58286,397.8499,62,60,45
398.9465,399.21353,60,60,45
399.2192,399.48627,60,63,45
399.76468,400.0317,59,69,45
400.0374,400.30444,59,72,45
401.40103,401.8556,45,92,45
471.14246,471.40012,38,92,45
471.4056,471.66327,38,92,45
471.66876,471.92642,38,90,45
471.93192,472.18958,43,87,45
472.19507,472.63367,38,84,45
472.72137,472.97906,40,78,45
472.98456,473.42313,38,75,45
475.85867,476.1119,40,92,45
476.1173,476.37054,40,92,45
476.37592,476.62915,40,92,45
476.63455,476.8878,45,92,45
476.89316,477.3242,40,92,45
477.4104,477.66364,42,92,45
477.66904,478.10007,40,75,45
480.49396,480.7429,66,75,45
480.7482,481.17194,59,75,45
481.25668,481.5056,64,75,45
481.5109,481.93463,59,75,45
482.01938,482.2683,66,75,45
482.27362,482.69736,59,75,45
482.7821,483.02893,64,75,45
483.03418,483.45435,57,72,45
483.5384,483.78525,62,66,45
483.7905,484.21066,57,63,45
484.2947,484.54153,64,56,45
484.54678,484.96695,57,53,45
485.051,485.29578,62,45,45
485.301,485.71765,55,45,45
511.301,511.71765,42,60,45
512.051,512.2958,43,60,45
512.301,512.5458,43,60,45
512.801,513.0458,43,60,45
513.051,513.2958,43,60,45
513.551,513.7958,43,60,45
513.801,514.0458,43,60,45
514.301,514.5458,43,60,45
514.551,514.7958,43,61,45
515.051,515.2958,43,63,45
515.301,515.5458,43,64,45
515.801,516.0458,43,66,45
516.051,516.2958,43,67,45
516.551,516.7958,36,69,45
516.801,517.0458,36,70,45
517.301,517.5458,38,72,45
517.551,517.7958,38,73,45
518.051,518.2958,40,75,45
518.301,518.5458,40,76,45
518.801,519.0458,48,80,45
519.051,519.2958,48,82,45
519.551,519.7958,50,86,45
519.801,520.0458,50,88,45
520.301,520.5458,38,92,45
520.551,520.7958,38,75,45
521.051,521.46765,47,60,45
559.7773,560.26685,43,10,42
