start_time,end_time,note_value,velocity,instrument_program_number
15.23808,15.71427,79,75,40
15.71427,16.19046,74,75,40
16.19046,16.66665,77,72,40
16.66665,17.063475,75,68,40
17.14284,17.546064,74,64,40
17.62671,17.707355,70,60,40
17.707355,17.788,72,60,40
17.788,17.868645,70,60,40
17.868645,17.989613,69,60,40
17.989613,18.11058,70,59,40
18.11058,18.602383,72,58,40
18.602383,19.012218,69,52,40
19.094187,19.510853,67,45,40
22.046566,22.998945,82,63,40
22.998945,23.395771,81,45,40
23.951326,24.903706,82,63,40
24.903706,25.300531,80,45,40
25.856087,26.094181,82,60,40
26.094181,26.327316,81,60,40
26.332275,26.570372,81,60,40
26.570372,26.803505,82,60,40
26.808466,27.205292,70,45,40
27.760845,27.998941,82,60,40
27.998941,28.232075,81,60,40
28.237036,28.47513,81,60,40
28.47513,28.708265,82,60,40
28.713226,29.11005,70,45,40
29.665606,29.903702,82,45,40
29.903702,30.136835,70,46,40
30.141796,30.37989,70,47,40
30.37989,30.613026,82,48,40
30.617987,30.856081,82,49,40
30.856081,31.089216,70,50,40
31.094175,31.332272,70,52,40
31.332272,31.565405,82,54,40
31.570366,31.80846,82,56,40
31.80846,32.041595,70,58,40
32.046555,32.284653,70,60,40
32.284653,32.517784,82,60,40
32.522747,32.755882,79,60,40
32.76084,32.998936,79,63,40
32.998936,33.23207,80,66,40
33.23703,33.475124,80,69,40
33.475124,33.70826,82,72,40
33.713223,33.951317,82,75,40
33.951317,34.184452,75,60,40
34.18941,34.427505,75,60,40
34.427505,34.66064,74,60,40
34.6656,34.903694,74,60,40
34.903694,35.13683,75,60,40
35.141792,35.379887,75,60,40
35.379887,35.61302,77,60,40
35.61798,35.856075,77,60,40
35.856075,36.08921,70,60,40
36.09417,36.5654,70,60,40
36.570362,37.04159,70,60,40
37.04655,37.51778,70,60,40
37.52274,37.99397,70,60,40
37.99893,38.237026,70,60,40
38.237026,38.477806,65,60,40
38.48293,38.96961,65,64,40
38.97473,39.469574,65,72,40
39.47487,39.978046,65,80,40
39.98334,40.232285,65,88,40
40.23758,40.746056,77,92,40
40.746056,41.254528,89,92,40
41.254528,41.763,84,75,40
41.763,42.18673,85,60,40
51.795277,52.02841,55,92,40
51.795277,52.271465,62,92,40
51.91432,52.271465,74,92,40
52.271465,52.747658,82,92,40
52.747658,53.223846,78,75,40
53.223846,53.62067,79,60,40
53.700035,54.176228,77,75,40
54.176228,54.652416,72,75,40
54.652416,55.128605,75,73,40
55.128605,55.525433,74,71,40
55.604797,56.080986,72,69,40
56.080986,56.557175,67,67,40
56.557175,57.033367,70,65,40
57.033367,57.43019,69,63,40
57.509556,57.985744,70,84,40
57.985744,58.382572,69,60,40
58.461937,58.938126,70,84,40
58.938126,59.33495,69,60,40
59.414314,59.890507,75,84,40
59.890507,60.28733,74,60,40
60.366695,60.842888,75,84,40
60.842888,61.23971,74,60,40
61.319077,61.795265,80,84,40
61.795265,62.192093,79,60,40
62.271458,62.747646,80,84,40
62.747646,63.14447,79,60,40
63.223835,63.337925,82,84,40
63.342884,63.45697,81,60,40
63.46193,63.57602,82,60,40
63.58098,63.695065,79,60,40
63.700027,63.814114,82,84,40
63.819073,63.93316,81,60,40
63.93812,64.05221,82,60,40
64.05717,64.17126,79,60,40
64.176216,64.290306,84,84,40
64.295265,64.40935,82,60,40
64.414314,64.5284,84,60,40
64.533356,64.647446,81,60,40
64.652405,64.766495,84,84,40
64.771454,64.885544,82,60,40
64.8905,65.004585,84,60,40
65.00955,65.123634,81,60,40
65.12859,65.24268,86,84,40
65.24764,65.36173,85,60,40
65.36669,65.48078,86,60,40
65.48574,65.59982,82,60,40
65.60479,65.71887,82,84,40
65.72383,65.83792,81,60,40
65.84288,65.95697,82,60,40
65.96193,66.07602,79,60,40
66.08098,66.19506,84,60,40
66.20002,66.31411,82,60,40
66.31907,66.43316,84,60,40
66.43812,66.55221,81,60,40
66.55717,66.67125,81,60,40
66.676216,66.7903,79,60,40
66.79526,66.90935,81,60,40
66.91431,67.0284,78,60,40
67.033356,67.152405,79,92,40
67.152405,67.271454,78,92,40
67.271454,67.38554,79,92,40
67.390495,67.469864,67,92,40
67.509544,67.74268,67,92,40
67.98573,68.10478,79,92,40
68.10478,68.22383,78,92,40
68.22383,68.33792,79,92,40
68.34288,68.42224,67,92,40
68.46193,68.69506,67,92,40
68.93812,69.05717,80,90,40
69.05717,69.17621,79,90,40
69.17621,69.2903,80,90,40
69.29526,69.374626,68,90,40
69.41431,69.64744,68,90,40
69.890495,70.009544,78,88,40
70.009544,70.12859,76,88,40
70.12859,70.242676,78,88,40
70.247635,70.327,66,88,40
70.366684,70.59982,66,88,40
70.84287,70.96192,79,86,40
70.96192,71.08097,78,86,40
71.08097,71.19506,79,86,40
71.20002,71.27938,67,86,40
71.31907,71.5522,67,86,40
71.79526,71.91431,79,84,40
71.91431,72.03335,78,83,40
72.03335,72.14744,79,82,40
72.1524,72.231766,67,81,40
72.27145,72.50458,67,80,40
72.747635,72.866684,80,76,40
72.866684,72.98573,79,75,40
72.98573,73.099815,80,74,40
73.10478,73.218864,68,73,40
73.22382,73.45696,68,72,40
73.70001,73.81906,82,68,40
73.81906,73.93811,81,67,40
73.93811,74.0522,82,66,40
74.05716,74.17125,70,65,40
74.17621,74.40934,70,64,40
74.6524,74.77145,79,60,40
74.77145,74.89049,78,60,40
74.89049,75.00458,79,60,40
75.00954,75.12363,67,60,40
75.128586,75.36172,67,60,40
75.604774,75.72382,82,60,40
75.72382,75.84287,81,61,40
75.84287,75.956955,82,62,40
75.96192,76.076004,70,63,40
76.08096,76.3141,70,64,40
76.55716,76.6762,87,68,40
76.6762,76.79525,86,69,40
76.79525,76.90934,87,70,40
76.9143,77.02839,75,71,40
77.03335,77.26648,75,72,40
77.50954,77.628586,86,78,40
77.628586,77.74763,85,79,40
77.74763,77.86172,86,80,40
77.86668,77.98077,74,82,40
77.985725,78.218864,74,84,40
78.461914,78.69505,69,92,40
78.461914,78.93314,76,92,40
78.58096,78.93314,85,92,40
78.9381,79.4143,70,92,40
79.4143,79.89049,66,92,40
79.89049,80.36668,67,75,40
80.36668,82.15239,67,60,40
82.74763,83.223816,67,92,40
83.223816,83.700005,64,92,40
83.700005,84.17619,65,75,40
84.17619,85.96191,65,60,40
87.98572,88.46191,77,60,40
88.46191,88.938095,74,60,40
88.938095,89.41428,71,60,40
89.41428,89.81111,69,60,40
89.89047,90.2873,68,60,40
90.36667,90.5998,69,64,40
90.60476,90.8379,71,66,40
90.84286,91.23968,72,68,40
91.319046,91.55218,74,72,40
91.557144,91.790276,76,74,40
91.795235,92.27142,77,76,40
92.27142,92.74762,79,80,40
92.74762,93.22381,81,84,40
93.22381,93.62063,83,88,40
93.7,93.819046,85,92,40
93.819046,93.93809,86,92,40
93.93809,94.05714,85,90,40
94.05714,94.176186,86,88,40
94.176186,94.295235,85,86,40
94.295235,94.41428,86,84,40
94.41428,94.533325,85,82,40
94.533325,94.652374,86,80,40
94.652374,94.77142,85,78,40
94.77142,94.89047,86,76,40
94.89047,95.00952,85,74,40
95.00952,95.12856,86,72,40
95.12856,95.24761,85,70,40
95.24761,95.36666,86,68,40
95.36666,95.48571,83,66,40
95.48571,95.59979,85,63,40
95.60476,96.00158,86,60,40
103.69999,104.17618,81,60,40
104.17618,104.65237,82,60,40
104.65237,105.049194,83,75,40
105.128555,105.84284,84,92,40
105.84284,106.07597,81,75,40
106.08093,106.47776,78,60,40
106.55713,106.95395,87,92,40
107.03332,107.50951,86,92,40
107.50951,107.985695,85,82,40
107.985695,108.46188,86,71,40
108.46188,108.85871,79,60,40
108.93807,109.41427,86,92,40
109.41427,109.89046,85,92,40
109.89046,110.366646,86,92,40
110.366646,110.76347,77,92,40
110.842834,111.55712,77,92,40
111.55712,111.79025,76,80,40
111.79522,112.03331,81,76,40
112.03331,112.27141,79,72,40
112.27141,112.5095,77,68,40
112.5095,112.74264,76,64,40
112.7476,112.90633,74,60,40
112.90633,113.065056,62,60,40
113.065056,113.223785,69,60,40
113.223785,113.382515,74,60,40
113.382515,113.541245,69,60,40
113.541245,113.695015,62,60,40
113.8587,114.01743,64,60,40
114.01743,114.17616,72,60,40
114.17616,114.33489,76,60,40
114.33489,114.49363,74,60,40
114.49363,114.64739,64,60,40
114.81109,114.96982,65,60,40
114.96982,115.12855,74,60,40
115.12855,115.28728,77,60,40
115.28728,115.44601,74,60,40
115.44601,115.59978,65,60,40
115.60474,115.763466,74,60,40
115.763466,115.922195,69,60,40
115.922195,116.080925,65,60,40
116.080925,116.239655,69,60,40
116.239655,116.398384,65,60,40
116.398384,116.552155,62,60,40
116.71584,116.87457,62,60,40
116.87457,117.0333,68,60,40
117.0333,117.19204,64,60,40
117.19204,117.35077,67,60,40
117.35077,117.50454,73,60,40
117.66823,117.82696,69,60,40
117.82696,117.98569,74,60,40
117.98569,118.14442,65,60,40
118.14442,118.30315,69,60,40
118.30315,118.45692,77,60,40
118.620605,118.779335,72,60,40
118.779335,118.938065,74,60,40
118.938065,119.096794,76,60,40
119.096794,119.25552,74,60,40
119.25552,119.409294,72,60,40
119.57298,119.73171,74,61,40
119.73171,119.89045,76,62,40
119.89045,120.04918,77,63,40
120.04918,120.20791,76,64,40
120.20791,120.36168,74,65,40
120.52537,120.6841,61,67,40
120.6841,120.84283,64,68,40
120.84283,121.00156,73,69,40
121.00156,121.160286,64,70,40
121.160286,121.31406,73,71,40
121.319016,121.477745,74,72,40
121.477745,121.636475,70,73,40
121.636475,121.790245,74,74,40
121.795204,121.95393,74,75,40
121.95393,122.11266,68,76,40
122.11266,122.26643,74,77,40
122.43012,122.58886,67,79,40
122.58886,122.74759,72,80,40
122.74759,122.90632,78,81,40
122.90632,123.06505,72,82,40
123.06505,123.21882,69,83,40
123.38251,123.54124,69,85,40
123.54124,123.69997,72,86,40
123.69997,123.858696,81,87,40
123.858696,124.017426,75,88,40
124.017426,124.171196,66,89,40
124.334885,124.493614,79,92,40
124.493614,124.65234,78,92,40
124.65234,124.81107,79,92,40
124.81107,124.9698,74,92,40
124.9698,125.12357,67,92,40
125.28727,125.446,79,92,40
125.446,125.60473,78,92,40
125.60473,125.76346,79,92,40
125.76346,125.92219,74,92,40
125.92219,126.07596,67,92,40
126.23965,126.39838,78,92,40
126.39838,126.557106,77,92,40
126.557106,126.715836,78,92,40
126.715836,126.874565,74,92,40
126.874565,127.028336,66,92,40
127.192024,127.35075,77,92,40
127.35075,127.50948,76,92,40
127.50948,127.66821,77,92,40
127.66821,127.82694,74,92,40
127.82694,127.98071,65,92,40
128.14441,128.30313,70,92,40
128.30313,128.46187,74,90,40
128.46187,128.62059,64,88,40
128.62059,128.77933,70,86,40
128.77933,128.93309,74,84,40
129.09679,129.25551,67,78,40
129.25551,129.41425,73,75,40
129.41425,129.57298,64,72,40
129.57298,129.7317,67,69,40
129.7317,129.88548,73,66,40
130.04916,130.2079,62,60,40
130.2079,130.36662,65,60,40
130.36662,130.52536,69,60,40
130.52536,130.68408,74,60,40
130.68408,130.83786,68,60,40
131.00154,131.16028,69,60,40
131.16028,131.319,73,60,40
131.319,131.47774,79,60,40
131.47774,131.63646,81,60,40
131.63646,131.79024,73,60,40
131.7952,132.50948,77,60,40
132.50948,132.74261,76,63,40
132.74757,132.98567,81,63,40
132.98567,133.22377,79,64,40
133.22377,133.46187,77,65,40
133.46187,133.69499,76,66,40
133.69995,134.41425,74,67,40
134.41425,134.64737,76,70,40
134.65233,135.36662,76,71,40
135.36662,135.59976,77,74,40
135.60472,136.319,77,75,40
136.319,136.55214,79,78,40
136.5571,137.27138,79,79,40
137.27138,137.50452,81,82,40
137.66821,137.82693,64,83,40
137.82693,137.98567,69,83,40
137.98567,138.1444,72,83,40
138.1444,138.30313,76,84,40
138.30313,138.4569,75,85,40
138.62059,138.77931,68,87,40
138.77931,138.93805,71,88,40
138.93805,139.09677,76,89,40
139.09677,139.25055,80,90,40
139.25551,139.35968,80,91,40
139.41423,140.12852,81,92,40
140.12852,140.36165,83,92,40
140.36662,141.0809,83,92,40
141.0809,141.31404,84,92,40
141.319,142.03328,84,92,40
142.03328,142.26642,86,92,40
142.27138,142.98566,86,92,40
142.98566,143.2188,88,92,40
143.22375,143.46185,82,92,40
143.46185,143.69995,81,92,40
143.69995,143.93307,79,75,40
143.93803,144.01741,55,60,40
144.17613,144.29518,64,60,40
144.29518,144.41423,74,64,40
144.41423,144.53328,76,68,40
144.53328,144.64737,86,72,40
144.65233,144.77138,88,76,40
144.77138,144.89043,86,80,40
144.89043,145.0045,76,84,40
145.00948,145.08884,76,88,40
145.12851,145.36661,83,92,40
145.36661,145.6047,81,92,40
145.6047,145.83784,80,75,40
145.8428,145.92216,56,60,40
146.0809,146.19994,64,60,40
146.19994,146.31898,74,64,40
146.31898,146.43803,76,68,40
146.43803,146.55212,86,72,40
146.55708,146.67613,88,76,40
146.67613,146.79518,86,80,40
146.79518,146.90927,76,84,40
146.91423,146.99359,76,88,40
147.03328,147.4301,69,92,40
147.03328,147.4301,79,92,40
150.93095,151.80595,66,60,40
151.93095,152.34761,67,60,40
152.43095,152.84761,68,65,40
152.93095,153.59761,69,70,40
153.68095,153.92574,71,78,40
153.93095,154.34761,73,80,40
154.43095,154.84761,74,86,40
154.93095,155.59761,78,92,40
155.68095,155.92574,76,92,40
155.93095,156.34761,73,92,40
156.43095,156.84761,71,92,40
156.93095,157.43095,69,92,40
157.43095,157.55595,71,92,40
157.55595,157.68095,69,92,40
157.68095,157.80595,68,92,40
157.80595,157.92574,69,92,40
157.93095,158.43095,71,92,40
158.43095,158.84761,67,75,40
158.93095,159.59761,66,60,40
159.93095,160.43095,64,60,40
160.43095,160.84761,66,75,40
160.93095,161.59761,67,92,40
161.68095,161.92574,66,92,40
161.93095,162.34761,64,92,40
162.43095,162.84761,62,92,40
162.93095,163.34761,64,92,40
163.93095,164.68095,65,105,40
164.68095,164.92574,62,75,40
164.93095,165.34761,61,60,40
169.43095,169.55595,77,60,40
169.55595,169.68095,76,60,40
169.68095,169.80074,77,60,40
169.80595,169.92574,77,60,40
169.93095,170.05595,76,60,40
170.05595,170.18095,75,60,40
170.18095,170.30074,76,60,40
170.30595,170.42574,76,60,40
170.43095,170.55595,74,60,40
170.55595,170.68095,73,60,40
170.68095,170.80074,74,60,40
170.80595,170.92574,74,60,40
170.93095,171.05595,73,60,40
171.05595,171.18095,72,60,40
171.18095,171.30074,73,60,40
171.30595,171.42574,73,60,40
171.43095,171.55595,74,60,40
171.55595,171.68095,73,60,40
171.68095,171.80074,74,60,40
171.80595,171.92574,74,60,40
171.93095,172.05595,76,60,40
172.05595,172.18095,75,60,40
172.18095,172.30074,76,60,40
172.30595,172.42574,76,60,40
172.43095,172.55595,77,60,40
172.55595,172.68095,76,60,40
172.68095,172.80074,77,60,40
172.80595,172.92574,77,60,40
172.93095,173.05595,82,60,40
173.05595,173.18095,81,60,40
173.18095,173.30074,82,60,40
173.30595,173.42574,82,60,40
173.43095,173.55595,81,60,40
173.55595,173.68095,80,61,40
173.68095,173.80074,81,61,40
173.80595,173.92574,81,62,40
173.93095,174.05595,79,63,40
174.05595,174.18095,78,64,40
174.18095,174.30074,79,65,40
174.30595,174.42574,79,66,40
174.43095,174.55595,77,67,40
174.55595,174.68095,76,68,40
174.68095,174.80074,77,69,40
174.80595,174.92574,77,70,40
174.93095,175.05595,77,71,40
175.05595,175.18095,76,72,40
175.18095,175.30074,77,73,40
175.30595,175.42574,77,74,40
175.43095,175.55595,77,75,40
175.55595,175.68095,76,76,40
175.68095,175.80074,77,77,40
175.80595,175.92574,77,78,40
175.93095,176.05595,76,79,40
176.05595,176.18095,75,80,40
176.18095,176.30074,76,81,40
176.30595,176.42574,76,82,40
176.43095,176.55595,76,83,40
176.55595,176.68095,75,84,40
176.68095,176.80074,76,85,40
176.80595,176.92574,76,86,40
176.93095,177.05595,77,87,40
177.05595,177.18095,76,88,40
177.18095,177.30074,77,89,40
177.30595,177.42574,81,90,40
177.43095,178.30595,69,92,40
177.43095,178.30595,81,92,40
178.43095,179.34761,69,92,40
178.43095,179.34761,81,92,40
179.43095,180.30595,69,92,40
179.43095,180.30595,81,92,40
180.43095,180.93095,80,92,40
180.93095,181.34761,81,92,40
181.43095,181.93095,69,92,40
181.93095,182.43095,68,92,40
182.43095,182.93095,67,92,40
182.93095,183.43095,66,92,40
183.43095,183.93095,69,92,40
183.93095,184.68095,74,92,40
184.68095,184.92574,76,92,40
184.93095,185.34761,74,92,40
185.43095,185.93095,73,88,40
185.93095,186.43095,74,84,40
186.43095,186.93095,76,80,40
186.93095,187.34761,69,76,40
187.43095,187.93095,66,72,40
187.93095,188.43095,67,68,40
188.43095,188.93095,69,64,40
188.93095,189.34761,62,60,40
189.43095,189.93095,71,60,40
189.93095,190.43095,81,70,40
190.43095,190.84761,79,81,40
190.93095,191.80595,69,92,40
190.93095,191.80595,78,92,40
191.93095,192.80595,69,92,40
191.93095,192.80595,77,92,40
192.93095,194.30595,69,92,40
192.93095,194.30595,76,92,40
194.43095,194.67574,57,92,40
194.43095,194.92574,69,92,40
194.55595,194.92574,73,92,40
194.93095,195.17574,57,92,40
194.93095,195.42574,66,92,40
195.05595,195.42574,74,92,40
206.43095,206.68095,81,92,40
206.68095,206.93095,80,92,40
206.93095,207.18095,81,92,40
207.18095,207.43095,79,91,40
207.43095,207.68095,78,90,40
207.68095,207.92574,76,89,40
207.93095,208.18095,78,88,40
208.18095,208.43095,76,87,40
208.43095,208.68095,74,86,40
208.68095,208.92574,73,85,40
208.93095,209.18095,74,83,40
209.18095,209.42574,69,81,40
209.43095,209.68095,74,79,40
209.68095,209.93095,76,77,40
209.93095,210.18095,78,75,40
210.18095,210.42574,74,75,40
210.43095,210.68095,86,92,40
210.68095,210.93095,85,92,40
210.93095,211.18095,86,92,40
211.18095,211.43095,83,92,40
211.43095,211.68095,81,92,40
211.68095,211.92574,80,92,40
211.93095,212.18095,81,92,40
212.18095,212.43095,79,92,40
212.43095,212.68095,78,92,40
212.68095,212.92574,76,92,40
212.93095,213.18095,78,92,40
213.18095,213.42574,74,92,40
213.43095,213.68095,78,92,40
213.68095,213.93095,79,92,40
213.93095,214.18095,81,92,40
214.18095,214.42574,78,92,40
214.43095,214.51428,86,92,40
214.68095,214.76428,85,92,40
214.93095,215.18095,86,92,40
215.18095,215.42574,79,92,40
215.43095,215.51428,86,92,40
215.68095,215.76428,85,92,40
215.93095,216.18095,86,92,40
216.18095,216.42574,78,92,40
216.43095,216.51428,86,92,40
216.68095,216.76428,85,92,40
216.93095,217.18095,86,92,40
217.18095,217.42574,76,92,40
217.43095,217.68095,76,92,40
217.68095,217.92574,78,92,40
217.93095,218.18095,81,92,40
218.18095,218.43095,79,92,40
218.43095,218.68095,78,92,40
218.68095,218.92574,76,92,40
218.93095,219.34761,74,75,40
219.43095,219.51428,74,60,40
219.68095,219.76428,73,60,40
219.93095,220.18095,74,60,40
220.18095,220.42574,68,60,40
221.43095,221.51428,74,45,40
221.68095,221.76428,73,45,40
221.93095,222.18095,74,45,40
222.18095,222.42574,68,45,40
223.43095,223.51428,76,45,40
223.68095,223.76428,75,47,40
223.93095,224.18095,76,49,40
224.18095,224.42574,67,51,40
225.43095,225.51428,78,61,40
225.68095,225.76428,77,63,40
225.93095,226.18095,78,65,40
226.18095,226.42574,72,67,40
227.43095,227.51428,79,77,40
227.68095,227.76428,79,79,40
227.93095,228.18095,81,81,40
228.18095,228.42574,69,83,40
228.68095,228.92574,78,89,40
228.93095,229.18095,79,92,40
229.18095,229.42574,67,92,40
229.68095,229.92574,74,92,40
229.93095,230.18095,72,92,40
230.18095,230.42574,66,92,40
230.68095,230.92574,71,92,40
230.93095,231.18095,68,92,40
231.18095,231.42574,57,88,40
231.68095,231.92574,69,80,40
231.93095,232.18095,66,76,40
232.18095,232.42574,57,72,40
232.68095,232.92574,67,64,40
232.93095,233.34761,68,60,40
233.93095,234.68095,76,45,40
234.68095,234.92574,78,60,40
234.93095,235.43095,78,75,40
235.43095,235.84761,76,45,40
235.93095,236.68095,76,45,40
236.68095,236.92574,78,60,40
236.93095,237.43095,78,60,40
237.43095,237.84761,76,62,40
237.93095,238.68095,76,64,40
238.68095,238.92574,79,68,40
238.93095,239.43095,79,69,40
239.43095,239.84761,78,71,40
239.93095,240.68095,78,74,40
240.68095,240.92574,81,78,40
240.93095,241.43095,81,79,40
241.43095,241.84761,79,82,40
241.93095,242.43095,81,85,40
242.43095,242.84761,82,88,40
242.93095,243.43095,83,92,40
243.43095,243.84761,79,75,40
243.93095,244.43095,78,60,40
244.43095,244.84761,76,60,40
244.93095,245.43095,76,60,40
245.43095,245.67574,74,60,40
245.93095,246.43095,74,60,40
246.43095,246.67574,73,60,40
246.93095,248.80595,72,45,40
248.93095,249.43095,72,60,40
249.43095,250.43095,71,60,40
250.43095,251.34761,70,56,40
251.43095,252.43095,69,52,40
252.43095,252.84761,61,48,40
252.93095,253.34761,62,45,40
254.93095,255.43095,66,60,40
255.43095,255.67574,64,60,40
255.93095,256.43094,67,60,40
256.43094,256.67575,66,60,40
258.93094,259.43094,65,60,40
259.43094,259.67575,64,60,40
259.93094,260.43094,67,60,40
260.43094,260.67575,65,60,40
262.93094,263.43094,67,60,40
263.43094,263.67575,65,65,40
263.93094,264.43094,68,69,40
264.43094,264.67575,67,74,40
265.93094,266.43094,68,92,40
266.43094,266.67575,67,60,40
267.93094,268.43094,68,75,40
268.43094,268.67575,67,60,40
269.93094,270.43094,67,60,40
270.43094,270.67575,66,60,40
271.93094,272.43094,63,84,40
272.43094,272.67575,64,57,40
272.93094,273.43094,61,74,40
273.43094,273.67575,62,49,40
273.93094,274.43094,60,63,40
274.43094,274.67575,61,45,40
274.93094,275.43094,74,60,40
275.43094,275.93094,83,75,40
275.93094,276.43094,80,60,40
276.43094,278.80594,81,45,40
278.93094,279.43094,74,60,40
279.43094,279.93094,82,75,40
279.93094,280.43094,80,60,40
280.43094,282.80594,81,45,40
282.93094,283.43094,74,45,40
283.43094,283.93094,84,60,40
283.93094,284.43094,81,76,40
284.43094,284.93094,82,92,40
284.93094,286.80594,82,60,40
286.93094,287.43094,81,105,40
287.43094,288.80594,82,75,40
288.93094,289.43094,81,84,40
289.43094,290.80594,82,60,40
290.93094,291.43094,82,84,40
291.43094,292.80594,81,60,40
292.93094,293.43094,81,60,40
293.43094,294.80594,80,45,40
294.93094,295.80594,80,45,40
295.93094,296.80594,81,56,40
296.93094,297.80594,83,68,40
297.93094,298.01428,85,80,40
298.01428,298.09763,86,81,40
298.09763,298.18094,85,82,40
298.18094,298.26428,86,83,40
298.26428,298.34763,85,84,40
298.34763,298.43094,86,85,40
298.43094,298.51428,85,86,40
298.51428,298.59763,86,87,40
298.59763,298.68094,85,88,40
298.68094,298.76428,86,89,40
298.76428,298.84763,83,90,40
298.84763,298.92575,85,91,40
298.93094,299.43094,86,92,40
299.43094,299.93094,82,92,40
299.93094,300.43094,83,88,40
300.43094,300.84763,74,84,40
300.93094,301.43094,86,80,40
301.43094,301.93094,82,75,40
301.93094,302.43094,83,70,40
302.43094,302.84763,74,65,40
302.93094,303.43094,81,60,40
303.43094,304.30594,78,84,40
304.43094,305.59763,74,60,40
305.68094,305.92575,71,75,40
305.93094,306.18094,73,75,40
306.18094,306.30594,74,73,40
306.30594,306.43094,73,72,40
306.43094,306.68094,71,71,40
306.68094,306.92575,73,69,40
306.93094,307.60892,74,67,40
307.69366,307.9426,71,60,40
307.9479,308.20215,73,60,40
308.20215,308.32925,74,60,40
308.32925,308.45636,73,60,40
308.45636,308.7106,71,60,40
308.7106,308.95956,73,60,40
308.96484,309.6545,74,60,40
309.74072,309.99393,66,59,40
309.99933,310.25793,67,59,40
310.25793,310.38727,69,59,40
310.38727,310.51657,67,59,40
310.51657,310.77518,66,59,40
310.77518,311.0284,67,59,40
311.0338,311.48022,66,59,40
312.10522,313.04272,61,57,40
313.17667,314.3221,62,53,40
314.3221,316.0007,60,49,40
316.0007,316.39752,58,45,40
329.334,329.8102,79,92,40
329.8102,330.28638,74,92,40
330.28638,330.76257,77,84,40
330.76257,331.1594,75,76,40
331.23877,331.6356,74,68,40
331.71497,331.7943,70,60,40
331.7943,331.8737,72,60,40
331.8737,331.95306,70,60,40
331.95306,332.0721,69,60,40
332.0721,332.19116,70,59,40
332.19116,332.66733,72,58,40
332.66733,333.06418,69,52,40
333.14352,333.54034,67,45,40
352.19113,352.31018,60,60,40
352.31018,352.42923,59,60,40
352.42923,352.54828,60,60,40
352.54828,352.66235,57,60,40
352.66733,352.78638,60,60,40
352.78638,352.90543,59,60,40
352.90543,353.02448,60,60,40
353.02448,353.13855,57,60,40
353.14352,353.26257,60,60,40
353.26257,353.3816,59,60,40
353.3816,353.50064,60,60,40
353.50064,353.61475,57,60,40
353.6197,353.73874,60,60,40
353.73874,353.8578,59,60,40
353.8578,353.97684,60,60,40
353.97684,354.09094,57,60,40
354.0959,356.00064,63,75,40
356.00064,356.2338,63,92,40
356.00064,356.4719,72,92,40
356.1197,356.4719,81,92,40
359.8975,360.01654,65,60,40
360.01654,360.1356,64,60,40
360.1356,360.25464,65,60,40
360.25464,360.3687,62,60,40
360.3737,360.49274,65,60,40
360.49274,360.6118,64,60,40
360.6118,360.73083,65,60,40
360.73083,360.8449,62,60,40
360.84988,360.96893,65,60,40
360.96893,361.08795,64,60,40
361.08795,361.207,65,60,40
361.207,361.3211,62,60,40
361.32605,361.4451,65,60,40
361.4451,361.56415,64,60,40
361.56415,361.6832,65,60,40
361.6832,361.7973,62,60,40
361.80225,363.58795,62,75,40
361.80225,363.58795,71,75,40
363.707,363.94016,62,92,40
363.707,364.17825,71,92,40
363.82605,364.17825,80,92,40
368.1565,368.27057,76,92,40
368.27554,368.38962,75,92,40
368.39456,368.50867,76,92,40
368.5136,368.62772,69,92,40
369.10886,369.22296,76,92,40
369.2279,369.342,75,92,40
369.34695,369.46103,76,92,40
369.466,369.58008,69,92,40
370.06125,370.17532,78,92,40
370.1803,370.29437,77,92,40
370.29935,370.41342,78,92,40
370.4184,370.53247,69,92,40
371.0136,371.12772,68,92,40
371.13266,371.24677,67,92,40
371.2517,371.3658,68,92,40
371.37076,371.48486,71,92,40
371.966,372.08008,74,92,40
372.08505,372.19913,73,92,40
372.2041,372.31818,74,92,40
372.32315,372.43723,67,92,40
372.9184,373.03247,74,92,40
373.0374,373.15152,73,92,40
373.15646,373.27057,74,92,40
373.2755,373.38962,67,92,40
373.87076,373.98486,76,92,40
373.9898,374.10388,75,92,40
374.10886,374.22293,76,92,40
374.2279,374.34198,67,92,40
374.82315,374.93723,66,92,40
374.9422,375.05627,65,92,40
375.06125,375.17532,66,92,40
375.1803,375.29437,69,92,40
375.7755,375.88962,77,92,40
375.89456,376.00867,76,91,40
376.0136,376.12772,77,90,40
376.13266,376.24677,74,89,40
376.2517,376.64853,71,88,40
377.68027,377.79437,77,67,40
377.79932,377.91342,76,66,40
377.91837,378.03247,77,64,40
378.0374,378.15152,74,62,40
378.15646,378.55328,71,60,40
379.58505,379.69913,81,92,40
379.7041,379.81818,80,92,40
379.82315,379.93723,81,90,40
379.94217,380.05627,77,88,40
380.06122,380.17532,74,86,40
380.18027,380.29437,73,84,40
380.29932,380.41342,74,82,40
380.41837,380.53247,69,80,40
380.5374,380.65152,65,78,40
380.65646,380.77057,64,75,40
380.7755,380.88962,65,72,40
380.89456,381.00864,62,69,40
381.0136,381.1277,59,66,40
381.13266,381.24673,58,63,40
381.2517,381.36578,59,60,40
381.37076,381.48483,56,60,40
384.82312,385.29932,64,60,40
385.29932,385.7755,72,75,40
385.7755,386.2517,68,92,40
386.2517,386.64853,69,60,40
388.63266,389.10886,67,92,40
389.10886,389.58502,62,75,40
389.58502,390.06122,65,92,40
390.06122,390.45804,64,60,40
392.44217,392.91837,74,75,40
392.91837,393.39456,69,75,40
393.39456,393.87073,72,75,40
393.87073,394.26758,71,75,40
394.34692,394.82312,64,60,40
394.82312,395.7755,59,60,40
395.7755,396.17233,56,60,40
398.15646,398.63263,71,60,40
398.63263,399.58502,69,84,40
399.58502,399.98184,68,60,40
400.06122,400.1753,76,45,40
400.18027,400.29434,76,45,40
400.29932,400.4134,76,45,40
400.41837,400.53244,76,45,40
400.5374,400.6515,76,45,40
400.65646,400.77054,76,45,40
400.77548,400.8896,76,45,40
400.89453,401.00864,76,45,40
401.01358,401.1277,74,45,40
401.13263,401.24673,74,45,40
401.25168,401.36578,74,45,40
401.37073,401.48483,74,45,40
401.48978,401.60388,72,45,40
401.60883,401.72293,72,45,40
401.72787,401.84195,72,45,40
401.84692,401.961,72,45,40
401.96597,402.08005,76,45,40
402.08502,402.1991,76,45,40
402.20407,402.31815,76,45,40
402.32312,402.4372,76,45,40
402.44217,402.55624,76,45,40
402.56122,402.6753,76,45,40
402.68027,402.79434,76,45,40
402.79932,402.9134,76,45,40
402.91837,403.03244,74,45,40
403.03738,403.1515,74,45,40
403.15643,403.27054,74,45,40
403.27548,403.3896,74,45,40
403.39453,403.50864,72,45,40
403.51358,403.6277,72,45,40
403.63263,403.74673,72,45,40
403.75168,403.86578,72,45,40
403.87073,403.98483,72,45,40
403.98978,404.10385,72,45,40
404.10883,404.2229,72,46,40
404.22787,404.34195,72,47,40
404.34692,404.461,72,48,40
404.46597,404.58005,72,49,40
404.58502,404.6991,72,50,40
404.70407,404.81815,72,51,40
404.82312,404.9372,72,52,40
404.94217,405.05624,72,53,40
405.06122,405.1753,72,54,40
405.18027,405.29434,72,55,40
405.2993,405.4134,72,56,40
405.41833,405.53244,72,57,40
405.53738,405.6515,72,58,40
405.65643,405.77054,72,59,40
405.77548,405.8896,72,60,40
405.89453,406.00864,72,60,40
406.01358,406.1277,72,60,40
406.13263,406.24673,72,60,40
406.25168,406.36575,84,60,40
406.37073,406.4848,84,60,40
406.48978,406.60385,84,60,40
406.60883,406.7229,84,60,40
406.72787,406.84195,82,60,40
406.84692,406.961,82,60,40
406.96597,407.08005,82,60,40
407.08502,407.1991,82,60,40
407.20407,407.31815,83,60,40
407.32312,407.4372,83,60,40
407.44217,407.55624,83,60,40
407.56122,407.6753,83,60,40
407.68024,407.79434,70,60,40
407.7993,407.9134,70,60,40
407.91833,408.03244,70,60,40
408.03738,408.1515,70,60,40
408.15643,408.27054,82,60,40
408.27548,408.3896,82,60,40
408.39453,408.50864,82,60,40
408.51358,408.6277,82,60,40
408.63263,408.7467,80,60,40
408.75168,408.86575,80,60,40
408.87073,408.9848,80,60,40
408.98978,409.10385,80,60,40
409.10883,409.2229,81,60,40
409.22787,409.34195,81,60,40
409.34692,409.461,81,60,40
409.46597,409.58005,81,60,40
409.58502,409.6991,69,60,40
409.70407,409.81815,69,60,40
409.82312,409.9372,69,60,40
409.94214,410.05624,69,60,40
410.0612,410.1753,81,60,40
410.18024,410.29434,81,60,40
410.2993,410.4134,81,60,40
410.41833,410.53244,81,60,40
410.53738,410.6515,76,60,40
410.65643,410.77054,76,60,40
410.77548,410.8896,76,60,40
410.89453,411.0086,76,60,40
411.01358,411.12766,77,60,40
411.13263,411.2467,77,60,40
411.25168,411.36575,77,60,40
411.37073,411.4848,77,60,40
411.48978,411.60385,70,60,40
411.60883,411.7229,70,60,40
411.72787,411.84195,70,60,40
411.84692,411.961,70,60,40
411.96597,412.08005,82,60,40
412.08502,412.1991,82,60,40
412.20407,412.31815,82,60,40
412.3231,412.4372,82,60,40
412.44214,412.55624,77,60,40
412.5612,412.6753,77,60,40
412.68024,412.79434,77,60,40
412.7993,412.9134,77,60,40
412.91833,413.03244,78,60,40
413.03738,413.1515,78,60,40
413.15643,413.27054,78,60,40
413.27548,413.38956,78,60,40
413.39453,413.5086,71,60,40
413.51358,413.62766,71,61,40
413.63263,413.7467,71,61,40
413.75168,413.86575,71,62,40
413.87073,413.9848,83,63,40
413.98978,414.10385,83,64,40
414.10883,414.2229,83,65,40
414.22787,414.34195,83,66,40
414.34692,414.461,78,67,40
414.46597,414.58005,78,68,40
414.585,414.6991,78,69,40
414.70404,414.81815,78,70,40
414.8231,414.9372,79,71,40
414.94214,415.05624,79,72,40
415.0612,415.1753,79,73,40
415.18024,415.29434,79,74,40
415.2993,415.4171,71,75,40
415.42224,415.54007,71,76,40
415.5452,415.66302,71,77,40
415.66815,415.78598,71,78,40
415.7911,415.90894,83,79,40
415.91403,416.03186,83,80,40
416.037,416.15482,83,81,40
416.15994,416.27777,83,82,40
416.2829,416.40472,78,83,40
416.41,416.53183,78,84,40
416.53714,416.65897,78,85,40
416.66425,416.78607,78,86,40
416.79138,416.91528,79,87,40
416.9207,417.04462,79,88,40
417.05,417.17392,79,89,40
417.1793,417.30322,79,90,40
417.30862,417.72528,83,92,40
417.80862,418.22528,91,92,40
418.30862,418.72528,87,92,40
418.80862,419.22528,88,92,40
419.30862,419.72528,84,92,40
419.80862,420.0534,79,84,40
420.05862,420.3034,76,80,40
420.30862,420.72528,72,76,40
420.80862,421.22528,71,68,40
421.30862,422.30862,70,60,40
422.30862,422.72528,71,60,40
422.80862,423.30862,71,60,40
423.30862,423.80862,81,60,40
423.80862,424.30862,75,61,40
424.30862,424.72528,78,62,40
424.80862,425.30862,71,63,40
425.30862,425.80862,83,64,40
425.80862,426.30862,76,65,40
426.30862,426.72528,79,66,40
426.80862,427.30862,72,67,40
427.30862,427.80862,84,68,40
427.80862,428.30862,76,69,40
428.30862,428.72528,79,70,40
428.80862,429.30862,73,71,40
429.30862,429.80862,85,72,40
429.80862,430.30862,76,73,40
430.30862,430.72528,79,74,40
430.80862,431.30862,73,75,40
431.30862,431.72528,85,76,40
431.80862,432.30862,76,78,40
432.30862,432.72528,88,80,40
432.80862,433.30862,79,82,40
433.30862,433.72528,91,84,40
433.80862,434.30862,79,86,40
434.30862,434.72528,91,88,40
434.80862,435.30862,79,90,40
435.30862,436.18362,91,92,40
436.80862,436.9284,89,92,40
436.93362,437.0534,89,88,40
437.05862,437.1784,89,84,40
437.18362,437.3034,89,80,40
437.30862,437.4284,86,75,40
437.43362,437.5534,86,75,40
437.55862,437.6784,86,75,40
437.68362,437.8034,86,75,40
437.80862,437.9284,88,75,40
437.93362,438.0534,88,75,40
438.05862,438.1784,88,75,40
438.18362,438.3034,88,75,40
438.80862,438.9284,86,75,40
438.93362,439.0534,86,75,40
439.05862,439.1784,86,75,40
439.18362,439.3034,86,75,40
439.30862,439.4284,82,75,40
439.43362,439.5534,82,75,40
439.55862,439.6784,82,75,40
439.68362,439.8034,82,75,40
439.80862,439.9284,84,75,40
439.93362,440.0534,84,75,40
440.05862,440.1784,84,75,40
440.18362,440.3034,84,75,40
440.80862,440.9284,82,75,40
440.93362,441.0534,82,75,40
441.05862,441.1784,82,75,40
441.18362,441.3034,82,75,40
441.30862,441.4284,79,75,40
441.43362,441.5534,79,75,40
441.55862,441.6784,79,75,40
441.68362,441.8034,79,75,40
441.80862,441.9284,81,75,40
441.93362,442.0534,81,75,40
442.05862,442.1784,81,75,40
442.18362,442.3034,81,75,40
442.80862,442.9284,79,75,40
442.93362,443.0534,79,75,40
443.05862,443.1784,79,75,40
443.18362,443.3034,79,75,40
443.30862,443.4284,75,75,40
443.43362,443.5534,75,75,40
443.55862,443.6784,75,75,40
443.68362,443.8034,75,75,40
443.80862,443.9284,77,75,40
443.93362,444.0534,77,75,40
444.05862,444.1784,77,75,40
444.18362,444.3034,77,75,40
444.30862,444.4284,70,75,40
444.43362,444.5534,70,75,40
444.55862,444.6784,70,75,40
444.68362,444.8034,70,75,40
444.80862,444.9284,74,75,40
444.93362,445.0534,74,75,40
445.05862,445.1784,74,75,40
445.18362,445.3034,74,75,40
445.30862,445.4284,75,75,40
445.43362,445.5534,75,75,40
445.55862,445.6784,75,75,40
445.68362,445.8034,75,75,40
445.80862,445.9284,70,75,40
445.93362,446.0534,70,75,40
446.05862,446.1784,70,75,40
446.18362,446.3034,70,75,40
446.30862,446.4284,70,75,40
446.43362,446.5534,70,75,40
446.55862,446.6784,70,75,40
446.68362,446.8034,70,75,40
446.80862,446.9284,73,75,40
446.93362,447.0534,73,75,40
447.05862,447.1784,73,75,40
447.18362,447.3034,73,75,40
447.30862,447.4284,76,75,40
447.43362,447.5534,76,75,40
447.55862,447.6784,76,75,40
447.68362,447.8034,76,75,40
447.80862,447.9284,69,75,40
447.93362,448.0534,69,75,40
448.05862,448.1784,69,75,40
448.18362,448.3034,69,75,40
448.30862,448.4284,73,75,40
448.43362,448.5534,73,75,40
448.55862,448.6784,73,75,40
448.68362,448.8034,73,75,40
448.80862,448.9284,76,75,40
448.93362,449.0534,76,75,40
449.05862,449.1784,76,75,40
449.18362,449.3034,76,75,40
449.30862,449.4284,69,75,40
449.43362,449.5534,69,75,40
449.55862,449.6784,69,75,40
449.68362,449.8034,69,75,40
449.80862,449.9284,73,75,40
449.93362,450.0534,73,75,40
450.05862,450.1784,73,75,40
450.18362,450.3034,73,75,40
450.30862,450.4284,76,75,40
450.43362,450.5534,76,75,40
450.55862,450.6784,76,75,40
450.68362,450.8034,76,75,40
450.80862,450.9284,69,75,40
450.93362,451.0534,69,75,40
451.05862,451.1784,69,75,40
451.18362,451.3034,69,75,40
451.30862,451.4284,81,75,40
451.43362,451.5534,81,75,40
451.55862,451.6784,81,75,40
451.68362,451.8034,81,75,40
451.80862,451.9284,69,75,40
451.93362,452.0534,69,75,40
452.05862,452.1784,69,75,40
452.18362,452.3034,69,75,40
452.30862,452.4284,69,75,40
452.43362,452.5534,69,75,40
452.55862,452.6784,69,75,40
452.68362,452.8034,69,75,40
452.80862,452.9284,69,75,40
452.93362,453.0534,69,75,40
453.05862,453.1784,69,75,40
453.18362,453.3034,69,75,40
453.30862,453.4284,66,75,40
453.43362,453.5534,66,75,40
453.55862,453.6784,66,75,40
453.68362,453.8034,66,75,40
453.80862,453.9284,66,75,40
453.93362,454.0534,66,75,40
454.05862,454.1784,66,75,40
454.18362,454.3034,66,75,40
454.30862,454.4284,62,75,40
454.43362,454.5534,62,75,40
454.55862,454.6784,62,75,40
454.68362,454.8034,62,75,40
454.80862,454.9284,62,75,40
454.93362,455.0534,62,75,40
455.05862,455.1784,62,74,40
455.18362,455.3034,62,73,40
455.30862,455.4284,57,72,40
455.43362,455.5534,57,71,40
455.55862,455.6784,57,70,40
455.68362,455.8034,57,69,40
455.80862,455.9284,57,68,40
455.93362,456.0534,57,67,40
456.05862,456.1784,57,66,40
456.18362,456.3034,57,65,40
456.80862,456.9284,57,60,40
456.93362,457.0534,57,60,40
457.05862,457.1784,57,57,40
457.18362,457.3034,57,54,40
457.30862,457.43253,57,51,40
457.43793,457.56186,57,48,40
457.56723,457.69116,57,45,40
457.69653,457.82047,57,45,40
458.8788,459.00714,57,60,40
459.01273,459.14108,57,60,40
459.14667,459.27502,57,55,40
459.28058,459.40894,57,50,40
459.41452,459.70828,57,45,40
465.8145,466.8145,79,63,40
466.8145,467.2312,78,45,40
467.8145,468.8145,79,63,40
468.8145,469.2312,77,45,40
469.8145,470.0645,79,60,40
470.0645,470.30933,78,60,40
470.3145,470.5645,78,60,40
470.5645,470.80933,79,60,40
470.8145,471.2312,67,60,40
471.8145,472.0645,79,60,40
472.0645,472.30933,78,60,40
472.3145,472.5645,78,60,40
472.5645,472.80933,79,60,40
472.8145,473.2312,67,60,40
473.8145,474.0645,79,60,40
474.0645,474.30933,67,61,40
474.3145,474.5645,67,63,40
474.5645,474.80933,79,65,40
474.8145,475.0645,79,67,40
475.0645,475.30933,67,69,40
475.3145,475.5645,67,71,40
475.5645,475.80933,79,73,40
475.8145,476.0645,79,75,40
476.0645,476.30933,67,75,40
476.3145,476.5645,67,60,40
476.5645,476.80933,79,60,40
476.8145,477.05933,76,45,40
477.0645,477.3145,76,45,40
477.3145,477.55933,77,55,40
477.5645,477.8145,77,65,40
477.8145,478.05933,79,75,40
478.0645,478.3145,79,75,40
478.3145,478.55933,72,60,40
478.5645,478.8145,72,60,40
478.8145,479.05933,71,45,40
479.0645,479.3145,71,45,40
479.3145,479.55933,72,55,40
479.5645,479.8145,72,65,40
479.8145,480.05933,74,75,40
480.0645,480.3145,74,75,40
480.3145,480.55933,67,60,40
480.5645,481.05933,67,60,40
481.0645,481.55933,67,60,40
481.5645,482.05933,67,60,40
482.0645,482.55933,67,60,40
482.5645,482.8145,67,60,40
482.8145,483.05933,62,60,40
483.0645,483.55933,62,58,40
483.5645,484.05933,62,54,40
484.0645,484.55933,62,50,40
484.5645,484.80933,62,45,40
496.8145,498.3145,71,60,40
498.3145,498.7312,72,60,40
498.8145,500.3145,73,75,40
500.3145,500.7312,74,75,40
500.8145,501.5645,75,92,40
501.5645,501.80933,76,75,40
501.8145,502.0645,68,60,40
502.0645,502.3145,69,60,40
502.3145,502.5645,71,60,40
502.5645,502.80933,72,60,40
502.8145,503.0645,75,60,40
503.0645,503.55933,76,75,40
503.5645,504.0645,77,92,40
504.0645,504.3145,76,92,40
504.3145,504.5645,72,75,40
504.5645,504.80933,69,75,40
504.8145,506.8145,67,60,40
506.8145,507.83148,67,45,40
507.83148,508.2625,66,45,40
508.88443,509.36063,74,92,40
509.36063,509.8368,86,92,40
509.8368,510.313,81,75,40
510.313,510.7098,82,60,40
514.5987,515.9082,60,60,40
514.5987,515.9082,72,60,40
516.0273,516.90027,60,75,40
516.0273,516.90027,72,75,40
516.9797,517.4559,72,92,40
517.4559,517.932,70,92,40
517.932,518.80505,69,92,40
518.8844,519.28125,67,92,40
519.3606,519.75745,69,92,40
519.8368,520.23364,66,92,40
520.313,520.54614,55,92,40
520.313,520.78424,62,92,40
520.432,520.78424,74,92,40
520.7892,521.2654,82,92,40
521.2654,521.7416,78,92,40
521.7416,522.13837,79,92,40
522.2178,522.6939,77,92,40
522.6939,523.1701,72,88,40
523.1701,523.6463,75,84,40
523.6463,524.04315,74,80,40
524.1225,524.5987,72,76,40
524.5987,525.0749,67,72,40
525.0749,525.5511,70,68,40
525.5511,525.9479,69,64,40
526.0273,526.5035,70,60,40
526.5035,526.90027,69,60,40
526.9797,527.4558,70,61,40
527.4558,527.85266,69,62,40
527.932,528.4082,75,63,40
528.4082,528.80505,74,64,40
528.8844,529.3606,75,65,40
529.3606,529.75745,74,66,40
529.8368,530.313,80,68,40
530.313,530.7098,79,70,40
530.7892,531.2654,80,72,40
531.2654,531.6622,79,74,40
531.7415,531.85565,82,76,40
531.8606,531.9747,81,76,40
531.9796,532.09375,82,76,40
532.0987,532.21277,79,76,40
532.2177,532.33185,82,76,40
532.3368,532.45087,81,76,40
532.4558,532.56995,82,76,40
532.5749,532.68896,79,76,40
532.6939,532.808,84,76,40
532.813,532.92706,82,76,40
532.932,533.0461,84,76,40
533.0511,533.16516,81,76,40
533.1701,533.2842,84,76,40
533.2892,533.40326,82,76,40
533.4082,533.5223,84,76,40
533.5273,533.64136,81,76,40
533.6463,533.7604,86,76,40
533.7654,533.87946,85,77,40
533.8844,533.9985,86,78,40
534.0034,534.11755,82,79,40
534.1225,534.2366,82,80,40
534.2415,534.35565,81,81,40
534.3606,534.4747,82,82,40
534.4796,534.59375,79,83,40
534.5987,534.71277,84,84,40
534.7177,534.83185,82,85,40
534.8368,534.95087,84,86,40
534.9558,535.0699,81,87,40
535.0749,535.18896,81,88,40
535.1939,535.308,79,89,40
535.313,535.42706,81,90,40
535.432,535.5461,78,91,40
535.5511,535.6701,79,92,40
535.6701,535.7892,78,92,40
535.7892,535.90326,79,92,40
535.9082,536.0223,67,92,40
536.0273,536.2604,67,92,40
536.5034,536.6225,79,92,40
536.6225,536.7415,78,92,40
536.7415,536.85565,79,92,40
536.8606,536.9747,67,92,40
536.9796,537.21277,67,92,40
537.4558,537.5749,80,92,40
537.5749,537.6939,79,92,40
537.6939,537.808,80,92,40
537.813,537.92706,68,92,40
537.932,538.16516,68,92,40
538.4082,538.5273,78,92,40
538.5273,538.6463,77,92,40
538.6463,538.7604,78,92,40
538.7653,538.87946,66,92,40
538.8844,539.11755,66,92,40
539.3606,539.4796,79,92,40
539.4796,539.5987,78,92,40
539.5987,539.71277,79,92,40
539.7177,539.8318,67,92,40
539.8368,540.0699,67,92,40
540.313,540.432,79,92,40
540.432,540.5511,78,92,40
540.5511,540.66516,79,92,40
540.6701,540.7842,67,92,40
540.7892,541.0223,67,92,40
541.2653,541.3844,80,92,40
541.3844,541.5034,79,92,40
541.5034,541.61755,80,92,40
541.6225,541.7366,68,92,40
541.7415,541.9747,68,92,40
542.2177,542.3368,82,92,40
542.3368,542.4558,81,92,40
542.4558,542.5699,82,92,40
542.5749,542.68896,70,92,40
542.6939,542.92706,70,92,40
543.1701,543.2891,79,92,40
543.2891,543.4082,78,92,40
543.4082,543.5223,79,92,40
543.5272,543.64136,67,92,40
543.6463,543.87946,67,92,40
544.1225,544.2415,84,92,40
544.2415,544.3606,83,92,40
544.3606,544.4747,84,92,40
544.4796,544.5937,72,92,40
544.5987,544.8318,72,92,40
545.0749,545.1939,89,92,40
545.1939,545.313,88,92,40
545.313,545.42706,89,92,40
545.432,545.5461,77,92,40
545.551,545.7842,77,92,40
546.0272,546.1463,82,92,40
546.1463,546.2653,81,92,40
546.2653,546.37946,82,92,40
546.3844,546.4985,70,92,40
546.5034,546.7366,70,92,40
546.9796,547.61456,91,92,40
550.8937,551.7687,67,75,40
551.8937,552.31036,68,75,40
552.3937,552.81036,69,77,40
552.8937,553.56036,70,80,40
553.6437,553.8885,72,84,40
553.8937,554.31036,74,85,40
554.3937,554.81036,75,88,40
554.8937,555.56036,79,92,40
555.6437,555.8885,77,92,40
555.8937,556.31036,74,92,40
556.3937,556.81036,72,92,40
556.8937,557.3937,70,92,40
557.3937,557.5187,72,84,40
557.5187,557.6437,70,82,40
557.6437,557.7687,69,80,40
557.7687,557.8885,70,78,40
557.8937,558.3937,72,76,40
558.3937,558.81036,68,68,40
558.8937,559.56036,67,60,40
559.8937,560.3937,65,75,40
560.3937,560.81036,67,75,40
560.8937,561.56036,68,92,40
561.6437,561.8885,67,92,40
561.8937,562.31036,65,89,40
562.3937,562.81036,63,82,40
562.8937,563.31036,65,75,40
563.8937,564.6437,66,105,40
564.6437,564.8885,63,75,40
564.8937,565.31036,62,60,40
571.3937,571.5187,82,60,40
571.5187,571.6437,81,60,40
571.6437,571.7635,82,60,40
571.7687,571.8885,82,60,40
571.8937,572.0187,81,60,40
572.0187,572.1437,80,60,40
572.1437,572.2635,81,60,40
572.2687,572.3885,81,60,40
572.3937,572.5187,79,60,40
572.5187,572.6437,78,60,40
572.6437,572.7635,79,60,40
572.7687,572.8885,79,60,40
572.8937,573.0187,78,60,40
573.0187,573.1437,77,60,40
573.1437,573.2635,78,60,40
573.2687,573.3885,78,60,40
573.3937,573.5187,79,60,40
573.5187,573.6437,78,60,40
573.6437,573.7635,79,60,40
573.7687,573.8885,79,60,40
573.8937,574.0187,81,60,40
574.0187,574.1437,80,60,40
574.1437,574.2635,81,60,40
574.2687,574.3885,81,60,40
574.3937,574.5187,82,60,40
574.5187,574.6437,81,60,40
574.6437,574.7635,82,60,40
574.7687,574.8885,82,60,40
574.8937,575.0187,84,60,40
575.0187,575.1437,83,60,40
575.1437,575.2635,84,60,40
575.2687,575.3885,84,60,40
575.3937,575.5187,82,60,40
575.5187,575.6437,81,61,40
575.6437,575.7635,82,61,40
575.7687,575.8885,82,62,40
575.8937,576.0187,81,63,40
576.0187,576.1437,80,64,40
576.1437,576.2635,81,65,40
576.2687,576.3885,81,66,40
576.3937,576.5187,79,67,40
576.5187,576.6437,78,68,40
576.6437,576.7635,79,69,40
576.7687,576.8885,79,70,40
576.8937,577.0187,75,71,40
577.0187,577.1437,74,72,40
577.1437,577.2635,75,73,40
577.2687,577.3885,75,74,40
577.3937,577.5187,75,75,40
577.5187,577.6437,74,76,40
577.6437,577.7635,75,77,40
577.7687,577.8885,75,78,40
577.8937,578.0187,76,79,40
578.0187,578.1437,75,80,40
578.1437,578.2635,76,81,40
578.2687,578.3885,76,82,40
578.3937,578.5187,76,83,40
578.5187,578.6437,75,84,40
578.6437,578.7635,76,85,40
578.7687,578.8885,76,86,40
578.8937,579.0187,69,87,40
579.0187,579.1437,68,88,40
579.1437,579.2635,69,89,40
579.2687,579.3885,74,90,40
579.3937,580.2687,74,92,40
579.3937,580.2687,86,92,40
580.3937,581.31036,74,92,40
580.3937,581.31036,86,92,40
581.3937,582.2687,74,92,40
581.3937,582.2687,86,92,40
582.3937,582.8937,73,92,40
582.3937,582.8937,85,92,40
582.8937,583.31036,74,92,40
582.8937,583.31036,86,92,40
583.3937,583.8937,74,92,40
583.8937,584.3937,73,92,40
584.3937,584.8937,72,92,40
584.8937,585.3937,70,92,40
585.3937,585.8937,74,92,40
585.8937,586.6437,79,92,40
586.6437,586.8885,81,92,40
586.8937,587.31036,79,92,40
587.3937,587.8937,78,92,40
587.8937,588.3937,79,92,40
588.3937,588.8937,81,92,40
588.8937,589.31036,74,92,40
589.3937,589.8937,83,92,40
589.8937,590.3937,84,92,40
590.3937,590.8937,86,92,40
590.8937,591.31036,79,92,40
591.3937,591.8937,79,92,40
591.8937,592.3937,77,92,40
592.3937,592.81036,75,92,40
592.8937,593.8937,74,92,40
593.8937,594.8937,76,92,40
594.8937,595.31036,78,92,40
596.3937,596.5187,74,60,40
596.5187,596.6437,62,60,40
596.6437,596.7687,73,60,40
596.7687,596.8885,62,60,40
596.8937,597.0187,74,60,40
597.0187,597.1437,62,60,40
597.1437,597.2687,72,60,40
597.2687,597.3937,62,60,40
597.3937,597.5187,70,60,40
597.5187,597.6437,62,60,40
597.6437,597.7687,69,60,40
597.7687,597.8885,62,60,40
597.8937,598.0187,70,60,40
598.0187,598.1437,62,60,40
598.1437,598.2687,69,60,40
598.2687,598.3937,62,60,40
598.3937,598.5187,67,60,40
598.5187,598.6437,62,60,40
598.6437,598.7687,66,60,40
598.7687,598.8885,62,60,40
598.8937,599.0187,67,60,40
599.0187,599.1385,62,60,40
599.1437,599.2635,62,60,40
599.2687,599.3885,62,60,40
599.3937,599.5187,67,60,40
599.5187,599.6437,62,60,40
599.6437,599.7687,69,60,40
599.7687,599.8937,62,60,40
599.8937,600.0187,70,60,40
600.0187,600.1437,62,60,40
600.1437,600.2687,67,60,40
600.2687,600.3885,62,60,40
600.3937,600.5187,70,60,40
600.5187,600.6437,62,60,40
600.6437,600.7687,74,60,40
600.7687,600.8937,62,60,40
600.8937,601.0187,75,60,40
601.0187,601.1437,62,60,40
601.1437,601.2687,72,60,40
601.2687,601.3885,62,60,40
601.3937,601.5187,75,60,40
601.5187,601.6437,62,60,40
601.6437,601.7687,74,60,40
601.7687,601.8937,62,60,40
601.8937,602.0187,75,60,40
602.0187,602.1437,62,60,40
602.1437,602.2687,81,60,40
602.2687,602.3885,62,60,40
602.3937,602.5187,75,60,40
602.5187,602.6437,62,60,40
602.6437,602.7687,74,75,40
602.7687,602.8937,62,75,40
602.8937,603.0187,75,92,40
603.0187,603.1437,62,92,40
603.1437,603.2687,72,75,40
603.2687,603.3885,62,75,40
603.3937,603.5187,75,60,40
603.5187,603.6437,62,60,40
603.6437,603.7687,74,75,40
603.7687,603.8937,62,75,40
603.8937,604.0187,75,92,40
604.0187,604.1437,62,92,40
604.1437,604.2687,81,75,40
604.2687,604.3885,62,75,40
604.3937,604.5187,75,60,40
604.5187,604.6437,62,60,40
604.6437,604.7687,74,75,40
604.7687,604.8937,62,75,40
604.8937,605.0187,77,92,40
605.0187,605.1437,62,92,40
605.1437,605.2687,75,75,40
605.2687,605.3937,62,75,40
605.3937,605.5187,74,60,40
605.5187,605.6437,62,60,40
605.6437,605.7687,72,60,40
605.7687,605.8885,62,60,40
605.8937,606.0187,74,60,40
606.0187,606.1437,63,60,40
606.1437,606.2687,72,60,40
606.2687,606.3937,63,60,40
606.3937,606.5187,70,60,40
606.5187,606.6437,63,60,40
606.6437,606.7687,69,60,40
606.7687,606.8885,63,60,40
606.8937,607.0187,67,60,40
607.0187,607.1437,55,60,40
607.1437,607.2687,66,60,40
607.2687,607.3937,55,60,40
607.3937,607.5187,67,60,40
607.5187,607.6437,55,60,40
607.6437,607.7687,70,60,40
607.7687,607.8885,55,60,40
607.8937,608.0187,69,60,40
608.0187,608.1437,62,60,40
608.1437,608.2687,66,60,40
608.2687,608.3885,62,60,40
608.3937,608.5187,74,45,40
608.5187,608.6437,62,45,40
608.6437,608.7687,73,45,40
608.7687,608.8937,62,45,40
608.8937,609.0187,74,60,40
609.0187,609.1437,62,60,40
609.1437,609.2687,72,60,40
609.2687,609.3937,62,60,40
609.3937,609.5187,70,60,40
609.5187,609.6437,62,60,40
609.6437,609.7687,69,60,40
609.7687,609.8885,62,60,40
609.8937,610.0187,70,60,40
610.0187,610.1437,62,60,40
610.1437,610.2687,69,60,40
610.2687,610.3937,62,60,40
610.3937,610.5187,67,60,40
610.5187,610.6437,62,60,40
610.6437,610.7687,66,60,40
610.7687,610.8885,62,60,40
610.8937,611.0187,67,60,40
611.0187,611.1385,62,60,40
611.1437,611.2635,62,60,40
611.2687,611.3885,62,60,40
611.3937,611.5187,67,60,40
611.5187,611.6437,62,60,40
611.6437,611.7687,69,60,40
611.7687,611.8937,62,60,40
611.8937,612.0187,70,60,40
612.0187,612.1437,62,60,40
612.1437,612.2687,67,60,40
612.2687,612.3885,62,60,40
612.3937,612.5187,79,75,40
612.5187,612.6437,67,75,40
612.6437,612.7687,78,60,40
612.7687,612.8937,67,60,40
612.8937,613.0187,79,60,40
613.0187,613.1437,67,60,40
613.1437,613.2687,79,60,40
613.2687,613.3937,67,60,40
613.3937,613.5187,79,60,40
613.5187,613.6437,67,60,40
613.6437,613.7687,79,60,40
613.7687,613.8885,67,60,40
613.8937,614.0187,67,60,40
614.0187,614.1437,55,60,40
614.1437,614.2687,67,60,40
614.2687,614.3937,55,60,40
614.3937,614.5187,67,60,40
614.5187,614.6437,55,60,40
614.6437,614.7687,67,60,40
614.7687,614.8885,55,60,40
614.8937,615.0187,79,60,40
615.0187,615.1437,67,60,40
615.1437,615.2687,79,60,40
615.2687,615.3937,67,60,40
615.3937,615.5187,79,60,40
615.5187,615.6437,67,60,40
615.6437,615.7687,79,60,40
615.7687,615.8885,67,60,40
615.8937,616.0187,67,60,40
616.0187,616.1437,55,60,40
616.1437,616.2687,67,60,40
616.2687,616.3937,55,60,40
616.3937,616.5187,67,60,40
616.5187,616.6437,55,60,40
616.6437,616.7687,67,60,40
616.7687,616.8885,55,60,40
616.8937,617.0187,79,60,40
617.0187,617.1437,67,63,40
617.1437,617.2687,78,67,40
617.2687,617.3937,67,71,40
617.3937,617.5187,79,75,40
617.5187,617.6437,67,75,40
617.6437,617.7687,55,75,40
617.7687,617.8885,67,75,40
617.8937,618.0187,79,75,40
618.0187,618.1437,67,75,40
618.1437,618.2687,78,75,40
618.2687,618.3937,67,75,40
618.3937,618.5187,79,75,40
618.5187,618.6437,67,75,40
618.6437,618.7687,55,75,40
618.7687,618.8885,67,75,40
618.8937,619.0187,79,75,40
619.0187,619.1437,67,75,40
619.1437,619.2687,78,75,40
619.2687,619.3937,67,75,40
619.3937,619.5187,79,75,40
619.5187,619.6437,67,75,40
619.6437,619.7687,55,75,40
619.7687,619.8885,67,75,40
619.8937,620.0187,70,75,40
620.0187,620.1437,62,74,40
620.1437,620.2687,69,72,40
620.2687,620.3937,62,70,40
620.3937,620.5187,67,68,40
620.5187,620.6437,62,66,40
620.6437,620.7687,66,64,40
620.7687,620.8885,62,62,40
620.8937,621.31036,67,60,40
621.3937,621.56036,79,60,40
621.56036,621.72705,69,70,40
621.72705,621.8937,78,81,40
621.8937,622.1437,79,92,40
622.1437,622.3885,69,60,40
623.3937,623.56036,79,60,40
623.56036,623.72705,69,70,40
623.72705,623.8937,78,81,40
623.8937,624.1437,79,92,40
624.1437,624.3885,69,60,40
625.3937,625.56036,78,60,40
625.56036,625.72705,69,70,40
625.72705,625.8937,77,81,40
625.8937,626.1437,78,92,40
626.1437,626.3885,69,60,40
627.3937,627.56036,77,60,40
627.56036,627.72705,68,70,40
627.72705,627.8937,76,81,40
627.8937,628.1437,77,92,40
628.1437,628.3885,68,60,40
629.3937,629.56036,75,60,40
629.56036,629.72705,67,70,40
629.72705,629.8937,74,81,40
629.8937,630.1437,75,92,40
630.1437,630.3885,67,60,40
631.3937,631.56036,74,60,40
631.56036,631.72705,62,70,40
631.72705,631.8937,70,81,40
631.8937,632.1437,74,92,40
632.1437,632.3885,69,60,40
633.8937,634.6437,81,60,40
634.6437,634.8885,82,60,40
634.8937,635.3937,82,60,40
635.3937,635.81036,81,62,40
635.8937,636.6437,81,64,40
636.6437,636.8885,82,68,40
636.8937,637.3937,82,69,40
637.3937,637.81036,81,71,40
637.8937,638.6437,81,74,40
638.6437,638.8885,87,78,40
638.8937,639.3937,87,79,40
639.3937,639.81036,86,82,40
639.8937,640.6437,86,85,40
640.6437,640.8885,92,90,40
640.8937,641.3937,92,92,40
641.3937,641.81036,91,92,40
641.8937,642.3937,87,75,40
642.3937,642.81036,84,75,40
642.8937,643.3937,84,75,40
643.3937,643.6385,82,75,40
643.8937,644.3937,84,60,40
644.3937,644.6385,81,60,40
644.8937,645.8937,80,84,40
645.8937,647.31036,80,60,40
647.3937,648.3937,79,60,40
648.3937,649.3937,78,84,40
649.3937,650.2687,75,60,40
650.3937,651.3937,72,84,40
651.3937,651.6385,70,60,40
651.8937,652.3937,72,84,40
652.3937,652.6385,69,60,40
652.8937,653.31036,67,60,40
654.8937,655.3937,70,60,40
655.3937,655.6385,69,60,40
655.8937,656.3937,72,60,40
656.3937,656.6385,70,60,40
658.8937,659.3937,71,60,40
659.3937,659.6385,69,60,40
659.8937,660.3937,72,60,40
660.3937,660.6385,71,60,40
662.8937,663.3937,72,60,40
663.3937,663.6385,70,63,40
663.8937,664.3937,73,65,40
664.3937,664.6385,72,68,40
665.8937,666.3937,73,77,40
666.3937,666.6385,72,80,40
667.8937,668.3937,73,92,40
668.3937,668.6385,72,92,40
669.8937,670.3937,72,92,40
670.3937,670.6385,71,90,40
671.8937,672.3937,65,82,40
671.8937,672.3937,71,82,40
672.3937,672.6385,63,79,40
672.3937,672.6385,72,79,40
672.8937,673.3937,66,77,40
673.3937,673.6385,67,74,40
673.8937,674.3937,64,72,40
674.3937,674.6385,66,68,40
675.3937,675.5187,55,60,40
675.3937,675.5187,70,60,40
676.3937,676.5187,55,60,40
676.3937,676.5187,70,60,40
677.3937,677.5187,57,60,40
677.3937,677.5187,69,60,40
678.3937,678.5187,55,60,40
678.3937,678.5187,70,60,40
679.3937,679.5187,55,60,40
679.3937,679.5187,70,60,40
680.3937,680.5187,55,60,40
680.3937,680.5187,70,60,40
681.3937,681.5187,55,60,40
681.3937,681.5187,70,60,40
682.3937,682.5187,56,60,40
682.3937,682.5187,63,60,40
683.3937,683.5187,72,60,40
684.3937,684.5187,73,61,40
685.3937,685.5187,74,63,40
686.3937,686.5187,75,65,40
687.3937,687.5187,75,67,40
688.3937,688.5187,76,69,40
689.3937,689.81036,76,71,40
690.3937,690.8937,65,73,40
690.8937,691.3937,79,103,40
691.3937,691.81036,77,75,40
692.3937,692.8937,67,77,40
692.8937,693.3937,80,109,40
693.3937,693.81036,79,79,40
694.3937,694.8937,68,81,40
694.8937,695.3937,82,82,40
695.3937,695.81036,81,83,40
695.8937,696.3937,84,84,40
696.3937,696.81036,82,85,40
696.8937,697.3937,86,86,40
697.3937,697.81036,84,87,40
697.8937,698.3937,87,88,40
698.3937,698.81036,86,89,40
699.3937,700.3937,69,92,40
699.3937,700.3937,91,92,40
700.3937,700.81036,81,92,40
701.3937,702.3937,69,92,40
701.3937,702.3937,91,92,40
702.3937,702.81036,81,92,40
703.3937,704.2687,69,92,40
703.3937,704.2687,79,92,40
704.3937,705.31036,69,92,40
704.3937,705.31036,79,92,40
705.3937,706.8937,69,92,40
705.3937,706.8937,79,92,40
706.8937,708.8937,69,75,40
706.8937,708.8937,79,75,40
708.8937,710.8937,69,60,40
710.8937,711.31744,69,45,40
717.488,717.9642,55,60,40
717.9642,718.44037,63,60,40
718.44037,718.91656,60,60,40
718.91656,719.7834,62,60,40
719.8615,720.33026,69,60,40
720.33026,720.799,66,62,40
720.799,721.65234,67,64,40
721.7293,722.19086,72,68,40
722.19086,722.65234,69,70,40
722.65234,723.4927,70,72,40
723.5684,724.023,75,76,40
724.023,724.47754,72,78,40
724.47754,725.31085,74,80,40
725.38666,725.8412,81,86,40
725.8412,726.22,78,89,40
726.2957,726.5289,62,92,40
726.2957,727.7243,70,92,40
726.4148,727.7243,79,92,40
727.7243,728.5576,70,75,40
727.7243,728.5576,79,75,40
728.6767,730.5517,70,75,40
728.6767,730.5517,74,75,40
730.6767,732.61633,58,60,40
730.6767,732.61633,67,60,40
732.7456,734.97955,58,45,40
732.7456,734.97955,62,45,40
735.16705,738.91705,58,30,40
735.16705,738.91705,62,30,40
460.61453,461.11453,62,60,45
714.01654,714.463,63,60,45
715.088,715.588,60,60,45
716.28796,716.78796,62,60,45
13.33332,13.80951,65,60,41
13.80951,14.2857,60,60,41
14.2857,14.76189,63,68,41
14.76189,15.158715,62,76,41
15.71427,16.19046,62,92,41
16.19046,16.66665,60,92,41
16.66665,17.14284,58,82,41
17.14284,17.546064,57,71,41
17.62671,18.602383,55,60,41
18.602383,19.012218,54,45,41
19.094187,19.510853,55,45,41
22.046566,22.998945,70,60,41
22.998945,23.395771,69,45,41
23.951326,24.903706,70,60,41
24.903706,25.300531,68,45,41
25.856087,26.094181,70,60,41
26.094181,26.327316,69,60,41
26.332275,26.570372,69,60,41
26.570372,26.803505,70,60,41
26.808466,27.205292,58,45,41
27.760845,27.998941,70,60,41
27.998941,28.232075,69,60,41
28.237036,28.47513,69,60,41
28.47513,28.708265,70,60,41
28.713226,29.11005,58,45,41
29.665606,29.903702,70,45,41
29.903702,30.136835,58,46,41
30.141796,30.37989,58,47,41
30.37989,30.613026,70,48,41
30.617987,30.856081,70,49,41
30.856081,31.089216,58,50,41
31.094175,31.332272,58,52,41
31.332272,31.565405,70,54,41
31.570366,31.80846,70,56,41
31.80846,32.041595,58,58,41
32.046555,32.284653,58,60,41
32.284653,32.517784,70,60,41
32.522747,32.755882,67,60,41
32.76084,32.998936,67,68,41
32.998936,33.23207,68,76,41
33.23703,33.475124,68,84,41
33.475124,33.70826,70,92,41
33.713223,33.951317,70,92,41
33.951317,34.184452,63,75,41
34.18941,34.427505,63,75,41
34.427505,34.66064,62,60,41
34.6656,34.903694,62,60,41
34.903694,35.13683,63,60,41
35.141792,35.379887,63,60,41
35.379887,35.61302,65,60,41
35.61798,35.856075,65,60,41
35.856075,36.08921,58,60,41
36.09417,36.5654,58,60,41
36.570362,37.04159,58,60,41
37.04655,37.51778,58,60,41
37.52274,37.99397,58,60,41
37.99893,38.237026,58,60,41
38.237026,38.477806,65,60,41
38.48293,38.96961,65,60,41
38.97473,39.469574,65,68,41
39.47487,39.978046,65,77,41
39.98334,40.232285,65,87,41
40.23758,40.746056,65,92,41
40.746056,41.254528,77,92,41
41.254528,41.763,72,75,41
41.763,42.18673,73,60,41
44.176235,44.652428,54,60,41
44.652428,45.128616,66,60,41
45.128616,45.604805,60,60,41
45.604805,46.001633,61,60,41
46.080997,47.39052,48,60,41
46.080997,47.39052,60,60,41
47.509567,48.38258,48,79,41
47.509567,48.38258,60,79,41
48.461945,48.858772,72,92,41
48.938137,49.33496,70,92,41
49.414326,50.287342,60,89,41
49.414326,50.287342,69,89,41
50.366707,50.76353,58,83,41
50.366707,50.76353,67,83,41
50.842896,51.23972,57,79,41
50.842896,51.23972,67,79,41
51.319084,51.71591,57,75,41
51.319084,51.71591,66,75,41
51.795277,52.02841,58,92,41
51.795277,52.271465,67,92,41
51.91432,52.271465,74,92,41
52.271465,52.747658,70,92,41
52.747658,53.223846,66,75,41
53.223846,53.62067,67,60,41
53.700035,54.176228,65,75,41
54.176228,54.652416,60,75,41
54.652416,55.128605,63,73,41
55.128605,55.525433,62,71,41
55.604797,56.080986,60,69,41
56.080986,56.557175,55,67,41
56.557175,57.033367,58,65,41
57.033367,57.43019,57,63,41
57.509556,57.985744,58,84,41
57.985744,58.382572,57,60,41
58.461937,58.938126,58,84,41
58.938126,59.33495,57,61,41
59.414314,59.890507,63,86,41
59.890507,60.28733,62,63,41
60.366695,60.842888,63,89,41
60.842888,61.23971,62,66,41
61.319077,61.795265,68,95,41
61.795265,62.192093,67,70,41
62.271458,62.747646,68,100,41
62.747646,63.14447,67,74,41
63.223835,63.337925,70,106,41
63.342884,63.45697,69,76,41
63.46193,63.57602,70,76,41
63.58098,63.695065,67,76,41
63.700027,63.814114,70,106,41
63.819073,63.93316,69,76,41
63.93812,64.05221,70,76,41
64.05717,64.17126,67,76,41
64.176216,64.290306,72,106,41
64.295265,64.40935,70,76,41
64.414314,64.5284,72,76,41
64.533356,64.647446,69,76,41
64.652405,64.766495,72,106,41
64.771454,64.885544,70,76,41
64.8905,65.004585,72,76,41
65.00955,65.123634,69,76,41
65.12859,65.24268,74,106,41
65.24764,65.36173,73,77,41
65.36669,65.48078,74,78,41
65.48574,65.59982,70,79,41
65.60479,65.71887,70,112,41
65.72383,65.83792,69,81,41
65.84288,65.95697,70,82,41
65.96193,66.07602,67,83,41
66.08098,66.19506,72,84,41
66.20002,66.31411,70,85,41
66.31907,66.43316,72,86,41
66.43812,66.55221,69,87,41
66.55717,66.67125,69,88,41
66.676216,66.7903,67,89,41
66.79526,66.90935,69,90,41
66.91431,67.0284,66,91,41
67.033356,67.152405,67,92,41
67.152405,67.271454,66,92,41
67.271454,67.38554,67,92,41
67.390495,67.469864,55,92,41
67.509544,67.74268,55,92,41
67.98573,68.10478,67,92,41
68.10478,68.22383,66,92,41
68.22383,68.33792,67,92,41
68.34288,68.42224,55,92,41
68.46193,68.69506,55,92,41
68.93812,69.05717,68,90,41
69.05717,69.17621,67,90,41
69.17621,69.2903,68,90,41
69.29526,69.374626,56,90,41
69.41431,69.64744,56,90,41
69.890495,70.009544,66,88,41
70.009544,70.12859,64,88,41
70.12859,70.242676,66,88,41
70.247635,70.327,54,88,41
70.366684,70.59982,54,88,41
70.84287,70.96192,67,86,41
70.96192,71.08097,66,86,41
71.08097,71.19506,67,86,41
71.20002,71.27938,55,86,41
71.31907,71.5522,55,86,41
71.79526,71.91431,67,84,41
71.91431,72.03335,66,83,41
72.03335,72.14744,67,82,41
72.1524,72.231766,55,81,41
72.27145,72.50458,55,80,41
72.747635,72.866684,68,76,41
72.866684,72.98573,67,75,41
72.98573,73.099815,68,74,41
73.10478,73.218864,56,73,41
73.22382,73.45696,56,72,41
73.70001,73.81906,70,68,41
73.81906,73.93811,69,67,41
73.93811,74.0522,70,66,41
74.05716,74.17125,58,65,41
74.17621,74.40934,58,64,41
74.6524,74.77145,67,60,41
74.77145,74.89049,66,60,41
74.89049,75.00458,67,60,41
75.00954,75.12363,55,60,41
75.128586,75.36172,55,60,41
75.604774,75.72382,70,60,41
75.72382,75.84287,69,61,41
75.84287,75.956955,70,62,41
75.96192,76.076004,58,63,41
76.08096,76.3141,58,64,41
76.55716,76.6762,75,68,41
76.6762,76.79525,74,69,41
76.79525,76.90934,75,70,41
76.9143,77.02839,63,71,41
77.03335,77.26648,63,72,41
77.50954,77.628586,74,78,41
77.628586,77.74763,73,79,41
77.74763,77.86172,74,80,41
77.86668,77.98077,62,82,41
77.985725,78.218864,62,84,41
78.461914,78.9381,57,92,41
78.9381,79.4143,70,92,41
79.4143,79.89049,66,92,41
79.89049,80.36668,67,75,41
80.36668,82.15239,67,60,41
82.27144,82.74763,55,92,41
82.74763,83.223816,67,92,41
83.223816,83.700005,64,92,41
83.700005,84.17619,65,75,41
84.17619,85.96191,65,60,41
86.080956,86.557144,53,92,41
86.557144,87.03333,65,92,41
87.03333,87.50953,61,92,41
87.50953,87.98572,62,75,41
87.98572,89.77143,62,60,41
90.36667,90.84286,52,60,41
90.84286,91.319046,64,64,41
91.319046,91.71587,62,68,41
91.795235,92.27142,60,72,41
92.27142,92.74762,59,77,41
92.74762,93.22381,57,82,41
93.22381,93.62063,56,87,41
93.7,94.176186,57,92,41
94.176186,94.652374,67,92,41
94.652374,95.12856,65,82,41
95.12856,95.52539,64,71,41
95.60476,96.00158,62,60,41
112.7476,113.580925,53,60,41
112.7476,113.580925,62,60,41
113.699974,114.17616,55,60,41
114.17616,114.57299,62,75,41
113.699974,114.57299,64,60,41
114.65236,115.961876,62,92,41
114.65236,115.961876,65,92,41
116.080925,116.55711,57,75,41
116.55711,117.5095,52,60,41
116.55711,117.5095,64,60,41
117.5095,118.34283,57,60,41
118.461876,119.29521,52,60,41
118.461876,119.29521,64,60,41
119.41425,120.24759,52,65,41
119.41425,120.24759,64,65,41
120.36664,121.19997,57,70,41
120.36664,121.19997,61,70,41
121.55711,122.02834,50,76,41
121.55711,122.02834,62,76,41
122.0333,122.26643,50,78,41
122.0333,122.26643,62,78,41
122.27139,122.74759,55,79,41
122.74759,123.22378,57,82,41
122.27139,123.22378,60,79,41
123.22378,123.6206,57,85,41
123.22378,123.6206,60,85,41
123.69997,124.096794,57,88,41
123.69997,124.096794,66,88,41
124.176155,124.65234,67,92,41
124.176155,124.88548,55,92,41
124.65234,124.88548,62,92,41
125.12853,125.60473,67,92,41
125.12853,125.83786,55,92,41
125.60473,125.83786,62,92,41
126.08092,126.557106,66,92,41
126.08092,126.79024,57,92,41
126.557106,126.79024,62,92,41
127.033295,127.50948,65,92,41
127.033295,127.74262,59,92,41
127.50948,127.74262,62,92,41
127.98568,128.93805,58,92,41
127.98568,128.93805,62,92,41
128.93805,129.7714,57,75,41
128.93805,129.7714,61,75,41
129.89044,130.60472,57,60,41
129.89044,130.60472,62,60,41
130.60472,130.83786,56,60,41
130.84282,131.67615,57,60,41
130.84282,131.67615,61,60,41
131.7952,132.50948,57,60,41
131.7952,132.50948,62,60,41
132.50948,132.74261,56,65,41
132.74757,133.5809,57,66,41
132.74757,133.5809,61,66,41
133.93805,134.41425,57,75,41
133.93805,134.41425,62,75,41
134.41425,134.64737,56,75,41
134.41425,134.64737,64,75,41
134.89043,135.36662,61,75,41
134.89043,135.36662,64,75,41
135.36662,135.59976,57,75,41
135.36662,135.59976,65,75,41
135.8428,136.319,62,75,41
135.8428,136.319,65,75,41
136.319,136.55214,58,75,41
136.319,136.55214,67,75,41
136.7952,137.27138,64,75,41
136.7952,137.27138,67,75,41
137.27138,137.50452,60,75,41
137.27138,137.50452,69,75,41
137.50948,138.22375,64,75,41
137.50948,138.22375,69,75,41
138.22375,138.4569,63,75,41
138.46185,139.29518,64,75,41
138.46185,139.29518,68,75,41
139.65233,140.12852,64,75,41
139.65233,140.12852,69,75,41
140.12852,140.36165,63,75,41
140.12852,140.36165,71,75,41
140.6047,141.0809,68,75,41
140.6047,141.0809,71,75,41
141.0809,141.31404,64,75,41
141.0809,141.31404,72,75,41
141.5571,142.03328,69,77,41
141.5571,142.03328,72,77,41
142.03328,142.26642,65,81,41
142.03328,142.26642,74,81,41
142.50948,142.98566,71,85,41
142.50948,142.98566,74,85,41
142.98566,143.2188,67,89,41
142.98566,143.2188,76,89,41
143.22375,143.46185,70,92,41
143.46185,143.69995,69,92,41
143.69995,143.93307,67,75,41
143.93803,144.01741,55,60,41
144.17613,144.29022,64,60,41
144.29518,144.40927,74,64,41
144.41423,144.52832,76,68,41
144.53328,144.64737,74,72,41
144.65233,144.76642,76,76,41
144.77138,144.88547,74,80,41
144.89043,145.0045,64,84,41
145.00948,145.08884,64,88,41
145.12851,145.36661,71,92,41
145.36661,145.6047,69,92,41
145.6047,145.83784,68,75,41
145.8428,145.92216,56,60,41
146.0809,146.19498,64,60,41
146.19994,146.31403,74,64,41
146.31898,146.43307,76,68,41
146.43803,146.55212,74,72,41
146.55708,146.67117,76,76,41
146.67613,146.79022,74,80,41
146.79518,146.90927,64,84,41
146.91423,146.99359,64,88,41
147.03328,147.2664,57,92,41
147.03328,147.5045,64,92,41
147.15233,147.5045,73,92,41
150.93095,151.80595,66,60,41
151.93095,152.34761,67,60,41
152.43095,152.84761,68,65,41
152.93095,153.59761,69,70,41
153.68095,153.92574,71,78,41
153.93095,154.34761,73,80,41
154.43095,154.84761,74,86,41
154.93095,155.59761,78,92,41
155.68095,155.92574,76,92,41
155.93095,156.34761,73,92,41
156.43095,156.84761,71,92,41
156.93095,157.43095,69,92,41
157.43095,157.84761,57,92,41
157.93095,158.43095,71,92,41
158.43095,158.84761,67,75,41
158.93095,159.59761,66,60,41
159.93095,160.34761,52,75,41
160.43095,160.84761,50,75,41
159.93095,160.84761,60,75,41
160.93095,161.34761,59,92,41
161.43095,161.84761,57,92,41
161.93095,162.34761,55,92,41
160.93095,162.84761,50,92,41
162.43095,162.84761,54,92,41
162.93095,163.34761,50,92,41
162.93095,163.34761,59,92,41
163.93095,164.93095,50,105,41
163.93095,164.93095,59,105,41
164.93095,165.34761,52,60,41
166.93095,167.05595,62,60,41
167.05595,167.18095,61,60,41
167.18095,167.30074,62,60,41
167.30595,167.38928,62,60,41
167.43095,167.55595,62,60,41
167.55595,167.68095,61,60,41
167.68095,167.80074,62,60,41
167.80595,167.88928,62,60,41
167.93095,168.05595,61,60,41
168.05595,168.18095,60,60,41
168.18095,168.30074,61,60,41
168.30595,168.38928,61,60,41
168.43095,168.55595,59,60,41
168.55595,168.68095,58,60,41
168.68095,168.80074,59,60,41
168.80595,168.88928,59,60,41
168.93095,169.05595,57,60,41
169.05595,169.18095,56,61,41
169.18095,169.30074,57,61,41
169.30595,169.38928,57,62,41
169.43095,169.55595,65,63,41
169.55595,169.68095,64,64,41
169.68095,169.80074,65,65,41
169.80595,169.88928,65,66,41
169.93095,170.05595,64,67,41
170.05595,170.18095,63,68,41
170.18095,170.30074,64,69,41
170.30595,170.38928,64,70,41
170.43095,170.55595,62,71,41
170.55595,170.68095,61,72,41
170.68095,170.80074,62,73,41
170.80595,170.88928,62,74,41
170.93095,171.05595,61,75,41
171.05595,171.18095,60,76,41
171.18095,171.30074,61,77,41
171.30595,171.38928,61,78,41
171.43095,171.55595,62,79,41
171.55595,171.68095,61,80,41
171.68095,171.80074,62,81,41
171.80595,171.88928,62,82,41
171.93095,172.05595,64,83,41
172.05595,172.18095,63,84,41
172.18095,172.30074,64,85,41
172.30595,172.38928,64,86,41
172.43095,172.55595,65,87,41
172.55595,172.68095,64,88,41
172.68095,172.80074,65,89,41
172.80595,172.88928,65,90,41
172.93095,173.05595,70,92,41
173.05595,173.18095,69,92,41
173.18095,173.30074,70,92,41
173.30595,173.38928,70,92,41
173.43095,173.55595,69,92,41
173.55595,173.68095,68,92,41
173.68095,173.80074,69,92,41
173.80595,173.88928,69,92,41
173.93095,174.05595,67,92,41
174.05595,174.18095,66,92,41
174.18095,174.30074,67,92,41
174.30595,174.38928,67,92,41
174.43095,174.55595,65,92,41
174.55595,174.68095,64,92,41
174.68095,174.80074,65,92,41
174.80595,174.88928,65,92,41
174.93095,175.05595,65,92,41
175.05595,175.18095,64,92,41
175.18095,175.30074,65,92,41
175.30595,175.38928,65,92,41
175.43095,175.55595,65,92,41
175.55595,175.68095,64,92,41
175.68095,175.80074,65,92,41
175.80595,175.88928,65,92,41
175.93095,176.05595,64,92,41
176.05595,176.18095,63,92,41
176.18095,176.30074,64,92,41
176.30595,176.38928,64,92,41
176.43095,176.55595,64,92,41
176.55595,176.68095,63,92,41
176.68095,176.80074,64,92,41
176.80595,176.88928,64,92,41
176.93095,177.05595,65,92,41
177.05595,177.18095,64,92,41
177.18095,177.30074,65,92,41
177.30595,177.38928,69,92,41
177.43095,178.30595,57,92,41
177.43095,178.30595,69,92,41
178.43095,179.34761,57,92,41
178.43095,179.34761,69,92,41
179.43095,180.30595,57,92,41
179.43095,180.30595,69,92,41
180.43095,180.93095,68,75,41
180.93095,181.34761,69,60,41
181.43095,181.93095,57,92,41
181.93095,182.43095,56,92,41
182.43095,182.93095,55,92,41
182.93095,183.43095,54,92,41
183.43095,183.93095,57,92,41
183.93095,184.68095,62,92,41
184.68095,184.92574,64,92,41
184.93095,185.34761,62,92,41
185.43095,185.93095,61,88,41
185.93095,186.43095,62,84,41
186.43095,186.93095,64,80,41
186.93095,187.34761,66,76,41
187.43095,187.93095,54,72,41
187.93095,188.43095,55,68,41
188.43095,188.93095,57,64,41
188.93095,189.34761,59,60,41
189.43095,189.93095,71,60,41
189.93095,190.43095,78,70,41
190.43095,190.84761,76,81,41
190.93095,191.80595,57,92,41
190.93095,191.80595,69,92,41
191.93095,192.80595,57,92,41
191.93095,192.80595,68,92,41
192.93095,194.30595,57,92,41
192.93095,194.30595,67,92,41
194.43095,194.68095,69,92,41
194.68095,194.93095,68,92,41
194.93095,195.18095,69,92,41
195.18095,195.43095,67,92,41
195.43095,195.68095,66,92,41
195.68095,195.92574,64,92,41
195.93095,196.18095,66,92,41
196.18095,196.43095,64,92,41
196.43095,196.68095,62,92,41
196.68095,196.92574,61,92,41
196.93095,197.18095,62,92,41
197.18095,197.42574,57,92,41
197.43095,197.68095,62,92,41
197.68095,197.93095,64,92,41
197.93095,198.18095,66,92,41
198.18095,198.42574,62,92,41
198.43095,198.68095,66,92,41
198.68095,198.93095,69,92,41
198.93095,199.18095,71,92,41
199.18095,199.42574,67,92,41
199.43095,199.51428,71,92,41
199.68095,199.76428,70,92,41
199.93095,200.18095,71,92,41
200.18095,200.42574,76,92,41
200.43095,200.51428,71,92,41
200.68095,200.76428,70,92,41
200.93095,201.18095,71,92,41
201.18095,201.42574,67,92,41
201.43095,201.51428,71,92,41
201.68095,201.76428,70,92,41
201.93095,202.18095,71,92,41
202.18095,202.42574,76,92,41
202.43095,202.68095,71,92,41
202.68095,202.93095,70,92,41
202.93095,203.18095,73,92,41
203.18095,203.43095,71,92,41
203.43095,203.68095,69,92,41
203.68095,203.92574,67,92,41
203.93095,204.18095,69,92,41
204.18095,204.43095,67,92,41
204.43095,204.68095,66,92,41
204.68095,204.92574,64,92,41
204.93095,205.18095,62,92,41
205.18095,205.43095,61,92,41
205.43095,205.68095,62,92,41
205.68095,205.92574,66,92,41
205.93095,206.18095,64,92,41
206.18095,206.42574,61,92,41
206.43095,206.68095,69,92,41
206.68095,206.93095,68,92,41
206.93095,207.18095,69,92,41
207.18095,207.43095,67,92,41
207.43095,207.68095,66,92,41
207.68095,207.92574,64,92,41
207.93095,208.18095,66,92,41
208.18095,208.43095,64,92,41
208.43095,208.68095,62,92,41
208.68095,208.92574,61,92,41
208.93095,209.18095,62,92,41
209.18095,209.42574,57,92,41
209.43095,209.68095,62,92,41
209.68095,209.93095,64,92,41
209.93095,210.18095,66,92,41
210.18095,210.42574,62,92,41
210.43095,211.34761,66,105,41
210.43095,211.34761,74,105,41
211.43095,212.30595,66,105,41
211.43095,212.30595,74,105,41
212.43095,213.34761,66,105,41
212.43095,213.34761,74,105,41
213.43095,214.30595,66,105,41
213.43095,214.30595,74,105,41
214.43095,214.93095,66,105,41
214.93095,215.34761,67,75,41
214.43095,215.34761,74,105,41
215.43095,215.93095,67,105,41
215.93095,216.34761,66,75,41
215.43095,216.34761,74,105,41
216.43095,216.84761,66,105,41
216.93095,217.34761,64,75,41
216.43095,217.34761,74,105,41
217.43095,217.84761,64,75,41
217.43095,217.84761,74,75,41
217.93095,218.34761,64,75,41
217.93095,218.34761,73,75,41
218.43095,218.84761,64,75,41
218.43095,218.84761,73,75,41
218.93095,219.34761,62,75,41
218.93095,219.34761,74,75,41
220.43095,220.51428,62,60,41
220.68095,220.76428,61,60,41
220.93095,221.18095,62,60,41
221.18095,221.42574,56,60,41
222.43095,222.51428,62,45,41
222.68095,222.76428,62,45,41
222.93095,223.18095,67,45,41
223.18095,223.42574,57,45,41
224.43095,224.51428,64,45,41
224.68095,224.76428,64,48,41
224.93095,225.18095,69,51,41
225.18095,225.42574,60,54,41
226.43095,226.51428,69,71,41
226.68095,226.76428,69,74,41
226.93095,227.18095,73,77,41
227.18095,227.42574,67,80,41
227.68095,227.92574,69,88,41
227.93095,229.43095,74,92,41
229.43095,229.93095,71,92,41
229.93095,230.43095,69,92,41
230.43095,230.84761,67,92,41
230.93095,231.43095,65,92,41
231.43095,231.84761,66,84,41
231.93095,232.43095,63,76,41
232.43095,232.84761,64,68,41
232.93095,233.34761,62,60,41
233.43095,233.51428,68,60,41
233.68095,233.76428,67,60,41
233.93095,234.18095,68,60,41
234.18095,234.42574,62,60,41
234.68095,234.92574,68,60,41
234.93095,235.18095,68,60,41
235.18095,235.42574,62,60,41
235.93095,236.18095,68,60,41
236.18095,236.42574,62,60,41
236.68095,236.92574,68,60,41
236.93095,237.18095,67,60,41
237.18095,237.42574,57,60,41
237.93095,238.18095,67,60,41
238.18095,238.42574,57,61,41
238.68095,238.92574,69,63,41
238.93095,239.18095,69,64,41
239.18095,239.42574,60,65,41
239.93095,240.18095,69,69,41
240.18095,240.42574,60,70,41
240.68095,240.92574,72,74,41
240.93095,241.18095,73,76,41
241.18095,241.42574,67,78,41
241.68095,241.92574,73,82,41
241.93095,242.18095,74,84,41
242.18095,242.42574,62,86,41
242.43095,242.68095,72,88,41
242.68095,242.92574,62,90,41
242.93095,243.18095,71,92,41
243.18095,243.42574,62,75,41
243.68095,243.92574,71,60,41
243.93095,244.43095,72,60,41
244.43095,244.84761,71,60,41
244.93095,245.43095,68,60,41
245.43095,245.67574,69,60,41
245.93095,246.43095,66,60,41
246.43095,246.67574,67,60,41
246.93095,248.80595,66,45,41
248.93095,249.43095,63,60,41
249.43095,250.43095,64,60,41
250.43095,251.34761,62,56,41
251.43095,251.93095,62,52,41
251.93095,252.43095,60,50,41
252.43095,252.68095,61,48,41
252.68095,252.92574,55,47,41
252.93095,253.34761,54,45,41
254.93095,255.43095,62,60,41
255.43095,255.67574,61,60,41
255.93095,256.43094,64,60,41
256.43094,256.67575,62,60,41
258.93094,259.43094,62,60,41
259.43094,259.67575,61,60,41
259.93094,260.43094,64,60,41
260.43094,260.67575,62,60,41
262.93094,263.43094,63,60,41
263.43094,263.67575,62,65,41
263.93094,264.43094,65,69,41
264.43094,264.67575,63,74,41
265.93094,266.43094,65,92,41
266.43094,266.67575,63,60,41
267.93094,268.43094,65,75,41
268.43094,268.67575,64,60,41
269.93094,270.43094,64,60,41
270.43094,270.67575,63,60,41
271.93094,272.43094,60,84,41
272.43094,272.67575,59,60,41
272.93094,273.43094,58,84,41
273.43094,273.67575,57,60,41
273.93094,274.43094,56,84,41
274.43094,274.67575,55,60,41
274.93094,275.43094,62,60,41
275.43094,275.93094,71,75,41
275.93094,276.43094,68,60,41
276.43094,278.80594,69,45,41
278.93094,279.43094,62,60,41
279.43094,279.93094,70,75,41
279.93094,280.43094,68,60,41
280.43094,282.80594,69,45,41
282.93094,283.43094,62,45,41
283.43094,283.93094,72,60,41
283.93094,284.43094,69,76,41
284.43094,284.93094,70,92,41
284.93094,286.80594,70,60,41
286.93094,287.43094,69,105,41
287.43094,288.80594,70,75,41
288.93094,289.43094,69,84,41
289.43094,290.80594,70,60,41
290.93094,291.43094,70,84,41
291.43094,292.80594,69,60,41
292.93094,293.43094,69,60,41
293.43094,294.80594,68,60,41
294.93094,295.80594,68,60,41
295.93094,296.80594,69,60,41
296.93094,297.80594,71,70,41
297.93094,298.01428,73,81,41
298.01428,298.09763,74,81,41
298.09763,298.18094,73,82,41
298.18094,298.26428,74,83,41
298.26428,298.34763,73,84,41
298.34763,298.43094,74,85,41
298.43094,298.51428,73,86,41
298.51428,298.59763,74,87,41
298.59763,298.68094,73,88,41
298.68094,298.76428,74,89,41
298.76428,298.84763,71,90,41
298.84763,298.92575,73,91,41
298.93094,299.43094,74,92,41
299.43094,299.93094,70,92,41
299.93094,300.43094,71,92,41
300.43094,300.84763,62,92,41
300.93094,301.43094,74,92,41
301.43094,301.93094,70,84,41
301.93094,302.43094,71,76,41
302.43094,302.84763,62,68,41
302.93094,303.43094,69,60,41
303.43094,304.30594,74,75,41
304.43094,305.93094,62,92,41
305.93094,306.80594,64,75,41
307.43942,307.9479,62,60,41
307.9479,308.83774,64,60,41
309.4821,309.99933,62,60,41
309.99933,310.9045,61,60,41
311.83737,312.09967,54,60,41
312.10522,312.3731,55,60,41
312.3731,312.50702,57,60,41
312.50702,312.64096,55,60,41
312.64096,312.9088,54,60,41
312.9088,313.17108,55,60,41
313.17667,316.0007,54,60,41
316.0007,316.39752,55,60,41
327.42926,327.90543,65,60,41
327.90543,328.38162,60,60,41
328.38162,328.85782,63,68,41
328.85782,329.25464,62,76,41
329.8102,330.28638,62,92,41
330.28638,330.76257,60,75,41
330.76257,331.1594,58,60,41
331.23877,331.6356,57,60,41
331.71497,332.66733,55,57,41
332.66733,333.06418,54,49,41
333.14352,333.54034,55,45,41
335.04828,335.28143,48,60,41
335.04828,335.28143,60,60,41
335.28638,335.75763,48,60,41
335.28638,335.75763,60,60,41
335.76257,336.2338,48,60,41
335.76257,336.2338,60,60,41
336.23877,336.71,48,60,41
336.23877,336.71,60,60,41
336.71497,337.1862,48,60,41
336.71497,337.1862,60,60,41
337.19113,337.66238,48,60,41
337.19113,337.66238,60,60,41
337.66733,338.13858,48,60,41
337.66733,338.13858,60,60,41
338.14352,338.61475,48,60,41
338.14352,338.61475,60,60,41
338.61972,339.09094,48,60,41
338.61972,339.09094,60,60,41
339.09592,339.56714,48,60,41
339.09592,339.56714,60,60,41
339.57208,340.04333,48,60,41
339.57208,340.04333,60,60,41
340.04828,340.5195,48,60,41
340.04828,340.5195,60,60,41
340.52448,340.9957,48,60,41
340.52448,340.9957,60,60,41
341.00067,341.4719,48,60,41
341.00067,341.4719,60,60,41
341.47687,341.9481,48,60,41
341.47687,341.9481,60,60,41
341.95303,342.4243,48,60,41
341.95303,342.4243,60,60,41
342.42923,342.90045,48,60,41
342.42923,342.90045,60,60,41
342.90543,343.37665,48,60,41
342.90543,343.37665,60,60,41
343.38162,343.85284,48,60,41
343.38162,343.85284,60,60,41
343.85782,344.32904,48,60,41
343.85782,344.32904,60,60,41
344.33398,344.80524,48,60,41
344.33398,344.80524,60,60,41
344.81018,345.2814,48,60,41
344.81018,345.2814,60,60,41
345.28638,345.7576,48,60,41
345.28638,345.7576,60,60,41
345.76257,346.2338,48,54,41
345.76257,346.2338,60,54,41
346.23877,346.4719,48,48,41
346.23877,346.4719,60,48,41
346.47684,346.8737,48,45,41
346.47684,346.8737,60,45,41
354.0959,354.21494,69,45,41
354.21494,354.33398,68,47,41
354.33398,354.45303,69,50,41
354.45303,354.5671,66,53,41
354.57208,354.69113,69,56,41
354.69113,354.81018,68,59,41
354.81018,354.92923,69,62,41
354.92923,355.0433,66,65,41
355.04828,355.16733,69,68,41
355.16733,355.28638,68,71,41
355.28638,355.40543,69,74,41
355.40543,355.5195,66,77,41
355.52448,355.6435,69,80,41
355.6435,355.76254,68,83,41
355.76254,355.8816,69,86,41
355.8816,355.9957,66,89,41
356.00064,356.2338,60,92,41
356.00064,356.4719,66,92,41
356.1197,356.4719,75,92,41
361.80225,361.9213,74,45,41
361.9213,362.04034,73,45,41
362.04034,362.1594,74,48,41
362.1594,362.27347,71,51,41
362.27844,362.3975,74,54,41
362.3975,362.51654,73,57,41
362.51654,362.6356,74,60,41
362.6356,362.74966,71,63,41
362.75464,362.8737,74,66,41
362.8737,362.99274,73,69,41
362.99274,363.1118,74,72,41
363.1118,363.22586,71,75,41
363.23083,363.34985,74,78,41
363.34985,363.4689,73,81,41
363.4689,363.58795,74,84,41
363.58795,363.70206,71,88,41
363.707,363.94016,59,92,41
363.707,364.17825,68,92,41
363.82605,364.17825,74,92,41
368.1565,368.5533,64,92,41
368.1565,368.5533,69,92,41
369.10886,369.50568,64,92,41
369.10886,369.50568,69,92,41
370.06125,370.45807,66,92,41
370.06125,370.45807,69,92,41
371.0136,371.41043,59,92,41
371.0136,371.41043,68,92,41
371.966,372.36282,62,92,41
371.966,372.36282,67,92,41
372.9184,373.31522,62,92,41
372.9184,373.31522,67,92,41
373.87076,374.26758,64,92,41
373.87076,374.26758,67,92,41
374.82315,375.21997,57,92,41
374.82315,375.21997,66,92,41
375.7755,376.17233,57,92,41
375.7755,376.17233,65,92,41
376.2517,376.64853,56,88,41
376.2517,376.64853,59,88,41
376.7279,376.84198,59,84,41
376.84695,376.96103,58,83,41
376.966,377.08008,59,82,41
377.08505,377.19913,59,81,41
377.2041,377.68027,62,80,41
377.68027,377.91342,50,75,41
377.68027,378.15152,57,75,41
377.79932,378.15152,65,74,41
378.15646,378.55328,56,71,41
378.15646,378.55328,59,71,41
378.63266,378.74673,59,66,41
378.7517,378.86578,58,65,41
378.87076,378.98483,59,64,41
378.9898,379.10388,59,62,41
379.10886,379.58505,62,60,41
379.58505,379.81818,50,92,41
379.58505,380.05627,57,92,41
379.7041,380.05627,65,92,41
381.0136,381.41043,52,75,41
381.0136,381.41043,56,75,41
390.5374,391.0136,62,60,41
391.0136,391.48978,57,60,41
391.48978,391.96597,60,60,41
391.96597,392.3628,59,60,41
394.34692,394.82312,68,60,41
394.82312,395.7755,66,60,41
395.7755,396.17233,64,60,41
396.25168,396.72787,56,60,41
396.72787,397.68027,54,60,41
397.68027,398.0771,52,60,41
398.15646,398.63263,62,60,41
398.63263,399.58502,60,84,41
399.58502,399.98184,59,60,41
400.06122,400.1753,72,45,41
400.18027,400.29434,72,45,41
400.29932,400.4134,72,45,41
400.41837,400.53244,72,45,41
400.5374,400.6515,72,45,41
400.65646,400.77054,72,45,41
400.77548,400.8896,72,45,41
400.89453,401.00864,72,45,41
401.01358,401.1277,71,45,41
401.13263,401.24673,71,45,41
401.25168,401.36578,71,45,41
401.37073,401.48483,71,45,41
401.48978,401.60388,69,45,41
401.60883,401.72293,69,45,41
401.72787,401.84195,69,45,41
401.84692,401.961,69,45,41
401.96597,402.08005,72,45,41
402.08502,402.1991,72,45,41
402.20407,402.31815,72,45,41
402.32312,402.4372,72,45,41
402.44217,402.55624,72,45,41
402.56122,402.6753,72,45,41
402.68027,402.79434,72,45,41
402.79932,402.9134,72,45,41
402.91837,403.03244,71,45,41
403.03738,403.1515,71,45,41
403.15643,403.27054,71,45,41
403.27548,403.3896,71,45,41
403.39453,403.50864,69,45,41
403.51358,403.6277,69,45,41
403.63263,403.74673,69,45,41
403.75168,403.86578,69,45,41
403.87073,403.98483,69,45,41
403.98978,404.10385,69,45,41
404.10883,404.2229,69,46,41
404.22787,404.34195,69,47,41
404.34692,404.461,69,48,41
404.46597,404.58005,69,49,41
404.58502,404.6991,69,50,41
404.70407,404.81815,69,51,41
404.82312,404.9372,57,52,41
404.94217,405.05624,57,53,41
405.06122,405.1753,57,54,41
405.18027,405.29434,57,55,41
405.2993,405.4134,57,56,41
405.41833,405.53244,57,57,41
405.53738,405.6515,57,58,41
405.65643,405.77054,57,59,41
405.77548,405.8896,57,60,41
405.89453,406.00864,57,60,41
406.01358,406.1277,57,60,41
406.13263,406.24673,57,60,41
406.25168,406.36575,72,60,41
406.37073,406.4848,72,60,41
406.48978,406.60385,72,60,41
406.60883,406.7229,72,60,41
406.72787,406.84195,70,60,41
406.84692,406.961,70,60,41
406.96597,407.08005,70,60,41
407.08502,407.1991,70,60,41
407.20407,407.31815,71,60,41
407.32312,407.4372,71,60,41
407.44217,407.55624,71,60,41
407.56122,407.6753,71,60,41
407.68024,407.79434,58,60,41
407.7993,407.9134,58,60,41
407.91833,408.03244,58,60,41
408.03738,408.1515,58,60,41
408.15643,408.27054,70,60,41
408.27548,408.3896,70,60,41
408.39453,408.50864,70,60,41
408.51358,408.6277,70,60,41
408.63263,408.7467,68,60,41
408.75168,408.86575,68,60,41
408.87073,408.9848,68,60,41
408.98978,409.10385,68,60,41
409.10883,409.2229,69,60,41
409.22787,409.34195,69,60,41
409.34692,409.461,69,60,41
409.46597,409.58005,69,60,41
409.58502,409.6991,57,60,41
409.70407,409.81815,57,60,41
409.82312,409.9372,57,60,41
409.94214,410.05624,57,60,41
410.0612,410.1753,69,60,41
410.18024,410.29434,69,60,41
410.2993,410.4134,69,60,41
410.41833,410.53244,69,60,41
410.53738,410.6515,57,60,41
410.65643,410.77054,57,60,41
410.77548,410.8896,57,60,41
410.89453,411.0086,57,60,41
411.01358,411.12766,69,60,41
411.13263,411.2467,69,60,41
411.25168,411.36575,69,60,41
411.37073,411.4848,69,60,41
411.48978,411.60385,58,60,41
411.60883,411.7229,58,60,41
411.72787,411.84195,58,60,41
411.84692,411.961,58,60,41
411.96597,412.08005,70,60,41
412.08502,412.1991,70,60,41
412.20407,412.31815,70,60,41
412.3231,412.4372,70,60,41
412.44214,412.55624,58,60,41
412.5612,412.6753,58,60,41
412.68024,412.79434,58,60,41
412.7993,412.9134,58,60,41
412.91833,413.03244,70,60,41
413.03738,413.1515,70,60,41
413.15643,413.27054,70,60,41
413.27548,413.38956,70,60,41
413.39453,413.5086,59,60,41
413.51358,413.62766,59,61,41
413.63263,413.7467,59,61,41
413.75168,413.86575,59,62,41
413.87073,413.9848,71,63,41
413.98978,414.10385,71,64,41
414.10883,414.2229,71,65,41
414.22787,414.34195,71,66,41
414.34692,414.461,59,67,41
414.46597,414.58005,59,68,41
414.585,414.6991,59,69,41
414.70404,414.81815,59,70,41
414.8231,414.9372,71,71,41
414.94214,415.05624,71,72,41
415.0612,415.1753,71,73,41
415.18024,415.29434,71,74,41
415.2993,415.4171,59,75,41
415.42224,415.54007,59,76,41
415.5452,415.66302,59,77,41
415.66815,415.78598,59,78,41
415.7911,415.90894,71,79,41
415.91403,416.03186,71,80,41
416.037,416.15482,71,81,41
416.15994,416.27777,71,82,41
416.2829,416.40472,59,83,41
416.41,416.53183,59,84,41
416.53714,416.65897,59,85,41
416.66425,416.78607,59,86,41
416.79138,416.91528,71,87,41
416.9207,417.04462,71,88,41
417.05,417.17392,71,89,41
417.1793,417.30322,71,90,41
417.30862,417.72528,59,92,41
417.80862,418.22528,67,92,41
418.30862,418.72528,63,92,41
418.80862,419.22528,64,92,41
419.30862,419.72528,72,92,41
419.80862,420.0534,67,84,41
420.05862,420.3034,64,80,41
420.30862,420.72528,60,76,41
420.80862,421.22528,59,68,41
421.30862,421.72528,58,60,41
421.80862,422.22528,55,60,41
421.80862,422.22528,64,60,41
422.30862,422.72528,54,60,41
422.30862,422.72528,63,60,41
422.80862,423.30862,59,75,41
423.30862,423.80862,69,75,41
423.80862,424.30862,63,70,41
424.30862,424.72528,66,65,41
424.80862,425.30862,59,60,41
425.30862,425.80862,71,60,41
425.80862,426.30862,64,61,41
426.30862,426.72528,67,62,41
426.80862,427.30862,60,63,41
427.30862,427.80862,72,64,41
427.80862,428.30862,64,65,41
428.30862,428.72528,67,66,41
428.80862,429.30862,61,67,41
429.30862,429.80862,73,68,41
429.80862,430.30862,64,70,41
430.30862,430.72528,67,72,41
430.80862,431.30862,61,74,41
431.30862,431.72528,73,76,41
431.80862,432.30862,64,78,41
432.30862,432.72528,76,80,41
432.80862,433.30862,67,82,41
433.30862,433.72528,79,84,41
433.80862,434.30862,67,86,41
434.30862,434.72528,79,88,41
434.80862,435.30862,67,90,41
435.30862,435.72528,79,92,41
435.80862,435.9284,79,92,41
435.93362,436.0534,79,92,41
436.05862,436.1784,79,92,41
436.18362,436.3034,79,92,41
436.30862,436.4284,76,92,41
436.43362,436.5534,76,92,41
436.55862,436.6784,76,92,41
436.68362,436.8034,76,92,41
436.80862,436.9284,77,92,41
436.93362,437.0534,77,88,41
437.05862,437.1784,77,84,41
437.18362,437.3034,77,80,41
437.30862,437.4284,74,75,41
437.43362,437.5534,74,75,41
437.55862,437.6784,74,75,41
437.68362,437.8034,74,75,41
437.80862,437.9284,76,75,41
437.93362,438.0534,76,75,41
438.05862,438.1784,76,75,41
438.18362,438.3034,76,75,41
438.30862,438.4284,73,75,41
438.43362,438.5534,73,75,41
438.55862,438.6784,73,75,41
438.68362,438.8034,73,75,41
438.80862,438.9284,74,75,41
438.93362,439.0534,74,75,41
439.05862,439.1784,74,75,41
439.18362,439.3034,74,75,41
439.30862,439.4284,70,75,41
439.43362,439.5534,70,75,41
439.55862,439.6784,70,75,41
439.68362,439.8034,70,75,41
439.80862,439.9284,72,75,41
439.93362,440.0534,72,75,41
440.05862,440.1784,72,75,41
440.18362,440.3034,72,75,41
440.30862,440.4284,69,75,41
440.43362,440.5534,69,75,41
440.55862,440.6784,69,75,41
440.68362,440.8034,69,75,41
440.80862,440.9284,70,75,41
440.93362,441.0534,70,75,41
441.05862,441.1784,70,75,41
441.18362,441.3034,70,75,41
441.30862,441.4284,67,75,41
441.43362,441.5534,67,75,41
441.55862,441.6784,67,75,41
441.68362,441.8034,67,75,41
441.80862,441.9284,69,75,41
441.93362,442.0534,69,75,41
442.05862,442.1784,69,75,41
442.18362,442.3034,69,75,41
442.30862,442.4284,66,75,41
442.43362,442.5534,66,75,41
442.55862,442.6784,66,75,41
442.68362,442.8034,66,75,41
442.80862,442.9284,67,75,41
442.93362,443.0534,67,75,41
443.05862,443.1784,67,75,41
443.18362,443.3034,67,75,41
443.30862,443.4284,63,75,41
443.43362,443.5534,63,75,41
443.55862,443.6784,63,75,41
443.68362,443.8034,63,75,41
443.80862,443.9284,65,75,41
443.93362,444.0534,65,75,41
444.05862,444.1784,65,75,41
444.18362,444.3034,65,75,41
444.30862,444.4284,58,75,41
444.43362,444.5534,58,75,41
444.55862,444.6784,58,75,41
444.68362,444.8034,58,75,41
444.80862,444.9284,62,75,41
444.93362,445.0534,62,75,41
445.05862,445.1784,62,75,41
445.18362,445.3034,62,75,41
445.30862,445.4284,63,75,41
445.43362,445.5534,63,75,41
445.55862,445.6784,63,75,41
445.68362,445.8034,63,75,41
445.80862,445.9284,58,75,41
445.93362,446.0534,58,75,41
446.05862,446.1784,58,75,41
446.18362,446.3034,58,75,41
446.30862,446.4284,58,75,41
446.43362,446.5534,58,75,41
446.55862,446.6784,58,75,41
446.68362,446.8034,58,75,41
446.80862,446.9284,61,75,41
446.93362,447.0534,61,75,41
447.05862,447.1784,61,75,41
447.18362,447.3034,61,75,41
447.30862,447.4284,64,75,41
447.43362,447.5534,64,75,41
447.55862,447.6784,64,75,41
447.68362,447.8034,64,75,41
447.80862,447.9284,57,75,41
447.93362,448.0534,57,75,41
448.05862,448.1784,57,75,41
448.18362,448.3034,57,75,41
448.30862,448.4284,61,75,41
448.43362,448.5534,61,75,41
448.55862,448.6784,61,75,41
448.68362,448.8034,61,75,41
448.80862,448.9284,64,75,41
448.93362,449.0534,64,75,41
449.05862,449.1784,64,75,41
449.18362,449.3034,64,75,41
449.30862,449.4284,57,75,41
449.43362,449.5534,57,75,41
449.55862,449.6784,57,75,41
449.68362,449.8034,57,75,41
449.80862,449.9284,61,75,41
449.93362,450.0534,61,75,41
450.05862,450.1784,61,75,41
450.18362,450.3034,61,75,41
450.30862,450.4284,64,75,41
450.43362,450.5534,64,75,41
450.55862,450.6784,64,75,41
450.68362,450.8034,64,75,41
450.80862,450.9284,57,75,41
450.93362,451.0534,57,75,41
451.05862,451.1784,57,75,41
451.18362,451.3034,57,75,41
451.30862,451.4284,69,75,41
451.43362,451.5534,69,75,41
451.55862,451.6784,69,75,41
451.68362,451.8034,69,75,41
451.80862,451.9284,62,75,41
451.93362,452.0534,62,75,41
452.05862,452.1784,62,75,41
452.18362,452.3034,62,75,41
452.30862,452.4284,66,75,41
452.43362,452.5534,66,75,41
452.55862,452.6784,66,75,41
452.68362,452.8034,66,75,41
452.80862,452.9284,66,75,41
452.93362,453.0534,66,75,41
453.05862,453.1784,66,75,41
453.18362,453.3034,66,75,41
453.30862,453.4284,62,75,41
453.43362,453.5534,62,75,41
453.55862,453.6784,62,75,41
453.68362,453.8034,62,75,41
453.80862,453.9284,62,75,41
453.93362,454.0534,62,75,41
454.05862,454.1784,62,75,41
454.18362,454.3034,62,75,41
454.30862,454.4284,57,75,41
454.43362,454.5534,57,75,41
454.55862,454.6784,57,75,41
454.68362,454.8034,57,75,41
454.80862,454.9284,57,75,41
454.93362,455.0534,57,75,41
455.05862,455.1784,57,75,41
455.18362,455.3034,57,75,41
455.30862,455.4284,54,75,41
455.43362,455.5534,54,75,41
455.55862,455.6784,54,75,41
455.68362,455.8034,54,75,41
455.80862,455.9284,54,75,41
455.93362,456.0534,54,75,41
456.05862,456.1784,54,75,41
456.18362,456.3034,54,75,41
456.80862,456.9284,54,60,41
456.93362,457.0534,54,60,41
457.05862,457.1784,54,55,41
457.18362,457.3034,54,50,41
457.30862,457.43253,54,45,41
457.43793,457.56186,54,45,41
457.56723,457.69116,54,45,41
457.69653,457.82047,54,45,41
458.8788,459.00714,54,60,41
459.01273,459.14108,54,60,41
459.14667,459.27502,54,55,41
459.28058,459.40894,54,50,41
459.41452,459.70828,54,45,41
465.8145,466.8145,67,63,41
466.8145,467.2312,66,45,41
467.8145,468.8145,67,63,41
468.8145,469.2312,65,45,41
469.8145,470.0645,67,60,41
470.0645,470.30933,66,60,41
470.3145,470.5645,66,60,41
470.5645,470.80933,67,60,41
470.8145,471.2312,55,60,41
471.8145,472.0645,67,60,41
472.0645,472.30933,66,60,41
472.3145,472.5645,66,60,41
472.5645,472.80933,67,60,41
472.8145,473.2312,55,60,41
473.8145,474.0645,67,60,41
474.0645,474.30933,55,60,41
474.3145,474.5645,55,60,41
474.5645,474.80933,67,62,41
474.8145,475.0645,67,64,41
475.0645,475.30933,55,66,41
475.3145,475.5645,55,69,41
475.5645,475.80933,67,72,41
475.8145,476.0645,67,75,41
476.0645,476.30933,55,75,41
476.3145,476.5645,55,60,41
476.5645,476.80933,67,60,41
476.8145,477.05933,64,45,41
477.0645,477.3145,64,45,41
477.3145,477.55933,65,55,41
477.5645,477.8145,65,65,41
477.8145,478.05933,67,75,41
478.0645,478.3145,67,75,41
478.3145,478.55933,60,60,41
478.5645,478.8145,60,60,41
478.8145,479.05933,59,45,41
479.0645,479.3145,59,45,41
479.3145,479.55933,60,55,41
479.5645,479.8145,60,65,41
479.8145,480.05933,62,75,41
480.0645,480.3145,62,75,41
480.3145,480.55933,55,60,41
480.5645,481.05933,55,60,41
481.0645,481.55933,55,45,41
481.5645,482.05933,55,45,41
482.0645,482.55933,55,57,41
482.5645,482.8145,55,69,41
482.8145,483.05933,62,75,41
483.0645,483.55933,62,75,41
483.5645,484.05933,62,60,41
484.0645,484.55933,62,45,41
484.5645,484.80933,62,45,41
496.8145,497.3145,65,60,41
497.3145,497.8145,64,60,41
497.8145,498.3145,62,64,41
498.3145,498.7312,64,68,41
498.8145,499.3145,67,72,41
499.3145,499.8145,66,77,41
499.8145,500.3145,64,82,41
500.3145,500.7312,66,87,41
500.8145,501.5645,66,92,41
501.5645,501.80933,64,92,41
501.8145,502.0645,62,92,41
502.0645,502.3145,60,84,41
502.3145,502.5645,59,76,41
502.5645,502.80933,57,68,41
502.8145,503.0645,66,60,41
503.0645,503.55933,64,75,41
503.5645,504.3145,62,92,41
504.3145,504.7312,60,75,41
504.8145,505.8145,59,75,41
505.8145,506.8145,58,60,41
506.8145,508.2194,57,45,41
508.88443,509.36063,62,92,41
509.36063,509.8368,74,92,41
509.8368,510.313,69,75,41
510.313,510.7098,70,60,41
512.694,513.1701,63,60,41
513.1701,513.6463,75,60,41
513.6463,514.1225,72,60,41
514.1225,514.51935,73,60,41
514.5987,515.0749,72,60,41
515.0749,515.5511,70,66,41
515.5511,516.0273,68,72,41
516.0273,516.5035,67,78,41
516.5035,516.90027,66,85,41
516.9797,517.4559,63,92,41
517.4559,517.932,62,92,41
517.932,518.80505,60,92,41
518.8844,519.28125,58,92,41
519.3606,519.75745,60,92,41
519.8368,520.23364,57,92,41
520.313,520.54614,58,92,41
520.313,520.78424,67,92,41
520.432,520.78424,74,92,41
520.7892,521.2654,70,92,41
521.2654,521.7416,66,88,41
521.7416,522.13837,67,84,41
522.2178,522.6939,65,80,41
522.6939,523.1701,60,75,41
523.1701,523.6463,63,70,41
523.6463,524.04315,62,65,41
524.1225,524.5987,60,60,41
524.5987,525.0749,55,60,41
525.0749,525.5511,58,60,41
525.5511,525.9479,57,60,41
526.0273,526.5035,58,60,41
526.5035,526.90027,57,61,41
526.9797,527.4558,58,62,41
527.4558,527.85266,57,63,41
527.932,528.4082,63,64,41
528.4082,528.80505,62,65,41
528.8844,529.3606,63,66,41
529.3606,529.75745,62,67,41
529.8368,530.313,68,68,41
530.313,530.7098,67,70,41
530.7892,531.2654,68,72,41
531.2654,531.6622,67,74,41
531.7415,531.85565,70,76,41
531.8606,531.9747,69,76,41
531.9796,532.09375,70,76,41
532.0987,532.21277,67,76,41
532.2177,532.33185,70,76,41
532.3368,532.45087,69,76,41
532.4558,532.56995,70,76,41
532.5749,532.68896,67,76,41
532.6939,532.808,72,76,41
532.813,532.92706,70,76,41
532.932,533.0461,72,76,41
533.0511,533.16516,69,76,41
533.1701,533.2842,72,76,41
533.2892,533.40326,70,76,41
533.4082,533.5223,72,76,41
533.5273,533.64136,69,76,41
533.6463,533.7604,74,76,41
533.7654,533.87946,73,77,41
533.8844,533.9985,74,78,41
534.0034,534.11755,70,79,41
534.1225,534.2366,70,80,41
534.2415,534.35565,69,81,41
534.3606,534.4747,70,82,41
534.4796,534.59375,67,83,41
534.5987,534.71277,72,84,41
534.7177,534.83185,70,85,41
534.8368,534.95087,72,86,41
534.9558,535.0699,69,87,41
535.0749,535.18896,69,88,41
535.1939,535.308,67,89,41
535.313,535.42706,69,90,41
535.432,535.5461,66,91,41
535.5511,535.6701,67,92,41
535.6701,535.7892,66,92,41
535.7892,535.90326,67,92,41
535.9082,535.98755,55,92,41
536.0273,536.2604,55,92,41
536.5034,536.6225,67,92,41
536.6225,536.7415,66,92,41
536.7415,536.85565,67,92,41
536.8606,536.93994,55,92,41
536.9796,537.21277,55,92,41
537.4558,537.5749,68,92,41
537.5749,537.6939,67,92,41
537.6939,537.808,68,92,41
537.813,537.89233,56,92,41
537.932,538.16516,56,92,41
538.4082,538.5273,66,92,41
538.5273,538.6463,65,92,41
538.6463,538.7604,66,92,41
538.7653,538.8447,54,92,41
538.8844,539.11755,54,92,41
539.3606,539.4796,67,92,41
539.4796,539.5987,66,92,41
539.5987,539.71277,67,92,41
539.7177,539.7971,55,92,41
539.8368,540.0699,55,92,41
540.313,540.432,67,92,41
540.432,540.5511,66,92,41
540.5511,540.66516,67,92,41
540.6701,540.74945,55,92,41
540.7892,541.0223,55,92,41
541.2653,541.3844,68,92,41
541.3844,541.5034,67,92,41
541.5034,541.61755,68,92,41
541.6225,541.70184,56,92,41
541.7415,541.9747,56,92,41
542.2177,542.3368,70,92,41
542.3368,542.4558,69,92,41
542.4558,542.5699,70,92,41
542.5749,542.65424,58,92,41
542.6939,542.92706,58,92,41
543.1701,543.2891,67,92,41
543.2891,543.4082,66,92,41
543.4082,543.5223,67,92,41
543.5272,543.6066,55,92,41
543.6463,543.87946,55,92,41
544.1225,544.2415,72,92,41
544.2415,544.3606,71,92,41
544.3606,544.4747,72,92,41
544.4796,544.559,60,92,41
544.5987,544.8318,60,92,41
545.0749,545.1939,77,92,41
545.1939,545.313,76,92,41
545.313,545.42706,77,92,41
545.432,545.51135,65,92,41
545.551,545.7842,65,92,41
546.0272,546.1463,70,92,41
546.1463,546.2653,69,92,41
546.2653,546.37946,70,92,41
546.3844,546.46375,58,92,41
546.5034,546.7366,58,92,41
546.9796,547.21277,63,92,41
546.9796,547.61456,70,92,41
547.0987,547.61456,79,92,41
550.8937,551.7687,67,75,41
551.8937,552.31036,68,75,41
552.3937,552.81036,69,75,41
552.8937,553.56036,70,75,41
553.6437,553.8885,72,81,41
553.8937,554.31036,74,83,41
554.3937,554.81036,75,87,41
554.8937,555.56036,79,92,41
555.6437,555.8885,77,92,41
555.8937,556.31036,74,92,41
556.3937,556.81036,72,92,41
556.8937,557.3937,70,92,41
557.3937,557.81036,58,84,41
557.8937,558.3937,72,76,41
558.3937,558.81036,68,68,41
558.8937,559.56036,67,60,41
559.8937,560.3937,53,75,41
560.3937,560.81036,51,75,41
559.8937,560.81036,61,75,41
560.8937,561.3937,60,75,41
561.3937,561.8937,58,75,41
561.8937,562.3937,56,75,41
560.8937,562.81036,51,75,41
562.3937,562.81036,55,75,41
562.8937,563.31036,51,75,41
562.8937,563.31036,60,75,41
563.8937,564.8937,51,105,41
563.8937,564.8937,60,105,41
564.8937,565.31036,53,60,41
566.8937,567.0187,63,60,41
567.0187,567.1437,62,60,41
567.1437,567.2635,63,60,41
567.2687,567.35205,63,60,41
567.3937,567.5187,63,60,41
567.5187,567.6437,62,60,41
567.6437,567.7635,63,60,41
567.7687,567.85205,63,60,41
567.8937,568.0187,62,60,41
568.0187,568.1437,61,60,41
568.1437,568.2635,62,60,41
568.2687,568.35205,62,60,41
568.3937,568.5187,60,60,41
568.5187,568.6437,59,60,41
568.6437,568.7635,60,60,41
568.7687,568.85205,60,60,41
568.8937,569.0187,58,60,41
569.0187,569.1437,57,60,41
569.1437,569.2635,58,60,41
569.2687,569.35205,58,60,41
569.3937,569.5187,67,75,41
569.5187,569.6437,66,75,41
569.6437,569.7635,67,75,41
569.7687,569.85205,67,75,41
569.8937,570.0187,65,75,41
570.0187,570.1437,64,75,41
570.1437,570.2635,65,75,41
570.2687,570.35205,65,75,41
570.3937,570.5187,63,75,41
570.5187,570.6437,62,75,41
570.6437,570.7635,63,75,41
570.7687,570.85205,63,75,41
570.8937,571.0187,62,75,41
571.0187,571.1437,61,75,41
571.1437,571.2635,62,75,41
571.2687,571.35205,62,75,41
571.3937,571.5187,70,75,41
571.5187,571.6437,69,75,41
571.6437,571.7635,70,75,41
571.7687,571.85205,70,75,41
571.8937,572.0187,69,75,41
572.0187,572.1437,68,75,41
572.1437,572.2635,69,75,41
572.2687,572.35205,69,75,41
572.3937,572.5187,67,75,41
572.5187,572.6437,66,75,41
572.6437,572.7635,67,75,41
572.7687,572.85205,67,75,41
572.8937,573.0187,66,75,41
573.0187,573.1437,65,75,41
573.1437,573.2635,66,75,41
573.2687,573.35205,66,75,41
573.3937,573.5187,67,75,41
573.5187,573.6437,66,75,41
573.6437,573.7635,67,75,41
573.7687,573.85205,67,75,41
573.8937,574.0187,69,75,41
574.0187,574.1437,68,75,41
574.1437,574.2635,69,75,41
574.2687,574.35205,69,75,41
574.3937,574.5187,70,75,41
574.5187,574.6437,69,75,41
574.6437,574.7635,70,75,41
574.7687,574.85205,70,75,41
574.8937,575.0187,75,75,41
575.0187,575.1437,74,75,41
575.1437,575.2635,75,75,41
575.2687,575.35205,75,75,41
575.3937,575.5187,74,75,41
575.5187,575.6437,73,75,41
575.6437,575.7635,74,75,41
575.7687,575.85205,74,75,41
575.8937,576.0187,72,75,41
576.0187,576.1437,71,75,41
576.1437,576.2635,72,75,41
576.2687,576.35205,72,75,41
576.3937,576.5187,70,75,41
576.5187,576.6437,69,75,41
576.6437,576.7635,70,75,41
576.7687,576.85205,70,75,41
576.8937,577.8937,69,75,41
577.8937,578.7687,67,81,41
578.8937,579.31036,66,88,41
579.3937,580.2687,62,92,41
579.3937,580.2687,74,92,41
580.3937,581.31036,62,92,41
580.3937,581.31036,74,92,41
581.3937,582.2687,62,92,41
581.3937,582.2687,74,92,41
582.3937,582.8937,73,92,41
582.3937,583.31036,62,92,41
582.8937,583.31036,74,92,41
583.3937,583.8937,62,92,41
583.8937,584.3937,61,92,41
584.3937,584.8937,60,92,41
584.8937,585.3937,58,92,41
585.3937,585.8937,62,92,41
585.8937,586.6437,67,92,41
586.6437,586.8885,69,92,41
586.8937,587.31036,67,92,41
587.3937,587.8937,66,92,41
587.8937,588.3937,67,92,41
588.3937,588.8937,69,92,41
588.8937,589.31036,71,92,41
589.3937,589.8937,71,92,41
589.8937,590.3937,72,92,41
590.3937,590.8937,74,92,41
590.8937,591.31036,76,92,41
591.3937,591.8937,75,92,41
591.8937,592.3937,74,92,41
592.3937,592.81036,72,92,41
592.8937,593.8937,71,92,41
593.8937,594.8937,70,92,41
594.8937,595.31036,69,92,41
596.3937,596.6437,62,60,41
596.6437,596.8885,66,60,41
596.8937,597.1437,70,60,41
597.1437,597.3937,69,60,41
597.3937,597.6437,67,60,41
597.6437,597.8885,63,60,41
597.8937,598.1437,62,60,41
598.1437,598.3937,60,60,41
598.3937,598.6437,58,60,41
598.6437,598.8885,57,60,41
598.8937,599.1437,58,60,41
599.1437,599.3937,60,60,41
599.3937,599.6437,58,60,41
599.6437,599.8885,60,60,41
599.8937,600.1437,62,60,41
600.1437,600.3937,58,60,41
600.3937,600.6437,62,60,41
600.6437,600.8885,67,60,41
600.8937,601.31036,66,60,41
601.3937,601.6437,60,60,41
601.6437,601.8937,59,60,41
601.8937,602.1437,60,60,41
602.1437,602.3885,54,60,41
602.3937,602.6437,60,75,41
602.6437,602.8937,59,75,41
602.8937,603.1437,60,92,41
603.1437,603.3885,66,75,41
603.3937,603.6437,60,60,41
603.6437,603.8937,59,60,41
603.8937,604.1437,60,75,41
604.1437,604.3885,54,75,41
604.3937,604.6437,60,75,41
604.6437,604.8937,59,75,41
604.8937,605.1437,62,92,41
605.1437,605.3937,60,75,41
605.3937,605.6437,58,60,41
605.6437,605.8885,57,60,41
605.8937,606.1437,65,60,41
606.1437,606.3937,63,60,41
606.3937,606.6437,62,60,41
606.6437,606.8885,60,60,41
606.8937,607.1437,58,60,41
607.1437,607.6385,64,60,41
607.6437,607.8937,52,60,41
607.8937,608.1437,54,60,41
608.1437,608.3937,57,60,41
608.3937,608.6437,62,60,41
608.6437,608.8885,66,60,41
608.8937,609.1437,70,60,41
609.1437,609.3937,69,60,41
609.3937,609.6437,67,60,41
609.6437,609.8885,63,60,41
609.8937,610.1437,62,60,41
610.1437,610.3937,60,60,41
610.3937,610.6437,58,60,41
610.6437,610.8885,57,60,41
610.8937,611.1437,58,60,41
611.1437,611.3937,60,60,41
611.3937,611.6437,58,60,41
611.6437,611.8885,60,60,41
611.8937,612.1437,62,60,41
612.1437,612.3885,58,60,41
612.3937,612.6437,59,60,41
612.6437,612.8885,62,67,41
612.8937,613.1437,71,75,41
613.1437,613.3937,68,75,41
613.3937,613.6437,67,75,41
613.6437,613.8885,65,75,41
613.8937,614.1437,67,75,41
614.1437,614.3937,65,75,41
614.3937,614.6437,62,75,41
614.6437,614.8885,65,75,41
614.8937,615.31036,65,75,41
615.3937,615.6437,67,75,41
615.6437,615.8937,69,75,41
615.8937,616.1437,71,75,41
616.1437,616.3937,67,75,41
616.3937,616.6437,65,75,41
616.6437,616.8885,53,75,41
616.8937,617.31036,51,75,41
617.3937,617.6437,63,75,41
617.6437,617.8885,51,75,41
617.8937,618.31036,50,75,41
618.3937,618.6437,62,75,41
618.6437,618.8885,50,75,41
618.8937,619.3937,51,75,41
619.3937,619.81036,63,72,41
619.8937,620.3937,62,68,41
620.3937,620.81036,50,64,41
620.8937,621.31036,52,60,41
622.3937,622.56036,67,60,41
622.56036,622.72705,57,70,41
622.72705,622.8937,66,81,41
622.8937,623.1437,67,92,41
623.1437,623.3885,57,60,41
624.3937,624.56036,67,60,41
624.56036,624.72705,57,70,41
624.72705,624.8937,67,81,41
624.8937,625.1437,66,92,41
625.1437,625.3885,57,60,41
626.3937,626.56036,66,60,41
626.56036,626.72705,57,70,41
626.72705,626.8937,66,81,41
626.8937,627.1437,65,92,41
627.1437,627.3885,56,60,41
628.3937,628.56036,65,60,41
628.56036,628.72705,55,70,41
628.72705,628.8937,62,81,41
628.8937,629.1437,63,92,41
629.1437,629.3885,55,60,41
630.3937,630.56036,63,60,41
630.56036,630.72705,55,70,41
630.72705,630.8937,63,81,41
630.8937,631.1437,67,92,41
631.1437,631.3885,58,60,41
632.3937,632.56036,66,60,41
632.56036,632.72705,57,70,41
632.72705,632.8937,66,81,41
632.8937,633.1437,67,92,41
633.1437,633.3885,57,60,41
633.8937,634.6437,69,60,41
634.6437,634.8885,70,60,41
634.8937,635.3937,70,60,41
635.3937,635.81036,69,62,41
635.8937,636.6437,69,64,41
636.6437,636.8885,70,67,41
636.8937,637.3937,70,67,41
637.3937,637.81036,69,69,41
637.8937,638.6437,69,71,41
638.6437,638.8885,75,74,41
638.8937,639.3937,75,75,41
639.3937,639.81036,74,77,41
639.8937,640.6437,74,79,41
640.6437,640.8885,80,82,41
640.8937,641.3937,80,83,41
641.3937,641.81036,79,85,41
641.8937,642.3937,75,87,41
642.3937,642.81036,72,89,41
642.8937,643.3937,72,92,41
643.3937,643.6385,70,92,41
643.8937,644.3937,72,75,41
644.3937,644.6385,69,75,41
644.8937,647.31036,71,60,41
647.3937,648.3937,70,60,41
648.3937,649.3937,63,84,41
649.3937,650.2687,58,60,41
650.3937,650.8937,57,60,41
650.8937,651.3937,69,84,41
651.3937,651.6385,67,60,41
651.8937,652.3937,69,84,41
652.3937,652.6385,66,60,41
652.8937,653.31036,67,60,41
654.8937,655.3937,67,60,41
655.3937,655.6385,66,60,41
655.8937,656.3937,69,60,41
656.3937,656.6385,67,60,41
658.8937,659.56036,65,60,41
659.8937,660.56036,65,60,41
662.8937,663.3937,68,60,41
663.3937,663.6385,67,63,41
663.8937,664.3937,70,65,41
664.3937,664.6385,68,68,41
665.8937,666.3937,70,77,41
666.3937,666.6385,68,80,41
667.8937,668.3937,70,92,41
668.3937,668.6385,69,92,41
669.8937,670.3937,69,92,41
670.3937,670.6385,68,89,41
671.8937,672.3937,68,81,41
672.3937,672.6385,67,78,41
672.8937,673.3937,63,76,41
673.3937,673.6385,62,73,41
673.8937,674.3937,61,70,41
674.3937,674.6385,60,66,41
675.1437,675.6385,55,60,41
675.1437,675.6385,67,60,41
675.6437,675.72705,55,60,41
675.6437,675.72705,67,60,41
676.1437,676.6385,55,60,41
676.1437,676.6385,67,60,41
676.6437,676.72705,55,60,41
676.6437,676.72705,67,60,41
677.1437,677.6385,57,60,41
677.1437,677.6385,66,60,41
677.6437,677.72705,57,60,41
677.6437,677.72705,66,60,41
678.3937,678.81036,55,60,41
678.3937,678.81036,67,60,41
679.1437,679.6385,55,60,41
679.1437,679.6385,67,60,41
679.6437,679.72705,55,60,41
679.6437,679.72705,67,60,41
680.1437,680.6385,55,60,41
680.1437,680.6385,67,60,41
680.6437,680.72705,55,60,41
680.6437,680.72705,67,60,41
681.1437,681.6385,58,60,41
681.1437,681.6385,67,60,41
681.6437,681.72705,58,60,41
681.6437,681.72705,67,60,41
682.3937,682.81036,56,60,41
682.3937,682.81036,68,60,41
683.1437,683.6385,53,60,41
683.1437,683.6385,65,60,41
683.6437,683.72705,53,60,41
683.6437,683.72705,65,60,41
684.1437,684.6385,53,60,41
684.1437,684.6385,65,60,41
684.6437,684.72705,53,60,41
684.6437,684.72705,65,60,41
685.1437,685.6385,55,60,41
685.1437,685.6385,67,60,41
685.6437,685.72705,55,60,41
685.6437,685.72705,67,60,41
686.1437,686.6385,55,60,41
686.1437,686.6385,67,60,41
686.6437,686.72705,55,60,41
686.6437,686.72705,67,60,41
687.1437,687.6385,56,60,41
687.1437,687.6385,68,60,41
687.6437,687.72705,56,60,41
687.6437,687.72705,68,60,41
688.1437,688.6385,56,60,41
688.1437,688.6385,68,60,41
688.6437,688.72705,56,60,41
688.6437,688.72705,68,60,41
689.1437,689.6385,57,60,41
689.1437,689.6385,69,60,41
689.6437,689.72705,57,60,41
689.6437,689.72705,69,60,41
690.1437,690.6385,57,60,41
690.1437,690.6385,69,60,41
690.6437,690.72705,57,60,41
690.6437,690.72705,69,60,41
691.1437,691.6385,58,60,41
691.1437,691.6385,70,60,41
691.6437,691.72705,58,62,41
691.6437,691.72705,70,62,41
692.1437,692.6385,58,64,41
692.1437,692.6385,70,64,41
692.6437,692.72705,58,66,41
692.6437,692.72705,70,66,41
693.1437,693.6385,60,68,41
693.1437,693.6385,72,68,41
693.6437,693.72705,60,70,41
693.6437,693.72705,72,70,41
694.1437,694.6385,60,72,41
694.1437,694.6385,72,72,41
694.6437,694.72705,60,74,41
694.6437,694.72705,72,74,41
695.1437,695.6385,62,76,41
695.1437,695.6385,74,76,41
695.6437,695.72705,62,78,41
695.6437,695.72705,74,78,41
696.1437,696.6385,62,80,41
696.1437,696.6385,74,80,41
696.6437,696.72705,62,82,41
696.6437,696.72705,74,82,41
697.1437,697.6385,62,84,41
697.1437,697.6385,74,84,41
697.6437,697.72705,62,86,41
697.6437,697.72705,74,86,41
698.1437,698.6385,62,88,41
698.1437,698.6385,74,88,41
698.6437,698.72705,62,90,41
698.6437,698.72705,74,90,41
699.06036,699.2218,69,92,41
699.06036,699.2218,79,92,41
699.22705,699.3885,69,92,41
699.22705,699.3885,79,92,41
699.3937,699.5552,69,92,41
699.3937,699.5552,79,92,41
699.56036,699.7218,69,92,41
699.56036,699.7218,79,92,41
699.72705,699.8885,69,92,41
699.72705,699.8885,79,92,41
699.8937,700.0552,69,92,41
699.8937,700.0552,79,92,41
700.06036,700.2218,69,92,41
700.06036,700.2218,79,92,41
700.22705,700.3885,69,92,41
700.22705,700.3885,79,92,41
700.3937,700.5552,69,92,41
700.3937,700.5552,78,92,41
700.56036,700.7218,69,92,41
700.56036,700.7218,78,92,41
700.72705,700.8885,69,92,41
700.72705,700.8885,78,92,41
701.06036,701.2218,69,92,41
701.06036,701.2218,79,92,41
701.22705,701.3885,69,92,41
701.22705,701.3885,79,92,41
701.3937,701.5552,69,92,41
701.3937,701.5552,79,92,41
701.56036,701.7218,69,92,41
701.56036,701.7218,79,92,41
701.72705,701.8885,69,92,41
701.72705,701.8885,79,92,41
701.8937,702.0552,69,92,41
701.8937,702.0552,79,92,41
702.06036,702.2218,69,92,41
702.06036,702.2218,79,92,41
702.22705,702.3885,69,92,41
702.22705,702.3885,79,92,41
702.3937,702.5552,69,92,41
702.3937,702.5552,78,92,41
702.56036,702.7218,69,92,41
702.56036,702.7218,78,92,41
702.72705,702.8885,69,92,41
702.72705,702.8885,78,92,41
703.06036,703.2218,69,92,41
703.06036,703.2218,79,92,41
703.22705,703.3885,69,92,41
703.22705,703.3885,79,92,41
703.3937,703.5552,69,92,41
703.3937,703.5552,79,92,41
703.56036,703.7218,69,92,41
703.56036,703.7218,79,92,41
703.72705,703.8885,69,92,41
703.72705,703.8885,79,92,41
704.06036,704.2218,67,92,41
704.06036,704.2218,69,92,41
704.22705,704.3885,67,92,41
704.22705,704.3885,69,92,41
704.3937,704.5552,67,92,41
704.3937,704.5552,69,92,41
704.56036,704.7218,67,92,41
704.56036,704.7218,69,92,41
704.72705,704.8885,67,92,41
704.72705,704.8885,69,92,41
704.8937,705.0552,67,92,41
704.8937,705.0552,69,92,41
705.06036,705.2218,67,92,41
705.06036,705.2218,69,92,41
705.22705,705.3885,67,92,41
705.22705,705.3885,69,92,41
705.56036,705.72705,55,92,41
705.72705,705.8937,57,92,41
705.8937,706.06036,55,92,41
706.06036,706.22705,57,92,41
706.22705,706.3937,55,92,41
706.3937,706.56036,57,92,41
706.56036,706.72705,55,92,41
706.72705,706.8885,57,92,41
706.8937,707.06036,55,92,41
707.06036,707.22705,57,91,41
707.22705,707.3937,55,89,41
707.3937,707.56036,57,87,41
707.56036,707.72705,55,85,41
707.72705,707.8937,57,83,41
707.8937,708.06036,55,81,41
708.06036,708.22705,57,79,41
708.22705,708.3937,55,77,41
708.3937,708.56036,57,75,41
708.56036,708.72705,55,73,41
708.72705,708.8885,57,71,41
708.8937,709.06036,54,69,41
709.06036,709.22705,57,67,41
709.22705,709.3937,54,65,41
709.3937,709.56036,57,63,41
709.56036,709.72705,54,61,41
709.72705,709.8937,57,59,41
709.8937,710.06036,54,57,41
710.06036,710.22705,57,55,41
710.22705,710.3937,54,53,41
710.3937,710.56036,57,51,41
710.56036,710.72705,54,49,41
710.72705,710.8885,57,47,41
710.8937,711.31744,54,45,41
717.488,717.9642,55,60,41
717.9642,718.44037,51,60,41
718.44037,718.91656,48,60,41
718.91656,719.7834,50,60,41
719.8615,720.33026,57,60,41
720.33026,720.799,54,62,41
720.799,721.65234,55,64,41
721.7293,722.19086,60,68,41
722.19086,722.65234,57,70,41
722.65234,723.4927,58,72,41
723.5684,724.023,63,76,41
724.023,724.47754,60,78,41
724.47754,725.31085,62,80,41
725.38666,725.8412,69,86,41
725.8412,726.22,66,89,41
726.2957,726.5289,55,92,41
726.2957,728.5576,67,92,41
726.4148,728.5576,74,92,41
728.6767,730.5517,55,60,41
728.6767,730.5517,67,60,41
730.6767,732.61633,50,60,41
730.6767,732.61633,62,60,41
732.7456,733.6831,50,45,41
732.7456,733.6831,62,45,41
733.8171,734.97955,50,38,41
733.8171,734.97955,62,38,41
735.16705,738.91705,50,30,41
735.16705,738.91705,62,30,41
460.61453,461.11453,50,60,45
463.3145,463.9395,50,60,45
714.01654,714.463,51,60,45
715.088,715.588,48,60,45
716.28796,716.78796,50,60,45
9.5238,9.99999,57,60,42
9.99999,10.47618,65,75,42
10.47618,10.95237,61,75,42
10.95237,11.349195,62,60,42
11.42856,11.90475,60,75,42
11.90475,12.38094,55,75,42
12.38094,12.85713,58,60,42
12.85713,13.253955,57,60,42
15.23808,15.71427,67,75,42
15.71427,16.19046,62,75,42
16.19046,16.66665,65,68,42
16.66665,17.063475,63,61,42
17.14284,17.546064,62,53,42
17.62671,18.11058,58,45,42
18.11058,18.602383,60,45,42
18.602383,19.012218,57,45,42
19.094187,19.510853,55,45,42
21.094187,21.32732,58,60,42
21.332281,21.80351,58,60,42
21.808472,22.279701,58,57,42
22.28466,22.75589,58,53,42
22.76085,23.23208,58,49,42
23.237041,23.708271,58,45,42
23.71323,24.184462,58,45,42
24.18942,24.66065,58,45,42
24.665611,25.13684,58,45,42
25.141802,25.613031,58,45,42
25.61799,26.08922,58,45,42
26.094181,26.56541,58,45,42
26.570372,27.041601,58,45,42
27.04656,27.51779,58,45,42
27.52275,27.99398,58,45,42
27.998941,28.470171,58,45,42
28.47513,28.946362,58,45,42
28.95132,29.42255,58,45,42
29.427511,29.89874,58,47,42
29.903702,30.374931,58,49,42
30.37989,30.85112,58,53,42
30.856081,31.32731,58,57,42
31.332272,31.803501,58,61,42
31.80846,32.27969,58,65,42
32.284653,32.755882,58,69,42
32.76084,32.998936,58,73,42
32.998936,33.23207,56,75,42
33.23703,33.475124,56,75,42
33.475124,33.70826,55,92,42
33.713223,33.951317,55,92,42
33.951317,34.184452,56,75,42
34.18941,34.427505,56,75,42
34.427505,34.66064,53,60,42
34.6656,34.903694,53,60,42
34.903694,35.13683,51,60,42
35.141792,35.379887,51,60,42
35.379887,35.61302,50,60,42
35.61798,35.856075,50,60,42
35.856075,36.08921,51,60,42
36.09417,36.5654,51,60,42
36.570362,37.04159,51,60,42
37.04655,37.284645,51,64,42
37.284645,37.51778,39,66,42
37.52274,37.99397,39,68,42
37.99893,38.237026,39,72,42
38.237026,38.477806,41,74,42
38.48293,38.96961,41,76,42
38.97473,39.22063,41,80,42
39.22063,39.469574,53,82,42
39.47487,39.978046,53,84,42
39.98334,40.232285,53,89,42
40.23758,40.746056,53,92,42
40.746056,41.254528,65,92,42
41.254528,41.763,60,92,42
41.763,42.18673,61,92,42
44.176235,44.652428,42,60,42
44.652428,45.128616,54,60,42
45.128616,45.604805,48,60,42
45.604805,46.001633,49,60,42
46.080997,47.39052,48,60,42
47.509567,48.38258,36,68,42
48.461945,49.295277,42,100,42
49.414326,49.81115,42,77,42
49.890514,50.287342,43,80,42
50.366707,50.76353,51,83,42
50.842896,51.23972,48,86,42
51.319084,51.71591,50,89,42
51.795277,52.02841,43,92,42
51.795277,52.271465,50,92,42
51.91432,52.271465,62,92,42
52.271465,52.747658,70,92,42
52.747658,53.223846,66,75,42
53.223846,53.62067,67,60,42
53.700035,54.176228,65,75,42
54.176228,54.652416,60,75,42
54.652416,55.128605,63,75,42
55.128605,55.525433,62,75,42
55.604797,56.080986,60,75,42
56.080986,56.557175,55,75,42
56.557175,57.033367,58,75,42
57.033367,57.43019,57,75,42
57.509556,57.985744,58,105,42
57.985744,58.382572,57,75,42
58.461937,58.938126,58,105,42
58.938126,59.33495,57,75,42
59.414314,59.890507,63,105,42
59.890507,60.28733,62,75,42
60.366695,60.842888,63,105,42
60.842888,61.23971,62,75,42
61.319077,61.795265,68,105,42
61.795265,62.192093,67,75,42
62.271458,62.747646,68,105,42
62.747646,63.14447,67,75,42
63.223835,63.620663,64,75,42
63.700027,64.176216,52,77,42
64.176216,64.573044,51,79,42
64.652405,65.12859,63,81,42
65.12859,65.52542,62,83,42
65.60479,65.83792,51,85,42
66.08098,66.31411,48,87,42
66.55717,66.7903,50,89,42
67.033356,67.152405,55,92,42
67.152405,67.271454,54,92,42
67.271454,67.38554,55,92,42
67.390495,67.469864,43,92,42
67.509544,67.74268,43,92,42
67.98573,68.10478,55,92,42
68.10478,68.22383,54,92,42
68.22383,68.33792,55,92,42
68.34288,68.42224,43,92,42
68.46193,68.69506,43,92,42
68.93812,69.05717,56,90,42
69.05717,69.17621,55,90,42
69.17621,69.2903,56,90,42
69.29526,69.374626,56,90,42
69.41431,69.64744,56,90,42
69.890495,70.009544,54,88,42
70.009544,70.12859,52,88,42
70.12859,70.242676,54,88,42
70.247635,70.327,54,88,42
70.366684,70.59982,54,88,42
70.84287,70.96192,55,86,42
70.96192,71.08097,54,86,42
71.08097,71.19506,55,86,42
71.20002,71.27938,43,86,42
71.31907,71.5522,43,86,42
71.79526,71.91431,55,84,42
71.91431,72.03335,54,83,42
72.03335,72.14744,55,82,42
72.1524,72.231766,43,81,42
72.27145,72.50458,43,80,42
72.747635,72.866684,56,76,42
72.866684,72.98573,55,75,42
72.98573,73.099815,56,74,42
73.10478,73.18414,56,73,42
73.22382,73.45696,56,72,42
73.70001,73.81906,58,68,42
73.81906,73.93811,57,67,42
73.93811,74.0522,58,66,42
74.05716,74.13652,58,65,42
74.17621,74.40934,58,64,42
74.6524,74.77145,55,60,42
74.77145,74.89049,54,60,42
74.89049,75.00458,55,60,42
75.00954,75.088905,43,60,42
75.128586,75.36172,43,60,42
75.604774,75.72382,58,60,42
75.72382,75.84287,57,61,42
75.84287,75.956955,58,62,42
75.96192,76.04128,58,63,42
76.08096,76.3141,58,64,42
76.55716,76.6762,63,68,42
76.6762,76.79525,62,69,42
76.79525,76.90934,63,70,42
76.9143,76.99366,63,71,42
77.03335,77.26648,63,72,42
77.50954,77.628586,62,78,42
77.628586,77.74763,61,79,42
77.74763,77.86172,62,80,42
77.86668,77.946045,62,82,42
77.985725,78.218864,62,84,42
78.461914,78.69505,45,92,42
78.461914,78.93314,52,92,42
78.58096,78.93314,57,92,42
80.36668,80.842865,43,60,42
80.842865,81.31905,45,75,42
81.31905,81.79524,46,92,42
81.79524,82.19207,47,60,42
84.17619,84.65239,41,60,42
84.65239,85.12858,43,75,42
85.12858,85.60477,45,92,42
85.60477,86.001595,47,60,42
87.98572,88.46191,38,60,42
88.46191,88.938095,41,68,42
88.938095,89.41428,47,76,42
89.41428,89.81111,50,84,42
89.89047,90.36667,52,92,42
90.36667,90.84286,50,92,42
90.84286,91.319046,48,82,42
91.319046,91.71587,47,71,42
91.795235,92.27142,45,60,42
92.27142,92.74762,43,60,42
92.74762,93.22381,41,70,42
93.22381,93.62063,40,81,42
93.7,94.096825,45,92,42
95.12856,95.52539,57,60,42
95.60476,96.55714,65,60,42
96.55714,97.033325,67,76,42
97.033325,97.43015,68,84,42
97.509514,98.2238,69,92,42
98.2238,98.45693,65,75,42
98.4619,98.85872,62,60,42
98.93809,99.414276,57,60,42
99.414276,99.890465,59,66,42
99.890465,100.28729,61,72,42
100.36665,100.44602,62,78,42
100.44602,100.52538,64,79,42
100.52538,100.60475,62,80,42
100.60475,100.7238,61,81,42
100.7238,100.84285,62,82,42
100.84285,101.0115,64,84,42
101.08094,101.16031,65,88,42
101.31904,102.03332,64,92,42
102.03332,102.26646,69,92,42
102.271416,102.9857,68,75,42
102.9857,103.218834,71,75,42
103.22379,103.85872,69,75,42
103.93808,104.17122,69,81,42
104.17618,104.65237,70,83,42
104.65237,105.049194,71,87,42
105.128555,105.84284,72,92,42
105.84284,106.07597,69,92,42
106.08093,106.47776,66,92,42
106.55713,106.95395,63,92,42
107.03332,107.50951,62,92,42
107.50951,107.985695,61,82,42
107.985695,108.46188,62,71,42
108.46188,108.85871,55,60,42
108.93807,109.41427,62,92,42
109.41427,109.89046,61,92,42
109.89046,110.366646,62,92,42
110.366646,110.76347,53,92,42
110.842834,111.55712,53,92,42
111.55712,111.79025,52,92,42
111.79522,112.03331,57,92,42
112.03331,112.27141,55,84,42
112.27141,112.5095,53,76,42
112.5095,112.74264,52,68,42
112.7476,113.144424,50,60,42
113.223785,113.46188,57,60,42
113.46188,113.695015,50,60,42
113.93807,114.17616,52,60,42
114.17616,114.41426,62,60,42
114.41426,114.64739,52,60,42
114.89045,115.12855,53,60,42
115.12855,115.36664,62,60,42
115.36664,115.59978,53,60,42
115.60474,115.842834,65,60,42
115.842834,116.080925,57,60,42
116.080925,116.31902,62,60,42
116.31902,116.552155,57,60,42
116.79521,117.0333,56,60,42
117.0333,117.2714,55,61,42
117.2714,117.50454,61,61,42
117.74759,117.98569,57,63,42
117.98569,118.22378,53,64,42
118.22378,118.45692,62,65,42
118.620605,118.779335,57,66,42
118.779335,118.938065,59,66,42
118.938065,119.096794,60,66,42
119.096794,119.25552,59,66,42
119.25552,119.409294,57,66,42
119.57298,119.73171,59,66,42
119.73171,119.89045,61,66,42
119.89045,120.04918,62,66,42
120.04918,120.20791,61,66,42
120.20791,120.36168,59,66,42
120.60473,120.84283,61,67,42
120.84283,121.08092,64,68,42
121.08092,121.31406,57,69,42
121.319016,121.55711,58,70,42
121.55711,121.790245,62,71,42
121.795204,122.0333,56,72,42
122.0333,122.26643,62,73,42
122.50949,122.74759,55,76,42
122.74759,122.98568,60,78,42
122.98568,123.21882,54,80,42
123.46187,123.69997,54,84,42
123.69997,123.938065,63,86,42
123.938065,124.171196,57,88,42
124.41425,124.65234,55,92,42
124.65234,124.89044,62,92,42
124.89044,125.12357,50,92,42
125.36663,125.60473,55,92,42
125.60473,125.84282,62,92,42
125.84282,126.07596,50,92,42
126.31901,126.557106,57,92,42
126.557106,126.795204,62,92,42
126.795204,127.028336,50,92,42
127.27139,127.50948,59,92,42
127.50948,127.74758,62,92,42
127.74758,127.98071,50,92,42
128.22377,128.46187,58,92,42
128.46187,128.69997,62,88,42
128.69997,128.93309,52,84,42
129.17615,129.41425,57,75,42
129.41425,129.65234,61,70,42
129.65234,129.88548,45,65,42
129.89044,130.60472,53,60,42
130.60472,130.83786,52,60,42
130.84282,131.08092,57,60,42
131.08092,131.319,55,60,42
131.319,131.5571,53,60,42
131.5571,131.79024,52,60,42
131.7952,132.50948,50,60,42
132.50948,132.74261,52,65,42
132.74757,133.38249,45,67,42
133.46187,133.69499,55,73,42
133.69995,134.41425,53,75,42
134.41425,134.64737,52,75,42
134.65233,134.89043,57,75,42
134.89043,135.12852,55,75,42
135.12852,135.36662,53,75,42
135.36662,135.59976,50,75,42
135.60472,135.8428,58,75,42
135.8428,136.0809,57,75,42
136.0809,136.319,55,75,42
136.319,136.55214,52,75,42
136.5571,136.7952,60,75,42
136.7952,137.03328,58,75,42
137.03328,137.27138,57,75,42
137.27138,137.50452,53,75,42
137.50948,138.22375,60,75,42
138.22375,138.4569,59,75,42
138.46185,138.69995,64,75,42
138.69995,138.93805,62,75,42
138.93805,139.17615,60,75,42
139.17615,139.40927,59,75,42
139.41423,140.12852,60,75,42
140.12852,140.36165,59,75,42
140.36662,140.6047,64,75,42
140.6047,140.8428,62,75,42
140.8428,141.0809,60,75,42
141.0809,141.31404,57,75,42
141.319,141.5571,65,75,42
141.5571,141.79518,64,77,42
141.79518,142.03328,62,79,42
142.03328,142.26642,59,81,42
142.27138,142.50948,67,83,42
142.50948,142.74756,65,85,42
142.74756,142.98566,64,87,42
142.98566,143.2188,60,89,42
143.22375,143.46185,70,92,42
143.46185,143.69995,69,92,42
143.69995,143.93307,67,92,42
143.93803,144.01741,43,92,42
144.17613,144.40927,52,92,42
144.17613,144.40927,62,92,42
144.41423,144.88547,52,92,42
144.41423,144.88547,62,92,42
144.89043,144.96979,52,92,42
144.89043,144.96979,62,92,42
145.12851,145.36661,59,92,42
145.36661,145.6047,57,92,42
145.6047,145.83784,56,92,42
145.8428,145.92216,44,92,42
146.0809,146.31403,52,92,42
146.0809,146.31403,62,92,42
146.31898,146.79022,52,92,42
146.31898,146.79022,62,92,42
146.79518,146.87454,52,92,42
146.79518,146.87454,62,92,42
147.03328,147.2664,45,92,42
147.03328,147.5045,52,92,42
147.15233,147.5045,61,92,42
159.93095,160.43095,45,92,42
160.43095,160.84761,38,75,42
160.93095,162.30595,38,92,42
162.43095,162.84761,50,92,42
162.93095,163.34761,43,92,42
163.93095,164.68095,50,105,42
164.68095,164.92574,44,75,42
164.93095,165.34761,45,60,42
169.43095,169.93095,50,60,42
169.93095,170.43095,48,64,42
170.43095,170.84761,46,68,42
170.93095,171.43095,45,72,42
171.43095,171.84761,57,77,42
171.93095,172.43095,57,82,42
172.43095,172.84761,69,87,42
172.93095,173.43095,64,92,42
173.43095,173.93095,65,92,42
173.93095,174.43095,61,92,42
174.43095,174.84761,62,92,42
174.93095,175.43095,62,92,42
175.43095,175.84761,55,92,42
175.93095,176.43095,67,92,42
176.43095,176.84761,60,92,42
176.93095,177.34761,60,92,42
177.43095,178.30595,45,92,42
178.43095,179.34761,45,92,42
179.43095,180.30595,45,92,42
180.43095,181.34761,45,92,42
181.43095,181.93095,45,92,42
181.93095,182.43095,44,92,42
182.43095,182.93095,43,92,42
182.93095,183.43095,42,92,42
183.43095,183.93095,45,92,42
183.93095,184.68095,50,92,42
184.68095,184.92574,52,92,42
184.93095,185.34761,45,92,42
185.43095,185.93095,45,88,42
185.93095,186.43095,47,84,42
186.43095,186.93095,49,80,42
186.93095,187.34761,50,76,42
187.43095,187.93095,38,72,42
187.93095,188.43095,40,68,42
188.43095,188.93095,42,64,42
188.93095,189.34761,43,60,42
189.43095,189.93095,55,60,42
189.93095,190.43095,63,70,42
190.43095,190.84761,64,81,42
190.93095,194.30595,57,92,42
190.93095,194.30595,69,92,42
194.43095,194.84761,57,92,42
194.93095,195.17574,38,92,42
194.93095,195.17574,45,92,42
195.05595,195.42574,50,92,42
195.05595,195.42574,57,92,42
195.43095,196.30595,50,105,42
195.43095,196.30595,57,105,42
196.43095,197.34761,50,105,42
196.43095,197.34761,57,105,42
197.43095,198.30595,50,105,42
197.43095,198.30595,57,105,42
198.43095,198.84761,50,75,42
198.43095,198.84761,57,75,42
198.93095,199.34761,57,75,42
199.43095,200.30595,52,105,42
199.43095,200.30595,57,105,42
200.43095,201.34761,52,105,42
200.43095,201.34761,57,105,42
201.43095,202.30595,52,105,42
201.43095,202.30595,57,105,42
202.43095,202.93095,52,105,42
202.93095,203.34761,50,75,42
202.43095,203.34761,57,105,42
203.43095,203.93095,50,75,42
203.93095,204.34761,52,77,42
204.43095,204.93095,47,80,42
204.93095,205.34761,45,83,42
205.43095,206.30595,45,86,42
206.43095,206.67574,38,92,42
206.43095,206.67574,45,92,42
206.55595,207.34761,50,92,42
206.55595,207.34761,57,92,42
207.43095,208.30595,50,105,42
207.43095,208.30595,57,105,42
208.43095,209.34761,50,105,42
208.43095,209.34761,57,105,42
209.43095,210.30595,50,105,42
209.43095,210.30595,57,105,42
210.43095,211.34761,50,105,42
210.43095,211.34761,60,105,42
211.43095,212.30595,50,105,42
211.43095,212.30595,60,105,42
212.43095,213.34761,50,105,42
212.43095,213.34761,60,105,42
213.43095,214.30595,50,105,42
213.43095,214.30595,60,105,42
214.43095,214.93095,60,105,42
214.43095,215.34761,50,105,42
214.93095,215.34761,59,75,42
215.43095,215.93095,59,105,42
215.43095,216.34761,50,105,42
215.93095,216.34761,57,75,42
216.43095,216.93095,57,105,42
216.43095,217.34761,50,105,42
216.93095,217.34761,59,75,42
217.43095,217.84761,59,75,42
217.93095,218.34761,57,75,42
218.43095,218.84761,45,75,42
218.93095,219.34761,47,75,42
220.93095,221.43095,62,60,42
221.43095,221.84761,56,60,42
222.93095,223.43095,67,45,42
223.43095,223.84761,57,45,42
224.93095,225.43095,69,45,42
225.43095,225.84761,60,45,42
226.93095,227.43095,69,45,42
227.43095,227.84761,61,56,42
227.93095,228.43095,62,68,42
228.43095,228.84761,72,80,42
228.93095,229.43095,71,92,42
229.43095,229.84761,67,92,42
229.93095,230.43095,63,92,42
230.43095,230.84761,64,92,42
230.93095,231.80595,57,92,42
231.93095,232.80595,45,75,42
232.93095,233.34761,47,60,42
233.93095,234.68095,64,45,42
234.68095,234.92574,66,60,42
234.93095,235.43095,66,75,42
235.43095,235.84761,64,45,42
235.93095,236.68095,64,45,42
236.68095,236.92574,66,60,42
236.93095,237.43095,66,60,42
237.43095,237.84761,64,62,42
237.93095,238.68095,64,64,42
238.68095,238.92574,67,68,42
238.93095,239.43095,67,69,42
239.43095,239.84761,66,71,42
239.93095,240.68095,66,74,42
240.68095,240.92574,69,78,42
240.93095,241.43095,69,79,42
241.43095,241.84761,67,82,42
241.93095,242.43095,69,85,42
242.43095,242.84761,70,88,42
242.93095,243.34761,71,92,42
243.43095,243.93095,59,92,42
243.93095,244.43095,69,82,42
244.43095,244.84761,67,71,42
244.93095,245.43095,65,60,42
245.43095,245.67574,66,60,42
245.93095,246.43095,63,60,42
246.43095,246.67574,64,60,42
246.93095,248.80595,63,45,42
248.93095,249.43095,54,60,42
249.43095,250.43095,55,60,42
250.43095,251.34761,53,56,42
251.43095,251.93095,54,52,42
251.93095,252.43095,51,50,42
252.43095,252.84761,52,48,42
252.93095,253.34761,50,45,42
254.93095,255.43095,50,60,42
255.43095,255.67574,45,60,42
255.93095,256.43094,49,60,42
256.43094,256.67575,50,60,42
258.93094,259.43094,50,60,42
259.43094,259.67575,45,60,42
259.93094,260.43094,49,60,42
260.43094,260.67575,50,60,42
262.93094,263.43094,51,60,42
263.43094,263.67575,46,65,42
263.93094,264.43094,50,69,42
264.43094,264.67575,51,74,42
265.93094,266.43094,50,92,42
266.43094,266.67575,51,60,42
267.93094,268.43094,50,92,42
268.43094,268.67575,49,60,42
269.93094,270.43094,49,60,42
270.43094,270.67575,48,60,42
274.93094,275.43094,50,60,42
275.43094,275.93094,59,75,42
275.93094,276.43094,56,60,42
276.43094,278.80594,57,45,42
278.93094,279.43094,50,60,42
279.43094,279.93094,58,75,42
279.93094,280.43094,56,60,42
280.43094,282.80594,57,45,42
282.93094,283.43094,50,45,42
283.43094,283.93094,60,48,42
283.93094,284.43094,57,52,42
284.43094,284.93094,58,56,42
284.93094,286.80594,58,60,42
286.93094,287.43094,57,92,42
287.43094,288.80594,58,60,42
288.93094,289.43094,57,92,42
289.43094,290.80594,58,60,42
290.93094,291.43094,58,92,42
291.43094,292.80594,57,60,42
292.93094,293.43094,57,60,42
293.43094,294.80594,56,60,42
294.93094,295.80594,56,60,42
295.93094,296.80594,57,68,42
296.93094,297.80594,59,76,42
297.93094,298.01428,61,84,42
298.01428,298.09763,62,84,42
298.09763,298.18094,61,84,42
298.18094,298.26428,62,84,42
298.26428,298.34763,61,84,42
298.34763,298.43094,62,85,42
298.43094,298.51428,61,86,42
298.51428,298.59763,62,87,42
298.59763,298.68094,61,88,42
298.68094,298.76428,62,89,42
298.76428,298.84763,59,90,42
298.84763,298.92575,61,91,42
298.93094,299.43094,62,92,42
299.43094,299.93094,58,92,42
299.93094,300.43094,59,92,42
300.43094,300.84763,50,92,42
300.93094,301.43094,62,92,42
301.43094,301.93094,58,92,42
301.93094,302.43094,59,92,42
302.43094,302.84763,50,92,42
302.93094,303.43094,57,92,42
303.43094,304.30594,69,92,42
304.43094,305.34763,62,92,42
305.43094,305.93094,50,92,42
305.93094,306.80594,45,75,42
307.43942,307.9479,50,60,42
307.9479,308.83774,45,60,42
309.4821,309.99933,50,60,42
309.99933,310.9045,51,60,42
311.56952,312.10522,50,60,42
312.10522,313.04272,51,60,42
313.17667,313.4494,50,60,42
313.4494,313.58575,51,60,42
313.58575,313.7221,50,60,42
313.7221,314.02213,49,60,42
314.02213,314.6893,50,60,42
314.6971,315.0721,51,60,42
315.0721,315.5007,49,60,42
315.5007,315.99026,50,60,42
316.0007,316.39752,43,60,42
323.61972,324.09592,57,60,42
324.09592,324.5721,65,60,42
324.5721,325.0483,61,60,42
325.0483,325.44513,62,60,42
325.5245,326.00067,60,60,42
326.00067,326.47687,55,60,42
326.47687,326.95306,58,60,42
326.95306,327.34988,57,60,42
329.334,329.8102,67,92,42
329.8102,330.28638,62,92,42
330.28638,330.76257,65,88,42
330.76257,331.1594,63,84,42
331.23877,331.6356,62,80,42
331.71497,332.19116,58,75,42
332.19116,332.66733,60,70,42
332.66733,333.06418,57,65,42
333.14352,333.54034,55,60,42
336.00067,336.95306,41,60,42
336.95306,337.34988,36,60,42
337.90543,338.85782,36,60,42
338.85782,339.25464,41,60,42
339.81018,340.04828,41,60,42
340.04828,340.28143,43,60,42
340.28638,340.52448,43,60,42
340.52448,340.7576,44,60,42
340.76257,341.1594,41,60,42
341.71497,341.95303,41,60,42
341.95303,342.1862,43,60,42
342.19113,342.42923,43,60,42
342.42923,342.66238,44,60,42
342.66733,343.06415,42,60,42
343.61972,343.85782,42,60,42
343.85782,344.09094,43,60,42
344.0959,344.33398,43,60,42
344.33398,344.56714,45,60,42
344.57208,344.9689,42,60,42
345.52448,345.76257,42,75,42
345.76257,345.9957,43,75,42
346.00067,346.23877,43,60,42
346.23877,346.4719,45,60,42
346.47684,346.8737,43,45,42
352.19113,352.31018,48,60,42
352.31018,352.42923,47,60,42
352.42923,352.54828,48,60,42
352.54828,352.66235,45,60,42
352.66733,352.78638,48,60,42
352.78638,352.90543,47,60,42
352.90543,353.02448,48,60,42
353.02448,353.13855,45,60,42
353.14352,353.26257,48,60,42
353.26257,353.3816,47,60,42
353.3816,353.50064,48,60,42
353.50064,353.61475,45,60,42
353.6197,353.73874,48,60,42
353.73874,353.8578,47,60,42
353.8578,353.97684,48,60,42
353.97684,354.09094,45,60,42
354.0959,355.8816,60,75,42
356.00064,356.39746,38,92,42
359.8975,360.01654,53,60,42
360.01654,360.1356,52,60,42
360.1356,360.25464,53,60,42
360.25464,360.3687,50,60,42
360.3737,360.49274,53,60,42
360.49274,360.6118,52,60,42
360.6118,360.73083,53,60,42
360.73083,360.8449,50,60,42
360.84988,360.96893,53,60,42
360.96893,361.08795,52,60,42
361.08795,361.207,53,60,42
361.207,361.3211,50,60,42
361.32605,361.4451,53,60,42
361.4451,361.56415,52,60,42
361.56415,361.6832,53,60,42
361.6832,361.7973,50,60,42
361.80225,363.58795,56,75,42
363.707,364.10382,40,92,42
368.1565,368.27057,64,92,42
368.27554,368.38962,63,92,42
368.39456,368.50867,64,92,42
368.5136,368.62772,57,92,42
369.10886,369.22296,64,92,42
369.2279,369.342,63,92,42
369.34695,369.46103,64,92,42
369.466,369.58008,57,92,42
370.06125,370.17532,66,92,42
370.1803,370.29437,65,92,42
370.29935,370.41342,66,92,42
370.4184,370.53247,57,92,42
371.0136,371.12772,56,92,42
371.13266,371.24677,55,92,42
371.2517,371.3658,56,92,42
371.37076,371.48486,59,92,42
371.966,372.08008,62,92,42
372.08505,372.19913,61,92,42
372.2041,372.31818,62,92,42
372.32315,372.43723,55,92,42
372.9184,373.03247,62,92,42
373.0374,373.15152,61,92,42
373.15646,373.27057,62,92,42
373.2755,373.38962,55,92,42
373.87076,373.98486,64,92,42
373.9898,374.10388,63,92,42
374.10886,374.22293,64,92,42
374.2279,374.34198,55,92,42
374.82315,374.93723,54,92,42
374.9422,375.05627,53,92,42
375.06125,375.17532,54,92,42
375.1803,375.29437,57,92,42
375.7755,375.88962,65,92,42
375.89456,376.00867,64,91,42
376.0136,376.12772,65,90,42
376.13266,376.24677,62,89,42
376.2517,376.64853,59,88,42
376.7279,376.84198,47,84,42
376.84695,376.96103,46,83,42
376.966,377.08008,47,82,42
377.08505,377.19913,47,81,42
377.2041,377.60092,50,80,42
377.68027,377.79437,65,75,42
377.79932,377.91342,64,74,42
377.91837,378.03247,65,73,42
378.0374,378.15152,62,72,42
378.15646,378.55328,59,71,42
378.63266,378.74673,47,66,42
378.7517,378.86578,46,65,42
378.87076,378.98483,47,64,42
378.9898,379.10388,47,62,42
379.10886,379.50568,50,60,42
379.58505,379.81818,69,92,42
379.82315,380.05627,65,92,42
380.06122,380.29437,62,87,42
380.29932,380.53247,57,82,42
380.5374,380.77057,53,77,42
380.7755,381.00864,50,72,42
381.0136,381.24673,47,66,42
381.2517,381.48483,40,60,42
382.91837,383.39456,52,60,42
383.39456,383.87076,60,75,42
383.87076,384.34695,56,92,42
384.34695,384.74377,57,60,42
386.7279,387.20407,55,92,42
387.20407,387.68027,50,75,42
387.68027,388.15646,53,92,42
388.15646,388.55328,52,60,42
396.25168,396.72787,52,60,42
396.72787,397.68027,47,60,42
397.68027,398.0771,44,60,42
398.15646,398.63263,40,60,42
398.63263,399.58502,52,84,42
399.58502,399.98184,64,60,42
400.06122,400.5374,52,75,42
400.5374,401.01358,60,75,42
401.01358,401.48978,56,75,42
401.48978,401.8866,57,75,42
403.87073,403.98483,65,45,42
403.98978,404.10385,65,45,42
404.10883,404.2229,65,46,42
404.22787,404.34195,65,47,42
404.34692,404.461,65,48,42
404.46597,404.58005,65,49,42
404.58502,404.6991,65,50,42
404.70407,404.81815,65,51,42
404.82312,404.9372,69,52,42
404.94217,405.05624,69,53,42
405.06122,405.1753,69,54,42
405.18027,405.29434,69,55,42
405.2993,405.4134,69,56,42
405.41833,405.53244,69,57,42
405.53738,405.6515,69,58,42
405.65643,405.77054,69,59,42
405.77548,405.8896,69,60,42
405.89453,406.00864,69,60,42
406.01358,406.1277,69,60,42
406.13263,406.24673,69,60,42
406.25168,406.36575,69,60,42
406.37073,406.4848,69,60,42
406.48978,406.60385,69,60,42
406.60883,406.7229,69,60,42
406.72787,406.84195,67,60,42
406.84692,406.961,67,60,42
406.96597,407.08005,67,60,42
407.08502,407.1991,67,60,42
407.20407,407.31815,68,60,42
407.32312,407.4372,68,60,42
407.44217,407.55624,68,60,42
407.56122,407.6753,68,60,42
407.68024,407.79434,67,60,42
407.7993,407.9134,67,60,42
407.91833,408.03244,67,60,42
408.03738,408.1515,67,60,42
408.15643,408.27054,67,60,42
408.27548,408.3896,67,60,42
408.39453,408.50864,67,60,42
408.51358,408.6277,67,60,42
408.63263,408.7467,64,60,42
408.75168,408.86575,64,60,42
408.87073,408.9848,64,60,42
408.98978,409.10385,64,60,42
409.10883,409.2229,65,60,42
409.22787,409.34195,65,60,42
409.34692,409.461,65,60,42
409.46597,409.58005,65,60,42
409.58502,409.6991,63,60,42
409.70407,409.81815,63,60,42
409.82312,409.9372,63,60,42
409.94214,410.05624,63,60,42
410.0612,410.1753,64,60,42
410.18024,410.29434,64,60,42
410.2993,410.4134,64,60,42
410.41833,410.53244,64,60,42
410.53738,410.6515,64,60,42
410.65643,410.77054,64,60,42
410.77548,410.8896,64,60,42
410.89453,411.0086,64,60,42
411.01358,411.12766,65,60,42
411.13263,411.2467,65,60,42
411.25168,411.36575,65,60,42
411.37073,411.4848,65,60,42
411.48978,411.60385,64,60,42
411.60883,411.7229,64,60,42
411.72787,411.84195,64,60,42
411.84692,411.961,64,60,42
411.96597,412.08005,65,60,42
412.08502,412.1991,65,60,42
412.20407,412.31815,65,60,42
412.3231,412.4372,65,60,42
412.44214,412.55624,65,60,42
412.5612,412.6753,65,60,42
412.68024,412.79434,65,60,42
412.7993,412.9134,65,60,42
412.91833,413.03244,66,60,42
413.03738,413.1515,66,60,42
413.15643,413.27054,66,60,42
413.27548,413.38956,66,60,42
413.39453,413.5086,65,60,42
413.51358,413.62766,65,61,42
413.63263,413.7467,65,61,42
413.75168,413.86575,65,62,42
413.87073,413.9848,66,63,42
413.98978,414.10385,66,64,42
414.10883,414.2229,66,65,42
414.22787,414.34195,66,66,42
414.34692,414.461,66,67,42
414.46597,414.58005,66,68,42
414.585,414.6991,66,69,42
414.70404,414.81815,66,70,42
414.8231,414.9372,67,71,42
414.94214,415.05624,67,72,42
415.0612,415.1753,67,73,42
415.18024,415.29434,67,74,42
415.2993,415.4171,66,75,42
415.42224,415.54007,66,76,42
415.5452,415.66302,66,77,42
415.66815,415.78598,66,78,42
415.7911,415.90894,67,79,42
415.91403,416.03186,67,80,42
416.037,416.15482,67,81,42
416.15994,416.27777,67,82,42
416.2829,416.40472,66,83,42
416.41,416.53183,66,84,42
416.53714,416.65897,66,85,42
416.66425,416.78607,66,86,42
416.79138,416.91528,67,87,42
416.9207,417.04462,67,88,42
417.05,417.17392,67,89,42
417.1793,417.30322,67,90,42
417.30862,417.72528,47,92,42
417.80862,418.22528,55,92,42
418.30862,418.72528,51,92,42
418.80862,419.22528,52,92,42
419.30862,419.72528,60,92,42
419.80862,420.0534,55,84,42
420.05862,420.3034,52,80,42
420.30862,420.72528,48,76,42
420.80862,421.22528,47,68,42
421.30862,421.72528,46,60,42
421.80862,422.22528,55,60,42
422.30862,422.72528,47,60,42
422.30862,422.72528,54,60,42
423.30862,423.80862,47,60,42
423.80862,424.30862,57,60,42
424.30862,424.80862,51,61,42
424.80862,425.22528,54,62,42
425.30862,425.80862,47,63,42
425.80862,426.30862,59,64,42
426.30862,426.80862,52,65,42
426.80862,427.22528,55,66,42
427.30862,427.80862,48,67,42
427.80862,428.30862,60,68,42
428.30862,428.80862,52,69,42
428.80862,429.22528,55,70,42
429.30862,429.80862,49,71,42
429.80862,430.30862,61,72,42
430.30862,430.80862,52,73,42
430.80862,431.22528,55,74,42
431.30862,431.80862,49,76,42
431.80862,432.22528,61,78,42
432.30862,432.80862,46,80,42
432.80862,433.22528,58,82,42
433.30862,433.80862,43,84,42
433.80862,434.22528,55,86,42
434.30862,434.80862,40,88,42
434.80862,435.22528,52,90,42
435.30862,435.72528,55,92,42
435.80862,436.30862,67,92,42
436.30862,436.80862,64,92,42
436.80862,437.22528,65,92,42
437.80862,438.30862,64,92,42
438.30862,438.80862,69,92,42
438.80862,439.22528,62,92,42
439.80862,440.30862,60,92,42
440.30862,440.80862,65,92,42
440.80862,441.22528,58,92,42
441.80862,442.30862,57,92,42
442.30862,442.80862,62,92,42
442.80862,443.22528,55,92,42
443.80862,444.30862,53,92,42
444.30862,444.72528,58,92,42
444.80862,445.30862,46,92,42
445.30862,445.80862,48,92,42
445.80862,446.30862,50,92,42
446.30862,446.72528,51,92,42
446.80862,447.30862,45,92,42
447.30862,447.80862,49,92,42
447.80862,448.22528,52,92,42
448.30862,448.80862,45,92,42
448.80862,449.30862,49,92,42
449.30862,449.72528,52,92,42
449.80862,450.30862,45,92,42
450.30862,450.80862,49,92,42
450.80862,451.22528,52,92,42
451.30862,451.80862,38,92,42
451.80862,452.30862,45,90,42
452.30862,452.72528,50,88,42
452.80862,453.30862,38,86,42
453.30862,453.80862,45,84,42
453.80862,454.22528,50,81,42
454.30862,454.80862,38,78,42
454.80862,455.30862,45,75,42
455.30862,455.72528,50,72,42
455.80862,456.30862,38,69,42
456.30862,456.80862,45,66,42
456.80862,457.22528,50,63,42
457.30862,457.82587,38,60,42
457.82587,458.3431,45,60,42
458.3431,458.78952,50,60,42
464.8145,465.05933,55,60,42
465.0645,465.55933,55,60,42
465.5645,466.05933,55,60,42
466.0645,466.55933,55,60,42
466.5645,467.05933,55,60,42
467.0645,467.55933,55,60,42
467.5645,468.05933,55,60,42
468.0645,468.55933,55,60,42
468.5645,469.05933,55,60,42
469.0645,469.55933,55,60,42
469.5645,470.05933,55,60,42
470.0645,470.55933,55,60,42
470.5645,471.05933,55,60,42
471.0645,471.55933,55,60,42
471.5645,472.05933,55,60,42
472.0645,472.55933,55,60,42
472.5645,473.05933,55,60,42
473.0645,473.55933,55,60,42
473.5645,474.05933,55,60,42
474.0645,474.55933,55,60,42
474.5645,475.05933,55,60,42
475.0645,475.55933,55,60,42
475.5645,476.05933,55,60,42
476.0645,476.55933,55,60,42
476.5645,477.05933,55,60,42
477.0645,477.3145,55,60,42
477.3145,477.55933,53,75,42
477.5645,477.8145,53,75,42
477.8145,478.05933,52,92,42
478.0645,478.3145,52,75,42
478.3145,478.55933,53,75,42
478.5645,478.8145,53,60,42
478.8145,479.05933,50,60,42
479.0645,479.3145,50,60,42
479.3145,479.55933,48,75,42
479.5645,479.8145,48,75,42
479.8145,480.05933,47,92,42
480.0645,480.3145,47,92,42
480.3145,480.55933,48,75,42
480.5645,481.05933,48,60,42
481.0645,481.55933,48,75,42
481.5645,481.8145,48,75,42
481.8145,482.05933,36,92,42
482.0645,482.55933,36,92,42
482.5645,482.8145,36,92,42
482.8145,483.05933,38,88,42
483.0645,483.55933,38,84,42
483.5645,483.8145,38,76,42
483.8145,484.05933,50,72,42
484.0645,484.55933,50,68,42
484.5645,484.80933,50,60,42
488.8145,489.0645,62,60,42
489.0645,489.30933,66,75,42
489.3145,489.5645,66,92,42
489.5645,489.80933,67,92,42
489.8145,490.5645,63,60,42
490.5645,490.80933,62,60,42
490.8145,491.0645,62,60,42
491.0645,491.30933,66,75,42
491.3145,491.5645,66,92,42
491.5645,491.80933,67,92,42
491.8145,492.5645,63,60,42
492.5645,492.80933,62,60,42
492.8145,493.0645,62,60,42
493.0645,493.30933,66,60,42
493.3145,493.5645,66,60,42
493.5645,493.80933,67,60,42
493.8145,494.3145,67,84,42
494.3145,494.55933,68,62,42
494.8145,495.3145,67,89,42
495.3145,495.55933,68,66,42
495.8145,496.3145,67,95,42
496.3145,496.55933,68,70,42
496.8145,498.3145,68,72,42
498.3145,498.7312,67,79,42
498.8145,500.3145,70,81,42
500.3145,500.7312,69,89,42
500.8145,501.5645,69,92,42
501.5645,501.80933,67,92,42
501.8145,502.0645,65,75,42
502.0645,502.3145,64,75,42
502.3145,502.5645,62,60,42
502.5645,502.80933,60,60,42
502.8145,503.0645,69,60,42
503.0645,503.55933,67,68,42
503.5645,503.8145,68,84,42
503.8145,504.2312,68,92,42
504.3145,504.5645,69,92,42
504.5645,504.80933,64,89,42
504.8145,505.8145,62,86,42
505.8145,506.8145,61,73,42
506.8145,508.2194,62,60,42
508.88443,509.36063,50,92,42
509.36063,509.8368,62,92,42
509.8368,510.313,57,75,42
510.313,510.7098,58,60,42
512.694,513.1701,51,60,42
513.1701,513.6463,63,60,42
513.6463,514.1225,60,60,42
514.1225,514.51935,61,60,42
514.5987,515.0749,60,60,42
515.0749,515.5511,58,66,42
515.5511,516.0273,56,72,42
516.0273,516.5035,55,78,42
516.5035,516.90027,54,85,42
516.9797,517.813,50,92,42
517.932,518.32886,38,92,42
518.4082,518.80505,43,92,42
518.8844,519.28125,51,92,42
519.3606,519.75745,48,92,42
519.8368,520.23364,50,92,42
520.313,520.54614,43,92,42
520.313,520.78424,50,92,42
520.432,520.78424,62,92,42
520.7892,521.2654,70,92,42
521.2654,521.7416,66,92,42
521.7416,522.13837,67,92,42
522.2178,522.6939,65,75,42
522.6939,523.1701,60,75,42
523.1701,523.6463,63,75,42
523.6463,524.04315,62,75,42
524.1225,524.5987,60,60,42
524.5987,525.0749,55,60,42
525.0749,525.5511,58,60,42
525.5511,525.9479,57,60,42
526.0273,526.5035,58,60,42
526.5035,526.90027,57,61,42
526.9797,527.4558,58,62,42
527.4558,527.85266,57,63,42
527.932,528.4082,63,64,42
528.4082,528.80505,62,65,42
528.8844,529.3606,63,66,42
529.3606,529.75745,62,67,42
529.8368,530.313,68,68,42
530.313,530.7098,67,70,42
530.7892,531.2654,68,72,42
531.2654,531.6622,67,74,42
531.7415,532.13837,64,76,42
532.2177,532.6939,52,78,42
532.6939,533.09076,51,80,42
533.1701,533.6463,63,82,42
533.6463,534.04315,62,84,42
534.1225,534.35565,51,86,42
534.5987,534.83185,48,88,42
535.0749,535.308,50,90,42
535.5511,535.6701,55,92,42
535.6701,535.7892,54,92,42
535.7892,535.90326,55,92,42
535.9082,536.0223,43,92,42
536.0273,536.2604,43,92,42
536.5034,536.6225,55,92,42
536.6225,536.7415,54,92,42
536.7415,536.85565,55,92,42
536.8606,536.9747,43,92,42
536.9796,537.21277,43,92,42
537.4558,537.5749,56,92,42
537.5749,537.6939,55,92,42
537.6939,537.808,56,92,42
537.813,537.92706,56,92,42
537.932,538.16516,56,92,42
538.4082,538.5273,54,92,42
538.5273,538.6463,53,92,42
538.6463,538.7604,54,92,42
538.7653,538.87946,54,92,42
538.8844,539.11755,54,92,42
539.3606,539.4796,55,92,42
539.4796,539.5987,54,92,42
539.5987,539.71277,55,92,42
539.7177,539.8318,43,92,42
539.8368,540.0699,43,92,42
540.313,540.432,55,92,42
540.432,540.5511,54,92,42
540.5511,540.66516,55,92,42
540.6701,540.7842,43,92,42
540.7892,541.0223,43,92,42
541.2653,541.3844,56,92,42
541.3844,541.5034,55,92,42
541.5034,541.61755,56,92,42
541.6225,541.7366,56,92,42
541.7415,541.9747,56,92,42
542.2177,542.3368,58,92,42
542.3368,542.4558,57,92,42
542.4558,542.5699,58,92,42
542.5749,542.68896,58,92,42
542.6939,542.92706,58,92,42
543.1701,543.2891,55,92,42
543.2891,543.4082,54,92,42
543.4082,543.5223,55,92,42
543.5272,543.64136,55,92,42
543.6463,543.87946,55,92,42
544.1225,544.2415,60,92,42
544.2415,544.3606,59,92,42
544.3606,544.4747,60,92,42
544.4796,544.5937,60,92,42
544.5987,544.8318,60,92,42
545.0749,545.1939,65,92,42
545.1939,545.313,64,92,42
545.313,545.42706,65,92,42
545.432,545.5461,65,92,42
545.551,545.7842,65,92,42
546.0272,546.1463,58,92,42
546.1463,546.2653,57,92,42
546.2653,546.37946,58,92,42
546.3844,546.4985,58,92,42
546.5034,546.7366,58,92,42
546.9796,547.61456,67,92,42
559.8937,560.3937,46,75,42
560.3937,560.81036,39,75,42
560.8937,562.7687,39,75,42
562.8937,563.31036,44,75,42
563.8937,564.6437,51,105,42
564.6437,564.8885,45,75,42
564.8937,565.31036,46,60,42
569.3937,569.8937,51,60,42
569.8937,570.3937,50,60,42
570.3937,570.81036,48,60,42
570.8937,571.31036,46,60,42
571.3937,571.8937,55,60,42
571.8937,572.3937,53,62,42
572.3937,572.81036,51,64,42
572.8937,573.3937,50,66,42
573.3937,574.2687,62,68,42
574.3937,574.81036,62,72,42
574.8937,575.3937,69,74,42
575.3937,575.81036,70,76,42
575.8937,576.3937,66,78,42
576.3937,576.81036,67,80,42
576.8937,577.7687,60,82,42
577.8937,578.3937,58,86,42
578.3937,578.81036,49,88,42
578.8937,579.31036,50,90,42
579.3937,580.2687,38,92,42
579.3937,580.2687,50,92,42
580.3937,581.31036,38,92,42
580.3937,581.31036,50,92,42
581.3937,582.2687,38,92,42
581.3937,582.2687,50,92,42
582.3937,583.31036,38,92,42
582.3937,583.31036,50,92,42
583.3937,583.8937,50,92,42
583.8937,584.3937,49,92,42
584.3937,584.8937,48,92,42
584.8937,585.3937,46,92,42
585.3937,585.8937,50,92,42
585.8937,586.6437,55,92,42
586.6437,586.8885,57,92,42
586.8937,587.31036,50,92,42
587.3937,587.8937,50,92,42
587.8937,588.3937,52,92,42
588.3937,588.8937,54,92,42
588.8937,589.31036,55,92,42
589.3937,589.8937,43,92,42
589.8937,590.3937,45,92,42
590.3937,590.8937,47,92,42
590.8937,591.31036,48,92,42
591.3937,592.2687,36,92,42
592.3937,592.81036,48,92,42
592.8937,593.31036,50,92,42
593.3937,594.2687,67,92,42
594.3937,594.8937,55,92,42
594.8937,595.31036,62,92,42
596.3937,596.6437,38,60,42
596.6437,596.8885,50,60,42
596.8937,597.1437,43,60,42
597.1437,597.3937,50,60,42
597.3937,597.6437,55,60,42
597.6437,597.8937,50,60,42
597.8937,598.1437,55,60,42
598.1437,598.3937,50,60,42
598.3937,598.6437,43,60,42
598.6437,598.8885,50,60,42
598.8937,599.1437,43,60,42
599.1437,599.3937,50,60,42
599.3937,599.6437,55,60,42
599.6437,599.8937,50,60,42
599.8937,600.1437,55,60,42
600.1437,600.3937,50,60,42
600.3937,600.6437,43,60,42
600.6437,600.8885,50,60,42
600.8937,601.1437,43,60,42
601.1437,601.3937,50,60,42
601.3937,601.6437,57,60,42
601.6437,601.8937,50,60,42
601.8937,602.1437,57,60,42
602.1437,602.3937,50,60,42
602.3937,602.6437,43,75,42
602.6437,602.8885,50,75,42
602.8937,603.1437,43,92,42
603.1437,603.3937,50,75,42
603.3937,603.6437,57,60,42
603.6437,603.8937,50,60,42
603.8937,604.1437,57,75,42
604.1437,604.3937,50,75,42
604.3937,604.6437,43,75,42
604.6437,604.8885,50,75,42
604.8937,605.1437,43,92,42
605.1437,605.3937,50,75,42
605.3937,605.6437,55,60,42
605.6437,605.8885,50,60,42
605.8937,606.1437,36,60,42
606.1437,606.3937,43,60,42
606.3937,606.6437,51,60,42
606.6437,606.8885,48,60,42
606.8937,607.1437,37,60,42
607.1437,607.3937,46,60,42
607.3937,607.6385,52,60,42
607.6437,607.8885,37,60,42
607.8937,608.1385,38,60,42
608.1437,608.3937,50,60,42
608.3937,608.6437,54,60,42
608.6437,608.8885,57,60,42
621.3937,621.5187,64,60,42
621.8937,622.3937,64,60,42
622.3937,622.81036,57,60,42
623.3937,623.5187,64,60,42
623.8937,624.3937,64,60,42
624.3937,624.81036,57,60,42
625.3937,625.5187,63,60,42
625.8937,626.3937,63,60,42
626.3937,626.81036,57,60,42
627.3937,627.5187,68,60,42
627.8937,628.3937,68,60,42
628.3937,628.81036,62,60,42
629.3937,629.5187,67,60,42
629.8937,630.3937,67,60,42
630.3937,630.81036,63,60,42
630.8937,631.3937,67,60,42
631.3937,631.6385,62,60,42
631.8937,632.3937,66,60,42
632.3937,632.6385,62,60,42
633.3937,633.5187,64,60,42
633.8937,634.3937,64,60,42
634.3937,634.81036,57,60,42
635.3937,635.5187,64,60,42
635.8937,636.3937,64,62,42
636.3937,636.81036,57,64,42
637.3937,637.5187,63,68,42
637.8937,638.3937,63,70,42
638.3937,638.81036,57,72,42
639.3937,639.5187,68,76,42
639.8937,640.3937,68,78,42
640.3937,640.81036,62,80,42
641.3937,641.5187,63,84,42
641.8937,642.3937,67,86,42
642.3937,642.6385,63,89,42
642.8937,643.3937,67,92,42
643.3937,643.6385,62,92,42
643.8937,644.3937,66,75,42
644.3937,644.6385,62,75,42
644.8937,647.31036,65,60,42
647.3937,648.3937,63,60,42
648.3937,649.3937,58,60,42
649.3937,650.2687,54,60,42
650.3937,650.8937,54,60,42
650.8937,651.3937,55,84,42
651.3937,651.6385,55,60,42
651.8937,652.3937,54,84,42
652.3937,652.6385,60,60,42
652.8937,653.31036,58,60,42
654.8937,655.3937,55,60,42
655.3937,655.6385,50,60,42
655.8937,656.3937,54,60,42
656.3937,656.6385,55,60,42
658.8937,659.3937,55,60,42
659.3937,659.6385,50,60,42
659.8937,660.3937,55,60,42
660.3937,660.6385,43,60,42
662.8937,663.3937,56,60,42
663.3937,663.6385,51,63,42
663.8937,664.3937,55,65,42
664.3937,664.6385,56,68,42
665.8937,666.3937,55,77,42
666.3937,666.6385,56,80,42
667.8937,668.3937,55,92,42
668.3937,668.6385,54,92,42
669.8937,670.3937,54,75,42
670.3937,670.6385,53,75,42
671.8937,672.56036,36,60,42
672.8937,673.56036,38,60,42
673.8937,674.56036,50,60,42
675.3937,675.5187,58,84,42
676.3937,676.5187,58,84,42
677.3937,677.5187,60,84,42
678.3937,678.5187,58,84,42
679.3937,679.5187,58,84,42
680.3937,680.5187,58,84,42
681.3937,681.5187,61,84,42
682.3937,682.5187,60,84,42
683.3937,683.5187,60,85,42
684.3937,684.5187,61,86,42
685.3937,685.5187,65,89,42
686.3937,686.5187,63,92,42
687.3937,687.5187,63,95,42
688.3937,688.5187,64,98,42
689.3937,689.81036,67,72,42
690.3937,690.8937,65,74,42
690.8937,691.3937,67,105,42
691.3937,691.81036,65,76,42
691.8937,692.3937,68,77,42
692.3937,692.81036,67,78,42
692.8937,693.3937,68,79,42
693.3937,693.81036,67,80,42
693.8937,694.3937,70,81,42
694.3937,694.81036,68,82,42
694.8937,695.3937,70,83,42
695.3937,695.81036,69,84,42
695.8937,696.3937,72,85,42
696.3937,696.81036,70,86,42
696.8937,697.3937,66,87,42
697.3937,697.81036,57,88,42
697.8937,698.3937,67,89,42
698.3937,698.81036,58,90,42
698.8937,699.1385,36,92,42
699.3937,699.5552,63,92,42
699.56036,699.7218,63,92,42
699.72705,699.8885,63,92,42
699.8937,700.0552,60,92,42
700.06036,700.2218,60,92,42
700.22705,700.3885,60,92,42
700.3937,700.5552,62,92,42
700.56036,700.7218,62,92,42
700.72705,700.8885,62,92,42
700.8937,701.1385,36,92,42
701.3937,701.5552,63,92,42
701.56036,701.7218,63,92,42
701.72705,701.8885,63,92,42
701.8937,702.0552,60,92,42
702.06036,702.2218,60,92,42
702.22705,702.3885,60,92,42
702.3937,702.5552,62,92,42
702.56036,702.7218,62,92,42
702.72705,702.8885,62,92,42
702.8937,703.1385,36,92,42
703.3937,703.8937,63,92,42
703.8937,704.31036,60,92,42
704.3937,704.8937,51,92,42
704.8937,705.31036,48,92,42
705.3937,705.81036,39,92,42
705.8937,706.3937,36,89,42
706.3937,706.8937,38,86,42
706.8937,707.3937,39,83,42
707.3937,707.8937,36,80,42
707.8937,708.3937,38,76,42
708.3937,708.8937,39,72,42
708.8937,709.3937,36,68,42
709.3937,709.8937,38,64,42
709.8937,710.31036,39,60,42
717.488,717.9642,43,60,42
717.9642,718.44037,39,60,42
718.44037,718.91656,36,60,42
718.91656,719.7834,38,60,42
719.8615,720.33026,45,64,42
720.33026,720.799,42,66,42
720.799,721.65234,43,68,42
721.7293,722.19086,48,72,42
722.19086,722.65234,45,74,42
722.65234,723.4927,46,76,42
723.5684,724.023,51,80,42
724.023,724.47754,48,82,42
724.47754,725.31085,50,84,42
725.38666,725.8412,57,88,42
725.8412,726.22,54,90,42
726.2957,726.5289,43,92,42
726.2957,726.7719,50,92,42
726.4148,726.7719,58,92,42
726.7719,728.6767,50,75,42
726.7719,728.6767,58,75,42
728.6767,730.5517,50,60,42
728.6767,730.5517,58,60,42
730.6767,732.61633,43,60,42
730.6767,732.61633,50,60,42
732.7456,734.97955,43,45,42
732.7456,734.97955,50,45,42
735.16705,738.91705,43,30,42
735.16705,738.91705,50,30,42
150.93095,151.17574,50,60,45
151.18095,151.42574,45,60,45
151.43095,151.67574,50,60,45
151.68095,151.92574,45,62,45
151.93095,152.17574,52,64,45
152.18095,152.42574,45,66,45
152.43095,152.67574,53,68,45
152.68095,152.92574,45,70,45
152.93095,153.17574,54,72,45
153.18095,153.42574,45,74,45
153.68095,153.92574,45,78,45
154.18095,154.42574,45,82,45
154.68095,154.92574,45,86,45
155.18095,155.42574,45,92,45
155.68095,155.92574,45,92,45
156.18095,156.42574,45,92,45
156.68095,156.92574,45,92,45
157.18095,157.42574,45,92,45
157.68095,157.92574,45,92,45
158.18095,158.42574,45,92,45
158.68095,158.92574,45,92,45
159.18095,159.42574,45,92,45
271.93094,272.34763,43,60,45
272.93094,273.34763,45,60,45
273.93094,274.34763,45,60,45
460.61453,461.11453,38,60,45
463.3145,463.9395,38,60,45
550.8937,551.1385,51,60,45
551.1437,551.3885,46,60,45
551.3937,551.6385,51,60,45
551.6437,551.8885,46,60,45
551.8937,552.1385,53,60,45
552.1437,552.3885,46,60,45
552.3937,552.6385,54,60,45
552.6437,552.8885,46,60,45
552.8937,553.1385,55,60,45
553.1437,553.3885,46,63,45
553.6437,553.8885,46,69,45
554.1437,554.3885,46,76,45
554.6437,554.8885,46,84,45
555.1437,555.3885,46,92,45
555.6437,555.8885,46,92,45
556.1437,556.3885,46,92,45
556.6437,556.8885,46,92,45
557.1437,557.3885,46,92,45
557.6437,557.8885,46,92,45
558.1437,558.3885,46,92,45
558.6437,558.8885,46,92,45
559.1437,559.3885,46,92,45
608.8937,609.1385,50,60,45
608.8937,609.1385,58,60,45
609.3937,609.6385,43,60,45
609.8937,610.1385,50,60,45
609.8937,610.1385,58,60,45
610.3937,610.6385,43,60,45
610.8937,611.1385,50,60,45
610.8937,611.1385,58,60,45
611.3937,611.6385,43,60,45
611.8937,612.1385,50,60,45
611.8937,612.1385,58,60,45
612.3937,612.6385,43,60,45
612.8937,613.1385,50,60,45
612.8937,613.1385,59,60,45
613.3937,613.6385,43,60,45
613.8937,614.1385,50,60,45
613.8937,614.1385,59,60,45
614.3937,614.6385,43,60,45
614.3937,614.6385,50,60,45
614.3937,614.6385,57,60,45
614.8937,615.1385,55,60,45
615.3937,615.6385,43,60,45
615.8937,616.1385,50,60,45
615.8937,616.1385,59,60,45
616.3937,616.6385,43,60,45
616.8937,617.1385,51,60,45
616.8937,617.1385,60,60,45
617.3937,617.6385,43,60,45
617.8937,618.1385,50,60,45
617.8937,618.1385,58,60,45
618.3937,618.6385,43,60,45
618.8937,619.1385,48,60,45
618.8937,619.1385,57,60,45
619.3937,619.6385,36,60,45
619.8937,620.1385,50,60,45
619.8937,620.1385,57,60,45
620.3937,620.6385,38,60,45
620.8937,621.1385,37,60,45
620.8937,621.1385,45,60,45
714.01654,714.463,39,60,45
715.088,715.588,36,60,45
716.28796,716.78796,38,60,45
1.90476,2.38095,74,60,0
2.38095,2.85714,70,60,0
2.38095,2.85714,82,60,0
2.85714,3.33333,66,60,0
2.85714,3.33333,78,60,0
3.33333,3.730155,67,60,0
3.33333,3.730155,79,60,0
3.80952,4.28571,65,60,0
3.80952,4.28571,77,60,0
4.28571,4.7619,72,60,0
4.7619,5.23809,63,60,0
4.7619,5.23809,75,60,0
5.23809,5.634915,62,60,0
5.23809,5.634915,74,60,0
5.71428,6.19047,60,60,0
5.71428,6.19047,72,60,0
6.19047,6.66666,67,60,0
6.66666,7.14285,58,60,0
6.66666,7.14285,70,60,0
7.14285,7.539675,57,60,0
7.14285,7.539675,69,60,0
7.61904,8.09523,62,60,0
7.61904,8.09523,66,60,0
8.09523,9.04761,61,60,0
8.09523,9.04761,64,60,0
9.04761,9.444435,62,60,0
9.99999,10.47618,57,60,0
9.99999,10.47618,62,60,0
9.99999,10.47618,65,60,0
10.47618,10.95237,55,60,0
10.47618,10.95237,58,60,0
10.47618,10.95237,61,60,0
10.95237,11.349195,53,60,0
10.95237,11.349195,57,60,0
10.95237,11.349195,62,60,0
11.90475,12.738083,55,84,0
11.90475,12.738083,60,84,0
11.90475,12.738083,67,84,0
12.85713,13.253955,57,60,0
12.85713,13.253955,65,60,0
13.80951,14.76189,60,84,0
13.80951,14.76189,65,84,0
13.80951,14.76189,72,84,0
14.76189,15.158715,62,60,0
14.76189,15.158715,70,60,0
15.71427,16.19046,62,60,0
15.71427,16.19046,67,60,0
15.71427,16.19046,74,60,0
16.19046,16.66665,60,60,0
16.66665,17.063475,58,60,0
16.66665,17.063475,63,60,0
16.19046,17.063475,67,60,0
17.14284,17.546064,57,60,0
17.14284,17.546064,62,60,0
17.14284,17.546064,66,60,0
17.62671,18.11058,58,60,0
17.62671,18.11058,67,60,0
17.62671,18.602383,55,60,0
18.11058,18.602383,57,60,0
18.11058,18.602383,63,60,0
18.602383,19.012218,54,60,0
18.602383,19.012218,57,60,0
18.602383,19.012218,62,60,0
19.094187,19.510853,55,60,0
19.094187,19.510853,58,60,0
21.094187,22.046566,77,60,0
21.094187,22.046566,86,60,0
22.046566,22.443392,75,45,0
21.094187,22.443392,82,60,0
22.046566,22.443392,84,45,0
22.998945,23.951326,81,60,0
22.998945,23.951326,87,60,0
22.998945,23.951326,91,60,0
23.951326,24.34815,82,45,0
23.951326,24.34815,86,45,0
23.951326,24.34815,89,45,0
24.903706,25.141802,80,60,0
24.903706,25.141802,89,60,0
25.141802,25.374935,79,60,0
25.141802,25.374935,87,60,0
25.379896,25.61799,79,60,0
25.379896,25.61799,87,60,0
25.61799,25.851126,77,60,0
25.61799,25.851126,86,60,0
25.856087,26.491007,75,60,0
25.856087,26.491007,84,60,0
26.570372,26.803505,77,60,0
26.570372,26.803505,86,60,0
26.808466,27.04656,80,60,0
26.808466,27.04656,89,60,0
27.04656,27.279696,79,60,0
27.04656,27.279696,87,60,0
27.284657,27.52275,79,60,0
27.284657,27.52275,87,60,0
27.52275,27.755886,77,60,0
27.52275,27.755886,86,60,0
27.760845,28.395765,75,60,0
27.760845,28.395765,84,60,0
28.47513,28.708265,77,60,0
28.47513,28.708265,86,60,0
28.713226,28.95132,82,60,0
28.713226,28.95132,91,60,0
28.95132,29.184456,80,60,0
28.95132,29.184456,89,60,0
29.189417,29.427511,80,61,0
29.189417,29.427511,89,61,0
29.427511,29.660646,79,62,0
29.427511,29.660646,88,62,0
29.665606,30.141796,80,63,0
29.665606,30.141796,89,63,0
30.141796,30.374931,79,65,0
30.141796,30.374931,87,65,0
30.617987,31.094175,79,67,0
30.617987,31.094175,87,67,0
31.094175,31.32731,77,69,0
31.094175,31.32731,86,69,0
31.570366,32.046555,77,71,0
31.570366,32.046555,86,71,0
32.046555,32.27969,76,73,0
32.046555,32.27969,85,73,0
32.522747,33.951317,76,75,0
32.522747,33.951317,85,75,0
33.951317,34.34814,75,75,0
33.951317,34.34814,84,75,0
34.427505,35.856075,80,75,0
34.427505,35.856075,83,75,0
35.856075,36.2529,79,75,0
35.856075,36.2529,82,75,0
36.332268,37.04655,77,75,0
36.332268,37.04655,81,75,0
37.04655,37.279686,75,75,0
37.04655,37.279686,79,75,0
37.284645,37.52274,81,75,0
37.284645,37.52274,89,75,0
37.52274,37.760838,79,75,0
37.52274,37.760838,87,75,0
37.760838,37.99893,77,75,0
37.760838,37.99893,86,75,0
37.99893,38.232067,75,75,0
37.99893,38.232067,84,75,0
38.237026,39.22063,74,75,0
38.237026,39.22063,82,75,0
39.22063,39.64436,72,75,0
39.22063,39.64436,81,75,0
40.23758,40.746056,65,92,0
40.23758,40.746056,77,92,0
40.746056,41.254528,77,92,0
40.746056,41.254528,89,92,0
41.254528,41.763,72,75,0
41.254528,41.763,84,75,0
41.763,42.18673,73,60,0
41.763,42.18673,85,60,0
42.271477,42.747665,54,60,0
42.747665,43.223858,66,60,0
43.223858,43.700047,60,60,0
43.700047,44.09687,61,60,0
44.176235,44.652428,54,60,0
44.652428,45.128616,66,60,0
45.128616,45.604805,60,60,0
45.604805,46.001633,61,60,0
46.557186,47.033375,58,60,0
47.033375,47.509567,56,60,0
46.080997,47.509567,60,60,0
47.509567,47.90639,55,60,0
47.509567,47.90639,60,60,0
47.985756,48.38258,54,60,0
48.461945,48.938137,75,92,0
48.461945,48.938137,84,92,0
48.461945,48.938137,87,92,0
48.938137,49.414326,74,92,0
48.938137,49.414326,82,92,0
48.938137,49.414326,86,92,0
49.414326,50.287342,72,92,0
49.414326,50.287342,81,92,0
49.414326,50.287342,84,92,0
50.366707,50.44607,82,92,0
50.44607,50.525436,84,92,0
50.525436,50.6048,82,92,0
50.6048,50.72385,81,92,0
50.366707,50.76353,70,92,0
50.366707,50.76353,79,92,0
50.72385,50.842896,82,92,0
50.842896,51.23972,72,92,0
50.842896,51.23972,81,92,0
50.842896,51.23972,84,92,0
51.319084,51.71591,69,92,0
51.319084,51.71591,72,92,0
51.319084,51.71591,78,92,0
51.319084,51.71591,81,92,0
51.795277,52.1921,67,92,0
51.795277,52.1921,70,92,0
51.795277,52.1921,74,92,0
51.795277,52.1921,79,92,0
53.223846,53.34289,58,92,0
53.34289,53.46194,57,92,0
53.46194,53.58099,58,92,0
53.58099,53.695076,55,92,0
53.700035,54.096863,57,92,0
53.700035,54.096863,60,92,0
53.700035,54.096863,65,92,0
55.128605,55.247654,62,75,0
55.247654,55.3667,60,75,0
55.3667,55.48575,62,75,0
55.48575,55.599834,58,75,0
55.604797,56.00162,58,75,0
55.604797,56.00162,64,75,0
55.604797,56.00162,67,75,0
57.033367,57.152412,64,60,0
57.152412,57.27146,62,60,0
57.27146,57.390507,64,60,0
57.390507,57.504597,61,60,0
57.985744,58.104794,66,60,0
58.104794,58.223843,64,60,0
58.223843,58.342888,66,60,0
58.342888,58.456974,62,60,0
58.938126,59.057175,67,61,0
59.057175,59.17622,66,61,0
59.17622,59.29527,67,61,0
59.29527,59.409355,64,61,0
59.890507,60.009552,69,62,0
60.009552,60.1286,67,62,0
60.1286,60.24765,69,62,0
60.24765,60.366695,66,62,0
60.366695,60.485744,70,62,0
60.485744,60.60479,69,62,0
60.60479,60.72384,70,62,0
60.72384,60.842888,67,62,0
60.842888,60.961933,72,62,0
60.961933,61.080982,70,62,0
61.080982,61.200027,72,62,0
61.200027,61.314117,69,62,0
61.795265,61.914314,74,64,0
61.914314,62.03336,72,64,0
62.03336,62.15241,74,64,0
62.15241,62.271458,71,64,0
62.271458,62.390503,75,64,0
62.390503,62.509552,74,64,0
62.509552,62.628597,75,64,0
62.628597,62.747646,72,64,0
62.747646,62.866695,77,64,0
62.866695,62.98574,75,64,0
62.98574,63.10479,77,64,0
63.10479,63.218876,74,64,0
63.223835,63.342884,67,64,0
63.223835,63.342884,76,64,0
63.223835,63.342884,79,64,0
63.700027,64.176216,55,67,0
63.700027,64.176216,64,67,0
63.700027,64.176216,67,67,0
64.176216,64.573044,54,70,0
64.176216,64.573044,63,70,0
64.176216,64.573044,66,70,0
64.652405,65.12859,66,73,0
64.652405,65.12859,75,73,0
64.652405,65.12859,78,73,0
65.12859,65.52542,67,76,0
65.12859,65.52542,74,76,0
65.12859,65.52542,79,76,0
65.60479,65.72383,55,80,0
65.60479,65.72383,58,80,0
65.60479,65.72383,67,80,0
66.08098,66.20002,57,84,0
66.08098,66.20002,63,84,0
66.08098,66.20002,69,84,0
66.55717,66.676216,57,88,0
66.55717,66.676216,62,88,0
66.55717,66.676216,66,88,0
67.033356,67.43018,55,92,0
67.033356,67.43018,67,92,0
67.509544,67.62859,79,92,0
67.62859,67.74764,78,92,0
67.74764,67.861725,79,92,0
67.86669,67.94605,67,92,0
67.98573,68.0651,63,92,0
67.98573,68.0651,75,92,0
68.46193,68.58097,75,92,0
68.58097,68.70002,74,92,0
68.70002,68.81411,75,92,0
68.81907,68.89843,63,92,0
68.93812,69.01748,60,92,0
68.93812,69.01748,72,92,0
69.41431,69.533356,72,92,0
69.533356,69.652405,71,92,0
69.652405,69.76649,72,92,0
69.77145,69.88554,60,92,0
69.890495,69.969864,62,92,0
69.890495,69.969864,74,92,0
70.366684,70.48573,74,92,0
70.48573,70.60478,73,92,0
70.60478,70.718864,74,92,0
70.72383,70.83791,62,92,0
70.84287,70.92224,67,92,0
70.84287,70.92224,79,92,0
71.31907,71.43811,79,92,0
71.43811,71.55716,78,92,0
71.55716,71.67125,79,92,0
71.67621,71.7903,67,92,0
71.79526,71.87462,63,92,0
71.79526,71.87462,75,92,0
72.27145,72.390495,75,92,0
72.390495,72.509544,74,92,0
72.509544,72.62363,75,92,0
72.628586,72.742676,63,92,0
72.747635,72.827,60,92,0
72.747635,72.827,72,92,0
73.22382,73.34287,72,92,0
73.34287,73.46192,71,92,0
73.46192,73.57601,72,92,0
73.58097,73.69505,60,92,0
73.70001,73.77938,62,92,0
73.70001,73.77938,74,92,0
74.17621,74.29525,74,92,0
74.29525,74.4143,73,92,0
74.4143,74.52839,74,92,0
74.53335,74.64744,62,92,0
74.6524,74.73176,63,60,0
74.6524,74.73176,75,60,0
75.128586,75.247635,75,60,0
75.247635,75.366684,74,60,0
75.366684,75.48077,75,60,0
75.485725,75.599815,63,60,0
75.604774,75.68414,58,60,0
75.604774,75.68414,70,60,0
76.08096,76.20001,70,60,0
76.20001,76.31906,69,61,0
76.31906,76.43315,70,62,0
76.43811,76.55219,58,63,0
76.55716,76.63652,55,64,0
76.55716,76.63652,67,64,0
77.03335,77.1524,67,70,0
77.1524,77.27144,66,71,0
77.27144,77.38553,67,72,0
77.39049,77.50458,55,74,0
77.50954,77.5889,56,76,0
77.50954,77.5889,68,76,0
77.985725,78.104774,68,84,0
78.104774,78.22382,67,86,0
78.22382,78.337906,68,88,0
78.342865,78.456955,56,90,0
78.461914,78.69505,57,92,0
78.461914,78.69505,69,92,0
80.36668,80.842865,74,60,0
80.36668,80.842865,79,60,0
80.36668,80.842865,82,60,0
80.842865,81.31905,72,60,0
80.842865,81.31905,78,60,0
80.842865,81.31905,81,60,0
81.31905,81.79524,70,60,0
81.31905,81.79524,74,60,0
81.31905,81.79524,79,60,0
81.79524,82.19207,67,60,0
81.79524,82.19207,74,60,0
81.79524,82.19207,77,60,0
84.17619,84.65239,72,60,0
84.17619,84.65239,77,60,0
84.17619,84.65239,81,60,0
84.65239,85.12858,71,60,0
84.65239,85.12858,74,60,0
84.65239,85.12858,79,60,0
85.12858,85.60477,69,60,0
85.12858,85.60477,72,60,0
85.12858,85.60477,77,60,0
85.60477,86.001595,67,60,0
85.60477,86.001595,74,60,0
87.98572,88.46191,69,60,0
87.98572,88.46191,74,60,0
87.98572,88.46191,77,60,0
88.46191,88.938095,65,60,0
88.46191,88.938095,69,60,0
88.46191,88.938095,74,60,0
88.938095,89.41428,62,60,0
88.938095,89.41428,65,60,0
88.938095,89.41428,71,60,0
89.41428,89.81111,60,60,0
89.41428,89.81111,65,60,0
89.41428,89.81111,69,60,0
89.89047,90.2873,59,60,0
89.89047,90.2873,64,60,0
89.89047,90.2873,68,60,0
90.36667,90.5998,60,64,0
90.36667,90.5998,66,64,0
90.36667,90.5998,69,64,0
90.60476,90.8379,62,66,0
90.60476,90.8379,68,66,0
90.60476,90.8379,71,66,0
90.84286,91.23968,64,68,0
90.84286,91.23968,69,68,0
90.84286,91.23968,72,68,0
91.319046,91.55218,66,72,0
91.319046,91.55218,74,72,0
91.557144,91.790276,68,74,0
91.557144,91.790276,74,74,0
91.557144,91.790276,76,74,0
91.795235,92.27142,69,76,0
91.795235,92.27142,72,76,0
91.795235,92.27142,77,76,0
92.27142,92.74762,71,80,0
92.27142,92.74762,74,80,0
92.27142,92.74762,79,80,0
92.74762,93.22381,72,84,0
92.74762,93.22381,77,84,0
92.74762,93.22381,81,84,0
93.22381,93.62063,74,88,0
93.22381,93.62063,80,88,0
93.22381,93.62063,83,88,0
93.7,94.096825,76,92,0
93.7,94.096825,79,92,0
93.7,94.096825,85,92,0
94.176186,94.652374,70,92,0
94.176186,94.652374,79,92,0
94.176186,94.652374,82,92,0
94.652374,95.12856,69,82,0
94.652374,95.12856,77,82,0
94.652374,95.12856,81,82,0
95.12856,95.52539,67,71,0
95.12856,95.52539,76,71,0
95.12856,95.52539,79,71,0
95.60476,95.84285,77,60,0
95.84285,96.08095,74,60,0
96.08095,96.31904,69,60,0
96.31904,96.55218,65,60,0
96.55714,96.795235,76,60,0
96.795235,97.033325,74,60,0
97.033325,97.27142,70,60,0
97.27142,97.504555,64,60,0
97.509514,97.74761,77,60,0
97.74761,97.9857,74,60,0
97.9857,98.2238,69,60,0
98.2238,98.45693,65,60,0
98.4619,98.69999,69,60,0
98.69999,98.93809,65,60,0
98.93809,99.17618,62,60,0
99.17618,99.40932,57,60,0
99.414276,99.652374,50,60,0
99.414276,99.652374,62,60,0
99.652374,99.890465,44,60,0
99.652374,99.890465,56,60,0
99.890465,100.12856,52,60,0
99.890465,100.12856,64,60,0
100.12856,100.36665,55,60,0
100.36665,100.60475,50,60,0
100.36665,100.60475,62,60,0
100.60475,100.84285,57,60,0
100.84285,101.08094,53,60,0
100.84285,101.08094,65,60,0
101.08094,101.31408,57,60,0
101.08094,101.31408,62,60,0
101.31904,101.55713,57,60,0
101.31904,101.55713,60,60,0
101.55713,101.79523,59,60,0
101.55713,101.79523,62,60,0
101.79523,102.03332,60,60,0
101.79523,102.03332,64,60,0
102.03332,102.26646,57,60,0
102.03332,102.26646,60,60,0
102.271416,102.509514,62,60,0
102.271416,102.509514,65,60,0
102.509514,102.747604,61,60,0
102.509514,102.747604,64,60,0
102.747604,102.9857,62,60,0
102.747604,102.9857,65,60,0
102.9857,103.218834,59,60,0
102.9857,103.218834,62,60,0
103.46189,103.69999,61,60,0
103.69999,103.93808,64,60,0
103.93808,104.17122,52,60,0
104.17618,104.32995,65,60,0
104.33491,104.48868,62,65,0
104.49364,104.64741,53,70,0
104.65237,104.80614,65,75,0
104.8111,104.96487,62,80,0
104.969826,105.1236,53,86,0
105.128555,105.36665,78,92,0
105.128555,105.604744,66,92,0
105.36665,105.604744,74,92,0
105.604744,105.84284,69,92,0
105.84284,106.07597,66,92,0
106.08093,106.31903,81,92,0
106.08093,106.55713,69,92,0
106.31903,106.55713,78,92,0
106.55713,106.79522,75,92,0
106.79522,107.02836,69,92,0
107.19205,107.35078,79,92,0
107.19205,107.50951,67,92,0
107.35078,107.50951,74,92,0
107.50951,107.906334,67,92,0
108.144424,108.303154,79,92,0
108.144424,108.46188,67,92,0
108.303154,108.46188,74,92,0
108.46188,108.85871,67,92,0
109.09681,109.25554,78,92,0
109.09681,109.41427,66,92,0
109.25554,109.41427,74,92,0
109.41427,109.81109,66,92,0
110.04919,110.20792,77,92,0
110.04919,110.366646,65,92,0
110.20792,110.366646,74,92,0
110.366646,110.76347,65,92,0
111.001564,111.16029,74,92,0
111.001564,111.31902,62,92,0
111.16029,111.31902,70,92,0
111.31902,111.71585,64,92,0
111.95395,112.11268,73,79,0
111.95395,112.27141,61,79,0
112.11268,112.27141,69,76,0
112.27141,112.50454,64,72,0
112.5095,112.7476,57,66,0
112.5095,112.7476,69,66,0
112.7476,113.699974,65,60,0
112.7476,113.699974,77,60,0
113.699974,114.17616,67,60,0
113.699974,114.17616,79,60,0
114.17616,114.57299,68,60,0
114.17616,114.57299,80,60,0
114.65236,115.36664,69,60,0
114.65236,115.36664,81,60,0
115.36664,115.59978,65,60,0
115.36664,115.59978,77,60,0
115.60474,116.001564,62,60,0
115.60474,116.001564,74,60,0
116.080925,116.55711,57,60,0
116.080925,116.55711,69,60,0
116.55711,117.0333,59,60,0
116.55711,117.0333,71,60,0
117.0333,117.43013,61,60,0
117.0333,117.43013,73,60,0
117.5095,117.58886,74,60,0
117.58886,117.66823,76,60,0
117.66823,117.74759,74,60,0
117.74759,117.86664,73,60,0
117.5095,117.90632,62,60,0
117.86664,117.98569,74,60,0
117.98569,118.22378,64,60,0
117.98569,118.22378,76,60,0
118.22378,118.45692,65,60,0
118.22378,118.45692,77,60,0
118.461876,119.17616,64,60,0
118.461876,119.17616,76,60,0
119.17616,119.409294,69,64,0
119.17616,119.409294,81,64,0
119.41425,120.12854,68,65,0
119.41425,120.12854,80,65,0
120.12854,120.36168,71,69,0
120.12854,120.36168,83,69,0
120.36664,121.319016,69,70,0
120.36664,121.319016,81,70,0
121.319016,121.795204,70,76,0
121.319016,121.795204,82,76,0
121.795204,122.19203,71,79,0
121.795204,122.19203,83,79,0
122.27139,122.98568,72,82,0
122.27139,122.98568,84,82,0
122.98568,123.21882,69,87,0
122.98568,123.21882,81,87,0
123.22378,123.6206,66,88,0
123.22378,123.6206,78,88,0
123.69997,124.096794,75,92,0
123.69997,124.096794,87,92,0
124.176155,124.65234,74,92,0
124.176155,124.65234,86,92,0
124.65234,125.12853,73,92,0
124.65234,125.12853,85,92,0
125.12853,125.60473,74,92,0
125.12853,125.60473,86,92,0
125.60473,126.00155,67,92,0
125.60473,126.00155,79,92,0
126.08092,126.557106,74,92,0
126.08092,126.557106,86,92,0
126.557106,127.033295,73,92,0
126.557106,127.033295,85,92,0
127.033295,127.50948,74,92,0
127.033295,127.50948,86,92,0
127.50948,127.90631,65,92,0
127.50948,127.90631,77,92,0
127.98568,128.69997,65,92,0
127.98568,128.69997,70,92,0
127.98568,128.69997,74,92,0
127.98568,128.69997,77,92,0
128.69997,128.93309,64,92,0
128.69997,128.93309,76,92,0
128.93805,129.17615,69,92,0
128.93805,129.17615,81,92,0
129.17615,129.41425,67,84,0
129.17615,129.41425,79,84,0
129.41425,129.65234,65,76,0
129.41425,129.65234,77,76,0
129.65234,129.88548,64,68,0
128.93805,129.88548,73,92,0
129.65234,129.88548,76,68,0
129.89044,130.60472,62,60,0
129.89044,130.60472,69,60,0
129.89044,130.60472,74,60,0
130.60472,130.83786,64,60,0
130.60472,130.83786,68,60,0
130.60472,130.83786,71,60,0
130.60472,130.83786,76,60,0
130.84282,131.67615,64,60,0
130.84282,131.67615,69,60,0
130.84282,131.67615,73,60,0
130.84282,131.67615,76,60,0
131.95392,132.11266,65,60,0
132.11266,132.2714,69,61,0
132.2714,132.43011,77,62,0
132.43011,132.58885,69,63,0
132.58885,132.74261,68,64,0
132.58885,132.74261,71,64,0
132.58885,132.74261,76,64,0
132.90631,133.06503,61,66,0
133.06503,133.22377,69,67,0
133.22377,133.38249,73,68,0
133.38249,133.54123,61,69,0
133.54123,133.69499,69,71,0
133.85869,134.01741,62,75,0
134.01741,134.17615,69,75,0
134.17615,134.33487,74,75,0
134.33487,134.4936,69,75,0
134.4936,134.64737,68,75,0
134.4936,134.64737,71,75,0
134.4936,134.64737,76,75,0
134.81107,134.9698,64,75,0
134.9698,135.12852,69,75,0
135.12852,135.28726,73,75,0
135.12852,135.28726,76,75,0
135.28726,135.44598,69,75,0
135.44598,135.59976,74,75,0
135.44598,135.59976,77,75,0
135.76344,135.92218,65,75,0
135.92218,136.0809,70,75,0
136.0809,136.23964,74,75,0
136.0809,136.23964,77,75,0
136.23964,136.39836,70,75,0
136.39836,136.55214,76,75,0
136.39836,136.55214,79,75,0
136.71582,136.87456,67,75,0
136.87456,137.03328,72,75,0
137.03328,137.19202,76,75,0
137.03328,137.19202,79,75,0
137.19202,137.35074,72,75,0
137.35074,137.50452,77,75,0
137.35074,137.50452,81,75,0
137.50948,138.22375,69,75,0
137.50948,138.22375,76,75,0
137.50948,138.22375,81,75,0
138.22375,138.4569,71,75,0
138.22375,138.4569,75,75,0
138.22375,138.4569,78,75,0
138.22375,138.4569,83,75,0
138.46185,139.29518,71,75,0
138.46185,139.29518,76,75,0
138.46185,139.29518,80,75,0
138.46185,139.29518,83,75,0
139.57297,139.73169,69,75,0
139.73169,139.89043,76,75,0
139.89043,140.04915,81,75,0
140.04915,140.20789,76,75,0
140.20789,140.36165,75,75,0
140.20789,140.36165,78,75,0
140.20789,140.36165,83,75,0
140.52534,140.68408,71,75,0
140.68408,140.8428,76,75,0
140.8428,141.00154,80,75,0
140.8428,141.00154,83,75,0
141.00154,141.16026,76,75,0
141.16026,141.31404,81,75,0
141.16026,141.31404,84,75,0
141.47772,141.63646,72,76,0
141.63646,141.79518,77,77,0
141.79518,141.95392,81,78,0
141.79518,141.95392,84,78,0
141.95392,142.11264,77,79,0
142.11264,142.26642,83,80,0
142.11264,142.26642,86,80,0
142.4301,142.58884,74,82,0
142.58884,142.74756,79,84,0
142.74756,142.9063,83,86,0
142.74756,142.9063,86,86,0
142.9063,143.06503,79,88,0
143.06503,143.2188,84,90,0
143.06503,143.2188,88,90,0
143.22375,143.33784,64,92,0
143.3428,143.4569,74,92,0
143.46185,143.57594,76,92,0
143.5809,143.69499,86,92,0
143.69995,143.81403,88,92,0
143.819,143.93307,86,92,0
143.93803,144.05212,76,92,0
144.05708,144.17117,74,92,0
144.17613,144.81105,64,92,0
144.17613,144.81105,74,92,0
144.17613,144.81105,76,92,0
144.89043,144.96979,64,92,0
144.89043,144.96979,74,92,0
144.89043,144.96979,76,92,0
145.12851,145.2426,64,92,0
145.24756,145.36165,74,92,0
145.36661,145.4807,76,92,0
145.48566,145.59975,86,92,0
145.6047,145.7188,88,92,0
145.72375,145.83784,86,92,0
145.8428,145.9569,76,92,0
145.96185,146.07594,74,92,0
146.0809,146.71582,64,92,0
146.0809,146.71582,74,92,0
146.0809,146.71582,76,92,0
146.79518,146.87454,64,92,0
146.79518,146.87454,74,92,0
146.79518,146.87454,76,92,0
147.03328,147.15233,79,92,0
147.03328,147.15233,85,92,0
147.03328,147.15233,91,92,0
147.15233,147.27138,90,92,0
147.27138,147.39041,91,92,0
147.39041,147.50946,79,92,0
147.50946,147.62851,88,92,0
147.62851,147.74756,87,91,0
147.74756,147.86661,88,90,0
147.86661,147.98566,76,89,0
147.98566,148.1047,85,88,0
148.1047,148.22375,84,87,0
148.22375,148.3428,85,86,0
148.3428,148.46185,73,85,0
148.46185,148.58089,79,84,0
148.58089,148.69994,78,83,0
148.69994,148.81898,79,82,0
148.81898,148.93307,67,81,0
148.93803,149.059,76,80,0
149.059,149.17998,75,79,0
149.17998,149.30093,76,78,0
149.30093,149.4219,64,77,0
149.4219,149.54486,73,76,0
149.54486,149.6678,72,75,0
149.6678,149.79076,73,74,0
149.79076,149.91371,61,73,0
149.91371,150.03871,67,72,0
150.03871,150.16371,66,71,0
150.16371,150.28871,67,70,0
150.28871,150.41371,55,69,0
150.41371,150.54301,64,68,0
150.54301,150.67233,63,66,0
150.67233,150.80164,64,64,0
150.80164,150.92557,57,62,0
150.93095,151.05074,62,60,0
151.05595,151.17574,61,60,0
151.18095,151.30074,62,60,0
151.30595,151.42574,57,60,0
151.43095,151.55074,62,60,0
151.55595,151.67574,61,61,0
151.68095,151.80074,62,62,0
151.80595,151.92574,57,63,0
151.93095,152.05074,64,64,0
152.05595,152.17574,63,65,0
152.18095,152.30074,64,66,0
152.30595,152.42574,57,67,0
152.43095,152.55074,65,68,0
152.55595,152.67574,64,69,0
152.68095,152.80074,65,70,0
152.80595,152.92574,57,71,0
152.93095,153.05074,66,72,0
153.05595,153.17574,65,73,0
153.18095,153.30074,66,74,0
153.30595,153.42574,57,75,0
153.43095,153.55074,67,76,0
153.55595,153.67574,66,77,0
153.68095,153.80074,67,78,0
153.80595,153.92574,57,79,0
153.93095,154.05074,69,80,0
154.05595,154.17574,68,81,0
154.18095,154.30074,69,82,0
154.30595,154.42574,57,83,0
154.43095,154.55074,71,84,0
154.55595,154.67574,70,86,0
154.68095,154.80074,71,88,0
154.80595,154.92574,57,90,0
154.93095,155.05074,74,92,0
155.05595,155.17574,73,92,0
155.18095,155.30074,74,92,0
155.30595,155.42574,57,92,0
155.43095,155.55074,73,92,0
155.55595,155.67574,72,92,0
155.68095,155.80074,73,92,0
155.80595,155.92574,57,92,0
155.93095,156.05074,69,92,0
156.05595,156.17574,68,92,0
156.18095,156.30074,69,92,0
156.30595,156.42574,57,92,0
156.43095,156.55074,67,92,0
156.55595,156.67574,66,92,0
156.68095,156.80074,67,92,0
156.80595,156.92574,57,92,0
156.93095,157.05074,66,92,0
157.05595,157.17574,65,92,0
157.18095,157.30074,66,90,0
157.30595,157.42574,57,88,0
157.43095,157.55074,65,86,0
157.55595,157.67574,64,84,0
157.68095,157.80074,65,82,0
157.80595,157.92574,57,80,0
157.93095,158.05074,64,78,0
158.05595,158.17574,63,76,0
158.18095,158.30074,64,74,0
158.30595,158.42574,57,72,0
158.43095,158.55074,61,70,0
158.55595,158.67574,60,68,0
158.68095,158.80074,61,66,0
158.80595,158.92574,57,63,0
158.93095,159.05074,62,60,0
159.05595,159.17574,61,60,0
159.18095,159.30074,62,60,0
159.30595,159.42574,57,60,0
159.43095,159.55074,62,60,0
159.55595,159.67574,61,60,0
159.68095,159.80074,62,60,0
159.80595,159.92574,57,60,0
159.93095,160.05074,60,60,0
160.05595,160.17574,59,61,0
160.18095,160.30074,60,63,0
160.30595,160.42574,52,65,0
160.43095,160.55074,60,67,0
160.55595,160.67574,59,69,0
160.68095,160.80074,60,71,0
160.80595,160.92574,50,73,0
160.93095,161.05074,59,75,0
161.05595,161.17574,58,75,0
161.18095,161.30074,59,75,0
161.30595,161.42574,50,75,0
161.43095,161.55074,57,75,0
161.55595,161.67574,56,75,0
161.68095,161.80074,57,75,0
161.80595,161.92574,50,75,0
161.93095,162.05074,55,75,0
162.05595,162.17574,54,75,0
162.18095,162.30074,55,75,0
162.30595,162.42574,50,75,0
162.43095,162.55074,54,75,0
162.55595,162.67574,53,75,0
162.68095,162.80074,54,75,0
162.80595,162.92574,50,75,0
162.93095,163.05074,52,75,0
163.05595,163.17574,50,75,0
163.18095,163.30074,52,75,0
163.30595,163.42574,50,75,0
163.43095,163.55074,52,75,0
163.55595,163.67574,50,75,0
163.68095,163.80074,52,75,0
163.80595,163.92574,50,75,0
163.93095,164.05074,53,75,0
164.05595,164.17574,50,74,0
164.18095,164.30074,52,72,0
164.30595,164.42574,50,70,0
164.43095,164.55074,53,68,0
164.55595,164.67574,50,66,0
164.68095,164.80074,52,64,0
164.80595,164.92574,50,62,0
164.93095,165.05595,52,60,0
165.05595,165.18095,49,60,0
165.18095,165.30595,52,60,0
165.30595,165.43095,57,60,0
165.43095,165.55595,61,60,0
165.55595,165.68095,64,60,0
165.68095,165.80595,69,60,0
165.80595,165.93095,73,60,0
165.93095,166.05595,76,60,0
166.05595,166.18095,73,60,0
166.18095,166.30595,64,60,0
166.30595,166.43095,61,60,0
166.43095,166.55595,64,60,0
166.55595,166.68095,69,60,0
166.68095,166.80595,73,60,0
166.80595,166.92574,76,60,0
166.93095,167.93095,66,60,0
166.93095,167.93095,74,60,0
166.93095,167.93095,78,60,0
167.93095,168.43095,67,60,0
167.93095,168.43095,76,60,0
167.93095,168.43095,79,60,0
168.43095,168.93095,68,60,0
168.43095,168.93095,74,60,0
168.43095,168.93095,80,60,0
168.93095,169.34761,69,60,0
168.93095,169.34761,73,60,0
168.93095,169.34761,81,60,0
169.43095,169.93095,65,60,0
169.43095,169.93095,74,60,0
169.43095,169.93095,77,60,0
169.93095,170.43095,67,64,0
169.93095,170.43095,76,64,0
169.93095,170.43095,79,64,0
170.43095,170.84761,68,68,0
170.43095,170.84761,74,68,0
170.43095,170.84761,80,68,0
170.93095,171.34761,69,72,0
170.93095,171.34761,73,72,0
170.93095,171.34761,81,72,0
171.68095,171.92574,71,79,0
171.43095,171.92574,74,77,0
171.68095,171.92574,83,79,0
171.93095,172.34761,73,81,0
171.93095,172.34761,76,81,0
171.93095,172.34761,85,81,0
172.43095,172.84761,74,86,0
172.43095,172.84761,81,86,0
172.43095,172.84761,86,86,0
172.93095,173.43095,79,92,0
172.93095,173.43095,82,92,0
172.93095,173.43095,91,92,0
173.43095,173.93095,77,92,0
173.43095,173.93095,81,92,0
173.43095,173.93095,89,92,0
173.93095,174.43095,76,92,0
173.93095,174.43095,79,92,0
173.93095,174.43095,88,92,0
174.43095,174.84761,74,92,0
174.43095,174.84761,77,92,0
174.43095,174.84761,86,92,0
174.93095,175.34761,72,92,0
174.93095,175.34761,77,92,0
174.93095,175.34761,84,92,0
175.43095,175.51428,84,92,0
175.51428,175.59761,83,92,0
175.59761,175.68095,81,92,0
175.68095,175.80595,83,92,0
175.80595,175.92574,84,92,0
175.93095,176.43095,74,92,0
175.93095,176.43095,86,92,0
176.43095,176.84761,70,92,0
175.93095,176.84761,76,92,0
176.43095,176.84761,82,92,0
176.93095,177.34761,69,92,0
176.93095,177.34761,77,92,0
176.93095,177.34761,81,92,0
177.43095,177.93095,69,92,0
177.43095,177.93095,81,92,0
177.93095,178.43095,68,92,0
177.93095,178.43095,80,92,0
178.43095,178.84761,67,92,0
178.43095,178.84761,79,92,0
178.93095,179.43095,66,92,0
178.93095,179.43095,78,92,0
179.43095,179.93095,69,92,0
179.43095,179.93095,81,92,0
179.93095,180.68095,74,92,0
179.93095,180.68095,86,92,0
180.68095,180.92574,76,92,0
180.68095,180.92574,88,92,0
180.93095,181.34761,74,92,0
180.93095,181.34761,86,92,0
181.43095,181.93095,73,92,0
181.43095,181.93095,81,92,0
181.43095,181.93095,85,92,0
181.93095,182.43095,74,92,0
181.93095,182.43095,83,92,0
181.93095,182.43095,86,92,0
182.43095,182.93095,76,92,0
182.43095,182.93095,85,92,0
182.43095,182.93095,88,92,0
182.93095,183.43095,78,92,0
182.93095,183.43095,86,92,0
182.93095,183.43095,90,92,0
183.43095,183.93095,76,92,0
183.43095,183.93095,85,92,0
183.43095,183.93095,88,92,0
183.93095,184.43095,78,92,0
183.93095,184.43095,86,92,0
183.93095,184.43095,90,92,0
184.43095,184.84761,80,92,0
184.43095,184.84761,83,92,0
184.43095,184.84761,92,92,0
184.93095,185.34761,81,92,0
184.93095,185.34761,88,92,0
184.93095,185.34761,93,92,0
185.43095,185.93095,69,92,0
185.43095,185.93095,81,92,0
185.93095,186.43095,68,92,0
185.93095,186.43095,80,92,0
186.43095,186.93095,67,92,0
186.43095,186.93095,79,92,0
186.93095,187.34761,66,92,0
186.93095,187.34761,78,92,0
187.43095,187.93095,74,92,0
187.43095,187.93095,86,92,0
187.93095,188.43095,73,92,0
187.93095,188.43095,85,92,0
188.43095,188.84761,72,92,0
188.43095,188.84761,84,92,0
188.93095,189.34761,71,92,0
188.93095,189.34761,83,92,0
189.43095,189.93095,79,92,0
189.43095,189.93095,91,92,0
189.93095,190.43095,71,92,0
189.93095,190.43095,83,92,0
190.43095,190.84761,76,92,0
190.43095,190.84761,88,92,0
190.93095,191.34761,76,92,0
190.93095,191.34761,88,92,0
191.43095,191.84761,74,92,0
190.93095,191.84761,78,92,0
190.93095,191.84761,81,92,0
191.43095,191.84761,86,92,0
191.93095,192.34761,77,92,0
191.93095,192.34761,80,92,0
192.43095,193.34761,71,92,0
192.43095,193.34761,83,92,0
193.43095,194.30595,69,92,0
192.93095,194.30595,76,92,0
192.93095,194.30595,79,92,0
193.43095,194.30595,81,92,0
194.43095,194.67574,66,92,0
194.43095,194.67574,69,92,0
194.43095,194.67574,73,92,0
194.68095,194.92574,65,92,0
194.68095,194.92574,68,92,0
194.93095,195.17574,66,92,0
194.93095,195.17574,69,92,0
195.18095,195.42574,64,92,0
195.18095,195.42574,67,92,0
194.93095,195.42574,74,92,0
195.43095,195.67574,62,92,0
195.43095,195.67574,66,92,0
195.68095,195.92574,57,92,0
195.68095,195.92574,64,92,0
195.93095,196.18095,62,92,0
195.93095,196.18095,66,92,0
196.18095,196.43095,57,92,0
196.18095,196.43095,64,92,0
196.43095,196.68095,54,92,0
196.43095,196.68095,62,92,0
196.68095,196.92574,53,92,0
196.68095,196.92574,61,92,0
196.93095,197.18095,54,92,0
196.93095,197.18095,62,92,0
197.18095,197.42574,57,92,0
197.43095,197.68095,54,92,0
197.43095,197.68095,62,92,0
197.68095,197.93095,57,92,0
197.68095,197.93095,64,92,0
197.93095,198.18095,62,92,0
197.93095,198.18095,66,92,0
198.18095,198.42574,54,92,0
198.18095,198.42574,62,92,0
198.43095,198.68095,62,92,0
198.43095,198.68095,66,92,0
198.68095,198.93095,66,92,0
198.68095,198.93095,69,92,0
198.93095,199.18095,67,92,0
198.93095,199.18095,71,92,0
199.18095,199.42574,64,92,0
199.18095,199.42574,67,92,0
199.43095,199.51428,67,92,0
199.43095,199.51428,71,92,0
199.68095,199.76428,66,92,0
199.68095,199.76428,70,92,0
199.93095,200.18095,67,92,0
199.93095,200.18095,71,92,0
200.18095,200.42574,76,92,0
200.43095,200.51428,67,92,0
200.43095,200.51428,71,92,0
200.68095,200.76428,66,92,0
200.68095,200.76428,70,92,0
200.93095,201.18095,67,92,0
200.93095,201.18095,71,92,0
201.18095,201.42574,64,92,0
201.18095,201.42574,67,92,0
201.43095,201.51428,67,92,0
201.43095,201.51428,71,92,0
201.68095,201.76428,66,92,0
201.68095,201.76428,70,92,0
201.93095,202.18095,67,92,0
201.93095,202.18095,71,92,0
202.18095,202.42574,76,92,0
202.43095,202.68095,67,92,0
202.43095,202.68095,71,92,0
202.68095,202.93095,66,92,0
202.68095,202.93095,70,92,0
202.93095,203.18095,69,92,0
202.93095,203.18095,73,92,0
203.18095,203.43095,67,92,0
203.18095,203.43095,71,92,0
203.43095,203.68095,66,92,0
203.43095,203.68095,69,92,0
203.68095,203.92574,64,92,0
203.68095,203.92574,67,92,0
203.93095,204.18095,61,92,0
203.93095,204.18095,69,92,0
204.18095,204.43095,59,92,0
204.18095,204.43095,67,92,0
204.43095,204.68095,57,92,0
204.43095,204.68095,66,92,0
204.68095,204.92574,55,92,0
204.68095,204.92574,64,92,0
204.93095,205.18095,54,92,0
204.93095,205.18095,62,92,0
205.18095,205.43095,52,92,0
205.18095,205.43095,61,92,0
205.43095,205.68095,54,92,0
205.43095,205.68095,62,92,0
205.68095,205.92574,56,92,0
205.68095,205.92574,66,92,0
205.93095,206.18095,61,92,0
205.93095,206.18095,64,92,0
206.18095,206.42574,57,92,0
206.18095,206.42574,61,92,0
206.43095,206.68095,78,92,0
206.43095,206.68095,81,92,0
206.68095,206.93095,77,92,0
206.68095,206.93095,80,92,0
206.93095,207.18095,78,92,0
206.93095,207.18095,81,92,0
207.18095,207.43095,76,92,0
207.18095,207.43095,79,92,0
207.43095,207.68095,74,92,0
207.43095,207.68095,78,92,0
207.68095,207.92574,69,92,0
207.68095,207.92574,76,92,0
207.93095,208.18095,74,92,0
207.93095,208.18095,78,92,0
208.18095,208.43095,69,92,0
208.18095,208.43095,76,92,0
208.43095,208.68095,66,92,0
208.43095,208.68095,74,92,0
208.68095,208.92574,65,92,0
208.68095,208.92574,73,92,0
208.93095,209.18095,66,92,0
208.93095,209.18095,74,92,0
209.18095,209.42574,69,92,0
209.43095,209.68095,66,92,0
209.43095,209.68095,74,92,0
209.68095,209.93095,69,92,0
209.68095,209.93095,76,92,0
209.93095,210.18095,74,92,0
209.93095,210.18095,78,92,0
210.18095,210.42574,66,92,0
210.18095,210.42574,74,92,0
210.43095,210.68095,74,92,0
210.43095,210.68095,78,92,0
210.43095,210.68095,86,92,0
210.68095,210.93095,73,92,0
210.68095,210.93095,85,92,0
210.93095,211.18095,74,92,0
210.93095,211.18095,78,92,0
210.93095,211.18095,86,92,0
211.18095,211.43095,71,92,0
211.18095,211.43095,79,92,0
211.18095,211.43095,83,92,0
211.43095,211.68095,69,92,0
211.43095,211.68095,78,92,0
211.43095,211.68095,81,92,0
211.68095,211.92574,68,92,0
211.68095,211.92574,77,92,0
211.68095,211.92574,80,92,0
211.93095,212.18095,69,92,0
211.93095,212.18095,78,92,0
211.93095,212.18095,81,92,0
212.18095,212.43095,67,92,0
212.18095,212.43095,76,92,0
212.18095,212.43095,79,92,0
212.43095,212.68095,66,92,0
212.43095,212.68095,74,92,0
212.43095,212.68095,78,92,0
212.68095,212.92574,64,92,0
212.68095,212.92574,73,92,0
212.68095,212.92574,76,92,0
212.93095,213.18095,66,92,0
212.93095,213.18095,74,92,0
212.93095,213.18095,78,92,0
213.18095,213.42574,62,92,0
213.18095,213.42574,74,92,0
213.43095,213.68095,66,92,0
213.43095,213.68095,74,92,0
213.43095,213.68095,78,92,0
213.68095,213.93095,67,92,0
213.68095,213.93095,76,92,0
213.68095,213.93095,79,92,0
213.93095,214.18095,69,92,0
213.93095,214.18095,78,92,0
213.93095,214.18095,81,92,0
214.18095,214.42574,66,92,0
214.18095,214.42574,74,92,0
214.18095,214.42574,78,92,0
214.43095,214.51428,74,92,0
214.43095,214.51428,78,92,0
214.43095,214.51428,86,92,0
214.68095,214.76428,73,92,0
214.68095,214.76428,85,92,0
214.93095,215.18095,74,92,0
214.93095,215.18095,86,92,0
215.18095,215.42574,79,92,0
215.43095,215.51428,74,92,0
215.43095,215.51428,86,92,0
215.68095,215.76428,73,92,0
215.68095,215.76428,85,92,0
215.93095,216.18095,74,92,0
215.93095,216.18095,86,92,0
216.18095,216.42574,78,92,0
216.43095,216.51428,74,92,0
216.43095,216.51428,86,92,0
216.68095,216.76428,73,92,0
216.68095,216.76428,85,92,0
216.93095,217.18095,74,92,0
216.93095,217.18095,86,92,0
217.18095,217.42574,76,92,0
217.43095,217.67574,64,92,0
217.43095,217.67574,74,92,0
217.43095,217.67574,76,92,0
217.68095,217.92574,66,92,0
217.68095,217.92574,78,92,0
217.93095,218.18095,69,92,0
217.93095,218.18095,73,92,0
217.93095,218.18095,81,92,0
218.18095,218.43095,67,92,0
218.18095,218.43095,79,92,0
218.43095,218.68095,66,92,0
218.43095,218.68095,78,92,0
218.68095,218.92574,64,92,0
218.68095,218.92574,76,92,0
218.93095,219.34761,62,92,0
218.93095,219.34761,68,92,0
218.93095,219.34761,74,92,0
219.93095,220.68095,64,60,0
219.93095,220.68095,68,60,0
219.93095,220.68095,74,60,0
219.93095,220.68095,76,60,0
220.68095,220.92574,66,60,0
220.68095,220.92574,78,60,0
220.93095,221.43095,66,60,0
220.93095,221.43095,78,60,0
221.43095,221.84761,64,60,0
220.93095,221.84761,68,60,0
220.93095,221.84761,74,60,0
221.43095,221.84761,76,60,0
221.93095,222.68095,64,60,0
221.93095,222.68095,68,60,0
221.93095,222.68095,74,60,0
221.93095,222.68095,76,60,0
222.68095,222.92574,66,60,0
222.68095,222.92574,78,60,0
222.93095,223.43095,66,60,0
222.93095,223.43095,78,60,0
223.43095,223.84761,64,62,0
222.93095,223.84761,69,60,0
223.43095,223.84761,76,62,0
223.93095,224.68095,64,64,0
223.93095,224.68095,69,64,0
223.93095,224.68095,76,64,0
224.68095,224.92574,67,68,0
224.68095,224.92574,79,68,0
224.93095,225.43095,67,69,0
224.93095,225.43095,79,69,0
225.43095,225.84761,66,71,0
224.93095,225.84761,72,69,0
225.43095,225.84761,78,71,0
225.93095,226.68095,66,74,0
225.93095,226.68095,72,74,0
225.93095,226.68095,78,74,0
226.68095,226.92574,69,78,0
226.68095,226.92574,81,78,0
226.93095,227.43095,69,79,0
226.93095,227.43095,81,79,0
227.43095,227.84761,67,82,0
226.93095,227.84761,73,79,0
227.43095,227.84761,79,82,0
227.93095,228.43095,69,85,0
227.93095,228.43095,74,85,0
227.93095,228.43095,81,85,0
228.43095,228.84761,70,88,0
228.43095,228.84761,82,88,0
228.93095,229.43095,83,92,0
228.93095,229.84761,71,92,0
228.93095,229.84761,74,92,0
229.43095,229.84761,79,92,0
229.93095,230.43095,69,92,0
229.93095,230.43095,72,92,0
229.93095,230.43095,75,92,0
229.93095,230.43095,78,92,0
230.43095,230.84761,67,92,0
230.43095,230.84761,71,92,0
230.43095,230.84761,76,92,0
230.93095,231.43095,65,92,0
230.93095,231.43095,68,92,0
230.93095,231.43095,76,92,0
231.43095,231.67574,66,84,0
231.43095,231.67574,69,84,0
231.43095,231.67574,74,84,0
231.93095,232.43095,63,76,0
231.93095,232.43095,66,76,0
231.93095,232.43095,74,76,0
232.43095,232.67574,64,68,0
232.43095,232.67574,67,68,0
232.43095,232.67574,73,68,0
232.93095,233.34761,64,60,0
232.93095,233.34761,68,60,0
232.93095,233.34761,74,60,0
233.43095,233.59761,86,60,0
233.59761,233.76428,85,60,0
233.76428,233.93095,88,60,0
233.93095,234.09761,86,60,0
234.09761,234.26428,80,60,0
234.26428,234.43095,76,60,0
234.43095,234.59761,74,60,0
234.59761,234.76428,68,60,0
234.76428,234.92574,64,60,0
235.43095,235.59761,86,60,0
235.59761,235.76428,85,60,0
235.76428,235.93095,88,60,0
235.93095,236.09761,86,60,0
236.09761,236.26428,80,60,0
236.26428,236.43095,76,60,0
236.43095,236.59761,74,60,0
236.59761,236.76428,68,60,0
236.76428,236.92574,64,60,0
237.43095,237.59761,88,60,0
237.59761,237.76428,87,60,0
237.76428,237.93095,90,61,0
237.93095,238.09761,88,61,0
238.09761,238.26428,81,62,0
238.26428,238.43095,79,63,0
238.43095,238.59761,76,64,0
238.59761,238.76428,69,65,0
238.76428,238.92574,67,66,0
239.43095,239.59761,90,70,0
239.59761,239.76428,89,71,0
239.76428,239.93095,91,72,0
239.93095,240.09761,90,73,0
240.09761,240.26428,84,74,0
240.26428,240.43095,81,75,0
240.43095,240.59761,78,76,0
240.59761,240.76428,72,77,0
240.76428,240.92574,69,78,0
241.43095,241.59761,91,82,0
241.59761,241.76428,85,83,0
241.76428,241.93095,79,84,0
241.93095,242.09761,93,85,0
242.09761,242.26428,86,86,0
242.26428,242.43095,81,87,0
242.43095,242.59761,94,88,0
242.59761,242.76428,86,89,0
242.76428,242.92574,82,90,0
242.93095,243.09761,95,92,0
243.09761,243.26428,86,92,0
243.26428,243.43095,83,92,0
243.43095,243.59761,91,92,0
243.59761,243.76428,83,89,0
243.76428,243.93095,79,86,0
243.93095,244.09761,90,83,0
244.09761,244.26428,81,80,0
244.26428,244.43095,78,76,0
244.43095,244.59761,88,72,0
244.59761,244.76428,79,68,0
244.76428,244.92574,76,64,0
244.93095,245.09761,88,60,0
245.09761,245.26428,80,60,0
245.26428,245.43095,77,60,0
245.43095,245.59761,86,60,0
245.59761,245.76428,81,60,0
245.76428,245.92574,78,60,0
245.93095,246.09761,86,60,0
246.09761,246.26428,78,60,0
246.26428,246.43095,75,60,0
246.43095,246.59761,85,60,0
246.59761,246.76428,79,60,0
246.76428,246.92574,76,60,0
246.93095,247.09761,84,60,0
247.09761,247.26428,81,65,0
247.26428,247.43095,78,70,0
247.43095,247.59761,75,75,0
247.59761,247.76428,72,80,0
247.76428,247.93095,69,86,0
247.93095,248.09761,66,92,0
248.09761,248.26428,63,92,0
248.26428,248.43095,60,86,0
248.43095,248.59761,63,80,0
248.59761,248.76428,66,74,0
248.76428,248.92574,69,67,0
248.93095,249.09761,72,60,0
249.09761,249.26428,66,60,0
249.26428,249.43095,63,60,0
249.43095,249.59761,59,60,0
249.59761,249.76428,64,60,0
249.76428,249.93095,67,60,0
249.93095,250.09761,71,60,0
250.09761,250.26428,67,60,0
250.26428,250.43095,64,60,0
250.43095,250.59761,58,60,0
250.59761,250.76428,62,60,0
250.76428,250.92574,65,60,0
250.93095,251.09761,70,60,0
251.09761,251.26428,65,60,0
251.26428,251.43095,62,60,0
251.43095,251.59761,57,60,0
251.59761,251.76428,62,60,0
251.76428,251.93095,66,60,0
251.93095,252.09761,69,60,0
252.09761,252.26428,63,60,0
252.26428,252.43095,60,60,0
252.43095,252.59761,64,60,0
252.59761,252.76428,61,60,0
252.76428,252.92574,55,60,0
252.93095,253.43095,54,60,0
252.93095,253.43095,62,60,0
253.43095,253.93095,71,75,0
253.93095,254.43095,68,75,0
254.43095,256.80594,69,60,0
256.93094,257.43094,62,60,0
257.43094,257.93094,70,75,0
257.93094,258.43094,68,75,0
258.43094,260.80594,69,60,0
260.93094,261.43094,62,60,0
261.43094,261.93094,72,60,0
261.93094,262.43094,69,60,0
262.43094,264.80594,70,60,0
264.93094,265.43094,69,100,0
265.43094,266.80594,70,74,0
266.93094,267.43094,69,81,0
267.43094,268.80594,70,83,0
268.93094,269.43094,70,92,0
269.43094,270.80594,69,75,0
270.93094,271.43094,68,75,0
271.43094,272.43094,69,74,0
272.43094,273.43094,67,70,0
273.43094,274.43094,66,66,0
274.43094,274.84763,64,62,0
274.93094,275.34763,54,60,0
274.93094,275.34763,62,60,0
276.93094,277.09763,66,60,0
277.09763,277.26428,78,63,0
277.26428,277.43094,74,66,0
277.43094,277.59763,64,69,0
277.59763,277.76428,76,72,0
277.76428,277.93094,73,76,0
277.93094,278.09763,67,80,0
278.09763,278.26428,79,84,0
278.26428,278.43094,73,88,0
278.43094,278.59763,66,92,0
278.59763,278.76428,78,75,0
278.76428,278.92575,74,60,0
280.93094,281.09763,65,60,0
281.09763,281.26428,77,63,0
281.26428,281.43094,74,66,0
281.43094,281.59763,64,69,0
281.59763,281.76428,76,72,0
281.76428,281.93094,73,76,0
281.93094,282.09763,67,80,0
282.09763,282.26428,79,84,0
282.26428,282.43094,73,88,0
282.43094,282.59763,65,92,0
282.59763,282.76428,77,75,0
282.76428,282.92575,74,60,0
284.93094,285.09763,67,60,0
285.09763,285.26428,79,63,0
285.26428,285.43094,75,66,0
285.43094,285.59763,65,69,0
285.59763,285.76428,77,72,0
285.76428,285.93094,74,76,0
285.93094,286.09763,68,80,0
286.09763,286.26428,80,84,0
286.26428,286.43094,74,88,0
286.43094,286.59763,67,92,0
286.59763,286.76428,79,75,0
286.76428,286.92575,75,60,0
287.93094,288.09763,68,92,0
288.09763,288.26428,80,92,0
288.26428,288.43094,77,84,0
288.43094,288.59763,67,76,0
288.59763,288.76428,79,68,0
288.76428,288.92575,75,60,0
289.93094,290.09763,68,92,0
290.09763,290.26428,80,92,0
290.26428,290.43094,77,84,0
290.43094,290.59763,67,76,0
290.59763,290.76428,79,68,0
290.76428,290.92575,76,60,0
291.93094,292.09763,67,92,0
292.09763,292.26428,79,92,0
292.26428,292.43094,76,84,0
292.43094,292.59763,66,76,0
292.59763,292.76428,78,68,0
292.76428,292.92575,75,60,0
293.93094,294.09763,66,60,0
294.09763,294.26428,78,61,0
294.26428,294.43094,75,62,0
294.43094,294.59763,65,63,0
294.59763,294.76428,77,64,0
294.76428,294.92575,74,65,0
295.43094,295.59763,65,69,0
295.59763,295.76428,77,70,0
295.76428,295.92575,74,71,0
296.43094,296.59763,65,75,0
296.59763,296.76428,77,76,0
296.76428,296.92575,74,77,0
297.43094,297.59763,65,81,0
297.59763,297.76428,77,82,0
297.76428,297.92575,74,83,0
297.93094,298.09763,70,84,0
298.09763,298.26428,82,85,0
298.26428,298.42575,76,86,0
298.43094,298.59763,64,87,0
298.59763,298.76428,76,88,0
298.76428,298.92575,70,90,0
298.93094,299.09763,81,92,0
299.09763,299.26428,74,92,0
299.26428,299.42575,69,92,0
299.43094,299.59763,74,92,0
299.59763,299.76428,70,92,0
299.76428,299.92575,62,92,0
299.93094,300.09763,79,92,0
300.09763,300.26428,71,92,0
300.26428,300.42575,67,92,0
300.43094,300.59763,74,92,0
300.59763,300.76428,71,92,0
300.76428,300.92575,62,92,0
300.93094,301.09763,83,92,0
301.09763,301.26428,74,92,0
301.26428,301.43094,71,92,0
301.43094,301.59763,74,92,0
301.59763,301.76428,71,92,0
301.76428,301.92575,64,92,0
301.93094,302.09763,76,92,0
302.09763,302.26428,74,92,0
302.26428,302.43094,71,92,0
302.43094,302.59763,74,92,0
302.59763,302.76428,71,92,0
302.76428,302.92575,64,92,0
303.18094,303.35803,74,92,0
303.18094,303.35803,78,92,0
303.43094,303.60803,78,92,0
303.43094,303.60803,81,92,0
303.68094,303.76428,74,92,0
303.68094,303.76428,78,92,0
303.93094,304.10803,69,92,0
303.93094,304.10803,74,92,0
304.18094,304.35803,66,92,0
304.18094,304.35803,69,92,0
304.43094,304.60803,62,92,0
304.43094,304.60803,66,92,0
304.68094,304.76428,62,92,0
304.68094,304.76428,67,92,0
304.93094,305.43094,62,92,0
304.93094,305.43094,66,92,0
304.93094,305.43094,69,92,0
305.43094,305.84763,65,92,0
305.43094,305.84763,68,92,0
305.93094,306.80594,64,75,0
305.93094,306.80594,67,75,0
307.18518,307.36526,62,60,0
307.18518,307.36526,66,60,0
307.43942,307.6195,66,60,0
307.43942,307.6195,69,60,0
307.69366,307.7784,62,60,0
307.69366,307.7784,65,60,0
307.9479,308.83774,57,60,0
307.9479,308.83774,64,60,0
309.22348,309.40665,62,60,0
309.22348,309.40665,66,60,0
309.4821,309.66528,66,60,0
309.4821,309.66528,69,60,0
309.74072,309.8269,54,60,0
309.74072,309.8269,62,60,0
309.99933,310.9045,55,60,0
309.99933,310.9045,61,60,0
311.30167,311.4914,62,60,0
311.30167,311.4914,66,60,0
311.56952,311.75925,66,60,0
311.56952,311.75925,69,60,0
311.83737,311.92667,54,60,0
311.83737,311.92667,62,60,0
312.10522,313.04272,55,60,0
312.10522,313.04272,61,60,0
313.17667,313.63123,54,60,0
313.17667,313.63123,62,60,0
316.0007,316.47687,74,60,0
316.47687,316.95306,70,75,0
316.47687,316.95306,82,75,0
316.95306,317.42926,66,92,0
316.95306,317.42926,78,92,0
317.42926,317.82608,67,60,0
317.42926,317.82608,79,60,0
317.90546,318.38165,65,92,0
317.90546,318.38165,77,92,0
318.38165,318.85782,72,92,0
318.85782,319.334,63,75,0
318.85782,319.334,75,75,0
319.334,319.73083,62,60,0
319.334,319.73083,74,60,0
319.8102,320.2864,60,60,0
319.8102,320.2864,72,60,0
320.2864,320.7626,67,60,0
320.7626,321.23877,58,60,0
320.7626,321.23877,70,60,0
321.23877,321.63562,57,60,0
321.23877,321.63562,69,60,0
321.71497,322.19116,62,60,0
321.71497,322.19116,66,60,0
322.19116,323.14355,61,60,0
322.19116,323.14355,64,60,0
323.14355,323.54037,62,60,0
324.09592,324.5721,57,60,0
324.09592,324.5721,62,60,0
324.09592,324.5721,65,60,0
324.5721,325.0483,55,60,0
324.5721,325.0483,58,60,0
324.5721,325.0483,61,60,0
325.0483,325.44513,53,60,0
325.0483,325.44513,57,60,0
325.0483,325.44513,62,60,0
326.00067,326.95306,55,84,0
326.00067,326.95306,60,84,0
326.00067,326.95306,67,84,0
326.95306,327.34988,57,60,0
326.95306,327.34988,65,60,0
327.90543,328.85782,60,84,0
327.90543,328.85782,65,84,0
327.90543,328.85782,72,84,0
328.85782,329.25464,62,75,0
328.85782,329.25464,70,75,0
329.8102,330.28638,62,92,0
329.8102,330.28638,67,92,0
329.8102,330.28638,74,92,0
330.28638,330.76257,60,75,0
330.76257,331.1594,58,75,0
330.76257,331.1594,63,75,0
330.28638,331.1594,67,75,0
331.23877,331.6356,57,75,0
331.23877,331.6356,62,75,0
331.23877,331.6356,66,75,0
331.71497,332.1118,58,72,0
331.71497,332.1118,67,72,0
331.71497,332.58798,55,72,0
332.19116,332.58798,57,68,0
332.19116,332.58798,63,68,0
332.66733,333.14352,54,64,0
332.66733,333.14352,57,64,0
332.66733,333.14352,62,64,0
333.14352,333.54034,55,60,0
333.14352,333.54034,58,60,0
335.04828,336.00067,67,84,0
335.04828,336.00067,75,84,0
336.00067,336.3975,68,60,0
336.00067,336.3975,74,60,0
336.95306,337.90543,68,84,0
336.95306,337.90543,71,84,0
336.95306,337.90543,74,84,0
336.95306,337.90543,77,84,0
336.95306,337.90543,80,84,0
337.90543,338.30225,67,60,0
337.90543,338.30225,70,60,0
337.90543,338.30225,76,60,0
337.90543,338.30225,79,60,0
338.85782,339.09592,70,60,0
338.85782,339.09592,79,60,0
339.09592,339.32904,68,60,0
339.09592,339.32904,77,60,0
339.334,339.57208,68,60,0
339.334,339.57208,77,60,0
339.57208,339.80524,67,60,0
339.57208,339.80524,75,60,0
339.81018,340.04333,68,60,0
340.04828,340.28143,67,60,0
339.81018,340.28143,74,60,0
340.28638,340.52448,67,60,0
340.52448,340.7576,65,60,0
340.76257,341.00067,68,60,0
340.76257,341.00067,77,60,0
341.00067,341.2338,67,60,0
341.00067,341.2338,75,60,0
341.23877,341.47687,67,60,0
341.23877,341.47687,75,60,0
341.47687,341.71,65,60,0
341.47687,341.71,74,60,0
341.71497,341.95303,68,60,0
341.95303,342.1862,67,60,0
341.71497,342.1862,74,60,0
342.19113,342.42923,67,60,0
342.42923,342.66238,65,60,0
342.66733,342.90543,72,60,0
342.66733,342.90543,75,60,0
342.90543,343.13855,70,60,0
342.90543,343.13855,74,60,0
343.14352,343.38162,70,60,0
343.14352,343.38162,74,60,0
343.38162,343.61475,69,60,0
343.38162,343.61475,72,60,0
343.61972,343.85782,69,60,0
343.85782,344.09094,67,60,0
343.61972,344.09094,72,60,0
344.0959,344.33398,67,60,0
344.33398,344.56714,66,60,0
344.57208,344.81018,72,60,0
344.57208,344.81018,75,60,0
344.81018,345.04333,70,60,0
344.81018,345.04333,74,60,0
345.04828,345.28638,70,60,0
345.04828,345.28638,74,60,0
345.28638,345.5195,69,60,0
345.28638,345.5195,72,60,0
345.52448,345.76257,69,60,0
345.76257,345.9957,67,60,0
345.52448,345.9957,72,60,0
346.00067,346.23877,67,60,0
346.23877,346.4719,66,60,0
346.47684,346.71494,72,60,0
346.71494,346.9481,67,60,0
346.95303,347.19113,67,60,0
347.19113,347.4243,63,60,0
347.42923,347.66733,63,60,0
347.66733,347.90045,60,60,0
347.90543,348.14352,60,60,0
348.14352,348.37665,55,60,0
348.38162,348.8578,55,60,0
348.8578,349.69113,56,60,0
354.0959,355.8816,60,75,0
354.0959,355.8816,63,75,0
354.0959,355.8816,66,75,0
354.0959,355.8816,69,75,0
356.00064,356.1197,87,92,0
356.1197,356.23874,86,92,0
356.23874,356.3578,87,92,0
356.3578,356.47684,75,92,0
356.47684,356.5959,84,92,0
356.5959,356.71494,83,92,0
356.71494,356.83398,84,92,0
356.83398,356.95303,72,92,0
356.95303,357.07208,81,92,0
357.07208,357.19113,80,92,0
357.19113,357.31018,81,92,0
357.31018,357.42923,69,92,0
357.42923,357.54828,78,92,0
357.54828,357.66733,77,92,0
357.66733,357.78638,78,92,0
357.78638,357.90543,66,92,0
357.90543,358.02835,75,92,0
358.02835,358.1513,74,90,0
358.1513,358.27426,75,88,0
358.27426,358.39722,63,86,0
358.39722,358.52017,72,84,0
358.52017,358.64313,71,82,0
358.64313,358.76605,72,80,0
358.76605,358.889,60,78,0
358.889,359.014,69,76,0
359.014,359.139,68,74,0
359.139,359.264,69,72,0
359.264,359.389,57,70,0
359.389,359.51614,66,68,0
359.51614,359.64325,65,66,0
359.64325,359.7704,66,64,0
359.7704,359.89218,54,62,0
359.8975,361.6832,55,60,0
359.8975,361.6832,67,60,0
361.80225,363.58795,62,75,0
361.80225,363.58795,68,75,0
361.80225,363.58795,71,75,0
363.707,363.82605,92,92,0
363.82605,363.9451,91,92,0
363.9451,364.06415,92,92,0
364.06415,364.1832,80,92,0
364.1832,364.30225,86,92,0
364.30225,364.4213,85,92,0
364.4213,364.54034,86,92,0
364.54034,364.6594,74,92,0
364.6594,364.77844,83,92,0
364.77844,364.8975,82,92,0
364.8975,365.01654,83,92,0
365.01654,365.1356,71,92,0
365.1356,365.25464,80,92,0
365.25464,365.3737,79,92,0
365.3737,365.49274,80,92,0
365.49274,365.6118,68,92,0
365.6118,365.7347,74,92,0
365.7347,365.85767,73,90,0
365.85767,365.98062,74,88,0
365.98062,366.10358,62,86,0
366.10358,366.22653,71,84,0
366.22653,366.3495,70,82,0
366.3495,366.4724,71,80,0
366.4724,366.59537,59,78,0
366.59537,366.7225,68,76,0
366.7225,366.8496,67,74,0
366.8496,366.97675,68,72,0
366.97675,367.10385,56,70,0
367.10385,367.23544,62,68,0
367.23544,367.367,61,66,0
367.367,367.4986,62,64,0
367.4986,367.6247,50,62,0
367.63016,368.06876,61,60,0
368.1565,368.5533,69,92,0
368.1565,368.5533,76,92,0
368.1565,368.5533,81,92,0
368.63266,369.0295,63,92,0
368.63266,369.0295,75,92,0
369.10886,369.50568,64,92,0
369.10886,369.50568,69,92,0
369.10886,369.50568,76,92,0
370.06125,370.45807,66,92,0
370.06125,370.45807,69,92,0
370.06125,370.45807,75,92,0
370.06125,370.45807,78,92,0
370.53745,370.93427,57,92,0
370.53745,370.93427,69,92,0
371.0136,371.41043,56,92,0
371.0136,371.41043,64,92,0
371.0136,371.41043,68,92,0
371.966,372.36282,67,92,0
371.966,372.36282,74,92,0
371.966,372.36282,79,92,0
372.4422,372.83902,61,92,0
372.4422,372.83902,73,92,0
372.9184,373.31522,62,92,0
372.9184,373.31522,67,92,0
372.9184,373.31522,74,92,0
373.87076,374.26758,64,92,0
373.87076,374.26758,67,92,0
373.87076,374.26758,73,92,0
373.87076,374.26758,76,92,0
374.34695,374.74377,55,92,0
374.34695,374.74377,67,92,0
374.82315,375.21997,54,92,0
374.82315,375.21997,62,92,0
374.82315,375.21997,66,92,0
375.7755,376.17233,65,92,0
375.7755,376.17233,69,92,0
375.7755,376.17233,77,92,0
376.2517,376.64853,64,86,0
376.2517,376.64853,68,86,0
376.2517,376.64853,71,86,0
377.68027,378.07712,65,67,0
377.68027,378.07712,69,67,0
377.68027,378.07712,77,67,0
378.15646,378.55328,64,60,0
378.15646,378.55328,68,60,0
378.15646,378.55328,71,60,0
379.58505,379.98187,69,92,0
379.58505,379.98187,77,92,0
379.58505,379.98187,81,92,0
381.0136,381.41043,59,92,0
381.0136,381.41043,62,92,0
381.0136,381.41043,68,92,0
381.4898,381.60886,74,92,0
381.60886,381.7279,73,90,0
381.7279,381.84695,74,88,0
381.84695,381.966,71,86,0
381.966,382.08505,68,84,0
382.08505,382.20407,67,81,0
382.20407,382.32312,68,78,0
382.32312,382.44217,65,75,0
382.44217,382.56122,62,72,0
382.56122,382.68027,61,69,0
382.68027,382.79932,62,66,0
382.79932,382.91342,59,63,0
382.91837,383.15152,57,60,0
383.39456,383.5136,76,60,0
383.5136,383.63266,75,60,0
383.63266,383.7517,76,60,0
383.7517,383.87076,72,60,0
383.87076,383.9898,74,60,0
383.9898,384.10886,73,60,0
384.10886,384.2279,74,60,0
384.2279,384.34695,71,60,0
384.34695,384.466,72,60,0
384.466,384.58502,71,60,0
384.58502,384.70407,72,60,0
384.70407,384.81818,69,60,0
384.82312,384.94217,76,60,0
384.94217,385.06122,75,60,0
385.06122,385.18027,76,60,0
385.18027,385.29932,72,60,0
385.29932,385.41837,76,60,0
385.41837,385.5374,75,60,0
385.5374,385.65646,76,60,0
385.65646,385.7755,72,60,0
385.7755,385.89456,74,60,0
385.89456,386.0136,73,60,0
386.0136,386.13266,74,60,0
386.13266,386.2517,71,60,0
386.2517,386.37076,72,60,0
386.37076,386.4898,71,60,0
386.4898,386.60886,72,60,0
386.60886,386.72293,69,60,0
386.7279,386.84692,74,60,0
386.84692,386.96597,73,60,0
386.96597,387.08502,74,60,0
387.08502,387.20407,71,60,0
387.20407,387.32312,79,60,0
387.32312,387.44217,78,60,0
387.44217,387.56122,79,60,0
387.56122,387.68027,71,60,0
387.68027,387.79932,79,60,0
387.79932,387.91837,78,60,0
387.91837,388.0374,79,60,0
388.0374,388.15646,71,60,0
388.15646,388.2755,79,60,0
388.2755,388.39456,78,60,0
388.39456,388.5136,79,60,0
388.5136,388.6277,72,60,0
388.63266,388.7517,74,60,0
388.7517,388.87076,73,60,0
388.87076,388.9898,74,60,0
388.9898,389.10886,71,60,0
389.10886,389.22787,79,60,0
389.22787,389.34692,78,60,0
389.34692,389.46597,79,60,0
389.46597,389.58502,71,60,0
389.58502,389.70407,79,60,0
389.70407,389.82312,78,60,0
389.82312,389.94217,79,60,0
389.94217,390.06122,71,60,0
390.06122,390.18027,79,60,0
390.18027,390.29932,78,60,0
390.29932,390.41837,79,60,0
390.41837,390.53244,72,60,0
390.5374,390.65646,78,60,0
390.65646,390.7755,77,60,0
390.7755,390.89456,78,60,0
390.89456,391.0136,74,60,0
391.0136,391.13266,81,60,0
391.13266,391.2517,80,60,0
391.2517,391.37076,81,60,0
391.37076,391.48978,74,60,0
391.48978,391.60883,81,60,0
391.60883,391.72787,80,60,0
391.72787,391.84692,81,60,0
391.84692,391.96597,74,60,0
391.96597,392.08502,79,60,0
392.08502,392.20407,78,60,0
392.20407,392.32312,79,60,0
392.32312,392.43723,74,60,0
392.44217,392.56122,78,60,0
392.56122,392.68027,77,60,0
392.68027,392.79932,78,60,0
392.79932,392.91837,74,60,0
392.91837,393.0374,81,60,0
393.0374,393.15646,80,60,0
393.15646,393.2755,81,60,0
393.2755,393.39456,72,60,0
393.39456,393.5136,81,60,0
393.5136,393.63266,80,60,0
393.63266,393.75168,81,60,0
393.75168,393.87073,72,60,0
393.87073,393.98978,81,60,0
393.98978,394.10883,80,60,0
394.10883,394.22787,81,60,0
394.22787,394.34198,71,60,0
394.34692,394.46597,80,60,0
394.46597,394.58502,79,60,0
394.58502,394.70407,80,60,0
394.70407,394.82312,71,60,0
394.82312,394.94217,83,60,0
394.94217,395.06122,82,60,0
395.06122,395.18027,83,60,0
395.18027,395.29932,71,60,0
395.29932,395.41837,83,60,0
395.41837,395.5374,82,60,0
395.5374,395.65646,83,60,0
395.65646,395.7755,71,60,0
395.7755,395.89456,88,60,0
395.89456,396.0136,87,60,0
396.0136,396.13263,88,60,0
396.13263,396.24673,76,60,0
396.25168,396.37073,80,60,0
396.37073,396.48978,79,60,0
396.48978,396.60883,80,60,0
396.60883,396.72787,68,60,0
396.72787,396.84692,83,60,0
396.84692,396.96597,82,60,0
396.96597,397.08502,83,60,0
397.08502,397.20407,71,60,0
397.20407,397.32312,83,60,0
397.32312,397.44217,82,60,0
397.44217,397.56122,83,60,0
397.56122,397.68027,71,60,0
397.68027,397.79932,88,60,0
397.79932,397.91837,87,60,0
397.91837,398.0374,88,60,0
398.0374,398.1515,76,60,0
398.15646,398.3152,88,60,0
398.3152,398.4739,87,60,0
398.4739,398.63263,88,60,0
398.63263,398.79138,76,60,0
398.79138,398.9501,88,60,0
398.9501,399.10883,76,60,0
399.10883,399.26755,88,60,0
399.26755,399.4263,76,60,0
399.4263,399.58502,88,60,0
399.58502,399.74374,76,60,0
399.74374,399.90247,88,60,0
399.90247,400.05624,76,60,0
402.91837,403.39453,64,45,0
402.91837,403.39453,76,45,0
403.39453,403.87073,72,45,0
403.39453,403.87073,84,45,0
403.87073,404.34692,68,45,0
403.87073,404.34692,80,45,0
404.34692,404.74374,69,45,0
404.34692,404.74374,81,45,0
404.82312,405.2993,77,45,0
404.82312,405.2993,89,45,0
405.2993,405.69614,76,45,0
405.2993,405.69614,88,45,0
405.77548,406.72787,75,45,0
405.77548,406.72787,87,45,0
406.72787,407.1247,76,60,0
406.72787,407.1247,88,60,0
410.53738,410.9342,57,60,0
410.53738,410.9342,64,60,0
410.53738,410.9342,69,60,0
411.01358,411.4104,69,60,0
411.01358,411.4104,77,60,0
411.01358,411.4104,81,60,0
411.48978,411.8866,64,62,0
411.48978,411.8866,70,62,0
411.48978,411.8866,76,62,0
411.96597,412.3628,65,64,0
411.96597,412.3628,70,64,0
411.96597,412.3628,77,64,0
412.44214,412.839,58,66,0
412.44214,412.839,65,66,0
412.44214,412.839,70,66,0
412.91833,413.31516,70,68,0
412.91833,413.31516,78,68,0
412.91833,413.31516,82,68,0
413.39453,413.79135,65,70,0
413.39453,413.79135,71,70,0
413.39453,413.79135,77,70,0
413.87073,414.26755,66,72,0
413.87073,414.26755,71,72,0
413.87073,414.26755,78,72,0
414.34692,414.74374,59,74,0
414.34692,414.74374,66,74,0
414.34692,414.74374,71,74,0
414.8231,415.21994,71,77,0
414.8231,415.21994,79,77,0
414.8231,415.21994,83,77,0
415.2993,415.70914,66,80,0
415.2993,415.70914,71,80,0
415.2993,415.70914,78,80,0
415.7911,416.20093,67,83,0
415.7911,416.20093,71,83,0
415.7911,416.20093,79,83,0
416.2829,416.70663,59,86,0
416.2829,416.70663,66,86,0
416.2829,416.70663,71,86,0
416.79138,417.2224,71,89,0
416.79138,417.2224,79,89,0
416.79138,417.2224,83,89,0
417.30862,417.72528,66,92,0
417.30862,417.72528,71,92,0
417.30862,417.72528,78,92,0
417.80862,418.22528,67,92,0
417.80862,418.22528,71,92,0
417.80862,418.22528,79,92,0
418.80862,419.22528,66,92,0
418.80862,419.22528,78,92,0
419.30862,419.72528,67,92,0
419.30862,419.72528,76,92,0
419.30862,419.72528,79,92,0
420.80862,421.22528,52,77,0
420.80862,421.22528,55,77,0
420.80862,421.22528,64,77,0
421.30862,422.18362,55,72,0
421.30862,422.18362,64,72,0
421.30862,422.18362,67,72,0
422.30862,422.43362,71,60,0
422.43362,422.55862,59,60,0
422.55862,422.68362,71,60,0
422.68362,422.80862,59,60,0
422.80862,422.93362,81,60,0
422.93362,423.05862,69,60,0
423.05862,423.18362,81,60,0
423.18362,423.30862,69,60,0
423.30862,423.43362,75,60,0
423.43362,423.55862,63,60,0
423.55862,423.68362,75,60,0
423.68362,423.80862,63,60,0
423.80862,423.93362,78,60,0
423.93362,424.05862,66,60,0
424.05862,424.18362,78,60,0
424.18362,424.3034,66,60,0
424.30862,424.43362,71,60,0
424.43362,424.55862,59,60,0
424.55862,424.68362,71,60,0
424.68362,424.80862,59,60,0
424.80862,424.93362,83,60,0
424.93362,425.05862,71,60,0
425.05862,425.18362,83,60,0
425.18362,425.30862,71,60,0
425.30862,425.43362,76,60,0
425.43362,425.55862,64,60,0
425.55862,425.68362,76,60,0
425.68362,425.80862,64,60,0
425.80862,425.93362,79,60,0
425.93362,426.05862,67,60,0
426.05862,426.18362,79,60,0
426.18362,426.3034,67,60,0
426.30862,426.43362,72,60,0
426.43362,426.55862,60,60,0
426.55862,426.68362,72,60,0
426.68362,426.80862,60,60,0
426.80862,426.93362,84,60,0
426.93362,427.05862,72,60,0
427.05862,427.18362,84,60,0
427.18362,427.30862,72,60,0
427.30862,427.43362,76,60,0
427.43362,427.55862,64,60,0
427.55862,427.68362,76,60,0
427.68362,427.80862,64,60,0
427.80862,427.93362,79,60,0
427.93362,428.05862,67,60,0
428.05862,428.18362,79,60,0
428.18362,428.3034,67,60,0
428.30862,428.43362,73,60,0
428.43362,428.55862,61,60,0
428.55862,428.68362,73,60,0
428.68362,428.80862,61,60,0
428.80862,428.93362,85,60,0
428.93362,429.05862,73,60,0
429.05862,429.18362,85,60,0
429.18362,429.30862,73,60,0
429.30862,429.43362,76,60,0
429.43362,429.55862,64,60,0
429.55862,429.68362,76,60,0
429.68362,429.80862,64,60,0
429.80862,429.93362,79,60,0
429.93362,430.05862,67,60,0
430.05862,430.18362,79,60,0
430.18362,430.3034,67,60,0
430.30862,430.43362,73,60,0
430.43362,430.55862,61,60,0
430.55862,430.68362,73,60,0
430.68362,430.80862,61,60,0
430.80862,430.93362,85,60,0
430.93362,431.05862,73,60,0
431.05862,431.18362,85,60,0
431.18362,431.3034,73,60,0
431.30862,431.43362,76,60,0
431.43362,431.55862,64,61,0
431.55862,431.68362,76,61,0
431.68362,431.8034,64,62,0
431.80862,431.93362,88,63,0
431.93362,432.05862,76,64,0
432.05862,432.18362,88,65,0
432.18362,432.3034,76,66,0
432.30862,432.43362,79,67,0
432.43362,432.55862,67,68,0
432.55862,432.68362,79,69,0
432.68362,432.8034,67,70,0
432.80862,432.93362,91,71,0
432.93362,433.05862,79,72,0
433.05862,433.18362,91,73,0
433.18362,433.3034,79,74,0
433.30862,433.43362,82,75,0
433.43362,433.55862,70,76,0
433.55862,433.68362,82,77,0
433.68362,433.8034,70,78,0
433.80862,433.93362,94,79,0
433.93362,434.05862,82,80,0
434.05862,434.18362,94,81,0
434.18362,434.3034,82,82,0
434.30862,434.43362,82,83,0
434.43362,434.55862,70,84,0
434.55862,434.68362,82,85,0
434.68362,434.8034,70,86,0
434.80862,434.93362,94,87,0
434.93362,435.05862,82,88,0
435.05862,435.18362,94,89,0
435.18362,435.3034,82,90,0
435.30862,435.4284,82,92,0
435.43362,435.5534,70,92,0
435.55862,435.6784,82,92,0
435.68362,435.8034,70,92,0
435.80862,435.9284,94,92,0
435.93362,436.0534,82,92,0
436.05862,436.1784,94,92,0
436.18362,436.3034,82,92,0
436.30862,436.4284,92,92,0
436.43362,436.5534,80,92,0
436.55862,436.6784,92,92,0
436.68362,436.8034,80,92,0
436.80862,436.9284,93,92,0
436.93362,437.0534,81,92,0
437.05862,437.1784,93,92,0
437.18362,437.3034,81,92,0
437.30862,437.4284,79,92,0
437.43362,437.5534,67,92,0
437.55862,437.6784,79,92,0
437.68362,437.8034,67,92,0
437.80862,437.9284,91,92,0
437.93362,438.0534,79,92,0
438.05862,438.1784,91,92,0
438.18362,438.3034,79,92,0
438.30862,438.4284,88,92,0
438.43362,438.5534,76,92,0
438.55862,438.6784,88,92,0
438.68362,438.8034,76,92,0
438.80862,438.9284,89,92,0
438.93362,439.0534,77,92,0
439.05862,439.1784,89,92,0
439.18362,439.3034,77,92,0
439.80862,439.93362,87,92,0
439.93362,440.05862,75,92,0
440.05862,440.18362,87,92,0
440.18362,440.30862,75,92,0
440.30862,440.43362,85,92,0
440.43362,440.55862,73,92,0
440.55862,440.68362,85,92,0
440.68362,440.80862,73,92,0
440.80862,440.93362,86,92,0
440.93362,441.05862,74,92,0
441.05862,441.18362,86,92,0
441.18362,441.3034,74,92,0
441.80862,441.93362,84,92,0
441.93362,442.05862,72,92,0
442.05862,442.18362,84,92,0
442.18362,442.30862,72,92,0
442.30862,442.43362,81,92,0
442.43362,442.55862,69,92,0
442.55862,442.68362,81,92,0
442.68362,442.80862,69,92,0
442.80862,442.93362,82,92,0
442.93362,443.05862,70,92,0
443.05862,443.18362,82,92,0
443.18362,443.3034,70,92,0
443.80862,443.97528,80,92,0
443.97528,444.14194,77,92,0
444.14194,444.30862,68,92,0
444.30862,444.47528,78,92,0
444.47528,444.64194,70,92,0
444.64194,444.80862,66,92,0
444.80862,444.97528,79,92,0
444.97528,445.14194,70,92,0
445.14194,445.3034,67,92,0
445.80862,445.97528,80,92,0
445.97528,446.14194,77,92,0
446.14194,446.30862,68,92,0
446.30862,446.47528,78,92,0
446.47528,446.64194,70,92,0
446.64194,446.80862,66,92,0
446.80862,446.97528,79,92,0
446.97528,447.14194,73,92,0
447.14194,447.3034,67,92,0
447.80862,447.97528,81,92,0
447.97528,448.14194,73,92,0
448.14194,448.30862,69,92,0
448.30862,448.47528,78,92,0
448.47528,448.64194,73,92,0
448.64194,448.80862,66,92,0
448.80862,448.97528,79,92,0
448.97528,449.14194,73,92,0
449.14194,449.3034,67,92,0
449.30862,449.47528,81,92,0
449.47528,449.64194,73,92,0
449.64194,449.80862,69,92,0
449.80862,449.97528,78,92,0
449.97528,450.14194,73,92,0
450.14194,450.30862,66,92,0
450.30862,450.47528,79,92,0
450.47528,450.64194,73,92,0
450.64194,450.80862,67,92,0
450.80862,450.97528,81,92,0
450.97528,451.14194,73,92,0
451.14194,451.3034,69,92,0
451.30862,451.47528,77,92,0
451.47528,451.64194,74,92,0
451.64194,451.80862,69,92,0
451.80862,451.97528,78,92,0
451.97528,452.14194,74,92,0
452.14194,452.30862,69,92,0
452.30862,452.47528,73,92,0
452.47528,452.64194,69,92,0
452.64194,452.80862,66,92,0
452.80862,452.97528,74,92,0
452.97528,453.14194,69,92,0
453.14194,453.3034,66,92,0
453.30862,453.47528,68,92,0
453.47528,453.64194,66,91,0
453.64194,453.80862,62,90,0
453.80862,453.97528,69,89,0
453.97528,454.14194,66,88,0
454.14194,454.30862,62,87,0
454.30862,454.47528,65,86,0
454.47528,454.64194,62,85,0
454.64194,454.80862,57,84,0
454.80862,454.97528,66,83,0
454.97528,455.14194,62,82,0
455.14194,455.3034,57,81,0
455.30862,455.47528,61,80,0
455.47528,455.64194,57,79,0
455.64194,455.80862,54,78,0
455.80862,455.97528,62,77,0
455.97528,456.14194,57,76,0
456.14194,456.3034,54,75,0
456.80862,456.97528,61,70,0
456.97528,457.14194,57,69,0
457.14194,457.30862,54,68,0
457.30862,457.48102,62,67,0
457.48102,457.65344,57,66,0
457.65344,457.82047,54,65,0
458.8788,459.05737,61,51,0
459.05737,459.23596,57,49,0
459.23596,459.41452,54,47,0
459.41452,459.70828,62,45,0
464.8145,465.6895,74,60,0
464.8145,465.6895,83,60,0
465.8145,466.2312,72,60,0
464.8145,466.2312,79,60,0
465.8145,466.2312,81,60,0
466.8145,467.8145,78,60,0
466.8145,467.8145,84,60,0
466.8145,467.8145,88,60,0
467.8145,468.2312,79,60,0
467.8145,468.2312,83,60,0
467.8145,468.2312,86,60,0
468.8145,469.0645,77,60,0
468.8145,469.0645,86,60,0
469.0645,469.30933,76,60,0
469.0645,469.30933,84,60,0
469.3145,469.5645,76,60,0
469.3145,469.5645,84,60,0
469.5645,469.80933,74,60,0
469.5645,469.80933,83,60,0
469.8145,470.5645,72,60,0
469.8145,470.5645,81,60,0
470.5645,470.80933,74,60,0
470.5645,470.80933,83,60,0
470.8145,471.0645,77,60,0
470.8145,471.0645,86,60,0
471.0645,471.30933,76,60,0
471.0645,471.30933,84,60,0
471.3145,471.5645,76,60,0
471.3145,471.5645,84,60,0
471.5645,471.80933,74,60,0
471.5645,471.80933,83,60,0
471.8145,472.5645,72,60,0
471.8145,472.5645,81,60,0
472.5645,472.80933,74,60,0
472.5645,472.80933,83,60,0
472.8145,473.0645,79,60,0
472.8145,473.0645,88,60,0
473.0645,473.30933,77,63,0
473.0645,473.30933,86,63,0
473.3145,473.5645,77,67,0
473.3145,473.5645,86,67,0
473.5645,473.80933,76,71,0
473.5645,473.80933,85,71,0
473.8145,474.3145,77,75,0
473.8145,474.3145,86,75,0
474.3145,474.55933,76,60,0
474.3145,474.55933,84,60,0
474.8145,475.3145,76,60,0
474.8145,475.3145,84,60,0
475.3145,475.55933,74,60,0
475.3145,475.55933,83,60,0
475.8145,476.3145,74,60,0
475.8145,476.3145,83,60,0
476.3145,476.55933,73,60,0
476.3145,476.55933,82,60,0
476.8145,478.3145,73,60,0
476.8145,478.3145,82,60,0
478.3145,478.7312,72,60,0
478.3145,478.7312,81,60,0
478.8145,480.3145,77,60,0
478.8145,480.3145,80,60,0
480.3145,480.7312,76,60,0
480.3145,480.7312,79,60,0
480.8145,481.5645,74,60,0
480.8145,481.5645,78,60,0
481.5645,481.80933,72,75,0
481.5645,481.80933,76,75,0
481.8145,482.0645,78,92,0
481.8145,482.0645,86,92,0
482.0645,482.3145,76,92,0
482.0645,482.3145,84,92,0
482.3145,482.5645,74,75,0
482.3145,482.5645,83,75,0
482.5645,482.80933,72,75,0
482.5645,482.80933,81,75,0
482.8145,483.8145,71,75,0
482.8145,483.8145,79,75,0
483.8145,484.2312,69,60,0
483.8145,484.2312,78,60,0
484.8145,485.8145,57,60,0
484.8145,485.8145,62,60,0
484.8145,485.8145,65,60,0
485.8145,486.2312,56,60,0
485.8145,486.2312,59,60,0
485.8145,486.2312,64,60,0
486.8145,487.8145,52,60,0
486.8145,487.8145,57,60,0
486.8145,487.8145,64,60,0
487.8145,488.2312,54,60,0
487.8145,488.2312,57,60,0
487.8145,488.2312,63,60,0
488.8145,489.6895,55,60,0
488.8145,489.6895,62,60,0
489.8145,490.5645,54,60,0
489.8145,490.5645,60,60,0
489.8145,490.5645,63,60,0
490.5645,490.80933,62,60,0
490.8145,491.6895,55,60,0
490.8145,491.6895,62,60,0
491.8145,492.5645,54,60,0
491.8145,492.5645,60,60,0
491.8145,492.5645,63,60,0
492.5645,492.80933,62,60,0
492.8145,493.6895,55,60,0
492.8145,493.6895,62,60,0
493.8145,494.6895,55,64,0
493.8145,494.6895,62,64,0
494.8145,495.6895,55,68,0
494.8145,495.6895,63,68,0
495.8145,496.6895,55,72,0
495.8145,496.6895,65,72,0
496.8145,497.3145,65,76,0
497.3145,497.8145,64,78,0
497.8145,498.3145,62,80,0
496.8145,498.3145,68,76,0
496.8145,498.3145,71,76,0
498.3145,498.7312,64,82,0
498.3145,498.7312,67,82,0
498.3145,498.7312,72,82,0
498.8145,499.3145,67,84,0
499.3145,499.8145,66,86,0
499.8145,500.3145,64,88,0
498.8145,500.3145,70,84,0
498.8145,500.3145,73,84,0
500.3145,500.7312,66,90,0
500.3145,500.7312,69,90,0
500.3145,500.7312,74,90,0
500.8145,501.5645,63,92,0
500.8145,501.5645,66,92,0
500.8145,501.5645,69,92,0
501.5645,501.80933,64,92,0
501.5645,501.80933,67,92,0
501.8145,502.0645,62,92,0
501.8145,502.0645,65,92,0
502.0645,502.3145,60,92,0
502.0645,502.3145,64,92,0
502.3145,502.5645,59,92,0
502.3145,502.5645,62,92,0
502.5645,502.80933,57,92,0
502.5645,502.80933,60,92,0
502.8145,503.0645,63,92,0
502.8145,503.0645,66,92,0
502.8145,503.0645,69,92,0
503.0645,503.55933,64,92,0
503.0645,503.55933,67,92,0
503.5645,503.80933,62,92,0
503.5645,503.80933,68,92,0
503.8145,504.2312,62,92,0
503.8145,504.2312,68,92,0
504.3145,504.5645,69,87,0
504.3145,504.80933,60,87,0
504.5645,504.80933,64,85,0
504.8145,505.8145,59,83,0
504.8145,505.8145,62,83,0
505.8145,506.8145,58,72,0
505.8145,506.8145,61,72,0
506.8145,508.2194,57,60,0
506.8145,508.2194,62,60,0
508.88443,509.36063,62,92,0
508.88443,509.36063,74,92,0
509.36063,509.8368,74,92,0
509.36063,509.8368,86,92,0
509.8368,510.313,69,92,0
509.8368,510.313,81,92,0
510.313,510.7098,70,92,0
510.313,510.7098,82,92,0
511.26538,511.6622,63,45,0
511.74158,512.13837,57,45,0
512.2178,512.61456,58,45,0
513.1701,513.6463,63,60,0
513.6463,514.1225,57,60,0
514.1225,514.51935,58,60,0
516.9797,517.4559,75,92,0
516.9797,517.4559,84,92,0
516.9797,517.4559,87,92,0
517.4559,517.932,74,92,0
517.4559,517.932,82,92,0
517.4559,517.932,86,92,0
517.932,518.80505,72,92,0
517.932,518.80505,81,92,0
517.932,518.80505,84,92,0
518.8844,518.9638,82,92,0
518.9638,519.04315,84,91,0
519.04315,519.1225,82,90,0
519.1225,519.2416,81,89,0
518.8844,519.28125,70,92,0
518.8844,519.28125,79,92,0
519.2416,519.3606,82,87,0
519.3606,519.8368,72,85,0
519.3606,519.8368,81,85,0
519.3606,519.8368,84,85,0
519.8368,520.23364,69,75,0
519.8368,520.23364,72,75,0
519.8368,520.23364,78,75,0
519.8368,520.23364,81,75,0
520.313,520.70984,67,92,0
520.313,520.70984,70,92,0
520.313,520.70984,74,92,0
520.313,520.70984,79,92,0
521.7416,521.8606,58,92,0
521.8606,521.9797,57,92,0
521.9797,522.0987,58,92,0
522.0987,522.21277,55,92,0
522.2178,522.61456,57,92,0
522.2178,522.61456,60,92,0
522.2178,522.61456,65,92,0
523.6463,523.7654,62,75,0
523.7654,523.8844,60,75,0
523.8844,524.0035,62,75,0
524.0035,524.11755,58,75,0
524.1225,524.51935,58,75,0
524.1225,524.51935,64,75,0
524.1225,524.51935,67,75,0
525.5511,525.6701,64,60,0
525.6701,525.7892,62,60,0
525.7892,525.9082,64,60,0
525.9082,526.0223,61,60,0
526.5035,526.6225,66,60,0
526.6225,526.7416,64,60,0
526.7416,526.8606,66,60,0
526.8606,526.9747,62,60,0
527.4558,527.5749,67,61,0
527.5749,527.6939,66,61,0
527.6939,527.813,67,61,0
527.813,527.92706,64,61,0
528.4082,528.5273,69,62,0
528.5273,528.6463,67,62,0
528.6463,528.7654,69,62,0
528.7654,528.8844,66,62,0
528.8844,529.0035,70,62,0
529.0035,529.1225,69,62,0
529.1225,529.2416,70,62,0
529.2416,529.3606,67,62,0
529.3606,529.4796,72,62,0
529.4796,529.5987,70,62,0
529.5987,529.7177,72,62,0
529.7177,529.83185,69,62,0
530.313,530.432,74,64,0
530.432,530.5511,72,64,0
530.5511,530.6701,74,64,0
530.6701,530.7892,71,64,0
530.7892,530.9082,75,64,0
530.9082,531.0273,74,64,0
531.0273,531.1463,75,64,0
531.1463,531.2654,72,64,0
531.2654,531.3844,77,64,0
531.3844,531.5035,75,64,0
531.5035,531.6225,77,64,0
531.6225,531.7366,74,64,0
531.7415,531.8606,67,64,0
531.7415,531.8606,76,64,0
531.7415,531.8606,79,64,0
532.2177,532.6939,55,67,0
532.2177,532.6939,64,67,0
532.2177,532.6939,67,67,0
532.6939,533.09076,54,70,0
532.6939,533.09076,63,70,0
532.6939,533.09076,66,70,0
533.1701,533.6463,66,73,0
533.1701,533.6463,75,73,0
533.1701,533.6463,78,73,0
533.6463,534.04315,67,76,0
533.6463,534.04315,74,76,0
533.6463,534.04315,79,76,0
534.1225,534.2415,55,79,0
534.1225,534.2415,58,79,0
534.1225,534.2415,67,79,0
534.5987,534.7177,57,82,0
534.5987,534.7177,63,82,0
534.5987,534.7177,69,82,0
535.0749,535.1939,57,85,0
535.0749,535.1939,62,85,0
535.0749,535.1939,66,85,0
535.5511,535.9479,55,88,0
535.5511,535.9479,67,88,0
536.0273,536.1463,79,92,0
536.1463,536.2653,78,92,0
536.2653,536.37946,79,92,0
536.3844,536.4985,67,92,0
536.5034,536.7366,63,92,0
536.5034,536.7366,75,92,0
536.9796,537.0987,75,92,0
537.0987,537.2177,74,92,0
537.2177,537.3318,75,92,0
537.3368,537.45087,63,92,0
537.4558,537.68896,60,92,0
537.4558,537.68896,72,92,0
537.932,538.0511,72,92,0
538.0511,538.1701,71,92,0
538.1701,538.2842,72,92,0
538.2892,538.40326,60,92,0
538.4082,538.64136,62,92,0
538.4082,538.64136,74,92,0
538.8844,539.0034,74,92,0
539.0034,539.1225,73,92,0
539.1225,539.2366,74,92,0
539.2415,539.35565,62,92,0
539.3606,539.59375,67,92,0
539.3606,539.59375,79,92,0
539.8368,539.9558,79,92,0
539.9558,540.0749,78,92,0
540.0749,540.18896,79,92,0
540.1939,540.308,67,92,0
540.313,540.5461,63,92,0
540.313,540.5461,75,92,0
540.7892,540.9082,75,92,0
540.9082,541.0272,74,92,0
541.0272,541.14136,75,92,0
541.1463,541.2604,63,92,0
541.2653,541.4985,60,92,0
541.2653,541.4985,72,92,0
541.7415,541.8606,72,92,0
541.8606,541.9796,71,92,0
541.9796,542.0937,72,92,0
542.0987,542.21277,60,92,0
542.2177,542.45087,62,92,0
542.2177,542.45087,74,92,0
542.6939,542.813,74,92,0
542.813,542.932,73,92,0
542.932,543.0461,74,92,0
543.0511,543.16516,62,92,0
543.1701,543.40326,63,92,0
543.1701,543.40326,75,92,0
543.6463,543.7653,75,92,0
543.7653,543.8844,74,92,0
543.8844,543.9985,75,92,0
544.0034,544.11755,63,92,0
544.1225,544.3556,60,92,0
544.1225,544.3556,72,92,0
544.5987,544.7177,72,92,0
544.7177,544.8368,71,92,0
544.8368,544.95087,72,92,0
544.9558,545.0699,60,92,0
545.0749,545.308,56,92,0
545.0749,545.308,68,92,0
545.551,545.6701,68,92,0
545.6701,545.7891,67,92,0
545.7891,545.90326,68,92,0
545.9082,546.0223,56,92,0
546.0272,546.2604,58,92,0
546.0272,546.2604,70,92,0
546.5034,546.6225,70,92,0
546.6225,546.7415,69,92,0
546.7415,546.8556,70,92,0
546.8606,546.9747,58,92,0
546.9796,547.37646,67,92,0
546.9796,547.37646,75,92,0
546.9796,547.37646,79,92,0
547.4558,547.5749,91,92,0
547.5749,547.6939,90,92,0
547.6939,547.8129,91,92,0
547.8129,547.932,79,92,0
547.932,548.051,87,92,0
548.051,548.1701,86,92,0
548.1701,548.2891,87,92,0
548.2891,548.4082,75,92,0
548.4082,548.5272,82,92,0
548.5272,548.6463,81,92,0
548.6463,548.7653,82,92,0
548.7653,548.8794,70,92,0
548.8844,549.0073,79,92,0
549.0073,549.1303,78,92,0
549.1303,549.25323,79,92,0
549.25323,549.37616,67,92,0
549.37616,549.49915,75,92,0
549.49915,549.6221,74,92,0
549.6221,549.74506,75,92,0
549.74506,549.868,63,92,0
549.868,549.9951,70,92,0
549.9951,550.12225,69,88,0
550.12225,550.2493,70,84,0
550.2493,550.37646,58,80,0
550.37646,550.5058,67,76,0
550.5058,550.6351,66,72,0
550.6351,550.7644,67,68,0
550.7644,550.8883,58,64,0
550.8937,551.0135,63,60,0
551.0187,551.1385,62,60,0
551.1437,551.2635,63,60,0
551.2687,551.3885,58,60,0
551.3937,551.5135,63,60,0
551.5187,551.6385,62,60,0
551.6437,551.7635,63,60,0
551.7687,551.8885,58,60,0
551.8937,552.0135,65,60,0
552.0187,552.1385,64,61,0
552.1437,552.2635,65,62,0
552.2687,552.3885,58,63,0
552.3937,552.5135,66,64,0
552.5187,552.6385,65,65,0
552.6437,552.7635,66,66,0
552.7687,552.8885,58,67,0
552.8937,553.0135,67,68,0
553.0187,553.1385,66,69,0
553.1437,553.2635,67,70,0
553.2687,553.3885,58,71,0
553.3937,553.5135,68,72,0
553.5187,553.6385,67,73,0
553.6437,553.7635,68,74,0
553.7687,553.8885,58,75,0
553.8937,554.0135,70,76,0
554.0187,554.1385,69,78,0
554.1437,554.2635,70,80,0
554.2687,554.3885,58,82,0
554.3937,554.5135,72,84,0
554.5187,554.6385,71,86,0
554.6437,554.7635,72,88,0
554.7687,554.8885,58,90,0
554.8937,555.0135,75,92,0
555.0187,555.1385,74,92,0
555.1437,555.2635,75,92,0
555.2687,555.3885,58,92,0
555.3937,555.5135,74,92,0
555.5187,555.6385,73,92,0
555.6437,555.7635,74,92,0
555.7687,555.8885,58,92,0
555.8937,556.0135,70,92,0
556.0187,556.1385,69,92,0
556.1437,556.2635,70,92,0
556.2687,556.3885,58,92,0
556.3937,556.5135,68,92,0
556.5187,556.6385,67,92,0
556.6437,556.7635,68,92,0
556.7687,556.8885,58,92,0
556.8937,557.0135,67,92,0
557.0187,557.1385,66,92,0
557.1437,557.2635,67,92,0
557.2687,557.3885,58,92,0
557.3937,557.5135,66,92,0
557.5187,557.6385,65,92,0
557.6437,557.7635,66,92,0
557.7687,557.8885,58,92,0
557.8937,558.0135,65,92,0
558.0187,558.1385,64,88,0
558.1437,558.2635,65,84,0
558.2687,558.3885,58,80,0
558.3937,558.5135,62,76,0
558.5187,558.6385,61,72,0
558.6437,558.7635,62,68,0
558.7687,558.8885,58,64,0
558.8937,559.0135,63,60,0
559.0187,559.1385,62,60,0
559.1437,559.2635,63,60,0
559.2687,559.3885,58,60,0
559.3937,559.5135,63,60,0
559.5187,559.6385,62,60,0
559.6437,559.7635,63,60,0
559.7687,559.8885,58,60,0
559.8937,560.0135,61,60,0
560.0187,560.1385,60,61,0
560.1437,560.2635,61,62,0
560.2687,560.3885,53,63,0
560.3937,560.5135,61,64,0
560.5187,560.6385,60,65,0
560.6437,560.7635,61,66,0
560.7687,560.8885,51,67,0
560.8937,561.0135,60,68,0
561.0187,561.1385,59,69,0
561.1437,561.2635,60,70,0
561.2687,561.3885,51,71,0
561.3937,561.5135,58,72,0
561.5187,561.6385,57,73,0
561.6437,561.7635,58,74,0
561.7687,561.8885,51,75,0
561.8937,562.0135,56,76,0
562.0187,562.1385,55,78,0
562.1437,562.2635,56,80,0
562.2687,562.3885,51,82,0
562.3937,562.5135,55,84,0
562.5187,562.6385,54,86,0
562.6437,562.7635,55,88,0
562.7687,562.8885,51,90,0
562.8937,563.0135,53,92,0
563.0187,563.1385,51,92,0
563.1437,563.2635,53,92,0
563.2687,563.3885,51,92,0
563.3937,563.5135,53,92,0
563.5187,563.6385,51,92,0
563.6437,563.7635,53,92,0
563.7687,563.8885,51,92,0
563.8937,564.0135,54,92,0
564.0187,564.1385,51,88,0
564.1437,564.2635,53,84,0
564.2687,564.3885,51,80,0
564.3937,564.5135,54,76,0
564.5187,564.6385,51,72,0
564.6437,564.7635,53,68,0
564.7687,564.8885,51,64,0
564.8937,565.0187,53,60,0
565.0187,565.1437,50,60,0
565.1437,565.2687,53,64,0
565.2687,565.3937,58,68,0
565.3937,565.5187,62,72,0
565.5187,565.6437,65,77,0
565.6437,565.7687,70,82,0
565.7687,565.8937,74,87,0
565.8937,566.0187,77,92,0
566.0187,566.1437,74,92,0
566.1437,566.2687,65,88,0
566.2687,566.3937,62,84,0
566.3937,566.5187,65,80,0
566.5187,566.6437,70,75,0
566.6437,566.7687,74,70,0
566.7687,566.8885,77,65,0
566.8937,567.8937,67,60,0
566.8937,567.8937,75,60,0
566.8937,567.8937,79,60,0
567.8937,568.3937,68,60,0
567.8937,568.3937,77,60,0
567.8937,568.3937,80,60,0
568.3937,568.8937,69,60,0
568.3937,568.8937,75,60,0
568.3937,568.8937,81,60,0
568.8937,569.31036,70,60,0
568.8937,569.31036,74,60,0
568.8937,569.31036,82,60,0
569.3937,569.8937,67,60,0
569.3937,569.8937,75,60,0
569.3937,569.8937,79,60,0
569.8937,570.3937,68,61,0
569.8937,570.3937,77,61,0
569.8937,570.3937,80,61,0
570.3937,570.8937,69,62,0
570.3937,570.8937,75,62,0
570.3937,570.8937,81,62,0
570.8937,571.31036,70,64,0
570.8937,571.31036,74,64,0
570.8937,571.31036,82,64,0
571.3937,571.8937,70,66,0
571.3937,571.8937,79,66,0
571.3937,571.8937,82,66,0
571.8937,572.3937,72,68,0
571.8937,572.3937,81,68,0
571.8937,572.3937,84,68,0
572.3937,572.81036,73,70,0
572.3937,572.81036,79,70,0
572.3937,572.81036,85,70,0
572.8937,573.31036,74,72,0
572.8937,573.31036,78,72,0
572.8937,573.31036,86,72,0
573.6437,573.8885,76,75,0
573.3937,573.8885,79,74,0
573.6437,573.8885,88,75,0
573.8937,574.31036,78,76,0
573.8937,574.31036,81,76,0
573.8937,574.31036,90,76,0
574.3937,574.81036,79,78,0
574.3937,574.81036,82,78,0
574.3937,574.81036,91,78,0
574.8937,575.3937,84,80,0
574.8937,575.3937,87,80,0
574.8937,575.3937,96,80,0
575.3937,575.8937,82,82,0
575.3937,575.8937,86,82,0
575.3937,575.8937,94,82,0
575.8937,576.3937,81,84,0
575.8937,576.3937,84,84,0
575.8937,576.3937,93,84,0
576.3937,576.81036,79,86,0
576.3937,576.81036,82,86,0
576.3937,576.81036,91,86,0
576.8937,577.06036,90,88,0
577.06036,577.22705,91,88,0
577.22705,577.3937,90,88,0
577.3937,577.6437,88,89,0
576.8937,577.7687,78,88,0
576.8937,577.7687,81,88,0
576.8937,577.7687,87,88,0
577.6437,577.8937,90,90,0
577.8937,578.3937,79,92,0
577.8937,578.3937,82,92,0
577.8937,578.3937,88,92,0
577.8937,578.3937,91,92,0
578.3937,578.81036,70,92,0
578.3937,578.81036,76,92,0
578.3937,578.81036,79,92,0
578.3937,578.81036,82,92,0
578.8937,579.31036,69,92,0
578.8937,579.31036,78,92,0
578.8937,579.31036,81,92,0
579.3937,579.8937,74,92,0
579.3937,579.8937,86,92,0
579.8937,580.3937,73,92,0
579.8937,580.3937,85,92,0
580.3937,580.8937,72,92,0
580.3937,580.8937,84,92,0
580.8937,581.3937,70,92,0
580.8937,581.3937,82,92,0
581.3937,581.8937,74,92,0
581.3937,581.8937,86,92,0
581.8937,582.6437,79,92,0
581.8937,582.6437,91,92,0
582.6437,582.8885,81,92,0
582.6437,582.8885,93,92,0
582.8937,583.31036,79,92,0
582.8937,583.31036,91,92,0
583.3937,583.8937,78,92,0
583.3937,583.8937,86,92,0
583.3937,583.8937,90,92,0
583.8937,584.3937,79,92,0
583.8937,584.3937,88,92,0
583.8937,584.3937,91,92,0
584.3937,584.8937,81,92,0
584.3937,584.8937,90,92,0
584.3937,584.8937,93,92,0
584.8937,585.3937,82,92,0
584.8937,585.3937,91,92,0
584.8937,585.3937,94,92,0
585.3937,585.8937,81,92,0
585.3937,585.8937,90,92,0
585.3937,585.8937,93,92,0
585.8937,586.3937,82,92,0
585.8937,586.3937,91,92,0
585.8937,586.3937,94,92,0
586.3937,586.81036,85,92,0
586.3937,586.81036,91,92,0
586.3937,586.81036,97,92,0
586.8937,587.31036,86,92,0
586.8937,587.31036,93,92,0
586.8937,587.31036,98,92,0
587.3937,587.8937,74,92,0
587.3937,587.8937,86,92,0
587.8937,588.3937,73,92,0
587.8937,588.3937,85,92,0
588.3937,588.8937,72,92,0
588.3937,588.8937,84,92,0
588.8937,589.31036,71,92,0
588.8937,589.31036,83,92,0
589.3937,589.8937,79,92,0
589.3937,589.8937,91,92,0
589.8937,590.3937,78,92,0
589.8937,590.3937,90,92,0
590.3937,590.8937,77,92,0
590.3937,590.8937,89,92,0
590.8937,591.31036,76,92,0
590.8937,591.31036,88,92,0
591.3937,591.8937,84,92,0
591.3937,591.8937,96,92,0
591.8937,592.3937,75,92,0
591.8937,592.3937,87,92,0
592.3937,592.81036,81,92,0
592.3937,592.81036,93,92,0
592.8937,593.3937,81,75,0
592.8937,593.3937,93,75,0
593.3937,594.2687,79,75,0
593.3937,594.2687,91,75,0
594.3937,595.31036,73,75,0
594.3937,595.31036,85,75,0
595.3937,596.2687,72,75,0
595.3937,596.2687,74,75,0
595.3937,596.2687,78,75,0
595.3937,596.2687,81,75,0
595.3937,596.2687,86,75,0
596.3937,596.81036,57,60,0
596.3937,596.81036,60,60,0
596.3937,596.81036,66,60,0
596.8937,597.31036,55,60,0
596.8937,597.31036,58,60,0
596.8937,597.31036,67,60,0
608.3937,608.56036,86,60,0
608.56036,608.72705,74,60,0
608.72705,608.8885,85,60,0
608.8937,609.06036,86,60,0
609.06036,609.22705,87,60,0
609.22705,609.3937,84,60,0
609.3937,609.56036,82,60,0
609.56036,609.72705,84,60,0
609.72705,609.8885,81,60,0
609.8937,610.06036,82,60,0
610.06036,610.22705,84,60,0
610.22705,610.3937,81,60,0
610.3937,610.56036,79,60,0
610.56036,610.72705,81,60,0
610.72705,610.8885,78,60,0
610.8937,611.06036,79,60,0
611.06036,611.22705,67,60,0
611.22705,611.3937,74,60,0
611.3937,611.56036,79,60,0
611.56036,611.72705,74,60,0
611.72705,611.8937,81,60,0
611.8937,612.06036,82,60,0
612.06036,612.22705,74,60,0
612.22705,612.3885,79,60,0
612.3937,612.56036,91,60,0
612.56036,612.72705,79,60,0
612.72705,612.8885,90,60,0
612.8937,613.06036,91,60,0
613.06036,613.22705,92,60,0
613.22705,613.3937,89,60,0
613.3937,613.56036,87,60,0
613.56036,613.72705,89,60,0
613.72705,613.8885,86,61,0
613.8937,614.0552,87,61,0
614.06036,614.2218,89,62,0
614.22705,614.3885,86,63,0
614.3937,614.5552,84,64,0
614.56036,614.7218,86,65,0
614.72705,614.8885,81,66,0
614.3937,615.0552,77,64,0
614.8937,615.0552,83,67,0
615.06036,615.2218,74,68,0
615.22705,615.3885,79,69,0
615.3937,615.56036,83,70,0
615.56036,615.72705,79,71,0
615.72705,615.8937,84,72,0
615.8937,616.06036,86,73,0
616.06036,616.22705,79,74,0
616.22705,616.3885,83,75,0
616.3937,616.56036,91,76,0
616.56036,616.72705,79,77,0
616.72705,616.8937,90,78,0
616.8937,617.06036,91,79,0
617.06036,617.22705,79,80,0
617.22705,617.3885,84,81,0
617.3937,617.56036,91,82,0
617.56036,617.72705,79,83,0
617.72705,617.8937,90,84,0
617.8937,618.06036,91,85,0
618.06036,618.22705,79,86,0
618.22705,618.3885,82,87,0
618.3937,618.56036,91,88,0
618.56036,618.72705,79,89,0
618.72705,618.8937,90,90,0
618.8937,619.06036,91,92,0
619.06036,619.22705,79,92,0
619.22705,619.3885,81,92,0
619.3937,619.56036,81,92,0
619.56036,619.72705,79,88,0
619.72705,619.8937,82,84,0
619.8937,620.06036,86,80,0
620.06036,620.22705,78,76,0
620.22705,620.3937,84,72,0
620.3937,620.56036,82,68,0
620.56036,620.72705,74,64,0
620.72705,620.8885,81,60,0
620.8937,621.31036,69,60,0
620.8937,621.31036,76,60,0
620.8937,621.31036,79,60,0
621.8937,622.6437,69,60,0
621.8937,622.6437,76,60,0
621.8937,622.6437,79,60,0
621.8937,622.6437,81,60,0
622.6437,622.8885,70,60,0
622.6437,622.8885,82,60,0
622.8937,623.3937,70,60,0
622.8937,623.3937,82,60,0
623.3937,623.81036,69,62,0
622.8937,623.81036,76,60,0
622.8937,623.81036,79,60,0
623.3937,623.81036,81,62,0
623.8937,624.6437,69,64,0
623.8937,624.6437,76,64,0
623.8937,624.6437,79,64,0
623.8937,624.6437,81,64,0
624.6437,624.8885,70,67,0
624.6437,624.8885,82,67,0
624.8937,625.3937,70,67,0
624.8937,625.3937,82,67,0
625.3937,625.81036,69,69,0
624.8937,625.81036,75,67,0
624.8937,625.81036,78,67,0
625.3937,625.81036,81,69,0
625.8937,626.6437,69,71,0
625.8937,626.6437,75,71,0
625.8937,626.6437,78,71,0
625.8937,626.6437,81,71,0
626.6437,626.8885,75,74,0
626.6437,626.8885,87,74,0
626.8937,627.3937,75,75,0
626.8937,627.3937,87,75,0
627.3937,627.81036,74,77,0
626.8937,627.81036,79,75,0
626.8937,627.81036,80,75,0
627.3937,627.81036,86,77,0
627.8937,628.6437,74,79,0
627.8937,628.6437,77,79,0
627.8937,628.6437,80,79,0
627.8937,628.6437,86,79,0
628.6437,628.8885,80,82,0
628.6437,628.8885,92,82,0
628.8937,629.3937,80,83,0
628.8937,629.3937,92,83,0
629.3937,629.81036,79,85,0
628.8937,629.81036,84,83,0
628.8937,629.81036,87,83,0
629.3937,629.81036,91,85,0
629.8937,630.3937,75,87,0
629.8937,630.3937,87,87,0
630.3937,630.81036,72,89,0
629.8937,630.81036,79,87,0
630.3937,630.81036,84,89,0
630.8937,631.3937,72,92,0
630.8937,631.3937,74,92,0
630.8937,631.3937,79,92,0
630.8937,631.3937,84,92,0
631.3937,631.6385,70,92,0
631.3937,631.6385,82,92,0
631.8937,632.3937,72,75,0
631.8937,632.3937,78,75,0
631.8937,632.3937,84,75,0
632.3937,632.6385,69,75,0
632.3937,632.6385,81,75,0
632.8937,633.31036,69,60,0
632.8937,633.31036,76,60,0
632.8937,633.31036,79,60,0
633.3937,633.56036,79,60,0
633.56036,633.72705,78,60,0
633.72705,633.8937,81,60,0
633.8937,634.06036,79,60,0
634.06036,634.22705,76,60,0
634.22705,634.3937,69,60,0
634.3937,634.56036,67,60,0
634.56036,634.72705,64,60,0
634.72705,634.8885,57,60,0
635.3937,635.56036,79,60,0
635.56036,635.72705,78,60,0
635.72705,635.8937,81,60,0
635.8937,636.06036,79,60,0
636.06036,636.22705,76,60,0
636.22705,636.3937,69,60,0
636.3937,636.56036,67,60,0
636.56036,636.72705,64,60,0
636.72705,636.8885,57,60,0
637.3937,637.56036,78,62,0
637.56036,637.72705,77,62,0
637.72705,637.8937,79,62,0
637.8937,638.06036,78,62,0
638.06036,638.22705,75,63,0
638.22705,638.3937,69,63,0
638.3937,638.56036,66,64,0
638.56036,638.72705,63,65,0
638.72705,638.8885,57,66,0
639.3937,639.56036,77,70,0
639.56036,639.72705,76,71,0
639.72705,639.8937,79,72,0
639.8937,640.06036,77,73,0
640.06036,640.22705,74,74,0
640.22705,640.3937,68,75,0
640.3937,640.56036,65,76,0
640.56036,640.72705,62,77,0
640.72705,640.8885,56,78,0
641.3937,641.56036,75,82,0
641.56036,641.72705,72,83,0
641.72705,641.8937,67,84,0
641.8937,642.06036,79,85,0
642.06036,642.22705,75,86,0
642.22705,642.3937,67,87,0
642.3937,642.56036,75,88,0
642.56036,642.72705,72,89,0
642.72705,642.8885,67,90,0
642.8937,643.06036,79,92,0
643.06036,643.22705,70,92,0
643.22705,643.3937,67,92,0
643.3937,643.56036,74,92,0
643.56036,643.72705,70,92,0
643.72705,643.8885,67,92,0
643.8937,644.06036,78,92,0
644.06036,644.22705,72,92,0
644.22705,644.3937,69,92,0
644.3937,644.56036,74,92,0
644.56036,644.72705,72,92,0
644.72705,644.8885,69,92,0
644.8937,645.06036,77,92,0
645.06036,645.22705,74,92,0
645.22705,645.3937,71,92,0
645.3937,645.56036,68,92,0
645.56036,645.72705,65,92,0
645.72705,645.8937,62,92,0
645.8937,646.06036,59,92,0
646.06036,646.22705,62,92,0
646.22705,646.3937,65,86,0
646.3937,646.56036,68,80,0
646.56036,646.72705,71,74,0
646.72705,646.8885,74,67,0
646.8937,647.06036,77,60,0
647.06036,647.22705,74,60,0
647.22705,647.3937,71,60,0
647.3937,647.56036,63,60,0
647.56036,647.72705,67,62,0
647.72705,647.8937,70,64,0
647.8937,648.06036,75,66,0
648.06036,648.22705,70,68,0
648.22705,648.3937,67,70,0
648.3937,648.56036,63,72,0
648.56036,648.72705,66,74,0
648.72705,648.8885,70,76,0
648.8937,649.06036,75,78,0
649.06036,649.22705,70,80,0
649.22705,649.3937,66,82,0
649.3937,649.56036,58,84,0
649.56036,649.72705,63,86,0
649.72705,649.8937,66,89,0
649.8937,650.06036,70,92,0
650.06036,650.22705,66,92,0
650.22705,650.3937,63,92,0
650.3937,650.56036,60,92,0
650.56036,650.72705,63,92,0
650.72705,650.8885,66,92,0
650.8937,651.06036,69,92,0
651.06036,651.22705,66,90,0
651.22705,651.3937,60,88,0
651.3937,651.56036,67,86,0
651.56036,651.72705,62,84,0
651.72705,651.8937,58,81,0
651.8937,652.06036,69,78,0
652.06036,652.22705,62,75,0
652.22705,652.3937,60,72,0
652.3937,652.56036,66,69,0
652.56036,652.72705,62,66,0
652.72705,652.8885,60,63,0
652.8937,653.3937,58,60,0
652.8937,653.3937,67,60,0
653.3937,653.8937,75,60,0
653.8937,654.3937,73,60,0
654.3937,656.7687,74,60,0
656.8937,657.3937,67,60,0
657.3937,657.8937,75,60,0
657.8937,658.3937,73,60,0
658.3937,660.7687,74,60,0
660.8937,661.3937,67,60,0
661.3937,661.8937,77,62,0
661.8937,662.3937,74,64,0
662.3937,664.7687,75,66,0
664.8937,665.3937,74,76,0
665.3937,666.7687,75,78,0
666.8937,667.3937,74,84,0
667.3937,668.7687,75,86,0
668.8937,669.3937,75,92,0
669.3937,670.7687,74,75,0
670.8937,671.3937,73,60,0
671.3937,672.3937,74,75,0
672.3937,673.3937,72,92,0
673.3937,674.3937,70,75,0
674.3937,674.81036,69,60,0
675.3937,675.56036,58,84,0
675.56036,675.72705,67,60,0
675.72705,675.8885,58,60,0
675.3937,675.8885,70,84,0
676.3937,676.56036,58,84,0
676.56036,676.72705,67,60,0
676.72705,676.8885,58,60,0
676.3937,676.8885,70,84,0
677.3937,677.56036,69,60,0
677.56036,677.72705,78,60,0
677.72705,677.8885,69,60,0
677.3937,677.8885,81,60,0
678.06036,678.22705,78,60,0
678.22705,678.3885,72,60,0
677.8937,678.3885,84,60,0
678.56036,678.72705,79,60,0
678.72705,678.8885,70,60,0
678.3937,678.8885,82,60,0
679.3937,679.56036,58,84,0
679.56036,679.72705,67,60,0
679.72705,679.8885,58,60,0
679.3937,679.8885,70,84,0
680.3937,680.56036,58,84,0
680.56036,680.72705,67,60,0
680.72705,680.8885,58,60,0
680.3937,680.8885,70,84,0
681.3937,681.56036,70,60,0
681.56036,681.72705,79,60,0
681.72705,681.8885,70,60,0
681.3937,681.8885,82,60,0
682.06036,682.22705,79,60,0
682.22705,682.3885,73,60,0
681.8937,682.3885,85,60,0
682.56036,682.72705,80,60,0
682.72705,682.8885,72,60,0
682.3937,682.8885,84,60,0
683.3937,683.56036,60,84,0
683.56036,683.72705,65,60,0
683.72705,683.8885,60,60,0
683.3937,683.8885,72,84,0
684.3937,684.56036,61,85,0
684.56036,684.72705,65,61,0
684.72705,684.8885,61,61,0
684.3937,684.8885,73,85,0
685.3937,685.56036,74,62,0
685.56036,685.72705,79,62,0
685.72705,685.8885,74,62,0
685.3937,685.8885,86,62,0
686.06036,686.22705,79,62,0
686.22705,686.3885,77,62,0
685.8937,686.3885,89,62,0
686.56036,686.72705,79,62,0
686.72705,686.8885,75,62,0
686.3937,686.8885,87,62,0
687.3937,687.56036,63,88,0
687.56036,687.72705,68,63,0
687.72705,687.8885,63,63,0
687.3937,687.8885,75,88,0
688.3937,688.56036,64,89,0
688.56036,688.72705,68,64,0
688.72705,688.8885,64,64,0
688.3937,688.8885,76,89,0
689.3937,689.56036,76,65,0
689.56036,689.72705,81,65,0
689.72705,689.8885,76,65,0
689.3937,689.8885,88,65,0
690.06036,690.22705,81,65,0
690.22705,690.3885,79,65,0
689.8937,690.3885,91,65,0
690.56036,690.72705,81,65,0
690.72705,690.8885,77,65,0
690.3937,690.8885,89,65,0
691.3937,691.56036,77,66,0
691.56036,691.72705,82,66,0
691.72705,691.8885,77,66,0
691.3937,691.8885,89,66,0
692.06036,692.22705,82,66,0
692.22705,692.3885,80,66,0
691.8937,692.3885,92,66,0
692.56036,692.72705,82,66,0
692.72705,692.8885,79,66,0
692.3937,692.8885,91,66,0
693.3937,693.56036,79,68,0
693.56036,693.72705,84,68,0
693.72705,693.8885,79,68,0
693.3937,693.8885,91,68,0
694.06036,694.22705,84,68,0
694.22705,694.3885,82,68,0
693.8937,694.3885,94,68,0
694.56036,694.72705,84,68,0
694.72705,694.8885,80,68,0
694.3937,694.8885,92,68,0
695.56036,695.72705,74,70,0
695.72705,695.8937,69,70,0
695.3937,695.8937,81,70,0
696.06036,696.22705,78,72,0
696.22705,696.3937,72,73,0
695.8937,696.3937,84,71,0
696.56036,696.72705,79,75,0
696.72705,696.8885,70,76,0
696.3937,696.8885,82,74,0
696.8937,697.06036,86,77,0
697.06036,697.22705,78,78,0
697.22705,697.3937,74,79,0
697.3937,697.56036,84,80,0
697.56036,697.72705,78,81,0
697.72705,697.8885,72,82,0
697.8937,698.06036,87,83,0
698.06036,698.22705,79,84,0
698.22705,698.3937,75,85,0
698.3937,698.56036,86,86,0
698.56036,698.72705,79,87,0
698.72705,698.8885,74,88,0
699.3937,699.56036,91,92,0
699.56036,699.72705,87,92,0
699.72705,699.8937,79,92,0
699.8937,700.06036,91,92,0
700.06036,700.22705,87,92,0
700.22705,700.3937,79,92,0
700.3937,700.56036,81,92,0
700.56036,700.72705,78,92,0
700.72705,700.8885,69,92,0
701.3937,701.56036,91,92,0
701.56036,701.72705,87,92,0
701.72705,701.8937,79,92,0
701.8937,702.06036,91,92,0
702.06036,702.22705,87,92,0
702.22705,702.3937,79,92,0
702.3937,702.56036,81,92,0
702.56036,702.72705,78,92,0
702.72705,702.8885,69,92,0
703.3937,703.56036,91,92,0
703.56036,703.72705,87,92,0
703.72705,703.8937,79,92,0
703.8937,704.06036,91,92,0
704.06036,704.22705,87,92,0
704.22705,704.3885,79,92,0
704.3937,704.56036,79,92,0
704.56036,704.72705,75,92,0
704.72705,704.8937,67,92,0
704.8937,705.06036,79,92,0
705.06036,705.22705,75,92,0
705.22705,705.3885,67,92,0
705.3937,705.56036,67,92,0
705.56036,705.72705,63,92,0
705.72705,705.8937,55,92,0
705.8937,706.06036,67,92,0
706.06036,706.22705,63,92,0
706.22705,706.3937,55,92,0
706.3937,706.56036,67,92,0
706.56036,706.72705,63,92,0
706.72705,706.8885,55,92,0
706.8937,707.06036,67,92,0
707.06036,707.22705,63,90,0
707.22705,707.3937,55,88,0
707.3937,707.56036,67,86,0
707.56036,707.72705,63,84,0
707.72705,707.8937,55,81,0
707.8937,708.06036,67,78,0
708.06036,708.22705,63,75,0
708.22705,708.3937,55,72,0
708.3937,708.56036,67,69,0
708.56036,708.72705,63,66,0
708.72705,708.8885,55,63,0
708.8937,709.06036,57,60,0
709.06036,709.22705,54,60,0
709.22705,709.3937,57,60,0
709.3937,709.56036,54,60,0
709.56036,709.72705,57,60,0
709.72705,709.8937,54,60,0
709.8937,710.06036,57,60,0
710.06036,710.22705,54,60,0
710.22705,710.3937,57,60,0
710.3937,710.56036,54,60,0
710.56036,710.72705,57,60,0
710.72705,710.8937,54,60,0
710.8937,711.0632,57,60,0
711.0632,711.23267,54,59,0
711.23267,711.40216,57,58,0
711.40216,711.57166,54,57,0
711.57166,711.74115,57,56,0
711.74115,711.91064,54,55,0
711.91064,712.08307,57,54,0
712.08307,712.2555,54,53,0
712.2555,712.4279,57,52,0
712.4279,712.6003,54,51,0
712.6003,712.7727,57,49,0
712.7727,712.9451,54,47,0
712.9451,713.39154,57,45,0
717.488,718.7975,55,60,0
718.91656,719.39276,60,60,0
718.91656,719.39276,72,60,0
719.39276,719.8615,57,62,0
718.91656,719.8615,62,60,0
719.39276,719.8615,69,62,0
719.8615,720.6818,58,64,0
719.8615,720.6818,62,64,0
719.8615,720.6818,70,64,0
720.799,721.26776,63,68,0
720.799,721.26776,75,68,0
721.26776,721.7293,60,70,0
720.799,721.7293,67,68,0
721.26776,721.7293,72,70,0
721.7293,722.537,62,72,0
721.7293,722.537,67,72,0
721.7293,722.537,74,72,0
722.65234,723.1139,69,76,0
722.65234,723.1139,81,76,0
723.1139,723.5684,66,78,0
722.65234,723.5684,70,76,0
723.1139,723.5684,78,78,0
723.5684,724.3639,67,80,0
723.5684,724.3639,70,80,0
723.5684,724.3639,79,80,0
724.47754,724.93207,72,84,0
724.47754,724.93207,84,84,0
724.93207,725.38666,69,86,0
724.47754,725.38666,74,84,0
724.93207,725.38666,81,86,0
725.38666,726.18207,70,88,0
725.38666,726.18207,74,88,0
725.38666,726.18207,82,88,0
726.2957,726.44946,74,92,0
726.45447,726.6082,79,92,0
726.61316,726.76697,74,92,0
726.7719,726.92566,79,92,0
726.93066,727.0844,74,92,0
727.08936,727.24316,79,92,0
726.2957,727.24316,82,92,0
726.2957,727.24316,86,92,0
727.2481,727.40186,70,92,0
727.4068,727.5606,74,91,0
727.56555,727.7193,70,90,0
727.7243,727.87805,74,89,0
727.883,728.0368,70,88,0
728.04175,728.1955,74,87,0
727.2481,728.1955,82,92,0
728.2005,728.35425,67,86,0
728.3592,728.513,70,85,0
728.51794,728.6717,67,84,0
728.6767,728.83813,70,83,0
728.8433,729.0048,67,82,0
729.01,729.17145,70,81,0
728.2005,729.17145,79,86,0
729.1767,729.33813,62,80,0
729.3433,729.5048,67,79,0
729.51,729.67145,62,78,0
729.6767,729.83813,67,77,0
729.8433,730.0048,62,76,0
730.01,730.17145,67,75,0
729.1767,730.17145,74,80,0
730.1767,730.33813,58,74,0
730.3433,730.5048,62,73,0
730.51,730.67145,58,72,0
730.6767,730.8437,62,71,0
730.84906,731.0161,58,70,0
731.0215,731.18854,62,69,0
730.1767,731.18854,70,74,0
731.1939,731.36096,55,68,0
731.36633,731.5333,58,67,0
731.53876,731.70575,55,66,0
731.7111,731.8782,58,65,0
731.88354,732.0506,55,64,0
732.05597,732.223,58,63,0
731.1939,732.223,67,68,0
732.2284,732.39545,50,62,0
732.4008,732.5678,58,61,0
732.57324,732.74023,50,60,0
732.2284,732.74023,62,62,0
732.7456,732.91864,58,59,0
732.9242,733.09717,50,58,0
733.1028,733.27576,58,57,0
733.2814,733.45435,50,56,0
733.4599,733.63293,58,55,0
733.6385,733.81146,50,54,0
732.7456,733.81146,62,59,0
733.8171,734.0108,58,53,0
734.0171,734.2108,50,52,0
734.21704,734.4108,58,51,0
734.41705,734.65924,50,50,0
734.66705,734.90924,58,49,0
733.8171,735.15924,62,53,0
734.91705,738.91705,50,47,0
735.16705,738.91705,58,45,0
735.16705,738.91705,62,45,0
1.90476,2.38095,50,60,0
1.90476,2.38095,62,60,0
2.38095,2.85714,58,60,0
2.85714,3.33333,54,60,0
3.33333,3.730155,55,60,0
3.80952,4.28571,53,60,0
4.28571,4.7619,48,60,0
4.28571,4.7619,60,60,0
4.7619,5.23809,51,60,0
5.23809,5.634915,50,60,0
5.71428,6.19047,48,60,0
6.19047,6.66666,43,60,0
6.19047,6.66666,55,60,0
6.66666,7.14285,46,60,0
7.61904,8.452373,33,60,0
7.14285,8.452373,45,60,0
8.57142,9.404753,38,60,0
9.5238,11.309512,26,60,0
9.5238,11.309512,38,60,0
11.42856,12.261892,28,60,0
11.42856,12.261892,40,60,0
12.38094,13.2142725,29,60,0
12.38094,13.2142725,41,60,0
13.33332,14.166653,33,60,0
13.33332,14.166653,45,60,0
14.2857,15.119033,34,60,0
14.2857,15.119033,46,60,0
15.23808,16.071413,35,60,0
15.23808,16.071413,47,60,0
16.19046,17.023792,36,60,0
16.19046,17.023792,48,60,0
17.14284,17.546064,38,60,0
17.14284,17.546064,50,60,0
17.62671,18.11058,39,60,0
17.62671,18.11058,51,60,0
18.11058,18.602383,36,60,0
18.11058,18.602383,48,60,0
18.602383,19.012218,38,60,0
18.602383,19.012218,50,60,0
19.094187,19.510853,31,60,0
19.094187,19.510853,43,60,0
21.094187,22.046566,65,60,0
21.094187,22.046566,74,60,0
22.046566,22.443392,63,45,0
21.094187,22.443392,70,60,0
22.046566,22.443392,72,45,0
22.998945,23.951326,69,60,0
22.998945,23.951326,75,60,0
22.998945,23.951326,79,60,0
23.951326,24.34815,70,45,0
23.951326,24.34815,74,45,0
23.951326,24.34815,77,45,0
24.903706,25.141802,68,60,0
24.903706,25.141802,77,60,0
25.141802,25.374935,67,60,0
25.141802,25.374935,75,60,0
25.379896,25.61799,67,60,0
25.379896,25.61799,75,60,0
25.61799,25.851126,65,60,0
25.61799,25.851126,74,60,0
25.856087,26.491007,63,60,0
25.856087,26.491007,72,60,0
26.570372,26.803505,65,60,0
26.570372,26.803505,74,60,0
26.808466,27.04656,68,60,0
26.808466,27.04656,77,60,0
27.04656,27.279696,67,60,0
27.04656,27.279696,75,60,0
27.284657,27.52275,67,60,0
27.284657,27.52275,75,60,0
27.52275,27.755886,65,60,0
27.52275,27.755886,74,60,0
27.760845,28.395765,63,60,0
27.760845,28.395765,72,60,0
28.47513,28.708265,65,60,0
28.47513,28.708265,74,60,0
28.713226,28.95132,70,60,0
28.713226,28.95132,79,60,0
28.95132,29.184456,68,60,0
28.95132,29.184456,77,60,0
29.189417,29.427511,68,61,0
29.189417,29.427511,77,61,0
29.427511,29.660646,67,62,0
29.427511,29.660646,76,62,0
29.665606,30.141796,68,63,0
29.665606,30.141796,77,63,0
30.141796,30.374931,67,65,0
30.141796,30.374931,75,65,0
30.617987,31.094175,67,67,0
30.617987,31.094175,75,67,0
31.094175,31.32731,65,69,0
31.094175,31.32731,74,69,0
31.570366,32.046555,65,71,0
31.570366,32.046555,74,71,0
32.046555,32.27969,64,73,0
32.046555,32.27969,73,73,0
32.522747,33.951317,64,75,0
32.522747,33.951317,73,75,0
33.951317,34.34814,63,75,0
33.951317,34.34814,72,75,0
34.427505,35.856075,68,75,0
34.427505,35.856075,71,75,0
35.856075,36.2529,67,75,0
35.856075,36.2529,70,75,0
36.332268,37.04655,65,75,0
36.332268,37.04655,69,75,0
37.04655,37.279686,63,75,0
37.04655,37.279686,67,75,0
37.284645,37.52274,69,75,0
37.284645,37.52274,77,75,0
37.52274,37.760838,67,75,0
37.52274,37.760838,75,75,0
37.760838,37.99893,65,75,0
37.760838,37.99893,74,75,0
37.99893,38.232067,63,75,0
37.99893,38.232067,72,75,0
38.237026,39.22063,62,75,0
38.237026,39.22063,70,75,0
39.22063,39.64436,60,75,0
39.22063,39.64436,69,75,0
40.23758,40.746056,41,92,0
40.23758,40.746056,53,92,0
40.746056,41.254528,53,92,0
40.746056,41.254528,65,92,0
41.254528,41.763,48,75,0
41.254528,41.763,60,75,0
41.763,42.18673,49,75,0
41.763,42.18673,61,75,0
42.271477,42.747665,30,60,0
42.747665,43.223858,42,60,0
43.223858,43.700047,36,60,0
43.700047,44.09687,37,60,0
44.176235,44.652428,30,60,0
44.652428,45.128616,42,60,0
45.128616,45.604805,36,60,0
45.604805,46.001633,37,60,0
46.080997,46.557186,36,60,0
46.557186,47.033375,34,60,0
47.033375,47.509567,32,60,0
47.509567,47.90639,31,60,0
47.509567,47.90639,43,60,0
47.985756,48.38258,30,60,0
47.985756,48.38258,42,60,0
48.461945,48.938137,60,92,0
48.461945,48.938137,63,92,0
48.461945,49.414326,54,92,0
48.938137,49.414326,58,92,0
48.938137,49.414326,62,92,0
49.414326,49.81115,54,92,0
49.414326,49.81115,57,92,0
49.414326,49.81115,60,92,0
49.890514,50.287342,43,92,0
49.890514,50.287342,55,92,0
50.366707,50.76353,39,92,0
50.366707,50.76353,51,92,0
50.842896,51.23972,36,92,0
50.842896,51.23972,48,92,0
51.319084,51.71591,38,92,0
51.319084,51.71591,50,92,0
51.795277,52.1921,43,92,0
51.795277,52.1921,46,92,0
51.795277,52.1921,50,92,0
51.795277,52.1921,55,92,0
53.223846,53.34289,34,92,0
53.34289,53.46194,33,92,0
53.46194,53.58099,34,92,0
53.58099,53.695076,31,92,0
53.700035,54.096863,33,92,0
53.700035,54.096863,45,92,0
55.128605,55.247654,38,75,0
55.247654,55.3667,36,75,0
55.3667,55.48575,38,75,0
55.48575,55.599834,34,75,0
55.604797,56.00162,36,75,0
55.604797,56.00162,48,75,0
57.033367,57.152412,40,60,0
57.152412,57.27146,38,60,0
57.27146,57.390507,40,60,0
57.390507,57.504597,37,60,0
57.985744,58.104794,42,60,0
58.104794,58.223843,40,60,0
58.223843,58.342888,42,60,0
58.342888,58.456974,38,60,0
58.938126,59.057175,43,61,0
59.057175,59.17622,42,61,0
59.17622,59.29527,43,61,0
59.29527,59.409355,40,61,0
59.890507,60.009552,45,62,0
60.009552,60.1286,43,62,0
60.1286,60.24765,45,62,0
60.24765,60.366695,42,62,0
60.366695,60.485744,46,62,0
60.485744,60.60479,45,62,0
60.60479,60.72384,46,62,0
60.72384,60.842888,43,62,0
60.842888,60.961933,48,62,0
60.961933,61.080982,46,62,0
61.080982,61.200027,48,62,0
61.200027,61.314117,45,62,0
61.795265,61.914314,50,64,0
61.914314,62.03336,48,64,0
62.03336,62.15241,50,64,0
62.15241,62.271458,47,64,0
62.271458,62.390503,51,64,0
62.390503,62.509552,50,64,0
62.509552,62.628597,51,64,0
62.628597,62.747646,48,64,0
62.747646,62.866695,53,64,0
62.866695,62.98574,51,64,0
62.98574,63.10479,53,64,0
63.10479,63.218876,50,64,0
63.223835,63.342884,49,64,0
63.223835,63.342884,61,64,0
63.700027,64.176216,37,67,0
63.700027,64.176216,49,67,0
64.176216,64.573044,36,70,0
64.176216,64.573044,48,70,0
64.652405,65.12859,48,73,0
64.652405,65.12859,60,73,0
65.12859,65.52542,46,76,0
65.12859,65.52542,58,76,0
65.60479,65.72383,39,80,0
65.60479,65.72383,51,80,0
66.08098,66.20002,36,84,0
66.08098,66.20002,48,84,0
66.55717,66.676216,38,88,0
66.55717,66.676216,50,88,0
67.033356,67.43018,31,92,0
67.033356,67.43018,43,92,0
67.509544,67.62859,55,92,0
67.62859,67.74764,54,92,0
67.74764,67.861725,55,92,0
67.86669,67.94605,43,92,0
67.98573,68.0651,39,92,0
67.98573,68.0651,51,92,0
68.46193,68.58097,51,92,0
68.58097,68.70002,50,92,0
68.70002,68.81411,51,92,0
68.81907,68.89843,39,92,0
68.93812,69.01748,36,92,0
68.93812,69.01748,48,92,0
69.41431,69.533356,48,92,0
69.533356,69.652405,47,92,0
69.652405,69.76649,48,92,0
69.77145,69.88554,36,92,0
69.890495,69.969864,38,92,0
69.890495,69.969864,50,92,0
70.366684,70.48573,50,92,0
70.48573,70.60478,49,92,0
70.60478,70.718864,50,92,0
70.72383,70.83791,38,92,0
70.84287,70.92224,43,92,0
70.84287,70.92224,55,92,0
71.31907,71.43811,55,92,0
71.43811,71.55716,54,92,0
71.55716,71.67125,55,92,0
71.67621,71.7903,43,92,0
71.79526,71.87462,39,92,0
71.79526,71.87462,51,92,0
72.27145,72.390495,51,92,0
72.390495,72.509544,50,92,0
72.509544,72.62363,51,92,0
72.628586,72.742676,39,92,0
72.747635,72.827,36,92,0
72.747635,72.827,48,92,0
73.22382,73.34287,48,92,0
73.34287,73.46192,47,92,0
73.46192,73.57601,48,92,0
73.58097,73.69505,36,92,0
73.70001,73.77938,38,92,0
73.70001,73.77938,50,92,0
74.17621,74.29525,50,92,0
74.29525,74.4143,49,92,0
74.4143,74.52839,50,92,0
74.53335,74.64744,38,92,0
74.6524,74.73176,39,60,0
74.6524,74.73176,51,60,0
75.128586,75.247635,51,60,0
75.247635,75.366684,50,60,0
75.366684,75.48077,51,60,0
75.485725,75.599815,39,60,0
75.604774,75.68414,34,60,0
75.604774,75.68414,46,60,0
76.08096,76.20001,46,60,0
76.20001,76.31906,45,61,0
76.31906,76.43315,46,62,0
76.43811,76.55219,34,63,0
76.55716,76.63652,31,64,0
76.55716,76.63652,43,64,0
77.03335,77.1524,43,70,0
77.1524,77.27144,42,71,0
77.27144,77.38553,43,72,0
77.39049,77.50458,31,74,0
77.50954,77.5889,32,76,0
77.50954,77.5889,44,76,0
77.985725,78.104774,44,84,0
78.104774,78.22382,43,86,0
78.22382,78.337906,44,88,0
78.342865,78.456955,32,90,0
78.461914,78.69505,33,92,0
78.461914,78.69505,45,92,0
80.36668,80.842865,62,60,0
80.36668,80.842865,67,60,0
80.36668,80.842865,70,60,0
80.842865,81.31905,60,60,0
80.842865,81.31905,66,60,0
80.842865,81.31905,69,60,0
81.31905,81.79524,58,60,0
81.31905,81.79524,62,60,0
81.31905,81.79524,67,60,0
81.79524,82.19207,55,60,0
81.79524,82.19207,62,60,0
81.79524,82.19207,65,60,0
84.17619,84.65239,60,60,0
84.17619,84.65239,65,60,0
84.17619,84.65239,69,60,0
84.65239,85.12858,59,60,0
84.65239,85.12858,62,60,0
84.65239,85.12858,67,60,0
85.12858,85.60477,57,60,0
85.12858,85.60477,60,60,0
85.12858,85.60477,65,60,0
85.60477,86.001595,55,60,0
85.60477,86.001595,62,60,0
87.98572,88.46191,38,60,0
88.46191,88.938095,41,60,0
88.938095,89.41428,47,60,0
89.41428,89.81111,50,60,0
89.89047,90.36667,52,60,0
90.36667,90.84286,50,64,0
90.84286,91.319046,48,68,0
91.319046,91.71587,47,72,0
91.795235,92.27142,45,76,0
92.27142,92.74762,43,80,0
92.74762,93.22381,41,84,0
93.22381,93.62063,40,88,0
93.7,94.096825,33,92,0
93.7,94.096825,45,92,0
94.176186,94.652374,67,92,0
94.176186,95.12856,57,92,0
94.652374,95.12856,65,82,0
95.12856,95.52539,57,71,0
95.12856,95.52539,64,71,0
95.60476,95.84285,65,60,0
95.84285,96.08095,62,60,0
96.08095,96.31904,57,60,0
95.60476,96.43809,38,60,0
95.60476,96.43809,50,60,0
96.31904,96.55218,53,60,0
96.55714,96.795235,64,60,0
96.795235,97.033325,62,60,0
97.033325,97.27142,58,60,0
96.55714,97.390465,50,60,0
97.27142,97.504555,52,60,0
97.509514,97.74761,65,60,0
97.74761,97.9857,62,60,0
97.9857,98.2238,57,60,0
98.2238,98.45693,53,60,0
98.4619,98.69999,57,60,0
97.509514,98.81904,38,60,0
97.509514,98.81904,50,60,0
98.69999,98.93809,53,60,0
98.93809,99.17618,50,60,0
98.93809,99.40932,41,60,0
99.17618,99.40932,45,60,0
99.414276,99.811104,40,60,0
99.890465,100.36665,33,60,0
99.890465,100.36665,45,60,0
100.36665,100.84285,29,60,0
100.36665,100.84285,41,60,0
100.84285,101.23967,26,60,0
100.84285,101.23967,38,60,0
101.31904,102.15237,28,60,0
101.31904,102.15237,40,60,0
102.271416,103.10475,40,60,0
102.271416,103.10475,52,60,0
103.22379,104.05713,33,60,0
103.22379,104.05713,45,60,0
104.41427,104.8855,33,60,0
104.41427,104.8855,45,60,0
104.890465,105.128555,33,81,0
105.604744,105.84284,57,92,0
105.128555,106.00157,26,92,0
105.128555,106.00157,38,92,0
105.84284,106.07597,54,92,0
106.55713,106.79522,63,92,0
106.08093,106.95395,36,92,0
106.08093,106.95395,48,92,0
106.79522,107.02836,57,92,0
107.03332,107.43014,35,92,0
107.03332,107.43014,47,92,0
107.50951,107.668236,62,92,0
107.668236,107.826965,55,92,0
107.826965,107.980736,50,92,0
107.985695,108.38252,34,92,0
107.985695,108.38252,46,92,0
108.46188,108.62061,62,92,0
108.62061,108.77934,55,92,0
108.77934,108.93311,50,92,0
108.93807,109.3349,33,92,0
108.93807,109.3349,45,92,0
109.41427,109.573,62,92,0
109.573,109.73173,57,92,0
109.73173,109.8855,50,92,0
109.89046,110.28728,32,92,0
109.89046,110.28728,44,92,0
110.366646,110.525375,62,92,0
110.525375,110.684105,53,92,0
110.684105,110.837875,50,92,0
110.842834,111.23966,31,92,0
110.842834,111.23966,43,92,0
111.31902,111.47775,62,92,0
111.47775,111.63648,58,89,0
111.63648,111.79025,52,86,0
111.79522,112.19204,33,83,0
111.79522,112.19204,45,83,0
112.27141,112.43014,55,72,0
112.43014,112.58887,52,68,0
112.58887,112.74264,45,64,0
112.7476,113.699974,38,60,0
112.7476,113.699974,50,60,0
113.699974,114.17616,36,60,0
113.699974,114.17616,48,60,0
114.17616,114.57299,34,60,0
114.17616,114.57299,46,60,0
114.65236,115.12855,33,60,0
114.65236,115.12855,45,60,0
115.12855,115.961876,26,60,0
115.12855,115.961876,38,60,0
116.080925,116.47775,29,60,0
116.080925,116.47775,41,60,0
116.55711,116.95394,28,60,0
116.55711,116.95394,40,60,0
117.0333,117.5095,33,60,0
117.0333,117.5095,45,60,0
117.5095,117.98569,29,60,0
117.5095,117.98569,41,60,0
117.98569,118.38251,26,60,0
117.98569,118.38251,38,60,0
118.461876,119.29521,28,60,0
118.461876,119.29521,40,60,0
119.41425,120.24759,40,65,0
119.41425,120.24759,52,65,0
120.36664,121.319016,45,71,0
120.36664,121.319016,57,71,0
121.319016,121.795204,43,77,0
121.319016,121.795204,55,77,0
121.795204,122.19203,41,80,0
121.795204,122.19203,53,80,0
122.27139,122.74759,39,83,0
122.27139,122.74759,51,83,0
122.74759,123.58092,38,86,0
122.74759,123.58092,50,86,0
123.69997,124.096794,36,92,0
123.69997,124.096794,48,92,0
124.176155,125.00949,35,92,0
124.176155,125.00949,47,92,0
125.12853,125.96187,34,92,0
125.12853,125.96187,46,92,0
126.08092,126.914246,33,92,0
126.08092,126.914246,45,92,0
127.033295,127.86663,32,92,0
127.033295,127.86663,44,92,0
127.98568,128.81902,31,92,0
127.98568,128.81902,43,92,0
128.93805,129.7714,33,75,0
128.93805,129.7714,45,75,0
129.89044,130.60472,41,60,0
129.89044,130.60472,53,60,0
130.60472,130.83786,40,60,0
130.60472,130.83786,52,60,0
130.84282,131.08092,45,60,0
130.84282,131.08092,57,60,0
131.08092,131.319,43,60,0
131.08092,131.319,55,60,0
131.319,131.5571,41,60,0
131.319,131.5571,53,60,0
131.5571,131.79024,40,60,0
131.5571,131.79024,52,60,0
131.7952,132.50948,38,60,0
131.7952,132.50948,50,60,0
132.50948,132.74261,40,65,0
132.50948,132.74261,52,65,0
132.74757,133.38249,33,67,0
132.74757,133.38249,45,67,0
133.46187,133.69499,43,73,0
133.46187,133.69499,55,73,0
133.69995,134.41425,41,75,0
133.69995,134.41425,53,75,0
134.41425,134.64737,40,75,0
134.41425,134.64737,52,75,0
134.65233,134.89043,45,75,0
134.65233,134.89043,57,75,0
134.89043,135.12852,43,75,0
134.89043,135.12852,55,75,0
135.12852,135.36662,41,75,0
135.12852,135.36662,53,75,0
135.36662,135.59976,38,75,0
135.36662,135.59976,50,75,0
135.60472,135.8428,46,75,0
135.60472,135.8428,58,75,0
135.8428,136.0809,45,75,0
135.8428,136.0809,57,75,0
136.0809,136.319,43,75,0
136.0809,136.319,55,75,0
136.319,136.55214,40,75,0
136.319,136.55214,52,75,0
136.5571,136.7952,48,75,0
136.5571,136.7952,60,75,0
136.7952,137.03328,46,75,0
136.7952,137.03328,58,75,0
137.03328,137.27138,45,75,0
137.03328,137.27138,57,75,0
137.27138,137.50452,41,75,0
137.27138,137.50452,53,75,0
137.50948,138.22375,48,75,0
137.50948,138.22375,60,75,0
138.22375,138.4569,47,75,0
138.22375,138.4569,59,75,0
138.46185,138.69995,52,75,0
138.46185,138.69995,64,75,0
138.69995,138.93805,50,75,0
138.69995,138.93805,62,75,0
138.93805,139.17615,48,75,0
138.93805,139.17615,60,75,0
139.17615,139.40927,47,75,0
139.17615,139.40927,59,75,0
139.41423,140.12852,48,75,0
139.41423,140.12852,60,75,0
140.12852,140.36165,47,75,0
140.12852,140.36165,59,75,0
140.36662,140.6047,52,75,0
140.36662,140.6047,64,75,0
140.6047,140.8428,50,75,0
140.6047,140.8428,62,75,0
140.8428,141.0809,48,75,0
140.8428,141.0809,60,75,0
141.0809,141.31404,45,75,0
141.0809,141.31404,57,75,0
141.319,141.5571,53,75,0
141.319,141.5571,65,75,0
141.5571,141.79518,52,77,0
141.5571,141.79518,64,77,0
141.79518,142.03328,50,79,0
141.79518,142.03328,62,79,0
142.03328,142.26642,47,81,0
142.03328,142.26642,59,81,0
142.27138,142.50948,55,83,0
142.27138,142.50948,67,83,0
142.50948,142.74756,53,85,0
142.50948,142.74756,65,85,0
142.74756,142.98566,52,87,0
142.74756,142.98566,64,87,0
142.98566,143.2188,48,89,0
142.98566,143.2188,60,89,0
143.22375,143.4569,52,92,0
143.22375,143.4569,62,92,0
143.46185,143.93307,64,92,0
143.46185,143.93307,74,92,0
143.93803,144.01741,51,92,0
143.93803,144.01741,62,92,0
144.17613,144.41423,46,92,0
144.17613,144.41423,58,92,0
144.41423,144.65233,45,92,0
144.41423,144.65233,57,92,0
144.65233,144.88547,43,92,0
144.65233,144.88547,55,92,0
144.89043,144.96979,31,92,0
144.89043,144.96979,43,92,0
145.12851,145.20789,52,92,0
145.12851,145.20789,62,92,0
145.36661,145.83784,64,92,0
145.36661,145.83784,74,92,0
145.8428,145.92216,51,92,0
145.8428,145.92216,62,92,0
146.0809,146.31898,47,92,0
146.0809,146.31898,59,92,0
146.31898,146.55708,45,92,0
146.31898,146.55708,57,92,0
146.55708,146.79022,44,92,0
146.55708,146.79022,56,92,0
146.79518,146.87454,32,92,0
146.79518,146.87454,44,92,0
147.03328,147.4301,33,92,0
147.03328,147.4301,45,92,0
147.50946,147.74756,64,92,0
147.74756,147.98566,52,90,0
147.98566,148.22375,61,88,0
148.22375,148.46185,49,86,0
148.46185,148.69994,55,84,0
148.69994,148.93307,43,82,0
148.93803,149.17998,52,80,0
149.17998,149.4219,40,78,0
149.4219,149.6678,49,76,0
149.6678,149.91371,37,74,0
149.91371,150.16371,43,72,0
150.16371,150.41371,31,69,0
150.41371,150.67233,40,66,0
150.67233,150.92557,33,63,0
150.93095,151.17574,38,60,0
151.18095,151.42574,33,60,0
151.43095,151.67574,38,60,0
151.68095,151.92574,33,62,0
151.93095,152.17574,40,64,0
152.18095,152.42574,33,66,0
152.43095,152.67574,41,68,0
152.68095,152.92574,33,70,0
152.93095,153.17574,42,72,0
153.18095,153.42574,33,74,0
153.43095,153.67574,43,76,0
153.68095,153.92574,33,78,0
153.93095,154.17574,45,80,0
154.18095,154.42574,33,83,0
154.43095,154.67574,47,86,0
154.68095,154.92574,33,89,0
154.93095,155.17574,50,92,0
155.18095,155.42574,33,92,0
155.43095,155.67574,49,92,0
155.68095,155.92574,33,92,0
155.93095,156.17574,45,92,0
156.18095,156.42574,33,92,0
156.43095,156.67574,43,92,0
156.68095,156.92574,33,92,0
156.93095,157.17574,42,92,0
157.18095,157.42574,33,92,0
157.43095,157.67574,41,88,0
157.68095,157.92574,33,84,0
157.93095,158.17574,40,80,0
158.18095,158.42574,33,75,0
158.43095,158.67574,37,70,0
158.68095,158.92574,33,65,0
158.93095,159.17574,38,60,0
159.18095,159.42574,33,60,0
159.43095,159.67574,38,60,0
159.68095,159.92574,33,60,0
159.93095,160.18095,45,60,0
160.18095,160.43095,33,63,0
160.43095,160.68095,38,67,0
160.68095,160.92574,26,71,0
160.93095,161.18095,38,75,0
161.18095,161.43095,26,75,0
161.43095,161.68095,38,75,0
161.68095,161.93095,26,75,0
161.93095,162.18095,38,75,0
162.18095,162.43095,26,75,0
162.43095,162.68095,38,75,0
162.68095,162.92574,26,75,0
162.93095,163.18095,43,75,0
163.18095,163.43095,31,75,0
163.43095,163.68095,43,75,0
163.68095,163.93095,31,75,0
163.93095,164.18095,44,75,0
164.18095,164.43095,32,72,0
164.43095,164.68095,44,68,0
164.68095,164.92574,32,64,0
164.93095,165.18095,45,60,0
165.18095,165.43095,33,60,0
165.43095,165.68095,45,60,0
165.68095,165.93095,33,60,0
165.93095,166.18095,45,60,0
166.18095,166.43095,33,60,0
166.43095,166.68095,57,60,0
166.68095,166.92574,45,60,0
166.93095,167.93095,50,60,0
166.93095,167.93095,62,60,0
167.93095,168.43095,49,60,0
167.93095,168.43095,61,60,0
168.43095,168.93095,47,60,0
168.43095,168.93095,59,60,0
168.93095,169.34761,45,60,0
168.93095,169.34761,57,60,0
169.43095,169.93095,38,60,0
169.43095,169.93095,50,60,0
169.93095,170.43095,36,64,0
169.93095,170.43095,48,64,0
170.43095,170.84761,34,68,0
170.43095,170.84761,46,68,0
170.93095,171.43095,33,72,0
170.93095,171.43095,45,72,0
171.43095,171.93095,32,77,0
171.43095,171.93095,44,77,0
171.93095,172.43095,31,82,0
171.93095,172.43095,43,82,0
172.43095,172.84761,29,87,0
172.43095,172.84761,41,87,0
172.93095,173.43095,25,92,0
172.93095,173.43095,37,92,0
173.43095,173.93095,26,92,0
173.43095,173.93095,38,92,0
173.93095,174.43095,28,92,0
173.93095,174.43095,40,92,0
174.43095,174.84761,29,92,0
174.43095,174.84761,41,92,0
174.93095,175.80595,31,92,0
174.93095,175.80595,43,92,0
175.93095,176.80595,24,92,0
175.93095,176.80595,36,92,0
176.93095,177.34761,29,92,0
176.93095,177.34761,41,92,0
177.43095,177.93095,45,92,0
177.43095,177.93095,57,92,0
177.93095,178.43095,47,92,0
177.93095,178.43095,59,92,0
178.43095,178.93095,49,92,0
178.43095,178.93095,61,92,0
178.93095,179.43095,50,92,0
178.93095,179.43095,62,92,0
179.43095,179.93095,49,92,0
179.43095,179.93095,61,92,0
179.93095,180.43095,47,92,0
179.93095,180.43095,59,92,0
180.43095,180.84761,52,92,0
180.43095,180.84761,64,92,0
180.93095,181.34761,45,92,0
180.93095,181.34761,57,92,0
181.43095,181.93095,57,92,0
181.43095,181.93095,61,92,0
181.93095,182.43095,59,92,0
181.93095,182.43095,62,92,0
182.43095,182.93095,61,92,0
182.43095,182.93095,64,92,0
182.93095,183.43095,62,92,0
182.93095,183.43095,66,92,0
183.43095,183.93095,61,92,0
183.43095,183.93095,64,92,0
183.93095,184.43095,62,92,0
183.93095,184.43095,66,92,0
184.43095,184.84761,59,92,0
184.43095,184.84761,68,92,0
184.93095,185.34761,57,92,0
184.93095,185.34761,64,92,0
184.93095,185.34761,69,92,0
185.43095,185.93095,45,92,0
185.43095,185.93095,57,92,0
185.93095,186.43095,47,92,0
185.93095,186.43095,59,92,0
186.43095,186.93095,49,92,0
186.43095,186.93095,61,92,0
186.93095,187.34761,50,92,0
186.93095,187.34761,62,92,0
187.43095,187.93095,38,92,0
187.43095,187.93095,50,92,0
187.93095,188.43095,40,92,0
187.93095,188.43095,52,92,0
188.43095,188.84761,42,92,0
188.43095,188.84761,54,92,0
188.93095,189.34761,43,92,0
188.93095,189.34761,55,92,0
189.43095,190.30595,31,92,0
189.43095,190.30595,43,92,0
190.43095,190.84761,31,92,0
190.43095,190.84761,43,92,0
190.93095,191.80595,33,92,0
190.93095,191.80595,45,92,0
191.93095,192.80595,33,92,0
191.93095,192.80595,45,92,0
192.93095,193.80595,33,92,0
192.93095,193.80595,45,92,0
193.93095,194.80595,45,92,0
193.93095,194.80595,57,92,0
194.93095,195.80595,38,92,0
194.93095,195.80595,45,92,0
195.93095,196.80595,38,92,0
195.93095,196.80595,45,92,0
196.93095,197.80595,38,92,0
196.93095,197.80595,45,92,0
197.93095,198.80595,38,92,0
197.93095,198.80595,45,92,0
198.93095,199.80595,37,92,0
198.93095,199.80595,45,92,0
199.93095,200.80595,37,92,0
199.93095,200.80595,45,92,0
200.93095,201.80595,37,92,0
200.93095,201.80595,45,92,0
201.93095,202.80595,37,92,0
201.93095,202.80595,45,92,0
202.93095,203.80595,38,92,0
202.93095,203.80595,45,92,0
203.93095,204.80595,31,92,0
203.93095,204.80595,43,92,0
204.93095,205.80595,33,92,0
204.93095,205.80595,45,92,0
205.93095,206.80595,33,92,0
205.93095,206.80595,45,92,0
206.93095,207.80595,38,92,0
206.93095,207.80595,45,92,0
207.93095,208.80595,38,92,0
207.93095,208.80595,45,92,0
208.93095,209.80595,38,92,0
208.93095,209.80595,45,92,0
209.93095,210.80595,38,92,0
209.93095,210.80595,45,92,0
210.93095,211.80595,38,92,0
210.93095,211.80595,48,92,0
211.93095,212.80595,38,92,0
211.93095,212.80595,48,92,0
211.93095,212.80595,50,92,0
212.93095,213.80595,38,92,0
212.93095,213.80595,48,92,0
212.93095,213.80595,50,92,0
213.93095,214.80595,38,92,0
213.93095,214.80595,48,92,0
213.93095,214.80595,50,92,0
214.93095,215.80595,38,92,0
214.93095,215.80595,47,92,0
214.93095,215.80595,50,92,0
215.93095,216.80595,38,92,0
215.93095,216.80595,45,92,0
215.93095,216.80595,50,92,0
216.93095,217.80595,31,92,0
216.93095,217.80595,43,92,0
217.93095,218.80595,33,92,0
217.93095,218.80595,45,92,0
218.93095,220.80595,35,92,0
218.93095,220.80595,47,92,0
220.93095,221.68095,35,60,0
220.93095,221.68095,47,60,0
221.68095,221.92574,37,60,0
221.68095,221.92574,49,60,0
221.93095,222.43095,37,60,0
221.93095,222.43095,49,60,0
222.43095,222.84761,35,60,0
222.43095,222.84761,47,60,0
222.93095,223.68095,37,60,0
222.93095,223.68095,49,60,0
223.68095,223.92574,38,64,0
223.68095,223.92574,50,64,0
223.93095,224.43095,38,65,0
223.93095,224.43095,50,65,0
224.43095,224.84761,37,67,0
224.43095,224.84761,49,67,0
224.93095,225.68095,39,69,0
224.93095,225.68095,51,69,0
225.68095,225.92574,40,73,0
225.68095,225.92574,52,73,0
225.93095,226.43095,40,74,0
225.93095,226.43095,52,74,0
226.43095,226.84761,39,77,0
226.43095,226.84761,51,77,0
226.93095,227.68095,40,80,0
226.93095,227.68095,52,80,0
227.68095,227.92574,42,84,0
227.68095,227.92574,54,84,0
227.93095,228.43095,42,85,0
227.93095,228.43095,54,85,0
228.43095,228.84761,38,88,0
228.43095,228.84761,50,88,0
228.93095,229.80595,43,92,0
228.93095,229.80595,55,92,0
229.93095,230.80595,31,92,0
229.93095,230.80595,43,92,0
230.93095,231.80595,33,92,0
230.93095,231.80595,45,92,0
231.93095,232.80595,33,76,0
231.93095,232.80595,45,76,0
232.93095,234.80595,35,60,0
232.93095,234.80595,47,60,0
234.93095,235.68095,35,60,0
234.93095,235.68095,47,60,0
235.68095,235.92574,37,60,0
235.68095,235.92574,49,60,0
235.93095,236.43095,37,60,0
235.93095,236.43095,49,60,0
236.43095,236.84761,35,60,0
236.43095,236.84761,47,60,0
236.93095,237.68095,37,60,0
236.93095,237.68095,49,60,0
237.68095,237.92574,38,64,0
237.68095,237.92574,50,64,0
237.93095,238.43095,38,65,0
237.93095,238.43095,50,65,0
238.43095,238.84761,37,67,0
238.43095,238.84761,49,67,0
238.93095,239.68095,39,69,0
238.93095,239.68095,51,69,0
239.68095,239.92574,40,73,0
239.68095,239.92574,52,73,0
239.93095,240.43095,40,74,0
239.93095,240.43095,52,74,0
240.43095,240.84761,39,77,0
240.43095,240.84761,51,77,0
240.93095,241.68095,40,80,0
240.93095,241.68095,52,80,0
241.68095,241.92574,42,84,0
241.68095,241.92574,54,84,0
241.93095,242.43095,42,85,0
241.93095,242.43095,54,85,0
242.43095,242.84761,38,88,0
242.43095,242.84761,50,88,0
242.93095,243.80595,43,92,0
242.93095,243.80595,55,92,0
243.93095,244.80595,31,75,0
243.93095,244.80595,43,75,0
244.93095,245.80595,33,60,0
244.93095,245.80595,45,60,0
245.93095,246.80595,33,60,0
245.93095,246.80595,45,60,0
246.93095,248.80595,33,60,0
246.93095,248.80595,45,60,0
248.93095,250.30595,31,60,0
248.93095,250.30595,43,60,0
250.43095,251.34761,32,60,0
250.43095,251.34761,44,60,0
251.43095,252.30595,33,60,0
251.43095,252.30595,45,60,0
252.43095,252.84761,33,60,0
252.43095,252.84761,45,60,0
252.93095,253.43095,38,60,0
252.93095,253.43095,50,60,0
253.43095,253.93095,59,75,0
253.93095,254.43095,56,75,0
254.43095,256.80594,57,60,0
256.93094,257.43094,50,60,0
257.43094,257.93094,58,75,0
257.93094,258.43094,56,75,0
258.43094,260.80594,57,60,0
260.93094,261.43094,50,60,0
261.43094,261.93094,60,60,0
261.93094,262.43094,57,60,0
262.43094,264.80594,58,60,0
264.93094,265.43094,57,100,0
265.43094,266.80594,58,74,0
266.93094,267.43094,57,81,0
267.43094,268.80594,58,83,0
268.93094,269.43094,58,92,0
269.43094,270.80594,57,75,0
271.93094,272.34763,31,75,0
271.93094,272.34763,43,75,0
272.93094,273.34763,33,71,0
272.93094,273.34763,45,71,0
273.93094,274.34763,33,66,0
273.93094,274.34763,45,66,0
274.93094,275.34763,38,60,0
276.93094,277.18094,38,60,0
277.18094,277.43094,42,65,0
277.43094,277.68094,45,70,0
277.68094,277.93094,49,75,0
277.93094,278.18094,52,80,0
278.18094,278.43094,57,86,0
278.43094,278.68094,62,92,0
278.68094,278.92575,50,60,0
280.93094,281.18094,38,60,0
281.18094,281.43094,41,65,0
281.43094,281.68094,45,70,0
281.68094,281.93094,49,75,0
281.93094,282.18094,52,80,0
282.18094,282.43094,57,86,0
282.43094,282.68094,62,92,0
282.68094,282.92575,50,60,0
284.93094,285.18094,39,60,0
285.18094,285.43094,43,65,0
285.43094,285.68094,46,70,0
285.68094,285.93094,50,75,0
285.93094,286.18094,53,80,0
286.18094,286.43094,58,86,0
286.43094,286.68094,63,92,0
286.68094,286.92575,51,60,0
287.93094,288.18094,50,92,0
288.18094,288.43094,58,92,0
288.43094,288.68094,63,75,0
288.68094,288.92575,51,60,0
289.93094,290.18094,50,92,0
290.18094,290.43094,58,75,0
290.43094,290.68094,64,75,0
290.68094,290.92575,49,60,0
291.93094,292.18094,49,92,0
292.18094,292.43094,57,92,0
292.43094,292.68094,63,75,0
292.68094,292.92575,48,60,0
293.93094,294.18094,48,60,0
294.18094,294.43094,56,61,0
294.43094,294.68094,62,62,0
294.68094,294.92575,47,63,0
295.43094,295.68094,62,67,0
295.68094,295.92575,46,68,0
296.43094,296.68094,62,72,0
296.68094,296.92575,45,74,0
297.43094,297.68094,62,80,0
297.68094,297.92575,44,82,0
297.93094,298.18094,43,84,0
298.18094,298.42575,58,86,0
298.43094,298.67575,61,88,0
298.93094,299.18094,42,92,0
299.18094,299.42575,57,92,0
299.43094,299.67575,58,92,0
299.93094,300.18094,43,92,0
300.18094,300.42575,55,92,0
300.43094,300.67575,59,92,0
300.93094,301.18094,43,92,0
301.18094,301.43094,55,92,0
301.43094,301.67575,59,92,0
301.93094,302.18094,44,92,0
302.18094,302.43094,56,92,0
302.43094,302.67575,59,92,0
302.93094,303.01428,45,92,0
302.93094,303.01428,57,92,0
303.18094,303.35803,62,92,0
303.18094,303.35803,66,92,0
303.43094,303.60803,66,92,0
303.43094,303.60803,69,92,0
303.68094,303.76428,62,92,0
303.68094,303.76428,66,92,0
303.93094,304.10803,57,92,0
303.93094,304.10803,62,92,0
304.18094,304.35803,54,92,0
304.18094,304.35803,57,92,0
304.43094,304.60803,50,92,0
304.43094,304.60803,54,92,0
304.68094,304.76428,47,92,0
304.68094,304.76428,50,92,0
304.68094,304.76428,55,92,0
304.93094,305.43094,45,92,0
304.93094,305.43094,50,92,0
304.93094,305.43094,54,92,0
304.93094,305.43094,57,92,0
305.43094,305.93094,50,92,0
305.43094,305.93094,53,92,0
305.43094,305.93094,56,92,0
305.93094,306.80594,45,75,0
305.93094,306.80594,52,75,0
305.93094,306.80594,55,75,0
307.18518,307.36526,50,60,0
307.18518,307.36526,54,60,0
307.43942,307.6195,54,60,0
307.43942,307.6195,57,60,0
307.69366,307.7784,50,60,0
307.69366,307.7784,53,60,0
307.9479,308.83774,45,60,0
307.9479,308.83774,52,60,0
309.22348,309.40665,50,60,0
309.22348,309.40665,54,60,0
309.4821,309.66528,54,60,0
309.4821,309.66528,57,60,0
309.74072,309.8269,38,60,0
309.74072,309.8269,50,60,0
309.99933,310.9045,39,60,0
309.99933,310.9045,51,60,0
311.30167,311.4914,50,60,0
311.30167,311.4914,54,60,0
311.56952,311.75925,54,60,0
311.56952,311.75925,57,60,0
311.83737,311.92667,38,60,0
311.83737,311.92667,50,60,0
312.10522,313.04272,39,60,0
312.10522,313.04272,51,60,0
313.17667,313.63123,38,60,0
313.17667,313.63123,50,60,0
316.0007,316.47687,50,60,0
316.0007,316.47687,62,60,0
316.47687,316.95306,58,75,0
316.95306,317.42926,54,92,0
317.42926,317.82608,55,60,0
317.90546,318.38165,53,92,0
318.38165,318.85782,48,92,0
318.38165,318.85782,60,92,0
318.85782,319.334,51,75,0
319.334,319.73083,50,60,0
319.8102,320.2864,48,60,0
320.2864,320.7626,43,60,0
320.2864,320.7626,55,60,0
320.7626,321.23877,46,60,0
321.71497,322.5483,33,60,0
321.23877,322.5483,45,60,0
322.66736,323.50067,38,60,0
323.61972,325.40546,26,60,0
323.61972,325.40546,38,60,0
325.5245,326.35782,28,60,0
325.5245,326.35782,40,60,0
326.47687,327.3102,29,60,0
326.47687,327.3102,41,60,0
327.42926,328.26257,33,60,0
327.42926,328.26257,45,60,0
328.38162,329.21497,34,75,0
328.38162,329.21497,46,75,0
329.334,330.16736,35,92,0
329.334,330.16736,47,92,0
330.28638,331.11972,36,75,0
330.28638,331.11972,48,75,0
331.23877,331.6356,38,75,0
331.23877,331.6356,50,75,0
331.71497,332.19116,39,72,0
331.71497,332.19116,51,72,0
332.19116,332.66733,36,68,0
332.19116,332.66733,48,68,0
332.66733,333.06418,38,64,0
332.66733,333.06418,50,64,0
333.14352,333.54034,31,60,0
333.14352,333.54034,43,60,0
335.04828,336.00067,60,84,0
335.04828,336.00067,63,84,0
336.00067,336.3975,59,60,0
336.00067,336.3975,65,60,0
336.95306,337.90543,59,84,0
336.95306,337.90543,65,84,0
337.90543,338.30225,60,60,0
337.90543,338.30225,64,60,0
338.85782,339.09094,58,60,0
338.85782,339.09094,67,60,0
339.09592,339.32904,56,60,0
339.09592,339.32904,65,60,0
339.334,339.56714,56,60,0
339.334,339.56714,65,60,0
339.57208,339.80524,55,60,0
339.57208,339.80524,63,60,0
339.81018,340.04333,56,60,0
340.04828,340.28143,55,60,0
339.81018,340.28143,62,60,0
340.28638,340.52448,55,60,0
340.52448,340.7576,53,60,0
340.76257,341.00067,56,60,0
340.76257,341.00067,65,60,0
341.00067,341.2338,55,60,0
341.00067,341.2338,63,60,0
341.23877,341.47687,55,60,0
341.23877,341.47687,63,60,0
341.47687,341.71,53,60,0
341.47687,341.71,62,60,0
341.71497,341.95303,56,60,0
341.95303,342.1862,55,60,0
341.71497,342.1862,62,60,0
342.19113,342.42923,55,60,0
342.42923,342.66238,53,60,0
342.66733,342.90543,60,60,0
342.66733,342.90543,63,60,0
342.90543,343.13855,58,60,0
342.90543,343.13855,62,60,0
343.14352,343.38162,58,60,0
343.14352,343.38162,62,60,0
343.38162,343.61475,57,60,0
343.38162,343.61475,60,60,0
343.61972,343.85782,57,60,0
343.85782,344.09094,55,60,0
343.61972,344.09094,60,60,0
344.0959,344.33398,55,60,0
344.33398,344.56714,54,60,0
344.57208,344.81018,60,60,0
344.57208,344.81018,63,60,0
344.81018,345.04333,58,60,0
344.81018,345.04333,62,60,0
345.04828,345.28638,58,60,0
345.04828,345.28638,62,60,0
345.28638,345.5195,57,60,0
345.28638,345.5195,60,60,0
345.52448,345.76257,57,60,0
345.76257,345.9957,55,60,0
345.52448,345.9957,60,60,0
346.00067,346.23877,55,60,0
346.23877,346.4719,54,60,0
346.47684,346.71494,60,60,0
346.71494,346.9481,55,60,0
346.95303,347.19113,55,60,0
347.19113,347.4243,51,60,0
347.42923,347.66733,51,60,0
347.66733,347.90045,48,60,0
347.90543,348.14352,48,60,0
348.14352,348.37665,43,60,0
348.38162,348.8578,43,60,0
348.8578,349.81018,32,60,0
348.8578,349.81018,44,60,0
349.81018,350.207,31,60,0
349.81018,350.207,43,60,0
349.81018,350.207,55,60,0
350.28638,351.23874,29,60,0
350.28638,351.23874,41,60,0
350.28638,351.23874,53,60,0
351.23874,352.07208,27,60,0
351.23874,352.07208,39,60,0
351.23874,352.07208,51,60,0
352.19113,353.97684,26,60,0
352.19113,353.97684,38,60,0
352.19113,353.97684,50,60,0
354.0959,355.8816,38,75,0
354.0959,355.8816,50,75,0
356.00064,356.2338,26,92,0
356.00064,356.2338,38,92,0
356.47684,356.71494,60,92,0
356.71494,356.95303,48,92,0
356.95303,357.19113,57,92,0
357.19113,357.42923,45,92,0
357.42923,357.66733,54,92,0
357.66733,357.90543,42,92,0
357.90543,358.1513,51,92,0
358.1513,358.39722,39,88,0
358.39722,358.64313,48,84,0
358.64313,358.889,36,80,0
358.889,359.139,45,76,0
359.139,359.389,33,72,0
359.389,359.64325,42,68,0
359.64325,359.89218,30,64,0
359.8975,361.6832,31,60,0
359.8975,361.6832,43,60,0
361.80225,363.58795,29,75,0
361.80225,363.58795,41,75,0
363.707,363.94016,28,92,0
363.707,363.94016,40,92,0
364.1832,364.4213,62,92,0
364.4213,364.6594,50,92,0
364.6594,364.8975,59,92,0
364.8975,365.1356,47,92,0
365.1356,365.3737,56,92,0
365.3737,365.6118,44,92,0
365.6118,365.85767,50,92,0
365.85767,366.10358,38,88,0
366.10358,366.3495,47,84,0
366.3495,366.59537,35,80,0
366.59537,366.8496,44,76,0
366.8496,367.10385,32,72,0
367.10385,367.367,38,68,0
367.367,367.6247,26,64,0
367.63016,368.06876,25,60,0
367.63016,368.06876,37,60,0
367.63016,368.06876,49,60,0
368.1565,368.5533,49,92,0
368.1565,368.5533,52,92,0
368.1565,368.5533,57,92,0
368.63266,369.0295,36,92,0
368.63266,369.0295,48,92,0
369.10886,369.50568,48,92,0
369.10886,369.50568,52,92,0
369.10886,369.50568,57,92,0
369.58505,369.98187,35,92,0
369.58505,369.98187,47,92,0
370.06125,370.45807,47,92,0
370.06125,370.45807,54,92,0
370.06125,370.45807,59,92,0
370.53745,370.93427,28,92,0
370.53745,370.93427,40,92,0
371.0136,371.41043,47,92,0
371.0136,371.41043,52,92,0
371.0136,371.41043,59,92,0
371.4898,371.88663,35,92,0
371.4898,371.88663,47,92,0
371.966,372.36282,47,92,0
371.966,372.36282,50,92,0
371.966,372.36282,55,92,0
372.4422,372.83902,34,92,0
372.4422,372.83902,46,92,0
372.9184,373.31522,46,92,0
372.9184,373.31522,50,92,0
372.9184,373.31522,55,92,0
373.39456,373.79138,33,92,0
373.39456,373.79138,45,92,0
373.87076,374.26758,45,92,0
373.87076,374.26758,52,92,0
373.87076,374.26758,57,92,0
374.34695,374.74377,38,92,0
374.34695,374.74377,50,92,0
374.82315,375.21997,45,92,0
374.82315,375.21997,50,92,0
374.82315,375.21997,57,92,0
375.29932,375.69617,26,92,0
375.29932,375.69617,38,92,0
375.7755,376.17233,50,92,0
375.7755,376.17233,57,92,0
375.7755,376.17233,62,92,0
376.2517,376.64853,52,86,0
376.2517,376.64853,56,86,0
376.2517,376.64853,59,86,0
376.7279,377.12473,28,80,0
376.7279,377.12473,40,80,0
376.7279,377.12473,52,80,0
376.7279,377.12473,56,80,0
376.7279,377.12473,59,80,0
377.2041,377.60092,26,74,0
377.2041,377.60092,38,74,0
377.2041,377.60092,53,74,0
377.2041,377.60092,57,74,0
377.2041,377.60092,62,74,0
377.68027,378.07712,50,67,0
377.68027,378.07712,57,67,0
377.68027,378.07712,62,67,0
378.15646,378.55328,52,60,0
378.15646,378.55328,56,60,0
378.15646,378.55328,59,60,0
378.63266,379.02948,28,60,0
378.63266,379.02948,40,60,0
378.63266,379.02948,52,60,0
378.63266,379.02948,56,60,0
378.63266,379.02948,59,60,0
379.10886,379.50568,26,60,0
379.10886,379.50568,38,60,0
379.10886,379.50568,53,60,0
379.10886,379.50568,57,60,0
379.10886,379.50568,62,60,0
379.58505,379.98187,50,92,0
379.58505,379.98187,53,92,0
379.58505,379.98187,57,92,0
379.58505,379.98187,65,92,0
381.0136,381.41043,28,92,0
381.0136,381.41043,40,92,0
381.4898,381.7279,62,92,0
381.7279,381.966,59,87,0
381.966,382.20407,56,82,0
382.20407,382.44217,53,77,0
382.44217,382.68027,50,72,0
382.68027,382.91342,47,66,0
382.91837,383.15152,33,60,0
382.91837,383.15152,45,60,0
383.39456,383.87076,57,60,0
383.39456,383.87076,60,60,0
383.87076,384.34695,59,60,0
383.87076,384.34695,62,60,0
384.34695,384.74377,60,60,0
384.34695,384.74377,64,60,0
384.82312,385.7755,57,60,0
384.82312,385.7755,60,60,0
385.7755,386.2517,59,60,0
385.7755,386.2517,62,60,0
386.2517,386.64853,60,60,0
386.2517,386.64853,64,60,0
386.7279,388.15646,59,60,0
386.7279,388.15646,62,60,0
387.20407,388.15646,67,60,0
388.15646,388.55328,60,60,0
388.15646,388.55328,64,60,0
388.63266,390.06122,59,60,0
388.63266,390.06122,62,60,0
389.10886,390.06122,67,60,0
390.06122,390.45804,60,60,0
390.06122,390.45804,64,60,0
390.5374,391.96597,62,60,0
390.5374,391.96597,66,60,0
391.0136,391.96597,69,60,0
391.96597,392.3628,62,60,0
391.96597,392.3628,67,60,0
392.44217,393.87073,62,60,0
392.44217,393.87073,66,60,0
392.91837,393.87073,69,60,0
393.87073,394.26758,63,60,0
393.87073,394.26758,66,60,0
394.34692,394.82312,56,60,0
394.34692,394.82312,64,60,0
394.82312,395.7755,59,60,0
394.82312,395.7755,66,60,0
395.7755,396.17233,64,60,0
395.7755,396.17233,68,60,0
396.25168,396.72787,56,60,0
396.25168,396.72787,64,60,0
396.72787,397.68027,59,60,0
396.72787,397.68027,66,60,0
397.68027,398.0771,64,60,0
397.68027,398.0771,68,60,0
398.15646,398.63263,62,60,0
398.15646,398.63263,64,60,0
398.15646,398.63263,71,60,0
398.63263,399.58502,60,60,0
398.63263,399.58502,64,60,0
398.63263,399.58502,69,60,0
399.58502,399.98184,59,60,0
399.58502,399.98184,68,60,0
401.96597,402.44217,40,45,0
401.96597,402.44217,52,45,0
402.44217,402.91837,48,45,0
402.44217,402.91837,60,45,0
402.91837,403.39453,44,45,0
402.91837,403.39453,56,45,0
403.39453,403.79135,45,45,0
403.39453,403.79135,57,45,0
403.87073,404.26755,53,45,0
403.87073,404.26755,65,45,0
404.34692,404.58005,48,45,0
404.34692,404.58005,60,45,0
404.58502,404.81815,45,45,0
404.58502,404.81815,57,45,0
404.82312,405.2993,41,45,0
404.82312,405.2993,53,45,0
405.2993,405.69614,40,45,0
405.2993,405.69614,52,45,0
405.77548,406.60883,39,45,0
405.77548,406.60883,51,45,0
406.72787,407.20407,28,60,0
406.72787,407.20407,40,60,0
407.20407,407.68024,40,60,0
407.20407,407.68024,52,60,0
407.68024,408.15643,37,60,0
407.68024,408.15643,49,60,0
408.15643,408.55325,38,60,0
408.15643,408.55325,50,60,0
408.63263,409.10883,26,60,0
408.63263,409.10883,38,60,0
409.10883,409.50565,38,60,0
409.10883,409.50565,50,60,0
409.58502,410.0612,35,60,0
409.58502,410.0612,47,60,0
410.0612,410.45804,36,60,0
410.0612,410.45804,48,60,0
410.53738,410.9342,37,60,0
410.53738,410.9342,49,60,0
411.01358,411.4104,38,60,0
411.01358,411.4104,50,60,0
411.48978,411.8866,49,62,0
411.48978,411.8866,61,62,0
411.96597,412.3628,50,64,0
411.96597,412.3628,62,64,0
412.44214,412.839,38,66,0
412.44214,412.839,50,66,0
412.91833,413.31516,39,68,0
412.91833,413.31516,51,68,0
413.39453,413.79135,50,70,0
413.39453,413.79135,62,70,0
413.87073,414.26755,51,72,0
413.87073,414.26755,63,72,0
414.34692,414.74374,39,74,0
414.34692,414.74374,51,74,0
414.8231,415.21994,40,77,0
414.8231,415.21994,52,77,0
415.2993,415.70914,51,80,0
415.2993,415.70914,63,80,0
415.7911,416.20093,52,83,0
415.7911,416.20093,64,83,0
416.2829,416.70663,39,86,0
416.2829,416.70663,51,86,0
416.79138,417.2224,40,89,0
416.79138,417.2224,52,89,0
417.30862,417.72528,27,92,0
417.30862,417.72528,39,92,0
417.80862,418.22528,28,92,0
417.80862,418.22528,40,92,0
418.80862,419.22528,24,92,0
418.80862,419.22528,36,92,0
419.30862,419.72528,48,92,0
419.30862,419.72528,52,92,0
419.30862,419.72528,60,92,0
420.80862,421.22528,35,77,0
420.80862,421.22528,47,77,0
421.30862,422.18362,34,72,0
421.30862,422.18362,46,72,0
422.30862,422.72528,35,60,0
422.30862,422.72528,47,60,0
423.30862,423.80862,35,60,0
423.30862,423.80862,47,60,0
423.80862,424.30862,45,61,0
423.80862,424.30862,57,61,0
424.30862,424.80862,39,62,0
424.30862,424.80862,51,62,0
424.80862,425.22528,42,63,0
424.80862,425.22528,54,63,0
425.30862,425.80862,35,64,0
425.30862,425.80862,47,64,0
425.80862,426.30862,47,65,0
425.80862,426.30862,59,65,0
426.30862,426.80862,40,66,0
426.30862,426.80862,52,66,0
426.80862,427.22528,43,67,0
426.80862,427.22528,55,67,0
427.30862,427.80862,36,68,0
427.30862,427.80862,48,68,0
427.80862,428.30862,48,69,0
427.80862,428.30862,60,69,0
428.30862,428.80862,40,70,0
428.30862,428.80862,52,70,0
428.80862,429.22528,43,71,0
428.80862,429.22528,55,71,0
429.30862,429.80862,37,72,0
429.30862,429.80862,49,72,0
429.80862,430.30862,49,73,0
429.80862,430.30862,61,73,0
430.30862,430.80862,40,74,0
430.30862,430.80862,52,74,0
430.80862,431.22528,43,75,0
430.80862,431.22528,55,75,0
431.30862,431.72528,37,76,0
431.30862,431.72528,49,76,0
431.80862,432.22528,49,78,0
431.80862,432.22528,61,78,0
432.30862,432.72528,34,80,0
432.30862,432.72528,46,80,0
432.80862,433.22528,46,82,0
432.80862,433.22528,58,82,0
433.30862,433.72528,31,84,0
433.30862,433.72528,43,84,0
433.80862,434.22528,43,86,0
433.80862,434.22528,55,86,0
434.30862,434.72528,28,88,0
434.30862,434.72528,40,88,0
434.80862,435.22528,40,90,0
434.80862,435.22528,52,90,0
435.30862,435.72528,25,92,0
435.30862,435.72528,37,92,0
435.80862,436.22528,37,92,0
435.80862,436.22528,49,92,0
436.30862,436.72528,26,92,0
436.30862,436.72528,38,92,0
436.80862,437.22528,38,92,0
436.80862,437.22528,50,92,0
437.30862,437.72528,28,92,0
437.30862,437.72528,40,92,0
437.80862,438.22528,40,92,0
437.80862,438.22528,52,92,0
438.30862,438.72528,29,92,0
438.30862,438.72528,41,92,0
438.80862,439.22528,41,92,0
438.80862,439.22528,53,92,0
439.30862,439.80862,43,92,0
439.30862,439.80862,55,92,0
439.80862,440.30862,45,92,0
439.80862,440.30862,57,92,0
440.30862,440.72528,46,92,0
440.30862,440.72528,58,92,0
440.80862,441.30862,38,92,0
440.80862,441.30862,50,92,0
441.30862,441.80862,40,92,0
441.30862,441.80862,52,92,0
441.80862,442.30862,42,92,0
441.80862,442.30862,54,92,0
442.30862,442.72528,43,92,0
442.30862,442.72528,55,92,0
442.80862,443.30862,34,92,0
442.80862,443.30862,46,92,0
443.30862,443.80862,36,92,0
443.30862,443.80862,48,92,0
443.80862,444.30862,38,92,0
443.80862,444.30862,50,92,0
444.30862,444.72528,39,92,0
444.30862,444.72528,51,92,0
444.80862,445.30862,34,92,0
444.80862,445.30862,46,92,0
445.30862,445.80862,36,92,0
445.30862,445.80862,48,92,0
445.80862,446.30862,38,92,0
445.80862,446.30862,50,92,0
446.30862,446.72528,39,92,0
446.30862,446.72528,51,92,0
446.80862,447.30862,33,92,0
446.80862,447.30862,45,92,0
447.30862,447.80862,37,92,0
447.30862,447.80862,49,92,0
447.80862,448.22528,40,92,0
447.80862,448.22528,52,92,0
448.30862,448.80862,33,92,0
448.30862,448.80862,45,92,0
448.80862,449.30862,37,92,0
448.80862,449.30862,49,92,0
449.30862,449.72528,40,92,0
449.30862,449.72528,52,92,0
449.80862,450.30862,33,92,0
449.80862,450.30862,45,92,0
450.30862,450.80862,37,92,0
450.30862,450.80862,49,92,0
450.80862,451.22528,40,92,0
450.80862,451.22528,52,92,0
451.30862,451.80862,26,92,0
451.30862,451.80862,38,92,0
451.80862,452.30862,45,92,0
452.30862,452.72528,50,92,0
452.80862,453.30862,26,92,0
453.30862,453.80862,33,92,0
453.80862,454.22528,38,89,0
454.30862,454.80862,26,86,0
454.80862,455.30862,33,83,0
455.30862,455.72528,38,80,0
455.80862,456.30862,26,77,0
456.30862,456.80862,33,73,0
456.80862,457.22528,38,69,0
457.30862,457.82587,26,65,0
457.82587,458.3431,33,61,0
458.3431,458.78952,38,57,0
458.8788,459.41452,26,53,0
459.41452,460.01453,33,49,0
460.01453,460.51453,38,45,0
464.8145,465.6895,62,60,0
464.8145,465.6895,71,60,0
465.8145,466.2312,60,60,0
464.8145,466.2312,67,60,0
465.8145,466.2312,69,60,0
466.8145,467.8145,66,60,0
466.8145,467.8145,72,60,0
466.8145,467.8145,76,60,0
467.8145,468.2312,67,60,0
467.8145,468.2312,71,60,0
467.8145,468.2312,74,60,0
468.8145,469.0645,65,60,0
468.8145,469.0645,74,60,0
469.0645,469.30933,64,60,0
469.0645,469.30933,72,60,0
469.3145,469.5645,64,60,0
469.3145,469.5645,72,60,0
469.5645,469.80933,62,60,0
469.5645,469.80933,71,60,0
469.8145,470.5645,60,60,0
469.8145,470.5645,69,60,0
470.5645,470.80933,62,60,0
470.5645,470.80933,71,60,0
470.8145,471.0645,65,60,0
470.8145,471.0645,74,60,0
471.0645,471.30933,64,60,0
471.0645,471.30933,72,60,0
471.3145,471.5645,64,60,0
471.3145,471.5645,72,60,0
471.5645,471.80933,62,60,0
471.5645,471.80933,71,60,0
471.8145,472.5645,60,60,0
471.8145,472.5645,69,60,0
472.5645,472.80933,62,60,0
472.5645,472.80933,71,60,0
472.8145,473.0645,67,60,0
472.8145,473.0645,76,60,0
473.0645,473.30933,65,63,0
473.0645,473.30933,74,63,0
473.3145,473.5645,65,67,0
473.3145,473.5645,74,67,0
473.5645,473.80933,64,71,0
473.5645,473.80933,73,71,0
473.8145,474.3145,65,75,0
473.8145,474.3145,74,75,0
474.3145,474.55933,64,60,0
474.3145,474.55933,72,60,0
474.8145,475.3145,64,60,0
474.8145,475.3145,72,60,0
475.3145,475.55933,62,60,0
475.3145,475.55933,71,60,0
475.8145,476.3145,62,60,0
475.8145,476.3145,71,60,0
476.3145,476.55933,61,60,0
476.3145,476.55933,70,60,0
476.8145,478.3145,61,60,0
476.8145,478.3145,70,60,0
478.3145,478.7312,60,60,0
478.3145,478.7312,69,60,0
478.8145,480.3145,65,60,0
478.8145,480.3145,68,60,0
480.3145,480.7312,64,60,0
480.3145,480.7312,67,60,0
480.8145,481.5645,62,60,0
480.8145,481.5645,66,60,0
481.5645,481.80933,60,75,0
481.5645,481.80933,64,75,0
481.8145,482.0645,66,92,0
481.8145,482.0645,74,92,0
482.0645,482.3145,64,92,0
482.0645,482.3145,72,92,0
482.3145,482.5645,62,75,0
482.3145,482.5645,71,75,0
482.5645,482.80933,60,75,0
482.5645,482.80933,69,75,0
482.8145,483.8145,59,75,0
482.8145,483.8145,67,75,0
483.8145,484.2312,57,60,0
483.8145,484.2312,66,60,0
484.8145,485.05933,38,60,0
484.8145,485.05933,50,60,0
485.0645,485.55933,38,60,0
485.0645,485.55933,50,60,0
485.5645,486.05933,38,60,0
485.5645,486.05933,50,60,0
486.0645,486.55933,38,60,0
486.0645,486.55933,50,60,0
486.5645,487.05933,37,60,0
486.5645,487.05933,49,60,0
487.0645,487.55933,37,60,0
487.0645,487.55933,49,60,0
487.5645,488.05933,37,60,0
487.5645,488.05933,49,60,0
488.0645,488.55933,37,60,0
488.0645,488.55933,49,60,0
488.5645,489.05933,35,60,0
488.5645,489.05933,47,60,0
489.0645,489.55933,34,60,0
489.0645,489.55933,46,60,0
489.5645,490.05933,34,60,0
489.5645,490.05933,46,60,0
490.0645,490.55933,33,60,0
490.0645,490.55933,45,60,0
490.5645,491.05933,33,60,0
490.5645,491.05933,45,60,0
491.0645,491.55933,34,60,0
491.0645,491.55933,46,60,0
491.5645,492.05933,34,60,0
491.5645,492.05933,46,60,0
492.0645,492.55933,33,60,0
492.0645,492.55933,45,60,0
492.5645,493.05933,33,60,0
492.5645,493.05933,45,60,0
493.0645,493.55933,34,60,0
493.0645,493.55933,46,60,0
493.5645,494.05933,34,62,0
493.5645,494.05933,46,62,0
494.0645,494.55933,35,64,0
494.0645,494.55933,47,64,0
494.5645,495.05933,35,66,0
494.5645,495.05933,47,66,0
495.0645,495.55933,36,68,0
495.0645,495.55933,48,68,0
495.5645,496.05933,36,70,0
495.5645,496.05933,48,70,0
496.0645,496.55933,38,72,0
496.0645,496.55933,50,72,0
496.5645,497.05933,38,74,0
496.5645,497.05933,50,74,0
497.0645,497.3145,38,76,0
497.0645,497.3145,50,76,0
497.3145,497.55933,40,77,0
497.3145,497.55933,52,77,0
497.5645,497.8145,40,78,0
497.5645,497.8145,52,78,0
497.8145,498.05933,41,79,0
497.8145,498.05933,53,79,0
498.0645,498.3145,41,80,0
498.0645,498.3145,53,80,0
498.3145,498.55933,40,81,0
498.3145,498.55933,52,81,0
498.5645,499.05933,40,82,0
498.5645,499.05933,52,82,0
499.0645,499.3145,40,84,0
499.0645,499.3145,52,84,0
499.3145,499.55933,42,85,0
499.3145,499.55933,54,85,0
499.5645,499.8145,42,86,0
499.5645,499.8145,54,86,0
499.8145,500.05933,43,87,0
499.8145,500.05933,55,87,0
500.0645,500.3145,43,88,0
500.0645,500.3145,55,88,0
500.3145,500.55933,42,89,0
500.3145,500.55933,54,89,0
500.5645,500.80933,42,90,0
500.5645,500.80933,54,90,0
500.8145,501.05933,36,92,0
500.8145,501.05933,48,92,0
501.0645,501.55933,36,92,0
501.0645,501.55933,48,92,0
501.5645,502.05933,36,92,0
501.5645,502.05933,48,92,0
502.0645,502.55933,36,92,0
502.0645,502.55933,48,92,0
502.5645,503.05933,36,92,0
502.5645,503.05933,48,92,0
503.0645,503.55933,36,92,0
503.0645,503.55933,48,92,0
503.5645,504.05933,36,92,0
503.5645,504.05933,48,92,0
504.0645,504.55933,36,88,0
504.0645,504.55933,48,88,0
504.5645,504.80933,36,84,0
504.5645,504.80933,48,84,0
504.8145,505.05933,38,82,0
504.8145,505.05933,50,82,0
505.0645,505.55933,38,80,0
505.0645,505.55933,50,80,0
505.5645,506.05933,38,76,0
505.5645,506.05933,50,76,0
506.0645,506.55933,38,72,0
506.0645,506.55933,50,72,0
506.5645,507.06348,38,68,0
507.06876,507.57193,38,63,0
507.57724,508.08472,38,57,0
508.0901,508.611,38,51,0
508.61658,508.87885,38,45,0
508.88443,509.36063,38,92,0
508.88443,509.36063,50,92,0
509.36063,509.8368,50,92,0
509.36063,509.8368,62,92,0
509.8368,510.313,45,92,0
509.8368,510.313,57,92,0
510.313,510.7098,46,92,0
510.313,510.7098,58,92,0
510.78918,511.26538,27,45,0
510.78918,511.26538,51,45,0
511.26538,511.74158,39,45,0
511.74158,512.2178,33,45,0
512.2178,512.61456,34,45,0
512.694,513.1701,27,60,0
512.694,513.1701,39,60,0
512.694,513.1701,51,60,0
513.1701,513.6463,39,60,0
513.1701,513.6463,51,60,0
513.6463,514.1225,33,60,0
513.6463,514.1225,45,60,0
514.1225,514.51935,34,60,0
514.1225,514.51935,46,60,0
514.5987,514.99554,32,60,0
514.5987,514.99554,44,60,0
514.5987,514.99554,56,60,0
515.0749,515.47174,31,66,0
515.0749,515.47174,43,66,0
515.0749,515.47174,55,66,0
515.5511,515.94794,29,72,0
515.5511,515.94794,41,72,0
515.5511,515.94794,53,72,0
516.0273,516.4241,27,78,0
516.0273,516.4241,39,78,0
516.0273,516.4241,51,78,0
516.5035,516.90027,26,85,0
516.5035,516.90027,38,85,0
516.5035,516.90027,50,85,0
516.9797,517.4559,60,92,0
516.9797,517.4559,63,92,0
516.9797,517.932,54,92,0
517.4559,517.932,58,92,0
517.4559,517.932,62,92,0
517.932,518.32886,54,92,0
517.932,518.32886,57,92,0
517.932,518.32886,60,92,0
518.4082,518.8844,43,92,0
518.4082,518.8844,55,92,0
518.8844,519.3606,39,87,0
518.8844,519.3606,51,87,0
519.3606,519.8368,36,81,0
519.3606,519.8368,48,81,0
519.8368,520.23364,38,75,0
519.8368,520.23364,50,75,0
520.313,520.70984,46,92,0
520.313,520.70984,50,92,0
520.313,520.70984,55,92,0
521.7416,521.8606,34,92,0
521.8606,521.9797,33,92,0
521.9797,522.0987,34,92,0
522.0987,522.21277,31,92,0
522.2178,522.61456,33,92,0
522.2178,522.61456,41,92,0
522.2178,522.61456,45,92,0
523.6463,523.7654,38,75,0
523.7654,523.8844,36,75,0
523.8844,524.0035,38,75,0
524.0035,524.11755,34,75,0
524.1225,524.51935,36,75,0
524.1225,524.51935,48,75,0
525.5511,525.6701,40,60,0
525.6701,525.7892,38,60,0
525.7892,525.9082,40,60,0
525.9082,526.0223,37,60,0
526.5035,526.6225,42,60,0
526.6225,526.7416,40,60,0
526.7416,526.8606,42,60,0
526.8606,526.9747,38,60,0
527.4558,527.5749,43,61,0
527.5749,527.6939,42,61,0
527.6939,527.813,43,61,0
527.813,527.92706,40,61,0
528.4082,528.5273,45,62,0
528.5273,528.6463,43,62,0
528.6463,528.7654,45,62,0
528.7654,528.8844,42,62,0
528.8844,529.0035,46,62,0
529.0035,529.1225,45,62,0
529.1225,529.2416,46,62,0
529.2416,529.3606,43,62,0
529.3606,529.4796,48,62,0
529.4796,529.5987,46,62,0
529.5987,529.7177,48,62,0
529.7177,529.83185,45,62,0
530.313,530.432,50,64,0
530.432,530.5511,48,64,0
530.5511,530.6701,50,64,0
530.6701,530.7892,47,64,0
530.7892,530.9082,51,64,0
530.9082,531.0273,50,64,0
531.0273,531.1463,51,64,0
531.1463,531.2654,48,64,0
531.2654,531.3844,53,64,0
531.3844,531.5035,51,64,0
531.5035,531.6225,53,64,0
531.6225,531.7366,50,64,0
531.7415,531.8606,49,64,0
531.7415,531.8606,61,64,0
532.2177,532.6939,37,67,0
532.2177,532.6939,49,67,0
532.6939,533.09076,36,70,0
532.6939,533.09076,48,70,0
533.1701,533.6463,48,73,0
533.1701,533.6463,60,73,0
533.6463,534.04315,46,76,0
533.6463,534.04315,58,76,0
534.1225,534.2415,39,79,0
534.1225,534.2415,51,79,0
534.5987,534.7177,36,82,0
534.5987,534.7177,48,82,0
535.0749,535.1939,38,85,0
535.0749,535.1939,50,85,0
535.5511,535.9479,31,88,0
535.5511,535.9479,43,88,0
536.0273,536.1463,55,92,0
536.1463,536.2653,54,92,0
536.2653,536.37946,55,92,0
536.3844,536.4985,43,92,0
536.5034,536.7366,39,92,0
536.5034,536.7366,51,92,0
536.9796,537.0987,51,92,0
537.0987,537.2177,50,92,0
537.2177,537.3318,51,92,0
537.3368,537.45087,39,92,0
537.4558,537.68896,36,92,0
537.4558,537.68896,48,92,0
537.932,538.0511,48,92,0
538.0511,538.1701,47,92,0
538.1701,538.2842,48,92,0
538.2892,538.40326,36,92,0
538.4082,538.64136,38,92,0
538.4082,538.64136,50,92,0
538.8844,539.0034,50,92,0
539.0034,539.1225,49,92,0
539.1225,539.2366,50,92,0
539.2415,539.35565,38,92,0
539.3606,539.59375,43,92,0
539.3606,539.59375,55,92,0
539.8368,539.9558,55,92,0
539.9558,540.0749,54,92,0
540.0749,540.18896,55,92,0
540.1939,540.308,43,92,0
540.313,540.5461,39,92,0
540.313,540.5461,51,92,0
540.7892,540.9082,51,92,0
540.9082,541.0272,50,92,0
541.0272,541.14136,51,92,0
541.1463,541.2604,39,92,0
541.2653,541.4985,36,92,0
541.2653,541.4985,48,92,0
541.7415,541.8606,48,92,0
541.8606,541.9796,47,92,0
541.9796,542.0937,48,92,0
542.0987,542.21277,36,92,0
542.2177,542.45087,38,92,0
542.2177,542.45087,50,92,0
542.6939,542.813,50,92,0
542.813,542.932,49,92,0
542.932,543.0461,50,92,0
543.0511,543.16516,38,92,0
543.1701,543.40326,39,92,0
543.1701,543.40326,51,92,0
543.6463,543.7653,51,92,0
543.7653,543.8844,50,92,0
543.8844,543.9985,51,92,0
544.0034,544.11755,39,92,0
544.1225,544.3556,36,92,0
544.1225,544.3556,48,92,0
544.5987,544.7177,48,92,0
544.7177,544.8368,47,92,0
544.8368,544.95087,48,92,0
544.9558,545.0699,36,92,0
545.0749,545.308,32,92,0
545.0749,545.308,44,92,0
545.551,545.6701,44,92,0
545.6701,545.7891,43,92,0
545.7891,545.90326,44,92,0
545.9082,546.0223,32,92,0
546.0272,546.2604,34,92,0
546.0272,546.2604,46,92,0
546.5034,546.6225,46,92,0
546.6225,546.7415,45,92,0
546.7415,546.8556,46,92,0
546.8606,546.9747,34,92,0
546.9796,547.37646,27,92,0
546.9796,547.37646,39,92,0
547.4558,547.6939,67,92,0
547.6939,547.932,55,92,0
547.932,548.1701,63,92,0
548.1701,548.4082,51,92,0
548.4082,548.6463,58,92,0
548.6463,548.8794,46,92,0
548.8844,549.1303,55,92,0
549.1303,549.37616,43,92,0
549.37616,549.6221,51,92,0
549.6221,549.868,39,92,0
549.868,550.12225,46,92,0
550.12225,550.37646,34,84,0
550.37646,550.6351,43,76,0
550.6351,550.8883,34,68,0
550.8937,551.1385,39,60,0
551.1437,551.3885,34,60,0
551.3937,551.6385,39,60,0
551.6437,551.8885,34,60,0
551.8937,552.1385,41,60,0
552.1437,552.3885,34,62,0
552.3937,552.6385,42,64,0
552.6437,552.8885,34,66,0
552.8937,553.1385,43,68,0
553.1437,553.3885,34,71,0
553.3937,553.6385,44,74,0
553.6437,553.8885,34,77,0
553.8937,554.1385,46,80,0
554.1437,554.3885,34,83,0
554.3937,554.6385,48,86,0
554.6437,554.8885,34,89,0
554.8937,555.1385,51,92,0
555.1437,555.3885,34,92,0
555.3937,555.6385,50,92,0
555.6437,555.8885,34,92,0
555.8937,556.1385,46,92,0
556.1437,556.3885,34,92,0
556.3937,556.6385,44,92,0
556.6437,556.8885,34,92,0
556.8937,557.1385,43,92,0
557.1437,557.3885,34,92,0
557.3937,557.6385,42,92,0
557.6437,557.8885,34,92,0
557.8937,558.1385,41,92,0
558.1437,558.3885,34,84,0
558.3937,558.6385,38,76,0
558.6437,558.8885,34,68,0
558.8937,559.1385,39,60,0
559.1437,559.3885,34,60,0
559.3937,559.6385,39,60,0
559.6437,559.8885,34,60,0
559.8937,560.1385,46,60,0
560.1437,560.3885,34,62,0
560.3937,560.6385,39,64,0
560.6437,560.8885,27,66,0
560.8937,561.1385,39,68,0
561.1437,561.3885,27,71,0
561.3937,561.6385,39,74,0
561.6437,561.8885,27,77,0
561.8937,562.1385,39,80,0
562.1437,562.3885,27,83,0
562.3937,562.6385,39,86,0
562.6437,562.8885,27,89,0
562.8937,563.1385,44,92,0
563.1437,563.3885,32,92,0
563.3937,563.6385,44,92,0
563.6437,563.8885,32,92,0
563.8937,564.1385,45,92,0
564.1437,564.3885,33,84,0
564.3937,564.6385,45,76,0
564.6437,564.8885,33,68,0
564.8937,565.1385,46,60,0
565.1437,565.3885,34,60,0
565.3937,565.6385,46,70,0
565.6437,565.8885,34,81,0
565.8937,566.1385,46,92,0
566.1437,566.3885,34,92,0
566.3937,566.6385,58,82,0
566.6437,566.8885,46,71,0
566.8937,567.8937,51,60,0
566.8937,567.8937,63,60,0
567.8937,568.3937,50,60,0
567.8937,568.3937,62,60,0
568.3937,568.8937,48,60,0
568.3937,568.8937,60,60,0
568.8937,569.31036,46,60,0
568.8937,569.31036,58,60,0
569.3937,569.8937,39,60,0
569.3937,569.8937,51,60,0
569.8937,570.3937,38,61,0
569.8937,570.3937,50,61,0
570.3937,570.8937,36,62,0
570.3937,570.8937,48,62,0
570.8937,571.31036,34,64,0
570.8937,571.31036,46,64,0
571.3937,571.8937,55,66,0
571.3937,571.8937,67,66,0
571.8937,572.3937,53,68,0
571.8937,572.3937,65,68,0
572.3937,572.81036,51,70,0
572.3937,572.81036,63,70,0
572.8937,573.3937,50,72,0
572.8937,573.3937,62,72,0
573.3937,573.8937,49,74,0
573.3937,573.8937,61,74,0
573.8937,574.3937,48,76,0
573.8937,574.3937,60,76,0
574.3937,574.81036,46,78,0
574.3937,574.81036,58,78,0
574.8937,575.3937,42,80,0
574.8937,575.3937,54,80,0
575.3937,575.8937,43,82,0
575.3937,575.8937,55,82,0
575.8937,576.3937,45,84,0
575.8937,576.3937,57,84,0
576.3937,576.81036,46,86,0
576.3937,576.81036,58,86,0
576.8937,577.7687,48,88,0
576.8937,577.7687,60,88,0
577.8937,578.7687,49,92,0
577.8937,578.7687,61,92,0
578.8937,579.31036,50,92,0
578.8937,579.31036,62,92,0
579.3937,579.8937,38,92,0
579.3937,579.8937,50,92,0
579.8937,580.3937,40,92,0
579.8937,580.3937,52,92,0
580.3937,580.8937,42,92,0
580.3937,580.8937,54,92,0
580.8937,581.3937,43,92,0
580.8937,581.3937,55,92,0
581.3937,581.8937,41,92,0
581.3937,581.8937,53,92,0
581.8937,582.3937,40,92,0
581.8937,582.3937,52,92,0
582.3937,582.81036,39,92,0
582.3937,582.81036,51,92,0
582.8937,583.31036,38,92,0
582.8937,583.31036,50,92,0
583.3937,583.8937,62,92,0
583.3937,583.8937,66,92,0
583.8937,584.3937,64,92,0
583.8937,584.3937,67,92,0
584.3937,584.8937,66,92,0
584.3937,584.8937,69,92,0
584.8937,585.3937,67,92,0
584.8937,585.3937,70,92,0
585.3937,585.8937,66,92,0
585.3937,585.8937,69,92,0
585.8937,586.3937,67,92,0
585.8937,586.3937,70,92,0
586.3937,586.81036,63,92,0
586.3937,586.81036,67,92,0
586.3937,586.81036,73,92,0
586.8937,587.31036,62,92,0
586.8937,587.31036,69,92,0
586.8937,587.31036,74,92,0
587.3937,587.8937,38,92,0
587.3937,587.8937,50,92,0
587.8937,588.3937,40,92,0
587.8937,588.3937,52,92,0
588.3937,588.8937,42,92,0
588.3937,588.8937,54,92,0
588.8937,589.31036,43,92,0
588.8937,589.31036,55,92,0
589.3937,589.8937,31,92,0
589.3937,589.8937,43,92,0
589.8937,590.3937,33,92,0
589.8937,590.3937,45,92,0
590.3937,590.8937,35,92,0
590.3937,590.8937,47,92,0
590.8937,591.31036,36,92,0
590.8937,591.31036,48,92,0
591.3937,592.2687,48,92,0
591.3937,592.2687,51,92,0
591.3937,592.2687,55,92,0
591.3937,592.2687,60,92,0
592.3937,592.81036,36,92,0
592.3937,592.81036,48,92,0
592.8937,593.7687,38,75,0
592.8937,593.7687,50,75,0
593.8937,594.7687,50,105,0
593.8937,594.7687,55,105,0
593.8937,594.7687,58,105,0
593.8937,594.7687,61,105,0
594.8937,595.7687,50,105,0
594.8937,595.7687,54,105,0
594.8937,595.7687,57,105,0
594.8937,595.7687,60,105,0
594.8937,595.7687,62,105,0
595.8937,596.7687,38,75,0
595.8937,596.7687,50,75,0
596.8937,597.31036,43,60,0
608.3937,608.6385,38,60,0
608.6437,608.8885,50,60,0
608.8937,609.1437,43,60,0
609.1437,609.3937,50,60,0
609.3937,609.6437,58,60,0
609.6437,609.8885,50,60,0
609.8937,610.1437,43,60,0
610.1437,610.3937,50,60,0
610.3937,610.6437,58,60,0
610.6437,610.8885,50,60,0
610.8937,611.1437,43,60,0
611.1437,611.3937,50,60,0
611.3937,611.6437,58,60,0
611.6437,611.8885,50,60,0
611.8937,612.1437,43,60,0
612.1437,612.3937,50,60,0
612.3937,612.6437,59,60,0
612.6437,612.8885,50,61,0
612.8937,613.1437,43,62,0
613.1437,613.3937,50,63,0
613.3937,613.6437,59,64,0
613.6437,613.8885,50,65,0
613.8937,614.1437,43,66,0
614.1437,614.3937,50,67,0
614.3937,614.6437,57,68,0
614.6437,614.8885,50,69,0
614.8937,615.1437,43,70,0
615.1437,615.3937,50,71,0
615.3937,615.6437,55,72,0
615.6437,615.8885,50,73,0
615.8937,616.1437,43,74,0
616.1437,616.3937,50,75,0
616.3937,616.6437,59,76,0
616.6437,616.8885,50,77,0
616.8937,617.1437,43,78,0
617.1437,617.3937,51,79,0
617.3937,617.6437,60,80,0
617.6437,617.8885,51,82,0
617.8937,618.1437,43,84,0
618.1437,618.3937,50,86,0
618.3937,618.6437,58,88,0
618.6437,618.8885,50,90,0
618.8937,619.1437,36,92,0
619.1437,619.3937,48,92,0
619.3937,619.6437,51,92,0
619.6437,619.8885,48,86,0
619.8937,620.1437,38,80,0
620.1437,620.3937,50,74,0
620.3937,620.6437,57,67,0
620.6437,620.8885,50,60,0
620.8937,622.7687,37,60,0
620.8937,622.7687,49,60,0
622.8937,623.6437,37,60,0
622.8937,623.6437,49,60,0
623.6437,623.8885,38,63,0
623.6437,623.8885,50,63,0
623.8937,624.3937,38,63,0
623.8937,624.3937,50,63,0
624.3937,624.81036,37,65,0
624.3937,624.81036,49,65,0
624.8937,625.6437,36,67,0
624.8937,625.6437,48,67,0
625.6437,625.8885,38,70,0
625.6437,625.8885,50,70,0
625.8937,626.3937,38,71,0
625.8937,626.3937,50,71,0
626.3937,626.81036,36,73,0
626.3937,626.81036,48,73,0
626.8937,627.6437,35,75,0
626.8937,627.6437,47,75,0
627.6437,627.8885,36,78,0
627.6437,627.8885,48,78,0
627.8937,628.3937,36,79,0
627.8937,628.3937,48,79,0
628.3937,628.81036,35,81,0
628.3937,628.81036,47,81,0
628.8937,629.7687,36,83,0
628.8937,629.7687,48,83,0
629.8937,630.7687,36,87,0
629.8937,630.7687,48,87,0
630.8937,631.7687,38,92,0
630.8937,631.7687,50,92,0
631.8937,632.7687,38,75,0
631.8937,632.7687,50,75,0
632.8937,634.7687,37,60,0
632.8937,634.7687,49,60,0
634.8937,635.6437,37,60,0
634.8937,635.6437,49,60,0
635.6437,635.8885,38,63,0
635.6437,635.8885,50,63,0
635.8937,636.3937,38,63,0
635.8937,636.3937,50,63,0
636.3937,636.81036,37,65,0
636.3937,636.81036,49,65,0
636.8937,637.6437,36,67,0
636.8937,637.6437,48,67,0
637.6437,637.8885,38,70,0
637.6437,637.8885,50,70,0
637.8937,638.3937,38,71,0
637.8937,638.3937,50,71,0
638.3937,638.81036,36,73,0
638.3937,638.81036,48,73,0
638.8937,639.6437,35,75,0
638.8937,639.6437,47,75,0
639.6437,639.8885,36,78,0
639.6437,639.8885,48,78,0
639.8937,640.3937,36,79,0
639.8937,640.3937,48,79,0
640.3937,640.81036,35,81,0
640.3937,640.81036,47,81,0
640.8937,641.7687,36,83,0
640.8937,641.7687,48,83,0
641.8937,642.7687,48,87,0
641.8937,642.7687,60,87,0
642.8937,643.7687,50,92,0
642.8937,643.7687,62,92,0
643.8937,644.7687,38,75,0
643.8937,644.7687,50,75,0
644.8937,646.7687,26,60,0
644.8937,646.7687,38,60,0
646.8937,647.7687,39,60,0
646.8937,647.7687,51,60,0
647.8937,648.7687,34,70,0
647.8937,648.7687,46,70,0
648.8937,649.7687,30,81,0
648.8937,649.7687,42,81,0
649.8937,650.7687,27,92,0
649.8937,650.7687,39,92,0
650.8937,651.7687,26,92,0
650.8937,651.7687,38,92,0
651.8937,652.7687,38,76,0
651.8937,652.7687,50,76,0
652.8937,653.31036,31,60,0
652.8937,653.31036,43,60,0
653.3937,653.8937,63,60,0
653.8937,654.3937,61,60,0
654.3937,656.7687,62,60,0
656.8937,657.3937,55,60,0
657.3937,657.8937,63,60,0
657.8937,658.3937,61,60,0
658.3937,660.7687,62,60,0
660.8937,661.3937,55,60,0
661.3937,661.8937,65,62,0
661.8937,662.3937,62,64,0
662.3937,664.7687,63,66,0
664.8937,665.3937,62,76,0
665.3937,666.7687,63,78,0
666.8937,667.3937,62,84,0
667.3937,668.7687,63,86,0
668.8937,669.3937,63,92,0
669.3937,670.7687,62,75,0
670.8937,671.3937,61,60,0
671.3937,672.3937,62,75,0
672.3937,673.3937,60,92,0
673.3937,674.3937,58,75,0
674.3937,674.81036,57,60,0
674.8937,675.3937,31,60,0
674.8937,675.3937,43,60,0
675.3937,675.8937,39,60,0
675.3937,675.8937,51,60,0
675.8937,676.3937,37,60,0
675.8937,676.3937,49,60,0
676.3937,676.81036,38,60,0
676.3937,676.81036,50,60,0
676.8937,677.3937,31,60,0
676.8937,677.3937,43,60,0
677.3937,677.8937,39,60,0
677.3937,677.8937,51,60,0
677.8937,678.3937,37,60,0
677.8937,678.3937,49,60,0
678.3937,678.81036,38,60,0
678.3937,678.81036,50,60,0
678.8937,679.3937,31,60,0
678.8937,679.3937,43,60,0
679.3937,679.8937,41,60,0
679.3937,679.8937,53,60,0
679.8937,680.3937,38,60,0
679.8937,680.3937,50,60,0
680.3937,680.81036,39,60,0
680.3937,680.81036,51,60,0
680.8937,681.3937,32,60,0
680.8937,681.3937,44,60,0
681.3937,681.8937,41,60,0
681.3937,681.8937,53,60,0
681.8937,682.3937,38,60,0
681.8937,682.3937,50,60,0
682.3937,682.81036,39,60,0
682.3937,682.81036,51,60,0
682.8937,683.3937,33,60,0
682.8937,683.3937,45,60,0
683.3937,683.8937,41,61,0
683.3937,683.8937,53,61,0
683.8937,684.3937,34,61,0
683.8937,684.3937,46,61,0
684.3937,684.81036,41,62,0
684.3937,684.81036,53,62,0
684.8937,685.3937,35,63,0
684.8937,685.3937,47,63,0
685.3937,685.8937,43,64,0
685.3937,685.8937,55,64,0
685.8937,686.3937,36,65,0
685.8937,686.3937,48,65,0
686.3937,686.81036,43,66,0
686.3937,686.81036,55,66,0
686.8937,687.3937,36,67,0
686.8937,687.3937,48,67,0
687.3937,687.8937,44,68,0
687.3937,687.8937,56,68,0
687.8937,688.3937,37,69,0
687.8937,688.3937,49,69,0
688.3937,688.81036,44,70,0
688.3937,688.81036,56,70,0
688.8937,689.3937,37,71,0
688.8937,689.3937,49,71,0
689.3937,689.8937,45,72,0
689.3937,689.8937,57,72,0
689.8937,690.3937,38,73,0
689.8937,690.3937,50,73,0
690.3937,690.81036,45,74,0
690.3937,690.81036,57,74,0
690.8937,691.3937,38,75,0
690.8937,691.3937,50,75,0
691.3937,691.8937,46,76,0
691.3937,691.8937,58,76,0
691.8937,692.3937,39,77,0
691.8937,692.3937,51,77,0
692.3937,692.81036,46,78,0
692.3937,692.81036,58,78,0
692.8937,693.3937,40,79,0
692.8937,693.3937,52,79,0
693.3937,693.8937,48,80,0
693.3937,693.8937,60,80,0
693.8937,694.3937,41,81,0
693.8937,694.3937,53,81,0
694.3937,694.81036,48,82,0
694.3937,694.81036,60,82,0
694.8937,695.3937,42,83,0
694.8937,695.3937,54,83,0
695.3937,695.8937,50,84,0
695.3937,695.8937,62,84,0
695.8937,696.3937,43,85,0
695.8937,696.3937,55,85,0
696.3937,696.81036,50,86,0
696.3937,696.81036,62,86,0
696.8937,697.31036,45,87,0
696.8937,697.31036,57,87,0
697.3937,697.81036,54,88,0
697.3937,697.81036,66,88,0
697.8937,698.31036,46,89,0
697.8937,698.31036,58,89,0
698.3937,698.81036,55,90,0
698.3937,698.81036,67,90,0
698.8937,699.0187,36,92,0
698.8937,699.0187,48,92,0
699.3937,699.8937,63,92,0
699.3937,699.8937,75,92,0
699.8937,700.3937,60,92,0
699.8937,700.3937,72,92,0
700.3937,700.81036,62,92,0
700.3937,700.81036,74,92,0
700.8937,701.0187,36,92,0
700.8937,701.0187,48,92,0
701.3937,701.81036,63,92,0
701.3937,701.81036,75,92,0
701.8937,702.31036,60,92,0
701.8937,702.31036,72,92,0
702.3937,702.81036,62,92,0
702.3937,702.81036,74,92,0
702.8937,703.0187,36,92,0
702.8937,703.0187,48,92,0
703.3937,703.8937,63,92,0
703.3937,703.8937,75,92,0
703.8937,704.31036,60,92,0
703.8937,704.31036,72,92,0
704.3937,704.8937,51,92,0
704.3937,704.8937,63,92,0
704.8937,705.31036,48,92,0
704.8937,705.31036,60,92,0
705.3937,705.8937,39,92,0
705.3937,705.8937,51,92,0
705.8937,706.3937,36,92,0
705.8937,706.3937,48,92,0
706.3937,706.81036,38,92,0
706.3937,706.81036,50,92,0
706.8937,707.3937,39,92,0
706.8937,707.3937,51,92,0
707.3937,707.8937,36,84,0
707.3937,707.8937,48,84,0
707.8937,708.3937,38,76,0
707.8937,708.3937,50,76,0
708.3937,708.81036,39,68,0
708.3937,708.81036,51,68,0
708.8937,709.3937,36,60,0
708.8937,709.3937,48,60,0
709.3937,709.8937,38,60,0
709.3937,709.8937,50,60,0
709.8937,710.3937,39,60,0
709.8937,710.3937,51,60,0
710.3937,710.8937,36,60,0
710.3937,710.8937,48,60,0
710.8937,711.40216,38,60,0
710.8937,711.40216,50,60,0
711.40216,711.91064,39,57,0
711.40216,711.91064,51,57,0
711.91064,712.4279,36,53,0
712.4279,712.9451,38,49,0
712.9451,713.39154,39,45,0
717.488,718.7975,31,60,0
717.488,718.7975,43,60,0
718.91656,719.39276,36,60,0
718.91656,719.39276,48,60,0
719.39276,719.8615,33,62,0
718.91656,719.8615,38,60,0
719.39276,719.8615,45,62,0
719.8615,720.6818,34,64,0
719.8615,720.6818,38,64,0
719.8615,720.6818,46,64,0
720.799,721.26776,39,68,0
720.799,721.26776,51,68,0
721.26776,721.7293,36,70,0
720.799,721.7293,43,68,0
721.26776,721.7293,48,70,0
721.7293,722.537,38,72,0
721.7293,722.537,43,72,0
721.7293,722.537,50,72,0
722.65234,723.1139,45,76,0
722.65234,723.1139,57,76,0
723.1139,723.5684,42,78,0
722.65234,723.5684,46,76,0
723.1139,723.5684,54,78,0
723.5684,724.3639,43,80,0
723.5684,724.3639,46,80,0
723.5684,724.3639,55,80,0
724.47754,724.93207,48,84,0
724.47754,724.93207,60,84,0
724.93207,725.38666,45,86,0
724.47754,725.38666,50,84,0
724.93207,725.38666,57,86,0
725.38666,726.18207,46,88,0
725.38666,726.18207,50,88,0
725.38666,726.18207,58,88,0
726.2957,726.69257,31,92,0
726.2957,726.69257,43,92,0
726.7719,727.16876,70,92,0
726.7719,727.6449,58,92,0
726.7719,727.6449,62,92,0
726.7719,727.6449,67,92,0
727.7243,728.1211,67,87,0
727.7243,728.5973,55,87,0
727.7243,728.5973,58,87,0
727.7243,728.5973,62,87,0
728.6767,729.0933,62,81,0
728.6767,729.5933,50,81,0
728.6767,729.5933,55,81,0
728.6767,729.5933,58,81,0
729.6767,730.0933,58,75,0
729.6767,730.5933,46,75,0
729.6767,730.5933,50,75,0
729.6767,730.5933,55,75,0
730.6767,731.1077,43,69,0
730.6767,731.1077,46,69,0
730.6767,731.1077,50,69,0
730.6767,731.1077,55,69,0
731.7111,732.61633,38,63,0
731.7111,732.61633,46,63,0
732.7456,733.6831,31,57,0
732.7456,733.6831,43,57,0
733.8171,734.97955,31,51,0
733.8171,734.97955,43,51,0
735.16705,738.91705,31,45,0
735.16705,738.91705,43,45,0
742.16705,743.00037,43,10,0
