start_time,end_time,note_value,velocity,instrument_program_number
2.470587,2.6470575,75,60,40
2.6470575,2.9999986,74,60,40
2.9999986,3.176469,72,55,40
3.176469,3.7058804,71,53,40
3.7058804,3.999998,72,45,40
4.0588217,4.235292,75,60,40
4.235292,4.588233,74,60,40
4.588233,4.7647033,72,55,40
4.7647033,5.294115,71,53,40
5.294115,5.5882325,72,45,40
5.647056,5.8235264,72,45,40
5.8235264,6.1764674,74,49,40
6.1764674,6.3492618,75,57,40
6.352938,6.705879,77,61,40
6.705879,6.8823495,79,70,40
6.8823495,7.411761,80,75,40
7.411761,7.764702,79,75,40
7.764702,7.937496,77,65,40
7.9411726,8.470584,75,60,40
8.470584,8.764702,74,45,40
8.823525,8.999995,75,60,40
8.999995,9.352937,74,60,40
9.352937,9.529407,72,55,40
9.529407,10.058819,71,53,40
10.058819,10.352936,72,45,40
10.411759,10.58823,77,60,40
10.58823,10.941171,75,60,40
10.941171,11.113965,73,50,40
11.117641,11.588229,73,45,40
11.999994,12.176464,77,60,40
12.176464,12.529406,75,60,40
12.529406,12.705876,73,55,40
12.705876,13.235288,72,53,40
13.235288,13.529405,73,45,40
13.588228,13.764699,80,60,40
13.764699,14.11764,79,60,40
14.11764,14.290434,78,50,40
14.29411,14.764698,78,45,40
15.176463,15.352934,74,45,40
15.352934,15.705874,76,50,40
15.705874,15.878669,78,60,40
15.882345,16.235287,79,65,40
16.235287,16.40808,81,75,40
16.411757,16.941168,82,92,40
16.941168,17.411757,73,75,40
17.47058,17.941168,74,60,40
18.352932,18.529402,74,60,40
18.529402,18.882343,76,62,40
18.882343,19.055138,78,67,40
19.058813,19.411755,79,69,40
19.411755,19.584549,81,75,40
19.588226,19.941166,82,92,40
19.941166,20.11396,73,75,40
20.117638,20.470577,74,60,40
20.470577,20.643372,66,60,40
20.647049,20.941166,67,45,40
21.17646,21.470577,67,45,40
28.064901,28.241373,60,60,40
28.241373,28.594313,62,60,40
28.594313,28.770784,63,81,40
28.770784,29.123726,68,92,40
29.123726,29.300196,67,75,40
29.300196,29.594313,60,60,40
29.653137,29.829607,60,60,40
29.829607,30.182549,62,68,40
30.182549,30.359018,63,84,40
30.359018,30.71196,68,92,40
30.71196,30.88843,67,75,40
30.88843,31.182547,60,60,40
31.241371,31.417841,72,60,40
31.417841,31.770782,71,60,40
31.770782,31.947252,70,60,40
31.947252,32.300194,68,60,40
32.300194,32.47299,67,60,40
32.476665,32.829605,65,60,40
32.829605,33.006077,68,60,40
33.006077,33.476665,72,60,40
33.53549,33.888428,60,60,40
33.888428,34.0649,63,60,40
34.0649,34.359016,67,60,40
34.41784,34.59431,60,45,40
34.59431,34.94725,62,45,40
34.94725,35.123722,63,55,40
35.123722,35.47666,68,60,40
35.47666,35.653133,67,60,40
35.653133,35.94725,60,60,40
36.006073,36.47666,56,60,40
36.006073,36.47666,68,60,40
36.535484,37.182545,56,60,40
36.535484,37.182545,68,60,40
37.59431,37.77078,61,60,40
37.77078,38.123722,63,60,40
38.123722,38.30019,65,70,40
38.30019,38.653133,69,75,40
38.653133,38.8296,68,75,40
38.8296,39.12372,61,60,40
39.182545,39.359013,65,60,40
39.359013,39.711956,67,60,40
39.711956,39.88475,69,60,40
39.888424,40.359013,69,60,40
40.77078,40.94725,74,60,40
40.94725,41.30019,73,60,40
41.30019,41.47666,72,60,40
41.47666,41.8296,70,60,40
41.8296,42.006073,69,75,40
42.006073,42.535484,67,92,40
42.535484,43.00607,76,60,40
43.064896,43.535484,69,60,40
43.947247,44.12372,74,60,40
44.12372,44.476658,73,64,40
44.476658,44.649452,72,73,40
44.65313,45.00607,70,77,40
45.00607,45.18254,69,87,40
45.18254,45.53548,67,92,40
45.53548,45.711952,64,75,40
45.711952,46.00607,62,60,40
46.770775,47.123714,71,60,40
47.123714,47.300186,69,75,40
47.300186,47.829597,72,92,40
47.829597,48.123714,71,60,40
48.35901,48.711952,74,60,40
48.711952,48.88842,72,75,40
48.88842,49.41783,76,92,40
49.41783,49.71195,74,60,40
49.947243,50.476654,81,75,40
50.476654,51.006065,79,92,40
51.006065,51.535477,78,75,40
51.535477,52.06489,77,60,40
52.06489,52.535477,74,45,40
55.064888,55.197243,72,60,40
55.197243,55.24136,75,60,40
55.24136,55.414154,73,60,40
55.5943,55.77077,72,60,40
55.77077,56.64945,73,60,40
56.653122,56.829594,72,60,40
56.829594,57.002388,68,60,40
57.182533,57.355328,70,60,40
57.359005,57.829594,67,60,40
58.241356,58.37371,72,60,40
58.37371,58.417828,75,60,40
58.417828,58.590622,73,60,40
58.770767,58.94724,72,60,40
58.94724,59.825916,75,84,40
59.829594,60.00606,73,60,40
60.00606,60.178856,68,60,40
60.359005,60.535473,70,60,40
60.535473,61.00606,67,60,40
61.417828,61.55018,72,60,40
61.55018,61.594296,75,60,40
61.594296,61.76709,73,60,40
61.94724,62.123707,72,60,40
62.123707,62.311207,80,60,40
62.388412,62.575912,79,60,40
62.65312,62.84062,77,60,40
62.917828,63.00606,76,60,40
63.182533,63.44724,77,60,40
63.44724,63.708267,75,60,40
63.711945,63.97665,72,60,40
63.97665,64.23768,73,60,40
64.241356,64.428856,65,60,40
64.50606,64.59429,67,60,40
64.77077,65.5612,68,75,40
65.56488,65.82959,67,60,40
65.82959,66.09429,70,60,40
66.09429,66.35532,68,60,40
66.359,66.53179,64,60,40
66.711945,66.884735,65,60,40
66.88841,67.18253,72,60,40
67.947235,68.241356,55,60,40
67.947235,68.241356,64,60,40
68.47665,68.653114,56,60,40
68.653114,68.82959,61,60,40
68.82959,69.00606,65,60,40
69.00606,69.06488,68,60,40
69.182526,69.24135,68,60,40
69.359,69.41782,68,60,40
69.53547,69.59429,65,60,40
69.71194,69.77077,65,60,40
69.88841,69.947235,65,60,40
70.06488,70.24135,55,60,40
70.24135,70.41782,60,60,40
70.41782,70.59429,64,60,40
70.59429,70.653114,67,60,40
70.77076,70.82959,67,60,40
70.947235,71.00606,67,60,40
71.1237,71.182526,58,60,40
71.30017,71.359,58,60,40
71.47665,71.53547,58,60,40
71.653114,71.82958,56,60,40
71.82958,72.00606,61,60,40
72.00606,72.182526,65,60,40
72.182526,72.24135,68,60,40
72.359,72.41782,68,60,40
72.53547,72.59429,68,60,40
72.71194,72.77076,65,60,40
72.88841,72.947235,65,60,40
73.06488,73.1237,65,60,40
73.24135,73.41782,61,60,40
73.41782,73.59429,63,60,40
73.59429,73.77076,67,60,40
73.77076,73.82958,73,60,40
73.947235,74.00606,73,60,40
74.1237,74.182526,73,60,40
74.30017,74.35899,70,60,40
74.47665,74.53547,70,60,40
74.653114,74.71194,70,60,40
75.00606,75.182526,63,60,40
75.182526,75.355316,72,60,40
75.53547,75.71194,63,60,40
75.71194,75.88473,67,60,40
76.06488,76.24135,63,60,40
76.24135,76.41414,68,60,40
76.59429,76.77076,56,60,40
76.77076,76.94723,61,60,40
76.94723,77.00606,65,65,40
77.1237,77.182526,65,70,40
77.30017,77.35899,65,75,40
77.47664,77.53547,59,80,40
77.47664,77.53547,68,80,40
77.653114,77.71194,59,86,40
77.653114,77.71194,68,86,40
77.82958,77.888405,59,92,40
77.82958,77.888405,68,92,40
78.182526,78.35899,58,60,40
78.35899,78.53546,61,60,40
78.53546,78.59429,66,65,40
78.71194,78.77076,58,70,40
78.71194,78.77076,66,70,40
78.888405,78.94723,58,75,40
78.888405,78.94723,66,75,40
79.06487,79.1237,59,80,40
79.06487,79.1237,68,80,40
79.24135,79.30017,59,86,40
79.24135,79.30017,68,86,40
79.417816,79.47664,59,92,40
79.417816,79.47664,68,92,40
79.77076,79.94723,58,60,40
79.94723,80.1237,61,60,40
80.1237,80.182526,66,65,40
80.30017,80.35899,58,70,40
80.30017,80.35899,66,70,40
80.47664,80.53546,58,75,40
80.47664,80.53546,66,75,40
80.653114,80.71194,59,80,40
80.653114,80.71194,68,80,40
80.82958,80.888405,59,86,40
80.82958,80.888405,68,86,40
81.00605,81.06487,59,92,40
81.00605,81.06487,68,92,40
81.35899,81.53546,60,60,40
81.53546,81.71194,65,60,40
81.71194,81.77076,68,60,40
81.888405,81.94723,68,60,40
82.06487,82.123695,65,60,40
82.24135,82.30017,67,60,40
82.417816,82.47664,67,60,40
82.594284,82.65311,64,60,40
82.77076,83.06487,65,45,40
83.65311,83.82958,68,60,40
83.82958,84.18252,67,60,40
84.18252,84.35899,65,75,40
84.35899,84.888405,64,92,40
84.888405,85.18252,65,60,40
86.82958,87.00605,65,60,40
87.00605,87.35899,67,64,40
87.35899,87.531784,68,73,40
87.53546,87.888405,70,77,40
87.888405,88.06487,72,87,40
88.06487,88.358986,73,92,40
90.00605,90.18252,68,60,40
90.18252,90.53546,67,60,40
90.53546,90.71193,65,75,40
90.71193,91.24134,64,92,40
91.24134,91.53546,65,60,40
93.18252,93.358986,70,60,40
93.358986,93.71193,68,60,40
93.71193,93.8884,66,75,40
93.8884,94.41781,65,92,40
94.41781,94.71193,66,60,40
96.358986,96.53545,67,60,40
96.53545,96.8884,69,64,40
96.8884,97.064865,71,73,40
97.064865,97.41781,72,77,40
97.41781,97.59428,74,87,40
97.59428,98.12369,75,92,40
98.12369,98.59428,66,75,40
98.6531,99.12369,67,60,40
102.71192,102.8884,68,60,40
102.8884,103.24133,70,60,40
103.24133,103.41781,72,70,40
103.41781,103.770744,73,75,40
103.770744,103.94722,75,86,40
103.94722,104.47663,76,92,40
104.47663,104.94722,67,75,40
105.00604,105.47663,68,60,40
109.064865,109.24133,69,60,40
109.24133,109.59428,71,60,40
109.59428,109.76707,73,64,40
109.770744,110.12369,74,66,40
110.12369,110.29648,76,70,40
110.300156,111.17883,77,72,40
111.18251,111.3553,76,82,40
111.35898,111.6531,74,84,40
111.71192,111.88471,73,89,40
111.88839,112.18251,74,92,40
112.4178,112.71192,62,92,40
112.4178,112.71192,72,92,40
112.94721,113.24133,62,92,40
112.94721,113.24133,71,92,40
113.82957,113.961914,67,92,40
113.961914,114.006035,70,92,40
114.006035,114.17883,68,92,40
114.35898,114.535446,67,75,40
114.535446,114.82957,68,60,40
115.4178,115.550156,67,75,40
115.550156,115.59427,70,75,40
115.59427,115.76707,68,75,40
115.94721,116.12368,67,75,40
116.12368,116.4178,68,75,40
117.006035,117.13839,67,75,40
117.13839,117.1825,70,75,40
117.1825,117.3553,68,75,40
117.535446,117.711914,67,75,40
117.711914,118.59059,68,75,40
118.59427,118.77074,67,75,40
118.77074,118.943535,63,75,40
119.12368,119.30015,65,75,40
119.30015,119.77074,62,60,40
120.1825,120.31486,67,92,40
120.31486,120.35897,70,92,40
120.35897,120.53177,68,92,40
120.711914,120.88838,67,92,40
120.88838,121.76706,70,92,40
121.77074,121.947205,68,92,40
121.947205,122.12,63,92,40
122.30015,122.476616,65,92,40
122.476616,122.947205,62,92,40
123.35897,123.491325,67,75,40
123.491325,123.535446,70,75,40
123.535446,123.70824,68,75,40
123.88838,124.06486,67,60,40
124.06486,124.25236,75,60,40
124.32956,124.51706,74,60,40
124.59427,124.78177,72,60,40
124.85897,125.04647,71,60,40
125.12368,125.31118,72,60,40
125.38838,125.476616,70,60,40
125.65309,125.91779,67,60,40
125.91779,126.178825,68,68,40
126.1825,126.44353,60,76,40
126.447205,126.70824,62,84,40
126.711914,127.50235,63,92,40
127.50603,127.77074,62,92,40
127.77074,128.03545,65,86,40
128.03545,128.29646,63,80,40
128.30014,128.47295,59,74,40
128.65309,128.82588,60,65,40
128.82956,129.12367,67,60,40
130.59427,130.77074,62,60,40
130.77074,130.9472,69,60,40
130.9472,131.00603,72,60,40
131.12367,131.1825,62,60,40
131.12367,131.1825,72,60,40
131.30014,131.35896,62,60,40
131.30014,131.35896,72,60,40
131.47661,131.53543,62,60,40
131.47661,131.53543,72,60,40
131.65309,131.71191,62,60,40
131.65309,131.71191,72,60,40
131.82956,131.88838,62,60,40
131.82956,131.88838,72,60,40
132.1825,132.35896,62,60,40
132.35896,132.53543,69,60,40
132.53543,132.59427,72,60,40
132.71191,132.77074,62,60,40
132.71191,132.77074,72,60,40
132.88838,132.9472,62,60,40
132.88838,132.9472,72,60,40
133.06485,133.12367,62,60,40
133.06485,133.12367,71,60,40
133.24132,133.30014,62,60,40
133.24132,133.30014,71,60,40
133.41779,133.47661,62,60,40
133.41779,133.47661,71,60,40
133.77074,133.9472,60,60,40
133.9472,134.12367,67,60,40
134.12367,134.1825,70,60,40
134.30014,134.35896,60,60,40
134.30014,134.35896,70,60,40
134.47661,134.53543,60,60,40
134.47661,134.53543,69,60,40
134.65309,134.71191,60,60,40
134.65309,134.71191,65,60,40
134.82956,134.88838,60,60,40
134.82956,134.88838,65,60,40
135.00603,135.06485,60,60,40
135.00603,135.06485,65,60,40
135.35896,135.53543,62,60,40
135.53543,135.71191,69,60,40
135.71191,135.77074,72,65,40
135.88838,135.9472,62,70,40
135.88838,135.9472,72,70,40
136.06485,136.12367,62,75,40
136.06485,136.12367,72,75,40
136.24132,136.30014,62,80,40
136.24132,136.30014,71,80,40
136.41779,136.47661,62,86,40
136.41779,136.47661,71,86,40
136.59425,136.65308,62,92,40
136.59425,136.65308,71,92,40
136.9472,137.12367,67,60,40
137.12367,137.29646,76,60,40
137.47661,137.65308,67,60,40
137.65308,137.82588,71,60,40
138.00603,138.1825,67,60,40
138.1825,138.35529,72,60,40
138.53543,138.7119,69,60,40
138.7119,138.8847,72,60,40
139.06485,139.24132,60,60,40
139.24132,139.41779,63,68,40
139.41779,139.47661,69,76,40
139.59425,139.65308,69,84,40
139.77072,139.82956,69,92,40
140.12367,140.30014,62,60,40
140.30014,140.47661,65,60,40
140.47661,140.53543,62,65,40
140.47661,140.53543,70,65,40
140.65308,140.7119,62,70,40
140.65308,140.7119,70,70,40
140.82954,140.88838,62,75,40
140.82954,140.88838,70,75,40
141.00603,141.06485,63,80,40
141.00603,141.06485,72,80,40
141.1825,141.24132,63,86,40
141.1825,141.24132,72,86,40
141.35896,141.41779,63,92,40
141.35896,141.41779,72,92,40
141.7119,141.88838,62,60,40
141.88838,142.06485,65,60,40
142.06485,142.12367,62,65,40
142.06485,142.12367,70,65,40
142.24132,142.30014,62,70,40
142.24132,142.30014,70,70,40
142.41779,142.47661,62,75,40
142.41779,142.47661,70,75,40
142.59425,142.65308,63,80,40
142.59425,142.65308,72,80,40
142.77072,142.82954,63,86,40
142.77072,142.82954,72,86,40
142.9472,143.00603,63,92,40
142.9472,143.00603,72,92,40
143.30014,143.47661,63,92,40
143.47661,143.65308,69,75,40
143.65308,143.7119,72,92,40
143.82954,143.88837,72,75,40
144.00603,144.06485,64,60,40
144.00603,144.06485,72,60,40
144.1825,144.24132,62,60,40
144.1825,144.24132,71,60,40
144.35896,144.41779,62,60,40
144.35896,144.41779,71,60,40
144.53543,144.59425,65,60,40
144.53543,144.59425,71,60,40
144.88837,145.06485,63,60,40
145.06485,145.24132,69,75,40
145.24132,145.30014,72,92,40
145.41779,145.47661,72,75,40
145.59425,145.65308,64,60,40
145.59425,145.65308,72,60,40
145.77072,145.82954,62,60,40
145.77072,145.82954,71,60,40
145.94719,146.00601,62,60,40
145.94719,146.00601,71,60,40
146.12367,146.1825,65,60,40
146.12367,146.1825,71,60,40
146.47661,146.65308,63,60,40
146.65308,146.82954,69,64,40
146.82954,146.88837,72,68,40
147.00601,147.06485,63,72,40
147.00601,147.06485,72,72,40
147.1825,147.24132,63,76,40
147.1825,147.24132,72,76,40
147.35896,147.41779,64,80,40
147.35896,147.41779,72,80,40
147.53543,147.59425,64,84,40
147.53543,147.59425,72,84,40
147.7119,147.77072,64,88,40
147.7119,147.77072,72,88,40
147.88837,147.94719,64,92,40
147.88837,147.94719,72,92,40
148.06483,148.12367,64,92,40
148.06483,148.12367,72,92,40
148.24132,148.30014,64,87,40
148.24132,148.30014,72,87,40
148.41779,148.47661,65,81,40
148.41779,148.47661,72,81,40
148.59425,148.65308,65,75,40
148.59425,148.65308,72,75,40
148.77072,148.82954,65,69,40
148.77072,148.82954,72,69,40
148.94719,149.00601,65,63,40
148.94719,149.00601,71,63,40
149.12367,149.1825,65,57,40
149.12367,149.1825,71,57,40
149.30014,149.35896,65,51,40
149.30014,149.35896,71,51,40
149.47661,149.77072,64,45,40
149.47661,149.77072,72,45,40
150.00601,150.35896,76,60,40
150.35896,150.53543,74,75,40
150.53543,151.06483,77,92,40
151.06483,151.35896,76,60,40
151.59425,151.94719,79,60,40
151.94719,152.12366,77,75,40
152.12366,152.65308,81,92,40
152.65308,152.94719,79,60,40
153.18248,153.7119,86,60,40
153.7119,154.2413,84,75,40
154.2413,154.77072,83,92,40
154.77072,155.30013,82,75,40
155.30013,155.82954,79,60,40
155.82954,156.12366,77,45,40
156.35896,156.65308,55,60,40
156.35896,156.65308,67,60,40
157.41779,157.7119,55,60,40
157.41779,157.7119,67,60,40
157.94719,158.2413,55,60,40
157.94719,158.2413,67,60,40
159.53543,160.06483,73,60,40
160.06483,160.59425,72,60,40
160.59425,161.12366,71,60,40
161.12366,161.65308,70,60,40
161.65308,162.12366,67,60,40
162.18248,162.4766,65,60,40
162.7119,163.00601,55,60,40
162.7119,163.00601,67,60,40
163.77072,164.06483,55,60,40
163.77072,164.06483,67,60,40
164.30013,164.59424,55,60,40
164.30013,164.59424,67,60,40
166.2413,166.41777,64,60,40
166.41777,166.77072,62,60,40
166.77072,166.94719,60,75,40
166.94719,167.4766,59,92,40
167.4766,167.77072,60,60,40
167.82954,168.00601,64,60,40
168.00601,168.35895,62,60,40
168.35895,168.53542,60,75,40
168.53542,169.06483,59,92,40
169.06483,169.35895,60,60,40
169.41777,169.59424,60,60,40
169.59424,169.94719,62,60,40
169.94719,170.12366,64,61,40
170.12366,170.4766,65,61,40
170.4766,170.65306,67,62,40
170.65306,171.18248,68,62,40
171.18248,171.65306,71,65,40
171.71188,172.06483,72,68,40
172.06483,172.2413,74,70,40
172.2413,172.7707,75,71,40
172.7707,173.2413,78,74,40
173.30013,173.82953,79,77,40
173.82953,174.88835,81,80,40
174.88835,175.94717,82,86,40
175.94717,176.41777,83,92,40
176.4766,183.51917,84,60,40
183.51917,187.47028,84,45,40
189.81403,189.9807,63,60,40
189.9807,190.31403,68,60,40
190.31403,190.47722,72,60,40
190.4807,190.9807,75,60,40
190.9807,191.25847,72,60,40
191.4807,191.9807,75,84,40
191.9807,192.25847,72,60,40
192.4807,192.9807,78,84,40
192.9807,193.25847,75,60,40
193.4807,193.81403,73,60,40
193.81403,193.9807,75,60,40
193.9807,194.4807,73,60,40
194.4807,194.92514,72,60,40
194.9807,195.31403,70,60,40
195.31403,195.4807,68,60,40
195.4807,195.9807,67,60,40
195.9807,196.42514,70,60,40
196.4807,196.75847,63,60,40
204.81401,204.98068,71,92,40
204.98068,205.31401,76,92,40
205.31401,205.4772,80,92,40
205.48068,205.98068,83,92,40
205.98068,206.25845,80,92,40
206.48068,206.98068,83,92,40
206.98068,207.25845,80,92,40
207.48068,207.98068,86,92,40
207.98068,208.25845,83,92,40
208.48068,208.81401,87,92,40
208.81401,208.98068,85,86,40
208.98068,209.48068,83,83,40
209.48068,209.92513,82,74,40
209.98068,211.08656,80,65,40
211.08656,211.47118,68,45,40
217.77885,217.94553,70,60,40
217.94553,218.1122,72,60,40
218.1122,218.27885,74,60,40
218.27885,218.44553,75,60,40
218.44553,218.6122,74,60,40
218.6122,218.77885,75,60,40
218.77885,218.94553,77,60,40
218.94553,219.1122,75,60,40
219.1122,219.27539,77,60,40
219.27885,219.55664,79,60,40
219.6122,219.77885,67,60,40
219.77885,219.94553,70,60,40
219.94553,220.1122,75,60,40
220.1122,220.27885,79,60,40
220.27885,220.44553,82,60,40
220.44553,220.6122,84,60,40
220.6122,220.77539,82,60,40
220.77885,220.94553,79,60,40
220.94553,221.1122,80,60,40
221.1122,221.27885,79,60,40
221.27885,221.44553,82,60,40
221.44553,221.6122,84,60,40
221.6122,221.77885,82,60,40
221.77885,221.94553,79,60,40
221.94553,222.1122,80,60,40
222.1122,222.27539,79,60,40
222.27885,222.44553,85,60,40
222.44553,222.61218,87,60,40
222.61218,222.77885,85,60,40
222.77885,222.94553,82,60,40
222.94553,223.11218,84,60,40
223.11218,223.27885,82,60,40
223.27885,223.44553,88,60,40
223.44553,223.61218,90,60,40
223.61218,223.77539,88,60,40
223.77885,223.94553,87,60,40
223.94553,224.11218,88,61,40
224.11218,224.27885,87,62,40
224.27885,224.44553,85,63,40
224.44553,224.61218,87,64,40
224.61218,224.77885,85,65,40
224.77885,224.94553,84,66,40
224.94553,225.11218,85,67,40
225.11218,225.27538,84,68,40
225.27885,225.44553,83,69,40
225.44553,225.61218,85,70,40
225.61218,225.77885,83,71,40
225.77885,225.94553,82,72,40
225.94553,226.11218,83,73,40
226.11218,226.27885,82,74,40
226.27885,226.44553,75,76,40
226.44553,226.61218,76,78,40
226.61218,226.77538,75,80,40
227.61218,227.77885,71,92,40
227.77885,228.11218,76,92,40
228.11218,228.27538,80,92,40
228.27885,228.77885,83,92,40
228.77885,229.05663,80,92,40
229.27885,229.77885,83,92,40
229.77885,230.05663,80,92,40
230.27885,230.77885,86,92,40
230.77885,231.05663,83,92,40
231.27885,232.27885,87,92,40
232.27885,233.27884,75,75,40
233.27884,233.55663,63,60,40
234.27884,234.61218,69,60,40
234.61218,234.77884,71,60,40
234.77884,235.27884,69,60,40
235.27884,235.72328,78,60,40
235.77884,236.11218,76,60,40
236.11218,236.27884,75,60,40
236.27884,236.77884,76,60,40
236.77884,237.22328,68,60,40
237.27884,237.61218,69,60,40
237.61218,237.77884,71,60,40
237.77884,238.27884,69,60,40
238.27884,238.72328,78,60,40
238.77884,239.11217,76,60,40
239.11217,239.27884,75,60,40
239.27884,239.77884,76,60,40
239.77884,240.22328,68,60,40
240.27884,240.61217,76,60,40
240.61217,240.77884,75,60,40
240.77884,241.27884,76,60,40
241.27884,241.72328,68,60,40
241.77884,242.11217,76,60,40
242.11217,242.27536,78,60,40
242.27884,242.61217,78,60,40
242.61217,242.77536,79,60,40
242.77884,243.11217,79,60,40
243.11217,243.27536,80,65,40
243.27884,243.61217,80,67,40
243.61217,243.77536,81,72,40
243.77884,244.11217,81,74,40
244.11217,244.27536,82,80,40
244.27884,244.61217,82,83,40
244.61217,244.77536,83,89,40
244.77884,245.27884,83,92,40
245.27884,245.55661,80,92,40
245.77884,246.11217,82,92,40
246.11217,246.27536,83,82,40
246.27884,246.77884,83,77,40
246.77884,247.05661,74,60,40
248.27882,248.77882,56,75,40
248.77882,249.22328,57,92,40
249.27882,249.61217,58,60,40
249.61217,249.77882,60,60,40
249.77882,250.27882,58,60,40
250.27882,250.72327,55,60,40
250.77882,251.11217,56,60,40
251.11217,251.27882,58,60,40
251.27882,251.77882,56,60,40
251.77882,252.22327,60,60,40
252.27882,252.61217,58,60,40
252.61217,252.77882,60,60,40
252.77882,253.27882,58,60,40
253.27882,253.72327,55,60,40
253.77882,254.11215,56,60,40
254.11215,254.27882,58,65,40
254.27882,254.77882,56,67,40
254.77882,255.22327,60,75,40
255.27882,255.61215,56,83,40
255.61215,255.77882,58,89,40
255.77882,256.2788,56,92,40
256.2788,256.72327,60,75,40
256.7788,257.11215,56,60,40
257.11215,257.27536,68,60,40
257.2788,257.61215,68,63,40
257.61215,257.77536,56,69,40
257.7788,258.11215,56,72,40
258.11215,258.27536,68,78,40
258.2788,258.7788,68,81,40
258.7788,259.2788,70,92,40
259.2788,259.72327,67,75,40
259.7788,260.0566,68,75,40
260.7788,261.0566,63,92,40
260.7788,261.0566,73,92,40
261.7788,262.0566,63,60,40
261.7788,262.0566,66,60,40
265.11215,265.2788,68,60,40
265.2788,265.61215,73,60,40
265.61215,265.77533,77,60,40
265.7788,266.2788,80,60,40
266.2788,266.55658,77,60,40
266.7788,267.2788,80,60,40
267.2788,267.55658,77,60,40
267.7788,268.2788,83,60,40
268.2788,268.55658,80,60,40
268.7788,269.11215,78,60,40
269.11215,269.2788,80,60,40
269.2788,269.7788,78,60,40
269.7788,270.22327,77,60,40
270.2788,270.61215,75,60,40
270.61215,270.7788,73,60,40
270.7788,271.2788,72,60,40
271.2788,271.72327,75,60,40
271.7788,272.05658,68,60,40
280.11212,280.2788,68,92,40
280.2788,280.61212,73,92,40
280.61212,280.77533,77,92,40
280.7788,281.2788,80,92,40
281.2788,281.55658,77,75,40
281.7788,282.2788,80,60,40
282.2788,282.55658,77,60,40
282.7788,283.2788,83,60,40
283.2788,283.55658,80,60,40
283.7788,284.2788,83,60,40
284.2788,284.55658,80,62,40
284.7788,285.2788,83,63,40
285.2788,285.55658,80,65,40
285.7788,286.27878,86,67,40
286.27878,286.55658,83,70,40
286.77878,287.27878,86,73,40
287.27878,287.55658,83,76,40
287.77878,288.27878,86,79,40
288.27878,288.55658,83,82,40
288.77878,289.27878,89,85,40
289.27878,289.55658,86,88,40
289.77878,290.27878,92,92,40
290.27878,290.55658,89,92,40
290.77878,291.27878,80,92,40
291.27878,291.55658,77,77,40
291.77878,292.27878,68,62,40
292.27878,292.55658,65,45,40
292.77878,293.27878,80,60,40
293.27878,293.55655,78,60,40
293.77878,294.27878,68,60,40
294.27878,294.55655,66,45,40
295.77878,296.1317,68,60,40
296.1317,296.3082,70,60,40
296.3082,296.83762,68,60,40
296.83762,297.3082,67,60,40
297.367,297.71997,65,60,40
297.71997,297.89642,63,60,40
297.89642,298.42584,62,60,40
298.42584,298.89642,65,60,40
298.95526,299.33026,68,60,40
299.33026,299.51776,70,58,40
299.51776,300.08026,68,57,40
300.08026,300.58026,67,54,40
300.64276,301.04276,65,51,40
301.04276,301.24277,63,49,40
301.24277,301.87134,62,48,40
301.87134,302.22845,65,45,40
305.68326,305.8597,75,60,40
305.8597,306.21265,74,60,40
306.21265,306.38913,72,55,40
306.38913,306.91855,71,74,40
306.91855,307.21265,72,45,40
307.27148,307.44794,75,60,40
307.44794,307.8009,74,60,40
307.8009,307.97736,72,55,40
307.97736,308.50677,71,74,40
308.50677,308.8009,72,45,40
308.8597,309.0362,72,60,40
309.0362,309.38913,74,60,40
309.38913,309.56192,75,60,40
309.56558,309.91855,77,60,40
309.91855,310.095,79,60,40
310.095,310.62442,80,60,40
310.62442,310.97736,79,60,40
310.97736,311.15015,77,60,40
311.15384,311.68323,75,60,40
311.68323,311.97736,74,60,40
312.0362,312.21265,75,60,40
312.21265,312.56558,74,60,40
312.56558,312.73837,72,55,40
312.74207,313.27148,71,74,40
313.27148,313.56558,72,45,40
313.62442,313.80087,77,60,40
313.80087,314.15384,75,60,40
314.15384,314.32663,73,60,40
314.3303,314.80087,73,60,40
315.21265,315.38913,77,60,40
315.38913,315.74207,75,58,40
315.74207,315.91852,73,54,40
315.91852,316.44794,72,72,40
316.44794,316.74207,73,45,40
316.80087,316.97736,80,60,40
316.97736,317.3303,79,60,40
317.3303,317.50308,78,60,40
317.50677,317.97736,78,60,40
318.38913,318.56558,74,60,40
318.56558,318.91852,76,64,40
318.91852,319.09134,78,73,40
319.095,319.44794,79,77,40
319.44794,319.62073,81,87,40
319.62442,320.15384,82,92,40
320.15384,320.62442,73,60,40
320.68323,321.15384,74,60,40
321.56558,321.74207,74,60,40
321.74207,322.095,76,60,40
322.095,322.2678,78,60,40
322.27148,322.62442,79,60,40
322.62442,322.7972,81,75,40
322.80087,323.1538,82,92,40
323.1538,323.32663,73,75,40
323.3303,323.68323,74,60,40
323.68323,323.85602,66,60,40
323.8597,324.1538,67,45,40
324.38913,324.68323,67,45,40
331.095,331.27145,60,60,40
331.27145,331.62442,62,60,40
331.62442,331.80087,63,81,40
331.80087,332.1538,68,92,40
332.1538,332.3303,67,75,40
332.3303,332.62442,60,60,40
332.68323,332.8597,60,60,40
332.8597,333.21265,62,60,40
333.21265,333.3891,63,81,40
333.3891,333.74207,68,92,40
333.74207,333.91852,67,75,40
333.91852,334.21265,60,60,40
334.27145,334.44794,72,60,40
334.44794,334.80087,71,60,40
334.80087,334.97736,70,60,40
334.97736,335.3303,68,60,40
335.3303,335.50308,67,60,40
335.50674,335.8597,65,60,40
335.8597,336.03616,68,60,40
336.03616,336.50674,72,60,40
336.56558,336.91852,60,60,40
336.91852,337.095,63,60,40
337.095,337.3891,67,60,40
337.44794,337.6244,60,45,40
337.6244,337.97736,62,45,40
337.97736,338.1538,63,45,40
338.1538,338.50674,68,45,40
338.50674,338.68323,67,45,40
338.68323,338.97736,60,45,40
339.03616,339.50674,56,45,40
339.03616,339.50674,68,45,40
339.56558,340.21265,56,45,40
339.56558,340.21265,68,45,40
340.6244,340.80087,61,45,40
340.80087,341.1538,63,45,40
341.1538,341.3303,65,45,40
341.3303,341.68323,69,45,40
341.68323,341.8597,68,45,40
341.8597,342.1538,61,45,40
342.21265,342.3891,65,45,40
342.3891,342.74203,67,45,40
342.74203,342.91486,69,45,40
342.91852,343.3891,69,45,40
343.80087,343.97736,74,45,40
343.97736,344.3303,73,51,40
344.3303,344.50674,72,64,40
344.50674,344.85968,70,71,40
344.85968,345.03616,69,85,40
345.03616,345.56558,67,92,40
345.56558,346.03616,76,75,40
346.095,346.56558,69,60,40
346.97733,347.1538,74,60,40
347.1538,347.50674,73,60,40
347.50674,347.67953,72,60,40
347.68323,348.03616,70,60,40
348.03616,348.21265,69,60,40
348.21265,348.56558,67,60,40
348.56558,348.74203,64,60,40
348.74203,349.03616,62,60,40
349.80087,350.1538,71,60,40
350.1538,350.3303,69,75,40
350.3303,350.85968,72,92,40
350.85968,351.1538,71,60,40
351.3891,351.74203,74,60,40
351.74203,351.91852,72,81,40
351.91852,352.44794,76,92,40
352.44794,352.74203,74,60,40
352.97733,353.50674,81,92,40
353.50674,354.03616,79,92,40
354.03616,354.56558,78,77,40
354.56558,355.09497,77,61,40
355.09497,355.56558,74,45,40
358.09497,358.22733,72,60,40
358.22733,358.27145,75,60,40
358.27145,358.44424,73,60,40
358.6244,358.80087,72,60,40
358.80087,359.67953,73,60,40
359.68323,359.85968,72,60,40
359.85968,360.03247,68,60,40
360.21262,360.3891,70,60,40
360.3891,360.85968,67,60,40
361.27145,361.4038,72,60,40
361.4038,361.4479,75,60,40
361.4479,361.62073,73,60,40
361.80087,361.97733,72,60,40
361.97733,362.85602,75,84,40
362.85968,363.03616,73,60,40
363.03616,363.20895,68,60,40
363.3891,363.56558,70,60,40
363.56558,364.03616,67,60,40
364.4479,364.58026,72,60,40
364.58026,364.6244,75,60,40
364.6244,364.79718,73,60,40
364.97733,365.1538,72,60,40
365.1538,365.24203,80,60,40
365.41852,365.50674,79,60,40
365.68323,365.77145,77,60,40
365.9479,366.03616,76,60,40
366.21262,366.47733,77,60,40
366.47733,366.73837,75,60,40
366.74203,367.00674,72,60,40
367.00674,367.26776,73,60,40
367.27145,367.45895,65,60,40
367.53616,367.6244,67,60,40
367.80087,368.5913,68,75,40
368.59497,368.85968,67,92,40
368.85968,369.1244,70,75,40
369.1244,369.3854,68,75,40
369.3891,369.5619,64,60,40
369.74203,369.91483,65,60,40
369.91852,370.21262,72,60,40
370.97733,371.27145,55,60,40
370.97733,371.27145,64,60,40
371.50674,371.6832,56,60,40
371.6832,371.85968,61,60,40
371.85968,372.03616,65,60,40
372.03616,372.09497,68,60,40
372.21262,372.27145,68,60,40
372.3891,372.4479,68,60,40
372.56555,372.6244,65,60,40
372.74203,372.80084,65,60,40
372.91852,372.97733,65,60,40
373.09497,373.27145,55,60,40
373.27145,373.4479,60,60,40
373.4479,373.6244,64,60,40
373.6244,373.6832,67,60,40
373.80084,373.85968,67,60,40
373.97733,374.03616,67,60,40
374.1538,374.21262,58,60,40
374.33026,374.3891,58,60,40
374.50674,374.56555,58,60,40
374.6832,374.85968,56,60,40
374.85968,375.03616,61,60,40
375.03616,375.21262,65,60,40
375.21262,375.27145,68,60,40
375.3891,375.4479,68,60,40
375.56555,375.6244,68,60,40
375.74203,375.80084,65,60,40
375.9185,375.97733,65,60,40
376.09497,376.1538,65,60,40
376.27145,376.4479,61,60,40
376.4479,376.6244,63,60,40
376.6244,376.80084,67,60,40
376.80084,376.85968,73,60,40
376.97733,377.03616,73,60,40
377.1538,377.21262,73,60,40
377.33026,377.3891,70,60,40
377.50674,377.56555,70,60,40
377.6832,377.74203,70,60,40
378.03616,378.21262,63,60,40
378.21262,378.3854,72,60,40
378.56555,378.74203,63,60,40
378.74203,378.91483,67,60,40
379.09497,379.27145,63,60,40
379.27145,379.44424,68,60,40
379.6244,379.80084,56,60,40
379.80084,379.97733,61,64,40
379.97733,380.03613,65,68,40
380.1538,380.21262,65,72,40
380.33026,380.3891,65,77,40
380.50674,380.56555,59,82,40
380.50674,380.56555,68,82,40
380.6832,380.74203,59,87,40
380.6832,380.74203,68,87,40
380.85968,380.9185,59,92,40
380.85968,380.9185,68,92,40
381.21262,381.3891,58,60,40
381.3891,381.56555,61,60,40
381.56555,381.6244,66,65,40
381.74203,381.80084,58,70,40
381.74203,381.80084,66,70,40
381.9185,381.97733,58,75,40
381.9185,381.97733,66,75,40
382.09497,382.1538,59,80,40
382.09497,382.1538,68,80,40
382.27145,382.33026,59,86,40
382.27145,382.33026,68,86,40
382.4479,382.50674,59,92,40
382.4479,382.50674,68,92,40
382.80084,382.97733,58,60,40
382.97733,383.15378,61,60,40
383.15378,383.21262,66,65,40
383.33026,383.3891,58,70,40
383.33026,383.3891,66,70,40
383.50674,383.56555,58,75,40
383.50674,383.56555,66,75,40
383.6832,383.74203,59,80,40
383.6832,383.74203,68,80,40
383.85968,383.9185,59,86,40
383.85968,383.9185,68,86,40
384.03613,384.09497,59,92,40
384.03613,384.09497,68,92,40
384.3891,384.56555,60,60,40
384.56555,384.74203,65,60,40
384.74203,384.80084,68,58,40
384.9185,384.97733,68,56,40
385.09497,385.15378,65,54,40
385.27145,385.33026,67,52,40
385.4479,385.50674,67,50,40
385.6244,385.6832,64,48,40
385.80084,386.09497,65,45,40
386.6832,386.85968,68,60,40
386.85968,387.21262,67,60,40
387.21262,387.3854,65,81,40
387.3891,387.9185,64,92,40
387.9185,388.21262,65,60,40
389.85968,390.03613,65,60,40
390.03613,390.38907,67,68,40
390.38907,390.5619,68,84,40
390.56555,390.9185,70,92,40
390.9185,391.09497,72,75,40
391.09497,391.38907,73,45,40
393.03613,393.21262,68,45,40
393.21262,393.56555,67,56,40
393.56555,393.74203,65,80,40
393.74203,394.27142,64,92,40
394.27142,394.56555,65,60,40
396.21262,396.38907,70,60,40
396.38907,396.74203,68,68,40
396.74203,396.9185,66,84,40
396.9185,397.4479,65,92,40
397.4479,397.74203,66,60,40
399.38907,399.56555,67,60,40
399.56555,399.9185,69,64,40
399.9185,400.09497,71,73,40
400.09497,400.4479,72,77,40
400.4479,400.62436,74,87,40
400.62436,401.15378,75,92,40
401.15378,401.62436,66,75,40
401.6832,402.15378,67,60,40
405.742,405.9185,68,60,40
405.9185,406.27142,70,60,40
406.27142,406.4479,72,70,40
406.4479,406.80084,73,75,40
406.80084,406.97733,75,86,40
406.97733,407.5067,76,92,40
407.5067,407.9773,67,75,40
408.03613,408.5067,68,60,40
412.09494,412.27142,69,60,40
412.27142,412.62436,71,62,40
412.62436,412.79715,73,66,40
412.80084,413.15378,74,68,40
413.15378,413.32657,76,72,40
413.33026,414.20892,77,74,40
414.21262,414.3854,76,84,40
414.38907,414.6832,74,86,40
414.742,414.9148,73,90,40
414.9185,415.2126,74,92,40
415.4479,415.742,62,92,40
415.4479,415.742,72,92,40
415.9773,416.27142,62,92,40
415.9773,416.27142,71,92,40
416.85965,416.992,67,92,40
416.992,417.03613,71,92,40
417.03613,417.20892,68,92,40
417.38907,417.56555,67,92,40
417.56555,417.85965,68,92,40
418.4479,418.58023,67,75,40
418.58023,418.62436,70,75,40
418.62436,418.79715,68,75,40
418.9773,419.15378,67,75,40
419.15378,419.4479,68,75,40
420.03613,420.1685,67,60,40
420.1685,420.2126,70,60,40
420.2126,420.3854,68,60,40
420.56555,420.742,67,60,40
420.742,421.6207,68,60,40
421.62436,421.80084,67,60,40
421.80084,421.97363,63,60,40
422.15378,422.33023,65,60,40
422.33023,422.80084,62,60,40
423.2126,423.34494,67,60,40
423.34494,423.38907,70,60,40
423.38907,423.56186,68,60,40
423.742,423.9185,67,60,40
423.9185,424.79715,70,60,40
424.80084,424.9773,68,60,40
424.9773,425.1501,63,60,40
425.33023,425.5067,65,60,40
425.5067,425.9773,62,60,40
426.38907,426.52142,67,60,40
426.52142,426.56552,70,60,40
426.56552,426.73834,68,60,40
426.9185,427.09494,67,60,40
427.09494,427.28244,75,60,40
427.35965,427.54715,74,60,40
427.62436,427.81186,72,60,40
427.88907,428.07657,71,60,40
428.15378,428.34128,72,60,40
428.4185,428.5067,70,60,40
428.6832,428.94788,67,60,40
428.94788,429.20892,68,68,40
429.2126,429.47363,60,76,40
429.4773,429.73834,62,84,40
429.742,430.53244,63,92,40
430.53613,430.80084,62,75,40
430.80084,431.06552,65,75,40
431.06552,431.32657,63,75,40
431.33023,431.50302,59,60,40
431.68317,431.856,60,60,40
431.85965,432.15378,67,60,40
433.62436,433.8008,62,60,40
433.8008,433.9773,69,60,40
433.9773,434.03613,72,60,40
434.15378,434.2126,62,60,40
434.15378,434.2126,72,60,40
434.33023,434.38907,62,60,40
434.33023,434.38907,72,60,40
434.5067,434.56552,62,60,40
434.5067,434.56552,72,60,40
434.68317,434.742,62,60,40
434.68317,434.742,72,60,40
434.85965,434.9185,62,60,40
434.85965,434.9185,72,60,40
435.2126,435.38907,62,60,40
435.38907,435.56552,69,60,40
435.56552,435.62436,72,60,40
435.742,435.8008,62,60,40
435.742,435.8008,72,60,40
435.9185,435.9773,62,60,40
435.9185,435.9773,72,60,40
436.09494,436.15378,62,60,40
436.09494,436.15378,71,60,40
436.27142,436.33023,62,60,40
436.27142,436.33023,71,60,40
436.44788,436.5067,62,60,40
436.44788,436.5067,71,60,40
436.8008,436.9773,60,60,40
436.9773,437.15378,67,60,40
437.15378,437.2126,70,60,40
437.33023,437.38907,60,60,40
437.33023,437.38907,70,60,40
437.5067,437.56552,60,60,40
437.5067,437.56552,69,60,40
437.68317,437.742,60,60,40
437.68317,437.742,65,60,40
437.85965,437.91846,60,60,40
437.85965,437.91846,65,60,40
438.03613,438.09494,60,60,40
438.03613,438.09494,65,60,40
438.38907,438.56552,62,60,40
438.56552,438.742,69,64,40
438.742,438.8008,72,68,40
438.91846,438.9773,62,72,40
438.91846,438.9773,72,72,40
439.09494,439.15378,62,77,40
439.09494,439.15378,72,77,40
439.27142,439.33023,62,82,40
439.27142,439.33023,71,82,40
439.44788,439.5067,62,87,40
439.44788,439.5067,71,87,40
439.62436,439.68317,62,92,40
439.62436,439.68317,71,92,40
439.9773,440.15378,67,60,40
440.15378,440.32657,76,60,40
440.5067,440.68317,67,60,40
440.68317,440.85596,71,60,40
441.0361,441.2126,67,60,40
441.2126,441.38538,72,60,40
441.56552,441.742,69,60,40
441.742,441.9148,72,60,40
442.09494,442.27142,60,60,40
442.27142,442.44788,63,68,40
442.44788,442.5067,69,76,40
442.62436,442.68317,69,84,40
442.8008,442.85965,69,92,40
443.15378,443.33023,62,60,40
443.33023,443.5067,65,60,40
443.5067,443.56552,62,65,40
443.5067,443.56552,70,65,40
443.68317,443.742,62,70,40
443.68317,443.742,70,70,40
443.85965,443.91846,62,75,40
443.85965,443.91846,70,75,40
444.0361,444.09494,63,80,40
444.0361,444.09494,72,80,40
444.2126,444.27142,63,86,40
444.2126,444.27142,72,86,40
444.38907,444.44788,63,92,40
444.38907,444.44788,72,92,40
444.742,444.91846,62,60,40
444.91846,445.09494,65,60,40
445.09494,445.15375,62,65,40
445.09494,445.15375,70,65,40
445.27142,445.33023,62,70,40
445.27142,445.33023,70,70,40
445.44788,445.5067,62,75,40
445.44788,445.5067,70,75,40
445.62436,445.68317,63,80,40
445.62436,445.68317,72,80,40
445.8008,445.85965,63,86,40
445.8008,445.85965,72,86,40
445.9773,446.0361,63,92,40
445.9773,446.0361,72,92,40
446.33023,446.5067,63,60,40
446.5067,446.68317,69,75,40
446.68317,446.742,72,92,40
446.85965,446.91846,72,75,40
447.0361,447.09494,64,60,40
447.0361,447.09494,72,60,40
447.2126,447.2714,62,60,40
447.2126,447.2714,71,60,40
447.38907,447.44788,62,60,40
447.38907,447.44788,71,60,40
447.56552,447.62436,65,60,40
447.56552,447.62436,71,60,40
447.91846,448.09494,63,60,40
448.09494,448.2714,69,75,40
448.2714,448.33023,72,92,40
448.44788,448.5067,72,75,40
448.62436,448.68317,64,60,40
448.62436,448.68317,72,60,40
448.8008,448.85965,62,60,40
448.8008,448.85965,71,60,40
448.9773,449.0361,62,60,40
448.9773,449.0361,71,60,40
449.15375,449.2126,65,60,40
449.15375,449.2126,71,60,40
449.5067,449.68317,63,60,40
449.68317,449.85965,69,64,40
449.85965,449.91846,72,68,40
450.0361,450.09494,63,72,40
450.0361,450.09494,72,72,40
450.2126,450.2714,63,76,40
450.2126,450.2714,72,76,40
450.38907,450.44788,64,80,40
450.38907,450.44788,72,80,40
450.56552,450.62436,64,84,40
450.56552,450.62436,72,84,40
450.742,450.8008,64,88,40
450.742,450.8008,72,88,40
450.91846,450.9773,64,92,40
450.91846,450.9773,72,92,40
451.09494,451.15375,64,92,40
451.09494,451.15375,72,92,40
451.2714,451.33023,64,87,40
451.2714,451.33023,72,87,40
451.44788,451.5067,65,81,40
451.44788,451.5067,72,81,40
451.62436,451.68317,65,75,40
451.62436,451.68317,72,75,40
451.8008,451.85965,65,69,40
451.8008,451.85965,72,69,40
451.9773,452.0361,65,63,40
451.9773,452.0361,71,63,40
452.15375,452.2126,65,57,40
452.15375,452.2126,71,57,40
452.33023,452.38904,65,51,40
452.33023,452.38904,71,51,40
452.5067,452.8008,64,45,40
452.5067,452.8008,72,45,40
453.0361,453.38904,76,60,40
453.38904,453.56552,74,75,40
453.56552,454.09494,77,92,40
454.09494,454.38904,76,60,40
454.62436,454.9773,79,60,40
454.9773,455.15375,77,75,40
455.15375,455.68317,81,92,40
455.68317,455.9773,79,60,40
456.2126,456.742,86,60,40
456.742,457.2714,84,75,40
457.2714,457.8008,83,92,40
457.8008,458.33023,82,75,40
458.33023,458.85965,79,60,40
458.85965,459.15375,77,60,40
459.38904,459.68317,55,60,40
459.38904,459.68317,67,60,40
460.44788,460.742,55,60,40
460.44788,460.742,67,60,40
460.9773,461.2714,55,60,40
460.9773,461.2714,67,60,40
462.56552,463.09494,73,60,40
463.09494,463.62433,72,60,40
463.62433,464.15375,71,60,40
464.15375,464.68317,70,60,40
464.68317,465.15375,67,60,40
465.2126,465.50668,65,60,40
465.74197,466.0361,55,60,40
465.74197,466.0361,67,60,40
466.8008,467.09494,55,60,40
466.8008,467.09494,67,60,40
467.33023,467.62433,55,60,40
467.33023,467.62433,67,60,40
469.2714,469.44788,64,60,40
469.44788,469.8008,62,60,40
469.8008,469.97726,60,75,40
469.97726,470.50668,59,92,40
470.50668,470.8008,60,60,40
470.85962,471.0361,64,60,40
471.0361,471.38904,62,60,40
471.38904,471.56552,60,75,40
471.56552,472.09494,59,92,40
472.09494,472.38904,60,60,40
472.44788,472.62433,60,60,40
472.62433,472.97726,62,60,40
472.97726,473.15375,64,60,40
473.15375,473.50668,65,60,40
473.50668,473.68317,67,62,40
473.68317,474.2126,68,63,40
474.2126,474.68317,71,66,40
474.74197,475.0949,72,69,40
475.0949,475.2714,74,71,40
475.2714,475.8008,75,72,40
475.8008,476.2714,78,76,40
476.33023,476.85962,79,80,40
476.85962,477.91846,81,84,40
477.91846,478.97726,82,92,40
478.97726,479.44788,83,75,40
479.50668,484.2714,84,60,40
484.2714,489.15427,84,45,40
493.45395,493.6206,55,45,40
493.6206,493.95395,60,45,40
493.95395,494.11713,64,45,40
494.1206,494.6206,67,45,40
494.6206,494.89838,64,45,40
495.1206,495.6206,67,45,40
495.6206,495.89838,64,45,40
496.1206,496.6206,70,63,40
496.6206,496.89838,67,45,40
497.1206,497.45395,65,45,40
497.45395,497.6206,67,45,40
497.6206,498.1206,65,45,40
498.1206,498.56503,64,45,40
498.6206,498.95395,62,45,40
498.95395,499.1206,64,45,40
499.1206,499.6206,62,45,40
499.6206,500.06503,60,45,40
500.1206,501.03726,55,45,40
501.1206,502.06503,55,55,40
502.1206,503.03726,55,65,40
503.1206,504.61713,55,75,40
504.6206,506.11713,55,60,40
506.1206,507.72772,55,45,40
507.72772,508.23578,55,30,40
22.235283,22.5294,67,60,45
22.764694,23.058811,67,60,45
23.823517,24.117636,67,60,45
24.352928,24.647047,67,60,45
25.411753,25.70587,67,60,45
25.952192,26.273026,67,45,45
325.44794,325.74207,67,60,45
325.97736,326.27145,67,60,45
327.03616,327.3303,67,60,45
327.56558,327.8597,67,60,45
328.62442,328.91852,67,60,45
329.1538,329.44794,67,60,45
2.470587,2.6470575,67,60,41
2.6470575,2.9999986,65,60,41
2.9999986,3.176469,63,55,41
3.176469,3.7058804,62,53,41
3.7058804,3.999998,63,45,41
4.0588217,4.235292,67,60,41
4.235292,4.588233,65,60,41
4.588233,4.7647033,63,55,41
4.7647033,5.294115,62,53,41
5.294115,5.5882325,63,45,41
5.647056,5.8235264,63,45,41
5.8235264,6.1764674,65,49,41
6.1764674,6.3492618,67,57,41
6.352938,6.705879,68,61,41
6.705879,6.8823495,70,70,41
6.8823495,7.411761,72,75,41
7.411761,7.764702,70,75,41
7.764702,7.937496,68,65,41
7.9411726,8.470584,67,60,41
8.470584,8.764702,65,45,41
8.823525,8.999995,67,60,41
8.999995,9.352937,65,60,41
9.352937,9.529407,63,55,41
9.529407,10.058819,62,53,41
10.058819,10.352936,63,45,41
10.411759,10.58823,68,60,41
10.58823,10.941171,66,60,41
10.941171,11.113965,65,50,41
11.117641,11.588229,65,45,41
11.999994,12.176464,68,60,41
12.176464,12.529406,66,60,41
12.529406,12.705876,65,55,41
12.705876,13.235288,63,53,41
13.235288,13.529405,65,45,41
13.588228,13.764699,72,60,41
13.764699,14.11764,70,60,41
14.11764,14.290434,69,50,41
14.29411,14.764698,69,45,41
15.176463,15.352934,66,45,41
15.352934,15.705874,67,50,41
15.705874,15.878669,69,60,41
15.882345,16.235287,70,65,41
16.235287,16.40808,72,75,41
16.411757,16.941168,73,92,41
16.941168,17.411757,67,75,41
17.47058,17.941168,66,60,41
18.352932,18.529402,66,60,41
18.529402,18.882343,67,62,41
18.882343,19.055138,69,67,41
19.058813,19.411755,70,69,41
19.411755,19.584549,72,75,41
19.588226,19.941166,73,92,41
19.941166,20.11396,67,92,41
20.117638,20.470577,66,75,41
20.470577,20.643372,60,60,41
20.647049,20.941166,59,45,41
21.17646,21.470577,55,45,41
27.18255,27.241373,48,60,41
27.35902,27.417843,48,60,41
27.53549,27.594315,48,60,41
27.711962,27.770784,48,60,41
27.888432,27.947254,48,60,41
28.064901,28.123726,48,60,41
28.241373,28.300196,48,60,41
28.417843,28.476667,48,60,41
28.594313,28.653137,48,60,41
28.770784,28.829607,48,75,41
28.947254,29.006079,48,75,41
29.123726,29.182549,48,75,41
29.300196,29.359018,48,60,41
29.476665,29.53549,48,60,41
29.653137,29.71196,48,60,41
29.829607,29.88843,48,60,41
30.006077,30.064901,48,60,41
30.182549,30.241371,48,60,41
30.359018,30.417843,48,75,41
30.535488,30.594313,48,75,41
30.71196,30.770782,48,75,41
30.88843,30.947254,48,60,41
31.064901,31.123724,48,60,41
31.241371,31.300194,48,60,41
31.417841,31.476665,48,60,41
31.594313,31.653135,48,60,41
31.770782,31.829605,48,60,41
31.947252,32.006077,48,60,41
32.123722,32.18255,48,60,41
32.300194,32.359016,48,60,41
32.476665,32.53549,48,60,41
32.653133,32.71196,48,60,41
32.829605,32.888428,48,60,41
33.006077,33.0649,48,60,41
33.182545,33.24137,48,60,41
33.359016,33.41784,48,60,41
33.53549,33.59431,48,60,41
33.71196,33.770782,48,60,41
33.888428,33.94725,48,60,41
34.0649,34.123722,48,60,41
34.24137,34.300194,48,60,41
34.41784,34.47666,48,60,41
34.59431,34.653133,48,60,41
34.770782,34.829605,48,60,41
34.94725,35.006077,48,60,41
35.123722,35.182545,48,60,41
35.300194,35.359016,48,60,41
35.47666,35.53549,48,60,41
35.653133,35.711956,48,60,41
35.829605,35.888428,48,60,41
36.006073,36.0649,48,60,41
36.182545,36.241367,48,60,41
36.359016,36.41784,48,60,41
36.535484,36.59431,48,60,41
36.711956,36.77078,49,60,41
36.888428,36.94725,49,60,41
37.064896,37.123722,49,60,41
37.241367,37.30019,49,60,41
37.41784,37.47666,49,60,41
37.59431,37.653133,49,60,41
37.77078,37.8296,49,60,41
37.94725,38.006073,49,60,41
38.123722,38.182545,49,60,41
38.30019,38.359013,49,60,41
38.47666,38.535484,49,60,41
38.653133,38.711956,49,60,41
38.8296,38.888428,49,60,41
39.006073,39.064896,49,60,41
39.182545,39.241367,49,60,41
39.359013,39.41784,49,60,41
39.535484,39.594307,49,60,41
39.711956,39.77078,49,60,41
39.888424,39.94725,50,60,41
40.064896,40.12372,50,60,41
40.241367,40.30019,50,60,41
40.417835,40.47666,50,60,41
40.594307,40.65313,50,60,41
40.77078,40.8296,50,60,41
40.94725,41.006073,50,60,41
41.12372,41.18254,50,60,41
41.30019,41.359013,50,60,41
41.47666,41.535484,50,60,41
41.65313,41.711952,50,70,41
41.8296,41.888424,50,81,41
42.006073,42.064896,50,92,41
42.18254,42.241367,50,75,41
42.359013,42.417835,50,60,41
42.535484,42.594307,50,60,41
42.711952,42.77078,50,60,41
42.888424,42.947247,50,60,41
43.064896,43.12372,50,60,41
43.241364,43.30019,50,60,41
43.417835,43.476658,50,60,41
43.594307,43.65313,50,60,41
43.770775,43.8296,50,60,41
43.947247,44.00607,50,60,41
44.12372,44.18254,50,60,41
44.300186,44.359013,50,60,41
44.476658,44.53548,50,60,41
44.65313,44.711952,50,60,41
44.8296,44.888424,50,59,41
45.00607,45.06489,50,57,41
45.18254,45.241364,50,55,41
45.359013,45.417835,50,53,41
45.53548,45.594303,50,51,41
45.711952,45.770775,50,49,41
45.888424,45.947247,50,47,41
46.06489,46.12372,50,45,41
46.770775,47.123714,62,60,41
47.123714,47.300186,60,75,41
47.300186,47.829597,64,92,41
47.829597,48.123714,62,60,41
48.35901,48.711952,65,60,41
48.711952,48.88842,64,75,41
48.88842,49.41783,72,92,41
49.41783,49.71195,71,60,41
49.947243,50.476654,65,60,41
49.947243,50.476654,71,60,41
50.476654,50.947243,64,75,41
50.476654,50.947243,72,75,41
51.006065,51.535477,63,75,41
51.006065,51.535477,69,75,41
51.535477,52.06489,62,60,41
51.535477,52.06489,68,60,41
52.06489,52.535477,65,45,41
52.594303,52.77077,49,84,41
52.77077,52.947243,48,60,41
52.947243,53.123714,49,67,41
53.123714,53.300182,48,75,41
53.300182,53.476654,49,75,41
53.476654,53.653126,48,75,41
53.653126,53.829594,49,75,41
53.829594,54.006065,48,75,41
54.006065,54.17886,49,75,41
54.182537,54.359005,48,75,41
54.359005,54.535477,49,72,41
54.535477,54.71195,48,69,41
54.71195,54.888416,49,66,41
54.888416,55.064888,48,63,41
55.064888,55.24136,49,60,41
55.24136,55.417828,48,57,41
55.417828,55.5943,49,53,41
55.5943,55.767094,48,49,41
55.77077,56.064888,56,45,41
56.300182,56.5943,56,45,41
57.359005,57.653122,48,60,41
57.359005,57.653122,55,60,41
57.888416,58.182533,48,60,41
57.888416,58.182533,55,60,41
58.94724,59.241356,56,60,41
59.47665,59.770767,56,60,41
60.535473,60.82959,48,60,41
60.535473,60.82959,55,60,41
61.064884,61.359,48,60,41
61.064884,61.359,55,60,41
62.123707,62.417828,48,60,41
62.123707,62.417828,56,60,41
62.65312,62.94724,48,60,41
62.65312,62.94724,58,60,41
63.182533,63.47665,48,60,41
63.182533,63.47665,60,60,41
63.711945,64.00606,53,60,41
63.711945,64.00606,61,60,41
64.77077,65.30018,53,60,41
65.30018,65.82959,65,92,41
65.82959,66.359,62,75,41
66.359,66.82959,50,60,41
66.88841,67.18253,52,60,41
67.947235,68.241356,48,60,41
67.947235,68.241356,58,60,41
68.47665,68.653114,53,60,41
68.653114,68.82959,56,60,41
68.82959,69.00606,61,60,41
69.00606,69.06488,65,60,41
69.182526,69.24135,65,60,41
69.359,69.41782,65,60,41
69.53547,69.59429,61,60,41
69.71194,69.77077,61,60,41
69.88841,69.947235,61,60,41
70.06488,70.24135,48,60,41
70.24135,70.41782,55,60,41
70.41782,70.59429,60,60,41
70.59429,70.653114,64,60,41
70.77076,70.82959,64,60,41
70.947235,71.00606,64,60,41
71.1237,71.182526,60,60,41
71.30017,71.359,60,60,41
71.47665,71.53547,60,60,41
71.653114,71.82958,53,60,41
71.82958,72.00606,56,60,41
72.00606,72.182526,61,60,41
72.182526,72.24135,65,60,41
72.359,72.41782,65,60,41
72.53547,72.59429,65,60,41
72.71194,72.77076,61,60,41
72.88841,72.947235,61,60,41
73.06488,73.1237,61,60,41
73.24135,73.41782,55,60,41
73.41782,73.59429,61,60,41
73.59429,73.77076,63,60,41
73.77076,73.82958,67,60,41
73.947235,74.00606,67,60,41
74.1237,74.182526,67,60,41
74.30017,74.35899,61,60,41
74.47665,74.53547,61,60,41
74.653114,74.71194,61,60,41
75.00606,75.182526,60,60,41
75.182526,75.355316,63,60,41
75.53547,75.71194,61,60,41
75.71194,75.88473,63,60,41
76.06488,76.24135,60,60,41
76.24135,76.41414,63,60,41
76.59429,76.77076,53,60,41
76.77076,76.94723,56,60,41
76.94723,77.00606,61,65,41
77.1237,77.182526,61,70,41
77.30017,77.35899,61,75,41
77.47664,77.53547,65,80,41
77.653114,77.71194,65,86,41
77.82958,77.888405,65,92,41
78.182526,78.35899,54,60,41
78.35899,78.53179,58,60,41
78.53546,78.59429,58,65,41
78.71194,78.77076,61,70,41
78.888405,78.94723,61,75,41
79.06487,79.1237,65,80,41
79.24135,79.30017,65,86,41
79.417816,79.47664,65,92,41
79.77076,79.94723,54,60,41
79.94723,80.120026,58,60,41
80.1237,80.182526,58,65,41
80.30017,80.35899,61,70,41
80.47664,80.53546,61,75,41
80.653114,80.71194,65,80,41
80.82958,80.888405,65,86,41
81.00605,81.06487,65,92,41
81.35899,81.53546,56,60,41
81.53546,81.71194,60,60,41
81.71194,81.77076,65,60,41
81.888405,81.94723,65,60,41
82.06487,82.123695,56,60,41
82.24135,82.30017,58,60,41
82.417816,82.47664,58,60,41
82.594284,82.65311,55,60,41
82.77076,83.06487,56,45,41
83.65311,83.82958,60,60,41
83.82958,84.18252,58,60,41
84.18252,84.35899,56,75,41
84.35899,84.888405,55,92,41
84.888405,85.18252,56,60,41
86.82958,87.00605,56,60,41
87.00605,87.35899,58,64,41
87.35899,87.531784,60,73,41
87.53546,87.888405,61,77,41
87.888405,88.06487,63,87,41
88.06487,88.358986,65,92,41
90.00605,90.18252,60,60,41
90.18252,90.53546,58,60,41
90.53546,90.71193,56,75,41
90.71193,91.24134,55,92,41
91.24134,91.53546,56,60,41
93.18252,93.358986,61,60,41
93.358986,93.71193,59,60,41
93.71193,93.8884,58,75,41
93.8884,94.41781,56,92,41
94.41781,94.71193,58,60,41
96.358986,96.53545,67,60,41
96.53545,96.8884,66,65,41
96.8884,97.064865,65,75,41
97.064865,97.41781,63,80,41
97.41781,97.59428,62,92,41
97.59428,97.94722,60,75,41
97.94722,98.564865,60,60,41
98.6531,99.12369,59,60,41
100.770744,101.829575,55,60,41
101.829575,102.708244,56,75,41
102.71192,102.8884,68,75,41
102.8884,103.24133,67,77,41
103.24133,103.41781,66,82,41
103.41781,103.770744,64,84,41
103.770744,103.94722,63,89,41
103.94722,104.91781,61,92,41
105.00604,105.47663,60,60,41
107.12369,108.18251,56,60,41
108.18251,109.06119,57,75,41
109.064865,109.24133,69,75,41
109.24133,109.59428,68,76,41
109.59428,109.770744,67,78,41
109.770744,110.12369,65,79,41
110.12369,110.300156,64,81,41
110.300156,111.17883,62,82,41
111.18251,111.3553,64,88,41
111.35898,111.6531,65,89,41
111.71192,111.88471,57,92,41
111.88839,111.94721,57,105,41
112.06486,112.12368,57,75,41
112.24133,112.300156,57,75,41
112.4178,112.47662,56,105,41
112.59427,112.65309,56,75,41
112.770744,112.82957,56,75,41
112.94721,113.006035,55,105,41
113.12368,113.1825,55,75,41
113.300156,113.35898,55,75,41
113.47662,113.64942,53,75,41
113.82957,113.961914,67,92,41
113.961914,114.006035,70,92,41
114.006035,114.17883,68,92,41
114.35898,114.535446,67,75,41
114.535446,114.82957,68,60,41
115.4178,115.550156,67,75,41
115.550156,115.59427,70,75,41
115.59427,115.76707,68,75,41
115.94721,116.12368,67,75,41
116.12368,116.4178,68,75,41
117.006035,117.13839,67,60,41
117.13839,117.1825,70,60,41
117.1825,117.3553,68,60,41
117.535446,117.711914,67,60,41
117.711914,118.59059,68,60,41
118.59427,118.77074,67,60,41
118.77074,118.943535,63,60,41
119.12368,119.30015,65,60,41
119.30015,119.77074,62,60,41
120.1825,120.31486,67,92,41
120.31486,120.35897,70,92,41
120.35897,120.53177,68,92,41
120.711914,120.88838,67,92,41
120.88838,121.76706,70,92,41
121.77074,121.947205,68,92,41
121.947205,122.12,63,92,41
122.30015,122.476616,65,92,41
122.476616,122.947205,62,92,41
123.35897,123.491325,67,75,41
123.491325,123.535446,70,75,41
123.535446,123.70824,68,75,41
123.88838,124.06486,67,60,41
124.06486,124.25236,75,60,41
124.32956,124.51706,74,60,41
124.59427,124.78177,72,60,41
124.85897,125.04647,71,60,41
125.12368,125.31118,72,60,41
125.38838,125.476616,70,60,41
125.65309,125.91779,67,60,41
125.91779,126.178825,68,68,41
126.1825,126.447205,60,76,41
126.447205,126.70824,62,84,41
126.711914,127.50235,63,92,41
127.50603,127.77074,62,92,41
127.77074,128.03545,65,86,41
128.03545,128.29646,63,80,41
128.30014,128.47295,59,74,41
128.65309,128.82588,60,65,41
128.82956,129.12367,67,60,41
130.59427,130.77074,60,60,41
130.77074,130.9472,62,60,41
130.9472,131.00603,69,60,41
131.12367,131.1825,69,60,41
131.30014,131.35896,67,60,41
131.47661,131.53543,66,60,41
131.65309,131.71191,66,60,41
131.82956,131.88838,66,60,41
132.1825,132.35896,60,60,41
132.35896,132.53543,62,60,41
132.53543,132.59427,69,60,41
132.71191,132.77074,69,60,41
132.88838,132.9472,67,60,41
133.06485,133.12367,67,60,41
133.24132,133.30014,67,60,41
133.41779,133.47661,67,60,41
133.77074,133.9472,58,60,41
133.9472,134.12367,60,60,41
134.12367,134.1825,67,60,41
134.30014,134.35896,67,60,41
134.47661,134.53543,65,60,41
134.65309,134.71191,65,60,41
134.82956,134.88838,65,60,41
135.00603,135.06485,65,60,41
135.35896,135.53543,60,60,41
135.53543,135.71191,62,64,41
135.71191,135.77074,67,68,41
135.88838,135.9472,67,72,41
136.06485,136.12367,67,77,41
136.24132,136.30014,65,82,41
136.41779,136.47661,65,87,41
136.59425,136.65308,65,92,41
136.9472,137.12367,55,60,41
136.9472,137.12367,64,60,41
137.12367,137.29646,55,60,41
137.12367,137.29646,67,60,41
137.47661,137.65308,55,60,41
137.47661,137.65308,65,60,41
137.65308,137.82588,55,60,41
137.65308,137.82588,67,60,41
138.00603,138.1825,55,60,41
138.00603,138.1825,64,60,41
138.1825,138.35529,55,60,41
138.1825,138.35529,67,60,41
138.53543,138.7119,60,60,41
138.7119,138.8847,69,60,41
139.06485,139.24132,57,60,41
139.24132,139.41411,60,68,41
139.41779,139.47661,60,76,41
139.59425,139.65308,60,84,41
139.77072,139.82956,60,92,41
140.12367,140.30014,58,60,41
140.30014,140.47661,62,60,41
140.47661,140.53543,65,65,41
140.65308,140.7119,65,70,41
140.82954,140.88838,65,75,41
141.00603,141.06485,69,80,41
141.1825,141.24132,69,86,41
141.35896,141.41779,69,92,41
141.7119,141.88838,58,60,41
141.88838,142.06485,62,60,41
142.06485,142.12367,65,65,41
142.24132,142.30014,65,70,41
142.41779,142.47661,65,75,41
142.59425,142.65308,69,80,41
142.77072,142.82954,69,86,41
142.9472,143.00603,69,92,41
143.30014,143.47661,60,60,41
143.47661,143.65308,63,60,41
143.65308,143.7119,67,92,41
143.82954,143.88837,67,75,41
144.00603,144.06485,60,60,41
144.1825,144.24132,67,60,41
144.35896,144.41779,67,60,41
144.53543,144.59425,55,60,41
144.88837,145.06485,60,60,41
145.06485,145.24132,63,75,41
145.24132,145.30014,67,92,41
145.41779,145.47661,67,75,41
145.59425,145.65308,60,60,41
145.77072,145.82954,67,60,41
145.94719,146.00601,67,60,41
146.12367,146.1825,55,60,41
146.47661,146.65308,60,60,41
146.65308,146.82954,63,62,41
146.82954,146.88837,69,65,41
147.00601,147.06485,69,68,41
147.1825,147.24132,69,71,41
147.35896,147.41779,69,74,41
147.53543,147.59425,69,77,41
147.7119,147.77072,69,80,41
147.88837,147.94719,69,83,41
148.06483,148.12367,69,86,41
148.24132,148.30014,69,89,41
148.41779,148.47661,69,92,41
148.59425,148.65308,69,92,41
148.77072,148.82954,69,86,41
148.94719,149.00601,55,80,41
148.94719,149.00601,67,80,41
149.12367,149.1825,55,74,41
149.12367,149.1825,67,74,41
149.30014,149.35896,55,67,41
149.30014,149.35896,67,67,41
149.47661,149.77072,55,60,41
149.47661,149.77072,67,60,41
150.00601,150.35896,67,60,41
150.35896,150.53543,65,75,41
150.53543,151.06483,69,92,41
151.06483,151.35896,67,60,41
151.59425,151.94719,70,60,41
151.94719,152.12366,69,75,41
152.12366,152.65308,71,92,41
152.65308,152.94719,72,60,41
153.18248,153.65308,64,60,41
153.7119,154.77072,65,75,41
154.2413,154.77072,74,92,41
154.77072,155.30013,65,75,41
154.77072,155.30013,73,75,41
155.30013,155.77072,64,60,41
155.30013,155.77072,72,60,41
155.82954,156.12366,65,60,41
155.82954,156.12366,69,60,41
156.35896,156.41779,67,60,41
156.53543,156.59425,67,60,41
156.7119,156.77072,67,60,41
156.88837,156.94719,67,60,41
157.06483,157.12366,67,60,41
157.2413,157.30013,67,60,41
157.41779,157.47661,67,60,41
157.59425,157.65308,67,60,41
157.77072,157.82954,67,60,41
157.94719,158.00601,67,60,41
158.12366,158.18248,67,60,41
158.30013,158.35895,67,60,41
158.47661,158.53543,67,60,41
158.65308,158.7119,67,60,41
158.82954,158.88837,67,60,41
159.00601,159.30013,67,60,41
159.53543,160.06483,64,60,41
159.53543,160.06483,67,60,41
160.06483,160.53543,65,60,41
160.06483,160.53543,68,60,41
160.59425,161.12366,62,60,41
160.59425,161.12366,65,60,41
161.12366,161.65308,61,60,41
161.12366,161.65308,65,60,41
161.65308,162.12366,58,60,41
161.65308,162.12366,64,60,41
162.18248,162.4766,57,60,41
162.18248,162.4766,65,60,41
162.7119,162.77072,55,60,41
162.88837,162.94719,55,62,41
163.06483,163.12366,55,64,41
163.2413,163.30013,55,66,41
163.41777,163.4766,55,69,41
163.59425,163.65308,55,72,41
163.77072,163.82954,55,75,41
163.94719,164.00601,55,75,41
164.12366,164.18248,55,72,41
164.30013,164.35895,55,69,41
164.4766,164.53542,55,65,41
164.65308,164.7119,55,61,41
164.82954,164.88837,55,57,41
165.00601,165.06483,55,53,41
165.18248,165.2413,55,49,41
165.35895,165.65306,48,45,41
166.2413,166.41777,55,60,41
166.41777,166.77072,53,60,41
166.77072,166.94719,52,75,41
166.94719,167.4766,50,92,41
167.4766,167.77072,52,60,41
167.82954,168.00601,55,60,41
168.00601,168.35895,53,60,41
168.35895,168.53542,52,75,41
168.53542,169.06483,50,92,41
169.06483,169.35895,52,60,41
169.41777,169.59424,52,60,41
169.59424,169.94719,53,60,41
169.94719,170.12366,55,60,41
170.12366,170.4766,57,60,41
170.4766,170.65306,60,62,41
170.65306,171.18248,65,63,41
171.18248,171.65306,62,66,41
171.71188,172.06483,64,69,41
172.06483,172.2413,67,71,41
172.2413,172.7707,72,72,41
172.7707,173.2413,69,76,41
173.30013,173.82953,67,80,41
173.82953,174.88835,69,84,41
174.88835,175.94717,70,92,41
175.94717,176.41777,71,75,41
176.4766,179.79059,72,60,41
179.79059,187.47028,72,45,41
197.31403,197.4807,58,60,41
197.4807,197.81403,63,60,41
197.81403,197.97722,67,60,41
197.9807,198.48068,70,60,41
198.48068,198.75847,67,60,41
198.98068,199.48068,70,84,41
199.48068,199.75847,67,60,41
199.98068,200.48068,73,84,41
200.48068,200.75847,70,60,41
200.98068,201.31403,68,60,41
201.31403,201.48068,70,63,41
201.48068,201.98068,68,64,41
201.98068,202.42513,67,68,41
202.48068,202.81403,65,73,41
202.81403,202.98068,63,76,41
202.98068,203.48068,61,77,41
203.48068,203.92513,63,82,41
204.31401,204.48068,59,92,41
204.48068,204.81401,64,92,41
204.81401,204.97722,68,92,41
204.98068,205.48068,71,92,41
205.48068,205.75845,68,92,41
205.98068,206.48068,71,92,41
206.48068,206.75845,68,92,41
206.98068,207.48068,74,92,41
207.48068,207.75845,71,92,41
207.98068,208.81401,75,92,41
208.81401,208.98068,73,92,41
208.98068,209.48068,71,89,41
209.48068,209.92513,70,78,41
209.98068,210.33362,68,67,41
210.33362,210.51009,66,60,41
210.51009,211.08656,64,57,41
211.08656,211.70195,61,45,41
212.1122,212.27887,48,60,41
212.27887,212.44553,51,60,41
212.44553,212.6122,56,60,41
212.6122,212.77887,60,60,41
212.77887,212.94553,63,60,41
212.94553,213.1122,65,60,41
213.1122,213.27539,63,60,41
213.27887,213.44553,60,60,41
213.44553,213.6122,61,60,41
213.6122,213.77887,60,60,41
213.77887,213.94553,63,60,41
213.94553,214.1122,65,60,41
214.1122,214.27887,63,60,41
214.27887,214.44553,60,60,41
214.44553,214.6122,61,60,41
214.6122,214.77539,60,60,41
214.77887,214.94553,66,60,41
214.94553,215.1122,68,60,41
215.1122,215.27887,66,60,41
215.27887,215.44553,63,60,41
215.44553,215.6122,65,60,41
215.6122,215.77887,63,60,41
215.77887,215.94553,66,60,41
215.94553,216.1122,68,60,41
216.1122,216.27539,66,60,41
216.27887,216.44553,65,60,41
216.44553,216.6122,66,60,41
216.6122,216.77887,65,60,41
216.77887,216.94553,67,60,41
216.94553,217.1122,65,60,41
217.1122,217.27887,67,60,41
217.27887,217.44553,68,60,41
217.44553,217.6122,67,60,41
217.6122,217.77539,68,60,41
217.77885,218.05664,70,60,41
219.6122,219.77885,55,60,41
219.77885,219.94553,58,60,41
219.94553,220.1122,63,60,41
220.1122,220.27885,67,60,41
220.27885,220.44553,70,60,41
220.44553,220.6122,72,60,41
220.6122,220.77539,70,60,41
220.77885,220.94553,67,60,41
220.94553,221.1122,68,60,41
221.1122,221.27885,67,60,41
221.27885,221.44553,70,60,41
221.44553,221.6122,72,60,41
221.6122,221.77885,70,60,41
221.77885,221.94553,67,60,41
221.94553,222.1122,68,60,41
222.1122,222.27539,67,60,41
222.27885,222.44553,73,60,41
222.44553,222.61218,75,60,41
222.61218,222.77885,73,60,41
222.77885,222.94553,70,60,41
222.94553,223.11218,72,60,41
223.11218,223.27885,70,60,41
223.27885,223.44553,76,60,41
223.44553,223.61218,78,60,41
223.61218,223.77539,76,60,41
223.77885,223.94553,75,60,41
223.94553,224.11218,76,61,41
224.11218,224.27885,75,62,41
224.27885,224.44553,73,63,41
224.44553,224.61218,75,64,41
224.61218,224.77885,73,66,41
224.77885,224.94553,72,68,41
224.94553,225.11218,73,70,41
225.11218,225.27538,72,72,41
225.27885,225.44553,71,74,41
225.44553,225.61218,73,76,41
225.61218,225.77885,71,78,41
225.77885,225.94553,70,80,41
225.94553,226.11218,71,82,41
226.11218,226.27885,70,84,41
226.27885,226.44553,63,86,41
226.44553,226.61218,64,88,41
226.61218,226.77538,63,90,41
226.77885,226.94553,55,92,41
226.94553,227.11218,56,92,41
227.11218,227.27538,55,92,41
227.27885,227.44205,56,92,41
228.11218,228.27885,59,92,41
228.27885,228.61218,64,92,41
228.61218,228.77538,68,92,41
228.77885,229.27885,71,92,41
229.27885,229.55663,68,92,41
229.77885,230.27885,74,92,41
230.27885,230.55663,71,92,41
230.77885,231.61218,75,92,41
231.61218,231.77885,73,92,41
231.77885,232.27885,71,90,41
232.27885,232.7233,70,81,41
232.77884,233.11218,68,72,41
233.11218,233.27884,63,66,41
233.27884,233.77884,59,63,41
233.77884,234.2233,58,54,41
234.27884,234.61218,66,45,41
234.61218,234.77884,68,45,41
234.77884,235.27884,66,45,41
235.27884,235.72328,63,45,41
235.77884,236.11218,64,45,41
236.11218,236.27884,66,45,41
236.27884,236.77884,64,45,41
236.77884,237.22328,68,45,41
237.27884,237.61218,66,45,41
237.61218,237.77884,68,45,41
237.77884,238.27884,66,45,41
238.27884,238.72328,63,45,41
238.77884,239.11217,64,45,41
239.11217,239.27884,66,45,41
239.27884,239.77884,64,45,41
239.77884,240.22328,68,45,41
240.27884,240.61217,64,45,41
240.61217,240.77884,66,45,41
240.77884,241.27884,64,45,41
241.27884,241.72328,68,45,41
241.77884,242.22328,69,45,41
242.27884,243.1955,70,52,41
243.27884,243.61217,59,68,41
243.61217,243.77536,71,73,41
243.77884,244.11217,71,75,41
244.11217,244.27536,59,80,41
244.27884,244.61217,59,83,41
244.61217,244.77536,71,89,41
244.77884,245.22328,71,92,41
245.77884,246.05661,63,75,41
245.77884,246.05661,71,75,41
246.77884,247.05661,64,60,41
246.77884,247.05661,71,60,41
249.27882,249.61217,55,60,41
249.61217,249.77882,54,60,41
249.77882,250.27882,55,60,41
250.27882,250.72327,49,60,41
250.77882,251.11217,48,60,41
251.11217,251.27882,49,60,41
251.27882,251.77882,48,60,41
251.77882,252.22327,56,60,41
252.27882,252.61217,55,60,41
252.61217,252.77882,54,60,41
252.77882,253.27882,55,60,41
253.27882,253.72327,49,60,41
253.77882,254.11215,48,60,41
254.11215,254.27882,49,67,41
254.27882,254.77882,48,70,41
254.77882,255.22327,56,81,41
255.27882,255.61215,48,92,41
255.61215,255.77882,49,92,41
255.77882,256.2788,48,92,41
256.2788,256.72327,56,75,41
256.7788,257.11215,68,60,41
257.11215,257.27536,70,60,41
257.2788,257.61215,70,62,41
257.61215,257.77536,71,66,41
257.7788,258.11215,71,68,41
258.11215,258.27536,72,72,41
258.2788,258.61215,72,74,41
258.61215,258.77536,73,78,41
258.7788,259.11215,73,80,41
259.11215,259.27536,74,84,41
259.2788,259.61215,74,86,41
259.61215,259.77536,75,90,41
259.7788,260.2788,75,92,41
260.2788,260.5566,72,60,41
260.7788,261.11215,74,75,41
261.11215,261.27536,75,75,41
261.2788,261.7788,75,92,41
261.7788,262.2788,72,92,41
262.2788,262.7788,68,83,41
262.7788,263.2788,66,74,41
263.2788,263.7788,63,65,41
263.7788,264.2788,60,55,41
264.2788,264.55658,56,45,41
265.11215,265.2788,65,60,41
265.2788,265.61215,68,60,41
265.61215,265.77533,73,60,41
265.7788,266.2788,77,60,41
266.2788,266.55658,73,60,41
266.7788,267.2788,77,60,41
267.2788,267.55658,73,60,41
267.7788,268.2788,75,60,41
268.2788,268.55658,77,60,41
268.7788,269.2788,70,60,41
269.2788,269.7788,72,60,41
269.7788,270.22327,73,60,41
270.2788,270.7788,67,60,41
270.7788,271.2788,68,60,41
271.2788,271.72327,67,60,41
271.7788,272.05658,68,60,41
272.61215,272.7788,63,60,41
272.7788,273.11215,68,60,41
273.11215,273.27533,72,60,41
273.2788,273.7788,75,60,41
273.7788,274.05658,72,60,41
274.2788,274.7788,75,60,41
274.7788,275.05658,72,60,41
275.2788,275.7788,78,60,41
275.7788,276.05658,75,60,41
276.2788,276.61212,73,60,41
276.61212,276.7788,75,63,41
276.7788,277.2788,73,64,41
277.2788,277.72324,72,68,41
277.7788,278.11212,70,73,41
278.11212,278.2788,68,76,41
278.2788,278.7788,66,77,41
278.7788,279.22324,68,82,41
279.61212,279.7788,56,92,41
279.7788,280.11212,61,92,41
280.11212,280.27533,65,92,41
280.2788,280.7788,68,92,41
280.7788,281.05658,65,92,41
281.2788,281.7788,68,92,41
281.7788,282.05658,65,92,41
282.2788,282.7788,71,92,41
282.7788,283.05658,68,92,41
283.2788,283.7788,71,92,41
283.7788,284.05658,68,92,41
284.2788,284.7788,71,92,41
284.7788,285.05658,68,92,41
285.2788,285.7788,74,92,41
285.7788,286.05658,71,92,41
286.27878,286.77878,74,92,41
286.77878,287.05658,71,92,41
287.27878,287.77878,74,92,41
287.77878,288.05658,71,92,41
288.27878,288.77878,77,92,41
288.77878,289.05658,74,92,41
289.27878,290.27878,80,92,41
290.27878,290.55658,77,92,41
290.77878,291.27878,68,92,41
291.27878,291.55658,65,77,41
291.77878,292.27878,56,62,41
292.27878,292.55658,53,45,41
292.77878,293.27878,80,60,41
293.27878,293.55655,78,60,41
293.77878,294.27878,68,60,41
294.27878,294.55655,66,60,41
294.77878,295.27878,56,60,41
295.27878,295.55655,54,60,41
295.77878,296.1317,56,60,41
296.1317,296.3082,58,60,41
296.3082,296.83762,56,60,41
296.83762,297.3082,55,60,41
297.367,297.71997,53,60,41
297.71997,297.89642,51,60,41
297.89642,298.42584,50,60,41
298.42584,298.89642,53,60,41
298.95526,299.33026,56,60,41
299.33026,299.51776,58,58,41
299.51776,300.08026,56,57,41
300.08026,300.58026,55,54,41
300.64276,301.04276,53,51,41
301.04276,301.24277,51,49,41
301.24277,301.87134,50,48,41
301.87134,302.22845,53,45,41
305.68326,305.8597,67,60,41
305.8597,306.21265,65,60,41
306.21265,306.38913,63,55,41
306.38913,306.91855,62,74,41
306.91855,307.21265,63,45,41
307.27148,307.44794,67,60,41
307.44794,307.8009,65,60,41
307.8009,307.97736,63,55,41
307.97736,308.50677,62,74,41
308.50677,308.8009,63,45,41
308.8597,309.0362,63,60,41
309.0362,309.38913,65,60,41
309.38913,309.56192,67,60,41
309.56558,309.91855,68,60,41
309.91855,310.095,70,60,41
310.095,310.62442,72,60,41
310.62442,310.97736,70,60,41
310.97736,311.15015,68,60,41
311.15384,311.68323,67,60,41
311.68323,311.97736,65,60,41
312.0362,312.21265,67,60,41
312.21265,312.56558,65,58,41
312.56558,312.74207,63,54,41
312.74207,313.27148,62,72,41
313.27148,313.56558,63,45,41
313.62442,313.80087,68,60,41
313.80087,314.15384,66,60,41
314.15384,314.32663,65,60,41
314.3303,314.80087,65,60,41
315.21265,315.38913,68,60,41
315.38913,315.74207,66,58,41
315.74207,315.91852,65,54,41
315.91852,316.44794,63,72,41
316.44794,316.74207,65,45,41
316.80087,316.97736,72,60,41
316.97736,317.3303,70,60,41
317.3303,317.50308,69,60,41
317.50677,317.97736,69,60,41
318.38913,318.56558,66,60,41
318.56558,318.91852,67,60,41
318.91852,319.09134,69,60,41
319.095,319.44794,70,60,41
319.44794,319.62073,72,75,41
319.62442,320.15384,73,92,41
320.15384,320.62442,67,75,41
320.68323,321.15384,66,60,41
321.56558,321.74207,66,60,41
321.74207,322.095,67,60,41
322.095,322.2678,69,60,41
322.27148,322.62442,70,60,41
322.62442,322.7972,72,75,41
322.80087,323.1538,73,92,41
323.1538,323.32663,67,75,41
323.3303,323.68323,66,75,41
323.68323,323.85602,60,60,41
323.8597,324.1538,59,45,41
324.38913,324.68323,55,45,41
330.21265,330.27145,48,60,41
330.3891,330.44794,48,60,41
330.56558,330.62442,48,60,41
330.74207,330.80087,48,60,41
330.91852,330.97736,48,60,41
331.095,331.1538,48,60,41
331.27145,331.3303,48,60,41
331.44794,331.50677,48,60,41
331.62442,331.68323,48,60,41
331.80087,331.8597,48,60,41
331.97736,332.03616,48,60,41
332.1538,332.21265,48,60,41
332.3303,332.3891,48,60,41
332.50674,332.56558,48,60,41
332.68323,332.74207,48,60,41
332.8597,332.91852,48,60,41
333.03616,333.095,48,60,41
333.21265,333.27145,48,60,41
333.3891,333.44794,48,60,41
333.56558,333.62442,48,60,41
333.74207,333.80087,48,60,41
333.91852,333.97736,48,60,41
334.095,334.1538,48,60,41
334.27145,334.3303,48,60,41
334.44794,334.50674,48,60,41
334.62442,334.68323,48,60,41
334.80087,334.8597,48,60,41
334.97736,335.03616,48,60,41
335.1538,335.21265,48,60,41
335.3303,335.3891,48,60,41
335.50674,335.56558,48,60,41
335.68323,335.74207,48,60,41
335.8597,335.91852,48,60,41
336.03616,336.095,48,60,41
336.21265,336.27145,48,60,41
336.3891,336.44794,48,60,41
336.56558,336.6244,48,60,41
336.74207,336.80087,48,60,41
336.91852,336.97736,48,60,41
337.095,337.1538,48,60,41
337.27145,337.3303,48,60,41
337.44794,337.50674,48,60,41
337.6244,337.68323,48,60,41
337.80087,337.8597,48,60,41
337.97736,338.03616,48,60,41
338.1538,338.21265,48,60,41
338.3303,338.3891,48,60,41
338.50674,338.56558,48,60,41
338.68323,338.74207,48,60,41
338.8597,338.91852,48,60,41
339.03616,339.095,48,60,41
339.21265,339.27145,48,60,41
339.3891,339.44794,48,60,41
339.56558,339.6244,48,60,41
339.74203,339.80087,49,60,41
339.91852,339.97736,49,60,41
340.095,340.1538,49,60,41
340.27145,340.3303,49,60,41
340.44794,340.50674,49,60,41
340.6244,340.68323,49,60,41
340.80087,340.8597,49,60,41
340.97736,341.03616,49,60,41
341.1538,341.21265,49,60,41
341.3303,341.3891,49,60,41
341.50674,341.56558,49,60,41
341.68323,341.74203,49,60,41
341.8597,341.91852,49,60,41
342.03616,342.095,49,60,41
342.21265,342.27145,49,60,41
342.3891,342.44794,49,60,41
342.56558,342.6244,49,60,41
342.74203,342.80087,49,60,41
342.91852,342.97736,50,60,41
343.095,343.1538,50,60,41
343.27145,343.3303,50,60,41
343.44794,343.50674,50,60,41
343.6244,343.68323,50,60,41
343.80087,343.85968,50,60,41
343.97736,344.03616,50,60,41
344.1538,344.21265,50,60,41
344.3303,344.3891,50,60,41
344.50674,344.56558,50,60,41
344.68323,344.74203,50,70,41
344.85968,344.91852,50,81,41
345.03616,345.095,50,92,41
345.21265,345.27145,50,92,41
345.3891,345.44794,50,86,41
345.56558,345.6244,50,80,41
345.74203,345.80087,50,74,41
345.91852,345.97736,50,67,41
346.095,346.1538,50,60,41
346.27145,346.3303,50,60,41
346.44794,346.50674,50,60,41
346.6244,346.68323,50,60,41
346.80087,346.85968,50,60,41
346.97733,347.03616,50,60,41
347.1538,347.21265,50,60,41
347.3303,347.3891,50,60,41
347.50674,347.56558,50,60,41
347.68323,347.74203,50,60,41
347.85968,347.91852,50,59,41
348.03616,348.095,50,57,41
348.21265,348.27145,50,55,41
348.3891,348.44794,50,53,41
348.56558,348.6244,50,51,41
348.74203,348.80087,50,49,41
348.91852,348.97733,50,47,41
349.095,349.1538,50,45,41
349.80087,350.1538,62,60,41
350.1538,350.3303,60,75,41
350.3303,350.85968,64,92,41
350.85968,351.1538,62,60,41
351.3891,351.74203,65,60,41
351.74203,351.91852,64,75,41
351.91852,352.44794,72,92,41
352.44794,352.74203,71,60,41
352.97733,353.50674,65,75,41
352.97733,353.50674,71,75,41
353.50674,353.97733,64,75,41
353.50674,353.97733,72,75,41
354.03616,354.56558,63,92,41
354.03616,354.56558,69,92,41
354.56558,355.09497,62,75,41
354.56558,355.09497,68,75,41
355.09497,355.56558,65,60,41
355.6244,355.80087,49,84,41
355.80087,355.97733,48,60,41
355.97733,356.1538,49,63,41
356.1538,356.3303,48,66,41
356.3303,356.50674,49,69,41
356.50674,356.68323,48,72,41
356.68323,356.85968,49,75,41
356.85968,357.03616,48,75,41
357.03616,357.20895,49,75,41
357.21262,357.3891,48,75,41
357.3891,357.56558,49,72,41
357.56558,357.74203,48,69,41
357.74203,357.91852,49,65,41
357.91852,358.09497,48,61,41
358.09497,358.27145,49,57,41
358.27145,358.44794,48,53,41
358.44794,358.6244,49,49,41
358.6244,358.79718,48,45,41
358.80087,359.09497,56,60,41
359.33026,359.6244,56,60,41
360.3891,360.68323,48,60,41
360.3891,360.68323,55,60,41
360.91852,361.21262,48,60,41
360.91852,361.21262,55,60,41
361.97733,362.27145,56,60,41
362.50674,362.80087,56,60,41
363.56558,363.85968,48,60,41
363.56558,363.85968,55,60,41
364.09497,364.3891,48,60,41
364.09497,364.3891,55,60,41
365.1538,365.4479,48,60,41
365.1538,365.4479,56,60,41
365.68323,365.97733,48,60,41
365.68323,365.97733,58,60,41
366.21262,366.50674,48,60,41
366.21262,366.50674,60,60,41
366.74203,367.03616,53,60,41
366.74203,367.03616,61,60,41
367.80087,368.33026,53,75,41
368.33026,368.85968,65,92,41
368.85968,369.3891,62,75,41
369.3891,369.85968,50,60,41
369.91852,370.21262,52,60,41
370.97733,371.27145,48,60,41
370.97733,371.27145,58,60,41
371.50674,371.6832,53,60,41
371.6832,371.85968,56,60,41
371.85968,372.03616,61,60,41
372.03616,372.09497,65,60,41
372.21262,372.27145,65,60,41
372.3891,372.4479,65,60,41
372.56555,372.6244,61,60,41
372.74203,372.80084,61,60,41
372.91852,372.97733,61,60,41
373.09497,373.27145,48,60,41
373.27145,373.4479,55,60,41
373.4479,373.6244,60,60,41
373.6244,373.6832,64,60,41
373.80084,373.85968,64,60,41
373.97733,374.03616,64,60,41
374.1538,374.21262,60,60,41
374.33026,374.3891,60,60,41
374.50674,374.56555,60,60,41
374.6832,374.85968,53,60,41
374.85968,375.03616,56,60,41
375.03616,375.21262,61,60,41
375.21262,375.27145,65,60,41
375.3891,375.4479,65,60,41
375.56555,375.6244,65,60,41
375.74203,375.80084,61,60,41
375.9185,375.97733,61,60,41
376.09497,376.1538,61,60,41
376.27145,376.4479,55,60,41
376.4479,376.6244,61,60,41
376.6244,376.80084,63,60,41
376.80084,376.85968,67,60,41
376.97733,377.03616,67,60,41
377.1538,377.21262,67,60,41
377.33026,377.3891,61,60,41
377.50674,377.56555,61,60,41
377.6832,377.74203,61,60,41
378.03616,378.21262,60,60,41
378.21262,378.3854,63,60,41
378.56555,378.74203,61,60,41
378.74203,378.91483,63,60,41
379.09497,379.27145,60,60,41
379.27145,379.44424,63,60,41
379.6244,379.80084,53,60,41
379.80084,379.97733,56,64,41
379.97733,380.03613,61,68,41
380.1538,380.21262,61,72,41
380.33026,380.3891,61,77,41
380.50674,380.56555,65,82,41
380.6832,380.74203,65,87,41
380.85968,380.9185,65,92,41
381.21262,381.3891,54,60,41
381.3891,381.5619,58,60,41
381.56555,381.6244,58,65,41
381.74203,381.80084,61,70,41
381.9185,381.97733,61,75,41
382.09497,382.1538,65,80,41
382.27145,382.33026,65,86,41
382.4479,382.50674,65,92,41
382.80084,382.97733,54,60,41
382.97733,383.15012,58,60,41
383.15378,383.21262,58,65,41
383.33026,383.3891,61,70,41
383.50674,383.56555,61,75,41
383.6832,383.74203,65,80,41
383.85968,383.9185,65,86,41
384.03613,384.09497,65,92,41
384.3891,384.56555,56,60,41
384.56555,384.74203,60,60,41
384.74203,384.80084,65,60,41
384.9185,384.97733,65,60,41
385.09497,385.15378,56,60,41
385.27145,385.33026,58,60,41
385.4479,385.50674,58,60,41
385.6244,385.6832,55,60,41
385.80084,386.09497,56,60,41
386.6832,386.85968,60,60,41
386.85968,387.21262,58,60,41
387.21262,387.3891,56,75,41
387.3891,387.9185,55,92,41
387.9185,388.21262,56,60,41
389.85968,390.03613,56,60,41
390.03613,390.38907,58,65,41
390.38907,390.5619,60,75,41
390.56555,390.9185,61,80,41
390.9185,391.09497,63,92,41
391.09497,391.38907,65,75,41
393.03613,393.21262,60,60,41
393.21262,393.56555,58,60,41
393.56555,393.74203,56,75,41
393.74203,394.27142,55,92,41
394.27142,394.56555,56,60,41
396.21262,396.38907,61,60,41
396.38907,396.74203,59,60,41
396.74203,396.9185,58,75,41
396.9185,397.4479,56,92,41
397.4479,397.74203,58,60,41
399.38907,399.56555,67,60,41
399.56555,399.9185,66,65,41
399.9185,400.09497,65,75,41
400.09497,400.4479,63,80,41
400.4479,400.62436,62,92,41
400.62436,401.59497,60,75,41
401.6832,402.15378,59,60,41
403.80084,404.85965,55,60,41
404.85965,405.73834,56,75,41
405.742,405.9185,68,60,41
405.9185,406.27142,67,60,41
406.27142,406.4479,66,72,41
406.4479,406.80084,64,78,41
406.80084,406.97733,63,92,41
406.97733,407.9479,61,75,41
408.03613,408.5067,60,60,41
410.15378,411.12436,56,60,41
411.21262,412.09128,57,75,41
412.09494,412.27142,69,60,41
412.27142,412.62436,68,60,41
412.62436,412.79715,67,64,41
412.80084,413.15378,65,66,41
413.15378,413.32657,64,70,41
413.33026,414.20892,62,72,41
414.21262,414.3854,64,84,41
414.38907,414.6832,65,86,41
414.742,414.9148,57,92,41
414.9185,414.9773,57,105,41
415.09494,415.15378,57,75,41
415.27142,415.33026,57,75,41
415.4479,415.5067,56,105,41
415.62436,415.6832,56,75,41
415.80084,415.85965,56,75,41
415.9773,416.03613,55,105,41
416.15378,416.2126,55,75,41
416.33026,416.38907,55,75,41
416.5067,416.6795,53,75,41
416.85965,416.992,67,92,41
416.992,417.03613,70,92,41
417.03613,417.20892,68,92,41
417.38907,417.56555,67,92,41
417.56555,417.85965,68,92,41
418.4479,418.58023,67,75,41
418.58023,418.62436,70,75,41
418.62436,418.79715,68,75,41
418.9773,419.15378,67,75,41
419.15378,419.4479,68,75,41
420.03613,420.1685,67,60,41
420.1685,420.2126,70,60,41
420.2126,420.3854,68,60,41
420.56555,420.742,67,60,41
420.742,421.6207,68,60,41
421.62436,421.80084,67,60,41
421.80084,421.97363,63,60,41
422.15378,422.33023,65,60,41
422.33023,422.80084,62,60,41
423.2126,423.34494,67,60,41
423.34494,423.38907,70,60,41
423.38907,423.56186,68,60,41
423.742,423.9185,67,60,41
423.9185,424.79715,70,60,41
424.80084,424.9773,68,60,41
424.9773,425.1501,63,60,41
425.33023,425.5067,65,60,41
425.5067,425.9773,62,60,41
426.38907,426.52142,67,60,41
426.52142,426.56552,70,60,41
426.56552,426.73834,68,60,41
426.9185,427.09494,67,60,41
427.09494,427.28244,75,60,41
427.35965,427.54715,74,60,41
427.62436,427.81186,72,60,41
427.88907,428.07657,71,60,41
428.15378,428.34128,72,60,41
428.4185,428.5067,70,60,41
428.6832,428.94788,67,60,41
428.94788,429.20892,68,60,41
429.2126,429.4773,60,75,41
429.4773,429.73834,62,75,41
429.742,430.53244,63,92,41
430.53613,430.80084,62,75,41
430.80084,431.06552,65,75,41
431.06552,431.32657,63,75,41
431.33023,431.50302,59,60,41
431.68317,431.856,60,60,41
431.85965,432.15378,67,60,41
433.62436,433.8008,60,60,41
433.8008,433.9773,62,60,41
433.9773,434.03613,69,60,41
434.15378,434.2126,69,60,41
434.33023,434.38907,67,60,41
434.5067,434.56552,66,60,41
434.68317,434.742,66,60,41
434.85965,434.9185,66,60,41
435.2126,435.38907,60,60,41
435.38907,435.56552,62,60,41
435.56552,435.62436,69,60,41
435.742,435.8008,69,60,41
435.9185,435.9773,67,60,41
436.09494,436.15378,67,60,41
436.27142,436.33023,67,60,41
436.44788,436.5067,67,60,41
436.8008,436.9773,58,60,41
436.9773,437.15378,60,60,41
437.15378,437.2126,67,60,41
437.33023,437.38907,67,60,41
437.5067,437.56552,65,60,41
437.68317,437.742,65,60,41
437.85965,437.91846,65,60,41
438.03613,438.09494,65,60,41
438.38907,438.56552,60,60,41
438.56552,438.742,62,64,41
438.742,438.8008,67,68,41
438.91846,438.9773,67,72,41
439.09494,439.15378,67,77,41
439.27142,439.33023,65,82,41
439.44788,439.5067,65,87,41
439.62436,439.68317,65,92,41
439.9773,440.15378,55,60,41
439.9773,440.15378,64,60,41
440.15378,440.32657,55,60,41
440.15378,440.32657,67,60,41
440.5067,440.68317,55,60,41
440.5067,440.68317,65,60,41
440.68317,440.85596,55,60,41
440.68317,440.85596,67,60,41
441.0361,441.2126,55,60,41
441.0361,441.2126,64,60,41
441.2126,441.38538,55,60,41
441.2126,441.38538,67,60,41
441.56552,441.742,60,75,41
441.742,441.9148,69,75,41
442.09494,442.27142,57,80,41
442.27142,442.4442,60,83,41
442.44788,442.5067,60,86,41
442.62436,442.68317,60,89,41
442.8008,442.85965,60,92,41
443.15378,443.33023,58,60,41
443.33023,443.5067,62,60,41
443.5067,443.56552,65,65,41
443.68317,443.742,65,70,41
443.85965,443.91846,65,75,41
444.0361,444.09494,69,80,41
444.2126,444.27142,69,86,41
444.38907,444.44788,69,92,41
444.742,444.91846,58,60,41
444.91846,445.09494,62,60,41
445.09494,445.15375,65,65,41
445.27142,445.33023,65,70,41
445.44788,445.5067,65,75,41
445.62436,445.68317,69,80,41
445.8008,445.85965,69,86,41
445.9773,446.0361,69,92,41
446.33023,446.5067,60,60,41
446.5067,446.68317,63,60,41
446.68317,446.742,67,65,41
446.85965,446.91846,67,70,41
447.0361,447.09494,60,75,41
447.2126,447.2714,67,80,41
447.38907,447.44788,67,86,41
447.56552,447.62436,55,92,41
447.91846,448.09494,60,92,41
448.09494,448.2714,63,75,41
448.2714,448.33023,67,92,41
448.44788,448.5067,67,75,41
448.62436,448.68317,60,60,41
448.8008,448.85965,67,60,41
448.9773,449.0361,67,60,41
449.15375,449.2126,55,60,41
449.5067,449.68317,60,60,41
449.68317,449.85965,63,62,41
449.85965,449.91846,69,65,41
450.0361,450.09494,69,68,41
450.2126,450.2714,69,71,41
450.38907,450.44788,69,74,41
450.56552,450.62436,69,77,41
450.742,450.8008,69,80,41
450.91846,450.9773,69,83,41
451.09494,451.15375,69,86,41
451.2714,451.33023,69,89,41
451.44788,451.5067,69,92,41
451.62436,451.68317,69,92,41
451.8008,451.85965,69,83,41
451.9773,452.0361,55,74,41
451.9773,452.0361,67,74,41
452.15375,452.2126,55,65,41
452.15375,452.2126,67,65,41
452.33023,452.38904,55,55,41
452.33023,452.38904,67,55,41
452.5067,452.8008,55,45,41
452.5067,452.8008,67,45,41
453.0361,453.38904,67,60,41
453.38904,453.56552,65,75,41
453.56552,454.09494,69,92,41
454.09494,454.38904,67,60,41
454.62436,454.9773,70,60,41
454.9773,455.15375,69,75,41
455.15375,455.68317,71,92,41
455.68317,455.9773,72,60,41
456.2126,456.68317,64,60,41
456.742,457.8008,65,75,41
457.2714,457.8008,74,92,41
457.8008,458.33023,65,75,41
457.8008,458.33023,73,75,41
458.33023,458.8008,64,60,41
458.33023,458.8008,72,60,41
458.85965,459.15375,65,60,41
458.85965,459.15375,69,60,41
459.38904,459.44788,67,60,41
459.56552,459.62433,67,60,41
459.742,459.8008,67,60,41
459.91846,459.9773,67,60,41
460.09494,460.15375,67,60,41
460.2714,460.33023,67,60,41
460.44788,460.50668,67,60,41
460.62433,460.68317,67,60,41
460.8008,460.85965,67,60,41
460.9773,461.0361,67,60,41
461.15375,461.2126,67,60,41
461.33023,461.38904,67,60,41
461.50668,461.56552,67,60,41
461.68317,461.74197,67,60,41
461.85965,461.91846,67,60,41
462.0361,462.33023,67,60,41
462.56552,463.09494,64,60,41
462.56552,463.09494,67,60,41
463.09494,463.56552,65,60,41
463.09494,463.56552,68,60,41
463.62433,464.15375,62,60,41
463.62433,464.15375,65,60,41
464.15375,464.68317,61,60,41
464.15375,464.68317,65,60,41
464.68317,465.15375,58,60,41
464.68317,465.15375,64,60,41
465.2126,465.50668,57,60,41
465.2126,465.50668,65,60,41
465.74197,465.8008,55,60,41
465.91846,465.9773,55,62,41
466.09494,466.15375,55,64,41
466.2714,466.33023,55,66,41
466.44788,466.50668,55,69,41
466.62433,466.68317,55,72,41
466.8008,466.85962,55,75,41
466.9773,467.0361,55,75,41
467.15375,467.2126,55,72,41
467.33023,467.38904,55,69,41
467.50668,467.56552,55,65,41
467.68317,467.74197,55,61,41
467.85962,467.91846,55,57,41
468.0361,468.09494,55,53,41
468.2126,468.2714,55,49,41
468.38904,468.68317,48,45,41
469.2714,469.44788,55,60,41
469.44788,469.8008,53,60,41
469.8008,469.97726,52,75,41
469.97726,470.50668,50,92,41
470.50668,470.8008,52,60,41
470.85962,471.0361,55,60,41
471.0361,471.38904,53,60,41
471.38904,471.56552,52,75,41
471.56552,472.09494,50,92,41
472.09494,472.38904,52,60,41
472.44788,472.62433,52,60,41
472.62433,472.97726,53,60,41
472.97726,473.15375,55,62,41
473.15375,473.50668,57,63,41
473.50668,473.68317,60,65,41
473.68317,474.2126,65,66,41
474.2126,474.68317,62,69,41
474.74197,475.0949,64,72,41
475.0949,475.2714,67,74,41
475.2714,475.8008,72,75,41
475.8008,476.2714,69,78,41
476.33023,476.85962,67,81,41
476.85962,477.91846,69,84,41
477.91846,478.97726,70,92,41
478.97726,479.44788,71,75,41
479.50668,485.85962,72,60,41
485.85962,489.15427,72,45,41
493.45395,493.6206,52,45,41
493.6206,493.95395,55,45,41
493.95395,494.11713,60,45,41
494.1206,494.6206,64,45,41
494.6206,494.89838,60,45,41
495.1206,495.6206,64,45,41
495.6206,495.89838,60,45,41
496.1206,496.6206,64,45,41
496.6206,496.89838,60,45,41
497.1206,497.45395,60,45,41
497.45395,497.6206,48,45,41
497.6206,498.06503,60,45,41
498.1206,498.56503,60,45,41
498.6206,498.95395,53,45,41
498.95395,499.1206,55,45,41
499.1206,499.6206,53,45,41
499.6206,500.06503,52,45,41
500.1206,501.03726,50,45,41
501.1206,502.06503,52,75,41
502.1206,503.03726,53,92,41
503.1206,504.61713,52,75,41
504.6206,506.11713,52,60,41
506.1206,508.23578,52,45,41
22.235283,22.5294,55,60,45
22.764694,23.058811,55,60,45
23.823517,24.117636,55,60,45
24.352928,24.647047,55,60,45
25.411753,25.70587,55,60,45
25.952192,26.273026,55,60,45
325.44794,325.74207,55,60,45
325.97736,326.27145,55,60,45
327.03616,327.3303,55,60,45
327.56558,327.8597,55,60,45
328.62442,328.91852,55,60,45
329.1538,329.44794,55,60,45
1.5882345,1.647058,60,45,42
1.764705,1.8235285,60,45,42
1.9411755,1.999999,60,45,42
2.117646,2.1764696,60,45,42
2.2941165,2.35294,60,45,42
2.470587,2.5294106,60,45,42
2.6470575,2.705881,60,45,42
2.823528,2.8823514,60,45,42
2.9999986,3.058822,60,45,42
3.176469,3.2352924,60,45,42
3.3529396,3.411763,60,45,42
3.52941,3.5882335,60,45,42
3.7058804,3.764704,60,45,42
3.882351,3.9411745,60,45,42
4.0588217,4.117645,60,45,42
4.235292,4.2941155,60,45,42
4.4117627,4.470586,60,45,42
4.588233,4.6470566,60,45,42
4.7647033,4.823527,60,45,42
4.941174,4.9999976,60,46,42
5.1176443,5.176468,60,47,42
5.294115,5.3529387,60,48,42
5.4705853,5.529409,60,49,42
5.647056,5.7058797,60,50,42
5.8235264,5.88235,60,51,42
5.999997,6.0588207,60,52,42
6.1764674,6.235291,60,53,42
6.352938,6.4117613,60,54,42
6.5294085,6.588232,60,56,42
6.705879,6.7647023,60,58,42
6.8823495,6.941173,60,60,42
7.05882,7.1176434,60,60,42
7.2352905,7.294114,60,59,42
7.411761,7.4705844,60,57,42
7.5882316,7.647055,60,55,42
7.764702,7.8235254,60,53,42
7.9411726,7.999996,60,51,42
8.117643,8.176467,60,49,42
8.294113,8.352937,60,47,42
8.470584,8.5294075,60,45,42
8.647055,8.705878,60,45,42
8.823525,8.882348,60,45,42
8.999995,9.058819,60,45,42
9.176466,9.23529,60,45,42
9.352937,9.41176,60,45,42
9.529407,9.58823,60,45,42
9.705877,9.764701,60,45,42
9.882348,9.941172,60,45,42
10.058819,10.117642,60,45,42
10.235289,10.294112,60,45,42
10.411759,10.470583,60,45,42
10.58823,10.647054,60,45,42
10.764701,10.823524,60,45,42
10.941171,10.999994,60,45,42
11.117641,11.176465,61,45,42
11.294112,11.352936,61,45,42
11.470583,11.529406,61,45,42
11.647053,11.705876,61,45,42
11.8235235,11.882347,61,45,42
11.999994,12.058818,61,45,42
12.176464,12.235288,61,45,42
12.352935,12.411758,61,45,42
12.529406,12.588229,61,45,42
12.705876,12.7647,61,45,42
12.882346,12.94117,61,45,42
13.058817,13.1176405,61,45,42
13.235288,13.294111,61,45,42
13.411758,13.470581,61,45,42
13.588228,13.647052,61,45,42
13.764699,13.823523,61,45,42
13.94117,13.999993,61,45,42
14.11764,14.176463,61,45,42
14.29411,14.352934,62,45,42
14.470581,14.529405,62,45,42
14.647052,14.705875,62,45,42
14.823522,14.882345,62,45,42
14.999992,15.058816,62,45,42
15.176463,15.235287,62,45,42
15.352934,15.411757,62,45,42
15.529404,15.588227,62,45,42
15.705874,15.764698,62,45,42
15.882345,15.941169,62,45,42
16.058815,16.11764,62,60,42
16.235287,16.29411,62,76,42
16.411757,16.47058,62,92,42
16.588226,16.64705,62,92,42
16.764698,16.82352,62,75,42
16.941168,16.999992,62,60,42
17.117638,17.176462,62,60,42
17.29411,17.352932,62,60,42
17.47058,17.529404,62,60,42
17.64705,17.705873,62,60,42
17.82352,17.882343,62,60,42
17.99999,18.058815,62,60,42
18.176462,18.235285,62,60,42
18.352932,18.411755,62,60,42
18.529402,18.588226,62,60,42
18.705873,18.764696,62,60,42
18.882343,18.941168,62,60,42
19.058813,19.117638,62,60,42
19.235285,19.294107,62,70,42
19.411755,19.47058,62,81,42
19.588226,19.647049,62,92,42
19.764696,19.823519,62,75,42
19.941166,19.99999,62,75,42
20.117638,20.17646,62,60,42
20.294107,20.35293,62,60,42
20.470577,20.529402,62,60,42
20.647049,20.705872,55,45,42
20.823519,20.882343,55,45,42
20.999989,21.058813,55,45,42
21.17646,21.235283,55,45,42
21.35293,21.411755,55,45,42
21.529402,21.588224,55,45,42
21.705872,21.764694,55,45,42
21.882341,21.941166,55,45,42
22.058813,22.117636,55,45,42
22.235283,22.294107,55,45,42
22.411753,22.470577,55,45,42
22.588224,22.647047,55,45,42
22.764694,22.823519,55,45,42
22.941166,22.999989,55,45,42
23.117636,23.176458,55,45,42
23.294106,23.35293,55,45,42
23.470577,23.5294,55,45,42
23.647047,23.70587,55,45,42
23.823517,23.882341,55,45,42
23.999989,24.058811,55,48,42
24.176458,24.235283,55,51,42
24.352928,24.411753,55,54,42
24.5294,24.588223,55,57,42
24.70587,24.764694,55,60,42
24.882341,24.941164,55,63,42
25.058811,25.117634,55,67,42
25.235281,25.294106,55,71,42
25.411753,25.470575,55,75,42
25.588223,25.647045,55,75,42
25.764692,25.827192,55,71,42
25.952192,26.014692,55,67,42
26.139692,26.20636,55,63,42
26.339693,26.406359,55,59,42
26.539694,26.611122,55,55,42
26.753979,26.825407,55,50,42
26.968264,27.039692,55,45,42
28.064901,28.241373,36,45,42
28.241373,28.594313,38,45,42
28.594313,28.770784,39,76,42
28.770784,29.123726,44,92,42
29.123726,29.300196,43,75,42
29.300196,29.594313,36,60,42
29.653137,29.829607,36,60,42
29.829607,30.182549,38,68,42
30.182549,30.359018,39,84,42
30.359018,30.71196,44,92,42
30.71196,30.88843,43,75,42
30.88843,31.182547,36,60,42
31.241371,31.417841,60,60,42
31.417841,31.770782,59,60,42
31.770782,31.947252,58,60,42
31.947252,32.300194,56,60,42
32.300194,32.47299,55,60,42
32.476665,32.829605,53,60,42
32.829605,33.006077,56,60,42
33.006077,33.476665,60,60,42
33.53549,33.888428,48,60,42
33.888428,34.0649,51,60,42
34.0649,34.359016,55,60,42
34.41784,34.59431,36,45,42
34.59431,34.94725,38,45,42
34.94725,35.123722,39,55,42
35.123722,35.47666,44,60,42
35.47666,35.649456,43,60,42
35.653133,35.94725,36,60,42
36.006073,36.47666,48,60,42
36.535484,36.70828,48,60,42
36.711956,37.182545,49,60,42
37.59431,37.77078,37,60,42
37.77078,38.123722,39,60,42
38.123722,38.30019,41,70,42
38.30019,38.653133,45,75,42
38.653133,38.8296,44,75,42
38.8296,39.12372,37,60,42
39.182545,39.653133,49,60,42
39.711956,39.88475,49,60,42
39.888424,40.359013,50,60,42
40.77078,40.94725,62,60,42
40.94725,41.30019,61,60,42
41.30019,41.47666,60,60,42
41.47666,41.8296,58,75,42
41.8296,42.006073,57,75,42
42.006073,42.535484,55,92,42
42.535484,43.00607,64,75,42
43.064896,43.535484,57,60,42
43.947247,44.12372,62,60,42
44.12372,44.476658,61,64,42
44.476658,44.649452,60,73,42
44.65313,45.00607,58,77,42
45.00607,45.18254,57,87,42
45.18254,45.53548,55,92,42
45.53548,45.711952,52,75,42
45.711952,46.00607,50,60,42
46.241364,46.300186,43,60,42
46.417835,46.476658,43,60,42
46.594303,46.65313,43,66,42
46.770775,46.829597,43,72,42
46.947247,47.00607,43,78,42
47.123714,47.18254,43,85,42
47.300186,47.35901,43,92,42
47.476658,47.53548,43,92,42
47.653126,47.711952,43,75,42
47.829597,47.88842,43,60,42
48.00607,48.06489,43,60,42
48.18254,48.241364,43,60,42
48.35901,48.41783,43,60,42
48.53548,48.594303,43,70,42
48.711952,48.770775,43,81,42
48.88842,48.947243,43,92,42
49.06489,49.123714,43,92,42
49.241364,49.300186,43,75,42
49.41783,49.476658,43,60,42
49.594303,49.653126,43,60,42
49.770775,49.829597,43,60,42
49.947243,50.00607,43,60,42
50.123714,50.182537,43,60,42
50.300186,50.35901,43,60,42
50.476654,50.53548,43,60,42
50.653126,50.71195,43,60,42
50.829597,50.88842,43,60,42
51.006065,51.06489,43,60,42
51.182537,51.24136,43,58,42
51.35901,51.41783,43,56,42
51.535477,51.594303,43,54,42
51.71195,51.77077,43,51,42
51.88842,51.947243,43,48,42
52.06489,52.123714,43,45,42
52.24136,52.300182,43,45,42
52.41783,52.476654,43,45,42
52.594303,52.77077,37,84,42
52.77077,52.947243,36,60,42
52.947243,53.123714,37,60,42
53.123714,53.300182,36,60,42
53.300182,53.476654,37,60,42
53.476654,53.653126,36,60,42
53.653126,53.829594,37,60,42
53.829594,54.006065,36,60,42
54.006065,54.17886,37,60,42
54.182537,54.359005,36,60,42
54.359005,54.535477,37,59,42
54.535477,54.71195,36,57,42
54.71195,54.888416,37,55,42
54.888416,55.064888,36,53,42
55.064888,55.24136,37,51,42
55.24136,55.417828,36,49,42
55.417828,55.5943,37,47,42
55.5943,55.767094,36,45,42
55.77077,56.064888,41,45,42
56.300182,56.5943,41,60,42
57.359005,57.653122,40,60,42
57.888416,58.182533,40,60,42
58.94724,59.241356,41,60,42
59.47665,59.770767,41,60,42
60.535473,60.82959,40,60,42
61.064884,61.359,40,60,42
62.123707,62.417828,41,60,42
62.65312,62.94724,43,60,42
63.182533,63.47665,44,60,42
63.711945,64.00606,46,60,42
64.241356,64.77077,61,60,42
64.77077,65.77077,62,75,42
65.82959,66.359,53,75,42
66.359,66.82959,56,60,42
66.88841,67.18253,55,60,42
67.947235,68.241356,36,60,42
68.47665,68.82959,41,60,42
68.82959,69.00606,44,60,42
69.00606,69.30018,49,60,42
69.53547,69.82959,53,60,42
70.06488,70.41782,40,60,42
70.41782,70.59429,43,60,42
70.59429,70.88841,48,60,42
71.1237,71.41782,52,60,42
71.653114,72.00606,41,60,42
72.00606,72.182526,44,60,42
72.182526,72.47665,50,60,42
72.71194,73.00606,53,60,42
73.24135,73.59429,39,60,42
73.59429,73.77076,46,60,42
73.77076,74.06488,51,60,42
74.30017,74.59429,55,60,42
74.82958,75.1237,44,60,42
75.35899,75.653114,46,60,42
75.888405,76.182526,48,60,42
76.417816,76.71194,49,60,42
77.47664,78.00605,38,84,42
78.00605,78.30017,37,60,42
79.06487,79.59429,50,84,42
79.59429,79.888405,49,60,42
80.653114,81.182526,38,84,42
81.182526,81.47664,36,60,42
81.71194,82.00605,48,60,42
82.24135,82.53546,48,60,42
82.77076,82.82958,41,60,42
82.94723,83.00605,41,60,42
83.123695,83.18252,41,64,42
83.30017,83.35899,41,68,42
83.47664,83.53546,41,72,42
83.65311,83.71193,41,76,42
83.82958,83.888405,41,80,42
84.00605,84.06487,41,84,42
84.18252,84.24135,41,88,42
84.35899,84.417816,41,92,42
84.53546,84.594284,41,92,42
84.71193,84.77076,41,92,42
84.888405,84.94723,41,60,42
85.06487,85.123695,41,60,42
85.24134,85.30017,41,60,42
85.417816,85.47664,41,60,42
85.594284,85.65311,41,60,42
85.77075,85.82958,41,60,42
85.94723,86.00605,41,60,42
86.123695,86.18252,41,60,42
86.30016,86.35899,41,60,42
86.47664,86.53546,41,60,42
86.65311,86.71193,41,60,42
86.82958,86.888405,41,60,42
87.00605,87.06487,41,60,42
87.18252,87.24134,41,60,42
87.35899,87.417816,41,60,42
87.53546,87.594284,41,60,42
87.71193,87.77075,41,60,42
87.888405,87.94723,41,60,42
88.06487,88.123695,41,60,42
88.24134,88.30016,41,60,42
88.417816,88.47664,46,60,42
88.594284,88.65311,46,60,42
88.77075,88.829575,46,65,42
88.94723,89.00605,46,70,42
89.123695,89.18252,48,75,42
89.30016,89.358986,48,75,42
89.47664,89.53546,48,72,42
89.65311,89.71193,48,69,42
89.829575,89.8884,48,66,42
90.00605,90.06487,41,63,42
90.18252,90.24134,41,60,42
90.358986,90.41781,41,60,42
90.53546,90.594284,41,60,42
90.71193,90.77075,41,75,42
90.8884,90.94722,41,75,42
91.06487,91.123695,41,75,42
91.24134,91.30016,41,60,42
91.41781,91.47664,41,60,42
91.594284,91.65311,41,60,42
91.77075,91.829575,41,60,42
91.94722,92.00605,41,60,42
92.123695,92.18252,41,60,42
92.30016,92.358986,42,60,42
92.47663,92.53546,42,60,42
92.65311,92.71193,42,60,42
92.829575,92.8884,42,60,42
93.00604,93.06487,42,60,42
93.18252,93.24134,42,60,42
93.358986,93.41781,42,60,42
93.53545,93.594284,42,60,42
93.71193,93.77075,42,60,42
93.8884,93.94722,42,75,42
94.06487,94.123695,42,75,42
94.24134,94.30016,42,75,42
94.41781,94.47663,42,60,42
94.594284,94.65311,42,60,42
94.77075,94.829575,42,60,42
94.94722,95.00604,42,60,42
95.123695,95.18252,42,60,42
95.30016,95.358986,42,60,42
95.47663,95.53545,43,60,42
95.65311,95.71193,43,60,42
95.829575,95.8884,43,60,42
96.00604,96.064865,43,60,42
96.18252,96.24134,43,60,42
96.358986,96.41781,43,60,42
96.53545,96.59428,43,60,42
96.71193,96.77075,43,60,42
96.8884,96.94722,43,60,42
97.064865,97.12369,43,60,42
97.24134,97.30016,43,60,42
97.41781,97.47663,43,60,42
97.59428,97.6531,43,60,42
97.77075,97.829575,43,60,42
97.94722,98.00604,43,60,42
98.12369,98.18251,43,60,42
98.30016,98.358986,43,60,42
98.47663,98.53545,43,60,42
98.6531,98.71192,43,60,42
98.829575,98.8884,43,60,42
99.00604,99.064865,43,60,42
99.18251,99.24134,43,60,42
99.358986,99.41781,43,60,42
99.53545,99.59428,43,60,42
99.71192,99.77075,43,60,42
99.8884,99.94722,43,60,42
100.064865,100.12369,43,60,42
100.24133,100.30016,43,60,42
100.41781,100.47663,43,63,42
100.59428,100.6531,43,66,42
100.770744,100.829575,43,69,42
100.94722,101.00604,43,72,42
101.12369,101.18251,43,76,42
101.30016,101.358986,43,80,42
101.47663,101.53545,43,84,42
101.6531,101.71192,43,88,42
101.829575,101.8884,44,92,42
102.00604,102.064865,44,75,42
102.18251,102.24133,44,60,42
102.358986,102.41781,44,60,42
102.53545,102.59428,44,60,42
102.71192,102.770744,44,60,42
102.8884,102.94722,44,60,42
103.064865,103.12369,44,60,42
103.24133,103.300156,44,60,42
103.41781,103.47663,44,60,42
103.59428,103.6531,44,70,42
103.770744,103.82957,44,81,42
103.94722,104.00604,44,92,42
104.12369,104.18251,44,92,42
104.300156,104.35898,44,86,42
104.47663,104.53545,44,80,42
104.6531,104.71192,44,74,42
104.82957,104.88839,44,67,42
105.00604,105.064865,44,60,42
105.18251,105.24133,44,60,42
105.35898,105.4178,44,60,42
105.53545,105.59428,44,60,42
105.71192,105.770744,44,60,42
105.88839,105.94721,44,60,42
106.064865,106.12369,44,60,42
106.24133,106.300156,44,60,42
106.4178,106.47663,44,60,42
106.59428,106.6531,44,60,42
106.770744,106.82957,44,63,42
106.94721,107.00604,44,66,42
107.12369,107.18251,44,69,42
107.300156,107.35898,44,72,42
107.47662,107.53545,44,76,42
107.6531,107.71192,44,80,42
107.82957,107.88839,44,84,42
108.006035,108.064865,44,88,42
108.18251,108.24133,45,92,42
108.35898,108.4178,45,75,42
108.53545,108.59428,45,60,42
108.71192,108.770744,45,60,42
108.88839,108.94721,45,60,42
109.064865,109.12369,45,60,42
109.24133,109.300156,45,60,42
109.4178,109.47662,45,62,42
109.59428,109.6531,45,64,42
109.770744,109.82957,45,66,42
109.94721,110.006035,45,68,42
110.12369,110.18251,45,71,42
110.300156,110.35898,45,74,42
110.47662,110.535446,45,77,42
110.6531,110.71192,45,80,42
110.82957,110.88839,45,83,42
111.006035,111.06486,45,86,42
111.18251,111.24133,45,89,42
111.35898,111.4178,45,92,42
111.535446,111.59427,45,92,42
111.71192,111.770744,45,92,42
111.88839,111.94721,45,105,42
112.06486,112.12368,45,75,42
112.24133,112.300156,45,75,42
112.4178,112.47662,44,105,42
112.59427,112.65309,44,75,42
112.770744,112.82957,44,75,42
112.94721,113.006035,43,105,42
113.12368,113.1825,43,75,42
113.300156,113.35898,43,75,42
113.47662,113.535446,41,105,42
113.65309,113.71192,41,75,42
113.82957,113.88839,41,75,42
114.006035,114.06486,41,75,42
114.1825,114.24133,41,75,42
114.35898,114.4178,41,75,42
114.535446,114.59427,41,75,42
114.711914,114.770744,41,75,42
114.88839,114.94721,41,75,42
115.06486,115.12368,41,105,42
115.241325,115.300156,41,75,42
115.4178,115.47662,41,75,42
115.59427,115.65309,41,75,42
115.77074,115.82957,41,75,42
115.94721,116.006035,41,75,42
116.12368,116.1825,41,75,42
116.300156,116.35898,41,75,42
116.47662,116.535446,41,75,42
116.65309,116.711914,39,105,42
116.82957,116.88839,39,75,42
117.006035,117.06486,39,75,42
117.1825,117.241325,39,75,42
117.35898,117.4178,39,75,42
117.535446,117.59427,39,75,42
117.711914,117.77074,39,75,42
117.88839,117.94721,39,75,42
118.06486,118.12368,39,75,42
118.241325,118.30015,38,75,42
118.4178,118.47662,38,75,42
118.59427,118.65309,38,75,42
118.77074,118.82956,36,75,42
118.94721,119.006035,36,75,42
119.12368,119.1825,36,75,42
119.30015,119.59427,43,60,42
130.41779,130.9472,54,75,42
130.9472,131.47661,55,75,42
131.47661,131.9472,57,75,42
132.00603,132.53543,54,75,42
132.53543,133.06485,55,75,42
133.06485,133.35896,43,75,42
133.59425,134.12367,52,75,42
134.12367,134.65309,53,75,42
134.65309,135.12367,57,75,42
135.1825,135.71191,54,75,42
135.71191,136.24132,55,80,42
136.24132,136.71191,43,86,42
136.77074,137.30014,36,92,42
137.30014,137.82956,38,75,42
137.82956,138.30014,40,60,42
138.35896,138.82956,41,60,42
138.88838,139.41779,53,75,42
139.41779,139.9472,54,92,42
139.9472,140.41779,53,60,42
140.47661,141.00603,41,75,42
141.00603,141.53543,42,92,42
141.53543,142.00603,41,60,42
142.06485,142.59425,53,75,42
142.59425,143.59425,54,92,42
143.65308,144.1825,55,75,42
144.1825,144.65308,43,60,42
144.7119,145.24132,42,60,42
145.24132,145.77072,43,84,42
145.77072,146.24132,55,60,42
146.30014,146.77072,54,60,42
146.82954,147.30014,53,68,42
147.35896,147.88837,52,76,42
147.88837,148.35896,50,84,42
148.41779,148.88837,38,92,42
148.94719,149.41779,43,75,42
149.47661,149.77072,36,60,42
150.00601,150.53543,60,60,42
150.53543,151.06483,59,84,42
151.06483,151.35896,60,60,42
151.59425,152.12366,60,60,42
152.12366,152.65308,65,84,42
152.65308,152.94719,64,60,42
153.18248,153.7119,58,60,42
153.7119,154.2413,57,76,42
154.2413,154.77072,56,92,42
154.77072,155.30013,55,75,42
155.30013,155.82954,48,60,42
155.82954,156.12366,41,60,42
156.35896,156.41779,55,60,42
156.53543,156.59425,55,60,42
156.7119,156.77072,55,60,42
156.88837,156.94719,55,60,42
157.06483,157.12366,55,60,42
157.2413,157.30013,55,60,42
157.41779,157.47661,55,60,42
157.59425,157.65308,55,60,42
157.77072,157.82954,55,60,42
157.94719,158.00601,55,60,42
158.12366,158.18248,55,60,42
158.30013,158.35895,55,60,42
158.47661,158.53543,55,60,42
158.65308,158.7119,55,60,42
158.82954,158.88837,55,60,42
159.00601,159.30013,48,60,42
159.53543,160.06483,58,60,42
160.06483,160.59425,56,60,42
160.59425,161.12366,55,60,42
161.12366,161.65308,43,60,42
161.65308,162.12366,36,60,42
162.18248,162.4766,41,60,42
162.7119,162.77072,43,75,42
162.88837,162.94719,43,75,42
163.06483,163.12366,43,75,42
163.2413,163.30013,43,75,42
163.41777,163.4766,43,75,42
163.59425,163.65308,43,75,42
163.77072,163.82954,43,75,42
163.94719,164.00601,43,74,42
164.12366,164.18248,43,73,42
164.30013,164.35895,43,72,42
164.4766,164.53542,43,70,42
164.65308,164.7119,43,68,42
164.82954,164.88837,43,66,42
165.00601,165.06483,43,64,42
165.18248,165.2413,43,62,42
165.35895,165.41777,36,60,42
165.53542,165.59424,36,60,42
165.7119,165.77072,36,60,42
165.88837,165.94719,36,60,42
166.06483,166.12366,36,60,42
166.2413,166.30013,36,60,42
166.41777,166.4766,36,60,42
166.59424,166.65306,36,60,42
166.77072,166.82954,36,60,42
166.94719,167.00601,36,60,42
167.12366,167.18248,36,60,42
167.30013,167.35895,36,60,42
167.4766,167.53542,36,60,42
167.65306,167.71188,36,60,42
167.82954,167.88837,36,60,42
168.00601,168.06483,36,60,42
168.18248,168.2413,36,60,42
168.35895,168.41777,36,60,42
168.53542,168.59424,36,60,42
168.71188,168.77072,36,60,42
168.88837,168.94719,36,60,42
169.06483,169.12366,36,60,42
169.2413,169.30013,36,60,42
169.41777,169.4766,36,60,42
169.59424,169.65306,36,60,42
169.7707,169.82954,36,60,42
169.94719,170.00601,36,60,42
170.12366,170.18248,36,60,42
170.30013,170.35895,36,60,42
170.4766,170.53542,36,60,42
170.65306,170.71188,36,60,42
170.82954,170.88837,36,61,42
171.00601,171.06483,36,61,42
171.18248,171.2413,36,62,42
171.35895,171.41777,36,63,42
171.53542,171.59424,36,64,42
171.71188,171.7707,36,65,42
171.88837,171.94719,36,66,42
172.06483,172.12366,36,67,42
172.2413,172.30013,36,68,42
172.41777,172.4766,36,69,42
172.59424,172.65306,36,70,42
172.7707,172.82953,36,71,42
172.94719,173.00601,36,72,42
173.12366,173.18248,36,73,42
173.30013,173.35895,36,74,42
173.4766,173.53542,36,75,42
173.65306,173.71188,36,76,42
173.82953,173.88835,36,77,42
174.00601,174.06483,36,78,42
174.18248,174.2413,36,79,42
174.35895,174.41777,36,80,42
174.53542,174.59424,36,81,42
174.71188,174.7707,36,82,42
174.88835,174.94717,36,83,42
175.06483,175.12366,36,84,42
175.2413,175.30013,36,85,42
175.41777,175.4766,36,86,42
175.59424,175.65306,36,87,42
175.7707,175.82953,36,88,42
175.94717,176.00601,36,89,42
176.12366,176.18248,36,90,42
176.30013,176.35895,36,92,42
176.4766,176.53683,36,60,42
176.65732,176.71756,36,60,42
176.83804,176.89828,36,75,42
177.01875,177.079,36,92,42
177.19948,177.25972,36,92,42
177.3802,177.44044,36,86,42
177.56093,177.62117,36,80,42
177.74165,177.8019,36,74,42
177.92238,177.98262,36,67,42
178.10309,178.16559,36,60,42
178.29059,178.35309,36,60,42
178.47809,178.54059,36,75,42
178.66559,178.72809,36,92,42
178.85309,178.91559,36,92,42
179.04059,179.10309,36,86,42
179.22809,179.29059,36,80,42
179.41559,179.47809,36,74,42
179.60309,179.66559,36,67,42
179.79059,179.85727,36,60,42
179.9906,180.05727,36,60,42
180.1906,180.25726,36,60,42
180.3906,180.45726,36,60,42
180.59059,180.65726,36,60,42
180.79059,180.85727,36,60,42
180.9906,181.05727,36,60,42
181.1906,181.25726,36,60,42
181.3906,181.45726,36,60,42
181.59059,181.66202,36,60,42
181.80489,181.87631,36,60,42
182.01917,182.09059,36,60,42
182.23344,182.30489,36,60,42
182.44774,182.51917,36,60,42
182.66202,182.73344,36,60,42
182.87631,182.94774,36,60,42
183.09059,183.16202,36,60,42
183.30489,183.37631,36,60,42
183.51917,183.59608,36,60,42
183.74994,183.82686,36,59,42
183.9807,184.05763,36,58,42
184.21147,184.28839,36,57,42
184.44225,184.51917,36,56,42
184.673,184.74994,36,55,42
184.90378,184.9807,36,54,42
185.13455,185.21147,36,53,42
185.36531,185.44225,36,52,42
185.59608,185.673,36,51,42
185.82686,185.90378,36,50,42
186.05762,186.13455,36,49,42
186.28839,186.36531,36,48,42
186.51917,186.59608,36,47,42
186.74992,186.82686,36,46,42
186.9807,187.19945,36,45,42
187.31403,187.53278,36,45,42
187.64737,187.86612,36,45,42
197.31403,197.4807,46,60,42
197.4807,197.81403,51,60,42
197.81403,197.97722,55,60,42
197.9807,198.48068,58,60,42
198.48068,198.75847,55,60,42
198.98068,199.48068,58,60,42
199.48068,199.75847,55,60,42
199.98068,200.48068,61,60,42
200.48068,200.75847,58,60,42
200.98068,201.31403,56,60,42
201.31403,201.48068,58,63,42
201.48068,201.98068,56,64,42
201.98068,202.42513,55,68,42
202.48068,202.81403,53,73,42
202.81403,202.98068,51,76,42
202.98068,203.48068,49,77,42
203.48068,203.92513,51,82,42
204.31401,204.48068,47,92,42
204.48068,204.81401,52,92,42
204.81401,204.97722,56,92,42
204.98068,205.48068,59,92,42
205.48068,205.75845,56,92,42
205.98068,206.48068,59,75,42
206.48068,206.75845,56,75,42
206.98068,207.48068,62,60,42
207.48068,207.75845,59,60,42
207.98068,208.31401,63,92,42
208.31401,208.4772,61,92,42
208.48068,208.81401,59,92,42
208.81401,208.98068,58,85,42
208.98068,209.48068,56,82,42
209.48068,209.92513,51,71,42
209.98068,210.51009,48,60,42
210.51009,211.08656,49,60,42
211.08656,211.70195,52,55,42
211.77887,211.94554,43,50,42
211.94554,212.1122,44,49,42
212.1122,212.27539,43,47,42
212.27887,212.44206,44,45,42
219.27885,219.44553,38,60,42
219.44553,219.6122,39,60,42
219.6122,219.77885,38,60,42
219.77885,219.94205,39,60,42
226.77885,226.94553,43,92,42
226.94553,227.11218,44,92,42
227.11218,227.27885,43,75,42
227.27885,227.44205,44,60,42
228.11218,228.27885,47,92,42
228.27885,228.61218,52,92,42
228.61218,228.77538,56,92,42
228.77885,229.27885,59,75,42
229.27885,229.55663,56,75,42
229.77885,230.27885,62,60,42
230.27885,230.55663,59,60,42
230.77885,231.11218,63,92,42
231.11218,231.27538,61,92,42
231.27885,231.61218,59,92,42
231.61218,231.77885,58,86,42
231.77885,232.27885,56,83,42
232.27885,232.7233,51,74,42
232.77884,233.11218,47,65,42
233.11218,233.27884,46,59,42
233.27884,233.77884,44,56,42
233.77884,234.2233,39,45,42
234.27884,234.61218,63,45,42
234.61218,234.77884,62,45,42
234.77884,235.27884,63,45,42
235.27884,235.72328,57,45,42
235.77884,236.11218,56,45,42
236.11218,236.27884,55,45,42
236.27884,236.77884,56,45,42
236.77884,237.22328,64,45,42
237.27884,237.61218,63,45,42
237.61218,237.77884,62,45,42
237.77884,238.27884,63,45,42
238.27884,238.72328,57,45,42
238.77884,239.11217,56,45,42
239.11217,239.27884,55,45,42
239.27884,239.77884,56,45,42
239.77884,240.22328,64,45,42
240.27884,240.61217,56,45,42
240.61217,240.77884,55,45,42
240.77884,241.27884,56,45,42
241.27884,241.72328,64,45,42
241.77884,242.11217,52,45,42
242.11217,242.27536,64,51,42
242.27884,242.61217,64,54,42
242.61217,242.77536,52,60,42
242.77884,243.11217,52,63,42
243.11217,243.27536,64,69,42
243.27884,243.77884,52,72,42
243.77884,244.27884,54,82,42
244.27884,244.72328,63,92,42
244.77884,245.22328,64,75,42
245.77884,246.05661,69,75,42
246.77884,247.27884,68,60,42
247.27884,247.77884,64,60,42
247.77884,248.27882,62,70,42
248.27882,248.77882,59,81,42
248.77882,249.22328,60,92,42
249.27882,249.61217,61,60,42
249.61217,249.77882,63,60,42
249.77882,250.27882,61,60,42
250.27882,250.72327,70,60,42
250.77882,251.11217,68,60,42
251.11217,251.27882,67,60,42
251.27882,251.77882,68,60,42
251.77882,252.22327,60,60,42
252.27882,252.61217,61,60,42
252.61217,252.77882,63,60,42
252.77882,253.27882,61,60,42
253.27882,253.72327,70,60,42
253.77882,254.11215,68,60,42
254.11215,254.27882,67,65,42
254.27882,254.77882,68,67,42
254.77882,255.22327,60,75,42
255.27882,255.61215,68,83,42
255.61215,255.77882,67,89,42
255.77882,256.2788,68,92,42
256.2788,256.72327,60,75,42
256.7788,257.2788,61,60,42
257.2788,258.1955,62,60,42
258.2788,258.61215,51,76,42
258.61215,258.77536,63,81,42
258.7788,259.11215,63,83,42
259.11215,259.27536,51,89,42
259.2788,259.61215,51,92,42
259.61215,259.77536,63,75,42
259.7788,260.0566,63,60,42
260.7788,261.0566,55,75,42
261.7788,262.0566,56,60,42
265.7788,266.2788,49,60,42
266.2788,266.55658,61,60,42
266.7788,267.2788,49,60,42
267.2788,267.55658,61,60,42
267.7788,268.2788,56,60,42
268.2788,268.55658,61,60,42
268.7788,269.2788,54,60,42
269.2788,269.7788,56,60,42
269.7788,270.22327,58,60,42
270.2788,270.7788,51,60,42
270.7788,271.2788,56,60,42
271.2788,271.72327,51,60,42
271.7788,272.05658,56,60,42
272.61215,272.7788,51,60,42
272.7788,273.11215,56,60,42
273.11215,273.27533,60,60,42
273.2788,273.7788,63,60,42
273.7788,274.05658,60,60,42
274.2788,274.7788,63,60,42
274.7788,275.05658,60,60,42
275.2788,275.7788,66,60,42
275.7788,276.05658,63,60,42
276.2788,276.61212,61,60,42
276.61212,276.7788,63,63,42
276.7788,277.2788,61,64,42
277.2788,277.72324,60,68,42
277.7788,278.11212,58,73,42
278.11212,278.2788,56,76,42
278.2788,278.7788,54,77,42
278.7788,279.22324,56,82,42
279.61212,279.7788,44,92,42
279.7788,280.11212,49,92,42
280.11212,280.27533,53,92,42
280.2788,280.7788,56,92,42
280.7788,281.05658,53,92,42
281.2788,281.7788,56,75,42
281.7788,282.05658,53,75,42
282.2788,282.7788,59,60,42
282.7788,283.05658,56,60,42
283.2788,283.7788,59,60,42
283.7788,284.05658,56,60,42
284.2788,284.7788,59,61,42
284.7788,285.05658,56,64,42
285.2788,285.7788,62,67,42
285.7788,286.05658,59,70,42
286.27878,286.77878,62,73,42
286.77878,287.05658,59,76,42
287.27878,287.77878,62,79,42
287.77878,288.05658,59,82,42
288.27878,288.77878,65,85,42
288.77878,289.05658,62,88,42
289.27878,290.27878,68,92,42
290.27878,290.55658,65,92,42
290.77878,291.27878,56,92,42
291.27878,291.55658,53,82,42
291.77878,292.27878,44,72,42
292.27878,292.55658,41,60,42
292.77878,293.27878,68,60,42
293.27878,293.55655,66,60,42
293.77878,294.27878,56,60,42
294.27878,294.55655,54,60,42
294.77878,295.27878,44,60,42
295.27878,295.55655,42,60,42
295.77878,296.1317,44,60,42
296.1317,296.3082,46,60,42
296.3082,296.83762,44,60,42
296.83762,297.3082,43,59,42
297.367,297.71997,41,58,42
297.71997,297.89642,39,57,42
297.89642,298.42584,38,57,42
298.42584,298.89642,41,56,42
298.95526,299.33026,44,55,42
299.33026,299.51776,46,54,42
299.51776,300.08026,44,54,42
300.08026,300.58026,43,52,42
300.64276,301.04276,41,50,42
301.04276,301.24277,39,49,42
301.24277,301.87134,38,48,42
301.87134,302.22845,41,45,42
304.8009,304.8597,60,60,42
304.97736,305.0362,60,60,42
305.15384,305.21265,60,60,42
305.3303,305.38913,60,60,42
305.50677,305.56558,60,58,42
305.68326,305.74207,60,56,42
305.8597,305.91855,60,54,42
306.0362,306.095,60,51,42
306.21265,306.27148,60,48,42
306.38913,306.44794,60,45,42
306.56558,306.62442,60,45,42
306.74207,306.8009,60,45,42
306.91855,306.97736,60,45,42
307.095,307.15384,60,45,42
307.27148,307.3303,60,45,42
307.44794,307.50677,60,45,42
307.62442,307.68323,60,45,42
307.8009,307.8597,60,45,42
307.97736,308.0362,60,45,42
308.15384,308.21265,60,45,42
308.3303,308.38913,60,45,42
308.50677,308.56558,60,45,42
308.68323,308.74207,60,45,42
308.8597,308.91855,60,45,42
309.0362,309.095,60,45,42
309.21265,309.27148,60,45,42
309.38913,309.44794,60,45,42
309.56558,309.62442,60,45,42
309.74207,309.8009,60,45,42
309.91855,309.97736,60,45,42
310.095,310.15384,60,45,42
310.27148,310.3303,60,45,42
310.44794,310.50677,60,45,42
310.62442,310.68323,60,45,42
310.80087,310.8597,60,45,42
310.97736,311.0362,60,45,42
311.15384,311.21265,60,45,42
311.3303,311.38913,60,45,42
311.50677,311.56558,60,45,42
311.68323,311.74207,60,45,42
311.8597,311.91855,60,45,42
312.0362,312.095,60,45,42
312.21265,312.27148,60,45,42
312.38913,312.44794,60,45,42
312.56558,312.62442,60,45,42
312.74207,312.80087,60,45,42
312.91855,312.97736,60,45,42
313.095,313.15384,60,45,42
313.27148,313.3303,60,45,42
313.44794,313.50677,60,45,42
313.62442,313.68323,60,45,42
313.80087,313.8597,60,45,42
313.97736,314.0362,60,45,42
314.15384,314.21265,60,45,42
314.3303,314.38913,61,45,42
314.50677,314.56558,61,45,42
314.68323,314.74207,61,45,42
314.8597,314.91852,61,45,42
315.0362,315.095,61,45,42
315.21265,315.27148,61,45,42
315.38913,315.44794,61,45,42
315.56558,315.62442,61,45,42
315.74207,315.80087,61,45,42
315.91852,315.97736,61,45,42
316.095,316.15384,61,45,42
316.27148,316.3303,61,45,42
316.44794,316.50677,61,45,42
316.62442,316.68323,61,45,42
316.80087,316.8597,61,45,42
316.97736,317.0362,61,45,42
317.15384,317.21265,61,45,42
317.3303,317.38913,61,45,42
317.50677,317.56558,62,45,42
317.68323,317.74207,62,45,42
317.8597,317.91852,62,45,42
318.03616,318.095,62,45,42
318.21265,318.27148,62,45,42
318.38913,318.44794,62,45,42
318.56558,318.62442,62,45,42
318.74207,318.80087,62,45,42
318.91852,318.97736,62,45,42
319.095,319.15384,62,45,42
319.27148,319.3303,62,60,42
319.44794,319.50677,62,76,42
319.62442,319.68323,62,92,42
319.80087,319.8597,62,75,42
319.97736,320.03616,62,75,42
320.15384,320.21265,62,60,42
320.3303,320.38913,62,60,42
320.50677,320.56558,62,60,42
320.68323,320.74207,62,60,42
320.8597,320.91852,62,60,42
321.03616,321.095,62,60,42
321.21265,321.27148,62,60,42
321.38913,321.44794,62,60,42
321.56558,321.62442,62,60,42
321.74207,321.80087,62,60,42
321.91852,321.97736,62,60,42
322.095,322.1538,62,60,42
322.27148,322.3303,62,60,42
322.44794,322.50677,62,70,42
322.62442,322.68323,62,81,42
322.80087,322.8597,62,92,42
322.97736,323.03616,62,75,42
323.1538,323.21265,62,75,42
323.3303,323.38913,62,60,42
323.50677,323.56558,62,60,42
323.68323,323.74207,62,60,42
323.8597,323.91852,55,45,42
324.03616,324.095,55,45,42
324.21265,324.27148,55,45,42
324.38913,324.44794,55,45,42
324.56558,324.62442,55,45,42
324.74207,324.80087,55,45,42
324.91852,324.97736,55,45,42
325.095,325.1538,55,45,42
325.27145,325.3303,55,45,42
325.44794,325.50677,55,45,42
325.62442,325.68323,55,45,42
325.80087,325.8597,55,45,42
325.97736,326.03616,55,45,42
326.1538,326.21265,55,46,42
326.3303,326.38913,55,47,42
326.50677,326.56558,55,48,42
326.68323,326.74207,55,49,42
326.8597,326.91852,55,50,42
327.03616,327.095,55,51,42
327.21265,327.27145,55,52,42
327.38913,327.44794,55,53,42
327.56558,327.62442,55,54,42
327.74207,327.80087,55,55,42
327.91852,327.97736,55,56,42
328.095,328.1538,55,57,42
328.27145,328.3303,55,58,42
328.44794,328.50677,55,59,42
328.62442,328.68323,55,60,42
328.80087,328.8597,55,60,42
328.97736,329.03616,55,58,42
329.1538,329.21265,55,56,42
329.3303,329.3891,55,54,42
329.50677,329.56558,55,52,42
329.68323,329.74207,55,50,42
329.8597,329.91852,55,48,42
330.03616,330.095,55,45,42
331.095,331.27145,36,60,42
331.27145,331.62442,38,60,42
331.62442,331.80087,39,81,42
331.80087,332.1538,44,92,42
332.1538,332.3303,43,75,42
332.3303,332.62442,36,60,42
332.68323,332.8597,36,60,42
332.8597,333.21265,38,60,42
333.21265,333.3891,39,81,42
333.3891,333.74207,44,92,42
333.74207,333.91852,43,75,42
333.91852,334.21265,36,60,42
334.27145,334.44794,60,60,42
334.44794,334.80087,59,60,42
334.80087,334.97736,58,60,42
334.97736,335.3303,56,60,42
335.3303,335.50308,55,60,42
335.50674,335.8597,53,60,42
335.8597,336.03616,56,60,42
336.03616,336.50674,60,60,42
336.56558,336.91852,48,60,42
336.91852,337.095,51,60,42
337.095,337.3891,55,60,42
337.44794,337.6244,36,45,42
337.6244,337.97736,38,45,42
337.97736,338.1538,39,45,42
338.1538,338.50674,44,45,42
338.50674,338.68323,43,45,42
338.68323,338.97736,36,45,42
339.03616,339.50674,48,45,42
339.56558,339.73837,48,45,42
339.74203,340.21265,49,45,42
340.6244,340.80087,37,45,42
340.80087,341.1538,39,45,42
341.1538,341.3303,41,45,42
341.3303,341.68323,45,45,42
341.68323,341.8597,44,45,42
341.8597,342.1538,37,45,42
342.21265,342.68323,49,45,42
342.74203,342.91852,49,45,42
342.91852,343.3891,50,45,42
343.80087,343.97736,62,45,42
343.97736,344.3303,61,51,42
344.3303,344.50674,60,64,42
344.50674,344.85968,58,71,42
344.85968,345.03616,57,85,42
345.03616,345.56558,55,92,42
345.56558,346.03616,64,60,42
346.095,346.56558,57,60,42
346.97733,347.1538,62,60,42
347.1538,347.50674,61,60,42
347.50674,347.67953,60,60,42
347.68323,348.03616,58,60,42
348.03616,348.21265,57,60,42
348.21265,348.56558,55,60,42
348.56558,348.74203,52,60,42
348.74203,349.03616,50,60,42
349.27145,349.3303,43,60,42
349.44794,349.50674,43,60,42
349.6244,349.68323,43,60,42
349.80087,349.85968,43,60,42
349.97733,350.03616,43,60,42
350.1538,350.21265,43,60,42
350.3303,350.3891,43,75,42
350.50674,350.56558,43,75,42
350.68323,350.74203,43,75,42
350.85968,350.91852,43,60,42
351.03616,351.09497,43,60,42
351.21265,351.27145,43,60,42
351.3891,351.44794,43,60,42
351.56558,351.6244,43,60,42
351.74203,351.80087,43,60,42
351.91852,351.97733,43,75,42
352.09497,352.1538,43,75,42
352.27145,352.3303,43,75,42
352.44794,352.50674,43,60,42
352.6244,352.68323,43,60,42
352.80087,352.85968,43,60,42
352.97733,353.03616,43,60,42
353.1538,353.21265,43,60,42
353.3303,353.3891,43,60,42
353.50674,353.56558,43,60,42
353.68323,353.74203,43,60,42
353.85968,353.91852,43,60,42
354.03616,354.09497,43,75,42
354.21262,354.27145,43,75,42
354.3891,354.44794,43,75,42
354.56558,354.6244,43,75,42
354.74203,354.80087,43,75,42
354.91852,354.97733,43,75,42
355.09497,355.1538,43,60,42
355.27145,355.3303,43,60,42
355.44794,355.50674,43,60,42
355.6244,355.80087,37,84,42
355.80087,355.97733,36,60,42
355.97733,356.1538,37,63,42
356.1538,356.3303,36,66,42
356.3303,356.50674,37,69,42
356.50674,356.68323,36,72,42
356.68323,356.85968,37,75,42
356.85968,357.03616,36,75,42
357.03616,357.21262,37,75,42
357.21262,357.3891,36,75,42
357.3891,357.56558,37,72,42
357.56558,357.74203,36,69,42
357.74203,357.91852,37,65,42
357.91852,358.09497,36,61,42
358.09497,358.27145,37,57,42
358.27145,358.44794,36,53,42
358.44794,358.6244,37,49,42
358.6244,358.79718,36,45,42
358.80087,359.09497,41,60,42
359.33026,359.6244,41,60,42
360.3891,360.68323,40,60,42
360.91852,361.21262,40,60,42
361.97733,362.27145,41,60,42
362.50674,362.80087,41,60,42
363.56558,363.85968,40,60,42
364.09497,364.3891,40,60,42
365.1538,365.4479,41,60,42
365.68323,365.97733,43,60,42
366.21262,366.50674,44,60,42
366.74203,367.03616,46,60,42
367.27145,367.80087,61,60,42
367.80087,368.80087,62,84,42
368.85968,369.3891,53,60,42
369.3891,369.85968,56,60,42
369.91852,370.21262,55,60,42
370.97733,371.27145,36,60,42
371.50674,371.85968,41,60,42
371.85968,372.03616,44,60,42
372.03616,372.33026,49,60,42
372.56555,372.85968,53,60,42
373.09497,373.4479,40,60,42
373.4479,373.6244,43,60,42
373.6244,373.91852,48,60,42
374.1538,374.4479,52,60,42
374.6832,375.03616,41,60,42
375.03616,375.21262,44,60,42
375.21262,375.50674,49,60,42
375.74203,376.03616,53,60,42
376.27145,376.6244,39,60,42
376.6244,376.80084,46,60,42
376.80084,377.09497,51,60,42
377.33026,377.6244,55,60,42
377.85968,378.1538,44,60,42
378.3891,378.6832,46,60,42
378.9185,379.21262,48,60,42
379.4479,379.74203,49,60,42
380.50674,381.03613,38,84,42
381.03613,381.33026,37,60,42
382.09497,382.6244,50,84,42
382.6244,382.9185,49,60,42
383.6832,384.21262,38,60,42
384.21262,384.50674,36,84,42
384.74203,385.03613,48,60,42
385.27145,385.56555,48,60,42
385.80084,385.85968,41,60,42
385.97733,386.03613,41,60,42
386.15378,386.21262,41,60,42
386.33026,386.3891,41,60,42
386.50674,386.56555,41,60,42
386.6832,386.74203,41,60,42
386.85968,386.9185,41,60,42
387.03613,387.09497,41,60,42
387.21262,387.27142,41,60,42
387.3891,387.4479,41,60,42
387.56555,387.6244,41,60,42
387.74203,387.80084,41,60,42
387.9185,387.97733,41,60,42
388.09497,388.15378,41,60,42
388.27142,388.33026,41,60,42
388.4479,388.50674,41,60,42
388.6244,388.6832,41,60,42
388.80084,388.85968,41,60,42
388.97733,389.03613,41,60,42
389.15378,389.21262,41,60,42
389.33026,389.3891,41,60,42
389.50674,389.56555,41,60,42
389.6832,389.74203,41,60,42
389.85968,389.9185,41,60,42
390.03613,390.09497,41,60,42
390.21262,390.27142,41,60,42
390.38907,390.4479,41,60,42
390.56555,390.6244,41,60,42
390.74203,390.80084,41,60,42
390.9185,390.97733,41,60,42
391.09497,391.15378,41,60,42
391.27142,391.33026,41,60,42
391.4479,391.50674,46,60,42
391.6244,391.6832,46,68,42
391.80084,391.85968,46,76,42
391.97733,392.03613,46,84,42
392.15378,392.21262,48,92,42
392.33026,392.38907,48,92,42
392.50674,392.56555,48,86,42
392.6832,392.74203,48,80,42
392.85968,392.9185,48,74,42
393.03613,393.09497,41,67,42
393.21262,393.27142,41,60,42
393.38907,393.4479,41,60,42
393.56555,393.6244,41,60,42
393.74203,393.80084,41,60,42
393.9185,393.97733,41,60,42
394.09497,394.15378,41,60,42
394.27142,394.33026,41,60,42
394.4479,394.5067,41,60,42
394.6244,394.6832,41,60,42
394.80084,394.85968,41,60,42
394.97733,395.03613,41,60,42
395.15378,395.21262,41,60,42
395.33026,395.38907,42,60,42
395.5067,395.56555,42,60,42
395.6832,395.74203,42,60,42
395.85968,395.9185,42,60,42
396.03613,396.09497,42,60,42
396.21262,396.27142,42,60,42
396.38907,396.4479,42,60,42
396.56555,396.6244,42,60,42
396.74203,396.80084,42,60,42
396.9185,396.97733,42,60,42
397.09497,397.15378,42,60,42
397.27142,397.33026,42,60,42
397.4479,397.5067,42,60,42
397.62436,397.6832,42,60,42
397.80084,397.85968,42,60,42
397.97733,398.03613,42,60,42
398.15378,398.21262,42,60,42
398.33026,398.38907,42,60,42
398.5067,398.56555,43,60,42
398.6832,398.74203,43,60,42
398.85968,398.9185,43,60,42
399.03613,399.09497,43,60,42
399.21262,399.27142,43,60,42
399.38907,399.4479,43,60,42
399.56555,399.62436,43,60,42
399.74203,399.80084,43,60,42
399.9185,399.97733,43,60,42
400.09497,400.15378,43,60,42
400.27142,400.33026,43,60,42
400.4479,400.5067,43,60,42
400.62436,400.6832,43,60,42
400.80084,400.85968,43,60,42
400.97733,401.03613,43,60,42
401.15378,401.21262,43,60,42
401.33026,401.38907,43,60,42
401.5067,401.56555,43,60,42
401.6832,401.742,43,60,42
401.85968,401.9185,43,60,42
402.03613,402.09497,43,60,42
402.21262,402.27142,43,60,42
402.38907,402.4479,43,60,42
402.56555,402.62436,43,60,42
402.742,402.80084,43,60,42
402.9185,402.97733,43,60,42
403.09497,403.15378,43,60,42
403.27142,403.33026,43,60,42
403.4479,403.5067,43,60,42
403.62436,403.6832,43,60,42
403.80084,403.85968,43,60,42
403.97733,404.03613,43,65,42
404.15378,404.21262,43,70,42
404.33026,404.38907,43,75,42
404.5067,404.56555,43,80,42
404.6832,404.742,43,86,42
404.85965,404.9185,44,92,42
405.03613,405.09497,44,75,42
405.21262,405.27142,44,75,42
405.38907,405.4479,44,60,42
405.56555,405.62436,44,60,42
405.742,405.80084,44,60,42
405.9185,405.97733,44,60,42
406.09497,406.15378,44,60,42
406.27142,406.33026,44,60,42
406.4479,406.5067,44,60,42
406.62436,406.6832,44,60,42
406.80084,406.85965,44,60,42
406.97733,407.03613,44,60,42
407.15378,407.21262,44,60,42
407.33026,407.38907,44,60,42
407.5067,407.56555,44,60,42
407.6832,407.742,44,60,42
407.85965,407.9185,44,60,42
408.03613,408.09497,44,60,42
408.21262,408.27142,44,60,42
408.38907,408.4479,44,60,42
408.56555,408.62436,44,60,42
408.742,408.80084,44,60,42
408.9185,408.9773,44,60,42
409.09497,409.15378,44,60,42
409.27142,409.33026,44,60,42
409.4479,409.5067,44,60,42
409.62436,409.6832,44,60,42
409.80084,409.85965,44,63,42
409.9773,410.03613,44,66,42
410.15378,410.21262,44,69,42
410.33026,410.38907,44,72,42
410.5067,410.56555,44,76,42
410.6832,410.742,44,80,42
410.85965,410.9185,44,84,42
411.03613,411.09497,44,88,42
411.21262,411.27142,45,92,42
411.38907,411.4479,45,92,42
411.56555,411.62436,45,88,42
411.742,411.80084,45,84,42
411.9185,411.9773,45,80,42
412.09494,412.15378,45,76,42
412.27142,412.33026,45,72,42
412.4479,412.5067,45,68,42
412.62436,412.6832,45,64,42
412.80084,412.85965,45,60,42
412.9773,413.03613,45,60,42
413.15378,413.21262,45,62,42
413.33026,413.38907,45,65,42
413.5067,413.56555,45,68,42
413.6832,413.742,45,71,42
413.85965,413.9185,45,74,42
414.03613,414.09494,45,77,42
414.21262,414.27142,45,80,42
414.38907,414.4479,45,83,42
414.56555,414.62436,45,86,42
414.742,414.80084,45,89,42
414.9185,414.9773,45,92,42
415.09494,415.15378,45,92,42
415.27142,415.33026,45,92,42
415.4479,415.5067,44,105,42
415.62436,415.6832,44,75,42
415.80084,415.85965,44,75,42
415.9773,416.03613,43,105,42
416.15378,416.2126,43,75,42
416.33026,416.38907,43,75,42
416.5067,416.56555,41,105,42
416.6832,416.742,41,75,42
416.85965,416.9185,41,75,42
417.03613,417.09494,41,75,42
417.2126,417.27142,41,75,42
417.38907,417.4479,41,75,42
417.56555,417.62436,41,75,42
417.742,417.80084,41,75,42
417.9185,417.9773,41,75,42
418.09494,418.15378,41,105,42
418.27142,418.33026,41,75,42
418.4479,418.5067,41,75,42
418.62436,418.6832,41,75,42
418.80084,418.85965,41,75,42
418.9773,419.03613,41,75,42
419.15378,419.2126,41,75,42
419.33023,419.38907,41,75,42
419.5067,419.56555,41,75,42
419.6832,419.742,39,105,42
419.85965,419.9185,39,75,42
420.03613,420.09494,39,75,42
420.2126,420.27142,39,75,42
420.38907,420.4479,39,75,42
420.56555,420.62436,39,75,42
420.742,420.80084,39,75,42
420.9185,420.9773,39,74,42
421.09494,421.15378,39,73,42
421.27142,421.33023,38,72,42
421.4479,421.5067,38,70,42
421.62436,421.6832,38,68,42
421.80084,421.85965,36,66,42
421.9773,422.03613,36,64,42
422.15378,422.2126,36,62,42
422.33023,422.62436,43,60,42
433.44788,433.9773,54,60,42
433.9773,434.5067,55,60,42
434.5067,434.9773,57,60,42
435.03613,435.56552,54,60,42
435.56552,436.09494,55,60,42
436.09494,436.38907,43,60,42
436.62436,437.15378,52,60,42
437.15378,437.68317,53,60,42
437.68317,438.15378,57,60,42
438.2126,438.742,54,60,42
438.742,439.27142,55,70,42
439.27142,439.742,43,81,42
439.8008,440.33023,36,92,42
440.33023,440.85965,38,75,42
440.85965,441.33023,40,60,42
441.38907,441.85965,41,60,42
441.91846,442.44788,53,75,42
442.44788,442.9773,54,92,42
442.9773,443.44788,53,60,42
443.5067,444.0361,41,75,42
444.0361,444.56552,42,92,42
444.56552,445.0361,41,60,42
445.09494,445.62436,53,60,42
445.62436,446.68317,54,75,42
446.68317,447.2126,55,92,42
447.2126,447.68317,43,60,42
447.742,448.2714,42,60,42
448.2714,448.8008,43,89,42
448.8008,449.2714,55,68,42
449.33023,449.8008,54,72,42
449.85965,450.33023,53,77,42
450.38907,450.91846,52,82,42
450.91846,451.38904,50,87,42
451.44788,451.91846,38,92,42
451.9773,452.44788,43,75,42
452.5067,452.8008,36,60,42
453.0361,453.56552,60,60,42
453.56552,454.09494,59,84,42
454.09494,454.38904,60,60,42
454.62436,455.15375,60,60,42
455.15375,455.68317,65,84,42
455.68317,455.9773,64,60,42
456.2126,456.742,58,60,42
456.742,457.2714,57,70,42
457.2714,457.8008,56,81,42
457.8008,458.33023,55,92,42
458.33023,458.85965,48,75,42
458.85965,459.15375,41,60,42
459.38904,459.44788,55,60,42
459.56552,459.62433,55,60,42
459.742,459.8008,55,60,42
459.91846,459.9773,55,60,42
460.09494,460.15375,55,60,42
460.2714,460.33023,55,60,42
460.44788,460.50668,55,60,42
460.62433,460.68317,55,59,42
460.8008,460.85965,55,58,42
460.9773,461.0361,55,57,42
461.15375,461.2126,55,55,42
461.33023,461.38904,55,53,42
461.50668,461.56552,55,51,42
461.68317,461.74197,55,49,42
461.85965,461.91846,55,47,42
462.0361,462.33023,48,45,42
462.56552,463.09494,58,60,42
463.09494,463.62433,56,60,42
463.62433,464.15375,55,60,42
464.15375,464.68317,43,60,42
464.68317,465.15375,36,60,42
465.2126,465.50668,41,60,42
465.74197,465.8008,43,60,42
465.91846,465.9773,43,60,42
466.09494,466.15375,43,60,42
466.2714,466.33023,43,60,42
466.44788,466.50668,43,60,42
466.62433,466.68317,43,60,42
466.8008,466.85962,43,60,42
466.9773,467.0361,43,59,42
467.15375,467.2126,43,57,42
467.33023,467.38904,43,55,42
467.50668,467.56552,43,53,42
467.68317,467.74197,43,51,42
467.85962,467.91846,43,49,42
468.0361,468.09494,43,47,42
468.2126,468.2714,43,45,42
468.38904,468.44788,36,60,42
468.56552,468.62433,36,60,42
468.74197,468.8008,36,60,42
468.91846,468.97726,36,60,42
469.09494,469.15375,36,60,42
469.2714,469.33023,36,60,42
469.44788,469.50668,36,60,42
469.62433,469.68317,36,60,42
469.8008,469.85962,36,60,42
469.97726,470.0361,36,60,42
470.15375,470.2126,36,60,42
470.33023,470.38904,36,60,42
470.50668,470.56552,36,60,42
470.68317,470.74197,36,60,42
470.85962,470.91846,36,60,42
471.0361,471.09494,36,60,42
471.2126,471.2714,36,60,42
471.38904,471.44788,36,60,42
471.56552,471.62433,36,60,42
471.74197,471.8008,36,60,42
471.91846,471.97726,36,60,42
472.09494,472.15375,36,60,42
472.2714,472.33023,36,60,42
472.44788,472.50668,36,60,42
472.62433,472.68317,36,60,42
472.8008,472.85962,36,60,42
472.97726,473.0361,36,60,42
473.15375,473.2126,36,60,42
473.33023,473.38904,36,60,42
473.50668,473.56552,36,60,42
473.68317,473.74197,36,60,42
473.85962,473.91846,36,61,42
474.0361,474.0949,36,61,42
474.2126,474.2714,36,62,42
474.38904,474.44788,36,63,42
474.56552,474.62433,36,64,42
474.74197,474.8008,36,65,42
474.91846,474.97726,36,66,42
475.0949,475.15375,36,67,42
475.2714,475.33023,36,68,42
475.44788,475.50668,36,69,42
475.62433,475.68317,36,70,42
475.8008,475.85962,36,71,42
475.97726,476.0361,36,72,42
476.15375,476.21255,36,73,42
476.33023,476.38904,36,74,42
476.50668,476.56552,36,75,42
476.68317,476.74197,36,76,42
476.85962,476.91846,36,77,42
477.0361,477.0949,36,78,42
477.21255,477.2714,36,79,42
477.38904,477.44788,36,80,42
477.56552,477.62433,36,81,42
477.74197,477.8008,36,82,42
477.91846,477.97726,36,83,42
478.0949,478.15375,36,84,42
478.2714,478.33023,36,85,42
478.44788,478.50668,36,86,42
478.62433,478.68317,36,87,42
478.8008,478.85962,36,88,42
478.97726,479.0361,36,89,42
479.15375,479.21255,36,90,42
479.33023,479.38904,36,92,42
479.50668,479.56552,36,60,42
479.68317,479.74197,36,60,42
479.85962,479.91846,36,75,42
480.0361,480.0949,36,92,42
480.21255,480.2714,36,92,42
480.38904,480.44788,36,75,42
480.56552,480.62433,36,60,42
480.74197,480.8008,36,60,42
480.91846,480.97726,36,60,42
481.0949,481.15375,36,60,42
481.2714,481.3302,36,70,42
481.44788,481.50668,36,81,42
481.62433,481.68317,36,92,42
481.8008,481.85962,36,92,42
481.97726,482.0361,36,86,42
482.15375,482.21255,36,80,42
482.3302,482.38904,36,74,42
482.50668,482.56552,36,67,42
482.68317,482.74197,36,60,42
482.85962,482.91846,36,60,42
483.0361,483.0949,36,60,42
483.21255,483.2714,36,60,42
483.38904,483.44785,36,60,42
483.56552,483.62433,36,60,42
483.74197,483.8008,36,60,42
483.91846,483.97726,36,60,42
484.0949,484.15375,36,60,42
484.2714,484.3302,36,60,42
484.44785,484.50668,36,60,42
484.62433,484.68317,36,60,42
484.8008,484.85962,36,60,42
484.97726,485.0361,36,60,42
485.15375,485.21255,36,60,42
485.3302,485.38904,36,60,42
485.50668,485.56552,36,60,42
485.68317,485.74197,36,60,42
485.85962,485.92212,36,60,42
486.04712,486.10962,36,59,42
486.23462,486.29712,36,58,42
486.42212,486.48462,36,57,42
486.60962,486.6763,36,56,42
486.80963,486.87628,36,55,42
487.0096,487.0763,36,54,42
487.20963,487.27628,36,53,42
487.40964,487.4763,36,52,42
487.60962,487.68106,36,51,42
487.8239,487.89532,36,50,42
488.0382,488.10962,36,49,42
488.25247,488.3239,36,48,42
488.46677,488.5437,36,47,42
488.69754,488.77444,36,46,42
488.9283,489.00522,36,45,42
489.1591,489.236,36,45,42
489.38983,489.46677,36,45,42
489.6206,489.7838,36,45,42
493.45395,493.6206,48,45,42
493.6206,493.95395,52,45,42
493.95395,494.11713,55,45,42
494.1206,494.6206,60,45,42
494.6206,494.89838,48,45,42
495.1206,495.6206,60,45,42
495.6206,495.89838,48,45,42
496.1206,496.6206,60,63,42
496.6206,496.89838,48,45,42
497.1206,498.03726,36,45,42
498.1206,498.56503,36,45,42
498.6206,499.53726,36,45,42
499.6206,500.06503,36,45,42
500.1206,501.03726,36,45,42
500.1206,501.03726,43,45,42
501.1206,502.06503,36,60,42
501.1206,502.06503,48,60,42
502.1206,503.03726,36,75,42
502.1206,503.03726,50,75,42
503.1206,504.61713,36,75,42
503.1206,504.61713,48,75,42
504.6206,506.11713,36,60,42
504.6206,506.11713,48,60,42
506.1206,507.72772,36,45,42
506.1206,507.72772,48,45,42
507.72772,508.23578,36,30,42
507.72772,508.23578,48,30,42
120.09427,120.35529,47,92,45
120.35897,120.62,50,92,45
120.62368,120.88471,55,92,45
120.88838,121.1825,36,92,45
121.6825,121.943535,48,92,45
121.947205,122.20824,51,92,45
122.211914,122.472946,56,92,45
122.476616,122.77074,47,92,45
123.27074,123.53177,47,75,45
123.535446,123.79647,50,75,45
123.80015,124.06118,55,75,45
124.32956,124.59059,55,75,45
124.59427,124.85529,43,75,45
124.85897,125.12,55,75,45
125.38838,125.649414,55,75,45
125.65309,125.914116,48,75,45
125.91779,126.178825,60,75,45
126.447205,126.70824,56,75,45
126.711914,126.97294,48,75,45
126.976616,127.23765,60,75,45
127.50603,127.76706,57,75,45
127.77074,128.03177,48,75,45
128.03545,128.29646,60,75,45
128.56485,128.82588,48,75,45
128.82956,129.12367,43,75,45
423.12436,423.38538,47,60,45
423.38907,423.6501,50,60,45
423.65378,423.9148,55,60,45
423.9185,424.2126,36,60,45
424.7126,424.97363,48,60,45
424.9773,425.23834,51,60,45
425.242,425.50305,56,60,45
425.5067,425.80084,47,60,45
426.30084,426.56186,47,60,45
426.56552,426.82657,50,60,45
426.83023,427.09128,55,60,45
427.35965,427.6207,55,60,45
427.62436,427.88538,43,60,45
427.88907,428.1501,55,60,45
428.4185,428.6795,55,60,45
428.6832,428.9442,48,60,45
428.94788,429.20892,60,60,45
429.4773,429.73834,56,60,45
429.742,430.00302,48,60,45
430.0067,430.26773,60,60,45
430.53613,430.79715,57,60,45
430.80084,431.06186,48,60,45
431.06552,431.32657,60,60,45
431.59494,431.856,48,60,45
431.85965,432.15378,43,60,45
21.17646,21.529402,74,45,0
21.17646,21.529402,79,45,0
21.17646,21.529402,83,45,0
21.529402,21.705872,72,45,0
21.529402,21.705872,79,45,0
21.529402,21.705872,81,45,0
21.705872,22.235283,76,45,0
21.705872,22.235283,79,45,0
21.705872,22.235283,84,45,0
22.235283,22.705872,74,45,0
22.235283,22.705872,79,45,0
22.235283,22.705872,83,45,0
22.764694,23.117636,77,45,0
22.764694,23.117636,79,45,0
22.764694,23.117636,86,45,0
23.117636,23.294106,76,55,0
23.117636,23.294106,79,55,0
23.117636,23.294106,84,55,0
23.294106,23.823517,79,60,0
23.294106,23.823517,84,60,0
23.294106,23.823517,88,60,0
23.823517,24.294106,77,75,0
23.823517,24.294106,83,75,0
23.823517,24.294106,86,75,0
24.352928,24.882341,83,75,0
24.352928,24.882341,86,75,0
24.352928,24.882341,93,75,0
24.882341,25.411753,84,68,0
24.882341,25.411753,88,68,0
24.882341,25.411753,91,68,0
25.411753,25.952192,81,61,0
25.411753,25.952192,84,61,0
25.411753,25.952192,90,61,0
25.952192,26.539694,80,53,0
25.952192,26.539694,84,53,0
25.952192,26.539694,89,53,0
26.539694,27.11112,77,45,0
26.539694,27.11112,83,45,0
26.539694,27.11112,86,45,0
28.064901,28.241373,67,60,0
28.064901,28.241373,75,60,0
28.241373,28.594313,65,60,0
28.241373,28.594313,74,60,0
28.594313,28.770784,63,81,0
28.594313,28.770784,72,81,0
28.770784,29.300196,62,92,0
28.770784,29.300196,71,92,0
29.300196,29.594313,63,60,0
29.300196,29.594313,72,60,0
29.653137,29.829607,67,60,0
29.653137,29.829607,75,60,0
29.829607,30.182549,65,68,0
29.829607,30.182549,74,68,0
30.182549,30.359018,63,84,0
30.182549,30.359018,72,84,0
30.359018,30.88843,62,92,0
30.359018,30.88843,71,92,0
30.88843,31.182547,63,60,0
30.88843,31.182547,72,60,0
31.241371,31.417841,63,60,0
31.241371,31.417841,72,60,0
31.417841,31.770782,65,60,0
31.417841,31.770782,74,60,0
31.770782,31.943577,67,60,0
31.770782,31.943577,76,60,0
31.947252,32.300194,68,60,0
31.947252,32.300194,77,60,0
32.300194,32.476665,70,60,0
32.300194,32.476665,79,60,0
32.476665,32.947254,72,60,0
32.476665,32.947254,80,60,0
33.006077,33.359016,70,60,0
33.006077,33.359016,79,60,0
33.359016,33.53181,68,60,0
33.359016,33.53181,77,60,0
33.53549,34.0649,67,60,0
33.53549,34.0649,75,60,0
34.0649,34.359016,65,60,0
34.0649,34.359016,74,60,0
34.41784,34.59431,67,60,0
34.41784,34.59431,75,60,0
34.59431,34.94725,65,60,0
34.59431,34.94725,74,60,0
34.94725,35.123722,63,60,0
34.94725,35.123722,72,60,0
35.123722,35.653133,62,60,0
35.123722,35.653133,71,60,0
35.653133,35.94725,63,60,0
35.653133,35.94725,72,60,0
36.006073,36.182545,68,60,0
36.006073,36.182545,77,60,0
36.182545,36.535484,66,60,0
36.182545,36.535484,75,60,0
36.535484,36.70828,65,60,0
36.535484,36.70828,73,60,0
36.711956,37.182545,65,60,0
36.711956,37.182545,73,60,0
37.59431,37.77078,68,60,0
37.59431,37.77078,77,60,0
37.77078,38.123722,66,60,0
37.77078,38.123722,75,60,0
38.123722,38.30019,65,60,0
38.123722,38.30019,73,60,0
38.30019,38.8296,63,60,0
38.30019,38.8296,72,60,0
38.8296,39.12372,65,60,0
38.8296,39.12372,73,60,0
39.182545,39.359013,72,60,0
39.182545,39.359013,80,60,0
39.359013,39.711956,70,60,0
39.359013,39.711956,79,60,0
39.711956,39.88475,69,60,0
39.711956,39.88475,78,60,0
39.888424,40.359013,69,60,0
39.888424,40.359013,78,60,0
40.77078,40.94725,66,60,0
40.77078,40.94725,74,60,0
40.94725,41.30019,67,60,0
40.94725,41.30019,76,60,0
41.30019,41.47666,69,60,0
41.30019,41.47666,78,60,0
41.47666,41.8296,70,60,0
41.47666,41.8296,79,60,0
41.8296,42.006073,72,81,0
41.8296,42.006073,81,81,0
42.006073,42.535484,73,92,0
42.006073,42.535484,82,92,0
42.535484,43.00607,67,60,0
42.535484,43.00607,73,60,0
43.064896,43.535484,66,60,0
43.064896,43.535484,74,60,0
43.947247,44.12372,66,60,0
43.947247,44.12372,74,60,0
44.12372,44.476658,67,64,0
44.12372,44.476658,76,64,0
44.476658,44.65313,69,73,0
44.476658,44.65313,78,73,0
44.65313,45.00607,70,77,0
44.65313,45.00607,79,77,0
45.00607,45.18254,72,87,0
45.00607,45.18254,81,87,0
45.18254,45.53548,73,92,0
45.18254,45.53548,82,92,0
45.53548,45.708275,67,75,0
45.53548,45.708275,73,75,0
45.711952,46.06489,66,60,0
45.711952,46.06489,74,60,0
46.06489,46.237686,60,60,0
46.06489,46.237686,66,60,0
46.241364,46.329597,59,60,0
46.241364,46.329597,67,60,0
46.770775,46.85901,55,60,0
46.770775,46.85901,67,60,0
47.829597,47.91783,55,60,0
47.829597,47.91783,67,60,0
48.35901,48.447247,55,60,0
48.35901,48.447247,67,60,0
49.41783,49.50607,55,60,0
49.947243,50.03548,55,60,0
51.006065,51.094303,55,60,0
51.535477,51.623714,55,60,0
53.123714,53.653126,76,45,0
53.123714,53.653126,79,45,0
53.123714,53.653126,85,45,0
53.653126,54.182537,77,60,0
53.653126,54.182537,80,60,0
53.653126,54.182537,84,60,0
54.182537,54.71195,74,75,0
54.182537,54.71195,77,75,0
54.182537,54.71195,83,75,0
54.71195,55.24136,73,92,0
54.71195,55.24136,77,92,0
54.71195,55.24136,82,92,0
55.24136,55.71195,72,60,0
55.24136,55.71195,76,60,0
55.24136,55.71195,79,60,0
56.300182,56.476654,61,60,0
56.476654,56.653122,59,60,0
56.653122,56.825916,60,60,0
57.888416,58.064888,61,60,0
58.064888,58.241356,59,60,0
58.241356,58.41415,60,60,0
59.47665,59.653122,63,60,0
59.653122,59.829594,60,60,0
59.829594,60.002384,61,60,0
61.064884,61.241356,61,60,0
61.241356,61.417828,59,60,0
61.417828,61.590622,60,60,0
62.123707,62.30018,56,60,0
62.30018,62.47665,60,60,0
62.47665,62.65312,68,60,0
62.65312,62.82959,58,60,0
62.82959,63.00606,60,60,0
63.00606,63.182533,64,60,0
63.182533,63.359,53,60,0
63.359,63.535473,60,60,0
63.535473,63.711945,65,60,0
63.711945,63.888412,53,60,0
63.888412,64.06488,61,60,0
64.06488,64.241356,65,60,0
64.241356,64.41782,53,60,0
64.41782,64.59429,61,60,0
64.59429,64.77077,65,60,0
64.77077,64.947235,53,60,0
64.947235,65.12371,62,70,0
65.12371,65.2965,65,81,0
65.30018,65.47665,56,92,0
65.47665,65.65312,62,92,0
65.65312,65.82959,65,86,0
65.82959,66.00606,62,80,0
66.00606,66.18253,65,74,0
66.18253,66.359,68,67,0
66.359,66.53547,56,60,0
66.53547,66.711945,62,60,0
66.711945,66.884735,65,60,0
66.88841,67.06488,55,60,0
67.06488,67.241356,64,60,0
67.241356,67.41782,67,60,0
67.41782,67.59429,76,60,0
67.59429,67.77077,79,60,0
67.77077,67.903114,84,60,0
67.903114,67.947235,87,60,0
67.947235,68.120026,85,60,0
68.30018,68.47665,72,60,0
68.30018,68.47665,84,60,0
68.47665,69.35532,73,60,0
68.47665,69.35532,85,60,0
69.359,69.53547,72,60,0
69.359,69.53547,84,60,0
69.53547,69.70827,68,60,0
69.53547,69.70827,80,60,0
69.88841,70.06488,70,60,0
69.88841,70.06488,82,60,0
70.06488,70.53547,67,60,0
70.06488,70.53547,79,60,0
70.947235,71.07959,72,60,0
70.947235,71.07959,84,60,0
71.07959,71.1237,87,60,0
71.1237,71.2965,73,75,0
71.1237,71.2965,85,75,0
71.47665,71.653114,72,75,0
71.47665,71.653114,84,75,0
71.653114,72.53179,75,92,0
71.653114,72.53179,87,92,0
72.53547,72.71194,73,92,0
72.53547,72.71194,85,92,0
72.71194,72.884735,68,75,0
72.71194,72.884735,80,75,0
73.06488,73.24135,70,60,0
73.06488,73.24135,82,60,0
73.24135,73.71194,67,60,0
73.24135,73.71194,79,60,0
74.1237,74.25606,75,60,0
74.1237,74.25606,87,60,0
74.25606,74.30017,91,60,0
74.30017,74.47297,77,60,0
74.30017,74.47297,89,60,0
74.653114,74.825905,75,60,0
74.653114,74.825905,87,60,0
74.82958,75.09429,84,60,0
74.82958,75.09429,96,60,0
75.09429,75.355316,82,60,0
75.09429,75.355316,94,60,0
75.35899,75.6237,80,60,0
75.35899,75.6237,92,60,0
75.6237,75.88473,79,60,0
75.6237,75.88473,91,60,0
75.888405,76.153114,80,60,0
75.888405,76.153114,92,60,0
76.153114,76.41414,78,60,0
76.153114,76.41414,90,60,0
76.417816,76.682526,76,60,0
76.417816,76.682526,88,60,0
76.682526,76.94356,77,60,0
76.682526,76.94356,89,60,0
76.94723,77.21194,68,75,0
76.94723,77.21194,80,75,0
77.21194,77.47297,70,75,0
77.21194,77.47297,82,75,0
77.47664,78.26708,71,92,0
77.47664,78.26708,83,92,0
78.27076,78.53546,70,60,0
78.27076,78.53546,82,60,0
78.53546,78.80017,73,60,0
78.53546,78.80017,85,60,0
78.80017,79.06487,70,60,0
78.80017,79.06487,82,60,0
79.06487,79.32958,68,75,0
79.06487,79.32958,80,75,0
79.32958,79.590614,70,75,0
79.32958,79.590614,82,75,0
79.59429,79.85899,71,75,0
79.59429,79.85899,83,75,0
79.85899,80.1237,70,75,0
79.85899,80.1237,82,75,0
80.1237,80.388405,78,75,0
80.1237,80.388405,90,75,0
80.388405,80.653114,70,75,0
80.388405,80.653114,82,75,0
80.653114,80.917816,68,75,0
80.653114,80.917816,80,75,0
80.917816,81.17885,71,75,0
80.917816,81.17885,83,75,0
81.182526,82.061195,72,75,0
81.182526,82.061195,84,75,0
82.06487,82.23767,72,60,0
82.06487,82.23767,80,60,0
82.24135,82.41414,73,60,0
82.24135,82.41414,82,60,0
82.594284,82.76708,70,60,0
82.594284,82.76708,79,60,0
82.77076,83.06487,68,60,0
82.77076,83.06487,77,60,0
85.24134,85.417816,72,60,0
85.24134,85.417816,80,60,0
85.417816,85.77075,70,60,0
85.417816,85.77075,79,60,0
85.77075,85.94355,68,75,0
85.77075,85.94355,77,75,0
85.94723,86.47664,67,92,0
85.94723,86.47664,76,92,0
86.47664,86.77075,68,60,0
86.47664,86.77075,77,60,0
88.417816,88.594284,77,60,0
88.417816,88.594284,85,60,0
88.594284,88.94723,73,63,0
88.594284,88.94723,82,63,0
88.94723,89.12002,70,71,0
88.94723,89.12002,79,71,0
89.123695,89.65311,68,75,0
89.123695,89.65311,77,75,0
89.65311,89.94723,67,45,0
89.65311,89.94723,76,45,0
91.594284,91.77075,73,60,0
91.594284,91.77075,82,60,0
91.77075,92.123695,71,60,0
91.77075,92.123695,80,60,0
92.123695,92.296486,70,60,0
92.123695,92.296486,78,60,0
92.30016,92.77075,70,60,0
92.30016,92.77075,78,60,0
94.77075,94.94722,77,60,0
94.77075,94.94722,85,60,0
94.94722,95.30016,75,60,0
94.94722,95.30016,84,60,0
95.30016,95.47295,74,60,0
95.30016,95.47295,83,60,0
95.47663,95.94722,74,60,0
95.47663,95.94722,83,60,0
99.53545,99.71192,71,60,0
99.53545,99.71192,79,60,0
99.71192,100.064865,72,64,0
99.71192,100.064865,81,64,0
100.064865,100.23766,74,73,0
100.064865,100.23766,83,73,0
100.24133,100.59428,75,77,0
100.24133,100.59428,84,77,0
100.59428,100.770744,77,87,0
100.59428,100.770744,86,87,0
100.770744,101.30016,78,92,0
100.770744,101.30016,87,92,0
101.30016,102.708244,72,75,0
101.30016,102.708244,78,75,0
105.88839,106.064865,72,60,0
105.88839,106.064865,80,60,0
106.064865,106.4178,73,60,0
106.064865,106.4178,82,60,0
106.4178,106.5906,75,70,0
106.4178,106.5906,84,70,0
106.59428,106.94721,76,75,0
106.59428,106.94721,85,75,0
106.94721,107.12369,78,86,0
106.94721,107.12369,87,86,0
107.12369,107.6531,79,92,0
107.12369,107.6531,88,92,0
107.6531,109.06119,73,75,0
107.6531,109.06119,79,75,0
110.6531,110.82589,81,60,0
110.82957,111.12369,80,60,0
110.82957,111.12369,83,60,0
111.18251,111.3553,79,67,0
111.18251,111.3553,85,67,0
111.35898,111.6531,77,70,0
111.35898,111.6531,86,70,0
111.71192,111.88471,76,77,0
111.71192,111.88471,85,77,0
111.71192,111.88471,88,77,0
111.88839,112.35898,77,80,0
111.88839,112.35898,86,80,0
111.88839,112.35898,89,80,0
112.4178,112.88839,78,92,0
112.4178,112.88839,86,92,0
112.4178,112.88839,90,92,0
112.94721,113.24133,79,92,0
112.94721,113.24133,86,92,0
112.94721,113.24133,91,92,0
113.47662,113.770744,80,92,0
113.47662,113.770744,83,92,0
113.47662,113.770744,86,92,0
113.47662,113.770744,92,92,0
115.06486,115.35898,68,92,0
115.06486,115.35898,71,92,0
115.06486,115.35898,74,92,0
115.06486,115.35898,80,92,0
116.65309,116.94721,68,92,0
116.65309,116.94721,71,92,0
116.65309,116.94721,75,92,0
116.65309,116.94721,80,92,0
118.241325,118.535446,68,92,0
118.241325,118.535446,71,92,0
118.241325,118.535446,77,92,0
118.241325,118.535446,80,92,0
118.77074,119.06486,67,92,0
118.77074,119.06486,72,92,0
118.77074,119.06486,75,92,0
118.77074,119.06486,79,92,0
119.82956,120.006035,68,92,0
120.006035,120.1825,66,92,0
120.1825,120.35897,67,92,0
120.35897,120.535446,62,92,0
120.535446,120.711914,59,92,0
120.711914,120.88471,55,92,0
121.41779,121.59427,70,92,0
121.59427,121.77074,67,92,0
121.77074,121.947205,68,92,0
121.947205,122.12368,63,92,0
122.12368,122.30015,60,92,0
122.30015,122.472946,56,92,0
123.00603,123.1825,68,75,0
123.1825,123.35897,66,75,0
123.35897,123.535446,67,75,0
123.535446,123.711914,62,75,0
123.711914,123.88838,59,75,0
123.88838,124.06118,55,75,0
124.06486,124.241325,63,75,0
124.241325,124.41779,67,75,0
124.41779,124.59427,75,75,0
124.59427,124.77074,65,75,0
124.77074,124.947205,67,75,0
124.947205,125.12368,71,75,0
125.12368,125.30015,60,75,0
125.30015,125.476616,67,75,0
125.476616,125.649414,72,75,0
125.65309,125.82956,60,75,0
125.82956,126.00603,65,75,0
126.00603,126.1825,68,75,0
126.1825,126.35897,56,75,0
126.35897,126.53544,60,75,0
126.53544,126.711914,68,75,0
126.711914,126.88838,57,75,0
126.88838,127.06485,60,75,0
127.06485,127.23765,69,75,0
127.241325,127.41779,57,75,0
127.41779,127.59426,60,74,0
127.59426,127.77074,69,73,0
127.77074,127.947205,57,72,0
127.947205,128.12367,60,70,0
128.12367,128.30014,69,68,0
128.30014,128.47662,60,66,0
128.47662,128.65309,63,64,0
128.65309,128.82588,69,62,0
128.82956,129.00603,59,60,0
129.00603,129.1825,62,60,0
129.1825,129.35896,67,60,0
129.35896,129.53545,71,60,0
129.53545,129.71191,74,60,0
129.71191,129.84427,79,60,0
129.84427,129.88838,83,60,0
129.88838,130.06117,81,60,0
130.24132,130.41779,79,60,0
130.41779,131.29646,81,60,0
131.30014,131.47661,79,60,0
131.47661,131.64941,71,60,0
131.82956,132.00603,72,60,0
132.00603,132.30014,74,60,0
132.88838,133.02074,79,60,0
133.02074,133.06485,83,60,0
133.06485,133.23764,81,60,0
133.41779,133.59425,79,60,0
133.59425,134.41779,82,60,0
134.47661,134.65309,81,60,0
134.65309,134.82588,71,60,0
135.00603,135.1825,72,60,0
135.1825,135.47661,74,60,0
136.06485,136.1972,79,60,0
136.1972,136.24132,83,60,0
136.24132,136.41411,81,60,0
136.59425,136.76706,79,60,0
136.77074,137.03543,76,60,0
136.77074,137.03543,88,60,0
137.03543,137.29646,74,60,0
137.03543,137.29646,86,60,0
137.30014,137.56485,72,60,0
137.30014,137.56485,84,60,0
137.56485,137.82588,71,60,0
137.56485,137.82588,83,60,0
137.82956,138.09425,72,60,0
137.82956,138.09425,84,60,0
138.09425,138.35529,70,60,0
138.09425,138.35529,82,60,0
138.35896,138.62367,68,60,0
138.35896,138.62367,80,60,0
138.62367,138.8847,69,60,0
138.62367,138.8847,81,60,0
138.88838,139.15308,72,60,0
139.15308,139.41779,74,60,0
139.41779,139.88838,69,60,0
139.9472,140.20822,70,60,0
139.41779,140.20822,75,60,0
140.2119,140.47293,74,60,0
140.47661,140.73764,77,60,0
140.74132,141.00235,74,60,0
141.00603,141.26704,72,60,0
141.00603,141.53543,69,60,0
141.27072,141.53543,74,60,0
141.53543,141.80014,70,60,0
141.53543,141.80014,75,60,0
141.80014,142.06485,74,75,0
142.06485,142.32954,82,92,0
142.32954,142.59058,74,75,0
142.59425,142.85529,72,84,0
142.85896,143.12,74,60,0
142.59425,143.59425,69,84,0
143.65308,143.9472,67,75,0
143.65308,143.9472,72,75,0
143.12367,143.9472,75,75,0
144.00603,144.13837,76,75,0
144.13837,144.1825,79,75,0
144.1825,144.35529,71,75,0
144.1825,144.35529,77,75,0
144.53543,144.70822,74,75,0
144.7119,145.1825,69,75,0
145.24132,145.53543,67,75,0
144.7119,145.53543,72,75,0
144.7119,145.53543,75,75,0
145.59425,145.72661,76,75,0
145.72661,145.77072,79,75,0
145.77072,145.94351,71,75,0
145.77072,145.94351,77,75,0
146.12367,146.29646,74,75,0
146.30014,146.77072,69,75,0
146.30014,146.77072,72,75,0
146.30014,146.77072,75,75,0
146.82954,147.30014,69,79,0
146.82954,147.30014,72,79,0
147.35896,147.82954,69,83,0
147.35896,147.82954,72,83,0
147.35896,147.82954,76,83,0
147.88837,148.1825,69,87,0
147.88837,148.1825,72,87,0
148.37367,148.41779,79,91,0
148.41779,148.88837,69,92,0
148.41779,148.88837,72,92,0
148.94719,149.30014,65,92,0
148.94719,149.30014,71,92,0
148.41779,149.30014,77,92,0
149.30014,149.47293,74,75,0
149.47661,149.77072,64,60,0
149.47661,149.77072,72,60,0
150.00601,150.30014,60,60,0
150.00601,150.30014,72,60,0
151.06483,151.35896,60,60,0
151.06483,151.35896,72,60,0
151.59425,151.88837,60,60,0
151.59425,151.88837,72,60,0
152.65308,152.94719,48,60,0
152.65308,152.94719,60,60,0
153.18248,153.47661,48,60,0
153.18248,153.47661,60,60,0
154.2413,154.53543,48,60,0
154.2413,154.53543,60,60,0
154.77072,155.06483,48,60,0
154.77072,155.06483,60,60,0
155.82954,156.12366,48,60,0
155.82954,156.12366,60,60,0
156.35896,156.88837,71,75,0
156.35896,156.88837,74,75,0
156.35896,156.88837,81,75,0
156.88837,157.41779,72,75,0
156.88837,157.41779,76,75,0
156.88837,157.41779,79,75,0
157.41779,157.94719,69,75,0
157.41779,157.94719,72,75,0
157.41779,157.94719,78,75,0
157.94719,158.47661,68,75,0
157.94719,158.47661,72,75,0
157.94719,158.47661,77,75,0
158.47661,158.94719,65,75,0
158.47661,158.94719,71,75,0
158.47661,158.94719,74,75,0
159.00601,159.30013,64,60,0
159.00601,159.30013,72,60,0
159.53543,159.82954,48,60,0
159.53543,159.82954,60,60,0
160.59425,160.88837,48,60,0
160.59425,160.88837,60,60,0
161.12366,161.41777,48,60,0
161.12366,161.41777,60,60,0
162.7119,163.2413,59,92,0
162.7119,163.2413,62,92,0
162.7119,163.2413,69,92,0
163.2413,163.77072,60,92,0
163.2413,163.77072,64,92,0
163.2413,163.77072,67,92,0
163.77072,164.30013,57,84,0
163.77072,164.30013,60,84,0
163.77072,164.30013,66,84,0
164.30013,164.82954,56,76,0
164.30013,164.82954,60,76,0
164.30013,164.82954,65,76,0
164.82954,165.30013,53,68,0
164.82954,165.30013,59,68,0
164.82954,165.30013,62,68,0
165.35895,167.91777,60,60,0
171.18248,171.65306,62,60,0
171.18248,171.65306,65,60,0
171.18248,171.65306,68,60,0
171.18248,171.65306,71,60,0
171.71188,172.06483,64,70,0
171.71188,172.06483,67,70,0
171.71188,172.06483,72,70,0
172.06483,172.2413,67,77,0
172.06483,172.2413,74,77,0
172.2413,172.7707,72,80,0
172.2413,172.7707,75,80,0
172.7707,173.2413,69,92,0
172.7707,173.2413,72,92,0
172.7707,173.2413,78,92,0
173.30013,173.59424,67,60,0
173.30013,173.59424,71,60,0
173.30013,173.59424,74,60,0
173.30013,173.59424,79,60,0
174.35895,174.65306,66,75,0
174.35895,174.65306,72,75,0
174.35895,174.65306,78,75,0
175.41777,175.71188,65,92,0
175.41777,175.71188,72,92,0
175.41777,175.71188,77,92,0
176.4766,176.7778,64,60,0
176.4766,176.7778,72,60,0
176.4766,176.7778,76,60,0
177.01875,178.10309,68,60,0
177.01875,178.10309,72,60,0
177.01875,178.10309,75,60,0
177.01875,178.10309,80,60,0
178.10309,178.41559,67,60,0
178.10309,178.41559,76,60,0
178.10309,178.41559,79,60,0
178.66559,179.79059,69,75,0
178.66559,179.79059,72,75,0
178.66559,179.79059,75,75,0
178.66559,179.79059,81,75,0
179.79059,180.12393,67,75,0
179.79059,180.12393,76,75,0
179.79059,180.12393,79,75,0
180.3906,181.59059,56,72,0
180.3906,181.59059,60,72,0
180.3906,181.59059,63,72,0
180.3906,181.59059,68,72,0
181.59059,181.94774,55,66,0
181.59059,181.94774,64,66,0
181.59059,181.94774,67,66,0
182.23344,183.41202,57,63,0
182.23344,183.41202,60,63,0
182.23344,183.41202,63,63,0
182.23344,183.41202,69,63,0
183.51917,183.90378,55,57,0
183.51917,183.90378,64,57,0
183.51917,183.90378,67,57,0
184.90378,185.28839,55,51,0
184.90378,185.28839,60,51,0
184.90378,185.28839,64,51,0
186.28839,186.673,52,45,0
186.28839,186.673,60,45,0
189.9807,190.14737,63,60,0
190.14737,190.31403,65,60,0
190.31403,190.4807,63,60,0
190.4807,190.64737,60,60,0
190.64737,190.81403,61,60,0
190.81403,190.9807,60,60,0
190.9807,191.14737,63,60,0
191.14737,191.31403,65,60,0
191.31403,191.4807,63,60,0
191.4807,191.64737,60,60,0
191.64737,191.81403,61,60,0
191.81403,191.97722,60,60,0
191.9807,192.14737,66,60,0
192.14737,192.31403,68,60,0
192.31403,192.4807,66,60,0
192.4807,192.64737,63,60,0
192.64737,192.81403,65,60,0
192.81403,192.9807,63,60,0
192.9807,193.14737,66,60,0
193.14737,193.31403,68,60,0
193.31403,193.47722,66,60,0
193.4807,193.64735,65,60,0
193.64735,193.81403,66,60,0
193.81403,193.9807,65,60,0
193.9807,194.14735,67,60,0
194.14735,194.31403,65,60,0
194.31403,194.4807,67,60,0
194.4807,194.64735,68,60,0
194.64735,194.81403,67,60,0
194.81403,194.97722,68,60,0
194.9807,195.14735,70,60,0
195.14735,195.31403,72,60,0
195.31403,195.4807,74,60,0
195.4807,195.64735,75,60,0
195.64735,195.81403,74,60,0
195.81403,195.9807,75,60,0
195.9807,196.14735,77,60,0
196.14735,196.31403,75,60,0
196.31403,196.4807,77,60,0
196.4807,196.75847,79,60,0
196.81403,196.9807,67,60,0
196.9807,197.14735,70,60,0
197.14735,197.31403,75,60,0
197.31403,197.4807,79,60,0
197.4807,197.64735,82,60,0
197.64735,197.81403,84,60,0
197.81403,197.97722,82,60,0
197.9807,198.14735,79,60,0
198.14735,198.31403,80,60,0
198.31403,198.48068,79,60,0
198.48068,198.64735,82,60,0
198.64735,198.81403,84,60,0
198.81403,198.98068,82,60,0
198.98068,199.14735,79,60,0
199.14735,199.31403,80,60,0
199.31403,199.47722,79,60,0
199.48068,199.64735,85,60,0
199.64735,199.81403,87,60,0
199.81403,199.98068,85,60,0
199.98068,200.14735,82,60,0
200.14735,200.31403,84,60,0
200.31403,200.48068,82,60,0
200.48068,200.64735,85,60,0
200.64735,200.81403,87,60,0
200.81403,200.97722,85,60,0
200.98068,201.14735,84,60,0
201.14735,201.31403,85,61,0
201.31403,201.48068,84,62,0
201.48068,201.64735,86,63,0
201.64735,201.81403,84,64,0
201.81403,201.98068,86,66,0
201.98068,202.14735,87,68,0
202.14735,202.31403,86,70,0
202.31403,202.48068,87,72,0
202.48068,202.64735,89,74,0
202.64735,202.81403,91,76,0
202.81403,202.98068,93,78,0
202.98068,203.14735,94,80,0
203.14735,203.31403,93,82,0
203.31403,203.48068,94,84,0
203.48068,203.64735,91,86,0
203.64735,203.81401,89,88,0
203.81401,203.97722,91,90,0
203.98068,204.14735,92,92,0
204.14735,204.31055,80,92,0
205.48068,205.64735,64,75,0
205.64735,205.81401,66,75,0
205.81401,205.9772,64,75,0
206.48068,206.64735,64,75,0
206.64735,206.81401,66,75,0
206.81401,206.9772,64,75,0
207.48068,207.64735,68,75,0
207.64735,207.81401,69,74,0
207.81401,207.9772,68,73,0
208.48068,208.64735,75,67,0
208.64735,208.81401,76,66,0
208.81401,208.9772,75,65,0
209.48068,209.64734,63,57,0
209.64734,209.81401,64,55,0
209.81401,209.9772,63,53,0
210.51009,210.68655,56,45,0
210.68655,210.88657,57,45,0
210.88657,211.0824,56,45,0
212.6122,212.77887,75,60,0
212.77887,213.1122,80,60,0
213.1122,213.27539,84,60,0
213.27887,213.77887,87,60,0
213.77887,214.05664,84,60,0
214.27887,214.77887,87,84,0
214.77887,215.05664,84,60,0
215.27887,215.77887,90,84,0
215.77887,216.05664,87,60,0
216.27887,216.6122,85,60,0
216.6122,216.77887,87,60,0
216.77887,217.27887,85,60,0
217.27887,217.72331,84,60,0
217.77885,218.1122,82,60,0
218.1122,218.27885,80,60,0
218.27885,218.77885,79,60,0
218.77885,219.2233,82,60,0
219.27885,219.7233,75,60,0
220.1122,220.27885,58,75,0
220.27885,220.6122,63,75,0
220.6122,220.77539,67,75,0
220.77885,221.27885,70,75,0
221.27885,221.55664,67,75,0
221.77885,222.27885,70,105,0
222.27885,222.55664,67,75,0
222.77885,223.27885,73,105,0
223.27885,223.55664,70,75,0
223.77885,224.11218,71,75,0
224.11218,224.27885,72,76,0
224.27885,224.77885,73,77,0
224.77885,225.2233,75,80,0
225.27885,225.61218,64,83,0
225.27885,225.61218,76,83,0
225.61218,225.77885,65,85,0
225.61218,225.77885,77,85,0
225.77885,226.27885,66,86,0
225.77885,226.27885,78,86,0
226.27885,226.7233,67,89,0
226.27885,226.7233,79,89,0
226.77885,227.36218,68,92,0
226.77885,227.36218,80,92,0
227.44553,227.61218,76,92,0
227.61218,227.77885,71,84,0
227.77885,227.94551,68,76,0
227.94551,228.11218,64,68,0
228.11218,228.27538,59,60,0
228.77885,228.94551,64,75,0
228.94551,229.11218,66,75,0
229.11218,229.27538,64,75,0
229.77885,229.94551,64,75,0
229.94551,230.11218,66,75,0
230.11218,230.27538,64,75,0
230.77885,230.94551,68,75,0
230.94551,231.11218,70,75,0
231.11218,231.27538,68,75,0
231.77885,231.94551,75,75,0
231.94551,232.11218,76,75,0
232.11218,232.27538,75,75,0
232.77884,232.94551,63,75,0
232.94551,233.11218,64,72,0
233.11218,233.27538,63,69,0
233.77884,233.94551,51,56,0
233.94551,234.11218,52,53,0
234.11218,234.27538,51,49,0
234.27884,234.3344,51,45,0
234.27884,234.3344,54,45,0
234.27884,234.3344,57,45,0
234.44551,234.50107,51,45,0
234.44551,234.50107,54,45,0
234.44551,234.50107,57,45,0
234.77884,234.8344,51,45,0
234.77884,234.8344,54,45,0
234.77884,234.8344,57,45,0
234.94551,235.00107,51,45,0
234.94551,235.00107,54,45,0
234.94551,235.00107,57,45,0
235.77884,235.8344,52,45,0
235.77884,235.8344,56,45,0
235.94551,236.00107,52,45,0
235.94551,236.00107,56,45,0
236.27884,236.3344,52,45,0
236.27884,236.3344,56,45,0
236.44551,236.50107,52,45,0
236.44551,236.50107,56,45,0
237.27884,237.3344,51,45,0
237.27884,237.3344,54,45,0
237.27884,237.3344,57,45,0
237.44551,237.50107,51,45,0
237.44551,237.50107,54,45,0
237.44551,237.50107,57,45,0
237.77884,237.8344,51,45,0
237.77884,237.8344,54,45,0
237.77884,237.8344,57,45,0
237.94551,238.00107,51,45,0
237.94551,238.00107,54,45,0
237.94551,238.00107,57,45,0
238.77884,238.8344,52,60,0
238.77884,238.8344,56,60,0
238.94551,239.00107,52,60,0
238.94551,239.00107,56,60,0
239.27884,239.3344,52,60,0
239.27884,239.3344,56,60,0
239.44551,239.50107,52,60,0
239.44551,239.50107,56,60,0
240.27884,240.3344,52,60,0
240.27884,240.3344,56,60,0
240.44551,240.50107,52,60,0
240.44551,240.50107,56,60,0
240.77884,240.8344,52,60,0
240.77884,240.8344,56,60,0
240.94551,241.00107,52,60,0
240.94551,241.00107,56,60,0
241.77884,241.8344,52,60,0
241.77884,241.8344,57,60,0
241.94551,242.00105,52,60,0
241.94551,242.00105,57,60,0
242.27884,242.3344,52,60,0
242.27884,242.3344,58,60,0
242.44551,242.50105,52,60,0
242.44551,242.50105,58,60,0
243.27884,243.3344,52,60,0
243.27884,243.3344,59,60,0
243.4455,243.50105,52,63,0
243.4455,243.50105,59,63,0
243.77884,243.8344,54,69,0
243.77884,243.8344,59,69,0
243.77884,243.8344,63,69,0
243.9455,244.00105,54,72,0
243.9455,244.00105,59,72,0
243.9455,244.00105,63,72,0
244.77884,245.05661,52,92,0
244.77884,245.05661,59,92,0
244.77884,245.05661,64,92,0
245.77884,246.05661,57,75,0
245.77884,246.05661,59,75,0
245.77884,246.05661,63,75,0
246.77884,247.05661,56,60,0
246.77884,247.05661,62,60,0
246.77884,247.05661,64,60,0
249.27882,249.4455,55,60,0
249.4455,249.61217,58,60,0
249.61217,249.77882,60,60,0
249.77882,249.9455,55,60,0
249.9455,250.11217,58,60,0
250.11217,250.27882,61,60,0
250.27882,250.4455,58,60,0
250.4455,250.61217,61,60,0
250.61217,250.77536,67,60,0
250.77882,250.9455,60,60,0
250.9455,251.11217,63,60,0
251.11217,251.27882,67,60,0
251.27882,251.4455,60,60,0
251.4455,251.61217,68,60,0
251.61217,251.77882,72,60,0
251.77882,251.9455,68,60,0
251.9455,252.11217,72,60,0
252.11217,252.27536,80,60,0
252.27882,252.4455,55,60,0
252.4455,252.61217,58,60,0
252.61217,252.77882,60,60,0
252.77882,252.9455,55,60,0
252.9455,253.11215,58,60,0
253.11215,253.27882,61,60,0
253.27882,253.4455,58,60,0
253.4455,253.61215,61,60,0
253.61215,253.77536,67,60,0
253.77882,253.9455,60,60,0
253.9455,254.11215,63,62,0
254.11215,254.27882,67,64,0
254.27882,254.4455,60,66,0
254.4455,254.61215,68,68,0
254.61215,254.77882,72,71,0
254.77882,254.9455,68,74,0
254.9455,255.11215,72,77,0
255.11215,255.27534,80,80,0
255.27882,255.4455,60,83,0
255.4455,255.61215,65,86,0
255.61215,255.77882,67,89,0
255.77882,255.9455,60,92,0
255.9455,256.11215,68,92,0
256.11215,256.2788,72,92,0
256.2788,256.4455,68,75,0
256.4455,256.61215,72,75,0
256.61215,256.77536,80,75,0
256.7788,256.9455,56,60,0
256.9455,257.11215,61,60,0
257.11215,257.2788,68,60,0
257.2788,257.4455,62,60,0
257.4455,257.61215,68,62,0
257.61215,257.7788,71,64,0
257.7788,257.9455,62,66,0
257.9455,258.11215,68,68,0
258.11215,258.27536,72,70,0
258.2788,258.4455,63,72,0
258.4455,258.61215,68,74,0
258.61215,258.7788,73,76,0
258.7788,258.9455,63,78,0
258.9455,259.11215,67,80,0
259.11215,259.2788,74,82,0
259.2788,259.4455,63,84,0
259.4455,259.61215,67,86,0
259.61215,259.77536,75,89,0
259.7788,259.9455,63,92,0
259.9455,260.11215,68,92,0
260.11215,260.2788,75,92,0
260.2788,260.4455,63,92,0
260.4455,260.61215,68,92,0
260.61215,260.77536,72,92,0
260.7788,260.9455,63,92,0
260.9455,261.11215,67,87,0
261.11215,261.2788,75,82,0
261.2788,261.4455,63,77,0
261.4455,261.61215,67,72,0
261.61215,261.77536,70,66,0
261.7788,261.9455,66,60,0
261.9455,262.11215,72,60,0
262.11215,262.2788,75,60,0
262.2788,262.4455,68,60,0
262.4455,262.61215,72,60,0
262.61215,262.77533,75,60,0
262.7788,262.9455,72,60,0
262.9455,263.11215,75,60,0
263.11215,263.2788,78,60,0
263.2788,263.4455,75,60,0
263.4455,263.61215,78,60,0
263.61215,263.7788,80,60,0
263.7788,263.9455,78,60,0
263.9455,264.11215,79,60,0
264.11215,264.27533,80,60,0
264.2788,264.4455,79,60,0
264.4455,264.61215,80,60,0
264.61215,264.7788,79,60,0
264.7788,264.9455,80,60,0
264.9455,265.11215,82,60,0
265.11215,265.2788,80,60,0
265.2788,265.4455,79,60,0
265.4455,265.61215,80,60,0
265.61215,265.77533,79,60,0
265.7788,265.94547,80,60,0
265.94547,266.11215,82,60,0
266.11215,266.2788,80,60,0
266.2788,266.44547,77,60,0
266.44547,266.61215,78,60,0
266.61215,266.7788,77,60,0
266.7788,266.94547,80,60,0
266.94547,267.11215,82,60,0
267.11215,267.27533,80,60,0
267.2788,267.44547,77,60,0
267.44547,267.61215,78,60,0
267.61215,267.7788,77,60,0
267.7788,267.94547,83,60,0
267.94547,268.11215,85,60,0
268.11215,268.2788,83,60,0
268.2788,268.44547,80,60,0
268.44547,268.61215,82,60,0
268.61215,268.77533,80,60,0
268.7788,268.94547,78,60,0
268.94547,269.11215,80,60,0
269.11215,269.2788,78,60,0
269.2788,269.44547,78,60,0
269.44547,269.61215,80,60,0
269.61215,269.7788,78,60,0
269.7788,269.94547,77,60,0
269.94547,270.11215,78,60,0
270.11215,270.2788,77,60,0
270.2788,270.44547,75,60,0
270.44547,270.61215,77,60,0
270.61215,270.7788,73,60,0
270.7788,270.94547,72,60,0
270.94547,271.11215,73,60,0
271.11215,271.2788,72,60,0
271.2788,271.44547,75,60,0
271.44547,271.61215,77,60,0
271.61215,271.77533,75,60,0
272.11215,272.2788,60,60,0
272.2788,272.44547,63,60,0
272.44547,272.61215,68,60,0
272.61215,272.7788,72,60,0
272.7788,272.94547,75,60,0
272.94547,273.11215,77,60,0
273.11215,273.2788,75,60,0
273.2788,273.44547,72,60,0
273.44547,273.61215,73,60,0
273.61215,273.7788,72,60,0
273.7788,273.94547,75,60,0
273.94547,274.11215,77,60,0
274.11215,274.2788,75,60,0
274.2788,274.44547,72,60,0
274.44547,274.61215,73,60,0
274.61215,274.77533,72,60,0
274.7788,274.94547,78,60,0
274.94547,275.11215,80,60,0
275.11215,275.2788,78,60,0
275.2788,275.44547,75,60,0
275.44547,275.61215,77,60,0
275.61215,275.7788,75,60,0
275.7788,275.94547,78,60,0
275.94547,276.11212,80,60,0
276.11212,276.27533,78,60,0
276.2788,276.44547,77,60,0
276.44547,276.61212,78,61,0
276.61212,276.7788,77,62,0
276.7788,276.94547,79,63,0
276.94547,277.11212,80,64,0
277.11212,277.2788,79,66,0
277.2788,277.44547,80,68,0
277.44547,277.61212,82,70,0
277.61212,277.7788,80,72,0
277.7788,277.94547,82,74,0
277.94547,278.11212,84,76,0
278.11212,278.2788,86,78,0
278.2788,278.44547,87,80,0
278.44547,278.61212,86,82,0
278.61212,278.7788,87,84,0
278.7788,278.94547,84,86,0
278.94547,279.11212,82,88,0
279.11212,279.27533,84,90,0
279.2788,279.44547,85,92,0
279.44547,279.61212,80,92,0
279.61212,279.7788,77,88,0
279.7788,279.94547,73,84,0
279.94547,280.11212,68,80,0
280.11212,280.27533,65,75,0
281.2788,281.44547,77,60,0
281.2788,281.44547,80,60,0
281.44547,281.61212,68,60,0
281.61212,281.77533,77,60,0
281.61212,281.77533,80,60,0
282.2788,282.44547,77,60,0
282.2788,282.44547,80,60,0
282.44547,282.61212,68,60,0
282.61212,282.77533,77,60,0
282.61212,282.77533,80,60,0
283.2788,283.44547,75,60,0
283.2788,283.44547,83,60,0
283.44547,283.61212,71,60,0
283.61212,283.77533,75,60,0
283.61212,283.77533,83,60,0
284.2788,284.44547,80,60,0
284.2788,284.44547,83,60,0
284.44547,284.61212,71,61,0
284.61212,284.77533,80,62,0
284.61212,284.77533,83,62,0
285.2788,285.44547,80,67,0
285.2788,285.44547,83,67,0
285.44547,285.61212,71,68,0
285.61212,285.77533,80,69,0
285.61212,285.77533,83,69,0
286.27878,286.44547,78,75,0
286.27878,286.44547,86,75,0
286.44547,286.61212,74,75,0
286.61212,286.77533,78,75,0
286.61212,286.77533,86,75,0
287.27878,287.44547,83,75,0
287.27878,287.44547,86,75,0
287.44547,287.61212,74,75,0
287.61212,287.77533,83,75,0
287.61212,287.77533,86,75,0
288.27878,288.44547,83,75,0
288.27878,288.44547,86,75,0
288.44547,288.61212,74,75,0
288.61212,288.77533,83,77,0
288.61212,288.77533,86,77,0
289.27878,289.44547,86,85,0
289.27878,289.44547,89,85,0
289.44547,289.61212,77,87,0
289.61212,289.77533,86,89,0
289.61212,289.77533,89,89,0
289.77878,289.94547,92,92,0
289.94547,290.11212,80,92,0
290.11212,290.27878,92,92,0
290.27878,290.44547,77,92,0
290.44547,290.61212,65,92,0
290.61212,290.77878,77,92,0
290.77878,290.94547,80,92,0
290.94547,291.11212,68,92,0
291.11212,291.27533,80,92,0
291.77878,291.94547,68,92,0
291.94547,292.11212,56,92,0
292.11212,292.27533,68,92,0
292.77878,292.94547,92,92,0
292.94547,293.11212,80,90,0
293.11212,293.27878,92,88,0
293.27878,293.44547,78,86,0
293.44547,293.61212,66,84,0
293.61212,293.77878,78,81,0
293.77878,293.94547,80,78,0
293.94547,294.11212,68,75,0
294.11212,294.2753,80,72,0
294.77878,294.94547,68,60,0
294.94547,295.11212,56,60,0
295.11212,295.2753,68,60,0
301.87134,302.9757,65,75,0
302.9757,303.20648,63,60,0
303.20648,303.9827,62,60,0
303.9827,304.71,67,45,0
324.38913,324.74207,74,45,0
324.38913,324.74207,79,45,0
324.38913,324.74207,83,45,0
324.74207,324.91852,72,45,0
324.74207,324.91852,79,45,0
324.74207,324.91852,81,45,0
324.91852,325.44794,76,45,0
324.91852,325.44794,79,45,0
324.91852,325.44794,84,45,0
325.44794,325.91852,74,45,0
325.44794,325.91852,79,45,0
325.44794,325.91852,83,45,0
325.97736,326.3303,77,45,0
325.97736,326.3303,79,45,0
325.97736,326.3303,86,45,0
326.3303,326.50677,76,51,0
326.3303,326.50677,79,51,0
326.3303,326.50677,84,51,0
326.50677,327.03616,79,54,0
326.50677,327.03616,84,54,0
326.50677,327.03616,88,54,0
327.03616,327.50677,77,63,0
327.03616,327.50677,83,63,0
327.03616,327.50677,86,63,0
327.56558,328.095,83,72,0
327.56558,328.095,86,72,0
327.56558,328.095,93,72,0
328.095,328.62442,84,82,0
328.095,328.62442,88,82,0
328.095,328.62442,91,82,0
328.62442,329.1538,81,92,0
328.62442,329.1538,84,92,0
328.62442,329.1538,90,92,0
329.1538,329.68323,80,75,0
329.1538,329.68323,84,75,0
329.1538,329.68323,89,75,0
329.68323,330.1538,77,60,0
329.68323,330.1538,83,60,0
329.68323,330.1538,86,60,0
331.095,331.27145,67,60,0
331.095,331.27145,75,60,0
331.27145,331.62442,65,60,0
331.27145,331.62442,74,60,0
331.62442,331.80087,63,60,0
331.62442,331.80087,72,60,0
331.80087,332.3303,62,60,0
331.80087,332.3303,71,60,0
332.3303,332.62442,63,60,0
332.3303,332.62442,72,60,0
332.68323,332.8597,67,60,0
332.68323,332.8597,75,60,0
332.8597,333.21265,65,60,0
332.8597,333.21265,74,60,0
333.21265,333.3891,63,60,0
333.21265,333.3891,72,60,0
333.3891,333.91852,62,60,0
333.3891,333.91852,71,60,0
333.91852,334.21265,63,60,0
333.91852,334.21265,72,60,0
334.27145,334.44794,63,60,0
334.27145,334.44794,72,60,0
334.44794,334.80087,65,60,0
334.44794,334.80087,74,60,0
334.80087,334.97736,67,60,0
334.80087,334.97736,76,60,0
334.97736,335.3303,68,60,0
334.97736,335.3303,77,60,0
335.3303,335.50308,70,60,0
335.3303,335.50308,79,60,0
335.50674,335.97736,72,60,0
335.50674,335.97736,80,60,0
336.03616,336.3891,70,60,0
336.03616,336.3891,79,60,0
336.3891,336.5619,68,60,0
336.3891,336.5619,77,60,0
336.56558,337.095,67,60,0
336.56558,337.095,75,60,0
337.095,337.3891,65,60,0
337.095,337.3891,74,60,0
337.44794,337.6244,67,60,0
337.44794,337.6244,75,60,0
337.6244,337.97736,65,60,0
337.6244,337.97736,74,60,0
337.97736,338.1538,63,60,0
337.97736,338.1538,72,60,0
338.1538,338.68323,62,60,0
338.1538,338.68323,71,60,0
338.68323,338.97736,63,60,0
338.68323,338.97736,72,60,0
339.03616,339.21265,68,60,0
339.03616,339.21265,77,60,0
339.21265,339.56558,66,60,0
339.21265,339.56558,75,60,0
339.56558,339.73837,65,60,0
339.56558,339.73837,73,60,0
339.74203,340.21265,65,60,0
339.74203,340.21265,73,60,0
340.6244,340.80087,68,60,0
340.6244,340.80087,77,60,0
340.80087,341.1538,66,60,0
340.80087,341.1538,75,60,0
341.1538,341.3303,65,60,0
341.1538,341.3303,73,60,0
341.3303,341.8597,63,60,0
341.3303,341.8597,72,60,0
341.8597,342.1538,65,60,0
341.8597,342.1538,73,60,0
342.21265,342.3891,72,60,0
342.21265,342.3891,80,60,0
342.3891,342.74203,70,60,0
342.3891,342.74203,79,60,0
342.74203,342.91486,69,60,0
342.74203,342.91486,78,60,0
342.91852,343.3891,69,60,0
342.91852,343.3891,78,60,0
343.80087,343.97736,66,60,0
343.80087,343.97736,74,60,0
343.97736,344.3303,67,64,0
343.97736,344.3303,76,64,0
344.3303,344.50674,69,73,0
344.3303,344.50674,78,73,0
344.50674,344.85968,70,77,0
344.50674,344.85968,79,77,0
344.85968,345.03616,72,87,0
344.85968,345.03616,81,87,0
345.03616,345.56558,73,92,0
345.03616,345.56558,82,92,0
345.56558,346.03616,67,60,0
345.56558,346.03616,73,60,0
346.095,346.56558,66,60,0
346.095,346.56558,74,60,0
346.97733,347.1538,66,60,0
346.97733,347.1538,74,60,0
347.1538,347.50674,67,60,0
347.1538,347.50674,76,60,0
347.50674,347.67953,69,60,0
347.50674,347.67953,78,60,0
347.68323,348.03616,70,60,0
347.68323,348.03616,79,60,0
348.03616,348.21265,72,75,0
348.03616,348.21265,81,75,0
348.21265,348.56558,73,92,0
348.21265,348.56558,82,92,0
348.56558,348.73837,67,60,0
348.56558,348.73837,73,60,0
348.74203,349.095,66,60,0
348.74203,349.095,74,60,0
349.095,349.2678,60,60,0
349.095,349.2678,66,60,0
349.27145,349.35968,59,45,0
349.27145,349.35968,67,45,0
349.80087,349.8891,55,45,0
349.80087,349.8891,67,45,0
350.85968,350.94794,55,45,0
350.85968,350.94794,67,45,0
351.3891,351.47733,55,49,0
351.3891,351.47733,67,49,0
352.44794,352.53616,55,58,0
352.97733,353.06558,55,63,0
354.03616,354.1244,55,75,0
354.56558,354.6538,55,60,0
356.1538,356.68323,76,60,0
356.1538,356.68323,79,60,0
356.1538,356.68323,85,60,0
356.68323,357.21262,77,65,0
356.68323,357.21262,80,65,0
356.68323,357.21262,84,65,0
357.21262,357.74203,74,70,0
357.21262,357.74203,77,70,0
357.21262,357.74203,83,70,0
357.74203,358.27145,73,75,0
357.74203,358.27145,77,75,0
357.74203,358.27145,82,75,0
358.27145,358.74203,72,60,0
358.27145,358.74203,76,60,0
358.27145,358.74203,79,60,0
359.33026,359.50674,61,60,0
359.50674,359.68323,59,60,0
359.68323,359.85602,60,60,0
360.91852,361.09497,61,60,0
361.09497,361.27145,59,60,0
361.27145,361.44424,60,60,0
362.50674,362.68323,63,60,0
362.68323,362.85968,60,60,0
362.85968,363.03247,61,60,0
364.09497,364.27145,61,60,0
364.27145,364.4479,59,60,0
364.4479,364.62073,60,60,0
365.1538,365.33026,56,60,0
365.33026,365.50674,60,60,0
365.50674,365.68323,68,60,0
365.68323,365.85968,58,60,0
365.85968,366.03616,60,60,0
366.03616,366.21262,64,60,0
366.21262,366.3891,53,60,0
366.3891,366.56555,60,60,0
366.56555,366.74203,65,60,0
366.74203,366.91852,53,60,0
366.91852,367.09497,61,60,0
367.09497,367.27145,65,60,0
367.27145,367.4479,53,60,0
367.4479,367.6244,61,60,0
367.6244,367.80087,65,60,0
367.80087,367.97733,53,60,0
367.97733,368.1538,62,70,0
368.1538,368.3266,65,81,0
368.33026,368.50674,56,92,0
368.50674,368.6832,62,92,0
368.6832,368.85968,65,86,0
368.85968,369.03616,62,80,0
369.03616,369.21262,65,74,0
369.21262,369.3891,68,67,0
369.3891,369.56555,56,60,0
369.56555,369.74203,62,60,0
369.74203,369.91483,65,60,0
369.91852,370.09497,55,60,0
370.09497,370.27145,64,60,0
370.27145,370.4479,67,60,0
370.4479,370.6244,76,60,0
370.6244,370.80087,79,60,0
370.80087,370.9332,84,60,0
370.9332,370.97733,87,60,0
370.97733,371.15012,85,60,0
371.33026,371.50305,72,60,0
371.33026,371.50305,84,60,0
371.50674,372.3854,73,60,0
371.50674,372.3854,85,60,0
372.3891,372.56555,72,60,0
372.3891,372.56555,84,60,0
372.56555,372.73834,68,60,0
372.56555,372.73834,80,60,0
372.91852,373.09497,70,60,0
372.91852,373.09497,82,60,0
373.09497,373.56555,67,60,0
373.09497,373.56555,79,60,0
373.97733,374.10968,72,60,0
373.97733,374.10968,84,60,0
374.10968,374.1538,87,60,0
374.1538,374.3266,73,60,0
374.1538,374.3266,85,60,0
374.50674,374.67953,72,75,0
374.50674,374.67953,84,75,0
374.6832,375.5619,75,92,0
374.6832,375.5619,87,92,0
375.56555,375.74203,73,92,0
375.56555,375.74203,85,92,0
375.74203,375.91483,68,75,0
375.74203,375.91483,80,75,0
376.09497,376.26776,70,75,0
376.09497,376.26776,82,75,0
376.27145,376.74203,67,60,0
376.27145,376.74203,79,60,0
377.1538,377.28616,75,60,0
377.1538,377.28616,87,60,0
377.28616,377.33026,91,60,0
377.33026,377.50305,77,60,0
377.33026,377.50305,89,60,0
377.6832,377.856,75,75,0
377.6832,377.856,87,75,0
377.85968,378.1244,84,92,0
377.85968,378.1244,96,92,0
378.1244,378.3854,82,75,0
378.1244,378.3854,94,75,0
378.3891,378.6538,80,60,0
378.3891,378.6538,92,60,0
378.6538,378.91483,79,60,0
378.6538,378.91483,91,60,0
378.9185,379.1832,80,60,0
378.9185,379.1832,92,60,0
379.1832,379.44424,78,60,0
379.1832,379.44424,90,60,0
379.4479,379.71262,76,60,0
379.4479,379.71262,88,60,0
379.71262,379.97363,77,60,0
379.71262,379.97363,89,60,0
379.97733,380.24203,68,60,0
379.97733,380.24203,80,60,0
380.24203,380.50305,70,60,0
380.24203,380.50305,82,60,0
380.50674,381.29718,71,60,0
380.50674,381.29718,83,60,0
381.30084,381.56555,70,60,0
381.30084,381.56555,82,60,0
381.56555,381.83026,73,60,0
381.56555,381.83026,85,60,0
381.83026,382.09497,70,60,0
381.83026,382.09497,82,60,0
382.09497,382.35968,68,60,0
382.09497,382.35968,80,60,0
382.35968,382.6207,70,75,0
382.35968,382.6207,82,75,0
382.6244,382.8891,71,92,0
382.6244,382.8891,83,92,0
382.8891,383.15378,70,92,0
382.8891,383.15378,82,92,0
383.15378,383.4185,78,92,0
383.15378,383.4185,90,92,0
383.4185,383.6832,70,92,0
383.4185,383.6832,82,92,0
383.6832,383.9479,68,92,0
383.6832,383.9479,80,92,0
383.9479,384.20895,71,92,0
383.9479,384.20895,83,92,0
384.21262,385.09128,72,92,0
384.21262,385.09128,84,92,0
385.09497,385.27145,72,60,0
385.09497,385.27145,80,60,0
385.27145,385.44424,73,60,0
385.27145,385.44424,82,60,0
385.6244,385.80084,70,60,0
385.6244,385.80084,79,60,0
385.80084,386.09497,68,60,0
385.80084,386.09497,77,60,0
388.27142,388.4479,72,60,0
388.27142,388.4479,80,60,0
388.4479,388.80084,70,60,0
388.4479,388.80084,79,60,0
388.80084,388.97733,68,81,0
388.80084,388.97733,77,81,0
388.97733,389.50674,67,92,0
388.97733,389.50674,76,92,0
389.50674,389.80084,68,60,0
389.50674,389.80084,77,60,0
391.4479,391.6244,77,60,0
391.4479,391.6244,85,60,0
391.6244,391.97733,73,68,0
391.6244,391.97733,82,68,0
391.97733,392.15012,70,84,0
391.97733,392.15012,79,84,0
392.15378,392.6832,68,92,0
392.15378,392.6832,77,92,0
392.6832,392.97733,67,60,0
392.6832,392.97733,76,60,0
394.6244,394.80084,73,60,0
394.6244,394.80084,82,60,0
394.80084,395.15378,71,60,0
394.80084,395.15378,80,60,0
395.15378,395.32657,70,60,0
395.15378,395.32657,78,60,0
395.33026,395.80084,70,60,0
395.33026,395.80084,78,60,0
397.80084,397.97733,77,60,0
397.80084,397.97733,85,60,0
397.97733,398.33026,75,60,0
397.97733,398.33026,84,60,0
398.33026,398.50305,74,60,0
398.33026,398.50305,83,60,0
398.5067,398.97733,74,60,0
398.5067,398.97733,83,60,0
402.56555,402.742,71,60,0
402.56555,402.742,79,60,0
402.742,403.09497,72,64,0
402.742,403.09497,81,64,0
403.09497,403.26776,74,73,0
403.09497,403.26776,83,73,0
403.27142,403.62436,75,77,0
403.27142,403.62436,84,77,0
403.62436,403.80084,77,87,0
403.62436,403.80084,86,87,0
403.80084,404.33026,78,92,0
403.80084,404.33026,87,92,0
404.33026,405.73834,72,75,0
404.33026,405.73834,78,75,0
408.9185,409.09497,72,60,0
408.9185,409.09497,80,60,0
409.09497,409.4479,73,60,0
409.09497,409.4479,82,60,0
409.4479,409.6207,75,70,0
409.4479,409.6207,84,70,0
409.62436,409.9773,76,75,0
409.62436,409.9773,85,75,0
409.9773,410.15378,78,86,0
409.9773,410.15378,87,86,0
410.15378,410.6832,79,92,0
410.15378,410.6832,88,92,0
410.6832,412.09128,73,75,0
410.6832,412.09128,79,75,0
413.6832,413.856,81,60,0
413.85965,414.15378,80,60,0
413.85965,414.15378,83,60,0
414.21262,414.3854,79,70,0
414.21262,414.3854,85,70,0
414.38907,414.6832,77,75,0
414.38907,414.6832,86,75,0
414.742,414.9148,76,86,0
414.742,414.9148,85,86,0
414.742,414.9148,88,86,0
414.9185,415.38907,77,92,0
414.9185,415.38907,86,92,0
414.9185,415.38907,89,92,0
415.4479,415.9185,78,92,0
415.4479,415.9185,86,92,0
415.4479,415.9185,90,92,0
415.9773,416.27142,79,92,0
415.9773,416.27142,86,92,0
415.9773,416.27142,91,92,0
416.5067,416.80084,80,92,0
416.5067,416.80084,83,92,0
416.5067,416.80084,86,92,0
416.5067,416.80084,92,92,0
418.09494,418.38907,68,92,0
418.09494,418.38907,71,92,0
418.09494,418.38907,74,92,0
418.09494,418.38907,80,92,0
419.6832,419.9773,68,92,0
419.6832,419.9773,71,92,0
419.6832,419.9773,75,92,0
419.6832,419.9773,80,92,0
421.27142,421.56555,68,92,0
421.27142,421.56555,71,92,0
421.27142,421.56555,77,92,0
421.27142,421.56555,80,92,0
421.80084,422.09494,67,92,0
421.80084,422.09494,72,92,0
421.80084,422.09494,75,92,0
421.80084,422.09494,79,92,0
422.85965,423.03613,68,92,0
423.03613,423.2126,66,92,0
423.2126,423.38907,67,92,0
423.38907,423.56555,62,92,0
423.56555,423.742,59,92,0
423.742,423.9148,55,92,0
424.44788,424.62436,70,92,0
424.62436,424.80084,67,90,0
424.80084,424.9773,68,88,0
424.9773,425.15378,63,86,0
425.15378,425.33023,60,84,0
425.33023,425.50305,56,82,0
426.03613,426.2126,68,74,0
426.2126,426.38907,66,72,0
426.38907,426.56552,67,70,0
426.56552,426.742,62,68,0
426.742,426.9185,59,66,0
426.9185,427.09128,55,63,0
427.09494,427.27142,63,60,0
427.27142,427.44788,67,60,0
427.44788,427.62436,75,60,0
427.62436,427.80084,65,60,0
427.80084,427.9773,67,60,0
427.9773,428.15378,71,60,0
428.15378,428.33023,60,60,0
428.33023,428.5067,67,60,0
428.5067,428.6795,72,60,0
428.6832,428.85965,60,60,0
428.85965,429.03613,65,63,0
429.03613,429.2126,68,66,0
429.2126,429.38907,56,69,0
429.38907,429.56552,60,72,0
429.56552,429.742,68,76,0
429.742,429.9185,57,80,0
429.9185,430.09494,60,84,0
430.09494,430.27142,69,88,0
430.27142,430.44788,57,92,0
430.44788,430.62436,60,92,0
430.62436,430.80084,69,92,0
430.80084,430.9773,57,92,0
430.9773,431.15378,60,92,0
431.15378,431.33023,69,92,0
431.33023,431.5067,60,92,0
431.5067,431.68317,63,82,0
431.68317,431.856,69,71,0
431.85965,432.03613,59,60,0
432.03613,432.2126,62,60,0
432.2126,432.38907,67,60,0
432.38907,432.56552,71,60,0
432.56552,432.742,74,60,0
432.742,432.87436,79,60,0
432.87436,432.9185,83,60,0
432.9185,433.09128,81,60,0
433.27142,433.44788,79,60,0
433.44788,434.32657,81,60,0
434.33023,434.5067,79,60,0
434.5067,434.6795,71,60,0
434.85965,435.03613,72,60,0
435.03613,435.33023,74,60,0
435.9185,436.0508,79,60,0
436.0508,436.09494,83,60,0
436.09494,436.26773,81,60,0
436.44788,436.62436,79,60,0
436.62436,437.50302,82,60,0
437.5067,437.68317,81,60,0
437.68317,437.85596,71,60,0
438.03613,438.2126,72,60,0
438.2126,438.5067,74,60,0
439.09494,439.2273,79,60,0
439.2273,439.27142,83,66,0
439.27142,439.4442,81,68,0
439.62436,439.8008,79,84,0
439.8008,440.06552,76,92,0
439.8008,440.06552,88,92,0
440.06552,440.32657,74,92,0
440.06552,440.32657,86,92,0
440.33023,440.59494,72,92,0
440.33023,440.59494,84,92,0
440.59494,440.85596,71,92,0
440.59494,440.85596,83,92,0
440.85965,441.12436,72,92,0
440.85965,441.12436,84,92,0
441.12436,441.38538,70,92,0
441.12436,441.38538,82,92,0
441.38907,441.65378,68,60,0
441.38907,441.65378,80,60,0
441.65378,441.9148,69,60,0
441.65378,441.9148,81,60,0
441.91846,442.18317,72,60,0
442.18317,442.44788,74,60,0
442.44788,442.91846,69,60,0
442.9773,443.2383,70,60,0
442.44788,443.2383,75,60,0
443.242,443.5067,74,60,0
443.5067,443.77142,77,60,0
443.77142,444.0361,74,60,0
444.0361,444.3008,72,60,0
444.0361,444.56552,69,60,0
444.3008,444.56552,74,60,0
444.56552,444.83023,70,60,0
444.56552,444.83023,75,60,0
444.83023,445.09494,74,75,0
445.09494,445.35965,82,92,0
445.35965,445.62067,74,75,0
445.62436,445.88538,72,60,0
445.88907,446.1501,74,60,0
445.62436,446.62436,69,60,0
446.68317,446.9773,67,60,0
446.68317,446.9773,72,60,0
446.15375,446.9773,75,60,0
447.0361,447.16846,76,60,0
447.16846,447.2126,79,60,0
447.2126,447.38538,71,60,0
447.2126,447.38538,77,60,0
447.56552,447.7383,74,60,0
447.742,448.2714,69,60,0
447.742,448.2714,72,60,0
447.742,448.2714,75,60,0
448.2714,448.56552,67,64,0
448.2714,448.56552,72,64,0
448.62436,448.7567,76,67,0
448.7567,448.8008,79,68,0
448.8008,448.9736,71,68,0
448.8008,448.9736,77,68,0
449.15375,449.32657,74,70,0
449.33023,449.85965,69,71,0
449.33023,449.85965,72,71,0
449.33023,449.85965,75,71,0
449.85965,450.33023,69,76,0
449.85965,450.33023,72,76,0
450.38907,450.91846,69,81,0
450.38907,450.91846,72,81,0
450.38907,450.91846,76,81,0
450.91846,451.2126,69,86,0
450.91846,451.2126,72,86,0
451.40375,451.44788,79,91,0
451.44788,451.9773,69,92,0
451.44788,451.9773,72,92,0
451.44788,451.9773,77,92,0
451.9773,452.33023,65,92,0
451.9773,452.33023,71,92,0
452.33023,452.50302,74,75,0
452.5067,452.8008,64,60,0
452.5067,452.8008,72,60,0
453.0361,453.33023,60,60,0
453.0361,453.33023,72,60,0
454.09494,454.38904,60,60,0
454.09494,454.38904,72,60,0
454.62436,454.91846,60,60,0
454.62436,454.91846,72,60,0
455.68317,455.9773,48,60,0
455.68317,455.9773,60,60,0
456.2126,456.50668,48,60,0
456.2126,456.50668,60,60,0
457.2714,457.56552,48,60,0
457.2714,457.56552,60,60,0
457.8008,458.09494,48,60,0
457.8008,458.09494,60,60,0
458.85965,459.15375,48,60,0
458.85965,459.15375,60,60,0
459.38904,459.91846,71,60,0
459.38904,459.91846,74,60,0
459.38904,459.91846,81,60,0
459.91846,460.44788,72,60,0
459.91846,460.44788,76,60,0
459.91846,460.44788,79,60,0
460.44788,460.9773,69,60,0
460.44788,460.9773,72,60,0
460.44788,460.9773,78,60,0
460.9773,461.50668,68,60,0
460.9773,461.50668,72,60,0
460.9773,461.50668,77,60,0
461.50668,461.9773,65,60,0
461.50668,461.9773,71,60,0
461.50668,461.9773,74,60,0
462.0361,462.33023,64,60,0
462.0361,462.33023,72,60,0
462.56552,462.85965,48,60,0
462.56552,462.85965,60,60,0
463.62433,463.91846,48,60,0
463.62433,463.91846,60,60,0
464.15375,464.44788,48,60,0
464.15375,464.44788,60,60,0
465.74197,466.2714,59,92,0
465.74197,466.2714,62,92,0
465.74197,466.2714,69,92,0
466.2714,466.8008,60,92,0
466.2714,466.8008,64,92,0
466.2714,466.8008,67,92,0
466.8008,467.33023,57,84,0
466.8008,467.33023,60,84,0
466.8008,467.33023,66,84,0
467.33023,467.85962,56,76,0
467.33023,467.85962,60,76,0
467.33023,467.85962,65,76,0
467.85962,468.33023,53,68,0
467.85962,468.33023,59,68,0
467.85962,468.33023,62,68,0
468.38904,470.94788,60,60,0
474.2126,474.68317,62,60,0
474.2126,474.68317,65,60,0
474.2126,474.68317,68,60,0
474.2126,474.68317,71,60,0
474.74197,475.0949,64,60,0
474.74197,475.0949,67,60,0
474.74197,475.0949,72,60,0
475.0949,475.2714,67,62,0
475.0949,475.2714,74,62,0
475.8008,476.2714,69,66,0
475.2714,476.2714,72,63,0
475.2714,476.2714,75,63,0
475.8008,476.2714,78,66,0
476.33023,476.62433,67,69,0
476.33023,476.62433,71,69,0
476.33023,476.62433,74,69,0
476.33023,476.62433,79,69,0
477.38904,477.68317,66,75,0
477.38904,477.68317,72,75,0
477.38904,477.68317,78,75,0
478.44788,478.74197,65,81,0
478.44788,478.74197,72,81,0
478.44788,478.74197,77,81,0
479.50668,479.8008,64,88,0
479.50668,479.8008,72,88,0
479.50668,479.8008,76,88,0
480.0361,481.0949,68,92,0
480.0361,481.0949,72,92,0
480.0361,481.0949,75,92,0
480.0361,481.0949,80,92,0
481.0949,481.38904,67,60,0
481.0949,481.38904,76,60,0
481.0949,481.38904,79,60,0
481.62433,482.68317,69,92,0
481.62433,482.68317,72,92,0
481.62433,482.68317,75,92,0
481.62433,482.68317,81,92,0
482.68317,482.97726,67,60,0
482.68317,482.97726,76,60,0
482.68317,482.97726,79,60,0
483.21255,484.2714,56,75,0
483.21255,484.2714,60,75,0
483.21255,484.2714,63,75,0
483.21255,484.2714,68,75,0
484.2714,484.56552,55,60,0
484.2714,484.56552,64,60,0
484.2714,484.56552,67,60,0
484.8008,485.85962,57,75,0
484.8008,485.85962,60,75,0
484.8008,485.85962,63,75,0
484.8008,485.85962,69,75,0
485.85962,486.17212,55,45,0
485.85962,486.17212,64,45,0
485.85962,486.17212,67,45,0
487.0096,487.34296,55,60,0
487.0096,487.34296,60,60,0
487.0096,487.34296,64,60,0
488.25247,488.6206,52,45,0
488.25247,488.6206,60,45,0
490.28726,490.45395,60,45,0
490.45395,490.6206,64,45,0
490.6206,490.78726,67,45,0
490.78726,490.95395,69,45,0
490.95395,491.11713,67,45,0
491.45395,491.6206,64,45,0
491.6206,491.78726,67,45,0
491.78726,491.95395,72,45,0
491.95395,492.1206,76,45,0
492.1206,492.28726,79,45,0
492.28726,492.45395,81,45,0
492.45395,492.61713,79,45,0
492.95395,493.1206,76,45,0
493.1206,493.28726,79,45,0
493.28726,493.45395,84,45,0
493.45395,493.6206,88,45,0
493.6206,493.78726,91,45,0
493.78726,493.95395,93,45,0
493.95395,494.11713,91,45,0
494.6206,494.78726,91,45,0
494.78726,494.95395,93,45,0
494.95395,495.11713,91,45,0
495.6206,495.78726,91,45,0
495.78726,495.95395,93,45,0
495.95395,496.11713,91,45,0
496.6206,496.78726,94,45,0
496.78726,496.95395,96,45,0
496.95395,497.11713,94,45,0
497.6206,497.78726,93,45,0
497.78726,497.95395,94,45,0
497.95395,498.11713,93,45,0
498.6206,498.78726,91,45,0
498.78726,498.95395,93,45,0
498.95395,499.11713,91,45,0
499.6206,499.78726,79,45,0
499.78726,499.95395,81,45,0
499.95395,500.11713,79,45,0
500.6206,500.78726,67,45,0
500.78726,500.95392,69,46,0
500.95392,501.11713,67,47,0
501.6206,501.78726,67,53,0
501.78726,501.95392,69,55,0
501.95392,502.11713,67,57,0
502.6206,502.78726,55,65,0
502.78726,502.95392,57,67,0
502.95392,503.11713,55,69,0
503.45392,503.6206,52,75,0
503.6206,503.78726,55,75,0
503.78726,503.95392,60,75,0
503.95392,504.1206,64,75,0
504.1206,504.28726,67,75,0
504.28726,504.45392,72,75,0
504.45392,504.61713,76,75,0
504.95392,505.1206,60,60,0
505.1206,505.28726,64,60,0
505.28726,505.45392,67,60,0
505.45392,505.6206,72,60,0
505.6206,505.78726,76,60,0
505.78726,505.95392,79,60,0
505.95392,506.11713,84,60,0
506.4956,506.6831,67,60,0
506.6831,506.8706,72,60,0
506.8706,507.08487,76,60,0
507.08487,507.29916,79,60,0
507.29916,507.51346,84,60,0
507.51346,507.72772,88,60,0
507.72772,507.93756,91,60,0
508.24203,508.8358,84,60,0
508.31702,508.8358,88,60,0
508.39203,508.8358,91,60,0
508.467,508.8358,96,60,0
21.17646,21.529402,62,45,0
21.17646,21.529402,67,45,0
21.17646,21.529402,71,45,0
21.529402,21.705872,60,45,0
21.529402,21.705872,67,45,0
21.529402,21.705872,69,45,0
21.705872,22.235283,64,45,0
21.705872,22.235283,67,45,0
21.705872,22.235283,72,45,0
22.235283,22.705872,62,45,0
22.235283,22.705872,67,45,0
22.235283,22.705872,71,45,0
22.764694,23.117636,65,45,0
22.764694,23.117636,67,45,0
22.764694,23.117636,74,45,0
23.117636,23.294106,64,55,0
23.117636,23.294106,67,55,0
23.117636,23.294106,72,55,0
23.294106,23.823517,67,60,0
23.294106,23.823517,72,60,0
23.294106,23.823517,76,60,0
23.823517,24.294106,65,75,0
23.823517,24.294106,71,75,0
23.823517,24.294106,74,75,0
24.352928,24.882341,71,75,0
24.352928,24.882341,74,75,0
24.352928,24.882341,81,75,0
24.882341,25.411753,72,68,0
24.882341,25.411753,76,68,0
24.882341,25.411753,79,68,0
25.411753,25.952192,69,61,0
25.411753,25.952192,72,61,0
25.411753,25.952192,78,61,0
25.952192,26.539694,68,53,0
25.952192,26.539694,72,53,0
25.952192,26.539694,77,53,0
26.539694,27.11112,65,45,0
26.539694,27.11112,71,45,0
26.539694,27.11112,74,45,0
28.064901,28.241373,55,60,0
28.064901,28.241373,63,60,0
28.241373,28.594313,53,60,0
28.241373,28.594313,62,60,0
28.594313,28.770784,51,81,0
28.594313,28.770784,60,81,0
28.770784,29.300196,50,92,0
28.770784,29.300196,59,92,0
29.300196,29.594313,51,60,0
29.300196,29.594313,60,60,0
29.653137,29.829607,55,60,0
29.653137,29.829607,63,60,0
29.829607,30.182549,53,68,0
29.829607,30.182549,62,68,0
30.182549,30.359018,51,84,0
30.182549,30.359018,60,84,0
30.359018,30.88843,50,92,0
30.359018,30.88843,59,92,0
30.88843,31.182547,51,60,0
30.88843,31.182547,60,60,0
31.241371,31.417841,51,60,0
31.241371,31.417841,60,60,0
31.417841,31.770782,53,60,0
31.417841,31.770782,62,60,0
31.770782,31.943577,55,60,0
31.770782,31.943577,64,60,0
31.947252,32.300194,56,60,0
31.947252,32.300194,65,60,0
32.300194,32.476665,58,60,0
32.300194,32.476665,67,60,0
32.476665,32.947254,60,60,0
32.476665,32.947254,68,60,0
33.006077,33.359016,58,60,0
33.006077,33.359016,67,60,0
33.359016,33.53181,56,60,0
33.359016,33.53181,65,60,0
33.53549,34.0649,55,60,0
33.53549,34.0649,63,60,0
34.0649,34.359016,53,60,0
34.0649,34.359016,62,60,0
34.41784,34.59431,55,60,0
34.41784,34.59431,63,60,0
34.59431,34.94725,53,60,0
34.59431,34.94725,62,60,0
34.94725,35.123722,51,60,0
34.94725,35.123722,60,60,0
35.123722,35.653133,50,60,0
35.123722,35.653133,59,60,0
35.653133,35.94725,51,60,0
35.653133,35.94725,60,60,0
36.006073,36.182545,56,60,0
36.006073,36.182545,65,60,0
36.182545,36.535484,54,60,0
36.182545,36.535484,63,60,0
36.535484,36.70828,53,60,0
36.535484,36.70828,61,60,0
36.711956,37.182545,53,60,0
36.711956,37.182545,61,60,0
37.59431,37.77078,56,60,0
37.59431,37.77078,65,60,0
37.77078,38.123722,54,60,0
37.77078,38.123722,63,60,0
38.123722,38.30019,53,60,0
38.123722,38.30019,61,60,0
38.30019,38.8296,51,60,0
38.30019,38.8296,60,60,0
38.8296,39.12372,53,60,0
38.8296,39.12372,61,60,0
39.182545,39.359013,60,60,0
39.182545,39.359013,68,60,0
39.359013,39.711956,58,60,0
39.359013,39.711956,67,60,0
39.711956,39.88475,57,60,0
39.711956,39.88475,66,60,0
39.888424,40.359013,57,60,0
39.888424,40.359013,66,60,0
40.77078,40.94725,54,60,0
40.77078,40.94725,62,60,0
40.94725,41.30019,55,60,0
40.94725,41.30019,64,60,0
41.30019,41.47666,57,60,0
41.30019,41.47666,66,60,0
41.47666,41.8296,58,60,0
41.47666,41.8296,67,60,0
41.8296,42.006073,60,81,0
41.8296,42.006073,69,81,0
42.006073,42.535484,61,92,0
42.006073,42.535484,70,92,0
42.535484,43.00607,55,75,0
42.535484,43.00607,61,75,0
43.064896,43.535484,54,75,0
43.064896,43.535484,62,75,0
43.947247,44.12372,54,75,0
43.947247,44.12372,62,75,0
44.12372,44.476658,55,77,0
44.12372,44.476658,64,77,0
44.476658,44.65313,57,82,0
44.476658,44.65313,66,82,0
44.65313,45.00607,58,84,0
44.65313,45.00607,67,84,0
45.00607,45.18254,60,89,0
45.00607,45.18254,69,89,0
45.18254,45.53548,61,92,0
45.18254,45.53548,70,92,0
45.53548,45.708275,55,75,0
45.53548,45.708275,61,75,0
45.711952,46.06489,54,60,0
45.711952,46.06489,62,60,0
46.06489,46.237686,48,60,0
46.06489,46.237686,54,60,0
46.241364,46.329597,47,60,0
46.241364,46.329597,55,60,0
46.770775,46.85901,43,60,0
47.829597,47.91783,43,60,0
48.35901,48.447247,43,60,0
49.41783,49.50607,31,60,0
49.41783,49.50607,43,60,0
49.947243,50.03548,31,60,0
49.947243,50.03548,43,60,0
51.006065,51.094303,31,60,0
51.006065,51.094303,43,60,0
51.535477,51.623714,31,60,0
51.535477,51.623714,43,60,0
53.123714,53.653126,64,45,0
53.123714,53.653126,67,45,0
53.123714,53.653126,73,45,0
53.653126,54.182537,65,60,0
53.653126,54.182537,68,60,0
53.653126,54.182537,72,60,0
54.182537,54.71195,62,75,0
54.182537,54.71195,65,75,0
54.182537,54.71195,71,75,0
54.71195,55.24136,61,92,0
54.71195,55.24136,65,92,0
54.71195,55.24136,70,92,0
55.24136,55.71195,60,60,0
55.24136,55.71195,64,60,0
55.24136,55.71195,67,60,0
55.77077,55.947243,41,60,0
55.77077,55.947243,49,60,0
55.947243,56.12371,53,60,0
56.12371,56.296505,56,60,0
56.829594,57.006065,56,60,0
57.006065,57.182533,53,60,0
57.182533,57.355328,49,60,0
57.359005,57.535477,40,60,0
57.359005,57.535477,48,60,0
57.535477,57.711945,52,60,0
57.711945,57.88474,55,60,0
58.417828,58.5943,55,60,0
58.5943,58.770767,52,60,0
58.770767,58.94356,48,60,0
58.94724,59.12371,41,60,0
58.94724,59.12371,49,60,0
59.12371,59.300182,53,60,0
59.300182,59.472973,56,60,0
60.00606,60.182533,56,60,0
60.182533,60.359005,53,60,0
60.359005,60.5318,49,60,0
60.535473,60.711945,40,60,0
60.535473,60.711945,48,60,0
60.711945,60.888416,52,60,0
60.888416,61.06121,55,60,0
61.594296,61.770767,55,60,0
61.770767,61.94724,52,60,0
61.94724,62.120033,48,60,0
62.123707,62.417828,41,60,0
62.65312,62.94724,43,60,0
63.182533,63.47665,44,60,0
63.711945,64.00606,46,60,0
64.77077,65.30018,34,60,0
64.77077,65.30018,46,60,0
65.30018,66.27077,35,75,0
65.30018,66.27077,47,75,0
66.359,66.82959,35,60,0
66.359,66.82959,47,60,0
66.88841,67.18253,36,60,0
66.88841,67.18253,48,60,0
67.77077,67.903114,72,60,0
67.903114,67.947235,75,60,0
67.947235,68.120026,73,60,0
68.47665,68.653114,41,60,0
68.47665,68.653114,49,60,0
68.653114,68.82959,53,60,0
68.82959,69.00606,56,60,0
68.82959,69.00606,61,60,0
69.00606,69.30018,65,60,0
69.53547,69.82959,56,60,0
69.53547,69.82959,61,60,0
70.06488,70.24135,40,60,0
70.06488,70.24135,48,60,0
70.24135,70.41782,52,60,0
70.41782,70.59429,55,60,0
70.41782,70.59429,60,60,0
70.59429,70.88841,64,60,0
71.1237,71.41782,55,75,0
71.1237,71.41782,60,75,0
71.653114,71.82958,41,92,0
71.653114,71.82958,49,92,0
71.82958,72.00606,53,92,0
72.00606,72.182526,56,92,0
72.00606,72.182526,61,92,0
72.182526,72.47665,65,75,0
72.71194,73.00606,56,60,0
72.71194,73.00606,61,60,0
73.24135,73.41782,39,60,0
73.24135,73.41782,49,60,0
73.41782,73.59429,55,60,0
73.59429,73.77076,58,60,0
73.59429,73.77076,61,60,0
73.77076,74.06488,67,60,0
74.30017,74.59429,58,60,0
74.30017,74.59429,61,60,0
74.82958,75.00606,44,60,0
75.00606,75.182526,51,60,0
75.182526,75.355316,60,60,0
75.35899,75.53547,46,60,0
75.53547,75.71194,51,60,0
75.71194,75.88473,61,60,0
75.888405,76.06488,48,60,0
76.06488,76.24135,56,60,0
76.24135,76.41414,63,60,0
76.417816,76.590614,49,60,0
76.59429,76.76708,56,60,0
76.77076,76.94356,65,60,0
76.94723,77.120026,56,60,0
77.1237,77.29649,65,60,0
77.30017,77.47297,56,60,0
77.653114,77.825905,56,60,0
77.47664,78.00238,50,84,0
77.82958,78.00238,65,60,0
78.00605,78.182526,49,60,0
78.182526,78.35899,58,60,0
78.35899,78.53546,66,60,0
78.53546,78.71194,58,60,0
78.71194,78.888405,66,60,0
78.888405,79.0612,58,60,0
79.24135,79.417816,56,75,0
79.06487,79.590614,50,105,0
79.417816,79.590614,65,75,0
79.59429,79.77076,49,75,0
79.77076,79.94723,58,75,0
79.94723,80.1237,66,75,0
80.1237,80.30017,58,75,0
80.30017,80.47664,66,75,0
80.47664,80.64944,58,75,0
80.82958,81.00605,56,75,0
80.653114,81.17885,50,105,0
81.00605,81.17885,65,75,0
81.182526,81.35899,48,75,0
81.35899,81.53546,56,75,0
81.53546,81.71194,65,75,0
81.71194,81.888405,56,75,0
81.888405,82.06487,65,75,0
82.06487,82.23767,56,75,0
82.24135,82.417816,48,60,0
82.417816,82.594284,55,60,0
82.594284,82.76708,64,60,0
82.77076,83.06487,53,60,0
82.77076,83.06487,56,60,0
82.77076,83.06487,65,60,0
85.24134,85.417816,48,60,0
85.24134,85.417816,56,60,0
85.417816,85.77075,46,60,0
85.417816,85.77075,55,60,0
85.77075,85.94355,44,75,0
85.77075,85.94355,53,75,0
85.94723,86.47664,41,92,0
85.94723,86.47664,43,92,0
85.94723,86.47664,52,92,0
86.47664,86.77075,44,60,0
86.47664,86.77075,53,60,0
88.417816,88.594284,53,60,0
88.417816,88.594284,61,60,0
88.594284,88.94723,49,63,0
88.594284,88.94723,58,63,0
88.94723,89.12002,46,71,0
88.94723,89.12002,55,71,0
89.123695,89.65311,48,75,0
89.123695,89.65311,53,75,0
89.123695,89.65311,56,75,0
89.65311,89.94723,52,45,0
89.65311,89.94723,55,45,0
91.594284,91.77075,49,60,0
91.594284,91.77075,58,60,0
91.77075,92.123695,47,60,0
91.77075,92.123695,56,60,0
92.123695,92.296486,46,60,0
92.123695,92.296486,54,60,0
92.30016,92.77075,42,60,0
92.30016,92.77075,46,60,0
92.30016,92.77075,54,60,0
94.77075,94.94722,53,60,0
94.77075,94.94722,61,60,0
94.94722,95.30016,51,60,0
94.94722,95.30016,60,60,0
95.30016,95.47295,50,60,0
95.30016,95.47295,59,60,0
95.47663,95.94722,43,60,0
95.47663,95.94722,50,60,0
95.47663,95.94722,59,60,0
99.53545,99.71192,59,60,0
99.53545,99.71192,67,60,0
99.71192,100.064865,60,64,0
99.71192,100.064865,69,64,0
100.064865,100.23766,62,73,0
100.064865,100.23766,71,73,0
100.24133,100.53545,63,77,0
100.24133,100.53545,72,77,0
100.59428,100.767075,65,87,0
100.59428,100.767075,74,87,0
100.770744,101.24133,66,92,0
100.770744,101.24133,75,92,0
101.30016,102.708244,60,75,0
101.30016,102.708244,66,75,0
105.88839,106.064865,60,60,0
105.88839,106.064865,68,60,0
106.064865,106.4178,61,60,0
106.064865,106.4178,70,60,0
106.4178,106.5906,63,70,0
106.4178,106.5906,72,70,0
106.59428,106.94721,64,75,0
106.59428,106.94721,73,75,0
106.94721,107.12369,66,86,0
106.94721,107.12369,75,86,0
107.12369,107.6531,67,92,0
107.12369,107.6531,76,92,0
107.6531,109.06119,61,75,0
107.6531,109.06119,67,75,0
110.6531,110.82589,69,60,0
110.82957,111.12369,68,60,0
110.82957,111.12369,71,60,0
111.18251,111.3553,67,67,0
111.18251,111.3553,73,67,0
111.35898,111.6531,65,70,0
111.35898,111.6531,74,70,0
111.71192,111.88471,64,77,0
111.71192,111.88471,73,77,0
111.88839,112.35898,62,80,0
111.88839,112.35898,74,80,0
112.4178,112.88839,60,92,0
112.4178,112.88839,62,92,0
112.4178,112.88839,72,92,0
112.94721,113.24133,59,92,0
112.94721,113.24133,62,92,0
112.94721,113.24133,71,92,0
113.47662,113.770744,53,92,0
113.47662,113.770744,56,92,0
113.47662,113.770744,59,92,0
113.47662,113.770744,62,92,0
113.47662,113.770744,65,92,0
115.06486,115.35898,53,92,0
115.06486,115.35898,56,92,0
115.06486,115.35898,59,92,0
115.06486,115.35898,62,92,0
115.06486,115.35898,65,92,0
116.65309,116.94721,51,92,0
116.65309,116.94721,56,92,0
116.65309,116.94721,59,92,0
116.65309,116.94721,63,92,0
118.241325,118.535446,50,92,0
118.241325,118.535446,53,92,0
118.241325,118.535446,59,92,0
118.241325,118.535446,62,92,0
118.77074,119.06486,51,92,0
118.77074,119.06486,55,92,0
118.77074,119.06486,60,92,0
118.77074,119.06486,63,92,0
119.30015,119.47662,35,92,0
119.30015,119.47662,47,92,0
119.47662,119.65309,50,92,0
119.65309,119.82588,55,92,0
120.88838,121.06486,36,92,0
120.88838,121.06486,48,92,0
121.06486,121.241325,51,92,0
121.241325,121.41412,56,92,0
122.476616,122.65309,35,75,0
122.476616,122.65309,47,75,0
122.65309,122.82956,50,75,0
122.82956,123.00236,55,75,0
124.06486,124.32956,36,75,0
124.32956,124.59059,48,75,0
124.59427,124.85897,38,75,0
124.85897,125.12,50,75,0
125.12368,125.38838,39,75,0
125.38838,125.649414,51,75,0
125.65309,125.91779,41,75,0
125.91779,126.178825,53,75,0
126.1825,126.447205,41,75,0
126.447205,126.70824,53,75,0
126.711914,126.976616,41,75,0
126.976616,127.23765,53,75,0
127.241325,127.50603,42,75,0
127.50603,127.76706,54,73,0
128.30014,128.56485,30,66,0
128.56485,128.82588,42,63,0
128.82956,129.09059,31,60,0
129.09427,129.35529,43,60,0
129.71191,129.84427,67,60,0
129.84427,129.88838,71,60,0
129.88838,130.06117,69,60,0
130.24132,130.41779,67,60,0
130.41779,131.29646,69,60,0
131.30014,131.47661,67,60,0
131.47661,131.64941,59,60,0
131.82956,132.00603,60,60,0
132.00603,132.30014,62,60,0
132.88838,133.02074,67,60,0
133.02074,133.06485,71,60,0
133.06485,133.23764,69,60,0
133.41779,133.59059,67,60,0
133.59425,134.47293,70,60,0
134.47661,134.65309,69,60,0
134.65309,134.82588,59,60,0
135.00603,135.1825,60,60,0
135.1825,135.47661,62,60,0
136.06485,136.1972,67,60,0
136.1972,136.24132,71,60,0
136.24132,136.41411,69,60,0
136.59425,136.76706,67,60,0
136.77074,136.9472,48,60,0
136.9472,137.12367,55,60,0
137.12367,137.29646,64,60,0
137.30014,137.47661,50,60,0
137.47661,137.65308,55,60,0
137.65308,137.82588,65,60,0
137.82956,138.00603,52,60,0
138.00603,138.1825,60,60,0
138.1825,138.35529,67,60,0
138.53543,138.7119,60,60,0
138.7119,138.88838,65,60,0
138.88838,139.06485,60,60,0
139.06485,139.24132,65,60,0
138.35896,139.32956,53,60,0
139.24132,139.41411,60,60,0
139.59425,139.76706,60,60,0
139.41779,139.94353,54,60,0
139.77072,139.94353,63,60,0
140.12367,140.30014,58,60,0
140.30014,140.47661,62,60,0
140.47661,140.65308,58,60,0
140.65308,140.82954,62,60,0
139.9472,140.91779,53,60,0
140.82954,141.00235,58,60,0
141.1825,141.35896,60,60,0
141.00603,141.53175,54,60,0
141.35896,141.53175,63,60,0
141.7119,141.88838,58,70,0
141.88838,142.06485,62,81,0
142.06485,142.24132,58,92,0
142.24132,142.41779,62,92,0
141.53543,142.50603,53,60,0
142.41779,142.59058,58,92,0
142.77072,142.9472,60,75,0
142.59425,143.12,54,75,0
142.9472,143.12,63,75,0
143.12367,143.30014,60,75,0
143.30014,143.47661,63,75,0
143.47661,143.65308,60,75,0
143.82954,144.00603,60,75,0
143.65308,144.1825,55,75,0
144.00603,144.1825,64,75,0
144.35896,144.53543,62,75,0
144.1825,144.70822,55,75,0
144.53543,144.70822,65,75,0
144.88837,145.06117,60,75,0
144.7119,145.23764,54,75,0
145.06485,145.23764,63,75,0
145.41779,145.59058,60,75,0
145.24132,145.76704,55,75,0
145.59425,145.76704,64,75,0
145.94719,146.12,62,75,0
145.77072,146.29646,55,75,0
146.12367,146.29646,65,75,0
146.47661,146.65308,57,76,0
146.30014,146.82954,54,75,0
146.65308,146.82954,60,77,0
147.00601,147.1825,57,79,0
146.82954,147.35896,53,78,0
147.1825,147.35896,60,80,0
147.53543,147.7119,57,82,0
147.35896,147.88837,52,81,0
147.7119,147.88837,60,84,0
148.06483,148.24132,57,88,0
147.88837,148.41411,50,86,0
148.24132,148.41411,60,90,0
148.41779,148.59425,38,92,0
148.59425,148.77072,45,92,0
148.77072,148.94719,50,92,0
148.94719,149.12367,43,92,0
149.12367,149.30014,50,92,0
149.30014,149.47293,43,75,0
149.47661,149.53543,36,60,0
149.65308,149.7119,36,60,0
149.82954,149.88837,36,60,0
150.00601,150.06483,36,60,0
150.1825,150.24132,36,60,0
150.35896,150.41779,36,60,0
150.53543,150.59425,36,60,0
150.7119,150.77072,36,60,0
150.88837,150.94719,36,60,0
151.06483,151.12366,36,60,0
151.24132,151.30014,36,60,0
151.41779,151.47661,36,60,0
151.59425,151.65308,36,60,0
151.77072,151.82954,36,60,0
151.94719,152.00601,36,60,0
152.12366,152.18248,36,60,0
152.30014,152.35896,36,60,0
152.47661,152.53543,36,60,0
152.65308,152.7119,36,60,0
152.82954,152.88837,36,60,0
153.00601,153.06483,36,60,0
153.18248,153.2413,36,60,0
153.35896,153.41779,36,60,0
153.53543,153.59425,36,60,0
153.7119,153.77072,36,60,0
153.88837,153.94719,36,60,0
154.06483,154.12366,36,60,0
154.2413,154.30014,36,60,0
154.41779,154.47661,36,60,0
154.59425,154.65308,36,60,0
154.77072,154.82954,36,60,0
154.94719,155.00601,36,60,0
155.12366,155.18248,36,60,0
155.30013,155.35896,36,60,0
155.47661,155.53543,36,60,0
155.65308,155.7119,36,60,0
155.82954,155.88837,41,60,0
156.00601,156.06483,41,60,0
156.18248,156.2413,41,60,0
156.35896,156.88837,41,75,0
156.88837,157.41779,40,75,0
157.41779,157.94719,39,75,0
157.41779,157.94719,51,75,0
157.94719,158.47661,38,75,0
157.94719,158.47661,50,75,0
158.47661,158.94719,43,75,0
159.00601,159.1788,36,60,0
159.18248,159.35527,36,60,0
159.35895,159.53175,36,60,0
159.53543,159.70822,36,60,0
159.7119,159.88469,36,60,0
159.88837,160.06116,36,60,0
160.06483,160.23763,36,60,0
160.2413,160.4141,36,60,0
160.41777,160.59058,36,60,0
160.59425,160.76704,36,60,0
160.77072,160.94351,36,60,0
160.94719,161.11998,36,60,0
161.12366,161.29645,36,60,0
161.30013,161.47293,36,60,0
161.4766,161.6494,36,60,0
161.65308,161.82587,36,60,0
161.82954,162.00233,36,60,0
162.00601,162.1788,36,60,0
162.18248,162.35527,41,60,0
162.35895,162.53175,41,70,0
162.53542,162.70822,41,81,0
162.7119,163.2413,41,92,0
163.2413,163.77072,40,92,0
163.77072,164.30013,39,84,0
164.30013,164.82954,38,76,0
164.82954,165.30013,31,68,0
164.82954,165.30013,43,68,0
165.35895,165.65306,36,60,0
165.35895,165.65306,46,60,0
165.35895,165.65306,48,60,0
165.35895,165.65306,58,60,0
165.88837,166.18248,36,60,0
165.88837,166.18248,46,60,0
165.88837,166.18248,48,60,0
165.88837,166.18248,58,60,0
166.94719,167.2413,36,60,0
166.94719,167.2413,46,60,0
166.94719,167.2413,48,60,0
166.94719,167.2413,58,60,0
167.4766,167.77072,36,60,0
167.4766,167.77072,46,60,0
167.4766,167.77072,48,60,0
167.4766,167.77072,58,60,0
168.53542,168.82954,36,60,0
168.53542,168.82954,46,60,0
168.53542,168.82954,48,60,0
168.53542,168.82954,58,60,0
169.06483,169.35895,36,60,0
169.06483,169.35895,46,60,0
169.06483,169.35895,48,60,0
169.06483,169.35895,58,60,0
170.12366,170.41777,36,60,0
170.12366,170.41777,45,60,0
170.12366,170.41777,48,60,0
170.12366,170.41777,57,60,0
170.65306,170.94719,36,67,0
170.65306,170.94719,44,67,0
170.65306,170.94719,48,67,0
170.65306,170.94719,56,67,0
171.71188,172.00601,43,83,0
171.71188,172.00601,48,83,0
171.71188,172.00601,55,83,0
172.2413,172.53542,42,92,0
172.2413,172.53542,48,92,0
172.2413,172.53542,54,92,0
173.30013,173.59424,41,60,0
173.30013,173.59424,48,60,0
173.30013,173.59424,53,60,0
174.35895,174.65306,39,75,0
174.35895,174.65306,48,75,0
174.35895,174.65306,51,75,0
175.41777,175.71188,36,92,0
175.41777,175.71188,37,92,0
175.41777,175.71188,49,92,0
176.4766,176.7778,36,60,0
176.4766,176.7778,48,60,0
177.01875,178.10309,54,60,0
177.01875,178.10309,60,60,0
177.01875,178.10309,63,60,0
178.10309,178.41559,55,60,0
178.10309,178.41559,60,60,0
178.10309,178.41559,64,60,0
178.66559,179.79059,54,75,0
178.66559,179.79059,60,75,0
178.66559,179.79059,63,75,0
179.79059,180.12393,55,75,0
179.79059,180.12393,64,75,0
180.3906,181.59059,36,72,0
180.3906,181.59059,42,72,0
181.59059,181.94774,36,66,0
181.59059,181.94774,43,66,0
182.23344,183.41202,36,63,0
182.23344,183.41202,42,63,0
183.51917,183.90378,36,57,0
183.51917,183.90378,43,57,0
184.90378,185.28839,36,51,0
184.90378,185.28839,43,51,0
186.28839,186.673,36,45,0
186.28839,186.673,43,45,0
188.9807,189.14737,32,60,0
189.14737,189.31403,44,60,0
189.31403,189.4807,48,60,0
189.4807,189.64737,51,60,0
189.64737,189.81403,56,60,0
189.81403,189.97723,60,60,0
196.4807,196.64735,39,60,0
196.64735,196.81403,46,60,0
196.81403,196.9807,55,60,0
196.9807,197.14735,58,60,0
197.14735,197.31403,63,60,0
197.31403,197.4807,67,60,0
197.4807,197.64735,70,60,0
197.64735,197.81403,72,60,0
197.81403,197.97722,70,60,0
197.9807,198.14735,67,60,0
198.14735,198.31403,68,60,0
198.31403,198.48068,67,60,0
198.48068,198.64735,70,60,0
198.64735,198.81403,72,60,0
198.81403,198.98068,70,60,0
198.98068,199.14735,67,60,0
199.14735,199.31403,68,60,0
199.31403,199.47722,67,60,0
199.48068,199.64735,73,60,0
199.64735,199.81403,75,60,0
199.81403,199.98068,73,60,0
199.98068,200.14735,70,60,0
200.14735,200.31403,72,60,0
200.31403,200.48068,70,60,0
200.48068,200.64735,73,60,0
200.64735,200.81403,75,60,0
200.81403,200.97722,73,60,0
200.98068,201.14735,72,60,0
201.14735,201.31403,73,61,0
201.31403,201.48068,72,62,0
201.48068,201.64735,74,63,0
201.64735,201.81403,72,64,0
201.81403,201.98068,74,65,0
201.98068,202.14735,75,66,0
202.14735,202.31403,74,67,0
202.31403,202.48068,75,68,0
202.48068,202.64735,77,70,0
202.64735,202.81403,79,72,0
202.81403,202.98068,81,74,0
202.98068,203.14735,82,76,0
203.14735,203.31403,81,78,0
203.31403,203.48068,82,80,0
203.48068,203.64735,79,82,0
203.64735,203.81401,77,84,0
203.81401,203.97722,79,86,0
204.31401,204.48068,76,92,0
204.48068,204.64735,71,92,0
204.64735,204.81401,68,91,0
204.81401,204.98068,64,89,0
204.98068,205.14735,56,87,0
205.14735,205.31401,57,85,0
205.31401,205.4772,56,83,0
205.98068,206.14735,56,75,0
206.14735,206.31401,57,75,0
206.31401,206.4772,56,75,0
206.98068,207.14735,52,75,0
207.14735,207.31401,54,74,0
207.31401,207.4772,52,73,0
207.98068,208.14735,51,69,0
208.14735,208.31401,52,68,0
208.31401,208.4772,51,67,0
208.98068,209.14734,51,62,0
209.14734,209.31401,52,61,0
209.31401,209.4772,51,60,0
209.98068,210.15715,44,55,0
210.15715,210.33362,45,54,0
210.33362,210.50641,44,53,0
211.08656,211.31734,32,45,0
211.31734,211.5481,33,45,0
211.5481,211.77406,32,45,0
212.6122,212.77887,63,60,0
212.77887,213.1122,68,60,0
213.1122,213.27539,72,60,0
213.27887,213.77887,75,60,0
213.77887,214.05664,72,60,0
214.27887,214.77887,75,60,0
214.77887,215.05664,72,60,0
215.27887,215.77887,78,60,0
215.77887,216.05664,75,60,0
216.27887,216.6122,73,60,0
216.6122,216.77887,75,60,0
216.77887,217.27887,73,60,0
217.27887,217.72331,72,60,0
217.77885,218.1122,70,60,0
218.1122,218.27885,68,60,0
218.27885,218.77885,67,60,0
218.77885,219.2233,70,60,0
219.27885,219.7233,63,60,0
220.1122,220.27885,46,75,0
220.27885,220.6122,51,75,0
220.6122,220.77539,55,75,0
220.77885,221.27885,58,75,0
221.27885,221.55664,55,75,0
221.77885,222.27885,58,75,0
222.27885,222.55664,55,75,0
222.77885,223.27885,61,105,0
223.27885,223.55664,58,75,0
223.77885,224.11218,59,75,0
224.11218,224.27885,60,76,0
224.27885,224.77885,61,76,0
224.77885,225.2233,63,78,0
227.11218,227.16774,35,92,0
227.27885,227.33441,40,92,0
228.27885,228.44551,56,60,0
228.44551,228.61218,57,60,0
228.61218,228.77538,56,60,0
229.27885,229.44551,56,75,0
229.44551,229.61218,57,75,0
229.61218,229.77538,56,75,0
230.27885,230.44551,52,75,0
230.44551,230.61218,54,75,0
230.61218,230.77538,52,75,0
230.77885,230.94205,51,75,0
231.27885,231.44551,63,75,0
231.44551,231.61218,64,75,0
231.61218,231.77538,63,75,0
232.27885,232.44551,51,75,0
232.44551,232.61218,52,75,0
232.61218,232.77538,51,75,0
233.27884,233.44551,39,75,0
233.44551,233.61218,40,70,0
233.61218,233.77538,39,65,0
234.27884,234.55663,35,45,0
234.27884,234.55663,47,45,0
234.77884,235.05663,36,45,0
234.77884,235.05663,48,45,0
235.77884,236.05663,35,45,0
235.77884,236.05663,47,45,0
236.27884,236.55663,36,45,0
236.27884,236.55663,48,45,0
237.27884,237.55663,35,45,0
237.27884,237.55663,47,45,0
237.77884,238.05663,36,45,0
237.77884,238.05663,48,45,0
238.77884,239.05663,35,60,0
238.77884,239.05663,47,60,0
239.27884,239.55661,36,60,0
239.27884,239.55661,48,60,0
240.27884,240.55661,37,60,0
240.27884,240.55661,49,60,0
240.77884,241.05661,38,60,0
240.77884,241.05661,50,60,0
241.77884,242.05661,37,60,0
241.77884,242.05661,49,60,0
242.27884,242.55661,36,60,0
242.27884,242.55661,48,60,0
243.27884,243.55661,35,60,0
243.27884,243.55661,47,60,0
243.77884,244.05661,33,70,0
243.77884,244.05661,45,70,0
244.77884,245.05661,32,92,0
244.77884,245.05661,44,92,0
245.77884,246.05661,30,75,0
245.77884,246.05661,42,75,0
246.77884,247.05661,28,60,0
246.77884,247.05661,40,60,0
249.27882,249.55661,39,60,0
249.27882,249.55661,51,60,0
249.77882,250.05661,40,60,0
249.77882,250.05661,52,60,0
250.77882,251.05661,39,60,0
250.77882,251.05661,51,60,0
251.27882,251.55661,40,60,0
251.27882,251.55661,52,60,0
252.27882,252.55661,39,60,0
252.27882,252.55661,51,60,0
252.77882,253.05661,40,60,0
252.77882,253.05661,52,60,0
253.77882,254.05661,39,60,0
253.77882,254.05661,51,60,0
254.27882,254.55661,40,67,0
254.27882,254.55661,52,67,0
255.27882,255.5566,41,83,0
255.27882,255.5566,53,83,0
255.77882,256.0566,42,92,0
255.77882,256.0566,54,92,0
256.7788,257.0566,41,60,0
256.7788,257.0566,53,60,0
257.2788,257.5566,40,60,0
257.2788,257.5566,52,60,0
258.2788,258.5566,39,72,0
258.2788,258.5566,51,72,0
258.7788,259.0566,37,78,0
258.7788,259.0566,49,78,0
259.7788,260.0566,36,92,0
259.7788,260.0566,48,92,0
260.7788,261.0566,34,92,0
260.7788,261.0566,46,92,0
261.7788,262.0566,32,60,0
261.7788,262.0566,44,60,0
271.7788,271.94202,32,60,0
271.94547,272.11215,44,60,0
272.11215,272.2788,48,60,0
272.2788,272.44547,51,60,0
272.44547,272.61215,56,60,0
272.61215,272.7788,60,60,0
272.7788,272.94547,63,60,0
272.94547,273.11215,65,60,0
273.11215,273.2788,63,60,0
273.2788,273.44547,60,60,0
273.44547,273.61215,61,60,0
273.61215,273.7788,60,60,0
273.7788,273.94547,63,60,0
273.94547,274.11215,65,60,0
274.11215,274.2788,63,60,0
274.2788,274.44547,60,60,0
274.44547,274.61215,61,60,0
274.61215,274.77533,60,60,0
274.7788,274.94547,66,60,0
274.94547,275.11215,68,60,0
275.11215,275.2788,66,60,0
275.2788,275.44547,63,60,0
275.44547,275.61215,65,60,0
275.61215,275.7788,63,60,0
275.7788,275.94547,66,60,0
275.94547,276.11212,68,60,0
276.11212,276.27533,66,60,0
276.2788,276.44547,65,60,0
276.44547,276.61212,66,62,0
276.61212,276.7788,65,64,0
276.7788,276.94547,67,66,0
276.94547,277.11212,68,68,0
277.11212,277.2788,67,70,0
277.2788,277.44547,68,72,0
277.44547,277.61212,70,74,0
277.61212,277.7788,68,76,0
277.7788,277.94547,70,78,0
277.94547,278.11212,72,80,0
278.11212,278.2788,74,82,0
278.2788,278.44547,75,84,0
278.44547,278.61212,74,86,0
278.61212,278.7788,75,89,0
278.7788,278.94547,72,92,0
278.94547,279.11212,70,92,0
279.11212,279.27533,72,92,0
280.2788,280.44547,61,75,0
280.44547,280.61212,56,75,0
280.61212,280.77533,53,75,0
280.7788,280.94547,49,60,0
280.94547,281.11212,61,60,0
281.11212,281.27533,49,60,0
281.7788,281.94547,49,60,0
281.94547,282.11212,61,60,0
282.11212,282.27533,49,60,0
282.7788,282.94547,44,60,0
282.94547,283.11212,56,60,0
283.11212,283.27533,44,60,0
283.7788,283.94547,40,60,0
283.94547,284.11212,52,61,0
284.11212,284.27533,40,62,0
284.7788,284.94547,40,67,0
284.94547,285.11212,52,68,0
285.11212,285.27533,40,69,0
285.7788,285.94547,35,75,0
285.94547,286.11212,47,75,0
286.11212,286.27533,35,75,0
286.77878,286.94547,31,75,0
286.94547,287.11212,43,75,0
287.11212,287.27533,31,75,0
287.77878,287.94547,43,75,0
287.94547,288.11212,55,77,0
288.11212,288.27533,43,80,0
288.77878,288.94547,55,92,0
288.94547,289.11212,67,92,0
289.11212,289.27533,55,92,0
291.27878,291.44547,65,92,0
291.44547,291.61212,53,92,0
291.61212,291.77533,65,92,0
292.27878,292.44547,53,92,0
292.44547,292.61212,41,92,0
292.61212,292.7753,53,92,0
294.27878,294.44547,66,60,0
294.44547,294.61212,54,60,0
294.61212,294.7753,66,60,0
295.27878,295.44547,54,60,0
295.44547,295.61212,42,60,0
295.61212,295.7753,54,60,0
301.87134,302.9757,41,75,0
302.9757,303.20648,39,60,0
303.20648,303.9827,38,60,0
303.9827,304.71,43,45,0
324.38913,324.74207,62,45,0
324.38913,324.74207,67,45,0
324.38913,324.74207,71,45,0
324.74207,324.91852,60,45,0
324.74207,324.91852,67,45,0
324.74207,324.91852,69,45,0
324.91852,325.44794,64,45,0
324.91852,325.44794,67,45,0
324.91852,325.44794,72,45,0
325.44794,325.91852,62,45,0
325.44794,325.91852,67,45,0
325.44794,325.91852,71,45,0
325.97736,326.3303,65,45,0
325.97736,326.3303,67,45,0
325.97736,326.3303,74,45,0
326.3303,326.50677,64,51,0
326.3303,326.50677,67,51,0
326.3303,326.50677,72,51,0
326.50677,327.03616,67,54,0
326.50677,327.03616,72,54,0
326.50677,327.03616,76,54,0
327.03616,327.50677,65,63,0
327.03616,327.50677,71,63,0
327.03616,327.50677,74,63,0
327.56558,328.095,71,72,0
327.56558,328.095,74,72,0
327.56558,328.095,81,72,0
328.095,328.62442,72,82,0
328.095,328.62442,76,82,0
328.095,328.62442,79,82,0
328.62442,329.1538,69,92,0
328.62442,329.1538,72,92,0
328.62442,329.1538,78,92,0
329.1538,329.68323,68,75,0
329.1538,329.68323,72,75,0
329.1538,329.68323,77,75,0
329.68323,330.1538,65,60,0
329.68323,330.1538,71,60,0
329.68323,330.1538,74,60,0
331.095,331.27145,55,60,0
331.095,331.27145,63,60,0
331.27145,331.62442,53,60,0
331.27145,331.62442,62,60,0
331.62442,331.80087,51,60,0
331.62442,331.80087,60,60,0
331.80087,332.3303,50,60,0
331.80087,332.3303,59,60,0
332.3303,332.62442,51,60,0
332.3303,332.62442,60,60,0
332.68323,332.8597,55,60,0
332.68323,332.8597,63,60,0
332.8597,333.21265,53,60,0
332.8597,333.21265,62,60,0
333.21265,333.3891,51,60,0
333.21265,333.3891,60,60,0
333.3891,333.91852,50,60,0
333.3891,333.91852,59,60,0
333.91852,334.21265,51,60,0
333.91852,334.21265,60,60,0
334.27145,334.44794,51,60,0
334.27145,334.44794,60,60,0
334.44794,334.80087,53,60,0
334.44794,334.80087,62,60,0
334.80087,334.97736,55,60,0
334.80087,334.97736,64,60,0
334.97736,335.3303,56,60,0
334.97736,335.3303,65,60,0
335.3303,335.50308,58,60,0
335.3303,335.50308,67,60,0
335.50674,335.97736,60,60,0
335.50674,335.97736,68,60,0
336.03616,336.3891,58,60,0
336.03616,336.3891,67,60,0
336.3891,336.5619,56,60,0
336.3891,336.5619,65,60,0
336.56558,337.095,55,60,0
336.56558,337.095,63,60,0
337.095,337.3891,53,60,0
337.095,337.3891,62,60,0
337.44794,337.6244,55,60,0
337.44794,337.6244,63,60,0
337.6244,337.97736,53,60,0
337.6244,337.97736,62,60,0
337.97736,338.1538,51,60,0
337.97736,338.1538,60,60,0
338.1538,338.68323,50,60,0
338.1538,338.68323,59,60,0
338.68323,338.97736,51,60,0
338.68323,338.97736,60,60,0
339.03616,339.21265,56,60,0
339.03616,339.21265,65,60,0
339.21265,339.56558,54,60,0
339.21265,339.56558,63,60,0
339.56558,339.73837,53,60,0
339.56558,339.73837,61,60,0
339.74203,340.21265,53,60,0
339.74203,340.21265,61,60,0
340.6244,340.80087,56,60,0
340.6244,340.80087,65,60,0
340.80087,341.1538,54,60,0
340.80087,341.1538,63,60,0
341.1538,341.3303,53,60,0
341.1538,341.3303,61,60,0
341.3303,341.8597,51,60,0
341.3303,341.8597,60,60,0
341.8597,342.1538,53,60,0
341.8597,342.1538,61,60,0
342.21265,342.3891,60,60,0
342.21265,342.3891,68,60,0
342.3891,342.74203,58,60,0
342.3891,342.74203,67,60,0
342.74203,342.91852,57,60,0
342.74203,342.91852,66,60,0
342.91852,343.3891,57,60,0
342.91852,343.3891,66,60,0
343.80087,343.97736,54,60,0
343.80087,343.97736,62,60,0
343.97736,344.3303,55,64,0
343.97736,344.3303,64,64,0
344.3303,344.50674,57,73,0
344.3303,344.50674,66,73,0
344.50674,344.85968,58,77,0
344.50674,344.85968,67,77,0
344.85968,345.03616,60,87,0
344.85968,345.03616,69,87,0
345.03616,345.56558,61,92,0
345.03616,345.56558,70,92,0
345.56558,346.03616,55,60,0
345.56558,346.03616,61,60,0
346.095,346.56558,54,60,0
346.095,346.56558,62,60,0
346.97733,347.1538,54,60,0
346.97733,347.1538,62,60,0
347.1538,347.50674,55,60,0
347.1538,347.50674,64,60,0
347.50674,347.67953,57,60,0
347.50674,347.67953,66,60,0
347.68323,348.03616,58,60,0
347.68323,348.03616,67,60,0
348.03616,348.21265,60,75,0
348.03616,348.21265,69,75,0
348.21265,348.56558,61,92,0
348.21265,348.56558,70,92,0
348.56558,348.73837,55,60,0
348.56558,348.73837,61,60,0
348.74203,349.095,54,60,0
348.74203,349.095,62,60,0
349.095,349.2678,48,60,0
349.095,349.2678,54,60,0
349.27145,349.35968,47,45,0
349.27145,349.35968,55,45,0
349.80087,349.8891,43,45,0
350.85968,350.94794,43,45,0
351.3891,351.47733,43,49,0
352.44794,352.53616,31,58,0
352.44794,352.53616,43,58,0
352.97733,353.06558,31,63,0
352.97733,353.06558,43,63,0
354.03616,354.1244,31,75,0
354.03616,354.1244,43,75,0
354.56558,354.6538,31,60,0
354.56558,354.6538,43,60,0
356.1538,356.68323,64,60,0
356.1538,356.68323,67,60,0
356.1538,356.68323,73,60,0
356.68323,357.21262,65,65,0
356.68323,357.21262,68,65,0
356.68323,357.21262,72,65,0
357.21262,357.74203,62,70,0
357.21262,357.74203,65,70,0
357.21262,357.74203,71,70,0
357.74203,358.27145,61,75,0
357.74203,358.27145,65,75,0
357.74203,358.27145,70,75,0
358.27145,358.74203,60,60,0
358.27145,358.74203,64,60,0
358.27145,358.74203,67,60,0
358.80087,358.97733,41,60,0
358.80087,358.97733,49,60,0
358.97733,359.1538,53,60,0
359.1538,359.3266,56,60,0
359.85968,360.03616,56,60,0
360.03616,360.21262,53,60,0
360.21262,360.38544,49,60,0
360.3891,360.56558,40,60,0
360.3891,360.56558,48,60,0
360.56558,360.74203,52,60,0
360.74203,360.91483,55,60,0
361.4479,361.6244,55,60,0
361.6244,361.80087,52,60,0
361.80087,361.97366,48,60,0
361.97733,362.1538,41,60,0
361.97733,362.1538,49,60,0
362.1538,362.33026,53,60,0
362.33026,362.50308,56,60,0
363.03616,363.21262,56,60,0
363.21262,363.3891,53,60,0
363.3891,363.5619,49,60,0
363.56558,363.74203,40,60,0
363.56558,363.74203,48,60,0
363.74203,363.91852,52,60,0
363.91852,364.0913,55,60,0
364.6244,364.80087,55,60,0
364.80087,364.97733,52,60,0
364.97733,365.15012,48,60,0
365.1538,365.4479,41,60,0
365.68323,365.97733,43,60,0
366.21262,366.50674,44,60,0
366.74203,367.03616,46,60,0
367.80087,368.27145,34,75,0
367.80087,368.27145,46,75,0
368.33026,369.30087,35,92,0
368.33026,369.30087,47,92,0
369.3891,369.85968,35,60,0
369.3891,369.85968,47,60,0
369.91852,370.21262,36,60,0
369.91852,370.21262,48,60,0
370.80087,370.9332,72,60,0
370.9332,370.97733,75,60,0
370.97733,371.15012,73,60,0
371.50674,371.6832,41,60,0
371.50674,371.6832,49,60,0
371.6832,371.85968,53,60,0
371.85968,372.03616,56,60,0
371.85968,372.03616,61,60,0
372.03616,372.33026,65,60,0
372.56555,372.85968,56,60,0
372.56555,372.85968,61,60,0
373.09497,373.27145,40,60,0
373.09497,373.27145,48,60,0
373.27145,373.4479,52,60,0
373.4479,373.6244,55,60,0
373.4479,373.6244,60,60,0
373.6244,373.91852,64,60,0
374.1538,374.4479,55,60,0
374.1538,374.4479,60,60,0
374.6832,374.85968,41,92,0
374.6832,374.85968,49,92,0
374.85968,375.03616,53,92,0
375.03616,375.21262,56,92,0
375.03616,375.21262,61,92,0
375.21262,375.50674,65,92,0
375.74203,376.03616,56,75,0
375.74203,376.03616,61,75,0
376.27145,376.4479,39,60,0
376.27145,376.4479,49,60,0
376.4479,376.6244,55,60,0
376.6244,376.80084,58,60,0
376.6244,376.80084,61,60,0
376.80084,377.09497,67,60,0
377.33026,377.6244,58,60,0
377.33026,377.6244,61,60,0
377.85968,378.03616,44,92,0
378.03616,378.21262,51,92,0
378.21262,378.3854,60,75,0
378.3891,378.56555,46,60,0
378.56555,378.74203,51,60,0
378.74203,378.91483,61,60,0
378.9185,379.09497,48,60,0
379.09497,379.27145,56,60,0
379.27145,379.44424,63,60,0
379.4479,379.6244,49,60,0
379.6244,379.80084,56,60,0
379.80084,379.97733,65,60,0
379.97733,380.1538,56,60,0
380.1538,380.33026,65,60,0
380.33026,380.50305,56,60,0
380.50674,380.6832,50,84,0
380.6832,380.85968,56,60,0
380.85968,381.03247,65,60,0
381.03613,381.21262,49,60,0
381.21262,381.3891,58,60,0
381.3891,381.56555,66,60,0
381.56555,381.74203,58,60,0
381.74203,381.9185,66,60,0
381.9185,382.0913,58,60,0
382.09497,382.27145,50,75,0
382.27145,382.4479,56,75,0
382.4479,382.6207,65,75,0
382.6244,382.80084,49,92,0
382.80084,382.97733,58,92,0
382.97733,383.15378,66,92,0
383.15378,383.33026,58,92,0
383.33026,383.50674,66,92,0
383.50674,383.67953,58,92,0
383.6832,383.85968,50,92,0
383.85968,384.03613,56,92,0
384.03613,384.20895,65,92,0
384.21262,384.3891,48,92,0
384.3891,384.56555,56,87,0
384.56555,384.74203,65,82,0
384.74203,384.9185,56,77,0
384.9185,385.09497,65,72,0
385.09497,385.26776,56,66,0
385.27145,385.4479,48,60,0
385.4479,385.6244,55,60,0
385.6244,385.79718,64,60,0
385.80084,386.09497,53,60,0
385.80084,386.09497,56,60,0
385.80084,386.09497,65,60,0
388.27142,388.4479,48,60,0
388.27142,388.4479,56,60,0
388.4479,388.80084,46,60,0
388.4479,388.80084,55,60,0
388.80084,388.97733,44,81,0
388.80084,388.97733,53,81,0
388.97733,389.50674,41,92,0
388.97733,389.50674,43,92,0
388.97733,389.50674,52,92,0
389.50674,389.80084,44,60,0
389.50674,389.80084,53,60,0
391.4479,391.6244,53,60,0
391.4479,391.6244,61,60,0
391.6244,391.97733,49,68,0
391.6244,391.97733,58,68,0
391.97733,392.15012,46,84,0
391.97733,392.15012,55,84,0
392.15378,392.6832,48,92,0
392.15378,392.6832,53,92,0
392.15378,392.6832,56,92,0
392.6832,392.97733,52,60,0
392.6832,392.97733,55,60,0
394.6244,394.80084,49,60,0
394.6244,394.80084,58,60,0
394.80084,395.15378,47,60,0
394.80084,395.15378,56,60,0
395.15378,395.32657,46,60,0
395.15378,395.32657,54,60,0
395.33026,395.80084,42,60,0
395.33026,395.80084,46,60,0
395.33026,395.80084,54,60,0
397.80084,397.97733,53,60,0
397.80084,397.97733,61,60,0
397.97733,398.33026,51,60,0
397.97733,398.33026,60,60,0
398.33026,398.50305,50,60,0
398.33026,398.50305,59,60,0
398.5067,398.97733,43,60,0
398.5067,398.97733,50,60,0
398.5067,398.97733,59,60,0
402.56555,402.742,59,60,0
402.56555,402.742,67,60,0
402.742,403.09497,60,64,0
402.742,403.09497,69,64,0
403.09497,403.26776,62,73,0
403.09497,403.26776,71,73,0
403.27142,403.62436,63,77,0
403.27142,403.62436,72,77,0
403.62436,403.80084,65,87,0
403.62436,403.80084,74,87,0
403.80084,404.33026,66,92,0
403.80084,404.33026,75,92,0
404.33026,405.73834,60,75,0
404.33026,405.73834,66,75,0
408.9185,409.09497,60,60,0
408.9185,409.09497,68,60,0
409.09497,409.4479,61,60,0
409.09497,409.4479,70,60,0
409.4479,409.6207,63,70,0
409.4479,409.6207,72,70,0
409.62436,409.9773,64,75,0
409.62436,409.9773,73,75,0
409.9773,410.15378,66,86,0
409.9773,410.15378,75,86,0
410.15378,410.6832,67,92,0
410.15378,410.6832,76,92,0
410.6832,412.09128,61,75,0
410.6832,412.09128,67,75,0
413.6832,413.856,69,60,0
413.85965,414.15378,68,60,0
413.85965,414.15378,71,60,0
414.21262,414.3854,67,70,0
414.21262,414.3854,73,70,0
414.38907,414.6832,65,75,0
414.38907,414.6832,74,75,0
414.742,414.9148,64,86,0
414.742,414.9148,73,86,0
414.9185,415.38907,62,92,0
414.9185,415.38907,74,92,0
415.4479,415.9185,60,92,0
415.4479,415.9185,62,92,0
415.4479,415.9185,72,92,0
415.9773,416.27142,59,92,0
415.9773,416.27142,62,92,0
415.9773,416.27142,71,92,0
416.5067,416.80084,53,92,0
416.5067,416.80084,56,92,0
416.5067,416.80084,59,92,0
416.5067,416.80084,62,92,0
416.5067,416.80084,65,92,0
418.09494,418.38907,53,92,0
418.09494,418.38907,56,92,0
418.09494,418.38907,59,92,0
418.09494,418.38907,62,92,0
418.09494,418.38907,65,92,0
419.6832,419.9773,51,92,0
419.6832,419.9773,56,92,0
419.6832,419.9773,59,92,0
419.6832,419.9773,63,92,0
421.27142,421.56555,50,92,0
421.27142,421.56555,53,92,0
421.27142,421.56555,59,92,0
421.27142,421.56555,62,92,0
421.80084,422.09494,51,92,0
421.80084,422.09494,55,92,0
421.80084,422.09494,60,92,0
421.80084,422.09494,63,92,0
422.33023,422.5067,35,92,0
422.33023,422.5067,47,92,0
422.5067,422.6832,50,92,0
422.6832,422.856,55,92,0
423.9185,424.09494,36,92,0
423.9185,424.09494,48,92,0
424.09494,424.27142,51,91,0
424.27142,424.4442,56,90,0
425.5067,425.6832,35,78,0
425.5067,425.6832,47,78,0
425.6832,425.85965,50,76,0
425.85965,426.03244,55,74,0
427.09494,427.35965,36,60,0
427.35965,427.6207,48,60,0
427.62436,427.88907,38,60,0
427.88907,428.1501,50,60,0
428.15378,428.4185,39,60,0
428.4185,428.6795,51,60,0
428.6832,428.94788,41,60,0
428.94788,429.20892,53,65,0
429.2126,429.4773,41,70,0
429.4773,429.73834,53,75,0
429.742,430.0067,41,80,0
430.0067,430.26773,53,86,0
430.27142,430.53613,42,92,0
430.53613,430.79715,54,92,0
431.33023,431.59494,30,92,0
431.59494,431.856,42,76,0
431.85965,432.12436,31,60,0
432.12436,432.38538,43,60,0
432.742,432.87436,67,60,0
432.87436,432.9185,71,60,0
432.9185,433.09128,69,60,0
433.27142,433.44788,67,60,0
433.44788,434.32657,69,60,0
434.33023,434.5067,67,60,0
434.5067,434.6795,59,60,0
434.85965,435.03613,60,60,0
435.03613,435.33023,62,60,0
435.9185,436.0508,67,60,0
436.0508,436.09494,71,60,0
436.09494,436.26773,69,60,0
436.44788,436.62436,67,60,0
436.62436,437.50302,70,60,0
437.5067,437.68317,69,60,0
437.68317,437.85596,59,60,0
438.03613,438.2126,60,60,0
438.2126,438.5067,62,60,0
439.09494,439.2273,67,60,0
439.2273,439.27142,71,66,0
439.27142,439.4442,69,68,0
439.62436,439.8008,67,84,0
439.8008,439.9773,48,92,0
439.9773,440.15378,55,92,0
440.15378,440.32657,64,92,0
440.33023,440.5067,50,92,0
440.5067,440.68317,55,92,0
440.68317,440.85596,65,92,0
440.85965,441.0361,52,92,0
441.0361,441.2126,60,92,0
441.2126,441.38538,67,92,0
441.56552,441.742,60,60,0
441.742,441.91846,65,60,0
441.38907,442.0067,53,60,0
441.91846,442.09494,60,60,0
442.09494,442.27142,65,60,0
442.27142,442.4442,60,60,0
442.62436,442.8008,60,60,0
442.44788,442.9736,54,60,0
442.8008,442.9736,63,60,0
443.15378,443.33023,58,60,0
443.33023,443.5067,62,60,0
442.9773,443.59494,53,60,0
443.5067,443.68317,58,60,0
443.68317,443.85965,62,60,0
443.85965,444.03244,58,60,0
444.2126,444.38907,60,60,0
444.0361,444.56186,54,60,0
444.38907,444.56186,63,60,0
444.742,444.91846,58,75,0
444.91846,445.09494,62,75,0
444.56552,445.18317,53,75,0
445.09494,445.27142,58,92,0
445.27142,445.44788,62,92,0
445.44788,445.62067,58,75,0
445.8008,445.9773,60,60,0
445.9773,446.1501,63,60,0
446.15375,446.33023,60,60,0
446.33023,446.5067,63,60,0
445.62436,446.68317,54,60,0
446.5067,446.68317,60,60,0
446.85965,447.0361,60,60,0
446.68317,447.2126,55,60,0
447.0361,447.2126,64,60,0
447.38907,447.56552,62,60,0
447.2126,447.7383,55,60,0
447.56552,447.7383,65,60,0
447.91846,448.09494,60,61,0
447.742,448.2714,54,60,0
448.09494,448.2714,63,62,0
448.44788,448.62436,60,64,0
448.2714,448.8008,55,63,0
448.62436,448.8008,64,65,0
448.9773,449.15375,62,67,0
448.8008,449.32657,55,66,0
449.15375,449.32657,65,68,0
449.5067,449.68317,57,70,0
449.33023,449.85965,54,69,0
449.68317,449.85965,60,72,0
450.0361,450.2126,57,76,0
449.85965,450.38907,53,74,0
450.2126,450.38907,60,78,0
450.56552,450.742,57,82,0
450.38907,450.9148,52,80,0
450.742,450.9148,60,84,0
451.09494,451.2714,57,88,0
450.91846,451.4442,50,86,0
451.2714,451.4442,60,90,0
451.44788,451.62436,38,92,0
451.62436,451.8008,45,92,0
451.8008,451.9773,50,92,0
451.9773,452.15375,43,75,0
452.15375,452.33023,50,75,0
452.33023,452.50302,43,75,0
452.5067,452.56552,36,60,0
452.68317,452.742,36,60,0
452.85965,452.91846,36,60,0
453.0361,453.09494,36,60,0
453.2126,453.2714,36,60,0
453.38904,453.44788,36,60,0
453.56552,453.62436,36,60,0
453.742,453.8008,36,60,0
453.91846,453.9773,36,60,0
454.09494,454.15375,36,60,0
454.2714,454.33023,36,60,0
454.44788,454.50668,36,60,0
454.62436,454.68317,36,60,0
454.8008,454.85965,36,60,0
454.9773,455.0361,36,60,0
455.15375,455.2126,36,60,0
455.33023,455.38904,36,60,0
455.50668,455.56552,36,60,0
455.68317,455.742,36,60,0
455.85965,455.91846,36,60,0
456.0361,456.09494,36,60,0
456.2126,456.2714,36,60,0
456.38904,456.44788,36,60,0
456.56552,456.62436,36,60,0
456.742,456.8008,36,60,0
456.91846,456.9773,36,60,0
457.09494,457.15375,36,60,0
457.2714,457.33023,36,60,0
457.44788,457.50668,36,60,0
457.62436,457.68317,36,60,0
457.8008,457.85965,36,60,0
457.9773,458.0361,36,60,0
458.15375,458.2126,36,60,0
458.33023,458.38904,36,60,0
458.50668,458.56552,36,60,0
458.68317,458.742,36,60,0
458.85965,458.91846,41,60,0
459.0361,459.09494,41,60,0
459.2126,459.2714,41,60,0
459.38904,459.91846,41,60,0
459.91846,460.44788,40,60,0
460.44788,460.9773,39,60,0
460.44788,460.9773,51,60,0
460.9773,461.50668,38,60,0
460.9773,461.50668,50,60,0
461.50668,461.9773,43,60,0
462.0361,462.09494,36,60,0
462.2126,462.2714,36,60,0
462.38904,462.44788,36,60,0
462.56552,462.62433,36,60,0
462.74197,462.8008,36,60,0
462.91846,462.9773,36,60,0
463.09494,463.15375,36,60,0
463.2714,463.33023,36,60,0
463.44788,463.50668,36,60,0
463.62433,463.68317,36,60,0
463.8008,463.85965,36,60,0
463.9773,464.0361,36,60,0
464.15375,464.2126,36,60,0
464.33023,464.38904,36,60,0
464.50668,464.56552,36,60,0
464.68317,464.74197,36,60,0
464.85965,464.91846,36,60,0
465.0361,465.09494,36,60,0
465.2126,465.2714,41,75,0
465.38904,465.44788,41,75,0
465.56552,465.62433,41,75,0
465.74197,466.2714,41,92,0
466.2714,466.8008,40,92,0
466.8008,467.33023,39,84,0
467.33023,467.85962,38,76,0
467.85962,468.33023,31,68,0
467.85962,468.33023,43,68,0
468.38904,468.68317,36,60,0
468.38904,468.68317,46,60,0
468.38904,468.68317,48,60,0
468.38904,468.68317,58,60,0
468.91846,469.2126,36,60,0
468.91846,469.2126,46,60,0
468.91846,469.2126,48,60,0
468.91846,469.2126,58,60,0
469.97726,470.2714,36,60,0
469.97726,470.2714,46,60,0
469.97726,470.2714,48,60,0
469.97726,470.2714,58,60,0
470.50668,470.8008,36,60,0
470.50668,470.8008,46,60,0
470.50668,470.8008,48,60,0
470.50668,470.8008,58,60,0
471.56552,471.85962,36,60,0
471.56552,471.85962,46,60,0
471.56552,471.85962,48,60,0
471.56552,471.85962,58,60,0
472.09494,472.38904,36,60,0
472.09494,472.38904,46,60,0
472.09494,472.38904,48,60,0
472.09494,472.38904,58,60,0
473.15375,473.44788,36,60,0
473.15375,473.44788,45,60,0
473.15375,473.44788,48,60,0
473.15375,473.44788,57,60,0
473.68317,473.97726,36,60,0
473.68317,473.97726,44,60,0
473.68317,473.97726,48,60,0
473.68317,473.97726,56,60,0
474.74197,475.0361,43,60,0
474.74197,475.0361,48,60,0
474.74197,475.0361,55,60,0
475.2714,475.56552,42,63,0
475.2714,475.56552,48,63,0
475.2714,475.56552,54,63,0
476.33023,476.62433,41,69,0
476.33023,476.62433,48,69,0
476.33023,476.62433,53,69,0
477.38904,477.68317,39,75,0
477.38904,477.68317,48,75,0
477.38904,477.68317,51,75,0
478.44788,478.74197,36,81,0
478.44788,478.74197,37,81,0
478.44788,478.74197,49,81,0
479.50668,479.8008,36,88,0
479.50668,479.8008,48,88,0
480.0361,481.0949,54,92,0
480.0361,481.0949,60,92,0
480.0361,481.0949,63,92,0
481.0949,481.38904,55,60,0
481.0949,481.38904,64,60,0
481.62433,482.68317,54,92,0
481.62433,482.68317,60,92,0
481.62433,482.68317,63,92,0
482.68317,482.97726,55,60,0
482.68317,482.97726,64,60,0
483.21255,484.2714,36,75,0
483.21255,484.2714,42,75,0
484.2714,484.56552,36,60,0
484.2714,484.56552,43,60,0
484.8008,485.85962,36,75,0
484.8008,485.85962,42,75,0
485.85962,486.17212,36,45,0
485.85962,486.17212,43,45,0
487.0096,487.34296,36,60,0
487.0096,487.34296,43,60,0
488.25247,488.6206,36,45,0
488.25247,488.6206,43,45,0
489.6206,489.7873,36,45,0
489.7873,489.95395,48,45,0
489.95395,490.1206,52,45,0
490.1206,490.2838,55,45,0
491.1206,491.28726,48,45,0
491.28726,491.45047,60,45,0
492.6206,492.78726,60,45,0
492.78726,492.95047,72,45,0
494.1206,494.28726,76,45,0
494.28726,494.45395,77,45,0
494.45395,494.61713,76,45,0
495.1206,495.28726,76,45,0
495.28726,495.45395,77,45,0
495.45395,495.61713,76,45,0
496.1206,496.28726,79,45,0
496.28726,496.45395,81,45,0
496.45395,496.61713,79,45,0
497.1206,497.28726,81,45,0
497.28726,497.45395,82,45,0
497.45395,497.61713,81,45,0
498.1206,498.28726,79,45,0
498.28726,498.45395,81,45,0
498.45395,498.61713,79,45,0
499.1206,499.28726,67,45,0
499.28726,499.45395,69,45,0
499.45395,499.61713,67,45,0
500.1206,500.28726,55,45,0
500.28726,500.45392,57,46,0
500.45392,500.61713,55,47,0
501.1206,501.28726,55,53,0
501.28726,501.45392,57,54,0
501.45392,501.61713,55,55,0
502.1206,502.28726,43,63,0
502.28726,502.45392,45,65,0
502.45392,502.61713,43,67,0
503.1206,503.28726,36,75,0
503.28726,503.45047,43,75,0
504.6206,504.78726,48,60,0
504.78726,504.95047,55,60,0
506.1206,506.3081,60,60,0
506.3081,506.4917,64,60,0
507.94202,508.8358,60,60,0
508.01703,508.8358,64,60,0
508.092,508.8358,67,60,0
508.16702,508.8358,72,60,0
513.042,513.33575,40,10,0
