start_time,end_time,note_value,velocity,instrument_program_number
2.0,3.0,70,75,40
3.0,4.0,75,75,40
4.0,5.0,74,77,40
5.0,6.0,75,80,40
6.0,7.0,77,83,40
7.0,8.0,74,86,40
8.0,8.833333,75,89,40
9.0,10.0,80,92,40
10.0,11.0,79,92,40
11.0,11.489583,77,92,40
11.5,12.0,72,92,40
12.0,13.0,75,75,40
13.0,14.333333,74,60,40
14.5,14.989583,74,60,40
15.0,16.0,74,60,40
16.0,17.333334,75,65,40
17.5,17.989584,75,73,40
18.0,18.5,75,75,40
18.5,18.989584,76,77,40
19.0,20.333334,77,80,40
20.5,20.989584,77,89,40
21.0,21.5,77,92,40
21.5,22.0,78,92,40
22.0,22.5,79,92,40
22.5,22.989584,75,92,40
23.0,23.354166,72,92,40
23.5,23.666666,69,92,40
24.0,25.0,72,75,40
25.0,26.333334,70,60,40
26.5,26.989584,70,60,40
27.0,28.0,77,60,40
28.0,29.0,74,64,40
29.0,29.833334,70,68,40
30.0,30.833334,77,72,40
31.0,31.5,79,76,40
31.5,31.989584,77,78,40
32.0,32.354168,74,80,40
32.5,32.666668,70,82,40
33.0,34.0,70,84,40
34.0,34.833332,75,88,40
35.0,36.0,82,92,40
36.0,37.75,81,75,40
38.0,39.0,82,45,40
39.0,40.333332,81,45,40
40.5,40.854168,84,92,40
41.0,41.354168,82,92,40
41.5,41.666668,81,92,40
42.0,43.0,81,92,40
43.0,44.0,82,92,40
44.0,45.0,84,92,40
45.0,46.0,86,92,40
46.0,47.0,88,92,40
47.0,48.833332,89,92,40
49.0,50.0,87,75,40
50.0,50.833332,85,60,40
51.0,51.833332,86,45,40
52.0,53.333332,74,60,40
53.5,53.989582,74,60,40
54.0,54.5,74,60,40
54.5,54.989582,75,60,40
55.0,56.333332,75,60,40
56.5,56.989582,76,60,40
57.0,57.5,79,60,40
57.5,57.989582,76,65,40
58.0,59.333332,78,70,40
59.5,59.989582,79,86,40
60.0,61.0,82,92,40
61.0,61.833332,81,60,40
64.0,64.322914,71,45,40
64.0,64.322914,79,45,40
64.333336,64.65625,71,45,40
64.333336,64.65625,79,45,40
64.666664,64.989586,71,45,40
64.666664,64.989586,79,45,40
65.0,65.322914,69,45,40
65.0,65.322914,78,45,40
65.333336,65.65625,69,45,40
65.333336,65.65625,78,45,40
65.666664,65.989586,69,45,40
65.666664,65.989586,78,45,40
66.0,66.322914,68,45,40
66.0,66.322914,77,45,40
66.333336,66.65625,68,45,40
66.333336,66.65625,77,45,40
66.666664,66.989586,68,45,40
66.666664,66.989586,77,45,40
67.0,67.322914,67,45,40
67.0,67.322914,75,45,40
67.333336,67.65625,67,45,40
67.333336,67.65625,75,45,40
67.666664,67.989586,67,45,40
67.666664,67.989586,75,45,40
68.0,68.322914,67,45,40
68.0,68.322914,73,45,40
68.333336,68.65625,67,45,40
68.333336,68.65625,73,45,40
68.666664,68.989586,64,45,40
68.666664,68.989586,73,45,40
69.0,69.322914,64,45,40
69.0,69.322914,72,45,40
69.333336,69.65625,64,46,40
69.333336,69.65625,72,46,40
69.666664,69.989586,64,47,40
69.666664,69.989586,72,47,40
70.0,70.322914,65,48,40
70.0,70.322914,72,48,40
70.333336,70.65625,65,49,40
70.333336,70.65625,72,49,40
70.666664,70.989586,65,50,40
70.666664,70.989586,72,50,40
71.0,71.322914,60,51,40
71.0,71.322914,68,51,40
71.333336,71.65625,60,52,40
71.333336,71.65625,68,52,40
71.666664,71.989586,60,54,40
71.666664,71.989586,68,54,40
72.0,72.322914,57,56,40
72.0,72.322914,66,56,40
72.333336,72.65625,57,58,40
72.333336,72.65625,66,58,40
72.666664,72.989586,57,60,40
72.666664,72.989586,66,60,40
73.0,73.322914,59,62,40
73.0,73.322914,67,62,40
73.333336,73.65625,59,64,40
73.333336,73.65625,67,64,40
73.666664,73.989586,59,66,40
73.666664,73.989586,67,66,40
74.0,74.322914,57,68,40
74.0,74.322914,63,68,40
74.333336,74.65625,57,70,40
74.333336,74.65625,63,70,40
74.666664,74.989586,57,72,40
74.666664,74.989586,63,72,40
75.0,75.322914,59,74,40
75.0,75.322914,62,74,40
75.333336,75.65625,59,76,40
75.333336,75.65625,62,76,40
75.666664,75.989586,59,78,40
75.666664,75.989586,62,78,40
76.0,76.322914,60,80,40
76.333336,76.65625,60,82,40
76.666664,76.989586,60,84,40
77.0,77.322914,59,86,40
77.333336,77.65625,59,88,40
77.666664,77.989586,59,90,40
78.0,78.489586,58,92,40
78.0,78.489586,67,92,40
78.25,82.0,75,92,40
82.0,83.0,74,92,40
83.0,84.0,75,89,40
84.0,85.0,77,86,40
85.0,86.0,74,83,40
86.0,86.833336,75,80,40
87.0,88.0,80,77,40
88.0,89.0,79,74,40
89.0,89.489586,77,71,40
89.5,90.0,72,70,40
90.0,91.0,75,69,40
91.0,92.333336,74,66,40
92.5,93.0,77,60,40
93.0,94.0,82,60,40
94.0,95.0,80,62,40
95.0,95.489586,79,64,40
95.5,96.0,75,65,40
96.0,97.0,87,66,40
97.0,98.0,85,68,40
98.0,98.489586,84,70,40
98.5,99.0,75,71,40
99.0,100.0,82,72,40
100.0,100.489586,81,74,40
100.5,101.0,75,75,40
101.0,102.0,80,76,40
102.0,102.489586,79,78,40
102.5,103.0,70,79,40
103.0,103.833336,78,80,40
104.0,104.234375,76,82,40
104.333336,104.56771,80,82,40
104.666664,104.885414,83,82,40
105.0,106.572914,75,83,40
106.583336,106.666664,75,87,40
106.666664,106.75,77,87,40
106.75,106.833336,75,87,40
106.833336,106.916664,74,87,40
106.916664,107.0,75,87,40
107.0,107.5,78,87,40
107.5,107.989586,77,89,40
108.0,108.833336,66,92,40
108.0,108.833336,75,92,40
110.5,110.583336,75,75,40
110.583336,110.666664,77,75,40
110.666664,110.75,75,75,40
110.75,110.875,74,75,40
110.875,111.0,75,75,40
111.0,111.5,84,92,40
111.5,112.0,82,92,40
112.0,112.5,80,92,40
112.5,113.0,79,92,40
113.0,113.5,77,92,40
113.5,114.0,75,92,40
114.0,114.489586,74,92,40
114.5,115.0,71,92,40
115.0,115.5,73,92,40
115.5,115.989586,72,92,40
116.0,116.234375,77,92,40
116.333336,116.56771,80,92,40
116.666664,116.885414,84,92,40
117.0,117.5,84,92,40
117.5,118.489586,75,87,40
118.5,118.625,77,77,40
118.625,118.75,75,76,40
118.75,118.875,74,75,40
118.5,119.0,67,77,40
118.875,119.0,75,74,40
119.0,119.5,70,73,40
119.0,119.5,79,73,40
119.5,119.989586,68,67,40
119.5,119.989586,77,67,40
120.0,120.833336,67,60,40
120.0,120.833336,75,60,40
121.0,122.5,82,92,40
122.5,122.989586,75,92,40
123.0,123.833336,74,92,40
124.0,125.5,82,92,40
125.5,125.989586,73,92,40
126.0,126.5,72,92,40
126.5,127.489586,84,92,40
127.5,128.48958,82,92,40
128.5,128.98958,81,92,40
129.0,130.33333,80,92,40
130.5,130.98958,82,92,40
131.0,131.66667,78,92,40
131.66667,131.98958,80,77,40
132.0,132.83333,77,69,40
133.0,134.33333,74,45,40
134.5,134.98958,74,45,40
135.0,135.5,74,45,40
135.5,135.98958,75,45,40
136.0,137.33333,75,45,40
137.5,137.98958,76,45,40
138.0,138.5,79,45,40
138.5,138.98958,76,48,40
139.0,140.33333,77,51,40
140.5,140.98958,78,61,40
141.0,141.5,78,64,40
141.5,142.48958,79,67,40
142.5,143.0,79,73,40
143.0,143.5,84,76,40
143.5,143.98958,79,80,40
144.0,144.83333,80,84,40
145.0,146.5,84,92,40
146.5,146.98958,77,92,40
147.0,147.83333,76,92,40
148.0,149.5,84,92,40
149.5,149.98958,75,92,40
150.0,150.5,73,92,40
150.5,151.48958,85,92,40
151.5,152.48958,84,92,40
152.5,152.98958,83,92,40
153.0,154.33333,82,92,40
154.5,154.98958,84,92,40
155.0,155.66667,80,92,40
155.66667,155.98958,82,77,40
156.0,156.83333,79,69,40
157.0,158.33333,76,45,40
158.5,158.98958,76,45,40
159.0,159.5,76,45,40
159.5,159.98958,77,45,40
160.0,161.33333,77,45,40
161.5,161.98958,78,45,40
162.0,162.5,81,45,40
162.5,162.98958,78,46,40
163.0,164.33333,79,48,40
164.5,164.98958,80,54,40
165.0,165.5,80,56,40
165.5,165.98958,81,58,40
166.5,167.0,81,62,40
167.0,167.5,86,64,40
167.5,168.48958,81,66,40
168.5,169.0,82,70,40
169.0,169.5,87,72,40
169.5,170.48958,83,74,40
170.5,171.0,84,78,40
171.0,171.5,89,80,40
171.5,172.48958,85,82,40
172.5,173.0,86,86,40
173.0,173.5,91,88,40
173.5,173.98958,86,90,40
174.0,174.35417,87,92,40
174.5,174.66667,88,92,40
175.0,175.83333,89,92,40
176.0,176.83333,90,75,40
177.0,177.48958,91,60,40
190.0,191.33333,72,60,40
191.33333,191.66667,74,60,40
191.66667,191.98958,69,64,40
192.0,193.33333,72,68,40
193.75,193.98958,71,92,40
194.0,194.48958,72,92,40
194.75,194.98958,74,92,40
195.0,195.48958,75,92,40
195.75,195.98958,74,92,40
196.0,196.48958,75,92,40
196.75,196.98958,76,92,40
197.0,197.48958,77,92,40
197.75,197.98958,78,92,40
198.0,198.48958,79,92,40
198.75,198.98958,67,60,40
198.75,198.98958,79,60,40
199.0,199.48958,67,60,40
199.0,199.48958,79,60,40
199.75,199.98958,67,60,40
199.75,199.98958,79,60,40
200.0,200.48958,67,60,40
200.0,200.48958,79,60,40
200.75,200.98958,67,60,40
200.75,200.98958,79,60,40
201.0,201.48958,67,60,40
201.0,201.48958,79,60,40
201.75,201.98958,67,60,40
201.75,201.98958,79,60,40
202.0,202.48958,67,60,40
202.0,202.48958,79,60,40
202.75,202.98958,67,60,40
202.75,202.98958,79,60,40
203.0,203.48958,67,60,40
203.0,203.48958,79,60,40
203.75,203.98958,67,60,40
203.75,203.98958,79,60,40
204.0,204.48958,67,60,40
204.0,204.48958,79,60,40
204.75,204.98958,67,66,40
204.75,204.98958,79,66,40
205.0,205.48958,67,68,40
205.0,205.48958,79,68,40
205.75,205.98958,67,74,40
205.75,205.98958,79,74,40
206.0,206.48958,67,76,40
206.0,206.48958,79,76,40
206.75,206.98958,67,82,40
206.75,206.98958,79,82,40
207.0,207.48958,67,84,40
207.0,207.48958,79,84,40
207.75,207.98958,67,92,40
207.75,207.98958,79,92,40
208.0,208.48958,67,92,40
208.0,208.48958,79,92,40
208.75,208.98958,67,92,40
208.75,208.98958,79,92,40
209.0,209.48958,67,92,40
209.0,209.48958,79,92,40
209.75,209.98958,67,92,40
209.75,209.98958,79,92,40
210.0,210.48958,67,92,40
210.0,210.48958,79,92,40
210.75,210.98958,67,92,40
210.75,210.98958,79,92,40
211.0,211.48958,67,92,40
211.0,211.48958,79,92,40
211.75,211.98958,67,92,40
211.75,211.98958,79,92,40
212.0,212.48958,67,92,40
212.0,212.48958,79,92,40
212.75,212.98958,67,92,40
212.75,212.98958,79,92,40
213.0,213.48958,67,75,40
213.0,213.48958,79,75,40
216.0,217.32292,74,60,40
217.33333,217.5677,71,60,40
217.66667,217.90105,72,66,40
218.0,218.23438,74,72,40
218.33333,218.5677,75,78,40
218.66667,218.88542,79,85,40
219.0,220.0,80,92,40
220.0,220.83333,81,60,40
222.07143,223.51546,74,60,40
223.52747,223.7979,71,76,40
223.9121,224.18253,74,80,40
224.2967,224.58968,77,84,40
224.71336,225.00633,83,88,40
225.13004,225.40347,86,92,40
225.5467,226.1342,88,45,40
226.4467,226.5842,67,45,40
226.4467,226.5842,79,45,40
226.5967,226.7342,67,45,40
226.5967,226.7342,79,45,40
226.7467,227.07309,67,45,40
226.7467,227.07309,79,45,40
228.58003,228.65642,67,45,40
228.58003,228.65642,79,45,40
228.66336,228.73976,67,45,40
228.66336,228.73976,79,45,40
228.7467,229.07309,67,45,40
228.7467,229.07309,79,45,40
230.58003,230.65642,72,45,40
230.58003,230.65642,84,45,40
230.66336,230.73975,72,45,40
230.66336,230.73975,84,45,40
230.7467,231.07309,72,45,40
230.7467,231.07309,84,45,40
231.2467,231.32309,60,45,40
231.33003,231.40642,60,45,40
231.41336,231.73975,60,45,40
232.58003,232.65642,72,45,40
232.58003,232.65642,84,45,40
232.66336,232.73975,72,45,40
232.66336,232.73975,84,45,40
232.74669,233.07309,72,45,40
232.74669,233.07309,84,45,40
233.24669,233.32309,60,45,40
233.33003,233.40642,60,45,40
233.41336,233.73975,60,45,40
233.91336,233.98975,64,45,40
233.91336,233.98975,76,45,40
233.99669,234.07309,64,45,40
233.99669,234.07309,76,45,40
234.08003,234.40642,64,45,40
234.08003,234.40642,76,45,40
234.58003,234.65642,57,45,40
234.66336,234.73975,57,45,40
234.74669,235.07309,57,45,40
235.24669,235.32309,69,45,40
235.24669,235.32309,81,45,40
235.33003,235.40642,69,45,40
235.33003,235.40642,81,45,40
235.41336,235.73975,69,45,40
235.41336,235.73975,81,45,40
235.91336,235.98975,57,45,40
235.99669,236.07307,57,45,40
236.08003,236.40642,62,45,40
236.58003,236.65642,74,45,40
236.66336,236.73975,74,45,40
236.74669,237.07307,67,45,40
236.74669,237.07307,79,45,40
237.24669,237.32307,55,45,40
237.24669,237.32307,67,45,40
237.33003,237.40642,55,45,40
237.33003,237.40642,67,45,40
237.41336,237.73975,55,45,40
237.41336,237.73975,67,45,40
237.91336,237.98975,67,45,40
237.91336,237.98975,79,45,40
237.99669,238.07307,67,45,40
237.99669,238.07307,79,45,40
238.08002,238.40642,67,45,40
238.08002,238.40642,79,45,40
238.58002,238.65642,55,45,40
238.66336,238.73975,55,45,40
238.74669,239.07307,60,45,40
238.74669,239.07307,64,45,40
239.24669,239.32307,60,45,40
239.24669,239.32307,64,45,40
239.33002,239.40642,60,45,40
239.33002,239.40642,64,45,40
239.41336,239.73975,60,45,40
239.41336,239.73975,66,45,40
239.91336,239.98975,60,45,40
239.91336,239.98975,66,45,40
239.99669,240.07307,60,45,40
239.99669,240.07307,66,45,40
240.08002,240.40642,59,45,40
240.08002,240.40642,67,45,40
240.58002,240.65642,67,45,40
240.58002,240.65642,79,45,40
240.66336,240.73975,67,45,40
240.66336,240.73975,79,45,40
240.74669,241.07307,67,45,40
240.74669,241.07307,79,45,40
241.24669,241.32307,55,45,40
241.24669,241.32307,67,45,40
241.33002,241.4064,55,45,40
241.33002,241.4064,67,45,40
241.41336,241.73975,55,45,40
241.41336,241.73975,67,45,40
241.91336,241.98975,67,45,40
241.99669,242.07307,67,45,40
242.08002,242.4064,72,45,40
242.08002,242.4064,76,45,40
242.58002,242.6564,67,45,40
242.58002,242.6564,79,45,40
242.66335,242.73975,67,45,40
242.66335,242.73975,79,45,40
242.74669,243.07307,67,45,40
242.74669,243.07307,79,45,40
243.24669,243.32307,55,45,40
243.24669,243.32307,67,45,40
243.33002,243.4064,55,45,40
243.33002,243.4064,67,45,40
243.41335,243.73975,55,45,40
243.41335,243.73975,67,45,40
244.58002,244.6564,67,45,40
244.58002,244.6564,79,45,40
244.66335,244.73975,67,45,40
244.66335,244.73975,79,45,40
244.74669,245.07307,67,45,40
244.74669,245.07307,79,45,40
245.24669,245.32307,55,45,40
245.24669,245.32307,67,45,40
245.33002,245.4064,55,45,40
245.33002,245.4064,67,45,40
245.41335,245.73975,55,45,40
245.41335,245.73975,67,45,40
246.08002,246.4064,58,45,40
246.58002,246.6564,70,45,40
246.58002,246.6564,82,45,40
246.66335,246.73973,70,45,40
246.66335,246.73973,82,45,40
246.74669,247.07307,70,45,40
246.74669,247.07307,82,45,40
247.24669,247.32307,58,45,40
247.33002,247.4064,58,45,40
247.41335,247.73973,58,45,40
248.08002,248.4064,58,45,40
248.58002,248.6564,70,45,40
248.58002,248.6564,82,45,40
248.66335,248.73973,70,45,40
248.66335,248.73973,82,45,40
248.74667,249.07307,70,45,40
248.74667,249.07307,82,45,40
249.24667,249.32307,58,45,40
249.33002,249.4064,58,45,40
249.41335,249.73973,58,45,40
249.91335,250.07307,63,45,40
250.08002,250.4064,56,45,40
250.58002,250.6564,75,45,40
250.66335,250.73973,75,45,40
250.74667,251.07306,72,45,40
250.74667,251.07306,75,45,40
251.24667,251.32306,63,45,40
251.33002,251.4064,63,45,40
251.41335,251.73973,55,45,40
251.41335,251.73973,63,45,40
251.91335,252.07306,63,45,40
252.08002,252.4064,56,45,40
252.58002,252.6564,75,45,40
252.66335,252.73973,75,45,40
252.74667,253.07306,72,45,40
252.74667,253.07306,75,45,40
253.24667,253.32306,63,45,40
253.33,253.4064,63,45,40
253.41335,253.73973,55,45,40
253.41335,253.73973,63,45,40
253.91335,254.07306,63,45,40
254.08,254.4064,55,45,40
254.08,254.4064,64,45,40
254.58,254.6564,72,45,40
254.58,254.6564,84,45,40
254.66335,254.73973,72,45,40
254.66335,254.73973,84,45,40
254.74667,255.07306,72,45,40
254.74667,255.07306,84,45,40
255.24667,255.32306,60,45,40
255.24667,255.32306,72,45,40
255.33,255.4064,60,45,40
255.33,255.4064,72,45,40
255.41335,255.73973,60,45,40
255.41335,255.73973,72,45,40
255.91335,256.07306,60,45,40
255.91335,256.07306,72,45,40
256.08002,256.4064,60,45,40
256.08002,256.4064,72,45,40
256.58002,256.6564,72,45,40
256.58002,256.6564,84,45,40
256.66333,256.73972,72,45,40
256.66333,256.73972,84,45,40
256.74667,257.07306,72,45,40
256.74667,257.07306,84,45,40
257.24667,257.32306,60,45,40
257.24667,257.32306,72,45,40
257.33002,257.4064,60,45,40
257.33002,257.4064,72,45,40
257.41333,257.73972,60,45,40
257.41333,257.73972,72,45,40
257.91333,258.07306,60,45,40
257.91333,258.07306,72,45,40
258.08002,258.4064,60,45,40
258.08002,258.4064,72,45,40
258.58002,258.6564,72,45,40
258.58002,258.6564,84,45,40
258.66333,258.73972,72,45,40
258.66333,258.73972,84,45,40
258.74667,258.96194,72,45,40
258.74667,258.96194,84,45,40
258.9689,259.18417,60,60,40
258.9689,259.18417,72,60,40
259.1911,259.4064,60,76,40
259.1911,259.4064,72,76,40
259.41333,259.6286,60,92,40
259.41333,259.6286,72,92,40
259.63556,259.85083,60,60,40
259.63556,259.85083,72,60,40
259.8578,260.07306,60,45,40
259.8578,260.07306,72,45,40
260.08002,260.4064,60,45,40
260.08002,260.4064,72,45,40
260.58,260.6564,72,45,40
260.58,260.6564,84,45,40
260.66333,260.73972,72,45,40
260.66333,260.73972,84,45,40
260.74667,260.96194,72,45,40
260.74667,260.96194,84,45,40
260.9689,261.18417,60,45,40
260.9689,261.18417,72,45,40
261.1911,261.4064,60,60,40
261.1911,261.4064,72,60,40
261.41333,261.6286,60,75,40
261.41333,261.6286,72,75,40
261.63556,261.85083,60,60,40
261.63556,261.85083,72,60,40
261.8578,262.07306,60,45,40
261.8578,262.07306,72,45,40
262.08,262.4064,60,45,40
262.08,262.4064,72,45,40
262.58,262.73972,60,52,40
262.58,262.73972,72,52,40
262.74667,263.23972,60,54,40
262.74667,263.23972,72,54,40
263.41333,263.73972,60,63,40
263.41333,263.73972,72,63,40
263.91333,264.07306,60,72,40
263.91333,264.07306,72,72,40
264.08,264.40637,60,75,40
264.08,264.40637,72,75,40
264.74667,265.07306,55,60,40
264.74667,265.07306,67,60,40
265.41333,265.73972,55,45,40
265.41333,265.73972,67,45,40
266.08,266.96194,62,60,40
266.96887,267.18417,62,60,40
267.1911,267.40637,64,75,40
267.41333,267.6286,65,92,40
267.63556,267.85083,63,75,40
267.96887,268.07306,62,60,40
268.08,268.96194,62,60,40
268.96887,269.18417,62,60,40
269.1911,269.40637,64,75,40
269.41333,269.6286,65,92,40
269.63556,269.85083,63,75,40
269.96887,270.07306,62,60,40
270.08,270.40637,62,60,40
270.58,270.74664,69,60,40
270.74664,271.23972,67,60,40
271.41333,271.73972,60,60,40
271.91333,272.08,62,60,40
272.08,272.40637,64,60,40
272.74664,273.07306,64,60,40
273.24664,273.41333,65,60,40
273.41333,273.73972,62,60,40
273.91333,274.08,64,60,40
274.08,274.40637,60,60,40
275.24664,275.41333,62,60,40
275.41333,275.73972,60,60,40
275.91333,276.08,62,60,40
276.08,276.42157,60,60,40
277.34015,277.52765,62,52,40
277.52765,277.9473,60,51,40
278.1705,278.3848,62,45,40
278.3848,278.71118,60,75,40
279.05148,279.21118,75,92,40
279.21814,279.37787,75,92,40
279.3848,279.54453,75,88,40
279.55145,279.71118,63,84,40
279.71814,279.87787,75,80,40
279.8848,280.04453,75,75,40
280.05145,280.21118,75,70,40
280.21814,280.37787,63,65,40
280.3848,280.71118,75,60,40
283.05145,283.21118,80,92,40
283.21814,283.37784,80,92,40
283.3848,283.54453,80,88,40
283.55145,283.71118,68,84,40
283.71814,283.87784,80,80,40
283.8848,284.04453,80,75,40
284.05145,284.21118,80,70,40
284.21814,284.37784,68,65,40
284.3848,284.71118,80,60,40
287.05145,287.21118,83,92,40
287.21814,287.37784,83,92,40
287.3848,287.54453,83,88,40
287.55145,287.71118,71,84,40
287.71814,287.87784,83,80,40
287.8848,288.04453,83,75,40
288.05145,288.21118,83,70,40
288.21814,288.37784,71,65,40
288.3848,288.54453,83,60,40
288.55145,288.71118,83,60,40
288.71814,288.87784,83,60,40
288.8848,289.04453,71,60,40
289.05145,289.21118,84,60,40
289.21814,289.37784,84,60,40
289.3848,289.54453,84,60,40
289.55145,289.71118,72,60,40
289.7181,289.87784,86,60,40
289.8848,290.04453,86,60,40
290.05145,290.21118,86,60,40
290.2181,290.37784,74,60,40
290.3848,290.71118,84,60,40
291.05145,291.7181,60,92,40
291.7181,292.3848,61,75,40
292.3848,293.27368,67,60,40
293.3848,293.7181,64,60,40
293.7181,294.05145,65,62,40
294.05145,294.3848,72,64,40
294.3848,294.7181,71,66,40
294.7181,295.05145,77,68,40
295.05145,295.3848,76,70,40
295.3848,295.71118,82,72,40
295.7181,296.71118,80,74,40
296.7181,297.0445,79,80,40
297.05145,297.607,77,82,40
297.7181,298.27368,78,87,40
298.3848,298.60007,71,92,40
298.3848,298.60007,79,92,40
298.607,298.8223,71,92,40
298.607,298.8223,79,92,40
298.82922,299.0445,71,88,40
298.82922,299.0445,79,88,40
299.05145,299.26672,71,84,40
299.05145,299.26672,79,84,40
299.27368,299.48895,71,80,40
299.27368,299.48895,79,80,40
299.49588,299.71118,71,76,40
299.49588,299.71118,79,76,40
299.7181,299.93338,72,72,40
299.7181,299.93338,79,72,40
299.94034,300.1556,72,68,40
299.94034,300.1556,79,68,40
300.16257,300.37784,72,64,40
300.16257,300.37784,79,64,40
300.38477,300.60007,72,60,40
300.38477,300.60007,77,60,40
300.607,300.82227,72,60,40
300.607,300.82227,77,60,40
300.82922,301.0445,72,60,40
300.82922,301.0445,77,60,40
301.05145,301.26672,71,60,40
301.05145,301.26672,77,60,40
301.27368,301.48895,71,60,40
301.27368,301.48895,77,60,40
301.49588,301.71118,74,60,40
301.49588,301.71118,77,60,40
301.7181,301.93338,72,60,40
301.7181,301.93338,75,60,40
301.94034,302.1556,72,60,40
301.94034,302.1556,75,60,40
302.16257,302.37784,72,60,40
302.16257,302.37784,75,60,40
302.38477,302.60007,72,60,40
302.38477,302.60007,74,60,40
302.607,302.82227,72,60,40
302.607,302.82227,74,60,40
302.82922,303.0445,72,60,40
302.82922,303.0445,74,60,40
303.05145,303.26672,67,60,40
303.05145,303.26672,74,60,40
303.27365,303.48895,67,60,40
303.27365,303.48895,74,60,40
303.49588,303.71115,67,60,40
303.49588,303.71115,74,60,40
303.7181,303.93338,63,60,40
303.7181,303.93338,72,60,40
303.94034,304.1556,63,60,40
303.94034,304.1556,72,60,40
304.16257,304.37784,63,60,40
304.16257,304.37784,72,60,40
304.38477,304.60007,62,60,40
304.38477,304.60007,72,60,40
304.607,304.82227,62,60,40
304.607,304.82227,72,60,40
304.82922,305.0445,62,60,40
304.82922,305.0445,74,60,40
305.05145,305.26672,67,60,40
305.05145,305.26672,74,60,40
305.27365,305.48895,67,60,40
305.27365,305.48895,74,60,40
305.49588,305.71115,67,60,40
305.49588,305.71115,79,60,40
305.7181,305.93338,67,60,40
305.7181,305.93338,79,60,40
305.94034,306.1556,67,60,40
305.94034,306.1556,79,60,40
306.16257,306.37784,67,60,40
306.16257,306.37784,79,60,40
306.38477,306.60004,72,60,40
306.38477,306.60004,74,60,40
306.607,306.82227,72,60,40
306.607,306.82227,74,60,40
306.82922,307.0445,72,60,40
306.82922,307.0445,74,60,40
307.05145,307.26672,67,60,40
307.05145,307.26672,74,60,40
307.27365,307.48895,67,60,40
307.27365,307.48895,74,60,40
307.49588,307.71115,67,60,40
307.49588,307.71115,74,60,40
307.7181,307.93338,63,60,40
307.7181,307.93338,72,60,40
307.94034,308.1556,63,60,40
307.94034,308.1556,72,60,40
308.16254,308.37784,63,60,40
308.16254,308.37784,72,60,40
308.38477,308.60004,63,60,40
308.38477,308.60004,72,60,40
308.607,308.82227,63,62,40
308.607,308.82227,72,62,40
308.82922,309.0445,67,64,40
308.82922,309.0445,74,64,40
309.05145,309.26672,72,66,40
309.05145,309.26672,75,66,40
309.27365,309.48895,72,68,40
309.27365,309.48895,75,68,40
309.49588,309.71115,72,71,40
309.49588,309.71115,77,71,40
309.7181,309.93338,72,74,40
309.7181,309.93338,75,74,40
309.94034,310.1556,72,77,40
309.94034,310.1556,75,77,40
310.16254,310.37784,72,80,40
310.16254,310.37784,74,80,40
310.38477,310.71115,71,83,40
310.38477,310.71115,74,83,40
311.27365,311.4299,67,92,40
311.49588,311.65213,69,92,40
311.7181,311.87436,71,84,40
311.94034,312.0966,74,76,40
312.16254,312.30838,78,68,40
312.38477,312.71115,79,60,40
313.27365,313.4299,71,92,40
313.49588,313.65213,74,92,40
313.7181,313.87436,79,82,40
313.9403,314.09656,83,71,40
314.16254,314.30838,86,60,40
314.38477,315.27365,88,92,40
315.55142,315.71115,86,92,40
315.7181,316.0445,88,92,40
316.2181,316.3778,86,92,40
316.38477,316.71115,84,92,40
316.88477,317.0445,79,92,40
317.05142,317.3778,84,92,40
317.55142,317.71115,86,92,40
317.7181,318.0445,88,92,40
318.2181,318.3778,84,92,40
318.38477,319.2667,93,92,40
319.27365,319.48892,91,92,40
319.49588,319.71115,89,92,40
319.7181,319.93338,91,92,40
319.9403,320.15558,84,92,40
320.27365,320.3778,91,92,40
320.38477,321.2667,93,92,40
321.27365,321.48892,91,92,40
321.49588,321.71115,89,92,40
321.71808,321.93338,91,92,40
321.9403,322.15558,84,92,40
322.27365,322.3778,91,92,40
322.38477,323.27365,93,92,40
323.38477,323.71115,88,92,40
323.71808,324.04446,85,92,40
324.21808,324.3778,88,92,40
324.38477,324.9403,90,92,40
325.05142,326.21115,91,92,40
326.21808,326.3778,86,92,40
326.38477,326.71808,89,92,40
326.71808,327.04446,88,92,40
327.05142,327.16254,86,92,40
327.38477,327.49585,84,92,40
327.71808,327.8292,83,92,40
328.21808,328.3778,84,92,40
328.38477,328.9403,86,92,40
329.55142,329.6278,67,92,40
329.55142,329.6278,79,92,40
329.63477,329.71115,67,92,40
329.63477,329.71115,79,92,40
329.71808,330.04446,67,92,40
329.71808,330.04446,79,92,40
330.21808,330.29446,67,92,40
330.30142,330.3778,67,92,40
330.38474,330.54446,60,92,40
330.38474,330.71115,67,92,40
330.46808,330.71115,76,92,40
330.88474,330.96115,67,92,40
330.88474,330.96115,79,92,40
330.96808,331.04446,67,92,40
330.96808,331.04446,79,92,40
331.05142,331.3778,67,92,40
331.05142,331.3778,79,92,40
331.55142,331.6278,55,92,40
331.55142,331.6278,67,92,40
331.63474,331.71115,55,92,40
331.63474,331.71115,67,92,40
331.71808,332.04446,55,92,40
331.71808,332.04446,67,92,40
332.21808,332.29446,55,92,40
332.30142,332.3778,55,92,40
332.38474,332.71115,64,92,40
332.38474,332.71115,72,92,40
332.88474,332.96115,67,92,40
332.88474,332.96115,79,92,40
332.96808,333.04446,67,92,40
332.96808,333.04446,79,92,40
333.05142,333.3778,67,92,40
333.05142,333.3778,79,92,40
333.55142,333.6278,55,92,40
333.55142,333.6278,67,92,40
333.63474,333.71112,55,92,40
333.63474,333.71112,67,92,40
333.71808,334.04446,55,92,40
333.71808,334.04446,67,92,40
334.38474,334.54446,58,92,40
334.38474,334.71112,67,92,40
334.46808,334.71112,75,92,40
334.88474,334.96112,70,92,40
334.88474,334.96112,82,92,40
334.96808,335.04446,70,92,40
334.96808,335.04446,82,92,40
335.05142,335.3778,70,92,40
335.05142,335.3778,82,92,40
335.55142,335.6278,58,92,40
335.55142,335.6278,70,92,40
335.63474,335.71112,58,92,40
335.63474,335.71112,70,92,40
335.71808,336.04446,58,92,40
335.71808,336.04446,70,92,40
336.21808,336.29446,58,92,40
336.30142,336.3778,58,92,40
336.38474,336.71112,67,92,40
336.38474,336.71112,75,92,40
336.88474,336.96112,70,92,40
336.88474,336.96112,82,92,40
336.96808,337.04446,70,92,40
336.96808,337.04446,82,92,40
337.05142,337.3778,70,92,40
337.05142,337.3778,82,92,40
337.55142,337.6278,58,92,40
337.55142,337.6278,70,92,40
337.63474,337.71112,58,92,40
337.63474,337.71112,70,92,40
337.71808,338.04446,58,92,40
337.71808,338.04446,70,92,40
338.21808,338.29446,63,92,40
338.30142,338.3778,63,92,40
338.38474,338.71112,56,92,40
338.38474,338.71112,63,92,40
338.38474,338.71112,72,92,40
338.88474,338.96112,72,92,40
338.88474,338.96112,78,92,40
338.96808,339.04446,72,92,40
338.96808,339.04446,78,92,40
339.05142,339.3778,72,92,40
339.05142,339.3778,78,92,40
339.55142,339.6278,72,92,40
339.55142,339.6278,78,92,40
339.63474,339.71112,72,92,40
339.63474,339.71112,78,92,40
339.71808,340.04446,72,92,40
339.71808,340.04446,78,92,40
340.21808,340.29446,72,92,40
340.21808,340.29446,78,92,40
340.3014,340.3778,72,92,40
340.3014,340.3778,78,92,40
340.38474,340.71112,72,92,40
340.38474,340.71112,78,92,40
340.88474,340.96112,72,92,40
340.88474,340.96112,78,92,40
340.96808,341.04446,72,92,40
340.96808,341.04446,78,92,40
341.0514,341.3778,72,92,40
341.0514,341.3778,78,92,40
341.5514,341.6278,72,92,40
341.5514,341.6278,78,92,40
341.63474,341.71112,72,92,40
341.63474,341.71112,78,92,40
341.71808,342.04446,72,92,40
341.71808,342.04446,78,92,40
342.21808,342.29446,72,92,40
342.21808,342.29446,78,92,40
342.3014,342.3778,72,92,40
342.3014,342.3778,78,92,40
342.38474,342.71112,71,92,40
342.38474,342.71112,79,92,40
343.0514,343.2667,67,92,40
343.27362,343.4889,67,75,40
343.49585,343.71112,67,60,40
343.71808,343.93335,68,92,40
343.94028,344.15558,68,75,40
344.1625,344.37778,68,60,40
344.38474,344.6,74,92,40
344.60696,344.82224,74,75,40
344.8292,345.04446,74,60,40
345.0514,345.2667,74,92,40
345.27362,345.4889,74,75,40
345.49585,345.71112,71,60,40
345.71808,345.93335,72,92,40
345.94028,346.15558,72,75,40
346.1625,346.37778,79,60,40
346.38474,346.6,78,92,40
346.60696,346.82224,78,75,40
346.8292,347.04446,78,60,40
347.0514,347.26666,77,92,40
347.27362,347.4889,77,75,40
347.49585,347.71112,77,75,40
347.71808,347.93335,76,75,40
347.94028,348.15558,76,75,40
348.1625,348.37778,76,75,40
348.38474,348.6,75,75,40
348.60696,348.82224,75,75,40
348.82916,349.04446,75,75,40
349.0514,349.26666,74,75,40
349.27362,349.4889,74,75,40
349.49585,349.71112,74,75,40
349.71808,349.93335,72,75,40
349.94028,350.15558,72,75,40
350.1625,350.37778,74,75,40
350.38474,350.49585,75,75,40
350.71805,350.82916,72,75,40
350.71805,350.82916,77,75,40
351.0514,351.37778,67,92,40
351.0514,351.71112,72,92,40
351.21805,351.71112,79,92,40
351.71805,352.38474,56,92,40
352.38474,353.27362,62,92,40
353.38474,353.71805,59,92,40
353.71805,354.0514,60,92,40
354.0514,354.38474,67,92,40
354.38474,354.71805,66,92,40
354.71805,355.0514,72,92,40
355.0514,355.38474,71,92,40
355.38474,355.71112,77,92,40
355.71805,356.27362,75,92,40
356.71805,357.37778,74,92,40
357.38474,357.71805,71,92,40
357.71805,358.0514,72,92,40
358.0514,358.37778,79,92,40
358.38474,358.6,78,92,40
358.60693,358.82224,78,92,40
358.82916,359.04443,78,92,40
359.0514,359.26666,77,92,40
359.27362,359.4889,77,92,40
359.49582,359.71112,77,92,40
359.71805,359.93332,76,92,40
359.94028,360.15555,76,92,40
360.1625,360.37778,76,92,40
360.38474,360.6,75,92,40
360.60693,360.8222,75,92,40
360.82916,361.04443,75,92,40
361.0514,361.26666,74,92,40
361.27362,361.4889,74,92,40
361.49582,361.71112,74,92,40
361.71805,361.93332,74,92,40
361.94028,362.15555,74,92,40
362.1625,362.37778,74,92,40
362.3847,362.501,75,92,40
362.73355,362.84982,72,92,40
362.73355,362.84982,77,92,40
363.0824,363.4496,72,92,40
363.0824,363.4496,79,92,40
363.8324,364.25204,71,92,40
363.8324,364.25204,79,92,40
364.68954,365.05673,60,92,40
364.68954,365.43173,66,92,40
364.87704,365.43173,72,92,40
384.6965,385.6965,67,60,40
385.6965,386.6965,72,60,40
386.6965,387.6965,71,65,40
387.6965,387.86316,72,70,40
387.86316,388.02982,74,70,40
388.02982,388.1965,72,70,40
388.1965,388.4465,71,71,40
388.4465,388.6965,72,72,40
388.6965,389.6965,74,73,40
389.6965,390.6965,71,79,40
390.6965,391.52982,72,85,40
391.6965,392.6965,77,92,40
392.6965,393.6965,76,75,40
393.6965,394.1965,74,75,40
394.1965,394.68607,69,75,40
394.6965,395.6965,72,60,40
395.6965,397.02982,71,45,40
397.1965,397.68607,71,60,40
397.6965,398.6965,71,60,40
398.6965,400.02982,72,65,40
400.1965,400.68607,72,73,40
400.6965,401.1965,72,75,40
401.1965,401.6965,73,77,40
401.6965,403.02982,74,80,40
403.1965,403.68607,74,89,40
403.6965,404.1965,75,92,40
404.1965,404.6965,76,92,40
404.6965,405.1965,77,75,40
405.1965,405.6965,76,75,40
405.6965,406.1965,74,60,40
406.1965,406.68607,72,60,40
406.6965,407.1965,72,60,40
407.1965,407.6965,69,62,40
407.6965,408.1965,71,64,40
408.1965,408.68607,74,66,40
408.6965,410.18607,79,68,40
410.1965,410.68607,80,74,40
410.6965,412.02982,81,76,40
412.1965,412.68607,82,82,40
412.6965,414.02982,83,84,40
414.1965,414.68607,83,90,40
414.6965,417.4465,84,92,40
417.6965,419.1965,84,92,40
419.1965,419.6965,81,92,40
419.6965,420.1965,78,92,40
420.1965,420.6965,75,92,40
420.6965,421.1965,72,92,40
421.1965,421.68607,69,92,40
421.6965,422.52982,66,92,40
423.6965,425.1965,90,92,40
425.1965,425.6965,87,92,40
425.6965,426.1965,84,92,40
426.1965,426.6965,81,92,40
426.6965,427.1965,78,92,40
427.1965,427.68607,75,92,40
427.6965,428.52982,69,92,40
428.6965,430.1965,90,92,40
430.1965,430.6965,87,92,40
430.6965,431.2322,81,92,40
431.2322,431.7679,78,92,40
431.7679,432.3235,77,92,40
432.3235,433.44394,75,92,40
433.45596,434.03287,75,92,40
434.03287,434.52246,77,92,40
434.53287,435.52246,75,92,40
435.53287,436.52246,74,92,40
436.53287,437.02246,75,92,40
437.03287,437.53287,76,92,40
437.53287,438.52246,77,92,40
438.53287,439.52246,74,92,40
439.53287,439.65787,75,92,40
439.65787,439.7412,77,92,40
439.7412,439.82455,75,92,40
439.82455,439.90787,74,92,40
439.90787,440.02246,75,92,40
440.03287,440.53287,82,92,40
440.53287,441.02246,80,92,40
441.03287,441.53287,80,92,40
441.53287,442.02246,79,92,40
442.03287,442.3662,79,92,40
442.3662,442.69955,77,92,40
442.69955,443.02246,72,92,40
443.03287,444.03287,75,92,40
444.03287,445.3662,74,92,40
445.53287,446.02246,74,92,40
446.03287,447.03287,74,92,40
447.03287,448.3662,75,92,40
448.53287,449.02246,75,92,40
449.03287,449.38705,75,92,40
449.53287,449.69955,76,92,40
450.03287,451.3662,77,92,40
451.53287,452.02246,77,92,40
452.03287,452.53287,77,92,40
452.53287,453.03287,78,92,40
453.03287,453.53287,79,92,40
453.53287,454.02246,75,92,40
454.03287,454.38705,72,92,40
454.53287,454.69955,69,92,40
455.03287,456.03287,72,75,40
456.03287,456.8662,70,60,40
479.03287,480.03287,69,60,40
480.03287,481.03287,67,60,40
481.03287,481.8662,64,60,40
482.03287,482.8662,66,60,40
483.03287,484.3662,74,63,40
484.53287,485.02246,74,68,40
485.03287,485.53287,74,69,40
485.53287,486.02246,75,70,40
486.03287,487.3662,75,72,40
487.53287,488.02246,76,78,40
488.03287,488.53287,79,80,40
488.53287,489.02246,76,82,40
489.03287,490.3662,78,84,40
490.53287,491.02246,79,90,40
491.03287,492.03287,82,92,40
492.03287,492.8662,81,60,40
493.78287,494.03287,62,60,40
494.03287,494.3662,73,60,40
494.3662,494.69955,74,60,40
494.69955,495.02246,78,60,40
495.03287,495.3662,79,60,40
495.3662,495.69955,81,60,40
495.69955,496.03287,79,60,40
496.03287,496.3662,78,60,40
496.3662,496.69955,79,60,40
496.69955,497.02246,78,60,40
497.03287,497.3662,77,60,40
497.3662,497.69955,79,60,40
497.69955,498.03287,77,60,40
498.03287,498.3662,75,60,40
498.3662,498.69955,77,60,40
498.69955,499.03287,75,60,40
499.03287,499.3662,73,60,40
499.3662,499.69955,75,60,40
499.69955,500.02246,73,60,40
500.03287,500.3662,72,60,40
500.3662,500.69955,71,60,40
500.69955,501.03287,72,60,40
501.03287,501.3662,72,60,40
501.3662,501.69955,73,60,40
501.69955,502.03287,72,60,40
502.03287,502.3662,68,60,40
502.3662,502.69955,70,60,40
502.69955,503.02246,68,60,40
503.03287,503.3662,66,60,40
503.3662,503.69955,67,61,40
503.69955,504.03287,66,62,40
504.03287,504.3662,67,63,40
504.3662,504.69955,69,64,40
504.69955,505.02246,67,65,40
505.03287,505.3662,63,66,40
505.3662,505.69955,65,67,40
505.69955,506.03287,63,68,40
506.03287,506.3662,62,69,40
506.3662,506.69955,63,70,40
506.69955,507.02246,62,71,40
507.03287,507.3662,60,72,40
507.3662,507.69955,62,73,40
507.69955,508.03287,60,74,40
508.03287,508.3662,59,75,40
508.3662,508.69955,60,76,40
508.69955,509.02246,59,78,40
509.03287,509.3662,58,80,40
509.3662,509.69955,63,82,40
509.69955,510.03287,67,84,40
510.03287,510.3662,70,86,40
510.3662,510.69955,75,88,40
510.69955,511.03287,79,90,40
511.03287,511.3662,82,92,40
511.3662,511.69955,79,92,40
511.69955,512.0329,75,75,40
512.0329,512.52246,70,60,40
514.0329,514.3662,82,60,40
514.3662,514.6995,79,60,40
514.6995,515.0329,75,60,40
515.0329,515.52246,70,60,40
517.0329,517.3662,82,60,40
517.3662,517.6995,79,60,40
517.6995,518.02246,75,60,40
518.0329,518.52246,75,60,40
520.0329,520.3662,68,60,40
520.3662,520.6995,72,60,40
520.6995,521.02246,77,60,40
521.0329,522.0329,66,60,40
522.0329,522.52246,65,60,40
523.0329,523.3662,77,60,40
523.3662,523.6995,74,60,40
523.6995,524.02246,70,60,40
524.0329,524.52246,70,60,40
526.0329,526.3662,82,60,40
526.3662,526.6995,79,60,40
526.6995,527.02246,75,60,40
527.0329,527.52246,75,60,40
529.0329,529.3662,87,64,40
529.3662,529.6995,84,64,40
529.6995,530.0329,80,64,40
530.0329,530.52246,75,65,40
532.0329,532.3662,70,70,40
532.3662,532.6995,74,71,40
532.6995,533.02246,80,72,40
533.0329,533.52246,79,73,40
534.0329,534.52246,78,75,40
535.0329,535.3662,68,77,40
535.3662,535.6995,71,78,40
535.6995,536.02246,76,79,40
536.0329,536.52246,75,80,40
537.0329,537.3662,70,84,40
537.3662,537.6995,75,85,40
537.6995,538.02246,78,86,40
538.0329,538.5329,82,87,40
538.5329,539.02246,74,89,40
539.0329,539.8662,66,92,40
539.0329,539.8662,75,92,40
540.5329,541.0329,63,75,40
541.0329,541.5329,66,105,40
541.5329,542.02246,63,75,40
543.0329,543.3662,70,75,40
543.3662,543.6995,75,75,40
543.6995,544.02246,79,75,40
544.0329,544.3662,87,75,40
544.3662,544.6995,79,75,40
544.6995,545.02246,75,75,40
546.0329,546.3662,68,75,40
546.3662,546.6995,72,75,40
546.6995,547.02246,77,75,40
547.0329,547.3662,84,75,40
547.3662,547.6995,80,75,40
547.6995,548.02246,72,75,40
549.0329,549.3662,70,75,40
549.3662,549.6995,75,75,40
549.6995,550.02246,79,75,40
550.0329,550.5329,82,75,40
550.5329,551.02246,74,75,40
551.0329,551.8662,67,75,40
551.0329,551.8662,75,75,40
552.0329,553.3662,79,75,40
553.5329,554.02246,79,75,40
554.0329,554.5329,79,75,40
554.5329,555.02246,80,76,40
555.0329,556.5329,80,77,40
556.5329,557.02246,86,81,40
557.0329,557.5329,86,82,40
557.5329,558.02246,87,83,40
558.0329,559.3662,87,84,40
559.5329,560.02246,87,90,40
560.0329,560.5329,92,92,40
560.5329,561.0329,91,92,40
561.0329,561.5329,89,92,40
561.5329,562.02246,84,92,40
562.0329,562.1579,86,92,40
562.1579,562.2829,87,90,40
562.2829,562.4079,86,88,40
562.4079,562.5329,87,86,40
562.5329,562.6579,86,84,40
562.6579,562.7829,87,82,40
562.7829,562.9079,84,80,40
562.9079,563.02246,86,78,40
563.0329,563.5329,87,75,40
563.5329,564.02246,82,75,40
564.0329,567.3662,82,75,40
567.5329,568.02246,82,75,40
568.0329,570.5329,82,75,40
570.5329,571.02246,87,75,40
571.0329,571.8662,87,80,40
572.0329,572.5329,92,92,40
572.5329,573.0329,91,92,40
573.0329,573.5329,89,92,40
573.5329,574.02246,84,92,40
574.0329,574.1579,86,92,40
574.1579,574.2829,87,90,40
574.2829,574.4079,86,88,40
574.4079,574.5329,87,86,40
574.5329,574.6579,86,84,40
574.6579,574.7829,87,82,40
574.7829,574.9079,84,80,40
574.9079,575.02246,86,78,40
575.0329,575.5329,87,75,40
575.5329,576.0329,86,75,40
576.0329,576.5329,84,75,40
576.5329,577.02246,79,75,40
577.0329,577.1579,79,75,40
577.1579,577.2829,80,75,40
577.2829,577.4079,79,75,40
577.4079,577.5329,80,75,40
577.5329,577.6579,79,75,40
577.6579,577.7829,80,75,40
577.7829,577.9079,77,75,40
577.9079,578.02246,79,75,40
578.0329,578.5329,80,75,40
578.5329,579.0329,79,73,40
579.0329,579.5329,77,71,40
579.5329,580.02246,72,69,40
580.0329,580.1579,74,66,40
580.1579,580.2829,75,66,40
580.2829,580.4079,74,66,40
580.4079,580.5329,75,65,40
580.5329,580.6579,74,64,40
580.6579,580.7829,75,63,40
580.7829,580.9079,74,62,40
580.9079,581.0329,75,61,40
581.0329,581.1579,74,60,40
581.1579,581.2829,75,60,40
581.2829,581.4079,74,60,40
581.4079,581.5329,75,60,40
581.5329,581.6579,74,60,40
581.6579,581.7829,75,60,40
581.7829,581.9079,74,60,40
581.9079,582.0329,75,60,40
582.0329,582.1579,74,60,40
582.1579,582.2829,75,62,40
582.2829,582.4079,74,64,40
582.4079,582.5329,75,66,40
582.5329,582.6579,74,68,40
582.6579,582.7829,75,70,40
582.7829,582.9079,74,72,40
582.9079,583.0329,75,74,40
583.0329,583.1579,74,76,40
583.1579,583.2829,75,78,40
583.2829,583.4079,74,80,40
583.4079,583.5329,75,82,40
583.5329,583.7829,72,84,40
583.7829,584.02246,74,88,40
584.0329,584.8662,75,92,40
595.0329,596.0329,68,92,40
596.0329,597.0329,77,92,40
597.0329,598.0329,75,92,40
598.0329,598.8662,73,92,40
599.0329,600.0329,72,75,40
600.0329,601.0329,68,75,40
601.0329,601.8662,65,75,40
602.0329,603.0329,63,75,40
603.0329,604.0329,62,75,40
604.0329,604.8662,63,75,40
605.0329,607.0329,59,75,40
607.0329,607.8662,58,75,40
608.0329,609.0329,63,75,40
609.0329,610.0329,62,75,40
610.0329,610.8662,63,75,40
611.0329,613.0329,59,75,40
613.0329,613.8662,58,75,40
614.0329,615.0329,63,75,40
615.0329,616.0329,62,73,40
616.0329,616.8662,63,71,40
617.0329,619.0329,59,69,40
619.0329,619.8662,58,65,40
620.0329,622.1757,59,63,40
622.1757,623.0686,58,59,40
623.2472,625.39,56,57,40
625.39,626.2829,55,53,40
626.4614,628.76917,56,51,40
628.76917,629.73065,55,47,40
629.923,633.3605,55,45,40
633.673,637.423,55,38,40
637.7639,641.8889,55,30,40
3.0,4.0,67,75,41
3.0,5.0,58,75,41
4.0,5.0,65,75,41
5.0,5.8333335,58,75,41
5.0,5.8333335,67,75,41
6.0,7.0,68,79,41
6.0,8.0,58,79,41
7.0,8.0,65,83,41
8.0,8.833333,58,87,41
8.0,8.833333,67,87,41
9.0,9.489583,51,92,41
9.0,9.489583,63,92,41
9.5,10.489583,51,92,41
9.5,10.489583,63,92,41
10.5,11.489583,51,92,41
10.5,11.489583,63,92,41
11.5,11.989583,60,92,41
11.5,11.989583,63,92,41
12.0,13.0,60,75,41
13.0,14.333333,58,60,41
12.0,14.333333,65,75,41
14.5,14.989583,50,60,41
14.5,14.989583,60,60,41
15.0,15.5,50,60,41
15.0,15.5,59,60,41
15.5,15.989583,65,62,41
16.0,17.333334,55,64,41
16.0,17.333334,63,64,41
17.5,17.989584,51,72,41
17.5,17.989584,61,72,41
18.0,18.5,51,74,41
18.0,18.5,60,74,41
18.5,18.989584,66,77,41
19.0,20.333334,56,80,41
19.0,20.333334,65,80,41
20.5,20.989584,57,89,41
20.5,20.989584,63,89,41
21.0,21.5,58,92,41
21.0,21.5,62,92,41
21.5,21.989584,68,92,41
22.0,22.833334,58,92,41
22.0,22.833334,67,92,41
23.0,23.833334,57,92,41
23.0,23.833334,63,92,41
24.0,25.0,57,75,41
24.0,25.0,63,75,41
25.0,26.75,58,60,41
25.0,26.75,62,60,41
27.0,27.489584,58,60,41
27.0,27.489584,68,60,41
27.5,28.489584,58,62,41
27.5,28.489584,68,62,41
28.5,29.489584,58,66,41
28.5,29.489584,68,66,41
29.5,29.989584,58,70,41
29.5,29.989584,62,70,41
30.0,30.489584,58,72,41
30.0,30.489584,68,72,41
30.5,31.489584,58,74,41
30.5,31.489584,68,74,41
31.5,32.0,68,80,41
31.5,32.489582,58,80,41
32.0,32.489582,65,83,41
32.5,32.989582,58,86,41
32.5,32.989582,65,86,41
33.5,34.489582,55,92,41
33.5,34.489582,63,92,41
34.5,35.489582,55,92,41
34.5,35.489582,63,92,41
35.5,36.489582,63,92,41
35.5,36.489582,67,92,41
36.5,37.489582,63,92,41
36.5,37.489582,67,92,41
37.5,38.489582,63,60,41
37.5,38.489582,67,60,41
38.5,39.489582,63,45,41
38.5,39.489582,67,45,41
39.5,40.489582,63,45,41
39.5,40.489582,67,45,41
40.5,41.489582,63,92,41
40.5,41.489582,67,92,41
41.5,41.989582,63,92,41
41.5,41.989582,67,92,41
42.0,42.833332,60,92,41
42.0,42.833332,66,92,41
43.0,43.833332,58,92,41
43.0,43.833332,67,92,41
44.0,44.833332,63,92,41
44.0,44.833332,69,92,41
45.0,45.833332,62,92,41
45.0,45.833332,70,92,41
46.0,46.833332,67,92,41
46.0,46.833332,73,92,41
47.0,48.833332,65,92,41
47.0,48.833332,74,92,41
49.0,50.0,67,75,41
49.0,50.0,70,75,41
50.0,50.833332,64,60,41
50.0,50.833332,67,60,41
51.0,51.833332,57,45,41
51.0,51.833332,66,45,41
52.0,53.0,74,60,41
53.0,54.0,73,60,41
54.0,55.0,72,60,41
55.0,56.0,71,60,41
56.0,56.833332,70,60,41
57.0,58.0,69,60,41
58.0,59.0,62,70,41
59.0,60.0,67,81,41
60.0,61.0,64,92,41
61.0,61.833332,66,75,41
62.0,62.322918,50,60,41
62.0,62.322918,62,60,41
62.333332,62.65625,50,60,41
62.333332,62.65625,62,60,41
62.666668,62.989582,50,60,41
62.666668,62.989582,62,60,41
63.0,63.322918,50,60,41
63.0,63.322918,62,60,41
63.333332,63.65625,50,55,41
63.333332,63.65625,62,55,41
63.666668,63.989582,50,50,41
63.666668,63.989582,62,50,41
64.0,64.322914,55,45,41
64.0,64.322914,67,45,41
64.333336,64.65625,55,45,41
64.333336,64.65625,67,45,41
64.666664,64.989586,55,45,41
64.666664,64.989586,67,45,41
65.0,65.322914,60,45,41
65.0,65.322914,67,45,41
65.333336,65.65625,60,45,41
65.333336,65.65625,67,45,41
65.666664,65.989586,60,45,41
65.666664,65.989586,67,45,41
66.0,66.322914,59,45,41
66.0,66.322914,67,45,41
66.333336,66.65625,59,45,41
66.333336,66.65625,67,45,41
66.666664,66.989586,59,45,41
66.666664,66.989586,67,45,41
67.0,67.322914,60,45,41
67.0,67.322914,67,45,41
67.333336,67.65625,60,45,41
67.333336,67.65625,67,45,41
67.666664,67.989586,60,45,41
67.666664,67.989586,67,45,41
68.0,68.322914,58,45,41
68.0,68.322914,67,45,41
68.333336,68.65625,58,45,41
68.333336,68.65625,67,45,41
68.666664,68.989586,58,45,41
68.666664,68.989586,67,45,41
69.0,69.322914,57,45,41
69.0,69.322914,67,45,41
69.333336,69.65625,57,45,41
69.333336,69.65625,67,45,41
69.666664,69.989586,57,45,41
69.666664,69.989586,67,45,41
70.0,70.322914,56,45,41
70.0,70.322914,65,45,41
70.333336,70.65625,56,45,41
70.333336,70.65625,65,45,41
70.666664,70.989586,56,45,41
70.666664,70.989586,65,45,41
71.0,71.322914,65,45,41
71.333336,71.65625,65,45,41
71.666664,71.989586,65,45,41
72.0,72.322914,63,45,41
72.333336,72.65625,63,45,41
72.666664,72.989586,63,45,41
73.0,73.322914,62,45,41
73.333336,73.65625,62,48,41
73.666664,73.989586,62,51,41
74.0,74.322914,54,54,41
74.333336,74.65625,54,57,41
74.666664,74.989586,54,60,41
75.0,75.322914,55,63,41
75.333336,75.65625,55,66,41
75.666664,75.989586,55,69,41
76.0,76.322914,54,72,41
76.0,76.322914,57,72,41
76.333336,76.65625,54,75,41
76.333336,76.65625,57,75,41
76.666664,76.989586,54,78,41
76.666664,76.989586,57,78,41
77.0,77.322914,55,81,41
77.0,77.322914,59,81,41
77.333336,77.65625,55,84,41
77.333336,77.65625,59,84,41
77.666664,77.989586,55,88,41
77.666664,77.989586,59,88,41
78.0,79.333336,55,92,41
78.0,79.333336,58,92,41
79.5,80.0,55,92,41
80.0,80.5,58,92,41
80.5,80.989586,63,92,41
81.0,82.0,58,92,41
81.0,82.0,67,92,41
82.0,83.0,58,90,41
82.0,83.0,65,90,41
83.0,83.833336,58,88,41
83.0,83.833336,67,88,41
84.0,85.0,58,86,41
84.0,85.0,68,86,41
85.0,86.0,58,84,41
85.0,86.0,65,84,41
86.0,86.833336,58,81,41
86.0,86.833336,67,81,41
87.0,87.489586,51,78,41
87.0,87.489586,63,78,41
87.5,88.489586,51,77,41
87.5,88.489586,63,77,41
88.5,89.489586,51,75,41
88.5,89.489586,63,75,41
89.5,89.989586,60,73,41
89.5,89.989586,63,73,41
90.0,91.0,60,72,41
91.0,91.833336,58,68,41
90.0,91.833336,65,72,41
92.0,92.833336,58,64,41
92.0,92.833336,70,64,41
93.0,93.489586,63,60,41
93.0,93.489586,70,60,41
93.5,94.489586,63,60,41
93.5,94.489586,70,60,41
94.5,95.0,62,60,41
95.0,95.489586,63,61,41
94.5,95.489586,70,60,41
95.5,95.989586,67,62,41
95.5,95.989586,70,62,41
96.0,96.489586,63,63,41
96.0,96.489586,68,63,41
96.5,97.489586,63,64,41
96.5,97.489586,68,64,41
97.5,97.989586,63,66,41
97.5,97.989586,67,66,41
98.0,98.333336,68,67,41
98.333336,98.666664,63,67,41
98.666664,98.989586,60,67,41
99.0,99.333336,63,67,41
99.333336,99.666664,65,67,41
99.666664,99.989586,63,67,41
100.0,100.333336,63,67,41
100.333336,100.666664,60,68,41
100.666664,100.989586,57,69,41
101.0,101.333336,62,70,41
101.333336,101.666664,63,71,41
101.666664,101.989586,62,72,41
102.0,102.333336,63,73,41
102.333336,102.666664,58,74,41
102.666664,102.989586,55,75,41
103.0,103.333336,54,76,41
103.333336,103.666664,58,77,41
103.666664,103.989586,63,78,41
104.0,104.5,59,79,41
104.5,104.989586,64,80,41
105.0,105.833336,66,81,41
106.0,106.5,63,84,41
106.5,107.0,66,86,41
107.0,107.5,70,88,41
107.5,107.989586,68,90,41
108.0,108.833336,60,92,41
108.0,108.833336,66,92,41
109.5,110.0,63,75,41
110.0,110.5,66,105,41
110.5,110.989586,63,75,41
111.0,111.234375,67,92,41
111.333336,111.56771,63,92,41
111.666664,111.885414,79,92,41
112.0,112.5,77,92,41
112.5,113.0,75,92,41
113.0,113.5,74,92,41
113.5,113.989586,72,92,41
114.0,115.0,70,92,41
115.0,115.833336,68,92,41
116.0,116.5,60,92,41
116.5,116.989586,65,92,41
117.0,117.5,67,92,41
117.5,118.0,58,90,41
118.0,118.5,70,87,41
118.5,119.0,58,84,41
119.0,119.5,68,81,41
119.5,119.989586,62,78,41
120.0,120.489586,51,75,41
120.0,120.989586,58,75,41
120.25,120.989586,67,75,41
121.0,122.5,58,92,41
122.5,122.989586,67,92,41
123.0,123.833336,68,92,41
124.0,125.5,58,92,41
125.5,125.989586,70,92,41
126.0,127.0,63,92,41
127.0,127.833336,75,92,41
128.0,128.83333,63,92,41
129.0,130.0,65,92,41
130.0,130.83333,77,92,41
131.0,131.5,70,75,41
131.5,131.98958,72,75,41
132.0,132.83333,74,75,41
133.0,133.32292,65,45,41
133.33333,133.65625,65,45,41
133.66667,133.98958,65,45,41
134.0,134.32292,65,45,41
134.0,134.32292,68,45,41
134.33333,134.65625,65,45,41
134.33333,134.65625,68,45,41
134.66667,134.98958,65,45,41
134.66667,134.98958,68,45,41
135.0,135.32292,65,45,41
135.0,135.32292,68,45,41
135.33333,135.65625,65,45,41
135.33333,135.65625,68,45,41
135.66667,135.98958,65,45,41
135.66667,135.98958,68,45,41
136.0,136.32292,65,45,41
136.0,136.32292,69,45,41
136.33333,136.65625,65,45,41
136.33333,136.65625,69,45,41
136.66667,136.98958,65,45,41
136.66667,136.98958,69,45,41
137.0,137.32292,65,45,41
137.0,137.32292,70,45,41
137.33333,137.65625,65,45,41
137.33333,137.65625,70,45,41
137.66667,137.98958,65,45,41
137.66667,137.98958,70,45,41
138.0,138.32292,65,45,41
138.0,138.32292,70,45,41
138.33333,138.65625,65,47,41
138.33333,138.65625,70,47,41
138.66667,138.98958,65,49,41
138.66667,138.98958,70,49,41
139.0,139.32292,65,51,41
139.0,139.32292,70,51,41
139.33333,139.65625,65,53,41
139.33333,139.65625,70,53,41
139.66667,139.98958,65,55,41
139.66667,139.98958,70,55,41
140.0,140.32292,68,57,41
140.0,140.32292,70,57,41
140.33333,140.65625,68,59,41
140.33333,140.65625,70,59,41
140.66667,140.98958,68,61,41
140.66667,140.98958,70,61,41
141.0,141.32292,68,63,41
141.0,141.32292,70,63,41
141.33333,141.65625,68,65,41
141.33333,141.65625,70,65,41
141.66667,141.98958,67,67,41
141.66667,141.98958,70,67,41
142.0,142.32292,67,69,41
142.0,142.32292,70,69,41
142.33333,142.65625,67,71,41
142.33333,142.65625,70,71,41
142.66667,142.98958,65,73,41
142.66667,142.98958,70,73,41
143.0,143.32292,64,75,41
143.0,143.32292,70,75,41
143.33333,143.65625,64,77,41
143.33333,143.65625,70,77,41
143.66667,143.98958,64,80,41
143.66667,143.98958,70,80,41
144.0,144.83333,65,83,41
144.0,144.83333,68,83,41
145.0,146.5,60,92,41
146.5,146.98958,68,92,41
147.0,147.83333,70,92,41
148.0,149.5,60,92,41
149.5,149.98958,72,92,41
150.0,151.0,65,92,41
151.0,151.83333,77,92,41
152.0,152.83333,77,92,41
153.0,154.0,79,92,41
154.0,154.83333,67,92,41
155.0,155.5,65,75,41
155.5,155.98958,67,75,41
156.0,156.83333,64,60,41
157.0,157.32292,67,45,41
157.33333,157.65625,67,45,41
157.66667,157.98958,67,45,41
158.0,158.32292,67,45,41
158.0,158.32292,70,45,41
158.33333,158.65625,67,45,41
158.33333,158.65625,70,45,41
158.66667,158.98958,67,45,41
158.66667,158.98958,70,45,41
159.0,159.32292,67,45,41
159.0,159.32292,70,45,41
159.33333,159.65625,67,45,41
159.33333,159.65625,70,45,41
159.66667,159.98958,67,45,41
159.66667,159.98958,70,45,41
160.0,160.32292,67,45,41
160.0,160.32292,71,45,41
160.33333,160.65625,67,45,41
160.33333,160.65625,71,45,41
160.66667,160.98958,67,45,41
160.66667,160.98958,71,45,41
161.0,161.32292,67,45,41
161.0,161.32292,72,45,41
161.33333,161.65625,67,45,41
161.33333,161.65625,72,45,41
161.66667,161.98958,67,45,41
161.66667,161.98958,72,45,41
162.0,162.32292,67,45,41
162.0,162.32292,72,45,41
162.33333,162.65625,67,46,41
162.33333,162.65625,72,46,41
162.66667,162.98958,67,48,41
162.66667,162.98958,72,48,41
163.0,163.32292,67,50,41
163.0,163.32292,72,50,41
163.33333,163.65625,67,52,41
163.33333,163.65625,72,52,41
163.66667,163.98958,67,54,41
163.66667,163.98958,72,54,41
164.0,164.32292,70,56,41
164.0,164.32292,72,56,41
164.33333,164.65625,70,58,41
164.33333,164.65625,72,58,41
164.66667,164.98958,70,60,41
164.66667,164.98958,72,60,41
165.0,165.32292,70,62,41
165.0,165.32292,72,62,41
165.33333,165.65625,70,64,41
165.33333,165.65625,72,64,41
165.66667,165.98958,69,66,41
165.66667,165.98958,72,66,41
166.0,166.32292,69,68,41
166.0,166.32292,72,68,41
166.33333,166.65625,69,70,41
166.33333,166.65625,72,70,41
166.66667,166.98958,69,72,41
166.66667,166.98958,72,72,41
167.0,167.32292,69,74,41
167.0,167.32292,72,74,41
167.33333,167.65625,69,76,41
167.33333,167.65625,72,76,41
167.66667,167.98958,69,78,41
167.66667,167.98958,72,78,41
168.0,168.83333,70,80,41
170.0,171.0,56,92,41
171.0,171.83333,53,92,41
172.5,173.0,74,92,41
173.0,173.5,79,92,41
173.5,173.98958,74,92,41
174.0,174.35417,75,92,41
174.5,174.66667,76,92,41
175.0,175.83333,77,92,41
176.0,176.83333,78,75,41
177.0,177.48958,79,60,41
187.0,188.33333,67,60,41
188.33333,188.66667,69,60,41
188.66667,188.98958,64,60,41
189.0,190.0,67,60,41
190.0,190.83333,66,60,41
191.0,193.0,78,60,41
193.0,193.48958,74,83,41
193.75,193.98958,67,92,41
194.0,194.48958,69,92,41
194.75,194.98958,71,92,41
195.0,195.48958,72,92,41
195.75,195.98958,74,92,41
196.0,196.48958,72,92,41
196.75,196.98958,60,92,41
197.0,197.48958,72,92,41
197.75,197.98958,72,92,41
198.0,198.48958,71,92,41
198.75,198.98958,55,60,41
198.75,198.98958,65,60,41
199.0,199.48958,55,60,41
199.0,199.48958,65,60,41
199.75,199.98958,55,60,41
199.75,199.98958,65,60,41
200.0,200.48958,55,60,41
200.0,200.48958,65,60,41
200.75,200.98958,55,60,41
200.75,200.98958,65,60,41
201.0,201.48958,55,60,41
201.0,201.48958,65,60,41
201.75,201.98958,55,60,41
201.75,201.98958,64,60,41
202.0,202.48958,55,60,41
202.0,202.48958,64,60,41
202.75,202.98958,55,60,41
202.75,202.98958,64,60,41
203.0,203.48958,55,60,41
203.0,203.48958,64,60,41
203.75,203.98958,55,60,41
203.75,203.98958,64,60,41
204.0,204.48958,55,60,41
204.0,204.48958,64,60,41
204.75,204.98958,55,66,41
204.75,204.98958,63,66,41
205.0,205.48958,55,68,41
205.0,205.48958,63,68,41
205.75,205.98958,55,74,41
205.75,205.98958,63,74,41
206.0,206.48958,55,76,41
206.0,206.48958,63,76,41
206.75,206.98958,55,82,41
206.75,206.98958,63,82,41
207.0,207.48958,55,84,41
207.0,207.48958,63,84,41
207.75,207.98958,55,92,41
207.75,207.98958,62,92,41
208.0,208.48958,55,92,41
208.0,208.48958,62,92,41
208.75,208.98958,55,92,41
208.75,208.98958,67,92,41
209.0,209.48958,55,92,41
209.0,209.48958,67,92,41
209.75,209.98958,55,92,41
209.75,209.98958,67,92,41
210.0,210.48958,55,92,41
210.0,210.48958,67,92,41
210.75,210.98958,55,92,41
210.75,210.98958,67,92,41
211.0,211.48958,55,92,41
211.0,211.48958,67,92,41
211.75,211.98958,60,92,41
211.75,211.98958,72,92,41
212.0,212.48958,60,92,41
212.0,212.48958,72,92,41
212.75,212.98958,60,92,41
212.75,212.98958,72,92,41
213.0,214.32292,74,75,41
214.33333,214.5677,71,60,41
214.66667,214.90105,72,60,41
215.0,215.23438,74,68,41
215.33333,215.5677,76,76,41
215.66667,215.88542,77,84,41
216.0,217.0,78,92,41
217.0,217.83333,79,60,41
219.0,220.32292,74,60,41
220.33333,220.5677,71,60,41
220.66667,220.90105,72,66,41
221.0,221.25111,74,72,41
221.35715,221.60826,78,78,41
221.71428,221.94865,81,85,41
222.07143,223.14285,82,92,41
223.14285,224.1044,83,60,41
227.2467,227.32309,55,45,41
227.2467,227.32309,67,45,41
227.33003,227.40642,55,45,41
227.33003,227.40642,67,45,41
227.41336,227.73976,55,45,41
227.41336,227.73976,67,45,41
229.2467,229.32309,55,45,41
229.2467,229.32309,67,45,41
229.33003,229.40642,55,45,41
229.33003,229.40642,67,45,41
229.41336,229.73976,55,45,41
229.41336,229.73976,67,45,41
257.91333,258.07306,48,45,41
257.91333,258.07306,60,45,41
258.08002,258.4064,48,60,41
258.08002,258.4064,60,60,41
258.58002,258.6564,48,60,41
258.58002,258.6564,60,60,41
258.66333,258.73972,48,60,41
258.66333,258.73972,60,60,41
258.74667,258.96194,48,60,41
258.74667,258.96194,60,60,41
258.9689,259.18417,48,70,41
258.9689,259.18417,60,70,41
259.1911,259.4064,48,81,41
259.1911,259.4064,60,81,41
259.41333,259.6286,48,92,41
259.41333,259.6286,60,92,41
259.63556,259.85083,48,60,41
259.63556,259.85083,60,60,41
259.8578,260.07306,48,45,41
259.8578,260.07306,60,45,41
260.08002,260.4064,48,45,41
260.08002,260.4064,60,45,41
260.58,260.6564,48,45,41
260.58,260.6564,60,45,41
260.66333,260.73972,48,45,41
260.66333,260.73972,60,45,41
260.74667,260.96194,48,45,41
260.74667,260.96194,60,45,41
260.9689,261.18417,48,60,41
260.9689,261.18417,60,60,41
261.1911,261.4064,48,76,41
261.1911,261.4064,60,76,41
261.41333,261.6286,48,92,41
261.41333,261.6286,60,92,41
261.63556,261.85083,48,60,41
261.63556,261.85083,60,60,41
261.8578,262.07306,48,45,41
261.8578,262.07306,60,45,41
262.08,262.4064,48,45,41
262.08,262.4064,60,45,41
262.58,262.73972,48,52,41
262.58,262.73972,60,52,41
262.74667,263.23972,48,54,41
262.74667,263.23972,60,54,41
263.41333,263.73972,48,63,41
263.41333,263.73972,60,63,41
263.91333,264.07306,48,72,41
263.91333,264.07306,60,72,41
264.08,264.40637,48,75,41
264.08,264.40637,60,75,41
264.74667,265.07306,55,75,41
265.41333,265.73972,55,75,41
266.08,266.96194,50,60,41
266.96887,267.18417,50,60,41
267.1911,267.40637,52,76,41
267.41333,267.6286,53,92,41
267.63556,267.85083,51,75,41
267.96887,268.07306,50,60,41
268.08,268.96194,50,60,41
268.96887,269.18417,50,81,41
269.1911,269.40637,52,86,41
269.41333,269.6286,53,92,41
269.63556,269.85083,51,75,41
269.96887,270.07306,50,60,41
270.08,270.40637,50,60,41
270.58,270.73972,59,60,41
270.74664,271.23972,60,60,41
271.41333,271.73972,52,60,41
271.91333,272.07306,53,60,41
272.08,272.40637,55,60,41
272.74664,273.07306,55,60,41
273.41333,273.73972,55,60,41
274.08,274.40637,52,60,41
275.24664,275.41333,55,60,41
275.41333,275.73972,52,60,41
275.91333,276.08,55,60,41
276.08,276.42157,52,60,41
277.34015,277.52765,55,52,41
277.52765,277.9473,48,51,41
278.1705,278.3848,55,45,41
278.3848,278.71118,48,75,41
279.05148,279.21118,63,92,41
279.21814,279.37787,63,92,41
279.3848,279.54453,63,88,41
279.55145,279.71118,51,84,41
279.71814,279.87787,63,80,41
279.8848,280.04453,63,75,41
280.05145,280.21118,63,70,41
280.21814,280.37787,51,65,41
280.3848,280.54453,63,60,41
280.55145,280.71118,63,60,41
280.71814,280.87787,63,60,41
280.8848,281.04453,51,60,41
281.05145,281.21118,63,60,41
281.21814,281.37787,63,60,41
281.3848,281.54453,63,60,41
281.55145,281.71118,51,60,41
281.71814,281.87787,63,60,41
281.8848,282.04453,63,60,41
282.05145,282.21118,63,60,41
282.21814,282.37787,56,60,41
282.3848,282.71118,68,60,41
283.05145,283.21118,68,92,41
283.21814,283.37784,68,92,41
283.3848,283.54453,68,88,41
283.55145,283.71118,56,84,41
283.71814,283.87784,68,80,41
283.8848,284.04453,68,75,41
284.05145,284.21118,68,70,41
284.21814,284.37784,56,65,41
284.3848,284.54453,68,60,41
284.55145,284.71118,68,60,41
284.71814,284.87784,68,60,41
284.8848,285.04453,56,60,41
285.05145,285.21118,68,60,41
285.21814,285.37784,68,60,41
285.3848,285.54453,68,60,41
285.55145,285.71118,56,60,41
285.71814,285.87784,68,60,41
285.8848,286.04453,68,60,41
286.05145,286.21118,68,60,41
286.21814,286.37784,68,60,41
286.3848,286.71118,73,60,41
287.05145,287.21118,71,92,41
287.21814,287.37784,71,92,41
287.3848,287.54453,71,88,41
287.55145,287.71118,59,84,41
287.71814,287.87784,71,80,41
287.8848,288.04453,71,75,41
288.05145,288.21118,71,70,41
288.21814,288.37784,59,65,41
288.3848,288.71118,71,60,41
288.8848,289.04453,67,60,41
289.05145,289.37784,68,60,41
289.55145,289.71118,67,60,41
289.7181,290.04453,65,60,41
290.2181,290.37784,68,75,41
290.3848,290.71118,64,92,41
290.3848,290.71118,72,92,41
291.05145,291.26672,60,92,41
291.27368,291.48895,60,75,41
291.4959,291.71118,60,60,41
291.7181,291.9334,61,92,41
291.94034,292.1556,61,75,41
292.16257,292.37784,61,60,41
292.3848,292.60007,61,92,41
292.60703,292.8223,61,75,41
292.82922,293.0445,61,60,41
293.05145,293.26672,60,92,41
293.27368,293.48895,60,75,41
293.4959,293.71118,60,60,41
293.7181,293.9334,60,92,41
293.94034,294.1556,60,75,41
294.16257,294.37784,60,60,41
294.3848,294.60007,55,60,41
294.3848,294.60007,62,60,41
294.607,294.8223,55,63,41
294.607,294.8223,62,63,41
294.82922,295.0445,55,66,41
294.82922,295.0445,62,66,41
295.05145,295.26672,55,69,41
295.05145,295.26672,60,69,41
295.27368,295.48895,55,72,41
295.27368,295.48895,60,72,41
295.4959,295.71118,55,76,41
295.4959,295.71118,60,76,41
295.7181,295.9334,53,80,41
295.7181,295.9334,60,80,41
295.94034,296.1556,53,84,41
295.94034,296.1556,60,84,41
296.16257,296.37784,53,88,41
296.16257,296.37784,60,88,41
296.3848,296.60007,60,92,41
296.3848,296.60007,65,92,41
296.607,296.8223,60,92,41
296.607,296.8223,65,92,41
296.82922,297.0445,60,92,41
296.82922,297.0445,67,92,41
297.05145,297.26672,60,92,41
297.05145,297.26672,68,92,41
297.27368,297.48895,60,92,41
297.27368,297.48895,68,92,41
297.49588,297.71118,60,92,41
297.49588,297.71118,68,92,41
297.7181,297.93338,62,92,41
297.7181,297.93338,72,92,41
297.94034,298.1556,62,92,41
297.94034,298.1556,72,92,41
298.16257,298.37784,62,92,41
298.16257,298.37784,72,92,41
298.3848,298.71118,62,75,41
298.3848,298.71118,71,75,41
299.05145,299.7181,55,92,41
299.7181,300.38477,56,92,41
300.38477,301.27368,62,75,41
301.38477,301.7181,59,60,41
301.7181,302.05145,60,60,41
302.05145,302.38477,67,65,41
302.38477,302.7181,66,70,41
302.7181,303.05145,72,75,41
303.05145,303.38477,71,80,41
303.38477,303.71115,77,86,41
303.7181,304.27365,75,92,41
304.38477,304.7181,74,92,41
304.7181,305.05145,77,92,41
305.05145,305.38477,79,92,41
305.38477,305.7181,74,92,41
305.7181,306.05145,79,92,41
306.05145,306.37784,72,92,41
306.38477,306.60004,60,92,41
306.38477,306.60004,62,92,41
306.607,306.82227,60,89,41
306.607,306.82227,62,89,41
306.82922,307.0445,60,86,41
306.82922,307.0445,62,86,41
307.05145,307.26672,55,83,41
307.05145,307.26672,62,83,41
307.27365,307.48895,55,80,41
307.27365,307.48895,62,80,41
307.49588,307.71115,55,76,41
307.49588,307.71115,62,76,41
307.7181,307.93338,51,72,41
307.7181,307.93338,60,72,41
307.94034,308.1556,51,68,41
307.94034,308.1556,60,68,41
308.16254,308.37784,51,64,41
308.16254,308.37784,60,64,41
308.38477,308.60004,51,60,41
308.38477,308.60004,60,60,41
308.607,308.82227,51,60,41
308.607,308.82227,60,60,41
308.82922,309.0445,55,62,41
308.82922,309.0445,62,62,41
309.05145,309.26672,60,64,41
309.05145,309.26672,63,64,41
309.27365,309.48895,60,66,41
309.27365,309.48895,63,66,41
309.49588,309.71115,60,68,41
309.49588,309.71115,65,68,41
309.7181,309.93338,60,71,41
309.7181,309.93338,63,71,41
309.94034,310.1556,60,74,41
309.94034,310.1556,63,74,41
310.16254,310.37784,60,77,41
310.16254,310.37784,62,77,41
310.38477,310.71115,59,80,41
310.38477,310.71115,62,80,41
311.27365,311.48892,55,92,41
311.49588,311.71115,57,92,41
311.7181,311.93338,59,84,41
311.94034,312.1556,62,76,41
312.16254,312.37784,66,68,41
312.38477,312.71115,67,60,41
313.27365,313.48892,59,92,41
313.49588,313.71115,62,92,41
313.7181,313.93338,67,82,41
313.9403,314.1556,71,71,41
314.16254,314.3778,74,60,41
314.38477,315.27365,76,92,41
315.55142,315.71115,74,92,41
315.7181,316.0445,76,92,41
316.2181,316.3778,74,92,41
316.38477,316.71115,72,92,41
316.88477,317.0445,67,92,41
317.05142,317.3778,72,92,41
317.55142,317.71115,74,92,41
317.7181,318.0445,76,92,41
318.2181,318.3778,72,92,41
318.38477,319.2667,81,92,41
319.27365,319.48892,79,92,41
319.49588,319.71115,77,92,41
319.7181,319.93338,79,92,41
319.9403,320.15558,72,92,41
320.27365,320.3778,79,92,41
320.38477,321.2667,81,92,41
321.27365,321.48892,79,92,41
321.49588,321.71115,77,92,41
321.71808,321.93338,79,92,41
321.9403,322.15558,72,92,41
322.27365,322.3778,79,92,41
322.38477,323.27365,73,92,41
322.38477,323.27365,81,92,41
323.38477,323.71115,76,92,41
323.71808,324.04446,73,92,41
324.21808,324.3778,76,92,41
324.38477,324.9403,72,92,41
324.38477,324.9403,78,92,41
325.05142,326.21115,71,92,41
325.05142,326.21115,79,92,41
326.21808,326.3778,74,92,41
326.38477,326.71808,77,92,41
326.71808,327.04446,76,92,41
327.05142,327.16254,74,92,41
327.38477,327.49585,72,92,41
327.71808,327.8292,71,92,41
328.21808,328.3292,72,92,41
328.38477,328.71115,59,92,41
328.38477,329.04446,67,92,41
328.55142,329.04446,74,92,41
329.55142,329.6278,67,92,41
329.63477,329.71115,67,92,41
329.71808,330.04446,67,92,41
330.21808,330.29446,55,92,41
330.30142,330.3778,55,92,41
330.38474,330.71115,64,92,41
330.38474,330.71115,72,92,41
331.05142,331.21115,60,92,41
331.05142,331.3778,67,92,41
331.13474,331.3778,76,92,41
331.71808,331.8778,60,92,41
331.71808,332.04446,67,92,41
331.80142,332.04446,76,92,41
332.38474,332.54446,60,92,41
332.38474,332.71115,67,92,41
332.46808,332.71115,76,92,41
333.05142,333.21115,60,92,41
333.05142,333.3778,67,92,41
333.13474,333.3778,76,92,41
333.71808,333.8778,60,92,41
333.71808,334.04446,67,92,41
333.80142,334.04446,76,92,41
334.38474,334.54446,58,92,41
334.38474,334.71112,67,92,41
334.46808,334.71112,75,92,41
335.05142,335.21112,58,92,41
335.05142,335.3778,67,92,41
335.13474,335.3778,75,92,41
335.71808,335.8778,58,92,41
335.71808,336.04446,67,92,41
335.80142,336.04446,75,92,41
336.38474,336.54446,58,92,41
336.38474,336.71112,67,92,41
336.46808,336.71112,75,92,41
337.05142,337.21112,58,92,41
337.05142,337.3778,67,92,41
337.13474,337.3778,75,92,41
337.71808,337.8778,58,92,41
337.71808,338.04446,67,92,41
337.80142,338.04446,75,92,41
338.38474,338.54446,60,92,41
338.38474,338.71112,68,92,41
338.46808,338.71112,75,92,41
338.88474,338.96112,63,92,41
338.88474,338.96112,66,92,41
338.96808,339.04446,63,92,41
338.96808,339.04446,66,92,41
339.05142,339.3778,63,92,41
339.05142,339.3778,66,92,41
339.55142,339.6278,63,92,41
339.55142,339.6278,66,92,41
339.63474,339.71112,63,92,41
339.63474,339.71112,66,92,41
339.71808,340.04446,63,92,41
339.71808,340.04446,66,92,41
340.21808,340.29446,63,92,41
340.21808,340.29446,66,92,41
340.3014,340.3778,63,92,41
340.3014,340.3778,66,92,41
340.38474,340.71112,63,92,41
340.38474,340.71112,66,92,41
340.88474,340.96112,63,92,41
340.88474,340.96112,66,92,41
340.96808,341.04446,63,92,41
340.96808,341.04446,66,92,41
341.0514,341.3778,63,92,41
341.0514,341.3778,66,92,41
341.5514,341.6278,63,92,41
341.5514,341.6278,66,92,41
341.63474,341.71112,63,92,41
341.63474,341.71112,66,92,41
341.71808,342.04446,63,92,41
341.71808,342.04446,66,92,41
342.21808,342.29446,62,92,41
342.21808,342.29446,66,92,41
342.3014,342.3778,62,92,41
342.3014,342.3778,66,92,41
342.38474,342.71112,62,92,41
342.38474,342.71112,67,92,41
343.0514,343.2667,55,92,41
343.27362,343.4889,55,75,41
343.49585,343.71112,55,60,41
343.71808,343.93335,56,92,41
343.94028,344.15558,56,75,41
344.1625,344.37778,56,60,41
344.38474,344.6,62,92,41
344.60696,344.82224,62,75,41
344.8292,345.04446,62,60,41
345.0514,345.2667,62,92,41
345.27362,345.4889,62,75,41
345.49585,345.71112,59,60,41
345.71808,345.93335,60,92,41
345.94028,346.15558,60,75,41
346.1625,346.37778,67,60,41
346.38474,346.6,72,92,41
346.60696,346.82224,72,75,41
346.8292,347.04446,72,60,41
347.0514,347.26666,67,75,41
347.0514,347.26666,74,75,41
347.27362,347.4889,67,75,41
347.27362,347.4889,74,75,41
347.49585,347.71112,67,75,41
347.49585,347.71112,74,75,41
347.71808,347.93335,70,75,41
347.94028,348.15558,70,75,41
348.1625,348.37778,70,75,41
348.38474,348.6,69,75,41
348.60696,348.82224,69,75,41
348.82916,349.04446,69,75,41
349.0514,349.26666,68,75,41
349.27362,349.4889,68,75,41
349.49585,349.71112,68,75,41
349.71808,349.93335,67,75,41
349.94028,350.15558,67,75,41
350.1625,350.37778,67,75,41
351.0514,351.26666,55,92,41
351.27362,351.4889,55,92,41
351.49585,351.71112,55,92,41
351.71805,351.93335,56,92,41
351.94028,352.15555,56,92,41
352.1625,352.37778,56,92,41
352.38474,352.6,62,92,41
352.60696,352.82224,62,92,41
352.82916,353.04446,62,92,41
353.0514,353.26666,62,92,41
353.27362,353.4889,62,92,41
353.49585,353.71112,59,92,41
353.71805,353.93335,60,92,41
353.94028,354.15555,60,92,41
354.1625,354.37778,67,92,41
354.38474,354.6,66,92,41
354.60693,354.82224,66,92,41
354.82916,355.04443,72,92,41
355.0514,355.26666,71,92,41
355.27362,355.4889,71,92,41
355.49585,355.71112,65,92,41
355.71805,355.93335,63,92,41
355.94028,356.15555,63,92,41
356.1625,356.37778,63,92,41
356.60693,356.82224,62,92,41
356.82916,357.04443,62,92,41
357.0514,357.26666,62,92,41
357.27362,357.4889,62,92,41
357.49582,357.71112,59,92,41
357.71805,357.93332,60,92,41
357.94028,358.15555,60,92,41
358.1625,358.37778,67,92,41
358.38474,358.6,72,92,41
358.60693,358.82224,72,92,41
358.82916,359.04443,72,92,41
359.0514,359.26666,71,92,41
359.27362,359.4889,71,92,41
359.49582,359.71112,71,92,41
359.71805,359.93332,70,92,41
359.94028,360.15555,70,92,41
360.1625,360.37778,70,92,41
360.38474,360.6,69,92,41
360.60693,360.8222,69,92,41
360.82916,361.04443,69,92,41
361.0514,361.26666,68,92,41
361.27362,361.4889,68,92,41
361.49582,361.71112,68,92,41
361.71805,361.93332,67,92,41
361.94028,362.15555,67,92,41
362.1625,362.37778,67,92,41
362.3847,362.501,67,92,41
362.73355,362.84982,60,92,41
362.73355,362.84982,65,92,41
363.0824,363.2699,60,92,41
363.0824,363.2699,67,92,41
363.8324,364.25204,55,92,41
363.8324,364.4663,62,92,41
364.0467,364.4663,67,92,41
364.68954,365.43954,60,92,41
365.43954,367.68954,60,60,41
367.68954,368.43954,59,60,41
368.43954,369.06454,60,60,41
369.18954,372.3474,60,60,41
372.3474,373.1369,59,56,41
373.1369,374.7835,60,55,41
374.7835,375.64066,59,53,41
375.64066,376.4978,60,52,41
376.4978,377.4069,62,51,41
377.4069,378.31598,59,50,41
378.31598,379.07355,60,49,41
379.22507,380.22507,65,48,41
380.22507,381.22507,63,47,41
381.22507,381.76077,62,46,41
381.76077,382.28534,57,46,41
382.2965,384.39648,60,45,41
384.6965,385.1965,59,60,41
385.1965,385.68607,65,60,41
385.6965,386.1965,64,60,41
386.1965,386.6965,67,60,41
386.6965,387.1965,62,60,41
387.1965,387.6965,67,60,41
387.6965,388.1965,64,60,41
388.1965,388.68607,67,60,41
388.6965,389.1965,65,60,41
389.1965,389.6965,67,60,41
389.6965,390.1965,62,60,41
390.1965,390.6965,67,60,41
390.6965,391.1965,64,60,41
391.1965,391.68607,67,60,41
391.6965,392.1965,69,60,41
392.1965,392.6965,72,60,41
392.6965,393.1965,67,60,41
393.1965,393.6965,72,60,41
393.6965,394.1965,65,60,41
394.1965,394.68607,66,60,41
394.6965,395.1965,69,60,41
395.1965,395.6965,62,60,41
395.6965,396.1965,67,60,41
396.1965,396.6965,62,60,41
396.6965,397.18607,67,60,41
397.1965,397.68607,67,60,41
397.6965,398.6965,68,60,41
398.6965,400.02982,69,60,41
400.1965,400.68607,70,60,41
400.6965,401.6965,69,60,41
401.6965,403.02982,70,62,41
403.1965,404.18607,70,65,41
404.1965,404.6965,70,67,41
404.6965,405.6965,72,68,41
405.6965,406.52982,69,70,41
406.6965,408.02982,67,72,41
408.1965,408.6965,69,75,41
408.6965,409.1965,71,76,41
409.1965,409.68607,74,77,41
409.6965,410.1965,72,78,41
410.1965,410.6965,70,79,41
410.6965,411.1965,69,80,41
411.1965,411.6965,73,81,41
411.6965,412.1965,74,82,41
412.1965,412.68607,72,83,41
412.6965,413.1965,71,84,41
413.1965,413.6965,75,85,41
413.6965,414.1965,76,86,41
414.1965,414.6965,74,88,41
414.6965,415.18607,72,90,41
415.1965,415.6965,79,92,41
415.6965,416.18607,77,92,41
416.1965,416.6965,70,92,41
416.6965,417.18607,69,92,41
417.1965,417.6965,67,92,41
417.6965,418.1965,65,92,41
418.1965,418.68607,64,92,41
418.6965,420.4465,63,92,41
420.6965,421.6965,69,92,41
421.6965,423.4465,72,92,41
423.6965,424.6965,72,92,41
424.6965,426.4465,75,92,41
426.6965,427.6965,75,92,41
427.6965,429.4465,78,92,41
429.6965,430.6965,75,92,41
430.6965,432.60126,78,92,41
432.87903,434.03287,69,92,41
434.03287,434.8662,70,92,41
444.53287,445.03287,62,92,41
445.03287,445.53287,74,92,41
445.53287,446.02246,72,92,41
446.03287,446.53287,71,92,41
446.53287,447.03287,65,92,41
447.03287,447.53287,63,92,41
447.53287,448.03287,72,92,41
448.03287,448.53287,75,92,41
448.53287,449.02246,73,92,41
449.03287,449.53287,72,92,41
449.53287,450.03287,66,92,41
450.03287,450.53287,65,92,41
450.53287,451.03287,73,92,41
451.03287,451.53287,77,92,41
451.53287,452.02246,75,92,41
452.03287,452.53287,74,92,41
452.53287,453.03287,68,92,41
453.03287,453.53287,70,92,41
453.53287,454.03287,67,92,41
454.03287,454.53287,63,92,41
454.53287,455.02246,60,92,41
455.03287,456.03287,63,75,41
456.03287,456.8662,62,60,41
479.03287,480.03287,65,60,41
480.03287,481.03287,63,60,41
481.03287,481.8662,61,60,41
482.03287,482.8662,62,60,41
483.03287,484.03287,66,63,41
484.03287,485.03287,67,66,41
485.03287,486.03287,69,69,41
486.03287,486.8662,67,72,41
487.03287,488.03287,67,76,41
488.03287,489.03287,69,80,41
489.03287,489.8662,62,84,41
490.03287,491.03287,62,88,41
491.03287,492.03287,61,92,41
492.03287,492.8662,62,60,41
493.03287,493.3662,50,60,41
493.3662,493.69955,61,60,41
493.69955,494.02246,62,60,41
495.03287,496.03287,71,60,41
496.03287,497.03287,69,60,41
497.03287,498.03287,68,60,41
498.03287,498.8662,67,60,41
499.03287,500.03287,67,60,41
500.03287,500.53287,64,60,41
500.53287,501.03287,67,60,41
501.03287,501.8662,60,60,41
502.03287,503.03287,65,60,41
503.03287,504.03287,63,60,41
504.03287,504.8662,62,66,41
505.03287,506.03287,66,72,41
506.03287,506.8662,67,78,41
507.03287,508.03287,69,85,41
508.03287,508.8662,71,92,41
510.03287,510.3662,58,60,41
510.3662,510.69955,63,60,41
510.69955,511.03287,67,76,41
511.03287,511.3662,70,92,41
511.3662,511.69955,67,92,41
511.69955,512.02246,63,75,41
512.0329,512.52246,58,60,41
513.0329,513.3662,58,60,41
513.3662,513.6995,62,60,41
513.6995,514.0329,65,60,41
514.0329,514.52246,70,60,41
516.0329,516.3662,58,60,41
516.3662,516.6995,62,60,41
516.6995,517.0329,65,60,41
517.0329,517.52246,70,60,41
519.0329,519.3662,63,60,41
519.3662,519.6995,67,60,41
519.6995,520.0329,70,60,41
520.0329,520.52246,72,60,41
522.0329,522.3662,58,60,41
522.3662,522.6995,62,60,41
522.6995,523.0329,65,60,41
523.0329,523.52246,70,60,41
525.0329,525.3662,58,60,41
525.3662,525.6995,62,60,41
525.6995,526.0329,65,60,41
526.0329,526.52246,70,60,41
528.0329,528.3558,63,60,41
528.3662,528.68915,67,60,41
528.6995,529.02246,70,61,41
529.0329,529.52246,75,61,41
531.0329,531.3662,63,66,41
531.3662,531.6995,69,67,41
531.6995,532.0329,72,68,41
532.0329,532.52246,74,69,41
534.0329,534.3662,63,74,41
534.3662,534.6995,66,75,41
534.6995,535.0329,70,76,41
535.0329,535.52246,71,77,41
537.0329,537.3662,58,84,41
537.3662,537.6995,63,85,41
537.6995,538.02246,66,86,41
538.0329,538.8662,58,87,41
538.0329,538.8662,68,87,41
539.0329,539.52246,66,92,41
539.5329,540.0329,51,75,41
540.0329,540.5329,54,105,41
540.5329,541.02246,51,75,41
541.0329,541.52246,54,75,41
541.5329,542.02246,51,75,41
542.0329,542.3662,58,75,41
542.3662,542.6995,63,75,41
542.6995,543.02246,67,75,41
543.0329,543.3662,58,75,41
543.3662,543.6995,63,75,41
543.6995,544.02246,67,75,41
544.0329,544.5329,74,75,41
544.5329,545.02246,72,75,41
545.0329,545.3662,56,75,41
545.3662,545.6995,60,75,41
545.6995,546.02246,65,75,41
546.0329,546.3662,56,75,41
546.3662,546.6995,60,75,41
546.6995,547.02246,65,75,41
547.0329,547.5329,72,75,41
547.5329,548.02246,68,75,41
548.0329,548.3662,58,75,41
548.3662,548.6995,63,75,41
548.6995,549.02246,67,75,41
549.0329,549.3662,58,75,41
549.3662,549.6995,63,75,41
549.6995,550.02246,67,75,41
550.0329,550.8662,58,75,41
550.0329,550.8662,68,75,41
551.0329,551.8662,58,75,41
551.0329,551.8662,67,75,41
552.0329,552.3558,51,92,41
552.0329,552.3558,58,92,41
552.3662,552.68915,51,92,41
552.3662,552.68915,58,92,41
552.6995,553.02246,51,86,41
552.6995,553.02246,58,86,41
553.0329,553.3558,51,80,41
553.0329,553.3558,58,80,41
553.3662,553.68915,51,74,41
553.3662,553.68915,58,74,41
553.6995,554.02246,51,67,41
553.6995,554.02246,58,67,41
554.0329,554.3558,51,60,41
554.0329,554.3558,58,60,41
554.3662,554.68915,51,60,41
554.3662,554.68915,58,60,41
554.6995,555.02246,51,60,41
554.6995,555.02246,58,60,41
555.0329,555.3558,51,60,41
555.0329,555.3558,58,60,41
555.3662,555.68915,51,62,41
555.3662,555.68915,58,62,41
555.6995,556.02246,51,64,41
555.6995,556.02246,58,64,41
556.0329,556.3558,51,66,41
556.0329,556.3558,58,66,41
556.3662,556.68915,51,68,41
556.3662,556.68915,58,68,41
556.6995,557.02246,51,70,41
556.6995,557.02246,58,70,41
557.0329,557.3558,51,72,41
557.0329,557.3558,58,72,41
557.3662,557.68915,51,74,41
557.3662,557.68915,58,74,41
557.6995,558.02246,51,76,41
557.6995,558.02246,58,76,41
558.0329,558.3558,51,78,41
558.0329,558.3558,58,78,41
558.3662,558.68915,51,80,41
558.3662,558.68915,58,80,41
558.6995,559.02246,51,82,41
558.6995,559.02246,58,82,41
559.0329,559.3558,51,84,41
559.0329,559.3558,58,84,41
559.3662,559.68915,51,86,41
559.3662,559.68915,58,86,41
559.6995,560.02246,51,89,41
559.6995,560.02246,58,89,41
560.0329,560.3558,51,92,41
560.0329,560.3558,63,92,41
560.3662,560.68915,51,92,41
560.3662,560.68915,63,92,41
560.6995,561.02246,51,92,41
560.6995,561.02246,63,92,41
561.0329,561.3558,51,92,41
561.0329,561.3558,63,92,41
561.3662,561.68915,51,92,41
561.3662,561.68915,63,92,41
561.6995,562.02246,51,92,41
561.6995,562.02246,63,92,41
562.0329,562.3558,51,92,41
562.0329,562.3558,58,92,41
562.3662,562.68915,51,92,41
562.3662,562.68915,58,92,41
562.6995,563.02246,51,92,41
562.6995,563.02246,58,92,41
563.0329,563.52246,51,75,41
563.0329,563.52246,58,75,41
564.0329,565.3662,67,92,41
565.5329,566.02246,67,75,41
566.0329,566.5329,67,60,41
566.5329,567.02246,68,60,41
567.0329,568.5329,68,60,41
568.5329,569.02246,74,69,41
569.0329,569.5329,74,72,41
569.5329,570.02246,75,75,41
570.0329,571.3662,75,78,41
571.5329,572.02246,75,88,41
572.0329,572.5329,80,92,41
572.5329,573.0329,79,92,41
573.0329,573.5329,77,92,41
573.5329,574.02246,72,92,41
574.0329,574.1579,74,92,41
574.1579,574.2829,75,92,41
574.2829,574.4079,74,92,41
574.4079,574.5329,75,92,41
574.5329,574.6579,74,92,41
574.6579,574.7829,75,92,41
574.7829,574.9079,72,92,41
574.9079,575.02246,74,92,41
575.0329,575.5329,75,92,41
575.5329,576.0329,74,92,41
576.0329,576.5329,72,92,41
576.5329,577.02246,67,92,41
577.0329,577.1579,67,92,41
577.1579,577.2829,68,92,41
577.2829,577.4079,67,92,41
577.4079,577.5329,68,92,41
577.5329,577.6579,67,92,41
577.6579,577.7829,68,92,41
577.7829,577.9079,65,92,41
577.9079,578.02246,67,92,41
578.0329,578.5329,68,92,41
578.5329,579.0329,67,92,41
579.0329,579.5329,65,92,41
579.5329,580.02246,60,92,41
580.0329,580.1579,62,92,41
580.1579,580.2829,63,92,41
580.2829,580.4079,62,88,41
580.4079,580.5329,63,84,41
580.5329,580.6579,62,80,41
580.6579,580.7829,63,75,41
580.7829,580.9079,62,70,41
580.9079,581.0329,63,65,41
581.0329,581.1579,62,60,41
581.1579,581.2829,63,60,41
581.2829,581.4079,62,60,41
581.4079,581.5329,63,60,41
581.5329,581.6579,62,60,41
581.6579,581.7829,63,60,41
581.7829,581.9079,62,60,41
581.9079,582.0329,63,60,41
582.0329,582.1579,62,60,41
582.1579,582.2829,63,62,41
582.2829,582.4079,62,64,41
582.4079,582.5329,63,66,41
582.5329,582.6579,62,68,41
582.6579,582.7829,63,70,41
582.7829,582.9079,62,72,41
582.9079,583.0329,63,74,41
583.0329,583.1579,62,76,41
583.1579,583.2829,63,78,41
583.2829,583.4079,62,80,41
583.4079,583.5329,63,83,41
583.5329,583.6579,62,86,41
583.6579,583.7829,63,89,41
583.7829,583.9079,60,92,41
583.9079,584.02246,62,92,41
584.0329,584.8662,63,75,41
592.0329,593.0329,65,92,41
593.0329,594.0329,68,92,41
594.0329,595.0329,67,92,41
595.0329,595.8662,65,92,41
596.0329,596.1579,67,92,41
596.1579,596.2829,68,88,41
596.2829,596.4079,67,84,41
596.4079,596.5329,68,80,41
596.5329,596.6579,67,76,41
596.6579,596.7829,68,72,41
596.7829,596.9079,67,68,41
596.9079,597.0329,68,64,41
597.0329,597.1579,67,60,41
597.1579,597.2829,68,60,41
597.2829,597.4079,67,62,41
597.4079,597.5329,68,64,41
597.5329,597.6579,67,66,41
597.6579,597.7829,68,68,41
597.7829,597.9079,67,70,41
597.9079,598.0329,68,72,41
598.0329,598.1579,67,74,41
598.1579,598.2829,68,77,41
598.2829,598.4079,67,80,41
598.4079,598.5329,68,83,41
598.5329,598.6579,67,86,41
598.6579,598.7829,68,89,41
598.7829,598.9079,65,92,41
598.9079,599.02246,67,92,41
599.0329,600.0329,68,75,41
600.0329,601.0329,63,75,41
601.0329,601.8662,60,75,41
602.0329,604.0329,56,92,41
604.0329,604.8662,55,92,41
605.0329,607.0329,56,92,41
607.0329,607.8662,55,92,41
608.0329,610.0329,56,92,41
610.0329,610.8662,55,88,41
611.0329,613.0329,56,86,41
613.0329,613.8662,55,82,41
614.0329,616.0329,56,80,41
616.0329,616.8662,55,76,41
617.0329,619.0329,56,74,41
619.0329,619.8662,55,70,41
620.0329,622.1757,56,68,41
622.1757,623.0686,55,63,41
623.2472,625.39,53,61,41
625.39,626.2829,51,56,41
626.4614,628.76917,53,54,41
628.76917,629.73065,51,49,41
629.923,633.3605,51,47,41
633.673,637.423,51,39,41
637.7639,641.8889,51,30,41
230.08003,230.40642,57,45,45
230.08003,230.40642,65,45,45
230.08003,230.40642,72,45,45
231.41336,231.73975,55,45,45
231.41336,231.73975,64,45,45
231.41336,231.73975,72,45,45
232.08003,232.40642,57,45,45
232.08003,232.40642,65,45,45
232.08003,232.40642,72,45,45
233.41336,233.73975,55,45,45
233.41336,233.73975,64,45,45
233.41336,233.73975,72,45,45
234.08003,234.40642,57,45,45
234.08003,234.40642,64,45,45
234.08003,234.40642,73,45,45
235.41336,235.73975,57,45,45
235.41336,235.73975,64,45,45
235.41336,235.73975,73,45,45
236.08003,236.40642,57,45,45
236.08003,236.40642,66,45,45
236.08003,236.40642,74,45,45
236.74669,237.07307,59,45,45
236.74669,237.07307,67,45,45
236.74669,237.07307,74,45,45
237.41336,237.73975,55,45,45
237.41336,237.73975,67,45,45
238.08002,238.40642,55,45,45
238.08002,238.40642,64,45,45
238.08002,238.40642,72,45,45
238.74669,239.07307,48,45,45
239.41336,239.73975,57,45,45
239.41336,239.73975,66,45,45
239.41336,239.73975,72,45,45
240.08002,240.40642,55,45,45
240.08002,240.40642,62,45,45
240.08002,240.40642,71,45,45
240.74669,241.07307,55,45,45
241.41336,241.73975,55,45,45
241.41336,241.73975,65,45,45
241.41336,241.73975,71,45,45
242.08002,242.4064,55,45,45
242.08002,242.4064,64,45,45
242.08002,242.4064,72,45,45
242.74669,243.07307,55,45,45
242.74669,243.07307,64,45,45
242.74669,243.07307,72,45,45
244.08002,244.4064,48,45,45
244.08002,244.4064,55,45,45
244.08002,244.4064,64,45,45
244.74669,245.07307,55,45,45
244.74669,245.07307,64,45,45
244.74669,245.07307,72,45,45
246.08002,246.4064,51,45,45
246.08002,246.4064,58,45,45
246.08002,246.4064,67,45,45
246.74669,247.07307,55,45,45
246.74669,247.07307,63,45,45
246.74669,247.07307,70,45,45
248.08002,248.4064,51,45,45
248.08002,248.4064,58,45,45
248.08002,248.4064,67,45,45
248.74667,249.07307,55,45,45
248.74667,249.07307,63,45,45
248.74667,249.07307,70,45,45
250.08002,250.4064,51,45,45
250.08002,250.4064,60,45,45
250.08002,250.4064,68,45,45
250.74667,251.07306,63,45,45
250.74667,251.07306,75,45,45
251.41335,251.73973,51,45,45
251.41335,251.73973,58,45,45
251.41335,251.73973,67,45,45
252.08002,252.4064,51,45,45
252.08002,252.4064,60,45,45
252.08002,252.4064,68,45,45
252.74667,253.07306,63,45,45
252.74667,253.07306,75,45,45
253.41335,253.73973,51,45,45
253.41335,253.73973,58,45,45
253.41335,253.73973,67,45,45
254.08,254.4064,52,45,45
254.08,254.4064,60,45,45
254.08,254.4064,67,45,45
254.74667,255.07306,60,45,45
254.74667,255.07306,72,45,45
255.41335,255.73973,52,45,45
255.41335,255.73973,60,45,45
255.41335,255.73973,67,45,45
256.08002,256.4064,52,45,45
256.08002,256.4064,60,45,45
256.08002,256.4064,68,45,45
256.74667,257.07306,53,45,45
256.74667,257.07306,60,45,45
256.74667,257.07306,69,45,45
2.0,3.0,58,75,42
3.0,4.0,63,75,42
4.0,5.0,62,77,42
5.0,6.0,63,80,42
6.0,7.0,65,83,42
7.0,8.0,62,86,42
8.0,8.833333,63,89,42
9.0,10.0,68,92,42
10.0,11.0,67,92,42
11.0,11.489583,65,92,42
11.5,12.0,60,92,42
12.0,13.0,63,75,42
13.0,14.333333,62,60,42
14.5,14.989583,62,60,42
15.0,16.0,62,60,42
16.0,17.333334,63,65,42
17.5,17.989584,63,73,42
18.0,18.5,63,75,42
18.5,18.989584,64,77,42
19.0,20.333334,65,80,42
20.5,20.989584,65,89,42
21.0,21.5,65,92,42
21.5,22.0,66,92,42
22.0,22.5,67,92,42
22.5,22.989584,63,92,42
23.0,23.354166,60,92,42
23.5,23.666666,57,92,42
24.0,25.0,60,75,42
25.0,26.333334,58,60,42
26.5,26.989584,58,60,42
27.0,28.0,65,60,42
28.0,29.0,62,64,42
29.0,29.833334,58,68,42
30.0,30.833334,65,72,42
31.0,31.5,67,76,42
31.5,31.989584,65,78,42
32.0,32.354168,62,80,42
32.5,32.666668,58,82,42
33.0,34.0,58,84,42
34.0,34.833332,63,88,42
35.0,36.0,70,92,42
36.0,37.75,69,75,42
38.0,39.0,70,45,42
39.0,40.333332,69,45,42
40.5,40.854168,72,92,42
41.0,41.354168,70,92,42
41.5,41.666668,69,92,42
42.0,43.0,57,92,42
43.0,44.0,58,92,42
44.0,45.0,60,92,42
45.0,46.0,62,92,42
46.0,47.0,64,92,42
47.0,48.833332,65,92,42
49.0,50.0,63,75,42
50.0,50.833332,61,60,42
51.0,51.833332,62,45,42
52.0,53.0,66,60,42
53.0,54.0,67,60,42
54.0,55.0,69,60,42
55.0,56.0,62,60,42
56.0,56.833332,67,60,42
57.0,58.0,60,60,42
58.0,59.0,59,70,42
59.0,60.0,58,81,42
60.0,61.0,55,92,42
61.0,61.833332,54,60,42
63.0,63.322918,43,60,42
63.333332,63.65625,43,55,42
63.666668,63.989582,43,50,42
64.0,64.322914,43,45,42
64.333336,64.65625,43,45,42
64.666664,64.989586,43,45,42
65.0,65.322914,43,45,42
65.333336,65.65625,43,45,42
65.666664,65.989586,43,45,42
66.0,66.322914,43,45,42
66.333336,66.65625,43,45,42
66.666664,66.989586,43,45,42
67.0,67.322914,43,45,42
67.333336,67.65625,43,45,42
67.666664,67.989586,43,45,42
68.0,68.322914,43,45,42
68.333336,68.65625,43,45,42
68.666664,68.989586,43,45,42
69.0,69.322914,43,45,42
69.333336,69.65625,43,46,42
69.666664,69.989586,43,47,42
70.0,70.322914,43,48,42
70.333336,70.65625,43,49,42
70.666664,70.989586,43,50,42
71.0,71.322914,43,51,42
71.333336,71.65625,43,52,42
71.666664,71.989586,43,54,42
72.0,72.322914,43,56,42
72.333336,72.65625,43,58,42
72.666664,72.989586,43,60,42
73.0,73.322914,43,62,42
73.333336,73.65625,43,64,42
73.666664,73.989586,43,66,42
74.0,74.322914,43,68,42
74.333336,74.65625,43,70,42
74.666664,74.989586,43,72,42
75.0,75.322914,43,74,42
75.333336,75.65625,43,76,42
75.666664,75.989586,43,78,42
76.0,76.322914,43,80,42
76.333336,76.65625,43,82,42
76.666664,76.989586,43,84,42
77.0,77.322914,43,86,42
77.333336,77.65625,43,88,42
77.666664,77.989586,43,90,42
78.0,78.5,43,92,42
78.5,79.0,46,92,42
79.0,79.5,51,92,42
79.5,79.989586,55,92,42
80.0,82.0,63,92,42
82.0,83.0,62,92,42
83.0,84.0,63,89,42
84.0,85.0,65,86,42
85.0,86.0,62,83,42
86.0,86.833336,63,80,42
87.0,88.0,68,77,42
88.0,89.0,67,74,42
89.0,89.489586,65,71,42
89.5,90.0,60,70,42
90.0,91.0,63,69,42
91.0,92.333336,62,66,42
92.5,93.0,65,60,42
93.0,94.0,70,60,42
94.0,95.0,68,62,42
95.0,95.489586,67,64,42
95.5,96.0,63,65,42
96.0,97.0,75,66,42
97.0,98.0,73,68,42
98.0,98.489586,72,70,42
98.5,99.0,63,71,42
99.0,100.0,70,72,42
100.0,100.489586,69,74,42
100.5,101.0,63,75,42
101.0,102.0,68,76,42
102.0,102.489586,67,78,42
102.5,103.0,58,79,42
103.0,103.833336,66,80,42
104.0,104.234375,64,82,42
104.333336,104.56771,68,82,42
104.666664,104.885414,71,82,42
105.0,107.0,63,83,42
107.0,107.833336,62,89,42
108.0,108.489586,63,92,42
108.5,109.0,51,75,42
109.0,109.5,54,105,42
109.5,109.989586,51,75,42
110.5,111.0,63,75,42
111.0,111.5,72,92,42
111.5,112.0,70,92,42
112.0,112.5,68,92,42
112.5,113.0,67,92,42
113.0,113.5,65,92,42
113.5,114.0,63,92,42
114.0,114.489586,62,92,42
114.5,115.0,59,92,42
115.0,115.5,61,92,42
115.5,115.989586,60,92,42
116.0,116.234375,65,92,42
116.333336,116.56771,68,92,42
116.666664,116.885414,72,92,42
117.0,117.5,72,92,42
117.5,118.489586,63,92,42
118.5,118.625,65,92,42
118.625,118.75,63,92,42
118.75,118.875,62,92,42
118.875,119.0,63,92,42
119.0,119.5,67,92,42
119.5,119.989586,65,92,42
120.0,120.833336,63,92,42
121.0,122.5,70,92,42
122.5,122.989586,63,92,42
123.0,123.833336,62,92,42
124.0,125.5,70,92,42
125.5,125.989586,61,92,42
126.0,126.5,60,92,42
126.5,127.489586,72,92,42
127.5,128.48958,70,92,42
128.5,128.98958,69,92,42
129.0,130.33333,68,92,42
130.5,130.98958,70,92,42
131.0,131.66667,66,92,42
131.66667,131.98958,68,75,42
132.0,132.83333,65,60,42
133.0,134.0,58,45,42
134.0,135.83333,59,45,42
136.0,137.0,60,45,42
137.0,138.83333,61,45,42
139.0,140.0,62,45,42
140.0,141.83333,63,52,42
142.0,143.0,61,68,42
143.0,143.83333,60,76,42
144.0,144.83333,53,84,42
145.0,146.5,72,92,42
146.5,146.98958,65,92,42
147.0,147.83333,64,92,42
148.0,149.5,72,92,42
149.5,149.98958,63,92,42
150.0,150.5,61,92,42
150.5,151.48958,73,92,42
151.5,152.48958,72,92,42
152.5,152.98958,71,92,42
153.0,154.33333,70,92,42
154.5,154.98958,72,92,42
155.0,155.66667,68,92,42
155.66667,155.98958,70,92,42
156.0,156.83333,67,60,42
157.0,158.0,60,45,42
158.0,159.83333,61,45,42
160.0,161.0,62,45,42
161.0,162.83333,63,45,42
163.0,164.0,64,45,42
164.0,165.83333,65,51,42
166.0,167.0,66,64,42
167.0,167.83333,62,71,42
170.0,171.0,44,92,42
171.0,171.83333,41,92,42
172.5,173.0,62,92,42
173.0,173.5,59,92,42
173.5,173.98958,65,92,42
174.0,174.35417,63,92,42
174.5,174.66667,61,92,42
175.0,175.83333,60,92,42
176.0,176.83333,48,75,42
177.0,177.48958,55,60,42
184.0,185.33333,50,60,42
185.33333,185.66667,51,60,42
185.66667,185.98958,47,60,42
186.0,187.0,50,60,42
187.0,187.83333,48,60,42
188.0,190.0,60,60,42
190.0,190.83333,57,60,42
191.0,191.35417,51,60,42
191.5,191.66667,48,65,42
192.0,192.83333,43,71,42
193.75,193.98958,43,92,42
194.0,194.48958,55,92,42
194.75,194.98958,53,92,42
195.0,195.48958,51,92,42
195.75,195.98958,55,92,42
196.0,196.48958,48,92,42
196.75,196.98958,60,92,42
197.0,197.48958,48,92,42
197.75,197.98958,48,92,42
198.0,198.48958,55,92,42
202.0,203.33333,55,60,42
203.33333,203.66667,57,60,42
203.66667,203.98958,52,60,42
204.0,205.0,55,60,42
205.0,207.48958,54,68,42
207.75,207.98958,43,92,42
208.0,208.48958,55,92,42
208.75,208.98958,55,92,42
209.0,209.48958,67,92,42
209.75,209.98958,65,92,42
210.0,210.48958,63,92,42
210.75,210.98958,67,92,42
211.0,211.48958,63,92,42
211.75,211.98958,60,92,42
212.0,212.48958,48,92,42
212.75,212.98958,48,92,42
213.0,213.48958,55,75,42
222.07143,223.51546,62,60,42
223.52747,223.7979,59,60,42
223.9121,224.18253,62,68,42
224.2967,224.58968,65,76,42
224.71336,225.00633,62,84,42
225.13004,225.40347,55,92,42
225.5467,226.1342,36,45,42
226.4467,226.7342,55,45,42
226.7467,227.07309,60,45,42
227.91336,228.07309,43,45,42
228.08003,228.40642,36,45,42
228.58003,228.73976,55,45,42
228.7467,229.07309,60,45,42
229.91336,230.07309,48,45,42
230.08003,230.40642,36,45,42
230.58003,230.73975,60,45,42
230.7467,231.07309,60,45,42
231.2467,231.40642,48,45,42
231.41336,231.73975,48,45,42
231.91336,232.07309,48,45,42
232.08003,232.40642,36,45,42
232.58003,232.73975,60,45,42
232.74669,233.07309,60,45,42
233.24669,233.40642,48,45,42
233.41336,233.73975,48,45,42
233.91336,234.07309,48,45,42
234.08003,234.40642,45,45,42
235.41336,235.73975,45,45,42
236.08003,236.40642,38,45,42
237.41336,237.73975,43,45,42
238.08002,238.40642,36,45,42
239.41336,239.73975,45,45,42
240.08002,240.40642,43,45,42
241.41336,241.73975,43,45,42
241.91336,242.07307,43,45,42
242.08002,242.4064,36,45,42
242.58002,242.73975,55,45,42
242.74669,243.07307,60,45,42
243.91335,244.07307,43,45,42
244.08002,244.4064,36,45,42
244.58002,244.73975,55,45,42
244.74669,245.07307,60,45,42
245.41335,245.73975,48,45,42
246.08002,246.4064,46,45,42
246.58002,246.73973,58,45,42
246.74669,247.07307,63,45,42
247.91335,248.07307,46,45,42
248.08002,248.4064,46,45,42
248.58002,248.73973,58,45,42
248.74667,249.07307,63,45,42
249.91335,250.07307,51,45,42
250.08002,250.4064,44,45,42
250.58002,250.73973,56,45,42
250.74667,251.07306,63,45,42
251.24667,251.4064,44,45,42
251.41335,251.73973,51,45,42
251.91335,252.07306,51,45,42
252.08002,252.4064,44,45,42
252.58002,252.73973,56,45,42
252.74667,253.07306,63,45,42
253.24667,253.4064,44,45,42
253.41335,253.73973,51,45,42
253.91335,254.07306,39,45,42
254.08,254.23973,36,45,42
254.08,254.4064,43,45,42
254.16335,254.4064,52,45,42
254.58,254.73973,55,45,42
254.74667,255.07306,60,45,42
255.24667,255.4064,48,45,42
255.41335,255.73973,48,45,42
255.91335,256.07306,36,45,42
256.08002,256.4064,36,45,42
256.74667,256.9064,41,45,42
256.74667,257.07306,48,45,42
256.83002,257.07306,57,45,42
257.24667,257.4064,60,45,42
257.41333,257.73972,65,45,42
257.91333,258.07306,41,60,42
258.08002,258.4064,42,60,42
258.58002,258.73972,43,75,42
258.74667,259.23972,44,92,42
259.41333,259.9064,43,75,42
260.08002,260.4064,42,60,42
260.58,260.73972,43,75,42
260.74667,261.23972,44,92,42
261.41333,261.9064,43,75,42
262.08,262.4064,42,60,42
262.58,262.73972,41,60,42
262.74667,263.23972,40,60,42
263.41333,263.73972,45,60,42
263.91333,264.07306,45,75,42
264.08,264.40637,43,92,42
264.74667,265.07306,43,92,42
265.24667,265.40637,43,75,42
265.41333,265.73972,43,75,42
265.91333,266.07306,43,60,42
266.08,266.40637,42,60,42
266.58,266.73972,43,75,42
266.74667,267.23972,44,92,42
267.41333,267.90637,43,75,42
268.08,268.40637,42,60,42
268.58,268.73972,43,60,42
268.74667,269.23972,44,75,42
269.41333,269.90637,43,92,42
270.08,270.40637,42,60,42
270.58,270.73972,41,60,42
270.74664,271.23972,40,60,42
271.41333,271.73972,45,60,42
271.91333,272.07306,45,60,42
272.08,272.40637,43,60,42
272.74664,273.07306,43,60,42
273.41333,273.73972,43,60,42
274.08,274.40637,36,60,42
274.58,274.65637,36,60,42
274.66333,274.73972,36,60,42
274.74664,275.07303,36,60,42
276.60324,276.6832,36,60,42
276.69046,276.7704,36,60,42
276.77765,277.14484,36,60,42
278.3848,278.71118,44,92,42
279.05148,279.37787,44,92,42
279.05148,279.71118,51,92,42
279.21814,279.71118,60,92,42
281.05145,281.21118,51,92,42
281.21814,281.37787,51,92,42
281.3848,281.54453,51,88,42
281.55145,281.71118,39,84,42
281.71814,281.87787,51,80,42
281.8848,282.04453,51,75,42
282.05145,282.21118,51,70,42
282.21814,282.37787,44,65,42
282.3848,282.71118,41,60,42
283.05145,283.60703,56,60,42
283.05145,283.60703,65,60,42
285.05145,285.21118,56,92,42
285.21814,285.37784,56,92,42
285.3848,285.54453,56,88,42
285.55145,285.71118,44,84,42
285.71814,285.87784,56,80,42
285.8848,286.04453,56,75,42
286.05145,286.21118,56,70,42
286.21814,286.37784,44,65,42
286.3848,286.71118,37,60,42
287.05145,287.94034,68,92,42
288.21814,288.37784,67,75,42
288.3848,288.71118,65,60,42
288.8848,289.04453,55,60,42
289.05145,289.37784,56,60,42
289.55145,289.71118,55,60,42
289.7181,290.04453,53,60,42
290.2181,290.37784,41,75,42
290.3848,290.54453,36,92,42
290.3848,290.71118,43,92,42
290.4681,290.71118,52,92,42
291.05145,291.26672,60,92,42
291.27368,291.48895,60,75,42
291.4959,291.71118,60,60,42
291.7181,291.9334,60,92,42
291.94034,292.1556,60,75,42
292.16257,292.37784,60,60,42
292.3848,292.60007,58,92,42
292.60703,292.8223,58,75,42
292.82922,293.0445,58,60,42
293.05145,293.26672,57,92,42
293.27368,293.48895,57,75,42
293.4959,293.71118,57,60,42
293.7181,293.9334,56,92,42
293.94034,294.1556,56,75,42
294.16257,294.37784,56,60,42
294.3848,294.60007,55,60,42
294.607,294.8223,55,61,42
294.82922,295.0445,55,62,42
295.05145,295.26672,48,63,42
295.27368,295.48895,48,64,42
295.4959,295.71118,48,65,42
295.7181,295.9334,41,66,42
295.94034,296.1556,44,67,42
296.16257,296.37784,48,68,42
296.3848,296.60007,53,69,42
296.607,296.8223,53,70,42
296.82922,297.0445,55,72,42
297.05145,297.26672,56,74,42
297.27368,297.48895,56,76,42
297.49588,297.71118,56,78,42
297.7181,297.93338,44,80,42
297.94034,298.1556,44,82,42
298.16257,298.37784,44,84,42
298.3848,298.71118,43,86,42
299.05145,299.7181,55,92,42
299.7181,300.38477,56,92,42
300.38477,301.27368,62,92,42
301.38477,301.7181,59,92,42
301.7181,302.05145,60,92,42
302.05145,302.38477,55,92,42
302.38477,302.7181,54,92,42
302.7181,303.05145,60,92,42
303.05145,303.38477,59,92,42
303.38477,303.71115,65,92,42
303.7181,304.27365,63,92,42
304.38477,304.7181,62,92,42
304.7181,305.05145,65,92,42
305.05145,305.38477,67,92,42
305.38477,305.7181,62,92,42
305.7181,306.05145,67,92,42
306.05145,306.37784,60,92,42
306.38477,306.7181,62,92,42
306.7181,307.05145,66,92,42
307.05145,307.38477,67,92,42
307.38477,307.71115,62,92,42
307.7181,307.93338,67,92,42
307.94034,308.1556,60,92,42
308.16254,308.37784,55,92,42
308.38477,308.71115,48,92,42
308.7181,309.0445,46,92,42
309.05145,309.607,44,92,42
309.7181,310.27365,44,92,42
310.38477,310.71115,43,92,42
311.27365,311.48892,55,92,42
311.49588,311.71115,57,92,42
311.7181,311.93338,59,84,42
311.94034,312.1556,62,76,42
312.16254,312.37784,66,68,42
312.38477,312.71115,67,60,42
313.27365,313.48892,59,92,42
313.49588,313.71115,62,92,42
313.7181,313.93338,55,82,42
313.9403,314.1556,50,71,42
314.16254,314.3778,43,60,42
314.38477,315.27365,60,92,42
315.55142,315.71115,55,92,42
315.7181,316.0445,60,92,42
316.2181,316.3778,55,92,42
316.38477,316.71115,52,92,42
316.88477,317.0445,55,92,42
317.05142,317.3778,52,92,42
317.55142,317.71115,55,92,42
317.7181,318.0445,60,92,42
318.2181,318.3778,60,92,42
318.38477,319.2667,65,92,42
319.27365,319.48892,64,92,42
319.49588,319.71115,62,92,42
319.7181,319.93338,64,92,42
319.9403,320.15558,60,92,42
320.27365,320.3778,64,92,42
320.38477,321.2667,65,92,42
321.27365,321.48892,64,92,42
321.49588,321.71115,62,92,42
321.71808,321.93338,64,92,42
321.9403,322.15558,60,92,42
322.27365,322.3778,64,92,42
322.38477,323.27365,61,92,42
323.38477,323.71115,61,92,42
323.71808,324.04446,57,92,42
324.21808,324.3778,61,92,42
324.38477,324.9403,50,92,42
324.38477,324.9403,60,92,42
325.05142,325.3778,43,92,42
325.05142,325.9403,50,92,42
325.21808,325.9403,59,92,42
326.21808,326.3778,59,92,42
326.38477,326.71808,62,92,42
326.71808,327.04446,60,92,42
327.05142,327.16254,59,92,42
327.38477,327.49585,60,92,42
327.71808,327.8292,54,92,42
328.21808,328.3292,60,92,42
328.38477,328.71115,43,92,42
328.38477,329.04446,50,92,42
328.55142,329.04446,59,92,42
329.55142,329.6278,55,92,42
329.63477,329.71115,55,92,42
329.71808,330.04446,55,92,42
330.21808,330.3778,43,92,42
330.38474,330.54446,36,92,42
330.38474,330.54446,43,92,42
330.46808,330.71115,52,92,42
330.46808,330.71115,60,92,42
330.88474,330.96115,67,92,42
330.96808,331.04446,67,92,42
331.05142,331.3778,67,92,42
331.55142,331.6278,55,92,42
331.63474,331.71115,55,92,42
331.71808,332.04446,55,92,42
332.21808,332.29446,43,92,42
332.30142,332.3778,43,92,42
332.38474,332.71115,36,92,42
332.88474,332.96115,67,92,42
332.96808,333.04446,67,92,42
333.05142,333.3778,67,92,42
333.55142,333.6278,43,92,42
333.63474,333.71112,43,92,42
333.71808,334.04446,36,92,42
334.38474,334.71112,46,92,42
334.88474,334.96112,70,92,42
334.96808,335.04446,70,92,42
335.05142,335.3778,70,92,42
335.55142,335.6278,58,92,42
335.63474,335.71112,58,92,42
335.71808,336.04446,58,92,42
336.21808,336.29446,46,92,42
336.30142,336.3778,46,92,42
336.38474,336.71112,46,92,42
336.88474,336.96112,70,92,42
336.96808,337.04446,70,92,42
337.05142,337.3778,70,92,42
337.55142,337.6278,58,92,42
337.63474,337.71112,58,92,42
337.71808,338.04446,58,92,42
338.21808,338.29446,51,92,42
338.30142,338.3778,51,92,42
338.38474,338.71112,44,92,42
338.88474,339.04446,51,92,42
339.05142,339.3778,60,92,42
339.55142,339.71112,62,92,42
339.71808,340.04446,63,92,42
340.21808,340.3778,62,92,42
340.38474,340.71112,60,92,42
340.88474,341.04446,62,92,42
341.0514,341.3778,63,92,42
341.5514,341.71112,62,92,42
341.71808,342.04446,60,92,42
342.21808,342.3778,62,92,42
342.38474,342.71112,55,92,42
351.0514,351.71805,55,92,42
351.71805,352.38474,56,92,42
352.38474,353.27362,50,92,42
353.38474,353.71805,47,92,42
353.71805,354.0514,48,92,42
354.0514,354.38474,55,92,42
354.38474,354.71805,54,92,42
354.71805,355.0514,60,92,42
355.0514,355.38474,59,92,42
355.38474,355.71112,65,92,42
355.71805,356.27362,63,92,42
356.71805,357.0514,60,92,42
357.0514,357.38474,59,92,42
357.38474,357.71805,65,92,42
357.71805,358.0514,64,92,42
358.0514,358.37778,58,92,42
358.38474,358.71805,57,92,42
358.71805,359.0514,62,92,42
359.0514,359.38474,61,92,42
359.38474,359.71805,56,92,42
359.71805,360.0514,55,92,42
360.0514,360.37778,60,92,42
360.38474,360.71805,59,92,42
360.71805,361.0514,54,92,42
361.0514,361.3847,53,92,42
361.3847,361.71805,58,92,42
361.71805,362.0514,59,92,42
362.0514,362.37778,53,92,42
362.3847,362.501,51,92,42
362.73355,362.84982,44,92,42
363.0824,363.2699,43,92,42
363.8324,364.0467,55,92,42
364.68954,365.43954,36,92,42
364.68954,365.43954,48,92,42
365.43954,367.68954,48,60,42
367.68954,368.43954,47,60,42
368.43954,369.06454,48,60,42
369.18954,372.3474,48,60,42
372.3474,373.1369,47,56,42
373.1369,374.346,48,55,42
374.35495,375.20316,51,54,42
375.2121,376.0603,51,54,42
376.0692,376.94287,51,54,42
376.95233,377.85196,51,54,42
377.86142,378.76105,51,54,42
378.7705,379.2156,51,52,42
379.22507,379.71466,48,51,42
379.72507,380.71466,48,50,42
380.72507,381.74963,48,48,42
381.76077,382.2965,48,46,42
382.2965,382.89648,51,45,42
382.89648,383.4965,57,45,42
383.4965,384.0965,50,45,42
384.0965,384.6965,55,45,42
384.6965,385.1965,50,60,42
385.1965,385.68607,55,60,42
385.6965,386.1965,52,60,42
386.1965,386.6965,55,60,42
386.6965,387.1965,50,60,42
387.1965,387.6965,55,60,42
387.6965,388.1965,52,60,42
388.1965,388.68607,55,60,42
388.6965,389.1965,53,60,42
389.1965,389.6965,55,60,42
389.6965,390.1965,50,60,42
390.1965,390.6965,55,60,42
390.6965,391.1965,52,60,42
391.1965,391.68607,55,60,42
391.6965,392.1965,57,60,42
392.1965,392.6965,60,60,42
392.6965,393.1965,55,60,42
393.1965,393.6965,60,60,42
393.6965,394.1965,53,60,42
394.1965,394.68607,54,60,42
394.6965,395.1965,57,60,42
395.1965,395.6965,50,60,42
395.6965,396.1965,55,60,42
396.1965,396.6965,50,60,42
396.6965,397.1965,55,60,42
397.1965,397.68607,62,60,42
397.6965,398.6965,62,60,42
398.6965,400.02982,60,60,42
400.1965,400.68607,64,60,42
400.6965,401.1965,65,60,42
401.1965,401.68607,63,61,42
401.6965,403.02982,62,62,42
403.1965,403.68607,65,65,42
403.6965,404.18607,67,66,42
404.1965,404.6965,67,67,42
404.6965,405.1965,69,68,42
405.1965,405.6965,67,69,42
405.6965,406.1965,65,70,42
406.1965,406.68607,63,71,42
406.6965,408.02982,62,72,42
408.1965,408.6965,57,75,42
408.6965,409.1965,59,76,42
409.1965,409.68607,62,77,42
409.6965,410.1965,60,78,42
410.1965,410.6965,58,79,42
410.6965,411.1965,57,80,42
411.1965,411.6965,61,81,42
411.6965,412.1965,62,82,42
412.1965,412.68607,60,83,42
412.6965,413.1965,59,84,42
413.1965,413.6965,63,85,42
413.6965,414.1965,64,86,42
414.1965,414.6965,62,88,42
414.6965,415.18607,60,90,42
415.1965,415.6965,67,92,42
415.6965,416.18607,65,92,42
416.1965,416.6965,58,92,42
416.6965,417.18607,57,92,42
417.1965,417.6965,55,92,42
417.6965,418.1965,53,92,42
418.1965,418.68607,52,92,42
418.6965,420.4465,51,92,42
420.6965,421.6965,60,92,42
421.6965,423.4465,63,92,42
423.6965,424.6965,63,92,42
424.6965,426.4465,66,92,42
426.6965,427.6965,66,92,42
427.6965,429.4465,69,92,42
429.6965,430.6965,66,92,42
430.6965,432.60126,69,92,42
432.87903,434.03287,54,92,42
434.03287,435.03287,55,92,42
435.03287,436.03287,53,92,42
436.03287,437.03287,55,92,42
437.03287,438.03287,56,92,42
438.03287,439.03287,53,92,42
439.03287,439.8662,55,92,42
440.03287,440.53287,51,92,42
440.53287,441.52246,63,92,42
441.53287,442.03287,63,92,42
442.03287,442.53287,60,92,42
442.53287,443.02246,53,92,42
443.03287,443.53287,60,92,42
443.53287,444.03287,53,92,42
444.03287,444.53287,46,92,42
444.53287,445.03287,53,92,42
445.03287,445.53287,58,92,42
445.53287,446.02246,56,92,42
446.03287,446.53287,55,92,42
446.53287,447.03287,43,92,42
447.03287,447.53287,48,92,42
447.53287,448.03287,55,92,42
448.03287,448.53287,60,92,42
448.53287,449.02246,58,92,42
449.03287,449.53287,56,92,42
449.53287,450.03287,44,92,42
450.03287,450.53287,49,92,42
450.53287,451.03287,56,92,42
451.03287,451.53287,61,92,42
451.53287,452.02246,59,92,42
452.03287,452.52246,58,92,42
452.53287,453.02246,46,92,42
453.03287,453.52246,51,92,42
453.53287,454.02246,39,92,42
454.03287,454.52246,41,92,42
454.53287,455.02246,41,92,42
455.03287,455.8662,46,75,42
479.03287,480.03287,50,60,42
480.03287,481.03287,58,60,42
481.03287,481.8662,55,60,42
482.03287,482.8662,50,60,42
483.03287,484.03287,62,63,42
484.03287,485.03287,64,66,42
485.03287,486.03287,66,69,42
486.03287,486.8662,67,72,42
487.03287,488.03287,61,76,42
488.03287,489.03287,60,80,42
489.03287,489.8662,59,84,42
490.03287,491.03287,58,88,42
491.03287,492.03287,55,92,42
492.03287,492.8662,54,60,42
493.03287,494.03287,50,60,42
494.03287,494.8662,43,60,42
495.03287,496.03287,62,60,42
496.03287,497.03287,60,60,42
497.03287,498.03287,59,60,42
498.03287,498.8662,60,60,42
499.03287,500.03287,58,60,42
500.03287,501.03287,57,60,42
501.03287,501.8662,56,60,42
502.03287,503.03287,60,60,42
503.03287,504.03287,57,60,42
504.03287,504.8662,59,65,42
505.03287,506.03287,57,70,42
506.03287,506.8662,59,75,42
507.03287,508.03287,54,80,42
508.03287,508.8662,55,86,42
509.03287,509.69955,43,92,42
509.03287,509.69955,51,92,42
509.69955,510.03287,55,92,42
510.03287,510.52246,58,92,42
512.0329,512.3662,46,60,42
512.3662,512.6995,51,60,42
512.6995,513.02246,55,60,42
513.0329,514.0329,56,60,42
514.0329,514.52246,55,60,42
515.0329,515.3662,46,60,42
515.3662,515.6995,50,60,42
515.6995,516.0329,53,60,42
516.0329,516.52246,58,60,42
518.0329,518.3662,48,60,42
518.3662,518.6995,51,60,42
518.6995,519.0329,56,60,42
519.0329,519.52246,58,60,42
521.0329,521.3662,45,60,42
521.3662,521.6995,48,60,42
521.6995,522.0329,51,60,42
522.0329,522.52246,46,60,42
524.0329,524.3662,46,60,42
524.3662,524.6995,51,60,42
524.6995,525.0329,55,60,42
525.0329,525.52246,58,60,42
527.0329,527.3662,51,64,42
527.3662,527.6995,56,64,42
527.6995,528.0329,60,64,42
528.0329,528.52246,63,64,42
530.0329,530.3662,46,68,42
530.3662,530.6995,51,68,42
530.6995,531.0329,58,68,42
531.0329,531.52246,60,68,42
533.0329,533.3662,46,73,42
533.3662,533.6995,51,74,42
533.6995,534.0329,55,75,42
534.0329,534.52246,58,76,42
536.0329,536.3558,46,81,42
536.3662,536.68915,51,82,42
536.6995,537.02246,54,83,42
537.0329,537.52246,58,84,42
538.0329,538.3662,46,88,42
538.3662,538.6995,53,89,42
538.6995,539.02246,58,90,42
539.0329,539.52246,51,92,42
539.5329,540.0329,39,75,42
540.0329,540.5329,42,105,42
540.5329,541.02246,39,75,42
542.0329,542.3662,46,60,42
542.3662,542.6995,51,60,42
542.6995,543.0329,55,60,42
543.0329,543.52246,58,60,42
545.0329,545.3662,44,60,42
545.3662,545.6995,48,61,42
545.6995,546.0329,53,62,42
546.0329,546.52246,56,63,42
548.0329,548.3662,46,72,42
548.3662,548.6995,51,73,42
548.6995,549.0329,55,74,42
549.0329,549.52246,58,75,42
550.0329,550.3662,46,80,42
550.3662,550.6995,53,82,42
550.6995,551.02246,58,84,42
551.0329,551.8662,51,86,42
552.0329,552.3558,39,92,42
552.0329,552.3558,46,92,42
552.3662,552.68915,39,92,42
552.3662,552.68915,46,92,42
552.6995,553.02246,39,84,42
552.6995,553.02246,46,84,42
553.0329,553.3558,39,76,42
553.0329,553.3558,46,76,42
553.3662,553.68915,39,68,42
553.3662,553.68915,46,68,42
553.6995,554.02246,39,60,42
553.6995,554.02246,46,60,42
554.0329,554.3558,39,60,42
554.0329,554.3558,46,60,42
554.3662,554.68915,39,60,42
554.3662,554.68915,46,60,42
554.6995,555.02246,39,60,42
554.6995,555.02246,46,60,42
555.0329,555.3558,39,60,42
555.0329,555.3558,46,60,42
555.3662,555.68915,39,62,42
555.3662,555.68915,46,62,42
555.6995,556.02246,39,64,42
555.6995,556.02246,46,64,42
556.0329,556.3558,39,66,42
556.0329,556.3558,46,66,42
556.3662,556.68915,39,68,42
556.3662,556.68915,46,68,42
556.6995,557.02246,39,70,42
556.6995,557.02246,46,70,42
557.0329,557.3558,39,72,42
557.0329,557.3558,46,72,42
557.3662,557.68915,39,74,42
557.3662,557.68915,46,74,42
557.6995,558.02246,39,76,42
557.6995,558.02246,46,76,42
558.0329,558.3558,39,78,42
558.0329,558.3558,46,78,42
558.3662,558.68915,39,80,42
558.3662,558.68915,46,80,42
558.6995,559.02246,39,82,42
558.6995,559.02246,46,82,42
559.0329,559.3558,39,84,42
559.0329,559.3558,46,84,42
559.3662,559.68915,39,86,42
559.3662,559.68915,46,86,42
559.6995,560.02246,39,89,42
559.6995,560.02246,46,89,42
560.0329,560.3558,39,92,42
560.3662,560.68915,39,92,42
560.6995,561.02246,39,90,42
561.0329,561.3558,39,88,42
561.3662,561.68915,39,86,42
561.6995,562.02246,39,84,42
562.0329,562.3558,39,82,42
562.0329,562.3558,46,82,42
562.3662,562.68915,39,80,42
562.3662,562.68915,46,80,42
562.6995,563.02246,39,78,42
562.6995,563.02246,46,78,42
563.0329,563.3558,39,76,42
563.0329,563.3558,46,76,42
563.3662,563.68915,39,74,42
563.3662,563.68915,46,74,42
563.6995,564.02246,39,72,42
563.6995,564.02246,46,72,42
564.0329,564.3558,39,70,42
564.0329,564.3558,46,70,42
564.3662,564.68915,39,68,42
564.3662,564.68915,46,68,42
564.6995,565.02246,39,66,42
564.6995,565.02246,46,66,42
565.0329,565.3558,39,64,42
565.0329,565.3558,46,64,42
565.3662,565.68915,39,62,42
565.3662,565.68915,46,62,42
565.6995,566.02246,39,60,42
565.6995,566.02246,46,60,42
566.0329,566.3558,39,60,42
566.0329,566.3558,46,60,42
566.3662,566.68915,39,60,42
566.3662,566.68915,46,60,42
566.6995,567.02246,39,60,42
566.6995,567.02246,46,60,42
567.0329,567.3558,39,60,42
567.0329,567.3558,46,60,42
567.3662,567.68915,39,60,42
567.3662,567.68915,46,60,42
567.6995,568.02246,39,60,42
567.6995,568.02246,46,60,42
568.0329,568.3558,39,60,42
568.0329,568.3558,46,60,42
568.3662,568.68915,39,60,42
568.3662,568.68915,46,60,42
568.6995,569.02246,39,60,42
568.6995,569.02246,46,60,42
569.0329,569.3558,39,60,42
569.3662,569.68915,39,63,42
569.6995,570.02246,39,66,42
570.0329,570.3558,39,69,42
570.3662,570.68915,39,72,42
570.6995,571.02246,39,76,42
571.0329,571.3558,39,80,42
571.3662,571.68915,39,84,42
571.6995,572.02246,39,88,42
572.0329,572.3558,39,92,42
572.3662,572.68915,39,92,42
572.6995,573.02246,39,90,42
573.0329,573.3558,39,88,42
573.3662,573.68915,39,86,42
573.6995,574.02246,39,84,42
574.0329,574.3558,39,82,42
574.3662,574.68915,39,80,42
574.6995,575.02246,39,78,42
575.0329,575.3558,39,76,42
575.3662,575.68915,39,74,42
575.6995,576.02246,39,72,42
576.0329,576.3558,39,70,42
576.3662,576.68915,39,68,42
576.6995,577.02246,39,66,42
577.0329,577.3558,39,64,42
577.3662,577.68915,39,62,42
577.6995,578.02246,39,60,42
578.0329,578.3558,39,60,42
578.3662,578.68915,39,61,42
578.6995,579.02246,39,62,42
579.0329,579.3558,39,63,42
579.3662,579.68915,39,64,42
579.6995,580.02246,39,66,42
580.0329,580.52246,39,68,42
580.0329,580.52246,46,68,42
580.5329,581.02246,39,71,42
580.5329,581.02246,46,71,42
581.0329,581.52246,39,74,42
581.0329,581.52246,46,74,42
581.5329,582.02246,39,77,42
581.5329,582.02246,46,77,42
582.0329,582.52246,39,80,42
582.0329,582.52246,46,80,42
582.5329,583.02246,39,83,42
582.5329,583.02246,46,83,42
583.0329,583.52246,39,86,42
583.0329,583.52246,46,86,42
583.5329,584.02246,39,89,42
583.5329,584.02246,46,89,42
584.0329,585.0329,51,92,42
585.0329,586.7829,46,92,42
587.0329,588.0329,50,92,42
588.0329,589.7829,46,92,42
590.0329,591.0329,48,92,42
591.0329,592.0329,46,92,42
592.0329,592.8662,44,92,42
593.0329,594.7829,46,92,42
595.0329,596.0329,58,92,42
596.0329,597.0329,61,92,42
597.0329,598.0329,60,92,42
598.0329,598.8662,58,92,42
599.0329,600.0329,63,75,42
600.0329,601.0329,60,75,42
601.0329,601.8662,56,75,42
602.0329,604.0329,47,75,42
604.0329,604.8662,46,75,42
605.0329,606.0329,51,75,42
606.0329,607.0329,50,75,42
607.0329,607.8662,51,75,42
608.0329,610.0329,47,75,42
610.0329,610.8662,46,75,42
611.0329,612.0329,51,75,42
612.0329,613.0329,50,75,42
613.0329,613.8662,51,75,42
614.0329,616.0329,47,75,42
616.0329,616.8662,46,75,42
617.0329,618.0329,39,75,42
618.0329,619.0329,38,73,42
619.0329,621.1043,39,71,42
621.1043,622.1757,38,67,42
622.1757,623.0686,39,65,42
623.2472,624.3186,39,63,42
624.3186,625.39,38,61,42
623.2472,625.39,47,63,42
625.39,626.2829,39,59,42
625.39,626.2829,46,59,42
626.4614,627.6153,39,57,42
627.6153,628.76917,38,54,42
626.4614,628.76917,47,57,42
628.76917,629.73065,39,51,42
628.76917,629.73065,46,51,42
629.923,633.3605,39,48,42
629.923,633.3605,46,48,42
633.673,637.423,39,39,42
633.673,637.423,46,39,42
637.7639,641.8889,39,30,42
637.7639,641.8889,46,30,42
234.74669,235.07309,45,45,45
234.74669,235.07309,52,45,45
234.74669,235.07309,61,45,45
236.74669,237.07307,43,45,45
236.74669,237.07307,50,45,45
236.74669,237.07307,59,45,45
238.74669,239.07307,36,45,45
238.74669,239.07307,43,45,45
238.74669,239.07307,52,45,45
238.74669,239.07307,60,45,45
240.74669,241.07307,43,45,45
240.74669,241.07307,50,45,45
240.74669,241.07307,59,45,45
3.0,3.5,51,75,0
3.5,4.0,55,75,0
4.0,4.5,58,75,0
4.5,5.0,56,76,0
5.0,5.5,55,77,0
5.5,6.0,51,78,0
6.0,6.5,50,80,0
6.5,7.0,53,82,0
7.0,7.5,58,84,0
7.5,8.0,56,86,0
8.0,8.5,55,88,0
8.5,8.989583,51,90,0
9.0,9.5,48,92,0
9.5,10.0,51,92,0
10.0,10.5,46,92,0
10.5,11.0,51,92,0
11.0,11.5,44,92,0
11.5,12.0,53,92,0
12.0,12.5,45,75,0
12.5,13.0,53,75,0
13.0,13.489583,46,60,0
13.5,14.0,53,60,0
14.0,14.5,58,60,0
14.5,15.0,56,60,0
15.0,15.5,55,60,0
15.5,16.0,43,62,0
16.0,16.489584,48,64,0
16.5,17.0,55,66,0
17.0,17.5,60,68,0
17.5,18.0,58,71,0
18.0,18.5,56,74,0
18.5,19.0,44,77,0
19.0,19.489584,49,80,0
19.5,20.0,56,83,0
20.0,20.5,61,86,0
20.5,21.0,59,89,0
21.0,21.5,58,92,0
21.5,22.0,46,92,0
22.0,22.5,51,92,0
22.5,23.0,55,92,0
23.0,23.5,53,92,0
23.5,23.989584,41,92,0
24.0,24.5,46,75,0
24.5,25.0,50,75,0
25.0,25.5,53,60,0
25.5,26.0,58,60,0
26.0,26.5,57,60,0
26.5,26.989584,58,60,0
27.0,27.5,46,60,0
27.5,28.0,50,61,0
28.0,28.5,53,62,0
28.5,29.0,58,63,0
29.0,29.5,57,64,0
29.5,29.989584,58,66,0
30.0,30.5,46,68,0
30.5,31.0,50,70,0
31.0,31.5,53,72,0
31.5,32.0,58,74,0
32.0,32.5,56,76,0
32.5,32.989582,58,78,0
33.0,33.5,55,80,0
33.5,34.0,58,82,0
34.0,34.5,55,84,0
34.5,35.0,51,86,0
35.0,35.5,46,88,0
35.5,36.0,43,90,0
36.0,36.5,48,92,0
36.5,37.0,51,92,0
37.0,37.5,55,75,0
37.5,37.989582,60,75,0
38.0,38.5,55,60,0
38.5,39.0,58,60,0
39.0,39.5,60,60,0
39.5,40.0,63,60,0
40.0,40.489582,67,60,0
40.5,40.854168,45,92,0
41.0,41.354168,46,92,0
41.5,41.666668,48,92,0
42.0,42.5,50,92,0
42.5,43.0,62,92,0
43.0,43.5,67,92,0
43.5,44.0,55,92,0
44.0,44.5,53,92,0
44.5,45.0,65,92,0
45.0,45.5,58,92,0
45.5,46.0,46,92,0
46.0,46.5,45,92,0
46.5,47.0,57,92,0
47.0,47.5,50,92,0
47.5,48.0,45,92,0
48.0,48.5,41,92,0
48.5,49.0,38,87,0
49.0,49.5,43,82,0
49.5,50.0,55,77,0
50.0,50.5,57,72,0
50.5,50.989582,45,66,0
51.0,51.833332,50,60,0
52.0,52.322918,62,60,0
52.0,52.322918,66,60,0
52.0,52.322918,74,60,0
52.333332,52.65625,62,60,0
52.333332,52.65625,66,60,0
52.333332,52.65625,74,60,0
52.666668,52.989582,62,60,0
52.666668,52.989582,66,60,0
52.666668,52.989582,74,60,0
53.0,53.322918,62,60,0
53.0,53.322918,64,60,0
53.0,53.322918,67,60,0
53.0,53.322918,73,60,0
53.333332,53.65625,62,60,0
53.333332,53.65625,64,60,0
53.333332,53.65625,67,60,0
53.333332,53.65625,73,60,0
53.666668,53.989582,62,60,0
53.666668,53.989582,64,60,0
53.666668,53.989582,67,60,0
53.666668,53.989582,73,60,0
54.0,54.322918,62,60,0
54.0,54.322918,66,60,0
54.0,54.322918,69,60,0
54.0,54.322918,72,60,0
54.333332,54.65625,62,60,0
54.333332,54.65625,66,60,0
54.333332,54.65625,69,60,0
54.333332,54.65625,72,60,0
54.666668,54.989582,62,60,0
54.666668,54.989582,66,60,0
54.666668,54.989582,69,60,0
54.666668,54.989582,72,60,0
55.0,55.322918,62,60,0
55.0,55.322918,67,60,0
55.0,55.322918,71,60,0
55.333332,55.65625,62,60,0
55.333332,55.65625,67,60,0
55.333332,55.65625,71,60,0
55.666668,55.989582,62,60,0
55.666668,55.989582,67,60,0
55.666668,55.989582,71,60,0
56.0,56.322918,61,60,0
56.0,56.322918,67,60,0
56.0,56.322918,70,60,0
56.333332,56.65625,61,60,0
56.333332,56.65625,67,60,0
56.333332,56.65625,70,60,0
56.666668,56.989582,61,60,0
56.666668,56.989582,67,60,0
56.666668,56.989582,70,60,0
57.0,57.322918,60,60,0
57.0,57.322918,69,60,0
57.333332,57.65625,60,61,0
57.333332,57.65625,69,61,0
57.666668,57.989582,60,62,0
57.666668,57.989582,69,62,0
58.0,58.322918,59,63,0
58.0,58.322918,62,63,0
58.0,58.322918,69,63,0
58.333332,58.65625,59,65,0
58.333332,58.65625,62,65,0
58.333332,58.65625,69,65,0
58.666668,58.989582,59,67,0
58.666668,58.989582,62,67,0
58.666668,58.989582,69,67,0
59.0,59.322918,58,69,0
59.0,59.322918,62,69,0
59.0,59.322918,67,69,0
59.333332,59.65625,58,71,0
59.333332,59.65625,62,71,0
59.333332,59.65625,67,71,0
59.666668,59.989582,58,73,0
59.666668,59.989582,62,73,0
59.666668,59.989582,67,73,0
60.0,60.322918,55,75,0
60.0,60.322918,61,75,0
60.0,60.322918,64,75,0
60.333332,60.65625,55,75,0
60.333332,60.65625,61,75,0
60.333332,60.65625,64,75,0
60.666668,60.989582,55,75,0
60.666668,60.989582,61,75,0
60.666668,60.989582,64,75,0
61.0,61.322918,54,75,0
61.0,61.322918,62,75,0
61.0,61.322918,66,75,0
61.333332,61.65625,54,75,0
61.333332,61.65625,62,75,0
61.333332,61.65625,66,75,0
61.666668,61.989582,54,75,0
61.666668,61.989582,62,75,0
61.666668,61.989582,66,75,0
62.0,63.833332,50,75,0
62.0,63.833332,62,75,0
64.0,65.333336,50,75,0
64.0,65.333336,62,75,0
65.5,65.989586,50,75,0
65.5,65.989586,62,75,0
66.0,66.5,50,75,0
66.0,66.5,62,75,0
66.5,66.989586,51,75,0
66.5,66.989586,63,75,0
67.0,68.333336,51,75,0
67.0,68.333336,63,75,0
68.5,68.989586,52,77,0
68.5,68.989586,64,77,0
69.0,69.5,55,77,0
69.0,69.5,67,77,0
69.5,69.989586,52,77,0
69.5,69.989586,64,77,0
70.0,71.333336,53,77,0
70.0,71.333336,65,77,0
71.5,71.989586,56,79,0
71.5,71.989586,68,79,0
72.0,73.0,60,80,0
72.0,73.0,72,80,0
73.0,73.833336,59,82,0
73.0,73.833336,71,82,0
74.0,74.833336,60,84,0
74.0,74.833336,72,84,0
75.0,75.833336,59,86,0
75.0,75.833336,71,86,0
76.0,77.0,63,88,0
76.0,77.0,75,88,0
77.0,77.833336,62,90,0
77.0,77.833336,74,90,0
78.0,78.5,70,92,0
78.0,78.5,75,92,0
78.0,78.5,82,92,0
78.5,79.0,67,92,0
78.5,79.0,79,92,0
79.0,79.5,63,92,0
79.0,79.5,75,92,0
79.5,80.0,70,92,0
80.0,80.5,67,92,0
80.5,81.0,63,92,0
81.0,81.5,58,92,0
81.5,82.0,55,91,0
82.0,82.5,58,90,0
82.5,83.0,56,89,0
83.0,83.5,55,88,0
83.5,84.0,51,86,0
84.0,84.5,50,84,0
84.5,85.0,53,82,0
85.0,85.5,58,80,0
85.5,86.0,56,78,0
86.0,86.5,55,76,0
86.5,86.989586,51,74,0
87.0,87.5,48,72,0
87.5,88.0,51,70,0
88.0,88.5,46,68,0
88.5,89.0,51,66,0
89.0,89.5,44,64,0
89.5,90.0,53,62,0
90.0,90.5,45,60,0
90.5,91.0,53,60,0
91.0,91.5,46,60,0
91.5,92.0,53,60,0
92.0,92.5,58,60,0
92.5,92.989586,56,60,0
93.0,93.5,55,60,0
93.5,94.0,58,61,0
94.0,94.5,53,62,0
94.5,95.0,58,63,0
95.0,95.5,51,64,0
95.5,96.0,49,65,0
96.0,96.5,48,66,0
96.5,97.0,51,67,0
97.0,97.5,46,68,0
97.5,98.0,51,69,0
98.0,98.5,44,70,0
98.5,98.989586,51,71,0
99.0,99.5,43,72,0
99.5,100.0,42,73,0
100.0,100.5,41,74,0
100.5,100.989586,51,75,0
101.0,101.5,41,76,0
101.5,102.0,40,77,0
102.0,102.5,39,78,0
102.5,103.0,51,79,0
103.0,103.5,46,80,0
103.5,104.0,42,81,0
104.0,104.5,44,82,0
104.5,104.989586,56,83,0
105.0,105.5,46,84,0
105.5,106.0,51,85,0
106.0,106.5,54,86,0
106.5,107.0,58,87,0
107.0,107.5,46,88,0
107.5,107.989586,58,90,0
108.0,110.75,45,92,0
111.0,111.5,46,92,0
111.5,112.0,51,92,0
112.0,112.5,55,92,0
112.5,113.0,58,92,0
113.0,113.5,60,92,0
113.5,113.989586,48,92,0
114.0,114.5,44,92,0
114.5,115.0,48,92,0
115.0,115.5,53,92,0
115.5,116.0,56,92,0
116.0,116.5,44,92,0
116.5,116.989586,56,92,0
117.0,117.5,46,92,0
117.5,118.0,51,92,0
118.0,118.5,55,92,0
118.5,119.0,58,92,0
119.0,119.5,46,92,0
119.5,119.989586,58,92,0
120.125,120.25,55,92,0
120.25,120.375,58,92,0
120.375,120.5,63,92,0
120.5,120.625,67,92,0
120.625,120.75,63,92,0
120.75,120.875,58,92,0
120.875,120.989586,55,92,0
121.166664,121.333336,68,92,0
121.333336,121.5,77,92,0
121.5,121.666664,82,92,0
121.666664,121.833336,77,92,0
121.833336,121.989586,68,92,0
122.125,122.25,55,92,0
122.25,122.375,58,92,0
122.375,122.5,63,92,0
122.5,122.625,67,92,0
122.625,122.75,63,92,0
122.75,122.875,58,92,0
122.875,122.989586,55,92,0
123.125,123.25,56,92,0
123.25,123.375,58,92,0
123.375,123.5,62,92,0
123.5,123.625,68,92,0
123.625,123.75,62,92,0
123.75,123.875,58,92,0
123.875,123.989586,56,92,0
124.166664,124.333336,68,92,0
124.333336,124.5,77,92,0
124.5,124.666664,82,92,0
124.666664,124.833336,77,92,0
124.833336,124.989586,68,92,0
125.125,125.25,61,92,0
125.25,125.375,67,92,0
125.375,125.5,70,92,0
125.5,125.625,73,92,0
125.625,125.75,70,92,0
125.75,125.875,67,92,0
125.875,125.989586,61,92,0
126.125,126.25,60,92,0
126.25,126.375,63,92,0
126.375,126.5,68,92,0
126.5,126.625,72,92,0
126.625,126.75,75,92,0
126.75,126.875,80,92,0
126.875,126.989586,84,92,0
127.125,127.25,70,92,0
127.25,127.375,75,92,0
127.375,127.5,79,92,0
127.5,127.625,82,92,0
127.625,127.75,79,92,0
127.75,127.875,75,92,0
127.875,127.989586,70,92,0
128.125,128.25,69,92,0
128.25,128.375,72,92,0
128.375,128.5,75,92,0
128.5,128.625,81,92,0
128.625,128.75,75,92,0
128.75,128.875,72,92,0
128.875,128.98958,69,92,0
129.125,129.25,68,92,0
129.25,129.375,70,92,0
129.375,129.5,77,92,0
129.5,129.625,80,92,0
129.625,129.75,77,92,0
129.75,129.875,70,92,0
129.875,129.98958,68,92,0
130.16667,130.33333,68,92,0
130.33333,130.5,77,92,0
130.5,130.66667,82,92,0
130.66667,130.83333,77,92,0
130.83333,130.98958,68,92,0
131.125,131.25,66,92,0
131.25,131.375,72,87,0
131.375,131.5,75,82,0
131.5,131.625,78,77,0
131.625,131.75,75,72,0
131.75,131.875,72,66,0
131.875,131.98958,66,60,0
132.5,132.625,62,60,0
132.625,132.75,65,60,0
132.75,132.875,70,60,0
132.875,133.0,74,60,0
133.0,133.48958,77,60,0
144.125,144.25,56,92,0
144.25,144.375,60,92,0
144.375,144.5,65,92,0
144.5,144.625,68,92,0
144.625,144.75,65,92,0
144.75,144.875,60,92,0
144.875,144.98958,56,92,0
145.125,145.25,72,92,0
145.25,145.375,79,92,0
145.375,145.5,82,92,0
145.5,145.625,84,92,0
145.625,145.75,82,92,0
145.75,145.875,79,92,0
145.875,145.98958,72,92,0
146.125,146.25,56,92,0
146.25,146.375,60,92,0
146.375,146.5,65,92,0
146.5,146.625,68,92,0
146.625,146.75,65,92,0
146.75,146.875,60,92,0
146.875,146.98958,56,92,0
147.125,147.25,58,92,0
147.25,147.375,60,92,0
147.375,147.5,64,92,0
147.5,147.625,70,92,0
147.625,147.75,64,92,0
147.75,147.875,60,92,0
147.875,147.98958,58,92,0
148.125,148.25,72,92,0
148.25,148.375,79,92,0
148.375,148.5,82,92,0
148.5,148.625,84,92,0
148.625,148.75,82,92,0
148.75,148.875,79,92,0
148.875,148.98958,72,92,0
149.125,149.25,63,92,0
149.25,149.375,69,92,0
149.375,149.5,72,92,0
149.5,149.625,75,92,0
149.625,149.75,72,92,0
149.75,149.875,69,92,0
149.875,149.98958,63,92,0
150.125,150.25,61,92,0
150.25,150.375,65,92,0
150.375,150.5,70,92,0
150.5,150.625,73,92,0
150.625,150.75,77,92,0
150.75,150.875,82,92,0
150.875,150.98958,85,92,0
151.125,151.25,72,92,0
151.25,151.375,77,92,0
151.375,151.5,80,92,0
151.5,151.625,84,92,0
151.625,151.75,80,92,0
151.75,151.875,77,92,0
151.875,151.98958,72,92,0
152.125,152.25,71,92,0
152.25,152.375,74,92,0
152.375,152.5,77,92,0
152.5,152.625,83,92,0
152.625,152.75,77,92,0
152.75,152.875,74,92,0
152.875,152.98958,71,92,0
153.125,153.25,70,92,0
153.25,153.375,72,92,0
153.375,153.5,79,92,0
153.5,153.625,82,92,0
153.625,153.75,79,92,0
153.75,153.875,72,92,0
153.875,153.98958,70,92,0
154.125,154.25,72,92,0
154.25,154.375,79,92,0
154.375,154.5,82,92,0
154.5,154.625,84,92,0
154.625,154.75,82,92,0
154.75,154.875,79,92,0
154.875,154.98958,72,92,0
155.125,155.25,68,92,0
155.25,155.375,74,87,0
155.375,155.5,77,82,0
155.5,155.625,80,77,0
155.625,155.75,77,72,0
155.75,155.875,74,66,0
155.875,155.98958,68,60,0
156.5,156.625,64,60,0
156.625,156.75,67,60,0
156.75,156.875,72,60,0
156.875,157.0,76,60,0
157.0,157.48958,79,60,0
168.0,168.32292,70,60,0
168.0,168.32292,74,60,0
168.33333,168.65625,70,60,0
168.33333,168.65625,74,60,0
168.66667,168.98958,70,60,0
168.66667,168.98958,74,60,0
169.0,169.32292,67,60,0
169.0,169.32292,73,60,0
169.0,169.32292,75,60,0
169.33333,169.65625,67,62,0
169.33333,169.65625,73,62,0
169.33333,169.65625,75,62,0
169.66667,169.98958,67,64,0
169.66667,169.98958,73,64,0
169.66667,169.98958,75,64,0
170.0,170.32292,68,66,0
170.0,170.32292,72,66,0
170.0,170.32292,75,66,0
170.33333,170.65625,68,68,0
170.33333,170.65625,72,68,0
170.33333,170.65625,75,68,0
170.66667,170.98958,68,70,0
170.66667,170.98958,72,70,0
170.66667,170.98958,75,70,0
171.0,171.32292,69,72,0
171.0,171.32292,75,72,0
171.0,171.32292,77,72,0
171.33333,171.65625,69,74,0
171.33333,171.65625,75,74,0
171.33333,171.65625,77,74,0
171.66667,171.98958,75,76,0
171.66667,171.98958,69,76,0
171.66667,171.98958,77,76,0
172.0,172.32292,70,78,0
172.0,172.32292,74,78,0
172.0,172.32292,77,78,0
172.33333,172.65625,70,80,0
172.33333,172.65625,74,80,0
172.33333,172.65625,77,80,0
172.66667,172.98958,70,82,0
172.66667,172.98958,74,82,0
172.66667,172.98958,77,82,0
173.0,173.32292,71,84,0
173.0,173.32292,77,84,0
173.0,173.32292,79,84,0
173.33333,173.65625,71,86,0
173.33333,173.65625,77,86,0
173.33333,173.65625,79,86,0
173.66667,173.98958,71,89,0
173.66667,173.98958,77,89,0
173.66667,173.98958,79,89,0
174.0,174.35417,72,92,0
174.0,174.35417,75,92,0
174.0,174.35417,79,92,0
174.5,174.66667,67,92,0
174.5,174.66667,73,92,0
174.5,174.66667,76,92,0
174.5,174.66667,79,92,0
175.0,175.83333,65,92,0
175.0,175.83333,72,92,0
175.0,175.83333,77,92,0
176.0,176.83333,66,92,0
176.0,176.83333,72,92,0
176.0,176.83333,74,92,0
176.0,176.83333,78,92,0
177.0,177.48958,67,92,0
177.0,177.48958,71,92,0
177.0,177.48958,79,92,0
177.75,177.98958,67,92,0
177.75,177.98958,79,92,0
178.0,178.48958,67,92,0
178.0,178.48958,79,92,0
178.75,178.98958,67,85,0
178.75,178.98958,79,85,0
179.0,179.48958,67,83,0
179.0,179.48958,79,83,0
179.75,179.98958,67,75,0
179.75,179.98958,79,75,0
180.0,180.48958,67,72,0
180.0,180.48958,79,72,0
180.75,180.98958,67,63,0
180.75,180.98958,78,63,0
180.75,180.98958,79,63,0
181.0,181.48958,67,60,0
181.0,181.48958,78,60,0
181.0,181.48958,79,60,0
181.75,181.98958,67,60,0
181.75,181.98958,78,60,0
181.75,181.98958,79,60,0
182.0,182.48958,67,60,0
182.0,182.48958,78,60,0
182.0,182.48958,79,60,0
182.75,182.98958,67,60,0
182.75,182.98958,78,60,0
182.75,182.98958,79,60,0
183.0,183.48958,67,60,0
183.0,183.48958,78,60,0
183.0,183.48958,79,60,0
183.75,183.98958,67,60,0
183.75,183.98958,77,60,0
183.75,183.98958,79,60,0
184.0,184.48958,67,60,0
184.0,184.48958,77,60,0
184.0,184.48958,79,60,0
184.75,184.98958,67,60,0
184.75,184.98958,77,60,0
184.75,184.98958,79,60,0
185.0,185.48958,67,60,0
185.0,185.48958,77,60,0
185.0,185.48958,79,60,0
185.75,185.98958,67,60,0
185.75,185.98958,77,60,0
185.75,185.98958,79,60,0
186.0,186.48958,67,60,0
186.0,186.48958,77,60,0
186.0,186.48958,79,60,0
186.75,186.98958,67,60,0
186.75,186.98958,76,60,0
186.75,186.98958,79,60,0
187.0,187.48958,67,60,0
187.0,187.48958,76,60,0
187.0,187.48958,79,60,0
187.75,187.98958,67,60,0
187.75,187.98958,76,60,0
187.75,187.98958,79,60,0
188.0,188.48958,67,60,0
188.0,188.48958,76,60,0
188.0,188.48958,79,60,0
188.75,188.98958,67,60,0
188.75,188.98958,76,60,0
188.75,188.98958,79,60,0
189.0,189.48958,67,60,0
189.0,189.48958,76,60,0
189.0,189.48958,79,60,0
189.75,189.98958,67,60,0
189.75,189.98958,75,60,0
189.75,189.98958,79,60,0
190.0,190.48958,67,60,0
190.0,190.48958,75,60,0
190.0,190.48958,79,60,0
190.75,190.98958,67,60,0
190.75,190.98958,75,60,0
190.75,190.98958,79,60,0
191.0,191.48958,67,60,0
191.0,191.48958,75,60,0
191.0,191.48958,79,60,0
191.75,191.98958,67,72,0
191.75,191.98958,75,72,0
191.75,191.98958,79,72,0
192.0,192.48958,67,76,0
192.0,192.48958,75,76,0
192.0,192.48958,79,76,0
192.75,192.98958,67,88,0
192.75,192.98958,74,88,0
192.75,192.98958,79,88,0
193.0,193.48958,67,92,0
193.0,193.48958,74,92,0
193.0,193.48958,79,92,0
193.75,193.98958,67,92,0
193.75,193.98958,71,92,0
193.75,193.98958,79,92,0
194.0,194.48958,67,92,0
194.0,194.48958,72,92,0
194.0,194.48958,79,92,0
194.75,194.98958,67,92,0
194.75,194.98958,74,92,0
194.75,194.98958,79,92,0
195.0,195.48958,67,92,0
195.0,195.48958,75,92,0
195.0,195.48958,79,92,0
195.75,195.98958,67,92,0
195.75,195.98958,74,92,0
195.75,195.98958,79,92,0
196.0,196.48958,67,92,0
196.0,196.48958,75,92,0
196.0,196.48958,79,92,0
196.75,196.98958,67,92,0
196.75,196.98958,76,92,0
196.75,196.98958,79,92,0
197.0,197.48958,67,92,0
197.0,197.48958,77,92,0
197.0,197.48958,79,92,0
197.75,197.98958,67,92,0
197.75,197.98958,78,92,0
197.75,197.98958,79,92,0
198.0,198.48958,67,92,0
198.0,198.48958,79,92,0
202.0,203.33333,67,60,0
203.33333,203.66667,69,60,0
203.66667,203.98958,64,60,0
204.0,205.0,67,60,0
205.0,206.33333,60,60,0
205.0,206.33333,66,60,0
205.0,206.33333,72,60,0
206.33333,206.66667,62,70,0
206.33333,206.66667,74,70,0
206.66667,207.0,57,73,0
206.66667,207.0,69,73,0
207.0,207.83333,60,76,0
207.0,207.83333,66,76,0
207.0,207.83333,72,76,0
208.0,208.48958,67,85,0
208.75,208.98958,59,92,0
208.75,208.98958,67,92,0
208.75,208.98958,71,92,0
209.0,209.48958,60,92,0
209.0,209.48958,69,92,0
209.0,209.48958,72,92,0
209.75,209.98958,62,92,0
209.75,209.98958,71,92,0
209.75,209.98958,74,92,0
210.0,210.48958,63,92,0
210.0,210.48958,72,92,0
210.0,210.48958,75,92,0
210.75,210.98958,62,75,0
210.75,210.98958,67,75,0
210.75,210.98958,74,75,0
211.0,211.48958,63,75,0
211.0,211.48958,67,75,0
211.0,211.48958,75,75,0
211.75,211.98958,64,75,0
211.75,211.98958,72,75,0
211.75,211.98958,76,75,0
212.0,212.48958,65,75,0
212.0,212.48958,72,75,0
212.0,212.48958,77,75,0
212.75,212.98958,66,60,0
212.75,212.98958,72,60,0
212.75,212.98958,78,60,0
213.0,213.48958,67,60,0
213.0,213.48958,71,60,0
213.0,213.48958,79,60,0
225.5467,226.96892,76,60,0
225.5467,226.96892,84,60,0
225.5467,226.96892,88,60,0
227.2467,227.40642,74,60,0
227.2467,227.40642,79,60,0
227.2467,227.40642,86,60,0
227.41336,227.73976,76,60,0
227.41336,227.73976,84,60,0
227.41336,227.73976,88,60,0
227.91336,228.07309,74,60,0
227.91336,228.07309,79,60,0
227.91336,228.07309,86,60,0
228.08003,228.40642,72,60,0
228.08003,228.40642,76,60,0
228.08003,228.40642,84,60,0
228.58003,228.73976,79,60,0
228.7467,229.07309,72,60,0
228.7467,229.07309,76,60,0
228.7467,229.07309,84,60,0
229.2467,229.40642,74,60,0
229.2467,229.40642,79,60,0
229.2467,229.40642,86,60,0
229.41336,229.73976,76,60,0
229.41336,229.73976,84,60,0
229.41336,229.73976,88,60,0
229.91336,230.07309,84,60,0
230.08003,230.96198,81,60,0
230.08003,230.96198,89,60,0
230.08003,230.96198,93,60,0
230.96892,231.1842,79,60,0
230.96892,231.1842,88,60,0
230.96892,231.1842,91,60,0
231.19115,231.40642,77,60,0
231.19115,231.40642,86,60,0
231.19115,231.40642,89,60,0
231.41336,231.63559,79,60,0
231.41336,231.63559,88,60,0
231.41336,231.63559,91,60,0
231.63559,231.85086,76,60,0
231.63559,231.85086,84,60,0
231.63559,231.85086,88,60,0
231.96892,232.07309,79,60,0
231.96892,232.07309,88,60,0
231.96892,232.07309,91,60,0
232.08003,232.96198,81,60,0
232.08003,232.96198,89,60,0
232.08003,232.96198,93,60,0
232.96892,233.18419,79,60,0
232.96892,233.18419,88,60,0
232.96892,233.18419,91,60,0
233.19115,233.40642,77,60,0
233.19115,233.40642,86,60,0
233.19115,233.40642,89,60,0
233.41336,233.63559,79,60,0
233.41336,233.63559,88,60,0
233.41336,233.63559,91,60,0
233.63559,233.85086,76,60,0
233.63559,233.85086,84,60,0
233.63559,233.85086,88,60,0
233.96892,234.07309,79,60,0
233.96892,234.07309,88,60,0
233.96892,234.07309,91,60,0
234.08003,234.96892,81,60,0
234.08003,234.96892,85,60,0
234.08003,234.96892,88,60,0
234.08003,234.96892,93,60,0
235.08003,235.40642,76,60,0
235.08003,235.40642,88,60,0
235.41336,235.73975,73,60,0
235.41336,235.73975,85,60,0
235.91336,236.07307,76,60,0
235.91336,236.07307,88,60,0
236.08003,236.74669,78,60,0
236.08003,236.74669,81,60,0
236.08003,236.74669,84,60,0
236.08003,236.74669,86,60,0
236.08003,236.74669,90,60,0
236.74669,237.90642,77,60,0
236.74669,237.90642,79,60,0
236.74669,237.90642,83,60,0
236.74669,237.90642,86,60,0
236.74669,237.90642,91,60,0
237.91336,238.07307,74,60,0
237.91336,238.07307,86,60,0
238.08002,238.41336,77,60,0
238.08002,238.41336,89,60,0
238.41336,238.73975,76,60,0
238.41336,238.73975,88,60,0
238.74669,238.8578,74,60,0
238.74669,238.8578,86,60,0
239.08002,239.19113,72,60,0
239.08002,239.19113,84,60,0
239.41336,239.73975,71,60,0
239.41336,239.73975,78,60,0
239.41336,239.73975,83,60,0
239.91336,240.07307,72,60,0
239.91336,240.07307,84,60,0
240.08002,240.63557,74,60,0
240.08002,240.63557,79,60,0
240.08002,240.63557,83,60,0
240.08002,240.63557,86,60,0
240.9689,241.12515,67,60,0
240.9689,241.12515,79,60,0
241.19113,241.34738,69,60,0
241.19113,241.34738,81,60,0
241.41336,241.56961,71,60,0
241.41336,241.56961,83,60,0
241.63557,241.79182,72,60,0
241.63557,241.79182,81,60,0
241.63557,241.79182,84,60,0
241.8578,242.00363,74,60,0
241.8578,242.00363,79,60,0
241.8578,242.00363,86,60,0
242.08002,242.9689,76,60,0
242.08002,242.9689,84,60,0
242.08002,242.9689,88,60,0
243.24669,243.4064,74,60,0
243.24669,243.4064,79,60,0
243.24669,243.4064,86,60,0
243.41335,243.73975,76,60,0
243.41335,243.73975,84,60,0
243.41335,243.73975,88,60,0
243.91335,244.07307,74,60,0
243.91335,244.07307,79,60,0
243.91335,244.07307,86,60,0
244.08002,244.4064,72,60,0
244.08002,244.4064,76,60,0
244.08002,244.4064,84,60,0
244.58002,244.73975,79,60,0
244.74669,245.07307,72,60,0
244.74669,245.07307,76,60,0
244.74669,245.07307,84,60,0
245.24669,245.4064,74,60,0
245.24669,245.4064,79,60,0
245.24669,245.4064,86,60,0
245.41335,245.9689,76,60,0
245.41335,245.9689,84,60,0
245.41335,245.9689,88,60,0
246.08002,246.9689,79,60,0
246.08002,246.9689,87,60,0
246.08002,246.9689,91,60,0
247.24669,247.4064,77,60,0
247.24669,247.4064,82,60,0
247.24669,247.4064,89,60,0
247.41335,247.73973,79,60,0
247.41335,247.73973,87,60,0
247.41335,247.73973,91,60,0
247.91335,248.07307,77,60,0
247.91335,248.07307,82,60,0
247.91335,248.07307,89,60,0
248.08002,248.4064,75,60,0
248.08002,248.4064,79,60,0
248.08002,248.4064,87,60,0
248.58002,248.73973,82,60,0
248.74667,249.07307,75,60,0
248.74667,249.07307,79,60,0
248.74667,249.07307,87,60,0
249.24667,249.4064,77,60,0
249.24667,249.4064,82,60,0
249.24667,249.4064,89,60,0
249.41335,249.73973,79,60,0
249.41335,249.73973,82,60,0
249.41335,249.73973,91,60,0
249.91335,250.07307,87,60,0
250.08002,250.96196,84,60,0
250.08002,250.96196,92,60,0
250.08002,250.96196,96,60,0
250.9689,251.18417,82,60,0
250.9689,251.18417,91,60,0
250.9689,251.18417,94,60,0
251.19112,251.4064,80,60,0
251.19112,251.4064,89,60,0
251.19112,251.4064,92,60,0
251.41335,251.63556,82,60,0
251.41335,251.63556,91,60,0
251.41335,251.63556,94,60,0
251.63556,251.85085,79,60,0
251.63556,251.85085,87,60,0
251.63556,251.85085,91,60,0
251.9689,252.07306,82,60,0
251.9689,252.07306,91,60,0
251.9689,252.07306,94,60,0
252.08002,252.96196,84,60,0
252.08002,252.96196,92,60,0
252.08002,252.96196,96,60,0
252.9689,253.18417,82,60,0
252.9689,253.18417,91,60,0
252.9689,253.18417,94,60,0
253.19112,253.4064,80,60,0
253.19112,253.4064,89,60,0
253.19112,253.4064,92,60,0
253.41335,253.63556,82,60,0
253.41335,253.63556,91,60,0
253.41335,253.63556,94,60,0
253.63556,253.85085,79,60,0
253.63556,253.85085,87,60,0
253.63556,253.85085,91,60,0
253.9689,254.07306,82,60,0
253.9689,254.07306,91,60,0
253.9689,254.07306,94,60,0
254.08,254.9689,84,60,0
254.08,254.9689,88,60,0
254.08,254.9689,91,60,0
254.08,254.9689,96,60,0
255.08,255.4064,79,60,0
255.08,255.4064,91,60,0
255.41335,255.73973,76,60,0
255.41335,255.73973,88,60,0
255.91335,256.07306,79,60,0
255.91335,256.07306,91,60,0
256.08002,256.63556,80,60,0
256.08002,256.63556,84,60,0
256.08002,256.63556,88,60,0
256.08002,256.63556,92,60,0
256.74667,257.63556,81,60,0
256.74667,257.63556,84,60,0
256.74667,257.63556,89,60,0
256.74667,257.63556,93,60,0
257.74667,258.07306,72,60,0
257.74667,258.07306,74,60,0
257.74667,258.07306,84,60,0
257.74667,258.07306,86,60,0
258.08002,258.96194,72,60,0
258.08002,258.96194,74,60,0
258.08002,258.96194,84,60,0
258.08002,258.96194,86,60,0
258.9689,259.18417,74,81,0
258.9689,259.18417,84,81,0
258.9689,259.18417,86,81,0
259.1911,259.4064,76,86,0
259.1911,259.4064,84,86,0
259.1911,259.4064,88,86,0
259.41333,259.6286,77,92,0
259.41333,259.6286,84,92,0
259.41333,259.6286,89,92,0
259.63556,259.85083,75,92,0
259.63556,259.85083,84,92,0
259.63556,259.85083,87,92,0
259.9689,260.07306,72,60,0
259.9689,260.07306,74,60,0
259.9689,260.07306,84,60,0
259.9689,260.07306,86,60,0
260.08002,260.96194,72,60,0
260.08002,260.96194,74,60,0
260.08002,260.96194,84,60,0
260.08002,260.96194,86,60,0
260.9689,261.18417,74,81,0
260.9689,261.18417,84,81,0
260.9689,261.18417,86,81,0
261.1911,261.4064,76,86,0
261.1911,261.4064,84,86,0
261.1911,261.4064,88,86,0
261.41333,261.6286,77,92,0
261.41333,261.6286,84,92,0
261.41333,261.6286,89,92,0
261.63556,261.85083,75,75,0
261.63556,261.85083,84,75,0
261.63556,261.85083,87,75,0
261.9689,262.07306,72,60,0
261.9689,262.07306,74,60,0
261.9689,262.07306,84,60,0
261.9689,262.07306,86,60,0
262.08,262.4064,72,60,0
262.08,262.4064,74,60,0
262.08,262.4064,84,60,0
262.08,262.4064,86,60,0
262.58,262.73972,81,67,0
262.58,262.73972,83,67,0
262.58,262.73972,93,67,0
262.74667,263.23972,79,69,0
262.74667,263.23972,84,69,0
262.74667,263.23972,91,69,0
263.41333,263.73972,72,80,0
263.41333,263.73972,76,80,0
263.41333,263.73972,84,80,0
263.91333,264.07306,74,89,0
263.91333,264.07306,77,89,0
263.91333,264.07306,86,89,0
264.08,264.57306,76,92,0
264.08,264.57306,79,92,0
264.08,264.57306,88,92,0
264.74667,265.07306,76,92,0
264.74667,265.07306,79,92,0
264.74667,265.07306,88,92,0
265.24667,265.40637,77,80,0
265.24667,265.40637,89,80,0
265.41333,265.73972,74,76,0
265.41333,265.73972,79,76,0
265.41333,265.73972,86,76,0
265.91333,266.07306,76,64,0
265.91333,266.07306,88,64,0
266.08,266.40637,72,60,0
266.08,266.40637,84,60,0
266.58,266.6286,72,75,0
266.63556,266.68417,60,75,0
266.74667,267.23972,60,75,0
266.6911,267.23972,72,75,0
267.41333,267.90637,60,92,0
267.41333,267.90637,72,92,0
268.08,268.40637,60,60,0
268.08,268.40637,72,60,0
268.58,268.6286,72,75,0
268.63556,268.68417,60,75,0
268.74667,269.23972,60,75,0
268.6911,269.23972,72,75,0
269.41333,269.90637,60,92,0
269.41333,269.90637,72,92,0
270.08,270.40637,60,60,0
270.08,270.40637,72,60,0
270.58,270.73972,60,60,0
270.58,270.73972,72,60,0
270.74664,271.23972,60,60,0
270.74664,271.23972,72,60,0
271.41333,271.90637,60,60,0
271.41333,271.90637,72,60,0
272.08,272.40637,60,60,0
272.08,272.40637,72,60,0
272.74664,273.07306,55,60,0
272.74664,273.07306,67,60,0
273.41333,273.73972,55,60,0
278.3848,279.27368,72,92,0
278.3848,279.27368,75,92,0
278.3848,279.27368,80,92,0
278.3848,279.27368,84,92,0
279.55145,279.71118,70,92,0
279.55145,279.71118,82,92,0
279.71814,280.04453,72,92,0
279.71814,280.04453,84,92,0
280.21814,280.37787,70,92,0
280.21814,280.37787,82,92,0
280.3848,280.71118,68,92,0
280.3848,280.71118,80,92,0
280.8848,281.04453,63,92,0
280.8848,281.04453,75,92,0
281.05145,281.37787,68,92,0
281.05145,281.37787,80,92,0
281.55145,281.71118,70,92,0
281.55145,281.71118,82,92,0
281.71814,282.04453,72,92,0
281.71814,282.04453,84,92,0
282.21814,282.37787,68,92,0
282.21814,282.37787,80,92,0
282.3848,283.27368,77,92,0
282.3848,283.27368,80,92,0
282.3848,283.27368,89,92,0
283.55145,283.71118,75,92,0
283.55145,283.71118,87,92,0
283.71814,284.04453,77,92,0
283.71814,284.04453,89,92,0
284.21814,284.37784,75,92,0
284.21814,284.37784,87,92,0
284.3848,284.71118,73,92,0
284.3848,284.71118,85,92,0
284.8848,285.04453,68,92,0
284.8848,285.04453,80,92,0
285.05145,285.37784,73,92,0
285.05145,285.37784,85,92,0
285.55145,285.71118,75,92,0
285.55145,285.71118,87,92,0
285.71814,286.04453,77,92,0
285.71814,286.04453,89,92,0
286.21814,286.37784,73,92,0
286.21814,286.37784,85,92,0
286.3848,287.27368,80,92,0
286.3848,287.27368,89,92,0
286.3848,287.27368,92,92,0
287.55145,287.71118,79,92,0
287.55145,287.71118,91,92,0
287.71814,288.04453,77,92,0
287.71814,288.04453,89,92,0
288.21814,288.37784,79,92,0
288.21814,288.37784,91,92,0
288.3848,288.71118,80,92,0
288.3848,288.71118,92,92,0
288.8848,289.04453,79,92,0
288.8848,289.04453,91,92,0
289.05145,289.37784,77,92,0
289.05145,289.37784,89,92,0
289.55145,289.71118,79,92,0
289.55145,289.71118,91,92,0
289.7181,290.04453,80,92,0
289.7181,290.04453,92,92,0
290.2181,290.37784,77,92,0
290.2181,290.37784,89,92,0
290.3848,290.71118,72,92,0
290.3848,290.71118,76,92,0
290.3848,290.71118,84,92,0
303.05145,303.7181,55,92,0
303.05145,303.7181,67,92,0
303.7181,304.38477,56,92,0
303.7181,304.38477,68,92,0
304.38477,305.27365,62,92,0
304.38477,305.27365,74,92,0
305.38477,305.7181,59,92,0
305.38477,305.7181,71,92,0
305.7181,306.05145,60,92,0
305.7181,306.05145,72,92,0
306.05145,306.38477,67,92,0
306.05145,306.38477,79,92,0
306.38477,306.7181,66,92,0
306.38477,306.7181,78,92,0
306.7181,307.05145,72,92,0
306.7181,307.05145,84,92,0
307.05145,307.38477,53,92,0
307.05145,307.38477,71,92,0
307.05145,307.38477,83,92,0
307.38477,307.71115,77,92,0
307.38477,307.71115,89,92,0
307.7181,308.71115,75,92,0
307.7181,308.71115,87,92,0
308.7181,309.0445,74,92,0
308.7181,309.0445,86,92,0
309.05145,309.37784,72,92,0
309.05145,309.37784,84,92,0
309.38477,309.71115,74,92,0
309.38477,309.71115,86,92,0
309.7181,310.0445,75,92,0
309.7181,310.0445,87,92,0
310.05142,310.37784,77,92,0
310.05142,310.37784,89,92,0
310.38477,310.71115,79,92,0
310.38477,310.71115,83,92,0
310.38477,310.71115,91,92,0
310.88477,310.96115,67,92,0
310.88477,310.96115,79,92,0
310.9681,311.0445,67,92,0
310.9681,311.0445,79,92,0
311.05142,311.37784,67,92,0
311.05142,311.37784,79,92,0
312.88477,312.96115,65,92,0
312.88477,312.96115,67,92,0
312.88477,312.96115,71,92,0
312.88477,312.96115,79,92,0
312.9681,313.0445,65,92,0
312.9681,313.0445,67,92,0
312.9681,313.0445,71,92,0
312.9681,313.0445,79,92,0
313.05142,313.3778,65,92,0
313.05142,313.3778,67,92,0
313.05142,313.3778,71,92,0
313.05142,313.3778,79,92,0
314.38477,314.71115,64,92,0
314.38477,314.71115,72,92,0
314.38477,314.71115,76,92,0
314.88477,314.96115,79,92,0
314.9681,315.0445,79,92,0
315.05142,315.3778,76,92,0
315.05142,315.3778,84,92,0
315.05142,315.3778,88,92,0
315.55142,315.6278,67,92,0
315.63477,315.71115,67,92,0
315.7181,316.0445,64,92,0
315.7181,316.0445,72,92,0
315.7181,316.0445,76,92,0
316.2181,316.2945,55,92,0
316.30142,316.3778,55,92,0
316.38477,316.71115,52,92,0
316.38477,316.71115,60,92,0
316.88477,316.96115,79,92,0
316.9681,317.0445,79,92,0
317.05142,317.3778,76,92,0
317.05142,317.3778,84,92,0
317.05142,317.3778,88,92,0
317.55142,317.6278,67,92,0
317.63477,317.71115,67,92,0
317.7181,318.0445,64,92,0
317.7181,318.0445,72,92,0
317.7181,318.0445,76,92,0
318.2181,318.2945,60,92,0
318.30142,318.3778,60,92,0
318.38477,318.71115,57,92,0
318.38477,318.71115,65,92,0
318.38477,318.71115,69,92,0
318.88477,318.96115,84,92,0
318.9681,319.0445,84,92,0
319.05142,319.5445,81,92,0
319.05142,319.5445,89,92,0
319.05142,319.5445,93,92,0
319.55142,319.6278,72,92,0
319.63477,319.71115,72,92,0
319.7181,320.0445,67,92,0
319.7181,320.0445,76,92,0
319.7181,320.0445,79,92,0
320.21808,320.2945,60,92,0
320.30142,320.3778,60,92,0
320.38477,320.71115,57,92,0
320.38477,320.71115,65,92,0
320.38477,320.71115,69,92,0
320.88477,320.96115,84,92,0
320.96808,321.0445,84,92,0
321.05142,321.3778,81,92,0
321.05142,321.3778,89,92,0
321.05142,321.3778,93,92,0
321.55142,321.6278,72,92,0
321.63477,321.71115,72,92,0
321.71808,322.0445,67,92,0
321.71808,322.0445,76,92,0
321.71808,322.0445,79,92,0
322.21808,322.2945,64,92,0
322.30142,322.3778,64,92,0
322.38477,322.71115,57,92,0
322.38477,322.71115,61,92,0
322.38477,322.71115,69,92,0
322.88477,322.96115,88,92,0
322.96808,323.0445,88,92,0
323.05142,323.3778,81,92,0
323.05142,323.3778,85,92,0
323.05142,323.3778,93,92,0
323.55142,323.6278,76,92,0
323.63477,323.71115,76,92,0
323.71808,324.04446,69,92,0
323.71808,324.04446,73,92,0
323.71808,324.04446,81,92,0
324.21808,324.29446,69,92,0
324.30142,324.3778,69,92,0
324.38477,324.71115,60,92,0
324.38477,324.71115,62,92,0
324.38477,324.71115,66,92,0
324.38477,324.71115,74,92,0
324.88477,324.96115,86,92,0
324.96808,325.04446,86,92,0
325.05142,325.3778,77,92,0
325.05142,325.3778,79,92,0
325.05142,325.3778,83,92,0
325.05142,325.3778,91,92,0
325.55142,325.6278,74,92,0
325.63477,325.71115,74,92,0
325.71808,326.04446,65,92,0
325.71808,326.04446,67,92,0
325.71808,326.04446,71,92,0
325.71808,326.04446,79,92,0
326.21808,326.29446,67,92,0
326.30142,326.3778,67,92,0
326.38477,326.71115,60,92,0
326.38477,326.71115,72,92,0
326.88477,326.96115,79,92,0
326.96808,327.04446,79,92,0
327.05142,327.3778,72,92,0
327.05142,327.3778,76,92,0
327.05142,327.3778,84,92,0
327.55142,327.6278,72,92,0
327.63477,327.71115,72,92,0
327.71808,328.04446,66,92,0
327.71808,328.04446,78,92,0
328.21808,328.29446,60,92,0
328.30142,328.3778,60,92,0
328.38477,328.71115,55,92,0
328.38477,328.71115,67,92,0
328.88477,328.96115,86,92,0
328.96808,329.04446,86,92,0
329.05142,329.2667,79,92,0
329.05142,329.2667,91,92,0
329.27365,329.41946,67,92,0
329.27365,329.41946,79,92,0
329.49585,329.6417,69,92,0
329.49585,329.6417,81,92,0
329.71808,329.86392,71,92,0
329.71808,329.86392,83,92,0
329.9403,330.08615,72,92,0
329.9403,330.08615,84,92,0
330.16254,330.30835,74,92,0
330.16254,330.30835,86,92,0
330.38474,331.27365,76,92,0
330.38474,331.27365,79,92,0
330.38474,331.27365,84,92,0
330.38474,331.27365,88,92,0
331.55142,331.71115,74,92,0
331.55142,331.71115,79,92,0
331.55142,331.71115,86,92,0
331.71808,332.04446,76,92,0
331.71808,332.04446,84,92,0
331.71808,332.04446,88,92,0
332.21808,332.3778,74,92,0
332.21808,332.3778,79,92,0
332.21808,332.3778,86,92,0
332.38474,332.71115,72,92,0
332.38474,332.71115,76,92,0
332.38474,332.71115,84,92,0
332.88474,333.04446,79,92,0
333.05142,333.3778,72,92,0
333.05142,333.3778,76,92,0
333.05142,333.3778,84,92,0
333.55142,333.71112,74,92,0
333.55142,333.71112,79,92,0
333.55142,333.71112,86,92,0
333.71808,334.27362,76,92,0
333.71808,334.27362,84,92,0
333.71808,334.27362,88,92,0
334.38474,335.3778,79,92,0
334.38474,335.3778,82,92,0
334.38474,335.3778,87,92,0
334.38474,335.3778,91,92,0
335.55142,335.71112,77,92,0
335.55142,335.71112,82,92,0
335.55142,335.71112,89,92,0
335.71808,336.04446,79,92,0
335.71808,336.04446,87,92,0
335.71808,336.04446,91,92,0
336.21808,336.3778,77,92,0
336.21808,336.3778,82,92,0
336.21808,336.3778,89,92,0
336.38474,336.71112,75,92,0
336.38474,336.71112,79,92,0
336.38474,336.71112,87,92,0
336.88474,337.04446,82,92,0
337.05142,337.3778,75,92,0
337.05142,337.3778,79,92,0
337.05142,337.3778,87,92,0
337.55142,337.71112,77,92,0
337.55142,337.71112,82,92,0
337.55142,337.71112,89,92,0
337.71808,338.04446,79,92,0
337.71808,338.04446,87,92,0
337.71808,338.04446,91,92,0
338.21808,338.3778,75,92,0
338.21808,338.3778,87,92,0
338.38474,338.9403,87,92,0
338.38474,338.9403,99,92,0
339.05142,339.3778,87,92,0
339.05142,339.3778,99,92,0
339.55142,339.71112,86,92,0
339.55142,339.71112,98,92,0
339.71808,340.04446,84,92,0
339.71808,340.04446,96,92,0
340.21808,340.3778,86,92,0
340.21808,340.3778,98,92,0
340.38474,340.71112,87,92,0
340.38474,340.71112,99,92,0
340.88474,341.04446,86,92,0
340.88474,341.04446,98,92,0
341.0514,341.54446,84,92,0
341.0514,341.54446,96,92,0
341.71808,341.8778,87,92,0
341.71808,341.8778,99,92,0
342.21808,342.3778,84,92,0
342.21808,342.3778,96,92,0
342.38474,342.71112,79,92,0
342.38474,342.71112,91,92,0
343.0514,343.71808,55,92,0
343.0514,343.71808,67,92,0
343.71808,344.38474,56,92,0
343.71808,344.38474,68,92,0
344.38474,345.27362,62,92,0
344.38474,345.27362,74,92,0
345.38474,345.71808,59,92,0
345.38474,345.71808,71,92,0
345.71808,346.0514,60,92,0
345.71808,346.0514,72,92,0
346.0514,346.38474,67,92,0
346.0514,346.38474,79,92,0
346.38474,346.71808,66,92,0
346.38474,346.71808,78,92,0
346.71808,347.0514,72,92,0
346.71808,347.0514,84,92,0
347.0514,347.38474,71,92,0
347.0514,347.38474,83,92,0
347.38474,347.71808,77,92,0
347.38474,347.71808,89,92,0
347.71808,348.0514,76,92,0
347.71808,348.0514,88,92,0
348.0514,348.37778,70,92,0
348.0514,348.37778,82,92,0
348.38474,348.71808,69,92,0
348.38474,348.71808,81,92,0
348.71808,349.0514,75,92,0
348.71808,349.0514,87,92,0
349.0514,349.38474,74,92,0
349.0514,349.38474,86,92,0
349.38474,349.71808,68,92,0
349.38474,349.71808,80,92,0
349.71808,350.0514,67,92,0
349.71808,350.0514,79,92,0
350.0514,350.37778,71,92,0
350.0514,350.37778,83,92,0
350.38474,350.71112,72,92,0
350.38474,350.71112,75,92,0
350.38474,350.71112,84,92,0
350.71805,351.04446,74,92,0
350.71805,351.04446,77,92,0
350.71805,351.04446,86,92,0
351.0514,351.60696,75,92,0
351.0514,351.60696,79,92,0
351.0514,351.60696,87,92,0
351.71805,352.27362,71,92,0
351.71805,352.27362,77,92,0
351.71805,352.27362,83,92,0
355.0514,355.71805,55,92,0
355.0514,355.71805,67,92,0
355.71805,356.38474,56,92,0
355.71805,356.38474,68,92,0
356.38474,357.27362,62,92,0
356.38474,357.27362,74,92,0
357.38474,357.71805,59,92,0
357.38474,357.71805,71,92,0
357.71805,358.0514,60,92,0
357.71805,358.0514,72,92,0
358.0514,358.37778,67,92,0
358.0514,358.37778,79,92,0
358.38474,358.71805,66,92,0
358.38474,358.71805,78,92,0
358.71805,359.0514,72,92,0
358.71805,359.0514,84,92,0
359.0514,359.38474,71,92,0
359.0514,359.38474,83,92,0
359.38474,359.71805,77,92,0
359.38474,359.71805,89,92,0
359.71805,360.0514,76,92,0
359.71805,360.0514,88,92,0
360.0514,360.37778,70,92,0
360.0514,360.37778,82,92,0
360.38474,360.71805,69,92,0
360.38474,360.71805,81,92,0
360.71805,361.0514,75,92,0
360.71805,361.0514,87,92,0
361.0514,361.3847,74,92,0
361.0514,361.3847,86,92,0
361.3847,361.71805,68,92,0
361.3847,361.71805,80,92,0
361.71805,362.0514,67,92,0
361.71805,362.0514,79,92,0
362.0514,362.37778,71,92,0
362.0514,362.37778,83,92,0
362.3847,362.501,72,92,0
362.3847,362.501,84,92,0
362.73355,362.84982,74,92,0
362.73355,362.84982,77,92,0
362.73355,362.84982,86,92,0
363.0824,363.2699,75,92,0
363.0824,363.2699,79,92,0
363.0824,363.2699,87,92,0
363.8324,364.0467,71,92,0
363.8324,364.0467,77,92,0
363.8324,364.0467,83,92,0
364.68954,365.31454,72,92,0
364.68954,365.31454,75,92,0
364.68954,365.31454,78,92,0
364.68954,365.31454,84,92,0
396.6965,397.52982,62,60,0
396.6965,397.52982,67,60,0
396.6965,397.52982,71,60,0
397.6965,398.6965,62,60,0
397.6965,398.6965,68,60,0
397.6965,398.6965,71,60,0
398.6965,400.02982,60,60,0
398.6965,400.02982,69,60,0
398.6965,400.02982,72,60,0
400.1965,400.68607,64,60,0
400.1965,400.68607,70,60,0
400.1965,400.68607,72,60,0
400.6965,401.1965,72,60,0
400.6965,401.68607,63,60,0
400.6965,401.68607,69,60,0
401.1965,401.68607,73,61,0
401.6965,403.02982,62,62,0
401.6965,403.02982,70,62,0
401.6965,403.02982,74,62,0
403.1965,403.68607,65,65,0
403.1965,403.68607,70,65,0
403.1965,403.68607,74,65,0
403.6965,404.1965,67,66,0
403.6965,404.1965,70,66,0
403.6965,404.1965,75,66,0
404.1965,404.6965,67,67,0
404.1965,404.6965,70,67,0
404.1965,404.6965,76,67,0
404.6965,405.1965,69,68,0
404.6965,405.1965,77,68,0
405.1965,405.6965,67,69,0
404.6965,405.6965,72,68,0
405.1965,405.6965,76,69,0
405.6965,406.1965,65,70,0
405.6965,406.1965,74,70,0
406.1965,406.68607,63,71,0
405.6965,406.68607,69,70,0
406.1965,406.68607,72,71,0
406.6965,407.18607,72,72,0
407.1965,407.68607,69,73,0
406.6965,408.52982,62,72,0
406.6965,408.52982,67,72,0
407.6965,408.52982,71,74,0
408.6965,409.18607,59,76,0
409.1965,409.68607,62,77,0
409.6965,410.1965,60,78,0
408.6965,410.1965,67,76,0
410.1965,410.6965,58,79,0
410.1965,410.6965,68,79,0
410.6965,411.1965,57,80,0
411.1965,411.6965,61,81,0
410.6965,411.6965,69,80,0
411.6965,412.1965,62,82,0
412.1965,412.68607,60,83,0
412.1965,412.68607,70,83,0
412.6965,413.1965,59,84,0
413.1965,413.6965,63,86,0
412.6965,413.6965,71,84,0
413.6965,414.1965,64,88,0
414.1965,414.68607,62,90,0
414.1965,414.68607,71,90,0
414.6965,417.4465,60,92,0
414.6965,417.4465,72,92,0
417.6965,420.4465,60,92,0
417.6965,420.4465,72,92,0
420.6965,422.18607,75,92,0
420.6965,422.18607,87,92,0
422.1965,422.68607,72,92,0
422.1965,422.68607,84,92,0
422.6965,423.18607,69,92,0
422.6965,423.18607,81,92,0
423.1965,423.68607,66,92,0
423.1965,423.68607,78,92,0
423.6965,424.18607,63,92,0
423.6965,424.18607,75,92,0
424.1965,424.68607,60,92,0
424.1965,424.68607,72,92,0
424.6965,425.52982,57,92,0
424.6965,425.52982,69,92,0
426.6965,428.18607,78,92,0
426.6965,428.18607,90,92,0
428.1965,428.68607,75,92,0
428.1965,428.68607,87,92,0
428.6965,429.18607,69,92,0
428.6965,429.18607,81,92,0
429.1965,429.68607,66,92,0
429.1965,429.68607,78,92,0
429.6965,431.22104,78,92,0
429.6965,431.22104,90,92,0
431.2322,431.75677,75,92,0
431.2322,431.75677,87,92,0
431.7679,432.31192,69,92,0
431.7679,432.31192,81,92,0
432.3235,432.86746,66,92,0
432.3235,432.86746,78,92,0
432.87903,433.44394,63,92,0
432.87903,433.44394,75,92,0
433.45596,434.02087,57,92,0
433.45596,434.02087,69,92,0
434.03287,434.3662,70,92,0
434.3662,434.69955,75,92,0
434.69955,435.03287,79,92,0
435.03287,435.3662,70,92,0
435.03287,435.3662,82,92,0
435.3662,435.69955,80,92,0
435.69955,436.03287,77,92,0
436.03287,436.3662,70,92,0
436.03287,436.3662,82,92,0
436.3662,436.69955,79,92,0
436.69955,437.02246,75,92,0
437.03287,437.3662,70,92,0
437.3662,437.69955,74,92,0
437.69955,438.03287,77,92,0
438.03287,438.3662,70,92,0
438.03287,438.3662,82,92,0
438.3662,438.69955,80,92,0
438.69955,439.03287,77,92,0
439.03287,439.3662,70,92,0
439.03287,439.3662,82,92,0
439.3662,439.69955,79,92,0
439.69955,440.02246,75,92,0
440.03287,440.3662,82,92,0
440.3662,440.69955,75,92,0
440.69955,441.03287,68,92,0
441.03287,441.3662,80,92,0
441.3662,441.69955,75,92,0
441.69955,442.03287,67,92,0
442.03287,442.3662,79,92,0
442.3662,442.69955,72,92,0
442.69955,443.02246,65,92,0
443.03287,443.3662,77,92,0
443.3662,443.69955,72,92,0
443.69955,444.03287,65,92,0
444.03287,444.3662,77,92,0
444.3662,444.69955,74,92,0
444.69955,445.03287,65,92,0
445.03287,445.3662,77,92,0
445.3662,445.69955,74,92,0
445.69955,446.02246,65,92,0
446.03287,446.3662,77,92,0
446.3662,446.69955,71,92,0
446.69955,447.03287,65,92,0
447.03287,447.3662,75,92,0
447.3662,447.69955,72,92,0
447.69955,448.03287,63,92,0
448.03287,448.3662,75,92,0
448.3662,448.69955,67,92,0
448.69955,449.02246,63,92,0
449.03287,449.3662,78,92,0
449.3662,449.69955,72,92,0
449.69955,450.03287,66,92,0
450.03287,450.3662,77,92,0
450.3662,450.69955,73,92,0
450.69955,451.03287,65,92,0
451.03287,451.3662,77,92,0
451.3662,451.69955,65,92,0
451.69955,452.02246,69,92,0
452.03287,452.3662,70,92,0
452.3662,452.69955,74,92,0
452.69955,453.03287,68,92,0
452.69955,453.03287,78,92,0
453.03287,453.3662,79,92,0
453.3662,453.69955,70,92,0
453.69955,454.03287,67,92,0
453.69955,454.03287,75,92,0
454.03287,454.3662,72,92,0
454.3662,454.69955,63,92,0
454.69955,455.02246,60,92,0
454.69955,455.02246,69,92,0
455.03287,456.03287,63,92,0
455.03287,456.03287,72,92,0
456.03287,456.8662,62,75,0
456.03287,456.8662,70,75,0
457.69955,458.02246,58,60,0
458.03287,458.53287,56,60,0
458.53287,459.03287,58,60,0
458.03287,459.03287,65,60,0
459.03287,459.53287,53,60,0
459.53287,460.03287,56,60,0
459.03287,460.03287,62,60,0
460.03287,460.53287,50,60,0
460.53287,461.02246,56,60,0
460.03287,461.02246,58,60,0
461.03287,461.52246,56,60,0
461.53287,462.02246,58,75,0
461.03287,462.02246,65,60,0
462.03287,462.53287,56,92,0
462.03287,462.53287,67,92,0
462.53287,463.03287,58,92,0
462.53287,463.03287,65,92,0
463.03287,463.53287,53,75,0
463.03287,463.53287,62,75,0
463.53287,464.02246,56,75,0
463.53287,464.02246,58,75,0
464.03287,464.52246,51,60,0
464.53287,465.02246,55,60,0
464.03287,465.02246,58,60,0
465.03287,465.52246,55,60,0
465.53287,466.02246,58,60,0
465.03287,466.02246,63,60,0
466.03287,466.53287,58,60,0
466.53287,467.03287,63,60,0
466.03287,467.03287,70,60,0
467.03287,467.53287,57,60,0
467.53287,468.03287,63,60,0
468.03287,468.53287,57,60,0
468.53287,469.02246,63,60,0
467.03287,469.02246,69,60,0
469.03287,469.53287,70,60,0
469.03287,469.53287,82,60,0
469.53287,470.03287,75,60,0
470.03287,470.53287,69,60,0
470.53287,471.03287,75,60,0
471.03287,471.52246,69,60,0
470.03287,471.52246,81,60,0
471.53287,471.69955,63,92,0
471.53287,471.69955,67,92,0
471.53287,471.69955,72,92,0
472.03287,472.19955,62,92,0
472.03287,472.19955,67,92,0
472.03287,472.19955,70,92,0
472.53287,472.69955,67,75,0
472.53287,472.69955,69,75,0
473.03287,473.53287,60,60,0
473.53287,474.03287,66,60,0
473.03287,474.03287,69,60,0
474.03287,474.53287,67,60,0
474.53287,475.03287,62,64,0
474.03287,475.03287,70,60,0
475.03287,475.53287,63,68,0
475.53287,476.03287,69,72,0
475.03287,476.03287,72,68,0
476.03287,476.53287,70,76,0
476.53287,477.03287,65,80,0
476.03287,477.03287,74,76,0
477.03287,477.53287,67,84,0
477.53287,478.03287,73,88,0
477.03287,478.03287,76,84,0
478.03287,478.53287,74,92,0
478.53287,479.02246,69,92,0
479.03287,479.53287,74,60,0
479.53287,480.03287,69,60,0
478.03287,480.03287,77,92,0
480.03287,480.53287,70,60,0
480.53287,481.03287,67,60,0
480.03287,481.03287,75,60,0
481.03287,481.53287,64,60,0
481.53287,482.02246,67,60,0
481.03287,482.02246,73,60,0
482.03287,482.8662,66,60,0
482.03287,482.8662,74,60,0
483.03287,483.3662,74,63,0
483.3662,483.69955,75,64,0
483.69955,484.03287,74,65,0
484.03287,484.3662,73,66,0
484.3662,484.69955,74,67,0
484.69955,485.03287,73,68,0
485.03287,485.3662,72,69,0
485.3662,485.69955,74,70,0
485.69955,486.03287,72,71,0
486.03287,486.3662,71,72,0
486.3662,486.69955,72,73,0
486.69955,487.03287,71,74,0
487.03287,487.3662,70,75,0
487.3662,487.69955,72,76,0
487.69955,488.03287,70,77,0
488.03287,488.3662,69,78,0
488.3662,488.69955,70,79,0
488.69955,489.03287,69,80,0
489.03287,489.3662,69,81,0
489.3662,489.69955,62,82,0
489.69955,490.03287,69,84,0
490.03287,490.3662,67,86,0
490.3662,490.69955,69,88,0
490.69955,491.03287,67,90,0
491.03287,491.3662,64,92,0
491.3662,491.69955,66,92,0
491.69955,492.03287,64,92,0
492.03287,492.3662,66,75,0
492.3662,492.69955,67,75,0
492.69955,493.02246,66,75,0
493.03287,494.8662,50,75,0
493.03287,494.8662,62,75,0
495.03287,496.3662,50,60,0
495.03287,496.3662,62,60,0
496.53287,497.02246,50,60,0
496.53287,497.02246,62,60,0
497.03287,497.53287,50,60,0
497.03287,497.53287,62,60,0
497.53287,498.02246,51,60,0
497.53287,498.02246,63,60,0
498.03287,499.3662,51,60,0
498.03287,499.3662,63,60,0
499.53287,500.02246,52,60,0
499.53287,500.02246,64,60,0
500.03287,500.53287,55,60,0
500.03287,500.53287,67,60,0
500.53287,501.02246,52,60,0
500.53287,501.02246,64,60,0
501.03287,502.3662,53,60,0
501.03287,502.3662,65,60,0
502.53287,503.02246,56,60,0
502.53287,503.02246,68,60,0
503.03287,504.03287,60,60,0
503.03287,504.03287,72,60,0
504.03287,504.8662,59,65,0
504.03287,504.8662,71,65,0
505.03287,506.03287,60,70,0
505.03287,506.03287,72,70,0
506.03287,506.8662,59,75,0
506.03287,506.8662,71,75,0
507.03287,508.03287,63,80,0
507.03287,508.03287,75,80,0
508.03287,508.8662,62,86,0
508.03287,508.8662,74,86,0
509.03287,509.53287,70,92,0
509.03287,509.53287,75,92,0
509.03287,509.53287,82,92,0
509.53287,510.03287,79,75,0
510.03287,510.53287,75,60,0
510.53287,511.03287,70,60,0
511.03287,511.53287,67,60,0
511.53287,512.02246,70,60,0
512.0329,512.52246,63,60,0
512.5329,513.02246,70,60,0
512.0329,513.02246,75,60,0
513.0329,513.52246,62,60,0
513.5329,514.02246,70,60,0
513.0329,514.02246,74,60,0
514.0329,514.52246,63,60,0
514.5329,515.02246,70,60,0
514.0329,515.02246,75,60,0
515.0329,515.52246,64,60,0
515.0329,515.52246,76,60,0
515.5329,516.02246,65,60,0
515.0329,516.02246,70,60,0
515.5329,516.02246,77,60,0
516.0329,516.52246,61,60,0
516.0329,516.52246,70,60,0
516.0329,516.52246,73,60,0
516.5329,517.02246,62,60,0
516.5329,517.02246,74,60,0
517.0329,517.52246,63,60,0
517.0329,517.52246,75,60,0
517.5329,518.02246,67,60,0
517.0329,518.02246,70,60,0
517.5329,518.02246,79,60,0
518.0329,518.5329,70,60,0
518.0329,518.5329,82,60,0
518.5329,519.0329,68,60,0
518.5329,519.0329,80,60,0
519.0329,519.5329,66,60,0
519.0329,519.5329,78,60,0
519.5329,520.0329,67,60,0
519.5329,520.0329,79,60,0
520.0329,520.5329,64,60,0
520.0329,520.5329,76,60,0
520.5329,521.02246,65,60,0
520.5329,521.02246,77,60,0
521.0329,521.5329,62,60,0
521.0329,521.5329,74,60,0
521.5329,522.0329,63,60,0
521.5329,522.0329,75,60,0
522.0329,522.5329,61,60,0
522.0329,522.5329,73,60,0
522.5329,523.0329,62,60,0
522.5329,523.0329,74,60,0
523.0329,523.5329,65,60,0
523.0329,523.5329,77,60,0
523.5329,524.02246,68,60,0
523.5329,524.02246,80,60,0
524.0329,524.5329,72,60,0
524.0329,524.5329,84,60,0
524.5329,525.0329,70,60,0
524.5329,525.0329,82,60,0
525.0329,525.5329,67,60,0
525.0329,525.5329,79,60,0
525.5329,526.0329,68,60,0
525.5329,526.0329,80,60,0
526.0329,526.5329,66,60,0
526.0329,526.5329,78,60,0
526.5329,527.02246,67,60,0
526.5329,527.02246,79,60,0
527.0329,527.5329,77,60,0
527.0329,527.5329,89,60,0
527.5329,528.0329,75,61,0
527.5329,528.0329,87,61,0
528.0329,528.5329,72,62,0
528.0329,528.5329,84,62,0
528.5329,529.0329,73,63,0
528.5329,529.0329,85,63,0
529.0329,529.5329,71,64,0
529.0329,529.5329,83,64,0
529.5329,530.02246,72,65,0
529.5329,530.02246,84,65,0
530.0329,530.5329,69,66,0
530.0329,530.5329,81,66,0
530.5329,531.0329,70,67,0
530.5329,531.0329,82,67,0
531.0329,531.52246,69,68,0
531.0329,531.52246,81,68,0
531.5329,532.0329,63,69,0
531.5329,532.0329,75,69,0
532.0329,532.5329,68,70,0
532.0329,532.5329,80,70,0
532.5329,533.0329,70,71,0
532.5329,533.0329,82,71,0
533.0329,533.52246,67,72,0
533.0329,533.52246,79,72,0
533.5329,534.0329,58,73,0
533.5329,534.0329,70,73,0
534.0329,534.3662,66,74,0
534.0329,534.3662,78,74,0
534.3662,534.6995,68,75,0
534.3662,534.6995,80,75,0
534.6995,535.02246,66,76,0
534.6995,535.02246,78,76,0
535.0329,535.2673,64,77,0
535.0329,535.2673,76,77,0
535.3662,535.6006,68,78,0
535.3662,535.6006,80,78,0
535.6995,535.9183,71,79,0
535.6995,535.9183,83,79,0
536.0329,537.5329,63,80,0
536.0329,537.5329,66,80,0
536.0329,537.5329,70,80,0
536.0329,537.5329,75,80,0
537.5329,537.6579,77,86,0
537.6579,537.7829,75,86,0
537.7829,537.9079,74,86,0
537.9079,538.02246,75,86,0
538.0329,538.3662,78,86,0
538.3662,538.6995,74,88,0
538.6995,539.02246,77,90,0
539.0329,540.7829,63,92,0
539.0329,540.7829,66,92,0
539.0329,540.7829,72,92,0
539.0329,540.7829,75,92,0
541.2829,541.5329,75,75,0
541.5329,541.6579,77,75,0
541.6579,541.7829,75,75,0
541.7829,541.9079,74,75,0
541.9079,542.02246,75,75,0
542.0329,542.5329,72,92,0
542.0329,542.5329,75,92,0
542.0329,542.5329,79,92,0
542.0329,542.5329,84,92,0
542.5329,543.0329,70,92,0
542.5329,543.0329,79,92,0
542.5329,543.0329,82,92,0
543.0329,543.5329,68,92,0
543.0329,543.5329,77,92,0
543.0329,543.5329,80,92,0
543.5329,544.0329,67,92,0
543.5329,544.0329,75,92,0
543.5329,544.0329,79,92,0
544.0329,544.5329,65,92,0
544.0329,544.5329,74,92,0
544.0329,544.5329,77,92,0
544.5329,545.02246,63,92,0
544.5329,545.02246,72,92,0
544.5329,545.02246,75,92,0
545.0329,545.52246,62,92,0
545.0329,545.52246,70,92,0
545.0329,545.52246,74,92,0
545.5329,546.0329,59,92,0
545.5329,546.0329,71,92,0
546.0329,546.5329,61,92,0
546.0329,546.5329,73,92,0
546.5329,547.02246,60,92,0
546.0329,547.02246,68,92,0
546.5329,547.02246,72,92,0
547.0329,547.2673,65,92,0
547.0329,547.2673,77,92,0
547.3662,547.6006,68,92,0
547.3662,547.6006,80,92,0
547.6995,547.9183,72,92,0
547.6995,547.9183,84,92,0
548.0329,548.5329,72,92,0
548.0329,548.5329,75,92,0
548.0329,548.5329,79,92,0
548.0329,548.5329,84,92,0
548.5329,549.52246,63,92,0
548.5329,549.52246,75,92,0
549.5329,549.6579,77,92,0
549.6579,549.7829,75,92,0
549.7829,549.9079,74,92,0
549.9079,550.0329,75,92,0
550.0329,550.5329,67,92,0
550.0329,550.5329,79,92,0
550.5329,551.02246,65,92,0
550.0329,551.02246,74,92,0
550.5329,551.02246,77,92,0
551.0329,551.8662,67,92,0
551.0329,551.8662,75,92,0
552.0329,552.3558,75,92,0
552.0329,552.3558,79,92,0
552.3662,552.68915,70,87,0
552.3662,552.68915,77,87,0
552.6995,553.02246,67,82,0
552.6995,553.02246,75,82,0
553.0329,553.3558,75,77,0
553.0329,553.3558,79,77,0
553.3662,553.68915,70,72,0
553.3662,553.68915,77,72,0
553.6995,554.02246,67,66,0
553.6995,554.02246,75,66,0
554.0329,554.3558,75,60,0
554.0329,554.3558,79,60,0
554.3662,554.68915,67,60,0
554.3662,554.68915,75,60,0
554.6995,555.02246,70,60,0
554.6995,555.02246,77,60,0
555.0329,555.3558,77,60,0
555.0329,555.3558,80,60,0
555.3662,555.68915,75,62,0
555.3662,555.68915,79,62,0
555.6995,556.02246,70,64,0
555.6995,556.02246,77,64,0
556.0329,556.3558,77,66,0
556.0329,556.3558,80,66,0
556.3662,556.68915,75,68,0
556.3662,556.68915,79,68,0
556.6995,557.02246,70,70,0
556.6995,557.02246,77,70,0
557.0329,557.3558,77,72,0
557.0329,557.3558,80,72,0
557.3662,557.68915,70,74,0
557.3662,557.68915,77,74,0
557.6995,558.02246,75,76,0
557.6995,558.02246,79,76,0
558.0329,558.3558,79,78,0
558.0329,558.3558,82,78,0
558.3662,558.68915,77,80,0
558.3662,558.68915,80,80,0
558.6995,559.02246,75,82,0
558.6995,559.02246,79,82,0
559.0329,559.3558,79,84,0
559.0329,559.3558,82,84,0
559.3662,559.68915,77,86,0
559.3662,559.68915,80,86,0
559.6995,560.02246,75,89,0
559.6995,560.02246,79,89,0
560.0329,560.3558,84,92,0
560.0329,560.3558,87,92,0
560.3662,560.68915,75,92,0
560.6995,561.02246,82,92,0
560.6995,561.02246,86,92,0
561.0329,561.3558,80,92,0
561.0329,561.3558,84,92,0
561.3662,561.68915,75,87,0
561.6995,562.02246,80,82,0
561.6995,562.02246,84,82,0
562.0329,562.3558,79,77,0
562.0329,562.3558,82,77,0
562.3662,562.68915,70,72,0
562.6995,563.02246,77,66,0
562.6995,563.02246,80,66,0
563.0329,563.3558,75,60,0
563.0329,563.3558,79,60,0
563.3662,563.68915,70,60,0
563.3662,563.68915,75,60,0
563.6995,564.02246,67,60,0
563.6995,564.02246,70,60,0
564.0329,564.3558,63,60,0
564.0329,564.3558,67,60,0
564.3662,564.68915,58,61,0
564.3662,564.68915,65,61,0
564.6995,565.02246,55,62,0
564.6995,565.02246,63,62,0
565.0329,565.3558,63,63,0
565.0329,565.3558,67,63,0
565.3662,565.68915,58,64,0
565.3662,565.68915,65,64,0
565.6995,566.02246,55,65,0
565.6995,566.02246,63,65,0
566.0329,566.3558,63,66,0
566.0329,566.3558,67,66,0
566.3662,566.68915,55,67,0
566.3662,566.68915,63,67,0
566.6995,567.02246,58,68,0
566.6995,567.02246,65,68,0
567.0329,567.3558,65,69,0
567.0329,567.3558,68,69,0
567.3662,567.68915,63,70,0
567.3662,567.68915,67,70,0
567.6995,568.02246,58,71,0
567.6995,568.02246,65,71,0
568.0329,568.3558,65,72,0
568.0329,568.3558,68,72,0
568.3662,568.68915,63,73,0
568.3662,568.68915,67,73,0
568.6995,569.02246,58,74,0
568.6995,569.02246,65,74,0
569.0329,569.3558,65,75,0
569.0329,569.3558,68,75,0
569.3662,569.68915,58,76,0
569.3662,569.68915,65,76,0
569.6995,570.02246,63,78,0
569.6995,570.02246,67,78,0
570.0329,570.3558,67,80,0
570.0329,570.3558,70,80,0
570.3662,570.68915,65,82,0
570.3662,570.68915,68,82,0
570.6995,571.02246,63,84,0
570.6995,571.02246,67,84,0
571.0329,571.3558,67,86,0
571.0329,571.3558,70,86,0
571.3662,571.68915,65,88,0
571.3662,571.68915,68,88,0
571.6995,572.02246,63,90,0
571.6995,572.02246,67,90,0
572.0329,572.3558,72,92,0
572.0329,572.3558,75,92,0
572.3662,572.68915,63,92,0
572.6995,573.02246,70,92,0
572.6995,573.02246,74,92,0
573.0329,573.3558,68,92,0
573.0329,573.3558,72,92,0
573.3662,573.68915,63,91,0
573.6995,574.02246,68,90,0
573.6995,574.02246,72,90,0
574.0329,574.3558,67,89,0
574.0329,574.3558,70,89,0
574.3662,574.68915,58,88,0
574.6995,575.02246,65,87,0
574.6995,575.02246,68,87,0
575.0329,575.3558,63,86,0
575.0329,575.3558,67,86,0
575.3662,575.68915,58,85,0
575.6995,576.02246,65,84,0
575.6995,576.02246,68,84,0
576.0329,576.3558,63,83,0
576.0329,576.3558,67,83,0
576.3662,576.68915,58,82,0
576.6995,577.02246,61,80,0
576.6995,577.02246,65,80,0
577.0329,577.3558,60,78,0
577.0329,577.3558,63,78,0
577.3662,577.68915,51,76,0
577.6995,578.02246,58,74,0
577.6995,578.02246,61,74,0
578.0329,578.3558,60,72,0
578.0329,578.3558,63,72,0
578.3662,578.68915,51,70,0
578.6995,579.02246,58,68,0
578.6995,579.02246,62,68,0
579.0329,579.3558,56,66,0
579.0329,579.3558,60,66,0
579.3662,579.68915,51,64,0
579.6995,580.02246,56,62,0
579.6995,580.02246,60,62,0
580.0329,580.3558,55,60,0
580.0329,580.3558,58,60,0
580.3662,580.68915,46,60,0
580.6995,581.02246,53,60,0
580.6995,581.02246,56,60,0
581.0329,581.3558,55,60,0
581.0329,581.3558,58,60,0
581.3662,581.68915,46,60,0
581.6995,582.02246,53,64,0
581.6995,582.02246,56,64,0
582.0329,582.3558,55,68,0
582.0329,582.3558,58,68,0
582.3662,582.68915,46,72,0
582.6995,583.02246,53,76,0
582.6995,583.02246,56,76,0
583.0329,583.52246,46,80,0
583.0329,583.52246,55,80,0
583.5329,584.02246,44,86,0
583.5329,584.02246,53,86,0
584.0329,584.5329,55,92,0
584.5329,585.0329,58,92,0
584.0329,585.0329,63,92,0
585.0329,585.5329,53,92,0
585.5329,586.0329,58,92,0
585.0329,586.0329,62,92,0
586.0329,586.5329,55,92,0
586.5329,587.0329,58,92,0
586.0329,587.0329,63,92,0
587.0329,587.5329,56,92,0
587.5329,588.0329,58,92,0
587.0329,588.0329,65,92,0
588.0329,588.5329,53,92,0
588.5329,589.0329,58,92,0
588.0329,589.0329,62,92,0
589.0329,589.5329,55,92,0
589.5329,590.02246,58,92,0
589.0329,590.02246,63,92,0
590.0329,590.5329,56,92,0
590.5329,591.0329,63,92,0
590.0329,591.0329,68,92,0
591.0329,591.5329,58,92,0
591.5329,592.0329,63,92,0
591.0329,592.0329,67,92,0
592.0329,592.5329,60,92,0
592.5329,593.02246,63,92,0
592.0329,593.02246,65,92,0
593.0329,593.5329,62,92,0
593.5329,594.0329,65,92,0
593.0329,594.0329,72,92,0
594.0329,594.5329,62,92,0
594.5329,595.0329,67,92,0
594.0329,595.0329,70,92,0
595.0329,595.5329,62,92,0
595.5329,596.02246,65,92,0
595.0329,596.02246,68,92,0
596.0329,596.5329,67,92,0
596.5329,597.0329,70,92,0
596.0329,597.0329,77,92,0
597.0329,597.5329,67,92,0
597.5329,598.0329,70,92,0
597.0329,598.0329,75,92,0
598.0329,598.5329,63,92,0
598.5329,599.02246,67,92,0
598.0329,599.02246,73,92,0
599.0329,599.5329,63,75,0
599.5329,600.0329,68,75,0
599.0329,600.0329,72,75,0
600.0329,600.5329,60,75,0
600.5329,601.0329,63,75,0
600.0329,601.0329,68,75,0
601.0329,601.5329,56,75,0
601.5329,602.02246,60,75,0
601.0329,602.02246,65,75,0
602.0329,602.5329,56,75,0
602.5329,603.0329,53,75,0
602.0329,603.0329,63,75,0
603.0329,603.5329,56,75,0
603.5329,604.0329,53,75,0
603.0329,604.0329,62,75,0
604.0329,604.5329,55,75,0
604.5329,605.02246,51,75,0
604.0329,605.02246,63,75,0
605.0329,605.52246,56,75,0
605.5329,606.02246,53,75,0
606.0329,606.52246,56,75,0
606.5329,607.02246,53,75,0
605.0329,607.02246,59,75,0
607.0329,607.52246,55,75,0
607.5329,608.02246,51,75,0
607.0329,608.02246,58,75,0
608.0329,608.5329,56,75,0
608.5329,609.0329,53,75,0
608.0329,609.0329,63,75,0
609.0329,609.5329,56,75,0
609.5329,610.0329,53,75,0
609.0329,610.0329,62,75,0
610.0329,610.5329,55,75,0
610.5329,611.02246,51,75,0
610.0329,611.02246,63,75,0
611.0329,611.5329,56,75,0
611.5329,612.0329,53,75,0
612.0329,612.5329,56,75,0
612.5329,613.0329,53,75,0
611.0329,613.0329,59,75,0
613.0329,613.5329,55,75,0
613.5329,614.02246,51,75,0
613.0329,614.02246,58,75,0
614.0329,614.5329,56,75,0
614.5329,615.0329,53,75,0
614.0329,615.0329,63,75,0
615.0329,615.5329,56,75,0
615.5329,616.0329,53,75,0
615.0329,616.0329,62,75,0
616.0329,616.5329,55,75,0
616.5329,617.02246,51,75,0
616.0329,617.02246,63,75,0
617.0329,617.5329,56,75,0
617.5329,618.0329,53,75,0
618.0329,618.5329,56,75,0
618.5329,619.0329,53,75,0
617.0329,619.0329,59,75,0
619.0329,619.5329,55,75,0
619.5329,620.02246,51,75,0
619.0329,620.02246,58,75,0
620.0329,620.5686,56,75,0
620.5686,621.1043,53,74,0
621.1043,621.64,56,74,0
621.64,622.1757,53,73,0
620.0329,622.1757,59,75,0
622.1757,622.7114,55,72,0
622.7114,623.236,51,71,0
622.1757,623.236,58,72,0
623.2472,623.7829,47,70,0
623.7829,624.3186,53,69,0
624.3186,624.8543,47,68,0
624.8543,625.39,53,67,0
623.2472,625.39,56,70,0
625.39,625.9257,46,66,0
625.9257,626.4503,51,65,0
625.39,626.4503,55,66,0
626.4614,627.02637,47,64,0
627.0384,627.6033,53,63,0
627.6153,628.1802,47,62,0
628.1922,628.75714,53,61,0
626.4614,628.75714,56,64,0
628.76917,629.33405,46,60,0
629.34607,629.91095,51,59,0
628.76917,629.91095,55,60,0
629.923,630.548,46,58,0
629.923,630.548,55,58,0
630.548,631.173,51,57,0
631.173,631.798,46,56,0
631.798,632.423,51,55,0
632.423,633.048,55,54,0
633.048,633.66,58,53,0
633.673,634.3548,55,52,0
633.673,634.3548,67,52,0
634.3548,635.0366,63,51,0
635.0366,635.71844,58,50,0
635.71844,636.40027,63,49,0
636.40027,637.0821,67,48,0
637.0821,637.7497,70,47,0
637.7639,641.8889,67,45,0
637.7639,641.8889,75,45,0
637.7639,641.8889,79,45,0
3.0,3.5,39,75,0
3.5,4.0,43,75,0
4.0,4.5,46,75,0
4.5,5.0,44,76,0
5.0,5.5,43,77,0
5.5,6.0,39,78,0
6.0,6.5,38,80,0
6.5,7.0,41,82,0
7.0,7.5,46,84,0
7.5,8.0,44,86,0
8.0,8.5,43,88,0
8.5,8.989583,39,90,0
9.0,9.5,36,92,0
9.5,10.0,39,92,0
10.0,10.5,34,92,0
10.5,11.0,39,92,0
11.0,11.5,32,92,0
11.5,12.0,41,92,0
12.0,12.5,33,75,0
12.5,13.0,41,75,0
13.0,13.489583,34,60,0
13.5,14.0,41,60,0
14.0,14.5,46,60,0
14.5,15.0,44,60,0
15.0,15.5,43,60,0
15.5,16.0,31,62,0
16.0,16.489584,36,64,0
16.5,17.0,43,66,0
17.0,17.5,48,68,0
17.5,18.0,46,71,0
18.0,18.5,44,74,0
18.5,19.0,32,77,0
19.0,19.489584,37,80,0
19.5,20.0,44,83,0
20.0,20.5,49,86,0
20.5,21.0,47,89,0
21.0,21.5,46,92,0
21.5,22.0,34,92,0
22.0,22.5,39,92,0
22.5,23.0,43,92,0
23.0,23.5,41,92,0
23.5,23.989584,29,92,0
24.0,24.5,34,75,0
24.5,25.0,38,75,0
25.0,25.5,41,60,0
25.5,26.0,46,60,0
26.0,26.5,45,60,0
26.5,26.989584,46,60,0
27.0,27.5,34,60,0
27.5,28.0,38,61,0
28.0,28.5,41,62,0
28.5,29.0,46,63,0
29.0,29.5,45,64,0
29.5,29.989584,46,66,0
30.0,30.5,34,68,0
30.5,31.0,38,70,0
31.0,31.5,41,72,0
31.5,32.0,46,74,0
32.0,32.5,44,76,0
32.5,32.989582,46,78,0
33.0,33.5,43,80,0
33.5,34.0,46,82,0
34.0,34.5,43,84,0
34.5,35.0,39,86,0
35.0,35.5,34,88,0
35.5,36.0,31,90,0
36.0,36.5,36,92,0
36.5,37.0,39,92,0
37.0,37.5,43,75,0
37.5,37.989582,48,75,0
38.0,38.5,43,60,0
38.5,39.0,46,60,0
39.0,39.5,48,60,0
39.5,40.0,51,60,0
40.0,40.489582,55,60,0
40.5,40.854168,33,92,0
41.0,41.354168,34,92,0
41.5,41.666668,36,92,0
42.0,42.5,38,92,0
42.5,43.0,50,92,0
43.0,43.5,55,92,0
43.5,44.0,43,92,0
44.0,44.5,41,92,0
44.5,45.0,53,92,0
45.0,45.5,46,92,0
45.5,46.0,34,92,0
46.0,46.5,33,92,0
46.5,47.0,45,92,0
47.0,47.5,38,92,0
47.5,48.0,33,92,0
48.0,48.5,29,92,0
48.5,49.0,26,87,0
49.0,49.5,31,82,0
49.5,50.0,43,77,0
50.0,50.5,45,72,0
50.5,50.989582,33,66,0
51.0,51.489582,38,60,0
51.5,51.989582,38,60,0
52.0,53.75,38,60,0
54.0,54.833332,38,60,0
55.0,56.75,38,60,0
57.0,57.833332,38,60,0
58.0,59.75,38,65,0
60.0,61.75,38,75,0
63.0,65.75,31,75,0
63.0,65.75,43,75,0
66.0,66.833336,31,75,0
66.0,66.833336,43,75,0
67.0,68.75,31,75,0
67.0,68.75,43,75,0
69.0,69.833336,31,78,0
69.0,69.833336,43,78,0
70.0,71.75,31,79,0
70.0,71.75,43,79,0
72.0,73.75,31,82,0
72.0,73.75,43,82,0
74.0,75.833336,31,85,0
74.0,75.833336,43,85,0
76.0,77.75,31,88,0
76.0,77.75,43,88,0
78.0,79.333336,43,92,0
78.0,79.333336,46,92,0
78.0,79.333336,51,92,0
78.0,79.333336,55,92,0
79.5,80.0,58,92,0
80.0,80.5,55,92,0
80.5,81.0,51,92,0
81.0,81.5,46,92,0
81.5,82.0,43,91,0
82.0,82.5,46,90,0
82.5,83.0,44,89,0
83.0,83.5,43,88,0
83.5,84.0,39,86,0
84.0,84.5,38,84,0
84.5,85.0,41,82,0
85.0,85.5,46,80,0
85.5,86.0,44,78,0
86.0,86.5,43,76,0
86.5,86.989586,39,74,0
87.0,87.5,36,72,0
87.5,88.0,39,70,0
88.0,88.5,34,68,0
88.5,89.0,39,66,0
89.0,89.5,32,64,0
89.5,90.0,41,62,0
90.0,90.5,33,60,0
90.5,91.0,41,60,0
91.0,91.5,34,60,0
91.5,92.0,41,60,0
92.0,92.5,46,60,0
92.5,92.989586,44,60,0
93.0,93.5,43,60,0
93.5,94.0,46,61,0
94.0,94.5,41,62,0
94.5,95.0,46,63,0
95.0,95.5,39,64,0
95.5,96.0,37,65,0
96.0,96.5,36,66,0
96.5,97.0,39,67,0
97.0,97.5,34,68,0
97.5,98.0,39,69,0
98.0,98.5,32,70,0
98.5,98.989586,39,71,0
99.0,99.5,31,72,0
99.5,100.0,30,73,0
100.0,100.5,29,74,0
100.5,100.989586,39,75,0
101.0,101.5,29,76,0
101.5,102.0,28,77,0
102.0,102.5,27,78,0
102.5,103.0,39,79,0
103.0,103.5,34,80,0
103.5,104.0,30,81,0
104.0,104.5,32,82,0
104.5,104.989586,44,83,0
105.0,105.5,34,84,0
105.5,106.0,39,85,0
106.0,106.5,42,86,0
106.5,107.0,46,87,0
107.0,107.5,34,88,0
107.5,107.989586,46,90,0
108.0,110.75,33,92,0
111.0,111.5,34,92,0
111.5,112.0,39,92,0
112.0,112.5,43,92,0
112.5,113.0,46,92,0
113.0,113.5,48,92,0
113.5,113.989586,36,92,0
114.0,114.5,32,92,0
114.5,115.0,36,92,0
115.0,115.5,41,92,0
115.5,116.0,44,92,0
116.0,116.5,32,92,0
116.5,116.989586,44,92,0
117.0,117.5,34,92,0
117.5,118.0,39,92,0
118.0,118.5,43,92,0
118.5,119.0,46,92,0
119.0,119.5,34,92,0
119.5,119.989586,46,92,0
120.0,121.0,39,92,0
120.0,121.0,51,92,0
121.0,122.0,38,92,0
121.0,122.0,50,92,0
122.0,123.0,39,92,0
122.0,123.0,51,92,0
123.0,124.0,41,92,0
123.0,124.0,53,92,0
124.0,125.0,38,92,0
124.0,125.0,50,92,0
125.0,125.833336,39,92,0
125.0,125.833336,51,92,0
126.0,127.0,44,92,0
126.0,127.0,56,92,0
127.0,128.0,43,92,0
127.0,128.0,55,92,0
128.0,128.48958,41,92,0
128.0,128.48958,53,92,0
128.5,129.0,36,92,0
128.5,129.0,48,92,0
129.0,130.0,39,92,0
129.0,130.0,51,92,0
130.0,130.83333,38,92,0
130.0,130.83333,50,92,0
131.0,131.5,39,92,0
131.0,131.5,51,92,0
131.5,131.98958,33,75,0
131.5,131.98958,45,75,0
132.0,132.125,34,60,0
132.125,132.25,46,60,0
132.25,132.375,53,60,0
132.375,132.48958,58,60,0
144.0,145.0,41,92,0
144.0,145.0,53,92,0
145.0,146.0,40,92,0
145.0,146.0,52,92,0
146.0,147.0,41,92,0
146.0,147.0,53,92,0
147.0,148.0,43,92,0
147.0,148.0,55,92,0
148.0,149.0,40,92,0
148.0,149.0,52,92,0
149.0,149.83333,41,92,0
149.0,149.83333,53,92,0
150.0,151.0,46,92,0
150.0,151.0,58,92,0
151.0,152.0,44,92,0
151.0,152.0,56,92,0
152.0,152.48958,43,92,0
152.0,152.48958,55,92,0
152.5,152.98958,38,92,0
152.5,152.98958,50,92,0
153.0,154.0,41,92,0
153.0,154.0,53,92,0
154.0,155.0,40,92,0
154.0,155.0,52,92,0
155.0,155.48958,41,92,0
155.0,155.48958,53,92,0
155.5,155.98958,35,75,0
155.5,155.98958,47,75,0
156.0,156.125,36,60,0
156.125,156.25,48,60,0
156.25,156.375,55,60,0
156.375,156.48958,60,60,0
168.0,169.0,55,60,0
168.0,169.0,67,60,0
169.0,169.83333,51,60,0
169.0,169.83333,63,60,0
172.0,173.0,34,78,0
172.0,173.0,46,78,0
173.0,173.83333,31,85,0
173.0,173.83333,43,85,0
174.0,174.35417,36,92,0
174.0,174.35417,48,92,0
174.5,174.66667,34,92,0
174.5,174.66667,46,92,0
175.0,175.83333,33,92,0
175.0,175.83333,45,92,0
176.0,176.83333,32,92,0
176.0,176.83333,44,92,0
177.0,177.48958,31,92,0
177.0,177.48958,43,92,0
177.75,177.98958,31,92,0
177.75,177.98958,43,92,0
178.0,178.48958,31,92,0
178.0,178.48958,43,92,0
178.75,178.98958,31,85,0
178.75,178.98958,43,85,0
179.0,179.48958,31,83,0
179.0,179.48958,43,83,0
179.75,179.98958,31,75,0
179.75,179.98958,43,75,0
180.0,180.48958,31,72,0
180.0,180.48958,43,72,0
180.75,180.98958,31,63,0
180.75,180.98958,42,63,0
181.0,181.48958,31,60,0
181.0,181.48958,42,60,0
181.75,181.98958,31,60,0
181.75,181.98958,42,60,0
182.0,182.48958,31,60,0
182.0,182.48958,42,60,0
182.75,182.98958,31,60,0
182.75,182.98958,42,60,0
183.0,183.48958,31,60,0
183.0,183.48958,42,60,0
183.75,183.98958,31,60,0
183.75,183.98958,41,60,0
183.75,183.98958,43,60,0
184.0,184.48958,31,60,0
184.0,184.48958,41,60,0
184.0,184.48958,43,60,0
184.75,184.98958,31,60,0
184.75,184.98958,41,60,0
184.75,184.98958,43,60,0
185.0,185.48958,31,60,0
185.0,185.48958,41,60,0
185.0,185.48958,43,60,0
185.75,185.98958,31,60,0
185.75,185.98958,41,60,0
185.75,185.98958,43,60,0
186.0,186.48958,31,60,0
186.0,186.48958,41,60,0
186.0,186.48958,43,60,0
186.75,186.98958,31,60,0
186.75,186.98958,40,60,0
186.75,186.98958,43,60,0
187.0,187.48958,31,60,0
187.0,187.48958,40,60,0
187.0,187.48958,43,60,0
187.75,187.98958,31,60,0
187.75,187.98958,40,60,0
187.75,187.98958,43,60,0
188.0,188.48958,31,60,0
188.0,188.48958,40,60,0
188.0,188.48958,43,60,0
188.75,188.98958,31,60,0
188.75,188.98958,40,60,0
188.75,188.98958,43,60,0
189.0,189.48958,31,60,0
189.0,189.48958,40,60,0
189.0,189.48958,43,60,0
189.75,189.98958,31,60,0
189.75,189.98958,39,60,0
189.75,189.98958,43,60,0
190.0,190.48958,31,60,0
190.0,190.48958,39,60,0
190.0,190.48958,43,60,0
190.75,190.98958,31,60,0
190.75,190.98958,39,60,0
190.75,190.98958,43,60,0
191.0,191.48958,31,60,0
191.0,191.48958,39,60,0
191.0,191.48958,43,60,0
191.75,191.98958,31,72,0
191.75,191.98958,39,72,0
191.75,191.98958,43,72,0
192.0,192.48958,31,76,0
192.0,192.48958,39,76,0
192.0,192.48958,43,76,0
192.75,192.98958,31,88,0
192.75,192.98958,38,88,0
192.75,192.98958,43,88,0
193.0,193.48958,43,92,0
193.0,193.48958,55,92,0
193.75,193.98958,41,92,0
193.75,193.98958,53,92,0
194.0,194.48958,39,92,0
194.0,194.48958,51,92,0
194.75,194.98958,38,92,0
194.75,194.98958,50,92,0
195.0,195.48958,36,92,0
195.0,195.48958,48,92,0
195.75,195.98958,35,92,0
195.75,195.98958,47,92,0
196.0,196.48958,36,92,0
196.0,196.48958,48,92,0
196.75,196.98958,34,92,0
196.75,196.98958,46,92,0
197.0,197.48958,33,92,0
197.0,197.48958,45,92,0
197.75,197.98958,32,92,0
197.75,197.98958,44,92,0
198.0,198.48958,31,92,0
198.0,198.48958,43,92,0
199.0,200.33333,38,60,0
199.0,200.33333,50,60,0
200.33333,200.66667,39,60,0
200.33333,200.66667,51,60,0
200.66667,200.98958,35,60,0
200.66667,200.98958,47,60,0
201.0,201.83333,38,60,0
201.0,201.83333,50,60,0
202.0,202.83333,36,60,0
202.0,202.83333,48,60,0
203.0,204.83333,33,60,0
203.0,204.83333,45,60,0
205.0,206.0,39,60,0
205.0,206.0,51,60,0
206.0,206.83333,36,68,0
206.0,206.83333,48,68,0
207.0,207.48958,31,76,0
207.0,207.48958,43,76,0
207.75,207.98958,31,82,0
207.75,207.98958,43,82,0
208.0,208.48958,43,84,0
208.0,208.48958,55,84,0
208.75,208.98958,41,92,0
208.75,208.98958,53,92,0
209.0,209.48958,39,92,0
209.0,209.48958,51,92,0
209.75,209.98958,38,92,0
209.75,209.98958,50,92,0
210.0,210.48958,36,92,0
210.0,210.48958,48,92,0
210.75,210.98958,35,75,0
210.75,210.98958,47,75,0
211.0,211.48958,36,75,0
211.0,211.48958,48,75,0
211.75,211.98958,34,75,0
211.75,211.98958,46,75,0
212.0,212.48958,33,75,0
212.0,212.48958,45,75,0
212.75,212.98958,32,60,0
212.75,212.98958,44,60,0
213.0,213.48958,31,60,0
213.0,213.48958,43,60,0
213.75,213.98958,65,60,0
213.75,213.98958,67,60,0
214.0,214.48958,65,60,0
214.0,214.48958,67,60,0
214.75,214.98958,65,60,0
214.75,214.98958,67,60,0
215.0,215.48958,65,60,0
215.0,215.48958,67,60,0
215.75,215.98958,65,60,0
215.75,215.98958,67,60,0
216.0,216.48958,64,60,0
216.0,216.48958,67,60,0
216.75,216.98958,64,60,0
216.75,216.98958,67,60,0
217.0,217.48958,64,60,0
217.0,217.48958,67,60,0
217.75,217.98958,64,60,0
217.75,217.98958,67,60,0
218.0,218.48958,63,60,0
218.0,218.48958,67,60,0
218.75,218.98958,63,60,0
218.75,218.98958,67,60,0
219.0,219.48958,62,60,0
219.0,219.48958,66,60,0
219.75,219.98958,62,60,0
219.75,219.98958,66,60,0
220.0,220.48958,62,60,0
220.0,220.48958,66,60,0
220.75,220.98958,62,60,0
220.75,220.98958,66,60,0
221.0,221.52455,62,60,0
221.0,221.52455,66,60,0
221.80357,222.06027,62,60,0
221.80357,222.06027,66,60,0
222.07143,222.59598,55,60,0
222.07143,222.59598,62,60,0
222.07143,222.59598,65,60,0
222.875,223.1317,55,68,0
222.875,223.1317,62,68,0
222.875,223.1317,65,68,0
223.14285,223.70776,55,71,0
223.14285,223.70776,62,71,0
223.14285,223.70776,65,71,0
224.00824,224.28468,55,80,0
224.00824,224.28468,62,80,0
224.00824,224.28468,65,80,0
224.2967,224.90868,55,83,0
224.2967,224.90868,62,83,0
224.2967,224.90868,65,83,0
225.2342,225.53368,55,92,0
225.2342,225.53368,62,92,0
225.2342,225.53368,65,92,0
225.5467,226.96892,60,60,0
225.5467,226.96892,64,60,0
227.2467,227.40642,55,60,0
227.2467,227.40642,62,60,0
227.41336,227.73976,60,60,0
227.41336,227.73976,64,60,0
227.91336,228.07309,55,60,0
227.91336,228.07309,62,60,0
228.08003,228.40642,52,60,0
228.08003,228.40642,60,60,0
228.58003,228.73976,55,60,0
228.7467,229.07309,52,60,0
228.7467,229.07309,60,60,0
229.2467,229.40642,55,60,0
229.2467,229.40642,62,60,0
229.41336,229.73976,60,60,0
229.41336,229.73976,64,60,0
229.91336,230.07309,60,60,0
230.08003,230.96198,65,60,0
230.08003,230.96198,69,60,0
230.96892,231.1842,64,60,0
230.96892,231.1842,67,60,0
231.19115,231.40642,62,60,0
231.19115,231.40642,65,60,0
231.41336,231.63559,64,60,0
231.41336,231.63559,67,60,0
231.63559,231.85086,60,60,0
231.63559,231.85086,64,60,0
231.96892,232.07309,64,60,0
231.96892,232.07309,67,60,0
232.08003,232.96198,65,60,0
232.08003,232.96198,69,60,0
232.96892,233.18419,64,60,0
232.96892,233.18419,67,60,0
233.19115,233.40642,62,60,0
233.19115,233.40642,65,60,0
233.41336,233.63559,64,60,0
233.41336,233.63559,67,60,0
233.63559,233.85086,60,60,0
233.63559,233.85086,64,60,0
233.96892,234.07309,64,60,0
233.96892,234.07309,67,60,0
234.08003,234.96892,57,60,0
234.08003,234.96892,61,60,0
234.08003,234.96892,64,60,0
234.08003,234.96892,69,60,0
235.08003,235.40642,64,60,0
235.41336,235.73975,61,60,0
235.91336,236.07307,64,60,0
236.08003,236.74669,57,60,0
236.08003,236.74669,60,60,0
236.08003,236.74669,62,60,0
236.08003,236.74669,66,60,0
236.74669,237.90642,59,60,0
236.74669,237.90642,62,60,0
236.74669,237.90642,65,60,0
236.74669,237.90642,67,60,0
237.91336,238.07307,62,60,0
238.08002,238.41336,65,60,0
238.41336,238.73975,64,60,0
238.74669,238.8578,62,60,0
239.08002,239.19113,60,60,0
239.41336,239.73975,54,60,0
239.41336,239.73975,59,60,0
239.91336,240.07307,60,60,0
240.08002,240.63557,55,60,0
240.08002,240.63557,59,60,0
240.08002,240.63557,62,60,0
240.9689,241.12515,55,60,0
241.19113,241.34738,57,60,0
241.41336,241.56961,59,60,0
241.63557,241.79182,60,60,0
241.8578,242.00363,55,60,0
241.8578,242.00363,62,60,0
242.08002,242.9689,60,60,0
242.08002,242.9689,64,60,0
243.24669,243.4064,55,60,0
243.24669,243.4064,62,60,0
243.41335,243.73975,60,60,0
243.41335,243.73975,64,60,0
243.91335,244.07307,55,60,0
243.91335,244.07307,62,60,0
244.08002,244.4064,52,60,0
244.08002,244.4064,60,60,0
244.58002,244.73975,55,60,0
244.74669,245.07307,52,60,0
244.74669,245.07307,60,60,0
245.24669,245.4064,55,60,0
245.24669,245.4064,62,60,0
245.41335,245.9689,60,60,0
245.41335,245.9689,64,60,0
246.08002,246.9689,58,60,0
246.08002,246.9689,63,60,0
246.08002,246.9689,67,60,0
247.24669,247.4064,58,60,0
247.24669,247.4064,65,60,0
247.41335,247.73973,63,60,0
247.41335,247.73973,67,60,0
247.91335,248.07307,58,60,0
247.91335,248.07307,65,60,0
248.08002,248.4064,55,60,0
248.08002,248.4064,63,60,0
248.58002,248.73973,58,60,0
248.74667,249.07307,55,60,0
248.74667,249.07307,63,60,0
249.24667,249.4064,58,60,0
249.24667,249.4064,65,60,0
249.41335,249.73973,63,60,0
249.41335,249.73973,67,60,0
249.91335,250.07307,63,60,0
250.08002,250.96196,68,60,0
250.08002,250.96196,72,60,0
250.9689,251.18417,67,60,0
250.9689,251.18417,70,60,0
251.19112,251.4064,65,60,0
251.19112,251.4064,68,60,0
251.41335,251.63556,67,60,0
251.41335,251.63556,70,60,0
251.63556,251.85085,63,60,0
251.63556,251.85085,67,60,0
251.9689,252.07306,67,60,0
251.9689,252.07306,70,60,0
252.08002,252.96196,68,60,0
252.08002,252.96196,72,60,0
252.9689,253.18417,67,60,0
252.9689,253.18417,70,60,0
253.19112,253.4064,65,60,0
253.19112,253.4064,68,60,0
253.41335,253.63556,67,60,0
253.41335,253.63556,70,60,0
253.63556,253.85085,63,60,0
253.63556,253.85085,67,60,0
253.9689,254.07306,67,60,0
253.9689,254.07306,70,60,0
254.08,254.9689,60,60,0
254.08,254.9689,64,60,0
254.08,254.9689,67,60,0
254.08,254.9689,72,60,0
255.08,255.4064,67,60,0
255.41335,255.73973,64,60,0
255.91335,256.07306,67,60,0
256.08002,256.63556,58,60,0
256.08002,256.63556,60,60,0
256.08002,256.63556,64,60,0
256.08002,256.63556,68,60,0
256.74667,257.63556,57,60,0
256.74667,257.63556,60,60,0
256.74667,257.63556,65,60,0
256.74667,257.63556,69,60,0
257.74667,258.07306,53,60,0
257.74667,258.07306,60,60,0
257.74667,258.07306,62,60,0
258.08002,258.57306,54,60,0
258.58002,258.73972,55,72,0
258.74667,258.96194,56,76,0
258.08002,258.96194,60,60,0
258.08002,258.96194,62,60,0
258.9689,259.18417,56,81,0
258.9689,259.18417,60,81,0
258.9689,259.18417,62,81,0
259.1911,259.4064,60,86,0
259.1911,259.4064,62,86,0
259.41333,259.6286,55,92,0
259.41333,259.6286,60,92,0
259.41333,259.6286,64,92,0
259.41333,259.6286,65,92,0
259.63556,259.85083,60,75,0
259.63556,259.85083,63,75,0
259.9689,260.07306,60,60,0
259.9689,260.07306,62,60,0
260.08002,260.57306,54,60,0
260.58,260.73972,55,72,0
260.74667,260.96194,56,76,0
260.08002,260.96194,60,60,0
260.08002,260.96194,62,60,0
260.9689,261.18417,60,81,0
260.9689,261.18417,62,81,0
261.1911,261.4064,60,86,0
261.1911,261.4064,64,86,0
261.41333,261.6286,55,92,0
261.41333,261.6286,60,92,0
261.41333,261.6286,65,92,0
261.63556,261.85083,60,75,0
261.63556,261.85083,63,75,0
261.9689,262.07306,60,60,0
261.9689,262.07306,62,60,0
262.08,262.57306,54,60,0
262.08,262.57306,60,60,0
262.08,262.57306,62,60,0
262.58,262.73972,53,68,0
262.58,262.73972,59,68,0
262.58,262.73972,62,68,0
262.74667,263.23972,52,70,0
262.74667,263.23972,60,70,0
262.74667,263.23972,64,70,0
263.41333,263.73972,57,80,0
263.41333,263.73972,60,80,0
263.41333,263.73972,64,80,0
263.91333,264.07306,57,89,0
263.91333,264.07306,62,89,0
263.91333,264.07306,65,89,0
264.08,264.57306,55,92,0
264.08,264.57306,64,92,0
264.08,264.57306,67,92,0
264.74667,265.07306,55,92,0
264.74667,265.07306,64,92,0
264.74667,265.07306,67,92,0
265.41333,265.73972,55,76,0
265.41333,265.73972,62,76,0
265.41333,265.73972,67,76,0
266.08,266.40637,54,60,0
266.08,266.40637,60,60,0
266.08,266.40637,62,60,0
266.58,266.6286,43,75,0
266.63556,266.68417,48,75,0
266.6911,266.73972,43,75,0
266.74667,267.23972,44,75,0
267.41333,267.90637,43,92,0
267.41333,267.90637,48,92,0
268.08,268.40637,42,60,0
268.08,268.40637,48,60,0
268.58,268.6286,43,75,0
268.63556,268.68417,48,75,0
268.6911,268.73972,43,75,0
268.74667,269.23972,44,75,0
269.41333,269.90637,43,92,0
269.41333,269.90637,48,92,0
270.08,270.40637,42,60,0
270.08,270.40637,48,60,0
270.58,270.73972,41,60,0
270.58,270.73972,48,60,0
270.74664,271.23972,40,60,0
270.74664,271.23972,48,60,0
271.41333,271.90637,45,60,0
271.41333,271.90637,48,60,0
272.08,272.40637,43,60,0
272.08,272.40637,48,60,0
272.74664,273.07306,43,60,0
273.41333,273.73972,31,60,0
273.41333,273.73972,43,60,0
274.08,274.40637,24,60,0
274.08,274.40637,36,60,0
274.08,274.40637,48,60,0
278.3848,278.71118,32,92,0
278.3848,278.71118,36,92,0
278.3848,278.71118,39,92,0
278.3848,278.71118,44,92,0
279.05148,279.94037,48,92,0
279.05148,279.94037,51,92,0
279.05148,279.94037,56,92,0
279.05148,279.94037,60,92,0
280.21814,280.37787,46,92,0
280.21814,280.37787,58,92,0
280.3848,280.71118,48,92,0
280.3848,280.71118,60,92,0
280.8848,281.04453,46,92,0
280.8848,281.04453,58,92,0
281.05145,281.37787,44,92,0
281.05145,281.37787,56,92,0
281.55145,281.71118,39,92,0
281.55145,281.71118,51,92,0
281.71814,282.04453,44,92,0
281.71814,282.04453,56,92,0
282.21814,282.37787,46,92,0
282.21814,282.37787,58,92,0
282.3848,282.71118,48,92,0
282.3848,282.71118,60,92,0
282.8848,283.04453,29,92,0
282.8848,283.04453,41,92,0
283.05145,283.94034,53,92,0
283.05145,283.94034,56,92,0
283.05145,283.94034,61,92,0
283.05145,283.94034,65,92,0
284.21814,284.37784,51,92,0
284.21814,284.37784,63,92,0
284.3848,284.71118,53,92,0
284.3848,284.71118,65,92,0
284.8848,285.04453,51,92,0
284.8848,285.04453,63,92,0
285.05145,285.37784,49,92,0
285.05145,285.37784,61,92,0
285.55145,285.71118,44,92,0
285.55145,285.71118,56,92,0
285.71814,286.04453,49,92,0
285.71814,286.04453,61,92,0
286.21814,286.37784,51,92,0
286.21814,286.37784,63,92,0
286.3848,286.71118,53,92,0
286.3848,286.71118,65,92,0
286.8848,287.04453,25,92,0
286.8848,287.04453,37,92,0
287.05145,287.94034,56,92,0
287.05145,287.94034,68,92,0
288.21814,288.37784,55,92,0
288.21814,288.37784,67,92,0
288.3848,288.71118,53,92,0
288.3848,288.71118,65,92,0
289.05145,289.60703,36,92,0
289.05145,289.60703,48,92,0
289.7181,290.27368,35,92,0
289.7181,290.27368,47,92,0
290.3848,290.71118,36,92,0
290.3848,290.71118,48,92,0
301.05145,301.7181,31,92,0
301.05145,301.7181,43,92,0
301.7181,302.38477,32,92,0
301.7181,302.38477,44,92,0
302.38477,303.27365,38,92,0
302.38477,303.27365,50,92,0
303.38477,303.7181,35,92,0
303.38477,303.7181,47,92,0
303.7181,304.05145,36,92,0
303.7181,304.05145,48,92,0
304.05145,304.38477,43,92,0
304.05145,304.38477,55,92,0
304.38477,304.7181,41,92,0
304.38477,304.7181,53,92,0
304.7181,305.05145,48,92,0
304.7181,305.05145,60,92,0
305.05145,305.38477,47,92,0
305.05145,305.38477,59,92,0
305.38477,305.7181,53,92,0
305.38477,305.7181,65,92,0
305.7181,306.27365,51,92,0
305.7181,306.27365,63,92,0
306.38477,306.7181,50,92,0
306.38477,306.7181,62,92,0
306.7181,307.05145,54,92,0
306.7181,307.05145,66,92,0
307.05145,307.38477,55,92,0
307.05145,307.38477,67,92,0
307.38477,307.71115,50,92,0
307.38477,307.71115,62,92,0
307.7181,307.93338,55,92,0
307.7181,307.93338,67,92,0
307.94034,308.1556,48,92,0
307.94034,308.1556,60,92,0
308.16254,308.37784,43,92,0
308.16254,308.37784,55,92,0
308.38477,308.71115,36,92,0
308.38477,308.71115,48,92,0
308.7181,309.0445,34,92,0
308.7181,309.0445,46,92,0
309.05145,309.607,32,92,0
309.05145,309.607,44,92,0
309.7181,310.27365,44,92,0
309.7181,310.27365,56,92,0
310.38477,310.71115,43,92,0
310.38477,310.71115,50,92,0
310.38477,310.71115,55,92,0
310.88477,310.96115,43,92,0
310.9681,311.0445,43,92,0
311.05142,311.37784,43,92,0
312.88477,312.96115,43,92,0
312.88477,312.96115,50,92,0
312.88477,312.96115,53,92,0
312.88477,312.96115,55,92,0
312.9681,313.0445,43,92,0
312.9681,313.0445,50,92,0
312.9681,313.0445,53,92,0
312.9681,313.0445,55,92,0
313.05142,313.3778,43,92,0
313.05142,313.3778,50,92,0
313.05142,313.3778,53,92,0
313.05142,313.3778,55,92,0
314.38477,314.71115,36,92,0
314.38477,314.71115,43,92,0
314.38477,314.71115,48,92,0
314.88477,314.96115,67,92,0
314.9681,315.0445,67,92,0
315.05142,315.3778,60,92,0
315.05142,315.3778,72,92,0
315.55142,315.6278,55,92,0
315.63477,315.71115,55,92,0
315.7181,316.0445,48,92,0
315.7181,316.0445,60,92,0
316.2181,316.2945,43,92,0
316.30142,316.3778,43,92,0
316.38477,316.71115,36,92,0
316.38477,316.71115,48,92,0
316.88477,316.96115,67,92,0
316.9681,317.0445,67,92,0
317.05142,317.3778,60,92,0
317.05142,317.3778,72,92,0
317.55142,317.6278,55,92,0
317.63477,317.71115,55,92,0
317.7181,318.0445,48,92,0
317.7181,318.0445,60,92,0
318.2181,318.2945,48,92,0
318.30142,318.3778,48,92,0
318.38477,318.71115,36,92,0
318.38477,318.71115,48,92,0
318.88477,318.96115,72,92,0
318.9681,319.0445,72,92,0
319.05142,319.3778,60,92,0
319.05142,319.3778,72,92,0
319.55142,319.6278,60,92,0
319.63477,319.71115,60,92,0
319.7181,320.0445,48,92,0
319.7181,320.0445,60,92,0
320.21808,320.2945,48,92,0
320.30142,320.3778,48,92,0
320.38477,320.71115,36,92,0
320.38477,320.71115,48,92,0
320.88477,320.96115,60,92,0
320.88477,320.96115,72,92,0
320.96808,321.0445,60,92,0
320.96808,321.0445,72,92,0
321.05142,321.3778,60,92,0
321.05142,321.3778,72,92,0
321.55142,321.6278,60,92,0
321.63477,321.71115,60,92,0
321.71808,322.0445,48,92,0
321.71808,322.0445,60,92,0
322.21808,322.2945,40,92,0
322.30142,322.3778,40,92,0
322.38477,322.71115,33,92,0
322.38477,322.71115,45,92,0
322.88477,322.96115,64,92,0
322.96808,323.0445,64,92,0
323.05142,323.3778,57,92,0
323.05142,323.3778,69,92,0
323.55142,323.6278,52,92,0
323.63477,323.71115,52,92,0
323.71808,324.04446,45,92,0
323.71808,324.04446,57,92,0
324.21808,324.29446,45,92,0
324.30142,324.3778,45,92,0
324.38477,324.71115,38,92,0
324.38477,324.71115,50,92,0
324.88477,324.96115,62,92,0
324.96808,325.04446,62,92,0
325.05142,325.3778,55,92,0
325.05142,325.3778,67,92,0
325.55142,325.6278,50,92,0
325.63477,325.71115,50,92,0
325.71808,326.04446,43,92,0
325.71808,326.04446,55,92,0
326.21808,326.29446,43,92,0
326.30142,326.3778,43,92,0
326.38477,326.71115,36,92,0
326.38477,326.71115,48,92,0
326.88477,326.96115,55,92,0
326.96808,327.04446,55,92,0
327.05142,327.3778,48,92,0
327.05142,327.3778,60,92,0
327.55142,327.6278,48,92,0
327.63477,327.71115,48,92,0
327.71808,328.04446,45,92,0
327.71808,328.04446,57,92,0
328.21808,328.29446,36,92,0
328.30142,328.3778,36,92,0
328.38477,328.71115,31,92,0
328.38477,328.71115,43,92,0
328.88477,328.96115,62,92,0
328.96808,329.04446,62,92,0
329.05142,329.2667,55,92,0
329.05142,329.2667,67,92,0
329.27365,329.41946,43,92,0
329.27365,329.41946,55,92,0
329.49585,329.6417,45,92,0
329.49585,329.6417,57,92,0
329.71808,329.86392,47,92,0
329.71808,329.86392,59,92,0
329.9403,330.08615,48,92,0
329.9403,330.08615,60,92,0
330.16254,330.30835,50,92,0
330.16254,330.30835,62,92,0
330.38474,330.71115,48,92,0
330.38474,330.71115,55,92,0
330.38474,330.71115,60,92,0
330.38474,330.71115,64,92,0
330.88474,330.96115,43,92,0
330.96808,331.04446,43,92,0
331.05142,331.3778,36,92,0
331.05142,331.3778,48,92,0
331.55142,331.71115,55,92,0
331.55142,331.71115,62,92,0
331.71808,332.04446,60,92,0
331.71808,332.04446,64,92,0
332.21808,332.3778,55,92,0
332.21808,332.3778,62,92,0
332.38474,332.71115,52,92,0
332.38474,332.71115,60,92,0
332.88474,333.04446,55,92,0
333.05142,333.3778,52,92,0
333.05142,333.3778,60,92,0
333.55142,333.71112,55,92,0
333.55142,333.71112,62,92,0
333.71808,334.27362,60,92,0
333.71808,334.27362,64,92,0
334.38474,334.71112,34,92,0
334.38474,334.71112,46,92,0
334.88474,334.96112,51,92,0
334.96808,335.04446,51,92,0
335.05142,335.3778,46,92,0
335.05142,335.3778,58,92,0
335.55142,335.71112,58,92,0
335.55142,335.71112,65,92,0
335.71808,336.04446,63,92,0
335.71808,336.04446,67,92,0
336.21808,336.3778,58,92,0
336.21808,336.3778,65,92,0
336.38474,336.71112,55,92,0
336.38474,336.71112,63,92,0
336.88474,337.04446,58,92,0
337.05142,337.3778,55,92,0
337.05142,337.3778,63,92,0
337.55142,337.71112,58,92,0
337.55142,337.71112,65,92,0
337.71808,338.04446,63,92,0
337.71808,338.04446,67,92,0
338.21808,338.3778,39,92,0
338.38474,338.71112,32,92,0
338.38474,338.71112,44,92,0
338.88474,338.96112,63,92,0
338.96808,339.04446,63,92,0
339.05142,339.3778,56,92,0
339.05142,339.3778,68,92,0
339.55142,339.6278,51,92,0
339.63474,339.71112,51,92,0
339.71808,340.04446,44,92,0
339.71808,340.04446,56,92,0
340.21808,340.29446,39,92,0
340.3014,340.3778,39,92,0
340.38474,340.71112,32,92,0
340.38474,340.71112,44,92,0
340.88474,340.96112,63,92,0
340.96808,341.04446,63,92,0
341.0514,341.3778,56,92,0
341.0514,341.3778,68,92,0
341.5514,341.6278,51,92,0
341.63474,341.71112,51,92,0
341.71808,342.04446,44,92,0
341.71808,342.04446,56,92,0
342.21808,342.3778,32,92,0
342.21808,342.3778,44,92,0
342.38474,342.71112,31,92,0
342.38474,342.71112,43,92,0
345.0514,345.71808,31,92,0
345.0514,345.71808,43,92,0
345.71808,346.38474,32,92,0
345.71808,346.38474,44,92,0
346.38474,347.27362,38,92,0
346.38474,347.27362,50,92,0
347.38474,347.71808,35,92,0
347.38474,347.71808,47,92,0
347.71808,348.0514,36,92,0
347.71808,348.0514,48,92,0
348.0514,348.38474,43,92,0
348.0514,348.38474,55,92,0
348.38474,348.71808,42,92,0
348.38474,348.71808,54,92,0
348.71808,349.0514,48,92,0
348.71808,349.0514,60,92,0
349.0514,349.38474,47,92,0
349.0514,349.38474,59,92,0
349.38474,349.71808,53,92,0
349.38474,349.71808,65,92,0
349.71808,350.0514,51,92,0
349.71808,350.0514,63,92,0
350.0514,350.37778,50,92,0
350.0514,350.37778,62,92,0
350.38474,350.71112,48,92,0
350.38474,350.71112,60,92,0
350.71805,351.04446,44,92,0
350.71805,351.04446,56,92,0
351.0514,351.60696,43,92,0
351.0514,351.60696,55,92,0
351.71805,352.27362,31,92,0
351.71805,352.27362,43,92,0
353.0514,353.71805,31,92,0
353.0514,353.71805,43,92,0
353.71805,354.38474,32,92,0
353.71805,354.38474,44,92,0
354.38474,355.27362,38,92,0
354.38474,355.27362,50,92,0
355.38474,355.71805,35,92,0
355.38474,355.71805,47,92,0
355.71805,356.0514,36,92,0
355.71805,356.0514,48,92,0
356.0514,356.37778,43,92,0
356.0514,356.37778,55,92,0
356.38474,356.71805,42,92,0
356.38474,356.71805,54,92,0
356.71805,357.0514,48,92,0
356.71805,357.0514,60,92,0
357.0514,357.38474,47,92,0
357.0514,357.38474,59,92,0
357.38474,357.71805,53,92,0
357.38474,357.71805,65,92,0
357.71805,358.0514,52,92,0
357.71805,358.0514,64,92,0
358.0514,358.37778,46,92,0
358.0514,358.37778,58,92,0
358.38474,358.71805,45,92,0
358.38474,358.71805,57,92,0
358.71805,359.0514,50,92,0
358.71805,359.0514,62,92,0
359.0514,359.38474,49,92,0
359.0514,359.38474,61,92,0
359.38474,359.71805,44,92,0
359.38474,359.71805,56,92,0
359.71805,360.0514,43,92,0
359.71805,360.0514,55,92,0
360.0514,360.37778,48,92,0
360.0514,360.37778,60,92,0
360.38474,360.71805,47,92,0
360.38474,360.71805,59,92,0
360.71805,361.0514,42,92,0
360.71805,361.0514,54,92,0
361.0514,361.3847,41,92,0
361.0514,361.3847,53,92,0
361.3847,361.71805,46,92,0
361.3847,361.71805,58,92,0
361.71805,362.0514,47,92,0
361.71805,362.0514,59,92,0
362.0514,362.37778,41,92,0
362.0514,362.37778,53,92,0
362.3847,362.501,39,92,0
362.3847,362.501,51,92,0
362.73355,362.84982,32,92,0
362.73355,362.84982,44,92,0
363.0824,363.2699,31,92,0
363.0824,363.2699,43,92,0
363.8324,364.0467,43,92,0
363.8324,364.0467,55,92,0
364.68954,366.75204,33,92,0
364.68954,366.75204,45,92,0
366.93954,369.18954,31,60,0
364.68954,369.18954,36,92,0
364.68954,369.18954,39,92,0
366.93954,369.18954,43,60,0
369.18954,371.55795,30,60,0
369.18954,371.55795,40,60,0
369.18954,371.55795,42,60,0
371.55795,373.729,31,60,0
371.55795,373.729,40,60,0
371.55795,373.729,43,60,0
373.92636,374.7835,32,60,0
373.92636,374.7835,44,60,0
374.7835,376.2835,31,60,0
374.7835,376.2835,43,60,0
376.4978,377.4069,30,60,0
376.4978,377.4069,42,60,0
377.4069,378.9978,31,60,0
377.4069,378.9978,43,60,0
379.22507,380.22507,32,60,0
379.22507,380.22507,44,60,0
380.22507,382.02863,31,60,0
380.22507,382.02863,43,60,0
382.2965,383.4965,30,60,0
382.2965,383.4965,42,60,0
383.4965,385.4465,31,60,0
383.4965,385.4465,43,60,0
385.6965,386.52982,31,60,0
385.6965,386.52982,43,60,0
386.6965,389.52982,31,60,0
386.6965,389.52982,43,60,0
389.6965,392.52982,31,60,0
389.6965,392.52982,43,60,0
392.6965,394.4465,31,60,0
392.6965,394.4465,43,60,0
394.6965,396.02982,31,60,0
394.6965,396.02982,43,60,0
396.1965,396.6965,31,60,0
396.1965,396.6965,43,60,0
396.6965,397.1965,43,60,0
396.6965,397.1965,55,60,0
397.1965,397.68607,41,60,0
397.1965,397.68607,53,60,0
397.6965,398.1965,40,60,0
397.6965,398.1965,52,60,0
398.1965,398.6965,28,60,0
398.1965,398.6965,40,60,0
398.6965,399.1965,33,60,0
398.6965,399.1965,45,60,0
399.1965,399.6965,40,60,0
399.1965,399.6965,52,60,0
399.6965,400.1965,45,60,0
399.6965,400.1965,57,60,0
400.1965,400.68607,43,60,0
400.1965,400.68607,55,60,0
400.6965,401.1965,41,60,0
400.6965,401.1965,53,60,0
401.1965,401.6965,29,61,0
401.1965,401.6965,41,61,0
401.6965,402.1965,34,62,0
401.6965,402.1965,46,62,0
402.1965,402.6965,41,63,0
402.1965,402.6965,53,63,0
402.6965,403.1965,46,64,0
402.6965,403.1965,58,64,0
403.1965,403.68607,44,65,0
403.1965,403.68607,56,65,0
403.6965,404.1965,43,66,0
403.6965,404.1965,55,66,0
404.1965,404.6965,36,67,0
404.1965,404.6965,48,67,0
404.6965,406.1965,29,68,0
404.6965,406.1965,41,68,0
406.1965,406.68607,30,71,0
406.1965,406.68607,42,71,0
406.6965,407.52982,31,72,0
406.6965,407.52982,43,72,0
407.6965,409.02982,43,74,0
407.6965,409.02982,55,74,0
409.1965,409.68607,41,77,0
409.1965,409.68607,53,77,0
409.6965,410.1965,40,78,0
409.6965,410.1965,52,78,0
410.1965,410.6965,28,79,0
410.1965,410.6965,40,79,0
410.6965,411.1965,29,80,0
410.6965,411.1965,41,80,0
411.1965,411.6965,41,81,0
411.1965,411.6965,53,81,0
411.6965,412.1965,42,82,0
411.6965,412.1965,54,82,0
412.1965,412.68607,30,83,0
412.1965,412.68607,42,83,0
412.6965,413.1965,31,84,0
412.6965,413.1965,43,84,0
413.1965,413.6965,43,86,0
413.1965,413.6965,55,86,0
413.6965,414.1965,44,88,0
413.6965,414.1965,56,88,0
414.1965,414.6965,32,90,0
414.1965,414.6965,44,90,0
414.6965,415.18607,33,92,0
414.6965,415.18607,45,92,0
415.1965,415.6965,46,92,0
415.1965,415.6965,58,92,0
415.6965,416.1965,45,92,0
415.6965,416.1965,57,92,0
416.1965,416.6965,43,92,0
416.1965,416.6965,55,92,0
416.6965,417.18607,41,92,0
416.6965,417.18607,53,92,0
417.1965,417.6965,34,92,0
417.1965,417.6965,46,92,0
417.6965,418.1965,33,92,0
417.6965,418.1965,45,92,0
418.1965,418.68607,31,92,0
418.1965,418.68607,43,92,0
418.6965,421.4465,30,92,0
418.6965,421.4465,42,92,0
421.6965,424.4465,33,92,0
421.6965,424.4465,45,92,0
424.6965,427.4465,36,92,0
424.6965,427.4465,48,92,0
427.6965,430.4465,35,92,0
427.6965,430.4465,47,92,0
430.6965,433.74442,35,92,0
430.6965,433.74442,47,92,0
434.03287,434.3662,46,92,0
434.3662,434.69955,51,92,0
434.03287,435.03287,34,92,0
434.69955,435.03287,55,92,0
435.03287,435.3662,58,92,0
435.3662,435.69955,56,92,0
435.03287,436.03287,46,92,0
435.69955,436.03287,53,92,0
436.03287,436.3662,58,92,0
436.3662,436.69955,55,92,0
436.03287,437.02246,46,92,0
436.69955,437.02246,51,92,0
437.03287,437.3662,46,92,0
437.3662,437.69955,50,92,0
437.03287,438.03287,34,92,0
437.69955,438.03287,53,92,0
438.03287,438.3662,58,92,0
438.3662,438.69955,56,92,0
438.03287,439.03287,46,92,0
438.69955,439.03287,53,92,0
439.03287,439.3662,58,92,0
439.3662,439.69955,55,92,0
439.03287,440.02246,46,92,0
439.69955,440.02246,51,92,0
440.03287,440.3662,48,92,0
440.3662,440.69955,51,92,0
440.69955,441.03287,56,92,0
441.03287,441.3662,46,92,0
441.3662,441.69955,51,92,0
441.69955,442.03287,58,92,0
442.03287,442.3662,44,92,0
442.3662,442.69955,48,92,0
442.69955,443.02246,53,92,0
443.03287,443.3662,45,92,0
443.3662,443.69955,48,92,0
443.69955,444.03287,53,92,0
444.03287,444.3662,46,92,0
444.3662,444.69955,50,92,0
444.69955,445.03287,53,92,0
445.03287,445.3662,46,92,0
445.3662,445.69955,58,92,0
445.69955,446.02246,56,92,0
446.03287,446.3662,55,92,0
446.3662,446.69955,50,92,0
446.69955,447.03287,43,92,0
447.03287,447.3662,48,92,0
447.3662,447.69955,51,92,0
447.69955,448.03287,55,92,0
448.03287,448.3662,48,92,0
448.3662,448.69955,60,92,0
448.69955,449.02246,58,92,0
449.03287,449.3662,56,92,0
449.3662,449.69955,51,92,0
449.69955,450.03287,44,92,0
450.03287,450.3662,49,92,0
450.3662,450.69955,53,92,0
450.69955,451.03287,56,92,0
451.03287,451.3662,49,92,0
451.3662,451.69955,61,92,0
451.69955,452.02246,59,92,0
452.03287,452.3662,58,92,0
452.3662,452.69955,53,92,0
452.69955,453.03287,46,92,0
453.03287,453.3662,51,92,0
453.3662,453.69955,46,92,0
453.69955,454.03287,39,92,0
454.03287,454.3662,41,92,0
454.3662,454.69955,36,92,0
454.69955,455.02246,29,92,0
455.03287,455.3558,34,92,0
455.3662,455.68912,41,89,0
455.69955,456.02246,46,86,0
456.03287,456.3558,45,83,0
456.3662,456.68912,46,80,0
456.69955,457.02246,45,76,0
457.03287,457.3558,46,72,0
457.3662,457.68912,45,68,0
457.69955,458.02246,46,64,0
458.03287,459.03287,38,60,0
459.03287,460.78287,34,60,0
458.03287,460.78287,46,60,0
461.03287,461.8662,38,75,0
462.03287,463.78287,34,92,0
461.03287,463.78287,46,75,0
464.03287,465.03287,43,60,0
465.03287,465.8662,39,60,0
464.03287,465.8662,46,60,0
466.03287,466.8662,31,60,0
466.03287,466.8662,43,60,0
467.03287,468.78287,36,60,0
467.03287,468.78287,48,60,0
469.03287,469.8662,55,60,0
470.03287,471.3662,60,60,0
469.03287,471.3662,63,60,0
469.03287,471.3662,67,60,0
471.53287,472.02246,33,92,0
471.53287,472.02246,45,92,0
472.03287,472.52246,34,92,0
472.03287,472.52246,46,92,0
472.53287,473.02246,36,75,0
472.53287,473.02246,48,75,0
473.03287,474.03287,38,60,0
473.03287,474.03287,50,60,0
474.03287,475.03287,43,60,0
474.03287,475.03287,55,60,0
475.03287,476.03287,41,68,0
475.03287,476.03287,53,68,0
476.03287,477.03287,46,76,0
476.03287,477.03287,58,76,0
477.03287,478.03287,45,84,0
477.03287,478.03287,57,84,0
478.03287,478.8662,50,92,0
478.03287,478.8662,62,92,0
479.03287,480.03287,29,60,0
479.03287,480.03287,41,60,0
480.03287,481.03287,31,60,0
480.03287,481.03287,43,60,0
481.03287,481.8662,33,60,0
481.03287,481.8662,45,60,0
482.03287,482.52246,38,60,0
482.53287,483.02246,38,61,0
483.03287,483.52246,38,62,0
483.53287,484.02246,38,63,0
484.03287,484.52246,38,64,0
482.03287,484.78287,26,60,0
484.53287,485.02246,38,66,0
485.03287,485.52246,38,68,0
485.53287,486.02246,38,70,0
486.03287,486.52246,38,72,0
486.53287,487.02246,38,74,0
487.03287,487.52246,38,76,0
485.03287,487.78287,26,68,0
487.53287,488.02246,38,78,0
488.03287,488.52246,38,80,0
488.53287,489.02246,38,82,0
489.03287,489.52246,38,84,0
489.53287,490.02246,38,86,0
490.03287,490.52246,38,88,0
488.03287,490.78287,26,80,0
490.53287,491.02246,38,90,0
491.03287,491.52246,38,92,0
491.53287,492.02246,38,92,0
492.03287,492.52246,38,75,0
492.53287,493.02246,38,75,0
491.03287,493.78287,26,92,0
494.03287,494.52246,43,60,0
494.53287,495.02246,43,60,0
495.03287,495.52246,43,60,0
495.53287,496.02246,43,60,0
496.03287,496.52246,43,60,0
494.03287,496.78287,31,60,0
496.53287,497.02246,43,60,0
497.03287,497.52246,43,60,0
497.53287,498.02246,43,60,0
498.03287,498.52246,43,60,0
498.53287,499.02246,43,60,0
499.03287,499.52246,43,60,0
497.03287,499.78287,31,60,0
499.53287,500.02246,43,60,0
500.03287,500.52246,43,60,0
500.53287,501.02246,43,60,0
501.03287,501.52246,43,60,0
501.53287,502.02246,43,60,0
502.03287,502.52246,43,60,0
500.03287,502.78287,31,60,0
502.53287,503.02246,43,60,0
503.03287,503.52246,43,60,0
503.53287,504.02246,43,62,0
504.03287,504.52246,43,64,0
503.03287,504.78287,31,60,0
504.53287,505.02246,43,66,0
505.03287,505.52246,43,68,0
505.03287,505.8662,31,68,0
505.53287,506.02246,43,71,0
506.03287,506.52246,43,74,0
506.53287,507.02246,43,77,0
507.03287,507.52246,43,80,0
507.53287,508.02246,43,83,0
508.03287,508.52246,43,86,0
507.03287,508.78287,31,80,0
508.53287,509.02246,43,89,0
509.03287,509.52246,31,92,0
509.03287,509.52246,39,92,0
509.03287,509.52246,43,92,0
509.53287,510.03287,67,75,0
510.03287,510.3662,63,60,0
510.3662,510.69955,58,60,0
510.69955,511.03287,55,60,0
511.03287,511.3662,51,60,0
511.3662,511.69955,46,60,0
511.69955,512.02246,43,60,0
512.0329,513.0329,31,60,0
512.0329,513.0329,43,60,0
513.0329,514.0329,29,60,0
513.0329,514.0329,41,60,0
514.0329,515.0329,31,60,0
514.0329,515.0329,43,60,0
515.0329,516.0329,34,60,0
515.0329,516.0329,46,60,0
516.0329,517.0329,32,60,0
516.0329,517.0329,44,60,0
517.0329,517.8662,31,60,0
517.0329,517.8662,43,60,0
518.0329,519.0329,36,60,0
518.0329,519.0329,48,60,0
519.0329,520.0329,34,60,0
519.0329,520.0329,46,60,0
520.0329,521.0329,32,60,0
520.0329,521.0329,44,60,0
521.0329,522.0329,33,60,0
521.0329,522.0329,45,60,0
522.0329,523.0329,34,60,0
522.0329,523.0329,46,60,0
523.0329,523.8662,32,60,0
523.0329,523.8662,44,60,0
524.0329,524.5329,31,60,0
524.0329,524.5329,43,60,0
524.5329,525.0329,34,60,0
524.5329,525.0329,46,60,0
525.0329,525.5329,29,60,0
525.0329,525.5329,41,60,0
525.5329,526.0329,34,60,0
525.5329,526.0329,46,60,0
526.0329,526.5329,27,60,0
526.0329,526.5329,39,60,0
526.5329,527.02246,37,60,0
526.5329,527.02246,49,60,0
527.0329,527.5329,36,60,0
527.0329,527.5329,48,60,0
527.5329,528.0329,39,61,0
527.5329,528.0329,51,61,0
528.0329,528.5329,34,62,0
528.0329,528.5329,46,62,0
528.5329,529.0329,39,63,0
528.5329,529.0329,51,63,0
529.0329,529.5329,32,64,0
529.0329,529.5329,44,64,0
529.5329,530.02246,39,65,0
529.5329,530.02246,51,65,0
530.0329,530.5329,31,66,0
530.0329,530.5329,43,66,0
530.5329,531.0329,30,67,0
530.5329,531.0329,42,67,0
531.0329,531.52246,29,68,0
531.0329,531.52246,41,68,0
531.5329,532.0329,39,69,0
531.5329,532.0329,51,69,0
532.0329,532.5329,29,70,0
532.0329,532.5329,41,70,0
532.5329,533.0329,28,71,0
532.5329,533.0329,40,71,0
533.0329,533.52246,27,72,0
533.0329,533.52246,39,72,0
533.5329,534.02246,34,73,0
533.5329,534.02246,46,73,0
534.0329,534.52246,30,74,0
534.0329,534.52246,42,74,0
534.5329,535.02246,27,75,0
534.5329,535.02246,39,75,0
535.0329,535.52246,44,76,0
535.0329,535.8662,30,76,0
535.5329,536.02246,44,78,0
536.0329,536.5329,34,80,0
536.0329,536.5329,46,80,0
536.5329,537.0329,39,82,0
536.5329,537.0329,51,82,0
537.0329,537.5329,42,84,0
537.0329,537.5329,54,84,0
537.5329,538.02246,46,86,0
537.5329,538.02246,58,86,0
538.0329,538.52246,34,88,0
538.0329,538.52246,58,88,0
538.5329,539.02246,46,90,0
538.5329,539.02246,56,90,0
539.0329,541.7829,33,92,0
539.0329,541.7829,36,92,0
539.0329,541.7829,39,92,0
539.0329,541.7829,42,92,0
539.0329,541.7829,45,92,0
542.0329,542.5329,34,92,0
542.0329,542.5329,46,92,0
542.5329,543.0329,39,92,0
542.5329,543.0329,51,92,0
543.0329,543.5329,43,92,0
543.0329,543.5329,55,92,0
543.5329,544.0329,46,92,0
543.5329,544.0329,58,92,0
544.0329,544.5329,48,92,0
544.0329,544.5329,60,92,0
544.5329,545.02246,36,92,0
544.5329,545.02246,48,92,0
545.0329,545.5329,32,92,0
545.0329,545.5329,44,92,0
545.5329,546.0329,36,92,0
545.5329,546.0329,48,92,0
546.0329,546.5329,41,92,0
546.0329,546.5329,53,92,0
546.5329,547.02246,44,92,0
546.5329,547.02246,56,92,0
547.0329,548.02246,32,92,0
547.5329,548.02246,44,92,0
548.0329,548.5329,34,92,0
548.0329,548.5329,46,92,0
548.5329,549.0329,39,92,0
548.5329,549.0329,51,92,0
549.0329,549.5329,43,92,0
549.0329,549.5329,55,92,0
549.5329,550.02246,46,92,0
549.5329,550.02246,58,92,0
550.0329,551.02246,34,92,0
550.5329,551.02246,46,92,0
551.0329,551.2829,39,92,0
551.2829,551.5329,46,92,0
551.5329,551.7829,55,92,0
551.7829,552.02246,58,92,0
552.0329,552.3558,63,92,0
552.0329,552.3558,67,92,0
552.3662,552.68915,58,87,0
552.3662,552.68915,65,87,0
552.6995,553.02246,55,82,0
552.6995,553.02246,63,82,0
553.0329,553.3558,63,77,0
553.0329,553.3558,67,77,0
553.3662,553.68915,58,72,0
553.3662,553.68915,65,72,0
553.6995,554.02246,55,66,0
553.6995,554.02246,63,66,0
554.0329,554.3558,63,60,0
554.0329,554.3558,67,60,0
554.3662,554.68915,55,60,0
554.3662,554.68915,63,60,0
554.6995,555.02246,58,60,0
554.6995,555.02246,65,60,0
555.0329,555.3558,65,60,0
555.0329,555.3558,68,60,0
555.3662,555.68915,63,62,0
555.3662,555.68915,67,62,0
555.6995,556.02246,58,64,0
555.6995,556.02246,65,64,0
556.0329,556.3558,65,66,0
556.0329,556.3558,68,66,0
556.3662,556.68915,63,68,0
556.3662,556.68915,67,68,0
556.6995,557.02246,58,70,0
556.6995,557.02246,65,70,0
557.0329,557.3558,65,72,0
557.0329,557.3558,68,72,0
557.3662,557.68915,58,74,0
557.3662,557.68915,65,74,0
557.6995,558.02246,63,76,0
557.6995,558.02246,67,76,0
558.0329,558.3558,67,78,0
558.0329,558.3558,70,78,0
558.3662,558.68915,65,80,0
558.3662,558.68915,68,80,0
558.6995,559.02246,63,82,0
558.6995,559.02246,67,82,0
559.0329,559.3558,67,84,0
559.0329,559.3558,70,84,0
559.3662,559.68915,65,86,0
559.3662,559.68915,68,86,0
559.6995,560.02246,63,89,0
559.6995,560.02246,67,89,0
560.0329,560.3558,72,92,0
560.0329,560.3558,75,92,0
560.3662,560.68915,63,92,0
560.6995,561.02246,70,92,0
560.6995,561.02246,74,92,0
561.0329,561.3558,68,92,0
561.0329,561.3558,72,92,0
561.3662,561.68915,63,87,0
561.6995,562.02246,68,82,0
561.6995,562.02246,72,82,0
562.0329,562.3558,67,77,0
562.0329,562.3558,70,77,0
562.3662,562.68915,58,72,0
562.6995,563.02246,65,66,0
562.6995,563.02246,68,66,0
563.0329,563.3558,63,60,0
563.0329,563.3558,67,60,0
563.3662,563.68915,58,60,0
563.3662,563.68915,63,60,0
563.6995,564.02246,55,60,0
563.6995,564.02246,58,60,0
564.0329,564.3558,51,60,0
564.0329,564.3558,55,60,0
564.3662,564.68915,46,61,0
564.3662,564.68915,53,61,0
564.6995,565.02246,43,62,0
564.6995,565.02246,51,62,0
565.0329,565.3558,51,63,0
565.0329,565.3558,55,63,0
565.3662,565.68915,46,64,0
565.3662,565.68915,53,64,0
565.6995,566.02246,43,65,0
565.6995,566.02246,51,65,0
566.0329,566.3558,51,66,0
566.0329,566.3558,55,66,0
566.3662,566.68915,43,67,0
566.3662,566.68915,51,67,0
566.6995,567.02246,46,68,0
566.6995,567.02246,53,68,0
567.0329,567.3558,53,69,0
567.0329,567.3558,56,69,0
567.3662,567.68915,51,70,0
567.3662,567.68915,55,70,0
567.6995,568.02246,46,71,0
567.6995,568.02246,53,71,0
568.0329,568.3558,53,72,0
568.0329,568.3558,56,72,0
568.3662,568.68915,51,73,0
568.3662,568.68915,55,73,0
568.6995,569.02246,46,74,0
568.6995,569.02246,53,74,0
569.0329,569.3558,53,75,0
569.0329,569.3558,56,75,0
569.3662,569.68915,46,76,0
569.3662,569.68915,53,76,0
569.6995,570.02246,51,78,0
569.6995,570.02246,55,78,0
570.0329,570.3558,55,80,0
570.0329,570.3558,58,80,0
570.3662,570.68915,53,82,0
570.3662,570.68915,56,82,0
570.6995,571.02246,51,84,0
570.6995,571.02246,55,84,0
571.0329,571.3558,55,86,0
571.0329,571.3558,58,86,0
571.3662,571.68915,53,88,0
571.3662,571.68915,56,88,0
571.6995,572.02246,51,90,0
571.6995,572.02246,55,90,0
572.0329,572.3558,60,92,0
572.0329,572.3558,63,92,0
572.3662,572.68915,51,92,0
572.6995,573.02246,58,92,0
572.6995,573.02246,62,92,0
573.0329,573.3558,56,92,0
573.0329,573.3558,60,92,0
573.3662,573.68915,51,91,0
573.6995,574.02246,56,90,0
573.6995,574.02246,60,90,0
574.0329,574.3558,55,89,0
574.0329,574.3558,58,89,0
574.3662,574.68915,46,88,0
574.6995,575.02246,53,87,0
574.6995,575.02246,56,87,0
575.0329,575.3558,51,86,0
575.0329,575.3558,55,86,0
575.3662,575.68915,46,85,0
575.6995,576.02246,46,84,0
576.0329,576.3558,46,83,0
576.3662,576.68915,39,82,0
576.6995,577.02246,39,80,0
577.0329,577.3558,39,78,0
577.3662,577.68915,27,76,0
577.6995,578.02246,39,74,0
578.0329,578.3558,27,72,0
578.3662,578.68915,39,70,0
578.6995,579.02246,27,68,0
579.0329,579.3558,27,66,0
579.3662,579.68915,39,64,0
579.6995,580.02246,27,62,0
580.0329,580.3558,27,60,0
580.3662,580.68915,39,60,0
580.6995,581.02246,27,60,0
581.0329,581.3558,27,60,0
581.3662,581.68915,39,60,0
581.6995,582.02246,27,64,0
582.0329,582.3558,27,68,0
582.3662,582.68915,39,72,0
582.6995,583.02246,27,76,0
583.0329,583.3558,27,80,0
583.3662,583.68915,39,84,0
583.6995,584.02246,27,88,0
584.0329,584.8662,51,92,0
584.0329,586.7829,39,92,0
585.0329,586.7829,46,92,0
587.0329,587.8662,50,92,0
587.0329,589.7829,39,92,0
588.0329,589.7829,46,92,0
590.0329,591.0329,48,92,0
591.0329,592.0329,46,92,0
590.0329,592.7829,39,92,0
592.0329,592.8662,44,92,0
593.0329,595.7829,39,92,0
593.0329,595.7829,46,92,0
596.0329,598.7829,39,92,0
596.0329,598.7829,51,92,0
599.0329,601.7829,39,75,0
599.0329,601.7829,51,75,0
602.0329,603.7829,39,75,0
602.0329,603.7829,47,75,0
604.0329,604.8662,46,75,0
605.0329,606.0329,39,75,0
606.0329,607.0329,38,75,0
607.0329,607.8662,39,75,0
608.0329,610.0329,35,75,0
608.0329,610.0329,47,75,0
610.0329,610.8662,34,75,0
610.0329,610.8662,46,75,0
611.0329,612.0329,39,75,0
612.0329,613.0329,38,75,0
613.0329,613.8662,39,75,0
614.0329,616.0329,35,75,0
614.0329,616.0329,47,75,0
616.0329,616.8662,34,75,0
616.0329,616.8662,46,75,0
617.0329,618.0329,27,75,0
617.0329,618.0329,39,75,0
618.0329,619.0329,26,74,0
618.0329,619.0329,38,74,0
619.0329,621.1043,27,73,0
619.0329,621.1043,39,73,0
621.1043,622.1757,26,71,0
621.1043,622.1757,38,71,0
622.1757,624.3186,27,70,0
622.1757,624.3186,39,70,0
624.3186,625.39,26,67,0
624.3186,625.39,38,67,0
625.39,627.6153,27,65,0
625.39,627.6153,39,65,0
627.6153,628.76917,26,61,0
627.6153,628.76917,38,61,0
628.76917,629.73065,27,59,0
628.76917,629.73065,39,59,0
629.923,633.3605,27,57,0
629.923,633.3605,39,57,0
633.673,637.423,39,51,0
633.673,637.423,46,51,0
633.673,637.423,51,51,0
637.7639,641.8889,51,45,0
637.7639,641.8889,58,45,0
637.7639,641.8889,63,45,0
645.2639,646.5139,39,10,0
