start_time,end_time,note_value,velocity,instrument_program_number
0.8076915,0.923076,62,75,40
0.923076,1.2644218,67,105,40
1.2692295,1.384614,67,75,40
1.384614,1.7259598,70,105,40
1.7307675,1.846152,70,75,40
1.846152,1.923075,69,75,40
2.076921,2.153844,67,75,40
2.30769,2.384613,66,75,40
2.538459,2.615382,67,75,40
2.769228,3.153843,66,105,40
2.769228,3.153843,74,105,40
3.230766,3.5721118,66,105,40
3.230766,3.5721118,69,105,40
3.5769196,3.692304,62,75,40
3.692304,4.03365,67,105,40
4.0384574,4.153842,67,75,40
4.153842,4.4951878,70,105,40
4.4999957,4.61538,70,75,40
4.61538,4.692303,69,75,40
4.846149,4.923072,67,75,40
5.076918,5.153841,66,75,40
5.307687,5.38461,67,75,40
5.538456,5.615379,74,75,40
5.769225,5.846148,67,75,40
5.769225,5.846148,76,75,40
5.999994,6.3413396,69,105,40
5.999994,6.3413396,78,105,40
6.3461475,6.461532,74,75,40
6.461532,6.802878,79,105,40
6.8076854,6.92307,79,75,40
6.92307,7.2644157,82,105,40
7.2692237,7.384608,82,75,40
7.384608,7.461531,81,75,40
7.615377,7.6923,79,75,40
7.846146,7.923069,78,75,40
8.076915,8.153838,79,75,40
8.307684,8.692299,86,105,40
8.769222,9.110568,81,105,40
9.1153755,9.23076,74,75,40
9.23076,9.572105,79,105,40
9.576914,9.692298,79,75,40
9.692298,10.033644,82,105,40
10.038451,10.153836,82,75,40
10.153836,10.230759,81,75,40
10.384605,10.461528,79,75,40
10.615374,10.692297,78,75,40
10.846143,10.923066,79,75,40
11.076912,11.153835,86,75,40
11.307681,11.384604,88,75,40
11.53845,11.923065,90,105,40
11.999988,12.384603,91,105,40
12.461526,12.576911,89,75,40
12.576911,12.692295,91,75,40
12.692295,12.769218,89,75,40
12.923064,13.038448,87,75,40
13.384602,13.499987,86,75,40
13.84614,13.961525,84,75,40
13.961525,14.076909,86,75,40
14.076909,14.153832,84,75,40
14.307678,14.384601,82,75,40
14.538447,14.61537,79,75,40
14.769216,15.153831,69,105,40
14.769216,15.153831,91,105,40
15.230754,15.346139,89,75,40
15.346139,15.461523,91,75,40
15.230754,15.538446,69,75,40
15.461523,15.538446,89,75,40
15.692292,16.076906,69,105,40
15.692292,16.076906,88,105,40
16.15383,16.538445,69,105,40
16.15383,16.538445,86,105,40
16.615368,16.730753,85,75,40
16.730753,16.846136,86,75,40
16.615368,16.92306,69,75,40
16.846136,16.92306,85,75,40
17.076906,17.16024,82,75,40
17.326906,17.470655,62,92,40
17.326906,17.545656,69,92,40
17.401905,17.545656,81,92,40
17.551907,17.626905,79,75,40
17.626905,17.968252,67,60,40
17.973059,18.088444,67,60,40
18.088444,18.42979,70,60,40
18.434597,18.549982,70,60,40
18.549982,18.626905,69,60,40
18.78075,18.857674,67,60,40
19.01152,19.088444,66,60,40
19.242289,19.319212,67,60,40
19.473059,19.857674,66,84,40
19.473059,19.857674,74,84,40
19.934595,20.275942,66,84,40
19.934595,20.275942,69,84,40
20.28075,20.396133,62,60,40
20.396133,20.73748,67,84,40
20.742287,20.857672,67,60,40
20.857672,21.199018,70,84,40
21.203825,21.31921,70,60,40
21.31921,21.396133,69,60,40
21.549978,21.626902,67,60,40
21.780748,21.857672,66,60,40
22.011517,22.08844,67,60,40
22.242287,22.319208,74,60,40
22.473055,22.549978,67,60,40
22.473055,22.549978,76,60,40
22.703823,23.04517,69,84,40
22.703823,23.04517,78,84,40
23.049978,23.165361,74,60,40
23.165361,23.506708,79,105,40
23.511515,23.6269,79,75,40
23.6269,23.968246,82,105,40
23.973053,24.088438,82,75,40
24.088438,24.165361,81,75,40
24.319206,24.39613,79,75,40
24.549976,24.6269,78,75,40
24.780745,24.857668,79,75,40
25.011515,25.39613,86,105,40
25.473051,25.814398,81,105,40
25.819206,25.93459,83,75,40
25.93459,26.275936,86,105,40
26.280743,26.396128,86,75,40
26.396128,26.737474,91,105,40
26.742281,26.857666,91,75,40
26.857666,26.93459,89,75,40
27.088434,27.165358,87,79,40
27.319204,27.396128,86,83,40
27.549973,27.626896,87,87,40
27.780743,28.047787,62,92,40
27.780743,28.18415,69,92,40
27.917105,28.18415,78,92,40
28.326197,28.59324,62,92,40
28.326197,28.729605,70,92,40
28.462559,28.729605,79,92,40
29.794725,29.905302,66,92,40
29.91011,30.020687,67,92,40
30.025496,30.136072,69,90,40
30.140879,30.251457,70,87,40
30.256264,30.36684,72,84,40
30.371649,30.482225,74,81,40
30.487034,30.59761,76,78,40
30.602417,30.712994,78,75,40
30.717802,30.828379,79,72,40
30.833187,30.943764,81,69,40
30.94857,31.059147,82,66,40
31.063955,31.174532,81,63,40
31.17934,31.256264,82,60,40
31.410109,31.487032,79,60,40
32.563953,32.67453,69,92,40
32.67934,32.789917,70,92,40
32.794724,32.9053,72,90,40
32.910107,33.020683,74,87,40
33.025494,33.13607,75,84,40
33.140877,33.251453,77,81,40
33.25626,33.366837,79,78,40
33.371647,33.482224,81,75,40
33.48703,33.597607,82,72,40
33.602413,33.71299,84,69,40
33.7178,33.828377,86,66,40
33.833183,33.94376,85,63,40
33.948566,34.02549,86,60,40
34.179337,34.25626,82,60,40
35.333183,35.717796,61,105,40
35.79472,36.179337,62,105,40
36.256256,36.640873,77,105,40
36.717796,37.10241,78,105,40
37.179333,37.405296,71,92,40
37.179333,37.405296,77,92,40
37.410103,37.636063,71,92,40
37.410103,37.636063,77,92,40
37.87164,38.097603,71,92,40
37.87164,38.097603,77,92,40
38.33318,38.55914,69,92,40
38.33318,38.55914,78,92,40
38.794716,39.02068,69,92,40
38.794716,39.02068,78,92,40
39.256256,39.482216,70,92,40
39.256256,39.482216,79,92,40
39.717793,39.943756,69,92,40
39.717793,39.943756,78,92,40
40.179333,40.405293,71,92,40
40.179333,40.405293,80,92,40
40.64087,40.86683,71,92,40
40.64087,40.86683,80,92,40
41.102406,41.32837,69,92,40
41.102406,41.32837,81,92,40
41.563946,41.789906,69,92,40
41.563946,41.789906,81,92,40
42.025482,42.251446,74,92,40
42.025482,42.251446,82,92,40
42.487022,42.712982,69,92,40
42.487022,42.712982,81,92,40
42.71779,42.943752,62,92,40
42.71779,43.059135,69,92,40
42.833176,43.059135,78,92,40
43.17933,43.40529,62,92,40
43.17933,43.520676,70,92,40
43.294712,43.520676,79,92,40
45.48702,45.71298,65,92,40
45.48702,45.828365,72,92,40
45.6024,45.828365,81,92,40
45.948555,46.17452,65,92,40
45.948555,46.2899,74,92,40
46.063942,46.2899,82,92,40
48.256245,48.64086,85,105,40
48.717785,49.102398,86,105,40
49.17932,49.56394,73,105,40
49.17932,49.56394,85,105,40
49.64086,50.025475,74,105,40
49.64086,50.025475,86,105,40
50.102398,50.487015,73,105,40
50.102398,50.487015,85,105,40
50.563934,50.94855,74,105,40
50.563934,50.94855,86,105,40
53.7947,53.905277,73,92,40
53.910088,54.020664,74,92,40
54.02547,54.136047,76,92,40
54.140854,54.25143,77,92,40
54.25624,54.366817,79,92,40
54.371624,54.4822,81,92,40
54.487007,54.597588,83,92,40
54.602394,54.71297,85,92,40
54.717777,54.7947,86,92,40
54.948547,55.02547,74,92,40
55.179317,55.25624,86,92,40
55.410084,55.487007,74,92,40
55.640854,55.75143,75,92,40
55.756237,55.866814,77,90,40
55.871624,55.9822,79,88,40
55.987007,56.097584,81,86,40
56.10239,56.212967,82,84,40
56.217777,56.328354,84,82,40
56.33316,56.443737,86,80,40
56.448547,56.559124,89,78,40
56.56393,56.948544,91,105,40
57.025467,57.140854,89,75,40
57.140854,57.256237,91,75,40
57.256237,57.33316,89,75,40
57.487007,57.87162,87,105,40
57.948544,58.33316,86,105,40
58.410084,58.525467,84,75,40
58.525467,58.64085,86,75,40
58.64085,58.717773,84,75,40
58.87162,58.948544,82,75,40
59.10239,59.179314,79,75,40
59.333157,59.717773,91,105,40
59.794697,59.91008,89,75,40
59.91008,60.025463,91,75,40
60.025463,60.102386,89,75,40
60.256233,60.37162,88,75,40
60.717773,60.833157,86,75,40
61.17931,61.294693,84,75,40
61.294693,61.41008,86,75,40
61.41008,61.487003,84,75,40
61.640846,61.74085,82,75,40
61.94085,62.06585,81,75,40
62.12835,62.31585,62,75,40
62.31585,62.657192,67,105,40
62.662003,62.777386,67,75,40
62.777386,63.118732,70,105,40
63.12354,63.238922,70,75,40
63.238922,63.315845,69,75,40
63.469692,63.546616,67,75,40
63.700462,63.777386,66,75,40
63.931232,64.008156,67,75,40
64.162,64.546616,66,105,40
64.162,64.546616,74,105,40
64.623535,64.96488,66,105,40
64.623535,64.96488,69,105,40
64.96969,65.085075,62,75,40
65.085075,65.42642,67,105,40
65.43123,65.546616,67,75,40
65.546616,65.88796,70,105,40
65.89277,66.00815,70,75,40
66.00815,66.085075,69,75,40
66.23892,66.31584,67,75,40
66.46969,66.546616,66,75,40
66.70046,66.77738,67,75,40
66.93123,67.00815,74,75,40
67.161995,67.23892,67,75,40
67.161995,67.23892,76,75,40
67.39277,67.734116,69,105,40
67.39277,67.734116,78,105,40
67.73892,67.8543,74,75,40
67.8543,68.19565,79,105,40
68.200455,68.31584,79,75,40
68.31584,68.65719,82,105,40
68.661995,68.77738,82,75,40
68.77738,68.8543,81,75,40
69.00815,69.085075,79,75,40
69.238914,69.31584,78,75,40
69.46969,69.54661,79,75,40
69.700455,70.08507,86,105,40
70.161995,70.50334,81,105,40
70.50815,70.623535,83,75,40
70.623535,70.964874,86,105,40
70.96969,71.08507,86,75,40
71.08507,71.426414,91,105,40
71.43122,71.54661,91,75,40
71.54661,71.62353,89,75,40
71.777374,71.8543,87,75,40
72.00815,72.08507,86,75,40
72.238914,72.31584,87,75,40
72.46968,72.69565,62,92,40
72.46968,72.81103,69,92,40
72.58507,72.81103,78,92,40
72.93122,73.15718,62,92,40
72.93122,73.27257,70,92,40
73.04661,73.27257,79,92,40
97.57665,97.80262,67,60,40
97.80743,98.03339,68,60,40
98.49973,98.72569,67,60,40
98.7305,98.95646,68,60,40
99.422806,99.648766,67,60,40
99.65358,99.87954,68,60,40
100.34589,100.571846,68,60,40
100.57665,100.80261,71,60,40
101.26896,101.49492,69,60,40
101.499725,101.72569,70,60,40
102.19203,102.418,69,60,40
102.422806,102.648766,70,60,40
103.11511,103.34107,69,60,40
103.34588,103.57184,70,60,40
104.038185,104.264145,70,60,40
104.26896,104.49492,73,60,40
104.961266,105.187225,73,60,40
105.19203,105.41799,74,60,40
105.88434,106.1103,74,60,40
106.34588,106.57184,73,60,40
106.80741,107.03338,73,60,40
107.038185,107.264145,74,60,40
107.73049,107.95645,73,60,40
107.96126,108.18722,74,60,40
119.88013,120.106094,67,60,40
120.1109,120.33686,68,60,40
120.80321,121.02917,67,60,40
121.03397,121.25993,68,60,40
121.72628,121.95224,67,60,40
121.957054,122.183014,68,60,40
122.64936,122.87532,68,60,40
122.88013,123.10609,71,60,40
123.57243,123.79839,69,60,40
123.8032,124.02917,70,60,40
124.49551,124.72147,69,60,40
124.72628,124.95224,70,60,40
125.41859,125.64455,69,60,40
125.64935,125.87531,70,60,40
126.34166,126.56763,70,60,40
126.57243,126.79839,73,60,40
127.26474,127.4907,73,60,40
127.49551,127.721466,74,60,40
128.18782,128.41377,74,60,40
128.64935,128.87532,73,60,40
129.11089,129.33685,73,60,40
129.34166,129.56763,74,60,40
130.03397,130.25993,73,60,40
130.26474,130.49069,74,60,40
141.80284,141.95284,62,75,40
141.95284,142.29417,67,105,40
142.299,142.41437,67,75,40
142.41437,142.75572,70,105,40
142.76053,142.87592,70,75,40
142.87592,142.95284,69,75,40
143.10667,143.18361,67,75,40
143.33745,143.41437,66,75,40
143.56822,143.64514,67,75,40
143.79898,144.18361,66,105,40
143.79898,144.18361,74,105,40
144.26053,144.60187,66,105,40
144.26053,144.60187,69,105,40
144.60667,144.72206,62,75,40
144.72206,145.06342,67,105,40
145.06822,145.18361,67,75,40
145.18361,145.52495,70,105,40
145.52975,145.64514,70,75,40
145.64514,145.72206,69,75,40
145.87592,145.95284,67,75,40
146.10667,146.1836,66,75,40
146.33745,146.41437,67,75,40
146.56822,146.64514,74,75,40
146.79898,146.87592,67,75,40
146.79898,146.87592,76,75,40
147.02975,147.3711,69,105,40
147.02975,147.3711,78,105,40
147.3759,147.49129,74,75,40
147.49129,147.83264,79,105,40
147.83745,147.95284,79,75,40
147.95284,148.29417,82,105,40
148.29898,148.41437,82,75,40
148.41437,148.49129,81,75,40
148.64514,148.72206,79,75,40
148.8759,148.95284,78,75,40
149.10667,149.1836,79,75,40
149.33745,149.72206,86,105,40
149.79898,150.14034,81,105,40
150.14514,150.26051,74,75,40
150.26051,150.60187,79,105,40
150.60667,150.72206,79,75,40
150.72206,151.0634,82,105,40
151.0682,151.1836,82,75,40
151.1836,151.26051,81,75,40
151.41437,151.49129,79,75,40
151.64514,151.72206,78,75,40
151.8759,151.95282,79,75,40
152.10667,152.1836,86,75,40
152.33745,152.41437,88,75,40
152.5682,152.95282,90,105,40
153.02975,153.41437,91,105,40
153.49129,153.60667,89,75,40
153.60667,153.72206,91,75,40
153.72206,153.79898,89,75,40
153.95282,154.33743,87,105,40
154.41437,154.79898,86,105,40
154.8759,154.99129,84,75,40
154.99129,155.10667,86,75,40
155.10667,155.1836,84,75,40
155.33743,155.41437,82,75,40
155.5682,155.64513,79,75,40
155.79898,156.1836,69,105,40
155.79898,156.1836,91,105,40
156.26051,156.3759,89,75,40
156.3759,156.49129,91,75,40
156.26051,156.5682,69,75,40
156.49129,156.5682,89,75,40
156.72205,157.10667,69,105,40
156.72205,157.10667,88,105,40
157.1836,157.5682,69,105,40
157.1836,157.5682,86,105,40
157.64513,157.76051,85,75,40
157.76051,157.8759,86,75,40
157.64513,157.95282,69,75,40
157.8759,157.95282,85,75,40
158.10666,158.1836,82,75,40
158.33743,158.44801,62,92,40
158.33743,158.5057,69,92,40
158.39513,158.5057,81,92,40
158.51051,158.5682,62,60,40
158.5682,158.90955,67,84,40
158.91435,159.02974,58,60,40
159.02974,159.83263,62,84,40
159.83743,159.95282,58,60,40
159.95282,160.64032,62,84,40
160.64513,160.72205,62,60,40
160.8759,160.95282,66,60,40
161.10666,161.18358,69,60,40
161.22205,161.33743,60,60,40
161.33743,161.67877,67,60,40
161.68358,161.79897,58,60,40
161.79897,162.60185,62,60,40
162.60666,162.72205,58,60,40
162.72205,163.26051,62,60,40
163.41435,163.49127,67,60,40
163.64513,163.72205,69,60,40
163.87589,163.95282,74,60,40
163.99127,164.10666,74,60,40
164.10666,164.44801,67,60,40
164.45282,164.56819,58,60,40
164.56819,165.37108,62,60,40
165.37589,165.49127,58,60,40
165.49127,166.17877,62,60,40
166.18358,166.2605,62,60,40
166.41435,166.49127,66,60,40
166.64513,166.72205,69,60,40
166.7605,166.87589,62,60,40
166.87589,167.2605,67,60,40
167.33743,168.18358,67,60,40
168.2605,169.10666,60,60,40
169.18358,169.56819,55,60,40
170.10666,170.22205,67,60,40
171.02972,171.14511,60,60,40
171.9528,172.06819,55,58,40
172.87589,172.99127,60,56,40
173.83742,173.96242,55,54,40
174.88287,175.01924,60,52,40
176.02834,176.17833,60,50,40
177.295,177.46165,60,48,40
178.71165,178.89915,55,45,40
179.73439,180.00711,78,92,40
180.00711,180.27415,79,92,40
180.27985,180.37074,74,92,40
180.55257,180.68324,76,92,40
180.68893,181.09235,76,92,40
181.09802,181.2287,74,92,40
181.23439,181.63779,74,92,40
181.64348,181.71165,72,92,40
181.71165,181.77985,74,92,40
181.77985,182.05257,72,92,40
182.05257,182.18324,71,92,40
182.18893,182.64348,71,92,40
183.00711,183.27983,78,92,40
183.27983,183.54689,79,92,40
183.55257,183.64348,74,92,40
183.82529,183.95598,76,92,40
183.96165,184.36507,76,92,40
184.37074,184.50143,81,92,40
184.50711,184.91052,81,92,40
184.9162,184.98438,79,92,40
184.98438,185.05257,81,88,40
185.05257,185.12074,79,84,40
185.12074,185.18893,81,80,40
185.18893,185.25711,79,76,40
185.25711,185.32529,81,72,40
184.9162,185.37074,69,92,40
185.32529,185.39348,78,68,40
185.39348,185.45598,79,64,40
185.46165,185.9162,69,60,40
185.46165,185.9162,78,60,40
186.27983,186.55257,78,92,40
186.55257,186.81961,79,92,40
186.82529,186.9162,74,92,40
187.09802,187.2287,76,92,40
187.23438,187.63779,76,92,40
187.64346,187.77415,74,92,40
187.77983,188.18324,74,92,40
188.18892,188.25711,72,92,40
188.25711,188.32529,74,92,40
188.32529,188.598,72,92,40
188.598,188.7287,71,92,40
188.73438,189.18892,71,92,40
189.55257,189.82529,78,92,40
189.82529,190.09233,79,92,40
190.098,190.18892,74,92,40
190.37074,190.50142,76,92,40
190.50711,190.9105,76,92,40
190.9162,191.04688,81,92,40
191.05255,191.45596,81,92,40
191.46165,191.52983,79,92,40
191.52983,191.598,81,88,40
191.598,191.6662,79,84,40
191.6662,191.73438,81,80,40
191.73438,191.80255,79,76,40
191.80255,191.87074,81,72,40
191.46165,191.9162,69,92,40
191.87074,191.93892,78,68,40
191.93892,192.00142,79,64,40
192.0071,192.46164,69,60,40
192.0071,192.46164,78,60,40
192.82529,193.09233,62,92,40
192.82529,193.09233,70,92,40
193.37074,193.63779,67,92,40
193.37074,193.63779,70,92,40
193.91618,194.18324,67,92,40
193.91618,194.18324,72,92,40
194.46164,194.72868,67,92,40
194.46164,194.72868,75,92,40
195.0071,195.27414,69,92,40
195.0071,195.27414,72,92,40
195.55255,195.8196,65,92,40
195.55255,195.8196,74,92,40
196.098,196.36505,67,92,40
196.098,196.36505,70,92,40
196.64346,196.9105,63,92,40
196.64346,196.9105,72,92,40
197.18892,197.45596,66,92,40
197.18892,197.45596,69,92,40
197.73438,198.00142,62,92,40
197.73438,198.00142,70,92,40
198.27982,198.54688,67,92,40
198.27982,198.54688,73,92,40
198.55255,198.8196,57,92,40
198.55255,198.8196,66,92,40
198.55255,198.8196,74,92,40
199.098,199.22868,62,92,40
199.098,199.22868,74,92,40
199.23438,199.36505,62,92,40
199.23438,199.36505,74,92,40
199.37073,199.91618,62,92,40
199.37073,199.91618,74,92,40
199.91618,200.18323,71,92,40
199.91618,200.18323,79,92,40
200.18892,200.3196,72,92,40
200.18892,200.3196,79,92,40
200.32527,200.72868,72,92,40
200.32527,200.72868,79,92,40
200.73436,200.86505,71,92,40
200.73436,200.86505,79,92,40
200.87073,201.27414,71,92,40
200.87073,201.27414,79,92,40
201.27982,201.348,78,92,40
201.348,201.41618,79,92,40
201.41618,201.48436,78,92,40
201.48436,201.55255,79,92,40
201.55255,201.62073,76,92,40
201.27982,201.68323,69,92,40
201.62073,201.6889,78,92,40
201.6889,201.7571,76,92,40
201.7571,201.8196,78,92,40
201.82527,202.27982,71,92,40
201.82527,202.27982,79,92,40
202.37073,202.5014,62,92,40
202.37073,202.5014,74,92,40
202.5071,202.63777,62,92,40
202.5071,202.63777,74,92,40
202.64345,203.1889,62,92,40
202.64345,203.1889,74,92,40
203.1889,203.45595,71,92,40
203.1889,203.45595,79,92,40
203.46164,203.59232,67,92,40
203.46164,203.59232,79,92,40
203.59799,203.72868,67,92,40
203.59799,203.72868,79,92,40
203.73436,204.27982,67,92,40
203.73436,204.27982,79,92,40
204.27982,204.54686,76,92,40
204.27982,204.54686,84,92,40
204.55255,204.62073,81,92,40
204.62073,204.6889,83,87,40
204.6889,204.7571,81,82,40
204.7571,204.82527,83,77,40
204.82527,204.89345,81,72,40
204.89345,204.96164,83,66,40
204.96164,205.02982,79,60,40
205.02982,205.09232,81,60,40
205.09799,205.55254,79,92,40
205.91618,206.18323,62,92,40
205.91618,206.18323,70,92,40
206.46164,206.72868,67,92,40
206.46164,206.72868,70,92,40
207.00708,207.27414,67,92,40
207.00708,207.27414,72,92,40
207.55254,207.81958,67,92,40
207.55254,207.81958,75,92,40
208.09799,208.36504,69,92,40
208.09799,208.36504,72,92,40
208.64345,208.91049,65,92,40
208.64345,208.91049,74,92,40
209.1889,209.45595,67,92,40
209.1889,209.45595,70,92,40
209.73436,210.0014,63,92,40
209.73436,210.0014,72,92,40
210.27982,210.54686,66,92,40
210.27982,210.54686,69,92,40
210.82527,211.09232,62,92,40
210.82527,211.09232,70,92,40
211.37071,211.63777,67,92,40
211.37071,211.63777,73,92,40
211.64345,211.91049,57,92,40
211.64345,211.91049,66,92,40
211.64345,211.91049,74,92,40
212.1889,212.31958,62,92,40
212.1889,212.31958,74,92,40
212.32526,212.45595,62,92,40
212.32526,212.45595,74,92,40
212.46162,213.00708,62,92,40
212.46162,213.00708,74,92,40
213.00708,213.27412,71,92,40
213.00708,213.27412,79,92,40
213.2798,213.41049,72,92,40
213.2798,213.41049,79,92,40
213.41617,213.81958,72,92,40
213.41617,213.81958,79,92,40
213.82526,213.95595,71,92,40
213.82526,213.95595,79,92,40
213.96162,214.36504,71,92,40
213.96162,214.36504,79,92,40
214.37071,214.4389,78,92,40
214.4389,214.50708,79,92,40
214.50708,214.57526,78,92,40
214.57526,214.64345,79,92,40
214.64345,214.71162,76,92,40
214.37071,214.77412,69,92,40
214.71162,214.7798,78,92,40
214.7798,214.84799,76,92,40
214.84799,214.91049,78,92,40
214.91617,215.37071,71,92,40
214.91617,215.37071,79,92,40
215.46162,215.5923,62,92,40
215.46162,215.5923,74,92,40
215.59799,215.72867,62,92,40
215.59799,215.72867,74,92,40
215.73434,216.2798,62,92,40
215.73434,216.2798,74,92,40
216.2798,216.54684,71,92,40
216.2798,216.54684,79,92,40
216.55254,216.68321,67,92,40
216.55254,216.68321,79,92,40
216.68889,216.81958,67,92,40
216.68889,216.81958,79,92,40
216.82526,217.37071,67,92,40
216.82526,217.37071,79,92,40
217.37071,217.63776,76,92,40
217.37071,217.63776,84,92,40
217.64343,217.71162,81,92,40
217.71162,217.7798,83,87,40
217.7798,217.84799,81,82,40
217.84799,217.91617,83,77,40
217.91617,217.98434,81,72,40
217.98434,218.05254,83,66,40
218.05254,218.12071,79,60,40
218.12071,218.18321,81,60,40
218.18889,218.64343,79,92,40
224.43434,224.73434,71,75,40
224.73434,224.93434,61,75,40
224.93434,225.13435,62,75,40
225.13435,225.53435,64,75,40
225.53435,225.73434,62,75,40
225.73434,225.9281,61,75,40
225.93434,226.43434,62,75,40
226.53435,227.03435,60,75,40
227.13435,227.20935,58,75,40
227.20935,227.28435,59,75,40
227.28435,227.5781,58,75,40
227.58435,227.7281,59,75,40
227.73434,228.1781,59,75,40
228.18434,228.3281,83,75,40
228.33435,228.83435,83,75,40
228.93434,229.07497,76,75,40
229.13435,229.27498,79,80,40
229.33435,229.46559,83,86,40
229.53435,230.3281,84,92,40
230.33435,230.47498,86,92,40
230.53435,230.6656,84,92,40
230.73434,231.23434,83,92,40
231.33435,231.47498,81,92,40
231.53435,231.67497,83,92,40
231.73434,231.8656,84,92,40
231.93434,232.53435,79,92,40
232.53435,233.03435,78,92,40
233.43434,233.73434,78,92,40
233.73434,233.87497,71,92,40
233.93434,234.07497,73,92,40
234.13435,234.2656,74,92,40
234.33435,235.1281,76,92,40
235.13435,235.27498,78,92,40
235.33435,235.46559,79,92,40
235.53435,236.03435,78,92,40
236.13435,236.63435,76,92,40
236.73434,236.80934,73,92,40
236.80934,236.88435,74,92,40
236.88435,237.18434,73,92,40
237.18434,237.3281,71,92,40
237.33435,237.83435,71,92,40
239.13435,239.93434,72,63,40
241.53435,242.33435,74,63,40
243.93434,244.73434,76,70,40
245.13435,245.93434,76,72,40
246.33435,247.13435,75,78,40
247.53435,248.33435,71,60,40
249.03435,249.33435,79,60,40
249.33435,249.47498,79,70,40
249.53435,249.67497,81,77,40
249.73434,249.8656,83,84,40
249.93434,250.7281,84,92,40
250.73434,250.87497,86,92,40
250.93434,251.0656,84,92,40
251.13435,251.63435,83,92,40
251.73434,251.87497,81,92,40
251.93434,252.07497,83,92,40
252.13435,252.2656,84,92,40
252.33435,252.93434,79,92,40
252.93434,253.43434,78,92,40
253.83435,254.13435,78,92,40
254.13435,254.27498,71,92,40
254.33435,254.47498,73,92,40
254.53435,254.6656,74,92,40
254.73434,255.52809,76,92,40
255.53435,255.67497,78,92,40
255.73434,255.8656,79,92,40
255.93434,256.43436,78,92,40
256.53436,257.03436,76,92,40
257.13434,257.20935,73,92,40
257.20935,257.28436,74,92,40
257.28436,257.58435,73,92,40
257.58435,257.7281,71,92,40
257.73434,258.23434,71,92,40
259.53436,260.33435,72,63,40
261.93436,262.73434,74,63,40
264.33435,265.13434,76,63,40
265.53436,266.33435,76,63,40
266.73434,267.53436,75,63,40
267.93436,268.73434,71,45,40
269.43436,269.73434,79,60,40
269.73434,269.87497,79,60,40
269.93436,270.07498,81,70,40
270.13434,270.2656,83,81,40
270.33435,270.93436,84,92,40
270.93436,271.07498,84,92,40
271.13434,271.27496,86,92,40
271.33435,271.4656,84,92,40
271.53436,272.03436,83,92,40
272.13434,272.27496,81,92,40
272.33435,272.47498,83,92,40
272.53436,272.6656,84,92,40
272.73434,273.33435,79,92,40
273.33435,273.83435,78,92,40
274.23434,274.53436,78,92,40
274.53436,274.675,71,92,40
274.73434,274.87497,73,92,40
274.93436,275.0656,74,92,40
275.13434,275.9281,76,92,40
275.93436,276.07498,78,92,40
276.13434,276.2656,79,92,40
276.33435,276.83435,78,92,40
276.93436,277.43436,76,84,40
277.53436,277.6125,73,76,40
277.6125,277.6906,74,75,40
277.6906,278.0031,73,74,40
278.0031,278.15283,71,70,40
278.15936,278.718,71,68,40
289.9112,290.02176,62,84,40
290.02658,290.13715,64,60,40
290.14194,290.25253,62,60,40
290.25732,290.36792,60,60,40
290.3727,290.4833,59,60,40
290.4881,290.5987,60,60,40
290.6035,290.71408,59,60,40
290.71887,290.82944,60,60,40
290.83426,290.94482,62,84,40
290.94965,291.0602,64,60,40
291.06503,291.1756,62,60,40
291.18042,291.291,60,60,40
291.2958,291.40637,59,60,40
291.4112,291.52176,60,60,40
291.52658,291.63715,59,60,40
291.64194,291.75253,60,60,40
291.75732,291.86792,62,60,40
291.8727,291.9833,64,64,40
291.9881,292.0987,62,68,40
292.1035,292.21408,64,72,40
292.21887,292.32944,66,76,40
292.33426,292.44482,67,80,40
292.44965,292.5602,66,84,40
292.56503,292.6756,67,88,40
292.68042,292.791,69,92,40
292.7958,292.90637,67,92,40
292.9112,293.02176,69,82,40
293.02655,293.13715,67,71,40
293.14194,293.25253,66,60,40
293.25732,293.36792,64,60,40
293.3727,293.4833,66,60,40
293.4881,293.5987,64,60,40
293.6035,293.71405,62,84,40
293.71887,293.82944,64,60,40
293.83426,293.94482,62,60,40
293.94965,294.0602,60,60,40
294.06503,294.1756,59,60,40
294.18042,294.291,60,60,40
294.2958,294.40637,59,60,40
294.4112,294.52176,60,60,40
294.52655,294.63715,62,84,40
294.64194,294.75253,64,60,40
294.75732,294.86792,62,60,40
294.8727,294.9833,60,60,40
294.9881,295.09866,59,60,40
295.1035,295.21405,60,60,40
295.21887,295.32944,59,60,40
295.33426,295.44482,60,60,40
295.44965,295.5602,62,60,40
295.56503,295.6756,64,64,40
295.68042,295.791,62,68,40
295.7958,295.90637,64,72,40
295.91116,296.02176,66,76,40
296.02655,296.13715,67,80,40
296.14194,296.25253,66,84,40
296.25732,296.36792,67,88,40
296.3727,296.4833,69,92,40
296.4881,296.59866,67,92,40
296.6035,296.71405,69,88,40
296.71887,296.82944,67,84,40
296.83426,296.94482,66,80,40
296.94965,297.0602,64,75,40
297.06503,297.1756,66,70,40
297.18042,297.291,64,65,40
297.29578,297.40637,62,84,40
297.41116,297.52176,64,60,40
297.52655,297.63715,62,60,40
297.64194,297.75253,60,60,40
297.75732,297.86792,59,60,40
297.8727,297.98328,60,60,40
297.9881,298.09866,59,60,40
298.1035,298.21405,60,60,40
298.21887,298.32944,62,84,40
298.33426,298.44482,64,60,40
298.44965,298.5602,62,60,40
298.56503,298.6756,60,60,40
298.68042,298.791,59,60,40
298.79578,298.90637,60,60,40
298.91116,299.02176,59,60,40
299.02655,299.13715,60,60,40
299.14194,299.25253,62,60,40
299.25732,299.36792,64,64,40
299.3727,299.48328,62,68,40
299.4881,299.59866,64,72,40
299.6035,299.71405,65,76,40
299.71887,299.82944,67,80,40
299.83426,299.94482,65,84,40
299.94965,300.0602,67,88,40
300.06503,300.1756,69,92,40
300.1804,300.291,67,92,40
300.29578,300.40637,69,88,40
300.41116,300.52176,67,84,40
300.52655,300.63715,65,80,40
300.64194,300.75253,64,75,40
300.75732,300.8679,65,70,40
300.8727,300.98328,64,65,40
300.9881,301.09866,62,84,40
301.1035,301.21405,64,60,40
301.21887,301.32944,62,60,40
301.33426,301.44482,60,60,40
301.44965,301.5602,59,60,40
301.56503,301.6756,60,60,40
301.6804,301.791,59,60,40
301.79578,301.90637,60,60,40
301.91116,302.02176,62,84,40
302.02655,302.13715,64,60,40
302.14194,302.2525,62,60,40
302.25732,302.3679,60,60,40
302.3727,302.48328,59,60,40
302.4881,302.59866,60,60,40
302.6035,302.71405,59,60,40
302.71887,302.82944,60,60,40
302.83426,302.94482,62,84,40
302.94965,303.0602,64,61,40
303.065,303.1756,62,61,40
303.1804,303.291,60,62,40
303.29578,303.40637,59,63,40
303.41116,303.52176,60,64,40
303.52655,303.63715,59,65,40
303.64194,303.7525,57,66,40
303.75732,303.8679,55,67,40
303.8727,303.98328,69,68,40
303.9881,304.09866,67,69,40
304.1035,304.21405,65,70,40
304.21887,304.32944,64,71,40
304.33426,304.44482,65,72,40
304.44962,304.5602,64,73,40
304.565,304.6756,62,74,40
304.6804,304.791,60,75,40
304.79578,304.90637,62,76,40
304.91116,305.02176,60,77,40
305.02655,305.13712,59,78,40
305.14194,305.2525,57,79,40
305.25732,305.3679,59,80,40
305.3727,305.48328,57,81,40
305.4881,305.59866,55,82,40
305.6035,305.71405,66,83,40
305.71887,305.82944,69,84,40
305.83426,305.94482,67,85,40
305.94962,306.0602,66,86,40
306.065,306.1756,64,87,40
306.1804,306.291,67,88,40
306.29578,306.40637,66,89,40
306.41116,306.52176,64,90,40
306.52655,306.77133,62,92,40
307.02655,307.27133,62,92,40
307.02655,307.27133,72,92,40
307.52655,307.7936,62,92,40
307.52655,307.92996,72,92,40
307.6629,307.92996,78,92,40
308.747,308.89075,62,92,40
308.747,309.04074,71,92,40
308.822,309.04074,79,92,40
309.047,309.34702,69,92,40
309.047,309.34702,78,92,40
309.34702,309.64075,71,92,40
309.34702,309.64075,79,92,40
309.647,309.747,71,92,40
309.647,309.747,74,92,40
309.947,310.09076,67,92,40
309.947,310.09076,76,92,40
310.09702,310.54074,67,92,40
310.09702,310.54074,76,92,40
310.547,310.69077,67,92,40
310.547,310.69077,74,92,40
310.697,311.14075,67,92,40
310.697,311.14075,74,92,40
311.147,311.22202,72,92,40
311.22202,311.297,74,92,40
311.147,311.59076,62,92,40
311.297,311.59702,72,92,40
311.59702,311.74075,71,92,40
311.747,312.247,62,92,40
311.747,312.247,71,92,40
312.647,312.947,69,92,40
312.647,312.947,78,92,40
312.947,313.047,71,92,40
312.947,313.047,79,92,40
313.247,313.34702,71,92,40
313.247,313.34702,74,92,40
313.547,313.69077,74,92,40
313.547,313.69077,76,92,40
313.697,314.14075,74,92,40
313.697,314.14075,76,92,40
314.147,314.29074,74,92,40
314.147,314.29074,81,92,40
314.297,314.74075,74,92,40
314.297,314.74075,81,92,40
314.747,314.822,79,92,40
314.822,314.897,81,91,40
314.897,314.97202,79,90,40
314.97202,315.047,81,89,40
315.047,315.122,79,88,40
315.122,315.197,81,87,40
314.747,315.247,69,92,40
315.197,315.272,78,86,40
315.272,315.34076,79,85,40
315.34702,315.84702,69,84,40
315.34702,315.84702,78,84,40
315.947,316.447,74,105,40
316.547,317.047,79,105,40
317.147,317.22202,84,92,40
317.22202,317.297,86,92,40
317.297,317.372,84,90,40
317.372,317.447,86,88,40
317.447,317.522,84,86,40
317.522,317.59702,86,84,40
317.59702,317.672,83,81,40
317.672,317.74075,84,78,40
317.747,318.19077,87,105,40
318.272,318.34702,86,75,40
318.34702,318.47824,84,75,40
318.547,318.67825,82,75,40
318.747,318.87827,84,75,40
318.947,319.447,86,105,40
319.547,320.047,82,105,40
320.147,320.59076,84,105,40
320.672,320.747,82,75,40
320.747,320.87827,81,75,40
320.947,321.07825,79,75,40
321.147,321.27826,81,75,40
321.34702,321.47824,82,75,40
321.547,321.67825,86,75,40
321.747,321.87827,91,75,40
321.947,322.022,88,75,40
322.022,322.09702,90,75,40
322.09702,322.39075,88,75,40
322.397,322.54074,86,75,40
322.547,323.047,86,75,40
323.447,323.59076,90,92,40
323.59702,323.74075,90,92,40
323.747,323.84702,91,92,40
324.047,324.147,86,92,40
324.34702,324.49075,88,92,40
324.497,324.94077,88,92,40
324.947,325.09076,86,92,40
325.09702,325.54074,86,92,40
325.547,325.69077,84,92,40
325.697,326.14075,84,92,40
326.147,326.647,83,92,40
327.047,327.19077,78,92,40
327.197,327.34076,78,92,40
327.34702,327.447,79,92,40
327.647,327.747,83,92,40
328.247,328.39075,83,92,40
328.397,328.54074,83,92,40
328.547,328.647,84,92,40
328.84702,328.947,88,92,40
329.147,329.22202,90,92,40
329.22202,329.297,91,92,40
329.297,329.372,90,92,40
329.372,329.447,91,92,40
329.447,329.522,90,92,40
329.522,329.59702,91,92,40
329.59702,329.672,88,92,40
329.672,329.74075,90,92,40
329.747,330.04074,91,92,40
331.27008,331.38065,66,92,40
331.38547,331.49603,67,92,40
331.50085,331.61142,69,92,40
331.61624,331.7268,70,92,40
331.73163,331.8422,72,92,40
331.84702,331.95758,74,92,40
331.9624,332.07297,76,92,40
332.07776,332.18835,78,92,40
332.19315,332.30374,79,92,40
332.30853,332.41913,81,92,40
332.42392,332.53452,82,92,40
332.5393,332.6499,81,92,40
332.6547,332.73163,82,92,40
332.88547,332.9624,79,92,40
334.0393,334.14987,69,92,40
334.1547,334.26526,70,92,40
334.27008,334.38065,72,92,40
334.38547,334.49603,74,92,40
334.50085,334.61142,75,92,40
334.61624,334.7268,77,92,40
334.73163,334.8422,79,92,40
334.84702,334.95758,81,92,40
334.96237,335.07297,82,92,40
335.07776,335.18835,84,92,40
335.19315,335.30374,86,92,40
335.30853,335.41913,85,92,40
335.42392,335.50085,86,92,40
335.6547,335.73163,82,92,40
336.80853,337.19315,61,105,40
337.27008,337.6547,62,105,40
337.73163,338.11624,77,105,40
338.19315,338.57776,78,105,40
338.6547,338.88065,71,75,40
338.6547,338.88065,77,75,40
338.88547,339.11142,71,75,40
338.88547,339.11142,77,75,40
339.347,339.57297,71,75,40
339.347,339.57297,77,75,40
339.80853,340.0345,69,75,40
339.80853,340.0345,78,75,40
340.27008,340.49603,69,75,40
340.27008,340.49603,78,75,40
340.7316,340.95758,70,75,40
340.7316,340.95758,79,75,40
341.19315,341.4191,69,75,40
341.19315,341.4191,78,75,40
341.42392,341.64987,72,75,40
341.42392,341.64987,81,75,40
341.6547,341.88065,72,75,40
341.6547,341.88065,81,75,40
342.1162,342.3422,72,75,40
342.1162,342.3422,81,75,40
342.57776,342.8037,70,75,40
342.57776,342.8037,82,75,40
343.0393,343.26526,70,75,40
343.0393,343.26526,82,75,40
343.50082,343.7268,75,75,40
343.50082,343.7268,84,75,40
343.96237,344.18832,70,75,40
343.96237,344.18832,82,75,40
344.19315,344.4191,62,92,40
344.19315,344.64987,69,92,40
344.30853,344.64987,78,92,40
344.6547,344.88065,62,92,40
344.6547,345.11142,70,92,40
344.77008,345.11142,79,92,40
346.96237,347.18832,65,92,40
346.96237,347.4191,72,92,40
347.07776,347.4191,81,92,40
347.42392,347.64987,65,92,40
347.42392,347.88065,74,92,40
347.5393,347.88065,82,92,40
349.7316,350.1162,85,105,40
350.19315,350.57776,86,105,40
350.65466,351.0393,73,105,40
350.65466,351.0393,85,105,40
351.1162,351.50082,74,105,40
351.1162,351.50082,86,105,40
351.57776,351.96237,73,105,40
351.57776,351.96237,85,105,40
352.0393,352.42392,74,105,40
352.0393,352.42392,86,105,40
355.27005,355.38065,73,92,40
355.38544,355.49603,74,92,40
355.50082,355.6114,76,92,40
355.6162,355.72678,77,92,40
355.7316,355.84216,79,92,40
355.847,355.95755,81,92,40
355.96237,356.07294,83,92,40
356.07776,356.18832,85,92,40
356.19315,356.27005,86,92,40
356.4239,356.50082,74,92,40
356.65466,356.7316,86,92,40
356.88544,356.96237,74,92,40
357.1162,357.22678,75,92,40
357.2316,357.34216,77,90,40
357.347,357.45755,79,88,40
357.46237,357.57294,81,86,40
357.57776,357.68832,82,84,40
357.69315,357.8037,84,82,40
357.8085,357.9191,86,80,40
357.9239,358.0345,89,78,40
358.03928,358.4239,91,105,40
358.50082,358.6162,89,75,40
358.6162,358.7316,91,75,40
358.7316,358.8085,89,75,40
358.96237,359.347,87,105,40
359.4239,359.8085,86,105,40
359.88544,360.00082,84,75,40
360.00082,360.1162,86,75,40
360.1162,360.1931,84,75,40
360.347,360.4239,82,75,40
360.57776,360.65466,79,75,40
360.8085,361.1931,91,105,40
361.27005,361.38544,89,75,40
361.38544,361.50082,91,75,40
361.50082,361.57773,89,75,40
361.7316,362.1162,88,105,40
362.1931,362.57773,86,105,40
362.65466,362.77005,84,75,40
362.77005,362.88544,86,75,40
362.88544,362.96237,84,75,40
363.1162,363.2316,82,75,40
363.2316,363.347,84,75,40
363.347,363.4239,82,75,40
363.57773,363.8037,81,75,40
364.50082,365.83414,69,75,40
364.50082,365.83414,87,75,40
379.1175,379.41122,74,92,40
379.41748,379.6175,67,92,40
379.6175,379.81747,70,92,40
379.81747,380.01123,74,92,40
380.0175,380.81122,75,92,40
380.81747,381.01123,77,92,40
381.0175,381.21124,75,92,40
381.21747,382.01123,74,92,40
382.0175,382.21124,75,92,40
382.21747,382.41122,74,92,40
382.41748,383.21124,72,92,40
383.21747,383.41122,74,75,40
383.41748,383.61124,72,60,40
384.41748,384.61124,74,60,40
384.6175,384.81122,72,58,40
385.6175,385.81122,74,48,40
385.81747,386.01123,72,45,40
386.81747,387.01123,74,92,40
387.0175,387.21124,72,92,40
387.21747,387.71747,71,92,40
387.81747,388.01123,69,92,40
388.0175,388.21124,71,92,40
388.21747,388.41122,72,92,40
388.41748,389.0175,67,92,40
389.0175,389.5175,67,60,40
389.6175,389.97464,66,60,40
401.31747,401.53177,77,92,40
401.53177,401.74158,78,92,40
401.74603,401.81747,73,75,40
401.96033,402.31747,74,105,40
402.38892,402.74603,73,105,40
402.81747,403.17462,71,105,40
403.24603,403.60318,69,105,40
403.67462,403.72818,68,75,40
403.72818,403.78177,69,75,40
403.78177,403.99603,68,75,40
403.99603,404.09872,66,75,40
404.10318,404.46033,66,75,40
404.74603,404.96033,77,75,40
404.96033,405.17014,78,75,40
405.17462,405.24603,73,75,40
405.3889,405.74603,74,75,40
405.81747,406.17462,73,75,40
406.46033,406.67462,80,75,40
406.67462,406.88443,81,75,40
406.8889,406.96033,76,75,40
407.10318,407.53177,77,75,40
407.53177,407.8889,76,75,40
408.17462,408.3889,80,92,40
408.3889,408.59872,81,92,40
408.60318,408.67462,76,92,40
408.81747,409.24603,77,92,40
409.24603,409.60318,76,92,40
409.8889,410.10318,80,92,40
410.10318,410.313,81,92,40
410.31747,410.53174,76,92,40
410.53174,410.74158,77,92,40
410.74603,410.96033,73,92,40
410.96033,411.17014,74,92,40
411.17462,411.3889,69,92,40
411.3889,411.60318,70,92,40
411.60318,411.81747,66,92,40
411.81747,412.02728,67,92,40
412.03174,412.24603,81,92,40
412.24603,412.45587,82,92,40
412.46033,412.67462,78,92,40
412.67462,412.88443,79,92,40
412.8889,413.10318,74,92,40
413.10318,413.313,75,92,40
413.31747,413.53174,71,92,40
413.53174,413.74603,72,92,40
413.74603,413.96033,67,92,40
413.96033,414.03174,68,92,40
414.1746,414.24603,63,92,40
414.60318,414.81747,83,92,40
414.81747,415.02728,84,92,40
415.03174,415.10318,72,92,40
415.46033,415.6746,83,92,40
415.6746,415.88443,84,92,40
415.8889,415.96033,72,92,40
416.31747,416.53174,84,92,40
416.53174,416.74158,85,92,40
416.74603,416.81747,73,92,40
417.1746,417.3889,84,92,40
417.3889,417.59872,85,92,40
417.60318,417.6746,73,92,40
418.03174,418.24603,85,92,40
418.24603,418.45584,86,92,40
418.46033,418.53174,74,92,40
418.8889,419.10318,85,92,40
419.10318,419.313,86,92,40
419.31744,419.3889,74,92,40
420.1746,420.3889,66,60,40
420.3889,420.5987,67,60,40
420.60318,420.6746,62,60,40
421.03174,421.24603,66,60,40
421.24603,421.45584,67,60,40
421.46033,421.53174,62,60,40
421.8889,422.10318,65,60,40
422.10318,422.313,68,66,40
422.31744,422.53174,68,72,40
422.53174,422.74155,71,78,40
422.74603,422.9603,71,85,40
422.9603,423.31744,72,92,40
423.60318,423.81744,73,60,40
423.81744,424.02728,74,60,40
424.03174,424.10318,69,60,40
424.4603,424.6746,73,60,40
424.6746,424.88443,74,60,40
424.8889,424.9603,69,60,40
425.31744,425.53174,72,60,40
425.53174,425.74155,75,60,40
425.74603,425.9603,75,60,40
425.9603,426.17014,78,60,40
426.1746,426.3889,78,60,40
426.3889,426.74603,79,60,40
427.03174,427.24603,80,60,40
427.24603,427.45584,81,60,40
427.4603,427.53174,76,60,40
427.8889,428.10315,80,60,40
428.10315,428.313,81,60,40
428.31744,428.3889,76,60,40
428.74603,428.9603,67,60,40
428.9603,429.17014,70,61,40
429.1746,429.3889,70,62,40
429.3889,429.5987,73,63,40
429.60315,429.81744,73,64,40
429.81744,430.1746,76,65,40
430.4603,430.6746,69,68,40
430.6746,430.8844,72,69,40
430.8889,431.10315,72,70,40
431.10315,431.313,75,71,40
431.31744,431.53174,75,72,40
431.53174,431.8889,78,73,40
432.1746,432.3889,71,76,40
432.3889,432.5987,74,77,40
432.60315,432.81744,74,78,40
432.81744,433.02725,77,79,40
433.03174,433.246,77,80,40
433.246,433.45584,80,81,40
433.4603,433.6746,80,82,40
433.6746,434.03174,79,83,40
434.10315,434.4603,78,85,40
434.53174,434.8889,77,87,40
434.9603,435.31744,76,89,40
435.3889,436.246,75,92,40
436.246,436.996,73,75,40
437.10315,437.4603,74,60,40
440.5317,440.88885,62,92,40
440.9603,441.31744,66,92,40
441.38885,441.746,69,92,40
441.81744,442.1746,72,92,40
442.246,442.31744,78,92,40
442.31744,442.38885,79,92,40
442.38885,442.4603,78,92,40
442.4603,442.5317,79,92,40
442.5317,442.60315,78,92,40
442.60315,442.6746,79,92,40
442.6746,442.746,78,92,40
442.746,442.81744,79,92,40
442.81744,442.88885,78,92,40
442.88885,442.9603,79,92,40
442.9603,443.0317,78,92,40
443.0317,443.10315,79,92,40
443.10315,443.1746,78,92,40
443.1746,443.246,79,92,40
443.246,443.31744,78,92,40
443.31744,443.38885,79,92,40
443.38885,443.4603,78,92,40
443.4603,443.5317,79,92,40
443.5317,443.60315,78,92,40
443.60315,443.6746,79,92,40
443.6746,443.746,78,92,40
443.746,443.81744,79,92,40
443.81744,443.88885,76,92,40
443.88885,443.95584,78,92,40
443.9603,444.15613,62,92,40
443.9603,444.25613,70,92,40
444.0603,444.25613,79,92,40
444.26028,444.3603,67,92,40
444.3603,444.65613,70,92,40
444.66028,444.76028,70,92,40
444.76028,444.82697,69,92,40
444.9603,445.02695,67,92,40
445.16028,445.22696,66,92,40
445.3603,445.42697,67,92,40
445.5603,445.89362,66,92,40
445.5603,445.89362,74,92,40
445.9603,446.25613,66,92,40
445.9603,446.25613,69,92,40
446.26028,446.3603,62,92,40
446.3603,446.65613,67,92,40
446.66028,446.76028,67,92,40
446.76028,447.05612,70,92,40
447.0603,447.16028,70,92,40
447.16028,447.22696,69,92,40
447.3603,447.42697,67,92,40
447.5603,447.62695,66,92,40
447.76028,447.82697,67,92,40
447.9603,448.15613,74,92,40
448.16028,448.3561,67,92,40
448.16028,448.3561,76,92,40
448.3603,448.69363,69,92,40
448.3603,448.69363,78,92,40
448.76028,448.95612,62,92,40
448.76028,449.05612,70,92,40
448.8603,449.05612,79,92,40
449.0603,449.16028,79,92,40
449.16028,449.45612,82,92,40
449.4603,449.5603,82,92,40
449.5603,449.62695,81,92,40
449.76028,449.82697,79,92,40
449.9603,450.02695,78,92,40
450.16028,450.22696,79,92,40
450.3603,450.69363,86,92,40
450.76028,451.05612,81,92,40
451.0603,451.16028,74,92,40
451.16028,451.45612,79,92,40
451.4603,451.5603,79,92,40
451.5603,451.8561,82,92,40
451.8603,451.9603,82,92,40
451.9603,452.02695,81,92,40
452.16028,452.22696,79,92,40
452.3603,452.42697,78,92,40
452.5603,452.62695,79,92,40
452.76028,452.95612,86,92,40
452.9603,453.15613,88,92,40
453.16028,453.49362,90,92,40
453.5603,453.89362,91,92,40
453.9603,454.0603,89,92,40
454.0603,454.16028,91,92,40
454.16028,454.22696,89,92,40
454.3603,454.69363,87,92,40
454.76028,455.09363,86,92,40
455.16028,455.26028,84,92,40
455.26028,455.3603,86,92,40
455.3603,455.42697,84,92,40
455.5603,455.62695,82,92,40
455.76028,455.82697,79,92,40
455.9603,456.2936,77,92,40
456.3603,456.4603,75,92,40
456.4603,456.5603,77,92,40
456.5603,456.62695,75,92,40
456.76028,457.09363,74,92,40
457.16028,457.49362,79,92,40
457.5603,457.66028,77,92,40
457.66028,457.76028,79,92,40
457.76028,457.82697,77,92,40
457.9603,458.2936,75,92,40
458.3603,458.69363,69,92,40
458.3603,458.69363,88,92,40
458.76028,458.8603,69,92,40
458.76028,458.8603,86,92,40
458.8603,458.9603,88,92,40
458.9603,459.02695,86,92,40
459.16028,459.49362,69,92,40
459.16028,459.49362,85,92,40
459.5603,459.66028,69,92,40
459.5603,459.66028,82,92,40
459.66028,459.76028,84,92,40
459.76028,459.82697,69,92,40
459.76028,459.82697,82,92,40
459.9603,460.2936,69,92,40
459.9603,460.2936,81,92,40
460.3603,460.4603,69,92,40
460.3603,460.4603,79,92,40
460.4603,460.5603,81,92,40
460.5603,460.62695,79,92,40
460.76028,460.82697,69,92,40
460.76028,460.82697,77,92,40
460.9603,461.02695,76,92,40
461.16028,461.22696,77,92,40
461.3603,461.42697,79,92,40
461.5603,461.62695,77,92,40
461.76028,461.82697,76,92,40
461.9603,462.02695,74,92,40
462.16028,462.22696,73,92,40
462.3603,462.42697,74,92,40
462.5603,462.62695,76,92,40
462.76028,462.82697,77,92,40
462.9603,463.02695,79,92,40
463.16028,463.22696,77,92,40
463.3603,463.42697,76,92,40
463.5603,463.62695,74,92,40
463.76028,463.82697,73,92,40
463.9603,464.02695,74,92,40
464.16028,464.22696,76,92,40
464.3603,464.42697,77,92,40
464.5603,464.62695,79,92,40
464.76028,464.82697,81,92,40
464.9603,465.02695,82,92,40
465.16028,465.22696,84,92,40
465.3603,465.42697,81,92,40
465.5603,465.75613,70,92,40
465.5603,465.75613,79,92,40
465.9603,466.2936,70,92,40
466.3603,466.55356,69,92,40
466.55765,466.75092,67,92,40
466.75504,466.94827,66,92,40
466.9524,467.14566,67,92,40
467.14975,467.34302,75,92,40
467.34714,467.54037,73,92,40
467.5445,467.73776,74,92,40
467.74185,467.93512,81,92,40
467.93924,468.12997,78,92,40
468.13403,468.3248,79,92,40
468.32886,468.5196,75,92,40
468.52365,468.7144,73,92,40
468.71844,468.9092,74,92,40
468.91327,469.104,81,92,40
469.10806,469.2988,78,92,40
469.30286,469.49362,79,92,40
469.49768,469.68597,84,92,40
469.68997,469.8783,81,92,40
469.8823,470.0706,82,92,40
470.0746,470.2629,87,92,40
470.2669,470.4552,85,92,40
470.4592,470.64752,86,92,40
470.65152,470.8398,91,92,40
470.84384,471.03214,86,92,40
471.03613,471.22205,91,92,40
471.226,471.41193,86,92,40
471.4159,471.6018,91,92,40
471.60574,471.79166,86,92,40
471.79562,471.98154,91,92,40
472.36523,472.55118,86,92,40
472.5551,472.7387,91,92,40
473.1176,473.3012,86,92,40
473.3051,473.4887,91,92,40
473.8676,474.0512,74,92,40
474.0551,474.2387,70,92,40
474.0551,474.2387,79,92,40
474.6176,474.82745,74,92,40
474.8319,476.68906,70,92,40
474.8319,476.68906,79,92,40
476.68906,476.9828,55,92,40
74.89276,75.11872,74,60,45
75.12353,75.34949,72,60,45
75.3543,75.58026,70,60,45
75.58507,75.81103,72,60,45
75.815834,76.041794,74,60,45
76.04661,76.27257,72,60,45
76.277374,76.503334,70,60,45
76.50814,76.73411,72,60,45
76.738914,76.964874,74,60,45
76.96968,77.19564,74,60,45
77.20045,77.426414,74,60,45
77.43122,77.65718,74,60,45
77.66199,77.88795,74,60,45
77.89275,78.11872,74,60,45
78.12353,78.34949,73,60,45
78.354294,78.58025,73,60,45
78.58507,78.81103,74,60,45
78.815834,79.041794,74,60,45
79.0466,79.27256,74,60,45
79.277374,79.503334,74,60,45
79.50814,79.7341,74,60,45
79.73891,79.96487,74,60,45
79.96968,80.19564,74,60,45
80.20045,80.42641,74,60,45
80.43121,80.65718,74,60,45
80.66199,80.88795,74,60,45
80.89275,81.11871,75,60,45
81.12352,81.34949,75,60,45
81.354294,81.58025,74,60,45
81.58506,81.81102,74,60,45
81.81583,82.041794,72,60,45
82.0466,82.27256,72,60,45
82.27737,82.50333,70,60,45
82.50814,82.7341,62,60,45
82.50814,82.7341,70,60,45
82.73891,83.12352,63,84,45
82.73891,83.12352,72,84,45
83.20045,83.42641,70,60,45
83.43121,83.65717,62,60,45
83.43121,83.65717,70,60,45
83.66198,84.0466,63,84,45
83.66198,84.0466,72,84,45
84.12352,84.34948,70,60,45
84.35429,84.58025,62,60,45
84.35429,84.58025,70,60,45
84.58506,84.96967,63,84,45
84.58506,84.96967,72,84,45
85.04659,85.463264,55,60,45
85.04659,85.463264,62,60,45
85.04659,85.463264,70,60,45
86.11932,86.34528,74,60,45
86.35009,86.57605,72,60,45
86.580864,86.80682,70,60,45
86.81163,87.03759,72,60,45
87.0424,87.268364,74,60,45
87.27317,87.49913,72,60,45
87.50394,87.7299,70,60,45
87.7347,87.96067,72,60,45
87.96548,88.19144,74,60,45
88.19624,88.4222,74,60,45
88.42701,88.65298,74,60,45
88.65778,88.88374,74,60,45
88.88855,89.11451,74,60,45
89.11932,89.34528,74,60,45
89.35009,89.57605,73,60,45
89.58086,89.806816,73,60,45
89.81163,90.03759,74,60,45
90.0424,90.26836,74,60,45
90.27316,90.49912,74,60,45
90.50394,90.7299,74,60,45
90.7347,90.96066,74,60,45
90.96547,91.19144,74,60,45
91.19624,91.4222,74,60,45
91.42701,91.65297,74,60,45
91.657776,91.88374,74,60,45
91.88855,92.11451,74,60,45
92.119316,92.345276,75,60,45
92.35008,92.57605,75,60,45
92.58086,92.806816,74,60,45
92.81162,93.03758,74,60,45
93.0424,93.26836,72,60,45
93.27316,93.49912,72,60,45
93.50393,93.72989,70,60,45
93.7347,93.96066,62,60,45
93.7347,93.96066,70,60,45
93.96547,94.35008,63,84,45
93.96547,94.35008,72,84,45
94.42701,94.65297,70,60,45
94.657776,94.883736,62,60,45
94.657776,94.883736,70,60,45
94.88854,95.27316,63,84,45
94.88854,95.27316,72,84,45
95.35008,95.57604,70,60,45
95.58085,95.806816,62,60,45
95.58085,95.806816,70,60,45
95.81162,96.196236,63,84,45
95.81162,96.196236,72,84,45
96.273155,96.68983,55,60,45
96.273155,96.68983,62,60,45
96.273155,96.68983,70,60,45
108.4228,108.64876,74,60,45
108.653564,108.87953,72,60,45
108.88434,109.1103,70,60,45
109.115105,109.341064,72,60,45
109.34587,109.57184,74,60,45
109.576645,109.802605,72,60,45
109.80741,110.03337,70,60,45
110.03818,110.264145,72,60,45
110.26895,110.49491,74,60,45
110.49972,110.72568,74,60,45
110.73049,110.95645,74,60,45
110.96126,111.18722,74,60,45
111.192024,111.417984,74,60,45
111.4228,111.64876,74,60,45
111.653564,111.879524,70,60,45
111.88433,112.11029,70,60,45
112.115105,112.341064,69,60,45
112.34587,112.57183,69,60,45
112.57664,112.802605,72,60,45
112.80741,113.03337,72,60,45
113.03818,113.26414,77,60,45
113.26894,113.49491,77,60,45
113.49972,113.72568,75,60,45
113.730484,113.95644,75,60,45
113.96125,114.18722,74,60,45
114.192024,114.417984,74,60,45
114.42279,114.64875,75,60,45
114.653564,114.879524,75,60,45
114.88433,115.11029,74,60,45
115.1151,115.34106,74,60,45
115.34587,115.57183,72,60,45
115.57664,115.8026,72,60,45
115.8074,116.03337,74,60,45
116.03818,116.26414,65,60,45
116.03818,116.26414,74,60,45
116.26894,116.65356,66,84,45
116.26894,116.65356,75,84,45
116.730484,116.95644,74,60,45
116.96125,117.18721,65,60,45
116.96125,117.18721,74,60,45
117.19202,117.57664,66,84,45
117.19202,117.57664,75,84,45
117.65356,117.87952,74,60,45
117.88433,118.11029,65,60,45
117.88433,118.11029,74,60,45
118.1151,118.49971,66,84,45
118.1151,118.49971,75,84,45
118.57664,118.9933,58,60,45
118.57664,118.9933,65,60,45
118.57664,118.9933,74,60,45
130.72627,130.95224,74,60,45
130.95705,131.183,72,60,45
131.1878,131.41377,70,60,45
131.41858,131.64455,72,60,45
131.64935,131.8753,74,60,45
131.88011,132.10608,72,60,45
132.11089,132.33685,70,60,45
132.34166,132.56761,72,60,45
132.57242,132.79839,74,60,45
132.80319,133.02916,74,60,45
133.03397,133.25992,74,60,45
133.26472,133.49069,74,60,45
133.4955,133.72147,74,60,45
133.72627,133.95222,74,60,45
133.95705,134.183,70,60,45
134.1878,134.41377,70,60,45
134.41858,134.64453,69,60,45
134.64935,134.8753,69,60,45
134.88011,135.10608,72,60,45
135.11089,135.33684,72,60,45
135.34166,135.56761,77,60,45
135.57242,135.79839,77,60,45
135.80319,136.02916,75,60,45
136.03397,136.25992,75,60,45
136.26472,136.49069,74,60,45
136.4955,136.72147,74,60,45
136.72627,136.95222,75,60,45
136.95703,137.183,75,60,45
137.1878,137.41377,74,60,45
137.41858,137.64453,74,60,45
137.64934,137.8753,72,60,45
137.88011,138.10608,72,60,45
138.11089,138.33684,74,60,45
138.34164,138.56761,65,60,45
138.34164,138.56761,74,60,45
138.57242,138.95703,66,84,45
138.57242,138.95703,75,84,45
139.03395,139.25992,74,60,45
139.26472,139.49069,65,60,45
139.26472,139.49069,74,60,45
139.4955,139.88011,66,84,45
139.4955,139.88011,75,84,45
139.95703,140.183,74,60,45
140.1878,140.41376,65,60,45
140.1878,140.41376,74,60,45
140.41856,140.80319,66,84,45
140.41856,140.80319,75,84,45
140.88011,141.29677,58,60,45
140.88011,141.29677,65,60,45
140.88011,141.29677,74,60,45
278.83426,279.06024,71,60,45
279.06503,279.29102,69,60,45
279.2958,279.52176,67,60,45
279.52658,279.75253,69,60,45
279.75735,279.9833,71,60,45
279.98813,280.21408,69,60,45
280.21887,280.44485,67,60,45
280.44965,280.67563,69,60,45
280.68042,280.90637,71,60,45
280.9112,281.13715,71,60,45
281.14197,281.36792,71,60,45
281.37274,281.5987,71,60,45
281.6035,281.82947,71,60,45
281.83426,282.06024,71,60,45
282.06503,282.291,70,60,45
282.2958,282.52176,70,60,45
282.52658,282.75253,71,60,45
282.75735,282.9833,71,60,45
282.98813,283.21408,71,60,45
283.21887,283.44485,71,60,45
283.44965,283.6756,71,60,45
283.68042,283.90637,71,60,45
283.9112,284.13715,71,60,45
284.14197,284.36792,71,60,45
284.37274,284.5987,71,60,45
284.6035,284.82947,71,60,45
284.83426,285.06024,72,60,45
285.06503,285.291,72,60,45
285.2958,285.52176,71,60,45
285.52658,285.75253,71,60,45
285.75735,285.9833,69,60,45
285.9881,286.21408,69,60,45
286.21887,286.44485,67,60,45
286.44965,286.6756,59,60,45
286.44965,286.6756,67,60,45
286.68042,287.06503,60,84,45
286.68042,287.06503,69,84,45
287.14197,287.36792,67,60,45
287.3727,287.5987,59,60,45
287.3727,287.5987,67,60,45
287.6035,287.9881,60,84,45
287.6035,287.9881,69,84,45
288.06503,288.291,67,60,45
288.2958,288.52176,59,60,45
288.2958,288.52176,67,60,45
288.52658,288.9112,60,84,45
288.52658,288.9112,69,84,45
288.9881,289.3727,59,60,45
288.9881,289.3727,67,60,45
288.9881,289.3727,76,60,45
0.8076915,0.923076,63,75,41
0.923076,1.2644218,58,105,41
1.2692295,1.384614,67,75,41
1.384614,1.7259598,62,105,41
1.7307675,1.846152,62,75,41
1.846152,1.923075,60,75,41
2.076921,2.153844,58,75,41
2.30769,2.384613,57,75,41
2.538459,2.615382,58,75,41
2.769228,3.153843,57,105,41
3.230766,3.5721118,62,105,41
3.5769196,3.692304,62,75,41
3.692304,4.03365,58,105,41
4.0384574,4.153842,67,75,41
4.153842,4.4951878,62,105,41
4.4999957,4.61538,62,75,41
4.61538,4.692303,60,75,41
4.846149,4.923072,58,75,41
5.076918,5.153841,57,75,41
5.307687,5.38461,58,75,41
5.538456,5.615379,70,75,41
5.769225,5.846148,61,75,41
5.999994,6.3413396,62,105,41
6.3461475,6.461532,62,75,41
6.461532,6.802878,58,105,41
6.8076854,6.92307,67,75,41
6.92307,7.2644157,62,105,41
7.2692237,7.384608,62,75,41
7.384608,7.461531,60,75,41
7.615377,7.6923,58,75,41
7.846146,7.923069,57,75,41
8.076915,8.153838,58,75,41
8.307684,8.692299,57,105,41
8.769222,9.110568,62,105,41
9.1153755,9.23076,62,75,41
9.23076,9.572105,58,105,41
9.576914,9.692298,67,75,41
9.692298,10.033644,62,105,41
10.038451,10.153836,62,75,41
10.153836,10.230759,60,75,41
10.384605,10.461528,58,75,41
10.615374,10.692297,57,75,41
10.846143,10.923066,58,75,41
11.076912,11.153835,70,75,41
11.307681,11.384604,61,75,41
11.53845,11.923065,62,105,41
11.999988,12.384603,63,105,41
11.999988,12.384603,75,105,41
12.461526,12.576911,74,75,41
12.576911,12.692295,75,75,41
12.692295,12.769218,74,75,41
12.923064,13.307679,72,105,41
13.384602,13.769217,70,105,41
13.84614,13.961525,69,75,41
13.961525,14.076909,70,75,41
14.076909,14.153832,69,75,41
14.307678,14.384601,67,75,41
14.538447,14.61537,63,75,41
14.769216,15.153831,64,105,41
14.769216,15.153831,76,105,41
15.230754,15.346139,74,75,41
15.346139,15.461523,76,75,41
15.461523,15.538446,74,75,41
15.692292,16.076906,73,105,41
16.15383,16.538445,70,105,41
16.615368,16.730753,69,75,41
16.730753,16.846136,70,75,41
16.846136,16.92306,69,75,41
17.076906,17.16024,67,75,41
17.326906,17.426907,66,105,41
17.326906,17.426907,74,105,41
17.551907,17.626905,62,75,41
17.626905,17.968252,58,84,41
17.973059,18.088444,67,60,41
18.088444,18.42979,62,84,41
18.434597,18.549982,62,60,41
18.549982,18.626905,60,60,41
18.78075,18.857674,58,60,41
19.01152,19.088444,57,60,41
19.242289,19.319212,58,60,41
19.473059,19.857674,57,84,41
19.934595,20.275942,62,84,41
20.28075,20.396133,62,60,41
20.396133,20.73748,58,84,41
20.742287,20.857672,67,60,41
20.857672,21.199018,62,84,41
21.203825,21.31921,62,60,41
21.31921,21.396133,60,60,41
21.549978,21.626902,58,60,41
21.780748,21.857672,57,60,41
22.011517,22.08844,58,60,41
22.242287,22.319208,70,60,41
22.473055,22.549978,61,60,41
22.703823,23.04517,62,84,41
23.049978,23.165361,62,75,41
23.165361,23.506708,58,105,41
23.511515,23.6269,67,75,41
23.6269,23.968246,62,105,41
23.973053,24.088438,62,75,41
24.088438,24.165361,60,75,41
24.319206,24.39613,58,75,41
24.549976,24.6269,57,75,41
24.780745,24.857668,58,75,41
25.011515,25.39613,57,105,41
25.473051,25.857668,62,105,41
25.93459,26.319204,67,105,41
25.93459,26.319204,71,105,41
26.396128,26.780743,62,105,41
26.396128,26.780743,71,105,41
26.857666,26.93459,68,75,41
27.088434,27.165358,67,79,41
27.319204,27.396128,65,83,41
27.549973,27.626896,67,87,41
27.780743,27.917105,62,92,41
27.780743,27.917105,72,92,41
28.326197,28.462559,62,92,41
28.326197,28.462559,70,92,41
28.87165,29.256266,54,105,41
29.333187,29.717802,55,105,41
29.794725,29.905302,54,92,41
29.91011,30.020687,55,92,41
30.025496,30.136072,57,90,41
30.140879,30.251457,58,87,41
30.256264,30.36684,60,84,41
30.371649,30.482225,62,81,41
30.487034,30.59761,64,78,41
30.602417,30.712994,66,75,41
30.717802,30.828379,67,72,41
30.833187,30.943764,69,69,41
30.94857,31.059147,70,66,41
31.063955,31.174532,69,63,41
31.17934,31.256264,70,60,41
31.410109,31.487032,67,60,41
31.640879,32.025494,57,105,41
32.102417,32.48703,58,105,41
32.563953,32.67453,57,92,41
32.67934,32.789917,58,92,41
32.794724,32.9053,60,90,41
32.910107,33.020683,62,87,41
33.025494,33.13607,63,84,41
33.140877,33.251453,65,81,41
33.25626,33.366837,67,78,41
33.371647,33.482224,69,75,41
33.48703,33.597607,70,72,41
33.602413,33.71299,72,69,41
33.7178,33.828377,74,66,41
33.833183,33.94376,73,63,41
33.948566,34.02549,74,60,41
34.179337,34.25626,70,60,41
34.410107,34.79472,61,105,41
34.871643,35.25626,62,105,41
35.333183,35.717796,49,105,41
35.79472,36.179337,50,105,41
36.256256,36.640873,49,105,41
36.717796,37.10241,50,105,41
37.179333,37.405296,61,92,41
37.179333,37.405296,68,92,41
37.410103,37.636063,61,92,41
37.410103,37.636063,68,92,41
37.87164,38.097603,61,92,41
37.87164,38.097603,68,92,41
38.33318,38.55914,61,92,41
38.33318,38.55914,69,92,41
38.794716,39.02068,62,92,41
38.794716,39.02068,69,92,41
39.256256,39.482216,55,92,41
39.256256,39.482216,67,92,41
39.717793,39.943756,62,92,41
39.717793,39.943756,69,92,41
40.179333,40.405293,65,92,41
40.179333,40.405293,73,92,41
40.64087,40.86683,65,92,41
40.64087,40.86683,73,92,41
41.102406,41.32837,66,92,41
41.102406,41.32837,73,92,41
41.563946,41.789906,66,92,41
41.563946,41.789906,74,92,41
42.025482,42.251446,62,92,41
42.025482,42.251446,74,92,41
42.487022,42.712982,66,92,41
42.487022,42.712982,74,92,41
43.640865,43.751442,54,92,41
43.756252,43.86683,55,92,41
43.871635,43.982212,57,90,41
43.98702,44.097595,58,87,41
44.102406,44.212982,60,84,41
44.21779,44.328365,62,81,41
44.33317,44.44375,64,78,41
44.44856,44.559135,66,75,41
44.563942,44.67452,67,72,41
44.679325,44.7899,69,69,41
44.794712,44.90529,70,66,41
44.910095,45.02067,69,63,41
45.02548,45.1024,70,60,41
45.25625,45.33317,67,60,41
46.410095,46.52067,57,92,41
46.52548,46.636055,58,92,41
46.64086,46.75144,60,90,41
46.75625,46.866825,62,87,41
46.87163,46.98221,63,84,41
46.987015,47.097595,65,81,41
47.1024,47.21298,67,78,41
47.217785,47.32836,69,75,41
47.33317,47.44375,70,72,41
47.448555,47.55913,72,69,41
47.56394,47.674515,74,66,41
47.679325,47.7899,73,63,41
47.79471,47.87163,74,60,41
48.02548,48.1024,70,60,41
51.025475,51.13605,61,92,41
51.140858,51.251434,62,92,41
51.256245,51.36682,64,90,41
51.371628,51.482204,65,87,41
51.48701,51.597588,67,84,41
51.602398,51.712975,69,81,41
51.71778,51.828358,71,78,41
51.833164,51.94374,73,75,41
51.94855,52.059128,74,72,41
52.063934,52.17451,76,69,41
52.179317,52.289894,77,66,41
52.294704,52.40528,76,63,41
52.410088,52.48701,77,60,41
52.640858,52.71778,74,60,41
52.871628,52.982204,79,92,41
52.98701,53.097588,78,92,41
53.102394,53.21297,79,82,41
53.21778,53.328358,76,71,41
53.333164,53.410088,77,60,41
53.563934,53.640858,74,60,41
54.02547,54.25143,64,92,41
54.02547,54.25143,67,92,41
54.487007,54.71297,64,92,41
54.487007,54.71297,67,92,41
54.948547,55.174507,62,92,41
54.948547,55.174507,65,92,41
55.410084,55.636047,62,92,41
55.410084,55.636047,65,92,41
55.871624,56.097584,63,92,41
55.871624,56.097584,67,92,41
56.33316,56.559124,62,92,41
56.33316,56.559124,65,92,41
56.56393,56.679314,70,92,41
56.679314,56.7947,72,92,41
56.7947,56.87162,70,92,41
57.025467,57.410084,70,92,41
57.487007,57.60239,67,92,41
57.60239,57.717773,69,92,41
57.717773,57.794697,67,92,41
57.948544,58.33316,67,92,41
58.410084,58.487003,63,75,41
58.64085,58.717773,75,75,41
58.87162,58.948544,75,75,41
59.10239,59.179314,63,75,41
59.333157,59.448544,73,75,41
59.448544,59.563927,74,75,41
59.563927,59.64085,73,75,41
59.794697,60.17931,74,75,41
60.256233,60.37162,69,75,41
60.37162,60.487003,70,75,41
60.487003,60.563927,69,75,41
60.717773,61.102386,70,75,41
61.17931,61.294693,69,75,41
61.294693,61.41008,70,75,41
61.41008,61.487003,69,75,41
61.640846,61.74085,67,75,41
61.94085,62.120537,66,75,41
62.12835,62.31585,62,75,41
62.31585,62.657192,58,105,41
62.662003,62.777386,67,75,41
62.777386,63.118732,62,105,41
63.12354,63.238922,62,75,41
63.238922,63.315845,60,75,41
63.469692,63.546616,58,75,41
63.700462,63.777386,57,75,41
63.931232,64.008156,58,75,41
64.162,64.546616,57,105,41
64.623535,64.96488,62,105,41
64.96969,65.085075,62,75,41
65.085075,65.42642,58,105,41
65.43123,65.546616,67,75,41
65.546616,65.88796,62,105,41
65.89277,66.00815,62,75,41
66.00815,66.085075,60,75,41
66.23892,66.31584,58,75,41
66.46969,66.546616,57,75,41
66.70046,66.77738,58,75,41
66.93123,67.00815,70,75,41
67.161995,67.23892,61,75,41
67.39277,67.734116,62,105,41
67.73892,67.8543,62,75,41
67.8543,68.19565,58,105,41
68.200455,68.31584,67,75,41
68.31584,68.65719,62,105,41
68.661995,68.77738,62,75,41
68.77738,68.8543,60,75,41
69.00815,69.085075,58,75,41
69.238914,69.31584,57,75,41
69.46969,69.54661,58,75,41
69.700455,70.08507,57,105,41
70.161995,70.54661,62,105,41
70.623535,71.00815,67,105,41
70.623535,71.00815,71,105,41
71.08507,71.46969,62,105,41
71.08507,71.46969,71,105,41
71.54661,71.62353,68,75,41
71.777374,71.8543,67,75,41
72.00815,72.08507,65,75,41
72.238914,72.31584,67,75,41
72.46968,72.69565,62,92,41
72.46968,72.69565,72,92,41
72.93122,73.15718,62,92,41
72.93122,73.15718,70,92,41
97.34589,97.422806,62,60,41
97.46127,97.53819,62,60,41
97.57665,97.65358,62,60,41
97.69204,97.76896,62,60,41
97.80743,97.884346,62,60,41
97.922806,97.99973,62,60,41
98.03819,98.11511,62,60,41
98.15358,98.2305,62,60,41
98.26896,98.34589,62,60,41
98.384346,98.46127,62,60,41
98.49973,98.57665,62,60,41
98.61511,98.69204,62,60,41
98.7305,98.80743,62,60,41
98.84589,98.922806,62,60,41
98.961266,99.03819,62,60,41
99.07665,99.15358,62,60,41
99.19204,99.26896,62,60,41
99.30742,99.384346,62,60,41
99.422806,99.49973,62,60,41
99.53819,99.61511,62,60,41
99.65358,99.7305,62,60,41
99.76896,99.84589,62,60,41
99.884346,99.961266,62,60,41
99.99973,100.07665,62,60,41
100.11511,100.19204,62,60,41
100.2305,100.30742,62,60,41
100.34589,100.422806,62,60,41
100.461266,100.53819,62,60,41
100.57665,100.65357,62,60,41
100.69204,100.76896,62,60,41
100.80742,100.884346,64,60,41
100.922806,100.999725,64,60,41
101.03819,101.11511,64,60,41
101.15357,101.2305,64,60,41
101.26896,101.34588,64,60,41
101.384346,101.461266,64,60,41
101.499725,101.57665,64,60,41
101.61511,101.69203,64,60,41
101.7305,101.80742,64,60,41
101.84588,101.922806,64,60,41
101.961266,102.03819,64,60,41
102.07665,102.15357,64,60,41
102.19203,102.26896,64,60,41
102.30742,102.384346,64,60,41
102.422806,102.499725,64,60,41
102.538185,102.61511,64,60,41
102.65357,102.7305,64,60,41
102.76896,102.84588,64,60,41
102.88434,102.961266,64,60,41
102.999725,103.07665,64,60,41
103.11511,103.19203,64,60,41
103.2305,103.30742,64,60,41
103.34588,103.422806,64,60,41
103.461266,103.538185,64,60,41
103.57665,103.65357,64,60,41
103.69203,103.76896,64,60,41
103.80742,103.88434,64,60,41
103.922806,103.999725,64,60,41
104.038185,104.11511,64,60,41
104.15357,104.23049,64,60,41
104.26896,104.34588,64,60,41
104.38434,104.461266,64,60,41
104.499725,104.576645,66,60,41
104.61511,104.69203,66,60,41
104.73049,104.80742,66,60,41
104.84588,104.9228,66,60,41
104.961266,105.038185,66,60,41
105.076645,105.15357,66,60,41
105.19203,105.26895,66,60,41
105.30742,105.38434,66,60,41
105.4228,105.499725,66,60,41
105.538185,105.61511,66,60,41
105.65357,105.73049,66,60,41
105.76895,105.84588,66,60,41
105.88434,105.961266,66,60,41
105.999725,106.076645,66,60,41
106.115105,106.19203,64,60,41
106.23049,106.30742,64,60,41
106.34588,106.4228,64,60,41
106.46126,106.538185,64,60,41
106.576645,106.65357,69,60,41
106.69203,106.76895,57,59,41
106.80741,106.88434,69,58,41
106.9228,106.999725,57,57,41
107.038185,107.115105,69,56,41
107.15357,107.23049,57,55,41
107.26895,107.34588,69,54,41
107.38434,107.46126,57,53,41
107.499725,107.576645,69,52,41
107.615105,107.69203,57,51,41
107.73049,107.80741,69,49,41
107.84588,107.9228,57,47,41
107.96126,108.18722,69,45,41
119.64936,119.72628,62,60,41
119.76475,119.84167,62,60,41
119.88013,119.957054,62,60,41
119.995514,120.07244,62,60,41
120.1109,120.18782,62,60,41
120.22628,120.30321,62,60,41
120.34167,120.418594,62,60,41
120.457054,120.53397,62,60,41
120.57243,120.64936,62,60,41
120.68782,120.76475,62,60,41
120.80321,120.88013,62,60,41
120.91859,120.995514,62,60,41
121.03397,121.1109,62,60,41
121.14936,121.22628,62,60,41
121.26475,121.34167,62,60,41
121.38013,121.457054,62,60,41
121.495514,121.57243,62,60,41
121.6109,121.68782,62,60,41
121.72628,121.80321,62,60,41
121.84167,121.91859,62,60,41
121.957054,122.03397,62,60,41
122.07243,122.14936,62,60,41
122.18782,122.26474,62,60,41
122.30321,122.38013,62,60,41
122.41859,122.495514,62,60,41
122.53397,122.61089,62,60,41
122.64936,122.72628,62,60,41
122.76474,122.84167,62,60,41
122.88013,122.95705,62,60,41
122.995514,123.07243,62,60,41
123.11089,123.18782,64,60,41
123.22628,123.3032,64,60,41
123.34167,123.41859,64,60,41
123.45705,123.53397,64,60,41
123.57243,123.64936,64,60,41
123.68782,123.76474,64,60,41
123.8032,123.88013,64,60,41
123.91859,123.995514,64,60,41
124.03397,124.11089,64,60,41
124.14935,124.22628,64,60,41
124.26474,124.34167,64,60,41
124.38013,124.45705,64,60,41
124.49551,124.57243,64,60,41
124.61089,124.68782,64,60,41
124.72628,124.8032,64,60,41
124.84167,124.91859,64,60,41
124.95705,125.03397,64,60,41
125.07243,125.14935,64,60,41
125.18782,125.26474,64,60,41
125.3032,125.38013,64,60,41
125.41859,125.49551,64,60,41
125.53397,125.61089,64,60,41
125.64935,125.72628,64,60,41
125.76474,125.84166,64,60,41
125.88013,125.95705,64,60,41
125.99551,126.07243,64,60,41
126.11089,126.18781,64,60,41
126.22628,126.3032,64,60,41
126.34166,126.41859,64,60,41
126.45705,126.533966,64,60,41
126.57243,126.64935,64,60,41
126.68781,126.76474,64,60,41
126.8032,126.88012,66,60,41
126.91859,126.99551,66,60,41
127.033966,127.11089,66,60,41
127.14935,127.22628,66,60,41
127.26474,127.34166,66,60,41
127.38012,127.45705,66,60,41
127.49551,127.57243,66,60,41
127.61089,127.68781,66,60,41
127.72627,127.8032,66,60,41
127.84166,127.91859,66,60,41
127.95705,128.03397,66,60,41
128.07243,128.14935,66,60,41
128.18782,128.26474,66,60,41
128.30319,128.38013,66,60,41
128.41858,128.4955,64,60,41
128.53397,128.61089,64,60,41
128.64935,128.72627,64,60,41
128.76474,128.84166,64,60,41
128.88013,128.95705,69,60,41
128.9955,129.07243,57,59,41
129.11089,129.18782,69,58,41
129.22627,129.30319,57,57,41
129.34166,129.41858,69,56,41
129.45705,129.53397,57,55,41
129.57243,129.64935,69,54,41
129.6878,129.76474,57,53,41
129.80319,129.88013,69,52,41
129.91858,129.9955,57,51,41
130.03397,130.11089,69,49,41
130.14935,130.22627,57,47,41
130.26474,130.49069,69,45,41
141.80284,141.95284,62,75,41
141.95284,142.29417,58,105,41
142.299,142.41437,67,75,41
142.41437,142.75572,62,105,41
142.76053,142.87592,62,75,41
142.87592,142.95284,60,75,41
143.10667,143.18361,58,75,41
143.33745,143.41437,57,75,41
143.56822,143.64514,58,75,41
143.79898,144.18361,57,105,41
144.26053,144.60187,62,105,41
144.60667,144.72206,62,75,41
144.72206,145.06342,58,105,41
145.06822,145.18361,67,75,41
145.18361,145.52495,62,105,41
145.52975,145.64514,62,75,41
145.64514,145.72206,60,75,41
145.87592,145.95284,58,75,41
146.10667,146.1836,57,75,41
146.33745,146.41437,58,75,41
146.56822,146.64514,70,75,41
146.79898,146.87592,61,75,41
147.02975,147.3711,62,105,41
147.3759,147.49129,62,75,41
147.49129,147.83264,58,105,41
147.83745,147.95284,67,75,41
147.95284,148.29417,62,105,41
148.29898,148.41437,62,75,41
148.41437,148.49129,60,75,41
148.64514,148.72206,58,75,41
148.8759,148.95284,57,75,41
149.10667,149.1836,58,75,41
149.33745,149.72206,57,105,41
149.79898,150.14034,62,105,41
150.14514,150.26051,62,75,41
150.26051,150.60187,58,105,41
150.60667,150.72206,67,75,41
150.72206,151.0634,62,105,41
151.0682,151.1836,62,75,41
151.1836,151.26051,60,75,41
151.41437,151.49129,58,75,41
151.64514,151.72206,57,75,41
151.8759,151.95282,58,75,41
152.10667,152.1836,70,75,41
152.33745,152.41437,61,75,41
152.5682,152.95282,62,105,41
153.02975,153.41437,63,105,41
153.02975,153.41437,75,105,41
153.49129,153.60667,74,75,41
153.60667,153.72206,75,75,41
153.72206,153.79898,74,75,41
153.95282,154.33743,72,105,41
154.41437,154.79898,70,105,41
154.8759,154.99129,69,75,41
154.99129,155.10667,70,75,41
155.10667,155.1836,69,75,41
155.33743,155.41437,67,75,41
155.5682,155.64513,63,75,41
155.79898,156.1836,64,105,41
155.79898,156.1836,76,105,41
156.26051,156.3759,74,75,41
156.3759,156.49129,76,75,41
156.49129,156.5682,74,75,41
156.72205,157.10667,73,105,41
157.1836,157.5682,70,105,41
157.64513,157.72205,69,75,41
157.76051,157.83743,70,75,41
157.8759,157.95282,69,75,41
158.10666,158.1836,67,75,41
158.33743,158.41435,66,105,41
158.33743,158.41435,74,105,41
158.45282,158.5682,62,60,41
158.5682,158.90955,58,84,41
158.91435,159.02974,58,60,41
159.02974,159.83263,50,84,41
159.83743,159.95282,58,60,41
159.95282,160.64032,50,84,41
160.64513,160.72205,57,60,41
160.8759,160.95282,62,60,41
161.10666,161.18358,50,60,41
161.22205,161.33743,62,60,41
161.33743,161.67877,58,60,41
161.68358,161.79897,58,60,41
161.79897,162.64513,50,60,41
162.72205,163.40955,50,60,41
163.41435,163.49127,64,60,41
163.64513,163.72205,66,60,41
163.87589,163.98647,62,60,41
163.99127,164.10666,62,60,41
164.10666,164.44801,58,60,41
164.45282,164.56819,58,60,41
164.56819,165.37108,50,60,41
165.37589,165.49127,58,60,41
165.49127,165.87589,50,60,41
166.18358,166.2605,57,60,41
166.41435,166.49127,62,60,41
166.64513,166.72205,50,60,41
166.87589,167.2605,59,60,41
167.33743,168.18358,55,60,41
168.2605,169.10666,48,60,41
169.18358,169.56819,55,60,41
170.10666,170.22205,55,60,41
171.02972,171.14511,48,60,41
171.9528,172.06819,55,60,41
172.87589,172.99127,48,60,41
173.83742,173.96242,55,60,41
174.88287,175.01924,48,60,41
176.02834,176.17833,48,60,41
177.295,177.46165,48,60,41
178.71165,178.89915,50,45,41
179.73439,180.00711,69,92,41
179.73439,180.27415,62,92,41
180.00711,180.27415,71,92,41
180.27985,180.37074,67,92,41
180.27985,180.37074,71,92,41
180.55257,180.68324,67,92,41
180.55257,180.68324,72,92,41
180.68893,181.09235,67,92,41
180.68893,181.09235,72,92,41
181.09802,181.2287,67,92,41
181.09802,181.2287,71,92,41
181.23439,181.63779,67,92,41
181.23439,181.63779,71,92,41
181.64348,182.04689,66,92,41
181.64348,182.04689,69,92,41
182.05257,182.18324,67,92,41
182.18893,182.64348,67,92,41
183.00711,183.27983,69,92,41
183.00711,183.54689,62,92,41
183.27983,183.54689,71,92,41
183.55257,183.64348,67,92,41
183.55257,183.64348,71,92,41
183.82529,183.95598,62,92,41
183.82529,183.95598,71,92,41
183.96165,184.36507,62,92,41
183.96165,184.36507,71,92,41
184.37074,184.50143,62,92,41
184.37074,184.50143,69,92,41
184.50711,184.91052,62,92,41
184.50711,184.91052,69,92,41
184.9162,184.98438,73,92,41
184.98438,185.05257,74,88,41
185.05257,185.12074,73,84,41
185.12074,185.18893,74,80,41
185.18893,185.25711,73,76,41
185.25711,185.32529,74,72,41
185.32529,185.39348,71,68,41
185.39348,185.45598,73,64,41
185.46165,185.9162,74,60,41
186.27983,186.55257,69,92,41
186.27983,186.81961,62,92,41
186.55257,186.81961,71,92,41
186.82529,186.9162,67,92,41
186.82529,186.9162,71,92,41
187.09802,187.2287,67,92,41
187.09802,187.2287,72,92,41
187.23438,187.63779,67,92,41
187.23438,187.63779,72,92,41
187.64346,187.77415,67,92,41
187.64346,187.77415,71,92,41
187.77983,188.18324,67,92,41
187.77983,188.18324,71,92,41
188.18892,188.59233,66,92,41
188.18892,188.59233,69,92,41
188.598,188.7287,67,92,41
188.73438,189.18892,67,92,41
189.55257,189.82529,69,92,41
189.55257,190.09233,62,92,41
189.82529,190.09233,71,92,41
190.098,190.18892,67,92,41
190.098,190.18892,71,92,41
190.37074,190.50142,62,92,41
190.37074,190.50142,71,92,41
190.50711,190.9105,62,92,41
190.50711,190.9105,71,92,41
190.9162,191.04688,62,92,41
190.9162,191.04688,69,92,41
191.05255,191.45596,62,92,41
191.05255,191.45596,69,92,41
191.46165,191.52983,73,92,41
191.52983,191.598,74,88,41
191.598,191.6662,73,84,41
191.6662,191.73438,74,80,41
191.73438,191.80255,73,76,41
191.80255,191.87074,74,72,41
191.87074,191.93892,71,68,41
191.93892,192.00142,73,64,41
192.0071,192.46164,74,60,41
192.82529,193.09233,55,92,41
192.82529,193.09233,62,92,41
193.37074,193.63779,55,92,41
193.37074,193.63779,62,92,41
193.91618,194.18324,55,92,41
193.91618,194.18324,63,92,41
194.46164,194.72868,55,92,41
194.46164,194.72868,63,92,41
195.0071,195.27414,57,92,41
195.0071,195.27414,65,92,41
195.55255,195.8196,58,92,41
195.55255,195.8196,65,92,41
196.098,196.36505,55,92,41
196.098,196.36505,63,92,41
196.64346,196.9105,57,92,41
196.64346,196.9105,63,92,41
197.18892,197.45596,57,92,41
197.18892,197.45596,62,92,41
197.73438,198.00142,55,92,41
197.73438,198.00142,62,92,41
198.27982,198.54688,57,92,41
198.27982,198.54688,64,92,41
198.55255,198.68323,50,92,41
198.55255,198.8196,57,92,41
198.62073,198.8196,62,92,41
199.098,199.22868,50,92,41
199.098,199.22868,62,92,41
199.23438,199.36505,50,92,41
199.23438,199.36505,62,92,41
199.37073,199.91618,50,92,41
199.37073,199.91618,62,92,41
199.91618,200.18323,59,92,41
199.91618,200.18323,67,92,41
200.18892,200.3196,64,92,41
200.18892,200.3196,67,92,41
200.32527,200.72868,64,92,41
200.32527,200.72868,67,92,41
200.73436,200.86505,62,92,41
200.73436,200.86505,67,92,41
200.87073,201.27414,62,92,41
200.87073,201.27414,67,92,41
201.27982,201.68323,62,92,41
201.27982,201.68323,69,92,41
201.6889,201.8196,67,92,41
201.82527,202.27982,59,92,41
201.82527,202.27982,67,92,41
202.37073,202.5014,62,92,41
202.5071,202.63777,62,92,41
202.64345,203.1889,62,92,41
203.1889,203.2571,50,92,41
203.1889,203.2571,59,92,41
203.2571,203.3196,50,92,41
203.2571,203.45595,59,92,41
203.2571,203.45595,67,92,41
203.46164,203.59232,67,92,41
203.59799,203.72868,67,92,41
203.73436,204.27982,67,92,41
204.27982,204.41049,55,92,41
204.27982,204.54686,64,92,41
204.34799,204.54686,72,92,41
204.55255,204.62073,72,92,41
204.62073,204.6889,74,87,41
204.6889,204.7571,72,82,41
204.7571,204.82527,74,77,41
204.82527,204.89345,72,72,41
204.89345,204.96164,74,66,41
204.55255,205.0071,62,92,41
204.96164,205.02982,71,60,41
205.02982,205.09232,72,60,41
205.09799,205.55254,62,92,41
205.09799,205.55254,71,92,41
205.91618,206.18323,55,92,41
205.91618,206.18323,62,92,41
206.46164,206.72868,55,92,41
206.46164,206.72868,62,92,41
207.00708,207.27414,55,92,41
207.00708,207.27414,63,92,41
207.55254,207.81958,55,92,41
207.55254,207.81958,63,92,41
208.09799,208.36504,57,92,41
208.09799,208.36504,65,92,41
208.64345,208.91049,58,92,41
208.64345,208.91049,65,92,41
209.1889,209.45595,55,92,41
209.1889,209.45595,63,92,41
209.73436,210.0014,57,92,41
209.73436,210.0014,63,92,41
210.27982,210.54686,57,92,41
210.27982,210.54686,62,92,41
210.82527,211.09232,55,92,41
210.82527,211.09232,62,92,41
211.37071,211.63777,57,92,41
211.37071,211.63777,64,92,41
211.64345,211.77412,50,92,41
211.64345,211.91049,57,92,41
211.71162,211.91049,62,92,41
212.1889,212.31958,50,92,41
212.1889,212.31958,62,92,41
212.32526,212.45595,50,92,41
212.32526,212.45595,62,92,41
212.46162,213.00708,50,92,41
212.46162,213.00708,62,92,41
213.00708,213.27412,59,92,41
213.00708,213.27412,67,92,41
213.2798,213.41049,64,92,41
213.2798,213.41049,67,92,41
213.41617,213.81958,64,92,41
213.41617,213.81958,67,92,41
213.82526,213.95595,62,92,41
213.82526,213.95595,67,92,41
213.96162,214.36504,62,92,41
213.96162,214.36504,67,92,41
214.37071,214.77412,62,92,41
214.37071,214.77412,69,92,41
214.7798,214.91049,67,92,41
214.91617,215.37071,59,92,41
214.91617,215.37071,67,92,41
215.46162,215.5923,62,92,41
215.59799,215.72867,62,92,41
215.73434,216.2798,62,92,41
216.2798,216.34799,50,92,41
216.2798,216.34799,59,92,41
216.34799,216.41049,50,92,41
216.34799,216.54684,59,92,41
216.34799,216.54684,67,92,41
216.55254,216.68321,67,92,41
216.68889,216.81958,67,92,41
216.82526,217.37071,67,92,41
217.37071,217.50139,55,92,41
217.37071,217.63776,64,92,41
217.43889,217.63776,72,92,41
217.64343,217.71162,72,92,41
217.71162,217.7798,74,87,41
217.7798,217.84799,72,82,41
217.84799,217.91617,74,77,41
217.91617,217.98434,72,72,41
217.98434,218.05254,74,66,41
217.64343,218.09799,62,92,41
218.05254,218.12071,71,60,41
218.12071,218.18321,72,60,41
218.18889,218.64343,62,92,41
218.18889,218.64343,71,92,41
218.73434,219.23434,67,92,41
219.33435,219.53435,55,92,41
219.53435,219.73434,64,92,41
219.73434,219.9281,67,92,41
219.93434,220.7281,69,92,41
220.73434,220.87497,71,92,41
220.93434,221.0656,69,92,41
221.13435,221.63435,67,92,41
221.73434,221.87497,65,92,41
221.93434,222.07497,67,92,41
222.13435,222.2656,69,92,41
222.33435,222.93434,64,92,41
222.93434,223.43434,63,92,41
223.83435,224.13435,62,92,41
224.13435,224.27498,50,92,41
224.33435,224.47498,52,92,41
224.53435,224.6656,54,92,41
224.73434,225.52809,55,92,41
225.53435,225.7281,54,92,41
225.73434,225.9281,52,92,41
225.93434,226.43434,57,92,41
226.53435,227.03435,55,92,41
227.13435,227.63435,52,92,41
227.73434,228.23434,51,92,41
228.33435,228.52809,67,92,41
228.53435,228.73434,55,92,41
228.73434,228.93434,64,92,41
228.93434,229.1281,67,92,41
229.13435,229.33435,59,92,41
229.33435,229.53435,64,92,41
229.53435,229.7281,69,92,41
229.73434,229.93434,60,92,41
229.93434,230.13435,66,92,41
230.13435,230.27498,69,92,41
230.33435,230.47498,71,92,41
230.53435,230.6656,69,92,41
230.73434,230.9281,67,92,41
230.93434,231.13435,59,92,41
231.13435,231.33435,64,92,41
231.33435,231.47498,65,92,41
231.53435,231.67497,67,92,41
231.73434,231.8656,69,92,41
231.93434,232.13435,64,92,41
232.13435,232.33435,63,92,41
232.33435,232.4781,61,92,41
232.48434,232.53435,61,92,41
232.53435,233.03435,63,92,41
233.13435,233.3281,62,92,41
233.33435,233.53435,50,92,41
233.53435,233.73434,59,92,41
233.73434,233.87497,62,92,41
233.93434,234.07497,64,92,41
234.13435,234.2656,66,92,41
234.33435,234.52809,67,92,41
234.53435,234.73434,64,92,41
234.73434,234.93434,67,92,41
234.93434,235.07497,73,92,41
235.13435,235.27498,74,92,41
235.33435,235.46559,73,92,41
235.53435,235.73434,74,92,41
235.73434,235.93434,69,92,41
235.93434,236.1281,66,92,41
236.13435,236.33435,72,92,41
236.33435,236.53435,67,92,41
236.53435,236.7281,64,92,41
236.73434,236.80934,64,92,41
236.80934,236.88435,66,92,41
236.88435,237.18434,64,92,41
237.18434,237.3281,63,92,41
237.33435,237.83435,63,92,41
239.13435,239.93434,60,63,41
241.53435,242.33435,62,63,41
243.93434,244.73434,64,63,41
245.13435,245.93434,64,63,41
246.33435,247.13435,63,63,41
247.53435,248.33435,59,45,41
249.03435,249.33435,64,60,41
249.33435,249.46559,64,60,41
249.53435,249.6656,66,60,41
249.73434,249.8656,67,76,41
249.93434,250.7281,69,92,41
250.73434,250.87497,71,92,41
250.93434,251.0656,69,92,41
251.13435,251.63435,67,92,41
251.73434,251.87497,65,92,41
251.93434,252.07497,67,92,41
252.13435,252.2656,69,92,41
252.33435,252.93434,64,92,41
252.93434,253.43434,63,92,41
253.83435,254.13435,62,92,41
254.13435,254.27498,50,92,41
254.33435,254.47498,52,92,41
254.53435,254.6656,54,92,41
254.73434,254.9281,55,92,41
254.93434,255.13435,61,92,41
255.13435,255.33435,67,92,41
255.33435,255.52809,73,92,41
255.53435,255.67497,74,92,41
255.73434,255.8656,73,92,41
255.93434,256.43436,74,92,41
256.53436,257.03436,72,92,41
257.13434,257.20935,70,92,41
257.20935,257.28436,71,92,41
257.28436,257.58435,70,92,41
257.58435,257.7281,71,92,41
257.73434,258.23434,71,92,41
259.53436,260.33435,60,63,41
261.93436,262.73434,62,63,41
264.33435,265.13434,64,63,41
265.53436,266.33435,64,63,41
266.73434,267.53436,63,63,41
267.93436,268.73434,59,45,41
269.43436,269.73434,64,60,41
269.73434,269.8656,64,60,41
269.93436,270.0656,66,60,41
270.13434,270.2656,67,76,41
270.33435,271.1281,69,92,41
271.13434,271.27496,71,92,41
271.33435,271.4656,69,92,41
271.53436,272.03436,67,92,41
272.13434,272.27496,65,92,41
272.33435,272.47498,67,92,41
272.53436,272.6656,69,92,41
272.73434,273.33435,64,92,41
273.33435,273.83435,63,92,41
274.23434,274.53436,62,92,41
274.53436,274.6656,50,92,41
274.73434,274.8656,52,92,41
274.93436,275.0656,54,92,41
275.13434,275.3281,55,92,41
275.33435,275.53436,61,92,41
275.53436,275.73434,67,92,41
275.73434,275.9281,73,92,41
275.93436,276.07498,74,92,41
276.13434,276.2656,73,92,41
276.33435,276.83435,74,92,41
276.93436,277.43436,72,82,41
277.53436,277.6125,70,71,41
277.6125,277.6906,71,70,41
277.6906,278.0031,70,69,41
278.0031,278.15283,71,63,41
278.15936,278.718,71,60,41
300.9881,301.09866,62,84,41
301.1035,301.21405,64,60,41
301.21887,301.32944,62,60,41
301.33426,301.44482,60,60,41
301.44965,301.5602,59,60,41
301.56503,301.6756,60,60,41
301.6804,301.791,59,60,41
301.79578,301.90637,60,60,41
301.91116,302.02176,62,84,41
302.02655,302.13715,64,60,41
302.14194,302.2525,62,60,41
302.25732,302.3679,60,60,41
302.3727,302.48328,59,60,41
302.4881,302.59866,60,60,41
302.6035,302.71405,59,60,41
302.71887,302.82944,60,60,41
302.83426,302.94482,62,84,41
302.94965,303.0602,64,60,41
303.065,303.1756,62,60,41
303.1804,303.291,60,60,41
303.29578,303.40637,59,60,41
303.41116,303.52176,60,60,41
303.52655,303.63715,59,60,41
303.64194,303.7525,57,60,41
303.75732,303.8679,55,60,41
303.8727,303.98328,57,60,41
303.9881,304.09866,55,60,41
304.1035,304.21405,53,60,41
304.21887,304.32944,52,60,41
304.33426,304.44482,53,60,41
304.44962,304.5602,52,60,41
304.565,304.6756,50,60,41
304.6804,304.791,48,60,41
304.79578,304.90637,62,61,41
304.91116,305.02176,60,61,41
305.02655,305.13712,59,62,41
305.14194,305.2525,57,63,41
305.25732,305.3679,59,64,41
305.3727,305.48328,57,65,41
305.4881,305.59866,55,66,41
305.6035,305.71405,54,67,41
305.71887,305.82944,57,68,41
305.83426,305.94482,55,69,41
305.94962,306.0602,54,70,41
306.065,306.1756,52,71,41
306.1804,306.291,55,72,41
306.29578,306.40637,54,73,41
306.41116,306.52176,52,74,41
306.52655,306.77133,50,75,41
307.02655,307.27133,62,79,41
307.02655,307.27133,66,79,41
307.52655,307.7936,62,83,41
307.52655,307.7936,69,83,41
308.747,308.89075,55,92,41
308.747,309.04074,62,92,41
308.822,309.04074,71,92,41
309.047,309.34702,69,92,41
309.047,309.64075,62,92,41
309.34702,309.64075,71,92,41
309.647,309.747,67,92,41
309.647,309.747,71,92,41
309.947,310.09076,67,92,41
309.947,310.09076,72,92,41
310.09702,310.54074,67,92,41
310.09702,310.54074,72,92,41
310.547,310.69077,67,92,41
310.547,310.69077,71,92,41
310.697,311.14075,67,92,41
310.697,311.14075,71,92,41
311.147,311.22202,69,92,41
311.22202,311.297,71,88,41
311.147,311.59076,66,92,41
311.297,311.59702,69,84,41
311.59702,311.74075,67,68,41
311.747,312.247,67,60,41
312.647,312.947,69,92,41
312.647,313.24075,62,92,41
312.947,313.24075,71,92,41
313.247,313.34702,67,92,41
313.247,313.34702,71,92,41
313.547,313.69077,62,92,41
313.547,313.69077,71,92,41
313.697,314.14075,62,92,41
313.697,314.14075,71,92,41
314.147,314.29074,62,92,41
314.147,314.29074,69,92,41
314.297,314.74075,62,92,41
314.297,314.74075,69,92,41
314.747,314.822,73,92,41
314.822,314.897,74,88,41
314.897,314.97202,73,84,41
314.97202,315.047,74,80,41
315.047,315.122,73,76,41
315.122,315.197,74,72,41
315.197,315.272,71,68,41
315.272,315.34076,73,64,41
315.34702,315.84702,74,60,41
315.947,316.447,62,105,41
316.547,317.047,67,105,41
317.147,317.22202,72,92,41
317.22202,317.297,74,92,41
317.297,317.372,72,86,41
317.372,317.447,74,80,41
317.447,317.522,72,74,41
317.522,317.59702,74,67,41
317.59702,317.672,71,60,41
317.672,317.74075,72,60,41
317.747,318.19077,75,105,41
318.272,318.34702,74,75,41
318.34702,318.47824,72,75,41
318.547,318.67825,70,75,41
318.747,318.87827,72,75,41
318.947,319.447,74,105,41
319.547,320.047,70,105,41
320.147,320.59076,72,105,41
320.672,320.747,70,75,41
320.747,320.87827,69,75,41
320.947,321.07825,67,75,41
321.147,321.27826,69,75,41
321.34702,321.47824,70,75,41
321.547,321.67825,67,75,41
321.747,321.87827,70,75,41
321.947,322.022,67,75,41
322.022,322.09702,69,75,41
322.09702,322.397,67,75,41
322.397,322.54074,66,75,41
322.547,323.047,66,75,41
323.447,323.59076,62,92,41
323.447,323.59076,69,92,41
323.59702,323.74075,62,92,41
323.59702,323.74075,69,92,41
323.747,323.84702,62,92,41
323.747,323.84702,71,92,41
324.047,324.147,67,92,41
324.047,324.147,71,92,41
324.34702,324.49075,67,92,41
324.34702,324.49075,72,92,41
324.497,324.94077,67,92,41
324.497,324.94077,72,92,41
324.947,325.09076,67,92,41
324.947,325.09076,71,92,41
325.09702,325.54074,67,92,41
325.09702,325.54074,71,92,41
325.547,325.69077,66,92,41
325.547,325.69077,69,92,41
325.697,326.14075,66,92,41
325.697,326.14075,69,92,41
326.147,326.647,67,92,41
327.047,327.19077,62,92,41
327.047,327.19077,69,92,41
327.197,327.34076,62,92,41
327.197,327.34076,69,92,41
327.34702,327.447,62,92,41
327.34702,327.447,71,92,41
327.647,327.747,67,92,41
327.647,327.747,71,92,41
328.247,328.39075,67,92,41
328.247,328.39075,74,92,41
328.397,328.54074,67,92,41
328.397,328.54074,74,92,41
328.547,328.647,67,92,41
328.547,328.647,76,92,41
328.84702,328.947,67,92,41
328.84702,328.947,76,92,41
329.147,329.22202,81,92,41
329.22202,329.297,83,88,41
329.297,329.372,81,84,41
329.372,329.447,83,80,41
329.447,329.522,81,76,41
329.522,329.59702,83,72,41
329.59702,329.672,79,68,41
329.672,329.74075,81,64,41
329.747,330.04074,79,60,41
330.34702,330.4047,54,92,41
330.4047,330.4624,55,92,41
330.4624,330.52008,54,88,41
330.52008,330.5778,55,84,41
330.5778,330.63547,54,80,41
330.63547,330.69315,55,75,41
330.69315,330.75085,52,70,41
330.75085,330.80374,54,65,41
330.80853,331.19315,55,60,41
331.27008,331.38065,54,92,41
331.38547,331.49603,55,92,41
331.50085,331.61142,57,92,41
331.61624,331.7268,58,92,41
331.73163,331.8422,60,92,41
331.84702,331.95758,62,92,41
331.9624,332.07297,64,92,41
332.07776,332.18835,66,92,41
332.19315,332.30374,67,92,41
332.30853,332.41913,69,92,41
332.42392,332.53452,70,92,41
332.5393,332.6499,69,92,41
332.6547,332.73163,70,92,41
332.88547,332.9624,67,92,41
333.11624,333.17392,57,92,41
333.17392,333.23163,58,88,41
333.23163,333.2893,57,84,41
333.2893,333.34702,58,80,41
333.34702,333.4047,57,76,41
333.4047,333.46237,58,72,41
333.46237,333.52008,55,68,41
333.52008,333.57297,57,64,41
333.57776,333.96237,58,60,41
334.0393,334.14987,57,92,41
334.1547,334.26526,58,92,41
334.27008,334.38065,60,92,41
334.38547,334.49603,62,92,41
334.50085,334.61142,63,92,41
334.61624,334.7268,65,92,41
334.73163,334.8422,67,92,41
334.84702,334.95758,69,92,41
334.96237,335.07297,70,92,41
335.07776,335.18835,72,92,41
335.19315,335.30374,74,92,41
335.30853,335.41913,73,92,41
335.42392,335.50085,74,92,41
335.6547,335.73163,70,92,41
335.88547,335.94315,61,92,41
335.94315,336.00085,62,88,41
336.00085,336.05853,61,84,41
336.05853,336.11624,62,80,41
336.11624,336.17392,61,76,41
336.17392,336.23163,62,72,41
336.23163,336.2893,59,68,41
336.2893,336.3422,61,64,41
336.347,336.73163,62,60,41
336.80853,336.86624,61,92,41
336.86624,336.92392,62,92,41
336.92392,336.98163,61,86,41
336.98163,337.0393,62,80,41
337.0393,337.097,61,74,41
337.097,337.1547,62,67,41
337.1547,337.21237,59,60,41
337.21237,337.26526,61,60,41
337.27008,337.6547,62,105,41
337.73163,337.7893,61,92,41
337.7893,337.847,62,92,41
337.847,337.9047,61,86,41
337.9047,337.96237,62,80,41
337.96237,338.02008,61,74,41
338.02008,338.07776,62,67,41
338.07776,338.13547,59,60,41
338.13547,338.18835,61,60,41
338.19315,338.57776,62,105,41
338.6547,338.88065,61,75,41
338.6547,338.88065,68,75,41
338.88547,339.11142,61,75,41
338.88547,339.11142,68,75,41
339.347,339.57297,61,105,41
339.347,339.57297,68,105,41
339.80853,340.0345,61,75,41
339.80853,340.0345,69,75,41
340.27008,340.49603,62,75,41
340.27008,340.49603,69,75,41
340.7316,340.95758,55,75,41
340.7316,340.95758,67,75,41
341.19315,341.4191,62,75,41
341.19315,341.4191,69,75,41
341.42392,341.64987,62,75,41
341.42392,341.64987,66,75,41
341.6547,341.88065,62,75,41
341.6547,341.88065,66,75,41
342.1162,342.3422,62,75,41
342.1162,342.3422,66,75,41
342.57776,342.8037,62,75,41
342.57776,342.8037,67,75,41
343.0393,343.26526,63,75,41
343.0393,343.26526,67,75,41
343.50082,343.7268,63,75,41
343.50082,343.7268,68,75,41
343.96237,344.18832,63,75,41
343.96237,344.18832,67,75,41
345.1162,345.2268,54,92,41
345.2316,345.3422,55,92,41
345.347,345.45758,57,92,41
345.46237,345.57294,58,92,41
345.57776,345.68832,60,92,41
345.69315,345.8037,62,92,41
345.80853,345.9191,64,92,41
345.92392,346.0345,66,92,41
346.0393,346.14987,67,92,41
346.1547,346.26526,69,92,41
346.27008,346.38065,70,92,41
346.38544,346.49603,69,92,41
346.50082,346.57776,70,92,41
346.7316,346.80853,67,92,41
347.88544,347.99603,57,92,41
348.00082,348.11142,58,92,41
348.1162,348.2268,60,92,41
348.2316,348.3422,62,92,41
348.347,348.45755,63,92,41
348.46237,348.57294,65,92,41
348.57776,348.68832,67,92,41
348.69315,348.8037,69,92,41
348.80853,348.9191,70,92,41
348.92392,349.0345,72,92,41
349.0393,349.14987,74,92,41
349.1547,349.26526,73,92,41
349.27005,349.347,74,92,41
349.50082,349.57776,70,92,41
352.50082,352.61142,61,92,41
352.6162,352.72678,62,92,41
352.7316,352.84216,64,92,41
352.847,352.95755,65,92,41
352.96237,353.07294,67,92,41
353.07776,353.18832,69,92,41
353.19315,353.3037,71,92,41
353.30853,353.4191,73,92,41
353.42392,353.5345,74,92,41
353.53928,353.64987,76,92,41
353.65466,353.76526,77,92,41
353.77005,353.88065,76,92,41
353.88544,353.96237,77,92,41
354.1162,354.19315,74,92,41
354.347,354.45755,79,92,41
354.46237,354.57294,78,92,41
354.57776,354.68832,79,92,41
354.69315,354.8037,76,92,41
354.80853,354.88544,77,92,41
355.03928,355.1162,74,92,41
355.50082,355.72678,64,92,41
355.50082,355.72678,67,92,41
355.96237,356.18832,64,92,41
355.96237,356.18832,67,92,41
356.4239,356.64987,62,92,41
356.4239,356.64987,65,92,41
356.88544,357.1114,62,92,41
356.88544,357.1114,65,92,41
357.347,357.57294,63,92,41
357.347,357.57294,67,92,41
357.8085,358.0345,62,92,41
357.8085,358.0345,65,92,41
358.03928,358.15466,70,105,41
358.15466,358.27005,72,75,41
358.27005,358.347,70,75,41
358.50082,358.88544,70,75,41
358.96237,359.07776,67,105,41
359.07776,359.19315,69,75,41
359.19315,359.27005,67,75,41
359.4239,359.8085,67,75,41
359.88544,359.96237,63,75,41
360.1162,360.1931,75,75,41
360.347,360.4239,75,75,41
360.57776,360.65466,63,75,41
360.8085,360.9239,73,105,41
360.9239,361.03928,74,75,41
361.03928,361.1162,73,75,41
361.27005,361.65466,74,75,41
361.7316,361.847,69,105,41
361.847,361.96237,70,75,41
361.96237,362.03928,69,75,41
362.1931,362.57773,70,75,41
362.65466,362.77005,69,105,41
362.77005,362.88544,70,75,41
362.88544,362.96237,69,75,41
363.1162,363.2316,67,105,41
363.2316,363.347,69,75,41
363.347,363.4239,67,75,41
363.57773,363.8037,66,75,41
364.50082,365.83414,66,92,41
364.50082,365.83414,72,92,41
379.71747,380.01123,67,92,41
380.0175,380.21747,60,92,41
380.21747,380.41748,63,92,41
380.41748,380.61124,67,92,41
380.6175,381.41122,68,92,41
381.41748,381.61124,70,92,41
381.6175,381.81122,68,92,41
381.81747,382.61124,67,92,41
382.6175,382.81122,69,92,41
382.81747,383.01123,67,92,41
383.0175,383.5175,66,75,41
383.81747,384.0175,60,60,41
384.0175,384.21747,66,60,41
384.21747,384.51123,69,60,41
385.0175,385.21747,60,45,41
385.21747,385.41748,66,45,41
385.41748,385.71124,69,45,41
386.21747,386.41748,60,92,41
386.41748,386.6175,66,92,41
386.6175,386.81122,69,92,41
386.81747,387.01123,71,92,41
387.0175,387.21124,69,92,41
387.21747,387.71747,67,92,41
387.81747,388.01123,65,92,41
388.0175,388.21124,67,92,41
388.21747,388.41122,69,92,41
388.41748,389.0175,64,75,41
389.0175,389.5175,64,60,41
389.6175,389.97464,63,60,41
402.17462,402.38892,68,92,41
402.38892,402.59872,69,92,41
402.60318,402.67462,65,92,41
402.81747,403.17462,66,105,41
403.24603,403.60318,64,105,41
403.67462,404.03177,62,105,41
404.10318,404.46033,61,105,41
404.53177,404.88892,59,105,41
404.96033,405.31747,57,105,41
405.60318,405.81747,68,92,41
405.81747,406.02728,69,92,41
406.03177,406.10318,65,92,41
406.24603,406.60318,66,92,41
406.67462,407.03177,64,92,41
407.31747,407.53177,71,92,41
407.53177,407.74158,73,92,41
407.74603,407.81747,61,92,41
407.96033,408.31747,62,92,41
408.3889,408.74603,61,92,41
409.03177,409.24603,71,92,41
409.24603,409.45587,73,92,41
409.46033,409.53174,61,92,41
409.67462,410.03174,62,92,41
410.10318,410.313,61,92,41
410.31747,410.53174,73,92,41
410.53174,410.74158,74,92,41
410.74603,410.96033,69,92,41
410.96033,411.17014,70,92,41
411.17462,411.3889,64,92,41
411.3889,411.60318,65,92,41
411.60318,411.81747,60,92,41
411.81747,412.02728,62,92,41
412.46033,412.67462,74,92,41
412.67462,412.88443,75,92,41
412.8889,413.10318,71,92,41
413.10318,413.313,72,92,41
413.31747,413.53174,66,92,41
413.53174,413.74603,67,92,41
413.74603,413.96033,62,92,41
413.96033,414.17014,63,92,41
415.03174,415.24603,67,92,41
415.24603,415.31747,68,92,41
415.46033,415.53174,56,92,41
415.8889,416.10318,67,92,41
416.10318,416.1746,68,92,41
416.31747,416.3889,56,92,41
416.74603,416.96033,67,92,41
416.96033,417.03174,68,92,41
417.1746,417.24603,56,92,41
417.60318,417.81747,68,92,41
417.81747,417.8889,69,92,41
418.03174,418.10318,57,92,41
418.46033,418.6746,68,92,41
418.6746,418.74603,69,92,41
418.8889,418.96033,57,92,41
419.31744,419.53174,69,92,41
419.53174,419.60318,70,92,41
419.74603,419.81744,58,92,41
420.1746,420.3889,57,60,41
420.3889,420.5987,58,60,41
420.60318,420.6746,58,60,41
421.03174,421.24603,57,60,41
421.24603,421.45584,58,60,41
421.46033,421.53174,58,60,41
421.8889,422.10318,56,60,41
422.10318,422.313,59,66,41
422.31744,422.53174,59,72,41
422.53174,422.74155,62,78,41
422.74603,422.9603,62,85,41
422.9603,423.31744,63,92,41
423.60318,423.81744,64,60,41
423.81744,424.02728,66,60,41
424.03174,424.10318,66,60,41
424.4603,424.6746,64,60,41
424.6746,424.88443,66,60,41
424.8889,424.9603,66,60,41
425.31744,425.53174,63,60,41
425.53174,425.74155,66,60,41
425.74603,425.9603,66,60,41
425.9603,426.17014,69,60,41
426.1746,426.3889,69,60,41
426.3889,426.74603,70,60,41
427.03174,427.24603,71,60,41
427.24603,427.45584,73,60,41
427.4603,427.53174,73,60,41
427.8889,428.10315,71,60,41
428.10315,428.313,73,60,41
428.31744,428.3889,73,60,41
428.74603,428.9603,61,60,41
428.9603,429.17014,64,60,41
429.1746,429.3889,64,60,41
429.3889,429.5987,67,60,41
429.60315,429.81744,67,60,41
429.81744,430.1746,70,60,41
430.4603,430.6746,63,61,41
430.6746,430.8844,66,61,41
430.8889,431.10315,66,61,41
431.10315,431.313,69,61,41
431.31744,431.53174,69,61,41
431.53174,431.8889,72,61,41
432.1746,432.3889,65,62,41
432.3889,432.5987,68,62,41
432.60315,432.81744,68,62,41
432.81744,433.02725,71,62,41
433.03174,433.246,71,62,41
433.246,433.45584,74,62,41
433.4603,433.6746,74,62,41
433.6746,434.03174,76,62,41
434.10315,434.4603,75,63,41
434.53174,434.8889,74,64,41
434.9603,435.31744,72,66,41
435.3889,436.13885,67,68,41
435.3889,436.13885,70,68,41
436.246,436.996,67,72,41
437.10315,437.4603,66,76,41
440.5317,440.88885,50,92,41
440.9603,441.31744,54,92,41
441.38885,441.746,57,75,41
441.81744,442.1746,60,75,41
442.246,442.31744,72,60,41
442.31744,442.38885,74,60,41
442.38885,442.4603,72,61,41
442.4603,442.5317,74,62,41
442.5317,442.60315,72,63,41
442.60315,442.6746,74,64,41
442.6746,442.746,72,65,41
442.746,442.81744,74,66,41
442.81744,442.88885,72,67,41
442.88885,442.9603,74,68,41
442.9603,443.0317,72,69,41
443.0317,443.10315,74,70,41
443.10315,443.1746,72,71,41
443.1746,443.246,74,72,41
443.246,443.31744,72,73,41
443.31744,443.38885,74,74,41
443.38885,443.4603,72,76,41
443.4603,443.5317,74,78,41
443.5317,443.60315,72,80,41
443.60315,443.6746,74,82,41
443.6746,443.746,72,84,41
443.746,443.81744,74,86,41
443.81744,443.88885,70,88,41
443.88885,443.95584,72,90,41
443.9603,444.15613,55,92,41
443.9603,444.25613,62,92,41
444.0603,444.25613,70,92,41
444.26028,444.3603,67,92,41
444.3603,444.65613,62,92,41
444.66028,444.76028,62,92,41
444.76028,444.82697,60,92,41
444.9603,445.02695,58,92,41
445.16028,445.22696,57,92,41
445.3603,445.42697,58,92,41
445.5603,445.89362,57,92,41
445.9603,446.25613,62,92,41
446.26028,446.3603,62,92,41
446.3603,446.65613,58,92,41
446.66028,446.76028,67,92,41
446.76028,447.05612,62,92,41
447.0603,447.16028,62,92,41
447.16028,447.22696,60,92,41
447.3603,447.42697,58,92,41
447.5603,447.62695,57,92,41
447.76028,447.82697,58,92,41
447.9603,448.15613,70,92,41
448.16028,448.3561,61,92,41
448.3603,448.65613,62,92,41
448.66028,448.76028,62,92,41
448.76028,449.05612,58,92,41
449.0603,449.16028,67,92,41
449.16028,449.45612,62,92,41
449.4603,449.5603,62,92,41
449.5603,449.62695,60,92,41
449.76028,449.82697,58,92,41
449.9603,450.02695,57,92,41
450.16028,450.22696,58,92,41
450.3603,450.69363,57,92,41
450.76028,451.05612,62,92,41
451.0603,451.16028,62,92,41
451.16028,451.45612,58,92,41
451.4603,451.5603,67,92,41
451.5603,451.8561,62,92,41
451.8603,451.9603,62,92,41
451.9603,452.02695,60,92,41
452.16028,452.22696,58,92,41
452.3603,452.42697,57,92,41
452.5603,452.62695,58,92,41
452.76028,452.95612,70,92,41
452.9603,453.15613,61,92,41
453.16028,453.49362,62,92,41
453.5603,453.89362,75,92,41
453.9603,454.0603,74,92,41
454.0603,454.16028,75,88,41
454.16028,454.22696,74,84,41
454.3603,454.69363,72,105,41
454.76028,455.09363,70,105,41
455.16028,455.26028,69,75,41
455.26028,455.3603,70,75,41
455.3603,455.42697,69,75,41
455.5603,455.62695,67,75,41
455.76028,455.82697,63,75,41
455.9603,456.2936,68,105,41
456.3603,456.4603,67,75,41
456.4603,456.5603,68,75,41
456.5603,456.62695,67,75,41
456.76028,457.09363,65,105,41
457.16028,457.49362,70,105,41
457.5603,457.66028,68,75,41
457.66028,457.76028,70,75,41
457.76028,457.82697,68,75,41
457.9603,458.2936,67,75,41
458.3603,458.55612,76,92,41
458.3603,458.55612,79,92,41
458.5603,458.75613,76,92,41
458.5603,458.75613,79,92,41
458.76028,458.95612,74,92,41
458.76028,458.95612,77,92,41
458.9603,459.15613,74,92,41
458.9603,459.15613,77,92,41
459.16028,459.3561,73,92,41
459.16028,459.3561,76,92,41
459.3603,459.55612,73,90,41
459.3603,459.55612,76,90,41
459.5603,459.75613,70,88,41
459.5603,459.75613,74,88,41
459.76028,459.95612,70,86,41
459.76028,459.95612,74,86,41
459.9603,460.15613,69,84,41
459.9603,460.15613,73,84,41
460.16028,460.3561,69,82,41
460.16028,460.3561,73,82,41
460.3603,460.55612,67,80,41
460.3603,460.55612,70,80,41
460.5603,460.75613,67,78,41
460.5603,460.75613,70,78,41
460.76028,460.95612,65,105,41
460.76028,460.95612,69,105,41
460.9603,461.15613,65,75,41
460.9603,461.15613,69,75,41
461.16028,461.3561,64,105,41
461.16028,461.3561,67,105,41
461.3603,461.55612,64,75,41
461.3603,461.55612,67,75,41
461.5603,461.75613,65,105,41
461.5603,461.75613,69,105,41
461.76028,461.95612,65,75,41
461.76028,461.95612,69,75,41
461.9603,462.15613,67,105,41
461.9603,462.15613,70,105,41
462.16028,462.3561,67,75,41
462.16028,462.3561,70,75,41
462.3603,462.55612,65,105,41
462.3603,462.55612,69,105,41
462.5603,462.75613,65,75,41
462.5603,462.75613,69,75,41
462.76028,462.95612,64,105,41
462.76028,462.95612,67,105,41
462.9603,463.15613,64,75,41
462.9603,463.15613,67,75,41
463.16028,463.3561,65,105,41
463.16028,463.3561,69,105,41
463.3603,463.55612,65,75,41
463.3603,463.55612,69,75,41
463.5603,463.75613,67,105,41
463.5603,463.75613,70,105,41
463.76028,463.95612,67,75,41
463.76028,463.95612,70,75,41
463.9603,464.15613,65,105,41
463.9603,464.15613,69,105,41
464.16028,464.3561,65,75,41
464.16028,464.3561,69,75,41
464.3603,464.55612,64,105,41
464.3603,464.55612,67,105,41
464.5603,464.75613,64,75,41
464.5603,464.75613,67,75,41
464.76028,464.95612,62,105,41
464.76028,464.95612,66,105,41
464.9603,465.15613,62,75,41
464.9603,465.15613,66,75,41
465.16028,465.3561,62,105,41
465.16028,465.3561,72,105,41
465.3603,465.55612,62,75,41
465.3603,465.55612,72,75,41
465.5603,465.75613,62,75,41
465.5603,465.75613,70,75,41
465.9603,466.2936,58,105,41
466.3603,466.55356,57,92,41
466.55765,466.75092,55,92,41
466.75504,466.94827,54,92,41
466.9524,467.14566,55,92,41
467.14975,467.34302,63,92,41
467.34714,467.54037,61,92,41
467.5445,467.73776,62,92,41
467.74185,467.93512,69,92,41
467.93924,468.12997,66,92,41
468.13403,468.3248,67,92,41
468.32886,468.5196,75,92,41
468.52365,468.7144,73,92,41
468.71844,468.9092,74,92,41
468.91327,469.104,69,92,41
469.10806,469.2988,66,92,41
469.30286,469.49362,67,92,41
469.49768,469.68597,72,92,41
469.68997,469.8783,69,92,41
469.8823,470.0706,70,92,41
470.0746,470.2629,75,92,41
470.2669,470.4552,73,92,41
470.4592,470.64752,74,92,41
470.65152,470.8398,79,92,41
470.84384,471.03214,74,92,41
471.03613,471.22205,79,92,41
471.226,471.41193,74,92,41
471.4159,471.6018,79,92,41
471.60574,471.79166,74,92,41
471.79562,471.98154,79,92,41
472.36523,472.55118,62,92,41
472.36523,472.55118,74,92,41
472.5551,472.7387,62,92,41
472.5551,472.7387,70,92,41
473.1176,473.3012,62,92,41
473.1176,473.3012,74,92,41
473.3051,473.4887,62,92,41
473.3051,473.4887,70,92,41
473.8676,474.0512,62,92,41
473.8676,474.0512,74,92,41
474.0551,474.2387,62,92,41
474.0551,474.2387,70,92,41
474.6176,474.82745,62,92,41
474.6176,474.82745,74,92,41
474.8319,476.68906,62,92,41
474.8319,476.68906,70,92,41
476.68906,476.9828,55,92,41
74.89276,75.11872,70,60,45
75.12353,75.34949,65,60,45
75.3543,75.58026,62,60,45
75.58507,75.81103,65,60,45
75.815834,76.041794,70,60,45
76.04661,76.27257,65,60,45
76.277374,76.503334,62,60,45
76.50814,76.73411,65,60,45
76.738914,76.964874,70,60,45
76.96968,77.19564,70,60,45
77.20045,77.426414,65,60,45
77.43122,77.65718,65,60,45
77.66199,77.88795,65,60,45
77.89275,78.11872,65,60,45
78.12353,78.34949,64,60,45
78.354294,78.58025,64,60,45
78.58507,78.81103,65,60,45
78.815834,79.041794,65,60,45
79.0466,79.27256,66,60,45
79.277374,79.503334,66,60,45
79.50814,79.7341,67,60,45
79.73891,79.96487,67,60,45
79.96968,80.19564,66,60,45
80.20045,80.42641,66,60,45
80.43121,80.65718,67,60,45
80.66199,80.88795,67,60,45
80.89275,81.11871,63,60,45
81.12352,81.34949,63,60,45
81.354294,81.58025,70,60,45
81.58506,81.81102,70,60,45
81.81583,82.041794,69,60,45
82.0466,82.27256,69,60,45
82.27737,82.50333,67,60,45
82.50814,82.7341,55,60,45
82.50814,82.7341,67,60,45
82.73891,83.12352,55,84,45
82.73891,83.12352,66,84,45
83.20045,83.42641,67,60,45
83.43121,83.65717,55,60,45
83.43121,83.65717,67,60,45
83.66198,84.0466,55,84,45
83.66198,84.0466,66,84,45
84.12352,84.34948,67,60,45
84.35429,84.58025,55,60,45
84.35429,84.58025,67,60,45
84.58506,84.96967,55,84,45
84.58506,84.96967,66,84,45
85.04659,85.463264,55,60,45
85.04659,85.463264,67,60,45
86.11932,86.34528,70,60,45
86.35009,86.57605,65,60,45
86.580864,86.80682,62,60,45
86.81163,87.03759,65,60,45
87.0424,87.268364,70,60,45
87.27317,87.49913,65,60,45
87.50394,87.7299,62,60,45
87.7347,87.96067,65,60,45
87.96548,88.19144,70,60,45
88.19624,88.4222,70,60,45
88.42701,88.65298,65,60,45
88.65778,88.88374,65,60,45
88.88855,89.11451,65,60,45
89.11932,89.34528,65,60,45
89.35009,89.57605,64,60,45
89.58086,89.806816,64,60,45
89.81163,90.03759,65,60,45
90.0424,90.26836,65,60,45
90.27316,90.49912,66,60,45
90.50394,90.7299,66,60,45
90.7347,90.96066,67,60,45
90.96547,91.19144,67,60,45
91.19624,91.4222,66,60,45
91.42701,91.65297,66,60,45
91.657776,91.88374,67,60,45
91.88855,92.11451,67,60,45
92.119316,92.345276,63,60,45
92.35008,92.57605,63,60,45
92.58086,92.806816,70,60,45
92.81162,93.03758,70,60,45
93.0424,93.26836,69,60,45
93.27316,93.49912,69,60,45
93.50393,93.72989,67,60,45
93.7347,93.96066,55,60,45
93.7347,93.96066,67,60,45
93.96547,94.35008,55,84,45
93.96547,94.35008,66,84,45
94.42701,94.65297,67,60,45
94.657776,94.883736,55,60,45
94.657776,94.883736,67,60,45
94.88854,95.27316,55,84,45
94.88854,95.27316,66,84,45
95.35008,95.57604,67,60,45
95.58085,95.806816,55,60,45
95.58085,95.806816,67,60,45
95.81162,96.196236,55,84,45
95.81162,96.196236,66,84,45
96.273155,96.68983,55,60,45
96.273155,96.68983,67,60,45
108.4228,108.64876,70,60,45
108.653564,108.87953,65,60,45
108.88434,109.1103,62,60,45
109.115105,109.341064,65,60,45
109.34587,109.57184,70,60,45
109.576645,109.802605,65,60,45
109.80741,110.03337,62,60,45
110.03818,110.264145,65,60,45
110.26895,110.49491,70,60,45
110.49972,110.72568,70,60,45
110.73049,110.95645,65,60,45
110.96126,111.18722,65,60,45
111.192024,111.417984,65,60,45
111.4228,111.64876,65,60,45
111.653564,111.879524,64,60,45
111.88433,112.11029,64,60,45
112.115105,112.341064,65,60,45
112.34587,112.57183,65,60,45
112.57664,112.802605,69,60,45
112.80741,113.03337,69,60,45
113.03818,113.26414,70,60,45
113.26894,113.49491,70,60,45
113.49972,113.72568,69,60,45
113.730484,113.95644,69,60,45
113.96125,114.18722,70,60,45
114.192024,114.417984,70,60,45
114.42279,114.64875,67,60,45
114.653564,114.879524,67,60,45
114.88433,115.11029,65,60,45
115.1151,115.34106,65,60,45
115.34587,115.57183,63,60,45
115.57664,115.8026,63,60,45
115.8074,116.03337,65,60,45
116.03818,116.26414,58,60,45
116.03818,116.26414,70,60,45
116.26894,116.65356,58,84,45
116.26894,116.65356,69,84,45
116.730484,116.95644,65,60,45
116.96125,117.18721,58,60,45
116.96125,117.18721,70,60,45
117.19202,117.57664,58,84,45
117.19202,117.57664,69,84,45
117.65356,117.87952,65,60,45
117.88433,118.11029,58,60,45
117.88433,118.11029,70,60,45
118.1151,118.49971,58,84,45
118.1151,118.49971,69,84,45
118.57664,118.9933,58,60,45
118.57664,118.9933,70,60,45
130.72627,130.95224,70,60,45
130.95705,131.183,65,60,45
131.1878,131.41377,62,60,45
131.41858,131.64455,65,60,45
131.64935,131.8753,70,60,45
131.88011,132.10608,65,60,45
132.11089,132.33685,62,60,45
132.34166,132.56761,65,60,45
132.57242,132.79839,70,60,45
132.80319,133.02916,70,60,45
133.03397,133.25992,65,60,45
133.26472,133.49069,65,60,45
133.4955,133.72147,65,60,45
133.72627,133.95222,65,60,45
133.95705,134.183,64,60,45
134.1878,134.41377,64,60,45
134.41858,134.64453,65,60,45
134.64935,134.8753,65,60,45
134.88011,135.10608,69,60,45
135.11089,135.33684,69,60,45
135.34166,135.56761,70,60,45
135.57242,135.79839,70,60,45
135.80319,136.02916,69,60,45
136.03397,136.25992,69,60,45
136.26472,136.49069,70,60,45
136.4955,136.72147,70,60,45
136.72627,136.95222,67,60,45
136.95703,137.183,67,60,45
137.1878,137.41377,65,60,45
137.41858,137.64453,65,60,45
137.64934,137.8753,63,60,45
137.88011,138.10608,63,60,45
138.11089,138.33684,65,60,45
138.34164,138.56761,58,60,45
138.34164,138.56761,70,60,45
138.57242,138.95703,58,84,45
138.57242,138.95703,69,84,45
139.03395,139.25992,65,60,45
139.26472,139.49069,58,60,45
139.26472,139.49069,70,60,45
139.4955,139.88011,58,84,45
139.4955,139.88011,69,84,45
139.95703,140.183,65,60,45
140.1878,140.41376,58,60,45
140.1878,140.41376,70,60,45
140.41856,140.80319,58,84,45
140.41856,140.80319,69,84,45
140.88011,141.29677,58,60,45
140.88011,141.29677,70,60,45
278.83426,279.06024,67,60,45
279.06503,279.29102,62,60,45
279.2958,279.52176,59,60,45
279.52658,279.75253,62,60,45
279.75735,279.9833,67,60,45
279.98813,280.21408,62,60,45
280.21887,280.44485,59,60,45
280.44965,280.67563,62,60,45
280.68042,280.90637,67,60,45
280.9112,281.13715,67,60,45
281.14197,281.36792,62,60,45
281.37274,281.5987,62,60,45
281.6035,281.82947,62,60,45
281.83426,282.06024,62,60,45
282.06503,282.291,61,60,45
282.2958,282.52176,61,60,45
282.52658,282.75253,62,60,45
282.75735,282.9833,62,60,45
282.98813,283.21408,63,60,45
283.21887,283.44485,63,60,45
283.44965,283.6756,64,60,45
283.68042,283.90637,64,60,45
283.9112,284.13715,63,60,45
284.14197,284.36792,63,60,45
284.37274,284.5987,64,60,45
284.6035,284.82947,64,60,45
284.83426,285.06024,60,60,45
285.06503,285.291,60,60,45
285.2958,285.52176,67,60,45
285.52658,285.75253,67,60,45
285.75735,285.9833,66,60,45
285.9881,286.21408,66,60,45
286.21887,286.44485,64,60,45
286.44965,286.6756,52,60,45
286.44965,286.6756,64,60,45
286.68042,287.06503,52,84,45
286.68042,287.06503,63,84,45
287.14197,287.36792,64,60,45
287.3727,287.5987,52,60,45
287.3727,287.5987,64,60,45
287.6035,287.9881,52,84,45
287.6035,287.9881,63,84,45
288.06503,288.291,64,60,45
288.2958,288.52176,52,60,45
288.2958,288.52176,64,60,45
288.52658,288.9112,52,84,45
288.52658,288.9112,63,84,45
288.9881,289.3727,52,60,45
288.9881,289.3727,64,60,45
0.923076,0.999999,43,105,42
0.923076,0.999999,50,105,42
1.153845,1.230768,55,75,42
1.384614,1.461537,55,75,42
1.615383,1.692306,55,75,42
1.846152,1.923075,43,105,42
1.846152,1.923075,50,105,42
2.076921,2.153844,55,75,42
2.30769,2.384613,55,75,42
2.538459,2.615382,55,75,42
2.769228,2.846151,43,105,42
2.769228,2.846151,50,105,42
2.999997,3.07692,55,75,42
3.230766,3.307689,55,75,42
3.461535,3.538458,55,75,42
3.692304,3.769227,43,105,42
3.692304,3.769227,50,105,42
3.923073,3.999996,55,75,42
4.153842,4.230765,55,75,42
4.384611,4.461534,55,75,42
4.61538,4.692303,43,105,42
4.61538,4.692303,50,105,42
4.846149,4.923072,55,75,42
5.076918,5.153841,55,75,42
5.307687,5.38461,55,75,42
5.538456,5.615379,43,75,42
5.538456,5.615379,55,75,42
5.769225,5.846148,52,75,42
5.999994,6.076917,50,75,42
6.230763,6.307686,48,75,42
6.461532,6.538455,46,75,42
6.692301,6.769224,45,75,42
6.92307,6.999993,43,75,42
7.153839,7.230762,43,75,42
7.384608,7.461531,43,105,42
7.384608,7.461531,50,105,42
7.615377,7.6923,55,75,42
7.846146,7.923069,55,75,42
8.076915,8.153838,55,75,42
8.307684,8.384607,43,105,42
8.307684,8.384607,50,105,42
8.538453,8.615376,55,75,42
8.769222,8.846145,55,75,42
8.999991,9.076914,55,75,42
9.23076,9.307683,43,105,42
9.23076,9.307683,50,105,42
9.461529,9.538452,55,75,42
9.692298,9.769221,55,75,42
9.923067,9.99999,55,75,42
10.153836,10.230759,43,105,42
10.153836,10.230759,50,105,42
10.384605,10.461528,55,75,42
10.615374,10.692297,55,75,42
10.846143,10.923066,55,75,42
11.076912,11.153835,43,92,42
11.076912,11.153835,55,92,42
11.307681,11.384604,52,92,42
11.53845,11.615373,50,92,42
11.769219,11.846142,48,92,42
11.999988,12.076911,46,92,42
12.230757,12.30768,58,92,42
12.461526,12.538449,46,92,42
12.692295,12.769218,58,92,42
12.923064,12.999987,46,92,42
13.153833,13.230756,58,92,42
13.384602,13.461525,46,92,42
13.615371,13.692294,58,92,42
13.84614,13.923063,46,92,42
14.076909,14.153832,58,92,42
14.307678,14.384601,46,92,42
14.538447,14.61537,58,92,42
14.769216,14.846139,45,92,42
14.999985,15.076908,57,92,42
15.230754,15.307677,45,92,42
15.461523,15.538446,57,92,42
15.692292,15.769215,45,92,42
15.923061,15.999984,57,92,42
16.15383,16.230753,45,92,42
16.3846,16.461521,57,92,42
16.615368,16.692291,45,92,42
16.846136,16.92306,57,92,42
17.076906,17.321697,38,92,42
17.326906,17.470655,45,92,42
17.326906,17.545656,54,92,42
17.401905,17.545656,62,92,42
17.626905,17.703829,43,84,42
17.626905,17.703829,50,84,42
17.857676,17.934599,55,60,42
18.088444,18.165367,55,60,42
18.319214,18.396135,55,60,42
18.549982,18.626905,43,84,42
18.549982,18.626905,50,84,42
18.78075,18.857674,55,60,42
19.01152,19.088444,55,60,42
19.242289,19.319212,55,60,42
19.473059,19.54998,43,84,42
19.473059,19.54998,50,84,42
19.703827,19.78075,55,60,42
19.934595,20.011518,55,60,42
20.165365,20.242289,55,60,42
20.396133,20.473057,43,84,42
20.396133,20.473057,50,84,42
20.626904,20.703827,55,62,42
20.857672,20.934595,55,64,42
21.088442,21.165363,55,66,42
21.31921,21.396133,43,95,42
21.31921,21.396133,50,95,42
21.549978,21.626902,55,71,42
21.780748,21.857672,55,74,42
22.011517,22.08844,55,77,42
22.242287,22.319208,43,80,42
22.242287,22.319208,55,80,42
22.473055,22.549978,52,83,42
22.703823,22.780746,50,86,42
22.934593,23.011517,48,89,42
23.165361,23.242285,46,92,42
23.396132,23.473055,45,92,42
23.6269,23.703823,43,92,42
23.85767,23.934591,43,92,42
24.088438,24.165361,43,105,42
24.088438,24.165361,50,105,42
24.319206,24.39613,55,75,42
24.549976,24.6269,55,75,42
24.780745,24.857668,55,75,42
25.011515,25.088436,43,105,42
25.011515,25.088436,50,105,42
25.242283,25.319206,55,75,42
25.473051,25.549974,55,75,42
25.703821,25.780745,55,75,42
25.93459,26.011513,43,105,42
25.93459,26.011513,50,105,42
26.16536,26.242283,55,75,42
26.396128,26.473051,55,75,42
26.626898,26.70382,55,75,42
26.857666,26.93459,36,75,42
26.857666,26.93459,43,75,42
27.088434,27.165358,48,75,42
27.319204,27.396128,48,75,42
27.549973,27.626896,48,75,42
27.780743,28.047787,38,75,42
27.780743,28.18415,45,75,42
27.917105,28.18415,50,75,42
28.326197,28.59324,43,75,42
28.326197,28.59324,50,75,42
28.87165,29.256266,42,105,42
29.333187,29.717802,43,105,42
31.640879,32.025494,45,105,42
32.102417,32.48703,46,105,42
34.410107,34.79472,49,105,42
34.871643,35.25626,50,105,42
35.333183,35.717796,49,105,42
35.79472,36.179337,50,105,42
36.256256,36.640873,37,105,42
36.717796,37.10241,38,105,42
37.179333,37.405296,37,92,42
37.410103,37.636063,49,92,42
37.87164,38.097603,49,92,42
38.33318,38.55914,54,92,42
38.794716,39.02068,50,92,42
39.256256,39.482216,43,92,42
39.256256,39.482216,50,92,42
39.717793,39.943756,50,92,42
40.179333,40.405293,49,92,42
40.64087,40.86683,49,92,42
41.102406,41.32837,54,92,42
41.563946,41.789906,50,92,42
42.025482,42.251446,43,92,42
42.025482,42.251446,50,92,42
42.487022,42.712982,50,92,42
43.640865,43.751442,42,92,42
43.756252,43.86683,43,92,42
43.871635,43.982212,45,90,42
43.98702,44.097595,46,87,42
44.102406,44.212982,48,84,42
44.21779,44.328365,50,81,42
44.33317,44.44375,52,78,42
44.44856,44.559135,54,75,42
44.563942,44.67452,55,72,42
44.679325,44.7899,57,69,42
44.794712,44.90529,58,66,42
44.910095,45.02067,57,63,42
45.02548,45.1024,58,60,42
45.25625,45.33317,55,60,42
46.410095,46.52067,45,92,42
46.52548,46.636055,46,92,42
46.64086,46.75144,48,90,42
46.75625,46.866825,50,87,42
46.87163,46.98221,51,84,42
46.987015,47.097595,53,81,42
47.1024,47.21298,55,78,42
47.217785,47.32836,57,75,42
47.33317,47.44375,58,72,42
47.448555,47.55913,60,69,42
47.56394,47.674515,62,66,42
47.679325,47.7899,61,63,42
47.79471,47.87163,62,60,42
48.02548,48.1024,58,60,42
51.025475,51.13605,49,92,42
51.140858,51.251434,50,92,42
51.256245,51.36682,52,90,42
51.371628,51.482204,53,87,42
51.48701,51.597588,55,84,42
51.602398,51.712975,57,81,42
51.71778,51.828358,59,78,42
51.833164,51.94374,61,75,42
51.94855,52.059128,62,72,42
52.063934,52.17451,64,69,42
52.179317,52.289894,65,66,42
52.294704,52.40528,64,63,42
52.410088,52.48701,65,60,42
52.640858,52.71778,62,60,42
52.871628,52.982204,67,92,42
52.98701,53.097588,66,92,42
53.102394,53.21297,67,82,42
53.21778,53.328358,64,71,42
53.333164,53.410088,65,60,42
53.563934,53.640858,62,60,42
54.02547,54.25143,57,92,42
54.487007,54.71297,57,92,42
54.948547,55.174507,50,92,42
55.410084,55.636047,46,92,42
55.871624,56.097584,39,92,42
56.33316,56.559124,46,92,42
56.56393,56.948544,63,105,42
57.025467,57.140854,62,75,42
57.140854,57.256237,63,75,42
57.256237,57.33316,62,75,42
57.487007,57.87162,60,105,42
57.948544,58.33316,58,105,42
58.410084,58.525467,56,75,42
58.525467,58.64085,58,75,42
58.64085,58.717773,56,75,42
58.87162,58.948544,55,75,42
59.10239,59.179314,63,75,42
59.333157,59.717773,64,105,42
59.794697,59.91008,62,75,42
59.91008,60.025463,64,75,42
60.025463,60.102386,62,75,42
60.256233,60.64085,60,105,42
60.717773,61.102386,58,105,42
61.17931,61.256233,60,75,42
61.41008,61.487003,48,75,42
61.640846,61.74085,50,75,42
61.94085,62.06585,38,75,42
62.31585,62.392773,43,105,42
62.31585,62.392773,50,105,42
62.546616,62.62354,55,75,42
62.777386,62.85431,55,75,42
63.008156,63.08508,55,75,42
63.238922,63.315845,43,105,42
63.238922,63.315845,50,105,42
63.469692,63.546616,55,75,42
63.700462,63.777386,55,75,42
63.931232,64.008156,55,75,42
64.162,64.23892,43,105,42
64.162,64.23892,50,105,42
64.39277,64.46969,55,75,42
64.623535,64.70046,55,75,42
64.85431,64.93123,55,75,42
65.085075,65.162,43,105,42
65.085075,65.162,50,105,42
65.31584,65.39277,55,75,42
65.546616,65.623535,55,75,42
65.77738,65.85431,55,75,42
66.00815,66.085075,43,105,42
66.00815,66.085075,50,105,42
66.23892,66.31584,55,75,42
66.46969,66.546616,55,75,42
66.70046,66.77738,55,75,42
66.93123,67.00815,43,75,42
66.93123,67.00815,55,75,42
67.161995,67.23892,52,75,42
67.39277,67.46969,50,75,42
67.623535,67.700455,48,75,42
67.8543,67.93123,46,75,42
68.085075,68.161995,45,75,42
68.31584,68.39276,43,75,42
68.54661,68.623535,43,75,42
68.77738,68.8543,43,105,42
68.77738,68.8543,50,105,42
69.00815,69.085075,55,75,42
69.238914,69.31584,55,75,42
69.46969,69.54661,55,75,42
69.700455,69.77738,43,105,42
69.700455,69.77738,50,105,42
69.93123,70.00815,55,75,42
70.161995,70.238914,55,75,42
70.39276,70.46969,55,75,42
70.623535,70.700455,43,105,42
70.623535,70.700455,50,105,42
70.8543,70.93122,55,75,42
71.08507,71.161995,55,75,42
71.31584,71.39276,55,75,42
71.54661,71.62353,36,105,42
71.54661,71.62353,43,105,42
71.777374,71.8543,48,75,42
72.00815,72.08507,48,75,42
72.238914,72.31584,48,75,42
72.46968,72.69565,38,92,42
72.46968,72.81103,45,92,42
72.58507,72.81103,50,92,42
72.93122,73.15718,43,92,42
72.93122,73.15718,50,92,42
97.34589,97.571846,55,60,42
98.03819,98.26415,53,60,42
98.26896,98.49493,55,60,42
98.961266,99.18723,53,60,42
99.19204,99.418,55,60,42
99.884346,100.110306,53,60,42
100.11511,100.34107,52,60,42
100.80742,101.03338,52,60,42
101.03819,101.26415,57,60,42
101.7305,101.95646,55,60,42
101.961266,102.187225,57,60,42
102.65357,102.87953,55,60,42
102.88434,103.110306,57,60,42
103.57665,103.80261,55,60,42
103.80742,104.03338,54,60,42
104.499725,104.725685,58,60,42
104.73049,104.95646,59,60,42
105.4228,105.648766,59,60,42
105.65357,105.87953,57,60,42
106.115105,106.34107,45,60,42
106.576645,106.802605,50,60,42
107.26895,107.49491,45,60,42
107.499725,107.725685,50,60,42
119.64936,119.87532,55,60,42
120.34167,120.56763,53,60,42
120.57243,120.7984,55,60,42
121.26475,121.49071,53,60,42
121.495514,121.72147,55,60,42
122.18782,122.41378,53,60,42
122.41859,122.64455,52,60,42
123.11089,123.33686,52,60,42
123.34167,123.56763,57,60,42
124.03397,124.25993,55,60,42
124.26474,124.4907,57,60,42
124.95705,125.18301,55,60,42
125.18782,125.41378,57,60,42
125.88013,126.10609,55,60,42
126.11089,126.33685,54,60,42
126.8032,127.02916,58,60,42
127.033966,127.25993,59,60,42
127.72627,127.95224,59,60,42
127.95705,128.18301,57,60,42
128.41858,128.64455,45,60,42
128.88013,129.10608,50,60,42
129.57243,129.79839,45,60,42
129.80319,130.02916,50,60,42
141.95284,142.02975,43,105,42
141.95284,142.02975,50,105,42
142.18361,142.26053,55,75,42
142.41437,142.4913,55,75,42
142.64514,142.72206,55,75,42
142.87592,142.95284,43,105,42
142.87592,142.95284,50,105,42
143.10667,143.18361,55,75,42
143.33745,143.41437,55,75,42
143.56822,143.64514,55,75,42
143.79898,143.87592,43,105,42
143.79898,143.87592,50,105,42
144.02975,144.10667,55,75,42
144.26053,144.33745,55,75,42
144.4913,144.56822,55,75,42
144.72206,144.79898,43,105,42
144.72206,144.79898,50,105,42
144.95284,145.02975,55,75,42
145.18361,145.26053,55,75,42
145.41437,145.49129,55,75,42
145.64514,145.72206,43,105,42
145.64514,145.72206,50,105,42
145.87592,145.95284,55,75,42
146.10667,146.1836,55,75,42
146.33745,146.41437,55,75,42
146.56822,146.64514,43,92,42
146.56822,146.64514,55,92,42
146.79898,146.87592,52,92,42
147.02975,147.10667,50,92,42
147.26053,147.33745,48,92,42
147.49129,147.56822,46,92,42
147.72206,147.79898,45,92,42
147.95284,148.02975,43,92,42
148.1836,148.26053,43,92,42
148.41437,148.49129,43,105,42
148.41437,148.49129,50,105,42
148.64514,148.72206,55,75,42
148.8759,148.95284,55,75,42
149.10667,149.1836,55,75,42
149.33745,149.41437,43,105,42
149.33745,149.41437,50,105,42
149.5682,149.64514,55,75,42
149.79898,149.8759,55,75,42
150.02975,150.10667,55,75,42
150.26051,150.33745,43,105,42
150.26051,150.33745,50,105,42
150.49129,150.5682,55,75,42
150.72206,150.79898,55,75,42
150.95282,151.02975,55,75,42
151.1836,151.26051,43,105,42
151.1836,151.26051,50,105,42
151.41437,151.49129,55,75,42
151.64514,151.72206,55,75,42
151.8759,151.95282,55,75,42
152.10667,152.1836,43,92,42
152.10667,152.1836,55,92,42
152.33745,152.41437,52,92,42
152.5682,152.64513,50,92,42
152.79898,152.8759,48,92,42
153.02975,153.10667,46,92,42
153.26051,153.33743,58,92,42
153.49129,153.5682,46,92,42
153.72206,153.79898,58,92,42
153.95282,154.02974,46,92,42
154.1836,154.26051,58,92,42
154.41437,154.49129,46,92,42
154.64513,154.72206,58,92,42
154.8759,154.95282,46,92,42
155.10667,155.1836,58,92,42
155.33743,155.41437,46,92,42
155.5682,155.64513,58,92,42
155.79898,155.8759,45,92,42
156.02974,156.10667,57,92,42
156.26051,156.33743,45,92,42
156.49129,156.5682,57,92,42
156.72205,156.79898,45,92,42
156.95282,157.02974,57,92,42
157.1836,157.26051,45,92,42
157.41435,157.49129,57,92,42
157.64513,157.72205,45,92,42
157.8759,157.95282,57,92,42
158.10666,158.33743,38,92,42
158.33743,158.44801,45,92,42
158.33743,158.5634,54,92,42
158.39513,158.5634,62,92,42
158.5682,158.64513,43,60,42
158.79897,158.8759,43,60,42
159.02974,159.10666,43,60,42
159.26051,159.33743,43,60,42
159.49129,159.5682,43,60,42
159.72205,159.79897,43,60,42
159.95282,160.02974,43,60,42
160.1836,160.26051,43,60,42
160.41435,160.49127,43,60,42
160.64513,160.72205,43,60,42
160.8759,160.95282,43,60,42
161.10666,161.18358,43,60,42
161.33743,161.41435,43,60,42
161.5682,161.64513,43,60,42
161.79897,161.8759,43,60,42
162.02974,162.10666,43,60,42
162.26051,162.33743,43,60,42
162.49127,162.5682,43,60,42
162.72205,162.79897,43,60,42
162.95282,163.02974,43,60,42
163.18358,163.26051,43,60,42
163.41435,163.49127,43,60,42
163.64513,163.72205,43,60,42
163.87589,163.95282,43,60,42
164.10666,164.18358,43,60,42
164.33743,164.41435,43,60,42
164.56819,164.64513,43,60,42
164.79897,164.87589,43,60,42
165.02974,165.10666,43,60,42
165.2605,165.33743,43,60,42
165.49127,165.56819,43,60,42
165.72205,165.79897,43,60,42
165.9528,166.02974,43,60,42
166.18358,166.2605,43,60,42
166.41435,166.49127,43,60,42
166.64513,166.72205,43,60,42
166.87589,166.9528,43,60,42
167.10666,167.18358,43,60,42
167.33743,167.41435,43,60,42
167.56819,167.64511,43,60,42
167.79897,167.87589,43,60,42
168.02974,168.10666,43,60,42
168.2605,168.33742,43,60,42
168.49127,168.56819,43,60,42
168.72205,168.79897,43,60,42
168.9528,169.02974,43,60,42
169.18358,169.2605,43,60,42
169.41435,169.49127,43,60,42
169.64511,169.72205,43,60,42
169.87589,169.9528,43,60,42
170.10666,170.18358,43,60,42
170.33742,170.41435,43,60,42
170.56819,170.64511,43,60,42
170.79897,170.87589,43,60,42
171.02972,171.10666,43,60,42
171.2605,171.33742,43,60,42
171.49127,171.56819,43,60,42
171.72203,171.79897,43,60,42
171.9528,172.02972,43,60,42
172.18358,172.2605,43,60,42
172.41434,172.49127,43,60,42
172.64511,172.72203,43,60,42
172.87589,172.9528,43,60,42
173.10664,173.18358,43,60,42
173.33742,173.42075,43,60,42
173.58742,173.67075,43,60,42
173.83742,173.92075,43,60,42
174.08742,174.17075,43,60,42
174.33742,174.42833,43,60,42
174.61015,174.70105,43,60,42
174.88287,174.97379,43,60,42
175.1556,175.2465,43,60,42
175.42833,175.52834,43,60,42
175.72833,175.82832,43,59,42
176.02834,176.12833,43,58,42
176.32832,176.42833,43,57,42
176.62833,176.73944,43,56,42
176.96165,177.07277,43,55,42
177.295,177.4061,43,53,42
177.62833,177.73944,43,51,42
177.96165,178.08665,43,49,42
178.33665,178.46165,43,47,42
178.71165,179.07884,43,45,42
179.73439,180.00711,50,92,42
180.00711,180.27415,47,92,42
180.27985,180.37074,43,92,42
180.55257,180.68324,36,92,42
180.55257,180.68324,43,92,42
180.68893,181.09235,48,92,42
181.09802,181.2287,43,92,42
181.09802,181.2287,50,92,42
181.23439,181.63779,55,92,42
181.64348,181.77415,50,92,42
181.64348,181.77415,57,92,42
181.77985,182.18324,62,92,42
182.18893,182.64348,43,92,42
183.00711,183.27983,50,92,42
183.27983,183.54689,47,92,42
183.55257,183.64348,43,92,42
183.82529,183.95598,43,92,42
183.82529,183.95598,50,92,42
183.96165,184.36507,55,92,42
184.37074,184.50143,54,92,42
184.50711,184.91052,42,92,42
184.9162,185.04688,40,92,42
184.9162,185.04688,45,92,42
185.05257,185.45598,52,92,42
185.46165,185.9162,38,92,42
186.27983,186.55257,50,92,42
186.55257,186.81961,47,92,42
186.82529,186.9162,43,92,42
187.09802,187.2287,36,92,42
187.09802,187.2287,43,92,42
187.23438,187.63779,48,92,42
187.64346,187.77415,43,92,42
187.64346,187.77415,50,92,42
187.77983,188.18324,55,92,42
188.18892,188.31961,50,92,42
188.18892,188.31961,57,92,42
188.32529,188.7287,62,92,42
188.73438,189.18892,43,92,42
189.55257,189.82529,50,92,42
189.82529,190.09233,47,92,42
190.098,190.18892,43,92,42
190.37074,190.50142,43,92,42
190.37074,190.50142,50,92,42
190.50711,190.9105,55,92,42
190.9162,191.04688,54,92,42
191.05255,191.45596,42,92,42
191.46165,191.59233,40,92,42
191.46165,191.59233,45,92,42
191.598,192.00142,52,92,42
192.0071,192.46164,38,92,42
192.55255,192.8196,43,92,42
193.098,193.36505,55,92,42
193.64346,193.9105,51,92,42
194.18892,194.45596,48,92,42
194.73438,195.00142,53,92,42
195.27983,195.54688,46,92,42
195.82529,196.09233,51,92,42
196.37073,196.63777,45,92,42
196.91618,197.18323,50,92,42
197.46164,197.72868,43,92,42
198.0071,198.27414,45,92,42
198.55255,198.68323,38,92,42
198.55255,198.8196,45,92,42
198.62073,198.8196,50,92,42
199.37073,199.64346,50,92,42
199.64346,199.9105,47,92,42
199.91618,200.0071,43,92,42
200.18892,200.3196,36,92,42
200.18892,200.3196,43,92,42
200.32527,200.72868,48,92,42
200.73436,200.86505,43,92,42
200.73436,200.86505,50,92,42
200.87073,201.27414,55,92,42
201.27982,201.4105,50,92,42
201.27982,201.4105,57,92,42
201.41618,201.8196,62,92,42
201.82527,202.27982,43,92,42
202.64345,202.91618,50,92,42
202.91618,203.18323,47,92,42
203.1889,203.27982,43,92,42
203.73436,204.0071,55,92,42
204.0071,204.27414,52,92,42
204.27982,204.37073,48,92,42
204.55255,204.68323,50,92,42
204.6889,205.09232,50,92,42
205.09799,205.55254,43,92,42
205.09799,205.55254,50,92,42
205.64345,205.91049,43,92,42
206.1889,206.45595,55,92,42
206.73436,207.0014,51,92,42
207.27982,207.54686,48,92,42
207.82527,208.09232,53,92,42
208.37073,208.63777,46,92,42
208.91618,209.18323,51,92,42
209.46162,209.72867,45,92,42
210.00708,210.27412,50,92,42
210.55254,210.81958,43,92,42
211.09799,211.36504,45,92,42
211.64345,211.77412,38,92,42
211.64345,211.91049,45,92,42
211.71162,211.91049,50,92,42
212.46162,212.73436,50,92,42
212.73436,213.0014,47,92,42
213.00708,213.09799,43,92,42
213.2798,213.41049,36,92,42
213.2798,213.41049,43,92,42
213.41617,213.81958,48,92,42
213.82526,213.95595,43,92,42
213.82526,213.95595,50,92,42
213.96162,214.36504,55,92,42
214.37071,214.5014,50,92,42
214.37071,214.5014,57,92,42
214.50708,214.91049,62,92,42
214.91617,215.37071,43,92,42
215.73434,216.00708,50,92,42
216.00708,216.27412,47,92,42
216.2798,216.37071,43,92,42
216.82526,217.09799,55,92,42
217.09799,217.36504,52,92,42
217.37071,217.46162,48,92,42
217.64343,217.77412,50,92,42
217.7798,218.18321,50,92,42
218.18889,218.64343,43,92,42
218.18889,218.64343,50,92,42
218.73434,219.23434,71,92,42
219.33435,219.47498,64,92,42
219.53435,219.67497,67,92,42
219.73434,219.8656,71,92,42
219.93434,220.7281,72,92,42
220.73434,220.87497,74,92,42
220.93434,221.0656,72,92,42
221.13435,221.63435,71,92,42
221.73434,221.87497,69,92,42
221.93434,222.07497,71,92,42
222.13435,222.2656,72,92,42
222.33435,222.93434,67,92,42
222.93434,223.43434,66,92,42
223.83435,224.13435,66,92,42
224.13435,224.27498,59,92,42
224.33435,224.47498,61,92,42
224.53435,224.6656,62,92,42
224.73434,225.52809,64,92,42
225.53435,225.7281,66,92,42
225.73434,225.9281,67,92,42
225.93434,226.43434,66,92,42
226.53435,227.03435,64,92,42
227.13435,227.20935,61,92,42
227.20935,227.28435,62,92,42
227.28435,227.5781,61,92,42
227.58435,227.7281,59,92,42
227.73434,228.23434,59,92,42
228.33435,228.83435,71,92,42
228.93434,229.07497,64,92,42
229.13435,229.27498,67,92,42
229.33435,229.46559,71,92,42
229.53435,230.3281,72,92,42
230.33435,230.47498,74,92,42
230.53435,230.6656,72,92,42
230.73434,231.23434,71,92,42
231.33435,231.47498,69,92,42
231.53435,231.67497,71,92,42
231.73434,231.8656,72,92,42
231.93434,232.53435,67,92,42
232.53435,233.03435,66,92,42
233.43434,233.73434,66,92,42
233.73434,234.02809,59,92,42
234.03435,234.33435,71,92,42
234.33435,234.6281,61,92,42
234.63435,234.93434,64,92,42
234.93434,235.23434,67,92,42
235.23434,235.52809,64,92,42
235.53435,235.8281,62,92,42
235.83435,236.13435,57,92,42
236.13435,236.43434,55,92,42
236.43434,236.7281,60,92,42
236.73434,236.80934,58,92,42
236.80934,236.88435,59,92,42
236.88435,237.18434,58,92,42
237.18434,237.3281,59,92,42
237.33435,237.83435,59,92,42
239.13435,239.93434,48,63,42
241.53435,242.33435,50,63,42
243.93434,244.73434,52,63,42
245.13435,245.93434,52,63,42
246.33435,247.13435,51,63,42
247.53435,248.33435,47,45,42
249.03435,249.47498,67,45,42
249.53435,249.67497,69,70,42
249.73434,249.8656,71,81,42
249.93434,250.7281,72,92,42
250.73434,250.87497,74,92,42
250.93434,251.0656,72,92,42
251.13435,251.63435,71,92,42
251.73434,251.87497,69,92,42
251.93434,252.07497,71,92,42
252.13435,252.2656,72,92,42
252.33435,252.93434,67,92,42
252.93434,253.43434,66,92,42
253.83435,254.13435,66,92,42
254.13435,254.27498,59,92,42
254.33435,254.47498,61,92,42
254.53435,254.6656,62,92,42
254.73434,255.02809,64,92,42
255.03435,255.33435,61,92,42
255.33435,255.6281,67,92,42
255.63435,255.93434,64,92,42
255.93434,256.43436,69,92,42
256.53436,257.03436,67,92,42
257.13434,257.20935,64,92,42
257.20935,257.28436,66,92,42
257.28436,257.58435,64,92,42
257.58435,257.7281,63,92,42
257.73434,258.23434,63,92,42
259.53436,260.33435,48,63,42
261.93436,262.73434,50,63,42
264.33435,265.13434,52,63,42
265.53436,266.33435,52,63,42
266.73434,267.53436,51,63,42
267.93436,268.73434,47,45,42
269.43436,269.73434,67,45,42
269.73434,269.87497,67,60,42
269.93436,270.07498,69,70,42
270.13434,270.2656,71,81,42
270.33435,271.1281,72,92,42
271.13434,271.27496,74,92,42
271.33435,271.4656,72,92,42
271.53436,272.03436,71,92,42
272.13434,272.27496,69,92,42
272.33435,272.47498,71,92,42
272.53436,272.6656,72,92,42
272.73434,273.33435,67,92,42
273.33435,273.83435,66,92,42
274.23434,274.53436,66,92,42
274.53436,274.675,59,92,42
274.73434,274.87497,61,92,42
274.93436,275.0656,62,92,42
275.13434,275.4281,64,92,42
275.43436,275.73434,61,92,42
275.73434,276.0281,67,92,42
276.03436,276.33435,64,92,42
276.33435,276.83435,69,92,42
276.93436,277.43436,67,84,42
277.53436,277.6125,64,76,42
277.6125,277.6906,66,75,42
277.6906,278.0031,64,74,42
278.0031,278.15283,63,70,42
278.15936,278.718,63,68,42
289.9112,290.02176,50,84,42
290.02658,290.13715,52,60,42
290.14194,290.25253,50,60,42
290.25732,290.36792,48,60,42
290.3727,290.4833,47,60,42
290.4881,290.5987,48,60,42
290.6035,290.71408,47,60,42
290.71887,290.82944,48,60,42
290.83426,290.94482,50,84,42
290.94965,291.0602,52,60,42
291.06503,291.1756,50,60,42
291.18042,291.291,48,60,42
291.2958,291.40637,47,60,42
291.4112,291.52176,48,60,42
291.52658,291.63715,47,60,42
291.64194,291.75253,48,60,42
291.75732,291.86792,50,84,42
291.8727,291.9833,52,64,42
291.9881,292.0987,50,68,42
292.1035,292.21408,52,72,42
292.21887,292.32944,54,76,42
292.33426,292.44482,55,80,42
292.44965,292.5602,54,84,42
292.56503,292.6756,55,88,42
292.68042,292.791,57,92,42
292.7958,292.90637,55,92,42
292.9112,293.02176,57,88,42
293.02655,293.13715,55,84,42
293.14194,293.25253,54,80,42
293.25732,293.36792,52,75,42
293.3727,293.4833,54,70,42
293.4881,293.5987,52,65,42
293.6035,293.71405,50,84,42
293.71887,293.82944,52,60,42
293.83426,293.94482,50,60,42
293.94965,294.0602,48,60,42
294.06503,294.1756,47,60,42
294.18042,294.291,48,60,42
294.2958,294.40637,47,60,42
294.4112,294.52176,48,60,42
294.52655,294.63715,50,84,42
294.64194,294.75253,52,60,42
294.75732,294.86792,50,60,42
294.8727,294.9833,48,60,42
294.9881,295.09866,47,60,42
295.1035,295.21405,48,60,42
295.21887,295.32944,47,60,42
295.33426,295.44482,48,60,42
295.44965,295.5602,50,84,42
295.56503,295.6756,52,64,42
295.68042,295.791,50,68,42
295.7958,295.90637,52,72,42
295.91116,296.02176,54,76,42
296.02655,296.13715,55,80,42
296.14194,296.25253,54,84,42
296.25732,296.36792,55,88,42
296.3727,296.4833,57,92,42
296.4881,296.59866,55,92,42
296.6035,296.71405,57,88,42
296.71887,296.82944,55,84,42
296.83426,296.94482,54,80,42
296.94965,297.0602,52,75,42
297.06503,297.1756,54,70,42
297.18042,297.291,52,65,42
297.29578,297.40637,50,84,42
297.41116,297.52176,52,60,42
297.52655,297.63715,50,61,42
297.64194,297.75253,48,62,42
297.75732,297.86792,47,63,42
297.8727,297.98328,48,64,42
297.9881,298.09866,47,65,42
298.1035,298.21405,48,66,42
298.21887,298.32944,50,93,42
298.33426,298.44482,52,68,42
298.44965,298.5602,50,69,42
298.56503,298.6756,48,70,42
298.68042,298.791,47,71,42
298.79578,298.90637,48,72,42
298.91116,299.02176,47,73,42
299.02655,299.13715,48,74,42
299.14194,299.25253,50,76,42
299.25732,299.36792,52,78,42
299.3727,299.48328,50,80,42
299.4881,299.59866,52,82,42
299.6035,299.71405,53,84,42
299.71887,299.82944,55,86,42
299.83426,299.94482,53,88,42
299.94965,300.0602,55,90,42
300.06503,300.1756,57,92,42
300.1804,300.291,55,92,42
300.29578,300.40637,57,88,42
300.41116,300.52176,55,84,42
300.52655,300.63715,53,80,42
300.64194,300.75253,52,75,42
300.75732,300.8679,53,70,42
300.8727,300.98328,52,65,42
300.9881,301.09866,50,84,42
301.1035,301.21405,52,60,42
301.21887,301.32944,50,60,42
301.33426,301.44482,48,60,42
301.44965,301.5602,47,60,42
301.56503,301.6756,48,60,42
301.6804,301.791,47,60,42
301.79578,301.90637,48,60,42
301.91116,302.02176,50,84,42
302.02655,302.13715,52,60,42
302.14194,302.2525,50,60,42
302.25732,302.3679,48,60,42
302.3727,302.48328,47,60,42
302.4881,302.59866,48,60,42
302.6035,302.71405,47,60,42
302.71887,302.82944,48,60,42
302.83426,302.94482,50,84,42
302.94965,303.0602,52,60,42
303.065,303.1756,50,60,42
303.1804,303.291,48,60,42
303.29578,303.40637,47,60,42
303.41116,303.52176,48,60,42
303.52655,303.63715,47,60,42
303.64194,303.7525,45,60,42
303.75732,303.8679,43,60,42
303.8727,303.98328,45,60,42
303.9881,304.09866,43,60,42
304.1035,304.21405,41,60,42
304.21887,304.32944,40,60,42
304.33426,304.44482,41,60,42
304.44962,304.5602,40,60,42
304.565,304.6756,38,60,42
304.6804,304.791,36,60,42
304.79578,304.90637,50,60,42
304.91116,305.02176,48,60,42
305.02655,305.13712,47,61,42
305.14194,305.2525,45,61,42
305.25732,305.3679,47,62,42
305.3727,305.48328,45,63,42
305.4881,305.59866,43,64,42
305.6035,305.71405,42,65,42
305.71887,305.82944,45,66,42
305.83426,305.94482,43,67,42
305.94962,306.0602,42,68,42
306.065,306.1756,40,69,42
306.1804,306.291,43,70,42
306.29578,306.40637,42,71,42
306.41116,306.52176,40,72,42
306.52655,306.77133,38,73,42
307.02655,307.27133,50,77,42
307.52655,307.7936,38,81,42
308.747,308.89075,43,89,42
308.747,309.04074,50,89,42
308.822,309.04074,59,89,42
309.047,309.34702,50,92,42
309.34702,309.64075,47,92,42
309.647,309.747,43,92,42
309.947,310.09076,36,92,42
309.947,310.09076,43,92,42
310.09702,310.54074,48,92,42
310.547,310.69077,43,92,42
310.547,310.69077,50,92,42
310.697,311.14075,55,92,42
311.147,311.29074,50,92,42
311.147,311.29074,57,92,42
311.297,311.74075,62,92,42
311.747,312.247,43,92,42
312.647,312.947,50,92,42
312.947,313.24075,47,92,42
313.247,313.34702,43,92,42
313.547,313.69077,43,92,42
313.547,313.69077,50,92,42
313.697,314.14075,55,92,42
314.147,314.29074,54,92,42
314.297,314.74075,42,92,42
314.747,314.89075,40,92,42
314.747,314.89075,45,92,42
314.897,315.34076,52,92,42
315.34702,315.84702,38,92,42
315.947,316.447,50,105,42
316.547,317.047,55,105,42
317.147,317.22202,60,92,42
317.22202,317.297,62,92,42
317.297,317.372,60,86,42
317.372,317.447,62,80,42
317.447,317.522,60,74,42
317.522,317.59702,62,67,42
317.59702,317.672,59,60,42
317.672,317.74075,60,60,42
317.747,318.19077,63,105,42
318.272,318.34702,58,75,42
318.34702,318.47824,57,75,42
318.547,318.67825,55,75,42
318.747,318.87827,57,75,42
318.947,319.447,58,105,42
319.547,320.047,55,105,42
320.147,320.59076,57,105,42
320.672,320.747,55,75,42
320.747,320.87827,54,75,42
320.947,321.07825,52,75,42
321.147,321.27826,54,75,42
321.34702,321.47824,55,75,42
321.547,321.67825,58,75,42
321.747,321.87827,62,75,42
321.947,322.022,61,75,42
322.022,322.09702,62,75,42
322.09702,322.397,61,75,42
322.397,322.54074,62,75,42
322.547,323.047,62,75,42
323.447,323.59076,50,92,42
323.59702,323.74075,50,92,42
323.747,323.84702,47,92,42
324.047,324.147,43,92,42
324.34702,324.49075,36,92,42
324.34702,324.49075,43,92,42
324.497,324.94077,48,92,42
324.947,325.09076,43,92,42
324.947,325.09076,50,92,42
325.09702,325.54074,55,92,42
325.547,325.69077,50,92,42
325.547,325.69077,57,92,42
325.697,326.14075,62,92,42
326.147,326.44077,43,92,42
326.147,326.74075,50,92,42
326.297,326.74075,59,92,42
327.047,327.19077,50,92,42
327.197,327.34076,50,92,42
327.34702,327.447,62,92,42
327.647,327.747,59,92,42
328.247,328.39075,55,92,42
328.397,328.54074,55,92,42
328.547,328.647,67,92,42
328.84702,328.947,64,92,42
329.147,329.22202,69,92,42
329.22202,329.297,71,92,42
329.297,329.372,69,92,42
329.372,329.447,71,92,42
329.447,329.522,69,92,42
329.522,329.59702,71,92,42
329.59702,329.672,67,92,42
329.672,329.74075,69,92,42
329.747,330.04074,67,92,42
330.34702,330.4047,42,92,42
330.4047,330.4624,43,92,42
330.4624,330.52008,42,92,42
330.52008,330.5778,43,92,42
330.5778,330.63547,42,92,42
330.63547,330.69315,43,92,42
330.69315,330.75085,40,92,42
330.75085,330.80374,42,92,42
330.80853,331.19315,43,92,42
333.11624,333.17392,45,92,42
333.17392,333.23163,46,92,42
333.23163,333.2893,45,92,42
333.2893,333.34702,46,92,42
333.34702,333.4047,45,92,42
333.4047,333.46237,46,92,42
333.46237,333.52008,43,92,42
333.52008,333.57297,45,92,42
333.57776,333.96237,46,92,42
335.88547,335.94315,49,92,42
335.94315,336.00085,50,92,42
336.00085,336.05853,49,86,42
336.05853,336.11624,50,80,42
336.11624,336.17392,49,74,42
336.17392,336.23163,50,67,42
336.23163,336.2893,47,60,42
336.2893,336.3422,49,60,42
336.347,336.73163,50,105,42
336.80853,336.86624,49,92,42
336.86624,336.92392,50,92,42
336.92392,336.98163,49,86,42
336.98163,337.0393,50,80,42
337.0393,337.097,49,74,42
337.097,337.1547,50,67,42
337.1547,337.21237,47,60,42
337.21237,337.26526,49,60,42
337.27008,337.6547,50,105,42
337.73163,337.7893,49,92,42
337.7893,337.847,50,92,42
337.847,337.9047,49,86,42
337.9047,337.96237,50,80,42
337.96237,338.02008,49,74,42
338.02008,338.07776,50,67,42
338.07776,338.13547,47,60,42
338.13547,338.18835,49,60,42
338.19315,338.57776,50,105,42
338.6547,338.88065,37,92,42
338.88547,339.11142,49,92,42
339.347,339.57297,49,92,42
339.80853,340.0345,54,92,42
340.27008,340.49603,50,92,42
340.7316,340.95758,43,92,42
340.7316,340.95758,50,92,42
341.19315,341.4191,50,92,42
341.42392,341.64987,38,92,42
341.6547,341.88065,50,92,42
342.1162,342.3422,50,92,42
342.57776,342.8037,55,92,42
343.0393,343.26526,51,92,42
343.50082,343.7268,44,92,42
343.96237,344.18832,51,92,42
345.1162,345.2268,42,92,42
345.2316,345.3422,43,92,42
345.347,345.45758,45,92,42
345.46237,345.57294,46,92,42
345.57776,345.68832,48,92,42
345.69315,345.8037,50,92,42
345.80853,345.9191,52,92,42
345.92392,346.0345,54,92,42
346.0393,346.14987,55,92,42
346.1547,346.26526,57,92,42
346.27008,346.38065,58,92,42
346.38544,346.49603,57,92,42
346.50082,346.57776,58,92,42
346.7316,346.80853,55,92,42
347.88544,347.99603,45,92,42
348.00082,348.11142,46,92,42
348.1162,348.2268,48,92,42
348.2316,348.3422,50,92,42
348.347,348.45755,51,92,42
348.46237,348.57294,53,92,42
348.57776,348.68832,55,92,42
348.69315,348.8037,57,92,42
348.80853,348.9191,58,92,42
348.92392,349.0345,60,92,42
349.0393,349.14987,62,92,42
349.1547,349.26526,61,92,42
349.27005,349.347,62,92,42
349.50082,349.57776,58,92,42
352.50082,352.61142,49,92,42
352.6162,352.72678,50,92,42
352.7316,352.84216,52,92,42
352.847,352.95755,53,92,42
352.96237,353.07294,55,92,42
353.07776,353.18832,57,92,42
353.19315,353.3037,59,92,42
353.30853,353.4191,61,92,42
353.42392,353.5345,62,92,42
353.53928,353.64987,64,92,42
353.65466,353.76526,65,92,42
353.77005,353.88065,64,92,42
353.88544,353.96237,65,92,42
354.1162,354.19315,62,92,42
354.347,354.45755,67,92,42
354.46237,354.57294,66,92,42
354.57776,354.68832,67,92,42
354.69315,354.8037,64,92,42
354.80853,354.88544,65,92,42
355.03928,355.1162,62,92,42
355.50082,355.72678,57,92,42
355.96237,356.18832,57,92,42
356.4239,356.64987,50,92,42
356.88544,357.1114,46,92,42
357.347,357.57294,39,92,42
357.8085,358.0345,46,92,42
358.03928,358.4239,63,105,42
358.50082,358.6162,62,75,42
358.6162,358.7316,63,75,42
358.7316,358.8085,62,75,42
358.96237,359.347,60,105,42
359.4239,359.8085,58,105,42
359.88544,360.00082,56,75,42
360.00082,360.1162,58,75,42
360.1162,360.1931,56,75,42
360.347,360.4239,55,75,42
360.57776,360.65466,63,75,42
360.8085,361.1931,64,105,42
361.27005,361.38544,62,75,42
361.38544,361.50082,64,75,42
361.50082,361.57773,62,75,42
361.7316,362.1162,60,105,42
362.1931,362.57773,58,105,42
362.65466,362.7316,60,75,42
362.88544,362.96237,48,75,42
363.1162,363.1931,49,75,42
363.347,363.4239,37,75,42
363.57773,363.8037,50,75,42
364.50082,365.83414,38,92,42
364.50082,365.83414,45,92,42
380.31747,380.61124,60,92,42
380.6175,380.81747,53,92,42
380.81747,381.0175,56,92,42
381.0175,381.21124,60,92,42
381.21747,381.51123,58,92,42
381.5175,381.81122,46,92,42
381.81747,382.0175,51,92,42
382.0175,382.21747,55,92,42
382.21747,382.41122,58,92,42
382.41748,382.71124,57,92,42
382.71747,383.01123,45,92,42
383.0175,383.21747,50,92,42
383.21747,383.41748,54,82,42
383.41748,383.61124,57,71,42
383.6175,383.81747,38,60,42
383.81747,384.0175,45,60,42
384.0175,384.21747,50,60,42
384.21747,384.51123,54,60,42
384.81747,385.0175,38,45,42
385.0175,385.21747,45,45,42
385.21747,385.41748,50,45,42
385.41748,385.71124,54,45,42
386.0175,386.21747,39,92,42
386.21747,386.41748,45,92,42
386.41748,386.6175,51,92,42
386.6175,386.91122,54,92,42
386.91748,387.21124,39,92,42
387.21747,387.41122,40,92,42
387.41748,387.61124,47,92,42
387.6175,387.81122,52,92,42
387.81747,388.01123,45,92,42
388.0175,388.21124,48,92,42
388.21747,388.41122,53,92,42
388.41748,388.61124,47,92,42
388.6175,388.81122,52,87,42
388.81747,389.01123,55,82,42
389.0175,389.09247,58,77,42
389.09247,389.16748,59,75,42
389.16748,389.2425,58,73,42
389.2425,389.31747,59,71,42
389.31747,389.3925,58,69,42
389.3925,389.46747,59,67,42
389.46747,389.54248,56,65,42
389.54248,389.61124,58,63,42
389.6175,389.97464,59,60,42
402.17462,402.38892,65,92,42
402.38892,402.59872,66,92,42
402.60318,402.67462,61,84,42
402.81747,403.17462,62,105,42
403.24603,403.60318,61,105,42
403.67462,404.03177,59,105,42
404.10318,404.46033,57,105,42
404.53177,404.58533,56,75,42
404.58533,404.63892,57,75,42
404.63892,404.85318,56,75,42
404.85318,404.95587,54,75,42
404.96033,405.31747,54,75,42
405.60318,405.81747,65,92,42
405.81747,406.02728,66,92,42
406.03177,406.10318,61,92,42
406.24603,406.60318,62,92,42
406.67462,407.03177,61,92,42
407.31747,407.53177,68,92,42
407.53177,407.74158,69,92,42
407.74603,407.81747,64,92,42
407.96033,408.31747,65,92,42
408.3889,408.74603,64,92,42
409.03177,409.24603,68,92,42
409.24603,409.45587,69,92,42
409.46033,409.53174,64,92,42
409.67462,410.03174,65,92,42
410.10318,410.313,64,92,42
410.74603,410.96033,64,92,42
410.96033,411.17014,65,92,42
411.17462,411.3889,61,92,42
411.3889,411.59872,62,92,42
411.60318,411.81747,57,92,42
411.81747,412.03174,58,92,42
412.03174,412.24603,54,92,42
412.24603,412.45587,55,92,42
412.8889,413.10318,66,92,42
413.10318,413.313,67,92,42
413.31747,413.53174,62,92,42
413.53174,413.74158,63,92,42
413.74603,413.96033,59,92,42
413.96033,414.1746,60,92,42
414.1746,414.3889,55,92,42
414.3889,414.59872,56,92,42
415.03174,415.24603,52,92,42
415.24603,415.31747,53,92,42
415.46033,415.53174,53,92,42
415.8889,416.10318,52,92,42
416.10318,416.1746,53,92,42
416.31747,416.3889,53,92,42
416.74603,416.96033,52,92,42
416.96033,417.03174,53,92,42
417.1746,417.24603,53,92,42
417.60318,417.81747,53,92,42
417.81747,417.8889,54,92,42
418.03174,418.10318,54,92,42
418.46033,418.6746,53,92,42
418.6746,418.74603,54,92,42
418.8889,418.96033,54,92,42
419.31744,419.53174,54,92,42
419.53174,419.60318,55,92,42
419.74603,419.81744,55,92,42
423.60318,423.81744,57,60,42
423.81744,424.02728,50,60,42
424.03174,424.10318,50,60,42
424.4603,424.6746,57,60,42
424.6746,424.88443,50,60,42
424.8889,424.9603,50,60,42
427.03174,427.24603,64,60,42
427.24603,427.45584,57,60,42
427.4603,427.53174,57,60,42
427.8889,428.10315,64,60,42
428.10315,428.313,57,60,42
428.31744,428.3889,57,60,42
428.74603,428.9603,58,60,42
428.9603,429.17014,61,60,42
429.1746,429.3889,61,60,42
429.3889,429.5987,64,60,42
429.60315,429.81744,64,60,42
429.81744,430.1746,67,60,42
430.4603,430.6746,60,60,42
430.6746,430.8844,63,60,42
430.8889,431.10315,63,60,42
431.10315,431.313,66,60,42
431.31744,431.53174,66,60,42
431.53174,431.8889,69,60,42
432.1746,432.3889,62,61,42
432.3889,432.5987,65,61,42
432.60315,432.81744,65,61,42
432.81744,433.02725,68,61,42
433.03174,433.246,68,61,42
433.246,433.45584,59,61,42
433.4603,433.6746,59,61,42
433.6746,434.03174,55,61,42
434.10315,434.4603,57,62,42
434.53174,434.8889,59,63,42
434.9603,435.31744,60,64,42
435.3889,436.246,61,65,42
436.246,436.996,63,67,42
437.10315,437.4603,62,69,42
440.5317,440.88885,50,80,42
440.9603,441.31744,54,81,42
441.38885,441.746,57,82,42
441.81744,442.1746,60,83,42
442.246,442.31744,69,84,42
442.31744,442.38885,70,84,42
442.38885,442.4603,69,84,42
442.4603,442.5317,70,84,42
442.5317,442.60315,69,84,42
442.60315,442.6746,70,84,42
442.6746,442.746,69,84,42
442.746,442.81744,70,84,42
442.81744,442.88885,69,84,42
442.88885,442.9603,70,84,42
442.9603,443.0317,69,84,42
443.0317,443.10315,70,84,42
443.10315,443.1746,69,84,42
443.1746,443.246,70,84,42
443.246,443.31744,69,84,42
443.31744,443.38885,70,84,42
443.38885,443.4603,69,84,42
443.4603,443.5317,70,85,42
443.5317,443.60315,69,86,42
443.60315,443.6746,70,87,42
443.6746,443.746,69,88,42
443.746,443.81744,70,89,42
443.81744,443.88885,67,90,42
443.88885,443.95584,69,91,42
443.9603,444.2936,67,92,42
444.3603,444.55612,43,92,42
444.3603,444.55612,50,92,42
444.5603,444.75613,55,92,42
444.76028,444.95612,43,92,42
444.76028,444.95612,50,92,42
444.9603,445.15613,55,92,42
445.16028,445.3561,43,92,42
445.16028,445.3561,50,92,42
445.3603,445.55612,55,92,42
445.5603,445.75613,43,92,42
445.5603,445.75613,50,92,42
445.76028,445.95612,55,92,42
445.9603,446.15613,43,92,42
445.9603,446.15613,50,92,42
446.16028,446.3561,55,92,42
446.3603,446.55612,43,92,42
446.3603,446.55612,50,92,42
446.5603,446.75613,55,92,42
446.76028,446.95612,43,92,42
446.76028,446.95612,50,92,42
446.9603,447.15613,55,92,42
447.16028,447.3561,43,92,42
447.16028,447.3561,50,92,42
447.3603,447.55612,55,92,42
447.5603,447.75613,43,92,42
447.5603,447.75613,50,92,42
447.76028,447.95612,55,92,42
447.9603,448.02695,55,92,42
448.16028,448.22696,52,92,42
448.3603,448.42697,50,92,42
448.5603,448.62695,48,92,42
448.76028,448.95612,46,92,42
448.9603,449.15613,45,92,42
449.16028,449.3561,43,92,42
449.16028,449.3561,50,92,42
449.3603,449.55612,55,92,42
449.5603,449.75613,43,92,42
449.5603,449.75613,50,92,42
449.76028,449.95612,55,92,42
449.9603,450.15613,43,92,42
449.9603,450.15613,50,92,42
450.16028,450.3561,55,92,42
450.3603,450.55612,43,92,42
450.3603,450.55612,50,92,42
450.5603,450.75613,55,92,42
450.76028,450.95612,43,92,42
450.76028,450.95612,50,92,42
450.9603,451.15613,55,92,42
451.16028,451.3561,43,92,42
451.16028,451.3561,50,92,42
451.3603,451.55612,55,92,42
451.5603,451.75613,43,92,42
451.5603,451.75613,50,92,42
451.76028,451.95612,55,92,42
451.9603,452.15613,43,92,42
451.9603,452.15613,50,92,42
452.16028,452.3561,55,92,42
452.3603,452.55612,43,92,42
452.3603,452.55612,50,92,42
452.5603,452.75613,55,92,42
452.76028,452.82697,55,92,42
452.9603,453.02695,52,92,42
453.16028,453.22696,50,92,42
453.3603,453.42697,48,92,42
453.5603,453.75613,46,92,42
453.76028,453.95612,58,92,42
453.9603,454.15613,46,92,42
454.16028,454.3561,58,92,42
454.3603,454.55612,46,92,42
454.5603,454.75613,58,92,42
454.76028,454.95612,46,92,42
454.9603,455.15613,58,92,42
455.16028,455.3561,46,92,42
455.3603,455.55612,58,92,42
455.5603,455.75613,46,92,42
455.76028,455.95612,58,92,42
455.9603,456.15613,46,92,42
456.16028,456.3561,58,92,42
456.3603,456.55612,46,92,42
456.5603,456.75613,58,92,42
456.76028,456.95612,46,92,42
456.9603,457.15613,58,92,42
457.16028,457.3561,46,92,42
457.3603,457.55612,58,92,42
457.5603,457.75613,46,92,42
457.76028,457.95612,58,92,42
457.9603,458.15613,46,92,42
458.16028,458.3561,58,92,42
458.3603,458.55612,67,92,42
458.5603,458.75613,57,92,42
458.76028,458.95612,65,92,42
458.9603,459.15613,57,92,42
459.16028,459.3561,64,92,42
459.3603,459.55612,57,90,42
459.5603,459.75613,62,88,42
459.76028,459.95612,57,86,42
459.9603,460.15613,61,84,42
460.16028,460.3561,45,82,42
460.3603,460.55612,58,80,42
460.5603,460.75613,45,78,42
460.76028,460.95612,57,105,42
460.9603,461.15613,45,75,42
461.16028,461.3561,55,105,42
461.3603,461.55612,45,75,42
461.5603,461.75613,57,105,42
461.76028,461.95612,45,75,42
461.9603,462.15613,58,105,42
462.16028,462.3561,45,75,42
462.3603,462.55612,57,105,42
462.5603,462.75613,45,75,42
462.76028,462.95612,55,105,42
462.9603,463.15613,45,75,42
463.16028,463.3561,57,105,42
463.3603,463.55612,50,75,42
463.5603,463.75613,58,105,42
463.76028,463.95612,50,75,42
463.9603,464.15613,57,105,42
464.16028,464.3561,50,75,42
464.3603,464.55612,55,105,42
464.5603,464.75613,50,75,42
464.76028,464.95612,54,105,42
464.9603,465.15613,50,75,42
465.16028,465.3561,38,105,42
465.3603,465.55612,50,75,42
465.5603,465.75613,43,75,42
465.9603,466.2936,46,92,42
466.3603,466.55356,45,92,42
466.55765,466.75092,43,92,42
466.75504,466.94827,42,92,42
466.9524,467.14566,43,92,42
467.14975,467.34302,51,92,42
467.34714,467.54037,49,92,42
467.5445,467.73776,50,92,42
467.74185,467.93512,57,92,42
467.93924,468.12997,54,92,42
468.13403,468.3248,55,92,42
468.32886,468.5196,63,92,42
468.52365,468.7144,61,92,42
468.71844,468.9092,62,92,42
468.91327,469.104,57,92,42
469.10806,469.2988,54,92,42
469.30286,469.49362,55,92,42
469.49768,469.68597,60,92,42
469.68997,469.8783,57,92,42
469.8823,470.0706,58,92,42
470.0746,470.2629,63,92,42
470.2669,470.4552,61,92,42
470.4592,470.64752,62,92,42
470.65152,470.8398,67,92,42
470.84384,471.03214,62,92,42
471.03613,471.22205,67,92,42
471.226,471.41193,62,92,42
471.4159,471.6018,67,92,42
471.60574,471.79166,62,92,42
471.79562,471.98154,67,92,42
472.36523,472.55118,62,92,42
472.5551,472.7387,67,92,42
473.1176,473.3012,62,92,42
473.3051,473.4887,67,92,42
473.8676,474.0512,50,92,42
474.0551,474.2387,55,92,42
474.6176,474.82745,50,92,42
474.8319,476.68906,55,92,42
476.68906,476.9828,43,92,42
74.89276,75.11872,58,60,45
75.12353,75.34949,53,60,45
75.3543,75.58026,46,60,45
75.58507,75.81103,53,60,45
75.815834,76.041794,58,60,45
76.04661,76.27257,53,60,45
76.277374,76.503334,46,60,45
76.50814,76.73411,53,60,45
76.738914,76.964874,58,60,45
76.96968,77.19564,46,60,45
77.20045,77.426414,45,60,45
77.43122,77.65718,57,60,45
77.66199,77.88795,55,60,45
77.89275,78.11872,43,60,45
78.12353,78.34949,45,60,45
78.354294,78.58025,57,60,45
78.58507,78.81103,62,60,45
78.815834,79.041794,50,60,45
79.0466,79.27256,48,60,45
79.277374,79.503334,60,60,45
79.50814,79.7341,58,60,45
79.73891,79.96487,46,60,45
79.96968,80.19564,45,60,45
80.20045,80.42641,57,60,45
80.43121,80.65718,55,60,45
80.66199,80.88795,43,60,45
80.89275,81.11871,48,60,45
81.12352,81.34949,60,60,45
81.354294,81.58025,62,60,45
81.58506,81.81102,50,60,45
81.81583,82.041794,38,60,45
82.0466,82.27256,50,60,45
82.27737,82.50333,43,60,45
82.50814,82.7341,43,60,45
82.50814,82.7341,50,60,45
82.73891,83.12352,43,84,45
82.73891,83.12352,50,84,45
83.20045,83.42641,43,60,45
83.43121,83.65717,43,60,45
83.43121,83.65717,50,60,45
83.66198,84.0466,43,84,45
83.66198,84.0466,50,84,45
84.12352,84.34948,43,60,45
84.35429,84.58025,43,60,45
84.35429,84.58025,50,60,45
84.58506,84.96967,43,84,45
84.58506,84.96967,50,84,45
85.04659,85.463264,43,60,45
85.04659,85.463264,50,60,45
85.04659,85.463264,58,60,45
86.11932,86.34528,58,60,45
86.35009,86.57605,53,60,45
86.580864,86.80682,46,60,45
86.81163,87.03759,53,60,45
87.0424,87.268364,58,60,45
87.27317,87.49913,53,60,45
87.50394,87.7299,46,60,45
87.7347,87.96067,53,60,45
87.96548,88.19144,58,60,45
88.19624,88.4222,46,60,45
88.42701,88.65298,45,60,45
88.65778,88.88374,57,60,45
88.88855,89.11451,55,60,45
89.11932,89.34528,43,60,45
89.35009,89.57605,45,60,45
89.58086,89.806816,57,60,45
89.81163,90.03759,62,60,45
90.0424,90.26836,50,60,45
90.27316,90.49912,48,60,45
90.50394,90.7299,60,60,45
90.7347,90.96066,58,60,45
90.96547,91.19144,46,60,45
91.19624,91.4222,45,60,45
91.42701,91.65297,57,60,45
91.657776,91.88374,55,60,45
91.88855,92.11451,43,60,45
92.119316,92.345276,48,60,45
92.35008,92.57605,60,60,45
92.58086,92.806816,62,60,45
92.81162,93.03758,50,60,45
93.0424,93.26836,38,60,45
93.27316,93.49912,50,60,45
93.50393,93.72989,43,60,45
93.7347,93.96066,43,60,45
93.7347,93.96066,50,60,45
93.96547,94.35008,43,84,45
93.96547,94.35008,50,84,45
94.42701,94.65297,43,60,45
94.657776,94.883736,43,60,45
94.657776,94.883736,50,60,45
94.88854,95.27316,43,84,45
94.88854,95.27316,50,84,45
95.35008,95.57604,43,60,45
95.58085,95.806816,43,60,45
95.58085,95.806816,50,60,45
95.81162,96.196236,43,84,45
95.81162,96.196236,50,84,45
96.273155,96.68983,43,60,45
96.273155,96.68983,50,60,45
96.273155,96.68983,58,60,45
108.19203,108.41799,57,60,45
108.4228,108.64876,58,60,45
108.653564,108.87953,53,60,45
108.88434,109.1103,46,60,45
109.115105,109.341064,53,60,45
109.34587,109.57184,58,60,45
109.576645,109.802605,53,60,45
109.80741,110.03337,46,60,45
110.03818,110.264145,53,60,45
110.26895,110.49491,58,60,45
110.49972,110.72568,46,60,45
110.73049,110.95645,45,60,45
110.96126,111.18722,57,60,45
111.192024,111.417984,55,60,45
111.4228,111.64876,43,60,45
111.653564,111.879524,48,60,45
111.88433,112.11029,60,60,45
112.115105,112.341064,65,60,45
112.34587,112.57183,53,60,45
112.57664,112.802605,51,60,45
112.80741,113.03337,63,60,45
113.03818,113.26414,62,60,45
113.26894,113.49491,50,60,45
113.49972,113.72568,48,60,45
113.730484,113.95644,60,60,45
113.96125,114.18722,58,60,45
114.192024,114.417984,46,60,45
114.42279,114.64875,51,60,45
114.653564,114.879524,63,60,45
114.88433,115.11029,65,60,45
115.1151,115.34106,53,60,45
115.34587,115.57183,41,60,45
115.57664,115.8026,53,60,45
115.8074,116.03337,46,60,45
116.03818,116.26414,46,60,45
116.03818,116.26414,53,60,45
116.26894,116.65356,46,84,45
116.26894,116.65356,54,84,45
116.730484,116.95644,46,60,45
116.96125,117.18721,46,60,45
116.96125,117.18721,53,60,45
117.19202,117.57664,46,84,45
117.19202,117.57664,54,84,45
117.65356,117.87952,46,60,45
117.88433,118.11029,46,60,45
117.88433,118.11029,53,60,45
118.1151,118.49971,46,84,45
118.1151,118.49971,54,84,45
118.57664,118.9933,46,60,45
118.57664,118.9933,53,60,45
118.57664,118.9933,62,60,45
130.4955,130.72147,57,60,45
130.72627,130.95224,58,60,45
130.95705,131.183,53,60,45
131.1878,131.41377,46,60,45
131.41858,131.64455,53,60,45
131.64935,131.8753,58,60,45
131.88011,132.10608,53,60,45
132.11089,132.33685,46,60,45
132.34166,132.56761,53,60,45
132.57242,132.79839,58,60,45
132.80319,133.02916,46,60,45
133.03397,133.25992,45,60,45
133.26472,133.49069,57,60,45
133.4955,133.72147,55,60,45
133.72627,133.95222,43,60,45
133.95705,134.183,48,60,45
134.1878,134.41377,60,60,45
134.41858,134.64453,65,60,45
134.64935,134.8753,53,60,45
134.88011,135.10608,51,60,45
135.11089,135.33684,63,60,45
135.34166,135.56761,62,60,45
135.57242,135.79839,50,60,45
135.80319,136.02916,48,60,45
136.03397,136.25992,60,60,45
136.26472,136.49069,58,60,45
136.4955,136.72147,46,60,45
136.72627,136.95222,51,60,45
136.95703,137.183,63,60,45
137.1878,137.41377,65,60,45
137.41858,137.64453,53,60,45
137.64934,137.8753,41,60,45
137.88011,138.10608,53,60,45
138.11089,138.33684,46,60,45
138.34164,138.56761,46,60,45
138.34164,138.56761,53,60,45
138.57242,138.95703,46,84,45
138.57242,138.95703,54,84,45
139.03395,139.25992,46,60,45
139.26472,139.49069,46,60,45
139.26472,139.49069,53,60,45
139.4955,139.88011,46,84,45
139.4955,139.88011,54,84,45
139.95703,140.183,46,60,45
140.1878,140.41376,46,60,45
140.1878,140.41376,53,60,45
140.41856,140.80319,46,84,45
140.41856,140.80319,54,84,45
140.88011,141.29677,46,60,45
140.88011,141.29677,53,60,45
140.88011,141.29677,62,60,45
278.83426,279.06024,55,60,45
279.06503,279.29102,50,60,45
279.2958,279.52176,43,60,45
279.52658,279.75253,50,60,45
279.75735,279.9833,55,60,45
279.98813,280.21408,50,60,45
280.21887,280.44485,43,60,45
280.44965,280.67563,50,60,45
280.68042,280.90637,55,60,45
280.9112,281.13715,43,60,45
281.14197,281.36792,42,60,45
281.37274,281.5987,54,60,45
281.6035,281.82947,52,60,45
281.83426,282.06024,40,60,45
282.06503,282.291,42,60,45
282.2958,282.52176,54,60,45
282.52658,282.75253,59,60,45
282.75735,282.9833,47,60,45
282.98813,283.21408,45,60,45
283.21887,283.44485,57,60,45
283.44965,283.6756,55,60,45
283.68042,283.90637,43,60,45
283.9112,284.13715,42,60,45
284.14197,284.36792,54,60,45
284.37274,284.5987,52,60,45
284.6035,284.82947,40,60,45
284.83426,285.06024,45,60,45
285.06503,285.291,57,60,45
285.2958,285.52176,59,60,45
285.52658,285.75253,47,60,45
285.75735,285.9833,59,60,45
285.9881,286.21408,47,60,45
286.21887,286.44485,40,60,45
286.44965,286.6756,40,60,45
286.44965,286.6756,47,60,45
286.68042,287.06503,40,84,45
286.68042,287.06503,47,84,45
287.14197,287.36792,40,60,45
287.3727,287.5987,40,60,45
287.3727,287.5987,47,60,45
287.6035,287.9881,40,84,45
287.6035,287.9881,47,84,45
288.06503,288.291,40,60,45
288.2958,288.52176,40,60,45
288.2958,288.52176,47,60,45
288.52658,288.9112,40,84,45
288.52658,288.9112,47,84,45
288.9881,289.3727,40,60,45
288.9881,289.3727,47,60,45
288.9881,289.3727,52,60,45
0.8076915,0.923076,62,75,0
0.923076,1.2644218,58,105,0
0.923076,1.2644218,67,105,0
1.2692295,1.384614,67,75,0
1.384614,1.7259598,62,105,0
1.384614,1.7259598,70,105,0
1.7307675,1.846152,70,75,0
1.846152,1.923075,60,75,0
1.846152,1.923075,69,75,0
2.076921,2.153844,58,75,0
2.076921,2.153844,67,75,0
2.30769,2.384613,57,75,0
2.30769,2.384613,66,75,0
2.538459,2.615382,58,75,0
2.538459,2.615382,67,75,0
2.769228,3.153843,62,105,0
2.769228,3.153843,66,105,0
2.769228,3.153843,74,105,0
3.230766,3.5721118,62,105,0
3.230766,3.5721118,66,105,0
3.230766,3.5721118,69,105,0
3.5769196,3.692304,62,75,0
3.692304,4.03365,58,105,0
3.692304,4.03365,67,105,0
4.0384574,4.153842,67,75,0
4.153842,4.4951878,62,105,0
4.153842,4.4951878,70,105,0
4.4999957,4.61538,70,75,0
4.61538,4.692303,60,75,0
4.61538,4.692303,69,75,0
4.846149,4.923072,58,75,0
4.846149,4.923072,67,75,0
5.076918,5.153841,57,75,0
5.076918,5.153841,66,75,0
5.307687,5.38461,58,75,0
5.307687,5.38461,67,75,0
5.538456,5.615379,62,75,0
5.538456,5.615379,70,75,0
5.538456,5.615379,74,75,0
5.769225,5.846148,64,75,0
5.769225,5.846148,73,75,0
5.769225,5.846148,76,75,0
5.999994,6.3413396,66,105,0
5.999994,6.3413396,74,105,0
5.999994,6.3413396,78,105,0
6.3461475,6.461532,74,75,0
6.461532,6.802878,67,105,0
6.461532,6.802878,79,105,0
6.8076854,6.92307,79,75,0
6.92307,7.2644157,70,105,0
6.92307,7.2644157,74,105,0
6.92307,7.2644157,82,105,0
7.2692237,7.384608,82,75,0
7.384608,7.461531,72,75,0
7.384608,7.461531,81,75,0
7.615377,7.6923,70,75,0
7.615377,7.6923,79,75,0
7.846146,7.923069,69,75,0
7.846146,7.923069,78,75,0
8.076915,8.153838,70,75,0
8.076915,8.153838,79,75,0
8.307684,8.692299,74,105,0
8.307684,8.692299,78,105,0
8.307684,8.692299,86,105,0
8.769222,9.110568,69,105,0
8.769222,9.110568,78,105,0
8.769222,9.110568,81,105,0
9.1153755,9.23076,74,75,0
9.23076,9.572105,67,105,0
9.23076,9.572105,70,105,0
9.23076,9.572105,79,105,0
9.576914,9.692298,79,75,0
9.692298,10.033644,70,105,0
9.692298,10.033644,74,105,0
9.692298,10.033644,82,105,0
10.038451,10.153836,82,75,0
10.153836,10.230759,72,75,0
10.153836,10.230759,81,75,0
10.384605,10.461528,70,75,0
10.384605,10.461528,79,75,0
10.615374,10.692297,69,75,0
10.615374,10.692297,78,75,0
10.846143,10.923066,70,75,0
10.846143,10.923066,79,75,0
11.076912,11.153835,74,75,0
11.076912,11.153835,82,75,0
11.076912,11.153835,86,75,0
11.307681,11.384604,76,75,0
11.307681,11.384604,85,75,0
11.307681,11.384604,88,75,0
11.53845,11.923065,78,105,0
11.53845,11.923065,86,105,0
11.53845,11.923065,90,105,0
11.999988,12.384603,79,105,0
11.999988,12.384603,87,105,0
11.999988,12.384603,91,105,0
12.461526,12.576911,77,75,0
12.461526,12.576911,86,75,0
12.461526,12.576911,89,75,0
12.576911,12.692295,91,75,0
12.692295,12.769218,77,75,0
12.692295,12.769218,86,75,0
12.692295,12.769218,89,75,0
12.923064,13.307679,75,105,0
12.923064,13.307679,84,105,0
12.923064,13.307679,87,105,0
13.384602,13.769217,74,105,0
13.384602,13.769217,82,105,0
13.384602,13.769217,86,105,0
13.84614,13.961525,72,75,0
13.84614,13.961525,81,75,0
13.84614,13.961525,84,75,0
13.961525,14.076909,86,75,0
14.076909,14.153832,72,75,0
14.076909,14.153832,81,75,0
14.076909,14.153832,84,75,0
14.307678,14.384601,70,75,0
14.307678,14.384601,79,75,0
14.307678,14.384601,82,75,0
14.538447,14.61537,67,75,0
14.538447,14.61537,75,75,0
14.538447,14.61537,79,75,0
14.769216,15.153831,79,105,0
14.769216,15.153831,88,105,0
14.769216,15.153831,91,105,0
15.230754,15.346139,77,75,0
15.230754,15.346139,86,75,0
15.230754,15.346139,89,75,0
15.346139,15.461523,91,75,0
15.461523,15.538446,77,75,0
15.461523,15.538446,86,75,0
15.461523,15.538446,89,75,0
15.692292,16.076906,76,105,0
15.692292,16.076906,85,105,0
15.692292,16.076906,88,105,0
16.15383,16.538445,74,105,0
16.15383,16.538445,82,105,0
16.15383,16.538445,86,105,0
16.615368,16.730753,73,75,0
16.615368,16.730753,81,75,0
16.615368,16.730753,85,75,0
16.730753,16.846136,86,75,0
16.846136,16.92306,73,75,0
16.846136,16.92306,81,75,0
16.846136,16.92306,85,75,0
17.076906,17.16024,70,75,0
17.076906,17.16024,79,75,0
17.076906,17.16024,82,75,0
17.326906,17.426907,69,75,0
17.326906,17.426907,78,75,0
17.326906,17.426907,81,75,0
17.551907,17.626905,61,75,0
17.626905,17.968252,58,105,0
17.626905,17.968252,67,105,0
17.973059,18.088444,67,75,0
18.088444,18.42979,62,105,0
18.088444,18.42979,70,105,0
18.434597,18.549982,70,75,0
18.549982,18.626905,60,75,0
18.549982,18.626905,69,75,0
18.78075,18.857674,58,75,0
18.78075,18.857674,67,75,0
19.01152,19.088444,57,75,0
19.01152,19.088444,66,75,0
19.242289,19.319212,58,75,0
19.242289,19.319212,67,75,0
19.473059,19.857674,62,105,0
19.473059,19.857674,66,105,0
19.473059,19.857674,74,105,0
19.934595,20.275942,62,105,0
19.934595,20.275942,66,105,0
19.934595,20.275942,69,105,0
20.28075,20.396133,62,75,0
20.396133,20.73748,58,105,0
20.396133,20.73748,67,105,0
20.742287,20.857672,67,75,0
20.857672,21.199018,62,105,0
20.857672,21.199018,70,105,0
21.203825,21.31921,70,75,0
21.31921,21.396133,60,75,0
21.31921,21.396133,69,75,0
21.549978,21.626902,58,75,0
21.549978,21.626902,67,75,0
21.780748,21.857672,57,75,0
21.780748,21.857672,66,75,0
22.011517,22.08844,58,75,0
22.011517,22.08844,67,75,0
22.242287,22.319208,62,75,0
22.242287,22.319208,70,75,0
22.242287,22.319208,74,75,0
22.473055,22.549978,64,75,0
22.473055,22.549978,73,75,0
22.473055,22.549978,76,75,0
22.703823,23.04517,66,105,0
22.703823,23.04517,74,105,0
22.703823,23.04517,78,105,0
23.049978,23.165361,74,75,0
23.165361,23.506708,67,105,0
23.165361,23.506708,79,105,0
23.511515,23.6269,79,75,0
23.6269,23.968246,70,105,0
23.6269,23.968246,74,105,0
23.6269,23.968246,82,105,0
23.973053,24.088438,82,75,0
24.088438,24.165361,72,75,0
24.088438,24.165361,81,75,0
24.319206,24.39613,70,75,0
24.319206,24.39613,79,75,0
24.549976,24.6269,69,75,0
24.549976,24.6269,78,75,0
24.780745,24.857668,70,75,0
24.780745,24.857668,79,75,0
25.011515,25.39613,74,105,0
25.011515,25.39613,78,105,0
25.011515,25.39613,86,105,0
25.473051,25.814398,69,105,0
25.473051,25.814398,78,105,0
25.473051,25.814398,81,105,0
25.819206,25.93459,83,75,0
25.93459,26.275936,74,105,0
25.93459,26.275936,79,105,0
25.93459,26.275936,86,105,0
26.280743,26.396128,86,75,0
26.396128,26.737474,79,105,0
26.396128,26.737474,83,105,0
26.396128,26.737474,91,105,0
26.742281,26.857666,91,75,0
26.857666,26.93459,80,75,0
26.857666,26.93459,89,75,0
27.088434,27.165358,79,79,0
27.088434,27.165358,87,79,0
27.319204,27.396128,77,83,0
27.319204,27.396128,86,83,0
27.549973,27.626896,79,87,0
27.549973,27.626896,87,87,0
27.780743,27.917105,69,92,0
27.780743,27.917105,72,92,0
27.780743,27.917105,78,92,0
28.326197,28.462559,67,92,0
28.326197,28.462559,70,92,0
28.326197,28.462559,79,92,0
30.025496,30.251457,62,60,0
30.025496,30.251457,66,60,0
30.025496,30.251457,69,60,0
30.025496,30.251457,72,60,0
30.025496,30.251457,74,60,0
30.487034,30.712994,62,60,0
30.487034,30.712994,66,60,0
30.487034,30.712994,69,60,0
30.487034,30.712994,72,60,0
30.487034,30.712994,74,60,0
30.94857,31.174532,62,60,0
30.94857,31.174532,67,60,0
30.94857,31.174532,70,60,0
30.94857,31.174532,74,60,0
31.410109,31.63607,62,60,0
31.410109,31.63607,67,60,0
31.410109,31.63607,70,60,0
31.410109,31.63607,74,60,0
32.794724,33.020683,65,60,0
32.794724,33.020683,72,60,0
32.794724,33.020683,75,60,0
32.794724,33.020683,77,60,0
33.25626,33.482224,65,60,0
33.25626,33.482224,69,60,0
33.25626,33.482224,72,60,0
33.25626,33.482224,75,60,0
33.25626,33.482224,77,60,0
33.7178,33.94376,65,60,0
33.7178,33.94376,70,60,0
33.7178,33.94376,74,60,0
33.7178,33.94376,77,60,0
34.179337,34.4053,65,60,0
34.179337,34.4053,70,60,0
34.179337,34.4053,74,60,0
34.179337,34.4053,77,60,0
35.333183,35.717796,61,84,0
35.79472,36.179337,62,84,0
36.256256,36.640873,65,84,0
36.256256,36.640873,73,84,0
36.256256,36.640873,77,84,0
36.717796,37.10241,66,84,0
36.717796,37.10241,74,84,0
36.717796,37.10241,78,84,0
37.179333,37.28991,80,92,0
37.29472,37.405296,81,92,0
37.410103,37.52068,83,92,0
37.525486,37.636063,85,92,0
37.640873,37.75145,87,92,0
37.756256,37.866833,89,92,0
37.87164,37.98222,90,92,0
37.987026,38.097603,92,92,0
38.10241,38.212986,93,92,0
38.217796,38.328373,92,92,0
38.33318,38.443756,93,92,0
38.448563,38.55914,92,92,0
38.56395,38.64087,93,92,0
38.794716,38.87164,90,92,0
39.025486,39.136063,94,92,0
39.14087,39.251446,93,92,0
39.256256,39.366833,94,92,0
39.37164,39.482216,91,92,0
39.487022,39.563946,93,92,0
39.717793,39.794716,90,92,0
39.948563,40.05914,80,92,0
40.063946,40.174522,81,92,0
40.179333,40.28991,83,92,0
40.294716,40.405293,85,92,0
40.4101,40.520676,87,92,0
40.525486,40.636063,89,92,0
40.64087,40.751446,90,92,0
40.756252,40.86683,92,92,0
40.87164,40.982216,93,92,0
40.987022,41.0976,92,92,0
41.102406,41.212982,93,92,0
40.87164,41.256252,81,92,0
41.217793,41.32837,90,92,0
41.333176,41.443752,93,92,0
41.44856,41.559135,92,92,0
41.563946,41.674522,93,92,0
41.333176,41.717793,81,92,0
41.67933,41.789906,90,92,0
41.794716,41.905293,94,92,0
41.9101,42.020676,93,92,0
42.025482,42.13606,94,92,0
41.794716,42.17933,82,92,0
42.14087,42.251446,91,92,0
42.256252,42.36683,93,92,0
42.371635,42.482212,92,92,0
42.487022,42.5976,93,92,0
42.256252,42.640865,81,92,0
42.602406,42.712982,90,92,0
42.71779,43.102406,78,105,0
42.71779,43.102406,84,105,0
42.71779,43.102406,90,105,0
43.17933,43.563942,79,105,0
43.17933,43.563942,82,105,0
43.17933,43.563942,91,105,0
43.871635,44.097595,74,60,0
43.871635,44.097595,81,60,0
43.871635,44.097595,84,60,0
43.871635,44.097595,86,60,0
44.33317,44.559135,74,60,0
44.33317,44.559135,81,60,0
44.33317,44.559135,84,60,0
44.33317,44.559135,86,60,0
44.794712,45.02067,74,60,0
44.794712,45.02067,79,60,0
44.794712,45.02067,82,60,0
44.794712,45.02067,86,60,0
45.25625,45.482212,74,60,0
45.25625,45.482212,79,60,0
45.25625,45.482212,82,60,0
45.25625,45.482212,86,60,0
45.48702,45.87163,81,105,0
45.48702,45.87163,87,105,0
45.48702,45.87163,93,105,0
45.948555,46.33317,82,105,0
45.948555,46.33317,86,105,0
45.948555,46.33317,94,105,0
46.64086,46.866825,77,60,0
46.64086,46.866825,84,60,0
46.64086,46.866825,87,60,0
46.64086,46.866825,89,60,0
47.1024,47.32836,77,60,0
47.1024,47.32836,84,60,0
47.1024,47.32836,87,60,0
47.1024,47.32836,89,60,0
47.56394,47.7899,77,53,0
47.56394,47.7899,82,53,0
47.56394,47.7899,86,53,0
47.56394,47.7899,89,53,0
48.02548,48.25144,77,45,0
48.02548,48.25144,82,45,0
48.02548,48.25144,86,45,0
48.02548,48.25144,89,45,0
48.256245,48.64086,85,105,0
48.256245,48.64086,97,105,0
48.717785,49.102398,86,105,0
48.717785,49.102398,98,105,0
49.17932,49.56394,73,105,0
49.17932,49.56394,81,105,0
49.17932,49.56394,85,105,0
49.64086,50.025475,74,105,0
49.64086,50.025475,82,105,0
49.64086,50.025475,86,105,0
50.102398,50.487015,61,105,0
50.102398,50.487015,69,105,0
50.102398,50.487015,73,105,0
50.563934,50.94855,62,105,0
50.563934,50.94855,70,105,0
50.563934,50.94855,74,105,0
51.256245,51.482204,69,60,0
51.256245,51.482204,76,60,0
51.256245,51.482204,79,60,0
51.71778,51.94374,69,60,0
51.71778,51.94374,76,60,0
51.71778,51.94374,79,60,0
52.179317,52.40528,65,57,0
52.179317,52.40528,69,57,0
52.179317,52.40528,77,57,0
52.640858,52.866817,65,53,0
52.640858,52.866817,70,53,0
52.640858,52.866817,74,53,0
53.102394,53.328358,64,49,0
53.102394,53.328358,70,49,0
53.102394,53.328358,74,49,0
53.563934,53.789894,65,45,0
53.563934,53.789894,69,45,0
53.563934,53.789894,74,45,0
53.7947,53.905277,76,92,0
53.910088,54.020664,77,92,0
54.02547,54.136047,79,92,0
54.140854,54.25143,81,92,0
54.25624,54.366817,83,92,0
54.371624,54.4822,85,92,0
54.487007,54.597588,86,92,0
54.602394,54.71297,88,92,0
54.717777,54.828354,89,92,0
54.833164,54.94374,88,92,0
54.948547,55.059124,89,92,0
54.717777,55.102394,77,92,0
55.06393,55.174507,86,92,0
55.179317,55.289894,89,92,0
55.2947,55.405277,88,92,0
55.410084,55.52066,89,92,0
55.179317,55.56393,77,92,0
55.52547,55.636047,86,92,0
55.640854,55.75143,91,92,0
55.756237,55.866814,89,92,0
55.871624,55.9822,91,92,0
55.640854,56.02547,79,92,0
55.987007,56.097584,87,92,0
56.10239,56.212967,89,92,0
56.217777,56.328354,87,92,0
56.33316,56.443737,89,92,0
56.10239,56.487007,77,92,0
56.448547,56.559124,86,92,0
56.56393,56.674507,91,92,0
56.679314,56.78989,87,92,0
56.7947,56.905277,79,92,0
56.910084,57.02066,91,92,0
57.025467,57.136044,89,92,0
57.140854,57.25143,86,92,0
57.256237,57.366814,77,92,0
57.37162,57.482197,89,92,0
57.487007,57.597584,87,92,0
57.60239,57.712967,84,92,0
57.717773,57.82835,75,92,0
57.83316,57.943737,87,92,0
57.948544,58.05912,86,92,0
58.063927,58.174507,82,92,0
58.179314,58.28989,74,92,0
58.294697,58.405273,86,92,0
58.410084,58.52066,84,92,0
58.525467,58.636044,80,92,0
58.64085,58.751427,72,92,0
58.756237,58.866814,84,92,0
58.87162,58.982197,82,92,0
58.987003,59.09758,79,92,0
59.10239,59.212967,70,92,0
59.217773,59.32835,82,92,0
59.333157,59.443733,91,92,0
59.448544,59.55912,88,92,0
59.563927,59.674503,79,92,0
59.67931,59.789886,91,92,0
59.794697,59.905273,89,92,0
59.91008,60.020657,86,92,0
60.025463,60.136044,77,92,0
60.14085,60.251427,89,92,0
60.256233,60.36681,88,92,0
60.37162,60.482197,84,92,0
60.487003,60.59758,76,92,0
60.602386,60.712963,88,92,0
60.717773,60.82835,86,92,0
60.833157,60.943733,82,92,0
60.94854,61.059116,74,92,0
61.063927,61.174503,86,92,0
61.17931,61.289886,84,92,0
61.294693,61.40527,81,92,0
61.41008,61.520657,72,92,0
61.525463,61.63604,84,92,0
61.640846,61.74085,70,92,0
61.640846,61.74085,79,92,0
61.640846,61.74085,82,92,0
61.94085,62.06585,69,92,0
61.94085,62.06585,78,92,0
61.94085,62.06585,81,92,0
62.12835,62.31585,62,127,0
62.31585,62.657192,58,105,0
62.31585,62.657192,67,105,0
62.662003,62.777386,67,105,0
62.777386,63.118732,62,105,0
62.777386,63.118732,70,105,0
63.12354,63.238922,70,105,0
63.238922,63.315845,60,75,0
63.238922,63.315845,69,75,0
63.469692,63.546616,58,75,0
63.469692,63.546616,67,75,0
63.700462,63.777386,57,75,0
63.700462,63.777386,66,75,0
63.931232,64.008156,58,75,0
63.931232,64.008156,67,75,0
64.162,64.546616,62,105,0
64.162,64.546616,66,105,0
64.162,64.546616,74,105,0
64.623535,64.96488,62,105,0
64.623535,64.96488,66,105,0
64.623535,64.96488,69,105,0
64.96969,65.085075,62,105,0
65.085075,65.42642,58,105,0
65.085075,65.42642,67,105,0
65.43123,65.546616,67,105,0
65.546616,65.88796,62,105,0
65.546616,65.88796,70,105,0
65.89277,66.00815,70,105,0
66.00815,66.085075,60,75,0
66.00815,66.085075,69,75,0
66.23892,66.31584,58,75,0
66.23892,66.31584,67,75,0
66.46969,66.546616,57,75,0
66.46969,66.546616,66,75,0
66.70046,66.77738,58,75,0
66.70046,66.77738,67,75,0
66.93123,67.15719,62,75,0
66.93123,67.15719,70,75,0
66.93123,67.15719,74,75,0
67.161995,67.387955,64,75,0
67.161995,67.387955,73,75,0
67.161995,67.387955,76,75,0
67.39277,67.734116,66,105,0
67.39277,67.734116,74,105,0
67.39277,67.734116,78,105,0
67.73892,67.8543,74,105,0
67.8543,68.19565,67,105,0
67.8543,68.19565,79,105,0
68.200455,68.31584,79,105,0
68.31584,68.65719,70,105,0
68.31584,68.65719,74,105,0
68.31584,68.65719,82,105,0
68.661995,68.77738,82,105,0
68.77738,68.8543,72,75,0
68.77738,68.8543,81,75,0
69.00815,69.085075,70,75,0
69.00815,69.085075,79,75,0
69.238914,69.31584,69,75,0
69.238914,69.31584,78,75,0
69.46969,69.54661,70,75,0
69.46969,69.54661,79,75,0
69.700455,70.08507,74,105,0
69.700455,70.08507,78,105,0
69.700455,70.08507,86,105,0
70.161995,70.50334,69,105,0
70.161995,70.50334,78,105,0
70.161995,70.50334,81,105,0
70.50815,70.623535,83,105,0
70.623535,70.964874,74,105,0
70.623535,70.964874,79,105,0
70.623535,70.964874,86,105,0
70.96969,71.08507,86,105,0
71.08507,71.426414,79,105,0
71.08507,71.426414,83,105,0
71.08507,71.426414,91,105,0
71.43122,71.54661,91,105,0
71.54661,71.62353,80,75,0
71.54661,71.62353,89,75,0
71.777374,71.8543,79,75,0
71.777374,71.8543,87,75,0
72.00815,72.08507,77,75,0
72.00815,72.08507,86,75,0
72.238914,72.31584,79,75,0
72.238914,72.31584,87,75,0
72.46968,72.58507,69,92,0
72.46968,72.58507,72,92,0
72.46968,72.58507,78,92,0
72.93122,73.04661,67,92,0
72.93122,73.04661,70,92,0
72.93122,73.04661,79,92,0
74.89276,75.003334,77,84,0
75.00815,75.11872,79,60,0
75.12353,75.23411,77,60,0
75.238914,75.34949,75,60,0
75.3543,75.464874,74,60,0
75.46968,75.58026,75,60,0
75.58507,75.69564,74,60,0
75.700455,75.81103,75,60,0
75.815834,75.926414,77,84,0
75.93122,76.041794,79,60,0
76.04661,76.15718,77,60,0
76.16199,76.27257,75,60,0
76.277374,76.38795,74,60,0
76.39276,76.503334,75,60,0
76.50814,76.61872,74,60,0
76.62353,76.73411,75,60,0
76.738914,76.84949,77,60,0
76.854294,76.964874,79,60,0
76.96968,77.08026,77,60,0
77.08507,77.19564,79,60,0
77.20045,77.31103,81,60,0
77.315834,77.426414,82,60,0
77.43122,77.541794,81,60,0
77.5466,77.65718,82,60,0
77.66199,77.77257,84,60,0
77.777374,77.88795,82,60,0
77.89275,78.003334,84,60,0
78.00814,78.11872,82,60,0
78.12353,78.2341,81,60,0
78.23891,78.34949,79,60,0
78.354294,78.464874,81,60,0
78.46968,78.58025,79,60,0
78.58507,78.69564,77,60,0
78.70045,78.81103,79,60,0
78.815834,78.92641,77,60,0
78.93122,79.041794,79,60,0
79.0466,79.15718,81,60,0
79.16199,79.27256,84,60,0
79.277374,79.38795,81,60,0
79.39275,79.503334,84,60,0
79.50814,79.61871,89,60,0
79.62353,79.7341,87,60,0
79.73891,79.84949,89,60,0
79.854294,79.96487,87,60,0
79.96968,80.08025,86,60,0
80.08506,80.19564,84,60,0
80.20045,80.31103,86,60,0
80.315834,80.42641,84,60,0
80.43121,80.541794,82,60,0
80.5466,80.65718,86,60,0
80.66199,80.77256,82,60,0
80.77737,80.88795,86,60,0
80.89275,81.003334,92,60,0
81.00814,81.11871,84,60,0
81.12352,81.2341,92,60,0
81.23891,81.34949,84,60,0
81.354294,81.46487,82,60,0
81.46967,81.58025,91,60,0
81.58506,81.69564,82,60,0
81.70045,81.81102,91,60,0
81.81583,81.92641,90,60,0
81.93121,82.041794,81,60,0
82.0466,82.15717,90,60,0
82.16199,82.27256,81,60,0
82.27737,82.38795,91,60,0
82.39275,82.50333,86,60,0
82.50814,82.61871,82,60,0
82.62352,82.7341,79,60,0
82.73891,82.84948,81,60,0
82.854294,82.96487,82,60,0
82.96967,83.08025,84,60,0
83.08506,83.19563,86,60,0
83.20045,83.31102,91,60,0
83.31583,83.42641,86,60,0
83.43121,83.54179,82,60,0
83.5466,83.65717,79,60,0
83.66198,83.77256,81,60,0
83.77737,83.88795,82,60,0
83.89275,84.00333,84,60,0
84.00813,84.11871,86,60,0
84.12352,84.2341,91,60,0
84.23891,84.34948,86,60,0
84.35429,84.46487,82,60,0
84.46967,84.58025,79,60,0
84.58506,84.69563,81,60,0
84.70044,84.81102,82,60,0
84.81583,84.92641,84,60,0
84.93121,85.04179,86,60,0
85.04659,85.16639,91,60,0
85.17159,85.29139,86,60,0
85.29659,85.41639,82,60,0
85.42159,85.54139,79,60,0
86.11932,86.2299,77,84,0
86.23471,86.34528,79,60,0
86.35009,86.46067,77,60,0
86.46548,86.57605,75,60,0
86.580864,86.69144,74,60,0
86.69624,86.80682,75,60,0
86.81163,86.9222,74,60,0
86.92702,87.03759,75,60,0
87.0424,87.15298,77,84,0
87.15778,87.268364,79,60,0
87.27317,87.38374,77,60,0
87.38855,87.49913,75,60,0
87.50394,87.61452,74,60,0
87.61932,87.7299,75,60,0
87.7347,87.84528,74,60,0
87.85009,87.96067,75,60,0
87.96548,88.07605,77,60,0
88.08086,88.19144,79,60,0
88.19624,88.30682,77,60,0
88.31163,88.4222,79,60,0
88.42701,88.53759,81,60,0
88.5424,88.65298,82,60,0
88.65778,88.76836,81,60,0
88.77316,88.88374,82,60,0
88.88855,88.99913,84,60,0
89.00394,89.11451,82,60,0
89.11932,89.2299,84,60,0
89.2347,89.34528,82,60,0
89.35009,89.46066,81,60,0
89.46548,89.57605,79,60,0
89.58086,89.69144,81,60,0
89.69624,89.806816,79,60,0
89.81163,89.9222,77,60,0
89.92701,90.03759,79,60,0
90.0424,90.15297,77,60,0
90.15778,90.26836,79,60,0
90.27316,90.38374,81,60,0
90.38855,90.49912,84,60,0
90.50394,90.61451,81,60,0
90.619316,90.7299,84,60,0
90.7347,90.84528,89,60,0
90.85009,90.96066,87,60,0
90.96547,91.07605,89,60,0
91.08086,91.19144,87,60,0
91.19624,91.306816,86,60,0
91.31162,91.4222,84,60,0
91.42701,91.53759,86,60,0
91.5424,91.65297,84,60,0
91.657776,91.76836,82,60,0
91.77316,91.88374,86,60,0
91.88855,91.99912,82,60,0
92.00393,92.11451,86,60,0
92.119316,92.2299,92,60,0
92.2347,92.345276,84,60,0
92.35008,92.46066,92,60,0
92.46547,92.57605,84,60,0
92.58086,92.69143,82,60,0
92.69624,92.806816,91,60,0
92.81162,92.9222,82,60,0
92.92701,93.03758,91,60,0
93.0424,93.15297,90,60,0
93.157776,93.26836,81,60,0
93.27316,93.383736,90,60,0
93.38855,93.49912,81,60,0
93.50393,93.61451,91,60,0
93.619316,93.72989,86,60,0
93.7347,93.845276,82,60,0
93.85008,93.96066,79,60,0
93.96547,94.07604,81,60,0
94.08086,94.19143,82,60,0
94.196236,94.306816,84,60,0
94.31162,94.4222,86,60,0
94.42701,94.53758,91,60,0
94.54239,94.65297,86,60,0
94.657776,94.76836,82,60,0
94.77316,94.883736,79,60,0
94.88854,94.99912,81,60,0
95.00393,95.11451,82,60,0
95.119316,95.22989,84,60,0
95.234695,95.345276,86,60,0
95.35008,95.46066,91,60,0
95.46547,95.57604,86,60,0
95.58085,95.69143,82,60,0
95.696236,95.806816,79,60,0
95.81162,95.922195,81,60,0
95.927,96.03758,82,60,0
96.04239,96.15297,84,60,0
96.157776,96.26835,86,60,0
96.273155,96.39295,91,60,0
96.398155,96.51795,86,60,0
96.523155,96.64295,82,60,0
96.648155,96.76795,79,60,0
97.34589,97.45646,71,84,0
97.46127,97.571846,72,60,0
97.57665,97.68723,71,60,0
97.69204,97.80262,72,60,0
97.80743,97.918,74,60,0
97.922806,98.03339,72,60,0
98.03819,98.14877,74,60,0
98.15358,98.26415,72,60,0
98.26896,98.37954,71,84,0
98.384346,98.49493,72,60,0
98.49973,98.610306,71,60,0
98.61511,98.72569,72,60,0
98.7305,98.84108,74,60,0
98.84589,98.95646,72,60,0
98.961266,99.071846,74,60,0
99.07665,99.18723,72,60,0
99.19204,99.30261,71,60,0
99.30742,99.418,72,60,0
99.422806,99.53339,71,60,0
99.53819,99.648766,72,60,0
99.65358,99.76415,74,60,0
99.76896,99.87954,76,60,0
99.884346,99.99492,74,60,0
99.99973,100.110306,76,60,0
100.11511,100.22569,77,60,0
100.2305,100.34107,76,60,0
100.34589,100.45646,77,60,0
100.461266,100.571846,76,60,0
100.57665,100.687225,75,60,0
100.69204,100.80261,76,60,0
100.80742,100.918,74,60,0
100.922806,101.03338,76,60,0
101.03819,101.148766,73,84,0
101.15357,101.26415,74,60,0
101.26896,101.37954,73,60,0
101.384346,101.49492,74,60,0
101.499725,101.610306,76,60,0
101.61511,101.72569,74,60,0
101.7305,101.84107,76,60,0
101.84588,101.95646,74,60,0
101.961266,102.071846,73,84,0
102.07665,102.187225,74,60,0
102.19203,102.30261,73,60,0
102.30742,102.418,74,60,0
102.422806,102.53338,76,60,0
102.538185,102.648766,74,60,0
102.65357,102.76415,76,60,0
102.76896,102.87953,74,60,0
102.88434,102.99492,73,60,0
102.999725,103.110306,74,60,0
103.11511,103.225685,73,60,0
103.2305,103.34107,74,60,0
103.34588,103.45646,76,60,0
103.461266,103.57184,78,60,0
103.57665,103.687225,76,60,0
103.69203,103.80261,78,60,0
103.80742,103.91799,79,60,0
103.922806,104.03338,78,60,0
104.038185,104.148766,79,60,0
104.15357,104.264145,78,60,0
104.26896,104.37953,77,60,0
104.38434,104.49492,78,60,0
104.499725,104.6103,76,60,0
104.61511,104.725685,78,60,0
104.73049,104.84107,74,60,0
104.84588,104.95646,76,60,0
104.961266,105.07184,74,60,0
105.076645,105.187225,76,60,0
105.19203,105.30261,78,60,0
105.30742,105.41799,79,60,0
105.4228,105.53338,78,60,0
105.538185,105.648766,79,60,0
105.65357,105.764145,81,60,0
105.76895,105.87953,83,60,0
105.88434,105.99492,81,60,0
105.999725,106.1103,83,60,0
106.115105,106.225685,79,60,0
106.23049,106.34107,81,60,0
106.34588,106.45645,79,60,0
106.46126,106.57184,81,60,0
106.576645,106.687225,78,60,0
106.69203,106.802605,79,60,0
106.80741,106.91799,78,60,0
106.9228,107.03338,79,60,0
107.038185,107.14876,78,60,0
107.15357,107.264145,79,60,0
107.26895,107.37953,78,60,0
107.38434,107.49491,79,60,0
107.499725,107.6103,77,84,0
107.615105,107.725685,79,60,0
107.73049,107.841064,77,60,0
107.84588,107.95645,79,60,0
107.96126,108.07184,77,60,0
108.076645,108.18722,79,60,0
108.19203,108.302605,77,60,0
108.30741,108.41799,79,60,0
108.4228,108.53338,77,84,0
108.538185,108.64876,79,60,0
108.653564,108.764145,77,60,0
108.76895,108.87953,75,60,0
108.88434,108.99491,74,60,0
108.99972,109.1103,75,60,0
109.115105,109.225685,74,60,0
109.23049,109.341064,75,60,0
109.34587,109.45645,77,84,0
109.46126,109.57184,79,60,0
109.576645,109.68722,77,60,0
109.692024,109.802605,75,60,0
109.80741,109.91799,74,60,0
109.9228,110.03337,75,60,0
110.03818,110.14876,74,60,0
110.153564,110.264145,75,60,0
110.26895,110.379524,77,60,0
110.38433,110.49491,79,64,0
110.49972,110.6103,77,68,0
110.615105,110.72568,79,72,0
110.73049,110.841064,81,76,0
110.84587,110.95645,82,80,0
110.96126,111.07183,81,84,0
111.076645,111.18722,82,88,0
111.192024,111.302605,84,92,0
111.30741,111.417984,82,92,0
111.4228,111.53337,84,88,0
111.53818,111.64876,82,84,0
111.653564,111.76414,81,80,0
111.76895,111.879524,79,75,0
111.88433,111.99491,81,70,0
111.99972,112.11029,79,65,0
112.115105,112.22568,77,60,0
112.230484,112.341064,79,60,0
112.34587,112.45645,77,64,0
112.46126,112.57183,79,68,0
112.57664,112.68722,81,72,0
112.692024,112.802605,84,77,0
112.80741,112.917984,81,82,0
112.92279,113.03337,84,87,0
113.03818,113.14876,93,92,0
113.153564,113.26414,91,92,0
113.26894,113.379524,93,88,0
113.38433,113.49491,91,84,0
113.49972,113.61029,89,80,0
113.6151,113.72568,87,75,0
113.730484,113.841064,89,70,0
113.84587,113.95644,87,65,0
113.96125,114.07183,86,60,0
114.07664,114.18722,89,60,0
114.192024,114.3026,86,60,0
114.30741,114.417984,89,60,0
114.42279,114.53337,96,60,0
114.53818,114.64875,87,60,0
114.653564,114.76414,96,60,0
114.76894,114.879524,87,60,0
114.88433,114.9949,86,60,0
114.99972,115.11029,94,60,0
115.1151,115.22568,86,60,0
115.230484,115.34106,94,60,0
115.34587,115.45644,93,60,0
115.46125,115.57183,84,60,0
115.57664,115.68721,93,60,0
115.692024,115.8026,84,60,0
115.8074,115.917984,94,60,0
115.92279,116.03337,89,60,0
116.03818,116.14875,86,60,0
116.15356,116.26414,82,60,0
116.26894,116.379524,83,84,0
116.38433,116.4949,82,60,0
116.49971,116.61029,81,60,0
116.6151,116.667984,82,60,0
116.67279,116.730484,82,84,0
116.730484,116.84106,94,60,0
116.84586,116.95644,89,60,0
116.96125,117.07183,86,60,0
117.07664,117.18721,82,60,0
117.19202,117.3026,83,84,0
117.3074,117.417984,82,60,0
117.42279,117.53336,81,60,0
117.53817,117.59106,82,60,0
117.59586,117.65356,82,84,0
117.65356,117.76414,94,60,0
117.76894,117.87952,89,60,0
117.88433,117.9949,86,60,0
117.99971,118.11029,82,60,0
118.1151,118.22567,83,84,0
118.230484,118.34106,82,60,0
118.34586,118.45644,81,60,0
118.46125,118.51414,82,60,0
118.51894,118.57664,82,84,0
118.57664,118.69643,94,60,0
118.70164,118.82143,89,60,0
118.82664,118.94643,86,60,0
118.95164,119.07143,82,60,0
119.07664,119.20731,77,60,0
119.213,119.34368,74,60,0
119.34936,119.49311,69,60,0
119.49936,119.64311,70,60,0
119.64936,119.75994,71,84,0
119.76475,119.87532,72,60,0
119.88013,119.99071,71,60,0
119.995514,120.106094,72,60,0
120.1109,120.22147,74,60,0
120.22628,120.33686,72,60,0
120.34167,120.45225,74,60,0
120.457054,120.56763,72,60,0
120.57243,120.683014,71,84,0
120.68782,120.7984,72,60,0
120.80321,120.91378,71,60,0
120.91859,121.02917,72,60,0
121.03397,121.144554,74,60,0
121.14936,121.25993,72,60,0
121.26475,121.37532,74,60,0
121.38013,121.49071,72,60,0
121.495514,121.60609,71,60,0
121.6109,121.72147,72,60,0
121.72628,121.83686,71,60,0
121.84167,121.95224,72,60,0
121.957054,122.06763,74,60,0
122.07243,122.183014,76,60,0
122.18782,122.29839,74,60,0
122.30321,122.41378,76,60,0
122.41859,122.52917,77,60,0
122.53397,122.64455,76,60,0
122.64936,122.75993,77,60,0
122.76474,122.87532,76,60,0
122.88013,122.99071,75,60,0
122.995514,123.10609,76,60,0
123.11089,123.22147,74,60,0
123.22628,123.33686,76,60,0
123.34167,123.45224,73,84,0
123.45705,123.56763,74,60,0
123.57243,123.683014,73,60,0
123.68782,123.79839,74,60,0
123.8032,123.91378,76,60,0
123.91859,124.02917,74,60,0
124.03397,124.14455,76,60,0
124.14935,124.25993,74,60,0
124.26474,124.37532,73,84,0
124.38013,124.4907,74,60,0
124.49551,124.60609,73,60,0
124.61089,124.72147,74,60,0
124.72628,124.83685,76,60,0
124.84167,124.95224,74,60,0
124.95705,125.06763,76,60,0
125.07243,125.18301,74,60,0
125.18782,125.29839,73,60,0
125.3032,125.41378,74,60,0
125.41859,125.52916,73,60,0
125.53397,125.64455,74,60,0
125.64935,125.75993,76,60,0
125.76474,125.87531,78,60,0
125.88013,125.9907,76,60,0
125.99551,126.10609,78,60,0
126.11089,126.221466,79,60,0
126.22628,126.33685,78,60,0
126.34166,126.45224,79,60,0
126.45705,126.56763,78,60,0
126.57243,126.68301,77,60,0
126.68781,126.79839,78,60,0
126.8032,126.91378,76,60,0
126.91859,127.02916,78,60,0
127.033966,127.14455,74,60,0
127.14935,127.25993,76,60,0
127.26474,127.37531,74,60,0
127.38012,127.4907,76,60,0
127.49551,127.60609,78,60,0
127.61089,127.721466,79,60,0
127.72627,127.83685,78,60,0
127.84166,127.95224,79,60,0
127.95705,128.06763,81,60,0
128.07243,128.18301,83,60,0
128.18782,128.29839,81,60,0
128.30319,128.41377,83,60,0
128.41858,128.52916,79,60,0
128.53397,128.64455,81,60,0
128.64935,128.75993,79,60,0
128.76474,128.87532,81,60,0
128.88013,128.99069,78,60,0
128.9955,129.10608,79,60,0
129.11089,129.22147,78,60,0
129.22627,129.33685,79,60,0
129.34166,129.45224,78,60,0
129.45705,129.56763,79,60,0
129.57243,129.683,78,60,0
129.6878,129.79839,79,60,0
129.80319,129.91377,77,84,0
129.91858,130.02916,79,60,0
130.03397,130.14455,77,60,0
130.14935,130.25993,79,60,0
130.26474,130.3753,77,60,0
130.38013,130.49069,79,60,0
130.4955,130.60608,77,60,0
130.61089,130.72147,79,60,0
130.72627,130.83685,77,84,0
130.84166,130.95224,79,60,0
130.95705,131.06761,77,60,0
131.07243,131.183,75,60,0
131.1878,131.29839,74,60,0
131.30319,131.41377,75,60,0
131.41858,131.52916,74,60,0
131.53397,131.64455,75,60,0
131.64935,131.75992,77,84,0
131.76474,131.8753,79,60,0
131.88011,131.99069,77,60,0
131.9955,132.10608,75,60,0
132.11089,132.22147,74,60,0
132.22627,132.33685,75,60,0
132.34166,132.45224,74,60,0
132.45705,132.56761,75,60,0
132.57242,132.683,77,60,0
132.6878,132.79839,79,64,0
132.80319,132.91377,77,68,0
132.91858,133.02916,79,72,0
133.03397,133.14455,81,76,0
133.14935,133.25992,82,80,0
133.26472,133.3753,81,84,0
133.38011,133.49069,82,88,0
133.4955,133.60608,84,92,0
133.61089,133.72147,82,92,0
133.72627,133.83685,84,88,0
133.84166,133.95222,82,84,0
133.95705,134.06761,81,80,0
134.07242,134.183,79,75,0
134.1878,134.29839,81,70,0
134.30319,134.41377,79,65,0
134.41858,134.52916,77,60,0
134.53397,134.64453,79,60,0
134.64935,134.75992,77,64,0
134.76472,134.8753,79,68,0
134.88011,134.99069,81,72,0
134.9955,135.10608,84,77,0
135.11089,135.22147,81,82,0
135.22627,135.33684,84,87,0
135.34166,135.45222,93,92,0
135.45703,135.56761,91,92,0
135.57242,135.683,93,88,0
135.6878,135.79839,91,84,0
135.80319,135.91377,89,80,0
135.91858,136.02916,87,75,0
136.03397,136.14453,89,70,0
136.14934,136.25992,87,65,0
136.26472,136.3753,86,60,0
136.38011,136.49069,89,60,0
136.4955,136.60608,86,60,0
136.61089,136.72147,89,60,0
136.72627,136.83684,96,60,0
136.84164,136.95222,87,60,0
136.95703,137.06761,96,60,0
137.07242,137.183,87,60,0
137.1878,137.29839,86,60,0
137.30319,137.41377,94,60,0
137.41858,137.52914,86,60,0
137.53397,137.64453,94,60,0
137.64934,137.75992,93,60,0
137.76472,137.8753,84,60,0
137.88011,137.99069,93,60,0
137.9955,138.10608,84,60,0
138.11089,138.22145,94,60,0
138.22627,138.33684,89,60,0
138.34164,138.45222,86,60,0
138.45703,138.56761,82,60,0
138.57242,138.683,83,84,0
138.6878,138.79839,82,60,0
138.80319,138.91376,81,60,0
138.91858,138.97145,82,60,0
138.97626,139.03395,82,84,0
139.03395,139.14453,94,60,0
139.14934,139.25992,89,60,0
139.26472,139.3753,86,60,0
139.38011,139.49069,82,60,0
139.4955,139.60608,83,84,0
139.61089,139.72145,82,60,0
139.72626,139.83684,81,60,0
139.84164,139.89453,82,60,0
139.89934,139.95703,82,84,0
139.95703,140.06761,94,60,0
140.07242,140.183,89,60,0
140.1878,140.29839,86,60,0
140.30319,140.41376,82,60,0
140.41856,140.52914,83,84,0
140.53395,140.64453,82,60,0
140.64934,140.75992,81,60,0
140.76472,140.81761,82,60,0
140.82242,140.88011,82,84,0
140.88011,140.9999,94,60,0
141.00511,141.1249,89,60,0
141.13011,141.2499,86,60,0
141.25511,141.3749,82,60,0
141.38011,141.51079,77,60,0
141.51648,141.64716,74,60,0
141.65283,141.79659,69,60,0
141.80284,141.94658,70,60,0
141.95284,142.1788,67,75,0
142.299,142.41437,58,105,0
142.41437,143.21725,62,105,0
143.22206,143.33264,58,105,0
143.33745,143.90956,62,105,0
143.91437,144.02975,57,105,0
144.02975,144.10667,62,105,0
144.26053,144.33745,62,75,0
144.26053,144.33745,66,75,0
144.4913,144.56822,62,75,0
144.4913,144.56822,69,75,0
144.60667,144.72206,62,105,0
144.72206,144.94803,58,105,0
144.72206,144.94803,67,105,0
145.06822,145.18361,58,105,0
145.18361,145.98648,62,105,0
145.99129,146.10667,58,105,0
146.10667,146.79417,62,105,0
146.79898,146.87592,64,75,0
146.79898,146.87592,67,75,0
147.02975,147.10667,66,75,0
147.02975,147.10667,69,75,0
147.26053,147.33745,62,75,0
147.26053,147.33745,74,75,0
147.3759,147.49129,74,105,0
147.49129,147.83264,67,105,0
147.49129,147.83264,70,105,0
147.49129,147.83264,79,105,0
147.83745,147.95284,70,105,0
147.95284,148.7557,62,105,0
147.95284,148.7557,74,105,0
148.76053,148.8759,70,105,0
148.8759,149.44801,62,105,0
148.8759,149.44801,74,105,0
149.45284,149.5682,69,75,0
149.5682,149.64514,62,75,0
149.5682,149.64514,74,75,0
149.79898,149.8759,66,75,0
149.79898,149.8759,78,75,0
150.02975,150.10667,69,75,0
150.02975,150.10667,81,75,0
150.14514,150.26051,74,105,0
150.26051,150.60187,67,105,0
150.26051,150.60187,70,105,0
150.26051,150.60187,79,105,0
150.60667,150.72206,70,105,0
150.72206,151.52495,62,105,0
150.72206,151.52495,74,105,0
151.52975,151.64514,70,105,0
151.64514,152.33263,62,105,0
151.64514,152.33263,74,105,0
152.33745,152.41437,67,75,0
152.33745,152.41437,73,75,0
152.33745,152.41437,79,75,0
152.5682,152.64513,69,75,0
152.5682,152.64513,78,75,0
152.5682,152.64513,81,75,0
152.79898,152.8759,74,75,0
152.79898,152.8759,86,75,0
153.02975,153.41437,79,105,0
153.02975,153.41437,87,105,0
153.02975,153.41437,91,105,0
153.49129,153.60667,77,75,0
153.49129,153.60667,86,75,0
153.49129,153.60667,89,75,0
153.60667,153.72206,91,75,0
153.72206,153.79898,77,75,0
153.72206,153.79898,86,75,0
153.72206,153.79898,89,75,0
153.95282,154.33743,75,105,0
153.95282,154.33743,84,105,0
153.95282,154.33743,87,105,0
154.41437,154.79898,74,105,0
154.41437,154.79898,82,105,0
154.41437,154.79898,86,105,0
154.8759,154.99129,72,75,0
154.8759,154.99129,81,75,0
154.8759,154.99129,84,75,0
154.99129,155.10667,86,75,0
155.10667,155.1836,72,75,0
155.10667,155.1836,81,75,0
155.10667,155.1836,84,75,0
155.33743,155.41437,70,75,0
155.33743,155.41437,79,75,0
155.33743,155.41437,82,75,0
155.5682,155.64513,67,75,0
155.5682,155.64513,75,75,0
155.5682,155.64513,79,75,0
155.79898,156.1836,79,105,0
155.79898,156.1836,88,105,0
155.79898,156.1836,91,105,0
156.26051,156.3759,77,75,0
156.26051,156.3759,86,75,0
156.26051,156.3759,89,75,0
156.3759,156.49129,91,75,0
156.49129,156.5682,77,75,0
156.49129,156.5682,86,75,0
156.49129,156.5682,89,75,0
156.72205,157.10667,76,105,0
156.72205,157.10667,85,105,0
156.72205,157.10667,88,105,0
157.1836,157.5682,74,105,0
157.1836,157.5682,82,105,0
157.1836,157.5682,86,105,0
157.64513,157.76051,73,75,0
157.64513,157.76051,81,75,0
157.64513,157.76051,85,75,0
157.76051,157.8759,86,75,0
157.8759,157.95282,73,75,0
157.8759,157.95282,81,75,0
157.8759,157.95282,85,75,0
158.10666,158.1836,70,75,0
158.10666,158.1836,79,75,0
158.10666,158.1836,82,75,0
158.33743,158.44801,69,105,0
158.33743,158.44801,78,105,0
158.33743,158.44801,81,105,0
158.45282,158.5682,61,75,0
158.5682,158.90955,58,84,0
158.5682,158.90955,67,84,0
158.91435,159.02974,67,60,0
159.02974,159.3711,62,84,0
159.02974,159.3711,70,84,0
159.3759,159.49129,70,60,0
159.49129,159.5682,60,60,0
159.49129,159.5682,69,60,0
159.72205,159.79897,58,60,0
159.72205,159.79897,67,60,0
159.95282,160.02974,57,60,0
159.95282,160.02974,66,60,0
160.1836,160.26051,58,60,0
160.1836,160.26051,67,60,0
160.41435,160.79897,62,84,0
160.41435,160.79897,66,84,0
160.41435,160.79897,74,84,0
160.8759,161.21724,62,84,0
160.8759,161.21724,66,84,0
160.8759,161.21724,69,84,0
161.22205,161.33743,62,84,0
161.33743,161.67877,58,84,0
161.33743,161.67877,67,84,0
161.68358,161.79897,67,84,0
161.79897,162.14032,62,84,0
161.79897,162.14032,70,84,0
162.14513,162.26051,70,84,0
162.26051,162.33743,60,60,0
162.26051,162.33743,69,60,0
162.49127,162.5682,58,60,0
162.49127,162.5682,67,60,0
162.72205,162.79897,57,60,0
162.72205,162.79897,66,60,0
162.95282,163.02974,58,60,0
162.95282,163.02974,67,60,0
163.18358,163.26051,62,60,0
163.18358,163.26051,70,60,0
163.18358,163.26051,74,60,0
163.41435,163.49127,64,60,0
163.41435,163.49127,73,60,0
163.41435,163.49127,76,60,0
163.64513,163.98647,66,60,0
163.64513,163.98647,74,60,0
163.64513,163.98647,78,60,0
163.99127,164.10666,74,84,0
164.10666,164.44801,67,84,0
164.10666,164.44801,70,84,0
164.10666,164.44801,79,84,0
164.45282,164.56819,79,84,0
164.56819,164.90955,70,84,0
164.56819,164.90955,74,84,0
164.56819,164.90955,82,84,0
164.91435,165.02493,82,84,0
165.02974,165.10666,72,60,0
165.02974,165.10666,81,60,0
165.2605,165.33743,70,60,0
165.2605,165.33743,79,60,0
165.49127,165.56819,69,60,0
165.49127,165.56819,78,60,0
165.72205,165.79897,70,60,0
165.72205,165.79897,79,60,0
165.9528,166.33743,74,84,0
165.9528,166.33743,78,84,0
165.9528,166.33743,86,84,0
166.41435,166.75569,74,84,0
166.41435,166.75569,78,84,0
166.41435,166.75569,81,84,0
166.7605,166.87589,83,84,0
166.87589,167.21724,74,84,0
166.87589,167.21724,79,84,0
166.87589,167.21724,86,84,0
167.22205,167.33743,86,84,0
167.33743,167.67877,79,84,0
167.33743,167.67877,83,84,0
167.33743,167.67877,91,84,0
167.68358,167.79897,91,60,0
167.79897,167.87589,80,60,0
167.79897,167.87589,89,60,0
168.02974,168.10666,79,60,0
168.02974,168.10666,87,60,0
168.2605,168.33742,77,60,0
168.2605,168.33742,86,60,0
168.49127,168.56819,79,60,0
168.49127,168.56819,87,60,0
168.72205,168.83742,69,60,0
168.72205,168.83742,72,60,0
168.72205,168.83742,75,60,0
168.72205,168.83742,78,60,0
169.18358,169.29897,70,60,0
169.18358,169.29897,74,60,0
169.18358,169.29897,79,60,0
170.10666,170.49127,70,60,0
170.10666,170.49127,79,60,0
170.56819,170.64511,68,60,0
170.56819,170.64511,77,60,0
170.79897,170.87589,67,60,0
170.79897,170.87589,75,60,0
171.02972,171.10666,65,60,0
171.02972,171.10666,74,60,0
171.2605,171.33742,67,60,0
171.2605,171.33742,75,60,0
171.49127,171.77972,57,60,0
171.49127,171.77972,60,60,0
171.49127,171.77972,63,60,0
171.49127,171.77972,66,60,0
171.9528,172.06819,58,60,0
171.9528,172.06819,62,60,0
171.9528,172.06819,67,60,0
172.87589,173.16434,54,60,0
172.87589,173.16434,60,60,0
172.87589,173.16434,63,60,0
173.33742,173.64992,57,75,0
173.33742,173.64992,60,75,0
173.33742,173.64992,63,75,0
173.33742,173.64992,66,75,0
173.83742,173.96242,58,60,0
173.83742,173.96242,62,60,0
173.83742,173.96242,67,60,0
174.88287,175.22379,54,60,0
174.88287,175.22379,60,60,0
174.88287,175.22379,63,60,0
175.42833,175.80333,57,75,0
175.42833,175.80333,60,75,0
175.42833,175.80333,63,75,0
175.42833,175.80333,66,75,0
176.02834,176.17833,57,60,0
176.02834,176.17833,60,60,0
176.02834,176.17833,63,60,0
176.02834,176.17833,66,60,0
177.295,177.46165,57,45,0
177.295,177.46165,60,45,0
177.295,177.46165,63,45,0
177.295,177.46165,66,45,0
178.71165,178.89915,55,45,0
178.71165,178.89915,58,45,0
178.71165,178.89915,62,45,0
178.71165,178.89915,67,45,0
179.73439,180.00711,78,92,0
179.73439,180.00711,86,92,0
179.73439,180.00711,90,92,0
180.00711,180.27415,79,92,0
180.00711,180.27415,86,92,0
180.00711,180.27415,91,92,0
180.27985,180.37074,74,84,0
180.27985,180.37074,83,84,0
180.27985,180.37074,86,84,0
180.55257,181.00711,76,105,0
180.55257,181.00711,79,105,0
180.55257,181.00711,84,105,0
180.55257,181.00711,88,105,0
181.09802,181.55257,74,105,0
181.09802,181.55257,79,105,0
181.09802,181.55257,83,105,0
181.09802,181.55257,86,105,0
181.64348,182.09802,72,105,0
181.64348,182.09802,78,105,0
181.64348,182.09802,81,105,0
181.64348,182.09802,84,105,0
182.18893,182.64348,71,105,0
182.18893,182.64348,79,105,0
182.18893,182.64348,83,105,0
183.00711,183.27983,78,75,0
183.00711,183.27983,86,75,0
183.00711,183.27983,90,75,0
183.27983,183.54689,79,75,0
183.27983,183.54689,91,75,0
183.55257,183.64348,74,75,0
183.55257,183.64348,83,75,0
183.55257,183.64348,86,75,0
183.82529,184.27983,76,105,0
183.82529,184.27983,83,105,0
183.82529,184.27983,86,105,0
183.82529,184.27983,88,105,0
184.37074,184.82529,81,105,0
184.37074,184.82529,86,105,0
184.37074,184.82529,90,105,0
184.37074,184.82529,93,105,0
184.9162,184.98438,97,92,0
184.98438,185.05257,98,92,0
185.05257,185.12074,97,86,0
185.12074,185.18893,98,80,0
185.18893,185.25711,97,74,0
185.25711,185.32529,98,67,0
184.9162,185.37074,85,92,0
185.32529,185.39348,95,60,0
185.39348,185.45598,97,60,0
185.46165,185.9162,86,105,0
185.46165,185.9162,98,105,0
186.27983,186.55257,78,92,0
186.27983,186.55257,86,92,0
186.27983,186.55257,90,92,0
186.55257,186.81961,79,92,0
186.55257,186.81961,86,92,0
186.55257,186.81961,91,92,0
186.82529,186.9162,74,84,0
186.82529,186.9162,83,84,0
186.82529,186.9162,86,84,0
187.09802,187.55257,76,105,0
187.09802,187.55257,79,105,0
187.09802,187.55257,84,105,0
187.09802,187.55257,88,105,0
187.64346,188.09802,74,105,0
187.64346,188.09802,79,105,0
187.64346,188.09802,83,105,0
187.64346,188.09802,86,105,0
188.18892,188.64346,72,105,0
188.18892,188.64346,78,105,0
188.18892,188.64346,81,105,0
188.18892,188.64346,84,105,0
188.73438,189.18892,71,105,0
188.73438,189.18892,79,105,0
188.73438,189.18892,83,105,0
189.55257,189.82529,78,75,0
189.55257,189.82529,86,75,0
189.55257,189.82529,90,75,0
189.82529,190.09233,79,75,0
189.82529,190.09233,91,75,0
190.098,190.18892,74,75,0
190.098,190.18892,83,75,0
190.098,190.18892,86,75,0
190.37074,190.82529,76,105,0
190.37074,190.82529,83,105,0
190.37074,190.82529,86,105,0
190.37074,190.82529,88,105,0
190.9162,191.37074,81,105,0
190.9162,191.37074,86,105,0
190.9162,191.37074,90,105,0
190.9162,191.37074,93,105,0
191.46165,191.52983,97,92,0
191.52983,191.598,98,92,0
191.598,191.6662,97,86,0
191.6662,191.73438,98,80,0
191.73438,191.80255,97,74,0
191.80255,191.87074,98,67,0
191.46165,191.9162,85,92,0
191.87074,191.93892,95,60,0
191.93892,192.00142,97,60,0
192.0071,192.46164,86,105,0
192.0071,192.46164,98,105,0
192.55255,193.0071,67,105,0
192.55255,193.0071,70,105,0
192.55255,193.0071,74,105,0
193.098,193.55255,70,105,0
193.098,193.55255,74,105,0
193.098,193.55255,79,105,0
193.64346,193.71164,84,92,0
193.71164,193.77983,86,92,0
193.77983,193.848,84,86,0
193.848,193.91618,86,80,0
193.91618,193.98438,84,74,0
193.98438,194.05255,86,67,0
193.64346,194.098,79,92,0
194.05255,194.12074,83,60,0
194.12074,194.18324,84,60,0
194.18892,194.59233,79,105,0
194.18892,194.59233,84,105,0
194.18892,194.59233,87,105,0
194.598,194.73438,86,75,0
194.73438,194.85368,81,75,0
194.73438,194.85368,84,75,0
194.91618,195.0355,79,75,0
194.91618,195.0355,82,75,0
195.098,195.21733,81,75,0
195.098,195.21733,84,75,0
195.27983,195.73438,82,105,0
195.27983,195.73438,86,105,0
195.82529,196.27983,79,105,0
195.82529,196.27983,82,105,0
196.37073,196.77414,81,105,0
196.37073,196.77414,84,105,0
196.77983,196.91618,82,75,0
196.91618,197.0355,78,75,0
196.91618,197.0355,81,75,0
197.098,197.21733,76,75,0
197.098,197.21733,79,75,0
197.27983,197.39914,78,75,0
197.27983,197.39914,81,75,0
197.46164,197.58096,79,75,0
197.46164,197.58096,82,75,0
197.64346,197.76277,82,75,0
197.64346,197.76277,86,75,0
197.82527,197.9446,86,75,0
197.82527,197.9446,91,75,0
198.0071,198.4105,79,75,0
198.0071,198.4105,85,75,0
198.0071,198.4105,88,75,0
198.41618,198.54688,86,75,0
198.55255,199.0071,78,75,0
198.55255,199.0071,86,75,0
199.37073,199.46164,90,75,0
199.46164,199.55255,78,75,0
199.55255,199.64346,90,75,0
199.64346,199.73436,79,75,0
199.64346,199.73436,91,75,0
199.91618,200.0071,74,75,0
199.91618,200.0071,83,75,0
199.91618,200.0071,86,75,0
200.18892,200.64346,76,105,0
200.18892,200.64346,84,105,0
200.18892,200.64346,88,105,0
200.73436,201.1889,74,105,0
200.73436,201.1889,83,105,0
200.73436,201.1889,86,105,0
201.27982,201.348,84,75,0
201.348,201.41618,86,75,0
201.27982,201.68323,72,75,0
201.27982,201.68323,81,75,0
201.41618,201.6889,84,75,0
201.6889,201.8196,71,75,0
201.6889,201.8196,79,75,0
201.6889,201.8196,83,75,0
201.82527,202.27982,71,105,0
201.82527,202.27982,79,105,0
201.82527,202.27982,83,105,0
202.64345,202.73436,90,75,0
202.73436,202.82527,78,75,0
202.82527,202.91618,90,75,0
202.91618,203.0071,79,75,0
202.91618,203.0071,91,75,0
203.1889,203.27982,83,75,0
203.1889,203.27982,95,75,0
203.73436,203.82527,95,75,0
203.82527,203.91618,83,75,0
203.91618,204.0071,95,75,0
204.0071,204.09799,84,75,0
204.0071,204.09799,96,75,0
204.27982,204.37073,88,75,0
204.27982,204.37073,100,75,0
204.55255,204.62073,102,92,0
204.62073,204.6889,103,92,0
204.6889,204.7571,102,86,0
204.7571,204.82527,103,80,0
204.82527,204.89345,102,74,0
204.89345,204.96164,103,67,0
204.55255,205.0071,90,92,0
204.96164,205.02982,100,60,0
205.02982,205.09232,102,60,0
205.09799,205.55254,91,92,0
205.09799,205.55254,103,92,0
205.64345,206.09799,67,105,0
205.64345,206.09799,70,105,0
205.64345,206.09799,74,105,0
206.1889,206.64345,70,105,0
206.1889,206.64345,74,105,0
206.1889,206.64345,79,105,0
206.73436,206.80254,84,92,0
206.80254,206.87073,86,92,0
206.87073,206.9389,84,86,0
206.9389,207.00708,86,80,0
207.00708,207.07527,84,74,0
207.07527,207.14345,86,67,0
206.73436,207.1889,79,92,0
207.14345,207.21164,83,60,0
207.21164,207.27414,84,60,0
207.27982,207.68323,79,105,0
207.27982,207.68323,84,105,0
207.27982,207.68323,87,105,0
207.6889,207.82527,86,75,0
207.82527,207.94458,81,75,0
207.82527,207.94458,84,75,0
208.00708,208.1264,79,75,0
208.00708,208.1264,82,75,0
208.1889,208.30823,81,75,0
208.1889,208.30823,84,75,0
208.37073,208.82527,82,105,0
208.37073,208.82527,86,105,0
208.91618,209.37073,79,105,0
208.91618,209.37073,82,105,0
209.46162,209.86504,81,105,0
209.46162,209.86504,84,105,0
209.87073,210.00708,82,75,0
210.00708,210.1264,78,75,0
210.00708,210.1264,81,75,0
210.1889,210.30823,76,75,0
210.1889,210.30823,79,75,0
210.37073,210.49004,78,75,0
210.37073,210.49004,81,75,0
210.55254,210.67186,79,75,0
210.55254,210.67186,82,75,0
210.73436,210.85367,82,75,0
210.73436,210.85367,86,75,0
210.91617,211.03549,86,75,0
210.91617,211.03549,91,75,0
211.09799,211.5014,79,75,0
211.09799,211.5014,85,75,0
211.09799,211.5014,88,75,0
211.50708,211.63777,86,75,0
211.64345,212.09799,78,75,0
211.64345,212.09799,86,75,0
212.46162,212.55254,90,75,0
212.55254,212.64345,78,75,0
212.64345,212.73436,90,75,0
212.73436,212.82526,79,75,0
212.73436,212.82526,91,75,0
213.00708,213.09799,74,75,0
213.00708,213.09799,83,75,0
213.00708,213.09799,86,75,0
213.2798,213.73436,76,105,0
213.2798,213.73436,84,105,0
213.2798,213.73436,88,105,0
213.82526,214.2798,74,105,0
213.82526,214.2798,83,105,0
213.82526,214.2798,86,105,0
214.37071,214.4389,84,75,0
214.4389,214.50708,86,75,0
214.37071,214.77412,72,75,0
214.37071,214.77412,81,75,0
214.50708,214.7798,84,75,0
214.7798,214.91049,71,75,0
214.7798,214.91049,79,75,0
214.7798,214.91049,83,75,0
214.91617,215.37071,71,105,0
214.91617,215.37071,79,105,0
214.91617,215.37071,83,105,0
215.73434,215.82526,90,75,0
215.82526,215.91617,78,75,0
215.91617,216.00708,90,75,0
216.00708,216.09799,79,75,0
216.00708,216.09799,91,75,0
216.2798,216.37071,83,75,0
216.2798,216.37071,95,75,0
216.82526,216.91617,95,75,0
216.91617,217.00708,83,75,0
217.00708,217.09799,95,75,0
217.09799,217.18889,84,75,0
217.09799,217.18889,96,75,0
217.37071,217.46162,88,75,0
217.37071,217.46162,100,75,0
217.64343,217.71162,102,92,0
217.71162,217.7798,103,92,0
217.7798,217.84799,102,86,0
217.84799,217.91617,103,80,0
217.91617,217.98434,102,74,0
217.98434,218.05254,103,67,0
217.64343,218.09799,90,92,0
218.05254,218.12071,100,60,0
218.12071,218.18321,102,60,0
218.18889,218.64343,91,92,0
218.18889,218.64343,103,92,0
219.03435,219.3281,59,60,0
219.03435,219.3281,64,60,0
219.03435,219.3281,67,60,0
219.63435,219.9281,59,60,0
219.63435,219.9281,64,60,0
219.63435,219.9281,67,60,0
220.23434,220.52809,60,60,0
220.23434,220.52809,66,60,0
220.23434,220.52809,69,60,0
220.83435,221.1281,60,60,0
220.83435,221.1281,66,60,0
220.83435,221.1281,69,60,0
221.43434,221.7281,59,60,0
221.43434,221.7281,62,60,0
221.43434,221.7281,67,60,0
222.03435,222.3281,57,60,0
222.03435,222.3281,60,60,0
222.03435,222.3281,65,60,0
222.63435,222.9281,55,60,0
222.63435,222.9281,59,60,0
222.63435,222.9281,64,60,0
223.23434,223.52809,54,60,0
223.23434,223.52809,59,60,0
223.23434,223.52809,63,60,0
223.83435,224.1281,54,60,0
223.83435,224.1281,59,60,0
223.83435,224.1281,62,60,0
224.43434,224.7281,50,60,0
224.43434,224.7281,54,60,0
224.43434,224.7281,59,60,0
225.03435,225.3281,52,60,0
225.03435,225.3281,55,60,0
225.03435,225.3281,61,60,0
225.63435,225.9281,55,60,0
225.63435,225.9281,61,60,0
225.63435,225.9281,64,60,0
226.23434,226.52809,54,60,0
226.23434,226.52809,57,60,0
226.23434,226.52809,62,60,0
226.83435,227.1281,52,60,0
226.83435,227.1281,55,60,0
226.83435,227.1281,60,60,0
227.43434,227.7281,49,60,0
227.43434,227.7281,52,60,0
227.43434,227.7281,58,60,0
228.03435,228.3281,51,60,0
228.03435,228.3281,54,60,0
228.03435,228.3281,59,60,0
228.63435,228.9281,59,60,0
228.63435,228.9281,64,60,0
228.63435,228.9281,67,60,0
229.23434,229.52809,59,60,0
229.23434,229.52809,64,60,0
229.23434,229.52809,67,60,0
229.83435,230.1281,60,60,0
229.83435,230.1281,66,60,0
229.83435,230.1281,69,60,0
230.43434,230.7281,60,60,0
230.43434,230.7281,66,60,0
230.43434,230.7281,69,60,0
231.03435,231.3281,59,60,0
231.03435,231.3281,62,60,0
231.03435,231.3281,67,60,0
231.63435,231.9281,57,60,0
231.63435,231.9281,60,60,0
231.63435,231.9281,65,60,0
232.23434,232.52809,55,60,0
232.23434,232.52809,59,60,0
232.23434,232.52809,64,60,0
232.83435,233.1281,54,60,0
232.83435,233.1281,59,60,0
232.83435,233.1281,63,60,0
233.43434,233.7281,54,60,0
233.43434,233.7281,59,60,0
233.43434,233.7281,62,60,0
234.03435,234.3281,50,60,0
234.03435,234.3281,54,60,0
234.03435,234.3281,59,60,0
234.63435,234.9281,52,60,0
234.63435,234.9281,55,60,0
234.63435,234.9281,61,60,0
235.23434,235.52809,52,60,0
235.23434,235.52809,55,60,0
235.23434,235.52809,61,60,0
235.83435,236.1281,54,60,0
235.83435,236.1281,57,60,0
235.83435,236.1281,62,60,0
236.43434,236.7281,52,60,0
236.43434,236.7281,55,60,0
236.43434,236.7281,60,60,0
237.03435,237.3281,49,60,0
237.03435,237.3281,52,60,0
237.03435,237.3281,58,60,0
237.63435,237.9281,51,60,0
237.63435,237.9281,54,60,0
237.63435,237.9281,59,60,0
237.93434,238.43434,59,60,0
237.93434,238.43434,63,60,0
237.93434,238.43434,71,60,0
238.53435,238.73434,59,60,0
238.73434,238.93434,63,70,0
238.93434,239.1281,71,81,0
239.13435,239.9281,60,92,0
239.13435,239.9281,72,92,0
239.93434,240.1281,59,75,0
239.93434,240.1281,71,75,0
240.13435,240.3281,58,60,0
240.13435,240.3281,70,60,0
240.33435,240.83435,59,60,0
240.33435,240.83435,71,60,0
240.93434,241.13435,59,60,0
241.13435,241.33435,63,70,0
241.33435,241.52809,71,81,0
241.53435,242.3281,62,92,0
241.53435,242.3281,74,92,0
242.33435,242.52809,61,75,0
242.33435,242.52809,73,75,0
242.53435,242.7281,60,60,0
242.53435,242.7281,72,60,0
242.73434,243.23434,61,60,0
242.73434,243.23434,73,60,0
243.33435,243.53435,61,60,0
243.53435,243.73434,65,70,0
243.73434,243.9281,73,81,0
243.93434,244.7281,64,92,0
243.93434,244.7281,76,92,0
244.73434,244.9281,63,75,0
244.73434,244.9281,75,75,0
244.93434,245.1281,62,60,0
244.93434,245.1281,74,60,0
245.43434,245.9281,64,60,0
245.43434,245.9281,76,60,0
245.93434,246.1281,63,60,0
245.93434,246.1281,75,60,0
246.13435,246.3281,62,60,0
246.13435,246.3281,74,60,0
246.63435,247.43434,63,60,0
246.63435,247.43434,75,60,0
247.83435,248.63435,66,68,0
247.83435,248.63435,71,68,0
247.83435,248.63435,78,68,0
249.03435,249.6281,67,76,0
249.03435,249.6281,71,76,0
249.03435,249.6281,76,76,0
249.03435,249.6281,79,76,0
249.63435,249.9281,59,80,0
249.63435,249.9281,64,80,0
249.63435,249.9281,67,80,0
250.23434,250.8281,69,84,0
250.23434,250.8281,72,84,0
250.23434,250.8281,78,84,0
250.23434,250.8281,81,84,0
250.83435,251.1281,60,88,0
250.83435,251.1281,66,88,0
250.83435,251.1281,69,88,0
251.43434,251.7281,62,92,0
251.43434,251.7281,71,92,0
251.43434,251.7281,74,92,0
252.03435,252.3281,60,60,0
252.03435,252.3281,65,60,0
252.03435,252.3281,69,60,0
252.63435,252.9281,59,60,0
252.63435,252.9281,64,60,0
252.63435,252.9281,67,60,0
253.23434,253.52809,59,60,0
253.23434,253.52809,63,60,0
253.23434,253.52809,66,60,0
253.83435,254.43434,66,60,0
253.83435,254.43434,74,60,0
253.83435,254.43434,78,60,0
254.43434,254.7281,59,68,0
254.43434,254.7281,62,68,0
254.43434,254.7281,66,68,0
255.03435,255.6281,67,76,0
255.03435,255.6281,73,76,0
255.03435,255.6281,79,76,0
255.63435,255.9281,64,84,0
255.63435,255.9281,67,84,0
255.63435,255.9281,73,84,0
256.23434,256.5281,66,92,0
256.23434,256.5281,69,92,0
256.23434,256.5281,74,92,0
256.83435,257.1281,60,75,0
256.83435,257.1281,64,75,0
256.83435,257.1281,67,75,0
257.43436,257.7281,58,60,0
257.43436,257.7281,61,60,0
257.43436,257.7281,64,60,0
258.03436,258.3281,59,60,0
258.03436,258.3281,63,60,0
258.33435,258.83435,59,60,0
258.33435,258.83435,63,60,0
258.33435,258.83435,71,60,0
258.93436,259.13434,59,60,0
259.13434,259.33435,63,70,0
259.33435,259.5281,71,81,0
259.53436,260.3281,60,92,0
259.53436,260.3281,72,92,0
260.33435,260.5281,59,75,0
260.33435,260.5281,71,75,0
260.53436,260.7281,58,60,0
260.53436,260.7281,70,60,0
260.73434,261.23434,59,60,0
260.73434,261.23434,71,60,0
261.33435,261.53436,59,60,0
261.53436,261.73434,63,70,0
261.73434,261.9281,71,81,0
261.93436,262.7281,62,92,0
261.93436,262.7281,74,92,0
262.73434,262.9281,61,75,0
262.73434,262.9281,73,75,0
262.93436,263.1281,60,60,0
262.93436,263.1281,72,60,0
263.13434,263.63434,61,60,0
263.13434,263.63434,73,60,0
263.73434,263.93436,61,60,0
263.93436,264.13434,65,70,0
264.13434,264.3281,73,81,0
264.33435,265.1281,64,92,0
264.33435,265.1281,76,92,0
265.13434,265.3281,63,75,0
265.13434,265.3281,75,75,0
265.33435,265.5281,62,60,0
265.33435,265.5281,74,60,0
265.83435,266.3281,64,60,0
265.83435,266.3281,76,60,0
266.33435,266.5281,63,60,0
266.33435,266.5281,75,60,0
266.53436,266.7281,62,60,0
266.53436,266.7281,74,60,0
267.03436,267.83435,63,60,0
267.03436,267.83435,75,60,0
268.23434,269.03436,66,68,0
268.23434,269.03436,71,68,0
268.23434,269.03436,78,68,0
269.43436,270.03436,67,76,0
269.43436,270.03436,71,76,0
269.43436,270.03436,76,76,0
269.43436,270.03436,79,76,0
270.03436,270.3281,59,80,0
270.03436,270.3281,64,80,0
270.03436,270.3281,67,80,0
270.63434,271.23434,69,84,0
270.63434,271.23434,72,84,0
270.63434,271.23434,78,84,0
270.63434,271.23434,81,84,0
271.23434,271.5281,60,88,0
271.23434,271.5281,66,88,0
271.23434,271.5281,69,88,0
271.83435,272.1281,62,92,0
271.83435,272.1281,71,92,0
271.83435,272.1281,74,92,0
272.43436,272.7281,60,60,0
272.43436,272.7281,65,60,0
272.43436,272.7281,69,60,0
273.03436,273.3281,59,60,0
273.03436,273.3281,64,60,0
273.03436,273.3281,67,60,0
273.63434,273.9281,59,60,0
273.63434,273.9281,63,60,0
273.63434,273.9281,66,60,0
274.23434,274.83435,66,60,0
274.23434,274.83435,74,60,0
274.23434,274.83435,78,60,0
274.83435,275.1281,59,68,0
274.83435,275.1281,62,68,0
274.83435,275.1281,66,68,0
275.43436,276.03436,67,76,0
275.43436,276.03436,73,76,0
275.43436,276.03436,79,76,0
276.03436,276.3281,64,84,0
276.03436,276.3281,67,84,0
276.03436,276.3281,73,84,0
276.63434,276.9281,66,92,0
276.63434,276.9281,69,92,0
276.63434,276.9281,74,92,0
277.23434,277.5281,60,75,0
277.23434,277.5281,64,75,0
277.23434,277.5281,67,75,0
277.84686,278.15283,58,60,0
277.84686,278.15283,61,60,0
277.84686,278.15283,64,60,0
278.48544,278.827,59,45,0
278.48544,278.827,63,45,0
278.83426,278.94485,74,45,0
278.94965,279.06024,76,45,0
279.06503,279.17563,74,45,0
279.18042,279.29102,72,45,0
279.2958,279.40637,71,45,0
279.4112,279.52176,72,48,0
279.52658,279.63715,71,52,0
279.64197,279.75253,72,56,0
279.75735,279.86792,74,60,0
279.87274,279.9833,76,60,0
279.98813,280.0987,74,55,0
280.10352,280.21408,72,50,0
280.21887,280.32947,71,45,0
280.33426,280.44485,72,45,0
280.44965,280.56024,71,45,0
280.56503,280.67563,72,45,0
280.68042,280.791,74,45,0
280.7958,280.90637,76,48,0
280.9112,281.02176,74,51,0
281.02658,281.13715,76,55,0
281.14197,281.25253,78,59,0
281.25735,281.36792,79,63,0
281.37274,281.4833,78,67,0
281.48813,281.5987,79,71,0
281.6035,281.71408,81,75,0
281.71887,281.82947,79,75,0
281.83426,281.94485,81,69,0
281.94965,282.06024,79,63,0
282.06503,282.17563,78,57,0
282.18042,282.291,76,51,0
282.2958,282.40637,78,45,0
282.4112,282.52176,76,45,0
282.52658,282.63715,74,60,0
282.64197,282.75253,76,60,0
282.75735,282.86792,74,64,0
282.87274,282.9833,76,68,0
282.98813,283.0987,78,72,0
283.1035,283.21408,81,77,0
283.21887,283.32947,78,82,0
283.33426,283.44485,81,87,0
283.44965,283.56024,86,92,0
283.56503,283.6756,84,92,0
283.68042,283.791,86,88,0
283.7958,283.90637,84,84,0
283.9112,284.02176,83,80,0
284.02658,284.13715,81,75,0
284.14197,284.25253,83,70,0
284.25735,284.36792,81,65,0
284.37274,284.4833,79,60,0
284.4881,284.5987,83,60,0
284.6035,284.71408,79,62,0
284.71887,284.82947,83,64,0
284.83426,284.94485,89,66,0
284.94965,285.06024,81,68,0
285.06503,285.1756,89,70,0
285.18042,285.291,81,72,0
285.2958,285.40637,79,74,0
285.4112,285.52176,88,76,0
285.52658,285.63715,79,78,0
285.64197,285.75253,88,80,0
285.75735,285.86792,87,82,0
285.8727,285.9833,78,84,0
285.9881,286.0987,87,86,0
286.1035,286.21408,78,89,0
286.21887,286.32947,88,92,0
286.33426,286.44485,83,92,0
286.44965,286.5602,79,75,0
286.56503,286.6756,76,75,0
286.68042,286.791,78,60,0
286.7958,286.90637,79,60,0
286.9112,287.02176,81,60,0
287.02658,287.13715,83,60,0
287.14197,287.25253,88,92,0
287.25735,287.36792,83,92,0
287.3727,287.4833,79,75,0
287.4881,287.5987,76,75,0
287.6035,287.71408,78,60,0
287.71887,287.82947,79,60,0
287.83426,287.94482,81,60,0
287.94965,288.0602,83,60,0
288.06503,288.1756,88,92,0
288.18042,288.291,83,92,0
288.2958,288.40637,79,75,0
288.4112,288.52176,76,75,0
288.52658,288.63715,78,60,0
288.64197,288.75253,79,60,0
288.75732,288.86792,81,60,0
288.8727,288.9833,83,60,0
288.9881,289.0987,88,60,0
289.1035,289.21408,83,60,0
289.21887,289.32947,79,60,0
289.33426,289.44482,76,60,0
290.14194,290.3727,69,60,0
290.14194,290.3727,78,60,0
290.3727,290.6035,79,84,0
290.3727,290.82944,67,84,0
290.6035,290.82944,74,60,0
291.06503,291.2958,69,60,0
291.06503,291.2958,78,60,0
291.2958,291.52658,79,84,0
291.2958,291.75253,67,84,0
291.52658,291.75253,74,60,0
291.9881,292.21887,66,60,0
291.9881,292.21887,78,60,0
292.21887,292.44482,69,75,0
292.21887,292.44482,81,75,0
292.44965,292.6756,69,92,0
292.44965,292.90637,81,92,0
292.9112,293.02655,78,75,0
292.68042,293.13715,71,92,0
293.02655,293.13715,79,75,0
292.68042,293.13715,83,92,0
293.14194,293.36792,81,60,0
293.14194,293.5987,73,60,0
293.3727,293.5987,79,60,0
293.14194,293.5987,85,60,0
293.6035,293.82944,74,60,0
293.6035,293.82944,78,60,0
293.6035,293.82944,86,60,0
293.83426,294.06503,78,60,0
293.83426,294.06503,81,60,0
294.06503,294.2958,74,84,0
294.06503,294.2958,86,84,0
294.2958,294.52176,79,60,0
294.75732,294.9881,78,60,0
294.75732,294.9881,81,60,0
294.9881,295.21887,74,84,0
294.9881,295.21887,86,84,0
295.21887,295.44482,79,60,0
295.68042,295.91116,78,60,0
295.68042,295.91116,81,60,0
295.91116,296.13715,86,75,0
296.14194,296.36792,90,92,0
296.14194,296.6035,86,92,0
296.6035,296.71887,85,75,0
296.71887,296.82944,83,75,0
296.3727,296.82944,88,92,0
296.83426,297.06503,88,60,0
297.06503,297.18042,90,60,0
296.83426,297.291,82,60,0
297.18042,297.291,91,60,0
297.29578,297.52176,83,60,0
297.29578,297.52176,90,60,0
297.52655,297.75253,90,62,0
297.52655,297.98328,81,62,0
297.9881,298.21405,79,66,0
297.75732,298.21405,86,89,0
298.44965,298.6756,90,71,0
298.44965,298.91116,81,71,0
298.91116,299.13715,79,77,0
298.68042,299.13715,86,74,0
299.3727,299.6035,89,83,0
299.3727,299.83426,81,83,0
299.6035,299.83426,86,86,0
299.83426,300.0602,76,89,0
299.83426,300.0602,84,89,0
300.06503,300.52655,74,92,0
300.06503,300.52655,83,92,0
300.52655,300.75732,81,92,0
300.52655,300.98328,73,92,0
300.75732,300.98328,79,92,0
300.9881,301.21405,74,92,0
300.9881,301.21405,77,92,0
301.21887,301.44965,77,92,0
301.21887,301.44965,81,92,0
301.21887,301.6804,69,92,0
301.6804,301.90637,67,75,0
301.44965,301.90637,74,75,0
302.14194,302.3727,77,92,0
302.14194,302.3727,81,92,0
302.14194,302.6035,69,92,0
302.6035,302.82944,67,60,0
302.3727,302.82944,74,75,0
303.065,303.52176,69,60,0
303.065,303.52176,77,60,0
303.52655,303.98328,67,64,0
303.52655,303.98328,74,64,0
303.9881,304.44482,71,68,0
303.9881,304.44482,75,68,0
304.44962,304.90637,72,72,0
304.44962,304.90637,76,72,0
304.91116,305.3679,76,76,0
304.91116,305.3679,79,76,0
305.3727,305.82944,76,80,0
305.3727,305.82944,81,80,0
305.3727,305.82944,84,80,0
305.83426,306.291,74,84,0
305.83426,306.291,81,84,0
305.83426,306.291,84,84,0
306.29578,306.52176,74,89,0
306.29578,306.52176,79,89,0
306.29578,306.52176,84,89,0
306.52655,306.6099,74,92,0
306.52655,306.6099,78,92,0
306.52655,306.6099,84,92,0
306.6099,306.6932,86,92,0
306.6932,306.77655,84,90,0
306.77655,306.8599,83,87,0
306.8599,306.9432,81,84,0
306.9432,307.02655,83,81,0
307.02655,307.1099,81,78,0
307.1099,307.1932,79,75,0
307.1932,307.27655,78,72,0
307.27655,307.33905,76,69,0
307.33905,307.40155,74,67,0
307.40155,307.46405,72,65,0
307.46405,307.52655,71,63,0
307.52655,307.61746,69,60,0
307.61746,307.70837,71,60,0
307.70837,307.7993,72,62,0
307.7993,307.8902,74,65,0
307.8902,307.9811,76,68,0
307.9811,308.072,78,71,0
308.072,308.172,79,74,0
308.172,308.272,81,77,0
308.272,308.372,83,80,0
308.372,308.46576,84,83,0
308.46576,308.5595,86,85,0
308.5595,308.65326,88,87,0
308.65326,308.7392,90,89,0
308.747,308.84702,79,92,0
308.747,308.84702,83,92,0
308.747,308.84702,86,92,0
308.747,308.84702,91,92,0
309.047,309.34702,78,92,0
309.047,309.34702,90,92,0
309.34702,309.64075,79,87,0
309.047,309.64075,86,92,0
309.34702,309.64075,91,87,0
309.647,309.747,74,81,0
309.647,309.747,83,81,0
309.647,309.747,86,81,0
309.947,310.447,76,105,0
309.947,310.447,84,105,0
309.947,310.447,88,105,0
310.547,311.047,74,105,0
310.547,311.047,83,105,0
310.547,311.047,86,105,0
311.147,311.647,72,105,0
311.147,311.647,78,105,0
311.147,311.647,81,105,0
311.147,311.647,84,105,0
311.747,312.247,71,105,0
311.747,312.247,79,105,0
311.747,312.247,83,105,0
312.647,312.947,78,75,0
312.647,312.947,90,75,0
312.947,313.24075,79,75,0
312.647,313.24075,86,75,0
312.947,313.24075,91,75,0
313.247,313.34702,74,75,0
313.247,313.34702,83,75,0
313.247,313.34702,86,75,0
313.547,314.047,76,75,0
313.547,314.047,83,75,0
313.547,314.047,86,75,0
313.547,314.047,88,75,0
314.147,314.647,81,75,0
314.147,314.647,86,75,0
314.147,314.647,93,75,0
314.747,314.822,97,92,0
314.822,314.897,98,92,0
314.897,314.97202,97,86,0
314.97202,315.047,98,80,0
315.047,315.122,97,74,0
315.122,315.197,98,67,0
314.747,315.247,85,92,0
315.197,315.272,95,60,0
315.272,315.34076,97,60,0
315.34702,315.84702,86,105,0
315.34702,315.84702,98,105,0
316.247,316.54074,62,92,0
316.247,316.54074,67,92,0
316.247,316.54074,70,92,0
316.247,316.54074,74,92,0
316.84702,317.14075,62,92,0
316.84702,317.14075,67,92,0
316.84702,317.14075,70,92,0
316.84702,317.14075,74,92,0
317.447,317.74075,60,92,0
317.447,317.74075,67,92,0
317.447,317.74075,72,92,0
318.047,318.34076,63,92,0
318.047,318.34076,67,92,0
318.047,318.34076,72,92,0
318.047,318.34076,75,92,0
318.647,318.94077,60,92,0
318.647,318.94077,65,92,0
318.647,318.94077,69,92,0
318.647,318.94077,72,92,0
319.247,319.54074,62,92,0
319.247,319.54074,65,92,0
319.247,319.54074,70,92,0
319.247,319.54074,74,92,0
319.84702,320.14075,58,92,0
319.84702,320.14075,63,92,0
319.84702,320.14075,67,92,0
319.84702,320.14075,70,92,0
320.447,320.74075,60,92,0
320.447,320.74075,63,92,0
320.447,320.74075,69,92,0
320.447,320.74075,72,92,0
321.047,321.34076,57,92,0
321.047,321.34076,62,92,0
321.047,321.34076,66,92,0
321.047,321.34076,69,92,0
321.647,321.94077,58,92,0
321.647,321.94077,62,92,0
321.647,321.94077,67,92,0
321.647,321.94077,70,92,0
322.247,322.54074,57,92,0
322.247,322.54074,61,92,0
322.247,322.54074,64,92,0
322.247,322.54074,69,92,0
322.547,323.047,57,92,0
322.547,323.047,62,92,0
322.547,323.047,66,92,0
322.547,323.047,69,92,0
323.147,323.247,62,92,0
323.147,323.247,74,92,0
323.297,323.397,62,92,0
323.297,323.397,74,92,0
323.447,324.047,62,92,0
323.447,324.047,74,92,0
324.047,324.147,67,92,0
324.047,324.147,71,92,0
324.047,324.147,74,92,0
324.047,324.147,79,92,0
324.34702,324.84702,67,92,0
324.34702,324.84702,72,92,0
324.34702,324.84702,76,92,0
324.34702,324.84702,79,92,0
324.947,325.447,67,92,0
324.947,325.447,71,92,0
324.947,325.447,74,92,0
324.947,325.447,79,92,0
325.547,326.047,66,92,0
325.547,326.047,72,92,0
325.547,326.047,74,92,0
325.547,326.047,78,92,0
326.147,326.647,67,92,0
326.147,326.647,71,92,0
326.147,326.647,74,92,0
326.147,326.647,79,92,0
326.747,326.84702,62,92,0
326.747,326.84702,74,92,0
326.897,326.997,62,92,0
326.897,326.997,74,92,0
327.047,327.647,62,92,0
327.047,327.647,74,92,0
327.647,327.747,67,92,0
327.647,327.747,71,92,0
327.647,327.747,74,92,0
327.647,327.747,79,92,0
327.947,328.047,67,92,0
327.947,328.047,79,92,0
328.09702,328.197,67,92,0
328.09702,328.197,79,92,0
328.247,328.84702,67,92,0
328.247,328.84702,79,92,0
328.84702,328.947,72,92,0
328.84702,328.947,76,92,0
328.84702,328.947,79,92,0
328.84702,328.947,84,92,0
329.147,329.647,69,92,0
329.147,329.647,72,92,0
329.147,329.647,78,92,0
329.147,329.647,81,92,0
329.747,330.04074,67,92,0
329.747,330.04074,71,92,0
329.747,330.04074,74,92,0
329.747,330.04074,79,92,0
330.34702,330.4047,54,92,0
330.4047,330.4624,55,92,0
330.4624,330.52008,54,86,0
330.52008,330.5778,55,80,0
330.5778,330.63547,54,74,0
330.63547,330.69315,55,67,0
330.69315,330.75085,52,60,0
330.75085,330.80374,54,60,0
330.80853,331.19315,55,105,0
331.50085,331.7268,62,92,0
331.50085,331.7268,66,92,0
331.50085,331.7268,69,92,0
331.50085,331.7268,72,92,0
331.50085,331.7268,74,92,0
331.9624,332.18835,62,92,0
331.9624,332.18835,66,92,0
331.9624,332.18835,69,92,0
331.9624,332.18835,72,92,0
331.9624,332.18835,74,92,0
332.42392,332.6499,62,92,0
332.42392,332.6499,67,92,0
332.42392,332.6499,70,92,0
332.42392,332.6499,74,92,0
332.88547,333.11142,62,92,0
332.88547,333.11142,67,92,0
332.88547,333.11142,70,92,0
332.88547,333.11142,74,92,0
333.11624,333.17392,57,92,0
333.17392,333.23163,58,92,0
333.23163,333.2893,57,86,0
333.2893,333.34702,58,80,0
333.34702,333.4047,57,74,0
333.4047,333.46237,58,67,0
333.46237,333.52008,55,60,0
333.52008,333.57297,57,60,0
333.57776,333.96237,58,105,0
334.27008,334.49603,65,92,0
334.27008,334.49603,69,92,0
334.27008,334.49603,72,92,0
334.27008,334.49603,75,92,0
334.27008,334.49603,77,92,0
334.73163,334.95758,65,92,0
334.73163,334.95758,69,92,0
334.73163,334.95758,72,92,0
334.73163,334.95758,75,92,0
334.73163,334.95758,77,92,0
335.19315,335.41913,65,92,0
335.19315,335.41913,70,92,0
335.19315,335.41913,74,92,0
335.19315,335.41913,77,92,0
335.6547,335.88065,65,92,0
335.6547,335.88065,70,92,0
335.6547,335.88065,74,92,0
335.6547,335.88065,77,92,0
336.80853,337.19315,61,105,0
337.27008,337.6547,62,105,0
337.73163,338.11624,65,105,0
337.73163,338.11624,73,105,0
337.73163,338.11624,77,105,0
338.19315,338.57776,66,105,0
338.19315,338.57776,74,105,0
338.19315,338.57776,78,105,0
338.6547,338.76526,80,92,0
338.77008,338.88065,81,92,0
338.88547,338.99603,83,92,0
339.00085,339.11142,85,92,0
339.11624,339.2268,87,92,0
339.2316,339.3422,89,92,0
339.347,339.45758,90,92,0
339.46237,339.57297,92,92,0
339.57776,339.68835,93,92,0
339.69315,339.80374,92,92,0
339.80853,339.9191,93,92,0
339.92392,340.0345,92,92,0
340.0393,340.11624,93,92,0
340.27008,340.347,90,92,0
340.50085,340.61142,94,92,0
340.6162,340.7268,93,92,0
340.7316,340.8422,94,92,0
340.847,340.95758,91,92,0
340.96237,341.0393,93,92,0
341.19315,341.27008,90,92,0
341.42392,341.5345,81,92,0
341.5393,341.64987,82,92,0
341.6547,341.76526,84,92,0
341.77008,341.88065,86,92,0
341.88547,341.99603,88,92,0
342.00085,342.11142,90,92,0
342.1162,342.2268,91,92,0
342.2316,342.3422,93,92,0
342.347,342.45758,94,92,0
342.46237,342.57297,93,92,0
342.57776,342.68835,94,92,0
342.347,342.7316,82,92,0
342.69315,342.8037,91,92,0
342.80853,342.9191,94,92,0
342.92392,343.0345,93,92,0
343.0393,343.14987,94,92,0
342.80853,343.19315,82,92,0
343.1547,343.26526,91,92,0
343.27008,343.38065,96,92,0
343.38547,343.49603,95,92,0
343.50082,343.61142,96,92,0
343.27008,343.6547,84,92,0
343.6162,343.7268,92,92,0
343.7316,343.8422,94,92,0
343.847,343.95758,93,92,0
343.96237,344.07297,94,92,0
343.7316,344.1162,82,92,0
344.07776,344.18832,91,92,0
344.19315,344.57776,78,105,0
344.19315,344.57776,84,105,0
344.19315,344.57776,90,105,0
344.6547,345.0393,79,105,0
344.6547,345.0393,82,105,0
344.6547,345.0393,91,105,0
345.347,345.57294,74,92,0
345.347,345.57294,81,92,0
345.347,345.57294,84,92,0
345.347,345.57294,86,92,0
345.80853,346.0345,74,92,0
345.80853,346.0345,81,92,0
345.80853,346.0345,84,92,0
345.80853,346.0345,86,92,0
346.27008,346.49603,74,92,0
346.27008,346.49603,79,92,0
346.27008,346.49603,82,92,0
346.27008,346.49603,86,92,0
346.7316,346.95758,74,92,0
346.7316,346.95758,79,92,0
346.7316,346.95758,82,92,0
346.7316,346.95758,86,92,0
346.96237,347.347,81,105,0
346.96237,347.347,87,105,0
346.96237,347.347,93,105,0
347.42392,347.80853,82,105,0
347.42392,347.80853,86,105,0
347.42392,347.80853,94,105,0
348.1162,348.3422,77,92,0
348.1162,348.3422,84,92,0
348.1162,348.3422,87,92,0
348.1162,348.3422,89,92,0
348.57776,348.8037,77,92,0
348.57776,348.8037,84,92,0
348.57776,348.8037,87,92,0
348.57776,348.8037,89,92,0
349.0393,349.26526,77,92,0
349.0393,349.26526,82,92,0
349.0393,349.26526,86,92,0
349.0393,349.26526,89,92,0
349.50082,349.7268,77,92,0
349.50082,349.7268,82,92,0
349.50082,349.7268,86,92,0
349.50082,349.7268,89,92,0
349.7316,350.1162,85,105,0
349.7316,350.1162,97,105,0
350.19315,350.57776,86,105,0
350.19315,350.57776,98,105,0
350.65466,351.0393,73,105,0
350.65466,351.0393,81,105,0
350.65466,351.0393,85,105,0
351.1162,351.50082,74,105,0
351.1162,351.50082,82,105,0
351.1162,351.50082,86,105,0
351.57776,351.96237,61,105,0
351.57776,351.96237,69,105,0
351.57776,351.96237,73,105,0
352.0393,352.42392,62,105,0
352.0393,352.42392,70,105,0
352.0393,352.42392,74,105,0
352.7316,352.95755,69,75,0
352.7316,352.95755,76,75,0
352.7316,352.95755,79,75,0
353.19315,353.4191,69,75,0
353.19315,353.4191,76,75,0
353.19315,353.4191,79,75,0
353.65466,353.88065,65,75,0
353.65466,353.88065,69,75,0
353.65466,353.88065,77,75,0
354.1162,354.34216,65,75,0
354.1162,354.34216,70,75,0
354.1162,354.34216,74,75,0
354.57776,354.8037,64,75,0
354.57776,354.8037,70,75,0
354.57776,354.8037,74,75,0
355.03928,355.26526,65,75,0
355.03928,355.26526,69,75,0
355.03928,355.26526,74,75,0
355.27005,355.38065,76,92,0
355.38544,355.49603,77,92,0
355.50082,355.6114,79,92,0
355.6162,355.72678,81,92,0
355.7316,355.84216,83,92,0
355.847,355.95755,85,92,0
355.96237,356.07294,86,92,0
356.07776,356.18832,88,92,0
356.19315,356.3037,89,92,0
356.30853,356.4191,88,92,0
356.4239,356.5345,89,92,0
356.19315,356.57776,77,92,0
356.53928,356.64987,86,92,0
356.65466,356.76526,89,92,0
356.77005,356.88065,88,92,0
356.88544,356.996,89,92,0
356.65466,357.03928,77,92,0
357.00082,357.1114,86,92,0
357.1162,357.22678,91,92,0
357.2316,357.34216,89,92,0
357.347,357.45755,91,92,0
357.1162,357.50082,79,92,0
357.46237,357.57294,87,92,0
357.57776,357.68832,89,92,0
357.69315,357.8037,87,92,0
357.8085,357.9191,89,92,0
357.57776,357.96237,77,92,0
357.9239,358.0345,86,92,0
358.03928,358.14987,91,92,0
358.15466,358.26526,87,92,0
358.27005,358.38065,79,92,0
358.38544,358.496,91,92,0
358.50082,358.6114,89,92,0
358.6162,358.72678,86,92,0
358.7316,358.84216,77,92,0
358.847,358.95755,89,92,0
358.96237,359.07294,87,92,0
359.07776,359.18832,84,92,0
359.19315,359.3037,75,92,0
359.3085,359.4191,87,92,0
359.4239,359.5345,86,92,0
359.53928,359.64987,82,92,0
359.65466,359.76526,74,92,0
359.77005,359.8806,86,92,0
359.88544,359.996,84,92,0
360.00082,360.1114,80,92,0
360.1162,360.22678,72,92,0
360.2316,360.34216,84,92,0
360.347,360.45755,82,92,0
360.46237,360.57294,79,92,0
360.57776,360.68832,70,92,0
360.6931,360.8037,82,92,0
360.8085,360.9191,91,92,0
360.9239,361.0345,88,92,0
361.03928,361.14987,79,92,0
361.15466,361.26526,91,92,0
361.27005,361.3806,89,92,0
361.38544,361.496,86,92,0
361.50082,361.6114,77,92,0
361.6162,361.72678,89,92,0
361.7316,361.84216,88,92,0
361.847,361.95755,84,92,0
361.96237,362.07294,76,92,0
362.07773,362.18832,88,92,0
362.1931,362.3037,86,92,0
362.3085,362.4191,82,92,0
362.4239,362.5345,74,92,0
362.53928,362.64987,86,92,0
362.65466,362.8806,84,92,0
362.88544,363.1114,81,92,0
363.1162,363.22678,72,92,0
363.1162,363.22678,82,92,0
363.2316,363.34216,79,92,0
363.347,363.45755,70,92,0
363.347,363.45755,84,92,0
363.46237,363.57294,82,92,0
363.57773,363.8037,69,92,0
363.57773,363.8037,78,92,0
363.57773,363.8037,81,92,0
364.50082,365.83414,75,92,0
364.50082,365.83414,78,92,0
364.50082,365.83414,81,92,0
364.50082,365.83414,84,92,0
364.50082,366.1383,87,92,0
366.15082,366.28833,86,92,0
366.3008,366.43832,84,92,0
366.4508,366.58832,82,92,0
366.60083,366.74457,84,75,0
366.75082,366.89456,82,75,0
366.90082,367.04456,81,75,0
367.0508,367.19458,79,75,0
367.3008,367.39456,81,75,0
367.40082,367.49457,79,75,0
367.50082,367.59457,77,75,0
367.60083,367.69458,75,75,0
367.7008,367.79456,74,75,0
367.90082,367.99457,77,75,0
368.00082,368.09457,75,75,0
368.10083,368.19458,74,75,0
368.2008,368.29456,72,75,0
368.3008,368.39456,70,75,0
368.50082,368.59457,74,75,0
368.60083,368.69458,72,75,0
368.7008,368.79456,70,75,0
368.8008,368.89456,69,75,0
368.90082,368.99457,67,75,0
369.10083,369.19458,72,75,0
369.2008,369.29456,69,75,0
369.3008,369.39456,67,75,0
369.40082,369.49457,65,75,0
369.50082,369.59457,62,75,0
369.7008,369.79456,69,75,0
369.8008,369.89456,65,75,0
369.90082,369.99457,63,75,0
370.00082,370.09457,62,75,0
370.10083,370.19458,60,75,0
370.3008,370.39456,65,75,0
370.40082,370.49457,63,75,0
370.50082,370.59457,60,75,0
370.60083,370.69458,58,75,0
370.7008,370.79456,57,75,0
370.90082,370.99457,65,75,0
371.00082,371.09457,63,75,0
371.10083,371.19458,60,75,0
371.2008,371.29456,58,75,0
371.3008,371.39456,57,75,0
371.50082,371.59457,65,75,0
371.60083,371.69458,62,75,0
371.7008,371.79456,60,75,0
371.8008,371.89456,59,75,0
371.90082,371.99457,56,75,0
372.10083,372.19458,65,75,0
372.2008,372.29456,62,75,0
372.3008,372.39456,60,75,0
372.40082,372.49457,59,75,0
372.50082,372.59457,56,75,0
372.7008,372.79456,64,75,0
372.8008,372.89456,61,75,0
372.90082,372.99457,58,75,0
373.00082,373.09457,57,75,0
373.10083,373.19458,55,75,0
373.3008,373.39456,63,75,0
373.40082,373.49457,60,75,0
373.50082,373.59457,57,75,0
373.60083,373.69458,55,75,0
373.7008,373.79456,54,75,0
373.90082,373.99457,62,75,0
374.00082,374.09457,59,75,0
374.10083,374.19458,56,75,0
374.2008,374.29456,55,75,0
374.3008,374.39456,53,75,0
374.50082,374.59457,61,75,0
374.60083,374.69458,58,75,0
374.7008,374.79456,55,75,0
374.8008,374.89456,54,75,0
374.90082,374.99457,52,75,0
375.11194,375.2161,62,75,0
375.22305,375.3272,57,76,0
375.33414,375.43832,55,77,0
375.44525,375.54944,54,78,0
375.55637,375.66055,52,79,0
375.79248,375.90967,50,82,0
375.91748,376.03467,45,84,0
376.04248,376.15967,43,86,0
376.16748,376.28467,42,88,0
376.29248,376.40967,40,90,0
376.41748,377.41748,38,92,0
389.6175,389.72015,66,60,0
389.72464,389.8273,67,60,0
389.83176,389.93445,66,60,0
389.9389,390.0416,64,60,0
390.04605,390.14874,63,60,0
390.1532,390.2559,64,60,0
390.26035,390.363,63,60,0
390.3675,390.47015,64,60,0
390.47464,390.5773,66,60,0
390.58176,390.68445,67,60,0
390.6889,390.7916,66,60,0
390.79605,390.89874,64,60,0
390.9032,391.0059,63,60,0
391.01035,391.113,64,60,0
391.1175,391.22015,63,60,0
391.22464,391.3273,64,60,0
391.33176,391.43445,66,60,0
391.4389,391.5416,67,64,0
391.54605,391.64874,66,68,0
391.6532,391.75586,67,72,0
391.76035,391.863,69,76,0
391.8675,391.97015,71,80,0
391.9746,392.0773,69,84,0
392.08176,392.18445,71,88,0
392.1889,392.2916,72,92,0
392.29605,392.39874,71,92,0
392.4032,392.50586,72,88,0
392.51035,392.613,71,84,0
392.6175,392.72015,69,80,0
392.7246,392.8273,67,75,0
392.83176,392.93445,69,70,0
392.9389,393.0416,67,65,0
393.04605,393.14874,66,60,0
393.1532,393.25586,67,60,0
393.26035,393.363,66,61,0
393.3675,393.47015,67,62,0
393.4746,393.5773,69,63,0
393.58176,393.68445,71,64,0
393.6889,393.7916,69,65,0
393.79605,393.89874,71,66,0
393.9032,394.00586,72,67,0
394.01035,394.113,71,68,0
394.1175,394.22015,72,69,0
394.2246,394.3273,71,70,0
394.33176,394.43445,69,71,0
394.4389,394.5416,67,72,0
394.54605,394.64874,69,73,0
394.6532,394.75586,67,74,0
394.76035,394.863,66,75,0
394.8675,394.97015,68,76,0
394.9746,395.0773,66,77,0
395.08176,395.18445,68,78,0
395.1889,395.2916,69,79,0
395.29605,395.39874,71,80,0
395.4032,395.50586,69,81,0
395.51035,395.613,71,82,0
395.6175,395.72015,72,83,0
395.7246,395.8273,78,84,0
395.83176,395.93445,72,85,0
395.9389,396.0416,78,86,0
396.04605,396.1487,81,87,0
396.1532,396.25586,90,88,0
396.26035,396.363,81,89,0
396.36746,396.47015,90,90,0
396.4746,396.59442,80,92,0
396.4746,396.59442,89,92,0
396.5996,396.71942,86,92,0
396.7246,396.84442,85,92,0
396.8496,396.96942,83,92,0
396.9746,397.0371,81,92,0
397.04605,397.10855,80,92,0
397.11746,397.17996,78,92,0
397.1889,397.2514,77,92,0
397.26035,397.32285,73,92,0
397.33176,397.39426,73,92,0
397.4032,397.4761,71,92,0
397.4865,397.55945,69,92,0
397.56985,397.64276,68,92,0
397.6532,397.76776,66,92,0
397.7782,397.89276,65,92,0
397.9032,398.04068,62,92,0
398.0532,398.1907,61,92,0
419.74603,419.96033,61,60,0
419.96033,420.063,62,60,0
420.06744,420.17014,63,60,0
420.1746,420.27728,62,60,0
420.28174,420.38443,60,60,0
420.3889,420.49158,58,60,0
420.49603,420.5987,60,60,0
420.60318,420.70584,58,60,0
420.71033,420.813,60,60,0
420.81744,420.92014,62,60,0
420.9246,421.02728,63,60,0
421.03174,421.13443,62,60,0
421.1389,421.24158,60,60,0
421.24603,421.3487,58,60,0
421.35318,421.45584,60,60,0
421.46033,421.563,58,60,0
421.56744,421.67014,60,60,0
421.6746,421.77728,62,60,0
421.78174,421.88443,63,60,0
421.8889,421.99158,62,60,0
421.99603,422.0987,63,60,0
422.10318,422.20584,65,60,0
422.21033,422.313,67,68,0
422.31744,422.42014,65,76,0
422.4246,422.52728,67,84,0
422.53174,422.63443,68,92,0
422.6389,422.74155,65,92,0
422.74603,422.8487,68,75,0
422.85318,422.95584,65,75,0
422.9603,423.063,67,60,0
423.06744,423.17014,63,60,0
423.1746,423.27728,60,60,0
423.28174,423.38443,55,60,0
423.3889,423.49155,69,60,0
423.49603,423.5987,70,60,0
423.60318,423.70584,69,60,0
423.7103,423.813,67,60,0
423.81744,423.92014,66,60,0
423.9246,424.02728,67,60,0
424.03174,424.13443,66,60,0
424.1389,424.24155,67,60,0
424.24603,424.3487,69,60,0
424.35318,424.45584,70,60,0
424.4603,424.563,69,60,0
424.56744,424.67014,67,60,0
424.6746,424.77728,66,60,0
424.78174,424.88443,67,60,0
424.8889,424.99155,66,60,0
424.99603,425.0987,67,60,0
425.10318,425.20584,69,60,0
425.2103,425.313,70,60,0
425.31744,425.42014,69,61,0
425.4246,425.52728,70,62,0
425.53174,425.63443,72,63,0
425.6389,425.74155,74,64,0
425.74603,425.8487,72,65,0
425.85318,425.95584,74,66,0
425.9603,426.063,75,67,0
426.06744,426.17014,72,68,0
426.1746,426.27728,75,69,0
426.28174,426.38443,72,70,0
426.3889,426.49155,74,71,0
426.49603,426.5987,70,72,0
426.60318,426.70584,67,73,0
426.7103,426.813,62,74,0
426.81744,426.92014,76,75,0
426.9246,427.02728,77,75,0
427.03174,427.1344,76,75,0
427.1389,427.24155,74,75,0
427.24603,427.3487,73,75,0
427.35315,427.45584,74,75,0
427.4603,427.563,73,75,0
427.56744,427.67014,74,75,0
427.6746,427.77728,76,75,0
427.78174,427.8844,77,75,0
427.8889,427.99155,76,75,0
427.99603,428.0987,74,75,0
428.10315,428.20584,73,75,0
428.2103,428.313,74,75,0
428.31744,428.42014,73,75,0
428.4246,428.52728,74,75,0
428.53174,428.6344,76,75,0
428.6389,428.74155,77,75,0
428.74603,428.8487,76,75,0
428.85315,428.95584,77,75,0
428.9603,429.063,79,75,0
429.06744,429.17014,81,75,0
429.1746,429.27728,79,75,0
429.28174,429.3844,81,75,0
429.3889,429.49155,82,75,0
429.49603,429.5987,84,75,0
429.60315,429.70584,82,75,0
429.7103,429.813,84,75,0
429.81744,429.92014,85,75,0
429.9246,430.02728,82,75,0
430.03174,430.1344,79,75,0
430.1389,430.24155,76,75,0
430.24603,430.3487,78,75,0
430.35315,430.45584,79,75,0
430.4603,430.563,78,75,0
430.56744,430.67014,79,75,0
430.6746,430.77728,81,75,0
430.78174,430.8844,82,75,0
430.8889,430.99155,81,75,0
430.99603,431.0987,82,75,0
431.10315,431.20584,84,75,0
431.2103,431.313,86,75,0
431.31744,431.42014,84,75,0
431.4246,431.52725,86,75,0
431.53174,431.6344,87,75,0
431.6389,431.74155,84,75,0
431.746,431.8487,81,75,0
431.85315,431.95584,78,75,0
431.9603,432.063,80,76,0
432.06744,432.17014,81,77,0
432.1746,432.27725,80,78,0
432.28174,432.3844,81,79,0
432.3889,432.49155,83,80,0
432.496,432.5987,85,81,0
432.60315,432.70584,83,82,0
432.7103,432.813,85,83,0
432.81744,432.92014,86,84,0
432.9246,433.02725,88,85,0
433.03174,433.1344,86,86,0
433.1389,433.24155,88,87,0
433.246,433.3487,89,88,0
433.35315,433.45584,86,89,0
433.4603,433.563,83,90,0
433.56744,433.67014,80,91,0
433.6746,433.77725,88,92,0
433.78174,433.8844,84,92,0
433.8889,433.99155,79,92,0
433.996,434.0987,76,92,0
434.10315,434.20584,87,92,0
434.2103,434.313,84,92,0
434.31744,434.42014,81,92,0
434.4246,434.52725,78,92,0
434.53174,434.6344,86,92,0
434.6389,434.74155,83,92,0
434.746,434.8487,80,92,0
434.85315,434.95584,77,92,0
434.9603,435.063,84,92,0
435.06744,435.17014,79,92,0
435.1746,435.27725,76,92,0
435.28174,435.3844,72,92,0
435.3889,435.49155,82,92,0
435.496,435.5987,79,92,0
435.60315,435.70584,75,92,0
435.7103,435.813,73,92,0
435.81744,435.9201,70,92,0
435.9246,436.02725,67,92,0
436.03174,436.1344,63,92,0
436.13885,436.24155,61,92,0
436.246,436.31744,58,92,0
436.35315,436.45584,55,92,0
436.4603,436.563,51,92,0
436.56744,436.6701,49,92,0
436.6746,436.77725,58,92,0
436.78174,436.8844,55,92,0
436.88885,436.99155,51,92,0
436.996,437.0987,49,92,0
437.10315,437.20584,50,60,0
437.2103,437.313,52,60,0
437.31744,437.4201,54,60,0
437.4246,437.52725,55,60,0
437.53174,437.6344,54,60,0
437.63885,437.74155,55,60,0
437.746,437.8487,57,60,0
437.85315,437.95584,58,60,0
437.9603,438.063,57,60,0
438.06744,438.1701,58,60,0
438.1746,438.27725,60,60,0
438.28174,438.3844,62,60,0
438.38885,438.49155,60,60,0
438.496,438.5987,62,60,0
438.60315,438.70584,63,60,0
438.7103,438.813,66,60,0
438.81744,438.9201,62,60,0
438.9246,439.02725,63,60,0
439.03174,439.1344,66,60,0
439.13885,439.24155,67,60,0
439.246,439.3487,66,60,0
439.35315,439.45584,67,60,0
439.4603,439.563,69,60,0
439.56744,439.6701,70,60,0
439.6746,439.77725,69,60,0
439.78174,439.8844,70,60,0
439.88885,439.99155,72,60,0
439.996,440.0987,74,60,0
440.10315,440.20584,72,60,0
440.2103,440.31296,74,61,0
440.31744,440.4201,75,61,0
440.4246,440.52725,78,62,0
440.5317,440.60315,74,63,0
440.63885,440.74155,75,64,0
440.746,440.8487,78,65,0
440.85315,440.95584,79,66,0
440.9603,441.0317,78,67,0
441.06744,441.1701,79,68,0
441.1746,441.27725,81,69,0
441.2817,441.3844,82,70,0
441.38885,441.4603,81,71,0
441.496,441.5987,82,72,0
441.60315,441.70584,84,73,0
441.7103,441.81296,86,74,0
441.81744,441.88885,84,75,0
441.9246,442.02725,86,76,0
442.0317,442.1344,87,77,0
442.13885,442.24155,90,78,0
442.246,442.31744,84,79,0
442.35315,442.45584,86,80,0
442.4603,442.56296,87,81,0
442.56744,442.6701,90,82,0
442.6746,442.746,84,83,0
442.7817,442.8844,86,84,0
442.88885,442.99155,87,85,0
442.996,443.0987,90,86,0
443.10315,443.1746,84,87,0
443.2103,443.31296,86,88,0
443.31744,443.4201,87,89,0
443.4246,443.52725,90,90,0
443.5317,443.60315,84,92,0
443.63885,443.74155,86,92,0
443.746,443.8487,87,92,0
443.85315,443.95584,90,92,0
443.9603,444.25613,79,92,0
443.9603,444.25613,82,92,0
443.9603,444.25613,86,92,0
443.9603,444.25613,91,92,0
444.26028,444.3603,67,92,0
444.3603,444.65613,62,92,0
444.3603,444.65613,70,92,0
444.66028,444.76028,70,92,0
444.76028,444.82697,60,92,0
444.76028,444.82697,69,92,0
444.9603,445.02695,58,92,0
444.9603,445.02695,67,92,0
445.16028,445.22696,57,92,0
445.16028,445.22696,66,92,0
445.3603,445.42697,58,92,0
445.3603,445.42697,67,92,0
445.5603,445.89362,62,92,0
445.5603,445.89362,66,92,0
445.5603,445.89362,74,92,0
445.9603,446.25613,62,92,0
445.9603,446.25613,66,92,0
445.9603,446.25613,69,92,0
446.26028,446.3603,62,92,0
446.3603,446.65613,58,92,0
446.3603,446.65613,67,92,0
446.66028,446.76028,67,92,0
446.76028,447.05612,62,92,0
446.76028,447.05612,70,92,0
447.0603,447.16028,70,92,0
447.16028,447.22696,60,92,0
447.16028,447.22696,69,92,0
447.3603,447.42697,58,92,0
447.3603,447.42697,67,92,0
447.5603,447.62695,57,92,0
447.5603,447.62695,66,92,0
447.76028,447.82697,58,92,0
447.76028,447.82697,67,92,0
447.9603,448.02695,62,92,0
447.9603,448.02695,70,92,0
447.9603,448.02695,74,92,0
448.16028,448.22696,64,92,0
448.16028,448.22696,73,92,0
448.16028,448.22696,76,92,0
448.3603,448.69363,66,92,0
448.3603,448.69363,74,92,0
448.3603,448.69363,78,92,0
448.76028,449.09363,67,92,0
448.76028,449.09363,70,92,0
448.76028,449.09363,74,92,0
448.76028,449.09363,79,92,0
449.16028,449.45612,70,92,0
449.16028,449.45612,74,92,0
449.16028,449.45612,82,92,0
449.4603,449.5603,82,92,0
449.5603,449.62695,72,92,0
449.5603,449.62695,81,92,0
449.76028,449.82697,70,92,0
449.76028,449.82697,79,92,0
449.9603,450.02695,69,92,0
449.9603,450.02695,78,92,0
450.16028,450.22696,70,92,0
450.16028,450.22696,79,92,0
450.3603,450.69363,74,92,0
450.3603,450.69363,78,92,0
450.3603,450.69363,86,92,0
450.76028,451.09363,69,92,0
450.76028,451.09363,78,92,0
450.76028,451.09363,81,92,0
451.16028,451.49362,67,92,0
451.16028,451.49362,70,92,0
451.16028,451.49362,74,92,0
451.16028,451.49362,79,92,0
451.5603,451.8561,70,92,0
451.5603,451.8561,74,92,0
451.5603,451.8561,79,92,0
451.5603,451.8561,82,92,0
451.8603,451.9603,82,92,0
451.9603,452.02695,72,92,0
451.9603,452.02695,81,92,0
452.16028,452.22696,70,92,0
452.16028,452.22696,79,92,0
452.3603,452.42697,69,92,0
452.3603,452.42697,78,92,0
452.5603,452.62695,70,92,0
452.5603,452.62695,79,92,0
452.76028,452.82697,74,92,0
452.76028,452.82697,82,92,0
452.76028,452.82697,86,92,0
452.9603,453.02695,76,92,0
452.9603,453.02695,85,92,0
452.9603,453.02695,88,92,0
453.16028,453.49362,78,92,0
453.16028,453.49362,86,92,0
453.16028,453.49362,90,92,0
453.5603,453.89362,79,92,0
453.5603,453.89362,87,92,0
453.5603,453.89362,91,92,0
453.9603,454.0603,77,92,0
453.9603,454.0603,86,92,0
453.9603,454.0603,89,92,0
454.0603,454.16028,91,92,0
454.16028,454.22696,77,92,0
454.16028,454.22696,86,92,0
454.16028,454.22696,89,92,0
454.3603,454.69363,75,92,0
454.3603,454.69363,84,92,0
454.3603,454.69363,87,92,0
454.76028,455.09363,74,92,0
454.76028,455.09363,82,92,0
454.76028,455.09363,86,92,0
455.16028,455.26028,72,92,0
455.16028,455.26028,81,92,0
455.16028,455.26028,84,92,0
455.26028,455.3603,86,92,0
455.3603,455.42697,72,92,0
455.3603,455.42697,81,92,0
455.3603,455.42697,84,92,0
455.5603,455.62695,70,92,0
455.5603,455.62695,79,92,0
455.5603,455.62695,82,92,0
455.76028,455.82697,67,92,0
455.76028,455.82697,75,92,0
455.76028,455.82697,79,92,0
455.9603,456.2936,80,92,0
455.9603,456.2936,89,92,0
455.9603,456.2936,92,92,0
456.3603,456.4603,79,92,0
456.3603,456.4603,87,92,0
456.3603,456.4603,91,92,0
456.4603,456.5603,92,92,0
456.5603,456.62695,79,92,0
456.5603,456.62695,87,92,0
456.5603,456.62695,91,92,0
456.76028,457.09363,77,92,0
456.76028,457.09363,86,92,0
456.76028,457.09363,89,92,0
457.16028,457.49362,82,92,0
457.16028,457.49362,91,92,0
457.16028,457.49362,94,92,0
457.5603,457.66028,80,92,0
457.5603,457.66028,89,92,0
457.5603,457.66028,92,92,0
457.66028,457.76028,94,92,0
457.76028,457.82697,80,92,0
457.76028,457.82697,89,92,0
457.76028,457.82697,92,92,0
457.9603,458.2936,79,92,0
457.9603,458.2936,87,92,0
457.9603,458.2936,91,92,0
458.3603,458.69363,88,92,0
458.3603,458.69363,100,92,0
458.76028,458.8603,86,92,0
458.76028,458.8603,98,92,0
458.8603,458.9603,100,92,0
458.9603,459.02695,86,92,0
458.9603,459.02695,98,92,0
459.16028,459.49362,85,92,0
459.16028,459.49362,97,92,0
459.5603,459.66028,82,92,0
459.5603,459.66028,94,92,0
459.66028,459.76028,96,92,0
459.76028,459.82697,82,92,0
459.76028,459.82697,94,92,0
459.9603,460.2936,81,92,0
459.9603,460.2936,93,92,0
460.3603,460.4603,79,92,0
460.3603,460.4603,91,92,0
460.4603,460.5603,93,92,0
460.5603,460.62695,79,92,0
460.5603,460.62695,91,92,0
460.76028,460.82697,77,92,0
460.76028,460.82697,89,92,0
460.9603,461.02695,79,92,0
460.9603,461.02695,91,92,0
461.16028,461.22696,81,92,0
461.16028,461.22696,93,92,0
461.3603,461.42697,82,92,0
461.3603,461.42697,94,92,0
461.5603,461.62695,81,92,0
461.5603,461.62695,93,92,0
461.76028,461.82697,79,92,0
461.76028,461.82697,91,92,0
461.9603,462.02695,77,92,0
461.9603,462.02695,89,92,0
462.16028,462.22696,76,92,0
462.16028,462.22696,88,92,0
462.3603,462.42697,77,92,0
462.3603,462.42697,89,92,0
462.5603,462.62695,79,92,0
462.5603,462.62695,91,92,0
462.76028,462.82697,81,92,0
462.76028,462.82697,93,92,0
462.9603,463.02695,82,92,0
462.9603,463.02695,94,92,0
463.16028,463.22696,81,92,0
463.16028,463.22696,93,92,0
463.3603,463.42697,79,92,0
463.3603,463.42697,91,92,0
463.5603,463.62695,77,92,0
463.5603,463.62695,89,92,0
463.76028,463.82697,76,92,0
463.76028,463.82697,88,92,0
463.9603,464.02695,77,92,0
463.9603,464.02695,89,92,0
464.16028,464.22696,79,92,0
464.16028,464.22696,91,92,0
464.3603,464.42697,81,92,0
464.3603,464.42697,93,92,0
464.5603,464.62695,82,92,0
464.5603,464.62695,94,92,0
464.76028,464.82697,84,92,0
464.76028,464.82697,96,92,0
464.9603,465.02695,86,92,0
464.9603,465.02695,98,92,0
465.16028,465.22696,88,92,0
465.16028,465.22696,100,92,0
465.3603,465.42697,90,92,0
465.3603,465.42697,102,92,0
465.5603,465.75613,91,92,0
465.5603,465.75613,94,92,0
465.5603,465.75613,103,92,0
465.9603,466.2936,58,92,0
465.9603,466.2936,70,92,0
466.3603,466.55356,69,92,0
466.55765,466.75092,67,92,0
466.75504,466.94827,66,92,0
466.9524,467.14566,67,92,0
467.14975,467.34302,75,92,0
467.34714,467.54037,73,92,0
467.5445,467.73776,74,92,0
467.74185,467.93512,81,92,0
467.93924,468.12997,78,92,0
468.13403,468.3248,79,92,0
468.32886,468.5196,87,92,0
468.52365,468.7144,85,92,0
468.71844,468.9092,86,92,0
468.91327,469.104,93,92,0
469.10806,469.2988,90,92,0
469.30286,469.49362,91,92,0
469.49768,469.68597,96,92,0
469.68997,469.8783,93,92,0
469.8823,470.0706,94,92,0
470.0746,470.2629,99,92,0
470.2669,470.4552,97,92,0
470.4592,470.64752,98,92,0
470.65152,470.8398,91,92,0
470.65152,470.8398,103,92,0
470.84384,471.03214,98,92,0
471.03613,471.22205,91,92,0
471.03613,471.22205,103,92,0
471.226,471.41193,98,92,0
471.4159,471.6018,91,92,0
471.4159,471.6018,103,92,0
471.60574,471.79166,98,92,0
471.79562,471.98154,91,92,0
471.79562,471.98154,103,92,0
472.36523,472.55118,74,92,0
472.36523,472.55118,78,92,0
472.36523,472.55118,81,92,0
472.36523,472.55118,86,92,0
472.5551,472.7387,79,92,0
472.5551,472.7387,82,92,0
472.5551,472.7387,86,92,0
472.5551,472.7387,91,92,0
473.1176,473.3012,74,92,0
473.1176,473.3012,78,92,0
473.1176,473.3012,81,92,0
473.1176,473.3012,86,92,0
473.3051,473.4887,79,92,0
473.3051,473.4887,82,92,0
473.3051,473.4887,86,92,0
473.3051,473.4887,91,92,0
473.8676,474.0512,62,92,0
473.8676,474.0512,66,92,0
473.8676,474.0512,69,92,0
473.8676,474.0512,74,92,0
474.0551,474.2387,67,92,0
474.0551,474.2387,70,92,0
474.0551,474.2387,74,92,0
474.0551,474.2387,79,92,0
474.6176,474.82745,62,92,0
474.6176,474.82745,66,92,0
474.6176,474.82745,69,92,0
474.6176,474.82745,74,92,0
474.8319,476.68906,67,92,0
474.8319,476.68906,70,92,0
474.8319,476.68906,74,92,0
474.8319,476.68906,79,92,0
476.68906,476.9828,55,92,0
0.923076,0.999999,43,105,0
0.923076,0.999999,50,105,0
0.923076,0.999999,55,105,0
1.153845,1.230768,55,75,0
1.384614,1.461537,55,75,0
1.615383,1.692306,55,75,0
1.846152,1.923075,43,105,0
1.846152,1.923075,50,105,0
1.846152,1.923075,55,105,0
2.076921,2.153844,55,75,0
2.30769,2.384613,55,75,0
2.538459,2.615382,55,75,0
2.769228,2.846151,43,105,0
2.769228,2.846151,50,105,0
2.769228,2.846151,55,105,0
2.999997,3.07692,55,75,0
3.230766,3.307689,55,75,0
3.461535,3.538458,55,75,0
3.692304,3.769227,43,105,0
3.692304,3.769227,50,105,0
3.692304,3.769227,55,105,0
3.923073,3.999996,55,75,0
4.153842,4.230765,55,75,0
4.384611,4.461534,55,75,0
4.61538,4.692303,43,105,0
4.61538,4.692303,50,105,0
4.61538,4.692303,55,105,0
4.846149,4.923072,55,75,0
5.076918,5.153841,55,75,0
5.307687,5.38461,55,75,0
5.538456,5.615379,43,75,0
5.538456,5.615379,50,75,0
5.538456,5.615379,55,75,0
5.769225,5.846148,40,75,0
5.769225,5.846148,52,75,0
5.999994,6.076917,38,75,0
5.999994,6.076917,50,75,0
6.230763,6.307686,36,75,0
6.230763,6.307686,48,75,0
6.461532,6.538455,34,75,0
6.461532,6.538455,46,75,0
6.692301,6.769224,33,75,0
6.692301,6.769224,45,75,0
6.92307,6.999993,31,75,0
6.92307,6.999993,43,75,0
7.153839,7.230762,43,75,0
7.384608,7.461531,31,75,0
7.384608,7.461531,38,75,0
7.384608,7.461531,43,75,0
7.615377,7.6923,43,75,0
7.846146,7.923069,43,75,0
8.076915,8.153838,43,75,0
8.307684,8.384607,31,75,0
8.307684,8.384607,38,75,0
8.307684,8.384607,43,75,0
8.538453,8.615376,43,75,0
8.769222,8.846145,43,75,0
8.999991,9.076914,43,75,0
9.23076,9.307683,43,75,0
9.23076,9.307683,50,75,0
9.23076,9.307683,55,75,0
9.461529,9.538452,55,75,0
9.692298,9.769221,55,75,0
9.923067,9.99999,55,75,0
10.153836,10.230759,43,75,0
10.153836,10.230759,50,75,0
10.153836,10.230759,55,75,0
10.384605,10.461528,55,75,0
10.615374,10.692297,55,75,0
10.846143,10.923066,55,75,0
11.076912,11.153835,43,75,0
11.076912,11.153835,50,75,0
11.076912,11.153835,55,75,0
11.307681,11.384604,40,75,0
11.307681,11.384604,52,75,0
11.53845,11.615373,38,75,0
11.53845,11.615373,50,75,0
11.769219,11.846142,36,75,0
11.769219,11.846142,48,75,0
11.999988,12.225949,34,75,0
11.999988,12.225949,46,75,0
12.230757,12.456718,63,75,0
12.230757,12.456718,67,75,0
12.461526,12.687488,58,75,0
12.692295,12.918257,62,75,0
12.692295,12.918257,65,75,0
12.923064,12.999987,46,75,0
13.153833,13.230756,60,75,0
13.153833,13.230756,63,75,0
13.384602,13.461525,46,75,0
13.615371,13.692294,58,75,0
13.615371,13.692294,62,75,0
13.84614,13.923063,46,75,0
14.076909,14.153832,57,75,0
14.076909,14.153832,60,75,0
14.307678,14.384601,46,75,0
14.538447,14.61537,55,75,0
14.538447,14.61537,58,75,0
14.769216,14.846139,45,75,0
14.769216,14.846139,57,75,0
14.999985,15.076908,64,75,0
14.999985,15.076908,67,75,0
15.230754,15.307677,57,75,0
15.461523,15.538446,62,75,0
15.461523,15.538446,65,75,0
15.692292,15.769215,57,75,0
15.923061,15.999984,61,75,0
15.923061,15.999984,64,75,0
16.15383,16.230753,57,75,0
16.3846,16.461521,58,75,0
16.3846,16.461521,62,75,0
16.615368,16.692291,45,75,0
16.846136,16.92306,57,75,0
16.846136,16.92306,61,75,0
17.076906,17.16024,50,75,0
17.326906,17.426907,54,75,0
17.326906,17.426907,57,75,0
17.326906,17.426907,62,75,0
17.626905,17.703829,43,105,0
17.626905,17.703829,50,105,0
17.626905,17.703829,55,105,0
17.857676,17.934599,55,75,0
18.088444,18.165367,55,75,0
18.319214,18.396135,55,75,0
18.549982,18.626905,43,105,0
18.549982,18.626905,50,105,0
18.549982,18.626905,55,105,0
18.78075,18.857674,55,75,0
19.01152,19.088444,55,75,0
19.242289,19.319212,55,75,0
19.473059,19.54998,43,105,0
19.473059,19.54998,50,105,0
19.473059,19.54998,55,105,0
19.703827,19.78075,55,75,0
19.934595,20.011518,55,75,0
20.165365,20.242289,55,75,0
20.396133,20.473057,43,105,0
20.396133,20.473057,50,105,0
20.396133,20.473057,55,105,0
20.626904,20.703827,55,75,0
20.857672,20.934595,55,75,0
21.088442,21.165363,55,75,0
21.31921,21.396133,43,105,0
21.31921,21.396133,50,105,0
21.31921,21.396133,55,105,0
21.549978,21.626902,55,75,0
21.780748,21.857672,55,75,0
22.011517,22.08844,55,75,0
22.242287,22.319208,43,75,0
22.242287,22.319208,50,75,0
22.242287,22.319208,55,75,0
22.473055,22.549978,40,75,0
22.473055,22.549978,52,75,0
22.703823,22.780746,38,75,0
22.703823,22.780746,50,75,0
22.934593,23.011517,36,75,0
22.934593,23.011517,48,75,0
23.165361,23.242285,34,75,0
23.165361,23.242285,46,75,0
23.396132,23.473055,33,75,0
23.396132,23.473055,45,75,0
23.6269,23.703823,31,75,0
23.6269,23.703823,43,75,0
23.85767,23.934591,43,75,0
24.088438,24.165361,31,75,0
24.088438,24.165361,38,75,0
24.088438,24.165361,43,75,0
24.319206,24.39613,43,75,0
24.549976,24.6269,43,75,0
24.780745,24.857668,43,75,0
25.011515,25.088436,31,75,0
25.011515,25.088436,38,75,0
25.011515,25.088436,43,75,0
25.242283,25.319206,43,75,0
25.473051,25.549974,43,75,0
25.703821,25.780745,43,75,0
25.93459,26.011513,43,75,0
25.93459,26.011513,50,75,0
25.93459,26.011513,55,75,0
26.16536,26.242283,55,75,0
26.396128,26.473051,55,75,0
26.626898,26.70382,55,75,0
26.857666,26.93459,36,75,0
26.857666,26.93459,43,75,0
26.857666,26.93459,48,75,0
27.088434,27.165358,48,79,0
27.319204,27.396128,48,83,0
27.549973,27.626896,48,87,0
27.780743,27.917105,38,92,0
27.780743,27.917105,50,92,0
28.326197,28.462559,31,92,0
28.326197,28.462559,43,92,0
28.87165,29.256266,30,105,0
28.87165,29.256266,42,105,0
29.333187,29.717802,31,105,0
29.333187,29.717802,43,105,0
30.025496,30.251457,50,60,0
30.025496,30.251457,54,60,0
30.025496,30.251457,57,60,0
30.025496,30.251457,60,60,0
30.487034,30.712994,38,60,0
30.487034,30.712994,42,60,0
30.487034,30.712994,45,60,0
30.487034,30.712994,50,60,0
30.94857,31.174532,43,60,0
30.94857,31.174532,46,60,0
30.94857,31.174532,50,60,0
30.94857,31.174532,55,60,0
31.410109,31.63607,31,60,0
31.410109,31.63607,34,60,0
31.410109,31.63607,38,60,0
31.410109,31.63607,43,60,0
31.640879,32.025494,33,105,0
31.640879,32.025494,45,105,0
32.102417,32.48703,34,105,0
32.102417,32.48703,46,105,0
32.794724,33.020683,53,60,0
32.794724,33.020683,57,60,0
32.794724,33.020683,60,60,0
32.794724,33.020683,63,60,0
33.25626,33.482224,41,60,0
33.25626,33.482224,45,60,0
33.25626,33.482224,48,60,0
33.25626,33.482224,53,60,0
33.7178,33.94376,46,60,0
33.7178,33.94376,50,60,0
33.7178,33.94376,53,60,0
33.7178,33.94376,58,60,0
34.179337,34.4053,34,60,0
34.179337,34.4053,38,60,0
34.179337,34.4053,41,60,0
34.179337,34.4053,46,60,0
34.410107,34.79472,37,105,0
34.410107,34.79472,49,105,0
34.871643,35.25626,38,105,0
34.871643,35.25626,50,105,0
35.333183,35.717796,37,105,0
35.333183,35.717796,49,105,0
35.79472,36.179337,38,105,0
35.79472,36.179337,50,105,0
36.256256,36.640873,49,105,0
36.256256,36.640873,61,105,0
36.717796,37.10241,50,105,0
36.717796,37.10241,62,105,0
37.179333,37.28991,68,92,0
37.29472,37.405296,69,92,0
37.410103,37.52068,71,92,0
37.525486,37.636063,73,92,0
37.640873,37.75145,75,92,0
37.756256,37.866833,77,92,0
37.87164,37.98222,78,92,0
37.987026,38.097603,80,92,0
38.10241,38.212986,81,92,0
38.217796,38.328373,80,92,0
38.33318,38.443756,81,92,0
38.448563,38.55914,80,92,0
38.56395,38.64087,81,92,0
38.794716,38.87164,78,92,0
39.025486,39.136063,82,92,0
39.14087,39.251446,81,92,0
39.256256,39.366833,82,92,0
39.37164,39.482216,79,92,0
39.487022,39.563946,81,92,0
39.717793,39.794716,78,92,0
39.948563,40.025486,37,92,0
40.179333,40.256252,49,92,0
40.4101,40.487022,37,92,0
40.64087,40.717793,49,92,0
40.87164,40.948563,42,92,0
41.102406,41.17933,54,92,0
41.333176,41.4101,38,92,0
41.563946,41.64087,50,92,0
41.794716,41.871635,31,92,0
42.025482,42.102406,43,92,0
42.256252,42.333176,38,92,0
42.487022,42.563946,50,92,0
42.71779,43.102406,62,105,0
42.71779,43.102406,69,105,0
42.71779,43.102406,74,105,0
43.17933,43.563942,55,105,0
43.17933,43.563942,58,105,0
43.17933,43.563942,62,105,0
43.17933,43.563942,67,105,0
43.871635,44.097595,50,60,0
43.871635,44.097595,54,60,0
43.871635,44.097595,57,60,0
43.871635,44.097595,62,60,0
44.33317,44.559135,50,60,0
44.33317,44.559135,54,60,0
44.33317,44.559135,57,60,0
44.33317,44.559135,62,60,0
44.794712,45.02067,55,60,0
44.794712,45.02067,58,60,0
44.794712,45.02067,62,60,0
45.25625,45.482212,55,60,0
45.25625,45.482212,58,60,0
45.25625,45.482212,62,60,0
45.48702,45.87163,65,105,0
45.48702,45.87163,72,105,0
45.48702,45.87163,77,105,0
45.948555,46.33317,58,105,0
45.948555,46.33317,62,105,0
45.948555,46.33317,65,105,0
45.948555,46.33317,70,105,0
46.64086,46.866825,53,60,0
46.64086,46.866825,57,60,0
46.64086,46.866825,60,60,0
46.64086,46.866825,65,60,0
47.1024,47.32836,53,60,0
47.1024,47.32836,57,60,0
47.1024,47.32836,60,60,0
47.1024,47.32836,65,60,0
47.56394,47.7899,58,53,0
47.56394,47.7899,62,53,0
47.56394,47.7899,65,53,0
48.02548,48.25144,58,45,0
48.02548,48.25144,62,45,0
48.02548,48.25144,65,45,0
48.256245,48.64086,61,105,0
48.256245,48.64086,73,105,0
48.717785,49.102398,62,105,0
48.717785,49.102398,74,105,0
49.17932,49.56394,53,105,0
49.17932,49.56394,65,105,0
49.64086,50.025475,46,105,0
49.64086,50.025475,58,105,0
50.102398,50.487015,50,105,0
50.102398,50.487015,62,105,0
50.563934,50.94855,43,105,0
50.563934,50.94855,55,105,0
51.025475,51.251434,45,60,0
51.256245,51.482204,57,60,0
51.256245,51.482204,64,60,0
51.256245,51.482204,67,60,0
51.71778,51.94374,57,60,0
51.71778,51.94374,64,60,0
51.71778,51.94374,67,60,0
52.179317,52.40528,50,57,0
52.179317,52.40528,62,57,0
52.640858,52.866817,46,53,0
52.640858,52.866817,58,53,0
53.102394,53.328358,43,49,0
53.102394,53.328358,55,49,0
53.563934,53.789894,50,45,0
53.563934,53.789894,62,45,0
53.7947,53.871624,45,92,0
54.02547,54.102394,57,92,0
54.25624,54.333164,45,92,0
54.487007,54.56393,57,92,0
54.717777,54.7947,50,92,0
54.948547,55.02547,62,92,0
55.179317,55.25624,46,92,0
55.410084,55.487007,58,92,0
55.640854,55.717777,39,92,0
55.871624,55.948547,51,92,0
56.10239,56.179314,46,92,0
56.33316,56.410084,58,92,0
56.56393,56.78989,27,92,0
56.7947,57.02066,39,92,0
57.025467,57.25143,34,92,0
57.256237,57.482197,46,92,0
57.487007,57.712967,36,92,0
57.717773,57.943737,48,92,0
57.948544,58.174507,43,92,0
58.179314,58.405273,55,92,0
58.410084,58.636044,44,92,0
58.64085,58.866814,56,92,0
58.87162,59.09758,51,92,0
59.10239,59.32835,63,92,0
59.333157,59.55912,33,92,0
59.563927,59.789886,45,92,0
59.794697,60.020657,38,92,0
60.025463,60.251427,50,92,0
60.256233,60.482197,41,92,0
60.487003,60.712963,53,92,0
60.717773,60.943733,46,92,0
60.94854,61.174503,58,92,0
61.17931,61.40527,48,92,0
61.41008,61.63604,60,92,0
61.640846,61.74085,50,92,0
61.640846,61.74085,62,92,0
61.94085,62.06585,38,92,0
61.94085,62.06585,50,92,0
62.31585,62.392773,43,105,0
62.31585,62.392773,50,105,0
62.31585,62.392773,55,105,0
62.546616,62.62354,55,75,0
62.777386,62.85431,55,75,0
63.008156,63.08508,55,75,0
63.238922,63.315845,43,105,0
63.238922,63.315845,50,105,0
63.238922,63.315845,55,105,0
63.469692,63.546616,55,75,0
63.700462,63.777386,55,75,0
63.931232,64.008156,55,75,0
64.162,64.23892,43,105,0
64.162,64.23892,50,105,0
64.162,64.23892,55,105,0
64.39277,64.46969,55,75,0
64.623535,64.70046,55,75,0
64.85431,64.93123,55,75,0
65.085075,65.162,43,105,0
65.085075,65.162,50,105,0
65.085075,65.162,55,105,0
65.31584,65.39277,55,75,0
65.546616,65.623535,55,75,0
65.77738,65.85431,55,75,0
66.00815,66.085075,43,105,0
66.00815,66.085075,50,105,0
66.00815,66.085075,55,105,0
66.23892,66.31584,55,75,0
66.46969,66.546616,55,75,0
66.70046,66.77738,55,75,0
66.93123,67.00815,43,75,0
66.93123,67.00815,50,75,0
66.93123,67.00815,55,75,0
67.161995,67.23892,40,75,0
67.161995,67.23892,52,75,0
67.39277,67.46969,38,75,0
67.39277,67.46969,50,75,0
67.623535,67.700455,36,75,0
67.623535,67.700455,48,75,0
67.8543,67.93123,34,75,0
67.8543,67.93123,46,75,0
68.085075,68.161995,33,75,0
68.085075,68.161995,45,75,0
68.31584,68.39276,31,75,0
68.31584,68.39276,43,75,0
68.54661,68.623535,43,75,0
68.77738,68.8543,31,75,0
68.77738,68.8543,38,75,0
68.77738,68.8543,43,75,0
69.00815,69.085075,43,75,0
69.238914,69.31584,43,75,0
69.46969,69.54661,43,75,0
69.700455,69.77738,31,75,0
69.700455,69.77738,38,75,0
69.700455,69.77738,43,75,0
69.93123,70.00815,43,75,0
70.161995,70.238914,43,75,0
70.39276,70.46969,43,75,0
70.623535,70.700455,43,75,0
70.623535,70.700455,50,75,0
70.623535,70.700455,55,75,0
70.8543,70.93122,55,75,0
71.08507,71.161995,55,75,0
71.31584,71.39276,55,75,0
71.54661,71.62353,36,75,0
71.54661,71.62353,43,75,0
71.54661,71.62353,48,75,0
71.777374,71.8543,48,75,0
72.00815,72.08507,48,75,0
72.238914,72.31584,48,75,0
72.46968,72.58507,38,92,0
72.46968,72.58507,50,92,0
72.93122,73.04661,31,92,0
72.93122,73.04661,43,92,0
74.89276,75.003334,65,60,0
75.00815,75.11872,67,60,0
75.12353,75.23411,65,60,0
75.238914,75.34949,63,60,0
75.3543,75.464874,62,60,0
75.46968,75.58026,63,60,0
75.58507,75.69564,62,60,0
75.700455,75.81103,63,60,0
75.815834,75.926414,65,60,0
75.93122,76.041794,67,60,0
76.04661,76.15718,65,60,0
76.16199,76.27257,63,60,0
76.277374,76.38795,62,60,0
76.39276,76.503334,63,60,0
76.50814,76.61872,62,60,0
76.62353,76.73411,63,60,0
76.738914,76.84949,65,60,0
76.854294,76.964874,67,60,0
76.96968,77.08026,65,60,0
77.08507,77.19564,67,60,0
77.20045,77.31103,69,60,0
77.315834,77.426414,70,60,0
77.43122,77.541794,69,60,0
77.5466,77.65718,70,60,0
77.66199,77.77257,72,60,0
77.777374,77.88795,70,60,0
77.89275,78.003334,72,60,0
78.00814,78.11872,70,60,0
78.12353,78.2341,69,60,0
78.23891,78.34949,67,60,0
78.354294,78.464874,69,60,0
78.46968,78.58025,67,60,0
78.58507,78.69564,65,60,0
78.70045,78.81103,67,60,0
78.815834,78.92641,65,60,0
78.93122,79.041794,67,60,0
79.0466,79.15718,69,60,0
79.16199,79.27256,72,60,0
79.277374,79.38795,69,60,0
79.39275,79.503334,72,60,0
79.50814,79.61871,77,60,0
79.62353,79.7341,75,60,0
79.73891,79.84949,77,60,0
79.854294,79.96487,75,60,0
79.96968,80.08025,74,60,0
80.08506,80.19564,72,60,0
80.20045,80.31103,74,60,0
80.315834,80.42641,72,60,0
80.43121,80.541794,70,60,0
80.5466,80.65718,74,60,0
80.66199,80.77256,70,60,0
80.77737,80.88795,74,60,0
80.89275,81.003334,80,60,0
81.00814,81.11871,72,60,0
81.12352,81.2341,80,60,0
81.23891,81.34949,72,60,0
81.354294,81.46487,70,60,0
81.46967,81.58025,79,60,0
81.58506,81.69564,70,60,0
81.70045,81.81102,79,60,0
81.81583,81.92641,78,60,0
81.93121,82.041794,69,60,0
82.0466,82.15717,78,60,0
82.16199,82.27256,69,60,0
82.27737,82.38795,79,60,0
82.39275,82.50333,74,60,0
82.50814,82.61871,70,60,0
82.62352,82.7341,67,60,0
82.73891,82.84948,69,60,0
82.854294,82.96487,70,60,0
82.96967,83.08025,72,60,0
83.08506,83.19563,74,60,0
83.20045,83.31102,79,60,0
83.31583,83.42641,74,60,0
83.43121,83.54179,70,60,0
83.5466,83.65717,67,60,0
83.66198,83.77256,69,60,0
83.77737,83.88795,70,60,0
83.89275,84.00333,72,60,0
84.00813,84.11871,74,60,0
84.12352,84.2341,79,60,0
84.23891,84.34948,74,60,0
84.35429,84.46487,70,60,0
84.46967,84.58025,67,60,0
84.58506,84.69563,69,60,0
84.70044,84.81102,70,60,0
84.81583,84.92641,72,60,0
84.93121,85.04179,74,60,0
85.04659,85.29139,79,60,0
85.54659,85.67728,74,60,0
85.68296,85.813644,70,60,0
85.81932,85.96307,67,60,0
85.96932,86.113075,62,60,0
86.11932,86.2299,65,60,0
86.23471,86.34528,67,60,0
86.35009,86.46067,65,60,0
86.46548,86.57605,63,60,0
86.580864,86.69144,62,60,0
86.69624,86.80682,63,60,0
86.81163,86.9222,62,60,0
86.92702,87.03759,63,60,0
87.0424,87.15298,65,60,0
87.15778,87.268364,67,60,0
87.27317,87.38374,65,60,0
87.38855,87.49913,63,60,0
87.50394,87.61452,62,60,0
87.61932,87.7299,63,60,0
87.7347,87.84528,62,60,0
87.85009,87.96067,63,60,0
87.96548,88.07605,65,60,0
88.08086,88.19144,67,60,0
88.19624,88.30682,65,60,0
88.31163,88.4222,67,60,0
88.42701,88.53759,69,60,0
88.5424,88.65298,70,60,0
88.65778,88.76836,69,60,0
88.77316,88.88374,70,60,0
88.88855,88.99913,72,60,0
89.00394,89.11451,70,60,0
89.11932,89.2299,72,60,0
89.2347,89.34528,70,60,0
89.35009,89.46066,69,60,0
89.46548,89.57605,67,60,0
89.58086,89.69144,69,60,0
89.69624,89.806816,67,60,0
89.81163,89.9222,65,60,0
89.92701,90.03759,67,60,0
90.0424,90.15297,65,60,0
90.15778,90.26836,67,60,0
90.27316,90.38374,69,60,0
90.38855,90.49912,72,60,0
90.50394,90.61451,69,60,0
90.619316,90.7299,72,60,0
90.7347,90.84528,77,60,0
90.85009,90.96066,75,60,0
90.96547,91.07605,77,60,0
91.08086,91.19144,75,60,0
91.19624,91.306816,74,60,0
91.31162,91.4222,72,60,0
91.42701,91.53759,74,60,0
91.5424,91.65297,72,60,0
91.657776,91.76836,70,60,0
91.77316,91.88374,74,60,0
91.88855,91.99912,70,60,0
92.00393,92.11451,74,60,0
92.119316,92.2299,80,60,0
92.2347,92.345276,72,60,0
92.35008,92.46066,80,60,0
92.46547,92.57605,72,60,0
92.58086,92.69143,70,60,0
92.69624,92.806816,79,60,0
92.81162,92.9222,70,60,0
92.92701,93.03758,79,60,0
93.0424,93.15297,78,60,0
93.157776,93.26836,69,60,0
93.27316,93.383736,78,60,0
93.38855,93.49912,69,60,0
93.50393,93.61451,79,60,0
93.619316,93.72989,74,60,0
93.7347,93.845276,70,60,0
93.85008,93.96066,67,60,0
93.96547,94.07604,69,60,0
94.08086,94.19143,70,60,0
94.196236,94.306816,72,60,0
94.31162,94.4222,74,60,0
94.42701,94.53758,79,60,0
94.54239,94.65297,74,60,0
94.657776,94.76836,70,60,0
94.77316,94.883736,67,60,0
94.88854,94.99912,69,60,0
95.00393,95.11451,70,60,0
95.119316,95.22989,72,60,0
95.234695,95.345276,74,60,0
95.35008,95.46066,79,60,0
95.46547,95.57604,74,60,0
95.58085,95.69143,70,60,0
95.696236,95.806816,67,60,0
95.81162,95.922195,69,60,0
95.927,96.03758,70,60,0
96.04239,96.15297,72,60,0
96.157776,96.26835,74,60,0
96.273155,96.51795,79,60,0
96.773155,96.90384,74,60,0
96.90952,97.04021,70,60,0
97.04588,97.18964,67,60,0
97.195885,97.33964,62,60,0
97.34589,97.45646,59,84,0
97.46127,97.571846,60,60,0
97.57665,97.68723,59,60,0
97.69204,97.80262,60,60,0
97.80743,97.918,62,60,0
97.922806,98.03339,60,60,0
98.03819,98.14877,62,60,0
98.15358,98.26415,60,60,0
98.26896,98.37954,59,84,0
98.384346,98.49493,60,60,0
98.49973,98.610306,59,60,0
98.61511,98.72569,60,60,0
98.7305,98.84108,62,60,0
98.84589,98.95646,60,60,0
98.961266,99.071846,62,60,0
99.07665,99.18723,60,60,0
99.19204,99.30261,59,60,0
99.30742,99.418,60,60,0
99.422806,99.53339,59,60,0
99.53819,99.648766,60,60,0
99.65358,99.76415,62,60,0
99.76896,99.87954,64,60,0
99.884346,99.99492,62,60,0
99.99973,100.110306,64,60,0
100.11511,100.22569,65,60,0
100.2305,100.34107,64,60,0
100.34589,100.45646,65,60,0
100.461266,100.571846,64,60,0
100.57665,100.687225,63,60,0
100.69204,100.80261,64,60,0
100.80742,100.918,62,60,0
100.922806,101.03338,64,60,0
101.03819,101.148766,61,84,0
101.15357,101.26415,62,60,0
101.26896,101.37954,61,60,0
101.384346,101.49492,62,60,0
101.499725,101.610306,64,60,0
101.61511,101.72569,62,60,0
101.7305,101.84107,64,60,0
101.84588,101.95646,62,60,0
101.961266,102.071846,61,84,0
102.07665,102.187225,62,60,0
102.19203,102.30261,61,60,0
102.30742,102.418,62,60,0
102.422806,102.53338,64,60,0
102.538185,102.648766,62,60,0
102.65357,102.76415,64,60,0
102.76896,102.87953,62,60,0
102.88434,102.99492,61,60,0
102.999725,103.110306,62,60,0
103.11511,103.225685,61,60,0
103.2305,103.34107,62,60,0
103.34588,103.45646,64,60,0
103.461266,103.57184,66,60,0
103.57665,103.687225,64,60,0
103.69203,103.80261,66,60,0
103.80742,103.91799,67,60,0
103.922806,104.03338,66,60,0
104.038185,104.148766,67,60,0
104.15357,104.264145,66,60,0
104.26896,104.37953,65,60,0
104.38434,104.49492,66,60,0
104.499725,104.6103,64,60,0
104.61511,104.725685,66,60,0
104.73049,104.84107,62,60,0
104.84588,104.95646,64,60,0
104.961266,105.07184,62,60,0
105.076645,105.187225,64,60,0
105.19203,105.30261,66,60,0
105.30742,105.41799,67,60,0
105.4228,105.53338,66,60,0
105.538185,105.648766,67,60,0
105.65357,105.764145,69,60,0
105.76895,105.87953,71,60,0
105.88434,105.99492,69,60,0
105.999725,106.1103,71,60,0
106.115105,106.225685,67,60,0
106.23049,106.34107,69,60,0
106.34588,106.45645,67,60,0
106.46126,106.57184,69,60,0
106.576645,106.687225,66,60,0
106.69203,106.802605,67,60,0
106.80741,106.91799,66,60,0
106.9228,107.03338,67,60,0
107.038185,107.14876,66,60,0
107.15357,107.264145,67,60,0
107.26895,107.37953,66,60,0
107.38434,107.49491,67,60,0
107.499725,107.6103,65,84,0
107.615105,107.725685,67,60,0
107.73049,107.841064,65,60,0
107.84588,107.95645,67,60,0
107.96126,108.07184,65,60,0
108.076645,108.18722,67,60,0
108.19203,108.302605,65,60,0
108.30741,108.41799,67,60,0
108.4228,108.53338,65,84,0
108.538185,108.64876,67,60,0
108.653564,108.764145,65,60,0
108.76895,108.87953,63,60,0
108.88434,108.99491,62,60,0
108.99972,109.1103,63,60,0
109.115105,109.225685,62,60,0
109.23049,109.341064,63,60,0
109.34587,109.45645,65,84,0
109.46126,109.57184,67,60,0
109.576645,109.68722,65,60,0
109.692024,109.802605,63,60,0
109.80741,109.91799,62,60,0
109.9228,110.03337,63,60,0
110.03818,110.14876,62,60,0
110.153564,110.264145,63,60,0
110.26895,110.379524,65,60,0
110.38433,110.49491,67,64,0
110.49972,110.6103,65,68,0
110.615105,110.72568,67,72,0
110.73049,110.841064,69,76,0
110.84587,110.95645,70,80,0
110.96126,111.07183,69,84,0
111.076645,111.18722,70,88,0
111.192024,111.302605,72,92,0
111.30741,111.417984,70,92,0
111.4228,111.53337,72,88,0
111.53818,111.64876,70,84,0
111.653564,111.76414,69,80,0
111.76895,111.879524,67,75,0
111.88433,111.99491,69,70,0
111.99972,112.11029,67,65,0
112.115105,112.22568,65,60,0
112.230484,112.341064,67,60,0
112.34587,112.45645,65,64,0
112.46126,112.57183,67,68,0
112.57664,112.68722,69,72,0
112.692024,112.802605,72,77,0
112.80741,112.917984,69,82,0
112.92279,113.03337,72,87,0
113.03818,113.14876,81,92,0
113.153564,113.26414,79,92,0
113.26894,113.379524,81,88,0
113.38433,113.49491,79,84,0
113.49972,113.61029,77,80,0
113.6151,113.72568,75,75,0
113.730484,113.841064,77,70,0
113.84587,113.95644,75,65,0
113.96125,114.07183,74,60,0
114.07664,114.18722,77,60,0
114.192024,114.3026,74,60,0
114.30741,114.417984,77,60,0
114.42279,114.53337,84,60,0
114.53818,114.64875,75,60,0
114.653564,114.76414,84,60,0
114.76894,114.879524,75,60,0
114.88433,114.9949,74,60,0
114.99972,115.11029,82,60,0
115.1151,115.22568,74,60,0
115.230484,115.34106,82,60,0
115.34587,115.45644,81,60,0
115.46125,115.57183,72,60,0
115.57664,115.68721,81,60,0
115.692024,115.8026,72,60,0
115.8074,115.917984,82,60,0
115.92279,116.03337,77,60,0
116.03818,116.14875,74,60,0
116.15356,116.26414,70,60,0
116.26894,116.379524,71,84,0
116.38433,116.4949,70,60,0
116.49971,116.61029,69,60,0
116.6151,116.72568,70,60,0
117.07664,117.18721,70,60,0
117.19202,117.3026,71,84,0
117.3074,117.417984,70,60,0
117.42279,117.53336,69,60,0
117.53817,117.64875,70,60,0
117.99971,118.11029,70,60,0
118.1151,118.22567,71,84,0
118.230484,118.34106,70,60,0
118.34586,118.45644,69,60,0
118.46125,118.57182,70,60,0
119.07664,119.20731,65,60,0
119.213,119.34368,62,60,0
119.34936,119.49311,57,60,0
119.49936,119.64311,58,60,0
119.64936,119.75994,59,84,0
119.76475,119.87532,60,60,0
119.88013,119.99071,59,60,0
119.995514,120.106094,60,60,0
120.1109,120.22147,62,60,0
120.22628,120.33686,60,60,0
120.34167,120.45225,62,60,0
120.457054,120.56763,60,60,0
120.57243,120.683014,59,84,0
120.68782,120.7984,60,60,0
120.80321,120.91378,59,60,0
120.91859,121.02917,60,60,0
121.03397,121.144554,62,60,0
121.14936,121.25993,60,60,0
121.26475,121.37532,62,60,0
121.38013,121.49071,60,60,0
121.495514,121.60609,59,60,0
121.6109,121.72147,60,60,0
121.72628,121.83686,59,60,0
121.84167,121.95224,60,60,0
121.957054,122.06763,62,60,0
122.07243,122.183014,64,60,0
122.18782,122.29839,62,60,0
122.30321,122.41378,64,60,0
122.41859,122.52917,65,60,0
122.53397,122.64455,64,60,0
122.64936,122.75993,65,60,0
122.76474,122.87532,64,60,0
122.88013,122.99071,63,60,0
122.995514,123.10609,64,60,0
123.11089,123.22147,62,60,0
123.22628,123.33686,64,60,0
123.34167,123.45224,61,84,0
123.45705,123.56763,62,60,0
123.57243,123.683014,61,60,0
123.68782,123.79839,62,60,0
123.8032,123.91378,64,60,0
123.91859,124.02917,62,60,0
124.03397,124.14455,64,60,0
124.14935,124.25993,62,60,0
124.26474,124.37532,61,84,0
124.38013,124.4907,62,60,0
124.49551,124.60609,61,60,0
124.61089,124.72147,62,60,0
124.72628,124.83685,64,60,0
124.84167,124.95224,62,60,0
124.95705,125.06763,64,60,0
125.07243,125.18301,62,60,0
125.18782,125.29839,61,60,0
125.3032,125.41378,62,60,0
125.41859,125.52916,61,60,0
125.53397,125.64455,62,60,0
125.64935,125.75993,64,60,0
125.76474,125.87531,66,60,0
125.88013,125.9907,64,60,0
125.99551,126.10609,66,60,0
126.11089,126.221466,67,60,0
126.22628,126.33685,66,60,0
126.34166,126.45224,67,60,0
126.45705,126.56763,66,60,0
126.57243,126.68301,65,60,0
126.68781,126.79839,66,60,0
126.8032,126.91378,64,60,0
126.91859,127.02916,66,60,0
127.033966,127.14455,62,60,0
127.14935,127.25993,64,60,0
127.26474,127.37531,62,60,0
127.38012,127.4907,64,60,0
127.49551,127.60609,66,60,0
127.61089,127.721466,67,60,0
127.72627,127.83685,66,60,0
127.84166,127.95224,67,60,0
127.95705,128.06763,69,60,0
128.07243,128.18301,71,60,0
128.18782,128.29839,69,60,0
128.30319,128.41377,71,60,0
128.41858,128.52916,67,60,0
128.53397,128.64455,69,60,0
128.64935,128.75993,67,60,0
128.76474,128.87532,69,60,0
128.88013,128.99069,66,60,0
128.9955,129.10608,67,60,0
129.11089,129.22147,66,60,0
129.22627,129.33685,67,60,0
129.34166,129.45224,66,60,0
129.45705,129.56763,67,60,0
129.57243,129.683,66,60,0
129.6878,129.79839,67,60,0
129.80319,129.91377,65,84,0
129.91858,130.02916,67,60,0
130.03397,130.14455,65,60,0
130.14935,130.25993,67,60,0
130.26474,130.3753,65,60,0
130.38013,130.49069,67,60,0
130.4955,130.60608,65,60,0
130.61089,130.72147,67,60,0
130.72627,130.83685,65,84,0
130.84166,130.95224,67,60,0
130.95705,131.06761,65,60,0
131.07243,131.183,63,60,0
131.1878,131.29839,62,60,0
131.30319,131.41377,63,60,0
131.41858,131.52916,62,60,0
131.53397,131.64455,63,60,0
131.64935,131.75992,65,84,0
131.76474,131.8753,67,60,0
131.88011,131.99069,65,60,0
131.9955,132.10608,63,60,0
132.11089,132.22147,62,60,0
132.22627,132.33685,63,60,0
132.34166,132.45224,62,60,0
132.45705,132.56761,63,60,0
132.57242,132.683,65,60,0
132.6878,132.79839,67,64,0
132.80319,132.91377,65,68,0
132.91858,133.02916,67,72,0
133.03397,133.14455,69,76,0
133.14935,133.25992,70,80,0
133.26472,133.3753,69,84,0
133.38011,133.49069,70,88,0
133.4955,133.60608,72,92,0
133.61089,133.72147,70,92,0
133.72627,133.83685,72,88,0
133.84166,133.95222,70,84,0
133.95705,134.06761,69,80,0
134.07242,134.183,67,75,0
134.1878,134.29839,69,70,0
134.30319,134.41377,67,65,0
134.41858,134.52916,65,60,0
134.53397,134.64453,67,60,0
134.64935,134.75992,65,64,0
134.76472,134.8753,67,68,0
134.88011,134.99069,69,72,0
134.9955,135.10608,72,77,0
135.11089,135.22147,69,82,0
135.22627,135.33684,72,87,0
135.34166,135.45222,81,92,0
135.45703,135.56761,79,92,0
135.57242,135.683,81,88,0
135.6878,135.79839,79,84,0
135.80319,135.91377,77,80,0
135.91858,136.02916,75,75,0
136.03397,136.14453,77,70,0
136.14934,136.25992,75,65,0
136.26472,136.3753,74,60,0
136.38011,136.49069,77,60,0
136.4955,136.60608,74,60,0
136.61089,136.72147,77,60,0
136.72627,136.83684,84,60,0
136.84164,136.95222,75,60,0
136.95703,137.06761,84,60,0
137.07242,137.183,75,60,0
137.1878,137.29839,74,60,0
137.30319,137.41377,82,60,0
137.41858,137.52914,74,60,0
137.53397,137.64453,82,60,0
137.64934,137.75992,81,60,0
137.76472,137.8753,72,60,0
137.88011,137.99069,81,60,0
137.9955,138.10608,72,60,0
138.11089,138.22145,82,60,0
138.22627,138.33684,77,60,0
138.34164,138.45222,74,60,0
138.45703,138.56761,70,60,0
138.57242,138.683,71,84,0
138.6878,138.79839,70,60,0
138.80319,138.91376,69,60,0
138.91858,139.02914,70,60,0
139.38011,139.49069,70,60,0
139.4955,139.60608,71,84,0
139.61089,139.72145,70,60,0
139.72626,139.83684,69,60,0
139.84164,139.95222,70,60,0
140.30319,140.41376,70,60,0
140.41856,140.52914,71,84,0
140.53395,140.64453,70,60,0
140.64934,140.75992,69,60,0
140.76472,140.8753,70,60,0
141.38011,141.51079,65,60,0
141.51648,141.64716,62,60,0
141.65283,141.79659,57,60,0
141.80284,141.94658,58,60,0
141.95284,142.02975,43,105,0
141.95284,142.02975,50,105,0
141.95284,142.02975,55,105,0
142.18361,142.26053,55,75,0
142.41437,142.4913,55,75,0
142.64514,142.72206,55,75,0
142.87592,142.95284,43,105,0
142.87592,142.95284,50,105,0
142.87592,142.95284,55,105,0
143.10667,143.18361,55,75,0
143.33745,143.41437,55,75,0
143.56822,143.64514,55,75,0
143.79898,143.87592,43,105,0
143.79898,143.87592,50,105,0
143.79898,143.87592,55,105,0
144.02975,144.10667,55,75,0
144.26053,144.33745,55,75,0
144.4913,144.56822,55,75,0
144.72206,144.79898,43,105,0
144.72206,144.79898,50,105,0
144.72206,144.79898,55,105,0
144.95284,145.02975,55,75,0
145.18361,145.26053,55,75,0
145.41437,145.49129,55,75,0
145.64514,145.72206,43,105,0
145.64514,145.72206,50,105,0
145.64514,145.72206,55,105,0
145.87592,145.95284,55,75,0
146.10667,146.1836,55,75,0
146.33745,146.41437,55,75,0
146.56822,146.64514,43,75,0
146.56822,146.64514,50,75,0
146.56822,146.64514,55,75,0
146.79898,146.87592,40,75,0
146.79898,146.87592,52,75,0
147.02975,147.10667,38,75,0
147.02975,147.10667,50,75,0
147.26053,147.33745,36,75,0
147.26053,147.33745,48,75,0
147.49129,147.56822,34,75,0
147.49129,147.56822,46,75,0
147.72206,147.79898,33,75,0
147.72206,147.79898,45,75,0
147.95284,148.02975,31,75,0
147.95284,148.02975,43,75,0
148.1836,148.26053,43,75,0
148.41437,148.49129,31,75,0
148.41437,148.49129,38,75,0
148.41437,148.49129,43,75,0
148.64514,148.72206,43,75,0
148.8759,148.95284,43,75,0
149.10667,149.1836,43,75,0
149.33745,149.41437,31,75,0
149.33745,149.41437,38,75,0
149.33745,149.41437,43,75,0
149.5682,149.64514,43,75,0
149.79898,149.8759,43,75,0
150.02975,150.10667,43,75,0
150.26051,150.33745,43,75,0
150.26051,150.33745,50,75,0
150.26051,150.33745,55,75,0
150.49129,150.5682,55,75,0
150.72206,150.79898,55,75,0
150.95282,151.02975,55,75,0
151.1836,151.26051,43,75,0
151.1836,151.26051,50,75,0
151.1836,151.26051,55,75,0
151.41437,151.49129,55,75,0
151.64514,151.72206,55,75,0
151.8759,151.95282,55,75,0
152.10667,152.1836,43,75,0
152.10667,152.1836,50,75,0
152.10667,152.1836,55,75,0
152.33745,152.41437,40,75,0
152.33745,152.41437,52,75,0
152.5682,152.64513,38,75,0
152.5682,152.64513,50,75,0
152.79898,152.8759,36,75,0
152.79898,152.8759,48,75,0
153.02975,153.10667,34,75,0
153.02975,153.10667,46,75,0
153.26051,153.33743,63,75,0
153.26051,153.33743,67,75,0
153.49129,153.5682,46,75,0
153.72206,153.79898,62,75,0
153.72206,153.79898,65,75,0
153.95282,154.02974,46,75,0
154.1836,154.26051,60,75,0
154.1836,154.26051,63,75,0
154.41437,154.49129,46,75,0
154.64513,154.72206,58,75,0
154.64513,154.72206,62,75,0
154.8759,154.95282,46,75,0
155.10667,155.1836,57,75,0
155.10667,155.1836,60,75,0
155.33743,155.41437,46,75,0
155.5682,155.64513,55,75,0
155.5682,155.64513,58,75,0
155.79898,155.8759,45,75,0
156.02974,156.10667,64,75,0
156.02974,156.10667,67,75,0
156.26051,156.33743,45,75,0
156.49129,156.5682,62,75,0
156.49129,156.5682,65,75,0
156.72205,156.94801,45,75,0
156.95282,157.17879,61,75,0
156.95282,157.17879,64,75,0
157.1836,157.40955,45,75,0
157.41435,157.64032,58,75,0
157.41435,157.64032,62,75,0
157.64513,157.8711,45,75,0
157.8759,158.10185,57,75,0
157.8759,158.10185,61,75,0
158.10666,158.33263,50,75,0
158.33743,158.5634,54,105,0
158.33743,158.5634,57,105,0
158.33743,158.5634,62,105,0
158.5682,158.64513,43,60,0
158.5682,158.64513,50,60,0
158.5682,158.64513,55,60,0
158.79897,158.8759,55,60,0
159.02974,159.10666,55,60,0
159.26051,159.33743,55,60,0
159.49129,159.5682,43,60,0
159.49129,159.5682,50,60,0
159.49129,159.5682,55,60,0
159.72205,159.79897,55,60,0
159.95282,160.02974,55,60,0
160.1836,160.26051,55,60,0
160.41435,160.49127,43,60,0
160.41435,160.49127,50,60,0
160.41435,160.49127,55,60,0
160.64513,160.72205,55,60,0
160.8759,160.95282,55,60,0
161.10666,161.18358,55,60,0
161.33743,161.41435,43,60,0
161.33743,161.41435,50,60,0
161.33743,161.41435,55,60,0
161.5682,161.64513,55,60,0
161.79897,161.8759,55,60,0
162.02974,162.10666,55,60,0
162.26051,162.33743,43,60,0
162.26051,162.33743,50,60,0
162.26051,162.33743,55,60,0
162.49127,162.5682,55,60,0
162.72205,162.79897,55,60,0
162.95282,163.02974,55,60,0
163.18358,163.26051,43,60,0
163.18358,163.26051,50,60,0
163.18358,163.26051,55,60,0
163.41435,163.49127,52,60,0
163.64513,163.72205,50,60,0
163.87589,163.95282,48,60,0
164.10666,164.18358,46,60,0
164.33743,164.41435,45,60,0
164.56819,164.64513,43,60,0
165.02974,165.25569,43,60,0
165.02974,165.25569,50,60,0
165.02974,165.25569,55,60,0
165.9528,166.17877,43,60,0
165.9528,166.17877,50,60,0
165.9528,166.17877,55,60,0
166.87589,167.10185,43,60,0
166.87589,167.10185,50,60,0
166.87589,167.10185,55,60,0
167.79897,168.02493,43,60,0
167.79897,168.02493,48,60,0
167.79897,168.02493,55,60,0
168.72205,168.79897,43,60,0
168.72205,168.79897,55,60,0
168.9528,169.02974,51,60,0
169.18358,169.2605,50,60,0
169.41435,169.49127,48,60,0
169.64511,169.72205,46,60,0
169.87589,169.9528,45,60,0
170.10666,170.18358,43,60,0
170.56819,170.79416,43,60,0
170.56819,170.79416,55,60,0
171.49127,171.56819,43,60,0
171.49127,171.56819,55,60,0
171.72203,171.79897,51,60,0
171.9528,172.02972,50,60,0
172.18358,172.2605,48,60,0
172.41434,172.49127,46,60,0
172.64511,172.72203,45,60,0
172.87589,172.9528,43,60,0
173.33742,173.42075,43,92,0
173.33742,173.42075,55,92,0
173.58742,173.67075,51,92,0
173.83742,173.92075,50,86,0
174.08742,174.17075,48,80,0
174.33742,174.42833,46,74,0
174.61015,174.70105,45,67,0
174.88287,174.97379,43,60,0
175.42833,175.52834,55,92,0
175.72833,175.82832,51,92,0
176.02834,176.12833,48,86,0
176.32832,176.42833,45,80,0
176.62833,176.73944,43,73,0
176.96165,177.07277,39,66,0
177.295,177.4061,36,59,0
177.62833,177.73944,33,52,0
177.96165,178.32884,31,45,0
179.73439,180.00711,38,92,0
179.73439,180.00711,50,92,0
180.00711,180.27415,35,92,0
180.00711,180.27415,47,92,0
180.27985,180.37074,31,84,0
180.27985,180.37074,43,84,0
180.55257,181.00711,36,105,0
180.55257,181.00711,48,105,0
181.09802,181.55257,43,105,0
181.09802,181.55257,55,105,0
181.64348,182.09802,50,105,0
181.64348,182.09802,54,105,0
181.64348,182.09802,62,105,0
182.18893,182.64348,55,105,0
182.18893,182.64348,62,105,0
182.18893,182.64348,67,105,0
183.00711,183.27983,38,75,0
183.00711,183.27983,50,75,0
183.27983,183.54689,35,75,0
183.27983,183.54689,47,75,0
183.55257,183.64348,31,75,0
183.55257,183.64348,43,75,0
183.82529,184.27983,43,105,0
183.82529,184.27983,55,105,0
184.37074,184.82529,42,105,0
184.37074,184.82529,54,105,0
184.9162,185.37074,40,105,0
184.9162,185.37074,52,105,0
185.46165,185.9162,38,105,0
185.46165,185.9162,50,105,0
186.27983,186.55257,38,92,0
186.27983,186.55257,50,92,0
186.55257,186.81961,35,92,0
186.55257,186.81961,47,92,0
186.82529,186.9162,31,84,0
186.82529,186.9162,43,84,0
187.09802,187.55257,36,105,0
187.09802,187.55257,48,105,0
187.64346,188.09802,43,105,0
187.64346,188.09802,55,105,0
188.18892,188.64346,50,105,0
188.18892,188.64346,54,105,0
188.18892,188.64346,62,105,0
188.73438,189.18892,55,105,0
188.73438,189.18892,62,105,0
188.73438,189.18892,67,105,0
189.55257,189.82529,38,75,0
189.55257,189.82529,50,75,0
189.82529,190.09233,35,75,0
189.82529,190.09233,47,75,0
190.098,190.18892,31,75,0
190.098,190.18892,43,75,0
190.37074,190.82529,43,105,0
190.37074,190.82529,55,105,0
190.9162,191.37074,42,105,0
190.9162,191.37074,54,105,0
191.46165,191.9162,40,105,0
191.46165,191.9162,52,105,0
192.0071,192.46164,38,105,0
192.0071,192.46164,50,105,0
192.55255,193.0071,55,105,0
192.55255,193.0071,58,105,0
192.55255,193.0071,62,105,0
193.098,193.55255,58,105,0
193.098,193.55255,62,105,0
193.098,193.55255,67,105,0
193.64346,193.71164,72,92,0
193.71164,193.77983,74,92,0
193.77983,193.848,72,86,0
193.848,193.91618,74,80,0
193.91618,193.98438,72,74,0
193.98438,194.05255,74,67,0
193.64346,194.098,67,92,0
194.05255,194.12074,71,60,0
194.12074,194.18324,72,60,0
194.18892,194.59233,67,105,0
194.18892,194.59233,72,105,0
194.18892,194.59233,75,105,0
194.598,194.73438,74,75,0
194.73438,194.85368,69,75,0
194.73438,194.85368,72,75,0
194.91618,195.0355,67,75,0
194.91618,195.0355,70,75,0
195.098,195.21733,69,75,0
195.098,195.21733,72,75,0
195.27983,195.73438,70,105,0
195.27983,195.73438,74,105,0
195.82529,196.27983,67,105,0
195.82529,196.27983,70,105,0
196.37073,196.77414,69,105,0
196.37073,196.77414,72,105,0
196.77983,196.91618,70,75,0
196.91618,197.0355,66,75,0
196.91618,197.0355,69,75,0
197.098,197.21733,64,75,0
197.098,197.21733,67,75,0
197.27983,197.39914,66,75,0
197.27983,197.39914,69,75,0
197.46164,197.58096,67,75,0
197.46164,197.58096,70,75,0
197.64346,197.76277,70,75,0
197.64346,197.76277,74,75,0
197.82527,197.9446,74,75,0
197.82527,197.9446,79,75,0
198.0071,198.41618,69,75,0
198.0071,198.41618,73,75,0
198.0071,198.41618,76,75,0
198.41618,198.54688,74,75,0
198.55255,199.0071,62,75,0
198.55255,199.0071,69,75,0
198.55255,199.0071,74,75,0
199.37073,199.46164,38,75,0
199.46164,199.55255,50,75,0
199.55255,199.64346,38,75,0
199.64346,199.73436,35,75,0
199.64346,199.73436,47,75,0
199.91618,200.0071,31,75,0
199.91618,200.0071,43,75,0
200.18892,200.64346,36,105,0
200.18892,200.64346,48,105,0
200.73436,201.1889,43,105,0
200.73436,201.1889,50,105,0
200.73436,201.1889,55,105,0
201.27982,201.73436,50,105,0
201.27982,201.73436,54,105,0
201.27982,201.73436,62,105,0
201.82527,202.27982,55,105,0
201.82527,202.27982,62,105,0
201.82527,202.27982,67,105,0
202.64345,202.73436,38,75,0
202.73436,202.82527,50,75,0
202.82527,202.91618,38,75,0
202.91618,203.0071,35,75,0
202.91618,203.0071,47,75,0
203.1889,203.27982,31,75,0
203.1889,203.27982,43,75,0
203.73436,203.82527,43,75,0
203.82527,203.91618,55,75,0
203.91618,204.0071,43,75,0
204.0071,204.09799,40,75,0
204.0071,204.09799,52,75,0
204.27982,204.37073,36,75,0
204.27982,204.37073,48,75,0
204.55255,205.0071,38,92,0
204.55255,205.0071,50,92,0
205.09799,205.55254,31,92,0
205.09799,205.55254,43,92,0
205.64345,206.09799,55,105,0
205.64345,206.09799,58,105,0
205.64345,206.09799,62,105,0
206.1889,206.64345,58,105,0
206.1889,206.64345,62,105,0
206.1889,206.64345,67,105,0
206.73436,206.80254,72,92,0
206.80254,206.87073,74,92,0
206.87073,206.9389,72,86,0
206.9389,207.00708,74,80,0
207.00708,207.07527,72,74,0
207.07527,207.14345,74,67,0
206.73436,207.1889,67,92,0
207.14345,207.21164,71,60,0
207.21164,207.27414,72,60,0
207.27982,207.68323,67,105,0
207.27982,207.68323,72,105,0
207.27982,207.68323,75,105,0
207.6889,207.82527,74,75,0
207.82527,207.94458,69,75,0
207.82527,207.94458,72,75,0
208.00708,208.1264,67,75,0
208.00708,208.1264,70,75,0
208.1889,208.30823,69,75,0
208.1889,208.30823,72,75,0
208.37073,208.82527,70,105,0
208.37073,208.82527,74,105,0
208.91618,209.37073,67,105,0
208.91618,209.37073,70,105,0
209.46162,209.86504,69,105,0
209.46162,209.86504,72,105,0
209.87073,210.00708,70,75,0
210.00708,210.1264,66,75,0
210.00708,210.1264,69,75,0
210.1889,210.30823,64,75,0
210.1889,210.30823,67,75,0
210.37073,210.49004,66,75,0
210.37073,210.49004,69,75,0
210.55254,210.67186,67,75,0
210.55254,210.67186,70,75,0
210.73436,210.85367,70,75,0
210.73436,210.85367,74,75,0
210.91617,211.03549,74,75,0
210.91617,211.03549,79,75,0
211.09799,211.50708,69,75,0
211.09799,211.50708,73,75,0
211.09799,211.50708,76,75,0
211.50708,211.63777,74,75,0
211.64345,212.09799,62,75,0
211.64345,212.09799,69,75,0
211.64345,212.09799,74,75,0
212.46162,212.55254,38,75,0
212.55254,212.64345,50,75,0
212.64345,212.73436,38,75,0
212.73436,212.82526,35,75,0
212.73436,212.82526,47,75,0
213.00708,213.09799,31,75,0
213.00708,213.09799,43,75,0
213.2798,213.73436,36,105,0
213.2798,213.73436,48,105,0
213.82526,214.2798,43,105,0
213.82526,214.2798,50,105,0
213.82526,214.2798,55,105,0
214.37071,214.82526,50,105,0
214.37071,214.82526,54,105,0
214.37071,214.82526,62,105,0
214.91617,215.37071,55,105,0
214.91617,215.37071,62,105,0
214.91617,215.37071,67,105,0
215.73434,215.82526,38,75,0
215.82526,215.91617,50,75,0
215.91617,216.00708,38,75,0
216.00708,216.09799,35,75,0
216.00708,216.09799,47,75,0
216.2798,216.37071,31,75,0
216.2798,216.37071,43,75,0
216.82526,216.91617,43,75,0
216.91617,217.00708,55,75,0
217.00708,217.09799,43,75,0
217.09799,217.18889,40,75,0
217.09799,217.18889,52,75,0
217.37071,217.46162,36,75,0
217.37071,217.46162,48,75,0
217.64343,218.09799,38,92,0
217.64343,218.09799,50,92,0
218.18889,218.64343,31,92,0
218.18889,218.64343,43,92,0
218.73434,219.02809,28,60,0
218.73434,219.02809,40,60,0
219.33435,219.6281,40,60,0
219.33435,219.6281,52,60,0
219.93434,220.2281,38,60,0
219.93434,220.2281,50,60,0
220.53435,220.8281,26,60,0
220.53435,220.8281,38,60,0
221.13435,221.4281,31,60,0
221.13435,221.4281,43,60,0
221.73434,222.02809,33,60,0
221.73434,222.02809,45,60,0
222.33435,222.6281,35,60,0
222.33435,222.6281,47,60,0
222.93434,223.2281,47,60,0
223.53435,223.8281,35,60,0
224.13435,224.4281,47,60,0
224.73434,225.02809,45,60,0
225.33435,225.6281,33,60,0
225.93434,226.2281,26,60,0
225.93434,226.2281,38,60,0
226.53435,226.8281,28,60,0
226.53435,226.8281,40,60,0
227.13435,227.4281,30,60,0
227.13435,227.4281,42,60,0
227.73434,228.02809,35,60,0
227.73434,228.02809,47,60,0
228.33435,228.6281,28,60,0
228.33435,228.6281,40,60,0
228.93434,229.2281,40,60,0
228.93434,229.2281,52,60,0
229.53435,229.8281,38,60,0
229.53435,229.8281,50,60,0
230.13435,230.4281,26,60,0
230.13435,230.4281,38,60,0
230.73434,231.02809,31,60,0
230.73434,231.02809,43,60,0
231.33435,231.6281,33,60,0
231.33435,231.6281,45,60,0
231.93434,232.2281,35,60,0
231.93434,232.2281,47,60,0
232.53435,232.8281,35,60,0
233.13435,233.4281,47,60,0
233.73434,234.02809,35,60,0
234.33435,234.6281,33,60,0
234.93434,235.2281,45,60,0
235.53435,235.8281,26,60,0
235.53435,235.8281,38,60,0
236.13435,236.4281,28,60,0
236.13435,236.4281,40,60,0
236.73434,237.02809,30,60,0
236.73434,237.02809,42,60,0
237.33435,237.6281,35,60,0
237.33435,237.6281,47,60,0
237.93434,238.03435,35,60,0
238.23434,238.33435,47,60,0
238.53435,238.63435,35,60,0
238.83435,238.93434,47,75,0
239.13435,239.23434,36,92,0
239.43434,239.53435,48,92,0
239.73434,239.83435,35,75,0
239.73434,239.83435,47,75,0
240.03435,240.13435,34,60,0
240.03435,240.13435,46,60,0
240.33435,240.43434,35,60,0
240.63435,240.73434,47,60,0
240.93434,241.03435,35,60,0
241.23434,241.33435,47,75,0
241.53435,241.63435,38,92,0
241.83435,241.93434,50,92,0
242.13435,242.23434,37,75,0
242.13435,242.23434,49,75,0
242.43434,242.53435,36,60,0
242.43434,242.53435,48,60,0
242.73434,242.83435,37,60,0
243.03435,243.13435,49,60,0
243.33435,243.43434,37,60,0
243.63435,243.73434,49,75,0
243.93434,244.03435,40,92,0
244.23434,244.33435,52,92,0
244.53435,244.63435,39,75,0
244.53435,244.63435,51,75,0
244.83435,244.93434,38,60,0
244.83435,244.93434,50,60,0
245.13435,245.23434,40,60,0
245.43434,245.53435,52,60,0
245.73434,245.83435,39,60,0
245.73434,245.83435,51,60,0
246.03435,246.13435,38,60,0
246.03435,246.13435,50,60,0
246.33435,246.43434,39,60,0
246.63435,246.73434,51,62,0
246.93434,247.03435,39,64,0
247.23434,247.33435,51,66,0
247.53435,247.63435,35,68,0
247.83435,247.93434,47,70,0
248.13435,248.23434,35,72,0
248.43434,248.53435,47,74,0
248.73434,248.83435,28,76,0
249.03435,249.13435,40,78,0
249.33435,249.43434,28,80,0
249.63435,249.73434,40,82,0
249.93434,250.03435,26,84,0
250.23434,250.33435,38,86,0
250.53435,250.63435,26,88,0
250.83435,250.93434,38,90,0
251.13435,251.23434,31,92,0
251.43434,251.53435,43,92,0
251.73434,251.83435,33,75,0
252.03435,252.13435,45,60,0
252.33435,252.43434,35,60,0
252.63435,252.73434,47,60,0
252.93434,253.03435,35,60,0
253.23434,253.33435,47,60,0
253.53435,253.63435,35,60,0
253.83435,253.93434,47,64,0
254.13435,254.23434,35,68,0
254.43434,254.53435,47,72,0
254.73434,254.83435,33,76,0
255.03435,255.13435,45,80,0
255.33435,255.43434,33,84,0
255.63435,255.73434,45,88,0
255.93434,256.03436,26,92,0
256.23434,256.33435,38,92,0
256.53436,256.63434,28,75,0
256.83435,256.93436,40,75,0
257.13434,257.23434,30,60,0
257.43436,257.53436,42,60,0
257.73434,257.83435,35,60,0
258.03436,258.13434,47,60,0
258.33435,258.43436,35,60,0
258.63434,258.73434,47,60,0
258.93436,259.03436,35,60,0
259.23434,259.33435,47,75,0
259.53436,259.63434,36,92,0
259.83435,259.93436,48,92,0
260.13434,260.23434,35,75,0
260.13434,260.23434,47,75,0
260.43436,260.53436,34,60,0
260.43436,260.53436,46,60,0
260.73434,260.83435,35,60,0
261.03436,261.13434,47,60,0
261.33435,261.43436,35,60,0
261.63434,261.73434,47,75,0
261.93436,262.03436,38,92,0
262.23434,262.33435,50,92,0
262.53436,262.63434,37,75,0
262.53436,262.63434,49,75,0
262.83435,262.93436,36,60,0
262.83435,262.93436,48,60,0
263.13434,263.23434,37,60,0
263.43436,263.53436,49,60,0
263.73434,263.83435,37,60,0
264.03436,264.13434,49,75,0
264.33435,264.43436,40,92,0
264.63434,264.73434,52,92,0
264.93436,265.03436,39,75,0
264.93436,265.03436,51,75,0
265.23434,265.33435,38,60,0
265.23434,265.33435,50,60,0
265.53436,265.63434,40,60,0
265.83435,265.93436,52,60,0
266.13434,266.23434,39,60,0
266.13434,266.23434,51,60,0
266.43436,266.53436,38,60,0
266.43436,266.53436,50,60,0
266.73434,266.83435,39,60,0
267.03436,267.13434,51,62,0
267.33435,267.43436,39,64,0
267.63434,267.73434,51,66,0
267.93436,268.03436,35,68,0
268.23434,268.33435,47,70,0
268.53436,268.63434,35,72,0
268.83435,268.93436,47,74,0
269.13434,269.23434,28,76,0
269.43436,269.53436,40,78,0
269.73434,269.83435,28,80,0
270.03436,270.13434,40,82,0
270.33435,270.43436,26,84,0
270.63434,270.73434,38,86,0
270.93436,271.03436,26,88,0
271.23434,271.33435,38,90,0
271.53436,271.63434,31,92,0
271.83435,271.93436,43,75,0
272.13434,272.23434,33,60,0
272.43436,272.53436,45,60,0
272.73434,272.83435,35,60,0
273.03436,273.13434,47,60,0
273.33435,273.43436,35,60,0
273.63434,273.73434,47,60,0
273.93436,274.03436,35,60,0
274.23434,274.33435,47,64,0
274.53436,274.63434,35,68,0
274.83435,274.93436,47,72,0
275.13434,275.23434,33,76,0
275.43436,275.53436,45,80,0
275.73434,275.83435,33,84,0
276.03436,276.13434,45,88,0
276.33435,276.43436,26,92,0
276.63434,276.73434,38,92,0
276.93436,277.03436,28,75,0
277.23434,277.33435,40,75,0
277.53436,277.63852,30,60,0
277.84686,277.95102,42,60,0
278.15936,278.26804,35,45,0
278.48544,278.6017,47,45,0
278.83426,278.94485,71,45,0
278.94965,279.06024,72,45,0
279.06503,279.17563,71,45,0
279.18042,279.29102,69,45,0
279.2958,279.40637,67,45,0
279.4112,279.52176,69,48,0
279.52658,279.63715,67,52,0
279.64197,279.75253,69,56,0
279.75735,279.86792,71,60,0
279.87274,279.9833,72,60,0
279.98813,280.0987,71,55,0
280.10352,280.21408,69,50,0
280.21887,280.32947,67,45,0
280.33426,280.44485,69,45,0
280.44965,280.56024,67,45,0
280.56503,280.67563,69,45,0
280.68042,280.791,71,45,0
280.7958,280.90637,73,48,0
280.9112,281.02176,71,51,0
281.02658,281.13715,73,55,0
281.14197,281.25253,74,59,0
281.25735,281.36792,76,63,0
281.37274,281.4833,74,67,0
281.48813,281.5987,76,71,0
281.6035,281.71408,78,75,0
281.71887,281.82947,76,75,0
281.83426,281.94485,78,69,0
281.94965,282.06024,76,63,0
282.06503,282.17563,74,57,0
282.18042,282.291,73,51,0
282.2958,282.40637,74,45,0
282.4112,282.52176,73,45,0
282.52658,282.63715,71,60,0
282.64197,282.75253,73,60,0
282.75735,282.86792,71,64,0
282.87274,282.9833,73,68,0
282.98813,283.0987,71,72,0
283.1035,283.21408,75,77,0
283.21887,283.32947,71,82,0
283.33426,283.44485,75,87,0
283.44965,283.56024,71,92,0
283.56503,283.6756,76,92,0
283.68042,283.791,71,88,0
283.7958,283.90637,76,84,0
283.9112,284.02176,71,80,0
284.02658,284.13715,75,75,0
284.14197,284.25253,71,70,0
284.25735,284.36792,75,65,0
284.37274,284.4833,71,60,0
284.4881,284.5987,76,60,0
284.6035,284.71408,71,62,0
284.71887,284.82947,76,64,0
284.83426,284.94485,72,66,0
284.94965,285.06024,77,68,0
285.06503,285.1756,72,70,0
285.18042,285.291,77,72,0
285.2958,285.40637,71,74,0
285.4112,285.52176,76,76,0
285.52658,285.63715,71,78,0
285.64197,285.75253,76,80,0
285.75735,285.86792,69,82,0
285.8727,285.9833,71,84,0
285.9881,286.0987,69,86,0
286.1035,286.21408,71,89,0
286.21887,286.32947,64,92,0
286.33426,286.44485,67,92,0
286.44965,286.5602,71,75,0
286.56503,286.6756,67,75,0
286.68042,287.06503,64,60,0
286.68042,287.06503,66,60,0
286.68042,287.06503,69,60,0
286.68042,287.06503,75,60,0
287.14197,287.25253,64,92,0
287.25735,287.36792,67,92,0
287.3727,287.4833,71,75,0
287.4881,287.5987,67,75,0
287.6035,287.9881,64,60,0
287.6035,287.9881,66,60,0
287.6035,287.9881,69,60,0
287.6035,287.9881,75,60,0
288.06503,288.1756,64,92,0
288.18042,288.291,67,92,0
288.2958,288.40637,71,75,0
288.4112,288.52176,67,75,0
288.52658,288.9112,64,60,0
288.52658,288.9112,66,60,0
288.52658,288.9112,69,60,0
288.52658,288.9112,75,60,0
288.9881,289.21408,64,60,0
288.9881,289.21408,67,60,0
288.9881,289.21408,71,60,0
289.44965,289.5602,71,60,0
289.56503,289.6756,67,60,0
289.68042,289.791,64,60,0
289.7958,289.90637,59,60,0
290.14194,290.3727,57,60,0
290.14194,290.3727,60,60,0
290.3727,290.6035,55,84,0
290.3727,290.6035,59,84,0
290.6035,290.82944,62,60,0
291.06503,291.2958,57,60,0
291.06503,291.2958,60,60,0
291.2958,291.52658,55,84,0
291.2958,291.52658,59,84,0
291.52658,291.75253,62,60,0
291.9881,292.21887,57,60,0
292.21887,292.44482,62,75,0
292.44965,292.6756,66,92,0
292.68042,292.90637,69,92,0
292.9112,293.02176,66,75,0
292.44965,293.13715,62,92,0
293.02655,293.13715,67,75,0
293.14194,293.36792,69,60,0
293.14194,293.5987,64,60,0
293.3727,293.5987,67,60,0
293.6035,293.82944,62,60,0
293.6035,293.82944,66,60,0
293.83426,294.2958,62,60,0
293.83426,294.2958,66,60,0
293.83426,294.2958,69,60,0
294.2958,294.52176,67,60,0
294.75732,295.21887,62,60,0
294.75732,295.21887,66,60,0
294.75732,295.21887,69,60,0
295.21887,295.44482,67,60,0
295.68042,295.90637,66,60,0
295.68042,295.90637,69,60,0
295.91116,296.13715,74,75,0
296.14194,296.36792,78,92,0
296.14194,296.6035,74,92,0
296.6035,296.71887,73,75,0
296.71887,296.82944,71,75,0
296.3727,296.82944,76,92,0
296.83426,297.06503,76,60,0
297.06503,297.18042,78,60,0
296.83426,297.291,70,60,0
297.18042,297.291,79,60,0
297.29578,297.52176,71,60,0
297.29578,297.52176,78,60,0
297.52655,297.75253,78,62,0
297.52655,297.98328,66,62,0
297.52655,297.98328,69,62,0
297.9881,298.21405,67,66,0
297.75732,298.21405,74,89,0
298.44965,298.6756,78,71,0
298.44965,298.91116,66,71,0
298.44965,298.91116,69,71,0
298.91116,299.13715,67,77,0
298.68042,299.13715,74,74,0
299.3727,299.6035,77,83,0
299.3727,299.83426,65,83,0
299.3727,299.83426,69,83,0
299.6035,299.83426,74,86,0
299.83426,300.0602,64,89,0
299.83426,300.0602,72,89,0
300.06503,300.52655,62,92,0
300.06503,300.52655,71,92,0
300.52655,300.75732,69,92,0
300.52655,300.98328,61,92,0
300.75732,300.98328,67,92,0
300.9881,301.21405,62,92,0
300.9881,301.21405,65,92,0
301.21887,301.44965,65,92,0
301.21887,301.6804,57,92,0
301.6804,301.90637,55,60,0
301.44965,301.90637,62,75,0
302.14194,302.3727,65,92,0
302.14194,302.6035,57,92,0
302.6035,302.82944,55,60,0
302.3727,302.82944,62,75,0
303.065,303.52176,57,60,0
303.065,303.52176,62,60,0
303.065,303.52176,65,60,0
303.52655,303.98328,55,64,0
303.52655,303.98328,59,64,0
303.52655,303.98328,62,64,0
303.9881,304.44482,55,68,0
303.9881,304.44482,59,68,0
303.9881,304.44482,63,68,0
304.44962,304.90637,60,72,0
304.44962,304.90637,64,72,0
304.91116,305.3679,60,76,0
304.91116,305.3679,64,76,0
304.91116,305.3679,67,76,0
305.3727,305.82944,64,80,0
305.3727,305.82944,69,80,0
305.3727,305.82944,72,80,0
305.83426,306.291,62,84,0
305.83426,306.291,69,84,0
305.83426,306.291,72,84,0
306.29578,306.52176,62,89,0
306.29578,306.52176,67,89,0
306.29578,306.52176,72,89,0
306.52655,306.77133,62,92,0
306.52655,306.77133,66,92,0
306.52655,306.77133,72,92,0
307.02655,307.27133,50,75,0
307.52655,307.7936,38,60,0
308.747,308.84702,31,92,0
308.747,308.84702,38,92,0
308.747,308.84702,43,92,0
309.047,309.34702,38,92,0
309.047,309.34702,50,92,0
309.34702,309.64075,35,87,0
309.34702,309.64075,47,87,0
309.647,309.747,31,81,0
309.647,309.747,43,81,0
309.947,310.447,36,105,0
309.947,310.447,48,105,0
310.547,311.047,43,105,0
310.547,311.047,50,105,0
310.547,311.047,55,105,0
311.147,311.647,50,105,0
311.147,311.647,54,105,0
311.147,311.647,57,105,0
311.147,311.647,62,105,0
311.747,312.247,55,105,0
311.747,312.247,59,105,0
311.747,312.247,67,105,0
312.647,312.947,38,75,0
312.647,312.947,50,75,0
312.947,313.24075,35,75,0
312.947,313.24075,47,75,0
313.247,313.34702,31,75,0
313.247,313.34702,43,75,0
313.547,314.047,43,75,0
313.547,314.047,50,75,0
313.547,314.047,55,75,0
314.147,314.647,42,75,0
314.147,314.647,50,75,0
314.147,314.647,54,75,0
314.747,315.247,40,105,0
314.747,315.247,45,105,0
314.747,315.247,52,105,0
315.34702,315.84702,38,105,0
315.34702,315.84702,45,105,0
315.34702,315.84702,50,105,0
315.947,316.24075,31,92,0
315.947,316.24075,38,92,0
315.947,316.24075,43,92,0
316.547,316.84076,43,92,0
316.547,316.84076,46,92,0
316.547,316.84076,50,92,0
316.547,316.84076,55,92,0
317.147,317.44077,39,92,0
317.147,317.44077,48,92,0
317.147,317.44077,51,92,0
317.747,318.04074,36,92,0
317.747,318.04074,43,92,0
317.747,318.04074,48,92,0
318.34702,318.64075,41,92,0
318.34702,318.64075,45,92,0
318.34702,318.64075,53,92,0
318.947,319.24075,34,92,0
318.947,319.24075,41,92,0
318.947,319.24075,46,92,0
319.547,319.84076,39,92,0
319.547,319.84076,51,92,0
320.147,320.44077,33,92,0
320.147,320.44077,45,92,0
320.747,321.04074,38,92,0
320.747,321.04074,50,92,0
321.34702,321.64075,31,92,0
321.34702,321.64075,43,92,0
321.947,322.24075,33,92,0
321.947,322.24075,45,92,0
322.547,323.047,26,92,0
322.547,323.047,38,92,0
323.147,323.247,38,92,0
323.147,323.247,50,92,0
323.297,323.397,38,92,0
323.297,323.397,50,92,0
323.447,323.747,38,92,0
323.447,323.747,50,92,0
323.747,324.04074,35,92,0
323.747,324.04074,47,92,0
324.047,324.147,31,92,0
324.047,324.147,43,92,0
324.34702,324.84702,36,92,0
324.34702,324.84702,48,92,0
324.947,325.447,43,92,0
324.947,325.447,55,92,0
325.547,326.047,50,92,0
325.547,326.047,57,92,0
325.547,326.047,62,92,0
326.147,326.647,55,92,0
326.147,326.647,59,92,0
326.147,326.647,62,92,0
326.747,326.84702,38,92,0
326.747,326.84702,50,92,0
326.897,326.997,38,92,0
326.897,326.997,50,92,0
327.047,327.34702,38,92,0
327.047,327.34702,50,92,0
327.34702,327.64075,35,92,0
327.34702,327.64075,47,92,0
327.647,327.747,31,92,0
327.647,327.747,43,92,0
327.947,328.047,43,92,0
327.947,328.047,55,92,0
328.09702,328.197,43,92,0
328.09702,328.197,55,92,0
328.247,328.547,43,92,0
328.247,328.547,55,92,0
328.547,328.84076,40,92,0
328.547,328.84076,52,92,0
328.84702,328.947,36,92,0
328.84702,328.947,48,92,0
329.147,329.647,38,92,0
329.147,329.647,50,92,0
329.747,330.04074,43,92,0
329.747,330.04074,50,92,0
329.747,330.04074,55,92,0
330.34702,330.73163,30,105,0
330.34702,330.73163,42,105,0
330.80853,331.19315,31,105,0
330.80853,331.19315,43,105,0
331.50085,331.7268,50,92,0
331.50085,331.7268,54,92,0
331.50085,331.7268,57,92,0
331.50085,331.7268,60,92,0
331.9624,332.18835,38,92,0
331.9624,332.18835,42,92,0
331.9624,332.18835,45,92,0
331.9624,332.18835,50,92,0
332.42392,332.6499,43,92,0
332.42392,332.6499,46,92,0
332.42392,332.6499,50,92,0
332.42392,332.6499,55,92,0
332.88547,333.11142,31,92,0
332.88547,333.11142,34,92,0
332.88547,333.11142,38,92,0
332.88547,333.11142,43,92,0
333.11624,333.50085,33,105,0
333.11624,333.50085,45,105,0
333.57776,333.96237,34,105,0
333.57776,333.96237,46,105,0
334.27008,334.49603,53,92,0
334.27008,334.49603,57,92,0
334.27008,334.49603,60,92,0
334.27008,334.49603,63,92,0
334.73163,334.95758,41,92,0
334.73163,334.95758,45,92,0
334.73163,334.95758,48,92,0
334.73163,334.95758,53,92,0
335.19315,335.41913,46,92,0
335.19315,335.41913,50,92,0
335.19315,335.41913,53,92,0
335.19315,335.41913,58,92,0
335.6547,335.88065,34,92,0
335.6547,335.88065,38,92,0
335.6547,335.88065,41,92,0
335.6547,335.88065,46,92,0
335.88547,336.27008,37,105,0
335.88547,336.27008,49,105,0
336.347,336.73163,38,105,0
336.347,336.73163,50,105,0
336.80853,337.19315,37,105,0
336.80853,337.19315,49,105,0
337.27008,337.6547,38,105,0
337.27008,337.6547,50,105,0
337.73163,338.11624,49,105,0
337.73163,338.11624,61,105,0
338.19315,338.57776,50,105,0
338.19315,338.57776,62,105,0
338.6547,338.76526,68,92,0
338.77008,338.88065,69,92,0
338.88547,338.99603,71,92,0
339.00085,339.11142,73,92,0
339.11624,339.2268,75,92,0
339.2316,339.3422,77,92,0
339.347,339.45758,78,92,0
339.46237,339.57297,80,92,0
339.57776,339.68835,81,92,0
339.69315,339.80374,80,92,0
339.80853,339.9191,81,92,0
339.92392,340.0345,80,92,0
340.0393,340.11624,81,92,0
340.27008,340.347,78,92,0
340.50085,340.61142,82,92,0
340.6162,340.7268,81,92,0
340.7316,340.8422,82,92,0
340.847,340.95758,79,92,0
340.96237,341.0393,81,92,0
341.19315,341.27008,78,92,0
341.42392,341.50085,38,92,0
341.6547,341.7316,50,92,0
341.88547,341.96237,38,92,0
342.1162,342.19315,50,92,0
342.347,342.42392,43,92,0
342.57776,342.6547,55,92,0
342.80853,342.88547,39,92,0
343.0393,343.1162,51,92,0
343.27008,343.347,32,92,0
343.50082,343.57776,44,92,0
343.7316,343.80853,39,92,0
343.96237,344.0393,51,92,0
344.19315,344.57776,62,105,0
344.19315,344.57776,69,105,0
344.19315,344.57776,74,105,0
344.6547,345.0393,55,105,0
344.6547,345.0393,58,105,0
344.6547,345.0393,62,105,0
344.6547,345.0393,67,105,0
345.347,345.57294,50,92,0
345.347,345.57294,54,92,0
345.347,345.57294,57,92,0
345.347,345.57294,62,92,0
345.80853,346.0345,38,92,0
345.80853,346.0345,42,92,0
345.80853,346.0345,45,92,0
345.80853,346.0345,50,92,0
346.27008,346.49603,43,92,0
346.27008,346.49603,46,92,0
346.27008,346.49603,50,92,0
346.27008,346.49603,55,92,0
346.7316,346.95758,55,92,0
346.7316,346.95758,58,92,0
346.7316,346.95758,62,92,0
346.96237,347.347,65,105,0
346.96237,347.347,72,105,0
346.96237,347.347,77,105,0
347.42392,347.80853,58,105,0
347.42392,347.80853,62,105,0
347.42392,347.80853,65,105,0
347.42392,347.80853,70,105,0
348.1162,348.3422,53,92,0
348.1162,348.3422,57,92,0
348.1162,348.3422,60,92,0
348.1162,348.3422,65,92,0
348.57776,348.8037,41,92,0
348.57776,348.8037,45,92,0
348.57776,348.8037,48,92,0
348.57776,348.8037,53,92,0
349.0393,349.26526,46,92,0
349.0393,349.26526,50,92,0
349.0393,349.26526,53,92,0
349.0393,349.26526,58,92,0
349.50082,349.7268,58,92,0
349.50082,349.7268,62,92,0
349.50082,349.7268,65,92,0
349.7316,350.1162,61,105,0
349.7316,350.1162,73,105,0
350.19315,350.57776,62,105,0
350.19315,350.57776,74,105,0
350.65466,351.0393,53,105,0
350.65466,351.0393,65,105,0
351.1162,351.50082,46,105,0
351.1162,351.50082,58,105,0
351.57776,351.96237,50,105,0
351.57776,351.96237,62,105,0
352.0393,352.42392,43,105,0
352.0393,352.42392,55,105,0
352.50082,352.72678,45,75,0
352.7316,352.95755,57,75,0
352.7316,352.95755,64,75,0
352.7316,352.95755,67,75,0
353.19315,353.4191,57,75,0
353.19315,353.4191,64,75,0
353.19315,353.4191,67,75,0
353.65466,353.88065,50,75,0
353.65466,353.88065,62,75,0
354.1162,354.34216,46,75,0
354.1162,354.34216,58,75,0
354.57776,354.8037,43,75,0
354.57776,354.8037,55,75,0
355.03928,355.26526,50,75,0
355.03928,355.26526,62,75,0
355.27005,355.347,45,92,0
355.50082,355.57776,57,92,0
355.7316,355.80853,45,92,0
355.96237,356.03928,57,92,0
356.19315,356.27005,50,92,0
356.4239,356.50082,62,92,0
356.65466,356.7316,46,92,0
356.88544,356.96237,58,92,0
357.1162,357.19315,39,92,0
357.347,357.4239,51,92,0
357.57776,357.65466,46,92,0
357.8085,357.88544,58,92,0
358.03928,358.1162,27,92,0
358.27005,358.347,39,92,0
358.50082,358.57776,34,92,0
358.7316,358.8085,46,92,0
358.96237,359.03928,36,92,0
359.19315,359.27005,48,92,0
359.4239,359.50082,43,92,0
359.65466,359.7316,55,92,0
359.88544,360.1114,44,92,0
360.1162,360.34216,56,92,0
360.347,360.57294,51,92,0
360.57776,360.8037,63,92,0
360.8085,361.0345,33,92,0
361.03928,361.26526,45,92,0
361.27005,361.496,38,92,0
361.50082,361.72678,50,92,0
361.7316,361.95755,41,92,0
361.96237,362.18832,53,92,0
362.1931,362.4191,46,92,0
362.4239,362.64987,58,92,0
362.65466,362.8806,48,92,0
362.88544,363.1114,60,92,0
363.1162,363.34216,49,92,0
363.347,363.57294,61,92,0
363.57773,363.8037,50,92,0
363.57773,363.8037,62,92,0
364.50082,365.83414,26,92,0
364.50082,365.83414,38,92,0
366.60083,366.89456,81,105,0
367.2008,367.49457,78,105,0
367.8008,368.09457,72,105,0
368.40082,368.69458,69,105,0
369.00082,369.29456,66,105,0
369.60083,369.89456,63,105,0
370.2008,370.49457,62,105,0
370.8008,371.09457,62,105,0
371.40082,371.69458,62,105,0
372.00082,372.29456,62,105,0
372.60083,372.89456,62,105,0
373.2008,373.49457,62,105,0
373.8008,374.09457,62,75,0
374.40082,374.69458,62,75,0
375.00082,375.3272,50,75,0
375.66748,376.03467,50,83,0
376.41748,377.41748,26,92,0
389.6175,389.83176,47,60,0
389.83176,390.04605,51,60,0
390.04605,390.26035,59,60,0
390.26035,390.47015,54,60,0
390.47464,390.6889,47,60,0
390.6889,390.9032,51,60,0
390.9032,391.1175,59,60,0
391.1175,391.3273,54,60,0
391.33176,391.54605,45,60,0
391.54605,391.76035,57,68,0
391.76035,391.9746,42,76,0
391.9746,392.1889,54,84,0
392.1889,392.4032,39,92,0
392.4032,392.6175,51,92,0
392.6175,392.83176,42,82,0
392.83176,393.0416,54,71,0
393.04605,393.26035,45,60,0
393.26035,393.4746,57,60,0
393.4746,393.6889,42,62,0
393.6889,393.9032,54,64,0
393.9032,394.1175,38,66,0
394.1175,394.33176,50,68,0
394.33176,394.54605,42,70,0
394.54605,394.75586,54,72,0
394.76035,394.9746,45,74,0
394.9746,395.1889,57,76,0
395.1889,395.4032,42,78,0
395.4032,395.6175,54,80,0
395.6175,395.83176,38,82,0
395.83176,396.04605,50,84,0
396.04605,396.26035,36,86,0
396.26035,396.47015,48,89,0
396.4746,396.71942,37,92,0
396.4746,396.71942,49,92,0
398.2032,398.3407,59,92,0
398.35318,398.4907,57,87,0
398.5032,398.6407,56,82,0
398.6532,398.79068,54,77,0
398.8032,398.9407,53,72,0
398.9532,399.0907,50,66,0
399.10318,400.08237,49,60,0
419.74603,419.96033,49,60,0
419.96033,420.03174,50,60,0
420.1746,420.24603,38,60,0
420.81744,420.8889,50,60,0
421.03174,421.10318,38,60,0
421.6746,421.74603,50,60,0
421.8889,421.96033,38,60,0
422.10318,422.1746,50,60,0
422.31744,422.3889,38,76,0
422.53174,422.60318,50,92,0
422.74603,422.81744,38,75,0
422.9603,423.03174,50,60,0
423.1746,423.24603,38,60,0
423.3889,423.4603,50,60,0
423.60318,423.6746,38,60,0
424.24603,424.31744,50,63,0
424.4603,424.53174,38,64,0
425.10318,425.1746,50,67,0
425.31744,425.3889,38,68,0
425.53174,425.60318,50,69,0
425.74603,425.81744,38,70,0
425.9603,426.03174,50,71,0
426.1746,426.24603,38,72,0
426.3889,426.4603,50,73,0
426.60318,426.6746,38,74,0
426.81744,426.8889,50,75,0
427.03174,427.10315,38,75,0
427.6746,427.74603,50,75,0
427.8889,427.9603,38,75,0
428.53174,428.60315,50,75,0
428.74603,428.81744,38,75,0
428.9603,429.03174,50,75,0
429.1746,429.24603,38,75,0
429.3889,429.4603,50,75,0
429.60315,429.6746,38,75,0
429.81744,429.8889,50,75,0
430.03174,430.10315,38,75,0
430.24603,430.31744,50,76,0
430.4603,430.53174,38,77,0
430.6746,430.74603,50,78,0
430.8889,430.9603,38,79,0
431.10315,431.1746,50,80,0
431.31744,431.3889,38,81,0
431.53174,431.60315,50,82,0
431.746,431.81744,38,83,0
431.9603,432.03174,50,84,0
432.1746,432.246,38,85,0
432.3889,432.4603,50,86,0
432.60315,432.6746,38,87,0
432.81744,432.8889,50,88,0
433.03174,433.10315,38,89,0
433.246,433.31744,50,90,0
433.4603,433.53174,38,91,0
433.6746,433.746,50,92,0
433.8889,433.9603,38,92,0
434.10315,434.1746,50,92,0
434.31744,434.3889,38,92,0
434.53174,434.60315,50,92,0
434.746,434.81744,38,92,0
434.9603,435.03174,50,92,0
435.1746,435.246,38,92,0
435.3889,435.4603,50,92,0
435.60315,435.6746,38,92,0
435.81744,435.88885,50,92,0
436.03174,436.10315,38,92,0
436.246,436.45584,50,92,0
436.4603,436.6701,38,92,0
436.6746,436.8844,50,92,0
436.88885,437.0987,38,92,0
437.10315,437.20584,26,60,0
437.2103,437.313,38,60,0
437.31744,437.4201,26,60,0
437.4246,437.52725,38,60,0
437.53174,437.6344,26,60,0
437.63885,437.74155,38,60,0
437.746,437.8487,26,60,0
437.85315,437.95584,38,60,0
437.9603,438.063,26,60,0
438.06744,438.1701,38,60,0
438.1746,438.27725,26,60,0
438.28174,438.3844,38,60,0
438.38885,438.49155,26,60,0
438.496,438.5987,38,60,0
438.60315,438.70584,26,60,0
438.7103,438.813,38,60,0
438.81744,438.9201,26,60,0
438.9246,439.02725,38,60,0
439.03174,439.1344,26,60,0
439.13885,439.24155,38,60,0
439.246,439.3487,26,60,0
439.35315,439.45584,38,60,0
439.4603,439.563,26,60,0
439.56744,439.6701,38,60,0
439.6746,439.77725,26,60,0
439.78174,439.8844,38,60,0
439.88885,439.99155,26,60,0
439.996,440.0987,38,60,0
440.10315,440.20584,26,60,0
440.2103,440.31296,38,61,0
440.31744,440.4201,26,61,0
440.4246,440.52725,38,62,0
440.5317,440.6344,26,63,0
440.63885,440.74155,38,64,0
440.746,440.8487,26,65,0
440.85315,440.95584,38,66,0
440.9603,441.06296,26,67,0
441.06744,441.1701,38,68,0
441.1746,441.27725,26,69,0
441.2817,441.3844,38,70,0
441.38885,441.49155,26,71,0
441.496,441.5987,38,72,0
441.60315,441.70584,26,73,0
441.7103,441.81296,38,74,0
441.81744,441.9201,26,75,0
441.9246,442.02725,38,76,0
442.0317,442.1344,26,77,0
442.13885,442.24155,38,78,0
442.246,442.3487,26,79,0
442.35315,442.45584,38,80,0
442.4603,442.56296,26,81,0
442.56744,442.6701,38,82,0
442.6746,442.77725,26,83,0
442.7817,442.8844,38,84,0
442.88885,442.99155,26,85,0
442.996,443.0987,38,86,0
443.10315,443.20584,26,87,0
443.2103,443.31296,38,88,0
443.31744,443.4201,26,89,0
443.4246,443.52725,38,90,0
443.5317,443.6344,26,92,0
443.63885,443.74155,38,92,0
443.746,443.8487,26,92,0
443.85315,443.95584,38,92,0
443.9603,444.2936,31,92,0
443.9603,444.2936,38,92,0
443.9603,444.2936,43,92,0
444.3603,444.42697,43,92,0
444.3603,444.42697,50,92,0
444.5603,444.62695,55,92,0
444.76028,444.82697,43,92,0
444.76028,444.82697,50,92,0
444.9603,445.02695,55,92,0
445.16028,445.22696,43,92,0
445.16028,445.22696,50,92,0
445.3603,445.42697,55,92,0
445.5603,445.62695,43,92,0
445.5603,445.62695,50,92,0
445.76028,445.82697,55,92,0
445.9603,446.02695,43,92,0
445.9603,446.02695,50,92,0
446.16028,446.22696,55,92,0
446.3603,446.42697,43,92,0
446.3603,446.42697,50,92,0
446.5603,446.62695,55,92,0
446.76028,446.82697,43,92,0
446.76028,446.82697,50,92,0
446.9603,447.02695,55,92,0
447.16028,447.22696,43,92,0
447.16028,447.22696,50,92,0
447.3603,447.42697,55,92,0
447.5603,447.62695,43,92,0
447.5603,447.62695,50,92,0
447.76028,447.82697,55,92,0
447.9603,448.02695,43,92,0
447.9603,448.02695,55,92,0
448.16028,448.22696,40,92,0
448.16028,448.22696,52,92,0
448.3603,448.42697,38,92,0
448.3603,448.42697,50,92,0
448.5603,448.62695,36,92,0
448.5603,448.62695,48,92,0
448.76028,448.82697,34,92,0
448.76028,448.82697,46,92,0
448.9603,449.02695,33,92,0
448.9603,449.02695,45,92,0
449.16028,449.22696,31,92,0
449.16028,449.22696,43,92,0
449.3603,449.42697,43,92,0
449.5603,449.62695,31,92,0
449.76028,449.82697,43,92,0
449.9603,450.02695,31,92,0
450.16028,450.22696,43,92,0
450.3603,450.42697,31,92,0
450.5603,450.62695,43,92,0
450.76028,450.82697,31,92,0
450.9603,451.02695,43,92,0
451.16028,451.22696,31,92,0
451.3603,451.42697,43,92,0
451.5603,451.62695,31,92,0
451.76028,451.82697,43,92,0
451.9603,452.02695,31,92,0
452.16028,452.22696,43,92,0
452.3603,452.42697,31,92,0
452.5603,452.62695,43,92,0
452.76028,452.82697,43,92,0
452.76028,452.82697,55,92,0
452.9603,453.02695,40,92,0
452.9603,453.02695,52,92,0
453.16028,453.22696,38,92,0
453.16028,453.22696,50,92,0
453.3603,453.42697,36,92,0
453.3603,453.42697,48,92,0
453.5603,453.75613,34,92,0
453.5603,453.75613,46,92,0
453.76028,453.95612,63,92,0
453.76028,453.95612,67,92,0
453.9603,454.15613,58,92,0
454.16028,454.3561,62,92,0
454.16028,454.3561,65,92,0
454.3603,454.55612,46,92,0
454.5603,454.75613,60,92,0
454.5603,454.75613,63,92,0
454.76028,454.95612,46,92,0
454.9603,455.15613,58,92,0
454.9603,455.15613,62,92,0
455.16028,455.3561,46,92,0
455.3603,455.55612,57,92,0
455.3603,455.55612,60,92,0
455.5603,455.75613,46,92,0
455.76028,455.95612,55,92,0
455.76028,455.95612,58,92,0
455.9603,456.15613,34,92,0
456.16028,456.3561,46,92,0
456.3603,456.55612,34,92,0
456.5603,456.75613,46,92,0
456.76028,456.95612,34,92,0
456.9603,457.15613,46,92,0
457.16028,457.3561,34,92,0
457.3603,457.55612,46,92,0
457.5603,457.75613,34,92,0
457.76028,457.95612,46,92,0
457.9603,458.15613,34,92,0
458.16028,458.3561,46,92,0
458.3603,458.55612,33,92,0
458.5603,458.75613,45,92,0
458.76028,458.95612,33,92,0
458.9603,459.15613,45,92,0
459.16028,459.3561,33,92,0
459.3603,459.55612,45,92,0
459.5603,459.75613,33,92,0
459.76028,459.95612,45,92,0
459.9603,460.15613,33,92,0
460.16028,460.3561,45,92,0
460.3603,460.55612,33,92,0
460.5603,460.75613,45,92,0
460.76028,460.82697,33,92,0
460.9603,461.02695,45,92,0
461.16028,461.22696,33,92,0
461.3603,461.42697,45,92,0
461.5603,461.62695,33,92,0
461.76028,461.82697,45,92,0
461.9603,462.02695,33,92,0
462.16028,462.22696,45,92,0
462.3603,462.42697,33,92,0
462.5603,462.62695,45,92,0
462.76028,462.82697,33,92,0
462.9603,463.02695,45,92,0
463.16028,463.22696,26,92,0
463.3603,463.42697,38,92,0
463.5603,463.62695,26,92,0
463.76028,463.82697,38,92,0
463.9603,464.02695,26,92,0
464.16028,464.22696,38,92,0
464.3603,464.42697,26,92,0
464.5603,464.62695,38,92,0
464.76028,464.82697,26,92,0
464.9603,465.02695,38,92,0
465.16028,465.22696,26,92,0
465.3603,465.42697,38,92,0
465.5603,465.75613,31,92,0
465.5603,465.75613,43,92,0
465.9603,466.2936,34,92,0
465.9603,466.2936,46,92,0
466.3603,466.55356,33,92,0
466.3603,466.55356,45,92,0
466.55765,466.75092,31,92,0
466.55765,466.75092,43,92,0
466.75504,466.94827,30,92,0
466.75504,466.94827,42,92,0
466.9524,467.14566,31,92,0
466.9524,467.14566,43,92,0
467.14975,467.34302,39,92,0
467.34714,467.54037,37,92,0
467.5445,467.73776,38,92,0
467.74185,467.93512,45,92,0
467.93924,468.12997,42,92,0
468.13403,468.3248,43,92,0
468.32886,468.5196,51,92,0
468.52365,468.7144,49,92,0
468.71844,468.9092,50,92,0
468.91327,469.104,57,92,0
469.10806,469.2988,54,92,0
469.30286,469.49362,55,92,0
469.49768,469.68597,60,92,0
469.68997,469.8783,57,92,0
469.8823,470.0706,58,92,0
470.0746,470.2629,63,92,0
470.2669,470.4552,61,92,0
470.4592,470.64752,62,92,0
470.65152,470.8398,67,92,0
470.84384,471.03214,62,92,0
471.03613,471.22205,67,92,0
471.226,471.41193,62,92,0
471.4159,471.6018,67,92,0
471.60574,471.79166,62,92,0
471.79562,471.98154,67,92,0
472.36523,472.55118,50,92,0
472.36523,472.55118,54,92,0
472.36523,472.55118,57,92,0
472.36523,472.55118,62,92,0
472.5551,472.7387,55,92,0
472.5551,472.7387,58,92,0
472.5551,472.7387,62,92,0
472.5551,472.7387,67,92,0
473.1176,473.3012,50,92,0
473.1176,473.3012,54,92,0
473.1176,473.3012,57,92,0
473.1176,473.3012,62,92,0
473.3051,473.4887,55,92,0
473.3051,473.4887,58,92,0
473.3051,473.4887,62,92,0
473.3051,473.4887,67,92,0
473.8676,474.0512,38,92,0
473.8676,474.0512,42,92,0
473.8676,474.0512,45,92,0
473.8676,474.0512,50,92,0
474.0551,474.2387,43,92,0
474.0551,474.2387,46,92,0
474.0551,474.2387,50,92,0
474.0551,474.2387,55,92,0
474.6176,474.82745,38,92,0
474.6176,474.82745,42,92,0
474.6176,474.82745,45,92,0
474.6176,474.82745,50,92,0
474.8319,476.68906,43,92,0
474.8319,476.68906,46,92,0
474.8319,476.68906,50,92,0
474.8319,476.68906,55,92,0
476.68906,476.9828,31,92,0
476.68906,476.9828,43,92,0
478.78903,479.0828,43,10,0
