start_time,end_time,note_value,velocity,instrument_program_number
12.895136,13.336312,65,80,40
13.336312,13.771094,67,80,40
13.771094,14.128237,69,80,40
14.199665,15.056807,70,100,40
15.056807,15.485378,69,60,40
15.485378,15.913949,70,100,40
15.913949,16.34252,74,100,40
16.34252,16.699663,72,100,40
16.771091,17.199661,69,100,40
17.199661,17.556805,65,60,40
17.628233,18.056805,69,80,40
18.056805,18.485374,70,100,40
18.485374,18.913946,74,100,40
18.913946,19.271088,72,80,40
19.342518,19.771088,69,60,40
19.771088,20.128231,65,60,40
20.19966,21.0568,77,100,40
21.0568,21.485373,75,100,40
21.485373,21.842514,77,100,40
21.913942,22.342514,75,80,40
22.342514,22.699657,74,80,40
22.771086,23.413942,73,80,40
23.413942,23.521084,75,87,40
23.521084,23.628227,73,88,40
23.628227,24.056799,72,89,40
24.056799,24.41394,70,94,40
24.485369,25.361326,69,100,40
25.361326,25.73446,72,100,40
25.809088,26.25685,65,80,40
26.25685,26.698025,67,80,40
26.698025,27.060343,69,80,40
27.132807,27.561378,70,60,40
27.561378,27.989948,65,60,40
27.989948,28.347092,72,60,40
28.41852,28.739948,73,60,40
28.739948,28.79352,75,61,40
28.79352,28.847092,73,61,40
28.847092,29.275661,72,61,40
29.275661,29.632805,73,62,40
29.704233,30.561375,75,63,40
30.561375,30.918518,68,66,40
30.989946,31.412481,68,67,40
31.412481,31.835016,70,68,40
31.835016,32.18713,72,69,40
32.25755,32.680084,73,70,40
32.680084,33.0322,68,71,40
33.10262,33.454735,73,72,40
33.525154,33.837654,78,73,40
33.837654,33.88974,80,74,40
33.88974,33.941822,78,74,40
33.941822,34.358486,77,74,40
34.358486,34.70571,78,75,40
34.775154,36.02515,80,76,40
36.02515,37.62237,81,82,40
37.691814,38.108482,82,90,40
38.108482,38.525146,78,92,40
38.525146,38.94768,75,94,40
38.94768,39.370216,73,96,40
39.370216,39.722332,72,98,40
39.79275,40.36418,77,100,40
40.435608,40.649895,74,80,40
40.649895,40.859715,65,80,40
40.86418,41.078465,74,80,40
41.078465,41.649895,77,80,40
41.72132,41.935608,74,80,40
41.935608,42.145428,65,80,40
42.149895,42.364178,74,80,40
42.364178,42.574,77,80,40
42.578465,42.79275,75,81,40
42.79275,43.00257,65,82,40
43.007034,43.22132,75,83,40
43.22132,43.43114,77,84,40
43.435608,43.64989,75,86,40
43.64989,43.859715,65,88,40
43.864178,44.078465,75,90,40
44.078465,44.288284,81,92,40
44.292747,44.507034,75,94,40
44.507034,44.716854,69,96,40
44.72132,44.935604,75,98,40
44.935604,46.64989,84,100,40
46.64989,47.00703,82,100,40
47.07846,47.435604,70,100,40
47.50703,49.221313,80,100,40
49.221313,49.578457,79,100,40
49.649887,50.507027,80,100,40
50.507027,50.86417,79,100,40
50.9356,51.36417,80,100,40
51.36417,51.79274,79,100,40
51.79274,52.221313,75,100,40
52.221313,52.578453,72,100,40
52.649883,53.084663,70,100,40
53.084663,53.519447,72,100,40
53.519447,53.881763,74,100,40
53.954227,54.836582,65,80,40
54.836582,55.204227,69,60,40
55.277756,55.645405,70,40,40
60.57187,61.160103,80,60,40
61.160103,61.307163,79,60,40
61.307163,61.45422,80,60,40
61.45422,61.60128,84,60,40
61.60128,61.748337,82,60,40
61.748337,61.895397,79,60,40
61.895397,62.042454,82,60,40
62.042454,62.189514,80,62,40
62.189514,62.479034,77,64,40
62.48363,62.63069,76,68,40
62.63069,62.77775,77,70,40
62.77775,62.92481,80,72,40
62.92481,63.071865,79,74,40
63.071865,63.218925,73,76,40
63.218925,63.365982,79,78,40
63.365982,63.513042,77,80,40
63.513042,63.80716,68,82,40
63.80716,63.95422,67,86,40
63.95422,64.10128,68,88,40
64.10128,64.24834,79,91,40
64.24834,64.39539,77,94,40
64.39539,64.53786,69,97,40
64.54245,65.130684,74,100,40
65.204216,65.424805,67,100,40
65.424805,65.59025,69,80,40
65.59025,65.64539,72,65,40
65.64539,65.86139,70,60,40
65.86598,66.23363,69,40,40
71.160095,71.74833,75,60,40
71.74833,71.895386,74,60,40
71.895386,72.04244,75,60,40
72.04244,72.18951,79,60,40
72.18951,72.33656,77,60,40
72.33656,72.48362,74,60,40
72.48362,72.63068,77,60,40
72.63068,72.77774,75,60,40
72.77774,73.06726,72,60,40
73.07185,73.21892,71,60,40
73.21892,73.365974,72,60,40
73.365974,73.51303,75,60,40
73.51303,73.66009,74,60,40
73.66009,73.80715,68,60,40
73.80715,73.95421,74,60,40
73.95421,74.101265,72,61,40
74.101265,74.390785,63,62,40
74.395386,74.54244,62,66,40
74.54244,74.6895,63,68,40
74.6895,74.83656,74,70,40
74.83656,74.98362,72,72,40
74.98362,75.13068,64,74,40
75.13068,75.27773,74,76,40
75.27773,75.4248,72,78,40
75.4248,75.71432,65,80,40
75.71891,75.86597,64,84,40
75.86597,76.01303,65,86,40
76.01303,76.16009,74,88,40
76.16009,76.307144,72,90,40
76.307144,76.44961,66,92,40
76.45421,76.60346,74,94,40
76.60346,76.752716,72,96,40
76.752716,76.8973,67,98,40
76.90196,77.051216,74,100,40
77.051216,77.20047,72,100,40
77.20047,77.576996,68,100,40
77.576996,77.79954,69,100,40
77.804276,78.03504,68,100,40
78.03504,78.261,69,90,40
78.26581,78.507744,68,80,40
78.507744,78.74464,69,70,40
78.74968,78.99968,68,60,40
78.99968,79.24447,69,50,40
79.24968,79.89254,69,40,40
79.89254,80.102356,71,40,40
80.10682,80.46397,73,40,40
80.53539,81.71397,64,40,40
81.821106,82.46396,69,40,40
82.46396,82.67378,71,40,40
82.678246,83.03539,73,40,40
83.10682,84.28539,64,40,40
84.39253,85.035385,73,40,40
85.035385,85.24521,74,60,40
85.24967,85.60682,76,66,40
85.678246,87.3211,77,80,40
87.39253,87.71396,69,80,40
87.71396,87.8211,72,74,40
87.8211,88.178246,70,72,40
88.24967,89.42824,69,64,40
89.535385,90.17824,81,40,40
90.17824,90.38806,83,40,40
90.392525,90.74967,85,40,40
90.8211,91.999664,76,40,40
92.10681,92.749664,81,40,40
92.749664,92.95949,83,40,40
92.96395,93.32109,85,40,40
93.392525,94.57109,76,40,40
94.67824,95.32109,85,40,40
95.32109,95.530914,86,46,40
95.53538,95.89252,88,48,40
95.96395,97.14252,90,52,40
97.249664,97.89252,85,64,40
97.89252,98.10234,86,70,40
98.106804,98.46394,88,72,40
98.53538,99.71394,90,76,40
99.82109,100.46394,73,88,40
100.46394,100.67377,74,94,40
100.67823,101.03537,76,96,40
101.106804,102.82108,77,100,40
102.82108,103.24966,74,100,40
103.24966,103.6068,70,100,40
103.67823,104.53537,69,80,40
104.53537,104.89251,67,60,40
104.96394,105.6068,73,60,40
105.6068,105.81662,74,63,40
105.82108,106.17822,76,64,40
106.24966,107.745186,77,66,40
107.74965,107.963936,78,74,40
107.963936,108.17822,79,75,40
108.17822,108.39251,81,76,40
108.39251,108.6068,82,77,40
108.6068,108.81661,86,78,40
108.821075,109.48284,77,80,40
109.48284,109.69884,79,80,40
109.70343,110.08222,76,60,40
110.157974,110.505196,77,40,40
120.766075,120.96877,72,100,40
120.96877,121.16725,81,100,40
121.17148,121.71201,81,100,40
121.77959,121.982285,72,90,40
121.982285,122.18499,81,87,40
122.18499,122.38347,84,84,40
122.387695,122.9958,84,81,40
122.9958,123.09715,82,71,40
123.1985,123.53634,79,68,40
123.603905,124.14445,84,60,40
124.21201,124.41472,72,60,40
124.41472,124.61742,81,61,40
124.61742,124.8159,89,62,40
124.82012,125.42823,89,63,40
125.42823,125.52958,88,66,40
125.630936,125.96877,79,67,40
126.03634,126.57687,91,69,40
126.64445,126.847145,81,72,40
126.847145,127.04985,89,73,40
127.04985,127.24833,93,74,40
127.25255,127.86066,93,75,40
127.86066,127.96201,91,78,40
128.06335,128.4012,93,79,40
128.46877,129.07687,93,81,40
129.07687,129.17822,91,84,40
129.27957,129.61742,86,85,40
129.68498,130.29309,89,87,40
130.29309,130.39444,81,90,40
130.49579,130.6985,81,91,40
130.6985,130.89697,82,92,40
130.9012,131.50931,82,93,40
131.50931,131.61066,79,96,40
131.712,131.9147,79,97,40
131.9147,132.11319,80,98,40
132.11742,133.36742,80,100,40
133.36742,134.54597,80,60,40
134.65312,135.93884,65,60,40
134.65312,135.93884,68,60,40
135.93884,137.1174,65,40,40
135.93884,137.1174,68,40,40
137.22455,137.5817,65,40,40
137.22455,137.5817,69,40,40
137.8674,138.07722,69,60,40
138.0817,138.29597,69,60,40
138.29597,138.5058,70,60,40
138.51027,138.8674,70,60,40
139.15312,139.36295,70,60,40
139.3674,139.5817,70,60,40
139.5817,139.7915,72,60,40
139.79597,140.15312,72,60,40
140.43883,140.54597,72,60,40
140.65312,140.8674,72,66,40
140.8674,141.07722,77,73,40
141.0817,141.51025,77,80,40
141.51025,141.93883,76,80,40
141.93883,142.29597,70,60,40
142.3674,142.72455,69,60,40
143.01025,143.22008,69,60,40
143.22455,143.43883,69,60,40
143.43883,143.64865,70,60,40
143.6531,144.01025,70,60,40
144.29597,144.4031,70,60,40
144.51025,144.72455,70,64,40
144.72455,144.93436,72,68,40
144.93883,145.29597,72,72,40
145.58168,145.68883,72,85,40
145.79597,146.01025,72,90,40
146.01025,146.22008,81,95,40
146.22453,146.6531,81,100,40
146.6531,147.08168,79,80,40
147.08168,147.43883,72,60,40
147.51025,148.1531,72,40,40
148.1531,148.36293,74,40,40
148.3674,148.72453,72,40,40
148.79596,149.43883,72,40,40
149.43883,149.64865,77,40,40
149.6531,150.01025,72,40,40
150.08168,150.72453,72,40,40
150.72453,150.83168,74,43,40
150.93883,151.29596,72,44,40
151.36739,152.01025,72,46,40
152.01025,152.11739,81,49,40
152.22453,152.58168,72,50,40
152.6531,153.29596,72,52,40
153.29596,153.4031,74,55,40
153.51025,153.86739,72,56,40
153.93881,154.58168,73,58,40
154.58168,154.68881,74,61,40
154.79596,155.1531,77,62,40
155.22453,155.86739,75,64,40
155.86739,155.97453,76,67,40
156.08168,156.43881,81,68,40
156.51024,157.1531,78,70,40
157.1531,157.26024,79,74,40
157.36739,157.72453,84,75,40
158.01024,158.22006,84,80,40
158.22453,158.43881,84,80,40
158.43881,158.64864,72,80,40
158.65309,159.01024,72,80,40
159.29294,159.4998,84,80,40
159.50421,159.71547,84,80,40
159.71547,159.92233,72,80,40
159.92674,160.27885,72,80,40
160.56055,160.76741,84,81,40
160.7718,160.98308,84,81,40
160.98308,161.18994,72,81,40
161.19435,161.54646,72,81,40
161.82521,162.0292,84,82,40
162.03354,162.24188,84,82,40
162.24188,162.44588,72,82,40
162.45021,162.79744,72,82,40
163.07521,163.2792,84,83,40
163.28354,163.49188,84,83,40
163.49188,163.69588,72,84,40
163.70021,164.04742,72,85,40
164.32236,164.52356,86,88,40
164.52783,164.7333,86,89,40
164.7333,164.93451,74,90,40
164.9388,165.28125,74,91,40
165.55522,165.75642,86,94,40
165.76071,165.96619,86,95,40
165.96619,166.16739,74,96,40
166.17166,166.51413,74,97,40
166.7881,166.9893,84,100,40
166.99358,167.19907,84,100,40
167.19907,167.40025,72,100,40
167.40454,167.74701,72,100,40
168.02098,168.22217,84,100,40
168.22646,168.43193,84,94,40
168.43193,168.63313,72,88,40
168.63742,168.97987,72,81,40
169.2567,169.4607,72,60,40
169.46504,169.67337,72,60,40
169.67337,169.87737,60,60,40
169.8817,170.22893,60,60,40
170.5067,170.7107,72,60,40
170.71504,170.92337,72,59,40
170.92337,171.12737,60,58,40
171.1317,171.47893,60,57,40
171.75963,171.9665,72,52,40
171.9709,172.18217,72,50,40
172.18217,172.38904,60,48,40
172.39343,172.74554,60,46,40
173.02724,173.2341,72,40,40
173.23851,174.08357,72,40,40
174.08357,175.26215,60,40,40
192.25421,192.69539,65,80,40
192.69539,193.13017,67,80,40
193.13017,193.48732,69,80,40
193.55875,194.4159,70,100,40
194.4159,194.84445,69,60,40
194.84445,195.27303,70,100,40
195.27303,195.7016,74,100,40
195.7016,196.05875,72,100,40
196.13017,196.55875,69,100,40
196.55875,196.91588,65,60,40
196.98732,197.41588,69,80,40
197.41588,197.84445,70,100,40
197.84445,198.27303,74,100,40
198.27303,198.63017,72,80,40
198.7016,199.13017,69,60,40
199.13017,199.4873,65,60,40
199.55875,200.41588,77,100,40
200.41588,200.84445,75,100,40
200.84445,201.2016,77,100,40
201.27303,201.7016,75,80,40
201.7016,202.05873,74,80,40
202.13017,202.77303,73,80,40
202.77303,202.88017,75,87,40
202.88017,202.9873,73,88,40
202.9873,203.41588,72,89,40
203.41588,203.77303,70,94,40
203.84445,204.72041,69,100,40
204.72041,205.09354,72,100,40
205.16817,205.61594,65,80,40
205.61594,206.0571,67,80,40
206.0571,206.41942,69,80,40
206.49188,206.92046,70,60,40
206.92046,207.34903,65,60,40
207.34903,207.70618,72,60,40
207.7776,208.09903,73,60,40
208.09903,208.1526,75,61,40
208.1526,208.20618,73,61,40
208.20618,208.63475,72,61,40
208.63475,208.99188,73,62,40
209.06331,209.92046,75,63,40
209.92046,210.2776,68,66,40
210.34903,210.77156,68,67,40
210.77156,211.19409,70,68,40
211.19409,211.5462,72,69,40
211.61664,212.03917,73,70,40
212.03917,212.39128,68,71,40
212.4617,212.81381,73,72,40
212.88423,213.19673,78,73,40
213.19673,213.24883,80,74,40
213.24883,213.3009,78,74,40
213.3009,213.71758,77,74,40
213.71758,214.06479,78,75,40
214.13423,215.38423,80,76,40
215.38423,216.98145,81,82,40
217.0509,217.46756,82,90,40
217.46756,217.88423,78,92,40
217.88423,218.30676,75,94,40
218.30676,218.7293,73,96,40
218.7293,219.0814,72,98,40
219.15184,219.72327,77,100,40
219.7947,220.00897,74,80,40
220.00897,220.2188,65,80,40
220.22327,220.43755,74,80,40
220.43755,221.00897,77,80,40
221.0804,221.2947,74,80,40
221.2947,221.50452,65,80,40
221.50897,221.72327,74,80,40
221.72327,221.93307,77,80,40
221.93755,222.15182,75,81,40
222.15182,222.36165,65,82,40
222.36612,222.5804,75,83,40
222.5804,222.79022,77,84,40
222.7947,223.00897,75,86,40
223.00897,223.2188,65,88,40
223.22325,223.43755,75,90,40
223.43755,223.64737,81,92,40
223.65182,223.86612,75,94,40
223.86612,224.07594,69,96,40
224.0804,224.2947,75,98,40
224.2947,226.00897,84,100,40
226.00897,226.36612,82,100,40
226.43755,226.79468,70,100,40
226.86612,228.5804,80,100,40
228.5804,228.93755,79,100,40
229.00897,229.8661,80,100,40
229.8661,230.22325,79,100,40
230.29468,230.72325,80,100,40
230.72325,231.15182,79,100,40
231.15182,231.5804,75,100,40
231.5804,231.93753,72,100,40
232.00896,232.44374,70,100,40
232.44374,232.87852,72,100,40
232.87852,233.24084,74,100,40
233.31331,234.19566,65,80,40
234.19566,234.56331,69,60,40
234.63684,235.00449,70,40,40
239.93095,240.51918,80,60,40
240.51918,240.66624,79,60,40
240.66624,240.81331,80,60,40
240.81331,240.96036,84,60,40
240.96036,241.10742,82,60,40
241.10742,241.25447,79,60,40
241.25447,241.40154,82,60,40
241.40154,241.5486,80,62,40
241.5486,241.83812,77,64,40
241.84271,241.98978,76,68,40
241.98978,242.13683,77,70,40
242.13683,242.28389,80,72,40
242.28389,242.43095,79,74,40
242.43095,242.578,73,76,40
242.578,242.72507,79,78,40
242.72507,242.87212,77,80,40
242.87212,243.16624,68,82,40
243.16624,243.3133,67,86,40
243.3133,243.46036,68,88,40
243.46036,243.60742,79,91,40
243.60742,243.75447,77,94,40
243.75447,243.89694,69,97,40
243.90154,244.48976,74,100,40
244.5633,244.78389,67,100,40
244.78389,244.94933,69,80,40
244.94933,245.00447,72,65,40
245.00447,245.22046,70,60,40
245.22507,245.59271,69,40,40
250.51918,251.1074,75,60,40
251.1074,251.25447,74,60,40
251.25447,251.40152,75,60,40
251.40152,251.54858,79,60,40
251.54858,251.69565,77,60,40
251.69565,251.8427,74,60,40
251.8427,251.98976,77,60,40
251.98976,252.13683,75,60,40
252.13683,252.42635,72,60,40
252.43094,252.578,71,60,40
252.578,252.72505,72,60,40
252.72505,252.87212,75,60,40
252.87212,253.01917,74,60,40
253.01917,253.16623,68,60,40
253.16623,253.3133,74,60,40
253.3133,253.46034,72,61,40
253.46034,253.74986,63,62,40
253.75447,253.90152,62,66,40
253.90152,254.04858,63,68,40
254.04858,254.19565,74,70,40
254.19565,254.3427,72,72,40
254.3427,254.48976,64,74,40
254.48976,254.63681,74,76,40
254.63681,254.78387,72,78,40
254.78387,255.0734,65,80,40
255.07799,255.22505,64,84,40
255.22505,255.37212,65,86,40
255.37212,255.51917,74,88,40
255.51917,255.66623,72,90,40
255.66623,255.80869,66,92,40
255.8133,255.96254,74,94,40
255.96254,256.1118,72,96,40
256.1118,256.25638,67,98,40
256.26105,256.4103,74,100,40
256.4103,256.55954,72,100,40
256.55954,256.93607,68,100,40
256.93607,257.15863,69,100,40
257.16336,257.39413,68,100,40
257.39413,257.6201,69,90,40
257.62488,257.86682,68,80,40
257.86682,258.10373,69,70,40
258.10876,258.35876,68,60,40
258.35876,258.60355,69,50,40
258.60876,259.25162,69,40,40
259.25162,259.46143,71,40,40
259.4659,259.82306,73,40,40
259.89447,261.07306,64,40,40
261.18018,261.82303,69,40,40
261.82303,262.03287,71,40,40
262.03732,262.39447,73,40,40
262.4659,263.64447,64,40,40
263.75162,264.39447,73,40,40
264.39447,264.60428,74,60,40
264.60876,264.9659,76,66,40
265.03732,266.68018,77,80,40
266.75162,267.07303,69,80,40
267.07303,267.18018,72,74,40
267.18018,267.53732,70,72,40
267.60876,268.78732,69,64,40
268.89447,269.53732,81,40,40
269.53732,269.74713,83,40,40
269.75162,270.10876,85,40,40
270.18018,271.35873,76,40,40
271.46588,272.10873,81,40,40
272.10873,272.31857,83,40,40
272.32303,272.68018,85,40,40
272.75162,273.93018,76,40,40
274.03732,274.68018,85,40,40
274.68018,274.88998,86,46,40
274.89447,275.2516,88,48,40
275.32303,276.5016,90,52,40
276.60873,277.2516,85,64,40
277.2516,277.46143,86,70,40
277.46588,277.82303,88,72,40
277.89447,279.07303,90,76,40
279.18018,279.82303,73,88,40
279.82303,280.03284,74,94,40
280.03732,280.39444,76,96,40
280.46588,282.18018,77,100,40
282.18018,282.60873,74,100,40
282.60873,282.96588,70,100,40
283.03732,283.89444,69,80,40
283.89444,284.2516,67,60,40
284.32303,284.96588,73,60,40
284.96588,285.1757,74,63,40
285.18018,285.5373,76,64,40
285.60873,287.10428,77,66,40
287.10873,287.32303,78,74,40
287.32303,287.5373,79,75,40
287.5373,287.7516,81,76,40
287.7516,287.96588,82,77,40
287.96588,288.1757,86,78,40
288.18015,288.84192,77,80,40
288.84192,289.05792,79,80,40
289.0625,289.4413,76,60,40
289.51706,289.8643,77,40,40
300.12515,300.32785,72,100,40
300.32785,300.52634,81,100,40
300.53055,301.0711,81,100,40
301.13867,301.34137,72,90,40
301.34137,301.54407,81,87,40
301.54407,301.74255,84,84,40
301.74677,302.3549,84,81,40
302.3549,302.45624,82,71,40
302.5576,302.89542,79,68,40
302.96298,303.50354,84,60,40
303.5711,303.7738,72,60,40
303.7738,303.9765,81,61,40
303.9765,304.175,89,62,40
304.1792,304.78732,89,63,40
304.78732,304.88867,88,66,40
304.99002,305.32785,79,67,40
305.39542,305.93594,91,69,40
306.00354,306.20624,81,72,40
306.20624,306.40894,89,73,40
306.40894,306.60742,93,74,40
306.61163,307.21973,93,75,40
307.21973,307.3211,91,78,40
307.42245,307.76028,93,79,40
307.82785,308.43594,93,81,40
308.43594,308.5373,91,84,40
308.63867,308.9765,86,85,40
309.04407,309.65216,89,87,40
309.65216,309.7535,81,90,40
309.85486,310.0576,81,91,40
310.0576,310.25604,82,92,40
310.26028,310.86838,82,93,40
310.86838,310.96973,79,96,40
311.07108,311.2738,79,97,40
311.2738,311.47226,80,98,40
311.4765,312.7265,80,100,40
312.7265,313.90506,80,60,40
314.0122,315.2979,65,60,40
314.0122,315.2979,68,60,40
315.2979,316.4765,65,40,40
315.2979,316.4765,68,40,40
316.58362,316.94077,65,40,40
316.58362,316.94077,69,40,40
317.2265,317.4363,69,60,40
317.44077,317.65506,69,60,40
317.65506,317.86487,70,60,40
317.86935,318.22647,70,60,40
318.5122,318.72202,70,60,40
318.72647,318.94077,70,60,40
318.94077,319.1506,72,60,40
319.15506,319.5122,72,60,40
319.7979,319.90506,72,60,40
320.0122,320.22647,72,66,40
320.22647,320.4363,77,73,40
320.44077,320.86935,77,80,40
320.86935,321.2979,76,80,40
321.2979,321.65506,70,60,40
321.72647,322.08362,69,60,40
322.36932,322.57916,69,60,40
322.58362,322.7979,69,60,40
322.7979,323.00772,70,60,40
323.0122,323.36932,70,60,40
323.65506,323.7622,70,60,40
323.86932,324.08362,70,64,40
324.08362,324.29346,72,68,40
324.2979,324.65506,72,72,40
324.94077,325.0479,72,85,40
325.15506,325.36932,72,90,40
325.36932,325.57916,81,95,40
325.58362,326.0122,81,100,40
326.0122,326.44077,79,80,40
326.44077,326.7979,72,60,40
326.86932,327.51218,72,40,40
327.51218,327.72202,74,40,40
327.72647,328.08362,72,40,40
328.15506,328.7979,72,40,40
328.7979,329.00772,77,40,40
329.01218,329.36932,72,40,40
329.44077,330.08362,72,40,40
330.08362,330.19077,74,43,40
330.2979,330.65503,72,44,40
330.72647,331.36932,72,46,40
331.36932,331.47647,81,49,40
331.58362,331.94077,72,50,40
332.01218,332.65503,72,52,40
332.65503,332.76218,74,55,40
332.86932,333.22647,72,56,40
333.2979,333.94077,73,58,40
333.94077,334.0479,74,61,40
334.15503,334.51218,77,62,40
334.58362,335.22647,75,64,40
335.22647,335.33362,76,67,40
335.44077,335.79788,81,68,40
335.86932,336.51218,78,70,40
336.51218,336.61932,79,74,40
336.72647,337.08362,84,75,40
337.36932,337.57913,84,80,40
337.58362,337.79788,84,80,40
337.79788,338.00772,72,80,40
338.01218,338.36932,72,80,40
338.652,338.8589,84,80,40
338.86328,339.07455,84,80,40
339.07455,339.28143,72,80,40
339.28583,339.63794,72,80,40
339.91962,340.1265,84,81,40
340.1309,340.34216,84,81,40
340.34216,340.549,72,81,40
340.55344,340.90555,72,81,40
341.1843,341.38828,84,82,40
341.39264,341.60095,84,82,40
341.60095,341.80496,72,82,40
341.8093,342.15652,72,82,40
342.4343,342.63828,84,83,40
342.64264,342.85095,84,83,40
342.85095,343.05496,72,84,40
343.0593,343.40652,72,85,40
343.68143,343.88263,86,88,40
343.8869,344.0924,86,89,40
344.0924,344.29358,74,90,40
344.29788,344.64035,74,91,40
344.9143,345.1155,86,94,40
345.11978,345.32526,86,95,40
345.32526,345.52646,74,96,40
345.53076,345.8732,74,97,40
346.1472,346.3484,84,100,40
346.35266,346.55814,84,100,40
346.55814,346.75934,72,100,40
346.7636,347.10608,72,100,40
347.38007,347.58127,84,100,40
347.58554,347.79102,84,94,40
347.79102,347.99222,72,88,40
347.9965,348.33896,72,81,40
348.61578,348.8198,72,60,40
348.82413,349.03244,72,60,40
349.03244,349.23645,60,60,40
349.24078,349.588,60,60,40
349.86578,350.06976,72,60,40
350.07413,350.28244,72,59,40
350.28244,350.48645,60,58,40
350.49078,350.838,60,57,40
351.1187,351.3256,72,52,40
351.33,351.54126,72,50,40
351.54126,351.7481,60,48,40
351.75253,352.10464,60,46,40
352.38632,352.5932,72,40,40
352.5976,353.44266,72,40,40
353.44266,354.62122,60,40,40
363.43243,363.86102,72,60,40
363.86102,364.28958,74,80,40
364.28958,364.71817,77,80,40
364.71817,365.14673,75,80,40
365.14673,365.5753,72,60,40
365.5753,365.93243,69,40,40
367.28958,367.71814,70,80,40
367.71814,368.14673,69,60,40
368.14673,368.50388,67,40,40
369.86102,370.28958,75,80,40
370.28958,370.71814,72,60,40
370.71814,371.0753,69,40,40
372.43243,372.861,74,60,40
372.861,373.28958,72,60,40
373.28958,373.64673,70,80,40
373.71814,374.14673,86,100,40
374.14673,374.5753,84,100,40
374.5753,375.00385,82,87,40
375.00385,375.361,81,74,40
375.43243,375.78958,80,60,40
377.361,377.5753,69,60,40
377.5753,377.78958,74,73,40
377.78958,377.9994,81,86,40
378.00385,378.361,71,100,40
378.00385,378.361,80,100,40
379.93243,380.1467,69,60,40
380.1467,380.361,74,80,40
380.361,380.57083,81,80,40
380.5753,380.93243,71,100,40
380.5753,380.93243,80,100,40
396.00385,396.4324,72,60,40
396.4324,396.861,69,60,40
396.861,397.2181,66,65,40
397.28955,397.7181,84,70,40
397.7181,398.1467,79,75,40
398.1467,398.50385,72,80,40
398.57526,399.00385,72,85,40
399.00385,399.4324,69,90,40
399.4324,399.78955,63,95,40
399.861,400.28955,84,100,40
400.28955,400.7181,79,100,40
400.7181,401.07526,72,100,40
401.1467,401.71365,84,100,40
401.7181,401.8565,83,100,40
401.86096,401.99936,84,100,40
402.00385,402.1467,87,100,40
402.1467,402.2851,86,100,40
402.28955,402.42795,82,100,40
402.4324,402.57526,86,100,40
402.57526,402.71365,84,100,40
402.7181,402.99936,81,100,40
403.00385,403.1422,80,100,40
403.1467,403.2851,81,100,40
403.28955,403.4324,84,100,40
403.4324,403.5708,82,100,40
403.57526,403.71365,79,100,40
403.7181,403.86096,82,100,40
403.86096,403.99936,81,100,40
404.00385,404.2851,75,100,40
404.28955,404.42795,74,100,40
404.4324,404.5708,75,100,40
404.57526,404.7181,81,100,40
404.7181,404.8565,79,100,40
404.86096,404.99936,70,100,40
405.00385,405.1467,79,100,40
405.1467,405.28506,78,96,40
405.28955,405.42795,69,92,40
405.4324,405.57526,81,88,40
405.57526,405.71365,79,84,40
405.7181,405.8565,70,80,40
405.86096,406.0038,79,75,40
406.0038,406.1422,78,70,40
406.1467,406.28506,69,65,40
406.28955,406.6467,71,60,40
406.9324,407.03955,71,60,40
407.1467,407.2538,71,61,40
407.36096,407.4681,72,62,40
407.57526,407.6824,72,63,40
407.78955,407.8967,74,64,40
408.2181,408.32526,74,66,40
408.4324,408.53955,74,67,40
408.6467,408.7538,75,68,40
408.86096,408.9681,75,69,40
409.07526,409.1824,77,70,40
409.5038,409.61096,77,72,40
409.7181,409.82526,77,73,40
409.9324,410.03955,78,74,40
410.14667,410.2538,78,76,40
410.36096,410.4681,79,78,40
410.78955,410.89667,67,82,40
411.0038,411.11096,67,84,40
411.2181,411.32526,78,86,40
411.4324,411.53955,78,88,40
411.64667,411.7538,79,90,40
411.86096,411.9681,67,92,40
412.07526,412.1824,78,94,40
412.28955,412.39667,78,96,40
412.5038,412.61096,79,98,40
412.7181,412.925,55,100,40
412.7181,412.925,67,100,40
412.82373,413.13623,73,100,40
412.82373,413.13623,76,100,40
413.2815,413.41794,76,100,40
413.42233,413.55878,76,100,40
413.56317,413.69962,76,100,40
413.704,413.84045,77,100,40
413.84488,413.98132,77,100,40
413.98572,414.12216,77,100,40
414.12656,414.263,79,100,40
414.2674,414.40384,79,100,40
414.5491,414.68555,79,100,40
414.68994,414.8264,79,100,40
414.83078,414.96722,79,100,40
414.97162,415.10806,80,100,40
415.1125,415.2489,80,100,40
415.25333,415.38788,80,100,40
415.3922,415.52676,82,100,40
415.5311,415.66565,82,100,40
415.80887,415.94342,82,100,40
415.94775,416.0823,82,100,40
416.08664,416.2212,82,100,40
416.22552,416.36008,83,100,40
416.36444,416.49896,83,100,40
416.50333,416.63788,83,100,40
416.6422,416.77676,84,100,40
416.7811,416.91565,84,100,40
417.05887,417.19342,72,100,40
417.19775,417.3323,72,100,40
417.33664,417.4712,72,100,40
417.47552,417.61008,83,100,40
417.6144,417.74896,83,100,40
417.75333,417.88785,83,100,40
417.8922,418.02676,84,100,40
418.0311,418.16565,84,100,40
418.30887,418.44342,72,100,40
418.44775,418.5823,72,100,40
418.58664,418.7212,72,100,40
418.72552,418.86008,83,100,40
418.8644,418.99896,83,100,40
419.00333,419.13602,83,100,40
419.1403,419.273,84,100,40
419.27728,419.41,84,100,40
419.41428,419.54697,84,100,40
419.55127,419.68396,84,100,40
419.68823,419.82095,84,100,40
419.82523,419.95795,84,100,40
419.96222,420.0949,84,100,40
420.0992,420.2319,84,100,40
420.23618,420.3689,84,100,40
420.37317,420.5059,84,100,40
420.51016,420.64285,84,100,40
420.64716,420.77985,84,100,40
420.78412,420.91684,84,100,40
420.9211,421.05383,84,100,40
421.0581,421.1908,84,100,40
421.1951,421.3278,84,100,40
421.33206,421.46478,84,100,40
421.46906,421.67307,67,100,40
421.46906,421.67307,76,100,40
421.5732,421.67307,84,100,40
425.29102,425.93387,76,60,40
425.93387,426.14368,78,60,40
426.14816,426.50528,79,60,40
426.57672,427.43387,72,60,40
427.43387,427.79102,71,40,40
427.86243,428.50528,76,60,40
428.50528,428.71512,78,60,40
428.71957,429.07672,79,60,40
429.14816,430.00528,72,60,40
430.00528,430.36243,71,40,40
430.43387,431.07672,76,60,40
431.07672,431.28653,78,60,40
431.29102,431.64813,79,64,40
431.71957,432.36243,79,73,40
432.36243,432.46957,81,86,40
432.57672,432.93387,82,90,40
433.00528,433.86243,81,100,40
433.86243,434.21957,77,100,40
434.291,434.93387,76,80,40
434.93387,435.14368,78,80,40
435.14813,435.50528,75,60,40
435.57672,435.93387,76,40,40
445.86243,446.50528,74,60,40
446.50528,446.7151,76,60,40
446.71957,447.0767,77,64,40
447.14813,447.791,77,73,40
447.791,447.89813,79,86,40
448.00528,448.36243,80,90,40
448.43384,449.291,82,100,40
449.291,449.64813,79,100,40
449.71954,450.5767,75,100,40
450.5767,450.93384,74,100,40
451.00528,452.291,74,100,40
452.291,453.14813,76,70,40
453.14813,453.5767,73,50,40
453.5767,453.93384,74,40,40
465.5767,466.00525,80,60,40
466.00525,466.43384,78,60,40
466.43384,466.79095,76,40,40
468.1481,468.5767,80,60,40
468.5767,469.00525,76,60,40
469.00525,469.3624,75,40,40
470.71954,471.1481,78,40,40
471.1481,471.50525,75,41,40
471.5767,473.21954,74,42,40
473.29095,473.71954,73,46,40
473.71954,474.07666,71,47,40
474.1481,474.3579,70,48,40
474.3624,474.7865,70,48,40
474.79095,475.21506,70,48,40
475.21954,475.64365,73,48,40
475.6481,476.0722,76,48,40
476.07666,476.5008,76,48,40
476.50525,476.92935,82,48,40
476.9338,477.3579,85,49,40
477.3624,477.7865,85,51,40
477.79095,478.00525,85,53,40
478.00525,478.21506,76,54,40
478.00525,478.21506,88,54,40
478.2195,478.64365,76,55,40
478.2195,478.64365,88,55,40
478.6481,479.0722,76,57,40
478.6481,479.0722,88,57,40
479.07666,479.29095,76,59,40
479.07666,479.29095,88,59,40
479.29095,479.50076,77,60,40
479.29095,479.50076,89,60,40
479.50525,479.92935,77,60,40
479.50525,479.92935,89,60,40
479.9338,480.3579,77,60,40
479.9338,480.3579,89,60,40
480.3624,480.7865,77,60,40
480.3624,480.7865,89,60,40
480.79095,481.21506,77,60,40
480.79095,481.21506,89,60,40
481.2195,481.64365,77,60,40
481.2195,481.64365,89,60,40
481.6481,481.8624,76,60,40
481.6481,481.8624,88,60,40
481.8624,482.0722,77,60,40
481.8624,482.0722,89,60,40
482.07666,482.50076,77,60,40
482.07666,482.50076,89,60,40
482.50525,482.7195,77,60,40
482.50525,482.7195,89,60,40
482.7195,482.92935,75,60,40
482.7195,482.92935,87,60,40
482.9338,483.1481,75,60,40
482.9338,483.1481,87,60,40
483.1481,483.3579,74,60,40
483.1481,483.3579,86,60,40
483.36237,483.7865,74,60,40
483.36237,483.7865,86,60,40
483.79095,484.00525,74,60,40
483.79095,484.00525,86,60,40
484.00525,484.21506,76,60,40
484.00525,484.21506,88,60,40
484.2195,484.4338,76,60,40
484.2195,484.4338,88,60,40
484.4338,484.64362,77,60,40
484.4338,484.64362,89,60,40
484.6481,485.0722,77,60,40
484.6481,485.0722,89,60,40
485.07666,485.50076,77,60,40
485.07666,485.50076,89,60,40
485.50525,485.7195,77,60,40
485.7195,485.92935,79,60,40
485.9338,486.3579,79,60,40
486.36237,486.5722,79,60,40
486.57666,486.78647,81,60,40
486.79095,487.00522,81,60,40
487.00522,487.21506,82,60,40
487.2195,487.64362,82,60,40
487.6481,487.86237,82,60,40
487.86237,488.0722,85,60,40
488.07666,488.29095,73,60,40
488.07666,488.29095,85,60,40
488.29095,488.50076,78,60,40
488.29095,488.50076,90,60,40
488.50522,488.92935,78,60,40
488.50522,488.92935,90,60,40
488.9338,489.1481,78,60,40
488.9338,489.1481,90,60,40
489.1481,489.3579,79,60,40
489.1481,489.3579,91,60,40
489.36237,489.57666,79,60,40
489.36237,489.57666,91,60,40
489.57666,489.78647,77,60,40
489.57666,489.78647,89,60,40
489.79095,490.21506,77,60,40
489.79095,490.21506,89,60,40
490.2195,490.64362,84,60,40
490.64807,490.8579,81,60,40
490.86237,491.29095,77,60,40
491.29095,491.7195,79,65,40
491.7195,492.07666,81,70,40
492.14807,492.57666,82,75,40
492.57666,492.9338,77,80,40
493.00522,493.4338,84,85,40
493.4338,493.86237,86,90,40
493.86237,494.29095,85,95,40
494.29095,495.89807,86,100,40
496.00522,496.4338,79,80,40
496.4338,496.86237,81,80,40
496.86237,497.2195,83,80,40
497.29092,497.7195,84,80,40
497.7195,498.07666,79,82,40
498.14807,498.57666,87,84,40
498.57666,499.00522,89,86,40
499.00522,499.43378,88,88,40
499.43378,501.04092,89,90,40
501.14807,501.57666,82,100,40
501.57666,502.00522,84,100,40
502.00522,502.36237,86,100,40
502.43378,502.86237,87,100,40
502.86237,503.2195,82,100,40
503.29092,503.7195,89,100,40
503.7195,504.14807,91,100,40
504.14807,504.57663,90,100,40
504.57663,504.93378,91,100,40
505.00522,505.32663,93,100,40
505.32663,505.38022,94,100,40
505.38022,505.43378,93,100,40
505.43378,505.86237,92,100,40
505.86237,506.2195,93,100,40
506.29092,506.7195,94,100,40
506.7195,507.14807,91,100,40
507.14807,507.35788,87,100,40
507.36237,507.43378,86,100,40
507.43378,507.50522,87,100,40
507.50522,507.57663,89,100,40
507.57663,508.00522,87,100,40
508.00522,508.43378,86,100,40
508.43378,508.79092,84,100,40
508.86237,509.43378,89,100,40
509.93378,510.14807,86,80,40
510.14807,510.71948,89,80,40
511.21948,511.43378,86,60,40
511.43378,511.79092,89,60,40
512.07666,512.2909,87,60,40
512.2909,512.6481,89,64,40
512.9338,513.1481,87,77,40
513.1481,513.5052,93,81,40
513.7909,514.0052,93,95,40
514.0052,515.7195,96,100,40
515.7195,516.07666,94,100,40
516.1481,516.5052,82,100,40
516.57666,518.2909,92,100,40
518.2909,518.6481,91,100,40
518.7195,519.5766,92,100,40
519.5766,519.9338,91,100,40
520.0052,520.4338,92,100,40
520.4338,520.86237,91,100,40
520.86237,521.2909,87,100,40
521.2909,521.6481,84,100,40
521.7195,522.15424,82,100,40
522.15424,522.58905,77,100,40
522.58905,522.95135,74,100,40
523.0238,523.9062,77,80,40
523.9062,524.2738,69,60,40
524.34735,524.715,70,40,40
529.6415,530.2297,80,60,40
530.2297,530.3768,79,60,40
530.3768,530.5238,80,60,40
530.5238,530.6709,84,60,40
530.6709,530.81793,82,60,40
530.81793,530.965,79,60,40
530.965,531.11206,82,60,40
531.11206,531.2591,80,60,40
531.2591,531.54865,74,60,40
531.5532,531.7003,73,60,40
531.7003,531.84735,74,60,40
531.84735,531.9944,79,60,40
531.9944,532.1415,77,60,40
532.1415,532.28394,68,60,40
532.2885,532.4356,75,60,40
532.4356,532.58264,74,60,40
532.58264,532.7251,65,60,40
532.7297,532.8768,74,60,40
532.8768,533.0238,72,60,40
533.0238,533.16626,63,60,40
533.1709,533.31793,62,60,40
533.31793,533.46497,65,60,40
533.46497,533.6075,74,60,40
533.61206,533.7591,75,60,40
533.7591,533.9062,72,60,40
533.9062,534.04865,63,60,40
534.0532,534.2003,62,60,40
534.2003,534.34735,65,60,40
534.34735,534.4898,74,60,40
534.4944,534.6415,75,60,40
534.6415,534.7885,72,60,40
534.7885,534.93097,63,60,40
534.9356,535.3032,62,60,40
540.2297,540.81793,80,60,40
540.81793,540.96497,79,60,40
540.96497,541.11206,80,60,40
541.11206,541.2591,84,60,40
541.2591,541.4062,82,60,40
541.4062,541.5532,79,60,40
541.5532,541.70026,82,60,40
541.70026,541.84735,80,60,40
541.84735,542.13684,77,60,40
542.1415,542.2885,76,60,40
542.2885,542.43555,77,60,40
542.43555,542.58264,80,60,40
542.58264,542.7297,79,60,40
542.7297,542.8768,73,60,40
542.8768,543.0238,79,60,40
543.0238,543.17084,77,60,40
543.17084,543.4604,68,60,40
543.46497,543.61206,67,60,40
543.61206,543.7591,68,60,40
543.7591,543.9062,79,60,40
543.9062,544.0532,77,63,40
544.0532,544.20026,69,66,40
544.20026,544.34735,79,69,40
544.34735,544.4944,77,72,40
544.4944,544.78394,70,75,40
544.7885,544.93555,69,81,40
544.93555,545.08264,70,84,40
545.08264,545.2297,79,88,40
545.2297,545.3768,77,92,40
545.3768,545.5192,71,96,40
545.5238,545.66876,79,100,40
545.66876,545.81366,77,100,40
545.81366,545.95404,72,100,40
545.9586,546.1035,79,100,40
546.1035,546.2484,77,100,40
546.2484,546.61395,73,100,40
546.61395,546.82996,74,100,40
546.83453,547.0653,73,100,40
547.0653,547.29126,74,90,40
547.2961,547.5461,73,80,40
547.5461,547.7909,74,70,40
547.7961,548.0688,73,60,40
548.0688,548.3359,74,50,40
548.34155,548.9844,74,40,40
548.9844,549.1942,76,40,40
549.19867,549.55585,78,40,40
549.62726,550.80585,69,40,40
550.91296,551.55585,74,40,40
551.55585,551.7701,76,40,40
551.7701,552.12726,78,40,40
552.19867,553.37726,69,40,40
553.4844,554.12726,78,40,40
554.12726,554.3371,79,60,40
554.34155,554.69867,81,66,40
554.7701,556.41296,82,80,40
556.4844,556.8058,74,80,40
556.8058,556.91296,77,65,40
556.91296,557.2701,75,60,40
557.34155,558.5201,74,40,40
558.62726,559.2701,86,40,40
559.2701,559.4799,88,42,40
559.4844,559.84155,90,42,40
559.91296,561.09155,81,43,40
561.19867,561.84155,86,47,40
561.84155,562.05133,88,49,40
562.0558,562.41296,90,49,40
562.4844,563.66296,81,50,40
563.7701,564.41296,78,55,40
564.41296,564.62274,79,57,40
564.62726,564.9844,81,57,40
565.0558,566.2344,83,58,40
566.3415,566.9844,78,63,40
566.9844,567.1942,79,65,40
567.19867,567.5558,81,66,40
567.62726,568.8058,83,68,40
568.91296,569.5558,78,74,40
569.5558,569.7656,79,77,40
569.7701,570.12726,81,78,40
570.19867,571.6942,82,80,40
571.69867,571.91296,78,80,40
571.91296,572.12726,79,80,40
572.12726,572.3415,74,80,40
572.3415,572.5558,75,80,40
572.5558,572.7656,67,80,40
572.7701,573.6272,70,80,40
573.6272,573.9844,69,60,40
574.0558,574.69867,78,60,40
574.69867,574.90845,79,66,40
574.91296,575.2701,81,68,40
575.3415,576.83704,82,72,40
576.8415,577.0558,83,88,40
577.0558,577.2701,84,90,40
577.2701,577.4844,86,92,40
577.4844,577.69867,87,94,40
577.69867,577.90845,91,97,40
577.91296,578.5558,82,100,40
578.5558,578.7656,84,100,40
578.7701,579.1272,81,80,40
579.19867,579.5508,82,60,40
590.0672,590.2755,65,100,40
590.2755,590.4795,74,100,40
590.4838,591.0318,74,100,40
591.1003,591.3058,65,95,40
591.3058,591.5112,74,94,40
591.5112,591.71246,77,93,40
591.71674,592.3331,77,92,40
592.3331,592.53436,75,86,40
592.53864,592.8811,72,84,40
592.9496,593.49756,77,80,40
593.56604,593.7715,65,80,40
593.7715,593.977,74,80,40
593.977,594.17816,82,80,40
594.1825,594.7989,82,80,40
594.7989,594.9017,81,81,40
595.0044,595.34686,72,81,40
595.41534,595.9559,84,82,40
596.02344,596.22614,70,83,40
596.22614,596.42883,82,83,40
596.42883,596.6273,86,83,40
596.63153,597.2397,86,83,40
597.2397,597.341,84,85,40
597.4424,597.7802,86,85,40
597.8478,598.4559,86,86,40
598.4559,598.55725,84,88,40
598.65857,598.9964,79,88,40
599.06396,599.6721,82,89,40
599.6721,599.77344,74,91,40
599.8748,600.0775,74,92,40
600.0775,600.276,75,93,40
600.2802,600.89667,75,94,40
600.89667,600.9994,72,97,40
601.1021,601.3076,72,98,40
601.3076,601.5088,73,99,40
601.51306,602.76306,73,100,40
602.76306,603.92505,73,60,40
604.0307,605.3164,61,60,40
605.3164,606.5296,61,40,40
606.6399,606.9971,62,40,40
607.2828,607.3899,74,60,40
607.4971,607.71136,74,60,40
607.71136,607.92114,75,60,40
607.92566,608.2828,75,60,40
608.5685,608.67566,75,60,40
608.7828,608.9971,75,60,40
608.9971,609.2069,77,60,40
609.21136,609.5685,77,60,40
609.8542,609.96136,77,60,40
610.0685,610.2828,77,73,40
610.2828,610.4926,82,86,40
610.4971,610.92566,82,100,40
610.92566,611.3542,81,80,40
611.3542,611.71136,75,60,40
611.7828,612.1399,74,60,40
612.4256,612.5328,74,60,40
612.6399,612.8542,74,60,40
612.8542,613.064,75,60,40
613.0685,613.4256,75,60,40
613.71136,613.8185,75,60,40
613.9256,614.1399,75,64,40
614.1399,614.34973,77,68,40
614.3542,614.71136,77,72,40
614.9971,615.1042,77,85,40
615.21136,615.4256,77,90,40
615.4256,615.63544,86,95,40
615.6399,616.0685,86,100,40
616.0685,616.4971,84,80,40
616.4971,616.8542,77,60,40
616.9256,617.5685,77,40,40
617.5685,617.7783,79,40,40
617.7828,618.1399,77,40,40
618.21136,618.8542,77,40,40
618.8542,619.064,82,40,40
619.0685,619.4256,77,40,40
619.4971,620.1399,77,40,40
620.1399,620.34973,79,43,40
620.3542,620.71136,77,44,40
620.7828,621.4256,77,46,40
621.4256,621.63544,86,49,40
621.6399,621.9971,77,50,40
622.0685,622.7113,77,52,40
622.7113,622.92114,79,55,40
622.9256,623.2828,77,56,40
623.3542,623.9971,78,58,40
623.9971,624.1042,79,61,40
624.2113,624.5685,82,62,40
624.6399,625.2828,80,64,40
625.2828,625.3899,81,67,40
625.4971,625.8542,86,68,40
625.9256,626.5685,83,70,40
626.5685,626.6756,84,74,40
626.7828,627.1399,89,75,40
627.4256,627.63544,89,80,40
627.6399,627.8542,89,80,40
627.8542,628.064,77,80,40
628.0685,628.4256,77,80,40
628.7113,628.92114,89,80,40
628.9256,629.1399,89,80,40
629.1399,629.34973,77,80,40
629.3542,629.7113,77,80,40
629.997,630.20685,89,81,40
630.2113,630.4256,89,81,40
630.4256,630.63544,77,81,40
630.6399,630.997,77,81,40
631.2828,631.49255,89,82,40
631.497,631.7113,89,82,40
631.7113,631.92114,77,82,40
631.9256,632.2828,77,82,40
632.5685,632.77826,89,83,40
632.7828,632.997,89,83,40
632.997,633.20685,77,83,40
633.2113,633.5685,77,83,40
633.8542,634.064,91,84,40
634.0685,634.2828,91,84,40
634.2828,634.49255,79,84,40
634.497,634.8542,79,85,40
635.1399,635.34973,91,88,40
635.3542,635.5685,91,89,40
635.5685,635.77826,79,90,40
635.7828,636.1399,79,91,40
636.4256,636.63544,89,94,40
636.6399,636.8542,89,95,40
636.8542,637.064,77,96,40
637.0685,637.4256,77,97,40
637.7113,637.92114,89,100,40
637.9256,638.1399,89,100,40
638.1399,638.34973,77,80,40
638.3542,638.7113,77,60,40
638.997,639.20685,77,60,40
639.2113,639.4256,77,60,40
639.4256,639.63544,65,60,40
639.6399,639.997,65,60,40
640.2827,640.49255,77,60,40
640.497,640.7113,77,60,40
640.7113,640.92114,65,60,40
640.9256,641.2827,65,60,40
641.5685,641.77826,77,60,40
641.7827,641.997,77,60,40
641.997,642.20685,65,60,40
642.2113,642.5685,65,60,40
642.8542,643.06396,77,40,40
643.0685,643.9256,77,40,40
643.9256,645.1042,65,40,40
655.0684,655.4256,67,100,40
655.497,657.1399,65,100,40
657.2113,657.6399,64,100,40
657.6399,658.0684,63,100,40
658.0684,658.497,62,100,40
658.497,658.9256,60,100,40
658.9256,659.3541,59,100,40
659.3541,659.7827,58,100,40
659.7827,660.1399,57,100,40
661.497,661.9256,81,100,40
661.9256,662.3541,82,100,40
662.3541,662.7827,86,100,40
662.7827,663.2113,84,100,40
663.2113,663.6399,81,100,40
663.6399,663.997,77,100,40
664.0684,664.497,81,100,40
664.497,664.9256,82,100,40
664.9256,665.3541,86,100,40
665.3541,665.7827,84,100,40
665.7827,666.2113,81,100,40
666.2113,666.5684,77,100,40
666.63983,667.0684,80,100,40
667.0684,667.497,79,100,40
667.497,667.8541,75,100,40
667.9256,668.3541,78,100,40
668.3541,668.7827,77,100,40
668.7827,669.13983,74,100,40
669.2113,669.63983,76,100,40
669.63983,670.0684,73,100,40
670.0684,670.497,70,100,40
670.497,670.8541,67,100,40
670.9256,671.36035,66,100,40
671.36035,671.7951,63,80,40
671.7951,672.1575,60,60,40
672.2299,672.6777,66,80,40
672.6777,673.1254,63,80,40
673.1254,673.4986,60,60,40
673.5732,674.0347,66,60,40
674.0347,674.4963,65,60,40
674.4963,674.8809,63,40,40
674.9578,675.434,63,40,40
675.434,675.9102,62,40,40
675.9102,676.307,60,40,40
676.38635,676.80304,58,40,40
692.5078,692.83417,74,100,40
692.8411,693.2083,65,100,40
692.8411,693.3958,69,100,40
693.0286,693.3958,77,100,40
693.5911,693.9583,62,100,40
693.5911,694.1458,70,100,40
693.7786,694.1458,82,100,40
175.3693,175.73161,57,40,45
175.3693,175.73161,65,40,45
178.41916,178.7868,60,40,45
178.41916,178.7868,69,40,45
354.72836,355.0907,57,40,45
354.72836,355.0907,65,40,45
357.77823,358.14587,60,40,45
357.77823,358.14587,69,40,45
360.00388,360.36102,62,40,45
360.00388,360.36102,69,40,45
645.2113,645.5685,62,60,45
645.2113,645.5685,70,60,45
677.38635,677.80304,58,60,45
677.38635,677.80304,62,60,45
677.88635,678.30304,57,60,45
677.88635,678.30304,63,60,45
678.88635,679.30304,57,60,45
678.88635,679.30304,63,60,45
679.38635,679.80304,57,60,45
679.38635,679.80304,64,60,45
680.38635,680.80304,57,60,45
680.38635,680.80304,64,60,45
680.88635,681.30304,57,60,45
680.88635,681.30304,65,60,45
681.38635,681.63116,57,60,45
681.38635,681.63116,66,60,45
681.63635,681.88116,67,60,45
681.88635,682.13116,57,60,45
681.88635,682.13116,65,60,45
682.13635,682.38116,63,60,45
682.38635,682.80304,58,60,45
682.38635,682.80304,62,60,45
683.13635,683.38116,74,60,45
683.38635,683.63116,74,60,45
683.63635,683.88116,75,60,45
683.88635,684.30304,75,60,45
684.63635,684.88116,75,60,45
684.88635,685.13116,75,60,45
685.13635,685.38116,76,60,45
685.38635,685.80304,76,60,45
686.13635,686.38116,77,69,45
686.38635,686.63116,69,72,45
686.38635,686.63116,77,72,45
686.63635,686.88116,78,75,45
686.88635,687.13116,69,78,45
686.88635,687.13116,78,78,45
687.13635,687.38116,79,81,45
687.38635,687.63116,69,84,45
687.38635,687.63116,79,84,45
687.63635,687.88116,80,88,45
687.88635,688.13116,69,92,45
687.88635,688.13116,80,92,45
688.13635,688.38116,81,96,45
688.38635,688.81744,62,100,45
688.38635,688.81744,70,100,45
688.38635,688.81744,82,100,45
689.16223,689.41547,74,100,45
689.42084,689.8519,65,96,45
689.42084,689.8519,69,96,45
689.42084,689.8519,77,96,45
689.9381,690.39264,65,87,45
689.9381,690.39264,74,87,45
690.7563,691.0233,62,74,45
691.029,691.4836,57,70,45
691.029,691.4836,65,70,45
691.57446,692.07446,58,60,45
691.57446,692.07446,62,60,45
12.895136,13.336312,57,80,40
13.336312,13.771094,58,80,40
13.771094,14.128237,60,80,40
14.199665,14.413951,62,60,40
14.413951,14.628236,65,60,40
14.628236,14.842522,62,60,40
14.842522,15.056807,65,60,40
15.056807,15.271092,60,60,40
15.271092,15.485378,65,60,40
15.485378,15.699663,58,60,40
15.699663,15.913949,65,60,40
15.913949,16.128235,58,60,40
16.128235,16.34252,65,60,40
16.34252,16.556805,67,60,40
16.556805,16.766626,63,60,40
16.771091,16.985376,60,60,40
16.985376,17.199661,65,60,40
17.199661,17.413948,57,60,40
17.413948,17.628233,60,60,40
17.628233,17.842518,65,60,40
17.842518,18.056805,60,60,40
18.056805,18.27109,65,60,40
18.27109,18.485374,58,60,40
18.485374,18.699661,65,60,40
18.699661,18.913946,70,60,40
18.913946,19.128231,67,60,40
19.128231,19.338053,63,60,40
19.342518,19.556803,60,60,40
19.556803,19.771088,65,60,40
19.771088,19.985374,57,60,40
19.985374,20.19966,65,60,40
20.19966,20.413944,69,60,40
20.413944,20.62823,65,60,40
20.62823,20.842516,70,60,40
20.842516,21.0568,65,60,40
21.0568,21.271086,70,60,40
21.271086,21.485373,65,60,40
21.485373,21.699657,72,60,40
21.699657,21.90948,65,60,40
21.913942,22.12823,70,60,40
22.12823,22.342514,65,63,40
22.342514,22.556799,70,66,40
22.556799,22.771086,65,69,40
22.771086,22.98537,70,72,40
22.98537,23.199656,66,75,40
23.199656,23.413942,70,78,40
23.413942,23.628227,66,81,40
23.628227,23.842512,72,84,40
23.842512,24.056799,66,88,40
24.056799,24.271084,67,92,40
24.271084,24.480906,61,96,40
24.485369,24.70276,65,100,40
24.70276,24.92015,60,100,40
24.92015,25.14074,65,92,40
25.14074,25.361326,60,84,40
25.361326,25.585207,57,76,40
25.585207,25.809088,60,68,40
25.809088,26.028305,65,60,40
26.032969,26.472841,65,60,40
26.477436,26.910887,65,60,40
26.915417,27.342628,65,60,40
27.347092,27.771198,65,60,40
27.775663,28.19977,65,60,40
28.204235,28.628342,65,60,40
28.632805,29.056911,65,60,40
29.061377,29.485483,65,60,40
29.489948,29.704233,65,60,40
29.704233,29.914055,68,60,40
29.918518,30.342625,68,60,40
30.34709,30.771196,68,60,40
30.77566,31.196812,68,60,40
31.201214,31.619347,68,60,40
31.623749,32.04188,68,61,40
32.046284,32.464417,68,63,40
32.46882,32.88695,68,65,40
32.891354,33.309486,68,67,40
33.31389,33.525154,68,69,40
33.525154,33.72915,70,69,40
33.73349,34.145813,70,70,40
34.150154,34.56248,70,72,40
34.566822,34.775154,70,74,40
34.775154,34.979145,73,75,40
34.983486,35.395813,73,76,40
35.400154,35.812477,73,78,40
35.81682,36.02515,73,80,40
36.02515,36.229145,69,81,40
36.02515,36.229145,75,81,40
36.233486,36.64581,69,82,40
36.233486,36.64581,75,82,40
36.65015,37.062477,69,84,40
36.65015,37.062477,75,84,40
37.06682,37.27081,69,86,40
37.06682,37.27081,75,86,40
37.27515,37.483482,75,87,40
37.483482,37.691814,69,88,40
37.691814,37.90015,73,89,40
37.90015,38.108482,70,90,40
38.108482,38.316814,73,91,40
38.316814,38.52081,66,92,40
38.525146,38.736416,70,93,40
38.736416,38.94768,63,94,40
38.94768,39.15895,70,95,40
39.15895,39.370216,61,96,40
39.370216,39.581486,70,97,40
39.581486,39.788353,60,98,40
39.79275,40.00704,62,100,40
40.00704,40.221325,65,100,40
40.221325,40.431145,70,100,40
41.078465,41.29275,62,80,40
41.29275,41.50704,65,80,40
41.50704,41.716858,71,80,40
42.364178,42.578465,63,80,40
42.578465,42.79275,65,80,40
42.79275,43.00257,72,80,40
45.364178,45.792747,56,60,40
45.792747,46.221317,57,60,40
46.221317,46.57846,58,60,40
47.9356,48.364174,61,60,40
48.364174,48.792744,62,63,40
48.792744,49.542744,63,66,40
49.649887,50.078457,64,73,40
49.649887,50.078457,70,73,40
50.078457,50.828457,65,76,40
50.078457,50.828457,70,76,40
50.9356,51.36417,66,84,40
50.9356,51.36417,70,84,40
51.36417,52.11417,67,88,40
51.36417,52.11417,70,88,40
52.221313,52.578453,63,96,40
52.649883,53.084663,62,100,40
53.084663,53.519447,63,100,40
53.519447,53.881763,65,100,40
53.954227,54.836582,62,80,40
54.836582,55.204227,60,60,40
55.277756,56.16011,62,60,40
56.16011,56.527756,60,60,40
56.601284,57.04246,62,80,40
57.04246,57.48364,65,80,40
57.48364,57.851284,63,60,40
57.924812,58.36599,60,80,40
58.36599,58.807163,63,80,40
58.807163,59.174812,62,60,40
59.24834,60.13069,58,80,40
60.13069,60.49834,60,60,40
60.57187,60.939514,60,40,40
64.54245,65.130684,64,120,40
64.54245,65.130684,70,120,40
65.204216,65.424805,64,80,40
65.424805,65.64539,65,74,40
65.64539,65.86139,67,67,40
65.86598,66.74834,69,60,40
66.74834,67.11598,67,60,40
67.18951,67.630684,69,80,40
67.630684,68.07186,72,80,40
68.07186,68.43951,70,60,40
68.51304,68.954216,67,80,40
68.954216,69.395386,70,80,40
69.395386,69.76304,69,60,40
69.83656,70.71892,65,80,40
70.71892,71.08656,67,60,40
71.160095,71.52774,67,40,40
79.24968,79.89254,61,40,40
79.89254,80.102356,62,40,40
80.10682,80.46397,64,40,40
80.53539,81.71397,61,40,40
81.821106,82.46396,61,40,40
82.46396,82.67378,62,40,40
82.678246,83.03539,64,40,40
83.10682,84.28539,61,40,40
84.39253,85.035385,69,40,40
85.035385,85.24521,71,60,40
85.24967,85.60682,73,66,40
85.678246,86.535385,74,80,40
86.535385,87.3211,65,80,40
87.39253,87.8211,65,80,40
87.8211,88.178246,67,72,40
88.24967,89.42824,65,64,40
89.535385,90.17824,73,40,40
90.17824,90.38806,74,40,40
90.392525,90.74967,76,40,40
90.8211,91.999664,73,40,40
92.10681,92.749664,73,40,40
92.749664,92.95949,74,40,40
92.96395,93.32109,76,40,40
93.392525,94.57109,73,40,40
94.67824,95.32109,69,40,40
95.32109,95.530914,71,46,40
95.53538,95.89252,73,48,40
95.96395,97.14252,69,52,40
97.249664,97.89252,69,64,40
97.89252,98.10234,71,70,40
98.106804,98.46394,73,72,40
98.53538,99.71394,69,76,40
99.82109,100.46394,69,88,40
100.46394,100.67377,71,94,40
100.67823,101.03537,73,96,40
101.106804,101.856804,72,100,40
101.96394,102.82108,65,100,40
102.82108,103.24966,66,100,40
103.24966,103.6068,67,80,40
103.67823,104.8568,72,60,40
104.96394,106.14251,69,60,40
106.24966,107.42822,75,66,40
107.53536,108.17822,74,73,40
108.17822,108.39251,72,76,40
108.39251,108.6068,70,77,40
108.6068,108.81661,67,78,40
108.821075,109.70343,60,80,40
108.821075,109.70343,65,80,40
109.70343,110.08222,60,60,40
109.70343,110.08222,64,60,40
110.29687,110.43575,60,40,40
110.43575,110.57464,69,40,40
110.57464,110.71353,72,40,40
110.71353,110.85242,60,40,40
110.85242,110.99131,69,40,40
110.99131,111.1953,72,40,40
111.54686,111.68575,60,40,40
111.68575,111.82464,67,40,40
111.82464,111.96353,72,40,40
111.96353,112.10242,60,40,40
112.10242,112.2413,67,40,40
112.2413,112.4453,72,40,40
112.793106,112.928246,60,40,40
112.928246,113.06338,69,40,40
113.06338,113.19851,72,40,40
113.19851,113.33365,60,40,40
113.33365,113.46878,69,41,40
113.46878,113.66726,72,42,40
114.00932,114.144455,60,45,40
114.144455,114.279594,67,46,40
114.279594,114.41473,72,47,40
114.41473,114.549866,60,48,40
114.549866,114.685,70,49,40
114.685,114.88348,76,50,40
115.22554,115.36067,62,53,40
115.36067,115.495804,69,54,40
115.495804,115.63094,74,55,40
115.63094,115.766075,62,56,40
115.766075,115.901215,69,57,40
115.901215,116.09969,74,58,40
116.44175,116.57689,65,61,40
116.57689,116.71202,74,62,40
116.71202,116.84716,77,63,40
116.84716,116.98229,65,64,40
116.98229,117.117424,74,65,40
117.117424,117.31591,77,66,40
117.65797,117.7931,65,69,40
117.7931,117.92824,74,70,40
117.92824,118.06337,77,71,40
118.06337,118.19851,65,72,40
118.19851,118.33364,74,73,40
118.33364,118.53212,79,74,40
118.87418,119.009315,69,77,40
119.009315,119.144455,77,78,40
119.144455,119.27959,81,79,40
119.27959,119.41472,69,80,40
119.41472,119.54986,72,81,40
119.54986,119.74834,77,82,40
120.0904,120.22553,67,87,40
120.22553,120.360664,76,88,40
120.360664,120.495804,79,89,40
120.495804,120.630936,67,90,40
120.630936,120.766075,70,91,40
120.766075,120.964554,76,92,40
121.30661,121.44175,60,100,40
121.44175,121.57688,69,100,40
121.57688,121.71201,72,100,40
121.71201,121.84715,60,100,40
121.84715,121.982285,69,100,40
121.982285,122.18076,72,100,40
122.52283,122.65796,60,80,40
122.65796,122.7931,67,80,40
122.7931,122.92823,72,80,40
122.92823,123.06337,60,80,40
123.06337,123.1985,67,80,40
123.1985,123.39698,72,80,40
123.739044,123.874176,60,60,40
123.874176,124.009315,69,60,40
124.009315,124.14445,72,60,40
124.14445,124.27958,60,60,40
124.27958,124.41472,69,60,40
124.41472,124.6132,72,60,40
124.95525,125.09039,60,60,40
125.09039,125.225525,67,60,40
125.225525,125.360664,72,60,40
125.360664,125.4958,60,60,40
125.4958,125.630936,70,60,40
125.630936,125.829414,76,60,40
126.17147,126.30661,62,62,40
126.30661,126.44174,69,62,40
126.44174,126.57687,74,62,40
126.57687,126.71201,62,62,40
126.71201,126.847145,69,62,40
126.847145,127.04562,74,62,40
127.38769,127.52282,65,65,40
127.52282,127.65796,74,66,40
127.65796,127.79309,77,67,40
127.79309,127.92823,65,68,40
127.92823,128.06335,74,69,40
128.06335,128.26184,77,69,40
128.6039,128.73904,65,72,40
128.73904,128.87418,74,73,40
128.87418,129.00931,77,74,40
129.00931,129.14444,65,75,40
129.14444,129.27957,74,76,40
129.27957,129.47806,81,77,40
129.82011,129.95525,69,80,40
129.95525,130.0904,77,81,40
130.0904,130.22552,81,82,40
130.22552,130.36066,69,83,40
130.36066,130.49579,72,84,40
130.49579,130.69427,77,85,40
131.03633,131.17146,67,89,40
131.17146,131.3066,76,90,40
131.3066,131.44174,79,91,40
131.44174,131.57687,67,92,40
131.57687,131.712,70,93,40
131.712,131.91049,76,94,40
132.11742,132.2563,68,100,40
132.2563,132.39519,77,100,40
132.39519,132.53407,68,95,40
132.53407,132.67297,77,90,40
132.67297,132.81186,68,85,40
132.81186,132.95074,77,80,40
132.95074,133.08963,68,75,40
133.08963,133.22852,77,70,40
133.22852,133.36742,68,65,40
133.36742,133.51027,77,60,40
133.51027,133.65312,68,60,40
133.65312,133.79597,77,60,40
133.79597,133.93884,68,60,40
133.93884,134.0817,77,60,40
134.0817,134.22455,68,60,40
134.22455,134.36742,77,60,40
134.36742,134.51027,68,60,40
134.51027,134.64865,77,60,40
134.65312,134.79597,65,60,40
134.79597,134.93884,68,58,40
134.93884,135.0817,65,56,40
135.0817,135.22455,68,54,40
135.22455,135.3674,65,52,40
135.3674,135.51027,68,50,40
135.51027,135.65312,65,48,40
135.65312,135.79597,68,46,40
135.79597,135.93884,65,43,40
135.93884,136.0817,68,40,40
136.0817,136.22455,65,40,40
136.22455,136.3674,68,40,40
136.3674,136.51027,65,40,40
136.51027,136.65312,68,40,40
136.65312,136.79597,65,40,40
136.79597,136.93883,68,40,40
136.93883,137.0817,65,40,40
137.0817,137.22008,68,40,40
137.22455,137.5817,65,40,40
137.22455,137.5817,69,40,40
137.8674,138.07722,65,60,40
138.0817,138.29597,65,60,40
138.29597,138.5058,67,60,40
138.51027,138.8674,67,60,40
139.15312,139.36295,67,60,40
139.3674,139.5817,67,60,40
139.5817,139.7915,69,60,40
139.79597,140.15312,69,60,40
140.43883,140.54597,69,60,40
140.65312,141.01025,69,66,40
141.0817,141.93883,70,80,40
141.93883,142.29597,64,60,40
142.3674,142.72455,65,60,40
143.01025,143.22008,65,60,40
143.22455,143.43883,65,60,40
143.43883,143.64865,67,60,40
143.6531,144.01025,67,60,40
144.29597,144.4031,67,60,40
144.51025,144.72455,67,64,40
144.72455,144.93436,69,68,40
144.93883,145.29597,69,72,40
145.58168,145.68883,69,85,40
145.79597,146.01025,69,90,40
146.01025,146.22008,72,95,40
146.22453,147.08168,72,100,40
147.08168,147.43883,64,60,40
147.51025,147.93883,81,40,40
147.93883,148.3674,79,40,40
148.3674,148.72453,72,40,40
158.43881,158.64864,70,80,40
158.65309,158.86739,70,80,40
158.86739,159.07721,60,80,40
159.08167,159.43378,60,80,40
159.71547,159.92233,69,80,40
159.92674,160.138,69,80,40
160.138,160.34488,60,80,40
160.34927,160.70139,60,80,40
160.98308,161.18994,67,81,40
161.19435,161.40561,67,81,40
161.40561,161.61247,60,81,40
161.61688,161.9641,60,81,40
162.24188,162.44588,66,82,40
162.45021,162.65854,66,82,40
162.65854,162.86253,60,82,40
162.86688,163.2141,60,82,40
163.49188,163.69588,67,83,40
163.70021,163.90854,67,83,40
163.90854,164.11253,60,83,40
164.11688,164.45934,59,83,40
164.7333,164.93451,68,85,40
164.9388,165.14427,68,86,40
165.14427,165.34547,59,87,40
165.34975,165.69221,59,88,40
165.96619,166.16739,68,91,40
166.17166,166.37715,68,92,40
166.37715,166.57834,59,93,40
166.58263,166.9251,60,94,40
167.19907,167.40025,67,97,40
167.40454,167.61002,67,98,40
167.61002,167.81122,60,99,40
167.81549,168.0167,60,100,40
167.81549,168.43193,69,100,40
167.91824,168.43193,77,100,40
168.43193,168.63313,69,80,40
168.63742,168.97987,72,60,40
170.29837,170.92337,65,92,40
170.92337,171.12737,57,54,40
171.1317,171.47893,60,52,40
171.54837,172.18217,65,48,40
172.18217,172.38904,57,42,40
172.39343,172.74554,60,40,40
175.3693,176.23886,65,60,40
176.23886,176.67363,64,60,40
176.67363,177.10841,65,60,40
177.10841,177.5432,69,60,40
177.5432,177.90552,67,60,40
177.97798,178.86034,63,60,40
178.86034,179.30151,62,60,40
179.30151,179.74927,63,60,40
179.74927,180.19704,67,60,40
180.19704,180.57016,65,60,40
192.25421,192.69539,57,80,40
192.69539,193.13017,58,80,40
193.13017,193.48732,60,80,40
193.55875,193.77303,62,60,40
193.77303,193.98732,65,60,40
193.98732,194.2016,62,60,40
194.2016,194.4159,65,60,40
194.4159,194.63017,60,60,40
194.63017,194.84445,65,60,40
194.84445,195.05875,58,60,40
195.05875,195.27303,65,60,40
195.27303,195.48732,58,60,40
195.48732,195.7016,65,60,40
195.7016,195.9159,67,60,40
195.9159,196.1257,63,60,40
196.13017,196.34445,60,60,40
196.34445,196.55875,65,60,40
196.55875,196.77303,57,60,40
196.77303,196.98732,60,60,40
196.98732,197.2016,65,60,40
197.2016,197.41588,60,60,40
197.41588,197.63017,65,60,40
197.63017,197.84445,58,60,40
197.84445,198.05875,65,60,40
198.05875,198.27303,70,60,40
198.27303,198.48732,67,60,40
198.48732,198.69713,63,60,40
198.7016,198.91588,60,60,40
198.91588,199.13017,65,60,40
199.13017,199.34445,57,60,40
199.34445,199.55875,65,60,40
199.55875,199.77303,69,60,40
199.77303,199.9873,65,60,40
199.9873,200.2016,70,60,40
200.2016,200.41588,65,60,40
200.41588,200.63017,70,60,40
200.63017,200.84445,65,60,40
200.84445,201.05873,72,60,40
201.05873,201.26855,65,60,40
201.27303,201.4873,70,60,40
201.4873,201.7016,65,63,40
201.7016,201.91588,70,66,40
201.91588,202.13017,65,69,40
202.13017,202.34445,70,72,40
202.34445,202.55873,66,75,40
202.55873,202.77303,70,78,40
202.77303,202.9873,66,81,40
202.9873,203.2016,72,84,40
203.2016,203.41588,66,88,40
203.41588,203.63016,67,92,40
203.63016,203.83998,61,96,40
203.84445,204.06184,65,100,40
204.06184,204.27924,60,100,40
204.27924,204.49982,65,92,40
204.49982,204.72041,60,84,40
204.72041,204.94429,57,76,40
204.94429,205.16817,60,68,40
205.16817,205.38739,65,60,40
205.39204,205.83192,65,60,40
205.83652,206.26997,65,60,40
206.27449,206.7017,65,60,40
206.70618,207.13028,65,60,40
207.13475,207.55885,65,60,40
207.56331,207.98743,65,60,40
207.99188,208.416,65,60,40
208.42046,208.84456,65,60,40
208.84903,209.06331,65,60,40
209.06331,209.27313,68,60,40
209.2776,209.7017,68,60,40
209.70618,210.13028,68,60,40
210.13474,210.5559,68,60,40
210.56029,210.97842,68,60,40
210.98283,211.40097,68,61,40
211.40536,211.8235,68,63,40
211.8279,212.24603,68,65,40
212.25043,212.66856,68,67,40
212.67297,212.88423,68,69,40
212.88423,213.08823,70,69,40
213.09258,213.5049,70,70,40
213.50923,213.92155,70,72,40
213.9259,214.13423,70,74,40
214.13423,214.33823,73,75,40
214.34258,214.7549,73,76,40
214.75923,215.17155,73,78,40
215.1759,215.38423,73,80,40
215.38423,215.58823,69,81,40
215.38423,215.58823,75,81,40
215.59256,216.0049,69,82,40
215.59256,216.0049,75,82,40
216.00923,216.42155,69,84,40
216.00923,216.42155,75,84,40
216.4259,216.6299,69,86,40
216.4259,216.6299,75,86,40
216.63423,216.84256,75,87,40
216.84256,217.0509,69,88,40
217.0509,217.25923,73,89,40
217.25923,217.46756,70,90,40
217.46756,217.6759,73,91,40
217.6759,217.87988,66,92,40
217.88423,218.09549,70,93,40
218.09549,218.30676,63,94,40
218.30676,218.51804,70,95,40
218.51804,218.7293,61,96,40
218.7293,218.94057,70,97,40
218.94057,219.14743,60,98,40
219.15184,219.36612,62,100,40
219.36612,219.5804,65,100,40
219.5804,219.79022,70,100,40
220.43755,220.65182,62,80,40
220.65182,220.86612,65,80,40
220.86612,221.07594,71,80,40
221.72327,221.93755,63,80,40
221.93755,222.15182,65,80,40
222.15182,222.36165,72,80,40
224.72325,225.15182,56,60,40
225.15182,225.5804,57,60,40
225.5804,225.93755,58,60,40
227.29468,227.72325,61,60,40
227.72325,228.15182,62,63,40
228.15182,228.90182,63,66,40
229.00897,229.43753,64,73,40
229.00897,229.43753,70,73,40
229.43753,230.18753,65,76,40
229.43753,230.18753,70,76,40
230.29468,230.72325,66,84,40
230.29468,230.72325,70,84,40
230.72325,231.47325,67,88,40
230.72325,231.47325,70,88,40
231.5804,231.93753,63,96,40
232.00896,232.44374,62,100,40
232.44374,232.87852,63,100,40
232.87852,233.24084,65,100,40
233.31331,234.19566,62,80,40
234.19566,234.56331,60,60,40
234.63684,235.5192,62,60,40
235.5192,235.88684,60,60,40
235.96037,236.40154,62,80,40
236.40154,236.84271,65,80,40
236.84271,237.21036,63,60,40
237.28389,237.72507,60,80,40
237.72507,238.16624,63,80,40
238.16624,238.53389,62,60,40
238.60742,239.48978,58,80,40
239.48978,239.85742,60,60,40
239.93095,240.2986,60,40,40
243.90154,244.48976,64,120,40
243.90154,244.48976,70,120,40
244.5633,244.78389,64,80,40
244.78389,245.00447,65,74,40
245.00447,245.22046,67,67,40
245.22507,246.1074,69,60,40
246.1074,246.47507,67,60,40
246.54858,246.98976,69,80,40
246.98976,247.43094,72,80,40
247.43094,247.79858,70,60,40
247.87212,248.3133,67,80,40
248.3133,248.75447,70,80,40
248.75447,249.12212,69,60,40
249.19565,250.078,65,80,40
250.078,250.44565,67,60,40
250.51918,250.88683,67,40,40
258.60876,259.25162,61,40,40
259.25162,259.46143,62,40,40
259.4659,259.82306,64,40,40
259.89447,261.07306,61,40,40
261.18018,261.82303,61,40,40
261.82303,262.03287,62,40,40
262.03732,262.39447,64,40,40
262.4659,263.64447,61,40,40
263.75162,264.39447,69,40,40
264.39447,264.60428,71,60,40
264.60876,264.9659,73,66,40
265.03732,265.89447,74,80,40
265.89447,266.68018,65,80,40
266.75162,267.18018,65,80,40
267.18018,267.53732,67,72,40
267.60876,268.78732,65,64,40
268.89447,269.53732,73,40,40
269.53732,269.74713,74,40,40
269.75162,270.10876,76,40,40
270.18018,271.35873,73,40,40
271.46588,272.10873,73,40,40
272.10873,272.31857,74,40,40
272.32303,272.68018,76,40,40
272.75162,273.93018,73,40,40
274.03732,274.68018,69,40,40
274.68018,274.88998,71,46,40
274.89447,275.2516,73,48,40
275.32303,276.5016,69,52,40
276.60873,277.2516,69,64,40
277.2516,277.46143,71,70,40
277.46588,277.82303,73,72,40
277.89447,279.07303,69,76,40
279.18018,279.82303,69,88,40
279.82303,280.03284,71,94,40
280.03732,280.39444,73,96,40
280.46588,281.21588,72,100,40
281.32303,282.18018,65,100,40
282.18018,282.60873,66,100,40
282.60873,282.96588,67,80,40
283.03732,284.21588,72,60,40
284.32303,285.5016,69,60,40
285.60873,286.7873,75,66,40
286.89444,287.5373,74,73,40
287.5373,287.7516,72,76,40
287.7516,287.96588,70,77,40
287.96588,288.1757,67,78,40
288.18015,289.0625,60,80,40
288.18015,289.0625,65,80,40
289.0625,289.4413,60,60,40
289.0625,289.4413,64,60,40
289.65594,289.79483,60,40,40
289.79483,289.93372,69,40,40
289.93372,290.0726,72,40,40
290.0726,290.2115,60,40,40
290.2115,290.3504,69,40,40
290.3504,290.55438,72,40,40
290.90594,291.04483,60,40,40
291.04483,291.18372,67,40,40
291.18372,291.3226,72,40,40
291.3226,291.4615,60,40,40
291.4615,291.60037,67,40,40
291.60037,291.80438,72,40,40
292.1522,292.28732,60,40,40
292.28732,292.42245,69,40,40
292.42245,292.5576,72,40,40
292.5576,292.69272,60,40,40
292.69272,292.82785,69,41,40
292.82785,293.02634,72,42,40
293.3684,293.50354,60,45,40
293.50354,293.63867,67,46,40
293.63867,293.7738,72,47,40
293.7738,293.90894,60,48,40
293.90894,294.04407,70,49,40
294.04407,294.24255,76,50,40
294.58463,294.71976,62,53,40
294.71976,294.8549,69,54,40
294.8549,294.99002,74,55,40
294.99002,295.12515,62,56,40
295.12515,295.26028,69,57,40
295.26028,295.45877,74,58,40
295.80084,295.93597,65,61,40
295.93597,296.0711,74,62,40
296.0711,296.20624,77,63,40
296.20624,296.34137,65,64,40
296.34137,296.4765,74,65,40
296.4765,296.675,77,66,40
297.01706,297.1522,65,69,40
297.1522,297.28732,74,70,40
297.28732,297.42245,77,71,40
297.42245,297.5576,65,72,40
297.5576,297.69272,74,73,40
297.69272,297.8912,79,74,40
298.23328,298.3684,69,77,40
298.3684,298.50354,77,78,40
298.50354,298.63867,81,79,40
298.63867,298.7738,69,80,40
298.7738,298.90894,72,81,40
298.90894,299.10742,77,82,40
299.44946,299.58463,67,87,40
299.58463,299.71976,76,88,40
299.71976,299.8549,79,89,40
299.8549,299.99002,67,90,40
299.99002,300.12515,70,91,40
300.12515,300.32364,76,92,40
300.66568,300.80084,60,100,40
300.80084,300.93597,69,100,40
300.93597,301.0711,72,100,40
301.0711,301.20624,60,100,40
301.20624,301.34137,69,100,40
301.34137,301.53986,72,100,40
301.8819,302.01703,60,80,40
302.01703,302.1522,67,80,40
302.1522,302.28732,72,80,40
302.28732,302.42245,60,80,40
302.42245,302.5576,67,80,40
302.5576,302.75607,72,80,40
303.0981,303.23325,60,60,40
303.23325,303.3684,69,60,40
303.3684,303.50354,72,60,40
303.50354,303.63867,60,60,40
303.63867,303.7738,69,60,40
303.7738,303.9723,72,60,40
304.31433,304.44946,60,60,40
304.44946,304.5846,67,60,40
304.5846,304.71976,72,60,40
304.71976,304.8549,60,60,40
304.8549,304.99002,70,60,40
304.99002,305.1885,76,60,40
305.53055,305.66568,62,62,40
305.66568,305.8008,69,62,40
305.8008,305.93594,74,62,40
305.93594,306.0711,62,62,40
306.0711,306.20624,69,62,40
306.20624,306.4047,74,62,40
306.74677,306.8819,65,65,40
306.8819,307.01703,74,66,40
307.01703,307.15216,77,67,40
307.15216,307.28732,65,68,40
307.28732,307.42245,74,69,40
307.42245,307.6209,77,69,40
307.96298,308.0981,65,72,40
308.0981,308.23325,74,73,40
308.23325,308.36838,77,74,40
308.36838,308.5035,65,75,40
308.5035,308.63867,74,76,40
308.63867,308.83713,81,77,40
309.1792,309.31433,69,80,40
309.31433,309.44946,77,81,40
309.44946,309.5846,81,82,40
309.5846,309.71973,69,83,40
309.71973,309.85486,72,84,40
309.85486,310.05334,77,85,40
310.39542,310.53055,67,89,40
310.53055,310.66568,76,90,40
310.66568,310.8008,79,91,40
310.8008,310.93594,67,92,40
310.93594,311.07108,70,93,40
311.07108,311.26956,76,94,40
311.4765,311.6154,68,100,40
311.6154,311.75427,77,100,40
311.75427,311.89316,68,95,40
311.89316,312.03204,77,90,40
312.03204,312.17093,68,85,40
312.17093,312.3098,77,80,40
312.3098,312.4487,68,75,40
312.4487,312.58762,77,70,40
312.58762,312.7265,68,65,40
312.7265,312.86935,77,60,40
312.86935,313.0122,68,60,40
313.0122,313.15506,77,60,40
313.15506,313.2979,68,60,40
313.2979,313.44077,77,60,40
313.44077,313.58362,68,60,40
313.58362,313.7265,77,60,40
313.7265,313.86935,68,60,40
313.86935,314.00775,77,60,40
314.0122,314.15506,65,60,40
314.15506,314.2979,68,58,40
314.2979,314.44077,65,56,40
314.44077,314.58362,68,54,40
314.58362,314.7265,65,52,40
314.7265,314.86935,68,50,40
314.86935,315.0122,65,48,40
315.0122,315.15506,68,46,40
315.15506,315.2979,65,43,40
315.2979,315.44077,68,40,40
315.44077,315.58362,65,40,40
315.58362,315.7265,68,40,40
315.7265,315.86935,65,40,40
315.86935,316.0122,68,40,40
316.0122,316.15506,65,40,40
316.15506,316.2979,68,40,40
316.2979,316.44077,65,40,40
316.44077,316.57916,68,40,40
316.58362,316.94077,65,40,40
316.58362,316.94077,69,40,40
317.2265,317.4363,65,60,40
317.44077,317.65506,65,60,40
317.65506,317.86487,67,60,40
317.86935,318.22647,67,60,40
318.5122,318.72202,67,60,40
318.72647,318.94077,67,60,40
318.94077,319.1506,69,60,40
319.15506,319.5122,69,60,40
319.7979,319.90506,69,60,40
320.0122,320.36935,69,66,40
320.44077,321.2979,70,80,40
321.2979,321.65506,64,60,40
321.72647,322.08362,65,60,40
322.36932,322.57916,65,60,40
322.58362,322.7979,65,60,40
322.7979,323.00772,67,60,40
323.0122,323.36932,67,60,40
323.65506,323.7622,67,60,40
323.86932,324.08362,67,64,40
324.08362,324.29346,69,68,40
324.2979,324.65506,69,72,40
324.94077,325.0479,69,85,40
325.15506,325.36932,69,90,40
325.36932,325.57916,72,95,40
325.58362,326.44077,72,100,40
326.44077,326.7979,64,60,40
326.86932,327.2979,81,40,40
327.2979,327.72647,79,40,40
327.72647,328.08362,72,40,40
337.79788,338.00772,70,80,40
338.01218,338.22647,70,80,40
338.22647,338.43628,60,80,40
338.44077,338.79288,60,80,40
339.07455,339.28143,69,80,40
339.28583,339.4971,69,80,40
339.4971,339.70395,60,80,40
339.70834,340.06046,60,80,40
340.34216,340.549,67,81,40
340.55344,340.76468,67,81,40
340.76468,340.97156,60,81,40
340.97595,341.32318,60,81,40
341.60095,341.80496,66,82,40
341.8093,342.01764,66,82,40
342.01764,342.22162,60,82,40
342.22595,342.57318,60,82,40
342.85095,343.05496,67,83,40
343.0593,343.26764,67,83,40
343.26764,343.47162,60,83,40
343.47595,343.81842,59,83,40
344.0924,344.29358,68,85,40
344.29788,344.50336,68,86,40
344.50336,344.70456,59,87,40
344.70883,345.0513,59,88,40
345.32526,345.52646,68,91,40
345.53076,345.73624,68,92,40
345.73624,345.93744,59,93,40
345.9417,346.28418,60,94,40
346.55814,346.75934,67,97,40
346.7636,346.9691,67,98,40
346.9691,347.1703,60,99,40
347.1746,347.37576,60,100,40
347.1746,347.79102,69,100,40
347.2773,347.79102,77,100,40
347.79102,347.99222,69,80,40
347.9965,348.33896,72,60,40
349.65744,350.28244,65,92,40
350.28244,350.48645,57,54,40
350.49078,350.838,60,52,40
350.90744,351.54126,65,48,40
351.54126,351.7481,57,42,40
351.75253,352.10464,60,40,40
354.72836,355.59793,65,60,40
355.59793,356.0327,64,60,40
356.0327,356.4675,65,60,40
356.4675,356.90228,69,60,40
356.90228,357.2646,67,60,40
357.33707,358.21942,63,60,40
358.21942,358.66058,62,60,40
358.66058,359.10837,63,60,40
359.10837,359.55612,67,60,40
359.55612,359.92926,65,60,40
360.00388,360.36102,62,60,40
375.43243,376.28958,76,100,40
376.28958,376.71814,75,80,40
376.71814,377.14673,76,100,40
377.14673,377.5753,79,100,40
377.5753,377.93243,77,80,40
378.00385,378.43243,74,80,40
378.43243,378.78958,71,60,40
381.43243,381.861,77,80,40
381.861,382.28958,74,60,40
382.28958,382.6467,71,40,40
384.00385,384.43243,72,80,40
384.43243,384.861,71,60,40
384.861,385.21814,69,40,40
386.5753,387.00385,77,80,40
387.00385,387.43243,74,60,40
387.43243,387.78955,71,40,40
389.1467,389.5753,76,80,40
389.5753,390.00385,74,60,40
390.00385,390.361,72,40,40
391.71814,392.1467,79,60,40
392.1467,392.57526,76,60,40
392.57526,392.9324,73,62,40
394.28955,394.71814,77,70,40
394.71814,395.1467,76,72,40
395.1467,395.50385,74,74,40
396.861,397.28955,84,83,40
397.28955,397.7181,79,85,40
397.7181,398.07526,72,88,40
399.4324,399.861,84,100,40
399.861,400.28955,79,100,40
400.28955,400.6467,72,100,40
401.1467,401.50385,69,100,40
401.78955,401.8967,69,100,40
402.00385,402.11096,69,100,40
402.2181,402.32526,67,100,40
402.4324,402.53955,67,100,40
402.6467,402.75385,66,100,40
403.07526,403.1824,72,100,40
403.28955,403.3967,72,100,40
403.50385,403.61096,70,100,40
403.7181,403.82526,70,100,40
403.9324,404.03955,69,96,40
404.36096,404.4681,75,88,40
404.57526,404.6824,75,84,40
404.78955,404.8967,76,80,40
405.00385,405.11096,76,76,40
405.2181,405.32526,74,72,40
405.4324,405.53955,70,68,40
405.6467,405.7538,76,64,40
405.86096,405.9681,76,60,40
406.07526,406.1824,74,60,40
406.5038,406.61096,62,60,40
406.7181,406.82526,59,61,40
406.9324,407.03955,55,62,40
407.1467,407.2538,63,63,40
407.36096,407.4681,55,64,40
407.78955,407.8967,65,66,40
408.0038,408.11096,62,67,40
408.2181,408.32526,55,68,40
408.4324,408.53955,67,69,40
408.6467,408.7538,55,70,40
409.07526,409.1824,71,72,40
409.28955,409.3967,62,73,40
409.5038,409.61096,55,74,40
409.7181,409.82526,72,75,40
409.9324,410.03955,60,76,40
410.36096,410.4681,71,78,40
410.57526,410.6824,62,80,40
410.78955,410.89667,55,82,40
411.0038,411.11096,72,84,40
411.2181,411.32526,60,86,40
411.4324,411.53955,67,88,40
411.64667,411.7538,55,90,40
411.86096,411.9681,72,92,40
412.07526,412.1824,60,94,40
412.28955,412.39667,67,96,40
412.5038,412.61096,55,98,40
412.7181,412.925,55,100,40
412.7181,413.13623,67,100,40
412.82373,413.13623,73,100,40
413.704,413.84045,60,100,40
413.84488,413.98132,60,100,40
413.98572,414.12216,60,100,40
414.12656,414.263,64,100,40
414.2674,414.40384,64,100,40
414.40823,414.54468,64,100,40
414.5491,414.68555,72,100,40
414.68994,414.8264,72,100,40
414.97162,415.10806,60,100,40
415.1125,415.2489,60,100,40
415.25333,415.38788,60,100,40
415.3922,415.52676,67,100,40
415.5311,415.66565,67,100,40
415.66998,415.80453,67,100,40
415.80887,415.94342,72,100,40
415.94775,416.0823,72,100,40
416.22552,416.36008,65,100,40
416.36444,416.49896,65,100,40
416.50333,416.63788,65,100,40
416.6422,416.77676,72,100,40
416.7811,416.91565,72,100,40
416.91998,417.05453,72,100,40
417.05887,417.19342,79,100,40
417.19775,417.3323,79,100,40
417.47552,417.61008,65,100,40
417.6144,417.74896,65,100,40
417.75333,417.88785,65,100,40
417.8922,418.02676,72,100,40
418.0311,418.16565,72,100,40
418.16998,418.30453,72,100,40
418.30887,418.44342,79,100,40
418.44775,418.5823,79,100,40
418.72552,418.86008,65,100,40
418.8644,418.99896,65,100,40
419.00333,419.13602,65,100,40
419.1403,419.273,72,100,40
419.27728,419.41,72,100,40
419.41428,419.54697,72,100,40
419.55127,419.68396,79,100,40
419.68823,419.82095,79,100,40
419.82523,419.95795,79,100,40
419.96222,420.0949,79,100,40
420.0992,420.2319,79,100,40
420.23618,420.3689,79,100,40
420.37317,420.5059,79,100,40
420.51016,420.64285,79,100,40
420.64716,420.77985,79,100,40
420.78412,420.91684,79,100,40
420.9211,421.05383,79,100,40
421.0581,421.1908,79,100,40
421.1951,421.3278,79,100,40
421.33206,421.46478,79,100,40
421.46906,421.67307,63,100,40
421.46906,421.67307,72,100,40
421.5732,421.67307,79,100,40
425.29102,425.93387,67,60,40
425.93387,426.14368,69,60,40
426.14816,426.50528,71,60,40
426.57672,427.43387,64,60,40
427.43387,427.79102,63,40,40
427.86243,428.50528,67,60,40
428.50528,428.71512,69,60,40
428.71957,429.07672,71,60,40
429.14816,430.00528,64,60,40
430.00528,430.36243,63,40,40
430.43387,431.07672,67,60,40
431.07672,431.28653,69,60,40
431.29102,431.64813,70,64,40
431.71957,432.36243,72,73,40
432.36243,432.57227,76,86,40
432.57672,432.93387,79,90,40
433.00528,433.86243,77,100,40
433.86243,434.21957,72,100,40
434.291,435.14813,71,80,40
435.14813,435.50528,69,60,40
435.57672,435.93387,67,40,40
447.14813,447.791,68,60,40
447.791,448.0008,70,60,40
448.00528,448.36243,72,73,40
448.43384,449.291,73,100,40
449.291,449.64813,70,100,40
449.71954,450.5767,72,100,40
450.5767,450.93384,71,100,40
451.00528,451.43384,69,100,40
451.43384,451.8624,65,90,40
451.8624,452.291,62,80,40
452.291,453.14813,61,70,40
453.14813,453.5767,67,50,40
453.5767,453.93384,65,40,40
465.5767,466.00525,76,60,40
466.00525,466.43384,75,60,40
466.43384,466.79095,73,40,40
468.1481,468.5767,76,60,40
468.5767,469.00525,73,60,40
469.00525,469.3624,71,60,40
470.71954,471.1481,75,60,40
471.1481,471.50525,71,60,40
471.5767,474.04095,65,60,40
474.1481,474.3579,66,60,40
474.3624,474.7865,66,60,40
474.79095,475.21506,66,60,40
475.21954,475.64365,66,60,40
475.6481,476.0722,66,60,40
476.07666,476.5008,66,60,40
476.50525,476.92935,73,60,40
476.9338,477.3579,76,60,40
477.3624,477.7865,76,60,40
477.79095,478.00525,76,60,40
478.00525,478.21506,73,60,40
478.2195,478.64365,73,60,40
478.6481,479.0722,73,60,40
479.07666,479.29095,73,60,40
479.29095,479.50076,74,60,40
479.50525,479.92935,74,60,40
479.9338,480.1481,74,60,40
480.1481,480.3579,72,60,40
480.3624,480.57666,72,60,40
480.57666,480.7865,74,60,40
480.79095,481.00525,74,60,40
481.00525,481.21506,70,60,40
481.2195,481.4338,70,60,40
481.4338,481.64365,67,60,40
481.6481,481.8624,67,60,40
481.8624,482.0722,72,60,40
482.07666,482.29095,72,60,40
482.29095,482.50076,69,60,40
482.50525,482.7195,69,60,40
482.7195,482.92935,72,60,40
482.9338,483.1481,72,60,40
483.1481,483.3579,74,60,40
483.36237,483.57666,74,60,40
483.57666,483.7865,70,60,40
483.79095,484.00525,70,60,40
484.00525,484.21506,67,60,40
484.2195,484.4338,67,60,40
484.4338,484.64362,72,60,40
484.6481,484.86237,72,60,40
484.86237,485.0722,69,60,40
485.07666,485.50076,69,60,40
485.50525,485.7195,69,60,40
485.7195,485.92935,70,60,40
485.9338,486.3579,70,60,40
486.36237,486.57666,70,60,40
486.57666,486.78647,72,60,40
486.79095,487.00522,72,60,40
487.00522,487.21506,70,60,40
487.2195,487.64362,70,60,40
487.6481,488.0722,70,60,40
488.07666,488.29095,70,60,40
488.29095,488.50076,82,60,40
488.50522,488.92935,82,60,40
488.9338,489.1481,82,60,40
489.1481,489.3579,73,60,40
489.36237,489.57666,73,60,40
489.57666,489.78647,72,60,40
489.79095,490.21506,72,60,40
490.2195,490.64362,72,60,40
490.64807,490.8579,72,60,40
490.86237,491.29095,69,60,40
491.29095,491.7195,70,64,40
491.7195,492.07666,72,68,40
492.14807,492.57666,74,72,40
492.57666,492.9338,77,76,40
493.00522,493.4338,81,80,40
493.4338,493.86237,82,85,40
493.86237,494.29095,81,90,40
494.29095,494.64807,82,95,40
494.7195,495.14807,74,100,40
495.14807,495.57666,73,100,40
494.7195,495.89807,83,100,40
495.57666,495.9338,74,80,40
496.00522,496.4338,71,80,40
496.4338,496.86237,72,80,40
496.86237,497.2195,74,80,40
497.29092,497.7195,75,80,40
497.7195,498.07666,79,80,40
498.14807,498.57666,72,80,40
498.57666,499.00522,74,80,40
499.00522,499.43378,73,80,40
499.43378,499.79092,74,80,40
499.86237,500.29092,74,100,40
499.86237,500.29092,77,100,40
500.29092,500.7195,73,100,40
500.29092,500.7195,76,100,40
500.7195,501.07666,74,80,40
500.7195,501.07666,77,80,40
501.14807,501.57666,70,100,40
501.57666,502.00522,82,100,40
502.00522,502.36237,80,100,40
502.43378,502.86237,79,100,40
502.86237,503.2195,77,100,40
503.29092,503.7195,70,100,40
503.7195,504.4695,76,100,40
504.57663,505.00522,76,100,40
505.00522,505.75522,75,100,40
505.86237,506.29092,72,100,40
506.29092,506.7195,70,100,40
506.7195,507.14807,71,100,40
507.14807,507.50522,72,100,40
507.57663,508.00522,79,100,40
508.00522,508.43378,77,100,40
508.43378,508.79092,76,100,40
508.86237,509.43378,77,100,40
509.50522,509.71948,74,80,40
509.71948,509.92932,65,80,40
509.93378,510.14807,74,80,40
510.14807,510.71948,77,80,40
510.79092,511.00522,74,60,40
511.00522,511.21503,65,60,40
511.21948,511.43378,74,60,40
511.43378,511.64362,77,60,40
511.64807,511.86237,75,60,40
511.86237,512.07214,65,60,40
512.07666,512.2909,75,60,40
512.2909,512.50073,77,60,40
512.5052,512.7195,75,60,40
512.7195,512.9293,65,66,40
512.9338,513.1481,75,72,40
513.1481,513.3579,81,79,40
513.36237,513.57666,75,86,40
513.57666,513.78644,69,93,40
513.7909,515.7195,75,100,40
514.0052,515.7195,84,100,40
515.7195,516.07666,74,100,40
515.7195,516.07666,82,100,40
516.1481,516.5052,70,100,40
516.57666,518.2195,77,100,40
516.57666,518.2195,80,100,40
518.2909,518.6481,75,100,40
518.2909,518.6481,79,100,40
518.7195,519.5766,70,100,40
518.7195,519.5766,80,100,40
519.5766,519.9338,70,100,40
519.5766,519.9338,79,100,40
520.0052,520.4338,70,100,40
520.0052,520.4338,80,100,40
520.4338,520.86237,70,100,40
520.4338,520.86237,79,100,40
520.86237,521.2909,75,100,40
521.2909,521.6481,72,100,40
521.7195,522.15424,70,100,40
522.15424,522.58905,72,100,40
522.58905,522.95135,70,100,40
523.0238,524.1268,65,80,40
524.1268,524.3428,63,80,40
524.34735,525.22974,62,60,40
525.22974,525.59735,60,60,40
525.6709,526.11206,62,80,40
526.11206,526.5532,65,80,40
526.5532,526.9209,63,60,40
526.9944,527.4356,60,80,40
527.4356,527.8768,63,80,40
527.8768,528.2444,62,60,40
528.31793,528.7591,57,80,40
528.7591,529.2003,58,80,40
529.2003,529.56793,60,80,40
529.6415,530.0091,62,60,40
534.9356,535.81793,62,60,40
535.81793,536.0385,61,60,40
536.0385,536.2545,62,70,40
536.2591,536.4797,68,80,40
536.4797,536.70026,67,80,40
536.70026,536.9209,62,80,40
536.9209,537.1415,63,80,40
537.1415,537.36206,66,80,40
537.36206,537.57806,65,80,40
537.58264,537.8032,59,80,40
537.8032,538.0238,60,80,40
538.0238,538.2444,63,80,40
538.2444,538.6856,62,80,40
538.6856,538.90155,61,80,40
538.9062,539.34735,60,80,40
539.34735,539.7885,58,67,40
539.7885,540.1562,60,54,40
540.2297,540.59735,60,40,40
548.34155,548.9844,66,40,40
548.9844,549.1942,67,40,40
549.19867,549.55585,69,40,40
549.62726,550.80585,66,40,40
550.91296,551.55585,66,40,40
551.55585,551.7656,67,40,40
551.7701,552.12726,69,40,40
552.19867,553.37726,66,40,40
553.4844,554.12726,74,40,40
554.12726,554.3371,76,60,40
554.34155,554.69867,78,66,40
554.7701,555.62726,79,80,40
555.62726,556.41296,70,80,40
556.4844,556.91296,70,80,40
556.91296,557.2701,72,60,40
557.34155,558.5201,70,40,40
558.62726,559.2701,78,40,40
559.2701,559.4799,79,42,40
559.4844,559.84155,81,42,40
559.91296,561.09155,78,43,40
561.19867,561.84155,78,47,40
561.84155,562.05133,79,49,40
562.0558,562.41296,81,49,40
562.4844,563.66296,78,50,40
563.7701,564.41296,74,55,40
564.41296,564.62274,76,57,40
564.62726,564.9844,78,57,40
565.0558,566.2344,74,58,40
566.3415,566.9844,74,63,40
566.9844,567.1942,76,65,40
567.19867,567.5558,78,66,40
567.62726,568.8058,74,68,40
568.91296,569.5558,74,74,40
569.5558,569.7656,76,77,40
569.7701,570.12726,78,78,40
570.19867,570.94867,77,80,40
571.0558,571.8415,70,80,40
571.91296,572.2701,71,80,40
572.3415,572.69867,72,80,40
572.7701,573.6272,70,80,40
573.6272,573.9844,69,60,40
574.2701,574.4844,74,60,40
574.4844,574.69867,86,62,40
574.69867,574.91296,85,64,40
574.91296,575.1272,84,66,40
575.1272,575.33704,81,68,40
575.3415,575.5558,80,70,40
575.5558,575.7701,77,72,40
575.7701,575.9844,74,74,40
575.9844,576.19867,70,76,40
576.19867,576.41296,68,78,40
576.41296,576.62274,65,80,40
576.6272,576.8415,67,82,40
576.8415,577.2701,79,85,40
577.2701,577.4844,77,91,40
577.4844,577.69867,75,94,40
577.69867,577.90845,72,97,40
577.91296,578.5558,70,100,40
578.5558,578.7656,69,100,40
578.7701,579.1272,77,80,40
579.3395,579.48035,65,60,40
579.48035,579.62115,74,60,40
579.62115,579.762,77,60,40
579.762,579.9029,65,60,40
579.9029,580.0437,74,60,40
580.0437,580.2506,77,60,40
580.6071,580.7479,65,60,40
580.7479,580.8888,72,60,40
580.8888,581.02966,77,60,40
581.02966,581.1705,65,60,40
581.1705,581.31134,72,60,40
581.31134,581.5182,77,60,40
581.87274,582.01166,65,60,40
582.01166,582.1505,74,60,40
582.1505,582.2894,77,60,40
582.2894,582.4283,65,60,40
582.4283,582.5672,74,60,40
582.5672,582.7712,77,60,40
583.12274,583.26166,65,62,40
583.26166,583.4005,72,62,40
583.4005,583.5394,77,62,40
583.5394,583.6783,65,62,40
583.6783,583.8172,75,62,40
583.8172,584.0212,81,62,40
584.37274,584.51166,67,64,40
584.51166,584.6505,74,64,40
584.6505,584.7894,79,64,40
584.7894,584.9283,67,64,40
584.9283,585.0672,74,64,40
585.0672,585.2712,79,64,40
585.62274,585.76166,67,66,40
585.76166,585.9005,70,66,40
585.9005,586.0394,79,66,40
586.0394,586.1783,67,67,40
586.1783,586.3172,70,68,40
586.3172,586.5212,79,69,40
586.87274,587.01166,67,72,40
587.01166,587.1505,70,73,40
587.1505,587.2894,79,74,40
587.2894,587.4283,67,75,40
587.4283,587.5672,70,76,40
587.5672,587.7712,72,77,40
588.12274,588.26166,65,80,40
588.26166,588.4005,74,81,40
588.4005,588.5394,77,82,40
588.5394,588.6783,65,83,40
588.6783,588.8172,70,84,40
588.8172,589.0212,74,85,40
589.37274,589.5116,65,88,40
589.5116,589.6505,72,89,40
589.6505,589.7894,75,90,40
589.7894,589.9283,65,91,40
589.9283,590.0672,69,92,40
590.0672,590.2712,72,93,40
590.62085,590.7578,65,100,40
590.7578,590.8948,74,100,40
590.8948,591.0318,77,100,40
591.0318,591.16876,65,100,40
591.16876,591.3058,74,100,40
591.3058,591.50696,77,100,40
591.8537,591.99066,65,80,40
591.99066,592.1277,72,80,40
592.1277,592.26465,77,80,40
592.26465,592.4017,65,80,40
592.4017,592.53864,72,80,40
592.53864,592.7398,77,80,40
593.0866,593.2236,65,60,40
593.2236,593.36053,74,60,40
593.36053,593.49756,77,60,40
593.49756,593.6345,65,60,40
593.6345,593.7715,74,60,40
593.7715,593.9727,77,60,40
594.31946,594.4564,65,60,40
594.4564,594.59344,72,60,40
594.59344,594.7304,77,60,40
594.7304,594.8674,65,60,40
594.8674,595.0044,75,60,40
595.0044,595.20557,81,60,40
595.5505,595.6856,67,62,40
595.6856,595.82074,74,62,40
595.82074,595.9559,79,62,40
595.9559,596.091,67,62,40
596.091,596.22614,74,62,40
596.22614,596.4246,79,62,40
596.76666,596.90186,70,65,40
596.90186,597.037,79,66,40
597.037,597.1721,82,67,40
597.1721,597.30725,70,68,40
597.30725,597.4424,79,69,40
597.4424,597.64087,82,69,40
597.9829,598.11804,70,72,40
598.11804,598.2532,79,73,40
598.2532,598.3883,82,74,40
598.3883,598.52344,70,75,40
598.52344,598.65857,79,76,40
598.65857,598.85706,86,77,40
599.1991,599.3342,65,80,40
599.3342,599.4694,74,81,40
599.4694,599.60455,82,82,40
599.60455,599.7397,65,83,40
599.7397,599.8748,70,84,40
599.8748,600.0733,74,85,40
600.4172,600.5542,65,89,40
600.5542,600.69116,72,90,40
600.69116,600.8281,75,91,40
600.8281,600.96515,65,92,40
600.96515,601.1021,69,93,40
601.1021,601.30334,72,94,40
601.51306,601.652,61,100,40
601.652,601.79083,70,100,40
601.79083,601.92975,61,95,40
601.92975,602.0686,70,90,40
602.0686,602.2075,61,85,40
602.2075,602.34644,70,80,40
602.34644,602.4853,61,75,40
602.4853,602.6242,70,70,40
602.6242,602.76306,61,65,40
602.76306,602.90393,70,60,40
602.90393,603.04474,61,60,40
603.04474,603.1856,70,60,40
603.1856,603.3265,61,60,40
603.3265,603.4673,70,60,40
603.4673,603.60815,61,60,40
603.60815,603.74896,70,60,40
603.74896,603.88983,61,60,40
603.88983,604.0263,70,60,40
604.0307,604.1735,61,60,40
604.1735,604.3164,70,59,40
604.3164,604.4592,61,58,40
604.4592,604.6021,70,57,40
604.6021,604.74493,61,56,40
604.74493,604.8878,70,55,40
604.8878,605.0307,61,54,40
605.0307,605.1735,70,53,40
605.1735,605.3164,61,52,40
605.3164,605.46344,70,51,40
605.46344,605.61053,61,50,40
605.61053,605.75757,70,49,40
605.75757,605.9046,61,48,40
605.9046,606.0517,70,47,40
606.0517,606.1987,61,46,40
606.1987,606.3458,70,45,40
606.3458,606.49286,61,44,40
606.49286,606.6353,70,42,40
606.6399,606.9971,62,40,40
606.6399,606.9971,70,40,40
607.2828,607.3899,70,60,40
607.4971,607.71136,70,60,40
607.71136,607.92114,72,60,40
607.92566,608.2828,72,60,40
608.5685,608.67566,72,60,40
608.7828,608.9971,72,60,40
608.9971,609.2069,74,60,40
609.21136,609.5685,74,60,40
609.8542,609.96136,74,60,40
610.0685,610.42566,74,73,40
610.4971,611.3542,75,100,40
611.3542,611.71136,69,60,40
611.7828,612.1399,70,60,40
612.4256,612.5328,70,60,40
612.6399,612.8542,70,60,40
612.8542,613.064,72,60,40
613.0685,613.4256,72,60,40
613.71136,613.8185,72,60,40
613.9256,614.1399,72,64,40
614.1399,614.34973,74,68,40
614.3542,614.71136,74,72,40
614.9971,615.1042,74,85,40
615.21136,615.4256,74,90,40
615.4256,615.63544,77,95,40
615.6399,616.4971,77,100,40
616.4971,616.8542,69,60,40
616.9256,617.3542,86,40,40
617.3542,617.7828,84,40,40
617.7828,618.1399,77,40,40
627.8542,628.064,69,80,40
627.8542,628.064,75,80,40
628.0685,628.2828,69,80,40
628.0685,628.2828,75,80,40
628.2828,628.49255,65,80,40
628.4971,628.8542,65,80,40
629.1399,629.34973,70,80,40
629.1399,629.34973,74,80,40
629.3542,629.5685,70,80,40
629.3542,629.5685,74,80,40
629.5685,629.77826,65,80,40
629.7828,630.1399,65,80,40
630.4256,630.63544,69,81,40
630.4256,630.63544,72,81,40
630.6399,630.8542,69,81,40
630.6399,630.8542,72,81,40
630.8542,631.064,65,81,40
631.0685,631.4256,65,81,40
631.7113,631.92114,68,82,40
631.7113,631.92114,71,82,40
631.9256,632.1399,68,82,40
631.9256,632.1399,71,82,40
632.1399,632.34973,65,82,40
632.3542,632.7113,65,82,40
632.997,633.20685,69,83,40
632.997,633.20685,72,83,40
633.2113,633.4256,69,83,40
633.2113,633.4256,72,83,40
633.4256,633.63544,65,83,40
633.6399,633.997,64,83,40
634.2828,634.49255,70,85,40
634.2828,634.49255,73,85,40
634.497,634.7113,70,86,40
634.497,634.7113,73,86,40
634.7113,634.92114,64,87,40
634.9256,635.2828,64,88,40
635.5685,635.77826,70,91,40
635.5685,635.77826,73,91,40
635.7828,635.997,70,92,40
635.7828,635.997,73,92,40
635.997,636.20685,64,93,40
636.2113,636.5685,65,94,40
636.8542,637.064,72,97,40
637.0685,637.2828,72,98,40
637.2828,637.49255,65,99,40
637.497,637.70685,65,100,40
637.497,638.1399,74,100,40
637.6042,638.1399,82,100,40
638.1399,638.34973,74,80,40
638.3542,638.7113,77,60,40
640.0685,640.7113,70,92,40
640.7113,640.92114,62,60,40
640.9256,641.2827,65,60,40
641.3542,641.997,70,92,40
641.997,642.20685,62,60,40
642.2113,642.5685,65,60,40
645.4256,645.6399,65,40,40
645.6399,645.8542,74,40,40
645.8542,646.0685,65,40,40
646.0685,646.2827,72,40,40
646.2827,646.497,65,40,40
646.497,646.7113,74,40,40
646.7113,646.9256,65,40,40
646.9256,647.1399,70,40,40
647.1399,647.3542,65,40,40
647.3542,647.5684,76,40,40
647.5684,647.7827,67,40,40
647.7827,647.997,77,40,40
647.997,648.2113,65,40,40
648.2113,648.4256,72,40,40
648.4256,648.63544,65,40,40
648.6399,648.8542,72,40,40
648.8542,649.0684,65,40,40
649.0684,649.2827,74,40,40
649.2827,649.497,65,40,40
649.497,649.7113,70,40,40
649.7113,649.9256,65,40,40
649.9256,650.1399,76,40,40
650.1399,650.3542,67,40,40
650.3542,650.5684,77,40,40
650.5684,650.7827,65,40,40
650.7827,650.997,72,40,40
650.997,651.20685,65,40,40
651.2113,651.4256,74,40,40
651.4256,651.6399,65,40,40
651.6399,651.8542,75,40,40
651.8542,652.0684,63,40,40
652.0684,652.2827,70,40,40
652.2827,652.49255,63,40,40
652.497,652.7113,72,40,40
652.7113,652.9256,63,40,40
652.9256,653.1399,74,40,40
653.1399,653.3542,62,41,40
653.3542,653.5684,69,42,40
653.5684,653.77826,62,43,40
653.7827,653.997,74,44,40
653.997,654.2113,62,45,40
654.2113,654.4256,70,46,40
654.4256,654.63544,62,47,40
654.6399,654.8542,70,48,40
654.8542,655.0684,63,49,40
655.0684,655.2827,70,50,40
655.2827,655.49255,64,51,40
655.497,655.7113,70,52,40
655.7113,655.9256,65,54,40
655.9256,656.1399,74,56,40
656.1399,656.3541,65,58,40
656.3541,656.5684,72,60,40
656.5684,656.77826,65,62,40
656.7827,656.997,71,64,40
656.997,657.2113,65,66,40
657.2113,657.4256,70,68,40
657.4256,657.6399,64,70,40
657.6399,657.8541,69,72,40
657.8541,658.06396,63,74,40
658.0684,658.2827,68,76,40
658.2827,658.497,62,78,40
658.497,658.7113,67,80,40
658.7113,658.9256,60,82,40
658.9256,659.1399,65,84,40
659.1399,659.3497,59,86,40
659.3541,659.5684,64,88,40
659.5684,659.7827,58,90,40
659.7827,659.997,63,92,40
659.997,660.2113,57,94,40
660.2113,660.4256,60,96,40
660.4256,660.6354,57,98,40
660.6399,660.8541,63,100,40
660.8541,661.0684,65,100,40
661.0684,661.2827,63,96,40
661.2827,661.497,65,92,40
661.497,661.7113,72,88,40
661.7113,661.92114,65,84,40
661.9256,662.1399,70,80,40
662.1399,662.3541,65,80,40
662.3541,662.5684,70,80,40
662.5684,662.7827,65,80,40
662.7827,662.997,70,80,40
662.997,663.20685,67,80,40
663.2113,663.4256,69,80,40
663.4256,663.6399,65,80,40
663.6399,663.8541,74,80,40
663.8541,664.0684,65,80,40
664.0684,664.2827,72,80,40
664.2827,664.49255,65,80,40
664.497,664.7113,70,80,40
664.7113,664.9256,65,80,40
664.9256,665.13983,70,80,40
665.13983,665.3541,65,80,40
665.3541,665.5684,70,80,40
665.5684,665.77826,67,80,40
665.7827,665.997,69,80,40
665.997,666.2113,65,80,40
666.2113,666.4256,69,80,40
666.4256,666.63983,65,80,40
666.63983,666.8541,68,80,40
666.8541,667.06396,65,80,40
667.0684,667.2827,67,80,40
667.2827,667.497,63,80,40
667.497,667.7113,67,80,40
667.7113,667.9256,63,80,40
667.9256,668.13983,66,80,40
668.13983,668.3497,63,80,40
668.3541,668.5684,65,80,40
668.5684,668.7827,62,80,40
668.7827,668.997,65,80,40
668.997,669.2113,62,80,40
669.2113,669.4256,64,80,40
669.4256,669.6354,61,80,40
669.63983,669.8541,64,80,40
669.8541,670.0684,61,77,40
670.0684,670.2827,64,74,40
670.2827,670.497,61,71,40
670.497,670.7113,64,68,40
670.7113,670.9211,61,64,40
670.9256,672.1212,60,92,40
670.9256,672.1212,63,92,40
672.2299,673.46124,60,92,40
672.2299,673.46124,63,92,40
673.5732,674.3809,60,64,40
673.5732,674.3809,63,64,40
692.8411,693.2083,57,100,40
692.8411,693.3958,65,100,40
693.0286,693.3958,75,100,40
693.5911,693.9583,58,100,40
693.5911,694.1458,65,100,40
693.7786,694.1458,74,100,40
149.22453,149.58168,69,60,45
149.22453,149.58168,72,60,45
149.6531,150.01025,65,60,45
149.6531,150.01025,69,60,45
150.51025,150.86739,64,60,45
150.51025,150.86739,70,60,45
150.93883,151.29596,64,61,45
150.93883,151.29596,67,61,45
151.79596,152.1531,63,63,45
151.79596,152.1531,72,63,45
152.22453,152.58168,63,64,45
152.22453,152.58168,69,64,45
153.08168,153.43881,64,66,45
153.08168,153.43881,70,66,45
153.51025,153.86739,64,67,45
153.51025,153.86739,67,67,45
154.36739,154.72453,62,69,45
154.36739,154.72453,71,69,45
154.79596,155.1531,62,70,45
154.79596,155.1531,65,70,45
155.6531,156.01024,64,72,45
155.6531,156.01024,72,72,45
156.08168,156.43881,64,73,45
156.08168,156.43881,70,73,45
156.93881,157.29596,60,75,45
156.93881,157.29596,64,75,45
156.93881,157.29596,76,75,45
157.36739,157.72453,60,76,45
157.36739,157.72453,64,76,45
157.36739,157.72453,72,76,45
328.58362,328.94077,69,60,45
328.58362,328.94077,72,60,45
329.01218,329.36932,65,60,45
329.01218,329.36932,69,60,45
329.86932,330.22647,64,60,45
329.86932,330.22647,70,60,45
330.2979,330.65503,64,61,45
330.2979,330.65503,67,61,45
331.15503,331.51218,63,63,45
331.15503,331.51218,72,63,45
331.58362,331.94077,63,64,45
331.58362,331.94077,69,64,45
332.44077,332.7979,64,66,45
332.44077,332.7979,70,66,45
332.86932,333.22647,64,67,45
332.86932,333.22647,67,67,45
333.72647,334.08362,62,69,45
333.72647,334.08362,71,69,45
334.15503,334.51218,62,70,45
334.15503,334.51218,65,70,45
335.01218,335.36932,64,72,45
335.01218,335.36932,72,72,45
335.44077,335.79788,64,73,45
335.44077,335.79788,70,73,45
336.29788,336.65503,60,75,45
336.29788,336.65503,64,75,45
336.29788,336.65503,76,75,45
336.72647,337.08362,60,76,45
336.72647,337.08362,64,76,45
336.72647,337.08362,72,76,45
361.71817,362.0753,60,60,45
361.71817,362.0753,69,60,45
362.5753,362.93243,62,60,45
362.5753,362.93243,69,60,45
364.28958,364.64673,60,60,45
364.28958,364.64673,69,60,45
365.14673,365.50388,62,60,45
365.14673,365.50388,69,60,45
366.86102,367.21814,62,60,45
366.86102,367.21814,69,60,45
367.71814,368.0753,62,60,45
367.71814,368.0753,70,60,45
369.43243,369.78958,67,60,45
370.28958,370.64673,63,60,45
370.28958,370.64673,75,60,45
372.00388,372.361,65,60,45
372.00388,372.361,75,60,45
372.861,373.21814,65,60,45
372.861,373.21814,74,60,45
618.6399,618.9971,65,40,45
618.6399,618.9971,74,40,45
618.6399,618.9971,82,40,45
619.0685,619.4256,65,40,45
619.0685,619.4256,74,40,45
619.9256,620.2828,65,40,45
619.9256,620.2828,75,40,45
619.9256,620.2828,81,40,45
620.3542,620.71136,65,42,45
620.3542,620.71136,75,42,45
621.2113,621.5685,65,46,45
621.2113,621.5685,74,46,45
621.2113,621.5685,80,46,45
621.6399,621.9971,65,48,45
621.6399,621.9971,74,48,45
622.4971,622.8542,65,53,45
622.4971,622.8542,75,53,45
622.4971,622.8542,81,53,45
622.9256,623.2828,65,56,45
622.9256,623.2828,75,56,45
623.7828,624.1399,67,62,45
623.7828,624.1399,76,62,45
624.2113,624.5685,67,65,45
624.2113,624.5685,70,65,45
625.0685,625.4256,69,71,45
625.0685,625.4256,77,71,45
625.4971,625.8542,69,74,45
625.4971,625.8542,75,74,45
626.3542,626.7113,65,80,45
626.3542,626.7113,69,80,45
626.3542,626.7113,81,80,45
626.7828,627.1399,65,80,45
626.7828,627.1399,69,80,45
626.7828,627.1399,77,80,45
677.38635,677.80304,58,60,45
677.38635,677.80304,62,60,45
677.88635,678.30304,57,60,45
677.88635,678.30304,63,60,45
678.88635,679.30304,57,60,45
678.88635,679.30304,63,60,45
679.38635,679.80304,57,60,45
679.38635,679.80304,63,60,45
680.38635,680.80304,57,60,45
680.38635,680.80304,63,60,45
680.88635,681.30304,57,60,45
680.88635,681.30304,63,60,45
681.38635,681.80304,57,60,45
681.38635,681.80304,63,60,45
681.88635,682.30304,57,60,45
681.88635,682.30304,63,60,45
682.38635,682.80304,58,60,45
682.38635,682.80304,62,60,45
683.38635,683.80304,62,60,45
683.38635,683.80304,70,60,45
683.88635,684.30304,60,60,45
683.88635,684.30304,65,60,45
683.88635,684.30304,75,60,45
684.88635,685.30304,60,60,45
684.88635,685.30304,65,60,45
684.88635,685.30304,75,60,45
685.38635,685.80304,60,60,45
685.38635,685.80304,65,60,45
685.38635,685.80304,75,60,45
686.38635,686.80304,60,72,45
686.38635,686.80304,65,72,45
686.38635,686.80304,75,72,45
686.88635,687.30304,60,79,45
686.88635,687.30304,65,79,45
686.88635,687.30304,75,79,45
687.38635,687.80304,60,86,45
687.38635,687.80304,65,86,45
687.38635,687.80304,75,86,45
687.88635,688.30304,60,93,45
687.88635,688.30304,65,93,45
687.88635,688.30304,75,93,45
688.38635,688.81744,58,100,45
688.38635,688.81744,65,100,45
688.38635,688.81744,74,100,45
689.16223,689.41547,74,100,45
689.42084,689.8519,65,100,45
689.42084,689.8519,75,100,45
689.9381,690.39264,65,90,45
689.9381,690.39264,74,90,45
690.7563,691.0233,62,75,45
691.029,691.4836,57,70,45
691.029,691.4836,63,70,45
691.57446,692.07446,58,60,45
691.57446,692.07446,62,60,45
1.285713,1.4999985,50,60,41
1.4999985,1.714284,53,60,41
1.714284,1.9285696,50,60,41
1.9285696,2.142855,53,60,41
2.142855,2.3571405,48,60,41
2.3571405,2.571426,53,60,41
2.571426,2.7857115,50,60,41
2.7857115,2.999997,53,60,41
2.999997,3.2142825,58,60,41
3.2142825,3.428568,53,60,41
3.428568,3.6428535,55,60,41
3.6428535,3.8526747,51,60,41
3.857139,4.0714245,48,60,41
4.0714245,4.495531,53,60,41
4.4999957,4.714281,53,60,41
4.714281,4.9285665,48,60,41
4.9285665,5.1383877,53,60,41
5.142852,5.3571377,50,60,41
5.3571377,5.571423,53,60,41
5.571423,5.7857084,58,60,41
5.7857084,5.999994,53,60,41
5.999994,6.2142797,55,60,41
6.2142797,6.424101,51,60,41
6.428565,6.6428504,48,60,41
6.6428504,7.066957,53,60,41
7.0714216,7.285707,53,60,41
7.285707,7.4999924,57,60,41
7.4999924,7.7098136,53,60,41
7.714278,7.9285636,58,60,41
7.9285636,8.352671,53,60,41
8.357135,8.57142,53,60,41
8.57142,8.785706,60,60,41
8.785706,8.995526,53,60,41
8.999991,9.214276,58,60,41
9.214276,9.638383,53,60,41
9.642847,9.857133,53,60,41
9.857133,10.071419,58,60,41
10.071419,10.2812395,54,60,41
10.285704,10.4999895,58,60,41
10.4999895,10.924096,54,60,41
10.92856,11.142846,54,60,41
11.142846,11.357132,55,60,41
11.357132,11.566953,49,60,41
11.571417,11.788808,53,60,41
11.788808,12.006199,48,60,41
12.006199,12.226787,53,60,41
12.226787,12.447375,48,60,41
12.447375,12.671255,57,60,41
12.671255,12.890471,53,60,41
12.895136,13.336312,53,80,41
13.336312,13.771094,55,80,41
13.771094,14.128237,57,80,41
14.199665,15.056807,58,80,41
15.056807,15.485378,57,60,41
15.485378,15.913949,58,80,41
15.913949,16.34252,62,100,41
16.34252,16.699663,60,80,41
16.771091,17.199661,57,80,41
17.199661,17.556805,53,60,41
17.628233,18.056805,57,60,41
18.056805,18.485374,58,80,41
18.485374,18.913946,62,100,41
18.913946,19.271088,60,80,41
19.342518,19.771088,57,60,41
19.771088,20.128231,53,60,41
20.19966,21.0568,65,100,41
21.0568,21.485373,63,100,41
21.485373,21.842514,65,100,41
21.913942,22.342514,63,80,41
22.342514,22.699657,62,80,41
22.771086,23.413942,61,80,41
23.413942,23.521084,63,87,41
23.521084,23.628227,61,88,41
23.628227,24.056799,60,89,41
24.056799,24.41394,58,94,41
24.485369,25.361326,57,100,41
25.361326,25.73446,60,100,41
25.809088,26.25685,57,80,41
26.25685,26.698025,58,80,41
26.698025,27.060343,60,80,41
27.132807,27.561378,61,60,41
27.561378,27.989948,65,60,41
27.989948,28.347092,69,60,41
28.41852,28.739948,70,60,41
28.739948,28.79352,72,61,41
28.79352,28.847092,70,61,41
28.847092,29.275661,69,61,41
29.275661,29.632805,70,62,41
29.704233,30.132805,72,63,41
30.132805,30.561375,68,64,41
30.561375,30.918518,60,65,41
30.989946,31.412481,60,66,41
31.412481,31.835016,61,67,41
31.835016,32.18713,63,68,41
32.25755,32.680084,65,69,41
32.680084,33.0322,68,70,41
33.10262,33.454735,61,71,41
33.525154,33.837654,66,72,41
33.837654,33.88974,68,73,41
33.88974,33.941822,66,73,41
33.941822,34.358486,65,73,41
34.358486,34.70571,66,74,41
34.775154,36.02515,68,76,41
36.02515,37.62237,69,82,41
37.691814,38.108482,70,90,41
38.108482,38.525146,66,92,41
38.525146,38.94768,63,94,41
38.94768,39.370216,61,96,41
39.370216,39.722332,60,98,41
39.79275,40.36418,65,100,41
41.078465,41.649895,65,80,41
42.364178,42.935608,65,80,41
44.935604,46.64989,75,100,41
46.64989,47.00703,74,100,41
47.07846,47.435604,70,100,41
47.50703,49.221313,68,100,41
47.50703,49.221313,77,100,41
49.221313,49.578457,67,100,41
49.221313,49.578457,75,100,41
49.649887,50.507027,68,100,41
50.507027,50.86417,67,100,41
50.9356,51.36417,68,100,41
51.36417,51.79274,67,100,41
51.79274,52.221313,63,100,41
52.221313,52.578453,60,100,41
52.649883,53.084663,58,100,41
53.084663,53.519447,60,100,41
53.519447,53.881763,62,100,41
53.954227,54.836582,53,80,41
54.836582,55.204227,57,60,41
55.277756,55.645405,58,40,41
60.792458,61.013046,48,60,41
61.013046,61.23363,60,60,41
61.23363,61.45422,48,60,41
61.45422,61.67481,48,60,41
61.67481,61.8908,60,60,41
62.115986,62.336575,48,60,41
62.336575,62.55716,60,60,41
62.55716,62.77775,48,60,41
62.77775,62.998337,49,60,41
62.998337,63.21433,61,60,41
63.439514,63.660103,50,60,41
63.660103,63.880688,62,68,41
63.880688,64.10128,50,76,41
64.10128,64.32186,53,84,41
64.32186,64.53786,65,92,41
64.54245,64.76304,48,100,41
64.76304,65.19962,60,100,41
65.204216,65.6408,60,80,41
65.64539,65.86139,60,60,41
65.86598,66.23363,60,40,41
79.24968,79.89254,57,40,41
79.89254,80.102356,59,40,41
80.10682,80.46397,61,40,41
80.53539,81.71397,52,40,41
81.821106,82.46396,57,40,41
82.46396,82.67378,59,40,41
82.678246,83.03539,61,40,41
83.10682,84.28539,52,40,41
84.39253,85.035385,61,40,41
85.035385,85.24521,62,60,41
85.24967,85.60682,64,66,41
85.678246,87.3211,65,80,41
87.39253,87.71396,57,80,41
87.71396,87.8211,60,74,41
87.8211,88.178246,58,72,41
88.24967,89.42824,57,64,41
89.535385,90.17824,57,40,41
90.17824,90.38806,59,40,41
90.392525,90.74967,61,40,41
90.8211,91.999664,52,40,41
92.10681,92.749664,57,40,41
92.749664,92.95949,59,40,41
92.96395,93.32109,61,40,41
93.392525,94.57109,52,40,41
94.67824,95.32109,61,40,41
95.32109,95.530914,62,46,41
95.53538,95.89252,64,48,41
95.96395,97.14252,57,52,41
95.96395,97.14252,66,52,41
97.249664,97.89252,61,64,41
97.89252,98.10234,62,70,41
98.106804,98.46394,64,72,41
98.53538,99.71394,57,76,41
98.53538,99.71394,66,76,41
99.82109,100.46394,57,88,41
100.46394,100.67377,59,94,41
100.67823,101.03537,61,96,41
101.106804,101.856804,60,100,41
101.96394,102.82108,53,100,41
102.82108,103.24966,54,100,41
103.24966,103.6068,55,80,41
103.67823,104.8568,60,60,41
105.17822,105.38805,69,60,41
105.39251,105.6068,81,61,41
105.6068,105.82108,80,62,41
105.82108,106.03537,79,63,41
106.03537,106.245186,76,64,41
106.24966,106.463936,75,65,41
106.463936,106.67822,72,66,41
106.67822,106.89251,69,67,41
106.89251,107.1068,65,68,41
107.1068,107.32108,63,69,41
107.32108,107.5309,60,70,41
107.53536,107.74965,62,71,41
107.74965,108.17822,74,72,41
108.17822,108.39251,72,74,41
108.39251,108.6068,70,76,41
108.6068,108.81661,67,78,41
108.821075,109.70343,72,80,41
109.70343,110.08222,70,60,41
110.157974,110.505196,69,40,41
120.766075,120.96877,60,100,41
120.96877,121.16725,69,100,41
121.17148,121.71201,69,100,41
121.77959,121.982285,60,90,41
121.982285,122.18499,69,87,41
122.18499,122.38347,72,84,41
122.387695,122.9958,72,81,41
122.9958,123.09715,70,71,41
123.1985,123.53634,67,68,41
123.603905,124.14445,72,60,41
124.21201,124.41472,60,60,41
124.41472,124.61742,69,61,41
124.61742,124.8159,77,62,41
124.82012,125.42823,77,63,41
125.42823,125.52958,76,66,41
125.630936,125.96877,67,67,41
126.03634,126.57687,79,69,41
126.64445,126.847145,69,72,41
126.847145,127.04985,77,73,41
127.04985,127.24833,81,74,41
127.25255,127.86066,81,75,41
127.86066,127.96201,79,78,41
128.06335,128.4012,81,79,41
128.46877,129.07687,81,81,41
129.07687,129.17822,79,84,41
129.27957,129.61742,74,85,41
129.68498,130.22552,77,87,41
130.29309,130.49156,65,90,41
130.49579,130.6985,65,91,41
130.6985,130.89697,67,92,41
130.9012,131.23903,67,93,41
131.50931,131.61066,64,96,41
131.712,131.9147,64,97,41
131.9147,132.11319,65,98,41
132.11742,132.46463,65,100,41
137.8674,138.07722,60,60,41
138.0817,138.29597,60,60,41
138.29597,138.5058,48,60,41
138.51027,138.8674,48,60,41
139.15312,139.36295,60,60,41
139.3674,139.5817,60,60,41
139.5817,139.7915,48,60,41
139.79597,140.15312,48,60,41
140.43883,140.64865,60,60,41
140.65312,140.8674,60,66,41
140.8674,141.07722,48,73,41
141.0817,141.51025,69,80,41
141.51025,141.93883,67,80,41
141.93883,142.29597,60,60,41
142.58168,142.7915,65,60,41
142.79597,143.01025,65,60,41
143.01025,143.22008,60,60,41
143.22455,143.58168,60,60,41
143.8674,144.07722,67,60,41
144.08168,144.29597,67,63,41
144.29597,144.5058,60,66,41
144.51025,144.8674,60,69,41
145.1531,145.36293,69,78,41
145.3674,145.58168,69,81,41
145.58168,145.7915,60,84,41
145.79597,146.1531,60,88,41
146.43883,146.64865,70,100,41
146.6531,146.8674,70,80,41
146.8674,147.07722,60,80,41
147.08168,147.43883,60,60,41
147.51025,148.26025,64,40,41
147.51025,148.26025,70,40,41
148.3674,148.72453,64,40,41
148.3674,148.72453,67,40,41
180.64479,180.85909,50,60,41
180.85909,181.07336,53,60,41
181.07336,181.28764,50,60,41
181.28764,181.50194,53,60,41
181.50194,181.71622,48,60,41
181.71622,181.93051,53,60,41
181.93051,182.14479,50,60,41
182.14479,182.35909,53,60,41
182.35909,182.57336,58,60,41
182.57336,182.78764,53,60,41
182.78764,183.00194,55,60,41
183.00194,183.21176,51,60,41
183.21622,183.43051,48,60,41
183.43051,183.85461,53,60,41
183.85907,184.07336,53,60,41
184.07336,184.28764,48,60,41
184.28764,184.49747,53,60,41
184.50194,184.71622,50,60,41
184.71622,184.93051,53,60,41
184.93051,185.14479,58,60,41
185.14479,185.35907,53,60,41
185.35907,185.57336,55,60,41
185.57336,185.78319,51,60,41
185.78764,186.00194,48,60,41
186.00194,186.42604,53,60,41
186.4305,186.64479,53,60,41
186.64479,186.85907,57,60,41
186.85907,187.0689,53,60,41
187.07336,187.28764,58,60,41
187.28764,187.71175,53,60,41
187.71622,187.9305,53,60,41
187.9305,188.14479,60,60,41
188.14479,188.35461,53,60,41
188.35907,188.57336,58,60,41
188.57336,188.99747,53,60,41
189.00192,189.21622,53,60,41
189.21622,189.4305,58,60,41
189.4305,189.64032,54,60,41
189.64479,189.85907,58,60,41
189.85907,190.28317,54,60,41
190.28764,190.50192,54,60,41
190.50192,190.71622,55,60,41
190.71622,190.92604,49,60,41
190.9305,191.14789,53,60,41
191.14789,191.36528,48,60,41
191.36528,191.58586,53,60,41
191.58586,191.80646,48,60,41
191.80646,192.03033,57,60,41
192.03033,192.24956,53,60,41
192.25421,192.69539,53,80,41
192.69539,193.13017,55,80,41
193.13017,193.48732,57,80,41
193.55875,194.4159,58,80,41
194.4159,194.84445,57,60,41
194.84445,195.27303,58,80,41
195.27303,195.7016,62,100,41
195.7016,196.05875,60,80,41
196.13017,196.55875,57,80,41
196.55875,196.91588,53,60,41
196.98732,197.41588,57,60,41
197.41588,197.84445,58,80,41
197.84445,198.27303,62,100,41
198.27303,198.63017,60,80,41
198.7016,199.13017,57,60,41
199.13017,199.4873,53,60,41
199.55875,200.41588,65,100,41
200.41588,200.84445,63,100,41
200.84445,201.2016,65,100,41
201.27303,201.7016,63,80,41
201.7016,202.05873,62,80,41
202.13017,202.77303,61,80,41
202.77303,202.88017,63,87,41
202.88017,202.9873,61,88,41
202.9873,203.41588,60,89,41
203.41588,203.77303,58,94,41
203.84445,204.72041,57,100,41
204.72041,205.09354,60,100,41
205.16817,205.61594,57,80,41
205.61594,206.0571,58,80,41
206.0571,206.41942,60,80,41
206.49188,206.92046,61,60,41
206.92046,207.34903,65,60,41
207.34903,207.70618,69,60,41
207.7776,208.09903,70,60,41
208.09903,208.1526,72,61,41
208.1526,208.20618,70,61,41
208.20618,208.63475,69,61,41
208.63475,208.99188,70,62,41
209.06331,209.49188,72,63,41
209.49188,209.92046,68,64,41
209.92046,210.2776,60,65,41
210.34903,210.77156,60,66,41
210.77156,211.19409,61,67,41
211.19409,211.5462,63,68,41
211.61664,212.03917,65,69,41
212.03917,212.39128,68,70,41
212.4617,212.81381,61,71,41
212.88423,213.19673,66,72,41
213.19673,213.24883,68,73,41
213.24883,213.3009,66,73,41
213.3009,213.71758,65,73,41
213.71758,214.06479,66,74,41
214.13423,215.38423,68,76,41
215.38423,216.98145,69,82,41
217.0509,217.46756,70,90,41
217.46756,217.88423,66,92,41
217.88423,218.30676,63,94,41
218.30676,218.7293,61,96,41
218.7293,219.0814,60,98,41
219.15184,219.72327,65,100,41
220.43755,221.00897,65,80,41
221.72327,222.2947,65,80,41
224.2947,226.00897,75,100,41
226.00897,226.36612,74,100,41
226.43755,226.79468,70,100,41
226.86612,228.5804,68,100,41
226.86612,228.5804,77,100,41
228.5804,228.93755,67,100,41
228.5804,228.93755,75,100,41
229.00897,229.8661,68,100,41
229.8661,230.22325,67,100,41
230.29468,230.72325,68,100,41
230.72325,231.15182,67,100,41
231.15182,231.5804,63,100,41
231.5804,231.93753,60,100,41
232.00896,232.44374,58,100,41
232.44374,232.87852,60,100,41
232.87852,233.24084,62,100,41
233.31331,234.19566,53,80,41
234.19566,234.56331,57,60,41
234.63684,235.00449,58,40,41
240.15154,240.37213,48,60,41
240.37213,240.59271,60,60,41
240.59271,240.81331,48,60,41
240.81331,241.03389,48,60,41
241.03389,241.24988,60,60,41
241.47507,241.69565,48,60,41
241.69565,241.91624,60,60,41
241.91624,242.13683,48,60,41
242.13683,242.35742,49,60,41
242.35742,242.57341,61,60,41
242.7986,243.01918,50,60,41
243.01918,243.23978,62,68,41
243.23978,243.46036,50,76,41
243.46036,243.68094,53,84,41
243.68094,243.89694,65,92,41
243.90154,244.12212,48,100,41
244.12212,244.5587,60,100,41
244.5633,244.99988,60,80,41
245.00447,245.22046,60,60,41
245.22507,245.59271,60,40,41
258.60876,259.25162,57,40,41
259.25162,259.46143,59,40,41
259.4659,259.82306,61,40,41
259.89447,261.07306,52,40,41
261.18018,261.82303,57,40,41
261.82303,262.03287,59,40,41
262.03732,262.39447,61,40,41
262.4659,263.64447,52,40,41
263.75162,264.39447,61,40,41
264.39447,264.60428,62,60,41
264.60876,264.9659,64,66,41
265.03732,266.68018,65,80,41
266.75162,267.07303,57,80,41
267.07303,267.18018,60,74,41
267.18018,267.53732,58,72,41
267.60876,268.78732,57,64,41
268.89447,269.53732,57,40,41
269.53732,269.74713,59,40,41
269.75162,270.10876,61,40,41
270.18018,271.35873,52,40,41
271.46588,272.10873,57,40,41
272.10873,272.31857,59,40,41
272.32303,272.68018,61,40,41
272.75162,273.93018,52,40,41
274.03732,274.68018,61,40,41
274.68018,274.88998,62,46,41
274.89447,275.2516,64,48,41
275.32303,276.5016,57,52,41
275.32303,276.5016,66,52,41
276.60873,277.2516,61,64,41
277.2516,277.46143,62,70,41
277.46588,277.82303,64,72,41
277.89447,279.07303,57,76,41
277.89447,279.07303,66,76,41
279.18018,279.82303,57,88,41
279.82303,280.03284,59,94,41
280.03732,280.39444,61,96,41
280.46588,281.21588,60,100,41
281.32303,282.18018,53,100,41
282.18018,282.60873,54,100,41
282.60873,282.96588,55,80,41
283.03732,284.21588,60,60,41
284.5373,284.74713,69,60,41
284.7516,284.96588,81,61,41
284.96588,285.18018,80,62,41
285.18018,285.39444,79,63,41
285.39444,285.60428,76,64,41
285.60873,285.82303,75,65,41
285.82303,286.0373,72,66,41
286.0373,286.2516,69,67,41
286.2516,286.46588,65,68,41
286.46588,286.68018,63,69,41
286.68018,286.88998,60,70,41
286.89444,287.10873,62,71,41
287.10873,287.5373,74,72,41
287.5373,287.7516,72,74,41
287.7516,287.96588,70,76,41
287.96588,288.1757,67,78,41
288.18015,289.0625,72,80,41
289.0625,289.4413,70,60,41
289.51706,289.8643,69,40,41
300.12515,300.32785,60,100,41
300.32785,300.52634,69,100,41
300.53055,301.0711,69,100,41
301.13867,301.34137,60,90,41
301.34137,301.54407,69,87,41
301.54407,301.74255,72,84,41
301.74677,302.3549,72,81,41
302.3549,302.45624,70,71,41
302.5576,302.89542,67,68,41
302.96298,303.50354,72,60,41
303.5711,303.7738,60,60,41
303.7738,303.9765,69,61,41
303.9765,304.175,77,62,41
304.1792,304.78732,77,63,41
304.78732,304.88867,76,66,41
304.99002,305.32785,67,67,41
305.39542,305.93594,79,69,41
306.00354,306.20624,69,72,41
306.20624,306.40894,77,73,41
306.40894,306.60742,81,74,41
306.61163,307.21973,81,75,41
307.21973,307.3211,79,78,41
307.42245,307.76028,81,79,41
307.82785,308.43594,81,81,41
308.43594,308.5373,79,84,41
308.63867,308.9765,74,85,41
309.04407,309.5846,77,87,41
309.65216,309.85065,65,90,41
309.85486,310.0576,65,91,41
310.0576,310.25604,67,92,41
310.26028,310.5981,67,93,41
310.86838,310.96973,64,96,41
311.07108,311.2738,64,97,41
311.2738,311.47226,65,98,41
311.4765,311.8237,65,100,41
317.2265,317.4363,60,60,41
317.44077,317.65506,60,60,41
317.65506,317.86487,48,60,41
317.86935,318.22647,48,60,41
318.5122,318.72202,60,60,41
318.72647,318.94077,60,60,41
318.94077,319.1506,48,60,41
319.15506,319.5122,48,60,41
319.7979,320.00772,60,60,41
320.0122,320.22647,60,66,41
320.22647,320.4363,48,73,41
320.44077,320.86935,69,80,41
320.86935,321.2979,67,80,41
321.2979,321.65506,60,60,41
321.94077,322.15057,65,60,41
322.15506,322.36932,65,60,41
322.36932,322.57916,60,60,41
322.58362,322.94077,60,60,41
323.22647,323.4363,67,60,41
323.44077,323.65506,67,63,41
323.65506,323.86487,60,66,41
323.86932,324.22647,60,69,41
324.5122,324.72202,69,78,41
324.72647,324.94077,69,81,41
324.94077,325.15057,60,84,41
325.15506,325.5122,60,88,41
325.7979,326.00772,70,100,41
326.0122,326.22647,70,80,41
326.22647,326.4363,60,80,41
326.44077,326.7979,60,60,41
326.86932,327.61932,64,40,41
326.86932,327.61932,70,40,41
327.72647,328.08362,64,40,41
327.72647,328.08362,67,40,41
360.00388,360.86102,62,60,41
360.86102,361.28958,61,60,41
361.28958,361.71817,62,80,41
361.71817,362.14673,65,80,41
362.14673,362.5753,63,60,41
362.5753,363.00388,60,60,41
363.00388,363.36102,57,40,41
366.00388,366.43243,63,80,41
366.43243,366.86102,60,60,41
366.86102,367.21814,57,40,41
368.5753,369.00388,58,80,41
369.00388,369.43243,57,60,41
369.43243,369.78958,55,40,41
371.14673,371.5753,63,80,41
371.5753,372.00388,60,60,41
372.00388,372.361,57,40,41
373.71814,374.14673,65,100,41
374.14673,374.5753,63,100,41
374.5753,375.00385,62,87,41
375.00385,375.361,60,74,41
375.43243,375.78958,59,60,41
376.93243,377.14673,52,60,41
377.14673,377.361,53,68,41
377.361,377.5753,62,76,41
377.5753,377.78958,65,84,41
377.78958,377.9994,62,92,41
378.00385,378.361,59,100,41
378.00385,378.361,64,100,41
379.50385,379.71814,52,60,41
379.71814,379.93243,53,60,41
379.93243,380.1467,62,70,41
380.1467,380.361,65,80,41
380.361,380.57083,62,90,41
380.5753,380.93243,59,100,41
380.5753,380.93243,64,100,41
382.0753,382.4994,65,60,41
382.50385,382.93243,62,60,41
382.93243,383.03958,64,60,41
383.361,383.7851,64,60,41
383.78955,384.21814,60,60,41
384.21814,384.3253,57,60,41
384.6467,385.0708,64,60,41
385.0753,385.50385,60,60,41
385.50385,385.611,57,60,41
385.93243,386.35654,65,60,41
386.361,386.78955,62,60,41
386.78955,386.8967,59,60,41
387.21814,387.64224,65,60,41
387.6467,388.0753,62,60,41
388.0753,388.1824,59,60,41
388.50385,388.92795,67,60,41
388.9324,389.361,64,60,41
389.361,389.46814,60,60,41
389.78955,390.21365,67,60,41
390.21814,390.6467,64,60,41
390.6467,390.75385,58,60,41
391.0753,391.4994,67,60,41
391.50385,391.9324,64,60,41
391.9324,392.03955,61,60,41
392.361,392.7851,67,60,41
392.78955,393.21814,64,61,41
393.21814,393.32526,61,63,41
393.6467,394.0708,69,65,41
394.07526,394.50385,65,67,41
394.50385,394.611,62,69,41
394.9324,395.3565,69,70,41
395.361,395.78955,65,72,41
395.78955,395.8967,62,74,41
396.21814,396.64224,72,76,41
396.6467,397.07526,69,78,41
397.07526,397.1824,66,80,41
397.50385,397.92795,72,82,41
397.9324,398.361,67,84,41
398.361,398.4681,72,86,41
398.78955,399.21365,72,88,41
399.2181,399.6467,69,90,41
399.6467,399.75385,63,92,41
400.07526,400.49936,63,94,41
400.07526,400.49936,72,94,41
400.50385,400.9324,60,96,41
400.50385,400.9324,63,96,41
400.9324,401.03955,63,98,41
400.9324,401.03955,72,98,41
401.1467,401.50385,54,100,41
401.78955,401.8967,54,100,41
402.00385,402.11096,54,100,41
402.2181,402.32526,55,100,41
402.4324,402.53955,55,100,41
402.6467,402.75385,57,100,41
403.07526,403.1824,57,100,41
403.28955,403.3967,57,100,41
403.50385,403.61096,58,100,41
403.7181,403.82526,58,100,41
403.9324,404.03955,60,100,41
404.36096,404.4681,60,100,41
404.57526,404.6824,60,100,41
404.78955,404.8967,61,100,41
405.00385,405.11096,61,80,41
405.2181,405.32526,62,80,41
405.4324,405.53955,50,80,41
405.6467,405.7538,61,80,41
405.86096,405.9681,61,80,41
406.07526,406.1824,62,80,41
406.28955,406.8565,65,80,41
406.86096,406.99936,64,80,41
407.0038,407.1422,65,80,41
407.1467,407.28955,68,80,41
407.28955,407.42795,67,80,41
407.4324,407.5708,63,80,41
407.57526,407.7181,67,80,41
407.7181,407.8565,65,80,41
407.86096,408.1422,62,80,41
408.1467,408.28506,61,80,41
408.28955,408.42795,62,80,41
408.4324,408.57526,65,80,41
408.57526,408.71365,63,80,41
408.7181,408.8565,60,80,41
408.86096,409.0038,63,80,41
409.0038,409.1422,62,80,41
409.1467,409.42792,56,80,41
409.4324,409.5708,55,80,41
409.57526,409.71365,56,80,41
409.7181,409.86096,62,80,41
409.86096,409.99936,60,80,41
410.0038,410.1422,51,81,41
410.14667,410.28955,60,82,41
410.28955,410.42792,59,83,41
410.4324,410.71365,50,84,41
410.7181,410.8565,49,86,41
410.86096,410.99936,50,87,41
411.0038,411.14667,62,88,41
411.14667,411.28506,60,89,41
411.28955,411.42792,51,90,41
411.4324,411.57526,60,91,41
411.57526,411.71365,59,92,41
411.7181,411.8565,50,93,41
411.86096,412.0038,62,94,41
412.0038,412.1422,60,95,41
412.14667,412.28506,51,96,41
412.28955,412.4324,60,97,41
412.4324,412.5708,59,98,41
412.57526,412.71365,50,99,41
412.7181,412.81934,67,100,41
412.82373,412.925,67,100,41
412.92938,413.0306,65,100,41
413.035,413.13623,65,100,41
413.14066,413.24188,67,100,41
413.24628,413.3475,67,100,41
413.3519,413.45316,70,100,41
413.45755,413.55878,70,100,41
413.56317,413.6644,68,100,41
413.66882,413.77005,68,100,41
413.77444,413.87567,65,100,41
413.88007,413.98132,65,100,41
413.98572,414.08694,68,100,41
414.09134,414.19257,68,100,41
414.197,414.29822,67,100,41
414.3026,414.40384,67,100,41
414.40823,414.5095,64,100,41
414.5139,414.6151,64,100,41
414.6195,414.72073,67,100,41
414.72516,414.8264,67,100,41
414.83078,414.932,65,100,41
414.93643,415.03766,65,100,41
415.04205,415.14328,61,100,41
415.14767,415.2489,61,100,41
415.25333,415.35315,65,100,41
415.35748,415.4573,65,100,41
415.46164,415.56146,64,100,41
415.56583,415.66565,64,100,41
415.66998,415.7698,60,100,41
415.77414,415.87396,60,100,41
415.87833,415.97815,70,100,41
415.98248,416.0823,70,100,41
416.08664,416.18646,68,100,41
416.19083,416.29065,68,100,41
416.29498,416.3948,65,100,41
416.39914,416.49896,65,100,41
416.50333,416.60315,68,100,41
416.60748,416.7073,68,100,41
416.71164,416.81146,67,100,41
416.81583,416.91565,67,100,41
416.91998,417.0198,64,100,41
417.02414,417.12396,64,100,41
417.12833,417.22815,70,100,41
417.23248,417.3323,70,100,41
417.33664,417.43646,68,100,41
417.44083,417.54065,68,100,41
417.54498,417.6448,65,100,41
417.64914,417.74896,65,100,41
417.75333,417.85315,68,100,41
417.85748,417.9573,68,100,41
417.96164,418.06146,67,100,41
418.06583,418.16565,67,100,41
418.16998,418.2698,64,100,41
418.27414,418.37396,64,100,41
418.37833,418.47815,70,100,41
418.48248,418.5823,70,100,41
418.58664,418.68646,68,100,41
418.69083,418.79065,68,100,41
418.79498,418.8948,65,100,41
418.89914,418.99896,65,100,41
419.00333,419.10178,68,100,41
419.10605,419.2045,68,100,41
419.2088,419.30725,67,100,41
419.31152,419.41,67,100,41
419.41428,419.51273,64,100,41
419.41428,419.51273,72,100,41
419.517,419.61548,64,100,41
419.517,419.61548,72,100,41
419.61975,419.7182,64,100,41
419.61975,419.7182,72,100,41
419.7225,419.82095,64,100,41
419.7225,419.82095,72,100,41
419.82523,419.92368,64,100,41
419.82523,419.92368,72,100,41
419.92798,420.02643,64,100,41
419.92798,420.02643,72,100,41
420.0307,420.12918,64,100,41
420.0307,420.12918,72,100,41
420.13345,420.2319,64,100,41
420.13345,420.2319,72,100,41
420.23618,420.33466,64,100,41
420.23618,420.33466,72,100,41
420.33893,420.43738,64,100,41
420.33893,420.43738,72,100,41
420.44165,420.54013,64,100,41
420.44165,420.54013,72,100,41
420.5444,420.64285,64,100,41
420.5444,420.64285,72,100,41
420.64716,420.7456,64,100,41
420.64716,420.7456,72,100,41
420.74988,420.84833,64,100,41
420.74988,420.84833,72,100,41
420.85263,420.95108,64,100,41
420.85263,420.95108,72,100,41
420.95535,421.05383,64,100,41
420.95535,421.05383,72,100,41
421.0581,421.15656,64,100,41
421.0581,421.15656,72,100,41
421.16083,421.2593,64,100,41
421.16083,421.2593,72,100,41
421.26358,421.36203,64,100,41
421.26358,421.36203,72,100,41
421.36633,421.46478,64,100,41
421.36633,421.46478,72,100,41
421.46906,421.6036,64,100,41
421.46906,421.6036,72,100,41
421.60794,421.7425,64,100,41
421.60794,421.7425,72,100,41
421.74683,421.88138,64,100,41
421.74683,421.88138,72,100,41
421.8857,422.02026,64,100,41
421.8857,422.02026,72,100,41
422.02463,422.15915,64,100,41
422.02463,422.15915,72,100,41
422.1635,422.29807,64,100,41
422.1635,422.29807,72,100,41
422.3024,422.43695,64,100,41
422.3024,422.43695,72,100,41
422.44128,422.57584,64,100,41
422.44128,422.57584,72,100,41
422.58017,422.71472,64,100,41
422.58017,422.71472,72,100,41
422.71906,422.92593,64,100,41
422.71906,422.92593,72,100,41
422.93033,423.13718,64,95,41
422.93033,423.13718,72,95,41
423.1416,423.34845,64,90,41
423.1416,423.34845,72,90,41
423.35287,423.55972,64,85,41
423.35287,423.55972,72,85,41
423.56412,423.771,64,80,41
423.56412,423.771,72,80,41
423.7754,423.98227,64,75,41
423.7754,423.98227,72,75,41
423.98666,424.09537,64,70,41
423.98666,424.09537,71,70,41
424.20404,424.31274,64,65,41
424.20404,424.31274,71,65,41
424.42145,424.53015,64,60,41
424.42145,424.53015,71,60,41
424.63882,424.74753,64,55,41
424.63882,424.74753,71,55,41
424.85623,424.96494,64,50,41
424.85623,424.96494,71,50,41
425.0736,425.1823,64,45,41
425.0736,425.1823,71,45,41
425.29102,425.50082,64,40,41
425.29102,425.50082,71,40,41
425.50528,425.71512,64,40,41
425.50528,425.71512,71,40,41
425.71957,425.9294,64,40,41
425.71957,425.9294,71,40,41
425.93387,426.14368,64,40,41
425.93387,426.14368,71,40,41
426.14816,426.35797,64,40,41
426.14816,426.35797,71,40,41
426.36243,426.57227,64,40,41
426.36243,426.57227,71,40,41
426.57672,426.78653,64,40,41
426.79102,427.00082,64,40,41
427.00528,427.21512,64,40,41
427.21957,427.4294,64,40,41
427.43387,427.64368,63,40,41
427.64816,427.85797,63,40,41
427.86243,428.07227,64,40,41
427.86243,428.07227,71,40,41
428.07672,428.28653,64,40,41
428.07672,428.28653,71,40,41
428.29102,428.50082,64,40,41
428.29102,428.50082,71,40,41
428.50528,428.71512,64,40,41
428.50528,428.71512,71,40,41
428.71957,428.9294,64,40,41
428.71957,428.9294,71,40,41
428.93387,429.14368,64,40,41
428.93387,429.14368,71,40,41
429.14816,429.35797,64,40,41
429.36243,429.57227,64,40,41
429.57672,429.78653,64,40,41
429.79102,430.00082,64,40,41
430.00528,430.21512,63,40,41
430.21957,430.42938,63,40,41
430.43387,430.64368,64,40,41
430.43387,430.64368,71,40,41
430.64813,430.85797,64,43,41
430.64813,430.85797,71,43,41
430.86243,431.07227,64,46,41
430.86243,431.07227,71,46,41
431.07672,431.28653,64,49,41
431.07672,431.28653,71,49,41
431.29102,431.50082,64,52,41
431.29102,431.50082,71,52,41
431.50528,431.71512,64,55,41
431.50528,431.71512,71,55,41
431.71957,431.92938,64,58,41
431.71957,431.92938,70,58,41
431.93387,432.14368,64,61,41
431.93387,432.14368,70,61,41
432.14813,432.35797,64,64,41
432.14813,432.35797,70,64,41
432.36243,432.57227,64,68,41
432.36243,432.57227,70,68,41
432.57672,432.78653,64,72,41
432.57672,432.78653,72,72,41
432.79102,433.00082,64,76,41
432.79102,433.00082,72,76,41
433.00528,433.21512,65,80,41
433.00528,433.21512,72,80,41
433.21957,433.42938,65,80,41
433.21957,433.42938,72,80,41
433.43387,433.64368,65,77,41
433.43387,433.64368,72,77,41
433.64813,433.85797,65,74,41
433.64813,433.85797,72,74,41
433.86243,434.07224,72,71,41
434.07672,434.28653,72,68,41
434.291,434.50082,71,64,41
434.50528,434.71512,71,60,41
434.71957,434.92938,71,56,41
434.93387,435.14368,71,52,41
435.14813,435.35797,71,48,41
435.36243,435.57224,71,44,41
435.57672,435.78653,71,40,41
435.791,436.00082,71,40,41
436.00528,436.21512,71,40,41
436.21957,436.42938,69,40,41
436.43387,436.64368,67,40,41
436.64813,436.85797,67,40,41
436.86243,437.07224,66,40,41
436.86243,437.07224,69,40,41
437.07672,437.28653,66,40,41
437.07672,437.28653,69,40,41
437.291,437.50082,66,40,41
437.291,437.50082,69,40,41
437.50528,437.71512,66,40,41
437.50528,437.71512,69,40,41
437.71957,437.92938,66,40,41
437.71957,437.92938,69,40,41
437.93387,438.14368,66,40,41
437.93387,438.14368,69,40,41
438.14813,438.35797,71,40,41
438.36243,438.57224,71,40,41
438.57672,438.78653,71,40,41
438.791,439.00082,69,40,41
439.00528,439.2151,67,40,41
439.21957,439.42938,67,40,41
439.43384,439.64368,64,40,41
439.43384,439.64368,67,40,41
439.64813,439.85797,64,40,41
439.64813,439.85797,67,40,41
439.86243,440.07224,64,40,41
439.86243,440.07224,67,40,41
440.07672,440.28653,64,40,41
440.07672,440.28653,67,40,41
440.291,440.50082,64,40,41
440.291,440.50082,67,40,41
440.50528,440.7151,64,40,41
440.50528,440.7151,67,40,41
440.71957,440.92938,65,40,41
440.93384,441.14368,65,43,41
441.14813,441.35797,65,46,41
441.36243,441.57224,67,49,41
441.57672,441.78653,69,52,41
441.791,442.00082,69,55,41
442.00528,442.2151,70,58,41
442.21957,442.42938,70,61,41
442.43384,442.64368,70,64,41
442.64813,442.85794,70,68,41
442.86243,443.07224,70,72,41
443.0767,443.28653,70,76,41
443.291,443.50082,70,80,41
443.50528,443.7151,70,80,41
443.71957,443.92938,70,80,41
443.93384,444.14368,70,80,41
444.14813,444.35794,67,80,41
444.36243,444.57224,67,75,41
444.5767,444.78653,65,70,41
444.791,445.00082,65,65,41
445.00528,445.2151,65,60,41
445.21957,445.42938,67,55,41
445.43384,445.64368,64,50,41
445.64813,445.85794,64,45,41
445.86243,446.07224,65,40,41
446.0767,446.28653,65,40,41
446.291,446.50082,65,43,41
446.50528,446.7151,67,46,41
446.71957,446.92938,69,49,41
446.93384,447.14368,69,52,41
447.14813,447.35794,70,56,41
447.36243,447.57224,70,60,41
447.5767,447.78653,70,64,41
447.791,448.0008,70,68,41
448.00528,448.2151,68,72,41
448.21954,448.42938,68,76,41
448.43384,448.64368,67,80,41
448.64813,448.85794,67,80,41
448.86243,449.07224,67,80,41
449.0767,449.28653,67,80,41
449.291,449.5008,67,80,41
449.50528,449.7151,67,80,41
449.71954,449.92938,68,80,41
449.93384,450.14368,68,80,41
450.14813,450.35794,68,80,41
450.36243,450.57224,68,80,41
450.5767,450.78653,65,80,41
450.791,451.0008,65,80,41
451.00528,451.2151,65,80,41
451.21954,451.42938,65,80,41
451.43384,451.64365,65,80,41
451.64813,451.85794,65,80,41
451.8624,452.07224,69,80,41
452.0767,452.28653,69,75,41
452.291,452.5008,67,70,41
452.50528,452.7151,67,65,41
452.71954,452.92938,67,60,41
452.93384,453.14365,67,55,41
453.14813,453.35794,64,50,41
453.3624,453.57224,64,45,41
453.5767,453.93384,62,40,41
455.291,455.71954,72,60,41
455.71954,456.14813,70,60,41
456.14813,456.50525,68,40,41
457.8624,458.291,72,60,41
458.291,458.71954,68,60,41
458.71954,459.0767,67,40,41
460.43384,460.8624,70,40,41
460.8624,461.21954,67,60,41
461.291,463.00525,66,80,41
463.00525,463.43384,65,80,41
463.43384,463.791,63,60,41
463.8624,465.1481,62,40,41
465.1481,468.8981,61,40,41
469.00525,471.46954,66,40,41
471.5767,474.04095,68,40,41
474.1481,474.50525,61,52,41
475.00525,475.4338,57,56,41
475.4338,476.1838,58,58,41
476.29095,476.71954,57,62,41
476.71954,477.46954,58,64,41
477.57666,478.00525,69,69,41
478.00525,478.75525,70,71,41
478.8624,479.2195,69,77,41
479.29095,480.1481,70,80,41
480.1481,480.57666,69,60,41
480.57666,481.00525,70,80,41
481.00525,481.4338,74,80,41
481.4338,481.79095,72,80,41
481.8624,482.29095,69,60,41
482.29095,482.6481,65,60,41
482.7195,483.1481,69,60,41
483.1481,483.57666,70,80,41
483.57666,484.00525,74,80,41
484.00525,484.36237,72,80,41
484.4338,484.86237,69,60,41
484.86237,485.2195,65,60,41
485.29095,486.1481,77,80,41
486.1481,486.57666,75,80,41
486.57666,486.9338,77,80,41
487.00522,487.4338,75,80,41
487.4338,487.79095,74,80,41
487.86237,488.50522,73,80,41
488.50522,488.61237,75,80,41
488.61237,488.7195,73,80,41
488.7195,489.1481,72,80,41
489.1481,489.50522,70,80,41
489.57666,490.4338,69,80,41
490.4338,490.79095,72,60,41
494.7195,495.14807,55,100,41
494.7195,495.14807,71,100,41
494.7195,495.14807,74,100,41
495.14807,495.57666,70,100,41
495.14807,495.57666,73,100,41
495.57666,495.9338,71,80,41
495.57666,495.9338,74,80,41
499.86237,500.29092,62,100,41
499.86237,500.29092,70,100,41
499.86237,500.29092,77,100,41
500.29092,500.7195,76,100,41
500.7195,501.07666,77,80,41
501.14807,501.3579,63,80,41
501.36237,501.78647,63,80,41
501.79092,502.00522,63,80,41
502.00522,502.21503,58,80,41
502.2195,502.64362,58,80,41
502.64807,503.07217,58,80,41
503.07666,503.50076,58,80,41
503.50522,503.92932,58,80,41
503.93378,504.35788,58,80,41
504.36237,504.78647,58,80,41
504.79092,505.00522,58,80,41
505.00522,505.21503,60,80,41
505.2195,505.64362,60,80,41
505.64807,505.86237,60,80,41
505.86237,506.07217,63,80,41
506.07663,506.50076,63,80,41
506.50522,506.92932,63,80,41
506.93378,507.35788,63,80,41
507.36237,507.57663,63,80,41
507.57663,507.78647,72,80,41
507.79092,508.00522,72,80,41
508.00522,508.21503,71,80,41
508.21948,508.43378,71,80,41
508.43378,508.64362,70,80,41
508.64807,508.85788,70,80,41
508.86237,509.07663,62,80,41
509.07663,509.29092,65,80,41
509.29092,509.50073,70,80,41
510.14807,510.36237,62,80,41
510.36237,510.57663,65,80,41
510.57663,510.78647,71,80,41
511.43378,511.64807,63,60,41
511.64807,511.86237,65,60,41
511.86237,512.07214,72,60,41
514.4338,514.86237,68,100,41
514.86237,515.2909,69,100,41
515.2909,515.6481,70,100,41
517.0052,517.4338,61,100,41
517.4338,517.86237,62,100,41
517.86237,518.61237,63,100,41
518.7195,519.1481,64,100,41
519.1481,519.8981,65,100,41
520.0052,520.4338,66,100,41
520.4338,521.1838,67,100,41
521.2909,521.6481,63,100,41
521.7195,522.15424,62,100,41
522.15424,522.58905,63,100,41
522.58905,522.95135,65,100,41
523.0238,523.9062,62,80,41
523.9062,524.2738,60,60,41
524.34735,524.715,58,40,41
529.86206,530.08264,50,60,41
530.08264,530.3032,62,60,41
530.3032,530.5238,50,60,41
530.5238,530.7444,51,60,41
530.7444,530.9604,63,60,41
531.1856,531.4062,53,60,41
531.4062,531.6268,65,60,41
531.6268,531.84735,53,60,41
531.84735,532.06793,55,60,41
532.06793,532.28394,67,60,41
532.2885,532.5091,56,60,41
532.5091,532.7297,68,60,41
532.7297,532.9503,66,60,41
532.9503,533.1709,57,60,41
533.1709,533.3915,58,60,41
533.3915,533.6075,65,60,41
533.61206,533.83264,66,60,41
533.83264,534.0532,57,60,41
534.0532,534.2738,58,60,41
534.2738,534.4944,65,60,41
534.4944,534.71497,66,60,41
534.71497,534.93097,57,60,41
534.9356,535.3032,58,60,41
540.45026,540.6709,48,60,41
540.6709,540.8915,60,60,41
540.8915,541.11206,48,60,41
541.11206,541.33264,48,60,41
541.33264,541.54865,60,60,41
541.7738,541.9944,48,60,41
541.9944,542.21497,60,60,41
542.21497,542.43555,48,60,41
542.43555,542.6562,49,60,41
542.6562,542.87213,61,60,41
543.09735,543.31793,50,60,41
543.31793,543.5385,62,60,41
543.5385,543.7591,50,60,41
543.7591,543.9797,51,60,41
543.9797,544.1957,63,60,41
544.42084,544.6415,52,60,41
544.6415,544.86206,64,68,41
544.86206,545.08264,52,76,41
545.08264,545.3032,53,84,41
545.3032,545.5192,65,92,41
545.5238,545.7367,53,100,41
545.7412,546.17145,53,100,41
545.7412,546.17145,65,100,41
546.17596,546.6094,53,100,41
546.17596,546.6094,65,100,41
546.61395,547.0605,53,100,41
546.61395,547.0605,65,100,41
547.0653,547.5409,53,100,41
547.0653,547.5409,65,100,41
547.5461,548.0631,53,76,41
547.5461,548.0631,65,76,41
548.0688,548.34155,53,52,41
548.0688,548.34155,65,52,41
548.34155,548.69867,54,40,41
548.34155,548.69867,66,40,41
554.7701,555.19867,50,40,41
555.19867,555.62726,51,53,41
555.62726,555.9844,52,66,41
556.0558,557.2344,53,80,41
557.34155,557.7701,53,40,41
557.7701,558.19867,55,60,41
558.19867,558.5558,56,80,41
558.62726,558.9844,57,60,41
565.0558,565.2701,50,60,41
565.2701,565.4844,55,60,41
565.4844,565.69867,59,60,41
565.69867,565.91296,62,60,41
565.91296,566.12726,67,60,41
566.12726,566.33704,71,60,41
566.3415,567.5201,74,60,41
567.62726,567.8415,50,60,41
567.8415,568.0558,55,61,41
568.0558,568.2701,59,62,41
568.2701,568.4844,62,63,41
568.4844,568.69867,67,64,41
568.69867,568.9085,71,65,41
568.91296,570.0915,74,66,41
570.19867,570.41296,53,73,41
570.41296,570.62726,58,74,41
570.62726,570.8415,62,75,41
570.8415,571.0558,65,76,41
571.0558,571.2701,70,77,41
571.2701,571.4799,74,78,41
571.4844,571.69867,77,80,41
571.69867,571.91296,78,80,41
571.91296,572.12726,79,80,41
572.12726,572.3415,74,80,41
572.3415,572.5558,75,80,41
572.5558,572.7656,67,80,41
572.7701,573.19867,67,80,41
573.19867,573.6272,65,80,41
573.6272,573.9844,63,60,41
574.0558,575.2344,62,60,41
574.0558,575.2344,74,60,41
575.3415,576.5201,68,70,41
575.3415,576.5201,77,70,41
576.6272,577.3772,67,81,41
576.6272,577.3772,75,81,41
577.4844,577.8415,67,88,41
577.91296,578.66296,65,92,41
578.7701,578.9844,53,100,41
578.9844,579.1942,62,100,41
579.19867,579.762,62,100,41
579.83246,580.0437,53,100,41
580.0437,580.255,62,100,41
580.255,580.46185,65,100,41
580.46625,581.10004,65,100,41
581.10004,581.30695,63,100,41
581.31134,581.66345,60,100,41
581.7339,582.2894,65,100,41
582.3589,582.5672,53,100,41
582.5672,582.7755,62,100,41
582.7755,582.9795,70,100,41
582.9839,583.6089,70,100,41
583.6089,583.81287,69,100,41
583.8172,584.1644,60,100,41
584.2338,584.7894,72,100,41
584.8588,585.0672,62,100,41
585.0672,585.2755,70,100,41
585.2755,585.4795,74,100,41
585.4838,586.1088,74,100,41
586.1088,586.213,72,100,41
586.3172,586.6644,74,100,41
586.7338,587.3588,74,100,41
587.3588,587.463,72,100,41
587.5672,587.9144,67,100,41
587.9838,588.6088,70,100,41
588.6088,588.713,62,100,41
588.8172,589.0255,62,100,41
589.0255,589.2295,63,100,41
589.2338,589.8588,63,100,41
589.8588,589.963,60,100,41
590.0672,590.2755,60,100,41
590.2755,590.4795,65,100,41
590.4838,591.9179,65,100,41
591.9222,592.1234,60,80,41
592.1277,592.3331,60,80,41
592.3331,592.53436,65,80,41
592.53864,592.8811,65,80,41
592.9496,594.38367,65,60,41
594.38794,594.5892,60,60,41
594.59344,594.7989,60,61,41
594.7989,595.0001,65,62,41
595.0044,595.20984,63,63,41
595.20984,595.4111,69,64,41
595.41534,595.7532,69,65,41
595.82074,596.15857,67,67,41
596.22614,596.56396,62,69,41
596.63153,596.9694,67,71,41
597.037,597.3748,69,73,41
597.4424,597.7802,70,75,41
597.8478,598.1856,70,77,41
598.2532,598.591,72,79,41
598.65857,598.9964,74,81,41
599.06396,599.4018,74,83,41
599.4694,599.80725,72,85,41
599.8748,600.21265,70,88,41
600.2802,600.6227,69,91,41
600.69116,601.0336,65,94,41
601.1021,601.4446,63,97,41
601.51306,602.76306,58,100,41
601.51306,602.76306,61,100,41
602.76306,603.92505,58,60,41
602.76306,603.92505,61,60,41
604.0307,605.3164,49,60,41
604.0307,605.3164,58,60,41
605.3164,606.5296,49,40,41
605.3164,606.5296,58,40,41
606.6399,606.9971,50,40,41
606.6399,606.9971,58,40,41
607.2828,607.3899,65,60,41
607.4971,607.71136,65,60,41
607.71136,607.92114,53,60,41
607.92566,608.2828,53,60,41
608.5685,608.67566,65,60,41
608.7828,608.9971,65,60,41
608.9971,609.2069,53,60,41
609.21136,609.5685,53,60,41
609.8542,609.96136,65,60,41
610.0685,610.2828,65,73,41
610.2828,610.4926,53,86,41
610.4971,610.92566,74,100,41
610.92566,611.3542,72,80,41
611.3542,611.71136,65,60,41
611.9971,612.1042,70,60,41
612.21136,612.4256,70,60,41
612.4256,612.63544,65,60,41
612.6399,612.9971,65,60,41
613.2828,613.3899,72,60,41
613.4971,613.71136,72,60,41
613.71136,613.92114,65,60,41
613.9256,614.2828,65,60,41
614.5685,614.6756,74,72,41
614.7828,614.9971,74,76,41
614.9971,615.20685,65,80,41
615.21136,615.5685,65,85,41
615.8542,615.96136,75,100,41
616.0685,616.2828,75,80,41
616.2828,616.4926,65,80,41
616.4971,616.8542,65,60,41
616.9256,617.3542,53,40,41
617.3542,617.7828,57,40,41
617.7828,618.1399,60,40,41
618.21136,618.6399,62,40,41
618.6399,619.0685,65,40,41
619.0685,619.4256,62,40,41
619.4971,619.9256,63,40,41
619.9256,620.3542,69,42,41
620.3542,620.71136,63,44,41
620.7828,621.2113,62,46,41
621.2113,621.6399,68,48,41
621.6399,621.9971,62,50,41
622.0685,622.4971,63,52,41
622.4971,622.9256,69,54,41
622.9256,623.2828,63,56,41
623.3542,623.7828,64,58,41
623.7828,624.2113,70,60,41
624.2113,624.5685,64,62,41
624.6399,625.0685,72,64,41
625.0685,625.4971,63,66,41
625.4971,625.8542,69,68,41
625.9256,626.3542,60,71,41
626.3542,626.7828,65,74,41
626.7828,627.1399,57,77,41
627.2113,627.8542,53,80,41
627.8542,627.9613,55,80,41
628.0685,628.4256,53,80,41
628.4971,629.1399,53,80,41
629.1399,629.2471,58,81,41
629.3542,629.7113,53,81,41
629.7828,630.4256,53,82,41
630.4256,630.5328,55,83,41
630.6399,630.997,53,83,41
631.0685,631.7113,53,84,41
631.7113,631.8185,62,86,41
631.9256,632.2828,53,86,41
632.3542,632.997,53,87,41
632.997,633.1042,55,89,41
633.2113,633.5685,53,89,41
633.6399,634.2828,64,90,41
634.2828,634.3899,65,92,41
634.497,634.8542,67,92,41
634.9256,635.5685,67,94,41
635.5685,635.6756,69,97,41
635.7828,636.1399,70,98,41
636.2113,636.8542,72,100,41
636.8542,636.9613,69,100,41
637.0685,637.4256,65,100,41
637.497,638.1399,70,100,41
638.1399,638.247,62,80,41
638.3542,638.7113,65,60,41
638.7827,639.4256,60,120,41
639.4256,639.5327,57,80,41
639.6399,639.997,53,60,41
640.0685,642.1042,53,60,41
642.6399,643.2827,70,40,41
643.2827,643.49255,62,40,41
643.497,644.13544,65,40,41
644.1399,644.34973,62,40,41
644.3542,644.997,65,40,41
644.997,645.20685,62,40,41
645.2113,645.5685,58,40,41
648.6399,649.0684,72,60,41
649.0684,649.497,74,60,41
649.497,649.9256,70,60,41
649.9256,650.3542,76,60,41
650.3542,650.7827,77,60,41
650.7827,651.1399,72,60,41
651.2113,651.6399,74,60,41
651.6399,652.0684,75,60,41
652.0684,652.4256,70,60,41
652.497,652.9256,72,60,41
652.9256,654.6399,74,60,41
654.6399,655.0684,75,86,41
655.0684,655.4256,76,93,41
655.497,655.9256,77,100,41
655.9256,656.3541,82,100,41
656.3541,656.7827,81,100,41
656.7827,657.2113,80,100,41
657.2113,657.6399,79,100,41
657.6399,657.997,78,100,41
658.0684,658.497,77,100,41
658.497,658.9256,75,100,41
658.9256,659.3541,74,100,41
659.3541,659.7827,79,100,41
659.7827,660.1399,72,100,41
660.2113,660.6399,78,100,41
660.6399,661.0684,69,100,41
661.0684,661.497,74,100,41
661.497,661.9256,72,100,41
661.9256,662.3541,70,100,41
662.3541,662.7113,65,100,41
662.7827,663.2113,67,100,41
663.2113,663.6399,69,100,41
663.6399,664.0684,74,100,41
664.0684,664.497,72,100,41
664.497,664.9256,70,100,41
664.9256,665.2827,65,100,41
665.3541,665.7827,67,100,41
665.7827,666.2113,69,100,41
666.2113,666.5684,72,100,41
666.63983,667.0684,65,100,41
667.0684,667.497,67,100,41
667.497,667.8541,70,100,41
667.9256,668.3541,63,100,41
668.3541,668.7827,65,100,41
668.7827,669.13983,70,100,41
669.2113,669.63983,67,100,41
669.63983,670.0684,70,100,41
670.0684,670.497,67,100,41
670.497,670.8541,64,100,41
670.9256,671.36035,63,100,41
671.36035,671.7951,60,80,41
671.7951,672.1575,57,60,41
672.2299,672.6777,63,80,41
672.6777,673.1254,60,80,41
673.1254,673.4986,57,60,41
673.5732,674.0347,63,60,41
674.0347,674.4963,62,60,41
674.4963,674.8809,60,40,41
674.9578,675.434,54,40,41
675.434,675.9102,53,40,41
675.9102,676.307,51,40,41
676.38635,676.80304,50,40,41
692.5078,692.83417,62,100,41
692.8411,693.3958,57,100,41
692.8411,693.3958,65,100,41
693.5911,694.1458,58,100,41
693.5911,694.1458,62,100,41
693.5911,694.1458,70,100,41
132.74242,132.94641,61,100,45
132.95074,133.15474,61,100,45
133.15907,133.36307,62,100,45
133.36742,133.72455,62,100,45
134.01027,134.2201,61,80,45
134.22455,134.43437,61,80,45
134.43884,134.64865,62,80,45
134.65312,135.01027,62,80,45
149.22453,149.58168,57,60,45
149.22453,149.58168,65,60,45
149.6531,150.01025,57,60,45
149.6531,150.01025,65,60,45
150.51025,150.86739,55,60,45
150.51025,150.86739,64,60,45
150.93883,151.29596,55,61,45
150.93883,151.29596,64,61,45
151.79596,152.1531,54,63,45
151.79596,152.1531,63,63,45
152.22453,152.58168,54,64,45
152.22453,152.58168,63,64,45
153.08168,153.43881,55,66,45
153.08168,153.43881,64,66,45
153.51025,153.86739,55,67,45
153.51025,153.86739,64,67,45
154.36739,154.72453,56,69,45
154.36739,154.72453,65,69,45
154.79596,155.1531,56,70,45
154.79596,155.1531,65,70,45
155.6531,156.01024,55,72,45
155.6531,156.01024,64,72,45
156.08168,156.43881,55,73,45
156.08168,156.43881,64,73,45
156.93881,157.29596,55,76,45
156.93881,157.29596,64,76,45
157.36739,157.72453,55,78,45
157.36739,157.72453,64,78,45
157.79596,158.1531,55,80,45
157.79596,158.1531,64,80,45
157.79596,158.1531,70,80,45
158.65309,159.01024,55,80,45
158.65309,159.01024,64,80,45
159.08167,159.43378,57,80,45
159.08167,159.43378,65,80,45
159.08167,159.43378,72,80,45
159.92674,160.27885,57,80,45
159.92674,160.27885,65,80,45
159.92674,160.27885,69,80,45
160.34927,160.70139,55,81,45
160.34927,160.70139,64,81,45
160.34927,160.70139,70,81,45
161.19435,161.54646,55,83,45
161.19435,161.54646,64,83,45
161.61688,161.9641,57,84,45
161.61688,161.9641,63,84,45
161.61688,161.9641,69,84,45
162.45021,162.79744,57,86,45
162.45021,162.79744,63,86,45
162.45021,162.79744,69,86,45
162.86688,163.2141,55,87,45
162.86688,163.2141,64,87,45
162.86688,163.2141,70,87,45
163.70021,164.04742,55,89,45
163.70021,164.04742,64,89,45
164.11688,164.45934,62,90,45
164.11688,164.45934,71,90,45
164.9388,165.28125,62,92,45
164.9388,165.28125,74,92,45
165.34975,165.69221,62,93,45
165.34975,165.69221,74,93,45
166.17166,166.51413,62,95,45
166.17166,166.51413,77,95,45
166.58263,166.9251,64,96,45
166.58263,166.9251,67,96,45
166.58263,166.9251,79,96,45
167.40454,167.74701,64,98,45
167.40454,167.74701,72,98,45
167.81549,168.15796,65,100,45
167.81549,168.15796,77,100,45
168.63742,168.97987,65,60,45
168.63742,168.97987,69,60,45
169.04837,169.3956,60,60,45
169.04837,169.3956,67,60,45
169.8817,170.22893,60,60,45
169.8817,170.22893,64,60,45
170.29837,170.64558,57,60,45
170.29837,170.64558,65,60,45
171.1317,171.47893,60,52,45
171.54837,171.90048,57,48,45
171.54837,171.90048,65,48,45
172.39343,172.74554,60,40,45
173.23851,173.59062,60,40,45
174.08357,174.44072,60,40,45
175.3693,175.73161,60,40,45
178.41916,178.7868,53,40,45
178.41916,178.7868,60,40,45
312.1015,312.30548,61,100,45
312.3098,312.51382,61,100,45
312.51816,312.72214,62,100,45
312.7265,313.08365,62,100,45
313.36935,313.57916,61,80,45
313.58362,313.79346,61,80,45
313.7979,314.00775,62,80,45
314.0122,314.36935,62,80,45
328.58362,328.94077,57,60,45
328.58362,328.94077,65,60,45
329.01218,329.36932,57,60,45
329.01218,329.36932,65,60,45
329.86932,330.22647,55,60,45
329.86932,330.22647,64,60,45
330.2979,330.65503,55,61,45
330.2979,330.65503,64,61,45
331.15503,331.51218,54,63,45
331.15503,331.51218,63,63,45
331.58362,331.94077,54,64,45
331.58362,331.94077,63,64,45
332.44077,332.7979,55,66,45
332.44077,332.7979,64,66,45
332.86932,333.22647,55,67,45
332.86932,333.22647,64,67,45
333.72647,334.08362,56,69,45
333.72647,334.08362,65,69,45
334.15503,334.51218,56,70,45
334.15503,334.51218,65,70,45
335.01218,335.36932,55,72,45
335.01218,335.36932,64,72,45
335.44077,335.79788,55,73,45
335.44077,335.79788,64,73,45
336.29788,336.65503,55,76,45
336.29788,336.65503,64,76,45
336.72647,337.08362,55,78,45
336.72647,337.08362,64,78,45
337.15503,337.51218,55,80,45
337.15503,337.51218,64,80,45
337.15503,337.51218,70,80,45
338.01218,338.36932,55,80,45
338.01218,338.36932,64,80,45
338.44077,338.79288,57,80,45
338.44077,338.79288,65,80,45
338.44077,338.79288,72,80,45
339.28583,339.63794,57,80,45
339.28583,339.63794,65,80,45
339.28583,339.63794,69,80,45
339.70834,340.06046,55,81,45
339.70834,340.06046,64,81,45
339.70834,340.06046,70,81,45
340.55344,340.90555,55,83,45
340.55344,340.90555,64,83,45
340.97595,341.32318,57,84,45
340.97595,341.32318,63,84,45
340.97595,341.32318,69,84,45
341.8093,342.15652,57,86,45
341.8093,342.15652,63,86,45
341.8093,342.15652,69,86,45
342.22595,342.57318,55,87,45
342.22595,342.57318,64,87,45
342.22595,342.57318,70,87,45
343.0593,343.40652,55,89,45
343.0593,343.40652,64,89,45
343.47595,343.81842,62,90,45
343.47595,343.81842,71,90,45
344.29788,344.64035,62,92,45
344.29788,344.64035,74,92,45
344.70883,345.0513,62,93,45
344.70883,345.0513,74,93,45
345.53076,345.8732,62,95,45
345.53076,345.8732,77,95,45
345.9417,346.28418,64,96,45
345.9417,346.28418,67,96,45
345.9417,346.28418,79,96,45
346.7636,347.10608,64,98,45
346.7636,347.10608,72,98,45
347.1746,347.51703,65,100,45
347.1746,347.51703,77,100,45
347.9965,348.33896,65,60,45
347.9965,348.33896,69,60,45
348.40744,348.75467,60,60,45
348.40744,348.75467,67,60,45
349.24078,349.588,60,60,45
349.24078,349.588,64,60,45
349.65744,350.00467,57,60,45
349.65744,350.00467,65,60,45
350.49078,350.838,60,52,45
350.90744,351.25955,57,48,45
350.90744,351.25955,65,48,45
351.75253,352.10464,60,40,45
352.5976,352.9497,60,40,45
353.44266,353.7998,60,40,45
354.72836,355.0907,60,40,45
357.77823,358.14587,53,40,45
357.77823,358.14587,60,40,45
559.91296,560.1228,54,60,45
560.12726,560.33704,57,63,45
560.34155,560.55133,62,66,45
560.5558,560.7656,66,69,45
560.7701,560.9799,69,72,45
560.9844,561.1942,74,76,45
561.19867,561.5558,62,80,45
561.19867,561.5558,78,80,45
562.4844,562.6942,54,60,45
562.69867,562.9085,57,60,45
562.91296,563.1228,62,64,45
563.12726,563.33704,66,68,45
563.34155,563.55133,69,72,45
563.5558,563.7656,74,76,45
563.7701,564.12726,62,80,45
563.7701,564.12726,78,80,45
677.13635,677.38116,62,60,45
677.38635,677.63116,62,60,45
677.63635,677.88116,63,60,45
677.88635,678.30304,63,60,45
678.63635,678.88116,63,60,45
678.88635,679.13116,63,60,45
679.13635,679.38116,64,60,45
679.38635,679.80304,64,60,45
680.13635,680.38116,64,60,45
680.38635,680.63116,64,60,45
680.63635,680.88116,65,60,45
680.88635,681.13116,65,60,45
681.13635,681.38116,66,60,45
681.38635,681.63116,66,60,45
681.63635,681.88116,67,60,45
681.88635,682.13116,65,60,45
682.13635,682.38116,63,60,45
682.38635,682.80304,62,60,45
683.38635,683.80304,58,60,45
683.38635,683.80304,62,60,45
683.88635,684.30304,57,60,45
683.88635,684.30304,63,60,45
683.88635,684.30304,69,60,45
684.88635,685.30304,57,60,45
684.88635,685.30304,63,60,45
684.88635,685.30304,69,60,45
685.38635,685.80304,57,60,45
685.38635,685.80304,63,60,45
685.38635,685.80304,69,60,45
686.38635,686.80304,57,72,45
686.38635,686.80304,63,72,45
686.38635,686.80304,69,72,45
686.88635,687.30304,57,79,45
686.88635,687.30304,63,79,45
687.38635,687.80304,57,86,45
687.38635,687.80304,63,86,45
687.88635,688.30304,57,93,45
687.88635,688.30304,63,93,45
688.38635,688.81744,58,100,45
688.38635,688.81744,62,100,45
689.42084,689.8519,60,100,45
689.42084,689.8519,63,100,45
689.42084,689.8519,69,100,45
689.9381,690.39264,62,90,45
689.9381,690.39264,70,90,45
691.029,691.4836,57,70,45
691.029,691.4836,65,70,45
691.57446,692.07446,58,60,45
691.57446,692.07446,62,60,45
29.918518,30.132805,60,100,41
30.132805,30.34709,63,100,41
30.34709,30.561375,60,90,41
30.561375,30.77566,56,80,41
30.77566,30.989946,51,70,41
30.989946,31.196812,48,60,41
31.201214,31.619347,56,60,41
31.623749,32.04188,56,61,41
32.046284,32.464417,56,63,41
32.46882,32.88695,56,65,41
32.891354,33.309486,56,67,41
33.31389,33.525154,56,69,41
33.525154,33.72915,61,69,41
33.73349,34.145813,61,70,41
34.150154,34.56248,61,72,41
34.566822,34.979145,61,74,41
34.983486,35.395813,61,76,41
35.400154,35.812477,61,78,41
35.81682,36.02515,61,80,41
36.02515,36.229145,60,81,41
36.233486,36.64581,60,82,41
36.65015,37.062477,60,84,41
37.06682,37.47914,60,86,41
37.483482,37.691814,60,88,41
37.691814,37.89581,58,89,41
37.90015,38.108482,58,90,41
38.108482,38.312473,61,91,41
38.316814,38.525146,61,92,41
38.525146,38.732014,66,93,41
38.736416,38.94768,66,94,41
38.94768,39.15895,70,95,41
39.15895,39.370216,66,96,41
39.370216,39.581486,63,97,41
39.581486,39.788353,64,98,41
39.79275,40.00704,58,100,41
40.00704,40.221325,62,100,41
40.221325,40.431145,65,100,41
41.078465,41.29275,59,80,41
41.29275,41.50704,62,80,41
41.50704,41.716858,65,80,41
42.364178,42.578465,60,80,41
42.578465,42.79275,63,80,41
42.79275,43.00257,69,80,41
45.364178,45.792747,68,60,41
45.792747,46.221317,69,60,41
46.221317,46.57846,70,60,41
47.9356,48.364174,49,60,41
48.364174,48.792744,50,63,41
48.792744,49.542744,51,66,41
49.649887,50.078457,52,73,41
50.078457,50.828457,53,76,41
50.9356,51.36417,54,84,41
51.36417,52.11417,55,88,41
52.221313,52.578453,51,96,41
52.649883,53.084663,50,100,41
53.084663,53.519447,51,100,41
53.519447,53.881763,53,100,41
53.954227,55.16746,53,80,41
55.277756,55.493748,53,40,41
55.498344,55.934925,53,40,41
55.93952,56.376102,53,40,41
56.380695,56.817276,53,40,41
56.821873,57.258453,53,40,41
57.26305,57.69963,53,40,41
57.704224,58.140804,53,40,41
58.1454,58.58198,53,40,41
58.58658,59.02316,53,40,41
59.027752,59.464333,53,40,41
59.46893,59.90551,53,40,41
59.910107,60.346687,53,40,41
60.35128,60.567272,53,40,41
60.57187,60.939514,53,40,41
65.86598,66.08197,48,40,41
65.86598,66.08197,60,40,41
66.08657,66.52315,48,40,41
66.08657,66.52315,60,40,41
66.52775,66.964325,48,40,41
66.52775,66.964325,60,40,41
66.96892,67.4055,48,40,41
66.96892,67.4055,60,40,41
67.410095,67.84668,48,40,41
67.410095,67.84668,60,40,41
67.85127,68.28786,48,40,41
67.85127,68.28786,60,40,41
68.29245,68.72903,48,40,41
68.29245,68.72903,60,40,41
68.73363,69.170204,48,40,41
68.73363,69.170204,60,40,41
69.174805,69.61138,48,40,41
69.174805,69.61138,60,40,41
69.615974,70.05256,48,40,41
69.615974,70.05256,60,40,41
70.05715,70.49374,48,40,41
70.05715,70.49374,60,40,41
70.49833,70.934906,48,40,41
70.49833,70.934906,60,40,41
70.93951,71.155495,48,40,41
70.93951,71.155495,60,40,41
71.160095,71.52774,48,40,41
71.160095,71.52774,60,40,41
85.678246,86.10682,57,80,41
86.10682,86.535385,58,80,41
85.678246,86.85681,50,80,41
86.535385,86.89253,59,80,41
86.96396,88.142525,48,80,41
86.96396,88.142525,60,80,41
88.24967,88.678246,60,80,41
88.678246,89.10681,62,67,41
88.24967,89.42824,53,80,41
89.10681,89.46396,63,54,41
89.535385,89.892525,52,40,41
89.535385,89.892525,64,40,41
95.96395,97.14252,62,60,41
95.96395,97.14252,69,60,41
97.249664,97.89252,57,68,41
97.89252,98.10234,59,72,41
98.106804,98.46394,61,73,41
98.53538,99.71394,62,75,41
98.53538,99.71394,69,75,41
99.82109,100.46394,61,83,41
100.46394,100.67377,62,87,41
100.67823,101.03537,64,88,41
101.106804,101.32108,48,91,41
101.32108,101.53537,53,92,41
101.53537,101.74966,57,93,41
101.74966,101.96394,60,94,41
101.96394,102.17823,65,96,41
102.17823,102.38805,69,98,41
102.39252,102.6068,72,100,41
102.6068,102.82108,73,100,41
102.82108,103.03537,74,100,41
103.03537,103.24966,69,100,41
103.24966,103.46394,70,100,41
103.46394,103.67376,62,100,41
103.67823,104.53537,65,80,41
104.53537,104.89251,64,60,41
104.96394,105.6068,69,60,41
105.6068,105.81662,71,63,41
105.82108,106.17822,73,64,41
106.24966,107.42822,63,66,41
106.24966,107.42822,72,66,41
107.53536,108.17822,62,74,41
107.53536,108.17822,65,74,41
108.17822,108.38805,66,78,41
108.39251,109.03707,67,80,41
109.041664,109.26225,68,80,41
109.26225,109.48284,69,80,41
109.48284,109.69884,70,80,41
109.70343,110.08222,67,60,41
110.29687,110.43575,48,40,41
110.43575,110.57464,57,40,41
110.57464,110.71353,60,40,41
110.71353,110.85242,48,40,41
110.85242,110.99131,57,40,41
110.99131,111.1953,60,40,41
111.54686,111.68575,48,40,41
111.68575,111.82464,55,40,41
111.82464,111.96353,60,40,41
111.96353,112.10242,48,40,41
112.10242,112.2413,55,40,41
112.2413,112.4453,60,40,41
112.793106,112.928246,48,40,41
112.928246,113.06338,57,40,41
113.06338,113.19851,60,40,41
113.19851,113.33365,48,40,41
113.33365,113.46878,57,41,41
113.46878,113.66726,60,42,41
114.00932,114.144455,48,45,41
114.144455,114.279594,55,46,41
114.279594,114.41473,60,47,41
114.41473,114.549866,48,48,41
114.549866,114.685,58,49,41
114.685,114.88348,64,50,41
115.22554,115.36067,50,53,41
115.36067,115.495804,57,54,41
115.495804,115.63094,62,55,41
115.63094,115.766075,50,56,41
115.766075,115.901215,57,57,41
115.901215,116.09969,62,58,41
116.44175,116.57689,53,61,41
116.57689,116.71202,62,62,41
116.71202,116.84716,65,63,41
116.84716,116.98229,53,64,41
116.98229,117.117424,62,65,41
117.117424,117.31591,65,66,41
117.65797,117.7931,53,69,41
117.7931,117.92824,62,70,41
117.92824,118.06337,65,71,41
118.06337,118.19851,53,72,41
118.19851,118.33364,62,73,41
118.33364,118.53212,67,74,41
118.87418,119.009315,57,77,41
119.009315,119.144455,65,78,41
119.144455,119.27959,69,79,41
119.27959,119.41472,57,80,41
119.41472,119.54986,60,81,41
119.54986,119.74834,65,82,41
120.0904,120.22553,55,87,41
120.22553,120.360664,64,88,41
120.360664,120.495804,67,89,41
120.495804,120.630936,55,90,41
120.630936,120.766075,58,91,41
120.766075,120.964554,64,92,41
121.30661,121.44175,48,100,41
121.44175,121.57688,57,100,41
121.57688,121.71201,60,100,41
121.71201,121.84715,48,100,41
121.84715,121.982285,57,100,41
121.982285,122.18076,60,100,41
122.52283,122.65796,48,80,41
122.65796,122.7931,55,80,41
122.7931,122.92823,60,80,41
122.92823,123.06337,48,80,41
123.06337,123.1985,55,80,41
123.1985,123.39698,60,80,41
123.739044,123.874176,48,60,41
123.874176,124.009315,57,60,41
124.009315,124.14445,60,60,41
124.14445,124.27958,48,60,41
124.27958,124.41472,57,60,41
124.41472,124.6132,60,60,41
124.95525,125.09039,48,60,41
125.09039,125.225525,55,60,41
125.225525,125.360664,60,60,41
125.360664,125.4958,48,60,41
125.4958,125.630936,58,60,41
125.630936,125.829414,64,60,41
126.17147,126.30661,50,62,41
126.30661,126.44174,57,62,41
126.44174,126.57687,62,62,41
126.57687,126.71201,50,62,41
126.71201,126.847145,57,62,41
126.847145,127.04562,62,62,41
127.38769,127.52282,53,65,41
127.52282,127.65796,62,66,41
127.65796,127.79309,65,67,41
127.79309,127.92823,53,68,41
127.92823,128.06335,62,69,41
128.06335,128.26184,65,69,41
128.6039,128.73904,53,72,41
128.73904,128.87418,62,73,41
128.87418,129.00931,65,74,41
129.00931,129.14444,53,75,41
129.14444,129.27957,62,76,41
129.27957,129.47806,69,77,41
129.82011,129.95525,57,80,41
129.95525,130.0904,65,81,41
130.0904,130.22552,69,82,41
130.22552,130.36066,57,83,41
130.36066,130.49579,60,84,41
130.49579,130.69427,65,85,41
131.03633,131.17146,55,89,41
131.17146,131.3066,64,90,41
131.3066,131.44174,67,91,41
131.44174,131.57687,55,92,41
131.57687,131.712,58,93,41
131.712,131.91049,64,94,41
132.11742,132.46463,56,100,41
132.11742,132.46463,65,100,41
142.58168,142.7915,53,60,41
142.79597,143.01025,53,60,41
143.01025,143.22008,48,60,41
143.22455,143.58168,48,60,41
143.8674,144.07722,55,60,41
144.08168,144.29597,55,63,41
144.29597,144.5058,48,66,41
144.51025,144.8674,48,69,41
145.1531,145.36293,57,78,41
145.3674,145.58168,57,81,41
145.58168,145.7915,48,84,41
145.79597,146.1531,48,88,41
146.43883,146.64865,58,100,41
146.6531,146.8674,58,80,41
146.8674,147.07722,48,80,41
147.08168,147.43883,48,60,41
147.72453,147.93436,60,40,41
147.93883,148.1531,60,40,41
148.1531,148.36293,48,40,41
148.3674,148.72453,48,40,41
149.01025,149.22008,57,40,41
149.22453,149.43883,57,40,41
149.43883,149.64865,48,40,41
149.6531,150.01025,48,40,41
150.29596,150.50578,55,40,41
150.51025,150.72453,55,41,41
150.72453,150.93436,48,42,41
150.93883,151.29596,48,43,41
151.58168,151.7915,54,46,41
151.79596,152.01025,54,47,41
152.01025,152.22006,48,48,41
152.22453,152.58168,48,49,41
152.86739,153.07721,55,52,41
153.08168,153.29596,55,53,41
153.29596,153.50578,48,54,41
153.51025,153.86739,48,55,41
154.1531,154.36293,56,58,41
154.36739,154.58168,56,59,41
154.58168,154.79149,48,60,41
154.79596,155.1531,48,61,41
155.43881,155.64864,55,64,41
155.6531,155.86739,55,65,41
155.86739,156.07721,48,66,41
156.08168,156.43881,48,67,41
156.72453,156.93436,58,71,41
156.93881,157.1531,58,72,41
157.1531,157.36292,48,74,41
157.36739,157.72453,48,76,41
157.79596,158.43881,48,80,41
158.43881,158.64864,50,80,41
158.65309,159.01024,48,80,41
159.08167,159.71547,48,80,41
159.71547,159.92233,53,81,41
159.92674,160.27885,48,81,41
160.34927,160.98308,48,82,41
160.98308,161.18994,50,83,41
161.19435,161.54646,48,83,41
161.61688,162.24188,48,84,41
162.24188,162.44588,57,86,41
162.45021,162.79744,48,86,41
162.86688,163.49188,48,87,41
163.49188,163.69588,50,89,41
163.70021,164.04742,48,89,41
164.11688,164.7333,48,90,41
164.11688,164.7333,59,90,41
164.7333,164.93451,48,92,41
164.7333,164.93451,60,92,41
164.9388,165.28125,48,92,41
164.9388,165.28125,62,92,41
165.34975,165.96619,48,94,41
165.34975,165.96619,62,94,41
165.96619,166.16739,48,97,41
165.96619,166.16739,64,97,41
166.17166,166.51413,48,98,41
166.17166,166.51413,65,98,41
166.58263,167.19907,48,100,41
166.58263,167.19907,67,100,41
167.19907,167.40025,48,100,41
167.19907,167.40025,64,100,41
167.40454,167.74701,48,100,41
167.40454,167.74701,60,100,41
167.81549,168.53467,48,100,41
168.63742,168.97987,48,80,41
169.04837,169.67337,55,92,41
169.67337,169.87737,52,60,41
169.8817,170.29837,48,60,41
170.29837,171.54837,48,60,41
171.54837,172.28781,48,50,41
172.81598,173.44977,65,64,41
173.44977,173.65665,57,40,41
173.66104,174.29787,60,40,41
174.29787,174.50769,57,40,41
174.51215,175.155,60,40,41
175.155,175.36482,57,40,41
175.3693,175.73161,53,40,41
209.2776,209.49188,60,100,41
209.49188,209.70618,63,100,41
209.70618,209.92046,60,90,41
209.92046,210.13474,56,80,41
210.13474,210.34903,51,70,41
210.34903,210.5559,48,60,41
210.56029,210.97842,56,60,41
210.98283,211.40097,56,61,41
211.40536,211.8235,56,63,41
211.8279,212.24603,56,65,41
212.25043,212.66856,56,67,41
212.67297,212.88423,56,69,41
212.88423,213.08823,61,69,41
213.09258,213.5049,61,70,41
213.50923,213.92155,61,72,41
213.9259,214.33823,61,74,41
214.34258,214.7549,61,76,41
214.75923,215.17155,61,78,41
215.1759,215.38423,61,80,41
215.38423,215.58823,60,81,41
215.59256,216.0049,60,82,41
216.00923,216.42155,60,84,41
216.4259,216.83823,60,86,41
216.84256,217.0509,60,88,41
217.0509,217.25488,58,89,41
217.25923,217.46756,58,90,41
217.46756,217.67155,61,91,41
217.6759,217.88423,61,92,41
217.88423,218.0911,66,93,41
218.09549,218.30676,66,94,41
218.30676,218.51804,70,95,41
218.51804,218.7293,66,96,41
218.7293,218.94057,63,97,41
218.94057,219.14743,64,98,41
219.15184,219.36612,58,100,41
219.36612,219.5804,62,100,41
219.5804,219.79022,65,100,41
220.43755,220.65182,59,80,41
220.65182,220.86612,62,80,41
220.86612,221.07594,65,80,41
221.72327,221.93755,60,80,41
221.93755,222.15182,63,80,41
222.15182,222.36165,69,80,41
224.72325,225.15182,68,60,41
225.15182,225.5804,69,60,41
225.5804,225.93755,70,60,41
227.29468,227.72325,49,60,41
227.72325,228.15182,50,63,41
228.15182,228.90182,51,66,41
229.00897,229.43753,52,73,41
229.43753,230.18753,53,76,41
230.29468,230.72325,54,84,41
230.72325,231.47325,55,88,41
231.5804,231.93753,51,96,41
232.00896,232.44374,50,100,41
232.44374,232.87852,51,100,41
232.87852,233.24084,53,100,41
233.31331,234.52655,53,80,41
234.63684,234.85283,53,40,41
234.85742,235.294,53,40,41
235.2986,235.73518,53,40,41
235.73978,236.17636,53,40,41
236.18095,236.61754,53,40,41
236.62213,237.05872,53,40,41
237.06331,237.4999,53,40,41
237.50449,237.94106,53,40,41
237.94566,238.38223,53,40,41
238.38684,238.82341,53,40,41
238.828,239.26459,53,40,41
239.26918,239.70576,53,40,41
239.71036,239.92636,53,40,41
239.93095,240.2986,53,40,41
245.22507,245.44106,48,40,41
245.22507,245.44106,60,40,41
245.44565,245.88223,48,40,41
245.44565,245.88223,60,40,41
245.88683,246.32341,48,40,41
245.88683,246.32341,60,40,41
246.328,246.76459,48,40,41
246.328,246.76459,60,40,41
246.76918,247.20576,48,40,41
246.76918,247.20576,60,40,41
247.21036,247.64693,48,40,41
247.21036,247.64693,60,40,41
247.65154,248.0881,48,40,41
247.65154,248.0881,60,40,41
248.09271,248.52928,48,40,41
248.09271,248.52928,60,40,41
248.53387,248.97046,48,40,41
248.53387,248.97046,60,40,41
248.97505,249.41164,48,40,41
248.97505,249.41164,60,40,41
249.41623,249.85281,48,40,41
249.41623,249.85281,60,40,41
249.8574,250.29399,48,40,41
249.8574,250.29399,60,40,41
250.29858,250.51457,48,40,41
250.29858,250.51457,60,40,41
250.51918,250.88683,48,40,41
250.51918,250.88683,60,40,41
265.03732,265.4659,57,80,41
265.4659,265.89447,58,80,41
265.03732,266.21588,50,80,41
265.89447,266.25162,59,80,41
266.32303,267.50162,48,80,41
266.32303,267.50162,60,80,41
267.60876,268.03732,60,80,41
268.03732,268.46588,62,67,41
267.60876,268.78732,53,80,41
268.46588,268.82303,63,54,41
268.89447,269.25162,52,40,41
268.89447,269.25162,64,40,41
275.32303,276.5016,62,60,41
275.32303,276.5016,69,60,41
276.60873,277.2516,57,68,41
277.2516,277.46143,59,72,41
277.46588,277.82303,61,73,41
277.89447,279.07303,62,75,41
277.89447,279.07303,69,75,41
279.18018,279.82303,61,83,41
279.82303,280.03284,62,87,41
280.03732,280.39444,64,88,41
280.46588,280.68018,48,91,41
280.68018,280.89444,53,92,41
280.89444,281.10873,57,93,41
281.10873,281.32303,60,94,41
281.32303,281.53732,65,96,41
281.53732,281.74713,69,98,41
281.7516,281.96588,72,100,41
281.96588,282.18018,73,100,41
282.18018,282.39444,74,100,41
282.39444,282.60873,69,100,41
282.60873,282.82303,70,100,41
282.82303,283.03284,62,100,41
283.03732,283.89444,65,80,41
283.89444,284.2516,64,60,41
284.32303,284.96588,69,60,41
284.96588,285.1757,71,63,41
285.18018,285.5373,73,64,41
285.60873,286.7873,63,66,41
285.60873,286.7873,72,66,41
286.89444,287.5373,62,74,41
286.89444,287.5373,65,74,41
287.5373,287.74713,66,78,41
287.7516,288.39615,67,80,41
288.40076,288.62134,68,80,41
288.62134,288.84192,69,80,41
288.84192,289.05792,70,80,41
289.0625,289.4413,67,60,41
289.65594,289.79483,48,40,41
289.79483,289.93372,57,40,41
289.93372,290.0726,60,40,41
290.0726,290.2115,48,40,41
290.2115,290.3504,57,40,41
290.3504,290.55438,60,40,41
290.90594,291.04483,48,40,41
291.04483,291.18372,55,40,41
291.18372,291.3226,60,40,41
291.3226,291.4615,48,40,41
291.4615,291.60037,55,40,41
291.60037,291.80438,60,40,41
292.1522,292.28732,48,40,41
292.28732,292.42245,57,40,41
292.42245,292.5576,60,40,41
292.5576,292.69272,48,40,41
292.69272,292.82785,57,41,41
292.82785,293.02634,60,42,41
293.3684,293.50354,48,45,41
293.50354,293.63867,55,46,41
293.63867,293.7738,60,47,41
293.7738,293.90894,48,48,41
293.90894,294.04407,58,49,41
294.04407,294.24255,64,50,41
294.58463,294.71976,50,53,41
294.71976,294.8549,57,54,41
294.8549,294.99002,62,55,41
294.99002,295.12515,50,56,41
295.12515,295.26028,57,57,41
295.26028,295.45877,62,58,41
295.80084,295.93597,53,61,41
295.93597,296.0711,62,62,41
296.0711,296.20624,65,63,41
296.20624,296.34137,53,64,41
296.34137,296.4765,62,65,41
296.4765,296.675,65,66,41
297.01706,297.1522,53,69,41
297.1522,297.28732,62,70,41
297.28732,297.42245,65,71,41
297.42245,297.5576,53,72,41
297.5576,297.69272,62,73,41
297.69272,297.8912,67,74,41
298.23328,298.3684,57,77,41
298.3684,298.50354,65,78,41
298.50354,298.63867,69,79,41
298.63867,298.7738,57,80,41
298.7738,298.90894,60,81,41
298.90894,299.10742,65,82,41
299.44946,299.58463,55,87,41
299.58463,299.71976,64,88,41
299.71976,299.8549,67,89,41
299.8549,299.99002,55,90,41
299.99002,300.12515,58,91,41
300.12515,300.32364,64,92,41
300.66568,300.80084,48,100,41
300.80084,300.93597,57,100,41
300.93597,301.0711,60,100,41
301.0711,301.20624,48,100,41
301.20624,301.34137,57,100,41
301.34137,301.53986,60,100,41
301.8819,302.01703,48,80,41
302.01703,302.1522,55,80,41
302.1522,302.28732,60,80,41
302.28732,302.42245,48,80,41
302.42245,302.5576,55,80,41
302.5576,302.75607,60,80,41
303.0981,303.23325,48,60,41
303.23325,303.3684,57,60,41
303.3684,303.50354,60,60,41
303.50354,303.63867,48,60,41
303.63867,303.7738,57,60,41
303.7738,303.9723,60,60,41
304.31433,304.44946,48,60,41
304.44946,304.5846,55,60,41
304.5846,304.71976,60,60,41
304.71976,304.8549,48,60,41
304.8549,304.99002,58,60,41
304.99002,305.1885,64,60,41
305.53055,305.66568,50,62,41
305.66568,305.8008,57,62,41
305.8008,305.93594,62,62,41
305.93594,306.0711,50,62,41
306.0711,306.20624,57,62,41
306.20624,306.4047,62,62,41
306.74677,306.8819,53,65,41
306.8819,307.01703,62,66,41
307.01703,307.15216,65,67,41
307.15216,307.28732,53,68,41
307.28732,307.42245,62,69,41
307.42245,307.6209,65,69,41
307.96298,308.0981,53,72,41
308.0981,308.23325,62,73,41
308.23325,308.36838,65,74,41
308.36838,308.5035,53,75,41
308.5035,308.63867,62,76,41
308.63867,308.83713,69,77,41
309.1792,309.31433,57,80,41
309.31433,309.44946,65,81,41
309.44946,309.5846,69,82,41
309.5846,309.71973,57,83,41
309.71973,309.85486,60,84,41
309.85486,310.05334,65,85,41
310.39542,310.53055,55,89,41
310.53055,310.66568,64,90,41
310.66568,310.8008,67,91,41
310.8008,310.93594,55,92,41
310.93594,311.07108,58,93,41
311.07108,311.26956,64,94,41
311.4765,311.8237,56,100,41
311.4765,311.8237,65,100,41
321.94077,322.15057,53,60,41
322.15506,322.36932,53,60,41
322.36932,322.57916,48,60,41
322.58362,322.94077,48,60,41
323.22647,323.4363,55,60,41
323.44077,323.65506,55,63,41
323.65506,323.86487,48,66,41
323.86932,324.22647,48,69,41
324.5122,324.72202,57,78,41
324.72647,324.94077,57,81,41
324.94077,325.15057,48,84,41
325.15506,325.5122,48,88,41
325.7979,326.00772,58,100,41
326.0122,326.22647,58,80,41
326.22647,326.4363,48,80,41
326.44077,326.7979,48,60,41
327.08362,327.29343,60,40,41
327.2979,327.51218,60,40,41
327.51218,327.72202,48,40,41
327.72647,328.08362,48,40,41
328.36932,328.57916,57,40,41
328.58362,328.7979,57,40,41
328.7979,329.00772,48,40,41
329.01218,329.36932,48,40,41
329.65506,329.86487,55,40,41
329.86932,330.08362,55,41,41
330.08362,330.29343,48,42,41
330.2979,330.65503,48,43,41
330.94077,331.15057,54,46,41
331.15503,331.36932,54,47,41
331.36932,331.57916,48,48,41
331.58362,331.94077,48,49,41
332.22647,332.43628,55,52,41
332.44077,332.65503,55,53,41
332.65503,332.86487,48,54,41
332.86932,333.22647,48,55,41
333.51218,333.72202,56,58,41
333.72647,333.94077,56,59,41
333.94077,334.15057,48,60,41
334.15503,334.51218,48,61,41
334.7979,335.00772,55,64,41
335.01218,335.22647,55,65,41
335.22647,335.43628,48,66,41
335.44077,335.79788,48,67,41
336.08362,336.29343,58,71,41
336.29788,336.51218,58,72,41
336.51218,336.72202,48,74,41
336.72647,337.08362,48,76,41
337.15503,337.79788,48,80,41
337.79788,338.00772,50,80,41
338.01218,338.36932,48,80,41
338.44077,339.07455,48,80,41
339.07455,339.28143,53,81,41
339.28583,339.63794,48,81,41
339.70834,340.34216,48,82,41
340.34216,340.549,50,83,41
340.55344,340.90555,48,83,41
340.97595,341.60095,48,84,41
341.60095,341.80496,57,86,41
341.8093,342.15652,48,86,41
342.22595,342.85095,48,87,41
342.85095,343.05496,50,89,41
343.0593,343.40652,48,89,41
343.47595,344.0924,48,90,41
343.47595,344.0924,59,90,41
344.0924,344.29358,48,92,41
344.0924,344.29358,60,92,41
344.29788,344.64035,48,92,41
344.29788,344.64035,62,92,41
344.70883,345.32526,48,94,41
344.70883,345.32526,62,94,41
345.32526,345.52646,48,97,41
345.32526,345.52646,64,97,41
345.53076,345.8732,48,98,41
345.53076,345.8732,65,98,41
345.9417,346.55814,48,100,41
345.9417,346.55814,67,100,41
346.55814,346.75934,48,100,41
346.55814,346.75934,64,100,41
346.7636,347.10608,48,100,41
346.7636,347.10608,60,100,41
347.1746,347.89377,48,100,41
347.9965,348.33896,48,80,41
348.40744,349.03244,55,92,41
349.03244,349.23645,52,60,41
349.24078,349.65744,48,60,41
349.65744,350.90744,48,60,41
350.90744,351.64688,48,50,41
352.17505,352.80887,65,64,41
352.80887,353.01572,57,40,41
353.0201,353.65695,60,40,41
353.65695,353.86676,57,40,41
353.87122,354.5141,60,40,41
354.5141,354.7239,57,40,41
354.72836,355.0907,53,40,41
382.0753,382.4994,62,60,41
382.50385,382.93243,59,60,41
382.93243,383.03958,52,60,41
383.361,383.7851,60,60,41
383.78955,384.21814,57,60,41
384.21814,384.3253,52,60,41
384.6467,385.0708,60,60,41
385.0753,385.50385,57,60,41
385.50385,385.611,48,60,41
385.93243,386.35654,62,60,41
386.361,386.78955,59,60,41
386.78955,386.8967,55,60,41
387.21814,387.64224,62,60,41
387.6467,388.0753,59,60,41
388.0753,388.1824,55,60,41
388.50385,388.92795,64,60,41
388.9324,389.361,60,60,41
389.361,389.46814,55,60,41
389.78955,390.21365,64,60,41
390.21814,390.6467,58,60,41
390.6467,390.75385,55,60,41
391.0753,391.4994,64,60,41
391.50385,391.9324,61,60,41
391.9324,392.03955,57,60,41
392.361,392.7851,64,60,41
392.78955,393.21814,61,60,41
393.21814,393.32526,57,61,41
393.6467,394.0708,65,63,41
394.07526,394.50385,62,65,41
394.50385,394.611,57,67,41
394.9324,395.3565,65,69,41
395.361,395.78955,62,70,41
395.78955,395.8967,57,72,41
396.21814,396.64224,69,74,41
396.6467,397.07526,66,76,41
397.07526,397.1824,60,78,41
397.50385,397.92795,67,80,41
397.9324,398.361,64,82,41
398.361,398.4681,60,84,41
398.78955,399.21365,69,86,41
399.2181,399.6467,63,88,41
399.6467,399.75385,57,90,41
400.07526,400.49936,60,92,41
400.07526,400.49936,67,92,41
400.50385,400.9324,55,94,41
400.50385,400.9324,60,94,41
400.9324,401.03955,60,96,41
400.9324,401.03955,67,96,41
406.28955,406.6467,62,100,41
406.9324,407.03955,62,60,41
407.1467,407.2538,62,60,41
407.36096,407.4681,60,61,41
407.57526,407.6824,60,62,41
407.78955,407.8967,59,63,41
408.2181,408.32526,65,65,41
408.4324,408.53955,65,66,41
408.6467,408.7538,63,67,41
408.86096,408.9681,63,68,41
409.07526,409.1824,62,69,41
409.5038,409.61096,68,71,41
409.7181,409.82526,68,72,41
409.9324,410.03955,69,74,41
410.14667,410.2538,69,76,41
410.36096,410.4681,67,78,41
410.78955,410.89667,71,82,41
411.0038,411.11096,71,84,41
411.2181,411.32526,69,86,41
411.4324,411.53955,69,88,41
411.64667,411.7538,67,90,41
411.86096,411.9681,71,92,41
412.07526,412.1824,69,94,41
412.28955,412.39667,69,96,41
412.5038,412.61096,67,98,41
412.7181,412.81934,67,100,41
412.82373,412.925,67,100,41
412.92938,413.0306,65,100,41
413.035,413.13623,65,100,41
413.14066,413.24188,67,100,41
413.24628,413.3475,67,100,41
413.3519,413.45316,70,100,41
413.45755,413.55878,70,100,41
413.56317,413.6644,68,100,41
413.66882,413.77005,68,100,41
413.77444,413.87567,65,100,41
413.88007,413.98132,65,100,41
413.98572,414.08694,68,100,41
414.09134,414.19257,68,100,41
414.197,414.29822,67,100,41
414.3026,414.40384,67,100,41
414.40823,414.5095,64,100,41
414.5139,414.6151,64,100,41
414.6195,414.72073,67,100,41
414.72516,414.8264,67,100,41
414.83078,414.932,65,100,41
414.93643,415.03766,65,100,41
415.04205,415.14328,61,100,41
415.14767,415.2489,61,100,41
415.25333,415.35315,65,100,41
415.35748,415.4573,65,100,41
415.46164,415.56146,64,100,41
415.56583,415.66565,64,100,41
415.66998,415.7698,60,100,41
415.77414,415.87396,60,100,41
415.87833,415.97815,70,100,41
415.98248,416.0823,70,100,41
416.08664,416.18646,68,100,41
416.19083,416.29065,68,100,41
416.29498,416.3948,65,100,41
416.39914,416.49896,65,100,41
416.50333,416.60315,68,100,41
416.60748,416.7073,68,100,41
416.71164,416.81146,67,100,41
416.81583,416.91565,67,100,41
416.91998,417.0198,64,100,41
417.02414,417.12396,64,100,41
417.12833,417.22815,70,100,41
417.23248,417.3323,70,100,41
417.33664,417.43646,68,100,41
417.44083,417.54065,68,100,41
417.54498,417.6448,65,100,41
417.64914,417.74896,65,100,41
417.75333,417.85315,68,100,41
417.85748,417.9573,68,100,41
417.96164,418.06146,67,100,41
418.06583,418.16565,67,100,41
418.16998,418.2698,64,100,41
418.27414,418.37396,64,100,41
418.37833,418.47815,70,100,41
418.48248,418.5823,70,100,41
418.58664,418.68646,68,100,41
418.69083,418.79065,68,100,41
418.79498,418.8948,65,100,41
418.89914,418.99896,65,100,41
419.00333,419.10178,68,100,41
419.10605,419.2045,68,100,41
419.2088,419.30725,67,100,41
419.31152,419.41,67,100,41
419.41428,419.51273,60,100,41
419.41428,419.51273,67,100,41
419.517,419.61548,60,100,41
419.517,419.61548,67,100,41
419.61975,419.7182,60,100,41
419.61975,419.7182,67,100,41
419.7225,419.82095,60,100,41
419.7225,419.82095,67,100,41
419.82523,419.92368,60,100,41
419.82523,419.92368,67,100,41
419.92798,420.02643,60,100,41
419.92798,420.02643,67,100,41
420.0307,420.12918,60,100,41
420.0307,420.12918,67,100,41
420.13345,420.2319,60,100,41
420.13345,420.2319,67,100,41
420.23618,420.33466,60,100,41
420.23618,420.33466,67,100,41
420.33893,420.43738,60,100,41
420.33893,420.43738,67,100,41
420.44165,420.54013,60,100,41
420.44165,420.54013,67,100,41
420.5444,420.64285,60,100,41
420.5444,420.64285,67,100,41
420.64716,420.7456,60,100,41
420.64716,420.7456,67,100,41
420.74988,420.84833,60,100,41
420.74988,420.84833,67,100,41
420.85263,420.95108,60,100,41
420.85263,420.95108,67,100,41
420.95535,421.05383,60,100,41
420.95535,421.05383,67,100,41
421.0581,421.15656,60,100,41
421.0581,421.15656,67,100,41
421.16083,421.2593,60,100,41
421.16083,421.2593,67,100,41
421.26358,421.36203,60,100,41
421.26358,421.36203,67,100,41
421.36633,421.46478,60,100,41
421.36633,421.46478,67,100,41
421.46906,421.6036,60,100,41
421.46906,421.6036,67,100,41
421.60794,421.7425,60,100,41
421.60794,421.7425,67,100,41
421.74683,421.88138,60,100,41
421.74683,421.88138,67,100,41
421.8857,422.02026,60,100,41
421.8857,422.02026,67,100,41
422.02463,422.15915,60,100,41
422.02463,422.15915,67,100,41
422.1635,422.29807,60,100,41
422.1635,422.29807,67,100,41
422.3024,422.43695,60,100,41
422.3024,422.43695,67,100,41
422.44128,422.57584,60,100,41
422.44128,422.57584,67,100,41
422.58017,422.71472,60,100,41
422.58017,422.71472,67,100,41
422.71906,422.82468,60,100,41
422.71906,422.82468,67,100,41
422.93033,423.03595,60,95,41
422.93033,423.03595,67,95,41
423.1416,423.24722,60,90,41
423.1416,423.24722,67,90,41
423.35287,423.4585,60,85,41
423.35287,423.4585,67,85,41
423.56412,423.66977,60,80,41
423.56412,423.66977,67,80,41
423.7754,423.88104,60,75,41
423.7754,423.88104,67,75,41
423.98666,424.09537,67,70,41
424.20404,424.31274,67,65,41
424.42145,424.53015,67,60,41
424.63882,424.74753,67,55,41
424.85623,424.96494,67,50,41
425.0736,425.1823,67,45,41
425.29102,425.50082,71,40,41
425.50528,425.71512,71,40,41
425.71957,425.9294,71,40,41
425.93387,426.14368,69,40,41
426.14816,426.35797,67,40,41
426.36243,426.57227,67,40,41
426.57672,426.78653,66,40,41
426.57672,426.78653,69,40,41
426.79102,427.00082,66,40,41
426.79102,427.00082,69,40,41
427.00528,427.21512,66,40,41
427.00528,427.21512,69,40,41
427.21957,427.4294,66,40,41
427.21957,427.4294,69,40,41
427.43387,427.64368,66,40,41
427.43387,427.64368,69,40,41
427.64816,427.85797,66,40,41
427.64816,427.85797,69,40,41
427.86243,428.07227,71,40,41
428.07672,428.28653,71,40,41
428.29102,428.50082,71,40,41
428.50528,428.71512,69,40,41
428.71957,428.9294,67,40,41
428.93387,429.14368,67,40,41
429.14816,429.35797,66,40,41
429.14816,429.35797,69,40,41
429.36243,429.57227,66,40,41
429.36243,429.57227,69,40,41
429.57672,429.78653,66,40,41
429.57672,429.78653,69,40,41
429.79102,430.00082,66,40,41
429.79102,430.00082,69,40,41
430.00528,430.21512,66,40,41
430.00528,430.21512,69,40,41
430.21957,430.42938,66,40,41
430.21957,430.42938,69,40,41
430.43387,430.64368,67,40,41
430.64813,430.85797,67,43,41
430.86243,431.07227,67,46,41
431.07672,431.28653,67,49,41
431.29102,431.50082,67,52,41
431.50528,431.71512,67,55,41
431.71957,431.92938,60,58,41
431.93387,432.14368,60,61,41
432.14813,432.35797,60,64,41
432.36243,432.57227,60,68,41
432.57672,432.78653,60,72,41
432.79102,433.00082,60,76,41
433.00528,433.21512,60,80,41
433.21957,433.42938,60,80,41
433.43387,433.64368,57,77,41
433.64813,433.85797,57,74,41
433.86243,434.07224,69,71,41
434.07672,434.28653,69,68,41
434.291,434.50082,67,64,41
434.50528,434.71512,67,60,41
434.71957,434.92938,67,56,41
434.93387,435.14368,69,52,41
435.14813,435.35797,66,48,41
435.36243,435.57224,66,44,41
435.57672,435.78653,67,40,41
435.791,436.00082,67,40,41
436.00528,436.21512,67,40,41
436.21957,436.42938,66,40,41
436.43387,436.64368,64,40,41
436.64813,436.85797,64,40,41
436.86243,437.07224,64,40,41
437.07672,437.28653,64,40,41
437.291,437.50082,64,40,41
437.50528,437.71512,64,40,41
437.71957,437.92938,63,40,41
437.93387,438.14368,63,40,41
438.14813,438.35797,67,40,41
438.36243,438.57224,67,40,41
438.57672,438.78653,67,40,41
438.791,439.00082,66,40,41
439.00528,439.2151,64,40,41
439.21957,439.42938,64,40,41
439.43384,439.64368,64,40,41
439.64813,439.85797,64,40,41
439.86243,440.07224,64,40,41
440.07672,440.28653,64,40,41
440.291,440.50082,61,40,41
440.50528,440.7151,61,40,41
440.71957,440.92938,62,40,41
440.93384,441.14368,62,43,41
441.14813,441.35797,62,46,41
441.36243,441.57224,62,49,41
441.57672,441.78653,62,52,41
441.791,442.00082,62,55,41
442.00528,442.2151,62,58,41
442.21957,442.42938,62,61,41
442.43384,442.64368,62,64,41
442.64813,442.85794,62,68,41
442.86243,443.07224,62,72,41
443.0767,443.28653,62,76,41
443.291,443.50082,63,80,41
443.50528,443.7151,63,80,41
443.71957,443.92938,63,80,41
443.93384,444.14368,63,80,41
444.14813,444.35794,58,80,41
444.36243,444.57224,58,75,41
444.5767,444.78653,57,70,41
444.791,445.00082,57,65,41
445.00528,445.2151,57,60,41
445.21957,445.42938,57,55,41
445.43384,445.64368,57,50,41
445.64813,445.85794,57,45,41
445.86243,446.07224,62,40,41
446.0767,446.28653,62,40,41
446.291,446.50082,62,43,41
446.50528,446.7151,62,46,41
446.71957,446.92938,62,49,41
446.93384,447.14368,62,52,41
447.14813,447.35794,62,56,41
447.36243,447.57224,62,60,41
447.5767,447.78653,62,64,41
447.791,448.0008,62,68,41
448.00528,448.2151,62,72,41
448.21954,448.42938,62,76,41
448.43384,448.64368,63,80,41
448.64813,448.85794,63,80,41
448.86243,449.07224,63,80,41
449.0767,449.28653,63,80,41
449.291,449.5008,61,80,41
449.50528,449.7151,61,80,41
449.71954,449.92938,60,80,41
449.93384,450.14368,60,80,41
450.14813,450.35794,60,80,41
450.36243,450.57224,60,80,41
450.5767,450.78653,62,80,41
450.791,451.0008,62,80,41
451.00528,451.2151,62,80,41
451.21954,451.42938,62,80,41
451.43384,451.64365,62,80,41
451.64813,451.85794,62,80,41
451.8624,452.07224,65,80,41
452.0767,452.28653,65,75,41
452.291,452.5008,64,70,41
452.50528,452.7151,64,65,41
452.71954,452.92938,64,60,41
452.93384,453.14365,64,55,41
453.14813,453.35794,57,50,41
453.3624,453.57224,57,45,41
453.5767,453.93384,53,40,41
455.291,455.71954,68,60,41
455.71954,456.14813,67,60,41
456.14813,456.50525,65,40,41
457.8624,458.291,68,60,41
458.291,458.71954,65,60,41
458.71954,459.0767,63,40,41
460.43384,460.8624,67,40,41
460.8624,461.21954,63,60,41
461.291,462.5767,57,80,41
462.5767,463.75525,57,60,41
463.8624,464.07224,58,40,41
464.0767,464.5008,58,40,41
464.50525,464.92935,58,40,41
464.93384,465.35794,58,40,41
465.3624,465.7865,58,40,41
465.79095,466.2151,58,40,41
466.21954,466.64365,58,40,41
466.6481,467.0722,58,40,41
467.0767,467.5008,58,40,41
467.50525,467.92935,58,40,41
467.93384,468.35794,58,40,41
468.3624,468.7865,58,40,41
468.79095,469.00525,58,40,41
469.00525,469.21506,59,40,41
469.21954,469.64365,59,40,41
469.6481,470.0722,59,40,41
470.0767,470.5008,59,40,41
470.50525,470.92935,59,40,41
470.9338,471.35794,59,40,41
471.3624,471.7865,59,40,41
471.79095,472.21506,59,40,41
472.21954,472.64365,59,42,41
472.6481,473.0722,59,44,41
473.0767,473.5008,59,46,41
473.50525,473.92935,61,48,41
473.9338,474.14365,62,50,41
474.1481,474.50525,61,51,41
475.00525,475.4338,57,55,41
475.4338,476.1838,58,57,41
476.29095,476.71954,57,62,41
476.71954,477.46954,58,64,41
477.57666,478.00525,57,69,41
478.00525,478.75525,58,71,41
478.8624,479.2195,57,77,41
479.29095,480.1481,58,80,41
480.1481,480.57666,57,60,41
480.57666,481.00525,58,80,41
481.00525,481.4338,62,80,41
481.4338,481.79095,60,80,41
481.8624,482.29095,57,60,41
482.29095,482.6481,53,60,41
482.7195,483.1481,57,60,41
483.1481,483.57666,58,80,41
483.57666,484.00525,62,80,41
484.00525,484.36237,60,80,41
484.4338,484.86237,57,60,41
484.86237,485.2195,53,60,41
485.29095,486.1481,65,80,41
486.1481,486.57666,63,80,41
486.57666,486.9338,65,80,41
487.00522,487.4338,63,80,41
487.4338,487.79095,62,80,41
487.86237,488.50522,61,80,41
488.50522,488.61237,63,80,41
488.61237,488.7195,61,80,41
488.7195,489.1481,60,80,41
489.1481,489.50522,58,80,41
489.57666,490.4338,57,80,41
490.4338,490.79095,60,60,41
490.86237,491.0722,53,60,41
490.86237,491.0722,65,60,41
491.07666,491.50076,53,61,41
491.07666,491.50076,65,61,41
491.50522,491.92932,53,63,41
491.50522,491.92932,65,63,41
491.9338,492.3579,53,65,41
491.9338,492.3579,65,65,41
492.36237,492.78647,53,67,41
492.36237,492.78647,65,67,41
492.79095,493.21506,53,69,41
492.79095,493.21506,65,69,41
493.2195,493.64362,53,71,41
493.2195,493.64362,65,71,41
493.64807,494.0722,53,73,41
493.64807,494.0722,65,73,41
494.07666,494.50076,53,75,41
494.07666,494.50076,65,75,41
494.50522,494.7195,53,78,41
494.50522,494.7195,65,78,41
494.7195,494.92932,55,80,41
494.7195,494.92932,67,80,41
494.9338,495.3579,55,80,41
494.9338,495.3579,67,80,41
495.36237,495.78647,55,80,41
495.36237,495.78647,67,80,41
495.79092,496.21506,55,80,41
495.79092,496.21506,67,80,41
496.2195,496.64362,55,80,41
496.2195,496.64362,67,80,41
496.64807,497.07217,55,80,41
496.64807,497.07217,67,80,41
497.07666,497.50076,55,82,41
497.07666,497.50076,67,82,41
497.50522,497.92932,55,84,41
497.50522,497.92932,67,84,41
497.9338,498.3579,55,86,41
497.9338,498.3579,67,86,41
498.36237,498.57666,55,88,41
498.36237,498.57666,67,88,41
498.57666,498.78647,58,89,41
498.57666,498.78647,70,89,41
498.79092,499.21506,58,90,41
498.79092,499.21506,70,90,41
499.2195,499.64362,58,92,41
499.2195,499.64362,70,92,41
499.64807,500.07217,58,94,41
499.64807,500.07217,70,94,41
500.07666,500.50076,58,96,41
500.07666,500.50076,70,96,41
500.50522,500.92932,58,98,41
500.50522,500.92932,70,98,41
500.93378,501.3579,58,100,41
500.93378,501.3579,70,100,41
501.36237,501.78647,70,80,41
501.79092,502.00522,70,80,41
502.00522,502.21503,68,80,41
502.2195,502.43378,68,80,41
502.43378,502.64362,67,80,41
502.64807,502.86237,67,80,41
502.86237,503.07217,65,80,41
503.07666,503.29092,65,80,41
503.29092,503.50076,58,80,41
503.50522,503.7195,58,80,41
503.7195,503.92932,64,80,41
503.93378,504.35788,64,80,41
504.36237,504.78647,64,80,41
504.79092,505.00522,64,80,41
505.00522,505.21503,63,80,41
505.2195,505.64362,63,80,41
505.64807,505.86237,63,80,41
505.86237,506.07217,60,80,41
506.07663,506.29092,60,80,41
506.29092,506.50076,58,80,41
506.50522,506.7195,58,80,41
506.7195,506.92932,59,80,41
506.93378,507.14807,59,80,41
507.14807,507.35788,60,80,41
507.36237,507.57663,60,80,41
507.57663,507.78647,67,80,41
507.79092,508.00522,67,80,41
508.00522,508.21503,65,80,41
508.21948,508.43378,65,80,41
508.43378,508.64362,64,80,41
508.64807,508.85788,64,80,41
508.86237,509.07663,65,80,41
509.07663,509.29092,58,80,41
509.29092,509.50073,62,80,41
510.14807,510.36237,53,80,41
510.36237,510.57663,59,80,41
510.57663,510.78647,62,80,41
511.43378,511.64807,53,60,41
511.64807,511.86237,60,60,41
511.86237,512.07214,63,60,41
514.4338,514.86237,56,100,41
514.86237,515.2909,57,100,41
515.2909,515.6481,58,100,41
517.0052,517.4338,49,100,41
517.4338,517.86237,50,100,41
517.86237,518.61237,51,100,41
518.7195,519.1481,52,100,41
519.1481,519.8981,53,100,41
520.0052,520.4338,54,100,41
520.4338,521.1838,55,100,41
521.2909,521.6481,51,100,41
521.7195,522.15424,50,100,41
522.15424,522.58905,51,100,41
522.58905,522.95135,53,100,41
523.0238,523.9062,53,80,41
523.9062,524.2738,53,60,41
524.34735,524.56335,53,60,41
524.56793,525.0045,53,60,41
525.0091,525.4457,53,60,41
525.4503,525.8869,53,60,41
525.8915,526.32806,53,60,41
526.33264,526.7692,53,60,41
526.7738,527.2104,53,60,41
527.215,527.6516,53,60,41
527.6562,528.0928,53,60,41
528.09735,528.53394,53,60,41
528.5385,528.9751,53,60,41
528.97974,529.41626,53,60,41
529.4209,530.0091,53,60,41
534.9356,535.15155,53,60,41
535.1562,535.5928,53,60,41
535.59735,536.03394,53,60,41
536.0385,536.4751,53,60,41
536.4797,536.91626,53,60,41
536.9209,537.3575,53,60,41
537.36206,537.79865,53,60,41
537.8032,538.2398,53,60,41
538.2444,538.68097,53,60,41
538.6856,539.12213,53,60,41
539.1268,539.56335,53,60,41
539.56793,540.0045,53,52,41
540.0091,540.2251,52,44,41
540.2297,540.59735,53,40,41
548.34155,548.9844,62,40,41
548.9844,549.1942,64,40,41
549.19867,549.55585,66,40,41
549.62726,550.80585,57,40,41
550.91296,551.55585,62,40,41
551.55585,551.7656,64,40,41
551.7701,552.12726,66,40,41
552.19867,553.37726,57,40,41
553.4844,554.12726,66,40,41
554.12726,554.3371,67,60,41
554.34155,554.69867,69,66,41
554.7701,556.41296,70,80,41
556.4844,556.8058,62,80,41
556.8058,556.91296,65,65,41
556.91296,557.2701,63,60,41
557.34155,558.5201,62,40,41
558.62726,559.2701,62,40,41
559.2701,559.4799,64,42,41
559.4844,559.84155,66,42,41
559.91296,561.09155,57,43,41
561.19867,561.84155,62,47,41
561.84155,562.05133,64,49,41
562.0558,562.41296,66,49,41
562.4844,563.66296,57,50,41
563.7701,564.41296,66,55,41
564.41296,564.62274,67,57,41
564.62726,564.9844,69,57,41
565.0558,566.2344,62,58,41
565.0558,566.2344,71,58,41
566.3415,566.9844,66,63,41
566.9844,567.1942,67,65,41
567.19867,567.5558,69,66,41
567.62726,568.8058,62,68,41
567.62726,568.8058,71,68,41
568.91296,569.5558,66,74,41
569.5558,569.7656,67,77,41
569.7701,570.12726,69,78,41
570.19867,571.91296,70,80,41
571.91296,572.3415,67,80,41
572.3415,572.5558,63,80,41
572.7701,573.19867,63,80,41
573.19867,573.6272,62,80,41
573.6272,573.9844,60,60,41
574.0558,574.69867,62,60,41
574.69867,574.90845,64,66,41
574.91296,575.2701,66,68,41
575.3415,576.0915,65,72,41
576.19867,576.5558,68,80,41
576.6272,577.19867,67,84,41
577.2701,577.4844,65,90,41
577.4844,577.69867,63,92,41
577.69867,577.90845,60,94,41
578.1272,578.3415,61,100,41
578.3415,578.5558,62,100,41
578.5558,578.7656,63,100,41
578.7701,579.1272,60,80,41
579.3395,579.48035,53,60,41
579.48035,579.62115,62,60,41
579.62115,579.762,65,60,41
579.762,579.9029,53,60,41
579.9029,580.0437,62,60,41
580.0437,580.2506,65,60,41
580.6071,580.7479,53,60,41
580.7479,580.8888,60,60,41
580.8888,581.02966,65,60,41
581.02966,581.1705,53,60,41
581.1705,581.31134,60,60,41
581.31134,581.5182,65,60,41
581.87274,582.01166,53,60,41
582.01166,582.1505,62,60,41
582.1505,582.2894,65,60,41
582.2894,582.4283,53,60,41
582.4283,582.5672,62,60,41
582.5672,582.7712,65,60,41
583.12274,583.26166,53,62,41
583.26166,583.4005,60,62,41
583.4005,583.5394,65,62,41
583.5394,583.6783,53,62,41
583.6783,583.8172,63,62,41
583.8172,584.0212,69,62,41
584.37274,584.51166,55,64,41
584.51166,584.6505,62,64,41
584.6505,584.7894,67,64,41
584.7894,584.9283,55,64,41
584.9283,585.0672,62,64,41
585.0672,585.2712,67,64,41
585.62274,585.76166,55,66,41
585.76166,585.9005,58,66,41
585.9005,586.0394,67,66,41
586.0394,586.1783,55,67,41
586.1783,586.3172,58,68,41
586.3172,586.5212,67,69,41
586.87274,587.01166,55,72,41
587.01166,587.1505,58,73,41
587.1505,587.2894,67,74,41
587.2894,587.4283,55,75,41
587.4283,587.5672,58,76,41
587.5672,587.7712,60,77,41
588.12274,588.26166,53,80,41
588.26166,588.4005,62,81,41
588.4005,588.5394,65,82,41
588.5394,588.6783,53,83,41
588.6783,588.8172,58,84,41
588.8172,589.0212,62,85,41
589.37274,589.5116,53,88,41
589.5116,589.6505,60,89,41
589.6505,589.7894,63,90,41
589.7894,589.9283,53,91,41
589.9283,590.0672,57,92,41
590.0672,590.2712,60,93,41
590.62085,590.7578,53,100,41
590.7578,590.8948,62,100,41
590.8948,591.0318,65,100,41
591.0318,591.16876,53,100,41
591.16876,591.3058,62,100,41
591.3058,591.50696,65,100,41
591.8537,591.99066,53,80,41
591.99066,592.1277,60,80,41
592.1277,592.26465,65,80,41
592.26465,592.4017,53,80,41
592.4017,592.53864,60,80,41
592.53864,592.7398,65,80,41
593.0866,593.2236,53,60,41
593.2236,593.36053,62,60,41
593.36053,593.49756,65,60,41
593.49756,593.6345,53,60,41
593.6345,593.7715,62,60,41
593.7715,593.9727,65,60,41
594.31946,594.4564,53,60,41
594.4564,594.59344,60,60,41
594.59344,594.7304,65,60,41
594.7304,594.8674,53,60,41
594.8674,595.0044,63,60,41
595.0044,595.20557,69,60,41
595.5505,595.6856,55,63,41
595.6856,595.82074,62,64,41
595.82074,595.9559,67,65,41
595.9559,596.091,55,66,41
596.091,596.22614,62,67,41
596.22614,596.4246,67,68,41
596.76666,596.90186,58,71,41
596.90186,597.037,67,72,41
597.037,597.1721,70,73,41
597.1721,597.30725,58,74,41
597.30725,597.4424,67,75,41
597.4424,597.64087,70,76,41
597.9829,598.11804,58,79,41
598.11804,598.2532,67,80,41
598.2532,598.3883,70,81,41
598.3883,598.52344,58,82,41
598.52344,598.65857,67,83,41
598.65857,598.85706,74,84,41
599.1991,599.3342,53,87,41
599.3342,599.4694,62,88,41
599.4694,599.60455,70,89,41
599.60455,599.7397,53,90,41
599.7397,599.8748,58,91,41
599.8748,600.0733,62,92,41
600.4172,600.5542,53,100,41
600.5542,600.69116,60,100,41
600.69116,600.8281,63,100,41
600.8281,600.96515,53,100,41
600.96515,601.1021,57,100,41
601.1021,601.30334,60,100,41
611.9971,612.1042,58,60,41
612.21136,612.4256,58,60,41
612.4256,612.63544,53,60,41
612.6399,612.9971,53,60,41
613.2828,613.3899,60,60,41
613.4971,613.71136,60,60,41
613.71136,613.92114,53,60,41
613.9256,614.2828,53,60,41
614.5685,614.6756,62,72,41
614.7828,614.9971,62,76,41
614.9971,615.20685,53,80,41
615.21136,615.5685,53,85,41
615.8542,615.96136,63,100,41
616.0685,616.2828,63,80,41
616.2828,616.4926,53,80,41
616.4971,616.8542,53,60,41
616.9256,617.6756,63,40,41
616.9256,617.6756,69,40,41
617.7828,618.1399,60,40,41
617.7828,618.1399,69,40,41
655.0684,655.497,72,80,41
655.497,656.3541,74,100,41
656.3541,656.7827,72,100,41
656.7827,657.2113,71,100,41
657.2113,657.6399,70,100,41
657.6399,657.997,69,100,41
658.0684,658.497,68,100,41
658.497,658.9256,67,100,41
658.9256,659.3541,65,100,41
659.3541,659.7827,64,100,41
659.7827,660.2113,63,100,41
660.2113,660.5684,60,100,41
660.6399,660.8541,65,80,41
660.8541,661.0684,63,80,41
661.0684,661.2827,65,80,41
661.2827,661.497,63,80,41
661.497,661.7113,65,80,41
661.7113,661.92114,63,80,41
661.9256,662.1399,65,80,41
662.1399,662.3541,62,80,41
662.3541,662.5684,65,80,41
662.5684,662.7827,62,80,41
662.7827,662.997,67,80,41
662.997,663.20685,60,80,41
663.2113,663.4256,65,80,41
663.4256,663.6399,60,80,41
663.6399,663.8541,65,80,41
663.8541,664.0684,57,80,41
664.0684,664.2827,65,80,41
664.2827,664.49255,63,80,41
664.497,664.7113,65,80,41
664.7113,664.9256,62,80,41
664.9256,665.13983,65,80,41
665.13983,665.3541,62,80,41
665.3541,665.5684,67,80,41
665.5684,665.77826,60,80,41
665.7827,665.997,65,80,41
665.997,666.2113,60,80,41
666.2113,666.4256,65,80,41
666.4256,666.63983,60,80,41
666.63983,666.8541,65,80,41
666.8541,667.06396,58,80,41
667.0684,667.2827,63,80,41
667.2827,667.497,58,80,41
667.497,667.7113,63,80,41
667.7113,667.9256,58,80,41
667.9256,668.13983,63,80,41
668.13983,668.3497,57,80,41
668.3541,668.5684,62,80,41
668.5684,668.7827,58,80,41
668.7827,668.997,62,80,41
668.997,669.2113,58,80,41
669.2113,669.4256,61,80,41
669.4256,669.6354,58,80,41
669.63983,669.8541,61,80,41
669.8541,670.0684,58,80,41
670.0684,670.2827,61,80,41
670.2827,670.497,58,80,41
670.497,670.7113,61,80,41
670.7113,670.9211,58,80,41
670.9256,672.1212,57,80,41
672.2299,673.46124,57,67,41
673.5732,674.8424,57,54,41
674.9578,676.26733,57,40,41
676.38635,676.80304,58,40,41
692.5078,692.83417,50,100,41
692.8411,693.3958,53,100,41
692.8411,693.3958,60,100,41
693.5911,694.1458,50,100,41
693.5911,694.1458,58,100,41
80.96397,81.321106,57,40,45
81.39253,81.74968,52,40,45
81.821106,82.178246,57,40,45
83.53539,83.89253,57,40,45
83.96396,84.321106,52,40,45
84.39253,84.74967,57,40,45
90.8211,91.03092,49,60,45
91.035385,91.2452,52,60,45
91.249664,91.45949,57,60,45
91.46395,91.673775,61,60,45
91.67824,91.88806,64,60,45
91.892525,92.10235,69,60,45
92.10681,92.46395,57,60,45
92.10681,92.46395,64,60,45
92.10681,92.46395,73,60,45
93.392525,93.60234,49,60,45
93.60681,93.81663,52,60,45
93.82109,94.030914,57,60,45
94.03538,94.2452,61,60,45
94.249664,94.45949,64,60,45
94.46395,94.673775,69,60,45
94.67824,95.03538,57,60,45
94.67824,95.03538,64,60,45
94.67824,95.03538,73,60,45
132.74242,132.94641,49,100,45
132.95074,133.15474,49,100,45
133.15907,133.36307,50,100,45
133.36742,133.72455,50,100,45
134.01027,134.2201,49,80,45
134.22455,134.43437,49,80,45
134.43884,134.64865,50,80,45
134.65312,135.01027,50,80,45
260.32306,260.68018,57,40,45
260.75162,261.10876,52,40,45
261.18018,261.53732,57,40,45
262.89447,263.25162,57,40,45
263.32303,263.68018,52,40,45
263.75162,264.10876,57,40,45
270.18018,270.38998,49,60,45
270.39447,270.60428,52,60,45
270.60873,270.81857,57,60,45
270.82303,271.03287,61,60,45
271.03732,271.24713,64,60,45
271.25162,271.46143,69,60,45
271.46588,271.82303,57,60,45
271.46588,271.82303,64,60,45
271.46588,271.82303,73,60,45
272.75162,272.96143,49,60,45
272.96588,273.17572,52,60,45
273.18018,273.38998,57,60,45
273.39447,273.60428,61,60,45
273.60873,273.81857,64,60,45
273.82303,274.03287,69,60,45
274.03732,274.39447,57,60,45
274.03732,274.39447,64,60,45
274.03732,274.39447,73,60,45
312.1015,312.30548,49,100,45
312.3098,312.51382,49,100,45
312.51816,312.72214,50,100,45
312.7265,313.08365,50,100,45
313.36935,313.57916,49,80,45
313.58362,313.79346,49,80,45
313.7979,314.00775,50,80,45
314.0122,314.36935,50,80,45
360.00388,360.36102,50,40,45
360.00388,360.36102,57,40,45
361.71817,362.0753,48,60,45
361.71817,362.0753,57,60,45
362.5753,362.93243,50,60,45
362.5753,362.93243,57,60,45
364.28958,364.64673,48,60,45
364.28958,364.64673,57,60,45
365.14673,365.50388,50,60,45
365.14673,365.50388,57,60,45
366.86102,367.21814,54,60,45
366.86102,367.21814,62,60,45
367.71814,368.0753,55,60,45
367.71814,368.0753,62,60,45
369.43243,369.78958,55,60,45
369.43243,369.78958,58,60,45
370.28958,370.64673,53,60,45
370.28958,370.64673,60,60,45
372.00388,372.361,53,60,45
372.00388,372.361,57,60,45
372.861,373.21814,53,60,45
372.861,373.21814,58,60,45
374.5753,374.93243,62,60,45
374.5753,374.93243,65,60,45
375.00385,375.361,65,80,45
375.00385,375.361,74,80,45
375.43243,375.78958,64,100,45
375.43243,375.78958,71,100,45
377.14673,377.50385,62,80,45
377.14673,377.50385,69,80,45
378.00385,378.361,59,80,45
378.00385,378.361,68,80,45
379.71814,380.0753,57,80,45
379.71814,380.0753,62,80,45
379.71814,380.0753,69,80,45
380.5753,380.93243,52,80,45
380.5753,380.93243,59,80,45
380.5753,380.93243,68,80,45
401.57526,401.9324,50,100,45
401.57526,401.9324,57,100,45
402.00385,402.36096,50,100,45
402.00385,402.36096,58,100,45
402.86096,403.2181,50,100,45
402.86096,403.2181,60,100,45
403.28955,403.6467,50,100,45
403.28955,403.6467,62,100,45
404.1467,404.50385,50,100,45
404.1467,404.50385,57,100,45
404.1467,404.50385,66,100,45
404.57526,404.9324,50,100,45
404.57526,404.9324,58,100,45
404.57526,404.9324,67,100,45
405.00385,405.36096,50,100,45
405.00385,405.36096,57,100,45
405.00385,405.36096,66,100,45
405.4324,405.78955,50,100,45
405.4324,405.78955,58,100,45
405.4324,405.78955,67,100,45
405.86096,406.2181,50,100,45
405.86096,406.2181,57,100,45
405.86096,406.2181,66,100,45
602.13806,602.34204,54,100,45
602.34644,602.5504,54,100,45
602.55475,602.7587,55,100,45
602.76306,603.1152,55,100,45
603.39685,603.60376,54,80,45
603.60815,603.815,54,80,45
603.8194,604.0263,55,80,45
604.0307,604.3878,55,80,45
618.6399,618.9971,53,40,45
618.6399,618.9971,62,40,45
619.0685,619.4256,53,40,45
619.0685,619.4256,62,40,45
619.9256,620.2828,53,40,45
619.9256,620.2828,60,40,45
620.3542,620.71136,53,42,45
620.3542,620.71136,60,42,45
621.2113,621.5685,53,46,45
621.2113,621.5685,62,46,45
621.6399,621.9971,53,48,45
621.6399,621.9971,62,48,45
622.4971,622.8542,53,52,45
622.4971,622.8542,60,52,45
622.9256,623.2828,53,54,45
622.9256,623.2828,60,54,45
623.7828,624.1399,53,58,45
623.7828,624.1399,61,58,45
624.2113,624.5685,53,60,45
624.2113,624.5685,61,60,45
625.0685,625.4256,53,65,45
625.0685,625.4256,60,65,45
625.4971,625.8542,53,68,45
625.4971,625.8542,60,68,45
626.3542,626.7113,53,74,45
626.3542,626.7113,63,74,45
626.7828,627.1399,53,77,45
626.7828,627.1399,63,77,45
627.2113,627.5685,57,80,45
627.2113,627.5685,63,80,45
627.2113,627.5685,69,80,45
628.0685,628.4256,57,80,45
628.0685,628.4256,63,80,45
628.4971,628.8542,58,80,45
628.4971,628.8542,62,80,45
628.4971,628.8542,70,80,45
629.3542,629.7113,58,81,45
629.3542,629.7113,62,81,45
629.7828,630.1399,57,82,45
629.7828,630.1399,63,82,45
629.7828,630.1399,69,82,45
630.6399,630.997,57,84,45
630.6399,630.997,63,84,45
631.0685,631.4256,56,85,45
631.0685,631.4256,62,85,45
631.0685,631.4256,71,85,45
631.9256,632.2828,56,87,45
631.9256,632.2828,62,87,45
632.3542,632.7113,57,88,45
632.3542,632.7113,63,88,45
632.3542,632.7113,69,88,45
633.2113,633.5685,57,90,45
633.2113,633.5685,63,90,45
633.6399,633.997,61,91,45
633.6399,633.997,64,91,45
633.6399,633.997,70,91,45
634.497,634.8542,61,93,45
634.497,634.8542,64,93,45
634.497,634.8542,70,93,45
634.9256,635.2828,61,94,45
634.9256,635.2828,64,94,45
634.9256,635.2828,70,94,45
635.7828,636.1399,61,96,45
635.7828,636.1399,64,96,45
635.7828,636.1399,70,96,45
636.2113,636.5685,60,97,45
636.2113,636.5685,63,97,45
636.2113,636.5685,69,97,45
637.0685,637.4256,60,99,45
637.0685,637.4256,63,99,45
637.0685,637.4256,69,99,45
637.497,637.8542,62,100,45
637.497,637.8542,70,100,45
638.3542,638.7113,62,80,45
638.7827,639.1399,60,60,45
638.7827,639.1399,63,60,45
638.7827,639.1399,69,60,45
639.6399,639.997,60,60,45
639.6399,639.997,63,60,45
640.0685,640.4256,62,60,45
640.0685,640.4256,70,60,45
640.9256,641.2827,62,60,45
641.3542,641.7113,62,60,45
641.3542,641.7113,70,60,45
642.2113,642.5685,62,54,45
643.0685,643.4256,58,48,45
643.0685,643.4256,62,48,45
643.9256,644.2827,58,40,45
643.9256,644.2827,62,40,45
645.2113,645.5685,58,40,45
645.2113,645.5685,62,40,45
677.38635,677.80304,53,60,45
677.38635,677.80304,58,60,45
677.88635,678.30304,53,60,45
677.88635,678.30304,60,60,45
678.88635,679.30304,53,60,45
678.88635,679.30304,60,60,45
679.38635,679.80304,53,60,45
679.38635,679.80304,60,60,45
680.38635,680.80304,53,60,45
680.38635,680.80304,60,60,45
680.88635,681.30304,53,60,45
680.88635,681.30304,60,60,45
681.38635,681.80304,53,60,45
681.38635,681.80304,60,60,45
681.88635,682.30304,53,60,45
681.88635,682.30304,60,60,45
682.38635,682.80304,53,60,45
682.38635,682.80304,58,60,45
683.38635,683.80304,53,60,45
683.38635,683.80304,58,60,45
683.88635,684.30304,53,60,45
683.88635,684.30304,60,60,45
684.88635,685.30304,53,60,45
684.88635,685.30304,60,60,45
685.38635,685.80304,53,60,45
685.38635,685.80304,60,60,45
686.38635,686.80304,53,72,45
686.38635,686.80304,60,72,45
686.88635,687.30304,53,79,45
686.88635,687.30304,60,79,45
687.38635,687.80304,53,86,45
687.38635,687.80304,60,86,45
687.88635,688.30304,53,93,45
687.88635,688.30304,60,93,45
688.38635,688.81744,53,100,45
688.38635,688.81744,58,100,45
689.42084,689.8519,53,100,45
689.42084,689.8519,60,100,45
689.42084,689.8519,63,100,45
689.9381,690.39264,53,90,45
689.9381,690.39264,58,90,45
689.9381,690.39264,62,90,45
691.029,691.4836,53,70,45
691.029,691.4836,60,70,45
691.029,691.4836,63,70,45
691.57446,692.07446,53,60,45
691.57446,692.07446,58,60,45
691.57446,692.07446,62,60,45
1.285713,2.142855,58,80,42
2.142855,2.571426,57,80,42
2.571426,2.999997,58,100,42
2.999997,3.428568,62,100,42
3.428568,3.7857106,60,80,42
3.857139,4.28571,57,80,42
4.28571,4.6428523,53,60,42
4.714281,5.142852,57,80,42
5.142852,5.571423,58,100,42
5.571423,5.999994,62,100,42
5.999994,6.3571367,60,80,42
6.428565,6.857136,57,80,42
6.857136,7.2142787,53,60,42
7.285707,8.142849,65,100,42
8.142849,8.57142,63,100,42
8.57142,8.928562,65,100,42
8.999991,9.428562,63,100,42
9.428562,9.785705,62,80,42
9.857133,10.4999895,61,80,42
10.4999895,10.607132,63,87,42
10.607132,10.714275,61,88,42
10.714275,11.142846,60,89,42
11.142846,11.499989,58,94,42
11.571417,12.447375,57,100,42
12.447375,12.820509,60,60,42
12.895136,13.111129,53,80,42
13.115724,13.549174,53,80,42
13.553703,13.980915,53,80,42
13.985379,14.195201,51,80,42
14.199665,14.413951,50,60,42
14.413951,14.628236,53,60,42
14.628236,14.842522,50,60,42
14.842522,15.056807,53,60,42
15.056807,15.271092,48,60,42
15.271092,15.485378,53,60,42
15.485378,15.699663,46,60,42
15.699663,15.913949,53,60,42
15.913949,16.128235,46,60,42
16.128235,16.34252,53,60,42
16.34252,16.556805,55,60,42
16.556805,16.766626,51,60,42
16.771091,16.985376,48,60,42
16.985376,17.199661,53,60,42
17.199661,17.413948,45,60,42
17.413948,17.628233,48,60,42
17.628233,17.842518,53,60,42
17.842518,18.056805,48,60,42
18.056805,18.27109,53,60,42
18.27109,18.485374,46,60,42
18.485374,18.699661,53,60,42
18.699661,18.913946,58,60,42
18.913946,19.128231,55,60,42
19.128231,19.338053,51,60,42
19.342518,19.556803,48,60,42
19.556803,19.771088,53,60,42
19.771088,19.985374,45,60,42
19.985374,20.19966,53,60,42
20.19966,20.413944,57,60,42
20.413944,20.62823,53,60,42
20.62823,20.842516,58,60,42
20.842516,21.0568,53,60,42
21.0568,21.271086,58,60,42
21.271086,21.485373,53,60,42
21.485373,21.699657,60,60,42
21.699657,21.90948,53,60,42
21.913942,22.12823,58,60,42
22.12823,22.342514,53,63,42
22.342514,22.556799,58,66,42
22.556799,22.771086,53,69,42
22.771086,22.98537,58,72,42
22.98537,23.199656,54,75,42
23.199656,23.413942,58,78,42
23.413942,23.628227,54,81,42
23.628227,23.842512,60,84,42
23.842512,24.056799,54,88,42
24.056799,24.271084,55,92,42
24.271084,24.480906,49,96,42
24.485369,24.70276,53,100,42
24.70276,24.92015,48,100,42
24.92015,25.14074,53,92,42
25.14074,25.361326,48,84,42
25.361326,25.585207,45,76,42
25.585207,25.809088,48,68,42
25.809088,26.028305,53,60,42
26.032969,26.472841,53,60,42
26.477436,26.910887,53,60,42
26.915417,27.342628,53,60,42
27.347092,27.771198,53,60,42
27.775663,28.19977,53,60,42
28.204235,28.628342,53,60,42
28.632805,29.056911,53,60,42
29.061377,29.485483,53,60,42
29.489948,29.704233,53,60,42
29.704233,29.914055,56,60,42
29.918518,30.342625,56,60,42
30.34709,30.771196,56,60,42
30.77566,31.196812,56,60,42
31.201214,31.619347,56,60,42
31.623749,32.04188,56,61,42
32.046284,32.25315,56,63,42
32.46882,32.680084,56,65,42
32.680084,32.891354,61,66,42
32.891354,33.10262,56,67,42
33.10262,33.31389,53,68,42
33.31389,33.525154,49,69,42
33.525154,33.72915,46,69,42
33.73349,34.145813,49,70,42
34.150154,34.56248,49,72,42
34.566822,34.979145,49,74,42
34.983486,35.395813,49,76,42
35.400154,35.812477,49,78,42
35.81682,36.02515,49,80,42
36.02515,36.229145,48,81,42
36.233486,36.64581,48,82,42
36.65015,37.062477,48,84,42
37.06682,37.47914,48,86,42
37.483482,37.691814,48,88,42
37.691814,37.89581,46,89,42
37.90015,38.10414,46,90,42
38.108482,38.312473,49,91,42
38.316814,38.525146,49,92,42
38.525146,38.732014,54,93,42
38.736416,38.94768,54,94,42
38.94768,39.15895,58,95,42
39.15895,39.370216,54,96,42
39.370216,39.581486,51,97,42
39.581486,39.788353,52,98,42
39.79275,40.00704,53,100,42
40.00704,40.221325,58,100,42
40.221325,40.431145,62,100,42
41.078465,41.29275,53,80,42
41.29275,41.50704,59,80,42
41.50704,41.716858,62,80,42
42.364178,42.578465,53,80,42
42.578465,42.79275,60,80,42
42.79275,43.00257,63,80,42
45.364178,45.792747,41,60,42
45.792747,46.221317,42,60,42
46.221317,46.57846,43,60,42
47.9356,48.364174,46,60,42
48.364174,48.792744,47,63,42
48.792744,49.542744,48,66,42
49.649887,50.078457,49,73,42
50.078457,50.828457,50,76,42
50.9356,51.36417,50,84,42
51.36417,52.54274,51,88,42
52.649883,53.41075,53,100,42
53.519447,53.881763,53,100,42
53.954227,54.170223,65,100,42
54.174816,54.39081,62,90,42
54.395405,54.611397,58,80,42
54.615993,54.831985,53,70,42
54.836582,55.052574,51,60,42
55.05717,55.273163,48,50,42
55.277756,55.645405,46,40,42
60.57187,61.45422,41,60,42
61.45422,61.82187,43,60,42
61.895397,62.77775,44,60,42
62.77775,63.145397,46,60,42
63.218925,64.10128,47,60,42
64.10128,64.468925,48,86,42
64.54245,65.755684,48,100,42
65.86598,66.23363,53,60,42
71.160095,72.04244,36,60,42
72.04244,72.410095,38,60,42
72.48362,73.365974,39,60,42
73.365974,73.73362,41,60,42
73.80715,74.6895,42,60,42
74.6895,75.057144,43,60,42
75.13068,76.01303,44,60,42
76.01303,76.38068,45,76,42
76.45421,76.90196,46,84,42
76.90196,77.349724,47,92,42
77.349724,77.728516,48,100,42
77.804276,78.26581,47,100,42
78.26581,79.12468,48,80,42
79.24968,79.89254,49,40,42
79.89254,80.102356,50,40,42
80.10682,80.46397,52,40,42
80.53539,81.71397,49,40,42
81.821106,82.46396,49,40,42
82.46396,82.67378,50,40,42
82.678246,83.03539,52,40,42
83.10682,84.28539,49,40,42
84.39253,85.035385,57,40,42
85.035385,85.24521,59,46,42
85.24967,85.60682,61,48,42
85.678246,86.535385,62,52,42
86.535385,87.3211,53,61,42
87.39253,87.8211,53,70,42
87.8211,88.178246,55,75,42
88.24967,89.42824,53,80,42
89.535385,90.17824,49,40,42
90.17824,90.38806,50,40,42
90.392525,90.74967,52,40,42
90.8211,91.999664,49,40,42
92.10681,92.749664,49,40,42
92.749664,92.95949,50,40,42
92.96395,93.32109,52,40,42
93.392525,94.57109,49,40,42
94.67824,95.32109,57,40,42
95.32109,95.530914,59,40,42
95.53538,95.89252,61,40,42
95.96395,96.17824,45,40,42
96.17824,96.39252,50,42,42
96.39252,96.606804,54,44,42
96.606804,96.82109,57,46,42
96.82109,97.03538,62,48,42
97.03538,97.2452,66,50,42
97.249664,98.42823,69,52,42
98.53538,98.749664,45,68,42
98.749664,98.96394,50,70,42
98.96394,99.17823,54,72,42
99.17823,99.39252,57,74,42
99.39252,99.606804,62,76,42
99.606804,99.81663,66,79,42
99.82109,100.99966,69,82,42
101.106804,102.74966,65,100,42
102.82108,103.24966,62,100,42
103.24966,103.6068,58,80,42
103.67823,104.53537,57,80,42
104.53537,104.89251,55,60,42
104.96394,106.14251,57,60,42
106.24966,106.89251,41,70,42
106.89251,107.10233,43,75,42
107.1068,107.463936,45,76,42
107.53536,108.713936,46,79,42
108.821075,109.59314,48,89,42
109.70343,109.9307,48,96,42
109.9307,110.153244,57,98,42
110.157974,110.71353,57,100,42
110.782974,110.99131,48,100,42
110.99131,111.19964,57,95,42
111.19964,111.40363,60,90,42
111.407974,112.032974,60,84,42
112.032974,112.23697,58,66,42
112.2413,112.588524,55,60,42
112.657974,113.19851,60,60,42
113.26608,113.46878,48,62,42
113.46878,113.671486,57,62,42
113.671486,113.869965,65,63,42
113.87418,114.48229,65,64,42
114.48229,114.68077,64,67,42
114.685,115.022835,55,68,42
115.0904,115.63094,67,70,42
115.69851,115.901215,57,73,42
115.901215,116.10391,65,74,42
116.10391,116.30239,69,75,42
116.30662,116.91473,69,75,42
116.91473,117.113205,67,78,42
117.117424,117.45526,69,79,42
117.522835,118.13094,69,81,42
118.13094,118.32942,67,84,42
118.33364,118.67148,62,85,42
118.739044,119.27959,65,87,42
119.34715,119.54563,57,90,42
119.54986,119.752556,57,91,42
119.752556,119.95104,58,92,42
119.95526,120.495804,58,93,42
120.56337,120.76185,55,96,42
120.766075,120.96877,55,97,42
120.96877,121.16725,60,98,42
121.17148,122.586174,60,100,42
122.59039,122.78887,55,100,42
122.7931,122.9958,55,80,42
122.9958,123.19428,60,80,42
123.1985,125.0186,60,60,42
125.02283,125.221306,55,60,42
125.225525,125.42823,55,61,42
125.42823,125.62671,60,62,42
125.630936,125.83363,58,63,42
125.83363,126.03211,64,64,42
126.03634,126.374176,64,65,42
126.44174,126.77958,62,67,42
126.847145,127.18498,57,69,42
127.25255,127.59039,62,71,42
127.65796,127.9958,64,73,42
128.06335,128.4012,65,75,42
128.46877,128.80661,65,77,42
128.87418,129.212,67,79,42
129.27957,129.61742,69,81,42
129.68498,130.02281,69,83,42
130.0904,130.42822,67,85,42
130.49579,130.83363,65,88,42
130.9012,131.23903,64,91,42
131.3066,131.64444,60,94,42
131.712,132.04985,58,97,42
132.11742,132.46463,56,100,42
135.29597,135.5058,46,80,42
135.51027,135.7201,46,80,42
135.72455,135.93437,47,80,42
135.93884,136.29597,47,80,42
136.5817,136.79152,47,80,42
136.79597,137.01027,47,74,42
137.01027,137.22008,48,67,42
137.22455,137.5817,48,60,42
137.65312,138.0817,53,60,42
138.0817,138.8674,48,60,42
138.93883,139.3674,55,60,42
139.3674,140.15312,48,60,42
140.22455,140.65312,57,60,42
140.65312,141.43883,48,66,42
141.51025,141.93883,60,80,42
141.93883,142.72455,48,60,42
143.01025,143.22008,53,60,42
143.22455,143.43883,53,60,42
143.43883,143.64865,48,60,42
143.6531,144.01025,48,60,42
144.29597,144.5058,55,60,42
144.51025,144.72455,55,63,42
144.72455,144.93436,48,66,42
144.93883,145.29597,48,69,42
145.58168,145.7915,57,78,42
145.79597,146.01025,57,81,42
146.01025,146.22008,48,84,42
146.22453,146.58168,48,88,42
146.8674,147.07722,58,100,42
147.08168,147.29597,58,80,42
147.29597,147.50578,48,60,42
147.51025,147.93883,48,40,42
147.93883,148.3674,52,40,42
148.3674,148.72453,55,40,42
148.79596,149.22453,57,40,42
149.22453,149.6531,60,40,42
149.6531,150.01025,57,40,42
150.08168,150.51025,58,40,42
150.51025,150.93883,64,42,42
150.93883,151.29596,58,44,42
151.36739,151.79596,57,46,42
151.79596,152.22453,63,48,42
152.22453,152.58168,57,50,42
152.6531,153.08168,58,52,42
153.08168,153.51025,64,54,42
153.51025,153.86739,58,56,42
153.93881,154.36739,59,58,42
154.36739,154.79596,65,60,42
154.79596,155.1531,59,62,42
155.22453,155.6531,67,64,42
155.6531,156.08168,58,66,42
156.08168,156.43881,64,68,42
156.51024,156.93881,55,71,42
156.93881,157.36739,60,74,42
157.36739,157.72453,52,77,42
175.3693,176.23886,53,60,42
176.23886,176.67363,52,60,42
176.67363,177.10841,53,60,42
177.10841,177.5432,57,60,42
177.5432,177.90552,55,60,42
177.97798,178.86034,51,60,42
178.86034,179.30151,50,60,42
179.30151,179.74927,51,60,42
179.74927,180.19704,55,60,42
180.19704,180.57016,53,60,42
180.64479,181.50194,58,80,42
181.50194,181.93051,57,80,42
181.93051,182.35909,58,100,42
182.35909,182.78764,62,100,42
182.78764,183.14479,60,80,42
183.21622,183.64479,57,80,42
183.64479,184.00194,53,60,42
184.07336,184.50194,57,80,42
184.50194,184.93051,58,100,42
184.93051,185.35907,62,100,42
185.35907,185.71622,60,80,42
185.78764,186.21622,57,80,42
186.21622,186.57336,53,60,42
186.64479,187.50192,65,100,42
187.50192,187.9305,63,100,42
187.9305,188.28764,65,100,42
188.35907,188.78764,63,100,42
188.78764,189.14479,62,80,42
189.21622,189.85907,61,80,42
189.85907,189.96622,63,87,42
189.96622,190.07335,61,88,42
190.07335,190.50192,60,89,42
190.50192,190.85907,58,94,42
190.9305,191.80646,57,100,42
191.80646,192.1796,60,60,42
192.25421,192.47021,53,80,42
192.47481,192.90825,53,80,42
192.91278,193.34,53,80,42
193.34447,193.55428,51,80,42
193.55875,193.77303,50,60,42
193.77303,193.98732,53,60,42
193.98732,194.2016,50,60,42
194.2016,194.4159,53,60,42
194.4159,194.63017,48,60,42
194.63017,194.84445,53,60,42
194.84445,195.05875,46,60,42
195.05875,195.27303,53,60,42
195.27303,195.48732,46,60,42
195.48732,195.7016,53,60,42
195.7016,195.9159,55,60,42
195.9159,196.1257,51,60,42
196.13017,196.34445,48,60,42
196.34445,196.55875,53,60,42
196.55875,196.77303,45,60,42
196.77303,196.98732,48,60,42
196.98732,197.2016,53,60,42
197.2016,197.41588,48,60,42
197.41588,197.63017,53,60,42
197.63017,197.84445,46,60,42
197.84445,198.05875,53,60,42
198.05875,198.27303,58,60,42
198.27303,198.48732,55,60,42
198.48732,198.69713,51,60,42
198.7016,198.91588,48,60,42
198.91588,199.13017,53,60,42
199.13017,199.34445,45,60,42
199.34445,199.55875,53,60,42
199.55875,199.77303,57,60,42
199.77303,199.9873,53,60,42
199.9873,200.2016,58,60,42
200.2016,200.41588,53,60,42
200.41588,200.63017,58,60,42
200.63017,200.84445,53,60,42
200.84445,201.05873,60,60,42
201.05873,201.26855,53,60,42
201.27303,201.4873,58,60,42
201.4873,201.7016,53,63,42
201.7016,201.91588,58,66,42
201.91588,202.13017,53,69,42
202.13017,202.34445,58,72,42
202.34445,202.55873,54,75,42
202.55873,202.77303,58,78,42
202.77303,202.9873,54,81,42
202.9873,203.2016,60,84,42
203.2016,203.41588,54,88,42
203.41588,203.63016,55,92,42
203.63016,203.83998,49,96,42
203.84445,204.06184,53,100,42
204.06184,204.27924,48,100,42
204.27924,204.49982,53,92,42
204.49982,204.72041,48,84,42
204.72041,204.94429,45,76,42
204.94429,205.16817,48,68,42
205.16817,205.38739,53,60,42
205.39204,205.83192,53,60,42
205.83652,206.26997,53,60,42
206.27449,206.7017,53,60,42
206.70618,207.13028,53,60,42
207.13475,207.55885,53,60,42
207.56331,207.98743,53,60,42
207.99188,208.416,53,60,42
208.42046,208.84456,53,60,42
208.84903,209.06331,53,60,42
209.06331,209.27313,56,60,42
209.2776,209.7017,56,60,42
209.70618,210.13028,56,60,42
210.13474,210.5559,56,60,42
210.56029,210.97842,56,60,42
210.98283,211.40097,56,61,42
211.40536,211.61223,56,63,42
211.8279,212.03917,56,65,42
212.03917,212.25043,61,66,42
212.25043,212.4617,56,67,42
212.4617,212.67297,53,68,42
212.67297,212.88423,49,69,42
212.88423,213.08823,46,69,42
213.09258,213.5049,49,70,42
213.50923,213.92155,49,72,42
213.9259,214.33823,49,74,42
214.34258,214.7549,49,76,42
214.75923,215.17155,49,78,42
215.1759,215.38423,49,80,42
215.38423,215.58823,48,81,42
215.59256,216.0049,48,82,42
216.00923,216.42155,48,84,42
216.4259,216.83823,48,86,42
216.84256,217.0509,48,88,42
217.0509,217.25488,46,89,42
217.25923,217.46323,46,90,42
217.46756,217.67155,49,91,42
217.6759,217.88423,49,92,42
217.88423,218.0911,54,93,42
218.09549,218.30676,54,94,42
218.30676,218.51804,58,95,42
218.51804,218.7293,54,96,42
218.7293,218.94057,51,97,42
218.94057,219.14743,52,98,42
219.15184,219.36612,53,100,42
219.36612,219.5804,58,100,42
219.5804,219.79022,62,100,42
220.43755,220.65182,53,80,42
220.65182,220.86612,59,80,42
220.86612,221.07594,62,80,42
221.72327,221.93755,53,80,42
221.93755,222.15182,60,80,42
222.15182,222.36165,63,80,42
224.72325,225.15182,41,60,42
225.15182,225.5804,42,60,42
225.5804,225.93755,43,60,42
227.29468,227.72325,46,60,42
227.72325,228.15182,47,63,42
228.15182,228.90182,48,66,42
229.00897,229.43753,49,73,42
229.43753,230.18753,50,76,42
230.29468,230.72325,50,84,42
230.72325,231.90182,51,88,42
232.00896,232.76984,53,100,42
232.87852,233.24084,53,100,42
233.31331,233.5293,65,100,42
233.5339,233.7499,62,90,42
233.75449,233.97047,58,80,42
233.97507,234.19107,53,70,42
234.19566,234.41165,51,60,42
234.41624,234.63225,48,50,42
234.63684,235.00449,46,40,42
239.93095,240.81331,41,60,42
240.81331,241.18095,43,60,42
241.25447,242.13683,44,60,42
242.13683,242.50447,46,60,42
242.578,243.46036,47,60,42
243.46036,243.828,48,86,42
243.90154,245.11476,48,100,42
245.22507,245.59271,53,60,42
250.51918,251.40152,36,60,42
251.40152,251.76917,38,60,42
251.8427,252.72505,39,60,42
252.72505,253.0927,41,60,42
253.16623,254.04858,42,60,42
254.04858,254.41623,43,60,42
254.48976,255.37212,44,60,42
255.37212,255.73976,45,76,42
255.8133,256.26105,46,84,42
256.26105,256.7088,47,92,42
256.7088,257.0876,48,100,42
257.16336,257.62488,47,100,42
257.62488,258.48376,48,80,42
258.60876,259.25162,49,40,42
259.25162,259.46143,50,40,42
259.4659,259.82306,52,40,42
259.89447,261.07306,49,40,42
261.18018,261.82303,49,40,42
261.82303,262.03287,50,40,42
262.03732,262.39447,52,40,42
262.4659,263.64447,49,40,42
263.75162,264.39447,57,40,42
264.39447,264.60428,59,46,42
264.60876,264.9659,61,48,42
265.03732,265.89447,62,52,42
265.89447,266.68018,53,61,42
266.75162,267.18018,53,70,42
267.18018,267.53732,55,75,42
267.60876,268.78732,53,80,42
268.89447,269.53732,49,40,42
269.53732,269.74713,50,40,42
269.75162,270.10876,52,40,42
270.18018,271.35873,49,40,42
271.46588,272.10873,49,40,42
272.10873,272.31857,50,40,42
272.32303,272.68018,52,40,42
272.75162,273.93018,49,40,42
274.03732,274.68018,57,40,42
274.68018,274.88998,59,40,42
274.89447,275.2516,61,40,42
275.32303,275.53732,45,40,42
275.53732,275.7516,50,42,42
275.7516,275.96588,54,44,42
275.96588,276.18018,57,46,42
276.18018,276.39447,62,48,42
276.39447,276.60428,66,50,42
276.60873,277.78732,69,52,42
277.89447,278.10873,45,68,42
278.10873,278.32303,50,70,42
278.32303,278.53732,54,72,42
278.53732,278.7516,57,74,42
278.7516,278.96588,62,76,42
278.96588,279.1757,66,79,42
279.18018,280.35873,69,82,42
280.46588,282.10873,65,100,42
282.18018,282.60873,62,100,42
282.60873,282.96588,58,80,42
283.03732,283.89444,57,80,42
283.89444,284.2516,55,60,42
284.32303,285.5016,57,60,42
285.60873,286.2516,41,70,42
286.2516,286.46143,43,75,42
286.46588,286.82303,45,76,42
286.89444,288.07303,46,79,42
288.18015,288.9522,48,89,42
289.0625,289.2898,48,96,42
289.2898,289.51233,57,98,42
289.51706,290.0726,57,100,42
290.14206,290.3504,48,100,42
290.3504,290.55872,57,95,42
290.55872,290.76273,60,90,42
290.76706,291.39206,60,84,42
291.39206,291.59604,58,66,42
291.60037,291.9476,55,60,42
292.01706,292.5576,60,60,42
292.62515,292.82785,48,62,42
292.82785,293.03058,57,62,42
293.03058,293.22903,65,63,42
293.23328,293.84137,65,64,42
293.84137,294.03986,64,67,42
294.04407,294.38193,55,68,42
294.4495,294.99002,67,70,42
295.0576,295.26028,57,73,42
295.26028,295.46298,65,74,42
295.46298,295.66147,69,75,42
295.6657,296.2738,69,75,42
296.2738,296.4723,67,78,42
296.4765,296.81433,69,79,42
296.88193,297.49002,69,81,42
297.49002,297.6885,67,84,42
297.69272,298.03055,62,85,42
298.0981,298.63867,65,87,42
298.70624,298.90472,57,90,42
298.90894,299.11163,57,91,42
299.11163,299.31012,58,92,42
299.31433,299.8549,58,93,42
299.92245,300.12094,55,96,42
300.12515,300.32785,55,97,42
300.32785,300.52634,60,98,42
300.53055,301.94525,60,100,42
301.94946,302.14795,55,100,42
302.1522,302.3549,55,80,42
302.3549,302.55338,60,80,42
302.5576,304.3777,60,60,42
304.3819,304.58038,55,60,42
304.5846,304.78732,55,61,42
304.78732,304.98578,60,62,42
304.99002,305.19272,58,63,42
305.19272,305.3912,64,64,42
305.39542,305.73325,64,65,42
305.8008,306.13867,62,67,42
306.20624,306.54407,57,69,42
306.61163,306.94946,62,71,42
307.01703,307.3549,64,73,42
307.42245,307.76028,65,75,42
307.82785,308.16568,65,77,42
308.23325,308.57108,67,79,42
308.63867,308.9765,69,81,42
309.04407,309.3819,69,83,42
309.44946,309.7873,67,85,42
309.85486,310.19272,65,88,42
310.26028,310.5981,64,91,42
310.66568,311.0035,60,94,42
311.07108,311.40894,58,97,42
311.4765,311.8237,56,100,42
314.65506,314.86487,46,80,42
314.86935,315.07916,46,80,42
315.08362,315.29346,47,80,42
315.2979,315.65506,47,80,42
315.94077,316.1506,47,80,42
316.15506,316.36935,47,74,42
316.36935,316.57916,48,67,42
316.58362,316.94077,48,60,42
317.0122,317.44077,53,60,42
317.44077,318.22647,48,60,42
318.2979,318.72647,55,60,42
318.72647,319.5122,48,60,42
319.58362,320.0122,57,60,42
320.0122,320.7979,48,66,42
320.86935,321.2979,60,80,42
321.2979,322.08362,48,60,42
322.36932,322.57916,53,60,42
322.58362,322.7979,53,60,42
322.7979,323.00772,48,60,42
323.0122,323.36932,48,60,42
323.65506,323.86487,55,60,42
323.86932,324.08362,55,63,42
324.08362,324.29346,48,66,42
324.2979,324.65506,48,69,42
324.94077,325.15057,57,78,42
325.15506,325.36932,57,81,42
325.36932,325.57916,48,84,42
325.58362,325.94077,48,88,42
326.22647,326.4363,58,100,42
326.44077,326.65506,58,80,42
326.65506,326.86487,48,60,42
326.86932,327.2979,48,40,42
327.2979,327.72647,52,40,42
327.72647,328.08362,55,40,42
328.15506,328.58362,57,40,42
328.58362,329.01218,60,40,42
329.01218,329.36932,57,40,42
329.44077,329.86932,58,40,42
329.86932,330.2979,64,42,42
330.2979,330.65503,58,44,42
330.72647,331.15503,57,46,42
331.15503,331.58362,63,48,42
331.58362,331.94077,57,50,42
332.01218,332.44077,58,52,42
332.44077,332.86932,64,54,42
332.86932,333.22647,58,56,42
333.2979,333.72647,59,58,42
333.72647,334.15503,65,60,42
334.15503,334.51218,59,62,42
334.58362,335.01218,67,64,42
335.01218,335.44077,58,66,42
335.44077,335.79788,64,68,42
335.86932,336.29788,55,71,42
336.29788,336.72647,60,74,42
336.72647,337.08362,52,77,42
354.72836,355.59793,53,60,42
355.59793,356.0327,52,60,42
356.0327,356.4675,53,60,42
356.4675,356.90228,57,60,42
356.90228,357.2646,55,60,42
357.33707,358.21942,51,60,42
358.21942,358.66058,50,60,42
358.66058,359.10837,51,60,42
359.10837,359.55612,55,60,42
359.55612,359.92926,53,60,42
360.00388,360.36102,50,40,42
378.861,379.28958,62,80,42
379.28958,379.71814,64,100,42
379.71814,380.1467,67,100,42
380.1467,380.5753,65,80,42
380.5753,381.00385,62,80,42
381.00385,381.361,59,60,42
382.71814,383.1467,60,80,42
383.1467,383.5753,59,60,42
383.5753,383.93243,57,40,42
385.28955,385.71814,65,80,42
385.71814,386.1467,62,60,42
386.1467,386.50385,59,40,42
387.861,388.28955,64,80,42
388.28955,388.71814,62,60,42
388.71814,389.0753,60,40,42
390.4324,390.861,67,80,42
390.861,391.28955,64,60,42
391.28955,391.6467,61,60,42
393.00385,393.4324,65,60,42
393.4324,393.861,64,62,42
393.861,394.21814,62,64,42
395.57526,396.00385,72,72,42
396.00385,396.4324,69,74,42
396.4324,396.78955,66,76,42
398.1467,398.57526,72,84,42
398.57526,399.00385,69,86,42
399.00385,399.361,63,88,42
400.28955,400.6467,55,94,42
400.7181,401.07526,51,97,42
401.1467,401.25385,50,100,42
401.36096,401.4681,45,100,42
401.57526,401.6824,42,100,42
401.78955,401.8967,38,100,42
402.00385,402.11096,46,100,42
402.2181,402.32526,38,100,42
402.6467,402.75385,48,100,42
402.86096,402.9681,45,100,42
403.07526,403.1824,38,100,42
403.28955,403.3967,50,100,42
403.50385,403.61096,38,100,42
403.9324,404.03955,54,100,42
404.1467,404.25385,45,100,42
404.36096,404.4681,38,100,42
404.57526,404.6824,55,100,42
404.78955,404.8967,43,100,42
405.00385,405.11096,50,100,42
405.2181,405.32526,38,95,42
405.4324,405.53955,55,90,42
405.6467,405.7538,43,85,42
405.86096,405.9681,50,80,42
406.07526,406.1824,38,75,42
412.7181,412.82373,58,100,42
412.92938,413.035,56,100,42
413.14066,413.24628,58,100,42
413.3519,413.45755,61,100,42
413.56317,413.66882,60,100,42
413.77444,413.88007,56,100,42
413.98572,414.09134,60,100,42
414.197,414.3026,58,100,42
414.40823,414.5139,55,100,42
414.6195,414.72516,58,100,42
414.83078,414.93643,56,100,42
415.04205,415.14767,53,100,42
415.25333,415.35748,56,100,42
415.46164,415.56583,55,100,42
415.66998,415.77414,52,100,42
415.87833,415.98248,55,100,42
416.08664,416.19083,53,100,42
416.29498,416.39914,49,100,42
416.50333,416.60748,53,100,42
416.71164,416.81583,52,100,42
416.91998,417.02414,48,100,42
417.12833,417.23248,55,100,42
417.33664,417.44083,53,100,42
417.54498,417.64914,49,100,42
417.75333,417.85748,53,100,42
417.96164,418.06583,52,100,42
418.16998,418.27414,48,100,42
418.37833,418.48248,55,100,42
418.58664,418.69083,53,100,42
418.79498,418.89914,49,100,42
419.00333,419.10605,53,100,42
419.2088,419.31152,52,100,42
419.41428,419.517,48,100,42
419.61975,419.7225,55,100,42
419.82523,419.92798,52,100,42
420.0307,420.13345,60,100,42
420.23618,420.33893,55,100,42
420.44165,420.5444,64,100,42
420.64716,420.74988,60,100,42
420.85263,420.95535,67,100,42
421.0581,421.16083,64,100,42
421.26358,421.36633,60,100,42
421.46906,421.56888,36,100,42
421.46906,421.67307,43,100,42
421.46906,421.67307,52,100,42
421.5732,421.67307,60,100,42
435.57672,436.21957,64,60,42
436.21957,436.42938,66,60,42
436.43387,436.791,67,60,42
436.86243,437.71957,60,60,42
437.71957,438.07672,59,60,42
438.14813,438.791,64,60,42
438.791,439.00528,66,60,42
439.00528,439.36243,67,60,42
439.43384,440.291,58,60,42
440.291,440.64813,57,60,42
440.71957,441.36243,62,60,42
441.36243,441.57224,64,70,42
441.57672,441.93384,65,73,42
442.00528,442.64813,65,79,42
442.64813,442.85794,67,89,42
442.86243,443.21957,68,92,42
443.291,444.14813,67,100,42
444.14813,444.50528,63,100,42
444.5767,445.21957,62,80,42
445.21957,445.42938,64,80,42
445.43384,445.791,61,60,42
448.43384,449.0767,58,80,42
449.0767,449.28653,60,80,42
449.291,449.64813,61,80,42
449.71954,450.5767,63,100,42
450.5767,450.93384,65,100,42
451.00528,451.64813,65,100,42
451.64813,451.8624,62,85,42
451.8624,452.21954,57,80,42
452.291,452.64813,57,70,42
453.5767,454.43384,46,40,42
454.43384,454.8624,45,60,42
454.8624,455.21954,46,80,42
456.14813,457.00525,46,40,42
457.00525,457.43384,45,60,42
457.43384,457.791,46,80,42
458.71954,459.5767,46,40,42
459.5767,460.00525,45,64,42
460.00525,460.3624,46,40,42
461.291,462.1481,46,60,42
462.1481,462.5767,45,92,42
462.5767,462.93384,46,60,42
463.8624,464.07224,46,40,42
464.0767,464.5008,46,40,42
464.50525,464.92935,46,40,42
464.93384,465.35794,46,40,42
465.3624,465.7865,46,40,42
465.79095,466.2151,46,40,42
466.21954,466.64365,46,40,42
466.6481,467.0722,46,40,42
467.0767,467.5008,46,40,42
467.50525,467.92935,46,40,42
467.93384,468.35794,46,40,42
468.3624,468.7865,46,40,42
468.79095,469.00525,46,40,42
469.00525,469.21506,47,40,42
469.21954,469.64365,47,40,42
469.6481,470.0722,47,40,42
470.0767,470.5008,47,40,42
470.50525,470.92935,47,40,42
470.9338,471.35794,47,40,42
471.3624,471.7865,47,40,42
471.79095,472.21506,47,40,42
472.21954,472.64365,47,42,42
472.6481,473.0722,47,44,42
473.0767,473.5008,47,46,42
473.50525,473.92935,49,48,42
473.9338,474.14365,50,50,42
474.1481,474.50525,49,51,42
475.00525,475.4338,45,55,42
475.4338,476.1838,46,57,42
476.29095,476.71954,45,62,42
476.71954,477.46954,46,64,42
477.57666,478.00525,45,69,42
478.00525,478.75525,46,71,42
478.8624,479.2195,45,77,42
479.29095,480.1481,46,80,42
480.1481,480.57666,45,60,42
480.57666,481.00525,46,80,42
481.00525,481.4338,50,80,42
481.4338,481.79095,48,80,42
481.8624,482.29095,45,60,42
482.29095,482.6481,41,60,42
482.7195,483.1481,45,60,42
483.1481,483.57666,46,80,42
483.57666,484.00525,50,80,42
484.00525,484.36237,48,80,42
484.4338,484.86237,45,60,42
484.86237,485.2195,41,60,42
485.29095,486.1481,53,80,42
486.1481,486.57666,51,80,42
486.57666,486.9338,53,80,42
487.00522,487.4338,51,80,42
487.4338,487.79095,50,80,42
487.86237,488.50522,49,80,42
488.50522,488.61237,51,80,42
488.61237,488.7195,49,80,42
488.7195,489.1481,48,80,42
489.1481,489.50522,46,80,42
489.57666,490.4338,45,80,42
490.4338,490.79095,48,60,42
490.86237,491.0722,41,60,42
491.07666,491.50076,41,61,42
491.50522,491.7195,41,63,42
491.7195,491.92932,39,64,42
491.9338,492.14807,39,65,42
492.14807,492.3579,38,66,42
492.36237,492.78647,38,67,42
492.79095,493.00522,38,69,42
493.00522,493.21506,36,70,42
493.2195,493.4338,36,71,42
493.4338,493.64362,46,72,42
493.64807,494.0722,46,73,42
494.07666,494.50076,46,75,42
494.50522,494.7195,46,78,42
494.7195,494.92932,43,80,42
494.9338,495.3579,43,80,42
495.36237,495.78647,43,80,42
495.79092,496.21506,43,80,42
496.2195,496.64362,43,80,42
496.64807,496.86237,43,80,42
496.86237,497.07217,41,81,42
497.07666,497.29092,41,82,42
497.29092,497.50076,39,83,42
497.50522,497.92932,39,84,42
497.9338,498.14807,39,86,42
498.14807,498.3579,36,87,42
498.36237,498.57666,36,88,42
498.57666,498.78647,46,89,42
498.79092,499.21506,46,90,42
499.2195,499.64362,46,92,42
499.64807,499.86237,46,94,42
499.86237,500.07217,44,95,42
500.07666,500.50076,44,96,42
500.50522,500.92932,44,98,42
500.93378,501.14807,44,100,42
501.14807,501.3579,43,100,42
501.36237,501.57666,43,80,42
501.57666,501.78647,55,80,42
501.79092,502.00522,55,80,42
502.00522,502.21503,53,80,42
502.2195,502.43378,53,80,42
502.43378,502.64362,51,80,42
502.64807,502.86237,51,80,42
502.86237,503.07217,50,80,42
503.07666,503.29092,50,80,42
503.29092,503.50076,49,80,42
503.50522,503.7195,49,80,42
503.7195,503.92932,48,80,42
503.93378,504.35788,48,80,42
504.36237,504.78647,48,80,42
504.79092,505.00522,48,80,42
505.00522,505.21503,53,80,42
505.2195,505.64362,53,80,42
505.64807,505.86237,53,80,42
505.86237,506.07217,54,80,42
506.07663,506.29092,54,80,42
506.29092,506.50076,55,80,42
506.50522,506.92932,55,80,42
506.93378,507.35788,55,80,42
507.36237,507.57663,55,80,42
507.57663,507.78647,51,80,42
507.79092,508.00522,51,80,42
508.00522,508.21503,53,80,42
508.21948,508.43378,53,80,42
508.43378,508.64362,55,80,42
508.64807,508.85788,55,80,42
508.86237,509.43378,41,80,42
510.14807,510.71948,41,80,42
510.14807,510.71948,53,80,42
511.43378,512.0052,41,80,42
511.43378,512.0052,53,80,42
514.4338,514.86237,41,100,42
514.86237,515.2909,42,100,42
515.2909,515.6481,43,100,42
517.0052,517.4338,46,100,42
517.4338,517.86237,47,100,42
517.86237,518.61237,48,100,42
518.7195,519.1481,49,100,42
519.1481,519.8981,50,100,42
520.0052,520.4338,50,100,42
520.4338,521.61237,51,100,42
521.7195,522.48035,53,100,42
522.58905,522.95135,53,100,42
523.0238,523.2398,65,100,42
523.24445,523.4604,62,94,42
523.465,523.68097,58,88,42
523.6856,523.9016,53,81,42
523.9062,524.1222,51,74,42
524.1268,524.3428,48,67,42
524.34735,524.715,46,60,42
529.6415,530.4135,46,60,42
530.5238,530.8915,46,60,42
530.965,531.73706,46,60,42
531.84735,532.215,46,60,42
532.2885,532.6562,46,60,42
532.7297,533.09735,46,60,42
533.1709,533.5385,46,60,42
533.61206,533.9797,46,60,42
534.0532,534.4209,46,60,42
534.4944,534.86206,46,60,42
534.9356,535.3032,46,60,42
540.2297,541.0018,41,60,42
541.11206,541.4797,43,60,42
541.5532,542.32526,44,60,42
542.43555,542.8032,46,60,42
542.8768,543.6488,47,60,42
543.7591,544.1268,48,68,42
544.20026,544.97235,49,72,42
545.08264,545.45026,50,81,42
545.5238,545.9586,51,85,42
545.9586,546.3934,52,90,42
546.3934,546.761,53,95,42
546.83453,547.2961,52,100,42
547.2961,548.2052,53,60,42
548.34155,548.9844,54,40,42
548.9844,549.1942,55,40,42
549.19867,549.55585,57,40,42
549.62726,550.80585,54,40,42
550.91296,551.55585,54,40,42
551.55585,551.7656,55,40,42
551.7701,552.12726,57,40,42
552.19867,553.37726,54,40,42
553.4844,554.12726,62,40,42
554.12726,554.3371,64,60,42
554.34155,554.69867,66,66,42
554.7701,555.62726,67,80,42
555.62726,556.41296,58,80,42
556.4844,556.91296,58,80,42
556.91296,557.2701,60,60,42
557.34155,558.5201,58,40,42
558.62726,559.2701,54,40,42
559.2701,559.4799,55,42,42
559.4844,559.84155,57,42,42
559.91296,561.09155,54,43,42
561.19867,561.84155,54,47,42
561.84155,562.05133,55,49,42
562.0558,562.41296,57,49,42
562.4844,563.66296,54,50,42
563.7701,564.41296,62,55,42
564.41296,564.62274,64,57,42
564.62726,564.9844,66,57,42
565.0558,566.2344,67,58,42
566.3415,566.9844,62,63,42
566.9844,567.1942,64,65,42
567.19867,567.5558,66,66,42
567.62726,568.8058,67,68,42
568.91296,569.5558,62,74,42
569.5558,569.7656,64,77,42
569.7701,570.12726,66,78,42
570.19867,570.94867,65,80,42
571.0558,571.91296,58,80,42
571.91296,572.3415,59,80,42
572.3415,572.69867,60,80,42
572.7701,573.94867,53,60,42
574.0558,575.2344,50,60,42
575.3415,575.9844,62,72,42
575.9844,576.1942,63,78,42
576.19867,576.5558,65,80,42
576.6272,577.2701,58,84,42
577.2701,577.4799,59,90,42
577.4844,578.12274,60,92,42
578.1272,578.3415,61,100,42
578.3415,578.5558,62,100,42
578.5558,578.7656,63,100,42
578.7701,579.1272,60,80,42
579.19867,579.5508,58,60,42
590.0672,590.2755,53,100,42
590.2755,590.4795,62,100,42
590.4838,591.0318,62,100,42
591.1003,591.3058,53,95,42
591.3058,591.5112,62,94,42
591.5112,591.71246,65,93,42
591.71674,592.3331,65,92,42
592.3331,592.53436,63,86,42
592.53864,592.8811,60,84,42
592.9496,593.49756,65,80,42
593.56604,593.7715,53,80,42
593.7715,593.977,62,80,42
593.977,594.17816,70,80,42
594.1825,594.7989,70,80,42
594.7989,595.0001,69,81,42
595.0044,595.34686,60,81,42
595.41534,595.9559,72,82,42
596.02344,596.22614,58,83,42
596.22614,596.42883,70,83,42
596.42883,596.6273,74,83,42
596.63153,597.2397,74,83,42
597.2397,597.4382,72,84,42
597.4424,597.7802,74,84,42
597.8478,598.4559,74,85,42
598.4559,598.65436,72,87,42
598.65857,598.9964,67,87,42
599.06396,599.60455,70,88,42
599.6721,599.77344,62,90,42
599.8748,600.0775,62,90,42
600.0775,600.276,63,90,42
600.2802,600.8281,63,91,42
600.89667,600.9994,60,94,42
601.1021,601.3076,60,95,42
601.3076,601.5088,61,96,42
601.51306,601.8603,62,97,42
604.6735,604.88336,39,60,42
604.8878,605.09766,39,60,42
605.1021,605.31195,40,60,42
605.3164,605.684,40,60,42
605.97815,606.19415,40,60,42
606.1987,606.41473,40,54,42
606.4193,606.6353,41,47,42
606.6399,606.9971,41,40,42
607.0685,607.4971,46,60,42
607.4971,608.2828,41,60,42
608.3542,608.7828,48,60,42
608.7828,609.5685,41,60,42
609.6399,610.0685,50,60,42
610.0685,610.8542,41,73,42
610.92566,611.3542,53,100,42
611.3542,612.1399,41,60,42
612.4256,612.5328,58,60,42
612.6399,612.8542,58,60,42
612.8542,613.064,53,60,42
613.0685,613.4256,53,60,42
613.71136,613.8185,60,60,42
613.9256,614.1399,60,60,42
614.1399,614.34973,53,63,42
614.3542,614.71136,53,66,42
614.9971,615.1042,62,76,42
615.21136,615.4256,62,80,42
615.4256,615.63544,53,84,42
615.6399,615.9971,53,88,42
616.2828,616.3899,63,100,42
616.4971,616.71136,63,80,42
616.71136,616.92114,53,60,42
617.1399,617.34973,65,40,42
617.3542,617.5685,65,40,42
617.5685,617.7783,53,40,42
617.7828,618.1399,53,40,42
618.4256,618.63544,62,40,42
618.6399,618.8542,62,40,42
618.8542,619.064,53,40,42
619.0685,619.4256,53,40,42
619.71136,619.92114,60,40,42
619.9256,620.1399,60,41,42
620.1399,620.34973,53,42,42
620.3542,620.71136,53,43,42
620.9971,621.20685,59,46,42
621.2113,621.4256,59,47,42
621.4256,621.63544,53,48,42
621.6399,621.9971,53,49,42
622.2828,622.49255,60,52,42
622.4971,622.7113,60,53,42
622.7113,622.92114,53,54,42
622.9256,623.2828,53,55,42
623.5685,623.7783,61,59,42
623.7828,623.9971,61,60,42
623.9971,624.20685,53,61,42
624.2113,624.5685,53,62,42
624.8542,625.064,60,66,42
625.0685,625.2828,60,68,42
625.2828,625.49255,53,70,42
625.4971,625.8542,53,72,42
626.1399,626.34973,63,78,42
626.3542,626.5685,63,80,42
626.5685,626.7783,53,80,42
626.7828,627.1399,53,80,42
645.2113,646.0685,58,60,42
646.0685,646.497,57,60,42
646.497,646.9256,58,60,42
646.9256,647.3542,62,60,42
647.3542,647.7113,60,60,42
647.7827,648.2113,57,60,42
648.2113,648.5684,53,60,42
648.6399,649.0684,57,60,42
649.0684,649.497,58,60,42
649.497,649.9256,62,60,42
649.9256,650.2827,60,60,42
650.3542,650.7827,57,60,42
650.7827,651.1399,53,60,42
651.2113,651.6399,58,60,42
651.6399,652.0684,55,60,42
652.0684,652.4256,51,60,42
652.497,652.9256,57,60,42
652.9256,653.3542,54,60,42
653.3542,653.7113,50,66,42
653.7827,654.2113,55,72,42
654.2113,654.5684,50,79,42
654.6399,655.0684,55,86,42
655.0684,655.4256,48,93,42
655.497,655.9256,53,100,42
655.9256,656.3541,65,100,42
656.3541,656.7113,63,100,42
656.7827,657.2113,62,100,42
657.2113,657.6399,61,100,42
657.6399,657.997,60,100,42
658.0684,658.497,59,100,42
658.497,658.9256,60,100,42
658.9256,659.2827,56,100,42
659.3541,659.7827,55,100,42
659.7827,660.1399,54,100,42
660.2113,660.6399,51,100,42
660.6399,661.0684,48,100,42
661.0684,661.4256,51,100,42
661.497,661.9256,63,100,42
661.9256,662.3541,62,100,42
662.3541,662.7113,58,100,42
662.7827,663.2113,52,100,42
663.2113,663.6399,53,100,42
663.6399,663.997,57,100,42
664.0684,664.497,63,100,42
664.497,664.9256,62,100,42
664.9256,665.2827,58,100,42
665.3541,665.7827,52,100,42
665.7827,666.2113,53,100,42
666.2113,666.5684,57,100,42
666.63983,667.0684,50,100,42
667.0684,667.497,51,100,42
667.497,667.8541,55,100,42
667.9256,668.3541,48,100,42
668.3541,668.7827,50,100,42
668.7827,669.13983,53,100,42
669.2113,669.63983,46,100,42
669.63983,670.0684,49,100,42
670.0684,670.497,52,100,42
670.497,670.8541,55,100,42
670.9256,672.1212,57,80,42
672.2299,673.46124,57,60,42
673.5732,674.3809,57,40,42
692.8411,693.2083,41,100,42
692.8411,693.3958,48,100,42
693.0286,693.3958,57,100,42
693.5911,693.9583,46,100,42
693.5911,694.1458,50,100,42
693.7786,694.1458,58,100,42
132.74242,132.94641,49,100,45
132.95074,133.15474,49,100,45
133.15907,133.36307,50,100,45
133.36742,133.72455,50,100,45
134.01027,134.2201,49,80,45
134.22455,134.43437,49,80,45
134.43884,134.64865,50,80,45
134.65312,135.01027,50,80,45
157.79596,158.1531,36,80,45
158.22453,158.58167,48,80,45
158.22453,158.58167,55,80,45
158.22453,158.58167,60,80,45
158.65309,159.01024,48,80,45
158.65309,159.01024,55,80,45
158.65309,159.01024,60,80,45
159.08167,159.43378,36,80,45
159.50421,159.85632,48,81,45
159.50421,159.85632,53,81,45
159.50421,159.85632,60,81,45
159.92674,160.27885,48,82,45
159.92674,160.27885,53,82,45
159.92674,160.27885,60,82,45
160.34927,160.70139,36,83,45
160.7718,161.12392,48,84,45
160.7718,161.12392,55,84,45
160.7718,161.12392,60,84,45
161.19435,161.54646,48,85,45
161.19435,161.54646,55,85,45
161.19435,161.54646,60,85,45
161.61688,161.9641,36,86,45
162.03354,162.38077,48,87,45
162.03354,162.38077,54,87,45
162.03354,162.38077,60,87,45
162.45021,162.79744,48,88,45
162.45021,162.79744,54,88,45
162.45021,162.79744,60,88,45
162.86688,163.2141,36,89,45
163.28354,163.63077,48,90,45
163.28354,163.63077,55,90,45
163.28354,163.63077,60,90,45
163.70021,164.04742,48,91,45
163.70021,164.04742,55,91,45
163.70021,164.04742,60,91,45
164.11688,164.45934,36,92,45
164.52783,164.8703,44,93,45
164.52783,164.8703,50,93,45
164.52783,164.8703,59,93,45
164.9388,165.28125,44,94,45
164.9388,165.28125,50,94,45
164.9388,165.28125,59,94,45
165.34975,165.69221,36,95,45
165.76071,166.10318,44,96,45
165.76071,166.10318,50,96,45
165.76071,166.10318,59,96,45
166.17166,166.51413,44,98,45
166.17166,166.51413,50,98,45
166.17166,166.51413,59,98,45
166.58263,166.9251,36,100,45
166.99358,167.33604,43,100,45
166.99358,167.33604,52,100,45
166.99358,167.33604,58,100,45
167.40454,167.74701,43,100,45
167.40454,167.74701,52,100,45
167.40454,167.74701,58,100,45
168.22646,168.56892,48,80,45
168.22646,168.56892,53,80,45
168.22646,168.56892,57,80,45
168.63742,168.97987,48,80,45
168.63742,168.97987,53,80,45
168.63742,168.97987,57,80,45
169.46504,169.81226,48,60,45
169.46504,169.81226,58,60,45
169.8817,170.22893,48,60,45
169.8817,170.22893,58,60,45
170.71504,171.06226,48,60,45
170.71504,171.06226,57,60,45
171.1317,171.47893,48,57,45
171.1317,171.47893,57,57,45
171.9709,172.32301,48,51,45
171.9709,172.32301,57,51,45
172.39343,172.74554,48,48,45
172.39343,172.74554,57,48,45
173.23851,173.59062,48,40,45
173.23851,173.59062,57,40,45
174.08357,174.44072,48,40,45
174.08357,174.44072,57,40,45
312.1015,312.30548,49,100,45
312.3098,312.51382,49,100,45
312.51816,312.72214,50,100,45
312.7265,313.08365,50,100,45
313.36935,313.57916,49,80,45
313.58362,313.79346,49,80,45
313.7979,314.00775,50,80,45
314.0122,314.36935,50,80,45
337.15503,337.51218,36,80,45
337.58362,337.94077,48,80,45
337.58362,337.94077,55,80,45
337.58362,337.94077,60,80,45
338.01218,338.36932,48,80,45
338.01218,338.36932,55,80,45
338.01218,338.36932,60,80,45
338.44077,338.79288,36,80,45
338.86328,339.2154,48,81,45
338.86328,339.2154,53,81,45
338.86328,339.2154,60,81,45
339.28583,339.63794,48,82,45
339.28583,339.63794,53,82,45
339.28583,339.63794,60,82,45
339.70834,340.06046,36,83,45
340.1309,340.483,48,84,45
340.1309,340.483,55,84,45
340.1309,340.483,60,84,45
340.55344,340.90555,48,85,45
340.55344,340.90555,55,85,45
340.55344,340.90555,60,85,45
340.97595,341.32318,36,86,45
341.39264,341.73984,48,87,45
341.39264,341.73984,54,87,45
341.39264,341.73984,60,87,45
341.8093,342.15652,48,88,45
341.8093,342.15652,54,88,45
341.8093,342.15652,60,88,45
342.22595,342.57318,36,89,45
342.64264,342.98984,48,90,45
342.64264,342.98984,55,90,45
342.64264,342.98984,60,90,45
343.0593,343.40652,48,91,45
343.0593,343.40652,55,91,45
343.0593,343.40652,60,91,45
343.47595,343.81842,36,92,45
343.8869,344.22937,44,93,45
343.8869,344.22937,50,93,45
343.8869,344.22937,59,93,45
344.29788,344.64035,44,94,45
344.29788,344.64035,50,94,45
344.29788,344.64035,59,94,45
344.70883,345.0513,36,95,45
345.11978,345.46225,44,96,45
345.11978,345.46225,50,96,45
345.11978,345.46225,59,96,45
345.53076,345.8732,44,98,45
345.53076,345.8732,50,98,45
345.53076,345.8732,59,98,45
345.9417,346.28418,36,100,45
346.35266,346.69513,43,100,45
346.35266,346.69513,52,100,45
346.35266,346.69513,58,100,45
346.7636,347.10608,43,100,45
346.7636,347.10608,52,100,45
346.7636,347.10608,58,100,45
347.58554,347.928,48,80,45
347.58554,347.928,53,80,45
347.58554,347.928,57,80,45
347.9965,348.33896,48,80,45
347.9965,348.33896,53,80,45
347.9965,348.33896,57,80,45
348.82413,349.17133,48,60,45
348.82413,349.17133,58,60,45
349.24078,349.588,48,60,45
349.24078,349.588,58,60,45
350.07413,350.42133,48,60,45
350.07413,350.42133,57,60,45
350.49078,350.838,48,57,45
350.49078,350.838,57,57,45
351.33,351.6821,48,51,45
351.33,351.6821,57,51,45
351.75253,352.10464,48,48,45
351.75253,352.10464,57,48,45
352.5976,352.9497,48,40,45
352.5976,352.9497,57,40,45
353.44266,353.7998,48,40,45
353.44266,353.7998,57,40,45
375.00385,375.361,53,80,45
375.43243,375.78958,52,80,45
375.43243,375.78958,59,80,45
377.14673,377.50385,53,80,45
377.14673,377.50385,57,80,45
378.00385,378.361,51,80,45
378.00385,378.361,59,80,45
406.7181,407.07526,43,60,45
406.7181,407.07526,50,60,45
407.1467,407.5038,43,60,45
407.1467,407.5038,51,60,45
408.0038,408.36096,43,66,45
408.0038,408.36096,53,66,45
408.4324,408.78955,43,69,45
408.4324,408.78955,55,69,45
409.28955,409.64667,43,75,45
409.28955,409.64667,50,75,45
409.28955,409.64667,59,75,45
409.7181,410.07526,43,78,45
409.7181,410.07526,51,78,45
409.7181,410.07526,60,78,45
410.57526,410.9324,43,84,45
410.57526,410.9324,50,84,45
410.57526,410.9324,59,84,45
411.0038,411.36096,43,87,45
411.0038,411.36096,51,87,45
411.0038,411.36096,60,87,45
411.4324,411.78955,43,90,45
411.4324,411.78955,50,90,45
411.4324,411.78955,59,90,45
411.86096,412.2181,43,93,45
411.86096,412.2181,51,93,45
411.86096,412.2181,60,93,45
412.28955,412.64667,43,96,45
412.28955,412.64667,50,96,45
412.28955,412.64667,59,96,45
602.13806,602.34204,42,100,45
602.34644,602.5504,42,100,45
602.55475,602.7587,43,100,45
602.76306,603.1152,43,100,45
603.39685,603.60376,42,80,45
603.60815,603.815,42,80,45
603.8194,604.0263,43,80,45
604.0307,604.3878,43,80,45
627.6399,627.9971,53,80,45
627.6399,627.9971,60,80,45
628.0685,628.4256,53,80,45
628.0685,628.4256,60,80,45
628.9256,629.2828,53,80,45
628.9256,629.2828,62,80,45
629.3542,629.7113,53,81,45
629.3542,629.7113,62,81,45
630.2113,630.5685,53,83,45
630.2113,630.5685,60,83,45
630.6399,630.997,53,84,45
630.6399,630.997,60,84,45
631.497,631.8542,53,86,45
631.497,631.8542,59,86,45
631.9256,632.2828,53,87,45
631.9256,632.2828,59,87,45
632.7828,633.1399,53,89,45
632.7828,633.1399,60,89,45
633.2113,633.5685,53,90,45
633.2113,633.5685,60,90,45
633.6399,633.997,41,91,45
634.0685,634.4256,41,92,45
634.497,634.8542,41,93,45
634.9256,635.2828,41,94,45
635.3542,635.7113,41,96,45
635.7828,636.1399,41,98,45
636.2113,636.5685,41,100,45
636.6399,636.997,53,100,45
637.0685,637.4256,41,100,45
637.497,637.8542,41,100,45
637.9256,638.2828,53,80,45
637.9256,638.2828,58,80,45
638.3542,638.7113,53,60,45
638.3542,638.7113,58,60,45
639.2113,639.5685,53,60,45
639.2113,639.5685,60,60,45
639.6399,639.997,53,60,45
639.6399,639.997,60,60,45
640.497,640.8542,53,60,45
640.497,640.8542,58,60,45
640.9256,641.2827,53,60,45
640.9256,641.2827,58,60,45
641.7827,642.1399,53,60,45
641.7827,642.1399,58,60,45
642.2113,642.5685,53,56,45
642.2113,642.5685,58,56,45
643.0685,643.4256,53,48,45
643.9256,644.2827,50,40,45
676.88635,677.30304,46,60,45
677.38635,677.80304,41,60,45
678.38635,678.80304,48,60,45
678.88635,679.30304,41,60,45
679.88635,680.30304,51,60,45
680.38635,680.80304,41,60,45
681.38635,681.80304,53,60,45
681.88635,682.30304,41,60,45
683.38635,683.80304,41,60,45
683.38635,683.80304,50,60,45
683.38635,683.80304,58,60,45
684.88635,685.30304,41,60,45
684.88635,685.30304,48,60,45
684.88635,685.30304,57,60,45
686.38635,686.80304,41,60,45
686.38635,686.80304,51,60,45
686.38635,686.80304,57,60,45
687.38635,687.80304,41,80,45
687.38635,687.80304,48,80,45
687.38635,687.80304,57,80,45
688.38635,688.81744,46,100,45
688.38635,688.81744,53,100,45
689.42084,689.8519,41,100,45
689.42084,689.8519,48,100,45
689.42084,689.8519,53,100,45
689.9381,690.39264,46,90,45
689.9381,690.39264,53,90,45
691.029,691.4836,41,70,45
691.029,691.4836,48,70,45
691.029,691.4836,53,70,45
691.57446,692.07446,46,60,45
691.57446,692.07446,53,60,45
1.285713,2.142855,46,80,42
2.142855,2.571426,41,80,42
2.571426,3.428568,38,80,42
3.428568,3.7857106,39,80,42
3.857139,4.714281,41,80,42
4.714281,5.142852,39,80,42
5.142852,5.999994,38,80,42
5.999994,6.3571367,39,80,42
6.428565,7.178564,41,80,42
7.285707,7.714278,41,80,42
7.714278,8.57142,43,100,42
8.57142,8.928562,45,80,42
8.999991,9.857133,46,80,42
9.857133,10.285704,42,86,42
10.285704,11.142846,39,89,42
11.142846,11.499989,40,96,42
11.571417,12.7831955,41,100,42
12.895136,13.481239,41,80,42
13.553703,13.771094,51,80,42
13.771094,13.985379,50,80,42
13.985379,14.195201,48,80,42
14.199665,15.056807,46,80,42
15.056807,15.485378,41,80,42
15.485378,16.34252,38,80,42
16.34252,16.699663,39,80,42
16.771091,17.628233,41,80,42
17.628233,18.056805,39,80,42
18.056805,18.913946,38,80,42
18.913946,19.271088,39,80,42
19.342518,20.092516,41,80,42
20.19966,20.62823,41,80,42
20.62823,21.485373,43,80,42
21.485373,21.842514,45,80,42
21.913942,22.771086,46,80,42
22.771086,23.199656,42,86,42
23.199656,24.056799,39,89,42
24.056799,24.41394,40,96,42
24.485369,25.697147,41,100,42
25.809088,26.58773,41,80,42
26.698025,27.060343,39,80,42
27.132807,27.561378,37,80,42
27.561378,27.989948,49,80,42
27.989948,28.347092,48,80,42
28.41852,29.59709,46,80,42
29.704233,30.882803,44,82,42
30.989946,31.835016,44,84,42
31.835016,32.18713,42,85,42
32.25755,32.680084,41,85,42
32.680084,33.10262,53,85,42
33.10262,33.454735,49,85,42
33.525154,34.670986,46,85,42
34.775154,35.920986,41,88,42
36.02515,37.170982,41,91,42
37.27515,39.68712,42,94,42
39.79275,40.36418,41,100,42
41.078465,41.649895,41,80,42
42.364178,42.935608,41,80,42
45.364178,45.792747,41,60,42
45.792747,46.221317,42,60,42
46.221317,46.57846,43,60,42
47.9356,48.364174,46,60,42
48.364174,48.792744,47,63,42
48.792744,49.542744,48,66,42
49.649887,50.078457,37,73,42
50.078457,50.828457,38,76,42
50.9356,51.36417,38,84,42
51.36417,52.54274,39,88,42
52.649883,53.845535,41,100,42
53.954227,55.16746,41,80,42
55.277756,56.16011,46,60,42
56.16011,56.527756,45,60,42
56.601284,57.04246,46,80,42
57.04246,57.48364,50,80,42
57.48364,57.851284,48,60,42
57.924812,58.36599,45,80,42
58.36599,58.807163,48,80,42
58.807163,59.174812,46,60,42
59.24834,60.13069,43,80,42
60.13069,60.49834,41,60,42
60.57187,60.939514,41,40,42
65.86598,66.74834,41,60,42
66.74834,67.11598,40,60,42
67.18951,67.630684,41,60,42
67.630684,68.07186,45,80,42
68.07186,68.43951,43,60,42
68.51304,68.954216,40,60,42
68.954216,69.395386,43,80,42
69.395386,69.76304,41,60,42
69.83656,70.71892,38,80,42
70.71892,71.08656,36,60,42
71.160095,71.380684,36,60,42
71.380684,71.60127,43,60,42
71.60127,71.82185,55,60,42
71.82185,72.26303,43,60,42
72.26303,72.47903,55,60,42
72.70421,72.9248,43,60,42
72.9248,73.145386,55,60,42
73.145386,73.365974,43,60,42
73.365974,73.58656,44,60,42
73.58656,73.80255,56,60,42
74.02774,74.24832,45,60,42
74.24832,74.46891,57,60,42
74.46891,74.6895,45,60,42
74.6895,74.91009,46,60,42
74.91009,75.12608,58,60,42
75.351265,75.57185,47,60,42
75.57185,75.79244,59,65,42
75.79244,76.01303,47,70,42
76.01303,76.23362,48,75,42
76.23362,76.44961,60,80,42
76.45421,76.678085,48,85,42
76.678085,77.121185,60,90,42
77.12585,77.572266,60,100,42
77.576996,78.030235,60,100,42
78.03504,78.50271,60,84,42
78.507744,78.99447,60,67,42
78.99968,79.24968,60,49,42
79.24968,79.60682,61,40,42
85.678246,86.10682,45,80,42
86.10682,86.535385,46,80,42
85.678246,86.85681,38,80,42
86.535385,86.89253,47,80,42
86.96396,88.142525,36,80,42
86.96396,88.142525,48,80,42
88.24967,88.678246,48,80,42
88.678246,89.10681,50,67,42
88.24967,89.42824,41,80,42
89.10681,89.46396,51,54,42
89.535385,89.892525,40,40,42
95.96395,96.82109,38,40,42
95.96395,96.82109,45,40,42
96.82109,97.17823,50,50,42
97.249664,98.42823,45,55,42
98.53538,99.39252,38,70,42
98.53538,99.39252,45,70,42
99.39252,99.74966,50,80,42
99.82109,100.99966,45,85,42
101.106804,102.28537,45,100,42
102.39252,103.57108,46,80,42
103.67823,104.8568,48,60,42
104.96394,106.14251,45,60,42
106.24966,106.89251,57,66,42
106.89251,107.10233,58,69,42
107.1068,107.463936,60,70,42
107.53536,108.17822,53,72,42
108.17822,108.38805,54,75,42
108.39251,109.03707,55,76,42
109.041664,109.26225,56,80,42
109.26225,109.48284,57,80,42
109.48284,109.69884,58,80,42
109.70343,110.08222,55,80,42
110.157974,110.505196,41,60,42
111.407974,111.755196,40,60,42
112.657974,112.99581,41,60,42
113.87418,114.21202,36,64,42
115.0904,115.42824,38,70,42
116.30662,116.644455,46,76,42
117.522835,117.86067,47,82,42
118.739044,119.07688,48,88,42
119.95526,120.2931,36,94,42
121.17148,121.509315,41,100,42
122.387695,122.72553,40,80,42
123.603905,123.94174,41,60,42
124.82012,125.15796,36,60,42
126.03634,126.374176,38,66,42
127.25255,127.59039,46,72,42
128.46877,128.80661,47,78,42
129.68498,130.02281,48,85,42
130.9012,131.23903,36,92,42
132.11742,133.36742,47,100,42
133.36742,135.01027,47,60,42
135.29597,135.5058,46,60,42
135.51027,135.7201,46,60,42
135.72455,135.93437,47,60,42
135.93884,136.29597,47,60,42
136.5817,136.79152,47,60,42
136.79597,137.01027,47,60,42
137.01027,137.22008,48,60,42
137.22455,137.5817,48,60,42
137.65312,138.0817,41,60,42
138.0817,138.8674,36,60,42
138.93883,139.3674,43,60,42
139.3674,140.15312,36,60,42
140.22455,140.65312,45,60,42
140.65312,141.43883,36,66,42
141.51025,141.93883,48,80,42
141.93883,142.72455,36,60,42
143.01025,143.22008,41,60,42
143.22455,143.43883,41,60,42
143.43883,143.64865,36,60,42
143.6531,144.01025,36,60,42
144.29597,144.5058,43,60,42
144.51025,144.72455,43,63,42
144.72455,144.93436,36,66,42
144.93883,145.29597,36,69,42
145.58168,145.7915,45,78,42
145.79597,146.01025,45,81,42
146.01025,146.22008,36,84,42
146.22453,146.58168,36,88,42
146.8674,147.07722,46,100,42
147.08168,147.29597,46,80,42
147.29597,147.50578,36,60,42
147.51025,147.8674,36,40,42
148.1531,148.36293,46,40,42
148.3674,148.58168,46,40,42
148.58168,148.7915,36,40,42
148.79596,149.1531,36,40,42
149.43883,149.64865,45,40,42
149.6531,149.8674,45,40,42
149.8674,150.07721,36,40,42
150.08168,150.43883,36,40,42
150.72453,150.93436,43,43,42
150.93883,151.1531,43,44,42
151.1531,151.36293,36,45,42
151.36739,151.72453,36,46,42
152.01025,152.22006,42,49,42
152.22453,152.43881,42,50,42
152.43881,152.64864,36,51,42
152.6531,153.01025,36,52,42
153.29596,153.50578,43,55,42
153.51025,153.72453,43,56,42
153.72453,153.93436,36,57,42
153.93881,154.29596,36,58,42
154.58168,154.79149,44,61,42
154.79596,155.01024,44,62,42
155.01024,155.22006,36,63,42
155.22453,155.58168,36,64,42
155.86739,156.07721,43,67,42
156.08168,156.29596,43,68,42
156.29596,156.50578,36,69,42
156.51024,156.86739,36,70,42
157.1531,157.36292,46,74,42
157.36739,157.58167,46,76,42
157.58167,157.79149,36,78,42
157.79596,158.43881,36,80,42
158.43881,158.64864,38,80,42
158.65309,159.01024,36,80,42
159.08167,159.71547,36,80,42
159.71547,159.92233,41,81,42
159.92674,160.27885,36,81,42
160.34927,160.98308,36,82,42
160.98308,161.18994,38,83,42
161.19435,161.54646,36,83,42
161.61688,162.24188,36,84,42
162.24188,162.44588,45,86,42
162.45021,162.79744,36,86,42
162.86688,163.49188,36,87,42
163.49188,163.69588,38,89,42
163.70021,164.04742,36,89,42
164.11688,164.7333,36,90,42
164.11688,164.7333,47,90,42
164.7333,164.93451,36,92,42
164.7333,164.93451,48,92,42
164.9388,165.28125,36,92,42
164.9388,165.28125,50,92,42
165.34975,165.96619,36,94,42
165.34975,165.96619,50,94,42
165.96619,166.16739,36,97,42
165.96619,166.16739,52,97,42
166.17166,166.51413,36,98,42
166.17166,166.51413,53,98,42
166.58263,167.19907,36,100,42
166.58263,167.19907,55,100,42
167.19907,167.40025,36,100,42
167.19907,167.40025,52,100,42
167.40454,167.74701,36,100,42
167.40454,167.74701,48,100,42
167.81549,168.15796,36,100,42
168.43193,168.63313,48,80,42
168.63742,168.8429,48,80,42
168.8429,169.0441,36,80,42
169.04837,169.3956,36,80,42
169.67337,169.87737,48,60,42
169.8817,170.09004,48,60,42
170.09004,170.29404,36,60,42
170.29837,170.64558,36,60,42
170.92337,171.12737,48,60,42
171.1317,171.34004,48,58,42
171.34004,171.54402,36,56,42
171.54837,171.90048,36,54,42
172.18217,172.38904,48,48,42
172.39343,172.6047,48,46,42
172.6047,172.81157,36,43,42
172.81598,173.16809,36,40,42
173.44977,173.65665,48,40,42
173.66104,174.51215,48,40,42
174.51215,175.3693,45,40,42
175.3693,175.73161,41,40,42
180.64479,181.50194,46,80,42
181.50194,181.93051,41,80,42
181.93051,182.78764,38,80,42
182.78764,183.14479,39,80,42
183.21622,184.07336,41,80,42
184.07336,184.50194,39,80,42
184.50194,185.35907,38,80,42
185.35907,185.71622,39,80,42
185.78764,186.53764,41,80,42
186.64479,187.07336,41,80,42
187.07336,187.9305,43,100,42
187.9305,188.28764,45,80,42
188.35907,189.21622,46,80,42
189.21622,189.64479,42,86,42
189.64479,190.50192,39,89,42
190.50192,190.85907,40,96,42
190.9305,192.14227,41,100,42
192.25421,192.84032,41,80,42
192.91278,193.13017,51,80,42
193.13017,193.34447,50,80,42
193.34447,193.55428,48,80,42
193.55875,194.4159,46,80,42
194.4159,194.84445,41,80,42
194.84445,195.7016,38,80,42
195.7016,196.05875,39,80,42
196.13017,196.98732,41,80,42
196.98732,197.41588,39,80,42
197.41588,198.27303,38,80,42
198.27303,198.63017,39,80,42
198.7016,199.4516,41,80,42
199.55875,199.9873,41,80,42
199.9873,200.84445,43,80,42
200.84445,201.2016,45,80,42
201.27303,202.13017,46,80,42
202.13017,202.55873,42,86,42
202.55873,203.41588,39,89,42
203.41588,203.77303,40,96,42
203.84445,205.05623,41,100,42
205.16817,205.94681,41,80,42
206.0571,206.41942,39,80,42
206.49188,206.92046,37,80,42
206.92046,207.34903,49,80,42
207.34903,207.70618,48,80,42
207.7776,208.95618,46,80,42
209.06331,210.24188,44,82,42
210.34903,211.19409,44,84,42
211.19409,211.5462,42,85,42
211.61664,212.03917,41,85,42
212.03917,212.4617,53,85,42
212.4617,212.81381,49,85,42
212.88423,214.03008,46,85,42
214.13423,215.28006,41,88,42
215.38423,216.53006,41,91,42
216.63423,219.0462,42,94,42
219.15184,219.72327,41,100,42
220.43755,221.00897,41,80,42
221.72327,222.2947,41,80,42
224.72325,225.15182,41,60,42
225.15182,225.5804,42,60,42
225.5804,225.93755,43,60,42
227.29468,227.72325,46,60,42
227.72325,228.15182,47,63,42
228.15182,228.90182,48,66,42
229.00897,229.43753,37,73,42
229.43753,230.18753,38,76,42
230.29468,230.72325,38,84,42
230.72325,231.90182,39,88,42
232.00896,233.20462,41,100,42
233.31331,234.52655,41,80,42
234.63684,235.5192,46,60,42
235.5192,235.88684,45,60,42
235.96037,236.40154,46,80,42
236.40154,236.84271,50,80,42
236.84271,237.21036,48,60,42
237.28389,237.72507,45,80,42
237.72507,238.16624,48,80,42
238.16624,238.53389,46,60,42
238.60742,239.48978,43,80,42
239.48978,239.85742,41,60,42
239.93095,240.2986,41,40,42
245.22507,246.1074,41,60,42
246.1074,246.47507,40,60,42
246.54858,246.98976,41,60,42
246.98976,247.43094,45,80,42
247.43094,247.79858,43,60,42
247.87212,248.3133,40,60,42
248.3133,248.75447,43,80,42
248.75447,249.12212,41,60,42
249.19565,250.078,38,80,42
250.078,250.44565,36,60,42
250.51918,250.73976,36,60,42
250.73976,250.96034,43,60,42
250.96034,251.18094,55,60,42
251.18094,251.62212,43,60,42
251.62212,251.8381,55,60,42
252.0633,252.28387,43,60,42
252.28387,252.50447,55,60,42
252.50447,252.72505,43,60,42
252.72505,252.94565,44,60,42
252.94565,253.16164,56,60,42
253.38683,253.6074,45,60,42
253.6074,253.82799,57,60,42
253.82799,254.04858,45,60,42
254.04858,254.26917,46,60,42
254.26917,254.48517,58,60,42
254.71034,254.93094,47,60,42
254.93094,255.15152,59,65,42
255.15152,255.37212,47,70,42
255.37212,255.5927,48,75,42
255.5927,255.80869,60,80,42
255.8133,256.03717,48,85,42
256.03717,256.48026,60,90,42
256.48492,256.93134,60,100,42
256.93607,257.3893,60,100,42
257.39413,257.8618,60,84,42
257.86682,258.35355,60,67,42
258.35876,258.60876,60,49,42
258.60876,258.9659,61,40,42
265.03732,265.4659,45,80,42
265.4659,265.89447,46,80,42
265.03732,266.21588,38,80,42
265.89447,266.25162,47,80,42
266.32303,267.50162,36,80,42
266.32303,267.50162,48,80,42
267.60876,268.03732,48,80,42
268.03732,268.46588,50,67,42
267.60876,268.78732,41,80,42
268.46588,268.82303,51,54,42
268.89447,269.25162,40,40,42
275.32303,276.18018,38,40,42
275.32303,276.18018,45,40,42
276.18018,276.53732,50,50,42
276.60873,277.78732,45,55,42
277.89447,278.7516,38,70,42
277.89447,278.7516,45,70,42
278.7516,279.10873,50,80,42
279.18018,280.35873,45,85,42
280.46588,281.64444,45,100,42
281.7516,282.93018,46,80,42
283.03732,284.21588,48,60,42
284.32303,285.5016,45,60,42
285.60873,286.2516,57,66,42
286.2516,286.46143,58,69,42
286.46588,286.82303,60,70,42
286.89444,287.5373,53,72,42
287.5373,287.74713,54,75,42
287.7516,288.39615,55,76,42
288.40076,288.62134,56,80,42
288.62134,288.84192,57,80,42
288.84192,289.05792,58,80,42
289.0625,289.4413,55,80,42
289.51706,289.8643,41,60,42
290.76706,291.1143,40,60,42
292.01706,292.3549,41,60,42
293.23328,293.5711,36,64,42
294.4495,294.78732,38,70,42
295.6657,296.00354,46,76,42
296.88193,297.21976,47,82,42
298.0981,298.43597,48,88,42
299.31433,299.6522,36,94,42
300.53055,300.8684,41,100,42
301.74677,302.08463,40,80,42
302.96298,303.3008,41,60,42
304.1792,304.51703,36,60,42
305.39542,305.73325,38,66,42
306.61163,306.94946,46,72,42
307.82785,308.16568,47,78,42
309.04407,309.3819,48,85,42
310.26028,310.5981,36,92,42
311.4765,312.7265,47,100,42
312.7265,314.36935,47,60,42
314.65506,314.86487,46,60,42
314.86935,315.07916,46,60,42
315.08362,315.29346,47,60,42
315.2979,315.65506,47,60,42
315.94077,316.1506,47,60,42
316.15506,316.36935,47,60,42
316.36935,316.57916,48,60,42
316.58362,316.94077,48,60,42
317.0122,317.44077,41,60,42
317.44077,318.22647,36,60,42
318.2979,318.72647,43,60,42
318.72647,319.5122,36,60,42
319.58362,320.0122,45,60,42
320.0122,320.7979,36,66,42
320.86935,321.2979,48,80,42
321.2979,322.08362,36,60,42
322.36932,322.57916,41,60,42
322.58362,322.7979,41,60,42
322.7979,323.00772,36,60,42
323.0122,323.36932,36,60,42
323.65506,323.86487,43,60,42
323.86932,324.08362,43,63,42
324.08362,324.29346,36,66,42
324.2979,324.65506,36,69,42
324.94077,325.15057,45,78,42
325.15506,325.36932,45,81,42
325.36932,325.57916,36,84,42
325.58362,325.94077,36,88,42
326.22647,326.4363,46,100,42
326.44077,326.65506,46,80,42
326.65506,326.86487,36,60,42
326.86932,327.22647,36,40,42
327.51218,327.72202,46,40,42
327.72647,327.94077,46,40,42
327.94077,328.15057,36,40,42
328.15506,328.51218,36,40,42
328.7979,329.00772,45,40,42
329.01218,329.22647,45,40,42
329.22647,329.4363,36,40,42
329.44077,329.7979,36,40,42
330.08362,330.29343,43,43,42
330.2979,330.51218,43,44,42
330.51218,330.72202,36,45,42
330.72647,331.08362,36,46,42
331.36932,331.57916,42,49,42
331.58362,331.7979,42,50,42
331.7979,332.00772,36,51,42
332.01218,332.36932,36,52,42
332.65503,332.86487,43,55,42
332.86932,333.08362,43,56,42
333.08362,333.29343,36,57,42
333.2979,333.65503,36,58,42
333.94077,334.15057,44,61,42
334.15503,334.36932,44,62,42
334.36932,334.57916,36,63,42
334.58362,334.94077,36,64,42
335.22647,335.43628,43,67,42
335.44077,335.65503,43,68,42
335.65503,335.86487,36,69,42
335.86932,336.22647,36,70,42
336.51218,336.72202,46,74,42
336.72647,336.94077,46,76,42
336.94077,337.15057,36,78,42
337.15503,337.79788,36,80,42
337.79788,338.00772,38,80,42
338.01218,338.36932,36,80,42
338.44077,339.07455,36,80,42
339.07455,339.28143,41,81,42
339.28583,339.63794,36,81,42
339.70834,340.34216,36,82,42
340.34216,340.549,38,83,42
340.55344,340.90555,36,83,42
340.97595,341.60095,36,84,42
341.60095,341.80496,45,86,42
341.8093,342.15652,36,86,42
342.22595,342.85095,36,87,42
342.85095,343.05496,38,89,42
343.0593,343.40652,36,89,42
343.47595,344.0924,36,90,42
343.47595,344.0924,47,90,42
344.0924,344.29358,36,92,42
344.0924,344.29358,48,92,42
344.29788,344.64035,36,92,42
344.29788,344.64035,50,92,42
344.70883,345.32526,36,94,42
344.70883,345.32526,50,94,42
345.32526,345.52646,36,97,42
345.32526,345.52646,52,97,42
345.53076,345.8732,36,98,42
345.53076,345.8732,53,98,42
345.9417,346.55814,36,100,42
345.9417,346.55814,55,100,42
346.55814,346.75934,36,100,42
346.55814,346.75934,52,100,42
346.7636,347.10608,36,100,42
346.7636,347.10608,48,100,42
347.1746,347.51703,36,100,42
347.79102,347.99222,48,80,42
347.9965,348.20197,48,80,42
348.20197,348.40317,36,80,42
348.40744,348.75467,36,80,42
349.03244,349.23645,48,60,42
349.24078,349.44913,48,60,42
349.44913,349.6531,36,60,42
349.65744,350.00467,36,60,42
350.28244,350.48645,48,60,42
350.49078,350.69913,48,58,42
350.69913,350.9031,36,56,42
350.90744,351.25955,36,54,42
351.54126,351.7481,48,48,42
351.75253,351.96378,48,46,42
351.96378,352.17065,36,43,42
352.17505,352.52716,36,40,42
352.80887,353.01572,48,40,42
353.0201,353.87122,48,40,42
353.87122,354.72836,45,40,42
354.72836,355.0907,41,40,42
396.00385,396.361,39,76,42
397.28955,397.6467,40,82,42
398.57526,398.9324,41,88,42
399.4324,399.78955,42,92,42
399.861,400.2181,43,94,42
400.7181,401.07526,39,98,42
401.1467,401.25385,38,100,42
401.36096,401.4681,45,100,42
401.57526,401.6824,42,100,42
401.78955,401.8967,38,100,42
402.00385,402.11096,46,100,42
402.2181,402.32526,38,100,42
402.6467,402.75385,48,100,42
402.86096,402.9681,45,100,42
403.07526,403.1824,38,100,42
403.28955,403.3967,50,100,42
403.50385,403.61096,38,100,42
403.9324,404.03955,54,100,42
404.1467,404.25385,45,100,42
404.36096,404.4681,38,100,42
404.57526,404.6824,55,100,42
404.78955,404.8967,43,100,42
405.00385,405.11096,50,100,42
405.2181,405.32526,38,94,42
405.4324,405.53955,55,88,42
405.6467,405.7538,43,81,42
405.86096,405.9681,50,74,42
406.07526,406.1824,38,67,42
406.28955,407.03955,43,60,42
407.1467,407.5038,55,60,42
407.57526,408.32526,43,63,42
408.4324,408.78955,55,69,42
408.86096,409.61096,43,72,42
409.7181,410.07526,55,78,42
410.14667,410.89667,43,81,42
411.0038,411.36096,55,87,42
411.4324,411.78955,43,90,42
411.86096,412.2181,55,93,42
412.28955,412.64667,43,96,42
412.7181,412.82373,46,100,42
412.92938,413.035,44,100,42
413.14066,413.24628,46,100,42
413.3519,413.45755,49,100,42
413.56317,413.66882,48,100,42
413.77444,413.88007,44,100,42
413.98572,414.09134,48,100,42
414.197,414.3026,46,100,42
414.40823,414.5139,43,100,42
414.6195,414.72516,46,100,42
414.83078,414.93643,44,100,42
415.04205,415.14767,41,100,42
415.25333,415.35748,44,100,42
415.46164,415.56583,43,100,42
415.66998,415.77414,40,100,42
415.87833,415.98248,43,100,42
416.08664,416.19083,41,100,42
416.29498,416.39914,37,100,42
416.50333,416.60748,41,100,42
416.71164,416.81583,40,100,42
416.91998,417.02414,36,100,42
417.12833,417.23248,43,100,42
417.33664,417.44083,41,100,42
417.54498,417.64914,37,100,42
417.75333,417.85748,41,100,42
417.96164,418.06583,40,100,42
418.16998,418.27414,36,100,42
418.37833,418.48248,43,100,42
418.58664,418.69083,41,100,42
418.79498,418.89914,37,100,42
419.00333,419.10605,41,100,42
419.2088,419.31152,40,100,42
419.41428,419.517,36,100,42
419.61975,419.7225,43,100,42
419.82523,419.92798,40,100,42
420.0307,420.13345,48,100,42
420.23618,420.33893,43,100,42
420.44165,420.5444,52,100,42
420.64716,420.74988,48,100,42
420.85263,420.95535,55,100,42
421.0581,421.16083,52,100,42
421.26358,421.36633,60,100,42
421.46906,421.56888,36,100,42
421.46906,421.67307,43,100,42
421.46906,421.67307,52,100,42
421.5732,421.67307,60,100,42
453.5767,453.78653,50,40,42
453.791,454.2151,50,40,42
454.21954,454.64365,50,40,42
454.64813,455.07224,50,40,42
455.0767,455.5008,50,40,42
455.50528,455.92938,50,40,42
455.93384,456.35794,50,40,42
456.3624,456.7865,50,40,42
456.791,457.2151,50,40,42
457.21954,457.64365,50,40,42
457.64813,458.07224,50,40,42
458.0767,458.5008,50,40,42
458.50525,458.71954,50,40,42
458.71954,458.92938,51,40,42
458.93384,459.35794,51,41,42
459.3624,459.7865,51,44,42
459.791,460.2151,51,48,42
460.21954,460.64365,51,52,42
460.6481,461.07224,51,56,42
461.0767,461.5008,51,60,42
461.50525,461.92935,51,60,42
461.93384,462.35794,51,60,42
462.3624,462.7865,51,60,42
462.791,463.2151,51,60,42
463.21954,463.64365,53,60,42
463.6481,463.85794,54,60,42
463.8624,464.71954,46,60,42
464.71954,465.1481,41,92,42
465.1481,465.50525,42,60,42
466.43384,467.29095,42,60,42
467.29095,467.71954,41,92,42
467.71954,468.0767,42,60,42
469.00525,469.8624,42,60,42
469.8624,470.29095,41,92,42
470.29095,470.6481,42,60,42
471.5767,472.4338,42,60,42
472.4338,472.8624,41,94,42
472.8624,473.21954,42,63,42
474.1481,474.57666,42,66,42
474.57666,475.00525,41,67,42
475.00525,475.3624,42,68,42
475.4338,475.8624,49,69,42
475.8624,476.29095,41,70,42
476.29095,476.6481,42,71,42
476.71954,477.1481,54,72,42
477.1481,477.57666,41,73,42
477.57666,477.9338,42,74,42
478.00525,478.4338,54,75,42
478.4338,478.8624,41,76,42
478.8624,479.2195,42,78,42
479.29095,479.50076,41,80,42
479.50525,479.92935,41,80,42
479.9338,480.3579,41,70,42
480.3624,480.7865,41,60,42
480.79095,481.21506,41,60,42
481.2195,481.64365,41,60,42
481.6481,482.0722,41,60,42
482.07666,482.50076,41,60,42
482.50525,482.92935,41,60,42
482.9338,483.3579,41,60,42
483.36237,483.7865,41,60,42
483.79095,484.21506,41,60,42
484.2195,484.64362,41,60,42
484.6481,485.0722,41,60,42
485.07666,485.50076,41,60,42
485.50525,485.92935,41,60,42
485.9338,486.3579,41,60,42
486.36237,486.78647,41,60,42
486.79095,487.21506,41,60,42
487.2195,487.64362,41,60,42
487.6481,487.86237,41,60,42
487.86237,488.0722,42,60,42
488.07666,488.29095,42,60,42
488.29095,488.50076,39,60,42
488.50522,488.92935,39,60,42
488.9338,489.1481,39,60,42
489.1481,489.3579,40,60,42
489.36237,489.57666,40,60,42
489.57666,489.78647,41,60,42
489.79095,490.21506,41,60,42
490.2195,490.64362,41,60,42
490.64807,490.8579,41,60,42
490.86237,491.61237,41,60,42
491.7195,492.07666,39,68,42
492.14807,492.50522,38,72,42
492.57666,492.9338,50,76,42
493.00522,493.36237,48,80,42
493.4338,494.61237,46,85,42
494.7195,495.89807,43,100,42
496.00522,496.75522,43,80,42
496.86237,497.2195,41,80,42
497.29092,497.64807,39,80,42
497.7195,498.07666,51,82,42
498.14807,498.50522,48,84,42
498.57666,499.75522,46,86,42
499.86237,501.04092,44,93,42
501.14807,501.89807,43,100,42
502.00522,502.36237,41,100,42
502.43378,502.86237,39,100,42
502.43378,502.86237,46,100,42
502.86237,503.2195,38,100,42
502.86237,503.2195,46,100,42
503.29092,503.64807,37,100,42
503.29092,503.64807,46,100,42
503.7195,504.89807,36,100,42
503.7195,504.89807,46,100,42
505.00522,505.75522,41,100,42
505.86237,506.2195,42,100,42
506.29092,507.4695,43,100,42
507.57663,507.93378,39,100,42
508.00522,508.36237,41,100,42
508.43378,508.79092,43,100,42
508.86237,509.43378,41,100,42
508.86237,509.43378,50,100,42
508.86237,509.43378,58,100,42
510.14807,510.71948,41,100,42
510.14807,510.71948,50,100,42
510.14807,510.71948,59,100,42
511.43378,512.0052,51,80,42
511.43378,512.0052,60,80,42
514.4338,514.86237,41,100,42
514.86237,515.2909,42,100,42
515.2909,515.6481,43,100,42
517.0052,517.4338,46,100,42
517.4338,517.86237,47,100,42
517.86237,518.61237,36,100,42
518.7195,519.1481,37,100,42
519.1481,519.8981,38,100,42
520.0052,520.4338,38,100,42
520.4338,521.61237,39,100,42
521.7195,522.91516,41,100,42
523.0238,524.23706,41,100,42
524.34735,525.22974,46,80,42
525.22974,525.59735,45,60,42
525.6709,526.11206,46,80,42
526.11206,526.5532,50,80,42
526.5532,526.9209,48,60,42
526.9944,527.4356,45,80,42
527.4356,527.8768,48,80,42
527.8768,528.2444,46,60,42
528.31793,528.7591,41,80,42
528.7591,529.2003,43,80,42
529.2003,529.56793,45,80,42
529.6415,530.0091,46,60,42
534.9356,535.3768,46,60,42
535.3768,535.81793,45,60,42
535.81793,536.1856,46,60,42
536.2591,536.70026,47,60,42
536.70026,537.1415,48,60,42
537.1415,537.5091,44,60,42
537.58264,538.0238,45,60,42
538.0238,538.46497,48,60,42
538.46497,538.83264,46,60,42
538.9062,539.34735,44,60,42
539.34735,539.7885,43,54,42
539.7885,540.1562,36,47,42
540.2297,540.59735,41,40,42
554.7701,555.94867,43,60,42
556.0558,557.2344,41,80,42
557.34155,558.5201,46,80,42
558.62726,558.9844,45,60,42
565.0558,565.91296,43,80,42
565.0558,565.91296,50,80,42
565.91296,566.2701,55,80,42
566.3415,567.5201,50,60,42
567.62726,568.4844,43,80,42
567.62726,568.4844,50,80,42
568.4844,568.8415,55,80,42
568.91296,570.0915,50,60,42
570.19867,571.37726,38,80,42
571.4844,572.66296,39,80,42
572.7701,573.94867,41,60,42
574.0558,575.2344,38,60,42
575.3415,575.9844,46,73,42
575.9844,576.1942,48,79,42
576.19867,576.5558,50,81,42
576.6272,577.3772,51,85,42
577.4844,577.8415,39,95,42
577.91296,578.66296,41,100,42
578.7701,579.1272,53,100,42
579.19867,579.5508,46,60,42
580.46625,580.81836,45,60,42
581.7339,582.08105,46,64,42
582.9839,583.33105,41,68,42
584.2338,584.58105,43,72,42
585.4838,585.83105,39,76,42
586.7338,587.08105,40,82,42
587.9838,588.33105,41,88,42
589.2338,589.58105,41,94,42
590.4838,590.8263,46,100,42
591.71674,592.0592,45,80,42
592.9496,593.29205,46,80,42
594.1825,594.52496,41,80,42
595.41534,595.7532,43,83,42
596.63153,596.9694,39,86,42
597.8478,598.1856,40,89,42
599.06396,599.4018,41,92,42
600.2802,600.6227,41,95,42
601.51306,602.76306,40,100,42
602.76306,604.3878,40,60,42
604.6735,604.88336,39,60,42
604.8878,605.09766,39,60,42
605.1021,605.31195,40,60,42
605.3164,605.684,40,60,42
605.97815,606.19415,40,60,42
606.1987,606.41473,40,54,42
606.4193,606.6353,41,47,42
606.6399,606.9971,41,40,42
607.0685,607.4971,46,60,42
607.4971,608.2828,41,60,42
608.3542,608.7828,48,60,42
608.7828,609.5685,41,60,42
609.6399,610.0685,50,60,42
610.0685,610.8542,41,73,42
610.92566,611.3542,53,100,42
611.3542,612.1399,41,80,42
612.4256,612.5328,46,60,42
612.6399,612.8542,46,60,42
612.8542,613.064,41,60,42
613.0685,613.4256,41,60,42
613.71136,613.8185,48,60,42
613.9256,614.1399,48,60,42
614.1399,614.34973,41,63,42
614.3542,614.71136,41,66,42
614.9971,615.1042,50,76,42
615.21136,615.4256,50,80,42
615.4256,615.63544,41,84,42
615.6399,615.9971,41,88,42
616.2828,616.3899,51,100,42
616.4971,616.71136,51,80,42
616.71136,616.92114,41,60,42
616.9256,617.2828,41,40,42
617.5685,617.7783,51,40,42
617.7828,617.9971,51,40,42
617.9971,618.20685,41,40,42
618.21136,618.5685,41,40,42
618.8542,619.064,50,40,42
619.0685,619.2828,50,40,42
619.2828,619.4926,41,40,42
619.4971,619.8542,41,40,42
620.1399,620.34973,48,40,42
620.3542,620.5685,48,41,42
620.5685,620.7783,41,42,42
620.7828,621.1399,41,43,42
621.4256,621.63544,47,46,42
621.6399,621.8542,47,47,42
621.8542,622.064,41,48,42
622.0685,622.4256,41,49,42
622.7113,622.92114,48,52,42
622.9256,623.1399,48,53,42
623.1399,623.34973,41,54,42
623.3542,623.7113,41,55,42
623.9971,624.20685,49,59,42
624.2113,624.4256,49,60,42
624.4256,624.63544,41,61,42
624.6399,624.9971,41,62,42
625.2828,625.49255,48,66,42
625.4971,625.7113,48,68,42
625.7113,625.92114,41,70,42
625.9256,626.2828,41,72,42
626.5685,626.7783,51,78,42
626.7828,626.9971,51,80,42
626.9971,627.20685,41,80,42
627.2113,627.8542,41,80,42
627.8542,628.064,43,80,42
628.0685,628.4256,41,80,42
628.4971,629.1399,41,80,42
629.1399,629.34973,46,81,42
629.3542,629.7113,41,81,42
629.7828,630.4256,41,82,42
630.4256,630.63544,43,83,42
630.6399,630.997,41,83,42
631.0685,631.7113,41,84,42
631.7113,631.92114,50,86,42
631.9256,632.2828,41,86,42
632.3542,632.997,41,87,42
632.997,633.20685,43,89,42
633.2113,633.5685,41,89,42
633.6399,634.2828,52,90,42
634.2828,634.49255,53,92,42
634.497,634.8542,55,92,42
634.9256,635.5685,55,94,42
635.5685,635.77826,57,97,42
635.7828,636.1399,58,98,42
636.2113,636.8542,60,100,42
636.8542,637.064,57,100,42
637.0685,637.4256,53,100,42
637.497,637.8542,41,100,42
638.1399,638.34973,53,80,42
638.3542,638.5685,53,80,42
638.5685,638.77826,41,80,42
638.7827,639.1399,41,60,42
639.4256,639.63544,53,60,42
639.6399,639.8542,53,60,42
639.8542,640.06396,41,60,42
640.0685,640.4256,41,60,42
640.7113,640.92114,53,60,42
640.9256,641.1399,53,60,42
641.1399,641.34973,41,60,42
641.3542,641.7113,41,60,42
641.997,642.20685,53,60,42
642.2113,642.4256,53,59,42
642.4256,642.63544,41,58,42
642.6399,642.997,41,57,42
643.2827,643.49255,53,54,42
643.497,644.3542,53,53,42
644.3542,645.2113,50,47,42
645.2113,645.5685,46,40,42
655.497,660.5327,41,80,42
660.6399,661.8184,41,100,42
661.9256,663.1041,41,100,42
663.2113,664.3899,41,100,42
664.497,665.6756,41,100,42
665.7827,666.9613,41,100,42
667.0684,668.247,41,100,42
668.3541,669.5327,41,100,42
669.63983,670.8184,41,100,42
670.9256,671.1384,41,100,42
671.14294,671.57324,41,96,42
671.57776,672.008,41,88,42
672.0125,672.44916,41,80,42
672.4538,672.8969,41,70,42
672.90155,673.34467,41,60,42
673.3493,673.79913,41,50,42
673.80396,674.2607,41,40,42
674.2655,674.7222,41,40,42
674.72705,675.1909,41,40,42
675.1959,675.6671,41,40,42
675.6721,676.1433,41,40,42
676.1483,682.80304,41,40,42
692.5078,692.83417,38,100,42
692.8411,693.3958,41,100,42
693.5911,694.1458,46,100,42
80.96397,81.321106,45,40,45
81.39253,81.74968,40,40,45
81.821106,82.178246,45,40,45
83.53539,83.89253,45,40,45
83.96396,84.321106,40,40,45
84.39253,84.74967,45,40,45
91.249664,91.60681,45,40,45
91.67824,92.035385,40,40,45
92.10681,92.46395,45,40,45
93.82109,94.17824,45,40,45
94.249664,94.606804,40,40,45
94.67824,95.03538,45,40,45
178.41916,178.7868,41,40,45
260.32306,260.68018,45,40,45
260.75162,261.10876,40,40,45
261.18018,261.53732,45,40,45
262.89447,263.25162,45,40,45
263.32303,263.68018,40,40,45
263.75162,264.10876,45,40,45
270.60873,270.96588,45,40,45
271.03732,271.39447,40,40,45
271.46588,271.82303,45,40,45
273.18018,273.53732,45,40,45
273.60873,273.96588,40,40,45
274.03732,274.39447,45,40,45
357.77823,358.14587,41,40,45
360.00388,360.36102,42,40,45
361.71817,362.0753,43,60,45
362.5753,362.93243,42,60,45
364.28958,364.64673,43,60,45
365.14673,365.50388,42,60,45
366.43243,366.78958,38,60,45
367.71814,368.0753,43,60,45
369.00388,369.36102,46,60,45
370.28958,370.64673,45,60,45
371.5753,371.93243,41,60,45
372.861,373.21814,46,60,45
374.14673,374.50388,38,60,45
375.00385,375.361,50,80,45
375.43243,375.78958,52,80,45
377.14673,377.50385,40,100,45
378.00385,378.361,52,100,45
379.71814,380.0753,40,100,45
380.5753,380.93243,52,100,45
381.861,382.21814,44,60,45
383.1467,383.50385,45,60,45
384.43243,384.78955,48,60,45
385.71814,386.0753,47,60,45
387.00385,387.361,43,60,45
388.28955,388.6467,48,60,45
389.5753,389.9324,52,60,45
390.861,391.21814,49,60,45
392.1467,392.50385,45,64,45
393.4324,393.78955,50,68,45
394.71814,395.07526,53,72,45
427.00528,427.36243,52,60,45
427.43387,427.79102,40,60,45
427.86243,428.21957,52,60,45
429.57672,429.93387,52,60,45
430.00528,430.36243,40,60,45
430.43387,430.79102,52,60,45
432.14813,432.50528,48,80,45
432.57672,432.93387,36,100,45
433.00528,433.36243,41,80,45
433.86243,434.21957,45,60,45
434.291,434.64813,47,60,45
435.14813,435.50528,59,60,45
435.57672,435.93387,52,60,45
437.291,437.64813,52,60,45
437.71957,438.07672,40,60,45
438.14813,438.50528,52,60,45
439.86243,440.21957,52,60,45
440.291,440.64813,45,60,45
440.71957,441.07672,50,60,45
442.43384,442.791,58,80,45
442.86243,443.21957,46,80,45
443.71957,444.0767,51,100,45
444.14813,444.50528,43,100,45
444.5767,444.93384,45,80,45
445.43384,445.791,45,60,45
446.291,446.64813,50,60,45
446.71957,447.0767,38,66,45
447.5767,447.93384,58,79,45
448.00528,448.36243,46,86,45
448.86243,449.21954,51,100,45
449.291,449.64813,39,100,45
450.14813,450.50528,56,100,45
450.5767,450.93384,44,100,45
451.43384,451.791,57,80,45
451.8624,452.21954,45,80,45
452.71954,453.0767,57,60,45
453.14813,453.50528,45,60,45
550.05585,550.41296,50,60,45
550.4844,550.84155,45,60,45
550.91296,551.2701,50,60,45
552.62726,552.9844,50,60,45
553.05585,553.41296,45,60,45
553.4844,553.84155,50,60,45
560.34155,560.69867,50,60,45
560.7701,561.12726,45,60,45
561.19867,561.5558,50,60,45
562.91296,563.2701,50,60,45
563.34155,563.69867,45,60,45
563.7701,564.12726,50,60,45
682.88635,683.30304,46,60,45
683.38635,683.80304,41,60,45
684.38635,684.80304,48,60,45
684.88635,685.30304,41,60,45
685.88635,686.30304,51,60,45
686.38635,686.80304,41,68,45
686.88635,687.30304,53,76,45
687.38635,687.80304,41,84,45
687.88635,688.30304,53,92,45
688.38635,688.81744,46,100,45
689.42084,689.8519,41,100,45
689.9381,690.39264,46,90,45
691.029,691.4836,41,70,45
691.57446,692.07446,46,60,45
697.3411,697.9661,46,10,42
