start_time,end_time,note_value,velocity,instrument_program_number
19.676105,20.200659,69,80,40
20.21182,21.545153,74,80,40
21.71182,21.951403,76,83,40
21.96182,22.201403,77,83,40
22.21182,23.545153,76,83,40
23.71182,24.201403,69,86,40
24.21182,25.46182,77,87,40
25.46182,25.52432,79,89,40
25.52432,25.58682,77,89,40
25.58682,25.64932,76,89,40
25.64932,25.701403,77,89,40
25.71182,25.951403,79,89,40
25.96182,26.201403,81,89,40
26.21182,27.545153,79,89,40
27.71182,28.201403,67,93,40
28.21182,29.46182,79,94,40
29.46182,29.52432,81,97,40
29.52432,29.58682,79,97,40
29.58682,29.64932,77,97,40
29.64932,29.701403,79,97,40
29.71182,29.951403,81,97,40
29.96182,30.201403,82,98,40
30.21182,31.46182,84,100,40
31.46182,31.701403,82,100,40
31.71182,31.951403,74,100,40
31.96182,32.201405,76,100,40
32.21182,33.073887,77,100,40
33.246304,33.50492,79,100,40
33.50492,33.63423,81,100,40
33.63423,33.752766,79,100,40
33.763542,34.011387,77,100,40
34.022163,34.270008,79,100,40
34.280785,34.53748,64,100,40
34.280785,34.805336,73,100,40
34.41471,34.805336,81,100,40
35.35221,35.60891,64,100,40
35.35221,35.742836,73,100,40
35.48614,35.742836,81,100,40
51.92364,52.413223,69,80,40
52.42364,53.67364,81,80,40
53.67364,53.756973,83,82,40
53.756973,53.840305,81,82,40
53.840305,53.913223,79,82,40
53.92364,54.163223,81,82,40
54.17364,54.413223,83,82,40
54.42364,55.756973,84,82,40
55.92364,56.413223,72,85,40
56.42364,57.67364,84,86,40
57.67364,57.756973,86,88,40
57.756973,57.840305,84,88,40
57.840305,57.913223,83,88,40
57.92364,58.163223,84,88,40
58.17364,58.413223,86,88,40
58.42364,59.756973,88,88,40
59.92364,60.413223,81,92,40
60.42364,61.28571,90,93,40
61.458122,62.32019,92,96,40
62.492603,63.83189,93,100,40
63.83189,64.088585,91,100,40
64.09975,64.356445,86,100,40
64.3676,64.6243,88,100,40
64.63546,65.42787,89,100,40
65.43903,65.5618,88,100,40
65.57296,65.695724,89,100,40
65.70689,65.77385,88,100,40
65.77385,65.84082,89,100,40
65.84082,66.23144,91,100,40
66.2426,66.4993,89,100,40
66.51046,66.76716,88,100,40
66.77831,67.04452,62,100,40
66.77831,67.600075,77,100,40
66.917206,67.600075,86,100,40
67.88943,68.15563,62,100,40
67.88943,68.29452,77,100,40
68.02831,68.29452,86,100,40
79.17911,79.70366,60,80,40
79.71482,79.97151,57,80,40
79.71482,80.23937,65,80,40
79.84875,80.23937,72,80,40
81.32196,81.84651,64,100,40
81.85767,82.125534,60,100,40
81.85767,82.125534,69,100,40
81.85767,82.125534,77,100,40
82.125534,82.39339,72,100,40
82.39339,82.66125,69,100,40
82.66125,82.91794,72,100,40
82.9291,83.19696,67,100,40
83.19696,83.46481,70,100,40
83.46481,83.73267,69,100,40
83.73267,83.98937,67,100,40
84.00053,84.278305,64,100,40
84.00053,84.278305,73,100,40
84.00053,84.278305,81,100,40
84.278305,84.55608,76,90,40
84.55608,84.84454,73,80,40
84.84454,85.13301,76,70,40
85.13301,85.720505,69,60,40
96.536575,97.06113,60,80,40
97.07229,97.32899,57,80,40
97.07229,97.59684,65,80,40
97.206215,97.59684,72,80,40
98.67943,99.20399,64,100,40
99.21514,99.483,60,100,40
99.21514,99.483,69,100,40
99.21514,99.483,77,100,40
99.483,99.75086,72,100,40
99.75086,100.018715,69,100,40
100.018715,100.27541,72,100,40
100.286575,100.55443,67,100,40
100.55443,100.82229,70,100,40
100.82229,101.09014,69,100,40
101.09014,101.34684,67,100,40
101.358,101.63578,64,100,40
101.358,101.63578,73,100,40
101.358,101.63578,81,100,40
101.63578,101.91356,76,90,40
101.91356,102.20202,73,80,40
102.20202,102.49048,76,70,40
102.49048,103.07798,69,60,40
105.322624,105.847176,77,100,40
105.85834,106.12619,84,100,40
106.12619,106.39405,79,95,40
106.39405,106.6619,76,90,40
106.6619,106.92976,79,85,40
106.92976,107.454315,72,80,40
109.60833,110.13289,79,100,40
110.14405,110.4119,88,100,40
110.4119,110.67976,85,95,40
110.67976,110.94762,81,90,40
110.94762,111.21548,85,85,40
111.21548,111.74003,76,80,40
113.35833,113.62619,80,100,40
113.62619,113.89404,74,100,40
113.89404,114.1619,71,100,40
114.1619,114.4186,74,100,40
114.429756,114.69762,72,100,40
114.69762,114.96547,76,100,40
114.96547,115.23333,74,100,40
115.23333,115.49003,72,100,40
115.50119,115.76904,83,100,40
115.76904,116.0369,77,100,40
116.0369,116.304756,74,100,40
116.304756,116.561455,77,100,40
116.57262,116.850395,86,100,40
116.850395,117.128174,81,100,40
117.128174,117.405945,77,100,40
117.405945,117.67215,81,100,40
117.68372,117.97219,81,100,40
117.97219,118.26065,76,100,40
118.26065,118.54911,73,100,40
118.54911,118.825554,76,100,40
118.83757,119.13757,74,100,40
119.13757,119.43757,69,90,40
119.43757,119.73757,65,80,40
119.73757,120.037575,69,70,40
120.037575,120.62507,62,60,40
122.86971,123.394264,77,100,40
123.405426,123.67329,84,100,40
123.67329,123.94114,79,95,40
123.94114,124.209,76,90,40
124.209,124.47685,79,85,40
124.47685,125.00141,72,80,40
127.155426,127.67998,79,100,40
127.69114,127.959,88,100,40
127.959,128.22685,85,95,40
128.22685,128.4947,81,90,40
128.4947,128.76257,85,85,40
128.76257,129.28712,76,80,40
130.90543,131.17328,80,100,40
131.17328,131.44113,74,100,40
131.44113,131.709,71,100,40
131.709,131.9657,74,100,40
131.97685,132.2447,72,100,40
132.2447,132.51257,76,100,40
132.51257,132.78043,74,100,40
132.78043,133.03712,72,100,40
133.04828,133.31613,83,100,40
133.31613,133.584,77,100,40
133.584,133.85185,74,100,40
133.85185,134.10855,77,100,40
134.1197,134.39749,86,100,40
134.39749,134.67526,81,100,40
134.67526,134.95305,77,100,40
134.95305,135.21924,81,100,40
135.23082,135.51929,81,100,40
135.51929,135.80774,76,100,40
135.80774,136.0962,73,100,40
136.0962,136.37265,76,100,40
136.38466,136.67313,74,100,40
136.67313,136.9616,69,100,40
136.9616,137.25005,65,100,40
137.25005,137.53851,69,100,40
137.53851,138.126,62,60,40
138.4385,138.72601,69,100,40
138.73851,138.90015,74,100,40
138.91092,139.07256,74,100,40
139.08334,139.24498,74,100,40
139.25575,139.41739,74,100,40
139.42816,139.5898,76,100,40
139.60059,139.76222,77,100,40
139.773,140.45187,77,100,40
140.46265,140.62428,76,100,40
140.63506,140.79669,74,100,40
140.80748,140.96912,76,100,40
140.97989,141.14153,76,100,40
141.1523,141.31393,76,100,40
141.32472,141.48636,76,100,40
141.49713,141.65877,77,100,40
141.66954,141.83118,79,100,40
141.84195,142.52083,79,100,40
142.53162,142.69325,77,100,40
142.70403,142.86566,76,100,40
142.87643,143.03807,77,100,40
143.04886,143.2105,77,100,40
143.22127,143.3829,77,100,40
143.39368,143.55531,77,100,40
143.5661,143.72774,79,100,40
143.73851,143.90015,81,100,40
143.91092,144.5898,81,100,40
144.60057,144.7622,79,100,40
144.773,144.93463,77,100,40
144.9454,145.62428,80,100,40
145.63506,145.79669,79,87,40
145.80746,145.96912,77,84,40
145.97989,146.65877,80,81,40
146.66954,146.83118,79,68,40
146.84195,147.00359,77,64,40
147.01437,147.20833,76,60,40
147.273,147.46695,79,60,40
147.5316,147.72557,81,60,40
147.79022,147.91954,82,60,40
148.04884,149.33118,84,60,40
149.34195,149.53592,86,60,40
149.60057,149.79454,84,62,40
149.85919,149.98851,86,64,40
150.11781,150.31178,82,66,40
150.37643,150.5704,84,68,40
150.63506,150.82903,82,70,40
150.89368,151.02298,84,73,40
151.1523,151.34627,81,76,40
151.41092,151.60487,82,79,40
151.66954,151.8635,81,82,40
151.92816,152.05746,82,85,40
152.18678,152.27298,79,88,40
152.27298,152.35919,81,89,40
152.35919,152.4454,79,90,40
152.4454,152.5316,81,91,40
152.5316,152.61781,79,92,40
152.61781,152.70403,81,93,40
152.70403,152.79022,79,94,40
152.87643,152.96263,77,96,40
153.04884,153.13506,79,98,40
153.22125,154.11412,81,100,40
155.28627,155.48158,69,100,40
155.49461,155.65625,74,100,40
155.66702,155.82866,74,100,40
155.83943,156.00107,74,100,40
156.01186,156.1735,74,100,40
156.18427,156.3459,76,100,40
156.35667,156.51831,77,100,40
156.5291,157.20798,77,100,40
157.21875,157.38039,76,100,40
157.39116,157.5528,74,100,40
157.56357,157.7252,76,100,40
157.736,157.89763,76,100,40
157.9084,158.07004,76,100,40
158.08081,158.24245,76,100,40
158.25323,158.41487,77,100,40
158.42564,158.58728,79,100,40
158.59805,159.27693,79,100,40
159.2877,159.44936,77,100,40
159.46013,159.62177,76,100,40
159.63254,159.79417,77,100,40
159.80495,159.96658,77,100,40
159.97737,160.139,77,100,40
160.14978,160.31142,77,100,40
160.32219,160.48383,79,100,40
160.49461,160.65625,81,100,40
160.66702,161.3459,81,100,40
161.35667,161.51831,79,100,40
161.52908,161.69072,77,100,40
161.7015,162.38039,80,100,40
162.39116,162.5528,79,87,40
162.56357,162.7252,77,84,40
162.73598,163.41486,80,81,40
163.42564,163.58728,79,68,40
163.59805,163.75969,77,64,40
163.77046,163.96443,76,60,40
164.02908,164.22305,79,60,40
164.2877,164.48167,81,60,40
164.54633,164.67564,82,60,40
164.80495,166.08728,84,60,40
166.09805,166.29202,86,60,40
166.35667,166.55064,84,62,40
166.6153,166.7446,86,64,40
166.87392,167.06787,82,66,40
167.13254,167.32649,84,68,40
167.39116,167.58511,82,70,40
167.64978,167.77908,84,73,40
167.9084,168.10236,81,76,40
168.167,168.36098,82,79,40
168.42563,168.6196,81,82,40
168.68425,168.81357,82,85,40
168.94287,169.02908,79,88,40
169.02908,169.1153,81,89,40
169.1153,169.20149,79,90,40
169.20149,169.2877,81,91,40
169.2877,169.37392,79,92,40
169.37392,169.46011,81,93,40
169.46011,169.54633,79,94,40
169.63254,169.71873,77,96,40
169.80495,169.89114,79,98,40
169.97736,170.87021,81,100,40
172.04237,172.23769,69,100,40
172.2507,172.41235,62,100,40
172.2507,172.41235,69,100,40
172.42313,172.58476,62,100,40
172.42313,172.58476,69,100,40
172.59554,172.75717,62,100,40
172.59554,172.75717,69,100,40
172.76794,172.92958,62,100,40
172.76794,172.92958,69,100,40
172.94037,173.102,74,100,40
173.11278,173.27441,77,100,40
173.28519,173.96407,77,100,40
173.97484,174.13649,74,100,40
174.14726,174.3089,69,100,40
174.31967,174.48131,72,100,40
174.49208,174.65372,72,100,40
174.6645,174.82614,72,100,40
174.83691,174.99855,72,100,40
175.00932,175.17096,76,100,40
175.18175,175.34338,79,100,40
175.35416,176.03304,79,100,40
176.04381,176.20544,76,100,40
176.21622,176.37787,72,100,40
176.38864,176.55028,67,100,40
176.56105,176.72269,67,100,40
176.73346,176.8951,67,100,40
176.90588,177.06752,67,100,40
177.0783,177.23993,76,100,40
177.2507,177.41234,79,100,40
177.42313,178.102,79,100,40
178.11278,178.27441,76,100,40
178.28519,178.44682,67,100,40
178.4576,178.61923,73,100,40
178.63002,178.79166,73,100,40
178.80243,178.96407,73,100,40
178.97484,179.13647,73,100,40
179.14726,179.3089,76,100,40
179.31967,179.48131,85,100,40
179.49208,180.26794,85,80,40
180.26794,180.5158,81,80,40
180.52657,181.8089,86,60,40
181.81967,182.01363,88,60,40
182.0783,182.27225,86,60,40
182.33691,182.46622,88,60,40
182.59554,183.87785,86,60,40
183.88863,184.0826,88,72,40
184.14725,184.34122,86,74,40
184.40587,184.53519,88,76,40
184.66449,184.85846,86,78,40
184.92311,185.11708,88,80,40
185.18173,185.3757,86,82,40
185.44035,185.56967,89,85,40
185.69897,185.89294,88,88,40
185.9576,186.15157,91,91,40
186.21622,186.41019,85,94,40
186.47484,186.60414,88,97,40
186.73346,187.65938,86,100,40
188.87935,189.08316,69,100,40
189.09674,189.25838,62,100,40
189.09674,189.25838,69,100,40
189.26915,189.43079,62,100,40
189.26915,189.43079,69,100,40
189.44157,189.60321,62,100,40
189.44157,189.60321,69,100,40
189.61398,189.77562,62,100,40
189.61398,189.77562,69,100,40
189.78639,189.94803,74,100,40
189.95882,190.12045,77,100,40
190.13123,190.8101,77,100,40
190.82088,190.98251,74,100,40
190.99329,191.15492,69,100,40
191.16571,191.32735,72,100,40
191.33812,191.49976,72,100,40
191.51053,191.67216,72,100,40
191.68295,191.84459,72,100,40
191.85536,192.017,76,100,40
192.02777,192.1894,79,100,40
192.20018,192.87906,79,100,40
192.88985,193.05148,76,100,40
193.06226,193.22389,72,100,40
193.23466,193.3963,67,100,40
193.40709,193.56873,67,100,40
193.5795,193.74113,67,100,40
193.7519,193.91354,67,100,40
193.92433,194.08597,76,100,40
194.09674,194.25838,79,100,40
194.26915,194.94803,79,100,40
194.9588,195.12044,76,100,40
195.13123,195.29286,67,100,40
195.30363,195.46527,73,100,40
195.47604,195.63768,73,100,40
195.64847,195.8101,73,100,40
195.82088,195.98251,73,100,40
195.99329,196.15492,76,100,40
196.1657,196.32735,85,100,40
196.33812,197.11398,85,80,40
197.11398,197.36182,81,80,40
197.3726,198.65492,86,60,40
198.6657,198.85966,88,60,40
198.92432,199.11829,86,60,40
199.18294,199.31226,88,60,40
199.44156,200.72389,86,60,40
200.73466,200.92863,88,72,40
200.99329,201.18726,86,74,40
201.2519,201.38121,88,76,40
201.51053,201.7045,86,78,40
201.76915,201.9631,88,80,40
202.02777,202.22173,86,82,40
202.28639,202.4157,89,85,40
202.54501,202.73897,88,88,40
202.80363,202.99759,91,91,40
203.06226,203.25621,85,94,40
203.32086,203.45018,88,97,40
203.57948,204.47235,86,100,40
206.51202,206.76202,81,60,40
206.76202,207.50162,82,100,40
208.51202,208.76202,81,60,40
208.76202,209.50162,87,100,40
210.51202,210.76202,86,60,40
210.76202,211.50162,87,100,40
212.51202,212.76202,86,60,40
212.76202,213.50162,92,100,40
214.51202,214.63702,84,100,40
214.76202,215.25162,76,100,40
215.51202,215.63702,88,100,40
215.76202,216.25162,77,100,40
216.51202,216.63702,89,100,40
216.76202,217.25162,79,100,40
217.51202,217.63702,91,100,40
217.76202,218.25162,81,100,40
218.51202,218.63702,93,100,40
218.76202,219.25162,83,100,40
219.51202,219.63702,95,100,40
219.76202,219.88702,93,100,40
219.88702,220.01202,92,95,40
220.01202,220.13702,93,90,40
220.13702,220.26202,90,85,40
220.26202,220.38702,88,80,40
220.38702,220.51202,86,75,40
220.51202,220.63702,85,70,40
220.63702,220.75162,83,65,40
220.76202,221.25162,81,60,40
222.51202,222.76202,81,60,40
222.76202,223.50162,82,100,40
224.51202,224.76202,81,60,40
224.76202,225.50162,87,100,40
226.51202,226.76202,86,60,40
226.76202,227.50162,87,100,40
228.51202,228.76202,86,60,40
228.76202,229.50162,92,100,40
230.51202,230.63702,84,100,40
230.76202,231.25162,76,100,40
231.51202,231.63702,88,100,40
231.76202,232.25162,77,100,40
232.51202,232.63702,89,100,40
232.76202,233.25162,79,100,40
233.51202,233.63702,91,100,40
233.76202,234.25162,81,100,40
234.51202,234.63702,93,100,40
234.76202,235.25162,83,100,40
235.51202,235.63702,95,100,40
235.76202,235.88702,93,100,40
235.88702,236.01202,92,95,40
236.01202,236.13702,93,90,40
236.13702,236.26202,90,85,40
236.26202,236.38702,88,80,40
236.38702,236.51202,86,75,40
236.51202,236.63702,85,70,40
236.63702,236.75162,83,65,40
236.76202,237.25162,81,60,40
238.51202,238.76202,81,60,40
238.76202,239.51202,82,80,40
239.51202,239.75162,89,100,40
239.76202,240.50162,88,100,40
242.51202,242.76202,79,60,40
242.76202,243.51202,84,80,40
243.51202,243.75162,91,100,40
243.76202,244.59537,90,100,40
246.51202,246.75162,81,100,40
246.76202,247.25162,80,100,40
247.51202,247.63702,83,100,40
247.76202,248.25162,81,100,40
248.51202,248.63702,86,100,40
248.76202,249.25162,83,100,40
249.51202,249.63702,88,100,40
249.76202,250.25162,89,100,40
250.26202,250.50162,88,100,40
250.51202,250.75162,89,100,40
250.76202,250.82452,88,100,40
250.82452,250.88702,89,100,40
250.88702,251.25162,91,100,40
251.26202,251.50162,89,100,40
251.51202,251.75162,88,100,40
251.76202,251.89134,86,100,40
251.89134,252.02065,85,95,40
252.02065,252.14996,86,90,40
252.14996,252.27927,82,85,40
252.27927,252.40858,81,80,40
252.40858,252.53789,79,75,40
252.53789,252.6672,77,70,40
252.6672,252.78574,76,65,40
252.79651,253.32106,74,60,40
254.63779,254.88779,81,60,40
254.88779,255.63779,82,80,40
255.63779,255.87737,89,100,40
255.88779,256.62735,88,100,40
258.6378,258.8878,79,60,40
258.8878,259.6378,84,80,40
259.6378,259.87735,91,100,40
259.8878,260.7211,90,100,40
262.6378,262.87735,81,100,40
262.8878,263.37735,80,100,40
263.6378,263.7628,83,100,40
263.8878,264.37735,81,100,40
264.6378,264.7628,86,100,40
264.8878,265.37735,83,100,40
265.6378,265.7628,88,100,40
265.8878,266.37735,89,100,40
266.3878,266.62735,88,100,40
266.6378,266.87735,89,100,40
266.8878,266.9503,88,100,40
266.9503,267.0128,89,100,40
267.0128,267.37735,91,100,40
267.3878,267.62735,89,100,40
267.6378,267.87735,88,100,40
267.8878,268.0171,86,100,40
268.0171,268.1464,85,95,40
268.1464,268.2757,86,90,40
268.2757,268.40503,82,85,40
268.40503,268.53433,81,80,40
268.53433,268.66364,79,75,40
268.66364,268.79294,77,70,40
268.79294,268.9115,76,65,40
268.92227,269.4468,74,60,40
270.01352,270.9064,62,80,40
271.08496,271.9778,66,80,40
272.1564,273.58496,67,80,40
273.76352,274.2881,67,80,40
274.29926,275.1921,66,80,40
275.37067,276.26352,69,80,40
276.4421,277.87067,71,80,40
278.04926,278.5738,69,80,40
278.58496,279.4778,67,80,40
279.65637,280.54926,67,80,40
280.7278,282.14523,67,80,40
282.15637,282.42422,66,80,40
282.51352,282.6921,64,80,40
282.87067,283.76352,62,80,40
283.9421,284.20996,62,80,40
284.20996,284.29922,64,80,40
284.29922,284.38852,62,80,40
284.38852,284.4778,61,80,40
284.4778,284.74567,62,80,40
284.74567,285.00235,64,80,40
285.01352,286.08496,64,80,40
286.08496,286.6095,57,60,40
286.62067,287.14523,69,100,40
287.15637,288.04922,74,100,40
288.2278,289.12067,78,100,40
289.29922,290.7278,79,100,40
290.90637,291.43094,79,100,40
291.44208,292.33496,78,100,40
292.51352,293.40637,81,100,40
293.58496,295.01352,83,100,40
295.19208,295.71664,81,100,40
295.7278,296.62067,79,100,40
296.79922,297.69208,79,100,40
297.87067,299.28806,79,100,40
299.29922,299.56708,78,100,40
299.65637,299.83493,76,100,40
300.01352,300.90637,74,100,40
301.08493,301.3528,74,100,40
301.3528,301.44208,76,100,40
301.44208,301.53137,74,100,40
301.53137,301.62067,73,100,40
301.62067,301.88852,74,100,40
301.88852,302.1452,76,100,40
302.15637,303.2278,76,100,40
303.2278,303.75235,69,60,40
320.90637,321.4309,81,80,40
321.44208,322.33493,81,80,40
322.5135,323.40637,83,81,40
323.58493,325.0135,84,82,40
325.19208,325.7166,84,84,40
325.72778,326.62064,84,84,40
326.79922,327.69208,85,86,40
327.87064,329.29922,86,88,40
329.47778,330.00235,86,91,40
330.0135,330.90634,86,92,40
331.08493,331.97778,87,94,40
332.15634,333.04922,88,96,40
333.22778,334.12064,89,98,40
334.29922,334.8432,90,100,40
334.85477,334.99365,88,100,40
335.13254,335.27142,86,100,40
335.4103,335.6881,85,100,40
335.6881,335.75754,86,100,40
335.75754,335.827,85,100,40
335.827,335.89642,83,100,40
335.89642,335.96588,85,100,40
335.96588,336.24365,86,100,40
336.24365,336.50986,88,100,40
336.52142,338.0753,86,80,40
339.12527,339.37527,90,40,40
339.37527,340.70862,78,40,40
341.12527,341.37527,91,40,40
341.37527,342.70862,79,40,40
343.12527,343.37527,93,40,40
343.37527,344.70862,81,40,40
345.12527,345.37527,91,40,40
345.37527,346.11487,79,40,40
346.12527,346.37527,86,40,40
346.37527,346.86487,71,40,40
347.12527,347.37527,91,40,40
347.37527,348.11487,79,40,40
348.12527,348.37527,85,40,40
348.37527,348.86487,83,40,40
349.12527,349.37527,90,40,40
349.37527,350.11487,78,40,40
350.12527,350.37527,81,40,40
350.37527,350.86487,79,40,40
351.12527,351.37527,86,40,40
351.37527,352.11487,74,40,40
352.12527,352.37527,83,40,40
352.37527,352.86487,71,40,40
353.1339,353.39252,69,60,40
353.39252,354.16644,76,80,40
354.1776,354.44547,73,60,40
354.44547,354.98947,79,40,40
355.25104,355.50104,90,40,40
355.50104,356.83435,78,40,40
357.25104,357.50104,91,40,40
357.50104,358.83435,79,40,40
359.25104,359.50104,93,40,40
359.50104,360.83435,81,40,40
361.25104,361.50104,91,40,40
361.50104,362.2406,79,40,40
362.25104,362.50104,86,40,40
362.50104,362.9906,71,40,40
363.25104,363.50104,91,40,40
363.50104,364.2406,79,40,40
364.25104,364.50104,85,40,40
364.50104,364.9906,83,40,40
365.25104,365.50104,90,40,40
365.50104,366.2406,78,40,40
366.25104,366.50104,81,40,40
366.50104,366.9906,79,40,40
367.25104,367.50104,86,40,40
367.50104,368.2406,74,40,40
368.25104,368.50104,83,40,40
368.50104,368.9906,71,40,40
369.25964,369.51828,69,60,40
369.51828,370.2922,76,80,40
370.30338,370.57123,73,60,40
370.57123,371.1152,79,40,40
371.37677,371.62677,90,40,40
371.62677,372.36636,78,40,40
372.37677,372.62677,89,60,40
372.62677,373.11636,77,60,40
373.37677,373.62677,91,80,40
373.62677,374.36636,79,80,40
374.37677,374.62677,91,60,40
374.62677,375.11636,79,60,40
375.37677,375.62677,88,40,40
375.62677,376.36636,76,40,40
376.37677,376.62677,87,60,40
376.62677,377.11636,75,60,40
377.37677,377.62677,89,80,40
377.62677,378.36636,77,80,40
378.37677,378.62677,89,60,40
378.62677,379.11636,80,60,40
379.12677,379.87677,81,40,40
379.87677,380.11636,83,40,40
380.12677,380.37677,81,40,40
380.37677,380.62677,83,40,40
380.62677,380.87677,81,40,40
380.87677,381.11636,83,40,40
381.12677,381.87677,81,40,40
381.87677,382.11636,83,40,40
382.12677,382.37677,81,40,40
382.37677,382.62677,83,40,40
382.62677,382.87677,81,40,40
382.87677,383.11636,83,40,40
383.12677,383.37677,79,40,40
383.37677,383.62677,81,40,40
383.62677,383.87677,78,40,40
383.87677,384.11636,79,40,40
384.12677,384.9601,73,40,40
385.12677,385.98886,74,40,40
387.50253,387.75253,90,40,40
387.75253,388.49213,78,40,40
388.50253,388.75253,89,60,40
388.75253,389.24213,77,60,40
389.50253,389.75253,91,80,40
389.75253,390.49213,79,80,40
390.50253,390.75253,91,60,40
390.75253,391.24213,79,60,40
391.50253,391.75253,88,40,40
391.75253,392.49213,76,40,40
392.50253,392.75253,87,60,40
392.75253,393.24213,75,60,40
393.50253,393.75253,89,80,40
393.75253,394.49213,77,80,40
394.50253,394.75253,89,60,40
394.75253,395.24213,80,60,40
395.25253,396.00253,81,40,40
396.00253,396.24213,83,40,40
396.25253,396.50253,81,40,40
396.50253,396.75253,83,40,40
396.75253,397.00253,81,40,40
397.00253,397.24213,83,40,40
397.25253,398.00253,81,40,40
398.00253,398.24213,83,40,40
398.25253,398.50253,81,40,40
398.50253,398.75253,83,40,40
398.75253,399.00253,81,40,40
399.00253,399.24213,83,40,40
399.25253,399.50253,79,40,40
399.50253,399.75253,81,40,40
399.75253,400.00253,78,40,40
400.00253,400.24213,79,40,40
400.25253,401.08588,73,40,40
401.25253,402.1454,74,40,40
436.09378,436.23267,81,60,40
436.37155,436.441,82,60,40
436.51044,436.5799,81,60,40
436.5799,436.64935,82,60,40
436.64935,437.19333,84,60,40
437.2049,437.34378,82,60,40
437.48267,437.58685,81,60,40
437.691,437.76044,79,60,40
437.76044,438.68637,86,60,40
440.53824,440.67712,81,60,40
440.816,440.88544,82,60,40
440.9549,441.02435,81,60,40
441.02435,441.09378,82,60,40
441.09378,441.63776,84,60,40
441.64935,441.78824,82,60,40
441.92712,442.03128,81,60,40
442.13544,442.2049,82,60,40
442.2049,443.13083,86,60,40
444.98267,445.12155,77,80,40
445.26044,445.3299,79,80,40
445.39935,445.46878,77,80,40
445.46878,445.53824,79,80,40
445.53824,446.0822,81,80,40
446.09378,446.23267,79,80,40
446.37155,446.47574,77,80,40
446.5799,446.64935,76,80,40
446.64935,447.19333,79,80,40
447.2049,447.34378,76,75,40
447.48267,447.55212,77,73,40
447.62155,447.691,76,72,40
447.691,447.76044,77,72,40
447.76044,448.30444,79,72,40
448.316,448.4549,77,66,40
448.59378,448.73267,76,63,40
448.87155,449.7975,74,60,40
449.98267,450.9086,74,60,40
451.09378,451.63776,74,60,40
451.64935,451.78824,70,60,40
451.92712,451.99655,72,60,40
452.066,452.13544,70,60,40
452.13544,452.2049,72,60,40
452.2049,452.74887,74,60,40
452.76044,452.89935,72,60,40
453.03824,453.1424,70,60,40
453.24655,453.316,69,60,40
453.316,454.24194,74,60,40
454.42712,455.35306,74,60,40
455.53824,456.0822,74,60,40
456.09378,456.23267,70,60,40
456.37155,456.441,72,60,40
456.51044,456.5799,70,60,40
456.5799,456.64935,72,60,40
456.64935,457.19333,74,60,40
457.2049,457.34378,72,60,40
457.48267,457.58685,70,60,40
457.691,457.76044,69,60,40
457.76044,458.68637,74,60,40
458.87155,459.7975,74,57,40
459.98267,460.9086,74,54,40
461.09378,462.0197,73,51,40
462.2049,463.16644,74,48,40
463.35873,464.32028,74,45,40
464.51257,465.51257,74,42,40
465.7126,466.7126,74,39,40
466.9126,467.99954,74,36,40
468.21692,469.46692,74,33,40
469.71692,473.21692,74,30,40
406.07397,406.33066,64,60,45
406.34183,406.5985,65,60,45
406.60968,407.13422,64,60,45
410.35968,410.61636,67,60,45
410.62753,410.88422,69,60,45
410.8954,411.41995,67,60,45
414.6454,414.90207,72,60,45
414.91324,415.16995,74,60,45
415.1811,415.70566,70,60,45
416.78824,417.04492,69,60,45
417.0561,417.3128,70,60,45
417.32394,417.8485,67,60,45
418.9311,419.1878,69,60,45
419.19894,419.45566,70,60,45
419.4668,419.99136,69,60,45
423.2168,423.4735,67,60,45
423.48468,423.74136,69,60,45
423.75253,424.27707,67,60,45
427.50253,427.75922,69,60,45
427.7704,428.02707,70,65,45
428.03824,428.56277,69,70,45
429.6454,429.90207,74,100,45
429.91324,430.16992,76,100,45
430.1811,430.70566,74,100,45
431.78824,432.04492,74,100,45
432.0561,432.31277,76,100,45
432.32394,432.8485,74,100,45
433.3954,433.91992,57,60,45
433.3954,433.91992,65,60,45
433.3954,433.91992,69,60,45
434.4668,434.99136,57,60,45
434.4668,434.99136,64,60,45
434.4668,434.99136,69,60,45
20.21182,21.045153,57,60,40
20.21182,21.045153,62,60,40
21.21182,22.045153,57,60,40
21.21182,22.045153,62,60,40
22.21182,23.045153,57,62,40
22.21182,23.045153,64,62,40
23.21182,24.045153,57,64,40
23.21182,24.045153,64,64,40
24.21182,25.045153,57,66,40
24.21182,25.045153,65,66,40
25.21182,26.045153,57,68,40
25.21182,26.045153,65,68,40
26.21182,27.045153,62,70,40
26.21182,27.045153,67,70,40
27.21182,28.045153,62,72,40
27.21182,28.045153,67,72,40
28.21182,29.045153,64,74,40
28.21182,29.045153,67,74,40
29.21182,30.045153,64,77,40
29.21182,30.045153,67,77,40
30.21182,31.045153,65,80,40
30.21182,31.045153,72,80,40
31.21182,31.701403,62,80,40
31.21182,32.045155,70,80,40
31.71182,32.201405,64,80,40
32.21182,33.073887,65,80,40
32.21182,33.073887,69,80,40
33.246304,34.10837,62,90,40
33.246304,34.10837,67,90,40
34.280785,35.073193,61,100,40
34.280785,35.073193,69,100,40
35.35221,36.144623,61,100,40
35.35221,36.144623,69,100,40
52.42364,53.256973,65,60,40
52.42364,53.256973,69,60,40
53.42364,54.256973,65,60,40
53.42364,54.256973,69,60,40
54.42364,55.256973,64,60,40
54.42364,55.256973,72,60,40
55.42364,56.256973,64,62,40
55.42364,56.256973,72,62,40
56.42364,57.256973,64,64,40
56.42364,57.256973,72,64,40
57.42364,58.256973,64,66,40
57.42364,58.256973,72,66,40
58.42364,59.256973,64,68,40
58.42364,59.256973,73,68,40
59.42364,60.256973,64,71,40
59.42364,60.256973,73,71,40
60.42364,60.68226,62,74,40
60.42364,60.68226,69,74,40
60.42364,60.68226,78,74,40
60.94088,61.1995,69,75,40
61.458122,61.716743,64,76,40
61.458122,61.716743,74,76,40
61.458122,61.716743,80,76,40
61.975365,62.233982,74,78,40
62.492603,62.76046,62,80,40
62.492603,62.76046,69,80,40
62.492603,62.76046,81,80,40
63.028316,63.296173,74,80,40
63.564034,63.83189,55,80,40
63.564034,63.83189,71,80,40
63.564034,63.83189,74,80,40
64.09975,64.3676,62,80,40
64.63546,64.90332,62,80,40
64.63546,64.90332,69,80,40
64.63546,64.90332,77,80,40
65.17117,65.43903,69,85,40
65.70689,65.97475,64,90,40
65.70689,65.97475,73,90,40
66.2426,66.51046,69,95,40
66.77831,67.05609,57,100,40
66.77831,67.05609,65,100,40
66.77831,67.05609,74,100,40
67.33387,67.61165,69,100,40
67.88943,68.15563,57,100,40
67.88943,68.29452,65,100,40
68.02831,68.29452,74,100,40
82.39339,82.91794,65,100,40
82.9291,83.19696,62,100,40
82.9291,83.19696,70,100,40
83.063034,83.19696,79,100,40
83.19696,83.46481,74,100,40
83.46481,83.73267,70,100,40
83.73267,83.98937,74,100,40
84.00053,84.26673,57,80,40
84.00053,84.405624,64,80,40
84.13942,84.405624,73,80,40
99.75086,100.27541,65,100,40
100.286575,100.55443,62,100,40
100.286575,100.55443,70,100,40
100.4205,100.55443,79,100,40
100.55443,100.82229,74,100,40
100.82229,101.09014,70,100,40
101.09014,101.34684,74,100,40
101.358,101.62421,57,80,40
101.358,101.76309,64,80,40
101.49689,101.76309,73,80,40
104.25119,104.77575,57,80,40
104.7869,105.0436,62,80,40
104.7869,105.17753,65,80,40
104.92084,105.17753,69,80,40
106.39405,106.6619,72,120,40
106.6619,106.92976,67,75,40
106.92976,107.19762,64,70,40
107.19762,107.46548,67,65,40
107.46548,107.99003,60,60,40
108.5369,109.061455,60,80,40
109.07262,109.329315,55,80,40
109.07262,109.46324,64,80,40
109.20655,109.46324,72,80,40
110.67976,110.94762,76,120,40
110.94762,111.21548,73,75,40
111.21548,111.48333,69,70,40
111.48333,111.75119,73,65,40
111.75119,112.27574,64,60,40
113.35833,113.88288,71,80,40
113.35833,113.88288,74,80,40
114.429756,114.954315,69,80,40
114.429756,114.954315,72,80,40
115.50119,116.02574,74,80,40
115.50119,116.02574,77,80,40
116.57262,116.83882,62,80,40
116.57262,116.97771,69,80,40
116.7115,116.97771,77,80,40
117.68372,117.96017,61,80,40
117.68372,117.96017,64,80,40
117.82796,118.1044,69,80,40
117.82796,118.1044,76,80,40
118.83757,119.12507,62,80,40
118.83757,119.27507,69,80,40
118.98757,119.27507,74,80,40
119.43757,119.73757,74,120,40
119.73757,120.037575,69,75,40
120.037575,120.33757,65,70,40
120.33757,120.63757,69,65,40
120.63757,121.24955,62,60,40
121.79829,122.32284,57,80,40
122.334,122.5907,62,80,40
122.334,122.724625,65,80,40
122.467926,122.724625,69,80,40
123.94114,124.209,72,120,40
124.209,124.47685,67,75,40
124.47685,124.74471,64,70,40
124.74471,125.01257,67,65,40
125.01257,125.537125,60,60,40
126.084,126.60855,60,80,40
126.61971,126.87641,55,80,40
126.61971,127.01034,64,80,40
126.75364,127.01034,72,80,40
128.22685,128.4947,76,120,40
128.4947,128.76257,73,75,40
128.76257,129.03043,69,70,40
129.03043,129.29828,73,65,40
129.29828,129.82283,64,60,40
130.90543,131.42998,71,80,40
130.90543,131.42998,74,80,40
131.97685,132.5014,69,80,40
131.97685,132.5014,72,80,40
133.04828,133.57283,74,80,40
133.04828,133.57283,77,80,40
134.1197,134.38591,62,80,40
134.1197,134.5248,69,80,40
134.25859,134.5248,77,80,40
135.23082,135.50726,61,80,40
135.23082,135.50726,64,80,40
135.37505,135.65149,69,80,40
135.37505,135.65149,76,80,40
136.38466,136.6611,62,80,40
136.38466,136.80534,69,80,40
136.5289,136.80534,74,80,40
136.9616,137.25005,74,120,40
137.25005,137.53851,69,80,40
137.53851,137.83852,65,80,40
137.83852,138.1385,69,80,40
138.1385,138.4385,62,80,40
138.4385,138.72601,69,60,40
138.73851,138.90015,65,100,40
138.91092,139.07256,65,100,40
139.08334,139.24498,65,100,40
139.25575,139.41739,65,100,40
139.42816,139.5898,69,100,40
139.60059,139.76222,74,100,40
139.773,140.45187,74,100,40
140.46265,140.62428,69,100,40
140.63506,140.79669,65,100,40
140.80748,140.96912,69,100,40
140.97989,141.14153,69,100,40
141.1523,141.31393,69,100,40
141.32472,141.48636,69,100,40
141.49713,141.65877,74,100,40
141.66954,141.83118,76,100,40
141.84195,142.52083,76,100,40
142.53162,142.69325,74,100,40
142.70403,142.86566,69,100,40
142.87643,143.03807,74,100,40
143.04886,143.2105,74,100,40
143.22127,143.3829,74,100,40
143.39368,143.55531,74,100,40
143.5661,143.72774,76,100,40
143.73851,143.90015,77,100,40
143.91092,144.5898,77,100,40
144.60057,144.7622,76,100,40
144.773,144.93463,74,100,40
144.9454,145.62428,77,100,40
145.63506,145.79669,76,87,40
145.80746,145.96912,74,84,40
145.97989,146.65877,77,81,40
146.66954,146.83118,76,68,40
146.84195,147.00359,74,64,40
147.01437,147.20833,72,60,40
147.273,147.46695,76,60,40
147.5316,147.72557,77,60,40
147.79022,147.91954,79,60,40
148.04884,148.24281,72,60,40
148.30746,148.50143,76,60,40
148.56609,148.76006,77,60,40
148.8247,148.95403,79,60,40
149.08333,149.2773,81,60,40
149.34195,149.53592,72,62,40
149.60057,149.79454,76,64,40
149.85919,149.98851,77,66,40
150.11781,150.31178,79,68,40
150.37643,150.5704,72,70,40
150.63506,150.82903,74,72,40
150.89368,151.02298,76,74,40
151.1523,151.34627,77,76,40
151.41092,151.60487,72,79,40
151.66954,151.8635,76,82,40
151.92816,152.05746,77,85,40
152.18678,152.27298,76,88,40
152.27298,152.35919,77,89,40
152.35919,152.4454,76,90,40
152.4454,152.5316,77,91,40
152.5316,152.61781,76,92,40
152.61781,152.70403,77,93,40
152.70403,152.79022,76,94,40
152.87643,152.96263,74,96,40
153.04884,153.13506,76,98,40
153.22125,154.11412,73,100,40
155.28627,155.48158,69,100,40
155.49461,155.65625,65,100,40
155.66702,155.82866,65,100,40
155.83943,156.00107,65,100,40
156.01186,156.1735,65,100,40
156.18427,156.3459,69,100,40
156.35667,156.51831,74,100,40
156.5291,157.20798,74,100,40
157.21875,157.38039,69,100,40
157.39116,157.5528,65,100,40
157.56357,157.7252,69,100,40
157.736,157.89763,69,100,40
157.9084,158.07004,69,100,40
158.08081,158.24245,69,100,40
158.25323,158.41487,74,100,40
158.42564,158.58728,76,100,40
158.59805,159.27693,76,100,40
159.2877,159.44936,74,100,40
159.46013,159.62177,69,100,40
159.63254,159.79417,74,100,40
159.80495,159.96658,74,100,40
159.97737,160.139,74,100,40
160.14978,160.31142,74,100,40
160.32219,160.48383,76,100,40
160.49461,160.65625,77,100,40
160.66702,161.3459,77,100,40
161.35667,161.51831,76,100,40
161.52908,161.69072,74,100,40
161.7015,162.38039,77,100,40
162.39116,162.5528,76,87,40
162.56357,162.7252,74,84,40
162.73598,163.41486,77,81,40
163.42564,163.58728,76,68,40
163.59805,163.75969,74,64,40
163.77046,163.96443,72,60,40
164.02908,164.22305,76,60,40
164.2877,164.48167,77,60,40
164.54633,164.67564,79,60,40
164.80495,164.99892,72,60,40
165.06357,165.25754,76,60,40
165.32219,165.51616,77,60,40
165.58081,165.71011,79,60,40
165.83943,166.0334,81,60,40
166.09805,166.29202,72,62,40
166.35667,166.55064,76,64,40
166.6153,166.7446,77,66,40
166.87392,167.06787,79,68,40
167.13254,167.32649,72,70,40
167.39116,167.58511,74,72,40
167.64978,167.77908,76,74,40
167.9084,168.10236,77,76,40
168.167,168.36098,72,79,40
168.42563,168.6196,76,82,40
168.68425,168.81357,77,85,40
168.94287,169.02908,76,88,40
169.02908,169.1153,77,89,40
169.1153,169.20149,76,90,40
169.20149,169.2877,77,91,40
169.2877,169.37392,76,92,40
169.37392,169.46011,77,93,40
169.46011,169.54633,76,94,40
169.63254,169.71873,74,96,40
169.80495,169.89114,76,98,40
169.97736,170.87021,73,100,40
172.04237,172.23769,69,100,40
172.2507,172.41235,65,100,40
172.42313,172.58476,65,100,40
172.59554,172.75717,65,100,40
172.76794,172.92958,65,100,40
172.94037,173.102,69,100,40
173.11278,173.27441,74,100,40
173.28519,173.96407,74,100,40
173.97484,174.13649,69,100,40
174.14726,174.3089,65,100,40
174.31967,174.48131,64,100,40
174.49208,174.65372,64,100,40
174.6645,174.82614,64,100,40
174.83691,174.99855,64,100,40
175.00932,175.17096,72,100,40
175.18175,175.34338,76,100,40
175.35416,176.03304,76,100,40
176.04381,176.20544,72,100,40
176.21622,176.37787,64,100,40
176.38864,176.55028,64,100,40
176.56105,176.72269,64,100,40
176.73346,176.8951,64,100,40
176.90588,177.06752,64,100,40
177.0783,177.23993,67,100,40
177.2507,177.41234,76,100,40
177.42313,178.102,76,100,40
178.11278,178.27441,67,100,40
178.28519,178.44682,64,100,40
178.4576,178.61923,64,100,40
178.63002,178.79166,64,100,40
178.80243,178.96407,64,100,40
178.97484,179.13647,64,100,40
179.14726,179.3089,69,100,40
179.31967,179.48131,76,100,40
179.49208,180.26794,76,80,40
180.26794,180.5158,73,80,40
180.78519,180.97916,74,60,40
181.04381,181.23778,78,60,40
181.30243,181.43173,81,60,40
181.56105,181.755,80,60,40
181.81967,182.01363,76,60,40
182.0783,182.27225,80,60,40
182.33691,182.46622,83,60,40
182.59554,182.78949,81,60,40
182.85416,183.04811,74,62,40
183.11276,183.30673,78,64,40
183.37138,183.5007,84,66,40
183.63,183.82397,83,68,40
183.88863,184.0826,76,70,40
184.14725,184.34122,80,72,40
184.40587,184.53519,83,74,40
184.66449,184.85846,81,76,40
184.92311,185.11708,79,79,40
185.18173,185.3757,77,82,40
185.44035,185.56967,81,85,40
185.69897,185.89294,79,88,40
185.9576,186.15157,82,91,40
186.21622,186.41019,76,94,40
186.47484,186.60414,79,97,40
186.73346,187.65938,77,100,40
188.87935,189.08316,69,100,40
189.09674,189.25838,65,100,40
189.26915,189.43079,65,100,40
189.44157,189.60321,65,100,40
189.61398,189.77562,65,100,40
189.78639,189.94803,69,100,40
189.95882,190.12045,74,100,40
190.13123,190.8101,74,100,40
190.82088,190.98251,69,100,40
190.99329,191.15492,65,100,40
191.16571,191.32735,64,100,40
191.33812,191.49976,64,100,40
191.51053,191.67216,64,100,40
191.68295,191.84459,64,100,40
191.85536,192.017,72,100,40
192.02777,192.1894,76,100,40
192.20018,192.87906,76,100,40
192.88985,193.05148,72,100,40
193.06226,193.22389,64,100,40
193.23466,193.3963,64,100,40
193.40709,193.56873,64,100,40
193.5795,193.74113,64,100,40
193.7519,193.91354,64,100,40
193.92433,194.08597,67,100,40
194.09674,194.25838,76,100,40
194.26915,194.94803,76,100,40
194.9588,195.12044,67,100,40
195.13123,195.29286,64,100,40
195.30363,195.46527,64,100,40
195.47604,195.63768,64,100,40
195.64847,195.8101,64,100,40
195.82088,195.98251,64,100,40
195.99329,196.15492,69,100,40
196.1657,196.32735,76,100,40
196.33812,197.11398,76,80,40
197.11398,197.36182,73,80,40
197.63123,197.82518,74,60,40
197.88983,198.0838,78,60,40
198.14845,198.27777,81,60,40
198.40707,198.60104,80,60,40
198.6657,198.85966,76,60,40
198.92432,199.11829,80,60,40
199.18294,199.31226,83,60,40
199.44156,199.63553,81,60,40
199.70018,199.89415,74,62,40
199.9588,200.15277,78,64,40
200.21742,200.34674,84,66,40
200.47604,200.67001,83,68,40
200.73466,200.92863,76,70,40
200.99329,201.18726,80,72,40
201.2519,201.38121,83,74,40
201.51053,201.7045,81,76,40
201.76915,201.9631,79,79,40
202.02777,202.22173,77,82,40
202.28639,202.4157,81,85,40
202.54501,202.73897,79,88,40
202.80363,202.99759,82,91,40
203.06226,203.25621,76,94,40
203.32086,203.45018,79,97,40
203.57948,204.47235,77,100,40
206.51202,206.76202,77,60,40
206.76202,207.50162,79,100,40
207.51202,207.76202,58,100,40
207.76202,208.50162,57,60,40
208.51202,208.76202,77,60,40
208.76202,209.50162,78,100,40
209.51202,209.76202,57,100,40
209.76202,210.50162,55,60,40
210.51202,210.76202,79,60,40
210.76202,211.50162,78,100,40
211.51202,211.76202,57,100,40
211.76202,212.50162,55,60,40
212.51202,212.76202,86,60,40
212.76202,213.50162,83,100,40
213.51202,213.76202,62,100,40
213.76202,214.50162,60,100,40
214.76202,215.00162,60,100,40
214.76202,215.25162,67,100,40
214.88702,215.25162,72,100,40
215.76202,216.00162,60,100,40
215.76202,216.25162,65,100,40
215.88702,216.25162,72,100,40
216.76202,217.00162,60,100,40
216.76202,217.25162,67,100,40
216.88702,217.25162,72,100,40
217.76202,218.00162,60,100,40
217.76202,218.25162,65,100,40
217.88702,218.25162,72,100,40
218.76202,219.00162,64,100,40
218.76202,219.25162,74,100,40
218.88702,219.25162,80,100,40
219.51202,219.63702,64,100,40
219.51202,219.63702,74,100,40
219.51202,219.63702,80,100,40
219.76202,219.88702,64,100,40
219.76202,219.88702,73,100,40
219.76202,219.88702,81,100,40
219.88702,220.01202,80,95,40
220.01202,220.13702,81,90,40
220.13702,220.26202,78,85,40
220.26202,220.38702,76,80,40
220.38702,220.51202,74,75,40
220.51202,220.63702,73,70,40
220.63702,220.75162,71,65,40
220.76202,221.25162,69,60,40
222.51202,222.76202,77,60,40
222.76202,223.50162,79,100,40
223.51202,223.76202,58,100,40
223.76202,224.50162,57,60,40
224.51202,224.76202,77,60,40
224.76202,225.50162,78,100,40
225.51202,225.76202,57,100,40
225.76202,226.50162,55,60,40
226.51202,226.76202,79,60,40
226.76202,227.50162,78,100,40
227.51202,227.76202,57,100,40
227.76202,228.50162,55,60,40
228.51202,228.76202,86,60,40
228.76202,229.50162,83,100,40
229.51202,229.76202,62,100,40
229.76202,230.50162,60,100,40
230.76202,231.00162,60,100,40
230.76202,231.25162,67,100,40
230.88702,231.25162,72,100,40
231.76202,232.00162,60,100,40
231.76202,232.25162,65,100,40
231.88702,232.25162,72,100,40
232.76202,233.00162,60,100,40
232.76202,233.25162,67,100,40
232.88702,233.25162,72,100,40
233.76202,234.00162,60,100,40
233.76202,234.25162,65,100,40
233.88702,234.25162,72,100,40
234.76202,235.00162,64,100,40
234.76202,235.25162,74,100,40
234.88702,235.25162,80,100,40
235.51202,235.63702,64,100,40
235.51202,235.63702,74,100,40
235.51202,235.63702,80,100,40
235.76202,235.88702,64,100,40
235.76202,235.88702,73,100,40
235.76202,235.88702,81,100,40
235.88702,236.01202,80,95,40
236.01202,236.13702,81,90,40
236.13702,236.26202,78,85,40
236.26202,236.38702,76,80,40
236.38702,236.51202,74,75,40
236.51202,236.63702,73,70,40
236.63702,236.75162,71,65,40
236.76202,237.25162,69,60,40
238.51202,238.76202,77,60,40
238.76202,239.51202,77,80,40
239.51202,239.75162,82,100,40
239.76202,240.50162,79,100,40
240.51202,240.76202,64,60,40
240.51202,240.76202,67,60,40
240.76202,241.59537,65,100,40
240.76202,241.59537,68,100,40
241.76202,242.50162,64,100,40
241.76202,242.50162,67,100,40
242.51202,242.75162,79,60,40
242.76202,243.51202,79,80,40
243.51202,243.75162,84,100,40
243.76202,244.50162,81,100,40
244.51202,244.76202,66,60,40
244.51202,244.76202,69,60,40
244.76202,245.59537,67,100,40
244.76202,245.59537,70,100,40
245.76202,246.50162,66,100,40
245.76202,246.50162,69,100,40
246.51202,246.75162,72,100,40
246.76202,247.25162,71,100,40
247.51202,247.63702,74,100,40
247.76202,248.25162,72,100,40
248.51202,248.63702,78,100,40
248.76202,249.25162,76,100,40
249.51202,249.63702,76,100,40
249.76202,250.25162,81,100,40
250.26202,250.50162,79,100,40
250.51202,250.75162,81,100,40
250.76202,250.82452,79,100,40
250.82452,250.88702,81,100,40
250.88702,251.25162,82,100,40
251.26202,251.50162,81,100,40
251.51202,251.75162,79,100,40
251.76202,251.89134,77,100,40
251.89134,252.02065,85,95,40
252.02065,252.14996,86,90,40
252.14996,252.27927,82,85,40
252.27927,252.40858,81,80,40
252.40858,252.53789,79,75,40
252.53789,252.6672,77,70,40
252.6672,252.78574,76,65,40
252.79651,253.32106,74,60,40
254.63779,254.88779,77,60,40
254.88779,255.63779,77,80,40
255.63779,255.87737,82,100,40
255.88779,256.62735,79,100,40
256.6378,256.8878,64,60,40
256.6378,256.8878,67,60,40
256.8878,257.7211,65,100,40
256.8878,257.7211,68,100,40
257.8878,258.62735,64,100,40
257.8878,258.62735,67,100,40
258.6378,258.87735,79,60,40
258.8878,259.6378,79,80,40
259.6378,259.87735,84,100,40
259.8878,260.62735,81,100,40
260.6378,260.8878,66,60,40
260.6378,260.8878,69,60,40
260.8878,261.7211,67,100,40
260.8878,261.7211,70,100,40
261.8878,262.62735,66,100,40
261.8878,262.62735,69,100,40
262.6378,262.87735,72,100,40
262.8878,263.37735,71,100,40
263.6378,263.7628,74,100,40
263.8878,264.37735,72,100,40
264.6378,264.7628,78,100,40
264.8878,265.37735,76,100,40
265.6378,265.7628,76,100,40
265.8878,266.37735,81,100,40
266.3878,266.62735,79,100,40
266.6378,266.87735,81,100,40
266.8878,266.9503,79,100,40
266.9503,267.0128,81,100,40
267.0128,267.37735,82,100,40
267.3878,267.62735,81,100,40
267.6378,267.87735,79,100,40
267.8878,268.0171,77,100,40
268.0171,268.1464,85,95,40
268.1464,268.2757,86,90,40
268.2757,268.40503,82,85,40
268.40503,268.53433,81,80,40
268.53433,268.66364,79,75,40
268.66364,268.79294,77,70,40
268.79294,268.9115,76,65,40
268.92227,269.4468,74,60,40
283.40637,283.9421,59,80,40
283.9421,284.4778,57,80,40
284.4778,285.01352,56,80,40
285.01352,285.54922,57,80,40
285.54922,286.08496,56,80,40
286.08496,286.6095,57,80,40
286.62067,287.14523,57,100,40
287.15637,287.6921,62,100,40
287.6921,288.2278,61,95,40
288.2278,288.76352,59,90,40
288.76352,289.2881,57,85,40
289.29922,289.83496,64,80,40
289.83496,290.37067,61,80,40
290.37067,290.90637,59,80,40
290.90637,291.43094,57,80,40
291.44208,291.9778,66,80,40
291.9778,292.51352,62,80,40
292.51352,293.04922,61,80,40
293.04922,293.5738,60,80,40
293.58496,294.12067,59,80,40
294.12067,294.65637,62,80,40
294.65637,295.19208,67,80,40
295.19208,295.71664,66,80,40
295.7278,296.26352,64,80,40
296.26352,296.79922,66,82,40
296.79922,297.33493,64,84,40
297.33493,297.8595,62,86,40
297.87067,298.40637,61,88,40
298.40637,298.94208,62,91,40
298.94208,299.4778,61,94,40
299.4778,300.00235,59,97,40
300.01352,300.54922,57,100,40
300.54922,301.08493,59,100,40
301.08493,301.62067,57,100,40
301.62067,302.1452,59,100,40
302.15637,302.69208,61,100,40
302.69208,303.2278,59,80,40
303.2278,304.12067,57,60,40
304.29922,305.19208,57,80,40
305.37067,306.26352,59,80,40
306.44208,307.87067,60,80,40
308.04922,308.5738,60,83,40
308.58493,309.47778,60,84,40
309.65637,310.54922,61,86,40
310.72778,312.15637,62,88,40
312.33493,312.8595,62,91,40
312.87067,313.76352,62,92,40
313.94208,314.83493,63,94,40
315.01352,315.90637,64,96,40
316.08493,316.97778,65,98,40
317.15637,317.69208,66,100,40
317.69208,318.21664,62,100,40
318.22778,318.49564,61,100,40
318.49564,318.56262,62,90,40
318.56262,318.62958,61,88,40
318.62958,318.69653,59,86,40
318.69653,318.76352,61,84,40
318.76352,319.03137,62,82,40
319.03137,319.28806,64,71,40
319.29922,320.19208,62,60,40
320.90637,321.4309,69,80,40
321.44208,322.33493,69,80,40
322.5135,323.40637,71,81,40
323.58493,325.0135,72,82,40
325.19208,325.7166,72,84,40
325.72778,326.62064,72,84,40
326.79922,327.69208,73,86,40
327.87064,329.29922,74,88,40
329.47778,330.00235,74,91,40
330.0135,330.90634,74,92,40
331.08493,331.97778,75,94,40
332.15634,333.04922,76,96,40
333.22778,334.12064,77,98,40
334.29922,334.8432,78,100,40
334.85477,334.99365,76,100,40
335.13254,335.27142,74,100,40
335.4103,335.6881,73,100,40
335.6881,335.75754,74,100,40
335.75754,335.827,73,100,40
335.827,335.89642,71,100,40
335.89642,335.96588,73,100,40
335.96588,336.24365,74,100,40
336.24365,336.50986,76,100,40
336.52142,338.0753,74,80,40
339.12527,339.37527,86,40,40
339.37527,340.70862,74,40,40
341.12527,341.37527,88,40,40
341.37527,342.70862,76,40,40
343.12527,343.37527,90,40,40
343.37527,344.70862,78,40,40
345.12527,345.37527,86,40,40
345.37527,346.70862,74,40,40
347.12527,347.37527,88,40,40
347.37527,348.11487,76,40,40
348.12527,348.37527,81,40,40
348.37527,348.86487,79,40,40
349.12527,349.37527,86,40,40
349.37527,350.11487,74,40,40
350.12527,350.37527,78,40,40
350.37527,350.86487,76,40,40
351.12527,351.37527,81,40,40
351.37527,352.11487,69,40,40
352.12527,352.37527,80,40,40
352.37527,352.86487,68,40,40
353.39252,354.44547,73,80,40
354.44547,354.98947,76,40,40
355.25104,355.50104,86,40,40
355.50104,356.83435,74,40,40
357.25104,357.50104,88,40,40
357.50104,358.83435,76,40,40
359.25104,359.50104,90,40,40
359.50104,360.83435,78,40,40
361.25104,361.50104,86,40,40
361.50104,362.83435,74,40,40
363.25104,363.50104,88,40,40
363.50104,364.2406,76,40,40
364.25104,364.50104,81,40,40
364.50104,364.9906,79,40,40
365.25104,365.50104,86,40,40
365.50104,366.2406,74,40,40
366.25104,366.50104,78,40,40
366.50104,366.9906,76,40,40
367.25104,367.50104,81,40,40
367.50104,368.2406,69,40,40
368.25104,368.50104,80,40,40
368.50104,368.9906,68,40,40
369.51828,370.57123,73,80,40
370.57123,371.1152,76,40,40
371.37677,371.62677,86,40,40
371.62677,372.36636,74,40,40
372.37677,372.62677,86,60,40
372.62677,373.11636,74,60,40
373.37677,373.62677,88,80,40
373.62677,374.36636,76,80,40
374.37677,374.62677,88,60,40
374.62677,375.11636,76,60,40
375.37677,375.62677,84,40,40
375.62677,376.36636,72,40,40
376.37677,376.62677,84,60,40
376.62677,377.11636,72,60,40
377.37677,377.62677,86,80,40
377.62677,378.36636,74,80,40
378.37677,378.62677,86,60,40
378.62677,379.11636,74,60,40
379.12677,379.87677,74,40,40
379.87677,380.11636,73,40,40
380.12677,380.37677,74,40,40
380.37677,380.62677,73,40,40
380.62677,380.87677,74,40,40
380.87677,381.11636,73,40,40
381.12677,381.87677,72,40,40
381.87677,382.11636,74,40,40
382.12677,382.37677,72,40,40
382.37677,382.62677,74,40,40
382.62677,382.87677,72,40,40
382.87677,383.11636,74,40,40
383.12677,383.37677,71,40,40
383.37677,383.62677,72,40,40
383.62677,383.87677,69,40,40
383.87677,384.11636,71,40,40
384.12677,384.37677,67,40,40
384.37677,384.62677,70,40,40
384.62677,384.87677,69,40,40
384.87677,385.11636,67,40,40
385.12677,385.98886,66,40,40
387.50253,387.75253,86,40,40
387.75253,388.49213,74,40,40
388.50253,388.75253,86,60,40
388.75253,389.24213,74,60,40
389.50253,389.75253,88,80,40
389.75253,390.49213,76,80,40
390.50253,390.75253,88,60,40
390.75253,391.24213,76,60,40
391.50253,391.75253,84,40,40
391.75253,392.49213,72,40,40
392.50253,392.75253,84,60,40
392.75253,393.24213,72,60,40
393.50253,393.75253,86,80,40
393.75253,394.49213,74,80,40
394.50253,394.75253,86,60,40
394.75253,395.24213,74,60,40
395.25253,396.00253,74,40,40
396.00253,396.24213,73,40,40
396.25253,396.50253,74,40,40
396.50253,396.75253,73,40,40
396.75253,397.00253,74,40,40
397.00253,397.24213,73,40,40
397.25253,398.00253,72,40,40
398.00253,398.24213,74,40,40
398.25253,398.50253,72,40,40
398.50253,398.75253,74,40,40
398.75253,399.00253,72,40,40
399.00253,399.24213,74,40,40
399.25253,399.50253,71,40,40
399.50253,399.75253,72,40,40
399.75253,400.00253,69,40,40
400.00253,400.24213,71,40,40
400.25253,400.50253,67,40,40
400.50253,400.75253,70,40,40
400.75253,401.00253,69,40,40
401.00253,401.24213,67,40,40
401.25253,402.1454,66,40,40
436.09378,436.23267,78,60,40
436.37155,436.441,79,60,40
436.51044,436.5799,78,60,40
436.5799,436.64935,79,60,40
436.64935,437.19333,81,60,40
437.2049,437.34378,79,60,40
437.48267,437.58685,78,60,40
437.691,437.76044,79,60,40
437.76044,438.68637,82,60,40
440.53824,440.67712,78,60,40
440.816,440.88544,79,60,40
440.9549,441.02435,78,60,40
441.02435,441.09378,79,60,40
441.09378,441.63776,81,60,40
441.64935,441.78824,79,60,40
441.92712,442.03128,78,60,40
442.13544,442.2049,79,60,40
442.2049,443.13083,82,60,40
444.98267,445.12155,74,80,40
445.26044,445.3299,76,80,40
445.39935,445.46878,74,80,40
445.46878,445.53824,76,80,40
445.53824,446.0822,77,80,40
446.09378,446.23267,76,80,40
446.37155,446.47574,74,80,40
446.5799,446.64935,69,80,40
446.64935,447.19333,76,80,40
447.2049,447.34378,69,75,40
447.48267,447.55212,74,73,40
447.62155,447.691,69,72,40
447.691,447.76044,74,72,40
447.76044,448.30444,76,72,40
448.316,448.4549,74,66,40
448.59378,448.73267,69,63,40
448.87155,449.7975,62,60,40
449.98267,450.9086,62,60,40
451.09378,451.63776,62,60,40
451.64935,451.78824,67,60,40
451.92712,451.99655,69,60,40
452.066,452.13544,67,60,40
452.13544,452.2049,69,60,40
452.2049,452.74887,70,60,40
452.76044,452.89935,69,60,40
453.03824,453.1424,67,60,40
453.24655,453.316,66,60,40
453.316,454.24194,62,60,40
454.42712,455.35306,62,60,40
455.53824,456.0822,62,60,40
456.09378,456.23267,67,60,40
456.37155,456.441,69,60,40
456.51044,456.5799,67,60,40
456.5799,456.64935,69,60,40
456.64935,457.19333,70,60,40
457.2049,457.34378,69,60,40
457.48267,457.58685,67,60,40
457.691,457.76044,66,60,40
457.76044,458.68637,62,60,40
458.87155,459.7975,57,57,40
459.98267,460.9086,57,54,40
461.09378,462.0197,57,51,40
462.2049,463.16644,62,48,40
463.35873,464.32028,62,45,40
464.51257,465.51257,62,42,40
465.7126,466.7126,62,39,40
466.9126,467.99954,62,36,40
468.21692,469.46692,62,33,40
469.71692,473.21692,62,30,40
406.07397,406.5985,57,60,45
406.60968,407.13422,57,60,45
410.35968,410.88422,55,60,45
410.35968,410.88422,62,60,45
410.8954,411.41995,55,60,45
410.8954,411.41995,62,60,45
414.6454,415.16995,65,60,45
415.1811,415.70566,62,60,45
416.78824,417.3128,60,60,45
417.32394,417.8485,62,60,45
418.9311,419.45566,61,60,45
418.9311,419.45566,64,60,45
419.4668,419.99136,61,60,45
419.4668,419.99136,64,60,45
423.2168,423.74136,60,60,45
423.2168,423.74136,64,60,45
423.75253,424.27707,60,60,45
423.75253,424.27707,64,60,45
427.50253,428.02707,61,60,45
427.50253,428.02707,64,60,45
428.03824,428.56277,61,70,45
428.03824,428.56277,64,70,45
429.6454,429.90207,74,100,45
429.91324,430.16992,76,100,45
430.1811,430.70566,74,100,45
431.78824,432.04492,74,100,45
432.0561,432.31277,76,100,45
432.32394,432.8485,74,100,45
433.3954,433.91992,57,60,45
433.3954,433.91992,69,60,45
434.4668,434.99136,57,60,45
434.4668,434.99136,69,60,45
3.5,3.9895833,57,80,41
4.0,5.3333335,62,80,41
5.5,5.7395835,64,83,41
5.75,5.9895835,65,83,41
6.0,7.3333335,64,83,41
7.5,7.9895835,57,86,41
8.0,9.25,65,87,41
9.25,9.3125,67,89,41
9.3125,9.375,65,89,41
9.375,9.4375,64,89,41
9.4375,9.489583,65,89,41
9.5,9.739583,67,89,41
9.75,9.989583,69,89,41
10.0,11.333333,67,89,41
11.5,11.989583,55,93,41
12.0,13.25,67,94,41
13.25,13.3125,69,97,41
13.3125,13.375,67,97,41
13.375,13.4375,65,97,41
13.4375,13.489583,67,97,41
13.5,13.739583,69,97,41
13.75,13.989583,70,98,41
14.0,15.25,72,100,41
15.25,15.489583,70,100,41
15.5,15.739583,62,100,41
15.75,15.989583,64,100,41
16.0,16.862068,65,100,41
17.034481,17.293102,67,100,41
17.293102,17.422413,69,100,41
17.422413,17.540947,67,100,41
17.551723,17.799568,65,100,41
17.810343,18.058187,67,100,41
18.068964,18.32566,52,100,41
18.068964,18.861374,61,100,41
18.202892,18.861374,69,100,41
19.140392,19.397089,52,100,41
19.140392,19.531017,61,100,41
19.27432,19.531017,69,100,41
19.676105,20.200659,57,80,41
20.21182,20.46182,50,60,41
20.21182,20.46182,57,60,41
20.21182,20.46182,62,60,41
20.71182,20.96182,57,60,41
21.21182,21.46182,50,60,41
21.21182,21.46182,57,60,41
21.21182,21.46182,62,60,41
21.71182,21.96182,57,60,41
22.21182,22.46182,49,60,41
22.21182,22.46182,57,60,41
22.21182,22.46182,64,60,41
22.71182,22.96182,57,61,41
23.21182,23.46182,49,62,41
23.21182,23.46182,57,62,41
23.21182,23.46182,64,62,41
23.71182,23.96182,57,63,41
24.21182,24.46182,50,64,41
24.21182,24.46182,57,64,41
24.21182,24.46182,65,64,41
24.71182,24.96182,57,65,41
25.21182,25.46182,50,66,41
25.21182,25.46182,57,66,41
25.21182,25.46182,65,66,41
25.71182,25.96182,57,67,41
26.21182,26.46182,50,68,41
26.21182,26.46182,55,68,41
26.21182,26.46182,67,68,41
26.71182,26.96182,55,69,41
27.21182,27.46182,50,70,41
27.21182,27.46182,55,70,41
27.21182,27.46182,67,70,41
27.71182,27.96182,55,71,41
28.21182,28.46182,52,72,41
28.21182,28.46182,60,72,41
28.21182,28.46182,67,72,41
28.71182,28.96182,55,74,41
29.21182,29.46182,52,76,41
29.21182,29.46182,60,76,41
29.21182,29.46182,67,76,41
29.71182,29.96182,55,78,41
30.21182,30.46182,57,80,41
30.21182,30.46182,65,80,41
30.21182,30.46182,72,80,41
30.71182,30.96182,60,80,41
31.21182,31.46182,55,80,41
31.21182,31.46182,62,80,41
31.21182,31.46182,70,80,41
31.71182,31.96182,58,80,41
32.21182,32.47044,53,80,41
32.21182,32.47044,60,80,41
32.21182,32.47044,65,80,41
32.21182,32.47044,69,80,41
32.72906,32.987682,57,85,41
33.246304,33.50492,50,90,41
33.246304,33.50492,58,90,41
33.246304,33.50492,67,90,41
33.763542,34.022163,55,95,41
34.280785,34.54864,49,100,41
34.280785,34.54864,57,100,41
34.280785,34.54864,64,100,41
34.280785,34.54864,69,100,41
34.816498,35.084354,57,100,41
35.35221,35.620068,49,100,41
35.35221,35.620068,57,100,41
35.35221,35.620068,64,100,41
35.35221,35.620068,69,100,41
35.887924,36.41248,57,80,41
36.42364,37.67364,69,80,41
37.67364,37.756973,71,82,41
37.756973,37.840305,69,82,41
37.840305,37.913223,67,82,41
37.92364,38.17364,69,82,41
38.17364,38.413223,71,82,41
38.42364,38.913223,55,82,41
38.42364,39.756973,64,82,41
38.67364,39.756973,72,82,41
39.92364,40.413223,60,84,41
40.42364,41.67364,72,85,41
41.67364,41.756973,74,87,41
41.756973,41.840305,72,87,41
41.840305,41.913223,71,87,41
41.92364,42.17364,72,87,41
42.17364,42.413223,74,87,41
42.42364,42.913223,61,87,41
42.42364,43.756973,69,87,41
42.67364,43.756973,76,87,41
43.92364,44.413223,69,90,41
44.42364,45.256973,78,92,41
45.42364,46.256973,80,96,41
46.42364,47.67364,81,100,41
47.67364,47.913223,79,100,41
47.92364,48.163223,74,100,41
48.17364,48.413223,76,100,41
48.42364,49.163223,77,100,41
49.17364,49.288223,76,100,41
49.29864,49.413223,77,100,41
49.42364,49.48614,77,100,41
49.48614,49.54864,79,100,41
49.54864,49.913223,79,100,41
49.92364,50.163223,77,100,41
50.17364,50.413223,76,100,41
50.42364,50.663223,57,100,41
50.42364,51.163223,65,100,41
50.54864,51.163223,74,100,41
51.42364,51.663223,57,100,41
51.42364,51.788223,65,100,41
51.54864,51.788223,74,100,41
51.92364,52.413223,57,60,41
52.42364,52.67364,53,60,41
52.42364,52.67364,57,60,41
52.42364,52.67364,62,60,41
52.42364,52.67364,69,60,41
52.92364,53.17364,57,61,41
53.42364,53.67364,53,62,41
53.42364,53.67364,57,62,41
53.42364,53.67364,62,62,41
53.42364,53.67364,69,62,41
53.92364,54.17364,57,63,41
54.42364,54.67364,55,64,41
54.42364,54.67364,64,64,41
54.42364,54.67364,72,64,41
54.92364,55.17364,60,65,41
55.42364,55.67364,55,66,41
55.42364,55.67364,64,66,41
55.42364,55.67364,72,66,41
55.92364,56.17364,60,67,41
56.42364,56.67364,55,68,41
56.42364,56.67364,64,68,41
56.42364,56.67364,72,68,41
56.92364,57.17364,60,69,41
57.42364,57.67364,55,70,41
57.42364,57.67364,64,70,41
57.42364,57.67364,72,70,41
57.92364,58.17364,60,71,41
58.42364,58.67364,61,72,41
58.42364,58.67364,69,72,41
58.42364,58.67364,76,72,41
58.92364,59.17364,64,73,41
59.42364,59.67364,61,74,41
59.42364,59.67364,69,74,41
59.42364,59.67364,76,74,41
59.92364,60.17364,64,75,41
60.42364,61.28571,66,76,41
60.42364,61.28571,74,76,41
61.458122,62.32019,68,78,41
61.458122,62.32019,74,78,41
62.492603,63.38546,69,80,41
62.492603,63.38546,74,80,41
63.564034,64.45689,71,80,41
63.564034,64.45689,74,80,41
64.63546,65.52832,69,80,41
64.63546,65.52832,77,80,41
65.70689,66.23144,67,90,41
65.70689,66.23144,76,90,41
66.2426,66.76716,64,95,41
66.2426,66.76716,73,95,41
66.77831,67.04452,62,100,41
66.77831,67.600075,69,100,41
66.917206,67.600075,74,100,41
67.88943,68.15563,62,100,41
67.88943,68.29452,69,100,41
68.02831,68.29452,74,100,41
68.444984,68.98896,57,80,41
69.00054,69.25723,50,80,41
69.00054,69.39116,57,80,41
69.13447,69.39116,62,80,41
70.60768,71.13223,57,80,41
71.143394,71.40009,49,80,41
71.143394,71.53402,57,80,41
71.27732,71.53402,64,80,41
72.750534,73.27509,57,80,41
73.28625,73.542946,50,80,41
73.28625,73.67687,57,80,41
73.42018,73.67687,65,80,41
74.893394,75.417946,50,80,41
75.42911,75.6858,50,80,41
75.42911,75.81973,55,80,41
75.563034,75.81973,67,80,41
77.03625,77.5608,55,80,41
77.57196,77.82866,52,80,41
77.57196,77.962585,60,80,41
77.70589,77.962585,67,80,41
79.17911,79.70366,60,100,41
79.71482,79.98267,72,100,41
79.98267,80.250534,69,100,41
80.250534,80.51839,65,100,41
80.51839,80.78625,69,100,41
80.78625,81.0541,60,100,41
81.0541,81.32196,64,100,41
81.32196,81.58981,62,100,41
81.58981,81.84651,60,100,41
81.85767,82.11437,57,100,41
81.85767,82.2483,65,100,41
81.9916,82.2483,72,100,41
82.9291,83.1858,62,100,41
82.9291,83.319725,70,100,41
83.063034,83.319725,79,100,41
84.00053,84.26673,61,80,41
84.00053,84.405624,69,80,41
84.13942,84.405624,76,80,41
84.55608,84.84454,69,120,41
84.84454,85.13301,64,80,41
85.13301,85.43301,61,74,41
85.43301,85.720505,64,67,41
85.73301,86.344986,57,60,41
86.35801,86.61471,50,80,41
86.35801,86.748634,57,80,41
86.491936,86.748634,62,80,41
87.96515,88.4897,57,80,41
88.50086,88.75756,49,80,41
88.50086,88.89149,57,80,41
88.634796,88.89149,64,80,41
90.10801,90.63256,57,80,41
90.64372,90.90041,50,80,41
90.64372,91.03435,57,80,41
90.77765,91.03435,65,80,41
92.25086,92.77541,50,80,41
92.786575,93.043274,50,80,41
92.786575,93.1772,55,80,41
92.9205,93.1772,67,80,41
94.393715,94.918274,55,80,41
94.929436,95.18613,52,80,41
94.929436,95.32006,60,80,41
95.06336,95.32006,67,80,41
96.536575,97.06113,60,100,41
97.07229,97.34015,72,100,41
97.34015,97.608,69,100,41
97.608,97.87586,65,100,41
97.87586,98.143715,69,100,41
98.143715,98.411575,60,100,41
98.411575,98.67943,64,100,41
98.67943,98.94729,62,100,41
98.94729,99.20399,60,100,41
99.21514,99.47184,57,100,41
99.21514,99.60577,65,100,41
99.349075,99.60577,72,100,41
100.286575,100.54327,62,100,41
100.286575,100.6772,70,100,41
100.4205,100.6772,79,100,41
101.358,101.62421,61,80,41
101.358,101.76309,69,80,41
101.49689,101.76309,76,80,41
101.91356,102.20202,69,120,41
102.20202,102.49048,64,80,41
102.49048,102.79048,61,74,41
102.79048,103.07798,64,67,41
103.09048,103.70246,57,60,41
103.71548,104.240036,50,80,41
104.25119,104.77575,57,100,41
104.7869,105.05476,69,100,41
105.05476,105.322624,65,95,41
105.322624,105.59048,62,90,41
105.59048,105.85834,65,85,41
105.85834,106.38289,64,80,41
106.92976,107.19762,60,120,41
107.19762,107.46548,55,75,41
107.46548,107.73334,52,70,41
107.73334,108.00119,55,65,41
108.00119,108.52574,48,60,41
108.5369,109.061455,60,100,41
109.07262,109.34048,72,100,41
109.34048,109.60833,67,95,41
109.60833,109.87619,64,90,41
109.87619,110.14405,67,85,41
110.14405,110.6686,69,80,41
111.21548,111.48333,64,120,41
111.48333,111.75119,61,80,41
111.75119,112.01904,57,60,41
112.01904,112.27574,61,60,41
112.2869,112.5436,50,80,41
112.2869,112.67753,57,80,41
112.42083,112.67753,62,80,41
112.82262,113.34717,62,80,41
112.82262,113.34717,66,80,41
113.35833,113.88288,62,80,41
113.35833,113.88288,68,80,41
113.89404,114.4186,52,80,41
114.429756,114.954315,54,80,41
114.96547,115.49003,62,80,41
114.96547,115.49003,69,80,41
115.50119,116.02574,65,80,41
115.50119,116.02574,71,80,41
116.0369,116.561455,56,80,41
116.57262,116.83882,57,80,41
116.57262,116.97771,65,80,41
116.7115,116.97771,74,80,41
117.68372,117.96017,57,80,41
117.68372,118.1044,64,80,41
117.82796,118.1044,69,80,41
118.83757,119.42507,53,80,41
118.83757,119.42507,62,80,41
120.037575,120.32507,62,120,41
120.33757,120.62507,57,74,41
120.63757,120.93705,53,67,41
120.95007,121.24955,57,60,41
121.26257,121.787125,50,80,41
121.79829,122.32284,57,100,41
122.334,122.60186,69,100,41
122.60186,122.86971,65,95,41
122.86971,123.13757,62,90,41
123.13757,123.405426,65,85,41
123.405426,123.929985,64,80,41
124.47685,124.74471,60,120,41
124.74471,125.01257,55,75,41
125.01257,125.280426,52,70,41
125.280426,125.54829,55,65,41
125.54829,126.07284,48,60,41
126.084,126.60855,60,100,41
126.61971,126.887566,72,100,41
126.887566,127.155426,67,95,41
127.155426,127.42329,64,90,41
127.42329,127.69114,67,85,41
127.69114,128.2157,69,80,41
128.76257,129.03043,64,120,41
129.03043,129.29828,61,80,41
129.29828,129.56613,57,60,41
129.56613,129.82283,61,60,41
129.834,130.0907,50,80,41
129.834,130.22462,57,80,41
129.96793,130.22462,62,80,41
130.3697,130.89426,62,80,41
130.3697,130.89426,66,80,41
130.90543,131.42998,62,80,41
130.90543,131.42998,68,80,41
131.44113,131.9657,52,80,41
131.97685,132.5014,54,80,41
132.51257,133.03712,62,80,41
132.51257,133.03712,69,80,41
133.04828,133.57283,65,80,41
133.04828,133.57283,71,80,41
133.584,134.10855,56,80,41
134.1197,134.38591,57,80,41
134.1197,134.5248,65,80,41
134.25859,134.5248,74,80,41
135.23082,135.50726,57,80,41
135.23082,135.65149,64,80,41
135.37505,135.65149,69,80,41
136.38466,136.94957,53,80,41
136.38466,136.94957,62,80,41
137.53851,137.83852,62,120,41
137.83852,138.1385,57,80,41
138.1385,138.4385,53,80,41
138.4385,138.72601,57,60,41
138.73851,139.24498,50,100,41
139.60059,139.76222,57,100,41
139.773,139.93463,50,100,41
139.773,139.93463,57,100,41
139.773,139.93463,62,100,41
139.9454,140.10704,62,100,41
140.11781,140.27946,62,100,41
140.29024,140.45187,62,100,41
140.46265,140.62428,64,100,41
140.63506,140.79669,65,100,41
140.80748,141.31393,64,100,41
141.66954,141.83118,57,100,41
141.84195,142.0036,49,100,41
141.84195,142.0036,57,100,41
141.84195,142.0036,64,100,41
142.01437,142.17601,64,100,41
142.18678,142.34842,64,100,41
142.35919,142.52083,64,100,41
142.53162,142.69325,65,100,41
142.70403,142.86566,67,100,41
142.87643,143.3829,65,100,41
143.73851,143.90015,57,100,41
143.91092,144.07256,50,100,41
143.91092,144.07256,57,100,41
143.91092,144.07256,65,100,41
144.08333,144.24498,65,100,41
144.25575,144.41739,65,100,41
144.42816,144.5898,65,100,41
144.60057,144.7622,67,100,41
144.773,144.93463,69,100,41
144.9454,145.10704,65,100,41
145.11781,145.27945,65,97,41
145.29024,145.45187,65,94,41
145.46265,145.62428,65,91,41
145.63506,145.79669,67,88,41
145.80746,145.96912,68,85,41
145.97989,146.14153,65,82,41
146.1523,146.31393,65,79,41
146.3247,146.48634,65,76,41
146.49713,146.65877,65,72,41
146.66954,146.83118,67,68,41
146.84195,147.00359,68,64,41
147.01437,147.17601,67,60,41
147.18678,147.34842,67,60,41
147.35919,147.52083,67,60,41
147.5316,147.69325,67,60,41
147.70403,147.86566,67,60,41
147.87643,148.03807,67,60,41
148.04884,148.21048,67,60,41
148.22127,148.3829,67,60,41
148.39368,148.55531,67,60,41
148.56609,148.72772,67,60,41
148.73851,148.90015,67,60,41
148.91092,149.07256,67,60,41
149.08333,149.24496,65,60,41
149.08333,149.24496,72,60,41
149.25574,149.41739,65,61,41
149.25574,149.41739,72,61,41
149.42816,149.5898,65,62,41
149.42816,149.5898,72,62,41
149.60057,149.7622,65,63,41
149.60057,149.7622,72,63,41
149.77298,149.93462,65,64,41
149.77298,149.93462,72,64,41
149.9454,150.10704,65,65,41
149.9454,150.10704,72,65,41
150.11781,150.27945,64,66,41
150.11781,150.27945,70,66,41
150.29022,150.45186,64,67,41
150.29022,150.45186,70,67,41
150.46265,150.62428,64,68,41
150.46265,150.62428,70,68,41
150.63506,150.79669,64,70,41
150.63506,150.79669,70,70,41
150.80746,150.9691,64,72,41
150.80746,150.9691,70,72,41
150.97989,151.14153,64,74,41
150.97989,151.14153,70,74,41
151.1523,151.31393,65,76,41
151.1523,151.31393,69,76,41
151.3247,151.48634,65,78,41
151.3247,151.48634,69,78,41
151.49712,151.65877,65,80,41
151.49712,151.65877,69,80,41
151.66954,151.83118,65,82,41
151.66954,151.83118,69,82,41
151.84195,152.00359,65,84,41
151.84195,152.00359,69,84,41
152.01436,152.176,65,86,41
152.01436,152.176,69,86,41
152.18678,152.34842,62,88,41
152.18678,152.34842,67,88,41
152.35919,152.52083,62,90,41
152.35919,152.52083,67,90,41
152.5316,152.69324,62,92,41
152.5316,152.69324,67,92,41
152.70403,152.86566,62,94,41
152.70403,152.86566,67,94,41
152.87643,153.03807,62,96,41
152.87643,153.03807,67,96,41
153.04884,153.21048,62,98,41
153.04884,153.21048,67,98,41
153.22125,153.38867,61,100,41
153.22125,153.38867,69,100,41
153.39983,153.56725,61,100,41
153.39983,153.56725,69,100,41
153.5784,153.74582,61,96,41
153.5784,153.74582,69,96,41
153.75697,153.92438,61,92,41
153.75697,153.92438,69,92,41
153.93555,154.10295,61,88,41
153.93555,154.10295,69,88,41
154.11412,154.28152,61,84,41
154.11412,154.28152,69,84,41
154.2927,154.56912,61,80,41
154.2927,154.56912,69,80,41
155.49461,156.00107,50,100,41
156.35667,156.51831,57,100,41
156.5291,156.69073,50,100,41
156.5291,156.69073,57,100,41
156.5291,156.69073,62,100,41
156.7015,156.86314,62,100,41
156.87392,157.03555,62,100,41
157.04633,157.20798,62,100,41
157.21875,157.38039,64,100,41
157.39116,157.5528,65,100,41
157.56357,158.07004,64,100,41
158.42564,158.58728,57,100,41
158.59805,158.75969,49,100,41
158.59805,158.75969,57,100,41
158.59805,158.75969,64,100,41
158.77048,158.93211,64,100,41
158.94289,159.10452,64,100,41
159.1153,159.27693,64,100,41
159.2877,159.44936,65,100,41
159.46013,159.62177,67,100,41
159.63254,160.139,65,100,41
160.49461,160.65625,57,100,41
160.66702,160.82866,50,100,41
160.66702,160.82866,57,100,41
160.66702,160.82866,65,100,41
160.83943,161.00107,65,100,41
161.01184,161.1735,65,100,41
161.18427,161.3459,65,100,41
161.35667,161.51831,67,100,41
161.52908,161.69072,69,100,41
161.7015,161.86314,65,100,41
161.87392,162.03555,65,97,41
162.04633,162.20796,65,94,41
162.21875,162.38039,65,91,41
162.39116,162.5528,67,88,41
162.56357,162.7252,68,85,41
162.73598,162.89763,65,82,41
162.9084,163.07004,65,79,41
163.08081,163.24245,65,76,41
163.25322,163.41486,65,72,41
163.42564,163.58728,67,68,41
163.59805,163.75969,68,64,41
163.77046,163.9321,67,60,41
163.94289,164.10452,67,60,41
164.1153,164.27693,67,60,41
164.2877,164.44934,67,60,41
164.46011,164.62177,67,60,41
164.63254,164.79417,67,60,41
164.80495,164.96658,67,60,41
164.97736,165.13899,67,60,41
165.14978,165.31142,67,60,41
165.32219,165.48383,67,60,41
165.4946,165.65623,67,60,41
165.66702,165.82866,67,60,41
165.83943,166.00107,65,60,41
165.83943,166.00107,72,60,41
166.01184,166.17348,65,61,41
166.01184,166.17348,72,61,41
166.18425,166.3459,65,62,41
166.18425,166.3459,72,62,41
166.35667,166.51831,65,63,41
166.35667,166.51831,72,63,41
166.52908,166.69072,65,64,41
166.52908,166.69072,72,64,41
166.70149,166.86313,65,65,41
166.70149,166.86313,72,65,41
166.87392,167.03555,64,66,41
166.87392,167.03555,70,66,41
167.04633,167.20796,64,67,41
167.04633,167.20796,70,67,41
167.21873,167.38037,64,68,41
167.21873,167.38037,70,68,41
167.39116,167.5528,64,70,41
167.39116,167.5528,70,70,41
167.56357,167.7252,64,72,41
167.56357,167.7252,70,72,41
167.73598,167.89761,64,74,41
167.73598,167.89761,70,74,41
167.9084,168.07004,65,76,41
167.9084,168.07004,69,76,41
168.08081,168.24245,65,78,41
168.08081,168.24245,69,78,41
168.25322,168.41486,65,80,41
168.25322,168.41486,69,80,41
168.42563,168.58728,65,82,41
168.42563,168.58728,69,82,41
168.59805,168.75969,65,84,41
168.59805,168.75969,69,84,41
168.77046,168.9321,65,86,41
168.77046,168.9321,69,86,41
168.94287,169.1045,62,88,41
168.94287,169.1045,67,88,41
169.1153,169.27693,62,90,41
169.1153,169.27693,67,90,41
169.2877,169.44934,62,92,41
169.2877,169.44934,67,92,41
169.46011,169.62175,62,94,41
169.46011,169.62175,67,94,41
169.63254,169.79417,62,96,41
169.63254,169.79417,67,96,41
169.80495,169.96658,62,98,41
169.80495,169.96658,67,98,41
169.97736,170.14478,61,100,41
169.97736,170.14478,69,100,41
170.15593,170.32333,61,100,41
170.15593,170.32333,69,100,41
170.3345,170.5019,61,96,41
170.3345,170.5019,69,96,41
170.51308,170.68048,61,92,41
170.51308,170.68048,69,92,41
170.69165,170.85905,61,88,41
170.69165,170.85905,69,88,41
170.87021,171.03763,61,84,41
170.87021,171.03763,69,84,41
171.04878,171.32523,61,80,41
171.04878,171.32523,69,80,41
173.28519,173.44682,50,100,41
173.28519,173.44682,57,100,41
173.45761,173.61925,50,100,41
173.45761,173.61925,57,100,41
173.63002,173.79166,50,100,41
173.63002,173.79166,57,100,41
173.80243,173.96407,50,100,41
173.80243,173.96407,57,100,41
173.97484,174.13649,62,100,41
174.14726,174.3089,65,100,41
174.31967,174.99855,67,100,41
175.00932,175.17096,64,100,41
175.18175,175.34338,60,100,41
175.35416,175.5158,55,100,41
175.52657,175.6882,55,100,41
175.69899,175.86063,55,100,41
175.8714,176.03304,55,100,41
176.04381,176.20544,60,100,41
176.21622,176.37787,64,100,41
176.38864,177.06752,67,100,41
177.0783,177.23993,64,100,41
177.2507,177.41234,60,100,41
177.42313,177.58476,55,100,41
177.59554,177.75717,55,100,41
177.76794,177.92958,55,100,41
177.94035,178.102,55,100,41
178.11278,178.27441,64,100,41
178.28519,178.44682,67,100,41
178.4576,179.13647,69,100,41
179.14726,179.3089,64,87,41
179.31967,179.48131,61,84,41
179.49208,179.65372,61,81,41
179.66449,179.82614,61,78,41
179.83691,179.99855,61,75,41
180.00932,180.17096,61,72,41
180.18173,180.34337,64,68,41
180.35416,180.5158,69,64,41
180.52657,180.6882,72,60,41
180.69897,180.86061,72,60,41
180.8714,181.03304,72,60,41
181.04381,181.20544,72,60,41
181.21622,181.37785,72,60,41
181.38863,181.55028,72,60,41
181.56105,181.72269,71,60,41
181.73346,181.8951,71,60,41
181.90587,182.0675,71,60,41
182.0783,182.23993,71,60,41
182.2507,182.41234,71,60,41
182.42311,182.58475,71,60,41
182.59554,182.75717,72,60,41
182.76794,182.92958,72,61,41
182.94035,183.10199,72,62,41
183.11276,183.27441,72,63,41
183.28519,183.44682,72,64,41
183.4576,183.61923,69,65,41
183.63,183.79164,71,66,41
183.80243,183.96407,71,67,41
183.97484,184.13647,71,68,41
184.14725,184.30888,71,70,41
184.31967,184.48131,71,72,41
184.49208,184.65372,71,74,41
184.66449,184.82613,69,76,41
184.83691,184.99855,69,78,41
185.00932,185.17096,69,80,41
185.18173,185.34337,69,82,41
185.35414,185.5158,69,84,41
185.52657,185.6882,65,86,41
185.69897,185.86061,69,88,41
185.87138,186.03302,69,90,41
186.04381,186.20544,69,92,41
186.21622,186.37785,69,94,41
186.38863,186.55026,69,96,41
186.56105,186.72269,64,98,41
186.73346,186.90707,57,100,41
186.73346,186.90707,65,100,41
186.91864,187.09225,57,100,41
186.91864,187.09225,65,100,41
187.10382,187.27744,57,100,41
187.10382,187.27744,65,100,41
187.28902,187.46262,57,100,41
187.28902,187.46262,65,100,41
187.4742,187.64781,57,100,41
187.4742,187.64781,65,100,41
187.65938,187.833,57,100,41
187.65938,187.833,65,100,41
187.84457,188.13206,57,100,41
187.84457,188.13206,65,100,41
190.13123,190.29286,50,100,41
190.13123,190.29286,57,100,41
190.30363,190.46527,50,100,41
190.30363,190.46527,57,100,41
190.47604,190.6377,50,100,41
190.47604,190.6377,57,100,41
190.64847,190.8101,50,100,41
190.64847,190.8101,57,100,41
190.82088,190.98251,62,100,41
190.99329,191.15492,65,100,41
191.16571,191.84459,67,100,41
191.85536,192.017,64,100,41
192.02777,192.1894,60,100,41
192.20018,192.36183,55,100,41
192.3726,192.53424,55,100,41
192.54501,192.70665,55,100,41
192.71742,192.87906,55,100,41
192.88985,193.05148,60,100,41
193.06226,193.22389,64,100,41
193.23466,193.91354,67,100,41
193.92433,194.08597,64,100,41
194.09674,194.25838,60,100,41
194.26915,194.43079,55,100,41
194.44156,194.60321,55,100,41
194.61398,194.77562,55,100,41
194.78639,194.94803,55,100,41
194.9588,195.12044,64,100,41
195.13123,195.29286,67,100,41
195.30363,195.98251,69,100,41
195.99329,196.15492,64,87,41
196.1657,196.32735,61,84,41
196.33812,196.49976,61,81,41
196.51053,196.67216,61,78,41
196.68294,196.84457,61,75,41
196.85536,197.017,61,72,41
197.02777,197.1894,64,68,41
197.20018,197.36182,69,64,41
197.3726,197.53424,72,60,41
197.54501,197.70665,72,60,41
197.71742,197.87906,72,60,41
197.88983,198.05148,72,60,41
198.06226,198.22389,72,60,41
198.23466,198.3963,72,60,41
198.40707,198.56871,71,60,41
198.5795,198.74113,71,60,41
198.7519,198.91354,71,60,41
198.92432,199.08595,71,60,41
199.09674,199.25838,71,60,41
199.26915,199.43079,71,60,41
199.44156,199.6032,72,60,41
199.61397,199.77562,72,61,41
199.78639,199.94803,72,62,41
199.9588,200.12044,72,63,41
200.13121,200.29285,72,64,41
200.30363,200.46527,69,65,41
200.47604,200.63768,71,66,41
200.64845,200.81009,71,67,41
200.82088,200.98251,71,68,41
200.99329,201.15492,71,70,41
201.1657,201.32733,71,72,41
201.3381,201.49976,71,74,41
201.51053,201.67216,69,76,41
201.68294,201.84457,69,78,41
201.85535,202.01698,69,80,41
202.02777,202.1894,69,82,41
202.20018,202.36182,69,84,41
202.37259,202.53423,65,86,41
202.54501,202.70665,69,88,41
202.71742,202.87906,69,90,41
202.88983,203.05147,69,92,41
203.06226,203.22389,69,94,41
203.23466,203.3963,69,96,41
203.40707,203.56871,64,98,41
203.57948,203.7469,57,100,41
203.57948,203.7469,65,100,41
203.75806,203.92548,57,100,41
203.75806,203.92548,65,100,41
203.93663,204.10405,57,100,41
203.93663,204.10405,65,100,41
204.1152,204.28261,57,100,41
204.1152,204.28261,65,100,41
204.29378,204.46118,57,100,41
204.29378,204.46118,65,100,41
204.47235,204.63976,57,100,41
204.47235,204.63976,65,100,41
204.65092,204.91711,57,100,41
204.65092,204.91711,65,100,41
205.76202,206.50162,62,60,41
205.76202,206.50162,69,60,41
207.51202,207.76202,70,60,41
207.76202,208.50162,69,60,41
209.51202,209.76202,66,60,41
209.76202,210.50162,67,60,41
211.51202,211.76202,66,60,41
211.76202,212.50162,67,60,41
213.51202,213.76202,71,100,41
213.76202,214.51202,72,100,41
214.51202,214.63702,72,100,41
214.76202,215.25162,64,100,41
215.51202,215.63702,76,100,41
215.76202,216.25162,65,100,41
216.51202,216.63702,77,100,41
216.76202,217.25162,67,100,41
217.51202,217.63702,79,100,41
217.76202,218.25162,69,100,41
218.51202,218.63702,81,100,41
218.76202,219.25162,71,100,41
219.51202,219.63702,83,100,41
219.76202,220.25162,81,100,41
220.76202,220.88702,81,100,41
220.88702,221.01202,80,94,41
221.01202,221.13702,81,88,41
221.13702,221.26202,77,81,41
221.26202,221.38702,76,74,41
221.38702,221.51202,74,67,41
221.51202,221.63702,73,60,41
221.63702,221.75162,70,60,41
221.76202,222.50162,62,60,41
221.76202,222.50162,69,60,41
223.51202,223.76202,70,60,41
223.76202,224.50162,69,60,41
225.51202,225.76202,66,60,41
225.76202,226.50162,67,60,41
227.51202,227.76202,66,60,41
227.76202,228.50162,67,60,41
229.51202,229.76202,71,100,41
229.76202,230.51202,72,100,41
230.51202,230.63702,72,100,41
230.76202,231.25162,64,100,41
231.51202,231.63702,76,100,41
231.76202,232.25162,65,100,41
232.51202,232.63702,77,100,41
232.76202,233.25162,67,100,41
233.51202,233.63702,79,100,41
233.76202,234.25162,69,100,41
234.51202,234.63702,81,100,41
234.76202,235.25162,71,100,41
235.51202,235.63702,83,100,41
235.76202,236.25162,81,100,41
236.76202,236.88702,81,100,41
236.88702,237.01202,80,94,41
237.01202,237.13702,81,88,41
237.13702,237.26202,77,81,41
237.26202,237.38702,76,74,41
237.38702,237.51202,74,67,41
237.51202,237.63702,73,60,41
237.63702,237.75162,70,60,41
237.76202,238.50162,62,60,41
237.76202,238.50162,69,60,41
240.51202,240.76202,67,60,41
240.76202,241.51202,68,80,41
241.51202,241.75162,74,100,41
241.76202,242.50162,67,100,41
244.51202,244.76202,69,60,41
244.76202,245.51202,70,80,41
245.51202,245.75162,76,100,41
245.76202,246.51202,69,100,41
246.51202,246.75162,66,100,41
246.76202,247.25162,62,100,41
246.76202,247.25162,74,100,41
247.51202,247.63702,68,100,41
247.76202,248.25162,62,100,41
247.76202,248.25162,74,100,41
248.51202,248.63702,69,100,41
248.76202,249.25162,62,100,41
248.76202,249.25162,74,100,41
249.51202,249.63702,71,100,41
249.76202,250.25162,62,100,41
249.76202,250.25162,74,100,41
250.76202,251.00162,57,100,41
250.76202,251.25162,64,100,41
250.88702,251.25162,73,100,41
251.76202,252.00987,50,100,41
251.76202,252.00987,57,100,41
251.89134,252.2685,65,100,41
251.89134,252.2685,74,100,41
253.88779,254.62737,62,60,41
253.88779,254.62737,69,60,41
256.6378,256.8878,67,60,41
256.8878,257.6378,68,80,41
257.6378,257.87735,74,100,41
257.8878,258.62735,67,100,41
260.6378,260.8878,69,60,41
260.8878,261.6378,70,80,41
261.6378,261.87735,76,100,41
261.8878,262.6378,69,100,41
262.6378,262.87735,66,100,41
262.8878,263.37735,62,100,41
262.8878,263.37735,74,100,41
263.6378,263.7628,68,100,41
263.8878,264.37735,62,100,41
263.8878,264.37735,74,100,41
264.6378,264.7628,69,100,41
264.8878,265.37735,62,100,41
264.8878,265.37735,74,100,41
265.6378,265.7628,71,100,41
265.8878,266.37735,62,100,41
265.8878,266.37735,74,100,41
266.8878,267.12735,57,100,41
266.8878,267.37735,64,100,41
267.0128,267.37735,73,100,41
267.8878,268.13562,50,100,41
267.8878,268.13562,57,100,41
268.0171,268.39426,65,100,41
268.0171,268.39426,74,100,41
270.01352,270.9064,62,80,41
271.08496,271.9778,66,80,41
272.1564,273.58496,67,80,41
273.76352,274.2881,67,80,41
274.29926,275.1921,66,80,41
275.37067,276.26352,69,80,41
276.4421,277.87067,71,80,41
278.04926,278.5738,69,80,41
278.58496,279.4778,67,80,41
279.65637,280.54926,67,80,41
280.7278,282.14523,67,80,41
282.15637,282.42422,66,80,41
282.51352,282.6921,64,80,41
282.87067,283.76352,62,80,41
283.9421,284.20996,62,80,41
284.20996,284.29922,64,80,41
284.29922,284.38852,62,80,41
284.38852,284.4778,61,80,41
284.4778,284.74567,62,80,41
284.74567,285.00235,64,80,41
285.01352,286.08496,64,80,41
286.08496,286.6095,57,60,41
286.62067,287.14523,57,100,41
287.15637,288.04922,62,100,41
288.2278,289.12067,66,100,41
289.29922,290.7278,67,100,41
290.90637,291.43094,67,100,41
291.44208,292.33496,66,100,41
292.51352,293.40637,69,100,41
293.58496,295.01352,71,100,41
295.19208,295.71664,69,100,41
295.7278,296.62067,67,100,41
296.79922,297.69208,67,100,41
297.87067,299.28806,67,100,41
299.29922,299.56708,66,100,41
299.65637,299.83493,64,100,41
300.01352,300.90637,62,100,41
301.08493,301.3528,62,100,41
301.3528,301.44208,64,100,41
301.44208,301.53137,62,100,41
301.53137,301.62067,61,100,41
301.62067,301.88852,62,100,41
301.88852,302.1452,64,100,41
302.15637,303.2278,64,100,41
303.2278,303.75235,57,60,41
303.76352,304.28806,69,80,41
304.29922,305.19208,69,80,41
305.37067,306.26352,71,80,41
306.44208,307.87067,72,80,41
308.04922,308.5738,72,83,41
308.58493,309.47778,72,84,41
309.65637,310.54922,73,86,41
310.72778,312.15637,74,88,41
312.33493,312.8595,74,91,41
312.87067,313.76352,74,92,41
313.94208,314.83493,75,94,41
315.01352,315.90637,76,96,41
316.08493,316.97778,77,98,41
317.15637,317.69208,78,100,41
317.69208,318.21664,74,100,41
318.22778,318.49564,73,100,41
318.49564,318.56262,74,90,41
318.56262,318.62958,73,88,41
318.62958,318.69653,71,86,41
318.69653,318.76352,73,84,41
318.76352,319.03137,74,82,41
319.03137,319.28806,76,71,41
319.29922,320.19208,74,60,41
321.44208,321.97778,66,60,41
321.97778,322.5135,67,60,41
322.5135,323.04922,66,60,41
323.04922,323.58493,65,60,41
323.58493,324.12064,64,60,41
324.12064,324.65637,62,62,41
324.65637,325.19208,64,64,41
325.19208,325.7166,60,66,41
325.72778,326.2635,69,68,41
326.2635,326.79922,70,70,41
326.79922,327.33493,69,72,41
327.33493,327.87064,67,74,41
327.87064,328.40637,66,76,41
328.40637,328.94208,64,78,41
328.94208,329.47778,66,80,41
329.47778,330.00235,60,82,41
330.0135,330.54922,59,84,41
330.54922,331.08493,60,86,41
331.08493,331.62064,59,88,41
331.62064,332.15634,60,90,41
332.15634,332.69208,59,92,41
332.69208,333.22778,61,94,41
333.22778,333.7635,59,96,41
333.7635,334.28806,61,98,41
334.29922,334.85477,62,100,41
334.85477,335.4103,66,100,41
335.4103,335.96588,69,100,41
335.96588,336.52142,67,100,41
336.52142,337.09836,66,100,41
337.09836,337.6753,62,80,41
337.6753,338.2628,57,60,41
338.87527,339.62527,62,60,41
338.87527,339.62527,69,60,41
339.62527,339.86487,71,60,41
339.87527,340.12527,69,60,41
339.87527,340.36487,62,60,41
340.12527,340.37527,71,60,41
340.37527,340.62527,73,60,41
340.62527,340.86487,74,60,41
340.87527,341.62527,62,60,41
340.87527,341.62527,69,60,41
341.62527,341.86487,71,60,41
341.87527,342.12527,69,60,41
341.87527,342.36487,62,60,41
342.12527,342.37527,73,60,41
342.37527,342.62527,74,60,41
342.62527,342.86487,76,60,41
342.87527,343.62527,62,60,41
342.87527,343.62527,69,60,41
343.62527,343.86487,71,60,41
343.87527,344.12527,69,60,41
343.87527,344.36487,62,60,41
344.12527,344.37527,72,60,41
344.37527,344.62527,74,60,41
344.62527,344.86487,76,60,41
344.87527,345.12527,74,60,41
344.87527,345.36487,62,60,41
345.12527,345.37527,72,60,41
345.37527,345.62527,74,60,41
345.62527,345.86487,71,60,41
345.87527,346.12527,74,60,41
345.87527,346.36487,62,60,41
346.12527,346.37527,69,60,41
346.37527,346.62527,74,60,41
346.62527,346.86487,67,60,41
346.87527,347.62527,62,60,41
346.87527,347.62527,73,60,41
347.62527,347.86487,74,60,41
347.87527,348.12527,71,60,41
347.87527,348.36487,62,60,41
348.12527,348.37527,76,60,41
348.37527,348.62527,78,60,41
348.62527,348.86487,79,60,41
348.87527,349.62527,62,60,41
348.87527,349.62527,69,60,41
349.62527,349.86487,71,60,41
349.87527,350.12527,67,60,41
350.12527,350.37527,73,60,41
350.37527,350.62527,74,60,41
350.62527,350.86487,76,60,41
350.87527,351.62527,66,60,41
351.62527,351.86487,67,67,41
351.87527,352.62527,65,69,41
352.62527,352.86487,67,77,41
352.87527,353.1339,64,80,41
353.1339,353.39252,66,80,41
353.39252,353.65115,67,80,41
353.65115,353.90976,68,80,41
353.90976,354.1776,69,80,41
354.1776,354.44547,70,70,41
354.44547,354.72327,73,60,41
354.72327,354.98947,71,60,41
355.00104,355.75104,62,60,41
355.00104,355.75104,69,60,41
355.75104,355.9906,71,60,41
356.00104,356.25104,69,60,41
356.00104,356.4906,62,60,41
356.25104,356.50104,71,60,41
356.50104,356.75104,73,60,41
356.75104,356.9906,74,60,41
357.00104,357.75104,62,60,41
357.00104,357.75104,69,60,41
357.75104,357.9906,71,60,41
358.00104,358.25104,69,60,41
358.00104,358.4906,62,60,41
358.25104,358.50104,73,60,41
358.50104,358.75104,74,60,41
358.75104,358.9906,76,60,41
359.00104,359.75104,62,60,41
359.00104,359.75104,69,60,41
359.75104,359.9906,71,60,41
360.00104,360.25104,69,60,41
360.00104,360.4906,62,60,41
360.25104,360.50104,72,60,41
360.50104,360.75104,74,60,41
360.75104,360.9906,76,60,41
361.00104,361.25104,74,60,41
361.00104,361.4906,62,60,41
361.25104,361.50104,72,60,41
361.50104,361.75104,74,60,41
361.75104,361.9906,71,60,41
362.00104,362.25104,74,60,41
362.00104,362.4906,62,60,41
362.25104,362.50104,69,60,41
362.50104,362.75104,74,60,41
362.75104,362.9906,67,60,41
363.00104,363.75104,62,60,41
363.00104,363.75104,73,60,41
363.75104,363.9906,74,60,41
364.00104,364.25104,71,60,41
364.00104,364.4906,62,60,41
364.25104,364.50104,76,60,41
364.50104,364.75104,78,60,41
364.75104,364.9906,79,60,41
365.00104,365.75104,62,60,41
365.00104,365.75104,69,60,41
365.75104,365.9906,71,60,41
366.00104,366.25104,67,60,41
366.25104,366.50104,73,60,41
366.50104,366.75104,74,60,41
366.75104,366.9906,76,60,41
367.00104,367.75104,66,60,41
367.75104,367.9906,67,67,41
368.00104,368.75104,65,69,41
368.75104,368.9906,67,77,41
369.00104,369.25964,64,80,41
369.25964,369.51828,66,80,41
369.51828,369.7769,67,80,41
369.7769,370.03552,68,80,41
370.03552,370.30338,69,80,41
370.30338,370.57123,70,70,41
370.57123,370.849,73,60,41
370.849,371.1152,71,60,41
371.12677,371.87677,69,60,41
371.87677,372.11636,71,60,41
372.12677,372.37677,69,60,41
372.37677,372.62677,71,70,41
372.62677,372.87677,72,80,41
372.87677,373.11636,74,90,41
373.12677,373.36636,60,100,41
373.12677,373.87677,67,100,41
373.25177,373.87677,76,100,41
373.87677,374.11636,67,80,41
374.12677,374.87677,76,80,41
374.87677,375.11636,67,80,41
375.12677,375.87677,67,60,41
375.87677,376.11636,69,60,41
376.12677,376.37677,67,68,41
376.37677,376.62677,69,76,41
376.62677,376.87677,70,84,41
376.87677,377.11636,72,92,41
377.12677,377.36636,58,100,41
377.12677,377.87677,65,100,41
377.25177,377.87677,74,100,41
377.87677,378.11636,65,100,41
378.12677,378.87677,74,80,41
378.87677,379.11636,65,60,41
379.12677,379.87677,66,40,41
379.87677,380.11636,67,40,41
380.12677,380.37677,69,40,41
380.37677,380.62677,67,40,41
380.62677,380.87677,69,40,41
380.87677,381.11636,67,40,41
381.12677,381.87677,69,40,41
381.87677,382.11636,67,40,41
382.12677,382.37677,69,40,41
382.37677,382.62677,67,40,41
382.62677,382.87677,69,40,41
382.87677,383.11636,66,40,41
383.12677,383.37677,67,40,41
383.37677,383.62677,64,40,41
383.62677,383.87677,66,40,41
383.87677,384.11636,62,40,41
384.12677,384.9601,64,40,41
385.12677,385.3854,66,40,41
385.3854,385.644,57,40,41
385.644,385.90265,54,43,41
385.90265,386.16125,57,46,41
386.16125,386.4291,50,49,41
386.4291,386.697,57,52,41
386.697,386.97476,62,56,41
386.97476,387.24097,66,60,41
387.25253,388.00253,69,60,41
388.00253,388.24213,71,60,41
388.25253,388.50253,69,60,41
388.50253,388.75253,71,70,41
388.75253,389.00253,72,80,41
389.00253,389.24213,74,90,41
389.25253,389.49213,60,100,41
389.25253,390.00253,67,100,41
389.37753,390.00253,76,100,41
390.00253,390.24213,67,80,41
390.25253,391.00253,76,80,41
391.00253,391.24213,67,80,41
391.25253,392.00253,67,60,41
392.00253,392.24213,69,60,41
392.25253,392.50253,67,68,41
392.50253,392.75253,69,76,41
392.75253,393.00253,70,84,41
393.00253,393.24213,72,92,41
393.25253,393.49213,58,100,41
393.25253,394.00253,65,100,41
393.37753,394.00253,74,100,41
394.00253,394.24213,65,100,41
394.25253,395.00253,74,80,41
395.00253,395.24213,65,60,41
395.25253,396.00253,66,40,41
396.00253,396.24213,67,40,41
396.25253,396.50253,69,40,41
396.50253,396.75253,67,40,41
396.75253,397.00253,69,40,41
397.00253,397.24213,67,40,41
397.25253,398.00253,69,40,41
398.00253,398.24213,67,40,41
398.25253,398.50253,69,40,41
398.50253,398.75253,67,40,41
398.75253,399.00253,69,40,41
399.00253,399.24213,66,40,41
399.25253,399.50253,67,40,41
399.50253,399.75253,64,40,41
399.75253,400.00253,66,40,41
400.00253,400.24213,62,40,41
400.25253,401.08588,64,40,41
401.25253,401.50922,66,40,41
401.5204,401.7771,57,40,41
401.78824,402.04495,54,40,41
402.0561,402.3128,57,40,41
402.32397,402.8485,50,40,41
411.96683,412.85968,55,60,41
413.03824,413.9311,55,60,41
414.10968,414.63422,53,60,41
414.6454,415.1811,48,60,41
415.1811,415.7168,50,60,41
415.7168,416.25253,58,60,41
416.25253,416.78824,57,60,41
416.78824,417.32394,48,60,41
417.32394,417.85968,50,60,41
417.85968,418.38422,52,60,41
418.3954,419.28824,52,60,41
419.4668,420.35968,52,60,41
420.53824,421.4311,53,60,41
421.60968,422.50253,53,60,41
422.6811,423.57394,55,60,41
423.75253,424.6454,55,60,41
424.82394,425.7168,55,60,41
425.8954,426.78824,55,70,41
426.9668,427.85965,61,80,41
428.03824,428.9311,61,90,41
429.10965,429.6454,62,100,41
429.6454,430.1811,60,100,41
430.1811,430.7168,59,100,41
430.7168,431.24136,64,100,41
431.25253,431.78824,62,100,41
431.78824,432.32394,60,100,41
432.32394,432.85965,59,100,41
432.85965,433.38422,64,100,41
433.3954,433.9311,62,80,41
433.9311,434.4668,57,80,41
434.4668,435.35965,61,60,41
435.53824,436.46414,62,60,41
436.64935,437.57526,62,60,41
449.42712,449.566,57,60,41
449.7049,449.77435,58,60,41
449.84378,449.91324,57,60,41
449.91324,449.98267,58,60,41
449.98267,450.52664,60,60,41
450.53824,450.67712,58,60,41
450.816,450.92017,57,60,41
451.02435,451.09378,58,60,41
451.09378,452.0197,62,60,41
453.87155,454.01044,57,60,41
454.14935,454.21878,58,60,41
454.28824,454.35767,57,60,41
454.35767,454.42712,58,60,41
454.42712,454.9711,60,60,41
454.98267,455.12155,58,60,41
455.26044,455.36462,57,60,41
455.46878,455.53824,58,60,41
455.53824,456.46414,62,60,41
458.316,458.4549,66,60,41
458.59378,458.66324,67,63,41
458.73267,458.80212,66,64,41
458.80212,458.87155,67,64,41
458.87155,459.41553,69,64,41
459.42712,459.566,67,72,41
459.7049,459.84378,66,76,41
459.98267,460.52664,67,80,41
460.53824,460.67712,64,80,41
460.816,460.88544,66,80,41
460.9549,461.02435,64,80,41
461.02435,461.09378,66,80,41
461.09378,461.63776,67,80,41
461.64935,461.78824,66,80,41
461.92712,462.066,64,80,41
462.2049,462.7698,62,80,41
462.78183,463.35873,57,108,41
463.35873,464.32028,59,72,41
464.51257,465.1001,57,64,41
465.11258,465.7126,54,92,41
465.7126,466.7126,55,56,41
466.9126,467.99954,54,48,41
468.21692,469.46692,52,39,41
469.71692,473.21692,54,30,41
4.0,4.8333335,53,60,41
4.0,4.8333335,62,60,41
5.0,5.8333335,53,60,41
5.0,5.8333335,62,60,41
6.0,6.8333335,57,60,41
6.0,6.8333335,64,60,41
7.0,7.8333335,57,62,41
7.0,7.8333335,64,62,41
8.0,8.833333,57,64,41
8.0,8.833333,65,64,41
9.0,9.833333,62,66,41
9.0,9.833333,65,66,41
10.0,10.833333,62,68,41
10.0,10.833333,67,68,41
11.0,11.833333,62,71,41
11.0,11.833333,67,71,41
12.0,12.833333,64,74,41
12.0,12.833333,67,74,41
13.0,13.833333,64,77,41
13.0,13.833333,67,77,41
14.0,14.489583,65,80,41
14.0,14.489583,69,80,41
14.5,15.0,60,80,41
15.0,15.5,62,80,41
15.5,15.989583,58,80,41
16.0,16.51724,57,80,41
16.51724,17.023706,60,85,41
17.034481,17.551723,62,90,41
17.551723,18.058187,64,95,41
18.068964,18.861374,57,100,41
18.068964,18.861374,64,100,41
19.140392,19.932802,57,100,41
19.140392,19.932802,64,100,41
20.21182,21.045153,53,60,41
20.21182,21.045153,62,60,41
21.21182,22.045153,53,60,41
21.21182,22.045153,62,60,41
22.21182,23.045153,57,60,41
22.21182,23.045153,64,60,41
23.21182,24.045153,57,62,41
23.21182,24.045153,64,62,41
24.21182,25.045153,53,64,41
24.21182,25.045153,62,64,41
25.21182,26.045153,53,66,41
25.21182,26.045153,62,66,41
26.21182,27.045153,55,68,41
26.21182,27.045153,62,68,41
27.21182,28.045153,55,71,41
27.21182,28.045153,62,71,41
28.21182,29.045153,55,74,41
28.21182,29.045153,64,74,41
29.21182,30.045153,60,77,41
29.21182,30.045153,64,77,41
30.21182,30.701403,60,80,41
30.21182,30.701403,65,80,41
30.71182,31.21182,60,80,41
31.21182,31.71182,62,80,41
31.71182,32.201405,58,80,41
32.21182,32.72906,57,80,41
32.72906,33.235527,60,85,41
33.246304,33.763542,62,90,41
33.763542,34.270008,64,95,41
34.280785,35.073193,57,100,41
34.280785,35.073193,64,100,41
35.35221,36.144623,57,100,41
35.35221,36.144623,64,100,41
36.42364,37.256973,57,60,41
36.42364,37.256973,62,60,41
37.42364,38.256973,57,60,41
37.42364,38.256973,62,60,41
38.42364,39.256973,60,60,41
38.42364,39.256973,64,60,41
39.42364,40.256973,60,62,41
39.42364,40.256973,64,62,41
40.42364,41.256973,64,64,41
40.42364,41.256973,67,64,41
41.42364,42.256973,64,66,41
41.42364,42.256973,67,66,41
42.42364,43.256973,64,68,41
42.42364,43.256973,69,68,41
43.42364,44.256973,64,71,41
43.42364,44.256973,69,71,41
44.42364,45.256973,66,74,41
44.42364,45.256973,69,74,41
45.42364,46.256973,68,77,41
45.42364,46.256973,74,77,41
46.42364,47.256973,69,80,41
46.42364,47.256973,74,80,41
47.42364,48.256973,71,80,41
47.42364,48.256973,74,80,41
48.42364,49.256973,65,80,41
48.42364,49.256973,74,80,41
49.42364,49.92364,64,90,41
49.42364,49.92364,67,90,41
49.92364,50.413223,61,95,41
49.92364,50.413223,69,95,41
50.42364,50.663223,57,100,41
50.42364,51.163223,62,100,41
50.54864,51.163223,69,100,41
51.42364,51.663223,57,100,41
51.42364,51.788223,62,100,41
51.54864,51.788223,69,100,41
52.42364,53.256973,57,60,41
52.42364,53.256973,62,60,41
53.42364,54.256973,57,60,41
53.42364,54.256973,62,60,41
54.42364,55.256973,60,62,41
54.42364,55.256973,64,62,41
55.42364,56.256973,60,64,41
55.42364,56.256973,64,64,41
56.42364,57.256973,60,66,41
56.42364,57.256973,67,66,41
57.42364,58.256973,60,68,41
57.42364,58.256973,67,68,41
58.42364,59.256973,61,70,41
58.42364,59.256973,69,70,41
59.42364,59.913223,61,72,41
59.42364,59.913223,69,72,41
59.92364,60.42364,69,73,41
60.42364,60.94088,74,74,41
60.94088,61.458122,72,75,41
61.458122,61.975365,71,76,41
61.975365,62.481827,76,78,41
62.492603,63.028316,74,80,41
63.028316,63.564034,72,80,41
63.564034,64.09975,71,80,41
64.09975,64.6243,76,80,41
64.63546,65.17117,74,80,41
65.17117,65.695724,69,85,41
65.70689,66.23144,70,90,41
66.2426,66.4993,69,95,41
66.51046,66.76716,67,97,41
66.77831,67.04452,50,100,41
66.77831,67.600075,57,100,41
66.917206,67.600075,65,100,41
67.88943,68.15563,50,100,41
67.88943,68.29452,57,100,41
68.02831,68.29452,65,100,41
77.03625,77.5608,55,100,41
77.57196,77.83982,67,100,41
77.83982,78.10767,64,100,41
78.10767,78.375534,60,100,41
78.375534,78.64339,64,100,41
78.64339,78.91125,55,100,41
78.91125,79.17911,58,100,41
79.17911,79.44696,57,100,41
79.44696,79.70366,55,100,41
79.71482,79.97151,57,80,41
79.71482,80.105446,65,80,41
79.84875,80.105446,72,80,41
81.32196,81.84651,58,80,41
81.85767,82.11437,57,80,41
81.85767,82.2483,65,80,41
81.9916,82.2483,72,80,41
82.9291,83.1858,62,80,41
82.9291,83.319725,70,80,41
83.063034,83.319725,79,80,41
84.00053,84.26673,61,80,41
84.00053,84.405624,69,80,41
84.13942,84.405624,76,80,41
84.55608,84.84454,69,120,41
84.84454,85.13301,64,80,41
85.13301,85.43301,61,74,41
85.43301,85.720505,64,67,41
85.73301,86.344986,57,60,41
94.393715,94.918274,55,100,41
94.929436,95.19729,67,100,41
95.19729,95.46515,64,100,41
95.46515,95.733,60,100,41
95.733,96.00086,64,100,41
96.00086,96.268715,55,100,41
96.268715,96.536575,58,100,41
96.536575,96.80443,57,100,41
96.80443,97.06113,55,100,41
97.07229,97.32899,57,80,41
97.07229,97.46291,65,80,41
97.206215,97.46291,72,80,41
98.67943,99.20399,58,80,41
99.21514,99.47184,57,80,41
99.21514,99.60577,65,80,41
99.349075,99.60577,72,80,41
100.286575,100.54327,62,80,41
100.286575,100.6772,70,80,41
100.4205,100.6772,79,80,41
101.358,101.62421,61,80,41
101.358,101.76309,69,80,41
101.49689,101.76309,76,80,41
101.91356,102.20202,69,120,41
102.20202,102.49048,64,80,41
102.49048,102.79048,61,74,41
102.79048,103.07798,64,67,41
103.09048,103.70246,57,60,41
103.71548,104.240036,50,80,41
105.322624,105.847176,65,80,41
105.85834,106.11503,55,80,41
105.85834,106.24896,64,80,41
105.99226,106.24896,72,80,41
107.46548,107.99003,48,80,41
108.00119,108.52574,52,80,41
108.00119,108.52574,60,80,41
109.60833,110.13289,67,80,41
110.14405,110.40074,61,80,41
110.14405,110.534676,69,80,41
110.27798,110.534676,76,80,41
111.75119,112.27574,57,80,41
112.2869,112.5436,50,80,41
112.2869,112.67753,60,80,41
112.42083,112.67753,66,80,41
113.35833,113.88288,52,80,41
113.89404,114.4186,62,80,41
113.89404,114.4186,68,80,41
114.429756,114.686455,54,80,41
114.429756,114.686455,57,80,41
114.56369,114.82038,62,80,41
114.56369,114.82038,69,80,41
115.50119,116.02574,56,80,41
116.0369,116.561455,65,80,41
116.0369,116.561455,71,80,41
116.57262,116.83882,57,80,41
116.57262,116.97771,65,80,41
116.7115,116.97771,74,80,41
117.68372,117.96017,57,80,41
117.68372,118.1044,64,80,41
117.82796,118.1044,69,80,41
118.83757,119.12507,50,80,41
118.83757,119.27507,57,80,41
118.98757,119.27507,62,80,41
120.037575,120.32507,62,120,41
120.33757,120.62507,57,74,41
120.63757,120.93705,53,67,41
120.95007,121.24955,57,60,41
121.26257,121.787125,50,80,41
122.86971,123.394264,65,80,41
123.405426,123.662125,55,80,41
123.405426,123.79605,64,80,41
123.53936,123.79605,72,80,41
125.01257,125.537125,48,80,41
125.54829,126.07284,52,80,41
125.54829,126.07284,60,80,41
127.155426,127.67998,67,80,41
127.69114,127.94784,61,80,41
127.69114,128.08177,69,80,41
127.825066,128.08177,76,80,41
129.29828,129.82283,57,80,41
129.834,130.0907,50,80,41
129.834,130.22462,60,80,41
129.96793,130.22462,66,80,41
130.90543,131.42998,52,80,41
131.44113,131.9657,62,80,41
131.44113,131.9657,68,80,41
131.97685,132.23355,54,80,41
131.97685,132.23355,57,80,41
132.11078,132.36748,62,80,41
132.11078,132.36748,69,80,41
133.04828,133.57283,56,80,41
133.584,134.10855,65,80,41
133.584,134.10855,71,80,41
134.1197,134.38591,57,80,41
134.1197,134.5248,65,80,41
134.25859,134.5248,74,80,41
135.23082,135.50726,57,80,41
135.23082,135.65149,64,80,41
135.37505,135.65149,69,80,41
136.38466,136.6611,50,80,41
136.38466,136.80534,57,80,41
136.5289,136.80534,62,80,41
137.53851,137.83852,62,120,41
137.83852,138.1385,57,80,41
138.1385,138.4385,53,80,41
138.4385,138.72601,57,60,41
138.73851,139.24498,50,100,41
139.60059,139.76222,57,100,41
139.773,139.93463,53,100,41
139.9454,140.10704,53,100,41
140.11781,140.27946,53,100,41
140.29024,140.45187,53,100,41
140.46265,140.62428,57,100,41
140.63506,140.79669,62,100,41
140.80748,141.31393,57,100,41
141.66954,141.83118,57,100,41
141.84195,142.0036,57,100,41
142.01437,142.17601,57,100,41
142.18678,142.34842,57,100,41
142.35919,142.52083,57,100,41
142.53162,142.69325,62,100,41
142.70403,142.86566,64,100,41
142.87643,143.3829,62,100,41
143.73851,143.90015,57,100,41
143.91092,144.07256,50,100,41
143.91092,144.07256,57,100,41
143.91092,144.07256,62,100,41
144.08333,144.24498,62,100,41
144.25575,144.41739,62,100,41
144.42816,144.5898,62,100,41
144.60057,144.7622,64,100,41
144.773,144.93463,65,100,41
144.9454,145.10704,62,100,41
145.11781,145.27945,62,97,41
145.29024,145.45187,62,94,41
145.46265,145.62428,62,91,41
145.63506,145.79669,64,88,41
145.80746,145.96912,65,85,41
145.97989,146.14153,62,82,41
146.1523,146.31393,62,79,41
146.3247,146.48634,62,76,41
146.49713,146.65877,62,72,41
146.66954,146.83118,64,68,41
146.84195,147.00359,65,64,41
147.01437,147.17601,64,60,41
147.01437,147.17601,72,60,41
147.18678,147.34842,64,60,41
147.18678,147.34842,72,60,41
147.35919,147.52083,64,60,41
147.35919,147.52083,72,60,41
147.5316,147.69325,64,60,41
147.5316,147.69325,72,60,41
147.70403,147.86566,64,60,41
147.70403,147.86566,72,60,41
147.87643,148.03807,64,60,41
147.87643,148.03807,72,60,41
148.04884,148.21048,64,60,41
148.04884,148.21048,72,60,41
148.22127,148.3829,64,60,41
148.22127,148.3829,72,60,41
148.39368,148.55531,64,60,41
148.39368,148.55531,72,60,41
148.56609,148.72772,64,60,41
148.56609,148.72772,72,60,41
148.73851,148.90015,64,60,41
148.73851,148.90015,72,60,41
148.91092,149.07256,64,60,41
148.91092,149.07256,72,60,41
149.08333,149.24496,60,60,41
149.25574,149.41739,60,61,41
149.42816,149.5898,60,62,41
149.60057,149.7622,60,63,41
149.77298,149.93462,60,64,41
149.9454,150.10704,60,65,41
150.11781,150.27945,60,66,41
150.29022,150.45186,60,67,41
150.46265,150.62428,60,68,41
150.63506,150.79669,60,70,41
150.80746,150.9691,60,72,41
150.97989,151.14153,60,74,41
151.1523,151.31393,60,76,41
151.3247,151.48634,60,78,41
151.49712,151.65877,60,80,41
151.66954,151.83118,60,82,41
151.84195,152.00359,60,84,41
152.01436,152.176,60,86,41
152.18678,152.34842,58,88,41
152.35919,152.52083,58,90,41
152.5316,152.69324,58,92,41
152.70403,152.86566,58,94,41
152.87643,153.03807,58,96,41
153.04884,153.21048,58,98,41
153.22125,153.38867,57,100,41
153.22125,153.38867,64,100,41
153.39983,153.56725,57,100,41
153.39983,153.56725,64,100,41
153.5784,153.74582,57,96,41
153.5784,153.74582,64,96,41
153.75697,153.92438,57,92,41
153.75697,153.92438,64,92,41
153.93555,154.10295,57,88,41
153.93555,154.10295,64,88,41
154.11412,154.28152,57,84,41
154.11412,154.28152,64,84,41
154.2927,154.56912,57,80,41
154.2927,154.56912,64,80,41
155.49461,156.00107,50,100,41
156.35667,156.51831,57,100,41
156.5291,156.69073,53,100,41
156.7015,156.86314,53,100,41
156.87392,157.03555,53,100,41
157.04633,157.20798,53,100,41
157.21875,157.38039,57,100,41
157.39116,157.5528,62,100,41
157.56357,158.07004,57,100,41
158.42564,158.58728,57,100,41
158.59805,158.75969,57,100,41
158.77048,158.93211,57,100,41
158.94289,159.10452,57,100,41
159.1153,159.27693,57,100,41
159.2877,159.44936,62,100,41
159.46013,159.62177,64,100,41
159.63254,160.139,62,100,41
160.49461,160.65625,57,100,41
160.66702,160.82866,50,100,41
160.66702,160.82866,57,100,41
160.66702,160.82866,62,100,41
160.83943,161.00107,62,100,41
161.01184,161.1735,62,100,41
161.18427,161.3459,62,100,41
161.35667,161.51831,64,100,41
161.52908,161.69072,65,100,41
161.7015,161.86314,62,100,41
161.87392,162.03555,62,97,41
162.04633,162.20796,62,94,41
162.21875,162.38039,62,91,41
162.39116,162.5528,64,88,41
162.56357,162.7252,65,85,41
162.73598,162.89763,62,82,41
162.9084,163.07004,62,79,41
163.08081,163.24245,62,76,41
163.25322,163.41486,62,72,41
163.42564,163.58728,64,68,41
163.59805,163.75969,65,64,41
163.77046,163.9321,64,60,41
163.77046,163.9321,72,60,41
163.94289,164.10452,64,60,41
163.94289,164.10452,72,60,41
164.1153,164.27693,64,60,41
164.1153,164.27693,72,60,41
164.2877,164.44934,64,60,41
164.2877,164.44934,72,60,41
164.46011,164.62177,64,60,41
164.46011,164.62177,72,60,41
164.63254,164.79417,64,60,41
164.63254,164.79417,72,60,41
164.80495,164.96658,64,60,41
164.80495,164.96658,72,60,41
164.97736,165.13899,64,60,41
164.97736,165.13899,72,60,41
165.14978,165.31142,64,60,41
165.14978,165.31142,72,60,41
165.32219,165.48383,64,60,41
165.32219,165.48383,72,60,41
165.4946,165.65623,64,60,41
165.4946,165.65623,72,60,41
165.66702,165.82866,64,60,41
165.66702,165.82866,72,60,41
165.83943,166.00107,60,60,41
166.01184,166.17348,60,61,41
166.18425,166.3459,60,62,41
166.35667,166.51831,60,63,41
166.52908,166.69072,60,64,41
166.70149,166.86313,60,65,41
166.87392,167.03555,60,66,41
167.04633,167.20796,60,67,41
167.21873,167.38037,60,68,41
167.39116,167.5528,60,70,41
167.56357,167.7252,60,72,41
167.73598,167.89761,60,74,41
167.9084,168.07004,60,76,41
168.08081,168.24245,60,78,41
168.25322,168.41486,60,80,41
168.42563,168.58728,60,82,41
168.59805,168.75969,60,84,41
168.77046,168.9321,60,86,41
168.94287,169.1045,58,88,41
169.1153,169.27693,58,90,41
169.2877,169.44934,58,92,41
169.46011,169.62175,58,94,41
169.63254,169.79417,58,96,41
169.80495,169.96658,58,98,41
169.97736,170.14478,57,100,41
169.97736,170.14478,64,100,41
170.15593,170.32333,57,100,41
170.15593,170.32333,64,100,41
170.3345,170.5019,57,96,41
170.3345,170.5019,64,96,41
170.51308,170.68048,57,92,41
170.51308,170.68048,64,92,41
170.69165,170.85905,57,88,41
170.69165,170.85905,64,88,41
170.87021,171.03763,57,84,41
170.87021,171.03763,64,84,41
171.04878,171.32523,57,80,41
171.04878,171.32523,64,80,41
173.28519,173.44682,53,100,41
173.45761,173.61925,53,100,41
173.63002,173.79166,53,100,41
173.80243,173.96407,53,100,41
173.97484,174.13649,57,100,41
174.14726,174.3089,62,100,41
174.31967,174.99855,64,100,41
175.00932,175.17096,60,100,41
175.18175,175.34338,55,100,41
175.35416,175.5158,52,100,41
175.52657,175.6882,52,100,41
175.69899,175.86063,52,100,41
175.8714,176.03304,52,100,41
176.04381,176.20544,55,100,41
176.21622,176.37787,60,100,41
176.38864,177.06752,64,100,41
177.0783,177.23993,60,100,41
177.2507,177.41234,55,100,41
177.42313,177.58476,52,100,41
177.59554,177.75717,52,100,41
177.76794,177.92958,52,100,41
177.94035,178.102,52,100,41
178.11278,178.27441,55,100,41
178.28519,178.44682,64,100,41
178.4576,179.13647,64,100,41
179.14726,179.3089,61,87,41
179.31967,179.48131,57,84,41
179.49208,179.65372,57,81,41
179.66449,179.82614,57,78,41
179.83691,179.99855,57,75,41
180.00932,180.17096,57,72,41
180.18173,180.34337,61,68,41
180.35416,180.5158,64,64,41
180.52657,180.6882,66,60,41
180.69897,180.86061,66,60,41
180.8714,181.03304,66,60,41
181.04381,181.20544,66,60,41
181.21622,181.37785,66,60,41
181.38863,181.55028,66,60,41
181.56105,181.72269,64,60,41
181.73346,181.8951,64,60,41
181.90587,182.0675,64,60,41
182.0783,182.23993,64,60,41
182.2507,182.41234,64,60,41
182.42311,182.58475,64,60,41
182.59554,182.75717,69,60,41
182.76794,182.92958,69,61,41
182.94035,183.10199,69,62,41
183.11276,183.27441,69,63,41
183.28519,183.44682,69,64,41
183.4576,183.61923,66,65,41
183.63,183.79164,64,66,41
183.80243,183.96407,64,67,41
183.97484,184.13647,64,68,41
184.14725,184.30888,64,70,41
184.31967,184.48131,64,72,41
184.49208,184.65372,64,74,41
184.66449,184.82613,65,76,41
184.83691,184.99855,65,78,41
185.00932,185.17096,65,80,41
185.18173,185.34337,65,82,41
185.35414,185.5158,65,84,41
185.52657,185.6882,62,86,41
185.69897,185.86061,64,88,41
185.87138,186.03302,64,90,41
186.04381,186.20544,64,92,41
186.21622,186.37785,64,94,41
186.38863,186.55026,64,96,41
186.56105,186.72269,57,98,41
186.73346,186.90707,62,100,41
186.91864,187.09225,62,100,41
187.10382,187.27744,62,100,41
187.28902,187.46262,62,100,41
187.4742,187.64781,62,100,41
187.65938,187.833,62,100,41
187.84457,188.13206,62,100,41
190.13123,190.29286,53,100,41
190.30363,190.46527,53,100,41
190.47604,190.6377,53,100,41
190.64847,190.8101,53,100,41
190.82088,190.98251,57,100,41
190.99329,191.15492,62,100,41
191.16571,191.84459,64,100,41
191.85536,192.017,60,100,41
192.02777,192.1894,55,100,41
192.20018,192.36183,52,100,41
192.3726,192.53424,52,100,41
192.54501,192.70665,52,100,41
192.71742,192.87906,52,100,41
192.88985,193.05148,55,100,41
193.06226,193.22389,60,100,41
193.23466,193.91354,64,100,41
193.92433,194.08597,60,100,41
194.09674,194.25838,55,100,41
194.26915,194.43079,52,100,41
194.44156,194.60321,52,100,41
194.61398,194.77562,52,100,41
194.78639,194.94803,52,100,41
194.9588,195.12044,55,100,41
195.13123,195.29286,64,100,41
195.30363,195.98251,64,100,41
195.99329,196.15492,61,87,41
196.1657,196.32735,57,84,41
196.33812,196.49976,57,81,41
196.51053,196.67216,57,78,41
196.68294,196.84457,57,75,41
196.85536,197.017,57,72,41
197.02777,197.1894,61,68,41
197.20018,197.36182,64,64,41
197.3726,197.53424,66,60,41
197.54501,197.70665,66,60,41
197.71742,197.87906,66,60,41
197.88983,198.05148,66,60,41
198.06226,198.22389,66,60,41
198.23466,198.3963,66,60,41
198.40707,198.56871,64,60,41
198.5795,198.74113,64,60,41
198.7519,198.91354,64,60,41
198.92432,199.08595,64,60,41
199.09674,199.25838,64,60,41
199.26915,199.43079,64,60,41
199.44156,199.6032,69,60,41
199.61397,199.77562,69,61,41
199.78639,199.94803,69,62,41
199.9588,200.12044,69,63,41
200.13121,200.29285,69,64,41
200.30363,200.46527,66,65,41
200.47604,200.63768,64,66,41
200.64845,200.81009,64,67,41
200.82088,200.98251,64,68,41
200.99329,201.15492,64,70,41
201.1657,201.32733,64,72,41
201.3381,201.49976,64,74,41
201.51053,201.67216,65,76,41
201.68294,201.84457,65,78,41
201.85535,202.01698,65,80,41
202.02777,202.1894,65,82,41
202.20018,202.36182,65,84,41
202.37259,202.53423,62,86,41
202.54501,202.70665,64,88,41
202.71742,202.87906,64,90,41
202.88983,203.05147,64,92,41
203.06226,203.22389,64,94,41
203.23466,203.3963,64,96,41
203.40707,203.56871,57,98,41
203.57948,203.7469,62,100,41
203.75806,203.92548,62,100,41
203.93663,204.10405,62,100,41
204.1152,204.28261,62,100,41
204.29378,204.46118,62,100,41
204.47235,204.63976,62,100,41
204.65092,204.91711,62,100,41
205.76202,206.50162,57,60,41
205.76202,206.50162,65,60,41
206.51202,206.76202,69,60,41
206.76202,207.50162,70,100,41
207.51202,207.76202,67,100,41
207.76202,208.50162,65,60,41
208.51202,208.76202,69,60,41
208.76202,209.50162,75,100,41
209.51202,209.76202,63,100,41
209.76202,210.50162,62,60,41
210.51202,210.76202,74,60,41
210.76202,211.50162,75,100,41
211.51202,211.76202,63,100,41
211.76202,212.50162,62,60,41
212.51202,212.76202,74,60,41
212.76202,213.50162,80,100,41
213.51202,213.76202,68,100,41
213.76202,214.50162,67,100,41
214.76202,214.88702,58,100,41
214.88702,215.01202,60,100,41
215.01202,215.13702,62,100,41
215.13702,215.26202,64,100,41
215.26202,215.38702,65,100,41
215.38702,215.51202,67,100,41
215.51202,215.63702,69,100,41
215.63702,215.75162,70,100,41
215.76202,215.88702,57,100,41
215.88702,216.01202,58,100,41
216.01202,216.13702,60,100,41
216.13702,216.26202,62,100,41
216.26202,216.38702,64,100,41
216.38702,216.51202,65,100,41
216.51202,216.63702,67,100,41
216.63702,216.75162,69,100,41
216.76202,216.88702,64,100,41
216.88702,217.01202,65,100,41
217.01202,217.13702,67,100,41
217.13702,217.26202,69,100,41
217.26202,217.38702,70,100,41
217.38702,217.51202,72,100,41
217.51202,217.63702,74,100,41
217.63702,217.75162,76,100,41
217.76202,217.88702,65,100,41
217.88702,218.01202,67,100,41
218.01202,218.13702,69,100,41
218.13702,218.26202,70,100,41
218.26202,218.38702,72,100,41
218.38702,218.51202,74,100,41
218.51202,218.63702,76,100,41
218.63702,218.75162,77,100,41
218.76202,218.88702,64,100,41
218.88702,219.01202,66,100,41
219.01202,219.13702,68,100,41
219.13702,219.26202,69,100,41
219.26202,219.38702,71,100,41
219.38702,219.51202,73,100,41
219.51202,219.63702,74,100,41
219.63702,219.75162,76,100,41
219.76202,220.00162,57,100,41
219.76202,220.25162,64,100,41
219.88702,220.25162,73,100,41
220.76202,220.88702,69,100,41
220.88702,221.01202,68,94,41
221.01202,221.13702,69,88,41
221.13702,221.26202,65,81,41
221.26202,221.38702,64,74,41
221.38702,221.51202,62,67,41
221.51202,221.63702,61,60,41
221.63702,221.75162,58,60,41
221.76202,222.50162,57,60,41
221.76202,222.50162,65,60,41
222.51202,222.76202,69,60,41
222.76202,223.50162,70,100,41
223.51202,223.76202,67,100,41
223.76202,224.50162,65,60,41
224.51202,224.76202,69,60,41
224.76202,225.50162,75,100,41
225.51202,225.76202,63,100,41
225.76202,226.50162,62,60,41
226.51202,226.76202,74,60,41
226.76202,227.50162,75,100,41
227.51202,227.76202,63,100,41
227.76202,228.50162,62,60,41
228.51202,228.76202,74,60,41
228.76202,229.50162,80,100,41
229.51202,229.76202,68,100,41
229.76202,230.50162,67,100,41
230.76202,230.88702,58,100,41
230.88702,231.01202,60,100,41
231.01202,231.13702,62,100,41
231.13702,231.26202,64,100,41
231.26202,231.38702,65,100,41
231.38702,231.51202,67,100,41
231.51202,231.63702,69,100,41
231.63702,231.75162,70,100,41
231.76202,231.88702,57,100,41
231.88702,232.01202,58,100,41
232.01202,232.13702,60,100,41
232.13702,232.26202,62,100,41
232.26202,232.38702,64,100,41
232.38702,232.51202,65,100,41
232.51202,232.63702,67,100,41
232.63702,232.75162,69,100,41
232.76202,232.88702,64,100,41
232.88702,233.01202,65,100,41
233.01202,233.13702,67,100,41
233.13702,233.26202,69,100,41
233.26202,233.38702,70,100,41
233.38702,233.51202,72,100,41
233.51202,233.63702,74,100,41
233.63702,233.75162,76,100,41
233.76202,233.88702,65,100,41
233.88702,234.01202,67,100,41
234.01202,234.13702,69,100,41
234.13702,234.26202,70,100,41
234.26202,234.38702,72,100,41
234.38702,234.51202,74,100,41
234.51202,234.63702,76,100,41
234.63702,234.75162,77,100,41
234.76202,234.88702,64,100,41
234.88702,235.01202,66,100,41
235.01202,235.13702,68,100,41
235.13702,235.26202,69,100,41
235.26202,235.38702,71,100,41
235.38702,235.51202,73,100,41
235.51202,235.63702,74,100,41
235.63702,235.75162,76,100,41
235.76202,236.00162,57,100,41
235.76202,236.25162,64,100,41
235.88702,236.25162,73,100,41
236.76202,236.88702,69,100,41
236.88702,237.01202,68,94,41
237.01202,237.13702,69,88,41
237.13702,237.26202,65,81,41
237.26202,237.38702,64,74,41
237.38702,237.51202,62,67,41
237.51202,237.63702,61,60,41
237.63702,237.75162,58,60,41
237.76202,238.50162,57,60,41
237.76202,238.50162,65,60,41
238.51202,238.76202,69,60,41
238.76202,239.51202,70,80,41
239.51202,239.75162,77,100,41
239.76202,240.50162,76,100,41
240.51202,240.76202,64,60,41
240.76202,241.59537,65,80,41
241.76202,242.50162,64,80,41
242.51202,242.76202,67,60,41
242.76202,243.51202,72,80,41
243.51202,243.75162,79,100,41
243.76202,244.50162,78,100,41
244.51202,244.76202,66,60,41
244.76202,245.59537,67,80,41
245.76202,246.59537,66,100,41
246.76202,246.88702,52,100,41
246.88702,247.01202,54,100,41
247.01202,247.13702,56,100,41
247.13702,247.26202,57,100,41
247.26202,247.38702,59,100,41
247.38702,247.51202,61,100,41
247.51202,247.63702,62,100,41
247.63702,247.75162,64,100,41
247.76202,247.88702,54,100,41
247.88702,248.01202,56,100,41
248.01202,248.13702,57,100,41
248.13702,248.26202,59,100,41
248.26202,248.38702,61,100,41
248.38702,248.51202,62,100,41
248.51202,248.63702,64,100,41
248.63702,248.75162,66,100,41
248.76202,248.88702,56,100,41
248.88702,249.01202,57,100,41
249.01202,249.13702,59,100,41
249.13702,249.26202,61,100,41
249.26202,249.38702,62,100,41
249.38702,249.51202,64,100,41
249.51202,249.63702,66,100,41
249.63702,249.75162,68,100,41
249.76202,249.88702,57,100,41
249.88702,250.01202,59,100,41
250.01202,250.13702,61,100,41
250.13702,250.26202,62,100,41
250.26202,250.38702,64,100,41
250.38702,250.51202,65,100,41
250.51202,250.63702,67,100,41
250.63702,250.75162,69,100,41
250.76202,251.25162,70,100,41
251.26202,251.50162,69,100,41
251.51202,251.75162,67,100,41
251.76202,252.2685,65,100,41
252.79651,252.93044,74,100,41
252.93044,253.06436,73,94,41
253.06436,253.1983,74,88,41
253.1983,253.33223,70,81,41
253.33223,253.47112,69,74,41
253.47112,253.61,67,67,41
253.61,253.74889,65,60,41
253.74889,253.8762,64,60,41
253.88779,254.62737,57,60,41
253.88779,254.62737,65,60,41
254.63779,254.88779,69,60,41
254.88779,255.63779,70,80,41
255.63779,255.87737,77,100,41
255.88779,256.62735,76,100,41
256.6378,256.8878,64,60,41
256.8878,257.7211,65,80,41
257.8878,258.62735,64,80,41
258.6378,258.8878,67,60,41
258.8878,259.6378,72,80,41
259.6378,259.87735,79,100,41
259.8878,260.62735,78,100,41
260.6378,260.8878,66,60,41
260.8878,261.7211,67,80,41
261.8878,262.7211,66,100,41
262.8878,263.0128,52,100,41
263.0128,263.1378,54,100,41
263.1378,263.2628,56,100,41
263.2628,263.3878,57,100,41
263.3878,263.5128,59,100,41
263.5128,263.6378,61,100,41
263.6378,263.7628,62,100,41
263.7628,263.87735,64,100,41
263.8878,264.0128,54,100,41
264.0128,264.1378,56,100,41
264.1378,264.2628,57,100,41
264.2628,264.3878,59,100,41
264.3878,264.5128,61,100,41
264.5128,264.6378,62,100,41
264.6378,264.7628,64,100,41
264.7628,264.87735,66,100,41
264.8878,265.0128,56,100,41
265.0128,265.1378,57,100,41
265.1378,265.2628,59,100,41
265.2628,265.3878,61,100,41
265.3878,265.5128,62,100,41
265.5128,265.6378,64,100,41
265.6378,265.7628,66,100,41
265.7628,265.87735,68,100,41
265.8878,266.0128,57,100,41
266.0128,266.1378,59,100,41
266.1378,266.2628,61,100,41
266.2628,266.3878,62,100,41
266.3878,266.5128,64,100,41
266.5128,266.6378,65,100,41
266.6378,266.7628,67,100,41
266.7628,266.87735,69,100,41
266.8878,267.37735,70,100,41
267.3878,267.62735,69,100,41
267.6378,267.87735,67,100,41
267.8878,268.39426,65,100,41
268.92227,269.05618,74,100,41
269.05618,269.19012,73,94,41
269.19012,269.32404,74,88,41
269.32404,269.45798,70,81,41
269.45798,269.59686,69,74,41
269.59686,269.73575,67,67,41
269.73575,269.87463,65,60,41
269.87463,270.00195,64,60,41
270.01352,270.54926,62,60,41
270.54926,271.08496,61,60,41
271.08496,271.62067,59,60,41
271.62067,272.14523,57,60,41
272.1564,272.6921,64,60,41
272.6921,273.2278,61,60,41
273.2278,273.76352,59,60,41
273.76352,274.2881,57,60,41
274.29926,274.83496,66,60,41
274.83496,275.37067,62,60,41
275.37067,275.90637,61,60,41
275.90637,276.43094,60,60,41
276.4421,276.9778,59,60,41
276.9778,277.51352,62,60,41
277.51352,278.04926,67,60,41
278.04926,278.5738,66,60,41
278.58496,279.12067,64,60,41
279.12067,279.65637,66,60,41
279.65637,280.1921,64,60,41
280.1921,280.71664,62,60,41
280.7278,281.26352,61,60,41
281.26352,281.79922,62,60,41
281.79922,282.33496,61,60,41
282.33496,282.8595,59,60,41
282.87067,283.40637,57,60,41
283.40637,283.9421,59,60,41
283.9421,284.4778,57,60,41
284.4778,285.00235,59,60,41
285.01352,285.54922,61,60,41
285.54922,286.08496,59,60,41
286.08496,286.62067,57,60,41
286.62067,287.14523,55,60,41
287.15637,288.04922,54,60,41
300.54922,301.08493,71,100,41
301.08493,301.62067,69,100,41
301.62067,302.15637,68,94,41
302.15637,302.69208,69,88,41
302.69208,303.2278,68,81,41
303.2278,303.76352,69,74,41
303.76352,304.28806,67,67,41
304.29922,304.83493,66,60,41
304.83493,305.37067,67,60,41
305.37067,305.90637,66,60,41
305.90637,306.44208,65,60,41
306.44208,306.97778,64,60,41
306.97778,307.51352,62,60,41
307.51352,308.04922,64,60,41
308.04922,308.5738,60,60,41
308.58493,309.12067,69,60,41
309.12067,309.65637,70,60,41
309.65637,310.19208,69,60,41
310.19208,310.72778,67,60,41
310.72778,311.26352,66,60,41
311.26352,311.79922,64,60,41
311.79922,312.33493,66,60,41
312.33493,312.8595,60,60,41
312.87067,313.40637,59,60,41
313.40637,313.94208,60,65,41
313.94208,314.47778,59,70,41
314.47778,315.01352,60,75,41
315.01352,315.54922,59,80,41
315.54922,316.08493,61,85,41
316.08493,316.62064,59,90,41
316.62064,317.1452,61,95,41
317.15637,317.69208,62,100,41
317.69208,318.22778,66,100,41
318.22778,318.76352,69,100,41
318.76352,319.29922,67,100,41
319.29922,319.83493,66,100,41
319.83493,320.37064,62,87,41
320.37064,320.90637,57,74,41
320.90637,321.4309,55,60,41
321.44208,321.97778,54,60,41
321.97778,322.5135,55,60,41
322.5135,323.04922,54,60,41
323.04922,323.58493,53,60,41
323.58493,324.12064,52,60,41
324.12064,324.65637,50,60,41
324.65637,325.19208,52,60,41
325.19208,325.7166,48,60,41
325.72778,326.62064,53,60,41
326.79922,327.69208,51,65,41
327.87064,328.7635,50,70,41
328.94208,329.83493,50,75,41
330.0135,330.90634,55,80,41
331.08493,331.97778,54,85,41
332.15634,333.04922,55,90,41
333.22778,334.12064,56,95,41
334.29922,335.22513,57,100,41
335.4103,336.33624,57,100,41
336.52142,337.48297,50,80,41
337.6753,338.6753,50,60,41
338.87527,339.70862,62,64,41
338.87527,339.70862,69,64,41
339.87527,340.70862,62,64,41
339.87527,340.70862,69,64,41
340.87527,341.70862,62,64,41
340.87527,341.70862,69,64,41
341.87527,342.70862,62,64,41
341.87527,342.70862,69,64,41
342.87527,343.70862,62,64,41
342.87527,343.70862,69,64,41
343.87527,344.70862,62,64,41
343.87527,344.70862,69,64,41
344.87527,345.70862,62,64,41
344.87527,345.70862,74,64,41
345.87527,346.70862,62,64,41
345.87527,346.70862,74,64,41
346.87527,347.70862,62,64,41
346.87527,347.70862,73,64,41
347.87527,348.70862,62,64,41
347.87527,348.70862,71,64,41
348.87527,349.70862,62,64,41
348.87527,349.70862,69,64,41
349.87527,350.70862,62,64,41
349.87527,350.70862,67,64,41
350.87527,351.70862,62,40,41
350.87527,351.70862,66,40,41
351.87527,352.70862,62,60,41
351.87527,352.70862,65,60,41
352.87527,353.73734,57,80,41
352.87527,353.73734,64,80,41
353.90976,354.81586,57,60,41
353.90976,354.81586,64,60,41
355.00104,355.83435,62,64,41
355.00104,355.83435,69,64,41
356.00104,356.83435,62,64,41
356.00104,356.83435,69,64,41
357.00104,357.83435,62,64,41
357.00104,357.83435,69,64,41
358.00104,358.83435,62,64,41
358.00104,358.83435,69,64,41
359.00104,359.83435,62,64,41
359.00104,359.83435,69,64,41
360.00104,360.83435,62,64,41
360.00104,360.83435,69,64,41
361.00104,361.83435,62,64,41
361.00104,361.83435,74,64,41
362.00104,362.83435,62,64,41
362.00104,362.83435,74,64,41
363.00104,363.83435,62,64,41
363.00104,363.83435,73,64,41
364.00104,364.83435,62,64,41
364.00104,364.83435,71,64,41
365.00104,365.83435,62,64,41
365.00104,365.83435,69,64,41
366.00104,366.83435,62,64,41
366.00104,366.83435,67,64,41
367.00104,367.83435,62,40,41
367.00104,367.83435,66,40,41
368.00104,368.83435,62,60,41
368.00104,368.83435,65,60,41
369.00104,369.8631,57,80,41
369.00104,369.8631,64,80,41
370.03552,370.9416,57,60,41
370.03552,370.9416,64,60,41
371.12677,371.9601,62,60,41
372.12677,372.9601,62,80,41
373.12677,373.9601,60,100,41
373.12677,373.9601,67,100,41
374.12677,374.9601,60,80,41
374.12677,374.9601,67,80,41
375.12677,375.9601,60,60,41
376.12677,376.9601,60,80,41
377.12677,377.9601,58,100,41
377.12677,377.9601,65,100,41
378.12677,378.9601,58,80,41
378.12677,378.9601,65,80,41
379.12677,379.87677,57,40,41
379.12677,379.87677,66,40,41
379.87677,380.11636,64,40,41
380.12677,380.37677,66,40,41
380.37677,380.62677,64,40,41
380.62677,380.87677,66,40,41
380.87677,381.11636,64,40,41
381.12677,381.87677,66,40,41
381.87677,382.11636,64,40,41
382.12677,382.37677,66,40,41
382.37677,382.62677,64,40,41
382.62677,382.87677,66,40,41
382.87677,383.11636,62,40,41
383.12677,383.37677,64,40,41
383.37677,383.62677,60,40,41
383.62677,383.87677,62,40,41
383.87677,384.11636,59,40,41
384.12677,384.37677,58,40,41
384.37677,384.62677,55,40,41
384.62677,384.87677,54,40,41
384.87677,385.11636,52,40,41
385.12677,385.98886,50,40,41
387.25253,388.08588,62,60,41
388.25253,389.08588,62,80,41
389.25253,390.08588,60,100,41
389.25253,390.08588,67,100,41
390.25253,391.08588,60,80,41
390.25253,391.08588,67,80,41
391.25253,392.08588,60,60,41
392.25253,393.08588,60,80,41
393.25253,394.08588,58,100,41
393.25253,394.08588,65,100,41
394.25253,395.08588,58,80,41
394.25253,395.08588,65,80,41
395.25253,396.00253,57,40,41
395.25253,396.00253,66,40,41
396.00253,396.24213,64,40,41
396.25253,396.50253,66,40,41
396.50253,396.75253,64,40,41
396.75253,397.00253,66,40,41
397.00253,397.24213,64,40,41
397.25253,398.00253,66,40,41
398.00253,398.24213,64,40,41
398.25253,398.50253,66,40,41
398.50253,398.75253,64,40,41
398.75253,399.00253,66,40,41
399.00253,399.24213,62,40,41
399.25253,399.50253,64,40,41
399.50253,399.75253,60,40,41
399.75253,400.00253,62,40,41
400.00253,400.24213,59,40,41
400.25253,400.50253,58,40,41
400.50253,400.75253,55,40,41
400.75253,401.00253,54,40,41
401.00253,401.24213,52,40,41
401.25253,402.1454,50,40,41
411.96683,412.85968,52,60,41
413.03824,413.9311,52,60,41
414.10968,414.63422,53,60,41
414.6454,415.1811,48,60,41
415.1811,415.7168,50,60,41
415.7168,416.25253,58,60,41
416.25253,416.78824,57,60,41
416.78824,417.32394,48,60,41
417.32394,417.85968,50,60,41
417.85968,418.38422,52,60,41
418.3954,419.28824,49,60,41
419.4668,420.35968,49,60,41
420.53824,421.4311,50,60,41
421.60968,422.50253,50,60,41
422.6811,423.57394,52,60,41
423.75253,424.6454,52,60,41
424.82394,425.7168,52,60,41
425.8954,426.78824,52,70,41
426.9668,427.85965,52,80,41
428.03824,428.9311,57,90,41
429.10965,430.00253,57,100,41
430.1811,431.07394,62,100,41
431.25253,432.1454,62,100,41
432.32394,433.2168,59,100,41
433.3954,434.28824,62,80,41
434.4668,435.35965,57,60,41
435.53824,436.46414,50,60,41
436.64935,437.57526,50,60,41
437.76044,438.68637,50,60,41
438.87155,439.7975,50,60,41
439.98267,440.9086,50,60,41
441.09378,442.0197,50,60,41
442.2049,443.13083,50,60,41
443.316,444.24194,50,60,41
444.42712,445.35306,50,60,41
445.53824,446.46414,50,60,41
446.64935,447.57526,57,60,41
447.76044,448.68637,57,60,41
449.42712,449.566,54,60,41
449.7049,449.77435,55,60,41
449.84378,449.91324,54,60,41
449.91324,449.98267,55,60,41
449.98267,450.52664,57,60,41
450.53824,450.67712,55,60,41
450.816,450.92017,54,60,41
451.02435,451.09378,55,60,41
451.09378,452.0197,58,60,41
453.87155,454.01044,54,60,41
454.14935,454.21878,55,60,41
454.28824,454.35767,54,60,41
454.35767,454.42712,55,60,41
454.42712,454.9711,57,60,41
454.98267,455.12155,55,60,41
455.26044,455.36462,54,60,41
455.46878,455.53824,55,60,41
455.53824,456.46414,58,60,41
458.316,458.4549,62,60,41
458.59378,458.66324,64,63,41
458.73267,458.80212,62,64,41
458.80212,458.87155,64,64,41
458.87155,459.41553,66,64,41
459.42712,459.566,64,72,41
459.7049,459.84378,62,76,41
459.98267,460.52664,64,80,41
460.53824,460.67712,57,80,41
460.816,460.88544,62,80,41
460.9549,461.02435,57,80,41
461.02435,461.09378,62,80,41
461.09378,461.63776,64,80,41
461.64935,461.78824,57,80,41
461.92712,462.066,55,80,41
462.2049,462.7698,54,80,41
462.78183,463.35873,54,108,41
463.35873,464.32028,55,72,41
464.51257,465.1001,54,64,41
465.11258,465.7126,50,92,41
465.7126,466.7126,50,56,41
466.9126,467.99954,50,48,41
468.21692,469.46692,50,39,41
469.71692,473.21692,50,30,41
4.0,4.8333335,57,60,42
5.0,5.8333335,57,60,42
6.0,6.8333335,52,60,42
7.0,7.8333335,52,62,42
8.0,8.833333,57,64,42
9.0,9.833333,57,66,42
10.0,10.833333,55,68,42
11.0,11.833333,55,71,42
12.0,12.833333,55,74,42
13.0,13.833333,60,77,42
14.0,14.489583,60,80,42
14.5,15.0,48,80,42
15.0,15.5,50,80,42
15.5,15.989583,46,80,42
16.0,16.51724,45,80,42
16.51724,17.034481,48,85,42
17.034481,17.551723,50,90,42
17.551723,18.058187,52,95,42
18.068964,18.861374,49,100,42
19.140392,19.932802,49,100,42
20.21182,21.045153,57,60,42
21.21182,22.045153,57,60,42
22.21182,23.045153,52,60,42
23.21182,24.045153,52,62,42
24.21182,25.045153,57,64,42
25.21182,26.045153,57,66,42
26.21182,27.045153,50,68,42
27.21182,28.045153,50,71,42
28.21182,29.045153,52,74,42
29.21182,30.045153,55,77,42
30.21182,30.701403,57,80,42
30.71182,31.21182,48,80,42
31.21182,31.71182,50,80,42
31.71182,32.201405,46,80,42
32.21182,32.72906,45,80,42
32.72906,33.246304,48,85,42
33.246304,33.763542,50,90,42
33.763542,34.270008,52,95,42
34.280785,35.073193,49,100,42
35.35221,36.144623,49,100,42
36.42364,37.256973,53,60,42
37.42364,38.256973,53,60,42
38.42364,39.256973,55,60,42
39.42364,40.256973,55,62,42
40.42364,41.256973,60,64,42
41.42364,42.256973,60,66,42
42.42364,43.256973,61,68,42
43.42364,44.256973,61,71,42
44.42364,44.92364,62,74,42
44.92364,45.42364,60,75,42
45.42364,45.92364,59,76,42
45.92364,46.413223,64,78,42
46.42364,46.92364,62,80,42
46.92364,47.42364,60,80,42
47.42364,47.92364,59,80,42
47.92364,48.413223,64,80,42
48.42364,48.92364,62,80,42
48.92364,49.413223,57,85,42
49.42364,49.913223,58,90,42
49.92364,50.163223,57,95,42
50.17364,50.413223,55,97,42
50.42364,51.163223,53,100,42
51.42364,52.163223,53,100,42
52.42364,53.256973,53,60,42
53.42364,54.256973,53,60,42
54.42364,55.256973,55,62,42
55.42364,56.256973,55,64,42
56.42364,57.256973,52,66,42
57.42364,58.256973,52,68,42
58.42364,59.256973,52,70,42
59.42364,59.913223,52,72,42
59.92364,60.42364,57,73,42
60.42364,60.94088,62,74,42
60.94088,61.458122,60,75,42
61.458122,61.975365,59,76,42
61.975365,62.481827,64,78,42
62.492603,63.028316,62,80,42
63.028316,63.564034,60,80,42
63.564034,64.09975,59,80,42
64.09975,64.6243,64,80,42
64.63546,65.17117,62,80,42
65.17117,65.695724,57,85,42
65.70689,66.23144,58,90,42
66.2426,66.4993,57,95,42
66.51046,66.76716,55,97,42
66.77831,67.04452,38,100,42
66.77831,67.600075,45,100,42
66.917206,67.600075,53,100,42
67.88943,68.15563,38,100,42
67.88943,68.29452,45,100,42
68.02831,68.29452,53,100,42
68.444984,68.98896,57,100,42
69.00054,69.268394,38,100,42
69.00054,69.268394,45,100,42
69.13447,69.268394,53,100,42
69.13447,69.268394,62,100,42
69.268394,69.536255,57,100,42
69.536255,69.80411,53,100,42
69.80411,70.06081,57,100,42
70.07197,70.33982,50,100,42
70.33982,70.60768,53,100,42
70.60768,70.875534,52,100,42
70.875534,71.13223,50,100,42
71.143394,71.41125,64,100,42
71.41125,71.67911,61,100,42
71.67911,71.94697,57,100,42
71.94697,72.20366,61,100,42
72.21482,72.48268,52,100,42
72.48268,72.750534,55,100,42
72.750534,73.018394,53,100,42
73.018394,73.27509,52,100,42
73.28625,73.55411,65,100,42
73.55411,73.82196,62,100,42
73.82196,74.08982,57,100,42
74.08982,74.34652,62,100,42
74.35768,74.625534,53,100,42
74.625534,74.893394,57,100,42
74.893394,75.16125,55,100,42
75.16125,75.417946,53,100,42
75.42911,75.69696,67,100,42
75.69696,75.96482,62,100,42
75.96482,76.23267,59,100,42
76.23267,76.48937,62,100,42
76.500534,76.768394,55,100,42
76.768394,77.03625,57,100,42
77.03625,77.30411,55,100,42
77.30411,77.5608,53,100,42
77.57196,78.09651,52,100,42
79.17911,79.70366,48,80,42
79.71482,79.97151,41,80,42
79.71482,79.97151,48,80,42
79.84875,80.105446,53,80,42
79.84875,80.105446,57,80,42
81.32196,81.57866,43,80,42
81.32196,81.712585,52,80,42
81.45589,81.712585,58,80,42
81.85767,82.11437,45,80,42
81.85767,82.2483,53,80,42
81.9916,82.2483,57,80,42
82.9291,83.1858,46,80,42
82.9291,83.319725,55,80,42
83.063034,83.319725,62,80,42
84.00053,84.26673,45,80,42
84.00053,84.405624,52,80,42
84.13942,84.405624,61,80,42
85.13301,85.43301,57,120,42
85.43301,85.73301,52,74,42
85.73301,86.04551,49,67,42
86.04551,86.344986,52,60,42
86.35801,86.62586,38,100,42
86.35801,86.62586,45,100,42
86.491936,86.62586,53,100,42
86.491936,86.62586,62,100,42
86.62586,86.89372,57,100,42
86.89372,87.16158,53,100,42
87.16158,87.418274,57,100,42
87.429436,87.697296,50,100,42
87.697296,87.96515,53,100,42
87.96515,88.23301,52,100,42
88.23301,88.4897,50,100,42
88.50086,88.76872,64,100,42
88.76872,89.036575,61,100,42
89.036575,89.304436,57,100,42
89.304436,89.561134,61,100,42
89.572296,89.84015,52,100,42
89.84015,90.10801,55,100,42
90.10801,90.37586,53,100,42
90.37586,90.63256,52,100,42
90.64372,90.911575,65,100,42
90.911575,91.179436,62,100,42
91.179436,91.44729,57,100,42
91.44729,91.70399,62,100,42
91.71515,91.983,53,100,42
91.983,92.25086,57,100,42
92.25086,92.51872,55,100,42
92.51872,92.77541,53,100,42
92.786575,93.054436,67,100,42
93.054436,93.32229,62,100,42
93.32229,93.59015,59,100,42
93.59015,93.84685,62,100,42
93.858,94.12586,55,100,42
94.12586,94.393715,57,100,42
94.393715,94.661575,55,100,42
94.661575,94.918274,53,100,42
94.929436,95.45399,52,100,42
96.536575,97.06113,48,80,42
97.07229,97.32899,41,80,42
97.07229,97.32899,48,80,42
97.206215,97.46291,53,80,42
97.206215,97.46291,57,80,42
98.67943,98.93613,43,80,42
98.67943,99.07005,52,80,42
98.81336,99.07005,58,80,42
99.21514,99.47184,45,80,42
99.21514,99.60577,53,80,42
99.349075,99.60577,57,80,42
100.286575,100.54327,46,80,42
100.286575,100.6772,55,80,42
100.4205,100.6772,62,80,42
101.358,101.62421,45,80,42
101.358,101.76309,52,80,42
101.49689,101.76309,61,80,42
102.49048,102.79048,57,120,42
102.79048,103.09048,52,74,42
103.09048,103.40298,49,67,42
103.40298,103.70246,52,60,42
103.71548,103.98334,38,100,42
103.71548,103.98334,45,100,42
103.84941,103.98334,53,100,42
103.84941,103.98334,57,100,42
103.98334,104.25119,53,100,42
104.25119,104.51905,45,100,42
104.51905,104.77575,53,100,42
104.7869,105.05476,57,100,42
105.05476,105.322624,55,95,42
105.322624,105.59048,57,90,42
105.59048,105.847176,59,85,42
105.85834,106.38289,60,80,42
107.46548,107.99003,48,100,42
108.00119,108.26905,48,100,42
108.00119,108.26905,52,100,42
108.13512,108.26905,60,100,42
108.26905,108.5369,55,100,42
108.5369,108.80476,52,100,42
108.80476,109.061455,55,100,42
109.07262,109.34048,60,100,42
109.34048,109.60833,59,95,42
109.60833,109.87619,60,90,42
109.87619,110.13289,62,85,42
110.14405,110.6686,64,80,42
111.75119,112.27574,57,100,42
112.2869,112.55476,50,100,42
112.2869,112.55476,57,100,42
112.42083,112.55476,66,100,42
112.55476,112.82262,60,100,42
112.82262,113.09048,57,100,42
113.09048,113.34717,60,100,42
113.35833,113.62619,59,100,42
113.62619,113.89404,62,100,42
113.89404,114.1619,60,100,42
114.1619,114.4186,59,100,42
114.429756,114.69762,69,100,42
114.69762,114.96547,66,100,42
114.96547,115.23333,62,100,42
115.23333,115.49003,66,100,42
115.50119,115.76904,62,100,42
115.76904,116.0369,65,100,42
116.0369,116.304756,64,100,42
116.304756,116.561455,62,100,42
116.57262,116.850395,62,100,42
116.850395,117.128174,65,100,42
117.128174,117.405945,64,100,42
117.405945,117.67215,62,100,42
117.68372,117.97219,61,100,42
117.97219,118.26065,64,100,42
118.26065,118.54911,57,100,42
118.54911,118.825554,61,100,42
118.83757,119.12507,38,100,42
118.83757,119.12507,45,100,42
118.98757,119.27507,53,100,42
118.98757,119.27507,62,100,42
120.63757,120.95007,50,120,42
120.95007,121.24955,45,80,42
121.26257,121.530426,38,100,42
121.26257,121.530426,45,100,42
121.3965,121.530426,53,100,42
121.3965,121.530426,57,100,42
121.530426,121.79829,53,100,42
121.79829,122.06614,45,100,42
122.06614,122.32284,53,100,42
122.334,122.60186,57,100,42
122.60186,122.86971,55,95,42
122.86971,123.13757,57,90,42
123.13757,123.394264,59,85,42
123.405426,123.929985,60,80,42
125.01257,125.537125,48,100,42
125.54829,125.81614,48,100,42
125.54829,125.81614,52,100,42
125.68221,125.81614,60,100,42
125.81614,126.084,55,100,42
126.084,126.35185,52,100,42
126.35185,126.60855,55,100,42
126.61971,126.887566,60,100,42
126.887566,127.155426,59,95,42
127.155426,127.42329,60,90,42
127.42329,127.67998,62,85,42
127.69114,128.2157,64,80,42
129.29828,129.82283,57,100,42
129.834,130.10185,50,100,42
129.834,130.10185,57,100,42
129.96793,130.10185,66,100,42
130.10185,130.3697,60,100,42
130.3697,130.63757,57,100,42
130.63757,130.89426,60,100,42
130.90543,131.17328,59,100,42
131.17328,131.44113,62,100,42
131.44113,131.709,60,100,42
131.709,131.9657,59,100,42
131.97685,132.2447,69,100,42
132.2447,132.51257,66,100,42
132.51257,132.78043,62,100,42
132.78043,133.03712,66,100,42
133.04828,133.31613,62,100,42
133.31613,133.584,65,100,42
133.584,133.85185,64,100,42
133.85185,134.10855,62,100,42
134.1197,134.39749,62,100,42
134.39749,134.67526,65,100,42
134.67526,134.95305,64,100,42
134.95305,135.21924,62,100,42
135.23082,135.51929,61,100,42
135.51929,135.80774,64,100,42
135.80774,136.0962,57,100,42
136.0962,136.37265,61,100,42
136.38466,136.6611,38,100,42
136.38466,136.6611,45,100,42
136.5289,136.80534,53,100,42
136.5289,136.80534,62,100,42
138.1385,138.4385,50,120,42
138.4385,138.72601,45,80,42
138.73851,139.24498,50,100,42
138.73851,139.24498,57,100,42
140.80748,141.05531,45,80,42
140.80748,141.31393,52,80,42
140.93678,141.31393,57,80,42
142.87643,143.3829,50,100,42
142.87643,143.3829,57,100,42
154.485,154.58115,58,100,42
154.6773,154.77345,57,100,42
154.86961,154.97377,55,100,42
155.07794,155.18211,53,100,42
155.28627,155.39044,52,100,42
155.49461,156.00107,50,100,42
155.49461,156.00107,57,100,42
157.56357,157.81142,45,80,42
157.56357,158.07004,52,80,42
157.69289,158.07004,57,80,42
159.63254,160.139,50,100,42
159.63254,160.139,57,100,42
171.24109,171.33725,58,100,42
171.4334,171.52956,57,100,42
171.6257,171.72987,55,100,42
171.83405,171.9382,53,100,42
172.04237,172.14655,52,100,42
172.2507,172.49855,50,80,42
172.2507,172.75717,53,80,42
172.38002,172.75717,57,80,42
174.31967,174.56752,36,80,42
174.31967,174.56752,43,80,42
174.44899,174.82614,52,80,42
174.44899,174.82614,60,80,42
176.38864,176.63647,46,80,42
176.38864,176.8951,52,80,42
176.51794,176.8951,60,80,42
178.4576,178.70544,45,80,42
178.4576,178.96407,52,80,42
178.58691,178.96407,61,80,42
188.04457,188.14456,58,100,42
188.24457,188.34457,57,100,42
188.44456,188.55327,56,100,42
188.66196,188.77066,57,100,42
188.87935,188.98805,53,100,42
189.09674,189.34459,50,80,42
189.09674,189.60321,53,80,42
189.22606,189.60321,57,80,42
191.16571,191.41354,36,80,42
191.16571,191.41354,43,80,42
191.29501,191.67216,52,80,42
191.29501,191.67216,60,80,42
193.23466,193.48251,46,80,42
193.23466,193.74113,52,80,42
193.36398,193.74113,60,80,42
195.30363,195.55148,45,80,42
195.30363,195.8101,52,80,42
195.43294,195.8101,61,80,42
204.8361,204.9287,58,100,42
205.02129,205.11388,57,100,42
205.20647,205.29907,56,87,42
205.39166,205.48425,57,74,42
205.57684,205.66943,53,60,42
205.76202,205.88702,50,60,42
205.88702,206.01202,52,60,42
206.01202,206.13702,53,65,42
206.13702,206.26202,55,70,42
206.26202,206.38702,57,76,42
206.38702,206.51202,59,82,42
206.51202,206.63702,61,88,42
206.63702,206.75162,62,94,42
206.76202,206.88702,61,100,42
206.88702,207.01202,58,100,42
207.01202,207.13702,57,95,42
207.13702,207.26202,55,90,42
207.26202,207.38702,53,84,42
207.38702,207.51202,52,78,42
207.51202,207.63702,50,72,42
207.63702,207.75162,49,66,42
207.76202,207.88702,50,60,42
207.88702,208.01202,52,60,42
208.01202,208.13702,53,65,42
208.13702,208.26202,55,70,42
208.26202,208.38702,57,76,42
208.38702,208.51202,59,82,42
208.51202,208.63702,61,88,42
208.63702,208.75162,62,94,42
208.76202,208.88702,60,100,42
208.88702,209.01202,58,100,42
209.01202,209.13702,57,95,42
209.13702,209.26202,55,90,42
209.26202,209.38702,54,84,42
209.38702,209.51202,51,78,42
209.51202,209.63702,50,72,42
209.63702,209.75162,48,66,42
209.76202,209.88702,47,60,42
209.88702,210.01202,48,60,42
210.01202,210.13702,50,65,42
210.13702,210.26202,52,70,42
210.26202,210.38702,54,76,42
210.38702,210.51202,55,82,42
210.51202,210.63702,57,88,42
210.63702,210.75162,59,94,42
210.76202,210.88702,60,100,42
210.88702,211.01202,58,100,42
211.01202,211.13702,57,95,42
211.13702,211.26202,55,90,42
211.26202,211.38702,54,84,42
211.38702,211.51202,51,78,42
211.51202,211.63702,50,72,42
211.63702,211.75162,48,66,42
211.76202,211.88702,47,60,42
211.88702,212.01202,48,60,42
212.01202,212.13702,50,65,42
212.13702,212.26202,52,70,42
212.26202,212.38702,54,76,42
212.38702,212.51202,55,82,42
212.51202,212.63702,57,88,42
212.63702,212.75162,59,94,42
212.76202,212.88702,65,100,42
212.88702,213.01202,63,100,42
213.01202,213.13702,62,92,42
213.13702,213.26202,60,84,42
213.26202,213.38702,59,76,42
213.38702,213.51202,56,68,42
213.51202,213.63702,55,60,42
213.63702,213.75162,53,60,42
213.76202,213.88702,52,100,42
213.88702,214.01202,53,100,42
214.01202,214.13702,55,100,42
214.13702,214.26202,57,100,42
214.26202,214.38702,59,100,42
214.38702,214.51202,60,100,42
214.51202,214.63702,62,100,42
214.63702,214.75162,64,100,42
214.76202,214.88702,46,100,42
214.88702,215.01202,48,100,42
215.01202,215.13702,50,100,42
215.13702,215.26202,52,100,42
215.26202,215.38702,53,100,42
215.38702,215.51202,55,100,42
215.51202,215.63702,57,100,42
215.63702,215.75162,58,100,42
215.76202,215.88702,45,100,42
215.88702,216.01202,46,100,42
216.01202,216.13702,48,100,42
216.13702,216.26202,50,100,42
216.26202,216.38702,52,100,42
216.38702,216.51202,53,100,42
216.51202,216.63702,55,100,42
216.63702,216.75162,57,100,42
216.76202,216.88702,52,100,42
216.88702,217.01202,53,100,42
217.01202,217.13702,55,100,42
217.13702,217.26202,57,100,42
217.26202,217.38702,58,100,42
217.38702,217.51202,60,100,42
217.51202,217.63702,62,100,42
217.63702,217.75162,64,100,42
217.76202,217.88702,53,100,42
217.88702,218.01202,55,100,42
218.01202,218.13702,57,100,42
218.13702,218.26202,58,100,42
218.26202,218.38702,60,100,42
218.38702,218.51202,62,100,42
218.51202,218.63702,64,100,42
218.63702,218.75162,65,100,42
218.76202,218.88702,52,100,42
218.88702,219.01202,54,100,42
219.01202,219.13702,56,100,42
219.13702,219.26202,57,100,42
219.26202,219.38702,59,100,42
219.38702,219.51202,61,100,42
219.51202,219.63702,62,100,42
219.63702,219.75162,64,100,42
219.76202,220.00162,45,100,42
219.76202,220.25162,52,100,42
219.88702,220.25162,61,100,42
221.76202,221.88702,50,60,42
221.88702,222.01202,52,60,42
222.01202,222.13702,53,65,42
222.13702,222.26202,55,70,42
222.26202,222.38702,57,76,42
222.38702,222.51202,59,82,42
222.51202,222.63702,61,88,42
222.63702,222.75162,62,94,42
222.76202,222.88702,61,100,42
222.88702,223.01202,58,100,42
223.01202,223.13702,57,95,42
223.13702,223.26202,55,90,42
223.26202,223.38702,53,84,42
223.38702,223.51202,52,78,42
223.51202,223.63702,50,72,42
223.63702,223.75162,49,66,42
223.76202,223.88702,50,60,42
223.88702,224.01202,52,60,42
224.01202,224.13702,53,65,42
224.13702,224.26202,55,70,42
224.26202,224.38702,57,76,42
224.38702,224.51202,59,82,42
224.51202,224.63702,61,88,42
224.63702,224.75162,62,94,42
224.76202,224.88702,60,100,42
224.88702,225.01202,58,100,42
225.01202,225.13702,57,95,42
225.13702,225.26202,55,90,42
225.26202,225.38702,54,84,42
225.38702,225.51202,51,78,42
225.51202,225.63702,50,72,42
225.63702,225.75162,48,66,42
225.76202,225.88702,47,60,42
225.88702,226.01202,48,60,42
226.01202,226.13702,50,65,42
226.13702,226.26202,52,70,42
226.26202,226.38702,54,76,42
226.38702,226.51202,55,82,42
226.51202,226.63702,57,88,42
226.63702,226.75162,59,94,42
226.76202,226.88702,60,100,42
226.88702,227.01202,58,100,42
227.01202,227.13702,57,95,42
227.13702,227.26202,55,90,42
227.26202,227.38702,54,84,42
227.38702,227.51202,51,78,42
227.51202,227.63702,50,72,42
227.63702,227.75162,48,66,42
227.76202,227.88702,47,60,42
227.88702,228.01202,48,60,42
228.01202,228.13702,50,65,42
228.13702,228.26202,52,70,42
228.26202,228.38702,54,76,42
228.38702,228.51202,55,82,42
228.51202,228.63702,57,88,42
228.63702,228.75162,59,94,42
228.76202,228.88702,65,100,42
228.88702,229.01202,63,100,42
229.01202,229.13702,62,92,42
229.13702,229.26202,60,84,42
229.26202,229.38702,59,76,42
229.38702,229.51202,56,68,42
229.51202,229.63702,55,60,42
229.63702,229.75162,53,60,42
229.76202,229.88702,52,100,42
229.88702,230.01202,53,100,42
230.01202,230.13702,55,100,42
230.13702,230.26202,57,100,42
230.26202,230.38702,59,100,42
230.38702,230.51202,60,100,42
230.51202,230.63702,62,100,42
230.63702,230.75162,64,100,42
230.76202,230.88702,46,100,42
230.88702,231.01202,48,100,42
231.01202,231.13702,50,100,42
231.13702,231.26202,52,100,42
231.26202,231.38702,53,100,42
231.38702,231.51202,55,100,42
231.51202,231.63702,57,100,42
231.63702,231.75162,58,100,42
231.76202,231.88702,45,100,42
231.88702,232.01202,46,100,42
232.01202,232.13702,48,100,42
232.13702,232.26202,50,100,42
232.26202,232.38702,52,100,42
232.38702,232.51202,53,100,42
232.51202,232.63702,55,100,42
232.63702,232.75162,57,100,42
232.76202,232.88702,52,100,42
232.88702,233.01202,53,100,42
233.01202,233.13702,55,100,42
233.13702,233.26202,57,100,42
233.26202,233.38702,58,100,42
233.38702,233.51202,60,100,42
233.51202,233.63702,62,100,42
233.63702,233.75162,64,100,42
233.76202,233.88702,53,100,42
233.88702,234.01202,55,100,42
234.01202,234.13702,57,100,42
234.13702,234.26202,58,100,42
234.26202,234.38702,60,100,42
234.38702,234.51202,62,100,42
234.51202,234.63702,64,100,42
234.63702,234.75162,65,100,42
234.76202,234.88702,52,100,42
234.88702,235.01202,54,100,42
235.01202,235.13702,56,100,42
235.13702,235.26202,57,100,42
235.26202,235.38702,59,100,42
235.38702,235.51202,61,100,42
235.51202,235.63702,62,100,42
235.63702,235.75162,64,100,42
235.76202,236.00162,45,100,42
235.76202,236.25162,52,100,42
235.88702,236.25162,61,100,42
237.76202,237.88702,50,60,42
237.88702,238.01202,52,60,42
238.01202,238.13702,53,65,42
238.13702,238.26202,55,70,42
238.26202,238.38702,57,76,42
238.38702,238.51202,59,82,42
238.51202,238.63702,61,88,42
238.63702,238.75162,62,94,42
238.76202,238.88702,61,100,42
238.88702,239.01202,60,100,42
239.01202,239.13702,58,95,42
239.13702,239.26202,56,90,42
239.26202,239.38702,54,84,42
239.38702,239.51202,53,78,42
239.51202,239.63702,51,72,42
239.63702,239.75162,49,66,42
239.76202,239.88702,48,60,42
239.88702,240.01202,50,60,42
240.01202,240.13702,52,65,42
240.13702,240.26202,53,70,42
240.26202,240.38702,55,76,42
240.38702,240.51202,57,82,42
240.51202,240.63702,59,88,42
240.63702,240.75162,60,94,42
240.76202,240.88702,59,100,42
240.88702,241.01202,56,100,42
241.01202,241.13702,55,95,42
241.13702,241.26202,53,90,42
241.26202,241.38702,52,84,42
241.38702,241.51202,50,78,42
241.51202,241.63702,48,72,42
241.63702,241.75162,47,66,42
241.76202,241.88702,48,60,42
241.88702,242.01202,50,60,42
242.01202,242.13702,52,65,42
242.13702,242.26202,53,70,42
242.26202,242.38702,55,76,42
242.38702,242.51202,57,82,42
242.51202,242.63702,59,88,42
242.63702,242.75162,60,94,42
242.76202,242.88702,63,100,42
242.88702,243.01202,62,100,42
243.01202,243.13702,60,95,42
243.13702,243.26202,58,90,42
243.26202,243.38702,56,84,42
243.38702,243.51202,55,78,42
243.51202,243.63702,53,72,42
243.63702,243.75162,51,66,42
243.76202,243.88702,50,60,42
243.88702,244.01202,52,60,42
244.01202,244.13702,54,65,42
244.13702,244.26202,55,70,42
244.26202,244.38702,57,76,42
244.38702,244.51202,59,82,42
244.51202,244.63702,61,88,42
244.63702,244.75162,62,94,42
244.76202,244.88702,61,100,42
244.88702,245.01202,58,100,42
245.01202,245.13702,57,95,42
245.13702,245.26202,55,90,42
245.26202,245.38702,54,84,42
245.38702,245.51202,52,78,42
245.51202,245.63702,50,72,42
245.63702,245.75162,49,66,42
245.76202,245.88702,50,60,42
245.88702,246.01202,52,60,42
246.01202,246.13702,54,65,42
246.13702,246.26202,56,70,42
246.26202,246.38702,57,76,42
246.38702,246.51202,59,82,42
246.51202,246.63702,61,88,42
246.63702,246.75162,62,94,42
246.76202,246.88702,40,100,42
246.88702,247.01202,42,100,42
247.01202,247.13702,44,100,42
247.13702,247.26202,45,100,42
247.26202,247.38702,47,100,42
247.38702,247.51202,49,100,42
247.51202,247.63702,50,100,42
247.63702,247.75162,52,100,42
247.76202,247.88702,42,100,42
247.88702,248.01202,44,100,42
248.01202,248.13702,45,100,42
248.13702,248.26202,47,100,42
248.26202,248.38702,49,100,42
248.38702,248.51202,50,100,42
248.51202,248.63702,52,100,42
248.63702,248.75162,54,100,42
248.76202,248.88702,44,100,42
248.88702,249.01202,45,100,42
249.01202,249.13702,47,100,42
249.13702,249.26202,49,100,42
249.26202,249.38702,50,100,42
249.38702,249.51202,52,100,42
249.51202,249.63702,54,100,42
249.63702,249.75162,56,100,42
249.76202,249.88702,45,100,42
249.88702,250.01202,47,100,42
250.01202,250.13702,49,100,42
250.13702,250.26202,50,100,42
250.26202,250.38702,52,100,42
250.38702,250.51202,53,100,42
250.51202,250.63702,55,100,42
250.63702,250.75162,57,100,42
250.76202,250.88702,45,100,42
250.88702,251.01202,47,100,42
251.01202,251.13702,49,100,42
251.13702,251.26202,50,100,42
251.26202,251.38702,52,100,42
251.38702,251.51202,53,100,42
251.51202,251.63702,55,100,42
251.63702,251.75162,57,100,42
251.76202,252.6241,38,100,42
252.79651,252.93044,62,100,42
252.93044,253.06436,61,94,42
253.06436,253.1983,62,88,42
253.1983,253.33223,58,81,42
253.33223,253.47112,57,74,42
253.47112,253.61,55,67,42
253.61,253.74889,53,60,42
253.74889,253.8762,52,60,42
253.88779,254.01279,50,60,42
254.01279,254.13779,52,60,42
254.13779,254.26279,53,65,42
254.26279,254.38779,55,70,42
254.38779,254.51279,57,76,42
254.51279,254.63779,59,82,42
254.63779,254.76279,61,88,42
254.76279,254.87737,62,94,42
254.88779,255.01279,61,100,42
255.01279,255.13779,60,100,42
255.13779,255.26279,58,95,42
255.26279,255.38779,56,90,42
255.38779,255.51279,54,84,42
255.51279,255.63779,53,78,42
255.63779,255.76279,51,72,42
255.76279,255.87737,49,66,42
255.88779,256.0128,48,60,42
256.0128,256.1378,50,60,42
256.1378,256.2628,52,65,42
256.2628,256.3878,53,70,42
256.3878,256.5128,55,76,42
256.5128,256.6378,57,82,42
256.6378,256.7628,59,88,42
256.7628,256.87735,60,94,42
256.8878,257.0128,59,100,42
257.0128,257.1378,56,100,42
257.1378,257.2628,55,95,42
257.2628,257.3878,53,90,42
257.3878,257.5128,52,84,42
257.5128,257.6378,50,78,42
257.6378,257.7628,48,72,42
257.7628,257.87735,47,66,42
257.8878,258.0128,48,60,42
258.0128,258.1378,50,60,42
258.1378,258.2628,52,65,42
258.2628,258.3878,53,70,42
258.3878,258.5128,55,76,42
258.5128,258.6378,57,82,42
258.6378,258.7628,59,88,42
258.7628,258.87735,60,94,42
258.8878,259.0128,63,100,42
259.0128,259.1378,62,100,42
259.1378,259.2628,60,95,42
259.2628,259.3878,58,90,42
259.3878,259.5128,56,84,42
259.5128,259.6378,55,78,42
259.6378,259.7628,53,72,42
259.7628,259.87735,51,66,42
259.8878,260.0128,50,60,42
260.0128,260.1378,52,60,42
260.1378,260.2628,54,65,42
260.2628,260.3878,55,70,42
260.3878,260.5128,57,76,42
260.5128,260.6378,59,82,42
260.6378,260.7628,61,88,42
260.7628,260.87735,62,94,42
260.8878,261.0128,61,100,42
261.0128,261.1378,58,100,42
261.1378,261.2628,57,95,42
261.2628,261.3878,55,90,42
261.3878,261.5128,54,84,42
261.5128,261.6378,52,78,42
261.6378,261.7628,50,72,42
261.7628,261.87735,49,66,42
261.8878,262.0128,50,60,42
262.0128,262.1378,52,60,42
262.1378,262.2628,54,65,42
262.2628,262.3878,56,70,42
262.3878,262.5128,57,76,42
262.5128,262.6378,59,82,42
262.6378,262.7628,61,88,42
262.7628,262.87735,62,94,42
262.8878,263.0128,40,100,42
263.0128,263.1378,42,100,42
263.1378,263.2628,44,100,42
263.2628,263.3878,45,100,42
263.3878,263.5128,47,100,42
263.5128,263.6378,49,100,42
263.6378,263.7628,50,100,42
263.7628,263.87735,52,100,42
263.8878,264.0128,42,100,42
264.0128,264.1378,44,100,42
264.1378,264.2628,45,100,42
264.2628,264.3878,47,100,42
264.3878,264.5128,49,100,42
264.5128,264.6378,50,100,42
264.6378,264.7628,52,100,42
264.7628,264.87735,54,100,42
264.8878,265.0128,44,100,42
265.0128,265.1378,45,100,42
265.1378,265.2628,47,100,42
265.2628,265.3878,49,100,42
265.3878,265.5128,50,100,42
265.5128,265.6378,52,100,42
265.6378,265.7628,54,100,42
265.7628,265.87735,56,100,42
265.8878,266.0128,45,100,42
266.0128,266.1378,47,100,42
266.1378,266.2628,49,100,42
266.2628,266.3878,50,100,42
266.3878,266.5128,52,100,42
266.5128,266.6378,53,100,42
266.6378,266.7628,55,100,42
266.7628,266.87735,57,100,42
266.8878,267.0128,45,100,42
267.0128,267.1378,47,100,42
267.1378,267.2628,49,100,42
267.2628,267.3878,50,100,42
267.3878,267.5128,52,100,42
267.5128,267.6378,53,100,42
267.6378,267.7628,55,100,42
267.7628,267.87735,57,100,42
267.8878,268.74985,38,100,42
268.92227,269.05618,62,100,42
269.05618,269.19012,61,94,42
269.19012,269.32404,62,88,42
269.32404,269.45798,58,81,42
269.45798,269.59686,57,74,42
269.59686,269.73575,55,67,42
269.73575,269.87463,53,60,42
269.87463,270.00195,52,60,42
270.01352,270.54926,50,60,42
270.54926,271.08496,49,60,42
271.08496,271.62067,47,60,42
271.62067,272.14523,45,60,42
272.1564,272.6921,52,60,42
272.6921,273.2278,49,60,42
273.2278,273.76352,47,60,42
273.76352,274.2881,45,60,42
274.29926,274.83496,54,60,42
274.83496,275.37067,50,60,42
275.37067,275.90637,49,60,42
275.90637,276.43094,48,60,42
276.4421,276.9778,47,60,42
276.9778,277.51352,50,60,42
277.51352,278.04926,55,60,42
278.04926,278.5738,54,60,42
278.58496,279.12067,52,60,42
279.12067,279.65637,54,60,42
279.65637,280.1921,52,60,42
280.1921,280.71664,50,60,42
280.7278,281.26352,49,60,42
281.26352,281.79922,50,60,42
281.79922,282.33496,49,60,42
282.33496,282.8595,47,60,42
282.87067,283.40637,45,60,42
283.40637,283.9421,47,60,42
283.9421,284.4778,45,60,42
284.4778,285.00235,47,60,42
285.01352,285.54922,49,60,42
285.54922,286.08496,47,60,42
286.08496,286.62067,45,60,42
286.62067,287.14523,49,60,42
287.15637,287.6921,50,80,42
287.6921,288.2278,49,80,42
288.2278,288.76352,47,80,42
288.76352,289.2881,45,80,42
289.29922,289.83496,52,80,42
289.83496,290.37067,49,80,42
290.37067,290.90637,47,80,42
290.90637,291.43094,45,80,42
291.44208,291.9778,54,80,42
291.9778,292.51352,50,80,42
292.51352,293.04922,49,80,42
293.04922,293.5738,48,80,42
293.58496,294.12067,47,80,42
294.12067,294.65637,50,80,42
294.65637,295.19208,55,80,42
295.19208,295.71664,54,80,42
295.7278,296.26352,52,80,42
296.26352,296.79922,54,80,42
296.79922,297.33493,52,80,42
297.33493,297.8595,50,80,42
297.87067,298.40637,49,80,42
298.40637,298.94208,50,85,42
298.94208,299.4778,49,90,42
299.4778,300.00235,47,95,42
300.01352,300.54922,45,100,42
300.54922,301.08493,47,100,42
301.08493,301.62067,45,100,42
301.62067,302.1452,47,100,42
302.15637,302.69208,49,100,42
302.69208,303.2278,47,90,42
303.2278,303.76352,45,80,42
303.76352,304.28806,55,70,42
304.29922,304.83493,54,60,42
304.83493,305.37067,55,60,42
305.37067,305.90637,54,60,42
305.90637,306.44208,53,60,42
306.44208,306.97778,52,60,42
306.97778,307.51352,50,60,42
307.51352,308.04922,52,60,42
308.04922,308.5738,48,60,42
308.58493,309.12067,57,60,42
309.12067,309.65637,58,60,42
309.65637,310.19208,57,60,42
310.19208,310.72778,55,60,42
310.72778,311.26352,54,60,42
311.26352,311.79922,52,60,42
311.79922,312.33493,54,60,42
312.33493,312.8595,48,60,42
312.87067,313.40637,47,60,42
313.40637,313.94208,48,65,42
313.94208,314.47778,47,70,42
314.47778,315.01352,48,75,42
315.01352,315.54922,47,80,42
315.54922,316.08493,49,85,42
316.08493,316.62064,47,90,42
316.62064,317.1452,49,95,42
317.15637,317.69208,50,100,42
317.69208,318.22778,54,100,42
318.22778,318.76352,57,100,42
318.76352,319.29922,55,100,42
319.29922,319.83493,54,100,42
319.83493,320.37064,50,87,42
320.37064,320.90637,45,74,42
320.90637,321.4309,43,60,42
321.44208,321.97778,42,60,42
321.97778,322.5135,43,60,42
322.5135,323.04922,42,60,42
323.04922,323.58493,41,60,42
323.58493,324.12064,40,60,42
324.12064,324.65637,38,60,42
324.65637,325.19208,40,60,42
325.19208,325.7166,36,60,42
325.72778,326.2635,57,60,42
326.2635,326.79922,58,62,42
326.79922,327.33493,57,64,42
327.33493,327.87064,55,66,42
327.87064,328.40637,54,68,42
328.40637,328.94208,52,70,42
328.94208,329.47778,54,72,42
329.47778,330.00235,48,74,42
330.0135,330.54922,47,76,42
330.54922,331.08493,48,79,42
331.08493,331.62064,47,82,42
331.62064,332.15634,48,85,42
332.15634,332.69208,47,88,42
332.69208,333.22778,49,91,42
333.22778,333.7635,47,94,42
333.7635,334.28806,49,97,42
334.29922,334.85477,50,100,42
334.85477,335.4103,54,100,42
335.4103,335.96588,57,100,42
335.96588,336.52142,55,100,42
336.52142,337.09836,54,100,42
337.09836,337.6753,50,87,42
337.6753,338.27527,45,74,42
338.27527,338.8628,42,60,42
338.87527,339.36487,38,40,42
355.00104,355.4906,38,40,42
402.85968,403.38422,45,60,42
403.3954,404.82397,50,60,42
405.00253,405.25922,52,60,42
405.2704,405.5271,53,60,42
405.53824,406.96683,52,60,42
407.1454,407.66995,45,63,42
407.6811,408.75253,53,64,42
408.75253,408.88644,55,66,42
408.88644,409.0204,53,66,42
409.0204,409.15433,52,66,42
409.15433,409.27707,53,66,42
409.28824,409.54495,55,66,42
409.5561,409.8128,57,66,42
409.82394,411.25253,55,66,42
411.4311,411.95566,43,71,42
411.96683,413.03824,55,72,42
413.03824,413.17218,57,76,42
413.17218,413.3061,55,76,42
413.3061,413.44003,53,76,42
413.44003,413.5628,55,76,42
413.57394,413.83066,57,76,42
413.84183,414.0985,58,78,42
414.10968,415.4378,60,80,42
415.44894,415.70566,58,80,42
415.7168,415.9735,50,80,42
415.98468,416.24136,52,80,42
416.25253,417.1454,53,80,42
417.32394,417.5918,55,80,42
417.5918,417.72574,57,75,42
417.72574,417.85968,55,73,42
417.85968,418.12753,53,71,42
418.12753,418.38422,55,66,42
418.3954,419.28824,57,60,42
420.00253,420.52707,45,60,42
420.53824,421.87753,57,60,42
421.87753,421.9668,59,63,42
421.9668,422.0561,57,63,42
422.0561,422.1454,55,63,42
422.1454,422.41324,57,63,42
422.41324,422.66992,59,63,42
422.6811,424.10965,60,63,42
424.28824,424.81277,48,68,42
424.82394,426.16324,60,69,42
426.16324,426.25253,62,73,42
426.25253,426.3418,60,73,42
426.3418,426.4311,59,73,42
426.4311,426.69894,60,73,42
426.69894,426.95566,62,74,42
426.9668,428.3954,64,75,42
428.57394,429.0985,57,81,42
429.10965,430.00253,66,83,42
430.1811,431.07394,68,87,42
431.25253,432.5918,69,91,42
432.5918,432.8485,67,96,42
432.85965,433.11636,62,97,42
433.1275,433.38422,64,98,42
433.3954,433.91992,65,100,42
433.9311,434.18777,64,100,42
434.19894,434.45563,65,94,42
434.4668,434.53375,64,88,42
434.53375,434.60074,65,87,42
434.60074,435.0025,67,86,42
435.0025,435.2704,65,75,42
435.2704,435.52707,64,68,42
435.53824,436.46414,62,60,42
436.64935,437.57526,62,60,42
437.76044,438.30444,62,60,42
438.316,438.4549,58,60,42
438.59378,438.66324,60,60,42
438.73267,438.80212,58,60,42
438.80212,438.87155,60,60,42
438.87155,439.41556,62,60,42
439.42712,439.566,60,60,42
439.7049,439.80905,58,60,42
439.91324,439.98267,57,60,42
439.98267,440.9086,62,60,42
441.09378,442.0197,62,60,42
442.2049,442.74887,62,60,42
442.76044,442.89935,58,65,42
443.03824,443.10767,60,67,42
443.17712,443.24655,58,68,42
443.24655,443.316,60,68,42
443.316,443.86,62,68,42
443.87155,444.01044,60,74,42
444.14935,444.2535,58,77,42
444.35767,444.42712,57,79,42
444.42712,445.35306,62,80,42
445.53824,446.46414,62,80,42
446.64935,447.57526,62,80,42
447.76044,448.68637,61,70,42
448.87155,449.7975,62,60,42
449.98267,450.9086,62,60,42
451.09378,451.63776,62,60,42
451.64935,451.78824,58,60,42
451.92712,451.99655,60,60,42
452.066,452.13544,58,60,42
452.13544,452.2049,60,60,42
452.2049,452.74887,62,60,42
452.76044,452.89935,60,60,42
453.03824,453.1424,58,60,42
453.24655,453.316,57,60,42
453.316,454.24194,62,60,42
454.42712,455.35306,62,60,42
455.53824,456.0822,62,60,42
456.09378,456.23267,58,60,42
456.37155,456.441,60,60,42
456.51044,456.5799,58,60,42
456.5799,456.64935,60,60,42
456.64935,457.19333,62,60,42
457.2049,457.34378,60,60,42
457.48267,457.58685,58,60,42
457.691,457.76044,57,60,42
457.76044,458.68637,62,60,42
458.87155,459.7975,57,57,42
459.98267,460.9086,57,54,42
461.09378,462.0197,57,51,42
462.2049,463.16644,50,48,42
463.35873,464.32028,50,45,42
464.51257,465.1001,50,42,42
465.11258,465.7126,45,65,42
465.7126,466.7126,47,40,42
466.9126,467.99954,45,37,42
468.21692,469.46692,43,34,42
469.71692,473.21692,45,30,42
373.37677,373.61636,67,80,45
373.62677,373.86636,60,80,45
374.37677,374.61636,43,60,45
374.62677,374.86636,36,60,45
377.37677,377.61636,65,80,45
377.62677,377.86636,58,80,45
378.37677,378.61636,41,60,45
378.62677,378.86636,46,60,45
379.37677,379.61636,57,40,45
379.62677,379.86636,62,40,45
381.37677,381.61636,57,40,45
381.62677,381.86636,62,40,45
383.37677,383.61636,50,40,45
383.62677,383.86636,55,40,45
384.37677,384.61636,50,40,45
384.62677,384.86636,55,40,45
385.12677,385.63324,50,40,45
385.12677,385.63324,57,40,45
389.50253,389.74213,67,80,45
389.75253,389.99213,60,80,45
390.50253,390.74213,43,60,45
390.75253,390.99213,36,60,45
393.50253,393.74213,65,80,45
393.75253,393.99213,58,80,45
394.50253,394.74213,41,60,45
394.75253,394.99213,46,60,45
395.50253,395.74213,57,40,45
395.75253,395.99213,62,40,45
397.50253,397.74213,57,40,45
397.75253,397.99213,62,40,45
399.50253,399.74213,50,40,45
399.75253,399.99213,55,40,45
400.50253,400.74213,50,40,45
400.75253,400.99213,55,40,45
401.25253,401.7771,50,40,45
401.25253,401.7771,57,40,45
4.0,4.8333335,50,60,42
5.0,5.8333335,50,60,42
6.0,6.8333335,49,60,42
7.0,7.8333335,49,62,42
8.0,8.833333,50,64,42
9.0,9.833333,50,66,42
10.0,10.833333,47,68,42
11.0,11.833333,47,71,42
12.0,12.833333,48,74,42
13.0,13.833333,46,77,42
14.0,14.833333,45,80,42
15.0,15.833333,43,80,42
16.0,16.862068,41,80,42
17.034481,17.896551,46,90,42
18.068964,18.861374,45,100,42
19.140392,19.932802,45,100,42
20.21182,21.045153,50,60,42
21.21182,22.045153,50,60,42
22.21182,23.045153,49,60,42
23.21182,24.045153,49,62,42
24.21182,25.045153,50,64,42
25.21182,26.045153,50,66,42
26.21182,27.045153,47,68,42
27.21182,28.045153,47,71,42
28.21182,29.045153,48,74,42
29.21182,30.045153,46,77,42
30.21182,31.045153,45,80,42
31.21182,32.045155,43,80,42
32.21182,33.073887,41,80,42
33.246304,34.10837,46,90,42
34.280785,35.073193,45,100,42
35.35221,36.144623,45,100,42
36.42364,37.256973,50,60,42
37.42364,38.256973,50,60,42
38.42364,39.256973,48,60,42
39.42364,40.256973,48,62,42
40.42364,41.256973,46,64,42
41.42364,42.256973,46,66,42
42.42364,43.256973,45,68,42
43.42364,44.256973,45,71,42
44.42364,45.256973,50,74,42
45.42364,46.256973,52,77,42
46.42364,47.256973,54,80,42
47.42364,47.913223,55,80,42
47.92364,48.413223,56,80,42
48.42364,49.256973,57,80,42
49.42364,50.256973,45,90,42
50.42364,51.163223,38,100,42
50.42364,51.163223,45,100,42
51.42364,52.163223,38,100,42
51.42364,52.163223,45,100,42
52.42364,53.256973,50,60,42
53.42364,54.256973,50,60,42
54.42364,55.256973,48,62,42
55.42364,56.256973,48,64,42
56.42364,57.256973,46,66,42
57.42364,58.256973,46,68,42
58.42364,59.256973,45,70,42
59.42364,60.256973,45,72,42
60.42364,61.28571,38,74,42
61.458122,62.32019,40,77,42
62.492603,63.38546,42,80,42
63.564034,64.088585,43,80,42
64.09975,64.6243,44,80,42
64.63546,65.52832,45,80,42
65.70689,66.59975,45,90,42
66.77831,67.600075,38,100,42
67.88943,68.29452,38,100,42
68.444984,68.98896,45,80,42
69.00054,69.25723,38,80,42
69.00054,69.39116,45,80,42
69.13447,69.39116,53,80,42
70.60768,71.13223,45,80,42
71.143394,71.40009,37,80,42
71.143394,71.53402,45,80,42
71.27732,71.53402,52,80,42
72.750534,73.27509,45,80,42
73.28625,73.542946,38,80,42
73.28625,73.67687,45,80,42
73.42018,73.67687,53,80,42
74.893394,75.417946,50,80,42
75.42911,75.6858,47,80,42
75.42911,75.81973,55,80,42
75.563034,75.81973,62,80,42
77.03625,77.5608,47,80,42
77.57196,77.82866,36,80,42
77.57196,77.962585,48,80,42
77.70589,77.962585,52,80,42
79.17911,79.70366,48,80,42
79.71482,79.97151,41,80,42
79.71482,79.97151,48,80,42
79.84875,80.105446,53,80,42
79.84875,80.105446,57,80,42
81.32196,81.57866,43,80,42
81.32196,81.712585,52,80,42
81.45589,81.712585,58,80,42
81.85767,82.11437,45,80,42
81.85767,82.2483,53,80,42
81.9916,82.2483,57,80,42
82.9291,83.1858,46,80,42
82.9291,83.319725,55,80,42
83.063034,83.319725,62,80,42
84.00053,84.26673,45,80,42
84.00053,84.405624,52,80,42
84.13942,84.405624,61,80,42
85.73301,86.04551,45,92,42
86.04551,86.344986,40,60,42
86.35801,86.61471,38,80,42
86.35801,86.748634,45,80,42
86.491936,86.748634,53,80,42
87.96515,88.4897,45,80,42
88.50086,88.75756,37,80,42
88.50086,88.89149,45,80,42
88.634796,88.89149,52,80,42
90.10801,90.63256,45,80,42
90.64372,90.90041,38,80,42
90.64372,91.03435,45,80,42
90.77765,91.03435,53,80,42
92.25086,92.77541,50,80,42
92.786575,93.043274,47,80,42
92.786575,93.1772,55,80,42
92.9205,93.1772,62,80,42
94.393715,94.918274,47,80,42
94.929436,95.18613,36,80,42
94.929436,95.32006,48,80,42
95.06336,95.32006,52,80,42
96.536575,97.06113,48,80,42
97.07229,97.32899,41,80,42
97.07229,97.32899,48,80,42
97.206215,97.46291,53,80,42
97.206215,97.46291,57,80,42
98.67943,98.93613,43,80,42
98.67943,99.07005,52,80,42
98.81336,99.07005,58,80,42
99.21514,99.47184,45,80,42
99.21514,99.60577,53,80,42
99.349075,99.60577,57,80,42
100.286575,100.54327,46,80,42
100.286575,100.6772,55,80,42
100.4205,100.6772,62,80,42
101.358,101.62421,45,80,42
101.358,101.76309,52,80,42
101.49689,101.76309,61,80,42
103.09048,103.40298,45,92,42
103.40298,103.70246,40,60,42
103.71548,103.972176,38,80,42
103.71548,104.1061,45,80,42
103.84941,104.1061,53,80,42
105.322624,105.847176,38,80,42
105.85834,106.11503,36,80,42
105.85834,106.11503,43,80,42
105.99226,106.24896,52,80,42
105.99226,106.24896,60,80,42
107.46548,107.73334,48,120,42
107.73334,107.99003,43,80,42
108.00119,108.52574,46,80,42
109.60833,110.13289,46,80,42
110.14405,110.40074,45,80,42
110.14405,110.534676,52,80,42
110.27798,110.534676,61,80,42
111.75119,112.01904,52,120,42
112.01904,112.27574,45,80,42
112.2869,112.5436,38,80,42
112.2869,112.67753,45,80,42
112.42083,112.67753,50,80,42
113.35833,113.88288,40,80,42
114.429756,114.954315,42,80,42
115.50119,116.02574,44,80,42
116.57262,116.83882,45,80,42
116.57262,116.97771,53,80,42
116.7115,116.97771,62,80,42
117.68372,117.96017,45,80,42
117.68372,118.1044,52,80,42
117.82796,118.1044,61,80,42
118.83757,119.12507,38,80,42
118.83757,119.12507,45,80,42
118.98757,119.27507,53,80,42
118.98757,119.27507,62,80,42
120.63757,120.93705,50,120,42
120.95007,121.24955,45,80,42
121.26257,121.51927,38,80,42
121.26257,121.6532,45,80,42
121.3965,121.6532,53,80,42
122.86971,123.394264,38,80,42
123.405426,123.662125,36,80,42
123.405426,123.662125,43,80,42
123.53936,123.79605,52,80,42
123.53936,123.79605,60,80,42
125.01257,125.280426,48,120,42
125.280426,125.537125,43,80,42
125.54829,126.07284,46,80,42
127.155426,127.67998,46,80,42
127.69114,127.94784,45,80,42
127.69114,128.08177,52,80,42
127.825066,128.08177,61,80,42
129.29828,129.56613,52,120,42
129.56613,129.82283,45,80,42
129.834,130.0907,38,80,42
129.834,130.22462,45,80,42
129.96793,130.22462,50,80,42
130.90543,131.42998,40,80,42
131.97685,132.5014,42,80,42
133.04828,133.57283,44,80,42
134.1197,134.38591,45,80,42
134.1197,134.5248,53,80,42
134.25859,134.5248,62,80,42
135.23082,135.50726,45,80,42
135.23082,135.65149,52,80,42
135.37505,135.65149,61,80,42
136.38466,136.6611,38,80,42
136.38466,136.6611,45,80,42
136.5289,136.80534,53,80,42
136.5289,136.80534,62,80,42
138.1385,138.42601,50,120,42
138.4385,138.72601,45,80,42
138.73851,138.98636,38,80,42
138.73851,139.24498,45,80,42
138.86783,139.24498,53,80,42
140.80748,141.05531,37,80,42
140.80748,141.31393,45,80,42
140.93678,141.31393,52,80,42
142.87643,143.12428,38,80,42
142.87643,143.3829,45,80,42
143.00575,143.3829,53,80,42
144.9454,145.80746,60,100,42
145.97989,146.84195,59,100,42
147.01437,147.87643,60,100,42
148.04884,148.91092,58,100,42
149.08333,149.9454,57,100,42
150.11781,150.97989,55,100,42
151.1523,152.01436,53,100,42
152.18678,153.04884,46,100,42
153.22125,154.11412,45,100,42
154.485,154.58115,46,100,42
154.6773,154.77345,45,100,42
154.86961,154.97377,43,100,42
155.07794,155.18211,41,100,42
155.28627,155.39044,40,100,42
155.49461,155.74246,38,80,42
155.49461,156.00107,45,80,42
155.62392,156.00107,53,80,42
157.56357,157.81142,37,80,42
157.56357,158.07004,45,80,42
157.69289,158.07004,52,80,42
159.63254,159.88039,38,80,42
159.63254,160.139,45,80,42
159.76184,160.139,53,80,42
161.7015,162.56357,60,100,42
162.73598,163.59805,59,100,42
163.77046,164.63254,60,100,42
164.80495,165.66702,58,100,42
165.83943,166.70149,57,100,42
166.87392,167.73598,55,100,42
167.9084,168.77046,53,100,42
168.94287,169.80495,46,100,42
169.97736,170.87021,45,100,42
171.24109,171.33725,46,100,42
171.4334,171.52956,45,100,42
171.6257,171.72987,43,100,42
171.83405,171.9382,41,100,42
172.04237,172.14655,40,100,42
172.2507,172.49855,38,80,42
172.2507,172.75717,45,80,42
172.38002,172.75717,53,80,42
174.31967,174.56752,36,80,42
174.31967,174.82614,48,80,42
174.44899,174.82614,52,80,42
176.38864,176.8951,46,80,42
176.38864,176.8951,55,80,42
178.4576,178.70544,45,80,42
178.4576,178.96407,52,80,42
178.58691,178.96407,57,80,42
180.52657,181.38863,50,60,42
181.56105,182.42311,52,60,42
182.59554,183.4576,54,68,42
183.63,184.49208,56,76,42
184.66449,185.52657,57,84,42
185.69897,186.56105,45,92,42
186.73346,187.65938,50,100,42
188.04457,188.14456,46,100,42
188.24457,188.34457,45,100,42
188.44456,188.55327,44,100,42
188.66196,188.77066,45,100,42
188.87935,188.98805,41,100,42
189.09674,189.34459,38,80,42
189.09674,189.60321,45,80,42
189.22606,189.60321,53,80,42
191.16571,191.41354,36,80,42
191.16571,191.67216,48,80,42
191.29501,191.67216,52,80,42
193.23466,193.74113,46,80,42
193.23466,193.74113,55,80,42
195.30363,195.55148,45,80,42
195.30363,195.8101,52,80,42
195.43294,195.8101,57,80,42
197.3726,198.23466,50,60,42
198.40707,199.26915,52,60,42
199.44156,200.30363,54,68,42
200.47604,201.3381,56,76,42
201.51053,202.37259,57,84,42
202.54501,203.40707,45,92,42
203.57948,204.47235,50,100,42
204.8361,204.9287,46,100,42
205.02129,205.11388,45,100,42
205.20647,205.29907,44,87,42
205.39166,205.48425,45,74,42
205.57684,205.66943,41,60,42
205.76202,205.87662,38,60,42
205.88702,206.00162,40,60,42
206.01202,206.12662,41,65,42
206.13702,206.25162,43,70,42
206.26202,206.37662,45,76,42
206.38702,206.50162,47,82,42
206.51202,206.62662,49,88,42
206.63702,206.75162,50,94,42
206.76202,206.87662,49,100,42
206.88702,207.00162,46,100,42
207.01202,207.12662,45,95,42
207.13702,207.25162,43,90,42
207.26202,207.37662,41,84,42
207.38702,207.50162,40,78,42
207.51202,207.62662,38,72,42
207.63702,207.75162,37,66,42
207.76202,207.87662,38,60,42
207.88702,208.00162,40,60,42
208.01202,208.12662,41,65,42
208.13702,208.25162,43,70,42
208.26202,208.37662,45,76,42
208.38702,208.50162,47,82,42
208.51202,208.62662,49,88,42
208.63702,208.75162,50,94,42
208.76202,208.87662,48,100,42
208.88702,209.00162,46,100,42
209.01202,209.12662,45,95,42
209.13702,209.25162,43,90,42
209.26202,209.37662,42,84,42
209.38702,209.50162,39,78,42
209.51202,209.62662,38,72,42
209.63702,209.75162,36,66,42
209.76202,209.87662,43,60,42
209.88702,210.00162,36,60,42
210.01202,210.12662,38,65,42
210.13702,210.25162,40,70,42
210.26202,210.37662,42,76,42
210.38702,210.50162,43,82,42
210.51202,210.62662,45,88,42
210.63702,210.75162,47,94,42
210.76202,210.87662,48,100,42
210.88702,211.00162,46,100,42
211.01202,211.12662,45,95,42
211.13702,211.25162,43,90,42
211.26202,211.37662,42,84,42
211.38702,211.50162,39,78,42
211.51202,211.62662,38,72,42
211.63702,211.75162,36,66,42
211.76202,211.87662,43,60,42
211.88702,212.00162,36,60,42
212.01202,212.12662,38,65,42
212.13702,212.25162,40,70,42
212.26202,212.37662,42,76,42
212.38702,212.50162,43,82,42
212.51202,212.62662,45,88,42
212.63702,212.75162,47,94,42
212.76202,212.87662,53,100,42
212.88702,213.00162,51,100,42
213.01202,213.12662,50,92,42
213.13702,213.25162,48,84,42
213.26202,213.37662,47,76,42
213.38702,213.50162,44,68,42
213.51202,213.62662,43,60,42
213.63702,213.75162,42,60,42
213.76202,213.87662,40,100,42
213.88702,214.00162,41,100,42
214.01202,214.12662,43,100,42
214.13702,214.25162,45,100,42
214.26202,214.37662,47,100,42
214.38702,214.50162,48,100,42
214.51202,214.62662,50,100,42
214.63702,214.75162,52,100,42
214.76202,214.87662,46,100,42
214.88702,215.00162,48,100,42
215.01202,215.12662,50,100,42
215.13702,215.25162,52,100,42
215.26202,215.37662,53,100,42
215.38702,215.50162,55,100,42
215.51202,215.62662,57,100,42
215.63702,215.75162,58,100,42
215.76202,215.87662,45,100,42
215.88702,216.00162,46,100,42
216.01202,216.12662,48,100,42
216.13702,216.25162,50,100,42
216.26202,216.37662,52,100,42
216.38702,216.50162,53,100,42
216.51202,216.62662,55,100,42
216.63702,216.75162,57,100,42
216.76202,216.87662,52,100,42
216.88702,217.00162,53,100,42
217.01202,217.12662,55,100,42
217.13702,217.25162,57,100,42
217.26202,217.37662,58,100,42
217.38702,217.50162,60,100,42
217.51202,217.62662,62,100,42
217.63702,217.75162,64,100,42
217.76202,217.87662,53,100,42
217.88702,218.00162,55,100,42
218.01202,218.12662,57,100,42
218.13702,218.25162,58,100,42
218.26202,218.37662,60,100,42
218.38702,218.50162,62,100,42
218.51202,218.62662,64,100,42
218.63702,218.75162,65,100,42
218.76202,218.87662,52,100,42
218.88702,219.00162,54,100,42
219.01202,219.12662,56,100,42
219.13702,219.25162,57,100,42
219.26202,219.37662,59,100,42
219.38702,219.50162,61,100,42
219.51202,219.62662,62,100,42
219.63702,219.75162,64,100,42
219.76202,220.00162,45,100,42
219.76202,220.25162,52,100,42
219.88702,220.25162,61,100,42
221.76202,221.87662,38,60,42
221.88702,222.00162,40,60,42
222.01202,222.12662,41,65,42
222.13702,222.25162,43,70,42
222.26202,222.37662,45,76,42
222.38702,222.50162,47,82,42
222.51202,222.62662,49,88,42
222.63702,222.75162,50,94,42
222.76202,222.87662,49,100,42
222.88702,223.00162,46,100,42
223.01202,223.12662,45,95,42
223.13702,223.25162,43,90,42
223.26202,223.37662,41,84,42
223.38702,223.50162,40,78,42
223.51202,223.62662,38,72,42
223.63702,223.75162,37,66,42
223.76202,223.87662,38,60,42
223.88702,224.00162,40,60,42
224.01202,224.12662,41,65,42
224.13702,224.25162,43,70,42
224.26202,224.37662,45,76,42
224.38702,224.50162,47,82,42
224.51202,224.62662,49,88,42
224.63702,224.75162,50,94,42
224.76202,224.87662,48,100,42
224.88702,225.00162,46,100,42
225.01202,225.12662,45,95,42
225.13702,225.25162,43,90,42
225.26202,225.37662,42,84,42
225.38702,225.50162,39,78,42
225.51202,225.62662,38,72,42
225.63702,225.75162,36,66,42
225.76202,225.87662,43,60,42
225.88702,226.00162,36,60,42
226.01202,226.12662,38,65,42
226.13702,226.25162,40,70,42
226.26202,226.37662,42,76,42
226.38702,226.50162,43,82,42
226.51202,226.62662,45,88,42
226.63702,226.75162,47,94,42
226.76202,226.87662,48,100,42
226.88702,227.00162,46,100,42
227.01202,227.12662,45,95,42
227.13702,227.25162,43,90,42
227.26202,227.37662,42,84,42
227.38702,227.50162,39,78,42
227.51202,227.62662,38,72,42
227.63702,227.75162,36,66,42
227.76202,227.87662,43,60,42
227.88702,228.00162,36,60,42
228.01202,228.12662,38,65,42
228.13702,228.25162,40,70,42
228.26202,228.37662,42,76,42
228.38702,228.50162,43,82,42
228.51202,228.62662,45,88,42
228.63702,228.75162,47,94,42
228.76202,228.87662,53,100,42
228.88702,229.00162,51,100,42
229.01202,229.12662,50,92,42
229.13702,229.25162,48,84,42
229.26202,229.37662,47,76,42
229.38702,229.50162,44,68,42
229.51202,229.62662,43,60,42
229.63702,229.75162,42,60,42
229.76202,229.87662,40,100,42
229.88702,230.00162,41,100,42
230.01202,230.12662,43,100,42
230.13702,230.25162,45,100,42
230.26202,230.37662,47,100,42
230.38702,230.50162,48,100,42
230.51202,230.62662,50,100,42
230.63702,230.75162,52,100,42
230.76202,230.87662,46,100,42
230.88702,231.00162,48,100,42
231.01202,231.12662,50,100,42
231.13702,231.25162,52,100,42
231.26202,231.37662,53,100,42
231.38702,231.50162,55,100,42
231.51202,231.62662,57,100,42
231.63702,231.75162,58,100,42
231.76202,231.87662,45,100,42
231.88702,232.00162,46,100,42
232.01202,232.12662,48,100,42
232.13702,232.25162,50,100,42
232.26202,232.37662,52,100,42
232.38702,232.50162,53,100,42
232.51202,232.62662,55,100,42
232.63702,232.75162,57,100,42
232.76202,232.87662,52,100,42
232.88702,233.00162,53,100,42
233.01202,233.12662,55,100,42
233.13702,233.25162,57,100,42
233.26202,233.37662,58,100,42
233.38702,233.50162,60,100,42
233.51202,233.62662,62,100,42
233.63702,233.75162,64,100,42
233.76202,233.87662,53,100,42
233.88702,234.00162,55,100,42
234.01202,234.12662,57,100,42
234.13702,234.25162,58,100,42
234.26202,234.37662,60,100,42
234.38702,234.50162,62,100,42
234.51202,234.62662,64,100,42
234.63702,234.75162,65,100,42
234.76202,234.87662,52,100,42
234.88702,235.00162,54,100,42
235.01202,235.12662,56,100,42
235.13702,235.25162,57,100,42
235.26202,235.37662,59,100,42
235.38702,235.50162,61,100,42
235.51202,235.62662,62,100,42
235.63702,235.75162,64,100,42
235.76202,236.00162,45,100,42
235.76202,236.25162,52,100,42
235.88702,236.25162,61,100,42
237.76202,237.88702,38,60,42
237.88702,238.01202,40,60,42
238.01202,238.13702,41,65,42
238.13702,238.26202,43,70,42
238.26202,238.38702,45,76,42
238.38702,238.51202,47,82,42
238.51202,238.63702,49,88,42
238.63702,238.75162,50,94,42
238.76202,238.88702,49,100,42
238.88702,239.01202,48,100,42
239.01202,239.13702,46,95,42
239.13702,239.26202,44,90,42
239.26202,239.38702,42,84,42
239.38702,239.51202,41,78,42
239.51202,239.63702,39,72,42
239.63702,239.75162,37,66,42
239.76202,239.88702,36,60,42
239.88702,240.01202,38,60,42
240.01202,240.13702,40,65,42
240.13702,240.26202,41,70,42
240.26202,240.38702,43,76,42
240.38702,240.51202,45,82,42
240.51202,240.63702,47,88,42
240.63702,240.75162,48,94,42
240.76202,240.88702,47,100,42
240.88702,241.01202,44,100,42
241.01202,241.13702,43,95,42
241.13702,241.26202,41,90,42
241.26202,241.38702,40,84,42
241.38702,241.51202,38,78,42
241.51202,241.63702,36,72,42
241.63702,241.75162,43,66,42
241.76202,241.88702,36,60,42
241.88702,242.01202,38,60,42
242.01202,242.13702,40,65,42
242.13702,242.26202,41,70,42
242.26202,242.38702,43,76,42
242.38702,242.51202,45,82,42
242.51202,242.63702,47,88,42
242.63702,242.75162,48,94,42
242.76202,242.88702,51,100,42
242.88702,243.01202,50,100,42
243.01202,243.13702,48,95,42
243.13702,243.26202,46,90,42
243.26202,243.38702,44,84,42
243.38702,243.51202,43,78,42
243.51202,243.63702,41,72,42
243.63702,243.75162,39,66,42
243.76202,243.88702,38,60,42
243.88702,244.01202,40,60,42
244.01202,244.13702,42,65,42
244.13702,244.26202,43,70,42
244.26202,244.38702,45,76,42
244.38702,244.51202,47,82,42
244.51202,244.63702,49,88,42
244.63702,244.75162,50,94,42
244.76202,244.88702,49,100,42
244.88702,245.01202,46,100,42
245.01202,245.13702,45,95,42
245.13702,245.26202,43,90,42
245.26202,245.38702,42,84,42
245.38702,245.51202,40,78,42
245.51202,245.63702,38,72,42
245.63702,245.75162,37,66,42
245.76202,245.88702,38,60,42
245.88702,246.01202,40,60,42
246.01202,246.13702,42,65,42
246.13702,246.26202,44,70,42
246.26202,246.38702,45,76,42
246.38702,246.51202,47,82,42
246.51202,246.63702,49,88,42
246.63702,246.75162,50,94,42
246.76202,246.88702,40,100,42
246.88702,247.01202,42,100,42
247.01202,247.13702,44,100,42
247.13702,247.26202,45,100,42
247.26202,247.38702,47,100,42
247.38702,247.51202,49,100,42
247.51202,247.63702,50,100,42
247.63702,247.75162,52,100,42
247.76202,247.88702,42,100,42
247.88702,248.01202,44,100,42
248.01202,248.13702,45,100,42
248.13702,248.26202,47,100,42
248.26202,248.38702,49,100,42
248.38702,248.51202,50,100,42
248.51202,248.63702,52,100,42
248.63702,248.75162,54,100,42
248.76202,248.88702,44,100,42
248.88702,249.01202,45,100,42
249.01202,249.13702,47,100,42
249.13702,249.26202,49,100,42
249.26202,249.38702,50,100,42
249.38702,249.51202,52,100,42
249.51202,249.63702,54,100,42
249.63702,249.75162,56,100,42
249.76202,249.88702,45,100,42
249.88702,250.01202,47,100,42
250.01202,250.13702,49,100,42
250.13702,250.26202,50,100,42
250.26202,250.38702,52,100,42
250.38702,250.51202,53,100,42
250.51202,250.63702,55,100,42
250.63702,250.75162,57,100,42
250.76202,250.88702,45,100,42
250.88702,251.01202,47,100,42
251.01202,251.13702,49,100,42
251.13702,251.26202,50,100,42
251.26202,251.38702,52,100,42
251.38702,251.51202,53,100,42
251.51202,251.63702,55,100,42
251.63702,251.75162,57,100,42
251.76202,252.6241,38,100,42
252.79651,253.0532,45,100,42
252.79651,253.32106,53,100,42
252.93044,253.32106,62,100,42
253.88779,254.01279,38,60,42
254.01279,254.13779,40,60,42
254.13779,254.26279,41,65,42
254.26279,254.38779,43,70,42
254.38779,254.51279,45,76,42
254.51279,254.63779,47,82,42
254.63779,254.76279,49,88,42
254.76279,254.87737,50,94,42
254.88779,255.01279,49,100,42
255.01279,255.13779,48,100,42
255.13779,255.26279,46,95,42
255.26279,255.38779,44,90,42
255.38779,255.51279,42,84,42
255.51279,255.63779,41,78,42
255.63779,255.76279,39,72,42
255.76279,255.87737,37,66,42
255.88779,256.0128,36,60,42
256.0128,256.1378,38,60,42
256.1378,256.2628,40,65,42
256.2628,256.3878,41,70,42
256.3878,256.5128,43,76,42
256.5128,256.6378,45,82,42
256.6378,256.7628,47,88,42
256.7628,256.87735,48,94,42
256.8878,257.0128,47,100,42
257.0128,257.1378,44,100,42
257.1378,257.2628,43,95,42
257.2628,257.3878,41,90,42
257.3878,257.5128,40,84,42
257.5128,257.6378,38,78,42
257.6378,257.7628,36,72,42
257.7628,257.87735,43,66,42
257.8878,258.0128,36,60,42
258.0128,258.1378,38,60,42
258.1378,258.2628,40,65,42
258.2628,258.3878,41,70,42
258.3878,258.5128,43,76,42
258.5128,258.6378,45,82,42
258.6378,258.7628,47,88,42
258.7628,258.87735,48,94,42
258.8878,259.0128,51,100,42
259.0128,259.1378,50,100,42
259.1378,259.2628,48,95,42
259.2628,259.3878,46,90,42
259.3878,259.5128,44,84,42
259.5128,259.6378,43,78,42
259.6378,259.7628,41,72,42
259.7628,259.87735,39,66,42
259.8878,260.0128,38,60,42
260.0128,260.1378,40,60,42
260.1378,260.2628,42,65,42
260.2628,260.3878,43,70,42
260.3878,260.5128,45,76,42
260.5128,260.6378,47,82,42
260.6378,260.7628,49,88,42
260.7628,260.87735,50,94,42
260.8878,261.0128,49,100,42
261.0128,261.1378,46,100,42
261.1378,261.2628,45,95,42
261.2628,261.3878,43,90,42
261.3878,261.5128,42,84,42
261.5128,261.6378,40,78,42
261.6378,261.7628,38,72,42
261.7628,261.87735,37,66,42
261.8878,262.0128,38,60,42
262.0128,262.1378,40,60,42
262.1378,262.2628,42,65,42
262.2628,262.3878,44,70,42
262.3878,262.5128,45,76,42
262.5128,262.6378,47,82,42
262.6378,262.7628,49,88,42
262.7628,262.87735,50,94,42
262.8878,263.0128,40,100,42
263.0128,263.1378,42,100,42
263.1378,263.2628,44,100,42
263.2628,263.3878,45,100,42
263.3878,263.5128,47,100,42
263.5128,263.6378,49,100,42
263.6378,263.7628,50,100,42
263.7628,263.87735,52,100,42
263.8878,264.0128,42,100,42
264.0128,264.1378,44,100,42
264.1378,264.2628,45,100,42
264.2628,264.3878,47,100,42
264.3878,264.5128,49,100,42
264.5128,264.6378,50,100,42
264.6378,264.7628,52,100,42
264.7628,264.87735,54,100,42
264.8878,265.0128,44,100,42
265.0128,265.1378,45,100,42
265.1378,265.2628,47,100,42
265.2628,265.3878,49,100,42
265.3878,265.5128,50,100,42
265.5128,265.6378,52,100,42
265.6378,265.7628,54,100,42
265.7628,265.87735,56,100,42
265.8878,266.0128,45,100,42
266.0128,266.1378,47,100,42
266.1378,266.2628,49,100,42
266.2628,266.3878,50,100,42
266.3878,266.5128,52,100,42
266.5128,266.6378,53,100,42
266.6378,266.7628,55,100,42
266.7628,266.87735,57,100,42
266.8878,267.0128,45,100,42
267.0128,267.1378,47,100,42
267.1378,267.2628,49,100,42
267.2628,267.3878,50,100,42
267.3878,267.5128,52,100,42
267.5128,267.6378,53,100,42
267.6378,267.7628,55,100,42
267.7628,267.87735,57,100,42
267.8878,268.74985,38,100,42
268.92227,269.17896,45,100,42
268.92227,269.4468,53,100,42
269.05618,269.4468,62,100,42
270.01352,270.9064,38,80,42
271.08496,271.9778,38,80,42
272.1564,273.04926,37,80,42
273.2278,274.12067,37,80,42
274.29926,275.1921,38,80,42
275.37067,276.26352,38,80,42
276.4421,277.33496,43,80,42
277.51352,278.40637,43,80,42
278.58496,279.4778,49,80,42
279.65637,280.54926,47,80,42
280.7278,281.62067,45,80,42
281.79922,282.6921,43,80,42
282.87067,283.76352,42,80,42
283.9421,284.46664,41,80,42
284.4778,285.00235,40,80,42
285.01352,285.90637,45,80,42
286.08496,286.9778,45,80,42
287.15637,288.04922,38,100,42
288.2278,289.12067,38,100,42
289.29922,290.19208,37,100,42
290.37067,291.26352,37,100,42
291.44208,292.33496,38,100,42
292.51352,293.40637,38,100,42
293.58496,294.4778,43,100,42
294.65637,295.54922,43,100,42
295.7278,296.62067,49,100,42
296.79922,297.69208,47,100,42
297.87067,298.76352,45,100,42
298.94208,299.83493,43,100,42
300.01352,300.90637,42,100,42
301.08493,301.6095,41,100,42
301.62067,302.1452,40,100,42
302.15637,303.04922,45,80,42
303.2278,304.12067,45,60,42
304.29922,305.19208,38,80,42
305.37067,306.26352,38,80,42
306.44208,307.33493,36,80,42
307.51352,308.40637,36,82,42
308.58493,309.47778,41,84,42
309.65637,310.54922,39,86,42
310.72778,311.62067,38,88,42
311.79922,312.69208,38,90,42
312.87067,313.76352,43,92,42
313.94208,314.83493,42,94,42
315.01352,315.90637,43,96,42
316.08493,316.97778,44,98,42
317.15637,318.04922,45,100,42
318.22778,319.12064,45,100,42
319.29922,320.19208,38,80,42
320.37064,321.26352,38,60,42
321.44208,322.33493,38,80,42
322.5135,323.40637,38,80,42
323.58493,324.47778,36,80,42
324.65637,325.54922,36,82,42
325.72778,326.62064,41,84,42
326.79922,327.69208,39,86,42
327.87064,329.74564,38,88,42
330.0135,330.90634,43,92,42
331.08493,331.97778,42,94,42
332.15634,333.04922,43,96,42
333.22778,334.12064,44,98,42
334.29922,335.22513,45,100,42
335.4103,336.33624,45,100,42
336.52142,337.48297,38,80,42
337.6753,338.6753,38,60,42
403.3954,404.28824,38,60,42
403.3954,404.28824,45,60,42
404.46683,405.35968,38,60,42
404.46683,405.35968,45,60,42
405.53824,406.4311,37,60,42
405.53824,406.4311,45,60,42
406.60968,407.50253,37,60,42
406.60968,407.50253,45,60,42
407.6811,408.57394,38,60,42
407.6811,408.57394,45,60,42
408.75253,409.6454,50,60,42
409.82394,410.71683,47,60,42
409.82394,410.71683,50,60,42
410.8954,411.78824,47,60,42
410.8954,411.78824,55,60,42
411.96683,412.85968,48,60,42
413.03824,413.9311,46,60,42
414.10968,415.00253,45,60,42
415.1811,416.07394,43,60,42
416.25253,417.1454,41,60,42
417.32394,418.2168,46,60,42
418.3954,419.28824,45,60,42
419.4668,420.35968,45,60,42
420.53824,421.4311,38,60,42
421.60968,422.50253,38,60,42
422.6811,423.57394,36,60,42
423.75253,424.6454,36,60,42
424.82394,425.7168,46,60,42
425.8954,426.78824,46,65,42
426.9668,427.85965,45,70,42
428.03824,428.9311,45,75,42
429.10965,430.00253,50,80,42
430.1811,431.07394,52,85,42
431.25253,432.1454,54,90,42
432.32394,432.8485,55,95,42
432.85965,433.38422,56,97,42
433.3954,434.28824,57,100,42
434.4668,435.35965,45,80,42
435.53824,436.46414,38,60,42
436.64935,437.57526,38,60,42
437.76044,438.68637,38,60,42
438.87155,439.7975,38,60,42
439.98267,440.9086,38,60,42
441.09378,442.0197,38,60,42
442.2049,443.13083,38,60,42
443.316,444.24194,38,70,42
444.42712,445.35306,38,80,42
445.53824,446.46414,38,80,42
446.64935,447.57526,45,80,42
447.76044,448.68637,45,70,42
448.87155,449.7975,38,60,42
449.98267,450.9086,38,60,42
451.09378,452.0197,38,60,42
452.2049,453.13083,38,60,42
453.316,454.24194,38,60,42
454.42712,455.35306,38,60,42
455.53824,456.46414,38,60,42
456.64935,457.57526,38,60,42
457.76044,458.68637,38,60,42
458.87155,459.7975,45,57,42
459.98267,460.9086,45,54,42
461.09378,462.0197,45,51,42
462.2049,463.16644,38,48,42
463.35873,464.32028,38,45,42
463.35873,464.32028,43,45,42
464.51257,465.51257,38,42,42
464.51257,465.51257,45,42,42
465.7126,466.7126,38,39,42
465.7126,466.7126,43,39,42
466.9126,467.99954,38,36,42
466.9126,467.99954,45,36,42
468.21692,469.46692,38,33,42
468.21692,469.46692,43,33,42
469.71692,473.21692,38,30,42
469.71692,473.21692,45,30,42
373.87677,374.11636,55,80,45
374.12677,374.36636,48,80,45
377.87677,378.11636,53,80,45
378.12677,378.36636,46,80,45
378.87677,379.11636,50,60,45
379.12677,379.61636,45,60,45
379.87677,380.11636,45,40,45
380.12677,380.36636,50,40,45
380.37677,380.61636,45,40,45
380.62677,380.86636,50,40,45
380.87677,381.11636,45,40,45
381.12677,381.61636,50,40,45
381.87677,382.11636,45,40,45
382.12677,382.36636,50,40,45
382.37677,382.61636,45,40,45
382.62677,382.86636,50,40,45
382.87677,383.11636,38,40,45
383.12677,383.61636,43,40,45
383.87677,384.11636,38,40,45
384.12677,384.61636,43,40,45
384.87677,385.11636,46,40,45
385.12677,385.63324,38,40,45
385.12677,385.63324,45,40,45
390.00253,390.24213,55,80,45
390.25253,390.49213,48,80,45
394.00253,394.24213,53,80,45
394.25253,394.49213,46,80,45
395.00253,395.24213,50,60,45
395.25253,395.74213,45,60,45
396.00253,396.24213,45,40,45
396.25253,396.49213,50,40,45
396.50253,396.74213,45,40,45
396.75253,396.99213,50,40,45
397.00253,397.24213,45,40,45
397.25253,397.74213,50,40,45
398.00253,398.24213,45,40,45
398.25253,398.49213,50,40,45
398.50253,398.74213,45,40,45
398.75253,398.99213,50,40,45
399.00253,399.24213,38,40,45
399.25253,399.74213,43,40,45
400.00253,400.24213,38,40,45
400.25253,400.74213,43,40,45
401.00253,401.24213,46,40,45
401.25253,401.7771,38,40,45
401.25253,401.7771,45,40,45
476.71692,477.6961,45,10,42
