start_time,end_time,note_value,velocity,instrument_program_number
0.9,1.0666665,60,60,40
1.233333,1.3999995,65,60,40
1.566666,1.7333325,67,60,40
1.899999,2.0666654,69,60,40
2.233332,2.3999984,65,60,40
2.566665,2.6499982,67,60,40
2.6499982,2.7333314,69,60,40
2.7333314,2.899998,67,60,40
2.899998,3.0666645,69,60,40
3.233331,3.3999975,65,60,40
3.566664,3.7333305,70,60,40
3.899997,4.0666633,69,60,40
4.23333,4.3999963,65,60,40
4.566663,4.6499963,67,60,40
4.6499963,4.7333293,69,60,40
4.7333293,4.899996,67,60,40
4.899996,5.0666623,69,60,40
5.233329,5.3999953,65,60,40
5.566662,5.7333283,74,60,40
5.899995,6.0666614,72,60,40
6.233328,6.3999944,69,60,40
6.566661,6.7333274,74,60,40
6.7333274,6.8965216,70,60,40
6.899994,7.483327,69,60,40
7.56666,7.7333264,77,65,40
7.7333264,7.8965206,74,66,40
7.899993,8.483326,72,67,40
8.566659,8.733326,81,72,40
8.733326,8.89652,77,73,40
8.899992,9.063187,74,74,40
9.066659,9.229853,76,75,40
9.233325,9.39652,77,76,40
9.399991,9.563186,76,77,40
9.566658,9.729853,77,78,40
9.733324,9.896519,79,79,40
9.899991,10.063186,76,80,40
10.066657,10.229852,77,81,40
10.233324,10.396519,79,82,40
10.39999,10.563185,77,83,40
10.566657,10.729852,79,84,40
10.733323,10.896518,81,86,40
10.89999,11.066894,77,88,40
11.070444,11.237348,79,90,40
11.240899,11.411684,81,92,40
11.415318,11.5861025,83,94,40
11.589736,11.764586,84,96,40
11.768307,11.943158,86,98,40
11.946878,12.571877,88,100,40
13.018304,13.184971,60,60,40
13.351637,13.518304,65,60,40
13.68497,13.851637,67,60,40
14.018303,14.18497,69,60,40
14.351636,14.518303,65,60,40
14.684969,14.768302,67,60,40
14.768302,14.851636,69,60,40
14.851636,15.018302,67,60,40
15.018302,15.184969,69,60,40
15.351635,15.518302,65,60,40
15.684968,15.851634,70,60,40
16.018301,16.184967,69,60,40
16.351633,16.518301,65,60,40
16.684967,16.768301,67,60,40
16.768301,16.851633,69,60,40
16.851633,17.0183,67,60,40
17.0183,17.184967,69,60,40
17.351633,17.5183,65,60,40
17.684965,17.851633,74,60,40
18.0183,18.184965,72,60,40
18.351631,18.5183,69,60,40
18.684965,18.851631,74,60,40
18.851631,19.014826,70,60,40
19.018297,19.601631,69,60,40
19.684963,19.851631,77,65,40
19.851631,20.014824,74,66,40
20.018297,20.60163,72,67,40
20.684963,20.85163,81,72,40
20.85163,21.014824,77,73,40
21.018295,21.18149,74,74,40
21.184963,21.348156,76,75,40
21.35163,21.514824,77,76,40
21.518295,21.68149,76,77,40
21.684961,21.848156,77,78,40
21.85163,22.014822,79,79,40
22.018295,22.18149,76,80,40
22.184961,22.348156,77,81,40
22.351627,22.514822,79,82,40
22.518295,22.681488,77,83,40
22.684961,22.848156,79,84,40
22.851627,23.014822,81,86,40
23.018293,23.185198,77,88,40
23.18875,23.355652,79,90,40
23.359203,23.529987,81,92,40
23.53362,23.704407,83,94,40
23.70804,23.88289,84,96,40
23.886612,24.061462,86,98,40
24.065182,24.69018,88,100,40
25.136608,25.386608,72,60,40
25.46994,25.636608,77,60,40
25.803274,25.886608,79,60,40
25.886608,25.96994,80,60,40
25.96994,26.136606,79,60,40
26.136606,26.71994,80,60,40
26.803272,27.136606,72,92,40
26.803272,27.136606,80,92,40
27.136606,27.719938,73,60,40
27.136606,27.719938,80,60,40
27.803272,28.136604,72,92,40
27.803272,28.136604,80,92,40
28.136604,28.719938,73,60,40
28.136604,28.719938,80,60,40
28.80327,29.136604,73,92,40
28.80327,29.136604,82,92,40
29.136604,29.719936,73,60,40
29.136604,29.719936,82,60,40
29.80327,29.969936,82,60,40
29.969936,30.136602,84,60,40
30.136602,30.30327,82,60,40
30.30327,30.469936,80,60,40
30.469936,30.636602,79,60,40
30.636602,30.799797,80,61,40
30.803268,31.136602,82,94,40
31.136602,31.719934,82,64,40
31.803268,31.969934,82,68,40
31.969934,32.1366,84,69,40
32.1366,32.30327,82,69,40
32.30327,32.469933,80,70,40
32.469933,32.6366,79,71,40
32.6366,32.799793,80,72,40
32.80327,33.1366,82,105,40
33.1366,33.733192,82,75,40
33.818417,33.988873,82,79,40
33.988873,34.15933,84,80,40
34.15933,34.335796,82,81,40
34.335796,34.512268,80,82,40
34.512268,34.68874,79,83,40
34.68874,34.861534,82,84,40
34.865208,35.21815,83,125,40
35.21815,35.52303,83,87,40
35.584003,35.76693,79,89,40
35.76693,35.949856,83,90,40
35.949856,36.31571,84,127,40
36.31571,36.62821,84,93,40
36.69071,36.81571,82,95,40
36.81571,36.94071,79,95,40
36.94071,37.06571,76,96,40
37.06571,37.16186,72,97,40
37.16186,37.258015,70,97,40
37.258015,37.35417,67,98,40
37.35417,37.446316,64,99,40
37.450325,37.61699,60,100,40
37.783657,37.950325,65,60,40
38.11699,38.283657,67,60,40
38.45032,38.61699,69,60,40
38.783657,38.95032,65,60,40
39.11699,39.20032,67,60,40
39.20032,39.283657,69,60,40
39.283657,39.45032,67,60,40
39.45032,39.61699,69,60,40
39.783653,39.95032,65,60,40
40.11699,40.283653,70,60,40
40.45032,40.61699,69,60,40
40.783653,40.95032,65,60,40
41.116985,41.20032,67,60,40
41.20032,41.283653,69,60,40
41.283653,41.45032,67,60,40
41.45032,41.616985,69,60,40
41.783653,41.95032,65,60,40
42.116985,42.283653,74,60,40
42.450317,42.616985,72,60,40
42.783653,42.950317,69,60,40
43.116985,43.283653,74,60,40
43.283653,43.446846,70,60,40
43.450317,44.03365,69,60,40
44.116985,44.28365,77,62,40
44.28365,44.446846,74,62,40
44.450317,45.03365,72,62,40
45.11698,45.28365,81,64,40
45.28365,45.446842,77,64,40
45.450317,46.03365,76,64,40
46.11698,46.28365,76,67,40
46.28365,46.450314,77,67,40
46.450314,46.61698,76,67,40
46.61698,46.78365,74,67,40
46.78365,46.950314,72,67,40
46.950314,47.11351,74,67,40
47.11698,48.033646,76,67,40
48.11698,48.283646,76,71,40
48.283646,48.450314,77,71,40
48.450314,48.616978,76,71,40
48.616978,48.783646,74,71,40
48.783646,48.950314,72,71,40
48.950314,49.113506,74,72,40
49.116978,50.033646,76,73,40
50.116978,50.283646,76,79,40
50.283646,50.45031,77,80,40
50.45031,50.616978,76,81,40
50.616978,50.783646,74,82,40
50.783646,50.95031,72,83,40
50.95031,51.113506,74,84,40
51.116978,51.28364,76,85,40
51.28364,51.45031,77,86,40
51.45031,51.616978,76,87,40
51.616978,51.78364,74,88,40
51.78364,51.95031,72,89,40
51.95031,52.113503,74,90,40
52.116978,52.28017,76,91,40
52.28364,52.44684,77,92,40
52.45031,52.617214,79,93,40
52.62076,52.787666,81,94,40
52.791218,52.962,82,95,40
52.965637,53.13642,84,96,40
53.140057,53.314907,86,97,40
53.318626,53.493477,88,98,40
53.497196,53.794815,89,100,40
54.03291,54.20776,84,80,40
54.21148,54.386333,86,80,40
54.390053,54.564903,88,90,40
54.568623,54.86624,89,100,40
55.64005,55.89005,72,60,40
55.97338,56.14005,77,60,40
56.306713,56.39005,79,60,40
56.39005,56.47338,80,60,40
56.47338,56.64005,79,60,40
56.64005,57.22338,80,60,40
57.306713,57.640045,72,92,40
57.306713,57.640045,80,92,40
57.640045,58.22338,73,60,40
57.640045,58.22338,80,60,40
58.306713,58.640045,72,92,40
58.306713,58.640045,80,92,40
58.640045,59.223377,73,60,40
58.640045,59.223377,80,60,40
59.306713,59.640045,73,92,40
59.306713,59.640045,82,92,40
59.640045,60.223377,73,60,40
59.640045,60.223377,82,60,40
60.30671,60.473377,82,60,40
60.473377,60.640045,84,60,40
60.640045,60.80671,82,60,40
60.80671,60.973377,80,60,40
60.973377,61.140045,79,60,40
61.140045,61.303238,80,61,40
61.30671,61.64004,82,94,40
61.64004,62.223377,82,64,40
62.30671,62.473377,82,68,40
62.473377,62.64004,84,69,40
62.64004,62.80671,82,69,40
62.80671,62.973373,80,70,40
62.973373,63.14004,79,71,40
63.14004,63.303234,80,72,40
63.30671,63.64004,82,105,40
63.64004,64.23663,82,75,40
64.32186,64.49232,82,79,40
64.49232,64.662766,84,80,40
64.662766,64.83924,82,81,40
64.83924,65.01571,80,82,40
65.01571,65.19218,79,83,40
65.19218,65.364975,82,84,40
65.36865,65.72159,83,125,40
65.72159,66.02647,83,87,40
66.08744,66.27037,79,89,40
66.27037,66.4533,83,90,40
66.4533,66.81915,84,127,40
66.81915,67.13165,84,93,40
67.19415,67.31915,82,95,40
67.31915,67.44415,79,95,40
67.44415,67.56915,76,96,40
67.56915,67.665306,72,97,40
67.665306,67.76146,70,97,40
67.76146,67.85761,67,98,40
67.85761,67.94976,64,99,40
67.953766,68.12043,60,100,40
68.2871,68.453766,65,60,40
68.62043,68.787094,67,60,40
68.953766,69.12043,69,60,40
69.287094,69.453766,65,60,40
69.62043,69.703766,67,60,40
69.703766,69.787094,69,60,40
69.787094,69.953766,67,60,40
69.953766,70.12043,69,60,40
70.287094,70.453766,65,60,40
70.62043,70.787094,70,60,40
70.95376,71.12043,69,60,40
71.287094,71.45376,65,60,40
71.62043,71.70376,67,60,40
71.70376,71.787094,69,60,40
71.787094,71.95376,67,60,40
71.95376,72.12043,69,60,40
72.287094,72.45376,65,60,40
72.62043,72.787094,74,60,40
72.95376,73.12043,72,60,40
73.287094,73.45376,69,60,40
73.62042,73.787094,74,60,40
73.787094,73.95029,70,60,40
73.95376,74.537094,69,60,40
74.62042,74.787094,77,62,40
74.787094,74.95029,74,62,40
74.95376,75.537094,72,62,40
75.62042,75.787094,81,64,40
75.787094,75.95029,77,64,40
75.95376,76.53709,76,64,40
76.62042,76.78709,76,67,40
76.78709,76.95376,77,67,40
76.95376,77.12042,76,67,40
77.12042,77.28709,74,67,40
77.28709,77.45376,72,67,40
77.45376,77.61695,74,67,40
77.62042,78.53709,76,67,40
78.62042,78.78709,76,71,40
78.78709,78.95375,77,71,40
78.95375,79.12042,76,71,40
79.12042,79.28709,74,71,40
79.28709,79.45375,72,71,40
79.45375,79.61695,74,72,40
79.62042,80.53709,76,73,40
80.62042,80.78709,76,79,40
80.78709,80.95375,77,80,40
80.95375,81.120415,76,81,40
81.120415,81.28709,74,82,40
81.28709,81.45375,72,83,40
81.45375,81.61694,74,84,40
81.620415,81.78709,76,85,40
81.78709,81.95375,77,86,40
81.95375,82.120415,76,87,40
82.120415,82.28709,74,88,40
82.28709,82.45375,72,89,40
82.45375,82.61694,74,90,40
82.620415,82.78361,76,91,40
82.78709,82.95028,77,92,40
82.95375,83.12065,79,93,40
83.12421,83.29111,81,94,40
83.29466,83.46545,82,95,40
83.46908,83.63986,84,96,40
83.64349,83.818344,86,97,40
83.82207,83.99692,88,98,40
84.00064,84.298256,89,100,40
84.536354,84.711205,84,80,40
84.71492,84.88977,86,80,40
84.89349,85.068344,88,90,40
85.07207,85.36968,89,100,40
85.57921,85.72608,72,80,40
85.7292,85.87608,74,80,40
85.8792,86.02608,76,90,40
86.029205,86.6292,77,100,40
86.6292,86.779205,76,100,40
86.92921,87.529205,74,100,40
87.529205,87.67921,72,94,40
87.82921,87.904205,70,91,40
87.904205,87.9792,72,91,40
87.9792,88.12608,70,90,40
88.1292,88.279205,69,88,40
88.42921,88.57921,67,84,40
88.7292,89.17921,72,80,40
89.17921,89.2542,72,80,40
89.32921,89.47608,74,86,40
89.4792,89.62608,76,93,40
89.6292,90.2292,77,100,40
90.2292,90.3792,76,100,40
90.529205,91.1292,74,80,40
91.1292,91.279205,72,80,40
91.42921,91.5042,71,80,40
91.5042,91.57921,72,80,40
91.57921,91.72608,71,80,40
91.7292,91.8792,69,80,40
92.029205,92.17921,67,80,40
92.32921,92.57921,72,80,40
92.6292,92.8792,74,86,40
92.92921,93.17921,76,93,40
93.2292,93.53533,77,100,40
93.53533,93.798485,76,100,40
93.85112,94.12889,74,100,40
94.18445,94.34764,64,100,40
94.18445,94.62889,72,100,40
94.267784,94.62889,79,100,40
94.68445,94.83132,72,100,40
94.83445,94.98132,74,100,40
94.98445,95.131325,76,100,40
95.13445,95.73445,77,100,40
95.73445,95.88445,76,100,40
96.03445,96.63445,74,100,40
96.63445,96.78445,72,94,40
96.93445,97.00945,70,91,40
97.00945,97.08445,72,91,40
97.08445,97.23132,70,90,40
97.23445,97.38445,69,88,40
97.53445,97.68445,67,84,40
97.83445,98.28445,72,80,40
98.28445,98.35945,72,80,40
98.43445,98.58132,74,86,40
98.58445,98.73132,76,93,40
98.73445,99.33445,77,100,40
99.33445,99.48445,76,100,40
99.63445,100.23445,74,80,40
100.23445,100.38445,72,80,40
100.53445,100.60945,71,80,40
100.60945,100.68445,72,80,40
100.68445,100.83132,71,80,40
100.83445,100.98445,69,80,40
101.13445,101.28445,67,80,40
101.43445,101.68445,72,80,40
101.73445,101.98445,74,86,40
102.03445,102.28445,76,93,40
102.33445,102.64057,77,100,40
102.64057,102.90373,76,100,40
102.95636,103.23414,74,100,40
103.289696,103.45289,64,100,40
103.289696,103.73414,72,100,40
103.373024,103.73414,79,100,40
103.789696,103.93657,79,100,40
103.93969,104.08657,81,100,40
104.08969,104.236565,83,100,40
104.23969,104.639694,84,100,40
104.68969,104.83657,79,100,40
104.83969,104.986565,81,96,40
104.98969,105.136566,83,92,40
105.139694,105.539696,84,88,40
105.58969,105.736565,79,74,40
105.73969,105.886566,81,70,40
105.889694,106.03657,83,65,40
106.039696,106.18657,84,60,40
106.18969,106.33657,79,60,40
106.33969,106.486565,81,60,40
106.48969,106.636566,83,60,40
106.639694,106.78657,84,60,40
106.789696,106.93657,79,60,40
106.93969,107.08657,81,60,40
107.08969,107.236565,83,66,40
107.23969,107.386566,84,72,40
107.389694,107.53657,80,79,40
107.539696,107.68657,82,86,40
107.68969,107.83657,84,93,40
107.83969,108.43969,85,100,40
108.43969,108.58969,84,100,40
108.73969,109.33969,82,100,40
109.33969,109.48969,80,94,40
109.639694,109.71469,78,91,40
109.71469,109.789696,80,91,40
109.789696,109.93657,78,90,40
109.93969,110.08969,77,88,40
110.23969,110.389694,75,84,40
110.539696,110.98969,80,80,40
110.98969,111.06469,80,80,40
111.139694,111.28657,82,86,40
111.289696,111.43657,84,93,40
111.43969,111.73969,85,100,40
111.73969,112.039696,89,100,40
112.039696,112.289696,87,96,40
112.33969,112.639694,84,92,40
112.639694,112.93969,87,88,40
112.93969,113.18969,85,84,40
113.23969,113.539696,82,80,40
113.539696,113.83969,80,80,40
113.83969,114.08969,79,80,40
114.139694,114.73969,82,80,40
114.73969,114.98969,80,81,40
115.039696,115.639694,83,82,40
115.639694,115.889694,82,84,40
115.93969,116.539696,85,85,40
116.539696,116.789696,84,87,40
116.83969,117.43969,90,88,40
117.43969,117.68969,89,90,40
117.73969,118.35194,85,91,40
118.35194,118.60704,84,93,40
118.65806,119.2703,90,94,40
119.2703,119.525406,89,96,40
119.57642,120.208,90,97,40
120.208,120.47116,89,99,40
120.52379,121.16895,91,100,40
121.16895,121.43777,89,100,40
121.49153,121.658195,87,100,40
121.82487,121.99153,86,97,40
122.158195,122.32487,84,94,40
122.49153,123.09153,82,91,40
123.09153,123.34153,81,84,40
123.39153,123.99153,79,80,40
123.99153,124.24153,77,80,40
124.291534,124.36653,75,80,40
124.36653,124.44153,77,80,40
124.44153,124.58841,75,80,40
124.59153,124.74153,74,80,40
124.89153,125.041534,72,80,40
125.19153,125.64153,77,80,40
125.64153,125.71653,77,80,40
125.791534,125.93841,79,80,40
125.94153,126.08841,81,80,40
126.09153,126.69153,82,80,40
126.69153,126.94153,81,84,40
126.99153,127.59153,79,86,40
127.59153,127.84153,77,90,40
127.89153,128.49153,91,92,40
128.49153,128.74153,89,97,40
128.79153,129.39153,88,100,40
129.39153,129.64153,86,100,40
129.69153,129.99765,84,100,40
129.99765,130.2608,82,100,40
130.31345,130.4801,79,100,40
130.64677,131.09122,77,100,40
131.14677,131.29366,79,100,40
131.29677,131.44365,81,100,40
131.44678,131.59364,83,100,40
131.59677,131.99678,84,100,40
132.04677,132.19365,79,100,40
132.19678,132.34364,81,96,40
132.34677,132.49365,83,92,40
132.49678,132.89677,84,88,40
132.94678,133.09364,79,74,40
133.09677,133.24365,81,70,40
133.24678,133.39365,83,65,40
133.39677,133.54366,84,60,40
133.54677,133.69365,79,60,40
133.69678,133.84364,81,60,40
133.84677,133.99365,83,60,40
133.99678,134.14365,84,60,40
134.14677,134.29366,79,60,40
134.29677,134.44365,81,60,40
134.44678,134.59364,83,66,40
134.59677,134.74365,84,72,40
134.74678,134.89365,80,79,40
134.89677,135.04366,82,86,40
135.04677,135.19365,84,93,40
135.19678,135.79677,85,100,40
135.79677,135.94678,84,100,40
136.09677,136.69678,82,100,40
136.69678,136.84677,80,94,40
136.99678,137.07178,78,91,40
137.07178,137.14677,80,91,40
137.14677,137.29366,78,90,40
137.29677,137.44678,77,88,40
137.59677,137.74678,75,84,40
137.89677,138.34677,80,80,40
138.34677,138.42177,80,80,40
138.49678,138.64365,82,86,40
138.64677,138.79366,84,93,40
138.79677,139.09677,85,100,40
139.09677,139.39677,89,100,40
139.39677,139.64677,87,96,40
139.69678,139.99678,84,92,40
139.99678,140.29677,87,88,40
140.29677,140.54677,85,84,40
140.59677,140.89677,82,80,40
140.89677,141.19678,80,80,40
141.19678,141.44678,79,80,40
141.49678,142.09677,82,80,40
142.09677,142.34677,80,81,40
142.39677,142.99678,83,82,40
142.99678,143.24678,82,84,40
143.29677,143.89677,85,85,40
143.89677,144.14677,84,87,40
144.19678,144.79677,90,88,40
144.79677,145.04677,89,90,40
145.09677,145.70901,85,91,40
145.70901,145.96413,84,93,40
146.01514,146.62738,90,94,40
146.62738,146.88249,89,96,40
146.9335,147.56508,90,97,40
147.56508,147.82825,89,99,40
147.88087,148.52603,91,100,40
148.52603,148.79485,89,100,40
148.84862,149.01527,87,100,40
149.18195,149.34862,86,97,40
149.51527,149.68195,84,94,40
149.84862,150.44861,82,91,40
150.44861,150.69861,81,84,40
150.74861,151.34862,79,80,40
151.34862,151.59862,77,80,40
151.6486,151.72362,75,80,40
151.72362,151.79861,77,80,40
151.79861,151.94548,75,80,40
151.94861,152.09862,74,80,40
152.24861,152.3986,72,80,40
152.54861,152.99861,77,80,40
152.99861,153.07361,77,80,40
153.1486,153.29549,79,80,40
153.29861,153.44548,81,80,40
153.44861,154.04861,82,80,40
154.04861,154.29861,81,84,40
154.34862,154.94861,79,86,40
154.94861,155.19861,77,90,40
155.24861,155.84862,91,92,40
155.84862,156.09862,89,97,40
156.1486,156.74861,88,100,40
156.74861,156.99861,86,100,40
157.04861,157.35474,84,100,40
157.35474,157.61789,82,100,40
157.67052,157.83719,79,100,40
158.00386,158.58719,77,100,40
159.00386,159.17052,60,60,40
159.33719,159.50386,65,60,40
159.67052,159.83719,67,60,40
160.00386,160.17052,69,60,40
160.33719,160.50386,65,60,40
160.67052,160.75386,67,60,40
160.75386,160.83719,69,60,40
160.83719,161.00386,67,60,40
161.00386,161.17052,69,60,40
161.33719,161.50386,65,60,40
161.67052,161.83719,70,60,40
162.00385,162.17052,69,60,40
162.33719,162.50385,65,60,40
162.67052,162.75385,67,60,40
162.75385,162.83719,69,60,40
162.83719,163.00385,67,60,40
163.00385,163.17052,69,60,40
163.33719,163.50385,65,60,40
163.67052,163.83719,74,60,40
164.00385,164.17052,72,60,40
164.33719,164.50385,69,60,40
164.67052,164.83719,74,60,40
164.83719,165.00038,70,60,40
165.00385,165.58719,69,60,40
165.67052,165.83719,77,65,40
165.83719,166.00038,74,66,40
166.00385,166.58719,72,67,40
166.67052,166.83717,81,72,40
166.83717,167.00038,77,73,40
167.00385,167.16704,74,74,40
167.17052,167.33371,76,75,40
167.33717,167.50038,77,76,40
167.50385,167.66704,76,77,40
167.67052,167.83371,77,78,40
167.83717,168.00038,79,79,40
168.00385,168.16704,76,80,40
168.17052,168.33371,77,81,40
168.33717,168.50037,79,82,40
168.50385,168.66704,77,83,40
168.67052,168.83371,79,84,40
168.83717,169.00037,81,86,40
169.00385,169.16704,77,88,40
169.17052,169.33371,79,90,40
169.33717,169.50037,81,92,40
169.50385,169.66704,83,94,40
169.67052,169.83371,84,96,40
169.83717,170.00037,86,98,40
170.00385,170.58717,88,100,40
171.00385,171.25385,72,60,40
171.33717,171.50385,77,60,40
171.67052,171.75385,79,60,40
171.75385,171.83717,80,60,40
171.83717,172.00385,79,60,40
172.00385,172.58717,80,60,40
172.6705,173.00385,72,92,40
172.6705,173.00385,80,92,40
173.00385,173.58717,73,60,40
173.00385,173.58717,80,60,40
173.6705,174.00385,72,92,40
173.6705,174.00385,80,92,40
174.00385,174.58717,73,60,40
174.00385,174.58717,80,60,40
174.6705,175.00385,73,92,40
174.6705,175.00385,82,92,40
175.00385,175.58717,73,60,40
175.00385,175.58717,82,60,40
175.6705,175.83717,82,60,40
175.83717,176.00385,84,60,40
176.00385,176.1705,82,60,40
176.1705,176.33717,80,60,40
176.33717,176.50385,79,60,40
176.50385,176.66704,80,61,40
176.6705,177.00383,82,94,40
177.00383,177.58717,82,64,40
177.6705,177.83717,82,68,40
177.83717,178.00383,84,69,40
178.00383,178.1705,82,69,40
178.1705,178.33717,80,70,40
178.33717,178.50383,79,71,40
178.50383,178.66702,80,72,40
178.6705,179.00383,82,105,40
179.00383,179.60043,82,75,40
179.68565,179.85611,82,79,40
179.85611,180.02657,84,80,40
180.02657,180.20303,82,81,40
180.20303,180.3795,80,82,40
180.3795,180.55597,79,83,40
180.55597,180.72878,82,84,40
180.73244,181.08539,83,125,40
181.08539,181.39026,83,87,40
181.45123,181.63417,79,89,40
181.63417,181.8171,83,90,40
181.8171,182.18294,84,127,40
182.18294,182.49544,84,93,40
182.55794,182.68294,82,95,40
182.68294,182.80794,79,95,40
182.80794,182.93294,76,96,40
182.93294,183.0291,72,97,40
183.0291,183.12526,70,97,40
183.12526,183.2214,67,98,40
183.2214,183.31355,64,99,40
183.31757,183.48422,60,100,40
183.6509,183.81757,65,60,40
183.98422,184.1509,67,60,40
184.31757,184.48422,69,60,40
184.6509,184.81755,65,60,40
184.98422,185.06755,67,60,40
185.06755,185.1509,69,60,40
185.1509,185.31755,67,60,40
185.31755,185.48422,69,60,40
185.6509,185.81755,65,60,40
185.98422,186.1509,70,60,40
186.31755,186.48422,69,60,40
186.6509,186.81755,65,60,40
186.98422,187.06755,67,60,40
187.06755,187.1509,69,60,40
187.1509,187.31755,67,60,40
187.31755,187.48422,69,60,40
187.6509,187.81755,65,60,40
187.98422,188.1509,74,60,40
188.31755,188.48422,72,60,40
188.6509,188.81755,69,60,40
188.98422,189.1509,74,60,40
189.1509,189.31409,70,60,40
189.31755,189.90088,69,60,40
189.98422,190.15088,77,62,40
190.15088,190.31409,74,62,40
190.31755,190.90088,72,62,40
190.98422,191.15088,81,64,40
191.15088,191.31407,77,64,40
191.31755,191.90088,76,64,40
191.98422,192.15088,76,67,40
192.15088,192.31755,77,67,40
192.31755,192.48422,76,67,40
192.48422,192.65088,74,67,40
192.65088,192.81755,72,67,40
192.81755,192.98074,74,67,40
192.98422,193.90088,76,67,40
193.98422,194.15088,76,71,40
194.15088,194.31755,77,71,40
194.31755,194.48422,76,71,40
194.48422,194.65088,74,71,40
194.65088,194.81755,72,71,40
194.81755,194.98074,74,72,40
194.9842,195.90088,76,73,40
195.9842,196.15088,76,79,40
196.15088,196.31755,77,80,40
196.31755,196.4842,76,81,40
196.4842,196.65088,74,82,40
196.65088,196.81755,72,83,40
196.81755,196.98074,74,84,40
196.9842,197.15088,76,85,40
197.15088,197.31755,77,86,40
197.31755,197.4842,76,87,40
197.4842,197.65088,74,88,40
197.65088,197.81755,72,89,40
197.81755,197.98074,74,90,40
197.9842,198.1474,76,91,40
198.15088,198.31407,77,92,40
198.31755,198.48074,79,93,40
198.4842,198.6474,81,94,40
198.65088,198.81407,82,95,40
198.81755,198.98074,84,96,40
198.9842,199.1474,86,97,40
199.15088,199.31407,88,98,40
199.31755,199.59532,89,100,40
199.81754,199.98074,84,80,40
199.9842,200.1474,86,80,40
200.15088,200.31407,88,90,40
200.31754,200.59532,89,100,40
200.81754,200.96442,72,80,40
200.96754,201.11441,74,80,40
201.11754,201.26442,76,80,40
201.26755,201.83897,77,80,40
201.83897,201.98183,76,80,40
202.12468,202.67014,74,80,40
202.67014,202.8065,72,80,40
202.94287,203.01105,70,80,40
203.01105,203.07922,72,80,40
203.07922,203.21275,70,80,40
203.21559,203.35196,69,80,40
203.48831,203.62468,67,80,40
203.76105,204.17014,72,80,40
204.17014,204.23831,72,80,40
204.3065,204.44002,74,80,40
204.44287,204.57639,76,80,40
204.57922,205.12468,77,80,40
205.12468,205.26105,76,80,40
205.39742,205.8065,74,80,40
205.8065,205.87468,72,80,40
205.94286,206.07639,76,80,40
206.07922,206.21275,72,80,40
206.21559,206.76105,77,120,40
206.76105,206.8974,76,80,40
207.03377,207.44286,74,80,40
207.44286,207.51105,72,80,40
207.57922,207.71275,76,80,40
207.71559,207.8491,72,80,40
207.85194,208.3974,79,80,40
208.3974,208.53377,77,80,40
208.67014,209.07922,76,80,40
209.07922,209.1474,74,80,40
209.21559,209.3491,77,80,40
209.35194,209.48547,74,80,40
209.48831,209.8974,81,80,40
209.8974,209.96559,76,80,40
210.03377,210.16728,77,80,40
210.17014,210.30365,74,80,40
210.30649,210.71559,81,80,40
210.71559,210.78377,76,80,40
210.85194,210.98547,77,80,40
210.98831,211.12184,74,80,40
211.12468,211.67014,81,80,40
211.67014,211.80649,82,80,40
211.94286,212.48831,83,80,40
212.48831,212.62468,84,80,40
212.76103,212.8974,85,80,40
213.03377,213.17012,86,83,40
213.30649,213.44286,87,86,40
213.57922,213.71558,88,89,40
213.85194,213.98831,89,92,40
214.12468,214.26103,90,96,40
214.3974,214.52853,91,100,40
214.53133,214.66246,91,100,40
214.66525,214.79639,91,96,40
214.79918,214.93033,91,92,40
214.9331,215.06425,91,88,40
215.06705,215.19818,91,84,40
215.20097,215.3298,91,80,40
215.33255,215.46138,91,80,40
215.46413,215.59297,91,80,40
215.5957,215.72455,91,80,40
215.72728,215.85612,91,80,40
215.85886,215.9877,91,80,40
215.99045,216.11816,84,100,40
215.99045,216.11816,96,100,40
216.12088,216.2486,84,100,40
216.12088,216.2486,96,100,40
216.25131,216.37903,84,99,40
216.25131,216.37903,96,99,40
216.38174,216.50946,84,98,40
216.38174,216.50946,96,98,40
216.51218,216.6399,84,96,40
216.51218,216.6399,96,96,40
216.64261,216.77032,84,94,40
216.64261,216.77032,96,94,40
216.77304,216.90077,84,92,40
216.77304,216.90077,96,92,40
216.90349,217.0312,84,90,40
216.90349,217.0312,96,90,40
217.03392,217.16164,84,88,40
217.03392,217.16164,96,88,40
217.16435,217.29207,84,86,40
217.16435,217.29207,96,86,40
217.29478,217.4225,84,84,40
217.29478,217.4225,96,84,40
217.42522,217.55293,84,82,40
217.42522,217.55293,96,82,40
217.55565,217.77304,89,80,40
218.33826,218.58826,69,100,40
218.33826,218.58826,93,100,40
219.23827,220.77159,57,80,40
219.23827,220.77159,65,80,40
0.9,1.0666665,60,60,40
1.233333,1.3999995,57,60,40
1.566666,1.7333325,60,60,40
1.899999,2.0666654,65,60,40
2.233332,2.3999984,57,60,40
2.566665,2.899998,60,60,40
2.899998,3.0666645,65,60,40
3.233331,3.3999975,57,60,40
3.566664,3.7333305,62,60,40
3.899997,4.0666633,60,60,40
4.23333,4.3999963,57,60,40
4.566663,4.899996,60,60,40
4.899996,5.0666623,65,60,40
5.233329,5.3999953,57,60,40
5.566662,5.7333283,70,60,40
5.899995,6.0666614,69,60,40
6.233328,6.3999944,65,60,40
6.566661,6.7333274,65,60,40
6.7333274,6.8965216,62,60,40
6.899994,7.483327,60,60,40
7.56666,7.7333264,74,65,40
7.7333264,7.8965206,70,66,40
7.899993,8.483326,69,67,40
8.566659,8.733326,69,72,40
8.733326,8.89652,74,73,40
8.899992,9.063187,71,74,40
9.066659,9.229853,72,75,40
9.233325,9.39652,74,76,40
9.399991,9.563186,72,77,40
9.566658,9.729853,74,78,40
9.733324,9.896519,67,79,40
9.899991,10.063186,72,80,40
10.066657,10.229852,74,81,40
10.233324,10.396519,76,82,40
10.39999,10.563185,74,83,40
10.566657,10.729852,76,84,40
10.733323,10.896518,72,86,40
10.89999,11.066894,74,88,40
11.070444,11.237348,76,90,40
11.240899,11.411684,77,92,40
11.415318,11.5861025,79,94,40
11.589736,11.764586,81,96,40
11.768307,11.943158,77,98,40
11.946878,12.571877,76,100,40
13.018304,13.184971,60,60,40
13.351637,13.518304,57,60,40
13.68497,13.851637,60,60,40
14.018303,14.18497,65,60,40
14.351636,14.518303,57,60,40
14.684969,15.018302,60,60,40
15.018302,15.184969,65,60,40
15.351635,15.518302,57,60,40
15.684968,15.851634,62,60,40
16.018301,16.184967,60,60,40
16.351633,16.518301,57,60,40
16.684967,17.0183,60,60,40
17.0183,17.184967,65,60,40
17.351633,17.5183,57,60,40
17.684965,17.851633,70,60,40
18.0183,18.184965,69,60,40
18.351631,18.5183,65,60,40
18.684965,18.851631,65,60,40
18.851631,19.014826,62,60,40
19.018297,19.601631,60,60,40
19.684963,19.851631,74,65,40
19.851631,20.014824,70,66,40
20.018297,20.60163,69,67,40
20.684963,20.85163,69,72,40
20.85163,21.014824,74,73,40
21.018295,21.18149,71,74,40
21.184963,21.348156,72,75,40
21.35163,21.514824,74,76,40
21.518295,21.68149,72,77,40
21.684961,21.848156,74,78,40
21.85163,22.014822,67,79,40
22.018295,22.18149,72,80,40
22.184961,22.348156,74,81,40
22.351627,22.514822,76,82,40
22.518295,22.681488,74,83,40
22.684961,22.848156,76,84,40
22.851627,23.014822,72,86,40
23.018293,23.185198,74,88,40
23.18875,23.355652,76,90,40
23.359203,23.529987,77,92,40
23.53362,23.704407,79,94,40
23.70804,23.88289,81,96,40
23.886612,24.061462,77,98,40
24.065182,24.69018,76,100,40
25.803274,25.96994,60,60,40
26.136606,26.303274,65,60,40
26.46994,26.636606,67,60,40
26.803272,27.136606,68,92,40
26.803272,27.136606,75,92,40
27.136606,27.719938,68,60,40
27.136606,27.719938,77,60,40
27.803272,28.136604,68,92,40
27.803272,28.136604,77,92,40
28.136604,28.719938,68,60,40
28.136604,28.719938,77,60,40
28.80327,29.136604,68,92,40
28.80327,29.136604,77,92,40
29.136604,29.719936,67,60,40
29.136604,29.719936,75,60,40
29.80327,30.136602,67,92,40
29.80327,30.136602,73,92,40
30.136602,30.719936,67,60,40
30.136602,30.719936,73,60,40
30.803268,31.136602,67,95,40
30.803268,31.136602,73,95,40
31.136602,31.719934,67,64,40
31.136602,31.719934,73,64,40
31.803268,32.1366,67,100,40
31.803268,32.1366,73,100,40
32.1366,32.719933,67,70,40
32.1366,32.719933,73,70,40
32.80327,33.1366,67,106,40
32.80327,33.1366,73,106,40
33.1366,33.733192,67,76,40
33.1366,33.733192,72,76,40
33.818417,34.15933,72,80,40
33.818417,34.15933,79,80,40
34.15933,34.776974,72,82,40
34.15933,34.776974,79,82,40
34.865208,35.21815,72,126,40
34.865208,35.21815,79,126,40
35.21815,35.858395,72,88,40
35.21815,35.858395,79,88,40
35.949856,36.31571,72,92,40
35.949856,36.31571,79,92,40
36.31571,36.62821,72,94,40
36.31571,36.62821,79,94,40
36.69071,36.81571,79,96,40
36.81571,36.94071,76,96,40
36.94071,37.06571,72,96,40
37.06571,37.16186,70,97,40
37.16186,37.258015,67,97,40
37.258015,37.35417,64,98,40
37.35417,37.446316,60,99,40
37.450325,37.61699,60,100,40
37.783657,37.950325,57,60,40
38.11699,38.283657,60,60,40
38.45032,38.61699,65,60,40
38.783657,38.95032,57,60,40
39.11699,39.45032,60,60,40
39.45032,39.61699,65,60,40
39.783653,39.95032,57,60,40
40.11699,40.283653,62,60,40
40.45032,40.61699,60,60,40
40.783653,40.95032,57,60,40
41.116985,41.45032,60,60,40
41.45032,41.616985,65,60,40
41.783653,41.95032,57,60,40
42.116985,42.283653,70,60,40
42.450317,42.616985,69,60,40
42.783653,42.950317,65,60,40
43.116985,43.283653,65,60,40
43.283653,43.446846,62,60,40
43.450317,44.03365,60,60,40
44.116985,44.28365,74,62,40
44.28365,44.446846,70,62,40
44.450317,45.03365,69,62,40
45.11698,45.28365,69,64,40
45.11698,45.28365,76,64,40
45.28365,45.446842,74,64,40
45.450317,46.03365,68,64,40
45.450317,46.03365,71,64,40
46.11698,46.39476,59,67,40
46.11698,46.39476,68,67,40
46.450314,47.03365,60,68,40
46.450314,47.03365,69,68,40
47.11698,47.39476,69,71,40
47.11698,47.39476,72,71,40
47.450314,48.033646,68,72,40
47.450314,48.033646,71,72,40
48.11698,48.394756,59,75,40
48.11698,48.394756,68,75,40
48.450314,49.033646,60,76,40
48.450314,49.033646,69,76,40
49.116978,49.394756,67,79,40
49.116978,49.394756,72,79,40
49.450314,50.033646,67,80,40
49.450314,50.033646,70,80,40
50.116978,50.394756,67,83,40
50.45031,51.033646,67,84,40
50.45031,51.033646,70,84,40
51.116978,51.394756,67,87,40
51.45031,52.03364,67,88,40
51.45031,52.03364,70,88,40
52.116978,52.28017,67,92,40
52.28364,52.44684,70,93,40
52.45031,52.617214,76,94,40
52.62076,52.787666,77,95,40
52.791218,52.962,79,96,40
52.965637,53.13642,81,97,40
53.140057,53.314907,82,98,40
53.318626,53.493477,79,99,40
53.497196,53.794815,81,100,40
54.03291,54.20776,72,80,40
54.21148,54.386333,74,80,40
54.390053,54.564903,76,90,40
54.568623,54.86624,77,100,40
56.306713,56.47338,60,60,40
56.64005,56.806713,65,60,40
56.97338,57.14005,67,60,40
57.306713,57.640045,68,92,40
57.306713,57.640045,75,92,40
57.640045,58.22338,68,60,40
57.640045,58.22338,77,60,40
58.306713,58.640045,68,92,40
58.306713,58.640045,77,92,40
58.640045,59.223377,68,60,40
58.640045,59.223377,77,60,40
59.306713,59.640045,68,92,40
59.306713,59.640045,77,92,40
59.640045,60.223377,67,60,40
59.640045,60.223377,75,60,40
60.30671,60.640045,67,92,40
60.30671,60.640045,73,92,40
60.640045,61.223377,67,60,40
60.640045,61.223377,73,60,40
61.30671,61.64004,67,95,40
61.30671,61.64004,73,95,40
61.64004,62.223377,67,64,40
61.64004,62.223377,73,64,40
62.30671,62.64004,67,100,40
62.30671,62.64004,73,100,40
62.64004,63.223373,67,70,40
62.64004,63.223373,73,70,40
63.30671,63.64004,67,106,40
63.30671,63.64004,73,106,40
63.64004,64.23663,67,76,40
63.64004,64.23663,72,76,40
64.32186,64.662766,72,80,40
64.32186,64.662766,79,80,40
64.662766,65.28042,72,82,40
64.662766,65.28042,79,82,40
65.36865,65.72159,72,126,40
65.36865,65.72159,79,126,40
65.72159,66.36183,72,88,40
65.72159,66.36183,79,88,40
66.4533,66.81915,72,92,40
66.4533,66.81915,79,92,40
66.81915,67.13165,72,94,40
66.81915,67.13165,79,94,40
67.19415,67.31915,79,96,40
67.31915,67.44415,76,96,40
67.44415,67.56915,72,96,40
67.56915,67.665306,70,97,40
67.665306,67.76146,67,97,40
67.76146,67.85761,64,98,40
67.85761,67.94976,60,99,40
67.953766,68.12043,60,100,40
68.2871,68.453766,57,60,40
68.62043,68.787094,60,60,40
68.953766,69.12043,65,60,40
69.287094,69.453766,57,60,40
69.62043,69.953766,60,60,40
69.953766,70.12043,65,60,40
70.287094,70.453766,57,60,40
70.62043,70.787094,62,60,40
70.95376,71.12043,60,60,40
71.287094,71.45376,57,60,40
71.62043,71.95376,60,60,40
71.95376,72.12043,65,60,40
72.287094,72.45376,57,60,40
72.62043,72.787094,70,60,40
72.95376,73.12043,69,60,40
73.287094,73.45376,65,60,40
73.62042,73.787094,65,60,40
73.787094,73.95029,62,60,40
73.95376,74.537094,60,60,40
74.62042,74.787094,74,62,40
74.787094,74.95029,70,62,40
74.95376,75.537094,69,62,40
75.62042,75.787094,69,64,40
75.62042,75.787094,76,64,40
75.787094,75.95029,74,64,40
75.95376,76.53709,68,64,40
75.95376,76.53709,71,64,40
76.62042,76.8982,59,67,40
76.62042,76.8982,68,67,40
76.95376,77.53709,60,68,40
76.95376,77.53709,69,68,40
77.62042,77.8982,69,71,40
77.62042,77.8982,72,71,40
77.95376,78.53709,68,72,40
77.95376,78.53709,71,72,40
78.62042,78.8982,59,75,40
78.62042,78.8982,68,75,40
78.95375,79.53709,60,76,40
78.95375,79.53709,69,76,40
79.62042,79.8982,67,79,40
79.62042,79.8982,72,79,40
79.95375,80.53709,67,80,40
79.95375,80.53709,70,80,40
80.62042,80.89819,67,83,40
80.95375,81.53709,67,84,40
80.95375,81.53709,70,84,40
81.620415,81.89819,67,87,40
81.95375,82.53709,67,88,40
81.95375,82.53709,70,88,40
82.620415,82.78361,67,92,40
82.78709,82.95028,70,93,40
82.95375,83.12065,76,94,40
83.12421,83.29111,77,95,40
83.29466,83.46545,79,96,40
83.46908,83.63986,81,97,40
83.64349,83.818344,82,98,40
83.82207,83.99692,79,99,40
84.00064,84.298256,81,100,40
84.536354,84.711205,72,80,40
84.71492,84.88977,74,80,40
84.89349,85.068344,76,90,40
85.07207,85.36968,77,100,40
85.57921,85.72608,72,80,40
85.7292,85.87608,74,80,40
85.8792,86.02608,76,90,40
86.029205,86.6292,74,100,40
86.6292,86.779205,72,100,40
86.92921,87.529205,70,100,40
87.529205,87.67921,69,94,40
87.82921,87.904205,67,91,40
87.904205,87.9792,69,91,40
87.9792,88.12608,67,90,40
88.1292,88.279205,60,88,40
88.42921,88.57921,58,84,40
88.7292,89.1292,57,80,40
89.17921,89.32921,69,80,40
89.32921,89.4792,70,86,40
89.4792,89.62608,67,93,40
89.6292,90.2292,74,100,40
90.2292,90.3792,72,100,40
90.529205,91.1292,70,80,40
91.1292,91.279205,69,80,40
91.42921,91.5042,67,80,40
91.5042,91.57921,69,80,40
91.57921,91.72608,67,80,40
91.7292,91.8792,60,80,40
92.029205,92.17921,59,80,40
92.32921,92.57921,64,80,40
92.6292,92.8792,65,86,40
92.92921,93.17921,67,93,40
93.2292,93.53533,71,100,40
93.53533,93.798485,67,100,40
93.85112,94.12889,65,100,40
94.18445,94.62889,64,100,40
94.68445,94.83132,72,100,40
94.83445,94.98132,74,100,40
94.98445,95.131325,76,100,40
95.13445,95.73445,74,100,40
95.73445,95.88445,72,100,40
96.03445,96.63445,70,100,40
96.63445,96.78445,69,94,40
96.93445,97.00945,67,91,40
97.00945,97.08445,69,91,40
97.08445,97.23132,67,90,40
97.23445,97.38445,60,88,40
97.53445,97.68445,58,84,40
97.83445,98.23445,57,80,40
98.28445,98.43445,69,80,40
98.43445,98.58445,70,86,40
98.58445,98.73132,67,93,40
98.73445,99.33445,74,100,40
99.33445,99.48445,72,100,40
99.63445,100.23445,70,80,40
100.23445,100.38445,69,80,40
100.53445,100.60945,67,80,40
100.60945,100.68445,69,80,40
100.68445,100.83132,67,80,40
100.83445,100.98445,60,80,40
101.13445,101.28445,59,80,40
101.43445,101.68445,64,80,40
101.73445,101.98445,65,86,40
102.03445,102.28445,67,93,40
102.33445,102.64057,71,100,40
102.64057,102.90373,67,100,40
102.95636,103.23414,65,100,40
103.289696,103.73414,64,100,40
103.789696,103.93657,79,100,40
103.93969,104.08657,81,100,40
104.08969,104.236565,83,100,40
104.23969,104.639694,84,100,40
104.68969,104.83657,67,100,40
104.83969,104.986565,69,96,40
104.98969,105.136566,71,92,40
105.139694,105.539696,72,88,40
105.58969,105.736565,79,74,40
105.73969,105.886566,81,70,40
105.889694,106.03657,83,65,40
106.039696,106.18657,84,60,40
106.18969,106.33657,67,60,40
106.33969,106.486565,69,60,40
106.48969,106.636566,71,60,40
106.639694,106.78657,72,60,40
106.789696,106.93657,79,60,40
106.93969,107.08657,81,60,40
107.08969,107.236565,83,66,40
107.23969,107.386566,84,72,40
107.389694,107.53657,68,79,40
107.539696,107.68657,70,86,40
107.68969,107.83657,72,93,40
107.83969,108.43969,82,100,40
108.43969,108.58969,80,100,40
108.73969,109.33969,78,100,40
109.33969,109.48969,77,94,40
109.639694,109.71469,75,91,40
109.71469,109.789696,77,91,40
109.789696,109.93657,75,90,40
109.93969,110.08969,68,88,40
110.23969,110.389694,66,84,40
110.539696,110.93969,65,80,40
110.98969,111.136566,77,80,40
111.139694,111.28657,78,86,40
111.289696,111.43657,75,93,40
111.43969,111.73969,73,100,40
111.73969,112.039696,77,100,40
112.039696,112.289696,75,96,40
112.33969,112.639694,72,92,40
112.639694,112.93969,75,88,40
112.93969,113.18969,73,84,40
113.23969,113.539696,70,80,40
113.539696,113.83969,68,80,40
113.83969,114.08969,67,80,40
114.139694,114.73969,70,80,40
114.73969,114.98969,68,81,40
115.039696,115.639694,71,82,40
115.639694,115.889694,70,84,40
115.93969,116.18969,61,85,40
116.23969,116.539696,73,86,40
116.539696,116.789696,72,87,40
116.83969,117.08969,66,88,40
117.139694,117.43969,78,89,40
117.43969,117.68969,77,90,40
117.73969,117.9948,61,91,40
118.045815,118.35194,73,92,40
118.35194,118.60704,72,93,40
118.65806,118.91316,66,94,40
118.96418,119.2703,78,95,40
119.2703,119.525406,77,96,40
119.57642,119.839584,66,97,40
119.89221,120.208,78,98,40
120.208,120.47116,77,99,40
120.52379,120.79261,67,100,40
120.846375,121.16895,79,100,40
121.16895,121.43777,77,100,40
121.49153,121.658195,75,100,40
121.82487,121.99153,74,97,40
122.158195,122.32487,72,94,40
122.49153,123.09153,79,91,40
123.09153,123.34153,77,84,40
123.39153,123.99153,75,80,40
123.99153,124.24153,74,80,40
124.291534,124.36653,72,80,40
124.36653,124.44153,74,80,40
124.44153,124.58841,72,80,40
124.59153,124.74153,65,80,40
124.89153,125.041534,63,80,40
125.19153,125.59153,62,80,40
125.64153,125.78841,74,80,40
125.791534,125.93841,75,80,40
125.94153,126.08841,72,80,40
126.09153,126.69153,74,80,40
126.69153,126.94153,65,84,40
126.99153,127.59153,75,86,40
127.59153,127.84153,74,90,40
127.89153,128.49153,74,92,40
128.49153,128.74153,67,97,40
128.79153,129.39153,84,100,40
129.39153,129.64153,82,100,40
129.69153,129.99765,81,100,40
129.99765,130.2608,79,100,40
130.31345,130.4801,70,100,40
130.64677,131.09122,69,100,40
131.14677,131.29366,79,100,40
131.29677,131.44365,81,100,40
131.44678,131.59364,83,100,40
131.59677,131.99678,84,100,40
132.04677,132.19365,67,100,40
132.19678,132.34364,69,96,40
132.34677,132.49365,71,92,40
132.49678,132.89677,72,88,40
132.94678,133.09364,79,74,40
133.09677,133.24365,81,70,40
133.24678,133.39365,83,65,40
133.39677,133.54366,84,60,40
133.54677,133.69365,67,60,40
133.69678,133.84364,69,60,40
133.84677,133.99365,71,60,40
133.99678,134.14365,72,60,40
134.14677,134.29366,79,60,40
134.29677,134.44365,81,60,40
134.44678,134.59364,83,66,40
134.59677,134.74365,84,72,40
134.74678,134.89365,68,79,40
134.89677,135.04366,70,86,40
135.04677,135.19365,72,93,40
135.19678,135.79677,82,100,40
135.79677,135.94678,80,100,40
136.09677,136.69678,78,100,40
136.69678,136.84677,77,94,40
136.99678,137.07178,75,91,40
137.07178,137.14677,77,91,40
137.14677,137.29366,75,90,40
137.29677,137.44678,68,88,40
137.59677,137.74678,66,84,40
137.89677,138.29677,65,80,40
138.34677,138.49365,77,80,40
138.49678,138.64365,78,86,40
138.64677,138.79366,75,93,40
138.79677,139.09677,73,100,40
139.09677,139.39677,77,100,40
139.39677,139.64677,75,96,40
139.69678,139.99678,72,92,40
139.99678,140.29677,75,88,40
140.29677,140.54677,73,84,40
140.59677,140.89677,70,80,40
140.89677,141.19678,68,80,40
141.19678,141.44678,67,80,40
141.49678,142.09677,70,80,40
142.09677,142.34677,68,81,40
142.39677,142.99678,71,82,40
142.99678,143.24678,70,84,40
143.29677,143.54677,61,85,40
143.59677,143.89677,73,86,40
143.89677,144.14677,72,87,40
144.19678,144.44678,66,88,40
144.49678,144.79677,78,89,40
144.79677,145.04677,77,90,40
145.09677,145.35188,61,91,40
145.4029,145.70901,73,92,40
145.70901,145.96413,72,93,40
146.01514,146.27025,66,94,40
146.32126,146.62738,78,95,40
146.62738,146.88249,77,96,40
146.9335,147.19667,66,97,40
147.2493,147.56508,78,98,40
147.56508,147.82825,77,99,40
147.88087,148.14969,67,100,40
148.20346,148.52603,79,100,40
148.52603,148.79485,77,100,40
148.84862,149.01527,75,100,40
149.18195,149.34862,74,97,40
149.51527,149.68195,72,94,40
149.84862,150.44861,79,91,40
150.44861,150.69861,77,84,40
150.74861,151.34862,75,80,40
151.34862,151.59862,74,80,40
151.6486,151.72362,72,80,40
151.72362,151.79861,74,80,40
151.79861,151.94548,72,80,40
151.94861,152.09862,65,80,40
152.24861,152.3986,63,80,40
152.54861,152.94861,62,80,40
152.99861,153.1455,74,80,40
153.1486,153.29549,75,80,40
153.29861,153.44548,72,80,40
153.44861,154.04861,74,80,40
154.04861,154.29861,65,84,40
154.34862,154.94861,75,86,40
154.94861,155.19861,74,90,40
155.24861,155.84862,74,92,40
155.84862,156.09862,67,97,40
156.1486,156.74861,84,100,40
156.74861,156.99861,82,100,40
157.04861,157.35474,81,100,40
157.35474,157.61789,79,100,40
157.67052,157.83719,70,100,40
158.00386,158.58719,69,100,40
159.00386,159.17052,60,60,40
159.33719,159.50386,57,60,40
159.67052,159.83719,60,60,40
160.00386,160.17052,65,60,40
160.33719,160.50386,57,60,40
160.67052,161.00386,60,60,40
161.00386,161.17052,65,60,40
161.33719,161.50386,57,60,40
161.67052,161.83719,62,60,40
162.00385,162.17052,60,60,40
162.33719,162.50385,57,60,40
162.67052,163.00385,60,60,40
163.00385,163.17052,65,60,40
163.33719,163.50385,57,60,40
163.67052,163.83719,70,60,40
164.00385,164.17052,69,60,40
164.33719,164.50385,65,60,40
164.67052,164.83719,65,60,40
164.83719,165.00038,62,60,40
165.00385,165.58719,60,60,40
165.67052,165.83719,74,65,40
165.83719,166.00038,70,66,40
166.00385,166.58719,69,67,40
166.67052,166.83717,69,72,40
166.83717,167.00038,74,73,40
167.00385,167.16704,71,74,40
167.17052,167.33371,72,75,40
167.33717,167.50038,74,76,40
167.50385,167.66704,72,77,40
167.67052,167.83371,74,78,40
167.83717,168.00038,67,79,40
168.00385,168.16704,72,80,40
168.17052,168.33371,74,81,40
168.33717,168.50037,76,82,40
168.50385,168.66704,74,83,40
168.67052,168.83371,76,84,40
168.83717,169.00037,72,86,40
169.00385,169.16704,74,88,40
169.17052,169.33371,76,90,40
169.33717,169.50037,77,92,40
169.50385,169.66704,79,94,40
169.67052,169.83371,81,96,40
169.83717,170.00037,77,98,40
170.00385,170.58717,76,100,40
171.67052,171.83717,60,60,40
172.00385,172.1705,65,60,40
172.33717,172.50385,67,60,40
172.6705,173.00385,68,92,40
172.6705,173.00385,75,92,40
173.00385,173.58717,68,60,40
173.00385,173.58717,77,60,40
173.6705,174.00385,68,92,40
173.6705,174.00385,77,92,40
174.00385,174.58717,68,60,40
174.00385,174.58717,77,60,40
174.6705,175.00385,68,92,40
174.6705,175.00385,77,92,40
175.00385,175.58717,67,60,40
175.00385,175.58717,75,60,40
175.6705,176.00385,67,92,40
175.6705,176.00385,73,92,40
176.00385,176.58717,67,60,40
176.00385,176.58717,73,60,40
176.6705,177.00383,67,95,40
176.6705,177.00383,73,95,40
177.00383,177.58717,67,64,40
177.00383,177.58717,73,64,40
177.6705,178.00383,67,100,40
177.6705,178.00383,73,100,40
178.00383,178.58717,67,70,40
178.00383,178.58717,73,70,40
178.6705,179.00383,67,106,40
178.6705,179.00383,73,106,40
179.00383,179.60043,67,76,40
179.00383,179.60043,72,76,40
179.68565,180.02657,72,80,40
179.68565,180.02657,79,80,40
180.02657,180.64421,72,82,40
180.02657,180.64421,79,82,40
180.73244,181.08539,72,126,40
180.73244,181.08539,79,126,40
181.08539,181.72563,72,88,40
181.08539,181.72563,79,88,40
181.8171,182.18294,72,92,40
181.8171,182.18294,79,92,40
182.18294,182.49544,72,94,40
182.18294,182.49544,79,94,40
182.55794,182.68294,79,96,40
182.68294,182.80794,76,96,40
182.80794,182.93294,72,96,40
182.93294,183.0291,70,97,40
183.0291,183.12526,67,97,40
183.12526,183.2214,64,98,40
183.2214,183.31355,60,99,40
183.31757,183.48422,60,100,40
183.6509,183.81757,57,60,40
183.98422,184.1509,60,60,40
184.31757,184.48422,65,60,40
184.6509,184.81755,57,60,40
184.98422,185.31755,60,60,40
185.31755,185.48422,65,60,40
185.6509,185.81755,57,60,40
185.98422,186.1509,62,60,40
186.31755,186.48422,60,60,40
186.6509,186.81755,57,60,40
186.98422,187.31755,60,60,40
187.31755,187.48422,65,60,40
187.6509,187.81755,57,60,40
187.98422,188.1509,70,60,40
188.31755,188.48422,69,60,40
188.6509,188.81755,65,60,40
188.98422,189.1509,65,60,40
189.1509,189.31409,62,60,40
189.31755,189.90088,60,60,40
189.98422,190.15088,74,62,40
190.15088,190.31409,70,62,40
190.31755,190.90088,69,62,40
190.98422,191.15088,69,64,40
190.98422,191.15088,76,64,40
191.15088,191.31407,74,64,40
191.31755,191.90088,68,64,40
191.31755,191.90088,71,64,40
191.98422,192.262,59,67,40
191.98422,192.262,68,67,40
192.31755,192.90088,60,68,40
192.31755,192.90088,69,68,40
192.98422,193.262,69,71,40
192.98422,193.262,72,71,40
193.31755,193.90088,68,72,40
193.31755,193.90088,71,72,40
193.98422,194.262,59,75,40
193.98422,194.262,68,75,40
194.31755,194.90088,60,76,40
194.31755,194.90088,69,76,40
194.9842,195.262,67,79,40
194.9842,195.262,72,79,40
195.31755,195.90088,67,80,40
195.31755,195.90088,70,80,40
195.9842,196.262,67,83,40
196.31755,196.90088,67,84,40
196.31755,196.90088,70,84,40
196.9842,197.262,67,87,40
197.31755,197.90088,67,88,40
197.31755,197.90088,70,88,40
197.9842,198.1474,67,92,40
198.15088,198.31407,70,93,40
198.31755,198.48074,76,94,40
198.4842,198.6474,77,95,40
198.65088,198.81407,79,96,40
198.81755,198.98074,81,97,40
198.9842,199.1474,82,98,40
199.15088,199.31407,79,99,40
199.31755,199.59532,81,100,40
199.81754,199.98074,72,80,40
199.9842,200.1474,74,80,40
200.15088,200.31407,76,90,40
200.31754,200.59532,77,100,40
200.81754,200.96442,72,80,40
200.96754,201.11441,74,80,40
201.11754,201.26442,76,80,40
201.26755,201.83897,74,80,40
201.83897,201.98183,72,80,40
202.12468,202.67014,70,80,40
202.67014,202.8065,69,80,40
202.94287,203.01105,67,80,40
203.01105,203.07922,69,80,40
203.07922,203.21275,67,80,40
203.21559,203.35196,60,80,40
203.48831,203.62468,58,80,40
203.76105,204.12468,57,80,40
204.17014,204.30367,69,80,40
204.3065,204.44002,70,80,40
204.44287,204.57639,67,80,40
204.57922,205.12468,74,80,40
205.12468,205.26105,72,80,40
205.39742,205.8065,70,80,40
205.8065,205.87468,69,80,40
205.94286,206.07639,67,80,40
206.07922,206.21275,72,80,40
206.21559,206.76105,74,80,40
206.76105,206.8974,72,80,40
207.03377,207.44286,70,80,40
207.44286,207.51105,69,80,40
207.57922,207.71275,67,80,40
207.71559,207.8491,72,80,40
207.85194,208.3974,70,120,40
208.3974,208.53377,74,80,40
208.67014,209.07922,72,80,40
209.07922,209.1474,70,80,40
209.21559,209.3491,69,80,40
209.35194,209.48547,74,80,40
209.48831,209.85194,72,120,40
209.8974,210.03093,72,80,40
210.03377,210.16728,69,80,40
210.17014,210.30365,74,80,40
210.30649,210.67014,72,120,40
210.71559,210.8491,72,80,40
210.85194,210.98547,69,80,40
210.98831,211.12184,74,80,40
211.12468,211.67014,69,80,40
211.67014,211.80649,70,80,40
211.94286,212.48831,71,80,40
212.48831,212.62468,72,80,40
212.76103,212.8974,73,80,40
213.03377,213.17012,74,83,40
213.30649,213.44286,75,86,40
213.57922,213.71558,76,89,40
213.85194,213.98831,77,92,40
214.12468,214.26103,78,96,40
214.3974,214.9331,71,100,40
214.3974,214.9331,79,100,40
214.9331,215.06705,74,100,40
214.9331,215.06705,77,100,40
215.20097,215.72728,72,80,40
215.20097,215.72728,76,80,40
215.72728,215.85886,71,80,40
215.72728,215.85886,74,80,40
215.99045,216.2486,67,100,40
216.12088,216.51218,76,100,40
216.12088,216.51218,84,100,40
216.51218,216.64261,74,100,40
216.51218,216.64261,82,100,40
216.77304,217.29478,72,100,40
216.77304,217.29478,81,100,40
217.29478,217.42522,70,87,40
217.29478,217.42522,79,87,40
217.55565,217.77304,69,80,40
217.55565,217.77304,77,80,40
218.33826,218.48514,65,100,40
218.33826,218.63513,72,100,40
218.41327,218.63513,81,100,40
219.23827,220.77159,57,80,40
219.23827,220.77159,65,80,40
5.566662,5.7333283,62,60,41
5.7333283,5.896523,64,60,41
5.899995,6.1777725,65,60,41
7.56666,7.7333264,62,60,41
7.7333264,7.8965206,64,61,41
7.899993,8.06666,65,62,41
8.06666,8.233326,67,63,41
8.233326,8.399993,65,64,41
8.399993,8.563187,64,65,41
8.566659,8.733326,62,66,41
8.733326,8.89652,65,67,41
8.899992,9.066659,67,68,41
9.066659,9.233325,55,69,41
9.233325,9.39652,67,70,41
10.566657,10.733323,60,84,41
10.733323,10.896518,64,86,41
10.89999,11.070444,67,88,41
11.070444,11.237348,55,90,41
11.240899,11.411684,67,92,41
11.589736,11.768307,67,96,41
11.768307,11.943158,55,98,41
11.946878,12.571877,60,100,41
11.946878,12.571877,67,100,41
17.684965,17.851633,62,60,41
17.851633,18.014828,64,60,41
18.0183,18.296076,65,60,41
19.684963,19.851631,62,60,41
19.851631,20.014824,64,61,41
20.018297,20.184963,65,62,41
20.184963,20.35163,67,63,41
20.35163,20.518297,65,64,41
20.518297,20.68149,64,65,41
20.684963,20.85163,62,66,41
20.85163,21.014824,65,67,41
21.018295,21.184963,67,68,41
21.184963,21.35163,55,69,41
21.35163,21.514824,67,70,41
22.684961,22.851627,60,84,41
22.851627,23.014822,64,86,41
23.018293,23.18875,67,88,41
23.18875,23.355652,55,90,41
23.359203,23.529987,67,92,41
23.70804,23.886612,67,96,41
23.886612,24.061462,55,98,41
24.065182,24.69018,60,100,41
24.065182,24.69018,67,100,41
26.803272,26.96994,56,60,41
27.136606,27.303272,61,60,41
27.469938,27.636606,63,60,41
27.803272,28.136604,65,92,41
28.136604,28.719938,65,60,41
28.80327,29.136604,65,92,41
29.136604,29.719936,63,60,41
29.80327,30.136602,63,92,41
30.136602,30.719936,63,60,41
30.803268,31.136602,63,95,41
31.136602,31.719934,63,64,41
31.803268,32.1366,63,100,41
32.1366,32.719933,63,70,41
32.80327,33.1366,63,106,41
33.1366,33.733192,64,76,41
33.818417,34.15933,64,120,41
34.15933,34.776974,64,82,41
34.865208,35.21815,64,126,41
35.21815,35.858395,64,88,41
35.949856,36.31571,60,127,41
35.949856,36.31571,64,127,41
36.31571,37.35417,60,94,41
36.31571,37.35417,64,94,41
37.450325,37.61699,48,100,41
37.783657,37.950325,53,60,41
38.11699,38.283657,55,60,41
38.45032,38.61699,57,60,41
38.783657,38.95032,53,60,41
39.11699,39.20032,55,60,41
39.20032,39.283657,57,60,41
39.283657,39.45032,55,60,41
39.45032,39.61699,57,60,41
39.783653,39.95032,53,60,41
40.11699,40.283653,58,60,41
40.45032,40.61699,57,60,41
40.783653,40.95032,53,60,41
41.116985,41.20032,55,60,41
41.20032,41.283653,57,60,41
41.283653,41.45032,55,60,41
41.45032,41.616985,57,60,41
41.783653,41.95032,53,60,41
42.116985,42.283653,62,60,41
42.283653,42.446846,64,60,41
42.450317,42.616985,65,60,41
42.783653,42.950317,60,60,41
43.116985,43.283653,62,60,41
43.283653,43.450317,64,60,41
43.450317,43.616985,65,60,41
43.616985,43.78365,67,60,41
43.78365,43.950317,65,60,41
43.950317,44.11351,64,60,41
44.116985,44.28365,62,60,41
44.28365,44.450317,64,60,41
44.450317,44.616985,65,60,41
44.616985,44.78365,67,60,41
44.78365,44.950317,65,60,41
44.950317,45.11351,62,60,41
45.11698,45.28365,60,60,41
45.28365,45.450317,62,60,41
45.450317,45.61698,64,60,41
45.61698,45.78365,66,60,41
45.78365,45.950317,68,60,41
45.950317,46.11698,69,60,41
46.11698,46.28365,71,60,41
46.28365,46.450314,74,60,41
46.450314,46.61698,72,60,41
46.61698,46.78365,71,60,41
46.78365,46.946842,69,60,41
47.11698,47.283646,60,62,41
47.283646,47.450314,62,63,41
47.450314,47.61698,64,64,41
47.61698,47.783646,66,65,41
47.783646,47.950314,68,66,41
47.950314,48.11698,69,67,41
48.11698,48.283646,71,68,41
48.283646,48.450314,74,69,41
48.450314,48.616978,72,69,41
48.616978,48.783646,71,70,41
48.783646,48.94684,69,71,41
49.116978,49.283646,60,73,41
49.283646,49.450314,62,74,41
49.450314,49.616978,64,75,41
49.616978,49.783646,65,76,41
49.783646,49.95031,67,77,41
49.95031,50.116978,69,78,41
50.116978,50.283646,70,79,41
50.283646,50.45031,74,80,41
50.45031,50.616978,72,81,41
50.616978,50.783646,70,82,41
50.783646,50.94684,67,83,41
51.116978,51.28364,70,85,41
51.28364,51.45031,74,86,41
51.45031,51.616978,72,87,41
51.616978,51.78364,70,88,41
51.78364,51.94684,67,89,41
52.116978,52.28364,70,91,41
52.28364,52.45031,74,92,41
52.45031,52.62076,72,93,41
52.62076,52.791218,70,94,41
52.791218,52.962,67,95,41
53.140057,53.314907,64,97,41
53.140057,53.314907,72,97,41
53.497196,53.794815,65,100,41
53.497196,53.794815,69,100,41
54.03291,54.20776,72,80,41
54.21148,54.386333,74,80,41
54.390053,54.564903,76,82,41
54.568623,54.86624,77,84,41
57.306713,57.47338,56,60,41
57.640045,57.806713,61,60,41
57.97338,58.140045,63,60,41
58.306713,58.640045,65,92,41
58.640045,59.223377,65,60,41
59.306713,59.640045,65,92,41
59.640045,60.223377,63,60,41
60.30671,60.640045,63,92,41
60.640045,61.223377,63,60,41
61.30671,61.64004,63,95,41
61.64004,62.223377,63,64,41
62.30671,62.64004,63,100,41
62.64004,63.223373,63,70,41
63.30671,63.64004,63,106,41
63.64004,64.23663,64,76,41
64.32186,64.662766,64,120,41
64.662766,65.28042,64,82,41
65.36865,65.72159,64,126,41
65.72159,66.36183,64,88,41
66.4533,66.81915,60,127,41
66.4533,66.81915,64,127,41
66.81915,67.85761,60,94,41
66.81915,67.85761,64,94,41
67.953766,68.12043,48,100,41
68.2871,68.453766,53,60,41
68.62043,68.787094,55,60,41
68.953766,69.12043,57,60,41
69.287094,69.453766,53,60,41
69.62043,69.703766,55,60,41
69.703766,69.787094,57,60,41
69.787094,69.953766,55,60,41
69.953766,70.12043,57,60,41
70.287094,70.453766,53,60,41
70.62043,70.787094,58,60,41
70.95376,71.12043,57,60,41
71.287094,71.45376,53,60,41
71.62043,71.70376,55,60,41
71.70376,71.787094,57,60,41
71.787094,71.95376,55,60,41
71.95376,72.12043,57,60,41
72.287094,72.45376,53,60,41
72.62043,72.787094,62,60,41
72.787094,72.95029,64,60,41
72.95376,73.12043,65,60,41
73.287094,73.45376,60,60,41
73.62042,73.787094,62,60,41
73.787094,73.95376,64,60,41
73.95376,74.12042,65,60,41
74.12042,74.287094,67,60,41
74.287094,74.45376,65,60,41
74.45376,74.61695,64,60,41
74.62042,74.787094,62,60,41
74.787094,74.95376,64,60,41
74.95376,75.12042,65,60,41
75.12042,75.287094,67,60,41
75.287094,75.45376,65,60,41
75.45376,75.61695,62,60,41
75.62042,75.787094,60,60,41
75.787094,75.95376,62,60,41
75.95376,76.12042,64,60,41
76.12042,76.28709,66,60,41
76.28709,76.45376,68,60,41
76.45376,76.62042,69,60,41
76.62042,76.78709,71,60,41
76.78709,76.95376,74,60,41
76.95376,77.12042,72,60,41
77.12042,77.28709,71,60,41
77.28709,77.45029,69,60,41
77.62042,77.78709,60,62,41
77.78709,77.95376,62,63,41
77.95376,78.12042,64,64,41
78.12042,78.28709,66,65,41
78.28709,78.45376,68,66,41
78.45376,78.62042,69,67,41
78.62042,78.78709,71,68,41
78.78709,78.95375,74,69,41
78.95375,79.12042,72,69,41
79.12042,79.28709,71,70,41
79.28709,79.45028,69,71,41
79.62042,79.78709,60,73,41
79.78709,79.95375,62,74,41
79.95375,80.12042,64,75,41
80.12042,80.28709,65,76,41
80.28709,80.45375,67,77,41
80.45375,80.62042,69,78,41
80.62042,80.78709,70,79,41
80.78709,80.95375,74,80,41
80.95375,81.120415,72,81,41
81.120415,81.28709,70,82,41
81.28709,81.45028,67,83,41
81.620415,81.78709,70,85,41
81.78709,81.95375,74,86,41
81.95375,82.120415,72,87,41
82.120415,82.28709,70,88,41
82.28709,82.45028,67,89,41
82.620415,82.78709,70,91,41
82.78709,82.95375,74,92,41
82.95375,83.12421,72,93,41
83.12421,83.29466,70,94,41
83.29466,83.46545,67,95,41
83.64349,83.818344,64,97,41
83.64349,83.818344,72,97,41
84.00064,84.298256,65,100,41
84.00064,84.298256,69,100,41
84.536354,84.711205,72,80,41
84.71492,84.88977,74,80,41
84.89349,85.068344,76,82,41
85.07207,85.36968,77,100,41
85.57921,85.72608,60,80,41
85.7292,85.87608,62,80,41
85.8792,86.02608,64,90,41
86.029205,86.92921,65,100,41
86.92921,88.42921,65,80,41
88.42921,88.57921,64,80,41
88.7292,89.55421,65,80,41
89.6292,90.529205,65,100,41
90.529205,92.2542,65,80,41
92.32921,92.4792,64,80,41
92.6292,92.779205,62,86,41
92.92921,93.07921,60,93,41
93.2292,93.38227,62,100,41
93.53533,93.77217,65,100,41
93.85112,94.017784,71,100,41
94.18445,94.34764,64,100,41
94.18445,94.62889,72,100,41
94.267784,94.62889,79,100,41
94.68445,94.83132,60,100,41
94.83445,94.98132,62,100,41
94.98445,95.131325,64,100,41
95.13445,96.03445,65,100,41
96.03445,97.53445,65,80,41
97.53445,97.68445,64,80,41
97.83445,98.65945,65,80,41
98.73445,99.63445,65,100,41
99.63445,101.35945,65,80,41
101.43445,101.58445,64,80,41
101.73445,101.88445,62,86,41
102.03445,102.18445,60,93,41
102.33445,102.48751,62,100,41
102.64057,102.87741,65,100,41
102.95636,103.123024,71,100,41
103.289696,103.45289,64,100,41
103.289696,103.73414,72,100,41
103.373024,103.73414,79,100,41
103.789696,103.93657,67,100,41
103.93969,104.08657,69,100,41
104.08969,104.236565,71,100,41
104.23969,104.68969,72,100,41
104.68969,104.764694,67,100,41
104.83969,104.986565,69,96,41
104.98969,105.136566,71,92,41
105.139694,105.58969,72,88,41
105.58969,105.664696,67,74,41
105.73969,105.886566,69,70,41
105.889694,106.03657,71,65,41
106.039696,106.18657,72,60,41
106.18969,106.33657,67,60,41
106.33969,106.486565,69,60,41
106.48969,106.636566,71,60,41
106.639694,106.78657,72,60,41
106.789696,106.93657,67,60,41
106.93969,107.08657,69,60,41
107.08969,107.236565,71,66,41
107.23969,107.386566,72,72,41
107.389694,107.53657,68,79,41
107.539696,107.68657,70,86,41
107.68969,107.83657,72,93,41
107.83969,108.73969,73,100,41
108.73969,110.23969,73,80,41
110.23969,110.389694,72,80,41
110.539696,110.68969,73,80,41
110.83969,110.98969,68,80,41
111.139694,111.289696,66,90,41
111.43969,111.73969,65,100,41
111.73969,112.039696,73,100,41
112.039696,112.289696,72,96,41
112.33969,112.639694,68,92,41
112.639694,112.93969,72,88,41
112.93969,113.18969,70,84,41
113.23969,113.539696,66,80,41
113.539696,113.83969,65,80,41
113.83969,114.08969,64,80,41
114.139694,114.73969,66,80,41
114.73969,114.98969,65,81,41
115.039696,115.639694,68,82,41
115.639694,115.889694,66,84,41
115.93969,116.539696,73,85,41
116.539696,116.789696,72,87,41
116.83969,117.43969,78,88,41
117.43969,117.68969,77,90,41
117.73969,118.35194,73,91,41
118.35194,118.60704,72,93,41
118.65806,119.2703,78,94,41
119.2703,119.525406,77,96,41
119.57642,120.208,78,97,41
120.208,120.47116,77,99,41
120.52379,121.16895,79,100,41
121.16895,121.43777,77,100,41
121.49153,121.658195,75,100,41
121.82487,121.99153,74,97,41
122.158195,122.32487,72,94,41
122.49153,123.39153,70,91,41
123.39153,124.89153,70,80,41
124.89153,125.041534,69,80,41
125.19153,125.44153,70,80,41
125.49153,125.74153,65,80,41
125.791534,126.041534,63,80,41
126.09153,126.34153,62,80,41
126.39153,126.64153,65,81,41
126.69153,127.81653,70,82,41
127.89153,128.14153,67,88,41
128.19153,128.44153,74,90,41
128.49153,129.61653,79,92,41
129.69153,129.94664,60,100,41
129.99765,130.2608,67,100,41
130.31345,130.59122,76,100,41
130.64677,131.09122,69,100,41
130.64677,131.09122,77,100,41
131.14677,131.29366,67,100,41
131.29677,131.44365,69,100,41
131.44678,131.59364,71,100,41
131.59677,132.04677,72,100,41
132.04677,132.12178,67,100,41
132.19678,132.34364,69,96,41
132.34677,132.49365,71,92,41
132.49678,132.94678,72,88,41
132.94678,133.02177,67,74,41
133.09677,133.24365,69,70,41
133.24678,133.39365,71,65,41
133.39677,133.54366,72,60,41
133.54677,133.69365,67,60,41
133.69678,133.84364,69,60,41
133.84677,133.99365,71,60,41
133.99678,134.14365,72,60,41
134.14677,134.29366,67,60,41
134.29677,134.44365,69,60,41
134.44678,134.59364,71,66,41
134.59677,134.74365,72,72,41
134.74678,134.89365,68,79,41
134.89677,135.04366,70,86,41
135.04677,135.19365,72,93,41
135.19678,136.09677,73,100,41
136.09677,137.59677,73,80,41
137.59677,137.74678,72,80,41
137.89677,138.04677,73,80,41
138.19678,138.34677,68,80,41
138.49678,138.64677,66,90,41
138.79677,139.09677,65,100,41
139.09677,139.39677,73,100,41
139.39677,139.64677,72,96,41
139.69678,139.99678,68,92,41
139.99678,140.29677,72,88,41
140.29677,140.54677,70,84,41
140.59677,140.89677,66,80,41
140.89677,141.19678,65,80,41
141.19678,141.44678,64,80,41
141.49678,142.09677,66,80,41
142.09677,142.34677,65,81,41
142.39677,142.99678,68,82,41
142.99678,143.24678,66,84,41
143.29677,143.89677,73,85,41
143.89677,144.14677,72,87,41
144.19678,144.79677,78,88,41
144.79677,145.04677,77,90,41
145.09677,145.70901,73,91,41
145.70901,145.96413,72,93,41
146.01514,146.62738,78,94,41
146.62738,146.88249,77,96,41
146.9335,147.56508,78,97,41
147.56508,147.82825,77,99,41
147.88087,148.52603,79,100,41
148.52603,148.79485,77,100,41
148.84862,149.01527,75,100,41
149.18195,149.34862,74,97,41
149.51527,149.68195,72,94,41
149.84862,150.74861,70,91,41
150.74861,152.24861,70,80,41
152.24861,152.3986,69,80,41
152.54861,152.79861,70,80,41
152.84862,153.09862,65,80,41
153.1486,153.3986,63,80,41
153.44861,153.69861,62,80,41
153.74861,153.99861,65,81,41
154.04861,155.17361,70,82,41
155.24861,155.49861,67,88,41
155.54861,155.79861,74,90,41
155.84862,156.97362,79,92,41
157.04861,157.30371,60,100,41
157.35474,157.61789,67,100,41
157.67052,157.9483,76,100,41
158.00386,158.58719,69,100,41
158.00386,158.58719,77,100,41
163.67052,163.83719,62,60,41
163.83719,164.00038,64,60,41
164.00385,164.28163,65,60,41
165.67052,165.83719,62,60,41
165.83719,166.00038,64,61,41
166.00385,166.17052,65,62,41
166.17052,166.33719,67,63,41
166.33719,166.50385,65,64,41
166.50385,166.66704,64,65,41
166.67052,166.83717,62,66,41
166.83717,167.00038,65,67,41
167.00385,167.17052,67,68,41
167.17052,167.33717,55,69,41
167.33717,167.50038,67,70,41
168.67052,168.83717,60,84,41
168.83717,169.00037,64,86,41
169.00385,169.17052,67,88,41
169.17052,169.33371,55,90,41
169.33717,169.50037,67,92,41
169.67052,169.83717,67,96,41
169.83717,170.00037,55,98,41
170.00385,170.58717,60,100,41
170.00385,170.58717,67,100,41
172.6705,172.83717,56,60,41
173.00385,173.1705,61,60,41
173.33717,173.50385,63,60,41
173.6705,174.00385,65,92,41
174.00385,174.58717,65,60,41
174.6705,175.00385,65,92,41
175.00385,175.58717,63,60,41
175.6705,176.00385,63,92,41
176.00385,176.58717,63,60,41
176.6705,177.00383,63,95,41
177.00383,177.58717,63,64,41
177.6705,178.00383,63,100,41
178.00383,178.58717,63,70,41
178.6705,179.00383,63,106,41
179.00383,179.60043,64,76,41
179.68565,180.02657,64,120,41
180.02657,180.64421,64,82,41
180.73244,181.08539,64,126,41
181.08539,181.72563,64,88,41
181.8171,182.18294,60,127,41
181.8171,182.18294,64,127,41
182.18294,183.2214,60,94,41
182.18294,183.2214,64,94,41
183.31757,183.48422,48,100,41
183.6509,183.81757,53,60,41
183.98422,184.1509,55,60,41
184.31757,184.48422,57,60,41
184.6509,184.81755,53,60,41
184.98422,185.06755,55,60,41
185.06755,185.1509,57,60,41
185.1509,185.31755,55,60,41
185.31755,185.48422,57,60,41
185.6509,185.81755,53,60,41
185.98422,186.1509,58,60,41
186.31755,186.48422,57,60,41
186.6509,186.81755,53,60,41
186.98422,187.06755,55,60,41
187.06755,187.1509,57,60,41
187.1509,187.31755,55,60,41
187.31755,187.48422,57,60,41
187.6509,187.81755,53,60,41
187.98422,188.1509,62,60,41
188.1509,188.31409,64,60,41
188.31755,188.48422,65,60,41
188.6509,188.81755,60,60,41
188.98422,189.1509,62,60,41
189.1509,189.31755,64,60,41
189.31755,189.48422,65,60,41
189.48422,189.65088,67,60,41
189.65088,189.81755,65,60,41
189.81755,189.98074,64,60,41
189.98422,190.15088,62,60,41
190.15088,190.31755,64,60,41
190.31755,190.48422,65,60,41
190.48422,190.65088,67,60,41
190.65088,190.81755,65,60,41
190.81755,190.98074,62,60,41
190.98422,191.15088,60,60,41
191.15088,191.31755,62,60,41
191.31755,191.48422,64,60,41
191.48422,191.65088,66,60,41
191.65088,191.81755,68,60,41
191.81755,191.98422,69,60,41
191.98422,192.15088,71,60,41
192.15088,192.31755,74,60,41
192.31755,192.48422,72,60,41
192.48422,192.65088,71,60,41
192.65088,192.81407,69,60,41
192.98422,193.15088,60,62,41
193.15088,193.31755,62,63,41
193.31755,193.48422,64,64,41
193.48422,193.65088,66,65,41
193.65088,193.81755,68,66,41
193.81755,193.98422,69,67,41
193.98422,194.15088,71,68,41
194.15088,194.31755,74,69,41
194.31755,194.48422,72,69,41
194.48422,194.65088,71,70,41
194.65088,194.81407,69,71,41
194.9842,195.15088,60,73,41
195.15088,195.31755,62,74,41
195.31755,195.4842,64,75,41
195.4842,195.65088,65,76,41
195.65088,195.81755,67,77,41
195.81755,195.9842,69,78,41
195.9842,196.15088,70,79,41
196.15088,196.31755,74,80,41
196.31755,196.4842,72,81,41
196.4842,196.65088,70,82,41
196.65088,196.81407,67,83,41
196.9842,197.15088,70,85,41
197.15088,197.31755,74,86,41
197.31755,197.4842,72,87,41
197.4842,197.65088,70,88,41
197.65088,197.81407,67,89,41
197.9842,198.15088,70,91,41
198.15088,198.31755,74,92,41
198.31755,198.4842,72,93,41
198.4842,198.65088,70,94,41
198.65088,198.81407,67,95,41
198.9842,199.1474,64,97,41
198.9842,199.1474,72,97,41
199.31755,199.59532,65,100,41
199.31755,199.59532,69,100,41
199.81754,199.98074,72,80,41
199.9842,200.1474,74,80,41
200.15088,200.31407,76,90,41
200.31754,200.59532,77,100,41
200.81754,200.96442,60,80,41
200.96754,201.11441,62,80,41
201.11754,201.26442,64,80,41
201.26755,202.12468,65,80,41
202.12468,203.42014,65,80,41
203.48831,203.62468,64,80,41
203.76105,204.51105,65,80,41
204.57922,205.39742,65,120,41
205.39742,205.94286,65,80,41
205.94286,206.07922,64,80,41
206.21559,207.03377,65,120,41
207.03377,207.57922,65,80,41
207.57922,207.71559,64,80,41
207.85194,208.67014,67,120,41
208.67014,209.1474,67,80,41
209.21559,209.35194,65,80,41
209.48831,210.03377,69,120,41
210.03377,210.17014,65,80,41
210.30649,210.85194,69,120,41
210.85194,210.98831,65,80,41
211.12468,211.67014,69,80,41
211.67014,211.80649,70,80,41
211.94286,212.48831,71,80,41
212.48831,212.71558,72,80,41
212.76103,212.8974,61,80,41
213.03377,213.17012,62,83,41
213.30649,213.44286,63,86,41
213.57922,213.71558,64,89,41
213.85194,213.98831,65,92,41
214.12468,214.26103,66,96,41
214.3974,214.52853,55,100,41
214.3974,214.66246,65,100,41
214.46437,214.66246,71,100,41
215.20097,215.42027,55,80,41
215.20097,215.42027,65,80,41
215.99045,216.2486,55,100,41
215.99045,216.51218,64,100,41
216.12088,216.51218,72,100,41
216.51218,216.64261,70,100,41
216.77304,217.29478,69,100,41
217.29478,217.42522,67,87,41
217.55565,217.77304,65,80,41
218.33826,218.48514,57,100,41
218.33826,218.63513,65,100,41
218.41327,218.63513,72,100,41
219.23827,220.77159,57,80,41
219.23827,220.77159,65,80,41
3.566664,3.7333305,50,60,41
3.7333305,3.8965247,52,60,41
3.899997,4.1777744,53,60,41
6.566661,6.7333274,50,60,41
6.7333274,6.8965216,52,60,41
6.899994,7.0666604,53,60,41
7.0666604,7.233327,55,61,41
7.233327,7.3999934,53,62,41
7.3999934,7.5631876,52,63,41
7.56666,7.7333264,50,64,41
7.7333264,7.8965206,52,65,41
7.899993,8.06666,53,66,41
8.06666,8.233326,55,67,41
8.233326,8.399993,53,68,41
8.399993,8.563187,52,69,41
8.566659,8.733326,50,70,41
8.733326,8.89652,53,71,41
8.899992,9.063187,55,72,41
9.566658,9.733324,55,77,41
9.733324,9.896519,59,78,41
9.899991,10.066657,60,79,41
10.066657,10.233324,48,80,41
10.233324,10.396519,60,81,41
11.589736,11.768307,67,96,41
11.768307,11.943158,71,98,41
11.946878,12.125449,72,100,41
12.125449,12.30402,60,100,41
12.30402,12.47887,72,100,41
15.684968,15.851634,50,60,41
15.851634,16.01483,52,60,41
16.018301,16.296078,53,60,41
18.684965,18.851631,50,60,41
18.851631,19.014826,52,60,41
19.018297,19.184965,53,60,41
19.184965,19.351631,55,61,41
19.351631,19.518297,53,62,41
19.518297,19.681492,52,63,41
19.684963,19.851631,50,64,41
19.851631,20.014824,52,65,41
20.018297,20.184963,53,66,41
20.184963,20.35163,55,67,41
20.35163,20.518297,53,68,41
20.518297,20.68149,52,69,41
20.684963,20.85163,50,70,41
20.85163,21.014824,53,71,41
21.018295,21.18149,55,72,41
21.684961,21.85163,55,77,41
21.85163,22.014822,59,78,41
22.018295,22.184961,60,79,41
22.184961,22.351627,48,80,41
22.351627,22.514822,60,81,41
23.70804,23.886612,67,96,41
23.886612,24.061462,71,98,41
24.065182,24.243753,72,100,41
24.243753,24.422323,60,100,41
24.422323,24.597176,72,100,41
27.803272,27.969938,53,60,41
28.136604,28.303272,58,60,41
28.469938,28.636604,60,60,41
28.80327,29.136604,61,92,41
29.136604,29.719936,61,60,41
29.80327,30.136602,61,92,41
30.136602,30.719936,61,60,41
30.803268,31.136602,61,95,41
31.136602,31.719934,61,64,41
31.803268,32.1366,61,100,41
32.1366,32.719933,61,70,41
32.80327,33.1366,61,106,41
33.1366,33.733192,60,76,41
33.818417,34.15933,60,120,41
34.15933,34.776974,60,82,41
34.865208,35.21815,60,126,41
35.21815,35.858395,60,88,41
35.949856,36.31571,48,127,41
35.949856,36.31571,55,127,41
36.31571,37.35417,48,94,41
36.31571,37.35417,55,94,41
37.450325,37.61699,48,100,41
37.783657,37.950325,48,60,41
38.11699,38.283657,52,60,41
38.45032,38.61699,53,60,41
38.783657,38.95032,48,60,41
39.11699,39.45032,52,60,41
39.45032,39.61699,53,60,41
39.783653,39.95032,48,60,41
40.11699,40.20032,50,60,41
40.283653,40.36699,52,60,41
40.45032,40.61699,53,60,41
40.783653,40.95032,48,60,41
41.116985,41.45032,52,60,41
41.45032,41.616985,53,60,41
41.783653,41.95032,48,60,41
42.116985,42.283653,50,60,41
42.283653,42.446846,52,60,41
42.450317,42.616985,53,60,41
42.783653,42.950317,48,60,41
43.116985,43.283653,50,60,41
43.283653,43.450317,52,60,41
43.450317,43.616985,53,60,41
43.616985,43.78365,55,60,41
43.78365,43.950317,53,60,41
43.950317,44.11351,52,60,41
44.116985,44.28365,50,60,41
44.28365,44.450317,52,60,41
44.450317,44.616985,53,60,41
44.616985,44.78365,55,60,41
44.78365,44.950317,53,60,41
44.950317,45.11351,50,60,41
45.11698,45.28365,48,60,41
45.28365,45.450317,50,60,41
45.450317,45.61698,52,60,41
45.61698,45.78365,54,60,41
45.78365,45.950317,56,60,41
45.950317,46.11698,57,60,41
46.11698,46.28365,59,60,41
46.28365,46.450314,62,60,41
46.450314,46.61698,60,60,41
46.61698,46.78365,59,60,41
46.78365,46.946842,57,60,41
47.11698,47.283646,48,62,41
47.283646,47.450314,50,63,41
47.450314,47.61698,52,64,41
47.61698,47.783646,54,65,41
47.783646,47.950314,56,66,41
47.950314,48.11698,57,67,41
48.11698,48.283646,59,68,41
48.283646,48.450314,62,69,41
48.450314,48.616978,60,69,41
48.616978,48.783646,59,70,41
48.783646,48.94684,57,71,41
49.116978,49.283646,48,73,41
49.283646,49.450314,50,74,41
49.450314,49.616978,52,75,41
49.616978,49.783646,53,76,41
49.783646,49.95031,55,77,41
49.95031,50.116978,57,78,41
50.116978,50.283646,58,79,41
50.283646,50.45031,62,80,41
50.45031,50.616978,60,81,41
50.616978,50.783646,58,82,41
50.783646,50.94684,55,83,41
51.116978,51.28364,58,85,41
51.28364,51.45031,62,86,41
51.45031,51.616978,60,87,41
51.616978,51.78364,58,88,41
51.78364,51.94684,55,89,41
52.116978,52.28364,58,91,41
52.28364,52.45031,62,92,41
52.45031,52.62076,60,93,41
52.62076,52.791218,58,94,41
52.791218,52.962,55,95,41
53.140057,53.314907,60,97,41
53.497196,53.794815,53,100,41
53.497196,53.794815,60,100,41
54.03291,54.20776,60,80,41
54.21148,54.386333,62,80,41
54.390053,54.564903,64,90,41
54.568623,54.86624,65,100,41
58.306713,58.47338,53,60,41
58.640045,58.806713,58,60,41
58.973377,59.140045,60,60,41
59.306713,59.640045,61,92,41
59.640045,60.223377,61,60,41
60.30671,60.640045,61,92,41
60.640045,61.223377,61,60,41
61.30671,61.64004,61,95,41
61.64004,62.223377,61,64,41
62.30671,62.64004,61,100,41
62.64004,63.223373,61,70,41
63.30671,63.64004,61,106,41
63.64004,64.23663,60,76,41
64.32186,64.662766,60,120,41
64.662766,65.28042,60,82,41
65.36865,65.72159,60,126,41
65.72159,66.36183,60,88,41
66.4533,66.81915,48,127,41
66.4533,66.81915,55,127,41
66.81915,67.85761,48,94,41
66.81915,67.85761,55,94,41
67.953766,68.12043,48,100,41
68.2871,68.453766,48,60,41
68.62043,68.787094,52,60,41
68.953766,69.12043,53,60,41
69.287094,69.453766,48,60,41
69.62043,69.953766,52,60,41
69.953766,70.12043,53,60,41
70.287094,70.453766,48,60,41
70.62043,70.703766,50,60,41
70.787094,70.87043,52,60,41
70.95376,71.12043,53,60,41
71.287094,71.45376,48,60,41
71.62043,71.95376,52,60,41
71.95376,72.12043,53,60,41
72.287094,72.45376,48,60,41
72.62043,72.787094,50,60,41
72.787094,72.95029,52,60,41
72.95376,73.12043,53,60,41
73.287094,73.45376,48,60,41
73.62042,73.787094,50,60,41
73.787094,73.95376,52,60,41
73.95376,74.12042,53,60,41
74.12042,74.287094,55,60,41
74.287094,74.45376,53,60,41
74.45376,74.61695,52,60,41
74.62042,74.787094,50,60,41
74.787094,74.95376,52,60,41
74.95376,75.12042,53,60,41
75.12042,75.287094,55,60,41
75.287094,75.45376,53,60,41
75.45376,75.61695,50,60,41
75.62042,75.787094,48,60,41
75.787094,75.95376,50,60,41
75.95376,76.12042,52,60,41
76.12042,76.28709,54,60,41
76.28709,76.45376,56,60,41
76.45376,76.62042,57,60,41
76.62042,76.78709,59,60,41
76.78709,76.95376,62,60,41
76.95376,77.12042,60,60,41
77.12042,77.28709,59,60,41
77.28709,77.45029,57,60,41
77.62042,77.78709,48,62,41
77.78709,77.95376,50,63,41
77.95376,78.12042,52,64,41
78.12042,78.28709,54,65,41
78.28709,78.45376,56,66,41
78.45376,78.62042,57,67,41
78.62042,78.78709,59,68,41
78.78709,78.95375,62,69,41
78.95375,79.12042,60,69,41
79.12042,79.28709,59,70,41
79.28709,79.45028,57,71,41
79.62042,79.78709,48,73,41
79.78709,79.95375,50,74,41
79.95375,80.12042,52,75,41
80.12042,80.28709,53,76,41
80.28709,80.45375,55,77,41
80.45375,80.62042,57,78,41
80.62042,80.78709,58,79,41
80.78709,80.95375,62,80,41
80.95375,81.120415,60,81,41
81.120415,81.28709,58,82,41
81.28709,81.45028,55,83,41
81.620415,81.78709,58,85,41
81.78709,81.95375,62,86,41
81.95375,82.120415,60,87,41
82.120415,82.28709,58,88,41
82.28709,82.45028,55,89,41
82.620415,82.78709,58,91,41
82.78709,82.95375,62,92,41
82.95375,83.12421,60,93,41
83.12421,83.29466,58,94,41
83.29466,83.46545,55,95,41
83.64349,83.818344,60,97,41
84.00064,84.298256,53,100,41
84.00064,84.298256,60,100,41
84.536354,84.711205,60,80,41
84.71492,84.88977,62,80,41
84.89349,85.068344,64,90,41
85.07207,85.36968,65,100,41
85.57921,85.72608,48,80,41
85.7292,85.87608,50,80,41
85.8792,86.02608,52,90,41
86.029205,86.92921,53,100,41
86.92921,88.42921,53,80,41
88.42921,88.57921,52,80,41
88.7292,89.55421,53,80,41
89.6292,90.529205,53,100,41
90.529205,92.2542,53,80,41
92.32921,92.4792,52,80,41
92.6292,92.779205,50,86,41
92.92921,93.07921,48,93,41
93.2292,93.38227,50,100,41
93.53533,93.77217,53,100,41
93.85112,94.017784,59,100,41
94.18445,94.62889,60,100,41
94.68445,94.83132,48,100,41
94.83445,94.98132,50,100,41
94.98445,95.131325,52,100,41
95.13445,96.03445,53,100,41
96.03445,97.53445,53,80,41
97.53445,97.68445,52,80,41
97.83445,98.65945,53,80,41
98.73445,99.63445,53,100,41
99.63445,101.35945,53,80,41
101.43445,101.58445,52,80,41
101.73445,101.88445,50,86,41
102.03445,102.18445,48,93,41
102.33445,102.48751,50,100,41
102.64057,102.87741,53,100,41
102.95636,103.123024,59,100,41
103.289696,103.73414,60,100,41
103.789696,103.93657,67,100,41
103.93969,104.08657,69,100,41
104.08969,104.236565,71,100,41
104.23969,104.68969,72,100,41
104.68969,104.764694,55,100,41
104.83969,104.986565,57,96,41
104.98969,105.136566,59,92,41
105.139694,105.58969,60,88,41
105.58969,105.664696,67,74,41
105.73969,105.886566,69,70,41
105.889694,106.03657,71,65,41
106.039696,106.18657,72,60,41
106.18969,106.33657,55,60,41
106.33969,106.486565,57,60,41
106.48969,106.636566,59,60,41
106.639694,106.78657,60,60,41
106.789696,106.93657,67,60,41
106.93969,107.08657,69,60,41
107.08969,107.236565,71,66,41
107.23969,107.386566,72,72,41
107.389694,107.53657,56,79,41
107.539696,107.68657,58,86,41
107.68969,107.83657,60,93,41
107.83969,108.73969,61,100,41
108.73969,110.23969,61,80,41
110.23969,110.389694,60,80,41
110.539696,110.68969,61,80,41
110.83969,110.98969,56,80,41
111.139694,111.289696,54,90,41
111.43969,111.73969,53,100,41
111.73969,112.039696,61,100,41
112.039696,112.289696,60,96,41
112.33969,112.639694,56,92,41
112.639694,112.93969,60,88,41
112.93969,113.18969,58,84,41
113.23969,113.539696,54,80,41
113.539696,113.83969,53,80,41
113.83969,114.08969,52,80,41
114.139694,114.73969,54,80,41
114.73969,114.98969,53,81,41
115.039696,115.639694,56,82,41
115.639694,115.889694,54,84,41
115.93969,116.18969,49,85,41
116.23969,116.539696,61,86,41
116.539696,116.789696,60,87,41
116.83969,117.08969,54,88,41
117.139694,117.43969,66,89,41
117.43969,117.68969,65,90,41
117.73969,117.9948,49,91,41
118.045815,118.35194,61,92,41
118.35194,118.60704,60,93,41
118.65806,118.91316,54,94,41
118.96418,119.2703,66,95,41
119.2703,119.525406,65,96,41
119.57642,119.839584,54,97,41
119.89221,120.208,66,98,41
120.208,120.47116,65,99,41
120.52379,120.79261,55,100,41
120.846375,121.16895,67,100,41
121.16895,121.43777,65,100,41
121.49153,121.658195,63,100,41
121.82487,121.99153,62,97,41
122.158195,122.32487,60,94,41
122.49153,123.39153,58,91,41
123.39153,124.89153,58,80,41
124.89153,125.041534,57,80,41
125.19153,125.44153,58,80,41
125.49153,125.74153,53,80,41
125.791534,126.041534,51,80,41
126.09153,126.34153,50,80,41
126.39153,126.64153,53,81,41
126.69153,127.81653,58,82,41
127.89153,128.11653,55,88,41
128.19153,128.34154,62,90,41
128.49153,129.61653,67,92,41
129.69153,129.94664,48,100,41
129.99765,130.2608,55,100,41
130.31345,130.59122,60,100,41
130.64677,130.80997,53,100,41
130.64677,131.09122,60,100,41
130.7301,131.09122,69,100,41
131.14677,131.29366,67,100,41
131.29677,131.44365,69,100,41
131.44678,131.59364,71,100,41
131.59677,132.04677,72,100,41
132.04677,132.12178,55,100,41
132.19678,132.34364,57,96,41
132.34677,132.49365,59,92,41
132.49678,132.94678,60,88,41
132.94678,133.02177,67,74,41
133.09677,133.24365,69,70,41
133.24678,133.39365,71,65,41
133.39677,133.54366,72,60,41
133.54677,133.69365,55,60,41
133.69678,133.84364,57,60,41
133.84677,133.99365,59,60,41
133.99678,134.14365,60,60,41
134.14677,134.29366,67,60,41
134.29677,134.44365,69,60,41
134.44678,134.59364,71,66,41
134.59677,134.74365,72,72,41
134.74678,134.89365,56,79,41
134.89677,135.04366,58,86,41
135.04677,135.19365,60,93,41
135.19678,136.09677,61,100,41
136.09677,137.59677,61,80,41
137.59677,137.74678,60,80,41
137.89677,138.04677,61,80,41
138.19678,138.34677,56,80,41
138.49678,138.64677,54,90,41
138.79677,139.09677,53,100,41
139.09677,139.39677,61,100,41
139.39677,139.64677,60,96,41
139.69678,139.99678,56,92,41
139.99678,140.29677,60,88,41
140.29677,140.54677,58,84,41
140.59677,140.89677,54,80,41
140.89677,141.19678,53,80,41
141.19678,141.44678,52,80,41
141.49678,142.09677,54,80,41
142.09677,142.34677,53,81,41
142.39677,142.99678,56,82,41
142.99678,143.24678,54,84,41
143.29677,143.54677,49,85,41
143.59677,143.89677,61,86,41
143.89677,144.14677,60,87,41
144.19678,144.44678,54,88,41
144.49678,144.79677,66,89,41
144.79677,145.04677,65,90,41
145.09677,145.35188,49,91,41
145.4029,145.70901,61,92,41
145.70901,145.96413,60,93,41
146.01514,146.27025,54,94,41
146.32126,146.62738,66,95,41
146.62738,146.88249,65,96,41
146.9335,147.19667,54,97,41
147.2493,147.56508,66,98,41
147.56508,147.82825,65,99,41
147.88087,148.14969,55,100,41
148.20346,148.52603,67,100,41
148.52603,148.79485,65,100,41
148.84862,149.01527,63,100,41
149.18195,149.34862,62,97,41
149.51527,149.68195,60,94,41
149.84862,150.74861,58,91,41
150.74861,152.24861,58,80,41
152.24861,152.3986,57,80,41
152.54861,152.79861,58,80,41
152.84862,153.09862,53,80,41
153.1486,153.3986,51,80,41
153.44861,153.69861,50,80,41
153.74861,153.99861,53,81,41
154.04861,155.17361,58,82,41
155.24861,155.47362,55,88,41
155.54861,155.69861,62,90,41
155.84862,156.97362,67,92,41
157.04861,157.30371,48,100,41
157.35474,157.61789,55,100,41
157.67052,157.9483,60,100,41
158.00386,158.16705,53,100,41
158.00386,158.61496,60,100,41
158.08719,158.61496,69,100,41
161.67052,161.83719,50,60,41
161.83719,162.00038,52,60,41
162.00385,162.28163,53,60,41
164.67052,164.83719,50,60,41
164.83719,165.00038,52,60,41
165.00385,165.17052,53,60,41
165.17052,165.33719,55,61,41
165.33719,165.50385,53,62,41
165.50385,165.66704,52,63,41
165.67052,165.83719,50,64,41
165.83719,166.00038,52,65,41
166.00385,166.17052,53,66,41
166.17052,166.33719,55,67,41
166.33719,166.50385,53,68,41
166.50385,166.66704,52,69,41
166.67052,166.83717,50,70,41
166.83717,167.00038,53,71,41
167.00385,167.16704,55,72,41
167.67052,167.83717,55,77,41
167.83717,168.00038,59,78,41
168.00385,168.17052,60,79,41
168.17052,168.33717,48,80,41
168.33717,168.50037,60,81,41
169.67052,169.83717,67,96,41
169.83717,170.00037,71,98,41
170.00385,170.17052,72,100,41
170.17052,170.33717,60,100,41
170.33717,170.50037,72,100,41
173.6705,173.83717,53,60,41
174.00385,174.1705,58,60,41
174.33717,174.50385,60,60,41
174.6705,175.00385,61,92,41
175.00385,175.58717,61,60,41
175.6705,176.00385,61,92,41
176.00385,176.58717,61,60,41
176.6705,177.00383,61,95,41
177.00383,177.58717,61,64,41
177.6705,178.00383,61,100,41
178.00383,178.58717,61,70,41
178.6705,179.00383,61,106,41
179.00383,179.60043,60,76,41
179.68565,180.02657,60,120,41
180.02657,180.64421,60,82,41
180.73244,181.08539,60,126,41
181.08539,181.72563,60,88,41
181.8171,182.18294,48,127,41
181.8171,182.18294,55,127,41
182.18294,183.2214,48,94,41
182.18294,183.2214,55,94,41
183.31757,183.48422,48,100,41
183.6509,183.81757,48,60,41
183.98422,184.1509,52,60,41
184.31757,184.48422,53,60,41
184.6509,184.81755,48,60,41
184.98422,185.31755,52,60,41
185.31755,185.48422,53,60,41
185.6509,185.81755,48,60,41
185.98422,186.06755,50,60,41
186.1509,186.23422,52,60,41
186.31755,186.48422,53,60,41
186.6509,186.81755,48,60,41
186.98422,187.31755,52,60,41
187.31755,187.48422,53,60,41
187.6509,187.81755,48,60,41
187.98422,188.1509,50,60,41
188.1509,188.31409,52,60,41
188.31755,188.48422,53,60,41
188.6509,188.81755,48,60,41
188.98422,189.1509,50,60,41
189.1509,189.31755,52,60,41
189.31755,189.48422,53,60,41
189.48422,189.65088,55,60,41
189.65088,189.81755,53,60,41
189.81755,189.98074,52,60,41
189.98422,190.15088,50,60,41
190.15088,190.31755,52,60,41
190.31755,190.48422,53,60,41
190.48422,190.65088,55,60,41
190.65088,190.81755,53,60,41
190.81755,190.98074,50,60,41
190.98422,191.15088,48,60,41
191.15088,191.31755,50,60,41
191.31755,191.48422,52,60,41
191.48422,191.65088,54,60,41
191.65088,191.81755,56,60,41
191.81755,191.98422,57,60,41
191.98422,192.15088,59,60,41
192.15088,192.31755,62,60,41
192.31755,192.48422,60,60,41
192.48422,192.65088,59,60,41
192.65088,192.81407,57,60,41
192.98422,193.15088,48,62,41
193.15088,193.31755,50,63,41
193.31755,193.48422,52,64,41
193.48422,193.65088,54,65,41
193.65088,193.81755,56,66,41
193.81755,193.98422,57,67,41
193.98422,194.15088,59,68,41
194.15088,194.31755,62,69,41
194.31755,194.48422,60,69,41
194.48422,194.65088,59,70,41
194.65088,194.81407,57,71,41
194.9842,195.15088,48,73,41
195.15088,195.31755,50,74,41
195.31755,195.4842,52,75,41
195.4842,195.65088,53,76,41
195.65088,195.81755,55,77,41
195.81755,195.9842,57,78,41
195.9842,196.15088,58,79,41
196.15088,196.31755,62,80,41
196.31755,196.4842,60,81,41
196.4842,196.65088,58,82,41
196.65088,196.81407,55,83,41
196.9842,197.15088,58,85,41
197.15088,197.31755,62,86,41
197.31755,197.4842,60,87,41
197.4842,197.65088,58,88,41
197.65088,197.81407,55,89,41
197.9842,198.15088,58,91,41
198.15088,198.31755,62,92,41
198.31755,198.4842,60,93,41
198.4842,198.65088,58,94,41
198.65088,198.81407,55,95,41
198.9842,199.1474,60,97,41
199.31755,199.59532,53,100,41
199.31755,199.59532,60,100,41
199.81754,199.98074,60,80,41
199.9842,200.1474,62,80,41
200.15088,200.31407,64,90,41
200.31754,200.59532,65,100,41
200.81754,200.96442,48,80,41
200.96754,201.11441,50,80,41
201.11754,201.26442,52,80,41
201.26755,202.12468,53,80,41
202.12468,203.42014,53,80,41
203.48831,203.62468,52,80,41
203.76105,204.51105,53,80,41
204.57922,205.39742,53,120,41
205.39742,205.87468,53,80,41
205.94286,206.07922,52,80,41
206.21559,207.03377,53,120,41
207.03377,207.51105,53,80,41
207.57922,207.71559,52,80,41
207.85194,208.67014,55,120,41
208.67014,209.1474,55,80,41
209.21559,209.35194,53,80,41
209.48831,210.03377,57,120,41
210.03377,210.17014,53,80,41
210.30649,210.85194,57,120,41
210.85194,210.98831,53,80,41
211.12468,211.67014,57,80,41
211.67014,211.80649,58,80,41
211.94286,212.48831,59,80,41
212.48831,212.62468,60,80,41
212.76103,212.8974,61,80,41
213.03377,213.17012,62,83,41
213.30649,213.44286,63,86,41
213.57922,213.71558,64,89,41
213.85194,213.98831,65,92,41
214.12468,214.26103,66,96,41
214.3974,214.62062,59,100,41
214.3974,214.62062,67,100,41
215.20097,215.42027,59,80,41
215.20097,215.42027,67,80,41
215.99045,216.11816,48,100,41
215.99045,216.2486,58,100,41
216.05566,216.2486,67,100,41
216.77304,216.90077,48,100,41
216.77304,217.0312,58,100,41
216.83827,217.0312,64,100,41
217.55565,217.68336,48,80,41
217.55565,217.81381,57,80,41
217.62086,217.81381,65,80,41
218.33826,218.48514,53,100,41
218.33826,218.63513,60,100,41
218.41327,218.63513,69,100,41
219.23827,220.77159,53,80,41
219.23827,220.77159,60,80,41
0.9,1.1777775,36,60,45
1.233333,1.5111105,41,60,45
1.566666,1.8444434,48,60,45
1.899999,2.1777766,53,60,45
2.233332,2.5111096,41,60,45
2.566665,2.8444426,48,60,45
2.899998,3.1777754,53,60,45
3.233331,3.5111084,41,60,45
3.566664,3.8444414,46,60,45
3.899997,4.1777744,53,60,45
4.23333,4.5111074,41,60,45
4.566663,4.8444405,48,60,45
4.899996,5.1777735,53,60,45
5.233329,5.5111065,41,60,45
5.566662,5.8444395,46,60,45
5.899995,6.1777725,53,60,45
6.233328,6.5111055,41,60,45
6.566661,6.8444386,46,60,45
6.899994,7.1777716,53,60,45
7.233327,7.5111046,41,62,45
7.56666,7.8444376,46,64,45
7.899993,8.177771,53,66,45
8.233326,8.511104,41,68,45
8.566659,8.844437,38,70,45
8.899992,9.17777,43,73,45
9.233325,9.511103,55,76,45
9.566658,9.844436,43,79,45
9.899991,10.177769,55,82,45
10.233324,10.511102,43,85,45
10.566657,10.844435,55,88,45
10.89999,11.184081,43,91,45
11.240899,11.531596,55,94,45
11.589736,11.887354,43,97,45
11.946878,12.244496,36,100,45
11.946878,12.244496,48,100,45
11.946878,12.244496,55,100,45
13.018304,13.296082,36,60,45
13.351637,13.629415,41,60,45
13.68497,13.962748,48,60,45
14.018303,14.296081,53,60,45
14.351636,14.629414,41,60,45
14.684969,14.962747,48,60,45
15.018302,15.29608,53,60,45
15.351635,15.629413,41,60,45
15.684968,15.962746,46,60,45
16.018301,16.296078,53,60,45
16.351633,16.629412,41,60,45
16.684967,16.962744,48,60,45
17.0183,17.296078,53,60,45
17.351633,17.62941,41,60,45
17.684965,17.962744,46,60,45
18.0183,18.296076,53,60,45
18.351631,18.62941,41,60,45
18.684965,18.962742,46,60,45
19.018297,19.296076,53,60,45
19.351631,19.629408,41,62,45
19.684963,19.962742,46,64,45
20.018297,20.296074,53,66,45
20.35163,20.629408,41,68,45
20.684963,20.96274,38,70,45
21.018295,21.296074,43,73,45
21.35163,21.629406,55,76,45
21.684961,21.96274,43,79,45
22.018295,22.296072,55,82,45
22.351627,22.629406,43,85,45
22.684961,22.962738,55,88,45
23.018293,23.302385,43,91,45
23.359203,23.6499,55,94,45
23.70804,24.00566,43,97,45
24.065182,24.3628,36,100,45
24.065182,24.3628,48,100,45
24.065182,24.3628,55,100,45
37.450325,37.7281,36,100,45
37.783657,38.061436,41,60,45
38.11699,38.394768,48,60,45
38.45032,38.7281,53,60,45
38.783657,39.06143,41,60,45
39.11699,39.394768,48,60,45
39.45032,39.7281,53,60,45
39.783653,40.06143,41,60,45
40.11699,40.394764,46,60,45
40.45032,40.7281,53,60,45
40.783653,41.06143,41,60,45
41.116985,41.394764,48,60,45
41.45032,41.728096,53,60,45
41.783653,42.06143,41,60,45
42.116985,42.394764,46,60,45
42.450317,42.728096,53,60,45
42.783653,43.061428,41,60,45
43.116985,43.394764,46,60,45
43.450317,43.728096,53,60,45
43.78365,44.061428,41,61,45
44.116985,44.39476,46,62,45
44.450317,44.728096,53,63,45
44.78365,45.061428,41,64,45
45.11698,45.280178,36,65,45
45.28365,45.446842,38,65,45
45.450317,45.728092,40,65,45
67.953766,68.231544,36,100,45
68.2871,68.56487,41,60,45
68.62043,68.89821,48,60,45
68.953766,69.231544,53,60,45
69.287094,69.56487,41,60,45
69.62043,69.89821,48,60,45
69.953766,70.23154,53,60,45
70.287094,70.56487,41,60,45
70.62043,70.89821,46,60,45
70.95376,71.23154,53,60,45
71.287094,71.56487,41,60,45
71.62043,71.89821,48,60,45
71.95376,72.23154,53,60,45
72.287094,72.56487,41,60,45
72.62043,72.8982,46,60,45
72.95376,73.23154,53,60,45
73.287094,73.56487,41,60,45
73.62042,73.8982,46,60,45
73.95376,74.23154,53,60,45
74.287094,74.56487,41,61,45
74.62042,74.8982,46,62,45
74.95376,75.23154,53,63,45
75.287094,75.564865,41,64,45
75.62042,75.783615,36,65,45
75.787094,75.95029,38,65,45
75.95376,76.23154,40,65,45
159.00386,159.28163,36,60,45
159.33719,159.61496,41,60,45
159.67052,159.9483,48,60,45
160.00386,160.28163,53,60,45
160.33719,160.61496,41,60,45
160.67052,160.9483,48,60,45
161.00386,161.28163,53,60,45
161.33719,161.61496,41,60,45
161.67052,161.9483,46,60,45
162.00385,162.28163,53,60,45
162.33719,162.61496,41,60,45
162.67052,162.9483,48,60,45
163.00385,163.28163,53,60,45
163.33719,163.61496,41,60,45
163.67052,163.94829,46,60,45
164.00385,164.28163,53,60,45
164.33719,164.61496,41,60,45
164.67052,164.94829,46,60,45
165.00385,165.28163,53,60,45
165.33719,165.61496,41,62,45
165.67052,165.94829,46,64,45
166.00385,166.28163,53,66,45
166.33719,166.61496,41,68,45
166.67052,166.94829,38,70,45
167.00385,167.28163,43,73,45
167.33717,167.61496,55,76,45
167.67052,167.94829,43,79,45
168.00385,168.28163,55,82,45
168.33717,168.61496,43,85,45
168.67052,168.94829,55,88,45
169.00385,169.28162,43,91,45
169.33717,169.61496,55,94,45
169.67052,169.94829,43,97,45
170.00385,170.28162,36,100,45
170.00385,170.28162,48,100,45
170.00385,170.28162,55,100,45
183.31757,183.59534,36,100,45
183.6509,183.92867,41,60,45
183.98422,184.26201,48,60,45
184.31757,184.59534,53,60,45
184.6509,184.92867,41,60,45
184.98422,185.26201,48,60,45
185.31755,185.59534,53,60,45
185.6509,185.92867,41,60,45
185.98422,186.262,46,60,45
186.31755,186.59534,53,60,45
186.6509,186.92867,41,60,45
186.98422,187.262,48,60,45
187.31755,187.59534,53,60,45
187.6509,187.92867,41,60,45
187.98422,188.262,46,60,45
188.31755,188.59534,53,60,45
188.6509,188.92867,41,60,45
188.98422,189.262,46,60,45
189.31755,189.59534,53,60,45
189.65088,189.92867,41,61,45
189.98422,190.262,46,62,45
190.31755,190.59534,53,63,45
190.65088,190.92867,41,64,45
190.98422,191.14742,36,65,45
191.15088,191.31407,38,65,45
191.31755,191.59532,40,65,45
28.80327,28.969938,46,60,42
29.136604,29.30327,51,60,42
29.469936,29.636604,53,60,42
29.80327,29.969936,55,60,42
30.136602,30.30327,63,60,42
30.469936,30.636602,65,61,42
30.803268,30.969936,67,62,42
31.136602,31.303268,51,64,42
31.469934,31.636602,53,66,42
31.803268,31.969934,55,68,42
32.1366,32.30327,39,70,42
32.469933,32.6366,41,72,42
32.80327,32.969933,43,74,42
33.1366,33.307053,64,76,42
33.47751,33.647964,65,78,42
33.818417,33.988873,67,80,42
34.15933,34.335796,52,82,42
34.512268,34.68874,53,84,42
34.865208,35.04168,55,86,42
35.21815,35.401077,40,88,42
35.584003,35.76693,41,90,42
35.949856,36.132782,43,92,42
36.31571,37.35417,36,94,42
46.11698,46.39476,52,67,42
46.450314,46.728092,57,68,42
46.78365,47.061424,45,69,42
47.11698,47.280174,36,70,42
47.283646,47.446842,38,70,42
47.450314,47.728092,40,70,42
48.11698,48.394756,52,72,42
48.450314,48.728092,57,73,42
48.783646,49.061424,45,74,42
49.116978,49.280174,36,75,42
49.283646,49.44684,43,75,42
49.450314,49.72809,48,75,42
50.116978,50.394756,48,79,42
50.45031,50.72809,60,81,42
50.783646,51.06142,48,83,42
51.116978,51.28017,48,85,42
51.28364,51.44684,55,86,42
51.45031,51.72809,60,87,42
51.78364,52.06142,48,89,42
52.116978,52.28017,48,91,42
52.28364,52.44684,55,92,42
52.45031,52.7344,60,93,42
52.791218,53.081917,48,95,42
53.140057,53.43767,60,97,42
53.497196,53.672047,41,100,42
53.497196,53.672047,48,100,42
53.586483,53.85062,53,100,42
53.586483,53.85062,57,100,42
54.568623,54.743473,41,100,42
54.568623,54.743473,48,100,42
54.65791,54.922047,53,100,42
54.65791,54.922047,57,100,42
59.306713,59.473377,46,60,42
59.640045,59.806713,51,60,42
59.973377,60.140045,53,60,42
60.30671,60.473377,55,60,42
60.640045,60.80671,63,60,42
60.973377,61.140045,65,61,42
61.30671,61.473377,67,62,42
61.64004,61.80671,51,64,42
61.973377,62.14004,53,66,42
62.30671,62.473377,55,68,42
62.64004,62.80671,39,70,42
62.973373,63.14004,41,72,42
63.30671,63.473373,43,74,42
63.64004,63.810497,64,76,42
63.98095,64.151405,65,78,42
64.32186,64.49232,67,80,42
64.662766,64.83924,52,82,42
65.01571,65.19218,53,84,42
65.36865,65.54512,55,86,42
65.72159,65.90452,40,88,42
66.08744,66.27037,41,90,42
66.4533,66.63622,43,92,42
66.81915,67.85761,36,94,42
76.62042,76.8982,52,67,42
76.95376,77.23154,57,68,42
77.28709,77.564865,45,69,42
77.62042,77.783615,36,70,42
77.78709,77.95028,38,70,42
77.95376,78.23153,40,70,42
78.62042,78.8982,52,72,42
78.95375,79.23153,57,73,42
79.28709,79.564865,45,74,42
79.62042,79.783615,36,75,42
79.78709,79.95028,43,75,42
79.95375,80.23153,48,75,42
80.62042,80.89819,48,79,42
80.95375,81.23153,60,81,42
81.28709,81.564865,48,83,42
81.620415,81.783615,48,85,42
81.78709,81.95028,55,86,42
81.95375,82.23153,60,87,42
82.28709,82.564865,48,89,42
82.620415,82.78361,48,91,42
82.78709,82.95028,55,92,42
82.95375,83.23784,60,93,42
83.29466,83.58536,48,95,42
83.64349,83.94112,60,97,42
84.00064,84.17549,41,100,42
84.00064,84.17549,48,100,42
84.08992,84.35406,53,100,42
84.08992,84.35406,57,100,42
85.07207,85.24692,41,100,42
85.07207,85.24692,48,100,42
85.16135,85.42548,53,100,42
85.16135,85.42548,57,100,42
85.57921,85.72608,48,80,42
85.7292,85.87608,50,80,42
85.8792,86.02608,52,90,42
86.029205,86.8542,53,100,42
86.92921,87.07921,41,100,42
87.2292,87.3792,46,97,42
87.529205,87.67921,48,94,42
87.82921,87.9792,53,91,42
88.7292,88.8792,41,80,42
89.029205,89.17921,45,80,42
89.32921,89.4792,48,90,42
89.6292,89.779205,53,100,42
90.529205,90.67921,41,80,42
90.82921,90.9792,46,80,42
91.1292,91.279205,48,80,42
91.42921,91.57921,55,80,42
92.32921,92.4792,43,80,42
92.6292,92.779205,48,86,42
92.92921,93.07921,52,93,42
93.2292,93.38227,55,100,42
93.85112,94.017784,43,100,42
94.18445,94.62889,48,100,42
94.68445,94.83132,48,100,42
94.83445,94.98132,50,100,42
94.98445,95.131325,52,100,42
95.13445,95.95945,53,100,42
96.03445,96.18445,41,100,42
96.33445,96.48445,46,97,42
96.63445,96.78445,48,94,42
96.93445,97.08445,53,91,42
97.83445,97.98445,41,80,42
98.13445,98.28445,45,80,42
98.43445,98.58445,48,90,42
98.73445,98.88445,53,100,42
99.63445,99.78445,41,80,42
99.93445,100.08445,46,80,42
100.23445,100.38445,48,80,42
100.53445,100.68445,55,80,42
101.43445,101.58445,43,80,42
101.73445,101.88445,48,86,42
102.03445,102.18445,52,93,42
102.33445,102.48751,55,100,42
102.95636,103.123024,43,100,42
103.289696,103.73414,48,100,42
103.789696,103.93657,55,100,42
103.93969,104.08657,57,100,42
104.08969,104.236565,59,100,42
104.23969,104.639694,60,100,42
104.68969,104.83657,43,100,42
104.83969,104.986565,45,96,42
104.98969,105.136566,47,92,42
105.139694,105.539696,48,88,42
105.58969,105.736565,55,74,42
105.73969,105.886566,57,70,42
105.889694,106.03657,59,65,42
106.039696,106.18657,60,60,42
106.18969,106.33657,43,60,42
106.33969,106.486565,45,60,42
106.48969,106.636566,47,60,42
106.639694,106.78657,48,60,42
106.789696,106.93657,55,60,42
106.93969,107.08657,57,60,42
107.08969,107.236565,59,66,42
107.23969,107.386566,60,72,42
107.389694,107.53657,56,79,42
107.539696,107.68657,58,86,42
107.68969,107.83657,60,93,42
107.83969,108.664696,61,100,42
108.73969,108.889694,37,100,42
109.039696,109.18969,42,97,42
109.33969,109.48969,44,94,42
109.639694,109.789696,49,91,42
110.539696,110.68969,37,80,42
110.83969,110.98969,41,80,42
111.139694,111.289696,44,90,42
111.43969,111.58969,49,100,42
111.73969,111.889694,56,100,42
112.039696,112.18969,61,96,42
112.33969,112.48969,49,92,42
112.639694,112.789696,56,88,42
112.93969,113.08969,61,84,42
113.23969,113.389694,49,80,42
113.539696,113.68969,56,80,42
113.83969,113.98969,61,80,42
114.139694,114.289696,49,80,42
114.43969,114.58969,54,80,42
114.73969,114.889694,56,81,42
115.039696,115.18969,49,82,42
115.33969,115.48969,53,83,42
115.639694,115.789696,54,84,42
115.93969,116.18969,37,85,42
116.23969,116.539696,49,86,42
116.539696,116.789696,48,87,42
116.83969,117.08969,42,88,42
117.139694,117.43969,54,89,42
117.43969,117.68969,53,90,42
117.73969,117.9948,37,91,42
118.045815,118.35194,49,92,42
118.35194,118.60704,48,93,42
118.65806,118.91316,42,94,42
118.96418,119.2703,54,95,42
119.2703,119.525406,53,96,42
119.57642,119.839584,42,97,42
119.89221,120.208,54,98,42
120.208,120.47116,53,99,42
120.52379,120.79261,43,100,42
120.846375,121.16895,55,100,42
121.16895,121.43777,53,100,42
121.49153,121.658195,51,100,42
121.82487,121.99153,50,97,42
122.158195,122.32487,48,94,42
122.49153,122.64153,46,91,42
123.39153,123.541534,46,80,42
123.69153,123.84153,51,80,42
123.99153,124.14153,53,80,42
124.291534,124.44153,58,80,42
125.19153,125.34153,46,80,42
125.49153,125.64153,50,80,42
125.791534,125.94153,53,80,42
126.09153,126.24153,58,80,42
126.99153,127.14153,46,86,42
127.291534,127.44153,51,88,42
127.59153,127.74153,53,90,42
127.89153,128.04153,58,92,42
128.79153,128.94153,43,100,42
129.09154,129.24153,50,100,42
129.39153,129.54153,55,100,42
129.69153,130.2345,60,100,42
130.31345,130.4801,48,100,42
130.64677,130.80997,41,100,42
130.64677,131.09122,48,100,42
130.7301,131.09122,57,100,42
131.14677,131.29366,55,100,42
131.29677,131.44365,57,100,42
131.44678,131.59364,59,100,42
131.59677,131.99678,60,100,42
132.04677,132.19365,43,100,42
132.19678,132.34364,45,96,42
132.34677,132.49365,47,92,42
132.49678,132.89677,48,88,42
132.94678,133.09364,55,74,42
133.09677,133.24365,57,70,42
133.24678,133.39365,59,65,42
133.39677,133.54366,60,60,42
133.54677,133.69365,43,60,42
133.69678,133.84364,45,60,42
133.84677,133.99365,47,60,42
133.99678,134.14365,48,60,42
134.14677,134.29366,55,60,42
134.29677,134.44365,57,60,42
134.44678,134.59364,59,66,42
134.59677,134.74365,60,72,42
134.74678,134.89365,56,79,42
134.89677,135.04366,58,86,42
135.04677,135.19365,60,93,42
135.19678,136.02177,61,100,42
136.09677,136.24678,37,100,42
136.39677,136.54677,42,97,42
136.69678,136.84677,44,94,42
136.99678,137.14677,49,91,42
137.89677,138.04677,37,80,42
138.19678,138.34677,41,80,42
138.49678,138.64677,44,90,42
138.79677,138.94678,49,100,42
139.09677,139.24678,56,100,42
139.39677,139.54677,61,96,42
139.69678,139.84677,49,92,42
139.99678,140.14677,56,88,42
140.29677,140.44678,61,84,42
140.59677,140.74678,49,80,42
140.89677,141.04677,56,80,42
141.19678,141.34677,61,80,42
141.49678,141.64677,49,80,42
141.79677,141.94678,54,80,42
142.09677,142.24678,56,81,42
142.39677,142.54677,49,82,42
142.69678,142.84677,53,83,42
142.99678,143.14677,54,84,42
143.29677,143.54677,37,85,42
143.59677,143.89677,49,86,42
143.89677,144.14677,48,87,42
144.19678,144.44678,42,88,42
144.49678,144.79677,54,89,42
144.79677,145.04677,53,90,42
145.09677,145.35188,37,91,42
145.4029,145.70901,49,92,42
145.70901,145.96413,48,93,42
146.01514,146.27025,42,94,42
146.32126,146.62738,54,95,42
146.62738,146.88249,53,96,42
146.9335,147.19667,42,97,42
147.2493,147.56508,54,98,42
147.56508,147.82825,53,99,42
147.88087,148.14969,43,100,42
148.20346,148.52603,55,100,42
148.52603,148.79485,53,100,42
148.84862,149.01527,51,100,42
149.18195,149.34862,50,97,42
149.51527,149.68195,48,94,42
149.84862,149.99861,46,91,42
150.74861,150.8986,46,80,42
151.04861,151.19861,51,80,42
151.34862,151.49861,53,80,42
151.6486,151.79861,58,80,42
152.54861,152.69861,46,80,42
152.84862,152.99861,50,80,42
153.1486,153.29861,53,80,42
153.44861,153.59862,58,80,42
154.34862,154.49861,46,86,42
154.6486,154.79861,51,88,42
154.94861,155.09862,53,90,42
155.24861,155.3986,58,92,42
156.1486,156.29861,43,100,42
156.44861,156.59862,50,100,42
156.74861,156.8986,55,100,42
157.04861,157.59158,60,100,42
157.67052,157.83719,48,100,42
158.00386,158.16705,41,100,42
158.00386,158.61496,48,100,42
158.08719,158.61496,57,100,42
174.6705,174.83717,46,60,42
175.00385,175.1705,51,60,42
175.33717,175.50385,53,60,42
175.6705,175.83717,55,60,42
176.00385,176.1705,63,60,42
176.33717,176.50385,65,61,42
176.6705,176.83717,67,62,42
177.00383,177.1705,51,64,42
177.33717,177.50383,53,66,42
177.6705,177.83717,55,68,42
178.00383,178.1705,39,70,42
178.33717,178.50383,41,72,42
178.6705,178.83717,43,74,42
179.00383,179.17429,64,76,42
179.34474,179.5152,65,78,42
179.68565,179.85611,67,80,42
180.02657,180.20303,52,82,42
180.3795,180.55597,53,84,42
180.73244,180.90892,55,86,42
181.08539,181.26831,40,88,42
181.45123,181.63417,41,90,42
181.8171,182.00002,43,92,42
182.18294,183.2214,36,94,42
191.98422,192.262,52,67,42
192.31755,192.59532,57,68,42
192.65088,192.92867,45,69,42
192.98422,193.14742,36,70,42
193.15088,193.31407,38,70,42
193.31755,193.59532,40,70,42
193.98422,194.262,52,72,42
194.31755,194.59532,57,73,42
194.65088,194.92867,45,74,42
194.9842,195.14742,36,75,42
195.15088,195.31407,43,75,42
195.31755,195.59532,48,75,42
195.9842,196.262,48,79,42
196.31755,196.59532,60,81,42
196.65088,196.92865,48,83,42
196.9842,197.1474,48,85,42
197.15088,197.31407,55,86,42
197.31755,197.59532,60,87,42
197.65088,197.92865,48,89,42
197.9842,198.1474,48,91,42
198.15088,198.31407,55,92,42
198.31755,198.59532,60,93,42
198.65088,198.92865,48,95,42
198.9842,199.262,60,97,42
199.31755,199.48074,41,100,42
199.31755,199.48074,48,100,42
199.40088,199.6474,53,100,42
199.40088,199.6474,57,100,42
200.31754,200.48074,41,100,42
200.31754,200.48074,48,100,42
200.40088,200.6474,53,100,42
200.40088,200.6474,57,100,42
200.81754,200.96442,48,80,42
200.96754,201.11441,50,80,42
201.11754,201.26442,52,80,42
201.26755,202.05325,53,80,42
202.12468,202.26105,41,80,42
202.39742,202.53377,46,80,42
202.67014,202.8065,48,80,42
202.94287,203.07922,53,80,42
203.76105,203.89742,41,80,42
204.03377,204.17014,45,80,42
204.3065,204.44287,48,80,42
204.57922,204.71559,53,80,42
205.39742,205.53377,41,80,42
205.67014,205.8065,46,80,42
205.94286,206.07922,48,80,42
206.21559,206.35196,53,80,42
207.03377,207.17014,41,80,42
207.3065,207.44286,46,80,42
207.57922,207.71559,48,80,42
207.85194,207.98831,55,80,42
208.67014,208.80649,43,80,42
208.94286,209.07922,48,80,42
209.21559,209.35194,50,80,42
209.48831,209.62468,57,80,42
210.03377,210.17014,50,80,42
210.30649,210.44286,45,80,42
210.57922,210.71559,48,80,42
210.85194,210.98831,50,80,42
211.12468,211.67014,57,80,42
211.67014,211.80649,58,80,42
211.94286,212.48831,59,80,42
212.48831,212.62468,60,80,42
212.76103,212.8974,61,80,42
213.03377,213.17012,62,83,42
213.30649,213.44286,63,86,42
213.57922,213.71558,64,89,42
213.85194,213.98831,65,92,42
214.12468,214.26103,66,96,42
214.3974,214.9331,67,100,42
214.9331,215.06705,65,100,42
215.20097,215.72728,64,80,42
215.72728,215.85886,62,80,42
215.99045,216.11816,48,100,42
215.99045,216.2486,55,100,42
216.05566,216.51218,64,100,42
216.51218,216.64261,62,100,42
216.77304,217.29478,60,100,42
217.29478,217.42522,58,87,42
217.55565,217.68336,41,80,42
217.55565,217.81381,48,80,42
217.62086,217.81381,57,80,42
218.33826,218.58826,53,100,42
219.23827,220.77159,41,80,42
219.23827,220.77159,48,80,42
0.9,1.1777775,36,60,45
1.233333,1.5111105,41,60,45
1.566666,1.8444434,48,60,45
1.899999,2.1777766,53,60,45
2.233332,2.5111096,41,60,45
2.566665,2.8444426,48,60,45
2.899998,3.1777754,53,60,45
3.233331,3.5111084,41,60,45
3.566664,3.8444414,46,60,45
3.899997,4.1777744,53,60,45
4.23333,4.5111074,41,60,45
4.566663,4.8444405,48,60,45
4.899996,5.1777735,53,60,45
5.233329,5.5111065,41,60,45
5.566662,5.8444395,46,60,45
5.899995,6.1777725,53,60,45
6.233328,6.5111055,41,60,45
6.566661,6.8444386,46,60,45
6.899994,7.1777716,53,60,45
7.233327,7.5111046,41,62,45
7.56666,7.8444376,46,64,45
7.899993,8.177771,53,66,45
8.233326,8.511104,41,68,45
8.566659,8.844437,38,70,45
8.899992,9.17777,43,73,45
9.233325,9.511103,55,76,45
9.566658,9.844436,43,79,45
9.899991,10.177769,55,82,45
10.233324,10.511102,43,85,45
10.566657,10.844435,55,88,45
10.89999,11.184081,43,91,45
11.240899,11.531596,55,94,45
11.589736,11.887354,43,97,45
11.946878,12.244496,36,100,45
13.018304,13.296082,36,60,45
13.351637,13.629415,41,60,45
13.68497,13.962748,48,60,45
14.018303,14.296081,53,60,45
14.351636,14.629414,41,60,45
14.684969,14.962747,48,60,45
15.018302,15.29608,53,60,45
15.351635,15.629413,41,60,45
15.684968,15.962746,46,60,45
16.018301,16.296078,53,60,45
16.351633,16.629412,41,60,45
16.684967,16.962744,48,60,45
17.0183,17.296078,53,60,45
17.351633,17.62941,41,60,45
17.684965,17.962744,46,60,45
18.0183,18.296076,53,60,45
18.351631,18.62941,41,60,45
18.684965,18.962742,46,60,45
19.018297,19.296076,53,60,45
19.351631,19.629408,41,62,45
19.684963,19.962742,46,64,45
20.018297,20.296074,53,66,45
20.35163,20.629408,41,68,45
20.684963,20.96274,38,70,45
21.018295,21.296074,43,73,45
21.35163,21.629406,55,76,45
21.684961,21.96274,43,79,45
22.018295,22.296072,55,82,45
22.351627,22.629406,43,85,45
22.684961,22.962738,55,88,45
23.018293,23.302385,43,91,45
23.359203,23.6499,55,94,45
23.70804,24.00566,43,97,45
24.065182,24.3628,36,100,45
37.450325,37.7281,36,100,45
37.783657,38.061436,41,60,45
38.11699,38.394768,48,60,45
38.45032,38.7281,53,60,45
38.783657,39.06143,41,60,45
39.11699,39.394768,48,60,45
39.45032,39.7281,53,60,45
39.783653,40.06143,41,60,45
40.11699,40.394764,46,60,45
40.45032,40.7281,53,60,45
40.783653,41.06143,41,60,45
41.116985,41.394764,48,60,45
41.45032,41.728096,53,60,45
41.783653,42.06143,41,60,45
42.116985,42.394764,46,60,45
42.450317,42.728096,53,60,45
42.783653,43.061428,41,60,45
43.116985,43.394764,46,60,45
43.450317,43.728096,53,60,45
43.78365,44.061428,41,61,45
44.116985,44.39476,46,62,45
44.450317,44.728096,53,63,45
44.78365,45.061428,41,64,45
45.11698,45.280178,36,65,45
45.28365,45.446842,38,65,45
45.450317,45.728092,40,65,45
67.953766,68.231544,36,100,45
68.2871,68.56487,41,60,45
68.62043,68.89821,48,60,45
68.953766,69.231544,53,60,45
69.287094,69.56487,41,60,45
69.62043,69.89821,48,60,45
69.953766,70.23154,53,60,45
70.287094,70.56487,41,60,45
70.62043,70.89821,46,60,45
70.95376,71.23154,53,60,45
71.287094,71.56487,41,60,45
71.62043,71.89821,48,60,45
71.95376,72.23154,53,60,45
72.287094,72.56487,41,60,45
72.62043,72.8982,46,60,45
72.95376,73.23154,53,60,45
73.287094,73.56487,41,60,45
73.62042,73.8982,46,60,45
73.95376,74.23154,53,60,45
74.287094,74.56487,41,61,45
74.62042,74.8982,46,62,45
74.95376,75.23154,53,63,45
75.287094,75.564865,41,64,45
75.62042,75.783615,36,65,45
75.787094,75.95029,38,65,45
75.95376,76.23154,40,65,45
159.00386,159.28163,36,60,45
159.33719,159.61496,41,60,45
159.67052,159.9483,48,60,45
160.00386,160.28163,53,60,45
160.33719,160.61496,41,60,45
160.67052,160.9483,48,60,45
161.00386,161.28163,53,60,45
161.33719,161.61496,41,60,45
161.67052,161.9483,46,60,45
162.00385,162.28163,53,60,45
162.33719,162.61496,41,60,45
162.67052,162.9483,48,60,45
163.00385,163.28163,53,60,45
163.33719,163.61496,41,60,45
163.67052,163.94829,46,60,45
164.00385,164.28163,53,60,45
164.33719,164.61496,41,60,45
164.67052,164.94829,46,60,45
165.00385,165.28163,53,60,45
165.33719,165.61496,41,62,45
165.67052,165.94829,46,64,45
166.00385,166.28163,53,66,45
166.33719,166.61496,41,68,45
166.67052,166.94829,38,70,45
167.00385,167.28163,43,73,45
167.33717,167.61496,55,76,45
167.67052,167.94829,43,79,45
168.00385,168.28163,55,82,45
168.33717,168.61496,43,85,45
168.67052,168.94829,55,88,45
169.00385,169.28162,43,91,45
169.33717,169.61496,55,94,45
169.67052,169.94829,43,97,45
170.00385,170.28162,36,100,45
183.31757,183.59534,36,100,45
183.6509,183.92867,41,60,45
183.98422,184.26201,48,60,45
184.31757,184.59534,53,60,45
184.6509,184.92867,41,60,45
184.98422,185.26201,48,60,45
185.31755,185.59534,53,60,45
185.6509,185.92867,41,60,45
185.98422,186.262,46,60,45
186.31755,186.59534,53,60,45
186.6509,186.92867,41,60,45
186.98422,187.262,48,60,45
187.31755,187.59534,53,60,45
187.6509,187.92867,41,60,45
187.98422,188.262,46,60,45
188.31755,188.59534,53,60,45
188.6509,188.92867,41,60,45
188.98422,189.262,46,60,45
189.31755,189.59534,53,60,45
189.65088,189.92867,41,61,45
189.98422,190.262,46,62,45
190.31755,190.59534,53,63,45
190.65088,190.92867,41,64,45
190.98422,191.14742,36,65,45
191.15088,191.31407,38,65,45
191.31755,191.59532,40,65,45
29.80327,29.969936,46,60,42
30.136602,30.30327,51,60,42
30.469936,30.636602,53,61,42
30.803268,30.969936,55,62,42
31.136602,31.303268,51,64,42
31.469934,31.636602,53,66,42
31.803268,31.969934,55,68,42
32.1366,32.30327,39,70,42
32.469933,32.6366,41,72,42
32.80327,32.969933,43,74,42
33.1366,33.307053,52,76,42
33.47751,33.647964,53,78,42
33.818417,33.988873,55,80,42
34.15933,34.335796,52,82,42
34.512268,34.68874,53,84,42
34.865208,35.04168,55,86,42
35.21815,35.401077,40,88,42
35.584003,35.76693,41,90,42
35.949856,36.132782,43,92,42
36.31571,37.35417,36,94,42
46.11698,46.39476,52,67,42
46.450314,46.728092,57,68,42
46.78365,47.061424,45,69,42
47.11698,47.280174,36,70,42
47.283646,47.446842,38,70,42
47.450314,47.728092,40,70,42
48.11698,48.394756,52,72,42
48.450314,48.728092,57,73,42
48.783646,49.061424,45,74,42
49.116978,49.280174,36,75,42
49.283646,49.44684,43,75,42
49.450314,49.72809,48,75,42
50.116978,50.394756,48,79,42
50.45031,50.72809,60,81,42
50.783646,51.06142,48,83,42
51.116978,51.28017,36,85,42
51.28364,51.44684,43,86,42
51.45031,51.72809,48,87,42
51.78364,52.06142,36,89,42
52.116978,52.28017,36,91,42
52.28364,52.44684,43,92,42
52.45031,52.7344,48,93,42
52.791218,53.081917,36,95,42
53.140057,53.43767,48,97,42
53.497196,53.672047,41,100,42
53.497196,53.672047,48,100,42
53.586483,53.85062,53,100,42
53.586483,53.85062,57,100,42
54.568623,54.743473,41,100,42
54.568623,54.743473,48,100,42
54.65791,54.922047,53,100,42
54.65791,54.922047,57,100,42
60.30671,60.473377,46,60,42
60.640045,60.80671,51,60,42
60.973377,61.140045,53,61,42
61.30671,61.473377,55,62,42
61.64004,61.80671,51,64,42
61.973377,62.14004,53,66,42
62.30671,62.473377,55,68,42
62.64004,62.80671,39,70,42
62.973373,63.14004,41,72,42
63.30671,63.473373,43,74,42
63.64004,63.810497,52,76,42
63.98095,64.151405,53,78,42
64.32186,64.49232,55,80,42
64.662766,64.83924,52,82,42
65.01571,65.19218,53,84,42
65.36865,65.54512,55,86,42
65.72159,65.90452,40,88,42
66.08744,66.27037,41,90,42
66.4533,66.63622,43,92,42
66.81915,67.85761,36,94,42
76.62042,76.8982,52,67,42
76.95376,77.23154,57,68,42
77.28709,77.564865,45,69,42
77.62042,77.783615,36,70,42
77.78709,77.95028,38,70,42
77.95376,78.23153,40,70,42
78.62042,78.8982,52,72,42
78.95375,79.23153,57,73,42
79.28709,79.564865,45,74,42
79.62042,79.783615,36,75,42
79.78709,79.95028,43,75,42
79.95375,80.23153,48,75,42
80.62042,80.89819,48,79,42
80.95375,81.23153,60,81,42
81.28709,81.564865,48,83,42
81.620415,81.783615,36,85,42
81.78709,81.95028,43,86,42
81.95375,82.23153,48,87,42
82.28709,82.564865,36,89,42
82.620415,82.78361,36,91,42
82.78709,82.95028,43,92,42
82.95375,83.23784,48,93,42
83.29466,83.58536,36,95,42
83.64349,83.94112,48,97,42
84.00064,84.17549,41,100,42
84.00064,84.17549,48,100,42
84.08992,84.35406,53,100,42
84.08992,84.35406,57,100,42
85.07207,85.24692,41,100,42
85.07207,85.24692,48,100,42
85.16135,85.42548,53,100,42
85.16135,85.42548,57,100,42
85.57921,85.72608,36,80,42
85.7292,85.87608,38,80,42
85.8792,86.02608,40,90,42
86.029205,86.17921,41,100,42
86.32921,86.4792,46,100,42
86.6292,86.779205,48,96,42
86.92921,87.07921,53,92,42
87.82921,87.9792,41,80,42
88.1292,88.279205,46,80,42
88.42921,88.57921,48,80,42
88.7292,88.8792,53,80,42
89.6292,89.779205,41,100,42
89.92921,90.07921,46,100,42
90.2292,90.3792,48,100,42
90.529205,90.67921,53,100,42
91.42921,91.57921,43,80,42
91.7292,91.8792,48,80,42
92.029205,92.17921,50,80,42
92.32921,92.4792,55,80,42
93.2292,93.38227,43,100,42
93.53533,93.69322,50,100,42
93.85112,94.017784,55,100,42
94.18445,94.62889,52,100,42
94.68445,94.83132,36,100,42
94.83445,94.98132,38,100,42
94.98445,95.131325,40,100,42
95.13445,95.28445,41,100,42
95.43445,95.58445,46,100,42
95.73445,95.88445,48,96,42
96.03445,96.18445,53,92,42
96.93445,97.08445,41,80,42
97.23445,97.38445,46,80,42
97.53445,97.68445,48,80,42
97.83445,97.98445,53,80,42
98.73445,98.88445,41,100,42
99.03445,99.18445,46,100,42
99.33445,99.48445,48,100,42
99.63445,99.78445,53,100,42
100.53445,100.68445,43,80,42
100.83445,100.98445,48,80,42
101.13445,101.28445,50,80,42
101.43445,101.58445,55,80,42
102.33445,102.48751,43,100,42
102.64057,102.79847,50,100,42
102.95636,103.123024,55,100,42
103.289696,103.73414,52,100,42
104.23969,104.639694,48,100,42
104.68969,104.83657,43,100,42
104.83969,104.986565,45,96,42
104.98969,105.136566,47,92,42
105.139694,105.539696,36,88,42
106.039696,106.18657,48,60,42
106.18969,106.33657,43,60,42
106.33969,106.486565,45,60,42
106.48969,106.636566,47,60,42
106.639694,106.78657,36,60,42
106.789696,106.93657,43,60,42
106.93969,107.08657,45,60,42
107.08969,107.236565,47,66,42
107.23969,107.386566,36,72,42
107.389694,107.53657,44,79,42
107.539696,107.68657,46,86,42
107.68969,107.83657,48,93,42
107.83969,107.98969,37,100,42
108.139694,108.289696,42,100,42
108.43969,108.58969,44,100,42
108.73969,108.889694,49,100,42
109.639694,109.789696,37,100,42
109.93969,110.08969,42,94,42
110.23969,110.389694,44,87,42
110.539696,110.68969,49,80,42
111.43969,111.58969,37,100,42
111.73969,111.889694,44,100,42
112.039696,112.18969,49,96,42
112.33969,112.48969,37,92,42
112.639694,112.789696,44,88,42
112.93969,113.08969,49,84,42
113.23969,113.389694,37,80,42
113.539696,113.68969,44,80,42
113.83969,113.98969,49,80,42
114.139694,114.289696,37,80,42
114.43969,114.58969,42,80,42
114.73969,114.889694,44,81,42
115.039696,115.18969,37,82,42
115.33969,115.48969,41,83,42
115.639694,115.789696,42,84,42
115.93969,116.539696,37,85,42
116.539696,116.789696,36,87,42
116.83969,117.43969,42,88,42
117.43969,117.68969,41,90,42
117.73969,118.35194,37,91,42
118.35194,118.60704,36,93,42
118.65806,119.2703,42,94,42
119.2703,119.525406,41,96,42
119.57642,120.208,42,97,42
120.208,120.47116,41,99,42
120.52379,121.16895,43,100,42
121.16895,121.43777,41,100,42
121.49153,121.658195,39,100,42
121.82487,121.99153,38,97,42
122.158195,122.32487,36,94,42
122.49153,122.64153,46,91,42
122.791534,122.94153,51,88,42
123.09153,123.24153,53,84,42
123.39153,123.541534,58,80,42
124.291534,124.44153,46,80,42
124.59153,124.74153,51,80,42
124.89153,125.041534,53,80,42
125.19153,125.34153,58,80,42
126.09153,126.24153,46,80,42
126.39153,126.541534,50,82,42
126.69153,126.84153,53,84,42
126.99153,127.14153,58,86,42
127.89153,128.04153,43,92,42
128.19153,128.34154,46,94,42
128.49153,128.64153,50,97,42
128.79153,128.94153,55,100,42
129.69153,129.84459,36,100,42
129.99765,130.15555,48,100,42
130.31345,130.4801,36,100,42
130.64677,131.09122,41,100,42
131.59677,131.99678,48,100,42
132.04677,132.19365,43,100,42
132.19678,132.34364,45,96,42
132.34677,132.49365,47,92,42
132.49678,132.89677,36,88,42
133.39677,133.54366,48,60,42
133.54677,133.69365,43,60,42
133.69678,133.84364,45,60,42
133.84677,133.99365,47,60,42
133.99678,134.14365,36,60,42
134.14677,134.29366,43,60,42
134.29677,134.44365,45,60,42
134.44678,134.59364,47,66,42
134.59677,134.74365,36,72,42
134.74678,134.89365,44,79,42
134.89677,135.04366,46,86,42
135.04677,135.19365,48,93,42
135.19678,135.34677,37,100,42
135.49678,135.64677,42,100,42
135.79677,135.94678,44,100,42
136.09677,136.24678,49,100,42
136.99678,137.14677,37,100,42
137.29677,137.44678,42,94,42
137.59677,137.74678,44,87,42
137.89677,138.04677,49,80,42
138.79677,138.94678,37,100,42
139.09677,139.24678,44,100,42
139.39677,139.54677,49,96,42
139.69678,139.84677,37,92,42
139.99678,140.14677,44,88,42
140.29677,140.44678,49,84,42
140.59677,140.74678,37,80,42
140.89677,141.04677,44,80,42
141.19678,141.34677,49,80,42
141.49678,141.64677,37,80,42
141.79677,141.94678,42,80,42
142.09677,142.24678,44,81,42
142.39677,142.54677,37,82,42
142.69678,142.84677,41,83,42
142.99678,143.14677,42,84,42
143.29677,143.89677,37,85,42
143.89677,144.14677,36,87,42
144.19678,144.79677,42,88,42
144.79677,145.04677,41,90,42
145.09677,145.70901,37,91,42
145.70901,145.96413,36,93,42
146.01514,146.62738,42,94,42
146.62738,146.88249,41,96,42
146.9335,147.56508,42,97,42
147.56508,147.82825,41,99,42
147.88087,148.52603,43,100,42
148.52603,148.79485,41,100,42
148.84862,149.01527,39,100,42
149.18195,149.34862,38,97,42
149.51527,149.68195,36,94,42
149.84862,149.99861,46,91,42
150.1486,150.29861,51,88,42
150.44861,150.59862,53,84,42
150.74861,150.8986,58,80,42
151.6486,151.79861,46,80,42
151.94861,152.09862,51,80,42
152.24861,152.3986,53,80,42
152.54861,152.69861,58,80,42
153.44861,153.59862,46,80,42
153.74861,153.8986,50,82,42
154.04861,154.19861,53,84,42
154.34862,154.49861,58,86,42
155.24861,155.3986,43,92,42
155.54861,155.69861,46,94,42
155.84862,155.99861,50,97,42
156.1486,156.29861,55,100,42
157.04861,157.20168,36,100,42
157.35474,157.51263,48,100,42
157.67052,157.83719,36,100,42
158.00386,158.58719,41,100,42
175.6705,175.83717,46,60,42
176.00385,176.1705,51,60,42
176.33717,176.50385,53,61,42
176.6705,176.83717,55,62,42
177.00383,177.1705,51,64,42
177.33717,177.50383,53,66,42
177.6705,177.83717,55,68,42
178.00383,178.1705,39,70,42
178.33717,178.50383,41,72,42
178.6705,178.83717,43,74,42
179.00383,179.17429,52,76,42
179.34474,179.5152,53,78,42
179.68565,179.85611,55,80,42
180.02657,180.20303,52,82,42
180.3795,180.55597,53,84,42
180.73244,180.90892,55,86,42
181.08539,181.26831,40,88,42
181.45123,181.63417,41,90,42
181.8171,182.00002,43,92,42
182.18294,183.2214,36,94,42
191.98422,192.262,52,67,42
192.31755,192.59532,57,68,42
192.65088,192.92867,45,69,42
192.98422,193.14742,36,70,42
193.15088,193.31407,38,70,42
193.31755,193.59532,40,70,42
193.98422,194.262,52,72,42
194.31755,194.59532,57,73,42
194.65088,194.92867,45,74,42
194.9842,195.14742,36,75,42
195.15088,195.31407,43,75,42
195.31755,195.59532,48,75,42
195.9842,196.262,48,79,42
196.31755,196.59532,60,81,42
196.65088,196.92865,48,83,42
196.9842,197.1474,36,85,42
197.15088,197.31407,43,86,42
197.31755,197.59532,48,87,42
197.65088,197.92865,36,89,42
197.9842,198.1474,36,91,42
198.15088,198.31407,43,92,42
198.31755,198.59532,48,93,42
198.65088,198.92865,36,95,42
198.9842,199.262,48,97,42
199.31755,199.48074,41,100,42
199.31755,199.48074,48,100,42
199.40088,199.6474,53,100,42
199.40088,199.6474,57,100,42
200.31754,200.48074,41,100,42
200.31754,200.48074,48,100,42
200.40088,200.6474,53,100,42
200.40088,200.6474,57,100,42
200.81754,200.96442,36,80,42
200.96754,201.11441,38,80,42
201.11754,201.26442,40,80,42
201.26755,201.4104,41,80,42
201.55325,201.6961,46,80,42
201.83897,201.98183,48,80,42
202.12468,202.26105,53,80,42
202.94287,203.07922,41,80,42
203.21559,203.35196,46,80,42
203.48831,203.62468,48,80,42
203.76105,203.89742,53,80,42
204.57922,204.71559,41,80,42
204.85196,204.98831,46,80,42
205.12468,205.26105,48,80,42
205.39742,205.53377,53,80,42
206.21559,206.35196,41,80,42
206.48831,206.62468,46,80,42
206.76105,206.8974,48,80,42
207.03377,207.17014,53,80,42
207.57922,207.71559,48,80,42
207.85194,207.98831,43,80,42
208.12468,208.26105,46,80,42
208.3974,208.53377,50,80,42
208.67014,208.80649,55,80,42
209.21559,209.35194,50,80,42
209.48831,209.62468,45,80,42
209.76105,209.8974,48,80,42
210.03377,210.17014,50,80,42
210.30649,210.53377,57,80,42
210.85194,211.07922,50,80,42
211.12468,211.67014,45,80,42
211.67014,211.80649,46,80,42
211.94286,212.48831,47,80,42
212.48831,212.62468,48,80,42
212.76103,212.8974,49,80,42
213.03377,213.17012,50,83,42
213.30649,213.44286,51,86,42
213.57922,213.71558,52,89,42
213.85194,213.98831,53,92,42
214.12468,214.26103,54,96,42
214.3974,214.62062,55,100,42
215.20097,215.3298,43,80,42
215.20097,215.46138,53,80,42
215.26675,215.46138,59,80,42
215.99045,216.20782,48,100,42
216.77304,216.90077,36,100,42
216.77304,216.90077,43,100,42
216.83827,217.0312,52,100,42
216.83827,217.0312,60,100,42
217.55565,217.77304,41,100,42
218.33826,218.48514,41,100,42
218.33826,218.63513,48,100,42
218.41327,218.63513,57,100,42
219.23827,220.77159,41,80,42
219.23827,220.77159,48,80,42
222.43826,222.77159,41,10,42
