start_time,end_time,note_value,velocity,instrument_program_number
17.789968,18.062695,77,60,40
18.062695,18.562695,82,60,40
18.562695,18.979362,81,60,40
19.062695,19.562695,82,60,40
19.562695,19.979362,74,60,40
20.062695,20.479362,77,60,40
20.562695,20.750195,75,60,40
20.812695,20.937695,72,60,40
21.062695,21.562695,69,60,40
21.562695,21.979362,70,60,40
22.062695,22.479362,72,60,40
22.562695,22.646029,74,60,40
22.646029,22.729362,75,60,40
22.729362,22.812695,74,60,40
22.812695,22.896029,75,60,40
22.896029,22.979362,72,60,40
22.979362,23.062695,74,60,40
23.062695,23.479362,77,60,40
23.562695,23.646029,75,60,40
23.646029,23.729362,77,60,40
23.729362,23.812695,75,60,40
23.812695,23.896029,77,60,40
23.896029,23.979362,74,60,40
23.979362,24.062695,75,60,40
24.062695,24.312695,79,60,40
24.312695,24.557487,77,60,40
24.562695,24.750195,82,60,40
24.812695,24.937695,84,60,40
25.062695,25.562695,82,60,40
25.562695,25.807487,81,60,40
25.812695,26.062695,77,60,40
26.062695,26.562695,82,60,40
26.562695,26.979362,81,60,40
27.062695,27.562695,82,60,40
27.562695,27.979362,74,60,40
28.062695,28.479362,79,60,40
28.562695,28.750195,77,60,40
28.812695,28.937695,74,60,40
29.062695,29.562695,71,60,40
29.562695,29.979362,72,60,40
30.062695,30.479362,74,60,40
30.562695,30.646029,75,60,40
30.646029,30.729362,77,60,40
30.729362,30.812695,75,60,40
30.812695,30.896029,77,60,40
30.896029,30.979362,74,60,40
30.979362,31.062695,75,60,40
31.062695,31.479362,79,60,40
31.562695,31.646029,77,80,40
31.646029,31.729362,79,83,40
31.729362,31.812695,77,86,40
31.812695,31.896029,79,89,40
31.896029,31.979362,76,92,40
31.979362,32.062695,77,96,40
32.062695,32.579937,80,100,40
32.579937,33.026363,79,80,40
33.11565,33.524742,69,60,40
33.524742,33.592922,70,60,40
33.592922,33.655422,72,60,40
33.661102,33.954853,70,60,40
42.011105,42.261105,77,80,40
42.261105,42.761105,82,80,40
42.761105,43.177773,81,80,40
43.261105,43.761105,82,80,40
43.761105,44.177773,74,80,40
44.261105,44.677773,77,80,40
44.761105,44.948605,75,80,40
45.011105,45.136105,72,80,40
45.261105,45.761105,69,80,40
45.761105,46.177773,70,80,40
46.261105,46.677773,72,80,40
46.761105,46.844437,74,80,40
46.844437,46.927773,75,80,40
46.927773,47.011105,74,80,40
47.011105,47.094437,75,80,40
47.094437,47.177773,72,80,40
47.177773,47.261105,74,80,40
47.261105,47.677773,77,80,40
47.761105,47.844437,75,80,40
47.844437,47.927773,77,80,40
47.927773,48.011105,75,80,40
48.011105,48.094437,77,80,40
48.094437,48.177773,74,80,40
48.177773,48.261105,75,80,40
48.261105,48.511105,79,80,40
48.511105,48.755898,77,80,40
48.761105,48.948605,82,80,40
49.011105,49.136105,84,80,40
49.261105,49.761105,82,80,40
49.761105,50.005898,81,80,40
50.011105,50.261105,77,80,40
50.261105,50.761105,82,80,40
50.761105,51.261105,81,81,40
51.261105,51.677773,82,82,40
51.761105,52.261105,83,84,40
52.261105,52.761105,84,86,40
52.761105,53.261105,83,88,40
53.261105,53.677773,84,90,40
53.761105,54.261105,86,92,40
54.261105,54.761105,87,94,40
54.761105,55.261105,88,96,40
55.261105,55.677773,89,98,40
55.761105,56.778343,93,100,40
56.778343,57.23289,91,80,40
57.3238,57.7738,81,60,40
57.7738,57.8488,82,60,40
57.8488,57.923798,84,60,40
57.923798,58.21755,82,60,40
58.5238,58.8988,63,60,40
58.8988,58.9613,62,60,40
58.9613,59.01859,60,60,40
59.0238,59.26859,65,60,40
59.5238,59.8988,63,60,40
59.8988,59.9613,62,60,40
59.9613,60.01859,60,60,40
60.0238,60.26859,65,60,40
60.5238,60.8988,70,60,40
60.8988,60.9613,69,60,40
60.9613,61.01859,67,60,40
61.0238,61.3988,72,60,40
61.3988,61.4613,70,60,40
61.4613,61.51859,69,60,40
61.5238,61.7113,74,60,40
61.7738,61.8988,70,60,40
62.0238,62.2113,67,60,40
62.2738,62.3988,70,60,40
62.5238,62.6488,81,60,40
62.690464,62.815464,82,60,40
62.857132,62.940464,84,60,40
63.0238,63.1488,82,60,40
63.190464,63.315464,81,60,40
63.357132,63.440464,82,60,40
63.5238,63.6488,84,60,40
63.690464,63.815464,86,60,40
63.857132,63.940464,87,60,40
64.023796,64.148796,86,60,40
64.19047,64.31547,84,60,40
64.35713,64.44047,86,60,40
64.523796,64.648796,88,60,40
64.69047,64.81547,89,60,40
64.85713,64.94047,91,60,40
65.023796,65.35713,84,60,40
65.35713,65.44047,84,60,40
65.523796,65.648796,88,60,40
65.69047,65.81547,89,60,40
65.85713,65.94047,91,60,40
66.023796,66.35713,84,60,40
66.35713,66.44047,84,60,40
66.523796,66.60713,88,60,40
66.69047,66.81547,89,73,40
66.85713,66.94047,91,86,40
67.023796,67.76859,92,100,40
67.773796,68.023796,89,60,40
68.023796,68.273796,85,60,40
68.273796,68.523796,80,60,40
68.523796,68.773796,77,60,40
68.773796,69.023796,73,60,40
69.023796,69.273796,71,60,40
69.273796,69.51859,77,60,40
69.523796,69.773796,76,60,40
69.773796,70.023796,84,60,40
70.023796,70.273796,77,60,40
70.273796,70.523796,84,60,40
70.523796,70.773796,79,60,40
70.773796,71.01859,84,60,40
71.023796,71.273796,83,60,40
71.273796,71.523796,89,60,40
71.523796,71.773796,88,60,40
71.773796,72.023796,84,68,40
72.023796,72.273796,89,76,40
72.273796,72.523796,84,84,40
72.523796,72.76859,91,92,40
72.773796,73.023796,85,100,40
73.023796,73.26859,86,100,40
73.273796,73.398796,86,100,40
73.523796,74.76859,86,100,40
74.773796,75.023796,84,75,40
75.023796,75.273796,82,70,40
75.273796,75.51859,81,65,40
75.523796,75.773796,84,60,40
75.773796,76.023796,82,60,40
76.023796,76.273796,81,60,40
76.273796,76.51859,79,60,40
76.523796,76.773796,82,60,40
76.773796,77.023796,81,60,40
77.023796,77.273796,79,60,40
77.273796,77.51859,77,60,40
77.523796,77.773796,79,60,40
77.773796,78.023796,77,60,40
78.023796,78.273796,76,60,40
78.273796,78.523796,74,60,40
78.523796,78.76859,72,60,40
78.773796,78.961296,72,60,40
79.023796,79.211296,77,60,40
79.273796,79.398796,79,60,40
79.523796,80.273796,81,60,40
80.273796,80.398796,82,60,40
80.523796,80.898796,84,60,40
80.898796,80.961296,86,60,40
80.961296,81.01859,84,60,40
81.023796,81.26859,82,60,40
81.273796,81.51859,81,60,40
81.523796,82.273796,82,60,40
82.273796,82.398796,84,60,40
82.523796,82.898796,86,60,40
82.898796,82.961296,88,60,40
82.961296,83.01859,86,60,40
83.023796,83.26859,84,60,40
83.273796,83.51859,82,60,40
83.523796,84.273796,84,60,40
84.273796,84.398796,86,60,40
84.523796,84.898796,87,60,40
84.898796,84.961296,89,60,40
84.961296,85.01859,87,60,40
85.023796,85.398796,86,60,40
85.398796,85.461296,87,60,40
85.461296,85.51859,86,60,40
85.523796,85.898796,84,60,40
85.898796,85.961296,86,60,40
85.961296,86.01859,84,60,40
86.023796,86.398796,82,60,40
86.398796,86.461296,84,60,40
86.461296,86.51859,82,60,40
86.523796,86.773796,81,60,40
86.773796,87.023796,79,60,40
87.023796,87.273796,77,60,40
87.273796,87.51859,79,60,40
87.523796,87.773796,76,60,40
87.773796,88.023796,79,60,40
88.023796,88.273796,77,60,40
88.273796,88.523796,79,60,40
88.523796,88.773796,76,60,40
88.773796,89.01859,79,60,40
89.023796,89.273796,83,60,40
89.273796,89.523796,79,64,40
89.523796,89.773796,84,68,40
89.773796,90.023796,79,72,40
90.023796,90.273796,83,76,40
90.273796,90.523796,79,80,40
90.523796,90.76859,84,84,40
90.773796,91.023796,85,88,40
91.023796,91.26859,86,92,40
91.273796,91.398796,86,96,40
91.523796,92.76859,86,100,40
92.773796,93.023796,84,100,40
93.023796,93.273796,82,87,40
93.273796,93.523796,81,74,40
93.523796,93.76859,79,60,40
93.773796,94.023796,85,80,40
94.023796,94.26859,86,80,40
94.273796,94.398796,86,85,40
94.523796,95.023796,86,90,40
95.023796,95.76859,87,100,40
95.773796,96.023796,84,100,40
96.023796,96.273796,81,87,40
96.273796,96.523796,79,74,40
96.523796,96.76859,78,60,40
96.773796,97.023796,85,80,40
97.023796,97.26859,86,80,40
97.273796,97.398796,86,85,40
97.523796,98.023796,86,90,40
98.023796,98.523796,87,100,40
98.523796,99.023796,87,60,40
99.023796,99.523796,86,60,40
99.523796,100.023796,84,60,40
100.023796,100.523796,82,60,40
100.523796,100.94047,81,60,40
101.023796,101.273796,79,60,40
101.273796,101.51859,81,60,40
101.523796,101.94047,84,60,40
102.023796,102.26859,82,60,40
102.273796,102.51859,81,60,40
102.523796,102.773796,82,60,40
102.773796,103.023796,79,60,40
103.023796,103.273796,77,60,40
103.273796,103.523796,76,60,40
103.523796,103.76859,77,60,40
103.773796,104.023796,72,40,40
104.023796,104.273796,77,40,40
104.273796,104.523796,79,40,40
104.523796,104.773796,81,40,40
104.773796,105.023796,82,40,40
105.023796,105.273796,79,40,40
105.273796,105.523796,77,40,40
105.523796,105.76859,79,40,40
105.773796,106.023796,72,40,40
106.023796,106.273796,79,40,40
106.273796,106.523796,81,40,40
106.523796,106.773796,82,40,40
106.773796,107.023796,84,40,40
107.023796,107.273796,81,40,40
107.273796,107.523796,79,40,40
107.523796,107.76859,81,40,40
107.773796,108.023796,72,40,40
108.023796,108.273796,81,40,40
108.273796,108.523796,82,40,40
108.523796,108.773796,84,40,40
108.773796,109.023796,86,40,40
109.023796,109.273796,82,40,40
109.273796,109.51859,84,40,40
109.523796,109.773796,81,40,40
109.773796,110.023796,82,41,40
110.023796,110.273796,79,42,40
110.273796,110.523796,81,43,40
110.523796,110.773796,77,44,40
110.773796,111.023796,75,45,40
111.023796,111.273796,74,46,40
111.273796,111.51859,72,47,40
111.523796,111.773796,70,48,40
111.773796,112.023796,74,50,40
112.023796,112.273796,72,52,40
112.273796,112.523796,74,54,40
112.523796,112.773796,70,56,40
112.773796,113.023796,74,58,40
113.023796,113.273796,72,60,40
113.273796,113.523796,74,62,40
113.523796,113.76859,70,64,40
113.773796,114.023796,74,66,40
114.023796,114.273796,76,68,40
114.273796,114.523796,72,70,40
114.523796,114.773796,77,72,40
114.773796,115.023796,72,74,40
115.023796,115.273796,76,76,40
115.273796,115.523796,72,78,40
115.523796,115.76859,77,80,40
116.773796,117.023796,72,100,40
117.023796,117.26859,81,100,40
117.273796,117.398796,81,100,40
117.523796,118.273796,81,100,40
118.273796,118.398796,82,80,40
118.523796,118.76859,77,60,40
119.773796,120.023796,82,100,40
120.023796,120.26859,83,100,40
120.273796,120.398796,83,100,40
120.523796,121.273796,83,100,40
121.273796,121.398796,84,80,40
121.523796,121.76859,79,60,40
122.773796,123.023796,82,100,40
123.023796,123.26859,83,100,40
123.273796,123.398796,83,80,40
123.523796,123.711296,83,60,40
123.773796,123.961296,83,60,40
124.023796,124.211296,83,60,40
124.273796,124.398796,83,60,40
124.523796,124.711296,83,60,40
124.773796,124.961296,83,60,40
125.023796,125.211296,83,60,40
125.273796,125.398796,83,60,40
125.523796,125.76859,83,60,40
125.773796,126.26859,83,60,40
126.273796,126.76859,83,60,40
126.773796,127.26859,83,60,40
127.273796,127.77703,83,60,40
127.78242,128.29427,83,60,40
128.29967,128.82533,82,60,40
128.83101,129.37077,83,60,40
129.37646,129.64351,82,60,40
129.64919,129.89398,81,60,40
131.64919,132.14919,84,60,40
132.14919,132.64919,83,80,40
132.64919,133.14919,84,100,40
133.14919,133.56586,75,60,40
135.64919,136.14919,84,60,40
136.14919,136.64919,83,80,40
136.64919,137.14919,84,100,40
137.14919,137.56586,75,60,40
137.9078,138.41966,66,60,40
137.9078,138.41966,75,60,40
138.42505,138.95071,66,70,40
138.42505,138.95071,75,70,40
138.95639,139.49617,65,82,40
138.95639,139.49617,75,82,40
139.50185,139.77458,77,94,40
139.77458,140.27458,82,100,40
140.27458,140.69124,81,100,40
140.77458,141.27458,82,100,40
141.27458,141.69124,74,95,40
141.77458,142.19124,77,90,40
142.27458,142.46208,75,85,40
142.52458,142.64958,72,83,40
142.77458,143.27458,69,80,40
143.27458,143.69124,70,80,40
143.77458,144.19124,72,80,40
144.27458,144.35791,74,80,40
144.35791,144.44124,75,80,40
144.44124,144.52458,74,80,40
144.52458,144.60791,75,80,40
144.60791,144.69124,72,80,40
144.69124,144.77458,74,80,40
144.77458,145.19124,77,80,40
145.27458,145.35791,75,80,40
145.35791,145.44124,77,80,40
145.44124,145.52458,75,80,40
145.52458,145.60791,77,80,40
145.60791,145.69124,74,80,40
145.69124,145.77458,75,80,40
145.77458,146.02458,79,80,40
146.02458,146.26936,77,80,40
146.27458,146.46208,82,80,40
146.52458,146.64958,84,80,40
146.77458,147.27458,82,80,40
147.27458,147.51936,81,80,40
147.52458,147.76936,77,80,40
147.77458,148.27458,82,80,40
148.27458,148.77458,81,80,40
148.77458,149.27458,82,80,40
149.27458,149.69124,74,80,40
149.77458,150.19124,79,80,40
150.27458,150.46208,77,80,40
150.52458,150.64958,74,80,40
150.77458,151.27458,71,80,40
151.27458,151.69124,72,80,40
151.77458,152.19124,74,80,40
152.27458,152.35791,75,85,40
152.35791,152.44124,77,85,40
152.44124,152.52458,75,85,40
152.52458,152.60791,77,85,40
152.60791,152.69124,74,86,40
152.69124,152.77458,75,87,40
152.77458,153.19124,79,88,40
153.27458,153.35791,77,94,40
153.35791,153.44124,79,95,40
153.44124,153.52458,77,96,40
153.52458,153.60791,79,97,40
153.60791,153.69124,76,98,40
153.69124,153.77458,77,99,40
153.77458,154.27458,80,100,40
154.27458,154.69124,79,80,40
154.77458,155.1625,69,60,40
155.1625,155.22716,70,60,40
155.22716,155.28644,72,60,40
155.29182,155.55887,70,60,40
164.58728,164.83728,75,60,40
164.83728,165.08728,73,60,40
165.08728,165.33728,70,65,40
165.33728,165.58728,66,70,40
165.58728,165.83206,82,75,40
165.83728,166.33728,82,80,40
166.33728,166.75394,81,90,40
166.83728,167.33728,82,100,40
167.33728,167.75394,74,100,40
167.83728,168.25394,77,100,40
168.33728,168.52478,75,90,40
168.58728,168.71228,72,85,40
168.83728,169.25394,69,80,40
169.33728,169.75394,70,80,40
169.83728,170.25394,72,80,40
170.33728,170.42061,74,80,40
170.42061,170.50394,75,80,40
170.50394,170.58728,74,80,40
170.58728,170.67061,75,80,40
170.67061,170.75394,72,80,40
170.75394,170.83728,74,80,40
170.83728,171.25394,77,80,40
171.33728,171.42061,75,80,40
171.42061,171.50394,77,80,40
171.50394,171.58728,75,80,40
171.58728,171.67061,77,80,40
171.67061,171.75394,74,80,40
171.75394,171.83728,75,80,40
171.83728,172.08728,79,80,40
172.08728,172.33206,77,80,40
172.33728,172.52478,82,80,40
172.58728,172.71228,84,80,40
172.83728,173.33728,82,80,40
173.33728,173.58206,81,80,40
173.58728,173.83206,77,80,40
173.83728,174.33728,82,80,40
174.33728,174.83728,81,81,40
174.83728,175.25394,82,82,40
175.33728,175.83728,83,84,40
175.83728,176.33728,84,86,40
176.33728,176.83728,83,88,40
176.83728,177.25394,84,90,40
177.33728,177.83728,86,92,40
177.83728,178.33728,87,94,40
178.33728,178.83728,88,96,40
178.83728,179.25394,89,98,40
179.33728,180.33728,93,100,40
180.33728,180.75394,91,100,40
180.83728,181.21228,81,80,40
181.21228,181.27478,82,65,40
181.27478,181.33728,84,63,40
181.33728,181.58206,82,60,40
181.83728,182.08728,86,80,40
182.33728,182.58728,86,80,40
182.83728,183.71228,87,120,40
183.83728,184.08728,84,80,40
184.33728,184.58728,84,80,40
184.83728,185.71228,86,120,40
185.83728,185.96228,82,80,40
186.08728,186.21228,82,80,40
186.33728,186.75394,84,120,40
186.83728,186.96228,81,80,40
187.08728,187.21228,81,80,40
187.33728,187.75394,82,120,40
187.83728,187.96228,79,80,40
188.08728,188.21228,81,80,40
188.33728,188.46228,77,80,40
188.58728,188.71228,79,80,40
188.83728,189.25394,76,120,40
189.33728,189.75394,73,120,40
189.83728,190.25394,74,120,40
190.33728,190.75394,74,120,40
190.83728,191.25394,74,120,40
190.83728,191.25394,86,120,40
191.33728,191.75394,74,120,40
191.33728,191.75394,86,120,40
191.83728,192.25394,79,120,40
192.33728,192.75394,79,120,40
192.83728,193.25394,79,120,40
192.83728,193.25394,91,120,40
193.33728,193.75394,79,120,40
193.33728,193.75394,91,120,40
201.83728,202.08728,79,80,40
202.33728,202.58728,79,80,40
202.83728,203.58728,80,120,40
203.58728,203.71228,79,80,40
203.83728,204.08728,77,80,40
204.08728,204.33728,75,80,40
204.33728,204.58728,74,80,40
204.58728,204.83206,75,80,40
204.83728,205.08728,79,80,40
205.08728,205.33728,77,80,40
205.33728,205.58728,75,80,40
205.58728,205.83206,77,80,40
205.83728,206.08728,82,80,40
206.33728,206.58728,82,80,40
206.83728,207.58728,84,120,40
207.58728,207.71228,82,80,40
207.83728,208.08728,87,80,40
208.08728,208.33728,86,80,40
208.33728,208.58728,84,80,40
208.58728,208.83206,82,80,40
208.83728,209.08728,82,80,40
209.08728,209.33206,80,75,40
209.33728,209.58728,80,70,40
209.58728,209.83206,79,65,40
209.83728,210.25394,77,60,40
210.96228,211.08206,70,80,40
211.08728,211.20706,75,80,40
211.21228,211.33206,79,80,40
211.33728,211.45706,84,80,40
211.46228,211.58206,82,80,40
211.58728,211.70706,81,80,40
211.71228,211.83206,82,80,40
211.83728,211.95706,87,80,40
211.96228,212.08206,86,80,40
212.08728,212.20706,84,80,40
212.21228,212.33206,82,80,40
212.33728,212.58206,81,80,40
212.96228,213.08206,69,80,40
213.08728,213.20706,74,80,40
213.21228,213.33206,78,80,40
213.33728,213.45706,82,80,40
213.46228,213.58206,81,80,40
213.58728,213.70706,79,80,40
213.71228,213.83206,81,80,40
213.83728,213.95706,86,80,40
213.96228,214.08206,84,80,40
214.08728,214.20706,82,80,40
214.21228,214.33206,79,80,40
214.46228,214.58206,67,80,40
214.58728,214.70706,72,80,40
214.71228,214.83206,75,80,40
214.83728,214.95706,84,80,40
214.96228,215.08206,82,80,40
215.08728,215.20706,81,80,40
215.21228,215.33206,77,80,40
215.46228,215.58206,65,80,40
215.58728,215.70706,70,80,40
215.71228,215.83206,74,80,40
215.83728,215.95706,82,80,40
215.96228,216.08206,79,80,40
216.08728,216.20706,75,80,40
216.21228,216.33206,81,80,40
216.33728,216.45706,81,80,40
216.46228,216.58206,78,80,40
216.58728,216.70706,74,80,40
216.71228,216.83206,79,80,40
216.83728,217.25394,75,120,40
217.33728,217.75394,74,120,40
218.83728,219.08728,84,80,40
219.33728,219.58728,84,80,40
219.83728,220.71228,86,120,40
220.83728,221.08728,83,80,40
221.33728,221.58728,83,80,40
221.83728,222.25394,84,120,40
222.33728,222.46228,80,80,40
222.58728,222.71228,80,80,40
222.83728,223.25394,82,120,40
223.33728,223.52478,79,80,40
223.58728,223.71228,79,80,40
223.83728,223.96228,80,120,40
224.08728,224.21228,77,80,40
224.33728,224.46228,79,120,40
224.58728,224.71228,75,80,40
224.83728,224.96228,82,120,40
225.08728,225.21228,79,80,40
225.33728,225.46228,80,120,40
225.58728,225.71228,77,80,40
225.83728,225.96228,84,120,40
226.08728,226.21228,80,80,40
226.33728,226.46228,86,120,40
226.58728,226.71228,82,80,40
226.83728,226.96228,87,120,40
227.08728,227.21228,84,80,40
227.33728,227.46228,89,120,40
227.58728,227.71228,86,80,40
227.83728,228.08206,91,100,40
228.08728,228.33206,87,100,40
228.33728,228.58206,91,100,40
228.58728,228.83206,87,100,40
228.83728,229.08206,92,100,40
229.08728,229.33206,87,100,40
229.33728,229.58206,92,100,40
229.58728,229.83206,87,100,40
229.83728,230.08206,92,100,40
230.08728,230.33206,88,100,40
230.33728,230.58206,92,100,40
230.58728,230.83206,88,100,40
230.83728,231.08206,92,100,40
231.08728,231.33206,89,95,40
231.33728,231.58206,92,90,40
231.58728,231.83206,89,85,40
231.83728,231.96228,92,120,40
232.08728,232.21228,91,80,40
232.33728,232.46228,89,120,40
232.58728,232.71228,87,80,40
232.83728,232.96228,83,120,40
233.08728,233.21228,82,78,40
233.33728,233.46228,80,108,40
233.58728,233.71228,79,74,40
233.83728,233.96658,77,104,40
234.0959,234.2252,75,69,40
234.87175,235.00812,77,92,40
235.14449,235.28085,75,60,40
238.14449,238.53922,72,40,40
238.67079,238.93396,72,40,40
239.19711,239.98659,73,40,40
239.98659,240.24426,72,40,40
240.24974,240.42517,70,40,40
240.42517,240.60062,72,40,40
240.60062,240.77606,68,40,40
240.77606,240.95149,67,40,40
240.95149,241.12694,68,40,40
241.12694,241.29689,70,40,40
241.30237,241.47781,72,40,40
241.47781,241.65324,73,43,40
241.65324,241.82869,70,46,40
241.82869,242.00412,67,49,40
242.00412,242.17957,68,52,40
242.17957,242.34952,70,56,40
242.355,242.73,75,60,40
242.855,243.105,75,60,40
243.355,244.105,77,60,40
244.105,244.23,75,60,40
244.355,244.52167,73,60,40
244.52167,244.68834,75,60,40
244.68834,244.855,72,60,40
244.855,245.02167,70,60,40
245.02167,245.18834,72,60,40
245.18834,245.3498,73,60,40
245.355,245.52167,75,60,40
245.52167,245.68834,77,60,40
245.68834,245.855,73,60,40
245.855,246.02167,70,60,40
246.02167,246.18834,72,54,40
246.18834,246.3498,73,47,40
246.355,246.73,77,40,40
246.855,247.105,77,40,40
248.355,248.73,75,40,40
248.355,248.73,78,40,40
248.855,249.105,75,40,40
248.855,249.105,78,40,40
250.355,250.73,77,40,40
250.355,250.73,80,40,40
250.855,251.105,77,40,40
250.855,251.105,80,40,40
252.355,252.73,78,40,40
252.355,252.73,81,40,40
252.855,253.105,78,40,40
252.855,253.105,81,40,40
254.355,254.77167,69,64,40
254.355,254.77167,85,64,40
254.855,255.27167,69,64,40
254.855,255.27167,85,64,40
256.355,256.77167,69,64,40
256.355,256.77167,86,64,40
256.855,257.27167,69,64,40
256.855,257.27167,86,64,40
258.355,258.77167,69,64,40
258.355,258.77167,87,64,40
258.855,259.27167,69,69,40
258.855,259.27167,87,69,40
260.355,260.77167,79,92,40
260.355,260.77167,88,92,40
260.855,261.27167,79,97,40
260.855,261.27167,88,97,40
261.355,261.77167,64,102,40
261.855,262.27167,64,107,40
262.355,262.77167,74,120,40
262.355,262.77167,89,120,40
263.355,263.77167,74,92,40
263.355,263.77167,89,92,40
264.355,264.5998,74,92,40
264.355,264.5998,89,92,40
264.855,265.0998,74,98,40
264.855,265.0998,89,98,40
265.355,265.5998,74,104,40
265.355,265.5998,89,104,40
265.855,266.0998,74,120,40
265.855,266.0998,89,120,40
266.355,268.23,74,100,40
266.355,268.5998,89,100,40
268.605,268.855,88,100,40
268.855,269.105,89,95,40
269.105,269.3498,80,90,40
269.355,269.605,87,84,40
269.605,269.855,86,78,40
269.855,270.105,87,72,40
270.105,270.3498,79,66,40
270.355,270.605,86,60,40
270.605,270.855,85,60,40
270.855,271.105,86,60,40
271.105,271.3498,77,60,40
271.355,271.60922,85,60,40
271.60922,271.86346,84,60,40
271.86346,272.1177,85,60,40
272.1177,272.36664,77,60,40
272.37195,272.6262,84,60,40
272.6262,272.88043,83,60,40
272.88043,273.13467,84,60,40
273.13467,273.3836,77,60,40
273.3889,273.64752,82,60,40
273.64752,273.90613,81,60,40
273.90613,274.16476,82,60,40
274.16476,274.418,76,60,40
274.42337,274.682,81,60,40
274.682,274.9406,80,60,40
274.9406,275.19925,81,60,40
275.19925,275.45248,72,59,40
275.45786,275.721,79,58,40
275.721,275.98416,78,57,40
275.98416,276.24734,79,56,40
276.24734,276.505,70,55,40
276.5105,276.77365,77,54,40
276.77365,277.0313,69,53,40
277.0368,277.29996,75,52,40
277.29996,277.55765,67,51,40
277.5631,277.83096,74,50,40
277.83096,278.09326,65,49,40
278.09885,278.3667,72,48,40
278.3667,278.62897,63,47,40
278.63455,278.9024,70,46,40
278.9024,279.16467,62,45,40
279.17026,279.4381,69,44,40
279.4381,279.7004,60,43,40
279.70596,279.9787,67,42,40
279.9787,280.24576,58,41,40
280.25143,280.51846,57,40,40
280.25143,280.51846,65,40,40
280.52417,280.79688,77,60,40
280.79688,281.29688,82,60,40
281.29688,281.71356,81,60,40
281.79688,282.29688,82,60,40
282.29688,282.71356,74,60,40
282.79688,283.21356,77,60,40
283.29688,283.48438,75,60,40
283.54688,283.67188,72,60,40
283.79688,284.29688,69,60,40
284.29688,284.71356,70,40,40
288.54688,288.79688,77,60,40
288.79688,289.29688,82,60,40
289.29688,289.79688,81,60,40
289.79688,290.29688,82,60,40
290.29688,290.71356,74,60,40
290.79688,291.21356,79,60,40
291.29688,291.48438,77,60,40
291.54688,291.67188,74,60,40
291.79688,292.29688,71,60,40
292.29688,292.71356,72,40,40
312.29688,312.38022,73,60,40
312.38022,312.46356,75,60,40
312.46356,312.54688,73,64,40
312.54688,312.63022,75,68,40
312.63022,312.71356,72,72,40
312.71356,312.79688,73,76,40
312.79688,313.29688,78,80,40
313.29688,313.71356,76,60,40
315.29688,315.38022,78,60,40
315.38022,315.46356,80,63,40
315.46356,315.54688,78,66,40
315.54688,315.63022,80,69,40
315.63022,315.71356,77,72,40
315.71356,315.79688,78,76,40
315.79688,316.29688,83,80,40
316.29688,316.71356,81,60,40
317.79688,318.29688,78,60,40
318.29688,318.71356,77,70,40
318.79688,319.29688,87,80,40
319.29688,319.71356,86,90,40
319.79688,320.29688,93,100,40
320.29688,320.71356,91,80,40
320.79688,321.17188,81,60,40
321.17188,321.23438,82,60,40
321.23438,321.2917,84,64,40
321.29688,321.67188,86,68,40
321.67188,321.73438,87,92,40
321.73438,321.7917,89,96,40
321.79688,322.29688,93,100,40
322.29688,322.71356,91,60,40
325.04688,325.23438,77,60,40
325.29688,325.48438,82,60,40
325.54688,325.67188,84,60,40
325.79688,326.54688,86,60,40
326.54688,326.67188,87,60,40
326.79688,327.17188,89,60,40
327.17188,327.23438,91,60,40
327.23438,327.2917,89,60,40
327.29688,327.5417,87,60,40
327.54688,327.7917,86,60,40
327.79688,328.54688,87,60,40
328.54688,328.67188,89,60,40
328.79688,329.17188,91,60,40
329.17188,329.23438,93,60,40
329.23438,329.2917,91,60,40
329.29688,329.5417,89,60,40
329.54688,329.7917,87,60,40
329.79688,330.54688,89,60,40
330.54688,330.67188,91,60,40
330.79688,331.17188,92,60,40
331.17188,331.23438,94,60,40
331.23438,331.2917,92,60,40
331.29688,331.67188,91,60,40
331.67188,331.73438,92,60,40
331.73438,331.7917,91,60,40
331.79688,332.17188,89,60,40
332.17188,332.23438,91,60,40
332.23438,332.2917,89,60,40
332.29688,332.67188,87,60,40
332.67188,332.73438,89,60,40
332.73438,332.7917,87,60,40
332.79688,333.04688,86,60,40
333.04688,333.29688,84,60,40
333.29688,333.54688,82,60,40
333.54688,333.7917,84,60,40
333.79688,334.04688,81,60,40
334.04688,334.29688,84,60,40
334.29688,334.54688,82,60,40
334.54688,334.79688,84,60,40
334.79688,335.04688,81,60,40
335.04688,335.2917,84,60,40
335.29688,335.54688,88,60,40
335.54688,335.79688,84,64,40
335.79688,336.04688,89,68,40
336.04688,336.29688,84,72,40
336.29688,336.54688,88,76,40
336.54688,336.79688,84,80,40
336.79688,337.0417,89,84,40
337.04688,337.29688,78,88,40
337.29688,337.5417,79,92,40
337.54688,337.67188,79,96,40
337.79688,339.0417,79,100,40
339.04688,339.29688,77,100,40
339.29688,339.54688,75,87,40
339.54688,339.79688,74,74,40
339.79688,340.0417,72,60,40
340.04688,340.29688,78,60,40
340.29688,340.5417,79,68,40
340.54688,340.67188,79,76,40
340.79688,341.29688,79,84,40
341.29688,342.0417,80,100,40
342.04688,342.29688,77,100,40
342.29688,342.54688,74,87,40
342.54688,342.79688,72,74,40
342.79688,343.0417,71,60,40
343.04688,343.29688,78,60,40
343.29688,343.5417,79,68,40
343.54688,343.67188,79,76,40
343.79688,344.29688,79,84,40
344.29688,344.79688,80,100,40
344.79688,345.21356,81,60,40
345.29688,345.79688,79,60,40
345.79688,346.29688,77,60,40
346.29688,346.79688,75,60,40
346.79688,347.21356,74,60,40
347.29688,347.54688,72,60,40
347.54688,347.7917,74,60,40
347.79688,348.21356,77,60,40
348.29688,348.54688,75,60,40
348.54688,348.79688,74,60,40
348.79688,349.04688,75,60,40
349.04688,349.29688,72,56,40
349.29688,349.54688,70,52,40
349.54688,349.79688,69,48,40
349.79688,350.0417,70,44,40
350.04688,350.29688,77,40,40
350.29688,350.54688,82,40,40
350.54688,350.79688,84,40,40
350.79688,351.04688,86,40,40
351.04688,351.29688,87,40,40
351.29688,351.54688,84,40,40
351.54688,351.79688,82,40,40
351.79688,352.0417,84,40,40
352.04688,352.29688,77,40,40
352.29688,352.54688,84,40,40
352.54688,352.79688,86,40,40
352.79688,353.04688,87,40,40
353.04688,353.29688,89,40,40
353.29688,353.54688,86,40,40
353.54688,353.79688,84,40,40
353.79688,354.0417,86,40,40
354.04688,354.29688,77,40,40
354.29688,354.54688,86,40,40
354.54688,354.79688,87,40,40
354.79688,355.04688,89,40,40
355.04688,355.29688,91,40,40
355.29688,355.54688,87,40,40
355.54688,355.7917,89,40,40
355.79688,356.04688,86,40,40
356.04688,356.29688,87,40,40
356.29688,356.54688,84,40,40
356.54688,356.7917,86,40,40
356.79688,357.04688,82,40,40
357.04688,357.29688,80,42,40
357.29688,357.54688,79,44,40
357.54688,357.7917,77,46,40
357.79688,358.04688,75,48,40
358.04688,358.29688,70,50,40
358.29688,358.54688,74,52,40
358.54688,358.79688,70,54,40
358.79688,359.04688,75,56,40
359.04688,359.29688,70,58,40
359.29688,359.54688,74,60,40
359.54688,359.79688,70,62,40
359.79688,360.0417,75,64,40
360.04688,360.29688,79,66,40
360.29688,360.54688,81,68,40
360.54688,360.79688,77,70,40
360.79688,361.04688,82,72,40
361.04688,361.29688,77,74,40
361.29688,361.54688,81,76,40
361.54688,361.79688,77,78,40
361.79688,362.0417,82,80,40
363.04688,363.29688,77,80,40
363.29688,363.5417,86,86,40
363.54688,363.67188,86,93,40
363.79688,364.54688,86,100,40
364.54688,364.7917,87,80,40
364.79688,365.0417,82,60,40
366.04688,366.29688,87,60,40
366.29688,366.5417,88,73,40
366.54688,366.67188,88,86,40
366.79688,367.54688,88,100,40
367.54688,367.7917,89,80,40
367.79688,368.0417,84,60,40
369.04688,369.29688,87,100,40
369.29688,369.5417,88,80,40
369.54688,369.67188,88,80,40
369.79688,369.98438,88,60,40
370.04688,370.23438,88,60,40
370.29688,370.48438,88,60,40
370.54688,370.67188,88,60,40
370.79688,370.98438,88,60,40
371.04688,371.23438,88,60,40
371.29688,371.48438,88,60,40
371.54688,371.67188,88,60,40
371.79688,372.0417,88,60,40
372.04688,372.5417,88,60,40
372.54688,373.04584,88,60,40
373.05112,373.5543,88,60,40
373.5596,374.06708,88,60,40
374.07245,374.58432,88,60,40
374.5897,375.106,87,60,40
375.11148,375.6323,88,60,40
375.6378,375.89545,87,47,40
375.90094,376.14572,86,40,40
377.90094,378.40094,77,60,40
378.40094,378.90094,76,80,40
378.90094,379.40094,77,100,40
379.40094,379.8176,68,60,40
381.90094,382.40094,77,60,40
382.40094,382.90094,76,80,40
382.90094,383.40094,77,100,40
383.40094,383.8176,68,60,40
383.90094,384.40094,77,60,40
384.40094,384.64572,68,60,40
384.90094,385.40094,77,60,40
385.40094,385.64572,68,60,40
385.90094,386.40942,77,60,40
386.40942,386.65836,67,60,40
386.91788,387.42636,75,60,40
387.42636,387.6753,67,60,40
387.93484,388.4521,74,60,40
388.4521,388.70532,65,58,40
388.96933,389.48657,73,56,40
389.48657,389.7398,64,54,40
390.0038,390.53012,72,52,40
390.53012,390.78778,64,49,40
391.05643,391.58276,72,47,40
391.58276,391.84042,63,44,40
392.10907,392.6263,82,64,40
392.6263,392.87955,81,40,40
394.17804,394.69528,77,64,40
394.69528,394.9485,75,40,40
396.24698,396.76422,72,40,40
396.76422,397.01746,74,40,40
398.31595,398.8332,79,40,40
398.8332,399.08643,77,40,40
400.1263,400.37955,77,40,40
400.38492,400.90216,82,40,40
400.90216,401.1554,81,40,40
402.4539,402.97113,67,40,40
402.4539,402.97113,79,40,40
402.97113,403.22437,77,40,40
404.52286,405.04916,74,40,40
405.04916,405.30682,75,40,40
406.6281,407.16382,80,40,40
407.16382,407.4261,79,40,40
408.79044,409.16544,62,40,40
408.79044,409.16544,70,40,40
409.29044,409.54044,62,40,40
409.29044,409.54044,70,40,40
409.79044,410.66544,63,40,40
409.79044,410.66544,72,40,40
410.79044,411.16544,62,40,40
410.79044,411.16544,70,40,40
411.29044,411.54044,62,40,40
411.29044,411.54044,70,40,40
411.79044,412.66544,63,40,40
411.79044,412.66544,72,40,40
412.79044,413.16544,70,40,40
413.29044,413.54044,70,40,40
413.79044,414.66544,72,40,40
414.79044,415.03525,73,40,40
415.04044,415.28525,73,46,40
415.29044,415.70712,74,52,40
415.79044,416.03525,75,64,40
416.04044,416.28525,75,70,40
416.29044,416.70712,76,76,40
416.79044,417.03525,75,88,40
417.04044,417.28525,75,94,40
417.29044,417.70712,69,100,40
417.29044,417.70712,81,100,40
418.54044,418.78525,77,100,40
418.79044,418.95712,79,100,40
418.95712,419.12378,77,99,40
419.12378,419.28525,65,98,40
419.29044,419.45712,79,97,40
419.45712,419.62378,77,96,40
419.62378,419.78525,65,94,40
419.79044,419.95712,79,92,40
419.95712,420.12378,77,90,40
420.12378,420.28525,65,88,40
420.29044,420.45712,79,86,40
420.45712,420.62378,77,84,40
420.62378,420.78525,65,82,40
420.79044,420.95712,79,80,40
420.95712,421.12378,77,80,40
421.12378,421.28525,65,80,40
421.29044,421.45712,79,80,40
421.45712,421.62378,77,80,40
421.62378,421.78525,65,80,40
421.79044,421.95712,79,80,40
421.95712,422.12378,77,80,40
422.12378,422.28525,65,80,40
422.29044,422.45712,79,80,40
422.45712,422.62378,77,80,40
422.62378,422.78525,65,80,40
422.79044,422.95712,79,80,40
422.95712,423.12378,77,80,40
423.12378,423.28525,65,80,40
423.29044,423.45712,79,80,40
423.45712,423.62378,77,80,40
423.62378,423.78525,65,80,40
423.79044,423.95712,79,80,40
423.95712,424.12378,77,80,40
424.12378,424.28525,65,80,40
424.29044,424.45712,79,80,40
424.45712,424.62378,77,80,40
424.62378,424.78525,65,80,40
424.79044,424.95712,79,80,40
424.95712,425.12378,77,80,40
425.12378,425.28525,74,80,40
425.29044,425.45712,82,80,40
425.45712,425.62378,72,80,40
425.62378,425.78525,84,80,40
425.79044,425.95712,82,80,40
425.95712,426.12378,79,80,40
426.12378,426.28525,72,80,40
426.29044,426.45712,81,80,40
426.45712,426.62378,72,80,40
426.62378,426.78525,77,80,40
426.79044,426.95712,79,80,40
426.95712,427.12378,77,80,40
427.12378,427.28525,65,80,40
427.29044,427.45712,79,80,40
427.45712,427.62378,77,80,40
427.62378,427.78525,65,80,40
427.79044,427.95712,79,80,40
427.95712,428.12378,77,80,40
428.12378,428.28525,65,80,40
428.29044,428.45712,80,80,40
428.45712,428.62378,79,80,40
428.62378,428.78525,67,80,40
428.79044,428.95712,80,80,40
428.95712,429.12378,79,80,40
429.12378,429.28525,67,80,40
429.29044,429.45712,80,80,40
429.45712,429.62378,79,80,40
429.62378,429.78525,67,80,40
429.79044,429.95712,80,80,40
429.95712,430.12378,79,80,40
430.12378,430.28525,67,81,40
430.29044,430.45712,84,82,40
430.45712,430.62378,82,83,40
430.62378,430.79044,70,84,40
430.79044,430.95712,84,85,40
430.95712,431.12378,82,86,40
431.12378,431.28525,70,87,40
431.29044,431.45712,86,88,40
431.45712,431.62378,84,89,40
431.62378,431.79044,72,90,40
431.79044,431.95712,86,91,40
431.95712,432.12378,84,92,40
432.12378,432.28525,72,93,40
432.29044,432.45712,87,94,40
432.45712,432.62378,86,95,40
432.62378,432.79044,74,96,40
432.79044,432.95712,87,97,40
432.95712,433.12378,86,98,40
433.12378,433.28525,74,99,40
433.29044,433.45712,89,100,40
433.45712,433.62378,87,100,40
433.62378,433.79044,75,100,40
433.79044,433.95712,89,100,40
433.95712,434.12378,87,100,40
434.12378,434.29044,75,100,40
434.29044,434.45712,89,100,40
434.45712,434.62378,87,100,40
434.62378,434.79044,75,100,40
434.79044,434.95712,89,100,40
434.95712,435.12378,87,100,40
435.12378,435.28525,75,100,40
435.29044,435.45712,89,100,40
435.45712,435.62378,87,100,40
435.62378,435.79044,75,100,40
435.79044,435.95993,89,100,40
435.95993,436.12943,87,100,40
436.12943,436.29892,75,100,40
436.29892,436.4684,89,100,40
436.4684,436.6379,87,100,40
436.6379,436.8074,75,100,40
436.8074,436.9769,87,100,40
436.9769,437.14636,86,100,40
437.14636,437.31058,74,100,40
437.31586,437.48535,87,100,40
437.48535,437.65485,85,100,40
437.65485,437.82434,73,100,40
437.82434,437.99677,87,100,40
437.99677,438.16916,86,100,40
438.16916,438.34158,74,100,40
438.34158,438.514,75,100,40
438.514,438.6864,74,100,40
438.6864,438.85883,75,100,40
438.85883,439.03427,74,100,40
439.03427,439.2097,72,100,40
439.2097,439.37967,77,100,40
439.38513,439.77988,74,100,40
439.77988,439.84567,75,100,40
439.84567,439.90598,77,100,40
439.91144,440.35788,79,100,40
440.44717,441.42932,79,100,40
441.5186,442.50073,79,100,40
442.59003,443.12573,82,100,40
443.12573,443.66144,84,100,40
443.66144,444.19717,82,100,40
444.19717,444.73288,80,100,40
444.73288,445.17932,79,100,40
445.2686,445.8043,78,100,40
445.8043,446.34003,77,100,40
446.34003,446.87573,76,100,40
446.87573,447.32217,79,100,40
447.41144,447.94717,77,100,40
447.94717,448.3936,70,100,40
448.48288,448.88467,69,100,40
448.88467,448.95163,70,100,40
448.95163,449.013,72,100,40
449.0186,449.42038,74,100,40
449.42038,449.48734,75,100,40
449.48734,449.54874,77,100,40
449.5543,450.09003,77,100,40
450.09003,450.53644,69,100,40
450.62573,451.02753,70,100,40
451.02753,451.09448,72,100,40
451.09448,451.15585,74,100,40
451.16144,451.56323,74,100,40
451.56323,451.6302,75,100,40
451.6302,451.6916,77,100,40
451.69717,452.2426,77,100,40
452.2426,452.69717,69,80,40
452.78806,453.3541,77,80,40
453.3541,453.8258,69,60,40
453.92014,455.12015,77,60,40
455.12015,456.17014,69,40,40
457.57013,457.82013,65,60,40
457.82013,458.07013,68,60,40
458.07013,458.32013,74,60,40
458.32013,458.98682,77,60,40
459.07013,459.32013,75,63,40
459.32013,459.57013,80,64,40
459.57013,459.82013,79,65,40
459.82013,460.07013,74,66,40
460.07013,460.31494,75,67,40
460.32013,460.98682,77,68,40
461.07013,461.32013,75,71,40
461.32013,461.57013,77,72,40
461.57013,461.82013,75,73,40
461.82013,462.07013,71,74,40
462.07013,462.31494,72,75,40
462.32013,462.57013,74,76,40
462.57013,462.82013,72,77,40
462.82013,463.07013,68,78,40
463.07013,463.31494,69,79,40
463.32013,463.57013,72,80,40
463.57013,463.82013,66,80,40
463.82013,464.07013,65,67,40
464.07013,464.31494,63,54,40
464.32013,464.73682,62,40,40
484.58298,484.69327,70,60,40
484.80356,484.91385,70,60,40
485.02414,485.13443,72,60,40
485.46533,485.57562,74,60,40
485.6859,485.7962,74,63,40
485.9065,486.01678,75,66,40
486.3477,486.45798,77,72,40
486.56827,486.67856,77,75,40
486.78885,486.89914,79,78,40
487.23,487.34033,81,84,40
487.45062,487.5609,81,88,40
487.6712,487.7815,82,92,40
488.11237,488.2227,81,100,40
488.33298,488.44327,81,100,40
488.55356,488.66385,79,100,40
488.99472,489.105,77,80,40
489.21533,489.32562,77,80,40
489.4359,489.5462,74,80,40
489.87708,489.98737,75,60,40
490.09766,490.20798,75,60,40
490.31827,490.42856,71,60,40
490.75943,490.86972,72,60,40
490.98,491.0903,72,60,40
491.20062,491.3109,74,60,40
491.64178,491.75208,75,60,40
491.86237,491.97266,75,61,40
492.08295,492.19327,71,62,40
492.52414,492.63443,72,64,40
492.74472,492.855,72,65,40
492.9653,493.07562,75,66,40
493.4065,493.51678,77,68,40
493.62708,493.73737,77,69,40
493.84766,493.95795,73,70,40
494.28885,494.39914,74,72,40
494.50943,494.61972,74,73,40
494.73,494.8403,77,74,40
495.1712,495.2815,79,76,40
495.39178,495.50208,79,77,40
495.61237,495.72266,74,78,40
496.05356,496.16385,75,80,40
496.27414,496.38443,75,81,40
496.49472,496.605,79,82,40
496.9359,497.0462,81,84,40
497.1565,497.26678,81,86,40
497.37708,497.48737,77,88,40
497.81824,497.92856,84,92,40
498.03885,498.14914,84,94,40
498.25943,498.36972,81,96,40
498.7006,498.81088,89,100,40
498.9212,499.0315,89,100,40
499.14178,499.25208,81,100,40
499.58295,499.69324,89,80,40
499.80353,499.91385,89,80,40
500.02414,500.13443,81,80,40
500.4653,500.5756,82,80,40
500.9065,500.96164,84,100,40
501.01678,501.07193,84,100,40
501.12708,501.18222,84,99,40
501.23737,501.2925,84,98,40
501.34766,501.45795,86,96,40
501.78885,501.89914,89,88,40
502.00943,502.11972,89,84,40
502.23,502.3403,86,80,40
502.67117,502.72632,84,100,40
502.7815,502.83664,84,100,40
502.89178,502.94693,84,99,40
503.00208,503.05722,84,98,40
503.11237,503.22266,86,96,40
503.55353,503.66382,89,88,40
503.77414,503.88443,89,84,40
503.99472,504.105,86,80,40
504.43588,504.5416,77,100,40
504.54617,504.6519,77,100,40
504.65646,504.76218,77,99,40
504.76678,504.87247,77,98,40
504.87708,504.98276,77,96,40
504.98737,505.09305,77,94,40
505.09766,505.20334,77,92,40
505.20795,505.31366,77,90,40
505.31824,505.42395,77,88,40
505.42853,505.53424,77,86,40
505.53882,505.64453,77,84,40
505.6491,505.75482,77,82,40
505.75943,505.9754,74,80,40
506.64178,506.74747,65,100,40
506.64178,506.8026,75,100,40
506.69693,506.8026,81,100,40
507.08295,507.18866,65,100,40
507.08295,507.2438,75,100,40
507.1381,507.2438,81,100,40
507.5241,507.62982,65,100,40
507.5241,507.68497,74,100,40
507.57925,507.68497,82,100,40
508.40646,508.65128,62,100,40
508.40646,508.65128,70,100,40
509.40646,510.45648,62,80,40
509.40646,510.45648,70,80,40
465.57013,465.81494,65,60,45
465.82013,466.06494,68,60,45
466.07013,466.31494,74,60,45
466.32013,466.56494,77,60,45
467.07013,467.31494,75,60,45
467.57013,467.81494,66,60,45
467.82013,468.06494,70,60,45
468.07013,468.31494,75,60,45
468.32013,468.56494,80,60,45
469.07013,469.31494,78,60,45
469.57013,469.81494,69,60,45
469.82013,470.06494,75,73,45
470.07013,470.31494,78,86,45
470.32013,470.56494,82,100,45
471.07013,471.31494,81,100,45
471.32013,471.56494,78,100,45
472.07013,472.31494,75,85,45
472.32013,472.56494,72,80,45
473.07013,473.31494,66,65,45
473.32013,473.5609,70,60,45
473.56604,473.80682,70,60,45
473.81195,474.05273,72,60,45
475.28735,475.52426,74,60,45
475.5293,475.76617,74,60,45
475.7712,476.00812,75,60,45
477.22284,477.45596,77,60,45
477.46094,477.69406,77,60,45
477.69904,477.93216,82,60,45
479.1276,479.35355,79,60,45
479.35837,479.58432,79,60,45
479.58914,479.8151,75,60,45
480.97375,481.1963,74,60,45
481.20102,481.42355,74,60,45
481.42828,481.65082,77,60,45
482.79193,483.01114,77,60,45
483.0158,483.23502,77,60,45
483.2397,483.4589,69,60,45
17.789968,18.062695,77,40,40
18.062695,18.312695,74,40,40
18.312695,18.562695,79,40,40
18.562695,18.812695,77,40,40
18.812695,19.062695,75,40,40
19.062695,19.312695,74,40,40
19.312695,19.562695,73,40,40
19.562695,19.812695,74,40,40
19.812695,20.057487,72,40,40
20.062695,20.312695,70,40,40
20.312695,20.562695,69,40,40
20.562695,20.812695,70,40,40
20.812695,21.057487,67,40,40
21.062695,21.312695,65,40,40
21.312695,21.562695,63,40,40
21.562695,21.812695,62,40,40
21.812695,22.057487,65,40,40
22.062695,22.312695,69,40,40
22.312695,22.562695,65,40,40
22.562695,22.812695,71,40,40
22.812695,23.062695,65,40,40
23.062695,23.312695,74,40,40
23.312695,23.562695,65,40,40
23.562695,23.812695,72,40,40
23.812695,24.057487,65,40,40
24.062695,24.312695,75,40,40
24.312695,24.562695,74,40,40
24.562695,24.812695,76,40,40
24.812695,25.062695,72,40,40
25.062695,25.312695,76,40,40
25.312695,25.562695,72,40,40
25.562695,25.807487,77,40,40
25.812695,25.937695,77,40,40
26.062695,26.312695,77,40,40
26.312695,26.562695,76,40,40
26.562695,26.812695,77,40,40
26.812695,27.062695,75,40,40
27.062695,27.312695,74,40,40
27.312695,27.562695,73,40,40
27.562695,27.812695,74,40,40
27.812695,28.057487,72,40,40
28.062695,28.312695,71,40,40
28.312695,28.562695,70,40,40
28.562695,28.812695,71,40,40
28.812695,29.062695,69,40,40
29.062695,29.312695,67,40,40
29.312695,29.562695,65,40,40
29.562695,29.812695,63,40,40
29.812695,30.062695,67,40,40
30.062695,30.307487,70,40,40
30.312695,30.562695,70,40,40
30.562695,30.812695,72,40,40
30.812695,31.062695,70,40,40
31.062695,31.312695,75,40,40
31.312695,31.562695,70,50,40
31.562695,31.812695,74,60,40
31.812695,32.057487,70,70,40
32.062695,32.321316,77,80,40
32.321316,32.579937,70,80,40
32.579937,32.847794,75,60,40
32.847794,33.11007,67,60,40
33.11565,33.38838,65,60,40
33.38838,33.661102,63,60,40
33.661102,33.954853,62,60,40
42.011105,42.261105,75,60,40
42.261105,42.511105,74,60,40
42.511105,42.761105,65,60,40
42.761105,43.011105,75,60,40
43.011105,43.255898,65,60,40
43.261105,43.511105,74,60,40
43.511105,43.761105,65,60,40
43.761105,44.011105,70,60,40
44.011105,44.255898,65,60,40
44.261105,44.511105,69,60,40
44.511105,44.761105,65,60,40
44.761105,45.011105,69,60,40
45.011105,45.255898,65,60,40
45.261105,45.511105,63,60,40
45.511105,45.761105,65,60,40
45.761105,46.011105,62,60,40
46.011105,46.255898,65,60,40
46.261105,46.511105,69,60,40
46.511105,46.761105,65,60,40
46.761105,47.011105,71,60,40
47.011105,47.255898,65,60,40
47.261105,47.511105,74,60,40
47.511105,47.761105,65,60,40
47.761105,48.011105,72,60,40
48.011105,48.255898,65,60,40
48.261105,48.511105,75,60,40
48.511105,48.761105,74,60,40
48.761105,49.011105,76,60,40
49.011105,49.255898,72,60,40
49.261105,49.511105,76,60,40
49.511105,49.761105,72,60,40
49.761105,50.011105,77,60,40
50.011105,50.255898,72,60,40
50.261105,50.511105,70,60,40
50.511105,50.761105,77,61,40
50.761105,51.011105,72,62,40
51.011105,51.261105,77,64,40
51.261105,51.505898,70,66,40
51.511105,51.755898,77,68,40
51.761105,52.011105,74,70,40
52.011105,52.261105,79,72,40
52.261105,52.511105,72,74,40
52.511105,52.761105,79,76,40
52.761105,53.011105,74,78,40
53.011105,53.261105,79,80,40
53.261105,53.511105,72,82,40
53.511105,53.755898,79,84,40
53.761105,54.011105,77,86,40
54.011105,54.261105,82,88,40
54.261105,54.511105,75,90,40
54.511105,54.761105,82,92,40
54.761105,55.011105,70,94,40
55.011105,55.261105,82,96,40
55.261105,55.505898,70,98,40
55.511105,56.005898,73,100,40
55.511105,56.005898,82,100,40
56.011105,56.514336,73,100,40
56.011105,56.514336,82,100,40
56.519726,57.04539,73,100,40
56.519726,57.04539,82,100,40
57.05107,57.31812,73,80,40
57.05107,57.31812,82,80,40
57.3238,57.6238,75,60,40
57.6238,57.923798,72,60,40
57.923798,58.21755,74,60,40
58.5238,58.8988,60,60,40
58.8988,58.9613,62,60,40
58.9613,59.01859,63,60,40
59.0238,59.26859,62,60,40
59.5238,59.8988,69,60,40
59.8988,59.9613,70,60,40
59.9613,60.01859,72,60,40
60.0238,60.26859,70,60,40
60.5238,60.8988,67,60,40
60.8988,60.9613,69,60,40
60.9613,61.01859,70,60,40
61.0238,61.3988,69,60,40
61.3988,61.4613,70,60,40
61.4613,61.51859,72,60,40
61.5238,61.7113,70,60,40
61.7738,61.8988,74,60,40
62.0238,62.2113,70,60,40
62.2738,62.3988,67,60,40
62.5238,62.6488,69,60,40
62.690464,62.815464,70,60,40
62.857132,62.940464,72,60,40
63.0238,63.1488,70,60,40
63.190464,63.315464,69,60,40
63.357132,63.440464,70,60,40
63.5238,63.6488,72,60,40
63.690464,63.815464,74,60,40
63.857132,63.940464,75,60,40
64.023796,64.148796,74,60,40
64.19047,64.31547,72,60,40
64.35713,64.44047,74,60,40
64.523796,64.648796,76,60,40
64.69047,64.81547,77,60,40
64.85713,64.94047,79,60,40
65.023796,65.148796,72,60,40
65.19047,65.31547,76,60,40
65.35713,65.44047,77,60,40
65.523796,65.648796,76,60,40
65.69047,65.81547,77,60,40
65.85713,65.94047,79,60,40
66.023796,66.148796,72,60,40
66.19047,66.31547,76,60,40
66.35713,66.44047,77,60,40
66.523796,66.60713,76,60,40
66.69047,66.81547,77,73,40
66.85713,66.94047,79,86,40
67.023796,67.76859,80,100,40
67.773796,68.023796,77,60,40
68.023796,68.273796,73,60,40
68.273796,68.523796,68,60,40
68.523796,68.773796,65,60,40
68.773796,69.023796,61,60,40
69.023796,69.273796,59,60,40
69.273796,69.51859,65,60,40
69.523796,69.773796,64,60,40
69.773796,70.023796,72,60,40
70.023796,70.273796,65,60,40
70.273796,70.523796,72,60,40
70.523796,70.773796,67,60,40
70.773796,71.01859,72,60,40
71.023796,71.273796,71,60,40
71.273796,71.523796,77,65,40
71.523796,71.773796,76,70,40
71.773796,72.023796,72,76,40
72.023796,72.273796,77,82,40
72.273796,72.523796,72,88,40
72.523796,72.76859,76,94,40
72.773796,73.023796,81,100,40
73.023796,73.26859,82,100,40
73.273796,73.398796,82,100,40
73.523796,74.76859,82,100,40
74.773796,75.023796,81,75,40
75.023796,75.273796,79,70,40
75.273796,75.51859,77,65,40
75.523796,75.773796,81,60,40
75.773796,76.023796,79,60,40
76.023796,76.273796,77,60,40
76.273796,76.51859,76,60,40
76.523796,76.773796,79,60,40
76.773796,77.023796,77,60,40
77.023796,77.273796,76,60,40
77.273796,77.51859,74,60,40
77.523796,77.773796,74,60,40
77.773796,78.26859,67,60,40
78.273796,78.523796,67,60,40
78.523796,78.773796,72,60,40
78.773796,79.023796,70,60,40
79.023796,79.273796,69,60,40
79.273796,79.51859,67,60,40
79.523796,79.94047,65,60,40
90.773796,91.023796,81,80,40
91.023796,91.26859,82,80,40
91.273796,91.398796,82,90,40
91.523796,92.76859,82,100,40
92.773796,93.023796,81,100,40
93.023796,93.273796,79,87,40
93.273796,93.523796,77,74,40
93.523796,93.76859,76,60,40
93.773796,94.023796,81,80,40
94.023796,94.26859,82,80,40
94.273796,94.398796,82,85,40
94.523796,95.023796,82,90,40
95.023796,95.76859,84,100,40
95.773796,96.023796,81,100,40
96.023796,96.273796,72,87,40
96.273796,96.523796,70,74,40
96.523796,96.76859,69,60,40
96.773796,97.023796,81,80,40
97.023796,97.26859,82,80,40
97.273796,97.398796,82,85,40
97.523796,98.023796,82,90,40
98.023796,98.523796,82,100,40
98.523796,99.023796,81,60,40
99.023796,99.523796,82,60,40
99.523796,100.023796,77,60,40
100.023796,100.523796,76,60,40
100.523796,100.94047,77,60,40
101.023796,101.94047,74,60,40
102.023796,102.94047,74,60,40
103.023796,103.273796,72,60,40
103.273796,103.523796,70,60,40
103.523796,103.76859,69,60,40
116.773796,117.023796,72,100,40
117.023796,117.26859,69,100,40
117.273796,117.398796,69,100,40
117.523796,118.273796,69,100,40
118.273796,118.398796,70,80,40
118.523796,118.76859,65,60,40
119.773796,120.023796,70,100,40
120.023796,120.26859,71,100,40
120.273796,120.398796,71,100,40
120.523796,121.273796,71,100,40
121.273796,121.398796,72,80,40
121.523796,121.76859,67,60,40
122.773796,123.023796,70,100,40
123.023796,123.26859,71,100,40
123.273796,123.398796,71,80,40
123.523796,123.711296,71,60,40
123.773796,123.961296,71,60,40
124.023796,124.211296,71,60,40
124.273796,124.398796,71,60,40
124.523796,124.711296,71,60,40
124.773796,124.961296,71,60,40
125.023796,125.211296,71,60,40
125.273796,125.398796,71,60,40
125.523796,125.76859,71,60,40
125.773796,126.26859,71,60,40
126.273796,126.76859,71,60,40
126.773796,127.26859,71,60,40
127.273796,127.77703,71,60,40
127.78242,128.29427,71,60,40
128.29967,128.82533,70,60,40
128.83101,129.37077,71,60,40
129.37646,129.64351,70,60,40
129.64919,129.89398,60,60,40
129.64919,129.89398,69,60,40
131.64919,131.89398,66,60,40
131.64919,131.89398,75,60,40
131.89919,132.39398,66,60,40
131.89919,132.39398,75,60,40
132.39919,132.89398,66,80,40
132.39919,132.89398,75,80,40
132.89919,133.39398,66,100,40
132.89919,133.39398,75,100,40
133.39919,133.64398,66,60,40
133.39919,133.64398,75,60,40
135.64919,135.89398,66,60,40
135.64919,135.89398,75,60,40
135.89919,136.39398,66,60,40
135.89919,136.39398,75,60,40
136.39919,136.89398,66,80,40
136.39919,136.89398,75,80,40
136.89919,137.39398,66,100,40
136.89919,137.39398,75,100,40
137.39919,137.64398,66,60,40
137.39919,137.64398,75,60,40
137.64919,138.16643,84,60,40
138.16643,138.59746,75,70,40
138.68367,139.22913,84,80,40
139.22913,139.68367,75,90,40
139.77458,140.02458,74,100,40
140.02458,140.27458,65,100,40
140.27458,140.52458,75,97,40
140.52458,140.77458,65,94,40
140.77458,141.02458,74,91,40
141.02458,141.27458,65,88,40
141.27458,141.52458,70,84,40
141.52458,141.76936,65,80,40
141.77458,142.02458,69,76,40
142.02458,142.27458,65,72,40
142.27458,142.52458,69,68,40
142.52458,142.77458,65,64,40
142.77458,143.02458,63,60,40
143.02458,143.27458,65,60,40
143.27458,143.52458,62,60,40
143.52458,143.76936,65,60,40
143.77458,144.02458,69,60,40
144.02458,144.27458,65,60,40
144.27458,144.52458,71,60,40
144.52458,144.77458,65,60,40
144.77458,145.02458,74,60,40
145.02458,145.27458,65,60,40
145.27458,145.52458,72,60,40
145.52458,145.76936,65,60,40
145.77458,146.02458,75,60,40
146.02458,146.27458,74,60,40
146.27458,146.52458,76,60,40
146.52458,146.76936,72,60,40
146.77458,147.02458,76,60,40
147.02458,147.27458,72,60,40
147.27458,147.52458,77,60,40
147.52458,147.76936,72,60,40
147.77458,148.02458,70,60,40
148.02458,148.27458,77,60,40
148.27458,148.52458,72,60,40
148.52458,148.77458,77,60,40
148.77458,149.02458,70,60,40
149.02458,149.27458,77,60,40
149.27458,149.52458,70,60,40
149.52458,149.76936,65,60,40
149.77458,150.02458,71,60,40
150.02458,150.27458,65,60,40
150.27458,150.52458,71,60,40
150.52458,150.77458,67,60,40
150.77458,151.02458,65,60,40
151.02458,151.27458,67,60,40
151.27458,151.52458,63,60,40
151.52458,151.77458,67,60,40
151.77458,152.01936,70,60,40
152.02458,152.27458,70,65,40
152.27458,152.52458,72,70,40
152.52458,152.77458,70,75,40
152.77458,153.02458,75,80,40
153.02458,153.27458,70,85,40
153.27458,153.52458,74,90,40
153.52458,153.76936,70,95,40
153.77458,154.02458,77,100,40
154.02458,154.27458,70,100,40
154.27458,154.52458,75,80,40
154.52458,154.76936,67,80,40
154.77458,155.0332,65,60,40
155.0332,155.29182,63,60,40
155.29182,155.55887,62,60,40
163.58728,163.83728,71,60,40
163.83728,164.08728,70,60,40
164.08728,164.33728,66,61,40
164.33728,164.58206,61,62,40
164.58728,164.83728,75,63,40
164.83728,165.08728,73,64,40
165.08728,165.33728,70,66,40
165.33728,165.58206,66,68,40
165.58728,165.83728,82,70,40
165.83728,166.08728,77,72,40
166.08728,166.33728,74,74,40
166.33728,166.58206,65,76,40
166.58728,166.83728,79,78,40
166.83728,167.08728,77,80,40
167.08728,167.33728,74,80,40
167.33728,167.58206,65,80,40
167.58728,167.83728,79,80,40
167.83728,168.08728,77,80,40
168.08728,168.33728,72,78,40
168.33728,168.58206,65,76,40
168.58728,168.83728,79,74,40
168.83728,169.08728,77,72,40
169.08728,169.33728,72,69,40
169.33728,169.58206,65,66,40
169.58728,169.83728,79,63,40
169.83728,170.08728,77,60,40
170.08728,170.33728,72,60,40
170.33728,170.58206,65,60,40
170.58728,170.83728,79,60,40
170.83728,171.08728,77,60,40
171.08728,171.33728,74,60,40
171.33728,171.58206,65,60,40
171.58728,171.83728,79,60,40
171.83728,172.08728,77,60,40
172.08728,172.33206,70,60,40
172.33728,172.58728,72,60,40
172.58728,172.83206,67,60,40
172.83728,173.08728,72,60,40
173.08728,173.33206,67,60,40
173.33728,173.58206,69,60,40
173.58728,173.83728,77,60,40
173.83728,174.00394,70,60,40
174.00394,174.1654,65,61,40
174.17061,174.33728,77,62,40
174.33728,174.50394,72,63,40
174.50394,174.6654,65,64,40
174.67061,174.83728,77,65,40
174.83728,175.00394,70,66,40
175.00394,175.1654,65,67,40
175.17061,175.33728,77,68,40
175.33728,175.50394,74,69,40
175.50394,175.6654,67,70,40
175.67061,175.83728,79,71,40
175.83728,176.00394,72,72,40
176.00394,176.1654,67,73,40
176.17061,176.33728,79,74,40
176.33728,176.50394,74,75,40
176.50394,176.6654,67,76,40
176.67061,176.83728,79,77,40
176.83728,177.00394,72,78,40
177.00394,177.1654,67,79,40
177.17061,177.33728,79,80,40
177.33728,177.50394,77,81,40
177.50394,177.6654,70,82,40
177.67061,177.83728,82,83,40
177.83728,178.00394,75,84,40
178.00394,178.1654,70,86,40
178.17061,178.33728,82,88,40
178.33728,178.50394,76,90,40
178.50394,178.6654,70,92,40
178.67061,178.83728,82,94,40
178.83728,179.00394,77,96,40
179.00394,179.1654,70,98,40
179.17061,179.33728,82,100,40
179.33728,179.50394,81,100,40
179.50394,179.6654,70,100,40
179.67061,179.83728,82,100,40
179.83728,180.00394,81,100,40
180.00394,180.1654,70,100,40
180.17061,180.33728,82,100,40
180.33728,180.50394,79,100,40
180.50394,180.6654,70,94,40
180.67061,180.83728,82,88,40
180.83728,181.00394,77,81,40
181.00394,181.17061,75,74,40
181.17061,181.33728,72,67,40
181.33728,181.58206,74,60,40
181.83728,182.08728,74,80,40
182.33728,182.58728,74,80,40
182.83728,183.71228,75,120,40
183.83728,184.08728,72,80,40
184.33728,184.58728,72,80,40
184.83728,185.71228,74,120,40
185.83728,185.96228,70,80,40
186.08728,186.21228,70,80,40
186.33728,186.75394,72,120,40
186.83728,186.96228,69,80,40
187.08728,187.21228,69,80,40
187.33728,187.75394,70,120,40
187.83728,187.96228,67,80,40
188.08728,188.21228,69,80,40
188.33728,188.46228,65,80,40
188.58728,188.71228,67,80,40
188.83728,189.25394,64,120,40
189.33728,189.75394,61,120,40
189.83728,190.25394,62,120,40
190.33728,190.75394,62,120,40
190.83728,191.25394,74,120,40
191.33728,191.75394,74,120,40
191.96228,192.08206,63,100,40
192.08728,192.20706,67,100,40
192.21228,192.33206,72,100,40
192.33728,192.45706,77,100,40
192.46228,192.58206,75,100,40
192.58728,192.70706,74,100,40
192.71228,192.83206,75,100,40
193.33728,193.58206,58,100,40
193.33728,193.83206,67,100,40
193.46228,193.83206,74,100,40
201.83728,202.08728,70,80,40
202.33728,202.58728,70,80,40
202.83728,203.58728,72,120,40
203.58728,203.71228,70,80,40
203.83728,204.08728,68,80,40
204.08728,204.33728,67,80,40
204.33728,204.58728,65,80,40
204.58728,204.83206,67,80,40
204.83728,205.08728,70,80,40
205.08728,205.33728,68,80,40
205.33728,205.58728,67,80,40
205.58728,205.83206,68,80,40
205.83728,206.08728,79,80,40
206.33728,206.58728,79,80,40
206.83728,207.58728,80,120,40
207.58728,207.71228,79,80,40
207.83728,208.08728,79,80,40
208.08728,208.33728,82,80,40
208.33728,208.58728,80,80,40
208.58728,208.83206,79,80,40
208.83728,209.08728,77,80,40
209.08728,209.33206,70,75,40
209.33728,209.58728,77,70,40
209.58728,209.83206,75,65,40
209.83728,210.25394,74,60,40
211.96228,212.08206,63,80,40
212.08728,212.20706,69,80,40
212.21228,212.33206,72,80,40
212.33728,212.45706,77,80,40
212.46228,212.58206,75,80,40
212.58728,212.70706,74,80,40
212.71228,212.83206,75,80,40
212.83728,212.95706,81,80,40
212.96228,213.08206,79,80,40
213.08728,213.20706,78,80,40
213.21228,213.33206,76,80,40
213.33728,213.58206,74,80,40
213.96228,214.08206,62,80,40
214.08728,214.20706,67,80,40
214.21228,214.33206,70,80,40
214.33728,214.45706,79,80,40
214.46228,214.58206,77,80,40
214.58728,214.70706,75,80,40
214.71228,214.83206,72,80,40
214.96228,215.08206,60,80,40
215.08728,215.20706,65,80,40
215.21228,215.33206,69,80,40
215.33728,215.45706,77,80,40
215.46228,215.58206,75,80,40
215.58728,215.70706,74,80,40
215.71228,215.83206,70,80,40
215.96228,216.02478,58,80,40
216.08728,216.14978,63,80,40
216.21228,216.27478,63,80,40
216.46228,216.52478,57,80,40
216.58728,216.64978,62,80,40
216.71228,216.77478,62,80,40
216.83728,217.25394,63,120,40
217.33728,217.75394,62,120,40
218.96228,219.08206,63,80,40
219.08728,219.20706,68,80,40
219.21228,219.33206,72,80,40
219.33728,219.45706,77,80,40
219.46228,219.58206,75,80,40
219.58728,219.70706,74,80,40
219.71228,219.83206,75,80,40
219.83728,219.95706,80,80,40
219.96228,220.08206,79,80,40
220.08728,220.20706,77,80,40
220.21228,220.33206,75,80,40
220.33728,220.58206,74,80,40
220.96228,221.08206,62,80,40
221.08728,221.20706,67,80,40
221.21228,221.33206,71,80,40
221.33728,221.45706,75,80,40
221.46228,221.58206,74,80,40
221.58728,221.70706,73,80,40
221.71228,221.83206,74,80,40
221.83728,221.95706,79,80,40
221.96228,222.08206,77,80,40
222.08728,222.20706,75,80,40
222.21228,222.33206,72,80,40
222.46228,222.58206,60,80,40
222.58728,222.70706,65,80,40
222.71228,222.83206,68,80,40
222.83728,222.95706,77,80,40
222.96228,223.08206,75,80,40
223.08728,223.20706,74,80,40
223.21228,223.33206,70,80,40
223.46228,223.58206,58,80,40
223.58728,223.70706,63,80,40
223.71228,223.83206,67,80,40
223.83728,223.96228,75,80,40
223.96228,224.08206,72,80,40
224.21228,224.27478,62,80,40
224.33728,224.46228,74,80,40
224.46228,224.58206,71,80,40
224.71228,224.77478,60,80,40
224.83728,224.96228,77,80,40
224.96228,225.08206,74,80,40
225.21228,225.27478,63,80,40
225.33728,225.46228,75,80,40
225.46228,225.58206,72,80,40
225.71228,225.77478,62,80,40
225.83728,225.96228,79,80,40
225.96228,226.08206,75,81,40
226.21228,226.27478,68,83,40
226.33728,226.45706,80,84,40
226.46228,226.58206,77,85,40
226.71228,226.77478,70,87,40
226.83728,226.96228,82,88,40
226.96228,227.08206,79,89,40
227.21228,227.27478,72,91,40
227.33728,227.46228,84,92,40
227.46228,227.58206,80,94,40
227.71228,227.77478,74,98,40
227.83728,227.96228,86,100,40
227.96228,228.08206,79,100,40
228.21228,228.27478,72,100,40
228.33728,228.46228,86,100,40
228.46228,228.58206,79,100,40
228.71228,228.77478,72,100,40
228.83728,228.96228,86,100,40
228.96228,229.08206,80,100,40
229.21228,229.27478,80,100,40
229.33728,229.46228,86,100,40
229.46228,229.58206,80,100,40
229.71228,229.77478,80,100,40
229.83728,229.96228,87,100,40
229.96228,230.08206,80,100,40
230.21228,230.27478,80,100,40
230.33728,230.46228,87,100,40
230.46228,230.58206,80,100,40
230.71228,230.77478,80,100,40
230.83728,230.96228,88,100,40
230.96228,231.08206,80,98,40
231.21228,231.27478,80,94,40
231.33728,231.46228,88,92,40
231.46228,231.58206,80,89,40
231.71228,231.83206,89,83,40
231.83728,231.95706,83,120,40
231.96228,232.08206,83,80,40
232.08728,232.20706,82,80,40
232.21228,232.33206,82,80,40
232.33728,232.45706,80,120,40
232.46228,232.58206,80,80,40
232.58728,232.70706,79,80,40
232.71228,232.83206,79,80,40
232.83728,232.95706,80,120,40
232.96228,233.08206,80,79,40
233.08728,233.20706,79,78,40
233.21228,233.33206,79,77,40
233.33728,233.45706,71,108,40
233.46228,233.58206,71,75,40
233.58728,233.70706,70,74,40
233.71228,233.83206,70,73,40
233.83728,233.9612,68,104,40
233.96658,234.0905,68,71,40
234.0959,234.21982,67,70,40
234.2252,234.34912,67,69,40
234.87175,235.00244,68,92,40
235.00812,235.1388,68,60,40
235.14449,235.27516,67,60,40
235.28085,235.41153,67,60,40
238.14449,238.53922,68,40,40
238.67079,238.93396,68,40,40
239.19711,239.98659,68,40,40
239.98659,240.11816,68,40,40
240.24974,240.5129,65,40,40
240.5129,240.77606,63,40,40
240.77606,241.03922,61,40,40
241.03922,241.29689,65,40,40
241.30237,241.56552,67,40,40
241.56552,241.82869,65,45,40
241.82869,242.09184,63,50,40
242.09184,242.34952,61,55,40
242.355,242.73,60,60,40
242.855,243.105,60,60,40
243.355,244.105,61,60,40
244.105,244.23,60,60,40
244.355,244.605,68,60,40
244.605,244.855,67,60,40
244.855,245.105,65,60,40
245.105,245.3498,68,60,40
245.355,245.605,70,60,40
245.605,245.855,68,55,40
245.855,246.105,67,50,40
246.105,246.3498,68,45,40
246.355,246.73,73,40,40
246.855,247.105,73,40,40
247.48,247.605,56,60,40
247.605,247.73,61,60,40
247.73,247.855,65,60,40
247.855,247.98,70,60,40
247.98,248.105,68,55,40
248.105,248.23,67,50,40
248.23,248.3498,68,45,40
248.355,248.73,63,40,40
248.355,248.73,72,40,40
248.855,249.105,63,40,40
248.855,249.105,72,40,40
249.48,249.605,56,60,40
249.605,249.73,60,60,40
249.73,249.855,63,60,40
249.855,249.98,70,60,40
249.98,250.105,68,55,40
250.105,250.23,67,50,40
250.23,250.3498,68,45,40
250.355,250.605,68,40,40
250.855,251.105,68,40,40
251.48,251.605,56,60,40
251.605,251.73,61,60,40
251.73,251.855,65,60,40
251.855,251.98,69,60,40
251.98,252.105,68,55,40
252.105,252.23,67,50,40
252.23,252.3498,68,45,40
252.355,252.605,69,40,40
252.355,252.605,73,40,40
252.855,253.105,69,40,40
252.855,253.105,73,40,40
253.48,253.605,57,60,40
253.605,253.73,61,60,40
253.73,253.855,66,60,40
253.855,253.98,71,60,40
253.98,254.105,69,55,40
254.105,254.23,68,50,40
254.23,254.3498,69,45,40
254.355,254.605,57,40,40
254.355,254.605,69,40,40
254.855,255.105,57,40,40
254.855,255.105,69,40,40
255.48,255.605,57,40,40
255.605,255.73,61,40,40
255.73,255.855,66,40,40
255.855,255.98,71,40,40
255.98,256.105,69,40,40
256.105,256.23,68,40,40
256.23,256.3498,69,40,40
256.355,256.77167,57,64,40
256.355,256.77167,69,64,40
256.855,257.27167,57,64,40
256.855,257.27167,69,64,40
257.48,257.605,57,40,40
257.605,257.73,62,40,40
257.73,257.855,66,40,40
257.855,257.98,71,40,40
257.98,258.105,69,40,40
258.105,258.23,68,40,40
258.23,258.3498,69,40,40
258.355,258.77167,66,64,40
258.355,258.77167,75,64,40
258.855,259.27167,66,73,40
258.855,259.27167,75,73,40
259.48,259.605,66,60,40
259.605,259.73,69,62,40
259.73,259.855,75,64,40
259.855,259.98,76,66,40
259.98,260.105,75,68,40
260.105,260.23,74,70,40
260.23,260.3498,75,72,40
260.355,260.77167,67,106,40
260.355,260.77167,76,106,40
260.855,261.27167,67,125,40
260.855,261.27167,76,125,40
261.48,261.605,67,100,40
261.605,261.73,71,100,40
261.73,261.855,76,100,40
261.855,261.98,78,100,40
261.98,262.105,76,100,40
262.105,262.23,75,100,40
262.23,262.3498,76,100,40
262.48,262.605,65,80,40
262.605,262.73,68,80,40
262.73,262.855,74,80,40
262.855,262.98,79,80,40
262.98,263.105,77,80,40
263.105,263.23,76,80,40
263.23,263.3498,77,80,40
263.48,263.605,65,60,40
263.605,263.73,68,60,40
263.73,263.855,74,60,40
263.855,263.98,79,60,40
263.98,264.105,77,60,40
264.105,264.23,76,60,40
264.23,264.3498,77,60,40
264.48,264.605,65,60,40
264.605,264.73,68,62,40
264.73,264.855,74,64,40
264.855,264.98,79,66,40
264.98,265.105,77,68,40
265.105,265.23,76,70,40
265.23,265.3498,77,73,40
265.355,265.48,79,76,40
265.48,265.605,77,79,40
265.605,265.73,76,82,40
265.73,265.855,77,85,40
265.855,265.98,79,88,40
265.98,266.105,77,91,40
266.105,266.23,76,94,40
266.23,266.3498,77,97,40
266.355,268.355,70,100,40
266.355,268.355,80,100,40
268.355,269.355,80,80,40
269.355,270.355,79,80,40
270.355,271.23,77,60,40
271.355,272.24484,77,60,40
272.37195,273.3889,77,60,40
273.3889,274.42337,76,58,40
274.42337,275.45786,72,56,40
275.45786,276.3789,70,54,40
276.5105,277.0368,69,51,40
277.0368,277.5631,67,50,40
277.5631,278.09885,65,49,40
278.09885,278.63455,63,48,40
278.63455,279.17026,62,46,40
279.17026,279.70596,60,44,40
279.70596,280.25143,58,42,40
280.25143,280.51846,57,40,40
280.52417,280.79688,75,60,40
280.79688,281.04688,74,60,40
281.04688,281.29688,79,55,40
281.29688,281.54688,77,50,40
281.54688,281.7917,75,45,40
281.79688,282.04688,74,40,40
282.04688,282.29688,73,40,40
282.29688,282.54688,74,40,40
282.54688,282.7917,72,40,40
282.79688,283.04688,70,40,40
283.04688,283.29688,69,40,40
283.29688,283.54688,70,40,40
283.54688,283.7917,67,40,40
283.79688,284.04688,65,40,40
284.04688,284.29688,63,40,40
284.29688,284.54688,62,40,40
284.54688,284.79688,64,40,40
284.79688,285.0417,65,40,40
288.54688,288.79688,75,40,40
288.79688,289.04688,74,40,40
289.04688,289.29688,79,40,40
289.29688,289.54688,77,40,40
289.54688,289.7917,75,40,40
289.79688,290.04688,74,40,40
290.04688,290.29688,73,40,40
290.29688,290.54688,74,40,40
290.54688,290.7917,72,40,40
290.79688,291.04688,71,40,40
291.04688,291.29688,70,40,40
291.29688,291.54688,71,40,40
291.54688,291.7917,69,40,40
291.79688,292.04688,67,40,40
292.04688,292.29688,65,40,40
292.29688,292.54688,63,40,40
292.54688,292.79688,67,40,40
292.79688,293.0417,70,40,40
312.29688,312.38022,70,60,40
312.38022,312.46356,71,60,40
312.46356,312.54688,70,64,40
312.54688,312.63022,71,68,40
312.63022,312.71356,69,72,40
312.71356,312.79688,70,76,40
312.79688,313.29688,70,80,40
313.29688,313.71356,70,60,40
315.29688,315.38022,75,60,40
315.38022,315.46356,76,63,40
315.46356,315.54688,75,66,40
315.54688,315.63022,76,69,40
315.63022,315.71356,74,72,40
315.71356,315.79688,75,76,40
315.79688,316.29688,75,80,40
316.29688,316.71356,75,60,40
317.79688,318.29688,75,60,40
318.29688,318.71356,69,70,40
318.79688,319.29688,72,80,40
319.29688,319.71356,70,90,40
319.79688,320.29688,77,100,40
320.29688,320.71356,75,80,40
320.79688,321.17188,75,60,40
321.17188,321.23438,74,60,40
321.23438,321.2917,72,64,40
321.29688,321.67188,70,68,40
321.67188,321.73438,72,92,40
321.73438,321.7917,74,96,40
321.79688,322.29688,77,100,40
322.29688,322.71356,75,60,40
322.79688,322.88022,69,60,40
322.96356,323.04688,70,63,40
323.13022,323.21356,72,66,40
323.29688,323.38022,74,69,40
323.46356,323.54688,75,72,40
323.63022,323.71356,77,76,40
323.79688,324.29688,81,80,40
324.29688,324.71356,79,80,40
324.79688,325.29688,75,60,40
325.29688,325.71356,69,40,40
325.79688,326.0417,70,40,40
326.04688,326.29688,65,60,40
326.29688,326.54688,74,60,40
326.54688,326.7917,75,60,40
326.79688,327.17188,77,60,40
327.17188,327.23438,79,60,40
327.23438,327.2917,77,60,40
327.29688,327.5417,75,60,40
327.54688,327.7917,74,60,40
327.79688,328.54688,75,60,40
328.54688,328.67188,77,60,40
328.79688,329.17188,79,60,40
329.17188,329.23438,81,60,40
329.23438,329.2917,79,60,40
329.29688,329.5417,77,60,40
329.54688,329.7917,75,60,40
329.79688,330.54688,77,60,40
330.54688,330.67188,79,60,40
330.79688,331.17188,80,60,40
331.17188,331.23438,82,60,40
331.23438,331.2917,80,60,40
331.29688,331.67188,79,60,40
331.67188,331.73438,80,60,40
331.73438,331.7917,79,60,40
331.79688,332.17188,77,60,40
332.17188,332.23438,79,60,40
332.23438,332.2917,77,60,40
332.29688,332.67188,75,60,40
332.67188,332.73438,77,60,40
332.73438,332.7917,75,60,40
332.79688,333.04688,74,60,40
333.04688,333.29688,72,60,40
333.29688,333.54688,70,60,40
333.54688,333.7917,72,60,40
333.79688,334.04688,69,60,40
334.04688,334.29688,72,60,40
334.29688,334.54688,70,60,40
334.54688,334.79688,72,60,40
334.79688,335.04688,69,60,40
335.04688,335.2917,72,60,40
335.29688,335.54688,76,60,40
335.54688,335.79688,72,64,40
335.79688,336.04688,77,68,40
336.04688,336.29688,72,72,40
336.29688,336.54688,76,76,40
336.54688,336.79688,72,80,40
336.79688,337.0417,77,84,40
337.04688,337.29688,74,88,40
337.29688,337.5417,75,92,40
337.54688,337.67188,75,96,40
337.79688,339.0417,75,100,40
339.04688,339.29688,74,100,40
339.29688,339.54688,72,87,40
339.54688,339.79688,70,74,40
339.79688,340.0417,69,60,40
340.04688,340.29688,74,60,40
340.29688,340.5417,75,68,40
340.54688,340.67188,75,76,40
340.79688,341.29688,75,84,40
341.29688,342.0417,77,100,40
342.04688,342.29688,74,100,40
342.29688,342.54688,65,87,40
342.54688,342.79688,63,74,40
342.79688,343.0417,62,60,40
343.04688,343.29688,74,60,40
343.29688,343.5417,75,68,40
343.54688,343.67188,75,76,40
343.79688,344.29688,75,84,40
344.29688,344.79688,75,100,40
344.79688,345.29688,74,60,40
345.29688,345.79688,75,60,40
345.79688,346.29688,70,60,40
346.29688,346.79688,69,60,40
346.79688,347.21356,70,60,40
347.29688,348.21356,67,60,40
348.29688,348.79688,67,60,40
348.79688,349.21356,65,60,40
349.29688,349.54688,65,60,40
349.54688,349.79688,63,50,40
349.79688,350.0417,62,40,40
363.04688,363.29688,77,80,40
363.29688,363.5417,74,80,40
363.54688,363.67188,74,90,40
363.79688,364.54688,74,100,40
364.54688,364.7917,75,80,40
364.79688,365.0417,70,60,40
366.04688,366.29688,75,60,40
366.29688,366.5417,76,73,40
366.54688,366.7917,76,86,40
366.79688,367.54688,76,100,40
367.54688,367.7917,77,80,40
367.79688,368.0417,72,60,40
369.04688,369.29688,75,100,40
369.29688,369.5417,76,100,40
369.54688,369.67188,76,80,40
369.79688,369.98438,76,60,40
370.04688,370.23438,76,60,40
370.29688,370.48438,76,60,40
370.54688,370.67188,76,60,40
370.79688,370.98438,76,60,40
371.04688,371.23438,76,60,40
371.29688,371.48438,76,60,40
371.54688,371.67188,76,60,40
371.79688,372.0417,76,60,40
372.04688,372.5417,76,60,40
372.54688,373.04584,76,60,40
373.05112,373.5543,76,60,40
373.5596,374.06708,76,60,40
374.07245,374.58432,76,60,40
374.5897,375.106,75,60,40
375.11148,375.6323,76,60,40
375.6378,375.89545,75,47,40
375.90094,376.14572,65,40,40
375.90094,376.14572,74,40,40
377.90094,379.3176,68,80,40
377.90094,379.3176,71,80,40
381.90094,383.3176,68,80,40
381.90094,383.3176,71,80,40
391.84592,392.10358,77,40,40
392.10907,392.6263,74,64,40
392.6263,392.87955,75,40,40
394.17804,394.69528,74,64,40
394.69528,394.9485,72,40,40
396.24698,396.76422,69,40,40
396.76422,397.01746,68,40,40
398.31595,398.8332,75,40,40
398.8332,399.08643,74,40,40
400.38492,400.90216,74,40,40
400.90216,401.1554,75,40,40
402.4539,402.97113,71,40,40
402.97113,403.22437,74,40,40
404.52286,405.04916,70,40,40
405.04916,405.30682,72,40,40
406.6281,407.16382,77,40,40
407.16382,407.4261,75,40,40
408.79044,409.16544,65,60,40
409.29044,409.54044,65,60,40
409.79044,410.66544,69,60,40
410.79044,411.16544,65,60,40
411.29044,411.54044,65,60,40
411.79044,412.66544,69,60,40
412.79044,413.16544,65,60,40
413.29044,413.54044,65,60,40
413.79044,414.66544,69,60,40
414.79044,415.03525,70,60,40
415.04044,415.28525,70,64,40
415.29044,415.70712,71,68,40
415.79044,416.03525,72,76,40
416.04044,416.28525,72,80,40
416.29044,416.70712,73,84,40
416.79044,417.03525,72,92,40
417.04044,417.28525,72,96,40
417.29044,417.70712,69,100,40
417.29044,417.70712,75,100,40
433.29044,434.20712,63,100,40
433.29044,434.20712,73,100,40
434.29044,435.20712,63,100,40
434.29044,435.20712,73,100,40
435.29044,435.79044,63,100,40
435.29044,435.79044,73,100,40
435.79044,436.21417,63,100,40
435.79044,436.21417,72,100,40
436.29892,436.8074,70,100,40
436.29892,436.8074,79,100,40
436.8074,437.31586,70,100,40
436.8074,437.31586,77,100,40
437.31586,437.7396,70,100,40
437.31586,437.7396,76,100,40
437.82434,438.25537,70,100,40
437.82434,438.25537,77,100,40
438.34158,438.7726,70,100,40
438.85883,439.25357,69,100,40
439.25357,439.31934,70,100,40
439.31934,439.37967,72,100,40
439.38513,439.77988,70,100,40
439.77988,439.84567,72,100,40
439.84567,439.90598,74,100,40
439.91144,440.35788,70,100,40
440.44717,441.42932,63,100,40
440.44717,441.42932,73,100,40
441.5186,442.50073,63,100,40
441.5186,442.50073,73,100,40
442.59003,442.85788,70,100,40
442.85788,443.12573,75,100,40
443.12573,443.3936,68,100,40
443.3936,443.66144,75,100,40
443.66144,443.92932,67,100,40
443.92932,444.19717,75,100,40
444.19717,444.46503,72,100,40
444.46503,444.73288,75,100,40
444.73288,445.00073,70,100,40
445.00073,445.263,75,100,40
445.2686,445.53644,70,100,40
445.53644,445.8043,73,100,40
445.8043,446.07217,70,100,40
446.07217,446.33444,73,100,40
446.34003,446.60788,70,100,40
446.60788,446.87573,73,100,40
446.87573,447.1436,70,100,40
447.1436,447.40585,73,100,40
447.41144,447.94717,74,100,40
447.94717,448.3936,70,100,40
449.0186,449.42038,70,100,40
449.42038,449.48734,72,100,40
449.48734,449.54874,74,100,40
449.5543,450.09003,74,100,40
450.09003,450.3523,72,100,40
451.16144,451.56323,70,100,40
451.56323,451.6302,72,100,40
451.6302,451.6916,74,100,40
451.69717,452.2426,74,100,40
452.2426,452.50967,72,80,40
452.78806,453.3541,74,80,40
453.3541,453.63123,72,60,40
453.92014,454.52014,74,60,40
454.52014,455.12015,69,54,40
455.12015,455.72015,72,47,40
455.72015,456.22015,63,40,40
457.57013,457.82013,56,60,40
457.82013,458.07013,62,60,40
458.07013,458.32013,65,60,40
458.32013,458.98682,68,60,40
459.07013,459.32013,67,60,40
459.32013,459.57013,72,92,40
459.57013,459.81494,70,60,40
460.07013,460.32013,70,60,40
460.32013,460.57013,69,92,40
460.57013,460.81494,67,60,40
461.07013,461.32013,67,60,40
461.32013,461.57013,67,92,40
461.57013,461.81494,66,60,40
462.07013,462.32013,66,60,40
462.32013,462.57013,67,92,40
462.57013,462.81494,65,60,40
463.07013,463.32013,65,60,40
463.32013,463.57013,65,80,40
463.57013,463.82013,63,80,40
463.82013,464.07013,62,80,40
464.07013,464.31494,60,60,40
464.32013,464.73682,58,40,40
484.58298,484.69327,62,60,40
484.80356,484.91385,62,60,40
485.02414,485.13443,65,60,40
485.46533,485.57562,70,60,40
485.6859,485.7962,70,63,40
485.9065,486.01678,72,66,40
486.3477,486.45798,74,72,40
486.56827,486.67856,74,75,40
486.78885,486.89914,75,78,40
487.23,487.34033,77,84,40
487.45062,487.5609,77,88,40
487.6712,487.7815,79,92,40
488.11237,488.2227,77,100,40
488.33298,488.44327,77,100,40
488.55356,488.66385,75,100,40
488.99472,489.105,74,80,40
489.21533,489.32562,74,80,40
489.4359,489.5462,71,80,40
489.87708,489.98737,72,60,40
490.09766,490.20798,72,60,40
490.31827,490.42856,68,60,40
490.75943,490.86972,69,60,40
490.98,491.0903,69,60,40
491.20062,491.3109,71,60,40
491.64178,491.75208,72,60,40
491.86237,491.97266,72,61,40
492.08295,492.19327,68,62,40
492.52414,492.63443,69,64,40
492.74472,492.855,69,65,40
492.9653,493.07562,72,66,40
493.4065,493.51678,74,68,40
493.62708,493.73737,74,69,40
493.84766,493.95795,69,70,40
494.28885,494.39914,70,72,40
494.50943,494.61972,70,73,40
494.73,494.8403,74,74,40
495.1712,495.2815,75,76,40
495.39178,495.50208,75,77,40
495.61237,495.72266,71,78,40
496.05356,496.16385,72,80,40
496.27414,496.38443,72,81,40
496.49472,496.605,75,82,40
496.9359,497.0462,75,84,40
497.1565,497.26678,75,86,40
497.37708,497.48737,69,88,40
497.81824,497.92856,69,92,40
497.81824,497.92856,75,92,40
498.03885,498.14914,69,94,40
498.03885,498.14914,75,94,40
498.25943,498.36972,72,96,40
498.25943,498.36972,75,96,40
498.7006,498.81088,65,100,40
498.7006,498.81088,72,100,40
498.9212,499.0315,65,100,40
498.9212,499.0315,72,100,40
499.14178,499.25208,65,100,40
499.14178,499.25208,77,100,40
499.58295,499.69324,65,80,40
499.58295,499.69324,72,80,40
499.80353,499.91385,65,80,40
499.80353,499.91385,72,80,40
500.02414,500.13443,65,80,40
500.02414,500.13443,77,80,40
500.4653,500.5756,65,80,40
500.4653,500.5756,74,80,40
500.9065,501.01678,69,80,40
500.9065,501.01678,77,80,40
501.12708,501.23737,69,80,40
501.12708,501.23737,77,80,40
501.34766,501.45795,70,80,40
501.34766,501.45795,74,80,40
501.78885,501.844,65,100,40
501.78885,501.844,72,100,40
501.89914,501.95428,65,100,40
501.89914,501.95428,72,100,40
502.00943,502.06458,65,100,40
502.00943,502.06458,72,100,40
502.11972,502.17487,65,100,40
502.11972,502.17487,72,100,40
502.23,502.3403,65,80,40
502.23,502.3403,74,80,40
502.67117,502.7815,69,80,40
502.67117,502.7815,77,80,40
502.89178,503.00208,69,80,40
502.89178,503.00208,77,80,40
503.11237,503.22266,70,80,40
503.11237,503.22266,74,80,40
503.55353,503.60867,65,100,40
503.55353,503.60867,72,100,40
503.66382,503.719,65,100,40
503.66382,503.719,72,100,40
503.77414,503.82928,65,100,40
503.77414,503.82928,72,100,40
503.88443,503.93958,65,100,40
503.88443,503.93958,72,100,40
503.99472,504.105,65,80,40
503.99472,504.105,74,80,40
504.87708,504.98276,57,100,40
504.87708,505.0379,65,100,40
504.93222,505.0379,72,100,40
505.31824,505.42395,57,100,40
505.31824,505.4791,65,100,40
505.37338,505.4791,72,100,40
505.75943,505.8651,58,100,40
505.75943,505.92026,65,100,40
505.81458,505.92026,74,100,40
506.2006,506.3063,77,100,40
506.31088,506.4166,77,100,40
506.42117,506.5269,77,100,40
506.53146,506.63718,77,100,40
506.64178,506.74747,77,100,40
506.75208,506.85776,77,98,40
506.86237,506.96805,77,96,40
506.97266,507.07834,77,94,40
507.08295,507.18866,77,92,40
507.19324,507.29895,77,89,40
507.30353,507.40924,77,86,40
507.41382,507.51953,77,83,40
507.5241,507.7401,74,80,40
508.40646,508.65128,62,100,40
508.40646,508.65128,70,100,40
509.40646,510.45648,62,80,40
509.40646,510.45648,70,80,40
418.54044,418.78525,65,100,45
418.54044,418.78525,75,100,45
418.79044,419.03525,65,100,45
418.79044,419.03525,74,100,45
419.04044,419.28525,65,98,45
419.04044,419.28525,74,98,45
419.54044,419.78525,65,94,45
419.54044,419.78525,75,94,45
420.04044,420.28525,65,90,45
420.04044,420.28525,74,90,45
420.54044,420.78525,65,86,45
420.54044,420.78525,70,86,45
421.04044,421.28525,65,80,45
421.04044,421.28525,69,80,45
421.54044,421.78525,65,80,45
421.54044,421.78525,69,80,45
422.04044,422.28525,65,80,45
422.04044,422.28525,72,80,45
422.54044,422.78525,65,80,45
422.54044,422.78525,70,80,45
423.04044,423.28525,65,80,45
423.04044,423.28525,69,80,45
423.54044,423.78525,65,80,45
423.54044,423.78525,71,80,45
424.04044,424.28525,65,80,45
424.04044,424.28525,74,80,45
424.54044,424.78525,65,80,45
424.54044,424.78525,72,80,45
425.04044,425.28525,65,80,45
425.04044,425.28525,74,80,45
425.54044,425.78525,67,80,45
425.54044,425.78525,76,80,45
426.04044,426.28525,67,80,45
426.04044,426.28525,76,80,45
426.29044,426.53525,69,80,45
426.29044,426.53525,77,80,45
427.04044,427.28525,65,80,45
427.04044,427.28525,70,80,45
427.54044,427.78525,65,80,45
427.54044,427.78525,72,80,45
428.04044,428.28525,65,80,45
428.04044,428.28525,70,80,45
428.54044,428.78525,67,81,45
428.54044,428.78525,74,81,45
429.04044,429.28525,67,83,45
429.04044,429.28525,72,83,45
429.54044,429.78525,67,85,45
429.54044,429.78525,74,85,45
430.04044,430.28525,67,87,45
430.04044,430.28525,72,87,45
430.54044,430.78525,70,89,45
430.54044,430.78525,77,89,45
431.04044,431.28525,70,91,45
431.04044,431.28525,75,91,45
431.54044,431.78525,67,93,45
431.54044,431.78525,72,93,45
432.04044,432.28525,65,95,45
432.04044,432.28525,72,95,45
432.54044,432.78525,69,97,45
432.54044,432.78525,74,97,45
432.79044,433.03525,67,98,45
432.79044,433.03525,74,98,45
465.57013,465.81494,62,40,45
465.82013,466.06494,65,40,45
466.07013,466.31494,68,40,45
466.32013,466.56494,74,40,45
467.07013,467.31494,70,40,45
467.57013,467.81494,63,40,45
467.82013,468.06494,66,40,45
468.07013,468.31494,70,40,45
468.32013,468.56494,75,40,45
469.07013,469.31494,75,40,45
469.57013,469.81494,66,40,45
469.82013,470.06494,69,60,45
470.07013,470.31494,75,80,45
470.32013,470.56494,75,100,45
471.07013,471.31494,72,100,45
471.32013,471.56494,72,100,45
472.07013,472.31494,69,85,45
472.32013,472.56494,69,80,45
473.07013,473.31494,63,65,45
473.32013,473.5609,62,60,45
473.56604,473.80682,62,60,45
473.81195,474.05273,65,60,45
475.28735,475.52426,70,60,45
475.5293,475.76617,70,60,45
475.7712,476.00812,72,60,45
477.22284,477.45596,74,60,45
477.46094,477.69406,74,60,45
477.69904,477.93216,79,60,45
479.1276,479.35355,75,60,45
479.35837,479.58432,75,60,45
479.58914,479.8151,72,60,45
480.97375,481.1963,65,60,45
481.20102,481.42355,65,60,45
481.42828,481.65082,74,60,45
482.79193,483.01114,69,60,45
483.0158,483.23502,69,60,45
483.2397,483.4589,63,60,45
18.062695,18.312695,70,40,41
18.312695,18.562695,75,40,41
18.562695,18.812695,74,40,41
18.812695,19.062695,72,40,41
19.062695,19.312695,70,40,41
19.312695,19.562695,69,40,41
19.562695,19.812695,70,40,41
19.812695,20.057487,68,40,41
20.062695,20.312695,67,40,41
20.312695,20.562695,66,40,41
20.562695,20.812695,67,40,41
20.812695,21.057487,63,40,41
21.062695,21.312695,62,40,41
21.312695,21.562695,60,40,41
21.562695,21.812695,58,40,41
21.812695,22.057487,62,40,41
22.062695,22.479362,53,40,41
22.562695,23.479362,65,40,41
23.562695,23.979362,69,40,41
24.062695,24.479362,70,40,41
24.562695,24.979362,67,40,41
25.062695,25.479362,65,40,41
25.562695,25.812695,65,40,41
25.812695,26.062695,75,40,41
26.062695,26.312695,74,40,41
26.312695,26.562695,73,40,41
26.562695,26.812695,74,40,41
26.812695,27.057487,72,40,41
27.062695,27.312695,70,40,41
27.312695,27.562695,69,40,41
27.562695,27.812695,70,40,41
27.812695,28.057487,68,40,41
28.062695,28.312695,67,40,41
28.312695,28.562695,66,40,41
28.562695,28.812695,67,40,41
28.812695,29.062695,65,40,41
29.062695,29.312695,63,40,41
29.312695,29.562695,62,40,41
29.562695,29.812695,60,40,41
29.812695,30.057487,63,40,41
30.062695,30.479362,58,40,41
30.562695,31.062695,69,40,41
31.062695,31.479362,68,40,41
31.562695,32.062695,68,60,41
32.062695,32.579937,62,80,41
32.579937,33.026363,63,60,41
33.11565,33.661102,65,60,41
33.661102,33.954853,58,60,41
42.011105,42.255898,69,80,41
42.261105,42.677773,70,80,41
55.761105,55.92256,49,100,41
55.927773,56.08923,55,100,41
56.094437,56.255898,58,100,41
56.261105,56.433517,61,100,41
56.433517,56.60593,58,94,41
56.60593,56.778343,61,88,41
56.778343,56.960163,67,81,41
56.960163,57.14198,61,74,41
57.14198,57.31812,58,67,41
57.3238,57.5238,65,60,41
57.5238,57.7238,63,60,41
57.7238,57.923798,65,60,41
57.923798,58.21755,62,60,41
58.5238,58.8988,69,60,41
58.8988,58.9613,70,60,41
58.9613,59.01859,72,60,41
59.0238,59.26859,70,60,41
59.5238,59.8988,72,60,41
59.8988,59.9613,74,60,41
59.9613,60.01859,75,60,41
60.0238,60.26859,74,60,41
60.5238,60.8988,75,60,41
60.8988,60.9613,77,75,41
60.9613,61.01859,79,77,41
61.0238,61.3988,78,79,41
61.3988,61.4613,79,94,41
61.4613,61.51859,81,97,41
61.5238,61.7113,82,100,41
61.7738,61.8988,79,100,41
62.0238,62.2113,75,80,41
62.2738,62.3988,72,80,41
62.5238,62.6488,72,60,41
62.690464,62.815464,74,60,41
62.857132,62.940464,75,60,41
63.0238,63.1488,74,60,41
63.190464,63.315464,72,60,41
63.357132,63.440464,74,60,41
63.5238,63.6488,69,60,41
63.690464,63.815464,70,60,41
63.857132,63.940464,72,60,41
64.023796,64.148796,70,60,41
64.19047,64.31547,69,60,41
64.35713,64.44047,70,60,41
64.523796,64.648796,70,60,41
64.69047,64.81547,69,60,41
64.85713,64.94047,70,60,41
65.023796,65.148796,65,60,41
65.19047,65.31547,67,60,41
65.35713,65.44047,69,60,41
65.523796,65.648796,70,60,41
65.69047,65.81547,69,60,41
65.85713,65.94047,70,60,41
66.023796,66.148796,65,60,41
66.19047,66.31547,67,60,41
66.35713,66.44047,69,60,41
66.523796,66.60713,70,60,41
66.69047,66.81547,69,68,41
66.85713,66.94047,70,77,41
67.023796,67.26859,72,86,41
67.273796,67.523796,73,100,41
67.523796,68.76859,73,60,41
68.773796,69.023796,73,60,41
69.023796,69.273796,74,60,41
69.273796,69.523796,71,60,41
69.523796,69.76859,72,60,41
69.773796,70.26859,72,60,41
70.273796,70.76859,72,60,41
70.773796,71.023796,72,60,41
71.023796,71.273796,74,60,41
71.273796,71.523796,71,60,41
71.523796,71.76859,72,60,41
71.773796,72.26859,72,68,41
72.273796,72.76859,72,84,41
72.773796,73.023796,73,100,41
73.023796,73.26859,74,100,41
73.273796,73.398796,74,100,41
73.523796,74.76859,74,100,41
74.773796,75.023796,72,75,41
75.023796,75.273796,70,70,41
75.273796,75.51859,69,65,41
75.523796,75.773796,72,60,41
75.773796,76.023796,70,60,41
76.023796,76.273796,69,60,41
76.273796,76.51859,67,60,41
76.523796,76.773796,70,60,41
76.773796,77.023796,69,60,41
77.023796,77.273796,67,60,41
77.273796,77.51859,65,60,41
77.523796,77.773796,67,60,41
77.773796,78.023796,65,60,41
78.023796,78.273796,64,60,41
78.273796,78.51859,62,60,41
78.523796,78.76859,60,60,41
78.773796,78.961296,60,60,41
79.023796,79.211296,65,60,41
79.273796,79.398796,67,60,41
79.523796,80.273796,69,60,41
80.273796,80.398796,70,60,41
80.523796,80.898796,72,60,41
80.898796,80.961296,74,60,41
80.961296,81.01859,72,60,41
81.023796,81.26859,70,60,41
81.273796,81.51859,69,60,41
81.523796,82.273796,70,60,41
82.273796,82.398796,72,60,41
82.523796,82.898796,74,60,41
82.898796,82.961296,76,60,41
82.961296,83.01859,74,60,41
83.023796,83.26859,72,60,41
83.273796,83.51859,70,60,41
83.523796,84.273796,72,60,41
84.273796,84.398796,74,60,41
84.523796,84.898796,75,60,41
84.898796,84.961296,77,60,41
84.961296,85.01859,75,60,41
85.023796,85.398796,74,60,41
85.398796,85.461296,75,60,41
85.461296,85.51859,74,60,41
85.523796,85.898796,72,60,41
85.898796,85.961296,74,60,41
85.961296,86.01859,72,60,41
86.023796,86.398796,70,60,41
86.398796,86.461296,72,60,41
86.461296,86.51859,70,60,41
86.523796,86.773796,69,60,41
86.773796,87.023796,67,60,41
87.023796,87.273796,65,60,41
87.273796,87.51859,67,60,41
87.523796,87.773796,64,60,41
87.773796,88.023796,67,60,41
88.023796,88.273796,65,60,41
88.273796,88.523796,67,60,41
88.523796,88.773796,64,60,41
88.773796,89.01859,67,60,41
89.023796,89.273796,71,60,41
89.273796,89.523796,67,64,41
89.523796,89.773796,72,68,41
89.773796,90.023796,67,72,41
90.023796,90.273796,71,76,41
90.273796,90.523796,67,80,41
90.523796,90.76859,72,84,41
90.773796,91.023796,73,88,41
91.023796,91.26859,74,92,41
91.273796,91.398796,74,96,41
91.523796,92.76859,74,100,41
92.773796,93.023796,72,100,41
93.023796,93.273796,70,87,41
93.273796,93.523796,69,74,41
93.523796,93.76859,67,60,41
93.773796,94.023796,73,80,41
94.023796,94.26859,74,80,41
94.273796,94.398796,74,85,41
94.523796,95.023796,74,90,41
95.023796,95.76859,75,100,41
95.773796,96.023796,72,100,41
96.023796,96.273796,69,87,41
96.273796,96.523796,67,74,41
96.523796,96.76859,66,60,41
96.773796,97.023796,73,80,41
97.023796,97.26859,74,80,41
97.273796,97.398796,74,85,41
97.523796,98.023796,74,90,41
98.023796,98.523796,75,100,41
98.523796,99.023796,75,60,41
99.023796,99.523796,74,60,41
99.523796,100.023796,72,60,41
100.023796,100.523796,70,60,41
100.523796,100.94047,69,60,41
101.023796,101.273796,67,60,41
101.273796,101.51859,69,60,41
101.523796,101.94047,72,60,41
102.023796,102.26859,70,60,41
102.273796,102.51859,69,60,41
102.523796,103.023796,70,60,41
103.023796,103.273796,69,60,41
103.273796,103.51859,67,60,41
103.523796,103.76859,65,60,41
103.773796,104.023796,60,40,41
104.023796,104.273796,65,40,41
104.273796,104.523796,67,40,41
104.523796,104.773796,69,40,41
104.773796,105.023796,70,40,41
105.023796,105.273796,67,40,41
105.273796,105.523796,65,40,41
105.523796,105.76859,67,40,41
105.773796,106.023796,60,40,41
106.023796,106.273796,67,40,41
106.273796,106.523796,69,40,41
106.523796,106.773796,70,40,41
106.773796,107.023796,72,40,41
107.023796,107.273796,69,40,41
107.273796,107.523796,67,40,41
107.523796,107.76859,69,40,41
107.773796,108.023796,60,40,41
108.023796,108.273796,69,40,41
108.273796,108.523796,70,40,41
108.523796,108.773796,72,40,41
108.773796,109.023796,74,40,41
109.023796,109.273796,70,40,41
109.273796,109.51859,72,40,41
109.523796,109.773796,69,40,41
109.773796,110.023796,70,41,41
110.023796,110.273796,67,42,41
110.273796,110.523796,69,43,41
110.523796,110.773796,65,44,41
110.773796,111.023796,63,45,41
111.023796,111.273796,62,46,41
111.273796,111.51859,60,47,41
111.523796,111.773796,58,48,41
111.773796,112.023796,62,50,41
112.023796,112.273796,60,52,41
112.273796,112.523796,62,54,41
112.523796,112.773796,58,56,41
112.773796,113.023796,62,58,41
113.023796,113.273796,60,60,41
113.273796,113.523796,62,62,41
113.523796,113.76859,58,64,41
113.773796,114.023796,62,66,41
114.023796,114.273796,64,68,41
114.273796,114.523796,60,70,41
114.523796,114.773796,65,72,41
114.773796,115.023796,60,74,41
115.023796,115.273796,64,76,41
115.273796,115.523796,60,78,41
115.523796,115.76859,65,80,41
127.023796,128.04105,68,60,41
128.04105,128.55829,67,60,41
128.55829,129.10373,68,60,41
129.10373,129.55827,67,60,41
129.64919,129.89398,60,60,41
129.64919,129.89398,66,60,41
131.64919,132.14919,72,60,41
132.14919,132.64919,71,80,41
132.64919,133.14919,72,100,41
133.14919,133.56586,63,60,41
133.64919,134.14919,54,40,41
134.14919,134.64919,53,40,41
134.64919,135.14919,54,40,41
135.14919,135.56586,51,40,41
135.64919,136.14919,72,60,41
136.14919,136.64919,71,80,41
136.64919,137.14919,72,100,41
137.14919,137.56586,63,60,41
137.64919,138.16643,72,60,41
138.16643,138.59746,63,68,41
138.68367,139.22913,72,77,41
139.22913,139.68367,69,86,41
163.83728,164.08728,54,60,41
164.33728,164.58728,54,60,41
164.83728,165.71228,58,68,41
165.83728,166.33728,58,84,41
166.33728,166.83728,60,92,41
166.83728,167.33728,58,100,41
167.33728,167.75394,62,100,41
167.83728,168.33728,63,100,41
168.33728,168.75394,57,90,41
168.83728,169.33728,60,80,41
169.33728,169.75394,58,80,41
169.83728,170.33728,60,80,41
170.33728,170.83728,58,80,41
170.83728,171.33728,56,80,41
171.33728,171.75394,57,80,41
171.83728,172.25394,58,80,41
172.33728,172.83728,58,80,41
172.83728,173.33728,52,80,41
173.33728,173.75394,53,80,41
182.96228,183.08206,58,100,41
183.08728,183.20706,63,100,41
183.21228,183.33206,67,100,41
183.33728,183.45706,72,100,41
183.46228,183.58206,70,100,41
183.58728,183.70706,69,100,41
183.71228,183.83206,70,100,41
183.83728,183.95706,75,100,41
183.96228,184.08206,74,100,41
184.08728,184.20706,72,100,41
184.21228,184.33206,70,100,41
184.33728,184.58206,69,100,41
184.96228,185.08206,57,100,41
185.08728,185.20706,62,100,41
185.21228,185.33206,66,100,41
185.33728,185.45706,70,100,41
185.46228,185.58206,69,100,41
185.58728,185.70706,67,100,41
185.71228,185.83206,69,100,41
185.83728,185.95706,74,100,41
185.96228,186.08206,72,100,41
186.08728,186.20706,70,100,41
186.21228,186.33206,67,100,41
186.46228,186.58206,55,100,41
186.58728,186.70706,60,100,41
186.71228,186.83206,63,100,41
186.83728,186.95706,72,100,41
186.96228,187.08206,70,100,41
187.08728,187.20706,69,100,41
187.21228,187.33206,65,100,41
187.46228,187.58206,53,100,41
187.58728,187.70706,58,100,41
187.71228,187.83206,62,100,41
187.83728,187.95706,70,100,41
187.96228,188.08206,69,100,41
188.08728,188.20706,67,100,41
188.21228,188.33206,64,100,41
188.33728,188.45706,69,100,41
188.46228,188.58206,65,100,41
188.58728,188.70706,62,100,41
188.71228,188.83206,67,100,41
188.83728,189.25394,62,100,41
188.83728,189.25394,64,100,41
189.33728,189.75394,57,100,41
189.33728,189.75394,64,100,41
189.96228,190.08206,58,100,41
190.08728,190.20706,62,100,41
190.21228,190.33206,67,100,41
190.33728,190.45706,72,100,41
190.46228,190.58206,70,100,41
190.58728,190.70706,69,100,41
190.71228,190.83206,70,100,41
191.33728,191.58206,54,100,41
191.33728,191.83206,62,100,41
191.46228,191.83206,69,100,41
191.96228,192.08206,55,100,41
192.08728,192.20706,60,100,41
192.21228,192.33206,63,100,41
192.33728,192.45706,74,100,41
192.46228,192.58206,72,100,41
192.58728,192.70706,71,100,41
192.71228,192.83206,72,100,41
193.33728,193.58206,55,100,41
193.33728,193.83206,62,100,41
193.46228,193.83206,70,100,41
193.83728,194.08728,58,80,41
193.83728,194.08728,67,80,41
194.33728,194.58728,58,80,41
194.33728,194.58728,67,80,41
194.83728,195.58728,68,120,41
195.58728,195.83206,67,80,41
195.83728,196.08728,65,80,41
196.08728,196.33728,63,80,41
196.33728,196.58728,62,80,41
196.58728,196.83206,63,80,41
196.83728,197.08728,67,80,41
197.08728,197.33728,65,80,41
197.33728,197.58728,63,80,41
197.58728,197.83206,65,80,41
197.83728,198.08728,70,80,41
198.33728,198.58728,70,80,41
198.83728,199.58728,72,120,41
199.58728,199.83206,70,80,41
199.83728,200.08728,68,80,41
200.08728,200.33728,67,80,41
200.33728,200.58728,65,80,41
200.58728,200.83206,67,80,41
200.83728,201.08728,70,80,41
201.08728,201.33728,68,80,41
201.33728,201.58728,67,80,41
201.58728,201.83206,68,80,41
201.83728,202.08728,67,80,41
202.33728,202.58728,67,80,41
202.83728,203.58728,68,120,41
203.58728,203.71228,67,80,41
203.83728,204.08728,65,80,41
204.08728,204.33728,63,80,41
204.33728,204.58728,62,80,41
204.58728,204.83206,63,80,41
204.83728,205.08728,67,80,41
205.08728,205.33728,65,80,41
205.33728,205.58728,63,80,41
205.58728,205.83206,65,80,41
205.83728,206.08728,70,80,41
206.33728,206.58728,70,80,41
206.83728,207.58728,72,120,41
207.58728,207.71228,70,80,41
207.83728,208.08728,75,80,41
208.08728,208.33728,74,80,41
208.33728,208.58728,72,80,41
208.58728,208.83206,70,80,41
208.83728,209.08728,70,80,41
209.08728,209.33206,68,80,41
209.33728,209.58728,68,80,41
209.58728,209.83206,67,80,41
209.83728,210.08728,74,80,41
210.33728,210.58728,74,80,41
210.83728,211.71228,75,120,41
211.83728,212.08728,72,80,41
212.33728,212.58728,72,80,41
212.83728,213.71228,74,120,41
213.83728,213.96228,70,80,41
214.08728,214.21228,70,80,41
214.33728,214.75394,72,120,41
214.83728,214.96228,69,80,41
215.08728,215.21228,69,80,41
215.33728,215.75394,70,120,41
215.83728,215.96228,67,80,41
216.08728,216.21228,69,80,41
216.33728,216.46228,66,80,41
216.58728,216.71228,67,80,41
216.83728,217.25394,57,120,41
216.83728,217.25394,67,120,41
217.33728,217.75394,57,120,41
217.33728,217.75394,66,120,41
218.83728,219.08728,72,80,41
219.33728,219.58728,72,80,41
219.83728,220.71228,74,120,41
220.83728,221.08728,71,80,41
221.33728,221.58728,71,80,41
221.83728,222.25394,72,120,41
222.33728,222.58206,68,80,41
222.58728,222.83206,68,80,41
222.83728,223.25394,70,120,41
223.33728,223.58206,67,80,41
223.58728,223.83206,67,80,41
223.83728,223.96228,68,120,41
224.08728,224.21228,65,80,41
224.33728,224.46228,67,120,41
224.58728,224.71228,63,80,41
224.83728,224.96228,70,120,41
225.08728,225.21228,67,80,41
225.33728,225.46228,68,120,41
225.58728,225.71228,65,80,41
225.83728,225.96228,72,120,41
226.08728,226.21228,68,80,41
226.33728,226.46228,74,120,41
226.58728,226.71228,70,80,41
226.83728,226.96228,75,120,41
227.08728,227.21228,72,80,41
227.33728,227.46228,77,120,41
227.58728,227.71228,74,80,41
227.83728,227.96228,67,120,41
227.83728,227.96228,74,120,41
228.08728,228.21228,67,80,41
228.08728,228.21228,75,80,41
228.33728,228.46228,67,120,41
228.33728,228.46228,74,120,41
228.58728,228.71228,67,80,41
228.58728,228.71228,75,80,41
228.83728,228.96228,68,120,41
228.83728,228.96228,74,120,41
229.08728,229.21228,68,80,41
229.08728,229.21228,75,80,41
229.33728,229.46228,68,120,41
229.33728,229.46228,74,120,41
229.58728,229.71228,68,80,41
229.58728,229.71228,75,80,41
229.83728,229.96228,68,120,41
229.83728,229.96228,75,120,41
230.08728,230.21228,68,80,41
230.08728,230.21228,76,80,41
230.33728,230.46228,68,120,41
230.33728,230.46228,75,120,41
230.58728,230.71228,68,80,41
230.58728,230.71228,76,80,41
230.83728,230.96228,68,120,41
230.83728,230.96228,76,120,41
231.08728,231.21228,68,80,41
231.08728,231.21228,77,80,41
231.33728,231.46228,68,120,41
231.33728,231.46228,76,120,41
231.58728,231.71228,68,80,41
231.58728,231.71228,77,80,41
231.83728,231.96228,80,120,41
232.08728,232.21228,79,80,41
232.33728,232.46228,77,120,41
232.58728,232.71228,75,80,41
232.83728,232.96228,71,120,41
233.08728,233.21228,70,78,41
233.33728,233.46228,68,108,41
233.58728,233.71228,67,74,41
233.83728,233.96658,62,104,41
234.0959,234.2252,63,69,41
234.3545,234.48383,62,98,41
234.61313,234.74245,63,63,41
234.87175,235.00812,62,92,41
235.14449,235.28085,63,60,41
235.4172,235.55357,62,92,41
235.68994,235.8263,63,60,41
235.96266,236.09903,62,60,41
236.2354,236.37175,63,58,41
236.50812,236.64449,62,56,41
236.78084,236.9172,63,54,41
237.05357,237.18994,62,52,41
237.3263,237.46266,63,49,41
237.59903,237.73538,62,46,41
237.87175,238.00812,63,43,41
238.14449,238.27606,62,64,41
238.40764,238.53922,63,40,41
238.67079,238.80237,62,40,41
238.93396,239.06554,63,40,41
239.19711,239.32869,64,40,41
239.46027,239.59184,65,40,41
239.72342,239.85501,62,40,41
239.98659,240.11816,63,40,41
240.24974,240.38132,61,40,41
240.5129,240.64447,60,40,41
240.77606,240.90764,58,40,41
241.03922,241.17079,61,40,41
241.30237,241.43394,63,40,41
241.56552,241.69711,61,45,41
241.82869,241.96027,60,50,41
242.09184,242.22342,63,55,41
242.355,242.48,67,60,41
242.605,242.73,68,60,41
242.855,242.98,67,60,41
243.105,243.23,68,60,41
243.355,243.48,67,60,41
243.605,243.73,68,60,41
243.855,243.98,67,60,41
244.105,244.23,68,60,41
244.355,244.48,65,60,41
244.605,244.73,63,60,41
244.855,244.98,61,60,41
245.105,245.23,65,60,41
245.355,245.48,67,60,41
245.605,245.73,65,55,41
245.855,245.98,63,50,41
246.105,246.23,65,45,41
246.355,246.48,67,40,41
246.605,246.73,68,40,41
246.855,246.98,67,40,41
247.105,247.23,68,40,41
247.355,247.48,55,40,41
247.605,247.73,56,40,41
247.855,247.98,55,40,41
248.105,248.23,56,40,41
248.355,248.48,55,40,41
248.605,248.73,56,40,41
248.855,248.98,55,40,41
249.105,249.23,56,40,41
249.355,249.48,55,40,41
249.605,249.73,56,40,41
249.855,249.98,55,40,41
250.105,250.23,56,40,41
250.355,250.48,55,40,41
250.605,250.73,56,40,41
250.855,250.98,55,40,41
251.105,251.23,56,40,41
251.355,251.48,48,40,41
251.605,251.73,49,40,41
251.855,251.98,48,40,41
252.105,252.23,49,40,41
252.355,252.48,48,40,41
252.605,252.73,49,40,41
252.855,252.98,48,40,41
253.105,253.23,49,40,41
253.355,253.48,48,40,41
253.605,253.73,49,40,41
253.855,253.98,48,40,41
254.105,254.23,49,40,41
254.355,254.48,48,40,41
254.605,254.73,49,40,41
254.855,254.98,48,40,41
255.105,255.23,49,40,41
255.355,255.48,48,40,41
255.605,255.73,49,40,41
255.855,255.98,48,40,41
256.105,256.23,49,40,41
256.355,256.48,53,40,41
256.605,256.73,54,40,41
256.855,256.98,53,40,41
257.105,257.23,54,40,41
257.355,257.48,53,40,41
257.605,257.73,54,40,41
257.855,257.98,53,40,41
258.105,258.23,54,40,41
258.355,258.48,53,40,41
258.605,258.73,54,43,41
258.855,258.98,53,46,41
259.105,259.23,54,49,41
259.355,259.48,53,52,41
259.605,259.73,54,56,41
259.855,259.98,53,60,41
260.105,260.23,54,64,41
260.355,260.48,54,68,41
260.605,260.73,55,72,41
260.855,260.98,54,76,41
261.105,261.23,55,80,41
261.355,261.48,54,84,41
261.605,261.73,55,88,41
261.855,261.98,66,92,41
262.105,262.23,67,96,41
262.355,262.77167,68,100,41
262.355,262.77167,77,100,41
262.855,263.27167,62,100,41
263.355,263.77167,68,100,41
263.355,263.77167,77,100,41
263.855,264.27167,62,100,41
264.355,264.5998,68,80,41
264.355,264.5998,77,80,41
264.605,264.8498,62,80,41
264.855,265.0998,68,82,41
264.855,265.0998,77,82,41
265.105,265.3498,62,85,41
265.355,265.5998,68,88,41
265.355,265.5998,77,88,41
265.605,265.8498,62,91,41
265.855,266.0998,68,94,41
265.855,266.0998,77,94,41
266.105,266.3498,62,97,41
266.355,268.355,68,100,41
266.355,268.355,77,100,41
268.355,269.355,77,80,41
269.355,270.355,75,80,41
270.355,271.355,74,80,41
271.355,272.24484,73,60,41
272.37195,273.3889,72,60,41
273.3889,274.42337,70,58,41
274.42337,275.45786,69,55,41
275.45786,276.3789,67,52,41
276.5105,277.0368,65,49,41
277.0368,277.5631,63,48,41
277.5631,278.09885,62,47,41
278.09885,278.63455,60,46,41
278.63455,279.17026,58,44,41
279.17026,279.6167,57,42,41
279.70596,280.43326,63,40,41
280.52417,280.79688,69,60,41
280.79688,281.04688,70,60,41
281.04688,281.29688,75,55,41
281.29688,281.54688,74,50,41
281.54688,281.7917,72,45,41
281.79688,282.04688,70,40,41
282.04688,282.29688,69,40,41
282.29688,282.54688,70,40,41
282.54688,282.7917,68,40,41
282.79688,283.04688,67,40,41
283.04688,283.29688,66,40,41
283.29688,283.54688,67,40,41
283.54688,283.7917,63,40,41
283.79688,284.04688,62,40,41
284.04688,284.29688,60,40,41
284.29688,284.54688,58,40,41
284.54688,284.7917,55,40,41
284.79688,285.04688,57,40,41
285.04688,285.29688,53,40,41
285.29688,285.54688,59,40,41
285.54688,285.7917,53,40,41
285.79688,286.04688,62,40,41
286.04688,286.29688,53,40,41
286.29688,286.54688,60,40,41
286.54688,286.7917,53,40,41
286.79688,287.0417,63,40,41
287.04688,287.2917,62,40,41
287.29688,287.5417,64,40,41
287.54688,287.7917,60,40,41
287.79688,288.0417,64,40,41
288.04688,288.2917,60,40,41
288.29688,288.5417,65,40,41
288.54688,288.7917,72,40,41
288.79688,289.0417,70,40,41
289.04688,289.2917,75,40,41
289.29688,289.5417,74,40,41
289.54688,289.7917,72,40,41
289.79688,290.0417,70,40,41
290.04688,290.2917,69,40,41
290.29688,290.5417,70,40,41
290.54688,290.7917,68,40,41
290.79688,291.0417,67,40,41
291.04688,291.2917,66,40,41
291.29688,291.5417,67,40,41
291.54688,291.7917,65,40,41
291.79688,292.0417,63,40,41
292.04688,292.2917,62,40,41
292.29688,292.5417,60,40,41
292.54688,292.7917,63,40,41
292.79688,293.0417,62,40,41
293.04688,293.2917,58,40,41
293.29688,293.5417,60,40,41
293.54688,293.7917,58,40,41
293.79688,294.0417,63,40,41
294.04688,294.2917,58,40,41
294.29688,294.5417,62,40,41
294.54688,294.7917,58,40,41
294.79688,295.0417,65,40,41
295.04688,295.2917,58,40,41
295.29688,295.5417,63,40,41
295.54688,295.7917,55,40,41
295.79688,296.0417,53,40,41
296.04688,296.2917,51,40,41
296.29688,296.5417,50,40,41
304.54688,304.79688,71,60,41
304.79688,305.04688,70,60,41
305.04688,305.29688,66,62,41
305.29688,305.5417,61,65,41
305.54688,305.79688,75,68,41
305.79688,306.04688,73,71,41
306.04688,306.29688,70,74,41
306.29688,306.5417,66,77,41
306.54688,306.79688,82,80,41
306.79688,307.04688,83,80,41
307.04688,307.29688,78,75,41
307.29688,307.54688,76,70,41
307.54688,307.7917,73,65,41
307.79688,308.04688,75,60,41
308.04688,308.29688,71,60,41
308.29688,308.54688,66,60,41
308.54688,308.7917,63,60,41
308.79688,309.04688,64,60,41
309.04688,309.29688,61,60,41
309.29688,309.54688,58,60,41
309.54688,309.7917,56,60,41
309.79688,310.04688,54,60,41
310.04688,310.29688,52,60,41
310.29688,310.54688,51,60,41
310.54688,310.7917,54,60,41
310.79688,311.04688,58,60,41
311.04688,311.29688,54,60,41
311.29688,311.54688,60,60,41
311.54688,311.7917,54,60,41
311.79688,312.04688,63,60,41
312.04688,312.29688,54,60,41
312.29688,312.54688,61,60,41
312.54688,313.0417,54,60,41
313.04688,313.5417,54,60,41
313.54688,313.7917,54,60,41
313.79688,314.04688,63,60,41
314.04688,314.29688,59,65,41
314.29688,314.54688,65,70,41
314.54688,314.7917,59,75,41
314.79688,315.04688,68,80,41
315.04688,315.29688,59,60,41
315.29688,315.54688,66,60,41
315.54688,316.0417,59,60,41
316.04688,316.5417,59,60,41
316.54688,316.7917,59,60,41
316.79688,317.0417,66,60,41
317.04688,317.5417,66,60,41
317.54688,317.7917,66,60,41
317.79688,318.0417,69,60,41
318.04688,318.5417,69,65,41
318.54688,318.7917,69,75,41
318.79688,319.0417,70,80,41
319.04688,319.5417,70,85,41
319.54688,319.7917,70,95,41
319.79688,320.0417,70,100,41
320.04688,320.5417,70,100,41
320.54688,320.7917,67,80,41
321.04688,321.2917,63,60,41
321.04688,321.2917,65,60,41
321.54688,321.7917,62,80,41
321.54688,321.7917,65,80,41
321.79688,322.0417,70,100,41
322.04688,322.5417,70,80,41
322.54688,322.7917,67,60,41
323.04688,323.2917,63,60,41
323.04688,323.2917,65,60,41
323.54688,323.7917,62,60,41
323.54688,323.7917,65,60,41
324.04688,324.2917,57,60,41
324.04688,324.2917,63,60,41
324.54688,324.7917,55,60,41
324.54688,324.7917,63,60,41
325.04688,325.2917,53,60,41
325.04688,325.2917,60,60,41
325.54688,325.7917,53,60,41
326.04688,326.29688,65,40,41
326.29688,326.54688,70,40,41
326.54688,326.79688,72,40,41
326.79688,327.04688,74,40,41
327.04688,327.29688,75,40,41
327.29688,327.54688,72,40,41
327.54688,327.79688,70,40,41
327.79688,328.0417,72,40,41
328.04688,328.29688,65,40,41
328.29688,328.54688,72,40,41
328.54688,328.79688,74,40,41
328.79688,329.04688,75,40,41
329.04688,329.29688,77,40,41
329.29688,329.54688,74,40,41
329.54688,329.79688,72,40,41
329.79688,330.0417,74,40,41
330.04688,330.29688,65,40,41
330.29688,330.54688,74,40,41
330.54688,330.79688,75,40,41
330.79688,331.04688,77,40,41
331.04688,331.29688,79,40,41
331.29688,331.54688,75,40,41
331.54688,331.7917,77,40,41
331.79688,332.04688,74,40,41
332.04688,332.29688,75,45,41
332.29688,332.54688,72,50,41
332.54688,332.7917,74,55,41
332.79688,333.04688,70,60,41
333.04688,333.29688,69,60,41
333.29688,333.54688,67,60,41
333.54688,333.7917,64,60,41
333.79688,334.04688,65,60,41
334.04688,334.29688,60,60,41
334.29688,334.54688,64,60,41
334.54688,334.79688,60,60,41
334.79688,335.04688,65,60,41
335.04688,335.2917,69,60,41
335.29688,335.54688,70,60,41
335.54688,335.79688,72,64,41
335.79688,336.04688,69,68,41
336.04688,336.29688,72,72,41
336.29688,336.54688,70,76,41
336.54688,336.79688,72,80,41
336.79688,337.0417,69,84,41
337.04688,337.29688,66,88,41
337.29688,337.5417,67,92,41
337.54688,337.67188,67,96,41
337.79688,339.0417,67,100,41
339.04688,339.29688,65,100,41
339.29688,339.54688,63,87,41
339.54688,339.79688,62,74,41
339.79688,340.0417,60,60,41
340.04688,340.29688,66,60,41
340.29688,340.5417,67,68,41
340.54688,340.67188,67,76,41
340.79688,341.29688,67,84,41
341.29688,342.0417,68,100,41
342.04688,342.29688,65,100,41
342.29688,342.54688,62,87,41
342.54688,342.79688,60,74,41
342.79688,343.0417,59,60,41
343.04688,343.29688,66,60,41
343.29688,343.5417,67,68,41
343.54688,343.67188,67,76,41
343.79688,344.29688,67,84,41
344.29688,344.79688,68,100,41
344.79688,345.29688,69,60,41
345.29688,345.79688,67,60,41
345.79688,346.29688,65,60,41
346.29688,346.79688,63,60,41
346.79688,347.21356,62,60,41
347.29688,347.54688,60,60,41
347.54688,347.7917,62,60,41
347.79688,348.21356,65,60,41
348.29688,348.5417,63,60,41
348.54688,348.7917,62,60,41
348.79688,349.29688,63,60,41
349.29688,349.54688,62,52,41
349.54688,349.79688,60,48,41
349.79688,350.0417,58,44,41
350.04688,350.29688,53,40,41
350.29688,350.54688,58,40,41
350.54688,350.79688,60,40,41
350.79688,351.04688,62,40,41
351.04688,351.29688,63,40,41
351.29688,351.54688,60,40,41
351.54688,351.79688,58,40,41
351.79688,352.0417,60,40,41
352.04688,352.29688,53,40,41
352.29688,352.54688,60,40,41
352.54688,352.79688,62,40,41
352.79688,353.04688,63,40,41
353.04688,353.29688,65,40,41
353.29688,353.54688,62,40,41
353.54688,353.79688,60,40,41
353.79688,354.0417,62,40,41
354.04688,354.29688,53,40,41
354.29688,354.54688,62,40,41
354.54688,354.79688,63,40,41
354.79688,355.04688,65,40,41
355.04688,355.29688,67,40,41
355.29688,355.54688,63,40,41
355.54688,355.7917,65,40,41
355.79688,356.04688,62,40,41
356.04688,356.29688,63,41,41
356.29688,356.54688,60,42,41
356.54688,356.7917,62,43,41
356.79688,357.04688,58,44,41
357.04688,357.29688,68,45,41
357.29688,357.54688,67,46,41
357.54688,357.7917,65,47,41
357.79688,358.04688,63,48,41
358.04688,358.29688,58,50,41
358.29688,358.54688,62,52,41
358.54688,358.79688,58,54,41
358.79688,359.04688,63,56,41
359.04688,359.29688,58,58,41
359.29688,359.54688,62,60,41
359.54688,359.79688,58,62,41
359.79688,360.0417,63,64,41
360.04688,360.29688,67,66,41
360.29688,360.54688,69,68,41
360.54688,360.79688,65,70,41
360.79688,361.04688,70,72,41
361.04688,361.29688,65,74,41
361.29688,361.54688,69,76,41
361.54688,361.79688,65,78,41
361.79688,362.0417,70,80,41
373.30536,374.3311,73,60,41
374.3311,374.84833,72,60,41
374.84833,375.37463,73,60,41
375.37463,375.90094,72,60,41
375.90094,376.14572,71,60,41
379.90094,380.40094,59,40,41
380.40094,380.90094,58,40,41
380.90094,381.40094,59,40,41
381.40094,381.8176,56,40,41
392.10907,392.6263,70,64,41
392.6263,392.87955,72,40,41
394.17804,394.69528,62,64,41
394.69528,394.9485,65,40,41
396.24698,396.76422,65,40,41
396.76422,397.01746,59,40,41
398.31595,398.8332,69,40,41
398.8332,399.08643,70,40,41
400.38492,400.90216,70,40,41
400.90216,401.1554,72,40,41
402.4539,402.97113,55,40,41
402.97113,403.22437,59,40,41
404.52286,405.04916,58,40,41
404.52286,405.04916,70,40,41
405.04916,405.30682,69,40,41
406.6281,407.16382,62,40,41
407.16382,407.4261,63,40,41
412.79044,413.16544,61,40,41
413.29044,413.54044,61,40,41
413.79044,414.66544,63,40,41
414.79044,415.03525,65,40,41
415.04044,415.28525,65,46,41
415.29044,415.70712,68,52,41
415.79044,416.03525,69,64,41
416.04044,416.28525,69,70,41
416.29044,416.70712,70,76,41
416.79044,417.03525,69,88,41
417.04044,417.28525,69,94,41
417.29044,417.70712,63,100,41
417.29044,417.70712,72,100,41
426.54044,426.78525,65,80,41
426.79044,427.29044,70,80,41
427.29044,427.79044,69,81,41
427.79044,428.20712,70,82,41
428.29044,428.79044,71,83,41
428.79044,429.29044,72,84,41
429.29044,429.79044,71,85,41
429.79044,430.20712,72,86,41
430.29044,430.79044,74,88,41
430.79044,431.20712,75,90,41
431.29044,431.79044,76,92,41
431.79044,432.20712,77,94,41
432.29044,432.79044,78,96,41
432.79044,433.20712,79,98,41
433.29044,434.20712,79,100,41
434.29044,435.20712,79,100,41
435.29044,435.79044,79,100,41
435.79044,436.29892,80,100,41
436.29892,436.8074,79,100,41
436.8074,437.31586,77,100,41
437.31586,437.7396,76,100,41
437.82434,438.34158,77,100,41
438.34158,438.7726,70,100,41
438.85883,439.25357,69,100,41
439.25357,439.31934,70,100,41
439.31934,439.37967,72,100,41
439.38513,439.77988,74,100,41
439.77988,439.84567,75,100,41
439.84567,439.90598,77,100,41
439.91144,440.09003,77,100,41
440.09003,440.2686,75,100,41
440.2686,440.4416,74,100,41
440.44717,440.62573,77,100,41
440.62573,440.80432,75,100,41
440.80432,440.9773,74,100,41
440.98288,441.16144,77,100,41
441.16144,441.34003,75,100,41
441.34003,441.513,74,100,41
441.5186,441.69717,77,100,41
441.69717,441.87573,75,100,41
441.87573,442.04874,74,100,41
442.05432,442.23288,77,100,41
442.23288,442.41144,75,100,41
442.41144,442.58444,74,100,41
442.59003,442.7686,77,100,41
442.7686,442.94717,75,100,41
442.94717,443.12015,74,100,41
443.12573,443.30432,77,100,41
443.30432,443.48288,75,100,41
443.48288,443.65588,68,100,41
443.66144,443.84003,77,100,41
443.84003,444.0186,75,100,41
444.0186,444.1916,67,100,41
444.19717,444.37573,77,100,41
444.37573,444.55432,75,100,41
444.55432,444.7273,72,100,41
444.73288,444.91144,77,100,41
444.91144,445.09003,75,100,41
445.09003,445.263,70,100,41
445.2686,445.44717,75,100,41
445.44717,445.62573,73,100,41
445.62573,445.79874,70,100,41
445.8043,445.98288,75,100,41
445.98288,446.16144,73,100,41
446.16144,446.33444,70,100,41
446.34003,446.5186,75,100,41
446.5186,446.69717,73,100,41
446.69717,446.87015,70,100,41
446.87573,447.0543,75,100,41
447.0543,447.23288,73,100,41
447.23288,447.40585,70,100,41
447.41144,447.59003,74,100,41
447.59003,447.7686,62,100,41
447.7686,447.94717,65,100,41
447.94717,448.12573,62,100,41
448.12573,448.3043,65,100,41
448.3043,448.4773,62,100,41
448.48288,448.66144,65,100,41
448.66144,448.84003,63,100,41
448.84003,449.0186,65,100,41
449.0186,449.19717,62,100,41
449.19717,449.37573,65,100,41
449.37573,449.54874,62,100,41
449.5543,449.73288,65,100,41
449.73288,449.91144,63,100,41
449.91144,450.09003,65,100,41
450.09003,450.2686,63,100,41
450.2686,450.44717,65,100,41
450.44717,450.62015,63,100,41
450.62573,450.8043,65,100,41
450.8043,450.98288,62,100,41
450.98288,451.16144,65,100,41
451.16144,451.34003,62,100,41
451.34003,451.5186,65,100,41
451.5186,451.6916,62,100,41
451.69717,451.87897,65,100,41
451.87897,452.0608,63,100,41
452.0608,452.2426,65,100,41
452.2426,452.42444,63,100,41
452.42444,452.60626,65,100,41
452.60626,452.78238,63,100,41
452.78806,452.97675,65,80,41
452.97675,453.16544,63,80,41
453.16544,453.3541,65,80,41
453.3541,453.5428,63,80,41
453.5428,453.73148,65,80,41
453.73148,453.91425,63,80,41
453.92014,454.22015,65,80,41
454.22015,454.52014,63,75,41
454.52014,454.82013,65,70,41
454.82013,455.12015,63,64,41
455.12015,455.42014,65,58,41
455.42014,455.72015,63,52,41
455.72015,456.02014,65,46,41
456.02014,456.3139,53,40,41
464.32013,464.69513,50,60,41
464.32013,464.69513,58,60,41
464.82013,465.07013,50,60,41
464.82013,465.07013,58,60,41
465.32013,466.19513,50,60,41
465.32013,466.19513,59,60,41
466.32013,466.69513,51,60,41
466.32013,466.69513,58,60,41
466.82013,467.07013,51,60,41
466.82013,467.07013,58,60,41
467.32013,468.19513,51,60,41
467.32013,468.19513,59,60,41
468.32013,468.69513,51,60,41
468.32013,468.69513,58,60,41
468.82013,469.07013,51,60,41
468.82013,469.07013,58,60,41
469.32013,470.19513,51,80,41
469.32013,470.19513,59,80,41
470.32013,470.73682,51,80,41
470.32013,470.73682,60,80,41
470.82013,471.73682,51,100,41
470.82013,471.73682,63,100,41
471.82013,472.73682,51,80,41
471.82013,472.73682,60,80,41
472.82013,473.23682,57,60,41
473.32013,473.38162,53,60,41
473.44308,473.50458,62,60,41
473.56604,473.62753,58,60,41
473.689,473.75046,62,60,41
473.81195,473.8734,65,60,41
473.9349,473.99637,60,60,41
474.05786,474.11932,57,60,41
474.1808,474.24228,60,60,41
474.30374,474.36523,53,60,41
474.4267,474.48816,60,60,41
474.54965,474.6111,57,60,41
474.6726,474.73407,60,60,41
474.79556,474.85703,65,60,41
474.9185,474.97998,62,60,41
475.04144,475.10294,58,60,41
475.1644,475.2259,62,60,41
475.28735,475.34784,53,60,41
475.40833,475.4688,62,60,41
475.5293,475.58978,58,60,41
475.65027,475.71075,62,60,41
475.7712,475.8317,65,60,41
475.89218,475.95267,60,60,41
476.01315,476.07364,57,60,41
476.13412,476.1946,60,60,41
476.2551,476.31558,53,60,41
476.37607,476.43655,60,60,41
476.49704,476.55753,57,60,41
476.618,476.67847,60,60,41
476.73895,476.79944,65,60,41
476.85992,476.9204,62,60,41
476.9809,477.04138,58,60,41
477.10187,477.16235,62,60,41
477.22284,477.28235,53,60,41
477.3419,477.4014,62,60,41
477.46094,477.52045,58,60,41
477.58,477.6395,62,60,41
477.69904,477.75854,67,60,41
477.81808,477.8776,63,60,41
477.93713,477.99664,58,60,41
478.05615,478.1157,63,60,41
478.1752,478.23474,55,60,41
478.29425,478.3538,63,60,41
478.4133,478.47284,58,60,41
478.53235,478.5919,63,60,41
478.6514,478.71094,67,60,41
478.77045,478.83,63,60,41
478.8895,478.94904,58,60,41
479.00854,479.06808,63,60,41
479.1276,479.18527,55,60,41
479.24298,479.30066,63,60,41
479.35837,479.41605,60,60,41
479.47375,479.53143,63,60,41
479.58914,479.64682,67,60,41
479.70453,479.7622,63,60,41
479.81992,479.8776,60,60,41
479.93527,479.99298,63,60,41
480.05066,480.10837,55,60,41
480.16605,480.22375,63,60,41
480.28143,480.33914,60,60,41
480.39682,480.45453,63,60,41
480.5122,480.5699,67,60,41
480.6276,480.68527,63,60,41
480.74298,480.80066,60,60,41
480.85837,480.91605,63,60,41
480.97375,481.03058,53,60,41
481.08737,481.1442,62,60,41
481.20102,481.25784,58,60,41
481.31467,481.37146,62,60,41
481.42828,481.4851,65,60,41
481.54193,481.59875,62,60,41
481.65558,481.71237,58,60,41
481.7692,481.82602,62,60,41
481.88284,481.93967,53,60,41
481.99646,482.05328,62,60,41
482.1101,482.16693,58,60,41
482.22375,482.28055,62,60,41
482.33737,482.3942,65,60,41
482.45102,482.50784,62,60,41
482.56467,482.62146,58,60,41
482.67828,482.7351,62,60,41
482.79193,482.8479,53,60,41
482.90387,482.95984,63,60,41
483.0158,483.07178,60,60,41
483.12775,483.18372,63,60,41
483.2397,483.29565,65,60,41
483.35162,483.4076,63,60,41
483.46356,483.51953,60,60,41
483.5755,483.63147,63,60,41
483.68744,483.7434,53,60,41
483.79938,483.85535,60,60,41
483.91132,483.9673,57,60,41
484.02325,484.07922,60,60,41
484.13522,484.1912,65,60,41
484.24716,484.30313,60,60,41
484.3591,484.41507,57,60,41
484.47104,484.527,60,60,41
484.58298,484.68866,65,60,41
484.69327,484.79895,53,60,41
484.80356,484.90927,65,60,41
484.91385,485.01956,53,60,41
485.02414,485.12985,65,60,41
485.13443,485.24014,53,60,41
485.24472,485.35043,65,60,41
485.35504,485.46072,53,60,41
485.46533,485.571,65,60,41
485.57562,485.6813,53,61,41
485.6859,485.7916,65,62,41
485.7962,485.90192,53,63,41
485.9065,486.0122,65,64,41
486.01678,486.1225,53,65,41
486.12708,486.2328,65,66,41
486.23737,486.34308,53,67,41
486.3477,486.45337,65,68,41
486.45798,486.56366,53,70,41
486.56827,486.67395,65,72,41
486.67856,486.78424,53,74,41
486.78885,486.89456,65,76,41
486.89914,487.00485,53,78,41
487.00943,487.11514,65,80,41
487.11972,487.22543,53,82,41
487.23,487.33572,65,84,41
487.34033,487.446,53,86,41
487.45062,487.5563,65,88,41
487.5609,487.6666,53,90,41
487.6712,487.7769,65,92,41
487.7815,487.8872,53,94,41
487.89178,487.9975,65,96,41
488.00208,488.1078,53,98,41
488.11237,488.21808,65,100,41
488.2227,488.32837,53,100,41
488.33298,488.43866,65,98,41
488.44327,488.54895,53,96,41
488.55356,488.65924,65,94,41
488.66385,488.76953,53,92,41
488.77414,488.87985,65,90,41
488.88443,488.99014,53,87,41
488.99472,489.10043,65,84,41
489.105,489.21072,53,81,41
489.21533,489.321,65,78,41
489.32562,489.4313,53,75,41
489.4359,489.5416,65,72,41
489.5462,489.6519,53,69,41
489.6565,489.7622,65,66,41
489.76678,489.8725,53,63,41
489.87708,489.9828,65,60,41
489.98737,490.09308,53,60,41
490.09766,490.20337,65,60,41
490.20798,490.31366,53,60,41
490.31827,490.42395,65,60,41
490.42856,490.53424,53,60,41
490.53885,490.64453,65,60,41
490.64914,490.75485,53,60,41
490.75943,490.86514,65,60,41
490.86972,490.97543,53,60,41
490.98,491.08572,65,60,41
491.0903,491.196,53,60,41
491.20062,491.3063,65,60,41
491.3109,491.4166,53,60,41
491.4212,491.5269,65,60,41
491.5315,491.63718,53,60,41
491.64178,491.7475,65,60,41
491.75208,491.8578,53,60,41
491.86237,491.96808,65,60,41
491.97266,492.07837,53,60,41
492.08295,492.18866,65,60,41
492.19327,492.29895,53,60,41
492.30356,492.40924,65,60,41
492.41385,492.51953,53,60,41
492.52414,492.62982,65,60,41
492.63443,492.74014,53,60,41
492.74472,492.85043,65,60,41
492.855,492.96072,53,60,41
492.9653,493.071,65,60,41
493.07562,493.1813,53,60,41
493.1859,493.2916,65,60,41
493.2962,493.4019,53,60,41
493.4065,493.51218,65,60,41
493.51678,493.6225,53,60,41
493.62708,493.7328,65,60,41
493.73737,493.84308,53,60,41
493.84766,493.95337,65,60,41
493.95795,494.06366,53,60,41
494.06827,494.17395,65,60,41
494.17856,494.28424,53,60,41
494.28885,494.39453,65,60,41
494.39914,494.50482,53,61,41
494.50943,494.61514,65,62,41
494.61972,494.72543,53,63,41
494.73,494.83572,65,64,41
494.8403,494.946,53,65,41
494.9506,495.0563,65,66,41
495.0609,495.1666,53,67,41
495.1712,495.2769,65,68,41
495.2815,495.38718,53,69,41
495.39178,495.49747,65,69,41
495.50208,495.6078,53,70,41
495.61237,495.71808,65,71,41
495.72266,495.82837,53,72,41
495.83295,495.93866,65,73,41
495.94324,496.04895,53,74,41
496.05356,496.15924,65,75,41
496.16385,496.26953,53,76,41
496.27414,496.37982,65,77,41
496.38443,496.4901,53,78,41
496.49472,496.60043,65,79,41
496.605,496.71072,53,80,41
496.7153,496.821,65,81,41
496.8256,496.9313,53,82,41
496.9359,497.0416,72,83,41
497.0462,497.1519,65,84,41
497.1565,497.26218,72,85,41
497.26678,497.37247,65,86,41
497.37708,497.48276,72,87,41
497.48737,497.59308,65,88,41
497.59766,497.70337,72,89,41
497.70795,497.81366,65,90,41
497.81824,497.92395,72,91,41
497.92856,498.03424,65,92,41
498.03885,498.14453,72,93,41
498.14914,498.25482,65,94,41
498.25943,498.3651,72,95,41
498.36972,498.47543,65,96,41
498.48,498.58572,72,97,41
498.5903,498.696,65,98,41
498.7006,498.8063,69,100,41
498.7006,498.8063,75,100,41
498.81088,498.9166,69,100,41
498.81088,498.9166,75,100,41
498.9212,499.0269,69,99,41
498.9212,499.0269,75,99,41
499.0315,499.13718,69,98,41
499.0315,499.13718,75,98,41
499.14178,499.24747,69,97,41
499.14178,499.24747,75,97,41
499.25208,499.35776,69,96,41
499.25208,499.35776,75,96,41
499.36237,499.46808,69,95,41
499.36237,499.46808,75,95,41
499.47266,499.57837,69,94,41
499.47266,499.57837,75,94,41
499.58295,499.68866,69,93,41
499.58295,499.68866,75,93,41
499.69324,499.79895,69,92,41
499.69324,499.79895,75,92,41
499.80353,499.90924,69,91,41
499.80353,499.90924,75,91,41
499.91385,500.01953,69,90,41
499.91385,500.01953,75,90,41
500.02414,500.12982,69,88,41
500.02414,500.12982,75,88,41
500.13443,500.2401,69,86,41
500.13443,500.2401,75,86,41
500.24472,500.3504,69,84,41
500.24472,500.3504,75,84,41
500.355,500.46072,69,82,41
500.355,500.46072,75,82,41
500.4653,500.5756,70,80,41
500.4653,500.5756,74,80,41
500.9065,500.96164,72,100,41
501.01678,501.07193,72,100,41
501.12708,501.18222,72,94,41
501.23737,501.2925,72,87,41
501.34766,501.45795,74,80,41
501.78885,501.89914,69,80,41
501.78885,501.89914,77,80,41
502.00943,502.11972,69,80,41
502.00943,502.11972,77,80,41
502.23,502.3403,70,80,41
502.23,502.3403,74,80,41
502.67117,502.72632,72,100,41
502.7815,502.83664,72,100,41
502.89178,502.94693,72,94,41
503.00208,503.05722,72,87,41
503.11237,503.22266,74,80,41
503.55353,503.66382,69,80,41
503.55353,503.66382,77,80,41
503.77414,503.88443,69,80,41
503.77414,503.88443,77,80,41
503.99472,504.105,70,80,41
503.99472,504.105,74,80,41
504.43588,504.5416,65,100,41
504.54617,504.6519,65,100,41
504.65646,504.76218,65,99,41
504.76678,504.87247,65,98,41
504.87708,504.98276,65,96,41
504.98737,505.09305,65,94,41
505.09766,505.20334,65,92,41
505.20795,505.31366,65,90,41
505.31824,505.42395,65,88,41
505.42853,505.53424,65,86,41
505.53882,505.64453,65,84,41
505.6491,505.75482,65,82,41
505.75943,505.9754,70,80,41
506.64178,506.85776,65,100,41
506.64178,506.85776,72,100,41
507.08295,507.29895,65,100,41
507.08295,507.29895,72,100,41
507.5241,507.7401,62,80,41
507.5241,507.7401,70,80,41
508.40646,508.65128,58,100,41
508.40646,508.65128,62,100,41
509.40646,510.45648,58,80,41
509.40646,510.45648,62,80,41
43.011105,43.255898,65,80,45
43.511105,43.755898,62,80,45
43.761105,44.005898,65,80,45
44.011105,44.255898,58,80,45
44.511105,44.755898,65,80,45
45.011105,45.255898,65,80,45
45.511105,45.755898,60,80,45
45.761105,46.005898,62,80,45
46.011105,46.255898,58,80,45
46.511105,46.755898,65,80,45
47.011105,47.255898,65,80,45
47.511105,47.755898,65,80,45
47.761105,48.005898,65,80,45
48.011105,48.255898,60,80,45
48.511105,48.755898,62,80,45
49.011105,49.255898,64,80,45
49.511105,49.755898,67,80,45
49.761105,50.005898,65,80,45
50.011105,50.255898,65,80,45
50.511105,50.755898,65,80,45
51.011105,51.255898,65,82,45
51.511105,51.755898,65,84,45
51.761105,52.005898,67,85,45
52.011105,52.255898,67,86,45
52.511105,52.755898,67,88,45
53.011105,53.255898,67,90,45
53.511105,53.755898,67,92,45
53.761105,54.005898,70,93,45
54.011105,54.255898,70,94,45
54.511105,54.755898,70,96,45
55.011105,55.255898,70,98,45
55.511105,55.755898,70,100,45
140.02458,140.26936,65,100,45
140.52458,140.76936,65,100,45
141.02458,141.26936,62,96,45
141.27458,141.51936,65,94,45
141.52458,141.76936,58,92,45
142.02458,142.26936,65,88,45
142.52458,142.76936,65,84,45
143.02458,143.26936,60,80,45
143.27458,143.51936,62,80,45
143.52458,143.76936,58,80,45
144.02458,144.26936,65,80,45
144.52458,144.76936,65,80,45
145.02458,145.26936,65,80,45
145.27458,145.51936,65,80,45
145.52458,145.76936,60,80,45
146.02458,146.26936,62,80,45
146.52458,146.76936,64,80,45
147.02458,147.26936,67,80,45
147.27458,147.51936,65,80,45
147.52458,147.76936,65,80,45
148.02458,148.26936,65,80,45
148.52458,148.76936,65,80,45
149.02458,149.26936,70,80,45
149.27458,149.51936,65,80,45
149.52458,149.76936,62,80,45
150.02458,150.26936,62,80,45
150.52458,150.76936,67,80,45
151.02458,151.26936,62,80,45
151.27458,151.51936,63,80,45
151.52458,151.76936,63,80,45
152.02458,152.26936,70,80,45
152.27458,152.51936,70,82,45
152.52458,152.76936,58,84,45
153.02458,153.26936,70,88,45
153.27458,153.51936,70,91,45
153.52458,153.76936,58,94,45
154.02458,154.26936,70,100,45
154.27458,154.51936,70,100,45
154.52458,154.76936,58,80,45
155.0332,155.28644,65,60,45
155.29182,155.55887,62,60,45
174.08728,174.33206,65,80,45
174.58728,174.83206,65,80,45
175.08728,175.33206,65,80,45
175.33728,175.58206,67,81,45
175.58728,175.83206,67,82,45
176.08728,176.33206,67,84,45
176.58728,176.83206,67,86,45
177.08728,177.33206,67,88,45
177.33728,177.58206,70,89,45
177.58728,177.83206,70,90,45
178.08728,178.33206,70,92,45
178.58728,178.83206,70,96,45
179.08728,179.33206,70,100,45
179.33728,179.58206,61,100,45
179.33728,179.58206,70,100,45
179.58728,179.83206,61,100,45
179.58728,179.83206,70,100,45
180.08728,180.33206,61,100,45
180.08728,180.33206,70,100,45
180.58728,180.83206,61,100,45
180.58728,180.83206,70,100,45
181.08728,181.33206,63,80,45
181.08728,181.33206,72,80,45
181.33728,181.58206,62,60,45
181.33728,181.58206,65,60,45
418.54044,418.78525,53,100,45
418.54044,418.78525,60,100,45
418.79044,419.03525,53,100,45
418.79044,419.03525,65,100,45
419.04044,419.28525,53,98,45
419.04044,419.28525,65,98,45
419.54044,419.78525,53,94,45
419.54044,419.78525,65,94,45
420.04044,420.28525,53,90,45
420.04044,420.28525,65,90,45
420.54044,420.78525,53,86,45
420.54044,420.78525,62,86,45
421.04044,421.28525,53,80,45
421.04044,421.28525,60,80,45
421.54044,421.78525,53,80,45
421.54044,421.78525,60,80,45
422.04044,422.28525,53,80,45
422.04044,422.28525,60,80,45
422.54044,422.78525,53,80,45
422.54044,422.78525,62,80,45
423.04044,423.28525,53,80,45
423.04044,423.28525,65,80,45
423.54044,423.78525,53,80,45
423.54044,423.78525,65,80,45
424.04044,424.28525,53,80,45
424.04044,424.28525,59,80,45
424.54044,424.78525,53,80,45
424.54044,424.78525,60,80,45
425.04044,425.28525,53,80,45
425.04044,425.28525,62,80,45
425.54044,425.78525,55,80,45
425.54044,425.78525,60,80,45
426.04044,426.28525,55,80,45
426.04044,426.28525,60,80,45
426.29044,426.53525,53,80,45
426.29044,426.53525,60,80,45
456.32013,456.73682,58,60,45
456.82013,457.23682,58,60,45
457.32013,457.73682,60,60,45
458.32013,458.73682,58,60,45
458.82013,459.23682,58,60,45
459.32013,459.73682,60,60,45
460.32013,460.73682,58,60,45
460.82013,461.23682,58,60,45
461.32013,461.73682,60,60,45
462.32013,462.73682,63,60,45
463.32013,463.73682,57,60,45
1.75,2.0,53,40,41
2.0,2.25,62,40,41
2.25,2.5,53,40,41
2.5,2.75,63,40,41
2.75,2.9947917,53,40,41
3.0,3.25,62,40,41
3.25,3.5,53,40,41
3.5,3.75,58,40,41
3.75,3.9947917,53,40,41
4.0,4.25,57,40,41
4.25,4.5,53,40,41
4.5,4.75,57,40,41
4.75,4.9947915,53,40,41
5.0,5.25,51,40,41
5.25,5.5,53,40,41
5.5,5.75,50,40,41
5.75,5.9947915,53,40,41
6.0,6.25,57,40,41
6.25,6.5,53,40,41
6.5,6.75,59,40,41
6.75,6.9947915,53,40,41
7.0,7.25,62,40,41
7.25,7.5,53,45,41
7.5,7.75,60,50,41
7.75,7.9947915,53,55,41
8.0,8.25,63,60,41
8.25,8.5,62,65,41
8.5,8.75,64,70,41
8.75,8.994792,60,75,41
9.0,9.25,64,80,41
9.25,9.5,60,80,41
9.5,9.75,65,60,41
9.75,9.994792,60,60,41
10.0,10.25,65,40,41
10.25,10.5,53,40,41
10.5,10.75,65,40,41
10.75,11.0,53,40,41
11.0,11.25,65,40,41
11.25,11.5,53,40,41
11.5,11.75,58,40,41
11.75,11.994792,53,40,41
12.0,12.25,59,40,41
12.25,12.5,53,50,41
12.5,12.75,59,60,41
12.75,12.994792,55,70,41
13.0,13.25,53,80,41
13.25,13.5,55,80,41
13.5,13.75,51,60,41
13.75,13.994792,55,60,41
14.0,14.244792,58,40,41
14.25,14.5,58,40,41
14.5,14.75,60,43,41
14.75,15.0,58,46,41
15.0,15.25,63,49,41
15.25,15.5,58,52,41
15.5,15.75,62,56,41
15.75,15.994792,58,60,41
16.0,16.25,65,64,41
16.25,16.5,58,68,41
16.5,16.75,63,72,41
16.75,16.994791,55,76,41
17.0,17.258621,53,80,41
17.258621,17.51724,51,60,41
17.51724,17.784286,50,40,41
34.261105,34.636105,53,60,41
34.261105,34.636105,58,60,41
34.761105,35.011105,53,60,41
34.761105,35.011105,58,60,41
35.261105,36.136105,53,60,41
35.261105,36.136105,60,60,41
36.261105,36.636105,53,60,41
36.261105,36.636105,58,60,41
36.761105,37.011105,53,60,41
36.761105,37.011105,58,60,41
37.261105,38.136105,53,60,41
37.261105,38.136105,60,60,41
38.261105,38.636105,53,60,41
38.261105,38.636105,58,60,41
38.761105,39.011105,53,60,41
38.761105,39.011105,58,60,41
39.261105,40.136105,53,60,41
39.261105,40.136105,60,60,41
40.261105,40.636105,53,60,41
40.261105,40.636105,58,60,41
40.761105,41.011105,53,65,41
40.761105,41.011105,58,65,41
41.261105,41.927773,53,71,41
41.261105,41.927773,60,71,41
42.011105,42.261105,53,80,41
42.261105,42.511105,62,80,41
42.511105,42.761105,53,75,41
42.761105,43.011105,63,70,41
43.011105,43.255898,53,65,41
43.261105,43.511105,62,60,41
43.511105,43.761105,53,60,41
43.761105,44.011105,58,60,41
44.011105,44.255898,53,60,41
44.261105,44.511105,57,60,41
44.511105,44.761105,53,60,41
44.761105,45.011105,57,60,41
45.011105,45.255898,53,60,41
45.261105,45.511105,51,60,41
45.511105,45.761105,53,60,41
45.761105,46.011105,50,60,41
46.011105,46.255898,53,60,41
46.261105,46.511105,57,60,41
46.511105,46.761105,53,60,41
46.761105,47.011105,59,60,41
47.011105,47.255898,53,60,41
47.261105,47.511105,62,60,41
47.511105,47.761105,53,60,41
47.761105,48.011105,60,60,41
48.011105,48.255898,53,60,41
48.261105,48.511105,63,60,41
48.511105,48.761105,62,60,41
48.761105,49.011105,64,60,41
49.011105,49.255898,60,60,41
49.261105,49.511105,64,60,41
49.511105,49.761105,60,60,41
49.761105,50.011105,65,60,41
50.011105,50.255898,60,60,41
50.261105,50.511105,58,60,41
50.511105,50.761105,65,61,41
50.761105,51.011105,60,62,41
51.011105,51.261105,65,64,41
51.261105,51.511105,58,66,41
51.511105,51.755898,65,68,41
51.761105,52.011105,62,70,41
52.011105,52.261105,67,72,41
52.261105,52.511105,60,74,41
52.511105,52.761105,67,76,41
52.761105,53.011105,62,78,41
53.011105,53.261105,67,80,41
53.261105,53.511105,60,82,41
53.511105,53.755898,67,84,41
53.761105,54.011105,65,86,41
54.011105,54.261105,70,88,41
54.261105,54.511105,63,90,41
54.511105,54.761105,70,92,41
54.761105,55.011105,58,94,41
55.011105,55.261105,70,96,41
55.261105,55.505898,58,98,41
55.511105,56.005898,61,100,41
55.511105,56.005898,70,100,41
56.011105,56.514336,61,100,41
56.011105,56.514336,70,100,41
56.519726,57.04539,61,100,41
56.519726,57.04539,70,100,41
57.05107,57.31812,61,74,41
57.05107,57.31812,70,74,41
57.3238,57.6238,60,60,41
57.6238,57.923798,63,60,41
57.923798,58.21755,62,60,41
62.7738,63.01859,57,60,41
62.7738,63.01859,65,60,41
63.2738,63.51859,58,60,41
63.2738,63.51859,65,60,41
63.7738,64.01859,57,60,41
63.7738,64.01859,65,60,41
64.273796,64.51859,58,60,41
64.273796,64.51859,65,60,41
64.773796,65.01859,58,60,41
64.773796,65.01859,64,60,41
65.273796,65.51859,60,60,41
65.273796,65.51859,65,60,41
65.773796,66.01859,58,60,41
65.773796,66.01859,64,60,41
66.273796,66.51859,60,60,41
66.273796,66.51859,65,60,41
66.773796,67.01859,58,60,41
66.773796,67.01859,64,60,41
67.023796,67.273796,60,80,41
67.273796,67.523796,61,100,41
67.523796,68.76859,61,60,41
68.773796,69.023796,61,60,41
69.023796,69.273796,62,60,41
69.273796,69.523796,59,60,41
69.523796,69.76859,60,60,41
69.773796,70.26859,60,60,41
70.273796,70.76859,60,60,41
70.773796,71.023796,60,60,41
71.023796,71.273796,62,60,41
71.273796,71.523796,59,60,41
71.523796,71.76859,60,60,41
71.773796,72.26859,60,68,41
72.273796,72.76859,60,84,41
72.773796,73.023796,69,100,41
73.023796,73.26859,70,100,41
73.273796,73.398796,70,100,41
73.523796,74.76859,70,100,41
74.773796,75.023796,69,75,41
75.023796,75.273796,67,70,41
75.273796,75.51859,65,65,41
75.523796,75.773796,69,60,41
75.773796,76.023796,67,60,41
76.023796,76.273796,65,60,41
76.273796,76.51859,64,60,41
76.523796,76.773796,67,60,41
76.773796,77.023796,65,60,41
77.023796,77.273796,64,60,41
77.273796,77.51859,62,60,41
77.523796,77.773796,62,60,41
77.773796,78.26859,55,60,41
78.273796,78.523796,65,60,41
78.523796,78.773796,64,60,41
78.773796,79.023796,62,60,41
79.023796,79.273796,60,60,41
79.273796,79.523796,58,60,41
79.523796,79.76859,57,60,41
79.773796,80.023796,60,40,41
80.023796,80.273796,65,40,41
80.273796,80.523796,67,40,41
80.523796,80.773796,69,40,41
80.773796,81.023796,70,40,41
81.023796,81.273796,67,40,41
81.273796,81.523796,65,40,41
81.523796,81.76859,67,40,41
81.773796,82.023796,60,40,41
82.023796,82.273796,67,40,41
82.273796,82.523796,69,40,41
82.523796,82.773796,70,40,41
82.773796,83.023796,72,40,41
83.023796,83.273796,69,40,41
83.273796,83.523796,67,40,41
83.523796,83.76859,69,40,41
83.773796,84.023796,60,40,41
84.023796,84.273796,69,40,41
84.273796,84.523796,70,40,41
84.523796,84.773796,72,40,41
84.773796,85.023796,74,40,41
85.023796,85.273796,70,40,41
85.273796,85.51859,72,40,41
85.523796,85.773796,69,40,41
85.773796,86.023796,70,40,41
86.023796,86.273796,67,40,41
86.273796,86.51859,69,40,41
86.523796,86.773796,65,40,41
86.773796,87.023796,64,40,41
87.023796,87.273796,62,40,41
87.273796,87.523796,59,40,41
87.523796,87.773796,60,40,41
87.773796,88.023796,55,40,41
88.023796,88.273796,59,40,41
88.273796,88.523796,55,40,41
88.523796,88.773796,60,40,41
88.773796,89.01859,64,40,41
89.023796,89.273796,65,40,41
89.273796,89.523796,67,46,41
89.523796,89.773796,64,52,41
89.773796,90.023796,67,58,41
90.023796,90.273796,65,64,41
90.273796,90.523796,67,70,41
90.523796,90.76859,64,76,41
90.773796,91.023796,69,82,41
91.023796,91.26859,70,88,41
91.273796,91.398796,70,94,41
91.523796,92.76859,70,100,41
92.773796,93.023796,69,100,41
93.023796,93.273796,67,87,41
93.273796,93.523796,65,74,41
93.523796,93.76859,64,60,41
93.773796,94.023796,69,80,41
94.023796,94.26859,70,80,41
94.273796,94.398796,70,85,41
94.523796,95.023796,70,90,41
95.023796,95.76859,72,100,41
95.773796,96.023796,69,100,41
96.023796,96.273796,60,87,41
96.273796,96.523796,58,74,41
96.523796,96.76859,57,60,41
96.773796,97.023796,69,80,41
97.023796,97.26859,70,80,41
97.273796,97.398796,70,85,41
97.523796,98.023796,70,90,41
98.023796,98.523796,51,100,41
98.523796,99.023796,51,60,41
99.023796,99.523796,53,60,41
99.523796,100.023796,57,60,41
100.023796,100.523796,60,60,41
100.523796,100.94047,65,60,41
101.023796,101.94047,65,60,41
102.023796,102.44047,65,60,41
102.523796,102.94047,64,60,41
103.023796,103.76859,60,60,41
119.523796,120.023796,67,100,41
120.023796,120.523796,65,80,41
120.523796,120.94047,65,60,41
125.023796,125.523796,52,60,41
125.523796,126.023796,54,60,41
126.023796,126.523796,52,60,41
126.523796,127.023796,54,60,41
127.023796,127.44047,52,60,41
127.523796,128.04105,62,60,41
127.523796,128.04105,65,60,41
128.04105,128.55829,63,60,41
128.55829,129.10373,62,60,41
128.55829,129.10373,65,60,41
129.10373,129.55827,63,60,41
129.64919,130.14919,51,40,41
130.14919,130.64919,50,40,41
130.64919,131.14919,51,40,41
131.14919,131.56586,48,40,41
131.64919,132.64919,63,60,41
131.64919,132.64919,66,60,41
132.64919,133.52419,63,80,41
132.64919,133.52419,66,80,41
133.64919,134.14919,51,40,41
134.14919,134.64919,50,40,41
134.64919,135.14919,51,40,41
135.14919,135.56586,48,40,41
135.64919,137.52419,63,60,41
135.64919,137.52419,66,60,41
137.64919,138.55437,60,60,41
137.64919,138.55437,63,60,41
138.68367,139.41095,60,80,41
138.68367,139.41095,63,80,41
139.50185,139.77458,60,95,41
139.77458,140.02458,62,100,41
140.02458,140.27458,53,100,41
140.27458,140.52458,63,100,41
140.52458,140.77458,53,100,41
140.77458,141.02458,62,100,41
141.02458,141.27458,53,95,41
141.27458,141.52458,58,90,41
141.52458,141.76936,53,85,41
141.77458,142.02458,57,80,41
142.02458,142.27458,53,75,41
142.27458,142.52458,57,70,41
142.52458,142.77458,53,65,41
142.77458,143.02458,51,60,41
143.02458,143.27458,53,60,41
143.27458,143.52458,50,60,41
143.52458,143.76936,53,60,41
143.77458,144.02458,57,60,41
144.02458,144.27458,53,60,41
144.27458,144.52458,59,60,41
144.52458,144.77458,53,60,41
144.77458,145.02458,62,60,41
145.02458,145.27458,53,60,41
145.27458,145.52458,60,60,41
145.52458,145.76936,53,60,41
145.77458,146.02458,63,60,41
146.02458,146.27458,62,60,41
146.27458,146.52458,64,60,41
146.52458,146.76936,60,60,41
146.77458,147.02458,64,60,41
147.02458,147.27458,60,60,41
147.27458,147.52458,65,60,41
147.52458,147.76936,60,60,41
147.77458,148.02458,58,60,41
148.02458,148.27458,65,60,41
148.27458,148.52458,60,60,41
148.52458,148.77458,65,60,41
148.77458,149.02458,58,60,41
149.02458,149.27458,65,60,41
149.27458,149.52458,58,60,41
149.52458,149.76936,53,60,41
149.77458,150.02458,59,60,41
150.02458,150.27458,53,60,41
150.27458,150.52458,59,60,41
150.52458,150.76936,55,60,41
150.77458,151.02458,53,60,41
151.02458,151.27458,55,60,41
151.27458,151.52458,51,60,41
151.52458,151.77458,55,60,41
151.77458,152.01936,58,60,41
152.02458,152.27458,58,60,41
152.27458,152.52458,60,65,41
152.52458,152.77458,58,70,41
152.77458,153.02458,63,76,41
153.02458,153.27458,58,82,41
153.27458,153.52458,62,88,41
153.52458,153.76936,58,94,41
153.77458,154.02458,65,100,41
154.02458,154.27458,58,100,41
154.27458,154.52458,63,100,41
154.52458,154.76936,58,80,41
154.77458,155.0332,63,60,41
155.0332,155.29182,60,60,41
155.29182,155.55887,62,60,41
155.83728,156.21228,53,60,41
155.83728,156.21228,58,60,41
156.33728,156.58728,53,60,41
156.33728,156.58728,58,60,41
156.83728,157.71228,53,60,41
156.83728,157.71228,60,60,41
157.83728,158.21228,53,60,41
157.83728,158.21228,58,60,41
158.33728,158.58728,53,60,41
158.33728,158.58728,58,60,41
158.83728,159.71228,53,60,41
158.83728,159.71228,60,60,41
159.83728,160.21228,53,60,41
159.83728,160.21228,58,60,41
160.33728,160.58728,53,60,41
160.33728,160.58728,58,60,41
160.83728,161.71228,53,60,41
160.83728,161.71228,60,60,41
161.83728,162.21228,53,60,41
161.83728,162.21228,58,60,41
162.33728,162.58728,53,63,41
162.33728,162.58728,58,63,41
162.83728,163.71228,53,66,41
162.83728,163.71228,59,66,41
163.83728,164.21228,54,73,41
163.83728,164.21228,58,73,41
164.33728,164.58728,54,76,41
164.33728,164.58728,58,76,41
164.83728,165.71228,52,80,41
164.83728,165.71228,58,80,41
165.83728,166.25394,53,88,41
166.33728,167.25394,53,92,41
167.33728,168.25394,65,100,41
168.33728,169.71228,53,80,41
173.58728,173.83728,65,60,41
173.83728,174.00394,58,60,41
174.00394,174.1654,53,61,41
174.17061,174.33728,65,62,41
174.33728,174.50394,60,63,41
174.50394,174.6654,53,64,41
174.67061,174.83728,65,65,41
174.83728,175.00394,58,66,41
175.00394,175.1654,53,67,41
175.17061,175.33728,65,68,41
175.33728,175.50394,62,69,41
175.50394,175.6654,55,70,41
175.67061,175.83728,67,71,41
175.83728,176.00394,60,72,41
176.00394,176.1654,55,73,41
176.17061,176.33728,67,74,41
176.33728,176.50394,62,75,41
176.50394,176.6654,55,76,41
176.67061,176.83728,67,77,41
176.83728,177.00394,60,78,41
177.00394,177.1654,55,79,41
177.17061,177.33728,67,80,41
177.33728,177.50394,65,81,41
177.50394,177.6654,58,82,41
177.67061,177.83728,70,83,41
177.83728,178.00394,63,84,41
178.00394,178.1654,58,86,41
178.17061,178.33728,70,88,41
178.33728,178.50394,64,90,41
178.50394,178.6654,61,92,41
178.67061,178.83728,70,94,41
178.83728,179.00394,65,96,41
179.00394,179.1654,61,98,41
179.17061,179.33728,73,100,41
179.33728,179.50394,70,100,41
179.50394,179.6654,61,100,41
179.67061,179.83728,73,100,41
179.83728,180.00394,70,100,41
180.00394,180.1654,61,100,41
180.17061,180.33728,73,100,41
180.33728,180.50394,70,100,41
180.50394,180.6654,61,94,41
180.67061,180.83728,73,88,41
180.83728,181.00394,72,81,41
181.00394,181.17061,65,74,41
181.17061,181.33206,69,67,41
181.33728,181.58206,70,60,41
183.96228,184.08206,51,100,41
184.08728,184.20706,57,100,41
184.21228,184.33206,60,100,41
184.33728,184.45706,65,100,41
184.46228,184.58206,63,100,41
184.58728,184.70706,62,100,41
184.71228,184.83206,63,100,41
184.83728,184.95706,69,100,41
184.96228,185.08206,67,100,41
185.08728,185.20706,66,100,41
185.21228,185.33206,64,100,41
185.33728,185.58206,62,100,41
185.96228,186.08206,50,100,41
186.08728,186.20706,55,100,41
186.21228,186.33206,58,100,41
186.33728,186.45706,67,100,41
186.46228,186.58206,65,100,41
186.58728,186.70706,63,100,41
186.71228,186.83206,60,100,41
186.96228,187.08206,48,100,41
187.08728,187.20706,53,100,41
187.21228,187.33206,57,100,41
187.33728,187.45706,65,100,41
187.46228,187.58206,63,100,41
187.58728,187.70706,62,100,41
187.71228,187.83206,58,100,41
187.96228,188.08206,49,100,41
188.08728,188.20706,52,100,41
188.21228,188.33206,57,100,41
188.46228,188.58206,50,100,41
188.58728,188.70706,55,100,41
188.71228,188.83206,58,100,41
188.83728,189.25394,58,100,41
189.33728,189.75394,57,100,41
189.96228,190.08206,55,100,41
190.08728,190.20706,58,100,41
190.21228,190.33206,62,100,41
190.33728,190.45706,69,100,41
190.46228,190.58206,67,100,41
190.58728,190.70706,66,100,41
190.71228,190.83206,67,100,41
191.33728,191.58206,50,100,41
191.33728,191.83206,57,100,41
191.46228,191.83206,66,100,41
191.83728,192.25394,67,80,41
192.33728,192.75394,67,80,41
192.83728,193.25394,55,120,41
193.33728,193.75394,55,120,41
193.83728,194.25394,58,120,41
194.33728,194.75394,58,120,41
194.83728,195.58728,60,120,41
195.58728,195.83206,58,80,41
195.83728,196.08728,56,80,41
196.08728,196.33728,55,80,41
196.33728,196.58728,53,80,41
196.58728,196.83206,55,80,41
196.83728,197.08728,58,80,41
197.08728,197.33728,56,80,41
197.33728,197.58728,55,80,41
197.58728,197.83206,56,80,41
197.83728,198.08728,67,80,41
198.33728,198.58728,67,80,41
198.83728,199.58728,68,120,41
199.58728,199.83206,67,80,41
199.83728,200.08728,65,80,41
200.08728,200.33728,63,80,41
200.33728,200.58728,62,80,41
200.58728,200.83206,63,80,41
200.83728,201.08728,67,80,41
201.08728,201.33728,65,80,41
201.33728,201.58728,63,80,41
201.58728,201.83206,65,80,41
201.83728,202.08728,58,80,41
202.33728,202.58728,58,80,41
202.83728,203.58728,60,120,41
203.58728,203.83206,58,80,41
203.83728,204.08728,56,80,41
204.08728,204.33728,55,80,41
204.33728,204.58728,53,80,41
204.58728,204.83206,55,80,41
204.83728,205.08728,58,80,41
205.08728,205.33728,56,80,41
205.33728,205.58728,55,80,41
205.58728,205.83206,56,80,41
205.83728,206.08728,67,80,41
206.33728,206.58728,67,80,41
206.83728,207.58728,68,120,41
207.58728,207.71228,67,80,41
207.83728,208.08728,67,80,41
208.08728,208.33728,70,80,41
208.33728,208.58728,68,80,41
208.58728,208.83206,67,80,41
208.83728,209.08728,65,80,41
209.08728,209.33206,58,80,41
209.33728,209.58728,65,80,41
209.58728,209.83206,63,80,41
209.83728,210.08728,62,80,41
210.33728,210.58728,62,80,41
210.83728,211.71228,63,120,41
211.83728,212.08728,60,80,41
212.33728,212.58728,60,80,41
212.83728,213.71228,62,120,41
213.83728,213.96228,58,80,41
214.08728,214.21228,58,80,41
214.33728,214.75394,60,120,41
214.83728,214.96228,57,80,41
215.08728,215.21228,57,80,41
215.33728,215.75394,58,120,41
215.83728,215.96228,55,80,41
216.08728,216.21228,57,80,41
216.33728,216.46228,54,80,41
216.58728,216.71228,55,80,41
216.83728,217.25394,57,120,41
217.33728,217.75394,57,120,41
219.96228,220.08206,56,80,41
220.08728,220.20706,62,80,41
220.21228,220.33206,65,80,41
220.33728,220.45706,70,80,41
220.46228,220.58206,68,80,41
220.58728,220.70706,67,80,41
220.71228,220.83206,68,80,41
220.83728,220.95706,74,80,41
220.96228,221.08206,72,80,41
221.08728,221.20706,71,80,41
221.21228,221.33206,69,80,41
221.33728,221.58206,67,80,41
221.96228,222.08206,55,80,41
222.08728,222.20706,60,80,41
222.21228,222.33206,63,80,41
222.33728,222.45706,72,80,41
222.46228,222.58206,70,80,41
222.58728,222.70706,68,80,41
222.71228,222.83206,65,80,41
222.96228,223.08206,53,80,41
223.08728,223.20706,58,80,41
223.21228,223.33206,62,80,41
223.33728,223.45706,70,80,41
223.46228,223.58206,68,80,41
223.58728,223.70706,67,80,41
223.71228,223.83206,63,80,41
223.96228,224.02478,56,80,41
224.08728,224.21228,68,80,41
224.21228,224.33206,65,80,41
224.46228,224.52478,55,80,41
224.58728,224.71228,67,80,41
224.71228,224.83206,63,80,41
224.96228,225.02478,58,80,41
225.08728,225.21228,70,80,41
225.21228,225.33206,67,80,41
225.46228,225.52478,56,80,41
225.58728,225.71228,68,80,41
225.71228,225.83206,65,80,41
225.96228,226.02478,60,80,41
226.08728,226.21228,72,81,41
226.21228,226.33206,68,82,41
226.46228,226.52478,62,84,41
226.58728,226.71228,74,85,41
226.71228,226.83206,70,86,41
226.96228,227.02478,63,88,41
227.08728,227.21228,75,89,41
227.21228,227.33206,72,90,41
227.46228,227.52478,65,92,41
227.58728,227.71228,77,94,41
227.71228,227.83206,74,96,41
227.96228,228.02478,67,100,41
228.08728,228.21228,79,100,41
228.21228,228.33206,75,100,41
228.46228,228.52478,67,100,41
228.58728,228.71228,79,100,41
228.71228,228.83206,75,100,41
228.96228,229.02478,68,100,41
229.08728,229.21228,80,100,41
229.21228,229.33206,75,100,41
229.46228,229.52478,68,100,41
229.58728,229.71228,80,100,41
229.71228,229.83206,75,100,41
229.96228,230.02478,68,100,41
230.08728,230.21228,80,100,41
230.21228,230.33206,76,100,41
230.46228,230.52478,68,100,41
230.58728,230.71228,80,100,41
230.71228,230.83206,76,100,41
230.96228,231.02478,68,100,41
231.08728,231.21228,80,98,41
231.21228,231.33206,77,95,41
231.46228,231.52478,68,89,41
231.58728,231.71228,80,86,41
231.71228,231.83206,77,83,41
231.83728,231.95706,77,120,41
231.96228,232.08206,77,80,41
232.08728,232.20706,75,80,41
232.21228,232.33206,75,80,41
232.33728,232.45706,71,120,41
232.46228,232.58206,71,80,41
232.58728,232.70706,70,80,41
232.71228,232.83206,70,80,41
232.83728,232.95706,65,120,41
232.96228,233.08206,65,79,41
233.08728,233.20706,67,78,41
233.21228,233.33206,67,77,41
233.33728,233.45706,65,108,41
233.46228,233.58206,65,75,41
233.58728,233.70706,67,74,41
233.71228,233.83206,67,73,41
233.83728,233.9612,59,104,41
233.96658,234.0905,59,71,41
234.0959,234.21982,58,70,41
234.2252,234.34912,58,69,41
234.87175,235.00244,59,92,41
235.00812,235.1388,59,60,41
235.14449,235.27516,58,60,41
235.28085,235.41153,58,60,41
247.355,247.73,61,60,41
247.355,247.73,65,60,41
247.855,248.105,61,60,41
247.855,248.105,65,60,41
249.355,249.73,63,60,41
249.355,249.73,66,60,41
249.855,250.105,63,60,41
249.855,250.105,66,60,41
251.355,251.73,65,60,41
251.355,251.73,68,60,41
251.855,252.105,65,60,41
251.855,252.105,68,60,41
253.355,253.73,66,60,41
253.355,253.73,69,60,41
253.855,254.105,66,60,41
253.855,254.105,69,60,41
254.355,254.77167,73,64,41
254.855,255.27167,73,64,41
255.355,255.77167,57,64,41
255.355,255.77167,69,64,41
255.855,256.27167,57,64,41
255.855,256.27167,69,64,41
256.355,256.77167,74,64,41
256.855,257.27167,74,64,41
257.355,257.77167,57,64,41
257.355,257.77167,69,64,41
257.855,258.27167,57,64,41
257.855,258.27167,69,64,41
258.355,258.77167,75,64,41
258.855,259.27167,75,69,41
259.355,259.77167,57,74,41
259.355,259.77167,69,74,41
259.855,260.27167,57,80,41
259.855,260.27167,69,80,41
260.355,260.77167,67,94,41
260.355,260.77167,71,94,41
260.855,261.27167,67,100,41
260.855,261.27167,71,100,41
261.355,261.77167,55,106,41
261.355,261.77167,67,106,41
261.855,262.27167,55,120,41
261.855,262.27167,67,120,41
262.355,262.77167,62,100,41
262.355,262.77167,68,100,41
262.98,263.105,53,80,41
263.105,263.23,56,80,41
263.23,263.355,62,80,41
263.355,263.48,67,80,41
263.48,263.605,65,80,41
263.605,263.73,64,80,41
263.73,263.8498,65,80,41
263.98,264.105,53,60,41
264.105,264.23,56,60,41
264.23,264.355,62,60,41
264.355,264.48,67,60,41
264.48,264.605,65,60,41
264.605,264.73,64,60,41
264.73,264.8498,65,60,41
264.98,265.105,53,60,41
265.105,265.23,56,63,41
265.23,265.3498,62,66,41
265.355,265.48,67,69,41
265.48,265.605,65,72,41
265.605,265.73,64,76,41
265.73,265.855,65,80,41
265.855,265.98,67,84,41
265.98,266.105,65,88,41
266.105,266.23,64,92,41
266.23,266.3498,65,96,41
266.355,266.855,62,100,41
266.355,266.855,65,100,41
266.855,267.18314,62,80,41
266.855,267.18314,65,80,41
267.18832,267.3498,56,80,41
267.355,267.52167,62,80,41
267.52167,267.68832,65,83,41
267.68832,267.8498,68,86,41
267.855,268.02167,72,89,41
268.02167,268.18832,69,92,41
268.18832,268.3498,70,96,41
268.355,268.52167,72,100,41
268.52167,268.68832,69,100,41
268.68832,268.8498,70,100,41
269.02167,269.18832,58,100,41
269.18832,269.3498,70,100,41
269.355,269.52167,72,100,41
269.52167,269.68832,69,94,41
269.68832,269.8498,70,88,41
270.02167,270.18832,58,74,41
270.18832,270.3498,70,67,41
270.355,270.52167,72,60,41
270.52167,270.68832,69,60,41
270.68832,270.8498,70,60,41
271.02167,271.18832,58,60,41
271.18832,271.3498,70,60,41
271.355,271.5245,72,60,41
271.5245,271.69397,69,60,41
271.69397,271.8582,70,60,41
272.03296,272.20245,58,60,41
272.20245,272.36664,70,60,41
272.54144,272.71094,68,60,41
272.71094,272.87512,69,60,41
273.04993,273.2194,57,60,41
273.2194,273.3836,69,60,41
273.5613,273.73373,66,60,41
273.73373,273.90076,67,60,41
274.07855,274.25098,55,60,41
274.25098,274.418,67,60,41
274.5958,274.76822,64,60,41
274.76822,274.93524,65,60,41
275.11304,275.28546,53,60,41
275.28546,275.45248,65,60,41
275.6333,275.80875,62,60,41
275.80875,275.9787,63,60,41
276.1596,276.33505,53,60,41
276.33505,276.505,63,60,41
276.6859,276.86136,61,58,41
276.86136,277.0313,62,57,41
277.21225,277.3877,59,55,41
277.3877,277.55765,60,54,41
277.7417,277.92026,57,52,41
277.92026,278.09326,58,51,41
278.2774,278.45596,56,49,41
278.45596,278.62897,57,48,41
278.8131,278.9917,54,46,41
278.9917,279.16467,55,45,41
279.34885,279.5274,52,43,41
279.5274,279.7004,53,42,41
279.8878,280.0696,50,40,41
280.0696,280.24576,51,40,41
280.43326,280.61505,48,40,41
280.61505,280.7912,53,40,41
296.79688,297.17188,53,60,41
296.79688,297.17188,58,60,41
297.29688,297.54688,53,60,41
297.29688,297.54688,58,60,41
297.79688,298.67188,53,60,41
297.79688,298.67188,60,60,41
298.79688,299.17188,53,60,41
298.79688,299.17188,58,60,41
299.29688,299.54688,53,60,41
299.29688,299.54688,58,60,41
299.79688,300.67188,53,60,41
299.79688,300.67188,60,60,41
300.79688,301.17188,53,60,41
300.79688,301.17188,58,60,41
301.29688,301.54688,53,60,41
301.29688,301.54688,58,60,41
301.79688,302.67188,53,60,41
301.79688,302.67188,60,60,41
302.79688,303.17188,53,60,41
302.79688,303.17188,58,60,41
303.29688,303.54688,53,60,41
303.29688,303.54688,58,60,41
303.79688,304.67188,53,60,41
303.79688,304.67188,59,60,41
304.79688,305.17188,54,60,41
304.79688,305.17188,58,60,41
305.29688,305.54688,54,70,41
305.29688,305.54688,58,70,41
305.79688,306.67188,52,80,41
305.79688,306.67188,61,80,41
306.79688,307.29688,51,80,41
307.29688,308.29688,54,80,41
308.29688,308.79688,59,80,41
308.79688,309.21356,58,60,41
312.79688,313.67188,61,60,41
312.79688,313.67188,64,60,41
315.79688,316.67188,66,60,41
315.79688,316.67188,69,60,41
316.79688,317.0417,63,60,41
317.04688,317.5417,63,60,41
317.54688,317.7917,63,60,41
317.79688,318.0417,63,60,41
318.04688,318.5417,63,65,41
318.54688,318.7917,63,75,41
318.79688,319.0417,58,80,41
318.79688,319.0417,65,80,41
319.04688,319.5417,58,85,41
319.04688,319.5417,65,85,41
319.54688,319.7917,58,95,41
319.54688,319.7917,65,95,41
319.79688,320.0417,58,100,41
319.79688,320.0417,63,100,41
320.04688,320.5417,58,100,41
320.04688,320.5417,63,100,41
320.54688,320.7917,58,80,41
320.54688,320.7917,63,80,41
321.04688,321.2917,57,60,41
321.54688,321.7917,58,80,41
321.79688,322.0417,58,100,41
321.79688,322.0417,63,100,41
322.04688,322.5417,58,80,41
322.04688,322.5417,63,80,41
322.54688,322.7917,58,60,41
322.54688,322.7917,63,60,41
323.04688,323.2917,57,60,41
323.54688,323.7917,58,60,41
324.04688,324.2917,58,60,41
324.54688,324.7917,58,60,41
325.04688,325.2917,57,60,41
325.54688,325.7917,53,60,41
326.04688,326.29688,53,40,41
326.29688,326.54688,58,40,41
326.54688,326.79688,60,40,41
326.79688,327.04688,62,40,41
327.04688,327.29688,63,40,41
327.29688,327.54688,60,40,41
327.54688,327.79688,58,40,41
327.79688,328.0417,60,40,41
328.04688,328.29688,53,40,41
328.29688,328.54688,60,40,41
328.54688,328.79688,62,40,41
328.79688,329.04688,63,40,41
329.04688,329.29688,65,40,41
329.29688,329.54688,62,40,41
329.54688,329.79688,60,40,41
329.79688,330.0417,62,40,41
330.04688,330.29688,53,40,41
330.29688,330.54688,62,40,41
330.54688,330.79688,63,40,41
330.79688,331.04688,65,40,41
331.04688,331.29688,67,40,41
331.29688,331.54688,63,40,41
331.54688,331.7917,65,40,41
331.79688,332.04688,62,40,41
332.04688,332.29688,63,45,41
332.29688,332.54688,60,50,41
332.54688,332.7917,62,55,41
332.79688,333.04688,58,60,41
333.04688,333.29688,57,60,41
333.29688,333.54688,55,60,41
333.54688,333.7917,52,60,41
333.79688,334.04688,53,60,41
334.04688,334.29688,48,60,41
334.29688,334.54688,52,60,41
334.54688,334.79688,48,60,41
334.79688,335.04688,53,60,41
335.04688,335.2917,57,60,41
335.29688,335.54688,58,60,41
335.54688,335.79688,60,64,41
335.79688,336.04688,57,68,41
336.04688,336.29688,60,72,41
336.29688,336.54688,58,76,41
336.54688,336.79688,60,80,41
336.79688,337.0417,57,84,41
337.04688,337.29688,62,88,41
337.29688,337.5417,63,92,41
337.54688,337.67188,63,96,41
337.79688,339.0417,63,100,41
339.04688,339.29688,62,100,41
339.29688,339.54688,60,87,41
339.54688,339.79688,58,74,41
339.79688,340.0417,57,60,41
340.04688,340.29688,62,60,41
340.29688,340.5417,63,68,41
340.54688,340.67188,63,76,41
340.79688,341.29688,63,84,41
341.29688,342.0417,65,100,41
342.04688,342.29688,62,100,41
342.29688,342.54688,53,87,41
342.54688,342.79688,51,74,41
342.79688,343.0417,50,60,41
343.04688,343.29688,62,60,41
343.29688,343.5417,63,68,41
343.54688,343.67188,63,76,41
343.79688,344.29688,63,84,41
344.29688,344.79688,56,100,41
344.79688,345.29688,57,60,41
345.29688,345.79688,58,60,41
345.79688,346.29688,62,60,41
346.29688,346.79688,65,60,41
346.79688,347.21356,70,60,41
347.29688,348.21356,70,60,41
348.29688,348.79688,70,60,41
348.79688,349.29688,69,60,41
349.29688,349.71356,65,60,41
365.79688,366.29688,68,60,41
366.29688,366.79688,70,92,41
366.79688,367.21356,70,60,41
371.29688,371.79688,57,60,41
371.79688,372.29688,59,60,41
372.29688,372.79688,57,60,41
372.79688,373.30536,59,60,41
373.30536,373.7291,57,60,41
373.81384,374.3311,67,60,41
373.81384,374.3311,70,60,41
374.3311,374.84833,68,60,41
374.84833,375.37463,67,60,41
374.84833,375.37463,70,60,41
375.37463,375.81323,68,60,41
375.90094,376.40094,56,40,41
376.40094,376.90094,55,40,41
376.90094,377.40094,56,40,41
377.40094,377.8176,53,40,41
377.90094,378.14572,59,60,41
377.90094,378.14572,68,60,41
378.15094,378.64572,59,80,41
378.15094,378.64572,68,80,41
378.65094,379.14572,59,100,41
378.65094,379.14572,68,100,41
379.15094,379.64572,59,80,41
379.15094,379.64572,68,80,41
379.65094,379.89572,59,60,41
379.65094,379.89572,68,60,41
379.90094,380.40094,56,40,41
380.40094,380.90094,55,40,41
380.90094,381.40094,56,40,41
381.40094,381.8176,53,40,41
381.90094,382.14572,59,60,41
381.90094,382.14572,68,60,41
382.15094,382.64572,59,80,41
382.15094,382.64572,68,80,41
382.65094,383.14572,59,100,41
382.65094,383.14572,68,100,41
383.15094,383.64572,59,80,41
383.15094,383.64572,68,80,41
383.65094,384.14572,59,60,41
383.65094,384.14572,68,60,41
384.15094,384.64572,59,60,41
384.15094,384.64572,68,60,41
384.65094,384.89572,59,60,41
384.65094,384.89572,68,60,41
385.15094,385.64572,58,60,41
385.15094,385.64572,68,60,41
385.65094,385.77594,58,60,41
385.65094,385.77594,68,60,41
386.15518,386.65836,58,60,41
386.15518,386.65836,67,60,41
386.66367,386.79077,58,60,41
386.66367,386.79077,67,60,41
387.17212,387.6753,58,60,41
387.17212,387.6753,67,60,41
387.6806,387.8077,58,60,41
387.6806,387.8077,67,60,41
388.19345,388.70532,58,60,41
388.19345,388.70532,65,60,41
388.7107,388.84003,58,58,41
388.7107,388.84003,65,58,41
389.22794,389.7398,58,56,41
389.22794,389.7398,64,56,41
389.74518,389.87448,58,54,41
389.74518,389.87448,64,54,41
390.26697,390.78778,58,52,41
390.26697,390.78778,64,52,41
390.79327,390.92487,58,50,41
390.79327,390.92487,64,50,41
391.31958,391.84042,57,46,41
391.31958,391.84042,63,46,41
391.84592,391.97748,57,42,41
391.84592,391.97748,63,42,41
392.10907,392.5401,58,40,41
392.10907,392.5401,62,40,41
393.14355,393.6608,62,64,41
393.6608,393.91403,58,40,41
395.21252,395.72974,51,64,41
395.72974,395.98297,50,40,41
397.28146,397.7987,56,40,41
397.7987,398.05194,57,40,41
399.35043,399.86768,52,40,41
399.35043,399.86768,60,40,41
399.86768,400.1209,53,40,41
399.86768,400.1209,60,40,41
400.38492,400.90216,58,40,41
400.90216,401.1554,65,40,41
401.4194,401.93665,53,40,41
401.4194,401.93665,58,40,41
401.93665,402.18988,53,40,41
401.93665,402.18988,58,40,41
403.48837,404.0056,53,40,41
404.0056,404.25885,51,40,41
405.57547,406.1018,63,40,41
406.1018,406.35947,62,40,41
407.69952,408.245,51,40,41
408.245,408.51202,50,40,41
418.54044,418.78525,63,100,41
418.79044,419.04044,62,100,41
419.04044,419.29044,53,98,41
419.29044,419.54044,63,96,41
419.54044,419.78525,53,94,41
419.79044,420.04044,62,92,41
420.04044,420.29044,53,89,41
420.29044,420.54044,58,86,41
420.54044,420.78525,53,83,41
420.79044,421.04044,57,80,41
421.04044,421.29044,53,80,41
421.29044,421.54044,57,80,41
421.54044,421.78525,53,80,41
421.79044,422.04044,51,80,41
422.04044,422.29044,53,80,41
422.29044,422.54044,50,80,41
422.54044,422.78525,53,80,41
422.79044,423.04044,57,80,41
423.04044,423.29044,53,80,41
423.29044,423.54044,59,80,41
423.54044,423.78525,53,80,41
423.79044,424.04044,62,80,41
424.04044,424.29044,53,80,41
424.29044,424.54044,60,80,41
424.54044,424.78525,53,80,41
424.79044,425.04044,63,80,41
425.04044,425.29044,62,80,41
425.29044,425.54044,64,80,41
425.54044,425.78525,60,80,41
425.79044,426.04044,64,80,41
426.04044,426.29044,60,80,41
426.29044,426.54044,65,80,41
426.54044,426.78525,60,80,41
426.79044,427.04044,58,80,41
427.04044,427.29044,65,80,41
427.29044,427.54044,60,80,41
427.54044,427.79044,65,80,41
427.79044,428.04044,58,80,41
428.04044,428.28525,65,80,41
428.29044,428.54044,62,80,41
428.54044,428.79044,67,81,41
428.79044,429.04044,60,82,41
429.04044,429.29044,67,83,41
429.29044,429.54044,62,84,41
429.54044,429.79044,67,85,41
429.79044,430.04044,60,86,41
430.04044,430.28525,67,87,41
430.29044,430.54044,65,88,41
430.54044,430.79044,70,89,41
430.79044,431.04044,63,90,41
431.04044,431.28525,70,91,41
431.29044,431.54044,67,92,41
431.54044,431.79044,72,93,41
431.79044,432.04044,65,94,41
432.04044,432.28525,72,95,41
432.29044,432.54044,69,96,41
432.54044,432.79044,74,97,41
432.79044,433.04044,67,98,41
433.04044,433.28525,74,99,41
433.29044,433.54044,67,100,41
433.54044,433.79044,70,100,41
433.79044,434.04044,63,100,41
434.04044,434.28525,70,100,41
434.29044,434.54044,67,100,41
434.54044,434.79044,70,100,41
434.79044,435.04044,67,100,41
435.04044,435.28525,70,100,41
435.29044,435.54044,58,100,41
435.54044,435.79044,67,100,41
435.79044,436.04468,60,100,41
436.04468,436.29892,68,100,41
436.29892,436.55316,58,100,41
436.55316,436.8021,67,100,41
436.8074,437.0616,58,100,41
437.0616,437.31586,65,100,41
437.31586,437.5701,58,100,41
437.5701,437.81903,64,100,41
437.82434,438.08295,58,100,41
438.08295,438.34158,65,100,41
438.34158,438.6002,62,100,41
438.6002,438.85342,58,100,41
438.85883,439.12198,63,100,41
439.12198,439.38513,60,100,41
439.38513,439.6483,58,100,41
439.6483,439.90598,62,100,41
439.91144,440.17932,63,100,41
440.17932,440.4416,67,100,41
440.44717,440.71503,63,100,41
440.71503,440.98288,67,100,41
440.98288,441.25073,63,100,41
441.25073,441.513,67,100,41
441.5186,441.78644,58,100,41
441.78644,442.05432,67,100,41
442.05432,442.32217,63,100,41
442.32217,442.58444,67,100,41
442.59003,442.85788,58,100,41
442.85788,443.12573,67,100,41
443.12573,443.30432,63,100,41
443.30432,443.48288,68,100,41
443.48288,443.66144,63,100,41
443.66144,443.84003,67,100,41
443.84003,444.0186,63,100,41
444.0186,444.1916,67,100,41
444.19717,444.37573,63,100,41
444.37573,444.55432,60,100,41
444.55432,444.73288,63,100,41
444.73288,444.91144,58,100,41
444.91144,445.09003,63,100,41
445.09003,445.263,58,100,41
445.2686,445.44717,61,100,41
445.44717,445.62573,58,100,41
445.62573,445.8043,61,100,41
445.8043,445.98288,58,100,41
445.98288,446.16144,61,100,41
446.16144,446.34003,58,100,41
446.34003,446.5186,61,100,41
446.5186,446.69717,58,100,41
446.69717,446.87573,61,100,41
446.87573,447.0543,58,100,41
447.0543,447.23288,61,100,41
447.23288,447.40585,58,100,41
447.41144,447.59003,62,100,41
447.59003,447.7686,65,100,41
447.7686,447.94717,62,100,41
447.94717,448.12573,65,100,41
448.12573,448.3043,62,100,41
448.3043,448.4773,65,100,41
448.48288,448.66144,63,100,41
448.66144,448.84003,65,100,41
448.84003,449.0186,63,100,41
449.0186,449.19717,65,100,41
449.19717,449.37573,62,100,41
449.37573,449.54874,65,100,41
449.5543,449.73288,63,100,41
449.73288,449.91144,65,100,41
449.91144,450.09003,63,100,41
450.09003,450.2686,65,100,41
450.2686,450.44717,63,100,41
450.44717,450.62015,65,100,41
450.62573,450.8043,62,100,41
450.8043,450.98288,65,100,41
450.98288,451.16144,62,100,41
451.16144,451.34003,65,100,41
451.34003,451.5186,62,100,41
451.5186,451.6916,65,100,41
451.69717,451.87897,63,100,41
451.87897,452.0608,65,100,41
452.0608,452.2426,63,100,41
452.2426,452.42444,65,100,41
452.42444,452.60626,63,100,41
452.60626,452.78238,65,100,41
452.78806,452.97675,63,80,41
452.97675,453.16544,65,80,41
453.16544,453.3541,63,80,41
453.3541,453.5428,65,80,41
453.5428,453.73148,63,80,41
453.73148,453.91425,65,80,41
453.92014,454.22015,63,80,41
454.22015,454.52014,65,72,41
454.52014,454.82013,63,64,41
454.82013,455.12015,65,56,41
455.12015,455.42014,63,48,41
455.42014,455.7139,65,40,41
492.08295,492.19327,59,60,41
492.30356,492.41385,59,60,41
492.52414,492.63443,60,60,41
492.9653,493.07562,63,62,41
493.1859,493.2962,63,63,41
493.4065,493.51678,65,64,41
493.84766,493.95795,61,66,41
494.06827,494.17856,61,67,41
494.28885,494.39914,62,68,41
494.73,494.8403,65,70,41
494.9506,495.0609,65,71,41
495.1712,495.2815,67,72,41
495.61237,495.72266,62,74,41
495.83295,495.94324,62,75,41
496.05356,496.16385,63,76,41
496.49472,496.605,67,80,41
496.7153,496.8256,67,82,41
496.9359,497.0462,69,84,41
497.37708,497.48276,65,88,41
497.48737,497.59308,53,89,41
497.59766,497.70337,65,90,41
497.70795,497.81366,53,91,41
497.81824,497.92395,65,92,41
497.92856,498.03424,53,93,41
498.03885,498.14453,65,94,41
498.14914,498.25482,53,95,41
498.25943,498.3651,65,96,41
498.36972,498.47543,53,97,41
498.48,498.58572,65,98,41
498.5903,498.696,53,99,41
498.7006,498.8063,53,100,41
498.7006,498.8063,65,100,41
498.81088,498.9166,53,100,41
498.81088,498.9166,65,100,41
498.9212,499.0269,53,99,41
498.9212,499.0269,65,99,41
499.0315,499.13718,53,98,41
499.0315,499.13718,65,98,41
499.14178,499.24747,53,97,41
499.14178,499.24747,65,97,41
499.25208,499.35776,53,96,41
499.25208,499.35776,65,96,41
499.36237,499.46808,53,95,41
499.36237,499.46808,65,95,41
499.47266,499.57837,53,94,41
499.47266,499.57837,65,94,41
499.58295,499.68866,53,93,41
499.58295,499.68866,65,93,41
499.69324,499.79895,53,92,41
499.69324,499.79895,65,92,41
499.80353,499.90924,53,91,41
499.80353,499.90924,65,91,41
499.91385,500.01953,53,90,41
499.91385,500.01953,65,90,41
500.02414,500.12982,53,88,41
500.02414,500.12982,65,88,41
500.13443,500.2401,53,86,41
500.13443,500.2401,65,86,41
500.24472,500.3504,53,84,41
500.24472,500.3504,65,84,41
500.355,500.46072,53,82,41
500.355,500.46072,65,82,41
500.4653,500.5756,53,80,41
500.4653,500.5756,65,80,41
500.9065,500.96164,65,100,41
501.01678,501.07193,65,100,41
501.12708,501.18222,65,94,41
501.23737,501.2925,65,87,41
501.34766,501.56366,70,80,41
501.78885,501.89914,53,80,41
501.78885,501.89914,60,80,41
502.00943,502.11972,53,80,41
502.00943,502.11972,60,80,41
502.23,502.3403,53,80,41
502.23,502.3403,62,80,41
502.67117,502.72632,65,100,41
502.7815,502.83664,65,100,41
502.89178,502.94693,65,94,41
503.00208,503.05722,65,87,41
503.11237,503.32837,70,80,41
503.55353,503.66382,53,80,41
503.55353,503.66382,60,80,41
503.77414,503.88443,53,80,41
503.77414,503.88443,60,80,41
503.99472,504.105,53,80,41
503.99472,504.105,62,80,41
504.87708,505.09305,57,100,41
504.87708,505.09305,65,100,41
505.31824,505.53424,57,100,41
505.31824,505.53424,65,100,41
505.75943,505.9754,58,80,41
505.75943,505.9754,65,80,41
506.2006,506.3063,65,100,41
506.31088,506.4166,65,100,41
506.42117,506.5269,65,100,41
506.53146,506.63718,65,100,41
506.64178,506.74747,65,100,41
506.75208,506.85776,65,98,41
506.86237,506.96805,65,96,41
506.97266,507.07834,65,94,41
507.08295,507.18866,65,92,41
507.19324,507.29895,65,89,41
507.30353,507.40924,65,86,41
507.41382,507.51953,65,83,41
507.5241,507.7401,58,80,41
508.40646,508.65128,53,100,41
508.40646,508.65128,62,100,41
509.40646,510.45648,53,80,41
509.40646,510.45648,62,80,41
58.7738,59.01859,60,60,45
58.7738,59.01859,65,60,45
59.2738,59.51859,62,60,45
59.2738,59.51859,65,60,45
59.7738,60.01859,60,60,45
59.7738,60.01859,65,60,45
60.2738,60.51859,62,60,45
60.2738,60.51859,65,60,45
60.7738,61.01859,60,60,45
60.7738,61.01859,63,60,45
61.2738,61.51859,57,70,45
61.2738,61.51859,62,70,45
61.7738,62.01859,58,80,45
61.7738,62.01859,62,80,45
62.2738,62.51859,55,80,45
62.2738,62.51859,63,80,45
456.32013,456.73682,53,60,45
456.82013,457.23682,53,60,45
457.32013,457.73682,56,60,45
458.32013,458.73682,55,60,45
458.82013,459.23682,55,60,45
459.32013,459.73682,55,60,45
460.32013,460.73682,55,60,45
460.82013,461.23682,55,60,45
461.32013,461.73682,57,60,45
462.32013,462.73682,57,60,45
463.32013,463.73682,54,60,45
464.32013,464.73682,53,60,45
465.57013,465.81494,56,60,45
465.82013,466.06494,62,60,45
466.07013,466.31494,65,60,45
466.32013,466.56494,68,60,45
467.07013,467.31494,66,60,45
467.57013,467.81494,58,60,45
467.82013,468.06494,63,60,45
468.07013,468.31494,66,60,45
468.32013,468.56494,70,60,45
469.07013,469.31494,70,60,45
469.57013,469.81494,63,60,45
469.82013,470.06494,66,73,45
470.07013,470.31494,69,86,45
470.32013,470.56494,66,100,45
471.07013,471.31494,66,100,45
471.32013,471.56494,69,100,45
472.07013,472.31494,66,85,45
472.32013,472.56494,66,80,45
473.07013,473.31494,63,65,45
473.07013,473.31494,66,65,45
473.32013,473.5609,62,60,45
473.32013,473.5609,65,60,45
484.58298,484.79895,53,60,45
484.58298,484.79895,65,60,45
484.80356,485.01956,53,60,45
484.80356,485.01956,65,60,45
485.02414,485.24014,53,60,45
485.02414,485.24014,65,60,45
485.46533,485.6813,53,60,45
485.46533,485.6813,65,60,45
485.6859,485.90192,53,63,45
485.6859,485.90192,65,63,45
485.9065,486.1225,53,66,45
485.9065,486.1225,65,66,45
486.3477,486.56366,53,72,45
486.3477,486.56366,65,72,45
486.56827,486.78424,53,75,45
486.56827,486.78424,65,75,45
486.78885,487.00485,53,78,45
486.78885,487.00485,65,78,45
487.23,487.446,53,84,45
487.23,487.446,65,84,45
487.45062,487.6666,53,88,45
487.45062,487.6666,65,88,45
487.6712,487.8872,53,92,45
487.6712,487.8872,65,92,45
488.11237,488.32837,53,100,45
488.11237,488.32837,65,100,45
488.33298,488.54895,53,100,45
488.33298,488.54895,65,100,45
488.55356,488.76953,53,100,45
488.55356,488.76953,65,100,45
488.99472,489.21072,53,80,45
488.99472,489.21072,65,80,45
489.21533,489.4313,53,80,45
489.21533,489.4313,65,80,45
489.4359,489.6519,53,60,45
489.4359,489.6519,65,60,45
1.75,2.0,65,60,42
2.0,2.5,70,60,42
2.5,3.0,69,60,42
3.0,3.5,70,60,42
3.5,3.9166667,62,60,42
4.0,4.4166665,65,60,42
4.5,4.6875,63,60,42
4.75,4.875,60,60,42
5.0,5.5,57,60,42
5.5,5.9166665,58,60,42
6.0,6.4166665,60,60,42
6.5,6.5833335,62,60,42
6.5833335,6.6666665,63,60,42
6.6666665,6.75,62,60,42
6.75,6.8333335,63,60,42
6.8333335,6.9166665,60,60,42
6.9166665,7.0,62,60,42
7.0,7.4166665,65,60,42
7.5,7.5833335,63,60,42
7.5833335,7.6666665,65,62,42
7.6666665,7.75,63,64,42
7.75,7.8333335,65,66,42
7.8333335,7.9166665,62,68,42
7.9166665,8.0,63,70,42
8.0,8.25,67,72,42
8.25,8.494792,65,79,42
8.5,8.744792,70,86,42
8.75,8.994792,72,93,42
9.0,9.5,70,100,42
9.5,9.744792,69,80,42
9.75,10.0,65,60,42
10.0,10.5,70,60,42
10.5,11.0,69,60,42
11.0,11.5,70,60,42
11.5,11.916667,62,60,42
12.0,12.416667,67,60,42
12.5,12.6875,65,80,42
12.75,12.875,62,90,42
13.0,13.5,59,100,42
13.5,13.916667,60,80,42
14.0,14.416667,62,60,42
14.5,14.583333,63,60,42
14.583333,14.666667,65,60,42
14.666667,14.75,63,60,42
14.75,14.833333,65,60,42
14.833333,14.916667,62,60,42
14.916667,15.0,63,60,42
15.0,15.416667,67,60,42
15.5,15.583333,65,60,42
15.583333,15.666667,67,62,42
15.666667,15.75,65,64,42
15.75,15.833333,67,66,42
15.833333,15.916667,64,68,42
15.916667,16.0,65,70,42
16.0,16.5,68,72,42
16.5,16.916666,67,86,42
17.0,17.38793,57,100,42
17.38793,17.452585,58,80,42
17.452585,17.511852,60,80,42
17.51724,17.784286,58,60,42
35.511105,35.698605,53,80,42
35.761105,35.948605,57,80,42
36.011105,36.136105,60,80,42
36.261105,36.927773,65,80,42
37.011105,37.261105,64,80,42
37.261105,37.511105,67,80,42
37.511105,37.761105,65,80,42
37.761105,38.011105,57,80,42
38.011105,38.255898,60,80,42
38.261105,38.927773,65,80,42
39.011105,39.261105,64,80,42
39.261105,39.511105,66,80,42
39.511105,39.761105,65,80,42
39.761105,40.011105,57,80,42
40.011105,40.255898,60,80,42
40.261105,40.511105,66,80,42
40.511105,40.761105,65,85,42
40.761105,41.011105,61,90,42
41.011105,41.255898,70,95,42
41.261105,41.511105,69,100,42
41.511105,41.755898,65,100,42
41.761105,41.948605,63,80,42
42.011105,42.136105,60,80,42
42.261105,42.677773,58,60,42
55.761105,55.92256,46,100,42
55.927773,56.08923,49,100,42
56.094437,56.255898,52,100,42
56.261105,56.433517,58,100,42
56.433517,56.60593,52,94,42
56.60593,56.778343,58,88,42
56.778343,56.960163,61,81,42
56.960163,57.14198,58,74,42
57.14198,57.31812,52,67,42
57.3238,57.5238,63,60,42
57.5238,57.7238,60,60,42
57.7238,57.91755,53,60,42
57.923798,58.21755,58,60,42
62.7738,63.01859,53,60,42
63.2738,63.51859,53,60,42
63.7738,64.01859,53,60,42
64.273796,64.51859,53,60,42
64.773796,65.01859,55,60,42
65.273796,65.51859,53,60,42
65.773796,66.01859,55,60,42
66.273796,66.51859,53,60,42
66.773796,67.01859,55,80,42
67.023796,67.523796,53,100,42
67.523796,68.76859,53,60,42
68.773796,69.023796,56,60,42
69.023796,69.273796,55,60,42
69.273796,69.51859,50,60,42
69.523796,70.023796,48,60,42
70.023796,70.523796,50,60,42
70.523796,70.94047,52,60,42
71.023796,71.273796,55,60,42
71.273796,71.51859,50,60,42
71.523796,72.023796,48,60,42
72.023796,72.523796,50,68,42
72.523796,72.76859,52,77,42
73.773796,74.023796,58,100,42
74.023796,74.26859,52,100,42
74.273796,74.398796,52,100,42
74.523796,75.273796,52,80,42
75.273796,75.51859,53,80,42
75.523796,76.273796,50,60,42
76.273796,76.51859,52,60,42
76.523796,77.273796,49,60,42
77.273796,77.51859,50,60,42
77.523796,78.023796,46,60,42
78.023796,78.44047,47,60,42
78.523796,79.398796,48,60,42
79.773796,80.023796,48,40,42
80.023796,80.273796,53,40,42
80.273796,80.523796,55,40,42
80.523796,80.773796,57,40,42
80.773796,81.023796,58,40,42
81.023796,81.273796,55,40,42
81.273796,81.523796,53,40,42
81.523796,81.76859,55,40,42
81.773796,82.023796,48,40,42
82.023796,82.273796,55,40,42
82.273796,82.523796,57,40,42
82.523796,82.773796,58,40,42
82.773796,83.023796,60,40,42
83.023796,83.273796,57,40,42
83.273796,83.523796,55,40,42
83.523796,83.76859,57,40,42
83.773796,84.023796,48,40,42
84.023796,84.273796,57,40,42
84.273796,84.523796,58,40,42
84.523796,84.773796,60,40,42
84.773796,85.023796,62,40,42
85.023796,85.273796,58,40,42
85.273796,85.51859,60,40,42
85.523796,85.773796,57,40,42
85.773796,86.023796,58,40,42
86.023796,86.273796,55,40,42
86.273796,86.51859,57,40,42
86.523796,86.773796,53,40,42
86.773796,87.023796,52,40,42
87.023796,87.273796,50,40,42
87.273796,87.523796,47,40,42
87.523796,87.773796,48,40,42
87.773796,88.023796,43,40,42
88.023796,88.273796,47,40,42
88.273796,88.523796,43,40,42
88.523796,88.773796,48,40,42
88.773796,89.01859,52,40,42
89.023796,89.273796,53,40,42
89.273796,89.523796,55,45,42
89.523796,89.773796,52,50,42
89.773796,90.023796,55,55,42
90.023796,90.273796,53,60,42
90.273796,90.523796,55,65,42
90.523796,90.76859,52,70,42
91.773796,92.023796,58,100,42
92.023796,92.26859,52,100,42
92.273796,92.398796,52,100,42
92.523796,93.273796,52,100,42
93.273796,93.51859,53,80,42
93.523796,93.76859,48,60,42
94.773796,95.023796,58,100,42
95.023796,95.26859,54,100,42
95.273796,95.398796,54,100,42
95.523796,96.273796,54,100,42
96.273796,96.51859,55,80,42
96.523796,96.76859,50,60,42
97.773796,98.023796,58,100,42
98.023796,98.26859,54,100,42
98.273796,98.398796,54,80,42
98.523796,98.711296,53,60,42
98.773796,98.961296,53,60,42
99.023796,99.211296,53,60,42
99.273796,99.398796,53,60,42
99.523796,99.711296,53,60,42
99.773796,99.961296,53,60,42
100.023796,100.211296,55,60,42
100.273796,100.398796,55,60,42
100.523796,100.76859,57,60,42
100.773796,101.01859,57,60,42
101.023796,101.26859,58,60,42
101.273796,101.51859,57,60,42
101.523796,101.76859,55,60,42
101.773796,102.01859,55,60,42
102.023796,102.26859,55,60,42
102.273796,102.51859,55,60,42
102.523796,102.76859,48,60,42
102.773796,102.961296,48,80,42
103.023796,103.211296,53,80,42
103.273796,103.398796,55,80,42
103.523796,104.273796,57,60,42
104.273796,104.51859,58,60,42
104.523796,104.898796,60,60,42
104.898796,104.961296,62,60,42
104.961296,105.01859,60,60,42
105.023796,105.26859,58,60,42
105.273796,105.51859,57,60,42
105.523796,106.273796,58,60,42
106.273796,106.51859,60,60,42
106.523796,106.898796,62,60,42
106.898796,106.961296,64,60,42
106.961296,107.01859,62,60,42
107.023796,107.26859,60,60,42
107.273796,107.51859,58,60,42
107.523796,108.273796,60,60,42
108.273796,108.51859,62,60,42
108.523796,108.898796,63,60,42
108.898796,108.961296,65,60,42
108.961296,109.01859,63,60,42
109.023796,109.398796,62,60,42
109.398796,109.461296,63,60,42
109.461296,109.51859,62,60,42
109.523796,109.898796,60,60,42
109.898796,109.961296,62,62,42
109.961296,110.01859,60,62,42
110.023796,110.398796,58,62,42
110.398796,110.461296,60,64,42
110.461296,110.51859,58,64,42
110.523796,110.711296,57,64,42
110.773796,110.961296,55,65,42
111.023796,111.211296,53,66,42
111.273796,111.398796,51,67,42
111.523796,111.773796,50,68,42
111.773796,112.023796,53,69,42
112.023796,112.273796,51,70,42
112.273796,112.51859,53,72,42
112.523796,112.773796,50,74,42
112.773796,113.023796,53,76,42
113.023796,113.273796,51,78,42
113.273796,113.51859,53,80,42
113.523796,113.773796,50,82,42
113.773796,114.01859,53,84,42
114.023796,114.273796,58,86,42
114.273796,114.523796,60,88,42
114.523796,114.773796,57,90,42
114.773796,115.023796,60,92,42
115.023796,115.273796,58,94,42
115.273796,115.523796,60,96,42
115.523796,115.76859,57,98,42
115.773796,116.023796,66,100,42
116.023796,116.26859,67,100,42
116.273796,116.398796,67,100,42
116.523796,117.76859,67,100,42
117.773796,118.023796,65,100,42
118.023796,118.273796,63,87,42
118.273796,118.523796,62,74,42
118.523796,118.76859,60,60,42
118.773796,119.023796,66,100,42
119.023796,119.26859,67,100,42
119.273796,119.398796,67,100,42
119.523796,120.023796,67,100,42
120.023796,120.76859,68,100,42
120.773796,121.023796,65,100,42
121.023796,121.273796,62,87,42
121.273796,121.523796,60,74,42
121.523796,121.76859,59,60,42
121.773796,122.023796,66,100,42
122.023796,122.26859,67,100,42
122.273796,122.398796,67,100,42
122.523796,122.94047,67,100,42
123.023796,123.523796,68,100,42
123.523796,124.023796,69,60,42
124.023796,124.523796,63,60,42
124.523796,124.94047,59,60,42
125.023796,125.523796,56,60,42
125.523796,126.023796,57,60,42
126.023796,126.523796,56,60,42
126.523796,127.023796,57,60,42
127.023796,127.44047,56,60,42
129.64919,130.14919,54,40,42
130.14919,130.64919,53,40,42
130.64919,131.14919,54,40,42
131.14919,131.56586,51,40,42
135.64919,136.14919,44,60,42
136.14919,136.64919,43,80,42
136.64919,137.14919,44,100,42
137.14919,137.56586,54,60,42
137.64919,138.16643,44,60,42
138.16643,138.59746,54,68,42
138.68367,139.22913,45,77,42
139.22913,139.68367,53,86,42
157.08728,157.27478,53,60,42
157.33728,157.52478,57,60,42
157.58728,157.71228,60,60,42
157.83728,158.50394,65,60,42
158.58728,158.83728,64,60,42
158.83728,159.08728,67,60,42
159.08728,159.33728,65,60,42
159.33728,159.58728,57,60,42
159.58728,159.83206,60,60,42
159.83728,160.50394,65,60,42
160.58728,160.83728,64,60,42
160.83728,161.08728,66,60,42
161.08728,161.33728,65,60,42
161.33728,161.58728,57,60,42
161.58728,161.83206,60,60,42
161.83728,162.08728,66,60,42
162.08728,162.33728,65,61,42
162.33728,162.58728,61,62,42
162.58728,162.83206,70,63,42
162.83728,163.08728,68,64,42
163.08728,163.33728,65,65,42
163.33728,163.58206,61,66,42
163.83728,164.21228,58,68,42
164.33728,164.58728,58,72,42
164.83728,165.71228,61,76,42
165.83728,166.33728,62,84,42
166.33728,166.83728,63,88,42
166.83728,167.33728,62,92,42
167.33728,167.75394,70,96,42
167.83728,168.33728,69,100,42
168.33728,168.75394,60,80,42
168.83728,169.33728,63,80,42
169.33728,169.75394,62,80,42
169.83728,170.33728,63,80,42
170.33728,170.83728,62,80,42
170.83728,171.33728,59,80,42
171.33728,171.75394,60,80,42
171.83728,172.33728,62,80,42
172.33728,172.75394,64,80,42
172.83728,173.33728,67,80,42
173.33728,173.75394,60,80,42
182.83728,183.08728,55,80,42
183.33728,183.58728,55,80,42
183.83728,184.71228,57,120,42
184.83728,185.08728,54,80,42
185.33728,185.58728,54,80,42
185.83728,186.25394,55,120,42
186.33728,186.46228,51,80,42
186.58728,186.71228,51,80,42
186.83728,187.25394,53,120,42
187.33728,187.46228,50,80,42
187.58728,187.71228,50,80,42
187.83728,187.96228,52,80,42
188.08728,188.21228,49,80,42
188.33728,188.46228,50,80,42
188.58728,188.71228,46,80,42
188.83728,189.25394,55,80,42
189.33728,189.75394,57,80,42
189.83728,190.25394,50,120,42
190.33728,190.75394,50,120,42
190.83728,191.25394,62,120,42
191.33728,191.75394,62,120,42
191.83728,192.25394,55,120,42
192.33728,192.75394,55,120,42
192.83728,193.25394,67,120,42
193.33728,193.75394,67,120,42
194.83728,195.08728,39,80,42
195.33728,195.58728,39,80,42
195.83728,196.71228,39,120,42
196.83728,197.08728,39,80,42
197.33728,197.58728,39,80,42
197.83728,198.71228,39,120,42
198.83728,199.58728,62,120,42
199.58728,199.83206,63,80,42
199.83728,200.08728,50,80,42
200.08728,200.33728,51,80,42
200.33728,200.58728,53,80,42
200.58728,200.83206,51,80,42
200.83728,201.08728,48,80,42
201.08728,201.33728,50,80,42
201.33728,201.58728,51,80,42
201.58728,201.83206,50,80,42
201.83728,202.08728,46,80,42
202.08728,202.33728,51,80,42
202.33728,202.58728,55,80,42
202.58728,202.83206,58,80,42
202.83728,203.08728,63,80,42
203.08728,203.33728,60,80,42
203.33728,203.58728,56,80,42
203.58728,203.83206,51,80,42
203.83728,204.08728,46,80,42
204.08728,204.58206,58,80,42
204.58728,204.83206,58,80,42
204.83728,205.08728,46,80,42
205.08728,205.58206,58,80,42
205.58728,205.83206,58,80,42
205.83728,206.08728,46,80,42
206.08728,206.33728,51,80,42
206.33728,206.58728,55,80,42
206.58728,206.83206,58,80,42
206.83728,207.08728,63,80,42
207.08728,207.33728,60,80,42
207.33728,207.58728,56,80,42
207.58728,207.83206,51,80,42
207.83728,208.08728,46,80,42
208.08728,208.58206,58,80,42
208.58728,208.83206,58,80,42
208.83728,209.08728,46,80,42
209.08728,209.58206,58,75,42
209.58728,209.83206,58,65,42
209.83728,210.25394,46,60,42
210.83728,211.08728,55,80,42
211.33728,211.58728,55,80,42
211.83728,212.71228,57,120,42
212.83728,213.08728,54,80,42
213.33728,213.58728,54,80,42
213.83728,214.25394,55,120,42
214.33728,214.46228,51,80,42
214.58728,214.71228,51,80,42
214.83728,215.25394,53,120,42
215.33728,215.46228,50,80,42
215.58728,215.71228,50,80,42
215.83728,215.96228,51,80,42
216.08728,216.21228,48,80,42
216.33728,216.46228,50,80,42
216.58728,216.71228,46,80,42
216.83728,217.25394,48,120,42
217.33728,217.75394,50,120,42
217.83728,218.08728,43,80,42
217.83728,218.08728,55,80,42
218.33728,218.58728,43,80,42
218.33728,218.58728,55,80,42
218.83728,219.71228,56,120,42
219.83728,220.08728,53,80,42
220.33728,220.58728,53,80,42
220.83728,221.71228,55,120,42
221.83728,221.96228,51,80,42
222.08728,222.21228,51,80,42
222.33728,222.75394,53,120,42
222.83728,222.96228,50,80,42
223.08728,223.21228,50,80,42
223.33728,223.75394,51,80,42
223.83728,223.96228,48,120,42
224.08728,224.21228,50,80,42
224.33728,224.46228,47,120,42
224.58728,224.71228,48,80,42
224.83728,224.96228,50,120,42
225.08728,225.21228,51,80,42
225.33728,225.46228,48,120,42
225.58728,225.71228,50,80,42
225.83728,225.96228,51,120,42
226.08728,226.21228,53,80,42
226.33728,226.46228,53,120,42
226.58728,226.71228,55,80,42
226.83728,226.96228,55,120,42
227.08728,227.21228,56,80,42
227.33728,227.46228,56,120,42
227.58728,227.71228,58,80,42
227.83728,227.96228,59,120,42
228.08728,228.21228,60,80,42
228.33728,228.46228,59,120,42
228.58728,228.71228,60,80,42
228.83728,228.96228,59,120,42
229.08728,229.21228,60,80,42
229.33728,229.46228,59,120,42
229.58728,229.71228,60,80,42
229.83728,229.96228,60,120,42
230.08728,230.21228,61,80,42
230.33728,230.46228,60,120,42
230.58728,230.71228,61,80,42
230.83728,230.96228,61,120,42
231.08728,231.21228,62,80,42
231.33728,231.46228,61,120,42
231.58728,231.71228,62,80,42
231.83728,231.96228,62,120,42
232.08728,232.21228,63,80,42
232.33728,232.46228,62,120,42
232.58728,232.71228,63,80,42
232.83728,232.96228,50,120,42
233.08728,233.21228,51,78,42
233.33728,233.46228,50,108,42
233.58728,233.71228,51,74,42
233.83728,233.96658,50,104,42
234.0959,234.2252,51,69,42
234.3545,234.48383,50,98,42
234.61313,234.74245,51,63,42
234.87175,235.00812,50,92,42
235.14449,235.28085,51,60,42
235.4172,235.55357,50,92,42
235.68994,235.8263,51,60,42
235.96266,236.09903,50,60,42
236.2354,236.37175,51,58,42
236.50812,236.64449,50,56,42
236.78084,236.9172,51,54,42
237.05357,237.18994,50,52,42
237.3263,237.46266,51,49,42
237.59903,237.73538,50,46,42
237.87175,238.00812,51,43,42
238.14449,238.27606,50,40,42
238.40764,238.53922,51,40,42
238.67079,238.80237,50,40,42
238.93396,239.06554,51,40,42
239.19711,239.32869,52,40,42
239.46027,239.59184,53,40,42
239.72342,239.85501,50,40,42
239.98659,240.11816,51,40,42
240.24974,240.38132,49,40,42
240.5129,240.64447,48,40,42
240.77606,240.90764,46,40,42
241.03922,241.17079,49,40,42
241.30237,241.43394,51,40,42
241.56552,241.69711,49,45,42
241.82869,241.96027,48,50,42
242.09184,242.22342,51,55,42
242.355,242.48,55,60,42
242.605,242.73,56,60,42
242.855,242.98,55,60,42
243.105,243.23,56,60,42
243.355,243.48,55,60,42
243.605,243.73,56,60,42
243.855,243.98,55,60,42
244.105,244.23,56,60,42
244.355,244.48,53,60,42
244.605,244.73,51,60,42
244.855,244.98,49,60,42
245.105,245.23,53,60,42
245.355,245.48,55,60,42
245.605,245.73,53,55,42
245.855,245.98,51,50,42
246.105,246.23,53,45,42
246.355,246.48,55,40,42
246.605,246.73,56,40,42
246.855,246.98,55,40,42
247.105,247.23,56,40,42
247.355,247.73,44,60,42
247.855,248.105,44,60,42
249.355,249.73,44,60,42
249.855,250.105,44,60,42
251.355,251.73,37,60,42
251.855,252.105,37,60,42
253.355,253.73,49,60,42
253.855,254.105,49,60,42
255.355,255.77167,42,64,42
255.855,256.27167,42,64,42
257.355,257.77167,54,40,42
257.855,258.27167,54,40,42
259.355,259.77167,47,64,42
259.855,260.27167,47,70,42
260.355,260.77167,59,76,42
260.855,261.27167,59,83,42
261.355,261.77167,47,98,42
261.855,262.27167,47,105,42
262.355,262.77167,62,120,42
262.855,263.27167,53,120,42
263.355,263.77167,62,120,42
263.855,264.27167,53,120,42
264.355,264.48,62,80,42
264.605,264.73,53,82,42
264.855,264.98,62,84,42
265.105,265.23,53,86,42
265.355,265.48,62,88,42
265.605,265.73,53,91,42
265.855,265.98,62,94,42
266.105,266.23,53,97,42
266.355,266.68832,58,100,42
266.68832,266.8498,46,100,42
266.855,267.02167,50,100,42
267.02167,267.18832,53,100,42
267.18832,267.3498,56,100,42
267.355,267.5998,62,100,42
268.355,269.355,46,100,42
269.355,270.23,46,80,42
270.355,271.23,46,60,42
271.355,272.24484,46,60,42
272.37195,275.45786,53,60,42
275.45786,278.63455,53,54,42
278.63455,279.08096,53,45,42
279.17026,280.16052,41,44,42
280.25143,280.52417,48,40,42
280.52417,280.7912,41,40,42
280.79688,281.21356,46,40,42
284.79688,285.21356,60,60,42
285.29688,285.38022,62,60,42
285.38022,285.46356,63,61,42
285.46356,285.54688,62,62,42
285.54688,285.63022,63,63,42
285.63022,285.71356,60,64,42
285.71356,285.79688,62,65,42
285.79688,286.21356,65,66,42
286.29688,286.38022,63,73,42
286.38022,286.46356,65,74,42
286.46356,286.54688,63,75,42
286.54688,286.63022,65,76,42
286.63022,286.71356,62,77,42
286.71356,286.79688,63,78,42
286.79688,287.04688,67,80,42
287.04688,287.2917,65,80,42
287.29688,287.5417,70,80,42
287.54688,287.7917,72,80,42
287.79688,288.29688,70,80,42
288.29688,288.5417,69,60,42
292.79688,293.21356,62,60,42
293.29688,293.38022,63,60,42
293.38022,293.46356,65,61,42
293.46356,293.54688,63,62,42
293.54688,293.63022,65,63,42
293.63022,293.71356,62,64,42
293.71356,293.79688,63,65,42
293.79688,294.21356,67,66,42
294.29688,294.375,65,73,42
294.38022,294.45834,67,74,42
294.46356,294.5417,65,75,42
294.54688,294.625,67,76,42
294.63022,294.70834,64,77,42
294.71356,294.7917,65,78,42
294.79688,295.29688,68,80,42
295.29688,295.71356,67,60,42
295.79688,296.17188,57,60,42
296.17188,296.23438,58,60,42
296.23438,296.2917,60,60,42
296.29688,296.5417,58,60,42
298.04688,298.23438,53,80,42
298.29688,298.48438,57,80,42
298.54688,298.67188,60,80,42
298.79688,299.46356,65,80,42
299.54688,299.79688,64,80,42
299.79688,300.04688,67,80,42
300.04688,300.29688,65,80,42
300.29688,300.54688,57,80,42
300.54688,300.7917,60,80,42
300.79688,301.46356,65,80,42
301.54688,301.79688,64,80,42
301.79688,302.04688,66,80,42
302.04688,302.29688,65,80,42
302.29688,302.54688,57,80,42
302.54688,302.7917,60,80,42
302.79688,303.04688,66,80,42
303.04688,303.29688,65,80,42
303.29688,303.54688,61,80,42
303.54688,303.7917,70,80,42
303.79688,304.04688,68,80,42
304.04688,304.29688,65,70,42
304.29688,304.5417,61,60,42
304.79688,305.67188,61,80,42
305.79688,306.29688,58,80,42
306.29688,306.71356,73,80,42
306.79688,307.29688,71,80,42
307.29688,307.79688,70,80,42
307.79688,308.29688,71,80,42
308.29688,308.71356,63,80,42
308.79688,309.21356,66,80,42
309.29688,309.48438,64,80,42
309.54688,309.67188,61,80,42
309.79688,310.29688,58,80,42
310.29688,310.71356,59,80,42
310.79688,311.21356,61,80,42
311.29688,311.38022,63,80,42
311.38022,311.46356,64,80,42
311.46356,311.54688,63,80,42
311.54688,311.63022,64,80,42
311.63022,311.71356,61,80,42
311.71356,311.79688,63,80,42
311.79688,312.29688,66,80,42
312.29688,312.71356,64,60,42
313.79688,314.21356,66,60,42
314.29688,314.38022,68,60,42
314.38022,314.46356,69,63,42
314.46356,314.54688,68,66,42
314.54688,314.63022,69,69,42
314.63022,314.71356,66,72,42
314.71356,314.79688,68,76,42
314.79688,315.29688,71,80,42
315.29688,315.71356,69,60,42
316.79688,317.29688,71,60,42
317.29688,317.71356,69,60,42
318.79688,319.04688,50,80,42
319.29688,319.54688,50,80,42
319.79688,320.67188,51,100,42
320.79688,321.04688,53,60,42
321.29688,321.54688,46,80,42
321.79688,322.67188,39,100,42
322.79688,322.88022,63,60,42
322.96356,323.04688,62,60,42
323.13022,323.21356,60,60,42
323.29688,323.38022,58,60,42
323.46356,323.54688,60,60,42
323.63022,323.71356,62,60,42
323.79688,324.29688,65,60,42
324.29688,324.71356,63,60,42
324.79688,325.29688,57,60,42
325.29688,325.71356,63,60,42
325.79688,326.21356,62,60,42
335.29688,335.79688,48,60,42
335.79688,336.29688,41,60,42
336.29688,336.79688,48,68,42
336.79688,337.0417,41,77,42
338.04688,338.29688,51,100,42
338.29688,338.5417,45,100,42
338.54688,338.67188,45,100,42
338.79688,339.54688,45,100,42
339.54688,339.7917,46,80,42
339.79688,340.0417,41,60,42
341.04688,341.29688,51,100,42
341.29688,341.5417,47,100,42
341.54688,341.67188,47,100,42
341.79688,342.54688,47,100,42
342.54688,342.7917,48,80,42
342.79688,343.0417,43,60,42
344.04688,344.29688,51,100,42
344.29688,344.5417,47,100,42
344.54688,344.67188,47,80,42
344.79688,344.98438,46,60,42
345.04688,345.23438,46,60,42
345.29688,345.48438,46,60,42
345.54688,345.67188,46,60,42
345.79688,345.98438,46,60,42
346.04688,346.23438,46,60,42
346.29688,346.48438,48,60,42
346.54688,346.67188,48,60,42
346.79688,347.0417,50,60,42
347.04688,347.2917,50,60,42
347.29688,347.5417,51,60,42
347.54688,347.7917,50,60,42
347.79688,348.0417,48,60,42
348.04688,348.2917,48,60,42
348.29688,348.5417,48,60,42
348.54688,348.7917,48,60,42
348.79688,349.0417,41,60,42
349.04688,349.23438,53,60,42
349.29688,349.48438,58,60,42
349.54688,349.67188,60,60,42
349.79688,350.54688,62,60,42
350.54688,350.7917,63,60,42
350.79688,351.17188,65,60,42
351.17188,351.23438,67,60,42
351.23438,351.2917,65,60,42
351.29688,351.5417,63,60,42
351.54688,351.7917,62,60,42
351.79688,352.54688,63,60,42
352.54688,352.7917,65,60,42
352.79688,353.17188,67,60,42
353.17188,353.23438,69,60,42
353.23438,353.2917,67,60,42
353.29688,353.5417,65,60,42
353.54688,353.7917,63,60,42
353.79688,354.54688,65,60,42
354.54688,354.7917,67,60,42
354.79688,355.17188,68,60,42
355.17188,355.23438,70,60,42
355.23438,355.2917,68,60,42
355.29688,355.67188,67,60,42
355.67188,355.73438,68,60,42
355.73438,355.7917,67,60,42
355.79688,356.17188,65,60,42
356.17188,356.23438,67,67,42
356.23438,356.2917,65,68,42
356.29688,356.67188,63,69,42
356.67188,356.73438,65,77,42
356.73438,356.7917,63,78,42
356.79688,356.98438,62,80,42
357.04688,357.23438,60,80,42
357.29688,357.48438,58,80,42
357.54688,357.67188,56,80,42
357.79688,358.04688,55,80,42
358.04688,358.29688,58,80,42
358.29688,358.54688,56,80,42
358.54688,358.7917,58,80,42
358.79688,359.04688,55,80,42
359.04688,359.29688,58,80,42
359.29688,359.54688,56,80,42
359.54688,359.7917,58,80,42
359.79688,360.04688,55,80,42
360.04688,360.2917,58,80,42
360.29688,360.54688,63,80,42
360.54688,360.79688,65,80,42
360.79688,361.04688,62,80,42
361.04688,361.29688,65,82,42
361.29688,361.54688,63,84,42
361.54688,361.7917,65,86,42
361.79688,362.0417,62,88,42
362.04688,362.29688,71,91,42
362.29688,362.5417,72,94,42
362.54688,362.67188,72,97,42
362.79688,364.0417,72,100,42
364.04688,364.29688,70,100,42
364.29688,364.54688,68,87,42
364.54688,364.79688,67,74,42
364.79688,365.0417,65,60,42
365.04688,365.29688,71,60,42
365.29688,365.5417,72,68,42
365.54688,365.67188,72,76,42
365.79688,366.29688,72,84,42
366.29688,367.0417,73,100,42
367.04688,367.29688,70,100,42
367.29688,367.54688,67,87,42
367.54688,367.79688,65,74,42
367.79688,368.0417,64,60,42
368.04688,368.29688,71,60,42
368.29688,368.5417,72,68,42
368.54688,368.67188,72,76,42
368.79688,369.29688,72,84,42
369.29688,369.79688,73,100,42
369.79688,370.29688,73,60,42
370.29688,370.79688,68,60,42
370.79688,371.21356,64,60,42
371.29688,371.79688,61,60,42
371.79688,372.29688,62,60,42
372.29688,372.79688,61,60,42
372.79688,373.30536,62,60,42
373.30536,373.7291,61,60,42
375.90094,376.40094,59,40,42
376.40094,376.90094,58,40,42
376.90094,377.40094,59,40,42
377.40094,377.8176,56,40,42
392.10907,392.6263,58,64,42
392.6263,392.87955,65,40,42
393.14355,393.6608,70,64,42
393.6608,393.91403,62,40,42
395.21252,395.72974,57,64,42
395.72974,395.98297,58,40,42
397.28146,397.7987,65,40,42
397.7987,398.05194,63,40,42
399.35043,399.86768,70,40,42
399.86768,400.1209,69,40,42
401.4194,401.93665,70,40,42
401.93665,402.18988,62,40,42
403.48837,404.0056,59,40,42
404.0056,404.25885,60,40,42
405.57547,406.1018,67,40,42
406.1018,406.35947,65,40,42
407.69952,408.1086,57,60,42
408.1086,408.17682,58,60,42
408.17682,408.23932,60,60,42
408.245,408.51202,58,60,42
409.95712,410.08212,53,60,42
410.12378,410.24878,57,60,42
410.29044,410.41544,60,60,42
410.45712,410.58212,57,60,42
410.62378,410.70712,60,60,42
410.79044,411.4519,65,60,42
411.45712,411.62378,64,60,42
411.62378,411.79044,65,60,42
411.79044,411.95712,67,60,42
411.95712,412.12378,65,60,42
412.12378,412.29044,64,60,42
412.29044,412.4519,65,60,42
412.45712,412.62378,57,60,42
412.62378,412.79044,60,60,42
412.79044,413.4519,65,60,42
413.45712,413.62378,64,60,42
413.62378,413.79044,65,60,42
413.79044,413.95712,66,60,42
413.95712,414.12378,65,60,42
414.12378,414.29044,64,60,42
414.29044,414.4519,65,60,42
414.45712,414.62378,57,60,42
414.62378,414.79044,60,60,42
414.79044,414.95712,66,60,42
414.95712,415.12378,65,61,42
415.12378,415.29044,64,62,42
415.29044,415.4519,65,63,42
415.45712,415.62378,59,64,42
415.62378,415.79044,62,65,42
415.79044,415.95712,67,66,42
415.95712,416.12378,65,67,42
416.12378,416.29044,64,68,42
416.29044,416.4519,65,70,42
416.45712,416.62378,61,72,42
416.62378,416.79044,64,74,42
416.79044,416.95712,67,76,42
416.95712,417.12378,65,78,42
417.12378,417.28525,64,80,42
417.29044,417.45712,67,82,42
417.45712,417.62378,65,84,42
417.62378,417.78525,64,86,42
417.79044,417.95712,67,88,42
417.95712,418.12378,65,90,42
418.12378,418.28525,64,92,42
418.29044,418.41544,65,94,42
418.45712,418.58212,67,96,42
418.62378,418.70712,69,98,42
418.79044,419.29044,70,100,42
419.29044,419.79044,69,100,42
419.79044,420.29044,70,100,42
420.29044,420.70712,62,100,42
420.79044,421.20712,65,100,42
421.29044,421.47794,63,100,42
421.54044,421.66544,60,100,42
421.79044,422.20712,57,100,42
422.29044,422.70712,58,100,42
422.79044,423.20712,60,100,42
423.29044,423.37378,62,100,42
423.37378,423.45712,63,100,42
423.45712,423.54044,62,100,42
423.54044,423.62378,63,100,42
423.62378,423.70712,60,100,42
423.70712,423.79044,62,100,42
423.79044,424.20712,65,100,42
424.29044,424.37378,63,100,42
424.37378,424.45712,65,100,42
424.45712,424.54044,63,100,42
424.54044,424.62378,65,100,42
424.62378,424.70712,62,100,42
424.70712,424.79044,63,100,42
424.79044,425.04044,67,100,42
425.04044,425.28525,65,100,42
425.29044,425.53525,70,100,42
425.54044,425.78525,72,100,42
425.79044,426.29044,70,100,42
426.29044,426.53525,69,100,42
426.54044,426.78525,51,80,42
426.79044,427.29044,50,80,42
427.29044,427.79044,51,81,42
427.79044,428.20712,50,82,42
428.29044,428.79044,53,83,42
428.79044,429.29044,51,84,42
429.29044,429.79044,53,85,42
429.79044,430.20712,51,86,42
430.29044,430.79044,56,88,42
430.79044,431.20712,55,90,42
431.29044,431.79044,58,92,42
431.79044,432.20712,57,94,42
432.29044,432.79044,60,96,42
432.79044,433.20712,58,98,42
433.29044,433.79044,58,100,42
433.79044,434.20712,55,100,42
434.29044,434.79044,51,100,42
434.79044,435.20712,46,100,42
435.29044,435.79044,39,100,42
435.79044,436.29892,44,100,42
436.29892,436.8074,51,100,42
436.8074,437.31586,53,100,42
437.31586,437.7396,55,100,42
437.82434,438.72952,53,100,42
438.85883,439.29742,53,100,42
439.38513,439.82373,58,100,42
439.91144,440.35788,58,100,42
440.44717,440.98288,58,100,42
440.98288,441.42932,55,100,42
441.5186,442.05432,51,100,42
442.05432,442.50073,46,100,42
442.59003,443.12573,39,100,42
443.12573,443.66144,44,100,42
443.66144,444.19717,46,100,42
444.19717,444.73288,48,100,42
444.73288,445.17932,51,100,42
445.2686,445.8043,52,100,42
445.8043,446.34003,53,100,42
446.34003,446.87573,54,100,42
446.87573,447.32217,52,100,42
447.41144,448.34894,53,100,42
448.48288,448.9293,53,100,42
449.0186,449.46503,58,100,42
449.5543,450.4918,53,100,42
450.62573,451.07217,58,100,42
451.16144,451.60788,46,100,42
451.69717,452.42444,53,120,42
452.78806,453.5428,53,120,42
453.92014,455.12015,53,80,42
455.12015,455.92014,53,60,42
464.32013,464.69513,53,60,42
464.82013,465.07013,53,60,42
465.32013,466.19513,56,60,42
466.32013,466.69513,54,60,42
466.82013,467.07013,54,60,42
467.32013,468.19513,54,60,42
468.32013,468.69513,54,60,42
468.82013,469.07013,54,60,42
469.32013,470.19513,54,80,42
470.32013,470.73682,54,80,42
470.82013,471.73682,54,100,42
471.82013,472.73682,54,100,42
472.82013,473.23682,48,80,42
473.32013,473.72998,50,60,42
485.02414,485.13443,48,60,42
485.24472,485.35504,48,60,42
485.46533,485.57562,50,60,42
485.9065,486.01678,51,66,42
486.12708,486.23737,51,69,42
486.3477,486.45798,53,72,42
486.78885,486.89914,55,78,42
487.00943,487.11972,55,81,42
487.23,487.34033,57,84,42
487.6712,487.7815,58,92,42
487.89178,488.00208,58,96,42
488.11237,488.2227,57,100,42
488.55356,488.66385,55,100,42
488.77414,488.88443,55,100,42
488.99472,489.105,53,100,42
489.4359,489.5462,50,80,42
489.6565,489.76678,50,80,42
489.87708,489.98737,51,80,42
490.31827,490.42856,47,60,42
490.53885,490.64914,47,60,42
490.75943,490.86972,48,60,42
491.20062,491.3109,50,60,42
491.4212,491.5315,50,60,42
491.64178,491.75208,51,60,42
492.08295,492.19327,47,60,42
492.30356,492.41385,47,61,42
492.52414,492.63443,48,62,42
492.9653,493.07562,51,64,42
493.1859,493.2962,51,65,42
493.4065,493.6225,53,66,42
493.84766,493.95795,49,68,42
494.06827,494.17856,49,69,42
494.28885,494.39914,50,70,42
494.73,494.8403,53,72,42
494.9506,495.0609,53,73,42
495.1712,495.2815,55,74,42
495.61237,495.72266,50,76,42
495.83295,495.94324,50,77,42
496.05356,496.16385,51,78,42
496.49472,496.605,55,80,42
496.7153,496.8256,55,82,42
496.9359,497.0462,57,84,42
497.37708,497.48737,53,88,42
497.59766,497.70795,53,90,42
497.81824,497.92856,57,92,42
498.25943,498.36972,53,96,42
498.48,498.5903,53,98,42
498.7006,498.81088,60,100,42
499.14178,499.25208,53,100,42
499.36237,499.47266,53,100,42
499.58295,499.69324,60,100,42
500.02414,500.13443,53,100,42
500.24472,500.355,53,100,42
500.4653,500.5756,58,100,42
500.9065,501.01678,53,100,42
501.12708,501.23737,53,100,42
501.34766,501.45795,46,100,42
501.78885,501.89914,41,100,42
502.00943,502.11972,41,100,42
502.23,502.446,46,100,42
502.67117,502.7815,53,100,42
502.89178,503.00208,53,100,42
503.11237,503.22266,46,100,42
503.55353,503.66382,41,100,42
503.77414,503.88443,41,100,42
503.99472,504.105,46,100,42
504.87708,505.09305,53,100,42
504.87708,505.09305,60,100,42
505.31824,505.53424,53,100,42
505.31824,505.53424,60,100,42
505.75943,505.9754,58,80,42
506.64178,506.85776,53,100,42
507.08295,507.29895,53,100,42
507.5241,507.7401,58,80,42
508.40646,508.65128,46,100,42
508.40646,508.65128,53,100,42
509.40646,510.45648,46,80,42
509.40646,510.45648,53,80,42
43.011105,43.255898,53,80,45
43.511105,43.755898,58,80,45
43.761105,44.005898,62,80,45
44.011105,44.255898,50,80,45
44.511105,44.755898,53,80,45
45.011105,45.255898,53,80,45
45.511105,45.755898,53,80,45
45.761105,46.005898,58,80,45
46.011105,46.255898,50,80,45
46.511105,46.755898,53,80,45
47.011105,47.255898,53,80,45
47.511105,47.755898,59,80,45
47.761105,48.005898,60,80,45
48.011105,48.255898,53,80,45
48.511105,48.755898,58,80,45
49.011105,49.255898,55,80,45
49.511105,49.755898,60,80,45
49.761105,50.005898,53,80,45
50.011105,50.255898,53,80,45
50.511105,50.755898,53,80,45
51.011105,51.255898,53,82,45
51.511105,51.755898,53,84,45
52.011105,52.255898,55,86,45
52.511105,52.755898,55,88,45
53.011105,53.255898,55,90,45
53.511105,53.755898,55,92,45
54.011105,54.255898,58,94,45
54.511105,54.755898,58,96,45
55.011105,55.255898,58,98,45
55.511105,55.755898,58,100,45
140.02458,140.26936,53,100,45
140.52458,140.76936,53,100,45
141.02458,141.26936,58,96,45
141.27458,141.51936,62,94,45
141.52458,141.76936,53,92,45
142.02458,142.26936,53,88,45
142.52458,142.76936,53,84,45
143.02458,143.26936,53,80,45
143.27458,143.51936,58,80,45
143.52458,143.76936,50,80,45
144.02458,144.26936,53,80,45
144.52458,144.76936,53,80,45
145.02458,145.26936,59,80,45
145.27458,145.51936,60,80,45
145.52458,145.76936,53,80,45
146.02458,146.26936,58,80,45
146.52458,146.76936,55,80,45
147.02458,147.26936,60,80,45
147.27458,147.51936,53,80,45
147.52458,147.76936,53,80,45
148.02458,148.26936,53,80,45
148.52458,148.76936,53,80,45
149.02458,149.26936,62,80,45
149.27458,149.51936,53,80,45
149.52458,149.76936,58,80,45
150.02458,150.26936,55,80,45
150.52458,150.76936,55,80,45
151.02458,151.26936,55,80,45
151.27458,151.51936,55,80,45
151.52458,151.76936,48,80,45
152.02458,152.26936,58,80,45
152.27458,152.51936,58,82,45
152.52458,152.76936,46,84,45
153.02458,153.26936,58,88,45
153.27458,153.51936,58,91,45
153.52458,153.76936,46,94,45
154.02458,154.26936,58,100,45
154.27458,154.51936,58,100,45
154.52458,154.76936,51,80,45
155.0332,155.28644,53,60,45
155.29182,155.55887,46,60,45
174.08728,174.33206,53,80,45
174.58728,174.83206,53,80,45
175.08728,175.33206,53,80,45
175.33728,175.58206,55,81,45
175.58728,175.83206,55,82,45
176.08728,176.33206,55,84,45
176.58728,176.83206,55,86,45
177.08728,177.33206,55,88,45
177.33728,177.58206,58,89,45
177.58728,177.83206,58,90,45
178.08728,178.33206,58,92,45
178.58728,178.83206,58,96,45
179.08728,179.33206,58,100,45
179.33728,179.58206,58,100,45
179.58728,179.83206,58,100,45
180.08728,180.33206,58,100,45
180.58728,180.83206,58,100,45
181.08728,181.33206,53,80,45
181.33728,181.58206,58,60,45
456.32013,456.73682,50,60,45
456.82013,457.23682,50,60,45
457.32013,457.73682,50,60,45
458.32013,458.73682,51,60,45
458.82013,459.23682,51,60,45
459.32013,459.73682,51,60,45
460.32013,460.73682,51,60,45
460.82013,461.23682,51,60,45
461.32013,461.73682,51,60,45
462.32013,462.73682,51,60,45
463.32013,463.73682,48,60,45
474.30374,474.54453,48,60,45
474.54965,474.79044,48,60,45
474.79556,475.03632,50,60,45
476.2551,476.49197,51,60,45
476.49704,476.73392,51,60,45
476.73895,476.97586,53,60,45
478.1752,478.40836,58,60,45
478.4133,478.64645,58,60,45
478.6514,478.88455,55,60,45
480.05066,480.27664,55,60,45
480.28143,480.5074,55,60,45
480.5122,480.73816,51,60,45
481.88284,482.10538,50,60,45
482.1101,482.33264,50,60,45
482.33737,482.5599,53,60,45
483.68744,483.90668,53,60,45
483.91132,484.13055,53,60,45
484.13522,484.35443,48,60,45
2.0,2.4166667,46,60,45
3.5,3.9166667,46,60,45
4.0,4.4166665,41,60,45
5.0,5.4166665,46,60,45
6.0,6.4166665,41,60,45
7.5,7.9166665,45,60,45
8.0,8.416667,46,73,45
8.5,8.916667,43,86,45
9.0,9.416667,41,100,45
9.75,9.994792,39,60,45
10.0,10.416667,38,60,45
10.5,10.916667,39,65,45
11.0,11.416667,38,70,45
11.5,11.916667,44,75,45
12.0,12.416667,43,80,45
13.0,13.416667,36,80,45
14.0,14.416667,46,60,45
14.5,14.916667,45,60,45
15.0,15.416667,44,73,45
15.5,15.916667,44,86,45
16.0,16.416666,38,100,45
16.5,16.916666,39,100,45
17.0,17.431034,41,80,45
17.51724,17.971786,46,60,45
58.7738,59.01859,53,60,45
59.2738,59.51859,58,60,45
59.7738,60.01859,53,60,45
60.2738,60.51859,58,60,45
60.7738,61.01859,48,60,45
61.2738,61.51859,50,70,45
61.7738,62.01859,55,80,45
62.2738,62.51859,48,80,45
62.5238,62.76859,41,60,45
63.0238,63.26859,46,60,45
63.5238,63.76859,41,60,45
64.023796,64.26859,46,60,45
64.523796,64.76859,43,60,45
65.023796,65.26859,45,60,45
65.523796,65.76859,43,60,45
66.023796,66.26859,45,60,45
66.523796,66.76859,43,60,45
238.14449,238.58307,44,40,45
238.67079,239.10939,44,40,45
239.19711,239.63571,44,40,45
239.72342,240.16202,44,40,45
240.24974,240.68834,44,40,45
240.77606,241.21465,44,40,45
241.30237,241.74097,44,40,45
241.82869,242.26729,44,50,45
242.355,242.77167,44,60,45
242.855,243.27167,44,60,45
243.355,243.77167,44,60,45
243.855,244.27167,44,60,45
244.355,244.77167,44,60,45
244.855,245.27167,44,60,45
245.355,245.77167,44,60,45
245.855,246.27167,44,60,45
247.355,247.77167,44,60,45
247.855,248.27167,44,60,45
249.355,249.77167,44,60,45
249.855,250.27167,44,60,45
251.355,251.77167,37,60,45
251.855,252.27167,37,60,45
253.355,253.77167,37,60,45
253.855,254.27167,37,60,45
255.355,255.77167,42,40,45
255.855,256.27167,42,40,45
257.355,257.77167,42,40,45
257.855,258.27167,42,40,45
409.79044,410.20712,53,60,45
410.29044,410.70712,53,60,45
410.79044,411.20712,41,60,45
411.79044,412.20712,53,60,45
412.29044,412.70712,53,60,45
412.79044,413.20712,41,60,45
413.79044,414.20712,53,60,45
414.29044,414.70712,53,60,45
414.79044,415.20712,41,60,45
415.29044,415.53525,53,68,45
415.54044,415.78525,53,72,45
415.79044,416.20712,41,76,45
416.29044,416.53525,53,84,45
416.54044,416.78525,53,88,45
416.79044,417.03525,41,92,45
417.04044,417.28525,53,96,45
417.29044,417.70712,41,100,45
418.29044,418.53525,53,100,45
418.54044,418.78525,53,100,45
418.79044,419.20712,46,100,45
419.29044,419.53525,53,95,45
419.54044,419.78525,53,93,45
419.79044,420.20712,46,91,45
420.29044,420.53525,46,86,45
420.54044,420.78525,46,83,45
420.79044,421.20712,41,80,45
421.29044,421.53525,53,80,45
421.54044,421.78525,53,80,45
421.79044,422.20712,46,80,45
422.29044,422.53525,53,80,45
422.54044,422.78525,53,80,45
422.79044,423.20712,41,80,45
423.29044,423.53525,53,80,45
423.54044,423.78525,53,80,45
423.79044,424.20712,41,80,45
424.29044,424.53525,53,80,45
424.54044,424.78525,53,80,45
424.79044,425.20712,46,80,45
425.29044,425.53525,43,80,45
425.54044,425.78525,43,80,45
425.79044,426.20712,41,80,45
426.29044,426.53525,41,80,45
426.54044,426.78525,39,80,45
426.79044,427.20712,38,80,45
427.29044,427.53525,39,81,45
427.54044,427.78525,39,81,45
427.79044,428.20712,38,81,45
428.29044,428.53525,41,82,45
428.54044,428.78525,41,82,45
428.79044,429.20712,39,82,45
429.29044,429.53525,41,84,45
429.54044,429.78525,41,85,45
429.79044,430.20712,39,86,45
430.29044,430.53525,44,88,45
430.54044,430.78525,44,89,45
430.79044,431.20712,43,90,45
431.29044,431.53525,46,92,45
431.54044,431.78525,46,93,45
431.79044,432.20712,45,94,45
432.29044,432.53525,48,96,45
432.54044,432.78525,48,97,45
432.79044,433.20712,46,98,45
433.29044,433.53525,58,100,45
433.54044,433.78525,58,100,45
433.79044,434.20712,55,100,45
434.29044,434.53525,51,100,45
434.54044,434.78525,51,100,45
434.79044,435.20712,46,100,45
456.32013,456.73682,46,60,45
456.82013,457.23682,46,60,45
457.32013,457.73682,46,60,45
458.32013,458.73682,46,60,45
458.82013,459.23682,46,60,45
459.32013,459.73682,46,60,45
460.32013,460.73682,46,60,45
460.82013,461.23682,46,60,45
461.32013,461.73682,46,60,45
462.32013,462.73682,46,60,45
463.32013,463.73682,46,60,45
474.30374,474.54453,41,60,45
474.54965,474.79044,41,60,45
474.79556,475.03632,46,60,45
476.2551,476.49197,48,60,45
476.49704,476.73392,48,60,45
476.73895,476.97586,50,60,45
478.1752,478.40836,55,60,45
478.4133,478.64645,55,60,45
478.6514,478.88455,51,60,45
480.05066,480.27664,51,60,45
480.28143,480.5074,51,60,45
480.5122,480.73816,48,60,45
481.88284,482.10538,41,60,45
482.1101,482.33264,41,60,45
482.33737,482.5599,50,60,45
483.68744,483.90668,48,60,45
483.91132,484.13055,48,60,45
484.13522,484.35443,41,60,45
34.261105,34.636105,50,60,42
34.761105,35.011105,50,60,42
35.261105,36.136105,51,60,42
36.261105,36.636105,50,60,42
36.761105,37.011105,50,60,42
37.261105,38.136105,51,60,42
38.261105,38.636105,49,60,42
38.761105,39.011105,49,60,42
39.261105,40.136105,51,60,42
40.261105,40.636105,49,60,42
40.761105,41.011105,46,65,42
41.261105,42.136105,41,70,42
42.261105,43.677773,46,80,42
43.761105,44.177773,46,80,42
44.261105,45.136105,41,80,42
45.261105,46.136105,46,80,42
46.261105,47.677773,41,80,42
47.761105,48.177773,45,80,42
48.261105,48.677773,46,80,42
48.761105,49.177773,43,80,42
49.261105,49.927773,41,80,42
50.011105,50.255898,39,82,42
50.261105,50.761105,38,82,42
50.761105,51.261105,39,83,42
51.261105,51.677773,38,84,42
51.761105,52.261105,41,86,42
52.261105,52.761105,39,88,42
52.761105,53.261105,41,90,42
53.261105,53.677773,39,92,42
53.761105,54.261105,44,94,42
54.261105,54.761105,43,96,42
54.761105,55.261105,42,98,42
55.261105,55.677773,41,100,42
55.761105,56.778343,40,100,42
56.778343,57.23289,52,80,42
57.3238,57.923798,53,60,42
57.923798,58.21755,46,60,42
67.023796,67.523796,41,100,42
67.523796,68.94047,41,60,42
69.023796,69.44047,43,60,42
69.523796,70.94047,36,60,42
71.023796,71.44047,43,60,42
71.523796,72.76859,36,60,42
73.773796,74.023796,46,100,42
74.023796,74.26859,40,100,42
74.273796,74.398796,40,100,42
74.523796,75.273796,40,80,42
75.273796,75.51859,41,80,42
75.523796,76.273796,38,60,42
76.273796,76.51859,40,60,42
76.523796,77.273796,37,60,42
77.273796,77.51859,38,60,42
77.523796,78.023796,46,60,42
78.023796,78.44047,47,60,42
78.523796,79.023796,48,60,42
79.023796,79.44047,36,60,42
79.523796,81.398796,41,40,42
81.523796,83.398796,41,40,42
83.523796,86.94047,41,40,42
87.023796,87.523796,43,40,42
87.523796,88.023796,36,40,42
88.023796,88.523796,43,40,42
88.523796,88.94047,36,40,42
89.023796,89.523796,43,40,42
89.523796,90.023796,36,50,42
90.023796,90.523796,43,61,42
90.523796,90.76859,36,72,42
91.773796,92.023796,46,100,42
92.023796,92.26859,40,100,42
92.273796,92.398796,40,100,42
92.523796,93.273796,40,100,42
93.273796,93.51859,41,80,42
93.523796,93.76859,36,60,42
94.773796,95.023796,46,100,42
95.023796,95.26859,42,100,42
95.273796,95.398796,42,100,42
95.523796,96.273796,42,100,42
96.273796,96.51859,43,80,42
96.523796,96.76859,38,60,42
97.773796,98.023796,46,100,42
98.023796,98.26859,42,100,42
98.273796,98.398796,42,80,42
98.523796,98.711296,41,60,42
98.773796,98.961296,41,60,42
99.023796,99.211296,41,60,42
99.273796,99.398796,41,60,42
99.523796,99.711296,41,60,42
99.773796,99.961296,41,60,42
100.023796,100.211296,43,60,42
100.273796,100.398796,43,60,42
100.523796,100.76859,45,60,42
100.773796,101.01859,45,60,42
101.023796,101.26859,46,60,42
101.273796,101.51859,45,60,42
101.523796,101.76859,43,60,42
101.773796,102.01859,43,60,42
102.023796,102.26859,43,60,42
102.273796,102.51859,43,60,42
102.523796,102.76859,48,60,42
102.773796,103.01859,48,60,42
103.023796,103.26859,48,60,42
103.273796,103.51859,48,60,42
103.523796,105.398796,41,60,42
105.523796,107.398796,41,60,42
107.523796,110.94047,41,60,42
111.023796,111.523796,41,75,42
111.523796,112.023796,46,77,42
112.023796,112.523796,41,79,42
112.523796,113.023796,46,81,42
113.023796,113.523796,41,83,42
113.523796,113.94047,46,86,42
114.023796,114.523796,48,89,42
114.523796,115.023796,41,92,42
115.023796,115.523796,48,95,42
115.523796,115.76859,41,98,42
115.773796,116.023796,62,100,42
116.023796,116.26859,63,100,42
116.273796,116.398796,63,100,42
116.523796,117.76859,63,100,42
117.773796,118.023796,62,100,42
118.023796,118.273796,60,87,42
118.273796,118.523796,58,74,42
118.523796,118.76859,57,60,42
118.773796,119.023796,62,100,42
119.023796,119.26859,63,100,42
119.273796,119.398796,63,100,42
119.523796,120.023796,63,100,42
120.023796,120.76859,62,100,42
120.773796,121.023796,62,100,42
121.023796,121.273796,59,87,42
121.273796,121.523796,56,74,42
121.523796,121.76859,55,60,42
121.773796,122.023796,62,100,42
122.023796,122.26859,63,100,42
122.273796,122.398796,63,100,42
122.523796,123.523796,63,100,42
123.523796,124.023796,63,60,42
124.023796,124.523796,59,60,42
124.523796,124.94047,56,60,42
125.023796,125.523796,52,60,42
125.523796,126.023796,51,60,42
126.023796,126.523796,52,60,42
126.523796,127.023796,51,60,42
127.023796,127.44047,52,60,42
131.64919,132.14919,45,60,42
132.14919,132.64919,44,80,42
132.64919,133.14919,45,100,42
133.14919,133.56586,54,60,42
135.64919,136.14919,44,60,42
136.14919,136.64919,43,80,42
136.64919,137.14919,44,100,42
137.14919,137.56586,54,60,42
137.64919,138.16643,44,60,42
138.16643,138.59746,54,70,42
138.68367,139.22913,45,80,42
139.22913,139.68367,53,90,42
139.77458,141.19124,46,100,42
141.27458,141.69124,46,100,42
141.77458,142.64958,41,96,42
142.77458,143.64958,46,88,42
143.77458,145.19124,41,80,42
145.27458,145.77458,45,80,42
145.77458,146.27458,46,80,42
146.27458,146.69124,43,80,42
146.77458,147.44124,41,80,42
147.52458,147.76936,39,80,42
147.77458,148.27458,38,80,42
148.27458,148.77458,39,80,42
148.77458,149.19124,38,80,42
149.27458,149.77458,44,82,42
149.77458,150.19124,43,84,42
150.27458,150.77458,43,86,42
150.77458,151.64958,36,88,42
151.77458,152.27458,46,92,42
152.27458,152.77458,45,94,42
152.77458,153.19124,44,96,42
153.27458,153.77458,44,98,42
153.77458,154.27458,38,100,42
154.27458,154.69124,39,80,42
154.77458,155.20561,41,60,42
155.29182,155.55887,46,60,42
155.83728,156.21228,50,60,42
156.33728,156.58728,50,60,42
156.83728,157.71228,51,60,42
157.83728,158.21228,50,60,42
158.33728,158.58728,50,60,42
158.83728,159.71228,51,60,42
159.83728,160.21228,49,60,42
160.33728,160.58728,49,60,42
160.83728,161.71228,51,60,42
161.83728,162.08728,49,60,42
162.33728,162.58728,49,65,42
162.83728,163.71228,49,70,42
163.83728,164.21228,49,80,42
164.33728,164.58728,49,85,42
164.83728,165.71228,42,90,42
165.83728,166.25394,41,100,42
166.33728,167.25394,53,100,42
167.33728,168.25394,41,100,42
168.33728,168.75394,53,80,42
168.83728,169.71228,46,80,42
169.83728,170.25394,41,80,42
170.33728,171.25394,53,80,42
171.33728,171.83728,41,80,42
171.83728,172.33728,46,80,42
172.33728,172.75394,43,80,42
172.83728,173.50394,41,80,42
173.58728,173.83206,39,80,42
173.83728,174.33728,38,80,42
174.33728,174.83728,39,81,42
174.83728,175.25394,38,82,42
175.33728,175.83728,41,84,42
175.83728,176.33728,39,86,42
176.33728,176.83728,41,88,42
176.83728,177.25394,39,90,42
177.33728,177.83728,44,92,42
177.83728,178.33728,43,94,42
178.33728,178.83728,42,96,42
178.83728,179.25394,41,98,42
179.33728,180.25394,40,100,42
180.33728,180.75394,52,100,42
180.83728,181.33728,53,80,42
181.33728,181.58206,46,60,42
182.83728,183.08728,43,80,42
183.33728,183.58728,43,80,42
183.83728,184.71228,45,120,42
184.83728,185.08728,42,80,42
185.33728,185.58728,42,80,42
185.83728,186.25394,43,120,42
186.33728,186.46228,39,80,42
186.58728,186.71228,39,80,42
186.83728,187.25394,41,120,42
187.33728,187.46228,38,80,42
187.58728,187.71228,38,80,42
187.83728,187.96228,40,80,42
188.08728,188.21228,37,80,42
188.33728,188.46228,38,80,42
188.58728,188.71228,46,80,42
188.83728,189.25394,43,80,42
189.33728,189.75394,45,80,42
189.83728,190.25394,50,120,42
190.33728,190.75394,50,120,42
190.83728,191.25394,38,120,42
191.33728,191.75394,38,120,42
191.83728,192.25394,55,120,42
192.33728,192.75394,55,120,42
192.83728,193.25394,43,120,42
193.33728,193.75394,43,120,42
194.83728,195.08728,39,80,42
195.33728,195.58728,39,80,42
195.83728,196.71228,39,120,42
196.83728,197.08728,39,80,42
197.33728,197.58728,39,80,42
197.83728,198.71228,39,120,42
198.83728,199.08728,39,80,42
199.33728,199.58728,39,80,42
199.83728,200.71228,39,120,42
200.83728,201.08728,39,80,42
201.33728,201.58728,39,80,42
201.83728,202.71228,39,120,42
202.83728,203.08728,39,80,42
203.33728,203.58728,39,80,42
203.83728,204.71228,39,120,42
204.83728,205.08728,39,80,42
205.33728,205.58728,39,80,42
205.83728,206.71228,39,120,42
206.83728,207.08728,39,80,42
207.33728,207.58728,39,80,42
207.83728,208.71228,39,120,42
208.83728,209.08728,38,80,42
209.33728,209.58728,39,70,42
209.83728,210.25394,46,60,42
210.83728,211.08728,43,80,42
211.33728,211.58728,43,80,42
211.83728,212.71228,45,120,42
212.83728,213.08728,42,80,42
213.33728,213.58728,42,80,42
213.83728,214.25394,43,120,42
214.33728,214.46228,39,80,42
214.58728,214.71228,39,80,42
214.83728,215.25394,41,120,42
215.33728,215.46228,38,80,42
215.58728,215.71228,38,80,42
215.83728,215.96228,39,80,42
216.08728,216.21228,36,80,42
216.33728,216.46228,50,80,42
216.58728,216.71228,46,80,42
216.83728,217.25394,36,120,42
217.33728,217.75394,38,120,42
217.83728,218.08728,43,80,42
217.83728,218.08728,55,80,42
218.33728,218.58728,43,80,42
218.33728,218.58728,55,80,42
218.83728,219.71228,44,120,42
219.83728,220.08728,41,80,42
220.33728,220.58728,41,80,42
220.83728,221.71228,43,120,42
221.83728,221.96228,39,80,42
222.08728,222.21228,39,80,42
222.33728,222.75394,41,120,42
222.83728,222.96228,38,80,42
223.08728,223.21228,38,80,42
223.33728,223.75394,39,120,42
223.83728,223.96228,36,120,42
224.08728,224.21228,38,80,42
224.33728,224.46228,47,120,42
224.58728,224.71228,48,80,42
224.83728,224.96228,38,120,42
225.08728,225.21228,39,80,42
225.33728,225.46228,36,120,42
225.58728,225.71228,38,80,42
225.83728,225.96228,39,120,42
226.08728,226.21228,41,80,42
226.33728,226.46228,41,120,42
226.58728,226.71228,43,80,42
226.83728,226.96228,43,120,42
227.08728,227.21228,44,80,42
227.33728,227.46228,44,120,42
227.58728,227.71228,46,80,42
227.83728,227.96228,47,120,42
228.08728,228.21228,48,80,42
228.33728,228.46228,47,120,42
228.58728,228.71228,48,80,42
228.83728,228.96228,47,120,42
229.08728,229.21228,48,80,42
229.33728,229.46228,47,120,42
229.58728,229.71228,48,80,42
229.83728,229.96228,48,120,42
230.08728,230.21228,49,80,42
230.33728,230.46228,48,120,42
230.58728,230.71228,49,80,42
230.83728,230.96228,49,120,42
231.08728,231.21228,50,80,42
231.33728,231.46228,49,120,42
231.58728,231.71228,50,80,42
231.83728,231.96228,50,120,42
232.08728,232.21228,51,80,42
232.33728,232.46228,50,120,42
232.58728,232.71228,51,80,42
232.83728,232.96228,50,120,42
233.08728,233.21228,51,78,42
233.33728,233.46228,50,108,42
233.58728,233.71228,51,74,42
233.83728,234.26831,39,72,42
234.87175,235.3263,39,60,42
259.355,259.77167,47,64,42
259.855,260.27167,47,69,42
261.355,261.77167,47,94,42
261.855,262.27167,47,100,42
262.855,263.27167,47,120,42
262.855,263.27167,56,120,42
263.855,264.27167,47,120,42
263.855,264.27167,56,120,42
264.605,264.8498,47,120,42
264.605,264.8498,56,120,42
265.105,265.3498,47,120,42
265.105,265.3498,56,120,42
265.605,265.8498,47,120,42
265.605,265.8498,56,120,42
266.105,266.3498,47,120,42
266.105,266.3498,56,120,42
266.355,269.355,46,100,42
269.355,270.23,46,60,42
270.355,271.23,46,60,42
271.355,272.24484,46,60,42
272.37195,274.42337,41,60,42
274.42337,277.5631,41,55,42
277.5631,279.70596,41,46,42
279.70596,280.66052,41,40,42
280.79688,281.21356,46,40,42
284.79688,286.21356,41,60,42
286.29688,286.79688,57,60,42
286.79688,287.29688,58,60,42
287.29688,287.79688,55,60,42
287.79688,288.21356,53,60,42
292.79688,293.29688,46,60,42
293.29688,293.79688,45,65,42
293.79688,294.21356,44,70,42
294.29688,294.79688,44,75,42
294.79688,295.29688,38,80,42
295.29688,295.71356,39,60,42
295.79688,296.29688,41,60,42
296.29688,296.5417,46,60,42
296.79688,297.17188,50,60,42
297.29688,297.54688,50,60,42
297.79688,298.67188,51,60,42
298.79688,299.17188,50,60,42
299.29688,299.54688,50,60,42
299.79688,300.67188,51,60,42
300.79688,301.17188,49,60,42
301.29688,301.54688,49,60,42
301.79688,302.67188,51,60,42
302.79688,303.17188,49,60,42
303.29688,303.54688,49,60,42
303.79688,304.67188,49,60,42
304.79688,305.17188,49,60,42
305.29688,305.54688,49,70,42
305.79688,306.67188,42,80,42
306.79688,307.17188,42,60,42
307.29688,307.54688,42,60,42
307.79688,308.67188,42,60,42
308.79688,309.17188,42,60,42
309.29688,309.54688,42,60,42
309.79688,310.67188,47,60,42
310.79688,311.21356,42,60,42
311.29688,311.71356,42,60,42
311.79688,312.67188,54,60,42
312.79688,313.67188,54,60,42
313.79688,314.21356,47,60,42
314.29688,314.71356,47,60,42
314.79688,315.67188,59,80,42
315.79688,316.67188,59,60,42
316.79688,317.21356,47,60,42
317.29688,317.71356,47,66,42
317.79688,318.67188,48,72,42
318.79688,319.21356,38,86,42
319.29688,319.71356,38,93,42
319.79688,320.67188,39,100,42
320.79688,321.04688,53,60,42
321.29688,321.54688,46,80,42
321.79688,322.67188,39,100,42
322.79688,323.04688,53,60,42
323.29688,323.54688,46,60,42
323.79688,324.21356,39,60,42
324.79688,325.21356,41,60,42
325.79688,333.21356,46,60,42
333.29688,333.79688,36,60,42
333.79688,334.29688,41,60,42
334.29688,334.79688,36,60,42
334.79688,335.21356,41,60,42
335.29688,335.79688,48,60,42
335.79688,336.29688,41,60,42
336.29688,336.79688,48,68,42
336.79688,337.0417,41,77,42
338.04688,338.29688,51,100,42
338.29688,338.5417,45,100,42
338.54688,338.67188,45,100,42
338.79688,339.54688,45,100,42
339.54688,339.7917,46,80,42
339.79688,340.0417,41,60,42
341.04688,341.29688,51,100,42
341.29688,341.5417,47,100,42
341.54688,341.67188,47,100,42
341.79688,342.54688,47,100,42
342.54688,342.7917,48,80,42
342.79688,343.0417,43,60,42
344.04688,344.29688,51,100,42
344.29688,344.5417,47,100,42
344.54688,344.67188,47,80,42
344.79688,344.98438,46,60,42
345.04688,345.23438,46,60,42
345.29688,345.48438,46,60,42
345.54688,345.67188,46,60,42
345.79688,345.98438,46,60,42
346.04688,346.23438,46,60,42
346.29688,346.48438,48,60,42
346.54688,346.67188,48,60,42
346.79688,347.0417,50,60,42
347.04688,347.2917,50,60,42
347.29688,347.5417,51,60,42
347.54688,347.7917,50,60,42
347.79688,348.0417,48,60,42
348.04688,348.2917,48,60,42
348.29688,348.5417,48,60,42
348.54688,348.7917,48,60,42
348.79688,349.0417,41,60,42
349.04688,349.2917,41,60,42
349.29688,349.5417,41,60,42
349.54688,349.7917,53,60,42
349.79688,351.67188,46,60,42
351.79688,353.67188,46,60,42
353.79688,357.21356,46,60,42
357.29688,357.79688,46,80,42
357.79688,358.21356,39,80,42
358.29688,358.79688,46,80,42
358.79688,359.29688,39,80,42
359.29688,359.79688,46,80,42
359.79688,360.21356,39,80,42
360.29688,360.79688,53,80,42
360.79688,361.29688,46,80,42
361.29688,361.79688,53,85,42
361.79688,362.0417,46,90,42
362.04688,362.29688,67,92,42
362.29688,362.5417,68,94,42
362.54688,362.67188,68,97,42
362.79688,364.0417,68,100,42
364.04688,364.29688,67,100,42
364.29688,364.54688,65,87,42
364.54688,364.79688,63,74,42
364.79688,365.0417,62,60,42
365.04688,365.29688,67,60,42
365.29688,365.5417,68,68,42
365.54688,365.67188,68,76,42
365.79688,366.29688,68,84,42
366.29688,367.0417,67,100,42
367.04688,367.29688,67,100,42
367.29688,367.54688,64,87,42
367.54688,367.79688,61,74,42
367.79688,368.0417,60,60,42
368.04688,368.29688,67,60,42
368.29688,368.5417,68,68,42
368.54688,368.67188,68,76,42
368.79688,369.29688,68,84,42
369.29688,369.79688,68,100,42
369.79688,370.29688,68,60,42
370.29688,370.79688,64,60,42
370.79688,371.21356,61,60,42
371.29688,371.79688,57,60,42
371.79688,372.29688,56,60,42
372.29688,372.79688,57,60,42
372.79688,373.30536,56,60,42
373.30536,373.7291,57,60,42
377.90094,378.40094,38,60,42
378.40094,378.90094,37,80,42
378.90094,379.40094,38,100,42
379.40094,379.8176,47,60,42
381.90094,382.40094,37,60,42
382.40094,382.90094,36,80,42
382.90094,383.40094,37,100,42
383.40094,383.8176,47,60,42
383.90094,384.40094,37,60,42
384.40094,384.64572,47,60,42
384.90094,385.40094,38,60,42
385.40094,385.64572,46,60,42
385.90094,386.40942,39,60,42
386.40942,386.65836,46,60,42
386.91788,387.42636,39,60,42
387.42636,387.6753,46,60,42
387.93484,388.4521,41,60,42
388.4521,388.70532,46,58,42
388.96933,389.48657,42,56,42
389.48657,389.7398,46,54,42
390.0038,390.53012,43,52,42
390.53012,390.78778,48,49,42
391.05643,391.58276,41,47,42
391.58276,391.84042,53,44,42
392.10907,392.5401,46,40,42
393.14355,393.6608,46,64,42
393.6608,393.91403,53,40,42
395.21252,395.72974,53,64,42
395.72974,395.98297,46,40,42
397.28146,397.7987,47,40,42
397.7987,398.05194,48,40,42
399.35043,399.86768,43,40,42
399.86768,400.1209,41,40,42
401.4194,401.93665,38,40,42
401.93665,402.18988,44,40,42
403.48837,404.0056,43,40,42
403.48837,404.0056,50,40,42
404.0056,404.25885,36,40,42
405.57547,406.1018,46,40,42
405.57547,406.1018,56,40,42
406.1018,406.35947,46,40,42
407.69952,408.245,41,40,42
408.245,408.51202,46,40,42
435.29044,435.79044,39,100,42
435.79044,436.29892,44,100,42
436.29892,436.8074,51,100,42
436.8074,437.31586,53,100,42
437.31586,437.7396,55,100,42
437.82434,438.72952,53,100,42
438.85883,439.29742,53,100,42
439.38513,439.82373,58,100,42
439.91144,440.35788,58,100,42
440.44717,440.98288,58,100,42
440.98288,441.42932,55,100,42
441.5186,442.05432,51,100,42
442.05432,442.50073,46,100,42
442.59003,443.12573,39,100,42
443.12573,443.66144,44,100,42
443.66144,444.19717,46,100,42
444.19717,444.73288,48,100,42
444.73288,445.17932,51,100,42
445.2686,445.8043,52,100,42
445.8043,446.34003,53,100,42
446.34003,446.87573,54,100,42
446.87573,447.32217,52,100,42
447.41144,448.34894,53,100,42
448.48288,448.9293,53,100,42
449.0186,449.46503,58,100,42
449.5543,450.4918,53,100,42
450.62573,451.07217,58,100,42
451.16144,451.60788,46,100,42
451.69717,452.42444,53,80,42
452.78806,453.5428,53,80,42
453.92014,455.12015,41,80,42
455.12015,455.92014,41,60,42
464.32013,464.69513,46,60,42
464.82013,465.07013,46,60,42
465.32013,466.19513,46,60,42
466.32013,466.69513,46,60,42
466.82013,467.07013,46,60,42
467.32013,468.19513,46,60,42
468.32013,468.69513,46,60,42
468.82013,469.07013,46,60,42
469.32013,470.19513,46,80,42
470.32013,470.73682,46,80,42
470.82013,471.73682,46,100,42
471.82013,472.73682,46,100,42
472.82013,473.23682,46,80,42
473.32013,473.72998,46,60,42
485.02414,485.13443,41,60,42
485.24472,485.35504,41,60,42
485.46533,485.57562,46,60,42
485.9065,486.01678,48,66,42
486.12708,486.23737,48,69,42
486.3477,486.45798,50,72,42
486.78885,486.89914,51,78,42
487.00943,487.11972,51,81,42
487.23,487.34033,53,84,42
487.6712,487.7815,55,92,42
487.89178,488.00208,55,96,42
488.11237,488.2227,53,100,42
488.55356,488.66385,51,100,42
488.77414,488.88443,51,100,42
488.99472,489.105,50,100,42
489.4359,489.5462,47,80,42
489.6565,489.76678,47,80,42
489.87708,489.98737,48,80,42
490.31827,490.42856,44,60,42
490.53885,490.64914,44,60,42
490.75943,490.86972,45,60,42
491.20062,491.3109,47,60,42
491.4212,491.5315,47,60,42
491.64178,491.75208,48,60,42
492.08295,492.19327,44,60,42
492.30356,492.41385,44,61,42
492.52414,492.63443,45,62,42
492.9653,493.07562,48,64,42
493.1859,493.2962,48,65,42
493.4065,493.51678,50,66,42
493.84766,493.95795,45,68,42
494.06827,494.17856,45,69,42
494.28885,494.39914,46,70,42
494.73,494.8403,50,72,42
494.9506,495.0609,50,73,42
495.1712,495.2815,51,74,42
495.61237,495.72266,47,76,42
495.83295,495.94324,47,77,42
496.05356,496.16385,48,78,42
496.49472,496.605,51,80,42
496.7153,496.8256,51,82,42
496.9359,497.0462,53,84,42
497.37708,497.48737,41,88,42
497.59766,497.70795,41,90,42
497.81824,497.92856,53,92,42
498.25943,498.36972,41,96,42
498.48,498.5903,41,98,42
498.7006,498.81088,53,100,42
499.14178,499.25208,41,100,42
499.36237,499.47266,41,100,42
499.58295,499.69324,53,100,42
500.02414,500.13443,41,100,42
500.24472,500.355,41,100,42
500.4653,500.5756,46,100,42
500.9065,501.01678,53,100,42
501.12708,501.23737,53,100,42
501.34766,501.45795,46,100,42
501.78885,501.89914,41,100,42
502.00943,502.11972,41,100,42
502.23,502.3403,46,100,42
502.67117,502.7815,53,100,42
502.89178,503.00208,53,100,42
503.11237,503.22266,46,100,42
503.55353,503.66382,41,100,42
503.77414,503.88443,41,100,42
503.99472,504.105,46,100,42
504.87708,505.09305,53,100,42
505.31824,505.53424,53,100,42
505.75943,505.9754,46,80,42
506.64178,506.85776,41,100,42
507.08295,507.29895,41,100,42
507.5241,507.7401,46,80,42
508.40646,508.65128,46,100,42
509.40646,510.45648,46,80,42
511.50647,511.80023,46,10,42
