start_time,end_time,note_value,velocity,instrument_program_number
0.833333,1.7187493,58,76,40
1.666666,2.482638,65,76,40
2.499999,2.8472211,64,76,40
2.9166656,3.2638876,65,76,40
3.333332,4.149304,65,76,40
4.166665,4.513887,67,76,40
4.5833316,4.9305534,65,76,40
4.999998,5.81597,65,76,40
5.833331,6.180553,62,76,40
6.2499976,6.5972195,60,76,40
6.666664,7.482636,60,76,40
7.499997,7.847219,58,76,40
7.9166636,8.2638855,60,76,40
8.33333,9.149302,60,76,40
9.166663,9.5138855,58,76,40
9.583329,9.930552,60,76,40
9.999996,10.815968,60,76,40
10.833329,11.180552,58,76,40
11.249995,11.597218,63,76,40
11.666662,12.57812,63,76,40
12.499995,14.131939,65,76,40
14.583327,14.93055,58,75,40
14.999994,15.347216,68,75,40
14.999994,15.347216,58,75,40
15.41666,15.763883,70,75,40
15.41666,15.763883,58,75,40
16.249994,16.597216,58,75,40
16.66666,17.013882,68,75,40
16.66666,17.013882,58,75,40
17.083326,17.430548,70,75,40
17.083326,17.430548,58,75,40
17.91666,18.263882,58,75,40
18.333326,18.680548,58,75,40
18.333326,18.680548,68,75,40
18.749992,19.097214,58,75,40
18.749992,19.097214,70,75,40
19.583326,19.930548,58,75,40
19.999992,20.347214,58,75,40
19.999992,20.347214,65,75,40
20.416658,20.76388,58,75,40
20.416658,20.76388,70,75,40
21.249992,21.597214,58,75,40
21.666658,22.01388,58,75,40
21.666658,22.01388,62,75,40
22.083324,22.430546,70,75,40
22.083324,22.430546,58,75,40
22.916658,23.26388,58,75,40
23.333324,23.680546,63,75,40
23.333324,23.680546,58,75,40
23.74999,24.097212,58,75,40
23.74999,24.097212,67,75,40
24.583324,24.930546,58,75,40
24.99999,25.347212,58,75,40
24.99999,25.347212,63,75,40
25.416656,25.763878,58,74,40
25.416656,25.763878,65,74,40
26.249989,26.597212,58,72,40
26.666656,27.013878,58,71,40
26.666656,27.013878,62,71,40
27.083323,27.430544,58,70,40
27.083323,27.430544,65,70,40
27.499989,28.411448,58,74,40
28.333323,29.24478,59,74,40
29.166655,30.078114,58,74,40
29.999989,30.911446,66,74,40
30.83332,31.58853,65,74,40
31.666655,32.578114,71,74,40
32.49999,33.31596,70,74,40
33.33332,34.244778,66,74,40
34.166653,34.982624,65,74,40
51.666645,53.29859,75,96,40
53.333313,54.965256,74,96,40
55.416645,55.763866,72,96,40
55.83331,56.180534,72,96,40
56.249977,56.5972,75,96,40
56.666645,57.578102,77,96,40
57.499977,58.31595,68,96,40
58.749977,59.661434,67,96,40
59.58331,59.93053,72,96,40
59.999977,60.928795,72,96,40
60.83331,61.623238,66,96,40
61.66664,62.482613,65,96,40
64.99998,66.63192,85,104,40
66.66664,68.298584,83,104,40
68.74997,69.09719,82,104,40
69.16664,69.51386,82,104,40
69.583305,69.93053,85,104,40
69.99997,70.88539,87,104,40
70.833305,71.64928,80,104,40
72.083305,72.43053,78,104,40
72.49997,72.84719,78,104,40
72.91664,73.26386,80,104,40
73.333305,73.68053,78,104,40
73.74997,74.09719,77,104,40
74.16663,74.51386,77,104,40
74.583305,74.93053,78,104,40
74.99997,75.92879,77,104,40
75.833305,76.60587,75,104,40
78.333305,80.91142,66,116,40
80.8333,81.64927,65,116,40
82.0833,82.43052,63,109,40
82.49997,82.84719,63,109,40
82.91663,83.263855,65,109,40
83.3333,83.68052,63,109,40
83.74997,84.09719,61,109,40
84.16663,84.513855,61,109,40
84.5833,84.93052,63,109,40
84.99997,85.88538,61,108,40
85.8333,87.57809,59,108,40
87.49996,88.31593,58,108,40
88.74996,89.09718,56,104,40
89.16663,89.513855,56,104,40
89.5833,89.93052,58,104,40
89.99996,90.34718,56,107,40
90.41663,90.763855,57,107,40
90.8333,91.18052,57,103,40
91.24996,91.59718,58,100,40
91.66663,92.57809,57,100,40
92.49996,93.31593,58,100,40
95.8333,96.71871,58,96,40
96.666626,97.55205,63,96,40
97.49996,98.31593,62,96,40
99.166626,100.07809,58,96,40
99.99996,100.911415,63,96,40
100.83329,101.52774,62,96,40
101.666626,102.4826,65,96,40
102.49996,102.84718,64,96,40
102.916626,103.26385,65,96,40
103.33329,104.14926,65,96,40
104.166626,104.51385,61,96,40
104.58329,104.93051,62,96,40
104.999954,105.81593,62,96,40
105.83329,106.18051,58,96,40
106.249954,106.59718,63,97,40
106.666626,107.187454,63,98,40
107.08329,107.43051,67,99,40
107.499954,107.847176,66,100,40
107.916626,108.26385,67,101,40
108.33329,108.854126,67,102,40
108.749954,109.097176,63,103,40
109.166626,110.7378,63,104,40
110.83329,112.40447,63,104,40
112.499954,114.07114,59,102,40
114.16662,115.7378,58,99,40
115.83329,117.404465,58,95,40
117.499954,118.315926,58,92,40
127.22217,128.13364,66,104,40
128.05551,128.2812,67,104,40
128.33328,129.02176,68,104,40
129.50516,130.24734,66,104,40
130.20828,130.41336,67,104,40
130.44266,131.13113,70,104,40
131.61453,132.35672,67,104,40
132.31766,132.52274,68,104,40
132.55203,133.76785,72,104,40
133.7239,133.92899,74,104,40
133.95828,134.47098,70,104,40
134.42703,134.63211,72,104,40
134.6614,135.1741,68,104,40
135.13016,135.33524,70,104,40
135.36453,135.78934,67,104,40
135.83328,136.09207,63,104,40
136.06766,136.58035,65,104,40
136.5364,136.74149,67,104,40
136.77078,137.9866,68,104,40
137.94266,138.14774,70,104,40
138.17703,138.68973,67,104,40
138.64578,138.85086,68,104,40
138.88016,139.39285,65,104,40
139.3489,139.55399,67,105,40
139.58328,139.98856,63,106,40
140.05203,140.77469,58,107,40
140.75516,140.96024,60,109,40
140.98953,142.18582,62,110,40
142.1614,142.36649,67,113,40
142.39578,142.90848,74,114,40
142.86453,143.06961,79,114,40
143.0989,143.83133,79,114,40
143.80203,144.53445,75,110,40
144.50516,145.19363,72,107,40
145.20828,145.89676,69,104,40
146.26297,146.64871,79,104,40
146.61453,147.00027,75,104,40
146.9661,147.26395,72,104,40
147.31766,148.00613,69,104,40
148.37234,148.75809,79,104,40
148.7239,149.10965,75,104,40
149.07547,149.37332,72,104,40
149.42703,150.11551,69,104,40
150.48172,150.86746,75,104,40
150.83328,151.21902,72,104,40
151.18484,151.51688,69,108,40
151.5364,151.92215,74,111,40
151.88797,152.27371,70,109,40
152.23953,152.62527,67,107,40
152.5911,152.97684,63,105,40
152.94266,153.3284,62,104,40
153.29422,153.60184,60,104,40
153.64578,153.90457,62,104,40
153.88016,154.13895,66,104,40
154.11453,154.31961,69,104,40
154.3489,154.6077,63,104,40
154.58328,154.84207,67,104,40
154.81766,155.07645,71,104,40
155.05203,155.31082,74,104,40
155.2864,155.5452,72,104,40
155.52078,155.72586,67,104,40
155.75516,156.01395,62,104,40
155.98953,156.24832,66,104,40
156.2239,156.42899,69,104,40
156.45828,156.71707,63,104,40
156.69266,156.95145,67,104,40
156.92703,157.18582,71,104,40
157.1614,157.4202,74,104,40
157.39578,157.65457,72,104,40
157.63016,157.83524,67,104,40
157.86453,158.12332,65,104,40
158.0989,158.3577,69,104,40
158.33328,158.53836,72,104,40
158.56766,158.82645,66,104,40
158.80203,159.06082,69,104,40
159.0364,159.2952,72,104,40
159.27078,159.52957,77,104,40
159.50516,159.70047,75,104,40
159.73953,159.93484,66,116,40
159.73953,159.93484,57,116,40
159.9739,160.43289,67,116,40
159.9739,160.43289,55,116,40
168.88016,169.33914,74,96,40
169.58328,169.78836,75,96,40
169.81766,170.30594,77,96,40
170.2864,171.0286,80,96,40
170.98953,171.21902,79,96,40
173.0989,173.55789,79,96,40
173.80203,174.07059,80,98,40
174.0364,174.53445,82,99,40
174.50516,175.24734,85,100,40
175.20828,175.43777,84,103,40
175.9114,176.1702,74,105,40
176.14578,176.63406,75,106,40
176.61453,177.3323,79,108,40
177.31766,177.54715,77,110,40
177.7864,178.05496,78,111,40
178.02078,178.25027,79,112,40
178.48953,178.75809,79,114,40
178.7239,178.92899,82,115,40
178.95828,180.35477,80,115,40
180.36453,181.03348,80,116,40
181.06766,182.44461,81,116,40
182.4739,183.9241,81,116,40
183.88016,184.33914,74,116,40
185.05203,185.23758,71,116,40
185.05203,185.23758,62,116,40
185.2864,185.62332,72,116,40
185.2864,185.62332,63,116,40
185.98953,186.25809,69,96,40
186.2239,186.49246,57,96,40
186.45828,186.72684,69,96,40
186.69266,186.96121,57,96,40
186.92703,187.19559,69,96,40
187.1614,187.35672,57,96,40
187.39578,187.67899,69,96,40
187.63016,187.91336,57,96,40
187.86453,188.14774,69,96,40
188.0989,188.38211,57,96,40
188.33328,188.61649,69,96,40
188.56766,188.85086,57,96,40
188.80203,189.08524,69,96,40
189.0364,189.31961,57,96,40
189.27078,189.4661,69,96,40
189.50516,189.79813,69,96,40
189.73953,190.0325,57,96,40
189.9739,190.26688,69,96,40
190.20828,190.50125,57,96,40
190.44266,190.73563,69,96,40
190.67703,190.97,57,96,40
190.9114,191.20438,67,96,40
191.14578,191.43875,55,96,40
191.38016,191.57547,67,96,40
191.61453,191.9075,71,96,40
191.8489,192.14188,59,96,40
192.08328,192.37625,71,96,40
192.31766,192.61063,59,96,40
192.55203,192.845,71,96,40
192.7864,193.07938,59,96,40
193.02078,193.31375,70,96,40
193.25516,193.54813,58,96,40
193.48953,193.68484,70,96,40
193.7239,194.01688,71,96,40
193.95828,194.25125,59,96,40
194.19266,194.48563,71,96,40
194.42703,194.72,59,96,40
194.6614,194.95438,71,96,40
194.89578,195.18875,59,96,40
195.13016,195.42313,72,96,40
195.36453,195.6575,60,99,40
195.5989,195.79422,72,102,40
195.83328,196.12625,67,103,40
196.06766,196.36063,63,101,40
196.30203,196.49734,67,98,40
196.5364,196.94168,66,96,40
196.5364,196.94168,57,96,40
197.00516,197.74734,73,96,40
197.70828,197.91336,74,96,40
197.94266,198.63113,75,96,40
199.11453,199.85672,73,96,40
199.81766,200.02274,74,96,40
200.05203,200.74051,77,96,40
201.2239,201.9661,74,96,40
201.92703,202.13211,75,96,40
202.1614,205.00809,80,96,40
204.9739,205.60867,78,96,40
205.67703,207.12723,76,96,40
207.08328,207.73758,74,96,40
207.7864,209.21707,72,96,40
209.19266,209.85672,70,96,40
209.89578,210.40848,74,96,40
210.36453,210.56961,72,96,40
210.5989,212.03934,70,96,40
212.00516,212.69363,69,96,40
212.70828,213.16727,67,96,40
214.82742,217.66922,75,104,40
217.63016,218.3577,74,96,40
218.33328,219.06082,73,96,40
219.0364,219.76395,74,96,40
219.73953,220.46707,72,96,40
220.44266,221.05301,69,96,40
221.14578,221.86356,67,96,40
221.8489,222.56668,69,101,40
222.55203,223.04031,70,106,40
223.02078,223.20633,74,109,40
223.27469,224.72488,74,111,40
224.6614,225.3157,72,96,40
225.36453,227.44461,70,96,40
227.4739,229.55399,69,96,40
229.58328,231.75414,67,94,40
231.78487,234.05,66,92,40
234.08205,236.10127,65,90,40
237.9282,238.74016,58,88,40
238.69743,240.78658,65,88,40
256.06223,256.8782,70,96,40
256.89557,257.37302,77,96,40
257.31223,257.65945,76,96,40
257.7289,258.07614,76,96,40
258.14557,258.4928,77,96,40
258.56223,259.03967,77,96,40
258.9789,259.3261,79,96,40
259.39557,259.7428,79,96,40
259.81223,260.15945,77,96,40
260.2289,260.70633,77,96,40
260.64557,260.9928,74,96,40
261.06223,261.40945,74,96,40
261.4789,261.8261,72,96,40
261.89557,262.373,72,96,40
262.31223,262.65945,70,96,40
262.7289,263.0761,70,96,40
263.14557,263.4928,72,96,40
263.56223,264.03967,72,96,40
263.9789,264.3261,70,96,40
264.39557,264.7428,70,96,40
264.81223,265.15945,72,96,40
265.2289,265.70633,72,96,40
265.64557,265.9928,70,96,40
266.06223,266.40945,70,96,40
266.4789,266.8261,75,96,40
266.89557,267.7636,75,96,40
267.7289,269.30008,77,96,40
269.39557,270.28098,58,96,40
270.2289,271.11432,59,96,40
271.06223,271.94766,58,96,40
271.89557,272.78098,66,96,40
272.7289,273.4841,65,96,40
273.56223,274.4737,71,96,40
274.39557,275.30704,70,96,40
275.2289,276.14035,66,96,40
276.06223,276.80008,65,96,40
276.89557,277.71155,65,96,40
277.72888,278.0761,64,96,40
278.14557,278.4928,65,96,40
278.56223,279.3782,65,96,40
279.39557,279.7428,61,96,40
279.81223,280.15945,62,96,40
280.22888,281.04486,62,96,40
281.06223,281.40945,58,97,40
281.47888,281.8261,63,97,40
281.89557,282.35562,63,98,40
282.31223,282.65945,67,99,40
282.72888,283.0761,66,99,40
283.14557,283.4928,67,100,40
283.56223,284.0223,67,100,40
283.97888,284.3261,63,101,40
284.39557,285.94937,63,102,40
286.06223,287.61606,63,104,40
287.72888,289.2827,59,102,40
289.39557,290.94937,58,100,40
291.06223,292.61606,58,98,40
292.72888,293.54486,58,98,40
302.4511,303.31915,69,104,40
303.28445,303.50146,70,104,40
303.56223,304.2507,71,104,40
304.7341,305.46652,69,104,40
305.43723,305.6423,70,104,40
305.6716,306.36008,73,104,40
306.84348,307.5759,70,104,40
307.5466,307.75168,71,104,40
307.78098,308.98703,75,104,40
308.95285,309.15793,77,104,40
309.18723,309.6755,73,104,40
309.65598,309.86105,75,104,40
309.89035,310.37863,71,104,40
310.3591,310.56418,73,104,40
310.59348,311.02805,70,104,40
311.06223,311.33078,66,104,40
311.2966,311.78488,68,104,40
311.76535,311.97043,70,104,40
311.99973,313.19113,71,104,40
313.1716,313.37668,73,104,40
313.40598,313.89426,70,104,40
313.87473,314.0798,71,104,40
314.1091,314.60715,68,104,40
314.57785,314.78293,70,104,40
314.81223,315.20285,66,104,40
315.28098,315.99875,61,104,40
315.9841,316.18918,63,106,40
316.21848,317.43918,65,107,40
317.39035,317.59543,70,112,40
317.62473,318.12277,77,113,40
318.09348,318.29855,82,114,40
318.32785,319.06027,82,112,40
319.03098,319.7634,78,109,40
319.7341,320.39816,75,106,40
320.43723,321.1257,72,104,40
321.6091,321.87766,73,104,40
321.84348,322.34152,80,107,40
322.31223,322.5173,85,112,40
322.55637,323.30344,85,114,40
323.24973,323.9919,82,114,40
323.95285,324.60715,78,114,40
324.65598,325.3884,82,113,40
325.3591,326.09152,78,110,40
326.06223,326.71652,75,107,40
326.76535,327.22433,72,104,40
332.39035,333.13254,61,104,40
333.09348,335.94504,68,104,40
335.90598,336.36496,66,107,40
336.6091,338.0593,64,108,40
338.01535,338.47433,62,109,40
338.71848,340.16867,60,110,40
340.12473,340.5837,58,111,40
340.82785,341.34055,61,112,40
341.2966,341.50168,60,113,40
341.53098,342.9714,58,113,40
342.93723,343.6013,57,115,40
343.64035,344.09933,58,115,40
345.7595,348.61105,78,112,40
348.56223,349.3044,77,96,40
349.26535,350.00754,76,96,40
349.96848,350.71066,77,96,40
350.6716,351.4138,75,96,40
351.37473,352.01926,72,96,40
352.07785,352.82004,70,96,40
352.78098,353.52316,72,101,40
353.4841,353.9968,73,106,40
353.95285,354.14816,77,110,40
354.20676,355.6472,77,112,40
355.59348,356.24777,75,96,40
356.2966,358.39133,73,96,40
358.40598,360.5007,72,96,40
360.51535,362.70157,70,96,40
362.71692,364.93933,69,93,40
365.0141,367.3058,68,88,40
368.86026,369.67224,61,96,40
369.6295,371.71863,68,96,40
388.0943,388.9443,61,88,40
388.89432,389.7443,69,88,40
389.6943,390.47763,68,88,40
391.2943,392.14432,73,88,40
392.0943,392.9443,69,88,40
392.89432,393.67764,68,88,40
394.4943,395.3443,63,88,40
395.2943,396.14432,71,88,40
396.0943,396.87762,70,88,40
397.6943,398.5443,75,89,40
398.4943,399.3443,71,90,40
399.2943,400.07764,70,90,40
400.89432,401.7443,77,91,40
401.6943,402.5443,73,92,40
402.4943,403.20264,72,92,40
403.2943,404.14432,71,93,40
404.0943,404.80264,70,93,40
404.89432,405.7443,69,94,40
405.6943,406.40265,68,94,40
406.4943,407.25262,71,95,40
407.2943,407.62762,70,95,40
407.6943,408.02765,71,96,40
408.0943,410.136,71,96,40
410.0943,410.4443,72,98,40
410.4943,410.9651,72,98,40
410.8839,411.22482,73,99,40
411.27353,411.7443,73,99,40
411.66315,412.00406,75,99,40
412.05273,412.52353,75,100,40
412.44235,412.78326,76,100,40
412.83197,413.5284,76,100,40
413.61887,413.9478,75,101,40
414.0136,414.34256,76,102,40
414.40836,416.4367,76,102,40
416.38202,416.71014,77,104,40
416.75702,417.17108,77,104,40
417.13202,417.46014,78,105,40
417.50702,417.92108,78,105,40
417.88202,418.21014,79,105,40
418.25702,418.67108,79,106,40
418.63202,418.96014,80,106,40
419.00702,419.6689,80,106,40
419.7367,420.0379,79,107,40
420.09814,420.39935,80,108,40
420.4596,422.3346,80,108,40
422.2668,422.58307,81,110,40
422.62827,423.04242,81,110,40
422.98972,423.2382,80,111,40
423.35117,424.0343,80,111,40
424.04883,424.33954,79,112,40
424.39767,424.68835,80,112,40
424.7465,426.51248,80,112,40
426.4907,426.79593,82,114,40
426.83954,427.2247,82,115,40
427.18835,427.4936,80,115,40
427.5372,427.92236,80,116,40
427.88605,428.17673,79,116,40
428.23486,428.52557,79,116,40
428.5837,428.87442,80,116,40
428.93256,429.31772,80,116,40
429.28137,429.57208,82,116,40
429.63022,429.92093,82,116,40
429.97906,430.26974,80,116,40
430.32788,430.71307,80,116,40
430.67673,430.96744,77,116,40
431.02557,431.31625,77,116,40
431.37442,431.6651,75,116,40
431.72324,432.10843,75,116,40
432.07208,432.36276,74,116,40
432.42093,432.7116,77,116,40
432.76974,433.06046,81,116,40
433.1186,433.50375,82,116,40
433.46744,433.75812,81,116,40
433.81625,434.10696,81,116,40
434.1651,434.4558,82,116,40
434.51395,434.8991,82,116,40
434.86276,435.15347,84,116,40
435.2116,435.50232,84,116,40
435.56046,435.85114,82,116,40
435.9093,436.29446,82,116,40
436.25812,436.54883,79,116,40
436.60696,436.89764,79,116,40
436.9558,437.2465,77,116,40
437.30463,437.68982,77,116,40
437.65347,437.94418,74,116,40
438.00232,438.293,74,116,40
438.35114,438.64185,75,116,40
438.69998,439.08514,77,121,40
439.04883,439.3395,74,116,40
439.39764,439.68835,74,116,40
439.7465,440.0372,75,116,40
440.44415,440.73486,74,115,40
440.793,441.0837,74,115,40
441.14185,441.43253,75,114,40
441.4907,441.89038,76,117,40
441.8395,442.13022,74,113,40
442.18835,442.47906,74,112,40
442.5372,442.82788,75,111,40
443.5837,443.8744,63,111,40
443.5837,443.8744,74,111,40
443.93253,444.22324,75,108,40
443.93253,444.22324,63,108,40
444.97903,445.26974,63,108,40
444.97903,445.26974,74,108,40
445.32788,445.6186,63,106,40
445.32788,445.6186,75,106,40
446.3744,446.67926,63,109,40
446.3744,446.67926,74,109,40
446.74026,447.04514,75,103,40
446.74026,447.04514,63,103,40
447.8378,448.1427,63,108,40
447.8378,448.1427,72,108,40
448.20367,448.50854,73,102,40
448.20367,448.50854,63,102,40
449.32352,449.644,63,107,40
449.32352,449.644,71,107,40
449.70813,450.02863,63,101,40
449.70813,450.02863,72,101,40
450.86197,451.18246,70,106,40
450.86197,451.18246,63,106,40
451.24658,451.56708,63,100,40
451.24658,451.56708,71,100,40
452.4251,452.75842,68,105,40
452.4251,452.75842,59,105,40
452.8251,453.15845,69,99,40
452.8251,453.15845,59,99,40
454.02512,454.35843,59,104,40
454.02512,454.35843,67,104,40
454.4251,454.76642,59,98,40
454.4251,454.76642,68,98,40
455.65683,456.46164,58,97,40
455.65683,456.46164,62,97,40
457.30066,458.10547,63,96,40
457.30066,458.10547,58,96,40
458.94452,459.7493,63,94,40
458.94452,459.7493,60,94,40
460.58835,461.39313,55,93,40
460.58835,461.39313,63,93,40
462.23218,463.03696,56,92,40
462.23218,463.03696,62,92,40
463.876,464.68082,63,91,40
463.876,464.68082,55,91,40
465.51984,466.32465,62,90,40
465.51984,466.32465,56,90,40
467.16367,467.96848,63,89,40
467.16367,467.96848,55,89,40
468.8075,469.5695,56,88,40
468.8075,469.5695,62,88,40
469.62943,471.1962,56,88,40
469.62943,471.1962,62,88,40
471.27325,473.79895,56,88,40
471.27325,473.79895,62,88,40
473.739,474.4839,63,88,40
473.739,474.4839,55,88,40
474.56094,476.1106,55,88,40
474.56094,476.1106,63,88,40
476.20477,478.5752,55,88,40
476.20477,478.5752,63,88,40
481.65854,482.3252,41,1,40
14.166661,14.991313,58,70,60
14.999994,15.55555,65,70,60
15.833327,16.241312,64,80,60
16.249994,16.527771,65,70,60
16.66666,17.222216,65,70,60
17.499992,17.907978,67,70,60
17.91666,18.194437,65,70,60
18.333326,18.888882,65,70,60
19.166658,19.574644,62,70,60
19.583326,19.861103,60,70,60
19.999992,20.555548,60,70,60
20.833324,21.24131,58,70,60
21.249992,21.52777,60,70,60
21.666658,22.222214,60,70,60
22.49999,22.907976,58,70,60
22.916658,23.194435,60,70,60
23.333324,23.88888,60,70,60
24.166656,24.574642,58,70,60
24.583324,24.861101,63,70,60
24.99999,25.824642,63,70,60
25.833323,27.222212,65,70,60
29.166655,29.991308,58,100,60
29.999989,30.82464,63,86,60
30.83332,31.388876,62,71,60
32.49999,33.32464,58,100,60
33.33332,34.157974,63,86,60
34.166653,34.72221,62,71,60
34.999985,35.555542,68,85,60
35.83332,36.241306,67,85,60
36.249985,36.527763,68,85,60
36.666653,37.222206,68,85,60
37.499985,37.90797,70,85,60
37.916653,38.194427,68,85,60
38.333317,38.888874,68,85,60
39.166653,39.57464,65,85,60
39.583317,39.861095,63,85,60
39.999985,40.55554,63,85,60
40.833317,41.241302,62,85,60
41.249985,41.52776,63,85,60
41.66665,42.222206,63,85,60
42.499985,42.90797,62,85,60
42.91665,43.194427,63,85,60
43.333317,43.88887,63,85,60
44.16665,44.574635,58,85,60
44.583317,44.86109,51,85,60
44.99998,46.657967,58,85,60
46.66665,49.157967,56,85,60
49.16665,49.9913,55,71,60
61.66664,62.777752,70,60,60
63.33331,64.44442,68,63,60
65.41664,65.69442,66,68,60
65.833305,66.241295,66,69,60
66.24998,66.52775,68,69,60
66.66664,67.491295,66,70,60
67.49997,68.05553,65,72,60
68.333305,68.88886,66,74,60
69.16664,69.57462,54,76,60
69.583305,69.861084,66,77,60
69.99997,71.111084,66,78,60
72.083305,72.361084,70,82,60
72.49997,72.90796,70,83,60
72.91664,73.19441,71,84,60
73.333305,73.74129,70,85,60
73.74997,74.02775,68,86,60
74.16663,74.57462,68,87,60
74.583305,74.861084,70,88,60
74.99997,75.40796,68,89,60
75.41663,75.69441,66,89,60
75.833305,76.388855,66,90,60
78.333305,80.82462,70,96,60
80.8333,81.65795,68,100,60
82.0833,82.36108,66,100,60
82.49997,82.90795,66,100,60
82.91663,83.19441,68,100,60
83.3333,83.74129,66,100,60
83.74997,84.02774,65,100,60
84.16663,84.574615,65,100,60
84.5833,84.86108,66,100,60
84.99997,85.824615,65,100,60
85.8333,87.49129,63,96,60
87.49996,88.05552,61,86,60
88.74996,89.02774,59,85,60
89.16663,89.574615,59,87,60
89.5833,89.86108,61,89,60
89.99996,90.40795,59,92,60
90.41663,90.694405,60,94,60
90.8333,91.24128,60,97,60
91.24996,91.52774,62,99,60
91.66663,92.49128,60,100,60
92.49996,93.05552,58,85,60
94.166626,94.99128,58,85,60
94.99996,95.824615,59,89,60
95.8333,96.65794,58,94,60
96.666626,97.49128,66,99,60
97.49996,98.05552,65,100,60
98.3333,99.15794,71,100,60
99.166626,99.72218,70,96,60
99.99996,100.824615,66,91,60
100.83329,101.38885,65,86,60
101.666626,102.22218,68,100,60
102.49996,102.90794,67,97,60
102.916626,103.194405,68,95,60
103.33329,103.88885,68,93,60
104.166626,104.57461,70,89,60
104.58329,104.86107,68,87,60
104.999954,105.55551,68,86,60
105.83329,106.24128,69,100,60
106.249954,106.52773,70,100,60
106.666626,107.222176,70,100,60
107.499954,107.90794,72,100,60
107.916626,108.194405,70,100,60
108.33329,108.88885,70,100,60
109.166626,109.57461,67,100,60
109.58329,109.86107,68,98,60
109.999954,110.55551,68,95,60
110.83329,111.24127,67,89,60
111.249954,111.52773,68,86,60
111.66662,112.222176,68,83,60
112.499954,112.90794,63,77,60
112.91662,113.1944,56,74,60
113.33329,113.88884,63,71,60
114.16662,114.57461,62,70,60
114.58329,114.86107,63,70,60
114.999954,115.55551,63,69,60
115.83329,116.24127,62,67,60
116.249954,116.52773,63,66,60
116.66662,117.222176,63,65,60
117.499954,117.907936,58,63,60
117.91662,118.1944,51,62,60
118.33328,118.88884,58,61,60
119.16662,120.82461,58,70,60
120.83328,122.49127,56,66,60
122.499954,123.055504,55,61,60
124.16662,124.722176,55,60,60
133.25516,134.65652,63,70,60
134.6614,135.35965,62,70,60
135.36453,135.67703,58,70,60
137.4739,138.87527,63,75,60
138.88016,139.5784,62,75,60
139.58328,139.89578,58,75,60
140.2864,141.4534,55,70,60
141.45828,141.61453,58,94,60
141.69266,142.15652,67,99,60
142.1614,142.31766,70,99,60
142.39578,143.79715,70,100,60
143.80203,144.50027,67,100,60
144.50516,144.9739,63,93,60
145.20828,145.67703,62,86,60
167.4739,168.17215,63,75,60
168.17703,168.33328,62,75,60
171.69266,172.3909,68,80,60
172.39578,172.55203,67,80,60
175.20828,175.90652,63,85,60
175.9114,176.06766,62,85,60
177.31766,178.0159,68,85,60
178.02078,178.17703,67,91,60
178.7239,178.88016,70,97,60
178.95828,179.27078,68,99,60
185.05203,185.20828,55,100,60
185.2864,185.5989,67,100,60
185.98953,190.90652,66,100,60
190.9114,191.38016,67,85,60
191.61453,193.0159,62,85,60
193.02078,193.48953,63,85,60
193.7239,194.42215,62,85,60
194.42703,194.73953,65,85,60
195.13016,195.8284,60,85,60
195.83328,196.53152,63,85,60
196.5364,196.8489,62,85,60
201.45828,202.15652,70,85,60
202.1614,204.04129,71,85,60
204.27078,205.20828,70,73,60
205.67703,207.31766,66,65,60
207.7864,209.42703,62,60,60
209.89578,210.59402,63,71,60
210.5989,212.00027,62,74,60
212.00516,212.4739,60,70,60
212.70828,213.02078,58,70,60
214.81766,216.69754,63,100,60
216.92703,217.39578,63,93,60
217.63016,218.3284,62,91,60
218.33328,218.80203,61,88,60
219.0364,220.43777,62,86,60
220.44266,220.9114,60,75,60
221.14578,221.84402,58,75,60
221.8489,222.54715,62,70,60
222.55203,223.0159,67,79,60
223.02078,223.17703,70,86,60
223.25516,224.65652,70,89,60
224.6614,225.13016,69,90,60
225.36453,226.7659,67,90,60
226.77078,227.23953,62,80,60
227.4739,229.35379,60,80,60
229.58328,231.5441,58,80,60
231.78487,233.83098,57,74,60
234.08205,236.13867,56,67,60
242.72113,243.5564,58,80,60
243.56224,244.1178,65,80,60
244.39558,244.80356,64,90,60
244.81224,245.09003,65,80,60
245.22891,245.78447,65,80,60
246.06224,246.47023,67,80,60
246.47891,246.75668,65,80,60
246.89557,247.45113,65,80,60
247.72891,248.1369,62,80,60
248.14557,248.42336,60,80,60
248.56224,249.1178,60,80,60
249.39557,249.80356,58,80,60
249.81224,250.09001,60,80,60
250.22891,250.78447,60,80,60
251.06224,251.47023,58,80,60
251.47891,251.75668,60,80,60
251.89557,252.45113,60,80,60
252.72891,253.13689,58,76,60
253.14557,253.42336,63,73,60
253.56224,254.38689,63,71,60
254.39557,255.78445,65,66,60
256.4789,256.75668,58,80,60
256.89557,257.30356,68,80,60
257.31223,257.59003,67,80,60
257.7289,258.1369,67,80,60
258.14557,258.42334,68,80,60
258.56223,258.9702,68,80,60
258.9789,259.25668,70,80,60
259.39557,259.80356,70,80,60
259.81223,260.09003,68,80,60
260.2289,260.78445,68,80,60
261.06223,262.17334,68,80,60
262.7289,263.84003,62,80,60
264.39557,265.50668,63,80,60
266.06223,266.8869,55,80,60
266.89557,269.1178,58,80,60
271.06223,271.88687,58,100,60
271.89557,272.7202,63,93,60
272.7289,273.28445,62,86,60
274.39557,275.2202,58,90,60
275.2289,276.05356,63,83,60
276.06223,276.6178,62,76,60
276.89557,277.4511,68,75,60
277.72888,278.13687,67,75,60
278.14557,278.42334,68,75,60
278.56223,279.1178,68,75,60
279.39557,279.80356,70,75,60
279.81223,280.09,68,75,60
280.22888,280.78445,68,75,60
281.06223,281.4702,69,85,60
281.47888,281.75668,70,85,60
281.89557,282.4511,70,85,60
282.72888,283.13687,72,85,60
283.14557,283.42334,70,85,60
283.56223,284.1178,70,85,60
284.39557,284.80356,67,80,60
284.81223,285.09,68,80,60
285.22888,285.78445,68,79,60
286.06223,286.4702,67,77,60
286.47888,286.75668,68,76,60
286.89557,287.4511,68,75,60
287.72888,288.13687,63,73,60
288.14557,288.42334,56,72,60
288.56223,289.11777,63,71,60
289.39557,289.80356,62,70,60
289.81223,290.09,63,70,60
290.22888,290.78445,63,70,60
291.06223,291.4702,62,70,60
291.47888,291.75668,63,70,60
291.89557,292.4511,63,70,60
292.72888,293.13687,58,70,60
293.14557,293.42334,51,66,60
293.56223,294.11777,58,61,60
294.39557,295.50665,58,60,60
296.06223,297.4511,56,60,60
297.72888,298.28445,55,60,60
299.39557,299.9511,55,60,60
301.06223,301.61777,54,60,60
302.72888,303.28445,54,60,60
308.4841,309.88547,66,70,60
309.89035,310.5886,65,70,60
310.59348,311.06223,61,70,60
312.70285,314.10422,66,70,60
314.1091,314.80734,65,70,60
314.81223,315.28098,61,70,60
315.51535,316.53098,58,70,60
316.68723,317.38547,58,70,60
317.39035,317.5466,61,70,60
317.62473,318.7966,61,70,60
319.03098,319.72922,70,80,60
319.7341,320.20285,66,71,60
320.43723,320.90598,65,61,60
321.84348,322.54172,61,85,60
322.5466,324.42648,70,85,60
324.65598,325.12473,66,70,60
327.93723,328.63547,64,65,60
328.64035,328.7966,65,66,60
328.87473,329.34348,66,67,60
330.0466,330.74484,64,70,60
330.74973,330.90598,65,72,60
330.9841,331.45285,68,73,60
332.15598,332.85422,65,76,60
332.8591,333.01535,66,78,60
333.09348,334.97336,71,85,60
335.90598,336.37473,69,90,60
336.6091,338.01047,67,91,60
338.01535,338.32785,65,94,60
338.71848,340.11984,63,95,60
340.12473,340.59348,61,98,60
340.82785,341.29172,65,99,60
341.2966,341.45285,63,100,60
341.53098,342.93234,61,98,60
342.93723,343.40598,60,80,60
343.64035,343.95285,58,71,60
345.74973,347.6296,66,100,60
348.56223,349.26047,65,87,60
349.26535,349.7341,64,74,60
349.96848,351.36984,65,61,60
351.37473,351.84348,63,70,60
352.07785,352.7761,62,77,60
352.78098,353.47922,65,84,60
353.4841,353.94797,70,92,60
353.95285,354.1091,62,97,60
354.18723,355.5886,61,100,60
355.59348,356.06223,60,90,60
356.2966,358.4011,65,85,60
358.40598,360.51047,63,70,60
360.51535,362.71182,61,68,60
362.71692,365.00876,60,65,60
365.0141,367.31647,59,63,60
373.6532,374.48846,61,65,60
374.4943,375.02765,68,65,60
375.2943,375.68597,67,65,60
375.6943,375.96097,68,65,60
376.0943,376.62762,68,65,60
376.89432,377.28598,70,65,60
377.2943,377.56097,68,65,60
377.6943,378.22763,68,65,60
378.4943,378.886,65,65,60
378.89432,379.16098,63,65,60
379.2943,379.82764,63,65,60
380.0943,380.48596,61,65,60
380.4943,380.761,63,65,60
380.89432,381.42764,63,65,60
381.6943,382.08597,61,65,60
382.0943,382.36096,63,65,60
382.4943,383.02765,63,65,60
383.2943,383.68597,61,65,60
383.6943,383.96097,66,65,60
384.0943,384.886,66,65,60
384.89432,386.22763,68,65,60
388.0943,388.886,61,65,60
388.89432,389.68597,66,65,60
389.6943,390.22763,65,65,60
391.2943,392.08597,61,65,60
392.0943,392.886,66,65,60
392.89432,393.68597,65,65,60
394.4943,395.28598,63,65,60
395.2943,396.08597,68,67,60
396.0943,396.62762,67,69,60
397.6943,398.48596,63,74,60
398.4943,399.28598,68,76,60
399.2943,399.82764,67,78,60
400.89432,401.68597,65,83,60
401.6943,402.48596,70,85,60
402.4943,403.02765,69,88,60
403.2943,404.08597,68,90,60
404.0943,404.62762,67,92,60
404.89432,405.68597,66,95,60
405.6943,406.22763,65,97,60
406.4943,407.28598,65,100,60
407.2943,408.08597,66,97,60
408.0943,408.886,68,93,60
408.89432,409.68597,66,89,60
409.6943,410.22763,65,86,60
413.61887,414.40012,66,85,60
414.40836,415.1896,70,89,60
415.1978,415.97906,71,94,60
415.9873,416.50702,73,99,60
419.7367,420.45206,70,100,60
420.4596,421.17496,71,100,60
421.1825,421.89783,68,93,60
421.90536,422.3873,64,86,60
424.04883,424.73923,73,100,60
424.7465,425.43692,74,100,60
425.44418,426.13458,71,100,60
426.14185,426.83224,70,100,60
426.83954,427.30463,68,100,60
427.5372,428.2276,65,100,60
428.23486,429.39767,58,100,60
429.63022,430.32062,65,100,60
430.32788,431.0183,68,100,60
431.02557,431.4907,58,100,60
432.42093,433.11133,65,100,60
433.1186,433.809,70,100,60
433.81625,434.28137,63,100,60
435.2116,435.902,70,100,60
435.9093,436.5997,73,100,60
436.60696,437.07208,63,100,60
438.00232,438.69272,67,100,60
438.69998,439.39038,68,100,60
439.39764,439.86276,63,100,60
440.793,441.4834,67,100,60
441.4907,442.1811,68,94,60
442.18835,442.65347,63,87,60
443.5837,444.04883,63,74,60
444.97903,445.44415,67,61,60
446.3744,446.8622,67,65,60
447.8378,448.32562,67,65,60
449.32352,449.83633,68,65,60
450.86197,451.3748,68,65,60
452.4251,452.95844,66,65,60
454.02512,454.41678,67,65,60
454.4251,454.69794,68,65,60
455.65683,456.05923,67,65,60
456.0678,456.34177,68,65,60
457.30066,457.70306,66,65,60
457.71164,457.9856,67,65,60
458.94452,459.3469,64,65,60
459.35547,459.62943,65,65,60
460.58835,460.99072,69,65,60
460.9993,461.2733,70,65,60
462.23218,462.63458,69,65,60
462.64313,462.9171,70,65,60
463.05408,463.86743,70,65,60
463.876,464.42395,63,65,60
465.51984,465.92224,69,70,60
465.9308,466.20477,70,70,60
466.34177,467.15512,70,70,60
467.16367,467.7116,63,70,60
468.8075,469.2099,69,70,60
469.21848,469.49243,70,70,60
469.62943,470.7253,70,70,60
471.27325,473.73044,70,70,60
473.739,474.28696,63,70,60
474.56094,475.65683,63,65,60
476.20477,478.6377,63,65,60
2.499999,3.315971,70,56,0
2.499999,3.315971,56,56,0
2.499999,3.315971,58,56,0
2.499999,3.315971,62,56,0
4.166665,4.982637,58,56,0
4.166665,4.982637,70,56,0
4.166665,4.982637,56,56,0
4.166665,4.982637,65,56,0
5.833331,6.649303,56,56,0
5.833331,6.649303,58,56,0
5.833331,6.649303,70,56,0
5.833331,6.649303,62,56,0
7.499997,8.3159685,70,56,0
7.499997,8.3159685,58,56,0
7.499997,8.3159685,62,56,0
7.499997,8.3159685,65,56,0
9.166663,9.982635,70,56,0
9.166663,9.982635,58,56,0
9.166663,9.982635,63,56,0
10.833329,11.649301,58,56,0
10.833329,11.649301,63,56,0
10.833329,11.649301,67,56,0
12.499995,13.315967,63,56,0
12.499995,13.315967,58,56,0
12.499995,13.315967,65,56,0
14.166661,14.982633,58,56,0
14.166661,14.982633,62,56,0
14.166661,14.982633,65,56,0
15.833327,16.6493,70,56,0
15.833327,16.6493,58,56,0
15.833327,16.6493,56,56,0
15.833327,16.6493,62,56,0
17.499992,18.315966,70,56,0
17.499992,18.315966,56,56,0
17.499992,18.315966,58,56,0
17.499992,18.315966,65,56,0
19.166658,19.982632,70,56,0
19.166658,19.982632,62,56,0
19.166658,19.982632,58,56,0
19.166658,19.982632,56,56,0
19.166658,19.982632,68,56,0
20.833324,21.649298,70,56,0
20.833324,21.649298,58,56,0
20.833324,21.649298,62,56,0
20.833324,21.649298,65,56,0
22.49999,23.315964,70,56,0
22.49999,23.315964,63,56,0
22.49999,23.315964,58,56,0
24.166656,24.98263,67,56,0
24.166656,24.98263,58,56,0
24.166656,24.98263,63,56,0
25.833323,26.649296,63,56,0
25.833323,26.649296,58,56,0
25.833323,26.649296,65,56,0
27.499989,28.411448,58,56,0
27.499989,28.411448,62,56,0
27.499989,28.411448,65,56,0
28.333323,29.24478,59,56,0
29.166655,30.078114,58,59,0
29.999989,30.911446,57,63,0
30.83332,31.60589,58,58,0
31.666655,32.578114,59,56,0
32.49999,33.411446,58,57,0
33.33332,34.244778,57,61,0
34.166653,34.982624,58,58,0
35.83332,36.649292,58,56,0
35.83332,36.649292,70,56,0
35.83332,36.649292,56,56,0
35.83332,36.649292,65,56,0
37.499985,38.315956,70,56,0
37.499985,38.315956,58,56,0
37.499985,38.315956,56,56,0
37.499985,38.315956,62,56,0
39.166653,39.982624,70,56,0
39.166653,39.982624,58,56,0
39.166653,39.982624,62,56,0
39.166653,39.982624,65,56,0
40.833317,41.64929,70,56,0
40.833317,41.64929,63,56,0
40.833317,41.64929,58,56,0
42.499985,43.315956,70,55,0
42.499985,43.315956,63,55,0
42.499985,43.315956,58,55,0
44.16665,44.98262,54,54,0
44.16665,44.98262,58,54,0
45.833317,46.64929,58,53,0
45.833317,46.64929,53,53,0
45.833317,46.64929,63,53,0
47.49998,48.315952,58,52,0
47.49998,48.315952,53,52,0
47.49998,48.315952,62,52,0
48.74998,49.565952,63,56,0
48.74998,49.565952,58,56,0
48.333313,49.96526,70,64,0
49.583313,49.9913,63,56,0
49.583313,49.9913,58,56,0
50.416645,51.23262,63,56,0
50.416645,51.23262,60,56,0
49.99998,51.631924,68,64,0
51.24998,51.657967,63,56,0
51.24998,51.657967,60,56,0
52.083313,52.439217,58,56,0
52.083313,52.439217,63,56,0
52.083313,52.439217,67,64,0
52.499977,52.85588,63,56,0
52.499977,52.85588,58,56,0
52.499977,52.85588,67,64,0
52.916645,53.27255,63,56,0
52.916645,53.27255,60,56,0
52.916645,53.27255,68,64,0
53.333313,54.149284,58,56,0
53.333313,54.149284,65,56,0
53.333313,54.218727,70,64,0
54.166645,54.57463,58,56,0
54.166645,54.982616,65,64,0
54.583313,54.9913,62,56,0
55.416645,56.232616,63,56,0
55.416645,56.232616,68,56,0
56.249977,56.657963,63,56,0
56.249977,56.657963,68,56,0
57.08331,57.89928,68,56,0
57.08331,57.89928,65,56,0
57.916645,58.32463,65,56,0
57.916645,58.32463,68,56,0
58.749977,59.56595,63,56,0
58.749977,59.56595,67,56,0
59.58331,59.991295,63,56,0
59.58331,59.991295,67,56,0
60.41664,61.232613,66,56,0
60.41664,61.232613,63,56,0
61.249977,61.657963,63,56,0
61.249977,61.657963,66,56,0
62.08331,62.89928,62,56,0
62.08331,62.89928,65,56,0
62.91664,63.324627,62,56,0
62.91664,63.324627,65,56,0
63.749973,64.56595,63,56,0
63.749973,64.56595,68,56,0
64.583305,64.991295,68,57,0
64.583305,64.991295,63,57,0
65.41664,66.23261,70,58,0
65.41664,66.23261,66,58,0
65.41664,66.23261,61,58,0
66.24998,66.65796,63,59,0
66.24998,66.65796,68,59,0
66.24998,66.65796,59,59,0
66.66664,67.48261,66,60,0
66.66664,67.48261,56,60,0
66.66664,67.48261,61,60,0
67.49997,68.31595,61,61,0
67.49997,68.31595,65,61,0
68.74997,69.56594,70,63,0
68.74997,69.56594,61,63,0
68.74997,69.56594,66,63,0
69.583305,69.991295,73,64,0
69.583305,69.991295,61,64,0
69.583305,69.991295,66,64,0
69.99997,70.81594,75,64,0
69.99997,70.81594,63,64,0
69.99997,70.81594,66,64,0
70.833305,71.64928,63,65,0
70.833305,71.64928,66,65,0
70.833305,71.64928,68,65,0
72.083305,72.89928,70,67,0
72.083305,72.89928,73,67,0
72.91664,73.32462,71,68,0
72.91664,73.32462,68,68,0
73.74997,74.56594,68,69,0
73.74997,74.56594,71,69,0
74.583305,74.99129,70,70,0
74.583305,74.99129,68,70,0
75.41663,75.77254,78,72,0
75.41663,75.77254,66,72,0
75.833305,76.18921,66,72,0
75.833305,76.18921,78,72,0
76.24997,76.60587,82,73,0
76.24997,76.60587,70,73,0
76.684,77.56073,83,73,0
76.684,77.56073,75,73,0
76.684,77.56073,71,73,0
77.49997,78.31594,77,74,0
77.49997,78.31594,65,74,0
78.74997,79.10587,75,76,0
78.74997,79.10587,63,76,0
79.16663,79.52254,75,76,0
79.16663,79.52254,63,76,0
79.5833,79.9392,65,76,0
79.5833,79.9392,77,76,0
79.99997,80.35587,75,76,0
79.99997,80.35587,63,76,0
80.41663,80.77254,61,76,0
80.41663,80.77254,73,76,0
80.8333,81.1892,73,76,0
80.8333,81.1892,61,76,0
81.24997,81.60587,75,76,0
81.24997,81.60587,63,76,0
81.66663,82.578094,61,76,0
81.66663,82.578094,73,76,0
82.49997,84.23608,59,76,0
82.49997,84.23608,71,76,0
84.16663,84.982605,70,76,0
84.16663,84.982605,58,76,0
85.41663,85.77254,68,75,0
85.41663,85.77254,56,75,0
85.8333,86.1892,68,74,0
85.8333,86.1892,56,74,0
86.24996,86.605865,70,73,0
86.24996,86.605865,58,73,0
86.66663,87.02254,56,72,0
86.66663,87.02254,68,72,0
87.0833,87.4392,66,71,0
87.0833,87.4392,54,71,0
87.49996,87.855865,66,70,0
87.49996,87.855865,54,70,0
87.91663,88.27254,68,69,0
87.91663,88.27254,56,69,0
88.3333,89.21871,66,68,0
88.3333,89.21871,54,68,0
89.16663,90.90274,53,66,0
89.16663,90.90274,65,66,0
90.8333,92.569405,51,70,0
90.8333,92.569405,63,70,0
92.49996,93.31593,50,58,0
92.49996,93.31593,62,58,0
93.61108,93.94093,58,56,0
93.888855,94.15795,46,56,0
94.444405,94.77427,58,56,0
94.72218,94.99128,46,56,0
95.27774,95.6076,59,56,0
95.55552,95.824615,47,56,0
96.11108,96.44093,58,56,0
96.38885,96.65794,46,56,0
96.944405,97.27427,57,56,0
97.22218,97.49128,45,56,0
97.77774,98.1076,58,56,0
98.05552,98.324615,46,56,0
98.61107,98.94093,59,56,0
98.88885,99.15794,47,56,0
99.444405,99.77427,58,56,0
99.72218,99.99128,46,56,0
100.27774,100.6076,57,56,0
100.55552,100.824615,45,56,0
101.11107,101.44093,58,56,0
101.38885,101.65794,46,56,0
102.22218,103.30725,56,56,0
102.22218,103.30725,58,56,0
102.22218,103.30725,65,56,0
101.944405,103.32461,70,56,0
103.88885,104.973915,58,56,0
103.88885,104.973915,56,56,0
103.88885,104.973915,62,56,0
103.61107,104.99128,70,56,0
105.55551,106.64058,63,56,0
105.55551,106.64058,58,56,0
105.27773,106.65794,70,56,0
107.222176,108.30725,70,58,0
107.222176,108.30725,63,58,0
107.222176,108.30725,67,58,0
106.944405,108.32461,75,58,0
108.88885,109.973915,63,60,0
108.88885,109.973915,70,60,0
108.61107,109.99127,75,60,0
110.27773,111.65794,75,62,0
110.55551,111.65794,63,63,0
110.55551,111.65794,68,63,0
112.222176,113.30724,63,62,0
112.222176,113.30724,59,62,0
111.9444,113.32461,71,62,0
113.88884,114.973915,58,60,0
113.88884,114.973915,63,60,0
113.61107,114.99127,70,60,0
115.55551,116.64058,58,57,0
115.27773,116.657936,63,58,0
117.222176,118.30724,54,56,0
116.9444,118.32461,70,56,0
118.88884,119.97391,58,56,0
118.88884,119.97391,53,56,0
118.61106,119.99127,63,56,0
120.555504,121.64058,53,56,0
120.555504,121.64058,58,56,0
120.27773,121.657936,62,56,0
122.222176,123.30724,51,56,0
121.9444,123.3246,63,56,0
123.88884,124.97391,51,55,0
123.61106,124.99127,63,55,0
125.555504,126.64057,51,53,0
125.277725,126.657936,63,53,0
127.22217,128.30724,51,50,0
126.9444,128.3246,63,51,0
128.56766,128.83621,63,64,0
128.80203,129.03152,51,64,0
129.27078,129.53934,63,64,0
129.27078,129.53934,60,64,0
129.50516,129.73465,51,64,0
129.9739,130.24246,58,64,0
129.9739,130.24246,62,64,0
130.20828,130.43777,50,64,0
130.67703,130.94559,62,64,0
130.67703,130.94559,58,64,0
130.9114,131.1409,50,64,0
131.38016,131.64871,62,64,0
131.38016,131.64871,65,64,0
131.61453,131.84402,53,64,0
132.08328,132.35672,56,64,0
132.08328,132.35672,60,64,0
132.31766,132.54715,53,64,0
132.7864,133.05984,56,64,0
132.7864,133.05984,60,64,0
133.02078,133.25027,51,64,0
133.48953,133.75809,68,64,0
133.48953,133.75809,60,64,0
133.48953,133.75809,63,64,0
133.7239,133.9534,56,64,0
134.19266,134.46121,58,64,0
134.19266,134.46121,67,64,0
134.19266,134.46121,63,64,0
134.42703,134.65652,55,64,0
134.89578,135.16434,56,64,0
134.89578,135.16434,65,64,0
134.89578,135.16434,62,64,0
135.13016,135.35965,53,64,0
135.5989,135.86746,63,64,0
135.5989,135.86746,58,64,0
135.5989,135.86746,55,64,0
135.83328,136.06277,51,64,0
136.30203,136.57059,55,64,0
136.30203,136.57059,58,64,0
136.5364,136.7659,51,64,0
137.00516,137.27371,56,64,0
137.00516,137.27371,60,64,0
137.23953,137.46902,51,64,0
137.70828,137.97684,63,64,0
137.70828,137.97684,56,64,0
137.94266,138.17215,51,64,0
138.4114,138.67996,63,64,0
138.4114,138.67996,58,64,0
138.64578,138.87527,55,64,0
139.11453,139.38309,62,64,0
139.11453,139.38309,56,64,0
139.3489,139.5784,53,64,0
139.81766,140.08621,58,64,0
139.81766,140.08621,55,64,0
140.05203,140.28152,51,64,0
140.52078,140.78934,58,64,0
140.52078,140.78934,55,64,0
140.75516,140.98465,51,65,0
141.2239,141.49246,55,66,0
141.2239,141.49246,58,66,0
141.45828,141.68777,50,67,0
141.92703,142.19559,62,69,0
141.92703,142.19559,58,69,0
142.1614,142.3909,55,70,0
142.63016,142.89871,70,71,0
142.63016,142.89871,67,71,0
142.86453,143.09402,62,72,0
143.33328,143.60184,67,72,0
143.33328,143.60184,70,72,0
143.56766,143.79715,63,71,0
144.0364,144.30496,63,69,0
144.0364,144.30496,67,69,0
144.27078,144.50027,55,68,0
144.73953,145.00809,60,66,0
144.73953,145.00809,63,66,0
144.9739,145.2034,55,65,0
145.20828,145.47684,62,64,0
145.44266,145.71121,66,64,0
145.67703,145.87234,69,64,0
145.9114,146.17996,63,64,0
146.14578,146.41434,67,64,0
146.38016,146.64871,71,64,0
146.61453,146.88309,74,64,0
146.8489,147.11746,72,64,0
147.08328,147.2786,67,64,0
147.31766,147.58621,62,64,0
147.55203,147.82059,66,64,0
147.7864,147.98172,69,64,0
148.02078,148.28934,63,64,0
148.25516,148.52371,67,64,0
148.48953,148.75809,71,64,0
148.7239,148.99246,74,64,0
148.95828,149.22684,72,64,0
149.19266,149.38309,67,64,0
149.42703,149.70047,65,64,0
149.6614,149.93484,69,64,0
149.89578,150.08621,72,64,0
150.13016,150.39383,66,64,0
150.36453,150.6282,69,65,0
150.5989,150.86258,72,67,0
150.83328,151.09695,77,68,0
151.06766,151.33133,75,70,0
151.30203,151.49246,72,71,0
151.5364,151.7659,67,72,0
151.77078,152.03445,70,72,0
152.00516,152.26883,74,72,0
152.23953,152.5032,77,71,0
152.4739,152.73758,75,69,0
152.70828,152.97195,70,68,0
152.94266,153.20633,67,67,0
153.17703,153.4407,63,66,0
153.4114,153.60184,67,65,0
153.64578,154.10477,66,64,0
153.64578,154.10477,57,64,0
154.58328,154.85672,91,64,0
154.58328,154.85672,79,64,0
154.81766,155.0911,87,64,0
155.05203,155.32547,91,64,0
155.05203,155.32547,79,64,0
155.2864,155.55984,84,64,0
155.52078,155.71121,87,64,0
155.52078,155.71121,75,64,0
155.75516,156.44363,81,64,0
155.75516,156.44363,69,64,0
156.69266,156.9661,79,64,0
156.69266,156.9661,91,64,0
156.92703,157.20047,87,64,0
157.1614,157.43484,79,64,0
157.1614,157.43484,91,64,0
157.39578,157.66922,84,64,0
157.63016,157.82059,87,64,0
157.63016,157.82059,75,64,0
157.86453,158.55301,81,64,0
157.86453,158.55301,69,64,0
158.80203,159.07547,87,64,0
158.80203,159.07547,75,64,0
159.0364,159.30984,81,64,0
159.27078,159.54422,84,64,0
159.27078,159.54422,72,64,0
159.50516,159.7786,78,64,0
159.73953,159.92996,69,64,0
159.73953,159.92996,81,64,0
159.9739,160.24734,74,76,0
159.9739,160.24734,86,76,0
160.20828,160.48172,82,76,0
160.44266,160.7161,86,76,0
160.44266,160.7161,74,76,0
160.67703,160.95047,79,76,0
160.9114,161.18484,82,76,0
160.9114,161.18484,70,76,0
161.14578,161.41922,75,76,0
161.38016,161.6536,67,76,0
161.38016,161.6536,79,76,0
161.61453,161.88797,72,76,0
161.8489,162.03934,75,76,0
162.08328,162.31277,80,76,0
162.08328,162.31277,68,76,0
162.31766,162.58621,77,76,0
162.55203,162.82059,80,76,0
162.55203,162.82059,68,76,0
162.7864,163.05496,74,76,0
163.02078,163.28934,77,76,0
163.02078,163.28934,65,76,0
163.25516,163.52371,71,76,0
163.48953,163.75809,74,76,0
163.48953,163.75809,62,76,0
163.7239,163.99246,67,76,0
163.95828,164.1536,71,76,0
164.19266,164.46121,75,76,0
164.19266,164.46121,63,76,0
164.42703,164.69559,72,76,0
164.6614,164.92996,75,76,0
164.6614,164.92996,63,76,0
164.89578,165.16434,69,76,0
165.13016,165.39871,60,76,0
165.13016,165.39871,72,76,0
165.36453,165.63309,66,76,0
165.5989,165.86746,69,76,0
165.5989,165.86746,57,76,0
165.83328,166.10184,62,76,0
166.06766,166.24832,66,76,0
166.06766,166.24832,54,76,0
166.30203,166.57059,46,56,0
166.5364,166.80496,50,56,0
166.77078,166.96121,55,56,0
167.00516,167.27371,48,56,0
167.23953,167.50809,51,56,0
167.4739,167.74246,55,56,0
167.70828,167.97684,58,56,0
167.94266,168.21121,57,56,0
168.17703,168.36746,54,56,0
168.4114,168.67996,46,56,0
168.64578,168.91434,50,56,0
168.88016,169.07059,55,56,0
169.11453,169.38309,48,55,0
169.3489,169.61746,51,58,0
169.58328,169.85184,57,62,0
169.81766,170.08621,60,62,0
169.81766,170.08621,50,62,0
170.05203,170.32059,59,60,0
170.2864,170.47684,53,57,0
170.52078,170.78934,51,56,0
170.75516,171.02371,55,56,0
170.98953,171.17996,60,56,0
171.2239,171.49246,53,56,0
171.45828,171.72684,56,56,0
171.69266,171.96121,60,56,0
171.92703,172.19559,63,56,0
172.1614,172.42996,62,56,0
172.39578,172.58621,59,56,0
172.63016,172.89871,51,56,0
172.86453,173.13309,55,56,0
173.0989,173.28934,60,57,0
173.33328,173.60184,53,58,0
173.56766,173.83621,56,63,0
173.80203,174.07059,62,67,0
174.0364,174.30496,65,68,0
174.0364,174.30496,55,68,0
174.27078,174.53934,64,64,0
174.50516,174.69559,58,61,0
174.73953,175.00809,57,62,0
174.9739,175.24246,60,63,0
175.20828,175.39871,66,64,0
175.44266,175.71121,58,64,0
175.67703,175.94559,62,65,0
175.9114,176.17996,67,66,0
176.14578,176.41434,70,67,0
176.14578,176.41434,60,67,0
176.38016,176.64871,69,67,0
176.61453,176.80496,63,68,0
176.8489,177.11746,62,69,0
177.08328,177.35184,65,70,0
177.31766,177.50809,71,70,0
177.55203,177.82059,63,71,0
177.7864,178.05496,67,72,0
178.02078,178.28934,72,73,0
178.25516,178.52371,64,73,0
178.25516,178.52371,74,73,0
178.48953,178.75809,73,74,0
178.7239,178.91434,67,75,0
178.95828,179.23172,75,76,0
178.95828,179.23172,65,76,0
179.19266,179.4661,74,76,0
179.19266,179.4661,68,76,0
179.42703,179.70047,75,76,0
179.42703,179.70047,65,76,0
179.6614,179.93484,74,76,0
179.6614,179.93484,68,76,0
179.89578,180.16922,65,76,0
179.89578,180.16922,75,76,0
180.13016,180.4036,74,76,0
180.13016,180.4036,68,76,0
180.36453,180.63797,75,76,0
180.36453,180.63797,65,76,0
180.5989,180.87234,74,76,0
180.5989,180.87234,68,76,0
180.83328,181.02371,75,76,0
180.83328,181.02371,65,76,0
181.06766,181.33621,66,76,0
181.06766,181.33621,74,76,0
181.30203,181.57059,69,76,0
181.30203,181.57059,73,76,0
181.5364,181.80496,66,76,0
181.5364,181.80496,74,76,0
181.77078,182.03934,73,76,0
181.77078,182.03934,69,76,0
182.00516,182.27371,66,76,0
182.00516,182.27371,74,76,0
182.23953,182.50809,73,76,0
182.23953,182.50809,69,76,0
182.4739,182.74246,66,76,0
182.4739,182.74246,74,76,0
182.70828,182.97684,69,76,0
182.70828,182.97684,73,76,0
182.94266,183.13309,66,76,0
182.94266,183.13309,74,76,0
183.17703,183.45047,69,76,0
183.17703,183.45047,73,76,0
183.4114,183.68484,66,76,0
183.4114,183.68484,72,76,0
183.64578,183.91922,73,76,0
183.64578,183.91922,69,76,0
183.88016,184.1536,66,76,0
183.88016,184.1536,72,76,0
184.11453,184.2952,67,76,0
184.11453,184.2952,71,76,0
184.3489,184.61746,84,76,0
184.3489,184.61746,81,76,0
184.3489,184.61746,72,76,0
184.58328,184.85184,83,78,0
184.58328,184.85184,74,78,0
184.58328,184.85184,86,78,0
184.81766,185.08621,87,79,0
184.81766,185.08621,75,79,0
184.81766,185.08621,84,79,0
185.05203,185.23758,77,81,0
185.05203,185.23758,89,81,0
185.05203,185.23758,86,81,0
185.2864,185.67703,91,83,0
185.2864,185.67703,79,83,0
185.2864,185.67703,87,83,0
185.98953,186.38016,78,84,0
185.98953,186.38016,90,84,0
185.98953,186.38016,86,84,0
188.56766,189.30008,73,56,0
188.80203,189.49051,69,56,0
188.80203,189.49051,66,56,0
189.27078,189.50027,74,56,0
189.50516,190.19363,69,56,0
189.50516,190.19363,66,56,0
189.50516,190.19363,75,56,0
190.67703,191.41922,73,56,0
190.9114,191.59988,70,56,0
190.9114,191.59988,67,56,0
191.38016,191.60965,74,56,0
191.61453,192.30301,71,56,0
191.61453,192.30301,65,56,0
191.61453,192.30301,77,56,0
192.7864,193.51395,74,56,0
193.02078,193.70926,70,56,0
193.02078,193.70926,67,56,0
193.48953,193.71902,75,56,0
193.7239,195.16434,74,56,0
193.7239,195.16434,71,56,0
193.7239,195.16434,68,56,0
193.7239,195.16434,80,56,0
195.13016,195.86258,72,58,0
195.83328,196.5657,75,63,0
195.13016,196.57547,67,58,0
195.13016,196.57547,79,58,0
196.5364,196.99539,69,58,0
196.5364,196.99539,66,58,0
196.5364,196.99539,78,58,0
197.23953,197.50809,66,56,0
197.4739,197.74246,69,56,0
197.4739,197.74246,57,56,0
197.70828,197.97684,66,56,0
197.94266,198.21121,57,56,0
197.94266,198.21121,69,56,0
198.17703,198.44559,66,56,0
198.17703,198.44559,63,56,0
198.4114,198.67996,57,56,0
198.4114,198.67996,69,56,0
198.64578,198.91434,66,56,0
198.64578,198.91434,63,56,0
198.88016,199.14871,57,56,0
198.88016,199.14871,69,56,0
199.11453,199.38309,66,56,0
199.11453,199.38309,63,56,0
199.3489,199.61746,67,56,0
199.3489,199.61746,55,56,0
199.58328,199.85184,62,56,0
199.58328,199.85184,58,56,0
199.81766,200.01785,55,56,0
199.81766,200.01785,67,56,0
200.05203,200.32059,71,56,0
200.05203,200.32059,59,56,0
200.2864,200.55496,62,56,0
200.2864,200.55496,65,56,0
200.52078,200.78934,59,56,0
200.52078,200.78934,71,56,0
200.75516,201.02371,62,56,0
200.75516,201.02371,65,56,0
200.98953,201.25809,71,56,0
200.98953,201.25809,59,56,0
201.2239,201.49246,62,56,0
201.2239,201.49246,65,56,0
201.45828,201.72684,58,56,0
201.45828,201.72684,70,56,0
201.69266,201.96121,63,56,0
201.69266,201.96121,67,56,0
201.92703,202.11746,58,56,0
201.92703,202.11746,70,56,0
202.1614,202.42996,74,56,0
202.1614,202.42996,62,56,0
202.39578,202.66434,68,56,0
202.39578,202.66434,71,56,0
202.63016,202.89871,74,57,0
202.63016,202.89871,62,57,0
202.86453,203.13309,71,57,0
202.86453,203.13309,68,57,0
203.0989,203.36746,75,58,0
203.0989,203.36746,63,58,0
203.33328,203.60184,68,58,0
203.33328,203.60184,71,58,0
203.56766,203.83621,77,59,0
203.56766,203.83621,65,59,0
203.80203,204.07059,68,59,0
203.80203,204.07059,71,59,0
204.0364,204.30496,65,60,0
204.0364,204.30496,77,60,0
204.27078,204.53934,68,61,0
204.27078,204.53934,71,61,0
204.50516,204.77371,77,61,0
204.50516,204.77371,65,61,0
204.73953,205.00809,68,62,0
204.73953,205.00809,71,62,0
204.9739,205.24246,75,62,0
204.9739,205.24246,63,62,0
205.20828,205.47684,66,63,0
205.20828,205.47684,70,63,0
205.44266,205.61844,75,63,0
205.44266,205.61844,63,63,0
205.67703,205.94559,70,64,0
205.67703,205.94559,64,64,0
205.9114,206.17996,73,65,0
205.9114,206.17996,61,65,0
206.14578,206.41434,64,65,0
206.14578,206.41434,70,65,0
206.38016,206.64871,73,66,0
206.38016,206.64871,61,66,0
206.61453,206.88309,70,66,0
206.61453,206.88309,64,66,0
206.8489,207.11746,73,67,0
206.8489,207.11746,61,67,0
207.08328,207.35184,66,67,0
207.08328,207.35184,62,67,0
207.31766,207.58621,71,68,0
207.31766,207.58621,59,68,0
207.55203,207.7327,66,68,0
207.55203,207.7327,62,68,0
207.7864,208.05496,69,69,0
207.7864,208.05496,57,69,0
208.02078,208.28934,66,70,0
208.02078,208.28934,60,70,0
208.25516,208.52371,57,70,0
208.25516,208.52371,69,70,0
208.48953,208.75809,66,71,0
208.48953,208.75809,60,71,0
208.7239,208.99246,57,71,0
208.7239,208.99246,69,71,0
208.95828,209.22684,66,72,0
208.95828,209.22684,60,72,0
209.19266,209.46121,55,72,0
209.19266,209.46121,67,72,0
209.42703,209.69559,62,73,0
209.42703,209.69559,58,73,0
209.6614,209.84695,55,73,0
209.6614,209.84695,67,73,0
209.89578,210.16434,63,74,0
209.89578,210.16434,58,74,0
210.13016,210.39871,55,75,0
210.13016,210.39871,67,75,0
210.36453,210.63309,60,75,0
210.36453,210.63309,63,75,0
210.5989,210.86746,55,75,0
210.5989,210.86746,67,75,0
210.83328,211.10184,58,73,0
210.83328,211.10184,62,73,0
211.06766,211.33621,67,71,0
211.06766,211.33621,55,71,0
211.30203,211.57059,58,69,0
211.30203,211.57059,62,69,0
211.5364,211.80496,67,67,0
211.5364,211.80496,55,67,0
211.77078,212.03934,58,65,0
211.77078,212.03934,62,65,0
212.00516,212.27371,66,63,0
212.00516,212.27371,57,63,0
212.23953,212.50809,62,60,0
212.4739,212.6448,57,58,0
212.4739,212.6448,66,58,0
212.70828,212.97684,67,56,0
212.94266,213.21121,58,56,0
213.17703,213.44559,67,57,0
213.4114,213.67996,69,58,0
213.64578,213.91434,62,59,0
213.88016,214.14871,69,60,0
214.11453,214.38309,70,61,0
214.3489,214.5784,62,62,0
214.58328,214.76883,70,63,0
214.58328,214.76883,74,63,0
214.82742,215.09598,70,76,0
214.82742,215.09598,74,76,0
215.05203,215.32059,63,64,0
215.2864,215.55496,70,64,0
215.2864,215.55496,74,64,0
215.52078,215.78934,63,64,0
215.75516,216.02371,70,64,0
215.75516,216.02371,74,64,0
215.98953,216.25809,63,64,0
216.2239,216.49246,69,63,0
216.2239,216.49246,72,63,0
216.45828,216.72684,63,62,0
216.69266,216.8782,69,60,0
216.69266,216.8782,72,60,0
216.92703,217.19559,67,56,0
216.92703,217.19559,70,56,0
217.1614,217.42996,62,56,0
217.39578,217.66434,70,56,0
217.39578,217.66434,67,56,0
217.63016,217.89871,62,56,0
217.86453,218.13309,70,56,0
217.86453,218.13309,67,56,0
218.0989,218.36746,62,56,0
218.33328,218.60184,70,56,0
218.33328,218.60184,67,56,0
218.56766,218.83621,62,56,0
218.80203,219.07059,67,56,0
218.80203,219.07059,70,56,0
219.0364,219.30496,66,56,0
219.0364,219.30496,69,56,0
219.27078,219.53934,62,56,0
219.50516,219.77371,69,56,0
219.50516,219.77371,66,56,0
219.73953,220.00809,62,56,0
219.9739,220.24246,66,56,0
219.9739,220.24246,69,56,0
220.20828,220.47684,62,56,0
220.44266,220.71121,66,56,0
220.44266,220.71121,69,56,0
220.67703,220.94559,62,56,0
220.9114,221.07254,66,56,0
220.9114,221.07254,69,56,0
221.14578,221.41434,70,57,0
221.14578,221.41434,67,57,0
221.38016,221.64871,62,58,0
221.61453,221.88309,67,58,0
221.61453,221.88309,70,58,0
221.8489,222.11746,66,59,0
221.8489,222.11746,69,59,0
222.08328,222.35184,62,60,0
222.31766,222.58621,66,61,0
222.31766,222.58621,69,61,0
222.55203,222.82059,67,61,0
222.7864,223.05496,58,62,0
223.02078,223.20633,62,63,0
223.27469,223.54324,75,76,0
223.48953,223.75809,63,63,0
223.7239,223.99246,75,62,0
223.95828,224.22684,63,61,0
224.19266,224.46121,75,60,0
224.42703,224.69559,63,59,0
224.6614,224.92996,75,58,0
224.89578,225.16434,63,58,0
225.13016,225.3157,75,57,0
225.36453,225.63309,63,56,0
225.5989,225.86746,75,56,0
225.83328,226.10184,63,56,0
226.06766,226.33621,74,56,0
226.30203,226.57059,62,56,0
226.5364,226.80496,74,56,0
226.77078,227.03934,61,56,0
227.00516,227.27371,73,56,0
227.23953,227.50809,61,56,0
227.4739,227.74246,74,56,0
227.70828,227.97684,62,57,0
227.94266,228.21121,74,57,0
228.17703,228.44559,61,57,0
228.4114,228.67996,73,56,0
228.64578,228.91434,61,56,0
228.88016,229.14871,74,56,0
229.11453,229.38309,62,55,0
229.3489,229.56375,74,55,0
229.58328,229.85352,63,55,0
229.81766,230.09943,75,55,0
230.06355,230.34532,63,54,0
230.30946,230.59122,74,54,0
230.55536,230.83713,62,54,0
230.80127,231.08302,74,53,0
231.04716,231.32893,61,53,0
231.29306,231.57483,73,53,0
231.53897,231.82072,61,53,0
231.78487,232.06816,74,52,0
232.03078,232.32457,62,52,0
232.28719,232.58098,74,52,0
232.5436,232.83739,61,51,0
232.8,233.09381,73,51,0
233.05641,233.35022,61,51,0
233.31282,233.60663,74,50,0
233.56923,233.86304,62,50,0
233.82564,234.02863,74,50,0
234.08205,234.37585,38,52,0
234.33846,234.63226,46,52,0
234.59486,234.88867,50,52,0
234.85129,235.14508,53,52,0
235.1077,235.40149,56,52,0
235.3641,235.6579,58,52,0
235.62051,235.9143,62,52,0
235.87692,236.17073,65,52,0
236.13333,236.33632,68,52,0
236.38974,236.68355,70,52,0
236.38974,236.68355,82,52,0
236.64615,236.93996,80,52,0
236.64615,236.93996,77,52,0
236.90256,237.19637,70,52,0
236.90256,237.19637,82,52,0
237.15897,237.45277,80,52,0
237.15897,237.45277,77,52,0
237.41537,237.70918,70,52,0
237.41537,237.70918,82,52,0
237.67178,237.96559,80,52,0
237.67178,237.96559,77,52,0
237.9282,238.222,82,52,0
237.9282,238.222,70,52,0
238.18462,238.47841,80,52,0
238.18462,238.47841,77,52,0
238.44102,238.62799,70,52,0
238.44102,238.62799,82,52,0
238.69743,239.14615,38,52,0
239.08205,239.54211,46,52,0
239.47574,239.94034,50,52,0
239.87396,240.33856,53,52,0
240.2722,240.7368,56,52,0
240.67043,241.02441,62,52,0
241.06865,241.53326,70,52,0
241.06865,241.53326,58,52,0
241.46689,241.95009,68,52,0
241.46689,241.95009,65,52,0
241.88,242.37065,58,52,0
241.88,242.37065,70,52,0
242.30057,242.79121,68,52,0
242.30057,242.79121,65,52,0
242.72113,243.21178,58,52,0
242.72113,243.21178,70,52,0
243.14168,243.46878,68,52,0
243.14168,243.46878,65,52,0
243.84003,244.17856,70,56,0
243.84003,244.17856,58,56,0
244.1178,244.45634,65,56,0
244.1178,244.45634,68,56,0
244.39558,244.73412,58,56,0
244.39558,244.73412,70,56,0
244.67336,245.0119,65,56,0
244.67336,245.0119,68,56,0
244.95113,245.22023,58,56,0
244.95113,245.22023,70,56,0
245.50668,245.84523,58,56,0
245.50668,245.84523,70,56,0
245.78447,246.123,68,56,0
245.78447,246.123,65,56,0
246.06224,246.40079,58,56,0
246.06224,246.40079,70,56,0
246.34003,246.67856,68,56,0
246.34003,246.67856,65,56,0
246.6178,246.8869,70,56,0
246.6178,246.8869,58,56,0
247.17336,247.5119,58,56,0
247.17336,247.5119,70,56,0
247.45113,247.78967,62,56,0
247.45113,247.78967,68,56,0
247.72891,248.06744,58,56,0
247.72891,248.06744,70,56,0
248.00668,248.34523,68,56,0
248.00668,248.34523,62,56,0
248.28447,248.55356,58,56,0
248.28447,248.55356,70,56,0
248.84001,249.17856,58,56,0
248.84001,249.17856,70,56,0
249.1178,249.45634,62,56,0
249.1178,249.45634,65,56,0
249.39557,249.73412,58,56,0
249.39557,249.73412,70,56,0
249.67336,250.01189,62,56,0
249.67336,250.01189,65,56,0
249.95113,250.22023,58,56,0
249.95113,250.22023,70,56,0
250.50668,250.84523,58,56,0
250.50668,250.84523,70,56,0
250.78447,251.123,67,56,0
250.78447,251.123,63,56,0
251.06224,251.40079,70,56,0
251.06224,251.40079,58,56,0
251.34001,251.67856,63,56,0
251.34001,251.67856,67,56,0
251.6178,251.88689,70,56,0
251.6178,251.88689,58,56,0
252.17336,252.51189,58,56,0
252.17336,252.51189,67,56,0
252.45113,252.78967,63,56,0
252.72891,253.06744,58,56,0
252.72891,253.06744,67,56,0
253.00668,253.34523,63,56,0
253.28445,253.55356,58,56,0
253.28445,253.55356,67,56,0
253.84001,254.17856,58,56,0
253.84001,254.17856,65,56,0
254.1178,254.45633,63,56,0
254.39557,254.73412,58,56,0
254.39557,254.73412,65,56,0
254.67336,255.01189,63,56,0
254.95113,255.22023,58,56,0
254.95113,255.22023,65,56,0
255.50668,255.84523,58,56,0
255.50668,255.84523,65,56,0
255.78445,256.12302,62,56,0
256.06223,256.4008,58,56,0
256.06223,256.4008,65,56,0
256.34003,256.67856,62,56,0
256.6178,256.84348,58,56,0
256.6178,256.84348,65,56,0
256.89557,257.2428,70,56,0
256.89557,257.2428,82,56,0
257.17334,257.52057,80,56,0
257.17334,257.52057,77,56,0
257.45114,257.79834,82,56,0
257.45114,257.79834,70,56,0
257.7289,258.07614,76,56,0
257.7289,258.07614,79,56,0
258.00668,258.3539,70,56,0
258.00668,258.3539,82,56,0
258.28445,258.63168,77,56,0
258.28445,258.63168,80,56,0
258.56223,258.90945,82,56,0
258.56223,258.90945,70,56,0
258.84003,259.18723,80,56,0
258.84003,259.18723,77,56,0
259.1178,259.46503,82,56,0
259.1178,259.46503,70,56,0
259.39557,259.7428,76,56,0
259.39557,259.7428,79,56,0
259.67334,260.02057,82,56,0
259.67334,260.02057,70,56,0
259.9511,260.1421,80,56,0
259.9511,260.1421,77,56,0
260.2289,260.5761,82,56,0
260.2289,260.5761,70,56,0
260.50668,260.8539,80,56,0
260.50668,260.8539,77,56,0
260.78445,261.13168,82,56,0
260.78445,261.13168,70,56,0
261.06223,261.40945,80,56,0
261.06223,261.40945,74,56,0
261.34003,261.68723,82,56,0
261.34003,261.68723,70,56,0
261.6178,261.80878,80,56,0
261.6178,261.80878,74,56,0
261.89557,262.2428,80,56,0
261.89557,262.2428,68,56,0
262.17334,262.52057,74,56,0
262.17334,262.52057,77,56,0
262.4511,262.79834,80,56,0
262.4511,262.79834,68,56,0
262.7289,263.0761,70,56,0
262.7289,263.0761,74,56,0
263.00668,263.3539,77,56,0
263.00668,263.3539,65,56,0
263.28445,263.63168,70,56,0
263.28445,263.63168,74,56,0
263.56223,263.90945,77,56,0
263.56223,263.90945,65,56,0
263.84003,264.18723,70,56,0
263.84003,264.18723,74,56,0
264.1178,264.46503,77,56,0
264.1178,264.46503,65,56,0
264.39557,264.7428,70,56,0
264.39557,264.7428,74,56,0
264.67334,265.02057,75,56,0
264.67334,265.02057,63,56,0
264.9511,265.1421,70,56,0
264.9511,265.1421,74,56,0
265.2289,265.61084,75,56,0
265.2289,265.61084,63,56,0
265.50668,265.8886,70,56,0
265.50668,265.8886,67,56,0
265.78445,266.1664,63,56,0
265.78445,266.1664,75,56,0
266.06223,266.44418,70,56,0
266.06223,266.44418,67,56,0
266.34003,266.72195,63,56,0
266.34003,266.72195,72,56,0
266.6178,266.8869,70,56,0
266.6178,266.8869,67,56,0
266.89557,267.27753,63,56,0
266.89557,267.27753,72,56,0
267.17334,267.5553,70,56,0
267.17334,267.5553,65,56,0
267.4511,267.83307,63,56,0
267.4511,267.83307,72,56,0
267.7289,268.11084,69,56,0
267.7289,268.11084,65,56,0
268.00668,268.3886,63,56,0
268.00668,268.3886,70,56,0
268.28445,268.6664,65,56,0
268.28445,268.6664,69,56,0
268.56223,268.94418,62,56,0
268.56223,268.94418,70,56,0
268.84,269.22195,65,56,0
268.84,269.22195,69,56,0
269.1178,269.49973,62,56,0
269.1178,269.49973,70,56,0
269.39557,269.7775,68,56,0
269.39557,269.7775,65,56,0
269.67334,270.0553,62,56,0
269.9511,270.20285,58,56,0
270.50668,270.87125,59,56,0
270.78445,271.05356,47,56,0
271.34,271.7046,58,56,0
271.6178,271.88687,46,56,0
272.17334,272.53793,57,56,0
272.4511,272.7202,45,56,0
273.00668,273.37125,58,56,0
273.28445,273.4928,46,56,0
273.84,274.2046,59,56,0
274.1178,274.38687,47,56,0
274.67334,275.03793,58,56,0
274.9511,275.2202,46,56,0
275.50668,275.87125,57,56,0
275.78445,276.05356,45,56,0
276.34,276.7046,58,56,0
276.6178,276.88687,46,56,0
277.4511,278.5362,58,56,0
277.4511,278.5362,56,56,0
277.4511,278.5362,65,56,0
277.17334,278.55356,70,56,0
279.1178,280.20285,58,56,0
279.1178,280.20285,56,56,0
279.1178,280.20285,62,56,0
278.84,280.2202,70,56,0
280.78445,281.8695,58,56,0
280.78445,281.8695,63,56,0
280.50668,281.88687,70,56,0
282.4511,283.5362,70,60,0
282.4511,283.5362,63,60,0
282.4511,283.5362,67,60,0
282.17334,283.55356,75,60,0
284.1178,285.20285,63,64,0
284.1178,285.20285,70,64,0
283.84,285.2202,75,63,0
285.78445,286.8695,63,67,0
285.78445,286.8695,68,67,0
285.50668,286.88687,75,67,0
287.4511,288.5362,63,64,0
287.4511,288.5362,59,64,0
287.17334,288.55356,71,64,0
289.11777,290.20285,58,60,0
289.11777,290.20285,63,60,0
288.84,290.2202,70,61,0
290.78445,291.8695,58,56,0
290.50668,291.88687,63,57,0
292.4511,293.5362,54,56,0
292.17334,293.55353,58,56,0
294.11777,295.20285,58,56,0
294.11777,295.20285,53,56,0
293.84,295.2202,63,56,0
295.78445,296.8695,58,56,0
295.78445,296.8695,53,56,0
295.50665,296.88687,62,56,0
297.4511,298.5362,51,56,0
297.17334,298.55353,63,56,0
299.11777,300.20285,51,55,0
298.84,300.2202,63,56,0
300.78445,301.8695,51,52,0
300.50665,301.88687,63,52,0
302.4511,303.53616,51,48,0
302.17334,303.55353,63,49,0
303.7966,304.06516,63,64,0
304.03098,304.26047,51,64,0
304.49973,304.76828,63,64,0
304.49973,304.76828,66,64,0
304.7341,304.9636,54,64,0
305.20285,305.4714,61,64,0
305.20285,305.4714,65,64,0
305.43723,305.66672,53,64,0
305.90598,306.17453,65,64,0
305.90598,306.17453,61,64,0
306.14035,306.36984,53,64,0
306.6091,306.87766,68,64,0
306.6091,306.87766,65,64,0
306.84348,307.07297,56,64,0
307.31223,307.58078,63,64,0
307.31223,307.58078,59,64,0
307.5466,307.7761,56,64,0
308.01535,308.2839,63,64,0
308.01535,308.2839,59,64,0
308.24973,308.47922,54,64,0
308.71848,308.98703,63,64,0
308.71848,308.98703,66,64,0
308.71848,308.98703,71,64,0
308.95285,309.18234,59,64,0
309.4216,309.69016,61,64,0
309.4216,309.69016,66,64,0
309.4216,309.69016,70,64,0
309.65598,309.88547,58,64,0
310.12473,310.39328,68,64,0
310.12473,310.39328,59,64,0
310.12473,310.39328,65,64,0
310.3591,310.5886,56,64,0
310.82785,311.0964,61,64,0
310.82785,311.0964,66,64,0
310.82785,311.0964,58,64,0
311.06223,311.29172,54,64,0
311.53098,311.79953,58,64,0
311.53098,311.79953,61,64,0
311.76535,311.99484,54,64,0
312.2341,312.5173,59,64,0
312.2341,312.5173,63,64,0
312.46848,312.69797,54,64,0
312.93723,313.22043,66,64,0
312.93723,313.22043,59,64,0
313.1716,313.4011,54,64,0
313.64035,313.92355,61,64,0
313.64035,313.92355,66,64,0
313.87473,314.10422,58,64,0
314.34348,314.61203,59,64,0
314.34348,314.61203,65,64,0
314.57785,314.80734,56,64,0
315.0466,315.31516,58,64,0
315.0466,315.31516,61,64,0
315.28098,315.51047,54,64,0
315.74973,316.01828,61,64,0
315.74973,316.01828,58,64,0
315.9841,316.2136,54,64,0
316.45285,316.7214,58,64,0
316.45285,316.7214,61,64,0
316.68723,316.91672,53,64,0
317.15598,317.42453,61,66,0
317.15598,317.42453,65,66,0
317.39035,317.61984,58,68,0
317.8591,318.12766,70,72,0
317.8591,318.12766,73,72,0
318.09348,318.32297,65,74,0
318.56223,318.83078,70,74,0
318.56223,318.83078,73,74,0
318.7966,319.0261,66,72,0
319.26535,319.5339,70,68,0
319.26535,319.5339,66,68,0
319.49973,319.72922,58,66,0
319.96848,320.23703,66,64,0
319.96848,320.23703,63,64,0
320.20285,320.43234,58,64,0
320.6716,320.94016,65,64,0
320.6716,320.94016,60,64,0
320.90598,321.13547,57,64,0
321.37473,321.64328,68,64,0
321.37473,321.64328,61,64,0
321.6091,321.8386,56,65,0
322.07785,322.3464,73,68,0
322.07785,322.3464,68,68,0
322.31223,322.54172,61,70,0
322.78098,323.04953,70,73,0
322.78098,323.04953,73,73,0
323.01535,323.24484,61,73,0
323.4841,323.75266,66,73,0
323.4841,323.75266,70,73,0
323.71848,323.94797,61,72,0
324.18723,324.45578,66,72,0
324.18723,324.45578,70,72,0
324.4216,324.6511,58,72,0
324.89035,325.1589,66,71,0
324.89035,325.1589,70,71,0
325.12473,325.35422,58,70,0
325.59348,325.86203,63,68,0
325.59348,325.86203,66,68,0
325.82785,326.05734,58,67,0
326.2966,326.56516,66,65,0
326.2966,326.56516,63,65,0
326.53098,326.76047,58,64,0
326.99973,327.26828,60,64,0
326.99973,327.26828,65,64,0
327.2341,327.4636,57,64,0
327.70285,327.9714,69,64,0
327.93723,328.20578,60,64,0
327.93723,328.20578,72,64,0
328.1716,328.44016,69,64,0
328.40598,328.67453,72,64,0
328.40598,328.67453,60,64,0
328.64035,328.8259,69,64,0
328.87473,329.14328,72,64,0
328.87473,329.14328,60,64,0
329.1091,329.37766,66,64,0
329.1091,329.37766,69,64,0
329.34348,329.61203,60,64,0
329.34348,329.61203,72,64,0
329.57785,329.8464,66,64,0
329.57785,329.8464,69,64,0
329.81223,330.08078,60,64,0
329.81223,330.08078,72,64,0
330.0466,330.31516,66,64,0
330.0466,330.31516,69,64,0
330.28098,330.54953,70,64,0
330.28098,330.54953,58,64,0
330.51535,330.7839,61,64,0
330.51535,330.7839,65,64,0
330.74973,330.93527,70,64,0
330.74973,330.93527,58,64,0
330.9841,331.25266,62,64,0
330.9841,331.25266,74,64,0
331.21848,331.48703,68,64,0
331.21848,331.48703,65,64,0
331.45285,331.7214,62,64,0
331.45285,331.7214,74,64,0
331.68723,331.95578,68,64,0
331.68723,331.95578,65,64,0
331.9216,332.19016,74,64,0
331.9216,332.19016,62,64,0
332.15598,332.42453,68,64,0
332.15598,332.42453,65,64,0
332.39035,332.6589,73,64,0
332.39035,332.6589,61,64,0
332.62473,332.89328,70,64,0
332.62473,332.89328,66,64,0
332.8591,333.04465,73,64,0
332.8591,333.04465,61,64,0
333.09348,333.36203,77,60,0
333.09348,333.36203,65,60,0
333.32785,333.5964,74,60,0
333.32785,333.5964,71,60,0
333.56223,333.83078,77,61,0
333.56223,333.83078,65,61,0
333.7966,334.06516,74,61,0
333.7966,334.06516,71,61,0
334.03098,334.29953,78,62,0
334.03098,334.29953,66,62,0
334.26535,334.5339,71,63,0
334.26535,334.5339,74,63,0
334.49973,334.76828,68,63,0
334.49973,334.76828,80,63,0
334.7341,335.00266,74,64,0
334.7341,335.00266,71,64,0
334.96848,335.23703,68,64,0
334.96848,335.23703,80,64,0
335.20285,335.4714,71,65,0
335.20285,335.4714,74,65,0
335.43723,335.70578,68,66,0
335.43723,335.70578,80,66,0
335.6716,335.94016,74,66,0
335.6716,335.94016,71,66,0
335.90598,336.17453,78,67,0
335.90598,336.17453,66,67,0
336.14035,336.4089,73,67,0
336.14035,336.4089,69,67,0
336.37473,336.5212,78,68,0
336.37473,336.5212,66,68,0
336.6091,336.87766,67,69,0
336.6091,336.87766,73,69,0
336.84348,337.11203,76,69,0
336.84348,337.11203,64,69,0
337.07785,337.3464,67,70,0
337.07785,337.3464,73,70,0
337.31223,337.58078,76,70,0
337.31223,337.58078,64,70,0
337.5466,337.81516,73,71,0
337.5466,337.81516,67,71,0
337.78098,338.04953,76,72,0
337.78098,338.04953,64,72,0
338.01535,338.2839,65,72,0
338.01535,338.2839,69,72,0
338.24973,338.51828,62,73,0
338.24973,338.51828,74,73,0
338.4841,338.64523,65,73,0
338.4841,338.64523,69,73,0
338.71848,338.98703,72,74,0
338.71848,338.98703,60,74,0
338.95285,339.2214,63,75,0
338.95285,339.2214,69,75,0
339.18723,339.45578,60,75,0
339.18723,339.45578,72,75,0
339.4216,339.69016,63,76,0
339.4216,339.69016,69,76,0
339.65598,339.92453,72,76,0
339.65598,339.92453,60,76,0
339.89035,340.1589,63,77,0
339.89035,340.1589,69,77,0
340.12473,340.39328,58,78,0
340.12473,340.39328,70,78,0
340.3591,340.62766,61,78,0
340.3591,340.62766,65,78,0
340.59348,340.76437,58,79,0
340.59348,340.76437,70,79,0
340.82785,341.0964,61,79,0
340.82785,341.0964,66,79,0
341.06223,341.33078,58,77,0
341.06223,341.33078,70,77,0
341.2966,341.56516,63,75,0
341.2966,341.56516,66,75,0
341.53098,341.79953,70,73,0
341.53098,341.79953,58,73,0
341.76535,342.0339,61,71,0
341.76535,342.0339,65,71,0
341.99973,342.26828,70,69,0
341.99973,342.26828,58,69,0
342.2341,342.50266,61,68,0
342.2341,342.50266,65,68,0
342.46848,342.73703,70,66,0
342.46848,342.73703,58,66,0
342.70285,342.9714,65,64,0
342.70285,342.9714,61,64,0
342.93723,343.20578,60,62,0
342.93723,343.20578,69,62,0
343.1716,343.44016,65,60,0
343.40598,343.59152,60,58,0
343.40598,343.59152,69,58,0
343.64035,343.92355,70,56,0
343.87473,344.15793,61,56,0
344.1091,344.3923,70,57,0
344.34348,344.62668,72,58,0
344.57785,344.86105,65,59,0
344.81223,345.09543,72,60,0
345.0466,345.3298,73,61,0
345.28098,345.56418,65,62,0
345.51535,345.68625,73,63,0
345.51535,345.68625,77,63,0
345.7595,346.0427,77,76,0
345.7595,346.0427,73,76,0
345.9841,346.2673,66,65,0
346.21848,346.50168,77,64,0
346.21848,346.50168,73,64,0
346.45285,346.73605,66,63,0
346.68723,346.97043,73,62,0
346.68723,346.97043,77,62,0
346.9216,347.2048,66,60,0
347.15598,347.43918,75,59,0
347.15598,347.43918,72,59,0
347.39035,347.67355,66,58,0
347.62473,347.79562,75,57,0
347.62473,347.79562,72,57,0
347.8591,348.1423,65,56,0
348.09348,348.37668,70,56,0
348.09348,348.37668,73,56,0
348.32785,348.61105,65,56,0
348.56223,348.84543,70,56,0
348.56223,348.84543,73,56,0
348.7966,349.0798,65,56,0
349.03098,349.31418,73,56,0
349.03098,349.31418,70,56,0
349.26535,349.54855,65,56,0
349.49973,349.78293,73,56,0
349.49973,349.78293,70,56,0
349.7341,349.91965,65,56,0
349.96848,350.25168,69,56,0
349.96848,350.25168,72,56,0
350.20285,350.48605,65,56,0
350.43723,350.72043,69,56,0
350.43723,350.72043,72,56,0
350.6716,350.9548,65,56,0
350.90598,351.18918,69,56,0
350.90598,351.18918,72,56,0
351.14035,351.42355,65,56,0
351.37473,351.65793,69,56,0
351.37473,351.65793,72,56,0
351.6091,351.8923,65,56,0
351.84348,352.02902,69,56,0
351.84348,352.02902,72,56,0
352.07785,352.36105,70,56,0
352.07785,352.36105,73,56,0
352.31223,352.59543,65,57,0
352.5466,352.8298,70,58,0
352.5466,352.8298,73,58,0
352.78098,353.06418,69,59,0
352.78098,353.06418,72,59,0
353.01535,353.29855,65,61,0
353.24973,353.53293,72,62,0
353.24973,353.53293,69,62,0
353.4841,353.7673,70,63,0
353.71848,354.00168,61,65,0
353.95285,354.12375,65,66,0
354.20676,354.48996,78,78,0
354.4216,354.7048,66,69,0
354.65598,354.93918,78,68,0
354.89035,355.17355,66,66,0
355.12473,355.40793,78,64,0
355.3591,355.6423,66,63,0
355.59348,355.87668,78,61,0
355.82785,356.11105,66,59,0
356.06223,356.23312,78,57,0
356.2966,356.5798,66,56,0
356.53098,356.81418,78,56,0
356.76535,357.04855,66,56,0
356.99973,357.28293,77,56,0
357.2341,357.5173,65,56,0
357.46848,357.75168,77,56,0
357.70285,357.98605,64,56,0
357.93723,358.22043,76,56,0
358.1716,358.4548,64,56,0
358.40598,358.68918,77,56,0
358.64035,358.92355,65,55,0
358.87473,359.15793,77,55,0
359.1091,359.3923,64,55,0
359.34348,359.62668,76,54,0
359.57785,359.86105,64,54,0
359.81223,360.09543,77,54,0
360.0466,360.3298,65,53,0
360.28098,360.46652,77,53,0
360.51535,360.74484,66,53,0
360.74973,361.04684,78,52,0
360.99564,361.29276,66,52,0
361.24152,361.53867,77,52,0
361.48743,361.78455,65,51,0
361.73334,362.03046,77,51,0
361.97922,362.27637,64,51,0
362.22513,362.52225,76,50,0
362.47104,362.76816,64,50,0
362.71692,363.01627,77,50,0
362.96283,363.27267,65,52,0
363.21924,363.52908,77,52,0
363.47565,363.7855,64,52,0
363.73206,364.0419,76,52,0
363.98846,364.2983,64,52,0
364.24487,364.55472,77,52,0
364.50128,364.81113,65,52,0
364.7577,364.9607,77,52,0
365.0141,365.30792,41,52,0
365.2705,365.56433,49,52,0
365.52695,365.82074,53,52,0
365.78336,366.07715,56,52,0
366.03976,366.33356,59,52,0
366.29617,366.58997,61,52,0
366.55258,366.84637,65,52,0
366.809,367.10278,68,52,0
367.0654,367.25235,71,52,0
367.3218,367.64764,85,52,0
367.3218,367.64764,73,52,0
367.57822,367.90405,80,52,0
367.57822,367.90405,83,52,0
367.83463,368.15512,73,52,0
367.83463,368.1605,85,52,0
368.09103,368.4169,83,52,0
368.09103,368.4169,80,52,0
368.34744,368.6733,85,52,0
368.34744,368.6733,73,52,0
368.60385,368.92972,83,52,0
368.60385,368.92972,80,52,0
368.86026,369.18613,73,52,0
368.86026,369.18613,85,52,0
369.11667,369.44254,83,52,0
369.11667,369.44254,80,52,0
369.37308,369.56006,85,52,0
369.37308,369.56006,73,52,0
369.6295,370.08356,41,52,0
370.0141,370.4797,49,52,0
370.4078,370.87793,53,52,0
370.80603,371.27615,56,52,0
371.20425,371.67438,59,52,0
371.60248,371.9288,65,52,0
372.00073,372.46533,61,52,0
372.00073,372.46533,73,52,0
372.39896,372.88217,68,52,0
372.39896,372.88217,71,52,0
372.81207,373.3027,73,52,0
372.81207,373.3027,61,52,0
373.23264,373.72327,68,52,0
373.23264,373.72327,71,52,0
373.6532,374.14383,73,52,0
373.6532,374.14383,61,52,0
374.07376,374.43588,71,52,0
374.07376,374.43588,68,52,0
375.2943,376.07764,73,48,0
375.2943,376.07764,59,48,0
375.2943,376.07764,68,48,0
376.89432,377.67764,68,48,0
376.89432,377.67764,61,48,0
376.89432,377.67764,71,48,0
378.4943,379.27765,65,48,0
378.4943,379.27765,73,48,0
378.4943,379.27765,59,48,0
380.0943,380.87762,65,48,0
380.0943,380.87762,61,48,0
380.0943,380.87762,68,48,0
381.6943,382.47763,73,48,0
381.6943,382.47763,66,48,0
381.6943,382.47763,61,48,0
383.2943,384.07764,61,48,0
383.2943,384.07764,70,48,0
383.2943,384.07764,66,48,0
384.89432,385.67764,61,48,0
384.89432,385.67764,66,48,0
384.89432,385.67764,68,48,0
386.4943,387.27765,65,48,0
386.4943,387.27765,61,48,0
386.4943,387.27765,68,48,0
387.6943,388.58597,62,48,0
388.4943,388.82764,61,48,0
389.2943,390.18597,60,48,0
390.0943,390.41098,61,48,0
390.89432,391.78598,62,48,0
390.89432,391.78598,74,48,0
391.6943,392.011,73,48,0
391.6943,392.011,61,48,0
392.4943,393.386,60,48,0
393.2943,393.61096,61,48,0
394.0943,394.98596,64,48,0
394.89432,395.21097,63,48,0
395.6943,396.58597,62,49,0
396.4943,396.81097,63,49,0
397.2943,398.18597,64,50,0
397.2943,398.18597,76,50,0
398.0943,398.41098,75,50,0
398.0943,398.41098,63,50,0
398.89432,399.78598,62,51,0
399.6943,400.011,63,51,0
400.4943,401.386,78,52,0
400.4943,401.386,66,52,0
401.2943,401.61096,77,52,0
401.2943,401.61096,65,52,0
402.0943,402.9943,64,53,0
402.89432,403.21097,65,53,0
403.6943,404.58597,62,54,0
404.4943,404.81097,63,54,0
405.2943,406.18597,60,55,0
406.0943,406.41098,61,55,0
406.761,407.0943,61,56,0
407.02765,407.28598,71,56,0
407.02765,407.28598,65,56,0
407.56097,407.89432,61,56,0
407.82764,408.08597,66,56,0
407.82764,408.08597,71,56,0
408.36096,408.6943,61,56,0
408.62762,408.886,68,57,0
408.62762,408.886,71,57,0
409.16098,409.4943,61,57,0
409.42764,409.68597,66,57,0
409.42764,409.68597,71,57,0
409.96097,410.2943,61,58,0
410.22763,410.48596,68,58,0
410.22763,410.48596,72,58,0
410.22763,410.48596,65,58,0
410.75406,411.07874,61,59,0
411.0138,411.2654,73,59,0
411.0138,411.2654,68,59,0
411.0138,411.2654,65,59,0
411.53326,411.85794,61,59,0
411.793,412.04462,75,60,0
411.793,412.04462,66,60,0
411.793,412.04462,70,60,0
412.3125,412.63715,66,60,0
412.57224,412.82385,71,60,0
412.57224,412.82385,76,60,0
413.09256,413.43796,66,61,0
413.3557,413.61066,76,61,0
413.3557,413.61066,70,61,0
413.88202,414.22742,66,62,0
414.1452,414.40012,69,62,0
414.1452,414.40012,75,62,0
414.6715,415.0169,66,62,0
414.93466,415.1896,76,63,0
414.93466,415.1896,70,63,0
415.46097,415.80637,66,63,0
415.72415,415.97906,71,63,0
415.72415,415.97906,76,63,0
416.25046,416.58514,66,64,0
416.50702,416.7492,73,64,0
416.50702,416.7492,70,64,0
416.50702,416.7492,77,64,0
417.00702,417.33514,66,65,0
417.25702,417.4992,78,65,0
417.25702,417.4992,73,65,0
417.75702,418.08514,69,65,0
418.00702,418.2492,79,66,0
418.00702,418.2492,71,66,0
418.50702,418.83514,69,66,0
418.75702,418.9992,80,66,0
418.75702,418.9992,75,66,0
418.75702,418.9992,71,66,0
419.25476,419.57104,68,67,0
419.49573,419.72916,80,67,0
419.49573,419.72916,71,67,0
419.49573,419.72916,76,67,0
419.97766,420.2939,70,68,0
420.21863,420.45206,76,68,0
420.21863,420.45206,82,68,0
420.70056,421.0168,71,68,0
420.94153,421.17496,83,69,0
420.94153,421.17496,76,69,0
421.42343,421.73972,68,69,0
421.6644,421.89783,80,69,0
421.6644,421.89783,76,69,0
422.14633,422.46262,64,70,0
422.3873,422.62073,76,70,0
422.3873,422.62073,69,70,0
422.86923,423.1855,64,71,0
423.1102,423.34363,68,71,0
423.1102,423.34363,76,71,0
423.5837,423.88895,68,71,0
423.81628,424.04156,76,72,0
423.81628,424.04156,80,72,0
423.81628,424.04156,71,72,0
424.28137,424.5866,70,72,0
424.51395,424.73923,76,72,0
424.51395,424.73923,82,72,0
424.97906,425.2843,71,73,0
425.2116,425.43692,76,73,0
425.2116,425.43692,83,73,0
425.67673,425.98196,68,73,0
425.9093,426.13458,74,74,0
425.9093,426.13458,80,74,0
426.37442,426.67963,62,74,0
426.60696,426.83224,68,74,0
426.60696,426.83224,74,74,0
427.07208,427.37732,62,75,0
427.30463,427.47906,68,75,0
427.30463,427.47906,70,75,0
427.5372,427.82788,74,76,0
427.76974,428.06046,86,76,0
428.00232,428.293,80,76,0
428.23486,428.52557,70,76,0
428.46744,428.75812,82,76,0
428.69998,428.9907,77,76,0
428.93256,429.22324,68,76,0
429.1651,429.4558,80,76,0
429.39767,429.68835,74,76,0
429.63022,429.92093,65,76,0
429.8628,430.15347,77,76,0
430.09534,430.26974,70,76,0
430.32788,430.6186,74,76,0
430.56046,430.85114,86,76,0
430.793,431.0837,80,76,0
431.02557,431.31625,70,76,0
431.25812,431.54883,82,76,0
431.4907,431.78137,77,76,0
431.72324,432.01395,68,76,0
431.9558,432.2465,80,76,0
432.18835,432.47906,74,76,0
432.42093,432.7116,65,76,0
432.65347,432.94418,77,76,0
432.88605,433.06046,70,76,0
433.1186,433.4093,75,76,0
433.35114,433.64185,87,76,0
433.5837,433.8744,82,76,0
433.81625,434.10696,73,76,0
434.04883,434.3395,85,76,0
434.28137,434.57208,79,76,0
434.51395,434.80463,70,76,0
434.7465,435.0372,82,76,0
434.97906,435.26974,75,76,0
435.2116,435.50232,67,76,0
435.44418,435.73486,79,76,0
435.67673,435.85114,73,76,0
435.9093,436.19998,75,76,0
436.14185,436.43256,87,76,0
436.3744,436.6651,82,76,0
436.60696,436.89764,73,76,0
436.8395,437.13022,85,76,0
437.07208,437.36276,79,76,0
437.30463,437.59534,70,76,0
437.5372,437.82788,82,76,0
437.76974,438.06046,75,76,0
438.00232,438.293,67,76,0
438.23486,438.52557,79,76,0
438.46744,438.64185,73,76,0
438.69998,438.9907,68,76,0
438.93253,439.22324,80,76,0
439.1651,439.4558,75,76,0
439.39764,439.68835,60,75,0
439.63022,439.9209,72,74,0
439.86276,440.15347,63,73,0
440.09534,440.38602,58,72,0
440.32788,440.6186,70,71,0
440.56046,440.73486,63,70,0
441.02557,441.31625,63,68,0
441.25812,441.43253,51,67,0
441.4907,441.78137,56,65,0
441.72324,442.01395,68,64,0
441.95578,442.2465,63,63,0
442.18835,442.47906,47,62,0
442.4209,442.7116,59,61,0
442.65347,442.94415,51,60,0
442.88602,443.17673,46,59,0
443.1186,443.40927,58,58,0
443.35114,443.52557,51,57,0
443.81625,444.10696,63,56,0
444.04883,444.2741,51,56,0
444.51395,444.80463,64,56,0
444.7465,444.97177,52,56,0
445.2116,445.5023,63,56,0
445.44415,445.66946,51,56,0
445.90927,446.19998,62,56,0
446.14185,446.36713,50,56,0
446.6183,446.9232,63,56,0
446.8622,447.02988,51,55,0
447.35,447.65488,52,55,0
447.5939,447.8302,40,55,0
448.08173,448.3866,51,54,0
448.32562,448.5619,39,54,0
448.81342,449.1312,50,54,0
449.0671,449.3155,38,54,0
449.57993,449.90042,51,53,0
449.83633,450.04465,39,53,0
450.34915,450.66965,52,53,0
450.60556,450.85394,40,53,0
451.11838,451.43887,51,52,0
451.3748,451.62317,39,52,0
451.89178,452.2251,50,52,0
452.15845,452.41678,38,51,0
452.69177,453.02512,51,51,0
452.95844,453.1751,39,51,0
453.49176,453.8251,52,51,0
453.75842,454.01678,40,50,0
454.29178,454.62946,51,50,0
454.56094,454.82635,39,50,0
455.1089,455.45135,52,52,0
455.38287,455.6483,40,52,0
455.93082,456.2733,53,52,0
456.20477,456.4274,41,52,0
456.75272,457.09518,54,52,0
457.0267,457.2921,42,52,0
457.57465,457.9171,55,52,0
457.8486,458.114,43,52,0
458.39658,458.739,56,52,0
458.67053,458.93594,44,52,0
459.21848,459.56094,57,52,0
459.49246,459.71506,45,52,0
459.76642,460.1089,34,52,0
460.0404,460.38287,46,52,0
460.31436,460.65683,51,52,0
460.58835,460.93082,55,52,0
460.8623,461.20477,63,52,0
461.1363,461.3589,70,52,0
461.41025,461.75272,34,52,0
461.68423,462.0267,46,52,0
461.9582,462.30066,53,52,0
462.23218,462.57465,56,52,0
462.50613,462.8486,62,52,0
462.78012,463.00272,70,52,0
463.876,464.21848,39,52,0
464.15,464.49243,46,52,0
464.42395,464.76642,51,52,0
464.69794,465.0404,55,52,0
464.9719,465.31436,58,52,0
465.24588,465.46848,63,52,0
465.51984,467.05237,68,52,0
465.51984,467.05237,74,52,0
465.51984,467.05237,82,52,0
468.8075,470.39142,80,52,0
468.8075,470.39142,86,52,0
468.8075,470.41708,94,52,0
470.45135,472.03525,68,58,0
470.45135,472.03525,74,58,0
470.45135,472.03525,82,58,0
472.09518,472.89996,56,52,0
472.09518,472.89996,70,52,0
472.09518,472.89996,62,52,0
473.739,474.5438,63,48,0
473.739,474.5438,55,48,0
475.38284,476.18765,87,48,0
475.38284,476.18765,82,48,0
475.38284,476.18765,79,48,0
475.38284,476.18765,75,48,0
477.02667,478.61685,87,48,0
477.02667,478.61685,79,48,0
477.02667,478.61685,75,48,0
477.02667,478.61685,82,48,0
2.499999,3.315971,34,56,0
2.499999,3.315971,46,56,0
4.166665,4.982637,38,56,0
4.166665,4.982637,46,56,0
4.166665,4.982637,50,56,0
5.833331,6.649303,53,56,0
5.833331,6.649303,46,56,0
5.833331,6.649303,41,56,0
7.499997,8.3159685,56,56,0
7.499997,8.3159685,46,56,0
7.499997,8.3159685,44,56,0
9.166663,9.982635,46,56,0
9.166663,9.982635,43,56,0
9.166663,9.982635,55,56,0
10.833329,11.649301,39,56,0
10.833329,11.649301,51,56,0
10.833329,11.649301,46,56,0
12.499995,13.315967,34,56,0
12.499995,13.315967,46,56,0
14.166661,14.982633,34,56,0
14.166661,14.982633,46,56,0
15.833327,16.6493,46,56,0
15.833327,16.6493,34,56,0
17.499992,18.315966,46,56,0
17.499992,18.315966,38,56,0
17.499992,18.315966,50,56,0
19.166658,19.982632,41,56,0
19.166658,19.982632,46,56,0
19.166658,19.982632,53,56,0
20.833324,21.649298,44,56,0
20.833324,21.649298,56,56,0
20.833324,21.649298,46,56,0
22.49999,23.315964,55,56,0
22.49999,23.315964,46,56,0
22.49999,23.315964,43,56,0
24.166656,24.98263,39,56,0
24.166656,24.98263,51,56,0
24.166656,24.98263,46,56,0
25.833323,26.649296,34,56,0
25.833323,26.649296,46,56,0
27.499989,28.411448,34,56,0
27.499989,28.411448,46,56,0
28.333323,29.24478,47,56,0
28.333323,29.24478,35,56,0
29.166655,30.078114,34,59,0
29.166655,30.078114,46,59,0
29.999989,30.911446,45,63,0
29.999989,30.911446,33,63,0
30.83332,31.60589,46,58,0
30.83332,31.60589,34,58,0
31.666655,32.578114,35,56,0
31.666655,32.578114,47,56,0
32.49999,33.411446,34,57,0
32.49999,33.411446,46,57,0
33.33332,34.244778,33,61,0
33.33332,34.244778,45,61,0
34.166653,34.982624,46,58,0
34.166653,34.982624,34,58,0
35.83332,36.649292,38,56,0
35.83332,36.649292,46,56,0
35.83332,36.649292,50,56,0
37.499985,38.315956,46,56,0
37.499985,38.315956,41,56,0
37.499985,38.315956,53,56,0
39.166653,39.982624,44,56,0
39.166653,39.982624,56,56,0
39.166653,39.982624,46,56,0
40.833317,41.64929,43,56,0
40.833317,41.64929,46,56,0
40.833317,41.64929,55,56,0
42.499985,43.315956,42,55,0
42.499985,43.315956,46,55,0
42.499985,43.315956,54,55,0
44.16665,44.98262,39,54,0
44.16665,44.98262,51,54,0
44.16665,44.98262,46,54,0
45.833317,46.64929,34,53,0
45.833317,46.64929,46,53,0
47.49998,48.315952,34,52,0
47.49998,48.315952,46,52,0
48.61109,48.92359,27,63,0
48.88887,49.20137,39,56,0
49.16665,49.479145,46,56,0
49.444424,49.756924,51,56,0
49.722202,49.9913,55,56,0
50.27776,50.590256,32,56,0
50.555534,50.868034,44,56,0
50.833313,51.145813,48,56,0
51.11109,51.42359,51,56,0
51.38887,51.657967,56,56,0
51.944424,52.256924,34,56,0
52.222202,52.534702,46,56,0
52.499977,52.812477,51,56,0
52.777756,53.090256,55,56,0
53.055534,53.32463,58,56,0
53.611088,53.923588,34,56,0
53.888866,54.201366,46,56,0
54.166645,54.479145,50,56,0
54.444424,54.756924,53,56,0
54.7222,54.9913,58,56,0
55.277756,55.590256,36,56,0
55.555534,55.868034,44,56,0
55.83331,56.14581,48,56,0
56.111088,56.423588,51,56,0
56.388866,56.657963,56,56,0
56.94442,57.25692,38,56,0
57.2222,57.5347,46,56,0
57.499977,57.812477,50,56,0
57.777756,58.090256,53,56,0
58.05553,58.32463,58,56,0
58.611088,58.923588,39,56,0
58.888866,59.201366,46,56,0
59.16664,59.47914,51,56,0
59.44442,59.75692,55,56,0
59.7222,59.991295,58,56,0
60.277752,60.607616,33,56,0
60.55553,60.88539,45,56,0
60.83331,61.16317,51,56,0
61.111088,61.44095,54,56,0
61.388863,61.657963,60,56,0
61.94442,62.27428,34,56,0
62.2222,62.55206,41,56,0
62.499973,62.829838,46,56,0
62.777752,63.107613,50,56,0
63.05553,63.324627,53,56,0
63.611084,63.94095,35,56,0
63.888863,64.21873,44,56,0
64.16664,64.496506,47,56,0
64.44442,64.77428,51,57,0
64.7222,64.991295,56,57,0
65.27775,65.60761,37,58,0
65.55553,65.88539,46,58,0
65.833305,66.16317,49,59,0
66.111084,66.44095,54,59,0
66.38886,66.65796,49,59,0
66.94442,67.27428,37,60,0
67.2222,67.552055,44,61,0
67.49997,67.829834,49,61,0
67.77775,68.10761,53,61,0
68.05553,68.32462,56,62,0
68.611084,68.94094,30,62,0
68.88886,69.21872,42,63,0
69.16664,69.4965,49,63,0
69.44442,69.77428,54,64,0
69.72219,69.991295,58,64,0
70.27775,70.60761,35,65,0
70.55553,70.88539,47,65,0
70.833305,71.16316,51,65,0
71.111084,71.44094,54,66,0
71.38886,71.65796,56,66,0
71.94441,72.25691,37,67,0
72.22219,72.53469,49,67,0
72.49997,72.81247,54,68,0
72.77775,73.09025,58,68,0
73.05553,73.32462,61,68,0
73.611084,73.923584,38,69,0
73.88886,74.20136,46,70,0
74.16663,74.47913,50,70,0
74.44441,74.75691,53,70,0
74.72219,74.99129,58,71,0
75.27775,75.59025,39,71,0
75.55553,75.86803,46,72,0
75.833305,76.145805,51,72,0
76.111084,76.423584,54,73,0
76.388855,76.60587,63,73,0
76.94441,77.27428,32,74,0
77.22219,77.552055,44,74,0
77.49997,77.82983,51,74,0
77.77775,78.107605,56,75,0
78.05553,78.32462,59,75,0
78.61108,78.94094,34,76,0
78.888855,79.21872,46,76,0
79.16663,79.4965,54,76,0
79.44441,79.75691,58,76,0
79.72219,79.99129,46,76,0
80.27775,80.59025,34,76,0
80.55553,80.86803,46,76,0
80.8333,81.1458,53,76,0
81.11108,81.42358,56,76,0
81.388855,81.65795,46,76,0
81.94441,82.28295,34,76,0
82.22219,82.56073,46,76,0
82.49997,82.83851,51,76,0
82.77775,83.11629,54,76,0
83.05552,83.32462,46,76,0
83.61108,83.949615,34,76,0
83.888855,84.227394,46,76,0
84.16663,84.50517,49,76,0
84.44441,84.78295,53,76,0
84.72219,84.99129,46,76,0
85.27774,85.61629,34,75,0
85.55552,85.894066,46,74,0
85.8333,86.17184,47,74,0
86.11108,86.449615,51,73,0
86.388855,86.65795,46,72,0
86.94441,87.28295,34,71,0
87.22219,87.56073,46,70,0
87.49996,87.83851,49,70,0
87.77774,88.04684,46,69,0
88.61108,88.92358,34,67,0
88.888855,89.15795,46,66,0
89.44441,89.75691,58,67,0
89.72218,89.99129,46,67,0
90.27774,90.59024,34,69,0
90.55552,90.824615,46,69,0
91.11108,91.42358,58,68,0
91.388855,91.65795,46,67,0
91.944405,92.256905,34,62,0
92.22218,92.49128,46,61,0
92.77774,93.09024,58,57,0
93.05552,93.324615,46,57,0
94.166626,95.06072,34,56,0
94.99996,95.89406,35,56,0
95.8333,96.727394,34,56,0
96.666626,97.56072,33,56,0
97.49996,98.26385,34,56,0
98.3333,99.21871,35,56,0
99.166626,100.05204,34,56,0
99.99996,100.885376,33,56,0
100.83329,101.64926,34,56,0
102.49996,103.31593,38,56,0
102.49996,103.31593,50,56,0
102.49996,103.31593,46,56,0
104.166626,104.9826,46,56,0
104.166626,104.9826,53,56,0
104.166626,104.9826,41,56,0
105.83329,106.64926,51,56,0
105.83329,106.64926,43,56,0
105.83329,106.64926,55,56,0
107.499954,108.315926,51,59,0
107.499954,108.315926,61,59,0
107.499954,108.315926,49,59,0
109.166626,109.9826,51,61,0
109.166626,109.9826,60,61,0
109.166626,109.9826,48,61,0
110.83329,111.64926,51,63,0
110.83329,111.64926,47,63,0
110.83329,111.64926,59,63,0
112.499954,113.315926,44,62,0
112.499954,113.315926,51,62,0
112.499954,113.315926,56,62,0
114.16662,114.98259,43,59,0
114.16662,114.98259,51,59,0
114.16662,114.98259,55,59,0
115.83329,116.64926,42,57,0
115.83329,116.64926,54,57,0
115.83329,116.64926,51,57,0
117.499954,118.315926,39,56,0
117.499954,118.315926,51,56,0
117.499954,118.315926,46,56,0
119.16662,119.98259,34,56,0
119.16662,119.98259,46,56,0
120.83328,121.649254,34,56,0
120.83328,121.649254,46,56,0
122.499954,123.315926,39,56,0
124.16662,124.98259,39,55,0
125.83328,126.649254,50,52,0
125.83328,126.649254,38,52,0
127.49995,128.31592,38,50,0
127.49995,128.31592,50,50,0
129.0364,129.49539,36,64,0
129.73953,130.19852,43,64,0
131.14578,131.60477,34,64,0
131.8489,132.30789,41,64,0
133.25516,133.71414,32,64,0
133.95828,134.41727,39,64,0
134.6614,135.12039,41,64,0
135.36453,135.82352,43,64,0
136.06766,136.52664,39,64,0
137.4739,137.93289,36,64,0
138.17703,138.63602,39,64,0
138.88016,139.33914,41,64,0
139.58328,140.04227,43,64,0
140.2864,140.74539,39,64,0
141.69266,142.15164,34,68,0
142.39578,142.85477,46,70,0
143.80203,144.26102,36,70,0
144.50516,144.96414,48,67,0
145.44266,145.71121,54,64,0
145.67703,145.87234,57,64,0
145.20828,145.88211,50,64,0
146.14578,146.41434,55,64,0
146.38016,146.64871,59,64,0
146.61453,146.88309,62,64,0
146.8489,147.11746,60,64,0
145.9114,147.2786,51,64,0
147.08328,147.2786,55,64,0
147.55203,147.82059,54,64,0
147.31766,147.98172,50,64,0
147.7864,147.98172,57,64,0
148.25516,148.52371,55,64,0
148.48953,148.75809,59,64,0
148.7239,148.99246,62,64,0
148.95828,149.22684,60,64,0
148.02078,149.38309,51,64,0
149.19266,149.38309,55,64,0
149.6614,149.93484,57,64,0
149.42703,150.08621,53,64,0
149.89578,150.08621,60,64,0
150.36453,150.6282,57,65,0
150.5989,150.86258,60,67,0
150.83328,151.09695,65,68,0
151.06766,151.33133,63,70,0
150.13016,151.49246,54,64,0
151.30203,151.49246,60,71,0
151.5364,151.7659,55,72,0
151.77078,152.03445,58,72,0
152.00516,152.26883,62,72,0
152.23953,152.5032,65,71,0
152.4739,152.73758,63,69,0
152.70828,152.97195,58,68,0
152.94266,153.20633,55,67,0
153.17703,153.4407,51,66,0
153.4114,153.60184,55,65,0
153.64578,153.90945,50,64,0
153.64578,153.90945,38,64,0
153.88016,154.14383,54,64,0
154.11453,154.30984,57,64,0
154.3489,154.62234,48,64,0
154.3489,154.62234,36,64,0
154.58328,154.85672,51,64,0
154.58328,154.85672,55,64,0
154.81766,155.0911,59,64,0
155.05203,155.32547,62,64,0
155.2864,155.55984,60,64,0
155.52078,155.71121,55,64,0
155.75516,156.0286,38,64,0
155.75516,156.0286,50,64,0
155.98953,156.26297,54,64,0
156.2239,156.4534,57,64,0
156.45828,156.73172,48,64,0
156.45828,156.73172,36,64,0
156.69266,156.9661,55,64,0
156.69266,156.9661,51,64,0
156.92703,157.20047,59,64,0
157.1614,157.43484,62,64,0
157.39578,157.66922,60,64,0
157.63016,157.82059,55,64,0
157.86453,158.13797,53,64,0
157.86453,158.13797,41,64,0
158.0989,158.37234,57,64,0
158.33328,158.52371,60,64,0
158.56766,158.8411,38,64,0
158.56766,158.8411,50,64,0
158.80203,159.07547,54,64,0
158.80203,159.07547,57,64,0
159.0364,159.30984,60,64,0
159.27078,159.54422,65,64,0
159.50516,159.7786,63,64,0
159.73953,159.92996,60,64,0
159.9739,160.14969,46,76,0
159.9739,160.14969,34,76,0
160.20828,160.48172,58,76,0
160.44266,160.7161,62,76,0
160.67703,160.95047,55,76,0
160.9114,161.18484,58,76,0
161.14578,161.41922,51,76,0
161.38016,161.6536,55,76,0
161.61453,161.88797,48,76,0
161.8489,162.03934,51,76,0
162.08328,162.31277,56,76,0
162.31766,162.58621,53,76,0
162.55203,162.82059,56,76,0
162.7864,163.05496,50,76,0
163.02078,163.28934,53,76,0
163.25516,163.52371,47,76,0
163.48953,163.75809,50,76,0
163.7239,163.99246,43,76,0
163.95828,164.1536,47,76,0
164.19266,164.46121,51,76,0
164.42703,164.69559,48,76,0
164.6614,164.92996,51,76,0
164.89578,165.16434,45,76,0
165.13016,165.39871,48,76,0
165.36453,165.63309,42,76,0
165.5989,165.86746,45,76,0
165.83328,166.10184,38,76,0
166.06766,166.24832,42,76,0
166.5364,166.80496,38,56,0
166.30203,166.96121,34,56,0
166.77078,166.96121,43,56,0
167.00516,167.27371,36,56,0
167.23953,167.50809,39,56,0
167.4739,167.74246,43,56,0
167.70828,167.97684,46,56,0
167.94266,168.21121,45,56,0
168.17703,168.36746,42,56,0
168.64578,168.91434,38,56,0
168.4114,169.07059,34,56,0
168.88016,169.07059,43,56,0
169.3489,169.61746,39,58,0
169.11453,169.85184,36,55,0
169.58328,169.85184,45,62,0
169.81766,170.08621,48,62,0
170.05203,170.32059,47,60,0
169.81766,170.47684,38,62,0
170.2864,170.47684,41,57,0
170.75516,171.02371,43,56,0
170.52078,171.17996,39,56,0
170.98953,171.17996,48,56,0
171.45828,171.72684,44,56,0
171.69266,171.96121,48,56,0
171.92703,172.19559,51,56,0
172.1614,172.42996,50,56,0
171.2239,172.58621,41,56,0
172.39578,172.58621,47,56,0
172.86453,173.13309,43,56,0
172.63016,173.28934,39,56,0
173.0989,173.28934,48,57,0
173.56766,173.83621,44,63,0
173.33328,174.07059,41,58,0
173.80203,174.07059,50,67,0
174.0364,174.30496,53,68,0
174.27078,174.53934,52,64,0
174.0364,174.69559,43,68,0
174.50516,174.69559,46,61,0
174.9739,175.24246,48,63,0
174.73953,175.39871,45,62,0
175.20828,175.39871,54,64,0
175.67703,175.94559,50,65,0
175.44266,176.17996,46,64,0
175.9114,176.17996,55,66,0
176.14578,176.41434,58,67,0
176.38016,176.64871,57,67,0
176.14578,176.80496,48,67,0
176.61453,176.80496,51,68,0
177.08328,177.35184,53,70,0
176.8489,177.50809,50,69,0
177.31766,177.50809,59,70,0
177.7864,178.05496,55,72,0
177.55203,178.28934,51,71,0
178.02078,178.28934,60,73,0
178.25516,178.52371,62,73,0
178.48953,178.75809,61,74,0
178.25516,178.91434,52,73,0
178.7239,178.91434,55,75,0
178.95828,179.23172,63,76,0
178.95828,179.23172,53,76,0
179.19266,179.4661,62,76,0
179.19266,179.4661,56,76,0
179.42703,179.70047,63,76,0
179.42703,179.70047,53,76,0
179.6614,179.93484,62,76,0
179.6614,179.93484,56,76,0
179.89578,180.16922,53,76,0
179.89578,180.16922,63,76,0
180.13016,180.4036,62,76,0
180.13016,180.4036,56,76,0
180.36453,180.63797,63,76,0
180.36453,180.63797,53,76,0
180.5989,180.87234,62,76,0
180.5989,180.87234,56,76,0
180.83328,181.02371,63,76,0
180.83328,181.02371,53,76,0
181.06766,181.33621,54,76,0
181.06766,181.33621,62,76,0
181.30203,181.57059,57,76,0
181.30203,181.57059,61,76,0
181.5364,181.80496,54,76,0
181.5364,181.80496,62,76,0
181.77078,182.03934,61,76,0
181.77078,182.03934,57,76,0
182.00516,182.27371,54,76,0
182.00516,182.27371,62,76,0
182.23953,182.50809,61,76,0
182.23953,182.50809,57,76,0
182.4739,182.74246,54,76,0
182.4739,182.74246,62,76,0
182.70828,182.97684,57,76,0
182.70828,182.97684,61,76,0
182.94266,183.13309,54,76,0
182.94266,183.13309,62,76,0
183.17703,183.45047,57,76,0
183.17703,183.45047,61,76,0
183.4114,183.68484,54,76,0
183.4114,183.68484,60,76,0
183.64578,183.91922,61,76,0
183.64578,183.91922,57,76,0
183.88016,184.1536,54,76,0
183.88016,184.1536,60,76,0
184.11453,184.2952,55,76,0
184.11453,184.2952,59,76,0
184.3489,184.5784,41,76,0
184.3489,184.5784,53,76,0
184.58328,184.85184,41,78,0
184.58328,184.85184,53,78,0
184.81766,185.08621,39,79,0
184.81766,185.08621,51,79,0
185.05203,185.23758,38,81,0
185.05203,185.23758,50,81,0
185.2864,185.67703,36,83,0
185.2864,185.67703,48,83,0
185.98953,186.38016,38,84,0
185.98953,186.38016,50,84,0
185.98953,186.38016,45,84,0
189.50516,190.19363,48,56,0
190.9114,191.59988,46,56,0
191.61453,192.30301,44,56,0
193.02078,193.47977,43,56,0
193.7239,194.18289,41,56,0
194.42703,194.88602,38,57,0
195.13016,195.58914,39,58,0
195.83328,196.29227,36,63,0
196.5364,196.99539,38,58,0
197.94266,199.3782,36,56,0
197.94266,199.3782,48,56,0
199.3489,200.07645,34,56,0
199.3489,200.07645,46,56,0
200.05203,201.48758,32,56,0
200.05203,201.48758,44,56,0
201.45828,202.12234,31,56,0
201.45828,202.12234,43,56,0
202.1614,202.88895,29,56,0
202.1614,202.88895,41,56,0
202.86453,203.59207,27,57,0
202.86453,203.59207,39,57,0
203.56766,204.2952,26,59,0
203.56766,204.2952,38,59,0
204.27078,205.61844,39,61,0
204.27078,205.61844,27,61,0
205.67703,206.40945,30,64,0
205.67703,206.40945,42,64,0
206.38016,207.7327,47,66,0
206.38016,207.7327,35,66,0
207.7864,208.47488,38,69,0
208.48953,209.85184,43,71,0
209.89578,210.58426,48,74,0
209.89578,210.58426,36,74,0
210.5989,211.97586,50,75,0
210.5989,211.97586,38,75,0
212.00516,212.64969,50,63,0
212.70828,213.43582,46,56,0
212.70828,213.43582,55,56,0
212.70828,213.43582,43,56,0
213.4114,214.13895,57,58,0
213.4114,214.13895,50,58,0
214.11453,214.57352,58,61,0
214.11453,214.61258,55,61,0
214.58328,214.76883,62,63,0
214.58328,214.76883,58,63,0
214.82742,216.20438,48,76,0
214.82742,216.24344,62,76,0
214.82742,216.24344,58,76,0
216.2239,216.86844,48,63,0
216.2239,216.86844,57,63,0
216.2239,216.86844,60,63,0
216.92703,219.00711,58,56,0
216.92703,219.00711,55,56,0
216.92703,219.00711,50,56,0
219.0364,221.06277,50,56,0
219.0364,221.06277,54,56,0
219.0364,221.06277,57,56,0
221.14578,221.87332,58,57,0
221.14578,221.87332,55,57,0
221.8489,222.57645,50,59,0
221.8489,222.57645,57,59,0
222.55203,223.05008,46,61,0
222.55203,223.05008,55,61,0
223.02078,223.20633,43,63,0
223.02078,223.20633,50,63,0
223.27469,224.65164,48,76,0
223.27469,224.65164,36,76,0
224.6614,225.32059,36,58,0
225.36453,227.44461,38,56,0
227.4739,229.53934,50,56,0
229.58328,231.75414,38,55,0
231.78487,234.03397,50,52,0
243.97891,244.29141,34,56,0
244.39558,244.70807,46,56,0
244.81224,245.12474,50,56,0
245.64557,245.95807,38,56,0
246.06224,246.37474,46,56,0
246.47891,246.79141,50,56,0
247.31224,247.62474,41,56,0
247.72891,248.04141,46,56,0
248.14557,248.45807,53,56,0
248.97891,249.29141,44,56,0
249.39557,249.70807,46,56,0
249.81224,250.12474,56,56,0
250.64557,250.95807,43,56,0
251.06224,251.37474,46,56,0
251.47891,251.79141,55,56,0
252.31224,252.62474,39,56,0
252.72891,253.04141,46,56,0
253.14557,253.45807,51,56,0
253.97891,254.29141,34,56,0
254.39557,254.70807,46,56,0
254.81224,255.12474,50,56,0
255.64557,255.95807,34,56,0
256.06223,256.37473,46,56,0
256.4789,256.7914,50,56,0
257.7289,258.0414,34,56,0
258.14557,258.45807,46,56,0
258.56223,258.87473,58,56,0
258.9789,259.2914,46,56,0
259.39557,259.70807,38,56,0
259.81223,260.12473,50,56,0
260.2289,260.5414,58,56,0
260.64557,260.95807,46,56,0
261.06223,261.37473,41,56,0
261.4789,261.7914,53,56,0
261.89557,262.20807,58,56,0
262.31223,262.62473,46,56,0
262.7289,263.0414,44,56,0
263.14557,263.45807,56,56,0
263.56223,263.87473,58,56,0
263.9789,264.2914,46,56,0
264.39557,264.70807,43,56,0
264.81223,265.12473,55,56,0
265.2289,265.5414,58,56,0
265.64557,265.95807,46,56,0
266.06223,266.37473,39,56,0
266.4789,266.7914,51,56,0
266.89557,267.20807,58,56,0
267.31223,267.62473,46,56,0
267.7289,268.0414,34,56,0
268.14557,268.45807,46,56,0
268.56223,268.87473,58,56,0
268.9789,269.2914,46,56,0
269.39557,269.70807,34,56,0
269.81223,270.12473,46,56,0
270.2289,271.14035,35,56,0
271.06223,271.9737,34,56,0
271.89557,272.80704,33,56,0
272.7289,273.4841,34,56,0
273.56223,274.49106,35,56,0
274.39557,275.32437,34,56,0
275.2289,276.1577,33,56,0
276.06223,276.8782,34,56,0
277.72888,278.54486,50,56,0
277.72888,278.54486,46,56,0
277.72888,278.54486,38,56,0
279.39557,280.21155,53,56,0
279.39557,280.21155,46,56,0
279.39557,280.21155,41,56,0
281.06223,281.8782,55,57,0
281.06223,281.8782,51,57,0
281.06223,281.8782,43,57,0
282.72888,283.54486,61,61,0
282.72888,283.54486,51,61,0
282.72888,283.54486,49,61,0
284.39557,285.21152,60,65,0
284.39557,285.21152,51,65,0
284.39557,285.21152,48,65,0
286.06223,286.8782,59,67,0
286.06223,286.8782,51,67,0
286.06223,286.8782,47,67,0
287.72888,288.54486,56,63,0
287.72888,288.54486,44,63,0
287.72888,288.54486,51,63,0
289.39557,290.21152,51,59,0
289.39557,290.21152,55,59,0
289.39557,290.21152,43,59,0
291.06223,291.8782,42,56,0
291.06223,291.8782,54,56,0
292.72888,293.54486,39,56,0
292.72888,293.54486,51,56,0
292.72888,293.54486,46,56,0
294.39557,295.21152,34,56,0
294.39557,295.21152,46,56,0
296.06223,296.8782,34,56,0
296.06223,296.8782,46,56,0
297.72888,298.54486,39,56,0
299.39557,300.21152,39,54,0
301.06223,301.8782,39,51,0
302.72888,303.54486,39,48,0
304.26535,304.72433,39,64,0
304.96848,305.42746,46,64,0
306.37473,306.8337,37,64,0
307.07785,307.53683,44,64,0
308.4841,308.94308,35,64,0
309.18723,309.6462,42,64,0
309.89035,310.34933,44,64,0
310.59348,311.05246,46,64,0
311.2966,311.75558,42,64,0
312.70285,313.16183,39,64,0
313.40598,313.86496,42,64,0
314.1091,314.56808,44,64,0
314.81223,315.2712,46,64,0
315.51535,315.97433,42,64,0
316.9216,317.38058,37,65,0
317.62473,318.0837,49,70,0
319.03098,319.48996,39,70,0
319.7341,320.19308,51,64,0
320.43723,320.8962,41,64,0
321.14035,321.59933,53,64,0
321.84348,322.30246,41,67,0
322.55637,323.01535,30,71,0
323.24973,323.7087,42,73,0
323.95285,324.41183,54,72,0
324.65598,325.11496,27,71,0
325.3591,325.81808,39,69,0
326.06223,326.5212,51,66,0
326.76535,327.22433,29,64,0
327.46848,327.92746,41,64,0
328.87473,330.3347,39,64,0
328.87473,330.3347,51,64,0
330.28098,331.04758,37,64,0
330.28098,331.04758,49,64,0
330.9841,332.44406,35,64,0
330.9841,332.44406,47,64,0
332.39035,333.04953,46,64,0
332.39035,333.04953,34,64,0
333.09348,333.8503,44,60,0
333.09348,333.8503,32,60,0
333.7966,334.55344,42,61,0
333.7966,334.55344,30,61,0
334.49973,335.1589,29,63,0
334.49973,335.1589,41,63,0
335.20285,336.5261,42,65,0
335.20285,336.5261,30,65,0
336.6091,337.29758,33,69,0
336.6091,337.29758,45,69,0
337.31223,338.65988,50,70,0
337.31223,338.65988,38,70,0
338.71848,339.40695,41,74,0
339.4216,340.7546,46,76,0
339.4216,340.7546,34,76,0
340.82785,341.51633,39,79,0
341.53098,342.90793,41,73,0
342.93723,343.5964,53,62,0
343.64035,344.38254,58,62,0
343.64035,344.38254,46,56,0
343.64035,344.38254,49,56,0
344.34348,345.08566,53,58,0
344.34348,345.08566,60,64,0
345.0466,345.50558,61,67,0
345.0466,345.5593,58,61,0
345.51535,345.68625,61,63,0
345.51535,345.68625,65,69,0
345.7595,347.23898,61,76,0
345.7595,347.23898,65,82,0
347.15598,347.8005,60,59,0
347.15598,347.8005,63,65,0
345.7595,347.8054,51,76,0
347.8591,349.93918,53,56,0
347.8591,349.93918,61,56,0
347.8591,349.93918,58,56,0
349.96848,352.04855,53,56,0
349.96848,352.04855,57,56,0
349.96848,352.04855,60,56,0
352.07785,352.8347,58,56,0
352.07785,352.8347,61,56,0
352.78098,353.5378,60,59,0
352.78098,353.5378,53,59,0
353.4841,354.01144,49,63,0
353.4841,354.01144,58,63,0
353.95285,354.12375,53,66,0
353.95285,354.12375,46,66,0
354.20676,355.5837,39,78,0
354.20676,355.5837,51,78,0
355.59348,356.238,39,61,0
356.2966,358.37668,41,56,0
358.40598,360.4714,53,56,0
360.51535,362.6862,41,53,0
362.71692,364.96603,53,50,0
375.2943,376.07764,37,48,0
375.2943,376.07764,49,48,0
376.89432,377.67764,49,48,0
376.89432,377.67764,41,48,0
376.89432,377.67764,53,48,0
378.4943,379.27765,44,48,0
378.4943,379.27765,49,48,0
378.4943,379.27765,56,48,0
380.0943,380.87762,49,48,0
380.0943,380.87762,47,48,0
380.0943,380.87762,59,48,0
381.6943,382.47763,58,48,0
381.6943,382.47763,46,48,0
381.6943,382.47763,49,48,0
383.2943,384.07764,42,48,0
383.2943,384.07764,54,48,0
383.2943,384.07764,49,48,0
384.89432,385.67764,37,48,0
384.89432,385.67764,49,48,0
386.4943,387.39432,49,48,0
387.2943,388.1943,50,48,0
388.0943,388.8193,49,48,0
388.89432,389.78598,36,48,0
388.89432,389.78598,48,48,0
389.6943,390.40265,49,48,0
389.6943,390.40265,37,48,0
390.4943,391.386,50,48,0
391.2943,392.00262,49,48,0
392.0943,392.98596,36,48,0
392.0943,392.98596,48,48,0
392.89432,393.60263,37,48,0
392.89432,393.60263,49,48,0
393.6943,394.58597,52,48,0
394.4943,395.20264,51,48,0
395.2943,396.18597,38,48,0
395.2943,396.18597,50,48,0
396.0943,396.80264,51,49,0
396.0943,396.80264,39,49,0
396.89432,397.78598,52,49,0
397.6943,398.40265,51,50,0
398.4943,399.386,50,50,0
398.4943,399.386,38,50,0
399.2943,400.00262,51,51,0
399.2943,400.00262,39,51,0
400.0943,400.98596,42,51,0
400.0943,400.98596,54,51,0
400.89432,401.60263,53,52,0
400.89432,401.60263,41,52,0
401.6943,402.58597,40,52,0
401.6943,402.58597,52,52,0
402.4943,403.20264,53,53,0
402.4943,403.20264,41,53,0
403.2943,404.18597,38,53,0
403.2943,404.18597,50,53,0
404.0943,404.80264,51,54,0
404.0943,404.80264,39,54,0
404.89432,405.78598,36,54,0
404.89432,405.78598,48,54,0
405.6943,406.40265,37,55,0
405.6943,406.40265,49,55,0
406.4943,407.386,44,55,0
406.4943,407.386,56,55,0
407.2943,408.18597,42,56,0
407.2943,408.18597,54,56,0
408.0943,408.98596,53,56,0
408.0943,408.98596,41,56,0
408.89432,409.6193,39,57,0
408.89432,409.6193,51,57,0
409.6943,410.5836,37,58,0
409.6943,410.5836,49,58,0
410.4943,411.36282,35,58,0
410.4943,411.36282,47,58,0
411.27353,412.14203,46,59,0
411.27353,412.14203,34,59,0
412.05273,412.74268,32,60,0
412.05273,412.74268,44,60,0
412.83197,413.51196,30,61,0
412.83197,413.51196,42,61,0
413.61887,414.3919,54,61,0
413.61887,414.4988,60,67,0
414.40836,415.28827,61,68,0
414.40836,415.97086,54,62,0
415.1978,416.07776,59,69,0
415.9873,416.65546,58,64,0
415.9873,416.84296,54,70,0
416.75702,417.4914,58,64,0
416.75702,417.59296,52,70,0
417.50702,418.2414,59,65,0
417.50702,418.34296,51,71,0
418.25702,418.9914,59,66,0
418.25702,418.9914,47,72,0
419.00702,419.6388,40,67,0
419.00702,419.6388,52,67,0
419.7367,420.44452,52,67,0
419.7367,420.52737,61,67,0
420.4596,421.16742,52,68,0
420.4596,421.25024,64,68,0
421.1825,421.89032,52,69,0
421.1825,421.97314,62,69,0
421.90536,422.6132,52,70,0
421.90536,422.69604,61,70,0
422.62827,423.3361,52,70,0
422.62827,423.3361,59,70,0
423.35117,423.96887,52,71,0
423.35117,423.96887,40,71,0
424.04883,424.73196,52,72,0
424.04883,424.82645,61,72,0
424.7465,425.42963,52,73,0
424.7465,425.5241,62,73,0
425.44418,426.12732,52,73,0
425.44418,426.2218,59,73,0
426.14185,426.82498,58,74,0
426.14185,426.91946,52,74,0
426.83954,427.48633,58,75,0
426.83954,427.48633,53,75,0
426.83954,427.48633,56,75,0
427.5372,427.82788,34,76,0
427.76974,428.06046,41,76,0
428.00232,428.293,46,76,0
428.23486,428.52557,38,76,0
428.46744,428.75812,46,76,0
428.69998,428.9907,50,76,0
428.93256,429.22324,41,76,0
429.1651,429.4558,46,76,0
429.39767,429.68835,53,76,0
429.63022,429.92093,44,76,0
429.8628,430.15347,46,76,0
430.09534,430.26974,56,76,0
430.32788,430.6186,46,76,0
430.56046,430.85114,53,76,0
430.793,431.0837,58,76,0
431.02557,431.31625,50,76,0
431.25812,431.54883,58,76,0
431.4907,431.78137,62,76,0
431.72324,432.01395,53,76,0
431.9558,432.2465,58,76,0
432.18835,432.47906,65,76,0
432.42093,432.7116,56,76,0
432.65347,432.94418,58,76,0
432.88605,433.06046,68,76,0
433.1186,433.4093,31,76,0
433.35114,433.64185,39,76,0
433.5837,433.8744,43,76,0
433.81625,434.10696,34,76,0
434.04883,434.3395,39,76,0
434.28137,434.57208,46,76,0
434.51395,434.80463,37,76,0
434.7465,435.0372,39,76,0
434.97906,435.26974,49,76,0
435.2116,435.50232,39,76,0
435.44418,435.73486,46,76,0
435.67673,435.85114,51,76,0
435.9093,436.19998,43,76,0
436.14185,436.43256,51,76,0
436.3744,436.6651,55,76,0
436.60696,436.89764,46,76,0
436.8395,437.13022,51,76,0
437.07208,437.36276,58,76,0
437.30463,437.59534,49,76,0
437.5372,437.82788,51,76,0
437.76974,438.06046,61,76,0
438.00232,438.293,51,76,0
438.23486,438.52557,58,76,0
438.46744,438.64185,63,76,0
438.69998,438.9907,48,76,0
438.93253,439.22324,56,76,0
439.1651,439.4558,60,76,0
439.39764,439.68835,44,75,0
439.63022,439.9209,51,74,0
439.86276,440.15347,56,73,0
440.09534,440.38602,43,72,0
440.32788,440.6186,51,71,0
440.56046,440.73486,55,70,0
440.793,441.43982,39,69,0
441.4907,441.78137,35,65,0
441.72324,442.01395,44,64,0
441.95578,442.2465,47,63,0
442.18835,442.47906,32,62,0
442.4209,442.7116,39,61,0
442.65347,442.94415,44,60,0
442.88602,443.17673,31,59,0
443.1186,443.40927,39,58,0
443.35114,443.52557,43,57,0
443.5837,444.34677,27,56,0
443.5837,444.34677,39,56,0
444.28137,445.04446,28,56,0
444.28137,445.04446,40,56,0
444.97903,445.74213,27,56,0
444.97903,445.74213,39,56,0
445.67673,446.443,38,56,0
445.67673,446.443,26,56,0
446.3744,447.0375,27,56,0
446.3744,447.0375,39,56,0
447.1061,447.9064,28,55,0
447.8378,448.63812,27,55,0
448.56952,449.39563,26,54,0
449.32352,450.05267,27,53,0
450.09274,450.93408,28,53,0
450.86197,451.7033,27,52,0
451.6312,452.5001,26,52,0
452.4251,453.18344,27,51,0
453.2251,454.1001,28,51,0
454.02512,454.912,27,50,0
454.83493,455.7339,28,50,0
455.65683,456.43594,29,52,0
456.47876,457.37772,30,52,0
457.30066,458.19965,31,52,0
458.1226,459.02155,32,52,0
458.94452,459.7236,33,52,0
465.51984,467.05237,51,52,0
465.51984,467.05237,58,52,0
465.51984,467.05237,65,52,0
467.16367,467.50613,51,52,0
467.43765,467.78012,58,52,0
467.7116,468.05408,63,52,0
467.9856,468.32806,67,52,0
468.25955,468.60202,70,52,0
468.53354,468.7219,75,52,0
468.8075,470.39142,70,52,0
468.8075,470.39142,77,52,0
470.45135,472.03525,51,58,0
470.45135,472.03525,58,58,0
470.45135,472.03525,65,58,0
472.09518,472.89996,39,52,0
472.09518,472.89996,46,52,0
472.09518,472.89996,53,52,0
473.739,474.5438,39,48,0
473.739,474.5438,46,48,0
473.739,474.5438,51,48,0
475.38284,476.18765,58,48,0
475.38284,476.18765,55,48,0
475.38284,476.18765,63,48,0
475.38284,476.18765,67,48,0
477.02667,478.61685,27,48,0
477.02667,478.61685,39,48,0
