start_time,end_time,note_value,velocity,instrument_program_number
6.8889976,7.077298,55,96,40
6.8889976,7.077298,62,96,40
6.923052,7.722328,71,96,40
6.923052,7.722328,79,96,40
7.7884336,7.9927597,74,96,40
8.076894,8.38739,76,96,40
8.365355,8.5937195,77,96,40
8.653815,8.757981,74,96,40
8.735946,8.840113,75,96,40
8.818077,8.922243,74,96,40
8.900208,9.0043745,75,96,40
8.98234,9.088509,74,96,40
9.066474,9.17064,75,96,40
9.148605,9.218717,74,96,40
9.230736,9.925846,75,96,40
9.999964,10.11615,75,96,40
10.192271,10.308456,75,96,40
10.384578,11.075682,75,96,40
11.153806,11.269992,74,96,40
11.346113,11.462298,75,96,40
11.53842,12.229524,75,96,40
12.307648,12.423834,75,96,40
12.499955,12.61614,75,96,40
12.692262,13.383366,75,96,40
13.46149,13.577676,75,96,40
13.653797,13.769982,77,96,40
13.846104,14.376951,78,96,40
14.423025,14.953873,80,96,40
14.999946,15.530793,81,96,40
15.576867,15.693052,82,96,40
15.769174,15.88536,77,96,40
15.961481,16.077667,77,96,40
16.153788,16.684635,78,96,40
16.73071,17.261557,80,96,40
17.30763,17.838478,81,96,40
17.88455,18.000736,82,96,40
18.076859,18.193043,77,96,40
18.269165,18.385351,77,96,40
18.461472,18.99232,73,96,40
19.038393,19.56924,75,96,40
19.615314,20.146162,76,96,40
20.192236,20.30842,77,96,40
20.384542,20.500727,72,96,40
20.576849,20.693035,72,96,40
20.769156,21.310019,73,96,40
21.346077,21.88694,75,96,40
21.922998,22.04319,76,96,40
22.115305,22.463861,84,96,40
22.49992,22.848475,84,96,40
22.884533,23.004725,84,96,40
23.07684,23.193026,77,96,40
23.269148,23.385332,77,76,40
23.461454,24.214657,77,76,40
24.230682,24.346867,75,76,40
24.230682,24.346867,77,76,40
24.422989,24.539175,77,76,40
24.422989,24.539175,75,76,40
24.615295,25.368498,75,76,40
24.615295,25.368498,77,76,40
25.384523,25.50071,75,76,40
25.384523,25.50071,77,76,40
25.576832,25.693016,75,76,40
25.576832,25.693016,77,76,40
25.769138,26.52234,75,76,40
25.769138,26.52234,77,76,40
26.538366,26.914967,77,76,40
26.538366,26.935,69,76,40
26.92298,27.299582,77,76,40
26.92298,27.319613,75,76,40
27.307594,27.636118,77,76,40
27.307594,27.636118,69,76,40
27.692207,27.880508,69,76,40
27.692207,28.575619,77,76,40
28.557589,28.82001,72,76,40
28.84605,29.160553,74,76,40
29.13451,29.392923,75,76,40
29.422972,29.527138,72,76,40
29.505102,29.609268,74,76,40
29.587233,29.691399,72,76,40
29.669365,29.773531,74,76,40
29.751495,29.855661,72,76,40
29.833626,29.937794,74,76,40
29.915758,29.977858,72,76,40
29.999891,31.173765,79,76,40
31.153734,32.327606,77,76,40
32.307575,33.48145,75,76,40
33.46142,34.581207,74,76,40
39.23063,39.442966,73,78,40
39.422935,39.635273,78,78,40
39.615242,39.787518,82,79,40
39.80755,40.01989,78,80,40
39.999855,40.212196,82,81,40
40.19216,40.364437,85,81,40
40.38447,40.59681,82,82,40
40.57678,40.789116,85,83,40
40.769085,40.94136,90,84,40
40.96139,41.17373,90,84,40
41.153698,41.366035,89,85,40
41.346004,41.51828,88,86,40
41.53831,41.750652,89,86,40
41.730618,41.94296,86,87,40
41.922928,42.0952,82,88,40
42.115234,42.32757,77,89,40
42.30754,42.51988,74,89,40
42.499847,42.672123,70,90,40
42.692154,42.90449,87,91,40
42.88446,43.0968,84,92,40
43.076767,43.249043,81,92,40
43.269073,43.481415,77,93,40
43.461384,43.67372,75,94,40
43.65369,43.821957,72,95,40
43.845997,43.96218,74,96,40
43.845997,43.96218,82,96,40
44.038303,44.154488,80,96,40
44.23061,44.346794,77,96,40
44.422916,44.5391,74,96,40
46.15368,46.269867,55,76,40
46.345985,46.462173,56,76,40
46.538296,46.65448,60,76,40
46.730602,46.846786,58,76,40
46.92291,47.039093,56,76,40
47.115215,47.2314,58,76,40
47.30752,47.423706,56,76,40
47.49983,47.616013,55,76,40
47.692135,47.808323,56,76,40
47.88444,48.00063,55,76,40
48.07675,48.192936,58,76,40
48.26906,48.385242,55,76,40
48.461365,48.57755,56,76,40
48.65367,48.769855,58,76,40
48.845978,48.962162,62,76,40
49.038284,49.154472,60,76,40
49.23059,49.34678,58,76,40
49.422897,49.539085,60,76,40
49.615208,49.73139,58,76,40
49.807514,49.9237,56,76,40
49.99982,50.116005,58,76,40
50.192127,50.30831,56,76,40
50.384434,50.500618,55,76,40
50.57674,50.69293,70,76,40
50.769047,51.368004,63,76,40
51.34597,51.944923,64,76,40
51.92289,52.521847,65,76,40
52.49981,52.81832,66,76,40
52.884426,53.00061,73,76,40
53.076733,53.192917,78,76,40
53.26904,53.385223,77,76,40
53.461346,53.57753,78,76,40
53.653652,53.76984,76,76,40
53.84596,53.962147,75,76,40
54.038265,54.154453,76,76,40
54.230576,54.34676,74,76,40
54.422882,54.539066,73,76,40
54.61519,54.731373,74,76,40
54.807495,54.92368,73,76,40
54.9998,55.115986,69,76,40
55.384415,55.915264,61,76,40
55.384415,55.915264,69,76,40
55.961338,56.492184,68,81,40
55.961338,56.492184,60,81,40
56.538258,57.069107,68,85,40
56.538258,57.069107,64,85,40
57.115177,57.457726,68,90,40
57.115177,57.457726,58,90,40
57.499794,57.61598,66,93,40
57.499794,57.61598,68,93,40
57.6921,57.846348,68,95,40
57.6921,57.846348,64,95,40
59.999783,60.85715,64,76,40
59.999783,60.85715,73,76,40
60.865166,61.11757,68,76,40
61.153625,61.46813,70,76,40
61.442085,61.7005,71,76,40
61.73055,61.834713,68,76,40
61.81268,61.916843,70,76,40
61.89481,61.998974,68,76,40
61.97694,62.08111,70,76,40
62.05907,62.16324,68,76,40
62.1412,62.24537,70,76,40
62.223335,62.305466,68,76,40
63.46131,63.7678,70,76,40
63.74977,64.002174,71,76,40
64.03823,64.1464,68,76,40
64.12036,64.22854,70,76,40
64.20249,64.31067,68,76,40
64.28462,64.3928,70,76,40
64.36675,64.47693,68,76,40
64.44888,64.55906,70,76,40
64.53102,64.61315,68,76,40
69.23052,69.44687,71,76,40
69.42283,69.639175,73,76,40
69.615135,70.33028,76,76,40
70.38436,70.5967,75,76,40
70.57667,70.78901,73,76,40
70.768974,71.484116,75,76,40
71.5382,71.75054,73,76,40
71.730515,71.94285,71,76,40
71.92282,72.63796,73,76,40
72.69205,72.90439,71,76,40
72.88435,73.096695,66,76,40
73.07666,73.747734,71,76,40
73.84589,74.05823,75,76,40
74.03819,74.250534,76,76,40
74.2305,74.94564,80,76,40
74.99973,75.21207,78,76,40
75.19204,75.40437,76,76,40
75.384346,76.09949,78,76,40
76.15357,76.36591,76,76,40
76.34588,76.55822,75,76,40
76.538185,77.25333,76,76,40
77.30741,77.51975,75,76,40
77.49972,77.71206,73,76,40
77.692024,78.40717,75,76,40
79.03818,79.14635,59,76,40
79.13433,79.2425,63,76,40
79.230484,79.33865,66,76,40
79.32664,79.43481,71,76,40
79.42279,79.53096,75,76,40
79.51894,79.60308,78,76,40
79.6151,79.8034,73,76,40
80.19202,80.30019,57,76,40
80.28817,80.39635,61,76,40
80.38432,80.4925,64,76,40
80.48048,80.58865,69,76,40
80.57663,80.68481,73,76,40
80.67278,80.75692,76,76,40
80.76894,80.95724,71,76,40
81.34586,81.45403,55,76,40
81.44202,81.550186,59,76,40
81.53817,81.64634,62,76,40
81.63432,81.74249,67,76,40
81.73048,81.838646,71,76,40
81.82663,81.91077,74,76,40
81.92278,82.111084,70,76,40
82.4997,82.71204,58,76,40
82.69201,82.90435,59,76,40
82.884315,83.05259,61,76,40
83.07662,83.26492,63,76,40
83.65354,83.76172,59,76,40
83.749695,83.85787,63,76,40
83.845856,83.954025,66,76,40
83.94201,84.05018,71,76,40
84.03816,84.14633,75,76,40
84.134315,84.20843,78,76,40
84.23047,84.41877,73,76,40
84.80739,84.91556,57,76,40
84.90354,85.01171,61,76,40
84.999695,85.107864,64,76,40
85.09585,85.20402,69,76,40
85.192,85.30017,73,76,40
85.288155,85.362274,76,76,40
85.38431,85.57261,71,76,40
85.96123,86.069405,55,76,40
86.05738,86.16556,59,76,40
86.153534,86.26171,62,76,40
86.24969,86.357864,67,76,40
86.34584,86.45402,71,76,40
86.44199,86.51611,74,76,40
86.53815,86.72645,70,76,40
87.115074,87.33141,61,76,40
87.30738,87.52372,59,76,40
87.49969,87.66795,61,76,40
87.69199,87.880295,63,76,40
88.26891,88.36306,63,76,40
88.36507,88.45921,66,76,40
88.46122,88.55537,66,76,40
88.55737,88.65153,75,76,40
88.65353,88.74768,75,76,40
88.74968,88.843834,78,76,40
88.84583,89.034134,78,76,40
89.42275,89.51691,63,76,40
89.518906,89.61306,66,76,40
89.61506,89.70921,66,76,40
89.71121,89.80537,75,76,40
89.807365,89.90152,75,76,40
89.90353,89.99767,78,76,40
89.99968,90.18797,78,76,40
90.5766,90.670746,66,76,40
90.67275,90.7669,75,76,40
90.768906,90.86305,75,76,40
90.86506,90.959206,78,76,40
90.96121,91.05536,78,76,40
91.057365,91.15151,87,76,40
91.15352,91.35985,87,76,40
91.345825,91.552155,86,77,40
91.53813,91.8947,87,79,40
91.922745,92.129074,86,82,40
92.11505,92.47162,87,84,40
92.499664,92.59382,86,87,40
92.59582,92.68997,86,88,40
92.69197,92.786125,87,89,40
92.788124,92.88228,87,90,40
92.88428,92.97843,86,90,40
92.98044,93.074585,86,91,40
93.07659,93.17074,87,92,40
93.172745,93.26689,87,93,40
93.2689,93.363045,86,94,40
93.36505,93.4592,86,94,40
93.461205,93.649506,87,95,40
95.73483,95.923134,55,96,40
95.73483,95.923134,62,96,40
95.76888,96.57818,71,96,40
95.76888,96.57818,79,96,40
96.63427,96.844604,74,96,40
96.92273,97.23322,76,96,40
97.21119,97.46359,77,96,40
97.49965,97.60381,74,96,40
97.58178,97.68594,75,96,40
97.66391,97.768074,74,96,40
97.74604,97.85021,75,96,40
97.82817,97.93434,74,96,40
97.91231,98.01647,75,96,40
97.99444,98.054535,74,96,40
98.07657,98.82577,75,96,40
98.845795,98.96198,75,96,40
99.0381,99.15429,75,96,40
99.230415,99.98361,75,96,40
99.99964,100.11582,74,96,40
100.19195,100.308136,75,96,40
100.384254,101.13746,75,96,40
101.15348,101.26967,75,96,40
101.34579,101.461975,75,96,40
101.53809,102.23921,75,96,40
102.30733,102.42351,75,96,40
102.49963,102.615814,77,96,40
102.69194,103.222786,78,96,40
103.26886,103.799706,80,96,40
103.84578,104.376625,81,96,40
104.4227,104.53889,82,96,40
104.615005,104.73119,77,96,40
104.80731,104.9235,77,96,40
104.99962,105.53047,78,96,40
105.576546,106.10739,80,96,40
106.153465,106.68431,81,96,40
106.730385,106.84657,82,96,40
106.92269,107.03888,77,96,40
107.115,107.231186,77,96,40
107.307304,107.81812,74,96,40
107.884224,108.00041,77,96,40
108.07653,108.19272,77,96,40
108.268845,108.385025,77,96,40
108.46115,108.96796,74,96,40
109.03807,109.15425,77,96,40
109.23038,109.346565,77,96,40
109.42268,109.53887,77,96,40
109.61499,109.73118,70,96,40
109.61499,109.73118,82,96,40
109.8073,109.923485,82,76,40
109.8073,109.923485,70,76,40
109.9996,110.75281,70,76,40
109.9996,110.75281,82,76,40
110.76883,110.88502,70,76,40
110.76883,110.88502,82,76,40
110.961136,111.077324,82,76,40
110.961136,111.077324,70,76,40
111.15344,111.90665,70,76,40
111.15344,111.90665,82,76,40
111.922676,112.03886,82,76,40
111.922676,112.03886,70,76,40
112.11498,112.23116,70,76,40
112.11498,112.23116,82,76,40
112.30729,113.03044,70,76,40
112.30729,113.03044,82,76,40
113.076515,113.45312,70,76,40
113.076515,113.45312,82,76,40
113.46113,113.83773,70,76,40
113.46113,113.83773,82,76,40
113.84574,114.22234,82,76,40
113.84574,114.22234,70,76,40
114.230354,115.11377,82,76,40
115.09574,115.348145,77,76,40
115.3842,115.694695,79,76,40
115.67266,115.925064,80,76,40
115.96112,116.04926,77,76,40
116.04325,116.13339,79,76,40
116.12538,116.21553,77,76,40
116.20751,116.29766,79,76,40
116.28964,116.37979,77,76,40
116.37177,116.46192,76,76,40
116.45391,116.526024,77,76,40
116.53804,117.687874,84,76,40
117.69189,118.47313,82,76,40
118.46111,118.673454,80,76,40
118.65342,118.81167,79,76,40
118.845726,119.05807,65,76,40
119.03803,119.250374,67,76,40
119.23034,119.44268,70,76,40
119.422646,119.63499,69,76,40
119.61495,119.82729,67,76,40
119.80726,119.97553,69,76,40
119.999565,120.21191,67,76,40
120.19187,120.40421,65,76,40
120.384186,120.59652,67,76,40
120.57649,120.788826,65,76,40
120.7688,120.98113,63,76,40
120.961105,121.12937,65,76,40
121.15341,121.365746,63,76,40
121.34572,121.55806,65,76,40
121.538025,121.75037,67,76,40
121.73033,121.94267,69,76,40
121.92264,122.13498,70,76,40
122.114944,122.28321,72,76,40
122.30725,122.51959,74,76,40
122.49956,122.7119,75,76,40
122.691864,122.904205,77,76,40
122.88417,123.09651,79,76,40
123.07648,123.28882,81,76,40
123.26878,123.43706,82,76,40
123.4611,124.5909,84,76,40
124.61494,125.39619,82,81,40
125.38416,125.58649,80,84,40
125.57647,125.74474,79,85,40
125.768776,126.550026,82,86,40
126.53801,126.740326,80,89,40
126.730316,126.888565,79,90,40
126.92262,127.13496,82,90,40
127.11493,127.32726,80,91,40
127.307236,127.431435,79,92,40
127.49954,127.71188,82,93,40
127.69185,127.90419,80,94,40
127.884155,128.00835,79,95,40
128.07646,128.19264,87,95,40
128.26877,128.38495,85,96,40
128.46107,128.57726,82,96,40
128.65338,128.76956,79,96,40
128.84569,128.96187,75,96,40
129.038,129.15419,73,96,40
129.2303,129.3465,70,96,40
129.4226,129.5388,67,96,40
129.61491,129.73111,63,96,40
130.96106,131.52597,56,100,40
130.96106,131.52597,70,100,40
132.11491,132.67981,56,100,40
132.11491,132.69183,70,100,40
133.07645,133.26474,68,104,40
133.07645,133.26474,71,104,40
133.65337,133.84166,76,104,40
133.65337,133.84166,68,104,40
134.23029,134.41858,80,104,40
134.23029,134.41858,71,104,40
134.8072,134.97147,83,104,40
134.8072,134.97147,71,104,40
134.99951,135.5504,78,96,40
135.57643,136.12732,83,96,40
136.15335,136.558,87,96,40
136.53796,136.71025,83,96,40
136.73027,137.13492,82,96,40
137.11488,137.28717,81,96,40
137.3072,137.98828,82,96,40
138.07643,138.19261,79,96,40
138.26874,138.38492,75,96,40
138.46104,138.57722,74,96,40
138.65335,138.76953,70,96,40
138.84566,138.96184,68,96,40
139.03796,139.15414,65,96,40
139.23027,139.34645,62,96,40
139.42258,139.53876,58,96,40
140.1918,140.7567,63,100,40
140.1918,140.7567,65,100,40
141.34564,141.91055,63,100,40
141.34564,141.91055,65,100,40
142.30717,142.49548,63,96,40
142.30717,142.49548,66,96,40
142.8841,143.0724,71,96,40
142.8841,143.0724,63,96,40
143.46103,143.64932,75,96,40
143.46103,143.64932,66,96,40
144.03795,144.22624,78,96,40
144.03795,144.22624,66,96,40
148.84561,149.3965,71,96,40
149.42255,149.97342,76,96,40
149.99947,150.4001,80,96,40
150.38408,150.55635,76,96,40
150.57639,150.98103,75,96,40
150.961,151.13327,74,96,40
151.1533,151.55394,82,96,40
151.53792,151.71019,79,96,40
151.73022,152.13086,77,96,40
152.11484,152.28711,76,96,40
152.30714,152.70778,84,97,40
152.69176,152.86403,80,97,40
152.88406,153.2847,79,97,40
153.26868,153.44095,77,100,40
153.46098,153.82156,87,100,40
153.8456,154.15009,82,100,40
154.23021,154.3464,79,100,40
154.42252,154.53871,75,100,40
154.61482,154.73102,80,100,40
154.80713,154.92332,77,100,40
154.99944,155.11563,74,100,40
155.19174,155.30794,70,100,40
155.38405,155.50024,68,100,40
155.57637,155.69255,65,100,40
155.76868,155.94696,63,100,40
156.92252,157.11081,70,100,40
156.92252,157.11081,63,100,40
156.92252,157.11081,55,100,40
156.92252,157.11081,79,100,40
158.07635,159.40648,55,100,40
158.07635,159.40648,63,100,40
159.80711,160.36601,75,76,40
159.80711,160.36601,63,76,40
160.38403,162.61314,63,76,40
160.38403,162.61314,75,76,40
162.65181,163.60661,75,76,40
162.65181,163.60661,63,76,40
163.6502,167.33153,63,76,40
163.6502,167.33153,75,76,40
167.37582,168.8122,61,76,40
168.86026,170.43077,59,76,40
170.39873,170.93826,56,76,40
170.91154,171.45108,58,76,40
171.42436,171.89445,59,76,40
171.93718,173.00555,63,76,40
172.96283,173.4329,61,76,40
173.47565,174.92863,58,76,40
175.0141,176.50449,61,76,40
176.55257,177.11346,58,76,40
177.06538,177.62628,59,76,40
177.5782,178.0483,61,76,40
178.09102,179.15405,64,76,40
179.11667,179.58675,63,76,40
179.62949,180.58568,59,76,40
180.65512,181.12521,63,78,40
181.16795,182.67436,66,79,40
182.7064,183.2673,63,82,40
183.21922,183.78012,65,84,40
183.73204,184.20213,66,85,40
184.25555,184.8218,68,87,40
184.75769,185.31859,65,83,40
185.27051,185.74059,62,82,40
185.78333,186.34422,65,80,40
186.29614,186.85704,62,79,40
186.80896,187.27905,56,77,40
187.3218,188.40085,55,76,40
188.34743,188.92435,61,76,40
188.86024,189.43716,59,76,40
189.37306,189.94998,58,76,40
189.88588,190.38802,56,76,40
193.47563,195.57498,61,76,40
195.5269,196.10384,59,76,40
196.03972,196.54185,58,76,40
199.62947,201.72882,66,76,40
201.68074,202.25768,65,81,40
202.19357,202.64763,63,83,40
202.7331,204.19676,58,84,40
204.24484,205.75125,58,80,40
205.78331,206.86237,61,76,40
206.80894,207.38586,58,76,40
207.32176,207.8239,60,76,40
211.93715,213.0162,62,76,40
212.96278,213.5397,59,76,40
213.4756,213.97774,61,76,40
218.09099,219.17004,63,76,40
219.11662,219.57068,60,76,40
219.62944,220.63371,58,76,40
219.62944,220.70851,68,76,40
220.65509,221.10915,66,76,40
220.65509,221.10915,58,76,40
221.16791,222.24696,64,76,40
222.19354,222.6476,61,76,40
222.70636,223.71063,59,76,40
222.70636,223.78543,69,76,40
223.73201,224.18607,68,76,40
223.73201,224.18607,59,76,40
224.24483,225.32388,62,76,40
225.27046,226.85165,56,76,40
226.80893,228.31534,58,76,40
230.39867,231.47772,61,76,40
231.4243,231.8944,58,76,40
231.93712,232.51405,56,76,40
232.44995,233.02687,58,76,40
232.96277,233.43285,59,76,40
233.47559,234.55464,63,76,40
234.50122,234.97131,61,76,40
235.01405,236.47238,58,76,40
236.5525,238.0429,61,76,40
238.09097,238.65186,58,76,40
238.60379,239.16469,60,76,40
239.11661,239.60272,61,76,40
239.62943,240.70848,64,76,40
240.65506,241.12515,63,76,40
241.1679,242.62622,60,76,40
242.70634,244.81639,63,78,40
244.75763,245.33455,61,81,40
245.27045,245.74052,60,81,40
245.78326,247.89331,63,82,40
247.83455,248.41147,61,85,40
248.34737,248.81744,60,86,40
248.86018,249.93924,64,87,40
249.88582,250.35591,61,88,40
250.39865,250.97557,61,89,40
250.91147,251.48839,60,89,40
251.42429,251.89436,58,90,40
251.9371,253.01616,64,91,40
252.96275,253.43283,61,92,40
253.47557,254.03647,69,93,40
253.98839,254.54929,68,94,40
254.5012,254.9713,66,95,40
255.01402,256.52045,64,95,40
256.5525,257.63153,60,96,40
257.57812,258.0322,61,96,40
258.09094,259.58133,61,96,40
259.6294,260.70847,57,94,40
260.65506,261.1091,56,83,40
261.16788,262.6743,59,77,40
264.24478,265.7512,58,76,40
267.32172,268.82812,56,76,40
270.39862,271.90503,63,76,40
294.63638,294.82468,55,96,40
294.63638,294.82468,62,96,40
294.67044,295.46973,71,96,40
294.67044,295.46973,79,96,40
295.53583,295.74014,74,96,40
295.82428,296.13477,76,96,40
296.11273,296.3411,77,96,40
296.4012,296.50537,74,96,40
296.48334,296.5875,75,96,40
296.56546,296.66962,74,96,40
296.64758,296.75177,75,96,40
296.72974,296.8359,74,96,40
296.81387,296.91803,75,96,40
296.896,296.9661,74,96,40
296.97812,297.67322,75,96,40
297.74734,297.86353,75,96,40
297.93967,298.05585,75,96,40
298.13196,298.82306,75,96,40
298.90118,299.01736,74,96,40
299.0935,299.2097,75,96,40
299.2858,299.9769,75,96,40
300.05502,300.17123,75,96,40
300.24734,300.36353,75,96,40
300.43964,301.13074,75,96,40
301.20886,301.32507,75,96,40
301.40118,301.51736,77,96,40
301.5935,302.12433,78,96,40
302.1704,302.70126,80,96,40
302.74734,303.27817,81,96,40
303.32425,303.44043,82,96,40
303.51657,303.63275,77,96,40
303.70886,303.82504,77,96,40
303.90118,304.43204,78,96,40
304.4781,305.00894,80,96,40
305.05502,305.58588,81,96,40
305.63193,305.74814,82,96,40
305.82425,305.94043,77,96,40
306.01654,306.13275,77,96,40
306.20886,306.73972,73,96,40
306.78577,307.31662,75,96,40
307.3627,307.89355,76,96,40
307.93964,308.05582,77,96,40
308.13193,308.2481,72,96,40
308.32425,308.44043,72,96,40
308.51654,309.0574,73,96,40
309.09348,309.63434,75,96,40
309.67038,309.7906,76,96,40
309.8627,310.21124,84,96,40
310.2473,310.59586,84,96,40
310.63193,310.7521,84,96,40
310.82422,310.9404,77,96,40
311.01654,311.13272,77,76,40
311.20883,311.96204,77,76,40
311.97806,312.09427,75,76,40
311.97806,312.09427,77,76,40
312.17038,312.28656,77,76,40
312.17038,312.28656,75,76,40
312.36267,313.11588,75,76,40
312.36267,313.11588,77,76,40
313.1319,313.2481,75,76,40
313.1319,313.2481,77,76,40
313.32422,313.4404,75,76,40
313.32422,313.4404,77,76,40
313.5165,314.2697,75,76,40
313.5165,314.2697,77,76,40
314.28577,314.66235,77,76,40
314.28577,314.68237,69,76,40
314.67038,315.04697,77,76,40
314.67038,315.067,75,76,40
315.055,315.3835,77,76,40
315.055,315.3835,69,76,40
315.4396,315.6279,69,76,40
315.4396,316.323,77,76,40
316.30496,316.56738,72,76,40
316.59344,316.90793,74,76,40
316.8819,317.14032,75,76,40
317.17035,317.27454,72,76,40
317.2525,317.35666,74,76,40
317.33463,317.43878,72,76,40
317.41675,317.5209,74,76,40
317.49887,317.60306,72,76,40
317.58102,317.68518,74,76,40
317.66315,317.72525,72,76,40
317.74728,318.92114,79,76,40
318.90112,320.07498,77,76,40
320.05496,321.22885,75,76,40
321.2088,322.32858,74,76,40
326.97803,327.19037,73,78,40
327.17032,327.38266,78,78,40
327.36264,327.5349,82,79,40
327.55493,327.76727,78,80,40
327.74725,327.9596,82,81,40
327.93954,328.11182,85,81,40
328.13187,328.3442,82,82,40
328.32416,328.5365,85,83,40
328.51648,328.68875,90,84,40
328.70877,328.9211,90,84,40
328.9011,329.11343,89,85,40
329.09338,329.26566,88,86,40
329.2857,329.49805,89,86,40
329.478,329.69034,86,87,40
329.67032,329.8426,82,88,40
329.8626,330.07495,77,89,40
330.05493,330.26727,74,89,40
330.24722,330.4195,70,90,40
330.43954,330.6519,87,91,40
330.63184,330.84418,84,92,40
330.82416,330.99643,81,92,40
331.01645,331.2288,77,93,40
331.20877,331.4211,75,94,40
331.40106,331.56934,72,95,40
331.59338,331.70956,74,96,40
331.59338,331.70956,82,96,40
331.78568,331.9019,80,96,40
331.978,332.09418,77,96,40
332.17032,332.2865,74,96,40
333.90106,334.01724,55,76,40
334.09338,334.20956,56,76,40
334.28568,334.40186,60,76,40
334.478,334.59418,58,76,40
334.6703,334.78647,56,76,40
334.8626,334.9788,58,76,40
335.0549,335.17108,56,76,40
335.24722,335.3634,55,76,40
335.4395,335.5557,56,76,40
335.63184,335.74802,55,76,40
335.82413,335.9403,58,76,40
336.01645,336.13263,55,76,40
336.20874,336.32495,56,76,40
336.40106,336.51724,58,76,40
336.59335,336.70956,62,76,40
336.78568,336.90186,60,76,40
336.97797,337.09418,58,76,40
337.1703,337.28647,60,76,40
337.36258,337.4788,58,76,40
337.5549,337.67108,56,76,40
337.7472,337.8634,58,76,40
337.9395,338.0557,56,76,40
338.13184,338.24802,55,76,40
338.32413,338.4403,70,76,40
338.51645,339.1154,63,76,40
339.09335,339.69232,64,76,40
339.6703,340.26923,65,76,40
340.2472,340.5657,66,76,40
340.6318,340.748,73,76,40
340.82413,340.9403,78,76,40
341.01642,341.1326,77,76,40
341.20874,341.32492,78,76,40
341.40103,341.5172,76,76,40
341.59335,341.70953,75,76,40
341.78564,341.90182,76,76,40
341.97797,342.09415,74,76,40
342.17026,342.28647,73,76,40
342.36258,342.47876,74,76,40
342.55487,342.67108,73,76,40
342.7472,342.86337,69,76,40
343.1318,343.66266,61,76,40
343.1318,343.66266,69,76,40
343.7087,344.23956,68,81,40
343.7087,344.23956,60,81,40
344.28564,344.8165,68,85,40
344.28564,344.8165,64,85,40
344.86258,345.2051,68,90,40
344.86258,345.2051,58,90,40
345.2472,345.36337,66,93,40
345.2472,345.36337,68,93,40
345.43948,345.59372,68,95,40
345.43948,345.59372,64,95,40
347.74716,348.60455,64,76,40
347.74716,348.60455,73,76,40
348.61255,348.86496,68,76,40
348.901,349.2155,70,76,40
349.18948,349.44788,71,76,40
349.47794,349.5821,68,76,40
349.56006,349.66425,70,76,40
349.64218,349.74637,68,76,40
349.72433,349.8285,70,76,40
349.80646,349.9106,68,76,40
349.88858,349.99277,70,76,40
349.97073,350.05286,68,76,40
351.2087,351.5152,70,76,40
351.49716,351.74957,71,76,40
351.7856,351.8938,68,76,40
351.86774,351.97592,70,76,40
351.9499,352.05804,68,76,40
352.032,352.1402,70,76,40
352.11414,352.2243,68,76,40
352.19626,352.30646,70,76,40
352.2784,352.36053,68,76,40
356.9779,357.19424,71,76,40
357.17023,357.38657,73,76,40
357.36252,358.07767,76,76,40
358.13174,358.3441,75,76,40
358.32407,358.5364,73,76,40
358.51636,359.2315,75,76,40
359.28558,359.49792,73,76,40
359.4779,359.69025,71,76,40
359.6702,360.38535,73,76,40
360.43942,360.65176,71,76,40
360.63174,360.8441,66,76,40
360.82404,361.49512,71,76,40
361.59326,361.8056,75,76,40
361.78558,361.99792,76,76,40
361.97787,362.69302,80,76,40
362.74713,362.95944,78,76,40
362.93942,363.15176,76,76,40
363.13174,363.84686,78,76,40
363.90097,364.1133,76,76,40
364.09326,364.3056,75,76,40
364.28558,365.0007,76,76,40
365.0548,365.26715,75,76,40
365.2471,365.45944,73,76,40
365.43942,366.15457,75,76,40
366.78555,366.89374,59,86,40
366.8817,366.9899,63,86,40
366.97787,367.08603,66,86,40
367.07404,367.1822,71,86,40
367.17017,367.27835,75,86,40
367.26633,367.35046,78,86,40
367.3625,367.55078,73,86,40
367.9394,368.04758,57,86,40
368.03555,368.14374,61,86,40
368.1317,368.2399,64,86,40
368.22787,368.33603,69,86,40
368.324,368.4322,73,86,40
368.42017,368.5043,76,86,40
368.51633,368.70462,71,86,40
369.09326,369.20142,55,86,40
369.1894,369.29758,59,86,40
369.28555,369.39374,62,86,40
369.3817,369.48987,67,86,40
369.47787,369.58603,71,86,40
369.574,369.65814,74,86,40
369.67017,369.85846,70,86,40
370.2471,370.45944,58,86,40
370.4394,370.65173,59,86,40
370.6317,370.8,61,86,40
370.824,371.0123,63,86,40
371.40094,371.5091,59,86,40
371.49707,371.60526,63,86,40
371.59323,371.70142,66,86,40
371.6894,371.79758,71,86,40
371.78555,371.8937,75,86,40
371.8817,371.9558,78,86,40
371.97784,372.16617,73,86,40
372.55478,372.66293,57,86,40
372.65094,372.7591,61,86,40
372.74707,372.85526,64,86,40
372.84323,372.95142,69,86,40
372.9394,373.04755,73,86,40
373.03555,373.10965,76,86,40
373.13168,373.32,71,86,40
373.70862,373.8168,55,86,40
373.80478,373.91293,59,86,40
373.9009,374.0091,62,86,40
373.99707,374.10526,67,86,40
374.09323,374.20142,71,86,40
374.1894,374.2635,74,86,40
374.28552,374.47385,70,86,40
374.86246,375.0788,61,86,40
375.05478,375.27112,59,86,40
375.24707,375.41534,61,86,40
375.4394,375.6277,63,86,40
376.0163,376.11044,63,86,40
376.11246,376.2066,66,86,40
376.20862,376.30276,66,86,40
376.30475,376.39893,75,86,40
376.4009,376.49506,75,86,40
376.49707,376.59122,78,86,40
376.59323,376.78152,78,86,40
377.17014,377.26428,63,86,40
377.2663,377.36044,66,86,40
377.36246,377.4566,66,86,40
377.4586,377.55276,75,86,40
377.55475,377.6489,75,86,40
377.6509,377.74506,78,86,40
377.74707,377.93536,78,86,40
378.32397,378.41812,66,86,40
378.42014,378.51428,75,86,40
378.5163,378.61044,75,86,40
378.61246,378.7066,78,86,40
378.7086,378.80273,78,86,40
378.80475,378.8989,87,86,40
378.9009,379.10724,87,86,40
379.0932,379.29953,86,87,40
379.28552,379.6421,87,89,40
379.67014,379.87646,86,92,40
379.86243,380.219,87,94,40
380.24704,380.34122,86,97,40
380.3432,380.43735,86,98,40
380.43936,380.5335,87,99,40
380.53552,380.62967,87,100,40
380.63165,380.72583,86,100,40
380.7278,380.82196,86,101,40
380.82397,380.91812,87,102,40
380.92014,381.01428,87,103,40
381.0163,381.11044,86,104,40
381.11243,381.20657,86,104,40
381.2086,381.39688,87,105,40
383.4822,383.67053,55,96,40
383.4822,383.67053,62,96,40
383.51627,384.32556,71,96,40
383.51627,384.32556,79,96,40
384.38165,384.59198,74,96,40
384.6701,384.98062,76,96,40
384.9586,385.21097,77,96,40
385.24704,385.3512,74,96,40
385.32916,385.43332,75,96,40
385.4113,385.51547,74,96,40
385.49344,385.5976,75,96,40
385.57556,385.68173,74,96,40
385.6597,385.76385,75,96,40
385.74182,385.8019,74,96,40
385.82394,386.57315,75,96,40
386.59317,386.70938,75,96,40
386.7855,386.90167,75,96,40
386.9778,387.731,75,96,40
387.74704,387.86322,74,96,40
387.93933,388.0555,75,96,40
388.13165,388.88486,75,96,40
388.90088,389.01706,75,96,40
389.09317,389.20935,75,96,40
389.2855,389.9866,75,96,40
390.05472,390.1709,75,96,40
390.247,390.3632,77,96,40
390.43933,390.97018,78,96,40
391.01624,391.5471,80,96,40
391.59317,392.12402,81,96,40
392.17007,392.2863,82,96,40
392.3624,392.47858,77,96,40
392.5547,392.6709,77,96,40
392.747,393.27786,78,96,40
393.32394,393.85477,80,96,40
393.90085,394.4317,81,96,40
394.47778,394.59396,82,96,40
394.67007,394.78625,77,96,40
394.8624,394.97858,77,96,40
395.0547,395.56552,74,96,40
395.63162,395.7478,77,96,40
395.8239,395.9401,77,96,40
396.01624,396.13242,77,96,40
396.20853,396.71533,74,96,40
396.78546,396.90164,77,96,40
396.97775,397.09396,77,96,40
397.17007,397.28625,77,96,40
397.36237,397.47858,70,96,40
397.36237,397.47858,82,96,40
397.5547,397.67087,82,76,40
397.5547,397.67087,70,76,40
397.74698,398.50018,70,76,40
397.74698,398.50018,82,76,40
398.5162,398.63242,70,76,40
398.5162,398.63242,82,76,40
398.70853,398.8247,82,76,40
398.70853,398.8247,70,76,40
398.90082,399.65402,70,76,40
398.90082,399.65402,82,76,40
399.67007,399.78625,82,76,40
399.67007,399.78625,70,76,40
399.86237,399.97855,70,76,40
399.86237,399.97855,82,76,40
400.0547,400.77783,70,76,40
400.0547,400.77783,82,76,40
400.8239,401.2005,70,76,40
400.8239,401.2005,82,76,40
401.20853,401.5851,70,76,40
401.20853,401.5851,82,76,40
401.59314,401.96973,82,76,40
401.59314,401.96973,70,76,40
401.97775,402.86115,82,76,40
402.84314,403.09552,77,76,40
403.1316,403.44208,79,76,40
403.42004,403.67245,80,76,40
403.7085,403.79666,77,76,40
403.79065,403.88077,79,76,40
403.87277,403.96292,77,76,40
403.9549,404.04504,79,76,40
404.03702,404.12717,77,76,40
404.11917,404.20932,76,76,40
404.2013,404.2734,77,76,40
404.28543,405.43527,84,76,40
405.43927,406.22052,82,76,40
406.2085,406.42084,80,76,40
406.40082,406.55905,79,76,40
406.5931,406.80545,65,76,40
406.78543,406.99777,67,76,40
406.97772,407.19006,70,76,40
407.17004,407.3824,69,76,40
407.36234,407.57468,67,76,40
407.55466,407.72293,69,76,40
407.74695,407.9593,67,76,40
407.93927,408.1516,65,76,40
408.13156,408.3439,67,76,40
408.32388,408.53622,65,76,40
408.51617,408.72852,63,76,40
408.7085,408.87677,65,76,40
408.9008,409.11313,63,76,40
409.0931,409.30545,65,76,40
409.2854,409.49774,67,76,40
409.47772,409.69006,69,76,40
409.67,409.88235,70,76,40
409.86234,410.0306,72,76,40
410.05463,410.26697,74,76,40
410.24695,410.4593,75,76,40
410.43924,410.65158,77,76,40
410.63156,410.8439,79,76,40
410.82385,411.0362,81,76,40
411.01617,411.18445,82,76,40
411.2085,412.3383,84,76,40
412.36234,413.1436,82,81,40
413.13156,413.33386,80,84,40
413.32385,413.49213,79,85,40
413.51617,414.29742,82,86,40
414.2854,414.4877,80,89,40
414.4777,414.63596,79,90,40
414.67,414.88235,82,90,40
414.8623,415.07465,80,91,40
415.05463,415.17883,79,92,40
415.24692,415.45926,82,93,40
415.43924,415.65158,80,94,40
415.63153,415.75574,79,95,40
415.82385,415.94003,87,95,40
416.01614,416.13235,85,96,40
416.20847,416.32465,82,96,40
416.40076,416.51697,79,96,40
416.59308,416.70926,75,96,40
416.78537,416.90158,73,96,40
416.9777,417.09387,70,96,40
417.16998,417.2862,67,96,40
417.3623,417.4785,63,96,40
418.70847,419.27335,56,100,40
418.70847,419.27335,70,100,40
419.8623,420.4272,56,100,40
419.8623,420.4392,70,100,40
420.82382,421.01215,68,104,40
420.82382,421.01215,71,104,40
421.40076,421.58905,76,104,40
421.40076,421.58905,68,104,40
421.97766,422.166,80,104,40
421.97766,422.166,71,104,40
422.5546,422.71884,83,104,40
422.5546,422.71884,71,104,40
422.7469,423.2978,78,96,40
423.32382,423.8747,83,96,40
423.90076,424.3054,87,96,40
424.28537,424.45764,83,96,40
424.47766,424.88232,82,96,40
424.86227,425.03455,81,96,40
425.0546,425.7357,82,96,40
425.82382,425.94,79,96,40
426.0161,426.1323,75,96,40
426.20844,426.32462,74,96,40
426.40073,426.5169,70,96,40
426.59305,426.70923,68,96,40
426.78534,426.90152,65,96,40
426.97766,427.09384,62,96,40
427.16995,427.28613,58,96,40
427.93918,428.5041,63,100,40
427.93918,428.5041,65,100,40
429.09302,429.65793,63,100,40
429.09302,429.65793,65,100,40
430.05457,430.24286,63,96,40
430.05457,430.24286,66,96,40
430.6315,430.8198,71,96,40
430.6315,430.8198,63,96,40
431.2084,431.3967,75,96,40
431.2084,431.3967,66,96,40
431.78534,431.97363,78,96,40
431.78534,431.97363,66,96,40
436.59302,437.1439,71,96,40
437.16992,437.7208,76,96,40
437.74686,438.1475,80,96,40
438.13147,438.30374,76,96,40
438.32376,438.72842,75,96,40
438.70837,438.88065,74,96,40
438.9007,439.30133,82,96,40
439.2853,439.45758,79,96,40
439.4776,439.87823,77,96,40
439.8622,440.0345,76,96,40
440.05453,440.45517,84,97,40
440.43915,440.61142,80,97,40
440.63144,441.0321,79,97,40
441.01605,441.18835,77,100,40
441.20837,441.56894,87,100,40
441.593,441.89746,82,100,40
441.9776,442.09378,79,100,40
442.16992,442.2861,75,100,40
442.3622,442.4784,80,100,40
442.55453,442.67072,77,100,40
442.74683,442.863,74,100,40
442.93915,443.05533,70,100,40
443.13144,443.24762,68,100,40
443.32376,443.43994,65,100,40
443.51605,443.69434,63,100,40
444.6699,444.8582,70,100,40
444.6699,444.8582,63,100,40
444.6699,444.8582,55,100,40
444.6699,444.8582,79,100,40
445.82373,447.15387,55,100,40
445.82373,447.15387,63,100,40
447.5545,447.6186,62,1,40
6.923052,7.69228,67,100,60
7.7884336,7.9807405,55,100,60
8.076894,8.363351,67,100,60
8.365355,8.557661,65,100,60
8.653815,8.846122,70,100,60
8.942275,9.1345825,58,100,60
9.230736,9.997961,63,100,60
9.999964,10.128169,63,100,60
10.192271,10.320476,63,100,60
10.384578,11.151803,63,100,60
11.153806,11.282011,62,100,60
11.346113,11.474318,63,100,60
11.53842,12.305645,63,100,60
12.307648,12.435853,63,100,60
12.499955,12.6281595,63,100,60
12.692262,13.459487,63,100,60
13.46149,13.589695,63,100,60
13.653797,13.7820015,65,100,60
13.846104,14.360926,66,100,60
14.423025,14.937847,65,100,60
14.999946,15.514768,63,100,60
15.576867,15.705071,58,100,60
15.769174,15.897379,70,100,60
15.961481,16.089685,70,100,60
16.153788,16.66861,66,100,60
16.73071,17.245531,65,100,60
17.30763,17.822453,63,100,60
17.88455,18.012756,58,100,60
18.076859,18.205063,65,100,60
18.269165,18.39737,65,100,60
18.461472,18.976294,65,100,60
19.038393,19.553215,68,100,60
19.615314,20.130136,70,100,60
20.192236,20.32044,65,100,60
20.384542,20.512747,65,100,60
20.576849,20.705053,65,100,60
20.769156,21.283978,65,100,60
21.346077,21.860899,68,100,60
21.922998,22.051203,70,100,60
22.115305,22.371714,70,100,60
22.49992,22.756329,70,100,60
22.884533,23.012737,70,100,60
23.07684,23.205044,65,100,60
23.269148,23.397352,65,70,60
23.461454,23.976276,65,70,60
24.230682,24.358887,65,70,60
24.422989,24.551193,65,70,60
24.615295,25.130117,65,70,60
25.384523,25.512728,65,70,60
25.576832,25.705036,65,70,60
25.769138,26.28396,65,70,60
26.538366,26.794775,65,70,60
26.92298,27.17939,65,70,60
27.307594,27.564003,65,70,60
27.692207,28.46344,63,85,60
28.557589,28.749897,65,85,60
28.84605,29.420967,58,85,60
29.422972,29.807585,57,85,60
29.999891,30.57481,57,86,60
30.576813,31.151731,63,88,60
31.153734,32.305573,62,90,60
32.307575,33.459415,60,94,60
33.46142,34.422955,58,98,60
34.61526,35.190178,61,100,60
35.19218,35.576794,66,100,60
35.7691,36.151714,70,100,60
36.153717,36.28192,66,100,60
36.346024,36.728634,65,100,60
36.730637,36.85884,64,100,60
36.922943,37.49786,65,100,60
37.499866,37.756275,58,100,60
38.076786,38.651703,65,100,60
38.653706,38.91012,60,100,60
39.23063,39.805546,61,100,60
39.80755,40.19216,66,100,60
40.38447,40.767082,70,100,60
40.769085,40.89729,66,100,60
40.96139,41.344,65,100,60
41.346004,41.47421,64,100,60
41.53831,42.11323,65,100,60
42.115234,42.371643,58,100,60
42.692154,43.459377,65,100,60
43.461384,43.58959,63,100,60
43.65369,43.781895,60,100,60
43.845997,44.23061,58,100,60
46.15368,46.281883,63,70,60
46.345985,46.474194,65,70,60
46.538296,46.6665,68,70,60
46.730602,46.858807,67,70,60
46.92291,47.051113,65,70,60
47.115215,47.24342,67,70,60
47.30752,47.435726,65,70,60
47.49983,47.628033,63,70,60
47.692135,47.82034,65,70,60
47.88444,48.01265,63,70,60
48.07675,48.204956,58,70,60
48.26906,48.397263,63,70,60
48.461365,48.58957,65,70,60
48.65367,48.781876,67,70,60
48.845978,48.974182,70,70,60
49.038284,49.16649,68,70,60
49.23059,49.358795,67,70,60
49.422897,49.551105,68,70,60
49.615208,49.743412,67,70,60
49.807514,49.93572,65,70,60
49.99982,50.128025,67,70,60
50.192127,50.32033,65,70,60
50.384434,50.512638,63,70,60
50.57674,50.704945,58,85,60
50.769047,51.343967,67,88,60
51.34597,52.497807,68,100,60
52.49981,52.75622,66,100,60
52.884426,53.01263,61,100,60
53.076733,53.204937,66,100,60
53.26904,53.397243,65,100,60
53.461346,53.58955,66,100,60
53.653652,53.781857,64,100,60
53.84596,53.974163,63,100,60
54.038265,54.166473,64,100,60
54.230576,54.35878,62,100,60
54.422882,54.551086,61,100,60
54.61519,54.743393,62,100,60
54.807495,54.9357,61,100,60
55.384415,55.76903,66,100,60
55.961338,56.34595,63,100,60
56.538258,56.92287,61,100,60
57.115177,57.37159,58,100,60
57.499794,57.628,63,100,60
57.6921,57.820305,61,100,60
59.999783,60.769012,68,70,60
60.865166,61.057472,68,70,60
61.153625,61.440083,67,70,60
61.442085,61.63439,68,70,60
61.73055,62.11516,65,70,60
63.46131,63.74777,67,70,60
63.74977,63.942078,68,70,60
64.03823,64.422844,65,70,60
69.23052,69.42082,63,70,60
69.42283,69.61313,64,70,60
69.615135,70.12996,68,70,60
70.38436,70.57467,66,70,60
70.57667,70.766975,64,70,60
70.768974,71.5362,66,70,60
71.5382,71.72851,64,70,60
71.730515,71.920815,63,70,60
71.92282,72.69004,64,70,60
72.69205,72.88235,63,70,60
72.88435,73.07465,66,70,60
73.07666,73.84389,63,70,60
73.84589,74.036194,66,100,60
74.03819,74.2285,68,100,60
74.2305,74.74532,71,100,60
74.80743,74.93563,64,92,60
74.99973,75.19003,63,89,60
75.19204,75.38234,61,86,60
75.384346,75.95926,63,70,60
75.961266,76.151566,66,70,60
76.15357,76.34387,68,70,60
76.34588,76.53619,66,70,60
76.538185,77.30541,68,70,60
77.30741,77.49772,66,70,60
77.49972,77.690025,64,70,60
77.692024,78.45925,66,70,60
81.92278,82.69001,66,70,60
82.69201,82.88232,68,93,60
82.884315,83.07462,70,99,60
83.07662,83.26693,66,104,60
86.53815,87.305374,66,70,60
87.30738,87.49768,68,93,60
87.49969,87.62789,70,99,60
87.69199,87.8202,66,104,60
92.499664,92.62787,62,100,60
92.69197,92.820175,63,100,60
92.88428,93.01249,62,100,60
93.07659,93.204796,63,100,60
93.2689,93.3971,62,100,60
93.461205,93.58941,63,100,60
95.76888,96.53812,67,100,60
96.63427,96.82658,55,100,60
96.92273,97.20918,67,100,60
97.21119,97.403496,65,100,60
97.49965,97.691956,70,100,60
97.78811,97.980415,58,100,60
98.07657,98.20477,63,100,60
98.268875,98.39708,63,100,60
98.46118,98.589386,63,100,60
98.65349,99.420715,63,100,60
99.42272,99.55093,63,100,60
99.61503,99.74323,63,100,60
99.807335,99.997635,63,100,60
99.99964,100.127846,65,100,60
100.19195,100.32015,63,100,60
100.384254,100.51246,63,100,60
100.57656,100.704765,63,100,60
100.76887,100.89707,63,100,60
100.961174,101.7284,63,100,60
101.7304,101.858604,63,100,60
101.92271,102.05091,63,100,60
102.11502,102.37143,63,100,60
102.49963,102.62784,65,100,60
102.69194,103.07655,66,100,60
103.26886,103.65347,65,100,60
103.84578,104.23039,63,100,60
104.4227,104.5509,58,100,60
104.615005,104.74321,70,100,60
104.80731,104.93552,70,100,60
104.99962,105.51444,66,100,60
105.576546,106.09136,65,100,60
106.153465,106.66829,63,100,60
106.730385,106.85859,58,100,60
106.92269,107.050896,65,100,60
107.115,107.2432,65,100,60
107.307304,107.82213,65,100,60
107.884224,108.01243,65,100,60
108.07653,108.20474,65,100,60
108.268845,108.39705,65,100,60
108.46115,108.97597,65,100,60
109.03807,109.166275,65,100,60
109.23038,109.35858,65,100,60
109.42268,109.55089,65,100,60
109.61499,109.743195,58,100,60
110.76883,110.89703,68,70,60
110.961136,111.08934,68,70,60
111.15344,111.66827,68,70,60
111.922676,112.05088,68,70,60
112.11498,112.24319,68,70,60
112.30729,112.82211,68,70,60
113.076515,113.332924,62,60,60
113.46113,113.71754,68,65,60
113.84574,114.10215,62,71,60
114.230354,115.18989,68,76,60
115.191895,115.3201,62,85,60
115.3842,115.959114,63,85,60
115.96112,116.34573,62,85,60
116.53804,117.49958,62,85,60
117.69189,118.45911,63,100,60
118.46111,118.65141,65,100,60
118.65342,118.781624,63,100,60
119.999565,120.574486,58,100,60
120.57649,120.961105,57,100,60
121.15341,122.114944,57,100,60
122.30725,123.07448,58,100,60
123.07648,123.266785,60,100,60
123.26878,123.39699,62,95,60
123.4611,124.42263,62,89,60
124.61494,125.382164,63,60,60
125.38416,125.57447,58,71,60
125.57647,125.70467,63,73,60
125.768776,126.536,63,76,60
126.53801,126.72831,58,87,60
126.730316,126.85852,63,90,60
126.92262,127.11292,63,93,60
127.11493,127.30523,58,96,60
127.307236,127.43544,63,98,60
127.49954,127.68984,63,101,60
127.69185,127.88215,58,104,60
127.884155,128.01236,63,107,60
128.07646,128.20467,63,109,60
130.96106,131.34569,58,100,60
132.11491,132.49953,58,100,60
134.99951,136.53596,63,100,60
136.53796,136.66617,71,100,60
136.73027,137.11288,70,100,60
137.11488,137.2431,69,100,60
137.3072,137.88211,70,100,60
137.88412,138.14053,63,100,60
138.46104,139.03596,70,100,60
139.03796,139.29437,58,100,60
140.1918,140.57642,51,100,60
141.34564,141.73026,51,100,60
142.30717,142.43538,51,100,60
142.8841,143.0123,51,100,60
143.46103,143.58923,63,100,60
144.23026,144.80516,61,100,60
144.80717,145.19179,66,100,60
145.3841,145.76671,70,100,60
145.7687,145.89691,66,100,60
145.96101,146.34363,64,100,60
146.34563,146.47383,61,100,60
146.53793,146.66614,63,100,60
150.57639,151.0912,58,100,60
151.1533,151.66812,63,100,60
151.73022,152.24504,67,100,60
152.30714,152.82196,65,100,60
152.88406,153.39888,63,100,60
153.46098,153.65129,63,100,60
153.65329,153.7815,58,100,60
153.8456,153.9738,55,100,60
154.0379,154.22821,58,100,60
154.23021,154.35841,63,100,60
154.42252,154.55072,67,100,60
154.61482,155.12965,70,100,60
155.19174,155.70657,58,100,60
155.76868,155.89688,55,100,60
156.92252,157.05072,63,100,60
158.07635,159.4205,51,100,60
167.37582,168.69467,63,60,60
168.86026,170.39339,63,60,60
170.39873,170.9062,59,60,60
170.91154,171.41902,61,68,60
171.42436,171.76625,63,76,60
171.93718,172.95749,66,84,60
172.96283,173.3047,64,80,60
173.47565,174.84851,61,75,60
175.0141,176.54723,64,60,60
176.55257,177.06004,61,72,60
177.06538,177.57286,63,76,60
177.5782,177.92009,64,80,60
178.09102,179.11133,68,84,60
179.11667,179.45854,66,80,60
179.62949,180.31325,63,75,60
180.65512,180.99701,66,85,60
181.16795,182.19359,70,95,60
182.7064,183.21388,66,85,60
183.21922,183.7267,68,89,60
183.73204,184.07393,70,94,60
184.24487,184.75235,71,99,60
184.75769,185.26517,68,100,60
185.27051,185.61238,65,93,60
185.78333,186.2908,68,85,60
186.29614,186.80362,65,77,60
186.80896,187.31644,62,69,60
187.3218,189.36772,63,61,60
189.37306,189.88054,61,85,60
189.88588,190.39337,59,85,60
193.47563,195.52156,64,85,60
195.5269,196.03438,63,85,60
196.03972,196.3816,61,85,60
199.62947,201.6754,70,100,60
201.68074,202.18822,68,100,60
202.19357,202.53545,66,100,60
202.70639,204.07925,65,100,60
204.24484,205.6177,65,90,60
205.78331,207.82924,63,80,60
211.93715,213.98308,64,80,60
218.09099,220.64975,65,85,60
220.65509,220.99696,66,100,60
221.16791,223.72667,66,100,60
223.73201,224.07388,68,100,60
224.24483,226.80893,68,100,60
227.32175,228.00551,62,100,60
230.39867,231.4243,63,85,60
231.93712,232.44461,59,85,60
232.44995,232.95743,61,85,60
232.96277,233.30464,63,85,60
233.47559,234.49588,66,85,60
234.50122,234.84311,64,85,60
235.01405,236.3869,61,85,60
236.5525,237.92537,64,100,60
238.09097,238.59845,61,70,60
238.60379,239.11127,63,79,60
239.11661,239.45848,64,89,60
239.62943,240.64972,68,99,60
240.65506,240.99695,66,100,60
241.1679,242.54074,63,71,60
242.70634,244.75229,66,100,60
244.75763,245.2651,64,100,60
245.27045,245.61232,63,100,60
245.78326,247.82921,66,100,60
247.83455,248.34203,64,100,60
248.34737,248.68924,63,100,60
248.86018,250.23305,67,100,60
250.39865,250.90613,70,100,60
250.91147,251.41895,68,100,60
251.42429,251.76616,67,100,60
251.9371,253.30997,67,100,60
253.47557,253.98305,66,100,60
253.98839,254.49586,64,100,60
254.5012,254.84308,63,100,60
255.01402,256.3869,68,100,60
256.5525,257.57278,63,100,60
257.57812,257.92,64,100,60
258.09094,259.4638,64,100,60
259.6294,260.64972,60,100,60
260.65506,260.99692,61,81,60
261.16788,262.54074,51,71,60
264.24478,265.61765,51,70,60
267.32172,268.69458,51,70,60
270.39862,271.77148,51,70,60
294.67044,295.43967,67,100,60
295.53583,295.72812,55,100,60
295.82428,296.11075,67,100,60
296.11273,296.30505,65,100,60
296.4012,296.5935,70,100,60
296.68967,296.88196,58,100,60
296.97812,297.74536,63,100,60
297.74734,297.87555,63,100,60
297.93967,298.06787,63,100,60
298.13196,298.8992,63,100,60
298.90118,299.0294,62,100,60
299.0935,299.2217,63,100,60
299.2858,300.05304,63,100,60
300.05502,300.18323,63,100,60
300.24734,300.37555,63,100,60
300.43964,301.20688,63,100,60
301.20886,301.33707,63,100,60
301.40118,301.5294,65,100,60
301.5935,302.1083,66,100,60
302.1704,302.68524,65,100,60
302.74734,303.26215,63,100,60
303.32425,303.45245,58,100,60
303.51657,303.64478,70,100,60
303.70886,303.83707,70,100,60
303.90118,304.416,66,100,60
304.4781,304.99292,65,100,60
305.05502,305.56982,63,100,60
305.63193,305.76013,58,100,60
305.82425,305.95245,65,100,60
306.01654,306.14474,65,100,60
306.20886,306.7237,65,100,60
306.78577,307.3006,68,100,60
307.3627,307.87753,70,100,60
307.93964,308.06784,65,100,60
308.13193,308.26013,65,100,60
308.32425,308.45245,65,100,60
308.51654,309.03137,65,100,60
309.09348,309.60828,68,100,60
309.67038,309.79858,70,100,60
309.8627,310.1191,70,100,60
310.2473,310.50372,70,100,60
310.63193,310.76013,70,100,60
310.82422,310.95242,65,100,60
311.01654,311.14474,65,70,60
311.20883,311.72366,65,70,60
311.97806,312.10626,65,70,60
312.17038,312.29858,65,70,60
312.36267,312.8775,65,70,60
313.1319,313.2601,65,70,60
313.32422,313.45242,65,70,60
313.5165,314.03134,65,70,60
314.28577,314.54218,65,70,60
314.67038,314.9268,65,70,60
315.055,315.3114,65,70,60
315.4396,316.21082,63,85,60
316.30496,316.49728,65,85,60
316.59344,317.16837,58,85,60
317.17035,317.55496,57,85,60
317.74728,318.3222,57,85,60
318.3242,318.8991,63,85,60
318.90112,320.05295,62,85,60
320.05496,321.2068,60,85,60
321.2088,322.17035,58,85,60
322.36264,322.93756,61,100,60
322.93958,323.3242,66,100,60
323.51648,323.8991,70,100,60
323.9011,324.0293,66,100,60
324.0934,324.476,65,100,60
324.47803,324.60623,64,100,60
324.67032,325.24524,65,100,60
325.24725,325.50366,58,100,60
325.8242,326.39908,65,100,60
326.4011,326.6575,60,100,60
326.97803,327.55295,61,100,60
327.55493,327.93954,66,100,60
328.13187,328.51447,70,100,60
328.51648,328.64468,66,100,60
328.70877,329.0914,65,100,60
329.09338,329.2216,64,100,60
329.2857,329.86063,65,100,60
329.8626,330.11902,58,100,60
330.43954,331.20676,65,100,60
331.20877,331.33698,63,100,60
331.40106,331.52927,60,100,60
331.59338,331.978,58,100,60
333.90106,334.02927,63,70,60
334.09338,334.2216,65,70,60
334.28568,334.41388,68,70,60
334.478,334.6062,67,70,60
334.6703,334.7985,65,70,60
334.8626,334.9908,67,70,60
335.0549,335.1831,65,70,60
335.24722,335.37543,63,70,60
335.4395,335.56772,65,70,60
335.63184,335.76004,63,70,60
335.82413,335.95233,58,70,60
336.01645,336.14465,63,70,60
336.20874,336.33694,65,70,60
336.40106,336.52927,67,70,60
336.59335,336.72156,70,70,60
336.78568,336.91388,68,70,60
336.97797,337.10617,67,70,60
337.1703,337.2985,68,70,60
337.36258,337.49078,67,70,60
337.5549,337.6831,65,70,60
337.7472,337.8754,67,70,60
337.9395,338.06772,65,70,60
338.13184,338.26004,63,70,60
338.32413,338.45233,58,70,60
338.51645,339.09134,67,77,60
339.09335,340.2452,68,100,60
340.2472,340.5036,66,100,60
340.6318,340.76,61,100,60
340.82413,340.95233,66,100,60
341.01642,341.14462,65,100,60
341.20874,341.33694,66,100,60
341.40103,341.52924,64,100,60
341.59335,341.72156,63,100,60
341.78564,341.91385,64,100,60
341.97797,342.10617,62,100,60
342.17026,342.29846,61,100,60
342.36258,342.49078,62,100,60
342.55487,342.68307,61,100,60
343.1318,343.51642,66,100,60
343.7087,344.09332,63,100,60
344.28564,344.67026,61,100,60
344.86258,345.119,58,100,60
345.2472,345.3754,63,100,60
345.43948,345.5677,61,100,60
347.74716,348.5164,68,70,60
348.61255,348.80487,68,70,60
348.901,349.18747,67,70,60
349.18948,349.38177,68,70,60
349.47794,349.86255,65,70,60
351.2087,351.49515,67,70,60
351.49716,351.68945,68,70,60
351.7856,352.17023,65,70,60
356.9779,357.1682,63,85,60
357.17023,357.3605,64,85,60
357.36252,357.87735,68,85,60
358.13174,358.32205,66,85,60
358.32407,358.51437,64,85,60
358.51636,359.2836,66,85,60
359.28558,359.4759,64,85,60
359.4779,359.6682,63,85,60
359.6702,360.43744,64,85,60
360.43942,360.62973,63,85,60
360.63174,360.82205,66,85,60
360.82404,361.59128,63,85,60
361.59326,361.78357,66,100,60
361.78558,361.9759,68,100,60
361.97787,362.4927,71,100,60
362.5548,362.683,64,85,60
362.74713,362.9374,63,85,60
362.93942,363.12973,61,85,60
363.13174,363.70663,63,85,60
363.70865,363.89896,66,100,60
363.90097,364.09125,68,100,60
364.09326,364.28357,66,100,60
364.28558,365.0528,68,100,60
365.0548,365.24512,66,83,60
365.2471,365.4374,64,79,60
365.43942,366.20663,66,75,60
369.67017,370.4374,66,70,60
370.4394,370.6297,68,89,60
370.6317,370.82202,70,94,60
370.824,371.0143,66,99,60
374.28552,375.05276,66,70,60
375.05478,375.24506,68,89,60
375.24707,375.37527,70,94,60
375.4394,375.5676,66,99,60
380.24704,380.37524,62,100,60
380.43936,380.56757,63,100,60
380.63165,380.7599,62,100,60
380.82397,380.95218,63,100,60
381.0163,381.1445,62,100,60
381.2086,381.3368,63,100,60
383.51627,384.2855,67,100,60
384.38165,384.57397,55,100,60
384.6701,384.95657,67,100,60
384.9586,385.15088,65,100,60
385.24704,385.43933,70,100,60
385.5355,385.7278,58,100,60
385.82394,385.95215,63,100,60
386.01627,386.14447,63,100,60
386.20856,386.33676,63,100,60
386.40088,387.1681,63,100,60
387.1701,387.2983,63,100,60
387.36243,387.49063,63,100,60
387.55472,387.74503,63,100,60
387.74704,387.87524,65,100,60
387.93933,388.06754,63,100,60
388.13165,388.25986,63,100,60
388.32394,388.45215,63,100,60
388.51627,388.64447,63,100,60
388.70856,389.4758,63,100,60
389.47778,389.606,63,100,60
389.6701,389.7983,63,100,60
389.8624,390.1188,63,100,60
390.247,390.3752,65,100,60
390.43933,390.82394,66,100,60
391.01624,391.40085,65,100,60
391.59317,391.97778,63,100,60
392.17007,392.29828,58,100,60
392.3624,392.4906,70,100,60
392.5547,392.6829,70,100,60
392.747,393.26184,66,100,60
393.32394,393.83875,65,100,60
393.90085,394.41568,63,100,60
394.47778,394.606,58,100,60
394.67007,394.79828,65,100,60
394.8624,394.9906,65,100,60
395.0547,395.56952,65,100,60
395.63162,395.75983,65,100,60
395.8239,395.95212,65,100,60
396.01624,396.14444,65,100,60
396.20853,396.72336,65,100,60
396.78546,396.91367,65,100,60
396.97775,397.10596,65,100,60
397.17007,397.29828,65,100,60
397.36237,397.49057,58,100,60
398.5162,398.6444,68,60,60
398.70853,398.83673,68,61,60
398.90082,399.41565,68,63,60
399.67007,399.79828,68,71,60
399.86237,399.99057,68,73,60
400.0547,400.5695,68,75,60
400.8239,401.08032,62,82,60
401.20853,401.46494,68,86,60
401.59314,401.84955,62,90,60
401.97775,402.9373,68,94,60
402.93927,403.06747,62,85,60
403.1316,403.7065,63,85,60
403.7085,404.0931,62,85,60
404.28543,405.24698,62,85,60
405.43927,406.20648,63,85,60
406.2085,406.3988,65,85,60
406.40082,406.52902,63,85,60
407.74695,408.32187,58,70,60
408.32388,408.7085,57,70,60
408.9008,409.86234,57,70,60
410.05463,410.82187,58,70,60
410.82385,411.01416,60,70,60
411.01617,411.14438,62,71,60
411.2085,412.17,62,72,60
412.36234,413.12955,63,79,60
413.13156,413.32187,58,83,60
413.32385,413.45206,63,84,60
413.51617,414.2834,63,86,60
414.2854,414.4757,58,90,60
414.4777,414.6059,63,91,60
414.67,414.86032,63,93,60
414.8623,415.0526,58,94,60
415.05463,415.18283,63,95,60
415.24692,415.43723,63,96,60
415.43924,415.62955,58,97,60
415.63153,415.75974,63,98,60
415.82385,415.95206,63,99,60
418.70847,419.09308,58,100,60
419.8623,420.24692,58,100,60
422.7469,424.28336,63,100,60
424.28537,424.41357,71,100,60
424.47766,424.86026,70,100,60
424.86227,424.99048,69,100,60
425.0546,425.62952,70,100,60
425.6315,425.8879,63,100,60
426.20844,426.78336,70,100,60
426.78534,427.04175,58,100,60
427.93918,428.3238,51,100,60
429.09302,429.47766,51,100,60
430.05457,430.18277,51,100,60
430.6315,430.7597,51,100,60
431.2084,431.3366,63,100,60
431.97763,432.55255,61,100,60
432.55457,432.93918,66,100,60
433.13147,433.5141,70,100,60
433.51608,433.6443,66,100,60
433.7084,434.091,64,100,60
434.09302,434.22122,61,100,60
434.2853,434.4135,63,100,60
438.32376,438.8386,58,100,60
438.9007,439.4155,63,100,60
439.4776,439.99243,67,100,60
440.05453,440.56937,65,100,60
440.63144,441.14627,63,100,60
441.20837,441.39868,63,100,60
441.40067,441.52887,58,100,60
441.593,441.7212,55,100,60
441.7853,441.9756,58,100,60
441.9776,442.1058,63,100,60
442.16992,442.29813,67,100,60
442.3622,442.87704,70,100,60
442.93915,443.45395,58,100,60
443.51605,443.64426,55,100,60
444.6699,444.7981,63,100,60
445.82373,447.16788,51,100,60
0.0,0.112179086,63,76,0
0.0,0.112179086,51,76,0
0.192307,0.3044861,65,76,0
0.192307,0.3044861,53,76,0
0.384614,0.4967931,56,76,0
0.384614,0.4967931,68,76,0
0.576921,0.6891001,55,76,0
0.576921,0.6891001,67,76,0
0.769228,0.8814071,65,76,0
0.769228,0.8814071,53,76,0
0.961535,1.0737141,55,76,0
0.961535,1.0737141,67,76,0
1.153842,1.2660211,53,76,0
1.153842,1.2660211,65,76,0
1.346149,1.4583281,63,76,0
1.346149,1.4583281,51,76,0
1.538456,1.6506351,53,76,0
1.538456,1.6506351,65,76,0
1.730763,1.8429421,63,76,0
1.730763,1.8429421,51,76,0
1.92307,2.035249,58,76,0
2.115377,2.227556,63,76,0
2.115377,2.227556,51,76,0
2.307684,2.419863,53,76,0
2.307684,2.419863,65,76,0
2.499991,2.61217,67,76,0
2.499991,2.61217,55,76,0
2.692298,2.804477,70,76,0
2.692298,2.804477,58,76,0
2.884605,2.996784,56,76,0
2.884605,2.996784,68,76,0
3.076912,3.189091,55,76,0
3.076912,3.189091,67,76,0
3.269219,3.3813982,56,76,0
3.269219,3.3813982,68,76,0
3.461526,3.5737052,55,76,0
3.461526,3.5737052,67,76,0
3.653833,3.7660122,65,76,0
3.653833,3.7660122,53,76,0
3.84614,3.9583192,67,76,0
3.84614,3.9583192,55,76,0
4.038447,4.150626,53,76,0
4.038447,4.150626,65,76,0
4.230754,4.342933,51,76,0
4.230754,4.342933,63,76,0
4.423061,4.53524,58,76,0
4.423061,4.53524,70,76,0
4.615368,4.727547,75,76,0
4.615368,4.727547,63,76,0
4.807675,4.919854,74,76,0
4.807675,4.919854,62,76,0
4.999982,5.112161,75,76,0
4.999982,5.112161,63,76,0
5.192289,5.304468,74,76,0
5.192289,5.304468,62,76,0
5.384596,5.496775,69,76,0
5.384596,5.496775,57,76,0
5.576903,5.689082,72,76,0
5.576903,5.689082,60,76,0
5.76921,5.881389,58,76,0
5.76921,5.881389,70,76,0
5.961517,6.073696,67,76,0
5.961517,6.073696,55,76,0
6.153824,6.266003,58,76,0
6.153824,6.266003,70,76,0
6.346131,6.45831,57,76,0
6.346131,6.45831,69,76,0
6.538438,6.650617,64,76,0
6.538438,6.650617,52,76,0
6.730745,6.842924,66,76,0
6.730745,6.842924,54,76,0
6.923052,7.730341,67,96,0
6.923052,7.730341,71,96,0
6.923052,7.730341,74,96,0
6.923052,7.730341,79,96,0
7.7884336,7.9987693,67,96,0
7.7884336,7.9987693,74,96,0
7.7884336,7.9987693,71,96,0
8.076894,8.3593445,72,96,0
8.076894,8.395403,67,96,0
8.076894,8.395403,76,96,0
8.365355,8.5937195,72,96,0
8.365355,8.5937195,77,96,0
8.365355,8.5937195,69,96,0
8.653815,8.936266,70,96,0
8.653815,8.936266,65,96,0
8.653815,9.218717,74,96,0
8.942275,9.224727,68,96,0
8.942275,9.224727,65,96,0
9.230736,9.346922,67,96,0
9.230736,9.346922,63,96,0
9.423043,9.539228,68,96,0
9.423043,9.539228,63,96,0
9.61535,9.731536,72,96,0
9.61535,9.731536,63,96,0
9.807657,9.923842,70,96,0
9.807657,9.923842,63,96,0
9.999964,10.11615,68,96,0
9.999964,10.11615,63,96,0
10.192271,10.308456,70,96,0
10.192271,10.308456,63,96,0
10.384578,10.500764,63,96,0
10.384578,10.500764,68,96,0
10.576885,10.69307,63,96,0
10.576885,10.69307,67,96,0
10.769192,10.885378,63,96,0
10.769192,10.885378,68,96,0
10.961499,11.077684,63,96,0
10.961499,11.077684,67,96,0
11.153806,11.269992,65,96,0
11.153806,11.269992,62,96,0
11.346113,11.462298,63,96,0
11.346113,11.462298,67,96,0
11.53842,11.654606,63,96,0
11.53842,11.654606,68,96,0
11.730727,11.846912,63,96,0
11.730727,11.846912,70,96,0
11.923034,12.03922,63,96,0
11.923034,12.03922,74,96,0
12.115341,12.231526,63,96,0
12.115341,12.231526,72,96,0
12.307648,12.423834,70,96,0
12.307648,12.423834,63,96,0
12.499955,12.61614,63,96,0
12.499955,12.61614,72,96,0
12.692262,12.808448,63,96,0
12.692262,12.808448,70,96,0
12.884569,13.000754,68,96,0
12.884569,13.000754,63,96,0
13.076876,13.193062,63,96,0
13.076876,13.193062,70,96,0
13.269183,13.385368,63,96,0
13.269183,13.385368,68,96,0
13.46149,13.577676,63,96,0
13.46149,13.577676,67,96,0
13.653797,13.769982,74,96,0
13.653797,13.769982,70,96,0
13.653797,13.769982,65,96,0
13.846104,14.411006,78,96,0
13.846104,14.411006,66,96,0
13.846104,14.411006,70,96,0
14.423025,14.9879265,65,96,0
14.423025,14.9879265,77,96,0
14.423025,14.9879265,73,96,0
14.999946,15.564848,65,96,0
14.999946,15.564848,75,96,0
14.999946,15.564848,77,96,0
15.576867,15.953468,65,96,0
15.576867,15.953468,70,96,0
15.576867,15.953468,74,96,0
15.961481,16.077667,70,96,0
15.961481,16.077667,74,96,0
15.961481,16.077667,65,96,0
16.153788,16.718689,66,96,0
16.153788,16.718689,78,96,0
16.153788,16.718689,70,96,0
16.73071,17.29561,73,96,0
16.73071,17.29561,77,96,0
16.73071,17.29561,65,96,0
17.30763,17.872532,75,96,0
17.30763,17.872532,65,96,0
17.30763,17.872532,77,96,0
17.88455,18.19705,70,96,0
17.88455,18.19705,74,96,0
17.88455,18.19705,65,96,0
18.269165,18.385351,72,96,0
18.269165,18.385351,65,96,0
18.269165,18.385351,69,96,0
18.461472,19.026373,73,96,0
18.461472,19.026373,61,96,0
18.461472,19.026373,65,96,0
19.038393,19.603294,68,96,0
19.038393,19.603294,60,96,0
19.038393,19.603294,72,96,0
19.615314,20.180216,60,96,0
19.615314,20.180216,72,96,0
19.615314,20.180216,70,96,0
20.192236,20.568836,69,96,0
20.192236,20.568836,72,96,0
20.192236,20.568836,60,96,0
20.576849,20.693035,72,96,0
20.576849,20.693035,65,96,0
20.576849,20.693035,69,96,0
20.769156,21.334059,73,96,0
20.769156,21.334059,65,96,0
20.769156,21.334059,61,96,0
21.346077,21.910978,72,96,0
21.346077,21.910978,68,96,0
21.346077,21.910978,60,96,0
21.922998,22.039183,76,96,0
21.922998,22.039183,70,96,0
21.922998,22.039183,72,96,0
21.922998,22.039183,64,96,0
22.115305,22.491907,70,96,0
22.115305,22.491907,64,96,0
22.115305,22.491907,72,96,0
22.115305,22.491907,76,96,0
22.49992,22.87652,76,96,0
22.49992,22.87652,64,96,0
22.49992,22.87652,70,96,0
22.49992,22.87652,72,96,0
22.884533,23.00072,64,96,0
22.884533,23.00072,72,96,0
22.884533,23.00072,70,96,0
22.884533,23.00072,76,96,0
23.07684,23.193026,77,96,0
23.07684,23.193026,65,96,0
23.07684,23.193026,72,96,0
23.07684,23.193026,69,96,0
27.692207,27.922575,65,76,0
27.692207,27.922575,53,76,0
27.884516,28.114883,55,76,0
27.884516,28.114883,67,76,0
28.076822,28.30719,58,76,0
28.076822,28.30719,70,76,0
28.269129,28.499496,57,76,0
28.269129,28.499496,69,76,0
28.461435,28.691803,67,76,0
28.461435,28.691803,55,76,0
28.653744,28.884111,57,76,0
28.653744,28.884111,69,76,0
28.84605,29.076418,67,76,0
28.84605,29.076418,55,76,0
29.038357,29.268724,53,76,0
29.038357,29.268724,65,76,0
29.230663,29.461031,55,76,0
29.230663,29.461031,67,76,0
29.422972,29.65334,53,76,0
29.422972,29.65334,65,76,0
29.615278,29.845646,63,76,0
29.615278,29.845646,51,76,0
29.807585,29.965837,53,76,0
29.807585,29.965837,65,76,0
29.999891,30.230259,63,76,0
29.999891,30.230259,51,76,0
30.1922,30.422567,65,76,0
30.1922,30.422567,53,76,0
30.384506,30.614874,55,76,0
30.384506,30.614874,67,76,0
30.576813,30.80718,69,76,0
30.576813,30.80718,57,76,0
30.76912,30.999487,58,76,0
30.76912,30.999487,70,76,0
30.961428,31.11968,72,76,0
30.961428,31.11968,60,76,0
31.153734,31.384102,74,76,0
31.153734,31.384102,62,76,0
31.34604,31.576408,63,76,0
31.34604,31.576408,75,76,0
31.538347,31.768715,65,76,0
31.538347,31.768715,77,76,0
31.730656,31.961023,79,76,0
31.730656,31.961023,67,76,0
31.922962,32.153328,81,76,0
31.922962,32.153328,69,76,0
32.11527,32.27352,70,77,0
32.11527,32.27352,82,77,0
32.307575,32.537945,84,78,0
32.307575,32.537945,72,78,0
32.49988,32.73025,86,78,0
32.49988,32.73025,74,78,0
32.69219,32.922558,75,79,0
32.69219,32.922558,87,79,0
32.8845,33.114864,77,79,0
32.8845,33.114864,89,79,0
33.076805,33.30717,79,80,0
33.076805,33.30717,91,80,0
33.26911,33.427364,81,81,0
33.26911,33.427364,93,81,0
33.46142,33.691784,94,81,0
33.46142,33.691784,82,81,0
33.653725,33.884094,89,76,0
33.653725,33.884094,77,76,0
33.84603,34.0764,74,76,0
33.84603,34.0764,86,76,0
34.038338,34.268707,82,76,0
34.038338,34.268707,70,76,0
34.230644,34.461014,65,76,0
34.230644,34.461014,77,76,0
34.422955,34.567184,74,76,0
34.422955,34.567184,62,76,0
34.999874,35.11606,73,76,0
34.999874,35.11606,61,76,0
34.999874,35.11606,66,76,0
35.576794,35.69298,78,78,0
35.576794,35.69298,70,78,0
35.576794,35.69298,66,78,0
36.153717,36.2699,78,79,0
36.153717,36.2699,70,79,0
36.153717,36.2699,82,79,0
36.730637,36.84682,76,81,0
36.730637,36.84682,64,81,0
36.730637,36.84682,70,81,0
37.307556,37.423744,77,82,0
37.307556,37.423744,70,82,0
37.307556,37.423744,74,82,0
37.307556,37.423744,65,82,0
37.88448,38.000664,70,83,0
37.88448,38.000664,65,83,0
37.88448,38.000664,74,83,0
38.4614,38.577587,69,85,0
38.4614,38.577587,65,85,0
38.4614,38.577587,75,85,0
38.4614,38.577587,77,85,0
39.038322,39.154507,63,86,0
39.038322,39.154507,60,86,0
39.038322,39.154507,69,86,0
39.615242,39.731426,73,87,0
39.615242,39.731426,61,87,0
39.615242,39.731426,66,87,0
40.19216,40.30835,78,89,0
40.19216,40.30835,66,89,0
40.19216,40.30835,70,89,0
40.769085,40.88527,82,90,0
40.769085,40.88527,70,90,0
40.769085,40.88527,73,90,0
41.346004,41.46219,90,91,0
41.346004,41.46219,78,91,0
41.346004,41.46219,82,91,0
41.922928,42.039112,89,93,0
41.922928,42.039112,82,93,0
41.922928,42.039112,77,93,0
42.499847,42.61603,77,94,0
42.499847,42.61603,65,94,0
42.499847,42.61603,70,94,0
43.076767,43.192955,77,96,0
43.076767,43.192955,89,96,0
43.076767,43.192955,81,96,0
43.076767,43.192955,84,96,0
43.65369,43.769875,77,97,0
43.65369,43.769875,65,97,0
43.65369,43.769875,69,97,0
43.65369,43.769875,72,97,0
43.845997,43.96218,94,96,0
43.845997,43.96218,82,96,0
44.038303,44.154488,92,96,0
44.038303,44.154488,80,96,0
44.23061,44.346794,77,96,0
44.23061,44.346794,89,96,0
44.422916,44.5391,74,96,0
44.422916,44.5391,86,96,0
44.615223,44.73141,70,96,0
44.615223,44.73141,82,96,0
44.80753,44.923717,68,94,0
44.80753,44.923717,80,94,0
44.99984,45.116024,65,91,0
44.99984,45.116024,77,91,0
45.192146,45.30833,62,89,0
45.192146,45.30833,74,89,0
45.384453,45.500637,70,86,0
45.384453,45.500637,58,86,0
45.57676,45.692944,56,84,0
45.57676,45.692944,68,84,0
45.769066,45.88525,65,81,0
45.769066,45.88525,53,81,0
45.961372,46.077557,50,79,0
45.961372,46.077557,62,79,0
46.15368,46.269867,51,76,0
46.15368,46.269867,63,76,0
46.538296,46.65448,56,76,0
46.538296,46.65448,44,76,0
46.730602,46.846786,51,76,0
46.730602,46.846786,63,76,0
47.115215,47.2314,39,76,0
47.115215,47.2314,51,76,0
47.30752,47.423706,58,76,0
47.30752,47.423706,46,76,0
47.692135,47.808323,46,76,0
47.692135,47.808323,34,76,0
47.88444,48.00063,51,76,0
47.88444,48.00063,39,76,0
48.461365,48.57755,56,76,0
48.461365,48.57755,68,76,0
48.845978,48.962162,51,76,0
48.845978,48.962162,63,76,0
49.038284,49.154472,56,76,0
49.038284,49.154472,68,76,0
49.422897,49.539085,56,76,0
49.422897,49.539085,44,76,0
49.615208,49.73139,51,76,0
49.615208,49.73139,63,76,0
49.99982,50.116005,39,76,0
49.99982,50.116005,51,76,0
50.192127,50.30831,58,76,0
50.192127,50.30831,46,76,0
50.57674,50.69293,82,76,0
50.57674,50.69293,70,76,0
50.769047,50.885235,87,76,0
50.769047,50.885235,75,76,0
50.961353,51.07754,86,76,0
50.961353,51.07754,74,76,0
51.153664,51.269848,75,76,0
51.153664,51.269848,87,76,0
51.34597,51.462154,85,76,0
51.34597,51.462154,73,76,0
51.538277,51.65446,84,76,0
51.538277,51.65446,72,76,0
51.730583,51.846767,73,76,0
51.730583,51.846767,85,76,0
51.92289,52.039074,83,76,0
51.92289,52.039074,71,76,0
52.115196,52.231384,70,76,0
52.115196,52.231384,82,76,0
52.307503,52.42369,83,76,0
52.307503,52.42369,71,76,0
52.49981,52.615997,70,76,0
52.49981,52.615997,82,76,0
52.69212,52.808304,66,76,0
52.69212,52.808304,78,76,0
53.076733,53.68971,70,76,0
53.076733,53.68971,82,76,0
53.653652,54.845554,71,78,0
53.653652,54.845554,83,78,0
54.807495,55.095955,69,76,0
54.807495,55.095955,81,76,0
55.19211,55.308296,88,76,0
55.19211,55.308296,76,76,0
55.384415,55.500603,81,76,0
55.384415,55.500603,93,76,0
55.57672,55.69291,80,77,0
55.57672,55.69291,92,77,0
55.76903,55.885216,93,79,0
55.76903,55.885216,81,79,0
55.961338,56.077522,80,80,0
55.961338,56.077522,92,80,0
56.153645,56.26983,75,82,0
56.153645,56.26983,87,82,0
56.34595,56.462135,78,84,0
56.34595,56.462135,90,84,0
56.538258,56.65444,88,85,0
56.538258,56.65444,76,85,0
56.730564,56.846752,73,87,0
56.730564,56.846752,85,87,0
56.92287,57.03906,76,89,0
56.92287,57.03906,88,89,0
57.115177,57.231365,87,90,0
57.115177,57.231365,75,90,0
57.307487,57.42367,70,92,0
57.307487,57.42367,82,92,0
57.499794,57.61598,72,93,0
57.499794,57.61598,84,93,0
57.6921,58.493378,73,95,0
57.6921,58.493378,76,95,0
57.6921,58.493378,80,95,0
57.6921,58.493378,85,95,0
58.55748,58.76782,80,96,0
58.55748,58.76782,73,96,0
58.55748,58.76782,76,96,0
58.845943,59.160442,78,96,0
58.845943,59.160442,73,96,0
58.845943,59.160442,82,96,0
59.134403,59.37679,71,96,0
59.134403,59.37679,75,96,0
59.134403,59.37679,83,96,0
59.422863,59.53504,80,96,0
59.504993,59.619175,82,96,0
59.587124,59.70131,80,96,0
59.66926,59.78344,82,96,0
59.75139,59.86557,80,96,0
59.83352,59.9477,82,96,0
59.422863,59.987766,76,96,0
59.422863,59.987766,68,96,0
59.91565,59.99778,80,96,0
60.576706,60.69289,52,76,0
60.769012,60.885197,61,76,0
60.96132,61.077503,64,76,0
61.153625,61.464123,63,76,0
61.442085,61.69449,56,76,0
61.73055,62.241364,61,76,0
62.30747,62.61796,78,96,0
62.30747,62.61796,73,96,0
62.30747,62.61796,82,96,0
62.59593,62.85434,71,96,0
62.59593,62.85434,75,96,0
62.59593,62.85434,83,96,0
62.884388,62.996567,80,96,0
62.96652,63.080704,82,96,0
63.048653,63.162834,80,96,0
63.130783,63.244965,82,96,0
63.212914,63.327095,80,96,0
63.295044,63.409225,82,96,0
62.884388,63.44929,76,96,0
62.884388,63.44929,68,96,0
63.377174,63.45931,80,96,0
63.46131,63.771805,63,76,0
63.74977,64.0162,56,76,0
64.03823,64.53503,61,76,0
64.61515,64.93566,70,76,0
64.61515,64.93566,61,76,0
64.90361,65.15201,71,76,0
64.90361,65.15201,63,76,0
64.61515,65.15601,66,84,0
65.19207,65.51258,64,84,0
65.19207,65.72693,68,76,0
65.19207,65.72693,59,76,0
65.48053,65.72893,63,84,0
65.769,66.08951,58,76,0
65.769,66.08951,66,76,0
65.769,66.30385,63,84,0
66.05746,66.305855,68,76,0
66.05746,66.305855,59,76,0
66.34592,66.66643,61,84,0
66.34592,66.88077,64,76,0
66.34592,66.88077,56,76,0
66.63438,66.882774,59,84,0
66.92284,67.24335,54,76,0
66.92284,67.24335,63,76,0
66.92284,67.45769,59,84,0
67.211296,67.459694,56,76,0
67.211296,67.459694,64,76,0
67.499756,67.82027,59,84,0
67.788216,68.03661,58,84,0
68.076675,68.39719,56,84,0
67.499756,68.4032,61,76,0
68.365135,68.61353,52,84,0
68.365135,68.61353,64,76,0
68.6536,68.97411,59,84,0
68.6536,69.18845,61,76,0
68.94206,69.19045,58,84,0
69.23052,69.51297,59,76,0
69.80744,69.92563,56,76,0
69.903595,70.02178,64,76,0
69.99975,70.117935,68,76,0
70.0959,70.21409,71,76,0
70.192055,70.31024,76,76,0
70.28821,70.406395,83,76,0
70.38436,70.57266,71,76,0
70.38436,70.57266,75,76,0
70.96128,71.079475,54,76,0
71.057434,71.17563,59,76,0
71.15359,71.27178,63,76,0
71.24974,71.367935,66,76,0
71.345894,71.46409,71,76,0
71.44205,71.56024,78,76,0
71.5382,71.7265,64,76,0
71.5382,71.7265,73,76,0
71.5382,71.7265,70,76,0
72.11513,72.233315,52,76,0
72.21128,72.32947,58,76,0
72.307434,72.42562,61,76,0
72.40359,72.521774,64,76,0
72.49974,72.61793,70,76,0
72.595894,72.71408,78,76,0
72.69205,72.88035,71,76,0
72.69205,72.88035,63,76,0
73.26897,73.38715,54,76,0
73.36512,73.48331,63,76,0
73.46127,73.57946,66,76,0
73.55743,73.67561,71,76,0
73.65358,73.77177,75,76,0
73.84589,74.03419,71,76,0
73.74973,74.036194,83,76,0
74.422806,74.541,56,76,0
74.51896,74.63715,64,76,0
74.61511,74.73331,68,76,0
74.71127,74.82946,71,76,0
74.80743,74.92561,76,76,0
74.99973,75.188034,71,76,0
74.90358,75.19003,83,76,0
75.57665,75.69484,54,76,0
75.672806,75.79099,63,76,0
75.76896,75.887146,66,76,0
75.86511,75.9833,71,76,0
75.961266,76.07945,75,76,0
76.15357,76.34187,71,76,0
76.05742,76.34387,83,76,0
76.73049,76.84868,56,76,0
76.826645,76.94483,64,76,0
76.9228,77.040985,68,76,0
77.01895,77.13714,71,76,0
77.115105,77.2333,76,76,0
77.30741,77.49571,71,76,0
77.21126,77.49772,83,76,0
77.88434,78.002525,47,76,0
77.98049,78.09868,54,76,0
78.076645,78.19483,59,76,0
78.1728,78.290985,63,76,0
78.26895,78.38714,66,76,0
78.365105,78.44323,75,76,0
78.46126,78.59347,66,76,0
78.55741,78.68962,75,76,0
78.653564,78.785774,65,76,0
78.74972,78.88193,74,76,0
78.84587,79.59306,66,76,0
78.942024,79.59306,75,76,0
79.6151,79.73729,64,76,0
79.71125,79.83345,73,76,0
79.8074,79.9296,63,76,0
79.90356,80.02576,72,76,0
79.99971,80.7469,64,76,0
80.09586,80.7469,73,76,0
80.76894,80.90115,62,76,0
80.8651,80.99731,71,76,0
80.96125,81.09346,61,76,0
81.0574,81.18961,70,76,0
81.15356,81.90075,62,76,0
81.24971,81.90075,71,76,0
81.92278,82.05499,61,76,0
82.018936,82.151146,70,78,0
82.11509,82.2473,59,80,0
82.21124,82.34345,68,83,0
82.307396,82.439606,58,85,0
82.40355,82.53576,66,87,0
82.4997,82.63191,61,89,0
82.595856,82.728065,70,87,0
82.69201,82.82422,64,85,0
82.78816,82.92037,73,83,0
82.884315,83.016525,68,81,0
82.98047,83.05459,76,79,0
83.07662,83.20883,66,76,0
83.172775,83.304985,75,76,0
83.26893,83.40114,65,76,0
83.36508,83.4973,74,76,0
83.461235,84.20843,66,76,0
83.55739,84.20843,75,76,0
84.23047,84.36268,64,76,0
84.32662,84.45883,73,76,0
84.422775,84.554985,63,76,0
84.51893,84.65114,72,76,0
84.61508,85.34825,64,76,0
84.711235,85.34825,73,76,0
85.38431,85.51652,62,76,0
85.48046,85.61267,71,76,0
85.576614,85.708824,61,76,0
85.67277,85.80498,70,76,0
85.76892,86.51611,62,76,0
85.865074,86.51611,71,76,0
86.53815,86.670364,61,76,0
86.6343,86.76652,70,77,0
86.73045,86.86267,64,79,0
86.82661,86.958824,73,81,0
86.92277,87.05498,68,84,0
87.01892,87.15113,76,86,0
87.115074,87.247284,71,88,0
87.21123,87.34344,80,91,0
87.30738,87.43959,68,88,0
87.403534,87.53574,76,85,0
87.49969,87.6319,64,82,0
87.59584,87.68999,73,79,0
87.69199,87.8242,66,76,0
87.78815,87.92036,75,76,0
87.8843,88.01651,65,76,0
87.98045,88.11266,74,76,0
88.07661,88.81979,66,76,0
88.17276,88.81979,75,76,0
88.84583,88.97804,66,76,0
88.941986,89.074196,75,76,0
89.03814,89.17035,65,76,0
89.13429,89.2665,74,76,0
89.230446,89.97764,66,76,0
89.3266,89.97764,75,76,0
89.99968,90.13189,66,76,0
90.09583,90.22804,75,76,0
90.191986,90.324196,65,76,0
90.28814,90.42035,74,76,0
90.38429,91.131485,66,76,0
90.480446,91.131485,75,76,0
91.15352,91.28573,63,76,0
91.15352,91.28573,72,76,0
91.24967,91.38188,75,77,0
91.345825,91.478035,62,78,0
91.345825,91.478035,71,78,0
91.44198,91.57419,74,78,0
91.53813,91.896706,63,79,0
91.53813,91.896706,72,79,0
91.634285,91.896706,75,80,0
91.922745,92.054955,71,83,0
91.922745,92.054955,62,83,0
92.0189,92.15111,74,83,0
92.11505,92.473625,63,84,0
92.11505,92.473625,72,84,0
92.211205,92.473625,75,85,0
92.499664,92.63188,62,87,0
92.499664,92.63188,71,87,0
92.59582,92.728035,74,88,0
92.69197,92.82419,63,89,0
92.69197,92.82419,72,89,0
92.788124,92.86224,75,90,0
92.88428,93.016495,62,91,0
92.88428,93.016495,71,91,0
92.98044,93.11265,74,92,0
93.07659,93.2088,63,92,0
93.07659,93.2088,72,92,0
93.172745,93.24686,75,93,0
93.2689,93.363045,74,94,0
93.36505,93.4592,86,95,0
93.55736,93.651505,87,96,0
93.55736,93.651505,75,96,0
93.749664,93.84381,74,96,0
93.749664,93.84381,86,96,0
93.94197,94.03612,75,96,0
93.94197,94.03612,87,96,0
94.13428,94.228424,74,96,0
94.13428,94.228424,86,96,0
94.326584,94.42073,69,96,0
94.326584,94.42073,81,96,0
94.51889,94.61304,72,96,0
94.51889,94.61304,84,96,0
94.7112,94.80535,82,96,0
94.7112,94.80535,70,96,0
94.9035,94.99766,67,96,0
94.9035,94.99766,79,96,0
95.09581,95.189964,82,96,0
95.09581,95.189964,70,96,0
95.28812,95.38227,69,96,0
95.28812,95.38227,81,96,0
95.48042,95.57458,64,96,0
95.48042,95.57458,76,96,0
95.67273,95.766884,66,96,0
95.67273,95.766884,78,96,0
95.76888,96.58419,67,96,0
95.76888,96.58419,71,96,0
95.76888,96.58419,74,96,0
95.76888,96.58419,79,96,0
96.63427,96.83859,67,96,0
96.63427,96.83859,74,96,0
96.63427,96.83859,71,96,0
96.92273,97.20518,72,96,0
96.92273,97.24324,67,96,0
96.92273,97.24324,76,96,0
97.21119,97.46359,69,96,0
97.21119,97.46359,77,96,0
97.21119,97.46359,72,96,0
97.49965,97.7821,70,96,0
97.49965,97.7821,65,96,0
97.49965,98.030495,74,96,0
97.78811,98.03651,68,96,0
97.78811,98.03651,65,96,0
98.07657,98.19276,67,96,0
98.07657,98.19276,63,96,0
98.268875,98.38506,68,96,0
98.268875,98.38506,63,96,0
98.46118,98.57737,63,96,0
98.46118,98.57737,72,96,0
98.65349,98.76968,70,96,0
98.65349,98.76968,63,96,0
98.845795,98.96198,63,96,0
98.845795,98.96198,68,96,0
99.0381,99.15429,63,96,0
99.0381,99.15429,70,96,0
99.230415,99.346596,63,96,0
99.230415,99.346596,68,96,0
99.42272,99.5389,63,96,0
99.42272,99.5389,67,96,0
99.61503,99.73121,63,96,0
99.61503,99.73121,68,96,0
99.807335,99.923515,63,96,0
99.807335,99.923515,67,96,0
99.99964,100.11582,62,96,0
99.99964,100.11582,65,96,0
100.19195,100.308136,63,96,0
100.19195,100.308136,67,96,0
100.384254,100.50044,63,96,0
100.384254,100.50044,68,96,0
100.57656,100.69275,70,96,0
100.57656,100.69275,63,96,0
100.76887,100.885056,63,96,0
100.76887,100.885056,74,96,0
100.961174,101.07736,63,96,0
100.961174,101.07736,72,96,0
101.15348,101.26967,70,96,0
101.15348,101.26967,63,96,0
101.34579,101.461975,63,96,0
101.34579,101.461975,72,96,0
101.53809,101.65428,63,96,0
101.53809,101.65428,70,96,0
101.7304,101.84659,68,96,0
101.7304,101.84659,63,96,0
101.92271,102.038895,70,96,0
101.92271,102.038895,63,96,0
102.11502,102.2312,63,96,0
102.11502,102.2312,68,96,0
102.30733,102.42351,63,96,0
102.30733,102.42351,67,96,0
102.49963,102.615814,70,96,0
102.49963,102.615814,65,96,0
102.49963,102.615814,74,96,0
102.69194,103.25684,66,96,0
102.69194,103.25684,78,96,0
102.69194,103.25684,70,96,0
103.26886,103.83376,73,96,0
103.26886,103.83376,65,96,0
103.26886,103.83376,77,96,0
103.84578,104.41068,75,96,0
103.84578,104.41068,65,96,0
103.84578,104.41068,77,96,0
104.4227,104.76525,65,96,0
104.4227,104.76525,77,96,0
104.4227,104.76525,74,96,0
104.80731,104.9235,70,96,0
104.80731,104.9235,65,96,0
104.80731,104.9235,74,96,0
104.99962,105.56452,66,96,0
104.99962,105.56452,70,96,0
104.99962,105.56452,78,96,0
105.576546,106.14144,77,96,0
105.576546,106.14144,73,96,0
105.576546,106.14144,65,96,0
106.153465,106.71837,75,96,0
106.153465,106.71837,65,96,0
106.153465,106.71837,77,96,0
106.730385,107.07293,65,96,0
106.730385,107.07293,74,96,0
106.730385,107.07293,77,96,0
107.115,107.231186,65,96,0
107.115,107.231186,72,96,0
107.115,107.231186,69,96,0
107.115,107.231186,77,96,0
107.307304,107.87221,70,96,0
107.307304,107.87221,65,96,0
107.307304,107.87221,74,96,0
108.268845,108.385025,72,96,0
108.268845,108.385025,65,96,0
108.268845,108.385025,69,96,0
108.268845,108.385025,77,96,0
108.46115,109.02605,70,96,0
108.46115,109.02605,65,96,0
108.46115,109.02605,74,96,0
109.42268,109.53887,72,96,0
109.42268,109.53887,69,96,0
109.42268,109.53887,77,96,0
109.61499,109.73118,82,96,0
109.61499,109.73118,70,96,0
110.19191,110.3081,46,76,0
110.19191,110.3081,58,76,0
110.38422,110.500404,48,76,0
110.38422,110.500404,60,76,0
110.57652,111.32973,51,76,0
110.57652,111.32973,63,76,0
111.34576,111.46194,50,76,0
111.34576,111.46194,62,76,0
111.53806,111.65424,51,76,0
111.53806,111.65424,63,76,0
111.73037,112.48357,55,76,0
111.73037,112.48357,67,76,0
112.499596,112.61578,65,76,0
112.499596,112.61578,53,76,0
112.6919,112.80809,55,76,0
112.6919,112.80809,67,76,0
112.88421,113.0004,58,76,0
112.88421,113.0004,70,76,0
113.076515,113.1927,68,76,0
113.076515,113.1927,56,76,0
113.26882,113.38501,65,76,0
113.26882,113.38501,53,76,0
113.46113,113.57732,50,76,0
113.46113,113.57732,62,76,0
113.653435,113.76962,58,76,0
113.653435,113.76962,46,76,0
113.84574,113.96193,44,76,0
113.84574,113.96193,56,76,0
114.03805,114.154236,53,76,0
114.03805,114.154236,41,76,0
114.230354,114.460724,58,76,0
114.230354,114.460724,46,76,0
114.42267,114.65303,60,76,0
114.42267,114.65303,48,76,0
114.614975,114.84534,51,76,0
114.614975,114.84534,63,76,0
114.80728,115.03764,62,76,0
114.80728,115.03764,50,76,0
114.99959,115.22995,60,76,0
114.99959,115.22995,48,76,0
115.191895,115.422264,50,76,0
115.191895,115.422264,62,76,0
115.3842,115.61457,48,76,0
115.3842,115.61457,60,76,0
115.57651,115.80688,58,76,0
115.57651,115.80688,46,76,0
115.768814,115.99918,48,76,0
115.768814,115.99918,60,76,0
115.96112,116.19149,58,76,0
115.96112,116.19149,46,76,0
116.15343,116.3838,56,76,0
116.15343,116.3838,44,76,0
116.34573,116.50399,58,76,0
116.34573,116.50399,46,76,0
116.53804,116.76841,56,76,0
116.53804,116.76841,44,76,0
116.73035,116.96072,58,76,0
116.73035,116.96072,46,76,0
116.92265,117.15302,48,76,0
116.92265,117.15302,60,76,0
117.11496,117.34533,62,76,0
117.11496,117.34533,50,76,0
117.30727,117.537636,51,76,0
117.30727,117.537636,63,76,0
117.49958,117.65783,65,76,0
117.49958,117.65783,53,76,0
117.69189,117.92225,55,76,0
117.69189,117.92225,67,76,0
117.88419,118.114555,56,76,0
117.88419,118.114555,68,76,0
118.0765,118.30687,58,76,0
118.0765,118.30687,70,76,0
118.26881,118.499176,60,76,0
118.26881,118.499176,72,76,0
118.46111,118.69148,74,76,0
118.46111,118.69148,62,76,0
118.65342,118.81167,63,76,0
118.65342,118.81167,75,76,0
118.845726,119.03403,69,76,0
118.845726,119.03403,72,76,0
118.845726,119.69508,65,76,0
118.845726,119.69508,77,76,0
119.711105,119.99356,60,76,0
119.711105,119.99356,72,76,0
119.999565,120.28202,62,76,0
119.999565,120.28202,74,76,0
120.288025,120.57048,63,76,0
120.288025,120.57048,75,76,0
120.57649,120.68066,72,76,0
120.65862,120.76279,74,76,0
120.74075,120.84492,72,76,0
120.82288,120.92705,74,76,0
120.905014,121.00918,72,76,0
120.987144,121.09131,71,76,0
120.57649,121.14139,60,76,0
121.069275,121.151405,72,76,0
121.15341,122.26318,67,76,0
121.15341,122.26318,79,76,0
122.30725,123.10853,65,76,0
122.30725,123.10853,77,76,0
123.07648,123.30685,75,76,0
123.07648,123.30685,63,76,0
123.26878,123.41702,62,76,0
123.26878,123.41702,74,76,0
123.653404,123.883766,58,76,0
123.653404,123.883766,70,76,0
123.84571,124.07607,60,77,0
123.84571,124.07607,72,77,0
124.03802,124.26838,62,78,0
124.03802,124.26838,74,78,0
124.23032,124.46069,63,79,0
124.23032,124.46069,75,79,0
124.42263,124.58088,77,79,0
124.42263,124.58088,65,79,0
124.61494,124.84531,79,80,0
124.61494,124.84531,67,80,0
124.80724,125.03761,68,81,0
124.80724,125.03761,80,81,0
124.99955,125.22992,70,82,0
124.99955,125.22992,82,82,0
125.19186,125.422226,72,83,0
125.19186,125.422226,84,83,0
125.38416,125.61453,74,84,0
125.38416,125.61453,86,84,0
125.57647,125.7207,87,84,0
125.57647,125.7207,75,84,0
125.96108,126.19145,68,86,0
125.96108,126.19145,56,86,0
126.15339,126.38376,58,87,0
126.15339,126.38376,70,87,0
126.345695,126.576065,60,88,0
126.345695,126.576065,72,88,0
126.53801,126.76837,62,89,0
126.53801,126.76837,74,89,0
126.730316,126.888565,63,90,0
126.730316,126.888565,75,90,0
126.92262,127.152985,58,90,0
126.92262,127.152985,70,90,0
127.11493,127.34529,62,91,0
127.11493,127.34529,74,91,0
127.307236,127.423416,63,92,0
127.307236,127.423416,75,92,0
127.49954,127.72991,58,93,0
127.49954,127.72991,70,93,0
127.69185,127.92222,74,94,0
127.69185,127.92222,62,94,0
127.884155,128.00034,63,95,0
127.884155,128.00034,75,95,0
128.07646,128.19264,87,95,0
128.07646,128.19264,75,95,0
128.26877,128.38495,85,96,0
128.26877,128.38495,73,96,0
128.46107,128.57726,82,96,0
128.46107,128.57726,70,96,0
128.65338,128.76956,67,96,0
128.65338,128.76956,79,96,0
128.84569,128.96187,63,96,0
128.84569,128.96187,75,96,0
129.038,129.15419,73,96,0
129.038,129.15419,61,96,0
129.2303,129.3465,70,96,0
129.2303,129.3465,58,96,0
129.4226,129.5388,55,96,0
129.4226,129.5388,67,96,0
129.61491,129.73111,63,96,0
129.61491,129.73111,51,96,0
129.80722,129.92342,49,96,0
129.80722,129.92342,61,96,0
129.99953,130.11572,58,96,0
129.99953,130.11572,46,96,0
130.19183,130.30803,55,96,0
130.19183,130.30803,43,96,0
130.38414,130.61452,51,96,0
130.57645,130.80682,52,96,0
130.76875,131.52196,56,96,0
131.538,131.76434,51,96,0
131.7303,131.95665,52,96,0
131.9226,132.67581,56,96,0
133.07645,133.2347,71,102,0
133.07645,133.2347,59,102,0
133.07645,133.2347,64,102,0
133.65337,133.81161,76,102,0
133.65337,133.81161,68,102,0
133.65337,133.81161,64,102,0
134.23029,134.38853,80,102,0
134.23029,134.38853,71,102,0
134.23029,134.38853,68,102,0
134.8072,134.96545,76,102,0
134.8072,134.96545,71,102,0
134.8072,134.96545,83,102,0
135.38412,135.50833,78,90,0
135.38412,135.50833,66,90,0
135.38412,135.50833,71,90,0
135.96104,136.08525,83,95,0
135.96104,136.08525,75,95,0
135.96104,136.08525,71,95,0
136.53796,136.66217,87,96,0
136.53796,136.66217,75,96,0
136.53796,136.66217,83,96,0
137.11488,137.23909,78,96,0
137.11488,137.23909,69,96,0
137.11488,137.23909,81,96,0
137.69182,137.81601,82,96,0
137.69182,137.81601,70,96,0
137.69182,137.81601,79,96,0
137.69182,137.81601,75,96,0
138.26874,138.39293,70,96,0
138.26874,138.39293,75,96,0
138.26874,138.39293,67,96,0
138.84566,138.96985,68,96,0
138.84566,138.96985,82,96,0
138.84566,138.96985,74,96,0
139.42258,139.54677,70,96,0
139.42258,139.54677,74,96,0
139.42258,139.54677,65,96,0
140.1918,140.7567,63,106,0
140.1918,140.7567,65,106,0
140.1918,140.7567,53,106,0
141.34564,141.91055,63,106,0
141.34564,141.91055,53,106,0
141.34564,141.91055,65,106,0
142.30717,142.46544,63,104,0
142.30717,142.46544,66,104,0
142.30717,142.46544,54,104,0
142.8841,143.04236,63,104,0
142.8841,143.04236,71,104,0
142.8841,143.04236,59,104,0
143.46103,143.61928,75,104,0
143.46103,143.61928,66,104,0
143.46103,143.61928,63,104,0
144.03795,144.1962,78,104,0
144.03795,144.1962,66,104,0
144.03795,144.1962,71,104,0
144.61487,144.73105,61,76,0
144.61487,144.73105,73,76,0
144.61487,144.73105,66,76,0
145.19179,145.30797,78,80,0
145.19179,145.30797,66,80,0
145.19179,145.30797,70,80,0
145.7687,145.88489,82,87,0
145.7687,145.88489,70,87,0
145.7687,145.88489,78,87,0
146.34563,146.4618,64,90,0
146.34563,146.4618,73,90,0
146.92255,147.04274,63,96,0
146.92255,147.04274,54,96,0
146.53793,147.10283,66,104,0
147.49947,147.61966,66,96,0
147.49947,147.61966,59,96,0
147.11485,147.66574,71,100,0
147.69177,148.11044,75,102,0
148.07639,148.19658,63,96,0
148.07639,148.23064,71,103,0
148.26869,148.68736,69,104,0
148.6533,148.7735,63,96,0
148.6533,148.7735,59,96,0
148.6533,148.81157,66,104,0
149.23022,149.34642,71,96,0
149.23022,149.34642,68,96,0
149.23022,149.34642,64,96,0
149.80716,149.92334,76,96,0
149.80716,149.92334,71,96,0
149.80716,149.92334,64,96,0
150.38408,150.50026,80,96,0
150.38408,150.50026,68,96,0
150.38408,150.50026,71,96,0
150.961,151.07718,70,96,0
150.961,151.07718,62,96,0
150.961,151.07718,68,96,0
150.961,151.07718,74,96,0
151.53792,151.6541,82,96,0
151.53792,151.6541,70,96,0
151.53792,151.6541,75,96,0
152.11484,152.23102,67,97,0
152.11484,152.23102,72,97,0
152.11484,152.23102,76,97,0
152.69176,152.80794,84,98,0
152.69176,152.80794,77,98,0
152.69176,152.80794,72,98,0
153.26868,153.38486,65,99,0
153.26868,153.38486,75,99,0
153.26868,153.38486,77,99,0
153.26868,153.38486,72,99,0
153.8456,153.96179,87,100,0
153.8456,153.96179,82,100,0
153.8456,153.96179,75,100,0
153.8456,153.96179,79,100,0
154.42252,154.53871,79,100,0
154.42252,154.53871,67,100,0
154.42252,154.53871,75,100,0
154.99944,155.11563,80,100,0
154.99944,155.11563,68,100,0
154.99944,155.11563,74,100,0
154.99944,155.11563,77,100,0
155.57637,155.69255,68,100,0
155.57637,155.69255,74,100,0
155.57637,155.69255,62,100,0
155.57637,155.69255,70,100,0
155.76868,155.95697,75,100,0
155.76868,155.95697,63,100,0
155.76868,155.95697,70,100,0
155.76868,155.95697,67,100,0
156.3456,156.53389,91,100,0
156.3456,156.53389,87,100,0
156.3456,156.53389,82,100,0
156.3456,156.53389,79,100,0
157.49944,157.68773,75,100,0
157.49944,157.68773,70,100,0
157.49944,157.68773,79,100,0
157.49944,157.68773,67,100,0
158.07635,159.39847,51,100,0
158.07635,159.39847,55,100,0
158.07635,159.39847,58,100,0
158.07635,159.39847,63,100,0
160.38403,160.61281,87,76,0
160.38403,160.61281,75,76,0
160.58243,160.82642,85,76,0
160.58243,160.82642,73,76,0
160.79413,161.0532,70,76,0
160.79413,161.0532,82,76,0
161.01889,161.29381,67,76,0
161.01889,161.29381,79,76,0
161.2575,161.54785,63,76,0
161.2575,161.54785,75,76,0
161.50964,161.81532,61,76,0
161.50964,161.81532,73,76,0
161.77518,162.0957,70,76,0
161.77518,162.0957,58,76,0
162.05363,162.38985,55,76,0
162.05363,162.38985,67,76,0
162.34566,162.69786,51,76,0
162.34566,162.69786,63,76,0
162.65181,163.01907,61,76,0
162.65181,163.01907,49,76,0
162.971,163.35437,58,76,0
162.971,163.35437,46,76,0
163.30437,163.64294,55,76,0
163.30437,163.64294,43,76,0
169.11667,169.41582,68,76,0
169.3731,169.67223,80,76,0
169.6295,169.92863,68,76,0
169.88591,170.18506,80,76,0
170.14232,170.35065,68,76,0
170.65514,170.95428,56,76,0
170.91154,171.2107,68,76,0
171.16795,171.4671,56,76,0
171.42436,171.72351,68,76,0
171.68077,171.93184,56,76,0
172.1936,172.49274,56,76,0
172.45001,172.74915,68,76,0
172.70642,173.00555,56,76,0
172.96283,173.26198,68,76,0
173.21924,173.42757,56,76,0
173.73206,174.0312,44,76,0
173.98846,174.28761,56,76,0
174.24487,174.54402,44,76,0
174.50128,174.80043,56,76,0
174.75769,174.96603,44,76,0
175.27052,175.56966,68,76,0
175.52693,175.82607,80,76,0
175.78334,176.08247,68,76,0
176.03975,176.3389,80,76,0
176.29616,176.50449,68,76,0
176.80898,177.10812,56,76,0
177.06538,177.36453,68,76,0
177.3218,177.62094,56,76,0
177.5782,177.87735,68,76,0
177.83461,178.04295,56,76,0
178.34744,178.64658,56,76,0
178.60385,178.90298,68,76,0
178.86026,179.15941,56,76,0
179.11667,179.41582,68,76,0
179.37308,179.5814,56,76,0
179.8859,180.18504,44,76,0
180.1423,180.44145,56,76,0
180.39871,180.69786,44,76,0
180.65512,180.95427,56,76,0
180.91153,181.08247,44,76,0
181.42436,181.7235,70,76,0
181.68077,181.9799,82,76,0
181.93718,182.23633,70,76,0
182.19359,182.49274,82,76,0
182.45,182.65833,70,76,0
182.96281,183.26196,58,76,0
183.21922,183.51837,70,76,0
183.47563,183.77478,58,76,0
183.73204,184.03119,70,76,0
183.98845,184.1968,58,76,0
184.50128,184.80042,58,76,0
184.75769,185.05682,70,76,0
185.0141,185.31325,58,76,0
185.27051,185.56966,70,76,0
185.52692,185.73524,58,76,0
186.03973,186.33888,46,76,0
186.29614,186.59529,58,76,0
186.55255,186.8517,46,76,0
186.80896,187.06003,58,76,0
187.3218,187.64764,70,76,0
187.3218,187.64764,67,76,0
187.5782,187.90405,63,76,0
187.83461,188.16046,70,76,0
187.83461,188.16046,67,76,0
188.09102,188.41687,63,76,0
188.34743,188.67328,67,76,0
188.34743,188.67328,70,76,0
187.3218,188.90298,73,76,0
187.3218,188.90298,75,84,0
188.60384,188.92969,63,76,0
188.86024,189.1861,68,76,0
188.86024,189.43716,71,84,0
189.11665,189.4425,63,76,0
189.37306,189.69891,70,76,0
189.37306,189.94998,73,84,0
189.62947,189.95534,63,76,0
189.88588,190.21175,71,76,0
189.88588,190.34529,75,84,0
190.1423,190.35063,63,76,0
190.39871,190.69785,75,76,0
190.65512,190.95425,68,76,0
190.91153,191.21068,75,76,0
190.39871,191.45105,78,84,0
191.16794,191.46709,68,76,0
191.42435,191.7235,73,76,0
191.42435,191.87306,76,84,0
191.68076,191.9799,68,76,0
191.93716,192.25233,70,76,0
192.19357,192.50874,68,76,0
192.44998,192.76515,70,76,0
192.70639,193.02156,68,76,0
192.9628,193.27797,70,76,0
191.93716,193.41687,73,84,0
193.21922,193.41687,68,76,0
193.47563,193.80148,73,76,0
193.73204,194.05789,68,76,0
193.98845,194.3143,73,76,0
194.24486,194.57071,68,76,0
194.50127,194.82712,73,76,0
193.47563,195.05682,76,84,0
194.75768,195.08353,68,76,0
195.01408,195.33994,70,76,0
195.01408,195.591,73,84,0
195.2705,195.59634,68,76,0
195.5269,195.85277,71,76,0
195.5269,196.10384,75,84,0
195.78331,196.10918,68,76,0
196.03972,196.36559,73,76,0
196.03972,196.48845,76,84,0
196.29614,196.49379,68,76,0
196.55255,196.85168,76,76,0
196.80896,197.10811,68,76,0
197.06537,197.36452,76,76,0
197.32178,197.62093,68,76,0
196.55255,197.6316,80,84,0
197.57819,197.87733,75,76,0
197.57819,198.03758,78,84,0
197.8346,198.13374,68,76,0
198.091,198.39015,71,76,0
198.34741,198.64656,68,76,0
198.60382,198.90297,71,76,0
198.091,199.06323,75,84,0
198.86023,199.17006,68,76,0
199.11665,199.41045,75,76,0
199.11665,199.57071,78,84,0
199.37306,199.57605,68,76,0
199.62947,199.9393,78,76,0
199.88588,200.19571,70,76,0
200.14229,200.45212,78,76,0
200.3987,200.70853,70,76,0
200.6551,200.96494,78,76,0
199.62947,201.13588,82,84,0
200.91151,201.16258,70,76,0
201.16792,201.47775,75,76,0
201.16792,201.72882,78,84,0
201.42433,201.73416,70,77,0
201.68074,201.99057,77,79,0
201.68074,202.24164,80,87,0
201.93715,202.24698,70,80,0
202.19357,202.50339,78,81,0
202.19357,202.67967,82,89,0
202.44998,202.70105,70,82,0
202.7331,203.03224,80,83,0
202.97348,203.27263,70,84,0
202.7331,203.29399,83,91,0
203.22989,203.52904,77,84,0
203.47562,203.76942,70,84,0
203.22989,203.79613,80,92,0
203.73203,204.02583,74,83,0
203.98843,204.1754,70,82,0
203.73203,204.20212,77,91,0
204.24484,204.53865,77,81,0
204.50125,204.79506,70,80,0
204.24484,204.80574,80,89,0
204.75766,205.05147,74,79,0
205.01407,205.30788,68,78,0
204.75766,205.31856,77,87,0
205.2705,205.56429,70,77,0
205.5269,205.71387,68,77,0
205.2705,205.74057,74,85,0
205.78331,206.09314,70,76,0
205.78331,206.09314,67,76,0
206.03972,206.34955,63,76,0
206.29613,206.60596,67,76,0
206.29613,206.60596,70,76,0
206.55254,206.86237,63,76,0
206.80894,207.11877,70,76,0
206.80894,207.11877,67,76,0
205.78331,207.28972,73,76,0
205.78331,207.28972,75,84,0
207.06535,207.31642,63,76,0
207.32176,207.63159,68,76,0
207.32176,207.88266,72,84,0
207.57817,207.888,60,76,0
207.83458,208.14441,70,76,0
207.83458,208.39548,73,84,0
208.091,208.40082,61,76,0
208.34741,208.65724,72,76,0
208.34741,208.81749,75,84,0
208.60382,208.82283,63,76,0
208.87091,209.18608,75,76,0
209.11664,209.42647,66,76,0
209.37305,209.68288,75,76,0
209.62946,209.93929,66,76,0
208.87091,209.94997,78,84,0
209.88586,210.1957,73,76,0
209.88586,210.3239,76,84,0
210.14227,210.4521,64,76,0
210.39868,210.70851,72,76,0
210.65509,210.96492,63,76,0
210.9115,211.22133,72,76,0
210.39868,211.47774,75,84,0
211.16792,211.47774,63,76,0
211.42433,211.73416,73,76,0
211.42433,211.86237,76,84,0
211.68074,211.93181,64,77,0
211.93715,212.263,71,77,0
211.93715,212.263,74,77,0
212.19356,212.51941,64,77,0
212.44997,212.77582,71,78,0
212.44997,212.77582,74,78,0
212.70638,213.03223,64,78,0
212.96278,213.28864,71,78,0
212.96278,213.28864,74,78,0
211.93715,213.39548,76,85,0
213.2192,213.40616,64,79,0
213.4756,213.78543,69,79,0
213.73201,214.04184,61,79,0
213.4756,214.05254,73,87,0
213.98842,214.29825,71,80,0
214.24484,214.55467,62,80,0
213.98842,214.56535,74,88,0
214.50125,214.81108,73,80,0
214.50125,214.98735,76,88,0
214.75766,215.06749,64,80,0
215.02475,215.33992,76,81,0
215.27048,215.5803,67,81,0
215.52689,215.83672,76,81,0
215.7833,216.09312,67,82,0
215.02475,216.1038,79,89,0
216.0397,216.34953,74,82,0
216.0397,216.5098,77,90,0
216.29611,216.54718,65,82,0
216.55252,216.86235,73,83,0
216.80893,217.11876,64,83,0
217.06535,217.37517,73,83,0
216.55252,217.63159,76,91,0
217.32176,217.63159,64,84,0
217.57817,217.888,74,84,0
217.57817,218.04825,77,92,0
217.83458,218.05359,65,84,0
218.09099,218.3848,72,84,0
218.09099,218.3848,75,84,0
218.3474,218.6412,65,85,0
218.6038,218.89761,72,85,0
218.6038,218.89761,75,85,0
218.86021,219.15402,65,85,0
219.11662,219.41043,75,86,0
219.11662,219.41043,72,86,0
218.09099,219.56534,77,92,0
219.37303,219.6241,65,86,0
219.62944,219.92325,70,86,0
219.88585,220.17966,65,87,0
219.62944,220.20638,74,94,0
220.14227,220.20638,74,87,0
220.39868,220.69247,65,87,0
220.14227,220.7192,77,95,0
220.65509,220.94888,75,88,0
220.65509,221.10915,78,96,0
220.9115,221.11449,66,88,0
221.16791,221.47774,73,88,0
221.42432,221.73415,66,88,0
221.68073,221.99055,73,89,0
221.93713,222.24696,66,89,0
222.19354,222.50337,73,89,0
221.16791,222.64226,78,96,0
221.16791,222.64226,76,96,0
222.44995,222.75978,66,90,0
222.70636,223.01619,71,90,0
222.70636,223.26726,75,98,0
223.2192,223.26726,75,91,0
222.96277,223.2726,66,90,0
223.2192,223.78009,78,99,0
223.4756,223.78543,66,91,0
223.73201,224.04184,76,91,0
223.73201,224.18607,80,99,0
223.98842,224.20743,68,92,0
224.24483,224.55466,74,92,0
224.50124,224.81107,68,94,0
224.75764,225.06747,74,95,0
224.24483,225.2491,80,100,0
225.01405,225.32388,68,98,0
225.27046,225.58029,74,100,0
225.52687,225.8367,71,101,0
225.78328,226.09311,74,94,0
226.0397,226.34952,71,94,0
226.29611,226.60594,74,94,0
225.27046,226.77687,83,101,0
226.55252,226.86235,71,95,0
226.80893,227.11876,74,95,0
227.06534,227.37517,70,95,0
227.32175,227.63158,74,94,0
227.57816,227.88799,70,93,0
227.83456,228.1444,74,91,0
226.80893,228.31534,82,103,0
228.09097,228.4008,70,90,0
228.34738,228.65721,74,88,0
228.60379,228.91362,68,87,0
228.8602,229.17003,74,85,0
229.11662,229.42644,68,84,0
229.37303,229.68286,74,82,0
228.34738,229.85379,80,96,0
229.62944,229.88051,68,81,0
229.88585,230.13692,70,79,0
229.88585,230.13692,67,79,0
230.14226,230.34525,63,80,0
230.39867,230.7085,70,80,0
230.39867,230.7085,67,80,0
230.65508,230.9649,63,76,0
230.91148,231.22131,67,76,0
231.1679,231.47772,63,76,0
231.4243,231.73413,67,76,0
229.88585,231.8944,73,79,0
229.88585,231.8944,75,87,0
231.68071,231.93178,63,76,0
231.93712,232.24695,68,76,0
231.93712,232.49802,71,84,0
232.19354,232.50337,63,76,0
232.44995,232.75978,70,76,0
232.44995,233.01085,73,84,0
232.70636,233.01619,63,76,0
232.96277,233.2726,71,76,0
232.96277,233.43285,75,84,0
233.21918,233.43819,68,76,0
233.47559,233.80144,75,76,0
233.732,234.05785,68,76,0
233.9884,234.31425,75,76,0
233.47559,234.55464,78,84,0
234.24481,234.57066,68,76,0
234.50122,234.82709,73,76,0
234.50122,234.98734,76,84,0
234.75763,235.05144,68,76,0
235.01405,235.32387,70,76,0
235.27046,235.58029,68,76,0
235.52687,235.8367,70,76,0
235.78328,236.09311,68,76,0
236.03969,236.34952,70,76,0
235.01405,236.47238,73,84,0
236.2961,236.47238,68,76,0
236.5525,236.86234,73,76,0
236.80891,237.11874,68,76,0
237.06532,237.37515,73,76,0
237.32173,237.63156,68,76,0
237.57814,237.88797,73,76,0
236.5525,238.02687,76,84,0
237.83455,238.14438,68,76,0
238.09097,238.40079,70,76,0
238.09097,238.65186,73,84,0
238.34738,238.65721,68,76,0
238.60379,238.91362,72,76,0
238.60379,239.16469,75,84,0
238.8602,239.17003,68,76,0
239.11661,239.42644,73,76,0
239.11661,239.58669,76,84,0
239.37302,239.59203,68,76,0
239.62943,239.93925,76,76,0
239.88583,240.19566,68,76,0
240.14224,240.45207,76,76,0
239.62943,240.69246,80,84,0
240.39865,240.70848,68,76,0
240.65506,240.96489,75,76,0
240.65506,241.12515,78,84,0
240.91147,241.2213,68,76,0
241.1679,241.47772,72,76,0
241.4243,241.73413,68,76,0
241.68071,241.99054,72,76,0
241.1679,242.12408,75,84,0
241.93712,242.24695,68,76,0
242.19353,242.50336,75,76,0
242.44994,242.6369,68,76,0
242.19353,242.69566,78,84,0
242.70634,244.19673,81,84,0
242.70634,244.19673,69,76,0
242.70634,244.19673,78,76,0
244.24481,244.82173,78,86,0
244.24481,244.82173,66,78,0
244.24481,244.82173,75,78,0
244.75763,245.33455,80,87,0
244.75763,245.33455,76,79,0
244.75763,245.33455,68,79,0
245.27045,245.75656,78,79,0
245.27045,245.75656,69,79,0
245.27045,245.75656,81,87,0
245.78326,247.27365,78,80,0
245.78326,247.27365,69,80,0
245.78326,247.27365,81,88,0
247.32173,247.89865,78,91,0
247.32173,247.89865,75,83,0
247.32173,247.89865,66,83,0
247.83455,248.41147,80,92,0
247.83455,248.41147,76,84,0
247.83455,248.41147,68,84,0
248.34737,248.83348,69,84,0
248.34737,248.83348,78,84,0
248.34737,248.83348,81,92,0
248.86018,250.35057,82,93,0
248.86018,250.35057,79,85,0
248.86018,250.35057,70,85,0
250.39865,250.98625,70,88,0
250.39865,250.98625,79,96,0
250.39865,250.98625,67,88,0
250.91147,251.49907,80,97,0
250.91147,251.49907,68,89,0
250.91147,251.49907,72,89,0
251.42429,251.87834,82,98,0
251.42429,251.87834,73,90,0
251.42429,251.87834,70,90,0
251.9371,253.39543,82,98,0
251.9371,253.39543,73,90,0
251.9371,253.39543,70,90,0
253.47557,254.06317,84,101,0
253.47557,254.06317,75,93,0
253.47557,254.06317,72,93,0
253.98839,254.57599,85,102,0
253.98839,254.57599,76,94,0
253.98839,254.57599,73,94,0
254.5012,254.95526,78,95,0
254.5012,254.95526,87,103,0
254.5012,254.95526,75,95,0
255.01402,256.029,76,96,0
255.01402,256.10376,88,104,0
255.01402,256.10376,80,96,0
256.03967,256.4937,85,104,0
256.03967,256.4937,76,96,0
256.03967,256.4937,73,96,0
256.5525,257.64224,78,96,0
256.5525,257.64224,81,104,0
256.5525,257.64224,69,96,0
257.57812,258.0322,80,104,0
257.57812,258.0322,76,96,0
257.57812,258.0322,68,96,0
258.09094,259.1059,76,96,0
258.09094,259.1807,85,104,0
258.09094,259.1807,73,96,0
259.11658,259.57065,80,104,0
259.11658,259.57065,76,96,0
259.11658,259.57065,68,96,0
259.6294,260.71915,78,102,0
259.6294,260.71915,66,95,0
259.6294,260.71915,75,95,0
260.65506,261.1091,64,94,0
260.65506,261.1091,73,94,0
260.65506,261.1091,76,101,0
261.16788,262.6903,71,93,0
261.16788,262.6903,63,93,0
261.16788,262.76508,75,100,0
262.70633,263.7106,68,91,0
262.70633,263.7106,63,91,0
262.70633,263.7106,71,97,0
264.24478,265.7672,61,89,0
264.24478,265.7672,67,89,0
264.24478,265.842,73,95,0
265.78323,266.7875,61,87,0
265.78323,266.7875,70,92,0
265.78323,266.7875,67,87,0
267.32172,268.84415,63,84,0
267.32172,268.84415,59,84,0
267.32172,268.9189,71,89,0
268.86017,269.86444,68,87,0
268.86017,269.86444,63,82,0
268.86017,269.86444,59,82,0
270.39862,271.92105,58,80,0
270.39862,271.92105,61,80,0
270.39862,271.99585,70,84,0
271.93707,272.94135,61,78,0
271.93707,272.94135,58,78,0
271.93707,272.94135,67,82,0
273.47556,275.12143,68,76,0
275.06003,278.52356,64,76,0
273.47556,280.11945,56,76,0
273.47556,280.11945,59,76,0
278.44467,283.8888,63,76,0
283.82568,287.17047,62,71,0
287.74738,287.85956,63,76,0
287.74738,287.85956,51,76,0
287.9397,288.05188,65,76,0
287.9397,288.05188,53,76,0
288.132,288.24417,56,76,0
288.132,288.24417,68,76,0
288.3243,288.4365,55,76,0
288.3243,288.4365,67,76,0
288.5166,288.62878,65,76,0
288.5166,288.62878,53,76,0
288.70892,288.8211,55,76,0
288.70892,288.8211,67,76,0
288.9012,289.0134,53,76,0
288.9012,289.0134,65,76,0
289.09354,289.20572,63,76,0
289.09354,289.20572,51,76,0
289.28586,289.398,53,76,0
289.28586,289.398,65,76,0
289.47815,289.59033,63,76,0
289.47815,289.59033,51,76,0
289.67047,289.78262,58,76,0
289.86276,289.97495,63,76,0
289.86276,289.97495,51,76,0
290.05508,290.16724,53,76,0
290.05508,290.16724,65,76,0
290.24738,290.35956,67,76,0
290.24738,290.35956,55,76,0
290.4397,290.55185,70,76,0
290.4397,290.55185,58,76,0
290.632,290.74417,56,76,0
290.632,290.74417,68,76,0
290.8243,290.9365,55,76,0
290.8243,290.9365,67,76,0
291.0166,291.12878,56,76,0
291.0166,291.12878,68,76,0
291.20892,291.3211,55,76,0
291.20892,291.3211,67,76,0
291.4012,291.5134,65,76,0
291.4012,291.5134,53,76,0
291.59354,291.70572,67,76,0
291.59354,291.70572,55,76,0
291.78583,291.898,53,76,0
291.78583,291.898,65,76,0
291.97815,292.09033,51,76,0
291.97815,292.09033,63,76,0
292.17044,292.28262,58,76,0
292.17044,292.28262,70,76,0
292.36276,292.47495,75,76,0
292.36276,292.47495,63,76,0
292.55505,292.66724,74,76,0
292.55505,292.66724,62,76,0
292.74738,292.85956,75,76,0
292.74738,292.85956,63,76,0
292.93967,293.05185,74,76,0
292.93967,293.05185,62,76,0
293.132,293.24417,69,76,0
293.132,293.24417,57,76,0
293.32428,293.43646,72,76,0
293.32428,293.43646,60,76,0
293.5166,293.62878,58,76,0
293.5166,293.62878,70,76,0
293.7089,293.82108,67,76,0
293.7089,293.82108,55,76,0
293.9012,294.0134,58,76,0
293.9012,294.0134,70,76,0
294.0935,294.2057,57,76,0
294.0935,294.2057,69,76,0
294.28583,294.398,64,76,0
294.28583,294.398,52,76,0
294.47812,294.5903,66,76,0
294.47812,294.5903,54,76,0
294.67044,295.47772,67,96,0
294.67044,295.47772,71,96,0
294.67044,295.47772,74,96,0
294.67044,295.47772,79,96,0
295.53583,295.74615,67,96,0
295.53583,295.74615,74,96,0
295.53583,295.74615,71,96,0
295.82428,296.10672,72,96,0
295.82428,296.1428,67,96,0
295.82428,296.1428,76,96,0
296.11273,296.3411,72,96,0
296.11273,296.3411,77,96,0
296.11273,296.3411,69,96,0
296.4012,296.68365,70,96,0
296.4012,296.68365,65,96,0
296.4012,296.9661,74,96,0
296.68967,296.9721,68,96,0
296.68967,296.9721,65,96,0
296.97812,297.0943,67,96,0
296.97812,297.0943,63,96,0
297.17044,297.28662,68,96,0
297.17044,297.28662,63,96,0
297.36273,297.4789,72,96,0
297.36273,297.4789,63,96,0
297.55505,297.67123,70,96,0
297.55505,297.67123,63,96,0
297.74734,297.86353,68,96,0
297.74734,297.86353,63,96,0
297.93967,298.05585,70,96,0
297.93967,298.05585,63,96,0
298.13196,298.24814,63,96,0
298.13196,298.24814,68,96,0
298.32428,298.44046,63,96,0
298.32428,298.44046,67,96,0
298.51657,298.63275,63,96,0
298.51657,298.63275,68,96,0
298.7089,298.82507,63,96,0
298.7089,298.82507,67,96,0
298.90118,299.01736,65,96,0
298.90118,299.01736,62,96,0
299.0935,299.2097,63,96,0
299.0935,299.2097,67,96,0
299.2858,299.40198,63,96,0
299.2858,299.40198,68,96,0
299.47812,299.5943,63,96,0
299.47812,299.5943,70,96,0
299.6704,299.78662,63,96,0
299.6704,299.78662,74,96,0
299.86273,299.9789,63,96,0
299.86273,299.9789,72,96,0
300.05502,300.17123,70,96,0
300.05502,300.17123,63,96,0
300.24734,300.36353,63,96,0
300.24734,300.36353,72,96,0
300.43964,300.55585,63,96,0
300.43964,300.55585,70,96,0
300.63196,300.74814,68,96,0
300.63196,300.74814,63,96,0
300.82425,300.94046,63,96,0
300.82425,300.94046,70,96,0
301.01657,301.13275,63,96,0
301.01657,301.13275,68,96,0
301.20886,301.32507,63,96,0
301.20886,301.32507,67,96,0
301.40118,301.51736,74,96,0
301.40118,301.51736,70,96,0
301.40118,301.51736,65,96,0
301.5935,302.1584,78,96,0
301.5935,302.1584,66,96,0
301.5935,302.1584,70,96,0
302.1704,302.73532,65,96,0
302.1704,302.73532,77,96,0
302.1704,302.73532,73,96,0
302.74734,303.31223,65,96,0
302.74734,303.31223,75,96,0
302.74734,303.31223,77,96,0
303.32425,303.70087,65,96,0
303.32425,303.70087,70,96,0
303.32425,303.70087,74,96,0
303.70886,303.82504,70,96,0
303.70886,303.82504,74,96,0
303.70886,303.82504,65,96,0
303.90118,304.46606,66,96,0
303.90118,304.46606,78,96,0
303.90118,304.46606,70,96,0
304.4781,305.043,73,96,0
304.4781,305.043,77,96,0
304.4781,305.043,65,96,0
305.05502,305.6199,75,96,0
305.05502,305.6199,65,96,0
305.05502,305.6199,77,96,0
305.63193,305.94443,70,96,0
305.63193,305.94443,74,96,0
305.63193,305.94443,65,96,0
306.01654,306.13275,72,96,0
306.01654,306.13275,65,96,0
306.01654,306.13275,69,96,0
306.20886,306.77377,73,96,0
306.20886,306.77377,61,96,0
306.20886,306.77377,65,96,0
306.78577,307.35068,68,96,0
306.78577,307.35068,60,96,0
306.78577,307.35068,72,96,0
307.3627,307.9276,60,96,0
307.3627,307.9276,72,96,0
307.3627,307.9276,70,96,0
307.93964,308.31622,69,96,0
307.93964,308.31622,72,96,0
307.93964,308.31622,60,96,0
308.32425,308.44043,72,96,0
308.32425,308.44043,65,96,0
308.32425,308.44043,69,96,0
308.51654,309.08145,73,96,0
308.51654,309.08145,65,96,0
308.51654,309.08145,61,96,0
309.09348,309.65836,72,96,0
309.09348,309.65836,68,96,0
309.09348,309.65836,60,96,0
309.67038,309.78656,76,96,0
309.67038,309.78656,70,96,0
309.67038,309.78656,72,96,0
309.67038,309.78656,64,96,0
309.8627,310.2393,70,96,0
309.8627,310.2393,64,96,0
309.8627,310.2393,72,96,0
309.8627,310.2393,76,96,0
310.2473,310.6239,76,96,0
310.2473,310.6239,64,96,0
310.2473,310.6239,70,96,0
310.2473,310.6239,72,96,0
310.63193,310.7481,64,96,0
310.63193,310.7481,72,96,0
310.63193,310.7481,70,96,0
310.63193,310.7481,76,96,0
310.82422,310.9404,77,96,0
310.82422,310.9404,65,96,0
310.82422,310.9404,72,96,0
310.82422,310.9404,69,96,0
315.4396,315.66995,65,76,0
315.4396,315.66995,53,76,0
315.6319,315.86227,55,76,0
315.6319,315.86227,67,76,0
315.82422,316.05457,58,76,0
315.82422,316.05457,70,76,0
316.0165,316.2469,57,76,0
316.0165,316.2469,69,76,0
316.20883,316.43918,67,76,0
316.20883,316.43918,55,76,0
316.40112,316.6315,57,76,0
316.40112,316.6315,69,76,0
316.59344,316.8238,67,76,0
316.59344,316.8238,55,76,0
316.78574,317.0161,53,76,0
316.78574,317.0161,65,76,0
316.97806,317.2084,55,76,0
316.97806,317.2084,67,76,0
317.17035,317.40073,53,76,0
317.17035,317.40073,65,76,0
317.36267,317.59302,63,76,0
317.36267,317.59302,51,76,0
317.55496,317.71323,53,76,0
317.55496,317.71323,65,76,0
317.74728,317.97766,63,76,0
317.74728,317.97766,51,76,0
317.93958,318.16995,65,76,0
317.93958,318.16995,53,76,0
318.1319,318.36227,55,76,0
318.1319,318.36227,67,76,0
318.3242,318.55457,69,76,0
318.3242,318.55457,57,76,0
318.5165,318.7469,58,76,0
318.5165,318.7469,70,76,0
318.7088,318.86707,72,76,0
318.7088,318.86707,60,76,0
318.90112,319.1315,74,76,0
318.90112,319.1315,62,76,0
319.0934,319.3238,63,76,0
319.0934,319.3238,75,76,0
319.28574,319.5161,65,76,0
319.28574,319.5161,77,76,0
319.47803,319.7084,79,76,0
319.47803,319.7084,67,76,0
319.67035,319.90073,81,76,0
319.67035,319.90073,69,76,0
319.86267,320.0209,70,77,0
319.86267,320.0209,82,77,0
320.05496,320.28534,84,78,0
320.05496,320.28534,72,78,0
320.24728,320.47763,86,78,0
320.24728,320.47763,74,78,0
320.43958,320.66995,75,79,0
320.43958,320.66995,87,79,0
320.6319,320.86224,77,79,0
320.6319,320.86224,89,79,0
320.8242,321.05457,79,80,0
320.8242,321.05457,91,80,0
321.0165,321.17474,81,81,0
321.0165,321.17474,93,81,0
321.2088,321.43918,94,81,0
321.2088,321.43918,82,81,0
321.40112,321.63147,89,76,0
321.40112,321.63147,77,76,0
321.5934,321.8238,74,76,0
321.5934,321.8238,86,76,0
321.78574,322.01608,82,76,0
321.78574,322.01608,70,76,0
321.97803,322.2084,65,76,0
321.97803,322.2084,77,76,0
322.17035,322.31458,74,76,0
322.17035,322.31458,62,76,0
322.74725,322.86343,73,76,0
322.74725,322.86343,61,76,0
322.74725,322.86343,66,76,0
323.3242,323.44037,78,78,0
323.3242,323.44037,70,78,0
323.3242,323.44037,66,78,0
323.9011,324.0173,78,79,0
323.9011,324.0173,70,79,0
323.9011,324.0173,82,79,0
324.47803,324.5942,76,81,0
324.47803,324.5942,64,81,0
324.47803,324.5942,70,81,0
325.05493,325.17114,77,82,0
325.05493,325.17114,70,82,0
325.05493,325.17114,74,82,0
325.05493,325.17114,65,82,0
325.63187,325.74805,70,83,0
325.63187,325.74805,65,83,0
325.63187,325.74805,74,83,0
326.2088,326.32498,69,85,0
326.2088,326.32498,65,85,0
326.2088,326.32498,75,85,0
326.2088,326.32498,77,85,0
326.7857,326.9019,63,86,0
326.7857,326.9019,60,86,0
326.7857,326.9019,69,86,0
327.36264,327.47882,73,87,0
327.36264,327.47882,61,87,0
327.36264,327.47882,66,87,0
327.93954,328.05573,78,89,0
327.93954,328.05573,66,89,0
327.93954,328.05573,70,89,0
328.51648,328.63266,82,90,0
328.51648,328.63266,70,90,0
328.51648,328.63266,73,90,0
329.09338,329.20956,90,91,0
329.09338,329.20956,78,91,0
329.09338,329.20956,82,91,0
329.67032,329.7865,89,93,0
329.67032,329.7865,82,93,0
329.67032,329.7865,77,93,0
330.24722,330.36343,77,94,0
330.24722,330.36343,65,94,0
330.24722,330.36343,70,94,0
330.82416,330.94034,77,96,0
330.82416,330.94034,89,96,0
330.82416,330.94034,81,96,0
330.82416,330.94034,84,96,0
331.40106,331.51727,77,97,0
331.40106,331.51727,65,97,0
331.40106,331.51727,69,97,0
331.40106,331.51727,72,97,0
331.59338,331.70956,94,96,0
331.59338,331.70956,82,96,0
331.78568,331.9019,92,96,0
331.78568,331.9019,80,96,0
331.978,332.09418,77,96,0
331.978,332.09418,89,96,0
332.17032,332.2865,74,96,0
332.17032,332.2865,86,96,0
332.3626,332.4788,70,96,0
332.3626,332.4788,82,96,0
332.55493,332.6711,68,94,0
332.55493,332.6711,80,94,0
332.74722,332.8634,65,91,0
332.74722,332.8634,77,91,0
332.93954,333.05573,62,89,0
332.93954,333.05573,74,89,0
333.13184,333.24802,70,86,0
333.13184,333.24802,58,86,0
333.32416,333.44034,56,84,0
333.32416,333.44034,68,84,0
333.51645,333.63263,65,81,0
333.51645,333.63263,53,81,0
333.70877,333.82495,50,79,0
333.70877,333.82495,62,79,0
333.90106,334.01724,51,76,0
333.90106,334.01724,63,76,0
334.28568,334.40186,56,76,0
334.28568,334.40186,44,76,0
334.478,334.59418,51,76,0
334.478,334.59418,63,76,0
334.8626,334.9788,39,76,0
334.8626,334.9788,51,76,0
335.0549,335.17108,58,76,0
335.0549,335.17108,46,76,0
335.4395,335.5557,46,76,0
335.4395,335.5557,34,76,0
335.63184,335.74802,51,76,0
335.63184,335.74802,39,76,0
336.20874,336.32495,56,76,0
336.20874,336.32495,68,76,0
336.59335,336.70956,51,76,0
336.59335,336.70956,63,76,0
336.78568,336.90186,56,76,0
336.78568,336.90186,68,76,0
337.1703,337.28647,56,76,0
337.1703,337.28647,44,76,0
337.36258,337.4788,51,76,0
337.36258,337.4788,63,76,0
337.7472,337.8634,39,76,0
337.7472,337.8634,51,76,0
337.9395,338.0557,58,76,0
337.9395,338.0557,46,76,0
338.32413,338.4403,82,76,0
338.32413,338.4403,70,76,0
338.51645,338.63263,87,76,0
338.51645,338.63263,75,76,0
338.70874,338.82492,86,76,0
338.70874,338.82492,74,76,0
338.90106,339.01724,75,76,0
338.90106,339.01724,87,76,0
339.09335,339.20953,85,76,0
339.09335,339.20953,73,76,0
339.28568,339.40186,84,76,0
339.28568,339.40186,72,76,0
339.47797,339.59415,73,76,0
339.47797,339.59415,85,76,0
339.6703,339.78647,83,76,0
339.6703,339.78647,71,76,0
339.86258,339.97876,70,76,0
339.86258,339.97876,82,76,0
340.0549,340.17108,83,76,0
340.0549,340.17108,71,76,0
340.2472,340.36337,70,76,0
340.2472,340.36337,82,76,0
340.4395,340.5557,66,76,0
340.4395,340.5557,78,76,0
340.82413,341.4371,70,76,0
340.82413,341.4371,82,76,0
341.40103,342.59296,71,78,0
341.40103,342.59296,83,78,0
342.55487,342.84335,69,76,0
342.55487,342.84335,81,76,0
342.93948,343.0557,88,76,0
342.93948,343.0557,76,76,0
343.1318,343.248,81,76,0
343.1318,343.248,93,76,0
343.3241,343.4403,80,77,0
343.3241,343.4403,92,77,0
343.51642,343.6326,93,79,0
343.51642,343.6326,81,79,0
343.7087,343.82492,80,80,0
343.7087,343.82492,92,80,0
343.90103,344.0172,75,82,0
343.90103,344.0172,87,82,0
344.09332,344.20953,78,84,0
344.09332,344.20953,90,84,0
344.28564,344.40182,88,85,0
344.28564,344.40182,76,85,0
344.47797,344.59415,73,87,0
344.47797,344.59415,85,87,0
344.67026,344.78644,76,89,0
344.67026,344.78644,88,89,0
344.86258,344.97876,87,90,0
344.86258,344.97876,75,90,0
345.05487,345.17105,70,92,0
345.05487,345.17105,82,92,0
345.2472,345.36337,72,93,0
345.2472,345.36337,84,93,0
345.43948,346.24075,73,95,0
345.43948,346.24075,76,95,0
345.43948,346.24075,80,95,0
345.43948,346.24075,85,95,0
346.30487,346.5152,80,96,0
346.30487,346.5152,73,96,0
346.30487,346.5152,76,96,0
346.59332,346.90784,78,96,0
346.59332,346.90784,73,96,0
346.59332,346.90784,82,96,0
346.88177,347.12418,71,96,0
346.88177,347.12418,75,96,0
346.88177,347.12418,83,96,0
347.17026,347.28244,80,96,0
347.25238,347.36658,82,96,0
347.3345,347.4487,80,96,0
347.41666,347.53082,82,96,0
347.49878,347.61295,80,96,0
347.5809,347.6951,82,96,0
347.17026,347.73514,76,96,0
347.17026,347.73514,68,96,0
347.66302,347.74518,80,96,0
348.3241,348.44028,52,76,0
348.5164,348.6326,61,76,0
348.7087,348.8249,64,76,0
348.901,349.21152,63,76,0
349.18948,349.44186,56,76,0
349.47794,349.98874,61,76,0
350.05484,350.36536,78,96,0
350.05484,350.36536,73,96,0
350.05484,350.36536,82,96,0
350.34332,350.6017,71,96,0
350.34332,350.6017,75,96,0
350.34332,350.6017,83,96,0
350.63177,350.74396,80,96,0
350.7139,350.8281,82,96,0
350.79605,350.91022,80,96,0
350.87817,350.99234,82,96,0
350.9603,351.0745,80,96,0
351.04242,351.15662,82,96,0
350.63177,351.1967,76,96,0
350.63177,351.1967,68,96,0
351.12457,351.2067,80,96,0
351.2087,351.5192,63,76,0
351.49716,351.76358,56,76,0
351.7856,352.2824,61,76,0
352.36255,352.68304,70,76,0
352.36255,352.68304,61,76,0
352.651,352.89938,71,76,0
352.651,352.89938,63,76,0
352.36255,352.9034,66,84,0
352.93945,353.25998,64,84,0
352.93945,353.4743,68,76,0
352.93945,353.4743,59,76,0
353.2279,353.47632,63,84,0
353.5164,353.83688,58,76,0
353.5164,353.83688,66,76,0
353.5164,354.05124,63,84,0
353.80484,354.05325,68,76,0
353.80484,354.05325,59,76,0
354.0933,354.41382,61,84,0
354.0933,354.62814,64,76,0
354.0933,354.62814,56,76,0
354.38177,354.63016,59,84,0
354.67023,354.99072,54,76,0
354.67023,354.99072,63,76,0
354.67023,355.20508,59,84,0
354.95868,355.2071,56,76,0
354.95868,355.2071,64,76,0
355.24713,355.56766,59,84,0
355.5356,355.784,58,84,0
355.82407,356.14456,56,84,0
355.24713,356.15057,61,76,0
356.11252,356.36093,52,84,0
356.11252,356.36093,64,76,0
356.401,356.7215,59,84,0
356.401,356.93585,61,76,0
356.68945,356.93784,58,84,0
356.9779,357.26035,59,76,0
357.55484,357.673,56,76,0
357.65097,357.76917,64,76,0
357.74713,357.86533,68,76,0
357.8433,357.9615,71,76,0
357.93945,358.05762,76,76,0
358.03558,358.15378,83,76,0
358.13174,358.32004,71,76,0
358.13174,358.32004,75,76,0
358.70868,358.82687,54,76,0
358.8048,358.923,59,76,0
358.90097,359.01917,63,76,0
358.99713,359.11533,66,76,0
359.0933,359.2115,71,76,0
359.18942,359.30762,78,76,0
359.28558,359.47388,64,76,0
359.28558,359.47388,73,76,0
359.28558,359.47388,70,76,0
359.86252,359.9807,52,76,0
359.95868,360.07684,58,76,0
360.0548,360.173,61,76,0
360.15097,360.26917,64,76,0
360.24713,360.36533,70,76,0
360.3433,360.46146,78,76,0
360.43942,360.62775,71,76,0
360.43942,360.62775,63,76,0
361.01636,361.13455,54,76,0
361.11252,361.23068,63,76,0
361.20865,361.32684,66,76,0
361.3048,361.423,71,76,0
361.40097,361.51917,75,76,0
361.59326,361.7816,71,76,0
361.49713,361.78357,83,76,0
362.1702,362.2884,56,76,0
362.26636,362.38455,64,76,0
362.3625,362.48068,68,76,0
362.45865,362.57684,71,76,0
362.5548,362.673,76,76,0
362.74713,362.93542,71,76,0
362.65097,362.9374,83,76,0
363.32404,363.44223,54,76,0
363.4202,363.5384,63,76,0
363.51636,363.63452,66,76,0
363.6125,363.73068,71,76,0
363.70865,363.82684,75,76,0
363.90097,364.08926,71,76,0
363.8048,364.09125,83,76,0
364.47787,364.59607,56,76,0
364.57404,364.69223,64,76,0
364.6702,364.78836,68,76,0
364.76633,364.88452,71,76,0
364.8625,364.98068,76,76,0
365.0548,365.2431,71,76,0
364.95865,365.24512,83,76,0
365.6317,365.7499,47,76,0
365.72787,365.84607,54,76,0
365.82404,365.94223,59,76,0
365.9202,366.03836,63,76,0
366.01633,366.13452,66,76,0
366.1125,366.1906,75,76,0
366.20865,366.34085,66,76,0
366.3048,366.437,75,76,0
366.40094,366.53317,65,76,0
366.4971,366.6293,74,76,0
366.59326,367.34045,66,76,0
366.68942,367.34045,75,76,0
367.3625,367.48468,64,76,0
367.45865,367.58084,73,76,0
367.55478,367.677,63,76,0
367.65094,367.77313,72,76,0
367.7471,368.4943,64,76,0
367.84326,368.4943,73,76,0
368.51633,368.64853,62,76,0
368.6125,368.7447,71,76,0
368.70865,368.84085,61,76,0
368.80478,368.937,70,76,0
368.90094,369.64813,62,76,0
368.9971,369.64813,71,76,0
369.67017,369.80237,61,76,0
369.76633,369.89853,70,78,0
369.8625,369.9947,59,80,0
369.95862,370.09085,68,83,0
370.05478,370.18698,58,85,0
370.15094,370.28314,66,87,0
370.2471,370.3793,61,89,0
370.34323,370.47546,70,87,0
370.4394,370.5716,64,85,0
370.53555,370.66776,73,83,0
370.6317,370.76392,68,81,0
370.72784,370.80197,76,79,0
370.824,370.9562,66,76,0
370.92017,371.05237,75,76,0
371.01633,371.14853,65,76,0
371.11246,371.2447,74,76,0
371.20862,371.9558,66,76,0
371.30478,371.9558,75,76,0
371.97784,372.11008,64,76,0
372.074,372.2062,73,76,0
372.17017,372.30237,63,76,0
372.26633,372.39853,72,76,0
372.36246,373.09564,64,76,0
372.45862,373.09564,73,76,0
373.13168,373.26392,62,76,0
373.22784,373.36005,71,76,0
373.324,373.4562,61,76,0
373.42017,373.55237,70,76,0
373.5163,374.2635,62,76,0
373.61246,374.2635,71,76,0
374.28552,374.41776,61,76,0
374.38168,374.51392,70,77,0
374.47784,374.61005,64,79,0
374.574,374.7062,73,81,0
374.67017,374.80237,68,84,0
374.7663,374.89853,76,86,0
374.86246,374.99466,71,88,0
374.95862,375.09082,80,91,0
375.05478,375.18698,68,88,0
375.1509,375.28314,76,85,0
375.24707,375.37927,64,82,0
375.34323,375.43738,73,79,0
375.4394,375.5716,66,76,0
375.53552,375.66776,75,76,0
375.63168,375.7639,65,76,0
375.72784,375.86005,74,76,0
375.824,376.56717,66,76,0
375.92014,376.56717,75,76,0
376.59323,376.72543,66,76,0
376.68936,376.8216,75,76,0
376.78552,376.91772,65,76,0
376.88168,377.0139,74,76,0
376.97784,377.72504,66,76,0
377.07397,377.72504,75,76,0
377.74707,377.87927,66,76,0
377.84323,377.97543,75,76,0
377.93936,378.0716,65,76,0
378.03552,378.16772,74,76,0
378.13168,378.87888,66,76,0
378.22784,378.87888,75,76,0
378.9009,379.0331,63,76,0
378.9009,379.0331,72,76,0
378.99707,379.12927,75,77,0
379.0932,379.22543,62,78,0
379.0932,379.22543,71,78,0
379.18936,379.32156,74,78,0
379.28552,379.6441,63,79,0
379.28552,379.6441,72,79,0
379.38168,379.6441,75,80,0
379.67014,379.80234,71,83,0
379.67014,379.80234,62,83,0
379.7663,379.8985,74,83,0
379.86243,380.221,63,84,0
379.86243,380.221,72,84,0
379.9586,380.221,75,85,0
380.24704,380.37927,62,87,0
380.24704,380.37927,71,87,0
380.3432,380.47543,74,88,0
380.43936,380.57156,63,89,0
380.43936,380.57156,72,89,0
380.53552,380.60962,75,90,0
380.63165,380.7639,62,91,0
380.63165,380.7639,71,91,0
380.7278,380.86005,74,92,0
380.82397,380.95618,63,92,0
380.82397,380.95618,72,92,0
380.92014,380.99423,75,93,0
381.0163,381.11044,74,94,0
381.11243,381.20657,86,95,0
381.30475,381.3989,87,96,0
381.30475,381.3989,75,96,0
381.49704,381.5912,74,96,0
381.49704,381.5912,86,96,0
381.68936,381.7835,75,96,0
381.68936,381.7835,87,96,0
381.88165,381.9758,74,96,0
381.88165,381.9758,86,96,0
382.07397,382.16812,69,96,0
382.07397,382.16812,81,96,0
382.26627,382.3604,72,96,0
382.26627,382.3604,84,96,0
382.4586,382.55273,82,96,0
382.4586,382.55273,70,96,0
382.65088,382.74506,67,96,0
382.65088,382.74506,79,96,0
382.8432,382.93735,82,96,0
382.8432,382.93735,70,96,0
383.0355,383.12967,69,96,0
383.0355,383.12967,81,96,0
383.2278,383.32196,64,96,0
383.2278,383.32196,76,96,0
383.4201,383.51428,66,96,0
383.4201,383.51428,78,96,0
383.51627,384.33157,67,96,0
383.51627,384.33157,71,96,0
383.51627,384.33157,74,96,0
383.51627,384.33157,79,96,0
384.38165,384.58597,67,96,0
384.38165,384.58597,74,96,0
384.38165,384.58597,71,96,0
384.6701,384.95258,72,96,0
384.6701,384.99063,67,96,0
384.6701,384.99063,76,96,0
384.9586,385.21097,69,96,0
384.9586,385.21097,77,96,0
384.9586,385.21097,72,96,0
385.24704,385.52948,70,96,0
385.24704,385.52948,65,96,0
385.24704,385.7779,74,96,0
385.5355,385.7839,68,96,0
385.5355,385.7839,65,96,0
385.82394,385.94016,67,96,0
385.82394,385.94016,63,96,0
386.01627,386.13245,68,96,0
386.01627,386.13245,63,96,0
386.20856,386.32477,63,96,0
386.20856,386.32477,72,96,0
386.40088,386.51706,70,96,0
386.40088,386.51706,63,96,0
386.59317,386.70938,63,96,0
386.59317,386.70938,68,96,0
386.7855,386.90167,63,96,0
386.7855,386.90167,70,96,0
386.9778,387.094,63,96,0
386.9778,387.094,68,96,0
387.1701,387.2863,63,96,0
387.1701,387.2863,67,96,0
387.36243,387.4786,63,96,0
387.36243,387.4786,68,96,0
387.55472,387.6709,63,96,0
387.55472,387.6709,67,96,0
387.74704,387.86322,62,96,0
387.74704,387.86322,65,96,0
387.93933,388.0555,63,96,0
387.93933,388.0555,67,96,0
388.13165,388.24783,63,96,0
388.13165,388.24783,68,96,0
388.32394,388.44012,70,96,0
388.32394,388.44012,63,96,0
388.51627,388.63245,63,96,0
388.51627,388.63245,74,96,0
388.70856,388.82474,63,96,0
388.70856,388.82474,72,96,0
388.90088,389.01706,70,96,0
388.90088,389.01706,63,96,0
389.09317,389.20935,63,96,0
389.09317,389.20935,72,96,0
389.2855,389.40167,63,96,0
389.2855,389.40167,70,96,0
389.47778,389.59396,68,96,0
389.47778,389.59396,63,96,0
389.6701,389.7863,70,96,0
389.6701,389.7863,63,96,0
389.8624,389.97858,63,96,0
389.8624,389.97858,68,96,0
390.05472,390.1709,63,96,0
390.05472,390.1709,67,96,0
390.247,390.3632,70,96,0
390.247,390.3632,65,96,0
390.247,390.3632,74,96,0
390.43933,391.00424,66,96,0
390.43933,391.00424,78,96,0
390.43933,391.00424,70,96,0
391.01624,391.58115,73,96,0
391.01624,391.58115,65,96,0
391.01624,391.58115,77,96,0
391.59317,392.15808,75,96,0
391.59317,392.15808,65,96,0
391.59317,392.15808,77,96,0
392.17007,392.51263,65,96,0
392.17007,392.51263,77,96,0
392.17007,392.51263,74,96,0
392.5547,392.6709,70,96,0
392.5547,392.6709,65,96,0
392.5547,392.6709,74,96,0
392.747,393.31192,66,96,0
392.747,393.31192,70,96,0
392.747,393.31192,78,96,0
393.32394,393.88882,77,96,0
393.32394,393.88882,73,96,0
393.32394,393.88882,65,96,0
393.90085,394.46576,75,96,0
393.90085,394.46576,65,96,0
393.90085,394.46576,77,96,0
394.47778,394.8203,65,96,0
394.47778,394.8203,74,96,0
394.47778,394.8203,77,96,0
394.8624,394.97858,65,96,0
394.8624,394.97858,72,96,0
394.8624,394.97858,69,96,0
394.8624,394.97858,77,96,0
395.0547,395.6196,70,96,0
395.0547,395.6196,65,96,0
395.0547,395.6196,74,96,0
396.01624,396.13242,72,96,0
396.01624,396.13242,65,96,0
396.01624,396.13242,69,96,0
396.01624,396.13242,77,96,0
396.20853,396.77344,70,96,0
396.20853,396.77344,65,96,0
396.20853,396.77344,74,96,0
397.17007,397.28625,72,96,0
397.17007,397.28625,69,96,0
397.17007,397.28625,77,96,0
397.36237,397.47858,82,96,0
397.36237,397.47858,70,96,0
397.9393,398.05548,46,76,0
397.9393,398.05548,58,76,0
398.1316,398.2478,48,76,0
398.1316,398.2478,60,76,0
398.3239,399.07712,51,76,0
398.3239,399.07712,63,76,0
399.09314,399.20932,50,76,0
399.09314,399.20932,62,76,0
399.28546,399.40164,51,76,0
399.28546,399.40164,63,76,0
399.47775,400.23096,55,76,0
399.47775,400.23096,67,76,0
400.24698,400.36316,65,76,0
400.24698,400.36316,53,76,0
400.4393,400.55548,55,76,0
400.4393,400.55548,67,76,0
400.6316,400.74777,58,76,0
400.6316,400.74777,70,76,0
400.8239,400.9401,68,76,0
400.8239,400.9401,56,76,0
401.0162,401.1324,65,76,0
401.0162,401.1324,53,76,0
401.20853,401.3247,50,76,0
401.20853,401.3247,62,76,0
401.40082,401.517,58,76,0
401.40082,401.517,46,76,0
401.59314,401.70932,44,76,0
401.59314,401.70932,56,76,0
401.78543,401.9016,53,76,0
401.78543,401.9016,41,76,0
401.97775,402.2081,58,76,0
401.97775,402.2081,46,76,0
402.17004,402.40042,60,76,0
402.17004,402.40042,48,76,0
402.36237,402.5927,51,76,0
402.36237,402.5927,63,76,0
402.55466,402.78503,62,76,0
402.55466,402.78503,50,76,0
402.74698,402.97736,60,76,0
402.74698,402.97736,48,76,0
402.93927,403.16965,50,76,0
402.93927,403.16965,62,76,0
403.1316,403.36197,48,76,0
403.1316,403.36197,60,76,0
403.32388,403.55426,58,76,0
403.32388,403.55426,46,76,0
403.5162,403.74658,48,76,0
403.5162,403.74658,60,76,0
403.7085,403.93887,58,76,0
403.7085,403.93887,46,76,0
403.90082,404.1312,56,76,0
403.90082,404.1312,44,76,0
404.0931,404.25137,58,76,0
404.0931,404.25137,46,76,0
404.28543,404.5158,56,76,0
404.28543,404.5158,44,76,0
404.47772,404.7081,58,76,0
404.47772,404.7081,46,76,0
404.67004,404.90042,48,76,0
404.67004,404.90042,60,76,0
404.86234,405.0927,62,76,0
404.86234,405.0927,50,76,0
405.05466,405.28503,51,76,0
405.05466,405.28503,63,76,0
405.24698,405.4052,65,76,0
405.24698,405.4052,53,76,0
405.43927,405.66965,55,76,0
405.43927,405.66965,67,76,0
405.6316,405.86194,56,76,0
405.6316,405.86194,68,76,0
405.82388,406.05426,58,76,0
405.82388,406.05426,70,76,0
406.0162,406.24655,60,76,0
406.0162,406.24655,72,76,0
406.2085,406.43887,74,76,0
406.2085,406.43887,62,76,0
406.40082,406.55905,63,76,0
406.40082,406.55905,75,76,0
406.5931,406.7814,69,76,0
406.5931,406.7814,72,76,0
406.5931,407.44247,65,76,0
406.5931,407.44247,77,76,0
407.4585,407.74094,60,76,0
407.4585,407.74094,72,76,0
407.74695,408.02942,62,76,0
407.74695,408.02942,74,76,0
408.0354,408.31787,63,76,0
408.0354,408.31787,75,76,0
408.32388,408.42804,72,76,0
408.406,408.51016,74,76,0
408.48813,408.59232,72,76,0
408.57028,408.67444,74,76,0
408.6524,408.75656,72,76,0
408.73453,408.83868,71,76,0
408.32388,408.88876,60,76,0
408.81665,408.8988,72,76,0
408.9008,410.01056,67,76,0
408.9008,410.01056,79,76,0
410.05463,410.85593,65,76,0
410.05463,410.85593,77,76,0
410.82385,411.05423,75,76,0
410.82385,411.05423,63,76,0
411.01617,411.1644,62,76,0
411.01617,411.1644,74,76,0
411.4008,411.63116,58,76,0
411.4008,411.63116,70,76,0
411.5931,411.82346,60,77,0
411.5931,411.82346,72,77,0
411.7854,412.01578,62,78,0
411.7854,412.01578,74,78,0
411.97772,412.20807,63,79,0
411.97772,412.20807,75,79,0
412.17,412.32828,77,79,0
412.17,412.32828,65,79,0
412.36234,412.59268,79,80,0
412.36234,412.59268,67,80,0
412.55463,412.785,68,81,0
412.55463,412.785,80,81,0
412.74695,412.9773,70,82,0
412.74695,412.9773,82,82,0
412.93924,413.16962,72,83,0
412.93924,413.16962,84,83,0
413.13156,413.3619,74,84,0
413.13156,413.3619,86,84,0
413.32385,413.46808,87,84,0
413.32385,413.46808,75,84,0
413.70847,413.93884,68,86,0
413.70847,413.93884,56,86,0
413.9008,414.13113,58,87,0
413.9008,414.13113,70,87,0
414.09308,414.32346,60,88,0
414.09308,414.32346,72,88,0
414.2854,414.51575,62,89,0
414.2854,414.51575,74,89,0
414.4777,414.63596,63,90,0
414.4777,414.63596,75,90,0
414.67,414.90036,58,90,0
414.67,414.90036,70,90,0
414.8623,415.09268,62,91,0
414.8623,415.09268,74,91,0
415.05463,415.1708,63,92,0
415.05463,415.1708,75,92,0
415.24692,415.4773,58,93,0
415.24692,415.4773,70,93,0
415.43924,415.66962,74,94,0
415.43924,415.66962,62,94,0
415.63153,415.74774,63,95,0
415.63153,415.74774,75,95,0
415.82385,415.94003,87,95,0
415.82385,415.94003,75,95,0
416.01614,416.13235,85,96,0
416.01614,416.13235,73,96,0
416.20847,416.32465,82,96,0
416.20847,416.32465,70,96,0
416.40076,416.51697,67,96,0
416.40076,416.51697,79,96,0
416.59308,416.70926,63,96,0
416.59308,416.70926,75,96,0
416.78537,416.90158,73,96,0
416.78537,416.90158,61,96,0
416.9777,417.09387,70,96,0
416.9777,417.09387,58,96,0
417.16998,417.2862,55,96,0
417.16998,417.2862,67,96,0
417.3623,417.4785,63,96,0
417.3623,417.4785,51,96,0
417.55463,417.6708,49,96,0
417.55463,417.6708,61,96,0
417.74692,417.8631,58,96,0
417.74692,417.8631,46,96,0
417.93924,418.05542,55,96,0
417.93924,418.05542,43,96,0
418.13153,418.3619,51,96,0
418.32385,418.5542,52,96,0
418.51614,419.26935,56,96,0
419.28537,419.51175,51,96,0
419.4777,419.70404,52,96,0
419.66998,420.4232,56,96,0
420.82382,420.9821,71,102,0
420.82382,420.9821,59,102,0
420.82382,420.9821,64,102,0
421.40076,421.559,76,102,0
421.40076,421.559,68,102,0
421.40076,421.559,64,102,0
421.97766,422.13593,80,102,0
421.97766,422.13593,71,102,0
421.97766,422.13593,68,102,0
422.5546,422.71286,76,102,0
422.5546,422.71286,71,102,0
422.5546,422.71286,83,102,0
423.1315,423.2557,78,90,0
423.1315,423.2557,66,90,0
423.1315,423.2557,71,90,0
423.70844,423.83264,83,95,0
423.70844,423.83264,75,95,0
423.70844,423.83264,71,95,0
424.28537,424.40955,87,96,0
424.28537,424.40955,75,96,0
424.28537,424.40955,83,96,0
424.86227,424.98648,78,96,0
424.86227,424.98648,69,96,0
424.86227,424.98648,81,96,0
425.4392,425.5634,82,96,0
425.4392,425.5634,70,96,0
425.4392,425.5634,79,96,0
425.4392,425.5634,75,96,0
426.0161,426.14032,70,96,0
426.0161,426.14032,75,96,0
426.0161,426.14032,67,96,0
426.59305,426.71722,68,96,0
426.59305,426.71722,82,96,0
426.59305,426.71722,74,96,0
427.16995,427.29416,70,96,0
427.16995,427.29416,74,96,0
427.16995,427.29416,65,96,0
427.93918,428.5041,63,106,0
427.93918,428.5041,65,106,0
427.93918,428.5041,53,106,0
429.09302,429.65793,63,106,0
429.09302,429.65793,53,106,0
429.09302,429.65793,65,106,0
430.05457,430.21283,63,104,0
430.05457,430.21283,66,104,0
430.05457,430.21283,54,104,0
430.6315,430.78973,63,104,0
430.6315,430.78973,71,104,0
430.6315,430.78973,59,104,0
431.2084,431.36667,75,104,0
431.2084,431.36667,66,104,0
431.2084,431.36667,63,104,0
431.78534,431.94357,78,104,0
431.78534,431.94357,66,104,0
431.78534,431.94357,71,104,0
432.36224,432.47842,61,76,0
432.36224,432.47842,73,76,0
432.36224,432.47842,66,76,0
432.93918,433.05536,78,80,0
432.93918,433.05536,66,80,0
432.93918,433.05536,70,80,0
433.51608,433.6323,82,87,0
433.51608,433.6323,70,87,0
433.51608,433.6323,78,87,0
434.09302,434.2092,64,90,0
434.09302,434.2092,73,90,0
434.66992,434.79013,63,96,0
434.66992,434.79013,54,96,0
434.2853,434.85022,66,104,0
435.24686,435.36703,66,96,0
435.24686,435.36703,59,96,0
434.86224,435.41312,71,100,0
435.43915,435.85782,75,102,0
435.8238,435.94397,63,96,0
435.8238,435.97803,71,103,0
436.01608,436.43475,69,104,0
436.4007,436.5209,63,96,0
436.4007,436.5209,59,96,0
436.4007,436.55896,66,104,0
436.97763,437.0938,71,96,0
436.97763,437.0938,68,96,0
436.97763,437.0938,64,96,0
437.55453,437.67072,76,96,0
437.55453,437.67072,71,96,0
437.55453,437.67072,64,96,0
438.13147,438.24765,80,96,0
438.13147,438.24765,68,96,0
438.13147,438.24765,71,96,0
438.70837,438.82455,70,96,0
438.70837,438.82455,62,96,0
438.70837,438.82455,68,96,0
438.70837,438.82455,74,96,0
439.2853,439.4015,82,96,0
439.2853,439.4015,70,96,0
439.2853,439.4015,75,96,0
439.8622,439.97842,67,97,0
439.8622,439.97842,72,97,0
439.8622,439.97842,76,97,0
440.43915,440.55533,84,98,0
440.43915,440.55533,77,98,0
440.43915,440.55533,72,98,0
441.01605,441.13226,65,99,0
441.01605,441.13226,75,99,0
441.01605,441.13226,77,99,0
441.01605,441.13226,72,99,0
441.593,441.70917,87,100,0
441.593,441.70917,82,100,0
441.593,441.70917,75,100,0
441.593,441.70917,79,100,0
442.16992,442.2861,79,100,0
442.16992,442.2861,67,100,0
442.16992,442.2861,75,100,0
442.74683,442.863,80,100,0
442.74683,442.863,68,100,0
442.74683,442.863,74,100,0
442.74683,442.863,77,100,0
443.32376,443.43994,68,100,0
443.32376,443.43994,74,100,0
443.32376,443.43994,62,100,0
443.32376,443.43994,70,100,0
443.51605,443.70435,75,100,0
443.51605,443.70435,63,100,0
443.51605,443.70435,70,100,0
443.51605,443.70435,67,100,0
444.093,444.28128,91,100,0
444.093,444.28128,87,100,0
444.093,444.28128,82,100,0
444.093,444.28128,79,100,0
445.24683,445.43512,75,100,0
445.24683,445.43512,70,100,0
445.24683,445.43512,79,100,0
445.24683,445.43512,67,100,0
445.82373,447.14584,51,100,0
445.82373,447.14584,55,100,0
445.82373,447.14584,58,100,0
445.82373,447.14584,63,100,0
0.0,0.112179086,39,76,0
0.192307,0.3044861,41,76,0
0.384614,0.4967931,44,76,0
0.576921,0.6891001,43,76,0
0.769228,0.8814071,41,76,0
0.961535,1.0737141,43,76,0
1.153842,1.2660211,41,76,0
1.346149,1.4583281,39,76,0
1.538456,1.6506351,41,76,0
1.730763,1.8429421,39,76,0
1.92307,2.035249,34,76,0
2.115377,2.227556,39,76,0
2.307684,2.419863,41,76,0
2.499991,2.61217,43,76,0
2.692298,2.804477,46,76,0
2.884605,2.996784,44,76,0
3.076912,3.189091,43,76,0
3.269219,3.3813982,44,76,0
3.461526,3.5737052,43,76,0
3.653833,3.7660122,41,76,0
3.84614,3.9583192,43,76,0
4.038447,4.150626,41,76,0
4.230754,4.342933,39,76,0
4.423061,4.53524,46,76,0
4.615368,4.727547,51,76,0
4.807675,4.919854,50,76,0
4.999982,5.112161,51,76,0
5.192289,5.304468,50,76,0
5.384596,5.496775,45,76,0
5.576903,5.689082,48,76,0
5.76921,5.881389,46,76,0
5.961517,6.073696,43,76,0
6.153824,6.266003,46,76,0
6.346131,6.45831,45,76,0
6.538438,6.650617,40,76,0
6.730745,6.842924,42,76,0
6.923052,7.730341,43,96,0
6.923052,7.730341,47,96,0
6.923052,7.730341,50,96,0
6.923052,7.730341,55,96,0
7.7884336,7.9987693,55,96,0
7.7884336,7.9987693,62,96,0
7.7884336,7.9987693,59,96,0
8.076894,8.395403,60,96,0
8.076894,8.395403,48,96,0
8.076894,8.395403,55,96,0
8.076894,8.395403,52,96,0
8.365355,8.5937195,41,96,0
8.365355,8.5937195,53,96,0
8.653815,9.218717,56,96,0
8.653815,9.218717,58,96,0
8.653815,9.218717,46,96,0
8.653815,9.218717,53,96,0
9.230736,9.346922,39,96,0
9.230736,9.346922,51,96,0
9.423043,9.539228,53,96,0
9.423043,9.539228,41,96,0
9.61535,9.731536,44,96,0
9.61535,9.731536,56,96,0
9.807657,9.923842,55,96,0
9.807657,9.923842,43,96,0
9.999964,10.11615,53,96,0
9.999964,10.11615,41,96,0
10.192271,10.308456,43,96,0
10.192271,10.308456,55,96,0
10.384578,10.500764,41,96,0
10.384578,10.500764,53,96,0
10.576885,10.69307,39,96,0
10.576885,10.69307,51,96,0
10.769192,10.885378,53,96,0
10.769192,10.885378,41,96,0
10.961499,11.077684,39,96,0
10.961499,11.077684,51,96,0
11.153806,11.269992,34,96,0
11.153806,11.269992,46,96,0
11.346113,11.462298,39,96,0
11.346113,11.462298,51,96,0
11.53842,11.654606,41,96,0
11.53842,11.654606,53,96,0
11.730727,11.846912,43,96,0
11.730727,11.846912,55,96,0
11.923034,12.03922,58,96,0
11.923034,12.03922,46,96,0
12.115341,12.231526,44,96,0
12.115341,12.231526,56,96,0
12.307648,12.423834,55,96,0
12.307648,12.423834,43,96,0
12.499955,12.61614,44,96,0
12.499955,12.61614,56,96,0
12.692262,12.808448,55,96,0
12.692262,12.808448,43,96,0
12.884569,13.000754,41,96,0
12.884569,13.000754,53,96,0
13.076876,13.193062,43,96,0
13.076876,13.193062,55,96,0
13.269183,13.385368,41,96,0
13.269183,13.385368,53,96,0
13.46149,13.577676,51,96,0
13.46149,13.577676,39,96,0
13.653797,13.769982,46,96,0
13.653797,13.769982,58,96,0
13.846104,13.96229,63,96,0
13.846104,13.96229,51,96,0
14.038411,14.154596,62,96,0
14.038411,14.154596,50,96,0
14.230718,14.346904,63,96,0
14.230718,14.346904,51,96,0
14.423025,14.9879265,61,96,0
14.423025,14.9879265,49,96,0
14.999946,15.116132,47,96,0
14.999946,15.116132,59,96,0
15.192253,15.308438,58,96,0
15.192253,15.308438,46,96,0
15.38456,15.500746,59,96,0
15.38456,15.500746,47,96,0
15.576867,15.953468,58,96,0
15.576867,15.953468,46,96,0
15.961481,16.077667,46,96,0
15.961481,16.077667,34,96,0
16.153788,16.269974,51,96,0
16.153788,16.269974,39,96,0
16.346094,16.46228,50,96,0
16.346094,16.46228,38,96,0
16.538403,16.654587,51,96,0
16.538403,16.654587,39,96,0
16.73071,17.29561,49,96,0
16.73071,17.29561,37,96,0
17.30763,17.423815,47,96,0
17.30763,17.423815,35,96,0
17.499937,17.616123,46,96,0
17.499937,17.616123,34,96,0
17.692244,17.80843,47,96,0
17.692244,17.80843,35,96,0
17.88455,18.19705,46,96,0
17.88455,18.19705,34,96,0
18.269165,18.385351,41,96,0
18.269165,18.385351,53,96,0
18.461472,18.577658,46,96,0
18.461472,18.577658,58,96,0
18.653778,18.769964,57,96,0
18.653778,18.769964,45,96,0
18.846087,18.96227,58,96,0
18.846087,18.96227,46,96,0
19.038393,19.603294,44,96,0
19.038393,19.603294,56,96,0
19.615314,19.731499,54,96,0
19.615314,19.731499,42,96,0
19.807621,19.923807,53,96,0
19.807621,19.923807,41,96,0
19.999928,20.116114,54,96,0
19.999928,20.116114,42,96,0
20.192236,20.568836,53,96,0
20.192236,20.568836,41,96,0
20.576849,20.689028,41,96,0
20.576849,20.689028,29,96,0
20.769156,20.885342,34,96,0
20.769156,20.885342,46,96,0
20.961464,21.077648,45,96,0
20.961464,21.077648,33,96,0
21.15377,21.269955,46,96,0
21.15377,21.269955,34,96,0
21.346077,21.462263,32,96,0
21.346077,21.462263,44,96,0
21.538383,21.65457,43,96,0
21.538383,21.65457,31,96,0
21.730692,21.846876,44,96,0
21.730692,21.846876,32,96,0
21.922998,22.039183,42,96,0
21.922998,22.039183,30,96,0
22.115305,22.231491,24,96,0
22.307611,22.423798,42,96,0
22.307611,22.423798,30,96,0
22.49992,22.616104,24,96,0
22.692226,22.80841,30,96,0
22.692226,22.80841,42,96,0
22.884533,23.00072,24,96,0
23.07684,23.193026,41,96,0
23.07684,23.193026,29,96,0
23.65376,23.769947,53,76,0
23.846067,23.962254,55,76,0
24.038376,24.791578,58,76,0
24.807604,24.923788,57,76,0
24.99991,25.116095,58,76,0
25.192217,25.94542,62,76,0
25.961445,26.077631,60,76,0
26.153751,26.269938,62,76,0
26.34606,26.462244,65,76,0
26.538366,26.65455,63,76,0
26.730673,26.846859,60,76,0
26.92298,27.039165,57,76,0
27.115288,27.231472,53,76,0
27.307594,27.423779,51,76,0
27.4999,27.616087,48,76,0
27.692207,29.963835,34,76,0
27.692207,29.963835,46,76,0
29.999891,32.27152,34,76,0
29.999891,32.27152,46,76,0
32.307575,33.42536,34,78,0
32.307575,33.42536,46,78,0
33.46142,34.56518,34,81,0
33.46142,34.56518,46,81,0
34.61526,34.845627,46,76,0
34.61526,34.845627,54,76,0
34.807568,34.96582,58,76,0
35.19218,35.42255,42,77,0
35.19218,35.42255,49,77,0
35.384487,35.54274,54,77,0
35.7691,35.99947,37,78,0
35.7691,35.99947,46,78,0
35.96141,36.119663,49,79,0
36.346024,36.57639,42,80,0
36.346024,36.57639,34,80,0
36.53833,36.696583,46,80,0
36.922943,37.153313,41,81,0
36.922943,37.153313,50,81,0
37.11525,37.273502,53,81,0
37.499866,37.730232,29,82,0
37.692173,37.850426,41,83,0
38.076786,38.307156,41,84,0
38.076786,38.307156,48,84,0
38.269093,38.427345,53,84,0
38.653706,38.884075,29,85,0
38.846012,39.004265,41,86,0
39.23063,39.460995,42,86,0
39.23063,39.460995,34,86,0
39.422935,39.58119,46,87,0
39.80755,40.037918,37,88,0
39.80755,40.037918,46,88,0
39.999855,40.158108,49,88,0
40.38447,40.614838,49,89,0
40.38447,40.614838,42,89,0
40.57678,40.73503,54,90,0
40.96139,41.191757,54,91,0
40.96139,41.191757,46,91,0
41.153698,41.31195,58,91,0
41.53831,41.76868,50,92,0
41.53831,41.76868,41,92,0
41.730618,41.88887,53,92,0
42.115234,42.303535,53,93,0
42.115234,42.30754,58,93,0
42.30754,42.465794,62,94,0
42.692154,42.922523,48,95,0
42.692154,42.922523,41,95,0
42.88446,43.042713,53,95,0
43.269073,43.499443,53,96,0
43.269073,43.499443,60,96,0
43.461384,43.619637,63,97,0
43.845997,43.96218,46,96,0
43.845997,43.96218,56,96,0
43.845997,43.96218,62,96,0
43.845997,43.96218,53,96,0
53.076733,53.68971,42,76,0
53.076733,53.68971,54,76,0
53.653652,54.266632,43,78,0
53.653652,54.266632,55,78,0
54.230576,54.84355,44,81,0
54.230576,54.84355,56,81,0
54.807495,55.095955,45,76,0
54.807495,55.095955,57,76,0
55.384415,55.949318,30,76,0
55.384415,55.949318,42,76,0
55.961338,56.526237,32,80,0
55.961338,56.526237,44,80,0
56.538258,57.10316,37,85,0
56.538258,57.10316,49,85,0
57.115177,57.49178,51,90,0
57.115177,57.49178,39,90,0
57.499794,57.61598,32,93,0
57.499794,57.61598,44,93,0
57.6921,58.493378,37,95,0
57.6921,58.493378,44,95,0
57.6921,58.493378,49,95,0
58.55748,58.76782,61,96,0
58.55748,58.76782,49,96,0
58.845943,59.160442,54,96,0
58.845943,59.160442,42,96,0
59.134403,59.37679,47,96,0
59.134403,59.37679,35,96,0
59.422863,59.987766,40,96,0
59.422863,59.987766,52,96,0
59.999783,60.11597,37,76,0
60.192093,60.308277,44,76,0
60.3844,60.500584,49,76,0
60.96132,61.077503,52,76,0
61.153625,61.464123,51,76,0
61.442085,61.69449,44,76,0
61.73055,62.241364,49,76,0
62.30747,62.61796,54,96,0
62.30747,62.61796,42,96,0
62.59593,62.85434,35,96,0
62.59593,62.85434,47,96,0
62.884388,63.44929,40,96,0
62.884388,63.44929,52,96,0
63.46131,63.771805,51,76,0
63.74977,64.0162,44,76,0
64.03823,64.53503,49,76,0
64.61515,64.93566,54,76,0
64.90361,65.15201,47,76,0
65.19207,65.51258,52,76,0
65.48053,65.72893,56,76,0
65.769,66.08951,51,76,0
66.05746,66.305855,44,76,0
66.34592,66.66643,49,76,0
66.63438,66.882774,52,76,0
66.92284,67.24335,47,76,0
67.211296,67.459694,40,76,0
67.499756,67.82027,42,76,0
67.788216,68.03661,54,76,0
68.076675,68.39719,52,76,0
68.365135,68.61353,49,76,0
68.6536,68.97411,42,76,0
68.94206,69.19045,54,76,0
69.23052,69.51297,47,76,0
69.80744,69.92563,35,76,0
69.903595,70.02178,40,76,0
69.99975,70.117935,47,76,0
70.0959,70.21409,52,76,0
70.192055,70.31024,56,76,0
70.28821,70.406395,59,76,0
70.38436,70.57266,54,76,0
70.38436,70.57266,47,76,0
70.96128,71.079475,30,76,0
71.057434,71.17563,35,76,0
71.15359,71.27178,42,76,0
71.24974,71.367935,47,76,0
71.345894,71.46409,51,76,0
71.44205,71.56024,54,76,0
71.5382,71.7265,42,76,0
72.11513,72.233315,30,76,0
72.21128,72.32947,37,76,0
72.307434,72.42562,42,76,0
72.40359,72.521774,46,76,0
72.49974,72.61793,49,76,0
72.595894,72.71408,54,76,0
72.69205,72.88035,42,76,0
73.26897,73.38715,35,76,0
73.36512,73.48331,42,76,0
73.46127,73.57946,47,76,0
73.55743,73.67561,51,76,0
73.65358,73.77177,54,76,0
73.74973,73.86792,59,76,0
73.84589,74.03419,47,76,0
74.422806,74.541,35,76,0
74.51896,74.63715,40,76,0
74.61511,74.73331,47,76,0
74.71127,74.82946,52,76,0
74.80743,74.92561,56,76,0
74.90358,75.02177,59,76,0
74.99973,75.188034,47,76,0
75.57665,75.69484,35,76,0
75.672806,75.79099,42,76,0
75.76896,75.887146,47,76,0
75.86511,75.9833,51,76,0
75.961266,76.07945,54,76,0
76.05742,76.175606,59,76,0
76.15357,76.34187,47,76,0
76.73049,76.84868,35,76,0
76.826645,76.94483,40,76,0
76.9228,77.040985,47,76,0
77.01895,77.13714,52,76,0
77.115105,77.2333,56,76,0
77.21126,77.32945,59,76,0
77.30741,77.49571,47,76,0
78.46126,78.57744,35,76,0
78.653564,78.769745,42,76,0
78.84587,78.96206,47,76,0
79.03818,79.154366,51,76,0
79.230484,79.34667,54,76,0
79.42279,79.53898,42,84,0
79.42279,79.53898,30,84,0
79.6151,79.731285,33,76,0
79.8074,79.92359,40,76,0
79.99971,80.1159,45,76,0
80.19202,80.308205,49,76,0
80.38432,80.50051,52,76,0
80.57663,80.69282,28,84,0
80.57663,80.69282,40,84,0
80.76894,80.885124,31,76,0
80.96125,81.07743,38,76,0
81.15356,81.26974,43,76,0
81.34586,81.46204,47,76,0
81.53817,81.65435,50,76,0
81.73048,81.84666,38,84,0
81.73048,81.84666,26,84,0
81.92278,82.03897,30,76,0
82.11509,82.23128,37,80,0
82.307396,82.423584,42,85,0
82.4997,82.61589,49,89,0
82.69201,82.8082,54,85,0
82.884315,83.0005,42,81,0
83.07662,83.19281,35,76,0
83.26893,83.38512,42,76,0
83.461235,83.57742,47,76,0
83.65354,83.76973,51,76,0
83.845856,83.962036,54,76,0
84.03816,84.15434,30,84,0
84.03816,84.15434,42,84,0
84.23047,84.34665,33,76,0
84.422775,84.538956,40,76,0
84.61508,84.73126,45,76,0
84.80739,84.92357,49,76,0
84.999695,85.11588,52,76,0
85.192,85.30819,40,84,0
85.192,85.30819,28,84,0
85.38431,85.500496,31,76,0
85.576614,85.6928,38,76,0
85.76892,85.88511,43,76,0
85.96123,86.077415,47,76,0
86.153534,86.26972,50,76,0
86.34584,86.46203,38,84,0
86.34584,86.46203,26,84,0
86.53815,86.654335,30,76,0
86.73045,86.84664,37,79,0
86.92277,87.03895,42,84,0
87.115074,87.231255,49,88,0
87.30738,87.42356,54,88,0
87.49969,87.61587,42,82,0
87.69199,87.808174,35,76,0
87.8843,88.00049,42,76,0
88.07661,88.192795,47,76,0
88.26891,88.3851,51,76,0
88.46122,88.57741,54,76,0
88.65353,88.769714,30,76,0
88.65353,88.769714,42,76,0
88.84583,88.96202,34,76,0
89.03814,89.15433,42,76,0
89.230446,89.346634,46,76,0
89.42275,89.53894,51,76,0
89.61506,89.73125,54,76,0
89.807365,89.92355,30,76,0
89.807365,89.92355,42,76,0
89.99968,90.11586,33,76,0
90.191986,90.30817,42,76,0
90.38429,90.50047,45,76,0
90.5766,90.69278,51,76,0
90.768906,90.885086,54,76,0
90.96121,91.0774,39,76,0
90.96121,91.0774,27,76,0
91.15352,91.26971,44,76,0
91.15352,91.26971,32,76,0
91.53813,91.65432,51,79,0
91.53813,91.65432,60,79,0
91.53813,91.65432,56,79,0
91.73044,91.84663,31,81,0
91.73044,91.84663,43,81,0
92.11505,92.23124,51,84,0
92.11505,92.23124,60,84,0
92.11505,92.23124,55,84,0
92.30736,92.423546,27,86,0
92.30736,92.423546,39,86,0
92.69197,92.80816,51,89,0
92.69197,92.80816,60,89,0
92.69197,92.80816,55,89,0
92.88428,93.000465,24,91,0
92.88428,93.000465,36,91,0
93.2689,93.38508,62,94,0
93.2689,93.38508,50,94,0
93.461205,93.577385,63,96,0
93.461205,93.577385,51,96,0
93.65351,93.76969,50,96,0
93.65351,93.76969,62,96,0
93.84582,93.962,63,96,0
93.84582,93.962,51,96,0
94.038124,94.15431,50,96,0
94.038124,94.15431,62,96,0
94.23043,94.34662,45,96,0
94.23043,94.34662,57,96,0
94.42274,94.538925,60,96,0
94.42274,94.538925,48,96,0
94.61504,94.73123,46,96,0
94.61504,94.73123,58,96,0
94.80735,94.92354,55,96,0
94.80735,94.92354,43,96,0
94.99966,95.115845,58,96,0
94.99966,95.115845,46,96,0
95.19196,95.30815,57,96,0
95.19196,95.30815,45,96,0
95.38427,95.50046,40,96,0
95.38427,95.50046,52,96,0
95.57658,95.692764,54,96,0
95.57658,95.692764,42,96,0
95.76888,96.58419,43,96,0
95.76888,96.58419,47,96,0
95.76888,96.58419,50,96,0
95.76888,96.58419,55,96,0
96.63427,96.83859,59,96,0
96.63427,96.83859,62,96,0
96.63427,96.83859,55,96,0
96.92273,97.24324,48,96,0
96.92273,97.24324,55,96,0
96.92273,97.24324,60,96,0
97.21119,97.46359,53,96,0
97.21119,97.46359,41,96,0
97.49965,98.030495,58,96,0
97.49965,98.030495,46,96,0
97.49965,98.030495,56,96,0
97.49965,98.030495,53,96,0
98.07657,98.19276,39,96,0
98.07657,98.19276,51,96,0
98.268875,98.38506,53,96,0
98.268875,98.38506,41,96,0
98.46118,98.57737,56,96,0
98.46118,98.57737,44,96,0
98.65349,98.76968,55,96,0
98.65349,98.76968,43,96,0
98.845795,98.96198,53,96,0
98.845795,98.96198,41,96,0
99.0381,99.15429,55,96,0
99.0381,99.15429,43,96,0
99.230415,99.346596,53,96,0
99.230415,99.346596,41,96,0
99.42272,99.5389,51,96,0
99.42272,99.5389,39,96,0
99.61503,99.73121,53,96,0
99.61503,99.73121,41,96,0
99.807335,99.923515,51,96,0
99.807335,99.923515,39,96,0
99.99964,100.11582,46,96,0
99.99964,100.11582,34,96,0
100.19195,100.308136,39,96,0
100.19195,100.308136,51,96,0
100.384254,100.50044,41,96,0
100.384254,100.50044,53,96,0
100.57656,100.69275,43,96,0
100.57656,100.69275,55,96,0
100.76887,100.885056,58,96,0
100.76887,100.885056,46,96,0
100.961174,101.07736,56,96,0
100.961174,101.07736,44,96,0
101.15348,101.26967,55,96,0
101.15348,101.26967,43,96,0
101.34579,101.461975,56,96,0
101.34579,101.461975,44,96,0
101.53809,101.65428,43,96,0
101.53809,101.65428,55,96,0
101.7304,101.84659,41,96,0
101.7304,101.84659,53,96,0
101.92271,102.038895,55,96,0
101.92271,102.038895,43,96,0
102.11502,102.2312,53,96,0
102.11502,102.2312,41,96,0
102.30733,102.42351,51,96,0
102.30733,102.42351,39,96,0
102.49963,102.615814,46,96,0
102.49963,102.615814,58,96,0
102.69194,102.80812,63,96,0
102.69194,102.80812,51,96,0
102.88425,103.00043,62,96,0
102.88425,103.00043,50,96,0
103.07655,103.19273,63,96,0
103.07655,103.19273,51,96,0
103.26886,103.83376,61,96,0
103.26886,103.83376,49,96,0
103.84578,103.96197,47,96,0
103.84578,103.96197,59,96,0
104.038086,104.154274,58,96,0
104.038086,104.154274,46,96,0
104.23039,104.34658,47,96,0
104.23039,104.34658,59,96,0
104.4227,104.76525,46,96,0
104.4227,104.76525,58,96,0
104.80731,104.9235,34,96,0
104.80731,104.9235,46,96,0
104.99962,105.11581,51,96,0
104.99962,105.11581,39,96,0
105.19193,105.30811,50,96,0
105.19193,105.30811,38,96,0
105.38424,105.50042,51,96,0
105.38424,105.50042,39,96,0
105.576546,106.14144,49,96,0
105.576546,106.14144,37,96,0
106.153465,106.269646,47,96,0
106.153465,106.269646,35,96,0
106.34577,106.46196,46,96,0
106.34577,106.46196,34,96,0
106.53808,106.65427,47,96,0
106.53808,106.65427,35,96,0
106.730385,107.07293,34,96,0
106.730385,107.07293,46,96,0
107.115,107.231186,41,96,0
107.115,107.231186,53,96,0
107.307304,107.42349,46,96,0
107.307304,107.42349,58,96,0
107.49961,107.6158,45,96,0
107.49961,107.6158,57,96,0
107.69192,107.808105,58,96,0
107.69192,107.808105,46,96,0
108.268845,108.385025,41,96,0
108.268845,108.385025,29,96,0
108.46115,108.57733,46,96,0
108.46115,108.57733,34,96,0
108.65346,108.76964,33,96,0
108.65346,108.76964,45,96,0
108.845764,108.961945,46,96,0
108.845764,108.961945,34,96,0
109.42268,109.53887,41,96,0
109.42268,109.53887,53,96,0
109.61499,109.73118,46,96,0
109.61499,109.73118,34,96,0
114.230354,116.50399,27,76,0
114.230354,116.50399,39,76,0
116.53804,118.81167,27,76,0
116.53804,118.81167,39,76,0
118.845726,121.12937,27,76,0
118.845726,121.12937,39,76,0
121.15341,122.26318,39,76,0
121.15341,122.26318,51,76,0
122.30725,123.10853,38,76,0
122.30725,123.10853,50,76,0
123.07648,123.30685,36,76,0
123.07648,123.30685,48,76,0
123.26878,123.41702,46,76,0
123.26878,123.41702,34,76,0
123.4611,124.58088,32,76,0
123.4611,124.58088,44,76,0
124.61494,125.42022,31,80,0
124.61494,125.42022,43,80,0
125.38416,125.61453,29,84,0
125.38416,125.61453,41,84,0
125.57647,125.7207,27,84,0
125.57647,125.7207,39,84,0
125.768776,126.56405,43,85,0
125.768776,126.56405,55,85,0
126.53801,126.76837,53,89,0
126.53801,126.76837,41,89,0
126.730316,126.888565,39,90,0
126.730316,126.888565,51,90,0
126.92262,127.152985,55,90,0
126.92262,127.152985,43,90,0
127.11493,127.34529,53,91,0
127.11493,127.34529,41,91,0
127.307236,127.423416,39,92,0
127.307236,127.423416,51,92,0
127.49954,127.72991,55,93,0
127.49954,127.72991,43,93,0
127.69185,127.92222,53,94,0
127.69185,127.92222,41,94,0
127.884155,128.00034,51,95,0
127.884155,128.00034,39,95,0
128.07646,128.19264,39,95,0
128.07646,128.19264,27,95,0
130.38414,130.61452,39,96,0
130.38414,130.61452,27,96,0
130.57645,130.80682,40,96,0
130.57645,130.80682,28,96,0
130.76875,131.52196,32,96,0
130.76875,131.52196,44,96,0
131.538,131.76434,39,96,0
131.538,131.76434,27,96,0
131.7303,131.95665,40,96,0
131.7303,131.95665,28,96,0
131.9226,132.67581,32,96,0
131.9226,132.67581,44,96,0
132.69183,132.9222,39,96,0
132.69183,132.9222,27,96,0
132.88414,133.1145,40,96,0
132.88414,133.1145,28,96,0
133.07645,133.2347,44,96,0
133.07645,133.2347,32,96,0
133.26875,133.49911,43,96,0
133.26875,133.49911,31,96,0
133.46106,133.69142,44,96,0
133.46106,133.69142,32,96,0
133.65337,133.81161,47,96,0
133.65337,133.81161,35,96,0
133.84567,134.07603,46,96,0
133.84567,134.07603,34,96,0
134.03798,134.26834,47,96,0
134.03798,134.26834,35,96,0
134.23029,134.38853,40,96,0
134.23029,134.38853,52,96,0
134.42259,134.65295,51,96,0
134.42259,134.65295,39,96,0
134.6149,134.84526,40,96,0
134.6149,134.84526,52,96,0
134.8072,134.96545,44,96,0
134.8072,134.96545,56,96,0
134.99951,135.22989,54,90,0
134.99951,135.22989,51,90,0
134.99951,135.22989,59,90,0
135.19182,135.35007,63,90,0
135.57643,135.80681,54,91,0
135.57643,135.80681,47,91,0
135.76874,135.927,59,93,0
136.15335,136.38373,42,96,0
136.15335,136.38373,51,96,0
136.34566,136.50392,54,96,0
136.73027,136.96065,47,96,0
136.73027,136.96065,39,96,0
136.92258,137.08084,51,96,0
137.3072,137.53757,34,96,0
137.49951,137.65776,46,96,0
137.88412,138.11449,55,96,0
137.88412,138.11449,51,96,0
137.88412,138.11449,46,96,0
138.07643,138.23468,58,96,0
138.46104,138.6914,41,96,0
138.46104,138.6914,34,96,0
138.65335,138.8116,46,96,0
139.03796,139.26833,53,96,0
139.03796,139.26833,46,96,0
139.23027,139.38852,58,96,0
139.61488,139.84525,34,96,0
139.61488,139.84525,46,96,0
139.80719,140.03755,47,96,0
139.80719,140.03755,35,96,0
139.9995,140.7527,39,96,0
139.9995,140.7527,51,96,0
140.76872,140.99908,34,96,0
140.76872,140.99908,46,96,0
140.96103,141.1914,35,96,0
140.96103,141.1914,47,96,0
141.15334,141.90654,39,96,0
141.15334,141.90654,51,96,0
141.92256,142.15294,46,96,0
141.92256,142.15294,34,96,0
142.11487,142.34525,35,96,0
142.11487,142.34525,47,96,0
142.30717,142.46544,39,96,0
142.30717,142.46544,51,96,0
142.49948,142.72986,50,96,0
142.49948,142.72986,38,96,0
142.69179,142.92216,51,96,0
142.69179,142.92216,39,96,0
142.8841,143.04236,54,96,0
142.8841,143.04236,42,96,0
143.0764,143.30678,53,96,0
143.0764,143.30678,41,96,0
143.26872,143.49908,54,96,0
143.26872,143.49908,42,96,0
143.46103,143.61928,47,96,0
143.46103,143.61928,59,96,0
143.65334,143.8837,58,96,0
143.65334,143.8837,46,96,0
143.84564,144.076,59,96,0
143.84564,144.076,47,96,0
144.03795,144.1962,51,96,0
144.03795,144.1962,63,96,0
144.23026,144.46062,46,76,0
144.23026,144.46062,49,76,0
144.23026,144.46062,54,76,0
144.42256,144.58081,58,76,0
144.80717,145.03754,49,76,0
144.80717,145.03754,42,76,0
144.99948,145.15773,54,77,0
145.3841,145.61446,46,82,0
145.3841,145.61446,37,82,0
145.5764,145.73465,49,85,0
145.96101,146.19138,34,90,0
145.96101,146.19138,42,90,0
146.15332,146.31157,46,90,0
146.53793,146.7683,42,96,0
146.53793,146.7683,35,96,0
146.73024,146.88849,47,96,0
147.11485,147.34523,42,96,0
147.11485,147.34523,39,96,0
147.30716,147.46541,51,96,0
147.69177,147.92215,42,96,0
147.69177,147.92215,47,96,0
147.88408,148.04234,54,96,0
148.26869,148.49907,54,96,0
148.26869,148.49907,47,96,0
148.461,148.61926,57,96,0
148.84561,149.07599,47,96,0
148.84561,149.07599,56,96,0
148.84561,149.07599,52,96,0
149.03792,149.19618,59,96,0
149.42255,149.65291,52,96,0
149.42255,149.65291,44,96,0
149.61485,149.7731,56,96,0
149.99947,150.22983,47,96,0
149.99947,150.22983,40,96,0
150.19177,150.35002,52,96,0
150.57639,150.80675,41,96,0
150.57639,150.80675,46,96,0
150.76869,150.92694,53,96,0
151.1533,151.38367,51,96,0
151.1533,151.38367,43,96,0
151.34561,151.50386,55,96,0
151.73022,151.96059,46,97,0
151.73022,151.96059,48,97,0
151.92253,152.08078,58,97,0
152.30714,152.5375,44,98,0
152.30714,152.5375,53,98,0
152.49945,152.6577,56,98,0
152.88406,153.11443,53,99,0
152.88406,153.11443,45,99,0
153.07637,153.23462,57,99,0
153.46098,153.69136,51,100,0
153.46098,153.69136,55,100,0
153.46098,153.69136,46,100,0
153.65329,153.81154,58,100,0
154.0379,154.26828,67,100,0
154.0379,154.26828,63,100,0
154.0379,154.26828,58,100,0
154.23021,154.38847,70,100,0
154.61482,154.8452,53,100,0
154.61482,154.8452,46,100,0
154.80713,154.9654,58,100,0
155.19174,155.42212,34,100,0
155.19174,155.42212,41,100,0
155.38405,155.54231,46,100,0
155.76868,155.95697,51,100,0
155.76868,155.95697,39,100,0
155.76868,155.95697,46,100,0
156.3456,156.53389,67,100,0
156.3456,156.53389,63,100,0
156.3456,156.53389,58,100,0
156.3456,156.53389,55,100,0
157.49944,157.68773,51,100,0
157.49944,157.68773,63,100,0
157.49944,157.68773,58,100,0
158.07635,159.40648,27,100,0
158.07635,159.40648,39,100,0
164.0106,164.4601,75,76,0
164.0106,164.4601,63,76,0
164.38446,164.849,61,76,0
164.38446,164.849,73,76,0
164.77036,165.25171,70,76,0
164.77036,165.25171,58,76,0
165.17036,165.6678,55,76,0
165.17036,165.6678,67,76,0
165.58418,166.09795,51,76,0
165.58418,166.09795,63,76,0
166.01128,166.54176,61,76,0
166.01128,166.54176,49,76,0
166.45247,166.9991,46,76,0
166.45247,166.9991,58,76,0
166.90704,167.47008,43,76,0
166.90704,167.47008,55,76,0
167.37582,167.95319,51,76,0
167.37582,167.95319,39,76,0
167.85585,168.45154,49,76,0
167.85585,168.45154,37,76,0
168.35176,168.74275,34,76,0
168.35176,168.74275,46,76,0
168.86026,170.35065,44,76,0
168.86026,170.35065,32,76,0
170.39873,173.41154,32,76,0
170.39873,173.41154,44,76,0
173.47565,174.96603,32,76,0
175.0141,176.50449,44,76,0
175.0141,176.50449,32,76,0
176.55257,179.56538,32,76,0
176.55257,179.56538,44,76,0
179.62949,181.0985,32,76,0
181.16795,182.65833,46,76,0
181.16795,182.65833,34,76,0
182.7064,185.71922,34,76,0
185.78333,187.19893,34,76,0
187.3218,188.8282,51,76,0
187.3218,188.90298,55,76,0
187.3218,188.90298,58,76,0
187.3218,188.90298,61,76,0
188.86024,189.36238,59,76,0
188.86024,189.36238,56,76,0
188.86024,189.36238,51,76,0
189.88588,190.34529,44,76,0
189.88588,190.34529,32,76,0
190.39871,191.45105,63,76,0
190.39871,191.45105,66,76,0
191.42435,191.87306,64,76,0
191.42435,191.87306,61,76,0
190.39871,191.8784,56,76,0
191.93716,192.69037,61,76,0
191.93716,192.69037,58,76,0
191.93716,193.41687,56,76,0
193.47563,194.4799,64,76,0
193.47563,194.4799,61,76,0
193.47563,194.4799,56,76,0
194.50127,195.0034,44,76,0
194.50127,195.0034,32,76,0
195.01408,195.591,61,76,0
195.01408,195.591,58,76,0
195.5269,196.10384,63,76,0
195.5269,196.10384,59,76,0
195.01408,196.46707,56,76,0
196.03972,196.48845,61,76,0
196.03972,196.48845,64,76,0
196.55255,197.6316,68,76,0
196.55255,197.6316,64,76,0
196.55255,198.02156,56,76,0
197.57819,198.03758,66,76,0
197.57819,198.03758,63,76,0
198.091,199.06323,56,76,0
198.091,199.06323,63,76,0
198.091,199.06323,59,76,0
199.11665,199.57071,56,76,0
199.11665,199.57071,63,76,0
199.11665,199.57071,66,76,0
199.62947,200.63374,66,76,0
199.62947,200.63374,63,76,0
199.62947,200.63374,58,76,0
200.6551,201.15724,34,76,0
200.6551,201.15724,46,76,0
201.16792,201.72882,63,76,0
201.16792,201.72882,66,76,0
201.68074,202.24164,68,79,0
201.68074,202.24164,65,79,0
201.16792,202.67433,58,76,0
202.19357,202.67967,66,81,0
202.19357,202.67967,70,81,0
202.7331,203.23523,68,83,0
203.21921,203.23523,68,84,0
202.7331,203.29399,71,83,0
203.22989,203.73203,65,84,0
203.73203,204.20212,62,83,0
202.7331,204.2128,58,83,0
204.24484,204.74698,65,81,0
204.24484,204.80574,68,81,0
204.24484,205.24911,58,81,0
204.75766,205.2598,65,79,0
204.75766,205.31856,62,79,0
205.2705,205.74057,58,77,0
205.2705,205.74057,46,77,0
205.78331,207.28972,61,76,0
205.78331,207.28972,51,76,0
205.78331,207.28972,58,76,0
205.78331,207.28972,55,76,0
207.32176,209.91258,44,76,0
207.32176,209.91258,56,76,0
209.88586,210.47346,37,76,0
209.88586,210.47346,49,76,0
210.39868,211.48843,56,76,0
210.39868,211.48843,44,76,0
211.42433,212.01193,37,76,0
211.42433,212.01193,49,76,0
211.93715,213.39548,56,77,0
211.93715,213.39548,44,77,0
211.93715,213.39548,52,77,0
213.4756,216.05573,45,79,0
213.4756,216.05573,57,79,0
216.0397,216.6006,38,82,0
216.0397,216.6006,50,82,0
216.55252,217.61555,57,83,0
216.55252,217.61555,45,83,0
217.57817,218.04825,50,84,0
217.57817,218.04825,38,84,0
218.09099,219.6882,45,84,0
218.09099,219.6882,57,84,0
218.09099,220.71385,53,84,0
219.62944,220.7192,58,86,0
219.62944,220.7192,46,86,0
220.65509,221.10915,51,88,0
220.65509,221.10915,39,88,0
221.16791,222.76512,46,88,0
221.16791,222.76512,58,88,0
222.70636,223.79611,47,90,0
222.70636,223.79611,59,90,0
221.16791,223.80145,54,88,0
223.73201,224.18607,52,91,0
223.73201,224.18607,40,91,0
224.24483,225.75124,52,92,0
224.24483,225.84204,47,92,0
224.24483,225.84204,59,92,0
225.78328,227.38051,40,94,0
225.78328,227.38051,52,94,0
227.32175,228.82816,46,94,0
227.32175,228.91896,41,94,0
227.32175,228.91896,53,94,0
228.8602,230.33456,46,85,0
228.8602,230.33456,34,85,0
230.39867,231.90508,51,80,0
230.39867,231.90508,61,80,0
230.39867,231.90508,58,80,0
230.39867,231.90508,55,80,0
231.93712,232.49802,51,76,0
231.93712,232.49802,44,76,0
231.93712,232.49802,59,76,0
232.44995,233.01085,61,76,0
232.44995,233.01085,58,76,0
232.96277,233.43285,63,76,0
232.96277,233.43285,59,76,0
233.47559,234.55464,63,76,0
233.47559,234.55464,66,76,0
233.47559,234.96597,56,76,0
234.50122,234.98734,64,76,0
234.50122,234.98734,61,76,0
235.01405,236.47238,56,76,0
235.01405,236.47238,61,76,0
235.01405,236.47238,58,76,0
236.5525,237.55678,64,76,0
236.5525,237.55678,56,76,0
236.5525,237.55678,61,76,0
237.57814,238.04823,44,76,0
238.09097,238.65186,58,76,0
238.09097,238.65186,61,76,0
238.09097,239.09525,56,76,0
238.60379,239.16469,63,76,0
238.60379,239.16469,60,76,0
239.11661,239.58669,56,76,0
239.11661,239.58669,64,76,0
239.11661,239.58669,61,76,0
239.62943,240.69246,64,76,0
239.62943,240.69246,68,76,0
239.62943,241.10379,56,76,0
240.65506,241.12515,66,76,0
240.65506,241.12515,63,76,0
241.1679,242.12408,63,76,0
241.1679,242.12408,56,76,0
241.1679,242.12408,60,76,0
242.19353,242.69566,56,76,0
242.19353,242.69566,63,76,0
242.19353,242.69566,66,76,0
242.96275,243.27258,56,76,0
243.21916,243.52899,68,76,0
243.47557,243.7854,56,76,0
243.73198,244.04181,68,77,0
243.9884,244.23947,56,77,0
244.50122,244.81105,44,78,0
244.75763,245.06746,56,79,0
245.01404,245.32387,44,79,0
245.27045,245.58028,56,79,0
245.52686,245.77792,44,80,0
246.03967,246.3495,32,81,0
246.29608,246.60591,44,81,0
246.55249,246.86232,32,81,0
246.8089,247.11873,44,82,0
247.06532,247.37514,32,82,0
247.32173,247.63156,44,83,0
247.57814,247.88797,32,83,0
247.83455,248.14438,44,84,0
248.09096,248.40079,32,84,0
248.34737,248.6572,44,84,0
248.60378,248.85484,32,85,0
249.1166,249.42642,56,86,0
249.373,249.68283,68,86,0
249.62941,249.93924,56,87,0
249.88582,250.19565,68,87,0
250.14224,250.39331,56,87,0
250.65506,250.96489,44,88,0
250.91147,251.2213,56,89,0
251.16788,251.4777,44,89,0
251.42429,251.73412,56,90,0
251.6807,251.93176,44,90,0
252.19351,252.50334,32,91,0
252.44992,252.75975,44,91,0
252.70633,253.01616,32,92,0
252.96275,253.27257,44,92,0
253.21916,253.52899,32,92,0
253.47557,253.7854,44,93,0
253.73198,254.04181,32,93,0
253.98839,254.29822,44,94,0
254.2448,254.55463,32,94,0
254.5012,254.81104,44,95,0
254.75761,255.00868,32,95,0
255.27043,255.58026,37,96,0
255.52684,255.83667,49,96,0
255.78325,256.09308,37,96,0
256.03967,256.3495,49,96,0
256.29608,256.6059,37,96,0
256.5525,256.8623,49,96,0
256.8089,257.1187,37,96,0
257.0653,257.37512,49,96,0
257.32172,257.63153,37,96,0
257.57812,257.88797,49,96,0
257.83453,258.0856,37,96,0
258.34735,258.6572,37,96,0
258.60376,258.9136,49,96,0
258.86017,259.17,37,96,0
259.11658,259.42642,49,96,0
259.373,259.68283,37,96,0
259.6294,259.93924,49,95,0
259.8858,260.19565,37,95,0
260.1422,260.45206,49,95,0
260.39865,260.70847,37,94,0
260.65506,260.96487,49,94,0
260.91147,261.16254,37,94,0
261.4243,261.7341,39,93,0
261.6807,261.9905,51,93,0
261.9371,262.24692,39,92,0
262.1935,262.50333,51,92,0
262.44992,262.75974,39,91,0
262.70633,263.01614,51,91,0
262.96274,263.27255,39,91,0
263.21915,263.52896,51,90,0
263.47556,263.78537,39,90,0
263.73196,264.0418,51,90,0
263.98837,264.23944,39,89,0
264.5012,264.81104,39,88,0
264.7576,265.06744,51,88,0
265.014,265.32385,39,88,0
265.27042,265.58026,51,87,0
265.52682,265.83667,39,87,0
265.78323,266.09308,51,87,0
266.03964,266.3495,39,86,0
266.29605,266.6059,51,86,0
266.5525,266.8623,39,86,0
266.8089,267.1187,51,85,0
267.0653,267.31638,39,85,0
267.57812,267.88794,27,84,0
267.83453,268.14435,39,84,0
268.09094,268.40076,27,83,0
268.34735,268.65717,39,83,0
268.60376,268.91357,27,83,0
268.86017,269.16998,39,82,0
269.11658,269.4264,27,82,0
269.373,269.6828,39,82,0
269.6294,269.93924,27,81,0
269.8858,270.19565,39,81,0
270.1422,270.39328,27,80,0
270.65503,270.96487,27,80,0
270.91144,271.22128,39,79,0
271.16785,271.4777,27,79,0
271.42426,271.7341,39,79,0
271.68066,271.9905,27,78,0
271.93707,272.24692,39,78,0
272.19348,272.50333,27,77,0
272.44992,272.75974,39,77,0
272.70633,273.01614,27,77,0
272.96274,273.27255,39,76,0
273.21915,273.43814,27,76,0
273.47556,274.05557,32,76,0
273.98862,274.59128,44,76,0
274.52432,275.12698,32,76,0
275.06003,275.66455,44,76,0
275.59573,276.22528,32,76,0
276.15518,276.65167,44,76,0
276.71594,277.35245,32,76,0
277.27963,277.93497,44,76,0
277.86215,278.5175,32,76,0
278.44467,279.1,44,76,0
279.0272,279.68256,32,76,0
279.60974,280.09515,44,75,0
280.19226,280.8522,34,75,0
280.79538,281.45825,46,74,0
281.40143,282.0643,34,73,0
282.00748,282.67038,46,73,0
282.61356,283.27643,34,72,0
283.2196,283.88248,46,71,0
283.82568,284.48856,34,71,0
284.43173,285.0946,46,70,0
280.19226,287.19183,53,75,0
280.19226,287.19183,58,75,0
285.03778,287.2025,34,70,0
287.74738,287.85956,39,76,0
287.9397,288.05188,41,76,0
288.132,288.24417,44,76,0
288.3243,288.4365,43,76,0
288.5166,288.62878,41,76,0
288.70892,288.8211,43,76,0
288.9012,289.0134,41,76,0
289.09354,289.20572,39,76,0
289.28586,289.398,41,76,0
289.47815,289.59033,39,76,0
289.67047,289.78262,34,76,0
289.86276,289.97495,39,76,0
290.05508,290.16724,41,76,0
290.24738,290.35956,43,76,0
290.4397,290.55185,46,76,0
290.632,290.74417,44,76,0
290.8243,290.9365,43,76,0
291.0166,291.12878,44,76,0
291.20892,291.3211,43,76,0
291.4012,291.5134,41,76,0
291.59354,291.70572,43,76,0
291.78583,291.898,41,76,0
291.97815,292.09033,39,76,0
292.17044,292.28262,46,76,0
292.36276,292.47495,51,76,0
292.55505,292.66724,50,76,0
292.74738,292.85956,51,76,0
292.93967,293.05185,50,76,0
293.132,293.24417,45,76,0
293.32428,293.43646,48,76,0
293.5166,293.62878,46,76,0
293.7089,293.82108,43,76,0
293.9012,294.0134,46,76,0
294.0935,294.2057,45,76,0
294.28583,294.398,40,76,0
294.47812,294.5903,42,76,0
294.67044,295.47772,43,96,0
294.67044,295.47772,47,96,0
294.67044,295.47772,50,96,0
294.67044,295.47772,55,96,0
295.53583,295.74615,55,96,0
295.53583,295.74615,62,96,0
295.53583,295.74615,59,96,0
295.82428,296.1428,60,96,0
295.82428,296.1428,48,96,0
295.82428,296.1428,55,96,0
295.82428,296.1428,52,96,0
296.11273,296.3411,41,96,0
296.11273,296.3411,53,96,0
296.4012,296.9661,56,96,0
296.4012,296.9661,58,96,0
296.4012,296.9661,46,96,0
296.4012,296.9661,53,96,0
296.97812,297.0943,39,96,0
296.97812,297.0943,51,96,0
297.17044,297.28662,53,96,0
297.17044,297.28662,41,96,0
297.36273,297.4789,44,96,0
297.36273,297.4789,56,96,0
297.55505,297.67123,55,96,0
297.55505,297.67123,43,96,0
297.74734,297.86353,53,96,0
297.74734,297.86353,41,96,0
297.93967,298.05585,43,96,0
297.93967,298.05585,55,96,0
298.13196,298.24814,41,96,0
298.13196,298.24814,53,96,0
298.32428,298.44046,39,96,0
298.32428,298.44046,51,96,0
298.51657,298.63275,53,96,0
298.51657,298.63275,41,96,0
298.7089,298.82507,39,96,0
298.7089,298.82507,51,96,0
298.90118,299.01736,34,96,0
298.90118,299.01736,46,96,0
299.0935,299.2097,39,96,0
299.0935,299.2097,51,96,0
299.2858,299.40198,41,96,0
299.2858,299.40198,53,96,0
299.47812,299.5943,43,96,0
299.47812,299.5943,55,96,0
299.6704,299.78662,58,96,0
299.6704,299.78662,46,96,0
299.86273,299.9789,44,96,0
299.86273,299.9789,56,96,0
300.05502,300.17123,55,96,0
300.05502,300.17123,43,96,0
300.24734,300.36353,44,96,0
300.24734,300.36353,56,96,0
300.43964,300.55585,55,96,0
300.43964,300.55585,43,96,0
300.63196,300.74814,41,96,0
300.63196,300.74814,53,96,0
300.82425,300.94046,43,96,0
300.82425,300.94046,55,96,0
301.01657,301.13275,41,96,0
301.01657,301.13275,53,96,0
301.20886,301.32507,51,96,0
301.20886,301.32507,39,96,0
301.40118,301.51736,46,96,0
301.40118,301.51736,58,96,0
301.5935,301.7097,63,96,0
301.5935,301.7097,51,96,0
301.7858,301.90198,62,96,0
301.7858,301.90198,50,96,0
301.97812,302.0943,63,96,0
301.97812,302.0943,51,96,0
302.1704,302.73532,61,96,0
302.1704,302.73532,49,96,0
302.74734,302.86353,47,96,0
302.74734,302.86353,59,96,0
302.93964,303.05582,58,96,0
302.93964,303.05582,46,96,0
303.13196,303.24814,59,96,0
303.13196,303.24814,47,96,0
303.32425,303.70087,58,96,0
303.32425,303.70087,46,96,0
303.70886,303.82504,46,96,0
303.70886,303.82504,34,96,0
303.90118,304.01736,51,96,0
303.90118,304.01736,39,96,0
304.09348,304.20966,50,96,0
304.09348,304.20966,38,96,0
304.2858,304.40198,51,96,0
304.2858,304.40198,39,96,0
304.4781,305.043,49,96,0
304.4781,305.043,37,96,0
305.05502,305.1712,47,96,0
305.05502,305.1712,35,96,0
305.2473,305.3635,46,96,0
305.2473,305.3635,34,96,0
305.43964,305.55582,47,96,0
305.43964,305.55582,35,96,0
305.63193,305.94443,46,96,0
305.63193,305.94443,34,96,0
306.01654,306.13275,41,96,0
306.01654,306.13275,53,96,0
306.20886,306.32504,46,96,0
306.20886,306.32504,58,96,0
306.40115,306.51736,57,96,0
306.40115,306.51736,45,96,0
306.59348,306.70966,58,96,0
306.59348,306.70966,46,96,0
306.78577,307.35068,44,96,0
306.78577,307.35068,56,96,0
307.3627,307.47888,54,96,0
307.3627,307.47888,42,96,0
307.55502,307.6712,53,96,0
307.55502,307.6712,41,96,0
307.7473,307.8635,54,96,0
307.7473,307.8635,42,96,0
307.93964,308.31622,53,96,0
307.93964,308.31622,41,96,0
308.32425,308.4364,41,96,0
308.32425,308.4364,29,96,0
308.51654,308.63272,34,96,0
308.51654,308.63272,46,96,0
308.70886,308.82504,45,96,0
308.70886,308.82504,33,96,0
308.90115,309.01733,46,96,0
308.90115,309.01733,34,96,0
309.09348,309.20966,32,96,0
309.09348,309.20966,44,96,0
309.28577,309.40195,43,96,0
309.28577,309.40195,31,96,0
309.4781,309.59427,44,96,0
309.4781,309.59427,32,96,0
309.67038,309.78656,42,96,0
309.67038,309.78656,30,96,0
309.8627,309.97888,24,96,0
310.055,310.17117,42,96,0
310.055,310.17117,30,96,0
310.2473,310.3635,24,96,0
310.4396,310.5558,30,96,0
310.4396,310.5558,42,96,0
310.63193,310.7481,24,96,0
310.82422,310.9404,41,96,0
310.82422,310.9404,29,96,0
311.40115,311.51733,53,76,0
311.59344,311.70963,55,76,0
311.78577,312.53897,58,76,0
312.555,312.67117,57,76,0
312.74728,312.8635,58,76,0
312.9396,313.6928,62,76,0
313.70883,313.825,60,76,0
313.90115,314.01733,62,76,0
314.09344,314.20963,65,76,0
314.28577,314.40195,63,76,0
314.47806,314.59424,60,76,0
314.67038,314.78656,57,76,0
314.86267,314.97885,53,76,0
315.055,315.17117,51,76,0
315.24728,315.36346,48,76,0
315.4396,317.7112,34,76,0
315.4396,317.7112,46,76,0
317.74728,320.0189,34,76,0
317.74728,320.0189,46,76,0
320.05496,321.17276,34,78,0
320.05496,321.17276,46,78,0
321.2088,322.31256,34,81,0
321.2088,322.31256,46,81,0
322.36264,322.59302,46,76,0
322.36264,322.59302,54,76,0
322.55496,322.7132,58,76,0
322.93958,323.16992,42,77,0
322.93958,323.16992,49,77,0
323.13187,323.29013,54,77,0
323.51648,323.74686,37,78,0
323.51648,323.74686,46,78,0
323.7088,323.86703,49,79,0
324.0934,324.3238,42,80,0
324.0934,324.3238,34,80,0
324.2857,324.44397,46,80,0
324.67032,324.9007,41,81,0
324.67032,324.9007,50,81,0
324.86264,325.0209,53,81,0
325.24725,325.47763,29,82,0
325.43954,325.5978,41,83,0
325.8242,326.05453,41,84,0
325.8242,326.05453,48,84,0
326.01648,326.17474,53,84,0
326.4011,326.63147,29,85,0
326.5934,326.75165,41,86,0
326.97803,327.20837,42,86,0
326.97803,327.20837,34,86,0
327.17032,327.32858,46,87,0
327.55493,327.7853,37,88,0
327.55493,327.7853,46,88,0
327.74725,327.9055,49,88,0
328.13187,328.3622,49,89,0
328.13187,328.3622,42,89,0
328.32416,328.48242,54,90,0
328.70877,328.93915,54,91,0
328.70877,328.93915,46,91,0
328.9011,329.05933,58,91,0
329.2857,329.51605,50,92,0
329.2857,329.51605,41,92,0
329.478,329.63626,53,92,0
329.8626,330.05093,53,93,0
329.8626,330.05493,58,93,0
330.05493,330.21317,62,94,0
330.43954,330.66992,48,95,0
330.43954,330.66992,41,95,0
330.63184,330.7901,53,95,0
331.01645,331.24683,53,96,0
331.01645,331.24683,60,96,0
331.20877,331.36703,63,97,0
331.59338,331.70956,46,96,0
331.59338,331.70956,56,96,0
331.59338,331.70956,62,96,0
331.59338,331.70956,53,96,0
340.82413,341.4371,42,76,0
340.82413,341.4371,54,76,0
341.40103,342.014,43,78,0
341.40103,342.014,55,78,0
341.97797,342.59094,44,81,0
341.97797,342.59094,56,81,0
342.55487,342.84335,45,76,0
342.55487,342.84335,57,76,0
343.1318,343.69672,30,76,0
343.1318,343.69672,42,76,0
343.7087,344.27362,32,80,0
343.7087,344.27362,44,80,0
344.28564,344.85056,37,85,0
344.28564,344.85056,49,85,0
344.86258,345.23917,51,90,0
344.86258,345.23917,39,90,0
345.2472,345.36337,32,93,0
345.2472,345.36337,44,93,0
345.43948,346.24075,37,95,0
345.43948,346.24075,44,95,0
345.43948,346.24075,49,95,0
346.30487,346.5152,61,96,0
346.30487,346.5152,49,96,0
346.59332,346.90784,54,96,0
346.59332,346.90784,42,96,0
346.88177,347.12418,47,96,0
346.88177,347.12418,35,96,0
347.17026,347.73514,40,96,0
347.17026,347.73514,52,96,0
347.74716,347.86334,37,76,0
347.93948,348.05566,44,76,0
348.13177,348.24796,49,76,0
348.7087,348.8249,52,76,0
348.901,349.21152,51,76,0
349.18948,349.44186,44,76,0
349.47794,349.98874,49,76,0
350.05484,350.36536,54,96,0
350.05484,350.36536,42,96,0
350.34332,350.6017,35,96,0
350.34332,350.6017,47,96,0
350.63177,351.1967,40,96,0
350.63177,351.1967,52,96,0
351.2087,351.5192,51,76,0
351.49716,351.76358,44,76,0
351.7856,352.2824,49,76,0
352.36255,352.68304,54,76,0
352.651,352.89938,47,76,0
352.93945,353.25998,52,76,0
353.2279,353.47632,56,76,0
353.5164,353.83688,51,76,0
353.80484,354.05325,44,76,0
354.0933,354.41382,49,76,0
354.38177,354.63016,52,76,0
354.67023,354.99072,47,76,0
354.95868,355.2071,40,76,0
355.24713,355.56766,42,76,0
355.5356,355.784,54,76,0
355.82407,356.14456,52,76,0
356.11252,356.36093,49,76,0
356.401,356.7215,42,76,0
356.68945,356.93784,54,76,0
356.9779,357.26035,47,76,0
357.55484,357.673,35,76,0
357.65097,357.76917,40,76,0
357.74713,357.86533,47,76,0
357.8433,357.9615,52,76,0
357.93945,358.05762,56,76,0
358.03558,358.15378,59,76,0
358.13174,358.32004,54,76,0
358.13174,358.32004,47,76,0
358.70868,358.82687,30,76,0
358.8048,358.923,35,76,0
358.90097,359.01917,42,76,0
358.99713,359.11533,47,76,0
359.0933,359.2115,51,76,0
359.18942,359.30762,54,76,0
359.28558,359.47388,42,76,0
359.86252,359.9807,30,76,0
359.95868,360.07684,37,76,0
360.0548,360.173,42,76,0
360.15097,360.26917,46,76,0
360.24713,360.36533,49,76,0
360.3433,360.46146,54,76,0
360.43942,360.62775,42,76,0
361.01636,361.13455,35,76,0
361.11252,361.23068,42,76,0
361.20865,361.32684,47,76,0
361.3048,361.423,51,76,0
361.40097,361.51917,54,76,0
361.49713,361.6153,59,76,0
361.59326,361.7816,47,76,0
362.1702,362.2884,35,76,0
362.26636,362.38455,40,76,0
362.3625,362.48068,47,76,0
362.45865,362.57684,52,76,0
362.5548,362.673,56,76,0
362.65097,362.76917,59,76,0
362.74713,362.93542,47,76,0
363.32404,363.44223,35,76,0
363.4202,363.5384,42,76,0
363.51636,363.63452,47,76,0
363.6125,363.73068,51,76,0
363.70865,363.82684,54,76,0
363.8048,363.923,59,76,0
363.90097,364.08926,47,76,0
364.47787,364.59607,35,76,0
364.57404,364.69223,40,76,0
364.6702,364.78836,47,76,0
364.76633,364.88452,52,76,0
364.8625,364.98068,56,76,0
364.95865,365.07684,59,76,0
365.0548,365.2431,47,76,0
366.20865,366.32483,35,76,0
366.40094,366.51712,42,76,0
366.59326,366.70944,47,76,0
366.78555,366.90176,51,76,0
366.97787,367.09406,54,76,0
367.17017,367.28638,42,84,0
367.17017,367.28638,30,84,0
367.3625,367.47867,33,76,0
367.55478,367.671,40,76,0
367.7471,367.86328,45,76,0
367.9394,368.0556,49,76,0
368.1317,368.2479,52,76,0
368.324,368.44022,28,84,0
368.324,368.44022,40,84,0
368.51633,368.6325,31,76,0
368.70865,368.82483,38,76,0
368.90094,369.01712,43,76,0
369.09326,369.20944,47,76,0
369.28555,369.40173,50,76,0
369.47787,369.59406,38,84,0
369.47787,369.59406,26,84,0
369.67017,369.78635,30,76,0
369.8625,369.97867,37,80,0
370.05478,370.17096,42,85,0
370.2471,370.36328,49,89,0
370.4394,370.55557,54,85,0
370.6317,370.7479,42,81,0
370.824,370.9402,35,76,0
371.01633,371.1325,42,76,0
371.20862,371.3248,47,76,0
371.40094,371.51712,51,76,0
371.59323,371.7094,54,76,0
371.78555,371.90173,30,84,0
371.78555,371.90173,42,84,0
371.97784,372.09402,33,76,0
372.17017,372.28635,40,76,0
372.36246,372.47864,45,76,0
372.55478,372.67096,49,76,0
372.74707,372.86328,52,76,0
372.9394,373.05557,40,84,0
372.9394,373.05557,28,84,0
373.13168,373.2479,31,76,0
373.324,373.4402,38,76,0
373.5163,373.6325,43,76,0
373.70862,373.8248,47,76,0
373.9009,374.01712,50,76,0
374.09323,374.2094,38,84,0
374.09323,374.2094,26,84,0
374.28552,374.40173,30,76,0
374.47784,374.59402,37,79,0
374.67017,374.78635,42,84,0
374.86246,374.97864,49,88,0
375.05478,375.17096,54,88,0
375.24707,375.36325,42,82,0
375.4394,375.55557,35,76,0
375.63168,375.74786,42,76,0
375.824,375.9402,47,76,0
376.0163,376.13248,51,76,0
376.20862,376.3248,54,76,0
376.4009,376.5171,30,76,0
376.4009,376.5171,42,76,0
376.59323,376.7094,34,76,0
376.78552,376.9017,42,76,0
376.97784,377.09402,46,76,0
377.17014,377.28632,51,76,0
377.36246,377.47864,54,76,0
377.55475,377.67093,30,76,0
377.55475,377.67093,42,76,0
377.74707,377.86325,33,76,0
377.93936,378.05554,42,76,0
378.13168,378.24786,45,76,0
378.32397,378.44016,51,76,0
378.5163,378.63248,54,76,0
378.7086,378.8248,39,76,0
378.7086,378.8248,27,76,0
378.9009,379.0171,44,76,0
378.9009,379.0171,32,76,0
379.28552,379.4017,51,79,0
379.28552,379.4017,60,79,0
379.28552,379.4017,56,79,0
379.4778,379.59402,31,81,0
379.4778,379.59402,43,81,0
379.86243,379.97864,51,84,0
379.86243,379.97864,60,84,0
379.86243,379.97864,55,84,0
380.05475,380.17093,27,86,0
380.05475,380.17093,39,86,0
380.43936,380.55554,51,89,0
380.43936,380.55554,60,89,0
380.43936,380.55554,55,89,0
380.63165,380.74786,24,91,0
380.63165,380.74786,36,91,0
381.0163,381.13248,62,94,0
381.0163,381.13248,50,94,0
381.2086,381.32477,63,96,0
381.2086,381.32477,51,96,0
381.4009,381.5171,50,96,0
381.4009,381.5171,62,96,0
381.5932,381.70938,63,96,0
381.5932,381.70938,51,96,0
381.78552,381.9017,50,96,0
381.78552,381.9017,62,96,0
381.9778,382.094,45,96,0
381.9778,382.094,57,96,0
382.17014,382.28632,60,96,0
382.17014,382.28632,48,96,0
382.36243,382.4786,46,96,0
382.36243,382.4786,58,96,0
382.55475,382.67093,55,96,0
382.55475,382.67093,43,96,0
382.74704,382.86322,58,96,0
382.74704,382.86322,46,96,0
382.93936,383.05554,57,96,0
382.93936,383.05554,45,96,0
383.13165,383.24783,40,96,0
383.13165,383.24783,52,96,0
383.32397,383.44016,54,96,0
383.32397,383.44016,42,96,0
383.51627,384.33157,43,96,0
383.51627,384.33157,47,96,0
383.51627,384.33157,50,96,0
383.51627,384.33157,55,96,0
384.38165,384.58597,59,96,0
384.38165,384.58597,62,96,0
384.38165,384.58597,55,96,0
384.6701,384.99063,48,96,0
384.6701,384.99063,55,96,0
384.6701,384.99063,60,96,0
384.9586,385.21097,53,96,0
384.9586,385.21097,41,96,0
385.24704,385.7779,58,96,0
385.24704,385.7779,46,96,0
385.24704,385.7779,56,96,0
385.24704,385.7779,53,96,0
385.82394,385.94016,39,96,0
385.82394,385.94016,51,96,0
386.01627,386.13245,53,96,0
386.01627,386.13245,41,96,0
386.20856,386.32477,56,96,0
386.20856,386.32477,44,96,0
386.40088,386.51706,55,96,0
386.40088,386.51706,43,96,0
386.59317,386.70938,53,96,0
386.59317,386.70938,41,96,0
386.7855,386.90167,55,96,0
386.7855,386.90167,43,96,0
386.9778,387.094,53,96,0
386.9778,387.094,41,96,0
387.1701,387.2863,51,96,0
387.1701,387.2863,39,96,0
387.36243,387.4786,53,96,0
387.36243,387.4786,41,96,0
387.55472,387.6709,51,96,0
387.55472,387.6709,39,96,0
387.74704,387.86322,46,96,0
387.74704,387.86322,34,96,0
387.93933,388.0555,39,96,0
387.93933,388.0555,51,96,0
388.13165,388.24783,41,96,0
388.13165,388.24783,53,96,0
388.32394,388.44012,43,96,0
388.32394,388.44012,55,96,0
388.51627,388.63245,58,96,0
388.51627,388.63245,46,96,0
388.70856,388.82474,56,96,0
388.70856,388.82474,44,96,0
388.90088,389.01706,55,96,0
388.90088,389.01706,43,96,0
389.09317,389.20935,56,96,0
389.09317,389.20935,44,96,0
389.2855,389.40167,43,96,0
389.2855,389.40167,55,96,0
389.47778,389.59396,41,96,0
389.47778,389.59396,53,96,0
389.6701,389.7863,55,96,0
389.6701,389.7863,43,96,0
389.8624,389.97858,53,96,0
389.8624,389.97858,41,96,0
390.05472,390.1709,51,96,0
390.05472,390.1709,39,96,0
390.247,390.3632,46,96,0
390.247,390.3632,58,96,0
390.43933,390.5555,63,96,0
390.43933,390.5555,51,96,0
390.63162,390.7478,62,96,0
390.63162,390.7478,50,96,0
390.82394,390.94012,63,96,0
390.82394,390.94012,51,96,0
391.01624,391.58115,61,96,0
391.01624,391.58115,49,96,0
391.59317,391.70935,47,96,0
391.59317,391.70935,59,96,0
391.78546,391.90167,58,96,0
391.78546,391.90167,46,96,0
391.97778,392.09396,47,96,0
391.97778,392.09396,59,96,0
392.17007,392.51263,46,96,0
392.17007,392.51263,58,96,0
392.5547,392.6709,34,96,0
392.5547,392.6709,46,96,0
392.747,392.8632,51,96,0
392.747,392.8632,39,96,0
392.93933,393.0555,50,96,0
392.93933,393.0555,38,96,0
393.13162,393.2478,51,96,0
393.13162,393.2478,39,96,0
393.32394,393.88882,49,96,0
393.32394,393.88882,37,96,0
393.90085,394.01703,47,96,0
393.90085,394.01703,35,96,0
394.09317,394.20935,46,96,0
394.09317,394.20935,34,96,0
394.28546,394.40164,47,96,0
394.28546,394.40164,35,96,0
394.47778,394.8203,34,96,0
394.47778,394.8203,46,96,0
394.8624,394.97858,41,96,0
394.8624,394.97858,53,96,0
395.0547,395.17087,46,96,0
395.0547,395.17087,58,96,0
395.247,395.3632,45,96,0
395.247,395.3632,57,96,0
395.4393,395.55548,58,96,0
395.4393,395.55548,46,96,0
396.01624,396.13242,41,96,0
396.01624,396.13242,29,96,0
396.20853,396.3247,46,96,0
396.20853,396.3247,34,96,0
396.40085,396.51703,33,96,0
396.40085,396.51703,45,96,0
396.59314,396.70932,46,96,0
396.59314,396.70932,34,96,0
397.17007,397.28625,41,96,0
397.17007,397.28625,53,96,0
397.36237,397.47858,46,96,0
397.36237,397.47858,34,96,0
401.97775,404.25137,27,76,0
401.97775,404.25137,39,76,0
404.28543,406.55905,27,76,0
404.28543,406.55905,39,76,0
406.5931,408.87677,27,76,0
406.5931,408.87677,39,76,0
408.9008,410.01056,39,76,0
408.9008,410.01056,51,76,0
410.05463,410.85593,38,76,0
410.05463,410.85593,50,76,0
410.82385,411.05423,36,76,0
410.82385,411.05423,48,76,0
411.01617,411.1644,46,76,0
411.01617,411.1644,34,76,0
411.2085,412.32828,32,76,0
411.2085,412.32828,44,76,0
412.36234,413.1676,31,80,0
412.36234,413.1676,43,80,0
413.13156,413.3619,29,84,0
413.13156,413.3619,41,84,0
413.32385,413.46808,27,84,0
413.32385,413.46808,39,84,0
413.51617,414.31143,43,85,0
413.51617,414.31143,55,85,0
414.2854,414.51575,53,89,0
414.2854,414.51575,41,89,0
414.4777,414.63596,39,90,0
414.4777,414.63596,51,90,0
414.67,414.90036,55,90,0
414.67,414.90036,43,90,0
414.8623,415.09268,53,91,0
414.8623,415.09268,41,91,0
415.05463,415.1708,39,92,0
415.05463,415.1708,51,92,0
415.24692,415.4773,55,93,0
415.24692,415.4773,43,93,0
415.43924,415.66962,53,94,0
415.43924,415.66962,41,94,0
415.63153,415.74774,51,95,0
415.63153,415.74774,39,95,0
415.82385,415.94003,39,95,0
415.82385,415.94003,27,95,0
418.13153,418.3619,39,96,0
418.13153,418.3619,27,96,0
418.32385,418.5542,40,96,0
418.32385,418.5542,28,96,0
418.51614,419.26935,32,96,0
418.51614,419.26935,44,96,0
419.28537,419.51175,39,96,0
419.28537,419.51175,27,96,0
419.4777,419.70404,40,96,0
419.4777,419.70404,28,96,0
419.66998,420.4232,32,96,0
419.66998,420.4232,44,96,0
420.4392,420.6696,39,96,0
420.4392,420.6696,27,96,0
420.63153,420.86188,40,96,0
420.63153,420.86188,28,96,0
420.82382,420.9821,44,96,0
420.82382,420.9821,32,96,0
421.01614,421.24652,43,96,0
421.01614,421.24652,31,96,0
421.20844,421.4388,44,96,0
421.20844,421.4388,32,96,0
421.40076,421.559,47,96,0
421.40076,421.559,35,96,0
421.59305,421.82343,46,96,0
421.59305,421.82343,34,96,0
421.78537,422.01575,47,96,0
421.78537,422.01575,35,96,0
421.97766,422.13593,40,96,0
421.97766,422.13593,52,96,0
422.16998,422.40036,51,96,0
422.16998,422.40036,39,96,0
422.36227,422.59265,40,96,0
422.36227,422.59265,52,96,0
422.5546,422.71286,44,96,0
422.5546,422.71286,56,96,0
422.7469,422.97726,54,90,0
422.7469,422.97726,51,90,0
422.7469,422.97726,59,90,0
422.9392,423.09747,63,90,0
423.32382,423.5542,54,91,0
423.32382,423.5542,47,91,0
423.51614,423.67438,59,93,0
423.90076,424.1311,42,96,0
423.90076,424.1311,51,96,0
424.09305,424.2513,54,96,0
424.47766,424.70804,47,96,0
424.47766,424.70804,39,96,0
424.66998,424.82822,51,96,0
425.0546,425.28494,34,96,0
425.2469,425.40515,46,96,0
425.6315,425.86188,55,96,0
425.6315,425.86188,51,96,0
425.6315,425.86188,46,96,0
425.82382,425.98206,58,96,0
426.20844,426.43878,41,96,0
426.20844,426.43878,34,96,0
426.40073,426.559,46,96,0
426.78534,427.01572,53,96,0
426.78534,427.01572,46,96,0
426.97766,427.1359,58,96,0
427.36227,427.59265,34,96,0
427.36227,427.59265,46,96,0
427.55457,427.78494,47,96,0
427.55457,427.78494,35,96,0
427.7469,428.5001,39,96,0
427.7469,428.5001,51,96,0
428.5161,428.7465,34,96,0
428.5161,428.7465,46,96,0
428.7084,428.93878,35,96,0
428.7084,428.93878,47,96,0
428.90073,429.65393,39,96,0
428.90073,429.65393,51,96,0
429.66995,429.90033,46,96,0
429.66995,429.90033,34,96,0
429.86227,430.09262,35,96,0
429.86227,430.09262,47,96,0
430.05457,430.21283,39,96,0
430.05457,430.21283,51,96,0
430.2469,430.47723,50,96,0
430.2469,430.47723,38,96,0
430.43918,430.66956,51,96,0
430.43918,430.66956,39,96,0
430.6315,430.78973,54,96,0
430.6315,430.78973,42,96,0
430.8238,431.05417,53,96,0
430.8238,431.05417,41,96,0
431.0161,431.24646,54,96,0
431.0161,431.24646,42,96,0
431.2084,431.36667,47,96,0
431.2084,431.36667,59,96,0
431.40073,431.63107,58,96,0
431.40073,431.63107,46,96,0
431.59302,431.8234,59,96,0
431.59302,431.8234,47,96,0
431.78534,431.94357,51,96,0
431.78534,431.94357,63,96,0
431.97763,432.208,46,76,0
431.97763,432.208,49,76,0
431.97763,432.208,54,76,0
432.16995,432.3282,58,76,0
432.55457,432.7849,49,76,0
432.55457,432.7849,42,76,0
432.74686,432.90512,54,77,0
433.13147,433.36185,46,82,0
433.13147,433.36185,37,82,0
433.3238,433.48203,49,85,0
433.7084,433.93878,34,90,0
433.7084,433.93878,42,90,0
433.9007,434.05896,46,90,0
434.2853,434.5157,42,96,0
434.2853,434.5157,35,96,0
434.47763,434.6359,47,96,0
434.86224,435.09262,42,96,0
434.86224,435.09262,39,96,0
435.05453,435.2128,51,96,0
435.43915,435.66953,42,96,0
435.43915,435.66953,47,96,0
435.63147,435.78973,54,96,0
436.01608,436.24646,54,96,0
436.01608,436.24646,47,96,0
436.2084,436.36664,57,96,0
436.59302,436.82336,47,96,0
436.59302,436.82336,56,96,0
436.59302,436.82336,52,96,0
436.7853,436.94357,59,96,0
437.16992,437.4003,52,96,0
437.16992,437.4003,44,96,0
437.36224,437.52048,56,96,0
437.74686,437.9772,47,96,0
437.74686,437.9772,40,96,0
437.93915,438.0974,52,96,0
438.32376,438.55414,41,96,0
438.32376,438.55414,46,96,0
438.51608,438.67432,53,96,0
438.9007,439.13104,51,96,0
438.9007,439.13104,43,96,0
439.093,439.25125,55,96,0
439.4776,439.70798,46,97,0
439.4776,439.70798,48,97,0
439.66992,439.82816,58,97,0
440.05453,440.2849,44,98,0
440.05453,440.2849,53,98,0
440.24683,440.4051,56,98,0
440.63144,440.86182,53,99,0
440.63144,440.86182,45,99,0
440.82376,440.98203,57,99,0
441.20837,441.43875,51,100,0
441.20837,441.43875,55,100,0
441.20837,441.43875,46,100,0
441.40067,441.55893,58,100,0
441.7853,442.01566,67,100,0
441.7853,442.01566,63,100,0
441.7853,442.01566,58,100,0
441.9776,442.13586,70,100,0
442.3622,442.5926,53,100,0
442.3622,442.5926,46,100,0
442.55453,442.71277,58,100,0
442.93915,443.1695,34,100,0
442.93915,443.1695,41,100,0
443.13144,443.2897,46,100,0
443.51605,443.70435,51,100,0
443.51605,443.70435,39,100,0
443.51605,443.70435,46,100,0
444.093,444.28128,67,100,0
444.093,444.28128,63,100,0
444.093,444.28128,58,100,0
444.093,444.28128,55,100,0
445.24683,445.43512,51,100,0
445.24683,445.43512,63,100,0
445.24683,445.43512,58,100,0
445.82373,447.15387,27,100,0
445.82373,447.15387,39,100,0
