start_time,end_time,note_value,velocity,instrument_program_number
18.947365,19.819075,78,76,40
19.736837,20.608547,74,76,40
20.526312,21.241772,75,76,40
21.315784,22.968744,71,76,40
22.894732,23.610191,70,76,40
23.684204,24.555916,78,76,40
24.473679,25.345388,74,76,40
25.263151,25.978613,75,76,40
26.052626,27.689138,76,76,40
27.631573,28.347033,77,76,40
28.421045,29.226967,79,76,40
29.21052,30.01644,80,78,40
29.999992,30.715454,82,81,40
30.789467,32.376637,82,83,40
32.368412,33.083874,80,78,40
33.157887,34.0296,75,76,40
33.94736,34.819073,73,76,40
34.736835,35.608543,75,76,40
35.526306,36.398018,76,76,40
36.31578,37.187492,73,75,40
37.105255,37.820713,68,74,40
37.89473,39.6217,68,73,40
39.473675,40.427624,69,71,40
40.26315,41.8092,70,70,40
47.36841,48.199,82,76,40
48.157883,48.988476,77,76,40
48.947357,49.66282,78,76,40
49.73683,51.414463,74,76,40
51.315777,52.03124,73,76,40
52.10525,52.935844,82,76,40
52.894726,53.725315,77,76,40
53.684196,54.39966,78,76,40
54.47367,56.10196,79,76,40
56.05262,56.768078,80,76,40
56.84209,57.672684,82,76,40
57.631565,58.46216,83,76,40
58.42104,59.136497,85,76,40
59.210514,60.797684,85,76,40
60.78946,61.50492,83,76,40
61.578934,62.409523,78,76,40
62.36841,63.198997,76,76,40
63.15788,63.988472,78,76,40
63.947353,64.77795,80,76,40
64.736824,65.56742,76,76,40
65.5263,66.24176,71,76,40
66.31577,67.94406,75,74,40
67.89472,68.61018,74,71,40
68.6842,70.23025,75,70,40
94.73682,95.59208,65,72,40
95.52629,96.38155,70,72,40
96.315765,97.17103,71,72,40
97.10524,97.9605,70,72,40
97.894714,98.74998,63,72,40
98.68419,99.53945,66,72,40
99.47366,100.328926,68,72,40
100.26314,101.1184,66,72,40
101.052605,101.90787,63,72,40
101.84208,102.69734,66,72,40
102.63155,103.48682,68,72,40
103.42103,105.03287,70,72,40
104.99998,105.85524,58,72,40
105.78945,106.644714,57,72,40
106.578926,107.43419,58,72,40
107.36839,108.223656,65,72,40
108.15787,108.87333,70,72,40
108.94734,109.77793,70,72,40
109.73682,110.567406,65,72,40
110.52629,111.35688,66,72,40
111.315765,112.146355,65,72,40
112.10524,112.93583,58,72,40
112.89471,114.57234,61,72,40
114.473656,115.30425,68,72,40
115.26313,116.09372,70,72,40
116.052605,116.883194,68,72,40
116.84208,117.67267,61,72,40
117.63155,119.30918,65,72,40
119.210495,120.04109,72,72,40
119.99997,120.83057,73,72,40
120.789444,121.62004,72,72,40
121.57892,122.40951,65,72,40
122.36839,123.93089,68,72,40
123.94734,125.50984,68,72,40
130.26312,131.1184,69,76,40
131.0526,131.90787,76,76,40
131.84207,132.69734,77,76,40
132.63155,133.56082,76,76,40
133.42102,134.27629,69,76,40
134.2105,135.06577,73,75,40
134.99997,135.85522,74,73,40
135.78944,136.56247,73,70,40
139.73682,140.59207,62,72,40
140.52628,141.38155,69,72,40
141.31575,142.17102,70,72,40
142.10522,142.87825,69,72,40
144.47365,145.32892,62,72,40
145.26312,146.1184,69,72,40
146.0526,146.90787,70,72,40
146.84207,147.6151,69,72,40
149.2105,150.06575,62,72,40
149.99997,150.85522,68,73,40
150.78944,151.6447,70,76,40
151.57892,152.43417,71,80,40
152.3684,153.12476,70,76,40
154.67924,155.51257,70,74,40
155.44847,156.2818,74,74,40
156.2177,157.05064,77,75,40
156.98694,157.70613,75,76,40
159.18478,159.97748,75,78,40
159.91649,160.7041,84,79,40
160.64458,161.41838,90,80,40
161.35886,162.13268,89,81,40
162.07315,162.72046,82,82,40
162.78743,163.56123,83,83,40
163.50171,164.27553,87,83,40
164.216,164.9898,82,84,40
164.93028,165.7041,85,85,40
165.64458,166.41838,82,86,40
166.35886,167.13266,81,87,40
167.07314,167.53445,80,87,40
167.78743,168.56123,68,76,40
168.50171,169.27553,70,78,40
169.216,169.9898,71,80,40
169.93028,170.62968,70,76,40
172.07314,172.84695,70,77,40
172.78743,173.56123,62,77,40
173.50171,174.27553,65,76,40
174.216,174.9154,63,76,40
176.35886,177.13266,72,76,40
177.07314,177.84695,69,76,40
177.78743,178.56123,66,76,40
178.50171,179.27551,65,76,40
179.216,179.86331,61,76,40
179.93028,180.72115,59,76,40
180.66017,181.45285,63,77,40
181.39188,182.18457,58,79,40
182.12358,182.91628,61,81,40
182.8553,183.64798,58,80,40
183.587,184.37968,57,78,40
184.31871,185.03517,56,76,40
197.7436,198.59888,63,50,40
198.53308,199.38835,70,50,40
199.32256,200.17781,71,50,40
200.11203,200.96729,70,50,40
200.9015,201.75676,63,50,40
201.69098,202.54623,66,50,40
202.48045,203.33571,68,50,40
203.26993,204.12518,66,50,40
204.0594,204.91466,63,50,40
204.84888,205.70413,66,50,40
205.63834,206.4936,68,50,40
206.42781,207.20084,70,50,40
216.69098,217.54623,78,76,40
217.48044,218.33571,74,76,40
218.26991,218.98538,75,76,40
219.05939,220.67123,71,76,40
220.63834,221.3538,70,76,40
221.42781,222.28308,78,76,40
222.21729,223.07256,74,76,40
223.00676,223.72221,75,76,40
223.79623,225.40808,76,76,40
225.37518,226.09064,77,76,40
226.16466,227.01991,79,76,40
226.95413,227.80939,80,77,40
227.7436,228.45906,82,79,40
228.53308,230.14491,82,81,40
230.11201,230.82748,80,80,40
230.90149,231.75676,75,76,40
231.69096,232.54623,73,76,40
232.48044,233.33571,75,76,40
233.26991,234.12518,76,76,40
234.05939,234.91466,73,75,40
234.84886,235.56432,68,74,40
235.63834,237.22551,68,73,40
237.21729,237.93274,69,71,40
238.00676,239.55281,70,70,40
245.11201,245.96729,82,76,40
245.90149,246.75676,77,76,40
246.69096,247.40643,78,76,40
247.48044,249.09229,74,76,40
249.05939,249.77484,73,76,40
249.84886,250.70412,82,76,40
250.63834,251.49359,77,76,40
251.42781,252.14326,78,76,40
252.21729,253.82912,79,76,40
253.79623,254.51169,80,76,40
254.5857,255.44096,82,76,40
255.37517,256.23044,83,76,40
256.16464,256.8801,85,76,40
256.95413,258.56595,85,76,40
258.53308,259.24854,83,76,40
259.32254,260.1778,78,76,40
260.112,260.9673,76,78,40
260.9015,261.61694,78,80,40
261.69095,262.54623,80,82,40
262.48044,263.3357,76,78,40
263.2699,263.93604,71,72,40
273.5328,274.42096,58,70,40
274.32227,275.21045,55,70,40
275.11176,275.9999,58,70,40
275.9012,277.5295,63,70,40
277.48016,278.36835,65,70,40
278.26965,279.89795,63,70,40
279.8486,280.73676,58,70,40
280.63806,282.26636,55,70,40
282.217,282.9078,67,70,40
283.0065,292.2828,55,66,40
292.48016,293.35187,60,68,40
293.26965,294.14136,65,68,40
294.0591,294.93082,67,68,40
294.8486,296.43576,69,68,40
296.42755,297.29926,72,68,40
297.217,298.80417,69,68,40
298.79596,299.66766,67,68,40
299.58542,301.1726,65,68,40
301.16437,301.87985,64,68,40
301.95386,307.39792,62,60,40
307.48016,308.33542,69,68,40
308.26965,309.1249,70,68,40
309.0591,309.91437,69,68,40
309.8486,310.70386,62,68,40
310.63806,311.49332,65,68,40
311.42752,312.2828,67,68,40
312.217,312.92426,65,68,40
313.00647,313.86176,62,68,40
313.79596,315.32663,65,68,40
320.47693,321.21558,79,96,40
321.15875,321.89737,74,96,40
321.84058,322.45847,75,96,40
322.52237,324.01385,71,96,40
323.88602,324.5039,70,96,40
324.56784,326.05933,75,96,40
325.9315,326.54938,68,96,40
326.61328,328.10477,75,96,40
327.97693,328.59482,66,96,40
328.65875,330.15024,71,96,40
330.02237,330.6403,64,96,40
330.7042,332.19568,71,96,40
332.06784,332.68573,63,96,40
332.74966,333.36755,68,96,40
333.43146,334.04938,66,96,40
334.11328,334.7312,65,96,40
334.7951,336.2866,63,96,40
336.15875,336.73404,62,96,40
336.84058,337.5792,79,96,40
337.52237,338.26102,74,97,40
338.2042,338.82208,75,98,40
338.88602,340.02237,76,100,40
339.90875,340.1502,75,101,40
340.24966,340.49112,71,102,40
340.59058,340.83203,68,103,40
340.93146,342.42294,87,103,40
342.2951,342.913,75,104,40
342.97693,344.4684,82,104,40
344.34055,344.95847,70,104,40
345.02237,346.51385,75,104,40
346.38602,347.0039,63,104,40
347.06784,348.5593,70,104,40
348.43146,349.86072,58,104,40
349.82352,352.0197,56,102,40
351.98923,353.44016,57,94,40
353.5053,355.05136,58,77,40
355.87372,357.41977,58,76,40
367.71582,370.21582,63,68,40
370.08423,372.40332,62,68,40
374.82108,377.32108,61,76,40
377.1895,379.6895,59,78,40
379.55792,381.79477,68,81,40
381.92633,386.5645,70,88,40
381.92633,386.5645,58,88,40
386.66318,391.30133,66,84,40
386.66318,391.30133,58,84,40
391.40002,397.61713,58,76,40
391.40002,397.61713,63,76,40
400.08423,400.85727,61,1,40
18.947365,19.72039,70,60,60
19.736837,20.509863,65,60,60
20.526312,21.052628,66,60,60
21.315784,22.08881,68,60,60
22.105259,22.878284,65,60,60
22.894732,23.421047,66,60,60
23.684204,24.457232,70,60,60
24.473679,25.246704,65,60,60
25.263151,25.789467,66,60,60
26.052626,27.615126,67,67,60
27.631573,28.157888,68,60,60
28.421045,29.194073,70,60,60
29.21052,29.983545,68,60,60
29.999992,30.526308,67,60,60
30.789467,32.351967,67,60,60
32.368412,32.89473,68,60,60
33.157887,33.930912,71,60,60
33.94736,34.720387,70,60,60
34.736835,35.26315,71,60,60
35.526306,37.088806,68,60,60
37.105255,37.63157,61,60,60
37.89473,40.2467,63,60,60
40.26315,41.31578,58,60,60
47.36841,48.947357,61,80,60
49.73683,50.509857,68,69,60
50.526302,51.29933,65,65,60
51.315777,51.842094,66,61,60
56.84209,59.999985,66,70,60
66.31577,68.66775,58,60,60
68.6842,69.736824,51,60,60
85.26314,86.03616,58,70,60
86.05261,86.82564,65,70,60
86.84209,87.61511,66,70,60
87.63156,88.40459,65,70,60
88.421036,89.19406,58,70,60
89.2105,89.98353,61,70,60
89.99998,90.773,63,70,60
90.78945,91.56248,61,70,60
91.578926,92.35195,58,70,60
92.3684,93.141426,61,70,60
93.157875,93.9309,63,70,60
93.94735,95.50985,65,70,60
95.52629,96.29932,62,70,60
96.315765,97.08879,63,70,60
97.10524,98.66774,66,70,60
98.68419,99.2105,63,70,60
99.47366,100.24669,62,70,60
100.26314,101.03616,63,70,60
101.052605,101.82564,66,70,60
101.84208,103.40458,63,70,60
103.42103,105.773,61,70,60
105.78945,106.56248,63,70,60
106.578926,107.63155,61,70,60
108.15787,108.536156,58,70,60
108.552605,108.93089,65,70,60
108.94734,109.32563,66,70,60
109.34208,109.60524,65,70,60
109.73682,110.115105,58,70,60
110.13155,110.50984,61,70,60
110.52629,110.90458,63,70,60
110.92103,111.18418,61,70,60
111.315765,111.57892,58,70,60
111.7105,111.973656,58,70,60
112.10524,112.36839,54,70,60
112.49998,112.76313,51,70,60
112.89471,113.94734,46,70,60
125.52628,126.29932,61,60,60
126.31576,127.08878,68,60,60
127.10523,127.87826,69,60,60
127.89471,128.66774,68,60,60
128.68417,129.4572,61,60,60
129.47365,130.24667,64,60,60
130.26312,131.03615,66,60,60
131.0526,131.57892,64,60,60
134.99997,135.773,54,60,60
135.78944,136.56247,61,60,60
136.57892,137.35194,62,60,60
137.3684,138.14142,61,60,60
138.15787,138.9309,54,60,60
138.94734,139.72037,57,60,60
139.73682,140.50984,59,60,60
140.52628,141.0526,57,60,60
142.10522,142.87825,57,60,60
142.8947,143.66772,62,60,60
143.68417,144.4572,63,60,60
144.47365,144.99997,62,60,60
146.84207,147.6151,57,60,60
147.63155,148.40457,62,60,60
148.42102,149.19405,63,60,60
149.2105,149.7368,62,60,60
152.3684,153.12476,58,60,60
153.14078,153.89398,62,61,60
153.91,154.66321,65,62,60
154.67924,155.19206,63,63,60
156.98694,157.70613,63,67,60
157.72137,158.43784,66,68,60
158.45308,159.16954,70,69,60
159.18478,159.67259,69,71,60
161.35886,162.05826,70,74,60
162.07315,162.77255,65,76,60
162.78743,164.9154,66,77,60
164.93028,167.05826,65,81,60
167.07314,167.54933,62,84,60
169.93028,170.62968,58,85,60
170.64458,171.34398,62,83,60
171.35886,172.05826,65,80,60
172.07314,172.54933,63,77,60
174.216,174.9154,63,69,60
174.93028,175.62968,54,66,60
175.64456,176.34398,58,63,60
176.35886,176.83504,57,61,60
185.05042,187.94676,47,80,60
187.24554,187.962,46,80,60
190.90407,195.4104,47,80,60
195.42642,196.96489,46,80,60
216.69098,217.464,70,60,60
217.48044,218.25348,65,60,60
218.26991,218.79623,66,60,60
219.05939,219.83241,68,60,60
219.84886,220.62189,65,60,60
220.63834,221.16466,66,60,60
221.42781,222.20084,70,60,60
222.21729,222.99031,65,60,60
223.00676,223.53308,66,60,60
223.79623,225.35873,67,70,60
225.37518,225.90149,68,60,60
226.16466,226.93768,70,60,60
226.95413,227.72716,68,60,60
227.7436,228.26991,67,60,60
228.53308,230.09558,67,60,60
230.11201,230.63834,68,60,60
230.90149,231.67451,71,60,60
231.69096,232.46399,70,60,60
232.48044,233.00676,71,60,60
233.26991,234.83241,68,60,60
234.84886,235.37518,61,60,60
235.63834,237.99031,63,60,60
238.00676,239.05939,58,60,60
245.11201,246.69096,61,85,60
247.48044,248.25346,68,71,60
248.26991,249.04294,65,66,60
249.05939,249.58571,66,61,60
254.5857,257.7436,66,70,60
273.5328,274.30585,58,60,60
274.32227,275.0953,63,60,60
275.11176,275.88477,65,60,60
275.9012,277.4637,67,60,60
277.48016,278.2532,70,60,60
278.26965,279.83215,67,60,60
279.8486,280.6216,65,60,60
280.63806,282.20056,63,60,60
282.217,282.74332,62,60,60
283.0065,290.9012,60,60,60
292.48016,293.2532,60,60,60
293.26965,294.04266,57,60,60
294.0591,294.83215,60,60,60
294.8486,296.4111,65,60,60
296.42755,297.20056,67,60,60
297.217,298.7795,65,60,60
298.79596,299.569,60,60,60
299.58542,301.16437,57,60,60
301.95386,307.74332,57,60,60
313.00647,313.7795,62,60,60
313.79596,314.84586,65,63,60
320.47693,321.82635,70,99,60
321.84058,322.2951,67,100,60
322.52237,323.88602,64,100,60
324.56784,325.47693,63,100,60
326.61328,327.52237,63,100,60
328.65875,329.56784,64,100,60
330.7042,331.61328,63,100,60
332.74966,334.7809,51,100,60
334.7951,336.15875,58,100,60
336.84058,337.50818,67,100,60
337.52237,338.19,62,101,60
338.2042,338.65875,63,103,60
338.88602,339.89453,64,104,60
339.90875,340.13602,63,107,60
340.24966,340.47693,68,108,60
340.59058,340.81784,71,109,60
340.93146,342.2809,75,109,60
342.2951,342.74966,63,100,60
342.97693,344.32635,70,100,60
344.34055,344.7951,58,100,60
345.02237,346.3718,63,100,60
346.38602,346.84055,51,94,60
347.06784,348.41727,58,91,60
348.43146,351.974,46,84,60
351.98923,352.99142,45,67,60
353.5053,354.55792,46,61,60
355.87372,356.92636,46,60,60
367.71582,370.06778,66,60,60
370.08423,371.66318,65,60,60
374.82108,377.17307,64,60,60
377.1895,379.54147,63,60,60
379.55792,381.13687,63,60,60
381.92633,385.08423,66,85,60
386.66318,389.82108,63,60,60
391.40002,397.69937,54,60,60
0.11513155,1.6611838,63,46,0
0.0,2.351973,54,46,0
0.057565775,2.409539,58,46,0
1.578947,2.565789,62,46,0
2.483552,4.0296044,63,46,0
2.3684206,4.6463804,54,46,0
2.4259863,4.6710515,58,46,0
3.9473674,4.679275,61,46,0
4.8519726,6.398025,59,46,0
4.736841,7.097038,51,46,0
4.794407,7.1546035,54,46,0
6.315788,7.30263,58,46,0
7.220393,8.766445,59,46,0
8.684209,9.391445,58,46,0
7.1052613,9.407892,51,46,0
7.1628275,9.407892,54,46,0
9.588814,11.134866,56,46,0
9.531248,11.957234,54,46,0
9.473682,11.9901285,51,46,0
11.052629,12.039471,57,46,0
11.957234,13.503286,58,45,0
11.899669,14.128286,53,45,0
13.421049,14.128286,53,44,0
11.842102,14.144733,50,45,0
14.325655,15.871707,56,43,0
14.268088,16.75164,54,43,0
15.78947,16.776312,57,42,0
14.210523,16.784536,51,43,0
16.694075,18.240128,58,41,0
18.15789,18.766443,53,40,0
16.636509,18.815784,50,41,0
18.947365,19.851969,66,46,0
18.947365,19.851969,70,46,0
19.736837,20.641443,65,46,0
19.736837,20.641443,68,46,0
18.947365,21.422693,58,46,0
20.526312,21.430916,63,46,0
20.526312,21.430916,66,46,0
21.315784,22.993416,62,54,0
21.315784,22.993416,68,46,0
21.315784,22.993416,65,46,0
22.894732,23.618416,63,54,0
22.894732,23.618416,66,46,0
23.684204,24.58881,70,46,0
23.684204,24.58881,66,46,0
24.473679,25.378284,68,46,0
24.473679,25.378284,65,46,0
25.263151,26.167757,63,46,0
25.263151,26.167757,66,46,0
23.684204,26.208876,58,46,0
26.052626,27.754929,67,54,0
26.052626,28.347033,59,46,0
26.052626,28.347033,71,46,0
27.631573,28.379927,68,54,0
28.421045,30.740124,63,46,0
28.421045,30.740124,70,46,0
28.421045,30.740124,75,46,0
30.789467,32.4671,67,54,0
30.789467,33.108543,75,46,0
30.789467,33.108543,63,46,0
32.368412,33.14144,68,54,0
33.157887,34.087162,71,46,0
33.157887,34.087162,63,46,0
33.157887,34.703938,68,46,0
33.94736,34.876637,61,46,0
33.94736,34.876637,70,46,0
34.736835,35.66611,68,46,0
35.526306,35.66611,68,45,0
34.736835,35.66611,63,46,0
34.736835,35.66611,71,46,0
35.526306,36.299335,61,45,0
35.526306,36.299335,64,45,0
36.31578,37.088806,56,43,0
36.31578,37.088806,61,43,0
36.31578,37.245056,64,43,0
37.105255,37.828938,56,41,0
37.105255,37.828938,52,41,0
37.105255,37.828938,61,41,0
38.00986,39.555912,56,46,0
39.473675,40.37828,57,46,0
37.952293,40.386505,51,46,0
37.89473,40.394726,47,46,0
40.26315,41.94078,58,46,0
40.26315,42.557556,50,46,0
41.842094,42.56578,53,46,0
42.7467,44.29275,56,44,0
42.63157,45.06578,47,44,0
44.210518,45.139793,57,40,0
42.689137,45.148014,51,44,0
44.99999,47.220383,46,38,0
44.99999,47.220383,49,38,0
44.99999,47.220383,58,38,0
47.36841,48.25657,73,46,0
48.157883,49.04604,69,46,0
48.947357,49.835514,70,46,0
47.36841,49.84374,61,46,0
49.73683,51.414463,68,46,0
49.73683,51.439133,71,46,0
51.315777,52.023014,66,46,0
51.315777,52.023014,70,46,0
52.10525,53.009857,73,46,0
52.894726,53.799328,69,46,0
53.684196,54.588802,70,46,0
52.10525,54.60525,61,46,0
54.47367,56.768078,71,46,0
54.47367,56.768078,74,46,0
56.84209,57.746696,73,46,0
57.631565,58.53617,71,46,0
56.84209,59.16117,78,46,0
58.42104,59.194065,70,46,0
59.210514,60.912815,70,46,0
59.210514,61.50492,78,46,0
60.78946,61.513145,71,46,0
61.578934,62.53288,75,46,0
61.578934,62.53288,66,46,0
61.578934,63.124985,71,46,0
62.36841,63.322353,64,45,0
62.36841,63.322353,73,45,0
63.15788,63.930904,71,44,0
63.15788,64.111824,75,44,0
63.15788,64.111824,66,44,0
63.947353,64.72038,68,43,0
63.947353,64.72038,64,43,0
63.947353,64.9013,71,43,0
64.736824,65.50985,64,41,0
64.736824,65.50985,59,41,0
64.736824,65.69077,68,41,0
65.5263,66.249985,64,40,0
65.5263,66.249985,59,40,0
65.5263,66.249985,56,40,0
66.37334,67.919395,58,46,0
66.44735,67.99341,63,46,0
66.31577,68.00985,54,46,0
67.89472,68.76643,53,46,0
67.89472,68.83222,56,46,0
67.89472,68.91446,62,46,0
68.81577,70.361824,63,46,0
68.74176,70.9786,58,46,0
70.26314,70.986824,61,46,0
68.6842,71.00327,54,46,0
71.1842,72.73025,59,46,0
71.05261,73.3717,51,46,0
71.11018,73.42926,54,46,0
73.421036,73.42926,54,46,0
72.63156,73.53616,58,46,0
73.421036,75.09866,59,46,0
74.999985,75.72366,58,46,0
73.421036,75.74011,51,46,0
75.78946,77.46709,56,46,0
75.78946,78.24011,54,46,0
75.78946,78.24011,51,46,0
77.3684,78.27301,57,46,0
78.157875,79.83551,58,45,0
78.157875,80.46051,50,45,0
78.157875,80.46051,53,45,0
79.736824,80.46051,53,43,0
80.5263,82.171036,56,43,0
80.5263,82.94406,51,43,0
80.5263,82.94406,47,43,0
82.10525,82.97695,57,41,0
82.894714,84.60524,58,40,0
82.894714,85.19735,50,40,0
84.47366,85.19735,53,38,0
104.2105,105.16445,70,42,0
104.2105,105.16445,82,42,0
104.99998,105.953926,77,42,0
104.99998,105.953926,89,42,0
105.78945,106.74339,78,42,0
105.78945,106.74339,90,42,0
106.578926,107.53287,77,42,0
106.578926,107.53287,89,42,0
107.36839,108.32234,70,42,0
107.36839,108.32234,82,42,0
108.15787,109.11182,73,42,0
108.15787,109.11182,85,42,0
108.94734,109.90129,75,42,0
108.94734,109.90129,87,42,0
109.73682,110.690765,73,42,0
109.73682,110.690765,85,42,0
110.52629,111.48024,70,42,0
110.52629,111.48024,82,42,0
111.315765,112.269714,73,42,0
111.315765,112.269714,85,42,0
112.10524,113.05918,75,42,0
112.10524,113.05918,87,42,0
112.89471,113.61839,77,42,0
112.89471,113.61839,89,42,0
113.68418,114.63813,90,42,0
113.68418,114.63813,78,42,0
114.473656,115.427605,89,42,0
114.473656,115.427605,77,42,0
115.26313,116.21708,85,42,0
115.26313,116.21708,73,42,0
116.052605,117.00655,77,42,0
116.052605,117.00655,89,42,0
116.84208,117.79603,90,42,0
116.84208,117.79603,78,42,0
117.63155,118.35523,92,42,0
117.63155,118.35523,80,42,0
118.42103,119.37497,94,42,0
118.42103,119.37497,82,42,0
119.210495,120.164444,92,42,0
119.210495,120.164444,80,42,0
119.99997,120.95392,89,42,0
119.99997,120.95392,77,42,0
120.789444,121.74339,92,42,0
120.789444,121.74339,80,42,0
121.57892,122.302605,94,42,0
121.57892,122.302605,82,42,0
122.36839,123.88155,84,42,0
122.36839,123.88155,96,42,0
122.36839,123.88155,92,42,0
123.94734,125.460495,84,42,0
123.94734,125.460495,96,42,0
123.94734,125.460495,92,42,0
125.52628,127.022995,97,38,0
125.52628,127.022995,85,38,0
125.52628,127.022995,92,38,0
127.10523,128.60194,85,38,0
127.10523,128.60194,73,38,0
127.10523,128.60194,76,38,0
128.68417,130.1809,68,38,0
128.68417,130.1809,73,38,0
130.26312,131.75984,73,38,0
130.26312,131.75984,69,38,0
131.84207,133.33879,81,38,0
131.84207,133.33879,73,38,0
131.84207,133.33879,69,38,0
133.42102,134.91772,88,38,0
133.42102,134.91772,81,38,0
133.42102,134.91772,76,38,0
134.99997,136.49667,90,37,0
134.99997,136.49667,78,37,0
134.99997,136.49667,81,37,0
136.57892,138.07562,78,36,0
136.57892,138.07562,69,36,0
136.57892,138.07562,81,36,0
138.15787,139.65457,66,35,0
138.15787,139.65457,69,35,0
139.73682,141.23352,69,33,0
139.73682,141.23352,74,33,0
141.31575,142.81247,81,32,0
141.31575,142.81247,69,32,0
141.31575,142.81247,74,32,0
142.8947,144.39142,74,31,0
142.8947,144.39142,81,31,0
142.8947,144.39142,86,31,0
144.47365,145.97037,93,30,0
144.47365,145.97037,81,30,0
144.47365,145.97037,86,30,0
146.0526,147.5493,69,30,0
146.0526,147.5493,81,30,0
146.0526,147.5493,74,30,0
147.63155,149.12825,69,30,0
147.63155,149.12825,74,30,0
149.2105,149.64635,80,38,0
149.2105,149.64635,86,38,0
149.47365,149.9095,92,38,0
149.47365,149.9095,89,38,0
149.7368,150.17267,80,38,0
149.7368,150.17267,86,38,0
149.99997,150.43582,92,38,0
149.99997,150.43582,89,38,0
150.26312,150.69897,80,38,0
150.26312,150.69897,86,38,0
150.52628,150.96214,92,38,0
150.52628,150.96214,89,38,0
150.78944,151.2253,86,38,0
150.78944,151.2253,80,38,0
151.0526,151.48845,92,38,0
151.0526,151.48845,89,38,0
151.31575,151.7516,80,38,0
151.31575,151.7516,86,38,0
151.57892,152.01477,92,38,0
151.57892,152.01477,89,38,0
151.84207,152.27792,80,38,0
151.84207,152.27792,86,38,0
152.10522,152.53981,92,38,0
152.10522,152.53981,89,38,0
152.3684,152.79623,80,38,0
152.3684,152.79623,86,38,0
152.62796,153.05264,92,38,0
152.62796,153.05264,89,38,0
152.88437,153.30905,80,38,0
152.88437,153.30905,86,38,0
153.14078,153.56546,92,38,0
153.14078,153.56546,89,38,0
153.39719,153.82187,80,38,0
153.39719,153.82187,86,38,0
153.6536,153.902,92,38,0
153.6536,153.902,89,38,0
153.91,154.33469,82,38,0
153.91,154.33469,78,38,0
154.16641,154.5911,87,39,0
154.16641,154.5911,90,39,0
154.42284,154.8475,78,39,0
154.42284,154.8475,82,39,0
154.67924,155.10391,87,39,0
154.67924,155.10391,90,39,0
154.93565,155.36034,82,39,0
154.93565,155.36034,78,39,0
155.19206,155.61674,87,39,0
155.19206,155.61674,90,39,0
155.44847,155.87315,82,39,0
155.44847,155.87315,78,39,0
155.70488,156.12956,87,40,0
155.70488,156.12956,90,40,0
155.96129,156.38597,82,40,0
155.96129,156.38597,78,40,0
156.2177,156.64238,90,40,0
156.2177,156.64238,87,40,0
156.4741,156.89879,82,40,0
156.4741,156.89879,78,40,0
156.73051,157.14973,90,40,0
156.73051,157.14973,87,40,0
156.98694,157.39363,82,40,0
156.98694,157.39363,78,40,0
157.23357,157.63753,90,41,0
157.23357,157.63753,87,41,0
157.47748,157.88144,82,41,0
157.47748,157.88144,78,41,0
157.72137,158.12534,87,41,0
157.72137,158.12534,90,41,0
157.96527,158.36925,82,41,0
157.96527,158.36925,78,41,0
158.20918,158.44547,90,41,0
158.20918,158.44547,87,41,0
158.45308,158.85704,78,42,0
158.45308,158.85704,75,42,0
158.69699,159.10095,84,42,0
158.69699,159.10095,87,42,0
158.94089,159.34485,75,42,0
158.94089,159.34485,78,42,0
159.18478,159.58875,84,43,0
159.18478,159.58875,87,43,0
159.4287,159.83266,78,43,0
159.4287,159.83266,75,43,0
159.67259,160.07655,84,43,0
159.67259,160.07655,87,43,0
159.91649,160.32047,78,44,0
159.91649,160.32047,75,44,0
160.1604,160.56273,87,44,0
160.1604,160.56273,84,44,0
160.4043,160.80083,75,44,0
160.4043,160.80083,78,44,0
160.64458,161.03893,82,45,0
160.64458,161.03893,85,45,0
160.88268,161.27701,77,45,0
160.88268,161.27701,73,45,0
161.12076,161.5151,82,45,0
161.12076,161.5151,85,45,0
161.35886,161.7532,77,46,0
161.35886,161.7532,73,46,0
161.59695,161.9913,82,46,0
161.59695,161.9913,85,46,0
161.83505,162.2294,77,46,0
161.83505,162.2294,73,46,0
162.07315,162.46748,82,47,0
162.07315,162.46748,85,47,0
162.31123,162.70558,77,47,0
162.31123,162.70558,73,47,0
162.54933,162.77998,82,47,0
162.54933,162.77998,85,47,0
162.78743,163.18178,75,63,0
162.78743,163.18178,71,63,0
163.02553,163.41988,78,46,0
163.02553,163.41988,83,46,0
163.26363,163.65796,75,46,0
163.26363,163.65796,71,46,0
163.50171,163.89606,78,46,0
163.50171,163.89606,83,46,0
163.7398,164.13416,75,46,0
163.7398,164.13416,71,46,0
163.9779,164.37225,83,46,0
163.9779,164.37225,78,46,0
164.216,164.61035,70,46,0
164.216,164.61035,75,46,0
164.4541,164.84843,78,46,0
164.4541,164.84843,82,46,0
164.69218,165.08653,75,46,0
164.69218,165.08653,70,46,0
164.93028,165.32463,82,46,0
164.93028,165.32463,77,46,0
165.16838,165.56273,73,46,0
165.16838,165.56273,70,46,0
165.40648,165.80083,82,46,0
165.40648,165.80083,77,46,0
165.64458,166.03891,70,46,0
165.64458,166.03891,65,46,0
165.88266,166.27701,73,46,0
165.88266,166.27701,77,46,0
166.12076,166.5151,70,46,0
166.12076,166.5151,65,46,0
166.35886,166.7532,72,46,0
166.35886,166.7532,77,46,0
166.59695,166.9913,69,45,0
166.59695,166.9913,65,45,0
166.83505,167.0657,72,45,0
166.83505,167.0657,77,45,0
167.07314,167.46748,68,45,0
167.07314,167.46748,65,45,0
167.31123,167.70558,74,45,0
167.31123,167.70558,77,45,0
167.54933,167.94368,68,45,0
167.54933,167.94368,65,45,0
167.78743,168.18178,77,45,0
167.78743,168.18178,74,45,0
168.02553,168.41986,68,45,0
168.02553,168.41986,65,45,0
168.26361,168.65796,74,45,0
168.26361,168.65796,77,45,0
168.50171,168.89606,68,45,0
168.50171,168.89606,65,45,0
168.7398,169.13416,74,45,0
168.7398,169.13416,77,45,0
168.9779,169.37225,68,45,0
168.9779,169.37225,65,45,0
169.216,169.61035,74,45,0
169.216,169.61035,77,45,0
169.4541,169.84843,68,45,0
169.4541,169.84843,65,45,0
169.69218,170.08653,74,45,0
169.69218,170.08653,77,45,0
169.93028,170.32463,68,45,0
169.93028,170.32463,65,45,0
170.16838,170.56273,74,45,0
170.16838,170.56273,77,45,0
170.40648,170.80083,68,45,0
170.40648,170.80083,65,45,0
170.64458,171.03891,77,45,0
170.64458,171.03891,74,45,0
170.88266,171.27701,68,45,0
170.88266,171.27701,65,45,0
171.12076,171.5151,74,44,0
171.12076,171.5151,77,44,0
171.35886,171.7532,63,44,0
171.35886,171.7532,66,44,0
171.59695,171.9913,70,44,0
171.59695,171.9913,75,44,0
171.83505,172.22939,66,44,0
171.83505,172.22939,63,44,0
172.07314,172.46748,70,44,0
172.07314,172.46748,75,44,0
172.31123,172.70558,63,44,0
172.31123,172.70558,66,44,0
172.54933,172.94368,70,44,0
172.54933,172.94368,75,44,0
172.78743,173.18178,66,44,0
172.78743,173.18178,63,44,0
173.02553,173.41986,70,44,0
173.02553,173.41986,75,44,0
173.26361,173.65796,66,44,0
173.26361,173.65796,63,44,0
173.50171,173.89606,70,44,0
173.50171,173.89606,75,44,0
173.7398,174.13416,63,44,0
173.7398,174.13416,66,44,0
173.9779,174.37225,70,44,0
173.9779,174.37225,75,44,0
174.216,174.61034,66,44,0
174.216,174.61034,63,44,0
174.45409,174.84843,70,44,0
174.45409,174.84843,75,44,0
174.69218,175.08653,66,44,0
174.69218,175.08653,63,44,0
174.93028,175.32463,70,44,0
174.93028,175.32463,75,44,0
175.16838,175.56273,66,44,0
175.16838,175.56273,63,44,0
175.40648,175.63713,70,44,0
175.40648,175.63713,75,44,0
175.64456,176.03891,63,44,0
175.64456,176.03891,66,44,0
175.88266,176.27701,75,43,0
175.88266,176.27701,72,43,0
176.12076,176.5151,66,43,0
176.12076,176.5151,63,43,0
176.35886,176.7532,75,43,0
176.35886,176.7532,72,43,0
176.59695,176.99129,66,43,0
176.59695,176.99129,63,43,0
176.83504,177.22939,75,42,0
176.83504,177.22939,72,42,0
177.07314,177.46748,66,42,0
177.07314,177.46748,63,42,0
177.31123,177.70558,75,42,0
177.31123,177.70558,72,42,0
177.54933,177.94368,63,42,0
177.54933,177.94368,66,42,0
177.78743,178.18176,73,41,0
177.78743,178.18176,70,41,0
178.02551,178.41986,61,41,0
178.02551,178.41986,65,41,0
178.26361,178.65796,70,41,0
178.26361,178.65796,73,41,0
178.50171,178.89606,61,41,0
178.50171,178.89606,65,41,0
178.7398,179.13416,70,41,0
178.7398,179.13416,73,41,0
178.9779,179.37225,65,40,0
178.9779,179.37225,61,40,0
179.216,179.61034,70,40,0
179.216,179.61034,73,40,0
179.45409,179.84843,65,40,0
179.45409,179.84843,61,40,0
179.69218,179.92284,70,40,0
179.69218,179.92284,73,40,0
179.93028,180.45438,63,46,0
179.93028,180.45438,59,46,0
180.29433,180.82024,66,46,0
180.29433,180.82024,71,46,0
180.66017,181.18608,59,46,0
180.66017,181.18608,63,46,0
181.02603,181.55194,66,46,0
181.02603,181.55194,71,46,0
181.39188,181.9178,58,45,0
181.39188,181.9178,63,45,0
181.75774,182.28365,70,45,0
181.75774,182.28365,66,45,0
182.12358,182.6495,61,45,0
182.12358,182.6495,58,45,0
182.48944,183.01535,70,45,0
182.48944,183.01535,65,45,0
182.8553,183.38121,61,45,0
182.8553,183.38121,58,45,0
183.22115,183.74707,65,45,0
183.587,184.11292,57,44,0
183.587,184.11292,60,44,0
183.95285,184.2425,65,44,0
184.31871,184.84462,56,44,0
184.31871,184.84462,53,44,0
184.68456,185.21048,63,44,0
184.68456,185.21048,65,44,0
185.05042,185.57632,53,44,0
185.05042,185.57632,56,44,0
185.41628,185.94218,65,43,0
185.41628,185.94218,63,43,0
185.78212,186.30804,56,43,0
185.78212,186.30804,53,43,0
186.14798,186.67389,63,43,0
186.14798,186.67389,65,43,0
186.51382,187.03975,56,43,0
186.51382,187.03975,53,43,0
186.87968,187.4056,63,43,0
186.87968,187.4056,65,43,0
187.24554,187.77145,56,43,0
187.24554,187.77145,53,43,0
187.61139,188.1373,63,42,0
187.61139,188.1373,65,42,0
187.97725,188.50316,53,42,0
187.97725,188.50316,56,42,0
188.3431,188.63274,65,42,0
188.3431,188.63274,62,42,0
188.70895,189.5931,56,42,0
188.70895,189.5931,53,42,0
189.44066,190.3248,63,41,0
189.44066,190.3248,59,41,0
190.17236,191.0565,56,41,0
190.17236,191.0565,53,41,0
190.90407,191.78822,63,41,0
190.90407,191.78822,59,41,0
191.63577,192.51993,56,40,0
191.63577,192.51993,53,40,0
192.3675,193.27899,59,40,0
192.3675,193.27899,63,40,0
193.11874,194.04822,56,40,0
193.11874,194.04822,53,40,0
193.88797,194.81746,63,39,0
193.88797,194.81746,59,39,0
194.6572,195.58669,56,39,0
194.6572,195.58669,53,39,0
195.42642,196.35591,58,39,0
195.42642,196.35591,62,39,0
196.19566,197.12515,56,38,0
196.19566,197.12515,53,38,0
196.96489,197.62025,58,38,0
196.96489,197.62025,62,38,0
197.85873,199.40479,63,38,0
197.7436,200.06268,54,38,0
197.80118,200.12025,58,38,0
199.32256,200.34229,62,38,0
200.22716,201.77321,63,38,0
200.11203,202.40643,54,38,0
201.69098,202.40643,61,38,0
200.1696,202.41466,58,38,0
202.48045,204.23209,59,38,0
202.48045,204.79953,54,38,0
202.48045,204.79953,51,38,0
204.0594,204.964,58,38,0
204.84888,206.55118,59,38,0
204.84888,207.14328,54,38,0
204.84888,207.14328,51,38,0
206.42781,207.20084,58,38,0
207.21729,208.89493,56,38,0
207.21729,209.69261,54,38,0
207.21729,209.69261,51,38,0
208.79623,209.70084,57,38,0
209.58571,211.26334,58,37,0
209.58571,211.88011,53,37,0
211.16466,211.88011,53,35,0
209.58571,211.88011,50,37,0
211.95413,213.63176,56,34,0
213.53308,214.43768,57,33,0
211.95413,214.45413,54,34,0
211.95413,214.45413,51,34,0
214.32256,216.00018,58,32,0
214.32256,216.59229,50,32,0
215.9015,216.59229,53,30,0
216.69098,217.64491,66,46,0
216.69098,217.64491,70,46,0
217.48044,218.43439,65,46,0
217.48044,218.43439,68,46,0
216.69098,219.19098,58,46,0
218.26991,219.22386,63,46,0
218.26991,219.22386,66,46,0
219.05939,220.78636,62,46,0
219.05939,220.78636,68,46,0
219.05939,220.78636,65,46,0
220.63834,221.3538,63,46,0
220.63834,221.3538,66,46,0
221.42781,222.33241,70,46,0
221.42781,222.33241,66,46,0
222.21729,223.12189,68,46,0
222.21729,223.12189,65,46,0
221.42781,223.87846,58,46,0
223.00676,223.91136,63,46,0
223.00676,223.91136,66,46,0
223.79623,225.47386,67,46,0
223.79623,226.08241,59,46,0
223.79623,226.08241,71,46,0
225.37518,226.09064,68,46,0
226.16466,228.48373,63,46,0
226.16466,228.48373,70,46,0
226.16466,228.48373,75,46,0
228.53308,230.23538,67,46,0
228.53308,230.81926,75,46,0
228.53308,230.81926,63,46,0
230.11201,230.82748,68,46,0
230.90149,231.83076,71,46,0
230.90149,231.83076,63,46,0
230.90149,232.44754,68,46,0
231.69096,232.62024,61,46,0
231.69096,232.62024,70,46,0
232.48044,233.25346,68,46,0
232.48044,233.25346,63,46,0
232.48044,233.40971,71,46,0
233.26991,234.04294,61,46,0
233.26991,234.04294,64,46,0
233.26991,234.19919,68,46,0
234.05939,234.83241,56,43,0
234.05939,234.83241,61,43,0
234.05939,234.98866,64,43,0
234.84886,235.56432,56,41,0
234.84886,235.56432,52,41,0
234.84886,235.56432,61,41,0
235.73701,237.28307,56,46,0
235.63834,238.11366,47,46,0
235.68768,238.13834,51,46,0
237.21729,238.14656,57,46,0
238.00676,239.55281,58,46,0
238.00676,240.29294,50,46,0
239.58571,240.30116,53,46,0
240.47386,242.01991,56,44,0
240.37518,242.85051,47,44,0
240.42451,242.87518,51,44,0
241.95412,242.8834,57,41,0
242.74359,244.98044,46,40,0
242.74359,244.98044,49,40,0
242.74359,244.98044,58,40,0
245.11201,246.06596,73,46,0
245.90149,246.85544,69,46,0
245.11201,247.61201,61,46,0
246.69096,247.64491,70,46,0
247.48044,249.20741,68,46,0
247.48044,249.20741,71,46,0
249.05939,249.77484,66,46,0
249.05939,249.77484,70,46,0
249.84886,250.77814,73,46,0
250.63834,251.56761,69,46,0
249.84886,252.32419,61,46,0
251.42781,252.35709,70,46,0
252.21729,254.50346,71,46,0
252.21729,254.50346,74,46,0
254.5857,255.51497,73,46,0
255.37517,256.30444,71,46,0
254.5857,256.9048,78,46,0
256.16464,256.93768,70,46,0
256.95413,258.65643,70,46,0
256.95413,259.2403,78,46,0
258.53308,259.24854,71,46,0
259.32254,260.25183,75,46,0
259.32254,260.25183,66,46,0
259.32254,260.8686,71,46,0
260.112,261.0413,64,46,0
260.112,261.0413,73,46,0
260.9015,261.6745,71,45,0
260.9015,261.83075,75,45,0
260.9015,261.83075,66,45,0
261.69095,262.464,68,44,0
261.69095,262.62024,71,44,0
261.69095,263.25345,64,44,0
262.48044,263.25345,59,42,0
262.48044,263.4097,68,42,0
263.2699,263.9607,64,40,0
263.2699,263.9607,59,40,0
263.2699,263.9607,56,40,0
264.0594,264.96674,66,38,0
264.0594,264.96674,75,38,0
264.0594,265.5677,71,38,0
264.8305,265.73596,73,39,0
264.8305,265.73596,64,39,0
265.59973,266.30508,71,40,0
265.59973,266.30508,66,40,0
265.59973,266.30508,75,40,0
266.3791,267.30838,75,42,0
266.3791,267.30838,78,42,0
266.3791,267.30838,69,42,0
267.16858,268.09784,68,43,0
267.16858,268.09784,76,43,0
267.16858,268.09784,73,43,0
267.95804,268.64883,69,44,0
267.95804,268.64883,78,44,0
267.95804,268.64883,75,44,0
268.7722,269.5619,71,46,0
268.7722,269.5619,76,46,0
268.7722,269.72235,80,46,0
269.5703,270.36426,71,45,0
269.5703,270.52472,76,45,0
270.37268,271.15616,68,43,0
270.37268,271.3124,71,43,0
271.1726,271.94565,64,41,0
271.1726,272.1019,68,41,0
271.95386,272.7269,59,40,0
271.95386,272.88315,64,40,0
272.74335,273.40945,56,38,0
272.74335,273.40945,59,38,0
273.5328,275.07886,58,46,0
283.0065,283.96045,72,38,0
283.79596,284.7499,67,38,0
283.79596,284.7499,79,38,0
284.58545,285.5394,80,38,0
284.58545,285.5394,68,38,0
285.3749,286.32886,79,38,0
285.3749,286.32886,67,38,0
286.1644,287.11832,60,38,0
286.1644,287.11832,72,38,0
286.95386,287.9078,63,38,0
286.95386,287.9078,75,38,0
287.74332,288.69727,65,38,0
287.74332,288.69727,77,38,0
288.5328,289.48676,63,38,0
288.5328,289.48676,75,38,0
289.32227,290.2762,60,38,0
289.32227,290.2762,72,38,0
290.11176,291.0657,63,38,0
290.11176,291.0657,75,38,0
290.9012,291.85516,77,38,0
290.9012,291.85516,65,38,0
291.6907,293.41766,67,38,0
291.6907,293.41766,79,38,0
293.26965,298.76306,72,38,0
293.26965,298.76306,84,38,0
301.95386,302.95715,74,38,0
301.95386,302.95715,86,38,0
302.74332,303.7466,93,38,0
302.74332,303.7466,81,38,0
303.5328,304.5361,94,38,0
303.5328,304.5361,82,38,0
304.32227,305.32556,93,38,0
304.32227,305.32556,81,38,0
305.11176,306.11505,86,38,0
305.11176,306.11505,74,38,0
305.9012,306.9045,77,38,0
305.9012,306.9045,89,38,0
306.6907,307.69397,91,38,0
306.6907,307.69397,79,38,0
307.48016,308.48346,89,38,0
307.48016,308.48346,77,38,0
308.26965,309.27292,86,38,0
308.26965,309.27292,74,38,0
309.0591,310.0624,89,38,0
309.0591,310.0624,77,38,0
309.8486,310.85187,79,38,0
309.8486,310.85187,91,38,0
310.63806,312.95715,81,38,0
310.63806,312.95715,93,38,0
314.97406,315.29456,50,47,0
315.35867,316.11188,50,48,0
315.35867,316.11188,53,48,0
316.4961,316.80096,53,52,0
316.4961,316.80096,50,52,0
316.86194,317.5784,53,53,0
316.86194,317.5784,62,53,0
317.9595,318.26437,62,57,0
317.9595,318.26437,65,57,0
318.32535,319.03348,65,58,0
318.32535,319.03348,74,58,0
319.4055,319.70312,77,62,0
319.4055,319.70312,65,62,0
319.4055,319.70312,74,62,0
319.76263,320.36533,86,63,0
319.76263,320.36533,77,63,0
319.76263,320.36533,80,63,0
319.76263,320.36533,74,63,0
321.49966,321.82635,70,66,0
321.49966,321.82635,67,66,0
321.84058,322.50818,79,66,0
321.84058,322.50818,70,66,0
321.84058,322.50818,75,66,0
321.84058,322.50818,67,66,0
323.5451,323.87183,67,66,0
323.5451,323.87183,76,66,0
323.88602,324.55362,82,66,0
323.88602,324.55362,70,66,0
323.88602,324.55362,76,66,0
323.88602,324.55362,79,66,0
325.59058,325.91727,68,66,0
325.59058,325.91727,71,66,0
325.59058,325.91727,75,66,0
325.9315,326.5991,80,66,0
325.9315,326.5991,75,66,0
325.9315,326.5991,71,66,0
327.63602,327.96274,75,66,0
327.63602,327.96274,66,66,0
327.63602,327.96274,70,66,0
327.97693,328.64453,78,66,0
327.97693,328.64453,70,66,0
327.97693,328.64453,75,66,0
329.6815,330.00818,68,66,0
329.6815,330.00818,64,66,0
329.6815,330.00818,71,66,0
330.02237,330.69,76,66,0
330.02237,330.69,68,66,0
330.02237,330.69,71,66,0
331.72693,332.05362,71,66,0
331.72693,332.05362,66,66,0
331.72693,332.05362,63,66,0
332.06784,332.73544,75,66,0
332.06784,332.73544,66,66,0
332.06784,332.73544,71,66,0
333.77237,334.0991,68,66,0
333.77237,334.0991,71,66,0
333.77237,334.0991,75,66,0
334.11328,334.7809,75,66,0
334.11328,334.7809,80,66,0
334.11328,334.7809,71,66,0
335.81784,336.14453,70,66,0
335.81784,336.14453,68,66,0
335.81784,336.14453,65,66,0
336.15875,336.82635,70,66,0
336.15875,336.82635,77,66,0
336.15875,336.82635,68,66,0
337.86328,338.19,70,66,0
337.86328,338.19,67,66,0
338.2042,338.87183,79,67,0
338.2042,338.87183,70,67,0
338.2042,338.87183,75,67,0
338.2042,338.87183,67,67,0
339.90875,340.23544,68,71,0
339.90875,340.23544,71,71,0
340.24966,340.91727,83,72,0
340.24966,340.91727,80,72,0
340.24966,340.91727,75,72,0
340.24966,340.91727,71,72,0
341.9542,342.2809,75,74,0
341.9542,342.2809,78,74,0
342.2951,342.9627,87,74,0
342.2951,342.9627,75,74,0
342.2951,342.9627,78,74,0
342.2951,342.9627,82,74,0
343.99966,344.32635,70,74,0
343.99966,344.32635,73,74,0
344.34055,345.00818,82,74,0
344.34055,345.00818,73,74,0
344.34055,345.00818,70,74,0
346.0451,346.3718,63,74,0
346.0451,346.3718,66,74,0
346.38602,347.05362,63,74,0
346.38602,347.05362,66,74,0
346.38602,347.05362,75,74,0
346.38602,347.05362,70,74,0
348.09055,348.41727,58,74,0
348.09055,348.41727,61,74,0
348.43146,349.0991,70,74,0
348.43146,349.0991,58,74,0
348.43146,349.0991,61,74,0
350.18066,350.52292,51,57,0
350.5378,351.24228,63,56,0
352.3551,352.719,51,49,0
352.73502,353.48886,60,48,0
353.5053,355.23227,51,46,0
353.5053,355.23227,63,46,0
353.5053,355.23227,54,46,0
353.5053,355.23227,58,46,0
355.08426,356.03818,53,46,0
355.08426,356.03818,56,46,0
355.08426,356.03818,59,46,0
355.08426,356.03818,62,46,0
355.87372,357.60068,51,46,0
355.87372,357.60068,54,46,0
355.87372,357.60068,58,46,0
355.87372,357.60068,63,46,0
357.45267,358.16812,61,46,0
357.45267,358.16812,52,46,0
357.45267,358.16812,55,46,0
358.24213,359.96912,54,46,0
358.24213,359.96912,59,46,0
358.24213,359.96912,51,46,0
359.82108,360.77502,58,45,0
359.82108,360.77502,52,45,0
359.82108,360.77502,55,45,0
360.61057,362.33752,54,44,0
360.61057,362.33752,51,44,0
362.1895,362.33752,51,43,0
360.61057,362.33752,59,44,0
362.1895,362.90497,57,43,0
362.1895,362.90497,48,43,0
362.97897,365.47897,52,42,0
362.97897,365.47897,55,42,0
365.3474,367.66647,51,39,0
365.3474,367.66647,54,39,0
372.45267,374.95267,53,38,0
372.45267,374.95267,50,38,0
374.82108,377.32108,49,38,0
374.82108,377.32108,52,38,0
377.1895,379.50858,51,43,0
377.1895,379.50858,47,43,0
379.55792,381.79477,56,48,0
379.55792,381.79477,51,48,0
379.55792,381.79477,47,48,0
381.92633,386.5645,58,66,0
381.92633,386.5645,46,66,0
381.92633,386.5645,54,66,0
381.92633,386.5645,51,66,0
386.66318,391.30133,46,46,0
386.66318,391.30133,54,46,0
386.66318,391.30133,51,46,0
391.40002,397.61713,46,42,0
391.40002,397.61713,51,42,0
0.11513155,1.6611838,51,46,0
0.0,2.351973,42,46,0
0.057565775,2.409539,46,46,0
1.578947,2.565789,50,46,0
2.483552,4.0296044,51,46,0
2.3684206,4.6710515,42,46,0
2.4259863,4.6710515,46,46,0
3.9473674,4.679275,49,46,0
4.8519726,6.398025,47,46,0
4.736841,7.097038,39,46,0
4.794407,7.1546035,42,46,0
6.315788,7.30263,46,46,0
7.220393,8.766445,47,46,0
8.684209,9.391445,46,46,0
7.1052613,9.407892,39,46,0
7.1628275,9.407892,42,46,0
9.588814,11.134866,44,46,0
9.473682,11.940786,39,46,0
9.531248,11.957234,42,46,0
11.052629,12.039471,45,46,0
11.957234,13.503286,46,45,0
11.899669,14.128286,41,45,0
13.421049,14.128286,41,44,0
11.842102,14.144733,38,45,0
14.325655,15.871707,44,43,0
14.268088,16.75164,42,43,0
15.78947,16.776312,45,42,0
14.210523,16.784536,39,43,0
16.694075,18.240128,46,41,0
18.15789,18.766443,41,40,0
16.578943,18.78289,34,41,0
16.636509,18.815784,38,41,0
18.947365,19.580587,27,46,0
19.3421,20.115128,39,46,0
20.131575,20.9046,51,46,0
20.921047,21.299337,39,46,0
21.315784,21.949009,27,46,0
21.710522,22.483547,39,46,0
22.499994,23.273022,51,46,0
23.289469,23.626638,39,46,0
23.684204,24.317429,27,46,0
24.078941,24.851969,39,46,0
24.868416,25.641441,51,46,0
25.657888,26.036179,39,46,0
26.052626,26.685848,26,48,0
26.447363,27.220388,38,50,0
27.236835,28.009861,50,48,0
28.02631,28.36348,38,46,0
28.421045,29.05427,25,46,0
28.815783,29.588808,37,46,0
29.605257,30.378283,49,46,0
30.39473,30.77302,37,46,0
30.789467,31.447361,35,46,0
31.184204,31.95723,47,46,0
31.973677,32.746704,51,46,0
32.76315,33.100323,47,46,0
33.157887,33.79111,32,46,0
33.552624,34.32565,44,46,0
34.3421,35.115124,56,46,0
35.13157,35.50986,44,46,0
35.526306,36.118412,25,45,0
35.921043,36.8092,37,44,0
36.710518,37.598675,28,42,0
37.499992,37.837162,40,40,0
38.00986,39.555912,44,46,0
37.89473,40.353607,35,46,0
39.473675,40.37828,45,46,0
37.952293,40.386505,39,46,0
40.26315,41.94078,46,46,0
40.26315,42.557556,41,46,0
41.842094,42.557556,41,46,0
40.26315,42.557556,34,46,0
42.7467,44.29275,44,44,0
42.689137,45.098675,39,44,0
42.63157,45.11512,35,44,0
44.210518,45.11512,45,40,0
44.99999,47.220383,46,38,0
44.99999,47.228607,30,38,0
47.36841,47.845383,30,46,0
47.763145,48.536175,42,46,0
48.55262,49.325645,54,46,0
49.342094,49.720383,42,46,0
49.73683,50.213802,30,46,0
50.13157,50.904594,42,46,0
50.92104,51.694065,54,46,0
51.710514,52.01479,42,46,0
52.10525,52.582226,30,46,0
52.49999,53.273014,42,46,0
53.289463,54.06249,54,46,0
54.078934,54.457226,42,48,0
54.47367,54.950645,29,48,0
54.86841,55.641434,41,50,0
55.657883,56.43091,53,48,0
56.447353,56.825645,41,46,0
56.84209,57.319065,28,46,0
57.236828,58.009853,40,46,0
58.026302,58.799328,52,46,0
58.815777,59.194065,40,46,0
59.210514,59.687485,27,46,0
59.605247,60.378277,39,46,0
60.394722,61.167747,51,46,0
61.184196,61.521366,39,46,0
61.578934,62.05591,23,46,0
61.97367,62.746696,35,46,0
62.76314,63.53617,47,45,0
63.552616,63.930904,35,43,0
63.947353,64.424324,28,43,0
64.34209,65.11512,40,42,0
65.13156,65.90459,32,41,0
65.921036,66.25821,44,40,0
66.31577,68.733536,46,46,0
66.31577,68.733536,34,46,0
68.81577,70.361824,51,46,0
68.74176,70.9786,46,46,0
68.6842,70.986824,39,46,0
70.26314,70.986824,49,46,0
71.1842,72.73025,47,46,0
71.05261,73.3717,39,46,0
71.11018,73.42926,42,46,0
73.421036,73.42926,42,46,0
72.63156,73.53616,46,46,0
73.421036,75.08222,47,46,0
74.999985,75.72366,46,46,0
73.421036,75.74011,39,46,0
75.78946,77.46709,44,46,0
75.78946,78.24011,42,46,0
75.78946,78.24011,39,46,0
77.3684,78.27301,45,46,0
78.157875,79.83551,46,45,0
78.157875,80.46051,41,45,0
79.736824,80.46051,41,43,0
78.157875,80.46051,38,45,0
80.5263,82.171036,44,43,0
80.5263,82.94406,39,43,0
80.5263,82.94406,35,43,0
82.10525,82.97695,45,41,0
82.894714,84.60524,46,40,0
82.894714,85.19735,34,40,0
84.47366,85.19735,41,38,0
113.68418,114.25162,46,42,0
114.07892,114.646355,58,42,0
114.473656,115.04109,49,42,0
114.86839,115.43583,61,42,0
115.26313,115.83057,58,42,0
115.65787,116.2253,54,42,0
116.052605,116.43089,49,42,0
116.44734,117.01478,49,42,0
116.84208,117.409515,46,42,0
117.23682,117.80425,42,42,0
117.63155,118.972015,37,42,0
118.815765,119.383194,49,42,0
119.210495,119.77793,41,42,0
119.60523,120.17267,53,42,0
119.99997,120.567406,49,42,0
120.39471,120.96214,46,42,0
120.789444,121.16773,41,42,0
121.18418,121.75162,41,42,0
121.57892,122.146355,37,42,0
121.973656,122.54109,34,42,0
122.36839,123.88155,29,42,0
123.94734,125.460495,29,42,0
125.52628,127.022995,40,38,0
125.52628,127.022995,28,38,0
127.10523,128.60194,49,38,0
127.10523,128.60194,52,38,0
127.10523,128.60194,40,38,0
128.68417,130.1809,61,38,0
128.68417,130.1809,52,38,0
128.68417,130.1809,56,38,0
130.26312,131.75984,61,38,0
130.26312,131.75984,49,38,0
130.26312,131.75984,57,38,0
131.84207,133.33879,57,38,0
131.84207,133.33879,49,38,0
131.84207,133.33879,45,38,0
133.42102,134.91772,49,38,0
133.42102,134.91772,37,38,0
133.42102,134.91772,45,38,0
134.99997,136.49667,42,37,0
134.99997,136.49667,33,37,0
134.99997,136.49667,45,37,0
136.57892,138.07562,54,36,0
136.57892,138.07562,45,36,0
136.57892,138.07562,57,36,0
138.15787,139.65457,61,35,0
138.15787,139.65457,57,35,0
139.73682,141.23352,54,33,0
139.73682,141.23352,62,33,0
139.73682,141.23352,57,33,0
141.31575,142.81247,54,32,0
141.31575,142.81247,42,32,0
141.31575,142.81247,50,32,0
142.8947,144.39142,42,31,0
142.8947,144.39142,38,31,0
142.8947,144.39142,30,31,0
144.47365,145.97037,41,30,0
144.47365,145.97037,38,30,0
144.47365,145.97037,29,30,0
146.0526,147.5493,41,30,0
146.0526,147.5493,50,30,0
146.0526,147.5493,53,30,0
147.63155,149.12825,62,30,0
147.63155,149.12825,53,30,0
149.2105,149.64635,29,38,0
149.47365,149.9095,41,38,0
149.7368,150.17267,29,38,0
149.99997,150.43582,41,38,0
150.26312,150.69897,29,38,0
150.52628,150.96214,41,38,0
150.78944,151.2253,29,38,0
151.0526,151.48845,41,38,0
151.31575,151.7516,29,38,0
151.57892,152.01477,41,38,0
151.84207,152.27792,29,38,0
152.10522,152.53981,41,38,0
152.3684,152.79623,29,38,0
152.62796,153.05264,41,38,0
152.88437,153.30905,29,38,0
153.14078,153.56546,41,38,0
153.39719,153.82187,29,38,0
153.6536,153.902,41,38,0
153.91,154.33469,30,38,0
154.16641,154.5911,42,39,0
154.42284,154.8475,30,39,0
154.67924,155.10391,42,39,0
154.93565,155.36034,30,39,0
155.19206,155.61674,42,39,0
155.44847,155.87315,30,39,0
155.70488,156.12956,42,40,0
155.96129,156.38597,30,40,0
156.2177,156.64238,42,40,0
156.4741,156.89879,30,40,0
156.73051,157.14973,42,40,0
156.98694,157.39363,30,40,0
157.23357,157.63753,42,41,0
157.47748,157.88144,30,41,0
157.72137,158.12534,42,41,0
157.96527,158.36925,30,41,0
158.20918,158.44547,42,41,0
158.45308,158.85704,36,42,0
158.69699,159.10095,48,42,0
158.94089,159.34485,36,42,0
159.18478,159.58875,48,43,0
159.4287,159.83266,36,43,0
159.67259,160.07655,48,43,0
159.91649,160.32047,36,44,0
160.1604,160.56273,48,44,0
160.4043,160.80083,36,44,0
160.64458,161.03893,49,45,0
160.88268,161.27701,37,45,0
161.12076,161.5151,49,45,0
161.35886,161.7532,37,46,0
161.59695,161.9913,49,46,0
161.83505,162.2294,37,46,0
162.07315,162.46748,49,47,0
162.31123,162.70558,37,47,0
162.54933,162.77998,49,47,0
162.78743,163.18178,39,63,0
163.02553,163.41988,51,46,0
163.26363,163.65796,39,46,0
163.50171,163.89606,51,46,0
163.7398,164.13416,39,46,0
163.9779,164.37225,51,46,0
164.216,164.61035,39,46,0
164.4541,164.84843,51,46,0
164.69218,165.08653,39,46,0
164.93028,165.32463,53,46,0
165.16838,165.56273,41,46,0
165.40648,165.80083,53,46,0
165.64458,166.03891,41,46,0
165.88266,166.27701,53,46,0
166.12076,166.5151,41,46,0
166.35886,166.7532,53,46,0
166.59695,166.9913,41,45,0
166.83505,167.0657,53,45,0
167.07314,167.46748,29,45,0
167.31123,167.70558,41,45,0
167.54933,167.94368,29,45,0
167.78743,168.18178,41,45,0
168.02553,168.41986,29,45,0
168.26361,168.65796,41,45,0
168.50171,168.89606,29,45,0
168.7398,169.13416,41,45,0
168.9779,169.37225,29,45,0
169.216,169.61035,41,45,0
169.4541,169.84843,29,45,0
169.69218,170.08653,41,45,0
169.93028,170.32463,29,45,0
170.16838,170.56273,41,45,0
170.40648,170.80083,29,45,0
170.64458,171.03891,41,45,0
170.88266,171.27701,29,45,0
171.12076,171.5151,41,44,0
171.35886,171.87225,30,44,0
171.716,172.22939,42,44,0
172.07314,172.58653,30,44,0
172.43028,172.94368,42,44,0
172.78743,173.30081,30,44,0
173.14456,173.65796,42,44,0
173.50171,174.0151,30,44,0
173.85886,174.37225,42,44,0
174.216,174.72939,30,44,0
174.57314,175.08653,42,44,0
174.93028,175.44368,30,44,0
175.28743,175.63713,42,44,0
175.64456,176.15796,36,44,0
176.00171,176.5151,48,43,0
176.35886,176.87225,36,43,0
176.716,177.22939,48,43,0
177.07314,177.58653,36,42,0
177.43028,177.94368,48,42,0
177.78743,178.30081,37,41,0
178.14456,178.65796,49,41,0
178.50171,179.0151,37,41,0
178.85886,179.37225,49,40,0
179.216,179.72939,37,40,0
179.57314,180.08853,49,40,0
179.93028,180.45438,39,46,0
180.29433,180.82024,51,46,0
180.66017,181.18608,39,46,0
181.02603,181.55194,51,46,0
181.39188,181.9178,39,45,0
181.75774,182.28365,51,45,0
182.12358,182.6495,41,45,0
182.48944,183.01535,53,45,0
182.8553,183.38121,41,45,0
183.22115,183.74707,53,45,0
183.587,184.11292,41,44,0
183.95285,184.2425,53,44,0
184.31871,184.84462,29,44,0
184.68456,185.21048,41,44,0
185.05042,185.57632,29,44,0
185.41628,185.94218,41,43,0
185.78212,186.30804,29,43,0
186.14798,186.67389,41,43,0
186.51382,187.03975,34,43,0
186.87968,187.4056,46,43,0
187.24554,187.77145,34,43,0
187.61139,188.1373,46,42,0
187.97725,188.50316,34,42,0
188.3431,188.63274,46,42,0
188.70895,189.5931,29,42,0
189.44066,190.3248,41,41,0
190.17236,191.0565,29,41,0
190.90407,191.78822,41,41,0
191.63577,192.51993,29,40,0
192.3675,193.27899,41,40,0
193.11874,194.04822,34,40,0
193.88797,194.81746,41,39,0
194.6572,195.58669,34,39,0
195.42642,196.35591,46,39,0
196.19566,197.12515,34,38,0
196.96489,197.62025,46,38,0
197.85873,199.40479,51,38,0
197.7436,200.06268,42,38,0
197.80118,200.12025,46,38,0
199.32256,200.34229,50,38,0
200.22716,201.77321,51,38,0
200.11203,202.40643,42,38,0
201.69098,202.40643,49,38,0
200.1696,202.41466,46,38,0
202.48045,204.23209,47,38,0
202.48045,204.79953,42,38,0
202.48045,204.79953,39,38,0
204.0594,204.964,46,38,0
204.84888,206.55118,47,38,0
204.84888,207.14328,42,38,0
204.84888,207.14328,39,38,0
206.42781,207.20084,46,38,0
207.21729,208.89493,44,38,0
207.21729,209.69261,42,38,0
207.21729,209.69261,39,38,0
208.79623,209.70084,45,38,0
209.58571,211.26334,46,37,0
209.58571,211.88011,41,37,0
211.16466,211.88011,41,35,0
209.58571,211.88011,38,37,0
211.95413,213.63176,44,34,0
213.53308,214.43768,45,33,0
211.95413,214.45413,42,34,0
211.95413,214.45413,39,34,0
214.32256,216.00018,46,32,0
214.32256,216.59229,38,32,0
214.32256,216.59229,34,32,0
215.9015,216.59229,41,30,0
216.69098,217.32419,27,46,0
217.08571,217.85873,39,46,0
217.87518,218.64821,51,46,0
218.66466,219.04294,39,46,0
219.05939,219.69261,27,46,0
219.45413,220.22716,39,46,0
220.2436,221.01663,51,46,0
221.03308,221.36203,39,46,0
221.42781,222.06104,27,46,0
221.82256,222.59558,39,46,0
222.61203,223.38506,51,46,0
223.4015,223.77979,39,46,0
223.79623,224.42946,26,48,0
224.19096,224.96399,38,50,0
224.98044,225.75346,50,48,0
225.76991,226.09886,38,46,0
226.16466,226.79788,25,46,0
226.55939,227.33241,37,46,0
227.34886,228.12189,49,46,0
228.13834,228.46729,37,46,0
228.53308,229.1663,35,46,0
228.92781,229.70084,47,46,0
229.71729,230.49031,51,46,0
230.50676,230.83571,47,46,0
230.90149,231.53471,32,46,0
231.29623,232.06926,44,46,0
232.08571,232.85873,56,46,0
232.87518,233.25346,44,46,0
233.26991,233.90314,25,46,0
233.66466,234.53636,37,45,0
234.45413,235.32584,28,42,0
235.2436,235.57254,40,40,0
235.73701,237.28307,44,46,0
235.63834,238.11366,35,46,0
235.68768,238.13834,39,46,0
237.21729,238.14656,45,46,0
238.00676,239.55281,46,46,0
238.00676,240.30116,41,46,0
239.58571,240.30116,41,46,0
238.00676,240.30116,34,46,0
240.47386,242.01991,44,44,0
240.37518,242.85051,35,44,0
240.42451,242.87518,39,44,0
241.95412,242.8834,45,41,0
242.74359,244.98044,30,40,0
242.74359,244.98044,46,40,0
245.11201,245.72057,30,46,0
245.50676,246.27979,42,46,0
246.29623,247.06926,54,46,0
247.08571,247.46399,42,46,0
247.48044,248.08899,30,46,0
247.87518,248.64821,42,46,0
248.66464,249.43767,54,46,0
249.45412,249.78307,42,46,0
249.84886,250.45741,30,46,0
250.24359,251.01662,42,46,0
251.03307,251.80609,54,46,0
251.82254,252.20084,42,46,0
252.21729,252.82584,29,46,0
252.61201,253.38504,41,46,0
253.40149,254.17451,53,46,0
254.19096,254.51991,41,46,0
254.5857,255.19426,28,46,0
254.98044,255.75346,40,46,0
255.76991,256.54294,52,46,0
256.5594,256.93768,40,46,0
256.95413,257.56268,27,46,0
257.34885,258.1219,39,46,0
258.13834,258.91135,51,46,0
258.9278,259.25674,39,46,0
259.32254,259.9311,23,46,0
259.7173,260.4903,35,46,0
260.50674,261.2798,47,46,0
261.29623,261.6745,35,44,0
261.69095,262.2995,28,44,0
262.0857,263.01498,40,43,0
262.87518,263.80444,32,41,0
263.66464,263.96893,44,40,0
264.0594,264.65424,35,38,0
264.4459,265.1991,47,38,0
265.21512,265.96832,59,40,0
265.98434,266.36264,47,41,0
266.3791,266.98764,35,42,0
266.77383,267.54684,47,42,0
267.5633,268.33633,59,44,0
268.35278,268.65704,47,45,0
268.7722,269.39297,28,46,0
269.17337,269.9673,40,45,0
269.97574,270.76965,52,44,0
270.77786,271.71536,40,42,0
271.5591,272.4884,32,41,0
272.3486,273.27786,44,39,0
273.13806,273.41766,32,38,0
273.5328,278.17096,46,46,0
273.5328,278.17096,34,46,0
278.26965,282.9078,46,46,0
278.26965,282.9078,34,46,0
283.0065,291.8305,27,38,0
283.0065,291.8305,39,38,0
291.6907,297.11832,24,38,0
291.6907,297.11832,36,38,0
297.217,301.85516,36,38,0
301.95386,310.53937,29,38,0
301.95386,310.53937,41,38,0
310.63806,312.34036,26,38,0
310.63806,312.34036,38,38,0
312.217,313.14627,45,38,0
312.217,313.14627,33,38,0
313.00647,313.72195,34,41,0
313.00647,313.72195,46,41,0
313.79596,314.56897,38,43,0
313.79596,314.56897,26,43,0
314.58542,315.34265,33,46,0
314.58542,315.34265,45,46,0
315.35867,316.11188,34,48,0
315.35867,316.11188,46,48,0
316.1279,316.99152,38,50,0
316.1279,316.99152,26,50,0
316.86194,317.72324,45,53,0
316.86194,317.72324,33,53,0
317.59366,318.25677,46,55,0
317.59366,318.25677,34,55,0
318.32535,319.17484,38,58,0
318.32535,319.17484,26,58,0
319.04837,319.88913,46,60,0
319.04837,319.88913,34,60,0
319.76263,320.36533,35,63,0
319.76263,320.36533,47,63,0
320.47693,320.80362,27,66,0
320.47693,320.80362,39,66,0
320.81784,321.14453,51,66,0
320.81784,321.14453,55,66,0
320.81784,321.14453,58,66,0
321.15875,322.494,63,66,0
321.15875,322.494,58,66,0
321.15875,322.494,55,66,0
322.52237,322.8491,25,66,0
322.52237,322.8491,37,66,0
322.86328,323.19,58,66,0
322.86328,323.19,52,66,0
322.86328,323.19,55,66,0
323.2042,324.53943,58,66,0
323.2042,324.53943,55,66,0
323.2042,324.53943,64,66,0
324.56784,324.89453,47,66,0
324.56784,324.89453,39,66,0
324.90875,325.23544,51,66,0
324.90875,325.23544,59,66,0
324.90875,325.23544,56,66,0
325.24966,326.58487,63,66,0
325.24966,326.58487,56,66,0
325.24966,326.58487,59,66,0
326.61328,326.94,46,66,0
326.61328,326.94,34,66,0
326.9542,327.2809,51,66,0
326.9542,327.2809,58,66,0
326.9542,327.2809,54,66,0
327.2951,328.63034,63,66,0
327.2951,328.63034,54,66,0
327.2951,328.63034,58,66,0
328.65875,328.98544,44,66,0
328.65875,328.98544,32,66,0
328.99966,329.32635,56,66,0
328.99966,329.32635,47,66,0
328.99966,329.32635,52,66,0
329.34058,330.67578,52,66,0
329.34058,330.67578,56,66,0
329.34058,330.67578,59,66,0
330.7042,331.0309,42,66,0
330.7042,331.0309,30,66,0
331.0451,331.37183,54,66,0
331.0451,331.37183,51,66,0
331.0451,331.37183,47,66,0
331.38602,332.72125,59,66,0
331.38602,332.72125,54,66,0
331.38602,332.72125,51,66,0
332.74966,333.07635,41,66,0
332.74966,333.07635,29,66,0
333.09058,333.41727,47,66,0
333.09058,333.41727,51,66,0
333.09058,333.41727,53,66,0
333.43146,334.7667,59,66,0
333.43146,334.7667,51,66,0
333.43146,334.7667,53,66,0
334.7951,335.12183,46,66,0
334.7951,335.12183,34,66,0
335.13602,335.4627,46,66,0
335.13602,335.4627,53,66,0
335.47693,336.81216,53,66,0
335.47693,336.81216,58,66,0
336.84058,337.16727,39,66,0
336.84058,337.16727,51,66,0
337.18146,337.50818,51,66,0
337.18146,337.50818,55,66,0
337.52237,338.19,55,66,0
337.52237,338.19,58,66,0
338.2042,338.87183,49,67,0
338.2042,338.87183,37,67,0
338.88602,339.2127,47,69,0
338.88602,339.2127,35,69,0
339.22693,339.55362,56,70,0
339.22693,339.55362,52,70,0
339.56784,340.23544,56,70,0
339.56784,340.23544,59,70,0
340.24966,340.91727,44,72,0
340.24966,340.91727,32,72,0
340.93146,341.25818,42,74,0
340.93146,341.25818,30,74,0
341.27237,341.5991,66,74,0
341.27237,341.5991,58,74,0
341.27237,341.5991,63,74,0
341.61328,342.94852,63,74,0
341.61328,342.94852,66,74,0
341.61328,342.94852,70,74,0
342.97693,343.30362,41,74,0
342.97693,343.30362,29,74,0
343.31784,343.64453,53,74,0
343.31784,343.64453,58,74,0
343.31784,343.64453,61,74,0
343.65875,344.99396,61,74,0
343.65875,344.99396,58,74,0
343.65875,344.99396,65,74,0
345.02237,345.3491,39,74,0
345.02237,345.3491,27,74,0
345.36328,345.69,54,74,0
345.36328,345.69,51,74,0
345.7042,347.03943,54,74,0
345.7042,347.03943,58,74,0
347.06784,347.39453,37,74,0
347.06784,347.39453,25,74,0
347.40875,347.73544,46,74,0
347.40875,347.73544,49,74,0
347.74966,349.08487,49,74,0
347.74966,349.08487,53,74,0
349.11328,349.45148,23,74,0
349.11328,349.45148,35,74,0
349.82352,351.22705,47,58,0
349.46637,351.24228,39,59,0
349.46637,351.24228,35,59,0
351.25754,351.60812,36,53,0
351.25754,351.60812,24,53,0
351.98923,353.4724,48,51,0
351.62338,353.48886,36,52,0
351.62338,353.48886,39,52,0
353.5053,355.82437,46,46,0
353.5053,355.82437,34,46,0
355.87372,358.1599,46,46,0
355.87372,358.1599,34,46,0
358.24213,360.56122,35,46,0
358.24213,360.56122,47,46,0
360.61057,362.89676,35,44,0
360.61057,362.89676,47,44,0
362.97897,364.70596,35,42,0
362.97897,364.70596,47,42,0
364.55792,365.51187,34,40,0
364.55792,365.51187,46,40,0
365.3474,367.07437,47,39,0
365.3474,367.07437,35,39,0
366.92636,369.42636,34,38,0
366.92636,369.42636,46,38,0
369.29477,370.24872,45,38,0
369.29477,370.24872,33,38,0
370.08423,371.81122,46,38,0
370.08423,371.81122,34,38,0
371.66318,374.16318,32,38,0
371.66318,374.16318,44,38,0
374.03162,374.98557,43,38,0
374.03162,374.98557,31,38,0
374.82108,376.54807,44,38,0
374.82108,376.54807,32,38,0
376.40002,377.35397,31,41,0
376.40002,377.35397,43,41,0
377.1895,378.91647,44,43,0
377.1895,378.91647,32,43,0
378.76846,379.7224,43,47,0
378.76846,379.7224,31,47,0
379.55792,381.2849,44,48,0
379.55792,381.2849,32,48,0
381.13687,383.63687,27,52,0
381.13687,383.63687,39,52,0
383.50528,384.45923,38,54,0
383.50528,384.45923,26,54,0
384.29477,388.40662,27,54,0
384.29477,388.40662,39,54,0
388.24213,389.19608,38,46,0
388.24213,389.19608,26,46,0
389.03162,393.14343,27,46,0
389.03162,393.14343,39,46,0
392.97897,393.93292,38,42,0
392.97897,393.93292,26,42,0
393.76843,397.69937,27,42,0
393.76843,397.69937,39,42,0
