start_time,end_time,note_value,velocity,instrument_program_number
0.8333325,0.95659626,58,71,40
0.999999,1.1232628,63,71,40
1.1666656,1.2899293,63,71,40
1.333332,1.4565958,65,71,40
1.4999985,1.6232623,67,71,40
1.666665,1.7899288,67,71,40
1.8333315,1.9565953,70,71,40
1.999998,2.1232617,67,71,40
2.1666646,2.2899282,67,71,40
2.333331,2.4565947,65,71,40
2.4999976,2.6232612,63,71,40
2.666664,2.7899277,63,71,40
2.8333304,2.9565942,62,71,40
2.999997,3.1232607,60,71,40
3.1666634,3.2899272,60,71,40
3.33333,3.4565938,67,79,40
3.4999964,3.6232603,60,71,40
3.666663,3.7899268,60,71,40
3.8333294,3.9565933,62,71,40
3.999996,4.1232595,60,71,40
4.1666627,4.289926,60,71,40
4.333329,4.4565926,67,79,40
4.4999957,4.623259,60,71,40
4.666662,4.7899256,60,71,40
4.8333287,4.956592,67,71,40
4.999995,5.1232586,65,71,40
5.1666613,5.289925,65,71,40
5.333328,5.4565916,67,71,40
5.4999943,5.623258,68,71,40
5.666661,5.7899246,68,71,40
5.8333273,5.956591,72,72,40
5.999994,6.1232576,67,73,40
6.1666603,6.289924,67,73,40
6.333327,6.4565907,69,74,40
6.4999933,6.623257,70,75,40
6.66666,6.7899237,70,75,40
6.8333263,6.95659,74,76,40
6.999993,7.7864504,77,77,40
7.8333254,7.956589,70,80,40
7.999992,8.786449,77,81,40
8.833324,8.956588,70,85,40
8.999991,9.123255,75,85,40
9.166657,9.289921,75,85,40
9.333324,9.456588,77,85,40
9.49999,9.623254,79,85,40
9.666657,9.789921,79,85,40
9.8333235,9.956587,82,85,40
9.99999,10.123254,79,85,40
10.1666565,10.28992,79,85,40
10.333323,10.456587,77,85,40
10.4999895,10.623253,75,85,40
10.666656,10.78992,75,85,40
10.833323,10.956586,74,85,40
10.999989,11.123253,72,85,40
11.166656,11.289919,72,85,40
11.333322,11.456586,79,93,40
11.499989,11.623252,72,85,40
11.666655,11.789919,72,85,40
11.833322,11.956585,74,85,40
11.999988,12.123252,72,85,40
12.166655,12.289918,72,85,40
12.333321,12.456585,79,93,40
12.499988,12.623251,72,85,40
12.666654,12.789918,72,85,40
12.833321,12.956584,79,85,40
12.999987,13.123251,77,85,40
13.166654,13.289917,77,85,40
13.33332,13.456584,79,85,40
13.499987,13.62325,80,85,40
13.666653,13.789917,80,85,40
13.83332,13.956583,84,85,40
13.999986,14.336791,87,85,40
14.333319,14.456583,84,86,40
14.499986,14.786444,87,86,40
14.833319,14.956582,84,87,40
14.999985,15.123249,79,87,40
15.166652,15.289915,79,88,40
15.333318,15.456582,81,88,40
15.499985,15.623248,82,88,40
15.666651,15.789915,82,88,40
15.833318,15.956581,86,89,40
15.999984,16.33679,89,89,40
16.333317,16.456581,86,90,40
16.499983,16.743038,89,90,40
16.833317,17.012136,86,91,40
16.999983,17.782969,91,91,40
17.833315,18.006926,86,91,40
17.999983,18.782967,91,91,40
18.833315,19.006926,86,91,40
18.99998,19.123245,91,91,40
19.166647,19.289911,90,91,40
19.333315,19.456577,91,91,40
19.49998,19.623243,93,91,40
19.666647,19.789911,91,91,40
19.833313,19.956577,90,91,40
19.99998,20.123243,91,91,40
20.166647,20.28991,87,91,40
20.333313,20.456577,84,91,40
20.499979,20.623243,89,91,40
20.666645,20.78991,86,91,40
20.833313,21.006924,82,91,40
20.999979,21.782965,87,91,40
21.833311,22.006922,82,91,40
21.999977,22.782963,87,91,40
22.833311,23.006922,82,91,40
22.999977,23.123241,87,91,40
23.166643,23.289907,86,91,40
23.33331,23.456573,87,91,40
23.499977,23.62324,89,91,40
23.666643,23.789907,87,91,40
23.83331,23.956573,86,91,40
23.999975,24.12324,87,91,40
24.166643,24.289906,84,91,40
24.33331,24.456573,81,91,40
24.499975,24.62324,86,91,40
24.666641,24.789906,82,91,40
24.83331,25.026016,79,91,40
24.999975,25.767336,86,91,40
25.833307,26.015598,79,91,40
25.999973,26.767334,86,91,40
26.833307,27.015598,79,91,40
26.999973,27.493029,86,91,40
28.833305,29.015596,67,91,40
28.999971,29.777748,74,91,40
29.833303,30.015594,67,91,40
29.99997,30.777746,74,91,40
30.833303,31.015594,67,91,40
30.99997,31.493025,74,91,40
32.8333,33.01559,74,91,40
32.999966,33.789898,79,91,40
33.833298,34.01559,72,91,40
33.999966,34.789894,77,91,40
34.833298,34.96698,70,91,40
34.999966,35.326355,75,91,40
35.833298,35.966976,70,91,40
35.999966,36.32635,75,91,40
36.833298,36.966976,70,91,40
36.99996,37.133644,75,91,40
37.16663,37.30031,75,91,40
37.333298,37.466976,77,91,40
37.49996,37.633644,79,91,40
37.66663,37.80031,79,92,40
37.833294,37.966976,82,92,40
37.99996,38.133644,79,93,40
38.16663,38.30031,79,93,40
38.333294,38.466976,82,94,40
38.49996,38.63364,87,95,40
38.66663,38.80031,87,95,40
38.833294,38.966976,91,96,40
38.99996,39.354126,91,95,40
39.333294,39.466976,87,95,40
39.49996,39.854126,87,95,40
39.833294,39.966972,84,95,40
39.99996,40.354126,84,95,40
40.333294,40.466972,80,95,40
40.499958,40.854126,80,95,40
40.833294,40.966972,79,95,40
40.999958,41.13364,87,95,40
41.166626,41.300304,87,95,40
41.33329,41.466972,84,95,40
41.499958,41.63364,84,95,40
41.666626,41.800304,84,95,40
41.83329,41.966972,80,95,40
41.999958,42.13364,80,95,40
42.166626,42.300304,80,95,40
42.33329,42.466972,79,95,40
42.499958,42.633636,79,95,40
42.666622,42.800304,79,95,40
42.83329,42.966972,77,95,40
42.999958,43.133636,77,95,40
43.166622,43.300304,77,95,40
43.33329,43.46697,82,95,40
43.499958,43.633636,82,95,40
44.83329,44.96697,58,91,40
44.999954,45.829815,58,91,40
46.833286,46.975647,58,71,40
46.999954,47.163147,58,71,40
47.16662,47.329815,61,71,40
47.333286,47.49648,66,71,40
47.499954,47.663147,70,71,40
47.66662,47.829815,73,74,40
47.833286,47.975647,82,77,40
47.99995,48.460022,85,80,40
48.49995,48.796825,84,78,40
48.833286,48.966965,82,73,40
48.99995,49.770782,81,71,40
49.833282,50.024254,82,71,40
49.99995,50.800297,81,71,40
50.833282,51.024254,82,71,40
50.99995,52.305504,81,71,40
52.83328,52.96696,58,91,40
52.999947,53.13363,58,91,40
53.166615,53.300293,58,91,40
53.33328,53.46696,58,91,40
53.499947,53.633625,58,91,40
53.666615,53.800293,58,91,40
53.83328,53.96696,58,91,40
53.999947,54.133625,58,79,40
54.16661,54.300293,58,86,40
54.33328,54.46696,58,87,40
54.499947,54.633625,58,89,40
54.66661,54.800293,58,91,40
54.83328,54.966957,57,93,40
54.999947,55.133625,57,91,40
55.16661,55.300293,57,91,40
55.33328,55.466957,57,91,40
55.499943,55.633625,57,91,40
55.66661,55.800293,57,91,40
55.83328,55.966957,57,91,40
55.999943,56.133625,57,91,40
56.16661,56.30029,57,91,40
56.33328,56.466957,57,91,40
56.499943,56.633625,57,91,40
56.66661,56.80029,57,91,40
56.833275,56.966957,57,91,40
56.999943,57.133625,57,91,40
57.16661,57.30029,57,91,40
57.333275,57.466957,57,91,40
57.499943,57.63362,57,91,40
57.66661,57.80029,57,91,40
57.833275,57.966957,57,91,40
57.999943,58.13362,57,91,40
58.166607,58.30029,57,91,40
58.333275,58.466957,57,91,40
58.499943,58.63362,57,91,40
58.666607,58.80029,57,91,40
58.833275,58.966953,57,91,40
58.999943,59.13362,57,91,40
59.166607,59.30029,57,91,40
59.333275,59.466953,57,91,40
59.49994,59.63362,57,91,40
59.666607,59.80029,57,91,40
59.833275,59.966953,57,91,40
59.99994,60.13362,57,91,40
60.166607,60.300285,57,91,40
60.333275,60.466953,57,91,40
60.49994,60.63362,57,91,40
61.166607,61.300285,89,91,40
61.33327,61.630146,90,91,40
61.666607,61.800285,89,91,40
61.83327,62.130146,90,91,40
62.166603,62.300285,89,91,40
62.33327,62.630146,90,91,40
62.666603,62.800285,89,91,40
62.83327,63.130146,90,91,40
63.166603,63.300285,89,91,40
63.33327,63.630146,90,91,40
63.666603,63.80028,88,91,40
63.83327,64.13014,89,91,40
64.1666,64.300285,86,91,40
64.33327,64.63014,87,91,40
64.6666,64.800285,84,91,40
64.83327,65.13014,85,91,40
65.1666,65.300285,84,91,40
65.33327,65.63014,85,91,40
65.6666,65.80028,84,91,40
65.83327,66.13014,85,91,40
66.1666,66.30028,84,91,40
66.33327,66.63014,85,91,40
66.6666,66.80028,84,91,40
66.83327,66.96695,82,91,40
66.99993,67.163124,77,91,40
67.33327,67.52424,68,71,40
67.49993,67.854095,69,71,40
67.83327,68.02424,71,71,40
67.99993,68.854095,72,71,40
68.83327,69.02424,73,73,40
68.99993,69.354095,75,77,40
69.33327,69.52424,74,74,40
69.49993,69.82632,79,71,40
71.33326,71.52423,66,71,40
71.49993,71.854095,67,71,40
71.83326,72.02423,69,71,40
71.99993,72.854095,70,71,40
72.83326,73.02423,71,73,40
72.99992,73.354095,74,75,40
73.33326,73.52423,72,73,40
73.49992,73.82632,77,71,40
75.33326,75.52423,65,71,40
75.49992,75.85409,66,71,40
75.83326,76.02423,69,71,40
75.99992,76.51902,70,71,40
76.49992,76.970406,64,71,40
76.99992,78.82284,62,71,40
79.33325,79.52422,65,70,40
79.49992,79.85409,66,70,40
79.83325,80.02422,69,69,40
79.99992,80.51902,70,68,40
80.499916,81.01901,64,66,40
80.999916,82.32284,65,65,40
84.999916,85.51727,84,63,40
85.499916,85.85408,82,63,40
85.833244,85.97561,79,63,40
85.999916,86.51727,77,63,40
86.499916,86.85408,75,63,40
86.833244,86.95651,72,63,40
86.999916,87.28637,74,71,40
87.333244,87.619705,77,71,40
87.66658,87.95303,70,71,40
87.99991,88.28637,74,71,40
88.333244,88.619705,67,71,40
88.66658,88.95303,70,71,40
88.99991,89.44956,72,71,40
89.49991,89.85408,67,71,40
89.833244,89.9756,70,71,40
89.99991,90.44956,77,71,40
90.49991,90.85407,72,71,40
90.833244,90.9756,77,71,40
90.99991,91.326294,82,71,40
95.83324,95.956505,58,85,40
95.9999,96.12317,70,85,40
96.16657,96.28983,70,86,40
96.33324,96.4565,72,87,40
96.4999,96.62317,74,88,40
96.66657,96.78983,74,89,40
96.83324,96.9565,75,89,40
96.9999,97.12317,77,90,40
97.16657,97.28983,77,91,40
97.33324,97.4565,79,92,40
97.4999,98.56587,70,92,40
97.4999,98.56587,80,92,40
98.83324,98.9565,58,71,40
98.9999,99.12316,63,71,40
99.166565,99.28983,63,71,40
99.33324,99.4565,65,71,40
99.4999,99.62316,67,71,40
99.666565,99.78983,67,71,40
99.83324,99.9565,70,71,40
99.9999,100.12316,67,71,40
100.166565,100.28983,67,71,40
100.33324,100.4565,65,71,40
100.4999,100.62316,63,71,40
100.666565,100.78983,63,71,40
100.83323,100.9565,62,71,40
100.9999,101.12316,60,71,40
101.166565,101.28983,60,71,40
101.33323,101.4565,67,79,40
101.4999,101.62316,60,71,40
101.666565,101.789825,60,71,40
101.83323,101.9565,62,71,40
101.9999,102.12316,60,71,40
102.166565,102.289825,60,71,40
102.33323,102.4565,67,79,40
102.4999,102.62316,60,71,40
102.666565,102.789825,60,71,40
102.83323,102.9565,67,71,40
102.99989,103.12316,65,71,40
103.166565,103.289825,65,71,40
103.33323,103.4565,67,71,40
103.49989,103.62316,68,71,40
103.666565,103.789825,68,71,40
103.83323,103.95649,72,72,40
103.99989,104.12316,67,73,40
104.166565,104.289825,67,73,40
104.33323,104.45649,69,74,40
104.49989,104.62316,70,75,40
104.666565,104.789825,70,75,40
104.83323,104.95649,74,76,40
104.99989,105.786354,77,77,40
105.83323,105.95649,70,80,40
105.99989,106.786354,77,81,40
106.83323,106.95649,70,85,40
106.99989,107.12315,75,85,40
107.16656,107.289825,75,85,40
107.33323,107.45649,77,85,40
107.49989,107.62315,79,85,40
107.66656,107.789825,79,85,40
107.83323,107.95649,82,85,40
107.99989,108.12315,79,85,40
108.16656,108.289825,79,85,40
108.33322,108.45649,77,85,40
108.49989,108.62315,75,85,40
108.66656,108.789825,75,85,40
108.83322,108.95649,74,85,40
108.99989,109.12315,72,85,40
109.16656,109.28982,72,85,40
109.33322,109.45649,79,93,40
109.49989,109.62315,72,85,40
109.66656,109.78982,72,85,40
109.83322,109.95649,74,85,40
109.99989,110.12315,72,85,40
110.16656,110.28982,72,85,40
110.33322,110.45649,79,93,40
110.49989,110.62315,72,85,40
110.66656,110.78982,72,85,40
110.83322,110.95649,79,85,40
110.999886,111.12315,77,85,40
111.16656,111.28982,77,85,40
111.33322,111.45649,79,85,40
111.499886,111.62315,80,85,40
111.66656,111.78982,80,85,40
111.83322,111.95648,84,85,40
111.999886,112.33669,87,85,40
112.33322,112.45648,84,86,40
112.499886,112.78635,87,86,40
112.83322,112.95648,84,87,40
112.999886,113.12315,79,87,40
113.16656,113.28982,79,88,40
113.33322,113.45648,81,88,40
113.499886,113.62315,82,88,40
113.66655,113.78982,82,88,40
113.83322,113.95648,86,89,40
113.999886,114.33669,89,89,40
114.33322,114.45648,86,90,40
114.499886,114.74294,89,90,40
114.83322,115.01204,86,91,40
114.999886,115.78287,91,91,40
115.83321,116.00683,86,91,40
115.999886,116.78287,91,91,40
116.83321,117.00683,86,91,40
116.999886,117.123146,91,91,40
117.16655,117.28981,90,91,40
117.33321,117.45648,91,91,40
117.499886,117.623146,93,91,40
117.66655,117.78981,91,91,40
117.83321,117.95648,90,91,40
117.999886,118.123146,91,91,40
118.16655,118.28981,87,91,40
118.33321,118.45648,84,91,40
118.49988,118.623146,89,91,40
118.66655,118.78981,86,91,40
118.83321,119.00683,82,91,40
118.99988,119.78287,87,91,40
119.83321,120.00682,82,91,40
119.99988,120.78287,87,91,40
120.83321,121.00682,82,91,40
120.99988,121.123146,87,91,40
121.16654,121.28981,86,91,40
121.33321,121.456474,87,91,40
121.49988,121.623146,89,91,40
121.66654,121.78981,87,91,40
121.83321,121.956474,86,91,40
121.99988,122.12314,87,91,40
122.16654,122.28981,84,91,40
122.33321,122.456474,81,91,40
122.49988,122.62314,86,91,40
122.66654,122.78981,82,91,40
122.83321,123.02592,79,91,40
122.99988,123.767235,86,91,40
123.833206,124.0155,79,91,40
123.99988,124.767235,86,91,40
124.833206,125.0155,79,91,40
124.99988,125.49293,86,91,40
126.833206,127.015495,67,91,40
126.99987,127.77765,74,91,40
127.833206,128.0155,67,91,40
127.99987,128.77765,74,91,40
128.8332,129.0155,67,91,40
128.99988,129.49292,74,91,40
130.8332,131.01549,74,91,40
130.99986,131.7898,79,91,40
131.8332,132.01549,72,91,40
131.99986,132.7898,77,91,40
132.8332,132.96689,70,91,40
132.99986,133.32625,75,91,40
133.8332,133.96687,70,91,40
133.99986,134.32625,75,91,40
134.83319,134.96687,70,91,40
134.99986,135.13354,75,91,40
135.16653,135.30022,75,91,40
135.33319,135.46687,77,91,40
135.49986,135.63354,79,91,40
135.66653,135.80022,79,92,40
135.83319,135.96687,82,92,40
135.99986,136.13354,79,93,40
136.16653,136.30022,79,93,40
136.33319,136.46687,82,94,40
136.49986,136.63354,87,95,40
136.66653,136.80022,87,95,40
136.83319,136.96687,91,96,40
136.99986,137.35403,91,95,40
137.33319,137.46687,87,95,40
137.49986,137.85403,87,95,40
137.83319,137.96687,84,95,40
137.99986,138.35403,84,95,40
138.33319,138.46687,80,95,40
138.49986,138.85403,80,95,40
138.83319,138.96687,79,95,40
138.99986,139.13354,87,95,40
139.16653,139.3002,87,95,40
139.33319,139.46687,84,95,40
139.49986,139.63354,84,95,40
139.66653,139.8002,84,95,40
139.83319,139.96687,80,95,40
139.99986,140.13354,80,95,40
140.16652,140.3002,80,95,40
140.33319,140.46687,79,95,40
140.49986,140.63354,79,95,40
140.66652,140.8002,79,95,40
140.83319,140.96687,77,95,40
140.99986,141.13354,77,95,40
141.16652,141.3002,77,95,40
141.33319,141.46687,82,95,40
141.49986,141.63354,82,95,40
142.83319,142.96687,58,91,40
142.99986,143.82971,58,91,40
144.83319,144.97556,58,71,40
144.99985,145.16306,58,71,40
145.16652,145.32971,61,71,40
145.33319,145.49638,66,71,40
145.49985,145.66306,70,71,40
145.66652,145.82971,73,74,40
145.83319,145.97556,82,77,40
145.99985,146.45993,85,80,40
146.49985,146.79672,84,78,40
146.83319,146.96687,82,73,40
146.99985,147.77069,81,71,40
147.83319,148.02415,82,71,40
147.99985,148.8002,81,71,40
148.83319,149.02415,82,71,40
148.99985,150.3054,81,71,40
150.83318,150.96686,58,91,40
150.99985,151.13353,58,91,40
151.16652,151.3002,58,91,40
151.33318,151.46686,58,91,40
151.49985,151.63353,58,91,40
151.66652,151.8002,58,91,40
151.83318,151.96686,58,91,40
151.99985,152.13353,58,79,40
152.16652,152.3002,58,86,40
152.33318,152.46686,58,87,40
152.49985,152.63353,58,89,40
152.66652,152.8002,58,91,40
152.83318,152.96686,57,93,40
152.99985,153.13353,57,91,40
153.16652,153.3002,57,91,40
153.33318,153.46686,57,91,40
153.49985,153.63353,57,91,40
153.66652,153.80019,57,91,40
153.83318,153.96686,57,91,40
153.99985,154.13353,57,91,40
154.16652,154.30019,57,91,40
154.33318,154.46686,57,91,40
154.49985,154.63353,57,91,40
154.66652,154.80019,57,91,40
154.83318,154.96686,57,91,40
154.99985,155.13353,57,91,40
155.1665,155.30019,57,91,40
155.33318,155.46686,57,91,40
155.49985,155.63353,57,91,40
155.6665,155.80019,57,91,40
155.83318,155.96686,57,91,40
155.99985,156.13353,57,91,40
156.1665,156.30019,57,91,40
156.33318,156.46686,57,91,40
156.49985,156.63353,57,91,40
156.6665,156.80019,57,91,40
156.83318,156.96686,57,91,40
156.99985,157.13353,57,91,40
157.1665,157.30019,57,91,40
157.33318,157.46686,57,91,40
157.49985,157.63353,57,91,40
157.6665,157.80019,57,91,40
157.83318,157.96686,57,91,40
157.99985,158.13353,57,91,40
158.1665,158.30019,57,91,40
158.33318,158.46686,57,91,40
158.49985,158.63351,57,91,40
159.1665,159.30019,89,91,40
159.33318,159.63005,90,91,40
159.6665,159.80019,89,91,40
159.83318,160.13005,90,91,40
160.1665,160.30019,89,91,40
160.33318,160.63005,90,91,40
160.6665,160.80019,89,91,40
160.83318,161.13005,90,91,40
161.1665,161.30019,89,91,40
161.33318,161.63005,90,91,40
161.6665,161.80019,88,91,40
161.83318,162.13005,89,91,40
162.1665,162.30019,86,91,40
162.33318,162.63005,87,91,40
162.6665,162.80019,84,91,40
162.83318,163.13005,85,91,40
163.1665,163.30019,84,91,40
163.33318,163.63005,85,91,40
163.6665,163.80019,84,91,40
163.83318,164.13005,85,91,40
164.1665,164.30019,84,91,40
164.33318,164.63005,85,91,40
164.6665,164.80019,84,91,40
164.83318,164.96684,82,91,40
164.99983,165.16302,77,91,40
165.33316,165.52414,68,71,40
165.49983,165.854,69,71,40
165.83316,166.02414,71,71,40
165.99983,166.854,72,71,40
166.83316,167.02414,73,73,40
166.99983,167.354,75,77,40
167.33316,167.52414,74,74,40
167.49983,167.82622,79,71,40
169.33316,169.52414,66,71,40
169.49983,169.854,67,71,40
169.83316,170.02414,69,71,40
169.99983,170.85399,70,71,40
170.83316,171.02414,71,73,40
170.99983,171.35399,74,75,40
171.33316,171.52414,72,73,40
171.49983,171.82622,77,71,40
173.33316,173.52414,65,71,40
173.49983,173.85399,66,71,40
173.83316,174.02412,69,71,40
173.99983,174.51892,70,71,40
174.49983,174.9703,64,71,40
174.99983,176.82274,62,71,40
177.33316,177.52412,65,70,40
177.49982,177.85399,66,70,40
177.83316,178.02412,69,69,40
177.99982,178.51892,70,68,40
178.49982,179.01892,64,66,40
178.99982,180.32274,65,65,40
182.99982,183.51718,84,63,40
183.49982,183.85399,82,63,40
183.83315,183.97551,79,63,40
183.99982,184.51718,77,63,40
184.49982,184.85399,75,63,40
184.83315,184.9564,72,63,40
184.99982,185.28627,74,71,40
185.33315,185.61961,77,71,40
185.66647,185.95294,70,71,40
185.99982,186.28627,74,71,40
186.33315,186.6196,67,71,40
186.66647,186.95294,70,71,40
186.99982,187.44946,72,71,40
187.49982,187.85397,67,71,40
187.83315,187.97551,70,71,40
187.99982,188.44946,77,71,40
188.49982,188.85397,72,71,40
188.83315,188.97551,77,71,40
188.99982,189.3262,82,71,40
192.83315,192.9564,55,81,40
192.9998,193.12308,62,82,40
193.16647,193.28973,62,82,40
193.33315,193.4564,64,83,40
193.4998,193.62308,66,84,40
193.66647,193.78973,66,85,40
193.83315,193.9564,69,85,40
193.9998,194.12308,67,86,40
194.16647,194.28973,67,87,40
194.33315,194.4564,69,88,40
194.4998,194.62306,70,89,40
194.66647,194.78973,70,89,40
194.83315,194.9564,76,90,40
194.9998,195.12306,74,91,40
195.16647,195.28973,74,92,40
195.33315,195.4564,76,92,40
195.4998,195.62306,78,93,40
195.66647,195.78973,78,94,40
195.83313,195.9564,81,95,40
195.9998,196.12306,79,95,40
196.16647,196.28973,79,96,40
196.33313,196.4564,81,97,40
196.4998,196.62306,82,98,40
196.66647,196.78973,82,99,40
196.83313,196.9564,88,99,40
196.9998,197.78973,86,100,40
197.83313,197.9564,81,101,40
197.9998,198.78973,86,101,40
198.83313,198.9564,81,101,40
198.9998,199.163,86,101,40
202.4998,203.02757,81,81,40
202.9998,204.01715,79,81,40
203.9998,204.52757,76,81,40
204.4998,204.96855,67,81,40
204.9998,206.01715,71,81,40
205.99979,206.52757,66,81,40
206.49979,206.96854,69,81,40
206.99979,208.01715,67,81,40
207.99979,208.52757,66,81,40
208.49979,208.95985,64,81,40
208.99979,209.32619,71,81,40
210.99979,211.12305,61,81,40
211.16646,211.28972,61,81,40
211.33311,211.45639,68,81,40
211.49979,211.62305,61,81,40
211.66646,211.78972,61,81,40
211.83311,211.95639,62,81,40
211.99979,212.12305,61,81,40
212.16646,212.28972,61,81,40
212.33311,212.45639,68,81,40
212.49979,212.62305,61,81,40
212.66646,212.78972,61,81,40
212.83311,212.95639,62,81,40
212.99979,213.12305,61,81,40
213.16646,213.28972,61,81,40
213.33311,213.45639,69,81,40
213.49979,213.62305,61,81,40
213.66646,213.78972,61,81,40
213.83311,213.95639,62,81,40
213.99979,214.12305,61,81,40
214.16646,214.28972,61,81,40
214.33311,214.45639,69,81,40
214.49979,214.62305,61,81,40
214.66646,214.78972,61,81,40
214.83311,214.95638,62,81,40
214.99979,215.12305,61,81,40
215.16646,215.28972,61,81,40
215.33311,215.45638,71,81,40
215.49979,215.62305,61,81,40
215.66646,215.78972,61,81,40
215.83311,215.95638,62,81,40
215.99979,216.12305,61,81,40
216.16644,216.28972,61,81,40
216.33311,216.45638,71,81,40
216.49979,216.62305,61,81,40
216.66644,216.78972,61,81,40
216.83311,216.95638,62,81,40
216.99979,217.12305,61,81,40
217.16644,217.28972,61,81,40
217.33311,217.45638,72,81,40
217.49979,217.62305,61,81,40
217.66644,217.78972,61,81,40
217.83311,217.95638,62,81,40
217.99979,218.12305,61,81,40
218.16644,218.28972,61,81,40
218.33311,218.45638,72,81,40
218.49979,218.62305,61,81,40
218.66644,218.78972,61,81,40
218.83311,218.95638,62,81,40
218.99979,219.12305,61,81,40
219.16644,219.28972,61,81,40
219.33311,219.45638,73,81,40
219.49979,219.62305,61,81,40
219.66644,219.7897,61,81,40
219.83311,219.95638,62,81,40
219.99979,220.12305,62,81,40
220.16644,220.2897,62,81,40
220.33311,220.45638,74,81,40
220.49979,220.62305,62,81,40
220.66644,220.7897,62,81,40
220.83311,220.95638,63,81,40
220.99979,221.12305,63,81,40
221.16644,221.2897,63,81,40
221.33311,221.45638,75,81,40
222.49977,223.01714,85,81,40
222.99977,223.51714,83,81,40
223.49977,224.01714,80,82,40
223.99977,224.3227,71,83,40
224.49977,225.02756,86,84,40
224.99977,225.52756,84,85,40
225.49977,226.02756,81,86,40
225.99977,226.3227,72,87,40
226.49977,227.02756,87,88,40
226.99977,227.3227,85,89,40
227.49977,228.02756,88,90,40
227.99977,228.3227,86,91,40
228.49977,229.02754,89,92,40
228.99977,229.3227,87,93,40
229.49977,230.3227,90,94,40
230.49977,232.4633,90,96,40
232.49977,232.95984,89,99,40
232.99977,233.32616,94,100,40
260.60226,260.72552,58,91,40
260.76892,260.89218,63,91,40
260.93558,261.05884,63,91,40
261.10226,261.22552,65,91,40
261.26892,261.39218,67,91,40
261.43558,261.55884,67,91,40
261.60226,261.72552,70,91,40
261.76892,261.89218,67,91,40
261.93558,262.05884,67,91,40
262.10226,262.22552,65,91,40
262.26892,262.39218,63,91,40
262.43558,262.55884,63,91,40
262.60226,262.72552,62,91,40
262.76892,262.89218,60,91,40
262.93558,263.05884,60,91,40
263.10223,263.22552,67,99,40
263.26892,263.39218,60,91,40
263.43558,263.55884,60,91,40
263.60223,263.72552,62,91,40
263.76892,263.89218,60,91,40
263.93558,264.05884,60,91,40
264.10223,264.22552,67,99,40
264.26892,264.39218,60,91,40
264.43558,264.55884,60,91,40
264.60223,264.72552,67,91,40
264.76892,264.89218,65,91,40
264.93558,265.05884,65,91,40
265.10223,265.22552,67,92,40
265.26892,265.39218,68,92,40
265.43558,265.55884,68,93,40
265.60223,265.72552,72,94,40
265.76892,265.89218,67,94,40
265.93558,266.05884,67,95,40
266.10223,266.22552,69,95,40
266.26892,266.39218,70,96,40
266.43558,266.55884,70,97,40
266.60223,266.7255,74,97,40
266.76892,267.57446,77,98,40
267.60223,267.7255,70,101,40
267.76892,268.55536,77,101,40
268.60223,268.7255,70,95,40
268.76892,268.89218,75,95,40
268.93558,269.05884,75,95,40
269.10223,269.2255,77,95,40
269.26892,269.39218,79,95,40
269.43558,269.55884,79,95,40
269.60223,269.7255,82,95,40
269.76892,269.89218,79,95,40
269.93558,270.05884,79,95,40
270.10223,270.2255,77,95,40
270.26892,270.39218,75,95,40
270.43558,270.55884,75,95,40
270.60223,270.7255,74,95,40
270.76892,270.89218,72,95,40
270.93558,271.05884,72,95,40
271.10223,271.2255,79,103,40
271.26892,271.39218,72,95,40
271.43558,271.55884,72,95,40
271.60223,271.7255,74,95,40
271.76892,271.89218,72,95,40
271.93558,272.05884,72,95,40
272.10223,272.2255,79,103,40
272.26892,272.39218,72,95,40
272.43558,272.55884,72,95,40
272.60223,272.7255,79,95,40
272.76892,272.89218,77,95,40
272.93558,273.05884,77,95,40
273.10223,273.2255,79,95,40
273.2689,273.39218,80,95,40
273.43558,273.55884,80,95,40
273.60223,273.7255,84,95,40
273.7689,274.11438,87,95,40
274.10223,274.2255,84,96,40
274.2689,274.55536,87,96,40
274.60223,274.7255,84,97,40
274.7689,274.89218,79,97,40
274.93558,275.05884,79,97,40
275.10223,275.2255,81,98,40
275.2689,275.39218,82,98,40
275.43558,275.55884,82,98,40
275.60223,275.7255,86,99,40
275.7689,276.11438,89,99,40
276.10223,276.2255,86,100,40
276.2689,276.52585,89,100,40
276.60223,276.78452,86,100,40
276.7689,277.56232,91,101,40
277.60223,277.78452,86,101,40
277.7689,278.5432,91,101,40
278.60223,278.78452,86,101,40
278.7689,278.89215,91,101,40
278.93558,279.05884,90,101,40
279.10223,279.2255,91,101,40
279.2689,279.39215,93,101,40
279.43558,279.55884,91,101,40
279.60223,279.7255,90,101,40
279.7689,279.89215,91,101,40
279.93558,280.05884,87,101,40
280.10223,280.2255,84,101,40
280.2689,280.39215,89,101,40
280.43558,280.55884,86,101,40
280.60223,280.7932,82,101,40
280.7689,281.57098,87,101,40
281.60223,281.7932,82,101,40
281.7689,282.57098,87,101,40
282.60223,282.7932,82,101,40
282.7689,282.89215,87,101,40
282.93558,283.05884,86,101,40
283.10223,283.2255,87,101,40
283.2689,283.39215,89,101,40
283.43555,283.55884,87,101,40
283.60223,283.7255,86,101,40
283.7689,283.89215,87,101,40
283.93555,284.05884,84,101,40
284.10223,284.2255,81,101,40
284.2689,284.39215,86,101,40
284.43555,284.55884,82,101,40
284.60223,284.7932,79,101,40
284.7689,285.55536,86,101,40
285.60223,285.7932,79,101,40
285.7689,286.55536,86,101,40
286.60223,286.79318,79,101,40
286.7689,287.26193,86,101,40
288.60223,288.78452,67,101,40
288.7689,289.53625,74,101,40
289.60223,289.78452,67,101,40
289.7689,290.53625,74,101,40
290.60223,290.78452,67,101,40
290.7689,291.26193,74,101,40
292.60223,292.78452,74,101,40
292.7689,293.5588,79,101,40
293.6022,293.78452,72,101,40
293.7689,294.5588,77,101,40
294.6022,294.78452,70,101,40
294.7689,295.09528,75,101,40
295.6022,295.78452,70,101,40
295.7689,296.09528,75,101,40
296.6022,296.7255,70,100,40
296.7689,296.89215,75,100,40
296.93555,297.0588,75,99,40
297.1022,297.22546,77,99,40
297.2689,297.39215,79,98,40
297.43555,297.5588,79,98,40
297.6022,297.72546,82,98,40
297.7689,297.89215,79,97,40
297.93555,298.0588,79,97,40
298.1022,298.22546,82,96,40
298.2689,298.39215,87,96,40
298.43555,298.5588,87,95,40
298.6022,298.72546,91,95,40
298.7689,299.10394,91,101,40
299.1022,299.22546,87,101,40
299.2689,299.60394,87,101,40
299.6022,299.72546,84,101,40
299.7689,300.10394,84,101,40
300.1022,300.22546,80,101,40
300.2689,300.60394,80,101,40
300.6022,300.72546,79,101,40
300.7689,300.89215,87,101,40
300.93555,301.0588,87,101,40
301.1022,301.22546,84,101,40
301.2689,301.39215,84,101,40
301.43555,301.5588,84,101,40
301.6022,301.72546,80,101,40
301.7689,301.89215,80,101,40
301.93555,302.0588,80,101,40
302.1022,302.22546,79,101,40
302.2689,302.39215,79,101,40
302.43555,302.5588,79,101,40
302.6022,302.72546,77,101,40
302.7689,302.89215,77,101,40
302.93555,303.0588,77,101,40
303.1022,303.22546,82,101,40
303.2689,303.39215,82,101,40
304.6022,304.72546,63,101,40
304.76886,305.59872,63,101,40
306.6022,306.72546,63,81,40
306.76886,306.93207,63,81,40
306.93555,307.09872,66,81,40
307.1022,307.2654,71,81,40
307.26886,307.43207,75,81,40
307.43555,307.59872,78,81,40
307.6022,307.7654,87,81,40
307.76886,308.22025,90,81,40
308.26886,308.55533,89,81,40
308.6022,308.72546,87,81,40
308.76886,309.5588,86,81,40
309.6022,309.7845,87,81,40
309.76886,310.5588,86,81,40
310.6022,310.7845,87,81,40
310.76886,312.07443,86,81,40
312.6022,312.72546,63,101,40
312.76886,312.89212,63,101,40
312.93555,313.0588,63,101,40
313.1022,313.22546,63,101,40
313.26886,313.39212,63,101,40
313.43555,313.5588,63,101,40
313.6022,313.72546,63,101,40
313.76886,313.89212,63,101,40
313.93552,314.0588,63,101,40
314.1022,314.22546,63,101,40
314.26886,314.39212,63,101,40
314.43552,314.5588,63,101,40
314.6022,314.72546,62,101,40
314.76886,314.89212,62,101,40
314.93552,315.0588,62,101,40
315.1022,315.22546,62,101,40
315.26886,315.39212,62,101,40
315.43552,315.5588,62,101,40
315.6022,315.72546,62,101,40
315.76886,315.89212,62,101,40
315.93552,316.0588,62,101,40
316.1022,316.22546,62,101,40
316.26886,316.39212,62,101,40
316.43552,316.5588,62,101,40
316.6022,316.72546,62,101,40
316.76886,316.89212,62,101,40
316.93552,317.0588,62,101,40
317.1022,317.22546,62,101,40
317.26886,317.39212,62,101,40
317.43552,317.55878,62,101,40
317.6022,317.72546,62,101,40
317.76886,317.89212,62,101,40
317.93552,318.05878,62,101,40
318.1022,318.22546,62,101,40
318.26886,318.39212,62,101,40
318.43552,318.55878,62,101,40
318.6022,318.72546,62,101,40
318.76886,318.89212,62,101,40
318.93552,319.05878,62,101,40
319.1022,319.22546,62,101,40
319.26886,319.39212,62,101,40
319.43552,319.55878,62,101,40
319.6022,319.72546,62,101,40
319.76886,319.89212,62,101,40
319.93552,320.05878,62,101,40
320.1022,320.22546,62,101,40
320.26886,320.39212,62,101,40
320.93552,321.05878,82,101,40
321.1022,321.38864,83,101,40
321.43552,321.55878,82,101,40
321.6022,321.88864,83,101,40
321.93552,322.05878,82,101,40
322.1022,322.38864,83,101,40
322.43552,322.55878,82,101,40
322.6022,322.88864,83,101,40
322.93552,323.05878,82,101,40
323.1022,323.38864,83,101,40
323.43552,323.55878,81,101,40
323.6022,323.88864,82,101,40
323.93552,324.05878,79,101,40
324.10217,324.38864,80,101,40
324.43552,324.55878,77,101,40
324.60217,324.88864,78,101,40
324.93552,325.05878,77,101,40
325.10217,325.38864,78,101,40
325.43552,325.55878,77,101,40
325.60217,325.88864,78,101,40
325.93552,326.05878,77,101,40
326.10217,326.38864,78,101,40
326.43552,326.55878,77,101,40
326.60217,326.72546,75,101,40
326.76886,326.93204,70,101,40
327.10217,327.29315,73,81,40
327.26886,327.62302,74,81,40
327.60217,327.74454,76,81,40
327.76886,328.62302,77,81,40
328.60217,328.79315,78,81,40
328.76886,329.12302,80,81,40
329.10217,329.29315,79,81,40
329.26886,329.59525,84,81,40
331.10217,331.29315,71,81,40
331.26886,331.62302,72,81,40
331.60217,331.74454,74,81,40
331.76886,332.62302,75,81,40
332.60217,332.79315,76,81,40
332.76886,333.12302,79,81,40
333.10217,333.29315,77,81,40
333.26886,333.59525,82,81,40
335.10217,335.29315,70,77,40
335.26883,335.62302,71,77,40
335.60217,335.79315,74,77,40
335.76883,336.28793,75,77,40
336.26883,336.78793,69,77,40
336.76883,338.59177,67,77,40
339.10217,339.29315,70,76,40
339.26883,339.62302,71,76,40
339.60217,339.79315,74,75,40
339.76883,340.28793,75,75,40
340.26883,340.73932,69,74,40
340.76883,342.09177,70,73,40
344.76883,345.2862,77,81,40
345.26883,345.623,75,81,40
345.60217,345.73584,72,81,40
345.76883,346.2862,82,81,40
346.26883,346.623,80,81,40
346.60217,346.73584,77,81,40
346.76883,347.0553,79,81,40
347.10217,347.3886,82,81,40
347.4355,347.72195,75,81,40
347.76883,348.0553,79,81,40
348.10217,348.3886,72,81,40
348.4355,348.72195,75,81,40
348.76883,349.23758,77,81,40
349.26883,349.623,72,81,40
349.60217,349.73584,77,81,40
349.76883,350.23758,82,81,40
350.26883,350.623,77,81,40
350.60217,350.73584,82,81,40
350.76883,351.07266,75,81,40
355.60214,355.72543,63,89,40
355.76883,355.8921,75,91,40
355.9355,356.05875,75,92,40
356.10214,356.22543,77,94,40
356.26883,356.3921,79,96,40
356.4355,356.55875,79,97,40
356.60214,356.72543,82,99,40
356.76883,357.52057,82,100,40
357.60214,357.72543,75,101,40
357.76883,357.8921,79,101,40
357.9355,358.05875,79,101,40
358.10214,358.2254,80,101,40
358.26883,358.3921,82,101,40
358.4355,358.55875,82,101,40
358.60214,358.7254,87,101,40
358.76883,359.0952,87,101,40
360.60214,360.7254,63,101,40
360.76883,360.8921,67,101,40
360.9355,361.05875,70,101,40
361.10214,361.2254,75,101,40
361.26883,361.3921,79,101,40
361.4355,361.55875,82,101,40
361.60214,361.7254,87,101,40
361.76883,362.2202,91,101,40
362.26883,362.55527,89,101,40
362.60214,362.7254,82,101,40
362.76883,363.05527,87,101,40
364.60214,364.7254,63,101,40
364.7688,364.8921,55,101,40
364.9355,365.05875,58,101,40
365.10214,365.2254,63,101,40
365.2688,365.3921,67,101,40
365.4355,365.55875,70,101,40
365.60214,365.7254,75,101,40
365.7688,366.2202,79,101,40
366.2688,366.55527,77,101,40
366.60214,366.7254,70,101,40
366.7688,367.2202,87,101,40
367.2688,367.55527,86,101,40
367.60214,367.7254,82,101,40
367.7688,368.22018,91,101,40
368.2688,368.55527,89,101,40
368.60214,368.7254,86,101,40
368.7688,369.05527,87,101,40
372.60214,372.7254,70,101,40
372.7688,372.89206,75,101,40
372.9355,373.05875,75,101,40
373.10214,373.2254,77,101,40
373.2688,373.39206,79,101,40
373.4355,373.55875,79,101,40
373.60214,373.7254,82,101,40
373.7688,373.89206,79,101,40
373.9355,374.05875,79,101,40
374.10214,374.2254,77,101,40
374.2688,374.39206,75,101,40
374.4355,374.55875,75,101,40
374.60214,374.7254,87,101,40
374.7688,374.89206,84,101,40
374.93546,375.05875,84,101,40
375.10214,375.2254,82,101,40
375.2688,375.39206,80,101,40
375.43546,375.55875,80,101,40
375.60214,375.7254,92,101,40
375.7688,375.89206,89,101,40
375.93546,376.05875,89,101,40
376.10214,376.2254,87,101,40
376.2688,376.39206,86,101,40
376.43546,376.55875,86,101,40
376.60214,376.7254,94,109,40
376.7688,376.89206,91,109,40
376.93546,377.05875,91,109,40
377.10214,377.2254,89,109,40
377.2688,377.39206,87,109,40
377.43546,377.55875,87,109,40
377.60214,377.7254,82,109,40
377.7688,377.89206,87,109,40
377.93546,378.05875,87,109,40
378.10214,378.2254,89,109,40
378.2688,378.39206,91,109,40
378.43546,378.55872,91,109,40
378.60214,378.7254,94,109,40
378.7688,378.89206,91,109,40
378.93546,379.05872,91,109,40
379.10214,379.2254,89,109,40
379.2688,379.39206,87,109,40
379.43546,379.55872,87,109,40
379.60214,379.7254,82,109,40
379.7688,379.89206,87,109,40
379.93546,380.05872,87,109,40
380.10214,380.2254,89,109,40
380.2688,380.39206,91,109,40
380.43546,380.55872,91,109,40
380.60214,380.7254,94,109,40
380.7688,380.89206,91,109,40
380.93546,381.05872,91,109,40
381.10214,381.2254,89,109,40
381.2688,381.39206,87,109,40
381.43546,381.55872,87,109,40
381.60214,381.7254,82,109,40
381.7688,381.89206,79,109,40
381.93546,382.05872,79,109,40
382.10214,382.2254,77,109,40
382.2688,382.39206,75,109,40
382.43546,382.55872,75,109,40
382.60214,382.7254,70,109,40
382.7688,382.89206,67,109,40
382.93546,383.05872,67,109,40
383.10214,383.2254,70,109,40
383.2688,383.39206,67,109,40
383.43546,383.55872,67,109,40
383.60214,383.7254,82,109,40
383.7688,383.89206,79,109,40
383.93546,384.05872,79,109,40
384.10214,384.2254,82,109,40
384.2688,384.39206,79,109,40
384.43546,384.55872,79,109,40
384.60214,384.7254,82,109,40
384.7688,385.09866,79,109,40
385.7688,386.09518,75,109,40
385.7688,386.09518,87,109,40
386.7688,388.90353,63,109,40
386.7688,388.90353,55,109,40
8.833324,8.944435,58,90,60
8.999991,9.111102,63,90,60
9.166657,9.277768,63,90,60
9.333324,9.444435,65,90,60
9.49999,9.611101,67,90,60
9.666657,9.777768,67,90,60
9.8333235,9.944434,70,90,60
9.99999,10.111101,67,90,60
10.1666565,10.277767,67,90,60
10.333323,10.444434,65,90,60
10.4999895,10.6111,63,90,60
10.666656,10.777767,63,90,60
10.833323,10.944433,62,90,60
10.999989,11.1111,60,90,60
11.333322,11.444433,55,90,60
11.499989,11.611099,60,90,60
11.833322,11.944432,67,90,60
11.999988,12.111099,60,90,60
12.333321,12.444432,55,90,60
12.499988,12.611098,60,90,60
16.833317,16.996511,62,100,60
16.999983,17.666649,67,100,60
17.833315,17.99651,62,100,60
17.999983,18.666649,67,100,60
18.833315,18.99651,62,100,60
18.99998,19.222202,67,100,60
20.833313,20.996508,58,100,60
20.999979,21.666645,63,100,60
21.833311,21.996506,58,100,60
21.999977,22.666643,63,100,60
22.833311,22.996504,58,100,60
22.999977,23.222198,63,100,60
24.83331,24.996502,55,100,60
24.999975,25.666641,62,100,60
25.833307,25.996502,55,100,60
25.999973,26.66664,62,100,60
26.833307,26.9965,55,100,60
26.999973,27.333305,62,100,60
28.833305,28.996498,55,100,60
28.999971,29.666637,62,100,60
29.833303,29.996498,55,100,60
29.99997,30.666636,62,100,60
30.833303,30.996496,55,100,60
30.99997,31.333302,62,100,60
32.8333,32.996494,62,100,60
32.999966,33.666634,67,100,60
33.833298,33.996494,60,100,60
33.999966,34.666634,65,100,60
35.333298,35.49649,58,100,60
35.499966,35.722187,63,100,60
36.333298,36.44441,58,100,60
36.49996,36.611076,63,100,60
36.66663,36.77774,63,100,60
36.833298,36.94441,58,100,60
36.99996,37.111073,63,85,60
37.16663,37.27774,63,87,60
37.333298,37.44441,65,89,60
37.49996,37.611073,67,91,60
37.66663,37.77774,67,93,60
37.833294,37.944405,70,95,60
37.99996,38.111073,67,97,60
38.16663,38.27774,67,99,60
38.333294,38.444405,70,101,60
38.49996,38.611073,67,103,60
38.66663,38.77774,67,105,60
38.833294,38.944405,63,107,60
38.99996,39.222183,63,109,60
40.999958,41.32982,63,100,60
41.33329,41.444405,68,100,60
41.499958,41.82982,68,100,60
41.83329,41.9444,65,100,60
41.999958,42.32982,65,100,60
42.33329,42.4444,63,100,60
42.499958,42.82982,63,100,60
42.83329,42.9444,58,100,60
42.999958,43.33329,58,100,60
43.499958,43.61107,58,100,60
44.83329,44.9444,58,85,60
44.999954,45.111065,58,110,60
45.166622,45.277733,58,60,60
45.333286,45.4444,58,60,60
45.499954,45.611065,58,60,60
45.666622,45.777733,58,60,60
45.833286,45.944397,58,60,60
45.999954,46.111065,58,60,60
46.166622,46.277733,58,60,60
46.333286,46.444397,58,60,60
46.499954,46.611065,58,60,60
46.66662,46.777733,58,60,60
46.833286,46.944397,58,60,60
46.999954,47.111065,58,60,60
47.16662,47.27773,58,60,60
47.333286,47.444397,58,60,60
47.499954,47.611065,58,60,60
47.66662,47.77773,58,60,60
47.833286,47.944397,58,60,60
47.99995,48.11106,58,60,60
48.16662,48.27773,58,60,60
48.333286,48.444397,58,60,60
48.49995,48.61106,58,60,60
48.66662,48.77773,58,60,60
48.833286,48.944397,58,60,60
48.99995,49.11106,58,60,60
49.16662,49.27773,58,60,60
49.333282,49.444393,58,60,60
49.49995,49.61106,58,60,60
49.66662,49.77773,58,60,60
49.833282,49.944393,58,60,60
49.99995,50.11106,58,60,60
50.16662,50.27773,58,60,60
50.333282,50.444393,58,60,60
50.49995,50.61106,58,60,60
50.666615,50.777725,58,60,60
50.833282,50.944393,58,60,60
50.99995,51.11106,58,60,60
51.166615,51.277725,58,60,60
51.333282,51.444393,58,60,60
51.499947,51.61106,58,60,60
51.666615,51.777725,58,60,60
51.833282,51.944393,58,60,60
51.999947,52.111057,58,60,60
52.166615,52.277725,58,60,60
52.333282,52.444393,58,60,60
52.499947,52.722168,58,60,60
52.83328,52.944393,46,100,60
52.999947,53.666615,46,100,60
53.83328,53.94439,46,100,60
53.999947,54.66661,46,100,60
54.83328,54.94439,45,100,60
54.999947,59.666607,45,100,60
61.166607,61.277718,65,100,60
61.33327,61.555492,66,100,60
61.666607,61.777718,65,100,60
61.83327,62.055492,66,100,60
62.166603,62.277714,65,100,60
62.33327,62.555492,66,100,60
62.666603,62.777714,65,100,60
62.83327,63.055492,66,100,60
63.166603,63.277714,65,100,60
63.33327,63.555492,66,100,60
63.666603,63.777714,64,100,60
63.83327,64.05549,65,100,60
64.1666,64.27771,62,100,60
64.33327,64.55549,63,100,60
64.6666,64.77771,60,100,60
64.83327,65.05549,61,100,60
65.1666,65.27771,60,100,60
65.33327,65.55549,61,100,60
65.6666,65.77771,60,100,60
65.83327,66.05549,61,100,60
66.1666,66.27771,60,100,60
66.33327,66.55549,61,100,60
66.6666,66.77771,60,100,60
66.83327,66.944374,58,100,60
66.99993,67.111046,65,100,60
68.33327,68.49646,64,70,60
68.49993,69.666595,65,70,60
72.33326,72.49645,62,70,60
72.49992,73.666595,63,70,60
75.49992,75.99645,54,85,60
75.99992,76.99645,58,85,60
76.99992,78.66659,59,85,60
79.49992,79.996445,54,85,60
79.99992,82.32978,58,85,60
82.999916,91.22213,46,85,60
94.83324,94.94435,51,85,60
94.99991,95.111015,58,85,60
95.16657,95.27768,58,86,60
95.33324,95.44435,60,87,60
95.4999,95.72213,62,88,60
95.83324,95.94435,58,89,60
95.9999,96.111015,62,90,60
96.16657,96.27768,62,91,60
96.33324,96.44435,63,92,60
96.4999,96.611015,65,92,60
96.66657,96.77768,65,93,60
96.83324,96.94435,68,94,60
96.9999,97.111015,65,95,60
97.16657,97.27768,65,96,60
97.33324,97.44434,63,96,60
97.4999,98.44434,62,97,60
106.83323,106.944336,58,90,60
106.99989,107.11101,63,90,60
107.16656,107.27767,63,90,60
107.33323,107.444336,65,90,60
107.49989,107.611,67,90,60
107.66656,107.77767,67,90,60
107.83323,107.944336,70,90,60
107.99989,108.111,67,90,60
108.16656,108.27767,67,90,60
108.33322,108.444336,65,90,60
108.49989,108.611,63,90,60
108.66656,108.77767,63,90,60
108.83322,108.944336,62,90,60
108.99989,109.111,60,90,60
109.33322,109.444336,55,90,60
109.49989,109.611,60,90,60
109.83322,109.944336,67,90,60
109.99989,110.111,60,90,60
110.33322,110.444336,55,90,60
110.49989,110.611,60,90,60
114.83322,114.996414,62,100,60
114.999886,115.66655,67,100,60
115.83321,115.996414,62,100,60
115.999886,116.66655,67,100,60
116.83321,116.996414,62,100,60
116.999886,117.22211,67,100,60
118.83321,118.99641,58,100,60
118.99988,119.66655,63,100,60
119.83321,119.99641,58,100,60
119.99988,120.66655,63,100,60
120.83321,120.99641,58,100,60
120.99988,121.2221,63,100,60
122.83321,122.99641,55,100,60
122.99988,123.66654,62,100,60
123.833206,123.99641,55,100,60
123.99988,124.66654,62,100,60
124.833206,124.99641,55,100,60
124.99988,125.333206,62,100,60
126.833206,126.9964,55,100,60
126.99987,127.66654,62,100,60
127.833206,127.9964,55,100,60
127.99987,128.66653,62,100,60
128.8332,128.9964,55,100,60
128.99988,129.3332,62,100,60
130.8332,130.9964,62,100,60
130.99986,131.66653,67,100,60
131.8332,131.9964,60,100,60
131.99986,132.66653,65,100,60
133.3332,133.4964,58,100,60
133.49986,133.72209,63,100,60
134.3332,134.4443,58,100,60
134.49986,134.61098,63,100,60
134.66653,134.77765,63,100,60
134.83319,134.9443,58,100,60
134.99986,135.11098,63,85,60
135.16653,135.27765,63,87,60
135.33319,135.4443,65,89,60
135.49986,135.61098,67,91,60
135.66653,135.77765,67,93,60
135.83319,135.9443,70,95,60
135.99986,136.11098,67,97,60
136.16653,136.27765,67,99,60
136.33319,136.4443,70,101,60
136.49986,136.61098,67,103,60
136.66653,136.77763,67,105,60
136.83319,136.9443,63,107,60
136.99986,137.22209,63,109,60
138.99986,139.32973,63,100,60
139.33319,139.4443,68,100,60
139.49986,139.82973,68,100,60
139.83319,139.9443,65,100,60
139.99986,140.32973,65,100,60
140.33319,140.4443,63,100,60
140.49986,140.82973,63,100,60
140.83319,140.9443,58,100,60
140.99986,141.33319,58,100,60
141.49986,141.61096,58,100,60
142.83319,142.9443,58,85,60
142.99986,143.11096,58,110,60
143.16652,143.27763,58,60,60
143.33319,143.4443,58,60,60
143.49986,143.61096,58,60,60
143.66652,143.77763,58,60,60
143.83319,143.9443,58,60,60
143.99986,144.11096,58,60,60
144.16652,144.27763,58,60,60
144.33319,144.4443,58,60,60
144.49986,144.61096,58,60,60
144.66652,144.77763,58,60,60
144.83319,144.9443,58,60,60
144.99985,145.11096,58,60,60
145.16652,145.27763,58,60,60
145.33319,145.4443,58,60,60
145.49985,145.61096,58,60,60
145.66652,145.77763,58,60,60
145.83319,145.9443,58,60,60
145.99985,146.11096,58,60,60
146.16652,146.27763,58,60,60
146.33319,146.4443,58,60,60
146.49985,146.61096,58,60,60
146.66652,146.77763,58,60,60
146.83319,146.94429,58,60,60
146.99985,147.11096,58,60,60
147.16652,147.27763,58,60,60
147.33319,147.44429,58,60,60
147.49985,147.61096,58,60,60
147.66652,147.77763,58,60,60
147.83319,147.94429,58,60,60
147.99985,148.11096,58,60,60
148.16652,148.27763,58,60,60
148.33319,148.44429,58,60,60
148.49985,148.61096,58,60,60
148.66652,148.77763,58,60,60
148.83319,148.94429,58,60,60
148.99985,149.11096,58,60,60
149.16652,149.27763,58,60,60
149.33319,149.44429,58,60,60
149.49985,149.61096,58,60,60
149.66652,149.77763,58,60,60
149.83319,149.94429,58,60,60
149.99985,150.11096,58,60,60
150.16652,150.27763,58,60,60
150.33318,150.44429,58,60,60
150.49985,150.72208,58,60,60
150.83318,150.94429,46,100,60
150.99985,151.66652,46,100,60
151.83318,151.94429,46,100,60
151.99985,152.66652,46,100,60
152.83318,152.94429,45,100,60
152.99985,157.6665,45,100,60
159.1665,159.27762,65,100,60
159.33318,159.55539,66,100,60
159.6665,159.77762,65,100,60
159.83318,160.05539,66,100,60
160.1665,160.27762,65,100,60
160.33318,160.55539,66,100,60
160.6665,160.77762,65,100,60
160.83318,161.05539,66,100,60
161.1665,161.27762,65,100,60
161.33318,161.55539,66,100,60
161.6665,161.77762,64,100,60
161.83318,162.05539,65,100,60
162.1665,162.27762,62,100,60
162.33318,162.55539,63,100,60
162.6665,162.77762,60,100,60
162.83318,163.05539,61,100,60
163.1665,163.27762,60,100,60
163.33318,163.55539,61,100,60
163.6665,163.77762,60,100,60
163.83318,164.05539,61,100,60
164.1665,164.27762,60,100,60
164.33318,164.55539,61,100,60
164.6665,164.77762,60,100,60
164.83318,164.94427,58,100,60
164.99983,165.11095,65,100,60
166.33316,166.49637,64,70,60
166.49983,167.6665,65,70,60
170.33316,170.49635,62,70,60
170.49983,171.66649,63,70,60
173.49983,173.99635,54,85,60
173.99983,174.99635,58,85,60
174.99983,176.66649,59,85,60
177.49982,177.99635,54,85,60
177.99982,180.32968,58,85,60
180.99982,189.22203,46,85,60
192.83315,192.94424,55,100,60
192.9998,193.66647,62,100,60
193.83315,193.94424,62,100,60
193.9998,194.33315,62,100,60
194.83315,194.94424,55,100,60
194.9998,195.66647,62,100,60
195.83313,195.94424,62,100,60
195.9998,196.33313,62,100,60
196.83313,196.94424,55,100,60
196.9998,197.66647,62,100,60
197.83313,197.94424,57,100,60
197.9998,198.66647,62,100,60
198.83313,198.94424,57,100,60
198.9998,199.11092,62,100,60
202.4998,202.99632,63,60,60
202.9998,203.99632,64,60,60
203.9998,204.49632,67,60,60
204.4998,204.83313,64,60,60
204.9998,205.99632,63,60,60
205.99979,206.49632,63,60,60
206.49979,206.83313,63,60,60
206.99979,207.99632,64,60,60
207.99979,208.49632,63,60,60
208.49979,208.99632,61,60,60
208.99979,209.22202,63,60,60
210.99979,211.1109,61,60,60
211.49979,211.6109,61,60,60
211.99979,212.1109,61,60,60
212.49979,212.6109,61,60,60
212.99979,213.1109,61,60,60
213.49979,213.6109,61,60,60
213.99979,214.1109,61,60,60
214.49979,214.6109,61,60,60
214.99979,215.1109,61,60,60
215.49979,215.6109,61,60,60
215.99979,216.1109,61,60,60
216.49979,216.6109,61,60,60
216.99979,217.1109,61,60,60
217.49979,217.6109,61,60,60
217.99979,218.11089,61,60,60
218.49979,218.61089,61,60,60
218.99979,219.11089,61,60,60
219.49979,219.61089,61,60,60
219.99979,220.11089,62,60,60
220.49979,220.61089,62,60,60
220.99979,221.11089,63,60,60
222.49977,222.9963,67,60,60
222.99977,224.32964,68,61,60
224.49977,224.9963,68,67,60
224.99977,226.32964,69,69,60
226.49977,226.9963,69,75,60
226.99977,227.9963,70,77,60
227.99977,228.3331,71,80,60
228.49977,228.99629,62,82,60
228.99977,229.32964,60,84,60
229.49977,230.22198,63,86,60
230.49977,232.3331,63,90,60
232.49977,232.8331,65,98,60
232.99977,233.22198,58,99,60
234.8331,234.99629,65,100,60
234.99977,235.66643,70,100,60
235.8331,235.99629,65,100,60
235.99977,236.66643,70,100,60
236.8331,236.99629,61,100,60
236.99976,237.66643,70,100,60
237.8331,237.99629,61,100,60
237.99976,238.66643,70,100,60
238.8331,238.99629,58,100,60
238.99976,239.49629,70,100,60
239.49976,239.82962,68,100,60
239.8331,239.9442,66,100,60
239.99976,240.49629,66,100,60
240.49976,240.82962,65,100,60
240.8331,240.9442,63,100,60
240.99976,241.22198,70,100,60
242.49976,242.99629,65,85,60
242.99976,244.38736,70,85,60
244.56807,245.10648,61,80,60
245.11024,246.58784,66,80,60
246.77654,247.33864,57,80,60
247.34256,248.4707,62,80,60
248.47464,249.05879,60,80,60
249.06287,249.45503,58,80,60
249.65111,250.82349,58,80,60
250.82758,251.41173,57,80,60
251.4158,251.80797,55,80,60
252.00404,253.50954,62,80,60
254.07951,254.26427,57,75,60
254.26819,255.7737,62,75,60
256.3357,256.51266,58,84,60
256.51642,257.23932,63,85,60
257.42004,257.597,58,89,60
257.60077,258.32364,64,90,60
258.50436,258.68134,58,94,60
258.6851,260.43558,65,95,60
268.60223,268.71335,58,100,60
268.76892,268.88004,63,100,60
268.93558,269.0467,63,100,60
269.10223,269.21335,65,100,60
269.26892,269.38004,67,100,60
269.43558,269.5467,67,100,60
269.60223,269.71335,70,100,60
269.76892,269.88,67,100,60
269.93558,270.0467,67,100,60
270.10223,270.21335,65,100,60
270.26892,270.38,63,100,60
270.43558,270.5467,63,100,60
270.60223,270.71335,62,100,60
270.76892,270.88,60,100,60
271.10223,271.21335,55,100,60
271.26892,271.38,60,100,60
271.60223,271.71335,67,100,60
271.76892,271.88,60,100,60
272.10223,272.21335,55,100,60
272.26892,272.38,60,100,60
276.60223,276.76544,62,100,60
276.7689,277.43558,67,100,60
277.60223,277.76544,62,100,60
277.7689,278.43558,67,100,60
278.60223,278.76544,62,100,60
278.7689,278.99112,67,100,60
280.60223,280.7654,58,100,60
280.7689,281.43558,63,100,60
281.60223,281.7654,58,100,60
281.7689,282.43558,63,100,60
282.60223,282.7654,58,100,60
282.7689,282.99112,63,100,60
284.60223,284.7654,55,100,60
284.7689,285.43555,62,100,60
285.60223,285.7654,55,100,60
285.7689,286.43555,62,100,60
286.60223,286.7654,55,100,60
286.7689,286.99112,62,100,60
288.60223,288.7654,55,100,60
288.7689,289.43555,62,100,60
289.60223,289.7654,55,100,60
289.7689,290.43555,62,100,60
290.60223,290.7654,55,100,60
290.7689,290.99112,62,100,60
292.60223,292.7654,62,100,60
292.7689,293.43555,67,100,60
293.6022,293.7654,60,100,60
293.7689,294.43555,65,100,60
295.1022,295.2654,58,100,60
295.2689,295.49112,63,100,60
296.1022,296.21332,58,100,60
296.2689,296.38,63,100,60
296.43555,296.54666,63,100,60
296.6022,296.71332,58,100,60
296.7689,296.88,63,100,60
296.93555,297.04666,63,100,60
297.1022,297.21332,65,100,60
297.2689,297.38,67,100,60
297.43555,297.54666,67,100,60
297.6022,297.71332,70,100,60
297.7689,297.88,70,100,60
297.93555,298.04666,70,100,60
298.1022,298.21332,67,100,60
298.2689,298.38,67,100,60
298.43555,298.54666,67,100,60
298.6022,298.71332,63,100,60
298.7689,298.88,63,100,60
300.6022,300.71332,63,100,60
300.7689,301.09872,63,100,60
301.1022,301.21332,68,100,60
301.2689,301.59872,68,100,60
301.6022,301.71332,65,100,60
301.7689,302.09872,65,100,60
302.1022,302.21332,63,100,60
302.2689,302.59872,63,100,60
302.6022,302.71332,58,100,60
302.7689,303.09872,58,100,60
303.2689,303.37997,58,100,60
304.6022,304.71332,63,80,60
304.76886,304.87997,63,110,60
304.93555,305.04666,63,60,60
305.1022,305.21332,63,60,60
305.26886,305.37997,63,60,60
305.43555,305.54666,63,60,60
305.6022,305.71332,63,60,60
305.76886,305.87997,63,60,60
305.93555,306.04666,63,60,60
306.1022,306.21332,63,60,60
306.26886,306.37997,63,60,60
306.43555,306.54666,63,60,60
306.6022,306.71332,63,60,60
306.76886,306.87997,63,60,60
306.93555,307.04666,63,60,60
307.1022,307.21332,63,60,60
307.26886,307.37997,63,60,60
307.43555,307.54666,63,60,60
307.6022,307.71332,63,60,60
307.76886,307.87997,63,60,60
307.93555,308.04666,63,60,60
308.1022,308.21332,63,60,60
308.26886,308.37997,63,60,60
308.43555,308.54666,63,60,60
308.6022,308.71332,63,60,60
308.76886,308.87997,63,60,60
308.93555,309.04666,63,60,60
309.1022,309.21332,63,60,60
309.26886,309.37997,63,60,60
309.43555,309.54666,63,60,60
309.6022,309.71332,63,60,60
309.76886,309.87997,63,60,60
309.93555,310.04666,63,60,60
310.1022,310.21332,63,60,60
310.26886,310.37997,63,60,60
310.43555,310.54663,63,60,60
310.6022,310.71332,63,60,60
310.76886,310.87997,63,60,60
310.93555,311.04663,63,60,60
311.1022,311.21332,63,60,60
311.26886,311.37997,63,60,60
311.43555,311.54663,63,60,60
311.6022,311.71332,63,60,60
311.76886,311.87997,63,60,60
311.93555,312.04663,63,60,60
312.1022,312.21332,63,60,60
312.26886,312.4911,63,60,60
312.6022,312.71332,51,100,60
312.76886,313.43555,51,100,60
313.6022,313.71332,51,100,60
313.76886,314.43552,51,100,60
314.6022,314.71332,50,100,60
314.76886,320.43552,50,100,60
320.93552,321.04663,70,100,60
321.1022,321.3244,71,100,60
321.43552,321.54663,70,100,60
321.6022,321.8244,71,100,60
321.93552,322.04663,70,100,60
322.1022,322.3244,71,100,60
322.43552,322.54663,70,100,60
322.6022,322.8244,71,100,60
322.93552,323.04663,70,100,60
323.1022,323.3244,71,100,60
323.43552,323.54663,69,100,60
323.6022,323.8244,70,100,60
323.93552,324.04663,67,100,60
324.10217,324.3244,68,100,60
324.43552,324.54663,65,100,60
324.60217,324.8244,66,100,60
324.93552,325.04663,65,100,60
325.10217,325.3244,66,100,60
325.43552,325.54663,65,100,60
325.60217,325.8244,66,100,60
325.93552,326.04663,65,100,60
326.10217,326.3244,66,100,60
326.43552,326.54663,65,100,60
326.60217,326.7133,63,100,60
326.76886,326.87997,58,100,60
328.10217,328.26538,69,70,60
328.26886,329.43552,70,70,60
332.10217,332.26538,67,70,60
332.26886,333.43552,68,70,60
335.76883,336.76538,63,60,60
336.76883,338.0987,64,60,60
339.76883,340.76538,63,80,60
340.76883,342.0987,63,80,60
342.76883,346.4355,51,80,60
346.76883,350.4355,39,80,60
354.76883,354.87994,63,85,60
354.9355,355.0466,63,86,60
355.10214,355.21326,65,87,60
355.26883,355.37994,67,88,60
355.4355,355.5466,67,89,60
355.60214,355.71326,70,91,60
355.76883,356.4355,70,92,60
356.60214,356.71326,63,98,60
356.76883,356.87994,67,99,60
356.9355,357.0466,67,101,60
357.10214,357.21326,68,102,60
357.26883,357.37994,70,103,60
357.4355,357.5466,70,104,60
357.60214,357.71326,75,106,60
357.76883,359.0987,75,107,60
360.60214,360.71326,51,100,60
360.76883,360.87994,46,100,60
360.9355,361.0466,51,100,60
361.10214,361.21326,55,100,60
361.26883,361.3799,58,100,60
361.4355,361.5466,63,100,60
361.60214,361.71326,67,100,60
361.76883,362.10214,70,100,60
362.26883,362.60214,68,100,60
362.76883,362.99103,66,100,60
364.60214,364.71326,51,100,60
364.7688,364.8799,46,100,60
364.9355,365.0466,51,100,60
365.10214,365.21326,55,100,60
365.2688,365.3799,58,100,60
365.4355,365.5466,63,100,60
365.60214,365.71326,67,100,60
365.7688,366.10214,70,100,60
366.2688,366.60214,68,100,60
366.7688,367.10214,67,100,60
367.2688,367.60214,65,100,60
367.7688,368.10214,70,100,60
368.2688,368.60214,68,100,60
368.7688,368.99103,67,100,60
370.60214,370.71326,58,100,60
370.7688,370.8799,63,100,60
370.9355,371.0466,63,100,60
371.10214,371.21326,65,100,60
371.2688,371.3799,67,100,60
371.4355,371.54657,67,100,60
371.60214,371.71326,70,100,60
371.7688,371.8799,67,100,60
371.9355,372.04657,67,100,60
372.10214,372.21326,65,100,60
372.2688,372.3799,63,100,60
372.4355,372.54657,63,100,60
372.60214,372.71326,58,100,60
372.7688,373.4355,61,110,60
373.60214,373.71326,58,100,60
373.7688,374.4355,61,110,60
374.60214,374.71326,60,100,60
374.7688,375.43546,63,110,60
375.60214,375.71326,62,100,60
375.7688,376.43546,68,110,60
376.60214,376.71326,58,100,60
376.7688,376.8799,63,90,60
376.93546,377.04657,63,94,60
377.10214,377.21326,65,99,60
377.2688,377.3799,67,104,60
377.43546,377.54657,67,109,60
377.60214,377.71326,70,114,60
377.7688,377.8799,67,110,60
377.93546,378.04657,67,107,60
378.10214,378.21326,65,103,60
378.2688,378.3799,63,99,60
378.43546,378.54657,63,95,60
378.60214,378.71326,58,91,60
378.7688,378.8799,63,90,60
378.93546,379.04657,63,94,60
379.10214,379.21326,65,99,60
379.2688,379.3799,67,104,60
379.43546,379.54657,67,109,60
379.60214,379.71326,70,114,60
379.7688,379.8799,67,110,60
379.93546,380.04657,67,107,60
380.10214,380.21326,65,103,60
380.2688,380.3799,63,99,60
380.43546,380.54657,63,95,60
380.60214,380.71326,58,91,60
380.7688,380.8799,63,100,60
380.93546,381.04657,63,100,60
381.10214,381.21326,58,100,60
381.2688,381.3799,63,70,60
381.43546,381.54657,63,72,60
381.60214,381.71323,58,75,60
381.7688,381.8799,63,78,60
381.93546,382.04657,63,80,60
382.10214,382.21323,58,83,60
382.2688,382.3799,63,86,60
382.43546,382.54657,63,88,60
382.60214,382.71323,58,91,60
382.7688,382.8799,63,94,60
382.93546,383.04657,63,97,60
383.10214,383.21323,58,99,60
383.2688,383.3799,63,102,60
383.43546,383.54657,63,105,60
383.60214,383.71323,58,107,60
383.7688,383.8799,63,110,60
383.93546,384.04657,63,113,60
384.10214,384.21323,58,116,60
384.2688,384.3799,63,118,60
384.43546,384.54657,63,121,60
384.60214,384.71323,58,124,60
384.7688,384.99103,63,126,60
385.7688,385.99103,67,127,60
386.7688,388.9436,51,127,60
0.8333325,0.95659626,58,56,0
1.1666656,1.2899293,63,56,0
1.1666656,1.2899293,55,56,0
1.333332,1.4565958,58,56,0
1.333332,1.4565958,65,56,0
1.666665,1.7899288,63,56,0
1.666665,1.7899288,67,56,0
1.8333315,1.9565953,65,56,0
1.8333315,1.9565953,70,56,0
2.1666646,2.2899282,63,56,0
2.1666646,2.2899282,67,56,0
2.333331,2.4565947,58,56,0
2.333331,2.4565947,65,56,0
2.666664,2.7899277,63,56,0
2.666664,2.7899277,55,56,0
2.8333304,2.9565942,55,56,0
2.8333304,2.9565942,62,56,0
3.1666634,3.2899272,60,56,0
3.1666634,3.2899272,55,56,0
3.33333,3.4565938,62,66,0
3.33333,3.4565938,67,66,0
3.33333,3.4565938,55,66,0
3.666663,3.7899268,60,56,0
3.666663,3.7899268,55,56,0
3.8333294,3.9565933,62,56,0
3.8333294,3.9565933,55,56,0
4.1666627,4.289926,60,56,0
4.1666627,4.289926,55,56,0
4.333329,4.4565926,55,66,0
4.333329,4.4565926,62,66,0
4.333329,4.4565926,67,66,0
4.666662,4.7899256,60,56,0
4.666662,4.7899256,55,56,0
4.8333287,4.956592,63,56,0
4.8333287,4.956592,55,56,0
4.8333287,4.956592,67,56,0
5.1666613,5.289925,56,56,0
5.1666613,5.289925,65,56,0
5.333328,5.4565916,60,57,0
5.333328,5.4565916,67,57,0
5.666661,5.7899246,60,61,0
5.666661,5.7899246,68,61,0
5.8333273,5.956591,63,63,0
5.8333273,5.956591,72,63,0
5.8333273,5.956591,60,63,0
6.1666603,6.289924,58,66,0
6.1666603,6.289924,67,66,0
6.333327,6.4565907,69,68,0
6.333327,6.4565907,62,68,0
6.66666,6.7899237,70,71,0
6.66666,6.7899237,62,71,0
6.8333263,6.95659,74,73,0
6.8333263,6.95659,70,73,0
6.8333263,6.95659,62,73,0
7.1666594,7.289923,77,76,0
7.1666594,7.289923,65,76,0
7.1666594,7.289923,74,76,0
7.333326,7.4565897,70,76,0
7.666659,7.7899227,65,76,0
7.8333254,7.956589,58,76,0
8.166658,8.289923,74,76,0
8.166658,8.289923,77,76,0
8.166658,8.289923,65,76,0
8.333325,8.456589,70,76,0
8.666658,8.789922,65,76,0
8.833324,8.956588,58,70,0
9.166657,9.289921,67,70,0
9.166657,9.289921,75,70,0
9.333324,9.456588,70,70,0
9.333324,9.456588,77,70,0
9.333324,9.456588,65,70,0
9.666657,9.789921,79,70,0
9.666657,9.789921,75,70,0
9.666657,9.789921,67,70,0
9.8333235,9.956587,82,70,0
9.8333235,9.956587,74,70,0
9.8333235,9.956587,70,70,0
10.1666565,10.28992,79,70,0
10.1666565,10.28992,75,70,0
10.1666565,10.28992,67,70,0
10.333323,10.456587,70,70,0
10.333323,10.456587,77,70,0
10.333323,10.456587,65,70,0
10.666656,10.78992,75,70,0
10.666656,10.78992,63,70,0
10.666656,10.78992,67,70,0
10.833323,10.956586,74,70,0
10.833323,10.956586,62,70,0
10.833323,10.956586,67,70,0
11.166656,11.289919,72,70,0
11.166656,11.289919,60,70,0
11.166656,11.289919,67,70,0
11.333322,11.456586,79,78,0
11.333322,11.456586,67,78,0
11.333322,11.456586,74,78,0
11.666655,11.789919,67,70,0
11.666655,11.789919,72,70,0
11.666655,11.789919,60,70,0
11.833322,11.956585,62,70,0
11.833322,11.956585,67,70,0
11.833322,11.956585,74,70,0
12.166655,12.289918,72,70,0
12.166655,12.289918,67,70,0
12.166655,12.289918,60,70,0
12.333321,12.456585,79,78,0
12.333321,12.456585,74,78,0
12.333321,12.456585,67,78,0
12.666654,12.789918,72,70,0
12.666654,12.789918,67,70,0
12.666654,12.789918,60,70,0
12.833321,12.956584,79,70,0
12.833321,12.956584,67,70,0
12.833321,12.956584,75,70,0
13.166654,13.289917,77,70,0
13.166654,13.289917,68,70,0
13.166654,13.289917,65,70,0
13.33332,13.456584,79,70,0
13.33332,13.456584,72,70,0
13.33332,13.456584,67,70,0
13.666653,13.789917,68,70,0
13.666653,13.789917,80,70,0
13.666653,13.789917,72,70,0
13.83332,13.956583,80,70,0
13.83332,13.956583,72,70,0
13.83332,13.956583,84,70,0
14.166653,14.289916,87,70,0
14.166653,14.289916,84,70,0
14.166653,14.289916,75,70,0
14.333319,14.456583,80,71,0
14.333319,14.456583,84,71,0
14.333319,14.456583,72,71,0
14.666652,14.789916,87,71,0
14.666652,14.789916,84,71,0
14.666652,14.789916,75,71,0
14.833319,14.956582,75,72,0
14.833319,14.956582,84,72,0
14.833319,14.956582,72,72,0
15.166652,15.289915,79,72,0
15.166652,15.289915,70,72,0
15.166652,15.289915,67,72,0
15.333318,15.456582,81,73,0
15.333318,15.456582,69,73,0
15.333318,15.456582,74,73,0
15.666651,15.789915,70,73,0
15.666651,15.789915,82,73,0
15.666651,15.789915,79,73,0
15.833318,15.956581,82,74,0
15.833318,15.956581,74,74,0
15.833318,15.956581,86,74,0
16.16665,16.289915,77,74,0
16.16665,16.289915,89,74,0
16.16665,16.289915,86,74,0
16.333317,16.456581,86,74,0
16.333317,16.456581,82,74,0
16.333317,16.456581,74,74,0
16.66665,16.789913,86,75,0
16.66665,16.789913,89,75,0
16.66665,16.789913,77,75,0
16.833317,16.956581,86,75,0
16.999983,17.123247,91,76,0
17.166649,17.289913,86,76,0
17.333317,17.45658,86,76,0
17.499983,17.623247,79,76,0
17.666649,17.789913,79,76,0
17.833315,17.95658,74,76,0
17.999983,18.123245,79,76,0
18.166649,18.289913,74,76,0
18.333315,18.45658,74,76,0
18.49998,18.623245,67,76,0
18.666649,18.789911,67,76,0
18.833315,18.95658,62,76,0
19.166647,19.289911,74,76,0
19.166647,19.289911,67,76,0
19.166647,19.289911,62,76,0
19.49998,19.623243,63,76,0
19.49998,19.623243,69,76,0
19.49998,19.623243,72,76,0
19.833313,19.956577,66,76,0
19.833313,19.956577,62,76,0
19.833313,19.956577,69,76,0
20.166647,20.28991,63,76,0
20.166647,20.28991,67,76,0
20.166647,20.28991,58,76,0
20.499979,20.623243,63,76,0
20.499979,20.623243,60,76,0
20.499979,20.623243,65,76,0
20.833313,20.956575,58,76,0
20.833313,20.956575,62,76,0
20.833313,20.956575,65,76,0
20.999979,21.123243,87,76,0
21.166645,21.28991,82,76,0
21.333311,21.456575,82,76,0
21.499979,21.623241,75,76,0
21.666645,21.78991,75,76,0
21.833311,21.956575,70,76,0
21.999977,22.123241,75,76,0
22.166645,22.289907,70,76,0
22.333311,22.456575,70,76,0
22.499977,22.623241,63,76,0
22.666643,22.789907,63,76,0
22.833311,22.956573,58,76,0
23.166643,23.289907,70,76,0
23.166643,23.289907,58,76,0
23.166643,23.289907,63,76,0
23.499977,23.62324,68,76,0
23.499977,23.62324,60,76,0
23.499977,23.62324,65,76,0
23.83331,23.956573,58,76,0
23.83331,23.956573,62,76,0
23.83331,23.956573,65,76,0
24.166643,24.289906,55,76,0
24.166643,24.289906,63,76,0
24.166643,24.289906,60,76,0
24.499975,24.62324,69,76,0
24.499975,24.62324,62,76,0
24.499975,24.62324,57,76,0
24.83331,24.956572,67,76,0
24.83331,24.956572,58,76,0
24.83331,24.956572,62,76,0
24.999975,25.201365,62,76,0
25.166641,25.36803,61,76,0
25.333307,25.534697,62,76,0
25.499975,25.701363,63,76,0
24.999975,25.78296,66,76,0
24.999975,25.78296,57,76,0
25.666641,25.789906,62,76,0
25.833307,25.956572,55,76,0
25.833307,25.956572,63,76,0
25.833307,25.956572,67,76,0
25.999973,26.201363,62,76,0
26.166641,26.368029,61,76,0
26.333307,26.534697,62,76,0
26.499973,26.701363,63,76,0
25.999973,26.782959,66,76,0
25.999973,26.782959,57,76,0
26.66664,26.789904,62,76,0
26.833307,26.95657,55,76,0
26.833307,26.95657,63,76,0
26.833307,26.95657,67,76,0
26.999973,27.201363,62,76,0
26.999973,27.32636,66,76,0
26.999973,27.32636,57,76,0
27.16664,27.368029,61,76,0
27.333305,27.534695,62,76,0
27.499973,27.70136,67,76,0
27.66664,27.868029,65,76,0
27.833305,28.034695,66,76,0
27.999971,28.20136,70,76,0
28.16664,28.368027,68,76,0
28.333305,28.534693,69,76,0
28.499971,28.70136,75,76,0
28.666637,28.789902,74,76,0
28.833305,28.956568,67,76,0
28.833305,28.956568,79,76,0
28.833305,28.956568,75,76,0
28.833305,28.956568,70,76,0
28.999971,29.201359,74,76,0
28.999971,29.201359,69,76,0
29.166637,29.368027,73,76,0
29.333303,29.534693,74,76,0
29.499971,29.701359,75,76,0
28.999971,29.7899,78,76,0
29.666637,29.7899,74,76,0
29.833303,29.956568,67,76,0
29.833303,29.956568,79,76,0
29.833303,29.956568,75,76,0
29.833303,29.956568,70,76,0
29.99997,30.201359,74,76,0
29.99997,30.201359,69,76,0
30.166637,30.368025,73,76,0
30.333303,30.53469,74,76,0
30.49997,30.701359,75,76,0
29.99997,30.7899,78,76,0
30.666636,30.7899,74,76,0
30.833303,30.956566,67,76,0
30.833303,30.956566,79,76,0
30.833303,30.956566,75,76,0
30.833303,30.956566,70,76,0
30.99997,31.201357,74,76,0
30.99997,31.326357,78,76,0
30.99997,31.326357,69,76,0
31.166636,31.368025,73,76,0
31.333302,31.53469,74,76,0
31.499968,31.701357,79,76,0
31.666636,31.868023,77,76,0
31.833302,32.03469,78,76,0
31.999968,32.201355,82,76,0
32.166634,32.368023,80,76,0
32.3333,32.53469,81,76,0
32.499966,32.701355,87,76,0
32.666634,32.868023,85,76,0
32.8333,32.996494,86,76,0
32.999966,33.12323,91,76,0
33.166634,33.289898,86,76,0
33.3333,33.456562,86,76,0
33.499966,33.62323,79,76,0
33.666634,33.789898,79,76,0
33.833298,33.956562,72,76,0
33.999966,34.12323,77,76,0
34.166634,34.289898,72,76,0
34.333298,34.456562,72,76,0
34.499966,34.62323,65,76,0
34.666634,34.789894,65,76,0
34.833298,34.956562,58,76,0
34.999966,35.12323,63,76,0
35.16663,35.289894,58,76,0
35.333298,35.456562,58,76,0
35.499966,35.62323,51,75,0
35.66663,35.789894,51,74,0
35.833298,35.956562,46,73,0
35.999966,36.123226,63,72,0
36.16663,36.289894,58,72,0
36.333298,36.456562,58,71,0
36.49996,36.623226,51,70,0
36.66663,36.789894,51,69,0
36.833298,36.956562,46,68,0
37.16663,37.289894,63,64,0
37.16663,37.289894,55,64,0
37.333298,37.45656,58,64,0
37.333298,37.45656,65,64,0
37.66663,37.789894,63,66,0
37.66663,37.789894,67,66,0
37.833294,37.95656,70,67,0
37.833294,37.95656,65,67,0
38.16663,38.289894,67,70,0
38.16663,38.289894,63,70,0
38.333294,38.45656,70,71,0
38.333294,38.45656,65,71,0
38.66663,38.78989,75,73,0
38.66663,38.78989,67,73,0
38.833294,38.95656,79,74,0
38.833294,38.95656,75,74,0
38.833294,38.95656,67,74,0
39.166626,39.28989,87,76,0
39.166626,39.28989,91,76,0
39.166626,39.28989,79,76,0
39.333294,39.45656,75,76,0
39.333294,39.45656,87,76,0
39.333294,39.45656,84,76,0
39.666626,39.78989,75,76,0
39.666626,39.78989,87,76,0
39.666626,39.78989,84,76,0
39.833294,39.95656,72,76,0
39.833294,39.95656,84,76,0
39.833294,39.95656,80,76,0
40.166626,40.28989,72,76,0
40.166626,40.28989,80,76,0
40.166626,40.28989,84,76,0
40.333294,40.45656,80,76,0
40.333294,40.45656,68,76,0
40.333294,40.45656,77,76,0
40.666626,40.78989,80,76,0
40.666626,40.78989,68,76,0
40.666626,40.78989,77,76,0
40.833294,40.956554,79,76,0
40.833294,40.956554,67,76,0
40.833294,40.956554,75,76,0
41.166626,41.28989,87,76,0
41.166626,41.28989,75,76,0
41.166626,41.28989,84,76,0
41.33329,41.456554,80,76,0
41.33329,41.456554,84,76,0
41.33329,41.456554,72,76,0
41.666626,41.78989,80,76,0
41.666626,41.78989,84,76,0
41.666626,41.78989,72,76,0
41.83329,41.956554,80,76,0
41.83329,41.956554,77,76,0
41.83329,41.956554,68,76,0
42.166626,42.289886,80,76,0
42.166626,42.289886,68,76,0
42.166626,42.289886,77,76,0
42.33329,42.456554,67,76,0
42.33329,42.456554,75,76,0
42.33329,42.456554,79,76,0
42.666622,42.789886,75,76,0
42.666622,42.789886,79,76,0
42.666622,42.789886,67,76,0
42.83329,42.956554,77,76,0
42.83329,42.956554,75,76,0
42.83329,42.956554,65,76,0
43.166622,43.289886,77,76,0
43.166622,43.289886,75,76,0
43.166622,43.289886,65,76,0
43.33329,43.456554,82,76,0
43.33329,43.456554,70,76,0
43.33329,43.456554,74,76,0
45.833286,45.975647,58,56,0
45.999954,46.201344,58,57,0
46.166622,46.368008,61,58,0
46.333286,46.534676,66,59,0
46.499954,46.701344,70,60,0
46.66662,46.868008,73,61,0
46.833286,46.975647,78,62,0
46.999954,47.548565,82,64,0
47.499954,47.883633,80,63,0
47.833286,47.95655,78,59,0
47.99995,48.54856,77,58,0
47.99995,48.54856,73,58,0
48.49995,48.883633,75,56,0
48.49995,48.883633,72,56,0
48.833286,48.956547,73,56,0
48.833286,48.956547,70,56,0
49.333282,49.54509,77,56,0
48.99995,49.786407,72,56,0
48.99995,49.786407,69,56,0
49.833282,50.04509,70,56,0
49.833282,50.04509,73,56,0
49.49995,50.28988,78,56,0
50.333282,50.54509,77,56,0
49.99995,50.786407,72,56,0
49.99995,50.786407,69,56,0
50.833282,51.04509,70,56,0
50.833282,51.04509,73,56,0
50.49995,51.28988,78,56,0
51.333282,51.545086,77,56,0
50.99995,52.826336,69,56,0
50.99995,52.826336,72,56,0
51.499947,52.829807,78,56,0
53.83328,53.97564,58,76,0
53.999947,54.21175,58,77,0
54.16661,54.378418,61,78,0
54.33328,54.545086,66,79,0
54.499947,54.71175,70,79,0
54.66661,54.878418,73,80,0
54.83328,54.97564,78,81,0
54.999947,55.546818,73,80,0
54.999947,55.546818,85,80,0
54.999947,55.546818,81,80,0
55.499943,55.880154,80,80,0
55.499943,55.880154,71,80,0
55.499943,55.880154,83,80,0
55.83328,55.97564,81,80,0
55.83328,55.97564,78,80,0
55.83328,55.97564,69,80,0
55.999943,56.468693,93,80,0
55.999943,56.468693,85,80,0
55.999943,56.468693,81,80,0
56.499943,56.8055,92,80,0
56.499943,56.8055,83,80,0
56.499943,56.8055,80,80,0
56.833275,56.97564,89,80,0
56.833275,56.97564,77,80,0
56.999943,57.802025,90,80,0
56.999943,57.802025,81,80,0
56.999943,57.802025,78,80,0
57.833275,57.975636,89,80,0
57.833275,57.975636,80,80,0
57.833275,57.975636,77,80,0
57.999943,58.802025,90,80,0
57.999943,58.802025,78,80,0
57.999943,58.802025,81,80,0
58.833275,58.975636,89,80,0
58.833275,58.975636,77,80,0
58.833275,58.975636,80,80,0
58.999943,59.142303,90,80,0
58.999943,59.142303,78,80,0
58.999943,59.142303,81,80,0
59.166607,59.308968,89,80,0
59.166607,59.308968,77,80,0
59.333275,59.6423,90,80,0
59.333275,59.6423,78,80,0
59.666607,59.808968,77,80,0
59.666607,59.808968,89,80,0
59.833275,60.13883,78,80,0
59.833275,60.13883,90,80,0
60.166607,60.308968,77,80,0
60.166607,60.308968,89,80,0
60.333275,60.63883,90,80,0
60.333275,60.63883,78,80,0
60.666607,60.808968,77,80,0
60.666607,60.808968,89,80,0
60.83327,60.97563,90,80,0
60.83327,60.97563,78,80,0
60.99994,61.44091,51,80,0
60.99994,61.44091,48,80,0
60.99994,61.44091,57,80,0
60.99994,61.44091,60,80,0
61.49994,61.94091,57,80,0
61.49994,61.94091,51,80,0
61.49994,61.94091,48,80,0
61.49994,61.94091,60,80,0
61.99994,62.44091,57,80,0
61.99994,62.44091,51,80,0
61.99994,62.44091,60,80,0
61.99994,62.44091,48,80,0
62.49994,62.94091,57,80,0
62.49994,62.94091,60,80,0
62.49994,62.94091,51,80,0
62.49994,62.94091,48,80,0
62.999935,63.44091,57,76,0
62.999935,63.44091,60,76,0
62.999935,63.44091,51,76,0
62.999935,63.44091,48,76,0
63.499935,63.940907,61,76,0
63.499935,63.940907,49,76,0
63.499935,63.940907,53,76,0
63.999935,64.44091,63,76,0
63.999935,64.44091,57,76,0
63.999935,64.44091,69,76,0
64.49994,64.94091,70,76,0
64.49994,64.94091,58,76,0
64.49994,64.94091,65,76,0
64.99993,65.44091,78,80,0
64.99993,65.44091,66,76,0
64.99993,65.44091,70,76,0
65.49993,65.9409,77,81,0
65.49993,65.9409,70,76,0
65.49993,65.9409,65,76,0
65.99993,66.4409,75,82,0
65.99993,66.4409,63,76,0
65.99993,66.4409,70,76,0
66.49993,66.9409,72,76,0
66.49993,66.9409,70,76,0
66.49993,66.9409,76,82,0
66.49993,66.9409,64,76,0
66.99993,67.163124,77,83,0
66.99993,67.163124,72,76,0
66.99993,67.163124,69,76,0
66.99993,67.163124,65,76,0
67.49993,68.538124,69,64,0
68.49993,69.038124,68,63,0
67.99993,69.038124,72,56,0
68.99993,69.63361,71,56,0
68.99993,69.63361,67,56,0
69.666595,69.8784,86,64,0
69.83327,70.04507,91,64,0
69.99993,70.104095,79,64,0
70.166595,70.3784,74,64,0
70.33326,70.54507,79,64,0
70.49993,70.604095,67,64,0
70.666595,70.8784,62,64,0
70.83326,71.04507,67,64,0
70.99993,71.163124,63,64,0
70.99993,71.163124,55,64,0
71.49993,72.54854,67,64,0
71.99993,73.038124,70,56,0
72.49992,73.04854,66,63,0
72.99992,73.61451,69,56,0
72.99992,73.61451,65,56,0
73.666595,73.878395,84,64,0
73.83326,74.04507,89,64,0
73.99992,74.12319,77,64,0
74.166595,74.378395,72,64,0
74.33326,74.54507,77,64,0
74.49992,74.62319,65,64,0
74.666595,74.878395,60,64,0
74.83326,75.04507,65,64,0
74.99992,75.32979,54,64,0
76.49992,77.03812,61,56,0
76.49992,77.03812,70,56,0
76.49992,77.03812,73,56,0
76.99992,77.53812,74,58,0
76.99992,77.53812,62,58,0
76.99992,77.53812,71,58,0
77.49992,77.82284,78,59,0
77.49992,77.82284,66,59,0
77.99992,78.53812,83,48,0
77.99992,78.53812,86,48,0
77.99992,78.53812,74,48,0
78.49992,78.82284,90,48,0
78.49992,78.82284,78,48,0
80.499916,81.03812,61,51,0
80.499916,81.03812,73,51,0
80.999916,81.53812,74,52,0
80.999916,81.53812,62,52,0
81.499916,81.82284,77,54,0
81.499916,81.82284,65,54,0
81.999916,82.498184,62,48,0
81.999916,82.53811,58,48,0
82.499916,82.82283,65,48,0
82.499916,82.82283,62,48,0
82.999916,83.21172,77,56,0
83.16658,83.37839,82,56,0
83.16658,83.37839,86,56,0
83.33325,83.54505,77,56,0
83.499916,83.71172,89,56,0
83.499916,83.71172,84,56,0
83.66658,83.87839,74,56,0
83.83325,83.96693,82,56,0
83.83325,83.96693,79,56,0
83.999916,84.21172,74,56,0
84.16658,84.37839,81,56,0
84.16658,84.37839,86,56,0
84.33325,84.54505,70,56,0
84.499916,84.71172,75,56,0
84.499916,84.71172,79,56,0
84.66658,84.87839,70,56,0
84.83325,84.96693,77,56,0
84.83325,84.96693,82,56,0
84.999916,85.21172,72,56,0
85.16658,85.37839,84,56,0
85.333244,85.54505,72,56,0
85.499916,85.71172,79,56,0
85.66658,85.87839,72,56,0
85.833244,85.96693,84,56,0
85.999916,86.211716,77,56,0
86.16658,86.37839,89,56,0
86.333244,86.54505,77,56,0
86.499916,86.711716,84,56,0
86.66658,86.87839,77,56,0
86.833244,86.96693,89,56,0
86.999916,87.211716,82,56,0
87.16658,87.37839,94,56,0
87.333244,87.54505,81,56,0
87.499916,87.711716,93,56,0
87.66658,87.87839,79,56,0
87.833244,87.96693,91,56,0
87.99991,88.211716,77,56,0
88.16658,88.37839,89,56,0
88.333244,88.54505,75,56,0
88.49991,88.711716,87,56,0
88.66658,88.87838,74,56,0
88.833244,88.96693,86,56,0
88.99991,89.211716,72,56,0
89.16658,89.37838,84,56,0
89.333244,89.54505,72,56,0
89.49991,89.711716,82,56,0
89.66658,89.87838,72,56,0
89.833244,89.96693,79,56,0
89.99991,90.211716,65,56,0
90.16658,90.37838,77,56,0
90.333244,90.54505,65,56,0
90.49991,90.711716,75,56,0
90.66657,90.87838,65,56,0
90.833244,90.96693,72,56,0
90.99991,91.211716,58,56,0
91.16657,91.37838,70,56,0
91.333244,91.545044,62,56,0
91.49991,91.711716,74,56,0
91.66657,91.87838,55,56,0
91.833244,91.96692,67,56,0
91.99991,92.211716,58,56,0
92.16657,92.37838,70,56,0
92.333244,92.545044,63,56,0
92.49991,92.711716,75,57,0
92.66657,92.87838,54,57,0
92.83324,92.96692,66,58,0
92.99991,93.211716,58,59,0
93.16657,93.37838,70,59,0
93.33324,93.545044,65,60,0
93.49991,93.71171,77,61,0
93.66657,93.87838,53,61,0
93.83324,93.96692,65,62,0
93.99991,94.21171,58,62,0
94.16657,94.37838,70,63,0
94.33324,94.545044,66,64,0
94.49991,94.71171,78,64,0
94.66657,94.87838,51,65,0
94.83324,94.96692,63,65,0
94.99991,95.21171,58,66,0
95.16657,95.329765,70,67,0
95.33324,95.545044,70,67,0
95.4999,95.62317,82,68,0
95.66657,95.87838,58,69,0
95.83324,95.956505,70,69,0
95.9999,96.21171,58,70,0
96.16657,96.329765,70,70,0
96.33324,96.545044,70,71,0
96.4999,96.62317,82,72,0
96.66657,96.87837,58,72,0
96.83324,96.9565,70,73,0
96.9999,97.21171,58,73,0
97.16657,97.329765,70,74,0
97.4999,98.541565,77,75,0
97.4999,98.541565,80,75,0
97.4999,98.541565,82,75,0
97.33324,98.56587,70,75,0
98.83324,98.9565,58,56,0
99.166565,99.28983,63,56,0
99.166565,99.28983,55,56,0
99.33324,99.4565,58,56,0
99.33324,99.4565,65,56,0
99.666565,99.78983,63,56,0
99.666565,99.78983,67,56,0
99.83324,99.9565,65,56,0
99.83324,99.9565,70,56,0
100.166565,100.28983,63,56,0
100.166565,100.28983,67,56,0
100.33324,100.4565,58,56,0
100.33324,100.4565,65,56,0
100.666565,100.78983,63,56,0
100.666565,100.78983,55,56,0
100.83323,100.9565,55,56,0
100.83323,100.9565,62,56,0
101.166565,101.28983,60,56,0
101.166565,101.28983,55,56,0
101.33323,101.4565,62,66,0
101.33323,101.4565,67,66,0
101.33323,101.4565,55,66,0
101.666565,101.789825,60,56,0
101.666565,101.789825,55,56,0
101.83323,101.9565,62,56,0
101.83323,101.9565,55,56,0
102.166565,102.289825,60,56,0
102.166565,102.289825,55,56,0
102.33323,102.4565,55,66,0
102.33323,102.4565,62,66,0
102.33323,102.4565,67,66,0
102.666565,102.789825,60,56,0
102.666565,102.789825,55,56,0
102.83323,102.9565,63,56,0
102.83323,102.9565,55,56,0
102.83323,102.9565,67,56,0
103.166565,103.289825,56,56,0
103.166565,103.289825,65,56,0
103.33323,103.4565,60,57,0
103.33323,103.4565,67,57,0
103.666565,103.789825,60,61,0
103.666565,103.789825,68,61,0
103.83323,103.95649,63,63,0
103.83323,103.95649,72,63,0
103.83323,103.95649,60,63,0
104.166565,104.289825,58,66,0
104.166565,104.289825,67,66,0
104.33323,104.45649,69,68,0
104.33323,104.45649,62,68,0
104.666565,104.789825,70,71,0
104.666565,104.789825,62,71,0
104.83323,104.95649,74,73,0
104.83323,104.95649,70,73,0
104.83323,104.95649,62,73,0
105.166565,105.289825,77,76,0
105.166565,105.289825,65,76,0
105.166565,105.289825,74,76,0
105.33323,105.45649,70,76,0
105.66656,105.789825,65,76,0
105.83323,105.95649,58,76,0
106.16656,106.289825,74,76,0
106.16656,106.289825,77,76,0
106.16656,106.289825,65,76,0
106.33323,106.45649,70,76,0
106.66656,106.789825,65,76,0
106.83323,106.95649,58,70,0
107.16656,107.289825,67,70,0
107.16656,107.289825,75,70,0
107.33323,107.45649,70,70,0
107.33323,107.45649,77,70,0
107.33323,107.45649,65,70,0
107.66656,107.789825,79,70,0
107.66656,107.789825,75,70,0
107.66656,107.789825,67,70,0
107.83323,107.95649,82,70,0
107.83323,107.95649,74,70,0
107.83323,107.95649,70,70,0
108.16656,108.289825,79,70,0
108.16656,108.289825,75,70,0
108.16656,108.289825,67,70,0
108.33322,108.45649,70,70,0
108.33322,108.45649,77,70,0
108.33322,108.45649,65,70,0
108.66656,108.789825,75,70,0
108.66656,108.789825,63,70,0
108.66656,108.789825,67,70,0
108.83322,108.95649,74,70,0
108.83322,108.95649,62,70,0
108.83322,108.95649,67,70,0
109.16656,109.28982,72,70,0
109.16656,109.28982,60,70,0
109.16656,109.28982,67,70,0
109.33322,109.45649,79,78,0
109.33322,109.45649,67,78,0
109.33322,109.45649,74,78,0
109.66656,109.78982,67,70,0
109.66656,109.78982,72,70,0
109.66656,109.78982,60,70,0
109.83322,109.95649,62,70,0
109.83322,109.95649,67,70,0
109.83322,109.95649,74,70,0
110.16656,110.28982,72,70,0
110.16656,110.28982,67,70,0
110.16656,110.28982,60,70,0
110.33322,110.45649,79,78,0
110.33322,110.45649,74,78,0
110.33322,110.45649,67,78,0
110.66656,110.78982,72,70,0
110.66656,110.78982,67,70,0
110.66656,110.78982,60,70,0
110.83322,110.95649,79,70,0
110.83322,110.95649,67,70,0
110.83322,110.95649,75,70,0
111.16656,111.28982,77,70,0
111.16656,111.28982,68,70,0
111.16656,111.28982,65,70,0
111.33322,111.45649,79,70,0
111.33322,111.45649,72,70,0
111.33322,111.45649,67,70,0
111.66656,111.78982,68,70,0
111.66656,111.78982,80,70,0
111.66656,111.78982,72,70,0
111.83322,111.95648,80,70,0
111.83322,111.95648,72,70,0
111.83322,111.95648,84,70,0
112.16656,112.28982,87,70,0
112.16656,112.28982,84,70,0
112.16656,112.28982,75,70,0
112.33322,112.45648,80,71,0
112.33322,112.45648,84,71,0
112.33322,112.45648,72,71,0
112.66656,112.78982,87,71,0
112.66656,112.78982,84,71,0
112.66656,112.78982,75,71,0
112.83322,112.95648,75,72,0
112.83322,112.95648,84,72,0
112.83322,112.95648,72,72,0
113.16656,113.28982,79,72,0
113.16656,113.28982,70,72,0
113.16656,113.28982,67,72,0
113.33322,113.45648,81,73,0
113.33322,113.45648,69,73,0
113.33322,113.45648,74,73,0
113.66655,113.78982,70,73,0
113.66655,113.78982,82,73,0
113.66655,113.78982,79,73,0
113.83322,113.95648,82,74,0
113.83322,113.95648,74,74,0
113.83322,113.95648,86,74,0
114.16655,114.28982,77,74,0
114.16655,114.28982,89,74,0
114.16655,114.28982,86,74,0
114.33322,114.45648,86,74,0
114.33322,114.45648,82,74,0
114.33322,114.45648,74,74,0
114.66655,114.78982,86,75,0
114.66655,114.78982,89,75,0
114.66655,114.78982,77,75,0
114.83322,114.95648,86,75,0
114.999886,115.123146,91,76,0
115.16655,115.28982,86,76,0
115.33322,115.45648,86,76,0
115.499886,115.623146,79,76,0
115.66655,115.78982,79,76,0
115.83321,115.95648,74,76,0
115.999886,116.123146,79,76,0
116.16655,116.28982,74,76,0
116.33321,116.45648,74,76,0
116.499886,116.623146,67,76,0
116.66655,116.78981,67,76,0
116.83321,116.95648,62,76,0
117.16655,117.28981,74,76,0
117.16655,117.28981,67,76,0
117.16655,117.28981,62,76,0
117.499886,117.623146,63,76,0
117.499886,117.623146,69,76,0
117.499886,117.623146,72,76,0
117.83321,117.95648,66,76,0
117.83321,117.95648,62,76,0
117.83321,117.95648,69,76,0
118.16655,118.28981,63,76,0
118.16655,118.28981,67,76,0
118.16655,118.28981,58,76,0
118.49988,118.623146,63,76,0
118.49988,118.623146,60,76,0
118.49988,118.623146,65,76,0
118.83321,118.95648,58,76,0
118.83321,118.95648,62,76,0
118.83321,118.95648,65,76,0
118.99988,119.123146,87,76,0
119.16655,119.28981,82,76,0
119.33321,119.456474,82,76,0
119.49988,119.623146,75,76,0
119.66655,119.78981,75,76,0
119.83321,119.956474,70,76,0
119.99988,120.123146,75,76,0
120.16655,120.28981,70,76,0
120.33321,120.456474,70,76,0
120.49988,120.623146,63,76,0
120.66655,120.78981,63,76,0
120.83321,120.956474,58,76,0
121.16654,121.28981,70,76,0
121.16654,121.28981,58,76,0
121.16654,121.28981,63,76,0
121.49988,121.623146,68,76,0
121.49988,121.623146,60,76,0
121.49988,121.623146,65,76,0
121.83321,121.956474,58,76,0
121.83321,121.956474,62,76,0
121.83321,121.956474,65,76,0
122.16654,122.28981,55,76,0
122.16654,122.28981,63,76,0
122.16654,122.28981,60,76,0
122.49988,122.62314,69,76,0
122.49988,122.62314,62,76,0
122.49988,122.62314,57,76,0
122.83321,122.956474,67,76,0
122.83321,122.956474,58,76,0
122.83321,122.956474,62,76,0
122.99988,123.20126,62,76,0
123.16654,123.367935,61,76,0
123.33321,123.5346,62,76,0
123.49988,123.70126,63,76,0
122.99988,123.78286,66,76,0
122.99988,123.78286,57,76,0
123.66654,123.78981,62,76,0
123.833206,123.956474,55,76,0
123.833206,123.956474,63,76,0
123.833206,123.956474,67,76,0
123.99988,124.20126,62,76,0
124.16654,124.36793,61,76,0
124.333206,124.5346,62,76,0
124.49988,124.70126,63,76,0
123.99988,124.78286,66,76,0
123.99988,124.78286,57,76,0
124.66654,124.7898,62,76,0
124.833206,124.956474,55,76,0
124.833206,124.956474,63,76,0
124.833206,124.956474,67,76,0
124.99988,125.20126,62,76,0
124.99988,125.32626,66,76,0
124.99988,125.32626,57,76,0
125.16654,125.36793,61,76,0
125.333206,125.5346,62,76,0
125.49988,125.70126,67,76,0
125.66654,125.86793,65,76,0
125.833206,126.0346,66,76,0
125.99987,126.20126,70,76,0
126.16654,126.36793,68,76,0
126.333206,126.5346,69,76,0
126.49987,126.70126,75,76,0
126.66654,126.7898,74,76,0
126.833206,126.95647,67,76,0
126.833206,126.95647,79,76,0
126.833206,126.95647,75,76,0
126.833206,126.95647,70,76,0
126.99987,127.20126,74,76,0
126.99987,127.20126,69,76,0
127.16654,127.36793,73,76,0
127.333206,127.53459,74,76,0
127.49987,127.70126,75,76,0
126.99987,127.7898,78,76,0
127.66654,127.7898,74,76,0
127.833206,127.95647,67,76,0
127.833206,127.95647,79,76,0
127.833206,127.95647,75,76,0
127.833206,127.95647,70,76,0
127.99987,128.20126,74,76,0
127.99987,128.20126,69,76,0
128.16653,128.36792,73,76,0
128.3332,128.53459,74,76,0
128.49988,128.70126,75,76,0
127.99987,128.7898,78,76,0
128.66653,128.7898,74,76,0
128.8332,128.95647,67,76,0
128.8332,128.95647,79,76,0
128.8332,128.95647,75,76,0
128.8332,128.95647,70,76,0
128.99988,129.20126,74,76,0
128.99988,129.32626,78,76,0
128.99988,129.32626,69,76,0
129.16653,129.36792,73,76,0
129.3332,129.53459,74,76,0
129.49988,129.70126,79,76,0
129.66653,129.86792,77,76,0
129.8332,130.03459,78,76,0
129.99986,130.20126,82,76,0
130.16653,130.36792,80,76,0
130.3332,130.53459,81,76,0
130.49986,130.70126,87,76,0
130.66653,130.86792,85,76,0
130.8332,130.9964,86,76,0
130.99986,131.12314,91,76,0
131.16653,131.2898,86,76,0
131.3332,131.45647,86,76,0
131.49986,131.62314,79,76,0
131.66653,131.7898,79,76,0
131.8332,131.95647,72,76,0
131.99986,132.12314,77,76,0
132.16653,132.2898,72,76,0
132.3332,132.45647,72,76,0
132.49986,132.62314,65,76,0
132.66653,132.7898,65,76,0
132.8332,132.95647,58,76,0
132.99986,133.12312,63,76,0
133.16653,133.2898,58,76,0
133.3332,133.45647,58,76,0
133.49986,133.62312,51,75,0
133.66653,133.7898,51,74,0
133.8332,133.95647,46,73,0
133.99986,134.12312,63,72,0
134.16653,134.2898,58,72,0
134.3332,134.45647,58,71,0
134.49986,134.62312,51,70,0
134.66653,134.7898,51,69,0
134.83319,134.95647,46,68,0
135.16653,135.2898,63,64,0
135.16653,135.2898,55,64,0
135.33319,135.45647,58,64,0
135.33319,135.45647,65,64,0
135.66653,135.7898,63,66,0
135.66653,135.7898,67,66,0
135.83319,135.95647,70,67,0
135.83319,135.95647,65,67,0
136.16653,136.2898,67,70,0
136.16653,136.2898,63,70,0
136.33319,136.45647,70,71,0
136.33319,136.45647,65,71,0
136.66653,136.7898,75,73,0
136.66653,136.7898,67,73,0
136.83319,136.95647,79,74,0
136.83319,136.95647,75,74,0
136.83319,136.95647,67,74,0
137.16653,137.2898,87,76,0
137.16653,137.2898,91,76,0
137.16653,137.2898,79,76,0
137.33319,137.45647,75,76,0
137.33319,137.45647,87,76,0
137.33319,137.45647,84,76,0
137.66653,137.7898,75,76,0
137.66653,137.7898,87,76,0
137.66653,137.7898,84,76,0
137.83319,137.95647,72,76,0
137.83319,137.95647,84,76,0
137.83319,137.95647,80,76,0
138.16653,138.2898,72,76,0
138.16653,138.2898,80,76,0
138.16653,138.2898,84,76,0
138.33319,138.45645,80,76,0
138.33319,138.45645,68,76,0
138.33319,138.45645,77,76,0
138.66653,138.7898,80,76,0
138.66653,138.7898,68,76,0
138.66653,138.7898,77,76,0
138.83319,138.95645,79,76,0
138.83319,138.95645,67,76,0
138.83319,138.95645,75,76,0
139.16653,139.2898,87,76,0
139.16653,139.2898,75,76,0
139.16653,139.2898,84,76,0
139.33319,139.45645,80,76,0
139.33319,139.45645,84,76,0
139.33319,139.45645,72,76,0
139.66653,139.7898,80,76,0
139.66653,139.7898,84,76,0
139.66653,139.7898,72,76,0
139.83319,139.95645,80,76,0
139.83319,139.95645,77,76,0
139.83319,139.95645,68,76,0
140.16652,140.2898,80,76,0
140.16652,140.2898,68,76,0
140.16652,140.2898,77,76,0
140.33319,140.45645,67,76,0
140.33319,140.45645,75,76,0
140.33319,140.45645,79,76,0
140.66652,140.7898,75,76,0
140.66652,140.7898,79,76,0
140.66652,140.7898,67,76,0
140.83319,140.95645,77,76,0
140.83319,140.95645,75,76,0
140.83319,140.95645,65,76,0
141.16652,141.2898,77,76,0
141.16652,141.2898,75,76,0
141.16652,141.2898,65,76,0
141.33319,141.45645,82,76,0
141.33319,141.45645,70,76,0
141.33319,141.45645,74,76,0
143.83319,143.97556,58,56,0
143.99986,144.20125,58,57,0
144.16652,144.3679,61,58,0
144.33319,144.53458,66,59,0
144.49986,144.70125,70,60,0
144.66652,144.8679,73,61,0
144.83319,144.97556,78,62,0
144.99985,145.54846,82,64,0
145.49985,145.88353,80,63,0
145.83319,145.95645,78,59,0
145.99985,146.54846,77,58,0
145.99985,146.54846,73,58,0
146.49985,146.88353,75,56,0
146.49985,146.88353,72,56,0
146.83319,146.95645,73,56,0
146.83319,146.95645,70,56,0
147.33319,147.545,77,56,0
146.99985,147.78632,72,56,0
146.99985,147.78632,69,56,0
147.83319,148.045,70,56,0
147.83319,148.045,73,56,0
147.49985,148.28978,78,56,0
148.33319,148.54498,77,56,0
147.99985,148.78632,72,56,0
147.99985,148.78632,69,56,0
148.83319,149.04498,70,56,0
148.83319,149.04498,73,56,0
148.49985,149.28978,78,56,0
149.33319,149.54498,77,56,0
148.99985,150.82623,69,56,0
148.99985,150.82623,72,56,0
149.49985,150.82971,78,56,0
151.83318,151.97554,58,76,0
151.99985,152.21165,58,77,0
152.16652,152.37833,61,78,0
152.33318,152.54498,66,79,0
152.49985,152.71165,70,79,0
152.66652,152.87833,73,80,0
152.83318,152.97554,78,81,0
152.83318,152.97554,78,81,0
152.99985,153.54672,73,80,0
152.99985,153.54672,85,80,0
152.99985,153.54672,81,80,0
153.49985,153.88005,80,80,0
153.49985,153.88005,71,80,0
153.49985,153.88005,83,80,0
153.83318,153.97554,81,80,0
153.83318,153.97554,78,80,0
153.83318,153.97554,69,80,0
153.99985,154.4686,93,80,0
153.99985,154.4686,85,80,0
153.99985,154.4686,81,80,0
154.49985,154.8054,92,80,0
154.49985,154.8054,83,80,0
154.49985,154.8054,80,80,0
154.83318,154.97554,89,80,0
154.83318,154.97554,77,80,0
154.99985,155.80193,90,80,0
154.99985,155.80193,81,80,0
154.99985,155.80193,78,80,0
155.83318,155.97554,89,80,0
155.83318,155.97554,80,80,0
155.83318,155.97554,77,80,0
155.99985,156.80193,90,80,0
155.99985,156.80193,78,80,0
155.99985,156.80193,81,80,0
156.83318,156.97554,89,80,0
156.83318,156.97554,77,80,0
156.83318,156.97554,80,80,0
156.99985,157.1422,90,80,0
156.99985,157.1422,78,80,0
156.99985,157.1422,81,80,0
157.1665,157.30887,89,80,0
157.1665,157.30887,77,80,0
157.33318,157.6422,90,80,0
157.33318,157.6422,78,80,0
157.6665,157.80887,77,80,0
157.6665,157.80887,89,80,0
157.83318,158.13873,78,80,0
157.83318,158.13873,90,80,0
158.1665,158.30887,77,80,0
158.1665,158.30887,89,80,0
158.33318,158.63873,90,80,0
158.33318,158.63873,78,80,0
158.6665,158.80887,77,80,0
158.6665,158.80887,89,80,0
158.83318,158.97554,90,80,0
158.83318,158.97554,78,80,0
158.99985,159.44081,51,80,0
158.99985,159.44081,48,80,0
158.99985,159.44081,57,80,0
158.99985,159.44081,60,80,0
159.49985,159.94081,57,80,0
159.49985,159.94081,51,80,0
159.49985,159.94081,48,80,0
159.49985,159.94081,60,80,0
159.99985,160.44081,57,80,0
159.99985,160.44081,51,80,0
159.99985,160.44081,60,80,0
159.99985,160.44081,48,80,0
160.49983,160.94081,57,80,0
160.49983,160.94081,60,80,0
160.49983,160.94081,51,80,0
160.49983,160.94081,48,80,0
160.99983,161.44081,57,76,0
160.99983,161.44081,60,76,0
160.99983,161.44081,51,76,0
160.99983,161.44081,48,76,0
161.49983,161.94081,61,76,0
161.49983,161.94081,49,76,0
161.49983,161.94081,53,76,0
161.99983,162.44081,63,76,0
161.99983,162.44081,57,76,0
161.99983,162.44081,69,76,0
162.49983,162.94081,70,76,0
162.49983,162.94081,58,76,0
162.49983,162.94081,65,76,0
162.99983,163.44081,78,80,0
162.99983,163.44081,66,76,0
162.99983,163.44081,70,76,0
163.49983,163.94081,77,81,0
163.49983,163.94081,70,76,0
163.49983,163.94081,65,76,0
163.99983,164.44081,75,82,0
163.99983,164.44081,63,76,0
163.99983,164.44081,70,76,0
164.49983,164.94081,72,76,0
164.49983,164.94081,70,76,0
164.49983,164.94081,76,82,0
164.49983,164.94081,64,76,0
164.99983,165.16302,77,83,0
164.99983,165.16302,72,76,0
164.99983,165.16302,69,76,0
164.99983,165.16302,65,76,0
165.49983,166.53802,69,64,0
166.49983,167.03802,68,63,0
165.99983,167.03802,72,56,0
166.99983,167.63351,71,56,0
166.99983,167.63351,67,56,0
167.6665,167.87831,86,64,0
167.83316,168.04497,91,64,0
167.99983,168.104,79,64,0
168.1665,168.37831,74,64,0
168.33316,168.54497,79,64,0
168.49983,168.604,67,64,0
168.6665,168.8783,62,64,0
168.83316,169.04497,67,64,0
168.99983,169.16302,63,64,0
168.99983,169.16302,55,64,0
169.49983,170.54845,67,64,0
169.99983,171.03802,70,56,0
170.49983,171.04845,66,63,0
170.99983,171.61441,69,56,0
170.99983,171.61441,65,56,0
171.66649,171.8783,84,64,0
171.83316,172.04497,89,64,0
171.99983,172.1231,77,64,0
172.16649,172.3783,72,64,0
172.33316,172.54497,77,64,0
172.49983,172.6231,65,64,0
172.66649,172.8783,60,64,0
172.83316,173.04497,65,64,0
172.99983,173.32968,54,64,0
174.49983,175.03802,61,56,0
174.49983,175.03802,70,56,0
174.49983,175.03802,73,56,0
174.99983,175.53802,74,58,0
174.99983,175.53802,62,58,0
174.99983,175.53802,71,58,0
175.49982,175.82274,78,59,0
175.49982,175.82274,66,59,0
175.99982,176.53802,83,48,0
175.99982,176.53802,86,48,0
175.99982,176.53802,74,48,0
176.49982,176.82274,90,48,0
176.49982,176.82274,78,48,0
178.49982,179.03801,61,51,0
178.49982,179.03801,73,51,0
178.99982,179.53801,74,52,0
178.99982,179.53801,62,52,0
179.49982,179.82274,77,54,0
179.49982,179.82274,65,54,0
179.99982,180.49808,62,48,0
179.99982,180.53801,58,48,0
180.49982,180.82274,65,48,0
180.49982,180.82274,62,48,0
180.99982,181.21162,77,56,0
181.16649,181.3783,82,56,0
181.16649,181.3783,86,56,0
181.33315,181.54495,77,56,0
181.49982,181.71162,89,56,0
181.49982,181.71162,84,56,0
181.66649,181.8783,74,56,0
181.83315,181.96683,82,56,0
181.83315,181.96683,79,56,0
181.99982,182.21162,74,56,0
182.16649,182.3783,81,56,0
182.16649,182.3783,86,56,0
182.33315,182.54495,70,56,0
182.49982,182.71162,75,56,0
182.49982,182.71162,79,56,0
182.66649,182.8783,70,56,0
182.83315,182.96683,77,56,0
182.83315,182.96683,82,56,0
182.99982,183.21162,72,56,0
183.16649,183.3783,84,56,0
183.33315,183.54495,72,56,0
183.49982,183.71162,79,56,0
183.66649,183.8783,72,56,0
183.83315,183.96683,84,56,0
183.99982,184.21162,77,56,0
184.16649,184.37828,89,56,0
184.33315,184.54495,77,56,0
184.49982,184.71162,84,56,0
184.66649,184.87828,77,56,0
184.83315,184.96683,89,56,0
184.99982,185.21162,82,56,0
185.16649,185.37828,94,56,0
185.33315,185.54495,81,56,0
185.49982,185.71162,93,56,0
185.66647,185.87828,79,56,0
185.83315,185.96683,91,56,0
185.99982,186.21162,77,56,0
186.16647,186.37828,89,56,0
186.33315,186.54495,75,56,0
186.49982,186.71162,87,56,0
186.66647,186.87828,74,56,0
186.83315,186.96683,86,56,0
186.99982,187.21162,72,56,0
187.16647,187.37828,84,56,0
187.33315,187.54495,72,56,0
187.49982,187.71162,82,56,0
187.66647,187.87828,72,56,0
187.83315,187.96683,79,56,0
187.99982,188.21162,65,56,0
188.16647,188.37828,77,56,0
188.33315,188.54495,65,56,0
188.49982,188.71162,75,56,0
188.66647,188.87828,65,56,0
188.83315,188.96683,72,56,0
188.99982,189.21161,62,56,0
189.16647,189.37828,74,56,0
189.33315,189.54495,65,57,0
189.49982,189.71161,77,58,0
189.66647,189.87828,58,59,0
189.83315,189.9564,70,60,0
189.99982,190.21161,62,61,0
190.16647,190.37828,74,61,0
190.33315,190.54495,67,62,0
190.49982,190.71161,79,63,0
190.66647,190.87828,58,64,0
190.83315,190.9564,70,65,0
190.9998,191.21161,62,66,0
191.16647,191.37828,74,66,0
191.33315,191.54495,69,67,0
191.4998,191.71161,81,68,0
191.66647,191.87828,57,69,0
191.83315,191.9564,69,70,0
191.9998,192.21161,62,71,0
192.16647,192.37828,74,71,0
192.33315,192.54495,70,72,0
192.4998,192.71161,82,73,0
192.66647,192.87828,55,74,0
192.83315,192.9564,67,75,0
192.9998,193.21161,62,75,0
193.16647,193.32967,74,76,0
193.33315,193.54495,74,76,0
193.4998,193.62308,86,76,0
193.66647,193.87828,62,76,0
193.83315,193.9564,72,76,0
193.83315,193.9564,74,76,0
193.9998,194.21161,62,76,0
194.16647,194.32967,74,76,0
194.16647,194.37828,71,76,0
194.33315,194.49634,74,76,0
194.4998,194.62306,85,86,0
194.4998,194.62306,82,86,0
194.4998,194.62306,88,86,0
194.66647,194.87828,62,76,0
194.83315,194.9564,73,76,0
194.83315,194.9564,70,76,0
194.83315,194.9564,76,76,0
194.9998,195.21161,62,76,0
195.16647,195.32967,74,76,0
195.16647,195.37828,69,76,0
195.33315,195.54494,74,76,0
195.4998,195.62306,86,76,0
195.4998,195.62306,81,76,0
195.66647,195.87828,62,76,0
195.83313,195.9564,72,76,0
195.83313,195.9564,74,76,0
195.9998,196.21161,62,76,0
196.16647,196.32967,74,76,0
196.16647,196.37828,71,76,0
196.33313,196.54494,74,76,0
196.4998,196.62306,82,86,0
196.4998,196.62306,85,86,0
196.4998,196.62306,88,86,0
196.66647,196.87828,62,76,0
196.83313,196.9564,73,76,0
196.83313,196.9564,76,76,0
196.83313,196.9564,70,76,0
196.9998,197.10397,74,76,0
196.9998,197.13348,86,76,0
197.16647,197.30016,81,76,0
197.33313,197.46681,81,76,0
197.4998,197.63348,74,76,0
197.66647,197.80016,74,76,0
197.83313,197.96681,69,76,0
197.9998,198.13348,74,76,0
198.16647,198.30016,69,76,0
198.33313,198.46681,69,76,0
198.4998,198.63348,62,76,0
198.66647,198.80016,62,76,0
198.83313,198.96681,57,76,0
199.16647,199.27063,50,56,0
199.33313,199.4373,52,56,0
199.66647,199.77063,54,56,0
199.83313,199.9373,57,56,0
200.16647,200.27063,54,56,0
200.33313,200.4373,52,56,0
200.66647,200.77063,50,56,0
200.83313,200.9373,48,56,0
201.16646,201.27063,47,56,0
201.33313,201.4373,54,56,0
201.66646,201.77063,47,56,0
201.83313,201.9373,48,56,0
202.16646,202.27063,47,56,0
202.33313,202.4373,54,56,0
202.66646,202.77063,47,56,0
202.83313,202.9373,48,56,0
203.16646,203.27063,47,56,0
203.33313,203.4373,55,56,0
203.66646,203.77063,47,56,0
203.83313,203.9373,48,56,0
204.16646,204.27063,47,56,0
204.33313,204.4373,55,56,0
204.66646,204.77063,47,56,0
204.83313,204.9373,48,56,0
205.16646,205.27063,47,56,0
205.33313,205.4373,57,56,0
205.66646,205.77063,47,56,0
205.83313,205.9373,48,56,0
206.16646,206.27063,47,56,0
206.33313,206.43729,57,56,0
206.66646,206.77063,47,56,0
206.83313,206.93729,48,56,0
207.16646,207.27063,47,56,0
207.33313,207.43729,58,56,0
207.66646,207.77063,47,56,0
207.83313,207.93729,48,56,0
208.16646,208.27063,47,56,0
208.33313,208.43729,58,56,0
208.66646,208.77063,47,56,0
208.83313,208.93729,48,56,0
209.16646,209.27063,47,56,0
209.33313,209.43729,59,56,0
209.66646,209.77063,47,56,0
209.83313,209.93729,48,56,0
210.16646,210.27063,48,56,0
210.33313,210.43729,60,56,0
210.66646,210.77063,48,56,0
210.83313,210.93729,49,56,0
211.16646,211.27061,49,56,0
211.33311,211.43729,61,56,0
212.99979,214.95811,61,56,0
212.99979,214.95811,66,56,0
212.99979,214.95811,69,56,0
214.99979,216.95811,61,56,0
214.99979,216.95811,65,56,0
214.99979,216.95811,71,56,0
216.99979,218.95811,61,56,0
216.99979,218.95811,66,56,0
216.99979,218.95811,72,56,0
218.99979,219.32617,73,56,0
218.99979,219.32617,61,56,0
218.99979,219.32617,65,56,0
221.16644,221.27061,51,56,0
221.33311,221.43727,58,56,0
221.66644,221.77061,51,56,0
221.83311,221.93727,52,56,0
222.16644,222.27061,51,56,0
222.33311,222.43727,58,56,0
222.66644,222.77061,51,56,0
222.83311,222.93727,52,56,0
223.16644,223.27061,51,57,0
223.33311,223.43727,59,58,0
223.66644,223.77061,51,58,0
223.83311,223.93727,52,59,0
224.16644,224.27061,52,60,0
224.33311,224.43727,59,60,0
224.66644,224.77061,52,61,0
224.83311,224.93727,53,61,0
225.16644,225.27061,52,62,0
225.33311,225.43727,60,62,0
225.66644,225.77061,52,63,0
225.83311,225.93727,53,63,0
226.16644,226.27061,53,64,0
226.33311,226.43727,60,65,0
226.66644,226.7706,53,65,0
226.8331,226.93727,54,66,0
227.16644,227.2706,53,66,0
227.3331,227.43727,61,67,0
227.66644,227.7706,54,68,0
227.8331,227.93727,55,68,0
228.16644,228.2706,54,69,0
228.3331,228.43727,62,69,0
228.66644,228.7706,55,70,0
228.8331,228.93727,56,70,0
229.16644,229.2706,55,71,0
229.3331,229.43727,63,72,0
229.66644,229.7706,56,72,0
229.8331,229.93727,57,73,0
230.16644,230.2706,57,73,0
230.3331,230.43727,58,74,0
230.66644,230.7706,58,75,0
230.8331,230.93727,59,75,0
231.16644,231.2706,71,76,0
231.3331,231.43727,75,76,0
231.3331,231.43727,63,76,0
231.66643,231.7706,83,76,0
231.8331,231.93727,87,76,0
231.8331,231.93727,75,76,0
232.16643,232.2706,75,76,0
232.3331,232.43727,81,76,0
232.3331,232.43727,69,76,0
232.66643,232.7706,87,76,0
232.8331,232.93727,93,76,0
232.8331,232.93727,81,76,0
233.16643,233.2706,94,80,0
233.16643,233.2706,82,80,0
233.3331,233.43727,89,80,0
233.66643,233.7706,82,80,0
233.8331,233.93727,77,80,0
234.16643,234.2706,70,80,0
234.3331,234.43727,65,80,0
234.66643,234.7706,58,80,0
234.8331,234.93727,53,80,0
235.99977,236.20116,58,56,0
236.16643,236.36781,61,59,0
236.3331,236.53448,66,61,0
236.49977,236.70116,70,64,0
236.66643,236.86781,73,66,0
236.8331,236.96678,78,69,0
236.99976,237.9685,82,56,0
236.99976,237.9685,70,56,0
236.99976,237.9685,73,56,0
237.99976,238.20116,58,56,0
238.16643,238.36781,63,58,0
238.3331,238.53448,66,61,0
238.49976,238.70116,70,63,0
238.66643,238.86781,75,66,0
238.8331,238.96678,78,68,0
238.99976,239.9685,82,56,0
238.99976,239.9685,75,56,0
238.99976,239.9685,70,56,0
239.99976,240.20114,60,65,0
240.16643,240.36781,63,67,0
240.3331,240.53448,66,69,0
240.49976,240.70114,72,70,0
240.66643,240.86781,75,72,0
240.8331,240.96677,84,74,0
241.16643,241.2706,94,76,0
241.16643,241.2706,82,76,0
241.3331,241.43726,89,76,0
241.66643,241.77058,82,76,0
241.83308,241.93726,77,76,0
242.16643,242.27058,70,76,0
242.33308,242.43726,65,76,0
242.66643,242.77058,58,76,0
242.83308,242.93726,53,76,0
244.21294,244.4363,70,64,0
244.38736,244.61702,73,64,0
244.56807,244.79774,78,64,0
244.7488,244.97847,82,64,0
244.92952,246.17314,73,64,0
244.92952,246.17314,85,64,0
246.39917,246.63895,66,56,0
246.58784,246.82762,69,56,0
246.77654,247.01631,74,56,0
246.96521,247.20499,78,56,0
247.15388,248.4373,69,56,0
247.15388,248.4373,81,56,0
248.47464,248.72382,62,56,0
248.67072,248.9199,67,56,0
248.86679,249.11598,70,56,0
249.06287,249.31206,74,56,0
249.25896,249.50813,79,56,0
249.45503,250.78877,74,56,0
249.45503,250.78877,86,56,0
250.82758,251.07675,64,56,0
251.02365,251.27284,67,56,0
251.21973,251.46892,70,56,0
251.4158,251.665,76,56,0
251.6119,251.86107,82,56,0
251.80797,251.96524,88,56,0
252.19272,252.31065,86,56,0
252.3814,252.49933,81,57,0
252.75876,252.87668,74,58,0
252.94743,253.06537,69,58,0
253.3248,253.44272,74,59,0
253.51347,253.6314,69,60,0
253.89084,254.00876,86,61,0
254.07951,254.19743,81,62,0
254.45686,254.5748,86,63,0
254.64555,254.76347,82,63,0
255.0229,255.14084,74,64,0
255.2116,255.32951,70,65,0
255.58894,255.70686,74,66,0
255.77762,255.89555,70,67,0
256.15497,256.26794,86,68,0
256.3357,256.44867,82,68,0
256.69714,256.8101,87,69,0
256.87787,256.9908,82,70,0
257.23932,257.35226,75,71,0
257.42004,257.533,70,72,0
257.7815,257.89444,76,73,0
257.96222,258.07516,70,73,0
258.32364,258.4366,88,74,0
258.50436,258.61734,82,75,0
258.8658,258.97482,89,76,0
259.04022,259.14926,82,76,0
259.38907,259.49808,77,76,0
259.5635,259.67252,70,75,0
259.91232,260.02133,65,68,0
260.08676,260.19577,58,64,0
260.43558,260.53976,65,56,0
260.60226,260.72552,58,56,0
260.93558,261.05884,63,56,0
260.93558,261.05884,55,56,0
261.10226,261.22552,58,56,0
261.10226,261.22552,65,56,0
261.43558,261.55884,63,56,0
261.43558,261.55884,67,56,0
261.60226,261.72552,65,56,0
261.60226,261.72552,70,56,0
261.93558,262.05884,63,56,0
261.93558,262.05884,67,56,0
262.10226,262.22552,58,56,0
262.10226,262.22552,65,56,0
262.43558,262.55884,63,56,0
262.43558,262.55884,55,56,0
262.60226,262.72552,55,56,0
262.60226,262.72552,62,56,0
262.93558,263.05884,60,56,0
262.93558,263.05884,55,56,0
263.10223,263.22552,62,68,0
263.10223,263.22552,67,68,0
263.10223,263.22552,55,68,0
263.43558,263.55884,60,56,0
263.43558,263.55884,55,56,0
263.60223,263.72552,62,56,0
263.60223,263.72552,55,56,0
263.93558,264.05884,60,56,0
263.93558,264.05884,55,56,0
264.10223,264.22552,55,68,0
264.10223,264.22552,62,68,0
264.10223,264.22552,67,68,0
264.43558,264.55884,60,56,0
264.43558,264.55884,55,56,0
264.60223,264.72552,63,56,0
264.60223,264.72552,55,56,0
264.60223,264.72552,67,56,0
264.93558,265.05884,56,57,0
264.93558,265.05884,65,57,0
265.10223,265.22552,60,59,0
265.10223,265.22552,67,59,0
265.43558,265.55884,60,62,0
265.43558,265.55884,68,62,0
265.60223,265.72552,63,64,0
265.60223,265.72552,72,64,0
265.60223,265.72552,60,64,0
265.93558,266.05884,58,67,0
265.93558,266.05884,67,67,0
266.10223,266.22552,69,69,0
266.10223,266.22552,62,69,0
266.43558,266.55884,70,72,0
266.43558,266.55884,62,72,0
266.60223,266.7255,74,73,0
266.60223,266.7255,70,73,0
266.60223,266.7255,62,73,0
266.93558,267.05884,77,76,0
266.93558,267.05884,65,76,0
266.93558,267.05884,74,76,0
267.10223,267.2255,70,76,0
267.43558,267.55884,65,76,0
267.60223,267.7255,58,76,0
267.93558,268.05884,74,76,0
267.93558,268.05884,77,76,0
267.93558,268.05884,65,76,0
268.10223,268.2255,70,76,0
268.43558,268.55884,65,76,0
268.60223,268.7255,58,70,0
268.93558,269.05884,67,70,0
268.93558,269.05884,75,70,0
269.10223,269.2255,70,70,0
269.10223,269.2255,77,70,0
269.10223,269.2255,65,70,0
269.43558,269.55884,79,70,0
269.43558,269.55884,75,70,0
269.43558,269.55884,67,70,0
269.60223,269.7255,82,70,0
269.60223,269.7255,74,70,0
269.60223,269.7255,70,70,0
269.93558,270.05884,79,70,0
269.93558,270.05884,75,70,0
269.93558,270.05884,67,70,0
270.10223,270.2255,70,70,0
270.10223,270.2255,77,70,0
270.10223,270.2255,65,70,0
270.43558,270.55884,75,70,0
270.43558,270.55884,63,70,0
270.43558,270.55884,67,70,0
270.60223,270.7255,74,70,0
270.60223,270.7255,62,70,0
270.60223,270.7255,67,70,0
270.93558,271.05884,72,70,0
270.93558,271.05884,60,70,0
270.93558,271.05884,67,70,0
271.10223,271.2255,79,78,0
271.10223,271.2255,67,78,0
271.10223,271.2255,74,78,0
271.43558,271.55884,67,70,0
271.43558,271.55884,72,70,0
271.43558,271.55884,60,70,0
271.60223,271.7255,62,70,0
271.60223,271.7255,67,70,0
271.60223,271.7255,74,70,0
271.93558,272.05884,72,70,0
271.93558,272.05884,67,70,0
271.93558,272.05884,60,70,0
272.10223,272.2255,79,78,0
272.10223,272.2255,74,78,0
272.10223,272.2255,67,78,0
272.43558,272.55884,72,70,0
272.43558,272.55884,67,70,0
272.43558,272.55884,60,70,0
272.60223,272.7255,79,70,0
272.60223,272.7255,67,70,0
272.60223,272.7255,75,70,0
272.93558,273.05884,77,70,0
272.93558,273.05884,68,70,0
272.93558,273.05884,65,70,0
273.10223,273.2255,79,70,0
273.10223,273.2255,72,70,0
273.10223,273.2255,67,70,0
273.43558,273.55884,68,70,0
273.43558,273.55884,80,70,0
273.43558,273.55884,72,70,0
273.60223,273.7255,80,70,0
273.60223,273.7255,72,70,0
273.60223,273.7255,84,70,0
273.93558,274.05884,87,71,0
273.93558,274.05884,84,71,0
273.93558,274.05884,75,71,0
274.10223,274.2255,80,71,0
274.10223,274.2255,84,71,0
274.10223,274.2255,72,71,0
274.43558,274.55884,87,72,0
274.43558,274.55884,84,72,0
274.43558,274.55884,75,72,0
274.60223,274.7255,75,72,0
274.60223,274.7255,84,72,0
274.60223,274.7255,72,72,0
274.93558,275.05884,79,73,0
274.93558,275.05884,70,73,0
274.93558,275.05884,67,73,0
275.10223,275.2255,81,73,0
275.10223,275.2255,69,73,0
275.10223,275.2255,74,73,0
275.43558,275.55884,70,73,0
275.43558,275.55884,82,73,0
275.43558,275.55884,79,73,0
275.60223,275.7255,82,74,0
275.60223,275.7255,74,74,0
275.60223,275.7255,86,74,0
275.93558,276.05884,77,74,0
275.93558,276.05884,89,74,0
275.93558,276.05884,86,74,0
276.10223,276.2255,86,75,0
276.10223,276.2255,82,75,0
276.10223,276.2255,74,75,0
276.43558,276.55884,86,75,0
276.43558,276.55884,89,75,0
276.43558,276.55884,77,75,0
276.60223,276.7255,86,75,0
276.7689,276.89215,91,76,0
276.93558,277.05884,86,76,0
277.10223,277.2255,86,76,0
277.2689,277.39215,79,76,0
277.43558,277.55884,79,76,0
277.60223,277.7255,74,76,0
277.7689,277.89215,79,76,0
277.93558,278.05884,74,76,0
278.10223,278.2255,74,76,0
278.2689,278.39215,67,76,0
278.43558,278.55884,67,76,0
278.60223,278.7255,62,76,0
278.93558,279.05884,74,76,0
278.93558,279.05884,67,76,0
278.93558,279.05884,62,76,0
279.2689,279.39215,63,76,0
279.2689,279.39215,69,76,0
279.2689,279.39215,72,76,0
279.60223,279.7255,66,76,0
279.60223,279.7255,62,76,0
279.60223,279.7255,69,76,0
279.93558,280.05884,63,76,0
279.93558,280.05884,67,76,0
279.93558,280.05884,58,76,0
280.2689,280.39215,63,76,0
280.2689,280.39215,60,76,0
280.2689,280.39215,65,76,0
280.60223,280.7255,58,76,0
280.60223,280.7255,62,76,0
280.60223,280.7255,65,76,0
280.7689,280.89215,87,76,0
280.93558,281.05884,82,76,0
281.10223,281.2255,82,76,0
281.2689,281.39215,75,76,0
281.43558,281.55884,75,76,0
281.60223,281.7255,70,76,0
281.7689,281.89215,75,76,0
281.93558,282.05884,70,76,0
282.10223,282.2255,70,76,0
282.2689,282.39215,63,76,0
282.43558,282.55884,63,76,0
282.60223,282.7255,58,76,0
282.93558,283.05884,70,76,0
282.93558,283.05884,58,76,0
282.93558,283.05884,63,76,0
283.2689,283.39215,68,76,0
283.2689,283.39215,60,76,0
283.2689,283.39215,65,76,0
283.60223,283.7255,58,76,0
283.60223,283.7255,62,76,0
283.60223,283.7255,65,76,0
283.93555,284.05884,55,76,0
283.93555,284.05884,63,76,0
283.93555,284.05884,60,76,0
284.2689,284.39215,69,76,0
284.2689,284.39215,62,76,0
284.2689,284.39215,57,76,0
284.60223,284.7255,67,76,0
284.60223,284.7255,58,76,0
284.60223,284.7255,62,76,0
284.7689,284.9807,62,76,0
284.93555,285.14737,61,76,0
285.10223,285.31403,62,76,0
285.2689,285.4807,63,76,0
285.43555,285.58835,62,76,0
284.7689,285.5918,66,76,0
284.7689,285.6005,57,76,0
285.60223,285.7255,55,76,0
285.60223,285.7255,63,76,0
285.60223,285.7255,67,76,0
285.7689,285.9807,62,76,0
285.93555,286.14737,61,76,0
286.10223,286.31403,62,76,0
286.2689,286.4807,63,76,0
286.43555,286.58835,62,76,0
285.7689,286.5918,66,76,0
285.7689,286.6005,57,76,0
286.60223,286.7255,55,76,0
286.60223,286.7255,63,76,0
286.60223,286.7255,67,76,0
286.7689,286.98068,62,76,0
286.7689,287.09528,66,76,0
286.7689,287.09528,57,76,0
286.93555,287.14737,61,76,0
287.10223,287.31403,62,76,0
287.2689,287.48068,67,76,0
287.43555,287.64737,65,76,0
287.60223,287.81403,66,76,0
287.7689,287.98068,70,76,0
287.93555,288.14737,68,76,0
288.10223,288.31403,69,76,0
288.2689,288.48068,75,76,0
288.43555,288.5779,74,76,0
288.60223,288.7255,67,76,0
288.60223,288.7255,79,76,0
288.60223,288.7255,75,76,0
288.60223,288.7255,70,76,0
288.7689,288.98068,74,76,0
288.7689,288.98068,69,76,0
288.93555,289.14737,73,76,0
289.10223,289.31403,74,76,0
289.2689,289.48068,75,76,0
289.43555,289.5779,74,76,0
288.7689,289.59875,78,76,0
289.60223,289.7255,67,76,0
289.60223,289.7255,79,76,0
289.60223,289.7255,75,76,0
289.60223,289.7255,70,76,0
289.7689,289.98068,74,76,0
289.7689,289.98068,69,76,0
289.93555,290.14737,73,76,0
290.10223,290.31403,74,76,0
290.2689,290.48068,75,76,0
290.43555,290.5779,74,76,0
289.7689,290.59875,78,76,0
290.60223,290.7255,67,76,0
290.60223,290.7255,79,76,0
290.60223,290.7255,75,76,0
290.60223,290.7255,70,76,0
290.7689,290.98068,74,76,0
290.7689,291.09528,78,76,0
290.7689,291.09528,69,76,0
290.93555,291.14737,73,76,0
291.10223,291.31403,74,76,0
291.2689,291.48068,79,76,0
291.43555,291.64737,77,76,0
291.60223,291.81403,78,76,0
291.7689,291.98068,82,76,0
291.93555,292.14737,80,76,0
292.10223,292.31403,81,76,0
292.2689,292.48068,87,76,0
292.43555,292.64737,85,76,0
292.60223,292.7255,86,76,0
292.7689,292.89215,91,76,0
292.93555,293.0588,86,76,0
293.10223,293.2255,86,76,0
293.2689,293.39215,79,76,0
293.43555,293.5588,79,76,0
293.6022,293.7255,72,76,0
293.7689,293.89215,77,76,0
293.93555,294.0588,72,76,0
294.1022,294.2255,72,76,0
294.2689,294.39215,65,76,0
294.43555,294.5588,65,76,0
294.6022,294.7255,58,76,0
294.7689,294.90256,63,76,0
294.93555,295.06924,58,75,0
295.1022,295.2359,58,74,0
295.2689,295.40256,51,73,0
295.43555,295.56924,51,72,0
295.6022,295.7359,46,71,0
295.7689,295.90256,63,70,0
295.93555,296.06924,58,69,0
296.1022,296.2359,58,68,0
296.2689,296.40256,51,68,0
296.43555,296.56924,51,67,0
296.6022,296.7359,46,66,0
296.93555,297.0692,63,67,0
296.93555,297.0692,55,67,0
297.1022,297.2359,58,68,0
297.1022,297.2359,65,68,0
297.43555,297.5692,63,70,0
297.43555,297.5692,67,70,0
297.6022,297.7359,70,70,0
297.6022,297.7359,65,70,0
297.93555,298.0692,67,72,0
297.93555,298.0692,63,72,0
298.1022,298.2359,70,73,0
298.1022,298.2359,65,73,0
298.43555,298.5692,75,75,0
298.43555,298.5692,67,75,0
298.6022,298.7359,79,76,0
298.6022,298.7359,75,76,0
298.6022,298.7359,67,76,0
298.93555,299.0692,87,80,0
298.93555,299.0692,91,80,0
298.93555,299.0692,79,80,0
299.1022,299.2359,75,80,0
299.1022,299.2359,87,80,0
299.1022,299.2359,84,80,0
299.43555,299.5692,75,80,0
299.43555,299.5692,87,80,0
299.43555,299.5692,84,80,0
299.6022,299.7359,72,80,0
299.6022,299.7359,84,80,0
299.6022,299.7359,80,80,0
299.93555,300.0692,72,80,0
299.93555,300.0692,80,80,0
299.93555,300.0692,84,80,0
300.1022,300.2359,80,80,0
300.1022,300.2359,68,80,0
300.1022,300.2359,77,80,0
300.43555,300.5692,80,80,0
300.43555,300.5692,68,80,0
300.43555,300.5692,77,80,0
300.6022,300.7359,79,80,0
300.6022,300.7359,67,80,0
300.6022,300.7359,75,80,0
300.93555,301.0692,87,80,0
300.93555,301.0692,75,80,0
300.93555,301.0692,84,80,0
301.1022,301.2359,80,80,0
301.1022,301.2359,84,80,0
301.1022,301.2359,72,80,0
301.43555,301.5692,80,80,0
301.43555,301.5692,84,80,0
301.43555,301.5692,72,80,0
301.6022,301.7359,80,80,0
301.6022,301.7359,77,80,0
301.6022,301.7359,68,80,0
301.93555,302.0692,80,80,0
301.93555,302.0692,68,80,0
301.93555,302.0692,77,80,0
302.1022,302.2359,67,80,0
302.1022,302.2359,75,80,0
302.1022,302.2359,79,80,0
302.43555,302.5692,75,80,0
302.43555,302.5692,79,80,0
302.43555,302.5692,67,80,0
302.6022,302.7359,77,80,0
302.6022,302.7359,75,80,0
302.6022,302.7359,65,80,0
302.93555,303.0692,77,80,0
302.93555,303.0692,75,80,0
302.93555,303.0692,65,80,0
303.1022,303.2359,82,80,0
303.1022,303.2359,70,80,0
303.1022,303.2359,74,80,0
305.6022,305.74457,63,56,0
305.76886,305.98068,63,57,0
305.93555,306.14734,66,59,0
306.1022,306.31403,71,60,0
306.26886,306.48068,75,61,0
306.43555,306.64734,78,63,0
306.6022,306.74457,83,64,0
306.76886,307.30707,87,64,0
307.26886,307.64386,85,64,0
307.6022,307.73587,83,64,0
307.76886,308.30707,82,64,0
307.76886,308.30707,78,64,0
308.26886,308.64386,80,64,0
308.26886,308.64386,77,64,0
308.6022,308.73587,78,64,0
308.6022,308.73587,75,64,0
309.1022,309.314,82,64,0
308.76886,309.59525,77,64,0
308.76886,309.59525,74,64,0
309.6022,309.814,75,64,0
309.6022,309.814,78,64,0
309.26886,310.09872,83,64,0
310.1022,310.314,82,61,0
309.76886,310.59525,77,60,0
309.76886,310.59525,74,60,0
310.6022,310.814,75,63,0
310.6022,310.814,78,63,0
310.26886,311.09872,83,62,0
311.1022,311.314,82,59,0
310.76886,312.59525,74,64,0
310.76886,312.59525,77,64,0
311.26886,312.59872,83,58,0
313.6022,313.74457,63,56,0
313.76886,313.98068,63,58,0
313.93552,314.14734,66,61,0
314.1022,314.314,71,64,0
314.26886,314.48068,75,67,0
314.43552,314.64734,78,69,0
314.6022,314.74457,83,72,0
314.76886,315.25845,78,76,0
314.76886,315.25845,90,76,0
314.76886,315.25845,86,76,0
315.26886,315.59177,85,76,0
315.26886,315.59177,76,76,0
315.26886,315.59177,88,76,0
315.6022,315.73587,86,76,0
315.6022,315.73587,83,76,0
315.6022,315.73587,74,76,0
315.76886,316.22894,98,76,0
315.76886,316.22894,90,76,0
315.76886,316.22894,86,76,0
316.26886,316.56573,97,76,0
316.26886,316.56573,88,76,0
316.26886,316.56573,85,76,0
316.6022,316.73587,94,76,0
316.6022,316.73587,82,76,0
316.76886,317.56226,95,76,0
316.76886,317.56226,86,76,0
316.76886,317.56226,83,76,0
317.6022,317.73587,94,76,0
317.6022,317.73587,85,76,0
317.6022,317.73587,82,76,0
317.76886,318.56226,95,76,0
317.76886,318.56226,83,76,0
317.76886,318.56226,86,76,0
318.6022,318.73587,94,76,0
318.6022,318.73587,82,76,0
318.6022,318.73587,85,76,0
318.76886,318.90253,95,76,0
318.76886,318.90253,83,76,0
318.76886,318.90253,86,76,0
318.93552,319.0692,94,76,0
318.93552,319.0692,82,76,0
319.1022,319.40253,95,76,0
319.1022,319.40253,83,76,0
319.43552,319.5692,82,76,0
319.43552,319.5692,94,76,0
319.6022,319.89908,83,76,0
319.6022,319.89908,95,76,0
319.93552,320.0692,82,76,0
319.93552,320.0692,94,76,0
320.1022,320.39908,95,76,0
320.1022,320.39908,83,76,0
320.43552,320.5692,82,76,0
320.43552,320.5692,94,76,0
320.6022,320.73587,95,76,0
320.6022,320.73587,83,76,0
320.76886,321.2289,56,80,0
320.76886,321.2289,53,80,0
320.76886,321.2289,62,80,0
320.76886,321.2289,65,80,0
321.26886,321.7289,62,80,0
321.26886,321.7289,56,80,0
321.26886,321.7289,53,80,0
321.26886,321.7289,65,80,0
321.76886,322.2289,62,80,0
321.76886,322.2289,56,80,0
321.76886,322.2289,65,80,0
321.76886,322.2289,53,80,0
322.26886,322.7289,62,80,0
322.26886,322.7289,65,80,0
322.26886,322.7289,56,80,0
322.26886,322.7289,53,80,0
322.76886,323.2289,62,76,0
322.76886,323.2289,65,76,0
322.76886,323.2289,56,76,0
322.76886,323.2289,53,76,0
323.26886,323.7289,66,76,0
323.26886,323.7289,54,76,0
323.26886,323.7289,58,76,0
323.76886,324.2289,68,76,0
323.76886,324.2289,62,76,0
323.76886,324.2289,74,76,0
324.26886,324.7289,75,76,0
324.26886,324.7289,63,76,0
324.26886,324.7289,70,76,0
324.76886,325.2289,83,76,0
324.76886,325.2289,71,76,0
324.76886,325.2289,75,76,0
325.26886,325.7289,82,76,0
325.26886,325.7289,75,76,0
325.26886,325.7289,70,76,0
325.76886,326.2289,80,76,0
325.76886,326.2289,68,76,0
325.76886,326.2289,75,76,0
326.26886,326.7289,77,76,0
326.26886,326.7289,75,76,0
326.26886,326.7289,81,76,0
326.26886,326.7289,69,76,0
326.76886,326.93204,82,76,0
326.76886,326.93204,77,76,0
326.76886,326.93204,74,76,0
326.76886,326.93204,70,76,0
327.26886,328.30704,62,56,0
328.26886,328.75842,70,63,0
327.76886,328.79663,65,56,0
328.26886,328.80704,61,63,0
328.26886,328.80704,73,63,0
328.76886,329.25497,64,58,0
328.76886,329.25497,60,58,0
328.76886,329.25842,72,58,0
328.76886,329.25842,70,58,0
329.43552,329.6473,91,56,0
329.60217,329.814,96,56,0
329.76886,329.87302,84,56,0
329.93552,330.1473,79,56,0
330.10217,330.314,84,56,0
330.26886,330.37302,72,56,0
330.43552,330.6473,67,56,0
330.60217,330.814,72,56,0
330.76886,330.93204,68,56,0
330.76886,330.93204,60,56,0
331.26886,332.31744,60,56,0
332.26886,332.75842,68,56,0
332.26886,332.80704,59,56,0
332.26886,332.80704,71,56,0
331.76886,332.80704,63,56,0
332.76886,333.25494,62,56,0
332.76886,333.25494,58,56,0
332.76886,333.25842,70,56,0
332.76886,333.25842,68,56,0
333.43552,333.6473,89,56,0
333.60217,333.814,94,56,0
333.76886,333.87302,82,56,0
333.93552,334.1473,77,56,0
334.10217,334.314,82,56,0
334.26883,334.37302,70,56,0
334.43552,334.6473,65,56,0
334.60217,334.814,70,56,0
334.76883,335.0987,59,56,0
336.26883,336.8157,66,56,0
336.26883,336.8157,75,56,0
336.26883,336.8157,78,56,0
336.76883,337.3157,79,56,0
336.76883,337.3157,67,56,0
336.76883,337.3157,76,56,0
337.26883,337.59177,83,56,0
337.26883,337.59177,71,56,0
337.76883,338.3157,88,56,0
337.76883,338.3157,91,56,0
337.76883,338.3157,79,56,0
338.26883,338.59177,95,56,0
338.26883,338.59177,83,56,0
340.26883,340.8157,66,56,0
340.26883,340.8157,78,56,0
340.76883,341.3157,79,56,0
340.76883,341.3157,67,56,0
341.26883,341.59177,82,56,0
341.26883,341.59177,70,56,0
341.76883,342.25842,58,48,0
341.76883,342.3157,63,48,0
341.76883,342.3157,67,48,0
342.26883,342.3157,67,48,0
342.26883,342.59177,70,48,0
342.26883,342.5952,58,48,0
342.76883,342.98065,82,56,0
342.93552,343.1473,87,56,0
342.93552,343.1473,91,56,0
343.10217,343.31396,82,56,0
343.26883,343.48065,94,56,0
343.26883,343.48065,89,56,0
343.43552,343.6473,79,56,0
343.60217,343.81396,84,56,0
343.60217,343.81396,87,56,0
343.76883,343.98065,79,56,0
343.93552,344.1473,86,56,0
343.93552,344.1473,91,56,0
344.10217,344.31396,75,56,0
344.26883,344.48065,80,56,0
344.26883,344.48065,84,56,0
344.4355,344.6473,75,56,0
344.60217,344.73584,82,56,0
344.60217,344.73584,87,56,0
344.76883,344.98065,77,56,0
344.9355,345.1473,89,56,0
345.10217,345.31396,77,56,0
345.26883,345.48065,84,56,0
345.4355,345.6473,77,56,0
345.60217,345.81396,89,56,0
345.76883,345.98065,82,56,0
345.9355,346.1473,94,56,0
346.10217,346.31396,82,56,0
346.26883,346.48065,89,56,0
346.4355,346.6473,82,56,0
346.60217,346.73584,94,56,0
346.76883,346.98065,87,56,0
346.9355,347.1473,99,56,0
347.10217,347.31396,86,56,0
347.26883,347.48065,98,56,0
347.4355,347.6473,84,56,0
347.60217,347.81396,96,56,0
347.76883,347.98062,82,56,0
347.9355,348.1473,94,56,0
348.10217,348.31396,80,56,0
348.26883,348.48062,92,56,0
348.4355,348.6473,79,56,0
348.60217,348.73584,91,56,0
348.76883,348.98062,77,56,0
348.9355,349.1473,89,56,0
349.10217,349.31396,77,56,0
349.26883,349.48062,87,56,0
349.4355,349.6473,77,56,0
349.60217,349.81396,84,56,0
349.76883,349.98062,70,56,0
349.9355,350.1473,82,56,0
350.10217,350.31396,70,56,0
350.26883,350.48062,80,56,0
350.4355,350.6473,70,56,0
350.60217,350.73584,77,56,0
350.76883,350.98062,63,54,0
350.9355,351.1473,75,54,0
351.10217,351.31396,67,55,0
351.26883,351.48062,79,55,0
351.4355,351.6473,60,55,0
351.60217,351.73584,72,56,0
351.76883,351.98062,63,56,0
351.9355,352.1473,75,57,0
352.10217,352.31396,68,57,0
352.26883,352.48062,80,57,0
352.4355,352.6473,59,58,0
352.60217,352.73584,71,58,0
352.76883,352.98062,63,59,0
352.9355,353.1473,75,59,0
353.10217,353.31396,70,59,0
353.26883,353.48062,82,60,0
353.4355,353.6473,58,60,0
353.60217,353.73584,70,61,0
353.76883,353.98062,63,61,0
353.9355,354.1473,75,61,0
354.10217,354.31396,71,62,0
354.26883,354.48062,83,62,0
354.4355,354.6473,56,63,0
354.60214,354.73584,68,63,0
354.76883,354.98062,63,63,0
354.9355,355.0987,75,64,0
355.10214,355.31396,75,64,0
355.26883,355.3921,87,65,0
355.4355,355.6473,63,65,0
355.60214,355.72543,75,66,0
355.76883,355.98062,63,66,0
355.9355,356.0987,75,66,0
356.10214,356.31396,75,67,0
356.26883,356.3921,87,67,0
356.4355,356.6473,63,68,0
356.60214,356.72543,75,68,0
356.76883,356.98062,63,68,0
356.9355,357.0987,75,69,0
357.10214,357.31396,75,69,0
357.26883,357.3921,87,70,0
357.4355,357.6473,63,70,0
357.60214,357.72543,75,70,0
357.76883,357.98062,63,71,0
357.9355,358.0987,75,71,0
358.10214,358.31396,75,72,0
358.26883,358.3921,87,72,0
358.4355,358.64728,63,72,0
358.60214,358.7254,75,73,0
358.76883,359.0952,87,73,0
358.76883,359.0952,78,73,0
358.76883,359.0952,75,73,0
359.76883,359.98062,66,76,0
359.9355,360.14728,71,76,0
360.10214,360.31396,75,76,0
360.26883,360.48062,78,76,0
360.4355,360.64728,83,76,0
360.60214,360.73584,90,76,0
360.76883,361.71848,79,76,0
360.76883,361.71848,87,76,0
360.76883,361.71848,91,76,0
361.76883,362.22888,58,76,0
362.26883,362.72888,70,76,0
362.26883,362.72888,82,76,0
362.26883,362.72888,80,76,0
362.26883,362.72888,74,76,0
362.76883,363.0952,87,76,0
362.76883,363.0952,75,76,0
362.76883,363.0952,78,76,0
363.76883,363.98062,66,76,0
363.9355,364.14728,71,76,0
364.10214,364.31396,75,76,0
364.26883,364.48062,78,76,0
364.4355,364.64728,83,76,0
364.60214,364.73584,90,76,0
364.7688,365.71848,79,76,0
364.7688,365.71848,87,76,0
364.7688,365.71848,91,76,0
365.7688,366.22888,58,76,0
366.2688,366.72888,70,76,0
366.2688,366.72888,82,76,0
366.2688,366.72888,74,76,0
366.2688,366.72888,80,76,0
366.7688,367.22888,58,76,0
367.2688,367.72888,74,76,0
367.2688,367.72888,82,76,0
367.2688,367.72888,86,76,0
367.7688,368.22888,58,76,0
368.2688,368.72888,92,76,0
368.2688,368.72888,82,76,0
368.2688,368.72888,94,76,0
368.2688,368.72888,86,76,0
368.7688,368.89206,63,76,0
368.7688,368.89206,55,76,0
368.9355,369.05875,63,76,0
368.9355,369.05875,55,76,0
369.10214,369.2254,58,76,0
369.10214,369.2254,65,76,0
369.2688,369.39206,63,76,0
369.2688,369.39206,67,76,0
369.4355,369.55875,63,76,0
369.4355,369.55875,67,76,0
369.60214,369.7254,70,76,0
369.60214,369.7254,65,76,0
369.7688,369.89206,63,76,0
369.7688,369.89206,67,76,0
369.9355,370.05875,67,76,0
369.9355,370.05875,63,76,0
370.10214,370.2254,58,76,0
370.10214,370.2254,65,76,0
370.2688,370.39206,55,76,0
370.2688,370.39206,63,76,0
370.4355,370.55875,55,76,0
370.4355,370.55875,63,76,0
370.60214,370.7254,58,76,0
370.9355,371.05875,63,76,0
370.9355,371.05875,51,76,0
371.10214,371.2254,55,76,0
371.10214,371.2254,58,76,0
371.4355,371.55875,63,76,0
371.4355,371.55875,51,76,0
371.60214,371.7254,55,76,0
371.60214,371.7254,58,76,0
371.9355,372.05875,63,76,0
371.9355,372.05875,51,76,0
372.10214,372.2254,58,76,0
372.10214,372.2254,55,76,0
372.4355,372.55875,63,76,0
372.4355,372.55875,51,76,0
372.60214,372.7254,55,76,0
372.60214,372.7254,58,76,0
372.9355,373.05875,55,76,0
372.9355,373.05875,67,76,0
373.10214,373.2254,58,76,0
373.10214,373.2254,61,76,0
373.4355,373.55875,58,76,0
373.4355,373.55875,70,76,0
373.60214,373.7254,61,76,0
373.60214,373.7254,67,76,0
373.9355,374.05875,73,76,0
373.9355,374.05875,61,76,0
374.10214,374.2254,67,76,0
374.10214,374.2254,70,76,0
374.4355,374.55875,79,76,0
374.4355,374.55875,67,76,0
374.60214,374.7254,75,76,0
374.60214,374.7254,72,76,0
374.93546,375.05875,63,76,0
374.93546,375.05875,75,76,0
375.10214,375.2254,68,76,0
375.10214,375.2254,72,76,0
375.43546,375.55875,72,76,0
375.43546,375.55875,84,76,0
375.60214,375.7254,80,76,0
375.60214,375.7254,77,76,0
375.93546,376.05875,80,76,0
375.93546,376.05875,68,76,0
376.10214,376.2254,74,76,0
376.10214,376.2254,77,76,0
376.43546,376.55875,74,76,0
376.43546,376.55875,86,76,0
376.60214,376.7254,82,84,0
376.60214,376.7254,77,84,0
376.7688,376.89206,75,84,0
376.7688,376.89206,67,84,0
376.7688,376.89206,79,84,0
377.60214,377.7254,74,84,0
377.60214,377.7254,65,84,0
377.60214,377.7254,70,84,0
377.60214,377.7254,77,84,0
377.7688,377.89206,70,84,0
377.7688,377.89206,79,84,0
377.7688,377.89206,75,84,0
377.7688,377.89206,67,84,0
378.60214,378.7254,74,84,0
378.60214,378.7254,82,84,0
378.60214,378.7254,70,84,0
378.60214,378.7254,77,84,0
378.7688,378.89206,79,84,0
378.7688,378.89206,75,84,0
378.7688,378.89206,70,84,0
378.7688,378.89206,67,84,0
379.60214,379.7254,74,84,0
379.60214,379.7254,70,84,0
379.60214,379.7254,77,84,0
379.60214,379.7254,65,84,0
379.7688,379.89206,70,84,0
379.7688,379.89206,79,84,0
379.7688,379.89206,75,84,0
379.7688,379.89206,67,84,0
380.60214,380.7254,82,84,0
380.60214,380.7254,74,84,0
380.60214,380.7254,77,84,0
380.60214,380.7254,70,84,0
380.7688,380.89206,75,84,0
380.7688,380.89206,70,84,0
380.7688,380.89206,79,84,0
380.7688,380.89206,67,84,0
381.10214,381.2254,74,84,0
381.10214,381.2254,70,84,0
381.10214,381.2254,77,84,0
381.10214,381.2254,65,84,0
381.2688,381.39206,70,84,0
381.2688,381.39206,75,84,0
381.2688,381.39206,79,84,0
381.2688,381.39206,67,84,0
381.60214,381.7254,82,84,0
381.60214,381.7254,74,84,0
381.60214,381.7254,70,84,0
381.60214,381.7254,77,84,0
381.7688,381.89206,79,84,0
381.7688,381.89206,70,84,0
381.7688,381.89206,75,84,0
381.7688,381.89206,67,84,0
382.10214,382.2254,70,84,0
382.10214,382.2254,77,84,0
382.10214,382.2254,74,84,0
382.10214,382.2254,65,84,0
382.2688,382.39206,75,84,0
382.2688,382.39206,70,84,0
382.2688,382.39206,79,84,0
382.2688,382.39206,67,84,0
382.60214,382.7254,82,84,0
382.60214,382.7254,70,84,0
382.60214,382.7254,74,84,0
382.60214,382.7254,77,84,0
382.7688,382.89206,75,84,0
382.7688,382.89206,79,84,0
382.7688,382.89206,67,84,0
383.10214,383.2254,82,84,0
383.10214,383.2254,74,84,0
383.10214,383.2254,70,84,0
383.10214,383.2254,77,84,0
383.2688,383.39206,75,84,0
383.2688,383.39206,79,84,0
383.2688,383.39206,67,84,0
383.60214,383.7254,86,84,0
383.60214,383.7254,74,84,0
383.60214,383.7254,82,84,0
383.60214,383.7254,77,84,0
383.7688,383.89206,87,84,0
383.7688,383.89206,79,84,0
383.7688,383.89206,75,84,0
383.7688,383.89206,82,84,0
384.10214,384.2254,82,84,0
384.10214,384.2254,86,84,0
384.10214,384.2254,77,84,0
384.10214,384.2254,74,84,0
384.2688,384.39206,87,84,0
384.2688,384.39206,75,84,0
384.2688,384.39206,79,84,0
384.2688,384.39206,82,84,0
384.60214,384.7254,86,84,0
384.60214,384.7254,82,84,0
384.60214,384.7254,74,84,0
384.60214,384.7254,77,84,0
384.7688,385.09518,87,84,0
384.7688,385.09518,75,84,0
384.7688,385.09518,79,84,0
384.7688,385.09518,82,84,0
385.7688,386.09518,87,84,0
385.7688,386.09518,82,84,0
385.7688,386.09518,91,84,0
385.7688,386.09518,79,84,0
386.7688,388.90353,51,84,0
386.7688,388.90353,63,84,0
386.7688,388.90353,58,84,0
386.7688,388.90353,55,84,0
0.8333325,0.95659626,34,56,0
0.999999,1.1232628,39,56,0
1.333332,1.4565958,34,56,0
1.4999985,1.6232623,39,56,0
1.8333315,1.9565953,34,56,0
1.999998,2.1232617,39,56,0
2.333331,2.4565947,34,56,0
2.4999976,2.6232612,39,56,0
2.8333304,2.9565942,34,56,0
2.999997,3.1232607,39,56,0
3.33333,3.4565938,34,66,0
3.4999964,3.6232603,39,56,0
3.8333294,3.9565933,34,56,0
3.999996,4.1232595,39,56,0
4.333329,4.4565926,34,66,0
4.4999957,4.623259,39,56,0
4.8333287,4.956592,36,56,0
4.999995,5.1232586,41,56,0
5.333328,5.4565916,36,57,0
5.4999943,5.623258,41,59,0
5.8333273,5.956591,36,63,0
5.999994,6.1232576,43,64,0
6.333327,6.4565907,38,68,0
6.4999933,6.623257,43,70,0
6.8333263,6.95659,34,73,0
6.999993,7.1232567,46,76,0
7.333326,7.4565897,58,76,0
7.4999924,7.623256,53,76,0
7.8333254,7.956589,46,76,0
7.999992,8.123256,34,76,0
8.333325,8.456589,58,76,0
8.499991,8.623256,53,76,0
8.833324,8.956588,34,70,0
8.833324,8.956588,46,70,0
8.999991,9.123255,51,70,0
8.999991,9.123255,39,70,0
9.333324,9.456588,34,70,0
9.333324,9.456588,46,70,0
9.49999,9.623254,51,70,0
9.49999,9.623254,39,70,0
9.8333235,9.956587,34,70,0
9.8333235,9.956587,46,70,0
9.99999,10.123254,39,70,0
9.99999,10.123254,51,70,0
10.333323,10.456587,34,70,0
10.333323,10.456587,46,70,0
10.4999895,10.623253,51,70,0
10.4999895,10.623253,39,70,0
10.833323,10.956586,34,70,0
10.833323,10.956586,46,70,0
10.999989,11.123253,51,70,0
10.999989,11.123253,39,70,0
11.333322,11.456586,46,78,0
11.333322,11.456586,34,78,0
11.499989,11.623252,39,70,0
11.499989,11.623252,51,70,0
11.833322,11.956585,34,70,0
11.833322,11.956585,46,70,0
11.999988,12.123252,51,70,0
11.999988,12.123252,39,70,0
12.333321,12.456585,34,78,0
12.333321,12.456585,46,78,0
12.499988,12.623251,51,70,0
12.499988,12.623251,39,70,0
12.833321,12.956584,48,70,0
12.833321,12.956584,36,70,0
12.999987,13.123251,41,70,0
12.999987,13.123251,53,70,0
13.33332,13.456584,36,70,0
13.33332,13.456584,48,70,0
13.499987,13.62325,53,70,0
13.499987,13.62325,41,70,0
13.83332,13.956583,32,70,0
13.83332,13.956583,44,70,0
13.999986,14.12325,56,70,0
13.999986,14.12325,44,70,0
14.333319,14.456583,44,71,0
14.333319,14.456583,32,71,0
14.499986,14.623249,56,71,0
14.499986,14.623249,44,71,0
14.833319,14.956582,36,72,0
14.833319,14.956582,48,72,0
14.999985,15.123249,55,72,0
14.999985,15.123249,43,72,0
15.333318,15.456582,38,73,0
15.333318,15.456582,50,73,0
15.499985,15.623248,43,73,0
15.499985,15.623248,55,73,0
15.833318,15.956581,34,74,0
15.833318,15.956581,46,74,0
15.999984,16.123247,46,74,0
15.999984,16.123247,58,74,0
16.333317,16.456581,34,74,0
16.333317,16.456581,46,74,0
16.499983,16.623247,46,75,0
16.499983,16.623247,58,75,0
16.833317,16.956581,62,75,0
16.999983,17.123247,67,76,0
17.166649,17.289913,62,76,0
17.333317,17.45658,62,76,0
17.499983,17.623247,55,76,0
17.666649,17.789913,55,76,0
17.833315,17.95658,50,76,0
17.999983,18.123245,55,76,0
18.166649,18.289913,50,76,0
18.333315,18.45658,50,76,0
18.49998,18.623245,43,76,0
18.666649,18.789911,43,76,0
18.833315,18.95658,38,76,0
18.99998,19.123245,46,76,0
18.99998,19.123245,34,76,0
19.333315,19.456577,48,76,0
19.333315,19.456577,36,76,0
19.666647,19.789911,38,76,0
19.666647,19.789911,50,76,0
19.99998,20.123243,51,76,0
19.99998,20.123243,39,76,0
20.333313,20.456577,32,76,0
20.333313,20.456577,44,76,0
20.666645,20.78991,34,76,0
20.666645,20.78991,46,76,0
20.999979,21.123243,63,76,0
21.166645,21.28991,58,76,0
21.333311,21.456575,58,76,0
21.499979,21.623241,51,76,0
21.666645,21.78991,51,76,0
21.833311,21.956575,46,76,0
21.999977,22.123241,51,76,0
22.166645,22.289907,46,76,0
22.333311,22.456575,46,76,0
22.499977,22.623241,39,76,0
22.666643,22.789907,39,76,0
22.833311,22.956573,34,76,0
22.999977,23.123241,43,76,0
22.999977,23.123241,31,76,0
23.33331,23.456573,44,76,0
23.33331,23.456573,32,76,0
23.666643,23.789907,34,76,0
23.666643,23.789907,46,76,0
23.999975,24.12324,48,76,0
23.999975,24.12324,36,76,0
24.33331,24.456573,30,76,0
24.33331,24.456573,42,76,0
24.666641,24.789906,43,76,0
24.666641,24.789906,31,76,0
24.999975,25.201365,50,76,0
24.999975,25.201365,38,76,0
25.166641,25.36803,49,76,0
25.333307,25.534697,50,76,0
25.499975,25.701363,51,76,0
25.666641,25.789906,50,76,0
25.833307,25.956572,36,76,0
25.833307,25.956572,48,76,0
25.999973,26.201363,38,76,0
25.999973,26.201363,50,76,0
26.166641,26.368029,49,76,0
26.333307,26.534697,50,76,0
26.499973,26.701363,51,76,0
26.66664,26.789904,50,76,0
26.833307,26.95657,48,76,0
26.833307,26.95657,36,76,0
26.999973,27.201363,38,76,0
26.999973,27.201363,50,76,0
27.16664,27.368029,49,76,0
27.333305,27.534695,50,76,0
27.499973,27.70136,55,76,0
27.66664,27.868029,53,76,0
27.833305,28.034695,54,76,0
27.999971,28.20136,58,76,0
28.16664,28.368027,56,76,0
28.333305,28.534693,57,76,0
28.499971,28.70136,63,76,0
28.666637,28.789902,62,76,0
28.833305,28.956568,55,76,0
28.833305,28.956568,43,76,0
28.999971,29.201359,62,76,0
28.999971,29.201359,50,76,0
29.166637,29.368027,61,76,0
29.333303,29.534693,62,76,0
29.499971,29.701359,63,76,0
29.666637,29.7899,62,76,0
29.833303,29.956568,55,76,0
29.833303,29.956568,43,76,0
29.99997,30.201359,62,76,0
29.99997,30.201359,50,76,0
30.166637,30.368025,61,76,0
30.333303,30.53469,62,76,0
30.49997,30.701359,63,76,0
30.666636,30.7899,62,76,0
30.833303,30.956566,43,76,0
30.833303,30.956566,55,76,0
30.99997,31.201357,62,76,0
30.99997,31.201357,50,76,0
31.166636,31.368025,61,76,0
31.333302,31.53469,62,76,0
31.499968,31.701357,67,76,0
31.666636,31.868023,65,76,0
31.833302,32.03469,66,76,0
31.999968,32.201355,70,76,0
32.166634,32.368023,68,76,0
32.3333,32.53469,69,76,0
32.499966,32.701355,75,76,0
32.666634,32.868023,73,76,0
32.8333,32.996494,74,76,0
32.999966,33.12323,79,76,0
33.166634,33.289898,74,76,0
33.3333,33.456562,74,76,0
33.499966,33.62323,67,76,0
33.666634,33.789898,67,76,0
33.833298,33.956562,60,76,0
33.999966,34.12323,65,76,0
34.166634,34.289898,60,76,0
34.333298,34.456562,60,76,0
34.499966,34.62323,53,76,0
34.666634,34.789894,53,76,0
34.833298,34.956562,46,76,0
34.999966,35.12323,51,76,0
35.16663,35.289894,46,76,0
35.333298,35.456562,46,76,0
35.499966,35.62323,39,75,0
35.66663,35.789894,39,74,0
35.833298,35.956562,34,73,0
35.999966,36.123226,51,72,0
36.16663,36.289894,46,72,0
36.333298,36.456562,46,71,0
36.49996,36.623226,39,70,0
36.66663,36.789894,39,69,0
36.833298,36.956562,34,68,0
36.99996,37.123226,39,64,0
37.333298,37.45656,34,64,0
37.49996,37.623226,39,65,0
37.833294,37.95656,34,67,0
37.833294,37.95656,46,67,0
37.99996,38.123226,51,69,0
37.99996,38.123226,39,69,0
38.333294,38.45656,34,71,0
38.333294,38.45656,46,71,0
38.49996,38.623226,39,72,0
38.49996,38.623226,51,72,0
38.833294,38.95656,27,74,0
38.833294,38.95656,39,74,0
38.99996,39.123226,51,75,0
38.99996,39.123226,39,75,0
39.333294,39.45656,44,76,0
39.333294,39.45656,32,76,0
39.49996,39.623226,44,76,0
39.49996,39.623226,56,76,0
39.833294,39.95656,34,76,0
39.833294,39.95656,46,76,0
39.99996,40.123222,46,76,0
39.99996,40.123222,58,76,0
40.333294,40.45656,36,76,0
40.333294,40.45656,48,76,0
40.499958,40.623222,48,76,0
40.499958,40.623222,60,76,0
40.833294,40.956554,24,76,0
40.833294,40.956554,36,76,0
40.999958,41.123222,48,76,0
40.999958,41.123222,36,76,0
41.33329,41.456554,29,76,0
41.33329,41.456554,41,76,0
41.499958,41.623222,53,76,0
41.499958,41.623222,41,76,0
41.83329,41.956554,32,76,0
41.83329,41.956554,44,76,0
41.999958,42.123222,44,76,0
41.999958,42.123222,56,76,0
42.33329,42.456554,45,76,0
42.33329,42.456554,33,76,0
42.499958,42.623222,45,76,0
42.499958,42.623222,57,76,0
42.83329,42.956554,46,76,0
42.83329,42.956554,34,76,0
42.999958,43.123222,58,76,0
42.999958,43.123222,46,76,0
43.33329,43.456554,34,76,0
43.33329,43.456554,46,76,0
43.499958,43.62322,58,76,0
43.499958,43.62322,46,76,0
45.833286,45.975647,46,56,0
45.999954,46.201344,46,57,0
46.166622,46.368008,49,58,0
46.333286,46.534676,54,59,0
46.499954,46.701344,58,60,0
46.66662,46.868008,61,61,0
46.833286,46.975647,66,62,0
46.999954,47.548565,70,64,0
47.499954,47.883633,68,63,0
47.833286,47.95655,66,59,0
46.999954,47.960022,58,64,0
47.99995,48.54856,65,58,0
48.49995,48.883633,63,56,0
48.833286,48.956547,61,56,0
47.99995,48.960022,58,58,0
48.99995,49.32634,60,56,0
49.333282,49.54509,65,56,0
49.49995,49.786407,66,56,0
48.99995,49.96002,58,56,0
49.833282,50.04509,61,56,0
49.99995,50.32634,60,56,0
50.333282,50.54509,65,56,0
49.99995,50.96002,58,56,0
50.99995,52.812447,58,56,0
50.99995,52.812447,60,56,0
50.49995,52.826336,66,56,0
53.83328,53.97564,46,76,0
53.999947,54.21175,46,77,0
54.16661,54.378418,49,78,0
54.33328,54.545086,54,79,0
54.499947,54.71175,58,79,0
54.66661,54.878418,61,80,0
54.83328,54.97564,66,81,0
54.999947,55.21175,33,80,0
54.999947,55.21175,45,80,0
55.16661,55.378418,49,80,0
55.33328,55.545082,54,80,0
55.499943,55.71175,57,80,0
55.66661,55.878418,61,80,0
55.83328,55.97564,66,80,0
55.999943,56.468693,73,80,0
55.999943,56.468693,69,80,0
56.499943,56.968693,68,80,0
56.499943,56.968693,71,80,0
56.999943,57.3055,69,80,0
56.999943,57.3055,66,80,0
57.333275,57.475636,62,80,0
57.333275,57.475636,74,80,0
57.499943,57.805496,73,80,0
57.499943,57.805496,61,80,0
57.833275,57.975636,68,80,0
57.833275,57.975636,71,80,0
57.999943,58.305496,66,80,0
57.999943,58.305496,69,80,0
58.333275,58.475636,62,80,0
58.333275,58.475636,74,80,0
58.499943,58.805496,61,80,0
58.499943,58.805496,73,80,0
58.833275,58.975636,68,80,0
58.833275,58.975636,71,80,0
58.999943,59.46869,73,80,0
58.999943,59.46869,66,80,0
58.999943,59.46869,61,80,0
58.999943,59.46869,69,80,0
59.49994,59.96869,73,80,0
59.49994,59.96869,66,80,0
59.49994,59.96869,61,80,0
59.49994,59.96869,69,80,0
59.99994,60.46869,73,80,0
59.99994,60.46869,61,80,0
59.99994,60.46869,66,80,0
59.99994,60.46869,69,80,0
60.49994,60.96869,73,80,0
60.49994,60.96869,61,80,0
60.49994,60.96869,66,80,0
60.49994,60.96869,69,80,0
60.99994,61.44091,45,80,0
60.99994,61.44091,33,80,0
60.99994,61.44091,39,80,0
61.49994,61.94091,33,80,0
61.49994,61.94091,45,80,0
61.49994,61.94091,39,80,0
61.99994,62.44091,33,80,0
61.99994,62.44091,39,80,0
61.99994,62.44091,45,80,0
62.49994,62.94091,45,80,0
62.49994,62.94091,39,80,0
62.49994,62.94091,33,80,0
62.999935,63.44091,39,76,0
62.999935,63.44091,33,76,0
62.999935,63.44091,45,76,0
63.499935,63.940907,46,76,0
63.499935,63.940907,34,76,0
63.999935,64.44091,48,76,0
63.999935,64.44091,36,76,0
64.49994,64.94091,49,76,0
64.49994,64.94091,37,76,0
64.99993,65.44091,39,76,0
64.99993,65.44091,51,76,0
64.99993,65.44091,46,76,0
65.49993,65.9409,53,76,0
65.49993,65.9409,41,76,0
65.49993,65.9409,46,76,0
65.99993,66.4409,54,76,0
65.99993,66.4409,42,76,0
65.99993,66.4409,46,76,0
66.49993,66.9409,48,76,0
66.49993,66.9409,46,76,0
66.49993,66.9409,43,76,0
66.49993,66.9409,55,76,0
66.99993,67.22042,29,76,0
67.1666,67.387085,41,56,0
67.33327,67.55375,29,56,0
67.49993,67.72042,41,56,0
67.666595,67.887085,29,56,0
67.83327,68.05375,41,56,0
67.99993,68.22042,29,56,0
68.166595,68.387085,41,58,0
68.33327,68.55375,29,61,0
68.49993,68.72042,41,63,0
68.666595,68.887085,29,61,0
68.83327,68.96694,41,59,0
68.99993,69.21174,29,56,0
69.166595,69.3784,41,56,0
69.33327,69.54507,29,56,0
69.49993,69.71174,41,56,0
69.666595,69.8784,29,56,0
69.83327,70.04507,41,56,0
69.99993,70.21174,29,56,0
70.166595,70.3784,41,56,0
70.33326,70.54507,29,56,0
70.49993,70.71174,41,56,0
70.666595,70.8784,29,56,0
70.83326,70.975624,41,56,0
70.99993,71.21173,29,56,0
71.166595,71.3784,41,56,0
71.33326,71.54507,29,56,0
71.49993,71.71173,41,56,0
71.666595,71.8784,29,56,0
71.83326,72.04507,41,56,0
71.99993,72.21173,29,56,0
72.166595,72.3784,41,59,0
72.33326,72.54507,29,61,0
72.49992,72.71173,41,63,0
72.666595,72.8784,29,61,0
72.83326,72.975624,41,58,0
72.99992,73.21173,29,56,0
73.166595,73.378395,41,56,0
73.33326,73.54507,29,56,0
73.49992,73.71173,41,56,0
73.666595,73.878395,29,56,0
73.83326,74.04507,41,56,0
73.99992,74.21173,29,56,0
74.166595,74.378395,41,56,0
74.33326,74.54507,29,56,0
74.49992,74.71173,41,56,0
74.666595,74.878395,29,56,0
74.83326,74.97562,41,56,0
74.99992,75.77423,30,56,0
74.99992,75.77423,42,56,0
75.83326,76.04506,29,56,0
75.83326,76.04506,41,56,0
75.99992,76.77423,42,56,0
75.99992,76.77423,30,56,0
76.83326,77.04506,29,56,0
76.83326,77.04506,41,56,0
76.99992,77.77423,42,58,0
76.99992,77.77423,30,58,0
77.83325,78.04506,29,48,0
77.83325,78.04506,41,48,0
77.99992,78.77422,42,48,0
77.99992,78.77422,30,48,0
78.83325,79.04506,29,56,0
78.83325,79.04506,41,56,0
78.99992,79.77422,42,55,0
78.99992,79.77422,30,55,0
79.83325,80.04506,29,53,0
79.83325,80.04506,41,53,0
79.99992,80.77422,42,53,0
79.99992,80.77422,30,53,0
80.83325,81.77075,29,51,0
80.83325,81.77075,41,51,0
81.83325,82.87839,29,48,0
81.83325,82.87839,41,48,0
82.83325,82.996445,34,56,0
82.999916,83.28638,70,56,0
82.999916,83.28638,74,56,0
83.33325,83.619705,69,56,0
83.33325,83.619705,72,56,0
83.66658,83.95304,67,56,0
83.66658,83.95304,70,56,0
83.999916,84.28638,65,56,0
83.999916,84.28638,69,56,0
84.33325,84.619705,63,56,0
84.33325,84.619705,67,56,0
84.66658,84.95304,62,56,0
84.66658,84.95304,65,56,0
84.999916,85.97908,58,56,0
84.999916,85.97908,60,56,0
84.999916,85.97908,64,56,0
84.999916,85.97908,67,56,0
85.999916,86.94089,63,56,0
85.999916,86.94089,69,56,0
85.999916,86.94089,60,56,0
85.999916,86.94089,58,56,0
86.999916,87.28637,74,56,0
86.999916,87.28637,70,56,0
87.333244,87.619705,72,56,0
87.333244,87.619705,77,56,0
87.66658,87.95303,70,56,0
87.66658,87.95303,74,56,0
87.99991,88.28637,74,56,0
87.99991,88.28637,69,56,0
88.333244,88.619705,70,56,0
88.333244,88.619705,67,56,0
88.66658,88.95303,70,56,0
88.66658,88.95303,65,56,0
88.99991,89.97908,58,56,0
88.99991,89.97908,60,56,0
88.99991,89.97908,64,56,0
88.99991,89.97908,67,56,0
89.99991,90.94088,69,56,0
89.99991,90.94088,63,56,0
89.99991,90.94088,58,56,0
89.99991,90.94088,60,56,0
90.99991,91.28637,46,56,0
91.333244,91.6197,50,56,0
91.66657,91.95303,43,56,0
91.99991,92.28637,46,56,0
92.333244,92.6197,51,56,0
92.66657,92.95303,42,57,0
92.99991,93.28636,46,59,0
93.33324,93.6197,53,60,0
93.66657,93.95303,41,61,0
93.99991,94.28636,46,62,0
94.33324,94.6197,54,64,0
94.66657,94.95303,39,65,0
94.99991,95.28636,46,66,0
95.33324,95.6197,58,67,0
95.66657,95.953026,34,69,0
95.9999,96.28636,46,70,0
96.33324,96.6197,58,71,0
96.66657,96.953026,34,72,0
96.9999,97.449554,46,73,0
97.4999,98.55893,58,75,0
97.4999,98.55893,62,75,0
97.4999,98.55893,65,75,0
97.4999,98.55893,68,75,0
98.83324,98.9565,34,56,0
98.9999,99.12316,39,56,0
99.33324,99.4565,34,56,0
99.4999,99.62316,39,56,0
99.83324,99.9565,34,56,0
99.9999,100.12316,39,56,0
100.33324,100.4565,34,56,0
100.4999,100.62316,39,56,0
100.83323,100.9565,34,56,0
100.9999,101.12316,39,56,0
101.33323,101.4565,34,66,0
101.4999,101.62316,39,56,0
101.83323,101.9565,34,56,0
101.9999,102.12316,39,56,0
102.33323,102.4565,34,66,0
102.4999,102.62316,39,56,0
102.83323,102.9565,36,56,0
102.99989,103.12316,41,56,0
103.33323,103.4565,36,57,0
103.49989,103.62316,41,59,0
103.83323,103.95649,36,63,0
103.99989,104.12316,43,64,0
104.33323,104.45649,38,68,0
104.49989,104.62316,43,70,0
104.83323,104.95649,34,73,0
104.99989,105.12316,46,76,0
105.33323,105.45649,58,76,0
105.49989,105.62316,53,76,0
105.83323,105.95649,46,76,0
105.99989,106.12316,34,76,0
106.33323,106.45649,58,76,0
106.49989,106.62315,53,76,0
106.83323,106.95649,34,70,0
106.83323,106.95649,46,70,0
106.99989,107.12315,51,70,0
106.99989,107.12315,39,70,0
107.33323,107.45649,34,70,0
107.33323,107.45649,46,70,0
107.49989,107.62315,51,70,0
107.49989,107.62315,39,70,0
107.83323,107.95649,34,70,0
107.83323,107.95649,46,70,0
107.99989,108.12315,39,70,0
107.99989,108.12315,51,70,0
108.33322,108.45649,34,70,0
108.33322,108.45649,46,70,0
108.49989,108.62315,51,70,0
108.49989,108.62315,39,70,0
108.83322,108.95649,34,70,0
108.83322,108.95649,46,70,0
108.99989,109.12315,51,70,0
108.99989,109.12315,39,70,0
109.33322,109.45649,46,78,0
109.33322,109.45649,34,78,0
109.49989,109.62315,39,70,0
109.49989,109.62315,51,70,0
109.83322,109.95649,34,70,0
109.83322,109.95649,46,70,0
109.99989,110.12315,51,70,0
109.99989,110.12315,39,70,0
110.33322,110.45649,34,78,0
110.33322,110.45649,46,78,0
110.49989,110.62315,51,70,0
110.49989,110.62315,39,70,0
110.83322,110.95649,48,70,0
110.83322,110.95649,36,70,0
110.999886,111.12315,41,70,0
110.999886,111.12315,53,70,0
111.33322,111.45649,36,70,0
111.33322,111.45649,48,70,0
111.499886,111.62315,53,70,0
111.499886,111.62315,41,70,0
111.83322,111.95648,32,70,0
111.83322,111.95648,44,70,0
111.999886,112.12315,56,70,0
111.999886,112.12315,44,70,0
112.33322,112.45648,44,71,0
112.33322,112.45648,32,71,0
112.499886,112.62315,56,71,0
112.499886,112.62315,44,71,0
112.83322,112.95648,36,72,0
112.83322,112.95648,48,72,0
112.999886,113.12315,55,72,0
112.999886,113.12315,43,72,0
113.33322,113.45648,38,73,0
113.33322,113.45648,50,73,0
113.499886,113.62315,43,73,0
113.499886,113.62315,55,73,0
113.83322,113.95648,34,74,0
113.83322,113.95648,46,74,0
113.999886,114.123146,46,74,0
113.999886,114.123146,58,74,0
114.33322,114.45648,34,74,0
114.33322,114.45648,46,74,0
114.499886,114.623146,46,75,0
114.499886,114.623146,58,75,0
114.83322,114.95648,62,75,0
114.999886,115.123146,67,76,0
115.16655,115.28982,62,76,0
115.33322,115.45648,62,76,0
115.499886,115.623146,55,76,0
115.66655,115.78982,55,76,0
115.83321,115.95648,50,76,0
115.999886,116.123146,55,76,0
116.16655,116.28982,50,76,0
116.33321,116.45648,50,76,0
116.499886,116.623146,43,76,0
116.66655,116.78981,43,76,0
116.83321,116.95648,38,76,0
116.999886,117.123146,46,76,0
116.999886,117.123146,34,76,0
117.33321,117.45648,48,76,0
117.33321,117.45648,36,76,0
117.66655,117.78981,38,76,0
117.66655,117.78981,50,76,0
117.999886,118.123146,51,76,0
117.999886,118.123146,39,76,0
118.33321,118.45648,32,76,0
118.33321,118.45648,44,76,0
118.66655,118.78981,34,76,0
118.66655,118.78981,46,76,0
118.99988,119.123146,63,76,0
119.16655,119.28981,58,76,0
119.33321,119.456474,58,76,0
119.49988,119.623146,51,76,0
119.66655,119.78981,51,76,0
119.83321,119.956474,46,76,0
119.99988,120.123146,51,76,0
120.16655,120.28981,46,76,0
120.33321,120.456474,46,76,0
120.49988,120.623146,39,76,0
120.66655,120.78981,39,76,0
120.83321,120.956474,34,76,0
120.99988,121.123146,43,76,0
120.99988,121.123146,31,76,0
121.33321,121.456474,44,76,0
121.33321,121.456474,32,76,0
121.66654,121.78981,34,76,0
121.66654,121.78981,46,76,0
121.99988,122.12314,48,76,0
121.99988,122.12314,36,76,0
122.33321,122.456474,30,76,0
122.33321,122.456474,42,76,0
122.66654,122.78981,43,76,0
122.66654,122.78981,31,76,0
122.99988,123.20126,50,76,0
122.99988,123.20126,38,76,0
123.16654,123.367935,49,76,0
123.33321,123.5346,50,76,0
123.49988,123.70126,51,76,0
123.66654,123.78981,50,76,0
123.833206,123.956474,36,76,0
123.833206,123.956474,48,76,0
123.99988,124.20126,38,76,0
123.99988,124.20126,50,76,0
124.16654,124.36793,49,76,0
124.333206,124.5346,50,76,0
124.49988,124.70126,51,76,0
124.66654,124.7898,50,76,0
124.833206,124.956474,48,76,0
124.833206,124.956474,36,76,0
124.99988,125.20126,38,76,0
124.99988,125.20126,50,76,0
125.16654,125.36793,49,76,0
125.333206,125.5346,50,76,0
125.49988,125.70126,55,76,0
125.66654,125.86793,53,76,0
125.833206,126.0346,54,76,0
125.99987,126.20126,58,76,0
126.16654,126.36793,56,76,0
126.333206,126.5346,57,76,0
126.49987,126.70126,63,76,0
126.66654,126.7898,62,76,0
126.833206,126.95647,55,76,0
126.833206,126.95647,43,76,0
126.99987,127.20126,62,76,0
126.99987,127.20126,50,76,0
127.16654,127.36793,61,76,0
127.333206,127.53459,62,76,0
127.49987,127.70126,63,76,0
127.66654,127.7898,62,76,0
127.833206,127.95647,55,76,0
127.833206,127.95647,43,76,0
127.99987,128.20126,62,76,0
127.99987,128.20126,50,76,0
128.16653,128.36792,61,76,0
128.3332,128.53459,62,76,0
128.49988,128.70126,63,76,0
128.66653,128.7898,62,76,0
128.8332,128.95647,43,76,0
128.8332,128.95647,55,76,0
128.99988,129.20126,62,76,0
128.99988,129.20126,50,76,0
129.16653,129.36792,61,76,0
129.3332,129.53459,62,76,0
129.49988,129.70126,67,76,0
129.66653,129.86792,65,76,0
129.8332,130.03459,66,76,0
129.99986,130.20126,70,76,0
130.16653,130.36792,68,76,0
130.3332,130.53459,69,76,0
130.49986,130.70126,75,76,0
130.66653,130.86792,73,76,0
130.8332,130.9964,74,76,0
130.99986,131.12314,79,76,0
131.16653,131.2898,74,76,0
131.3332,131.45647,74,76,0
131.49986,131.62314,67,76,0
131.66653,131.7898,67,76,0
131.8332,131.95647,60,76,0
131.99986,132.12314,65,76,0
132.16653,132.2898,60,76,0
132.3332,132.45647,60,76,0
132.49986,132.62314,53,76,0
132.66653,132.7898,53,76,0
132.8332,132.95647,46,76,0
132.99986,133.12312,51,76,0
133.16653,133.2898,46,76,0
133.3332,133.45647,46,76,0
133.49986,133.62312,39,75,0
133.66653,133.7898,39,74,0
133.8332,133.95647,34,73,0
133.99986,134.12312,51,72,0
134.16653,134.2898,46,72,0
134.3332,134.45647,46,71,0
134.49986,134.62312,39,70,0
134.66653,134.7898,39,69,0
134.83319,134.95647,34,68,0
134.99986,135.12312,39,64,0
135.33319,135.45647,34,64,0
135.49986,135.62312,39,65,0
135.83319,135.95647,34,67,0
135.83319,135.95647,46,67,0
135.99986,136.12312,51,69,0
135.99986,136.12312,39,69,0
136.33319,136.45647,34,71,0
136.33319,136.45647,46,71,0
136.49986,136.62312,39,72,0
136.49986,136.62312,51,72,0
136.83319,136.95647,27,74,0
136.83319,136.95647,39,74,0
136.99986,137.12312,51,75,0
136.99986,137.12312,39,75,0
137.33319,137.45647,44,76,0
137.33319,137.45647,32,76,0
137.49986,137.62312,44,76,0
137.49986,137.62312,56,76,0
137.83319,137.95647,34,76,0
137.83319,137.95647,46,76,0
137.99986,138.12312,46,76,0
137.99986,138.12312,58,76,0
138.33319,138.45645,36,76,0
138.33319,138.45645,48,76,0
138.49986,138.62312,48,76,0
138.49986,138.62312,60,76,0
138.83319,138.95645,24,76,0
138.83319,138.95645,36,76,0
138.99986,139.12312,48,76,0
138.99986,139.12312,36,76,0
139.33319,139.45645,29,76,0
139.33319,139.45645,41,76,0
139.49986,139.62312,53,76,0
139.49986,139.62312,41,76,0
139.83319,139.95645,32,76,0
139.83319,139.95645,44,76,0
139.99986,140.12312,44,76,0
139.99986,140.12312,56,76,0
140.33319,140.45645,45,76,0
140.33319,140.45645,33,76,0
140.49986,140.62312,45,76,0
140.49986,140.62312,57,76,0
140.83319,140.95645,46,76,0
140.83319,140.95645,34,76,0
140.99986,141.12312,58,76,0
140.99986,141.12312,46,76,0
141.33319,141.45645,34,76,0
141.33319,141.45645,46,76,0
141.49986,141.62312,58,76,0
141.49986,141.62312,46,76,0
143.83319,143.97556,46,56,0
143.99986,144.20125,46,57,0
144.16652,144.3679,49,58,0
144.33319,144.53458,54,59,0
144.49986,144.70125,58,60,0
144.66652,144.8679,61,61,0
144.83319,144.97556,66,62,0
144.99985,145.54846,70,64,0
145.49985,145.88353,68,63,0
145.83319,145.95645,66,59,0
144.99985,145.95993,58,64,0
145.99985,146.54846,65,58,0
146.49985,146.88353,63,56,0
146.83319,146.95645,61,56,0
145.99985,146.95992,58,58,0
146.99985,147.32625,60,56,0
147.33319,147.545,65,56,0
147.49985,147.78632,66,56,0
146.99985,147.95992,58,56,0
147.83319,148.045,61,56,0
147.99985,148.32625,60,56,0
148.33319,148.54498,65,56,0
147.99985,148.95992,58,56,0
148.99985,150.81235,58,56,0
148.99985,150.81235,60,56,0
148.49985,150.82623,66,56,0
151.83318,151.97554,46,76,0
151.99985,152.21165,46,77,0
152.16652,152.37833,49,78,0
152.33318,152.54498,54,79,0
152.49985,152.71165,58,79,0
152.66652,152.87833,61,80,0
152.83318,152.97554,66,81,0
152.99985,153.21165,33,80,0
152.99985,153.21165,45,80,0
153.16652,153.37833,49,80,0
153.33318,153.54498,54,80,0
153.49985,153.71165,57,80,0
153.66652,153.87831,61,80,0
153.83318,153.97554,66,80,0
153.99985,154.4686,73,80,0
153.99985,154.4686,69,80,0
154.49985,154.9686,68,80,0
154.49985,154.9686,71,80,0
154.99985,155.3054,69,80,0
154.99985,155.3054,66,80,0
155.33318,155.47554,62,80,0
155.33318,155.47554,74,80,0
155.49985,155.8054,73,80,0
155.49985,155.8054,61,80,0
155.83318,155.97554,68,80,0
155.83318,155.97554,71,80,0
155.99985,156.3054,66,80,0
155.99985,156.3054,69,80,0
156.33318,156.47554,62,80,0
156.33318,156.47554,74,80,0
156.49985,156.8054,61,80,0
156.49985,156.8054,73,80,0
156.83318,156.97554,68,80,0
156.83318,156.97554,71,80,0
156.99985,157.4686,73,80,0
156.99985,157.4686,66,80,0
156.99985,157.4686,61,80,0
156.99985,157.4686,69,80,0
157.49985,157.9686,73,80,0
157.49985,157.9686,66,80,0
157.49985,157.9686,61,80,0
157.49985,157.9686,69,80,0
157.99985,158.4686,73,80,0
157.99985,158.4686,61,80,0
157.99985,158.4686,66,80,0
157.99985,158.4686,69,80,0
158.49985,158.9686,73,80,0
158.49985,158.9686,61,80,0
158.49985,158.9686,66,80,0
158.49985,158.9686,69,80,0
158.99985,159.44081,45,80,0
158.99985,159.44081,33,80,0
158.99985,159.44081,39,80,0
159.49985,159.94081,33,80,0
159.49985,159.94081,45,80,0
159.49985,159.94081,39,80,0
159.99985,160.44081,33,80,0
159.99985,160.44081,39,80,0
159.99985,160.44081,45,80,0
160.49983,160.94081,45,80,0
160.49983,160.94081,39,80,0
160.49983,160.94081,33,80,0
160.99983,161.44081,39,76,0
160.99983,161.44081,33,76,0
160.99983,161.44081,45,76,0
161.49983,161.94081,46,76,0
161.49983,161.94081,34,76,0
161.99983,162.44081,48,76,0
161.99983,162.44081,36,76,0
162.49983,162.94081,49,76,0
162.49983,162.94081,37,76,0
162.99983,163.44081,39,76,0
162.99983,163.44081,51,76,0
162.99983,163.44081,46,76,0
163.49983,163.94081,53,76,0
163.49983,163.94081,41,76,0
163.49983,163.94081,46,76,0
163.99983,164.44081,54,76,0
163.99983,164.44081,42,76,0
163.99983,164.44081,46,76,0
164.49983,164.94081,48,76,0
164.49983,164.94081,46,76,0
164.49983,164.94081,43,76,0
164.49983,164.94081,55,76,0
164.99983,165.22032,29,76,0
165.1665,165.387,41,56,0
165.33316,165.55365,29,56,0
165.49983,165.72032,41,56,0
165.6665,165.887,29,56,0
165.83316,166.05365,41,56,0
165.99983,166.22032,29,56,0
166.1665,166.387,41,58,0
166.33316,166.55365,29,61,0
166.49983,166.72032,41,63,0
166.6665,166.887,29,61,0
166.83316,166.96684,41,59,0
166.99983,167.21164,29,56,0
167.1665,167.37831,41,56,0
167.33316,167.54497,29,56,0
167.49983,167.71164,41,56,0
167.6665,167.87831,29,56,0
167.83316,168.04497,41,56,0
167.99983,168.21164,29,56,0
168.1665,168.37831,41,56,0
168.33316,168.54497,29,56,0
168.49983,168.71164,41,56,0
168.6665,168.8783,29,56,0
168.83316,168.97552,41,56,0
168.99983,169.21164,29,56,0
169.1665,169.3783,41,56,0
169.33316,169.54497,29,56,0
169.49983,169.71164,41,56,0
169.6665,169.8783,29,56,0
169.83316,170.04497,41,56,0
169.99983,170.21164,29,56,0
170.1665,170.3783,41,59,0
170.33316,170.54497,29,61,0
170.49983,170.71164,41,63,0
170.66649,170.8783,29,61,0
170.83316,170.97552,41,58,0
170.99983,171.21164,29,56,0
171.16649,171.3783,41,56,0
171.33316,171.54497,29,56,0
171.49983,171.71164,41,56,0
171.66649,171.8783,29,56,0
171.83316,172.04497,41,56,0
171.99983,172.21164,29,56,0
172.16649,172.3783,41,56,0
172.33316,172.54497,29,56,0
172.49983,172.71164,41,56,0
172.66649,172.8783,29,56,0
172.83316,172.97552,41,56,0
172.99983,173.77414,30,56,0
172.99983,173.77414,42,56,0
173.83316,174.04497,29,56,0
173.83316,174.04497,41,56,0
173.99983,174.77412,42,56,0
173.99983,174.77412,30,56,0
174.83316,175.04497,29,56,0
174.83316,175.04497,41,56,0
174.99983,175.77412,42,58,0
174.99983,175.77412,30,58,0
175.83316,176.04497,29,48,0
175.83316,176.04497,41,48,0
175.99982,176.77412,42,48,0
175.99982,176.77412,30,48,0
176.83316,177.04497,29,56,0
176.83316,177.04497,41,56,0
176.99982,177.77412,42,55,0
176.99982,177.77412,30,55,0
177.83316,178.04497,29,53,0
177.83316,178.04497,41,53,0
177.99982,178.77412,42,53,0
177.99982,178.77412,30,53,0
178.83316,179.77066,29,51,0
178.83316,179.77066,41,51,0
179.83316,180.8783,29,48,0
179.83316,180.8783,41,48,0
180.83315,180.99635,34,56,0
180.99982,181.28627,70,56,0
180.99982,181.28627,74,56,0
181.33315,181.61961,69,56,0
181.33315,181.61961,72,56,0
181.66649,181.95294,67,56,0
181.66649,181.95294,70,56,0
181.99982,182.28627,65,56,0
181.99982,182.28627,69,56,0
182.33315,182.61961,63,56,0
182.33315,182.61961,67,56,0
182.66649,182.95294,62,56,0
182.66649,182.95294,65,56,0
182.99982,183.97899,58,56,0
182.99982,183.97899,60,56,0
182.99982,183.97899,64,56,0
182.99982,183.97899,67,56,0
183.99982,184.94078,63,56,0
183.99982,184.94078,69,56,0
183.99982,184.94078,60,56,0
183.99982,184.94078,58,56,0
184.99982,185.28627,74,56,0
184.99982,185.28627,70,56,0
185.33315,185.61961,72,56,0
185.33315,185.61961,77,56,0
185.66647,185.95294,70,56,0
185.66647,185.95294,74,56,0
185.99982,186.28627,74,56,0
185.99982,186.28627,69,56,0
186.33315,186.6196,70,56,0
186.33315,186.6196,67,56,0
186.66647,186.95294,70,56,0
186.66647,186.95294,65,56,0
186.99982,187.97897,58,56,0
186.99982,187.97897,60,56,0
186.99982,187.97897,64,56,0
186.99982,187.97897,67,56,0
187.99982,188.94078,69,56,0
187.99982,188.94078,63,56,0
187.99982,188.94078,58,56,0
187.99982,188.94078,60,56,0
188.99982,189.28627,50,56,0
189.33315,189.6196,53,57,0
189.66647,189.95294,46,59,0
189.99982,190.28627,50,61,0
190.33315,190.6196,55,62,0
190.66647,190.95293,46,64,0
190.9998,191.28627,50,66,0
191.33315,191.6196,57,67,0
191.66647,191.95293,45,69,0
191.9998,192.28627,50,71,0
192.33315,192.6196,58,72,0
192.66647,192.95293,43,74,0
192.9998,193.63522,38,75,0
192.9998,193.63522,50,75,0
193.66647,193.97203,60,76,0
193.66647,193.97203,50,76,0
193.9998,194.46855,59,76,0
193.9998,194.46855,50,76,0
194.4998,194.96855,55,86,0
194.4998,194.96855,50,86,0
194.4998,194.96855,61,86,0
194.4998,194.96855,58,86,0
194.9998,195.63174,57,76,0
194.9998,195.63174,50,76,0
195.66647,195.97203,50,76,0
195.66647,195.97203,60,76,0
195.9998,196.46855,50,76,0
195.9998,196.46855,59,76,0
196.4998,196.96855,50,86,0
196.4998,196.96855,61,86,0
196.4998,196.96855,58,86,0
196.4998,196.96855,55,86,0
196.9998,197.13348,62,76,0
196.9998,197.13348,50,76,0
197.16647,197.30016,57,76,0
197.33313,197.46681,57,76,0
197.4998,197.63348,50,76,0
197.66647,197.80016,50,76,0
197.83313,197.96681,45,76,0
197.9998,198.13348,50,76,0
198.16647,198.30016,45,76,0
198.33313,198.46681,45,76,0
198.4998,198.63348,38,76,0
198.66647,198.80016,38,76,0
198.83313,198.96681,33,76,0
198.9998,199.10397,38,76,0
198.9998,199.10397,50,76,0
199.4998,199.60397,42,56,0
199.4998,199.60397,54,56,0
199.9998,200.10397,54,56,0
199.9998,200.10397,42,56,0
200.4998,200.60397,38,56,0
200.4998,200.60397,50,56,0
200.9998,201.10396,47,56,0
200.9998,201.10396,35,56,0
201.4998,201.60396,47,56,0
201.4998,201.60396,35,56,0
201.9998,202.10396,47,56,0
201.9998,202.10396,35,56,0
202.4998,202.60396,35,56,0
202.4998,202.60396,47,56,0
202.9998,203.10396,35,56,0
202.9998,203.10396,47,56,0
203.4998,203.60396,47,56,0
203.4998,203.60396,35,56,0
203.9998,204.10396,35,56,0
203.9998,204.10396,47,56,0
204.4998,204.60396,35,56,0
204.4998,204.60396,47,56,0
204.9998,205.10396,47,56,0
204.9998,205.10396,35,56,0
205.4998,205.60396,35,56,0
205.4998,205.60396,47,56,0
205.99979,206.10396,47,56,0
205.99979,206.10396,35,56,0
206.49979,206.60396,47,56,0
206.49979,206.60396,35,56,0
206.99979,207.10396,47,56,0
206.99979,207.10396,35,56,0
207.49979,207.60396,35,56,0
207.49979,207.60396,47,56,0
207.99979,208.10396,35,56,0
207.99979,208.10396,47,56,0
208.49979,208.60396,47,56,0
208.49979,208.60396,35,56,0
208.99979,209.10396,35,56,0
208.99979,209.10396,47,56,0
209.49979,209.60396,35,56,0
209.49979,209.60396,47,56,0
209.99979,210.10396,36,56,0
209.99979,210.10396,48,56,0
210.49979,210.60396,36,56,0
210.49979,210.60396,48,56,0
210.99979,211.10396,37,56,0
210.99979,211.10396,49,56,0
211.49979,211.66298,49,56,0
212.49979,213.04666,47,56,0
212.49979,213.04666,59,56,0
212.99979,214.03798,45,56,0
212.99979,214.03798,57,56,0
213.99979,214.54666,54,56,0
213.99979,214.54666,42,56,0
214.49979,214.95985,45,56,0
214.49979,214.95985,33,56,0
214.99979,216.03798,37,56,0
214.99979,216.03798,49,56,0
215.99979,216.54666,32,56,0
215.99979,216.54666,44,56,0
216.49979,216.95985,47,56,0
216.49979,216.95985,35,56,0
216.99979,218.03798,33,56,0
216.99979,218.03798,45,56,0
217.99979,218.54666,32,56,0
217.99979,218.54666,44,56,0
218.49979,218.95985,30,56,0
218.49979,218.95985,42,56,0
218.99979,219.10394,37,56,0
218.99979,219.10394,49,56,0
219.49979,219.60394,49,56,0
219.99979,220.10394,38,56,0
220.49979,220.60394,50,56,0
220.99979,221.10394,39,56,0
220.99979,221.10394,51,56,0
221.49977,221.60394,39,56,0
221.49977,221.60394,51,56,0
221.99977,222.10394,51,56,0
221.99977,222.10394,39,56,0
222.49977,222.60394,51,56,0
222.49977,222.60394,39,56,0
222.99977,223.10394,51,57,0
222.99977,223.10394,39,57,0
223.49977,223.60394,51,58,0
223.49977,223.60394,39,58,0
223.99977,224.10394,40,59,0
223.99977,224.10394,52,59,0
224.49977,224.60394,52,60,0
224.49977,224.60394,40,60,0
224.99977,225.10394,40,61,0
224.99977,225.10394,52,61,0
225.49977,225.60394,52,63,0
225.49977,225.60394,40,63,0
225.99977,226.10394,41,64,0
225.99977,226.10394,53,64,0
226.49977,226.60394,41,65,0
226.49977,226.60394,53,65,0
226.99977,227.10394,41,66,0
226.99977,227.10394,53,66,0
227.49977,227.60394,42,67,0
227.49977,227.60394,54,67,0
227.99977,228.10394,42,68,0
227.99977,228.10394,54,68,0
228.49977,228.60394,55,70,0
228.49977,228.60394,43,70,0
228.99977,229.10394,55,71,0
228.99977,229.10394,43,71,0
229.49977,229.60394,56,72,0
229.49977,229.60394,44,72,0
229.99977,230.10394,57,73,0
229.99977,230.10394,45,73,0
230.49977,230.60394,46,74,0
230.49977,230.60394,58,74,0
230.99977,231.32616,51,76,0
230.99977,231.32616,47,76,0
230.99977,231.32616,59,76,0
231.49977,231.82616,39,76,0
231.49977,231.82616,35,76,0
231.49977,231.82616,47,76,0
231.99977,232.32616,65,76,0
231.99977,232.32616,53,76,0
231.99977,232.32616,60,76,0
232.49977,232.82616,29,76,0
232.49977,232.82616,41,76,0
232.99977,233.32616,34,80,0
232.99977,233.32616,46,80,0
233.3331,233.43727,65,80,0
233.49977,233.60393,70,80,0
233.8331,233.93727,53,80,0
233.99977,234.10393,58,80,0
234.3331,234.43727,41,80,0
234.49977,234.60393,46,80,0
234.99977,235.20116,34,56,0
235.16643,235.36781,38,59,0
235.3331,235.53448,41,61,0
235.49977,235.70116,46,64,0
235.66643,235.86781,50,66,0
235.8331,236.03448,53,69,0
235.99977,236.9685,54,56,0
235.99977,236.9685,46,56,0
235.99977,236.9685,49,56,0
236.99976,237.20116,30,56,0
237.16643,237.36781,34,59,0
237.3331,237.53448,37,61,0
237.49976,237.70116,42,64,0
237.66643,237.86781,46,66,0
237.8331,237.96678,49,69,0
237.99976,238.9685,42,56,0
237.99976,238.9685,51,56,0
237.99976,238.9685,46,56,0
238.99976,239.20116,39,56,0
239.16643,239.36781,42,57,0
239.3331,239.53448,46,59,0
239.49976,239.70116,51,61,0
239.66643,239.86781,54,62,0
239.8331,239.96677,58,64,0
239.99976,240.9685,57,65,0
239.99976,240.9685,51,65,0
239.99976,240.9685,45,65,0
240.99976,241.10393,58,76,0
240.99976,241.10393,46,76,0
241.3331,241.43726,65,76,0
241.49976,241.60393,70,76,0
241.83308,241.93726,53,76,0
241.99976,242.10393,58,76,0
242.33308,242.43726,41,76,0
242.49976,242.60393,46,76,0
242.99976,243.21367,46,56,0
243.16643,243.38808,50,58,0
243.34084,243.5625,53,60,0
243.51526,243.73692,58,62,0
243.68968,243.91133,62,65,0
243.86409,244.004,65,67,0
244.03851,245.07635,58,64,0
244.03851,245.07635,66,64,0
244.03851,245.07635,61,64,0
245.11024,245.3399,42,61,0
245.29097,245.52063,46,60,0
245.4717,245.70135,49,59,0
245.6524,245.88423,54,59,0
245.83313,246.0729,58,58,0
246.0218,246.17314,61,57,0
246.2105,247.30719,62,56,0
246.2105,247.30719,54,56,0
246.2105,247.30719,57,56,0
247.34256,247.58235,38,56,0
247.53125,247.77103,42,56,0
247.71992,247.9597,45,56,0
247.9086,248.14838,50,56,0
248.09727,248.33707,54,56,0
248.28596,248.4373,57,56,0
248.47464,249.61435,50,56,0
248.47464,249.61435,55,56,0
249.65111,249.90028,31,56,0
249.84718,250.09637,38,56,0
250.04326,250.29245,43,56,0
250.23933,250.48853,46,56,0
250.43542,250.6846,50,56,0
250.82758,251.94481,49,56,0
250.6315,251.96524,55,56,0
252.00404,252.12196,38,56,0
252.00404,252.12196,50,56,0
252.3814,252.49933,57,57,0
252.57008,252.688,62,57,0
252.94743,253.06537,45,58,0
253.13612,253.25404,50,59,0
253.51347,253.6314,57,60,0
253.70215,253.82008,62,61,0
254.07951,254.19743,69,62,0
254.26819,254.38611,74,62,0
254.64555,254.76347,58,63,0
254.83423,254.95215,62,64,0
255.2116,255.32951,46,65,0
255.40027,255.51819,50,66,0
255.77762,255.89555,58,67,0
255.96631,256.08423,62,67,0
256.3357,256.44867,70,68,0
256.51642,256.62936,75,69,0
256.87787,256.9908,58,70,0
257.0586,257.17154,63,70,0
257.42004,257.533,46,72,0
257.60077,257.7137,52,72,0
257.96222,258.07516,58,73,0
258.1429,258.2559,64,74,0
258.50436,258.61734,70,75,0
258.6851,258.79803,77,76,0
259.04022,259.14926,58,76,0
259.21466,259.32367,65,76,0
259.5635,259.67252,46,75,0
259.7379,259.84692,53,71,0
260.08676,260.19577,34,64,0
260.26117,260.37018,41,61,0
260.60226,260.72552,34,56,0
260.76892,260.89218,39,56,0
261.10226,261.22552,34,56,0
261.26892,261.39218,39,56,0
261.60226,261.72552,34,56,0
261.76892,261.89218,39,56,0
262.10226,262.22552,34,56,0
262.26892,262.39218,39,56,0
262.60226,262.72552,34,56,0
262.76892,262.89218,39,56,0
263.10223,263.22552,34,68,0
263.26892,263.39218,39,56,0
263.60223,263.72552,34,56,0
263.76892,263.89218,39,56,0
264.10223,264.22552,34,68,0
264.26892,264.39218,39,56,0
264.60223,264.72552,36,56,0
264.76892,264.89218,41,56,0
265.10223,265.22552,36,59,0
265.26892,265.39218,41,60,0
265.60223,265.72552,36,64,0
265.76892,265.89218,43,65,0
266.10223,266.22552,38,69,0
266.26892,266.39218,43,70,0
266.60223,266.7255,34,73,0
266.76892,266.89218,46,76,0
267.10223,267.2255,58,76,0
267.26892,267.39218,53,76,0
267.60223,267.7255,46,76,0
267.76892,267.89218,34,76,0
268.10223,268.2255,58,76,0
268.26892,268.39218,53,76,0
268.60223,268.7255,34,70,0
268.60223,268.7255,46,70,0
268.76892,268.89218,51,70,0
268.76892,268.89218,39,70,0
269.10223,269.2255,34,70,0
269.10223,269.2255,46,70,0
269.26892,269.39218,51,70,0
269.26892,269.39218,39,70,0
269.60223,269.7255,34,70,0
269.60223,269.7255,46,70,0
269.76892,269.89218,39,70,0
269.76892,269.89218,51,70,0
270.10223,270.2255,34,70,0
270.10223,270.2255,46,70,0
270.26892,270.39218,51,70,0
270.26892,270.39218,39,70,0
270.60223,270.7255,34,70,0
270.60223,270.7255,46,70,0
270.76892,270.89218,51,70,0
270.76892,270.89218,39,70,0
271.10223,271.2255,46,78,0
271.10223,271.2255,34,78,0
271.26892,271.39218,39,70,0
271.26892,271.39218,51,70,0
271.60223,271.7255,34,70,0
271.60223,271.7255,46,70,0
271.76892,271.89218,51,70,0
271.76892,271.89218,39,70,0
272.10223,272.2255,34,78,0
272.10223,272.2255,46,78,0
272.26892,272.39218,51,70,0
272.26892,272.39218,39,70,0
272.60223,272.7255,48,70,0
272.60223,272.7255,36,70,0
272.76892,272.89218,41,70,0
272.76892,272.89218,53,70,0
273.10223,273.2255,36,70,0
273.10223,273.2255,48,70,0
273.2689,273.39218,53,70,0
273.2689,273.39218,41,70,0
273.60223,273.7255,32,70,0
273.60223,273.7255,44,70,0
273.7689,273.89218,56,71,0
273.7689,273.89218,44,71,0
274.10223,274.2255,44,71,0
274.10223,274.2255,32,71,0
274.2689,274.39218,56,71,0
274.2689,274.39218,44,71,0
274.60223,274.7255,36,72,0
274.60223,274.7255,48,72,0
274.7689,274.89218,55,72,0
274.7689,274.89218,43,72,0
275.10223,275.2255,38,73,0
275.10223,275.2255,50,73,0
275.2689,275.39218,43,73,0
275.2689,275.39218,55,73,0
275.60223,275.7255,34,74,0
275.60223,275.7255,46,74,0
275.7689,275.89218,46,74,0
275.7689,275.89218,58,74,0
276.10223,276.2255,34,75,0
276.10223,276.2255,46,75,0
276.2689,276.39218,46,75,0
276.2689,276.39218,58,75,0
276.60223,276.7255,62,75,0
276.7689,276.89215,67,76,0
276.93558,277.05884,62,76,0
277.10223,277.2255,62,76,0
277.2689,277.39215,55,76,0
277.43558,277.55884,55,76,0
277.60223,277.7255,50,76,0
277.7689,277.89215,55,76,0
277.93558,278.05884,50,76,0
278.10223,278.2255,50,76,0
278.2689,278.39215,43,76,0
278.43558,278.55884,43,76,0
278.60223,278.7255,38,76,0
278.7689,278.89215,46,76,0
278.7689,278.89215,34,76,0
279.10223,279.2255,48,76,0
279.10223,279.2255,36,76,0
279.43558,279.55884,38,76,0
279.43558,279.55884,50,76,0
279.7689,279.89215,51,76,0
279.7689,279.89215,39,76,0
280.10223,280.2255,32,76,0
280.10223,280.2255,44,76,0
280.43558,280.55884,34,76,0
280.43558,280.55884,46,76,0
280.7689,280.89215,63,76,0
280.93558,281.05884,58,76,0
281.10223,281.2255,58,76,0
281.2689,281.39215,51,76,0
281.43558,281.55884,51,76,0
281.60223,281.7255,46,76,0
281.7689,281.89215,51,76,0
281.93558,282.05884,46,76,0
282.10223,282.2255,46,76,0
282.2689,282.39215,39,76,0
282.43558,282.55884,39,76,0
282.60223,282.7255,34,76,0
282.7689,282.89215,43,76,0
282.7689,282.89215,31,76,0
283.10223,283.2255,44,76,0
283.10223,283.2255,32,76,0
283.43555,283.55884,34,76,0
283.43555,283.55884,46,76,0
283.7689,283.89215,48,76,0
283.7689,283.89215,36,76,0
284.10223,284.2255,30,76,0
284.10223,284.2255,42,76,0
284.43555,284.55884,43,76,0
284.43555,284.55884,31,76,0
284.7689,284.9807,50,76,0
284.7689,284.9807,38,76,0
284.93555,285.14737,49,76,0
285.10223,285.31403,50,76,0
285.2689,285.4807,51,76,0
285.43555,285.55014,50,76,0
285.60223,285.7255,36,76,0
285.60223,285.7255,48,76,0
285.7689,285.9807,38,76,0
285.7689,285.9807,50,76,0
285.93555,286.14737,49,76,0
286.10223,286.31403,50,76,0
286.2689,286.4807,51,76,0
286.43555,286.58835,50,76,0
286.60223,286.7255,48,76,0
286.60223,286.7255,36,76,0
286.7689,286.98068,38,76,0
286.7689,286.98068,50,76,0
286.93555,287.14737,49,76,0
287.10223,287.31403,50,76,0
287.2689,287.48068,55,76,0
287.43555,287.64737,53,76,0
287.60223,287.81403,54,76,0
287.7689,287.98068,58,76,0
287.93555,288.14737,56,76,0
288.10223,288.31403,57,76,0
288.2689,288.48068,63,76,0
288.43555,288.5779,62,76,0
288.60223,288.7255,55,76,0
288.60223,288.7255,43,76,0
288.7689,288.98068,62,76,0
288.7689,288.98068,50,76,0
288.93555,289.14737,61,76,0
289.10223,289.31403,62,76,0
289.2689,289.48068,63,76,0
289.43555,289.5779,62,76,0
289.60223,289.7255,55,76,0
289.60223,289.7255,43,76,0
289.7689,289.98068,62,76,0
289.7689,289.98068,50,76,0
289.93555,290.14737,61,76,0
290.10223,290.31403,62,76,0
290.2689,290.48068,63,76,0
290.43555,290.5779,62,76,0
290.60223,290.7255,43,76,0
290.60223,290.7255,55,76,0
290.7689,290.98068,62,76,0
290.7689,290.98068,50,76,0
290.93555,291.14737,61,76,0
291.10223,291.31403,62,76,0
291.2689,291.48068,67,76,0
291.43555,291.64737,65,76,0
291.60223,291.81403,66,76,0
291.7689,291.98068,70,76,0
291.93555,292.14737,68,76,0
292.10223,292.31403,69,76,0
292.2689,292.48068,75,76,0
292.43555,292.64737,73,76,0
292.60223,292.7255,74,76,0
292.7689,292.90256,79,76,0
292.93555,293.06924,74,76,0
293.10223,293.2359,74,76,0
293.2689,293.40256,67,76,0
293.43555,293.56924,67,76,0
293.6022,293.7359,60,76,0
293.7689,293.90256,65,76,0
293.93555,294.06924,60,76,0
294.1022,294.2359,60,76,0
294.2689,294.40256,53,76,0
294.43555,294.56924,53,76,0
294.6022,294.7359,46,76,0
294.7689,294.90256,51,76,0
294.93555,295.06924,46,75,0
295.1022,295.2359,46,74,0
295.2689,295.40256,39,73,0
295.43555,295.56924,39,72,0
295.6022,295.7359,34,71,0
295.7689,295.90256,51,70,0
295.93555,296.06924,46,69,0
296.1022,296.2359,46,68,0
296.2689,296.40256,39,68,0
296.43555,296.56924,39,67,0
296.6022,296.7359,34,66,0
296.7689,296.90256,39,66,0
297.1022,297.2359,34,68,0
297.2689,297.40256,39,69,0
297.6022,297.7359,34,70,0
297.6022,297.7359,46,70,0
297.7689,297.90256,51,71,0
297.7689,297.90256,39,71,0
298.1022,298.2359,34,73,0
298.1022,298.2359,46,73,0
298.2689,298.40256,39,74,0
298.2689,298.40256,51,74,0
298.6022,298.7359,27,76,0
298.6022,298.7359,39,76,0
298.7689,298.90256,51,77,0
298.7689,298.90256,39,77,0
299.1022,299.2359,44,80,0
299.1022,299.2359,32,80,0
299.2689,299.40256,44,80,0
299.2689,299.40256,56,80,0
299.6022,299.7359,34,80,0
299.6022,299.7359,46,80,0
299.7689,299.90256,46,80,0
299.7689,299.90256,58,80,0
300.1022,300.2359,36,80,0
300.1022,300.2359,48,80,0
300.2689,300.40256,48,80,0
300.2689,300.40256,60,80,0
300.6022,300.7359,24,80,0
300.6022,300.7359,36,80,0
300.7689,300.90256,48,80,0
300.7689,300.90256,36,80,0
301.1022,301.2359,29,80,0
301.1022,301.2359,41,80,0
301.2689,301.40256,53,80,0
301.2689,301.40256,41,80,0
301.6022,301.7359,32,80,0
301.6022,301.7359,44,80,0
301.7689,301.90256,44,80,0
301.7689,301.90256,56,80,0
302.1022,302.2359,45,80,0
302.1022,302.2359,33,80,0
302.2689,302.40256,45,80,0
302.2689,302.40256,57,80,0
302.6022,302.7359,46,80,0
302.6022,302.7359,34,80,0
302.7689,302.90256,58,80,0
302.7689,302.90256,46,80,0
303.1022,303.2359,34,80,0
303.1022,303.2359,46,80,0
303.2689,303.40256,58,80,0
303.2689,303.40256,46,80,0
305.6022,305.74457,51,56,0
305.76886,305.98068,51,57,0
305.93555,306.14734,54,59,0
306.1022,306.31403,59,60,0
306.26886,306.48068,63,61,0
306.43555,306.64734,66,63,0
306.6022,306.74457,71,64,0
306.76886,307.30707,75,64,0
307.26886,307.64386,73,64,0
307.6022,307.73587,71,64,0
306.76886,307.7376,63,64,0
307.76886,308.30707,70,64,0
308.26886,308.64386,68,64,0
308.6022,308.73587,66,64,0
307.76886,308.74805,63,64,0
308.76886,309.09525,65,64,0
309.1022,309.314,70,64,0
309.26886,309.59525,71,64,0
308.76886,309.74805,63,64,0
309.6022,309.814,66,64,0
309.76886,310.09525,65,60,0
310.1022,310.314,70,61,0
310.26886,310.59525,71,64,0
309.76886,310.74805,63,60,0
310.6022,310.814,66,64,0
310.76886,311.09525,65,60,0
311.1022,311.314,70,61,0
310.76886,312.58136,63,64,0
311.26886,312.59525,71,64,0
313.6022,313.74457,51,56,0
313.76886,313.98068,51,58,0
313.93552,314.14734,54,61,0
314.1022,314.314,59,64,0
314.26886,314.48068,63,67,0
314.43552,314.64734,66,69,0
314.6022,314.74457,71,72,0
314.76886,314.98068,38,76,0
314.76886,314.98068,50,76,0
314.93552,315.14734,54,76,0
315.1022,315.314,59,76,0
315.26886,315.48068,62,76,0
315.43552,315.64734,66,76,0
315.6022,315.73587,71,76,0
315.76886,316.22894,78,76,0
315.76886,316.22894,74,76,0
316.26886,316.72894,73,76,0
316.26886,316.72894,76,76,0
316.76886,317.06573,74,76,0
316.76886,317.06573,71,76,0
317.1022,317.23587,67,76,0
317.1022,317.23587,79,76,0
317.26886,317.56573,78,76,0
317.26886,317.56573,66,76,0
317.6022,317.73587,73,76,0
317.6022,317.73587,76,76,0
317.76886,318.06573,71,76,0
317.76886,318.06573,74,76,0
318.1022,318.23587,67,76,0
318.1022,318.23587,79,76,0
318.26886,318.56573,66,76,0
318.26886,318.56573,78,76,0
318.6022,318.73587,73,76,0
318.6022,318.73587,76,76,0
318.76886,319.22894,78,76,0
318.76886,319.22894,71,76,0
318.76886,319.22894,66,76,0
318.76886,319.22894,74,76,0
319.26886,319.72894,78,76,0
319.26886,319.72894,71,76,0
319.26886,319.72894,66,76,0
319.26886,319.72894,74,76,0
319.76886,320.22894,78,76,0
319.76886,320.22894,66,76,0
319.76886,320.22894,71,76,0
319.76886,320.22894,74,76,0
320.26886,320.7289,78,76,0
320.26886,320.7289,66,76,0
320.26886,320.7289,71,76,0
320.26886,320.7289,74,76,0
320.76886,321.2289,50,80,0
320.76886,321.2289,38,80,0
320.76886,321.2289,44,80,0
321.26886,321.7289,38,80,0
321.26886,321.7289,50,80,0
321.26886,321.7289,44,80,0
321.76886,322.2289,38,80,0
321.76886,322.2289,44,80,0
321.76886,322.2289,50,80,0
322.26886,322.7289,50,80,0
322.26886,322.7289,44,80,0
322.26886,322.7289,38,80,0
322.76886,323.2289,44,76,0
322.76886,323.2289,38,76,0
322.76886,323.2289,50,76,0
323.26886,323.7289,51,76,0
323.26886,323.7289,39,76,0
323.76886,324.2289,53,76,0
323.76886,324.2289,41,76,0
324.26886,324.7289,54,76,0
324.26886,324.7289,42,76,0
324.76886,325.2289,44,76,0
324.76886,325.2289,56,76,0
324.76886,325.2289,51,76,0
325.26886,325.7289,58,76,0
325.26886,325.7289,46,76,0
325.26886,325.7289,51,76,0
325.76886,326.2289,59,76,0
325.76886,326.2289,47,76,0
325.76886,326.2289,51,76,0
326.26886,326.7289,53,76,0
326.26886,326.7289,51,76,0
326.26886,326.7289,48,76,0
326.26886,326.7289,60,76,0
326.76886,326.98065,34,76,0
326.93552,327.14734,46,56,0
327.10217,327.314,34,56,0
327.26886,327.48065,46,56,0
327.43552,327.6473,34,56,0
327.60217,327.814,46,56,0
327.76886,327.98065,34,56,0
327.93552,328.1473,46,59,0
328.10217,328.314,34,61,0
328.26886,328.48065,46,63,0
328.43552,328.6473,34,62,0
328.60217,328.73587,46,60,0
328.76886,328.98065,34,58,0
328.93552,329.1473,46,56,0
329.10217,329.314,34,56,0
329.26886,329.48065,46,56,0
329.43552,329.6473,34,56,0
329.60217,329.814,46,56,0
329.76886,329.98065,34,56,0
329.93552,330.1473,46,56,0
330.10217,330.314,34,56,0
330.26886,330.48065,46,56,0
330.43552,330.6473,34,56,0
330.60217,330.73587,46,56,0
330.76886,330.98065,34,56,0
330.93552,331.1473,46,56,0
331.10217,331.314,34,56,0
331.26886,331.48065,46,56,0
331.43552,331.6473,34,56,0
331.60217,331.814,46,56,0
331.76886,331.98065,34,56,0
331.93552,332.1473,46,56,0
332.10217,332.314,34,56,0
332.26886,332.48065,46,56,0
332.43552,332.6473,34,56,0
332.60217,332.73587,46,56,0
332.76886,332.98065,34,56,0
332.93552,333.1473,46,56,0
333.10217,333.314,34,56,0
333.26886,333.48065,46,56,0
333.43552,333.6473,34,56,0
333.60217,333.814,46,56,0
333.76886,333.98065,34,56,0
333.93552,334.1473,46,56,0
334.10217,334.314,34,56,0
334.26883,334.48065,46,56,0
334.43552,334.6473,34,56,0
334.60217,334.73587,46,56,0
334.76883,335.56226,35,56,0
334.76883,335.56226,47,56,0
335.60217,335.814,34,56,0
335.60217,335.814,46,56,0
335.76883,336.56226,47,56,0
335.76883,336.56226,35,56,0
336.60217,336.814,34,56,0
336.60217,336.814,46,56,0
336.76883,337.56226,47,56,0
336.76883,337.56226,35,56,0
337.60217,337.81396,34,56,0
337.60217,337.81396,46,56,0
337.76883,338.56226,47,56,0
337.76883,338.56226,35,56,0
338.60217,338.81396,34,56,0
338.60217,338.81396,46,56,0
338.76883,339.56226,47,56,0
338.76883,339.56226,35,56,0
339.60217,339.81396,34,56,0
339.60217,339.81396,46,56,0
339.76883,340.56226,47,56,0
339.76883,340.56226,35,56,0
340.60217,341.6473,34,56,0
340.60217,341.6473,46,56,0
341.60217,342.5987,27,48,0
341.60217,342.5987,39,48,0
342.76883,343.0553,75,56,0
342.76883,343.0553,79,56,0
343.10217,343.38864,74,56,0
343.10217,343.38864,77,56,0
343.43552,343.72195,72,56,0
343.43552,343.72195,75,56,0
343.76883,344.0553,70,56,0
343.76883,344.0553,74,56,0
344.10217,344.3886,68,56,0
344.10217,344.3886,72,56,0
344.4355,344.72195,67,56,0
344.4355,344.72195,70,56,0
344.76883,345.73758,63,56,0
344.76883,345.73758,65,56,0
344.76883,345.73758,69,56,0
345.76883,346.7098,68,56,0
345.76883,346.7098,74,56,0
345.76883,346.7098,65,56,0
345.76883,346.7098,63,56,0
346.76883,347.0553,79,56,0
346.76883,347.0553,75,56,0
347.10217,347.3886,77,56,0
347.10217,347.3886,82,56,0
347.4355,347.72195,75,56,0
347.4355,347.72195,79,56,0
347.76883,348.0553,79,56,0
347.76883,348.0553,74,56,0
348.10217,348.3886,75,56,0
348.10217,348.3886,72,56,0
348.4355,348.72195,75,56,0
348.4355,348.72195,70,56,0
348.76883,349.73758,63,56,0
348.76883,349.73758,72,56,0
348.76883,349.73758,65,56,0
348.76883,349.73758,69,56,0
349.76883,350.7289,68,56,0
349.76883,350.7289,65,56,0
349.76883,350.7289,74,56,0
349.76883,350.7289,63,56,0
350.76883,351.0553,51,54,0
351.10217,351.3886,55,55,0
351.4355,351.72195,48,55,0
351.76883,352.0553,51,56,0
352.10217,352.3886,56,57,0
352.4355,352.72195,47,58,0
352.76883,353.0553,51,59,0
353.10217,353.3886,58,59,0
353.4355,353.72195,46,60,0
353.76883,354.0553,51,61,0
354.10217,354.3886,59,62,0
354.4355,354.72195,44,63,0
354.76883,355.05527,51,63,0
355.10214,355.3886,63,64,0
355.4355,355.72195,51,65,0
355.4355,355.72195,39,65,0
355.76883,356.05527,51,66,0
356.10214,356.3886,63,67,0
356.4355,356.72195,51,68,0
356.4355,356.72195,39,68,0
356.76883,357.05527,49,68,0
356.76883,357.05527,51,68,0
357.10214,357.3886,61,69,0
357.10214,357.3886,51,69,0
357.4355,357.72195,39,70,0
357.4355,357.72195,49,70,0
357.4355,357.72195,37,70,0
357.76883,358.05527,49,71,0
357.76883,358.05527,51,71,0
358.10214,358.3886,61,72,0
358.10214,358.3886,51,72,0
358.4355,358.72195,49,72,0
358.4355,358.72195,39,72,0
358.4355,358.72195,37,72,0
358.76883,358.98062,35,73,0
358.9355,359.14728,42,74,0
359.10214,359.31396,47,74,0
359.26883,359.48062,51,74,0
359.4355,359.64728,54,75,0
359.60214,359.73584,59,75,0
359.76883,360.2584,54,76,0
359.76883,360.2584,63,76,0
360.26883,360.5952,52,76,0
360.26883,360.5952,61,76,0
360.60214,360.73584,59,76,0
360.60214,360.73584,51,76,0
360.76883,361.71848,58,76,0
360.76883,361.71848,46,76,0
360.76883,361.71848,51,76,0
361.76883,362.22888,34,76,0
361.76883,362.22888,46,76,0
362.26883,362.72888,68,76,0
362.26883,362.72888,58,76,0
362.26883,362.72888,65,76,0
362.76883,362.98062,35,76,0
362.9355,363.14728,42,76,0
363.10214,363.31396,47,76,0
363.26883,363.48062,51,76,0
363.4355,363.64728,54,76,0
363.60214,363.73584,59,76,0
363.76883,364.2584,54,76,0
363.76883,364.2584,63,76,0
364.26883,364.5952,52,76,0
364.26883,364.5952,61,76,0
364.60214,364.73584,59,76,0
364.60214,364.73584,51,76,0
364.7688,365.71848,46,76,0
364.7688,365.71848,58,76,0
364.7688,365.71848,51,76,0
365.7688,366.22888,46,76,0
365.7688,366.22888,34,76,0
366.2688,366.72888,58,76,0
366.2688,366.72888,65,76,0
366.7688,367.22888,46,76,0
366.7688,367.22888,34,76,0
367.2688,367.72888,68,76,0
367.2688,367.72888,58,76,0
367.2688,367.72888,65,76,0
367.7688,368.22888,34,76,0
367.7688,368.22888,46,76,0
368.2688,368.72888,68,76,0
368.2688,368.72888,58,76,0
368.2688,368.72888,65,76,0
368.7688,369.05527,51,76,0
368.7688,369.05527,39,76,0
369.60214,369.7254,46,76,0
369.60214,369.7254,34,76,0
369.7688,370.05527,51,76,0
369.7688,370.05527,39,76,0
370.60214,370.7254,34,76,0
370.60214,370.7254,46,76,0
370.7688,371.21848,49,76,0
370.7688,371.21848,37,76,0
371.60214,371.7254,46,76,0
371.60214,371.7254,34,76,0
371.7688,372.21844,37,76,0
371.7688,372.21844,49,76,0
372.60214,372.7254,34,76,0
372.60214,372.7254,46,76,0
372.7688,373.21844,39,76,0
372.7688,373.21844,27,76,0
373.60214,373.7254,34,76,0
373.60214,373.7254,46,76,0
373.7688,374.21844,39,76,0
373.7688,374.21844,27,76,0
374.60214,374.7254,32,76,0
374.60214,374.7254,44,76,0
374.7688,375.21844,56,76,0
374.7688,375.21844,44,76,0
375.60214,375.7254,34,76,0
375.60214,375.7254,46,76,0
375.7688,376.21844,58,76,0
375.7688,376.21844,46,76,0
376.60214,376.7254,46,84,0
376.60214,376.7254,34,84,0
376.7688,376.88858,51,84,0
376.7688,376.88858,39,84,0
377.60214,377.7254,58,84,0
377.60214,377.7254,46,84,0
377.7688,377.88858,51,84,0
377.7688,377.88858,39,84,0
378.60214,378.7254,46,84,0
378.60214,378.7254,34,84,0
378.7688,378.88858,51,84,0
378.7688,378.88858,39,84,0
379.60214,379.7254,58,84,0
379.60214,379.7254,46,84,0
379.7688,379.88858,51,84,0
379.7688,379.88858,39,84,0
380.60214,380.7254,46,84,0
380.60214,380.7254,34,84,0
380.7688,380.88858,51,84,0
380.7688,380.88858,39,84,0
381.10214,381.2254,58,84,0
381.10214,381.2254,46,84,0
381.2688,381.38858,51,84,0
381.2688,381.38858,39,84,0
381.60214,381.7254,46,84,0
381.60214,381.7254,34,84,0
381.7688,381.88858,51,84,0
381.7688,381.88858,39,84,0
382.10214,382.2254,58,84,0
382.10214,382.2254,46,84,0
382.2688,382.38858,51,84,0
382.2688,382.38858,39,84,0
382.60214,382.7254,46,84,0
382.60214,382.7254,34,84,0
382.7688,382.88858,51,84,0
382.7688,382.88858,39,84,0
383.10214,383.2254,46,84,0
383.10214,383.2254,34,84,0
383.2688,383.38858,51,84,0
383.2688,383.38858,39,84,0
383.60214,383.7254,58,84,0
383.60214,383.7254,46,84,0
383.7688,383.88858,51,84,0
383.7688,383.88858,39,84,0
384.10214,384.2254,58,84,0
384.10214,384.2254,46,84,0
384.2688,384.38858,51,84,0
384.2688,384.38858,39,84,0
384.60214,384.7254,58,84,0
384.60214,384.7254,46,84,0
384.7688,385.09518,51,84,0
384.7688,385.09518,39,84,0
385.7688,386.09518,70,84,0
385.7688,386.09518,67,84,0
385.7688,386.09518,63,84,0
385.7688,386.09518,58,84,0
386.7688,388.90353,39,84,0
386.7688,388.90353,27,84,0
