start_time,end_time,note_value,velocity,instrument_program_number
0.0,0.542986,79,88,0
0.0,0.542986,67,79,0
0.0,0.542986,70,79,0
0.0,0.542986,75,79,0
0.542986,0.6893275,77,70,0
0.542986,0.6893275,65,62,0
0.542986,0.6893275,70,62,0
0.542986,0.6893275,74,62,0
0.835669,0.9820105,79,70,0
0.835669,0.9820105,75,62,0
0.835669,0.9820105,67,62,0
0.835669,0.9820105,70,62,0
1.128352,1.661685,75,79,0
1.128352,1.661685,68,79,0
1.128352,1.661685,72,79,0
1.128352,1.661685,80,88,0
1.661685,1.8059157,79,70,0
1.661685,1.8059157,75,62,0
1.661685,1.8059157,70,62,0
1.661685,1.8059157,67,62,0
1.9501466,2.0943773,75,63,0
1.9501466,2.0943773,65,63,0
1.9501466,2.0943773,72,63,0
1.9501466,2.0943773,77,71,0
2.238608,2.776725,79,84,0
2.238608,2.776725,70,75,0
2.238608,2.776725,67,75,0
2.238608,2.776725,75,75,0
2.776725,2.9195824,74,60,0
2.776725,2.9195824,65,60,0
2.776725,2.9195824,77,68,0
2.776725,2.9195824,68,60,0
3.0624394,3.2052968,75,63,0
3.0624394,3.2052968,67,57,0
3.0624394,3.2052968,63,57,0
3.0624394,3.2052968,70,57,0
3.348154,3.4845178,77,68,0
3.348154,3.4845178,74,60,0
3.348154,3.4845178,65,60,0
3.6208816,3.765809,70,63,0
3.9107366,4.4688764,75,79,0
3.9107366,4.4688764,72,70,0
3.9107366,4.4688764,63,70,0
4.4688764,5.0118623,74,74,0
4.4688764,5.0118623,63,67,0
4.4688764,5.0118623,75,74,0
4.4688764,5.0118623,70,67,0
5.0118623,5.486975,75,74,0
5.0118623,5.486975,68,67,0
5.0118623,5.486975,63,67,0
5.0118623,5.486975,72,67,0
5.5548487,6.0905623,70,67,0
5.5548487,6.0905623,63,67,0
5.5548487,6.0905623,75,74,0
5.5548487,6.0905623,67,67,0
6.0905623,6.232072,74,70,0
6.0905623,6.232072,62,62,0
6.0905623,6.232072,65,62,0
6.0905623,6.232072,70,62,0
6.3735814,6.515091,67,62,0
6.3735814,6.515091,75,70,0
6.3735814,6.515091,70,62,0
6.3735814,6.515091,63,62,0
6.6566005,7.1875734,67,72,0
6.6566005,7.1875734,72,72,0
6.6566005,7.1875734,75,72,0
6.6566005,7.1875734,79,81,0
7.1875734,7.3258224,72,61,0
7.1875734,7.3258224,77,69,0
7.1875734,7.3258224,65,61,0
7.1875734,7.3258224,68,61,0
7.464071,7.6055803,75,69,0
7.464071,7.6055803,63,61,0
7.464071,7.6055803,67,61,0
7.464071,7.6055803,72,61,0
7.74709,8.278063,67,69,0
7.74709,8.278063,70,69,0
7.74709,8.278063,74,78,0
7.74709,8.278063,62,69,0
8.278063,8.412592,72,72,0
8.278063,8.412592,60,64,0
8.278063,8.412592,63,64,0
8.278063,8.412592,67,64,0
8.547121,8.681651,67,62,0
8.547121,8.681651,70,70,0
8.547121,8.681651,58,62,0
8.547121,8.681651,62,62,0
8.81618,8.950709,69,69,0
8.81618,8.950709,66,61,0
8.81618,8.950709,57,61,0
9.085238,9.227419,62,66,0
9.369598,9.925155,67,75,0
9.369598,9.925155,55,68,0
9.925155,10.493875,67,75,0
9.925155,10.493875,66,68,0
9.925155,10.493875,55,68,0
10.493875,10.991505,67,74,0
10.493875,10.991505,65,67,0
10.493875,10.991505,55,67,0
11.062594,11.5823,75,79,0
11.062594,11.5823,67,79,0
11.062594,11.5823,79,88,0
11.062594,11.5823,70,79,0
11.5823,11.726531,70,64,0
11.5823,11.726531,77,72,0
11.5823,11.726531,74,64,0
11.5823,11.726531,65,64,0
11.870762,12.014993,79,72,0
11.870762,12.014993,67,64,0
11.870762,12.014993,70,64,0
11.870762,12.014993,75,64,0
12.159224,12.678929,75,79,0
12.159224,12.678929,80,88,0
12.159224,12.678929,68,79,0
12.159224,12.678929,72,79,0
12.678929,12.82316,79,70,0
12.678929,12.82316,67,62,0
12.678929,12.82316,70,62,0
12.678929,12.82316,75,70,0
12.967391,13.111622,65,62,0
12.967391,13.111622,75,70,0
12.967391,13.111622,72,62,0
12.967391,13.111622,77,70,0
13.255853,13.775558,79,85,0
13.255853,13.775558,67,77,0
13.255853,13.775558,70,77,0
13.255853,13.775558,75,77,0
13.775558,13.915746,74,64,0
13.775558,13.915746,77,72,0
13.775558,13.915746,65,64,0
13.775558,13.915746,68,64,0
14.055932,14.196119,75,70,0
14.055932,14.196119,63,62,0
14.055932,14.196119,67,62,0
14.055932,14.196119,70,62,0
14.336307,14.473921,65,60,0
14.336307,14.473921,74,60,0
14.336307,14.473921,77,68,0
14.611536,14.756463,70,66,0
14.901391,15.433318,75,83,0
14.901391,15.433318,63,74,0
15.433318,15.974481,75,86,0
15.433318,15.974481,63,78,0
15.433318,15.974481,73,78,0
15.974481,16.490557,75,93,0
15.974481,16.490557,63,83,0
15.974481,16.490557,71,83,0
16.525206,17.058254,78,90,0
16.525206,17.058254,87,101,0
16.525206,17.058254,82,90,0
16.525206,17.058254,75,90,0
17.058254,17.320309,74,83,0
17.058254,17.320309,78,83,0
17.058254,17.320309,82,83,0
17.058254,17.320309,86,93,0
17.320309,17.607721,75,80,0
17.320309,17.607721,87,90,0
17.320309,17.607721,82,80,0
17.320309,17.607721,78,80,0
17.607721,18.14077,71,85,0
17.607721,18.14077,78,85,0
17.607721,18.14077,83,95,0
17.607721,18.14077,75,85,0
18.14077,18.413126,75,78,0
18.14077,18.413126,82,86,0
18.14077,18.413126,70,78,0
18.14077,18.413126,78,78,0
18.413126,18.685482,71,77,0
18.413126,18.685482,78,77,0
18.413126,18.685482,83,85,0
18.413126,18.685482,75,77,0
18.685482,19.230194,71,82,0
18.685482,19.230194,80,92,0
18.685482,19.230194,68,82,0
18.685482,19.230194,75,82,0
19.230194,19.517605,67,74,0
19.230194,19.517605,79,83,0
19.230194,19.517605,75,74,0
19.230194,19.517605,71,74,0
19.517605,19.839079,75,74,0
19.517605,19.839079,68,74,0
19.517605,19.839079,71,74,0
19.517605,19.839079,80,83,0
19.839079,20.482029,78,88,0
19.839079,20.482029,66,79,0
19.839079,20.482029,69,79,0
19.839079,20.482029,72,79,0
20.482029,20.610233,77,73,0
20.610233,20.73844,74,61,0
20.73844,20.866644,70,63,0
20.866644,20.99485,69,60,0
20.99485,21.123055,74,71,0
21.123055,21.25126,70,61,0
21.25126,21.379465,65,63,0
21.379465,21.507671,64,61,0
21.507671,21.635876,70,70,0
21.635876,21.76408,65,61,0
21.76408,21.892286,62,63,0
21.892286,22.02049,60,61,0
25.898989,26.027195,89,64,0
26.027195,26.1554,86,59,0
26.1554,26.283606,82,61,0
26.283606,26.41181,81,60,0
26.41181,26.540016,86,64,0
26.540016,26.66822,82,58,0
26.66822,26.796427,77,58,0
26.796427,26.924631,76,58,0
26.924631,27.052837,82,60,0
27.052837,27.181042,77,56,0
27.181042,27.309248,74,56,0
27.309248,27.437452,72,56,0
27.437452,27.956934,70,66,0
27.956934,28.485476,67,60,0
27.956934,28.485476,70,68,0
28.485476,29.02543,70,71,0
28.485476,29.02543,67,71,0
28.485476,29.02543,63,63,0
29.02543,29.565388,67,74,0
29.02543,29.565388,72,74,0
29.02543,29.565388,60,67,0
29.02543,29.565388,63,67,0
29.565388,30.105345,72,75,0
29.565388,30.105345,60,68,0
29.565388,30.105345,63,68,0
29.565388,30.105345,68,75,0
30.105345,30.732174,68,72,0
30.105345,30.732174,72,72,0
30.105345,30.732174,77,81,0
30.105345,30.732174,65,72,0
31.251879,31.380634,86,57,0
31.380634,31.50939,83,53,0
31.50939,31.638145,79,54,0
31.638145,31.766901,78,54,0
31.766901,31.895657,83,57,0
31.895657,32.02441,79,54,0
30.732174,32.153168,74,88,0
32.02441,32.153168,74,54,0
32.153168,32.28192,73,54,0
32.28192,32.410675,79,57,0
32.410675,32.539433,74,54,0
30.732174,32.668186,71,88,0
32.539433,32.668186,71,55,0
32.668186,32.796944,69,54,0
30.732174,32.796944,62,79,0
30.732174,32.796944,67,79,0
32.796944,33.332657,67,64,0
33.332657,33.86837,67,64,0
33.332657,33.86837,65,58,0
33.86837,34.404083,67,68,0
33.86837,34.404083,63,60,0
34.404083,34.9398,67,70,0
34.404083,34.9398,62,62,0
34.404083,34.9398,65,62,0
34.9398,35.495354,67,74,0
34.9398,35.495354,63,67,0
34.9398,35.495354,60,67,0
35.495354,36.09219,60,69,0
35.495354,36.09219,63,69,0
35.495354,36.09219,69,78,0
36.68903,36.817234,89,64,0
36.817234,36.94544,86,61,0
36.94544,37.073643,82,64,0
37.073643,37.20185,81,62,0
37.20185,37.330055,86,60,0
37.330055,37.45826,82,55,0
37.45826,37.586464,77,58,0
37.586464,37.714672,76,54,0
37.714672,37.842876,82,58,0
37.842876,37.97108,77,53,0
37.97108,38.099285,74,56,0
38.099285,38.227493,72,53,0
36.09219,38.227493,70,83,0
36.09219,38.227493,62,74,0
36.09219,38.227493,58,74,0
38.227493,38.786827,70,64,0
38.786827,39.324463,70,65,0
38.786827,39.324463,66,65,0
39.324463,39.873962,70,69,0
39.324463,39.873962,63,62,0
39.324463,39.873962,66,62,0
39.873962,40.423462,75,77,0
39.873962,40.423462,66,68,0
39.873962,40.423462,63,68,0
39.873962,40.423462,71,68,0
40.423462,40.990463,71,71,0
40.423462,40.990463,63,71,0
40.423462,40.990463,75,80,0
40.423462,40.990463,68,71,0
40.990463,41.598923,80,88,0
40.990463,41.598923,71,79,0
40.990463,41.598923,68,79,0
40.990463,41.598923,76,88,0
41.598923,42.638336,75,97,0
42.11863,42.638336,75,89,0
42.11863,42.638336,83,89,0
41.598923,42.638336,78,97,0
41.598923,42.638336,71,88,0
41.598923,42.638336,66,88,0
42.11863,42.638336,87,99,0
42.638336,43.15804,87,99,0
42.638336,43.15804,75,89,0
42.638336,43.15804,82,89,0
43.15804,43.677746,81,89,0
43.15804,43.677746,87,99,0
43.15804,43.677746,75,89,0
43.677746,44.08807,75,91,0
43.677746,44.08807,87,102,0
43.677746,44.08807,82,91,0
43.677746,44.08807,79,91,0
44.224842,44.37405,77,73,0
44.224842,44.37405,70,66,0
44.224842,44.37405,65,66,0
44.224842,44.37405,74,66,0
44.523262,44.67247,75,66,0
44.523262,44.67247,67,66,0
44.523262,44.67247,79,73,0
44.523262,44.67247,70,66,0
44.82168,45.341385,80,85,0
44.82168,45.341385,72,77,0
44.82168,45.341385,68,77,0
44.82168,45.341385,75,77,0
45.341385,45.488445,75,72,0
45.341385,45.488445,67,64,0
45.341385,45.488445,79,72,0
45.341385,45.488445,70,64,0
45.6355,45.782562,75,64,0
45.6355,45.782562,65,64,0
45.6355,45.782562,72,64,0
45.6355,45.782562,77,72,0
45.92962,46.449326,70,78,0
45.92962,46.449326,79,86,0
45.92962,46.449326,75,78,0
45.92962,46.449326,67,78,0
46.449326,46.594254,77,72,0
46.449326,46.594254,65,64,0
46.449326,46.594254,68,64,0
46.449326,46.594254,74,64,0
46.73918,46.88411,70,63,0
46.73918,46.88411,75,71,0
46.73918,46.88411,63,63,0
46.73918,46.88411,67,63,0
47.029037,47.167927,77,70,0
47.029037,47.167927,74,62,0
47.029037,47.167927,65,62,0
47.306816,47.451046,70,69,0
47.595276,48.161316,63,70,0
47.595276,48.161316,72,70,0
47.595276,48.161316,75,79,0
48.161316,48.70926,75,78,0
48.161316,48.70926,63,69,0
48.161316,48.70926,70,69,0
48.161316,48.70926,74,78,0
48.70926,49.257206,72,69,0
48.70926,49.257206,75,77,0
48.70926,49.257206,63,69,0
48.70926,49.257206,68,69,0
49.257206,49.80515,75,74,0
49.257206,49.80515,63,67,0
49.257206,49.80515,67,67,0
49.257206,49.80515,70,67,0
49.80515,49.944683,62,69,0
49.80515,49.944683,74,77,0
49.80515,49.944683,65,69,0
49.80515,49.944683,70,69,0
50.08422,50.231277,75,77,0
50.08422,50.231277,63,69,0
50.08422,50.231277,67,69,0
50.08422,50.231277,70,69,0
50.378338,50.91167,79,82,0
50.378338,50.91167,67,73,0
50.378338,50.91167,72,73,0
50.378338,50.91167,75,73,0
50.91167,51.048656,77,75,0
50.91167,51.048656,65,68,0
50.91167,51.048656,68,68,0
50.91167,51.048656,72,68,0
51.185642,51.331272,67,68,0
51.185642,51.331272,72,68,0
51.185642,51.331272,75,75,0
51.185642,51.331272,63,68,0
51.476906,52.007877,74,80,0
51.476906,52.007877,62,71,0
51.476906,52.007877,67,71,0
51.476906,52.007877,70,71,0
52.007877,52.142406,72,72,0
52.007877,52.142406,67,64,0
52.007877,52.142406,60,64,0
52.007877,52.142406,63,64,0
52.276936,52.411465,67,62,0
52.276936,52.411465,58,62,0
52.276936,52.411465,62,62,0
52.276936,52.411465,70,70,0
52.545994,52.684242,57,62,0
52.545994,52.684242,66,62,0
52.545994,52.684242,69,70,0
52.82249,52.96074,62,68,0
53.09837,53.636486,67,66,0
53.09837,53.636486,55,59,0
53.636486,54.192806,66,75,0
53.636486,54.192806,55,68,0
53.636486,54.192806,67,75,0
54.192806,54.616234,67,74,0
54.192806,54.616234,65,74,0
54.192806,54.616234,55,67,0
54.75864,55.280376,70,65,0
54.75864,55.280376,79,77,0
54.75864,55.280376,75,65,0
54.75864,55.280376,67,65,0
55.280376,55.41674,77,72,0
55.280376,55.41674,65,61,0
55.280376,55.41674,70,61,0
55.280376,55.41674,74,61,0
55.553104,55.69395,75,62,0
55.553104,55.69395,79,73,0
55.553104,55.69395,67,62,0
55.553104,55.69395,70,62,0
55.834797,56.3545,80,77,0
55.834797,56.3545,68,65,0
55.834797,56.3545,72,65,0
55.834797,56.3545,75,65,0
56.3545,56.490864,70,62,0
56.3545,56.490864,75,62,0
56.3545,56.490864,79,74,0
56.3545,56.490864,67,62,0
56.627228,56.767414,75,53,0
56.627228,56.767414,65,53,0
56.627228,56.767414,72,53,0
56.627228,56.767414,77,72,0
56.907604,57.427307,79,76,0
56.907604,57.427307,75,58,0
56.907604,57.427307,67,58,0
56.907604,57.427307,70,58,0
57.427307,57.560005,74,75,0
57.427307,57.560005,65,63,0
57.427307,57.560005,68,63,0
57.427307,57.560005,77,75,0
57.692703,57.825397,75,73,0
57.692703,57.825397,70,62,0
57.692703,57.825397,67,62,0
57.692703,57.825397,63,62,0
57.958096,58.09079,77,74,0
57.958096,58.09079,74,74,0
57.958096,58.09079,65,62,0
58.223488,58.356186,70,71,0
58.48888,59.040806,63,61,0
58.48888,59.040806,75,69,0
59.040806,59.620968,75,75,0
59.040806,59.620968,63,68,0
59.040806,59.620968,74,68,0
59.620968,60.24157,72,72,0
59.620968,60.24157,63,72,0
59.620968,60.24157,75,81,0
60.24157,60.77462,79,90,0
60.24157,60.77462,87,90,0
60.24157,60.77462,91,101,0
60.24157,60.77462,84,90,0
60.77462,60.905647,74,83,0
60.77462,60.905647,83,93,0
60.77462,60.905647,86,93,0
61.036674,61.180378,75,79,0
61.036674,61.180378,87,89,0
61.036674,61.180378,84,79,0
61.324085,61.857136,75,82,0
61.324085,61.857136,83,92,0
61.324085,61.857136,80,82,0
61.324085,61.857136,71,82,0
61.857136,61.99798,72,79,0
61.857136,61.99798,75,79,0
61.857136,61.99798,80,79,0
61.857136,61.99798,84,88,0
62.138824,62.27967,67,75,0
62.138824,62.27967,76,84,0
62.138824,62.27967,79,84,0
62.420513,62.983894,68,80,0
62.420513,62.983894,72,80,0
62.420513,62.983894,80,90,0
62.420513,62.983894,77,80,0
62.983894,63.283894,63,74,0
62.983894,63.283894,73,83,0
62.983894,63.283894,76,83,0
63.283894,63.6192,65,74,0
63.283894,63.6192,77,83,0
63.283894,63.6192,74,74,0
63.6192,64.43112,75,88,0
64.42025,64.561554,74,78,0
64.55069,64.69199,72,76,0
63.6192,64.811554,63,79,0
63.6192,64.811554,69,88,0
63.6192,64.811554,66,79,0
64.68112,64.811554,71,78,0
64.811554,65.028946,72,74,0
64.811554,65.028946,66,65,0
64.811554,65.028946,60,65,0
64.811554,65.028946,63,65,0
65.391266,65.63191,67,69,0
65.391266,65.63191,62,62,0
65.391266,65.63191,59,62,0
66.03298,67.23298,48,58,0
67.23298,68.432976,62,52,0
67.23298,68.432976,50,47,0
66.03298,68.432976,60,64,0
68.432976,70.83298,75,44,0
68.432976,70.83298,72,44,0
68.432976,70.83298,63,39,0
70.83298,71.02123,51,37,0
70.83298,71.02123,60,45,0
71.02123,71.20949,55,41,0
71.20949,71.397736,60,41,0
71.20949,71.397736,51,35,0
71.397736,71.962494,55,33,0
71.397736,71.962494,62,39,0
71.397736,71.962494,50,33,0
71.962494,72.15075,63,45,0
71.962494,72.15075,51,37,0
72.15075,72.339005,55,41,0
72.339005,72.52725,63,41,0
72.339005,72.52725,51,35,0
72.52725,73.09202,62,40,0
72.52725,73.09202,55,34,0
72.52725,73.09202,50,34,0
73.09202,73.280266,67,48,0
73.09202,73.280266,55,40,0
73.280266,73.46852,63,44,0
73.46852,73.65678,65,44,0
73.46852,73.65678,53,37,0
73.65678,74.221535,62,46,0
74.221535,74.40978,51,37,0
74.221535,74.40978,60,44,0
74.40978,74.59804,55,41,0
74.59804,74.78629,61,41,0
74.59804,74.78629,49,35,0
74.78629,75.36121,58,45,0
75.36121,75.54946,72,47,0
75.36121,75.54946,60,39,0
75.54946,75.73772,68,45,0
75.73772,75.92597,70,44,0
75.73772,75.92597,58,37,0
75.921265,76.48602,67,41,0
76.49073,76.678986,72,47,0
76.49073,76.678986,60,39,0
76.678986,76.86723,68,44,0
76.86723,77.05549,70,46,0
76.86723,77.05549,58,38,0
77.05549,77.243744,67,44,0
77.243744,77.43199,68,45,0
77.243744,77.43199,56,37,0
77.43199,77.62025,65,41,0
77.62025,77.8085,66,44,0
77.62025,77.8085,54,37,0
77.8085,77.99675,63,41,0
77.99675,78.185005,54,35,0
77.99675,78.185005,66,41,0
78.185005,78.74976,67,44,0
78.185005,78.74976,62,37,0
78.185005,78.74976,55,37,0
78.74976,78.93802,69,44,0
78.75447,78.942726,57,37,0
78.93802,79.126274,63,42,0
79.126274,79.31452,69,42,0
79.130974,79.31923,57,36,0
79.31452,79.89079,55,37,0
79.31452,79.89079,62,37,0
79.31452,79.89079,67,44,0
79.89079,80.07904,72,52,0
79.89079,80.07904,60,52,0
80.07904,80.267296,67,48,0
80.267296,80.45555,72,48,0
80.267296,80.45555,60,48,0
80.45555,81.02031,74,48,0
80.45555,81.02031,67,48,0
80.45555,81.02031,62,48,0
81.02031,81.208565,64,61,0
81.02031,81.208565,76,61,0
81.208565,81.39681,67,57,0
81.39681,81.58507,76,56,0
81.39681,81.58507,64,56,0
81.58507,82.149826,62,61,0
81.58507,82.149826,67,61,0
81.58507,82.149826,74,61,0
82.149826,82.33565,67,66,0
82.149826,82.33565,79,66,0
82.33565,82.52147,76,61,0
82.52147,82.70729,77,61,0
82.52147,82.70729,65,61,0
82.70729,83.264755,67,60,0
82.70729,83.264755,74,60,0
82.70729,83.264755,62,60,0
83.264755,83.45058,76,78,0
83.264755,83.45058,64,78,0
83.45058,83.6364,72,71,0
83.6364,83.82222,74,71,0
83.6364,83.82222,62,71,0
83.82222,84.40027,58,71,0
83.82222,84.40027,64,71,0
83.82222,84.40027,70,71,0
84.40027,84.58292,72,76,0
84.40027,84.58292,84,90,0
84.58292,84.67424,81,79,0
84.58292,84.67424,77,67,0
84.765564,84.91262,84,79,0
84.765564,84.91262,72,67,0
84.96164,85.5172,79,80,0
84.96164,85.5172,76,68,0
85.5172,85.699844,81,88,0
85.5172,85.699844,69,74,0
85.699844,85.79117,77,79,0
85.699844,85.79117,74,67,0
85.88249,85.98006,81,79,0
85.88249,85.98006,69,67,0
86.077614,86.63317,76,80,0
86.077614,86.63317,72,68,0
86.63317,86.81499,67,73,0
86.63317,86.81499,79,86,0
86.81499,86.99681,76,69,0
86.81499,86.99681,72,58,0
86.99681,87.18263,79,85,0
86.99681,87.18263,67,72,0
87.18263,87.36445,74,56,0
87.18263,87.36445,77,66,0
87.36445,87.537605,67,67,0
87.36445,87.537605,79,79,0
87.537605,87.71077,76,61,0
87.537605,87.71077,72,51,0
87.71077,87.88698,79,85,0
87.71077,87.88698,67,72,0
87.88698,88.063194,72,67,0
87.88698,88.063194,69,56,0
88.063194,88.2394,79,79,0
88.063194,88.2394,67,67,0
88.2394,88.82247,74,62,0
88.2394,88.82247,67,62,0
88.2394,88.82247,71,62,0
88.2394,88.82247,79,74,0
88.82247,89.00512,84,89,0
88.82247,89.00512,72,75,0
89.00512,89.18777,83,70,0
89.00512,89.18777,79,59,0
89.18777,89.36244,84,79,0
89.18777,89.36244,72,67,0
89.36244,89.53712,81,62,0
89.36244,89.53712,77,52,0
89.53712,89.711784,72,66,0
89.53712,89.711784,84,78,0
89.711784,89.88646,79,62,0
89.711784,89.88646,76,52,0
89.88646,90.06503,81,85,0
89.88646,90.06503,69,72,0
90.06503,90.2436,76,59,0
90.06503,90.2436,79,70,0
90.2436,90.42707,69,67,0
90.2436,90.42707,81,79,0
90.42707,90.60251,77,63,0
90.42707,90.60251,74,53,0
90.60251,90.77795,81,80,0
90.60251,90.77795,69,68,0
90.77795,90.95417,72,51,0
90.77795,90.95417,76,61,0
90.95417,91.13395,79,88,0
90.95417,91.13395,67,74,0
91.13395,91.316185,77,70,0
91.13395,91.316185,74,59,0
91.316185,91.50116,67,72,0
91.316185,91.50116,79,85,0
91.50116,91.68896,76,66,0
91.50116,91.68896,72,56,0
91.68896,91.87993,79,83,0
91.68896,91.87993,67,70,0
91.87993,92.08514,72,66,0
91.87993,92.08514,69,56,0
92.08514,92.678314,74,69,0
92.08514,92.678314,79,82,0
92.08514,92.678314,67,69,0
92.08514,92.678314,71,69,0
92.678314,93.0001,72,84,0
92.678314,93.0001,60,73,0
93.35725,94.613785,48,70,0
94.613785,95.87033,50,55,0
94.613785,95.87033,62,61,0
93.35725,95.87033,60,79,0
95.87033,98.38342,75,48,0
95.87033,98.38342,63,42,0
95.87033,98.38342,72,48,0
98.38342,98.96313,48,41,0
98.96313,99.54284,50,44,0
98.96313,99.54284,62,49,0
98.38342,99.54284,60,47,0
99.54284,100.12255,65,47,0
99.54284,100.12255,77,52,0
100.12255,100.76771,76,50,0
100.12255,100.76771,64,45,0
99.54284,100.76771,72,52,0
100.76771,103.332695,84,41,0
100.76771,103.332695,75,37,0
100.76771,103.332695,87,41,0
103.332695,103.623955,72,39,0
103.28415,103.623955,68,27,0
103.23561,103.623955,63,27,0
103.187065,103.623955,60,27,0
103.623955,103.769585,73,39,0
103.92493,104.20648,74,39,0
103.84726,104.20648,68,26,0
103.769585,104.20648,60,26,0
103.808426,104.20648,63,26,0
103.88609,104.20648,72,39,0
104.20648,104.35211,75,41,0
104.49362,104.63513,84,44,0
104.35211,104.63513,68,28,0
104.42287,104.77664,80,29,0
104.77664,104.91815,79,42,0
105.05966,105.20117,84,40,0
104.91815,105.20117,68,28,0
104.96532,105.20117,80,28,0
105.01249,105.34268,77,27,0
105.34268,105.48419,76,39,0
105.625694,105.767204,84,26,0
105.48419,105.767204,68,26,0
105.55494,105.767204,80,26,0
106.191734,106.333244,84,40,0
106.12098,106.333244,80,25,0
106.050224,106.333244,68,24,0
105.625694,106.76037,75,39,0
106.76037,107.0331,73,41,0
106.69219,107.0331,79,26,0
106.62401,107.0331,82,26,0
107.0331,107.169464,72,40,0
107.305824,107.57855,70,39,0
107.23765,107.57855,75,26,0
107.169464,107.57855,79,26,0
107.57855,107.71492,72,40,0
107.85128,108.12401,73,42,0
107.783104,108.12401,77,25,0
107.71492,108.12401,80,25,0
108.12401,108.260376,72,42,0
108.396736,108.669464,70,41,0
108.32855,108.669464,73,26,0
108.260376,108.669464,77,26,0
108.669464,108.80583,68,40,0
108.94219,109.21492,67,42,0
108.87401,109.21492,70,25,0
108.80583,109.21492,75,25,0
109.21492,109.35128,65,41,0
109.48765,109.760376,63,40,0
109.419464,109.760376,70,24,0
109.35128,109.760376,73,24,0
109.760376,109.896736,65,41,0
110.03499,110.311485,67,44,0
109.965866,110.311485,73,28,0
109.896736,110.311485,75,28,0
110.311485,110.44973,70,40,0
110.58798,110.86448,65,42,0
110.51886,110.86448,73,26,0
110.44973,110.86448,75,26,0
110.86448,111.00273,68,38,0
111.140976,111.43084,63,40,0
111.07185,111.43084,72,26,0
111.00273,111.43084,75,26,0
111.43084,111.57754,67,35,0
111.72532,112.03144,61,39,0
111.651306,112.03144,70,25,0
111.57754,112.03144,75,25,0
112.03144,112.1845,65,33,0
112.40122,112.5434,68,30,0
112.47231,112.614494,72,30,0
112.33014,112.614494,60,39,0
112.614494,112.89886,61,39,0
112.96995,113.11213,68,30,0
113.04104,113.18321,72,30,0
112.89886,113.18321,62,39,0
113.18321,113.4669,63,41,0
113.39615,113.53766,60,31,0
113.53766,113.67917,75,33,0
113.4669,113.74992,72,44,0
113.74992,114.03294,68,42,0
114.10612,114.25246,72,33,0
114.17928,114.32563,75,33,0
114.03294,114.32563,65,40,0
114.32563,114.545135,66,39,0
114.69184,114.8389,72,31,0
114.765366,114.91243,75,31,0
115.20654,115.3536,72,31,0
115.280075,115.42713,75,31,0
115.3536,115.50066,79,31,0
114.61831,115.79564,67,39,0
115.79564,116.07471,75,41,0
115.72587,116.07471,79,26,0
115.656105,116.07471,83,26,0
116.07471,116.21424,74,40,0
116.353775,116.63285,72,39,0
116.28401,116.63285,75,26,0
116.21424,116.63285,79,26,0
116.63285,116.772385,67,40,0
116.908745,117.18147,70,42,0
116.84056,117.18147,74,25,0
116.772385,117.18147,77,25,0
117.18147,117.31784,68,42,0
117.4542,117.72693,67,41,0
117.38602,117.72693,71,26,0
117.31784,117.72693,74,26,0
117.72693,117.86329,65,40,0
117.99966,118.272385,63,42,0
117.93147,118.272385,67,25,0
117.86329,118.272385,71,25,0
118.272385,118.408745,62,41,0
118.54511,118.81784,60,40,0
118.47693,118.81784,63,24,0
118.408745,118.81784,67,24,0
118.81784,118.9542,55,41,0
119.09245,119.36895,60,44,0
119.02332,119.36895,63,28,0
118.9542,119.36895,67,28,0
119.36895,119.507195,58,40,0
119.64545,119.92194,56,42,0
119.507195,119.92194,63,26,0
119.576324,120.19844,60,26,0
120.19844,120.78278,55,39,0
120.78278,121.38623,53,38,0
120.19844,121.38623,59,39,0
120.19844,121.38623,62,39,0
121.38623,121.949615,63,30,0
121.38623,121.949615,55,30,0
121.38623,121.949615,67,30,0
121.949615,122.52116,69,36,0
121.949615,122.52116,66,36,0
121.949615,122.52116,57,36,0
122.52116,123.64792,67,39,0
122.52116,123.64792,70,39,0
122.52116,123.64792,58,39,0
123.64792,124.23905,67,30,0
123.64792,124.23905,75,30,0
123.64792,124.23905,79,30,0
124.23905,124.88772,81,34,0
124.23905,124.88772,78,34,0
124.23905,124.88772,69,34,0
124.88772,126.08175,79,30,0
124.88772,126.08175,70,30,0
124.88772,126.08175,82,30,0
126.08175,126.66998,67,30,0
126.08175,126.66998,64,30,0
126.08175,126.66998,55,30,0
126.66998,127.25763,66,33,0
126.66998,127.25763,69,33,0
126.66998,127.25763,57,33,0
127.25763,127.83923,67,36,0
127.25763,127.83923,58,36,0
127.25763,127.83923,70,36,0
127.83923,128.41045,72,39,0
127.83923,128.41045,69,39,0
127.83923,128.41045,60,39,0
128.41045,128.97176,73,44,0
128.41045,128.97176,70,44,0
128.41045,128.97176,61,44,0
128.97176,129.52339,76,48,0
128.97176,129.52339,64,48,0
128.97176,129.52339,72,48,0
129.52339,130.09348,77,51,0
129.52339,130.09348,65,51,0
130.09348,130.68379,67,55,0
130.09348,130.68379,79,55,0
129.52339,130.68379,73,51,0
130.75389,130.89407,80,30,0
130.82397,130.96417,84,34,0
130.68379,130.96417,72,45,0
130.96417,131.24454,73,46,0
131.38472,131.52492,84,35,0
131.31464,131.52492,80,35,0
131.24454,131.52492,74,48,0
131.52492,131.81337,75,49,0
131.74126,131.88219,72,35,0
131.88219,132.01979,84,38,0
131.81337,132.08861,80,53,0
132.08861,132.36383,79,49,0
132.4381,132.58661,80,35,0
132.51234,132.66086,84,35,0
132.36383,132.66086,77,49,0
132.66086,132.95023,76,48,0
132.95023,133.0924,72,31,0
133.02132,133.1635,80,31,0
133.0924,133.23459,84,31,0
133.51895,133.66112,72,31,0
133.59003,133.73221,80,31,0
133.66112,133.8033,84,31,0
132.95023,134.09511,75,47,0
134.09511,134.36783,73,41,0
134.02693,134.36783,79,26,0
133.95874,134.36783,82,26,0
134.36783,134.5042,72,40,0
134.64056,134.91328,70,39,0
134.57239,134.91328,75,26,0
134.5042,134.91328,79,26,0
134.91328,135.04965,72,40,0
135.18602,135.45874,73,42,0
135.11784,135.45874,77,25,0
135.04965,135.45874,80,25,0
135.45874,135.59511,72,42,0
135.73148,136.0042,70,41,0
135.66328,136.0042,73,26,0
135.59511,136.0042,77,26,0
136.0042,136.14056,68,40,0
136.27693,136.54965,67,42,0
136.20874,136.54965,70,25,0
136.14056,136.54965,75,25,0
136.54965,136.68602,65,41,0
136.82239,137.09511,63,40,0
136.7542,137.09511,70,24,0
136.68602,137.09511,73,24,0
137.09511,137.23148,65,41,0
137.36972,137.64622,67,44,0
137.3006,137.64622,73,28,0
137.23148,137.64622,75,28,0
137.64622,137.78447,70,40,0
137.92271,138.19922,65,42,0
137.85359,138.19922,73,26,0
137.78447,138.19922,75,26,0
138.19922,138.33746,68,38,0
138.47571,138.76558,63,40,0
138.40659,138.76558,72,26,0
138.33746,138.76558,75,26,0
138.76558,138.91228,67,35,0
139.06006,139.36006,61,39,0
138.98604,139.36006,70,25,0
138.91228,139.36006,75,25,0
139.36006,139.51006,65,33,0
139.72678,139.86896,68,30,0
139.79787,139.94005,72,30,0
139.65569,139.94005,60,39,0
139.94005,140.22441,61,39,0
140.2955,140.43768,68,30,0
140.3666,140.50877,72,30,0
140.22441,140.50877,62,39,0
140.50877,140.79312,63,41,0
140.86388,141.00539,72,44,0
140.93463,141.07614,75,33,0
140.79312,141.07614,60,39,0
141.07614,141.35916,68,42,0
141.43094,141.57448,72,33,0
141.5027,141.64626,75,33,0
141.35916,141.64626,65,40,0
141.64626,141.93333,64,39,0
142.15178,142.2246,72,35,0
141.93333,142.2246,60,42,0
142.00615,142.2246,63,35,0
142.07896,142.2246,67,35,0
142.2246,142.51585,61,42,0
142.2246,142.51585,70,42,0
142.2246,142.51585,73,42,0
142.51585,142.80711,71,49,0
142.51585,142.80711,74,49,0
142.51585,142.80711,62,49,0
142.80711,143.09837,63,53,0
142.80711,143.09837,72,53,0
142.80711,143.09837,75,53,0
143.09837,143.4125,75,63,0
143.09837,143.4125,78,63,0
143.09837,143.4125,87,63,0
143.4125,143.72665,80,50,0
143.4125,143.72665,72,50,0
143.4125,143.72665,84,50,0
143.72665,144.02664,68,46,0
143.72665,144.02664,77,46,0
143.72665,144.02664,80,46,0
144.02664,144.32664,66,42,0
144.02664,144.32664,75,42,0
144.02664,144.32664,78,42,0
144.32664,144.91779,73,41,0
144.32664,144.91779,65,41,0
144.32664,144.91779,77,41,0
144.91779,145.50891,64,39,0
144.91779,145.50891,76,39,0
144.91779,145.50891,73,39,0
145.50891,146.69118,75,35,0
145.50891,146.69118,72,35,0
145.50891,146.69118,63,35,0
146.69118,147.33983,63,31,0
146.69118,147.33983,56,31,0
146.69118,147.33983,68,31,0
147.33983,148.07602,67,30,0
147.33983,148.07602,63,30,0
147.33983,148.07602,55,30,0
148.07602,149.54842,66,25,0
148.07602,149.54842,54,25,0
148.07602,149.54842,63,25,0
149.54842,150.14275,67,35,0
149.54842,150.14275,72,35,0
149.54842,150.14275,79,35,0
150.14275,150.73387,67,31,0
150.14275,150.73387,74,31,0
150.14275,150.73387,79,31,0
150.73387,151.32323,67,35,0
150.73387,151.32323,79,35,0
150.73387,151.32323,75,35,0
151.32323,151.92326,67,33,0
151.32323,151.92326,74,33,0
151.32323,151.92326,79,33,0
152.11934,152.31541,75,35,0
152.31541,152.52055,77,35,0
151.92326,152.52055,67,39,0
151.92326,152.52055,79,39,0
152.52055,153.11461,79,36,0
152.52055,153.11461,67,36,0
152.52055,153.11461,74,36,0
153.11461,153.31662,75,37,0
153.31662,153.51865,72,34,0
153.51865,153.72067,73,34,0
153.11461,153.72067,67,37,0
153.11461,153.72067,79,37,0
153.72067,154.37283,79,36,0
153.72067,154.37283,67,36,0
153.72067,154.37283,70,36,0
154.37283,154.56892,72,52,0
154.37283,154.56892,84,52,0
154.56892,154.765,80,48,0
154.765,154.96107,82,48,0
154.765,154.96107,70,48,0
154.96107,155.54932,79,53,0
155.54932,155.74255,84,50,0
155.54932,155.74255,72,50,0
155.74255,155.93579,80,44,0
155.93579,156.12903,70,48,0
155.93579,156.12903,82,48,0
156.12903,156.32225,79,40,0
156.32225,156.51549,80,44,0
156.32225,156.51549,68,44,0
156.51549,156.70872,77,42,0
156.70872,156.90482,66,45,0
156.70872,156.90482,78,45,0
156.90482,157.10089,75,45,0
157.10089,157.29697,78,45,0
157.10089,157.29697,66,45,0
157.29697,157.90688,79,41,0
157.29697,157.90688,74,41,0
157.29697,157.90688,67,41,0
157.90688,158.10199,69,48,0
157.90688,158.10199,81,48,0
158.10199,158.29712,75,48,0
158.29712,158.49223,81,48,0
158.29712,158.49223,69,48,0
158.49223,159.10138,74,45,0
158.49223,159.10138,79,45,0
158.49223,159.10138,67,45,0
159.10138,159.2965,84,61,0
159.10138,159.2965,72,61,0
159.2965,159.49162,79,59,0
159.49162,159.68674,84,59,0
159.49162,159.68674,72,59,0
159.68674,160.28317,74,58,0
159.68674,160.28317,79,58,0
159.68674,160.28317,86,58,0
160.28317,160.47829,76,69,0
160.28317,160.47829,88,69,0
160.47829,160.67342,79,66,0
160.67342,160.86853,88,66,0
160.67342,160.86853,76,66,0
160.86853,161.46712,79,69,0
160.86853,161.46712,86,69,0
160.86853,161.46712,74,69,0
161.46712,161.66223,91,80,0
161.46712,161.66223,79,80,0
161.66223,161.85736,88,77,0
161.85736,162.05247,77,65,0
161.85736,162.05247,89,77,0
162.05247,162.65663,67,70,0
162.05247,162.65663,62,70,0
162.05247,162.65663,74,70,0
162.65663,162.85175,76,74,0
162.65663,162.85175,88,88,0
162.85175,163.04688,79,84,0
163.04688,163.24199,74,71,0
163.04688,163.24199,86,84,0
163.24199,163.82736,58,67,0
163.24199,163.82736,64,79,0
163.24199,163.82736,70,79,0
163.82736,164.01428,84,92,0
163.82736,164.01428,72,78,0
164.01428,164.10773,81,88,0
164.01428,164.10773,77,74,0
164.20119,164.3497,84,88,0
164.20119,164.3497,72,74,0
164.39922,164.98457,79,92,0
164.39922,164.98457,67,78,0
164.39922,164.98457,76,92,0
164.98457,165.17238,81,91,0
164.98457,165.17238,69,77,0
165.17238,165.26627,74,73,0
165.17238,165.26627,77,86,0
165.36017,165.51093,81,86,0
165.36017,165.51093,69,73,0
165.56117,166.14653,76,92,0
165.56117,166.14653,64,78,0
165.56117,166.14653,72,92,0
166.14653,166.34593,79,92,0
166.14653,166.34593,67,78,0
166.34593,166.54593,76,83,0
166.34593,166.54593,72,70,0
166.54593,166.73352,67,78,0
166.54593,166.73352,79,92,0
166.73352,166.91452,77,83,0
166.73352,166.91452,74,70,0
166.91452,167.09201,79,92,0
166.91452,167.09201,67,78,0
167.09201,167.269,72,70,0
167.09201,167.269,76,83,0
167.269,167.45233,67,78,0
167.269,167.45233,79,92,0
167.45233,167.63658,72,86,0
167.45233,167.63658,69,73,0
167.63658,167.82083,79,86,0
167.63658,167.82083,67,73,0
167.82083,168.40187,79,92,0
167.82083,168.40187,74,77,0
167.82083,168.40187,67,69,0
167.82083,168.40187,71,76,0
168.40187,168.59796,84,89,0
168.40187,168.59796,72,75,0
168.59796,168.79404,79,59,0
168.59796,168.79404,83,70,0
168.79404,168.97585,84,79,0
168.79404,168.97585,72,67,0
168.97585,169.15767,81,62,0
168.97585,169.15767,77,52,0
169.15767,169.3395,84,78,0
169.15767,169.3395,72,66,0
169.3395,169.5213,79,62,0
169.3395,169.5213,76,52,0
169.5213,169.71123,69,72,0
169.5213,169.71123,81,85,0
169.71123,169.90114,79,70,0
169.71123,169.90114,76,59,0
169.90114,170.07971,81,79,0
169.90114,170.07971,69,67,0
170.07971,170.25829,74,53,0
170.07971,170.25829,77,63,0
170.25829,170.43684,69,68,0
170.25829,170.43684,81,80,0
170.43684,170.61542,76,61,0
170.43684,170.61542,72,51,0
170.61542,170.7941,79,88,0
170.61542,170.7941,67,74,0
170.7941,170.97551,74,59,0
170.7941,170.97551,77,70,0
170.97551,171.15974,79,85,0
170.97551,171.15974,67,72,0
171.15974,171.34698,76,66,0
171.15974,171.34698,72,56,0
171.34698,171.53761,67,70,0
171.34698,171.53761,79,83,0
171.53761,171.74283,72,66,0
171.53761,171.74283,69,56,0
171.74283,172.395,79,92,0
171.74283,172.395,67,66,0
171.74283,172.395,72,66,0
171.74283,172.395,76,92,0
172.395,172.57043,74,79,0
172.395,172.57043,79,89,0
172.395,172.57043,67,62,0
172.395,172.57043,71,70,0
173.38316,173.5288,55,37,0
173.38316,173.5288,60,37,0
173.38316,173.5288,64,37,0
173.67442,173.82007,62,37,0
173.67442,173.82007,59,37,0
173.67442,173.82007,55,37,0
173.9657,174.11133,55,35,0
173.9657,174.11133,60,35,0
173.9657,174.11133,64,35,0
174.54132,174.6835,57,37,0
174.54132,174.6835,60,37,0
174.54132,174.6835,65,37,0
174.82567,174.96785,55,37,0
174.82567,174.96785,64,37,0
174.82567,174.96785,60,37,0
175.11003,175.25221,62,35,0
175.11003,175.25221,57,35,0
175.11003,175.25221,60,35,0
175.67477,175.81496,64,37,0
175.67477,175.81496,60,37,0
175.67477,175.81496,55,37,0
175.95514,176.09534,53,37,0
175.95514,176.09534,59,37,0
175.95514,176.09534,62,37,0
176.23552,176.3757,60,35,0
176.23552,176.3757,52,35,0
176.51588,176.65608,62,37,0
176.51588,176.65608,50,37,0
176.51588,176.65608,59,37,0
176.79626,176.93645,55,37,0
177.35701,177.4972,48,37,0
177.35701,177.4972,57,37,0
177.35701,177.4972,60,37,0
177.91136,178.04834,71,37,0
177.91136,178.04834,67,37,0
177.91136,178.04834,60,37,0
177.91136,178.04834,72,37,0
178.4593,178.59628,72,37,0
178.4593,178.59628,84,37,0
178.4593,178.59628,81,37,0
178.4593,178.59628,77,37,0
179.00725,179.14424,79,36,0
179.00725,179.14424,84,36,0
179.00725,179.14424,76,36,0
179.28122,179.41821,74,37,0
179.28122,179.41821,79,37,0
179.28122,179.41821,83,37,0
179.55519,179.69218,84,35,0
179.55519,179.69218,79,35,0
179.55519,179.69218,76,35,0
180.10313,180.24013,88,35,0
180.10313,180.24013,84,35,0
180.10313,180.24013,81,35,0
180.3771,180.5141,77,37,0
180.3771,180.5141,81,37,0
180.3771,180.5141,86,37,0
180.65108,180.78807,81,35,0
180.65108,180.78807,84,35,0
180.65108,180.78807,76,35,0
181.19904,181.33601,76,35,0
181.19904,181.33601,79,35,0
181.19904,181.33601,83,35,0
181.473,181.60999,72,37,0
181.473,181.60999,76,37,0
181.473,181.60999,81,37,0
181.74698,181.88396,71,35,0
181.74698,181.88396,76,35,0
181.74698,181.88396,79,35,0
182.02095,182.15984,78,39,0
182.02095,182.15984,75,39,0
182.02095,182.15984,66,39,0
182.29872,182.4376,71,37,0
182.85428,182.99316,76,37,0
183.41508,183.5566,64,28,0
183.41508,183.5566,75,28,0
183.41508,183.5566,76,28,0
183.98795,184.13287,52,27,0
183.98795,184.13287,62,27,0
183.98795,184.13287,64,27,0
184.55304,184.69066,64,28,0
184.55304,184.69066,60,28,0
184.55304,184.69066,55,28,0
184.82826,184.96588,55,29,0
184.82826,184.96588,59,29,0
184.82826,184.96588,62,29,0
185.1035,185.2411,60,27,0
185.1035,185.2411,64,27,0
185.1035,185.2411,55,27,0
185.65396,185.79156,57,35,0
185.65396,185.79156,60,35,0
185.65396,185.79156,65,35,0
185.92918,186.0668,60,35,0
185.92918,186.0668,55,35,0
185.92918,186.0668,64,35,0
186.2044,186.34203,60,33,0
186.2044,186.34203,57,33,0
186.2044,186.34203,62,33,0
186.74991,186.88506,55,33,0
186.74991,186.88506,60,33,0
186.74991,186.88506,64,33,0
187.02019,187.15532,59,33,0
187.02019,187.15532,62,33,0
187.02019,187.15532,53,33,0
187.29045,187.42558,60,31,0
187.29045,187.42558,52,31,0
187.56073,187.70026,59,31,0
187.56073,187.70026,62,31,0
187.56073,187.70026,50,31,0
187.8398,187.97932,55,30,0
188.39793,188.53748,48,30,0
188.39793,188.53748,60,30,0
188.96686,189.11179,60,26,0
188.96686,189.11179,70,26,0
188.96686,189.11179,72,26,0
189.56128,189.71356,72,24,0
189.56128,189.71356,80,24,0
189.56128,189.71356,84,24,0
190.17043,190.4631,75,29,0
190.17043,190.4631,84,29,0
190.4631,190.75578,74,29,0
190.4631,190.75578,83,29,0
190.75578,191.04846,84,28,0
190.75578,191.04846,75,28,0
190.17043,191.04846,79,29,0
191.34116,191.61513,75,26,0
191.34116,191.61513,79,26,0
191.61513,191.8891,77,26,0
191.61513,191.8891,74,26,0
191.8891,192.16307,79,25,0
191.8891,192.16307,75,25,0
191.34116,192.16307,72,26,0
192.43704,192.7049,72,26,0
192.43704,192.7049,75,26,0
192.7049,192.97276,74,26,0
192.7049,192.97276,71,26,0
192.97276,193.24062,75,26,0
192.97276,193.24062,72,26,0
192.43704,193.24062,67,26,0
193.24062,193.79108,68,29,0
193.24062,193.79108,72,29,0
193.79108,194.34154,72,27,0
193.79108,194.34154,65,27,0
193.79108,194.34154,68,27,0
194.34154,194.92406,60,26,0
194.34154,194.92406,68,26,0
194.34154,194.92406,72,26,0
194.92406,195.50658,73,25,0
194.92406,195.50658,65,25,0
195.80658,196.08827,77,29,0
195.80658,196.08827,86,29,0
196.08827,196.36996,75,29,0
196.08827,196.36996,84,29,0
196.36996,196.65164,86,27,0
196.36996,196.65164,77,27,0
195.80658,196.65164,80,29,0
196.93333,197.2073,79,26,0
196.93333,197.2073,82,26,0
197.2073,197.48128,80,26,0
197.2073,197.48128,77,26,0
197.48128,197.75526,79,26,0
197.48128,197.75526,82,26,0
196.93333,197.75526,74,26,0
198.02924,198.29709,75,26,0
198.02924,198.29709,79,26,0
198.29709,198.56494,74,26,0
198.29709,198.56494,77,26,0
198.56494,198.8328,79,26,0
198.56494,198.8328,75,26,0
198.02924,198.8328,70,26,0
198.8328,199.38326,72,29,0
198.8328,199.38326,75,29,0
199.38326,199.93372,72,27,0
199.38326,199.93372,75,27,0
199.38326,199.93372,68,27,0
199.93372,200.50244,63,26,0
199.93372,200.50244,75,26,0
199.93372,200.50244,72,26,0
200.50244,201.07115,77,25,0
200.50244,201.07115,68,25,0
201.36385,201.64162,82,29,0
201.36385,201.64162,91,29,0
201.64162,201.9194,80,29,0
201.64162,201.9194,89,29,0
201.9194,202.19717,91,27,0
201.9194,202.19717,82,27,0
201.36385,202.19717,86,29,0
202.47496,202.74893,87,26,0
202.47496,202.74893,84,26,0
202.74893,203.0229,86,26,0
202.74893,203.0229,82,26,0
203.0229,203.29688,84,26,0
203.0229,203.29688,87,26,0
202.47496,203.29688,79,26,0
203.57085,203.8387,80,26,0
203.57085,203.8387,84,26,0
203.8387,204.10655,79,26,0
203.8387,204.10655,82,26,0
204.10655,204.37442,84,26,0
204.10655,204.37442,80,26,0
203.57085,204.37442,75,26,0
204.37442,204.92487,77,30,0
204.37442,204.92487,80,30,0
204.92487,205.47533,77,30,0
204.92487,205.47533,74,30,0
204.92487,205.47533,80,30,0
205.47533,206.02579,68,30,0
205.47533,206.02579,80,30,0
205.47533,206.02579,77,30,0
206.02579,206.57625,80,30,0
206.02579,206.57625,74,30,0
206.57625,207.12671,81,29,0
206.57625,207.12671,72,29,0
206.57625,207.12671,75,29,0
206.57625,207.12671,78,29,0
207.12671,207.67717,75,28,0
207.12671,207.67717,78,28,0
207.12671,207.67717,81,28,0
207.12671,207.67717,72,28,0
207.67717,208.22763,81,30,0
207.67717,208.22763,72,30,0
207.67717,208.22763,75,30,0
207.67717,208.22763,78,30,0
208.22763,208.77809,81,30,0
208.22763,208.77809,78,30,0
208.22763,208.77809,72,30,0
208.22763,208.77809,75,30,0
209.29982,209.43027,87,31,0
209.43027,209.5607,84,30,0
209.5607,209.69113,81,34,0
209.69113,209.82156,78,34,0
209.82156,209.952,72,37,0
209.952,210.08243,69,36,0
210.08243,210.21288,66,39,0
210.21288,210.3433,63,38,0
214.70134,214.83177,101,45,0
214.83177,214.96222,98,41,0
214.96222,215.09265,89,35,0
215.09265,215.22308,85,33,0
215.22308,215.35352,86,35,0
215.35352,215.48395,82,33,0
215.48395,215.6144,74,35,0
215.6144,215.74483,69,35,0
215.74483,215.87526,70,35,0
215.87526,216.00569,65,33,0
216.00569,216.13612,62,35,0
216.13612,216.26656,60,33,0
220.24944,220.37987,102,48,0
220.37987,220.51031,99,35,0
220.51031,220.64075,90,35,0
220.64075,220.77118,86,31,0
220.77118,220.90161,87,35,0
220.90161,221.03204,83,33,0
221.03204,221.16249,75,35,0
221.16249,221.29292,70,35,0
221.29292,221.42336,71,35,0
221.42336,221.55379,66,33,0
221.55379,221.68422,63,35,0
221.68422,221.81465,61,33,0
225.72833,225.85876,104,52,0
225.85876,225.9892,101,35,0
225.9892,226.11963,92,35,0
226.11963,226.25006,88,34,0
226.25006,226.3805,89,35,0
226.3805,226.51094,85,34,0
226.51094,226.64137,77,35,0
226.64137,226.7718,72,33,0
226.7718,226.90224,73,35,0
226.90224,227.03267,68,34,0
227.03267,227.1631,65,35,0
227.1631,227.29355,63,34,0
227.81528,228.34862,61,41,0
227.81528,228.34862,73,41,0
228.34862,228.88194,70,41,0
228.34862,228.88194,61,41,0
228.34862,228.88194,73,41,0
228.88194,229.41568,78,52,0
228.88194,229.41568,70,52,0
228.88194,229.41568,66,52,0
228.88194,229.41568,75,52,0
229.41568,229.95866,75,57,0
229.41568,229.95866,66,57,0
229.41568,229.95866,78,57,0
229.41568,229.95866,71,57,0
229.95866,230.51422,71,63,0
229.95866,230.51422,83,63,0
229.95866,230.51422,80,63,0
229.95866,230.51422,75,63,0
231.03596,231.1664,101,70,0
231.1664,231.29683,98,56,0
231.29683,231.42726,89,56,0
231.42726,231.55771,86,53,0
230.51422,231.55771,82,63,0
230.51422,231.55771,70,63,0
230.51422,231.55771,74,63,0
230.51422,231.55771,77,63,0
231.55771,231.68814,82,56,0
231.68814,231.81857,74,53,0
231.81857,232.0913,70,56,0
232.0913,232.61304,78,62,0
232.0913,232.61304,82,62,0
232.0913,232.61304,90,62,0
232.0913,232.61304,87,62,0
233.13478,233.65652,65,57,0
232.61304,233.65652,77,62,0
233.13478,233.65652,77,57,0
232.61304,233.65652,86,62,0
232.61304,233.65652,89,62,0
232.61304,233.65652,82,62,0
233.13478,234.19011,74,57,0
233.13478,234.19011,70,57,0
234.19011,234.71185,75,67,0
234.19011,234.71185,87,67,0
234.19011,234.71185,83,67,0
234.19011,234.71185,78,67,0
235.2336,235.36403,104,72,0
235.36403,235.49446,101,68,0
235.49446,235.6249,92,68,0
235.6249,235.75533,89,66,0
234.71185,235.75533,77,67,0
234.71185,235.75533,73,67,0
234.71185,235.75533,85,67,0
234.71185,235.75533,80,67,0
235.75533,235.88577,85,68,0
235.88577,236.0162,77,67,0
236.0162,236.27707,73,68,0
236.27707,236.80571,82,69,0
236.27707,236.80571,94,76,0
236.27707,236.80571,90,76,0
236.27707,236.80571,85,69,0
236.80571,237.85608,92,76,0
236.80571,237.85608,89,76,0
236.80571,237.85608,85,69,0
236.80571,237.85608,80,69,0
237.33434,237.85608,80,73,0
237.33434,238.37782,68,73,0
237.33434,238.37782,73,73,0
237.33434,238.37782,77,73,0
238.37782,238.90878,68,66,0
238.37782,239.43976,73,66,0
238.37782,239.43976,76,66,0
238.37782,239.43976,80,66,0
239.43976,239.97073,88,79,0
239.43976,239.97073,80,79,0
239.43976,239.97073,92,88,0
239.43976,239.97073,85,79,0
239.97073,240.50171,90,88,0
239.97073,240.50171,78,79,0
239.97073,240.50171,82,79,0
239.97073,240.50171,85,79,0
240.50171,241.03635,82,79,0
240.50171,241.03635,89,88,0
240.50171,241.03635,85,79,0
240.50171,241.03635,77,79,0
241.03635,241.5818,88,92,0
241.03635,241.5818,76,82,0
241.03635,241.5818,82,82,0
241.03635,241.5818,85,82,0
241.5818,242.12726,83,84,0
241.5818,242.12726,75,84,0
241.5818,242.12726,87,94,0
242.12726,242.6854,75,88,0
242.12726,242.6854,82,88,0
242.12726,242.6854,87,97,0
242.6854,243.26299,81,89,0
242.6854,243.26299,87,100,0
242.6854,243.26299,75,89,0
243.26299,243.6733,75,91,0
243.26299,243.6733,82,91,0
243.26299,243.6733,87,102,0
243.26299,243.6733,79,91,0
243.81007,243.95929,74,75,0
243.81007,243.95929,65,75,0
243.81007,243.95929,77,84,0
243.81007,243.95929,70,75,0
244.10849,244.2577,79,83,0
244.10849,244.2577,67,74,0
244.10849,244.2577,70,74,0
244.10849,244.2577,75,83,0
244.4069,244.92662,72,85,0
244.4069,244.92662,80,95,0
244.4069,244.92662,75,85,0
244.4069,244.92662,68,85,0
244.92662,245.07368,79,83,0
244.92662,245.07368,67,74,0
244.92662,245.07368,70,74,0
244.92662,245.07368,75,74,0
245.22073,245.3678,77,82,0
245.22073,245.3678,75,73,0
245.22073,245.3678,65,73,0
245.22073,245.3678,72,73,0
245.51485,246.03456,79,95,0
245.51485,246.03456,67,85,0
245.51485,246.03456,70,85,0
245.51485,246.03456,75,85,0
246.03456,246.17949,68,79,0
246.03456,246.17949,74,88,0
246.03456,246.17949,77,88,0
246.03456,246.17949,65,79,0
246.32442,246.46935,75,83,0
246.32442,246.46935,63,74,0
246.32442,246.46935,67,74,0
246.32442,246.46935,70,74,0
246.61427,246.75125,74,73,0
246.61427,246.75125,65,73,0
246.61427,246.75125,77,82,0
246.88824,247.03603,70,79,0
247.1838,247.76633,75,93,0
247.1838,247.76633,72,93,0
247.1838,247.76633,63,83,0
247.76633,248.34326,63,78,0
247.76633,248.34326,75,86,0
247.76633,248.34326,70,78,0
247.76633,248.34326,74,86,0
248.34326,248.84088,75,85,0
248.34326,248.84088,63,77,0
248.34326,248.84088,68,77,0
248.34326,248.84088,72,85,0
248.91197,249.47067,70,88,0
248.91197,249.47067,75,88,0
248.91197,249.47067,63,79,0
248.91197,249.47067,67,79,0
249.47067,249.61353,74,92,0
249.47067,249.61353,62,82,0
249.47067,249.61353,65,82,0
249.47067,249.61353,70,82,0
249.75638,249.90344,67,79,0
249.75638,249.90344,70,79,0
249.75638,249.90344,75,88,0
249.75638,249.90344,63,79,0
250.0505,250.58383,67,86,0
250.0505,250.58383,72,86,0
250.0505,250.58383,75,86,0
250.0505,250.58383,79,96,0
250.58383,250.72534,77,91,0
250.58383,250.72534,72,81,0
250.58383,250.72534,65,81,0
250.58383,250.72534,68,81,0
250.86685,251.01248,72,80,0
250.86685,251.01248,63,80,0
250.86685,251.01248,67,80,0
250.86685,251.01248,75,90,0
251.15811,251.68909,74,94,0
251.15811,251.68909,70,84,0
251.15811,251.68909,67,84,0
251.15811,251.68909,62,84,0
251.68909,251.82362,72,84,0
251.68909,251.82362,60,75,0
251.68909,251.82362,63,75,0
251.68909,251.82362,67,75,0
251.95815,252.09268,70,81,0
251.95815,252.09268,62,72,0
251.95815,252.09268,58,72,0
251.95815,252.09268,67,81,0
252.2272,252.36739,66,84,0
252.2272,252.36739,69,84,0
252.2272,252.36739,57,75,0
252.50758,252.64777,62,80,0
252.78795,253.32607,55,80,0
252.78795,253.32607,67,90,0
253.32607,253.88239,67,88,0
253.32607,253.88239,66,88,0
253.32607,253.88239,55,79,0
253.88239,254.3769,65,82,0
253.88239,254.3769,55,73,0
253.88239,254.3769,67,82,0
254.44823,254.96793,79,74,0
254.44823,254.96793,67,67,0
254.44823,254.96793,70,67,0
254.44823,254.96793,75,67,0
254.96793,255.22778,70,59,0
254.96793,255.22778,74,59,0
254.96793,255.22778,77,67,0
254.96793,255.22778,65,59,0
255.22778,255.50948,79,72,0
255.22778,255.50948,67,64,0
255.22778,255.50948,70,64,0
255.22778,255.50948,75,64,0
255.50948,256.02917,80,79,0
255.50948,256.02917,75,70,0
255.50948,256.02917,68,70,0
255.50948,256.02917,72,70,0
256.02917,256.28903,75,60,0
256.02917,256.28903,67,60,0
256.02917,256.28903,70,60,0
256.02917,256.28903,79,68,0
256.28903,256.5694,75,62,0
256.28903,256.5694,77,70,0
256.28903,256.5694,72,62,0
256.28903,256.5694,65,62,0
256.5694,257.0891,79,74,0
256.5694,257.0891,67,67,0
256.5694,257.0891,70,67,0
256.5694,257.0891,75,67,0
257.0891,257.3545,77,73,0
257.0891,257.3545,68,66,0
257.0891,257.3545,65,66,0
257.0891,257.3545,74,66,0
257.3545,257.6199,70,63,0
257.3545,257.6199,63,63,0
257.3545,257.6199,75,71,0
257.3545,257.6199,67,63,0
257.6199,257.88895,77,72,0
257.6199,257.88895,65,64,0
257.6199,257.88895,74,72,0
257.88895,258.15802,70,70,0
258.15802,258.70993,75,80,0
258.15802,258.70993,63,80,0
258.70993,259.2901,63,74,0
258.70993,259.2901,73,83,0
258.70993,259.2901,75,83,0
259.2901,259.83313,75,89,0
259.2901,259.83313,70,89,0
259.2901,259.83313,63,79,0
259.9107,260.44376,87,90,0
259.9107,260.44376,80,90,0
259.9107,260.44376,83,90,0
259.9107,260.44376,92,101,0
260.44376,260.58075,74,83,0
260.44376,260.58075,82,93,0
260.44376,260.58075,86,93,0
260.7177,260.86142,75,80,0
260.7177,260.86142,83,90,0
260.7177,260.86142,87,90,0
261.00513,261.53818,71,89,0
261.00513,261.53818,80,89,0
261.00513,261.53818,83,100,0
261.00513,261.53818,76,89,0
261.53818,261.68173,75,79,0
261.53818,261.68173,67,79,0
261.53818,261.68173,79,88,0
261.82526,261.9688,76,77,0
261.82526,261.9688,80,85,0
261.82526,261.9688,68,77,0
262.11234,262.6578,64,86,0
262.11234,262.6578,76,96,0
262.11234,262.6578,73,86,0
262.11234,262.6578,68,86,0
262.6578,262.8,68,74,0
262.6578,262.8,72,83,0
262.6578,262.8,60,74,0
262.94217,263.08435,61,74,0
262.94217,263.08435,64,74,0
262.94217,263.08435,73,83,0
263.22653,263.79794,65,81,0
263.22653,263.79794,59,81,0
263.22653,263.79794,71,91,0
263.22653,263.79794,62,81,0
263.79794,263.94946,58,83,0
263.79794,263.94946,63,83,0
264.10098,264.2525,68,92,0
264.10098,264.2525,63,82,0
264.10098,264.2525,59,82,0
263.79794,264.40402,70,93,0
264.40402,264.87033,70,93,0
264.40402,264.87033,66,93,0
264.40402,264.87033,58,83,0
264.40402,264.87033,63,83,0
265.0258,265.4921,65,83,0
265.0258,265.4921,56,83,0
265.0258,265.4921,62,83,0
265.0258,265.4921,70,93,0
265.64755,265.77798,63,93,0
265.64755,265.77798,54,83,0
265.64755,265.77798,58,83,0
266.03885,266.16928,70,67,0
266.03885,266.16928,82,79,0
266.16928,266.2997,65,72,0
266.56058,266.691,78,79,0
266.56058,266.691,66,67,0
266.691,266.82144,63,72,0
267.0823,267.21277,70,69,0
267.0823,267.21277,82,81,0
267.21277,267.3432,65,74,0
267.60406,267.7345,78,81,0
267.60406,267.7345,66,69,0
267.7345,267.86493,63,74,0
268.1258,268.25623,87,86,0
268.1258,268.25623,75,73,0
268.25623,268.38666,65,74,0
268.64752,268.77798,77,69,0
268.64752,268.77798,89,82,0
268.77798,268.90842,66,74,0
269.16928,269.2997,90,82,0
269.16928,269.2997,78,69,0
269.2997,269.43015,69,74,0
269.691,269.82864,81,79,0
269.691,269.82864,93,93,0
269.82864,270.3842,87,74,0
269.82864,270.3842,94,83,0
269.82864,270.3842,82,74,0
269.82864,270.3842,90,74,0
270.3842,270.93973,74,88,0
270.3842,270.93973,68,79,0
270.3842,270.93973,62,79,0
270.3842,270.93973,70,79,0
270.93973,271.0702,75,79,0
270.93973,271.0702,66,70,0
270.93973,271.0702,63,70,0
271.33105,271.4615,71,59,0
271.33105,271.4615,83,71,0
271.4615,271.59192,66,66,0
271.85278,271.98322,67,73,0
271.85278,271.98322,79,73,0
271.98322,272.11365,63,66,0
272.3745,272.50494,71,65,0
272.3745,272.50494,83,77,0
272.50494,272.6354,66,66,0
272.89627,273.0267,67,62,0
272.89627,273.0267,79,74,0
273.0267,273.15714,63,66,0
273.418,273.54843,78,57,0
273.418,273.54843,90,77,0
273.54843,273.67886,65,72,0
273.93973,274.0702,77,60,0
273.93973,274.0702,89,80,0
274.0702,274.20062,63,71,0
274.4615,274.59192,75,60,0
274.4615,274.59192,87,80,0
274.59192,274.72235,57,69,0
274.98322,275.12082,81,78,0
274.98322,275.12082,93,86,0
275.12082,275.65417,82,73,0
275.12082,275.65417,94,82,0
275.12082,275.65417,90,73,0
275.12082,275.65417,87,73,0
275.65417,276.1875,83,78,0
275.65417,276.1875,87,78,0
275.65417,276.1875,75,71,0
275.65417,276.1875,80,71,0
276.1875,276.72083,75,74,0
276.1875,276.72083,63,66,0
276.1875,276.72083,69,66,0
276.1875,276.72083,72,66,0
276.72083,277.25415,70,71,0
276.72083,277.25415,56,63,0
276.72083,277.25415,62,63,0
276.72083,277.25415,65,63,0
276.72083,277.25415,58,63,0
279.22147,279.30243,63,53,0
279.3834,279.46436,62,51,0
279.54535,279.62598,63,53,0
279.70663,279.7873,65,53,0
279.86792,279.9484,63,51,0
280.02872,280.10904,62,53,0
280.18936,280.26968,66,56,0
280.3497,280.4297,65,53,0
280.3497,280.4297,62,53,0
280.5097,280.5897,66,56,0
280.5097,280.5897,63,56,0
280.66962,280.7493,68,56,0
280.82898,280.90866,63,52,0
280.82898,280.90866,66,52,0
280.98834,281.06778,62,56,0
280.98834,281.06778,65,56,0
281.14716,281.2265,75,66,0
281.30588,281.38516,74,63,0
281.30588,281.38516,86,63,0
281.4642,281.54327,87,66,0
281.4642,281.54327,75,66,0
281.6223,281.70135,77,66,0
281.78018,281.85892,75,63,0
281.78018,281.85892,87,63,0
281.93765,282.01642,89,66,0
281.93765,282.01642,77,66,0
282.09506,282.1735,78,77,0
282.25192,282.33035,89,74,0
282.25192,282.33035,77,74,0
282.40878,282.4872,78,77,0
282.40878,282.4872,90,77,0
282.56564,282.6441,80,85,0
282.72253,282.80096,78,83,0
282.72253,282.80096,90,83,0
282.8794,282.95782,89,85,0
282.8794,282.95782,77,85,0
283.03625,283.12027,78,78,0
283.03625,283.12027,87,78,0
283.03625,283.12027,82,78,0
283.03625,283.12027,90,86,0
283.2043,283.28836,89,84,0
283.2043,283.28836,77,84,0
283.37238,283.45642,90,86,0
283.37238,283.45642,78,86,0
283.54044,283.62448,80,78,0
283.54044,283.62448,87,78,0
283.54044,283.62448,83,78,0
283.54044,283.62448,92,86,0
283.70853,283.79254,90,83,0
283.70853,283.79254,78,83,0
283.8766,283.9606,77,86,0
283.8766,283.9606,89,86,0
284.04465,284.1287,82,79,0
284.04465,284.1287,90,88,0
284.04465,284.1287,87,79,0
284.04465,284.1287,78,79,0
284.2127,284.29675,89,85,0
284.2127,284.29675,77,85,0
284.3808,284.4648,78,88,0
284.3808,284.4648,90,88,0
284.54886,284.63287,80,79,0
284.54886,284.63287,83,79,0
284.54886,284.63287,87,79,0
284.54886,284.63287,92,88,0
284.71692,284.80096,78,85,0
284.71692,284.80096,90,85,0
284.88498,284.96902,89,88,0
284.88498,284.96902,77,88,0
285.05304,285.14194,78,79,0
285.05304,285.14194,82,79,0
285.05304,285.14194,87,79,0
285.05304,285.14194,90,88,0
285.23083,285.31973,89,85,0
285.23083,285.31973,77,85,0
285.4086,285.4975,87,88,0
285.4086,285.4975,75,88,0
285.5864,285.67526,78,79,0
285.5864,285.67526,87,79,0
285.5864,285.67526,83,79,0
285.5864,285.67526,90,88,0
285.76416,285.85306,77,85,0
285.76416,285.85306,89,85,0
285.94196,286.03082,75,88,0
285.94196,286.03082,87,88,0
286.11972,286.21542,81,79,0
286.11972,286.21542,87,79,0
286.11972,286.21542,90,89,0
286.11972,286.21542,78,79,0
286.11972,286.21542,84,79,0
286.3111,286.4068,77,85,0
286.3111,286.4068,89,85,0
286.5025,286.59818,75,89,0
286.5025,286.59818,87,89,0
286.69388,286.79242,77,79,0
286.69388,286.79242,82,79,0
286.69388,286.79242,89,89,0
286.69388,286.79242,86,79,0
286.98944,287.10056,82,92,0
286.98944,287.10056,70,92,0
287.32278,287.55267,87,101,0
287.32278,287.55267,75,101,0
288.01245,288.6185,75,86,0
288.01245,288.6185,78,86,0
288.01245,288.6185,83,86,0
288.01245,288.6185,87,96,0
288.6185,289.22455,73,86,0
288.6185,289.22455,85,96,0
288.6185,289.22455,82,86,0
288.6185,289.22455,78,86,0
289.22455,289.83063,75,82,0
289.22455,289.83063,80,82,0
289.22455,289.83063,83,92,0
289.22455,289.83063,71,82,0
289.83063,291.04276,75,86,0
289.83063,291.04276,70,86,0
291.04276,291.36707,75,90,0
291.04276,291.36707,63,80,0
291.04276,291.36707,70,90,0
291.04276,291.36707,66,80,0
291.6914,292.05502,70,80,0
291.6914,292.05502,75,90,0
291.6914,292.05502,63,80,0
291.6914,292.05502,66,80,0
289.83063,292.41867,82,96,0
289.83063,292.41867,78,86,0
292.41867,293.8732,87,75,0
292.41867,293.8732,99,90,0
292.41867,293.8732,94,80,0
292.41867,293.8732,90,76,0
0.0,0.542986,51,70,0
0.0,0.542986,46,62,0
0.0,0.542986,39,62,0
0.542986,0.6893275,46,57,0
0.542986,0.6893275,34,50,0
0.835669,0.9820105,51,57,0
0.835669,0.9820105,39,50,0
1.128352,1.661685,44,70,0
1.128352,1.661685,32,62,0
1.661685,1.8059157,51,55,0
1.661685,1.8059157,39,49,0
1.9501466,2.0943773,44,55,0
1.9501466,2.0943773,32,49,0
2.238608,2.776725,51,70,0
2.238608,2.776725,46,62,0
2.238608,2.776725,39,62,0
2.776725,2.9195824,46,53,0
2.776725,2.9195824,34,48,0
3.0624394,3.2052968,39,53,0
3.0624394,3.2052968,27,48,0
3.348154,3.4845178,46,53,0
3.348154,3.4845178,34,48,0
3.6208816,3.765809,46,48,0
3.6208816,3.765809,58,53,0
3.9107366,4.4688764,51,61,0
3.9107366,4.4688764,39,61,0
4.4688764,5.0118623,51,56,0
4.4688764,5.0118623,58,56,0
4.4688764,5.0118623,62,62,0
5.0118623,5.486975,60,61,0
5.0118623,5.486975,56,55,0
5.0118623,5.486975,51,61,0
5.5548487,6.0905623,51,60,0
5.5548487,6.0905623,46,53,0
5.5548487,6.0905623,39,53,0
6.0905623,6.232072,46,56,0
6.0905623,6.232072,34,49,0
6.3735814,6.515091,51,56,0
6.3735814,6.515091,39,49,0
6.6566005,7.1875734,48,67,0
6.6566005,7.1875734,36,59,0
7.1875734,7.3258224,53,53,0
7.1875734,7.3258224,41,48,0
7.464071,7.6055803,48,53,0
7.464071,7.6055803,36,48,0
7.74709,8.278063,55,59,0
7.74709,8.278063,43,52,0
7.74709,8.278063,46,52,0
7.74709,8.278063,50,52,0
8.278063,8.412592,48,57,0
8.278063,8.412592,36,50,0
8.547121,8.681651,43,56,0
8.547121,8.681651,31,49,0
8.81618,8.950709,38,55,0
8.81618,8.950709,26,49,0
9.085238,9.227419,38,47,0
9.085238,9.227419,50,52,0
9.369598,9.925155,43,61,0
9.369598,9.925155,31,55,0
9.925155,10.493875,43,55,0
9.925155,10.493875,54,61,0
10.493875,10.991505,53,59,0
10.493875,10.991505,43,52,0
11.062594,11.5823,51,70,0
11.062594,11.5823,46,70,0
11.062594,11.5823,39,70,0
11.5823,11.726531,46,56,0
11.5823,11.726531,34,49,0
11.870762,12.014993,51,56,0
11.870762,12.014993,39,49,0
12.159224,12.678929,44,70,0
12.159224,12.678929,32,62,0
12.678929,12.82316,51,56,0
12.678929,12.82316,39,49,0
12.967391,13.111622,44,56,0
12.967391,13.111622,32,49,0
13.255853,13.775558,51,70,0
13.255853,13.775558,46,62,0
13.255853,13.775558,39,62,0
13.775558,13.915746,46,56,0
13.775558,13.915746,34,49,0
14.055932,14.196119,39,53,0
14.055932,14.196119,27,48,0
14.336307,14.473921,46,52,0
14.336307,14.473921,34,47,0
14.611536,14.756463,46,47,0
14.611536,14.756463,58,52,0
14.901391,15.433318,51,66,0
14.901391,15.433318,39,59,0
15.433318,15.974481,49,73,0
15.433318,15.974481,37,66,0
15.433318,15.974481,39,66,0
15.974481,16.490557,47,75,0
15.974481,16.490557,39,68,0
15.974481,16.490557,35,68,0
16.525206,17.058254,46,81,0
16.525206,17.058254,34,72,0
16.525206,17.058254,39,72,0
16.525206,17.058254,42,72,0
17.058254,17.320309,54,74,0
17.058254,17.320309,42,67,0
17.320309,17.607721,51,72,0
17.320309,17.607721,39,64,0
17.607721,18.14077,59,77,0
17.607721,18.14077,47,69,0
17.607721,18.14077,51,69,0
17.607721,18.14077,54,69,0
18.14077,18.413126,51,70,0
18.14077,18.413126,39,62,0
18.413126,18.685482,47,70,0
18.413126,18.685482,35,62,0
18.685482,19.230194,44,66,0
18.685482,19.230194,56,73,0
18.685482,19.230194,51,66,0
18.685482,19.230194,47,66,0
19.230194,19.517605,47,66,0
19.230194,19.517605,35,59,0
19.517605,19.839079,44,66,0
19.517605,19.839079,32,59,0
19.839079,20.482029,51,70,0
19.839079,20.482029,39,62,0
19.839079,20.482029,45,62,0
19.839079,20.482029,48,62,0
20.482029,20.99485,34,56,0
20.482029,20.99485,22,49,0
20.99485,21.507671,34,56,0
20.99485,21.507671,22,49,0
21.507671,22.02049,34,51,0
21.507671,22.02049,22,51,0
22.02049,22.537733,58,66,0
22.02049,22.537733,46,59,0
22.537733,23.08483,58,48,0
22.537733,23.08483,46,42,0
22.537733,23.08483,45,42,0
23.08483,23.631924,58,48,0
23.08483,23.631924,46,42,0
23.08483,23.631924,43,42,0
23.631924,24.17902,58,48,0
23.631924,24.17902,41,42,0
23.631924,24.17902,46,42,0
23.631924,24.17902,57,48,0
24.17902,24.752653,58,51,0
24.17902,24.752653,39,46,0
24.17902,24.752653,46,46,0
24.17902,24.752653,55,51,0
24.752653,25.379284,60,46,0
24.752653,25.379284,51,40,0
24.752653,25.379284,36,40,0
24.752653,25.379284,46,40,0
24.752653,25.379284,57,46,0
25.379284,26.41181,34,40,0
25.898989,26.41181,34,44,0
25.898989,26.41181,22,39,0
26.41181,26.924631,22,39,0
26.41181,26.924631,34,44,0
26.924631,27.437452,34,44,0
25.379284,27.437452,62,46,0
25.379284,27.437452,46,46,0
25.379284,27.437452,53,46,0
26.924631,27.437452,22,39,0
25.379284,27.437452,58,46,0
27.437452,27.956934,58,51,0
27.956934,28.485476,58,52,0
27.956934,28.485476,55,47,0
28.485476,29.02543,55,56,0
28.485476,29.02543,51,49,0
29.02543,29.565388,55,59,0
29.02543,29.565388,51,52,0
29.02543,29.565388,48,52,0
29.565388,30.105345,56,59,0
29.565388,30.105345,44,52,0
29.565388,30.105345,48,52,0
29.565388,30.105345,51,59,0
30.105345,30.732174,53,63,0
30.105345,30.732174,41,57,0
30.105345,30.732174,44,57,0
30.105345,30.732174,48,57,0
31.251879,31.766901,31,43,0
31.766901,32.28192,31,43,0
32.28192,32.796944,31,43,0
30.732174,32.796944,50,62,0
30.732174,32.796944,43,62,0
30.732174,32.796944,47,62,0
30.732174,32.796944,55,70,0
32.796944,33.332657,55,51,0
33.332657,33.86837,55,51,0
33.332657,33.86837,53,51,0
33.86837,34.404083,55,52,0
33.86837,34.404083,51,47,0
34.404083,34.9398,55,56,0
34.404083,34.9398,53,56,0
34.404083,34.9398,50,49,0
34.9398,35.495354,55,59,0
34.9398,35.495354,51,59,0
34.9398,35.495354,48,52,0
35.495354,36.09219,53,62,0
35.495354,36.09219,48,56,0
35.495354,36.09219,41,56,0
36.68903,37.20185,34,44,0
36.68903,37.20185,22,39,0
37.20185,37.714672,34,41,0
37.20185,37.714672,22,41,0
37.714672,38.227493,34,38,0
36.09219,38.227493,53,66,0
36.09219,38.227493,46,59,0
36.09219,38.227493,50,66,0
37.714672,38.227493,22,38,0
38.227493,38.786827,58,51,0
38.786827,39.324463,58,51,0
38.786827,39.324463,54,45,0
39.324463,39.873962,58,54,0
39.324463,39.873962,54,47,0
39.324463,39.873962,51,54,0
39.873962,40.423462,59,60,0
39.873962,40.423462,47,54,0
39.873962,40.423462,51,54,0
39.873962,40.423462,54,60,0
40.423462,40.990463,56,64,0
40.423462,40.990463,44,57,0
40.423462,40.990463,47,57,0
40.423462,40.990463,51,64,0
40.990463,41.598923,52,69,0
40.990463,41.598923,40,61,0
40.990463,41.598923,44,61,0
40.990463,41.598923,47,69,0
42.248554,42.378483,30,67,0
42.378483,42.508408,35,70,0
42.508408,42.638336,39,67,0
41.598923,42.638336,51,69,0
41.598923,42.638336,54,69,0
41.598923,42.638336,47,69,0
42.11863,42.638336,27,70,0
41.598923,42.638336,59,77,0
42.76826,42.898186,47,67,0
42.898186,43.028114,51,70,0
43.028114,43.15804,54,67,0
42.638336,43.15804,42,70,0
43.287968,43.417892,63,67,0
43.417892,43.54782,66,70,0
43.54782,43.677746,71,67,0
43.15804,43.677746,59,70,0
43.677746,44.08807,70,74,0
43.677746,44.08807,58,67,0
43.677746,44.08807,63,67,0
43.677746,44.08807,67,67,0
44.224842,44.37405,46,51,0
44.224842,44.37405,58,58,0
44.523262,44.67247,51,58,0
44.523262,44.67247,39,51,0
44.82168,45.341385,51,62,0
44.82168,45.341385,63,70,0
44.82168,45.341385,60,62,0
44.82168,45.341385,56,62,0
45.341385,45.488445,51,57,0
45.341385,45.488445,39,50,0
45.6355,45.782562,44,57,0
45.6355,45.782562,32,50,0
45.92962,46.449326,51,70,0
45.92962,46.449326,46,62,0
45.92962,46.449326,39,62,0
46.449326,46.594254,46,57,0
46.449326,46.594254,34,50,0
46.73918,46.88411,39,56,0
46.73918,46.88411,27,49,0
47.029037,47.167927,46,55,0
47.029037,47.167927,34,49,0
47.306816,47.451046,46,47,0
47.306816,47.451046,58,52,0
47.595276,48.161316,51,63,0
47.595276,48.161316,39,57,0
48.161316,48.70926,51,56,0
48.161316,48.70926,58,56,0
48.161316,48.70926,62,62,0
48.70926,49.257206,60,61,0
48.70926,49.257206,56,55,0
48.70926,49.257206,51,55,0
49.257206,49.80515,51,60,0
49.257206,49.80515,46,53,0
49.257206,49.80515,39,53,0
49.80515,49.944683,46,60,0
49.80515,49.944683,34,53,0
50.08422,50.231277,51,60,0
50.08422,50.231277,39,53,0
50.378338,50.91167,48,64,0
50.378338,50.91167,36,58,0
50.91167,51.048656,53,58,0
50.91167,51.048656,41,51,0
51.185642,51.331272,48,58,0
51.185642,51.331272,36,51,0
51.476906,52.007877,55,62,0
51.476906,52.007877,50,56,0
51.476906,52.007877,43,56,0
52.007877,52.142406,48,57,0
52.007877,52.142406,36,50,0
52.276936,52.411465,43,57,0
52.276936,52.411465,31,50,0
52.545994,52.684242,38,56,0
52.545994,52.684242,26,49,0
52.82249,52.96074,38,48,0
52.82249,52.96074,50,53,0
53.09837,53.636486,43,52,0
53.09837,53.636486,31,47,0
53.636486,54.192806,43,55,0
53.636486,54.192806,54,61,0
54.192806,54.616234,53,59,0
54.192806,54.616234,43,52,0
54.75864,55.280376,51,59,0
54.75864,55.280376,46,50,0
54.75864,55.280376,39,50,0
55.280376,55.41674,46,55,0
55.280376,55.41674,34,46,0
55.553104,55.69395,51,58,0
55.553104,55.69395,39,49,0
55.834797,56.3545,44,61,0
55.834797,56.3545,32,51,0
56.3545,56.490864,51,57,0
56.3545,56.490864,39,48,0
56.627228,56.767414,44,54,0
56.627228,56.767414,32,45,0
56.907604,57.427307,51,56,0
56.907604,57.427307,46,47,0
56.907604,57.427307,39,47,0
57.427307,57.560005,46,58,0
57.427307,57.560005,34,49,0
57.692703,57.825397,39,47,0
57.692703,57.825397,51,56,0
57.958096,58.09079,46,57,0
57.958096,58.09079,34,48,0
58.223488,58.356186,46,50,0
58.223488,58.356186,58,57,0
58.48888,59.040806,51,56,0
58.48888,59.040806,39,49,0
59.040806,59.620968,50,61,0
59.040806,59.620968,38,55,0
59.040806,59.620968,39,55,0
59.620968,60.24157,48,64,0
59.620968,60.24157,39,58,0
59.620968,60.24157,36,58,0
60.24157,60.77462,43,81,0
60.24157,60.77462,31,72,0
60.24157,60.77462,36,72,0
60.24157,60.77462,39,72,0
60.77462,60.905647,51,74,0
60.77462,60.905647,39,67,0
61.036674,61.180378,36,67,0
61.036674,61.180378,48,74,0
61.324085,61.857136,56,77,0
61.324085,61.857136,51,69,0
61.324085,61.857136,44,69,0
61.857136,61.99798,48,70,0
61.857136,61.99798,36,62,0
62.138824,62.27967,44,70,0
62.138824,62.27967,32,62,0
62.420513,62.983894,41,67,0
62.420513,62.983894,53,74,0
62.420513,62.983894,48,67,0
62.420513,62.983894,44,67,0
62.983894,63.283894,44,66,0
62.983894,63.283894,32,59,0
63.283894,63.6192,41,66,0
63.283894,63.6192,29,59,0
63.6192,64.28982,60,70,0
63.6192,64.28982,54,62,0
63.6192,64.28982,48,62,0
63.6192,64.28982,51,62,0
63.6192,64.28982,57,70,0
64.28982,64.55069,43,70,0
64.28982,64.55069,31,62,0
64.811554,65.028946,43,58,0
64.811554,65.028946,31,53,0
65.391266,65.63191,43,55,0
65.391266,65.63191,31,48,0
66.03298,68.432976,44,51,0
66.03298,68.432976,36,46,0
66.03298,68.432976,32,46,0
68.432976,70.82048,51,30,0
68.432976,70.82048,60,35,0
68.432976,70.83298,56,35,0
70.83298,71.02123,48,33,0
71.02123,71.20949,43,33,0
71.20949,71.397736,48,33,0
70.83298,71.397736,36,27,0
71.397736,71.962494,43,30,0
71.397736,71.962494,36,25,0
71.962494,72.15075,48,33,0
72.15075,72.339005,43,33,0
72.339005,72.52725,48,33,0
71.962494,72.52725,36,27,0
72.52725,73.09202,43,30,0
72.52725,73.09202,36,25,0
73.09202,73.280266,51,35,0
73.280266,73.46852,43,35,0
73.46852,73.65678,50,35,0
73.09202,73.65678,36,29,0
73.65678,74.221535,43,35,0
73.65678,74.221535,36,29,0
74.221535,74.40978,48,33,0
74.40978,74.59804,43,33,0
74.59804,74.78629,46,33,0
74.221535,74.78629,36,27,0
74.78629,75.36121,36,27,0
74.78629,75.36121,43,33,0
75.37062,75.558876,44,35,0
75.54946,75.73772,48,35,0
75.36121,75.73772,36,35,0
75.73772,75.92597,43,33,0
75.921265,76.48602,46,31,0
75.73772,76.49073,36,33,0
76.49073,76.678986,44,38,0
76.678986,76.86723,48,35,0
76.49073,76.86723,36,31,0
76.86723,77.05549,43,35,0
77.05549,77.243744,46,34,0
76.86723,77.243744,36,29,0
77.243744,77.43199,41,35,0
77.43199,77.62025,44,31,0
77.243744,77.62025,36,26,0
77.624954,77.81321,39,35,0
77.8085,77.99675,44,33,0
77.62025,78.185005,36,29,0
78.00146,78.18971,39,33,0
78.185005,78.74976,43,35,0
78.185005,78.74976,31,29,0
78.74976,78.93802,39,35,0
78.93802,79.126274,45,34,0
79.126274,79.31452,39,34,0
78.74976,79.31452,36,29,0
79.31452,79.89079,43,35,0
79.31452,79.89079,31,29,0
79.89079,80.07904,52,41,0
80.07904,80.267296,43,38,0
80.267296,80.45555,52,38,0
79.89079,80.45555,36,41,0
80.45555,81.02031,48,37,0
80.45555,81.02031,50,37,0
80.45555,81.02031,55,37,0
80.45555,81.02031,43,37,0
81.02031,81.208565,48,48,0
81.208565,81.39681,43,44,0
81.39681,81.58507,48,44,0
81.02031,81.58507,36,48,0
81.58507,82.149826,43,39,0
81.58507,82.149826,55,39,0
81.58507,82.149826,50,39,0
81.58507,82.149826,48,39,0
82.149826,82.33565,52,52,0
82.33565,82.52147,43,48,0
82.52147,82.70729,50,48,0
82.149826,82.70729,36,52,0
82.70729,83.264755,55,46,0
82.70729,83.264755,43,46,0
82.70729,83.264755,48,46,0
82.70729,83.264755,50,46,0
83.264755,83.45058,48,60,0
83.45058,83.6364,43,53,0
83.6364,83.82222,46,53,0
83.264755,83.82222,36,54,0
83.82222,84.40027,43,53,0
83.82222,84.40027,48,53,0
83.82222,84.40027,55,53,0
84.40027,84.58292,45,66,0
84.40027,84.58292,41,56,0
84.40027,84.58292,36,56,0
84.58292,84.67424,48,52,0
84.96164,85.5172,60,64,0
84.765564,85.5172,55,56,0
84.765564,85.5172,48,47,0
84.765564,85.5172,52,47,0
85.5172,85.699844,45,66,0
85.5172,85.699844,41,56,0
85.5172,85.699844,38,56,0
85.699844,85.79117,50,62,0
86.077614,86.63317,57,63,0
85.88249,86.63317,45,47,0
85.88249,86.63317,48,47,0
85.88249,86.63317,52,56,0
86.63317,86.81499,31,67,0
86.81499,86.99681,43,52,0
86.99681,87.18263,48,54,0
86.99681,87.18263,52,64,0
87.18263,87.36445,55,50,0
87.18263,87.36445,43,42,0
87.36445,87.537605,53,62,0
87.36445,87.537605,50,52,0
87.537605,87.71077,55,48,0
87.537605,87.71077,43,40,0
87.71077,87.88698,52,68,0
87.71077,87.88698,48,57,0
87.88698,88.063194,55,52,0
87.88698,88.063194,43,44,0
88.063194,88.2394,48,62,0
88.063194,88.2394,45,52,0
88.2394,88.82247,55,58,0
88.2394,88.82247,43,49,0
88.2394,88.82247,47,49,0
88.2394,88.82247,50,58,0
88.82247,89.00512,36,62,0
89.00512,89.18777,48,58,0
89.18777,89.711784,53,48,0
89.18777,89.711784,57,57,0
89.711784,89.88646,55,51,0
89.36244,89.88646,60,52,0
89.36244,89.88646,48,44,0
89.711784,89.88646,52,51,0
89.88646,90.06503,33,58,0
90.06503,90.2436,45,58,0
90.2436,90.77795,50,49,0
90.2436,90.77795,53,58,0
90.77795,90.95417,52,49,0
90.42707,90.95417,57,52,0
90.42707,90.95417,45,44,0
90.77795,90.95417,48,49,0
90.95417,91.13395,31,58,0
91.13395,91.316185,43,52,0
91.316185,91.50116,48,50,0
91.316185,91.50116,52,59,0
91.50116,91.68896,55,52,0
91.50116,91.68896,43,52,0
91.68896,91.87993,48,59,0
91.68896,91.87993,45,59,0
91.87993,92.08514,55,51,0
91.87993,92.08514,43,51,0
92.08514,92.678314,43,44,0
92.08514,92.678314,31,37,0
92.08514,92.678314,35,37,0
92.08514,92.678314,38,44,0
92.678314,92.92031,48,59,0
92.678314,92.92031,36,50,0
93.0001,93.26796,46,59,0
93.0001,93.26796,34,50,0
93.35725,95.87033,44,60,0
93.35725,95.87033,36,53,0
93.35725,95.87033,32,53,0
95.87033,98.37033,60,38,0
95.87033,98.38342,56,38,0
95.87033,98.38342,51,34,0
98.38342,99.54284,44,33,0
98.38342,99.54284,36,29,0
98.38342,99.54284,32,29,0
99.54284,100.12255,53,37,0
100.12255,100.76771,52,35,0
99.54284,100.76771,44,37,0
99.54284,100.76771,48,37,0
100.76771,103.332695,51,25,0
100.76771,103.332695,56,25,0
100.76771,103.332695,63,28,0
100.76771,103.332695,60,28,0
103.332695,103.478325,44,27,0
103.187065,103.478325,32,22,0
103.623955,103.769585,48,22,0
103.91522,104.06085,56,26,0
103.84241,104.06085,44,17,0
104.20648,104.35211,60,22,0
104.49362,104.63513,68,27,0
104.42287,104.63513,56,17,0
104.77664,104.91815,60,23,0
105.05966,105.20117,56,27,0
104.98891,105.20117,44,17,0
105.34268,105.48419,48,24,0
105.625694,105.767204,44,27,0
105.55494,105.767204,32,16,0
105.908714,106.050224,48,22,0
106.191734,106.333244,56,26,0
106.12098,106.333244,44,17,0
106.474754,106.62401,60,22,0
106.76037,106.896736,63,27,0
106.69219,106.896736,56,16,0
107.0331,107.169464,67,24,0
107.305824,107.44219,61,27,0
107.23765,107.44219,56,15,0
107.57855,107.71492,63,24,0
107.85128,107.98765,65,26,0
107.783104,107.98765,56,15,0
108.12401,108.260376,68,24,0
108.396736,108.533104,61,27,0
108.32855,108.533104,56,16,0
108.669464,108.80583,65,24,0
108.94219,109.07855,49,26,0
108.87401,109.07855,44,16,0
109.21492,109.35128,51,24,0
109.48765,109.62401,55,26,0
109.419464,109.62401,51,17,0
109.35128,109.62401,44,17,0
109.760376,109.896736,56,24,0
110.03499,110.17323,58,24,0
109.965866,110.17323,51,17,0
109.896736,110.17323,44,17,0
110.311485,110.44973,61,24,0
110.58798,110.726234,56,24,0
110.51886,110.726234,51,17,0
110.44973,110.726234,44,17,0
110.86448,111.00273,60,24,0
111.140976,111.28544,55,22,0
111.07185,111.28544,51,17,0
111.00273,111.28544,44,17,0
111.43084,111.57754,58,24,0
111.72532,111.87838,56,22,0
111.651306,111.87838,51,16,0
111.57754,111.87838,44,16,0
112.03144,112.1845,55,19,0
112.33014,112.47231,56,27,0
112.25732,112.47231,44,22,0
112.614494,112.756676,48,22,0
112.89886,113.04104,44,26,0
112.82777,113.04104,32,17,0
113.18321,113.32539,48,22,0
113.4669,113.60841,56,27,0
113.39615,113.60841,44,17,0
113.74992,113.89143,48,23,0
114.03294,114.17928,44,27,0
113.96219,114.17928,32,17,0
114.32563,114.47197,48,24,0
114.61831,114.765366,43,27,0
114.545135,114.765366,31,16,0
114.91243,115.05949,48,22,0
115.20654,115.3536,55,26,0
115.13302,115.3536,43,17,0
115.50066,115.656105,60,22,0
115.79564,115.93517,55,27,0
115.72587,115.93517,53,16,0
116.07471,116.21424,59,24,0
116.353775,116.49331,60,27,0
116.28401,116.49331,51,15,0
116.63285,116.772385,63,24,0
116.908745,117.04511,62,26,0
116.84056,117.04511,53,15,0
117.18147,117.31784,65,24,0
117.4542,117.59057,59,27,0
117.38602,117.59057,55,16,0
117.72693,117.86329,62,24,0
117.99966,118.13602,55,26,0
117.93147,118.13602,43,16,0
118.272385,118.408745,59,24,0
118.54511,118.68147,48,26,0
118.47693,118.68147,39,17,0
118.81784,118.9542,51,24,0
119.09245,119.2307,49,24,0
119.02332,119.2307,39,17,0
119.36895,119.507195,51,24,0
119.64545,119.78369,48,24,0
119.576324,119.78369,44,17,0
119.92194,120.060196,51,24,0
120.19844,120.3429,39,35,0
120.12932,120.3429,32,28,0
120.488304,120.635,44,30,0
121.38623,121.52708,51,38,0
121.66792,121.80877,39,33,0
121.949615,122.09046,27,40,0
122.2313,122.37623,39,33,0
122.52116,123.64792,51,27,0
122.52116,123.64792,61,27,0
123.64792,123.7957,49,36,0
123.94348,124.09127,37,30,0
124.23905,124.400345,25,36,0
124.56163,124.72468,37,29,0
124.88772,126.06931,64,23,0
124.88772,126.08175,52,23,0
124.88772,126.08175,61,23,0
126.08175,126.228806,48,28,0
126.37587,126.52293,36,29,0
126.66998,126.81704,24,30,0
126.9641,127.11116,36,31,0
127.25763,127.3308,52,34,0
127.18469,127.3308,48,22,0
127.54972,127.69477,48,35,0
127.83923,127.983,36,35,0
128.12608,128.2686,48,37,0
128.41045,128.4812,53,38,0
128.33969,128.4812,46,26,0
128.69237,128.83234,46,39,0
128.97176,129.11055,34,40,0
129.2488,129.38641,53,42,0
129.52339,129.59415,58,44,0
129.4549,129.59415,51,27,0
129.80708,129.94994,39,44,0
130.09348,130.23701,27,46,0
130.38057,130.54361,51,47,0
130.68379,130.82397,44,27,0
130.6137,130.82397,32,22,0
130.96417,131.10435,48,22,0
131.24454,131.38472,56,26,0
131.17445,131.38472,44,17,0
131.52492,131.66914,60,22,0
131.81337,131.95099,68,27,0
131.74126,131.95099,56,17,0
132.08861,132.22623,60,23,0
132.36383,132.51234,56,27,0
132.29503,132.51234,44,17,0
132.66086,132.80937,48,24,0
132.95023,133.0924,44,27,0
132.8798,133.0924,32,16,0
133.23459,133.37677,48,22,0
133.51895,133.66112,56,26,0
133.44786,133.66112,44,17,0
133.8033,133.95874,60,22,0
134.09511,134.23148,63,27,0
134.02693,134.23148,56,16,0
134.36783,134.5042,67,24,0
134.64056,134.77693,61,27,0
134.57239,134.77693,56,15,0
134.91328,135.04965,63,24,0
135.18602,135.32239,65,26,0
135.11784,135.32239,56,15,0
135.45874,135.59511,68,24,0
135.73148,135.86784,61,27,0
135.66328,135.86784,56,16,0
136.0042,136.14056,65,24,0
136.27693,136.4133,49,26,0
136.20874,136.4133,44,16,0
136.54965,136.68602,51,24,0
136.82239,136.95874,55,26,0
136.7542,136.95874,51,17,0
136.68602,136.95874,44,17,0
137.09511,137.23148,56,24,0
137.36972,137.50797,58,24,0
137.3006,137.50797,51,17,0
137.23148,137.50797,44,17,0
137.64622,137.78447,61,24,0
137.92271,138.06097,56,24,0
137.85359,138.06097,51,17,0
137.78447,138.06097,44,17,0
138.19922,138.33746,60,24,0
138.47571,138.62018,55,22,0
138.40659,138.62018,51,17,0
138.33746,138.62018,44,17,0
138.76558,138.91228,58,24,0
139.06006,139.21005,56,22,0
138.98604,139.21005,51,16,0
138.91228,139.21005,44,16,0
139.36006,139.51006,55,19,0
139.65569,139.79787,56,27,0
139.58287,139.79787,44,22,0
139.94005,140.08223,48,22,0
140.22441,140.3666,44,26,0
140.15332,140.3666,32,17,0
140.50877,140.65096,48,22,0
140.79312,140.93463,56,27,0
140.72205,140.93463,44,22,0
141.07614,141.21765,48,23,0
141.35916,141.5027,44,27,0
141.2884,141.5027,32,17,0
141.64626,141.7898,48,29,0
141.93333,142.07896,56,34,0
141.86156,142.07896,44,26,0
142.2246,142.37022,51,30,0
142.51585,142.66148,44,35,0
142.37022,142.66148,32,26,0
142.80711,142.95274,48,40,0
143.09837,143.25545,68,46,0
142.95274,143.25545,56,37,0
143.4125,143.56958,60,37,0
143.72665,143.87665,56,40,0
143.56958,143.87665,44,32,0
144.02664,144.17665,48,28,0
144.32664,144.47443,37,35,0
144.17665,144.47443,25,28,0
144.62222,144.77,44,35,0
144.91779,145.06557,49,33,0
144.84389,145.06557,37,26,0
145.21335,145.36113,56,29,0
145.50891,146.6173,60,35,0
145.50891,146.6173,68,35,0
145.50891,146.6173,56,35,0
146.69118,146.85335,36,34,0
146.5434,146.85335,24,27,0
147.0155,147.17767,44,28,0
147.33983,147.52388,48,30,0
147.25874,147.52388,36,23,0
147.70793,147.89198,56,23,0
148.07602,149.54842,48,26,0
148.07602,149.54842,56,26,0
148.07602,149.54842,60,26,0
149.54842,149.74355,48,30,0
149.74355,149.93866,43,28,0
149.93866,150.14275,48,28,0
149.54842,150.14275,36,25,0
150.14275,150.73387,50,18,0
150.14275,150.73387,55,18,0
150.14275,150.73387,62,18,0
150.73387,150.92805,51,30,0
150.92805,151.12222,43,27,0
151.12222,151.32323,51,27,0
150.73387,151.32323,36,25,0
151.32323,151.92326,55,19,0
151.32323,151.92326,50,19,0
151.32323,151.92326,62,19,0
151.92326,152.11934,51,27,0
152.11934,152.31541,43,24,0
152.31541,152.52055,50,24,0
151.92326,152.52055,36,23,0
152.52055,153.11461,55,20,0
152.52055,153.11461,48,20,0
152.52055,153.11461,43,20,0
153.11461,153.31662,48,27,0
153.31662,153.51865,43,26,0
153.51865,153.72067,46,26,0
153.11461,153.72067,36,23,0
153.72067,154.37283,55,22,0
153.72067,154.37283,48,22,0
153.72067,154.37283,43,22,0
154.37283,154.56892,44,41,0
154.56892,154.765,48,35,0
154.765,154.96107,55,35,0
154.37283,154.96107,36,41,0
154.96107,155.54932,58,35,0
154.765,155.54932,48,35,0
155.54932,155.74255,44,36,0
155.74255,155.93579,48,30,0
155.54932,155.93579,36,36,0
155.93579,156.12903,55,35,0
156.12903,156.32225,58,29,0
155.93579,156.32225,48,35,0
156.32225,156.51549,53,31,0
156.51549,156.70872,56,30,0
156.32225,156.70872,48,31,0
156.70872,156.90482,39,35,0
156.90482,157.10089,44,35,0
157.10089,157.29697,51,35,0
156.70872,157.29697,36,35,0
157.29697,157.90688,55,25,0
157.29697,157.90688,43,25,0
157.29697,157.90688,48,25,0
157.29697,157.90688,50,25,0
157.90688,158.10199,39,38,0
158.10199,158.29712,45,38,0
158.29712,158.49223,51,38,0
157.90688,158.49223,36,38,0
158.49223,159.10138,55,30,0
158.49223,159.10138,43,30,0
158.49223,159.10138,48,30,0
158.49223,159.10138,50,30,0
159.10138,159.68674,52,46,0
159.10138,159.68674,43,46,0
159.10138,159.68674,36,46,0
159.68674,159.88187,55,39,0
159.68674,159.88187,48,39,0
159.68674,159.88187,50,39,0
159.88187,160.07698,43,48,0
160.07698,160.28317,55,38,0
160.07698,160.28317,48,38,0
160.07698,160.28317,50,38,0
160.28317,160.86853,48,48,0
160.28317,160.86853,43,48,0
160.28317,160.86853,36,48,0
160.86853,161.06366,55,39,0
160.86853,161.06366,50,39,0
160.86853,161.06366,48,39,0
161.06366,161.25877,43,49,0
161.25877,161.46712,55,39,0
161.25877,161.46712,50,39,0
161.25877,161.46712,48,39,0
161.46712,161.7598,52,55,0
161.7598,162.05247,50,49,0
161.46712,162.05247,43,55,0
161.46712,162.05247,36,55,0
162.05247,162.2476,55,45,0
162.05247,162.2476,48,45,0
162.05247,162.2476,50,45,0
162.2476,162.44272,43,57,0
162.44272,162.65663,55,47,0
162.44272,162.65663,48,47,0
162.44272,162.65663,50,47,0
162.65663,162.94931,48,62,0
162.94931,163.24199,46,61,0
162.65663,163.24199,43,62,0
162.65663,163.24199,36,62,0
163.24199,163.43712,55,53,0
163.24199,163.43712,48,53,0
163.43712,163.63223,43,62,0
163.63223,163.82736,55,52,0
163.63223,163.82736,48,52,0
163.82736,164.39922,48,62,0
163.82736,164.39922,36,52,0
163.82736,164.39922,41,52,0
163.82736,164.39922,45,62,0
164.39922,164.59433,60,60,0
164.39922,164.59433,55,51,0
164.39922,164.59433,52,51,0
164.59433,164.78946,48,62,0
164.78946,164.98457,60,57,0
164.78946,164.98457,55,48,0
164.78946,164.98457,52,48,0
164.98457,165.56117,50,62,0
164.98457,165.56117,38,52,0
164.98457,165.56117,41,52,0
164.98457,165.56117,45,52,0
165.56117,165.75629,57,53,0
165.56117,165.75629,52,45,0
165.56117,165.75629,48,45,0
165.75629,165.95142,45,60,0
165.95142,166.14653,57,55,0
165.95142,166.14653,52,46,0
165.95142,166.14653,48,46,0
166.14653,166.54593,43,70,0
166.14653,166.54593,31,59,0
166.54593,166.73352,48,53,0
166.54593,166.73352,52,63,0
166.73352,166.91452,55,70,0
166.73352,166.91452,43,59,0
166.91452,167.09201,53,67,0
166.91452,167.09201,50,56,0
167.09201,167.269,55,67,0
167.09201,167.269,43,56,0
167.269,167.45233,52,70,0
167.269,167.45233,48,59,0
167.45233,167.63658,55,66,0
167.45233,167.63658,43,56,0
167.63658,167.82083,48,66,0
167.63658,167.82083,45,56,0
167.82083,168.40187,55,73,0
167.82083,168.40187,43,56,0
167.82083,168.40187,47,56,0
167.82083,168.40187,50,56,0
168.40187,168.59796,36,62,0
168.59796,168.79404,48,58,0
168.79404,169.3395,53,48,0
168.79404,169.3395,57,57,0
169.3395,169.5213,55,51,0
168.97585,169.5213,60,52,0
168.97585,169.5213,48,44,0
169.3395,169.5213,52,51,0
169.5213,169.71123,33,58,0
169.71123,169.90114,45,58,0
169.90114,170.43684,50,58,0
169.90114,170.43684,53,58,0
170.43684,170.61542,52,49,0
170.07971,170.61542,57,52,0
170.07971,170.61542,45,44,0
170.43684,170.61542,48,49,0
170.61542,170.7941,31,58,0
170.7941,170.97551,43,52,0
170.97551,171.15974,50,50,0
170.97551,171.15974,53,59,0
171.15974,171.34698,55,52,0
171.15974,171.34698,43,44,0
171.34698,171.53761,52,59,0
171.34698,171.53761,48,50,0
171.74283,172.395,48,66,0
171.74283,172.395,45,66,0
171.53761,172.395,43,43,0
172.15044,172.395,43,42,0
171.53761,172.395,55,51,0
172.395,172.57043,55,52,0
172.23196,172.57043,47,46,0
172.31348,172.57043,50,48,0
173.0919,173.23753,36,39,0
173.67442,173.82007,31,29,0
173.9657,174.11133,36,29,0
174.25696,174.39914,29,30,0
174.82567,174.96785,36,29,0
175.11003,175.25221,29,29,0
175.3944,175.53458,36,33,0
175.95514,176.09534,31,29,0
176.23552,176.3757,36,29,0
176.51588,176.65608,31,29,0
176.79626,176.93645,43,29,0
177.07664,177.21683,36,30,0
177.63739,177.77437,48,29,0
177.63739,177.77437,59,29,0
177.63739,177.77437,55,29,0
178.18533,178.32231,60,29,0
178.18533,178.32231,65,29,0
178.18533,178.32231,69,29,0
178.73328,178.87027,60,33,0
178.73328,178.87027,64,33,0
178.73328,178.87027,67,33,0
179.28122,179.41821,55,29,0
179.55519,179.69218,60,29,0
179.82916,179.96616,57,29,0
180.3771,180.5141,62,29,0
180.65108,180.78807,57,29,0
180.92506,181.06204,64,30,0
181.473,181.60999,57,29,0
181.74698,181.88396,64,29,0
182.02095,182.15984,59,29,0
182.5765,182.7154,64,29,0
183.13206,183.27357,63,27,0
183.13206,183.27357,52,27,0
183.13206,183.27357,51,27,0
183.69809,183.84302,50,24,0
183.69809,183.84302,40,24,0
183.69809,183.84302,38,24,0
184.2778,184.41542,36,29,0
184.2778,184.41542,24,27,0
184.82826,184.96588,31,24,0
185.1035,185.2411,36,23,0
185.37872,185.51634,29,29,0
185.92918,186.0668,36,27,0
186.2044,186.34203,29,27,0
186.47964,186.61478,36,29,0
187.02019,187.15532,31,26,0
187.29045,187.42558,36,25,0
187.56073,187.70026,31,25,0
187.8398,187.97932,43,24,0
188.11887,188.25839,36,26,0
188.677,188.82193,48,22,0
188.677,188.82193,58,22,0
188.677,188.82193,46,22,0
189.25671,189.409,56,19,0
189.25671,189.409,60,19,0
189.25671,189.409,68,19,0
190.4631,191.04846,48,18,0
189.86584,191.04846,31,27,0
191.04846,191.61513,51,24,0
191.04846,192.16307,43,24,0
192.16307,192.7049,60,22,0
192.7049,193.24062,63,20,0
191.61513,193.24062,55,19,0
193.24062,194.34154,31,22,0
194.92406,195.50658,56,17,0
194.34154,195.50658,43,18,0
196.08827,196.65164,50,18,0
195.50658,196.65164,31,24,0
196.65164,197.2073,55,19,0
197.2073,197.75526,58,19,0
196.65164,197.75526,43,19,0
197.75526,198.29709,63,20,0
198.29709,198.8328,67,20,0
197.75526,198.8328,55,20,0
198.8328,199.93372,31,22,0
200.50244,201.07115,60,17,0
199.93372,201.07115,43,18,0
201.64162,202.19717,55,18,0
201.07115,202.19717,31,22,0
202.19717,202.74893,60,20,0
202.74893,203.29688,63,19,0
201.9194,203.29688,43,20,0
203.29688,203.8387,68,18,0
203.8387,204.37442,72,20,0
203.29688,204.37442,55,18,0
204.37442,205.47533,31,22,0
206.02579,206.57625,65,22,0
205.47533,206.57625,43,22,0
206.57625,207.12671,63,22,0
207.12671,207.67717,60,22,0
207.67717,208.22763,57,22,0
206.57625,208.22763,55,22,0
208.22763,208.64047,54,22,0
208.77809,208.90852,51,28,0
208.70927,208.90852,48,17,0
208.64047,208.90852,43,17,0
209.29982,209.43027,51,29,0
209.2346,209.43027,48,24,0
209.16939,209.43027,43,24,0
209.82156,209.952,51,29,0
209.75635,209.952,48,26,0
209.69113,209.952,43,26,0
210.3433,210.47374,57,30,0
210.21288,210.47374,43,26,0
210.27809,210.47374,48,26,0
210.3433,210.47374,51,30,0
210.47374,210.60417,54,35,0
210.60417,210.7346,51,37,0
210.7346,210.86504,48,39,0
210.86504,211.42842,55,41,0
210.86504,211.42842,43,41,0
211.42842,211.9918,55,27,0
211.42842,211.9918,43,27,0
211.42842,211.9918,41,27,0
211.9918,212.55518,55,27,0
211.9918,212.55518,43,27,0
211.9918,212.55518,39,27,0
212.55518,213.0909,55,27,0
212.55518,213.0909,38,27,0
212.55518,213.0909,43,27,0
212.55518,213.0909,53,27,0
213.0909,213.62662,43,27,0
213.0909,213.62662,51,27,0
213.0909,213.62662,55,27,0
213.0909,213.62662,36,27,0
213.62662,214.17961,57,26,0
213.62662,214.17961,47,26,0
213.62662,214.17961,35,26,0
213.62662,214.17961,39,26,0
213.62662,214.17961,51,26,0
214.17961,214.96222,34,26,0
214.70134,214.96222,34,25,0
214.70134,214.96222,22,25,0
214.17961,215.22308,41,26,0
215.22308,215.48395,34,25,0
215.22308,215.48395,22,25,0
215.74483,216.00569,34,25,0
215.74483,216.00569,22,25,0
214.17961,216.26656,50,26,0
214.17961,216.26656,58,26,0
214.17961,216.26656,46,26,0
216.26656,216.81702,58,25,0
216.26656,216.81702,46,25,0
216.81702,217.36748,58,25,0
216.81702,217.36748,42,25,0
217.36748,217.92822,58,25,0
217.36748,217.92822,54,25,0
217.36748,217.92822,39,25,0
217.92822,218.48897,59,22,0
217.92822,218.48897,35,22,0
217.92822,218.48897,51,22,0
217.92822,218.48897,54,22,0
218.48897,219.03624,59,22,0
218.48897,219.03624,32,22,0
218.48897,219.03624,51,22,0
218.48897,219.03624,56,22,0
219.08598,219.7277,64,18,0
219.08598,219.7277,56,18,0
219.08598,219.7277,28,18,0
219.08598,219.7277,40,18,0
219.08598,219.7277,59,18,0
219.7277,220.51031,35,18,0
220.24944,220.51031,35,25,0
220.24944,220.51031,23,25,0
219.7277,220.77118,47,18,0
220.77118,221.03204,35,25,0
220.77118,221.03204,23,25,0
221.29292,221.55379,35,25,0
221.29292,221.55379,23,25,0
219.7277,221.81465,59,18,0
219.7277,221.81465,63,18,0
219.7277,221.81465,54,18,0
221.81465,222.35037,59,27,0
221.81465,222.35037,47,27,0
222.35037,222.90593,45,27,0
222.35037,222.90593,59,27,0
222.35037,222.90593,47,27,0
222.90593,223.46149,59,27,0
222.90593,223.46149,47,27,0
222.90593,223.46149,43,27,0
223.46149,224.01704,57,30,0
223.46149,224.01704,42,30,0
223.46149,224.01704,47,30,0
223.46149,224.01704,59,30,0
224.01704,224.5912,59,30,0
224.01704,224.5912,40,30,0
224.01704,224.5912,47,30,0
224.01704,224.5912,55,30,0
224.5912,225.20659,60,29,0
224.5912,225.20659,50,29,0
224.5912,225.20659,38,29,0
224.5912,225.20659,42,29,0
224.5912,225.20659,54,29,0
225.20659,225.9892,37,27,0
225.72833,225.9892,37,25,0
225.72833,225.9892,25,25,0
225.20659,226.25006,44,27,0
225.20659,226.25006,49,27,0
226.25006,226.51094,37,25,0
226.25006,226.51094,25,25,0
226.7718,227.03267,37,25,0
226.7718,227.03267,25,25,0
225.20659,227.29355,53,27,0
225.20659,227.29355,61,27,0
227.29355,227.80984,61,30,0
227.29355,227.81528,49,30,0
227.81528,228.34862,58,30,0
227.81528,228.34862,46,30,0
228.34862,228.88194,54,30,0
228.34862,228.88194,46,30,0
228.34862,228.88194,42,30,0
228.88194,229.41568,51,40,0
228.88194,229.41568,46,40,0
228.88194,229.41568,39,40,0
229.41568,229.95866,47,44,0
229.41568,229.95866,39,44,0
229.41568,229.95866,35,44,0
229.95866,230.51422,44,50,0
229.95866,230.51422,39,50,0
229.95866,230.51422,32,50,0
231.03596,231.55771,70,41,0
230.51422,231.55771,34,51,0
230.51422,231.55771,46,51,0
230.51422,231.55771,41,51,0
230.51422,231.55771,38,51,0
231.03596,232.0913,65,41,0
231.03596,232.0913,58,41,0
231.03596,232.0913,62,41,0
232.0913,232.61304,63,48,0
232.0913,232.61304,51,48,0
232.0913,232.61304,54,48,0
232.0913,232.61304,58,48,0
233.13478,233.26521,34,45,0
233.26521,233.39565,41,44,0
233.39565,233.52608,46,45,0
233.52608,233.65652,50,44,0
232.61304,233.65652,70,48,0
232.61304,233.65652,58,48,0
232.61304,233.65652,62,48,0
232.61304,233.65652,65,48,0
233.65652,233.78696,58,45,0
233.78696,233.91739,62,44,0
233.91739,234.19011,65,45,0
234.19011,234.71185,47,52,0
234.19011,234.71185,35,52,0
234.19011,234.71185,39,52,0
234.19011,234.71185,42,52,0
235.2336,235.75533,73,53,0
234.71185,235.75533,37,52,0
234.71185,235.75533,49,52,0
234.71185,235.75533,44,52,0
234.71185,235.75533,41,52,0
235.2336,236.27707,68,53,0
235.2336,236.27707,61,53,0
235.2336,236.27707,65,53,0
236.27707,236.80571,66,59,0
236.27707,236.80571,54,52,0
236.27707,236.80571,58,52,0
236.27707,236.80571,61,52,0
237.33434,237.46477,37,55,0
237.46477,237.59521,44,52,0
237.59521,237.72565,49,55,0
237.72565,237.85608,53,52,0
236.80571,237.85608,73,59,0
236.80571,237.85608,61,52,0
236.80571,237.85608,65,52,0
236.80571,237.85608,68,59,0
237.85608,237.98651,61,55,0
237.98651,238.11694,65,52,0
238.11694,238.37782,68,55,0
238.37782,238.51056,37,49,0
238.51056,238.64331,44,48,0
238.64331,238.77605,49,50,0
238.77605,238.90878,52,48,0
238.90878,239.04153,61,50,0
239.04153,239.17427,64,48,0
239.17427,239.43976,68,50,0
239.57251,239.70525,34,50,0
239.43976,239.70525,30,49,0
239.70525,239.838,37,51,0
239.838,239.97073,42,52,0
239.97073,240.10349,46,52,0
240.10349,240.23622,49,52,0
240.23622,240.36897,54,53,0
240.36897,240.50171,58,55,0
240.63445,240.7672,66,56,0
240.50171,240.7672,61,56,0
240.7672,240.89993,70,57,0
240.89993,241.03635,73,59,0
241.0133,241.03635,73,51,0
241.03635,241.17271,78,59,0
240.96722,241.17271,70,51,0
240.92206,241.17271,66,51,0
241.71817,241.85454,66,60,0
241.5818,241.85454,71,59,0
241.85454,241.99089,63,61,0
241.99089,242.12726,59,61,0
242.2668,242.40633,51,62,0
242.12726,242.40633,54,62,0
242.40633,242.54587,47,64,0
242.54587,242.6854,42,66,0
242.82494,242.96448,35,66,0
242.6854,242.96448,39,66,0
242.96448,243.11372,30,67,0
243.11372,243.26299,27,68,0
243.26299,243.6733,70,78,0
243.26299,243.6733,58,69,0
243.26299,243.6733,63,69,0
243.26299,243.6733,67,69,0
243.81007,243.95929,46,59,0
243.81007,243.95929,58,67,0
244.10849,244.2577,51,63,0
244.10849,244.2577,39,57,0
244.4069,244.92662,51,69,0
244.4069,244.92662,63,77,0
244.4069,244.92662,60,69,0
244.4069,244.92662,56,69,0
244.92662,245.07368,51,66,0
244.92662,245.07368,39,59,0
245.22073,245.3678,44,63,0
245.22073,245.3678,32,57,0
245.51485,246.03456,51,77,0
245.51485,246.03456,46,69,0
245.51485,246.03456,39,69,0
246.03456,246.17949,46,70,0
246.03456,246.17949,34,62,0
246.32442,246.46935,39,66,0
246.32442,246.46935,27,59,0
246.61427,246.75125,46,66,0
246.61427,246.75125,34,59,0
246.88824,247.03603,46,62,0
246.88824,247.03603,58,62,0
247.1838,247.76633,51,73,0
247.1838,247.76633,39,66,0
247.76633,248.34326,51,64,0
247.76633,248.34326,58,64,0
247.76633,248.34326,62,72,0
248.34326,248.91197,60,70,0
248.34326,248.91197,56,62,0
248.34326,248.91197,51,62,0
248.91197,249.47067,51,70,0
248.91197,249.47067,46,62,0
248.91197,249.47067,39,62,0
249.47067,249.61353,46,72,0
249.47067,249.61353,34,64,0
249.75638,249.90344,27,60,0
249.75638,249.90344,39,68,0
250.0505,250.58383,48,69,0
250.0505,250.58383,60,77,0
250.0505,250.58383,55,69,0
250.0505,250.58383,51,69,0
250.58383,250.72534,53,70,0
250.58383,250.72534,41,62,0
250.86685,251.01248,48,70,0
250.86685,251.01248,36,62,0
251.15811,251.68909,55,74,0
251.15811,251.68909,43,67,0
251.15811,251.68909,46,67,0
251.15811,251.68909,50,67,0
251.68909,251.82362,48,66,0
251.68909,251.82362,36,59,0
251.95815,252.09268,43,62,0
251.95815,252.09268,31,56,0
252.2272,252.36739,38,67,0
252.2272,252.36739,26,59,0
252.50758,252.64777,38,55,0
252.50758,252.64777,50,61,0
252.78795,253.32607,43,71,0
252.78795,253.32607,31,63,0
253.32607,253.88239,43,62,0
253.32607,253.88239,54,70,0
253.88239,254.3769,53,64,0
253.88239,254.3769,43,58,0
254.44823,254.96793,63,59,0
254.44823,254.96793,51,52,0
254.44823,254.96793,55,52,0
254.44823,254.96793,58,52,0
254.96793,255.22778,46,48,0
254.96793,255.22778,58,53,0
255.22778,255.50948,51,60,0
255.22778,255.50948,39,53,0
255.50948,256.02917,44,59,0
255.50948,256.02917,56,66,0
255.50948,256.02917,51,59,0
256.02917,256.28903,51,53,0
256.02917,256.28903,39,48,0
256.28903,256.5694,44,56,0
256.28903,256.5694,32,49,0
256.5694,257.0891,51,57,0
256.5694,257.0891,46,50,0
256.5694,257.0891,39,50,0
257.0891,257.3545,46,59,0
257.0891,257.3545,34,52,0
257.3545,257.6199,39,57,0
257.3545,257.6199,27,50,0
257.6199,257.88895,46,57,0
257.6199,257.88895,34,50,0
257.88895,258.15802,46,49,0
257.88895,258.15802,58,56,0
258.15802,258.70993,51,64,0
258.15802,258.70993,39,58,0
258.70993,259.2901,49,66,0
258.70993,259.2901,37,59,0
258.70993,259.2901,39,59,0
259.2901,259.83313,46,70,0
259.2901,259.83313,39,62,0
259.2901,259.83313,34,62,0
259.9107,260.44376,44,81,0
259.9107,260.44376,39,72,0
259.9107,260.44376,32,72,0
260.44376,260.58075,47,74,0
260.44376,260.58075,35,67,0
260.7177,260.86142,32,64,0
260.7177,260.86142,44,72,0
261.00513,261.53818,52,79,0
261.00513,261.53818,47,70,0
261.00513,261.53818,40,70,0
261.00513,261.53818,44,70,0
261.53818,261.68173,56,70,0
261.53818,261.68173,44,62,0
261.82526,261.9688,52,68,0
261.82526,261.9688,40,60,0
262.11234,262.6578,49,69,0
262.11234,262.6578,61,77,0
262.11234,262.6578,56,69,0
262.11234,262.6578,52,69,0
262.6578,262.8,52,66,0
262.6578,262.8,40,59,0
262.94217,263.08435,49,66,0
262.94217,263.08435,37,59,0
263.22653,263.79794,56,72,0
263.22653,263.79794,44,64,0
263.22653,263.79794,50,64,0
263.22653,263.79794,53,64,0
263.79794,263.94946,54,74,0
263.79794,263.94946,42,67,0
264.10098,264.2525,41,63,0
264.10098,264.2525,53,71,0
264.40402,264.87033,58,74,0
264.40402,264.87033,46,67,0
265.0258,265.4921,46,74,0
265.0258,265.4921,34,67,0
265.64755,265.77798,39,55,0
265.77798,265.90842,46,52,0
265.90842,266.03885,51,55,0
266.03885,266.16928,54,52,0
266.16928,266.691,56,48,0
266.16928,266.691,50,40,0
266.16928,266.691,46,40,0
266.691,266.82144,39,53,0
266.82144,266.95187,46,52,0
266.95187,267.0823,51,53,0
267.0823,267.21277,54,53,0
267.21277,267.7345,56,48,0
267.21277,267.7345,50,40,0
267.21277,267.7345,46,40,0
267.86493,267.99536,47,50,0
267.7345,267.99536,39,52,0
267.99536,268.1258,51,52,0
268.1258,268.25623,54,50,0
268.25623,268.77798,57,48,0
268.25623,268.77798,51,40,0
268.25623,268.77798,48,40,0
268.90842,269.03885,48,51,0
268.77798,269.03885,39,52,0
269.03885,269.16928,51,52,0
269.16928,269.2997,57,50,0
269.2997,269.82864,60,49,0
269.2997,269.82864,54,41,0
269.2997,269.82864,51,41,0
269.82864,270.3842,46,56,0
269.82864,270.3842,34,49,0
269.82864,270.3842,39,49,0
269.82864,270.3842,42,56,0
270.3842,270.93973,58,56,0
270.3842,270.93973,46,49,0
270.3842,270.93973,53,49,0
270.3842,270.93973,56,56,0
270.93973,271.0702,35,46,0
271.0702,271.20062,42,45,0
271.20062,271.33105,47,46,0
271.33105,271.4615,51,45,0
271.4615,271.98322,58,40,0
271.4615,271.98322,52,34,0
271.4615,271.98322,47,34,0
271.98322,272.11365,35,46,0
272.11365,272.24408,42,45,0
272.24408,272.3745,47,46,0
272.3745,272.50494,51,45,0
272.50494,273.0267,58,39,0
272.50494,273.0267,52,33,0
272.50494,273.0267,47,33,0
273.0267,273.15714,35,41,0
273.15714,273.28757,42,39,0
273.28757,273.418,47,41,0
273.54843,274.0702,57,39,0
273.54843,274.0702,48,33,0
273.418,274.0702,51,39,0
274.0702,274.20062,29,41,0
274.20062,274.33105,41,40,0
274.33105,274.4615,45,41,0
274.59192,275.12082,41,32,0
274.59192,275.12082,51,38,0
274.4615,275.12082,48,40,0
275.12082,275.65417,46,64,0
275.12082,275.65417,34,57,0
275.12082,275.65417,39,57,0
275.12082,275.65417,42,57,0
275.65417,276.1875,59,61,0
275.65417,276.1875,46,54,0
275.65417,276.1875,51,54,0
275.65417,276.1875,56,54,0
276.1875,276.72083,60,59,0
276.1875,276.72083,53,52,0
276.1875,276.72083,46,52,0
276.72083,277.25415,46,55,0
277.23193,277.25415,46,26,0
276.72083,277.25415,34,55,0
277.25415,277.33698,51,52,0
277.1875,277.33698,39,27,0
277.20972,277.33698,42,27,0
277.41962,277.50226,50,37,0
277.58493,277.66757,51,36,0
277.74994,277.83224,53,36,0
277.68823,277.83224,39,26,0
277.7088,277.83224,44,26,0
277.72937,277.83224,47,26,0
277.91455,277.99686,51,35,0
278.07907,278.16104,50,35,0
278.243,278.32498,54,38,0
278.22253,278.32498,46,28,0
278.20203,278.32498,39,28,0
278.40695,278.48868,53,37,0
278.40695,278.48868,50,37,0
278.5703,278.65195,54,37,0
278.5703,278.65195,51,37,0
278.73358,278.81512,56,37,0
278.71317,278.81512,47,28,0
278.69275,278.81512,39,28,0
278.89642,278.97772,51,36,0
278.89642,278.97772,54,36,0
279.05902,279.14032,50,36,0
279.05902,279.14032,53,36,0
279.2012,279.30243,58,30,0
279.18097,279.30243,54,30,0
279.16064,279.30243,51,30,0
279.68646,279.7873,59,31,0
279.66632,279.7873,56,31,0
279.64615,279.7873,51,31,0
280.16928,280.26968,58,37,0
280.1492,280.26968,51,35,0
280.6497,280.7493,59,35,0
280.6297,280.7493,51,35,0
281.12732,281.2265,70,40,0
281.10745,281.2265,66,40,0
281.08762,281.2265,63,40,0
281.60254,281.70135,71,41,0
281.5828,281.70135,68,44,0
281.56302,281.70135,63,41,0
282.07547,282.1735,70,48,0
282.0558,282.1735,63,48,0
282.54605,282.6441,71,53,0
282.52643,282.6441,63,52,0
283.03625,283.1623,75,48,0
283.03625,283.1623,63,42,0
283.03625,283.1623,66,42,0
283.03625,283.1623,70,42,0
283.28836,283.4144,63,52,0
283.28836,283.4144,51,52,0
283.54044,283.6665,75,48,0
283.54044,283.6665,63,42,0
283.54044,283.6665,68,42,0
283.54044,283.6665,71,42,0
283.79254,283.9186,56,49,0
283.79254,283.9186,44,49,0
284.04465,284.17072,58,42,0
284.04465,284.17072,63,48,0
284.04465,284.17072,51,42,0
284.04465,284.17072,54,42,0
284.29675,284.4228,51,52,0
284.29675,284.4228,39,52,0
284.54886,284.6749,63,48,0
284.54886,284.6749,51,42,0
284.54886,284.6749,56,42,0
284.54886,284.6749,59,42,0
284.80096,284.927,44,53,0
284.80096,284.927,32,53,0
285.05304,285.1864,58,53,0
285.05304,285.1864,46,48,0
285.05304,285.1864,51,48,0
285.05304,285.1864,54,48,0
285.31973,285.45306,39,58,0
285.31973,285.45306,27,58,0
285.5864,285.71973,59,52,0
285.5864,285.71973,47,47,0
285.5864,285.71973,51,47,0
285.5864,285.71973,54,47,0
285.85306,285.9864,39,57,0
285.85306,285.9864,27,57,0
286.11972,286.69388,48,47,0
286.11972,286.69388,51,47,0
286.11972,286.69388,60,52,0
286.11972,286.69388,54,47,0
286.11972,286.69388,57,52,0
286.69388,286.84167,62,61,0
286.6221,286.84167,46,55,0
286.64603,286.84167,53,55,0
286.66995,286.84167,58,61,0
286.98944,287.15613,46,70,0
286.98944,287.15613,34,70,0
287.32278,287.55267,39,74,0
287.32278,287.55267,27,74,0
288.01245,288.6185,47,71,0
288.01245,288.6185,35,63,0
288.01245,288.6185,39,63,0
288.01245,288.6185,42,63,0
288.6185,289.22455,54,71,0
288.6185,289.22455,42,63,0
288.6185,289.22455,46,63,0
288.6185,289.22455,49,63,0
289.22455,289.83063,56,70,0
289.22455,289.83063,44,62,0
289.22455,289.83063,47,62,0
289.22455,289.83063,51,62,0
289.83063,291.04276,63,71,0
291.04276,291.36707,39,70,0
291.04276,291.36707,27,62,0
289.83063,291.6914,54,63,0
289.83063,291.6914,51,63,0
289.83063,292.05502,58,63,0
291.6914,292.05502,58,70,0
291.6914,292.05502,51,62,0
291.6914,292.05502,54,62,0
291.6914,292.05502,46,62,0
292.41867,293.8732,66,58,0
292.41867,293.8732,78,69,0
292.41867,293.8732,75,61,0
292.41867,293.8732,70,58,0
