start_time,end_time,note_value,velocity,instrument_program_number
1.346634,1.4588535,84,80,0
1.3279308,1.4588535,76,67,0
1.3092275,1.4588535,72,67,0
1.645886,1.720699,64,54,0
1.645886,1.720699,60,45,0
1.795512,1.870325,60,50,0
1.795512,1.870325,64,59,0
1.945138,2.019951,65,53,0
1.945138,2.019951,62,45,0
2.094764,2.169577,64,45,0
2.094764,2.169577,67,53,0
2.24439,2.319203,69,59,0
2.24439,2.319203,65,50,0
2.394016,2.470939,64,45,0
2.394016,2.470939,67,54,0
2.547862,2.6598022,84,80,0
2.5286312,2.6598022,76,67,0
2.5094006,2.6598022,72,67,0
2.6971154,2.7717423,60,50,0
2.6971154,2.7717423,64,59,0
2.846369,2.9209957,65,53,0
2.846369,2.9209957,62,45,0
2.9956224,3.0702493,64,45,0
2.9956224,3.0702493,67,53,0
3.144876,3.2195027,69,59,0
3.144876,3.2195027,65,50,0
3.2941296,3.3687563,67,54,0
3.2941296,3.3687563,64,45,0
3.443383,3.5180097,65,45,0
3.443383,3.5180097,69,53,0
3.5926366,3.6672633,67,50,0
3.5926366,3.6672633,71,59,0
3.74189,3.8165166,69,45,0
3.74189,3.8165166,72,54,0
3.8911436,3.9674795,71,45,0
3.8911436,3.9674795,74,53,0
4.0438156,4.155478,88,80,0
4.0056477,4.155478,76,67,0
4.01837,4.155478,79,67,0
4.0310926,4.155478,84,67,0
4.3415823,4.416024,67,54,0
4.3415823,4.416024,64,45,0
4.490466,4.5649076,64,51,0
4.490466,4.5649076,67,60,0
4.6393495,4.7137914,69,56,0
4.6393495,4.7137914,65,46,0
4.788233,4.8626747,67,48,0
4.788233,4.8626747,71,57,0
4.9371166,5.011558,69,55,0
4.9371166,5.011558,72,65,0
5.086,5.162923,67,51,0
5.086,5.162923,71,61,0
5.239846,5.351786,88,93,0
5.2013845,5.351786,76,78,0
5.214205,5.351786,79,78,0
5.2270255,5.351786,84,78,0
5.3890996,5.463726,71,65,0
5.3890996,5.463726,67,54,0
5.538353,5.61298,69,50,0
5.538353,5.61298,72,60,0
5.6876063,5.7622333,74,62,0
5.6876063,5.7622333,71,51,0
5.83686,5.9114866,72,59,0
5.83686,5.9114866,76,71,0
5.9861135,6.0607405,74,66,0
5.9861135,6.0607405,71,56,0
6.135367,6.209994,76,67,0
6.135367,6.209994,72,56,0
6.2846203,6.359247,74,64,0
6.2846203,6.359247,78,77,0
6.433874,6.510797,76,60,0
6.433874,6.510797,79,72,0
6.58772,6.670593,81,72,0
6.58772,6.670593,78,61,0
6.753466,7.36885,95,90,0
6.753466,7.36885,83,76,0
6.753466,7.36885,91,76,0
7.36885,7.445773,90,68,0
7.36885,7.445773,81,68,0
7.36885,7.445773,93,81,0
7.522696,7.599619,88,68,0
7.522696,7.599619,91,81,0
7.522696,7.599619,79,68,0
7.676542,8.291926,93,90,0
7.676542,8.291926,81,76,0
7.676542,8.291926,90,76,0
8.291926,8.368849,79,68,0
8.291926,8.368849,91,81,0
8.291926,8.368849,88,68,0
8.445772,8.522695,78,68,0
8.445772,8.522695,87,68,0
8.445772,8.522695,90,81,0
8.599618,8.676541,91,90,0
8.599618,8.676541,79,76,0
8.599618,8.676541,88,76,0
8.753464,8.830387,78,68,0
8.753464,8.830387,87,68,0
8.753464,8.830387,90,81,0
8.90731,8.984233,76,68,0
8.90731,8.984233,88,81,0
8.90731,8.984233,85,68,0
9.061156,9.138079,90,90,0
9.061156,9.138079,87,76,0
9.061156,9.138079,78,76,0
9.372482,9.456282,83,81,0
9.372482,9.456282,71,68,0
9.54008,10.147675,92,76,0
9.54008,10.147675,95,90,0
9.54008,10.147675,83,76,0
10.147675,10.223623,90,68,0
10.147675,10.223623,93,81,0
10.147675,10.223623,81,68,0
10.299573,10.377495,88,68,0
10.299573,10.377495,92,81,0
10.299573,10.377495,80,68,0
10.455417,11.063011,90,76,0
10.455417,11.063011,93,90,0
10.455417,11.063011,81,76,0
11.063011,11.13896,80,68,0
11.063011,11.13896,92,81,0
11.063011,11.13896,88,68,0
11.21491,11.29365,87,68,0
11.21491,11.29365,78,68,0
11.21491,11.29365,90,81,0
11.37239,11.448532,92,90,0
11.37239,11.448532,80,76,0
11.37239,11.448532,88,76,0
11.524674,11.600817,90,81,0
11.524674,11.600817,78,68,0
11.524674,11.600817,87,68,0
11.676959,11.753101,85,68,0
11.676959,11.753101,88,81,0
11.676959,11.753101,76,68,0
11.829244,11.905386,87,76,0
11.829244,11.905386,90,90,0
11.829244,11.905386,78,76,0
12.133813,12.217611,83,81,0
12.133813,12.217611,71,68,0
12.301411,12.380358,95,97,0
12.301411,12.380358,92,97,0
12.301411,12.380358,83,82,0
12.6172,12.966037,80,77,0
12.6172,12.966037,92,91,0
12.6172,12.966037,88,77,0
12.966037,13.489292,81,77,0
12.966037,13.489292,93,91,0
12.966037,13.489292,88,77,0
13.489292,13.748354,78,75,0
13.489292,13.748354,90,89,0
13.489292,13.748354,88,75,0
13.748354,13.832195,92,79,0
13.748354,13.832195,80,67,0
13.748354,13.832195,88,67,0
13.839817,13.9224615,80,74,0
13.839817,13.9224615,88,74,0
13.839817,13.9224615,92,88,0
14.170396,14.525426,80,81,0
14.170396,14.525426,68,69,0
14.170396,14.525426,76,69,0
14.525426,15.057971,69,69,0
14.525426,15.057971,76,69,0
14.525426,15.057971,81,81,0
15.057971,15.313829,78,80,0
15.057971,15.313829,76,67,0
15.057971,15.313829,66,67,0
15.321593,15.406997,68,60,0
15.321593,15.406997,80,71,0
15.321593,15.406997,76,60,0
15.414761,15.498795,80,79,0
15.414761,15.498795,68,66,0
15.414761,15.498795,76,66,0
15.734727,15.883733,88,80,0
15.715739,15.883733,80,67,0
15.696752,15.883733,76,67,0
15.933402,16.009352,64,79,0
15.933402,16.009352,52,66,0
16.692894,16.84141,88,80,0
16.673906,16.84141,80,67,0
16.65492,16.84141,76,67,0
16.890915,16.966864,52,66,0
16.890915,16.966864,64,79,0
18.561798,18.703754,76,61,0
18.54281,18.703754,68,51,0
18.523823,18.703754,64,52,0
18.751072,18.827023,52,55,0
19.510565,19.605501,76,48,0
19.510565,19.605501,64,40,0
19.510565,19.605501,68,40,0
19.70044,19.776388,52,46,0
21.119322,21.23154,84,80,0
21.100618,21.23154,76,67,0
21.081915,21.23154,72,67,0
21.418573,21.493385,64,54,0
21.418573,21.493385,60,45,0
21.5682,21.643011,64,59,0
21.5682,21.643011,60,50,0
21.717825,21.792639,65,53,0
21.717825,21.792639,62,45,0
21.86745,21.942265,64,45,0
21.86745,21.942265,67,53,0
22.017076,22.09189,65,50,0
22.017076,22.09189,69,59,0
22.166702,22.243626,67,54,0
22.166702,22.243626,64,45,0
22.320549,22.43249,84,80,0
22.30132,22.43249,76,67,0
22.282087,22.43249,72,67,0
22.469803,22.54443,60,50,0
22.469803,22.54443,64,59,0
22.619057,22.693684,62,45,0
22.619057,22.693684,65,53,0
22.768309,22.842936,64,45,0
22.768309,22.842936,67,53,0
22.917562,22.99219,69,59,0
22.917562,22.99219,65,50,0
23.066816,23.141443,64,45,0
23.066816,23.141443,67,54,0
23.21607,23.290697,69,53,0
23.21607,23.290697,65,45,0
23.365324,23.43995,71,59,0
23.365324,23.43995,67,50,0
23.514578,23.589203,72,54,0
23.514578,23.589203,69,45,0
23.66383,23.740166,74,53,0
23.66383,23.740166,71,45,0
23.816502,23.928165,88,80,0
23.778334,23.928165,76,67,0
23.791058,23.928165,79,67,0
23.80378,23.928165,84,67,0
24.11427,24.188711,67,54,0
24.11427,24.188711,64,45,0
24.263153,24.337595,67,60,0
24.263153,24.337595,64,51,0
24.412037,24.486479,65,46,0
24.412037,24.486479,69,56,0
24.56092,24.635363,71,57,0
24.56092,24.635363,67,48,0
24.709803,24.784245,69,55,0
24.709803,24.784245,72,65,0
24.858686,24.93561,71,61,0
24.858686,24.93561,67,51,0
25.012533,25.124474,88,93,0
24.974072,25.124474,76,78,0
24.986893,25.124474,79,78,0
24.999712,25.124474,84,78,0
25.161787,25.236414,67,54,0
25.161787,25.236414,71,65,0
25.31104,25.385666,72,60,0
25.31104,25.385666,69,50,0
25.460293,25.53492,71,51,0
25.460293,25.53492,74,62,0
25.609547,25.684174,76,71,0
25.609547,25.684174,72,59,0
25.7588,25.833427,71,56,0
25.7588,25.833427,74,66,0
25.908054,25.982681,72,56,0
25.908054,25.982681,76,67,0
26.057308,26.131935,78,77,0
26.057308,26.131935,74,64,0
26.20656,26.283484,76,60,0
26.20656,26.283484,79,72,0
26.360407,26.44328,81,72,0
26.360407,26.44328,78,61,0
26.526154,27.141537,91,76,0
26.526154,27.141537,95,90,0
26.526154,27.141537,83,76,0
27.141537,27.21846,93,81,0
27.141537,27.21846,81,68,0
27.141537,27.21846,90,68,0
27.295383,27.372307,88,68,0
27.295383,27.372307,91,81,0
27.295383,27.372307,79,68,0
27.449228,28.064613,93,90,0
27.449228,28.064613,90,76,0
27.449228,28.064613,81,76,0
28.064613,28.141537,79,68,0
28.064613,28.141537,88,68,0
28.064613,28.141537,91,81,0
28.218458,28.295382,90,81,0
28.218458,28.295382,87,68,0
28.218458,28.295382,78,68,0
28.372305,28.449228,88,76,0
28.372305,28.449228,79,76,0
28.372305,28.449228,91,90,0
28.526152,28.603073,90,81,0
28.526152,28.603073,87,68,0
28.526152,28.603073,78,68,0
28.679996,28.75692,76,68,0
28.679996,28.75692,85,68,0
28.679996,28.75692,88,81,0
28.833843,28.910767,90,90,0
28.833843,28.910767,87,76,0
28.833843,28.910767,78,76,0
29.14517,29.228968,71,68,0
29.14517,29.228968,83,81,0
29.312767,29.92036,95,90,0
29.312767,29.92036,92,76,0
29.312767,29.92036,83,76,0
29.92036,29.996311,81,68,0
29.92036,29.996311,90,68,0
29.92036,29.996311,93,81,0
30.07226,30.150183,92,81,0
30.07226,30.150183,88,68,0
30.07226,30.150183,80,68,0
30.228104,30.835697,93,90,0
30.228104,30.835697,81,76,0
30.228104,30.835697,90,76,0
30.835697,30.911648,88,68,0
30.835697,30.911648,92,81,0
30.835697,30.911648,80,68,0
30.987597,31.066338,90,81,0
30.987597,31.066338,78,68,0
30.987597,31.066338,87,68,0
31.145077,31.22122,88,76,0
31.145077,31.22122,92,90,0
31.145077,31.22122,80,76,0
31.297361,31.373505,90,81,0
31.297361,31.373505,87,68,0
31.297361,31.373505,78,68,0
31.449646,31.525787,76,68,0
31.449646,31.525787,85,68,0
31.449646,31.525787,88,81,0
31.60193,31.678072,90,90,0
31.60193,31.678072,87,76,0
31.60193,31.678072,78,76,0
31.9065,31.9903,71,68,0
31.9065,31.9903,83,81,0
32.074097,32.153046,95,97,0
32.074097,32.153046,92,97,0
32.074097,32.153046,83,82,0
32.41326,32.7758,80,77,0
32.41326,32.7758,88,77,0
32.41326,32.7758,92,91,0
32.7758,33.319607,93,91,0
32.7758,33.319607,88,77,0
32.7758,33.319607,81,77,0
33.319607,33.586525,88,75,0
33.319607,33.586525,78,75,0
33.319607,33.586525,90,89,0
33.586525,33.67495,92,79,0
33.586525,33.67495,80,67,0
33.586525,33.67495,88,67,0
33.682987,33.765633,80,74,0
33.682987,33.765633,88,74,0
33.682987,33.765633,92,88,0
34.013565,34.378307,80,81,0
34.013565,34.378307,76,69,0
34.013565,34.378307,68,69,0
34.378307,34.92542,81,81,0
34.378307,34.92542,69,69,0
34.378307,34.92542,76,69,0
34.92542,35.189056,76,67,0
34.92542,35.189056,78,80,0
34.92542,35.189056,66,67,0
35.19712,35.28583,80,71,0
35.19712,35.28583,76,60,0
35.19712,35.28583,68,60,0
35.293896,35.37793,76,66,0
35.293896,35.37793,80,79,0
35.293896,35.37793,68,66,0
35.61386,35.762867,88,80,0
35.594875,35.762867,80,67,0
35.575886,35.762867,76,67,0
35.81254,35.888485,52,66,0
35.81254,35.888485,64,79,0
36.57203,36.720543,88,80,0
36.553043,36.720543,80,67,0
36.534054,36.720543,76,67,0
36.77005,36.845997,64,79,0
36.77005,36.845997,52,66,0
38.009308,38.091278,76,74,0
38.173244,38.25521,81,87,0
38.173244,38.25521,73,87,0
38.173244,38.25521,69,73,0
38.337177,38.415302,61,46,0
38.337177,38.415302,64,55,0
38.493427,38.573856,59,46,0
38.493427,38.573856,62,55,0
38.654285,38.804028,61,60,0
38.654285,38.804028,57,51,0
39.77211,39.850235,64,55,0
39.77211,39.850235,61,46,0
39.92836,40.00879,62,55,0
39.92836,40.00879,59,46,0
40.08922,40.167343,61,60,0
40.08922,40.167343,57,51,0
40.87917,40.961136,69,74,0
41.043102,41.125072,77,87,0
41.043102,41.125072,65,73,0
41.20704,41.285164,69,55,0
41.20704,41.285164,65,46,0
41.36329,41.443718,67,55,0
41.36329,41.443718,64,46,0
41.524147,41.602272,65,60,0
41.524147,41.602272,62,51,0
41.680397,41.758522,65,49,0
41.680397,41.758522,62,41,0
41.836647,41.91622,64,49,0
41.836647,41.91622,57,41,0
41.995796,42.075375,53,49,0
41.995796,42.075375,62,58,0
42.641968,42.720093,69,55,0
42.641968,42.720093,65,46,0
42.798218,42.878647,67,55,0
42.798218,42.878647,64,46,0
42.959076,43.0372,65,60,0
42.959076,43.0372,62,51,0
43.115326,43.19345,62,41,0
43.115326,43.19345,65,49,0
43.271576,43.35115,57,41,0
43.271576,43.35115,64,49,0
43.43073,43.510303,62,58,0
43.43073,43.510303,53,49,0
43.74903,43.830997,72,74,0
43.912964,43.99493,81,87,0
43.912964,43.99493,69,73,0
44.076897,44.15502,72,55,0
44.076897,44.15502,69,46,0
44.233147,44.313576,67,46,0
44.233147,44.313576,70,55,0
44.394005,44.47213,65,51,0
44.394005,44.47213,69,60,0
44.550255,44.62838,65,41,0
44.550255,44.62838,69,49,0
44.706505,44.786083,67,49,0
44.706505,44.786083,60,41,0
44.865658,44.945232,57,49,0
44.865658,44.945232,65,58,0
45.51183,45.589954,69,46,0
45.51183,45.589954,72,55,0
45.66808,45.74851,70,55,0
45.66808,45.74851,67,46,0
45.828938,45.907063,69,60,0
45.828938,45.907063,65,51,0
45.985188,46.063313,69,49,0
45.985188,46.063313,65,41,0
46.141438,46.221012,60,41,0
46.141438,46.221012,67,49,0
46.300587,46.38016,57,49,0
46.300587,46.38016,65,58,0
46.61889,46.700855,77,74,0
46.782825,46.86479,86,87,0
46.782825,46.86479,74,73,0
46.94676,47.024883,74,55,0
46.94676,47.024883,70,46,0
47.10301,47.183437,65,46,0
47.10301,47.183437,72,55,0
47.263866,47.34199,70,60,0
47.263866,47.34199,62,51,0
48.053818,48.135788,74,64,0
48.217754,48.29972,71,62,0
48.217754,48.29972,83,73,0
48.381687,48.459812,68,46,0
48.381687,48.459812,71,55,0
48.537937,48.618366,66,46,0
48.537937,48.618366,69,55,0
48.698795,48.77692,65,51,0
48.698795,48.77692,68,60,0
49.48875,49.570717,71,48,0
49.652683,49.73465,80,58,0
49.652683,49.73465,68,49,0
49.81662,49.894745,65,43,0
49.81662,49.894745,68,51,0
49.97287,50.0533,64,40,0
49.97287,50.0533,67,48,0
50.133728,50.211853,62,38,0
50.133728,50.211853,65,45,0
50.92368,51.087612,71,74,0
51.087612,51.169582,65,71,0
51.087612,51.169582,77,83,0
51.41548,51.893627,65,49,0
51.907288,52.39909,65,49,0
52.39909,52.563023,71,74,0
52.563023,52.644993,78,83,0
52.563023,52.644993,66,71,0
52.890892,53.369038,66,49,0
53.382698,53.8745,66,49,0
53.8745,54.038437,71,74,0
54.038437,54.120403,77,71,0
54.038437,54.120403,67,71,0
54.038437,54.120403,74,71,0
54.038437,54.120403,79,83,0
54.366302,54.844448,77,60,0
54.366302,54.844448,74,60,0
54.366302,54.844448,67,60,0
54.366302,54.844448,71,60,0
54.366302,54.844448,79,71,0
54.85811,55.33625,77,62,0
54.85811,55.33625,67,62,0
54.85811,55.33625,71,62,0
54.85811,55.33625,74,62,0
54.85811,55.34991,79,74,0
55.34991,55.45237,67,66,0
55.34991,55.45237,77,78,0
55.34991,55.45237,71,66,0
55.34991,55.45237,74,66,0
55.34991,55.45237,79,78,0
55.513847,55.595814,91,87,0
55.45237,55.595814,79,76,0
55.472862,55.595814,83,79,0
55.493355,55.595814,89,83,0
55.841713,56.33352,77,60,0
55.841713,56.33352,79,71,0
55.841713,56.33352,67,60,0
56.33352,56.415485,79,71,0
56.33352,56.415485,77,60,0
56.33352,56.415485,67,60,0
56.49745,56.57942,77,58,0
56.49745,56.57942,79,69,0
56.49745,56.57942,67,58,0
56.66139,56.743355,81,73,0
56.66139,56.743355,69,62,0
56.66139,56.743355,77,62,0
56.82532,56.907288,71,65,0
56.82532,56.907288,77,65,0
56.82532,56.907288,83,77,0
56.989258,57.071224,84,82,0
56.989258,57.071224,72,69,0
56.989258,57.071224,76,69,0
57.30282,57.37763,64,54,0
57.30282,57.37763,60,45,0
57.452442,57.527256,60,50,0
57.452442,57.527256,64,59,0
57.60207,57.67688,62,45,0
57.60207,57.67688,65,53,0
57.751694,57.826508,67,53,0
57.751694,57.826508,64,45,0
57.90132,57.976135,69,59,0
57.90132,57.976135,65,50,0
58.050945,58.12787,67,54,0
58.050945,58.12787,64,45,0
58.204792,58.316734,84,80,0
58.185562,58.316734,76,67,0
58.166332,58.316734,72,67,0
58.354046,58.428673,64,59,0
58.354046,58.428673,60,50,0
58.5033,58.577927,65,53,0
58.5033,58.577927,62,45,0
58.652554,58.72718,64,45,0
58.652554,58.72718,67,53,0
58.801807,58.876434,65,50,0
58.801807,58.876434,69,59,0
58.95106,59.02569,64,45,0
58.95106,59.02569,67,54,0
59.100315,59.174942,69,53,0
59.100315,59.174942,65,45,0
59.249565,59.324192,67,50,0
59.249565,59.324192,71,59,0
59.39882,59.473446,72,54,0
59.39882,59.473446,69,45,0
59.548073,59.62441,71,45,0
59.548073,59.62441,74,53,0
59.700745,59.81241,88,80,0
59.66258,59.81241,76,67,0
59.6753,59.81241,79,67,0
59.688023,59.81241,85,67,0
59.998512,60.072956,64,54,0
59.998512,60.072956,61,45,0
60.147396,60.22184,64,60,0
60.147396,60.22184,61,51,0
60.29628,60.37072,65,56,0
60.29628,60.37072,62,46,0
60.445164,60.519604,67,57,0
60.445164,60.519604,64,48,0
60.594048,60.668488,65,55,0
60.594048,60.668488,69,65,0
60.74293,60.819855,64,51,0
60.74293,60.819855,67,61,0
60.89678,61.008717,88,93,0
60.858315,61.008717,76,78,0
60.871136,61.008717,79,78,0
60.883957,61.008717,85,78,0
61.04603,61.120655,67,59,0
61.04603,61.120655,64,50,0
61.195282,61.26991,65,45,0
61.195282,61.26991,69,53,0
61.344536,61.419163,71,53,0
61.344536,61.419163,67,45,0
61.49379,61.568417,73,59,0
61.49379,61.568417,69,50,0
61.643044,61.71767,67,45,0
61.643044,61.71767,71,54,0
61.792297,61.866924,69,45,0
61.792297,61.866924,73,53,0
61.94155,62.01618,74,59,0
61.94155,62.01618,71,50,0
62.090805,62.165432,73,45,0
62.090805,62.165432,76,54,0
62.24006,62.316395,79,53,0
62.24006,62.316395,76,45,0
62.39273,62.504395,93,80,0
62.35456,62.504395,81,67,0
62.367283,62.504395,84,67,0
62.38001,62.504395,89,67,0
62.6905,62.76494,69,54,0
62.6905,62.76494,65,45,0
62.839382,62.913822,65,51,0
62.839382,62.913822,69,60,0
62.988262,63.062706,70,56,0
62.988262,63.062706,67,46,0
63.137146,63.21159,72,57,0
63.137146,63.21159,69,48,0
63.28603,63.360474,74,65,0
63.28603,63.360474,70,55,0
63.434914,63.511837,72,61,0
63.434914,63.511837,69,51,0
63.58876,63.7007,93,93,0
63.5503,63.7007,81,78,0
63.563118,63.7007,84,78,0
63.57594,63.7007,89,78,0
63.738014,63.81264,71,54,0
63.738014,63.81264,79,54,0
63.738014,63.81264,83,65,0
63.887268,63.961895,84,60,0
63.887268,63.961895,72,50,0
63.887268,63.961895,81,50,0
64.03652,64.111145,74,51,0
64.03652,64.111145,86,62,0
64.03652,64.111145,83,51,0
64.185776,64.2604,88,71,0
64.185776,64.2604,76,59,0
64.185776,64.2604,84,59,0
64.33503,64.40965,89,66,0
64.33503,64.40965,77,56,0
64.33503,64.40965,86,56,0
64.48428,64.55891,83,56,0
64.48428,64.55891,91,67,0
64.48428,64.55891,79,56,0
64.63354,64.70816,91,77,0
64.63354,64.70816,83,64,0
64.63354,64.70816,79,64,0
64.78279,64.85971,79,60,0
64.78279,64.85971,91,72,0
64.78279,64.85971,83,60,0
64.93664,65.01951,83,61,0
64.93664,65.01951,79,61,0
64.93664,65.01951,91,72,0
65.10238,65.71905,91,90,0
65.10238,65.71905,84,76,0
65.10238,65.71905,79,76,0
65.71905,65.79519,77,68,0
65.71905,65.79519,89,81,0
65.71905,65.79519,84,68,0
65.87133,65.94747,84,68,0
65.87133,65.94747,88,81,0
65.87133,65.94747,76,68,0
66.02362,66.64028,77,76,0
66.02362,66.64028,89,90,0
66.02362,66.64028,84,76,0
66.64028,66.71623,84,68,0
66.64028,66.71623,76,68,0
66.64028,66.71623,88,81,0
66.792175,66.868126,74,68,0
66.792175,66.868126,86,81,0
66.792175,66.868126,84,68,0
66.94408,67.02139,76,76,0
66.94408,67.02139,88,90,0
66.94408,67.02139,84,76,0
67.09872,67.17467,86,81,0
67.09872,67.17467,74,68,0
67.25062,67.32656,84,81,0
67.25062,67.32656,72,68,0
67.40251,67.47846,86,90,0
67.40251,67.47846,74,76,0
67.71189,67.79569,67,68,0
67.71189,67.79569,79,81,0
67.87949,68.495384,79,76,0
67.87949,68.495384,84,76,0
67.87949,68.495384,91,90,0
68.495384,68.571526,84,68,0
68.495384,68.571526,89,81,0
68.495384,68.571526,77,68,0
68.64767,68.723816,75,68,0
68.64767,68.723816,87,81,0
68.64767,68.723816,84,68,0
68.79996,69.41589,77,76,0
68.79996,69.41589,84,76,0
68.79996,69.41589,89,90,0
69.41589,69.491844,75,68,0
69.41589,69.491844,84,68,0
69.41589,69.491844,87,81,0
69.567795,69.64374,86,81,0
69.567795,69.64374,84,68,0
69.567795,69.64374,74,68,0
69.71969,69.79583,84,76,0
69.71969,69.79583,75,76,0
69.71969,69.79583,87,90,0
69.87197,69.94811,74,68,0
69.87197,69.94811,86,81,0
70.02426,70.1004,84,81,0
70.02426,70.1004,72,68,0
70.176544,70.252686,86,90,0
70.176544,70.252686,74,76,0
70.48111,70.56491,79,81,0
70.48111,70.56491,67,68,0
70.64871,70.72765,84,97,0
70.64871,70.72765,79,82,0
70.64871,70.72765,91,97,0
70.9645,71.312325,84,77,0
70.9645,71.312325,76,77,0
70.9645,71.312325,88,91,0
71.312325,71.83406,77,77,0
71.312325,71.83406,89,91,0
71.312325,71.83406,84,77,0
71.83406,72.09512,74,75,0
71.83406,72.09512,86,89,0
71.83406,72.09512,84,75,0
72.09512,72.180786,76,67,0
72.09512,72.180786,88,79,0
72.09512,72.180786,84,67,0
72.188576,72.271225,84,74,0
72.188576,72.271225,88,88,0
72.188576,72.271225,76,74,0
72.51916,72.87314,76,81,0
72.51916,72.87314,72,69,0
72.51916,72.87314,64,69,0
72.87314,73.40411,72,69,0
72.87314,73.40411,77,81,0
72.87314,73.40411,65,69,0
73.40411,73.6635,74,80,0
73.40411,73.6635,62,67,0
73.40411,73.6635,72,67,0
73.671364,73.75784,72,60,0
73.671364,73.75784,64,60,0
73.671364,73.75784,76,71,0
73.7657,73.84973,76,79,0
73.7657,73.84973,64,66,0
73.7657,73.84973,72,66,0
74.08567,74.23467,84,80,0
74.06668,74.23467,76,67,0
74.04769,74.23467,72,67,0
74.28434,74.36029,60,79,0
75.04384,75.19235,84,80,0
75.02485,75.19235,76,67,0
75.00586,75.19235,72,67,0
75.24185,75.3178,60,79,0
76.912735,77.054695,84,49,0
76.855774,77.054695,72,42,0
76.87476,77.054695,74,42,0
76.89375,77.054695,78,41,0
77.10201,77.17796,60,44,0
77.8615,78.003914,84,46,0
77.80454,78.003914,72,39,0
77.82353,78.003914,74,39,0
77.84252,78.003914,78,38,0
78.05138,78.12733,60,37,0
79.90416,80.09123,71,40,0
79.90416,80.09123,67,34,0
79.90416,80.09123,62,34,0
80.108246,81.167725,62,40,0
80.108246,81.167725,67,40,0
80.108246,81.167725,71,48,0
81.17662,81.3807,71,33,0
81.17662,81.3807,64,33,0
81.17662,81.3807,67,33,0
81.17662,81.3807,74,39,0
81.3807,82.231766,74,48,0
81.3807,82.231766,64,40,0
81.3807,82.231766,67,40,0
81.3807,82.231766,71,40,0
82.478676,82.69437,79,54,0
82.478676,82.69437,76,45,0
82.478676,82.69437,72,45,0
82.478676,82.69437,69,45,0
82.713974,84.393074,76,49,0
82.713974,84.393074,69,49,0
82.713974,84.393074,79,58,0
82.713974,84.393074,72,49,0
84.393074,84.6036,76,50,0
84.393074,84.6036,69,42,0
84.393074,84.6036,67,42,0
84.6036,85.02465,64,45,0
84.6036,85.02465,67,45,0
84.6036,85.02465,72,54,0
85.02465,85.25994,71,46,0
85.02465,85.25994,67,39,0
85.02465,85.25994,62,39,0
85.25994,85.68699,68,50,0
85.25994,85.68699,59,42,0
85.25994,85.68699,66,42,0
85.68699,85.90051,66,39,0
85.68699,85.90051,69,47,0
85.68699,85.90051,60,39,0
85.90051,86.57102,64,45,0
85.90051,86.57102,72,53,0
86.57102,86.99959,66,50,0
86.57102,86.99959,62,42,0
87.64245,87.82952,67,34,0
87.64245,87.82952,62,34,0
87.64245,87.82952,71,40,0
87.84653,88.89055,71,48,0
87.84653,88.89055,67,40,0
87.84653,88.89055,62,40,0
88.89926,89.10334,74,39,0
88.89926,89.10334,71,33,0
88.89926,89.10334,67,33,0
88.89926,89.10334,64,33,0
89.10334,89.93466,71,40,0
89.10334,89.93466,64,40,0
89.10334,89.93466,74,48,0
89.10334,89.93466,67,40,0
90.22174,90.45091,79,49,0
90.22174,90.45091,73,49,0
90.22174,90.45091,76,49,0
90.22174,90.45091,83,59,0
90.47174,92.15084,73,53,0
90.47174,92.15084,76,53,0
90.47174,92.15084,83,63,0
90.47174,92.15084,79,53,0
92.15084,92.36137,76,42,0
92.15084,92.36137,73,42,0
92.15084,92.36137,81,50,0
92.36137,92.78242,79,54,0
92.36137,92.78242,73,45,0
92.36137,92.78242,71,45,0
92.78242,93.017715,69,39,0
92.78242,93.017715,73,39,0
92.78242,93.017715,78,46,0
93.017715,93.23124,75,49,0
93.017715,93.23124,73,41,0
93.017715,93.23124,66,41,0
93.23124,93.44476,76,44,0
93.23124,93.44476,67,37,0
93.23124,93.44476,73,37,0
93.44476,93.65829,73,44,0
93.44476,93.65829,79,44,0
93.44476,93.65829,71,37,0
93.65829,94.72895,78,51,0
93.65829,94.72895,69,43,0
93.65829,94.72895,73,43,0
94.72895,94.96151,73,39,0
94.72895,94.96151,76,39,0
94.72895,94.96151,67,33,0
94.96151,95.628174,66,38,0
94.96151,96.082054,74,45,0
94.96151,96.082054,69,38,0
96.082054,96.304276,76,36,0
96.304276,96.74872,72,42,0
96.74872,96.99462,71,32,0
96.99462,97.439064,68,41,0
97.439064,97.661285,69,35,0
97.661285,98.77831,72,40,0
98.77831,99.01361,67,34,0
99.01361,99.45805,65,41,0
99.45805,99.680275,66,35,0
99.01361,99.680275,62,34,0
100.13063,100.35285,79,36,0
100.35285,100.7973,76,42,0
100.7973,101.034454,72,32,0
100.13063,101.034454,69,39,0
101.034454,101.4789,71,41,0
101.034454,101.4789,68,34,0
101.034454,101.4789,62,34,0
101.4789,101.70112,69,29,0
101.4789,101.70112,72,35,0
101.70112,102.374626,62,34,0
101.70112,102.81743,76,40,0
101.70112,102.81743,72,40,0
102.81743,103.05365,67,28,0
102.81743,103.05365,71,34,0
103.05365,103.49645,65,28,0
103.05365,103.49645,68,41,0
103.49645,103.71786,69,35,0
103.49645,103.71786,66,29,0
104.16827,104.38967,83,41,0
104.38967,104.83247,79,47,0
104.83247,105.06324,76,34,0
104.16827,105.06324,72,39,0
105.51188,105.7341,83,41,0
105.7341,106.17854,79,47,0
106.17854,106.40843,76,34,0
105.51188,106.40843,72,39,0
106.85797,107.07856,81,41,0
107.07856,107.51974,79,47,0
107.51974,107.74962,76,34,0
106.85797,107.74962,72,39,0
108.190796,108.411385,79,41,0
108.411385,108.85256,76,47,0
108.85256,109.08694,72,34,0
108.190796,109.08694,69,39,0
109.56151,109.79407,69,39,0
109.56151,109.79407,72,47,0
109.56151,109.79407,78,47,0
109.79407,110.259186,76,53,0
109.79407,110.259186,72,53,0
109.79407,110.259186,69,45,0
110.259186,110.49174,69,39,0
110.259186,110.49174,74,46,0
110.49174,110.956856,72,54,0
110.49174,110.956856,69,45,0
110.956856,111.25388,71,45,0
110.956856,111.25388,67,38,0
112.29285,113.1752,73,38,0
113.1752,114.08429,76,37,0
111.25388,114.08429,70,41,0
111.25388,114.08429,67,34,0
114.08429,117.14162,69,37,0
114.08429,117.14162,62,31,0
117.952354,118.13943,71,40,0
117.952354,118.13943,62,34,0
117.952354,118.13943,67,34,0
118.15643,119.21591,67,40,0
118.15643,119.21591,71,48,0
118.15643,119.21591,62,40,0
119.22481,119.428894,64,33,0
119.22481,119.428894,67,33,0
119.22481,119.428894,74,39,0
119.22481,119.428894,71,33,0
119.428894,120.27995,64,40,0
119.428894,120.27995,71,40,0
119.428894,120.27995,74,48,0
119.428894,120.27995,67,40,0
120.52687,120.74255,72,45,0
120.52687,120.74255,69,45,0
120.52687,120.74255,79,54,0
120.52687,120.74255,76,45,0
120.76216,122.44126,79,58,0
120.76216,122.44126,69,49,0
120.76216,122.44126,72,49,0
120.76216,122.44126,76,49,0
122.44126,122.65179,76,50,0
122.44126,122.65179,67,42,0
122.44126,122.65179,69,42,0
122.65179,123.07284,67,45,0
122.65179,123.07284,72,54,0
122.65179,123.07284,64,45,0
123.07284,123.308136,71,46,0
123.07284,123.308136,62,39,0
123.07284,123.308136,67,39,0
123.308136,123.73518,66,42,0
123.308136,123.73518,68,50,0
123.308136,123.73518,59,42,0
123.73518,123.94871,69,47,0
123.73518,123.94871,66,39,0
123.73518,123.94871,60,39,0
123.94871,124.61921,64,45,0
123.94871,124.61921,72,53,0
124.61921,125.04778,62,42,0
124.61921,125.04778,66,50,0
125.690636,125.877716,71,40,0
125.690636,125.877716,67,34,0
125.690636,125.877716,62,34,0
125.89472,126.933655,71,48,0
125.89472,126.933655,62,40,0
125.89472,126.933655,67,40,0
126.94234,127.14642,67,33,0
126.94234,127.14642,64,33,0
126.94234,127.14642,74,39,0
126.94234,127.14642,71,33,0
127.14642,128.18019,74,48,0
127.14642,128.18019,64,40,0
127.14642,128.18019,67,40,0
127.14642,128.18019,71,40,0
128.18896,128.37415,74,46,0
128.18896,128.37415,66,39,0
128.18896,128.37415,71,39,0
128.39098,129.3997,71,46,0
128.39098,129.3997,74,55,0
128.39098,129.3997,66,46,0
129.40811,129.60878,67,42,0
129.40811,129.60878,71,42,0
129.40811,129.60878,78,50,0
129.40811,129.60878,74,42,0
129.60878,130.60355,67,52,0
129.60878,130.60355,74,52,0
129.60878,130.60355,78,63,0
129.60878,130.60355,71,52,0
130.61182,130.8159,74,44,0
130.61182,130.8159,78,52,0
130.61182,130.8159,69,44,0
130.8159,131.83002,78,66,0
130.8159,131.83002,69,55,0
130.8159,131.83002,74,55,0
131.83879,132.07225,78,47,0
131.83879,132.07225,71,47,0
131.83879,132.07225,81,57,0
131.83879,132.07225,74,47,0
132.07225,133.331,78,60,0
133.331,134.99107,77,65,0
132.07225,134.99107,81,73,0
132.07225,134.99107,74,60,0
132.07225,134.99107,71,60,0
134.99107,135.19797,80,55,0
134.99107,135.19797,74,46,0
134.99107,135.19797,71,46,0
135.19797,135.8549,83,69,0
135.8549,136.26306,68,46,0
135.8549,136.26306,74,55,0
137.07468,137.72922,76,69,0
136.86848,137.72922,73,55,0
136.86848,137.72922,69,46,0
137.72922,138.13737,67,55,0
138.7428,138.94969,84,55,0
138.7428,138.94969,76,46,0
138.7428,138.94969,78,46,0
138.94969,139.60425,88,74,0
139.60425,140.0124,72,46,0
139.60425,140.0124,78,55,0
140.84586,141.52002,81,58,0
140.63606,141.52002,72,39,0
140.63606,141.52002,74,39,0
140.63606,141.52002,77,46,0
141.52002,141.94705,74,46,0
141.52002,141.94705,71,43,0
142.58916,142.77623,76,40,0
142.58916,142.77623,72,34,0
142.58916,142.77623,67,34,0
142.79323,143.84604,72,40,0
142.79323,143.84604,67,40,0
142.79323,143.84604,76,48,0
143.85484,144.05893,76,33,0
143.85484,144.05893,69,33,0
143.85484,144.05893,72,33,0
143.85484,144.05893,79,39,0
144.05893,145.15216,69,40,0
144.05893,145.15216,72,40,0
144.05893,145.15216,79,48,0
144.05893,145.15216,76,40,0
145.16307,145.37875,74,45,0
145.16307,145.37875,81,45,0
145.16307,145.37875,84,54,0
145.16307,145.37875,77,45,0
145.39836,147.07747,77,49,0
145.39836,147.07747,74,49,0
145.39836,147.07747,84,58,0
145.39836,147.07747,81,49,0
147.07747,147.288,81,50,0
147.07747,147.288,74,42,0
147.07747,147.288,72,42,0
147.288,147.70905,72,45,0
147.288,147.70905,69,45,0
147.288,147.70905,77,54,0
147.70905,147.94434,76,46,0
147.70905,147.94434,72,39,0
147.70905,147.94434,67,39,0
147.94434,148.37138,64,42,0
147.94434,148.37138,71,42,0
147.94434,148.37138,73,50,0
148.37138,148.5849,74,47,0
148.37138,148.5849,71,39,0
148.37138,148.5849,65,39,0
148.5849,149.25542,69,45,0
148.5849,149.25542,77,53,0
149.25542,149.68399,71,50,0
149.25542,149.68399,67,42,0
150.32684,150.51392,67,34,0
150.32684,150.51392,72,34,0
150.32684,150.51392,76,40,0
150.53091,151.58147,76,48,0
150.53091,151.58147,72,40,0
150.53091,151.58147,67,40,0
151.59027,151.79436,69,33,0
151.59027,151.79436,76,33,0
151.59027,151.79436,79,39,0
151.59027,151.79436,72,33,0
151.79436,152.62996,72,40,0
151.79436,152.62996,69,40,0
151.79436,152.62996,79,48,0
151.79436,152.62996,76,40,0
152.91704,153.14621,88,59,0
152.91704,153.14621,78,49,0
152.91704,153.14621,81,49,0
152.91704,153.14621,84,49,0
153.16704,154.83884,78,53,0
153.16704,154.83884,81,53,0
153.16704,154.83884,88,63,0
153.16704,154.83884,84,53,0
154.83884,155.04936,78,42,0
154.83884,155.04936,81,42,0
154.83884,155.04936,86,50,0
155.04936,155.47041,84,54,0
155.04936,155.47041,78,45,0
155.04936,155.47041,76,45,0
155.47041,155.7057,78,39,0
155.47041,155.7057,74,39,0
155.47041,155.7057,83,46,0
155.7057,155.91922,80,49,0
155.7057,155.91922,78,41,0
155.7057,155.91922,71,41,0
155.91922,156.13275,72,37,0
155.91922,156.13275,78,37,0
155.91922,156.13275,81,44,0
156.13275,156.34627,84,44,0
156.13275,156.34627,78,44,0
156.13275,156.34627,76,37,0
156.34627,157.41693,83,51,0
156.34627,157.41693,74,43,0
156.34627,157.41693,78,43,0
157.41693,157.64949,78,39,0
157.41693,157.64949,81,39,0
157.41693,157.64949,72,33,0
157.64949,157.86302,68,49,0
157.64949,157.86302,59,41,0
157.64949,157.86302,66,41,0
157.86302,158.07654,66,37,0
157.86302,158.07654,69,44,0
157.86302,158.07654,60,37,0
158.07654,158.29007,72,44,0
158.07654,158.29007,66,44,0
158.07654,158.29007,64,37,0
158.29007,159.36073,62,43,0
158.29007,159.36073,66,43,0
158.29007,159.36073,71,51,0
159.36073,159.61824,69,39,0
159.36073,159.61824,66,39,0
159.36073,159.61824,60,33,0
159.61824,159.83643,80,56,0
159.61824,159.83643,73,56,0
159.61824,159.83643,82,67,0
159.83643,160.05461,83,60,0
159.83643,160.05461,80,50,0
159.83643,160.05461,74,50,0
160.05461,160.28188,77,50,0
160.05461,160.28188,80,60,0
160.05461,160.28188,86,60,0
160.28188,161.37598,84,69,0
160.28188,161.37598,80,58,0
160.28188,161.37598,76,58,0
161.37598,161.60854,83,52,0
161.37598,161.60854,74,44,0
161.37598,161.60854,80,52,0
161.60854,161.82912,68,56,0
161.60854,161.82912,70,67,0
161.60854,161.82912,61,56,0
161.82912,162.0497,71,60,0
161.82912,162.0497,62,50,0
161.82912,162.0497,68,50,0
162.0497,162.27872,68,60,0
162.0497,162.27872,74,60,0
162.0497,162.27872,65,50,0
162.27872,163.37924,72,69,0
162.27872,163.37924,68,58,0
162.27872,163.37924,64,58,0
163.37924,163.61179,62,44,0
163.37924,163.61179,68,52,0
163.37924,163.61179,71,52,0
163.61179,163.83319,83,70,0
163.61179,163.83319,80,58,0
163.61179,163.83319,74,58,0
163.83319,164.0546,81,52,0
163.83319,164.0546,76,52,0
163.83319,164.0546,84,62,0
164.0546,164.26677,90,62,0
164.0546,164.26677,84,62,0
164.0546,164.26677,81,52,0
164.276,165.39293,81,61,0
164.276,165.39293,84,61,0
164.276,165.39293,90,72,0
165.39293,165.6325,93,73,0
165.39293,165.6325,88,62,0
165.39293,165.6325,84,62,0
165.64293,166.82402,93,78,0
165.64293,166.82402,84,66,0
165.64293,166.82402,88,66,0
166.82402,167.06596,84,55,0
166.82402,167.06596,90,65,0
166.82402,167.06596,81,55,0
167.06596,167.5832,86,72,0
167.06596,167.5832,78,61,0
167.06596,167.5832,81,61,0
167.5832,167.88623,81,54,0
167.5832,167.88623,84,64,0
167.5832,167.88623,76,54,0
167.88623,168.12624,80,63,0
167.88623,168.12624,78,53,0
167.88623,168.12624,71,53,0
168.12624,168.36623,72,46,0
168.12624,168.36623,78,46,0
168.12624,168.36623,81,55,0
168.36623,168.60623,84,54,0
168.36623,168.60623,78,54,0
168.36623,168.60623,76,45,0
168.60623,169.87628,78,51,0
168.60623,169.87628,74,51,0
168.60623,169.87628,83,61,0
169.87628,170.19344,81,40,0
169.87628,170.19344,78,40,0
169.87628,170.19344,72,34,0
170.2495,170.36172,79,67,0
170.2308,170.36172,71,54,0
170.2121,170.36172,67,55,0
170.54875,170.62357,59,37,0
170.69838,170.7732,55,35,0
170.69838,170.7732,59,41,0
170.848,170.92282,60,37,0
170.848,170.92282,57,31,0
170.99763,171.07245,59,31,0
170.99763,171.07245,62,37,0
171.14726,171.22208,64,41,0
171.14726,171.22208,60,35,0
171.29689,171.37381,59,31,0
171.29689,171.37381,62,37,0
171.45073,171.56267,79,64,0
171.4315,171.56267,71,55,0
171.41226,171.56267,67,51,0
171.59999,171.6746,55,35,0
171.59999,171.6746,59,41,0
171.74924,171.82387,60,37,0
171.74924,171.82387,57,31,0
171.89848,171.97311,59,31,0
171.89848,171.97311,62,37,0
172.04774,172.12238,64,41,0
172.04774,172.12238,60,35,0
172.19699,172.27353,62,37,0
172.19699,172.27353,59,31,0
172.35005,172.46228,79,64,0
172.33093,172.46228,71,49,0
172.3118,172.46228,67,49,0
172.79893,172.9275,79,65,0
172.78023,172.9275,71,49,0
172.76154,172.9275,67,49,0
172.97037,173.08203,69,52,0
172.97037,173.08203,72,52,0
172.97037,173.08203,81,64,0
173.26813,173.34258,57,38,0
173.26813,173.34258,53,28,0
173.41702,173.49146,53,36,0
173.41702,173.49146,57,42,0
173.5659,173.64034,58,40,0
173.5659,173.64034,55,33,0
173.71478,173.78923,60,41,0
173.71478,173.78923,57,34,0
173.86366,173.93811,62,47,0
173.86366,173.93811,58,40,0
174.01254,174.08948,60,44,0
174.01254,174.08948,57,37,0
174.1664,174.27834,81,68,0
174.1664,174.27834,72,57,0
174.1664,174.27834,69,57,0
174.31564,174.39009,57,45,0
174.31564,174.39009,53,38,0
174.46454,174.53897,55,34,0
174.46454,174.53897,58,42,0
174.61342,174.68785,57,36,0
174.61342,174.68785,60,43,0
175.06503,175.17697,81,71,0
175.06503,175.17697,69,60,0
175.06503,175.17697,72,60,0
175.51701,175.64201,72,61,0
175.51701,175.64201,81,73,0
175.51701,175.64201,69,61,0
175.68369,175.79533,83,73,0
175.68369,175.79533,80,60,0
175.68369,175.79533,71,60,0
175.98145,176.0559,56,43,0
175.98145,176.0559,52,35,0
176.13033,176.20477,52,41,0
176.13033,176.20477,56,48,0
176.2792,176.35365,54,37,0
176.2792,176.35365,57,45,0
176.4281,176.50253,59,46,0
176.4281,176.50253,56,39,0
176.57698,176.65143,60,53,0
176.57698,176.65143,57,45,0
176.72586,176.80896,56,42,0
176.72586,176.80896,59,50,0
176.89207,177.00401,83,78,0
176.87129,177.00401,80,65,0
176.85051,177.00401,71,65,0
177.04132,177.11577,52,43,0
177.04132,177.11577,56,51,0
177.1902,177.26465,54,39,0
177.1902,177.26465,57,47,0
177.33908,177.41353,56,41,0
177.33908,177.41353,59,49,0
177.7907,177.90265,83,80,0
177.7907,177.90265,80,67,0
177.7907,177.90265,71,67,0
178.24269,178.36597,71,69,0
178.24269,178.36597,83,82,0
178.24269,178.36597,80,69,0
178.40707,178.51874,86,82,0
178.36597,178.51874,74,63,0
178.37967,178.51874,77,66,0
178.39337,178.51874,81,68,0
178.70483,178.77928,65,49,0
178.70483,178.77928,62,46,0
178.85371,178.92816,65,54,0
178.85371,178.92816,62,46,0
179.00261,179.07704,67,51,0
179.00261,179.07704,64,42,0
179.15149,179.22592,65,44,0
179.15149,179.22592,69,52,0
179.30037,179.37482,70,60,0
179.30037,179.37482,67,51,0
179.44925,179.52617,65,47,0
179.44925,179.52617,69,56,0
179.6031,179.72571,86,87,0
179.56464,179.72571,74,73,0
179.57745,179.72571,77,73,0
179.59027,179.72571,81,73,0
179.76659,179.84103,65,57,0
179.76659,179.84103,62,48,0
179.91547,179.98991,67,53,0
179.91547,179.98991,64,43,0
180.06435,180.1388,69,54,0
180.06435,180.1388,65,46,0
180.51596,180.6279,86,90,0
180.47751,180.6279,74,75,0
180.49033,180.6279,77,75,0
180.50314,180.6279,81,75,0
180.96794,181.0886,86,92,0
180.92949,181.0886,74,77,0
180.9423,181.0886,77,77,0
180.95512,181.0886,81,77,0
181.12675,181.23842,91,80,0
181.10768,181.23842,83,67,0
181.0886,181.23842,77,67,0
181.42453,181.49896,67,45,0
181.42453,181.49896,71,54,0
181.57341,181.64786,67,51,0
181.57341,181.64786,71,60,0
181.72229,181.79674,69,46,0
181.72229,181.79674,72,56,0
181.87119,181.94562,71,48,0
181.87119,181.94562,74,57,0
182.02007,182.0945,76,65,0
182.02007,182.0945,72,55,0
182.16895,182.2498,71,51,0
182.16895,182.2498,74,61,0
182.33067,182.44261,91,93,0
182.31046,182.44261,83,78,0
182.29024,182.44261,77,78,0
182.47992,182.55455,71,59,0
182.47992,182.55455,67,50,0
182.62918,182.7038,69,45,0
182.62918,182.7038,72,53,0
182.77843,182.85306,71,45,0
182.77843,182.85306,74,53,0
182.92769,183.0023,72,50,0
182.92769,183.0023,76,59,0
183.07693,183.15157,74,54,0
183.07693,183.15157,71,45,0
183.2262,183.30081,72,45,0
183.2262,183.30081,76,53,0
183.37544,183.45007,74,50,0
183.37544,183.45007,77,59,0
183.5247,183.59932,79,54,0
183.5247,183.59932,76,45,0
183.67395,183.75636,81,53,0
183.67395,183.75636,77,45,0
183.83879,183.95045,91,93,0
183.81818,183.95045,83,78,0
183.79758,183.95045,79,78,0
184.13655,184.211,71,45,0
184.13655,184.211,74,54,0
184.28543,184.35988,71,51,0
184.28543,184.35988,74,60,0
184.43433,184.50876,72,46,0
184.43433,184.50876,76,56,0
184.5832,184.65764,74,48,0
184.5832,184.65764,77,57,0
184.73209,184.80653,79,65,0
184.73209,184.80653,76,55,0
184.88097,184.96477,74,51,0
184.88097,184.96477,77,61,0
185.04857,185.1605,91,93,0
185.02762,185.1605,83,78,0
185.00667,185.1605,79,78,0
185.19781,185.27245,86,65,0
185.19781,185.27245,83,54,0
185.19781,185.27245,74,54,0
185.34708,185.4217,88,60,0
185.34708,185.4217,76,50,0
185.34708,185.4217,84,50,0
185.49632,185.57095,86,51,0
185.49632,185.57095,77,51,0
185.49632,185.57095,89,62,0
185.64558,185.72021,79,59,0
185.64558,185.72021,88,59,0
185.64558,185.72021,91,71,0
185.79483,185.86946,89,56,0
185.79483,185.86946,81,56,0
185.79483,185.86946,93,66,0
185.94409,186.01872,94,67,0
185.94409,186.01872,91,56,0
185.94409,186.01872,82,56,0
186.09334,186.16797,91,64,0
186.09334,186.16797,82,64,0
186.09334,186.16797,94,77,0
186.2426,186.31952,91,60,0
186.2426,186.31952,82,60,0
186.2426,186.31952,94,72,0
186.39644,186.47931,91,61,0
186.39644,186.47931,94,72,0
186.39644,186.47931,82,61,0
186.5622,187.17886,83,76,0
186.5622,187.17886,91,76,0
186.5622,187.17886,95,90,0
187.17886,187.255,90,68,0
187.17886,187.255,93,81,0
187.17886,187.255,81,68,0
187.33115,187.40729,79,68,0
187.33115,187.40729,91,81,0
187.33115,187.40729,88,68,0
187.48343,188.10008,81,76,0
187.48343,188.10008,93,90,0
187.48343,188.10008,90,76,0
188.10008,188.17604,91,81,0
188.10008,188.17604,88,68,0
188.10008,188.17604,79,68,0
188.25198,188.32794,90,81,0
188.25198,188.32794,87,68,0
188.25198,188.32794,78,68,0
188.40388,188.4812,88,76,0
188.40388,188.4812,91,90,0
188.40388,188.4812,79,76,0
188.55852,188.63448,78,68,0
188.55852,188.63448,90,81,0
188.55852,188.63448,87,68,0
188.71042,188.78638,88,81,0
188.71042,188.78638,76,68,0
188.71042,188.78638,85,68,0
188.86232,188.93826,78,76,0
188.86232,188.93826,87,76,0
188.86232,188.93826,90,90,0
189.1717,189.2555,71,68,0
189.1717,189.2555,83,81,0
189.3393,189.95596,92,76,0
189.3393,189.95596,83,76,0
189.3393,189.95596,95,90,0
189.95596,190.0321,81,68,0
189.95596,190.0321,93,81,0
189.95596,190.0321,90,68,0
190.10825,190.18439,92,81,0
190.10825,190.18439,80,68,0
190.10825,190.18439,88,68,0
190.26053,190.8772,93,90,0
190.26053,190.8772,81,76,0
190.26053,190.8772,90,76,0
190.8772,190.95314,92,81,0
190.8772,190.95314,88,68,0
190.8772,190.95314,80,68,0
191.0291,191.10504,78,68,0
191.0291,191.10504,87,68,0
191.0291,191.10504,90,81,0
191.181,191.25832,88,76,0
191.181,191.25832,80,76,0
191.181,191.25832,92,90,0
191.33563,191.41159,78,68,0
191.33563,191.41159,87,68,0
191.33563,191.41159,90,81,0
191.48753,191.56348,88,81,0
191.48753,191.56348,76,68,0
191.48753,191.56348,85,68,0
191.63943,191.71538,78,76,0
191.63943,191.71538,90,90,0
191.63943,191.71538,87,76,0
191.9488,192.03261,71,68,0
191.9488,192.03261,83,81,0
192.11641,192.20021,83,82,0
192.11641,192.20021,92,97,0
192.11641,192.20021,95,97,0
192.4516,192.79942,88,77,0
192.4516,192.79942,92,91,0
192.4516,192.79942,80,77,0
192.79942,193.32117,88,77,0
192.79942,193.32117,93,91,0
192.79942,193.32117,81,77,0
193.32117,193.58278,78,75,0
193.32117,193.58278,88,75,0
193.32117,193.58278,90,89,0
193.58278,193.6698,80,67,0
193.58278,193.6698,88,67,0
193.58278,193.6698,92,79,0
193.6777,193.76036,88,74,0
193.6777,193.76036,92,88,0
193.6777,193.76036,80,74,0
194.00829,194.36122,76,69,0
194.00829,194.36122,80,81,0
194.00829,194.36122,68,69,0
194.36122,194.89064,81,81,0
194.36122,194.89064,69,69,0
194.36122,194.89064,76,69,0
194.89064,195.15326,66,67,0
194.89064,195.15326,76,67,0
194.89064,195.15326,78,80,0
195.16133,195.25003,76,60,0
195.16133,195.25003,80,71,0
195.16133,195.25003,68,60,0
195.2581,195.34213,68,66,0
195.2581,195.34213,80,79,0
195.2581,195.34213,76,66,0
195.57806,195.72708,88,92,0
195.55908,195.72708,80,77,0
195.5401,195.72708,76,77,0
195.77675,195.85269,64,90,0
195.77675,195.85269,52,77,0
196.53624,196.68475,88,92,0
196.51724,196.68475,80,77,0
196.49826,196.68475,76,77,0
196.73425,196.81021,64,90,0
196.73425,196.81021,52,77,0
198.20639,198.39331,64,64,0
198.39331,198.9604,60,59,0
198.39331,198.9604,64,70,0
198.9604,199.3285,69,65,0
198.9604,199.3285,64,55,0
199.3285,199.5285,71,69,0
199.3285,199.5285,64,58,0
199.5285,200.08235,76,75,0
199.5285,200.08235,72,63,0
200.08235,200.45828,72,69,0
200.08235,200.45828,69,58,0
200.45828,200.6446,64,64,0
200.6446,201.1962,60,59,0
200.6446,201.1962,64,70,0
201.1962,201.56543,69,65,0
201.1962,201.56543,64,55,0
201.56543,201.77972,71,69,0
201.56543,201.77972,64,58,0
201.77972,202.69792,76,75,0
201.77972,202.69792,72,63,0
202.70564,202.90767,76,69,0
202.70564,202.90767,72,58,0
202.90767,203.6329,76,63,0
202.90767,203.6329,79,75,0
202.90767,203.6329,67,63,0
203.6329,203.76643,77,71,0
203.6329,203.76643,74,59,0
203.81094,203.95897,76,64,0
203.81094,203.95897,72,54,0
204.00832,204.5656,74,75,0
204.00832,204.5656,71,63,0
204.5656,204.92937,67,68,0
204.9371,205.1469,67,69,0
205.1469,205.90053,72,63,0
205.1469,205.90053,76,75,0
205.1469,205.90053,64,63,0
205.90053,206.03941,74,71,0
205.90053,206.03941,71,59,0
206.08571,206.2362,72,64,0
206.08571,206.2362,69,54,0
206.28638,207.20459,71,75,0
206.28638,207.20459,68,63,0
207.2123,207.40967,64,64,0
207.40967,207.97806,64,70,0
207.40967,207.97806,61,59,0
207.97806,208.34392,64,55,0
207.97806,208.34392,69,65,0
208.34392,208.54193,71,69,0
208.34392,208.54193,64,58,0
208.54193,209.09921,76,75,0
208.54193,209.09921,73,63,0
209.09921,209.4689,73,69,0
209.09921,209.4689,69,58,0
209.47719,209.67326,76,69,0
209.47719,209.67326,73,58,0
209.67326,210.38548,76,63,0
209.67326,210.38548,80,75,0
210.38548,210.51744,78,71,0
210.38548,210.51744,75,59,0
210.56143,210.70706,76,64,0
210.56143,210.70706,73,54,0
209.67326,211.30515,68,63,0
211.31288,211.67667,68,68,0
210.75562,211.67667,75,75,0
210.75562,211.67667,72,63,0
211.6844,211.8693,75,64,0
211.87733,212.43098,71,59,0
211.87733,212.43098,75,70,0
211.87733,212.43098,68,59,0
212.44328,212.80261,76,65,0
212.81026,213.00256,76,69,0
212.44328,213.01093,71,55,0
212.44328,213.01093,68,55,0
213.01093,213.57591,69,63,0
213.01093,213.57591,72,63,0
213.01093,213.57591,76,75,0
213.57591,213.93634,79,79,0
213.94402,214.14949,77,75,0
213.57591,214.14949,72,67,0
213.57591,214.14949,69,67,0
214.14949,214.75438,76,70,0
214.14949,214.75438,72,59,0
214.14949,214.75438,67,59,0
214.75438,215.11928,74,55,0
215.12704,215.33044,74,55,0
214.75438,215.33044,69,46,0
215.33044,216.27383,76,59,0
215.33044,216.27383,68,49,0
216.27383,216.47722,76,46,0
216.47722,217.06296,72,48,0
216.47722,217.06296,67,48,0
216.47722,217.06296,76,57,0
217.06296,217.43478,79,59,0
217.4427,217.65852,77,56,0
217.06296,217.65852,72,50,0
217.06296,217.65852,69,50,0
217.65852,218.29419,76,50,0
217.65852,218.29419,69,42,0
217.65852,218.29419,72,42,0
218.29419,218.74786,74,49,0
218.7575,219.05307,74,44,0
218.29419,219.05307,71,41,0
218.29419,219.05307,65,41,0
219.05307,219.42117,68,34,0
219.05307,219.42117,64,34,0
219.986,220.17061,69,38,0
219.986,220.17061,60,38,0
220.17061,220.53984,71,42,0
220.17061,220.53984,62,35,0
220.53984,220.73851,72,37,0
220.53984,220.73851,64,31,0
220.73851,221.29066,72,50,0
220.73851,221.29066,69,38,0
221.29066,221.67207,71,39,0
221.29066,221.67207,68,33,0
220.73851,221.67207,64,38,0
221.67207,221.849,69,28,0
219.05307,221.85669,76,41,0
221.67207,221.85669,72,37,0
221.67207,221.85669,64,28,0
221.85669,222.22592,74,40,0
221.85669,222.22592,69,31,0
221.85669,222.22592,65,31,0
222.22592,222.43129,76,48,0
222.22592,222.43129,67,37,0
222.22592,222.43129,69,37,0
222.44022,222.99577,79,56,0
222.44022,223.35841,71,43,0
222.44022,223.35841,69,43,0
222.99577,223.36613,77,49,0
223.55132,223.92169,74,45,0
223.36613,224.12488,71,42,0
223.36845,224.12752,69,33,0
223.92169,224.13371,77,47,0
224.13371,224.69098,77,55,0
224.13371,224.69098,69,42,0
224.13371,224.69098,71,42,0
224.69098,225.2571,68,49,0
225.07741,225.26491,71,38,0
225.26491,225.65108,76,51,0
225.65108,225.89699,71,41,0
225.26491,225.89699,64,38,0
225.26491,225.89699,68,38,0
225.89699,226.46124,69,34,0
225.89699,226.46124,73,41,0
225.89699,226.46124,64,34,0
226.85342,227.0415,69,38,0
226.85342,227.0415,61,38,0
227.0415,227.41768,71,42,0
227.0415,227.41768,62,35,0
227.41768,227.63351,73,37,0
227.41768,227.63351,64,31,0
227.41768,227.63351,69,31,0
227.63351,228.19601,76,51,0
228.19601,228.61252,74,47,0
228.61252,228.82304,77,46,0
227.63351,228.82304,69,43,0
227.63351,228.82304,65,43,0
228.82304,229.2441,76,52,0
229.2441,229.44589,74,47,0
228.82304,229.51315,70,44,0
229.47952,229.51315,70,43,0
228.82304,229.51315,65,44,0
229.44589,229.71315,67,43,0
230.5611,230.78665,79,40,0
230.78665,231.23778,77,49,0
231.23778,231.54042,76,42,0
230.78665,231.55357,67,49,0
230.78665,231.55357,70,49,0
231.55357,232.14568,76,46,0
229.51315,232.14568,72,51,0
231.55357,232.14568,67,46,0
231.55357,232.14568,70,46,0
232.44981,232.75394,67,38,0
232.44981,232.75394,64,29,0
232.75394,233.04999,69,44,0
232.75394,233.04999,67,33,0
232.75394,233.04999,64,33,0
233.04999,233.41774,67,35,0
233.04999,233.41774,64,35,0
233.04999,233.41774,70,45,0
233.41774,234.61871,71,46,0
233.41774,234.61871,67,39,0
233.41774,234.61871,64,39,0
234.61871,235.25136,64,38,0
234.61871,235.25136,67,38,0
234.61871,235.25136,71,45,0
235.25136,235.84541,72,57,0
235.25136,235.84541,69,48,0
235.84541,236.45352,67,43,0
235.84541,236.45352,71,51,0
236.45352,237.09639,69,45,0
236.45352,237.09639,66,38,0
235.25136,237.09639,63,48,0
237.09639,237.69241,64,45,0
237.09639,237.69241,67,53,0
237.99042,238.28844,79,50,0
237.99042,238.28844,67,42,0
237.99042,238.28844,76,42,0
238.28844,238.58351,76,45,0
238.28844,238.58351,81,54,0
238.28844,238.58351,69,45,0
238.58351,238.8954,82,57,0
238.58351,238.8954,70,48,0
238.58351,238.8954,79,48,0
238.58351,238.8954,76,48,0
238.8954,239.798,83,61,0
238.8954,239.798,79,51,0
238.8954,239.798,76,51,0
238.8954,239.798,71,51,0
239.798,240.1026,79,62,0
239.798,240.1026,76,52,0
240.1026,240.40161,83,65,0
240.1026,240.40161,79,55,0
240.40161,240.72105,79,58,0
240.40161,240.72105,88,69,0
240.72105,241.3375,84,61,0
240.72105,241.3375,81,61,0
240.72105,241.3375,93,72,0
241.3375,241.95393,79,56,0
241.3375,241.95393,83,56,0
241.3375,241.95393,91,67,0
241.95393,242.59566,81,56,0
241.95393,242.59566,90,66,0
241.95393,242.59566,78,56,0
242.59566,243.19688,76,62,0
242.59566,243.19688,80,62,0
242.59566,243.19688,88,74,0
244.19717,244.38351,76,64,0
244.19717,244.38351,88,64,0
244.38351,244.92618,88,70,0
244.38351,244.92618,84,59,0
244.38351,244.92618,76,59,0
244.92618,245.27808,81,55,0
244.92618,245.27808,72,55,0
244.92618,245.27808,84,65,0
245.27808,245.46796,83,69,0
245.27808,245.46796,80,58,0
245.27808,245.46796,71,58,0
245.46796,245.99892,64,63,0
245.46796,245.99892,76,75,0
245.99892,246.36182,81,69,0
245.99892,246.36182,69,58,0
245.46796,246.36182,72,63,0
246.36182,246.54587,84,55,0
246.36182,246.54587,76,55,0
246.36182,246.54587,88,64,0
246.54587,247.07642,88,70,0
246.54587,247.07642,84,59,0
246.54587,247.07642,76,59,0
247.07642,247.42627,72,55,0
247.07642,247.42627,81,55,0
247.07642,247.42627,84,65,0
247.42627,247.62428,83,69,0
247.42627,247.62428,80,58,0
247.42627,247.62428,71,58,0
247.62428,248.49928,76,75,0
247.62428,248.49928,64,63,0
247.62428,248.49928,72,63,0
248.50664,248.70145,72,58,0
248.50664,248.70145,76,69,0
248.50664,248.70145,64,58,0
248.70145,249.24426,76,70,0
248.70145,249.24426,64,59,0
248.70145,249.24426,72,59,0
249.24426,249.5972,74,55,0
249.24426,249.5972,77,65,0
249.24426,249.5972,65,55,0
249.5972,249.79523,79,69,0
249.5972,249.79523,76,58,0
249.5972,249.79523,67,58,0
249.79523,250.32935,67,63,0
249.79523,250.32935,79,75,0
250.32935,250.69412,77,69,0
250.32935,250.69412,65,58,0
249.79523,250.69412,71,63,0
250.69412,250.87761,71,55,0
250.69412,250.87761,74,64,0
250.69412,250.87761,62,55,0
250.87761,251.23265,72,70,0
251.23265,251.29553,74,66,0
251.29553,251.35843,72,55,0
251.35843,251.42133,71,55,0
251.42133,251.5978,72,70,0
250.87761,251.5978,69,59,0
250.87761,251.5978,60,59,0
251.5978,251.73015,74,69,0
251.5978,251.73015,71,58,0
251.5978,251.73015,62,58,0
251.77426,251.92326,76,69,0
251.77426,251.92326,64,58,0
251.77426,251.92326,72,58,0
251.97295,252.50235,68,63,0
251.97295,252.50235,76,75,0
251.97295,252.50235,64,63,0
252.85529,253.0399,88,64,0
252.85529,253.0399,76,64,0
253.0399,253.57845,88,70,0
253.0399,253.57845,85,59,0
253.0399,253.57845,76,59,0
253.57845,253.93138,85,65,0
253.57845,253.93138,73,55,0
253.57845,253.93138,81,55,0
253.93138,254.12126,80,58,0
253.93138,254.12126,83,69,0
253.93138,254.12126,71,58,0
254.12126,254.64604,76,75,0
254.12126,254.64604,64,63,0
254.64604,254.9959,81,69,0
254.64604,254.9959,69,58,0
254.12126,254.9959,73,63,0
254.9959,255.21977,88,64,0
254.9959,255.21977,76,55,0
254.9959,255.21977,85,55,0
255.21977,255.92218,88,68,0
255.21977,255.92218,92,80,0
255.21977,255.92218,80,59,0
255.92218,256.05185,90,65,0
255.92218,256.05185,78,55,0
255.92218,256.05185,87,55,0
256.0951,256.2375,85,58,0
256.0951,256.2375,88,69,0
256.0951,256.2375,76,58,0
256.28497,257.15738,87,75,0
256.28497,257.15738,84,63,0
256.28497,257.15738,75,63,0
257.16473,257.35107,75,52,0
257.16473,257.35107,87,62,0
257.35107,257.91006,87,65,0
257.35107,257.91006,75,55,0
257.91006,258.2672,76,57,0
257.91006,258.2672,88,68,0
258.2748,258.4562,88,65,0
258.2748,258.4562,76,55,0
257.35107,258.46408,83,54,0
258.46408,259.017,88,69,0
258.46408,259.017,76,58,0
259.017,259.37305,77,60,0
259.017,259.37305,89,71,0
259.3806,259.55487,77,57,0
259.3806,259.55487,89,68,0
258.46408,259.56244,84,57,0
259.56244,260.1337,86,61,0
259.56244,260.1337,89,73,0
259.56244,260.1337,77,61,0
260.1337,260.50638,81,66,0
260.1337,260.50638,93,78,0
260.1337,260.50638,89,66,0
260.1337,260.50638,86,66,0
260.50638,260.6927,79,62,0
260.50638,260.6927,91,73,0
260.6927,261.27155,89,74,0
260.6927,261.27155,81,62,0
260.6927,261.27155,77,62,0
260.6927,261.27155,84,62,0
261.27155,261.65616,88,78,0
261.27155,261.65616,84,66,0
261.27155,261.65616,76,66,0
261.27155,261.65616,82,66,0
261.65616,261.87396,89,73,0
261.65616,261.87396,77,62,0
261.88345,262.45486,81,62,0
261.88345,262.45486,77,62,0
261.88345,262.45486,89,74,0
261.88345,262.45486,84,62,0
262.83582,262.93616,60,62,0
262.83582,262.93616,72,74,0
263.0365,263.6061,73,82,0
263.0365,263.6061,69,69,0
263.0365,263.6061,61,69,0
263.6061,263.70105,65,48,0
263.6061,263.70105,77,57,0
263.796,263.89093,69,51,0
263.796,263.89093,81,60,0
263.98587,264.0808,85,64,0
263.98587,264.0808,73,54,0
264.17575,264.73474,77,60,0
264.17575,264.73474,85,60,0
264.17575,264.73474,89,71,0
264.73474,265.0919,78,57,0
264.73474,265.0919,90,68,0
264.73474,265.0919,85,57,0
265.0995,265.28876,78,55,0
265.0995,265.28876,90,65,0
265.28876,265.84778,86,66,0
265.28876,265.84778,90,78,0
265.28876,265.84778,78,66,0
265.84778,266.2049,86,59,0
265.84778,266.2049,79,59,0
265.84778,266.2049,91,71,0
266.2125,266.3939,91,66,0
266.2125,266.3939,79,56,0
266.4018,266.98795,79,61,0
266.4018,266.98795,91,73,0
266.4018,266.98795,88,61,0
266.98795,267.36063,83,66,0
266.98795,267.36063,91,66,0
266.98795,267.36063,88,66,0
266.98795,267.36063,95,78,0
267.36063,267.54694,93,73,0
267.36063,267.54694,81,62,0
267.54694,268.1258,91,74,0
267.54694,268.1258,79,62,0
267.54694,268.1258,86,62,0
267.54694,268.1258,83,62,0
268.1258,268.5104,78,66,0
268.1258,268.5104,84,66,0
268.1258,268.5104,86,66,0
268.1258,268.5104,90,78,0
268.1258,268.5104,81,66,0
268.5104,268.7282,79,62,0
268.5104,268.7282,91,73,0
268.7377,269.3091,91,74,0
268.7377,269.3091,83,62,0
268.7377,269.3091,86,62,0
268.7377,269.3091,79,62,0
269.69006,269.89075,62,62,0
269.69006,269.89075,74,74,0
269.89075,270.65024,75,82,0
269.89075,270.65024,71,69,0
269.89075,270.65024,63,69,0
270.65024,270.74518,67,58,0
270.65024,270.74518,79,69,0
270.84012,270.93506,81,73,0
270.84012,270.93506,69,62,0
271.02997,271.9539,79,65,0
271.02997,271.9539,74,65,0
271.02997,271.9539,83,77,0
271.02997,271.9539,71,65,0
271.96167,272.16232,74,74,0
271.96167,272.16232,62,62,0
272.16232,272.9218,71,69,0
272.16232,272.9218,63,69,0
272.16232,272.9218,75,82,0
272.9218,273.01675,79,69,0
272.9218,273.01675,67,58,0
273.1117,273.20663,69,62,0
273.1117,273.20663,81,73,0
273.30157,274.2255,71,65,0
273.30157,274.2255,80,65,0
273.30157,274.2255,83,77,0
273.30157,274.2255,74,65,0
274.23325,274.43393,62,66,0
274.23325,274.43393,74,66,0
274.43393,274.72614,75,63,0
274.43393,274.72614,71,53,0
274.43393,274.72614,63,53,0
274.72614,275.01834,64,47,0
274.72614,275.01834,71,47,0
274.72614,275.01834,76,56,0
275.01834,276.16406,74,51,0
275.01834,276.16406,71,51,0
275.01834,276.16406,65,51,0
275.01834,276.16406,68,51,0
275.01834,276.16406,77,61,0
276.176,277.3435,74,54,0
276.176,277.3435,68,45,0
276.176,277.3435,65,45,0
276.176,277.3435,71,45,0
277.35583,278.58878,71,51,0
277.35583,278.58878,68,43,0
277.35583,278.58878,65,43,0
277.35583,278.58878,62,43,0
278.60205,279.9692,65,40,0
278.60205,279.9692,59,40,0
278.60205,279.9692,68,48,0
278.60205,279.9692,62,40,0
279.98428,280.9691,62,45,0
279.98428,280.9691,59,37,0
280.97876,284.16714,56,29,0
280.97876,284.16714,59,36,0
284.42194,284.53418,77,54,0
284.40326,284.53418,69,40,0
284.38455,284.53418,65,40,0
284.7212,284.79602,57,32,0
284.7212,284.79602,53,27,0
284.87082,284.94565,57,35,0
284.87082,284.94565,53,30,0
285.02045,285.09528,55,27,0
285.02045,285.09528,58,31,0
285.17007,285.2449,60,31,0
285.17007,285.2449,57,27,0
285.3197,285.39453,62,35,0
285.3197,285.39453,58,30,0
285.46933,285.54626,60,32,0
285.46933,285.54626,57,27,0
285.62317,285.7351,77,52,0
285.60394,285.7351,69,40,0
285.58472,285.7351,65,40,0
285.77243,285.84705,57,35,0
285.77243,285.84705,53,30,0
285.9217,285.9963,55,27,0
285.9217,285.9963,58,31,0
286.07092,286.14557,57,27,0
286.07092,286.14557,60,31,0
286.22018,286.29483,58,30,0
286.22018,286.29483,62,35,0
286.36945,286.44406,57,27,0
286.36945,286.44406,60,32,0
286.5187,286.59332,62,31,0
286.5187,286.59332,58,27,0
286.66794,286.74258,60,30,0
286.66794,286.74258,64,35,0
286.8172,286.89185,62,27,0
286.8172,286.89185,65,32,0
286.96646,287.0428,64,27,0
286.96646,287.0428,67,31,0
287.11914,287.63675,69,43,0
287.11914,287.63675,65,36,0
287.64435,287.982,72,37,0
287.64435,287.9892,69,31,0
287.9892,288.1885,77,45,0
287.9892,288.1885,72,38,0
288.1885,288.70575,77,44,0
288.1885,288.70575,81,52,0
288.70575,289.2474,65,32,0
288.70575,289.2474,69,38,0
289.76465,290.2965,81,57,0
290.27783,290.2965,81,57,0
289.76465,290.2965,77,48,0
290.2965,290.40875,85,61,0
290.25912,290.40875,73,53,0
290.59576,290.6706,61,32,0
290.59576,290.6706,57,27,0
290.7454,290.82022,61,35,0
290.7454,290.82022,57,30,0
290.89502,290.96985,62,31,0
290.89502,290.96985,59,27,0
291.04465,291.11948,61,27,0
291.04465,291.11948,64,31,0
291.19427,291.2691,66,35,0
291.19427,291.2691,62,30,0
291.3439,291.42084,64,32,0
291.3439,291.42084,61,27,0
291.49774,291.60968,73,52,0
291.49774,291.60968,69,40,0
291.647,291.72162,61,35,0
291.647,291.72162,57,30,0
291.79626,291.87088,62,31,0
291.79626,291.87088,59,27,0
291.9455,292.02014,64,31,0
291.9455,292.02014,61,27,0
292.09476,292.1694,66,35,0
292.09476,292.1694,62,30,0
292.24402,292.31863,64,32,0
292.24402,292.31863,61,27,0
292.39328,292.4679,62,27,0
292.39328,292.4679,66,31,0
292.5425,292.61716,68,35,0
292.5425,292.61716,64,30,0
292.69177,292.76642,66,27,0
292.69177,292.76642,69,32,0
292.84103,292.91736,71,31,0
292.84103,292.91736,68,27,0
292.9937,293.51892,73,43,0
292.95554,293.51892,61,36,0
292.96826,293.51892,67,36,0
292.981,293.51892,69,36,0
293.51892,293.86377,66,31,0
293.51892,293.86377,73,31,0
293.51892,293.86377,78,45,0
293.86377,294.00494,79,51,0
293.86377,294.00494,73,38,0
293.86377,294.00494,67,38,0
294.06308,294.57315,85,52,0
294.04648,294.57315,81,44,0
294.01328,294.57315,73,44,0
294.02988,294.58032,79,44,0
294.58032,295.12198,73,32,0
294.58032,295.12198,79,32,0
294.58032,295.12198,81,38,0
294.58032,295.12198,69,32,0
295.63922,296.17108,79,48,0
295.63922,296.17108,81,57,0
296.15863,296.17108,81,46,0
295.63922,296.17108,69,48,0
295.63922,296.17108,73,48,0
296.17108,296.28333,86,64,0
296.14615,296.28333,78,46,0
296.1337,296.28333,74,46,0
296.47034,296.54517,66,32,0
296.47034,296.54517,62,27,0
296.61996,296.6948,62,30,0
296.61996,296.6948,66,35,0
296.7696,296.84442,64,27,0
296.7696,296.84442,67,31,0
296.91922,296.99405,69,31,0
296.91922,296.99405,66,27,0
297.06885,297.14368,67,30,0
297.06885,297.14368,71,35,0
297.21848,297.2954,66,27,0
297.21848,297.2954,69,32,0
297.3723,297.48425,86,64,0
297.3531,297.48425,78,50,0
297.33386,297.48425,74,50,0
297.52158,297.5962,66,35,0
297.52158,297.5962,62,30,0
297.67084,297.74545,64,27,0
297.67084,297.74545,67,31,0
297.82007,297.8947,69,32,0
297.82007,297.8947,66,28,0
297.96933,298.04398,71,37,0
297.96933,298.04398,67,32,0
298.1186,298.1932,66,29,0
298.1186,298.1932,69,35,0
298.26785,298.34247,71,35,0
298.26785,298.34247,67,30,0
298.41708,298.49173,73,40,0
298.41708,298.49173,69,34,0
298.56635,298.641,71,32,0
298.56635,298.641,74,38,0
298.7156,298.79193,73,32,0
298.7156,298.79193,76,37,0
298.8683,299.3859,77,38,0
298.8683,299.3935,69,38,0
298.8683,299.3935,81,53,0
299.3935,299.73834,86,52,0
299.3935,299.73834,77,44,0
299.3935,299.73834,74,44,0
299.73834,299.92935,81,53,0
299.73834,299.93765,88,63,0
299.73834,299.93765,76,53,0
299.93765,300.4549,89,58,0
299.93765,300.4549,93,69,0
299.93765,300.4549,81,58,0
300.4549,300.80786,89,60,0
300.4549,300.80786,77,51,0
300.4549,300.80786,86,51,0
300.80786,300.94937,89,48,0
300.80786,300.94937,93,57,0
300.80786,300.94937,81,48,0
300.9868,301.099,96,77,0
300.94937,301.099,82,55,0
300.96185,301.099,88,55,0
300.9743,301.099,91,55,0
301.28604,301.36084,64,35,0
301.28604,301.36084,60,29,0
301.43567,301.51047,60,33,0
301.43567,301.51047,64,38,0
301.5853,301.6601,62,29,0
301.5853,301.6601,65,34,0
301.73492,301.80972,67,34,0
301.73492,301.80972,64,29,0
301.88455,301.95935,65,33,0
301.88455,301.95935,69,38,0
302.03418,302.11108,64,29,0
302.03418,302.11108,67,35,0
302.18802,302.29996,84,65,0
302.14957,302.29996,72,50,0
302.16238,302.29996,76,50,0
302.1752,302.29996,82,50,0
302.33728,302.4119,60,33,0
302.33728,302.4119,64,38,0
302.4865,302.56116,65,34,0
302.4865,302.56116,62,29,0
302.63577,302.7104,67,35,0
302.63577,302.7104,64,30,0
302.78503,302.85965,65,35,0
302.78503,302.85965,69,40,0
302.9343,303.0089,67,38,0
302.9343,303.0089,64,31,0
303.08353,303.15817,69,38,0
303.08353,303.15817,65,33,0
303.2328,303.3074,70,44,0
303.2328,303.3074,67,37,0
303.38205,303.45667,69,35,0
303.38205,303.45667,72,41,0
303.53128,303.60764,74,40,0
303.53128,303.60764,70,35,0
303.6649,304.1864,82,41,0
303.68396,304.2092,88,58,0
303.6458,304.2092,76,41,0
304.2092,304.55402,82,48,0
304.2092,304.55402,90,57,0
304.2092,304.55402,78,48,0
304.55402,304.70352,91,69,0
304.55402,304.70352,82,58,0
304.55402,304.70352,79,58,0
304.72845,305.24905,94,63,0
304.70352,305.24905,88,63,0
304.75336,305.2706,100,75,0
305.2706,305.62357,94,66,0
305.2706,305.62357,88,56,0
305.2706,305.62357,82,56,0
305.62357,305.76508,94,52,0
305.62357,305.76508,88,52,0
305.62357,305.76508,100,62,0
305.80322,305.9149,103,93,0
305.78415,305.9149,94,78,0
305.76508,305.9149,91,78,0
306.101,306.17545,67,45,0
306.101,306.17545,70,54,0
306.24988,306.32434,70,60,0
306.24988,306.32434,67,51,0
306.39877,306.4732,72,56,0
306.39877,306.4732,69,46,0
306.54767,306.6221,74,57,0
306.54767,306.6221,70,48,0
306.69653,306.77097,76,65,0
306.69653,306.77097,72,55,0
306.84543,306.92233,70,51,0
306.84543,306.92233,74,61,0
306.99927,307.1112,91,93,0
306.98004,307.1112,82,78,0
306.96082,307.1112,79,78,0
307.14853,307.22314,74,54,0
307.14853,307.22314,82,54,0
307.14853,307.22314,86,65,0
307.29776,307.3724,88,60,0
307.29776,307.3724,76,50,0
307.29776,307.3724,84,50,0
307.44702,307.52167,77,51,0
307.44702,307.52167,89,62,0
307.44702,307.52167,86,51,0
307.59628,307.6709,91,71,0
307.59628,307.6709,79,59,0
307.59628,307.6709,88,59,0
307.74554,307.82016,93,66,0
307.74554,307.82016,81,56,0
307.74554,307.82016,89,56,0
307.89478,307.96942,91,56,0
307.89478,307.96942,94,67,0
307.89478,307.96942,82,56,0
308.04404,308.11868,94,77,0
308.04404,308.11868,91,64,0
308.04404,308.11868,82,64,0
308.1933,308.27023,82,60,0
308.1933,308.27023,94,72,0
308.1933,308.27023,91,60,0
308.34714,308.43002,91,61,0
308.34714,308.43002,82,61,0
308.34714,308.43002,94,72,0
308.51288,309.12955,95,90,0
308.51288,309.12955,91,76,0
308.51288,309.12955,83,76,0
309.12955,309.2057,81,68,0
309.12955,309.2057,93,81,0
309.12955,309.2057,90,68,0
309.28183,309.35797,88,68,0
309.28183,309.35797,91,81,0
309.28183,309.35797,79,68,0
309.4341,310.05078,81,76,0
309.4341,310.05078,93,90,0
309.4341,310.05078,90,76,0
310.05078,310.12674,88,68,0
310.05078,310.12674,79,68,0
310.05078,310.12674,91,81,0
310.2027,310.27863,78,68,0
310.2027,310.27863,90,81,0
310.2027,310.27863,87,68,0
310.35458,310.43192,79,76,0
310.35458,310.43192,91,90,0
310.35458,310.43192,88,76,0
310.50922,310.58517,90,81,0
310.50922,310.58517,78,68,0
310.50922,310.58517,87,68,0
310.66113,310.73706,85,68,0
310.66113,310.73706,88,81,0
310.66113,310.73706,76,68,0
310.81302,310.88898,78,76,0
310.81302,310.88898,90,90,0
310.81302,310.88898,87,76,0
311.1224,311.2062,83,81,0
311.1224,311.2062,71,68,0
311.29,311.90668,93,76,0
311.29,311.90668,97,90,0
311.29,311.90668,85,76,0
311.90668,311.98282,92,68,0
311.90668,311.98282,83,68,0
311.90668,311.98282,95,81,0
312.05896,312.1351,93,81,0
312.05896,312.1351,90,68,0
312.05896,312.1351,81,68,0
312.21124,312.8279,83,76,0
312.21124,312.8279,92,76,0
312.21124,312.8279,95,90,0
312.8279,312.90384,90,68,0
312.8279,312.90384,93,81,0
312.8279,312.90384,81,68,0
312.9798,313.05576,92,81,0
312.9798,313.05576,80,68,0
312.9798,313.05576,88,68,0
313.13168,313.209,81,76,0
313.13168,313.209,90,76,0
313.13168,313.209,93,90,0
313.28635,313.36227,92,81,0
313.28635,313.36227,80,68,0
313.28635,313.36227,88,68,0
313.43823,313.5142,87,68,0
313.43823,313.5142,78,68,0
313.43823,313.5142,90,81,0
313.59012,313.66608,88,76,0
313.59012,313.66608,92,90,0
313.59012,313.66608,80,76,0
313.8995,313.9833,88,81,0
313.8995,313.9833,76,68,0
314.0671,314.1509,100,97,0
314.0671,314.1509,95,97,0
314.0671,314.1509,92,97,0
314.0671,314.1509,88,82,0
314.4023,314.75946,83,77,0
314.4023,314.75946,95,91,0
314.4023,314.75946,88,77,0
314.75946,315.29517,85,77,0
314.75946,315.29517,97,91,0
314.75946,315.29517,88,77,0
315.29517,315.56226,81,75,0
315.29517,315.56226,93,89,0
315.29517,315.56226,88,75,0
315.56226,315.6504,95,79,0
315.56226,315.6504,83,67,0
315.56226,315.6504,88,67,0
315.65842,315.74106,95,88,0
315.65842,315.74106,83,74,0
315.65842,315.74106,88,74,0
315.98898,316.35043,71,69,0
315.98898,316.35043,76,69,0
315.98898,316.35043,83,81,0
316.35043,316.8926,73,69,0
316.35043,316.8926,85,81,0
316.35043,316.8926,76,69,0
316.8926,317.1596,81,80,0
316.8926,317.1596,76,67,0
316.8926,317.1596,69,67,0
317.16803,317.26062,71,60,0
317.16803,317.26062,83,71,0
317.16803,317.26062,76,60,0
317.26904,317.3531,83,79,0
317.26904,317.3531,76,66,0
317.26904,317.3531,71,66,0
317.58902,317.738,88,80,0
317.57,317.738,80,67,0
317.55103,317.738,76,67,0
317.7877,317.86362,64,79,0
317.7877,317.86362,52,67,0
318.54718,318.69568,88,80,0
318.5282,318.69568,80,67,0
318.5092,318.69568,76,67,0
318.7452,318.82114,52,67,0
318.7452,318.82114,64,79,0
320.21735,320.2993,76,74,0
320.38126,320.46323,81,87,0
320.38126,320.46323,73,87,0
320.38126,320.46323,69,73,0
320.5452,320.62332,64,55,0
320.5452,320.62332,61,46,0
320.70145,320.7819,62,55,0
320.70145,320.7819,59,46,0
320.8623,321.01205,61,60,0
320.8623,321.01205,57,51,0
321.98013,322.05826,64,55,0
321.98013,322.05826,61,46,0
322.13638,322.2168,62,55,0
322.13638,322.2168,59,46,0
322.29724,322.37537,57,51,0
322.29724,322.37537,61,60,0
323.0872,323.16916,69,74,0
323.25113,323.3331,65,73,0
323.25113,323.3331,77,87,0
323.41507,323.4932,69,55,0
323.41507,323.4932,65,46,0
323.57132,323.65173,67,55,0
323.57132,323.65173,64,46,0
323.73218,323.8103,65,60,0
323.73218,323.8103,62,51,0
323.88843,323.96655,62,41,0
323.88843,323.96655,65,49,0
324.04468,324.12424,57,41,0
324.04468,324.12424,64,49,0
324.20383,324.2834,53,49,0
324.20383,324.2834,62,58,0
324.85,324.92813,65,46,0
324.85,324.92813,69,55,0
325.00626,325.08667,64,46,0
325.00626,325.08667,67,55,0
325.1671,325.24524,65,60,0
325.1671,325.24524,62,51,0
325.32336,325.4015,65,49,0
325.32336,325.4015,62,41,0
325.4796,325.55917,64,49,0
325.4796,325.55917,57,41,0
325.63876,325.71832,62,58,0
325.63876,325.71832,53,49,0
325.95706,326.03903,72,74,0
326.121,326.20294,69,73,0
326.121,326.20294,81,87,0
326.2849,326.36304,72,55,0
326.2849,326.36304,69,46,0
326.44116,326.5216,70,55,0
326.44116,326.5216,67,46,0
326.60202,326.68015,69,60,0
326.60202,326.68015,65,51,0
326.75827,326.8364,65,41,0
326.75827,326.8364,69,49,0
326.91452,326.9941,67,49,0
326.91452,326.9941,60,41,0
327.07367,327.15326,57,49,0
327.07367,327.15326,65,58,0
327.71985,327.79797,72,55,0
327.71985,327.79797,69,46,0
327.8761,327.95654,67,46,0
327.8761,327.95654,70,55,0
328.03696,328.11508,69,60,0
328.03696,328.11508,65,51,0
328.1932,328.27133,65,41,0
328.1932,328.27133,69,49,0
328.34946,328.42905,67,49,0
328.34946,328.42905,60,41,0
328.5086,328.5882,57,49,0
328.5086,328.5882,65,58,0
328.8269,328.90887,77,74,0
328.99084,329.0728,74,73,0
328.99084,329.0728,86,87,0
329.1548,329.2329,74,55,0
329.1548,329.2329,70,46,0
329.31104,329.39145,72,55,0
329.31104,329.39145,65,46,0
329.4719,329.55002,62,51,0
329.4719,329.55002,70,60,0
330.26184,330.3438,74,64,0
330.42578,330.50775,83,73,0
330.42578,330.50775,71,62,0
330.58972,330.66785,71,55,0
330.58972,330.66785,68,46,0
330.74597,330.8264,66,46,0
330.74597,330.8264,69,55,0
330.90683,330.98495,68,60,0
330.90683,330.98495,65,51,0
331.69678,331.77875,71,48,0
331.86072,331.9427,80,58,0
331.86072,331.9427,68,49,0
332.02463,332.10275,68,51,0
332.02463,332.10275,65,43,0
332.18088,332.26132,67,48,0
332.18088,332.26132,64,40,0
332.34174,332.41986,62,38,0
332.34174,332.41986,65,45,0
333.1317,333.29562,71,74,0
333.29562,333.3776,65,71,0
333.29562,333.3776,77,83,0
333.6235,334.11234,65,49,0
334.1263,334.6291,65,49,0
334.6291,334.79303,71,74,0
334.79303,334.8748,66,71,0
334.79303,334.8748,78,83,0
335.12,335.60748,66,49,0
335.6214,336.1228,66,49,0
336.1228,336.2867,71,74,0
336.2867,336.36847,67,71,0
336.2867,336.36847,77,71,0
336.2867,336.36847,74,71,0
336.2867,336.36847,79,83,0
336.6137,337.09982,77,60,0
336.6137,337.09982,74,60,0
336.6137,337.09982,67,60,0
336.6137,337.09982,79,71,0
336.6137,337.09982,71,60,0
337.1137,337.59982,77,62,0
337.1137,337.59982,71,62,0
337.1137,337.59982,74,62,0
337.1137,337.59982,67,62,0
337.1137,337.6137,79,74,0
337.6137,337.76648,77,78,0
337.6137,337.76648,79,78,0
337.6137,337.76648,71,66,0
337.6137,337.76648,74,66,0
337.6137,337.76648,67,66,0
337.78036,337.86188,91,87,0
337.78036,337.86188,79,76,0
337.78036,337.86188,83,79,0
337.78036,337.86188,89,83,0
338.10645,338.60095,67,60,0
338.10645,338.60095,79,71,0
338.10645,338.60095,77,60,0
338.60095,338.68323,77,60,0
338.60095,338.68323,79,71,0
338.60095,338.68323,67,60,0
338.7652,338.84717,67,58,0
338.7652,338.84717,77,58,0
338.7652,338.84717,79,69,0
338.92914,339.0111,69,62,0
338.92914,339.0111,81,73,0
338.92914,339.0111,77,62,0
339.09305,339.17502,71,65,0
339.09305,339.17502,83,77,0
339.09305,339.17502,77,65,0
339.257,339.33896,76,69,0
339.257,339.33896,84,82,0
339.257,339.33896,72,69,0
339.57056,339.64536,60,45,0
339.57056,339.64536,64,54,0
339.72018,339.79498,60,50,0
339.72018,339.79498,64,59,0
339.8698,339.9446,62,45,0
339.8698,339.9446,65,53,0
340.01944,340.09424,67,53,0
340.01944,340.09424,64,45,0
340.16907,340.24387,65,50,0
340.16907,340.24387,69,59,0
340.3187,340.3956,64,45,0
340.3187,340.3956,67,54,0
340.47253,340.58447,84,80,0
340.4533,340.58447,76,67,0
340.43408,340.58447,72,67,0
340.6218,340.6964,64,59,0
340.6218,340.6964,60,50,0
340.77103,340.84567,65,53,0
340.77103,340.84567,62,45,0
340.9203,340.99493,67,53,0
340.9203,340.99493,64,45,0
341.06955,341.14417,69,59,0
341.06955,341.14417,65,50,0
341.2188,341.29343,64,45,0
341.2188,341.29343,67,54,0
341.36804,341.4427,65,45,0
341.36804,341.4427,69,53,0
341.5173,341.59192,71,59,0
341.5173,341.59192,67,50,0
341.66656,341.74118,72,54,0
341.66656,341.74118,69,45,0
341.81583,341.89215,74,53,0
341.81583,341.89215,71,45,0
341.96848,342.08014,88,88,0
341.93033,342.08014,76,73,0
341.94305,342.08014,79,73,0
341.95575,342.08014,85,73,0
342.26627,342.3407,64,54,0
342.26627,342.3407,61,45,0
342.41513,342.48956,64,60,0
342.41513,342.48956,61,51,0
342.56403,342.63846,62,46,0
342.56403,342.63846,65,56,0
342.7129,342.78735,64,48,0
342.7129,342.78735,67,57,0
342.8618,342.93622,65,55,0
342.8618,342.93622,69,65,0
343.01068,343.0876,67,61,0
343.01068,343.0876,64,51,0
343.16452,343.27646,88,93,0
343.12607,343.27646,76,78,0
343.1389,343.27646,79,78,0
343.1517,343.27646,85,78,0
343.31378,343.3884,64,50,0
343.31378,343.3884,67,59,0
343.463,343.53766,69,53,0
343.463,343.53766,65,45,0
343.61227,343.6869,71,53,0
343.61227,343.6869,67,45,0
343.76154,343.83615,73,59,0
343.76154,343.83615,69,50,0
343.9108,343.9854,67,45,0
343.9108,343.9854,71,54,0
344.06003,344.13467,73,53,0
344.06003,344.13467,69,45,0
344.2093,344.2839,71,50,0
344.2093,344.2839,74,59,0
344.35855,344.43317,73,45,0
344.35855,344.43317,76,54,0
344.5078,344.58414,76,45,0
344.5078,344.58414,79,53,0
344.66046,344.77213,93,88,0
344.6223,344.77213,81,73,0
344.635,344.77213,84,73,0
344.64774,344.77213,89,73,0
344.95822,345.03268,65,45,0
344.95822,345.03268,69,54,0
345.10712,345.18155,69,60,0
345.10712,345.18155,65,51,0
345.256,345.33044,70,56,0
345.256,345.33044,67,46,0
345.40488,345.47934,72,57,0
345.40488,345.47934,69,48,0
345.55377,345.6282,74,65,0
345.55377,345.6282,70,55,0
345.70267,345.77957,69,51,0
345.70267,345.77957,72,61,0
345.8565,345.96844,93,93,0
345.81802,345.96844,81,78,0
345.83087,345.96844,84,78,0
345.8437,345.96844,89,78,0
346.00577,346.08038,81,65,0
346.00577,346.08038,69,54,0
346.155,346.22964,82,61,0
346.155,346.22964,70,51,0
346.30426,346.37888,83,65,0
346.30426,346.37888,71,53,0
346.45352,346.52814,84,76,0
346.45352,346.52814,72,63,0
346.60275,346.6774,86,73,0
346.60275,346.6774,74,62,0
346.752,346.82666,88,75,0
346.752,346.82666,76,63,0
346.90128,346.9759,89,89,0
346.90128,346.9759,77,74,0
347.05054,347.12744,79,71,0
347.05054,347.12744,91,85,0
347.20438,347.28726,80,74,0
347.20438,347.28726,92,87,0
347.37012,347.453,87,80,0
347.37012,347.453,84,80,0
347.37012,347.453,93,95,0
347.37012,347.453,81,80,0
348.19208,348.35556,69,51,0
348.19208,348.35556,72,60,0
348.35556,348.68253,74,68,0
348.35556,348.68253,71,57,0
348.68253,348.85596,75,60,0
348.68253,348.85596,72,51,0
349.6807,349.84464,72,60,0
349.6807,349.84464,69,51,0
349.84464,350.17252,74,68,0
349.84464,350.17252,71,57,0
350.17252,350.3449,75,60,0
350.17252,350.3449,72,51,0
350.67368,350.83807,75,60,0
350.67368,350.83807,69,51,0
350.67368,350.83807,72,51,0
351.08466,351.31888,73,54,0
351.08466,351.31888,76,64,0
351.08466,351.31888,70,54,0
351.3312,351.56723,76,62,0
351.3312,351.56723,73,62,0
351.3312,351.56723,82,73,0
351.57986,351.82596,85,82,0
351.57986,351.82596,82,69,0
351.83908,352.07394,76,77,0
351.83908,352.07394,88,91,0
351.83908,352.07394,82,77,0
352.08633,352.32376,82,73,0
352.08633,352.32376,76,73,0
352.08633,352.32376,85,86,0
352.33633,352.8363,82,83,0
352.33633,352.8363,73,70,0
352.33633,352.8363,76,70,0
352.84344,353.35922,73,62,0
352.84344,353.35922,76,73,0
352.84344,353.35922,70,62,0
353.35922,353.87497,75,66,0
353.35922,353.87497,71,57,0
354.2188,354.3823,73,60,0
354.2188,354.3823,70,51,0
354.3823,354.7093,75,68,0
354.3823,354.7093,71,57,0
354.7093,354.8827,76,60,0
354.7093,354.8827,73,51,0
355.70743,355.87137,73,60,0
355.70743,355.87137,70,51,0
355.87137,356.19925,71,57,0
355.87137,356.19925,75,68,0
356.19925,356.37164,76,60,0
356.19925,356.37164,73,51,0
356.7004,356.8648,70,51,0
356.7004,356.8648,73,51,0
356.7004,356.8648,76,60,0
357.1114,357.3456,77,64,0
357.1114,357.3456,74,54,0
357.1114,357.3456,71,54,0
357.35794,357.59396,83,73,0
357.35794,357.59396,74,62,0
357.35794,357.59396,77,62,0
357.6066,357.8527,86,82,0
357.6066,357.8527,83,69,0
357.6066,357.8527,77,69,0
357.8658,358.1007,89,91,0
357.8658,358.1007,83,77,0
357.8658,358.1007,77,77,0
358.11307,358.3505,77,73,0
358.11307,358.3505,83,73,0
358.11307,358.3505,86,86,0
358.36307,358.86304,83,83,0
358.36307,358.86304,74,70,0
358.36307,358.86304,77,70,0
358.87018,359.38596,74,62,0
358.87018,359.38596,77,73,0
358.87018,359.38596,71,62,0
359.38596,359.55786,72,57,0
359.38596,359.55786,76,66,0
359.9017,360.3282,68,70,0
360.3282,360.46902,69,66,0
359.9017,360.46902,72,59,0
359.9017,360.46902,76,70,0
359.9017,360.46902,64,59,0
360.76254,361.18787,68,70,0
361.18787,361.3287,69,66,0
360.76254,361.3287,72,59,0
360.76254,361.3287,76,70,0
360.76254,361.3287,64,59,0
361.62302,362.05124,68,70,0
362.05124,362.19275,69,66,0
361.62302,362.19275,76,70,0
361.62302,362.19275,72,59,0
361.62302,362.19275,64,59,0
362.48773,362.92432,68,70,0
362.48773,362.92432,72,59,0
362.48773,362.92432,64,59,0
362.48773,362.92432,76,70,0
362.96115,363.4049,72,49,0
362.988,363.425,77,59,0
362.9322,363.42923,65,49,0
363.42923,363.85974,64,45,0
363.42923,363.85974,72,45,0
363.42923,363.85974,76,53,0
363.86395,364.28705,62,49,0
363.86395,364.28705,74,59,0
363.86395,364.28705,69,49,0
364.2912,364.72308,60,39,0
364.2912,364.72308,69,39,0
364.2912,364.72308,72,47,0
364.2912,364.72308,62,39,0
364.72754,365.14795,67,45,0
364.72754,365.14795,62,45,0
364.72754,365.14795,59,45,0
364.72754,365.14795,71,53,0
365.15207,365.58368,59,38,0
365.15207,365.58368,69,45,0
365.15207,365.58368,62,38,0
365.58792,366.02588,64,45,0
365.58792,366.02588,60,45,0
365.58792,366.02588,67,53,0
366.03018,366.4779,65,45,0
366.03018,366.4779,59,37,0
366.03018,366.4779,55,37,0
366.48248,366.625,60,37,0
366.48248,366.625,64,43,0
366.91003,367.33423,68,70,0
367.33423,367.4754,69,66,0
366.91003,367.4754,76,70,0
366.91003,367.4754,64,59,0
366.91003,367.4754,72,59,0
367.76926,368.194,68,70,0
368.194,368.33585,69,66,0
367.76926,368.33585,64,59,0
367.76926,368.33585,72,59,0
367.76926,368.33585,76,70,0
368.63113,369.05646,68,70,0
369.05646,369.19763,69,66,0
368.63113,369.19763,64,59,0
368.63113,369.19763,72,59,0
368.63113,369.19763,76,70,0
369.49225,369.92886,76,70,0
369.49225,369.92886,68,70,0
369.49225,369.92886,64,59,0
369.49225,369.92886,72,59,0
369.96567,370.4113,72,49,0
369.99255,370.4295,77,59,0
369.9367,370.43378,65,49,0
370.43378,370.8643,76,53,0
370.43378,370.8643,72,45,0
370.43378,370.8643,64,45,0
370.86847,371.2896,62,49,0
370.86847,371.2896,74,59,0
370.86847,371.2896,69,49,0
371.29373,371.72363,69,39,0
371.29373,371.72363,72,47,0
371.29373,371.72363,62,39,0
371.7281,372.1485,71,53,0
371.7281,372.1485,67,45,0
371.7281,372.1485,62,45,0
372.15262,372.58423,69,52,0
372.15262,372.58423,71,52,0
372.15262,372.58423,81,62,0
372.58844,373.0264,67,54,0
372.58844,373.0264,72,54,0
372.58844,373.0264,79,64,0
373.0307,373.47842,71,46,0
373.0307,373.47842,77,55,0
373.0307,373.47842,65,46,0
373.48303,373.91782,76,64,0
373.48303,373.91782,72,54,0
373.48303,373.91782,64,54,0
373.91782,374.3192,67,46,0
373.91782,374.3192,79,55,0
373.91782,374.3192,70,46,0
374.32578,374.36514,79,47,0
374.32578,374.36514,70,39,0
374.36514,374.53906,77,62,0
374.36514,374.53906,69,52,0
374.58255,374.75644,67,46,0
374.58255,374.75644,76,55,0
374.79993,374.97385,77,64,0
374.79993,374.97385,69,54,0
375.01733,375.20743,65,46,0
375.01733,375.20743,74,55,0
375.25784,375.4439,74,59,0
375.25784,375.4439,64,50,0
375.25784,375.4439,69,50,0
375.49042,375.67645,69,43,0
375.49042,375.67645,64,43,0
375.49042,375.67645,72,51,0
375.72296,375.9155,71,59,0
375.72296,375.9155,64,50,0
375.72296,375.9155,69,50,0
375.96362,376.1681,64,54,0
375.96362,376.1681,72,64,0
375.96362,376.1681,69,54,0
376.22134,377.0455,76,71,0
377.0455,377.2669,74,62,0
376.22134,377.2669,71,60,0
376.22134,377.2669,65,60,0
377.2669,377.43933,72,58,0
377.2669,377.43933,64,49,0
377.78415,378.2089,73,70,0
378.2089,378.34845,74,66,0
377.78415,378.34845,77,59,0
377.78415,378.34845,69,59,0
377.78415,378.34845,81,70,0
378.64066,379.06656,73,70,0
379.06656,379.20544,74,66,0
378.64066,379.20544,77,59,0
378.64066,379.20544,81,70,0
378.64066,379.20544,69,59,0
379.49777,379.92368,73,70,0
379.92368,380.06192,74,66,0
379.49777,380.06192,81,70,0
379.49777,380.06192,77,59,0
379.49777,380.06192,69,59,0
380.3536,380.79022,77,59,0
380.3536,380.79022,69,59,0
380.3536,380.79022,73,70,0
380.3536,380.79022,81,70,0
380.84354,380.86316,84,51,0
380.8208,381.28006,77,51,0
380.86316,381.30438,82,62,0
380.7981,381.30438,70,49,0
381.30438,381.73907,69,45,0
381.30438,381.73907,81,53,0
381.30438,381.73907,77,45,0
381.73907,382.1582,74,49,0
381.73907,382.1582,67,49,0
381.73907,382.1582,79,59,0
382.1623,382.59088,67,39,0
382.1623,382.59088,74,39,0
382.1623,382.59088,77,47,0
382.59534,383.01376,72,45,0
382.59534,383.01376,67,45,0
382.59534,383.01376,76,53,0
383.01788,383.4443,65,38,0
383.01788,383.4443,67,38,0
383.01788,383.4443,74,45,0
383.4485,383.88644,64,45,0
383.4485,383.88644,67,45,0
383.4485,383.88644,72,53,0
383.89075,384.33847,70,45,0
383.89075,384.33847,64,37,0
383.89075,384.33847,67,37,0
384.34308,384.4856,69,43,0
384.34308,384.4856,65,37,0
384.77063,385.19308,73,70,0
385.19308,385.3323,74,66,0
384.77063,385.3323,77,59,0
384.77063,385.3323,69,59,0
384.77063,385.3323,81,70,0
385.62418,386.04837,76,59,0
386.04837,386.18726,77,66,0
385.62418,386.18726,69,59,0
385.62418,386.18726,81,70,0
386.47958,386.90207,76,70,0
386.90207,387.03937,77,66,0
386.47958,387.03937,84,70,0
386.47958,387.03937,81,59,0
386.47958,387.03937,72,59,0
387.3301,387.7702,80,59,0
387.7702,387.9169,81,73,0
387.3301,387.9169,72,59,0
387.3301,387.9169,84,76,0
388.2103,388.6469,84,59,0
388.2103,388.6469,88,70,0
388.2103,388.6469,76,70,0
388.70578,388.72736,91,51,0
388.68027,389.14426,84,52,0
388.72736,389.16858,89,74,0
388.65475,389.16858,77,56,0
389.16858,389.5991,84,51,0
389.16858,389.5991,76,51,0
389.16858,389.5991,88,60,0
389.60327,390.0251,74,56,0
389.60327,390.0251,86,67,0
389.60327,390.0251,81,56,0
390.0292,390.45978,84,54,0
390.0292,390.45978,74,44,0
390.0292,390.45978,81,44,0
390.0292,390.45978,72,44,0
390.4642,390.8513,71,51,0
390.4642,390.8513,74,51,0
390.4642,390.8513,79,51,0
390.4642,390.8513,83,60,0
390.88776,391.3194,93,71,0
390.8701,391.3194,83,59,0
390.85245,391.3194,81,59,0
391.3194,391.75314,79,62,0
391.3194,391.75314,84,62,0
391.3194,391.75314,91,73,0
391.7574,392.20013,89,63,0
391.7574,392.20013,77,52,0
391.7574,392.20013,83,52,0
392.2047,392.64267,76,62,0
392.2047,392.64267,84,62,0
392.2047,392.64267,88,73,0
392.64697,393.05338,91,63,0
392.64697,393.05338,82,52,0
392.64697,393.05338,79,52,0
393.05994,393.0993,91,51,0
393.05994,393.0993,82,42,0
393.05994,393.0993,79,42,0
393.0993,393.2762,81,57,0
393.0993,393.2762,89,68,0
393.0993,393.2762,77,57,0
393.32043,393.49734,79,50,0
393.32043,393.49734,76,50,0
393.32043,393.49734,88,60,0
393.54156,393.71848,89,70,0
393.54156,393.71848,81,59,0
393.54156,393.71848,77,59,0
393.7627,393.95404,86,60,0
393.7627,393.95404,81,50,0
393.7627,393.95404,74,50,0
394.00446,394.19052,81,55,0
394.00446,394.19052,76,55,0
394.00446,394.19052,74,55,0
394.00446,394.19052,86,64,0
394.23703,394.42307,81,47,0
394.23703,394.42307,72,47,0
394.23703,394.42307,84,56,0
394.23703,394.42307,76,47,0
394.46957,394.6621,81,55,0
394.46957,394.6621,83,64,0
394.46957,394.6621,76,55,0
394.46957,394.6621,71,55,0
394.71024,394.92047,81,59,0
394.71024,394.92047,84,70,0
394.71024,394.92047,76,59,0
394.71024,394.92047,72,59,0
394.9762,395.8309,76,60,0
394.9762,395.8309,88,71,0
395.8309,396.0862,74,52,0
394.9762,396.0862,77,60,0
394.9762,396.0862,83,60,0
395.8309,396.0862,86,62,0
396.0862,396.17242,76,49,0
396.0862,396.17242,72,49,0
396.0862,396.17242,79,49,0
396.0862,396.17242,84,58,0
396.60345,396.6694,76,68,0
396.60345,396.6694,88,81,0
396.60345,396.6694,84,68,0
396.99905,397.06528,86,79,0
396.99905,397.06528,83,67,0
396.99905,397.06528,74,67,0
397.4019,397.4684,88,80,0
397.4019,397.4684,76,68,0
397.4019,397.4684,84,68,0
397.801,397.86737,83,63,0
397.801,397.86737,86,75,0
397.801,397.86737,74,63,0
398.20505,398.3369,83,66,0
398.20505,398.3369,95,78,0
398.3369,398.46878,93,65,0
398.46878,398.60068,95,65,0
398.60068,398.73254,96,79,0
398.60068,398.73254,84,67,0
398.73254,398.8644,91,67,0
398.8644,398.99802,88,67,0
398.99802,399.1299,95,78,0
398.99802,399.1299,83,66,0
399.1299,399.26178,93,63,0
399.26178,399.39365,95,63,0
399.39365,399.5255,84,64,0
399.39365,399.5255,96,76,0
399.5255,399.65738,91,65,0
399.65738,399.79468,88,65,0
399.79468,399.8606,88,81,0
399.79468,399.8606,76,68,0
399.79468,399.8606,84,68,0
400.19028,400.2565,86,79,0
400.19028,400.2565,83,67,0
400.19028,400.2565,74,67,0
400.5931,400.65964,88,80,0
400.5931,400.65964,84,68,0
400.5931,400.65964,76,68,0
400.99222,401.0586,86,75,0
400.99222,401.0586,74,63,0
400.99222,401.0586,83,63,0
401.39627,401.52814,83,66,0
401.39627,401.52814,95,78,0
401.52814,401.66,93,65,0
401.66,401.79187,95,65,0
401.79187,401.92374,84,67,0
401.79187,401.92374,96,79,0
401.92374,402.0556,91,67,0
402.0556,402.18924,88,67,0
402.18924,402.3211,83,66,0
402.18924,402.3211,95,78,0
402.3211,402.45297,93,63,0
402.45297,402.58484,95,63,0
402.58484,402.7167,84,64,0
402.58484,402.7167,96,76,0
402.7167,402.84857,91,65,0
402.84857,402.95157,88,65,0
402.98587,403.12317,100,76,0
402.98587,403.12317,88,64,0
403.12317,403.2605,96,65,0
403.2605,403.3978,93,65,0
403.3978,403.52792,91,67,0
403.3978,403.52792,103,79,0
403.52792,403.65808,100,64,0
403.65808,403.78824,96,64,0
403.78824,403.9184,100,78,0
403.78824,403.9184,88,78,0
403.9184,404.04855,96,64,0
404.04855,404.1787,91,64,0
404.1787,404.31,84,66,0
404.1787,404.31,96,78,0
404.31,404.44128,91,64,0
404.44128,404.57257,88,64,0
404.57257,404.7074,91,75,0
404.57257,404.7074,79,63,0
404.7074,404.845,88,64,0
404.845,404.99503,84,64,0
404.99503,405.06662,79,77,0
405.42462,405.49725,79,65,0
405.42462,405.49725,88,65,0
405.42462,405.49725,91,77,0
405.42462,405.49725,84,65,0
406.2963,406.36893,83,73,0
406.2963,406.36893,86,73,0
406.2963,406.36893,95,87,0
406.2963,406.36893,89,73,0
406.74683,406.8195,88,76,0
406.74683,406.8195,96,90,0
406.74683,406.8195,84,76,0
407.03738,407.10797,64,54,0
407.03738,407.10797,60,45,0
407.17856,407.31973,60,51,0
407.17856,407.31973,64,60,0
407.31973,407.46094,65,56,0
407.31973,407.46094,62,48,0
407.46094,407.6021,64,49,0
407.46094,407.6021,67,58,0
407.6021,407.7433,69,67,0
407.6021,407.7433,65,57,0
407.7433,407.88446,67,62,0
407.7433,407.88446,64,52,0
407.88446,408.02563,69,64,0
407.88446,408.02563,65,54,0
408.02563,408.16882,71,73,0
408.02563,408.16882,67,62,0
408.16882,408.312,72,67,0
408.16882,408.312,69,57,0
408.312,408.46628,74,77,0
408.312,408.46628,71,65,0
408.46628,408.5389,84,76,0
408.46628,408.5389,88,90,0
408.46628,408.5389,76,76,0
408.75684,408.8271,67,54,0
408.75684,408.8271,64,45,0
408.89734,409.03784,64,51,0
408.89734,409.03784,67,60,0
409.03784,409.17838,69,56,0
409.03784,409.17838,65,48,0
409.17838,409.31888,67,49,0
409.17838,409.31888,71,58,0
409.31888,409.4594,72,67,0
409.31888,409.4594,69,57,0
409.4594,409.5999,71,62,0
409.4594,409.5999,67,52,0
409.5999,409.74042,72,64,0
409.5999,409.74042,69,54,0
409.74042,409.8833,74,73,0
409.74042,409.8833,71,62,0
409.8833,410.02615,76,67,0
409.8833,410.02615,72,57,0
410.02615,410.18158,77,77,0
410.02615,410.18158,74,65,0
410.18158,410.25406,88,76,0
410.18158,410.25406,91,90,0
410.18158,410.25406,79,76,0
410.47144,410.54138,83,54,0
410.47144,410.54138,79,45,0
410.47144,410.54138,71,45,0
410.6113,410.68124,79,51,0
410.6113,410.68124,83,60,0
410.6113,410.68124,71,51,0
410.75116,410.82108,84,56,0
410.75116,410.82108,81,48,0
410.75116,410.82108,72,48,0
410.89102,410.96094,83,49,0
410.89102,410.96094,86,58,0
410.89102,410.96094,74,49,0
411.03088,411.1008,88,67,0
411.03088,411.1008,84,57,0
411.03088,411.1008,76,57,0
411.17075,411.24066,86,62,0
411.17075,411.24066,83,52,0
411.17075,411.24066,74,52,0
411.3106,411.38052,88,64,0
411.3106,411.38052,84,54,0
411.3106,411.38052,76,54,0
411.45047,411.5224,89,73,0
411.45047,411.5224,86,62,0
411.45047,411.5224,77,62,0
411.59433,411.6663,91,67,0
411.59433,411.6663,88,57,0
411.59433,411.6663,79,57,0
411.73822,411.814,93,77,0
411.73822,411.814,89,65,0
411.73822,411.814,81,65,0
411.88974,411.9605,95,85,0
411.88974,411.9605,91,72,0
411.88974,411.9605,83,68,0
412.31427,412.38504,93,85,0
412.31427,412.38504,81,72,0
412.31427,412.38504,84,72,0
412.31427,412.38504,89,72,0
412.7388,412.80957,79,72,0
412.7388,412.80957,91,85,0
412.7388,412.80957,88,72,0
412.7388,412.80957,84,72,0
413.16333,413.23407,88,85,0
413.16333,413.23407,76,72,0
413.16333,413.23407,79,72,0
413.16333,413.23407,83,72,0
413.59525,413.6677,72,72,0
413.59525,413.6677,84,85,0
413.59525,413.6677,81,72,0
413.59525,413.6677,76,72,0
414.46478,414.53726,86,85,0
414.46478,414.53726,74,72,0
414.46478,414.53726,79,72,0
414.46478,414.53726,83,72,0
415.28033,415.3258,88,76,0
415.28033,415.3258,76,76,0
415.28033,415.3258,79,76,0
415.28033,415.3258,84,76,0
415.37125,416.24292,88,85,0
415.37125,416.24292,76,72,0
415.37125,416.24292,79,72,0
415.37125,416.24292,84,72,0
1.346634,1.421447,36,60,0
1.49626,1.571073,43,49,0
1.645886,1.720699,48,49,0
1.795512,1.870325,36,56,0
1.945138,2.019951,43,44,0
2.094764,2.169577,48,44,0
2.24439,2.319203,36,56,0
2.394016,2.470939,43,46,0
2.547862,2.6224887,48,46,0
2.6971154,2.7717423,36,60,0
2.846369,2.9209957,43,49,0
2.9956224,3.0702493,48,49,0
3.144876,3.2195027,36,56,0
3.2941296,3.3687563,43,44,0
3.443383,3.5180097,48,44,0
3.5926366,3.6672633,36,56,0
3.74189,3.8165166,43,46,0
3.8911436,3.9674795,48,46,0
4.0438156,4.118257,36,60,0
4.192699,4.267141,43,49,0
4.3415823,4.416024,48,49,0
4.490466,4.5649076,36,57,0
4.6393495,4.7137914,43,46,0
4.788233,4.8626747,48,47,0
4.9371166,5.011558,36,62,0
5.086,5.162923,43,52,0
5.239846,5.3144727,48,53,0
5.3890996,5.463726,36,66,0
5.538353,5.61298,43,55,0
5.6876063,5.7622333,48,56,0
5.83686,5.9114866,36,67,0
5.9861135,6.0607405,43,54,0
6.135367,6.209994,48,55,0
6.2846203,6.359247,36,72,0
6.433874,6.510797,43,61,0
6.58772,6.670593,48,62,0
6.753466,6.830389,35,73,0
6.907312,6.984235,43,52,0
7.061158,7.138081,47,53,0
7.215004,7.291927,35,71,0
7.36885,7.445773,43,56,0
7.522696,7.599619,47,56,0
7.676542,7.753465,35,73,0
7.830388,7.907311,42,52,0
7.984234,8.061157,47,53,0
8.13808,8.215003,35,71,0
8.291926,8.368849,42,56,0
8.445772,8.522695,47,56,0
8.599618,8.676541,35,71,0
8.753464,8.830387,40,56,0
8.90731,8.984233,47,56,0
9.061156,9.138079,35,71,0
9.215002,9.293742,39,56,0
9.372482,9.456282,47,56,0
9.54008,9.61603,28,73,0
9.691979,9.767928,35,52,0
9.843878,9.9198265,40,53,0
9.995776,10.071725,28,71,0
10.147675,10.223623,35,56,0
10.299573,10.377495,40,56,0
10.455417,10.531366,28,73,0
10.607315,10.683265,35,52,0
10.759214,10.835163,40,53,0
10.911113,10.9870615,28,71,0
11.063011,11.13896,35,56,0
11.21491,11.29365,40,56,0
11.37239,11.448532,28,71,0
11.524674,11.600817,35,56,0
11.676959,11.753101,40,56,0
11.829244,11.905386,28,71,0
11.981528,12.057671,35,56,0
12.133813,12.217611,40,56,0
12.301411,12.380358,28,71,0
12.6172,12.966037,64,63,0
12.6172,12.966037,52,53,0
12.6172,12.966037,56,53,0
12.6172,12.966037,59,53,0
12.966037,13.489292,64,63,0
12.966037,13.489292,61,53,0
12.966037,13.489292,52,53,0
12.966037,13.489292,57,53,0
13.489292,13.748354,54,52,0
13.489292,13.748354,57,52,0
13.489292,13.748354,64,62,0
13.489292,13.748354,52,52,0
13.748354,13.832195,64,55,0
13.748354,13.832195,59,46,0
13.748354,13.832195,52,46,0
13.748354,13.832195,56,46,0
13.839817,13.9224615,59,51,0
13.839817,13.9224615,64,61,0
13.839817,13.9224615,52,51,0
13.839817,13.9224615,56,51,0
14.170396,14.525426,47,47,0
14.170396,14.525426,40,47,0
14.170396,14.525426,52,56,0
14.525426,15.057971,49,47,0
14.525426,15.057971,40,47,0
14.525426,15.057971,52,56,0
15.057971,15.313829,40,46,0
15.057971,15.313829,52,55,0
15.057971,15.313829,45,46,0
15.321593,15.414761,52,49,0
15.321593,15.414761,47,41,0
15.321593,15.414761,40,41,0
15.414761,15.498795,40,60,0
15.582828,15.658777,47,49,0
15.734727,15.8340645,52,49,0
15.933402,16.009352,28,56,0
16.0853,16.16125,35,44,0
16.2372,16.313148,40,44,0
16.389097,16.465046,28,56,0
16.540997,16.616945,35,46,0
16.692894,16.791904,40,46,0
16.890915,16.966864,28,56,0
17.042812,17.118763,35,44,0
17.194712,17.27066,40,44,0
17.34661,17.42256,28,56,0
17.498508,17.574457,35,46,0
17.650408,17.726357,40,46,0
17.802305,17.878254,28,56,0
17.954205,18.030153,35,46,0
18.106102,18.182053,40,46,0
18.258001,18.33395,28,50,0
18.409899,18.48585,35,36,0
18.561798,18.656435,40,33,0
18.751072,18.827023,28,39,0
18.902971,18.97892,35,28,0
19.054869,19.13082,40,27,0
19.206768,19.282717,28,34,0
19.358667,19.434616,35,27,0
19.510565,19.605501,40,27,0
19.70044,19.776388,28,30,0
19.852337,19.928286,35,21,0
20.004236,20.080185,40,20,0
20.156134,20.232082,28,27,0
20.308033,20.383982,35,20,0
20.45993,20.535881,40,20,0
20.61183,20.6973,28,26,0
21.119322,21.194134,36,60,0
21.268948,21.34376,43,49,0
21.418573,21.493385,48,49,0
21.5682,21.643011,36,56,0
21.717825,21.792639,43,44,0
21.86745,21.942265,48,44,0
22.017076,22.09189,36,56,0
22.166702,22.243626,43,46,0
22.320549,22.395176,48,46,0
22.469803,22.54443,36,60,0
22.619057,22.693684,43,49,0
22.768309,22.842936,48,49,0
22.917562,22.99219,36,56,0
23.066816,23.141443,43,44,0
23.21607,23.290697,48,44,0
23.365324,23.43995,36,56,0
23.514578,23.589203,43,46,0
23.66383,23.740166,48,46,0
23.816502,23.890944,36,60,0
23.965385,24.039827,43,49,0
24.11427,24.188711,48,49,0
24.263153,24.337595,36,57,0
24.412037,24.486479,43,46,0
24.56092,24.635363,48,47,0
24.709803,24.784245,36,62,0
24.858686,24.93561,43,52,0
25.012533,25.08716,48,53,0
25.161787,25.236414,36,66,0
25.31104,25.385666,43,55,0
25.460293,25.53492,48,56,0
25.609547,25.684174,36,67,0
25.7588,25.833427,43,54,0
25.908054,25.982681,48,55,0
26.057308,26.131935,36,72,0
26.20656,26.283484,43,61,0
26.360407,26.44328,48,62,0
26.526154,26.603077,35,73,0
26.679998,26.756922,43,52,0
26.833845,26.910769,47,53,0
26.987692,27.064613,35,71,0
27.141537,27.21846,43,56,0
27.295383,27.372307,47,56,0
27.449228,27.526152,35,73,0
27.603075,27.679998,42,52,0
27.756922,27.833843,47,53,0
27.910767,27.98769,35,71,0
28.064613,28.141537,42,56,0
28.218458,28.295382,47,56,0
28.372305,28.449228,35,71,0
28.526152,28.603073,40,56,0
28.679996,28.75692,47,56,0
28.833843,28.910767,35,71,0
28.987688,29.06643,39,56,0
29.14517,29.228968,47,56,0
29.312767,29.388718,28,73,0
29.464666,29.540615,35,52,0
29.616564,29.692514,40,53,0
29.768463,29.844412,28,71,0
29.92036,29.996311,35,56,0
30.07226,30.150183,40,56,0
30.228104,30.304052,28,73,0
30.380003,30.455952,35,52,0
30.5319,30.607851,40,53,0
30.6838,30.759748,28,71,0
30.835697,30.911648,35,56,0
30.987597,31.066338,40,56,0
31.145077,31.22122,28,71,0
31.297361,31.373505,35,56,0
31.449646,31.525787,40,56,0
31.60193,31.678072,28,71,0
31.754215,31.830357,35,56,0
31.9065,31.9903,40,56,0
32.074097,32.153046,28,71,0
32.41326,32.7758,59,53,0
32.41326,32.7758,52,53,0
32.41326,32.7758,56,53,0
32.41326,32.7758,64,63,0
32.7758,33.319607,57,53,0
32.7758,33.319607,64,63,0
32.7758,33.319607,52,53,0
32.7758,33.319607,61,53,0
33.319607,33.586525,54,52,0
33.319607,33.586525,64,62,0
33.319607,33.586525,52,52,0
33.319607,33.586525,57,52,0
33.586525,33.67495,59,46,0
33.586525,33.67495,56,46,0
33.586525,33.67495,52,46,0
33.586525,33.67495,64,55,0
33.682987,33.765633,52,51,0
33.682987,33.765633,56,51,0
33.682987,33.765633,64,61,0
33.682987,33.765633,59,51,0
34.013565,34.378307,47,47,0
34.013565,34.378307,52,56,0
34.013565,34.378307,40,47,0
34.378307,34.92542,49,47,0
34.378307,34.92542,40,47,0
34.378307,34.92542,52,56,0
34.92542,35.189056,45,46,0
34.92542,35.189056,40,46,0
34.92542,35.189056,52,55,0
35.19712,35.293896,47,41,0
35.19712,35.293896,52,49,0
35.19712,35.293896,40,41,0
35.293896,35.37793,40,60,0
35.461964,35.53791,47,49,0
35.61386,35.7132,52,49,0
35.81254,35.888485,28,56,0
35.964436,36.040386,35,44,0
36.116333,36.192284,40,44,0
36.268234,36.34418,28,56,0
36.42013,36.49608,35,46,0
36.57203,36.67104,40,46,0
36.77005,36.845997,28,56,0
36.921947,36.9979,35,44,0
37.073845,37.149796,40,44,0
37.225746,37.301693,28,56,0
37.377644,37.453594,35,46,0
37.52954,37.60549,40,46,0
37.681442,37.76341,28,56,0
38.173244,38.25521,33,67,0
38.810535,38.88866,57,41,0
38.810535,38.88866,61,49,0
38.966785,39.046364,59,49,0
38.966785,39.046364,52,41,0
39.12594,39.205513,57,58,0
39.12594,39.205513,49,49,0
39.44424,39.526207,40,74,0
39.608173,39.69014,45,87,0
40.24547,40.323593,61,49,0
40.24547,40.323593,57,41,0
40.40172,40.481293,33,41,0
40.40172,40.481293,59,49,0
40.40172,40.481293,52,41,0
40.560867,40.64044,33,41,0
40.560867,40.64044,49,49,0
40.560867,40.64044,57,58,0
40.72002,40.799595,35,58,0
40.87917,40.961136,37,64,0
41.043102,41.125072,38,67,0
42.3141,42.39607,45,74,0
42.478035,42.56,50,87,0
43.271576,43.35115,38,41,0
43.43073,43.510303,38,41,0
43.589878,43.669453,39,58,0
43.74903,43.830997,40,64,0
43.912964,43.99493,41,67,0
45.18396,45.265926,48,74,0
45.347893,45.429863,53,87,0
46.141438,46.221012,41,41,0
46.300587,46.38016,41,41,0
46.45974,46.539314,43,58,0
46.61889,46.700855,45,64,0
46.782825,46.86479,46,67,0
47.420116,47.49824,44,41,0
47.576366,47.65594,45,41,0
47.735516,47.815094,47,45,0
47.89467,47.974243,47,43,0
48.053818,48.135788,48,45,0
48.217754,48.29972,50,55,0
48.855045,48.93317,47,41,0
49.011295,49.090874,48,41,0
49.17045,49.250023,50,45,0
49.329597,49.409176,50,43,0
49.48875,49.570717,52,45,0
49.652683,49.73465,53,55,0
50.289978,50.368103,53,36,0
50.446228,50.525803,55,36,0
50.605377,50.68495,56,43,0
50.76453,50.844105,56,39,0
50.92368,51.005646,57,49,0
51.087612,51.169582,59,61,0
51.41548,51.893627,59,34,0
51.41548,51.893627,62,41,0
51.907288,52.39909,59,34,0
51.907288,52.39909,62,41,0
52.563023,52.644993,63,65,0
52.563023,52.644993,59,65,0
52.890892,53.369038,59,34,0
52.890892,53.369038,63,41,0
53.382698,53.8745,59,34,0
53.382698,53.8745,63,41,0
54.038437,54.53024,65,65,0
54.038437,54.53024,55,55,0
54.038437,54.53024,62,55,0
54.85811,54.940075,43,60,0
54.85811,54.940075,31,60,0
55.02204,55.104008,31,64,0
55.02204,55.104008,43,64,0
55.185978,55.267944,33,67,0
55.185978,55.267944,45,67,0
55.34991,55.431877,35,70,0
55.34991,55.431877,47,70,0
55.513847,55.595814,36,73,0
55.67778,55.759747,43,60,0
55.841713,55.923683,48,60,0
56.00565,56.087616,36,70,0
56.169582,56.251553,43,59,0
56.33352,56.415485,48,59,0
56.49745,56.57942,36,66,0
56.66139,56.743355,43,59,0
56.82532,56.907288,48,59,0
56.989258,57.071224,36,66,0
57.15319,57.228004,43,49,0
57.30282,57.37763,48,49,0
57.452442,57.527256,36,56,0
57.60207,57.67688,43,44,0
57.751694,57.826508,48,44,0
57.90132,57.976135,36,56,0
58.050945,58.12787,43,46,0
58.204792,58.27942,48,46,0
58.354046,58.428673,36,60,0
58.5033,58.577927,43,49,0
58.652554,58.72718,48,49,0
58.801807,58.876434,36,56,0
58.95106,59.02569,43,44,0
59.100315,59.174942,48,44,0
59.249565,59.324192,35,56,0
59.39882,59.473446,43,46,0
59.548073,59.62441,47,46,0
59.700745,59.77519,33,60,0
59.84963,59.924072,40,49,0
59.998512,60.072956,45,49,0
60.147396,60.22184,33,57,0
60.29628,60.37072,40,46,0
60.445164,60.519604,45,47,0
60.594048,60.668488,33,62,0
60.74293,60.819855,40,52,0
60.89678,60.971405,45,53,0
61.04603,61.120655,33,60,0
61.195282,61.26991,40,49,0
61.344536,61.419163,45,49,0
61.49379,61.568417,33,56,0
61.643044,61.71767,40,44,0
61.792297,61.866924,45,44,0
61.94155,62.01618,31,56,0
62.090805,62.165432,40,46,0
62.24006,62.316395,43,46,0
62.39273,62.46717,29,60,0
62.541615,62.616055,36,49,0
62.6905,62.76494,41,49,0
62.839382,62.913822,29,57,0
62.988262,63.062706,36,46,0
63.137146,63.21159,41,47,0
63.28603,63.360474,29,62,0
63.434914,63.511837,36,52,0
63.58876,63.663387,41,53,0
63.738014,63.81264,29,66,0
63.887268,63.961895,31,55,0
64.03652,64.111145,41,56,0
64.185776,64.2604,29,67,0
64.33503,64.40965,31,54,0
64.48428,64.55891,41,55,0
64.63354,64.70816,29,72,0
64.78279,64.85971,31,61,0
64.93664,65.01951,41,62,0
65.10238,65.18071,40,80,0
65.10238,65.18071,28,68,0
65.25904,65.33518,38,57,0
65.25904,65.33518,26,48,0
65.41132,65.487465,36,58,0
65.41132,65.487465,24,49,0
65.56361,66.17946,26,66,0
65.56361,66.17946,38,78,0
66.17946,66.2556,48,57,0
66.17946,66.2556,36,48,0
66.33175,66.40789,47,58,0
66.33175,66.40789,35,49,0
66.48403,67.09872,48,78,0
66.48403,67.09872,36,66,0
67.09872,67.17467,35,48,0
67.09872,67.17467,47,57,0
67.25062,67.32656,45,58,0
67.25062,67.32656,33,49,0
67.40251,67.47846,47,57,0
67.40251,67.47846,35,48,0
67.71189,67.79569,31,48,0
67.71189,67.79569,43,57,0
67.87949,67.95721,51,80,0
67.87949,67.95721,39,68,0
68.03493,68.11088,38,48,0
68.03493,68.11088,50,57,0
68.18683,68.26278,36,49,0
68.18683,68.26278,48,58,0
68.33873,68.95621,50,78,0
68.33873,68.95621,38,66,0
68.95621,69.03196,36,48,0
68.95621,69.03196,48,57,0
69.10772,69.18348,35,49,0
69.10772,69.18348,47,58,0
69.25923,69.87197,36,66,0
69.25923,69.87197,48,78,0
69.87197,69.94811,35,48,0
69.87197,69.94811,47,57,0
70.02426,70.1004,45,58,0
70.02426,70.1004,33,49,0
70.176544,70.252686,35,48,0
70.176544,70.252686,47,57,0
70.48111,70.56491,43,57,0
70.48111,70.56491,31,48,0
70.64871,70.72765,52,71,0
70.62776,70.72765,43,60,0
70.60681,70.72765,36,60,0
70.9645,71.312325,52,53,0
70.9645,71.312325,60,63,0
70.9645,71.312325,48,53,0
70.9645,71.312325,55,53,0
71.312325,71.83406,48,53,0
71.312325,71.83406,53,53,0
71.312325,71.83406,57,53,0
71.312325,71.83406,60,63,0
71.83406,72.09512,60,62,0
71.83406,72.09512,50,52,0
71.83406,72.09512,48,52,0
71.83406,72.09512,53,52,0
72.09512,72.180786,52,46,0
72.09512,72.180786,60,55,0
72.09512,72.180786,48,46,0
72.09512,72.180786,55,46,0
72.188576,72.271225,60,61,0
72.188576,72.271225,48,51,0
72.188576,72.271225,52,51,0
72.188576,72.271225,55,51,0
72.51916,72.87314,36,47,0
72.51916,72.87314,48,56,0
72.51916,72.87314,43,47,0
72.87314,73.40411,45,47,0
72.87314,73.40411,36,47,0
72.87314,73.40411,48,56,0
73.40411,73.6635,48,55,0
73.40411,73.6635,36,46,0
73.40411,73.6635,41,46,0
73.671364,73.7657,48,49,0
73.671364,73.7657,36,41,0
73.671364,73.7657,43,41,0
73.7657,73.84973,36,60,0
73.93377,74.00972,43,49,0
74.08567,74.185005,48,49,0
74.28434,74.36029,36,56,0
74.43624,74.51219,43,44,0
74.58814,74.664085,48,44,0
74.740036,74.81599,36,56,0
74.89194,74.96789,43,46,0
75.04384,75.142845,48,46,0
75.24185,75.3178,36,56,0
75.39375,75.4697,43,44,0
75.545654,75.621605,48,44,0
75.69755,75.7735,36,56,0
75.84945,75.9254,43,46,0
76.00135,76.07729,48,46,0
76.153244,76.229195,36,56,0
76.305145,76.381096,43,35,0
76.45705,76.53299,48,35,0
76.60894,76.68489,33,43,0
76.76084,76.83679,38,29,0
76.912735,77.00738,45,29,0
77.10201,77.17796,33,38,0
77.253914,77.329865,38,32,0
77.40581,77.48176,45,32,0
77.55771,77.63366,33,40,0
77.70961,77.78555,38,32,0
77.8615,77.95644,45,31,0
78.05138,78.12733,33,38,0
78.20328,78.27923,38,26,0
78.35518,78.43112,45,26,0
78.50707,78.58302,33,35,0
78.65897,78.734924,38,25,0
78.810875,78.88682,45,28,0
78.96277,79.04824,33,35,0
79.13371,79.21918,38,25,0
79.30465,79.39012,45,25,0
79.47559,79.68987,43,34,0
79.43285,79.68987,31,34,0
79.68987,79.90416,50,29,0
79.90416,80.108246,55,30,0
80.108246,80.322525,59,34,0
80.322525,80.53605,55,29,0
80.53605,80.74957,50,29,0
80.74957,80.9631,40,38,0
80.9631,81.17662,55,28,0
81.17662,81.3807,59,28,0
81.3807,81.59347,62,32,0
81.59347,81.80624,59,34,0
81.80624,82.019,55,36,0
81.3807,82.019,52,32,0
82.019,82.231766,33,41,0
82.019,82.231766,45,41,0
82.713974,84.393074,67,31,0
82.231766,84.393074,60,31,0
82.478676,84.393074,64,31,0
82.713974,84.393074,57,31,0
84.393074,84.6036,55,29,0
84.393074,84.6036,64,35,0
84.393074,84.6036,57,29,0
84.6036,85.02465,55,32,0
84.6036,85.02465,52,32,0
84.6036,85.02465,60,38,0
85.02465,85.25994,59,33,0
85.02465,85.25994,50,28,0
85.02465,85.25994,55,28,0
85.25994,85.473465,38,42,0
85.68699,85.90051,48,28,0
85.68699,85.90051,57,33,0
85.90051,86.57102,60,38,0
85.90051,86.57102,52,32,0
86.57102,86.99959,57,35,0
86.57102,86.99959,50,29,0
87.213875,87.42816,43,34,0
87.42816,87.64245,50,29,0
87.64245,87.84653,55,30,0
87.84653,88.060814,59,34,0
88.060814,88.27208,55,29,0
88.27208,88.48114,50,29,0
88.48114,88.6902,40,38,0
88.6902,88.89926,55,28,0
88.89926,89.10334,59,28,0
89.10334,89.31611,62,32,0
89.31611,89.52229,59,34,0
89.52229,89.72848,55,36,0
89.10334,89.72848,52,32,0
89.72848,89.93466,33,41,0
89.72848,89.93466,45,41,0
90.47174,92.15084,71,34,0
89.93466,92.15084,64,31,0
90.22174,92.15084,67,34,0
90.47174,92.15084,61,34,0
92.15084,92.36137,69,35,0
92.15084,92.36137,64,29,0
92.15084,92.36137,61,29,0
92.36137,92.78242,61,32,0
92.36137,92.78242,67,38,0
92.36137,92.78242,59,32,0
92.78242,93.017715,57,28,0
92.78242,93.017715,66,33,0
92.78242,93.017715,61,28,0
93.017715,93.23124,45,42,0
93.017715,93.23124,33,35,0
93.44476,93.65829,67,31,0
93.44476,93.65829,59,26,0
93.44476,93.65829,61,26,0
93.65829,94.72895,57,31,0
93.65829,94.72895,66,37,0
93.65829,94.72895,61,31,0
94.72895,94.96151,61,30,0
94.72895,94.96151,55,25,0
94.72895,94.96151,64,30,0
94.96151,95.18373,38,30,0
94.96151,95.18373,50,36,0
95.18373,95.40595,54,29,0
95.40595,95.628174,57,29,0
95.628174,95.73928,66,38,0
96.99462,97.21684,38,29,0
98.11165,98.33387,64,29,0
98.33387,98.77831,60,34,0
98.77831,99.01361,59,29,0
99.01361,99.45805,56,36,0
99.46083,99.68305,57,29,0
99.680275,100.7973,60,35,0
100.7973,101.034454,55,29,0
99.01361,101.034454,50,30,0
101.034454,101.4789,53,36,0
101.4789,101.70112,54,29,0
101.034454,101.70112,50,30,0
101.70112,101.92334,38,29,0
102.15323,102.374626,67,29,0
102.374626,102.81743,64,34,0
102.81743,103.05365,60,29,0
103.05365,103.49645,59,36,0
103.49645,103.71786,60,29,0
103.71786,104.83247,64,35,0
104.83247,105.06324,59,29,0
103.05365,105.06324,50,30,0
105.06324,105.51188,56,36,0
105.51188,105.7341,57,29,0
106.17854,106.40843,71,36,0
105.06324,106.40843,50,30,0
106.40843,106.85797,67,42,0
106.85797,107.07856,64,30,0
107.07856,107.29915,38,29,0
107.51974,107.74962,69,36,0
107.74962,108.190796,67,42,0
108.190796,108.411385,64,30,0
108.411385,108.63197,38,29,0
108.85256,109.08694,67,36,0
109.08694,109.56151,64,42,0
109.56151,109.79407,60,30,0
109.79407,110.02663,38,29,0
110.259186,110.49174,57,28,0
110.259186,110.49174,60,28,0
110.259186,110.49174,66,34,0
110.49174,110.956856,55,32,0
110.49174,110.956856,60,32,0
110.49174,110.956856,64,38,0
110.956856,111.25388,55,28,0
110.956856,111.25388,62,34,0
111.25388,112.29285,61,32,0
112.29285,113.1752,58,29,0
113.1752,114.08429,55,30,0
111.25388,114.08429,50,27,0
114.08429,117.14162,54,22,0
114.08429,117.14162,60,26,0
114.08429,117.14162,50,22,0
117.52378,117.73807,43,34,0
117.73807,117.952354,50,29,0
117.952354,118.15643,55,30,0
118.15643,118.37072,59,34,0
118.37072,118.58424,55,29,0
118.58424,118.79777,50,29,0
118.79777,119.01129,40,38,0
119.01129,119.22481,55,28,0
119.22481,119.428894,59,28,0
119.428894,119.641655,62,32,0
119.641655,119.85442,59,34,0
119.85442,120.06719,55,36,0
119.428894,120.06719,52,32,0
120.06719,120.27995,45,41,0
120.06719,120.27995,33,41,0
120.76216,122.44126,57,31,0
120.27995,122.44126,60,31,0
120.52687,122.44126,64,31,0
120.76216,122.44126,67,31,0
122.44126,122.65179,55,29,0
122.44126,122.65179,57,29,0
122.44126,122.65179,64,35,0
122.65179,123.07284,55,32,0
122.65179,123.07284,52,32,0
122.65179,123.07284,60,38,0
123.07284,123.308136,50,28,0
123.07284,123.308136,59,33,0
123.07284,123.308136,55,28,0
123.308136,123.52166,38,42,0
123.73518,123.94871,57,33,0
123.73518,123.94871,48,28,0
123.94871,124.61921,52,32,0
123.94871,124.61921,60,38,0
124.61921,125.04778,57,35,0
124.61921,125.04778,50,29,0
125.26207,125.47635,43,34,0
125.47635,125.690636,50,29,0
125.690636,125.89472,55,30,0
125.89472,126.10901,59,34,0
126.10901,126.31734,55,29,0
126.31734,126.52567,50,29,0
126.52567,126.73401,40,38,0
126.73401,126.94234,55,28,0
126.94234,127.14642,59,28,0
127.14642,127.35695,62,32,0
127.35695,127.56242,59,34,0
127.56242,127.76791,55,36,0
127.14642,127.76791,52,32,0
127.76791,127.97843,47,34,0
127.97843,128.18896,54,29,0
128.19485,128.39708,59,34,0
128.39098,128.60004,62,39,0
128.60004,128.80206,59,33,0
128.80206,129.00407,54,33,0
129.00407,129.2061,43,43,0
129.2061,129.40811,59,32,0
129.40811,129.60878,62,36,0
129.60878,129.81712,66,41,0
129.81712,130.0158,62,44,0
130.0158,130.21448,59,47,0
129.60878,130.21448,55,41,0
130.21448,130.41315,50,43,0
130.41315,130.61182,57,32,0
130.61182,130.8159,62,37,0
130.8159,131.02423,66,43,0
131.02423,131.22559,62,47,0
131.22559,131.42693,57,51,0
131.42693,131.62827,47,55,0
131.83879,133.331,66,46,0
133.331,134.58974,65,55,0
132.07225,134.58974,59,44,0
132.07225,134.58974,69,51,0
131.62827,134.58974,62,40,0
134.58974,134.7904,40,62,0
134.99107,135.19797,62,39,0
134.99107,135.19797,68,46,0
134.99107,135.19797,59,39,0
135.19797,135.8549,71,55,0
135.8549,136.26306,62,50,0
135.8549,136.26306,56,42,0
136.46715,136.66782,45,62,0
137.07468,137.72922,64,55,0
136.86848,137.72922,57,39,0
136.86848,137.72922,61,46,0
137.72922,138.13737,55,50,0
138.34146,138.54213,38,62,0
138.7428,138.94969,72,46,0
138.7428,138.94969,64,39,0
138.7428,138.94969,66,39,0
138.94969,139.60425,76,60,0
139.60425,140.0124,66,50,0
139.60425,140.0124,62,42,0
140.21649,140.42627,43,62,0
140.84586,141.52002,69,46,0
140.63606,141.52002,60,33,0
141.52002,141.94705,67,42,0
140.63606,141.94705,65,39,0
140.63606,141.94705,62,33,0
141.52002,141.94705,59,34,0
142.16058,142.37486,48,34,0
142.16058,142.37486,36,34,0
142.37486,142.58916,55,29,0
142.58916,142.79323,60,30,0
142.79323,143.00752,64,34,0
143.00752,143.22104,60,29,0
143.22104,143.43231,55,29,0
143.43231,143.64359,45,38,0
143.64359,143.85484,60,28,0
143.85484,144.05893,64,28,0
144.05893,144.2717,67,32,0
144.2717,144.48149,64,34,0
144.48149,144.69127,60,36,0
144.05893,144.69127,57,32,0
144.69127,144.90106,50,41,0
144.69127,144.90106,38,41,0
145.39836,147.07747,72,31,0
144.90106,147.07747,65,31,0
145.16307,147.07747,69,31,0
145.39836,147.07747,62,31,0
147.07747,147.288,69,35,0
147.07747,147.288,60,29,0
147.07747,147.288,62,29,0
147.288,147.70905,57,32,0
147.288,147.70905,65,38,0
147.288,147.70905,60,32,0
147.70905,147.94434,55,28,0
147.70905,147.94434,60,28,0
147.70905,147.94434,64,33,0
147.94434,148.15787,43,42,0
148.37138,148.5849,62,33,0
148.37138,148.5849,53,28,0
148.5849,149.25542,57,32,0
148.5849,149.25542,65,38,0
149.25542,149.68399,62,35,0
149.25542,149.68399,55,29,0
149.89827,150.11255,48,34,0
149.89827,150.11255,36,34,0
150.11255,150.32684,55,29,0
150.32684,150.53091,60,30,0
150.53091,150.74521,64,34,0
150.74521,150.95648,60,29,0
150.95648,151.16774,55,29,0
151.16774,151.37901,45,38,0
151.37901,151.59027,60,28,0
151.59027,151.79436,64,28,0
151.79436,152.00713,67,32,0
152.00713,152.21474,64,34,0
152.21474,152.42235,60,36,0
151.79436,152.42235,57,32,0
152.42235,152.62996,38,41,0
152.42235,152.62996,50,41,0
153.16704,154.83884,76,34,0
152.62996,154.83884,69,31,0
152.91704,154.83884,72,34,0
153.16704,154.83884,66,34,0
154.83884,155.04936,66,29,0
154.83884,155.04936,74,35,0
154.83884,155.04936,69,29,0
155.04936,155.47041,72,38,0
155.04936,155.47041,64,32,0
155.04936,155.47041,66,32,0
155.47041,155.7057,66,28,0
155.47041,155.7057,71,33,0
155.47041,155.7057,62,28,0
155.7057,155.91922,50,42,0
155.7057,155.91922,38,35,0
156.13275,156.34627,72,31,0
156.13275,156.34627,64,26,0
156.13275,156.34627,66,26,0
156.34627,157.41693,71,37,0
156.34627,157.41693,66,31,0
156.34627,157.41693,62,31,0
157.41693,157.64949,66,30,0
157.41693,157.64949,69,30,0
157.41693,157.64949,60,25,0
157.64949,157.86302,47,27,0
157.64949,157.86302,56,32,0
157.64949,157.86302,54,27,0
157.86302,158.07654,54,26,0
157.86302,158.07654,57,31,0
157.86302,158.07654,48,26,0
158.07654,158.29007,54,26,0
158.07654,158.29007,60,31,0
158.07654,158.29007,52,26,0
158.29007,159.36073,50,31,0
158.29007,159.36073,59,37,0
158.29007,159.36073,54,31,0
159.36073,159.61824,57,30,0
159.36073,159.61824,48,25,0
159.36073,159.61824,54,30,0
159.61824,159.83643,50,57,0
159.61824,159.83643,38,48,0
160.05461,160.28188,74,42,0
160.05461,160.28188,68,34,0
160.05461,160.28188,65,34,0
160.28188,161.37598,68,42,0
160.28188,161.37598,72,50,0
160.28188,161.37598,64,42,0
161.37598,161.60854,68,40,0
161.37598,161.60854,71,40,0
161.37598,161.60854,62,33,0
161.60854,161.82912,49,37,0
161.60854,161.82912,56,37,0
161.60854,161.82912,58,43,0
161.82912,162.0497,50,34,0
161.82912,162.0497,59,42,0
161.82912,162.0497,56,34,0
162.0497,162.27872,62,42,0
162.0497,162.27872,53,34,0
162.0497,162.27872,56,34,0
162.27872,163.37924,60,50,0
162.27872,163.37924,52,42,0
162.27872,163.37924,56,42,0
163.37924,163.61179,59,40,0
163.37924,163.61179,50,33,0
163.37924,163.61179,56,40,0
163.61179,163.83319,38,50,0
163.61179,163.83319,50,60,0
164.0546,164.26677,72,36,0
164.0546,164.26677,69,36,0
164.0546,164.26677,78,43,0
164.276,165.39293,69,43,0
164.276,165.39293,78,52,0
164.276,165.39293,72,43,0
165.39293,165.6325,81,51,0
165.39293,165.6325,76,43,0
165.39293,165.6325,72,43,0
165.64293,166.82402,81,57,0
165.64293,166.82402,76,48,0
165.64293,166.82402,72,48,0
166.82402,167.06596,72,39,0
166.82402,167.06596,78,47,0
166.82402,167.06596,69,39,0
167.06596,167.5832,69,45,0
167.06596,167.5832,74,53,0
167.06596,167.5832,66,45,0
167.5832,167.88623,64,41,0
167.5832,167.88623,69,41,0
167.5832,167.88623,72,49,0
167.88623,168.12624,59,35,0
167.88623,168.12624,68,41,0
167.88623,168.12624,66,35,0
168.12624,168.36623,69,39,0
168.12624,168.36623,60,33,0
168.12624,168.36623,66,33,0
168.36623,168.60623,72,38,0
168.36623,168.60623,64,32,0
168.36623,168.60623,66,32,0
168.60623,169.87628,71,44,0
168.60623,169.87628,62,37,0
168.60623,169.87628,66,37,0
169.87628,170.19344,66,31,0
169.87628,170.19344,69,31,0
169.87628,170.19344,60,26,0
170.2495,170.32431,43,42,0
170.39912,170.47394,50,34,0
170.54875,170.62357,55,34,0
170.69838,170.7732,43,39,0
170.848,170.92282,50,30,0
170.99763,171.07245,55,30,0
171.14726,171.22208,43,39,0
171.29689,171.37381,50,32,0
171.45073,171.52536,55,32,0
171.59999,171.6746,43,42,0
171.74924,171.82387,50,34,0
171.89848,171.97311,55,34,0
172.04774,172.12238,43,39,0
172.19699,172.27353,50,30,0
172.35005,172.42487,55,30,0
172.49968,172.5745,43,39,0
172.6493,172.72412,50,32,0
172.79893,172.88464,55,32,0
172.97037,173.0448,41,42,0
173.11925,173.1937,45,34,0
173.26813,173.34258,53,34,0
173.41702,173.49146,41,40,0
173.5659,173.64034,45,33,0
173.71478,173.78923,53,33,0
173.86366,173.93811,41,45,0
174.01254,174.08948,45,37,0
174.1664,174.24103,53,39,0
174.31564,174.39009,41,42,0
174.46454,174.53897,45,34,0
174.61342,174.68785,53,35,0
174.7623,174.83675,41,47,0
174.91118,174.9881,45,40,0
175.06503,175.13965,53,40,0
175.21428,175.28873,41,48,0
175.36316,175.4401,45,40,0
175.51701,175.60034,53,41,0
175.68369,175.75812,40,48,0
175.83257,175.907,47,39,0
175.98145,176.0559,52,39,0
176.13033,176.20477,40,46,0
176.2792,176.35365,47,37,0
176.4281,176.50253,52,38,0
176.57698,176.65143,40,51,0
176.72586,176.80896,47,43,0
176.89207,176.96669,52,44,0
177.04132,177.11577,40,48,0
177.1902,177.26465,47,39,0
177.33908,177.41353,52,40,0
177.48798,177.56241,40,53,0
177.63686,177.71378,47,45,0
177.7907,177.86533,52,46,0
177.93996,178.01439,40,54,0
178.08884,178.16576,47,45,0
178.24269,178.32487,52,47,0
178.40707,178.4815,38,54,0
178.55595,178.63039,41,44,0
178.70483,178.77928,50,44,0
178.85371,178.92816,38,51,0
179.00261,179.07704,41,42,0
179.15149,179.22592,50,43,0
179.30037,179.37482,38,57,0
179.44925,179.52617,41,48,0
179.6031,179.68484,50,49,0
179.76659,179.84103,38,54,0
179.91547,179.98991,41,43,0
180.06435,180.1388,50,45,0
180.21324,180.28767,38,59,0
180.36212,180.43904,41,50,0
180.51596,180.59059,50,51,0
180.66522,180.73965,38,60,0
180.8141,180.89102,41,50,0
180.96794,181.04837,50,52,0
181.12675,181.2012,36,60,0
181.27565,181.35008,43,49,0
181.42453,181.49896,48,49,0
181.57341,181.64786,36,57,0
181.72229,181.79674,43,46,0
181.87119,181.94562,48,47,0
182.02007,182.0945,36,62,0
182.16895,182.2498,43,52,0
182.33067,182.4053,48,53,0
182.47992,182.55455,36,60,0
182.62918,182.7038,43,49,0
182.77843,182.85306,48,49,0
182.92769,183.0023,36,56,0
183.07693,183.15157,43,44,0
183.2262,183.30081,48,44,0
183.37544,183.45007,36,56,0
183.5247,183.59932,43,46,0
183.67395,183.75636,48,46,0
183.84065,183.91508,36,60,0
183.98767,184.06212,43,49,0
184.13655,184.211,48,49,0
184.28543,184.35988,36,57,0
184.43433,184.50876,43,46,0
184.5832,184.65764,48,47,0
184.73209,184.80653,36,62,0
184.88097,184.96477,43,52,0
185.04857,185.1232,48,53,0
185.19781,185.27245,36,66,0
185.34708,185.4217,43,55,0
185.49632,185.57095,48,56,0
185.64558,185.72021,36,67,0
185.79483,185.86946,43,54,0
185.94409,186.01872,48,55,0
186.09334,186.16797,36,72,0
186.2426,186.31952,43,61,0
186.39644,186.47931,48,62,0
186.5622,186.64052,35,80,0
186.71884,186.79498,43,57,0
186.87112,186.94728,47,58,0
187.02342,187.10114,35,75,0
187.17886,187.255,43,57,0
187.33115,187.40729,47,58,0
187.48343,187.56134,35,76,0
187.63927,187.71541,42,61,0
187.79155,187.86769,47,61,0
187.94383,188.02196,35,80,0
188.10008,188.17604,42,57,0
188.25198,188.32794,47,58,0
188.40388,188.4812,35,75,0
188.55852,188.63448,40,57,0
188.71042,188.78638,47,58,0
188.86232,188.93826,35,76,0
189.01422,189.09296,39,61,0
189.1717,189.2555,47,61,0
189.3393,189.41763,28,80,0
189.49596,189.5721,35,57,0
189.64824,189.72438,40,58,0
189.80052,189.87825,28,75,0
189.95596,190.0321,35,57,0
190.10825,190.18439,40,58,0
190.26053,190.33846,28,76,0
190.41638,190.49252,35,61,0
190.56866,190.6448,40,61,0
190.72095,190.79907,28,80,0
190.8772,190.95314,35,57,0
191.0291,191.10504,40,58,0
191.181,191.25832,28,75,0
191.33563,191.41159,35,57,0
191.48753,191.56348,40,58,0
191.63943,191.71538,28,76,0
191.79134,191.87007,35,61,0
191.9488,192.03261,40,61,0
192.11641,192.20021,28,71,0
192.4516,192.79942,64,63,0
192.4516,192.79942,56,53,0
192.4516,192.79942,59,53,0
192.4516,192.79942,52,53,0
192.79942,193.32117,57,53,0
192.79942,193.32117,52,53,0
192.79942,193.32117,64,63,0
192.79942,193.32117,61,53,0
193.32117,193.58278,57,52,0
193.32117,193.58278,52,52,0
193.32117,193.58278,64,62,0
193.32117,193.58278,54,52,0
193.58278,193.6698,56,46,0
193.58278,193.6698,64,55,0
193.58278,193.6698,52,46,0
193.58278,193.6698,59,46,0
193.6777,193.76036,52,51,0
193.6777,193.76036,56,51,0
193.6777,193.76036,59,51,0
193.6777,193.76036,64,61,0
194.00829,194.36122,47,47,0
194.00829,194.36122,40,47,0
194.00829,194.36122,52,56,0
194.36122,194.89064,49,47,0
194.36122,194.89064,52,56,0
194.36122,194.89064,40,47,0
194.89064,195.15326,45,46,0
194.89064,195.15326,52,55,0
194.89064,195.15326,40,46,0
195.16133,195.2581,47,41,0
195.16133,195.2581,52,49,0
195.16133,195.2581,40,41,0
195.2581,195.34213,40,60,0
195.42616,195.50212,47,49,0
195.57806,195.6774,52,49,0
195.77675,195.85269,28,56,0
195.92863,196.0046,35,44,0
196.08054,196.1565,40,44,0
196.23244,196.30838,28,56,0
196.38434,196.46028,35,46,0
196.53624,196.63524,40,46,0
196.73425,196.81021,28,56,0
196.88615,196.9621,35,44,0
197.03806,197.114,40,44,0
197.18996,197.2659,28,56,0
197.34184,197.4178,35,46,0
197.49374,197.5697,40,46,0
197.64565,197.78583,28,56,0
198.39331,198.9604,52,50,0
198.39331,198.9604,45,42,0
198.9604,199.3285,57,46,0
198.9604,199.3285,48,39,0
199.3285,199.5285,59,49,0
199.3285,199.5285,52,41,0
199.5285,200.08235,64,53,0
199.5285,200.08235,60,45,0
200.08235,200.45828,60,49,0
200.08235,200.45828,57,41,0
200.45828,200.63686,52,49,0
200.6446,201.1962,52,50,0
200.6446,201.1962,45,42,0
201.1962,201.56543,57,46,0
201.1962,201.56543,48,39,0
201.56543,201.77972,59,49,0
201.56543,201.77972,52,41,0
201.77972,202.69792,64,53,0
201.77972,202.69792,60,45,0
202.70564,202.90767,60,49,0
202.70564,202.90767,57,41,0
202.90767,203.44885,55,53,0
202.90767,203.44885,43,45,0
203.6329,203.76643,62,42,0
203.6329,203.76643,65,50,0
203.81094,203.95897,60,38,0
203.81094,203.95897,64,45,0
203.44885,204.55785,55,53,0
204.00832,204.5656,59,45,0
204.00832,204.5656,62,53,0
204.5656,204.92937,55,57,0
204.9371,205.1469,55,49,0
205.1469,205.71004,60,53,0
205.1469,205.71004,48,45,0
205.71004,206.28638,62,53,0
205.71004,206.28638,50,45,0
206.28638,207.20459,64,53,0
206.28638,207.20459,52,45,0
207.2123,207.40967,52,54,0
207.40967,207.97806,52,50,0
207.40967,207.97806,45,42,0
207.97806,208.34392,57,46,0
207.97806,208.34392,48,39,0
208.34392,208.54193,59,49,0
208.34392,208.54193,52,41,0
208.54193,209.09921,64,53,0
208.54193,209.09921,61,45,0
209.09921,209.4689,57,41,0
209.09921,209.4689,61,49,0
209.47719,209.67326,45,41,0
209.47719,209.67326,57,49,0
209.67326,210.19836,56,53,0
209.67326,210.20584,44,45,0
210.38548,210.51744,66,50,0
210.38548,210.51744,63,42,0
210.56143,210.70706,64,45,0
210.56143,210.70706,61,38,0
210.20584,211.30515,56,53,0
210.75562,211.31288,63,53,0
210.75562,211.31288,60,45,0
211.31288,211.67667,56,57,0
211.6844,211.8693,63,56,0
211.87733,212.43098,63,50,0
211.87733,212.43098,59,42,0
211.87733,212.43098,56,42,0
212.44328,212.80261,64,46,0
212.81026,213.00256,64,49,0
212.44328,213.01093,59,39,0
212.44328,213.01093,56,39,0
213.01093,213.51816,57,45,0
213.01093,213.51816,64,53,0
213.01093,213.51816,60,45,0
213.57591,213.93634,67,50,0
213.94402,214.14949,65,49,0
213.55942,214.14949,60,49,0
213.54291,214.14949,57,47,0
213.52641,214.14949,50,46,0
214.14949,214.75438,55,42,0
214.14949,214.75438,64,50,0
214.14949,214.75438,60,42,0
214.75438,215.11928,62,39,0
215.12704,215.33044,62,39,0
214.75438,215.33044,57,33,0
214.75438,215.33044,53,33,0
215.33044,216.27383,52,35,0
215.33044,216.27383,64,41,0
215.33044,216.27383,59,35,0
216.47722,217.06296,36,35,0
217.06296,217.65852,41,28,0
217.65852,218.29419,45,36,0
218.29419,219.05307,47,30,0
219.05307,219.23712,40,36,0
219.23712,219.42117,53,27,0
219.42117,219.59755,52,27,0
219.60522,219.74326,52,37,0
219.78928,219.93681,52,27,0
219.986,220.12445,52,27,0
220.17061,220.30907,52,37,0
220.35522,220.49368,52,28,0
220.53984,220.68884,52,28,0
220.73851,220.92256,40,36,0
220.92256,221.10661,53,27,0
221.10661,221.28299,52,27,0
221.29066,221.4287,52,37,0
221.47472,221.62274,52,27,0
221.67207,221.81055,52,27,0
221.85669,221.99516,52,37,0
222.0413,222.17978,52,28,0
222.22592,222.38664,52,28,0
222.44022,222.6254,38,36,0
222.6254,222.81058,52,27,0
222.81058,222.98805,50,27,0
222.99577,223.13466,50,37,0
223.18095,223.31984,50,27,0
223.36613,223.50502,50,27,0
223.55132,223.69022,50,37,0
223.73651,223.8754,50,28,0
223.92169,224.0807,50,28,0
224.13371,224.31946,40,36,0
224.31946,224.50522,53,27,0
224.50522,224.68324,52,27,0
224.69098,224.8303,52,37,0
224.87674,225.02724,52,27,0
225.07741,225.21803,52,27,0
225.26491,225.40553,52,37,0
225.45241,225.60141,52,28,0
225.65108,225.83551,52,28,0
225.89699,226.08507,45,36,0
226.08507,226.27316,53,27,0
226.27316,226.45341,52,27,0
226.46124,226.60231,52,37,0
226.64934,226.8024,52,27,0
226.85342,226.99449,52,27,0
227.0415,227.18257,52,37,0
227.2296,227.37067,52,28,0
227.41768,227.57956,52,28,0
227.63351,227.82101,50,43,0
227.60654,227.82101,38,36,0
227.82101,228.00851,53,27,0
228.00851,228.1882,57,27,0
228.19601,228.38351,62,37,0
228.38351,228.61252,57,27,0
228.61252,228.82304,53,27,0
228.82304,229.03357,62,37,0
229.03357,229.2441,58,28,0
229.2441,229.44589,53,28,0
229.51315,229.71315,52,43,0
229.71315,229.91316,55,27,0
229.91316,230.10483,58,27,0
230.11316,230.31316,60,37,0
230.31316,230.5611,58,27,0
230.5611,230.78665,55,27,0
230.78665,231.01222,50,37,0
231.01222,231.23778,55,28,0
231.23778,231.55357,58,28,0
231.75095,231.9483,55,24,0
231.9483,232.13745,58,24,0
232.14568,232.34305,60,32,0
232.34305,232.55656,58,26,0
232.55656,232.75394,55,26,0
231.55357,232.75394,48,34,0
232.75394,232.95131,60,35,0
232.95131,233.14868,55,25,0
233.14868,233.41774,52,25,0
233.61382,233.80989,52,24,0
233.80989,233.9978,55,24,0
234.00597,234.20204,59,32,0
234.20204,234.39813,55,26,0
234.39813,234.61871,52,26,0
233.41774,234.61871,47,34,0
234.61871,234.81738,59,35,0
234.81738,235.01607,55,31,0
235.01607,235.25136,52,33,0
235.44937,235.6474,54,31,0
235.6474,235.83717,57,31,0
235.84541,236.04813,59,38,0
236.04813,236.25082,57,26,0
236.25082,236.45352,54,26,0
235.25136,236.45352,47,41,0
236.45352,236.66782,59,42,0
236.66782,236.8821,54,34,0
236.8821,237.09639,51,34,0
237.29506,237.49373,55,30,0
237.49373,237.68413,58,30,0
237.69241,237.89108,60,45,0
237.89108,238.08977,58,35,0
238.08977,238.28844,55,43,0
237.09639,238.28844,48,47,0
238.28844,238.48515,60,54,0
238.48515,238.68188,55,43,0
238.68188,238.8954,52,43,0
239.09474,239.29407,52,43,0
239.29407,239.49341,55,43,0
238.8954,239.49341,47,53,0
239.49341,239.69275,59,55,0
240.1026,240.72105,76,48,0
240.07768,240.72105,67,48,0
240.05276,240.72105,59,48,0
240.72105,241.23476,75,48,0
241.23476,241.28612,76,48,0
241.28612,241.3375,75,48,0
241.3375,241.95393,73,48,0
241.95393,242.59566,75,48,0
240.72105,242.59566,59,48,0
240.72105,242.59566,66,48,0
240.72105,242.59566,69,48,0
242.59566,242.80472,52,48,0
242.80472,243.0008,65,55,0
243.0008,243.19688,64,48,0
243.19688,243.4045,53,54,0
243.4045,243.59866,52,48,0
243.59866,243.79285,41,61,0
243.79285,243.9918,40,55,0
244.00046,244.09882,40,48,0
244.19717,244.29034,40,47,0
244.38351,244.92618,33,42,0
244.38351,244.92618,40,50,0
244.92618,245.27808,36,39,0
244.92618,245.27808,45,46,0
245.27808,245.46796,40,41,0
245.27808,245.46796,47,49,0
245.46796,245.99155,48,45,0
245.46796,245.99892,52,53,0
245.99892,246.36182,45,41,0
245.99892,246.36182,48,49,0
246.36182,246.5382,33,42,0
246.36182,246.5382,40,49,0
246.54587,247.07642,40,50,0
246.54587,247.07642,33,42,0
247.07642,247.42627,45,46,0
247.07642,247.42627,36,39,0
247.42627,247.62428,47,49,0
247.42627,247.62428,40,41,0
247.62428,248.14635,48,45,0
247.62428,248.1537,52,53,0
248.1537,248.49928,48,53,0
248.1537,248.49928,45,53,0
248.50664,248.70145,52,49,0
248.50664,248.70145,48,41,0
248.70145,249.42073,52,42,0
248.70145,249.42073,55,50,0
249.42073,249.55309,50,49,0
249.42073,249.55309,53,49,0
249.5972,249.74571,48,41,0
249.5972,249.74571,52,49,0
248.70145,249.79523,43,49,0
249.79523,250.68599,43,45,0
249.79523,250.68599,50,53,0
250.69412,250.86996,43,42,0
250.69412,250.86996,50,49,0
250.87761,251.5978,52,50,0
250.87761,251.5978,48,42,0
251.5978,251.73015,50,49,0
251.5978,251.73015,47,49,0
251.77426,251.92326,48,49,0
251.77426,251.92326,45,41,0
250.87761,251.97295,40,49,0
251.97295,252.84795,40,45,0
251.97295,252.84795,47,53,0
252.85529,253.0399,40,47,0
253.0399,253.57845,33,42,0
253.0399,253.57845,40,50,0
253.57845,253.93138,45,46,0
253.57845,253.93138,37,39,0
253.93138,254.12126,47,49,0
253.93138,254.12126,40,41,0
254.12126,254.63875,49,45,0
254.12126,254.64604,52,53,0
254.64604,254.9886,45,41,0
254.64604,254.9959,49,49,0
254.9959,255.21045,45,49,0
254.9959,255.21045,33,42,0
255.21977,255.74927,44,50,0
255.21977,255.74927,32,42,0
255.92218,256.05185,66,49,0
255.92218,256.05185,63,41,0
256.0951,256.2375,61,41,0
256.0951,256.2375,64,49,0
255.74927,256.8128,56,46,0
256.8128,257.15738,56,53,0
256.28497,257.15738,60,45,0
256.28497,257.15738,63,53,0
257.16473,257.35107,63,44,0
257.35107,257.91006,63,49,0
257.91006,258.2672,64,48,0
258.2748,258.4562,64,46,0
257.35107,258.46408,56,43,0
257.35107,258.46408,59,49,0
258.46408,259.017,64,52,0
259.017,259.37305,65,51,0
259.3806,259.55487,65,48,0
258.46408,259.56244,60,52,0
258.46408,259.56244,57,45,0
259.56244,260.04718,59,44,0
259.56244,260.04718,62,44,0
259.56244,260.04718,65,52,0
260.1337,260.6927,62,50,0
260.05585,260.6927,47,42,0
260.0818,260.6927,53,42,0
260.10776,260.6927,55,42,0
260.6927,261.27155,53,45,0
260.6927,261.27155,48,45,0
260.6927,261.27155,57,45,0
260.6927,261.27155,60,53,0
261.27155,261.64816,48,42,0
261.27155,261.65616,60,50,0
261.27155,261.65616,55,42,0
261.65616,261.87396,48,50,0
261.88345,262.45486,41,45,0
261.88345,262.45486,48,53,0
262.45486,262.83582,45,46,0
262.45486,262.83582,53,55,0
262.83582,263.0365,48,47,0
262.83582,263.0365,55,56,0
263.0365,263.6061,57,62,0
263.0365,263.6061,53,52,0
263.6061,263.98587,45,45,0
263.6061,263.98587,49,45,0
263.6061,263.98587,53,53,0
264.17575,264.73474,49,57,0
264.17575,264.73474,46,48,0
264.73474,264.9171,54,53,0
264.73474,264.9171,46,45,0
264.9171,265.0995,58,48,0
264.9171,265.0995,49,40,0
265.0995,265.28876,61,50,0
265.0995,265.28876,54,42,0
265.28876,265.84778,59,52,0
265.28876,265.84778,62,62,0
265.84778,266.03012,55,55,0
265.84778,266.03012,47,47,0
266.03012,266.2125,59,49,0
266.03012,266.2125,50,41,0
266.2125,266.4018,55,42,0
266.2125,266.4018,62,51,0
266.4018,266.90143,64,52,0
266.4018,266.90143,60,44,0
266.98795,267.54694,64,50,0
266.9101,267.54694,48,42,0
266.93604,267.54694,55,42,0
266.962,267.54694,57,42,0
267.54694,268.1258,55,45,0
267.54694,268.1258,59,45,0
267.54694,268.1258,50,45,0
267.54694,268.1258,62,53,0
268.1258,268.5024,50,42,0
268.1258,268.5104,57,42,0
268.1258,268.5104,62,50,0
268.5104,268.7282,50,50,0
268.7377,269.3091,43,45,0
268.7377,269.3091,50,53,0
269.3091,269.69006,55,55,0
269.3091,269.69006,47,46,0
269.69006,269.89075,57,56,0
269.69006,269.89075,50,47,0
269.89075,270.46036,59,62,0
269.89075,270.46036,55,52,0
270.46036,270.65024,55,53,0
270.46036,270.65024,51,45,0
270.46036,270.65024,47,45,0
270.84012,271.02206,51,57,0
270.84012,271.02997,43,48,0
271.02997,271.589,50,57,0
271.02997,271.589,41,48,0
271.589,271.96167,47,46,0
271.589,271.96167,55,55,0
271.96167,272.16232,50,47,0
271.96167,272.16232,57,56,0
272.16232,272.73196,55,52,0
272.16232,272.73196,59,62,0
272.73196,272.9218,55,53,0
272.73196,272.9218,47,45,0
272.73196,272.9218,51,45,0
273.1117,273.30157,51,57,0
273.1117,273.30157,41,48,0
273.30157,273.86057,50,57,0
273.30157,273.86057,40,48,0
273.86057,274.23325,56,55,0
273.86057,274.23325,47,46,0
274.23325,274.43393,57,56,0
274.23325,274.43393,50,47,0
274.43393,275.60275,59,62,0
274.43393,275.60275,56,52,0
275.60275,276.176,40,48,0
275.60275,276.176,50,57,0
276.176,276.54868,56,55,0
276.176,276.54868,47,46,0
276.54868,276.76373,57,56,0
276.54868,276.76373,50,47,0
276.76373,277.966,59,62,0
276.76373,277.966,56,44,0
277.966,279.26138,50,44,0
277.966,279.26138,40,37,0
279.26138,280.97876,56,38,0
279.26138,280.97876,47,32,0
280.97876,284.16714,50,33,0
280.97876,284.16714,40,28,0
284.42194,284.49677,41,32,0
284.57156,284.6464,48,29,0
284.7212,284.79602,48,29,0
284.87082,284.94565,41,33,0
285.02045,285.09528,48,26,0
285.17007,285.2449,48,26,0
285.3197,285.39453,41,33,0
285.46933,285.54626,48,27,0
285.62317,285.6978,48,27,0
285.77243,285.84705,41,36,0
285.9217,285.9963,48,29,0
286.07092,286.14557,48,29,0
286.22018,286.29483,41,33,0
286.36945,286.44406,48,26,0
286.5187,286.59332,48,26,0
286.66794,286.74258,41,33,0
286.8172,286.89185,48,27,0
286.96646,287.0428,48,27,0
287.11914,287.20483,41,36,0
287.29056,287.37628,48,29,0
287.46198,287.55316,48,29,0
287.64435,287.73056,41,33,0
287.81677,287.90298,48,26,0
287.9892,288.08887,48,26,0
288.1885,288.27472,41,33,0
288.36093,288.44714,48,27,0
288.53336,288.61957,48,27,0
288.70575,288.79196,41,33,0
288.87817,288.9644,48,27,0
289.05872,289.15308,48,27,0
289.2474,289.33362,41,33,0
289.41983,289.506,48,27,0
289.59222,289.67844,48,27,0
289.76465,289.85086,41,36,0
289.93707,290.02325,48,31,0
290.1176,290.21194,48,32,0
290.2965,290.37134,40,32,0
290.44614,290.52097,49,29,0
290.59576,290.6706,49,29,0
290.7454,290.82022,40,33,0
290.89502,290.96985,49,26,0
291.04465,291.11948,49,26,0
291.19427,291.2691,40,33,0
291.3439,291.42084,49,27,0
291.49774,291.5724,49,27,0
291.647,291.72162,40,36,0
291.79626,291.87088,49,29,0
291.9455,292.02014,49,29,0
292.09476,292.1694,40,33,0
292.24402,292.31863,49,26,0
292.39328,292.4679,49,26,0
292.5425,292.61716,40,33,0
292.69177,292.76642,49,27,0
292.84103,292.91736,49,27,0
292.9937,293.0794,39,36,0
293.16513,293.25085,49,29,0
293.33655,293.42773,49,29,0
293.51892,293.60513,39,33,0
293.69135,293.77756,49,26,0
293.86377,293.96344,49,26,0
294.06308,294.1493,39,33,0
294.2355,294.32172,49,27,0
294.40793,294.49414,49,27,0
294.58032,294.66653,39,33,0
294.75275,294.83896,49,27,0
294.9333,295.02765,49,27,0
295.12198,295.2082,39,33,0
295.2944,295.38058,49,27,0
295.4668,295.553,49,27,0
295.63922,295.72543,39,36,0
295.81165,295.89783,49,31,0
295.9922,296.08652,49,32,0
296.17108,296.2459,38,32,0
296.3207,296.39554,50,29,0
296.47034,296.54517,50,29,0
296.61996,296.6948,38,33,0
296.7696,296.84442,50,26,0
296.91922,296.99405,50,26,0
297.06885,297.14368,38,33,0
297.21848,297.2954,50,27,0
297.3723,297.44696,50,29,0
297.52158,297.5962,38,36,0
297.67084,297.74545,50,29,0
297.82007,297.8947,50,30,0
297.96933,298.04398,38,35,0
298.1186,298.1932,50,28,0
298.26785,298.34247,50,29,0
298.41708,298.49173,38,38,0
298.56635,298.641,50,32,0
298.7156,298.79193,50,32,0
298.8683,298.95398,38,45,0
299.0397,299.12543,50,36,0
299.21112,299.3023,50,36,0
299.3935,299.4797,38,41,0
299.56592,299.65213,50,32,0
299.73834,299.838,50,40,0
299.93765,300.02386,38,48,0
300.11008,300.1963,50,33,0
300.2825,300.3687,50,33,0
300.4549,300.5411,38,41,0
300.62732,300.71353,50,33,0
300.80786,300.90222,50,33,0
300.9868,301.06158,36,35,0
301.1364,301.2112,43,31,0
301.28604,301.36084,48,31,0
301.43567,301.51047,36,36,0
301.5853,301.6601,43,28,0
301.73492,301.80972,48,28,0
301.88455,301.95935,36,36,0
302.03418,302.11108,43,29,0
302.18802,302.26263,48,29,0
302.33728,302.4119,36,39,0
302.4865,302.56116,43,31,0
302.63577,302.7104,48,33,0
302.78503,302.85965,36,38,0
302.9343,303.0089,43,30,0
303.08353,303.15817,48,31,0
303.2328,303.3074,36,41,0
303.38205,303.45667,43,35,0
303.53128,303.60764,48,35,0
303.68396,303.76968,36,49,0
303.8554,303.9411,43,39,0
304.02682,304.118,48,39,0
304.2092,304.2954,36,45,0
304.38162,304.4678,43,35,0
304.55402,304.6537,48,44,0
304.75336,304.83957,36,52,0
304.92578,305.012,43,36,0
305.09818,305.1844,48,36,0
305.2706,305.3568,36,45,0
305.44302,305.52924,43,36,0
305.62357,305.7179,48,36,0
305.80508,305.87955,36,60,0
305.95212,306.02655,43,49,0
306.101,306.17545,48,49,0
306.24988,306.32434,36,57,0
306.39877,306.4732,43,46,0
306.54767,306.6221,48,47,0
306.69653,306.77097,36,62,0
306.84543,306.92233,43,52,0
306.99927,307.07388,48,53,0
307.14853,307.22314,36,66,0
307.29776,307.3724,43,55,0
307.44702,307.52167,48,56,0
307.59628,307.6709,36,67,0
307.74554,307.82016,43,54,0
307.89478,307.96942,48,55,0
308.04404,308.11868,36,72,0
308.1933,308.27023,43,61,0
308.34714,308.43002,48,62,0
308.51288,308.59122,35,80,0
308.66956,308.7457,43,57,0
308.82184,308.89798,47,58,0
308.97412,309.05185,35,75,0
309.12955,309.2057,43,57,0
309.28183,309.35797,47,58,0
309.4341,309.51205,35,76,0
309.58997,309.6661,42,61,0
309.74225,309.8184,47,61,0
309.89453,309.97266,35,80,0
310.05078,310.12674,42,57,0
310.2027,310.27863,47,58,0
310.35458,310.43192,35,75,0
310.50922,310.58517,40,57,0
310.66113,310.73706,47,58,0
310.81302,310.88898,35,76,0
310.9649,311.04367,39,61,0
311.1224,311.2062,47,61,0
311.29,311.36832,28,80,0
311.44666,311.5228,35,57,0
311.59894,311.67508,40,58,0
311.75122,311.82895,28,75,0
311.90668,311.98282,35,57,0
312.05896,312.1351,40,58,0
312.21124,312.28915,28,76,0
312.36707,312.4432,35,61,0
312.51935,312.59552,40,61,0
312.67166,312.7498,28,80,0
312.8279,312.90384,35,57,0
312.9798,313.05576,40,58,0
313.13168,313.209,28,75,0
313.28635,313.36227,35,57,0
313.43823,313.5142,40,58,0
313.59012,313.66608,28,76,0
313.74203,313.82077,35,61,0
313.8995,313.9833,40,61,0
314.0671,314.1509,28,71,0
314.4023,314.7148,68,63,0
314.38135,314.7148,59,53,0
314.3604,314.7148,52,53,0
314.75946,315.25052,69,63,0
314.73712,315.25052,61,53,0
314.7148,315.25052,52,53,0
315.29517,315.56226,66,62,0
315.25052,315.56226,52,52,0
315.2654,315.56226,57,52,0
315.28027,315.56226,61,52,0
315.56226,315.60233,68,55,0
315.56226,315.60233,59,46,0
315.65842,315.74106,68,61,0
315.63437,315.74106,59,51,0
315.61032,315.74106,52,51,0
315.98898,316.30527,56,63,0
315.96832,316.30527,47,53,0
315.94766,316.30527,40,53,0
316.35043,316.8474,57,63,0
316.32785,316.8474,49,53,0
316.30527,316.8474,40,53,0
316.8926,317.16803,54,62,0
316.8474,317.16803,40,52,0
316.8625,317.16803,45,52,0
316.87753,317.16803,49,52,0
317.16803,317.26062,56,55,0
317.16803,317.26062,47,46,0
317.26904,317.3531,28,60,0
317.4371,317.51306,35,49,0
317.58902,317.68835,40,49,0
317.7877,317.86362,28,56,0
317.93958,318.01553,35,44,0
318.0915,318.16742,40,44,0
318.24338,318.31934,28,56,0
318.39526,318.47122,35,46,0
318.54718,318.64618,40,46,0
318.7452,318.82114,28,56,0
318.8971,318.97305,35,44,0
319.04898,319.12494,40,44,0
319.2009,319.27682,28,56,0
319.35278,319.42874,35,46,0
319.5047,319.58063,40,46,0
319.6566,319.79678,28,56,0
320.38126,320.46323,33,67,0
321.01855,321.09668,61,49,0
321.01855,321.09668,57,41,0
321.1748,321.2544,52,41,0
321.1748,321.2544,59,49,0
321.33395,321.41354,49,49,0
321.33395,321.41354,57,58,0
321.65225,321.73422,40,74,0
321.8162,321.89816,45,87,0
322.4535,322.53162,57,41,0
322.4535,322.53162,61,49,0
322.60974,322.6893,52,41,0
322.60974,322.6893,59,49,0
322.60974,322.6893,33,41,0
322.7689,322.84848,57,58,0
322.7689,322.84848,33,41,0
322.7689,322.84848,49,49,0
322.92804,323.00763,35,58,0
323.0872,323.16916,37,64,0
323.25113,323.3331,38,67,0
324.52213,324.6041,45,74,0
324.68607,324.76804,50,87,0
325.4796,325.55917,38,41,0
325.63876,325.71832,38,41,0
325.7979,325.87747,39,58,0
325.95706,326.03903,40,64,0
326.121,326.20294,41,67,0
327.392,327.47394,48,74,0
327.5559,327.63788,53,87,0
328.34946,328.42905,41,41,0
328.5086,328.5882,41,41,0
328.66776,328.74734,43,58,0
328.8269,328.90887,45,64,0
328.99084,329.0728,46,67,0
329.62814,329.70627,44,41,0
329.7844,329.86395,45,41,0
329.94354,330.0231,47,45,0
330.1027,330.18228,47,43,0
330.26184,330.3438,48,45,0
330.42578,330.50775,50,55,0
331.06308,331.1412,47,41,0
331.21933,331.2989,48,41,0
331.37848,331.45804,50,45,0
331.53763,331.6172,50,43,0
331.69678,331.77875,52,45,0
331.86072,331.9427,53,55,0
332.498,332.5761,53,36,0
332.65424,332.73383,55,36,0
332.81342,332.89297,56,43,0
332.97256,333.05212,56,39,0
333.1317,333.21368,57,49,0
333.29562,333.3776,59,61,0
333.6235,334.11234,62,41,0
333.6235,334.11234,59,34,0
334.1263,334.6291,59,34,0
334.1263,334.6291,62,41,0
334.79303,334.8748,63,65,0
334.79303,334.8748,59,65,0
335.12,335.60748,59,34,0
335.12,335.60748,63,41,0
335.6214,336.1228,59,34,0
335.6214,336.1228,63,41,0
336.2867,336.78036,65,65,0
336.2867,336.78036,55,55,0
336.2867,336.78036,62,55,0
337.1137,337.19702,43,60,0
337.1137,337.19702,31,60,0
337.28036,337.3637,31,64,0
337.28036,337.3637,43,64,0
337.44702,337.53036,33,67,0
337.44702,337.53036,45,67,0
337.6137,337.69702,47,70,0
337.6137,337.69702,35,70,0
337.78036,337.86188,36,73,0
337.94342,338.02493,43,60,0
338.10645,338.18887,48,60,0
338.2713,338.3537,36,70,0
338.43613,338.51855,43,59,0
338.60095,338.68323,48,59,0
338.7652,338.84717,36,66,0
338.92914,339.0111,43,59,0
339.09305,339.17502,48,59,0
339.257,339.33896,36,66,0
339.42093,339.49576,43,49,0
339.57056,339.64536,48,49,0
339.72018,339.79498,36,56,0
339.8698,339.9446,43,44,0
340.01944,340.09424,48,44,0
340.16907,340.24387,36,56,0
340.3187,340.3956,43,46,0
340.47253,340.54715,48,46,0
340.6218,340.6964,36,60,0
340.77103,340.84567,43,49,0
340.9203,340.99493,48,49,0
341.06955,341.14417,36,56,0
341.2188,341.29343,43,44,0
341.36804,341.4427,48,44,0
341.5173,341.59192,35,56,0
341.66656,341.74118,43,46,0
341.81583,341.89215,47,46,0
341.96848,342.04294,33,66,0
342.11737,342.1918,40,49,0
342.26627,342.3407,45,49,0
342.41513,342.48956,33,57,0
342.56403,342.63846,40,46,0
342.7129,342.78735,45,47,0
342.8618,342.93622,33,62,0
343.01068,343.0876,40,52,0
343.16452,343.23914,45,53,0
343.31378,343.3884,33,60,0
343.463,343.53766,40,49,0
343.61227,343.6869,45,49,0
343.76154,343.83615,33,56,0
343.9108,343.9854,40,44,0
344.06003,344.13467,45,44,0
344.2093,344.2839,31,56,0
344.35855,344.43317,40,46,0
344.5078,344.58414,43,46,0
344.66046,344.73492,29,66,0
344.80936,344.8838,36,49,0
344.95822,345.03268,41,49,0
345.10712,345.18155,29,57,0
345.256,345.33044,36,46,0
345.40488,345.47934,41,47,0
345.55377,345.6282,29,62,0
345.70267,345.77957,36,52,0
345.8565,345.93112,41,53,0
346.00577,346.08038,29,66,0
346.155,346.22964,36,56,0
346.30426,346.37888,41,58,0
346.45352,346.52814,29,72,0
346.60275,346.6774,36,59,0
346.752,346.82666,41,62,0
346.90128,346.9759,29,83,0
347.05054,347.12744,36,72,0
347.20438,347.28726,41,75,0
347.37012,347.453,42,91,0
347.37012,347.453,30,77,0
347.53586,347.61874,54,48,0
347.7016,347.78336,54,48,0
347.8651,347.94684,54,48,0
348.0286,348.11032,54,45,0
348.19208,348.2738,54,45,0
348.35556,348.43732,54,45,0
348.51904,348.6008,54,45,0
348.68253,348.76926,54,45,0
348.85596,348.93793,54,63,0
348.85596,348.93793,42,48,0
349.01987,349.10184,54,48,0
349.1838,349.26578,54,48,0
349.34775,349.42972,54,48,0
349.5117,349.5962,54,45,0
349.6807,349.76266,54,45,0
349.84464,349.9266,54,45,0
350.00858,350.09055,54,45,0
350.17252,350.2587,54,45,0
350.3449,350.4271,42,48,0
350.3449,350.4271,54,63,0
350.5093,350.5915,54,48,0
350.67368,350.7559,54,48,0
350.83807,350.92026,54,48,0
351.00244,351.08466,54,45,0
351.16684,351.24902,54,49,0
351.3312,351.41342,54,54,0
351.4956,351.57986,54,59,0
351.66415,351.75162,54,64,0
351.83908,351.92148,42,91,0
351.83908,351.92148,30,69,0
352.0039,352.08633,54,67,0
352.16873,352.25253,54,63,0
352.33633,352.42014,54,58,0
352.50394,352.58774,54,54,0
352.67154,352.75748,54,50,0
352.84344,352.9294,54,45,0
353.01538,353.10132,54,45,0
353.1873,353.27325,54,45,0
353.35922,353.44516,42,40,0
353.35922,353.44516,54,40,0
353.53113,353.6171,54,48,0
353.70306,353.789,54,48,0
353.87497,353.96094,54,48,0
354.0469,354.13284,54,45,0
354.2188,354.30057,54,45,0
354.3823,354.46405,54,45,0
354.54578,354.62753,54,45,0
354.7093,354.796,54,45,0
354.8827,354.96466,42,48,0
354.8827,354.96466,54,63,0
355.04663,355.1286,54,48,0
355.21054,355.2925,54,48,0
355.37448,355.45645,54,48,0
355.53842,355.62292,54,45,0
355.70743,355.7894,54,45,0
355.87137,355.95334,54,45,0
356.0353,356.11728,54,45,0
356.19925,356.28546,54,45,0
356.37164,356.45386,55,63,0
356.37164,356.45386,43,48,0
356.53604,356.61823,55,48,0
356.7004,356.78262,55,48,0
356.8648,356.947,55,48,0
357.02917,357.1114,55,45,0
357.19357,357.27576,55,49,0
357.35794,357.44016,55,54,0
357.52234,357.6066,55,59,0
357.6909,357.77835,55,64,0
357.8658,357.9482,43,91,0
357.8658,357.9482,31,69,0
358.03064,358.11307,55,67,0
358.19547,358.27927,55,63,0
358.36307,358.44687,55,58,0
358.53067,358.61447,55,54,0
358.69827,358.78424,55,50,0
358.87018,358.95615,55,45,0
359.0421,359.12808,55,45,0
359.21402,359.3,55,45,0
359.38596,359.55786,48,59,0
359.9017,360.03387,36,66,0
360.03387,360.16602,40,44,0
360.16602,360.3282,44,44,0
360.3282,360.46902,45,66,0
360.46902,360.60986,47,41,0
360.60986,360.76254,45,41,0
360.76254,360.89413,36,66,0
360.89413,361.0257,40,46,0
361.0257,361.18787,44,46,0
361.18787,361.3287,45,66,0
361.3287,361.46957,47,43,0
361.46957,361.62302,45,43,0
361.62302,361.75604,36,66,0
361.75604,361.8891,40,46,0
361.8891,362.05124,44,46,0
362.05124,362.19275,45,66,0
362.19275,362.33426,47,43,0
362.33426,362.48773,45,43,0
362.48773,362.6368,36,66,0
362.6368,362.79068,40,44,0
362.79068,362.988,44,44,0
362.988,363.13577,45,50,0
363.13577,363.28287,48,41,0
363.28287,363.42923,57,41,0
363.42923,363.57486,43,50,0
363.57486,363.71976,48,44,0
363.71976,363.86395,55,44,0
363.86395,364.0075,41,50,0
364.0075,364.14935,48,40,0
364.14935,364.2912,53,40,0
364.2912,364.43304,42,50,0
364.43304,364.5749,50,41,0
364.5749,364.72754,54,41,0
364.72754,364.86905,43,50,0
364.86905,365.01056,50,42,0
365.01056,365.15207,55,42,0
365.15207,365.29736,41,50,0
365.29736,365.44263,43,42,0
365.44263,365.58792,53,42,0
365.58792,365.73532,40,47,0
365.73532,365.88275,43,36,0
365.88275,366.03018,52,34,0
366.03018,366.17758,38,41,0
366.17758,366.325,43,30,0
366.325,366.48248,50,29,0
366.48248,366.625,48,37,0
366.91003,367.04105,36,66,0
367.04105,367.17206,40,44,0
367.17206,367.33423,44,44,0
367.33423,367.4754,45,66,0
367.4754,367.61658,47,41,0
367.61658,367.76926,45,41,0
367.76926,367.90054,36,66,0
367.90054,368.03183,40,46,0
368.03183,368.194,44,46,0
368.194,368.33585,45,66,0
368.33585,368.47766,47,43,0
368.47766,368.63113,45,43,0
368.63113,368.7627,36,66,0
368.7627,368.8943,40,46,0
368.8943,369.05646,44,46,0
369.05646,369.19763,45,66,0
369.19763,369.3388,47,43,0
369.3388,369.49225,45,43,0
369.49225,369.64136,36,66,0
369.64136,369.7952,40,44,0
369.7952,369.99255,44,44,0
369.99255,370.1403,45,50,0
370.1403,370.2874,48,41,0
370.2874,370.43378,57,41,0
370.43378,370.5794,43,50,0
370.5794,370.7243,48,44,0
370.7243,370.86847,55,44,0
370.86847,371.01202,41,50,0
371.01202,371.1529,48,40,0
371.1529,371.29373,53,40,0
371.29373,371.43457,42,50,0
371.43457,371.5754,50,41,0
371.5754,371.7281,54,41,0
371.7281,371.8696,43,50,0
371.8696,372.0111,50,44,0
372.0111,372.15262,55,49,0
372.15262,372.29788,41,54,0
372.29788,372.44318,43,44,0
372.44318,372.58844,53,44,0
372.58844,372.73587,40,49,0
372.73587,372.8833,43,38,0
372.8833,373.0307,52,38,0
373.0307,373.17813,38,44,0
373.17813,373.32556,43,30,0
373.32556,373.48303,50,29,0
373.48303,373.62796,36,49,0
373.62796,373.7729,43,38,0
373.7729,373.91782,48,38,0
373.91782,374.06274,40,44,0
374.06274,374.20767,48,30,0
374.20767,374.36514,52,30,0
374.36514,374.51007,41,42,0
374.51007,374.655,48,30,0
374.655,374.79993,53,30,0
374.79993,374.94485,41,42,0
374.94485,375.08978,48,29,0
375.08978,375.25784,53,29,0
375.25784,375.4129,54,49,0
375.4129,375.56793,43,29,0
375.56793,375.72296,54,46,0
375.72296,375.8834,43,34,0
375.8834,376.04382,54,47,0
376.04382,376.22134,43,38,0
376.22134,377.2669,43,48,0
377.2669,377.43933,48,44,0
376.22134,377.43933,55,57,0
377.78415,377.91547,41,66,0
377.91547,378.04675,45,44,0
378.04675,378.2089,49,44,0
378.2089,378.34845,50,66,0
378.34845,378.48798,52,41,0
378.48798,378.64066,50,41,0
378.64066,378.77252,41,66,0
378.77252,378.9044,45,46,0
378.9044,379.06656,49,46,0
379.06656,379.20544,50,66,0
379.20544,379.34433,52,43,0
379.34433,379.49777,50,43,0
379.49777,379.62964,41,66,0
379.62964,379.7615,45,46,0
379.7615,379.92368,49,46,0
379.92368,380.06192,50,66,0
380.06192,380.20016,52,43,0
380.20016,380.3536,50,43,0
380.3536,380.50272,41,66,0
380.50272,380.6566,45,44,0
380.6566,380.86316,49,44,0
380.86316,381.0109,50,50,0
381.0109,381.15802,53,41,0
381.15802,381.30438,62,38,0
381.30438,381.45,48,50,0
381.45,381.5949,53,44,0
381.5949,381.73907,60,36,0
381.73907,381.88058,46,50,0
381.88058,382.0221,50,40,0
382.0221,382.1623,58,36,0
382.1623,382.3025,47,50,0
382.3025,382.44266,50,41,0
382.44266,382.59534,59,32,0
382.59534,382.73618,48,50,0
382.73618,382.877,55,40,0
382.877,383.01788,60,38,0
383.01788,383.1614,48,46,0
383.1614,383.30496,53,32,0
383.30496,383.4485,59,30,0
383.4485,383.59592,48,47,0
383.59592,383.74335,52,36,0
383.74335,383.89075,60,30,0
383.89075,384.03818,48,41,0
384.03818,384.1856,55,30,0
384.1856,384.34308,60,29,0
384.34308,384.4856,53,37,0
384.77063,384.9008,41,66,0
384.9008,385.03094,45,44,0
385.03094,385.19308,49,44,0
385.19308,385.3323,50,66,0
385.3323,385.47153,52,41,0
385.47153,385.62418,50,41,0
385.62418,385.7552,37,66,0
385.7552,385.8862,40,46,0
385.8862,386.04837,45,46,0
386.04837,386.18726,38,66,0
386.18726,386.32614,41,43,0
386.32614,386.47958,45,43,0
386.47958,386.60974,45,66,0
386.60974,386.7399,48,46,0
386.7399,386.90207,52,46,0
386.90207,387.03937,53,66,0
387.03937,387.17667,55,43,0
387.17667,387.3301,53,43,0
387.3301,387.4768,40,66,0
387.4768,387.6235,44,46,0
387.6235,387.7702,48,46,0
387.7702,387.9169,41,66,0
387.9169,388.0636,45,43,0
388.0636,388.2103,48,43,0
388.2103,388.3594,44,66,0
388.3594,388.51324,48,44,0
388.51324,388.72736,52,44,0
388.72736,388.8751,45,50,0
388.8751,389.02222,48,41,0
389.02222,389.16858,57,41,0
389.16858,389.3142,43,50,0
389.3142,389.4591,48,44,0
389.4591,389.60327,55,44,0
389.60327,389.74683,41,50,0
389.74683,389.88803,48,40,0
389.88803,390.0292,53,40,0
390.0292,390.17038,42,50,0
390.17038,390.31155,50,41,0
390.31155,390.4642,54,41,0
390.4642,390.6054,43,50,0
390.6054,390.74658,50,44,0
390.74658,390.88776,55,49,0
390.88776,391.03165,41,54,0
391.03165,391.1755,43,44,0
391.1755,391.3194,53,44,0
391.3194,391.46683,40,49,0
391.46683,391.61246,43,38,0
391.61246,391.7574,52,38,0
391.7574,391.9023,38,44,0
391.9023,392.04724,43,30,0
392.04724,392.2047,50,29,0
392.2047,392.35214,36,49,0
392.35214,392.49954,43,38,0
392.49954,392.64697,48,38,0
392.64697,392.7944,40,44,0
392.7944,392.9418,48,30,0
392.9418,393.0993,52,30,0
393.0993,393.2467,41,42,0
393.2467,393.39413,48,30,0
393.39413,393.54156,53,30,0
393.54156,393.68896,41,42,0
393.68896,393.8364,48,29,0
393.8364,394.00446,53,29,0
394.00446,394.15952,54,49,0
394.15952,394.31454,43,29,0
394.31454,394.46957,54,46,0
394.46957,394.63,43,34,0
394.63,394.79044,54,47,0
394.92975,394.9762,55,42,0
394.79044,394.9762,43,38,0
394.9762,396.02237,71,57,0
394.9762,396.02237,65,48,0
396.02237,396.15088,48,37,0
396.04367,396.15805,55,37,0
396.06494,396.16522,60,37,0
396.0862,396.17242,64,44,0
396.60345,396.73532,54,58,0
396.73532,396.8672,52,49,0
396.8672,396.99905,54,49,0
396.99905,397.1315,55,58,0
397.1315,397.26395,50,52,0
397.26395,397.4019,43,52,0
397.4019,397.53494,54,58,0
397.53494,397.66797,52,52,0
397.66797,397.801,54,52,0
397.801,397.93375,55,58,0
397.93375,398.0665,50,52,0
398.0665,398.20505,43,52,0
398.20505,398.271,65,57,0
398.20505,398.271,55,57,0
398.20505,398.271,62,57,0
398.20505,398.271,67,68,0
398.60068,398.6666,64,62,0
398.58417,398.6666,55,52,0
398.5677,398.6666,48,52,0
398.99802,399.06396,55,58,0
398.99802,399.06396,62,58,0
398.99802,399.06396,65,58,0
398.99802,399.06396,67,69,0
399.39365,399.45956,64,63,0
399.37714,399.45956,55,53,0
399.36066,399.45956,48,53,0
399.79468,399.92654,54,58,0
399.92654,400.0584,52,49,0
400.0584,400.19028,54,49,0
400.19028,400.32272,55,58,0
400.32272,400.45517,50,52,0
400.45517,400.5931,43,52,0
400.5931,400.72614,54,58,0
400.72614,400.8592,52,52,0
400.8592,400.99222,54,52,0
400.99222,401.12497,55,58,0
401.12497,401.2577,50,52,0
401.2577,401.39627,43,52,0
401.39627,401.46222,55,57,0
401.39627,401.46222,65,57,0
401.39627,401.46222,67,68,0
401.39627,401.46222,62,57,0
401.79187,401.85782,64,62,0
401.7754,401.85782,55,52,0
401.7589,401.85782,48,52,0
402.18924,402.2552,55,58,0
402.18924,402.2552,62,58,0
402.18924,402.2552,67,69,0
402.18924,402.2552,65,58,0
402.58484,402.6508,64,63,0
402.56836,402.6508,55,53,0
402.55188,402.6508,48,53,0
402.98587,403.05453,64,63,0
402.91724,403.05453,45,53,0
402.95157,403.05453,48,53,0
402.96872,403.05453,52,53,0
403.3978,403.52792,43,54,0
403.3978,403.52792,55,64,0
403.52792,403.65808,48,54,0
403.65808,403.78824,52,54,0
403.78824,403.9184,48,54,0
403.78824,403.9184,60,64,0
403.9184,404.04855,52,56,0
404.04855,404.1787,55,56,0
404.1787,404.31,52,54,0
404.1787,404.31,64,64,0
404.31,404.44128,55,59,0
404.44128,404.57257,60,59,0
404.57257,404.7074,55,54,0
404.57257,404.7074,67,64,0
404.7074,404.845,60,56,0
404.845,404.99503,64,56,0
404.99503,405.06662,67,72,0
405.86044,405.93307,55,76,0
405.83624,405.93307,50,64,0
405.812,405.93307,43,64,0
405.82413,405.93307,47,64,0
405.84833,405.93307,53,64,0
406.74683,406.89212,36,56,0
406.89212,407.03738,43,44,0
407.03738,407.17856,48,49,0
407.17856,407.31973,36,57,0
407.31973,407.46094,43,47,0
407.46094,407.6021,48,48,0
407.6021,407.7433,36,63,0
407.7433,407.88446,43,51,0
407.88446,408.02563,48,53,0
408.02563,408.16882,36,69,0
408.16882,408.312,43,56,0
408.312,408.46628,48,57,0
408.46628,408.61154,36,56,0
408.61154,408.75684,43,44,0
408.75684,408.89734,48,49,0
408.89734,409.03784,36,57,0
409.03784,409.17838,43,47,0
409.17838,409.31888,48,48,0
409.31888,409.4594,36,63,0
409.4594,409.5999,43,51,0
409.5999,409.74042,48,53,0
409.74042,409.8833,36,69,0
409.8833,410.02615,43,56,0
410.02615,410.18158,48,57,0
410.18158,410.3265,36,56,0
410.3265,410.47144,43,44,0
410.47144,410.6113,48,49,0
410.6113,410.75116,36,57,0
410.75116,410.89102,43,47,0
410.89102,411.03088,48,48,0
411.03088,411.17075,36,63,0
411.17075,411.3106,43,51,0
411.3106,411.45047,48,53,0
411.45047,411.59433,36,69,0
411.59433,411.73822,43,56,0
411.73822,411.88974,48,57,0
411.88974,411.9605,40,69,0
411.88974,411.9605,28,63,0
412.31427,412.38504,41,69,0
412.31427,412.38504,29,62,0
412.7388,412.80957,48,69,0
412.7388,412.80957,36,62,0
413.16333,413.23407,52,69,0
413.16333,413.23407,40,62,0
413.59525,413.6677,60,69,0
413.5394,413.6677,45,62,0
413.558,413.6677,52,62,0
413.57663,413.6677,57,62,0
414.46478,414.53726,62,69,0
414.42856,414.53726,55,62,0
414.39233,414.53726,43,62,0
414.41046,414.53726,50,62,0
414.4467,414.53726,59,62,0
415.1532,415.18942,36,60,0
415.18942,415.2349,43,63,0
415.2349,415.28033,48,63,0
415.37125,416.24292,67,69,0
415.37125,416.24292,55,62,0
415.37125,416.24292,60,62,0
415.37125,416.24292,64,62,0
