start_time,end_time,note_value,velocity,instrument_program_number
0.094095,0.75276,84,80,0
0.094095,0.75276,76,67,0
0.094095,0.75276,79,67,0
0.094095,0.75276,72,67,0
0.75276,0.94896424,52,59,0
0.75276,0.94896424,60,59,0
0.75276,0.94896424,64,70,0
0.966801,1.442161,60,62,0
0.966801,1.442161,52,62,0
0.966801,1.442161,64,74,0
1.442161,1.5538845,65,71,0
1.442161,1.5538845,53,60,0
1.442161,1.5538845,60,60,0
1.665608,1.7875593,67,75,0
1.665608,1.7875593,60,63,0
1.665608,1.7875593,55,63,0
1.9095105,2.0232418,69,78,0
1.9095105,2.0232418,60,66,0
1.9095105,2.0232418,57,66,0
2.3644354,2.4781668,60,62,0
2.3644354,2.4781668,67,74,0
2.3644354,2.4781668,55,62,0
3.501748,3.7064643,64,70,0
3.501748,3.7064643,60,59,0
3.501748,3.7064643,52,59,0
3.7292106,4.1841354,52,65,0
3.7292106,4.1841354,60,65,0
3.7292106,4.1841354,64,77,0
4.1841354,4.29157,65,77,0
4.1841354,4.29157,60,65,0
4.1841354,4.29157,53,65,0
4.3990045,4.5188704,60,68,0
4.3990045,4.5188704,67,80,0
4.3990045,4.5188704,55,68,0
4.638736,5.082097,57,70,0
4.638736,5.082097,69,83,0
4.638736,5.082097,60,70,0
5.082097,5.188307,60,68,0
5.082097,5.188307,55,68,0
5.082097,5.188307,67,81,0
5.2945166,5.4133563,60,70,0
5.2945166,5.4133563,69,83,0
5.2945166,5.4133563,57,70,0
5.5321965,5.6448174,70,85,0
5.5321965,5.6448174,60,72,0
5.5321965,5.6448174,58,72,0
5.9826803,6.0953016,60,68,0
5.9826803,6.0953016,57,68,0
5.9826803,6.0953016,69,81,0
6.8836484,6.995372,67,71,0
6.8836484,6.995372,60,60,0
6.8836484,6.995372,55,60,0
7.1070957,7.229047,69,75,0
7.1070957,7.229047,57,63,0
7.1070957,7.229047,60,63,0
7.350998,7.462282,59,66,0
7.350998,7.462282,71,78,0
7.350998,7.462282,65,66,0
7.796135,7.9096766,60,68,0
7.796135,7.9096766,72,80,0
7.796135,7.9096766,64,68,0
8.250302,8.362025,62,69,0
8.250302,8.362025,74,82,0
8.250302,8.362025,67,69,0
8.697196,8.811195,76,84,0
8.697196,8.811195,67,71,0
8.697196,8.811195,64,71,0
9.153751,9.231626,78,78,0
9.231626,9.308679,79,73,0
9.308679,9.384924,78,80,0
9.384924,9.4604025,79,75,0
9.4604025,9.535144,78,82,0
9.535144,9.608916,79,78,0
9.608916,9.682671,78,84,0
9.682671,9.75666,79,81,0
9.75666,9.830956,78,86,0
9.830956,9.886818,79,84,0
9.886818,9.942879,78,89,0
9.942879,9.999029,76,84,0
9.999029,10.05534,78,85,0
9.153751,10.05534,74,72,0
9.153751,10.05534,72,72,0
10.05534,10.492626,79,93,0
10.05534,10.492626,71,79,0
10.492626,10.598475,74,83,0
10.704326,10.815676,78,75,0
10.927027,11.035557,79,83,0
11.361149,11.46589,62,66,0
11.570631,11.681915,66,60,0
11.7932,11.903171,67,66,0
12.233083,12.340103,50,69,0
12.447124,12.563016,54,61,0
12.678909,12.828475,55,64,0
12.828475,12.978042,59,57,0
12.978042,13.127608,60,57,0
13.127608,13.277174,62,66,0
13.277174,13.426741,64,59,0
13.426741,13.576447,66,59,0
13.576447,13.688896,67,67,0
13.688896,13.800912,70,69,0
13.800912,13.912429,72,71,0
13.912429,14.023515,74,73,0
14.023515,14.134109,76,75,0
14.134109,14.2442465,78,77,0
14.2442465,14.353918,79,79,0
14.353918,14.463111,81,84,0
14.557205,15.215871,74,67,0
14.557205,15.215871,82,80,0
14.557205,15.215871,70,67,0
14.557205,15.215871,77,67,0
15.215871,15.408507,74,80,0
15.215871,15.408507,62,67,0
15.215871,15.408507,70,67,0
15.429912,15.905272,74,85,0
15.429912,15.905272,62,71,0
15.429912,15.905272,70,71,0
15.905272,16.016994,70,69,0
15.905272,16.016994,75,81,0
15.905272,16.016994,63,69,0
16.12872,16.25067,77,86,0
16.12872,16.25067,70,72,0
16.12872,16.25067,65,72,0
16.372622,16.486353,79,89,0
16.372622,16.486353,67,75,0
16.372622,16.486353,70,75,0
16.827545,16.941277,70,71,0
16.827545,16.941277,77,85,0
16.827545,16.941277,65,71,0
17.964859,18.169575,74,80,0
17.964859,18.169575,62,67,0
17.964859,18.169575,70,67,0
18.192322,18.647245,70,74,0
18.192322,18.647245,74,88,0
18.192322,18.647245,62,74,0
18.647245,18.75468,75,88,0
18.647245,18.75468,63,74,0
18.647245,18.75468,70,74,0
18.862116,18.981981,65,78,0
18.862116,18.981981,77,92,0
18.862116,18.981981,70,78,0
19.101847,19.545208,70,80,0
19.101847,19.545208,79,95,0
19.101847,19.545208,67,80,0
19.545208,19.651417,65,78,0
19.545208,19.651417,77,93,0
19.545208,19.651417,70,78,0
19.757627,19.876467,70,80,0
19.757627,19.876467,79,95,0
19.757627,19.876467,67,80,0
19.995308,20.107927,68,82,0
19.995308,20.107927,80,97,0
19.995308,20.107927,70,82,0
20.445791,20.558413,70,78,0
20.445791,20.558413,67,78,0
20.445791,20.558413,79,93,0
21.34676,21.458483,65,69,0
21.34676,21.458483,70,69,0
21.34676,21.458483,77,81,0
21.570206,21.692158,70,72,0
21.570206,21.692158,79,86,0
21.570206,21.692158,67,72,0
21.814108,21.925392,71,75,0
21.814108,21.925392,83,89,0
21.814108,21.925392,79,75,0
22.259245,22.372787,79,78,0
22.259245,22.372787,84,92,0
22.259245,22.372787,72,78,0
22.713413,22.825136,74,79,0
22.713413,22.825136,79,79,0
22.713413,22.825136,86,94,0
23.160307,23.274305,87,96,0
23.160307,23.274305,79,81,0
23.160307,23.274305,75,81,0
23.616861,23.734215,89,96,0
23.616861,23.734215,84,81,0
23.616861,23.734215,77,81,0
24.086271,25.025091,84,89,0
24.086271,25.025091,78,89,0
24.086271,25.025091,90,105,0
24.086271,25.025091,86,89,0
25.025091,25.950047,86,89,0
25.025091,25.950047,84,89,0
25.025091,25.950047,79,89,0
25.025091,25.950047,91,105,0
25.950047,26.84216,84,89,0
25.950047,26.84216,81,89,0
25.950047,26.84216,86,89,0
25.950047,26.84216,93,105,0
26.86114,27.52677,86,89,0
26.86114,27.52677,81,89,0
26.86114,27.52677,93,105,0
26.86114,27.52677,84,89,0
27.52677,27.637709,83,70,0
27.52677,27.637709,79,70,0
27.52677,27.637709,91,83,0
27.748648,27.856787,89,88,0
27.748648,27.856787,77,74,0
27.964926,28.077108,86,75,0
27.964926,28.077108,74,63,0
28.189291,28.298216,71,73,0
28.189291,28.298216,83,87,0
28.40714,28.52017,67,59,0
28.40714,28.52017,79,70,0
28.633198,28.743727,65,70,0
28.633198,28.743727,77,83,0
28.854258,28.972637,62,57,0
28.854258,28.972637,74,68,0
29.091019,29.750198,64,68,0
29.091019,29.750198,72,80,0
29.091019,29.750198,60,68,0
30.615347,30.817276,60,40,0
30.839712,31.272083,60,48,0
31.272083,31.379065,62,41,0
31.486048,31.596987,64,46,0
31.707924,32.119316,65,51,0
32.137203,32.330376,65,45,0
32.35184,32.55377,67,46,0
32.35184,32.55377,65,37,0
32.576206,33.00548,67,49,0
33.00548,33.111706,69,45,0
33.217934,33.328873,71,45,0
33.217934,33.41762,79,51,0
33.439808,33.87218,72,49,0
33.87218,33.97692,74,47,0
33.439808,34.08166,79,55,0
34.08166,34.19174,76,55,0
34.08166,34.279797,79,55,0
34.30181,34.50677,79,62,0
34.50677,34.722958,78,53,0
34.722958,34.824055,81,63,0
34.30181,34.925156,77,53,0
34.925156,35.03408,79,54,0
34.925156,35.139557,76,45,0
35.139557,35.350513,79,59,0
35.350513,35.57488,78,50,0
35.57488,35.67736,81,59,0
35.139557,35.77984,76,50,0
35.77984,35.89869,79,50,0
35.77984,36.017536,72,42,0
36.017536,36.46965,82,65,0
36.017536,36.46965,73,55,0
36.46965,36.58268,74,50,0
36.46965,36.58268,81,59,0
37.56825,37.770176,62,40,0
37.792614,38.226547,62,48,0
38.226547,38.33353,64,41,0
38.440514,38.55145,65,46,0
38.662388,39.091667,67,51,0
39.091667,39.306305,67,45,0
39.306305,39.508236,67,37,0
39.306305,39.508236,69,46,0
39.53067,39.963226,69,49,0
39.963226,40.069454,71,45,0
40.17568,40.286617,73,45,0
40.17568,40.375366,81,51,0
40.397552,40.82683,74,49,0
40.82683,40.92966,76,47,0
40.397552,41.032494,81,55,0
41.032494,41.144676,77,55,0
41.032494,41.234425,81,55,0
41.25686,41.45974,81,62,0
41.45974,41.67999,80,53,0
41.67999,41.78212,82,63,0
41.25686,41.88425,79,53,0
41.88425,41.993176,81,54,0
41.88425,42.09865,77,45,0
42.09865,42.305023,81,59,0
42.305023,42.52939,80,50,0
42.52939,42.63487,82,59,0
42.09865,42.740345,77,50,0
42.740345,42.859196,81,50,0
42.740345,42.978043,74,42,0
42.978043,43.430157,84,69,0
42.978043,43.430157,75,55,0
43.430157,43.543186,83,59,0
43.430157,43.543186,76,50,0
44.74597,45.189724,88,78,0
45.189724,45.300663,87,69,0
44.74597,45.411602,78,66,0
46.5021,46.931564,91,81,0
46.931564,47.042503,90,72,0
46.5021,47.15344,81,68,0
47.375317,47.80944,82,68,0
47.375317,47.80944,93,80,0
47.80944,47.921623,91,74,0
49.99665,50.42306,64,53,0
49.99665,50.42306,76,63,0
50.42306,50.529663,75,61,0
50.636265,50.74639,73,61,0
50.856514,51.279915,81,69,0
50.856514,51.279915,71,58,0
51.279915,51.385765,80,61,0
51.491615,51.600937,78,61,0
51.71026,52.13069,83,72,0
52.13069,52.235798,81,65,0
52.340908,52.45023,80,61,0
51.71026,52.55955,76,61,0
52.55955,52.76903,78,70,0
52.76903,52.957565,79,61,0
52.55955,52.978516,76,59,0
52.978516,53.60696,79,63,0
53.60696,53.816444,78,67,0
52.978516,53.816444,76,53,0
53.816444,54.025196,78,70,0
54.025196,54.213078,79,64,0
53.816444,54.23395,76,59,0
54.23395,54.442703,79,64,0
54.442703,54.64166,80,61,0
54.23395,54.663765,76,54,0
54.663765,55.292213,80,70,0
55.292213,55.501694,79,60,0
54.663765,55.501694,76,59,0
55.501694,55.711178,79,62,0
55.711178,55.89971,80,64,0
55.501694,55.92066,76,52,0
55.92066,56.130142,80,66,0
56.130142,56.325497,81,68,0
55.92066,56.347202,76,56,0
56.347202,56.953957,81,74,0
56.347202,56.953957,76,62,0
56.971294,57.15852,76,58,0
56.971294,57.15852,82,69,0
57.17932,57.383114,82,77,0
57.17932,57.383114,76,65,0
57.383114,57.566525,85,68,0
57.383114,57.566525,79,57,0
57.586903,57.790695,85,70,0
57.586903,57.790695,79,59,0
57.790695,57.974106,88,70,0
57.790695,57.974106,82,70,0
57.994484,58.198277,82,75,0
57.994484,58.198277,88,75,0
58.198277,58.413776,85,62,0
58.198277,58.413776,91,73,0
58.413776,58.52153,87,68,0
58.413776,58.52153,90,80,0
59.25375,59.859734,78,85,0
59.859734,60.07218,76,80,0
60.07218,60.27597,75,84,0
59.25375,60.27597,69,72,0
59.049267,60.27597,66,80,0
60.88261,61.48925,90,90,0
61.48925,61.703217,88,85,0
61.703217,61.939434,87,95,0
60.88261,61.939434,81,76,0
60.68355,61.939434,78,83,0
62.175655,62.293766,81,84,0
62.175655,62.293766,93,99,0
62.175655,62.293766,87,84,0
62.175655,62.293766,90,84,0
63.120537,63.59298,66,77,0
63.59298,64.79102,69,83,0
65.04419,65.58473,66,46,0
65.58473,67.210785,69,49,0
67.542274,68.12611,66,46,0
68.12611,69.21284,69,49,0
69.21284,70.01307,71,48,0
70.01307,70.273315,72,46,0
70.302505,71.364204,72,53,0
71.364204,71.89626,71,46,0
72.158,72.4313,74,49,0
72.4313,73.48996,77,54,0
73.48996,74.26708,76,50,0
74.26708,74.55071,71,50,0
74.55071,75.6155,74,57,0
75.6155,76.14507,72,52,0
76.67902,77.733826,72,49,0
78.56646,78.8528,74,56,0
78.8528,79.38266,76,65,0
77.75598,79.38266,72,50,0
79.91237,81.51572,79,75,0
79.91237,81.51572,76,63,0
82.05283,83.66368,83,73,0
82.05283,83.66368,79,62,0
84.1906,86.055695,86,76,0
84.15766,86.055695,79,73,0
84.12473,86.055695,74,69,0
86.055695,86.321724,83,66,0
86.321724,87.10602,84,73,0
87.10602,87.37205,81,61,0
86.321724,87.37205,78,62,0
87.37205,88.45957,79,69,0
88.45957,89.2485,81,63,0
89.2485,89.51691,77,52,0
89.51691,90.60443,76,63,0
88.45957,90.60443,72,53,0
90.60443,91.683075,71,54,0
90.60443,92.474144,77,64,0
92.474144,92.76893,76,52,0
91.683075,92.76893,72,64,0
92.76893,93.57541,78,50,0
93.57541,93.84747,75,37,0
92.76893,93.84747,69,42,0
93.84747,94.91408,88,40,0
93.84747,94.91408,84,40,0
94.91408,95.44146,83,35,0
94.91408,95.44146,86,35,0
93.84747,95.9616,76,34,0
95.44146,95.98535,88,41,0
95.44146,95.98535,84,41,0
95.98535,96.779915,86,46,0
95.98535,96.779915,89,46,0
96.779915,97.04477,83,39,0
96.779915,97.04477,86,39,0
97.04477,97.56984,80,46,0
97.04477,97.56984,83,46,0
95.98535,98.078415,76,25,0
97.56984,98.100784,84,40,0
97.56984,98.100784,81,40,0
98.100784,98.652405,86,40,0
98.100784,98.652405,83,40,0
98.652405,99.17748,81,35,0
98.652405,99.17748,84,35,0
99.17748,99.69308,83,35,0
99.17748,99.69308,79,35,0
98.100784,100.21548,76,34,0
99.69308,100.23922,77,41,0
99.69308,100.23922,81,41,0
100.23922,101.03731,80,46,0
101.03731,101.30334,78,39,0
101.03731,101.30334,81,39,0
100.23922,101.80434,76,25,0
101.30334,101.82612,83,46,0
101.30334,101.82612,80,46,0
102.36849,103.44497,88,40,0
102.36849,103.44497,84,40,0
103.44497,103.96279,86,35,0
103.44497,103.96279,83,35,0
101.82612,104.484055,76,40,0
103.96279,104.507805,84,43,0
103.96279,104.507805,88,43,0
104.507805,105.30237,88,55,0
104.507805,105.30237,91,55,0
105.30237,105.56722,89,42,0
105.30237,105.56722,86,42,0
105.56722,106.090004,86,50,0
105.56722,106.090004,83,50,0
104.507805,106.60307,76,25,0
106.090004,106.625946,86,44,0
106.090004,106.625946,89,44,0
106.625946,107.177574,88,44,0
106.625946,107.177574,84,44,0
107.177574,107.69809,84,37,0
107.177574,107.69809,81,37,0
107.69809,108.218605,83,36,0
107.69809,108.218605,86,36,0
106.625946,108.7401,76,37,0
108.218605,108.76385,83,42,0
108.218605,108.76385,80,42,0
108.76385,109.30551,81,40,0
108.76385,109.30551,84,46,0
109.30551,109.84717,78,39,0
109.30551,109.84717,81,39,0
109.84717,110.37923,80,46,0
109.84717,110.37923,83,46,0
108.76385,110.95644,76,25,0
110.37923,110.95644,76,40,0
111.223656,111.47624,64,24,0
111.47624,111.72445,69,34,0
111.72445,112.00026,76,24,0
112.265114,112.51877,64,27,0
112.51877,112.76697,71,33,0
112.76697,113.033,76,24,0
113.29439,113.549126,69,27,0
113.549126,113.7963,72,34,0
113.7963,114.06233,77,24,0
114.322586,114.57518,65,29,0
114.57518,114.82236,71,33,0
114.80794,115.07398,77,24,0
115.34982,115.60456,69,32,0
115.60456,115.85276,77,38,0
115.85276,116.12857,83,32,0
116.38883,116.64356,68,32,0
116.64356,116.8928,76,41,0
116.8928,117.16734,83,34,0
117.429886,117.684616,74,35,0
117.684616,117.932816,83,44,0
117.932816,118.208626,88,38,0
118.47348,118.72822,72,38,0
118.72822,118.97745,81,48,0
118.97745,119.252,88,36,0
119.801094,120.44893,65,39,0
119.801094,120.44893,71,47,0
119.801094,120.44893,69,39,0
120.44893,120.5785,72,45,0
120.5785,120.70807,71,45,0
120.70807,120.83763,69,45,0
120.83763,120.97366,71,46,0
120.97366,121.109695,72,49,0
121.109695,121.24572,74,52,0
121.24572,121.401535,76,55,0
121.401535,121.96087,79,68,0
121.96087,122.24054,77,64,0
124.15263,124.80047,71,47,0
124.15263,124.80047,65,39,0
124.15263,124.80047,68,39,0
124.80047,124.93004,72,45,0
124.93004,125.0596,71,45,0
125.0596,125.18917,70,45,0
125.18917,125.3252,71,46,0
125.3252,125.46123,72,49,0
125.46123,125.59726,74,52,0
125.59726,125.753075,76,55,0
125.753075,126.31241,79,68,0
126.31241,126.584465,77,64,0
126.85653,127.40064,84,74,0
127.40064,127.67271,82,69,0
126.85653,127.67271,74,62,0
130.10855,130.25296,62,41,0
130.23982,130.38422,63,41,0
130.3711,130.51549,62,41,0
130.10855,130.63364,72,41,0
130.50237,130.64676,61,41,0
130.63364,130.77803,62,45,0
130.63364,130.89616,70,61,0
130.7649,130.90929,65,47,0
130.89616,131.04196,68,49,0
131.02744,131.18576,70,52,0
131.17268,131.69547,84,67,0
131.69547,131.95686,82,61,0
131.17268,131.95686,75,67,0
132.23141,132.37518,74,51,0
132.3621,132.50587,75,47,0
132.49281,132.63657,74,47,0
132.23141,132.7542,84,75,0
132.6235,132.76727,73,47,0
132.7542,132.89796,74,51,0
132.7542,133.0156,82,70,0
132.8849,133.02866,77,53,0
133.0156,133.16089,80,56,0
133.14629,133.30537,82,60,0
133.29225,133.81732,96,77,0
133.29225,134.07985,86,77,0
133.81732,134.62549,94,86,0
134.62549,134.88463,93,75,0
134.88463,135.14375,92,77,0
135.14375,135.4029,91,73,0
135.4029,135.66203,90,69,0
135.66203,135.92116,89,63,0
135.92116,136.1803,88,70,0
136.1803,136.44829,87,69,0
136.44829,136.70813,86,70,0
136.70813,136.96631,85,60,0
136.96631,137.22267,84,64,0
137.22267,137.47728,83,67,0
137.47728,137.73094,82,71,0
137.73094,137.9846,81,60,0
137.9846,138.23825,80,67,0
138.23825,138.50572,79,54,0
138.50572,138.76323,78,60,0
138.76323,139.02144,77,54,0
139.02144,139.282,76,59,0
139.282,139.54747,75,50,0
139.54747,139.81754,74,59,0
139.81754,140.09644,73,46,0
140.09644,140.38481,72,53,0
140.38481,140.687,71,46,0
141.22272,141.75844,72,54,0
141.75844,142.29414,75,58,0
142.29414,142.88083,81,54,0
143.43758,144.04362,77,54,0
144.04362,144.69228,76,43,0
144.69228,145.42398,68,34,0
145.42398,145.69853,77,32,0
145.69853,145.97308,69,23,0
145.97308,146.23677,77,23,0
146.23677,146.50046,69,23,0
145.42398,146.50046,81,40,0
146.50046,147.02307,79,35,0
146.50046,147.02307,76,35,0
147.02307,147.56696,77,41,0
147.02307,147.56696,81,41,0
147.56696,148.34288,79,46,0
147.56696,148.36504,82,46,0
148.36504,148.6089,76,39,0
148.36504,148.63107,79,39,0
148.63107,149.15385,76,46,0
148.63107,149.15385,73,46,0
149.15385,149.6898,77,40,0
149.15385,149.6898,74,40,0
149.6898,150.22902,79,40,0
149.6898,150.22902,76,40,0
150.22902,150.74954,74,35,0
150.22902,150.74954,77,35,0
150.74954,151.27007,72,35,0
150.74954,151.27007,76,35,0
151.27007,151.8153,70,41,0
151.27007,151.8153,74,41,0
151.8153,152.60637,69,25,0
151.8153,152.60637,73,46,0
152.60637,152.87006,74,39,0
152.60637,152.87006,71,39,0
152.87006,153.39285,76,46,0
152.87006,153.39285,73,46,0
153.93521,154.72629,81,25,0
153.93521,154.72629,85,46,0
154.72629,154.98997,86,39,0
154.72629,154.98997,83,39,0
154.98997,155.51276,88,46,0
154.98997,155.51276,85,46,0
156.05513,156.8462,72,50,0
156.05513,156.8462,69,23,0
156.8462,157.1099,71,36,0
156.8462,157.1099,74,42,0
157.1099,158.95589,72,42,0
157.1099,158.95589,76,50,0
158.95589,159.21841,77,48,0
158.95589,159.21841,74,40,0
159.21841,160.26314,76,46,0
159.21841,161.03389,79,57,0
161.03389,161.2908,81,62,0
160.26314,161.2908,72,27,0
160.26314,161.2908,75,51,0
161.2908,162.28888,79,50,0
161.2908,162.3113,74,50,0
161.2908,163.07875,83,60,0
163.07875,163.33458,84,62,0
162.3113,163.33458,79,58,0
162.3113,163.33458,72,26,0
163.33458,164.34296,77,56,0
163.33458,164.34296,74,56,0
163.33458,164.34296,83,56,0
163.33458,165.08205,86,67,0
165.08205,165.32841,88,74,0
164.34296,165.32841,76,31,0
164.34296,165.32841,79,70,0
165.32841,166.55067,77,61,0
165.32841,166.55067,86,73,0
165.32841,166.55067,89,73,0
166.55067,166.79335,76,56,0
166.55067,166.79335,88,67,0
166.55067,166.79335,85,67,0
166.79335,167.03683,86,72,0
166.79335,167.03683,89,72,0
166.79335,167.03683,77,61,0
167.03683,167.27922,88,67,0
167.03683,167.27922,76,56,0
167.03683,167.27922,85,67,0
167.27922,167.5206,89,76,0
167.27922,167.5206,77,64,0
167.27922,167.5206,86,76,0
167.5206,167.76088,76,62,0
167.5206,167.76088,88,73,0
167.5206,167.76088,85,73,0
167.76088,168.00018,77,64,0
167.76088,168.00018,89,76,0
167.76088,168.00018,86,76,0
168.00018,168.11935,76,68,0
168.00018,168.11935,88,81,0
168.00018,168.11935,85,81,0
168.24867,168.36586,91,73,0
168.24867,168.36586,101,86,0
168.24867,168.36586,89,73,0
168.36586,168.48305,98,75,0
168.48305,168.60023,95,76,0
168.60023,168.71742,91,73,0
168.71742,168.83461,89,86,0
168.83461,168.9518,86,72,0
168.9518,169.06898,83,76,0
169.06898,169.1945,79,69,0
169.1945,169.31123,89,86,0
169.31123,169.42796,86,75,0
169.42796,169.5447,83,76,0
169.5447,169.66142,79,73,0
169.66142,169.77815,77,86,0
169.77815,169.8949,74,72,0
169.8949,170.01163,71,76,0
170.01163,170.13715,67,69,0
170.13715,170.25388,89,86,0
170.25388,170.3706,86,75,0
170.3706,170.48734,83,76,0
170.48734,170.60406,79,73,0
170.60406,170.7208,77,86,0
170.7208,170.83754,74,72,0
170.83754,170.95427,71,76,0
170.95427,171.07979,67,69,0
171.07979,171.15761,65,81,0
171.15761,171.23543,62,70,0
171.23543,171.31325,59,70,0
171.31325,171.39107,55,75,0
171.39107,171.46889,59,70,0
171.46889,171.5467,62,70,0
171.5467,171.62454,65,79,0
171.62454,171.70236,67,70,0
171.70236,171.78018,74,70,0
171.78018,171.858,77,70,0
171.858,171.93875,79,70,0
171.93875,172.02243,83,70,0
172.11653,172.77519,76,73,0
172.11653,172.77519,84,88,0
172.11653,172.77519,72,73,0
172.11653,172.77519,79,73,0
172.77519,172.96783,52,59,0
172.77519,172.96783,60,59,0
172.77519,172.96783,64,70,0
172.98923,173.4646,64,74,0
172.98923,173.4646,60,62,0
172.98923,173.4646,52,62,0
173.4646,173.57631,53,60,0
173.4646,173.57631,65,71,0
173.4646,173.57631,60,60,0
173.68803,173.81,60,63,0
173.68803,173.81,55,63,0
173.68803,173.81,67,75,0
173.93195,174.04567,69,78,0
173.93195,174.04567,57,66,0
173.93195,174.04567,60,66,0
174.38687,174.5006,60,62,0
174.38687,174.5006,55,62,0
174.38687,174.5006,67,74,0
175.52419,175.7289,64,70,0
175.52419,175.7289,52,59,0
175.52419,175.7289,60,59,0
175.75165,176.20657,52,65,0
175.75165,176.20657,60,65,0
175.75165,176.20657,64,77,0
176.20657,176.314,53,65,0
176.20657,176.314,60,65,0
176.20657,176.314,65,77,0
176.42143,176.5413,67,80,0
176.42143,176.5413,60,68,0
176.42143,176.5413,55,68,0
176.66116,177.10452,60,70,0
176.66116,177.10452,57,70,0
176.66116,177.10452,69,83,0
177.10452,177.21074,55,68,0
177.10452,177.21074,60,68,0
177.10452,177.21074,67,81,0
177.31694,177.43579,57,70,0
177.31694,177.43579,60,70,0
177.31694,177.43579,69,83,0
177.55463,177.66725,58,72,0
177.55463,177.66725,70,85,0
177.55463,177.66725,60,72,0
178.00511,178.11774,60,68,0
178.00511,178.11774,69,81,0
178.00511,178.11774,57,68,0
178.90608,179.0178,60,60,0
178.90608,179.0178,55,60,0
178.90608,179.0178,67,71,0
179.12953,179.25148,57,63,0
179.12953,179.25148,69,75,0
179.12953,179.25148,60,63,0
179.37343,179.48471,59,66,0
179.37343,179.48471,71,78,0
179.37343,179.48471,65,66,0
179.81857,179.93211,60,68,0
179.81857,179.93211,72,80,0
179.81857,179.93211,64,68,0
180.27274,180.38446,62,69,0
180.27274,180.38446,74,82,0
180.27274,180.38446,67,69,0
180.71964,180.83363,67,71,0
180.71964,180.83363,76,84,0
180.71964,180.83363,64,71,0
181.17618,181.25406,78,78,0
181.25406,181.33112,79,73,0
181.33112,181.40735,78,80,0
181.40735,181.48283,79,75,0
181.48283,181.55757,78,82,0
181.55757,181.63135,79,78,0
181.63135,181.70511,78,84,0
181.70511,181.7791,79,81,0
181.7791,181.8534,78,86,0
181.8534,181.90926,79,84,0
181.90926,181.96532,78,89,0
181.96532,182.02145,76,84,0
182.02145,182.07777,78,85,0
181.17618,182.07777,74,72,0
181.17618,182.07777,72,72,0
182.07777,182.51506,79,93,0
182.07777,182.51506,71,79,0
182.51506,182.62091,74,83,0
182.72676,182.8381,78,75,0
182.94946,183.05798,79,83,0
183.38358,183.48833,62,66,0
183.59306,183.70435,66,60,0
183.81563,183.9256,67,66,0
184.25551,184.36253,50,69,0
184.46956,184.58545,54,61,0
184.70134,184.8509,55,64,0
184.8509,185.00047,59,57,0
185.00047,185.15004,60,57,0
185.15004,185.2996,62,66,0
185.2996,185.44917,64,59,0
185.44917,185.59888,66,59,0
185.59888,185.71133,67,67,0
185.71133,185.82335,70,69,0
185.82335,185.93486,72,71,0
185.93486,186.04594,74,73,0
186.04594,186.15654,76,75,0
186.15654,186.26668,78,77,0
186.26668,186.37634,79,79,0
186.37634,186.48553,81,84,0
186.57964,187.2383,70,67,0
186.57964,187.2383,74,67,0
186.57964,187.2383,77,67,0
186.57964,187.2383,82,80,0
187.2383,187.43094,62,67,0
187.2383,187.43094,70,67,0
187.2383,187.43094,74,80,0
187.45235,187.9277,74,85,0
187.45235,187.9277,70,71,0
187.45235,187.9277,62,71,0
187.9277,188.03943,63,69,0
187.9277,188.03943,75,81,0
187.9277,188.03943,70,69,0
188.15115,188.2731,77,86,0
188.15115,188.2731,70,72,0
188.15115,188.2731,65,72,0
188.39505,188.50879,79,89,0
188.39505,188.50879,70,75,0
188.39505,188.50879,67,75,0
188.84998,188.96371,70,71,0
188.84998,188.96371,65,71,0
188.84998,188.96371,77,85,0
189.98729,190.192,62,67,0
189.98729,190.192,70,67,0
189.98729,190.192,74,80,0
190.21475,190.66968,62,74,0
190.21475,190.66968,74,88,0
190.21475,190.66968,70,74,0
190.66968,190.77711,63,74,0
190.66968,190.77711,70,74,0
190.66968,190.77711,75,88,0
190.88455,191.00441,65,78,0
190.88455,191.00441,77,92,0
190.88455,191.00441,70,78,0
191.12428,191.56764,70,80,0
191.12428,191.56764,67,80,0
191.12428,191.56764,79,95,0
191.56764,191.67384,77,93,0
191.56764,191.67384,65,78,0
191.56764,191.67384,70,78,0
191.78006,191.8989,79,95,0
191.78006,191.8989,70,80,0
191.78006,191.8989,67,80,0
192.01775,192.13036,80,97,0
192.01775,192.13036,68,82,0
192.01775,192.13036,70,82,0
192.46822,192.58084,67,78,0
192.46822,192.58084,70,78,0
192.46822,192.58084,79,93,0
193.36919,193.48091,65,69,0
193.36919,193.48091,70,69,0
193.36919,193.48091,77,81,0
193.59264,193.71458,70,72,0
193.59264,193.71458,79,86,0
193.59264,193.71458,67,72,0
193.83653,193.94783,71,75,0
193.83653,193.94783,79,75,0
193.83653,193.94783,83,89,0
194.28168,194.39522,84,92,0
194.28168,194.39522,72,78,0
194.28168,194.39522,79,78,0
194.73584,194.84756,86,94,0
194.73584,194.84756,79,79,0
194.73584,194.84756,74,79,0
195.18274,195.29674,79,81,0
195.18274,195.29674,75,81,0
195.18274,195.29674,87,96,0
195.6393,195.75665,89,96,0
195.6393,195.75665,84,81,0
195.6393,195.75665,77,81,0
196.1087,197.02797,86,89,0
196.1087,197.03676,84,89,0
196.1087,197.04752,78,89,0
196.1087,197.04752,90,105,0
197.04752,197.95349,84,89,0
197.04752,197.95349,86,89,0
197.04752,197.97247,91,105,0
197.04752,197.97247,79,89,0
197.97247,198.8646,84,89,0
197.97247,198.8646,93,105,0
197.97247,198.8646,81,89,0
197.97247,198.8646,86,89,0
198.88358,199.5492,93,105,0
198.88358,199.5492,86,89,0
198.88358,199.5492,84,89,0
198.88358,199.5492,81,89,0
199.5492,199.66014,91,83,0
199.5492,199.66014,79,70,0
199.5492,199.66014,83,70,0
199.77107,199.87921,77,74,0
199.77107,199.87921,89,88,0
199.98735,200.09953,86,75,0
199.98735,200.09953,74,63,0
200.21173,200.32065,71,73,0
200.21173,200.32065,83,87,0
200.42957,200.5426,79,70,0
200.42957,200.5426,67,59,0
200.65562,200.76616,77,83,0
200.65562,200.76616,65,70,0
200.8767,200.99507,62,57,0
200.8767,200.99507,74,68,0
201.11345,201.77263,60,68,0
201.11345,201.77263,72,80,0
201.11345,201.77263,64,68,0
202.63777,202.8397,60,40,0
202.86214,203.29451,60,48,0
203.29451,203.40149,62,41,0
203.50848,203.61942,64,46,0
203.73036,204.14174,65,51,0
204.15964,204.35281,65,45,0
204.37427,204.5762,67,46,0
204.37427,204.59863,65,37,0
204.59863,205.02791,67,49,0
205.02791,205.13414,69,45,0
205.24036,205.3513,71,45,0
205.24036,205.46223,79,51,0
205.46223,205.8946,72,49,0
205.8946,205.99744,74,47,0
205.46223,206.08313,79,55,0
206.10028,206.21034,76,55,0
206.10028,206.30208,79,55,0
206.32042,206.5233,79,62,0
206.5233,206.73949,78,53,0
206.73949,206.84128,81,63,0
206.32042,206.94305,77,53,0
206.94305,207.05199,79,54,0
206.94305,207.15746,76,45,0
207.15746,207.36455,79,59,0
207.36455,207.58891,78,50,0
207.58891,207.69281,81,59,0
207.15746,207.7967,76,50,0
207.7967,207.91556,79,50,0
207.7967,208.03441,72,42,0
208.03441,208.48653,82,65,0
208.03441,208.48653,73,55,0
208.48653,208.59955,81,59,0
208.48653,208.59955,74,50,0
209.58511,209.78705,62,40,0
209.80948,210.24342,62,48,0
210.24342,210.3504,64,41,0
210.45738,210.56831,65,46,0
210.67926,211.10854,67,51,0
211.10854,211.30528,67,45,0
211.32318,211.52884,69,46,0
211.32318,211.52884,67,37,0
211.54755,211.9801,69,49,0
211.9801,212.08632,71,45,0
212.19255,212.30348,73,45,0
212.19255,212.41443,81,51,0
212.41443,212.8437,74,49,0
212.8437,212.94724,76,47,0
212.41443,213.05078,81,55,0
213.05078,213.16296,77,55,0
213.05078,213.25272,81,55,0
213.27515,213.47942,81,62,0
213.47942,213.69966,80,53,0
213.69966,213.80249,82,63,0
213.27515,213.90532,79,53,0
213.90532,214.01425,81,54,0
213.90532,214.10214,77,45,0
214.11972,214.32681,81,59,0
214.32681,214.55118,80,50,0
214.55118,214.65436,82,59,0
214.11972,214.75754,77,50,0
214.75754,214.87639,81,50,0
214.75754,214.99524,74,42,0
214.99524,215.44736,84,68,0
214.99524,215.44736,75,55,0
215.44736,215.56038,76,50,0
215.44736,215.56038,83,59,0
216.76317,217.20692,88,78,0
217.20692,217.31786,87,69,0
216.76317,217.4288,78,66,0
218.5193,218.94876,91,81,0
218.94876,219.0597,90,72,0
218.5193,219.17064,81,68,0
219.39252,219.82664,82,68,0
219.39252,219.82664,93,80,0
219.82664,219.93883,91,74,0
222.01385,222.44026,64,53,0
222.01385,222.44026,76,63,0
222.44026,222.54686,75,61,0
222.65346,222.76358,73,61,0
222.87372,223.29712,81,69,0
222.87372,223.29712,71,58,0
223.29712,223.40297,80,61,0
223.5088,223.61813,78,61,0
223.72745,224.14789,83,72,0
224.14789,224.25299,81,65,0
224.35811,224.46742,80,61,0
223.72745,224.57675,76,61,0
224.57675,224.78622,78,70,0
224.78622,224.97476,79,61,0
224.57675,224.99571,76,59,0
224.99571,225.6067,79,63,0
224.99571,225.8162,76,53,0
225.62416,225.83365,78,67,0
225.83365,226.04239,78,70,0
226.04239,226.23027,79,64,0
225.83365,226.23375,76,59,0
226.25114,226.4599,79,64,0
226.4599,226.65886,80,61,0
226.25114,226.66254,76,54,0
226.68097,227.3094,80,70,0
226.68097,227.50143,76,59,0
227.3094,227.51889,79,60,0
227.51889,227.72838,79,62,0
227.72838,227.91692,80,64,0
227.51889,227.9204,76,52,0
227.93785,228.14734,80,66,0
227.93785,228.34631,76,56,0
228.14734,228.3644,81,68,0
228.3644,228.9885,81,74,0
228.3644,228.9885,76,62,0
228.9885,229.17572,76,58,0
228.9885,229.17572,82,69,0
229.19652,229.40031,82,77,0
229.19652,229.40031,76,65,0
229.40031,229.58372,79,57,0
229.40031,229.58372,85,68,0
229.6041,229.80789,79,59,0
229.6041,229.80789,85,70,0
229.80789,229.9913,82,70,0
229.80789,229.9913,88,70,0
230.01169,230.21547,88,75,0
230.01169,230.21547,82,75,0
230.21547,230.43097,91,73,0
230.21547,230.43097,85,62,0
230.43097,230.53873,90,80,0
230.43097,230.53873,87,68,0
231.27095,231.87692,78,85,0
231.87692,232.08939,76,80,0
232.08939,232.29317,75,84,0
231.27095,232.29317,69,72,0
231.06647,232.29317,66,80,0
232.89981,233.50645,90,90,0
233.50645,233.72041,88,85,0
233.72041,233.95663,87,95,0
232.89981,233.95663,81,76,0
232.70074,233.95663,78,83,0
234.19286,234.31096,90,84,0
234.19286,234.31096,93,99,0
234.19286,234.31096,81,84,0
234.19286,234.31096,87,84,0
235.13774,235.61018,66,77,0
235.61018,236.80823,69,83,0
237.06139,237.60193,66,46,0
237.60193,239.22798,69,49,0
239.55948,240.1433,66,46,0
240.1433,241.22319,69,49,0
241.22319,242.0112,71,48,0
242.0112,242.27145,72,46,0
242.30064,243.36179,72,53,0
243.36179,243.8834,71,46,0
244.1492,244.4225,74,49,0
244.4225,245.47821,77,54,0
245.47821,246.2634,76,50,0
246.2634,246.54703,71,50,0
246.54703,247.61526,74,57,0
247.61526,248.1376,72,52,0
248.66455,249.7087,72,49,0
250.5342,250.82054,74,56,0
250.82054,251.36465,76,65,0
249.73094,251.36465,72,50,0
251.89436,253.50363,79,75,0
251.89436,253.50363,76,63,0
254.04675,255.66345,79,62,0
254.04675,255.66345,83,73,0
256.19083,258.04907,86,76,0
256.15787,258.04907,79,73,0
256.1249,258.04907,74,69,0
258.04907,258.31512,83,66,0
258.31512,259.09943,84,73,0
259.09943,259.36545,81,61,0
258.31512,259.36545,78,62,0
259.36545,260.45297,79,69,0
260.45297,261.24188,81,63,0
261.24188,261.5103,77,52,0
261.5103,262.59784,76,63,0
260.45297,262.59784,72,53,0
262.59784,263.67645,71,54,0
262.59784,264.46753,77,64,0
264.46753,264.76233,76,52,0
263.67645,264.76233,72,64,0
264.76233,265.56882,78,50,0
265.56882,265.84085,75,37,0
264.76233,265.84085,69,42,0
265.84085,266.90747,88,40,0
265.84085,266.90747,84,40,0
266.90747,267.4253,86,35,0
266.90747,267.4253,83,35,0
265.84085,267.9477,76,34,0
267.4253,267.97144,88,41,0
267.4253,267.97144,84,41,0
267.97144,268.766,89,46,0
267.97144,268.766,86,46,0
268.766,269.0088,83,39,0
268.766,269.03085,86,39,0
269.03085,269.55594,83,46,0
269.03085,269.55594,80,46,0
267.97144,270.05975,76,25,0
269.55594,270.08212,84,40,0
269.55594,270.08212,81,40,0
270.08212,270.63376,83,40,0
270.08212,270.63376,86,40,0
270.63376,271.15884,81,35,0
270.63376,271.15884,84,35,0
271.15884,271.67667,83,35,0
271.15884,271.67667,79,35,0
270.08212,272.2025,76,34,0
271.67667,272.22626,81,41,0
271.67667,272.22626,77,41,0
272.22626,273.02432,80,46,0
273.02432,273.29037,78,39,0
273.02432,273.29037,81,39,0
272.22626,273.79138,76,25,0
273.29037,273.81314,80,46,0
273.29037,273.81314,83,46,0
274.35553,275.432,84,40,0
274.35553,275.432,88,40,0
275.432,275.94983,83,35,0
275.432,275.94983,86,35,0
273.81314,276.48135,76,40,0
275.94983,276.50613,84,43,0
275.94983,276.50613,88,43,0
276.50613,277.30072,91,55,0
276.50613,277.30072,88,55,0
277.30072,277.5435,86,42,0
277.30072,277.56555,89,42,0
277.56555,278.08835,83,50,0
277.56555,278.08835,86,50,0
276.50613,278.6014,76,25,0
278.08835,278.6243,86,44,0
278.08835,278.6243,89,44,0
278.6243,279.15292,84,44,0
278.6243,279.1759,88,44,0
279.1759,279.69644,84,37,0
279.1759,279.69644,81,37,0
279.69644,280.19055,83,36,0
279.69644,280.21204,86,36,0
278.6243,280.73557,76,37,0
280.21204,280.7593,80,42,0
280.21204,280.7593,83,42,0
280.7593,281.2784,81,40,0
280.7593,281.30096,84,46,0
281.30096,281.84265,78,39,0
281.30096,281.84265,81,39,0
281.84265,282.3747,83,46,0
281.84265,282.3747,80,46,0
280.7593,282.9519,76,25,0
282.3747,282.9519,76,40,0
283.21912,283.4717,64,24,0
283.4717,283.7189,69,34,0
283.7189,283.9947,76,24,0
284.25955,284.511,64,24,0
284.511,284.76022,71,33,0
284.76022,285.02628,76,24,0
285.28766,285.5424,69,24,0
285.5424,285.78955,72,34,0
285.78955,286.0556,77,24,0
286.31586,286.56845,65,24,0
286.56845,286.81665,71,33,0
286.80215,287.06827,77,24,0
287.34412,287.59885,69,32,0
287.59885,287.84808,77,38,0
287.84808,288.1239,83,32,0
288.38416,288.6389,68,32,0
288.6389,288.88916,76,41,0
288.88916,289.1637,83,34,0
289.42624,289.68097,74,35,0
289.68097,289.93124,83,44,0
289.93124,290.20706,88,38,0
290.47192,290.72665,72,38,0
290.72665,290.97485,81,48,0
290.97485,291.2494,88,36,0
291.7985,292.44632,69,39,0
291.7985,292.44632,65,39,0
291.7985,292.44632,71,47,0
292.44632,292.5759,72,45,0
292.5759,292.70547,71,45,0
292.70547,292.83502,69,45,0
292.83502,292.97107,71,46,0
292.97107,293.1071,72,49,0
293.1071,293.24313,74,52,0
293.24313,293.39893,76,55,0
293.39893,293.95828,79,68,0
293.95828,294.23795,77,64,0
296.15002,296.79785,68,39,0
296.15002,296.79785,71,47,0
296.15002,296.79785,65,39,0
296.79785,296.92743,72,45,0
296.92743,297.057,71,45,0
297.057,297.18655,70,45,0
297.18655,297.3226,71,46,0
297.3226,297.45862,72,49,0
297.45862,297.59467,74,52,0
297.59467,297.75046,76,55,0
297.75046,298.3098,79,68,0
298.3098,298.58185,77,64,0
298.8539,299.39804,84,74,0
299.39804,299.6701,82,69,0
298.8539,299.6701,74,62,0
302.10596,302.25034,62,41,0
302.2372,302.38162,63,41,0
302.3685,302.51288,62,41,0
302.10596,302.631,72,41,0
302.49976,302.64417,61,41,0
302.631,302.77542,62,45,0
302.631,302.89355,70,61,0
302.7623,302.90668,65,47,0
302.89355,303.03937,68,49,0
303.02484,303.18314,70,52,0
303.17007,303.69287,84,67,0
303.69287,303.95425,82,61,0
303.17007,303.95425,75,67,0
304.22882,304.3726,74,51,0
304.3595,304.50327,75,47,0
304.4902,304.63397,74,47,0
304.22882,304.7516,84,75,0
304.6209,304.76468,73,47,0
304.7516,304.89536,74,51,0
304.7516,305.013,82,70,0
304.8823,305.02606,77,53,0
305.013,305.1583,80,56,0
305.14368,305.30276,82,60,0
305.28964,305.81473,96,77,0
305.28964,306.07724,86,77,0
305.81473,306.6229,94,86,0
306.6229,306.88202,93,75,0
306.88202,307.14114,92,77,0
307.14114,307.4003,91,73,0
307.4003,307.65942,90,69,0
307.65942,307.91855,89,63,0
307.91855,308.1777,88,70,0
308.1777,308.44568,87,69,0
308.44568,308.70554,86,70,0
308.70554,308.96368,85,60,0
308.96368,309.22006,84,64,0
309.22006,309.47467,83,67,0
309.47467,309.72833,82,71,0
309.72833,309.982,81,60,0
309.982,310.23566,80,67,0
310.23566,310.5031,79,54,0
310.5031,310.76062,78,60,0
310.76062,311.01883,77,54,0
311.01883,311.2794,76,59,0
311.2794,311.54486,75,50,0
311.54486,311.8149,74,59,0
311.8149,312.0938,73,46,0
312.0938,312.3822,72,53,0
312.3822,312.6844,71,46,0
313.22012,313.75583,72,54,0
313.75583,314.29153,75,58,0
314.29153,314.87823,81,54,0
315.43497,316.04102,77,54,0
316.04102,316.68967,76,43,0
316.68967,317.4214,68,34,0
317.4214,317.69592,77,32,0
317.69592,317.9705,69,23,0
317.9705,318.2305,77,23,0
318.2305,318.49054,69,23,0
317.4214,318.49054,81,40,0
318.49054,319.01062,76,35,0
318.49054,319.01062,79,35,0
319.01062,319.5579,77,41,0
319.01062,319.5579,81,41,0
319.5579,320.3338,79,46,0
319.5579,320.356,82,46,0
320.356,320.622,79,39,0
320.356,320.622,76,39,0
320.622,321.1448,76,46,0
320.622,321.1448,73,46,0
321.1448,321.68073,74,40,0
321.1448,321.68073,77,40,0
321.68073,322.21997,76,40,0
321.68073,322.21997,79,40,0
322.21997,322.74048,77,35,0
322.21997,322.74048,74,35,0
322.74048,323.26102,72,35,0
322.74048,323.26102,76,35,0
323.26102,323.80624,70,41,0
323.26102,323.80624,74,41,0
323.80624,324.59732,69,25,0
323.80624,324.59732,73,46,0
324.59732,324.861,74,39,0
324.59732,324.861,71,39,0
324.861,325.3838,76,46,0
324.861,325.3838,73,46,0
325.92615,326.71722,81,25,0
325.92615,326.71722,85,46,0
326.71722,326.98093,83,39,0
326.71722,326.98093,86,39,0
326.98093,327.5037,88,46,0
326.98093,327.5037,85,46,0
328.04608,328.83716,69,23,0
328.04608,328.83716,72,50,0
328.83716,329.10083,71,36,0
328.83716,329.10083,74,42,0
329.10083,330.94684,76,50,0
329.10083,330.94684,72,42,0
330.94684,331.20935,77,48,0
330.94684,331.20935,74,40,0
331.20935,332.2541,76,46,0
331.20935,333.0248,79,57,0
333.0248,333.28174,81,62,0
332.2541,333.28174,72,27,0
332.2541,333.28174,75,51,0
333.28174,334.27982,79,50,0
333.28174,334.30225,74,50,0
333.28174,335.0697,83,60,0
335.0697,335.32553,84,62,0
334.30225,335.32553,79,58,0
334.30225,335.32553,72,26,0
335.32553,336.3339,83,56,0
335.32553,336.3339,77,56,0
335.32553,336.3339,74,56,0
335.32553,337.073,86,67,0
337.073,337.31937,88,74,0
336.3339,337.31937,79,70,0
336.3339,337.31937,76,31,0
337.31937,338.54163,77,61,0
337.31937,338.54163,86,73,0
337.31937,338.54163,89,73,0
338.54163,338.7843,85,67,0
338.54163,338.7843,76,56,0
338.54163,338.7843,88,67,0
338.7843,339.02777,86,72,0
338.7843,339.02777,77,61,0
338.7843,339.02777,89,72,0
339.02777,339.27017,76,56,0
339.02777,339.27017,85,67,0
339.02777,339.27017,88,67,0
339.27017,339.51154,86,76,0
339.27017,339.51154,77,64,0
339.27017,339.51154,89,76,0
339.51154,339.75183,88,73,0
339.51154,339.75183,76,62,0
339.51154,339.75183,85,73,0
339.75183,339.99112,86,76,0
339.75183,339.99112,89,76,0
339.75183,339.99112,77,64,0
339.99112,340.1103,76,68,0
339.99112,340.1103,88,81,0
339.99112,340.1103,85,81,0
340.2396,340.35678,101,86,0
340.2396,340.35678,89,73,0
340.2396,340.35678,91,73,0
340.35678,340.47397,98,75,0
340.47397,340.59116,95,76,0
340.59116,340.70834,91,73,0
340.70834,340.82553,89,86,0
340.82553,340.94272,86,72,0
340.94272,341.0599,83,76,0
341.0599,341.18546,79,69,0
341.18546,341.3022,89,86,0
341.3022,341.4189,86,75,0
341.4189,341.53564,83,76,0
341.53564,341.65237,79,73,0
341.65237,341.7691,77,86,0
341.7691,341.88583,74,72,0
341.88583,342.00256,71,76,0
342.00256,342.12808,67,63,0
342.12808,342.2448,77,79,0
342.2448,342.36154,74,64,0
342.36154,342.47827,71,73,0
342.47827,342.595,67,59,0
342.595,342.71173,65,67,0
342.71173,342.8285,62,58,0
342.8285,342.94522,59,67,0
342.94522,343.07074,55,56,0
343.07074,343.18747,65,65,0
343.18747,343.3042,62,52,0
343.3042,343.42093,59,63,0
343.42093,343.53766,55,46,0
343.53766,343.6544,53,58,0
343.6544,343.77112,50,47,0
343.77112,343.88785,47,57,0
343.88785,344.03207,43,46,0
346.02487,346.9986,79,52,0
346.9986,347.4796,77,52,0
347.4796,347.97568,79,55,0
347.97568,348.71146,80,58,0
348.71146,348.95337,77,50,0
348.95337,349.4315,74,57,0
349.4315,349.92886,75,47,0
349.92886,350.41187,77,55,0
349.92886,350.41187,74,46,0
350.41187,350.89188,75,48,0
350.41187,350.89188,72,40,0
350.89188,351.37186,74,48,0
350.89188,351.37186,70,40,0
351.37186,351.86502,68,36,0
351.37186,351.86502,72,43,0
351.86502,352.60794,71,49,0
352.60794,352.84988,72,47,0
352.60794,352.84988,69,39,0
352.84988,353.33377,71,45,0
352.84988,353.33377,74,54,0
353.83432,354.56314,79,55,0
353.83432,354.56314,75,46,0
354.56314,355.29288,77,52,0
354.56314,355.29288,74,44,0
355.29288,355.78897,79,55,0
355.29288,355.78897,75,46,0
355.78897,356.5209,82,64,0
356.5209,356.76285,80,56,0
355.78897,356.76285,75,54,0
356.76285,357.21945,77,62,0
356.76285,357.21945,74,52,0
357.24396,357.7423,80,55,0
357.24396,357.7423,77,46,0
357.7423,358.21143,75,52,0
357.7423,358.21143,79,62,0
358.2361,358.69214,72,40,0
358.2361,358.69214,75,48,0
358.71613,359.17,74,48,0
358.71613,359.17,77,57,0
359.1945,359.68765,71,41,0
359.1945,359.68765,74,49,0
359.68765,359.9248,72,40,0
359.9248,360.17172,67,35,0
360.17172,360.4127,72,40,0
360.4127,360.66586,67,36,0
359.68765,360.66586,75,49,0
360.66586,360.9068,68,40,0
360.9068,361.14777,65,34,0
361.14777,361.38873,68,40,0
361.38873,361.6419,65,33,0
360.66586,361.6419,73,49,0
361.6419,361.88287,67,40,0
361.88287,362.12384,59,32,0
362.12384,362.3648,67,40,0
362.3648,362.61584,59,35,0
361.6419,362.61584,71,49,0
362.61584,362.8568,67,40,0
362.8568,363.10892,59,36,0
363.10892,363.6131,55,40,0
363.6131,363.9413,72,40,0
363.94232,364.27155,67,35,0
364.27155,364.62088,72,40,0
363.6131,364.62088,75,49,0
364.62088,364.96027,68,40,0
364.9613,365.30176,65,34,0
365.30176,365.66373,68,40,0
364.62088,365.66373,73,49,0
365.66373,366.0182,67,40,0
366.0193,366.37485,59,32,0
366.37485,366.75946,67,40,0
365.66373,366.75946,71,49,0
366.75946,367.0285,55,40,0
367.8357,368.0357,70,62,0
367.8357,368.0357,82,73,0
367.8357,368.0357,75,62,0
368.05792,368.48013,75,59,0
368.05792,368.48013,82,70,0
368.05792,368.48013,70,59,0
368.50235,368.92166,82,68,0
368.50235,368.92166,70,58,0
368.50235,368.92166,75,58,0
368.94357,369.35962,74,62,0
368.94357,369.35962,80,73,0
368.94357,369.35962,82,73,0
368.94357,369.35962,70,62,0
369.38153,369.82135,75,58,0
369.38153,369.82135,70,58,0
369.38153,369.82135,82,69,0
369.38153,369.82135,79,69,0
369.84375,370.2647,74,58,0
369.84375,370.2647,70,58,0
369.84375,370.2647,77,58,0
369.84375,370.2647,82,69,0
370.2866,370.70267,82,67,0
370.2866,370.70267,74,56,0
370.2866,370.70267,70,56,0
370.2866,370.70267,80,67,0
370.72455,371.14062,80,75,0
370.72455,371.14062,77,63,0
370.72455,371.14062,70,63,0
370.72455,371.14062,82,75,0
371.1625,371.59937,70,56,0
371.1625,371.59937,79,66,0
371.1625,371.59937,75,56,0
371.1625,371.59937,82,66,0
371.62173,372.0427,86,86,0
371.62173,372.0427,80,86,0
371.62173,372.0427,74,73,0
371.62173,372.0427,82,86,0
372.0646,372.48065,79,72,0
372.0646,372.48065,75,72,0
372.0646,372.48065,82,72,0
372.0646,372.48065,87,86,0
372.50256,372.9186,82,77,0
372.50256,372.9186,80,77,0
372.50256,372.9186,77,77,0
372.50256,372.9186,89,91,0
372.94052,373.1749,91,95,0
372.94052,373.1749,79,80,0
372.94052,373.1749,87,95,0
373.1749,373.37714,86,85,0
373.1749,373.37714,89,100,0
373.1749,373.37714,92,100,0
373.1749,373.37714,80,85,0
373.3996,373.81998,86,81,0
373.3996,373.81998,80,81,0
373.3996,373.81998,92,95,0
373.3996,373.81998,89,95,0
373.8417,374.25476,86,80,0
373.8417,374.25476,80,80,0
373.8417,374.25476,89,95,0
373.8417,374.25476,92,95,0
374.2765,374.68954,89,98,0
374.2765,374.68954,86,83,0
374.2765,374.68954,80,83,0
374.2765,374.68954,92,98,0
374.71127,374.89005,89,100,0
374.71127,374.89005,86,85,0
374.71127,374.89005,81,85,0
374.71127,374.89005,93,100,0
374.94962,375.81677,89,92,0
374.94962,375.81677,94,112,0
374.94962,375.81677,86,92,0
374.94962,375.81677,82,92,0
375.83524,376.27002,80,80,0
375.83524,376.27002,89,80,0
375.83524,376.27002,92,95,0
375.83524,376.27002,86,80,0
376.27002,376.72574,86,85,0
376.27002,376.72574,89,85,0
376.27002,376.72574,94,101,0
376.27002,376.72574,82,85,0
376.72574,377.37018,92,90,0
376.72574,377.38837,87,90,0
376.72574,377.38837,83,90,0
376.72574,377.38837,95,108,0
377.38837,377.60654,92,96,0
377.38837,377.60654,80,81,0
377.60654,378.0429,87,104,0
377.60654,378.0429,75,88,0
378.0429,378.4729,92,83,0
378.0429,378.4729,87,83,0
378.0429,378.4729,83,83,0
378.0429,378.4729,95,98,0
378.49646,379.37878,92,92,0
378.49646,379.37878,84,92,0
378.49646,379.37878,96,112,0
378.50287,379.3852,87,92,0
379.37878,379.3852,87,80,0
379.37878,379.79486,94,95,0
379.37878,379.79486,82,80,0
379.81674,380.25024,96,101,0
379.81674,380.25024,87,85,0
379.81674,380.25024,92,85,0
379.81674,380.25024,84,85,0
380.27408,380.92383,92,90,0
380.27408,380.94208,97,108,0
380.27408,380.94208,85,90,0
380.94208,381.16107,80,81,0
380.94208,381.16107,92,96,0
381.16107,381.59903,89,104,0
381.16107,381.59903,77,88,0
381.59903,382.02255,85,83,0
381.59903,382.02255,92,83,0
381.59903,382.02255,97,98,0
382.04526,382.92157,98,104,0
382.04526,382.92157,95,88,0
382.04526,382.92157,86,88,0
382.04526,382.92157,92,88,0
382.92157,383.33017,84,89,0
382.92157,383.33017,92,89,0
382.92157,383.33017,95,89,0
382.92157,383.33017,96,105,0
383.35168,383.80145,98,109,0
383.35168,383.80145,95,92,0
383.35168,383.80145,92,92,0
383.35168,383.80145,86,92,0
383.82614,383.93732,96,97,0
383.82614,383.93732,93,97,0
383.82614,383.93732,89,97,0
383.82614,383.93732,101,115,0
384.04852,384.1547,87,82,0
384.04852,384.1547,99,97,0
384.26086,384.36545,84,82,0
384.26086,384.36545,96,97,0
384.47006,384.57468,81,83,0
384.47006,384.57468,93,98,0
384.67926,384.78387,78,106,0
384.67926,384.78387,90,106,0
384.8885,384.99307,87,92,0
384.8885,384.99307,75,78,0
385.0977,385.20227,72,79,0
385.0977,385.20227,84,93,0
385.3069,385.4155,69,79,0
385.3069,385.4155,81,93,0
385.52414,385.62872,78,91,0
385.52414,385.62872,66,77,0
385.73334,385.83795,75,83,0
385.73334,385.83795,63,70,0
385.94254,386.04715,60,70,0
385.94254,386.04715,72,83,0
386.15176,386.25635,57,61,0
386.15176,386.25635,69,72,0
386.36096,386.46555,66,80,0
386.36096,386.46555,54,68,0
386.57016,386.67477,51,67,0
386.57016,386.67477,63,79,0
386.77936,386.88596,48,65,0
386.77936,386.88596,60,77,0
386.99252,387.10327,54,75,0
386.99252,387.10327,42,63,0
387.21405,387.4097,55,68,0
387.21405,387.6487,60,81,0
387.8588,388.0671,63,58,0
387.21405,388.0671,48,68,0
387.43555,388.0671,55,60,0
387.65045,388.0671,60,65,0
388.0671,388.27545,66,62,0
388.27545,388.4838,67,64,0
388.4838,388.6921,72,67,0
388.6921,388.9104,75,69,0
388.9104,389.11948,78,72,0
389.11948,389.32852,79,65,0
389.54578,389.75052,87,96,0
389.54578,389.75052,79,81,0
389.54578,389.75052,75,81,0
389.77396,390.18918,75,85,0
389.77396,390.18918,87,101,0
389.77396,390.18918,79,85,0
390.18918,390.293,86,95,0
390.18918,390.293,74,80,0
390.18918,390.293,77,80,0
390.3968,390.5006,75,80,0
390.3968,390.5006,72,80,0
390.3968,390.5006,84,95,0
390.82593,391.04163,67,69,0
391.04163,391.25067,73,74,0
391.25067,391.45975,76,66,0
391.45975,391.6688,78,71,0
391.6688,391.87784,79,73,0
391.87784,392.0869,84,77,0
392.0869,392.30545,88,79,0
392.30545,392.51306,90,82,0
392.51306,392.72067,91,74,0
392.94217,393.15012,76,81,0
392.94217,393.15012,88,96,0
392.94217,393.15012,79,81,0
393.1744,393.59253,76,85,0
393.1744,393.59253,88,101,0
393.1744,393.59253,79,85,0
393.59253,393.69705,77,80,0
393.59253,393.69705,86,95,0
393.59253,393.69705,74,80,0
393.80157,393.9061,73,80,0
393.80157,393.9061,85,95,0
393.80157,393.9061,76,80,0
394.23215,394.44193,65,62,0
394.44193,394.65173,68,62,0
394.65173,394.84055,89,96,0
394.65173,394.84055,80,81,0
394.65173,394.84055,77,81,0
394.8615,395.2811,77,85,0
394.8615,395.2811,80,85,0
394.8615,395.2811,89,101,0
395.2811,395.386,79,80,0
395.2811,395.386,88,95,0
395.2811,395.386,76,80,0
395.49088,395.59802,77,80,0
395.49088,395.59802,74,80,0
395.49088,395.59802,86,95,0
395.70966,396.1461,92,96,0
395.70966,396.1461,84,81,0
395.70966,396.1461,89,81,0
395.70966,396.1461,96,96,0
396.1461,396.25107,79,77,0
396.1461,396.25107,87,77,0
396.1461,396.25107,91,91,0
396.35605,396.46106,89,91,0
396.35605,396.46106,77,77,0
396.35605,396.46106,86,77,0
396.56604,396.965,101,96,0
396.56604,396.965,96,81,0
396.56604,396.965,92,81,0
396.56604,396.965,89,81,0
396.986,397.091,84,77,0
396.986,397.091,89,77,0
396.986,397.091,92,77,0
396.986,397.091,96,91,0
397.19598,397.3032,92,77,0
397.19598,397.3032,95,91,0
397.19598,397.3032,89,77,0
397.19598,397.3032,83,77,0
397.41483,397.83282,92,74,0
397.41483,397.83282,89,74,0
397.41483,397.83282,96,74,0
397.41483,397.83282,101,88,0
397.85446,398.06424,99,83,0
397.85446,398.06424,87,83,0
397.85446,398.06424,96,83,0
398.06424,398.27405,86,70,0
398.06424,398.27405,95,83,0
398.06424,398.27405,98,83,0
398.27405,398.48383,96,83,0
398.27405,398.48383,93,83,0
398.27405,398.48383,84,70,0
398.48383,398.6936,83,70,0
398.48383,398.6936,95,83,0
398.48383,398.6936,91,83,0
398.6936,398.9034,89,83,0
398.6936,398.9034,93,83,0
398.6936,398.9034,81,70,0
398.9034,399.12216,92,83,0
398.9034,399.12216,80,70,0
398.9034,399.12216,89,83,0
399.12216,399.33295,90,91,0
399.12216,399.33295,78,77,0
399.33295,399.5536,79,73,0
399.33295,399.5536,91,86,0
399.77423,399.97522,86,80,0
399.77423,399.97522,83,80,0
399.77423,399.97522,80,80,0
399.77423,399.97522,92,95,0
399.9858,400.40536,86,90,0
399.9858,400.40536,83,90,0
399.9858,400.40536,80,90,0
399.9858,400.40536,92,106,0
400.40536,400.51028,91,87,0
400.40536,400.51028,79,73,0
400.61517,400.7255,89,83,0
400.61517,400.7255,77,70,0
400.83582,401.04657,78,91,0
400.83582,401.04657,66,77,0
401.04657,401.26724,79,86,0
401.04657,401.26724,67,73,0
401.48788,401.68887,83,80,0
401.48788,401.68887,86,80,0
401.48788,401.68887,92,95,0
401.48788,401.68887,80,80,0
401.69943,402.11755,83,90,0
401.69943,402.11755,80,90,0
401.69943,402.11755,92,106,0
401.69943,402.11755,86,90,0
402.11755,402.22208,91,87,0
402.11755,402.22208,79,73,0
402.32663,402.43695,77,70,0
402.32663,402.43695,89,83,0
402.54727,402.75803,68,77,0
402.54727,402.75803,80,91,0
402.75803,402.9787,70,73,0
402.75803,402.9787,82,86,0
403.19934,403.4003,95,95,0
403.19934,403.4003,83,80,0
403.19934,403.4003,90,80,0
403.4109,403.83344,83,90,0
403.4109,403.83344,95,106,0
403.4109,403.83344,90,90,0
403.83344,403.93906,78,73,0
403.83344,403.93906,90,87,0
404.04468,404.15503,86,83,0
404.04468,404.15503,74,70,0
404.26535,404.4761,83,91,0
404.26535,404.4761,71,77,0
404.4761,404.69675,85,86,0
404.4761,404.69675,73,73,0
404.91742,405.11838,86,92,0
404.91742,405.11838,98,109,0
404.91742,405.11838,90,92,0
405.12897,405.55206,90,103,0
405.12897,405.55206,98,121,0
405.12897,405.55206,86,103,0
405.55206,405.65784,83,83,0
405.55206,405.65784,95,100,0
405.7636,405.88126,78,80,0
405.7636,405.88126,90,95,0
405.9989,406.43686,100,109,0
405.9989,406.43686,95,109,0
405.9989,406.43686,88,92,0
405.9989,406.43686,91,92,0
406.8814,407.31937,95,109,0
406.8814,407.31937,91,92,0
406.8814,407.31937,86,92,0
406.8814,407.31937,98,109,0
407.76733,408.21344,97,109,0
407.76733,408.21344,95,109,0
407.76733,408.21344,91,92,0
407.76733,408.21344,85,92,0
408.67844,409.13297,90,109,0
408.67844,409.13297,94,109,0
408.67844,409.13297,85,92,0
408.67844,409.13297,82,92,0
410.0374,410.17792,50,80,0
410.17792,410.31845,59,71,0
410.31845,410.45895,66,71,0
410.45895,410.6697,66,81,0
410.6697,410.88046,78,73,0
410.88046,411.09125,70,79,0
411.09125,411.31033,71,74,0
411.7426,411.88312,54,80,0
411.88312,412.02362,59,71,0
412.02362,412.16415,66,71,0
412.16415,412.3749,66,81,0
412.3749,412.58566,78,73,0
412.58566,412.79642,73,79,0
412.79642,413.01553,74,74,0
413.45642,413.59827,71,80,0
413.59827,413.72238,83,75,0
413.7401,413.88196,83,75,0
413.88196,414.0238,95,80,0
414.0238,414.16565,94,76,0
414.16565,414.3075,97,76,0
414.3075,414.44934,95,80,0
414.44934,414.5912,91,75,0
414.5912,414.74622,88,74,0
414.74622,414.88907,82,80,0
414.88907,415.03192,85,75,0
415.03192,415.1748,82,76,0
415.1748,415.28192,69,80,0
415.1748,415.31766,79,80,0
415.31766,415.464,82,76,0
415.38907,415.50143,70,75,0
415.464,415.59506,79,80,0
415.6138,415.75565,79,86,0
415.75565,415.8975,82,77,0
415.8975,416.03934,79,77,0
415.6138,416.03934,70,86,0
416.03934,416.14572,71,80,0
416.03934,416.18118,76,80,0
416.18118,416.3259,79,76,0
416.2521,416.3628,73,76,0
416.3259,416.4735,76,80,0
416.4735,417.3273,66,79,0
416.4735,417.3273,62,79,0
416.4735,417.3273,74,93,0
417.3273,417.9596,69,75,0
417.3273,417.9596,76,90,0
417.3273,417.9596,64,75,0
417.9596,418.15637,78,72,0
417.9596,418.15637,66,59,0
417.9596,418.15637,69,59,0
418.17868,419.0325,78,93,0
418.17868,419.0325,69,79,0
418.17868,419.0325,66,79,0
419.0325,419.64722,74,75,0
419.0325,419.6648,79,90,0
419.0325,419.6648,67,75,0
419.6648,419.88388,81,72,0
419.6648,419.88388,69,59,0
419.6648,419.88388,74,59,0
419.88388,420.32477,73,79,0
419.88388,420.32477,85,93,0
420.53754,420.72903,86,86,0
420.53754,420.72903,74,73,0
420.7503,421.1707,74,79,0
420.7503,421.1707,86,93,0
421.1707,421.2745,88,89,0
421.1707,421.2745,76,75,0
421.3783,421.48627,77,72,0
421.3783,421.48627,89,85,0
420.7503,421.60254,83,79,0
421.60254,422.0311,89,93,0
421.60254,422.0311,77,79,0
421.60254,422.0311,86,79,0
422.0311,422.13748,79,75,0
422.0311,422.13748,91,89,0
422.0311,422.13748,87,75,0
422.24387,422.35355,89,72,0
422.24387,422.35355,80,72,0
422.24387,422.35355,92,85,0
422.46982,422.84482,92,93,0
422.46982,422.84482,80,79,0
422.46982,422.84482,89,79,0
422.89835,423.32388,97,92,0
422.85822,423.32388,85,81,0
422.8716,423.32388,89,85,0
422.88498,423.32388,92,88,0
423.75616,423.89667,57,80,0
423.89667,424.03717,66,71,0
424.03717,424.16013,73,71,0
424.1777,424.38846,73,81,0
424.38846,424.5992,85,73,0
424.5992,424.80997,77,79,0
424.80997,425.02908,78,74,0
425.46136,425.60187,61,80,0
425.60187,425.74237,66,71,0
425.74237,425.86533,73,71,0
425.88287,426.09366,73,81,0
426.09366,426.3044,85,73,0
426.3044,426.51517,80,79,0
426.51517,426.73428,81,74,0
427.17517,427.31702,66,80,0
427.31702,427.44113,78,75,0
427.45886,427.6007,78,75,0
427.6007,427.74255,90,80,0
427.74255,427.8844,89,76,0
427.8844,428.02625,91,76,0
428.02625,428.1681,90,80,0
428.1681,428.30994,84,75,0
428.30994,428.46497,81,74,0
428.46497,428.60782,78,80,0
428.60782,428.75067,81,75,0
428.75067,428.89352,78,76,0
428.89352,429.03638,79,80,0
428.89352,429.03638,71,68,0
429.03638,429.18274,83,76,0
429.18274,429.3138,81,68,0
429.18274,429.3138,72,68,0
429.18274,429.33255,84,80,0
429.33255,429.4744,81,86,0
429.33255,429.4744,72,73,0
429.4744,429.6162,84,80,0
429.6162,429.75806,81,83,0
429.6162,429.75806,72,70,0
429.75806,429.8999,74,76,0
429.75806,429.8999,83,89,0
429.8999,430.04465,86,88,0
430.04465,430.19165,87,96,0
430.04465,430.19165,84,81,0
430.04465,430.19165,75,81,0
431.03986,431.4639,81,76,0
431.03986,431.4639,72,76,0
431.03986,431.4639,84,90,0
431.4639,431.5714,83,73,0
431.4639,431.5714,74,73,0
431.4639,431.5714,86,87,0
431.67896,431.7909,84,67,0
431.67896,431.7909,75,67,0
431.67896,431.7909,87,79,0
432.74448,433.1685,81,76,0
432.74448,433.1685,72,76,0
432.74448,433.1685,84,90,0
433.1685,433.27603,74,73,0
433.1685,433.27603,86,87,0
433.1685,433.27603,83,73,0
433.38354,433.49548,75,67,0
433.38354,433.49548,87,79,0
433.38354,433.49548,84,67,0
435.32486,435.77094,76,42,0
435.32486,435.77094,84,42,0
435.32486,435.77094,88,50,0
435.77094,435.92996,83,38,0
435.77094,435.92996,74,38,0
435.77094,435.92996,86,45,0
435.98294,436.15088,72,38,0
435.98294,436.15088,84,45,0
435.98294,436.15088,81,38,0
436.20685,436.64163,81,42,0
436.20685,436.64163,72,42,0
436.20685,436.64163,84,50,0
436.64163,436.80008,79,38,0
436.64163,436.80008,83,45,0
436.64163,436.80008,71,38,0
436.85287,437.01956,69,38,0
436.85287,437.01956,78,38,0
436.85287,437.01956,81,45,0
437.0751,437.5212,81,50,0
437.0751,437.5212,69,42,0
437.0751,437.5212,78,42,0
437.5212,437.6802,83,45,0
437.5212,437.6802,79,38,0
437.73322,437.90112,84,45,0
437.73322,437.90112,81,38,0
437.9571,438.39188,81,42,0
437.9571,438.39188,84,50,0
438.39188,438.55032,83,38,0
438.39188,438.55032,86,45,0
438.60315,438.7698,84,38,0
438.60315,438.7698,88,45,0
438.82538,439.27148,91,62,0
438.82538,439.27148,88,49,0
439.27148,439.43048,86,41,0
439.27148,439.43048,90,49,0
439.4835,439.6514,88,49,0
439.4835,439.6514,84,41,0
439.70737,440.14215,84,46,0
439.70737,440.14215,88,55,0
440.14215,440.29895,83,41,0
440.14215,440.29895,86,49,0
440.3512,440.51788,81,41,0
440.3512,440.51788,84,49,0
440.57343,441.01953,81,42,0
440.57343,441.01953,84,50,0
441.01953,441.18024,86,45,0
441.01953,441.18024,83,38,0
441.23383,441.40173,88,45,0
441.23383,441.40173,84,38,0
441.4577,441.8925,88,50,0
441.4577,441.8925,84,42,0
441.8925,442.05093,90,49,0
441.8925,442.05093,86,41,0
442.10373,442.27042,88,41,0
442.10373,442.27042,91,49,0
442.32596,442.77206,95,68,0
442.32596,442.77206,91,53,0
442.77206,442.9305,90,45,0
442.77206,442.9305,93,53,0
442.98334,443.15125,88,45,0
442.98334,443.15125,91,53,0
443.2072,443.642,91,60,0
443.2072,443.642,88,50,0
443.642,443.7988,86,45,0
443.642,443.7988,90,53,0
443.85104,444.01773,88,53,0
443.85104,444.01773,84,45,0
444.07327,444.51938,88,50,0
444.07327,444.51938,84,42,0
444.51938,444.67896,86,38,0
444.51938,444.67896,90,45,0
444.73215,444.90005,88,38,0
444.73215,444.90005,91,45,0
444.95602,445.3908,91,50,0
444.95602,445.3908,88,42,0
445.3908,445.54926,90,41,0
445.3908,445.54926,93,49,0
445.60208,445.76874,91,41,0
445.60208,445.76874,95,49,0
445.82428,446.24808,84,53,0
445.82428,446.24808,83,53,0
445.82428,446.24808,95,68,0
445.82428,446.24808,91,53,0
446.2704,446.42883,81,45,0
446.2704,446.42883,93,53,0
446.2704,446.42883,84,45,0
446.48166,446.64957,79,45,0
446.48166,446.64957,84,45,0
446.48166,446.64957,91,53,0
447.55377,447.97754,76,53,0
447.55377,447.97754,71,53,0
447.55377,447.97754,79,68,0
447.55377,447.97754,72,53,0
447.99985,448.1583,72,40,0
447.99985,448.1583,78,47,0
447.99985,448.1583,69,40,0
448.21112,448.37903,72,40,0
448.21112,448.37903,69,40,0
448.21112,448.37903,76,47,0
448.21112,448.37903,67,40,0
449.28323,449.70703,84,53,0
449.28323,449.70703,95,68,0
449.28323,449.70703,83,53,0
449.28323,449.70703,91,53,0
449.72934,449.88834,84,45,0
449.72934,449.88834,81,45,0
449.72934,449.88834,93,53,0
449.94135,450.10925,79,45,0
449.94135,450.10925,91,53,0
449.94135,450.10925,84,45,0
451.01346,451.43723,76,53,0
451.01346,451.43723,79,68,0
451.01346,451.43723,72,53,0
451.01346,451.43723,71,53,0
451.45953,451.61743,72,40,0
451.45953,451.61743,78,47,0
451.45953,451.61743,69,40,0
451.67007,451.83798,72,40,0
451.67007,451.83798,69,40,0
451.67007,451.83798,67,40,0
451.67007,451.83798,76,47,0
452.7422,453.16595,93,53,0
452.7422,453.16595,96,53,0
452.7422,453.16595,100,68,0
452.7422,453.16595,91,53,0
453.18826,453.349,91,45,0
453.18826,453.349,93,45,0
453.18826,453.349,96,53,0
453.40256,453.57047,93,53,0
453.40256,453.57047,91,45,0
453.40256,453.57047,88,45,0
453.62643,454.05023,84,53,0
453.62643,454.05023,88,53,0
453.62643,454.05023,91,68,0
454.07254,454.23325,81,45,0
454.07254,454.23325,84,45,0
454.07254,454.23325,88,53,0
454.28683,454.45474,84,53,0
454.28683,454.45474,81,45,0
454.28683,454.45474,79,45,0
454.5107,454.9345,76,53,0
454.5107,454.9345,79,53,0
454.5107,454.9345,81,68,0
454.9568,455.11752,76,45,0
454.9568,455.11752,72,45,0
454.9568,455.11752,79,53,0
455.17108,455.339,69,45,0
455.17108,455.339,76,53,0
455.17108,455.339,72,45,0
455.39496,455.81876,67,53,0
455.39496,455.81876,69,53,0
455.39496,455.81876,72,68,0
455.84106,456.00177,67,45,0
455.84106,456.00177,64,45,0
455.84106,456.00177,69,53,0
456.05536,456.22327,60,45,0
456.05536,456.22327,67,53,0
456.05536,456.22327,64,45,0
456.27924,458.00766,55,53,0
456.27924,458.87256,64,53,0
458.87256,459.7784,62,49,0
458.00766,459.7784,54,53,0
456.27924,459.7784,57,53,0
456.27924,459.7784,60,53,0
459.7784,460.6382,71,55,0
460.6382,461.27652,72,54,0
461.27652,461.48264,74,43,0
461.50552,462.36536,79,59,0
461.50552,462.36536,74,47,0
462.36536,462.79086,73,45,0
462.36536,463.00363,81,58,0
463.00363,463.2059,83,43,0
463.00363,463.2059,76,35,0
463.22836,464.08887,83,62,0
463.22836,464.08887,79,47,0
464.08887,464.5144,78,43,0
464.08887,464.5144,81,51,0
464.72717,464.9782,84,51,0
464.72717,464.9782,72,35,0
464.9782,465.83875,88,64,0
464.9782,465.83875,70,47,0
465.83875,466.26428,71,43,0
465.83875,466.26428,86,51,0
466.6968,467.5566,67,60,0
467.5566,468.19492,69,59,0
468.19492,468.40103,71,47,0
468.42392,469.28375,76,64,0
468.42392,469.28375,71,51,0
469.28375,469.70926,70,49,0
469.28375,469.92203,78,63,0
469.92203,470.13547,79,47,0
469.92203,470.13547,76,38,0
470.15918,471.0197,83,68,0
470.15918,471.0197,79,51,0
471.0197,471.44525,78,47,0
471.0197,471.44525,82,56,0
471.65802,471.9235,88,55,0
471.65802,471.9235,73,38,0
471.9235,472.78403,85,69,0
471.9235,472.78403,76,50,0
472.78403,473.20956,74,44,0
472.78403,473.20956,86,53,0
474.07635,474.2182,69,35,0
474.2182,474.34232,81,30,0
474.36005,474.5019,81,30,0
474.5019,474.64374,93,39,0
474.64374,474.78558,92,35,0
474.78558,474.92743,95,35,0
474.92743,475.06927,93,39,0
475.06927,475.21652,90,31,0
475.21652,475.3692,81,31,0
475.8076,475.9494,69,35,0
475.9494,476.07352,81,30,0
476.09125,476.2331,81,30,0
476.2331,476.37494,93,39,0
476.37494,476.51678,92,35,0
476.51678,476.65863,95,35,0
476.65863,476.80048,93,39,0
476.80048,476.94772,90,31,0
476.94772,477.1004,81,31,0
477.1004,477.94693,66,30,0
477.1004,477.96024,69,30,0
477.96024,478.5985,66,29,0
477.96024,478.5985,62,24,0
478.5985,478.8275,64,23,0
478.5985,478.8275,57,19,0
478.8275,479.6737,66,30,0
478.8275,479.69144,69,30,0
479.69144,480.32974,66,29,0
479.69144,480.32974,62,24,0
480.32974,480.55875,64,23,0
480.32974,480.55875,57,19,0
480.993,481.13486,69,35,0
481.13486,481.25897,81,30,0
481.2767,481.41855,81,30,0
481.41855,481.5604,93,39,0
481.5604,481.70224,92,35,0
481.70224,481.8441,95,35,0
481.8441,481.98593,93,39,0
481.98593,482.13318,90,31,0
482.13318,482.28586,81,31,0
482.72424,482.8661,69,35,0
482.8661,482.99017,81,30,0
483.0079,483.14975,81,30,0
483.14975,483.2916,93,39,0
483.2916,483.43344,92,35,0
483.43344,483.5753,95,35,0
483.5753,483.71713,93,39,0
483.71713,483.8644,88,31,0
483.8644,484.01706,81,31,0
484.45135,484.5932,73,38,0
484.5932,484.71732,85,33,0
484.73505,484.8769,85,33,0
484.8769,485.01874,95,42,0
485.01874,485.16058,94,38,0
485.16058,485.30243,97,38,0
485.30243,485.44424,95,42,0
485.44424,485.59152,91,34,0
485.59152,485.7442,88,34,0
486.17847,486.3193,73,38,0
486.3193,486.44257,85,33,0
486.46017,486.601,85,33,0
486.601,486.74185,95,42,0
486.74185,486.8827,94,38,0
486.8827,487.02353,97,38,0
487.02353,487.1644,95,42,0
487.1644,487.31116,91,34,0
487.31116,487.4638,88,34,0
487.8981,488.03845,73,38,0
488.03845,488.16125,85,33,0
488.1788,488.31915,85,33,0
488.31915,488.4595,94,42,0
488.4595,488.59985,93,38,0
488.59985,488.7402,96,38,0
488.7402,488.88055,94,42,0
488.88055,489.02707,91,34,0
489.02707,489.17975,88,34,0
489.32108,489.46243,85,45,0
489.46243,489.60376,96,45,0
489.60376,489.74512,94,51,0
489.74512,489.88644,91,42,0
489.88644,490.037,88,42,0
490.17587,490.31476,85,48,0
490.31476,490.45364,96,49,0
490.45364,490.59253,94,55,0
490.59253,490.7314,91,49,0
490.7314,490.8825,88,49,0
490.8825,491.0208,94,65,0
491.0208,491.1584,91,53,0
491.1584,491.2957,88,56,0
491.2957,491.4328,94,70,0
491.4328,491.56955,91,60,0
491.56955,491.7062,88,61,0
491.7062,491.84244,94,79,0
491.84244,491.97852,91,65,0
491.97852,492.11423,88,68,0
492.11423,492.24994,94,86,0
492.24994,492.38565,91,72,0
492.38565,492.52542,88,74,0
492.52542,492.66934,94,91,0
492.52542,492.66934,82,77,0
492.66934,492.81607,91,79,0
492.81607,492.96573,88,80,0
492.96573,493.11746,94,94,0
492.96573,493.11746,82,80,0
493.11746,493.27216,91,82,0
493.27216,493.43008,88,83,0
493.43008,493.5935,94,97,0
493.43008,493.5935,82,82,0
493.5935,493.76016,91,86,0
493.76016,493.92822,88,86,0
493.92822,494.1006,94,101,0
493.92822,494.1006,82,85,0
494.1006,494.27835,91,88,0
494.27835,494.46152,88,89,0
494.46152,495.2143,94,110,0
494.46152,495.2143,82,91,0
494.46152,495.2143,88,91,0
494.46152,495.2143,91,91,0
495.2143,495.40692,60,70,0
495.2143,495.40692,58,70,0
495.2143,495.40692,64,84,0
495.2143,495.40692,52,70,0
495.42834,495.9037,60,74,0
495.42834,495.9037,58,74,0
495.42834,495.9037,52,74,0
495.42834,495.9037,64,89,0
495.9037,496.0154,60,72,0
495.9037,496.0154,53,72,0
495.9037,496.0154,65,85,0
496.12714,496.24908,67,90,0
496.12714,496.24908,60,75,0
496.12714,496.24908,55,75,0
496.37103,496.48477,57,73,0
496.37103,496.48477,60,79,0
496.37103,496.48477,69,93,0
496.82596,496.9397,67,89,0
496.82596,496.9397,55,69,0
496.82596,496.9397,60,74,0
497.9633,498.168,64,84,0
497.9633,498.168,58,70,0
497.9633,498.168,60,70,0
497.9633,498.168,52,70,0
498.19073,498.64566,60,78,0
498.19073,498.64566,58,78,0
498.19073,498.64566,64,92,0
498.19073,498.64566,52,78,0
498.64566,498.7531,53,78,0
498.64566,498.7531,60,78,0
498.64566,498.7531,65,92,0
498.86053,498.9804,67,96,0
498.86053,498.9804,55,81,0
498.86053,498.9804,60,81,0
499.10028,499.54364,69,100,0
499.10028,499.54364,57,84,0
499.10028,499.54364,60,84,0
499.54364,499.64984,60,81,0
499.54364,499.64984,67,97,0
499.54364,499.64984,55,81,0
499.75604,499.87488,69,100,0
499.75604,499.87488,57,84,0
499.75604,499.87488,60,84,0
499.9937,500.10635,60,86,0
499.9937,500.10635,70,102,0
499.9937,500.10635,58,86,0
500.4442,500.55682,60,81,0
500.4442,500.55682,69,97,0
500.4442,500.55682,57,81,0
501.34518,501.4569,55,60,0
501.34518,501.4569,60,60,0
501.34518,501.4569,67,71,0
501.56863,501.69058,69,75,0
501.56863,501.69058,57,63,0
501.56863,501.69058,60,63,0
501.81253,501.9238,65,66,0
501.81253,501.9238,67,66,0
501.81253,501.9238,59,66,0
501.81253,501.9238,71,78,0
502.25766,502.37122,72,80,0
502.25766,502.37122,67,68,0
502.25766,502.37122,60,68,0
502.25766,502.37122,64,68,0
502.71182,502.82355,62,69,0
502.71182,502.82355,67,69,0
502.71182,502.82355,74,82,0
503.15872,503.27274,67,71,0
503.15872,503.27274,76,84,0
503.15872,503.27274,64,71,0
503.6153,503.69315,78,78,0
503.69315,503.7702,79,73,0
503.7702,503.84647,78,80,0
503.84647,503.92194,79,75,0
503.92194,503.99667,78,82,0
503.99667,504.07043,79,78,0
504.07043,504.1442,78,84,0
504.1442,504.2182,79,81,0
504.2182,504.29248,78,86,0
504.29248,504.34836,79,84,0
504.34836,504.40442,78,89,0
504.40442,504.46057,76,84,0
504.46057,504.51688,78,85,0
503.6153,504.51688,72,72,0
503.6153,504.51688,74,72,0
504.51688,504.95416,79,93,0
504.51688,504.95416,71,79,0
504.95416,505.05725,74,83,0
505.16034,505.26788,78,75,0
505.3754,505.48178,79,83,0
505.80093,505.90402,62,66,0
506.0071,506.11542,66,60,0
506.22372,506.33368,67,66,0
506.6636,506.77063,50,69,0
506.87766,506.99353,54,61,0
507.10944,507.22162,55,65,0
507.22162,507.33377,59,65,0
507.33377,507.44595,60,66,0
507.44595,507.55814,62,67,0
507.55814,507.6703,64,68,0
507.6703,507.78247,66,69,0
507.78247,507.89465,67,70,0
507.89465,508.00696,69,71,0
508.00696,508.11942,71,71,0
508.11942,508.23145,74,72,0
508.23145,508.34296,76,75,0
508.34296,508.45404,78,78,0
508.45404,508.56464,79,81,0
508.56464,508.67477,83,83,0
508.67477,508.78442,84,86,0
508.78442,508.89362,86,89,0
508.98773,509.6464,87,101,0
508.98773,509.6464,84,84,0
508.98773,509.6464,79,84,0
508.98773,509.6464,75,84,0
509.6464,509.83902,51,73,0
509.6464,509.83902,60,73,0
509.6464,509.83902,63,88,0
509.86044,510.3358,63,93,0
509.86044,510.3358,60,78,0
509.86044,510.3358,51,78,0
510.3358,510.4475,65,89,0
510.3358,510.4475,60,75,0
510.3358,510.4475,53,75,0
510.55923,510.68118,60,79,0
510.55923,510.68118,67,94,0
510.55923,510.68118,55,79,0
510.80313,510.92032,56,82,0
510.80313,510.92032,60,82,0
510.80313,510.92032,68,97,0
511.27188,511.38553,68,93,0
511.27188,511.38553,60,78,0
511.27188,511.38553,56,78,0
512.18097,512.2946,80,97,0
512.18097,512.2946,68,82,0
512.761,513.41504,89,101,0
512.761,513.41504,77,84,0
512.761,513.41504,80,84,0
513.3883,513.58093,65,88,0
513.3883,513.58093,61,73,0
513.3883,513.58093,53,73,0
513.60236,514.0777,65,93,0
513.60236,514.0777,61,78,0
513.60236,514.0777,53,78,0
514.0777,514.1894,66,89,0
514.0777,514.1894,61,75,0
514.0777,514.1894,54,75,0
514.30115,514.4231,61,79,0
514.30115,514.4231,68,94,0
514.30115,514.4231,56,79,0
514.54504,514.66364,57,73,0
514.54504,514.66364,66,82,0
514.54504,514.66364,69,97,0
515.01935,515.13385,69,93,0
515.01935,515.13385,66,78,0
515.01935,515.13385,57,70,0
515.93536,516.04913,81,97,0
515.93536,516.04913,69,82,0
516.51575,517.1698,90,101,0
516.51575,517.1698,78,84,0
516.51575,517.1698,81,84,0
517.14307,517.3357,66,88,0
517.14307,517.3357,62,73,0
517.14307,517.3357,54,73,0
517.3571,517.83246,66,93,0
517.3571,517.83246,62,78,0
517.3571,517.83246,54,78,0
517.83246,517.9442,67,89,0
517.83246,517.9442,62,75,0
517.83246,517.9442,55,75,0
518.0559,518.17786,62,79,0
518.0559,518.17786,69,94,0
518.0559,518.17786,57,79,0
518.2998,518.4135,58,82,0
518.2998,518.4135,62,82,0
518.2998,518.4135,70,97,0
518.75476,518.86847,69,93,0
518.75476,518.86847,62,78,0
518.75476,518.86847,57,78,0
519.6646,519.7783,61,73,0
519.6646,519.7783,67,73,0
519.6646,519.7783,73,87,0
520.1195,520.235,74,93,0
520.1195,520.235,66,78,0
520.1195,520.235,62,78,0
520.9954,521.6551,81,90,0
520.9954,521.6551,72,76,0
520.7841,521.6551,69,76,0
521.6551,521.87823,79,82,0
521.87823,522.0997,78,90,0
522.743,523.3783,93,97,0
522.743,523.3783,84,82,0
522.5317,523.3783,81,76,0
523.3959,523.6158,93,89,0
523.3959,523.6158,84,89,0
523.3959,523.6158,81,89,0
523.6158,523.83655,92,97,0
523.6158,523.83655,83,97,0
523.6158,523.83655,80,97,0
524.4847,525.1393,83,90,0
524.4847,525.1393,74,76,0
524.2695,525.1393,71,76,0
525.1393,525.35803,81,82,0
525.35803,525.5772,80,90,0
525.35803,525.5772,74,72,0
525.35803,525.5772,71,72,0
526.00854,526.83545,83,86,0
526.2314,526.84155,95,105,0
526.2314,526.84155,86,95,0
526.8608,527.6752,84,86,0
527.08154,527.6812,96,105,0
527.08154,527.6812,87,95,0
527.7001,528.51544,84,86,0
527.91766,528.5215,96,105,0
527.91766,528.5215,87,95,0
528.5405,529.35455,84,86,0
528.75885,529.3606,96,105,0
528.75885,529.3606,87,95,0
529.3796,530.19696,82,86,0
529.5971,530.203,94,105,0
529.5971,530.203,86,95,0
530.2221,531.0507,81,86,0
530.4441,531.0569,93,105,0
530.4441,531.0569,87,95,0
531.0762,531.91034,79,86,0
531.29944,531.9165,88,95,0
531.29944,531.9165,82,95,0
531.29944,531.9165,91,105,0
531.936,532.1608,78,86,0
532.1608,532.36017,86,95,0
532.1608,532.36017,90,105,0
532.1608,532.36017,81,83,0
532.36017,532.5724,74,75,0
532.5724,532.6751,78,68,0
532.5724,532.6751,81,68,0
532.5724,532.6751,86,81,0
532.77783,532.99304,69,75,0
532.99304,533.0976,74,68,0
532.99304,533.0976,78,68,0
532.99304,533.0976,81,81,0
533.20215,533.4195,66,75,0
533.4195,533.5307,69,68,0
533.4195,533.5307,74,68,0
533.4195,533.5307,78,81,0
533.6419,533.8643,62,72,0
533.8643,533.9755,66,68,0
533.8643,533.9755,69,68,0
533.8643,533.9755,74,81,0
535.19904,535.67145,66,77,0
535.67145,536.8699,69,83,0
537.1234,537.66486,66,46,0
537.66486,539.29126,69,49,0
539.62274,540.2066,69,46,0
540.2066,541.2821,72,49,0
541.2821,542.06647,74,48,0
542.06647,542.32635,75,46,0
542.3555,543.41693,75,53,0
543.41693,543.9364,74,46,0
544.19617,544.4694,77,49,0
544.4694,545.5235,80,54,0
545.5235,546.3061,79,50,0
546.3061,546.6046,74,50,0
546.6046,547.66785,77,57,0
547.66785,548.1919,75,52,0
548.7159,549.7711,75,49,0
550.6002,550.89294,77,56,0
550.89294,551.427,79,65,0
549.7931,551.427,75,50,0
551.9567,553.5611,79,63,0
551.9567,553.5611,82,75,0
554.1002,555.7186,86,73,0
554.1002,555.7186,82,62,0
556.24603,558.10846,89,72,0
556.2131,558.10846,82,69,0
556.1801,558.10846,77,67,0
558.10846,558.3745,86,66,0
558.3745,559.1588,87,73,0
559.1588,559.4248,84,61,0
558.3745,559.4248,81,62,0
559.4248,560.5037,82,69,0
560.5037,561.2926,84,63,0
561.2926,561.56104,80,52,0
561.56104,562.64856,79,63,0
560.5037,562.64856,75,53,0
562.64856,563.724,74,54,0
562.64856,564.5111,80,64,0
564.5111,564.8059,79,52,0
563.724,564.8059,75,64,0
564.8059,565.61237,81,50,0
565.61237,565.88446,78,37,0
564.8059,565.88446,72,42,0
565.88446,566.9449,87,40,0
565.88446,566.9449,91,40,0
566.9449,567.4599,86,35,0
566.9449,567.4599,89,35,0
567.4599,568.0024,91,41,0
567.4599,568.0024,87,41,0
565.88446,568.0024,79,34,0
568.0024,568.7749,89,46,0
568.0024,568.79694,92,46,0
568.79694,569.0618,86,39,0
568.79694,569.0618,89,39,0
569.0618,569.57684,83,46,0
569.0618,569.57684,86,46,0
569.57684,570.1027,87,40,0
569.57684,570.1027,84,40,0
568.0024,570.1027,79,31,0
570.1027,570.65436,86,40,0
570.1027,570.65436,89,40,0
570.65436,571.17444,87,35,0
570.65436,571.17444,84,35,0
571.17444,571.68945,82,35,0
571.17444,571.68945,86,35,0
571.68945,572.23193,84,41,0
571.68945,572.23193,80,41,0
570.1027,572.23193,79,34,0
572.23193,573.026,83,46,0
573.026,573.288,81,39,0
573.026,573.288,84,39,0
572.23193,573.7795,79,38,0
573.288,573.80084,83,46,0
573.288,573.80084,86,46,0
574.3382,575.4068,87,40,0
574.3382,575.4068,91,40,0
575.4068,575.9263,86,35,0
575.4068,575.9263,89,35,0
575.9263,576.471,91,43,0
575.9263,576.471,87,43,0
573.80084,576.471,79,40,0
576.471,577.2536,94,55,0
576.471,577.2536,91,55,0
577.2536,577.49274,89,42,0
577.2536,577.51447,92,42,0
577.51447,578.0273,86,50,0
577.51447,578.0273,89,50,0
576.471,578.5354,79,34,0
578.0273,578.5582,92,44,0
578.0273,578.5582,89,44,0
578.5582,579.0627,87,44,0
578.5582,579.0627,91,44,0
579.08923,579.60974,87,37,0
579.08923,579.60974,84,37,0
579.60974,580.10425,86,36,0
579.60974,580.10425,89,36,0
578.5582,580.65173,79,37,0
580.13025,580.6755,86,42,0
580.13025,580.6755,83,42,0
580.6755,581.19006,87,46,0
580.6755,581.19006,84,40,0
581.21716,581.75885,81,39,0
581.21716,581.75885,84,39,0
581.75885,582.2643,83,46,0
581.75885,582.2643,86,46,0
580.6755,582.84467,79,25,0
582.2909,582.84467,79,40,0
583.1353,583.38324,67,24,0
583.38324,583.63324,72,39,0
583.63324,583.90906,79,24,0
584.1739,584.42755,67,24,0
584.42755,584.6745,74,38,0
584.6745,584.9405,79,24,0
585.2019,585.4566,72,24,0
585.4566,585.7046,75,41,0
585.7046,585.9706,80,24,0
586.23083,586.48346,68,24,0
586.48346,586.7314,74,38,0
586.7169,586.98303,80,24,0
587.25885,587.5136,72,32,0
587.5136,587.76465,80,40,0
587.76465,588.04047,86,32,0
588.3007,588.5554,71,32,0
588.5554,588.80646,79,41,0
588.80646,589.08105,86,34,0
589.34357,589.5983,77,35,0
589.5983,589.84937,86,47,0
589.84937,590.1252,91,38,0
590.39,590.6447,75,38,0
590.6447,590.8995,84,52,0
590.8995,591.174,91,36,0
591.72314,592.371,68,39,0
591.72314,592.371,74,47,0
591.72314,592.371,72,39,0
592.371,592.50055,75,45,0
592.50055,592.6301,74,45,0
592.6301,592.75964,72,45,0
592.75964,592.8957,74,46,0
592.8957,593.03174,75,49,0
593.03174,593.1677,77,52,0
593.1677,593.32355,79,55,0
593.32355,593.8829,82,68,0
593.8829,594.1626,80,64,0
596.07465,596.7225,68,39,0
596.07465,596.7225,74,47,0
596.07465,596.7225,71,39,0
596.7225,596.85205,75,45,0
596.85205,596.9816,74,45,0
596.9816,597.1112,73,45,0
597.1112,597.24725,74,46,0
597.24725,597.38324,75,49,0
597.38324,597.5193,77,52,0
597.5193,597.6751,79,55,0
597.6751,598.23444,82,68,0
598.23444,598.5065,80,64,0
598.77856,599.3227,87,74,0
599.3227,599.5947,85,69,0
598.77856,599.5947,77,62,0
602.0016,602.146,65,41,0
602.1329,602.2773,66,41,0
602.26416,602.4081,65,41,0
602.0016,602.522,75,41,0
602.39545,602.53467,64,41,0
602.522,602.66125,65,45,0
602.522,602.77515,73,61,0
602.64856,602.78784,68,47,0
602.77515,602.91626,71,49,0
602.90173,603.06006,73,52,0
603.047,603.5657,87,67,0
603.5657,603.81885,85,61,0
603.047,603.81885,78,67,0
604.0893,604.23303,77,51,0
604.22,604.3633,78,47,0
604.35065,604.4893,77,47,0
604.0893,604.6028,87,75,0
604.47675,604.61536,76,47,0
604.6028,604.7414,77,51,0
604.6028,604.85486,85,70,0
604.7288,604.8675,80,53,0
604.85486,604.99554,83,56,0
604.9809,605.14,85,60,0
605.1269,605.64154,99,77,0
605.1269,605.8936,89,77,0
605.64154,606.434,97,86,0
606.434,606.6932,96,75,0
606.6932,606.9523,95,77,0
606.9523,607.2114,94,73,0
607.2114,607.4706,93,69,0
607.4706,607.7297,92,63,0
607.7297,607.98883,91,70,0
607.98883,608.25684,90,69,0
608.25684,608.51666,89,70,0
608.51666,608.77484,88,60,0
608.77484,609.0312,87,64,0
609.0312,609.2858,86,67,0
609.2858,609.5395,85,71,0
609.5395,609.79315,84,60,0
609.79315,610.0468,83,67,0
610.0468,610.3143,82,54,0
610.3143,610.5718,81,60,0
610.5718,610.82996,80,54,0
610.82996,611.0905,79,59,0
611.0905,611.356,78,50,0
611.356,611.6261,77,44,0
611.6261,611.90497,76,46,0
611.90497,612.19336,75,53,0
612.19336,612.49554,74,46,0
613.03125,613.56696,75,54,0
613.56696,614.10266,78,58,0
614.10266,614.6894,84,54,0
615.2461,615.8522,80,54,0
615.8522,616.5008,79,43,0
616.5008,617.23254,71,34,0
617.23254,617.49976,80,32,0
617.49976,617.76697,72,23,0
617.76697,618.00793,80,23,0
618.00793,618.2489,72,23,0
617.23254,618.2489,84,40,0
618.2489,618.7213,79,35,0
618.2489,618.7213,82,35,0
618.7213,619.20905,84,41,0
618.7213,619.20905,80,41,0
619.20905,619.91144,85,46,0
619.20905,619.91144,82,46,0
619.9333,620.1718,79,39,0
619.9333,620.1718,82,39,0
620.1718,620.6388,79,46,0
620.1718,620.6388,76,46,0
620.6388,621.12805,77,40,0
620.6388,621.12805,80,40,0
621.12805,621.6143,82,40,0
621.12805,621.6143,79,40,0
621.6143,622.0872,77,35,0
621.6143,622.0872,80,35,0
622.0872,622.551,75,35,0
622.0872,622.551,79,35,0
622.551,623.0355,77,41,0
622.551,623.0355,73,41,0
623.0355,623.7499,76,46,0
623.0355,623.7499,72,25,0
623.7499,623.9847,74,39,0
623.7499,623.9847,77,39,0
623.9847,624.4435,76,46,0
623.9847,624.4435,79,46,0
624.4435,624.79407,84,53,0
624.4435,624.79407,72,51,0
624.9153,625.8564,85,58,0
625.8564,626.3252,80,35,0
625.8564,626.3252,83,42,0
626.3252,626.8019,85,49,0
626.3252,626.8019,81,41,0
624.9153,626.8019,73,49,0
626.8019,627.46655,86,56,0
626.8019,627.46655,83,56,0
627.4875,627.6932,80,37,0
627.4875,627.6932,83,44,0
626.8019,628.16956,73,44,0
627.716,628.18933,80,52,0
627.716,628.18933,77,44,0
628.18933,628.68463,83,39,0
628.18933,628.68463,85,47,0
628.18933,628.68463,73,39,0
628.68463,629.6285,90,72,0
628.68463,629.6285,82,72,0
629.6285,630.08575,85,51,0
629.6285,630.08575,88,62,0
630.08575,630.58514,90,68,0
630.08575,630.58514,86,57,0
628.68463,630.58514,78,72,0
630.58514,631.24725,91,85,0
630.58514,631.24725,88,77,0
631.2681,631.4958,85,57,0
631.2681,631.4958,88,68,0
631.4958,631.9618,85,81,0
631.4958,631.9618,82,68,0
630.58514,631.9618,73,52,0
631.9618,632.4473,88,70,0
631.9618,632.4473,90,87,0
631.9618,632.4473,78,70,0
632.4473,632.67316,95,68,0
632.4473,632.67316,83,57,0
632.4473,632.67316,87,57,0
632.4473,632.67316,93,68,0
632.8982,633.01074,93,66,0
632.8982,633.01074,81,56,0
633.1233,633.2358,95,68,0
633.1233,633.2358,83,58,0
633.3483,633.57245,96,71,0
633.3483,633.57245,84,60,0
633.57245,633.7966,93,66,0
633.57245,633.7966,81,55,0
633.7966,633.9087,90,68,0
633.7966,633.9087,78,58,0
634.02075,634.1399,91,63,0
634.02075,634.1399,79,53,0
634.2591,634.4878,93,73,0
634.2591,634.4878,81,61,0
634.4878,634.7165,90,68,0
634.4878,634.7165,78,56,0
634.7165,634.82855,84,70,0
634.7165,634.82855,72,59,0
634.9406,635.0527,86,64,0
634.9406,635.0527,74,54,0
635.1648,635.3889,87,74,0
635.1648,635.3889,75,63,0
635.3889,635.61304,84,70,0
635.3889,635.61304,72,58,0
635.61304,635.72516,81,71,0
635.61304,635.72516,69,60,0
635.8372,635.9549,83,66,0
635.8372,635.9549,71,56,0
636.0726,636.3022,84,76,0
636.0726,636.3022,72,64,0
636.3022,636.5318,81,70,0
636.3022,636.5318,69,58,0
636.5318,636.64343,78,73,0
636.5318,636.64343,66,62,0
636.75507,636.8667,79,66,0
636.75507,636.8667,67,56,0
636.97833,637.2016,81,78,0
636.97833,637.2016,69,65,0
637.2016,637.42487,78,72,0
637.2016,637.42487,66,60,0
637.64813,637.7653,79,75,0
637.64813,637.7653,73,63,0
637.64813,637.7653,69,63,0
637.64813,637.7653,67,63,0
638.11804,638.2358,81,75,0
638.11804,638.2358,78,64,0
638.11804,638.2358,75,64,0
638.11804,638.2358,69,64,0
638.59576,638.71686,81,82,0
638.59576,638.71686,79,69,0
638.59576,638.71686,76,69,0
638.59576,638.71686,69,69,0
639.08014,639.20123,84,89,0
639.08014,639.20123,78,75,0
639.08014,639.20123,75,75,0
639.08014,639.20123,72,75,0
639.5893,639.7228,85,95,0
639.5893,639.7228,81,81,0
639.5893,639.7228,76,81,0
639.5893,639.7228,73,81,0
639.85626,640.76624,94,105,0
639.85626,640.76624,82,89,0
639.85626,640.76624,85,89,0
639.85626,640.76624,91,89,0
640.76624,641.22125,93,93,0
640.76624,641.22125,81,79,0
640.76624,641.22125,86,79,0
640.76624,641.22125,89,79,0
641.4487,641.7253,85,90,0
641.4487,641.7253,73,80,0
641.7253,642.63525,94,105,0
641.7253,642.63525,82,89,0
641.7253,642.63525,85,89,0
641.7253,642.63525,91,89,0
642.63525,643.0902,93,93,0
642.63525,643.0902,81,79,0
642.63525,643.0902,86,79,0
642.63525,643.0902,89,79,0
643.31775,643.59424,86,90,0
643.31775,643.59424,74,80,0
643.59424,644.5042,95,105,0
643.59424,644.5042,83,89,0
643.59424,644.5042,86,89,0
643.59424,644.5042,92,89,0
644.5042,645.4142,97,105,0
644.5042,645.4142,85,89,0
644.5042,645.4142,88,89,0
644.5042,645.4142,93,89,0
645.4142,646.30396,98,105,0
645.4142,646.30396,93,89,0
645.4142,646.30396,86,89,0
646.30396,647.2105,101,105,0
646.30396,647.2105,93,89,0
646.30396,647.2105,89,89,0
647.2105,647.8828,96,100,0
647.2105,647.8828,84,83,0
647.2105,647.8828,88,83,0
647.2105,647.8828,91,83,0
647.8828,648.07544,76,73,0
647.8828,648.07544,84,73,0
647.8828,648.07544,88,87,0
648.09686,648.5642,84,77,0
648.09686,648.5642,76,77,0
648.09686,648.5642,88,92,0
648.5642,648.67426,89,88,0
648.5642,648.67426,77,75,0
648.5642,648.67426,86,75,0
648.78424,648.90247,91,93,0
648.78424,648.90247,88,78,0
648.78424,648.90247,79,78,0
649.0207,649.44806,93,97,0
649.0207,649.44806,89,82,0
649.0207,649.44806,81,82,0
649.4706,649.9204,89,77,0
649.4706,649.9204,93,92,0
649.4706,649.9204,81,77,0
649.9204,650.3878,88,77,0
649.9204,650.3878,79,77,0
649.9204,650.3878,91,92,0
650.3878,650.49786,96,88,0
650.3878,650.49786,84,75,0
650.3878,650.49786,88,75,0
650.60785,650.7324,98,93,0
650.60785,650.7324,91,78,0
650.60785,650.7324,86,78,0
650.85706,651.2929,100,97,0
650.85706,651.2929,97,82,0
650.85706,651.2929,88,82,0
651.30695,651.75684,97,77,0
651.30695,651.75684,100,92,0
651.30695,651.75684,88,77,0
651.75684,652.2242,89,77,0
651.75684,652.2242,81,77,0
651.75684,652.2242,93,92,0
652.2242,652.3342,98,88,0
652.2242,652.3342,86,75,0
652.2242,652.3342,95,75,0
652.4442,652.5683,100,93,0
652.4442,652.5683,96,78,0
652.4442,652.5683,88,78,0
652.6924,653.13983,101,97,0
652.6924,653.13983,98,82,0
652.6924,653.13983,89,82,0
653.13983,653.2498,98,88,0
653.13983,653.2498,95,75,0
653.13983,653.2498,86,75,0
653.36804,653.48627,96,93,0
653.36804,653.48627,93,78,0
653.36804,653.48627,84,78,0
653.6045,654.0719,91,77,0
653.6045,654.0719,83,77,0
653.6045,654.0719,95,92,0
654.0719,654.1819,96,88,0
654.0719,654.1819,84,75,0
654.0719,654.1819,93,75,0
654.2919,654.4101,98,93,0
654.2919,654.4101,95,78,0
654.2919,654.4101,86,78,0
654.5283,654.97577,100,97,0
654.5283,654.97577,96,82,0
654.5283,654.97577,88,82,0
654.97577,655.08575,96,88,0
654.97577,655.08575,93,75,0
654.97577,655.08575,84,75,0
655.204,655.3222,95,93,0
655.204,655.3222,91,78,0
655.204,655.3222,83,78,0
655.4404,655.90784,89,77,0
655.4404,655.90784,81,77,0
655.4404,655.90784,93,92,0
655.90784,656.0178,95,88,0
655.90784,656.0178,83,75,0
655.90784,656.0178,91,75,0
656.1278,656.2514,96,93,0
656.1278,656.2514,93,78,0
656.1278,656.2514,84,78,0
656.375,656.8224,98,97,0
656.375,656.8224,95,82,0
656.375,656.8224,86,82,0
656.8224,656.9324,95,88,0
656.8224,656.9324,91,75,0
656.8224,656.9324,83,75,0
657.0506,657.1689,93,93,0
657.0506,657.1689,89,78,0
657.0506,657.1689,81,78,0
657.2871,657.7345,91,97,0
657.2871,657.7345,88,82,0
657.2871,657.7345,79,82,0
657.7345,657.8445,89,88,0
657.7345,657.8445,86,75,0
657.7345,657.8445,77,75,0
657.9627,658.0863,88,93,0
657.9627,658.0863,84,78,0
657.9627,658.0863,76,78,0
658.2099,658.59564,87,87,0
658.2099,658.59564,81,73,0
658.2099,658.59564,75,73,0
658.2099,658.59564,78,73,0
658.2099,658.59564,84,73,0
658.6847,659.5453,84,84,0
658.6847,659.5453,78,71,0
658.6847,659.5453,72,71,0
658.6847,659.5453,75,71,0
658.6847,659.5453,81,71,0
659.6343,660.0201,81,78,0
659.6343,660.0201,75,66,0
659.6343,660.0201,69,66,0
659.6343,660.0201,72,66,0
659.6343,660.0201,78,66,0
660.1091,660.5783,79,75,0
660.1091,660.5783,74,63,0
660.1091,660.5783,67,63,0
660.1091,660.5783,71,63,0
660.1091,660.5783,77,63,0
660.5783,660.72754,67,63,0
660.72754,660.87683,79,55,0
660.87683,661.02606,77,55,0
661.02606,661.17316,82,63,0
661.02606,661.17316,79,63,0
661.17316,661.3202,89,57,0
661.3202,661.4672,88,57,0
661.4672,661.6143,70,63,0
661.4672,661.6143,67,63,0
661.6143,661.76135,77,56,0
661.76135,661.9282,76,56,0
661.9282,662.08105,69,63,0
661.9282,662.08105,65,63,0
662.08105,662.2338,76,57,0
662.2338,662.39465,74,57,0
662.39465,662.5462,81,63,0
662.39465,662.5462,77,63,0
662.5462,662.6977,88,55,0
662.6977,662.8492,86,56,0
662.8492,662.9974,84,64,0
662.8492,662.9974,81,64,0
662.9974,663.1455,91,58,0
663.1455,663.29364,90,58,0
663.29364,663.4418,72,64,0
663.29364,663.4418,69,64,0
663.4418,663.58997,79,58,0
663.58997,663.7521,78,58,0
663.7521,663.90314,72,66,0
663.7521,663.90314,67,66,0
663.90314,664.05426,81,59,0
664.05426,664.2053,79,59,0
664.2053,664.3546,84,66,0
664.2053,664.3546,79,66,0
664.3546,664.50385,93,58,0
664.50385,664.6531,91,58,0
664.6531,664.7996,86,67,0
664.6531,664.7996,84,67,0
664.7996,664.94617,95,60,0
664.94617,665.09265,93,61,0
665.09265,665.2392,74,68,0
665.09265,665.2392,72,68,0
665.2392,665.3857,83,61,0
665.3857,665.5478,81,61,0
665.5478,665.69666,74,69,0
665.5478,665.69666,72,69,0
665.69666,665.8455,83,62,0
665.8455,665.9943,81,62,0
665.9943,666.1421,86,69,0
665.9943,666.1421,84,69,0
666.1421,666.28986,95,62,0
666.28986,666.45667,93,62,0
666.45667,666.60706,95,70,0
666.45667,666.60706,89,70,0
666.60706,666.75745,100,62,0
666.75745,666.9078,98,63,0
666.9078,667.05817,83,71,0
666.9078,667.05817,77,71,0
667.05817,667.20856,88,63,0
667.20856,667.3727,86,63,0
667.3727,667.815,84,83,0
667.3727,667.815,76,69,0
667.3727,667.815,72,69,0
667.8391,668.0664,64,63,0
667.8391,668.0664,72,74,0
667.8391,668.0664,60,63,0
668.18005,668.2823,72,66,0
668.18005,668.2823,64,56,0
668.18005,668.2823,60,56,0
668.29364,668.71277,73,74,0
668.29364,668.71277,61,63,0
668.29364,668.71277,64,63,0
668.29364,668.71277,70,63,0
668.73486,669.1911,85,78,0
668.73486,669.1911,73,65,0
668.73486,669.1911,76,65,0
668.73486,669.1911,82,65,0
669.1911,669.65753,86,83,0
669.1911,669.65753,82,69,0
669.1911,669.65753,74,69,0
669.1911,669.65753,77,69,0
669.65753,669.8848,70,63,0
669.65753,669.8848,74,74,0
669.65753,669.8848,62,63,0
669.9984,670.1007,74,66,0
669.9984,670.1007,70,56,0
669.9984,670.1007,62,56,0
670.11206,670.5327,76,74,0
670.11206,670.5327,64,63,0
670.11206,670.5327,70,63,0
670.11206,670.5327,73,63,0
670.5549,671.0122,88,80,0
670.5549,671.0122,76,66,0
670.5549,671.0122,82,66,0
670.5549,671.0122,85,66,0
671.0122,671.4772,89,86,0
671.0122,671.4772,86,71,0
671.0122,671.4772,77,71,0
671.0122,671.4772,81,71,0
671.4772,671.7053,74,66,0
671.4772,671.7053,69,66,0
671.4772,671.7053,65,66,0
671.4772,671.7053,77,78,0
671.8194,671.9335,77,70,0
671.8194,671.9335,69,59,0
671.8194,671.9335,65,59,0
671.8194,671.9335,74,59,0
671.9335,672.3763,81,79,0
671.9335,672.3763,69,67,0
671.9335,672.3763,72,67,0
671.9335,672.3763,77,67,0
672.3763,673.2709,93,93,0
672.3763,673.2709,81,77,0
672.3763,673.2709,84,77,0
672.3763,673.2709,89,77,0
673.30005,674.20636,93,95,0
673.30005,674.20636,81,79,0
673.30005,674.20636,84,79,0
673.30005,674.20636,89,79,0
674.20636,675.1337,91,97,0
674.20636,675.1337,79,81,0
674.20636,675.1337,83,81,0
674.20636,675.1337,88,81,0
675.1337,676.0422,86,83,0
675.1337,676.0422,89,101,0
675.1337,676.0422,77,83,0
675.1337,676.0422,83,83,0
676.0422,676.47876,83,94,0
676.0422,676.47876,71,78,0
676.0422,676.47876,77,78,0
676.0422,676.47876,79,78,0
676.50305,676.98944,84,95,0
676.50305,676.98944,72,79,0
676.50305,676.98944,76,79,0
676.50305,676.98944,79,79,0
677.2326,677.43207,64,67,0
677.2326,677.43207,72,67,0
677.2326,677.43207,76,80,0
677.4542,677.94855,72,71,0
677.4542,677.94855,64,71,0
677.4542,677.94855,76,85,0
677.94855,678.0641,77,81,0
677.94855,678.0641,65,69,0
677.94855,678.0641,72,69,0
678.17957,678.3068,79,86,0
678.17957,678.3068,72,72,0
678.17957,678.3068,67,72,0
678.4341,678.5509,81,89,0
678.4341,678.5509,72,75,0
678.4341,678.5509,69,75,0
678.9015,679.0183,72,71,0
678.9015,679.0183,79,85,0
678.9015,679.0183,67,71,0
680.06995,680.30786,52,69,0
680.06995,680.30786,57,69,0
680.06995,680.30786,60,82,0
680.3343,681.3263,57,74,0
680.3343,681.3263,52,74,0
680.3343,681.3263,60,88,0
681.3585,681.8355,62,85,0
681.3585,681.8355,60,72,0
681.3585,681.8355,57,72,0
681.8606,682.38116,64,86,0
681.8606,682.38116,60,73,0
681.8606,682.38116,57,73,0
682.40857,683.4353,60,75,0
682.40857,683.4353,57,75,0
683.4353,684.75775,59,90,0
683.4353,684.75775,55,76,0
682.40857,684.79895,65,89,0
684.79895,687.52625,64,87,0
684.79895,687.52625,60,73,0
684.79895,687.52625,55,73,0
0.094095,0.75276,64,70,0
0.0,0.75276,48,60,0
0.031365,0.75276,55,63,0
0.06273,0.75276,60,67,0
0.75276,0.94896424,48,65,0
0.75276,0.94896424,43,55,0
0.75276,0.94896424,36,55,0
0.966801,1.442161,48,65,0
0.966801,1.442161,43,55,0
0.966801,1.442161,36,55,0
1.442161,1.5538845,50,59,0
1.442161,1.5538845,38,50,0
1.665608,1.7875593,52,65,0
1.665608,1.7875593,48,55,0
1.665608,1.7875593,40,55,0
1.9095105,2.0232418,53,67,0
1.9095105,2.0232418,48,56,0
1.9095105,2.0232418,41,56,0
2.3644354,2.4781668,52,62,0
2.3644354,2.4781668,48,52,0
2.3644354,2.4781668,40,52,0
3.501748,3.7064643,48,65,0
3.501748,3.7064643,43,55,0
3.501748,3.7064643,36,55,0
3.7292106,4.1841354,48,65,0
3.7292106,4.1841354,43,55,0
3.7292106,4.1841354,36,55,0
4.1841354,4.29157,50,59,0
4.1841354,4.29157,38,50,0
4.3990045,4.5188704,52,65,0
4.3990045,4.5188704,48,55,0
4.3990045,4.5188704,40,55,0
4.638736,4.8604164,53,67,0
4.638736,4.8604164,48,56,0
4.638736,4.8604164,41,56,0
5.082097,5.188307,52,59,0
5.082097,5.188307,40,50,0
5.082097,5.188307,48,50,0
5.2945166,5.4133563,53,65,0
5.2945166,5.4133563,48,55,0
5.2945166,5.4133563,41,55,0
5.5321965,5.6448174,55,67,0
5.5321965,5.6448174,48,56,0
5.5321965,5.6448174,43,56,0
5.9826803,6.0953016,53,62,0
5.9826803,6.0953016,48,52,0
5.9826803,6.0953016,41,52,0
6.8836484,6.995372,52,59,0
6.8836484,6.995372,40,50,0
6.8836484,6.995372,48,50,0
7.1070957,7.229047,53,65,0
7.1070957,7.229047,48,55,0
7.1070957,7.229047,41,55,0
7.350998,7.462282,50,67,0
7.350998,7.462282,38,56,0
7.796135,7.9096766,52,68,0
7.796135,7.9096766,40,57,0
8.250302,8.362025,47,70,0
8.250302,8.362025,35,59,0
8.697196,8.811195,48,73,0
8.697196,8.811195,36,62,0
9.153751,10.05534,45,79,0
9.153751,10.05534,38,67,0
9.153751,10.05534,33,67,0
10.05534,10.492626,43,75,0
10.05534,10.492626,38,63,0
10.05534,10.492626,31,63,0
10.492626,10.598475,62,70,0
10.704326,10.815676,66,63,0
10.927027,11.035557,67,69,0
11.361149,11.46589,50,56,0
11.570631,11.681915,54,50,0
11.7932,11.903171,55,55,0
12.233083,12.340103,38,56,0
12.447124,12.563016,42,50,0
12.678909,13.127608,43,55,0
13.576447,14.463111,58,55,0
13.576447,14.463111,55,55,0
14.557205,15.215871,62,70,0
14.463111,15.215871,46,60,0
14.494475,15.215871,53,63,0
14.525841,15.215871,58,67,0
15.215871,15.408507,46,65,0
15.215871,15.408507,34,55,0
15.429912,15.905272,46,65,0
15.429912,15.905272,34,55,0
15.905272,16.016994,48,59,0
15.905272,16.016994,36,50,0
16.12872,16.25067,50,65,0
16.12872,16.25067,38,55,0
16.372622,16.486353,51,67,0
16.372622,16.486353,46,56,0
16.372622,16.486353,39,56,0
16.827545,16.941277,50,62,0
16.827545,16.941277,46,52,0
16.827545,16.941277,38,52,0
17.964859,18.169575,46,65,0
17.964859,18.169575,34,55,0
18.192322,18.647245,46,65,0
18.192322,18.647245,34,55,0
18.647245,18.75468,48,59,0
18.647245,18.75468,36,50,0
18.862116,18.981981,50,65,0
18.862116,18.981981,38,55,0
19.101847,19.323526,51,67,0
19.101847,19.323526,46,56,0
19.101847,19.323526,39,56,0
19.545208,19.651417,50,59,0
19.545208,19.651417,38,50,0
19.545208,19.651417,46,50,0
19.757627,19.876467,51,65,0
19.757627,19.876467,46,55,0
19.757627,19.876467,39,55,0
19.995308,20.107927,53,67,0
19.995308,20.107927,46,56,0
19.995308,20.107927,41,56,0
20.445791,20.558413,51,62,0
20.445791,20.558413,46,52,0
20.445791,20.558413,39,52,0
21.34676,21.458483,50,59,0
21.34676,21.458483,38,50,0
21.570206,21.692158,51,65,0
21.570206,21.692158,39,55,0
21.814108,21.925392,53,67,0
21.814108,21.925392,41,56,0
22.259245,22.372787,51,68,0
22.259245,22.372787,39,57,0
22.713413,22.825136,47,70,0
22.713413,22.825136,35,59,0
23.160307,23.274305,48,73,0
23.160307,23.274305,36,62,0
23.616861,23.734215,45,73,0
23.616861,23.734215,33,62,0
24.086271,25.025091,44,73,0
24.086271,25.025091,38,62,0
24.086271,25.025091,32,62,0
25.025091,25.950047,43,73,0
25.025091,25.950047,38,62,0
25.025091,25.950047,31,62,0
25.950047,26.84216,42,73,0
25.950047,26.84216,38,62,0
25.950047,26.84216,30,62,0
26.86114,27.304893,42,73,0
26.86114,27.304893,38,62,0
26.86114,27.304893,30,62,0
27.304893,27.415833,43,61,0
27.304893,27.415833,38,51,0
27.304893,27.415833,31,51,0
27.748648,28.633198,55,58,0
27.748648,28.633198,50,58,0
27.748648,28.633198,53,58,0
27.748648,28.633198,59,69,0
28.633198,28.743727,43,57,0
28.633198,28.743727,31,48,0
29.091019,29.201548,48,64,0
29.091019,29.201548,43,54,0
29.091019,29.201548,36,54,0
29.750198,29.945553,52,40,0
29.750198,29.945553,48,34,0
29.96726,30.40138,52,46,0
29.96726,30.40138,48,39,0
30.40138,30.508364,53,41,0
30.40138,30.508364,50,34,0
30.615347,30.72753,55,43,0
30.615347,30.72753,52,36,0
30.839712,30.947805,57,46,0
30.839712,30.947805,53,39,0
31.272083,31.379065,55,40,0
31.272083,31.379065,52,34,0
31.707924,32.137203,59,44,0
31.707924,32.137203,55,37,0
32.137203,32.244522,57,34,0
32.137203,32.244522,60,41,0
32.35184,32.464024,62,44,0
32.35184,32.464024,59,37,0
32.576206,33.00548,60,39,0
32.576206,33.00548,65,47,0
33.00548,33.111706,60,37,0
33.00548,33.111706,64,44,0
33.217934,33.328873,55,34,0
33.217934,33.328873,62,40,0
33.439808,33.87218,60,41,0
33.439808,33.87218,64,49,0
33.87218,33.97692,55,35,0
33.87218,33.97692,62,42,0
34.08166,34.19174,60,42,0
34.08166,34.19174,52,35,0
34.30181,34.925156,55,41,0
34.30181,34.925156,59,49,0
34.925156,35.11846,60,37,0
34.925156,35.11846,64,44,0
35.139557,35.77984,60,45,0
35.139557,35.77984,64,53,0
35.77984,35.993767,64,39,0
35.77984,35.993767,67,47,0
36.017536,36.46965,64,45,0
36.017536,36.46965,67,54,0
36.46965,36.58268,65,50,0
36.921764,37.35589,53,46,0
36.921764,37.35589,50,39,0
37.35589,37.462067,55,41,0
37.35589,37.462067,52,34,0
37.56825,37.68043,57,43,0
37.56825,37.68043,53,36,0
37.792614,37.901096,58,46,0
37.792614,37.901096,55,39,0
38.226547,38.33353,57,40,0
38.226547,38.33353,53,34,0
38.662388,39.091667,61,44,0
38.662388,39.091667,57,37,0
39.091667,39.198986,59,34,0
39.091667,39.198986,62,41,0
39.306305,39.418488,64,44,0
39.306305,39.418488,61,37,0
39.53067,39.963226,62,39,0
39.53067,39.963226,67,47,0
39.963226,40.069454,62,37,0
39.963226,40.069454,65,44,0
40.17568,40.286617,57,34,0
40.17568,40.286617,64,40,0
40.397552,40.82683,62,41,0
40.397552,40.82683,65,49,0
40.82683,40.92966,57,35,0
40.82683,40.92966,64,42,0
41.032494,41.144676,62,42,0
41.032494,41.144676,53,35,0
41.25686,41.88425,57,41,0
41.25686,41.88425,61,49,0
41.88425,42.077557,62,37,0
41.88425,42.077557,65,44,0
42.09865,42.740345,62,45,0
42.09865,42.740345,65,53,0
42.740345,42.954273,65,39,0
42.740345,42.954273,69,47,0
42.978043,43.430157,66,45,0
42.978043,43.430157,69,54,0
43.430157,43.543186,67,50,0
43.88227,44.31483,55,44,0
43.88227,44.31483,52,37,0
44.31483,44.420677,54,34,0
44.31483,44.420677,57,41,0
44.526527,44.63625,59,44,0
44.526527,44.63625,55,37,0
44.74597,45.411602,57,45,0
44.74597,45.411602,60,54,0
45.63348,46.066036,64,52,0
45.63348,46.066036,55,44,0
46.066036,46.171886,57,39,0
46.066036,46.171886,66,46,0
46.277737,46.38992,67,49,0
46.277737,46.38992,59,41,0
46.5021,46.931564,63,51,0
46.5021,46.931564,69,60,0
46.5021,46.931564,60,51,0
47.15344,47.35313,69,56,0
47.15344,47.35313,63,47,0
47.15344,47.35313,60,47,0
47.375317,47.80944,64,54,0
47.375317,47.80944,70,64,0
47.375317,47.80944,61,54,0
48.92135,49.11392,47,50,0
48.92135,49.11392,51,50,0
49.135315,49.563244,47,58,0
49.135315,49.563244,51,58,0
49.563244,49.670227,52,51,0
49.563244,49.670227,49,51,0
49.77721,49.886932,54,53,0
49.77721,49.886932,51,53,0
49.99665,50.405293,56,61,0
49.99665,50.42306,52,61,0
50.42306,50.529663,56,54,0
50.42306,50.529663,59,54,0
50.636265,50.74639,57,58,0
50.636265,50.74639,61,58,0
50.856514,51.279915,59,61,0
50.856514,51.279915,63,61,0
51.279915,51.385765,64,59,0
51.279915,51.385765,61,59,0
51.491615,51.600937,66,61,0
51.491615,51.600937,63,61,0
51.71026,52.13069,68,63,0
51.71026,52.13069,64,63,0
52.13069,52.235798,69,61,0
52.13069,52.235798,66,61,0
52.340908,52.45023,71,64,0
52.340908,52.45023,68,64,0
52.55955,52.76903,72,69,0
52.55955,52.76903,69,69,0
52.76903,52.957565,73,63,0
52.76903,52.957565,70,63,0
52.978516,53.60696,73,63,0
52.978516,53.60696,70,63,0
53.60696,53.816444,72,60,0
53.60696,53.816444,69,60,0
53.816444,54.025196,72,63,0
53.816444,54.025196,69,63,0
54.025196,54.213078,73,57,0
54.025196,54.213078,70,57,0
54.23395,54.442703,73,57,0
54.23395,54.442703,70,57,0
54.442703,54.64166,74,57,0
54.442703,54.64166,71,57,0
54.663765,55.292213,74,63,0
54.663765,55.292213,71,63,0
55.292213,55.501694,73,63,0
55.292213,55.501694,70,63,0
55.501694,55.711178,73,68,0
55.501694,55.711178,70,68,0
55.711178,55.89971,74,63,0
55.711178,55.89971,71,63,0
55.92066,56.130142,74,65,0
55.92066,56.130142,71,65,0
56.130142,56.325497,72,63,0
56.347202,56.953957,72,71,0
56.971294,57.15852,73,63,0
57.17932,57.383114,73,71,0
57.383114,57.566525,70,63,0
57.586903,57.790695,70,67,0
57.790695,57.974106,67,63,0
57.994484,58.198277,67,73,0
58.198277,58.413776,58,67,0
58.413776,58.52153,59,74,0
58.62928,58.84478,47,70,0
58.84478,59.452152,48,62,0
58.84478,59.452152,60,74,0
59.452152,59.65594,35,69,0
59.65594,60.07218,48,74,0
59.65594,60.07218,36,62,0
60.27597,60.479763,47,69,0
60.479763,60.88261,60,69,0
60.479763,60.88261,48,58,0
61.086403,61.29019,35,68,0
61.29019,61.703217,48,74,0
61.29019,61.703217,36,62,0
61.703217,61.821323,47,76,0
61.703217,61.821323,35,64,0
62.175655,62.293766,59,77,0
62.175655,62.293766,47,65,0
62.175655,62.293766,51,65,0
62.175655,62.293766,54,65,0
63.8292,64.06542,60,64,0
64.06542,64.30164,64,70,0
64.30164,64.537865,76,63,0
65.90052,66.21631,59,38,0
66.21631,66.5478,63,42,0
66.5478,66.879295,75,37,0
68.41179,68.68301,60,26,0
68.68301,68.94821,64,28,0
68.94821,69.21284,60,22,0
69.21284,69.47947,64,28,0
69.47947,69.74704,60,24,0
69.74704,70.01307,64,24,0
70.01307,70.302505,69,20,0
70.57212,70.83215,62,23,0
70.83215,71.09818,65,27,0
71.09818,71.364204,62,22,0
71.364204,71.63023,65,27,0
71.63023,71.89626,62,24,0
71.89626,72.158,65,24,0
72.158,72.4313,69,20,0
72.69851,72.96327,52,24,0
72.96327,73.22627,56,27,0
73.22627,73.48996,52,24,0
73.48996,73.74666,56,27,0
73.74666,74.00335,52,23,0
74.00335,74.26708,56,23,0
74.26708,74.55071,62,19,0
74.82033,75.07868,57,23,0
75.07868,75.34709,64,27,0
75.34709,75.6155,57,24,0
75.6155,75.88391,64,27,0
75.88391,76.14507,57,22,0
76.14507,76.41205,64,22,0
76.41205,76.67902,69,20,0
76.962654,77.224396,45,29,0
77.224396,77.49019,52,32,0
77.49019,77.75598,45,28,0
77.75598,78.021774,52,32,0
78.021774,78.29316,45,27,0
78.29316,78.56646,52,27,0
78.56646,78.8528,54,27,0
79.12486,79.38266,43,26,0
79.38266,79.647514,52,31,0
79.647514,79.91237,55,27,0
79.91237,80.17722,60,39,0
80.17722,80.436134,55,34,0
80.436134,80.69732,52,37,0
80.69732,80.98366,48,40,0
80.98366,81.24969,42,44,0
81.24969,81.51572,47,38,0
81.51572,81.77575,52,38,0
81.77575,82.05283,55,38,0
82.05283,82.31769,40,51,0
82.31769,82.58254,47,40,0
82.58254,82.843704,52,42,0
82.843704,83.12469,55,42,0
83.12469,83.40698,35,57,0
83.40698,83.66368,47,44,0
83.66368,83.92714,50,44,0
83.92714,84.1906,55,44,0
84.1906,84.454056,67,53,0
84.454056,84.717514,62,44,0
84.717514,84.97531,59,44,0
84.97531,85.257614,55,44,0
85.257614,85.523636,47,53,0
85.523636,85.789665,50,42,0
85.789665,86.055695,55,44,0
86.055695,86.321724,62,41,0
86.58086,86.83999,51,39,0
86.83999,87.10602,57,42,0
87.10602,87.37205,60,39,0
87.65435,87.92276,52,39,0
87.92276,88.19116,55,42,0
88.19116,88.45957,60,39,0
88.71983,88.98009,53,32,0
88.98009,89.2485,57,37,0
89.2485,89.51691,60,32,0
89.79921,90.06762,55,33,0
90.06762,90.33602,60,37,0
90.33602,90.60443,64,34,0
90.87106,91.13592,62,34,0
91.13592,91.40077,65,34,0
91.40077,91.683075,68,34,0
90.60443,91.683075,56,44,0
91.94676,92.21045,60,30,0
92.21045,92.474144,65,34,0
92.474144,92.76893,69,29,0
91.683075,92.76893,57,44,0
93.03614,93.30335,63,26,0
93.30335,93.57541,66,29,0
93.57541,93.84747,71,26,0
92.76893,93.84747,59,32,0
93.84747,94.11709,64,28,0
94.11709,94.386696,52,20,0
94.386696,94.65039,64,20,0
94.65039,94.91408,52,20,0
94.91408,95.17777,59,24,0
94.91408,95.17777,62,28,0
95.17777,95.44146,52,21,0
95.44146,95.70037,60,18,0
95.44146,95.70037,64,21,0
95.70037,95.98535,52,21,0
95.98535,96.250206,62,24,0
95.98535,96.250206,65,28,0
96.250206,96.51506,52,20,0
96.51506,96.779915,59,17,0
96.51506,96.779915,62,20,0
96.779915,97.04477,52,20,0
97.04477,97.307304,59,27,0
97.04477,97.307304,56,23,0
97.307304,97.56984,52,21,0
97.56984,97.832375,57,18,0
97.56984,97.832375,60,21,0
97.832375,98.100784,52,21,0
98.100784,98.376595,62,28,0
98.100784,98.376595,59,24,0
98.376595,98.652405,52,20,0
98.652405,98.91494,60,20,0
98.652405,98.91494,57,24,0
98.91494,99.17748,52,20,0
99.17748,99.43528,55,24,0
99.17748,99.43528,59,28,0
99.43528,99.69308,52,21,0
99.69308,99.95424,53,18,0
99.69308,99.95424,57,21,0
99.95424,100.23922,52,21,0
100.23922,100.50525,56,28,0
100.50525,100.77128,52,20,0
100.77128,101.03731,54,17,0
100.77128,101.03731,57,20,0
101.03731,101.30334,52,20,0
101.30334,101.56473,59,27,0
101.30334,101.56473,56,23,0
101.56473,101.82612,52,21,0
101.82612,102.08751,56,21,0
102.08751,102.36849,52,21,0
102.36849,102.64304,64,28,0
102.36849,102.64304,60,24,0
102.64304,102.91759,52,20,0
102.91759,103.18128,64,20,0
102.91759,103.18128,60,24,0
103.18128,103.44497,52,20,0
103.44497,103.70388,59,24,0
103.44497,103.70388,62,28,0
103.70388,103.96279,52,21,0
103.96279,104.222824,60,18,0
103.96279,104.222824,64,22,0
104.222824,104.507805,52,22,0
104.507805,104.77266,64,26,0
104.507805,104.77266,67,31,0
104.77266,105.03751,52,22,0
105.03751,105.30237,62,18,0
105.03751,105.30237,65,22,0
105.30237,105.56722,52,22,0
105.56722,105.82861,62,30,0
105.56722,105.82861,59,25,0
105.82861,106.090004,52,23,0
106.090004,106.3514,62,19,0
106.090004,106.3514,65,23,0
106.3514,106.625946,52,23,0
106.625946,106.901764,64,31,0
106.625946,106.901764,60,26,0
106.901764,107.177574,52,22,0
107.177574,107.43783,60,21,0
107.177574,107.43783,57,26,0
107.43783,107.69809,52,21,0
107.69809,107.95834,59,25,0
107.69809,107.95834,62,29,0
107.95834,108.218605,52,21,0
108.218605,108.47887,56,18,0
108.218605,108.47887,59,21,0
108.47887,108.76385,52,21,0
108.76385,109.034676,60,28,0
108.76385,109.034676,57,24,0
109.034676,109.30551,52,20,0
109.30551,109.57634,54,17,0
109.30551,109.57634,57,20,0
109.57634,109.84717,52,20,0
109.84717,110.1132,59,27,0
109.84717,110.1132,56,23,0
110.1132,110.37923,52,21,0
110.37923,110.67547,56,21,0
110.67547,110.95644,52,21,0
110.95644,111.223656,60,29,0
111.223656,111.47624,57,21,0
111.47624,111.72445,52,24,0
111.72445,112.00026,48,21,0
112.00026,112.265114,60,29,0
112.265114,112.51877,57,22,0
112.51877,112.76697,52,24,0
112.76697,113.033,48,20,0
113.033,113.29439,62,29,0
113.29439,113.549126,57,20,0
113.549126,113.7963,53,24,0
113.7963,114.06233,50,21,0
114.06233,114.322586,62,29,0
114.322586,114.57518,57,24,0
114.57518,114.82236,53,24,0
114.80794,115.07398,50,23,0
115.08957,115.34982,62,29,0
115.34982,115.60456,59,21,0
115.60456,115.85276,57,24,0
115.85276,116.12857,52,22,0
116.12857,116.38883,62,30,0
116.38883,116.64356,59,22,0
116.64356,116.8928,56,25,0
116.8928,117.16734,52,25,0
117.16734,117.429886,69,30,0
117.429886,117.684616,65,23,0
117.684616,117.932816,64,25,0
117.932816,118.208626,57,22,0
118.208626,118.47348,69,31,0
118.47348,118.72822,64,25,0
118.72822,118.97745,60,29,0
118.97745,119.252,57,26,0
119.252,119.52655,38,43,0
119.52655,119.801094,50,38,0
120.31937,122.52021,62,51,0
120.060234,122.52021,57,47,0
119.801094,122.52021,53,42,0
123.60353,123.87808,38,43,0
123.87808,124.15263,50,38,0
124.6709,126.31241,59,51,0
124.411766,126.31241,56,47,0
124.15263,126.31241,53,42,0
126.85653,127.67271,70,60,0
126.85653,127.67271,62,43,0
126.85653,127.67271,56,43,0
126.85653,127.67271,58,43,0
126.85653,127.67271,65,51,0
129.033,129.17802,43,45,0
129.16484,129.30988,44,37,0
129.29669,129.44173,43,37,0
129.42854,129.57356,42,37,0
129.56038,129.70541,43,45,0
129.69223,129.83725,46,42,0
129.82407,129.97118,51,45,0
129.95592,130.12169,55,48,0
130.10855,130.89616,58,52,0
130.10855,130.89616,56,52,0
131.17268,131.31645,55,45,0
131.30338,131.44714,56,37,0
131.43408,131.57784,55,37,0
131.56477,131.70854,54,37,0
131.69547,131.83923,55,45,0
131.82617,131.96992,58,42,0
131.95686,132.10194,63,45,0
132.08755,132.24449,67,48,0
132.23141,133.0156,70,59,0
132.23141,133.0156,68,59,0
133.29225,133.43665,80,51,0
133.42351,133.5679,77,42,0
133.55478,133.69917,74,42,0
133.68605,133.83044,70,42,0
133.81732,133.96172,68,51,0
133.9486,134.09299,65,48,0
134.07985,134.22572,62,51,0
134.21112,134.3705,56,55,0
135.4029,136.44829,62,60,0
135.4029,136.44829,53,46,0
136.44829,137.47728,64,59,0
136.44829,137.47728,52,50,0
137.47728,139.54747,65,62,0
137.47728,139.54747,50,52,0
139.54747,140.687,62,54,0
139.54747,140.687,53,45,0
140.687,141.75844,60,48,0
140.687,141.75844,52,40,0
134.35709,141.75844,57,55,0
142.88083,144.01837,56,28,0
142.88083,144.04362,52,28,0
142.88083,144.04362,59,33,0
143.43758,144.04362,65,44,0
144.04362,144.69228,64,33,0
144.69228,145.42398,56,24,0
145.42398,146.50046,57,32,0
145.42398,146.50046,45,27,0
146.50046,146.76416,64,24,0
146.76416,147.02307,57,21,0
146.50046,147.02307,67,32,0
147.02307,147.28198,65,18,0
147.28198,147.56696,57,21,0
147.02307,147.56696,69,24,0
147.56696,147.833,67,24,0
147.56696,147.833,70,32,0
147.833,148.09901,57,20,0
148.09901,148.36504,64,17,0
148.09901,148.36504,67,23,0
148.36504,148.63107,57,20,0
148.63107,148.89246,64,31,0
148.63107,148.89246,61,23,0
148.89246,149.15385,57,21,0
149.15385,149.41525,62,18,0
149.15385,149.41525,65,24,0
149.41525,149.6898,57,21,0
149.6898,149.95941,67,32,0
149.6898,149.95941,64,24,0
149.95941,150.22902,57,20,0
150.22902,150.48929,65,23,0
150.22902,150.48929,62,24,0
150.48929,150.74954,57,20,0
150.74954,151.0098,60,24,0
150.74954,151.0098,64,32,0
151.0098,151.27007,57,21,0
151.27007,151.53032,58,18,0
151.27007,151.53032,62,24,0
151.53032,151.8153,57,21,0
151.8153,152.079,61,32,0
152.079,152.34268,57,23,0
152.34268,152.60637,62,23,0
152.34268,152.60637,59,19,0
152.60637,152.87006,57,23,0
152.87006,153.13145,64,31,0
152.87006,153.13145,61,26,0
153.14343,153.40483,57,24,0
153.39285,153.65424,64,24,0
153.39285,153.65424,61,24,0
153.66711,153.9473,57,20,0
153.93521,154.19891,69,32,0
154.19891,154.4626,57,23,0
154.4626,154.72629,69,23,0
154.72629,154.98997,57,23,0
154.98997,155.25137,69,31,0
155.26335,155.52473,57,29,0
155.51276,155.77415,69,34,0
155.78703,156.06721,57,39,0
156.05513,156.31882,64,44,0
156.31882,156.5825,57,25,0
156.56932,156.83302,64,25,0
156.8462,157.1099,57,25,0
157.1099,157.36902,64,34,0
157.3809,157.64003,57,26,0
157.62816,157.8873,64,26,0
157.90018,158.18031,57,22,0
158.16827,158.4308,67,46,0
158.4308,158.69334,55,30,0
158.69334,158.95589,67,32,0
158.95589,159.21841,55,34,0
159.21841,159.47533,67,42,0
159.47533,159.73225,55,34,0
159.73225,159.98917,67,34,0
159.98917,160.26314,55,34,0
160.26314,160.52005,66,48,0
160.52005,160.77696,55,36,0
160.77696,161.03389,66,37,0
161.03389,161.2908,55,37,0
161.2908,161.54128,65,47,0
161.54128,161.79176,55,34,0
161.79176,162.04224,65,34,0
162.04224,162.3113,55,27,0
162.3113,162.56712,64,50,0
162.56712,162.82294,55,36,0
162.82294,163.07875,64,36,0
163.07875,163.33458,55,36,0
163.33458,163.58298,62,50,0
163.58298,163.83139,55,40,0
163.83139,164.07979,62,40,0
164.07979,164.34296,55,40,0
164.34296,164.58932,60,52,0
164.58932,164.83568,55,39,0
164.83568,165.08205,60,42,0
165.08205,165.32841,55,48,0
165.32841,165.5708,59,45,0
165.5708,165.81319,55,45,0
165.81319,166.05557,59,52,0
166.05557,166.30873,55,45,0
166.30873,166.55067,67,55,0
166.55067,166.79335,55,46,0
166.79335,167.03683,67,55,0
167.03683,167.27922,55,47,0
167.27922,167.5206,67,60,0
167.5206,167.76088,55,49,0
167.76088,168.00018,67,63,0
168.24867,168.48305,71,68,0
168.00018,168.48305,55,51,0
168.184,168.48305,62,58,0
168.21634,168.48305,65,63,0
168.48305,168.71742,76,59,0
168.48305,168.71742,64,50,0
168.71742,168.9518,77,66,0
168.71742,168.9518,65,56,0
168.9518,169.1945,73,59,0
168.9518,169.1945,61,50,0
169.1945,169.42796,74,67,0
169.1945,169.42796,62,56,0
169.42796,169.66142,70,59,0
169.42796,169.66142,58,50,0
169.66142,169.8949,71,66,0
169.66142,169.8949,59,56,0
169.8949,170.01163,67,59,0
169.8949,170.01163,55,50,0
170.3706,170.60406,52,59,0
170.3706,170.60406,40,50,0
170.60406,170.83754,53,66,0
170.60406,170.83754,41,56,0
170.83754,171.07979,49,59,0
170.83754,171.07979,37,50,0
171.07979,171.31325,50,67,0
171.07979,171.31325,38,56,0
171.31325,171.5467,46,59,0
171.31325,171.5467,34,50,0
171.5467,171.78018,47,66,0
171.5467,171.78018,35,56,0
171.78018,171.89691,43,59,0
171.78018,171.89691,31,50,0
172.11653,172.77519,64,73,0
172.02243,172.77519,48,64,0
172.0538,172.77519,55,67,0
172.08516,172.77519,60,70,0
172.77519,172.96783,48,65,0
172.77519,172.96783,43,55,0
172.77519,172.96783,36,55,0
172.98923,173.4646,48,65,0
172.98923,173.4646,43,55,0
172.98923,173.4646,36,55,0
173.4646,173.57631,50,59,0
173.4646,173.57631,38,50,0
173.68803,173.81,52,65,0
173.68803,173.81,48,55,0
173.68803,173.81,40,55,0
173.93195,174.04567,53,67,0
173.93195,174.04567,48,56,0
173.93195,174.04567,41,56,0
174.38687,174.5006,52,62,0
174.38687,174.5006,48,52,0
174.38687,174.5006,40,52,0
175.52419,175.7289,48,65,0
175.52419,175.7289,43,55,0
175.52419,175.7289,36,55,0
175.75165,176.20657,48,65,0
175.75165,176.20657,43,55,0
175.75165,176.20657,36,55,0
176.20657,176.314,50,59,0
176.20657,176.314,38,50,0
176.42143,176.5413,52,65,0
176.42143,176.5413,48,55,0
176.42143,176.5413,40,55,0
176.66116,176.88284,53,67,0
176.66116,176.88284,48,56,0
176.66116,176.88284,41,56,0
177.10452,177.21074,52,59,0
177.10452,177.21074,40,50,0
177.10452,177.21074,48,50,0
177.31694,177.43579,53,65,0
177.31694,177.43579,48,55,0
177.31694,177.43579,41,55,0
177.55463,177.66725,55,67,0
177.55463,177.66725,48,56,0
177.55463,177.66725,43,56,0
178.00511,178.11774,53,62,0
178.00511,178.11774,48,52,0
178.00511,178.11774,41,52,0
178.90608,179.0178,52,59,0
178.90608,179.0178,40,50,0
178.90608,179.0178,48,50,0
179.12953,179.25148,53,65,0
179.12953,179.25148,48,55,0
179.12953,179.25148,41,55,0
179.37343,179.48471,50,67,0
179.37343,179.48471,38,56,0
179.81857,179.93211,52,68,0
179.81857,179.93211,40,57,0
180.27274,180.38446,47,70,0
180.27274,180.38446,35,59,0
180.71964,180.83363,48,73,0
180.71964,180.83363,36,62,0
181.17618,182.059,38,67,0
181.17618,182.07777,45,79,0
181.17618,182.07777,33,67,0
182.07777,182.51506,43,75,0
182.07777,182.51506,38,63,0
182.07777,182.51506,31,63,0
182.51506,182.62091,62,70,0
182.72676,182.8381,66,63,0
182.94946,183.05798,67,69,0
183.38358,183.48833,50,56,0
183.59306,183.70435,54,50,0
183.81563,183.9256,55,55,0
184.25551,184.36253,38,56,0
184.46956,184.58545,42,50,0
184.70134,185.15004,43,55,0
185.59888,186.48553,58,55,0
185.59888,186.48553,55,55,0
186.57964,187.2383,62,70,0
186.48553,187.2383,46,60,0
186.5169,187.2383,53,63,0
186.54828,187.2383,58,67,0
187.2383,187.43094,46,65,0
187.2383,187.43094,34,55,0
187.45235,187.9277,46,65,0
187.45235,187.9277,34,55,0
187.9277,188.03943,48,59,0
187.9277,188.03943,36,50,0
188.15115,188.2731,50,65,0
188.15115,188.2731,38,55,0
188.39505,188.50879,51,67,0
188.39505,188.50879,46,56,0
188.39505,188.50879,39,56,0
188.84998,188.96371,50,62,0
188.84998,188.96371,46,52,0
188.84998,188.96371,38,52,0
189.98729,190.192,46,65,0
189.98729,190.192,34,55,0
190.21475,190.66968,46,65,0
190.21475,190.66968,34,55,0
190.66968,190.77711,48,59,0
190.66968,190.77711,36,50,0
190.88455,191.00441,50,65,0
190.88455,191.00441,38,55,0
191.12428,191.34596,51,67,0
191.12428,191.34596,46,56,0
191.12428,191.34596,39,56,0
191.56764,191.67384,50,59,0
191.56764,191.67384,38,50,0
191.56764,191.67384,46,50,0
191.78006,191.8989,51,65,0
191.78006,191.8989,46,55,0
191.78006,191.8989,39,55,0
192.01775,192.13036,53,67,0
192.01775,192.13036,46,56,0
192.01775,192.13036,41,56,0
192.46822,192.58084,51,62,0
192.46822,192.58084,46,52,0
192.46822,192.58084,39,52,0
193.36919,193.48091,50,59,0
193.36919,193.48091,38,50,0
193.59264,193.71458,51,65,0
193.59264,193.71458,39,55,0
193.83653,193.94783,53,67,0
193.83653,193.94783,41,56,0
194.28168,194.39522,51,68,0
194.28168,194.39522,39,57,0
194.73584,194.84756,47,70,0
194.73584,194.84756,35,59,0
195.18274,195.29674,48,73,0
195.18274,195.29674,36,62,0
195.6393,195.75665,45,73,0
195.6393,195.75665,33,62,0
196.1087,197.02797,38,62,0
196.1087,197.04752,44,73,0
196.1087,197.04752,32,62,0
197.04752,197.95349,38,62,0
197.04752,197.97247,43,73,0
197.04752,197.97247,31,62,0
197.97247,198.8646,42,73,0
197.97247,198.8646,38,62,0
197.97247,198.8646,30,62,0
198.88358,199.32733,42,73,0
198.88358,199.32733,38,62,0
198.88358,199.32733,30,62,0
199.32733,199.43826,43,61,0
199.32733,199.43826,38,51,0
199.32733,199.43826,31,51,0
199.77107,200.65562,55,58,0
199.77107,200.65562,50,58,0
199.77107,200.65562,53,58,0
199.77107,200.65562,59,69,0
200.65562,200.76616,43,57,0
200.65562,200.76616,31,48,0
201.11345,201.22398,48,64,0
201.11345,201.22398,43,54,0
201.11345,201.22398,36,54,0
201.77263,201.96799,52,40,0
201.77263,201.96799,48,34,0
201.98969,202.42381,52,46,0
201.98969,202.42381,48,39,0
202.42381,202.53079,53,41,0
202.42381,202.53079,50,34,0
202.63777,202.74995,55,43,0
202.63777,202.74995,52,36,0
202.86214,202.97023,57,46,0
202.86214,202.97023,53,39,0
203.29451,203.40149,55,40,0
203.29451,203.40149,52,34,0
203.73036,204.15964,59,44,0
203.73036,204.15964,55,37,0
204.15964,204.26695,57,34,0
204.15964,204.26695,60,41,0
204.37427,204.48645,62,44,0
204.37427,204.48645,59,37,0
204.59863,205.02791,60,39,0
204.59863,205.02791,65,47,0
205.02791,205.13414,60,37,0
205.02791,205.13414,64,44,0
205.24036,205.3513,55,34,0
205.24036,205.3513,62,40,0
205.46223,205.8946,60,41,0
205.46223,205.8946,64,49,0
205.8946,205.99744,55,35,0
205.8946,205.99744,62,42,0
206.10028,206.21034,60,42,0
206.10028,206.21034,52,35,0
206.32042,206.94305,55,41,0
206.32042,206.94305,59,49,0
206.94305,207.13637,60,37,0
206.94305,207.13637,64,44,0
207.15746,207.77939,64,53,0
207.15746,207.7967,60,45,0
207.7967,208.01064,64,39,0
207.7967,208.01064,67,47,0
208.03441,208.48653,64,45,0
208.03441,208.48653,67,54,0
208.48653,208.59955,65,50,0
208.93863,209.37276,53,46,0
208.93863,209.37276,50,39,0
209.37276,209.47894,55,41,0
209.37276,209.47894,52,34,0
209.58511,209.6973,57,43,0
209.58511,209.6973,53,36,0
209.80948,209.91797,58,46,0
209.80948,209.91797,55,39,0
210.24342,210.3504,57,40,0
210.24342,210.3504,53,34,0
210.67926,211.10854,61,44,0
210.67926,211.10854,57,37,0
211.10854,211.21585,59,34,0
211.10854,211.21585,62,41,0
211.32318,211.43536,64,44,0
211.32318,211.43536,61,37,0
211.54755,211.9801,62,39,0
211.54755,211.9801,67,47,0
211.9801,212.08632,62,37,0
211.9801,212.08632,65,44,0
212.19255,212.30348,57,34,0
212.19255,212.30348,64,40,0
212.41443,212.8437,62,41,0
212.41443,212.8437,65,49,0
212.8437,212.94724,57,35,0
212.8437,212.94724,64,42,0
213.05078,213.16296,62,42,0
213.05078,213.16296,53,35,0
213.27515,213.90532,57,41,0
213.27515,213.90532,61,49,0
213.90532,214.09863,62,37,0
213.90532,214.09863,65,44,0
214.11972,214.74034,62,45,0
214.11972,214.74034,65,53,0
214.75754,214.97147,65,39,0
214.75754,214.97147,69,47,0
214.99524,215.44736,66,45,0
214.99524,215.44736,69,54,0
215.44736,215.56038,67,50,0
215.89948,216.33203,55,44,0
215.89948,216.33203,52,37,0
216.33203,216.43788,54,34,0
216.33203,216.43788,57,41,0
216.54373,216.65344,59,44,0
216.54373,216.65344,55,37,0
216.76317,217.4288,57,45,0
216.76317,217.4288,60,54,0
217.65068,218.08324,64,52,0
217.65068,218.08324,55,44,0
218.08324,218.18909,57,39,0
218.08324,218.18909,66,46,0
218.29494,218.40712,67,49,0
218.29494,218.40712,59,41,0
218.5193,218.94876,63,51,0
218.5193,218.94876,69,60,0
218.5193,218.94876,60,51,0
219.17064,219.39252,69,56,0
219.17064,219.39252,63,47,0
219.17064,219.39252,60,47,0
219.39252,219.82664,64,54,0
219.39252,219.82664,70,64,0
219.39252,219.82664,61,54,0
220.93855,221.13112,47,50,0
220.93855,221.13112,51,50,0
221.15251,221.58044,47,58,0
221.15251,221.58044,51,58,0
221.58044,221.68742,52,51,0
221.58044,221.68742,49,51,0
221.7944,221.90413,54,53,0
221.7944,221.90413,51,53,0
222.01385,222.44026,56,61,0
222.01385,222.44026,52,61,0
222.44026,222.54686,56,54,0
222.44026,222.54686,59,54,0
222.65346,222.76358,57,58,0
222.65346,222.76358,61,58,0
222.87372,223.29712,59,61,0
222.87372,223.29712,63,61,0
223.29712,223.40297,64,59,0
223.29712,223.40297,61,59,0
223.5088,223.61813,66,61,0
223.5088,223.61813,63,61,0
223.72745,224.14789,68,63,0
223.72745,224.14789,64,63,0
224.14789,224.25299,69,61,0
224.14789,224.25299,66,61,0
224.35811,224.46742,71,64,0
224.35811,224.46742,68,64,0
224.57675,224.78622,72,69,0
224.57675,224.78622,69,69,0
224.78622,224.97476,73,63,0
224.78622,224.97476,70,63,0
224.99571,225.62416,73,63,0
224.99571,225.62416,70,63,0
225.62416,225.8127,72,60,0
225.62416,225.8127,69,60,0
225.83365,226.04239,72,63,0
225.83365,226.04239,69,63,0
226.04239,226.23027,73,57,0
226.04239,226.23027,70,57,0
226.25114,226.4599,73,57,0
226.25114,226.4599,70,57,0
226.4599,226.65886,74,57,0
226.4599,226.65886,71,57,0
226.68097,227.3094,74,63,0
226.68097,227.3094,71,63,0
227.3094,227.51889,73,63,0
227.3094,227.51889,70,63,0
227.51889,227.72838,73,68,0
227.51889,227.72838,70,68,0
227.72838,227.91692,74,63,0
227.72838,227.91692,71,63,0
227.93785,228.14734,74,65,0
227.93785,228.14734,71,65,0
228.14734,228.3644,72,63,0
228.3644,228.9885,72,71,0
228.9885,229.17572,73,63,0
229.19652,229.40031,73,71,0
229.40031,229.58372,70,63,0
229.6041,229.80789,70,67,0
229.80789,229.9913,67,63,0
230.01169,230.21547,67,73,0
230.21547,230.43097,58,67,0
230.43097,230.53873,59,74,0
230.64648,230.86198,47,70,0
230.86198,231.46935,48,62,0
230.86198,231.46935,60,74,0
231.46935,231.67314,35,69,0
231.67314,232.08939,48,74,0
231.67314,232.08939,36,62,0
232.29317,232.49696,47,69,0
232.49696,232.89981,60,69,0
232.49696,232.89981,48,58,0
233.10359,233.30739,35,68,0
233.30739,233.72041,48,74,0
233.30739,233.72041,36,62,0
233.72041,233.83852,47,76,0
233.72041,233.83852,35,64,0
234.19286,234.31096,59,77,0
234.19286,234.31096,47,65,0
234.19286,234.31096,51,65,0
234.19286,234.31096,54,65,0
235.84639,236.08261,60,64,0
236.08261,236.31883,64,70,0
236.31883,236.55505,76,63,0
237.91772,238.2335,59,38,0
238.2335,238.565,63,42,0
238.565,238.89648,75,37,0
240.42711,240.6941,60,26,0
240.6941,240.95857,64,28,0
240.95857,241.22319,60,22,0
241.22319,241.47989,64,28,0
241.47989,241.74518,60,21,0
241.74518,242.0112,64,24,0
242.0112,242.30064,69,20,0
242.57025,242.82973,62,23,0
242.82973,243.09575,65,27,0
243.09575,243.36179,62,22,0
243.36179,243.6278,65,27,0
243.6278,243.8834,62,24,0
243.8834,244.1492,65,24,0
244.1492,244.4225,69,20,0
244.68971,244.94919,52,24,0
244.94919,245.21452,56,27,0
245.21452,245.47821,52,24,0
245.47821,245.7419,56,27,0
245.7419,245.9986,52,23,0
245.9986,246.2634,56,23,0
246.2634,246.54703,62,19,0
246.81665,247.08626,57,23,0
247.08626,247.35468,64,27,0
247.35468,247.61526,57,24,0
247.61526,247.87643,64,27,0
247.87643,248.1376,57,22,0
248.1376,248.39876,64,22,0
248.39876,248.66455,69,20,0
248.93695,249.19699,45,29,0
249.19699,249.46396,52,32,0
249.46396,249.73094,45,28,0
249.73094,249.99097,52,32,0
249.99097,250.2609,45,27,0
250.2609,250.5342,52,27,0
250.5342,250.82054,54,27,0
251.0926,251.36465,43,26,0
251.36465,251.62952,52,31,0
251.62952,251.89436,55,27,0
251.89436,252.15923,60,39,0
252.15923,252.42407,55,34,0
252.42407,252.68524,52,37,0
252.68524,252.97159,48,40,0
252.97159,253.23761,42,44,0
253.23761,253.50363,47,38,0
253.50363,253.76967,52,38,0
253.76967,254.04675,55,38,0
254.04675,254.3116,40,51,0
254.3116,254.57646,47,40,0
254.57646,254.83649,52,42,0
254.83649,255.11746,55,42,0
255.11746,255.39977,35,57,0
255.39977,255.66345,47,44,0
255.66345,255.92715,50,44,0
255.92715,256.19083,55,44,0
256.19083,256.44864,67,53,0
256.44864,256.70868,62,44,0
256.70868,256.9687,59,44,0
256.9687,257.251,55,44,0
257.251,257.51703,47,53,0
257.51703,257.78305,50,42,0
257.78305,258.04907,55,44,0
258.04907,258.31512,62,41,0
258.57425,258.83337,51,39,0
258.83337,259.09943,57,42,0
259.09943,259.36545,60,39,0
259.64774,259.91614,52,39,0
259.91614,260.18457,55,42,0
260.18457,260.45297,60,39,0
260.71323,260.97348,53,32,0
260.97348,261.24188,57,37,0
261.24188,261.5103,60,32,0
261.7926,262.061,55,33,0
262.061,262.3294,60,37,0
262.3294,262.59784,64,34,0
262.86447,263.1293,62,34,0
263.1293,263.39417,65,34,0
263.39417,263.67645,68,34,0
262.59784,263.67645,56,44,0
263.94016,264.20386,60,30,0
264.20386,264.46753,65,34,0
264.46753,264.76233,69,29,0
263.67645,264.76233,57,44,0
265.02954,265.29675,63,26,0
265.29675,265.56882,66,29,0
265.56882,265.84085,71,26,0
264.76233,265.84085,59,32,0
265.84085,266.11047,64,28,0
266.11047,266.3801,52,20,0
266.3801,266.64377,64,20,0
266.64377,266.90747,52,20,0
266.90747,267.16638,59,24,0
266.90747,267.16638,62,28,0
267.16638,267.4253,52,21,0
267.4253,267.68646,60,18,0
267.4253,267.68646,64,21,0
267.68646,267.97144,52,21,0
267.97144,268.2363,62,24,0
267.97144,268.2363,65,28,0
268.2363,268.50116,52,20,0
268.50116,268.766,59,17,0
268.50116,268.766,62,20,0
268.766,269.03085,52,20,0
269.03085,269.2934,59,27,0
269.03085,269.2934,56,23,0
269.2934,269.55594,52,21,0
269.55594,269.81372,57,18,0
269.55594,269.81372,60,21,0
269.81372,270.08212,52,21,0
270.08212,270.35794,62,28,0
270.08212,270.35794,59,24,0
270.35794,270.63376,52,20,0
270.63376,270.8963,60,20,0
270.63376,270.8963,57,24,0
270.8963,271.15884,52,20,0
271.15884,271.41776,55,24,0
271.15884,271.41776,59,28,0
271.41776,271.67667,52,21,0
271.67667,271.94128,53,18,0
271.67667,271.94128,57,21,0
271.94128,272.22626,52,21,0
272.22626,272.49228,56,28,0
272.49228,272.7583,52,20,0
272.7583,273.02432,54,17,0
272.7583,273.02432,57,20,0
273.02432,273.29037,52,20,0
273.29037,273.55176,59,27,0
273.29037,273.55176,56,23,0
273.55176,273.81314,52,21,0
273.81314,274.07455,56,21,0
274.07455,274.35553,52,21,0
274.35553,274.63007,64,28,0
274.35553,274.63007,60,24,0
274.63007,274.90463,52,20,0
274.90463,275.1683,64,20,0
274.90463,275.1683,60,24,0
275.1683,275.432,52,20,0
275.432,275.69092,59,24,0
275.432,275.69092,62,28,0
275.69092,275.94983,52,21,0
275.94983,276.20874,60,18,0
275.94983,276.20874,64,22,0
276.20874,276.50613,52,22,0
276.50613,276.771,64,26,0
276.50613,276.771,67,31,0
276.771,277.03586,52,22,0
277.03586,277.30072,62,18,0
277.03586,277.30072,65,22,0
277.30072,277.56555,52,22,0
277.56555,277.82697,62,30,0
277.56555,277.82697,59,25,0
277.82697,278.08835,52,23,0
278.08835,278.34973,62,19,0
278.08835,278.34973,65,23,0
278.34973,278.6243,52,23,0
278.6243,278.9001,64,31,0
278.6243,278.9001,60,26,0
278.9001,279.1759,52,22,0
279.1759,279.43616,60,21,0
279.1759,279.43616,57,26,0
279.43616,279.69644,52,21,0
279.69644,279.95422,59,25,0
279.69644,279.95422,62,29,0
279.95422,280.21204,52,21,0
280.21204,280.47433,56,18,0
280.21204,280.47433,59,21,0
280.47433,280.7593,52,21,0
280.7593,281.03015,60,28,0
280.7593,281.03015,57,24,0
281.03015,281.30096,52,20,0
281.30096,281.5718,54,17,0
281.30096,281.5718,57,20,0
281.5718,281.84265,52,20,0
281.84265,282.10867,59,27,0
281.84265,282.10867,56,23,0
282.10867,282.3747,52,21,0
282.3747,282.67093,56,21,0
282.67093,282.9519,52,21,0
282.9519,283.21912,60,29,0
283.21912,283.4717,57,21,0
283.4717,283.7189,52,24,0
283.7189,283.9947,48,21,0
283.9947,284.25955,60,29,0
284.25955,284.511,57,22,0
284.511,284.76022,52,24,0
284.76022,285.02628,48,20,0
285.02628,285.28766,62,29,0
285.28766,285.5424,57,20,0
285.5424,285.78955,53,24,0
285.78955,286.0556,50,21,0
286.0556,286.31586,62,29,0
286.31586,286.56845,57,24,0
286.56845,286.81665,53,24,0
286.80215,287.06827,50,23,0
287.08386,287.34412,62,29,0
287.34412,287.59885,59,21,0
287.59885,287.84808,57,24,0
287.84808,288.1239,52,22,0
288.1239,288.38416,62,30,0
288.38416,288.6389,59,22,0
288.6389,288.88916,56,25,0
288.88916,289.1637,52,25,0
289.1637,289.42624,69,30,0
289.42624,289.68097,65,23,0
289.68097,289.93124,64,25,0
289.93124,290.20706,57,22,0
290.20706,290.47192,69,31,0
290.47192,290.72665,64,25,0
290.72665,290.97485,60,29,0
290.97485,291.2494,57,26,0
291.2494,291.52396,38,43,0
291.52396,291.7985,50,38,0
292.31677,294.5176,62,51,0
292.05762,294.5176,57,47,0
291.7985,294.5176,53,42,0
295.60092,295.8755,38,43,0
295.8755,296.15002,50,38,0
296.6683,298.3098,59,51,0
296.40915,298.3098,56,47,0
296.15002,298.3098,53,42,0
298.8539,299.6701,70,60,0
298.8539,299.6701,62,43,0
298.8539,299.6701,56,43,0
298.8539,299.6701,58,43,0
298.8539,299.6701,65,51,0
301.0304,301.1754,43,45,0
301.16223,301.30728,44,37,0
301.2941,301.43912,43,37,0
301.42593,301.57095,42,37,0
301.55777,301.70282,43,45,0
301.68964,301.83466,46,42,0
301.82147,301.96857,51,45,0
301.9533,302.11908,55,48,0
302.10596,302.89355,58,52,0
302.10596,302.89355,56,52,0
303.17007,303.31384,55,45,0
303.30078,303.44455,56,37,0
303.4315,303.57523,55,37,0
303.56216,303.70593,54,37,0
303.69287,303.83664,55,45,0
303.82355,303.96732,58,42,0
303.95425,304.09933,63,45,0
304.08496,304.24188,67,48,0
304.22882,305.013,70,59,0
304.22882,305.013,68,59,0
305.28964,305.43405,80,51,0
305.4209,305.5653,77,42,0
305.5522,305.69656,74,42,0
305.68344,305.82785,70,42,0
305.81473,305.9591,68,51,0
305.94598,306.09036,65,48,0
306.07724,306.2231,62,51,0
306.20853,306.3679,56,55,0
307.4003,308.44568,62,59,0
307.4003,308.44568,53,46,0
308.44568,309.47467,64,59,0
308.44568,309.47467,52,50,0
309.47467,311.54486,65,62,0
309.47467,311.54486,50,52,0
311.54486,312.6844,62,54,0
311.54486,312.6844,53,45,0
312.6844,313.75583,60,48,0
312.6844,313.75583,52,40,0
306.35446,313.75583,57,55,0
314.87823,316.01578,56,28,0
314.87823,316.04102,52,28,0
314.87823,316.04102,59,33,0
315.43497,316.04102,65,44,0
316.04102,316.68967,64,33,0
316.68967,317.4214,56,24,0
317.4214,318.49054,57,32,0
317.4214,318.49054,45,27,0
318.49054,318.75058,64,24,0
318.75058,319.01062,57,21,0
318.49054,319.01062,67,32,0
319.01062,319.27292,65,18,0
319.27292,319.5579,57,21,0
319.01062,319.5579,69,24,0
319.5579,319.82394,67,24,0
319.5579,319.82394,70,32,0
319.82394,320.08997,57,20,0
320.08997,320.356,64,17,0
320.08997,320.356,67,23,0
320.356,320.622,57,20,0
320.622,320.8834,64,31,0
320.622,320.8834,61,23,0
320.8834,321.1448,57,21,0
321.1448,321.4062,62,18,0
321.1448,321.4062,65,24,0
321.4062,321.68073,57,21,0
321.68073,321.95035,67,32,0
321.68073,321.95035,64,24,0
321.95035,322.21997,57,20,0
322.21997,322.48022,65,23,0
322.21997,322.48022,62,24,0
322.48022,322.74048,57,20,0
322.74048,323.00073,60,24,0
322.74048,323.00073,64,32,0
323.00073,323.26102,57,21,0
323.26102,323.52127,58,18,0
323.26102,323.52127,62,24,0
323.52127,323.80624,57,21,0
323.80624,324.06995,61,32,0
324.06995,324.33362,57,23,0
324.33362,324.59732,62,23,0
324.33362,324.59732,59,19,0
324.59732,324.861,57,23,0
324.861,325.1224,64,31,0
324.861,325.1224,61,26,0
325.13437,325.39578,57,24,0
325.3838,325.64517,64,24,0
325.3838,325.64517,61,24,0
325.65805,325.93823,57,20,0
325.92615,326.18985,69,32,0
326.18985,326.45355,57,23,0
326.45355,326.71722,69,23,0
326.71722,326.98093,57,23,0
326.98093,327.2423,69,31,0
327.2543,327.5157,57,29,0
327.5037,327.7651,69,34,0
327.77798,328.05817,57,39,0
328.04608,328.30975,64,44,0
328.30975,328.57346,57,25,0
328.56027,328.82397,64,25,0
328.83716,329.10083,57,25,0
329.10083,329.35995,64,34,0
329.37186,329.63098,57,26,0
329.6191,329.87823,64,26,0
329.8911,330.17123,57,22,0
330.1592,330.42175,67,46,0
330.42175,330.6843,55,30,0
330.6843,330.94684,67,32,0
330.94684,331.20935,55,34,0
331.20935,331.46628,67,42,0
331.46628,331.7232,55,34,0
331.7232,331.9801,67,34,0
331.9801,332.2541,55,34,0
332.2541,332.511,66,48,0
332.511,332.7679,55,36,0
332.7679,333.0248,66,37,0
333.0248,333.28174,55,37,0
333.28174,333.53223,65,47,0
333.53223,333.7827,55,34,0
333.7827,334.03317,65,34,0
334.03317,334.30225,55,27,0
334.30225,334.55804,64,50,0
334.55804,334.81387,55,36,0
334.81387,335.0697,64,36,0
335.0697,335.32553,55,36,0
335.32553,335.5739,62,50,0
335.5739,335.82233,55,40,0
335.82233,336.07074,62,40,0
336.07074,336.3339,55,40,0
336.3339,336.58026,60,52,0
336.58026,336.82663,55,39,0
336.82663,337.073,60,42,0
337.073,337.31937,55,48,0
337.31937,337.56174,59,45,0
337.56174,337.80414,55,45,0
337.80414,338.0465,59,52,0
338.0465,338.29968,55,45,0
338.29968,338.54163,67,55,0
338.54163,338.7843,55,46,0
338.7843,339.02777,67,55,0
339.02777,339.27017,55,47,0
339.27017,339.51154,67,60,0
339.51154,339.75183,55,49,0
339.75183,339.99112,67,63,0
340.2396,340.47397,71,68,0
339.99112,340.47397,55,51,0
340.17496,340.47397,62,58,0
340.20728,340.47397,65,63,0
340.47397,340.70834,76,59,0
340.47397,340.70834,64,50,0
340.70834,340.94272,77,66,0
340.70834,340.94272,65,56,0
340.94272,341.0599,73,59,0
340.94272,341.0599,61,50,0
341.18546,341.3022,74,67,0
341.18546,341.3022,62,56,0
342.36154,342.595,52,49,0
342.595,342.8285,53,58,0
342.8285,342.94522,49,48,0
343.07074,343.18747,50,57,0
344.03207,344.28958,31,36,0
344.28958,344.5471,55,24,0
344.5471,344.793,56,31,0
344.793,345.0355,55,24,0
344.03207,345.0355,63,36,0
344.03207,345.0355,67,46,0
345.27643,345.52133,55,24,0
345.0355,345.52133,62,27,0
345.0355,345.52133,65,36,0
345.76624,346.02487,55,24,0
345.52133,346.02487,63,38,0
345.52133,346.02487,67,38,0
346.26392,346.5088,55,23,0
346.02487,346.73328,65,43,0
346.5088,346.7537,56,19,0
346.02487,346.7537,68,43,0
346.7537,346.97818,62,25,0
346.7537,346.9986,55,26,0
346.7537,346.9986,65,36,0
347.2367,347.4796,55,24,0
346.9986,347.4796,62,43,0
346.9986,347.4796,59,36,0
347.72253,347.97568,55,24,0
347.4796,347.97568,60,30,0
347.4796,347.97568,63,36,0
348.2226,348.4695,55,30,0
347.97568,348.4695,65,42,0
347.97568,348.4695,62,35,0
348.71146,348.95337,55,30,0
348.4695,348.95337,63,39,0
348.4695,348.95337,60,33,0
349.19055,349.4315,55,28,0
348.95337,349.4315,58,34,0
348.95337,349.4315,62,41,0
349.67245,349.92886,55,29,0
349.4315,349.92886,56,31,0
349.4315,349.92886,60,37,0
350.16696,350.41187,55,30,0
350.41187,350.65186,56,30,0
349.92886,350.65186,59,43,0
350.65186,350.89188,55,28,0
350.65186,350.89188,60,36,0
351.13187,351.37186,55,28,0
350.89188,351.37186,62,46,0
351.61188,351.86502,55,30,0
352.11502,352.36502,55,26,0
352.36502,352.60794,56,31,0
351.86502,352.8297,62,36,0
352.60794,352.84988,55,26,0
351.86502,352.84988,67,46,0
353.09183,353.33377,55,24,0
352.84988,353.33377,62,27,0
352.84988,353.33377,65,36,0
353.57568,353.83432,55,24,0
353.33377,353.83432,63,32,0
353.33377,353.83432,67,38,0
353.83432,354.07922,67,34,0
354.07922,354.3241,55,23,0
354.3241,354.56314,56,19,0
353.83432,354.56314,70,44,0
354.56314,354.80707,55,36,0
354.56314,354.80707,68,28,0
355.04996,355.29288,55,24,0
354.80707,355.29288,65,34,0
354.80707,355.29288,62,28,0
355.29288,355.5358,67,30,0
355.29288,355.5358,70,36,0
355.5358,355.78897,68,36,0
355.5358,355.78897,65,30,0
355.78897,356.02896,63,35,0
356.02896,356.27896,55,30,0
355.78897,356.27896,67,42,0
356.27896,356.5209,60,33,0
356.5209,356.76285,55,30,0
356.27896,356.76285,63,39,0
356.76285,356.99905,62,34,0
356.99905,357.24396,55,28,0
356.76285,357.24396,65,41,0
357.24396,357.4859,59,31,0
357.4859,357.7423,55,29,0
357.24396,357.7423,62,37,0
357.7423,357.98923,60,30,0
357.98923,358.2361,55,30,0
357.7423,358.2361,63,43,0
358.2361,358.47614,57,30,0
358.47614,358.71613,55,36,0
358.2361,358.71613,60,36,0
358.71613,358.9496,59,30,0
358.9496,359.1945,55,28,0
358.71613,359.1945,62,46,0
359.68765,360.66586,60,30,0
359.68765,360.66586,51,25,0
359.43448,360.66586,55,30,0
360.66586,361.6419,61,27,0
360.66586,361.6419,56,22,0
360.66586,361.6419,53,22,0
361.6419,362.61584,55,22,0
361.6419,362.61584,62,27,0
363.6131,364.62088,48,30,0
363.6131,364.62088,39,25,0
363.36102,364.62088,43,30,0
364.62088,365.66373,49,27,0
364.62088,365.66373,44,22,0
364.62088,365.66373,41,22,0
365.66373,366.75946,43,22,0
365.66373,366.75946,50,27,0
367.29758,367.56665,43,88,0
367.29758,367.56665,31,74,0
367.8357,368.72458,43,80,0
367.8357,368.72458,55,98,0
368.72458,369.16254,41,70,0
368.72458,369.16254,53,83,0
369.16254,369.61984,43,74,0
369.16254,369.61984,55,88,0
369.61984,370.2866,44,79,0
369.61984,370.2866,56,94,0
370.2866,370.50558,41,71,0
370.2866,370.50558,53,84,0
370.50558,370.94354,38,77,0
370.50558,370.94354,50,91,0
370.94354,371.39786,39,73,0
370.94354,371.39786,51,86,0
371.39786,371.8456,53,91,0
371.39786,371.8456,41,77,0
371.8456,372.28357,51,87,0
371.8456,372.28357,39,73,0
372.28357,372.72153,50,93,0
372.28357,372.72153,38,79,0
372.72153,373.1749,48,89,0
372.72153,373.1749,36,75,0
373.1749,374.0591,47,95,0
373.1749,374.0591,35,80,0
374.0591,374.4939,46,95,0
374.0591,374.4939,34,80,0
374.4939,374.89005,45,102,0
374.4939,374.89005,33,86,0
374.91983,374.94962,44,72,0
374.89005,374.94962,32,72,0
374.94962,375.61383,56,72,0
374.94962,375.61383,65,84,0
374.94962,375.61383,62,80,0
374.94962,375.61383,58,75,0
375.61383,375.82416,58,78,0
375.61383,375.82416,46,66,0
375.83524,376.27002,58,78,0
375.83524,376.27002,46,66,0
376.27002,376.3787,60,70,0
376.27002,376.3787,48,60,0
376.4874,376.60657,62,78,0
376.4874,376.60657,50,66,0
376.72574,376.83685,63,80,0
376.72574,376.83685,56,67,0
376.72574,376.83685,51,67,0
376.72574,376.83685,59,67,0
377.1702,377.60654,44,96,0
377.1702,377.60654,32,80,0
378.0429,378.4729,63,80,0
378.0429,378.4729,51,67,0
378.0429,378.4729,56,67,0
378.0429,378.4729,59,67,0
378.49646,379.13983,56,72,0
378.93762,379.1582,30,100,0
378.49646,379.1582,68,84,0
378.49646,379.1582,63,80,0
378.49646,379.1582,54,72,0
378.93762,379.1582,42,100,0
378.49646,379.1582,60,75,0
379.1582,379.35675,56,89,0
379.1582,379.35675,44,75,0
379.1582,379.35675,42,75,0
379.37878,379.79486,56,89,0
379.37878,379.79486,44,75,0
379.37878,379.79486,42,75,0
379.81674,379.92624,61,77,0
379.81674,379.92624,49,66,0
380.03574,380.1549,63,85,0
380.03574,380.1549,51,72,0
380.27408,380.38602,65,88,0
380.27408,380.38602,56,73,0
380.27408,380.38602,53,73,0
380.27408,380.38602,61,73,0
380.72183,381.16107,41,88,0
380.72183,381.16107,29,74,0
381.59903,381.96005,65,67,0
381.59903,381.96005,53,67,0
381.59903,381.96005,56,67,0
381.59903,381.96005,61,67,0
382.04526,382.27255,77,73,0
381.96005,382.27255,65,62,0
381.98843,382.27255,68,62,0
382.01685,382.27255,71,73,0
382.27255,382.49146,71,67,0
382.27255,382.49146,59,56,0
382.49146,382.7065,68,67,0
382.49146,382.7065,56,56,0
382.7065,382.92157,65,67,0
382.7065,382.92157,53,56,0
382.92157,383.13663,50,58,0
382.92157,383.13663,62,69,0
383.13663,383.35168,59,71,0
383.13663,383.35168,47,60,0
383.35168,383.57947,56,72,0
383.35168,383.57947,44,72,0
383.57947,383.76447,53,74,0
383.57947,383.76447,41,62,0
383.82614,384.04852,57,90,0
383.7953,384.04852,48,84,0
383.76447,384.04852,42,78,0
383.77988,384.04852,45,81,0
383.8107,384.04852,51,87,0
384.04852,384.1547,75,77,0
384.26086,384.36545,72,77,0
384.47006,384.57468,69,77,0
384.67926,384.78387,66,85,0
384.8885,384.99307,63,67,0
385.0977,385.20227,60,67,0
385.3069,385.4155,57,67,0
385.52414,385.62872,54,67,0
385.73334,385.83795,51,59,0
385.94254,386.04715,48,58,0
386.15176,386.25635,45,57,0
386.36096,386.46555,42,64,0
386.57016,386.67477,39,55,0
386.77936,386.88596,36,55,0
386.99252,387.10327,30,55,0
387.21405,388.0671,43,81,0
387.21405,388.0671,31,69,0
388.0671,388.6921,62,73,0
388.0671,388.6921,50,62,0
388.6921,388.9104,51,52,0
388.6921,388.9104,63,63,0
389.11948,389.32852,31,62,0
389.32852,389.54578,36,62,0
389.54578,389.77396,39,62,0
389.77396,389.98157,43,62,0
389.98157,390.18918,48,62,0
390.18918,390.3968,51,62,0
390.3968,390.6044,55,62,0
390.6044,391.45975,61,81,0
390.6044,391.45975,49,69,0
391.45975,392.0869,62,73,0
391.45975,392.0869,50,62,0
392.0869,392.30545,52,52,0
392.0869,392.30545,64,63,0
392.51306,392.72067,31,62,0
392.72067,392.94217,37,62,0
392.94217,393.1744,40,62,0
393.1744,393.38345,43,62,0
393.38345,393.59253,49,62,0
393.59253,393.80157,52,62,0
393.80157,394.01062,55,62,0
394.01062,394.8615,62,81,0
394.01062,394.8615,50,69,0
394.8615,395.49088,64,73,0
394.8615,395.49088,52,62,0
395.49088,395.70966,53,52,0
395.49088,395.70966,65,63,0
396.1461,396.56604,59,81,0
396.1461,396.56604,47,69,0
396.56604,397.19598,60,73,0
396.56604,397.19598,48,62,0
397.19598,397.41483,50,52,0
397.19598,397.41483,62,63,0
397.85446,398.27405,55,81,0
397.85446,398.27405,43,69,0
398.27405,398.9034,57,73,0
398.27405,398.9034,45,62,0
398.9034,399.12216,47,52,0
398.9034,399.12216,59,63,0
399.33295,399.5536,41,68,0
399.5536,399.77423,47,62,0
399.5536,399.77423,53,73,0
399.77423,399.9858,41,69,0
400.1956,400.40536,47,68,0
400.40536,400.61517,53,62,0
400.40536,400.61517,59,73,0
400.61517,400.83582,47,68,0
401.04657,401.26724,41,68,0
401.26724,401.48788,47,62,0
401.26724,401.48788,53,73,0
401.48788,401.69943,41,69,0
401.9085,402.11755,47,68,0
402.11755,402.32663,53,62,0
402.11755,402.32663,59,73,0
402.32663,402.54727,47,68,0
402.75803,402.9787,40,68,0
402.9787,403.19934,42,62,0
402.9787,403.19934,52,73,0
403.19934,403.4109,40,69,0
403.62216,403.83344,38,68,0
403.83344,404.04468,42,62,0
403.83344,404.04468,50,73,0
404.04468,404.26535,38,68,0
404.4761,404.69675,37,68,0
404.69675,404.91742,42,62,0
404.69675,404.91742,49,73,0
404.91742,405.12897,37,69,0
405.3405,405.55206,35,68,0
405.55206,405.7636,42,62,0
405.55206,405.7636,50,73,0
405.7636,405.9401,35,68,0
405.9989,406.43686,76,84,0
405.9548,406.43686,64,74,0
405.96948,406.43686,67,77,0
405.9842,406.43686,71,81,0
406.43686,406.65585,49,92,0
406.43686,406.65585,37,78,0
406.8814,407.31937,74,84,0
406.8391,407.31937,62,75,0
406.8532,407.31937,67,78,0
406.8673,407.31937,71,81,0
407.31937,407.53833,50,92,0
407.31937,407.53833,38,78,0
407.76733,408.21344,73,84,0
407.7244,408.21344,61,74,0
407.7387,408.21344,67,77,0
407.75302,408.21344,71,81,0
408.21344,408.4365,52,92,0
408.21344,408.4365,40,78,0
408.67844,409.13297,70,84,0
408.63306,409.13297,58,75,0
408.6482,409.13297,61,78,0
408.6633,409.13297,66,81,0
409.13297,409.36026,42,92,0
409.13297,409.36026,30,78,0
409.60513,410.45895,47,93,0
409.60513,410.45895,35,79,0
410.45895,411.09125,49,90,0
410.45895,411.09125,37,75,0
411.09125,411.288,38,59,0
411.09125,411.288,50,72,0
411.31033,412.16415,50,93,0
411.31033,412.16415,38,79,0
412.16415,412.79642,52,90,0
412.16415,412.79642,40,75,0
412.79642,413.01553,42,59,0
412.79642,413.01553,54,72,0
413.01553,413.45642,57,93,0
413.01553,413.45642,45,79,0
413.6692,413.8607,59,73,0
413.6692,413.8607,64,86,0
413.88196,414.3075,59,79,0
413.88196,414.3075,64,93,0
414.3075,414.41388,66,89,0
414.3075,414.41388,63,75,0
414.52026,414.62994,64,72,0
414.52026,414.62994,67,85,0
414.74622,415.1748,64,79,0
414.74622,415.1748,67,93,0
413.88196,415.1748,55,79,0
415.1748,415.38907,52,74,0
415.1748,415.38907,40,62,0
415.6138,415.82657,49,82,0
415.6138,415.82657,37,69,0
416.03934,416.2521,45,76,0
416.03934,416.2521,33,64,0
416.90576,417.0463,38,68,0
417.0463,417.1868,45,60,0
417.1868,417.30972,50,60,0
417.3273,417.53806,50,68,0
417.53806,417.74884,62,62,0
417.74884,417.9596,56,67,0
417.9596,418.17868,57,62,0
418.61096,418.75146,38,68,0
418.75146,418.892,45,60,0
418.892,419.01492,50,60,0
419.0325,419.24326,50,68,0
419.24326,419.454,62,62,0
419.454,419.6648,53,67,0
419.6648,419.88388,54,62,0
420.32477,420.4666,44,68,0
420.4666,420.59073,56,63,0
420.60846,420.7503,56,63,0
420.7503,420.89215,68,68,0
420.89215,421.0323,66,64,0
421.0323,421.15338,68,64,0
421.1707,421.3091,68,68,0
421.3091,421.4475,65,63,0
421.4475,421.60254,62,62,0
421.60254,421.7454,59,68,0
421.7454,421.88828,56,63,0
421.88828,422.0311,53,63,0
422.0311,422.17294,49,68,0
422.17294,422.3148,53,63,0
422.3148,422.46982,49,62,0
422.46982,422.61267,47,68,0
422.61267,422.75552,49,62,0
422.75552,422.89835,47,62,0
422.89835,423.0402,44,68,0
423.0402,423.18204,47,61,0
423.18204,423.32388,44,60,0
423.32388,424.1777,54,93,0
423.32388,424.1777,42,79,0
424.1777,424.80997,56,90,0
424.1777,424.80997,44,75,0
424.80997,425.00674,45,59,0
424.80997,425.00674,57,72,0
425.02908,425.88287,57,93,0
425.02908,425.88287,45,79,0
425.88287,426.51517,59,90,0
425.88287,426.51517,47,75,0
426.51517,426.73428,49,59,0
426.51517,426.73428,61,72,0
426.73428,427.17517,64,93,0
426.73428,427.17517,52,79,0
427.38794,427.57944,66,65,0
427.38794,427.57944,69,77,0
427.6007,428.02625,66,71,0
427.6007,428.02625,69,83,0
428.02625,428.13263,71,80,0
428.02625,428.13263,67,67,0
428.239,428.3487,69,64,0
428.239,428.3487,72,76,0
427.6007,428.46497,62,71,0
428.46497,428.89352,69,71,0
428.46497,428.89352,72,83,0
428.89352,429.10782,57,74,0
428.89352,429.10782,45,62,0
429.33255,429.54532,54,82,0
429.33255,429.54532,42,69,0
429.75806,429.97083,50,83,0
429.75806,429.97083,38,70,0
430.19165,430.3159,36,83,0
430.3159,430.43973,38,74,0
430.43973,430.56128,36,83,0
430.56216,430.682,38,76,0
430.682,430.80096,36,83,0
430.80185,430.92117,38,77,0
430.92117,431.03986,36,83,0
431.03986,431.4639,69,79,0
431.03986,431.4639,60,66,0
431.4639,431.5714,71,78,0
431.4639,431.5714,62,65,0
431.67896,431.7909,72,72,0
431.67896,431.7909,63,61,0
431.90167,432.02536,36,83,0
432.02536,432.14838,38,74,0
432.14838,432.26904,36,83,0
432.26993,432.3889,38,76,0
432.3889,432.5074,36,83,0
432.50824,432.62714,38,77,0
432.62714,432.74448,36,83,0
432.74448,433.1685,69,79,0
432.74448,433.1685,60,66,0
433.1685,433.27603,71,78,0
433.1685,433.27603,62,65,0
433.38354,433.49548,72,72,0
433.38354,433.49548,63,61,0
433.60742,433.74973,36,74,0
433.74973,433.89066,38,63,0
433.89066,434.03027,36,68,0
434.03027,434.1688,38,57,0
434.1688,434.30722,36,61,0
434.30722,434.44562,38,51,0
434.44562,434.584,36,54,0
434.584,434.72275,38,46,0
434.72275,434.86792,36,48,0
434.86792,435.01617,38,39,0
435.01617,435.16837,36,41,0
435.16837,435.32486,38,34,0
435.32486,435.77094,36,25,0
437.0751,437.5212,64,31,0
437.0751,437.5212,72,31,0
437.0751,437.5212,76,37,0
437.5212,437.6802,62,28,0
437.5212,437.6802,71,28,0
437.5212,437.6802,74,33,0
437.73322,437.90112,60,28,0
437.73322,437.90112,69,28,0
437.73322,437.90112,72,33,0
437.9571,438.39188,60,31,0
437.9571,438.39188,64,31,0
437.9571,438.39188,72,37,0
438.39188,438.55032,59,28,0
438.39188,438.55032,62,28,0
438.39188,438.55032,71,33,0
438.60315,438.7698,57,28,0
438.60315,438.7698,60,28,0
438.60315,438.7698,69,33,0
438.82538,439.27148,57,31,0
438.82538,439.27148,60,31,0
438.82538,439.27148,69,37,0
439.27148,439.43048,59,28,0
439.27148,439.43048,62,28,0
439.27148,439.43048,71,33,0
439.4835,439.6514,60,28,0
439.4835,439.6514,64,28,0
439.4835,439.6514,72,33,0
439.70737,440.14215,60,31,0
439.70737,440.14215,64,31,0
439.70737,440.14215,72,37,0
440.14215,440.29895,62,28,0
440.14215,440.29895,66,28,0
440.14215,440.29895,74,33,0
440.3512,440.51788,64,28,0
440.3512,440.51788,67,28,0
440.3512,440.51788,76,33,0
440.57343,441.01953,67,31,0
440.57343,441.01953,76,31,0
440.57343,441.01953,79,37,0
441.01953,441.18024,66,28,0
441.01953,441.18024,74,28,0
441.01953,441.18024,78,33,0
441.23383,441.40173,64,28,0
441.23383,441.40173,72,28,0
441.23383,441.40173,76,33,0
441.4577,441.8925,64,31,0
441.4577,441.8925,72,31,0
441.4577,441.8925,76,37,0
441.8925,442.05093,62,28,0
441.8925,442.05093,66,28,0
441.8925,442.05093,74,33,0
442.10373,442.27042,60,28,0
442.10373,442.27042,64,28,0
442.10373,442.27042,72,33,0
442.32596,442.77206,60,31,0
442.32596,442.77206,64,31,0
442.32596,442.77206,72,37,0
442.77206,442.9305,62,28,0
442.77206,442.9305,66,28,0
442.77206,442.9305,74,33,0
442.98334,443.15125,64,28,0
442.98334,443.15125,72,28,0
442.98334,443.15125,76,33,0
443.2072,443.642,64,31,0
443.2072,443.642,72,31,0
443.2072,443.642,76,37,0
443.642,443.7988,66,28,0
443.642,443.7988,69,28,0
443.642,443.7988,78,33,0
443.85104,444.01773,67,28,0
443.85104,444.01773,71,28,0
443.85104,444.01773,79,33,0
444.07327,444.51938,71,31,0
444.07327,444.51938,79,31,0
444.07327,444.51938,83,37,0
444.51938,444.67896,69,28,0
444.51938,444.67896,78,28,0
444.51938,444.67896,81,33,0
444.73215,444.90005,67,28,0
444.73215,444.90005,76,28,0
444.73215,444.90005,79,33,0
444.95602,445.3908,67,31,0
444.95602,445.3908,71,31,0
444.95602,445.3908,79,37,0
445.3908,445.54926,66,28,0
445.3908,445.54926,69,28,0
445.3908,445.54926,78,33,0
445.60208,445.76874,64,28,0
445.60208,445.76874,67,28,0
445.60208,445.76874,76,33,0
445.82428,446.24808,64,31,0
445.82428,446.24808,67,31,0
445.82428,446.24808,76,37,0
445.82428,446.24808,72,31,0
446.2704,446.42883,64,28,0
446.2704,446.42883,72,28,0
446.2704,446.42883,76,33,0
446.2704,446.42883,67,28,0
446.48166,446.64957,64,28,0
446.48166,446.64957,67,28,0
446.48166,446.64957,76,33,0
446.48166,446.64957,72,28,0
446.70554,446.82977,57,47,0
446.82977,446.95273,59,37,0
446.9536,447.07516,57,41,0
447.07605,447.1959,59,38,0
447.1959,447.31485,57,41,0
447.31573,447.43506,59,38,0
447.43506,447.55377,57,41,0
448.435,448.55927,45,42,0
448.55927,448.6822,47,33,0
448.68307,448.80463,45,36,0
448.8055,448.92535,47,34,0
448.92535,449.04434,45,36,0
449.0452,449.16455,47,34,0
449.16455,449.28323,45,36,0
449.28323,449.70703,64,31,0
449.28323,449.70703,67,31,0
449.28323,449.70703,76,37,0
449.28323,449.70703,72,31,0
449.72934,449.88834,64,28,0
449.72934,449.88834,72,28,0
449.72934,449.88834,76,33,0
449.72934,449.88834,67,28,0
449.94135,450.10925,64,28,0
449.94135,450.10925,67,28,0
449.94135,450.10925,76,33,0
449.94135,450.10925,72,28,0
450.16522,450.28946,57,47,0
450.28946,450.4124,59,37,0
450.4133,450.53485,57,41,0
450.53574,450.65558,59,38,0
450.65558,450.77454,57,41,0
450.77542,450.89474,59,38,0
450.89474,451.01346,57,41,0
451.89395,452.0182,45,42,0
452.0182,452.14114,47,33,0
452.14203,452.26358,45,36,0
452.26447,452.3843,47,34,0
452.3843,452.50327,45,36,0
452.50415,452.62347,47,34,0
452.7422,452.89087,38,39,0
452.89087,453.03958,40,33,0
453.03958,453.18826,38,39,0
453.18826,453.33112,40,32,0
453.33112,453.47717,38,39,0
453.47717,453.62643,40,33,0
453.62643,453.77515,38,39,0
453.77515,453.92383,40,33,0
453.92383,454.07254,38,39,0
454.07254,454.2154,40,33,0
454.2154,454.36145,38,39,0
454.36145,454.5107,40,34,0
454.5107,454.6594,38,39,0
454.6594,454.8081,40,33,0
454.8081,454.9568,38,39,0
454.9568,455.09967,40,32,0
455.09967,455.2457,38,39,0
455.2457,455.39496,40,33,0
455.39496,455.54367,38,39,0
455.54367,455.69235,40,33,0
455.69235,455.84106,38,39,0
455.84106,455.98392,40,33,0
455.98392,456.12997,38,39,0
456.12997,456.27924,40,34,0
456.27924,456.4252,38,39,0
456.4252,456.5708,40,33,0
456.5708,456.7158,38,39,0
456.7158,456.86014,40,32,0
456.86014,457.00394,38,39,0
457.00394,457.1471,40,33,0
457.1471,457.28995,36,39,0
457.28995,457.43298,38,33,0
457.43298,457.57635,36,39,0
457.57635,457.71988,38,33,0
457.71988,457.86377,36,39,0
457.86377,458.00766,38,34,0
452.62347,458.00766,45,36,0
458.00766,458.15155,36,39,0
458.15155,458.29544,38,32,0
458.29544,458.43933,36,38,0
458.43933,458.58374,38,32,0
458.58374,458.72815,36,37,0
458.72815,458.87256,38,31,0
458.87256,459.01727,33,36,0
459.01727,459.16333,38,30,0
459.16333,459.31076,33,35,0
459.31076,459.45944,38,29,0
459.45944,459.60962,33,34,0
459.60962,459.7784,38,29,0
459.7784,459.99994,31,45,0
459.99994,460.21268,59,37,0
460.21268,460.42545,64,40,0
460.42545,460.6382,62,36,0
460.6382,460.85098,69,40,0
460.85098,461.06375,67,37,0
461.06375,461.27652,62,40,0
461.27652,461.50552,59,37,0
461.72705,461.93982,52,36,0
461.93982,462.1526,59,40,0
462.1526,462.36536,57,38,0
462.36536,462.5781,66,40,0
462.5781,462.79086,64,37,0
462.79086,463.00363,61,40,0
463.00363,463.22836,55,37,0
463.4506,463.66336,50,36,0
463.66336,463.8761,64,40,0
463.8761,464.08887,62,38,0
464.08887,464.30164,72,40,0
464.30164,464.5144,69,37,0
464.5144,464.72717,66,40,0
464.72717,464.9782,62,37,0
465.20044,465.4132,55,36,0
465.4132,465.62598,64,40,0
465.62598,465.83875,62,38,0
465.83875,466.0515,69,40,0
466.0515,466.26428,67,37,0
466.26428,466.47705,62,40,0
466.47705,466.6968,59,37,0
466.91833,467.1311,40,40,0
467.1311,467.34384,54,44,0
467.34384,467.5566,52,39,0
467.5566,467.76938,60,44,0
467.76938,467.98215,59,40,0
467.98215,468.19492,55,44,0
468.19492,468.42392,52,40,0
468.64545,468.85822,49,39,0
468.85822,469.07098,55,44,0
469.07098,469.28375,54,41,0
469.28375,469.49652,64,44,0
469.49652,469.70926,61,40,0
469.70926,469.92203,58,44,0
469.92203,470.15918,54,40,0
470.3814,470.59418,42,39,0
470.59418,470.80695,62,44,0
470.80695,471.0197,61,41,0
471.0197,471.23248,66,44,0
471.23248,471.44525,64,40,0
471.44525,471.65802,61,44,0
471.65802,471.9235,54,40,0
472.14572,472.3585,47,38,0
472.3585,472.57126,61,42,0
472.57126,472.78403,59,39,0
472.78403,472.9968,55,41,0
472.9968,473.20956,54,31,0
473.20956,473.4223,50,34,0
473.4223,473.6421,47,26,0
473.6421,473.8636,45,30,0
473.66977,474.5019,62,30,0
473.6559,474.5019,54,30,0
474.5019,475.1402,64,29,0
474.5019,475.1402,57,24,0
475.1402,475.3463,66,23,0
475.1402,475.3463,62,19,0
475.3692,476.2331,66,30,0
475.3692,476.2331,62,30,0
476.2331,476.65863,64,29,0
476.2331,476.65863,57,24,0
476.8714,477.1004,57,24,0
476.8714,477.1004,64,29,0
477.5347,477.67654,33,29,0
477.67654,477.80066,45,25,0
477.8184,477.96024,45,25,0
477.96024,478.10208,57,33,0
478.10208,478.2439,56,29,0
478.2439,478.38574,59,29,0
478.38574,478.5276,57,33,0
478.5276,478.67487,54,26,0
478.67487,478.8275,45,26,0
479.2659,479.40775,33,29,0
479.40775,479.53186,45,25,0
479.5496,479.69144,45,25,0
479.69144,479.83328,57,33,0
479.83328,479.97513,56,29,0
479.97513,480.11697,59,29,0
480.11697,480.25882,57,33,0
480.25882,480.40607,54,26,0
480.40607,480.55875,45,26,0
480.55875,480.78024,45,30,0
480.58643,481.41855,62,30,0
480.57257,481.41855,54,30,0
481.41855,482.05685,64,29,0
481.41855,482.05685,57,24,0
482.05685,482.26297,66,23,0
482.05685,482.26297,62,19,0
482.28586,483.14975,66,30,0
482.28586,483.14975,62,30,0
483.14975,483.5753,64,29,0
483.14975,483.5753,57,24,0
483.78806,484.01706,57,24,0
483.78806,484.01706,64,29,0
484.01706,484.8636,67,33,0
484.01706,484.8769,71,33,0
484.8769,485.49744,64,26,0
484.8769,485.51517,67,31,0
485.51517,485.7442,64,25,0
485.51517,485.7442,61,20,0
485.7442,486.5878,67,33,0
485.7442,486.601,71,33,0
486.601,487.2172,64,26,0
486.601,487.2348,67,31,0
487.2348,487.4638,64,25,0
487.2348,487.4638,61,20,0
487.4638,488.306,67,33,0
487.4638,488.31915,70,33,0
488.31915,488.9332,64,26,0
488.31915,488.95074,67,31,0
488.95074,489.17975,64,25,0
488.95074,489.17975,61,20,0
489.17975,489.5967,67,39,0
489.17975,489.60376,70,39,0
489.60376,489.88116,64,31,0
489.60376,489.88644,67,38,0
489.88644,490.037,64,31,0
489.88644,490.037,61,25,0
490.037,490.44495,67,41,0
490.037,490.45364,70,41,0
490.45364,490.7314,67,41,0
490.45364,490.7314,64,34,0
490.7314,490.8825,64,33,0
490.7314,490.8825,61,27,0
490.8825,491.0208,70,57,0
490.8825,491.0208,67,57,0
491.0208,491.1584,64,49,0
491.1584,491.2957,61,52,0
491.2957,491.4328,73,62,0
491.4328,491.56955,70,54,0
491.56955,491.7062,67,54,0
491.7062,491.84244,76,69,0
491.84244,491.97852,73,62,0
491.97852,492.11423,70,63,0
492.11423,492.24994,79,76,0
492.24994,492.38565,76,64,0
492.38565,492.52542,73,66,0
492.96573,493.0793,52,58,0
492.96573,493.0793,64,70,0
493.19443,493.31134,49,52,0
493.19443,493.31134,61,61,0
493.43008,493.55197,58,81,0
493.43008,493.55197,46,68,0
493.67676,493.80206,55,76,0
493.67676,493.80206,43,64,0
493.92822,494.05698,52,93,0
493.92822,494.05698,40,78,0
494.18878,494.3237,49,85,0
494.18878,494.3237,37,72,0
494.46152,495.2143,36,75,0
494.46152,495.2143,43,79,0
494.46152,495.2143,48,88,0
495.2143,495.40692,48,78,0
495.2143,495.40692,43,66,0
495.2143,495.40692,36,66,0
495.42834,495.9037,48,78,0
495.42834,495.9037,43,66,0
495.42834,495.9037,36,66,0
495.9037,496.0154,50,70,0
495.9037,496.0154,38,60,0
496.12714,496.24908,52,78,0
496.12714,496.24908,48,66,0
496.12714,496.24908,40,66,0
496.37103,496.48477,53,80,0
496.37103,496.48477,48,67,0
496.37103,496.48477,41,67,0
496.82596,496.9397,52,74,0
496.82596,496.9397,48,62,0
496.82596,496.9397,40,62,0
497.9633,498.168,48,78,0
497.9633,498.168,43,66,0
497.9633,498.168,36,66,0
498.19073,498.64566,48,78,0
498.19073,498.64566,43,66,0
498.19073,498.64566,36,66,0
498.64566,498.7531,50,70,0
498.64566,498.7531,38,60,0
498.86053,498.9804,52,78,0
498.86053,498.9804,48,66,0
498.86053,498.9804,40,66,0
499.10028,499.32196,53,80,0
499.10028,499.32196,48,67,0
499.10028,499.32196,41,67,0
499.54364,499.64984,52,70,0
499.54364,499.64984,40,60,0
499.54364,499.64984,48,60,0
499.75604,499.87488,53,78,0
499.75604,499.87488,48,66,0
499.75604,499.87488,41,66,0
499.9937,500.10635,55,80,0
499.9937,500.10635,48,67,0
499.9937,500.10635,43,67,0
500.4442,500.55682,53,74,0
500.4442,500.55682,48,62,0
500.4442,500.55682,41,62,0
501.34518,501.4569,52,59,0
501.34518,501.4569,40,50,0
501.34518,501.4569,48,50,0
501.56863,501.69058,53,65,0
501.56863,501.69058,48,55,0
501.56863,501.69058,41,55,0
501.81253,501.9238,50,67,0
501.81253,501.9238,38,56,0
502.25766,502.37122,52,68,0
502.25766,502.37122,40,57,0
502.71182,502.82355,47,70,0
502.71182,502.82355,35,59,0
503.15872,503.27274,48,73,0
503.15872,503.27274,36,62,0
503.6153,504.51688,45,79,0
503.6153,504.51688,38,67,0
503.6153,504.51688,33,67,0
504.51688,504.95416,43,75,0
504.51688,504.95416,38,63,0
504.51688,504.95416,31,63,0
504.95416,505.05725,62,70,0
505.16034,505.26788,66,63,0
505.3754,505.48178,67,69,0
505.80093,505.90402,50,56,0
506.0071,506.11542,54,50,0
506.22372,506.33368,55,55,0
506.6636,506.77063,38,56,0
506.87766,506.99353,42,50,0
507.10944,507.55814,43,55,0
508.00696,508.45404,62,55,0
508.00696,508.45404,55,48,0
508.00696,508.45404,59,48,0
508.98773,509.6464,60,80,0
508.89362,509.6464,48,69,0
508.925,509.6464,51,72,0
508.95636,509.6464,55,77,0
509.6464,509.83902,48,71,0
509.6464,509.83902,36,60,0
509.6464,509.83902,43,60,0
509.86044,510.3358,48,71,0
509.86044,510.3358,36,60,0
509.86044,510.3358,43,60,0
510.3358,510.4475,50,64,0
510.3358,510.4475,38,55,0
510.55923,510.68118,51,71,0
510.55923,510.68118,39,60,0
510.80313,510.92032,53,73,0
510.80313,510.92032,48,61,0
510.80313,510.92032,41,61,0
511.27188,511.38553,53,68,0
511.27188,511.38553,48,57,0
511.27188,511.38553,41,57,0
512.18097,512.2946,56,73,0
512.18097,512.2946,44,61,0
512.7296,513.3883,65,80,0
512.6355,513.3883,49,69,0
512.6669,513.3883,56,72,0
512.69824,513.3883,61,77,0
513.3883,513.58093,49,71,0
513.3883,513.58093,37,60,0
513.60236,514.0777,49,71,0
513.60236,514.0777,37,60,0
514.0777,514.1894,51,64,0
514.0777,514.1894,39,55,0
514.30115,514.4231,53,71,0
514.30115,514.4231,41,60,0
514.54504,514.66364,54,65,0
514.54504,514.66364,49,54,0
514.54504,514.66364,42,54,0
515.01935,515.13385,54,61,0
515.01935,515.13385,49,51,0
515.01935,515.13385,42,51,0
515.93536,516.04913,57,73,0
515.93536,516.04913,45,61,0
516.4844,517.14307,66,80,0
516.3903,517.14307,50,69,0
516.4217,517.14307,57,72,0
516.453,517.14307,62,77,0
517.14307,517.3357,50,71,0
517.14307,517.3357,38,60,0
517.3571,517.83246,50,71,0
517.3571,517.83246,38,60,0
517.83246,517.9442,52,64,0
517.83246,517.9442,40,55,0
518.0559,518.17786,54,71,0
518.0559,518.17786,42,60,0
518.2998,518.4135,55,73,0
518.2998,518.4135,50,61,0
518.2998,518.4135,43,61,0
518.75476,518.86847,54,68,0
518.75476,518.86847,50,57,0
518.75476,518.86847,42,57,0
519.6646,519.7783,51,65,0
519.6646,519.7783,39,54,0
520.1195,520.235,50,68,0
520.1195,520.235,38,57,0
520.35046,520.5729,50,68,0
520.5729,520.9954,63,75,0
520.5729,520.9954,51,68,0
521.2128,521.4377,38,68,0
521.4377,521.87823,51,75,0
521.4377,521.87823,39,67,0
522.0997,522.32043,50,68,0
522.32043,522.743,63,75,0
522.32043,522.743,51,68,0
522.9629,523.1853,38,68,0
523.1853,523.6158,51,75,0
523.1853,523.6158,39,67,0
523.6158,523.8144,52,75,0
523.6158,523.8144,40,68,0
523.83655,524.05426,52,68,0
524.05426,524.4847,65,75,0
524.05426,524.4847,53,68,0
524.70386,524.9288,40,68,0
524.9288,525.35803,53,75,0
524.9288,525.35803,41,67,0
525.5772,525.78864,52,68,0
525.78864,526.2314,65,75,0
525.78864,526.2314,53,68,0
526.4412,526.651,40,68,0
526.651,527.2877,53,75,0
526.651,527.2877,41,67,0
527.2877,527.4939,41,68,0
527.4939,528.108,42,67,0
527.4939,528.1253,54,75,0
528.1253,528.3329,42,68,0
528.3329,528.96576,55,75,0
528.3329,528.96576,43,67,0
528.96576,529.17267,43,68,0
529.17267,529.7881,45,67,0
529.17267,529.8054,57,75,0
529.8054,530.0138,45,68,0
530.0138,530.63727,46,67,0
530.0138,530.6548,58,75,0
530.6548,530.8655,46,68,0
530.8655,531.4939,48,67,0
530.8655,531.5116,60,75,0
531.5116,531.72375,48,68,0
531.72375,532.1608,61,75,0
531.72375,532.1608,49,67,0
532.1608,532.36017,62,75,0
532.1608,532.36017,50,67,0
532.99304,533.0976,57,64,0
532.99304,533.0976,54,54,0
532.99304,533.0976,50,54,0
533.8643,533.9755,54,64,0
533.8643,533.9755,45,54,0
533.8643,533.9755,38,54,0
535.9077,536.1439,63,64,0
536.1439,536.3801,67,70,0
536.3801,536.6167,79,63,0
537.98065,538.2968,62,38,0
538.2968,538.6283,66,42,0
538.6283,538.9598,78,37,0
540.4904,540.75806,63,26,0
540.75806,541.0201,67,28,0
541.0201,541.2821,63,22,0
541.2821,541.5419,67,28,0
541.5419,541.80444,63,24,0
541.80444,542.06647,67,24,0
542.06647,542.3555,72,20,0
542.6251,542.8849,65,23,0
542.8849,543.1509,68,27,0
543.1509,543.41693,65,22,0
543.41693,543.6767,68,27,0
543.6767,543.9364,65,24,0
543.9364,544.19617,68,24,0
544.19617,544.4694,72,20,0
544.73663,544.99756,55,24,0
544.99756,545.2598,59,27,0
545.2598,545.5235,55,24,0
545.5235,545.78436,59,27,0
545.78436,546.0452,55,23,0
546.0452,546.3061,59,23,0
546.3061,546.6046,65,19,0
546.8742,547.14386,60,23,0
547.14386,547.4059,67,27,0
547.4059,547.66785,60,24,0
547.66785,547.9299,67,27,0
547.9299,548.1919,60,22,0
548.1919,548.4539,67,22,0
548.4539,548.7159,72,20,0
548.9995,549.2667,48,29,0
549.2667,549.5299,55,32,0
549.5299,549.7931,48,28,0
549.7931,550.0562,55,32,0
550.0562,550.32697,48,27,0
550.32697,550.6002,55,27,0
550.6002,550.89294,57,27,0
551.165,551.427,46,26,0
551.427,551.69183,55,31,0
551.69183,551.9567,58,27,0
551.9567,552.2187,63,39,0
552.2187,552.4807,58,34,0
552.4807,552.74274,55,37,0
552.74274,553.02905,51,40,0
553.02905,553.2951,45,44,0
553.2951,553.5611,50,38,0
553.5611,553.8231,55,38,0
553.8231,554.1002,58,38,0
554.1002,554.36505,43,51,0
554.36505,554.62994,50,40,0
554.62994,554.89166,55,42,0
554.89166,555.17267,58,42,0
555.17267,555.45496,38,57,0
555.45496,555.7186,50,44,0
555.7186,555.9823,53,44,0
555.9823,556.24603,58,44,0
556.24603,556.5097,70,53,0
556.5097,556.7672,65,44,0
556.7672,557.0281,62,44,0
557.0281,557.31036,58,44,0
557.31036,557.5764,50,53,0
557.5764,557.8424,53,42,0
557.8424,558.10846,58,44,0
558.10846,558.3745,65,41,0
558.6336,558.89276,54,39,0
558.89276,559.1588,60,42,0
559.1588,559.4248,63,39,0
559.7071,559.96796,55,39,0
559.96796,560.23584,58,42,0
560.23584,560.5037,63,39,0
560.764,561.02423,56,32,0
561.02423,561.2926,60,37,0
561.2926,561.56104,63,32,0
561.8433,562.11176,58,33,0
562.11176,562.3801,63,37,0
562.3801,562.64856,67,34,0
562.912,563.1768,65,34,0
563.1768,563.4417,68,34,0
563.4417,563.724,71,34,0
562.64856,563.724,59,44,0
563.9877,564.2514,63,30,0
564.2514,564.5111,68,34,0
564.5111,564.8059,72,29,0
563.724,564.8059,60,44,0
565.0731,565.34033,66,26,0
565.34033,565.61237,69,29,0
565.61237,565.88446,74,26,0
564.8059,565.88446,62,32,0
565.88446,566.15405,67,28,0
566.15405,566.42365,55,20,0
566.42365,566.6874,67,20,0
566.6874,566.9449,55,20,0
566.9449,567.2024,62,24,0
566.9449,567.2024,65,28,0
567.2024,567.4599,55,21,0
567.4599,567.7174,63,18,0
567.4599,567.7174,67,21,0
567.7174,568.0024,55,21,0
568.0024,568.2672,65,24,0
568.0024,568.2672,68,28,0
568.2672,568.5321,55,20,0
568.5321,568.79694,62,17,0
568.5321,568.79694,65,20,0
568.79694,569.0618,55,20,0
569.0618,569.31934,62,27,0
569.0618,569.31934,59,23,0
569.31934,569.57684,55,21,0
569.57684,569.83435,60,18,0
569.57684,569.83435,63,21,0
569.83435,570.1027,55,21,0
570.1027,570.37854,65,28,0
570.1027,570.37854,62,24,0
570.37854,570.65436,55,20,0
570.65436,570.91693,63,20,0
570.65436,570.91693,60,24,0
570.91693,571.17444,55,20,0
571.17444,571.43195,58,24,0
571.17444,571.43195,62,28,0
571.43195,571.68945,55,21,0
571.68945,571.94696,56,18,0
571.68945,571.94696,60,21,0
571.94696,572.23193,55,21,0
572.23193,572.4979,59,28,0
572.4979,572.764,55,20,0
572.764,573.026,57,17,0
572.764,573.026,60,20,0
573.026,573.288,55,20,0
573.288,573.54443,62,27,0
573.288,573.54443,59,23,0
573.54443,573.80084,55,21,0
573.80084,574.05725,59,21,0
574.05725,574.3382,55,21,0
574.3382,574.61273,67,28,0
574.3382,574.61273,63,24,0
574.61273,574.8873,55,20,0
574.8873,575.14703,67,20,0
574.8873,575.14703,63,24,0
575.14703,575.4068,55,20,0
575.4068,575.6665,62,24,0
575.4068,575.6665,65,28,0
575.6665,575.9263,55,21,0
575.9263,576.18604,63,18,0
575.9263,576.18604,67,22,0
576.18604,576.471,55,22,0
576.471,576.7319,67,26,0
576.471,576.7319,70,31,0
576.7319,576.99274,55,22,0
576.99274,577.2536,65,18,0
576.99274,577.2536,68,22,0
577.2536,577.51447,55,22,0
577.51447,577.7709,65,30,0
577.51447,577.7709,62,25,0
577.7709,578.0273,55,23,0
578.0273,578.2837,65,19,0
578.0273,578.2837,68,23,0
578.2837,578.5582,55,23,0
578.5582,578.8237,67,31,0
578.5582,578.8237,63,26,0
578.8237,579.08923,55,22,0
579.08923,579.3495,63,21,0
579.08923,579.3495,60,26,0
579.3495,579.60974,55,21,0
579.60974,579.87,62,25,0
579.60974,579.87,65,29,0
579.87,580.13025,55,21,0
580.13025,580.3905,59,18,0
580.13025,580.3905,62,21,0
580.3905,580.6755,55,21,0
580.6755,580.94635,63,28,0
580.6755,580.94635,60,24,0
580.94635,581.21716,55,20,0
581.21716,581.488,57,17,0
581.21716,581.488,60,20,0
581.488,581.75885,55,20,0
581.75885,582.02484,62,27,0
581.75885,582.02484,59,23,0
582.02484,582.2909,55,21,0
582.2909,582.5871,59,21,0
582.5871,582.8681,55,21,0
582.8681,583.1353,63,29,0
583.1353,583.38324,60,21,0
583.38324,583.63324,55,24,0
583.63324,583.90906,51,21,0
583.90906,584.1739,63,29,0
584.1739,584.42755,60,22,0
584.42755,584.6745,55,24,0
584.6745,584.9405,51,20,0
584.9405,585.2019,65,29,0
585.2019,585.4566,60,20,0
585.4566,585.7046,56,24,0
585.7046,585.9706,53,21,0
585.9706,586.23083,65,29,0
586.23083,586.48346,60,24,0
586.48346,586.7314,56,24,0
586.7169,586.98303,53,23,0
586.9986,587.25885,65,29,0
587.25885,587.5136,62,21,0
587.5136,587.76465,60,24,0
587.76465,588.04047,55,22,0
588.04047,588.3007,65,30,0
588.3007,588.5554,62,22,0
588.5554,588.80646,59,25,0
588.80646,589.08105,55,25,0
589.08105,589.34357,72,30,0
589.34357,589.5983,67,23,0
589.5983,589.84937,65,25,0
589.84937,590.1252,60,22,0
590.1252,590.39,72,31,0
590.39,590.6447,67,25,0
590.6447,590.8995,63,29,0
590.8995,591.174,60,26,0
591.174,591.44855,41,43,0
591.44855,591.72314,53,38,0
592.2414,594.44226,65,51,0
591.98224,594.44226,60,47,0
591.72314,594.44226,56,42,0
595.5256,595.8001,41,43,0
595.8001,596.07465,53,38,0
596.59296,598.23444,62,51,0
596.3338,598.23444,59,47,0
596.07465,598.23444,56,42,0
598.77856,599.5947,71,60,0
598.77856,599.5947,68,51,0
598.77856,599.5947,61,43,0
600.955,601.10004,46,45,0
601.08685,601.2313,47,37,0
601.21875,601.35736,46,37,0
601.3448,601.4834,45,37,0
601.4708,601.6095,46,45,0
601.59686,601.73553,49,42,0
601.7229,601.86426,54,45,0
601.849,602.0148,58,48,0
602.0016,602.77515,61,52,0
602.0016,602.77515,59,52,0
603.047,603.19073,58,45,0
603.1777,603.3215,59,37,0
603.3084,603.4517,58,37,0
603.4391,603.5783,57,37,0
603.5657,603.7049,58,45,0
603.69226,603.8315,61,42,0
603.81885,603.9598,66,45,0
603.94543,604.10236,70,48,0
604.0893,604.85486,73,59,0
604.0893,604.85486,71,59,0
605.1269,605.27124,83,51,0
605.2581,605.40204,80,42,0
605.3894,605.5281,77,42,0
605.51544,605.6541,73,42,0
605.64154,605.78015,71,51,0
605.7676,605.9062,68,48,0
605.8936,606.03424,65,51,0
606.01965,606.179,59,55,0
607.2114,608.25684,65,55,0
607.2114,608.25684,56,46,0
608.25684,609.2858,67,59,0
608.25684,609.2858,55,50,0
609.2858,611.356,68,62,0
609.2858,611.356,53,52,0
611.356,612.49554,65,54,0
611.356,612.49554,56,45,0
612.49554,613.56696,63,48,0
612.49554,613.56696,55,40,0
606.16565,613.56696,60,55,0
614.6894,615.8269,59,28,0
614.6894,615.8522,55,28,0
614.6894,615.8522,62,33,0
615.2461,615.8522,68,44,0
615.8522,616.5008,67,33,0
616.5008,617.23254,59,24,0
617.23254,618.2489,60,32,0
617.23254,618.2489,48,27,0
618.2489,618.4851,67,24,0
618.4851,618.7213,60,21,0
618.2489,618.7213,70,32,0
618.7213,618.9575,68,18,0
618.9575,619.20905,60,21,0
618.7213,619.20905,72,24,0
619.20905,619.45624,70,24,0
619.20905,619.45624,73,32,0
619.45624,619.69476,60,20,0
619.69476,619.9333,67,17,0
619.69476,619.9333,70,23,0
619.9333,620.1718,60,20,0
620.1718,620.4053,67,31,0
620.1718,620.4053,64,23,0
620.4053,620.6388,60,21,0
620.6388,620.87225,65,18,0
620.6388,620.87225,68,24,0
620.87225,621.12805,60,21,0
621.12805,621.37195,70,32,0
621.12805,621.37195,67,24,0
621.37195,621.6143,60,20,0
621.6143,621.85077,68,23,0
621.6143,621.85077,65,24,0
621.85077,622.0872,60,20,0
622.0872,622.31915,63,24,0
622.0872,622.31915,67,32,0
622.31915,622.551,60,21,0
622.551,622.7829,61,18,0
622.551,622.7829,65,24,0
622.7829,623.0355,60,21,0
623.0355,623.2803,64,32,0
623.2803,623.5151,60,23,0
623.5151,623.7499,65,23,0
623.5151,623.7499,62,19,0
623.7499,623.9847,60,23,0
623.9847,624.21405,67,31,0
623.9847,624.21405,64,26,0
624.2246,624.454,60,24,0
624.79407,624.9153,49,36,0
624.9153,625.03406,61,42,0
625.39044,625.50696,59,24,0
625.6234,625.7399,61,26,0
625.8564,626.08844,62,31,0
626.08844,626.3252,59,28,0
626.3252,626.44037,56,23,0
626.5555,626.67865,57,28,0
626.8019,627.0304,59,36,0
627.0304,627.2589,56,27,0
627.2589,627.3732,53,36,0
627.4875,627.60175,54,29,0
627.716,627.83435,56,35,0
627.95264,628.071,53,24,0
628.18933,628.3076,49,27,0
628.5528,628.68463,54,41,0
628.68463,628.80536,66,54,0
629.1674,629.283,64,41,0
629.3982,629.5133,66,41,0
629.6285,629.85443,67,49,0
629.85443,630.08575,64,43,0
630.08575,630.2036,61,37,0
630.3215,630.4533,62,43,0
630.58514,630.8128,64,47,0
630.8128,631.04047,61,37,0
631.04047,631.1543,58,47,0
631.2681,631.38196,59,37,0
631.4958,631.6123,61,48,0
631.7288,631.8453,58,40,0
631.9618,632.07825,54,48,0
632.4473,633.3483,47,68,0
632.4473,633.3483,59,83,0
633.3483,633.7966,45,60,0
633.3483,633.7966,57,71,0
633.7966,634.2591,47,64,0
633.7966,634.2591,59,76,0
634.2591,634.9406,48,69,0
634.2591,634.9406,60,82,0
634.9406,635.1648,45,63,0
634.9406,635.1648,57,75,0
635.1648,635.61304,42,69,0
635.1648,635.61304,54,81,0
635.61304,636.0726,43,66,0
635.61304,636.0726,55,78,0
636.0726,636.75507,57,83,0
636.0726,636.75507,45,70,0
636.75507,636.97833,54,80,0
636.75507,636.97833,42,67,0
636.97833,637.42487,51,87,0
636.97833,637.42487,39,74,0
637.42487,637.8825,52,84,0
637.42487,637.8825,40,71,0
637.8825,638.3536,48,91,0
637.8825,638.3536,36,76,0
638.3536,638.83795,49,84,0
638.3536,638.83795,37,70,0
638.83795,639.3223,45,93,0
638.83795,639.3223,33,78,0
639.3223,639.7228,43,100,0
639.3223,639.7228,31,85,0
639.7228,639.78955,29,63,0
639.78955,639.85626,41,63,0
639.85626,640.76624,64,63,0
639.85626,640.76624,53,53,0
639.85626,640.76624,58,53,0
639.86194,640.772,61,68,0
640.76624,641.22125,65,68,0
640.76624,641.22125,53,57,0
640.76624,641.22125,57,57,0
640.76624,641.22125,62,57,0
641.4487,641.587,29,63,0
641.587,641.7253,41,63,0
641.7253,642.63525,64,63,0
641.7253,642.63525,53,53,0
641.7253,642.63525,58,53,0
641.73096,642.6409,61,68,0
642.63525,643.0902,65,68,0
642.63525,643.0902,53,57,0
642.63525,643.0902,57,57,0
642.63525,643.0902,62,57,0
643.31775,643.456,29,63,0
643.456,643.59424,41,63,0
643.59424,644.5042,40,78,0
643.59424,644.5042,28,66,0
644.5042,645.4142,45,78,0
644.5042,645.4142,40,66,0
644.5042,645.4142,33,66,0
645.4142,646.30396,41,78,0
645.4142,646.30396,38,66,0
645.4142,646.30396,29,66,0
646.30396,647.2105,38,78,0
646.30396,647.2105,33,66,0
646.30396,647.2105,26,66,0
647.2105,648.09686,43,78,0
647.2105,648.09686,31,66,0
648.09686,648.90247,60,78,0
648.09686,648.90247,52,66,0
648.09686,648.90247,43,66,0
649.0207,649.4706,59,82,0
649.4706,649.583,60,77,0
649.6955,649.808,62,81,0
648.96155,649.808,50,60,0
648.90247,649.808,43,60,0
649.9204,650.3878,64,82,0
650.3878,650.49786,60,77,0
650.60785,650.7324,59,81,0
649.8642,650.7324,52,60,0
649.808,650.7324,43,60,0
650.85706,651.30695,57,82,0
651.30695,651.41943,61,77,0
651.53186,651.64435,64,81,0
650.79474,651.64435,49,60,0
650.7324,651.64435,43,60,0
651.75684,652.2242,65,82,0
652.2242,652.3342,62,77,0
652.4442,652.5683,60,81,0
651.70056,652.5683,50,60,0
651.64435,652.5683,43,60,0
652.6924,653.13983,59,82,0
653.13983,653.2498,62,77,0
653.36804,653.48627,63,81,0
652.6304,653.48627,50,60,0
652.5683,653.48627,43,60,0
653.6045,654.0719,64,82,0
654.0719,654.1819,60,77,0
654.2919,654.4101,59,81,0
653.54535,654.4101,52,60,0
653.48627,654.4101,43,60,0
654.5283,654.97577,57,82,0
654.97577,655.08575,60,77,0
655.204,655.3222,61,81,0
654.46924,655.3222,48,60,0
654.4101,655.3222,43,60,0
655.4404,655.90784,62,82,0
655.90784,656.0178,59,77,0
656.1278,656.2514,57,81,0
655.38135,656.2514,50,60,0
655.3222,656.2514,43,60,0
656.375,656.8224,55,82,0
656.8224,656.9324,57,77,0
657.0506,657.1689,59,81,0
656.375,657.1689,47,60,0
656.375,657.1689,43,60,0
657.2871,657.7345,60,82,0
657.7345,657.8445,62,77,0
657.9627,658.0863,64,81,0
657.22797,658.0863,48,60,0
657.1689,658.0863,43,60,0
658.179,658.566,54,52,0
658.1172,658.59564,43,52,0
658.1481,658.59564,48,52,0
658.2099,658.59564,66,62,0
658.6847,659.5453,63,60,0
658.59564,659.5453,43,51,0
658.62537,659.5453,48,50,0
658.655,659.5453,54,50,0
659.6343,660.0201,60,55,0
659.5453,660.0201,43,47,0
659.57495,660.0201,48,47,0
659.6046,660.0201,54,46,0
660.0794,660.54895,55,45,0
660.0201,660.5783,43,45,0
660.04974,660.5783,50,45,0
660.1091,660.5783,59,53,0
660.5783,660.8022,47,61,0
660.5783,660.8022,43,61,0
660.9141,661.02606,47,55,0
661.02606,661.4672,49,61,0
661.4672,661.9282,61,63,0
661.9282,662.1575,62,62,0
661.02606,662.1575,43,61,0
662.39465,662.62195,43,61,0
662.3994,662.62665,50,61,0
662.7356,662.8492,50,56,0
662.8492,663.29364,51,62,0
663.29364,663.7521,63,64,0
663.7521,663.9787,64,65,0
662.8492,663.9787,43,62,0
664.2053,664.4292,43,64,0
664.2053,664.4292,52,64,0
664.54114,664.6531,52,58,0
664.6531,665.09265,53,65,0
665.09265,665.31244,65,68,0
665.4262,665.5478,53,59,0
664.6531,665.5478,43,65,0
665.5478,665.77106,54,68,0
665.9943,666.21594,66,69,0
666.33154,666.3941,54,51,0
665.5478,666.45667,43,67,0
666.3941,666.45667,43,59,0
666.45667,666.9078,55,70,0
666.4358,666.9078,53,59,0
666.415,666.9078,50,59,0
666.9078,667.3727,55,59,0
666.9078,667.3727,65,59,0
666.9078,667.3727,67,71,0
666.9078,667.3727,62,59,0
667.3727,667.5255,31,71,0
667.5255,667.6592,43,63,0
667.6783,667.8391,43,63,0
667.8391,667.99066,55,71,0
667.99066,668.14215,54,63,0
668.14215,668.29364,57,63,0
668.29364,668.44073,55,71,0
668.44073,668.58777,52,62,0
668.58777,668.73486,46,62,0
668.73486,668.8819,43,71,0
668.8819,669.02893,40,63,0
669.02893,669.1911,34,62,0
669.1911,669.3439,29,71,0
669.3439,669.4776,41,63,0
669.4967,669.65753,41,63,0
669.65753,669.809,52,71,0
669.809,669.9606,55,63,0
669.9606,670.11206,53,63,0
670.11206,670.2597,52,71,0
670.2597,670.4073,49,63,0
670.4073,670.5549,46,63,0
670.5549,670.70245,43,73,0
670.70245,670.8501,40,64,0
670.8501,671.0122,37,64,0
671.0122,671.1643,26,73,0
671.1643,671.29736,38,66,0
671.3164,671.4772,38,66,0
671.4772,671.6293,50,75,0
671.6293,671.7814,49,66,0
671.7814,671.9335,52,67,0
671.9335,672.08105,50,75,0
672.08105,672.22864,45,66,0
672.22864,672.3763,41,66,0
672.3763,672.52386,38,77,0
672.52386,672.67145,33,68,0
672.67145,672.83356,26,68,0
672.83356,672.9864,31,78,0
672.9864,673.1201,43,69,0
673.1392,673.30005,43,69,0
673.30005,673.4534,55,79,0
673.4534,673.6069,54,70,0
673.6069,673.76025,55,71,0
673.76025,673.909,43,80,0
673.909,674.03906,55,70,0
674.0577,674.20636,55,70,0
674.20636,674.3558,67,81,0
674.3558,674.5052,66,72,0
674.5052,674.6673,69,71,0
674.6673,674.8201,67,82,0
674.8201,674.9729,64,73,0
674.9729,675.1337,59,73,0
675.1337,675.2872,55,83,0
675.2872,675.44055,50,74,0
675.44055,675.594,47,74,0
675.594,675.74335,43,84,0
675.74335,675.89276,38,74,0
675.89276,676.0422,35,74,0
676.0422,676.1916,31,85,0
676.1916,676.34094,38,76,0
676.34094,676.50305,43,75,0
676.50305,676.98944,36,86,0
677.2326,677.43207,60,74,0
677.2326,677.43207,55,63,0
677.2326,677.43207,48,63,0
677.4542,677.94855,60,74,0
677.4542,677.94855,55,63,0
677.4542,677.94855,48,63,0
677.94855,678.0641,62,67,0
677.94855,678.0641,50,57,0
678.17957,678.3068,64,74,0
678.17957,678.3068,60,63,0
678.17957,678.3068,52,63,0
678.4341,678.5509,65,77,0
678.4341,678.5509,60,64,0
678.4341,678.5509,53,64,0
678.9015,679.0183,64,71,0
678.9015,679.0183,60,59,0
678.9015,679.0183,52,59,0
680.06995,680.30786,45,69,0
680.06995,680.30786,33,58,0
680.3343,681.3263,45,74,0
680.3343,681.3263,33,62,0
681.3585,681.8355,41,74,0
681.3585,681.8355,29,62,0
681.8606,682.38116,40,74,0
681.8606,682.38116,28,62,0
682.40857,683.4353,26,68,0
683.4353,684.75775,31,65,0
682.40857,684.79895,38,80,0
684.79895,687.52625,36,82,0
684.79895,687.52625,24,69,0
