start_time,end_time,note_value,velocity,instrument_program_number
0.0,0.206143,52,76,0
0.618429,1.1949825,83,63,0
0.618429,1.1949825,86,75,0
0.618429,1.1949825,74,63,0
1.1949825,1.771536,72,62,0
1.1949825,1.771536,84,73,0
1.1949825,1.771536,81,73,0
1.771536,2.3480895,81,75,0
1.771536,2.3480895,69,63,0
1.771536,2.3480895,78,63,0
2.3480895,2.428713,79,59,0
2.3480895,2.428713,71,59,0
2.3480895,2.428713,83,70,0
2.5093365,2.5931356,79,62,0
2.5093365,2.5931356,76,52,0
2.5093365,2.5931356,67,52,0
2.6769345,2.757558,69,55,0
2.6769345,2.757558,78,54,0
2.6769345,2.757558,81,70,0
2.8381815,2.9211597,66,53,0
2.8381815,2.9211597,75,53,0
2.8381815,2.9211597,78,63,0
3.004138,3.0852718,67,59,0
3.004138,3.0852718,76,59,0
3.004138,3.0852718,79,70,0
3.1664054,3.2507558,73,54,0
3.1664054,3.2507558,76,64,0
3.1664054,3.2507558,64,54,0
3.335106,3.4353466,75,59,0
3.335106,3.4353466,66,59,0
3.335106,3.4353466,78,70,0
3.736068,3.8283415,75,58,0
3.736068,3.8283415,78,69,0
3.736068,3.8283415,66,58,0
4.641854,4.724299,61,52,0
4.641854,4.724299,73,62,0
4.8067436,4.8886614,75,64,0
4.8067436,4.8886614,63,54,0
4.9705796,5.0524974,76,66,0
4.9705796,5.0524974,64,56,0
5.1344156,5.2142324,78,67,0
5.1344156,5.2142324,66,56,0
5.2940493,5.3738666,79,69,0
5.2940493,5.3738666,67,58,0
5.4536834,5.553924,75,59,0
5.4536834,5.553924,78,70,0
5.4536834,5.553924,66,59,0
5.8546457,5.946919,83,69,0
5.8546457,5.946919,71,58,0
6.7773805,6.859825,61,52,0
6.7773805,6.859825,73,62,0
6.94227,7.024188,75,64,0
6.94227,7.024188,63,54,0
7.106106,7.188024,76,66,0
7.106106,7.188024,64,56,0
7.269942,7.3500104,78,67,0
7.269942,7.3500104,66,56,0
7.4300785,7.5101466,79,69,0
7.4300785,7.5101466,67,58,0
7.590215,7.6904554,78,59,0
7.590215,7.6904554,81,70,0
7.590215,7.6904554,69,59,0
7.991177,8.083787,86,69,0
7.991177,8.083787,74,58,0
8.732055,8.938198,55,76,0
9.350484,9.9201765,81,63,0
9.350484,9.9201765,93,75,0
9.350484,9.9201765,89,63,0
9.9201765,10.489869,79,62,0
9.9201765,10.489869,88,73,0
9.9201765,10.489869,91,73,0
10.489869,11.059562,88,75,0
10.489869,11.059562,76,63,0
10.489869,11.059562,84,63,0
11.059562,11.140185,77,59,0
11.059562,11.140185,89,70,0
11.059562,11.140185,86,59,0
11.220808,11.304607,74,52,0
11.220808,11.304607,83,52,0
11.220808,11.304607,86,62,0
11.388407,11.46903,88,70,0
11.388407,11.46903,76,55,0
11.388407,11.46903,84,54,0
11.549653,11.632631,72,53,0
11.549653,11.632631,84,63,0
11.549653,11.632631,81,53,0
11.71561,11.796743,83,59,0
11.71561,11.796743,86,70,0
11.71561,11.796743,74,59,0
11.877877,11.962228,79,54,0
11.877877,11.962228,83,64,0
11.877877,11.962228,71,54,0
12.046578,12.146818,84,70,0
12.046578,12.146818,72,59,0
12.046578,12.146818,81,59,0
12.44754,12.539813,84,69,0
12.44754,12.539813,72,58,0
12.44754,12.539813,81,58,0
12.632087,13.185728,77,59,0
12.632087,13.185728,81,70,0
12.632087,13.185728,69,59,0
13.353326,13.435771,67,47,0
13.353326,13.435771,79,56,0
13.518215,13.600134,83,58,0
13.518215,13.600134,71,49,0
13.682052,13.763969,72,51,0
13.682052,13.763969,84,60,0
13.845887,13.925705,86,62,0
13.845887,13.925705,74,52,0
14.005522,14.085339,88,64,0
14.005522,14.085339,76,54,0
14.165155,14.258375,91,70,0
14.145202,14.258375,84,60,0
14.125247,14.258375,79,60,0
14.538034,14.626109,89,58,0
14.538034,14.626109,77,49,0
14.714184,15.242633,72,48,0
14.714184,15.242633,84,57,0
15.410231,15.492675,69,48,0
15.410231,15.492675,81,58,0
15.57512,15.657038,83,63,0
15.57512,15.657038,71,53,0
15.738956,15.820874,72,57,0
15.738956,15.820874,84,67,0
15.902792,15.982609,74,61,0
15.902792,15.982609,86,73,0
16.062426,16.142242,88,78,0
16.062426,16.142242,76,65,0
16.22206,16.31494,91,87,0
16.202106,16.31494,87,75,0
16.182152,16.31494,79,75,0
16.593576,16.679863,78,58,0
16.593576,16.679863,90,69,0
16.76615,17.283867,81,67,0
16.76615,17.283867,69,56,0
17.283867,17.49001,52,76,0
17.902296,18.47885,74,63,0
17.902296,18.47885,86,75,0
17.902296,18.47885,83,63,0
18.47885,19.055403,81,73,0
18.47885,19.055403,84,73,0
18.47885,19.055403,72,62,0
19.055403,19.631956,81,75,0
19.055403,19.631956,69,63,0
19.055403,19.631956,78,63,0
19.631956,19.71258,79,59,0
19.631956,19.71258,71,59,0
19.631956,19.71258,83,70,0
19.793203,19.877003,67,52,0
19.793203,19.877003,79,62,0
19.793203,19.877003,76,52,0
19.960802,20.041426,81,70,0
19.960802,20.041426,69,55,0
19.960802,20.041426,78,54,0
20.12205,20.205027,66,53,0
20.12205,20.205027,78,63,0
20.12205,20.205027,75,53,0
20.288006,20.369139,76,59,0
20.288006,20.369139,67,59,0
20.288006,20.369139,79,70,0
20.450272,20.534622,76,64,0
20.450272,20.534622,73,54,0
20.450272,20.534622,64,54,0
20.618973,20.719213,78,70,0
20.618973,20.719213,66,59,0
20.618973,20.719213,75,59,0
21.019936,21.11221,78,69,0
21.019936,21.11221,75,58,0
21.019936,21.11221,66,58,0
21.92572,22.008165,73,62,0
21.92572,22.008165,61,52,0
22.09061,22.17253,63,54,0
22.09061,22.17253,75,64,0
22.254446,22.336365,64,56,0
22.254446,22.336365,76,66,0
22.418282,22.4981,78,67,0
22.418282,22.4981,66,56,0
22.577917,22.657734,67,58,0
22.577917,22.657734,79,69,0
22.73755,22.837791,66,59,0
22.73755,22.837791,75,59,0
22.73755,22.837791,78,70,0
23.138512,23.230785,71,58,0
23.138512,23.230785,83,69,0
24.061247,24.143692,73,62,0
24.061247,24.143692,61,52,0
24.226137,24.308056,63,54,0
24.226137,24.308056,75,64,0
24.389973,24.471891,76,66,0
24.389973,24.471891,64,56,0
24.553808,24.633877,66,56,0
24.553808,24.633877,78,67,0
24.713945,24.794014,79,69,0
24.713945,24.794014,67,58,0
24.874083,24.974323,81,70,0
24.874083,24.974323,78,59,0
24.874083,24.974323,69,59,0
25.275043,25.367653,74,58,0
25.275043,25.367653,86,69,0
26.015923,26.222065,55,76,0
26.634352,27.204044,93,75,0
26.634352,27.204044,81,63,0
26.634352,27.204044,89,63,0
27.204044,27.773735,79,62,0
27.204044,27.773735,91,73,0
27.204044,27.773735,88,73,0
27.773735,28.343428,84,63,0
27.773735,28.343428,76,63,0
27.773735,28.343428,88,75,0
28.343428,28.424051,86,59,0
28.343428,28.424051,77,59,0
28.343428,28.424051,89,70,0
28.504675,28.588474,83,52,0
28.504675,28.588474,86,62,0
28.504675,28.588474,74,52,0
28.672274,28.752897,84,54,0
28.672274,28.752897,88,70,0
28.672274,28.752897,76,55,0
28.83352,28.916498,81,53,0
28.83352,28.916498,72,53,0
28.83352,28.916498,84,63,0
28.999477,29.08061,74,59,0
28.999477,29.08061,86,70,0
28.999477,29.08061,83,59,0
29.161745,29.246096,79,54,0
29.161745,29.246096,71,54,0
29.161745,29.246096,83,64,0
29.330444,29.430685,84,70,0
29.330444,29.430685,72,59,0
29.330444,29.430685,81,59,0
29.731407,29.82368,81,58,0
29.731407,29.82368,72,58,0
29.731407,29.82368,84,69,0
29.915955,30.469595,81,70,0
29.915955,30.469595,69,59,0
29.915955,30.469595,77,59,0
30.637194,30.719637,79,56,0
30.637194,30.719637,67,47,0
30.802082,30.884,83,58,0
30.802082,30.884,71,49,0
30.965918,31.047836,72,51,0
30.965918,31.047836,84,60,0
31.129755,31.209572,74,52,0
31.129755,31.209572,86,62,0
31.289389,31.369205,88,64,0
31.289389,31.369205,76,54,0
31.449022,31.542242,91,70,0
31.429068,31.542242,84,60,0
31.409115,31.542242,79,60,0
31.821901,31.909977,77,49,0
31.821901,31.909977,89,58,0
31.99805,32.5265,72,48,0
31.99805,32.5265,84,57,0
32.694096,32.776543,81,58,0
32.694096,32.776543,69,48,0
32.858986,32.940907,71,53,0
32.858986,32.940907,83,63,0
33.022823,33.10474,84,67,0
33.022823,33.10474,72,57,0
33.18666,33.266476,74,61,0
33.18666,33.266476,86,73,0
33.346294,33.42611,76,65,0
33.346294,33.42611,88,78,0
33.505928,33.598804,91,87,0
33.485973,33.598804,87,75,0
33.46602,33.598804,79,75,0
33.877445,33.96373,78,58,0
33.877445,33.96373,90,69,0
34.05002,34.567734,81,67,0
34.05002,34.567734,69,56,0
34.567734,34.773876,48,76,0
35.186165,35.76272,58,59,0
35.186165,35.76272,70,71,0
35.186165,35.76272,67,59,0
35.76272,36.33927,65,69,0
35.76272,36.33927,69,69,0
35.76272,36.33927,57,58,0
36.33927,36.915825,53,59,0
36.33927,36.915825,65,71,0
36.33927,36.915825,62,59,0
36.915825,36.99645,64,56,0
36.915825,36.99645,67,66,0
36.915825,36.99645,55,56,0
37.077072,37.16087,52,49,0
37.077072,37.16087,64,58,0
37.244667,37.32529,53,52,0
37.244667,37.32529,65,66,0
37.405914,37.488895,50,50,0
37.405914,37.488895,62,59,0
37.571873,37.653008,52,56,0
37.571873,37.653008,64,66,0
37.73414,37.81849,49,51,0
37.73414,37.81849,61,60,0
37.90284,38.003082,50,56,0
37.90284,38.003082,62,66,0
38.303802,38.396076,62,65,0
38.303802,38.396076,50,55,0
39.04199,39.248135,51,76,0
39.66042,40.236973,61,59,0
39.66042,40.236973,70,59,0
39.66042,40.236973,73,71,0
40.236973,40.813526,60,58,0
40.236973,40.813526,68,69,0
40.236973,40.813526,72,69,0
40.813526,41.39008,56,59,0
40.813526,41.39008,65,59,0
40.813526,41.39008,68,71,0
41.39008,41.470703,70,66,0
41.39008,41.470703,67,56,0
41.39008,41.470703,58,56,0
41.551327,41.635124,55,49,0
41.551327,41.635124,67,58,0
41.718925,41.79955,56,52,0
41.718925,41.79955,68,66,0
41.880173,41.96315,53,50,0
41.880173,41.96315,65,59,0
42.046127,42.127262,55,56,0
42.046127,42.127262,67,66,0
42.208397,42.292747,52,51,0
42.208397,42.292747,64,60,0
42.377094,42.477337,65,66,0
42.377094,42.477337,53,56,0
42.778057,42.87033,65,65,0
42.778057,42.87033,53,55,0
43.516247,43.72239,54,76,0
44.134674,44.711227,85,67,0
44.134674,44.711227,88,81,0
44.134674,44.711227,76,67,0
44.711227,45.28778,75,66,0
44.711227,45.28778,87,79,0
44.711227,45.28778,83,79,0
45.28778,45.864334,80,67,0
45.28778,45.864334,83,81,0
45.28778,45.864334,71,67,0
46.482765,47.05932,64,42,0
47.05932,47.63587,62,41,0
47.63587,48.212425,59,42,0
48.212425,48.414444,54,91,0
48.616467,48.808773,76,64,0
48.616467,48.808773,85,64,0
48.616467,48.808773,88,78,0
48.808773,49.193386,87,75,0
48.808773,49.193386,75,75,0
48.808773,49.193386,83,75,0
49.193386,49.385696,80,64,0
49.193386,49.385696,83,78,0
49.193386,49.385696,71,64,0
49.789734,49.982044,88,64,0
49.789734,49.982044,80,64,0
49.789734,49.982044,92,78,0
49.982044,50.366657,78,75,0
49.982044,50.366657,87,75,0
49.982044,50.366657,90,75,0
50.366657,50.558964,83,64,0
50.366657,50.558964,87,78,0
50.366657,50.558964,75,64,0
50.958965,51.150658,64,42,0
51.150658,51.534046,62,41,0
51.534046,51.72574,59,42,0
52.12574,52.317432,61,42,0
52.317432,52.70082,59,41,0
52.70082,52.892513,55,42,0
52.892513,53.237343,54,41,0
54.448814,54.535023,61,22,0
54.448814,54.535023,66,26,0
54.448814,54.535023,64,22,0
54.448814,54.535023,58,22,0
54.62123,54.707436,66,30,0
54.62123,54.707436,61,25,0
54.62123,54.707436,58,25,0
54.62123,54.707436,64,25,0
54.793644,54.88293,64,22,0
54.793644,54.88293,58,22,0
54.793644,54.88293,66,26,0
54.793644,54.88293,61,22,0
54.972214,55.058422,63,28,0
54.972214,55.058422,59,28,0
54.972214,55.058422,66,33,0
55.489456,55.575665,58,22,0
55.489456,55.575665,61,26,0
55.489456,55.575665,52,22,0
55.489456,55.575665,54,22,0
55.661873,55.748077,63,30,0
55.661873,55.748077,52,25,0
55.661873,55.748077,54,25,0
55.661873,55.748077,58,25,0
55.834286,55.923573,61,26,0
55.834286,55.923573,52,22,0
55.834286,55.923573,54,22,0
55.834286,55.923573,58,22,0
56.012856,56.099815,59,33,0
56.012856,56.099815,54,28,0
56.012856,56.099815,51,28,0
56.534595,56.62155,64,22,0
56.534595,56.62155,58,22,0
56.534595,56.62155,66,26,0
56.534595,56.62155,61,22,0
56.708508,56.795467,66,30,0
56.708508,56.795467,58,25,0
56.708508,56.795467,61,25,0
56.708508,56.795467,64,25,0
56.882423,56.971706,58,22,0
56.882423,56.971706,61,22,0
56.882423,56.971706,66,26,0
56.882423,56.971706,64,22,0
57.060993,57.14795,59,28,0
57.060993,57.14795,63,28,0
57.060993,57.14795,66,33,0
57.582733,57.66969,54,22,0
57.582733,57.66969,58,22,0
57.582733,57.66969,61,26,0
57.582733,57.66969,52,22,0
57.756645,57.8436,63,30,0
57.756645,57.8436,58,25,0
57.756645,57.8436,52,25,0
57.756645,57.8436,54,25,0
57.930557,58.019844,54,22,0
57.930557,58.019844,58,22,0
57.930557,58.019844,52,22,0
57.930557,58.019844,61,26,0
58.10913,58.19634,51,28,0
58.10913,58.19634,59,33,0
58.10913,58.19634,54,28,0
58.632385,58.719593,68,28,0
58.632385,58.719593,66,23,0
58.632385,58.719593,60,23,0
58.632385,58.719593,63,23,0
58.806805,58.894012,60,27,0
58.806805,58.894012,66,27,0
58.806805,58.894012,68,33,0
58.806805,58.894012,63,27,0
58.981224,59.070507,68,29,0
58.981224,59.070507,63,25,0
58.981224,59.070507,60,25,0
58.981224,59.070507,66,25,0
59.159794,59.24675,68,38,0
59.159794,59.24675,61,32,0
59.159794,59.24675,64,32,0
59.681534,59.76849,66,32,0
59.681534,59.76849,58,27,0
59.681534,59.76849,61,27,0
59.681534,59.76849,64,27,0
59.855446,59.9424,66,38,0
59.855446,59.9424,58,32,0
59.855446,59.9424,63,32,0
59.855446,59.9424,64,32,0
60.029358,60.118645,61,28,0
60.029358,60.118645,64,28,0
60.029358,60.118645,66,34,0
60.029358,60.118645,58,28,0
60.20793,60.29514,66,43,0
60.20793,60.29514,63,37,0
60.20793,60.29514,59,37,0
60.731186,60.818394,66,31,0
60.731186,60.818394,63,31,0
60.731186,60.818394,69,31,0
60.731186,60.818394,71,36,0
60.905605,60.992813,71,43,0
60.905605,60.992813,63,36,0
60.905605,60.992813,66,36,0
60.905605,60.992813,69,36,0
61.080025,61.169308,71,38,0
61.080025,61.169308,63,32,0
61.080025,61.169308,66,32,0
61.080025,61.169308,69,32,0
61.258595,61.346058,68,42,0
61.258595,61.346058,71,49,0
61.258595,61.346058,64,42,0
61.783375,61.87084,71,39,0
61.783375,61.87084,73,47,0
61.783375,61.87084,65,39,0
61.783375,61.87084,68,39,0
61.9583,62.045765,65,46,0
61.9583,62.045765,73,55,0
61.9583,62.045765,71,46,0
61.9583,62.045765,68,46,0
62.13323,62.222515,71,41,0
62.13323,62.222515,68,41,0
62.13323,62.222515,65,41,0
62.13323,62.222515,73,48,0
62.311802,62.399265,73,63,0
62.311802,62.399265,66,52,0
62.311802,62.399265,70,52,0
62.845142,62.93235,76,55,0
62.845142,62.93235,85,55,0
62.845142,62.93235,90,65,0
62.845142,62.93235,82,55,0
63.019558,63.10677,82,62,0
63.019558,63.10677,76,62,0
63.019558,63.10677,90,74,0
63.019558,63.10677,85,62,0
63.193977,63.28657,85,57,0
63.193977,63.28657,82,57,0
63.193977,63.28657,76,57,0
63.193977,63.28657,90,68,0
63.37916,63.466625,90,65,0
63.37916,63.466625,76,55,0
63.37916,63.466625,85,55,0
63.37916,63.466625,82,55,0
63.554344,63.642063,82,62,0
63.554344,63.642063,76,62,0
63.554344,63.642063,85,62,0
63.554344,63.642063,90,74,0
63.729786,63.821808,90,68,0
63.729786,63.821808,85,57,0
63.729786,63.821808,82,57,0
63.729786,63.821808,76,57,0
63.913834,64.00787,82,55,0
63.913834,64.00787,85,55,0
63.913834,64.00787,76,55,0
63.913834,64.00787,90,65,0
64.10192,64.19597,85,62,0
64.10192,64.19597,76,62,0
64.10192,64.19597,82,62,0
64.10192,64.19597,90,74,0
64.29001,64.38837,85,57,0
64.29001,64.38837,82,57,0
64.29001,64.38837,90,68,0
64.29001,64.38837,76,57,0
64.48673,64.57904,87,79,0
64.48673,64.57904,75,67,0
64.48673,64.57904,83,67,0
64.855965,64.94687,83,72,0
64.855965,64.94687,71,61,0
65.03778,65.13066,66,67,0
65.03778,65.13066,78,79,0
65.409294,65.49993,63,60,0
65.409294,65.49993,75,71,0
65.59057,65.68373,71,79,0
65.963234,66.054146,67,73,0
66.14506,66.23822,90,65,0
66.14506,66.23822,82,55,0
66.14506,66.23822,85,55,0
66.14506,66.23822,76,55,0
66.32804,66.41786,85,62,0
66.32804,66.41786,90,74,0
66.32804,66.41786,76,62,0
66.32804,66.41786,82,62,0
66.50768,66.60604,90,68,0
66.50768,66.60604,76,57,0
66.50768,66.60604,85,57,0
66.50768,66.60604,82,57,0
66.70441,66.796715,87,79,0
66.70441,66.796715,75,67,0
66.70441,66.796715,83,67,0
67.07364,67.16454,83,72,0
67.07364,67.16454,71,61,0
67.255455,67.348335,78,79,0
67.255455,67.348335,66,67,0
67.62697,67.717606,75,71,0
67.62697,67.717606,63,60,0
67.80824,67.901405,71,79,0
68.18091,68.27182,67,73,0
68.36273,68.45201,90,65,0
68.36273,68.45201,76,55,0
68.36273,68.45201,85,55,0
68.36273,68.45201,82,55,0
68.5413,68.630585,82,62,0
68.5413,68.630585,85,62,0
68.5413,68.630585,90,74,0
68.5413,68.630585,76,62,0
68.71987,68.81823,90,68,0
68.71987,68.81823,85,57,0
68.71987,68.81823,76,57,0
68.71987,68.81823,82,57,0
68.916595,69.0089,87,79,0
68.916595,69.0089,83,67,0
68.916595,69.0089,75,67,0
69.28583,69.37673,71,61,0
69.28583,69.37673,83,72,0
69.46764,69.560524,67,67,0
69.46764,69.560524,79,79,0
69.83916,69.929794,64,64,0
69.83916,69.929794,76,64,0
70.02043,70.113594,72,69,0
70.3931,70.48401,69,52,0
70.57492,70.665825,66,58,0
70.93855,71.029465,63,43,0
71.12037,71.21128,59,45,0
72.21128,72.302185,55,36,0
73.302185,73.3931,52,36,0
73.84764,74.424194,83,31,0
73.84764,74.424194,86,37,0
74.424194,74.99274,84,36,0
74.424194,74.99274,81,36,0
75.00075,75.5773,78,31,0
75.00075,75.5773,81,37,0
75.5773,75.65793,79,29,0
75.5773,75.65793,83,35,0
75.73855,75.82235,79,31,0
75.73855,75.82235,76,26,0
75.90614,75.98677,81,35,0
75.90614,75.98677,78,27,0
76.06739,76.150375,75,26,0
76.06739,76.150375,78,31,0
76.23335,76.31448,79,35,0
76.23335,76.31448,76,29,0
76.395615,76.479965,73,27,0
76.395615,76.479965,76,32,0
76.564316,76.66456,75,29,0
76.564316,76.66456,78,35,0
76.96528,77.057556,75,29,0
76.96528,77.057556,78,34,0
77.149826,77.87106,71,34,0
77.87106,77.953514,73,31,0
77.87106,77.953514,70,26,0
78.03596,78.117874,75,32,0
78.03596,78.117874,71,27,0
78.19979,78.28171,76,33,0
78.19979,78.28171,73,28,0
78.363625,78.44344,78,33,0
78.363625,78.44344,75,28,0
78.52326,78.60308,79,34,0
78.52326,78.60308,76,29,0
78.6829,78.783134,78,35,0
78.6829,78.783134,75,29,0
79.083855,79.17613,83,34,0
79.2684,79.98965,71,34,0
79.98965,80.07209,73,31,0
79.98965,80.07209,70,26,0
80.15453,80.23645,75,32,0
80.15453,80.23645,71,27,0
80.31837,80.40028,76,33,0
80.31837,80.40028,73,28,0
80.48221,80.56202,78,33,0
80.48221,80.56202,75,28,0
80.64184,80.72166,76,29,0
80.64184,80.72166,79,34,0
80.801476,80.90171,78,35,0
80.78152,80.90171,73,29,0
80.761566,80.90171,70,29,0
81.20244,81.29471,85,34,0
81.386986,81.94062,90,41,0
81.386986,81.94062,82,34,0
81.386986,81.94062,78,34,0
81.94062,82.04515,70,35,0
81.94062,82.04515,66,30,0
82.35874,82.46148,85,32,0
82.564224,83.150536,78,31,0
82.564224,83.150536,82,31,0
82.564224,83.150536,90,38,0
83.150536,83.27299,70,30,0
83.150536,83.27299,66,26,0
83.640335,83.78812,85,28,0
83.935905,86.214386,90,33,0
83.935905,86.214386,82,27,0
83.935905,86.214386,78,27,0
86.467545,86.54999,73,73,0
86.467545,86.54999,61,62,0
86.63244,86.714355,75,76,0
86.63244,86.714355,63,64,0
86.79627,86.87819,65,67,0
86.79627,86.87819,77,79,0
86.960106,87.039925,78,82,0
86.960106,87.039925,66,69,0
87.11974,87.19956,68,85,0
87.11974,87.19956,80,85,0
87.27937,87.379616,78,74,0
87.27937,87.379616,82,88,0
87.27937,87.379616,70,74,0
87.27937,87.379616,73,74,0
87.680336,87.77261,85,88,0
87.680336,87.77261,73,74,0
87.86488,87.95716,90,95,0
87.86488,87.95716,78,80,0
88.418526,88.62467,59,87,0
89.03696,89.60665,93,72,0
89.03696,89.60665,97,86,0
89.03696,89.60665,85,72,0
89.60665,90.17634,92,83,0
89.60665,90.17634,83,71,0
89.60665,90.17634,95,83,0
90.17634,90.74603,80,72,0
90.17634,90.74603,88,72,0
90.17634,90.74603,92,86,0
90.74603,90.82665,93,77,0
90.74603,90.82665,90,64,0
90.74603,90.82665,81,64,0
90.90728,90.99108,78,57,0
90.90728,90.99108,90,68,0
90.90728,90.99108,87,57,0
91.074875,91.1555,88,59,0
91.074875,91.1555,92,77,0
91.074875,91.1555,80,60,0
91.23612,91.3191,88,69,0
91.23612,91.3191,85,58,0
91.23612,91.3191,76,58,0
91.402084,91.483215,78,64,0
91.402084,91.483215,90,77,0
91.402084,91.483215,87,64,0
91.56435,91.6487,87,70,0
91.56435,91.6487,83,59,0
91.56435,91.6487,75,59,0
91.73305,91.83329,76,64,0
91.73305,91.83329,88,77,0
91.73305,91.83329,85,64,0
92.13401,92.22629,76,63,0
92.13401,92.22629,85,63,0
92.13401,92.22629,88,75,0
92.31856,92.8722,85,77,0
92.31856,92.8722,81,64,0
92.31856,92.8722,73,64,0
93.039795,93.122246,83,56,0
93.039795,93.122246,71,47,0
93.20469,93.286606,87,58,0
93.20469,93.286606,75,49,0
93.36852,93.45044,76,51,0
93.36852,93.45044,88,60,0
93.53236,93.612175,90,62,0
93.53236,93.612175,78,52,0
93.69199,93.77181,80,54,0
93.69199,93.77181,92,64,0
93.85162,93.94485,95,70,0
93.83167,93.94485,88,60,0
93.81172,93.94485,83,60,0
94.2245,94.312584,93,58,0
94.2245,94.312584,81,49,0
94.40066,94.9291,76,48,0
94.40066,94.9291,88,57,0
95.0967,95.179146,73,48,0
95.0967,95.179146,85,58,0
95.26159,95.343506,87,63,0
95.26159,95.343506,75,53,0
95.42543,95.50735,88,67,0
95.42543,95.50735,76,57,0
95.589264,95.66908,78,61,0
95.589264,95.66908,90,73,0
95.74889,95.82871,92,78,0
95.74889,95.82871,80,65,0
95.90853,96.00141,95,87,0
95.88858,96.00141,87,75,0
95.86862,96.00141,83,75,0
96.280045,96.36633,81,58,0
96.280045,96.36633,93,69,0
96.45262,96.97034,87,67,0
96.45262,96.97034,75,56,0
96.97034,97.172356,52,91,0
97.37438,97.56669,86,64,0
97.37438,97.56669,77,64,0
97.37438,97.56669,89,78,0
97.56669,97.9513,84,75,0
97.56669,97.9513,76,75,0
97.56669,97.9513,88,75,0
97.9513,98.14361,84,78,0
97.9513,98.14361,72,64,0
97.9513,98.14361,81,64,0
98.14361,98.224236,86,70,0
98.14361,98.224236,74,59,0
98.14361,98.224236,83,59,0
98.304855,98.38866,80,52,0
98.304855,98.38866,71,52,0
98.304855,98.38866,83,62,0
98.47245,98.55308,84,70,0
98.47245,98.55308,81,54,0
98.47245,98.55308,72,55,0
98.6337,98.716675,81,63,0
98.6337,98.716675,69,53,0
98.6337,98.716675,78,53,0
98.79966,98.88079,80,59,0
98.79966,98.88079,83,70,0
98.79966,98.88079,71,59,0
98.96192,99.04627,80,64,0
98.96192,99.04627,76,54,0
98.96192,99.04627,68,54,0
99.13062,99.230865,76,59,0
99.13062,99.230865,70,59,0
99.13062,99.230865,82,70,0
99.531586,99.72389,91,78,0
99.531586,99.72389,88,64,0
99.531586,99.72389,79,64,0
99.72389,100.10851,87,75,0
99.72389,100.10851,90,75,0
99.72389,100.10851,78,75,0
100.10851,100.30082,87,78,0
100.10851,100.30082,75,64,0
100.10851,100.30082,83,64,0
100.30082,100.38144,76,59,0
100.30082,100.38144,85,59,0
100.30082,100.38144,88,70,0
100.46207,100.54586,85,62,0
100.46207,100.54586,82,52,0
100.46207,100.54586,73,52,0
100.62966,100.71029,87,70,0
100.62966,100.71029,75,55,0
100.62966,100.71029,83,54,0
100.79091,100.873886,71,53,0
100.79091,100.873886,83,63,0
100.79091,100.873886,80,53,0
100.95686,101.038,81,59,0
100.95686,101.038,84,70,0
100.95686,101.038,72,59,0
101.11913,101.20348,78,54,0
101.11913,101.20348,81,64,0
101.11913,101.20348,69,54,0
101.287834,101.38808,78,59,0
101.287834,101.38808,71,59,0
101.287834,101.38808,83,70,0
101.6888,101.8811,93,64,0
101.6888,101.8811,96,78,0
101.6888,101.8811,84,64,0
101.8811,102.26572,91,75,0
101.8811,102.26572,83,75,0
101.8811,102.26572,95,75,0
102.26572,102.45802,88,64,0
102.26572,102.45802,79,64,0
102.26572,102.45802,91,78,0
102.45802,102.53865,81,59,0
102.45802,102.53865,90,59,0
102.45802,102.53865,93,70,0
102.61927,102.70307,78,52,0
102.61927,102.70307,90,62,0
102.61927,102.70307,87,52,0
102.78687,102.86749,88,55,0
102.78687,102.86749,91,70,0
102.78687,102.86749,79,55,0
102.94812,103.0311,88,63,0
102.94812,103.0311,84,53,0
102.94812,103.0311,76,53,0
103.114075,103.195206,90,70,0
103.114075,103.195206,86,59,0
103.114075,103.195206,78,59,0
103.276344,103.35967,86,64,0
103.276344,103.35967,83,54,0
103.276344,103.35967,74,54,0
103.44301,103.52344,84,59,0
103.44301,103.52344,88,70,0
103.44301,103.52344,76,59,0
103.60387,103.68674,72,52,0
103.60387,103.68674,81,52,0
103.60387,103.68674,84,62,0
103.769615,103.850235,74,55,0
103.769615,103.850235,86,70,0
103.769615,103.850235,83,55,0
103.93086,104.01384,83,63,0
103.93086,104.01384,71,53,0
103.93086,104.01384,79,53,0
104.09682,104.17795,81,59,0
104.09682,104.17795,84,70,0
104.09682,104.17795,72,59,0
104.25908,104.342415,69,54,0
104.25908,104.342415,81,64,0
104.25908,104.342415,78,54,0
104.42575,104.50683,71,59,0
104.42575,104.50683,79,59,0
104.42575,104.50683,83,70,0
104.58791,104.67171,76,53,0
104.58791,104.67171,79,63,0
104.58791,104.67171,67,53,0
104.75551,104.836136,81,73,0
104.75551,104.836136,78,57,0
104.75551,104.836136,69,57,0
104.916756,104.99973,75,57,0
104.916756,104.99973,66,57,0
104.916756,104.99973,78,68,0
105.08271,105.16385,67,65,0
105.08271,105.16385,79,77,0
105.08271,105.16385,76,65,0
105.24498,105.32933,64,61,0
105.24498,105.32933,72,61,0
105.24498,105.32933,76,72,0
105.41368,105.80589,80,76,0
105.41368,105.80589,88,76,0
105.41368,105.80589,92,90,0
105.82654,106.21874,91,90,0
105.82654,106.21874,88,76,0
105.82654,106.21874,79,76,0
106.23939,106.6316,78,76,0
106.23939,106.6316,90,90,0
106.23939,106.6316,87,76,0
106.652245,107.04446,86,76,0
106.652245,107.04446,89,90,0
106.652245,107.04446,77,76,0
107.065094,107.457306,76,75,0
107.065094,107.457306,88,89,0
107.065094,107.457306,85,75,0
107.47795,107.87016,84,73,0
107.47795,107.87016,75,73,0
107.47795,107.87016,87,87,0
107.89081,108.29699,83,72,0
107.89081,108.29699,74,72,0
107.89081,108.29699,86,85,0
108.31837,108.724556,82,71,0
108.31837,108.724556,85,84,0
108.31837,108.724556,73,71,0
108.74593,109.152115,72,69,0
108.74593,109.152115,81,69,0
108.74593,109.152115,84,82,0
109.1735,109.602615,83,81,0
109.1735,109.602615,80,68,0
109.1735,109.602615,71,68,0
109.6252,109.997665,71,67,0
109.6252,109.997665,83,80,0
109.6252,109.997665,79,67,0
110.11368,110.60157,78,66,0
110.11368,110.60157,83,78,0
110.11368,110.60157,75,66,0
110.11368,110.60157,71,66,0
110.62725,110.70789,76,70,0
110.62725,110.70789,64,59,0
110.788536,110.87483,71,52,0
110.788536,110.87483,74,62,0
110.96112,111.04264,64,55,0
110.96112,111.04264,76,70,0
111.12417,111.21046,72,63,0
111.12417,111.21046,69,53,0
111.296745,111.37894,64,59,0
111.296745,111.37894,76,70,0
111.46113,111.547424,67,54,0
111.46113,111.547424,71,64,0
111.63371,111.715454,76,70,0
111.63371,111.715454,64,59,0
111.7972,111.882996,66,52,0
111.7972,111.882996,69,62,0
111.968796,112.050766,64,55,0
111.968796,112.050766,76,70,0
112.13273,112.21853,67,63,0
112.30433,112.38652,64,59,0
112.30433,112.38652,76,70,0
112.46871,112.55426,66,64,0
112.46871,112.55426,62,54,0
112.63982,112.72277,76,70,0
112.63982,112.72277,64,59,0
112.80572,112.893265,60,51,0
112.80572,112.893265,64,61,0
112.98082,113.06423,64,53,0
112.98082,113.06423,76,68,0
113.147644,113.23545,59,51,0
113.147644,113.23545,62,61,0
113.32326,113.40667,64,56,0
113.32326,113.40667,76,66,0
113.49008,113.57763,60,60,0
113.49008,113.57763,57,50,0
113.66518,113.75172,76,65,0
113.66518,113.75172,64,54,0
113.83826,113.931526,55,47,0
113.83826,113.931526,59,57,0
114.024796,114.11471,76,63,0
114.024796,114.11471,64,49,0
114.20462,114.301186,57,56,0
114.20462,114.301186,54,47,0
114.39775,114.49102,64,51,0
114.39775,114.49102,76,61,0
114.58429,114.68341,53,46,0
114.58429,114.68341,57,55,0
114.78253,114.87043,52,51,0
114.78253,114.87043,55,61,0
114.958336,115.04624,55,61,0
114.958336,115.04624,52,51,0
115.13415,115.226944,55,61,0
115.13415,115.226944,52,51,0
115.31974,115.86309,53,56,0
115.31974,115.86309,57,67,0
115.86309,115.951256,55,61,0
115.86309,115.951256,52,51,0
116.03941,116.12758,55,61,0
116.03941,116.12758,52,51,0
116.215744,116.3097,52,51,0
116.215744,116.3097,55,61,0
116.40366,116.94537,57,61,0
116.40366,116.94537,69,61,0
116.40366,116.94537,60,61,0
116.94537,117.03818,52,51,0
116.94537,117.03818,55,61,0
117.130974,117.22377,55,61,0
117.130974,117.22377,52,51,0
117.31657,117.440025,55,61,0
117.31657,117.440025,52,51,0
117.563484,118.29014,84,99,0
117.563484,118.29014,72,77,0
117.563484,118.29014,76,77,0
117.563484,118.29014,79,77,0
118.653465,118.7443,55,95,0
118.653465,118.7443,52,79,0
119.19846,119.28929,52,79,0
119.19846,119.28929,55,95,0
119.73815,119.83146,55,95,0
119.73815,119.83146,52,79,0
120.3042,121.567764,93,84,0
120.3042,121.567764,89,84,0
120.3042,121.567764,101,101,0
120.3042,121.567764,96,84,0
121.65575,121.74372,84,59,0
121.65575,121.74372,96,70,0
121.831696,121.91967,81,60,0
121.831696,121.91967,93,71,0
122.00765,122.09563,89,72,0
122.00765,122.09563,77,61,0
122.1836,122.271576,72,58,0
122.1836,122.271576,84,69,0
122.35956,122.44753,69,59,0
122.35956,122.44753,81,70,0
122.53551,122.62348,77,77,0
122.53551,122.62348,65,65,0
122.711464,122.79944,72,74,0
122.711464,122.79944,60,62,0
122.88741,122.97539,69,75,0
122.88741,122.97539,57,63,0
123.06337,123.151344,53,70,0
123.06337,123.151344,65,83,0
123.23932,123.32729,60,77,0
123.23932,123.32729,48,65,0
123.41876,123.5208,62,78,0
123.41876,123.5208,50,66,0
123.5208,123.60956,52,68,0
123.5208,123.60956,48,68,0
123.5208,123.60956,55,68,0
123.5208,123.60956,60,80,0
124.58589,124.67465,48,68,0
124.58589,124.67465,55,68,0
124.58589,124.67465,52,68,0
124.58589,124.67465,60,80,0
125.65098,125.73974,48,68,0
125.65098,125.73974,52,68,0
125.65098,125.73974,55,68,0
125.65098,125.73974,60,80,0
127.78116,129.90395,64,40,0
128.84625,129.91135,55,40,0
129.91135,130.08627,60,30,0
130.08627,130.2612,55,20,0
130.2612,130.43613,60,30,0
130.43613,130.61105,55,21,0
130.61105,130.78598,60,30,0
130.78598,130.9609,55,20,0
130.9609,131.13332,60,30,0
131.13332,131.30573,55,22,0
129.91135,131.30573,64,40,0
131.30573,131.47765,62,30,0
131.47765,131.64957,55,21,0
131.30573,131.64957,65,40,0
131.64957,131.82002,63,30,0
131.82002,131.99048,55,22,0
131.64957,131.99048,66,35,0
131.99048,132.1595,64,30,0
132.1595,132.3285,55,23,0
131.99048,132.3285,67,40,0
132.3285,132.49753,65,30,0
132.49753,132.66653,55,24,0
132.3285,132.66653,69,36,0
132.66653,132.83556,62,30,0
132.83556,133.00456,55,24,0
132.66653,133.00456,71,40,0
133.00456,133.17358,64,30,0
133.17358,133.34259,60,23,0
133.00456,133.34259,72,44,0
133.34259,133.51161,65,30,0
133.51161,133.68062,60,30,0
133.34259,133.68062,74,49,0
133.68062,133.87292,67,30,0
133.87292,134.06523,60,30,0
133.68062,134.06523,76,57,0
134.06523,134.23053,70,30,0
134.06523,134.23053,73,30,0
134.23053,134.40001,64,33,0
134.40001,134.56577,70,38,0
134.40001,134.56577,73,38,0
134.56577,134.73526,64,32,0
134.73526,134.90054,73,38,0
134.73526,134.90054,70,38,0
134.90054,135.07198,64,34,0
134.06523,135.07198,79,62,0
135.07198,135.24004,74,30,0
135.07198,135.24004,69,30,0
135.24004,135.40811,65,27,0
135.40811,135.57617,74,34,0
135.40811,135.57617,69,34,0
135.57617,135.74423,65,27,0
135.07198,135.74423,77,57,0
135.74423,135.9202,73,37,0
135.74423,135.9202,70,37,0
135.74423,136.09248,76,50,0
135.9202,136.09615,67,29,0
136.09615,136.26328,73,38,0
136.09615,136.26328,70,38,0
136.26328,136.43135,67,26,0
136.43135,136.59895,73,29,0
136.43135,136.59895,70,29,0
136.59895,136.76654,67,26,0
136.09615,136.76654,76,51,0
136.76654,136.93414,69,35,0
136.93414,137.10175,65,26,0
136.76654,137.10175,74,47,0
137.10175,137.26933,69,33,0
137.10175,137.26933,73,33,0
137.26933,137.43694,64,26,0
137.43694,137.60454,73,26,0
137.43694,137.60454,69,26,0
137.60454,137.77214,64,26,0
137.10175,137.77214,76,44,0
137.77214,137.95177,74,35,0
137.77214,137.95177,69,35,0
137.95177,138.13141,65,28,0
137.77214,138.13141,77,47,0
138.13141,138.30634,67,30,0
138.30634,138.48126,64,20,0
138.48126,138.65417,67,30,0
138.65417,138.82709,64,21,0
138.82709,138.99901,67,30,0
138.99901,139.17242,64,20,0
139.17242,139.34483,67,30,0
139.34483,139.51724,64,22,0
139.51724,139.68916,67,30,0
139.68916,139.86108,64,21,0
139.86108,140.03154,69,30,0
140.03154,140.202,64,22,0
138.13141,140.202,72,40,0
140.202,140.37102,67,30,0
140.37102,140.54002,62,23,0
140.202,140.54002,71,40,0
140.54002,140.70905,67,30,0
140.70905,140.87805,65,24,0
140.54002,140.87805,72,36,0
140.87805,141.04707,67,30,0
141.04707,141.21608,65,24,0
140.87805,141.21608,74,40,0
141.21608,141.3851,67,30,0
141.3851,141.55411,64,23,0
141.21608,141.55411,76,44,0
141.55411,141.72313,71,30,0
141.72313,141.89214,67,30,0
141.55411,141.89214,77,49,0
141.89214,142.08444,72,30,0
142.08444,142.29721,67,30,0
141.89214,142.29721,79,57,0
142.29721,142.46295,73,34,0
142.46295,142.63103,70,37,0
142.63103,142.7984,73,43,0
142.7984,142.96742,70,36,0
142.96742,143.13362,73,43,0
143.13362,143.30312,70,38,0
142.29721,143.30312,82,62,0
143.30312,143.47025,74,34,0
143.47025,143.63737,69,30,0
143.63737,143.8045,74,36,0
143.8045,143.97163,69,29,0
143.30312,143.97163,81,57,0
143.97163,144.14758,74,34,0
143.97163,144.31989,80,42,0
144.14758,144.32355,71,26,0
144.32355,144.48883,73,34,0
144.48883,144.65833,69,23,0
144.65833,144.825,73,26,0
144.825,144.99496,69,23,0
144.32355,144.99496,79,45,0
144.99496,145.16164,73,31,0
145.16164,145.3283,69,23,0
144.99496,145.3283,78,42,0
145.3283,145.49359,73,29,0
145.49359,145.66118,69,23,0
145.66118,145.82693,73,23,0
145.82693,145.99268,69,23,0
145.3283,145.99268,79,39,0
145.99268,146.1666,73,31,0
146.1666,146.37935,69,25,0
145.99268,146.37935,82,42,0
146.37935,146.54837,73,27,0
146.54837,146.71738,70,24,0
146.71738,146.8864,73,30,0
146.8864,147.0554,70,24,0
147.0554,147.22733,73,29,0
147.22733,147.39925,70,23,0
146.37935,147.39925,81,51,0
147.39925,147.56732,73,34,0
147.56732,147.73538,70,23,0
147.39925,147.73538,79,45,0
147.73538,147.90346,73,26,0
147.90346,148.07152,70,23,0
148.07152,148.24747,73,30,0
148.07152,148.41975,79,42,0
148.24747,148.42343,70,23,0
148.42343,148.59149,76,34,0
148.59149,148.75955,71,23,0
148.75955,148.92763,76,26,0
148.92763,149.09569,71,23,0
148.42343,149.09569,79,45,0
149.09569,149.26144,76,31,0
149.26144,149.42719,71,23,0
149.09569,149.42719,78,42,0
149.42719,149.59479,76,29,0
149.59479,149.76237,71,23,0
149.76237,149.92998,76,23,0
149.92998,150.09758,71,23,0
149.42719,150.09758,79,39,0
150.09758,150.27148,76,31,0
150.27148,150.48425,71,25,0
150.09758,150.48425,83,42,0
150.48425,150.65327,76,27,0
150.65327,150.82228,70,24,0
150.82228,150.9913,76,30,0
150.9913,151.16031,70,24,0
151.16031,151.33223,76,29,0
151.33223,151.50415,70,23,0
150.48425,151.50415,81,51,0
151.50415,151.67221,76,34,0
151.67221,151.84029,70,23,0
151.50415,151.84029,79,45,0
151.84029,152.00835,76,26,0
152.00835,152.17642,70,23,0
152.17642,152.35237,76,30,0
152.17642,152.52466,79,42,0
152.35237,152.52832,70,23,0
152.52832,152.69499,71,34,0
152.69499,152.86449,67,23,0
152.86449,153.03023,71,26,0
153.03023,153.19972,67,23,0
152.52832,153.19972,79,45,0
153.19972,153.36523,71,31,0
153.36523,153.53473,67,23,0
153.19972,153.53473,78,42,0
153.53473,153.70279,71,29,0
153.70279,153.87086,67,23,0
153.87086,154.03893,71,23,0
154.03893,154.207,67,23,0
153.53473,154.207,79,39,0
154.207,154.3809,71,31,0
154.3809,154.59367,67,25,0
154.207,154.59367,74,42,0
154.59367,154.76035,70,34,0
154.76035,154.92935,67,23,0
154.92935,155.09511,70,26,0
155.09511,155.2627,67,23,0
155.2627,155.42845,70,31,0
155.42845,155.59698,67,23,0
155.59698,155.76553,70,29,0
155.76553,155.93407,67,23,0
155.93407,156.1026,70,23,0
156.1026,156.27115,67,23,0
156.27115,156.44505,70,31,0
156.44505,156.65782,67,25,0
156.65782,156.82404,66,34,0
156.82404,156.99257,62,23,0
156.99257,157.15924,66,26,0
157.15924,157.32825,62,23,0
156.65782,157.32825,74,45,0
157.32825,157.4961,66,31,0
157.4961,157.6651,62,23,0
157.32825,157.6651,73,42,0
157.6651,157.8327,66,29,0
157.8327,158.0003,62,23,0
158.0003,158.1679,66,23,0
158.1679,158.3355,62,23,0
157.6651,158.3355,74,39,0
158.3355,158.50941,66,31,0
158.50941,158.72217,62,25,0
158.3355,158.72217,69,42,0
158.72217,158.88884,65,32,0
158.88884,159.05786,62,21,0
159.05786,159.22546,65,24,0
159.22546,159.394,62,21,0
159.394,159.55974,65,28,0
159.55974,159.72734,62,21,0
159.72734,159.89494,65,27,0
159.89494,160.06253,62,20,0
160.06253,160.23013,65,20,0
160.23013,160.39774,62,20,0
160.39774,160.57164,65,27,0
160.57164,160.78441,62,21,0
160.78441,160.95248,65,26,0
160.95248,161.12054,62,19,0
161.12054,161.28862,65,19,0
161.28862,161.45668,62,19,0
160.78441,161.45668,74,34,0
161.45668,161.6306,65,27,0
161.6306,161.81407,62,21,0
161.45668,161.81407,73,36,0
161.81407,161.98215,65,28,0
161.98215,162.1502,62,19,0
162.1502,162.31828,65,21,0
162.31828,162.48634,62,18,0
162.48634,162.65442,65,26,0
162.65442,162.82733,62,18,0
162.82733,162.99586,65,24,0
162.99586,163.1644,62,18,0
163.1644,163.33295,65,18,0
163.33295,163.50148,62,18,0
163.50148,163.66956,65,25,0
163.66956,163.84602,62,19,0
163.84602,164.01503,65,27,0
164.01503,164.18405,62,18,0
164.18405,164.35306,65,19,0
164.35306,164.52208,62,18,0
162.82733,164.52208,74,31,0
164.52208,164.69499,59,23,0
164.69499,164.89171,55,17,0
164.52208,164.89171,65,19,0
164.89171,165.06664,60,30,0
165.06664,165.24156,55,20,0
165.24156,165.41649,60,30,0
165.41649,165.59142,55,21,0
165.59142,165.76382,60,30,0
165.76382,165.94135,55,20,0
165.94135,166.11375,60,30,0
166.11375,166.28618,55,22,0
164.89171,166.28618,64,40,0
166.28618,166.4581,62,30,0
166.4581,166.63002,55,21,0
166.28618,166.63002,65,40,0
166.63002,166.80046,63,30,0
166.80046,166.97092,55,22,0
166.63002,166.97092,66,35,0
166.97092,167.13994,64,30,0
167.13994,167.30894,55,23,0
166.97092,167.30894,67,40,0
167.30894,167.47797,65,30,0
167.47797,167.64697,55,24,0
167.30894,167.64697,69,36,0
167.64697,167.816,62,30,0
167.816,167.985,55,24,0
167.64697,167.985,71,40,0
167.985,168.15402,64,30,0
168.15402,168.32303,60,23,0
167.985,168.32303,72,44,0
168.32303,168.49205,65,30,0
168.49205,168.66106,60,30,0
168.32303,168.66106,74,49,0
168.66106,168.85336,67,30,0
168.85336,169.04567,60,30,0
168.66106,169.04567,76,57,0
169.04567,169.21143,73,30,0
169.04567,169.21143,70,30,0
169.21143,169.38092,64,33,0
169.38092,169.54758,73,38,0
169.38092,169.54758,70,38,0
169.54758,169.7152,64,32,0
169.7152,169.88095,73,38,0
169.7152,169.88095,70,38,0
169.88095,170.04996,64,34,0
169.04567,170.04996,79,62,0
170.04996,170.2185,69,30,0
170.04996,170.2185,74,30,0
170.2185,170.38704,65,27,0
170.38704,170.55557,74,34,0
170.38704,170.55557,69,34,0
170.55557,170.72412,65,27,0
170.04996,170.72412,77,57,0
170.72412,170.90007,73,37,0
170.72412,170.90007,70,37,0
170.72412,171.08598,76,50,0
170.90007,171.08995,67,29,0
171.08995,171.25801,70,38,0
171.08995,171.25801,73,43,0
171.25801,171.42609,67,26,0
171.42609,171.59415,70,29,0
171.42609,171.59415,73,33,0
171.59415,171.7622,67,26,0
171.08995,171.7622,76,51,0
171.7622,171.93028,69,35,0
171.93028,172.09834,65,26,0
171.7622,172.09834,74,47,0
172.09834,172.26642,73,33,0
172.09834,172.26642,69,33,0
172.26642,172.43448,64,26,0
172.43448,172.60255,73,26,0
172.43448,172.60255,69,26,0
172.60255,172.77061,64,26,0
172.09834,172.77061,76,44,0
172.77061,172.93869,69,35,0
172.77061,172.93869,74,35,0
172.93869,173.12796,65,28,0
172.77061,173.12796,77,47,0
173.12796,173.30289,67,30,0
173.30289,173.47781,64,20,0
173.47781,173.65073,67,30,0
173.65073,173.82823,64,21,0
173.82823,174.00165,67,30,0
174.00165,174.17812,64,20,0
174.17812,174.35052,67,30,0
174.35052,174.52295,64,22,0
174.52295,174.69487,67,30,0
174.69487,174.86679,64,21,0
174.86679,175.03725,69,30,0
175.03725,175.20769,64,22,0
173.12796,175.20769,72,40,0
175.20769,175.37671,67,30,0
175.37671,175.54572,62,23,0
175.20769,175.54572,71,40,0
175.54572,175.71474,67,30,0
175.71474,175.88374,65,24,0
175.54572,175.88374,72,36,0
175.88374,176.05276,67,30,0
176.05276,176.22177,65,24,0
175.88374,176.22177,74,40,0
176.22177,176.3908,67,30,0
176.3908,176.5598,64,23,0
176.22177,176.5598,76,44,0
176.5598,176.72882,71,30,0
176.72882,176.89783,67,30,0
176.5598,176.89783,77,49,0
176.89783,177.09015,72,30,0
177.09015,177.28246,67,30,0
176.89783,177.28246,79,57,0
177.28246,177.44911,73,34,0
177.44911,177.6191,70,37,0
177.6191,177.78438,73,43,0
177.78438,177.95291,70,36,0
177.95291,178.11821,73,43,0
178.11821,178.28584,70,38,0
177.28246,178.28584,82,62,0
178.28584,178.45343,74,34,0
178.45343,178.62103,69,30,0
178.62103,178.78864,74,36,0
178.78864,178.95624,69,29,0
178.28584,178.95624,81,57,0
178.95624,179.13219,74,34,0
178.95624,179.30447,80,42,0
179.13219,179.30814,71,26,0
179.30814,179.4762,73,34,0
179.4762,179.64427,69,23,0
179.64427,179.81001,73,26,0
179.81001,179.97998,69,23,0
179.30814,179.97998,79,45,0
179.97998,180.14713,73,31,0
180.14713,180.31425,69,23,0
179.97998,180.31425,78,42,0
180.31425,180.47954,73,29,0
180.47954,180.64807,69,23,0
180.64807,180.81522,73,23,0
180.81522,180.98235,69,23,0
180.31425,180.98235,79,39,0
180.98235,181.15625,73,31,0
181.15625,181.36902,69,25,0
180.98235,181.36902,82,42,0
181.36902,181.53804,73,27,0
181.53804,181.70705,70,24,0
181.70705,181.87607,73,30,0
181.87607,182.04507,70,24,0
182.04507,182.217,73,29,0
182.217,182.38892,70,23,0
181.36902,182.38892,81,51,0
182.38892,182.55698,73,38,0
182.55698,182.72505,70,23,0
182.38892,182.72505,79,45,0
182.72505,182.89311,73,26,0
182.89311,183.06119,70,23,0
183.06119,183.23714,73,30,0
183.06119,183.40942,79,42,0
183.23714,183.41309,70,23,0
183.41309,183.58116,76,34,0
183.58116,183.74922,71,23,0
183.74922,183.9173,76,26,0
183.9173,184.08536,71,23,0
183.41309,184.08536,79,45,0
184.08536,184.25156,76,31,0
184.25156,184.42154,71,23,0
184.08536,184.42154,78,42,0
184.42154,184.5896,76,29,0
184.5896,184.75768,71,23,0
184.75768,184.92574,76,23,0
184.92574,185.0938,71,23,0
184.42154,185.0938,79,39,0
185.0938,185.26772,76,31,0
185.26772,185.48048,71,25,0
185.0938,185.48048,83,42,0
185.48048,185.64949,76,27,0
185.64949,185.81851,70,24,0
185.81851,185.98752,76,30,0
185.98752,186.15654,70,24,0
186.15654,186.32846,76,29,0
186.32846,186.50038,70,23,0
185.48048,186.50038,81,51,0
186.50038,186.66844,76,34,0
186.66844,186.83652,70,23,0
186.50038,186.83652,79,45,0
186.83652,187.00458,76,26,0
187.00458,187.17264,70,23,0
187.17264,187.3486,76,30,0
187.17264,187.52089,79,42,0
187.3486,187.52455,70,23,0
187.52455,187.69075,71,34,0
187.69075,187.86049,67,23,0
187.86049,188.02669,71,26,0
188.02669,188.19571,67,23,0
187.52455,188.19571,79,45,0
188.19571,188.36191,71,31,0
188.36191,188.53093,67,23,0
188.19571,188.53093,78,42,0
188.53093,188.69806,71,29,0
188.69806,188.86519,67,23,0
188.86519,189.03232,71,23,0
189.03232,189.19945,67,23,0
188.53093,189.19945,79,39,0
189.19945,189.37337,71,31,0
189.37337,189.58614,67,25,0
189.19945,189.58614,74,42,0
189.58614,189.7542,70,34,0
189.7542,189.92226,67,23,0
189.92226,190.09033,70,26,0
190.09033,190.25839,67,23,0
190.25839,190.42369,70,31,0
190.42369,190.59366,67,23,0
190.59366,190.76172,70,29,0
190.76172,190.9298,67,23,0
190.9298,191.09785,70,23,0
191.09785,191.26593,67,23,0
191.26593,191.43983,70,31,0
191.43983,191.6526,67,25,0
191.6526,191.81882,66,34,0
191.81882,191.98782,62,23,0
191.98782,192.15402,66,26,0
192.15402,192.32304,62,23,0
191.6526,192.32304,74,45,0
192.32304,192.49205,66,31,0
192.49205,192.66107,62,23,0
192.32304,192.66107,73,42,0
192.66107,192.82867,66,29,0
192.82867,192.99626,62,23,0
192.99626,193.16386,66,23,0
193.16386,193.33147,62,23,0
192.66107,193.33147,74,39,0
193.33147,193.50537,66,31,0
193.50537,193.71814,62,25,0
193.33147,193.71814,69,42,0
193.71814,193.88622,65,32,0
193.88622,194.05428,62,21,0
194.05428,194.22234,65,24,0
194.22234,194.39041,62,21,0
194.39041,194.55525,65,28,0
194.55525,194.72667,62,21,0
194.72667,194.89474,65,27,0
194.89474,195.0628,62,20,0
195.0628,195.23088,65,20,0
195.23088,195.39894,62,20,0
195.39894,195.57286,65,27,0
195.57286,195.78561,62,21,0
195.78561,195.95369,65,26,0
195.95369,196.12175,62,19,0
196.12175,196.28983,65,19,0
196.28983,196.45789,62,19,0
195.78561,196.45789,74,34,0
196.45789,196.6318,65,27,0
196.6318,196.81529,62,21,0
196.45789,196.81529,73,36,0
196.81529,196.98335,65,28,0
196.98335,197.15143,62,19,0
197.15143,197.31949,65,21,0
197.31949,197.48755,62,18,0
197.48755,197.65562,65,26,0
197.65562,197.82854,62,18,0
197.82854,197.99707,65,24,0
197.99707,198.16562,62,18,0
198.16562,198.33415,65,18,0
198.33415,198.50269,62,18,0
198.50269,198.67076,65,25,0
198.67076,198.84723,62,19,0
198.84723,199.01624,65,27,0
199.01624,199.18526,62,18,0
199.18526,199.35426,65,19,0
199.35426,199.52328,62,18,0
197.82854,199.52328,74,31,0
199.52328,199.6972,59,23,0
199.6972,199.89456,55,17,0
199.52328,199.89456,65,19,0
199.89456,200.06949,60,30,0
200.06949,200.24442,55,20,0
200.24442,200.41934,60,30,0
200.41934,200.59427,55,21,0
200.59427,200.7692,60,30,0
200.7692,200.94412,55,20,0
200.94412,201.11655,60,34,0
201.11655,201.28896,55,25,0
199.89456,201.28896,63,40,0
201.28896,201.46088,62,34,0
201.46088,201.6328,55,24,0
201.28896,201.6328,65,40,0
201.6328,201.80325,62,34,0
201.80325,201.97371,55,25,0
201.6328,201.97371,66,35,0
201.97371,202.14272,63,34,0
202.14272,202.31174,55,26,0
201.97371,202.31174,67,40,0
202.31174,202.48074,65,34,0
202.48074,202.64977,55,27,0
202.31174,202.64977,69,36,0
202.64977,202.81877,62,34,0
202.81877,202.9878,55,27,0
202.64977,202.9878,71,40,0
202.9878,203.1568,63,34,0
203.1568,203.32582,60,26,0
202.9878,203.32582,72,44,0
203.32582,203.49483,65,34,0
203.49483,203.66385,60,34,0
203.32582,203.66385,74,49,0
203.66385,203.85616,67,34,0
203.85616,204.04846,60,34,0
203.66385,204.04846,75,57,0
204.04846,204.21466,70,34,0
204.04846,204.21466,73,34,0
204.21466,204.38464,64,37,0
204.38464,204.55038,73,43,0
204.38464,204.55038,70,43,0
204.55038,204.71988,64,36,0
204.71988,204.8847,73,43,0
204.71988,204.8847,70,43,0
204.8847,205.05516,64,38,0
204.04846,205.05516,79,62,0
205.05516,205.22276,73,34,0
205.05516,205.22276,68,34,0
205.22276,205.39037,65,31,0
205.39037,205.55795,68,38,0
205.39037,205.55795,73,38,0
205.55795,205.72556,65,31,0
205.05516,205.72556,77,57,0
205.72556,205.9015,68,42,0
205.72556,206.07379,75,50,0
205.9015,206.07747,65,33,0
206.07747,206.24553,68,43,0
206.24553,206.41359,65,29,0
206.41359,206.58167,68,33,0
206.58167,206.74973,65,29,0
206.07747,206.74973,75,51,0
206.74973,206.91971,68,39,0
206.91971,207.08968,65,29,0
206.74973,207.08968,73,47,0
207.08968,207.25774,68,37,0
207.25774,207.42581,65,29,0
207.42581,207.59387,68,29,0
207.59387,207.76195,65,29,0
207.08968,207.76195,77,44,0
207.76195,207.93001,68,39,0
207.93001,208.12544,65,32,0
207.76195,208.12544,73,47,0
208.12544,208.30037,67,30,0
208.30037,208.4753,63,20,0
208.4753,208.65022,67,30,0
208.65022,208.82515,63,21,0
208.82515,209.00008,67,30,0
209.00008,209.175,63,20,0
209.175,209.34743,67,30,0
209.34743,209.51984,63,22,0
209.51984,209.69176,67,30,0
209.69176,209.86368,63,21,0
209.86368,210.03413,69,30,0
210.03413,210.20459,63,22,0
208.12544,210.20459,72,40,0
210.20459,210.3736,67,34,0
210.3736,210.54262,62,26,0
210.20459,210.54262,71,40,0
210.54262,210.71162,67,34,0
210.71162,210.88065,65,27,0
210.54262,210.88065,72,36,0
210.88065,211.04965,67,34,0
211.04965,211.21867,65,27,0
210.88065,211.21867,74,40,0
211.21867,211.38768,67,34,0
211.38768,211.5567,63,26,0
211.21867,211.5567,75,44,0
211.5567,211.72571,71,34,0
211.72571,211.89473,67,34,0
211.5567,211.89473,77,49,0
211.89473,212.08704,72,34,0
212.08704,212.20723,67,34,0
211.89473,212.20723,79,57,0
212.27934,212.44554,73,34,0
212.44554,212.61504,70,37,0
212.61504,212.78078,73,43,0
212.78078,212.94933,70,36,0
212.94933,213.11693,73,43,0
213.11693,213.2836,70,38,0
212.27934,213.2836,82,62,0
213.2836,213.45166,73,34,0
213.45166,213.61972,68,30,0
213.61972,213.7878,73,36,0
213.7878,213.95586,68,29,0
213.2836,213.95586,80,57,0
213.95586,214.13182,73,34,0
213.95586,214.30411,79,42,0
214.13182,214.30777,70,26,0
214.30777,214.47583,73,44,0
214.47583,214.6439,70,33,0
214.6439,214.81197,73,40,0
214.81197,214.98004,70,31,0
214.98004,215.14532,73,39,0
215.14532,215.31529,70,29,0
214.30777,215.31529,79,52,0
215.31529,215.4829,73,39,0
215.4829,215.6505,68,26,0
215.6505,215.81808,73,35,0
215.81808,215.98569,68,27,0
215.31529,215.98569,77,46,0
215.98569,216.16164,73,32,0
215.98569,216.33392,75,38,0
216.16164,216.3376,67,26,0
216.3376,216.50604,73,34,0
216.50604,216.67397,67,23,0
216.67397,216.8413,73,34,0
216.8413,217.00803,67,27,0
217.00803,217.17381,73,35,0
217.17381,217.34106,67,26,0
217.34106,217.50912,73,29,0
217.50912,217.6772,67,24,0
217.6772,217.84526,73,36,0
217.84526,218.01332,67,28,0
216.3376,218.01332,75,44,0
218.01332,218.18929,73,32,0
218.01332,218.36057,77,55,0
218.18929,218.36412,68,31,0
218.36412,218.534,73,34,0
218.534,218.70335,67,23,0
218.70335,218.87218,73,34,0
218.87218,219.04048,67,27,0
219.04048,219.20828,73,35,0
219.20828,219.37589,67,26,0
219.37589,219.54347,73,29,0
219.54347,219.71133,67,24,0
219.71133,219.88036,73,36,0
219.88036,220.04936,67,28,0
218.36412,220.04936,75,45,0
220.04936,220.22533,73,32,0
220.04936,220.39761,77,55,0
220.22533,220.40128,68,31,0
220.40128,220.57104,73,38,0
220.57104,220.73895,67,26,0
220.73895,220.90562,73,38,0
220.90562,221.07228,67,31,0
221.07228,221.23895,73,39,0
221.23895,221.40562,67,29,0
221.40562,221.57045,73,33,0
221.57045,221.74042,67,27,0
221.74042,221.90663,73,40,0
221.90663,222.07283,67,32,0
220.40128,222.07283,75,45,0
222.07283,222.2488,73,47,0
222.07283,222.42108,82,60,0
222.2488,222.42474,70,35,0
222.42474,222.5928,73,38,0
222.5928,222.76088,70,26,0
222.76088,222.93085,73,38,0
222.93085,223.10081,70,31,0
223.10081,223.26936,73,39,0
223.26936,223.4379,70,29,0
223.4379,223.60596,73,33,0
223.60596,223.77403,70,27,0
223.77403,223.9421,73,40,0
223.9421,224.11017,70,32,0
222.42474,224.11017,75,45,0
224.11017,224.28612,73,47,0
224.11017,224.4584,82,60,0
224.28612,224.46207,70,35,0
224.46207,224.63014,73,38,0
224.63014,224.7982,70,26,0
224.7982,224.96628,73,38,0
224.96628,225.13434,70,31,0
225.13434,225.3024,73,39,0
225.3024,225.47047,70,29,0
224.46207,225.47047,75,45,0
225.47047,225.63715,73,38,0
225.63715,225.8038,70,26,0
225.8038,225.9691,73,38,0
225.9691,226.13438,70,32,0
226.13438,226.29922,73,40,0
226.29922,226.46405,70,30,0
226.46405,226.62889,74,41,0
226.62065,226.78548,71,28,0
226.79373,226.95856,74,41,0
226.95856,227.1234,71,34,0
227.1234,227.28868,74,44,0
227.28868,227.45398,71,33,0
225.47047,227.45398,76,45,0
227.45398,227.61836,74,44,0
227.61836,227.78275,71,30,0
227.78275,227.94713,74,44,0
227.94713,228.11151,71,37,0
228.11151,228.2768,74,47,0
228.2768,228.4421,71,35,0
228.4421,228.60692,75,70,0
228.60692,228.77176,72,32,0
228.77176,228.93658,75,47,0
228.93658,229.10143,72,39,0
229.10143,229.26627,75,50,0
229.26627,229.43109,72,37,0
227.45398,229.43109,77,56,0
229.43109,229.5973,75,50,0
229.5973,229.7635,72,34,0
229.7635,229.92972,75,50,0
229.92972,230.09592,72,42,0
230.09592,230.26212,75,53,0
230.26212,230.42833,72,40,0
229.43109,230.42833,78,68,0
230.42833,230.59639,78,58,0
230.59639,230.76447,72,42,0
230.76447,230.93253,78,56,0
230.93253,231.1006,72,50,0
231.1006,231.27301,78,60,0
231.27301,231.44542,72,48,0
230.42833,231.44542,84,69,0
231.44542,231.61734,84,69,0
231.44542,231.61734,78,42,0
231.61734,231.78926,74,42,0
231.78926,231.96118,78,50,0
231.78926,231.96118,84,56,0
231.96118,232.1331,74,50,0
232.1331,232.31114,84,60,0
232.1331,232.31114,78,48,0
232.31114,232.40549,74,48,0
231.44542,232.49722,86,69,0
232.49722,232.67215,84,42,0
232.49722,232.67215,79,42,0
232.67215,232.84708,76,30,0
232.84708,233.022,84,33,0
232.84708,233.022,79,33,0
233.022,233.19693,76,28,0
233.19693,233.37186,84,33,0
233.19693,233.37186,79,33,0
233.37186,233.54678,76,25,0
233.54678,233.71921,79,34,0
233.54678,233.71921,84,34,0
233.71921,233.89162,76,27,0
232.49722,233.89162,88,91,0
233.89162,234.06354,86,52,0
234.06354,234.23546,77,28,0
233.89162,234.23546,89,67,0
234.23546,234.40591,87,31,0
234.40591,234.57637,78,32,0
234.23546,234.57637,90,67,0
234.57637,234.74538,91,79,0
234.57637,234.74538,88,61,0
234.74538,234.9144,79,39,0
234.9144,235.0834,81,57,0
234.9144,235.0834,91,74,0
235.0834,235.25243,79,40,0
235.25243,235.42143,83,58,0
235.25243,235.42143,91,75,0
235.42143,235.59045,79,44,0
235.59045,235.75946,84,59,0
235.59045,235.75946,91,76,0
235.75946,235.92848,79,39,0
235.92848,236.09749,86,57,0
235.92848,236.09749,91,74,0
236.09749,236.26651,79,44,0
236.26651,236.45882,88,63,0
236.26651,236.45882,91,81,0
236.45882,236.66817,79,34,0
236.66817,236.83624,85,56,0
236.66817,236.83624,88,56,0
236.66817,236.83624,82,56,0
236.83624,237.0043,79,42,0
237.0043,237.17238,88,51,0
237.0043,237.17238,82,51,0
237.0043,237.17238,85,51,0
237.17238,237.34044,79,38,0
237.34044,237.50851,82,47,0
237.34044,237.50851,85,47,0
237.34044,237.50851,88,47,0
237.50851,237.67657,79,38,0
236.66817,237.67657,91,85,0
237.67657,237.84465,81,34,0
237.67657,237.84465,86,34,0
237.84465,238.01271,77,31,0
238.01271,238.18077,81,38,0
238.01271,238.18077,86,38,0
238.18077,238.34885,77,31,0
237.67657,238.34885,89,74,0
238.34885,238.5248,85,42,0
238.34885,238.5248,82,42,0
238.34885,238.69708,88,73,0
238.5248,238.70074,79,33,0
238.70074,238.86882,85,48,0
238.70074,238.86882,82,48,0
238.86882,239.03688,76,29,0
239.03688,239.20496,85,37,0
239.03688,239.20496,82,37,0
239.20496,239.37302,76,29,0
238.70074,239.37302,88,77,0
239.37302,239.54109,81,51,0
239.54109,239.70915,74,29,0
239.37302,239.70915,86,66,0
239.70915,239.87721,81,47,0
239.70915,239.87721,85,47,0
239.87721,240.04529,76,34,0
240.04529,240.21335,81,42,0
240.04529,240.21335,85,42,0
240.21335,240.38142,76,30,0
239.70915,240.38142,88,72,0
240.38142,240.54948,86,48,0
240.38142,240.54948,81,48,0
240.54948,240.71756,77,32,0
240.38142,240.71756,89,74,0
240.71756,240.89249,76,45,0
240.71756,240.89249,79,45,0
240.89249,241.06741,72,25,0
241.06741,241.24234,76,42,0
241.06741,241.24234,79,42,0
241.24234,241.41727,72,27,0
241.41727,241.5922,79,40,0
241.41727,241.5922,76,40,0
241.5922,241.76712,72,23,0
240.71756,241.76712,84,70,0
241.76712,241.93953,79,47,0
241.76712,241.93953,74,47,0
241.93953,242.11194,71,36,0
242.11194,242.28386,79,57,0
242.11194,242.28386,74,57,0
242.28386,242.45578,71,39,0
241.76712,242.45578,83,72,0
242.45578,242.6248,74,59,0
242.6248,242.79381,69,41,0
242.45578,242.79381,81,64,0
242.79381,242.96141,79,54,0
242.96141,243.12901,74,44,0
242.79381,243.12901,83,70,0
243.12901,243.2934,79,54,0
243.2934,243.45778,72,44,0
243.12901,243.45778,84,70,0
243.45778,243.61993,79,56,0
243.61993,243.7821,74,47,0
243.45778,243.7821,86,72,0
243.7821,243.94426,79,58,0
243.94426,244.10643,76,47,0
243.7821,244.10643,88,75,0
244.10643,244.26859,83,58,0
244.26859,244.43074,77,51,0
244.10643,244.43074,89,75,0
244.43074,244.62306,84,62,0
244.62306,244.81537,79,55,0
244.43074,244.81537,91,80,0
244.81537,244.97202,85,69,0
244.97202,245.12868,82,56,0
245.12868,245.28534,85,64,0
245.28534,245.442,82,53,0
244.81537,245.442,94,82,0
244.81537,245.442,91,69,0
245.442,245.59865,84,69,0
245.59865,245.75531,81,56,0
245.75531,245.91197,84,64,0
245.91197,246.06863,81,53,0
245.442,246.06863,93,82,0
245.442,246.06863,89,69,0
246.06863,246.22528,84,69,0
246.22528,246.38194,80,56,0
246.38194,246.5386,84,64,0
246.5386,246.69525,80,53,0
246.06863,246.69525,87,69,0
246.06863,246.69525,92,82,0
246.69525,246.85191,84,69,0
246.85191,247.00858,79,56,0
247.00858,247.16524,84,64,0
247.16524,247.32188,79,53,0
246.69525,247.32188,87,69,0
246.69525,247.32188,91,82,0
247.32188,247.47855,84,69,0
247.47855,247.63521,78,56,0
247.63521,247.79187,84,64,0
247.79187,247.94852,78,53,0
247.32188,247.94852,90,82,0
247.32188,247.94852,87,69,0
247.94852,248.10518,86,69,0
248.10518,248.26184,77,56,0
248.26184,248.4185,86,64,0
248.4185,248.57515,77,53,0
247.94852,248.57515,89,82,0
248.57515,248.73264,79,56,0
248.57515,248.73264,84,69,0
248.73264,248.89012,76,56,0
248.89012,249.04759,79,53,0
248.89012,249.04759,84,64,0
249.04759,249.20508,76,53,0
248.57515,249.20508,88,82,0
249.20508,249.37314,82,56,0
249.20508,249.37314,88,69,0
249.37314,249.54121,79,56,0
249.20508,249.54121,91,82,0
249.54121,249.70122,81,56,0
249.54121,249.70122,86,69,0
249.70122,249.8612,77,56,0
249.8612,250.02121,81,53,0
249.8612,250.02121,86,64,0
250.02121,250.18121,77,53,0
249.54121,250.18121,89,82,0
250.18121,250.34927,81,56,0
250.34927,250.51735,74,56,0
250.18121,250.51735,86,82,0
250.51735,250.67776,76,56,0
250.51735,250.67776,79,69,0
250.67776,250.8382,72,56,0
250.8382,250.99863,76,53,0
250.8382,250.99863,79,64,0
250.99863,251.15906,72,53,0
251.15906,251.33049,76,53,0
251.15906,251.33049,79,56,0
251.33049,251.45674,72,56,0
250.51735,251.49728,84,82,0
251.477,251.65729,83,62,0
251.45674,251.65729,77,50,0
251.65729,251.81728,76,50,0
251.81728,251.97728,77,47,0
251.81728,251.97728,83,57,0
251.97728,252.13728,76,47,0
251.49728,252.13728,88,73,0
252.13728,252.30257,83,50,0
252.13728,252.30257,77,47,0
252.30257,252.46786,76,50,0
252.13728,252.46786,86,73,0
252.46786,252.62828,79,62,0
252.46786,252.62828,76,50,0
252.62828,252.7866,72,50,0
252.7866,252.94492,76,47,0
252.7866,252.94492,79,57,0
252.94492,253.10323,72,47,0
253.10323,253.26154,79,50,0
253.10323,253.26154,76,47,0
253.26154,253.42413,72,50,0
252.46786,253.42413,84,73,0
253.42413,253.58499,82,62,0
253.42413,253.58499,79,50,0
253.58499,253.74585,72,50,0
253.74585,253.90671,82,57,0
253.74585,253.90671,79,47,0
253.90671,254.06757,72,47,0
254.06757,254.22885,82,50,0
254.06757,254.22885,79,47,0
254.22885,254.39015,72,50,0
254.39015,254.54973,81,62,0
254.39015,254.54973,77,50,0
254.54973,254.70929,72,50,0
254.70929,254.86887,81,57,0
254.70929,254.86887,77,47,0
254.86887,255.02844,72,47,0
255.02844,255.18887,81,50,0
255.02844,255.18887,77,47,0
255.18887,255.3493,72,50,0
255.3493,255.50931,77,62,0
255.3493,255.50931,74,50,0
255.50931,255.6693,72,50,0
255.6693,255.8293,77,57,0
255.6693,255.8293,74,47,0
255.8293,255.9893,72,47,0
255.9893,256.1493,77,50,0
255.9893,256.1493,74,47,0
256.1493,256.3093,72,50,0
256.3093,256.46597,79,62,0
256.3093,256.46597,76,50,0
256.46597,256.62262,72,50,0
256.62262,256.77927,79,57,0
256.62262,256.77927,76,47,0
256.77927,256.93594,72,47,0
256.93594,257.0926,79,50,0
256.93594,257.0926,76,47,0
257.0926,257.24924,72,50,0
253.42413,257.24924,84,73,0
257.24924,257.4059,70,44,0
257.24924,257.4059,67,36,0
257.4059,257.56256,60,36,0
257.56256,257.71924,70,40,0
257.56256,257.71924,67,33,0
257.71924,257.8759,60,32,0
257.8759,258.0359,70,35,0
257.8759,258.0359,67,32,0
258.0359,258.1959,60,35,0
258.1959,258.35336,69,43,0
258.1959,258.35336,65,35,0
258.35336,258.51083,60,34,0
258.51083,258.66833,69,39,0
258.51083,258.66833,65,32,0
258.66833,258.8258,60,32,0
258.8258,258.98495,69,34,0
258.8258,258.98495,65,32,0
258.98495,259.1441,60,33,0
259.1441,259.30157,65,41,0
259.1441,259.30157,62,33,0
259.30157,259.45908,60,33,0
259.45908,259.61655,65,37,0
259.45908,259.61655,62,31,0
259.61655,259.77402,60,31,0
259.77402,259.93192,65,32,0
259.77402,259.93192,62,31,0
259.93192,260.0898,60,32,0
260.0898,260.24728,67,40,0
260.0898,260.24728,64,32,0
260.24728,260.4048,60,32,0
260.4048,260.56226,67,36,0
260.4048,260.56226,64,30,0
260.56226,260.71973,60,29,0
260.71973,260.88058,67,32,0
260.71973,260.88058,64,29,0
260.88058,261.04144,60,32,0
261.04144,261.19852,64,38,0
261.19852,261.3556,60,31,0
261.3556,261.51266,64,35,0
261.51266,261.66974,60,28,0
261.66974,261.82678,64,30,0
261.82678,261.98386,60,30,0
261.98386,262.14053,64,37,0
262.14053,262.29718,60,30,0
262.29718,262.4526,64,33,0
262.4526,262.60968,60,27,0
262.60968,262.76392,64,28,0
262.76392,262.92267,60,28,0
262.92267,263.0797,64,35,0
263.0797,263.2368,60,27,0
263.2368,263.39185,64,31,0
263.39185,263.55014,60,24,0
263.55014,263.7064,64,26,0
263.7064,263.8643,60,26,0
257.24924,263.8643,72,65,0
263.8643,264.02054,64,34,0
264.02054,264.1768,60,26,0
264.1768,264.33224,64,30,0
264.33224,264.4901,60,24,0
264.4901,264.64597,64,26,0
264.64597,264.80304,60,26,0
264.80304,264.9601,64,33,0
264.9601,265.1172,60,25,0
265.1172,265.27423,64,29,0
265.27423,265.4313,60,23,0
265.4313,265.58838,64,25,0
265.58838,265.74545,60,25,0
265.74545,265.90253,64,32,0
265.90253,266.05957,60,24,0
266.05957,266.21503,64,28,0
266.21503,266.3725,60,22,0
266.3725,266.52875,64,24,0
266.52875,266.685,60,24,0
266.685,266.84207,64,31,0
266.84207,266.99915,60,24,0
266.99915,267.1558,64,27,0
267.1558,267.31244,60,22,0
267.31244,267.46994,64,23,0
267.46994,267.6274,60,23,0
267.6274,267.7845,64,30,0
267.7845,267.94156,60,23,0
267.94156,268.09863,64,26,0
268.09863,268.25568,60,21,0
268.25568,268.41275,64,22,0
268.41275,268.56982,60,22,0
268.56982,268.72647,64,29,0
268.72647,268.88315,60,22,0
268.88315,269.0398,64,25,0
269.0398,269.19644,60,20,0
269.19644,269.35312,64,22,0
269.35312,269.50977,60,22,0
269.50977,269.74805,64,28,0
269.74805,269.98837,60,22,0
269.98837,270.23068,64,27,0
270.23068,270.475,60,22,0
270.475,270.80777,64,27,0
270.80777,271.1495,60,22,0
271.1495,271.50076,64,26,0
271.50076,271.86243,60,20,0
271.86243,272.2371,64,25,0
272.2371,272.62393,60,20,0
272.62393,272.73196,64,60,0
272.73196,272.8393,62,62,0
272.8393,272.94568,60,64,0
272.94568,273.05167,59,66,0
273.05167,273.15775,57,69,0
273.15775,273.26288,55,71,0
273.26288,273.36557,53,73,0
273.36557,273.57172,52,82,0
273.984,274.56055,74,63,0
273.984,274.56055,86,75,0
273.984,274.56055,83,63,0
274.56055,275.13712,81,73,0
274.56055,275.13712,84,73,0
274.56055,275.13712,72,62,0
275.13712,275.71365,81,75,0
275.13712,275.71365,69,63,0
275.13712,275.71365,78,63,0
275.71365,275.79428,79,59,0
275.71365,275.79428,71,59,0
275.71365,275.79428,83,70,0
275.8749,275.9587,67,52,0
275.8749,275.9587,79,62,0
275.8749,275.9587,76,52,0
276.0425,276.12314,81,70,0
276.0425,276.12314,69,55,0
276.0425,276.12314,78,54,0
276.20374,276.2867,66,53,0
276.20374,276.2867,78,63,0
276.20374,276.2867,75,53,0
276.3697,276.45084,76,59,0
276.3697,276.45084,67,59,0
276.3697,276.45084,79,70,0
276.53198,276.61633,76,64,0
276.53198,276.61633,73,54,0
276.53198,276.61633,64,54,0
276.70068,276.8009,78,70,0
276.70068,276.8009,66,59,0
276.70068,276.8009,75,59,0
277.10162,277.1939,78,69,0
277.10162,277.1939,75,58,0
277.10162,277.1939,66,58,0
278.00742,278.08987,73,62,0
278.00742,278.08987,61,52,0
278.1723,278.25424,63,54,0
278.1723,278.25424,75,64,0
278.33615,278.41806,64,56,0
278.33615,278.41806,76,66,0
278.49997,278.5798,78,67,0
278.49997,278.5798,66,56,0
278.6596,278.73944,67,58,0
278.6596,278.73944,79,69,0
278.81924,278.9195,66,59,0
278.81924,278.9195,75,59,0
278.81924,278.9195,78,70,0
279.2202,279.3125,71,58,0
279.2202,279.3125,83,69,0
280.14294,280.2254,73,62,0
280.14294,280.2254,61,52,0
280.30783,280.38974,63,54,0
280.30783,280.38974,75,64,0
280.47168,280.5536,76,66,0
280.47168,280.5536,64,56,0
280.6355,280.71558,66,56,0
280.6355,280.71558,78,67,0
280.79565,280.8757,79,69,0
280.79565,280.8757,67,58,0
280.95578,281.05603,81,70,0
280.95578,281.05603,78,59,0
280.95578,281.05603,69,59,0
281.35675,281.44934,74,58,0
281.35675,281.44934,86,69,0
282.09763,282.30377,55,76,0
282.71606,283.28574,93,75,0
282.71606,283.28574,81,63,0
282.71606,283.28574,89,63,0
283.28574,283.85544,79,62,0
283.28574,283.85544,91,73,0
283.28574,283.85544,88,73,0
283.85544,284.42514,84,63,0
283.85544,284.42514,76,63,0
283.85544,284.42514,88,75,0
284.42514,284.50574,86,59,0
284.42514,284.50574,77,59,0
284.42514,284.50574,89,70,0
284.58636,284.67017,83,52,0
284.58636,284.67017,86,62,0
284.58636,284.67017,74,52,0
284.75397,284.8346,84,54,0
284.75397,284.8346,88,70,0
284.75397,284.8346,76,55,0
284.91522,284.9982,81,53,0
284.91522,284.9982,72,53,0
284.91522,284.9982,84,63,0
285.08118,285.16232,74,59,0
285.08118,285.16232,86,70,0
285.08118,285.16232,83,59,0
285.24344,285.3278,79,54,0
285.24344,285.3278,71,54,0
285.24344,285.3278,83,64,0
285.41214,285.5124,84,70,0
285.41214,285.5124,72,59,0
285.41214,285.5124,81,59,0
285.8131,285.9054,81,58,0
285.8131,285.9054,72,58,0
285.8131,285.9054,84,69,0
285.99765,286.5513,81,70,0
285.99765,286.5513,69,59,0
285.99765,286.5513,77,59,0
286.7189,286.80133,79,56,0
286.7189,286.80133,67,47,0
286.8838,286.9657,83,58,0
286.8838,286.9657,71,49,0
287.0476,287.12955,72,51,0
287.0476,287.12955,84,60,0
287.21146,287.29126,74,52,0
287.21146,287.29126,86,62,0
287.3711,287.4509,88,64,0
287.3711,287.4509,76,54,0
287.53073,287.62393,91,70,0
287.51077,287.62393,84,60,0
287.4908,287.62393,79,60,0
287.9036,287.99167,77,49,0
287.9036,287.99167,89,58,0
288.07974,288.6082,72,48,0
288.07974,288.6082,84,57,0
288.7758,288.85825,81,58,0
288.7758,288.85825,69,48,0
288.94067,289.0226,71,53,0
288.94067,289.0226,83,63,0
289.10452,289.18643,84,67,0
289.10452,289.18643,72,57,0
289.26837,289.34818,74,61,0
289.26837,289.34818,86,73,0
289.42798,289.5078,76,65,0
289.42798,289.5078,88,78,0
289.58762,289.6805,91,87,0
289.56766,289.6805,87,75,0
289.54773,289.6805,79,75,0
289.95914,290.04544,78,58,0
289.95914,290.04544,90,69,0
290.1317,290.64944,81,67,0
290.1317,290.64944,69,56,0
290.64944,290.8556,48,76,0
291.26785,291.84442,58,59,0
291.26785,291.84442,70,71,0
291.26785,291.84442,67,59,0
291.84442,292.42096,65,69,0
291.84442,292.42096,69,69,0
291.84442,292.42096,57,58,0
292.42096,292.99753,53,59,0
292.42096,292.99753,65,71,0
292.42096,292.99753,62,59,0
292.99753,293.07816,64,56,0
292.99753,293.07816,67,66,0
292.99753,293.07816,55,56,0
293.15878,293.24258,52,49,0
293.15878,293.24258,64,58,0
293.32635,293.40698,53,52,0
293.32635,293.40698,65,66,0
293.4876,293.5706,50,50,0
293.4876,293.5706,62,59,0
293.65356,293.7347,52,56,0
293.65356,293.7347,64,66,0
293.81583,293.90018,49,51,0
293.81583,293.90018,61,60,0
293.98453,294.08478,50,56,0
293.98453,294.08478,62,66,0
294.3855,294.47778,62,65,0
294.3855,294.47778,50,55,0
295.1237,295.32983,51,76,0
295.74213,296.31866,61,59,0
295.74213,296.31866,70,59,0
295.74213,296.31866,73,71,0
296.31866,296.89523,60,58,0
296.31866,296.89523,68,69,0
296.31866,296.89523,72,69,0
296.89523,297.47177,56,59,0
296.89523,297.47177,65,59,0
296.89523,297.47177,68,71,0
297.47177,297.5524,70,66,0
297.47177,297.5524,67,56,0
297.47177,297.5524,58,56,0
297.63303,297.71683,55,49,0
297.63303,297.71683,67,58,0
297.80063,297.88126,56,52,0
297.80063,297.88126,68,66,0
297.96188,298.04486,53,50,0
297.96188,298.04486,65,59,0
298.12784,298.20895,55,56,0
298.12784,298.20895,67,66,0
298.2901,298.37445,52,51,0
298.2901,298.37445,64,60,0
298.4588,298.55905,65,66,0
298.4588,298.55905,53,56,0
298.85977,298.95203,65,65,0
298.85977,298.95203,53,55,0
299.59793,299.80408,54,76,0
300.21637,300.79294,85,67,0
300.21637,300.79294,88,81,0
300.21637,300.79294,76,67,0
300.79294,301.36948,75,66,0
300.79294,301.36948,87,79,0
300.79294,301.36948,83,79,0
301.36948,301.94604,80,67,0
301.36948,301.94604,83,81,0
301.36948,301.94604,71,67,0
302.56445,303.14102,64,42,0
303.14102,303.71756,62,41,0
303.71756,304.29413,59,42,0
304.29413,304.49615,54,91,0
304.69815,304.89047,76,64,0
304.69815,304.89047,85,64,0
304.69815,304.89047,88,78,0
304.89047,305.2751,87,75,0
304.89047,305.2751,75,75,0
304.89047,305.2751,83,75,0
305.2751,305.4674,80,64,0
305.2751,305.4674,83,78,0
305.2751,305.4674,71,64,0
305.87143,306.06375,88,64,0
305.87143,306.06375,80,64,0
305.87143,306.06375,92,78,0
306.06375,306.44836,78,75,0
306.06375,306.44836,87,75,0
306.06375,306.44836,90,75,0
306.44836,306.64066,83,64,0
306.44836,306.64066,87,78,0
306.44836,306.64066,75,64,0
307.04068,307.23236,64,42,0
307.23236,307.61575,62,41,0
307.61575,307.80743,59,42,0
308.20743,308.39914,61,42,0
308.39914,308.78253,59,41,0
308.78253,308.9742,55,42,0
308.9742,309.31903,54,41,0
310.53052,310.61673,61,22,0
310.53052,310.61673,66,26,0
310.53052,310.61673,64,22,0
310.53052,310.61673,58,22,0
310.70294,310.78912,66,30,0
310.70294,310.78912,61,25,0
310.70294,310.78912,58,25,0
310.70294,310.78912,64,25,0
310.87534,310.96463,64,22,0
310.87534,310.96463,58,22,0
310.87534,310.96463,66,26,0
310.87534,310.96463,61,22,0
311.05392,311.14014,63,28,0
311.05392,311.14014,59,28,0
311.05392,311.14014,66,33,0
311.57117,311.65738,58,22,0
311.57117,311.65738,61,26,0
311.57117,311.65738,52,22,0
311.57117,311.65738,54,22,0
311.74356,311.82977,63,30,0
311.74356,311.82977,52,25,0
311.74356,311.82977,54,25,0
311.74356,311.82977,58,25,0
311.916,312.00528,61,26,0
311.916,312.00528,52,22,0
311.916,312.00528,54,22,0
311.916,312.00528,58,22,0
312.09454,312.18152,59,33,0
312.09454,312.18152,54,28,0
312.09454,312.18152,51,28,0
312.6163,312.70325,64,22,0
312.6163,312.70325,58,22,0
312.6163,312.70325,66,26,0
312.6163,312.70325,61,22,0
312.79022,312.87717,66,30,0
312.79022,312.87717,58,25,0
312.79022,312.87717,61,25,0
312.79022,312.87717,64,25,0
312.9641,313.0534,58,22,0
312.9641,313.0534,61,22,0
312.9641,313.0534,66,26,0
312.9641,313.0534,64,22,0
313.1427,313.22964,59,28,0
313.1427,313.22964,63,28,0
313.1427,313.22964,66,33,0
313.66443,313.7514,54,22,0
313.66443,313.7514,58,22,0
313.66443,313.7514,61,26,0
313.66443,313.7514,52,22,0
313.83835,313.9253,63,30,0
313.83835,313.9253,58,25,0
313.83835,313.9253,52,25,0
313.83835,313.9253,54,25,0
314.01227,314.10153,54,22,0
314.01227,314.10153,58,22,0
314.01227,314.10153,52,22,0
314.01227,314.10153,61,26,0
314.19083,314.27805,51,28,0
314.19083,314.27805,59,33,0
314.19083,314.27805,54,28,0
314.71408,314.8013,68,28,0
314.71408,314.8013,66,23,0
314.71408,314.8013,60,23,0
314.71408,314.8013,63,23,0
314.8885,314.9757,60,27,0
314.8885,314.9757,66,27,0
314.8885,314.9757,68,33,0
314.8885,314.9757,63,27,0
315.06293,315.15222,68,29,0
315.06293,315.15222,63,25,0
315.06293,315.15222,60,25,0
315.06293,315.15222,66,25,0
315.2415,315.32846,68,38,0
315.2415,315.32846,61,32,0
315.2415,315.32846,64,32,0
315.76324,315.8502,66,32,0
315.76324,315.8502,58,27,0
315.76324,315.8502,61,27,0
315.76324,315.8502,64,27,0
315.93713,316.0241,66,38,0
315.93713,316.0241,58,32,0
315.93713,316.0241,63,32,0
315.93713,316.0241,64,32,0
316.11105,316.20035,61,28,0
316.11105,316.20035,64,28,0
316.11105,316.20035,66,34,0
316.11105,316.20035,58,28,0
316.28964,316.37683,66,43,0
316.28964,316.37683,63,37,0
316.28964,316.37683,59,37,0
316.8129,316.9001,66,31,0
316.8129,316.9001,63,31,0
316.8129,316.9001,69,31,0
316.8129,316.9001,71,36,0
316.9873,317.07452,71,43,0
316.9873,317.07452,63,36,0
316.9873,317.07452,66,36,0
316.9873,317.07452,69,36,0
317.1617,317.251,71,38,0
317.1617,317.251,63,32,0
317.1617,317.251,66,32,0
317.1617,317.251,69,32,0
317.3403,317.42776,68,42,0
317.3403,317.42776,71,49,0
317.3403,317.42776,64,42,0
317.86508,317.95255,71,39,0
317.86508,317.95255,73,47,0
317.86508,317.95255,65,39,0
317.86508,317.95255,68,39,0
318.04,318.12747,65,46,0
318.04,318.12747,73,55,0
318.04,318.12747,71,46,0
318.04,318.12747,68,46,0
318.21494,318.30423,71,41,0
318.21494,318.30423,68,41,0
318.21494,318.30423,65,41,0
318.21494,318.30423,73,48,0
318.3935,318.48096,73,63,0
318.3935,318.48096,66,52,0
318.3935,318.48096,70,52,0
318.92685,319.01404,76,55,0
318.92685,319.01404,85,55,0
318.92685,319.01404,90,65,0
318.92685,319.01404,82,55,0
319.10126,319.18848,82,62,0
319.10126,319.18848,76,62,0
319.10126,319.18848,90,74,0
319.10126,319.18848,85,62,0
319.27567,319.36826,85,57,0
319.27567,319.36826,82,57,0
319.27567,319.36826,76,57,0
319.27567,319.36826,90,68,0
319.46088,319.54834,90,65,0
319.46088,319.54834,76,55,0
319.46088,319.54834,85,55,0
319.46088,319.54834,82,55,0
319.63605,319.72375,82,62,0
319.63605,319.72375,76,62,0
319.63605,319.72375,85,62,0
319.63605,319.72375,90,74,0
319.8115,319.9035,90,68,0
319.8115,319.9035,85,57,0
319.8115,319.9035,82,57,0
319.8115,319.9035,76,57,0
319.99554,320.08957,82,55,0
319.99554,320.08957,85,55,0
319.99554,320.08957,76,55,0
319.99554,320.08957,90,65,0
320.18362,320.27768,85,62,0
320.18362,320.27768,76,62,0
320.18362,320.27768,82,62,0
320.18362,320.27768,90,74,0
320.3717,320.47006,85,57,0
320.3717,320.47006,82,57,0
320.3717,320.47006,90,68,0
320.3717,320.47006,76,57,0
320.56842,320.66074,87,79,0
320.56842,320.66074,75,67,0
320.56842,320.66074,83,67,0
320.93765,321.02856,83,72,0
320.93765,321.02856,71,61,0
321.11948,321.21237,66,67,0
321.11948,321.21237,78,79,0
321.491,321.58163,63,60,0
321.491,321.58163,75,71,0
321.67227,321.76544,71,79,0
322.04492,322.13583,67,73,0
322.22675,322.31992,90,65,0
322.22675,322.31992,82,55,0
322.22675,322.31992,85,55,0
322.22675,322.31992,76,55,0
322.40973,322.49957,85,62,0
322.40973,322.49957,90,74,0
322.40973,322.49957,76,62,0
322.40973,322.49957,82,62,0
322.5894,322.68774,90,68,0
322.5894,322.68774,76,57,0
322.5894,322.68774,85,57,0
322.5894,322.68774,82,57,0
322.7861,322.87842,87,79,0
322.7861,322.87842,75,67,0
322.7861,322.87842,83,67,0
323.15533,323.24625,83,72,0
323.15533,323.24625,71,61,0
323.33716,323.43002,78,79,0
323.33716,323.43002,66,67,0
323.70868,323.79932,75,71,0
323.70868,323.79932,63,60,0
323.88995,323.9831,71,79,0
324.2626,324.35352,67,73,0
324.44443,324.53372,90,65,0
324.44443,324.53372,76,55,0
324.44443,324.53372,85,55,0
324.44443,324.53372,82,55,0
324.623,324.71228,82,62,0
324.623,324.71228,85,62,0
324.623,324.71228,90,74,0
324.623,324.71228,76,62,0
324.80157,324.89993,90,68,0
324.80157,324.89993,85,57,0
324.80157,324.89993,76,57,0
324.80157,324.89993,82,57,0
324.9983,325.0906,87,79,0
324.9983,325.0906,83,67,0
324.9983,325.0906,75,67,0
325.36752,325.45844,71,61,0
325.36752,325.45844,83,72,0
325.54935,325.6422,67,67,0
325.54935,325.6422,79,79,0
325.92087,326.0115,64,64,0
325.92087,326.0115,76,64,0
326.10214,326.19528,72,69,0
326.4748,326.5657,69,52,0
326.65662,326.74753,66,58,0
327.02026,327.11118,63,43,0
327.20206,327.29297,59,45,0
328.29297,328.38388,55,36,0
329.38388,329.4748,52,36,0
329.92935,330.5059,83,31,0
329.92935,330.5059,86,37,0
330.5059,331.07443,84,36,0
330.5059,331.07443,81,36,0
331.08246,331.659,78,31,0
331.08246,331.659,81,37,0
331.659,331.73962,79,29,0
331.659,331.73962,83,35,0
331.82025,331.90405,79,31,0
331.82025,331.90405,76,26,0
331.98785,332.06848,81,35,0
331.98785,332.06848,78,27,0
332.1491,332.2321,75,26,0
332.1491,332.2321,78,31,0
332.31506,332.39618,79,35,0
332.31506,332.39618,76,29,0
332.47733,332.56168,73,27,0
332.47733,332.56168,76,32,0
332.64603,332.74625,75,29,0
332.64603,332.74625,78,35,0
333.04697,333.13925,75,29,0
333.04697,333.13925,78,34,0
333.23154,333.95276,71,34,0
333.95276,334.03522,73,31,0
333.95276,334.03522,70,26,0
334.11765,334.1996,75,32,0
334.11765,334.1996,71,27,0
334.2815,334.3634,76,33,0
334.2815,334.3634,73,28,0
334.4453,334.52515,78,33,0
334.4453,334.52515,75,28,0
334.60495,334.68478,79,34,0
334.60495,334.68478,76,29,0
334.7646,334.86484,78,35,0
334.7646,334.86484,75,29,0
335.16556,335.25784,83,34,0
335.3501,336.07135,71,34,0
336.07135,336.15378,73,31,0
336.07135,336.15378,70,26,0
336.23624,336.31815,75,32,0
336.23624,336.31815,71,27,0
336.40005,336.482,76,33,0
336.40005,336.482,73,28,0
336.5639,336.6437,78,33,0
336.5639,336.6437,75,28,0
336.72354,336.80334,76,29,0
336.72354,336.80334,79,34,0
336.88318,336.9834,78,35,0
336.86322,336.9834,73,29,0
336.84326,336.9834,70,29,0
337.28415,337.3764,85,34,0
337.4687,338.0223,90,41,0
337.4687,338.0223,82,34,0
337.4687,338.0223,78,34,0
338.0223,338.12686,70,35,0
338.0223,338.12686,66,30,0
338.44043,338.54318,85,32,0
338.64594,339.23224,78,31,0
338.64594,339.23224,82,31,0
338.64594,339.23224,90,38,0
339.23224,339.35468,70,30,0
339.23224,339.35468,66,26,0
339.72205,339.8698,85,28,0
340.0176,342.29608,90,33,0
340.0176,342.29608,82,27,0
340.0176,342.29608,78,27,0
342.54926,342.63168,73,73,0
342.54926,342.63168,61,62,0
342.71414,342.79605,75,76,0
342.71414,342.79605,63,64,0
342.87796,342.9599,65,67,0
342.87796,342.9599,77,79,0
343.0418,343.1216,78,82,0
343.0418,343.1216,66,69,0
343.20145,343.28125,68,85,0
343.20145,343.28125,80,85,0
343.36108,343.4613,78,74,0
343.36108,343.4613,82,88,0
343.36108,343.4613,70,74,0
343.36108,343.4613,73,74,0
343.76202,343.8543,85,88,0
343.76202,343.8543,73,74,0
343.9466,344.03885,90,95,0
343.9466,344.03885,78,80,0
344.5002,344.70636,59,87,0
345.11865,345.68835,93,72,0
345.11865,345.68835,97,86,0
345.11865,345.68835,85,72,0
345.68835,346.25803,92,83,0
345.68835,346.25803,83,71,0
345.68835,346.25803,95,83,0
346.25803,346.82773,80,72,0
346.25803,346.82773,88,72,0
346.25803,346.82773,92,86,0
346.82773,346.90836,93,77,0
346.82773,346.90836,90,64,0
346.82773,346.90836,81,64,0
346.98898,347.07278,78,57,0
346.98898,347.07278,90,68,0
346.98898,347.07278,87,57,0
347.1566,347.2372,88,59,0
347.1566,347.2372,92,77,0
347.1566,347.2372,80,60,0
347.3178,347.40082,88,69,0
347.3178,347.40082,85,58,0
347.3178,347.40082,76,58,0
347.4838,347.5649,78,64,0
347.4838,347.5649,90,77,0
347.4838,347.5649,87,64,0
347.64606,347.7304,87,70,0
347.64606,347.7304,83,59,0
347.64606,347.7304,75,59,0
347.81476,347.91498,76,64,0
347.81476,347.91498,88,77,0
347.81476,347.91498,85,64,0
348.2157,348.30798,76,63,0
348.2157,348.30798,85,63,0
348.2157,348.30798,88,75,0
348.40027,348.9539,85,77,0
348.40027,348.9539,81,64,0
348.40027,348.9539,73,64,0
349.1215,349.20395,83,56,0
349.1215,349.20395,71,47,0
349.28638,349.36832,87,58,0
349.28638,349.36832,75,49,0
349.45023,349.53214,76,51,0
349.45023,349.53214,88,60,0
349.61404,349.69388,90,62,0
349.61404,349.69388,78,52,0
349.77368,349.85352,80,54,0
349.77368,349.85352,92,64,0
349.93332,350.02655,95,70,0
349.91336,350.02655,88,60,0
349.89343,350.02655,83,60,0
350.3062,350.3943,93,58,0
350.3062,350.3943,81,49,0
350.48236,351.0108,76,48,0
350.48236,351.0108,88,57,0
351.1784,351.26083,73,48,0
351.1784,351.26083,85,58,0
351.3433,351.4252,87,63,0
351.3433,351.4252,75,53,0
351.50714,351.58905,88,67,0
351.50714,351.58905,76,57,0
351.67096,351.7508,78,61,0
351.67096,351.7508,90,73,0
351.8306,351.9104,92,78,0
351.8306,351.9104,80,65,0
351.99023,352.0831,95,87,0
351.97028,352.0831,87,75,0
351.95032,352.0831,83,75,0
352.36176,352.44803,81,58,0
352.36176,352.44803,93,69,0
352.53433,353.05203,87,67,0
352.53433,353.05203,75,56,0
353.05203,353.25406,52,91,0
353.4561,353.64838,86,64,0
353.4561,353.64838,77,64,0
353.4561,353.64838,89,78,0
353.64838,354.033,84,75,0
353.64838,354.033,76,75,0
353.64838,354.033,88,75,0
354.033,354.2253,84,78,0
354.033,354.2253,72,64,0
354.033,354.2253,81,64,0
354.2253,354.30594,86,70,0
354.2253,354.30594,74,59,0
354.2253,354.30594,83,59,0
354.38657,354.47037,80,52,0
354.38657,354.47037,71,52,0
354.38657,354.47037,83,62,0
354.55414,354.63477,84,70,0
354.55414,354.63477,81,54,0
354.55414,354.63477,72,55,0
354.7154,354.79837,81,63,0
354.7154,354.79837,69,53,0
354.7154,354.79837,78,53,0
354.88135,354.9625,80,59,0
354.88135,354.9625,83,70,0
354.88135,354.9625,71,59,0
355.0436,355.12796,80,64,0
355.0436,355.12796,76,54,0
355.0436,355.12796,68,54,0
355.2123,355.31256,76,59,0
355.2123,355.31256,70,59,0
355.2123,355.31256,82,70,0
355.61328,355.8056,91,78,0
355.61328,355.8056,88,64,0
355.61328,355.8056,79,64,0
355.8056,356.19022,87,75,0
355.8056,356.19022,90,75,0
355.8056,356.19022,78,75,0
356.19022,356.3825,87,78,0
356.19022,356.3825,75,64,0
356.19022,356.3825,83,64,0
356.3825,356.46313,76,59,0
356.3825,356.46313,85,59,0
356.3825,356.46313,88,70,0
356.54376,356.62756,85,62,0
356.54376,356.62756,82,52,0
356.54376,356.62756,73,52,0
356.71136,356.792,87,70,0
356.71136,356.792,75,55,0
356.71136,356.792,83,54,0
356.87262,356.9556,71,53,0
356.87262,356.9556,83,63,0
356.87262,356.9556,80,53,0
357.03857,357.1197,81,59,0
357.03857,357.1197,84,70,0
357.03857,357.1197,72,59,0
357.20084,357.2852,78,54,0
357.20084,357.2852,81,64,0
357.20084,357.2852,69,54,0
357.36954,357.4698,78,59,0
357.36954,357.4698,71,59,0
357.36954,357.4698,83,70,0
357.7705,357.9628,93,64,0
357.7705,357.9628,96,78,0
357.7705,357.9628,84,64,0
357.9628,358.3474,91,75,0
357.9628,358.3474,83,75,0
357.9628,358.3474,95,75,0
358.3474,358.53973,88,64,0
358.3474,358.53973,79,64,0
358.3474,358.53973,91,78,0
358.53973,358.62036,81,59,0
358.53973,358.62036,90,59,0
358.53973,358.62036,93,70,0
358.70096,358.78476,78,52,0
358.70096,358.78476,90,62,0
358.70096,358.78476,87,52,0
358.86856,358.9492,88,55,0
358.86856,358.9492,91,70,0
358.86856,358.9492,79,55,0
359.02982,359.1128,88,63,0
359.02982,359.1128,84,53,0
359.02982,359.1128,76,53,0
359.19577,359.27692,90,70,0
359.19577,359.27692,86,59,0
359.19577,359.27692,78,59,0
359.35803,359.44138,86,64,0
359.35803,359.44138,83,54,0
359.35803,359.44138,74,54,0
359.52472,359.60513,84,59,0
359.52472,359.60513,88,70,0
359.52472,359.60513,76,59,0
359.68558,359.76843,72,52,0
359.68558,359.76843,81,52,0
359.68558,359.76843,84,62,0
359.85132,359.93195,74,55,0
359.85132,359.93195,86,70,0
359.85132,359.93195,83,55,0
360.01257,360.09555,83,63,0
360.01257,360.09555,71,53,0
360.01257,360.09555,79,53,0
360.17853,360.25964,81,59,0
360.17853,360.25964,84,70,0
360.17853,360.25964,72,59,0
360.3408,360.4241,69,54,0
360.3408,360.4241,81,64,0
360.3408,360.4241,78,54,0
360.50745,360.58853,71,59,0
360.50745,360.58853,79,59,0
360.50745,360.58853,83,70,0
360.66962,360.75342,76,53,0
360.66962,360.75342,79,63,0
360.66962,360.75342,67,53,0
360.83722,360.91785,81,73,0
360.83722,360.91785,78,57,0
360.83722,360.91785,69,57,0
360.99844,361.08142,75,57,0
360.99844,361.08142,66,57,0
360.99844,361.08142,78,68,0
361.1644,361.24554,67,65,0
361.1644,361.24554,79,77,0
361.1644,361.24554,76,65,0
361.3267,361.41104,64,61,0
361.3267,361.41104,72,61,0
361.3267,361.41104,76,72,0
361.4954,361.8876,80,76,0
361.4954,361.8876,88,76,0
361.4954,361.8876,92,90,0
361.90823,362.30045,91,90,0
361.90823,362.30045,88,76,0
361.90823,362.30045,79,76,0
362.32108,362.7133,78,76,0
362.32108,362.7133,90,90,0
362.32108,362.7133,87,76,0
362.73395,363.12616,86,76,0
362.73395,363.12616,89,90,0
362.73395,363.12616,77,76,0
363.1468,363.539,76,75,0
363.1468,363.539,88,89,0
363.1468,363.539,85,75,0
363.55966,363.95187,84,73,0
363.55966,363.95187,75,73,0
363.55966,363.95187,87,87,0
363.9725,364.3787,83,72,0
363.9725,364.3787,74,72,0
363.9725,364.3787,86,85,0
364.40005,364.80624,82,71,0
364.40005,364.80624,85,84,0
364.40005,364.80624,73,71,0
364.82764,365.23383,72,69,0
364.82764,365.23383,81,69,0
364.82764,365.23383,84,82,0
365.2552,365.68433,83,81,0
365.2552,365.68433,80,68,0
365.2552,365.68433,71,68,0
365.7069,366.07938,71,67,0
365.7069,366.07938,83,80,0
365.7069,366.07938,79,67,0
366.19537,366.68326,78,66,0
366.19537,366.68326,83,78,0
366.19537,366.68326,75,66,0
366.19537,366.68326,71,66,0
366.70895,366.78958,76,70,0
366.70895,366.78958,64,59,0
366.87024,366.95654,71,52,0
366.87024,366.95654,74,62,0
367.04282,367.12433,64,55,0
367.04282,367.12433,76,70,0
367.20587,367.29214,72,63,0
367.20587,367.29214,69,53,0
367.37845,367.46063,64,59,0
367.37845,367.46063,76,70,0
367.54282,367.62912,67,54,0
367.54282,367.62912,71,64,0
367.71542,367.79715,76,70,0
367.71542,367.79715,64,59,0
367.8789,367.9647,66,52,0
367.8789,367.9647,69,62,0
368.0505,368.13248,64,55,0
368.0505,368.13248,76,70,0
368.21442,368.30023,67,63,0
368.38602,368.46823,64,59,0
368.38602,368.46823,76,70,0
368.5504,368.63596,66,64,0
368.5504,368.63596,62,54,0
368.72153,368.80447,76,70,0
368.72153,368.80447,64,59,0
368.88742,368.97498,60,51,0
368.88742,368.97498,64,61,0
369.06253,369.14594,64,53,0
369.06253,369.14594,76,68,0
369.22934,369.31714,59,51,0
369.22934,369.31714,62,61,0
369.40497,369.48837,64,56,0
369.40497,369.48837,76,66,0
369.57178,369.65933,60,60,0
369.57178,369.65933,57,50,0
369.7469,369.83344,76,65,0
369.7469,369.83344,64,54,0
369.91995,370.0132,55,47,0
369.91995,370.0132,59,57,0
370.1065,370.1964,76,63,0
370.1065,370.1964,64,49,0
370.28632,370.38287,57,56,0
370.28632,370.38287,54,47,0
370.47946,370.57272,64,51,0
370.47946,370.57272,76,61,0
370.666,370.7651,53,46,0
370.666,370.7651,57,55,0
370.86423,370.95212,52,51,0
370.86423,370.95212,55,61,0
371.04004,371.12793,55,61,0
371.04004,371.12793,52,51,0
371.21585,371.30865,55,61,0
371.21585,371.30865,52,51,0
371.40143,371.9448,53,56,0
371.40143,371.9448,57,67,0
371.9448,372.03296,55,61,0
371.9448,372.03296,52,51,0
372.12112,372.2093,55,61,0
372.12112,372.2093,52,51,0
372.29745,372.3914,52,51,0
372.29745,372.3914,55,61,0
372.48535,373.02707,57,61,0
372.48535,373.02707,69,61,0
372.48535,373.02707,60,61,0
373.02707,373.11987,52,51,0
373.02707,373.11987,55,61,0
373.21268,373.30548,55,61,0
373.21268,373.30548,52,51,0
373.3983,373.52173,55,61,0
373.3983,373.52173,52,51,0
373.64517,374.37183,84,99,0
373.64517,374.37183,72,77,0
373.64517,374.37183,76,77,0
373.64517,374.37183,79,77,0
374.73517,374.826,55,95,0
374.73517,374.826,52,79,0
375.28015,375.371,52,79,0
375.28015,375.371,55,95,0
375.81985,375.91315,55,95,0
375.81985,375.91315,52,79,0
376.3859,377.64948,93,84,0
376.3859,377.64948,89,84,0
376.3859,377.64948,101,101,0
376.3859,377.64948,96,84,0
377.73746,377.8254,84,59,0
377.73746,377.8254,96,70,0
377.9134,378.00137,81,60,0
377.9134,378.00137,93,71,0
378.08936,378.17734,89,72,0
378.08936,378.17734,77,61,0
378.2653,378.35327,72,58,0
378.2653,378.35327,84,69,0
378.44125,378.52924,69,59,0
378.44125,378.52924,81,70,0
378.61722,378.70517,77,77,0
378.61722,378.70517,65,65,0
378.79315,378.88113,72,74,0
378.79315,378.88113,60,62,0
378.96912,379.0571,69,75,0
378.96912,379.0571,57,63,0
379.14508,379.23303,53,70,0
379.14508,379.23303,65,83,0
379.321,379.409,60,77,0
379.321,379.409,48,65,0
379.50046,379.6025,62,78,0
379.50046,379.6025,50,66,0
379.6025,379.69125,52,68,0
379.6025,379.69125,48,68,0
379.6025,379.69125,55,68,0
379.6025,379.69125,60,80,0
380.6676,380.75635,48,68,0
380.6676,380.75635,55,68,0
380.6676,380.75635,52,68,0
380.6676,380.75635,60,80,0
381.73267,381.82144,48,68,0
381.73267,381.82144,52,68,0
381.73267,381.82144,55,68,0
381.73267,381.82144,60,80,0
0.0,0.206143,28,51,0
0.0,0.206143,40,61,0
0.618429,1.1949825,62,56,0
0.618429,1.1949825,59,47,0
1.1949825,1.771536,57,47,0
1.1949825,1.771536,60,56,0
1.771536,2.3480895,54,47,0
1.771536,2.3480895,57,56,0
2.3480895,2.428713,55,47,0
2.3480895,2.428713,59,56,0
0.618429,2.4958992,52,47,0
2.5093365,2.5931356,52,44,0
2.5093365,2.5931356,55,52,0
2.6769345,2.757558,54,47,0
2.6769345,2.757558,57,56,0
2.8381815,2.9211597,54,50,0
2.8381815,2.9211597,51,42,0
3.004138,3.0852718,55,56,0
3.004138,3.0852718,52,47,0
3.1664054,3.2507558,49,44,0
3.1664054,3.2507558,52,52,0
3.335106,3.4353466,54,56,0
3.335106,3.4353466,51,47,0
3.920615,4.641854,47,55,0
3.920615,4.641854,59,68,0
4.641854,4.724299,49,49,0
4.8067436,4.8886614,51,50,0
4.9705796,5.0524974,52,52,0
5.1344156,5.2142324,54,53,0
5.2940493,5.3738666,55,54,0
5.4536834,5.553924,54,56,0
5.4536834,5.553924,51,47,0
6.0391927,6.7773805,59,68,0
6.0391927,6.7773805,47,55,0
6.7773805,6.859825,49,49,0
6.94227,7.024188,51,50,0
7.106106,7.188024,52,52,0
7.269942,7.3500104,54,53,0
7.4300785,7.5101466,55,54,0
7.590215,7.6904554,57,56,0
7.590215,7.6904554,54,47,0
8.176396,8.546836,62,68,0
8.176396,8.546836,50,55,0
8.732055,8.938198,43,61,0
8.732055,8.938198,31,51,0
9.350484,9.9201765,65,47,0
9.350484,9.9201765,69,56,0
9.9201765,10.489869,67,56,0
9.9201765,10.489869,64,47,0
10.489869,11.059562,64,56,0
10.489869,11.059562,60,47,0
11.059562,11.140185,62,47,0
11.059562,11.140185,65,56,0
9.350484,11.207372,55,47,0
11.220808,11.304607,62,52,0
11.220808,11.304607,59,44,0
11.388407,11.46903,64,56,0
11.388407,11.46903,60,47,0
11.549653,11.632631,57,42,0
11.549653,11.632631,60,50,0
11.71561,11.796743,62,56,0
11.71561,11.796743,59,47,0
11.877877,11.962228,55,44,0
11.877877,11.962228,59,52,0
12.046578,12.146818,60,56,0
12.046578,12.146818,57,47,0
12.44754,12.539813,57,44,0
12.44754,12.539813,60,53,0
12.632087,13.185728,53,55,0
12.632087,13.185728,57,68,0
13.185728,13.518215,52,46,0
13.185728,13.518215,40,40,0
13.682052,14.005522,52,34,0
13.682052,14.005522,60,39,0
13.682052,14.005522,55,34,0
14.165155,14.538034,38,40,0
14.165155,14.538034,50,46,0
14.714184,15.066483,60,39,0
14.714184,15.066483,50,34,0
14.714184,15.066483,53,34,0
14.714184,15.066483,57,34,0
15.242633,15.57512,36,40,0
15.242633,15.57512,48,46,0
15.738956,16.062426,57,38,0
15.738956,16.062426,48,38,0
15.738956,16.062426,52,38,0
15.738956,16.062426,60,44,0
16.22206,16.593576,35,50,0
16.22206,16.593576,47,57,0
16.76615,17.111294,63,46,0
16.76615,17.111294,54,40,0
16.76615,17.111294,59,40,0
17.283867,17.49001,40,61,0
17.283867,17.49001,28,51,0
17.902296,18.47885,59,47,0
17.902296,18.47885,62,56,0
18.47885,19.055403,60,56,0
18.47885,19.055403,57,47,0
19.055403,19.631956,54,47,0
19.055403,19.631956,57,56,0
19.631956,19.71258,55,47,0
19.631956,19.71258,59,56,0
17.902296,19.779766,52,47,0
19.793203,19.877003,55,52,0
19.793203,19.877003,52,44,0
19.960802,20.041426,57,56,0
19.960802,20.041426,54,47,0
20.12205,20.205027,51,42,0
20.12205,20.205027,54,50,0
20.288006,20.369139,52,47,0
20.288006,20.369139,55,56,0
20.450272,20.534622,52,52,0
20.450272,20.534622,49,44,0
20.618973,20.719213,51,47,0
20.618973,20.719213,54,56,0
21.204481,21.92572,59,68,0
21.204481,21.92572,47,55,0
21.92572,22.008165,49,49,0
22.09061,22.17253,51,50,0
22.254446,22.336365,52,52,0
22.418282,22.4981,54,53,0
22.577917,22.657734,55,54,0
22.73755,22.837791,51,47,0
22.73755,22.837791,54,56,0
23.32306,24.061247,59,68,0
23.32306,24.061247,47,55,0
24.061247,24.143692,49,49,0
24.226137,24.308056,51,50,0
24.389973,24.471891,52,52,0
24.553808,24.633877,54,53,0
24.713945,24.794014,55,54,0
24.874083,24.974323,57,56,0
24.874083,24.974323,54,47,0
25.460264,25.830702,50,55,0
25.460264,25.830702,62,68,0
26.015923,26.222065,43,61,0
26.015923,26.222065,31,51,0
26.634352,27.204044,65,47,0
26.634352,27.204044,69,56,0
27.204044,27.773735,67,56,0
27.204044,27.773735,64,47,0
27.773735,28.343428,60,47,0
27.773735,28.343428,64,56,0
28.343428,28.424051,65,56,0
28.343428,28.424051,62,47,0
26.634352,28.491238,55,47,0
28.504675,28.588474,59,44,0
28.504675,28.588474,62,52,0
28.672274,28.752897,64,56,0
28.672274,28.752897,60,47,0
28.83352,28.916498,60,50,0
28.83352,28.916498,57,42,0
28.999477,29.08061,62,56,0
28.999477,29.08061,59,47,0
29.161745,29.246096,55,44,0
29.161745,29.246096,59,52,0
29.330444,29.430685,60,56,0
29.330444,29.430685,57,47,0
29.731407,29.82368,60,53,0
29.731407,29.82368,57,44,0
29.915955,30.469595,57,68,0
29.915955,30.469595,53,55,0
30.469595,30.802082,52,46,0
30.469595,30.802082,40,40,0
30.965918,31.289389,52,34,0
30.965918,31.289389,60,39,0
30.965918,31.289389,55,34,0
31.449022,31.821901,38,40,0
31.449022,31.821901,50,46,0
31.99805,32.35035,60,39,0
31.99805,32.35035,53,34,0
31.99805,32.35035,57,34,0
31.99805,32.35035,50,34,0
32.5265,32.858986,48,46,0
32.5265,32.858986,36,40,0
33.022823,33.346294,60,44,0
33.022823,33.346294,57,38,0
33.022823,33.346294,52,38,0
33.022823,33.346294,48,38,0
33.505928,33.877445,35,50,0
33.505928,33.877445,47,57,0
34.05002,34.39516,59,40,0
34.05002,34.39516,63,46,0
34.05002,34.39516,54,40,0
34.567734,34.773876,36,61,0
34.567734,34.773876,24,51,0
35.186165,35.76272,43,44,0
35.186165,35.76272,46,53,0
35.76272,36.33927,41,44,0
35.76272,36.33927,45,53,0
35.186165,36.72364,36,44,0
36.33927,36.915825,38,44,0
36.33927,36.915825,41,53,0
36.915825,36.99645,43,53,0
36.915825,36.99645,40,44,0
37.077072,37.16087,37,49,0
37.244667,37.32529,38,53,0
37.405914,37.488895,35,47,0
37.571873,37.653008,37,53,0
37.73414,37.81849,33,49,0
37.90284,38.003082,38,53,0
38.48835,39.04199,26,52,0
38.48835,39.04199,38,64,0
39.04199,39.248135,27,51,0
39.04199,39.248135,39,61,0
39.66042,40.236973,49,53,0
39.66042,40.236973,46,44,0
40.236973,40.813526,44,44,0
40.236973,40.813526,48,53,0
39.66042,41.197895,39,44,0
40.813526,41.39008,41,44,0
40.813526,41.39008,44,53,0
41.39008,41.470703,43,44,0
41.39008,41.470703,46,53,0
41.551327,41.635124,40,49,0
41.718925,41.79955,41,53,0
41.880173,41.96315,38,47,0
42.046127,42.127262,40,53,0
42.208397,42.292747,36,49,0
42.377094,42.477337,41,53,0
42.962605,43.516247,29,52,0
42.962605,43.516247,41,64,0
43.516247,43.72239,30,51,0
43.516247,43.72239,42,61,0
44.134674,44.711227,64,60,0
44.134674,44.711227,61,50,0
44.711227,45.28778,59,50,0
44.711227,45.28778,63,60,0
44.134674,45.67215,54,50,0
45.28778,45.864334,56,50,0
45.28778,45.864334,59,60,0
46.482765,47.05932,55,31,0
47.05932,47.63587,54,31,0
47.63587,48.212425,50,31,0
45.864334,48.212425,42,36,0
48.212425,48.414444,30,61,0
48.22337,48.42539,42,73,0
48.616467,48.808773,64,58,0
48.616467,48.808773,61,48,0
48.808773,49.193386,59,48,0
48.808773,49.193386,63,58,0
48.616467,49.37768,54,39,0
49.193386,49.385696,56,48,0
49.193386,49.385696,59,58,0
49.789734,49.982044,68,58,0
49.789734,49.982044,64,48,0
49.982044,50.366657,63,48,0
49.982044,50.366657,66,58,0
50.366657,50.558964,59,48,0
50.366657,50.558964,63,58,0
49.385696,50.558964,54,73,0
50.958965,51.150658,55,31,0
51.150658,51.534046,54,31,0
51.534046,51.72574,50,31,0
50.558964,51.72574,42,44,0
52.12574,52.317432,52,31,0
52.317432,52.70082,50,27,0
52.70082,52.892513,47,29,0
51.72574,52.892513,42,36,0
52.892513,52.97872,42,33,0
53.064926,53.151134,35,27,0
53.237343,53.323547,42,32,0
53.409756,53.49596,35,26,0
53.58217,53.668377,42,31,0
53.75458,53.84308,35,27,0
53.931576,54.01778,42,29,0
54.10399,54.190193,35,26,0
54.2764,54.36261,42,31,0
54.972214,55.058422,42,32,0
55.14463,55.230835,35,25,0
55.317043,55.40325,42,29,0
56.012856,56.099815,42,32,0
56.18677,56.273727,35,24,0
56.360683,56.44764,42,30,0
57.060993,57.14795,42,33,0
57.234905,57.32186,35,27,0
57.40882,57.495777,42,32,0
58.10913,58.19634,42,32,0
58.28355,58.370758,35,28,0
58.457966,58.545177,42,34,0
59.159794,59.24675,42,37,0
59.333706,59.420662,35,30,0
59.50762,59.594578,42,39,0
60.20793,60.29514,35,45,0
60.382347,60.46956,42,35,0
60.556767,60.64398,35,45,0
60.731186,60.818394,42,41,0
61.258595,61.346058,35,51,0
61.43352,61.520985,42,39,0
61.608448,61.69591,35,51,0
61.783375,61.87084,42,46,0
62.311802,62.399265,35,64,0
62.48673,62.574192,42,53,0
62.661655,62.7534,35,58,0
62.845142,62.93235,42,53,0
63.37916,63.466625,47,61,0
63.37916,63.466625,35,51,0
63.554344,63.642063,42,45,0
63.554344,63.642063,54,53,0
63.729786,63.821808,35,51,0
63.729786,63.821808,47,60,0
63.913834,64.00787,42,45,0
63.913834,64.00787,54,53,0
64.10192,64.19597,47,62,0
64.10192,64.19597,35,52,0
64.29001,64.38837,54,53,0
64.29001,64.38837,42,45,0
64.48673,64.57904,35,52,0
64.48673,64.57904,47,62,0
64.855965,64.94687,59,54,0
65.03778,65.13066,54,58,0
65.409294,65.49993,51,54,0
65.59057,65.68373,47,51,0
65.59057,65.68373,59,60,0
65.963234,66.054146,43,45,0
65.963234,66.054146,55,54,0
66.14506,66.23822,42,45,0
66.14506,66.23822,54,53,0
66.32804,66.41786,35,52,0
66.32804,66.41786,47,62,0
66.50768,66.60604,54,53,0
66.50768,66.60604,42,45,0
66.70441,66.796715,35,52,0
66.70441,66.796715,47,62,0
67.07364,67.16454,59,54,0
67.255455,67.348335,54,58,0
67.62697,67.717606,51,54,0
67.80824,67.901405,59,60,0
67.80824,67.901405,47,51,0
68.18091,68.27182,55,54,0
68.18091,68.27182,43,45,0
68.36273,68.45201,42,45,0
68.36273,68.45201,54,53,0
68.5413,68.630585,35,52,0
68.5413,68.630585,47,62,0
68.71987,68.81823,54,53,0
68.71987,68.81823,42,45,0
68.916595,69.0089,35,52,0
68.916595,69.0089,47,62,0
69.28583,69.37673,59,54,0
69.46764,69.560524,55,58,0
69.83916,69.929794,52,46,0
70.02043,70.113594,60,52,0
70.02043,70.113594,48,43,0
70.3931,70.48401,57,39,0
70.3931,70.48401,45,32,0
70.57492,70.665825,42,37,0
70.57492,70.665825,54,44,0
70.93855,71.029465,51,31,0
70.93855,71.029465,39,26,0
71.12037,71.21128,35,29,0
71.12037,71.21128,47,34,0
72.21128,72.302185,43,27,0
72.21128,72.302185,31,23,0
73.302185,73.48401,40,27,0
73.302185,73.84764,28,23,0
73.84764,74.424194,32,23,0
74.424194,75.00075,33,26,0
75.00075,75.5773,36,22,0
75.5773,76.06739,40,26,0
76.06739,76.564316,34,21,0
76.564316,77.149826,35,26,0
77.149826,77.70347,47,21,0
77.70347,78.19979,43,26,0
78.19979,78.6829,40,21,0
78.6829,79.2684,35,26,0
79.2684,79.822044,47,21,0
79.822044,80.31837,43,26,0
80.31837,80.801476,40,21,0
80.801476,81.386986,42,26,0
81.386986,81.94062,37,21,0
81.94062,82.14968,54,18,0
81.94062,82.14968,61,23,0
81.94062,82.14968,58,18,0
82.564224,83.150536,37,19,0
83.150536,83.39544,58,15,0
83.150536,83.39544,54,15,0
83.150536,83.39544,61,20,0
83.935905,86.214386,37,17,0
86.467545,86.54999,37,47,0
86.467545,86.54999,49,56,0
86.63244,86.714355,51,57,0
86.63244,86.714355,39,48,0
86.79627,86.87819,53,58,0
86.79627,86.87819,41,49,0
86.960106,87.039925,42,51,0
86.960106,87.039925,54,61,0
87.11974,87.19956,56,63,0
87.11974,87.19956,44,53,0
87.27937,87.379616,46,55,0
87.27937,87.379616,58,65,0
87.680336,87.77261,49,62,0
87.680336,87.77261,37,52,0
87.86488,87.95716,42,75,0
87.86488,87.95716,30,63,0
88.418526,88.62467,35,58,0
88.418526,88.62467,47,70,0
89.03696,89.60665,73,64,0
89.03696,89.60665,69,54,0
89.60665,90.17634,71,64,0
89.60665,90.17634,68,54,0
90.17634,90.74603,68,64,0
90.17634,90.74603,64,54,0
90.74603,90.82665,69,61,0
90.74603,90.82665,66,51,0
89.03696,90.893845,59,54,0
90.90728,90.99108,66,57,0
90.90728,90.99108,63,48,0
91.074875,91.1555,68,61,0
91.074875,91.1555,64,51,0
91.23612,91.3191,64,55,0
91.23612,91.3191,61,46,0
91.402084,91.483215,63,51,0
91.402084,91.483215,66,61,0
91.56435,91.6487,59,48,0
91.56435,91.6487,63,57,0
91.73305,91.83329,64,61,0
91.73305,91.83329,61,51,0
92.13401,92.22629,61,48,0
92.13401,92.22629,64,58,0
92.31856,92.8722,57,60,0
92.31856,92.8722,61,74,0
92.8722,93.20469,56,46,0
92.8722,93.20469,44,40,0
93.36852,93.69199,64,39,0
93.36852,93.69199,56,34,0
93.36852,93.69199,59,34,0
93.85162,94.2245,54,46,0
93.85162,94.2245,42,40,0
94.40066,94.75295,57,34,0
94.40066,94.75295,61,34,0
94.40066,94.75295,64,39,0
94.40066,94.75295,54,34,0
94.9291,95.26159,40,40,0
94.9291,95.26159,52,46,0
95.42543,95.74889,61,38,0
95.42543,95.74889,64,44,0
95.42543,95.74889,56,38,0
95.42543,95.74889,52,38,0
95.90853,96.280045,35,50,0
95.90853,96.280045,47,57,0
96.45262,96.79777,63,46,0
96.45262,96.79777,57,40,0
96.45262,96.79777,54,40,0
96.45262,96.79777,59,40,0
96.97034,97.172356,28,61,0
96.97034,97.172356,40,73,0
97.9513,98.14361,65,58,0
98.14361,98.47245,64,62,0
98.47245,98.6337,60,58,0
98.6337,98.96192,62,63,0
98.96192,99.13062,59,58,0
97.56669,99.13062,52,58,0
99.13062,99.33111,52,67,0
99.13062,99.33111,61,67,0
99.72389,99.9162,28,61,0
99.72389,99.9162,40,73,0
100.10851,100.30082,67,58,0
100.30082,100.62966,66,62,0
100.62966,100.79091,63,58,0
100.79091,101.11913,64,63,0
101.11913,101.287834,61,58,0
100.30082,101.287834,52,58,0
101.287834,101.48831,63,67,0
101.287834,101.48831,52,67,0
101.8811,102.07341,28,61,0
101.8811,102.07341,40,73,0
102.26572,102.45802,72,58,0
102.26572,102.45802,60,49,0
102.45802,102.78687,59,52,0
102.45802,102.78687,71,62,0
102.78687,102.86749,67,58,0
102.78687,102.86749,55,49,0
102.94812,103.0311,69,47,0
102.94812,103.0311,57,39,0
103.114075,103.195206,54,45,0
103.114075,103.195206,66,53,0
103.276344,103.35967,67,48,0
103.276344,103.35967,55,40,0
103.44301,103.52344,64,67,0
103.44301,103.52344,52,67,0
103.60387,103.68674,54,40,0
103.60387,103.68674,66,48,0
103.769615,103.850235,62,58,0
103.769615,103.850235,50,49,0
103.93086,104.01384,52,39,0
103.93086,104.01384,64,47,0
104.09682,104.17795,60,53,0
104.09682,104.17795,48,45,0
104.25908,104.342415,62,48,0
104.25908,104.342415,50,40,0
104.42575,104.50683,59,67,0
104.42575,104.50683,47,67,0
104.58791,104.67171,60,48,0
104.58791,104.67171,48,40,0
104.75551,104.836136,57,60,0
104.75551,104.836136,45,51,0
104.916756,104.99973,59,50,0
104.916756,104.99973,47,42,0
105.08271,105.16385,55,58,0
105.08271,105.16385,43,49,0
105.24498,105.32933,45,45,0
105.24498,105.32933,57,54,0
105.32933,105.371506,35,62,0
105.371506,105.41368,47,63,0
105.41368,105.80589,68,70,0
105.41368,105.80589,71,70,0
105.41368,105.80589,64,59,0
105.41368,105.80589,59,59,0
105.82654,106.21874,67,59,0
105.82654,106.21874,64,59,0
105.82654,106.21874,59,59,0
105.82654,106.21874,71,70,0
106.23939,106.6316,63,59,0
106.23939,106.6316,71,70,0
106.23939,106.6316,66,59,0
106.23939,106.6316,59,59,0
106.652245,107.04446,71,70,0
106.652245,107.04446,62,59,0
106.652245,107.04446,65,70,0
106.652245,107.04446,59,59,0
107.065094,107.457306,71,69,0
107.065094,107.457306,61,58,0
107.065094,107.457306,64,58,0
107.065094,107.457306,59,58,0
107.47795,107.87016,71,67,0
107.47795,107.87016,59,57,0
107.47795,107.87016,63,57,0
107.47795,107.87016,60,57,0
107.89081,108.29699,59,56,0
107.89081,108.29699,71,66,0
107.89081,108.29699,62,56,0
108.31837,108.724556,58,55,0
108.31837,108.724556,71,65,0
108.31837,108.724556,61,55,0
108.74593,109.152115,60,54,0
108.74593,109.152115,57,54,0
108.74593,109.152115,71,64,0
109.1735,109.602615,59,53,0
109.1735,109.602615,68,63,0
109.1735,109.602615,56,53,0
109.6252,109.997665,67,62,0
109.6252,109.997665,59,52,0
109.6252,109.997665,55,52,0
110.11368,110.60157,66,60,0
110.022095,110.60157,47,51,0
110.05262,110.60157,54,51,0
110.08315,110.60157,57,51,0
110.62725,110.70789,40,67,0
110.62725,110.70789,52,67,0
110.788536,110.87483,47,40,0
110.788536,110.87483,50,48,0
110.96112,111.04264,40,49,0
110.96112,111.04264,52,58,0
111.12417,111.21046,48,47,0
111.12417,111.21046,45,39,0
111.296745,111.37894,40,45,0
111.296745,111.37894,52,53,0
111.46113,111.547424,43,40,0
111.46113,111.547424,47,48,0
111.63371,111.715454,40,67,0
111.63371,111.715454,52,67,0
111.7972,111.882996,42,40,0
111.80221,111.888,45,48,0
111.968796,112.050766,40,49,0
111.968796,112.050766,52,58,0
112.13273,112.21853,43,47,0
112.30433,112.38652,52,53,0
112.46871,112.55426,38,40,0
112.46871,112.55426,42,48,0
112.63982,112.72277,52,67,0
112.80572,112.893265,40,47,0
112.80572,112.893265,36,39,0
112.98082,113.06423,40,56,0
113.147644,113.23545,38,45,0
113.147644,113.23545,35,37,0
113.32326,113.40667,40,50,0
113.49008,113.57763,33,37,0
113.49008,113.57763,36,45,0
113.66518,113.75172,40,62,0
113.83826,113.931526,35,44,0
113.83826,113.931526,31,36,0
114.024796,114.11471,40,52,0
114.20462,114.301186,33,41,0
114.20462,114.301186,30,34,0
114.39775,114.49102,40,46,0
114.58429,114.68341,33,41,0
114.58429,114.68341,29,34,0
114.78253,114.87043,40,44,0
114.78253,114.87043,28,37,0
114.958336,115.04624,40,44,0
114.958336,115.04624,28,37,0
115.13415,115.226944,28,37,0
115.13415,115.226944,40,44,0
115.31974,115.86309,48,52,0
115.31974,115.86309,45,44,0
115.86309,115.951256,40,44,0
115.86309,115.951256,28,37,0
116.03941,116.12758,28,37,0
116.03941,116.12758,40,44,0
116.215744,116.3097,28,37,0
116.215744,116.3097,40,44,0
116.40366,116.94537,45,48,0
116.40366,116.94537,53,57,0
116.94537,117.03818,40,44,0
116.94537,117.03818,28,37,0
117.130974,117.22377,40,44,0
117.130974,117.22377,28,37,0
117.31657,117.440025,40,44,0
117.31657,117.440025,28,37,0
117.563484,118.29014,60,71,0
117.563484,118.29014,52,60,0
117.563484,118.29014,55,60,0
117.563484,118.29014,46,60,0
118.653465,118.7443,28,57,0
118.653465,118.7443,40,69,0
119.19846,119.28929,40,69,0
119.19846,119.28929,28,57,0
119.73815,119.83146,28,57,0
119.73815,119.83146,40,69,0
120.3042,121.567764,45,64,0
120.3042,121.567764,48,64,0
120.3042,121.567764,60,77,0
120.3042,121.567764,53,64,0
121.567764,121.65575,60,59,0
121.567764,121.65575,72,70,0
121.74372,121.831696,69,64,0
121.74372,121.831696,57,54,0
121.91967,122.00765,53,60,0
121.91967,122.00765,65,72,0
122.09563,122.1836,60,68,0
122.09563,122.1836,48,57,0
122.271576,122.35956,45,59,0
122.271576,122.35956,57,70,0
122.44753,122.53551,53,77,0
122.44753,122.53551,41,64,0
122.62348,122.711464,48,71,0
122.62348,122.711464,36,59,0
122.79944,122.88741,33,60,0
122.79944,122.88741,45,72,0
122.97539,123.06337,29,69,0
122.97539,123.06337,41,81,0
123.151344,123.23932,24,63,0
123.151344,123.23932,36,75,0
123.32729,123.41876,38,78,0
123.32729,123.41876,26,65,0
123.5208,123.60956,36,78,0
123.5208,123.60956,24,66,0
124.58589,124.67465,24,66,0
124.58589,124.67465,36,78,0
125.65098,125.73974,36,78,0
125.65098,125.73974,24,66,0
129.91135,134.06523,43,35,0
129.91135,134.06523,36,29,0
134.06523,136.08882,41,40,0
134.06523,136.08882,29,34,0
136.09615,138.13141,41,40,0
136.09615,138.13141,29,34,0
138.13141,139.51724,52,35,0
139.51724,139.86108,53,40,0
139.86108,140.202,54,35,0
138.13141,140.202,43,29,0
140.202,140.53299,55,40,0
140.54002,140.87805,57,36,0
140.87805,141.21608,59,40,0
141.21608,141.55411,60,37,0
141.55411,141.89214,62,41,0
140.54002,141.89214,55,29,0
141.89214,142.29721,64,48,0
142.29721,143.30312,52,34,0
142.29721,143.30312,67,40,0
142.29721,143.30312,58,34,0
142.29721,143.30312,61,34,0
143.30312,143.97163,62,34,0
143.30312,143.97163,54,34,0
143.30312,143.97163,66,40,0
143.30312,143.97163,57,34,0
143.97163,144.32355,65,33,0
143.97163,144.32355,56,28,0
144.32355,144.99496,64,36,0
144.99496,145.3283,63,32,0
145.3283,145.99268,64,36,0
145.99268,146.37935,67,33,0
144.32355,146.37935,57,30,0
146.37935,147.39925,65,36,0
147.39925,148.06451,64,36,0
148.07152,148.41609,64,33,0
146.37935,148.42343,58,30,0
148.42343,149.09569,64,36,0
149.09569,149.42719,63,32,0
149.42719,150.09758,64,36,0
150.09758,150.48425,67,33,0
148.42343,150.48425,59,30,0
150.48425,151.50415,60,30,0
150.48425,151.50415,66,36,0
151.50415,152.52832,61,30,0
151.50415,152.52832,64,36,0
152.52832,153.19972,62,36,0
154.59367,155.2627,55,45,0
155.2627,155.59698,54,42,0
155.59698,156.27115,55,39,0
156.27115,156.65782,50,42,0
158.72217,159.394,50,42,0
159.394,159.72734,49,39,0
159.72734,160.39774,50,35,0
160.39774,160.78441,45,37,0
161.81407,162.48634,50,38,0
162.48634,162.82733,44,34,0
163.84602,164.52208,50,35,0
164.52208,164.89171,43,32,0
164.89171,169.04567,43,35,0
164.89171,169.04567,36,29,0
169.04567,171.08203,29,34,0
169.04567,171.08203,41,40,0
171.08995,173.12796,41,40,0
171.08995,173.12796,29,34,0
173.12796,174.52295,52,35,0
174.52295,174.86679,53,40,0
174.86679,175.20769,54,35,0
173.12796,175.20769,43,29,0
175.20769,175.53868,55,40,0
175.54572,175.88374,57,36,0
175.88374,176.22177,59,40,0
176.22177,176.5598,60,37,0
176.5598,176.89783,62,41,0
175.54572,176.89783,55,29,0
176.89783,177.28246,64,48,0
177.28246,178.28584,61,34,0
177.28246,178.28584,52,34,0
177.28246,178.28584,67,40,0
177.28246,178.28584,58,34,0
178.28584,178.95624,57,34,0
178.28584,178.95624,54,34,0
178.28584,178.95624,62,34,0
178.28584,178.95624,66,40,0
178.95624,179.30814,56,28,0
178.95624,179.30814,65,33,0
179.30814,179.97998,64,36,0
179.97998,180.31425,63,32,0
180.31425,180.98235,64,36,0
180.98235,181.36902,67,33,0
179.30814,181.36902,57,30,0
181.36902,182.38892,65,36,0
182.38892,183.05418,64,36,0
183.06119,183.40576,64,33,0
181.36902,183.41309,58,30,0
183.41309,184.08536,64,36,0
184.08536,184.42154,63,32,0
184.42154,185.0938,64,36,0
185.0938,185.48048,67,33,0
183.41309,185.48048,59,30,0
185.48048,186.50038,60,30,0
185.48048,186.50038,66,36,0
186.50038,187.51723,64,36,0
186.50038,187.52455,61,30,0
187.52455,188.19571,62,36,0
189.58614,190.25839,55,45,0
190.25839,190.59366,54,42,0
190.59366,191.26593,55,39,0
191.26593,191.6526,50,42,0
193.71814,194.39041,50,42,0
194.39041,194.72667,49,39,0
194.72667,195.39894,50,35,0
195.39894,195.78561,45,37,0
196.81529,197.48755,50,38,0
197.48755,197.82854,44,34,0
198.84723,199.52328,50,35,0
199.52328,199.89456,43,32,0
199.89456,204.04846,36,29,0
199.89456,204.04846,43,35,0
204.04846,206.07013,29,34,0
204.04846,206.07013,41,40,0
206.07747,208.12544,29,34,0
206.07747,208.12544,41,40,0
208.12544,209.51984,51,35,0
209.51984,209.86368,53,40,0
209.86368,210.20459,54,35,0
208.12544,210.20459,43,29,0
210.20459,210.53557,55,40,0
210.54262,210.88065,57,36,0
210.88065,211.21867,59,40,0
211.21867,211.5567,60,37,0
211.5567,211.89473,62,41,0
210.54262,211.89473,55,29,0
211.89473,212.20723,63,48,0
212.27934,213.2836,67,40,0
212.20723,213.2836,52,34,0
212.23126,213.2836,58,34,0
212.2553,213.2836,61,34,0
213.2836,213.95586,53,34,0
213.2836,213.95586,56,34,0
213.2836,213.95586,61,34,0
213.2836,213.95586,65,40,0
213.95586,214.30411,63,33,0
213.95586,214.30411,55,28,0
213.95586,214.30411,61,28,0
214.30777,215.31529,61,34,0
214.30777,215.31529,63,40,0
214.30777,215.31529,55,34,0
215.31529,215.98569,61,28,0
215.31529,215.98569,56,28,0
215.31529,215.98569,65,40,0
215.98569,216.33392,63,33,0
215.98569,216.33392,58,23,0
215.98569,216.33392,61,23,0
216.3376,218.01332,61,31,0
216.3376,218.01332,58,31,0
216.3376,218.01332,63,37,0
218.01332,218.36057,61,35,0
218.01332,218.36057,65,41,0
218.01332,218.36057,56,35,0
218.36412,220.04936,61,31,0
218.36412,220.04936,63,37,0
218.36412,220.04936,58,31,0
220.04936,220.39761,56,35,0
220.04936,220.39761,65,41,0
220.04936,220.39761,61,35,0
220.40128,222.01051,61,31,0
220.40128,222.01051,63,37,0
220.40128,222.01051,58,31,0
222.07283,222.42108,65,41,0
222.05206,222.42108,61,35,0
222.03128,222.42108,56,35,0
222.01051,222.42474,53,35,0
222.42474,224.04713,61,31,0
222.42474,224.04713,63,37,0
222.42474,224.04713,55,31,0
224.11017,224.4584,65,41,0
224.08916,224.4584,61,35,0
224.06815,224.4584,56,35,0
224.04713,224.46207,53,35,0
224.46207,225.47047,63,37,0
224.46207,226.46405,61,31,0
224.46207,226.46405,55,31,0
225.47047,227.45398,64,37,0
226.46405,228.4421,56,33,0
226.46405,228.4421,62,33,0
227.45398,229.43109,65,42,0
229.43109,230.42833,66,57,0
228.4421,230.42833,63,50,0
228.4421,230.42833,57,38,0
230.42833,231.44542,45,52,0
230.42833,231.44542,57,65,0
230.42833,231.44542,51,52,0
232.40549,232.43607,31,54,0
231.44542,232.46664,36,52,0
232.43607,232.46664,36,59,0
232.46664,232.49722,43,63,0
231.44542,232.49722,45,62,0
231.44542,232.49722,33,67,0
232.49722,233.89162,64,61,0
232.49722,233.89162,67,72,0
233.89162,234.23546,65,59,0
233.89162,234.23546,62,50,0
232.49722,234.56926,55,61,0
234.23546,234.57637,66,59,0
234.23546,234.57637,63,50,0
234.57637,234.9144,67,62,0
234.57637,234.9144,64,52,0
234.9144,235.25243,69,56,0
234.9144,235.25243,60,47,0
234.57637,235.42143,55,52,0
235.25243,235.5482,62,47,0
235.25243,235.5482,71,56,0
235.59045,235.92848,72,65,0
235.56932,235.92848,64,55,0
235.5482,235.92848,55,55,0
235.92848,236.26651,74,54,0
235.92848,236.26651,65,45,0
236.55496,236.61157,29,54,0
236.61157,236.66817,41,55,0
236.26651,236.66817,76,54,0
236.26651,236.66817,67,45,0
236.66817,237.67657,64,70,0
236.66817,237.67657,61,59,0
236.66817,237.67657,58,59,0
237.67657,238.34885,57,59,0
236.66817,238.34885,53,59,0
237.67657,238.34885,62,59,0
237.67657,238.34885,65,70,0
238.34885,238.70074,55,59,0
238.70074,239.37302,55,72,0
239.37302,239.70915,53,61,0
239.70915,240.38142,52,68,0
240.38142,240.71756,50,58,0
238.70074,240.71756,41,61,0
240.71756,242.11194,52,67,0
242.11194,242.45578,53,64,0
242.45578,242.79381,54,56,0
240.71756,242.79381,43,56,0
243.12901,243.45778,57,57,0
243.45778,243.7821,59,64,0
243.7821,244.10643,60,59,0
244.10643,244.43074,62,65,0
244.43074,244.81537,64,76,0
242.79381,244.81537,55,64,0
244.81537,245.442,52,53,0
244.81537,245.442,49,45,0
244.81537,245.442,46,45,0
244.81537,245.442,40,45,0
245.442,246.06863,48,45,0
245.442,246.06863,41,45,0
245.442,246.06863,53,53,0
246.06863,246.69525,54,53,0
246.06863,246.69525,51,45,0
246.06863,246.69525,48,45,0
246.06863,246.69525,42,45,0
246.69525,247.32188,55,53,0
246.69525,247.32188,43,45,0
246.69525,247.32188,48,45,0
246.69525,247.32188,51,45,0
247.32188,247.94852,57,53,0
247.32188,247.94852,48,45,0
247.32188,247.94852,45,45,0
247.32188,247.94852,51,45,0
247.94852,248.57515,59,53,0
247.94852,248.57515,50,45,0
247.94852,248.57515,47,45,0
247.94852,248.57515,55,45,0
248.57515,249.20508,60,53,0
248.57515,249.20508,52,45,0
248.57515,249.20508,48,45,0
248.57515,249.20508,55,45,0
249.20508,249.54121,61,53,0
249.20508,249.54121,55,45,0
249.20508,249.54121,49,45,0
249.20508,249.54121,58,45,0
249.54121,250.18121,62,53,0
249.54121,250.18121,53,45,0
249.54121,250.18121,50,45,0
249.54121,250.18121,57,45,0
250.18121,250.51735,65,53,0
250.18121,250.51735,57,45,0
250.18121,250.51735,53,45,0
250.18121,250.51735,62,45,0
250.51735,251.49728,67,53,0
250.51735,251.49728,60,45,0
250.51735,251.49728,55,45,0
250.51735,251.49728,64,45,0
251.49728,252.46786,43,47,0
251.49728,252.46786,31,40,0
252.46786,253.42413,48,47,0
252.46786,253.42413,36,40,0
252.46786,253.42413,43,40,0
253.42413,254.39015,58,40,0
253.42413,254.39015,55,40,0
254.39015,255.3493,57,40,0
254.39015,255.3493,53,40,0
255.3493,256.3093,53,40,0
255.3493,256.3093,50,40,0
256.3093,256.62262,55,47,0
253.42413,256.62262,60,47,0
253.42413,256.62262,48,40,0
256.3093,256.62262,52,47,0
256.62262,256.77927,52,40,0
256.62262,256.77927,40,40,0
256.93594,257.0926,53,40,0
256.93594,257.0926,41,40,0
257.24924,257.4059,50,51,0
257.24924,257.4059,38,51,0
257.56256,257.71924,52,42,0
257.56256,257.71924,40,42,0
257.24924,258.1959,46,51,0
258.1959,259.1441,45,47,0
258.1959,259.1441,41,47,0
259.1441,260.0898,41,43,0
257.8759,260.0898,36,42,0
257.8759,260.0898,48,42,0
259.1441,260.0898,38,43,0
260.0898,260.24728,43,42,0
260.0898,260.24728,40,42,0
260.4048,260.56226,40,35,0
260.71973,260.88058,41,32,0
261.04144,261.19852,38,38,0
261.3556,261.51266,40,31,0
261.66974,264.1768,36,30,0
264.1768,264.33224,36,30,0
264.4901,264.64597,38,29,0
264.80304,264.9601,35,34,0
265.1172,265.27423,36,28,0
265.4313,267.94156,33,27,0
267.94156,268.09863,33,26,0
268.25568,268.41275,35,26,0
268.56982,268.72647,31,30,0
268.88315,269.0398,33,24,0
269.19644,272.62393,29,24,0
272.62393,272.73196,40,47,0
272.73196,272.8393,38,49,0
272.8393,272.94568,36,52,0
272.94568,273.05167,35,54,0
273.05167,273.15775,33,57,0
273.15775,273.26288,31,59,0
273.26288,273.36557,29,62,0
273.36557,273.57172,40,73,0
273.36557,273.57172,28,73,0
273.984,274.56055,59,47,0
273.984,274.56055,62,56,0
274.56055,275.13712,60,56,0
274.56055,275.13712,57,47,0
275.13712,275.71365,54,47,0
275.13712,275.71365,57,56,0
275.71365,275.79428,55,47,0
275.71365,275.79428,59,56,0
273.984,275.86148,52,47,0
275.8749,275.9587,55,52,0
275.8749,275.9587,52,44,0
276.0425,276.12314,57,56,0
276.0425,276.12314,54,47,0
276.20374,276.2867,51,42,0
276.20374,276.2867,54,50,0
276.3697,276.45084,52,47,0
276.3697,276.45084,55,56,0
276.53198,276.61633,52,52,0
276.53198,276.61633,49,44,0
276.70068,276.8009,51,47,0
276.70068,276.8009,54,56,0
277.2862,278.00742,59,68,0
277.2862,278.00742,47,55,0
278.00742,278.08987,49,49,0
278.1723,278.25424,51,50,0
278.33615,278.41806,52,52,0
278.49997,278.5798,54,53,0
278.6596,278.73944,55,54,0
278.81924,278.9195,51,47,0
278.81924,278.9195,54,56,0
279.40475,280.14294,59,68,0
279.40475,280.14294,47,55,0
280.14294,280.2254,49,49,0
280.30783,280.38974,51,50,0
280.47168,280.5536,52,52,0
280.6355,280.71558,54,53,0
280.79565,280.8757,55,54,0
280.95578,281.05603,57,56,0
280.95578,281.05603,54,47,0
281.54196,281.9124,50,55,0
281.54196,281.9124,62,68,0
282.09763,282.30377,43,61,0
282.09763,282.30377,31,51,0
282.71606,283.28574,65,47,0
282.71606,283.28574,69,56,0
283.28574,283.85544,67,56,0
283.28574,283.85544,64,47,0
283.85544,284.42514,60,47,0
283.85544,284.42514,64,56,0
284.42514,284.50574,65,56,0
284.42514,284.50574,62,47,0
282.71606,284.57294,55,47,0
284.58636,284.67017,59,44,0
284.58636,284.67017,62,52,0
284.75397,284.8346,64,56,0
284.75397,284.8346,60,47,0
284.91522,284.9982,60,50,0
284.91522,284.9982,57,42,0
285.08118,285.16232,62,56,0
285.08118,285.16232,59,47,0
285.24344,285.3278,55,44,0
285.24344,285.3278,59,52,0
285.41214,285.5124,60,56,0
285.41214,285.5124,57,47,0
285.8131,285.9054,60,53,0
285.8131,285.9054,57,44,0
285.99765,286.5513,57,68,0
285.99765,286.5513,53,55,0
286.5513,286.8838,52,46,0
286.5513,286.8838,40,40,0
287.0476,287.3711,52,34,0
287.0476,287.3711,60,39,0
287.0476,287.3711,55,34,0
287.53073,287.9036,38,40,0
287.53073,287.9036,50,46,0
288.07974,288.43204,60,39,0
288.07974,288.43204,53,34,0
288.07974,288.43204,57,34,0
288.07974,288.43204,50,34,0
288.6082,288.94067,48,46,0
288.6082,288.94067,36,40,0
289.10452,289.42798,60,44,0
289.10452,289.42798,57,38,0
289.10452,289.42798,52,38,0
289.10452,289.42798,48,38,0
289.58762,289.95914,35,50,0
289.58762,289.95914,47,57,0
290.1317,290.47687,59,40,0
290.1317,290.47687,63,46,0
290.1317,290.47687,54,40,0
290.64944,290.8556,36,61,0
290.64944,290.8556,24,51,0
291.26785,291.84442,43,44,0
291.26785,291.84442,46,53,0
291.84442,292.42096,41,44,0
291.84442,292.42096,45,53,0
291.26785,292.80533,36,44,0
292.42096,292.99753,38,44,0
292.42096,292.99753,41,53,0
292.99753,293.07816,43,53,0
292.99753,293.07816,40,44,0
293.15878,293.24258,37,49,0
293.32635,293.40698,38,53,0
293.4876,293.5706,35,47,0
293.65356,293.7347,37,53,0
293.81583,293.90018,33,49,0
293.98453,294.08478,38,53,0
294.57004,295.1237,26,52,0
294.57004,295.1237,38,64,0
295.1237,295.32983,27,51,0
295.1237,295.32983,39,61,0
295.74213,296.31866,49,53,0
295.74213,296.31866,46,44,0
296.31866,296.89523,44,44,0
296.31866,296.89523,48,53,0
295.74213,297.2796,39,44,0
296.89523,297.47177,41,44,0
296.89523,297.47177,44,53,0
297.47177,297.5524,43,44,0
297.47177,297.5524,46,53,0
297.63303,297.71683,40,49,0
297.80063,297.88126,41,53,0
297.96188,298.04486,38,47,0
298.12784,298.20895,40,53,0
298.2901,298.37445,36,49,0
298.4588,298.55905,41,53,0
299.0443,299.59793,29,52,0
299.0443,299.59793,41,64,0
299.59793,299.80408,30,51,0
299.59793,299.80408,42,61,0
300.21637,300.79294,64,60,0
300.21637,300.79294,61,50,0
300.79294,301.36948,59,50,0
300.79294,301.36948,63,60,0
300.21637,301.75385,54,50,0
301.36948,301.94604,56,50,0
301.36948,301.94604,59,60,0
302.56445,303.14102,55,31,0
303.14102,303.71756,54,31,0
303.71756,304.29413,50,31,0
301.94604,304.29413,42,36,0
304.29413,304.49615,30,61,0
304.30505,304.50708,42,73,0
304.69815,304.89047,64,58,0
304.69815,304.89047,61,48,0
304.89047,305.2751,59,48,0
304.89047,305.2751,63,58,0
304.69815,305.45938,54,39,0
305.2751,305.4674,56,48,0
305.2751,305.4674,59,58,0
305.87143,306.06375,68,58,0
305.87143,306.06375,64,48,0
306.06375,306.44836,63,48,0
306.06375,306.44836,66,58,0
306.44836,306.64066,59,48,0
306.44836,306.64066,63,58,0
305.4674,306.64066,54,73,0
307.04068,307.23236,55,31,0
307.23236,307.61575,54,31,0
307.61575,307.80743,50,31,0
306.64066,307.80743,42,36,0
308.20743,308.39914,52,31,0
308.39914,308.78253,50,27,0
308.78253,308.9742,47,29,0
307.80743,308.9742,42,36,0
308.9742,309.06042,42,33,0
309.14664,309.23285,35,27,0
309.31903,309.40524,42,32,0
309.49146,309.57767,35,26,0
309.66388,309.75006,42,31,0
309.83627,309.92477,35,27,0
310.01328,310.0995,42,29,0
310.1857,310.27188,35,26,0
310.3581,310.4443,42,31,0
311.05392,311.14014,42,32,0
311.22632,311.31253,35,25,0
311.39874,311.48495,42,29,0
312.09454,312.18152,42,32,0
312.26846,312.35544,35,24,0
312.44238,312.52933,42,30,0
313.1427,313.22964,42,33,0
313.31662,313.40356,35,27,0
313.4905,313.57748,42,32,0
314.19083,314.27805,42,32,0
314.36523,314.45245,35,28,0
314.53967,314.62686,42,34,0
315.2415,315.32846,42,37,0
315.4154,315.50235,35,30,0
315.58932,315.67627,42,39,0
316.28964,316.37683,35,45,0
316.46405,316.55127,42,35,0
316.63846,316.72568,35,45,0
316.8129,316.9001,42,41,0
317.3403,317.42776,35,51,0
317.51523,317.6027,42,39,0
317.69016,317.77762,35,51,0
317.86508,317.95255,42,46,0
318.3935,318.48096,35,64,0
318.56842,318.65588,42,53,0
318.74335,318.83508,35,58,0
318.92685,319.01404,42,53,0
319.46088,319.54834,47,61,0
319.46088,319.54834,35,51,0
319.63605,319.72375,42,45,0
319.63605,319.72375,54,53,0
319.8115,319.9035,35,51,0
319.8115,319.9035,47,60,0
319.99554,320.08957,42,45,0
319.99554,320.08957,54,53,0
320.18362,320.27768,47,62,0
320.18362,320.27768,35,52,0
320.3717,320.47006,54,53,0
320.3717,320.47006,42,45,0
320.56842,320.66074,35,52,0
320.56842,320.66074,47,62,0
320.93765,321.02856,59,54,0
321.11948,321.21237,54,58,0
321.491,321.58163,51,54,0
321.67227,321.76544,47,51,0
321.67227,321.76544,59,60,0
322.04492,322.13583,43,45,0
322.04492,322.13583,55,54,0
322.22675,322.31992,42,45,0
322.22675,322.31992,54,53,0
322.40973,322.49957,35,52,0
322.40973,322.49957,47,62,0
322.5894,322.68774,54,53,0
322.5894,322.68774,42,45,0
322.7861,322.87842,35,52,0
322.7861,322.87842,47,62,0
323.15533,323.24625,59,54,0
323.33716,323.43002,54,58,0
323.70868,323.79932,51,54,0
323.88995,323.9831,59,60,0
323.88995,323.9831,47,51,0
324.2626,324.35352,55,54,0
324.2626,324.35352,43,45,0
324.44443,324.53372,42,45,0
324.44443,324.53372,54,53,0
324.623,324.71228,35,52,0
324.623,324.71228,47,62,0
324.80157,324.89993,54,53,0
324.80157,324.89993,42,45,0
324.9983,325.0906,35,52,0
324.9983,325.0906,47,62,0
325.36752,325.45844,59,54,0
325.54935,325.6422,55,58,0
325.92087,326.0115,52,46,0
326.10214,326.19528,60,52,0
326.10214,326.19528,48,43,0
326.4748,326.5657,57,39,0
326.4748,326.5657,45,32,0
326.65662,326.74753,42,37,0
326.65662,326.74753,54,44,0
327.02026,327.11118,51,31,0
327.02026,327.11118,39,26,0
327.20206,327.29297,35,29,0
327.20206,327.29297,47,34,0
328.29297,328.38388,43,27,0
328.29297,328.38388,31,23,0
329.38388,329.5657,40,27,0
329.38388,329.92935,28,23,0
329.92935,330.5059,32,23,0
330.5059,331.08246,33,26,0
331.08246,331.659,36,22,0
331.659,332.1491,40,26,0
332.1491,332.64603,34,21,0
332.64603,333.23154,35,26,0
333.23154,333.78516,47,21,0
333.78516,334.2815,43,26,0
334.2815,334.7646,40,21,0
334.7646,335.3501,35,26,0
335.3501,335.90375,47,21,0
335.90375,336.40005,43,26,0
336.40005,336.88318,40,21,0
336.88318,337.4687,42,26,0
337.4687,338.0223,37,21,0
338.0223,338.23138,54,18,0
338.0223,338.23138,61,23,0
338.0223,338.23138,58,18,0
338.64594,339.23224,37,19,0
339.23224,339.47714,58,15,0
339.23224,339.47714,54,15,0
339.23224,339.47714,61,20,0
340.0176,342.29608,37,17,0
342.54926,342.63168,37,47,0
342.54926,342.63168,49,56,0
342.71414,342.79605,51,57,0
342.71414,342.79605,39,48,0
342.87796,342.9599,53,58,0
342.87796,342.9599,41,49,0
343.0418,343.1216,42,51,0
343.0418,343.1216,54,61,0
343.20145,343.28125,56,63,0
343.20145,343.28125,44,53,0
343.36108,343.4613,46,55,0
343.36108,343.4613,58,65,0
343.76202,343.8543,49,62,0
343.76202,343.8543,37,52,0
343.9466,344.03885,42,75,0
343.9466,344.03885,30,63,0
344.5002,344.70636,35,58,0
344.5002,344.70636,47,70,0
345.11865,345.68835,73,64,0
345.11865,345.68835,69,54,0
345.68835,346.25803,71,64,0
345.68835,346.25803,68,54,0
346.25803,346.82773,68,64,0
346.25803,346.82773,64,54,0
346.82773,346.90836,69,61,0
346.82773,346.90836,66,51,0
345.11865,346.97556,59,54,0
346.98898,347.07278,66,57,0
346.98898,347.07278,63,48,0
347.1566,347.2372,68,61,0
347.1566,347.2372,64,51,0
347.3178,347.40082,64,55,0
347.3178,347.40082,61,46,0
347.4838,347.5649,63,51,0
347.4838,347.5649,66,61,0
347.64606,347.7304,59,48,0
347.64606,347.7304,63,57,0
347.81476,347.91498,64,61,0
347.81476,347.91498,61,51,0
348.2157,348.30798,61,48,0
348.2157,348.30798,64,58,0
348.40027,348.9539,57,60,0
348.40027,348.9539,61,74,0
348.9539,349.28638,56,46,0
348.9539,349.28638,44,40,0
349.45023,349.77368,64,39,0
349.45023,349.77368,56,34,0
349.45023,349.77368,59,34,0
349.93332,350.3062,54,46,0
349.93332,350.3062,42,40,0
350.48236,350.83466,57,34,0
350.48236,350.83466,61,34,0
350.48236,350.83466,64,39,0
350.48236,350.83466,54,34,0
351.0108,351.3433,40,40,0
351.0108,351.3433,52,46,0
351.50714,351.8306,61,38,0
351.50714,351.8306,64,44,0
351.50714,351.8306,56,38,0
351.50714,351.8306,52,38,0
351.99023,352.36176,35,50,0
351.99023,352.36176,47,57,0
352.53433,352.87946,63,46,0
352.53433,352.87946,57,40,0
352.53433,352.87946,54,40,0
352.53433,352.87946,59,40,0
353.05203,353.25406,28,61,0
353.05203,353.25406,40,73,0
354.033,354.2253,65,58,0
354.2253,354.55414,64,62,0
354.55414,354.7154,60,58,0
354.7154,355.0436,62,63,0
355.0436,355.2123,59,58,0
353.64838,355.2123,52,58,0
355.2123,355.4128,52,67,0
355.2123,355.4128,61,67,0
355.8056,355.9979,28,61,0
355.8056,355.9979,40,73,0
356.19022,356.3825,67,58,0
356.3825,356.71136,66,62,0
356.71136,356.87262,63,58,0
356.87262,357.20084,64,63,0
357.20084,357.36954,61,58,0
356.3825,357.36954,52,58,0
357.36954,357.57,63,67,0
357.36954,357.57,52,67,0
357.9628,358.15512,28,61,0
357.9628,358.15512,40,73,0
358.3474,358.53973,72,58,0
358.3474,358.53973,60,49,0
358.53973,358.86856,59,52,0
358.53973,358.86856,71,62,0
358.86856,358.9492,67,58,0
358.86856,358.9492,55,49,0
359.02982,359.1128,69,47,0
359.02982,359.1128,57,39,0
359.19577,359.27692,54,45,0
359.19577,359.27692,66,53,0
359.35803,359.44138,67,48,0
359.35803,359.44138,55,40,0
359.52472,359.60513,64,67,0
359.52472,359.60513,52,67,0
359.68558,359.76843,54,40,0
359.68558,359.76843,66,48,0
359.85132,359.93195,62,58,0
359.85132,359.93195,50,49,0
360.01257,360.09555,52,39,0
360.01257,360.09555,64,47,0
360.17853,360.25964,60,53,0
360.17853,360.25964,48,45,0
360.3408,360.4241,62,48,0
360.3408,360.4241,50,40,0
360.50745,360.58853,59,67,0
360.50745,360.58853,47,67,0
360.66962,360.75342,60,48,0
360.66962,360.75342,48,40,0
360.83722,360.91785,57,60,0
360.83722,360.91785,45,51,0
360.99844,361.08142,59,50,0
360.99844,361.08142,47,42,0
361.1644,361.24554,55,58,0
361.1644,361.24554,43,49,0
361.3267,361.41104,45,45,0
361.3267,361.41104,57,54,0
361.41104,361.45322,35,62,0
361.45322,361.4954,47,63,0
361.4954,361.8876,68,70,0
361.4954,361.8876,71,70,0
361.4954,361.8876,64,59,0
361.4954,361.8876,59,59,0
361.90823,362.30045,67,59,0
361.90823,362.30045,64,59,0
361.90823,362.30045,59,59,0
361.90823,362.30045,71,70,0
362.32108,362.7133,63,59,0
362.32108,362.7133,71,70,0
362.32108,362.7133,66,59,0
362.32108,362.7133,59,59,0
362.73395,363.12616,71,70,0
362.73395,363.12616,62,59,0
362.73395,363.12616,65,70,0
362.73395,363.12616,59,59,0
363.1468,363.539,71,69,0
363.1468,363.539,61,58,0
363.1468,363.539,64,58,0
363.1468,363.539,59,58,0
363.55966,363.95187,71,67,0
363.55966,363.95187,59,57,0
363.55966,363.95187,63,57,0
363.55966,363.95187,60,57,0
363.9725,364.3787,59,56,0
363.9725,364.3787,71,66,0
363.9725,364.3787,62,56,0
364.40005,364.80624,58,55,0
364.40005,364.80624,71,65,0
364.40005,364.80624,61,55,0
364.82764,365.23383,60,54,0
364.82764,365.23383,57,54,0
364.82764,365.23383,71,64,0
365.2552,365.68433,59,53,0
365.2552,365.68433,68,63,0
365.2552,365.68433,56,53,0
365.7069,366.07938,67,62,0
365.7069,366.07938,59,52,0
365.7069,366.07938,55,52,0
366.19537,366.68326,66,60,0
366.1038,366.68326,47,51,0
366.1343,366.68326,54,51,0
366.16486,366.68326,57,51,0
366.70895,366.78958,40,67,0
366.70895,366.78958,52,67,0
366.87024,366.95654,47,40,0
366.87024,366.95654,50,48,0
367.04282,367.12433,40,49,0
367.04282,367.12433,52,58,0
367.20587,367.29214,48,47,0
367.20587,367.29214,45,39,0
367.37845,367.46063,40,45,0
367.37845,367.46063,52,53,0
367.54282,367.62912,43,40,0
367.54282,367.62912,47,48,0
367.71542,367.79715,40,67,0
367.71542,367.79715,52,67,0
367.8789,367.9647,42,40,0
367.8839,367.9697,45,48,0
368.0505,368.13248,40,49,0
368.0505,368.13248,52,58,0
368.21442,368.30023,43,47,0
368.38602,368.46823,52,53,0
368.5504,368.63596,38,40,0
368.5504,368.63596,42,48,0
368.72153,368.80447,52,67,0
368.88742,368.97498,40,47,0
368.88742,368.97498,36,39,0
369.06253,369.14594,40,56,0
369.22934,369.31714,38,45,0
369.22934,369.31714,35,37,0
369.40497,369.48837,40,50,0
369.57178,369.65933,33,37,0
369.57178,369.65933,36,45,0
369.7469,369.83344,40,62,0
369.91995,370.0132,35,44,0
369.91995,370.0132,31,36,0
370.1065,370.1964,40,52,0
370.28632,370.38287,33,41,0
370.28632,370.38287,30,34,0
370.47946,370.57272,40,46,0
370.666,370.7651,33,41,0
370.666,370.7651,29,34,0
370.86423,370.95212,40,44,0
370.86423,370.95212,28,37,0
371.04004,371.12793,40,44,0
371.04004,371.12793,28,37,0
371.21585,371.30865,28,37,0
371.21585,371.30865,40,44,0
371.40143,371.9448,48,52,0
371.40143,371.9448,45,44,0
371.9448,372.03296,40,44,0
371.9448,372.03296,28,37,0
372.12112,372.2093,28,37,0
372.12112,372.2093,40,44,0
372.29745,372.3914,28,37,0
372.29745,372.3914,40,44,0
372.48535,373.02707,45,48,0
372.48535,373.02707,53,57,0
373.02707,373.11987,40,44,0
373.02707,373.11987,28,37,0
373.21268,373.30548,40,44,0
373.21268,373.30548,28,37,0
373.3983,373.52173,40,44,0
373.3983,373.52173,28,37,0
373.64517,374.37183,60,71,0
373.64517,374.37183,52,60,0
373.64517,374.37183,55,60,0
373.64517,374.37183,46,60,0
374.73517,374.826,28,57,0
374.73517,374.826,40,69,0
375.28015,375.371,40,69,0
375.28015,375.371,28,57,0
375.81985,375.91315,28,57,0
375.81985,375.91315,40,69,0
376.3859,377.64948,45,64,0
376.3859,377.64948,48,64,0
376.3859,377.64948,60,77,0
376.3859,377.64948,53,64,0
377.64948,377.73746,60,59,0
377.64948,377.73746,72,70,0
377.8254,377.9134,69,64,0
377.8254,377.9134,57,54,0
378.00137,378.08936,53,60,0
378.00137,378.08936,65,72,0
378.17734,378.2653,60,68,0
378.17734,378.2653,48,57,0
378.35327,378.44125,45,59,0
378.35327,378.44125,57,70,0
378.52924,378.61722,53,77,0
378.52924,378.61722,41,64,0
378.70517,378.79315,48,71,0
378.70517,378.79315,36,59,0
378.88113,378.96912,33,60,0
378.88113,378.96912,45,72,0
379.0571,379.14508,29,69,0
379.0571,379.14508,41,81,0
379.23303,379.321,24,63,0
379.23303,379.321,36,75,0
379.409,379.50046,38,78,0
379.409,379.50046,26,65,0
379.6025,379.69125,36,78,0
379.6025,379.69125,24,66,0
380.6676,380.75635,24,66,0
380.6676,380.75635,36,78,0
381.73267,381.82144,36,78,0
381.73267,381.82144,24,66,0
