start_time,end_time,note_value,velocity,instrument_program_number
8.917669,10.42123,60,40,0
8.917669,10.42123,55,34,0
10.500365,11.928578,67,37,0
10.500365,11.928578,60,31,0
12.003748,12.75544,63,40,0
12.003748,12.75544,60,34,0
12.75544,13.366322,62,37,0
12.75544,13.366322,59,31,0
13.366322,13.601357,63,34,0
13.601357,15.385913,60,40,0
13.601357,15.385913,55,34,0
23.510628,25.014189,60,40,0
23.510628,25.014189,55,34,0
25.093325,26.521538,67,37,0
25.093325,26.521538,60,31,0
26.596706,27.348398,63,40,0
26.596706,27.348398,60,34,0
27.348398,27.95928,62,37,0
27.348398,27.95928,59,31,0
27.95928,28.194317,63,34,0
28.194317,30.61786,60,40,0
28.194317,30.61786,55,34,0
30.650404,31.44959,60,40,0
30.650404,31.44959,55,34,0
31.522243,31.889793,59,37,0
31.522243,31.889793,55,31,0
31.923206,32.34101,60,34,0
31.923206,32.34101,55,34,0
32.378994,34.061893,62,40,0
32.378994,34.061893,55,34,0
34.0977,34.896885,60,40,0
34.0977,34.896885,55,34,0
34.96954,35.33709,59,37,0
34.96954,35.33709,55,31,0
35.370502,35.788307,60,34,0
35.370502,35.788307,55,34,0
35.82629,37.50919,62,40,0
35.82629,37.50919,59,34,0
37.544994,39.20999,60,40,0
37.544994,39.20999,55,34,0
39.2637,40.025528,67,42,0
39.2637,40.025528,58,35,0
40.065624,40.918663,67,44,0
40.065624,40.918663,58,37,0
40.96356,41.81078,63,44,0
40.96356,41.81078,60,37,0
41.81078,42.46942,62,37,0
41.81078,42.46942,59,31,0
42.46942,42.70446,63,34,0
42.70446,44.49137,55,34,0
44.29092,44.49137,55,31,0
44.541485,44.741936,55,31,0
44.79205,44.9925,55,26,0
42.70446,45.01129,60,40,0
45.418457,45.794304,60,37,0
46.17015,46.545998,62,37,0
46.92184,47.297688,63,37,0
47.709663,48.121635,60,39,0
48.563984,49.006332,59,33,0
49.476402,49.946476,60,32,0
50.483917,52.09624,62,28,0
45.042614,52.09624,55,37,0
52.09624,53.599804,60,40,0
52.09624,53.599804,55,34,0
53.67894,55.10715,67,37,0
53.67894,55.10715,60,31,0
55.182323,55.934013,63,40,0
55.182323,55.934013,60,34,0
55.934013,56.544895,62,37,0
55.934013,56.544895,59,31,0
56.544895,56.77993,63,34,0
56.77993,63.07928,60,40,0
63.07928,63.27973,67,31,0
63.329845,63.530296,67,31,0
63.58041,63.78086,67,26,0
64.081535,64.28199,72,33,0
64.081535,64.28199,60,28,0
64.3321,64.53255,72,33,0
64.3321,64.53255,60,28,0
64.83323,65.033676,74,32,0
64.83323,65.033676,62,27,0
65.08379,65.28424,74,32,0
65.08379,65.28424,62,27,0
65.584915,65.78537,75,34,0
65.584915,65.78537,63,28,0
65.83548,66.035934,75,34,0
65.83548,66.035934,63,28,0
66.3464,66.55467,72,33,0
66.3464,66.55467,60,28,0
66.60674,66.815025,72,33,0
66.60674,66.815025,60,28,0
67.130875,67.3419,71,37,0
67.130875,67.3419,59,31,0
67.39466,67.60568,71,38,0
67.39466,67.60568,59,32,0
67.93309,68.15281,74,49,0
67.93309,68.15281,62,42,0
68.20774,68.42746,74,50,0
68.20774,68.42746,62,42,0
63.83097,68.48239,67,37,0
69.10974,70.43678,80,65,0
69.10974,70.43678,68,56,0
70.43678,71.92386,73,45,0
70.43678,71.92386,68,38,0
72.01948,73.43204,80,47,0
72.01948,73.43204,75,39,0
72.01948,73.5072,72,39,0
72.01948,73.5072,68,39,0
73.522865,74.27456,80,40,0
73.522865,74.27456,73,28,0
73.522865,74.27456,68,28,0
74.27456,74.88544,74,37,0
74.27456,74.88544,65,26,0
74.27456,74.88544,71,26,0
74.85802,75.093056,75,34,0
75.120476,76.86415,72,40,0
75.120476,76.86415,63,34,0
77.25468,77.4426,60,30,0
77.25468,77.4426,55,30,0
77.63052,77.81844,59,34,0
77.63052,77.81844,55,34,0
78.00637,78.215225,60,30,0
78.00637,78.215225,55,30,0
78.819756,79.017586,62,33,0
78.819756,79.017586,59,33,0
78.819756,79.017586,55,33,0
80.26712,80.47815,72,37,0
80.26712,80.47815,60,31,0
80.53091,80.741936,72,38,0
80.53091,80.741936,60,32,0
81.069336,81.289055,71,53,0
81.069336,81.289055,59,45,0
81.34399,81.563705,72,56,0
81.34399,81.563705,60,47,0
81.98983,82.19582,74,65,0
81.98983,82.19582,62,57,0
79.21542,82.40181,67,60,0
83.28651,84.98217,73,48,0
82.40181,85.05589,80,65,0
82.40181,85.05589,68,56,0
85.05589,86.30921,81,61,0
85.05589,86.30921,69,51,0
85.05589,86.30921,72,51,0
85.05589,86.30921,75,51,0
86.382935,86.75156,81,42,0
86.382935,86.75156,69,35,0
86.382935,86.75156,72,35,0
86.382935,86.75156,75,35,0
86.82529,87.26763,79,36,0
86.82529,87.26763,75,30,0
86.82529,87.26763,72,30,0
87.70998,88.32086,62,37,0
87.70998,88.32086,59,31,0
88.32086,88.55589,63,34,0
88.55589,94.85525,60,40,0
94.85525,95.10581,79,40,0
95.10581,95.35638,91,49,0
95.35638,95.51298,89,43,0
95.60693,95.8575,87,51,0
95.8575,96.10806,86,43,0
96.10806,96.35863,84,43,0
96.35863,96.60919,83,50,0
96.60919,96.85976,84,40,0
96.85976,97.11032,86,40,0
97.11032,97.17296,84,49,0
97.17296,97.2356,86,45,0
97.2356,97.360886,84,51,0
97.360886,97.61145,79,42,0
97.61145,97.862015,77,42,0
97.862015,98.12236,75,47,0
98.12236,98.382706,74,40,0
98.382706,98.64306,72,40,0
98.64306,98.90684,74,46,0
98.90684,99.17062,79,38,0
99.17062,99.4344,67,38,0
99.4344,99.70905,66,42,0
99.70905,99.9837,69,37,0
99.9837,100.258354,72,37,0
100.258354,100.362915,70,49,0
100.362915,100.467476,72,45,0
100.467476,100.67659,70,51,0
100.67659,101.03316,69,36,0
101.03316,102.21275,67,38,0
102.21275,102.47653,69,46,0
102.47653,102.74032,62,38,0
102.74032,103.0041,74,38,0
103.0041,103.27875,73,46,0
103.27875,103.5534,76,37,0
103.5534,103.82805,79,39,0
103.82805,103.93261,77,49,0
103.93261,104.03716,79,45,0
104.03716,104.246284,77,51,0
104.246284,104.60285,76,36,0
104.60285,105.67186,74,38,0
105.765816,106.01638,70,51,0
106.01638,106.266945,69,43,0
106.266945,106.51751,67,43,0
106.51751,106.768074,66,50,0
106.768074,107.01864,67,40,0
107.01864,107.2692,69,40,0
105.765816,107.2692,74,44,0
107.2692,107.51977,70,51,0
107.51977,107.770325,69,42,0
107.770325,108.02089,70,42,0
108.02089,108.28124,75,47,0
108.28124,108.54159,70,40,0
108.54159,108.70431,67,40,0
107.2692,108.79827,79,42,0
108.79827,109.048836,74,51,0
109.048836,109.2994,72,43,0
109.2994,109.54996,70,43,0
108.79827,109.54996,77,44,0
109.54996,109.80052,69,50,0
109.80052,110.05109,70,40,0
110.05109,110.333496,69,40,0
109.54996,110.333496,75,42,0
110.333496,110.40216,70,49,0
110.40216,110.47082,72,45,0
110.47082,110.60815,70,51,0
110.60815,110.8828,69,42,0
110.8828,112.04214,67,42,0
110.333496,112.04214,74,47,0
112.04214,112.10478,70,49,0
112.10478,112.16742,72,45,0
112.16742,112.2927,70,51,0
112.2927,112.54327,69,42,0
112.54327,112.79383,67,42,0
112.79383,113.05418,66,47,0
113.05418,113.31453,67,42,0
113.31453,113.574875,69,45,0
112.04214,113.574875,74,47,0
113.574875,113.83523,70,49,0
113.83523,114.09557,69,43,0
114.09557,114.35593,70,43,0
113.574875,114.35593,79,51,0
114.35593,114.61627,74,47,0
114.61627,114.87662,75,41,0
114.87662,115.13697,74,39,0
114.35593,115.13697,77,50,0
115.13697,115.19961,72,49,0
115.19961,115.26225,74,45,0
115.26225,115.387535,72,51,0
115.387535,115.6381,71,42,0
115.6381,115.888664,70,42,0
115.13697,115.888664,75,51,0
115.888664,116.14901,68,47,0
116.14901,116.40936,67,42,0
116.40936,116.71322,65,45,0
115.888664,116.71322,74,50,0
116.71322,116.789185,63,49,0
116.789185,116.86515,65,45,0
116.86515,117.017075,63,51,0
117.017075,117.32094,62,42,0
116.71322,118.362335,72,47,0
117.32094,120.61741,60,42,0
120.61741,121.369095,77,39,0
120.61741,121.369095,71,39,0
120.61741,121.369095,74,39,0
120.61741,121.369095,79,47,0
121.369095,122.083206,72,40,0
121.369095,122.083206,84,48,0
121.369095,122.083206,79,40,0
121.369095,122.083206,75,40,0
122.12079,122.83489,74,44,0
122.12079,122.83489,86,52,0
122.12079,122.83489,79,44,0
122.12079,122.83489,77,44,0
122.87248,123.586586,75,45,0
122.87248,123.586586,79,45,0
122.87248,123.586586,87,53,0
123.62417,124.366165,72,44,0
123.62417,124.366165,79,44,0
123.62417,124.366165,84,52,0
124.40522,125.157,71,46,0
124.40522,125.157,83,55,0
124.40522,125.157,79,46,0
124.40522,125.157,74,46,0
125.19656,125.97932,74,42,0
125.19656,125.97932,86,50,0
125.19656,125.97932,84,42,0
125.19656,125.97932,81,42,0
126.020515,127.974915,79,46,0
126.020515,127.974915,91,55,0
126.020515,127.974915,86,46,0
126.020515,127.974915,82,46,0
127.974915,128.72668,78,51,0
127.974915,128.72668,90,61,0
127.974915,128.72668,86,51,0
127.974915,128.72668,81,51,0
128.76627,129.54901,81,45,0
128.76627,129.54901,93,54,0
128.76627,129.54901,91,45,0
128.76627,129.54901,88,45,0
129.59021,131.52798,86,53,0
129.59021,131.52798,98,63,0
129.59021,131.52798,93,53,0
129.59021,131.52798,89,53,0
131.52798,133.03136,74,57,0
131.52798,133.03136,65,48,0
133.03136,134.56042,79,59,0
133.03136,134.56042,70,50,0
133.03136,134.56042,67,50,0
134.56042,134.62308,74,49,0
134.62308,134.68571,75,45,0
134.68571,134.81099,74,51,0
134.81099,135.06155,72,43,0
135.06155,135.31212,70,43,0
134.56042,135.31212,77,44,0
135.31212,135.56268,69,50,0
135.56268,135.81325,70,40,0
135.81325,136.09566,72,40,0
135.31212,136.09566,75,42,0
136.09566,136.16432,70,49,0
136.16432,136.23299,72,45,0
136.23299,136.3703,70,51,0
136.3703,136.64496,69,42,0
136.64496,137.8043,67,42,0
136.09566,137.8043,74,47,0
137.8043,139.33704,74,47,0
137.8043,139.33704,65,39,0
139.33704,140.11809,67,41,0
139.33704,140.11809,79,51,0
140.11809,140.18317,70,49,0
140.18317,140.24826,72,45,0
140.24826,140.37843,70,51,0
140.37843,140.63878,69,41,0
140.63878,140.89912,70,39,0
140.11809,140.89912,77,50,0
140.89912,140.96178,72,49,0
140.96178,141.02441,74,45,0
141.02441,141.14969,72,51,0
141.14969,141.40025,71,42,0
141.40025,141.65082,70,42,0
140.89912,141.65082,75,51,0
141.65082,141.71591,68,49,0
141.71591,141.78099,70,45,0
141.78099,141.91116,68,51,0
141.91116,142.17152,67,42,0
142.17152,142.47537,65,45,0
141.65082,142.47537,74,50,0
142.47537,142.55135,63,49,0
142.55135,142.6273,65,45,0
142.6273,142.77924,63,51,0
142.77924,143.0831,62,42,0
143.0831,144.44318,60,42,0
142.47537,144.44318,72,47,0
144.44318,145.24237,60,40,0
144.44318,145.24237,56,34,0
145.31502,145.68257,58,37,0
145.31502,145.68257,55,31,0
145.71597,146.13379,60,34,0
145.71597,146.13379,56,34,0
146.17177,147.85466,61,40,0
146.17177,147.85466,56,34,0
147.89047,148.68967,60,40,0
147.89047,148.68967,56,28,0
148.76231,149.12987,58,47,0
148.76231,149.12987,55,39,0
149.16327,149.68391,60,43,0
149.16327,149.68391,56,36,0
149.73125,151.41414,63,58,0
149.73125,151.41414,58,49,0
151.44995,153.11494,60,45,0
151.44995,153.11494,56,38,0
153.16866,153.93048,68,50,0
153.16866,153.93048,61,42,0
153.97058,154.89261,68,56,0
153.97058,154.89261,62,47,0
154.94113,155.78836,67,55,0
154.94113,155.78836,63,46,0
155.78836,156.447,62,37,0
155.78836,156.447,59,31,0
156.447,156.68204,63,34,0
156.68204,159.78886,60,40,0
156.68204,159.78886,55,34,0
159.85497,160.65414,60,40,0
159.85497,160.65414,56,34,0
160.72679,161.09435,58,37,0
160.72679,161.09435,55,31,0
161.12776,161.54556,60,34,0
161.12776,161.54556,56,34,0
162.2829,162.43127,92,34,0
162.2829,162.43127,80,28,0
162.2829,162.43127,85,28,0
162.48073,162.6291,91,29,0
162.48073,162.6291,82,24,0
162.48073,162.6291,85,24,0
162.67856,162.82695,89,28,0
162.67856,162.82695,80,23,0
162.67856,162.82695,85,23,0
161.61281,162.8986,61,40,0
161.61281,162.8986,56,34,0
162.8764,163.01913,85,28,0
162.8764,163.01913,80,28,0
162.8764,163.01913,89,34,0
163.06671,163.20944,87,30,0
163.06671,163.20944,79,28,0
163.25702,163.41586,87,30,0
163.25702,163.41586,85,25,0
163.25702,163.41586,79,25,0
163.46883,163.60802,92,34,0
163.46883,163.60802,85,28,0
163.46883,163.60802,80,28,0
163.65442,163.79715,91,27,0
163.65442,163.79715,85,22,0
163.65442,163.79715,82,22,0
163.84473,163.99922,89,27,0
163.84473,163.99922,85,22,0
163.84473,163.99922,80,22,0
164.05072,164.19716,89,34,0
164.05072,164.19716,85,28,0
164.05072,164.19716,80,28,0
164.24597,164.39243,87,34,0
164.24597,164.39243,79,30,0
164.44124,164.58768,87,30,0
164.44124,164.58768,85,25,0
164.44124,164.58768,79,25,0
165.22229,166.02147,60,40,0
165.22229,166.02147,56,34,0
166.09412,166.46167,58,37,0
166.09412,166.46167,55,31,0
166.49509,166.91289,60,34,0
166.49509,166.91289,56,34,0
167.64197,167.79034,94,34,0
167.64197,167.79034,82,28,0
167.64197,167.79034,87,28,0
167.8398,167.98819,93,29,0
167.8398,167.98819,84,24,0
167.8398,167.98819,87,24,0
168.03764,168.18602,91,28,0
168.03764,168.18602,82,23,0
168.03764,168.18602,87,23,0
166.95087,168.23547,63,40,0
166.95087,168.23547,58,34,0
168.23547,168.3782,91,34,0
168.23547,168.3782,87,28,0
168.23547,168.3782,82,28,0
168.42578,168.56851,89,30,0
168.42578,168.56851,81,28,0
168.61609,168.77495,89,30,0
168.61609,168.77495,87,25,0
168.61609,168.77495,81,25,0
168.8279,168.9671,94,34,0
168.8279,168.9671,87,28,0
168.8279,168.9671,82,28,0
169.01349,169.15622,93,27,0
169.01349,169.15622,87,22,0
169.01349,169.15622,84,22,0
169.2038,169.35829,91,27,0
169.2038,169.35829,87,22,0
169.2038,169.35829,82,22,0
169.40979,169.55624,91,34,0
169.40979,169.55624,87,28,0
169.40979,169.55624,82,28,0
169.60506,169.7515,89,34,0
169.60506,169.7515,81,30,0
169.80031,169.94676,89,30,0
169.80031,169.94676,87,25,0
169.80031,169.94676,81,25,0
170.58136,172.1141,74,47,0
170.58136,172.1141,65,39,0
172.1141,172.89514,67,41,0
172.1141,172.89514,79,51,0
172.89514,172.96024,70,49,0
172.96024,173.02531,72,45,0
173.02531,173.15549,70,51,0
173.15549,173.41585,69,41,0
173.41585,173.6762,70,39,0
172.89514,173.6762,77,50,0
173.6762,173.73883,72,49,0
173.73883,173.80147,74,45,0
173.80147,173.92676,72,51,0
173.92676,174.17732,71,42,0
174.17732,174.42789,70,42,0
173.6762,174.42789,75,51,0
174.42789,174.49297,68,49,0
174.49297,174.55806,70,45,0
174.55806,174.68823,68,51,0
174.68823,174.94858,67,42,0
174.94858,175.25244,65,45,0
174.42789,175.25244,74,50,0
175.25244,175.3284,63,49,0
175.3284,175.40437,65,45,0
175.40437,175.5563,63,51,0
175.5563,175.86015,62,42,0
175.86015,179.53326,60,42,0
175.25244,179.53326,72,47,0
179.78383,180.0344,71,60,0
179.78383,180.0344,65,60,0
179.53326,180.0344,79,81,0
180.0344,180.3168,77,63,0
180.56737,180.81793,72,50,0
180.56737,180.81793,67,50,0
180.81793,181.0685,64,50,0
180.3168,181.0685,76,75,0
181.31906,181.56963,71,50,0
181.31906,181.56963,67,50,0
181.56963,181.82019,65,50,0
181.0685,181.82019,74,71,0
182.07076,182.32132,67,50,0
182.32132,182.57188,60,50,0
181.82019,182.57188,72,77,0
182.83223,183.09258,64,50,0
183.09258,183.35292,60,50,0
182.57188,183.35292,69,72,0
183.60992,183.86693,62,50,0
183.60992,183.86693,55,50,0
183.35292,183.86693,67,76,0
183.86693,184.12393,65,64,0
184.39487,184.66579,60,50,0
184.66579,184.93672,55,50,0
184.12393,184.93672,64,68,0
185.21136,185.49614,59,50,0
185.49614,185.79105,55,50,0
185.79105,186.06952,59,50,0
184.93672,186.31319,62,59,0
186.06952,186.34799,55,50,0
186.34799,186.62646,62,54,0
186.88681,187.14716,60,50,0
187.14716,187.42957,55,50,0
186.62646,187.42957,64,65,0
187.68991,187.95027,64,50,0
187.95027,188.21062,60,50,0
187.42957,188.21062,67,70,0
188.4744,188.73817,59,50,0
188.21062,188.73817,65,75,0
188.73817,189.00197,64,65,0
188.73817,189.00197,60,50,0
189.26575,189.52953,59,50,0
189.52953,189.7933,55,50,0
189.00197,189.7933,62,71,0
190.07976,190.36621,55,50,0
190.36621,190.65266,52,50,0
189.7933,190.65266,60,69,0
190.96121,191.2561,59,50,0
190.96121,191.2561,55,50,0
191.2561,191.61441,53,50,0
190.65266,191.61441,62,74,0
191.94875,192.38522,60,50,0
191.94875,192.38522,55,50,0
192.38522,193.15982,52,50,0
191.61441,193.15982,64,76,0
193.41039,193.66095,71,60,0
193.41039,193.66095,65,50,0
193.15982,193.66095,79,81,0
193.66095,193.94336,77,63,0
194.19392,194.44449,72,50,0
194.19392,194.44449,67,50,0
194.44449,194.69505,64,50,0
193.94336,194.69505,76,75,0
194.94562,195.19618,71,50,0
194.94562,195.19618,67,50,0
195.19618,195.44675,65,50,0
194.69505,195.44675,74,71,0
195.69731,195.94788,67,50,0
195.94788,196.19843,60,50,0
195.44675,196.19843,72,77,0
196.45879,196.71913,64,50,0
196.71913,196.97948,60,50,0
196.19843,196.97948,69,72,0
197.23648,197.49348,62,50,0
197.23648,197.49348,55,50,0
196.97948,197.49348,67,76,0
197.49348,197.75049,65,64,0
198.01427,198.27806,60,50,0
198.27806,198.54184,55,50,0
197.75049,198.54184,64,68,0
198.79558,199.08226,59,42,0
199.08226,199.34958,55,43,0
199.34958,199.6205,59,50,0
199.6205,199.89143,55,50,0
199.89143,200.16237,59,39,0
198.54184,200.16237,62,59,0
200.42271,200.68306,56,34,0
200.68306,200.9434,51,34,0
200.9434,201.20375,56,39,0
201.20375,201.46411,51,33,0
201.46411,201.74258,56,33,0
200.16237,201.74258,60,55,0
202.00293,202.26328,58,34,0
202.26328,202.52362,56,34,0
202.52362,202.78398,58,39,0
202.78398,203.04433,56,33,0
203.04433,203.3228,58,33,0
201.74258,203.3228,65,55,0
203.5798,203.8368,56,42,0
203.8368,204.09381,51,39,0
203.3228,204.09381,63,52,0
204.35759,204.62137,55,38,0
204.62137,204.88516,51,38,0
204.09381,204.88516,61,49,0
205.48378,205.81262,51,29,0
205.18446,205.81262,55,38,0
206.14146,206.5274,51,29,0
205.81262,206.5274,54,40,0
206.5274,206.91336,54,45,0
204.88516,206.91336,60,46,0
207.16083,207.4083,55,38,0
207.4083,207.65575,52,38,0
206.91336,207.65575,60,46,0
207.90321,208.15068,53,40,0
207.65575,208.15068,59,46,0
208.15068,208.42532,52,46,0
208.15068,208.42532,60,46,0
208.67279,208.92026,59,40,0
208.92026,209.16772,57,40,0
209.16772,209.95906,59,40,0
208.42532,209.95906,62,51,0
210.2035,210.44794,67,43,0
210.44794,210.69238,60,44,0
209.95906,210.69238,72,56,0
210.93683,211.18126,67,41,0
210.93683,211.18126,62,30,0
210.69238,211.18126,71,54,0
211.18126,211.45592,60,50,0
211.18126,211.45592,72,50,0
211.6974,211.93889,71,44,0
211.93889,212.18037,67,44,0
212.18037,212.42186,71,56,0
212.42186,212.66335,67,49,0
212.66335,212.90483,71,54,0
211.45592,212.90483,74,58,0
213.14345,213.38205,72,54,0
213.38205,213.62065,67,50,0
213.62065,213.85927,72,56,0
213.85927,214.09787,67,58,0
214.09787,214.36517,72,62,0
212.90483,214.36517,76,66,0
214.60666,214.84814,76,52,0
214.84814,215.08965,72,52,0
214.36517,215.08965,81,73,0
215.33113,215.57262,74,53,0
215.57262,215.82635,69,54,0
215.08965,215.82635,81,72,0
216.06784,216.30933,72,52,0
216.06784,216.30933,76,52,0
216.30933,216.55083,67,52,0
215.82635,216.55083,79,72,0
216.79231,217.0338,71,52,0
217.0338,217.2765,67,52,0
216.55083,217.2765,77,70,0
217.52158,217.76982,72,54,0
217.76982,218.02133,66,52,0
218.02133,218.2754,67,49,0
218.2754,218.53287,64,46,0
218.53287,218.79382,60,44,0
217.2765,218.79382,76,67,0
219.08028,219.2636,62,44,0
219.08028,219.2636,60,37,0
219.08028,219.2636,57,37,0
219.3247,219.50804,62,43,0
219.3247,219.50804,60,36,0
219.3247,219.50804,57,36,0
219.56915,219.75247,65,51,0
219.56915,219.75247,60,43,0
219.56915,219.75247,57,43,0
219.81358,219.99692,61,37,0
219.81358,219.99692,60,44,0
219.81358,219.99692,57,37,0
220.05803,220.25851,62,44,0
220.05803,220.25851,60,36,0
220.05803,220.25851,57,36,0
220.56682,220.74794,69,52,0
220.56682,220.74794,62,43,0
220.56682,220.74794,60,43,0
220.8083,220.98943,69,52,0
220.8083,220.98943,62,44,0
220.8083,220.98943,60,44,0
221.04979,221.23091,69,61,0
221.04979,221.23091,62,51,0
221.04979,221.23091,60,51,0
221.29129,221.4724,68,55,0
221.29129,221.4724,62,46,0
221.29129,221.4724,60,46,0
221.53278,221.73596,69,56,0
221.53278,221.73596,62,47,0
221.53278,221.73596,60,47,0
222.04814,222.23148,72,60,0
222.04814,222.23148,66,51,0
222.04814,222.23148,62,51,0
222.29257,222.4759,72,60,0
222.29257,222.4759,66,51,0
222.29257,222.4759,62,51,0
222.53702,222.72035,72,70,0
222.53702,222.72035,66,59,0
222.53702,222.72035,62,59,0
222.78146,222.96478,71,62,0
222.78146,222.96478,66,52,0
222.78146,222.96478,62,52,0
223.0259,223.23476,72,62,0
223.0259,223.23476,66,53,0
223.0259,223.23476,62,53,0
223.55183,223.74013,78,74,0
223.55183,223.74013,75,62,0
223.55183,223.74013,72,62,0
223.80356,223.9954,78,75,0
223.80356,223.9954,75,63,0
223.80356,223.9954,72,63,0
224.06046,224.25667,78,85,0
224.06046,224.25667,75,71,0
224.06046,224.25667,72,71,0
224.32274,224.52322,77,78,0
224.32274,224.52322,75,65,0
224.32274,224.52322,72,65,0
224.59004,224.81004,78,79,0
224.59004,224.81004,75,66,0
224.59004,224.81004,72,66,0
224.94203,225.15703,79,91,0
224.94203,225.15703,76,77,0
224.94203,225.15703,72,77,0
225.22968,225.44763,76,80,0
225.22968,225.44763,72,68,0
225.5203,225.73825,72,80,0
225.5203,225.73825,67,68,0
225.8109,226.02885,67,90,0
225.8109,226.02885,64,76,0
226.10152,226.31947,64,75,0
226.10152,226.31947,60,63,0
226.39214,226.61009,60,75,0
226.39214,226.61009,57,63,0
226.68172,228.62181,55,89,0
234.37637,235.15912,76,37,0
234.37637,235.15912,72,31,0
234.37637,235.15912,67,31,0
235.20032,235.9521,76,44,0
235.20032,235.9521,72,37,0
235.20032,235.9521,65,37,0
235.99167,236.74345,77,44,0
235.99167,236.74345,76,37,0
235.99167,236.74345,72,37,0
236.78302,237.5348,76,37,0
236.78302,237.5348,72,37,0
236.78302,237.5348,81,44,0
237.57437,238.32614,76,41,0
237.57437,238.32614,72,34,0
237.57437,238.32614,65,34,0
238.3657,239.14676,74,44,0
238.3657,239.14676,71,37,0
238.3657,239.14676,65,37,0
239.14676,239.92781,74,42,0
239.14676,239.92781,71,35,0
239.14676,239.92781,65,35,0
240.70885,241.49161,74,37,0
240.70885,241.49161,71,31,0
240.70885,241.49161,65,31,0
241.5328,242.28458,74,44,0
241.5328,242.28458,71,37,0
241.5328,242.28458,64,37,0
242.32416,243.07593,76,44,0
242.32416,243.07593,74,37,0
242.32416,243.07593,71,37,0
243.1155,243.86728,74,37,0
243.1155,243.86728,71,37,0
243.1155,243.86728,79,44,0
243.90685,244.65863,74,41,0
243.90685,244.65863,71,34,0
243.90685,244.65863,64,34,0
244.6982,245.47925,72,44,0
244.6982,245.47925,69,37,0
244.6982,245.47925,64,37,0
245.47925,246.26028,72,42,0
245.47925,246.26028,69,35,0
245.47925,246.26028,64,35,0
247.04134,247.82408,72,37,0
247.04134,247.82408,69,31,0
247.04134,247.82408,64,31,0
247.86528,248.61707,72,44,0
247.86528,248.61707,69,37,0
247.86528,248.61707,62,31,0
248.65663,249.40842,74,44,0
248.65663,249.40842,72,37,0
248.65663,249.40842,69,37,0
249.44798,250.19975,72,37,0
249.44798,250.19975,69,37,0
249.44798,250.19975,77,44,0
250.23933,250.9911,72,41,0
250.23933,250.9911,69,34,0
250.23933,250.9911,62,34,0
251.03067,251.81172,71,44,0
251.03067,251.81172,67,37,0
251.03067,251.81172,62,37,0
251.81172,252.59277,71,42,0
251.81172,252.59277,67,35,0
251.81172,252.59277,62,35,0
253.37381,254.15657,55,37,0
254.19777,254.94954,60,44,0
254.19777,254.94954,52,31,0
254.9891,255.71228,62,44,0
254.9891,255.71228,53,37,0
255.75034,256.5021,55,37,0
255.75034,256.5021,64,44,0
256.5417,257.31384,60,41,0
256.5417,257.31384,52,34,0
254.19777,257.35446,58,43,0
257.35446,258.10626,65,44,0
257.35446,258.10626,57,51,0
258.1458,258.869,67,44,0
258.1458,258.869,60,37,0
258.90704,259.65884,65,37,0
258.90704,259.65884,69,44,0
259.6984,260.47055,53,41,0
258.1458,260.5112,57,37,0
260.5112,261.26297,59,44,0
260.5112,261.26297,50,31,0
261.30255,262.0257,60,44,0
261.30255,262.0257,52,37,0
262.06375,262.8256,53,37,0
262.06375,262.8256,62,44,0
262.8657,263.69394,59,41,0
262.8657,263.69394,50,34,0
260.5112,263.73752,56,43,0
263.73752,265.36368,60,45,0
263.73752,265.36368,52,38,0
263.73752,265.36368,55,38,0
265.39752,267.18253,55,33,0
265.39752,267.18253,58,33,0
267.18253,269.17535,57,38,0
267.18253,269.17535,53,32,0
269.17535,272.11832,50,25,0
269.17535,272.11832,53,30,0
265.39752,272.11832,60,39,0
272.11832,277.00696,60,25,0
272.11832,277.00696,55,21,0
272.11832,277.00696,52,21,0
1.1123475,1.864039,55,44,0
1.864039,2.6157305,60,50,0
2.6157305,3.367422,62,43,0
3.367422,4.1191134,63,43,0
4.1191134,4.943063,60,36,0
4.943063,5.8669305,59,38,0
5.827758,6.812689,60,35,0
6.767902,8.872882,62,35,0
8.917669,10.42123,51,32,0
8.917669,10.42123,48,27,0
10.500365,11.928578,55,32,0
10.500365,11.928578,51,27,0
12.003748,12.75544,55,30,0
12.75544,13.601357,53,25,0
12.75544,13.601357,43,21,0
13.601357,15.385913,51,30,0
13.601357,15.385913,48,25,0
15.548145,16.319155,55,44,0
16.319155,17.090166,60,50,0
17.090166,17.861176,62,43,0
17.861176,18.632185,63,43,0
18.632185,19.456135,60,36,0
19.456135,20.380003,59,38,0
20.34083,21.327425,60,35,0
21.280973,23.464176,62,35,0
23.510628,25.014189,51,32,0
23.510628,25.014189,48,27,0
25.093325,26.521538,48,32,0
25.093325,26.521538,39,27,0
26.596706,27.310814,43,21,0
26.596706,27.326473,55,30,0
27.348398,28.194317,53,25,0
27.348398,28.194317,43,21,0
28.194317,30.61786,51,30,0
28.194317,30.61786,36,25,0
30.650404,31.44959,51,34,0
30.650404,31.44959,48,28,0
31.522243,31.889793,53,31,0
31.522243,31.889793,50,26,0
31.923206,32.34101,51,29,0
31.923206,32.34101,48,24,0
32.378994,34.061893,50,34,0
32.378994,34.0977,47,28,0
34.0977,34.896885,51,34,0
34.0977,34.896885,48,28,0
34.96954,35.33709,53,31,0
34.96954,35.33709,50,26,0
35.370502,35.788307,51,29,0
35.370502,35.788307,48,24,0
35.82629,37.50919,50,34,0
35.82629,37.544994,43,28,0
37.544994,39.20999,51,34,0
37.544994,39.20999,48,28,0
39.2637,40.025528,51,36,0
39.2637,40.025528,46,30,0
39.2637,40.025528,39,30,0
40.065624,40.918663,51,36,0
40.065624,40.918663,46,30,0
40.065624,40.918663,39,30,0
40.96356,41.768417,43,23,0
40.96356,41.786068,55,33,0
41.81078,42.70446,53,25,0
41.81078,42.70446,43,21,0
42.70446,45.01129,51,30,0
42.70446,45.01129,36,25,0
44.29092,45.042614,43,35,0
45.042614,45.794304,48,40,0
45.794304,46.545998,50,34,0
46.545998,47.297688,51,34,0
47.297688,48.121635,48,28,0
48.121635,49.045506,47,30,0
49.006332,49.991264,48,28,0
49.946476,52.051456,50,28,0
52.09624,53.599804,51,32,0
52.09624,53.599804,48,27,0
53.67894,55.10715,55,32,0
53.67894,55.10715,51,27,0
55.182323,55.90269,43,25,0
55.182323,55.90269,55,30,0
55.934013,56.134464,55,27,0
56.184578,56.403873,55,27,0
56.46655,56.717255,55,23,0
55.934013,56.77993,53,27,0
55.934013,56.77993,43,27,0
56.77993,59.70011,54,30,0
56.77993,59.70011,44,30,0
59.70011,63.07928,55,28,0
56.77993,63.07928,51,30,0
56.77993,63.07928,36,25,0
59.70011,63.07928,43,22,0
63.07928,63.27973,55,31,0
63.329845,63.530296,55,31,0
63.58041,63.78086,55,26,0
63.07928,63.83097,43,35,0
63.83097,64.582664,48,40,0
64.582664,65.33436,50,34,0
65.33436,66.086044,51,34,0
66.086044,66.867096,48,28,0
66.867096,67.69277,47,30,0
63.83097,68.48239,55,29,0
67.65844,68.53467,50,45,0
68.48239,70.399925,56,64,0
70.43678,71.92386,65,37,0
70.43678,71.92386,61,31,0
70.43678,72.003,56,31,0
70.43678,72.003,53,31,0
72.01948,73.43204,66,38,0
72.01948,73.43204,63,32,0
72.01948,73.5072,54,32,0
72.01948,73.5072,56,32,0
72.01948,73.5072,60,32,0
73.522865,74.27456,65,32,0
73.522865,74.27456,53,27,0
73.522865,74.27456,56,27,0
73.522865,74.27456,61,27,0
74.27456,74.475006,67,27,0
74.52512,74.744415,67,27,0
74.80709,75.0578,67,23,0
74.27456,75.120476,55,22,0
75.120476,76.86415,67,30,0
75.120476,76.86415,60,21,0
76.86415,77.25468,51,32,0
76.86415,77.25468,48,32,0
77.63052,77.81844,53,31,0
77.63052,77.81844,50,31,0
78.00637,78.215225,51,26,0
78.00637,78.215225,48,26,0
78.42408,78.819756,50,33,0
78.42408,78.819756,43,33,0
80.006775,80.39902,55,35,0
80.006775,80.39902,48,35,0
80.006775,80.39902,51,35,0
80.794685,81.00068,55,37,0
80.794685,81.00068,50,37,0
80.794685,81.00068,53,37,0
81.206665,81.41265,55,34,0
81.206665,81.41265,48,34,0
81.206665,81.41265,50,34,0
81.61864,81.98983,55,44,0
81.61864,81.98983,50,44,0
81.61864,81.98983,47,44,0
83.28651,84.98217,65,37,0
83.28651,84.98217,53,31,0
83.28651,84.98217,56,31,0
83.28651,84.98217,61,31,0
85.05589,86.30921,54,36,0
85.05589,86.30921,66,43,0
85.05589,86.30921,63,36,0
85.05589,86.30921,60,36,0
86.382935,86.75156,66,37,0
86.382935,86.75156,54,31,0
86.382935,86.75156,60,31,0
86.382935,86.75156,63,31,0
86.82529,87.26763,55,27,0
86.82529,87.26763,67,32,0
86.82529,87.26763,63,27,0
86.82529,87.26763,60,27,0
87.70998,87.91043,55,27,0
87.96054,88.17984,55,27,0
88.242516,88.49322,55,23,0
87.70998,88.55589,53,27,0
87.70998,88.55589,43,27,0
88.55589,91.476074,54,30,0
88.55589,91.476074,44,30,0
91.476074,94.85525,55,28,0
88.55589,94.85525,51,30,0
88.55589,94.85525,36,25,0
91.476074,94.85525,43,24,0
94.85525,95.60693,43,35,0
94.85525,95.60693,31,29,0
95.60693,96.35863,48,40,0
95.60693,96.35863,36,34,0
96.35863,97.11032,50,34,0
96.35863,97.11032,38,28,0
97.11032,97.862015,51,34,0
97.11032,97.862015,39,28,0
97.862015,98.64306,48,28,0
97.862015,98.64306,36,23,0
98.64306,99.4344,35,25,0
98.64306,99.468735,47,30,0
99.4344,100.258354,38,32,0
99.4344,100.31064,50,38,0
100.258354,102.17589,55,43,0
100.258354,102.21275,43,36,0
102.21275,103.0041,42,25,0
102.21275,103.03843,54,30,0
103.0041,103.82805,45,32,0
103.0041,103.880325,57,38,0
103.82805,105.67186,62,43,0
103.82805,105.67186,50,36,0
105.765816,107.20656,58,38,0
105.765816,107.20656,62,45,0
107.2692,108.73563,58,34,0
107.2692,108.73563,63,40,0
107.2692,108.73563,51,34,0
108.79827,109.54996,58,41,0
108.79827,109.54996,62,49,0
108.79827,109.54996,53,41,0
109.54996,110.333496,60,43,0
109.54996,110.333496,54,36,0
110.333496,112.04214,55,41,0
110.333496,112.04214,58,49,0
112.04214,113.50979,58,39,0
112.04214,113.50979,62,46,0
113.574875,114.29083,58,36,0
113.574875,114.29083,63,43,0
113.574875,114.29083,51,36,0
114.35593,115.13697,53,34,0
114.35593,115.13697,58,34,0
114.35593,115.13697,62,40,0
115.13697,115.82602,63,47,0
115.13697,115.82602,60,39,0
115.13697,115.82602,55,39,0
115.888664,116.63725,55,34,0
115.888664,116.63725,59,34,0
115.888664,116.63725,65,40,0
116.71322,120.61741,55,45,0
116.71322,120.61741,48,38,0
120.61741,120.86797,55,36,0
120.86797,121.11853,67,44,0
121.11853,121.369095,65,38,0
121.369095,121.43174,63,44,0
121.43174,121.49438,65,40,0
121.49438,121.61966,63,45,0
121.61966,121.870224,62,38,0
121.870224,122.12079,60,38,0
122.12079,122.37135,59,45,0
122.37135,122.62192,60,36,0
122.62192,122.87248,62,36,0
122.87248,122.93512,60,44,0
122.93512,122.997765,62,40,0
122.997765,123.12305,60,45,0
123.12305,123.37361,55,37,0
123.37361,123.62417,53,37,0
123.62417,123.88452,51,42,0
123.88452,124.14487,50,36,0
124.14487,124.40522,48,36,0
124.40522,124.669,50,41,0
124.669,124.932785,43,34,0
124.932785,125.19656,55,34,0
125.19656,125.471214,54,37,0
125.471214,125.745865,57,33,0
125.745865,126.020515,60,33,0
126.020515,126.12508,58,44,0
126.12508,126.22964,60,40,0
126.22964,126.43875,58,45,0
126.43875,126.79532,57,32,0
126.79532,127.974915,55,34,0
127.974915,128.2387,57,41,0
128.2387,128.50247,50,34,0
128.50247,128.76627,62,34,0
128.76627,129.04091,61,41,0
129.04091,129.31555,64,33,0
129.31555,129.59021,67,35,0
129.59021,129.69476,65,44,0
129.69476,129.79933,67,40,0
129.79933,130.00844,65,45,0
130.00844,130.365,64,32,0
130.365,131.43402,62,34,0
131.52798,131.59062,58,44,0
131.59062,131.65326,60,40,0
131.65326,131.77855,58,45,0
131.77855,132.0291,57,38,0
132.0291,132.27966,55,38,0
132.27966,132.53023,53,45,0
132.53023,132.78079,55,36,0
132.78079,133.03136,57,36,0
133.03136,133.28192,58,45,0
133.28192,133.53249,57,37,0
133.53249,133.78305,58,37,0
133.78305,134.0434,63,42,0
134.0434,134.30376,58,36,0
134.30376,134.46646,55,36,0
133.03136,134.56042,51,37,0
134.56042,134.81099,58,45,0
134.81099,135.06155,57,38,0
135.06155,135.31212,55,38,0
134.56042,135.31212,50,39,0
135.56268,135.81325,55,36,0
135.81325,136.09566,57,36,0
135.31212,136.09566,54,45,0
136.3703,136.64496,57,37,0
136.64496,137.8043,58,37,0
136.09566,137.8043,55,40,0
137.8043,137.86694,58,44,0
137.86694,137.92958,60,40,0
137.92958,138.05487,58,45,0
138.05487,138.30542,57,37,0
138.30542,138.55598,55,37,0
138.55598,138.81635,53,42,0
138.81635,139.07669,55,37,0
139.07669,139.33704,57,40,0
139.33704,139.59738,58,44,0
139.59738,139.85774,57,38,0
139.85774,140.11809,58,38,0
139.33704,140.11809,51,45,0
140.11809,140.37843,62,42,0
140.37843,140.63878,60,36,0
140.63878,140.89912,62,35,0
140.11809,140.89912,53,45,0
140.89912,141.14969,63,40,0
141.14969,141.40025,62,37,0
141.40025,141.65082,63,37,0
140.89912,141.65082,55,45,0
141.65082,141.91116,65,42,0
141.91116,142.17152,62,37,0
142.17152,142.47537,59,40,0
141.65082,142.47537,55,45,0
142.47537,142.77924,60,45,0
142.77924,143.0831,55,37,0
143.0831,144.44318,51,37,0
142.47537,144.44318,48,42,0
144.44318,145.24237,51,34,0
144.44318,145.24237,44,28,0
145.31502,145.68257,51,31,0
145.31502,145.68257,46,26,0
145.71597,146.13379,51,29,0
145.71597,146.13379,44,24,0
146.17177,147.85466,53,34,0
146.17177,147.89047,41,28,0
147.89047,148.68967,51,39,0
147.89047,148.68967,44,33,0
148.76231,149.12987,51,41,0
148.76231,149.12987,46,34,0
149.16327,149.68391,51,39,0
149.16327,149.68391,44,33,0
149.73125,151.41414,55,52,0
149.73125,151.44995,43,44,0
151.44995,153.11494,51,38,0
151.44995,153.11494,44,32,0
153.16866,153.93048,53,40,0
153.16866,153.93048,41,34,0
153.97058,154.89261,53,45,0
153.97058,154.89261,41,38,0
154.94113,155.74599,43,40,0
154.94113,155.76364,55,48,0
154.94113,155.78836,48,40,0
155.78836,156.68204,53,25,0
155.78836,156.68204,43,21,0
156.68204,159.78886,51,30,0
156.68204,159.78886,48,25,0
159.85497,160.65414,51,34,0
159.85497,160.65414,44,28,0
160.72679,161.09435,51,31,0
160.72679,161.09435,46,26,0
161.12776,161.54556,51,29,0
161.12776,161.54556,44,24,0
162.2829,162.43127,77,36,0
162.2829,162.43127,65,30,0
162.2829,162.43127,73,30,0
162.48073,162.6291,75,30,0
162.48073,162.6291,67,25,0
162.48073,162.6291,73,25,0
162.67856,162.82695,73,28,0
162.67856,162.82695,68,23,0
161.61281,162.8986,53,34,0
161.61281,162.8986,41,28,0
162.8764,163.01913,68,28,0
162.8764,163.14917,73,34,0
163.06671,163.20944,70,28,0
163.25702,163.41586,73,28,0
163.25702,163.41586,70,23,0
163.46883,163.60802,77,34,0
163.46883,163.60802,73,28,0
163.46883,163.60802,65,28,0
163.65442,163.79715,75,29,0
163.65442,163.79715,73,24,0
163.65442,163.79715,67,24,0
163.84473,163.99922,73,34,0
163.84473,163.99922,68,28,0
164.05072,164.19716,68,25,0
164.05072,164.33058,73,30,0
164.24597,164.39243,70,30,0
164.44124,164.58768,73,30,0
164.44124,164.58768,70,25,0
165.22229,166.02147,51,34,0
165.22229,166.02147,44,28,0
166.09412,166.46167,51,31,0
166.09412,166.46167,46,26,0
166.49509,166.91289,51,29,0
166.49509,166.91289,44,24,0
167.64197,167.79034,79,36,0
167.64197,167.79034,67,30,0
167.64197,167.79034,75,30,0
167.8398,167.98819,77,30,0
167.8398,167.98819,69,25,0
167.8398,167.98819,75,25,0
168.03764,168.18602,75,28,0
168.03764,168.18602,70,23,0
166.95087,168.23547,55,34,0
166.95087,168.23547,43,28,0
168.23547,168.3782,70,28,0
168.23547,168.50826,75,34,0
168.42578,168.56851,72,28,0
168.61609,168.77495,75,28,0
168.61609,168.77495,72,23,0
168.8279,168.9671,79,34,0
168.8279,168.9671,75,28,0
168.8279,168.9671,67,28,0
169.01349,169.15622,77,29,0
169.01349,169.15622,75,24,0
169.01349,169.15622,69,24,0
169.2038,169.35829,75,34,0
169.2038,169.35829,70,28,0
169.40979,169.55624,70,25,0
169.40979,169.68967,75,30,0
169.60506,169.7515,72,30,0
169.80031,169.94676,75,30,0
169.80031,169.94676,72,25,0
170.58136,170.644,58,44,0
170.644,170.70663,60,40,0
170.70663,170.83192,58,45,0
170.83192,171.08249,57,37,0
171.08249,171.33305,55,37,0
171.33305,171.5934,53,42,0
171.5934,171.85374,55,37,0
171.85374,172.1141,57,40,0
172.1141,172.37445,58,44,0
172.37445,172.6348,57,38,0
172.6348,172.89514,58,38,0
172.1141,172.89514,51,45,0
172.89514,173.15549,62,42,0
173.15549,173.41585,60,36,0
173.41585,173.6762,62,35,0
172.89514,173.6762,53,45,0
173.6762,173.92676,63,40,0
173.92676,174.17732,62,37,0
174.17732,174.42789,63,37,0
173.6762,174.42789,55,45,0
174.42789,174.68823,65,42,0
174.68823,174.94858,62,37,0
174.94858,175.25244,59,40,0
174.42789,175.25244,55,45,0
175.25244,175.5563,60,45,0
175.5563,175.86015,55,37,0
175.86015,179.53326,51,37,0
175.25244,179.53326,48,42,0
179.53326,180.3168,43,56,0
179.53326,180.3168,31,56,0
180.3168,181.0685,48,62,0
180.3168,181.0685,36,62,0
181.0685,181.82019,50,53,0
181.0685,181.82019,38,53,0
181.82019,182.57188,52,60,0
181.82019,182.57188,40,60,0
182.57188,183.35292,48,52,0
182.57188,183.35292,36,52,0
183.35292,184.12393,35,62,0
183.35292,184.1578,47,62,0
184.12393,184.93672,36,43,0
184.12393,184.97105,48,43,0
184.93672,186.59166,43,53,0
184.93672,186.62646,31,53,0
186.62646,188.21062,48,53,0
186.62646,188.21062,36,45,0
188.21062,189.7933,55,58,0
188.21062,189.7933,43,49,0
189.7933,190.65266,52,53,0
189.7933,190.65266,40,45,0
190.65266,191.61441,50,56,0
190.65266,191.61441,38,47,0
191.61441,193.15982,36,51,0
191.61441,193.15982,48,60,0
193.15982,193.94336,43,56,0
193.15982,193.94336,31,56,0
193.94336,194.69505,48,62,0
193.94336,194.69505,36,62,0
194.69505,195.44675,50,53,0
194.69505,195.44675,38,53,0
195.44675,196.19843,52,60,0
195.44675,196.19843,40,60,0
196.19843,196.97948,48,52,0
196.19843,196.97948,36,52,0
196.97948,197.75049,35,62,0
196.97948,197.78346,47,62,0
197.75049,198.54184,36,43,0
197.75049,198.57355,48,43,0
198.54184,200.1285,43,53,0
198.54184,200.16237,31,53,0
200.16237,201.74258,44,42,0
200.16237,201.74258,32,35,0
201.74258,203.3228,49,42,0
201.74258,203.3228,37,35,0
203.3228,204.09381,36,44,0
203.3228,204.12679,48,44,0
204.09381,204.88516,34,29,0
204.09381,204.92258,46,29,0
204.88516,206.86511,44,42,0
204.88516,206.91336,32,42,0
206.91336,208.42532,43,42,0
206.91336,208.42532,31,42,0
208.79652,209.16772,50,42,0
209.16772,209.56339,55,51,0
209.56339,209.95906,53,48,0
208.42532,209.95906,43,42,0
209.95906,210.69238,52,55,0
210.69238,211.05904,53,55,0
211.05904,211.45592,52,49,0
211.45592,212.18037,50,54,0
212.18037,212.90483,55,50,0
209.95906,212.90483,43,55,0
212.90483,213.62065,60,54,0
213.62065,214.36517,58,57,0
212.90483,214.36517,48,45,0
214.36517,215.08965,57,62,0
215.08965,215.82635,59,55,0
214.36517,215.82635,53,52,0
215.82635,216.55083,60,54,0
215.82635,216.55083,52,45,0
216.55083,217.2765,59,45,0
216.55083,217.2765,50,38,0
217.2765,218.79382,60,44,0
217.2765,218.79382,48,36,0
218.79382,220.32533,53,43,0
218.79382,220.32533,48,36,0
218.79382,220.32533,41,36,0
220.32533,221.8037,54,51,0
220.32533,221.8037,50,43,0
220.32533,221.8037,42,43,0
221.8037,223.30437,57,59,0
221.8037,223.30437,50,50,0
221.8037,223.30437,45,50,0
223.30437,223.48997,56,78,0
223.30437,223.48997,51,66,0
223.30437,223.48997,44,66,0
223.55183,223.74013,66,62,0
223.55183,223.74013,63,52,0
223.55183,223.74013,60,52,0
223.80356,223.9954,66,63,0
223.80356,223.9954,63,53,0
223.80356,223.9954,60,53,0
224.06046,224.25667,66,76,0
224.06046,224.25667,63,64,0
224.06046,224.25667,60,64,0
224.32274,224.52322,65,66,0
224.32274,224.52322,63,56,0
224.32274,224.52322,60,56,0
224.59004,224.81004,66,67,0
224.59004,224.81004,63,57,0
224.59004,224.81004,60,57,0
224.81004,224.94203,55,68,0
224.81004,224.94203,52,61,0
224.81004,224.94203,43,61,0
224.94203,225.15703,67,73,0
224.94203,225.15703,64,62,0
225.22968,225.44763,67,65,0
225.22968,225.44763,60,55,0
225.5203,225.73825,64,66,0
225.5203,225.73825,55,56,0
225.8109,226.02885,60,75,0
225.8109,226.02885,52,63,0
226.10152,226.31947,55,62,0
226.10152,226.31947,48,53,0
226.39214,226.61009,52,62,0
226.39214,226.61009,45,53,0
226.68172,226.8957,53,75,0
226.96837,227.192,50,66,0
227.26796,227.5015,47,66,0
226.68172,227.8266,43,63,0
227.58102,227.8266,43,69,0
227.9104,228.16771,41,59,0
228.25626,228.52803,38,59,0
228.62181,229.50116,36,40,0
229.54744,230.35231,36,36,0
230.39467,231.19952,36,32,0
231.24188,231.99367,55,37,0
231.24188,231.99367,48,37,0
232.03323,232.77522,59,42,0
232.03323,232.77522,48,42,0
232.81429,233.55627,60,36,0
232.81429,233.55627,48,36,0
233.59532,234.33733,64,36,0
233.59532,234.33733,48,36,0
234.37637,235.15912,59,30,0
234.37637,235.15912,48,30,0
235.20032,235.9521,48,42,0
235.99167,236.74345,48,36,0
235.20032,236.78302,57,42,0
236.78302,237.5348,48,36,0
237.57437,238.32614,57,37,0
237.57437,238.32614,48,37,0
238.3657,239.10771,57,42,0
238.3657,239.10771,48,42,0
239.14676,239.88875,59,36,0
239.14676,239.88875,48,36,0
239.92781,240.6698,62,36,0
239.92781,240.6698,48,36,0
240.70885,241.49161,57,30,0
240.70885,241.49161,48,30,0
241.5328,242.28458,48,42,0
242.32416,243.07593,48,36,0
241.5328,243.1155,55,42,0
243.1155,243.86728,48,36,0
243.90685,244.65863,55,37,0
243.90685,244.65863,48,37,0
244.6982,245.44019,55,42,0
244.6982,245.44019,48,42,0
245.47925,246.22124,57,36,0
245.47925,246.22124,48,36,0
246.26028,247.00229,60,36,0
246.26028,247.00229,48,36,0
247.04134,247.82408,55,30,0
247.04134,247.82408,48,30,0
247.86528,248.61707,48,42,0
248.65663,249.40842,48,36,0
247.86528,249.44798,53,42,0
249.44798,250.19975,48,36,0
250.23933,250.9911,53,37,0
250.23933,250.9911,48,37,0
251.03067,251.77267,53,42,0
251.03067,251.77267,48,42,0
251.81172,252.55371,57,36,0
251.81172,252.55371,48,36,0
252.59277,253.33476,55,36,0
252.59277,253.33476,48,36,0
253.37381,254.15657,53,30,0
253.37381,254.15657,48,30,0
254.19777,254.94954,48,42,0
254.19777,254.94954,36,42,0
254.9891,255.71228,36,36,0
254.9891,255.71228,43,36,0
255.75034,256.5021,36,36,0
255.75034,256.5021,48,42,0
256.5417,257.31384,43,37,0
256.5417,257.31384,36,37,0
257.35446,258.10626,48,42,0
257.35446,258.10626,36,42,0
258.1458,258.869,36,36,0
258.1458,258.869,43,36,0
258.90704,259.65884,36,36,0
258.90704,259.65884,48,42,0
259.6984,260.47055,43,37,0
259.6984,260.47055,36,37,0
260.5112,261.26297,48,42,0
260.5112,261.26297,36,42,0
261.30255,262.0257,36,36,0
261.30255,262.0257,43,36,0
262.06375,262.8256,36,36,0
262.06375,262.8256,48,42,0
262.8657,263.69394,43,37,0
262.8657,263.69394,36,37,0
263.73752,264.5424,48,39,0
263.73752,264.5424,36,39,0
264.58475,265.3569,36,33,0
264.58475,265.3569,43,33,0
265.39752,266.21393,36,32,0
265.39752,266.21393,48,38,0
266.2569,267.13623,43,32,0
266.2569,267.13623,36,32,0
267.18253,268.08987,48,35,0
267.18253,268.08987,36,35,0
268.13763,269.12344,36,28,0
268.13763,269.12344,43,28,0
269.17535,270.23444,36,28,0
269.17535,270.23444,48,33,0
270.29016,272.02692,43,28,0
270.29016,272.02692,36,28,0
272.11832,277.00696,48,30,0
272.11832,277.00696,43,25,0
272.11832,277.00696,36,25,0
95.51298,95.55996,87,51,0
95.55996,95.60693,89,51,0
105.67186,105.718834,70,51,0
105.718834,105.765816,72,51,0
108.70431,108.75129,74,51,0
108.75129,108.79827,75,51,0
