start_time,end_time,note_value,velocity,instrument_program_number
0.0,0.731707,62,77,0
0.0,0.731707,59,64,0
0.731707,1.0802605,86,70,0
1.432849,2.164556,62,65,0
1.432849,2.164556,59,55,0
2.164556,2.503539,86,62,0
2.842522,3.548404,59,50,0
2.842522,3.548404,62,59,0
3.548404,3.8947046,86,57,0
4.241005,4.956739,62,51,0
4.241005,4.956739,59,43,0
4.956739,5.324837,86,49,0
5.5099306,5.691529,62,46,0
5.691529,6.0483317,67,51,0
5.691529,6.0483317,59,43,0
6.0483317,6.386665,67,44,0
6.386665,6.550188,67,50,0
6.386665,6.550188,59,42,0
6.550188,6.717431,69,40,0
6.717431,6.8809543,71,45,0
6.8809543,7.019024,72,40,0
6.386665,7.0692306,86,47,0
7.0261965,7.113121,72,44,0
7.0692306,7.420354,71,51,0
7.0692306,7.420354,62,43,0
7.420354,7.591353,69,39,0
7.591353,7.7623515,71,35,0
7.7623515,8.289037,67,45,0
7.7623515,8.289037,59,38,0
8.289037,8.464599,64,47,0
7.7623515,8.464599,86,45,0
8.464599,8.821402,69,51,0
8.464599,8.821402,60,43,0
8.821402,9.151072,69,45,0
9.151072,9.313691,69,50,0
9.151072,9.313691,60,42,0
9.313691,9.481891,71,40,0
9.481891,9.646328,72,45,0
9.646328,9.784397,74,40,0
9.151072,9.834604,86,47,0
9.79157,9.878494,74,44,0
9.834604,10.185727,72,51,0
9.834604,10.185727,64,43,0
10.185727,10.356727,71,41,0
10.356727,10.527725,72,38,0
10.527725,11.05441,69,45,0
10.527725,11.05441,60,38,0
11.05441,11.229972,67,47,0
10.527725,11.229972,86,45,0
11.229972,11.586775,66,51,0
11.229972,11.586775,60,43,0
11.586775,11.888014,66,48,0
11.888014,11.931048,67,42,0
11.931048,12.101193,66,50,0
11.931048,12.101193,60,42,0
12.101193,12.271339,62,40,0
12.271339,12.443476,64,45,0
12.443476,12.631752,66,40,0
11.931048,12.631752,86,47,0
12.631752,13.354644,67,51,0
12.631752,13.354644,59,43,0
13.871054,14.0473175,62,44,0
13.354644,14.0473175,86,47,0
14.0473175,14.40412,59,40,0
14.0473175,14.40412,67,48,0
14.40412,14.742454,67,45,0
14.742454,14.905976,67,47,0
14.742454,14.905976,59,40,0
14.905976,15.073219,69,38,0
15.073219,15.235839,71,43,0
15.235839,15.373908,72,38,0
14.742454,15.424115,86,44,0
15.381081,15.468005,72,41,0
15.424115,15.775238,71,48,0
15.424115,15.775238,62,40,0
15.775238,15.946237,69,39,0
15.946237,16.117235,71,33,0
16.117235,16.64392,59,36,0
16.117235,16.64392,67,42,0
16.64392,16.819483,64,44,0
16.117235,16.819483,86,42,0
16.819483,17.176287,60,40,0
16.819483,17.176287,69,48,0
17.176287,17.514618,69,42,0
17.514618,17.678143,69,47,0
17.514618,17.678143,60,40,0
17.678143,17.845385,71,38,0
17.845385,18.008005,72,43,0
18.008005,18.146074,74,38,0
17.514618,18.19628,86,44,0
18.153246,18.240171,74,41,0
18.19628,18.547403,64,40,0
18.19628,18.547403,72,48,0
18.547403,18.718403,71,38,0
18.718403,18.8894,72,36,0
18.8894,19.42816,69,42,0
18.8894,19.42816,60,36,0
19.42816,19.609756,67,44,0
18.8894,19.609756,86,42,0
19.609756,19.96656,66,48,0
19.609756,19.96656,60,40,0
19.96656,20.2678,66,45,0
20.2678,20.310833,67,40,0
20.310833,20.480978,66,47,0
20.310833,20.480978,60,40,0
20.480978,20.651123,62,38,0
20.651123,20.823261,64,43,0
20.823261,21.011538,66,38,0
20.310833,21.011538,86,44,0
21.011538,21.716589,59,40,0
21.011538,21.716589,67,48,0
22.24538,22.419556,62,46,0
21.716589,22.419556,86,44,0
22.419556,22.776358,59,43,0
22.419556,22.776358,67,51,0
22.776358,23.11469,67,44,0
23.11469,23.278215,67,50,0
23.11469,23.278215,59,42,0
23.278215,23.445457,69,40,0
23.445457,23.60898,71,45,0
23.60898,23.74705,72,37,0
23.11469,23.797256,77,45,0
23.754223,23.841146,72,44,0
23.797256,24.14838,62,43,0
23.797256,24.14838,71,51,0
24.14838,24.31938,69,41,0
24.31938,24.490377,71,37,0
24.490377,25.009829,67,45,0
24.490377,25.009829,59,37,0
25.009829,25.18298,64,47,0
24.490377,25.18298,77,42,0
25.18298,25.52525,60,43,0
25.18298,25.52525,69,51,0
25.52525,25.85492,69,45,0
25.85492,26.017538,69,51,0
25.85492,26.017538,60,44,0
26.017538,26.185738,71,42,0
26.185738,26.350176,72,48,0
26.350176,26.488245,74,43,0
25.85492,26.538452,76,46,0
26.495417,26.58174,74,47,0
26.538452,26.884752,64,46,0
26.538452,26.884752,72,54,0
26.884752,27.05105,71,45,0
27.05105,27.217346,72,38,0
27.217346,27.7244,69,51,0
27.217346,27.7244,60,42,0
27.7244,27.890144,67,56,0
27.217346,27.890144,76,47,0
27.890144,28.240572,64,52,0
27.890144,28.240572,72,62,0
28.240572,28.570242,72,55,0
28.570242,28.73286,72,63,0
28.570242,28.73286,64,53,0
28.73286,28.90106,74,51,0
28.90106,29.065498,76,58,0
29.065498,29.203568,78,52,0
28.570242,29.253775,81,55,0
29.21074,29.296558,78,56,0
29.253775,29.596045,67,55,0
29.253775,29.596045,76,66,0
29.596045,29.761408,74,54,0
29.761408,29.92677,76,50,0
29.92677,30.446604,72,61,0
29.92677,30.446604,66,50,0
30.446604,30.618742,71,67,0
29.92677,30.618742,81,55,0
30.618742,30.973392,71,62,0
30.618742,30.973392,79,74,0
30.973392,31.301262,79,68,0
31.301262,31.463882,79,76,0
31.301262,31.463882,71,65,0
31.463882,31.63208,81,62,0
31.63208,31.796518,83,70,0
31.796518,31.934587,84,62,0
31.301262,31.984795,86,72,0
31.94176,32.028687,84,67,0
31.984795,32.33592,74,66,0
31.984795,32.33592,83,79,0
32.33592,32.506916,81,73,0
32.506916,32.677914,83,69,0
32.677914,33.216675,79,84,0
32.677914,33.216675,71,69,0
33.216675,33.39827,62,64,0
32.677914,33.39827,91,81,0
33.39827,33.755074,59,57,0
33.39827,33.755074,67,69,0
33.755074,34.084743,67,59,0
34.084743,34.24827,67,68,0
34.084743,34.24827,59,56,0
34.24827,34.415512,69,54,0
34.415512,34.57095,71,60,0
34.57095,34.709023,72,54,0
34.084743,34.759228,77,59,0
34.716194,34.803116,72,59,0
34.759228,35.11035,62,57,0
34.759228,35.11035,71,69,0
35.11035,35.27889,69,53,0
35.27889,35.44743,71,51,0
35.44743,35.96688,67,60,0
35.44743,35.96688,59,51,0
35.96688,36.14003,64,64,0
35.44743,36.14003,77,56,0
36.14003,36.4823,60,57,0
36.14003,36.4823,69,69,0
36.4823,36.81197,69,60,0
36.81197,36.97459,69,69,0
36.81197,36.97459,60,59,0
36.97459,37.142788,71,56,0
37.142788,37.299038,72,65,0
37.299038,37.43711,74,57,0
36.81197,37.487316,76,61,0
37.444283,37.5306,74,62,0
37.487316,37.833614,64,61,0
37.487316,37.833614,72,72,0
37.833614,37.999912,71,60,0
37.999912,38.16621,72,55,0
38.16621,38.684044,69,69,0
38.16621,38.684044,60,56,0
38.684044,38.85518,67,65,0
38.16621,38.85518,76,64,0
38.85518,39.205605,64,59,0
38.85518,39.205605,72,71,0
39.205605,39.543938,72,63,0
39.543938,39.70656,72,72,0
39.543938,39.70656,64,61,0
39.70656,39.874756,74,58,0
39.874756,40.033485,76,67,0
40.033485,40.171555,78,59,0
39.543938,40.221764,81,65,0
40.178726,40.264545,78,65,0
40.221764,40.564034,67,63,0
40.221764,40.564034,76,75,0
40.564034,40.729393,74,62,0
40.729393,40.894756,76,57,0
40.894756,41.414593,72,70,0
40.894756,41.414593,66,57,0
41.414593,41.586727,74,68,0
40.894756,41.586727,81,65,0
41.586727,41.94138,71,63,0
41.586727,41.94138,79,75,0
41.94138,42.279713,79,70,0
42.279713,42.442333,79,78,0
42.279713,42.442333,71,67,0
42.442333,42.61053,81,63,0
42.61053,42.77497,83,69,0
42.77497,42.91304,84,63,0
42.279713,42.963245,86,70,0
42.92021,43.007137,84,68,0
42.963245,43.31437,74,68,0
42.963245,43.31437,83,81,0
43.31437,43.485367,81,75,0
43.485367,43.65637,83,71,0
43.65637,44.376724,91,78,0
43.65637,44.376724,79,87,0
43.65637,44.376724,71,71,0
44.376724,44.54886,62,62,0
44.376724,44.54886,57,71,0
44.54886,44.720997,59,56,0
44.720997,44.89313,60,59,0
44.89313,45.071533,62,54,0
45.071533,45.78514,74,68,0
45.78514,46.128,72,70,0
45.78514,46.128,64,59,0
46.128,46.307487,71,62,0
46.128,46.307487,62,52,0
46.307487,46.486977,72,55,0
46.307487,46.486977,64,46,0
46.486977,47.19628,69,62,0
46.486977,47.19628,60,52,0
47.19628,47.36842,62,62,0
47.19628,47.36842,57,71,0
47.36842,47.540554,59,58,0
47.540554,47.712692,60,59,0
47.712692,47.891094,62,53,0
47.891094,48.6047,74,68,0
48.6047,48.94561,71,70,0
48.6047,48.94561,62,59,0
48.94561,49.1251,69,62,0
48.94561,49.1251,60,52,0
49.1251,49.30459,71,55,0
49.1251,49.30459,62,46,0
49.30459,50.013893,67,62,0
49.30459,50.013893,59,52,0
50.013893,50.18603,62,51,0
50.013893,50.18603,57,58,0
50.18603,50.358166,59,47,0
50.358166,50.530304,60,48,0
50.530304,50.708706,62,45,0
50.708706,51.42231,74,55,0
51.42231,51.765167,72,57,0
51.42231,51.765167,64,48,0
51.765167,51.944656,71,51,0
51.765167,51.944656,62,43,0
51.944656,52.12415,72,45,0
51.944656,52.12415,64,37,0
52.12415,52.817783,69,51,0
52.12415,52.817783,60,43,0
52.817783,52.98992,62,48,0
52.817783,52.98992,57,55,0
52.98992,53.162056,59,40,0
53.162056,53.334194,60,45,0
53.334194,53.512596,62,40,0
53.512596,54.2262,74,52,0
54.2262,54.57663,71,54,0
54.2262,54.57663,62,45,0
54.57663,54.75612,69,48,0
54.57663,54.75612,60,40,0
54.75612,54.935608,71,42,0
54.75612,54.935608,62,35,0
54.935608,55.29026,67,48,0
54.935608,55.29026,59,40,0
55.29026,55.660492,71,40,0
55.29026,55.660492,62,34,0
55.660492,56.037853,69,46,0
55.660492,56.037853,60,39,0
56.037853,56.435204,67,43,0
56.037853,56.435204,59,36,0
56.435204,57.1714,67,48,0
56.435204,57.1714,59,40,0
56.435204,57.1714,79,48,0
57.1714,57.9214,62,40,0
57.1714,57.9214,59,34,0
57.9214,58.653107,79,48,0
58.653107,59.3893,62,39,0
58.653107,59.3893,59,33,0
59.3893,60.87169,79,48,0
60.87169,61.081993,78,45,0
61.05169,61.265484,76,41,0
61.23462,61.45144,74,44,0
61.42019,61.64072,72,40,0
61.608875,62.373203,71,48,0
62.373203,63.137535,69,41,0
62.373203,63.137535,66,34,0
62.373203,63.137535,60,34,0
63.137535,63.869244,62,34,0
63.137535,63.869244,59,34,0
63.137535,63.869244,67,40,0
63.869244,64.57038,86,43,0
64.57038,65.30209,62,32,0
64.57038,65.30209,59,32,0
64.57038,65.30209,67,38,0
65.30209,65.98006,86,39,0
65.98006,66.69012,62,32,0
65.98006,66.69012,59,32,0
65.98006,66.69012,67,38,0
66.69012,67.38272,86,39,0
67.38272,68.09845,62,39,0
67.38272,68.09845,59,33,0
68.65164,68.833244,62,46,0
68.09845,68.833244,86,42,0
68.833244,69.19004,67,51,0
68.833244,69.19004,59,43,0
69.19004,69.52837,67,44,0
69.52837,69.6919,67,50,0
69.52837,69.6919,59,42,0
69.6919,69.859146,69,40,0
69.859146,70.02267,71,43,0
70.02267,70.160736,72,39,0
69.52837,70.210945,86,47,0
70.16791,70.25484,72,44,0
70.210945,70.562065,71,51,0
70.210945,70.562065,62,43,0
70.562065,70.73306,69,39,0
70.73306,70.90406,71,38,0
70.90406,71.43075,67,45,0
70.90406,71.43075,59,38,0
71.43075,71.60631,64,47,0
70.90406,71.60631,86,45,0
71.60631,71.96311,69,51,0
71.60631,71.96311,60,43,0
71.96311,72.292786,69,45,0
72.292786,72.45541,69,50,0
72.292786,72.45541,60,42,0
72.45541,72.623604,71,40,0
72.623604,72.7849,72,45,0
72.7849,72.922966,74,40,0
72.292786,72.97317,86,47,0
72.93014,73.01706,74,44,0
72.97317,73.324295,72,51,0
72.97317,73.324295,64,43,0
73.324295,73.49096,71,41,0
73.49096,73.65762,72,38,0
73.65762,74.18431,69,45,0
73.65762,74.18431,60,38,0
74.18431,74.35987,67,47,0
73.65762,74.35987,86,45,0
74.35987,74.716675,66,51,0
74.35987,74.716675,57,43,0
74.716675,75.017914,66,48,0
75.017914,75.06095,67,42,0
74.716675,75.06095,60,39,0
75.06095,75.231094,66,50,0
75.06095,75.231094,57,42,0
75.231094,75.40124,62,40,0
75.40124,75.57338,64,45,0
75.40124,75.57338,60,42,0
75.57338,75.76165,66,40,0
75.06095,75.76165,86,47,0
75.76165,76.470955,67,51,0
75.76165,76.470955,59,43,0
76.987366,77.16363,62,41,0
76.470955,77.16363,86,47,0
77.16363,77.52043,59,43,0
77.16363,77.52043,67,51,0
77.52043,77.858765,67,44,0
77.858765,78.02229,67,50,0
77.858765,78.02229,59,42,0
78.02229,78.18953,69,40,0
78.18953,78.35306,71,45,0
78.35306,78.49113,72,40,0
77.858765,78.541336,77,44,0
78.4983,78.58522,72,44,0
78.541336,78.892456,62,43,0
78.541336,78.892456,71,51,0
78.892456,79.06345,69,41,0
79.06345,79.23445,71,38,0
79.23445,79.75391,67,45,0
79.23445,79.75391,59,38,0
79.75391,79.927055,64,47,0
79.23445,79.927055,77,42,0
79.927055,80.269325,60,43,0
79.927055,80.269325,69,51,0
80.269325,80.60766,69,45,0
80.60766,80.77028,69,51,0
80.60766,80.77028,60,44,0
80.77028,80.93848,71,42,0
80.93848,81.10291,72,48,0
81.10291,81.24098,74,43,0
80.60766,81.29119,76,46,0
81.24815,81.33448,74,47,0
81.29119,81.63749,64,46,0
81.29119,81.63749,72,55,0
81.63749,81.80379,71,45,0
81.80379,81.970085,72,41,0
81.970085,82.487915,69,51,0
81.970085,82.487915,60,42,0
82.487915,82.65905,67,50,0
81.970085,82.65905,76,47,0
82.65905,83.009476,64,46,0
82.65905,83.009476,72,55,0
83.009476,83.34781,72,49,0
83.34781,83.51043,72,56,0
83.34781,83.51043,64,47,0
83.51043,83.67863,74,45,0
83.67863,83.84307,76,52,0
83.84307,83.98114,78,46,0
83.34781,84.03134,81,53,0
83.98831,84.07324,78,50,0
84.03134,84.36654,67,49,0
84.03134,84.36654,76,58,0
84.36654,84.5319,74,48,0
84.5319,84.697266,76,40,0
84.697266,85.2171,72,54,0
84.697266,85.2171,66,44,0
85.2171,85.38924,74,53,0
84.697266,85.38924,81,53,0
85.38924,85.74389,71,49,0
85.38924,85.74389,79,58,0
85.74389,86.08222,79,54,0
86.08222,86.24484,79,60,0
86.08222,86.24484,71,52,0
86.24484,86.41304,81,49,0
86.41304,86.57748,83,56,0
86.57748,86.715546,84,49,0
86.08222,86.765755,86,57,0
86.72272,86.80964,84,53,0
86.765755,87.116875,74,53,0
86.765755,87.116875,83,63,0
87.116875,87.28787,81,58,0
87.28787,87.45887,83,55,0
87.45887,88.17923,91,64,0
87.45887,88.17923,79,67,0
87.45887,88.17923,71,55,0
88.17923,88.351364,62,51,0
88.17923,88.351364,57,58,0
88.351364,88.523506,59,46,0
88.523506,88.69564,60,48,0
88.69564,88.87404,62,45,0
88.87404,89.58765,74,55,0
89.58765,89.930504,72,57,0
89.58765,89.930504,64,48,0
89.930504,90.10999,71,51,0
89.930504,90.10999,62,43,0
90.10999,90.28948,72,45,0
90.10999,90.28948,64,37,0
90.28948,90.99879,69,51,0
90.28948,90.99879,60,43,0
90.99879,91.17092,62,51,0
90.99879,91.17092,57,58,0
91.17092,91.34306,59,46,0
91.34306,91.5152,60,48,0
91.5152,91.6936,62,45,0
91.6936,92.4072,74,55,0
92.4072,92.748116,71,57,0
92.4072,92.748116,62,48,0
92.748116,92.927605,69,51,0
92.748116,92.927605,60,43,0
92.927605,93.10709,71,45,0
92.927605,93.10709,62,37,0
93.10709,93.79883,67,51,0
93.10709,93.79883,59,43,0
93.79883,93.97096,62,51,0
93.79883,93.97096,57,58,0
93.97096,94.1431,59,46,0
94.1431,94.31524,60,48,0
94.31524,94.49364,62,46,0
94.49364,95.207245,74,55,0
95.207245,95.5501,72,57,0
95.207245,95.5501,64,48,0
95.5501,95.72959,71,51,0
95.5501,95.72959,62,43,0
95.72959,95.90908,72,45,0
95.72959,95.90908,64,37,0
95.90908,96.62087,69,51,0
95.90908,96.62087,60,43,0
96.62087,96.793015,62,48,0
96.62087,96.793015,57,55,0
96.793015,96.96515,59,44,0
96.96515,97.13728,60,45,0
97.13728,97.31569,62,41,0
97.31569,98.0293,74,52,0
98.0293,98.37972,71,54,0
98.0293,98.37972,62,45,0
98.37972,98.55921,69,48,0
98.37972,98.55921,60,40,0
98.55921,98.7387,71,42,0
98.55921,98.7387,62,35,0
98.7387,99.09335,67,48,0
98.7387,99.09335,59,40,0
99.09335,99.463585,71,40,0
99.09335,99.463585,62,34,0
99.463585,99.84094,69,46,0
99.463585,99.84094,60,39,0
99.84094,100.2383,67,43,0
99.84094,100.2383,59,36,0
100.2383,100.96557,67,48,0
100.2383,100.96557,59,40,0
100.2383,100.96557,79,48,0
100.96557,101.71557,62,40,0
100.96557,101.71557,59,34,0
101.71557,102.44727,79,48,0
102.44727,103.170166,62,39,0
102.44727,103.170166,59,33,0
103.170166,104.65739,79,48,0
104.65739,104.8677,78,45,0
104.837395,105.051186,76,40,0
105.020325,105.237144,74,44,0
105.205894,105.42642,72,39,0
105.39458,106.158905,71,48,0
106.158905,106.92324,69,41,0
106.158905,106.92324,66,34,0
106.158905,106.92324,60,34,0
106.92324,107.654945,62,40,0
106.92324,107.654945,59,34,0
106.92324,107.654945,67,40,0
107.654945,108.35609,86,43,0
108.35609,109.08779,62,41,0
108.35609,109.08779,59,35,0
109.08779,109.76576,86,41,0
109.76576,110.49747,62,41,0
109.76576,110.49747,59,35,0
110.49747,111.19007,86,42,0
111.19007,111.9058,62,40,0
111.19007,111.9058,59,34,0
111.9058,112.45899,86,41,0
112.45899,112.66034,62,38,0
112.66034,113.392044,62,40,0
112.66034,113.392044,58,34,0
113.392044,114.093185,86,36,0
114.093185,114.82489,62,36,0
114.093185,114.82489,58,30,0
114.82489,115.50286,86,34,0
115.50286,116.234566,62,32,0
115.50286,116.234566,58,27,0
116.234566,116.940445,86,34,0
116.940445,117.71464,62,30,0
116.940445,117.71464,58,25,0
117.71464,118.33461,86,33,0
118.33461,118.524864,62,48,0
118.912865,119.300865,65,52,0
118.524864,119.300865,67,56,0
119.300865,119.48268,67,56,0
119.48268,119.6645,69,51,0
119.300865,119.6645,63,47,0
119.300865,119.6645,60,47,0
119.6645,119.84855,70,53,0
119.84855,120.0326,72,51,0
119.6645,120.0326,62,36,0
119.6645,120.0326,58,35,0
120.0326,120.40996,63,50,0
120.0326,120.40996,70,60,0
120.40996,120.59401,69,56,0
120.59401,120.77805,70,51,0
120.40996,120.77805,65,44,0
120.77805,121.15541,62,48,0
120.77805,121.15541,58,48,0
120.77805,121.15541,67,57,0
121.15541,121.57208,63,45,0
121.15541,121.57208,60,45,0
121.15541,121.57208,69,53,0
121.57208,121.98304,70,58,0
121.57208,121.98304,65,49,0
121.98304,122.40857,72,55,0
121.98304,122.40857,69,46,0
122.40857,123.29746,72,58,0
122.40857,123.29746,69,49,0
123.29746,124.18635,74,50,0
123.29746,124.18635,70,41,0
124.60365,124.99622,65,52,0
125.38422,125.77222,69,52,0
124.99622,125.77222,70,58,0
125.77222,125.95627,70,56,0
125.95627,126.14031,72,51,0
125.77222,126.14031,67,47,0
125.77222,126.14031,63,47,0
126.14031,126.32743,74,53,0
126.32743,126.51376,75,51,0
126.14031,126.51376,65,38,0
126.14031,126.51376,62,36,0
126.51376,126.89034,67,50,0
126.51376,126.89034,74,60,0
126.51376,126.89034,58,40,0
126.89034,127.079025,72,56,0
127.079025,127.2677,74,51,0
126.89034,127.2677,69,47,0
126.89034,127.2677,60,40,0
126.89034,127.2677,63,40,0
127.2677,127.66027,65,48,0
127.2677,127.66027,62,48,0
127.2677,127.66027,70,57,0
127.66027,128.07169,63,45,0
127.66027,128.07169,69,45,0
127.66027,128.07169,72,53,0
127.66027,128.07169,60,45,0
128.07169,128.47984,74,58,0
128.07169,128.47984,65,49,0
128.47984,128.90538,76,60,0
128.47984,128.90538,67,50,0
128.90538,129.79427,76,63,0
128.90538,129.79427,67,53,0
129.79427,130.68315,78,55,0
129.79427,130.68315,74,45,0
129.79427,130.68315,66,45,0
130.68315,131.51074,74,67,0
131.09694,131.90547,72,63,0
131.90547,132.27815,70,62,0
131.51074,132.27815,79,69,0
132.27815,132.46448,77,64,0
132.46448,132.65082,79,57,0
132.27815,132.65082,69,56,0
132.65082,132.84312,77,63,0
132.84312,133.03543,75,61,0
132.65082,133.03543,65,42,0
133.03543,133.43018,70,60,0
133.03543,133.43018,74,70,0
133.43018,133.8249,69,45,0
133.43018,133.8249,74,62,0
133.8249,134.21747,67,57,0
133.8249,134.21747,70,68,0
134.21747,134.62889,72,63,0
134.21747,134.62889,65,53,0
134.62889,135.03157,74,67,0
134.62889,135.03157,70,56,0
135.03157,135.86507,74,63,0
135.03157,135.86507,70,53,0
135.86507,136.27602,74,63,0
135.86507,136.27602,70,53,0
136.27602,137.09795,79,69,0
136.27602,137.09795,70,58,0
136.27602,137.09795,67,58,0
137.09795,137.29274,77,58,0
137.09795,137.29274,65,49,0
137.29274,137.48755,79,53,0
137.29274,137.48755,67,45,0
137.48755,137.68492,77,56,0
137.48755,137.68492,65,46,0
137.68492,137.8823,75,52,0
137.68492,137.8823,63,44,0
137.09795,137.8823,72,58,0
137.8823,138.28229,74,61,0
137.8823,138.28229,70,51,0
137.8823,138.28229,62,51,0
138.28229,138.68228,74,55,0
138.28229,138.68228,67,46,0
138.28229,138.68228,62,46,0
138.68228,139.09325,70,58,0
138.68228,139.09325,67,49,0
139.09325,139.30753,65,53,0
139.30753,139.52182,63,42,0
139.09325,139.52182,72,53,0
139.52182,139.93279,74,58,0
139.52182,139.93279,62,49,0
139.93279,140.34373,67,55,0
139.93279,140.34373,62,46,0
140.34373,140.7547,69,58,0
140.34373,140.7547,63,49,0
140.34373,140.7547,60,44,0
140.7547,141.16565,70,53,0
140.7547,141.16565,67,45,0
140.7547,141.16565,62,45,0
141.16565,141.5882,69,58,0
141.16565,141.5882,63,58,0
141.16565,141.5882,60,43,0
141.5882,142.01073,67,52,0
141.5882,142.01073,58,44,0
142.01073,142.0783,67,46,0
142.0783,142.14586,66,40,0
142.14586,142.21342,67,47,0
142.21342,142.28099,66,42,0
142.28099,142.521,64,44,0
142.521,142.78885,66,55,0
142.78885,143.07732,67,49,0
142.01073,143.07732,60,30,0
143.07732,144.1217,67,55,0
143.07732,144.1217,58,46,0
144.53549,144.94928,60,46,0
144.1217,144.94928,62,49,0
145.34145,145.7336,65,45,0
144.94928,145.7336,67,50,0
144.94928,145.7336,58,43,0
145.7336,145.91542,67,48,0
145.91542,146.09723,69,44,0
145.7336,146.09723,63,40,0
145.7336,146.09723,60,40,0
146.09723,146.28592,70,46,0
146.28592,146.4746,72,44,0
146.09723,146.4746,62,34,0
146.09723,146.4746,58,28,0
146.4746,146.85196,63,43,0
146.4746,146.85196,70,52,0
146.85196,147.036,69,48,0
147.036,147.22005,70,44,0
146.85196,147.22005,65,40,0
147.22005,147.59741,62,41,0
147.22005,147.59741,58,41,0
147.22005,147.59741,67,49,0
147.59741,148.01408,63,38,0
147.59741,148.01408,60,38,0
147.59741,148.01408,69,46,0
148.01408,148.42503,70,50,0
148.01408,148.42503,65,42,0
148.42503,148.85057,72,47,0
148.42503,148.85057,69,39,0
148.85057,149.29501,72,50,0
148.85057,149.29501,69,42,0
149.29501,149.4037,74,42,0
149.29501,149.4037,70,36,0
149.4037,149.5124,72,37,0
149.4037,149.5124,69,31,0
149.5124,149.6211,70,40,0
149.5124,149.6211,67,34,0
149.6211,149.7298,72,36,0
149.6211,149.7298,69,30,0
149.7298,150.61707,74,40,0
149.7298,150.61707,70,34,0
151.03438,151.42694,63,45,0
150.61707,151.42694,65,45,0
151.81494,152.20294,69,45,0
151.42694,152.20294,70,50,0
151.42694,152.20294,62,43,0
152.20294,152.387,70,48,0
152.387,152.57104,72,44,0
152.20294,152.57104,67,40,0
152.20294,152.57104,63,40,0
152.57104,152.75508,74,46,0
152.75508,152.93913,75,44,0
152.57104,152.93913,65,32,0
152.57104,152.93913,62,32,0
152.93913,153.3165,67,43,0
152.93913,153.3165,74,52,0
152.93913,153.3165,58,35,0
153.3165,153.50517,72,48,0
153.50517,153.69385,74,44,0
153.3165,153.69385,69,40,0
153.3165,153.69385,60,35,0
153.3165,153.69385,63,35,0
153.69385,154.08643,65,41,0
153.69385,154.08643,62,41,0
153.69385,154.08643,70,49,0
154.08643,154.49783,63,38,0
154.08643,154.49783,69,38,0
154.08643,154.49783,72,46,0
154.08643,154.49783,60,38,0
154.49783,154.90599,74,50,0
154.49783,154.90599,65,42,0
154.90599,155.33153,76,52,0
154.90599,155.33153,67,43,0
155.33153,155.73969,76,55,0
155.33153,155.73969,73,46,0
155.73969,155.8508,78,44,0
155.73969,155.8508,74,37,0
155.8508,155.96191,76,40,0
155.8508,155.96191,73,34,0
155.96191,156.07303,74,44,0
155.96191,156.07303,71,37,0
156.07303,156.18413,76,40,0
156.07303,156.18413,73,34,0
156.18413,157.07303,78,42,0
156.18413,157.07303,74,34,0
156.18413,157.07303,66,34,0
157.07303,157.9006,74,60,0
157.9006,158.09798,82,60,0
158.09798,158.29535,81,57,0
157.48682,158.29535,72,55,0
158.29535,158.66801,70,53,0
158.29535,158.66801,79,60,0
158.66801,158.85435,77,56,0
158.85435,159.0407,79,49,0
158.66801,159.0407,69,48,0
159.0407,159.23805,77,55,0
159.23805,159.43542,75,52,0
159.0407,159.43542,65,37,0
159.43542,159.83017,70,51,0
159.43542,159.83017,74,62,0
159.83017,160.2249,69,39,0
159.83017,160.2249,74,53,0
160.2249,160.61746,67,49,0
160.2249,160.61746,70,59,0
160.61746,161.02887,72,55,0
160.61746,161.02887,65,46,0
161.02887,161.23022,74,58,0
161.02887,161.23022,70,48,0
161.23022,161.43156,75,42,0
161.23022,161.43156,72,42,0
161.43156,162.26506,74,53,0
161.43156,162.26506,70,44,0
162.26506,162.7095,74,55,0
162.26506,162.7095,70,46,0
162.7095,163.54283,79,60,0
162.7095,163.54283,74,50,0
162.7095,163.54283,67,50,0
163.54283,163.7415,77,50,0
163.54283,163.7415,65,42,0
163.7415,163.94019,79,44,0
163.94019,164.14288,77,50,0
164.14288,164.3456,71,42,0
163.54283,164.3456,72,50,0
164.3456,164.74559,71,53,0
164.3456,164.74559,65,44,0
164.74559,165.14558,72,47,0
164.74559,165.14558,67,39,0
165.14558,165.55655,74,50,0
165.14558,165.55655,69,42,0
165.55655,165.98512,67,46,0
165.55655,165.98512,62,41,0
165.98512,166.39607,69,50,0
166.39607,166.80704,70,47,0
165.98512,166.80704,63,42,0
166.80704,167.218,69,50,0
167.218,167.62895,67,46,0
166.80704,167.62895,62,42,0
167.62895,168.0515,69,50,0
167.62895,168.0515,63,50,0
167.62895,168.0515,60,42,0
168.0515,168.49594,67,45,0
168.0515,168.49594,58,38,0
168.49594,168.55896,67,40,0
168.55896,168.62198,66,34,0
168.62198,168.68501,67,41,0
168.68501,168.74803,66,36,0
168.74803,168.98804,64,37,0
168.98804,169.25589,66,47,0
169.25589,169.54436,67,42,0
168.49594,170.18265,60,32,0
170.18265,170.82095,57,31,0
169.54436,170.82095,67,47,0
170.82095,171.64287,79,30,0
170.82095,172.05383,58,30,0
172.05383,172.23543,62,41,0
172.23543,172.59222,67,45,0
172.23543,172.59222,59,38,0
172.59222,172.93509,67,39,0
172.93509,173.0986,67,45,0
172.93509,173.0986,59,37,0
173.0986,173.26585,69,36,0
173.26585,173.42938,71,40,0
173.42938,173.56744,72,36,0
172.93509,173.61765,86,42,0
173.57462,173.66154,72,39,0
173.61765,173.96878,71,45,0
173.61765,173.96878,62,38,0
173.96878,174.13977,69,35,0
174.13977,174.31078,71,34,0
174.31078,174.83746,67,40,0
174.31078,174.83746,59,34,0
174.83746,175.01302,64,42,0
174.31078,175.01302,86,40,0
175.01302,175.36983,69,45,0
175.01302,175.36983,60,38,0
175.36983,175.6995,69,40,0
175.6995,175.8621,69,45,0
175.6995,175.8621,60,37,0
175.8621,176.03032,71,35,0
176.03032,176.19475,72,40,0
176.19475,176.33282,74,36,0
175.6995,176.38303,86,42,0
176.34,176.42691,74,39,0
176.38303,176.73415,72,45,0
176.38303,176.73415,64,38,0
176.73415,176.90515,71,36,0
176.90515,177.07614,72,34,0
177.07614,177.60887,69,40,0
177.07614,177.60887,60,34,0
177.60887,177.79047,67,42,0
177.07614,177.79047,86,40,0
177.79047,178.14726,66,45,0
177.79047,178.14726,60,38,0
178.14726,178.4485,66,43,0
178.4485,178.49155,67,37,0
178.49155,178.66168,66,45,0
178.49155,178.66168,60,37,0
178.66168,178.83183,62,36,0
178.83183,179.00397,64,40,0
179.00397,179.19225,66,36,0
178.49155,179.19225,86,42,0
179.19225,179.91513,67,45,0
179.19225,179.91513,59,38,0
180.43155,180.6078,62,44,0
179.91513,180.6078,86,42,0
180.6078,180.96461,59,40,0
180.6078,180.96461,67,48,0
180.96461,181.30295,67,45,0
181.30295,181.46648,67,47,0
181.30295,181.46648,59,40,0
181.46648,181.63371,69,38,0
181.63371,181.79633,71,43,0
181.79633,181.9344,72,38,0
181.30295,181.9846,86,44,0
181.94157,182.0285,72,41,0
181.9846,182.33574,71,48,0
181.9846,182.33574,62,40,0
182.33574,182.50673,69,38,0
182.50673,182.67773,71,36,0
182.67773,183.20442,59,36,0
182.67773,183.20442,67,42,0
183.20442,183.37997,64,44,0
182.67773,183.37997,86,42,0
183.37997,183.73679,60,40,0
183.37997,183.73679,69,48,0
183.73679,184.07512,69,42,0
184.07512,184.23863,69,47,0
184.07512,184.23863,60,40,0
184.23863,184.40588,71,38,0
184.40588,184.5685,72,43,0
184.5685,184.70657,74,38,0
184.07512,184.75677,86,44,0
184.71375,184.80066,74,41,0
184.75677,185.1079,64,40,0
184.75677,185.1079,72,48,0
185.1079,185.2789,71,38,0
185.2789,185.44989,72,36,0
185.44989,185.98865,69,42,0
185.44989,185.98865,60,36,0
185.98865,186.17026,67,44,0
185.44989,186.17026,86,42,0
186.17026,186.52705,66,48,0
186.17026,186.52705,60,40,0
186.52705,186.8283,66,45,0
186.8283,186.87132,67,40,0
186.87132,187.04147,66,47,0
186.87132,187.04147,60,40,0
187.04147,187.21162,62,38,0
187.21162,187.38376,64,43,0
187.38376,187.57204,66,38,0
186.87132,187.57204,86,44,0
187.57204,188.27708,59,40,0
187.57204,188.27708,67,48,0
188.80588,188.98004,62,46,0
188.27708,188.98004,86,44,0
188.98004,189.33685,59,43,0
188.98004,189.33685,67,51,0
189.33685,189.67519,67,44,0
189.67519,189.83871,67,50,0
189.67519,189.83871,59,42,0
189.83871,190.00595,69,40,0
190.00595,190.16948,71,45,0
190.16948,190.30754,72,35,0
189.67519,190.35776,77,45,0
190.31471,190.40164,72,44,0
190.35776,190.70888,62,43,0
190.35776,190.70888,71,51,0
190.70888,190.87987,69,41,0
190.87987,191.05087,71,37,0
191.05087,191.57033,67,45,0
191.05087,191.57033,59,37,0
191.57033,191.74347,64,47,0
191.05087,191.74347,77,42,0
191.74347,192.08574,60,43,0
191.74347,192.08574,69,51,0
192.08574,192.41542,69,45,0
192.41542,192.57803,69,51,0
192.41542,192.57803,60,44,0
192.57803,192.74623,71,42,0
192.74623,192.91068,72,48,0
192.91068,193.04874,74,39,0
192.41542,193.09894,76,46,0
193.05591,193.14223,74,47,0
193.09894,193.44525,64,46,0
193.09894,193.44525,72,54,0
193.44525,193.61154,71,45,0
193.61154,193.77785,72,41,0
193.77785,194.2849,69,51,0
193.77785,194.2849,60,42,0
194.2849,194.45064,67,56,0
193.77785,194.45064,76,47,0
194.45064,194.80107,64,52,0
194.45064,194.80107,72,62,0
194.80107,195.13074,72,55,0
195.13074,195.29335,72,63,0
195.13074,195.29335,64,53,0
195.29335,195.46155,74,51,0
195.46155,195.62599,76,58,0
195.62599,195.76407,78,52,0
195.13074,195.81427,81,55,0
195.77124,195.85706,78,56,0
195.81427,196.15654,67,55,0
195.81427,196.15654,76,66,0
196.15654,196.3219,74,54,0
196.3219,196.48726,76,50,0
196.48726,197.0071,72,61,0
196.48726,197.0071,66,50,0
197.0071,197.17923,74,67,0
196.48726,197.17923,81,55,0
197.17923,197.53389,71,62,0
197.17923,197.53389,79,74,0
197.53389,197.86176,79,68,0
197.86176,198.02437,79,76,0
197.86176,198.02437,71,65,0
198.02437,198.19258,81,62,0
198.19258,198.35701,83,70,0
198.35701,198.49509,84,57,0
197.86176,198.54529,86,72,0
198.50226,198.58917,84,67,0
198.54529,198.89641,74,66,0
198.54529,198.89641,83,79,0
198.89641,199.06741,81,73,0
199.06741,199.2384,83,69,0
199.2384,199.77716,79,84,0
199.2384,199.77716,71,69,0
199.77716,199.95877,62,64,0
199.2384,199.95877,91,81,0
199.95877,200.31557,59,57,0
199.95877,200.31557,67,69,0
200.31557,200.64523,67,59,0
200.64523,200.80876,67,68,0
200.64523,200.80876,59,56,0
200.80876,200.976,69,54,0
200.976,201.13307,71,60,0
201.13307,201.27115,72,49,0
200.64523,201.32135,77,59,0
201.27832,201.36523,72,59,0
201.32135,201.67247,62,57,0
201.32135,201.67247,71,69,0
201.67247,201.84102,69,55,0
201.84102,202.00955,71,51,0
202.00955,202.529,67,60,0
202.00955,202.529,59,51,0
202.529,202.70215,64,64,0
202.00955,202.70215,77,56,0
202.70215,203.04442,60,57,0
202.70215,203.04442,69,69,0
203.04442,203.3741,69,60,0
203.3741,203.53671,69,69,0
203.3741,203.53671,60,56,0
203.53671,203.70491,71,56,0
203.70491,203.86198,72,60,0
203.86198,204.00005,74,53,0
203.3741,204.05026,76,61,0
204.00722,204.09354,74,64,0
204.05026,204.39656,64,59,0
204.05026,204.39656,72,72,0
204.39656,204.56285,71,60,0
204.56285,204.72916,72,55,0
204.72916,205.24698,69,69,0
204.72916,205.24698,60,56,0
205.24698,205.41812,67,65,0
204.72916,205.41812,76,64,0
205.41812,205.76854,64,59,0
205.41812,205.76854,72,71,0
205.76854,206.10687,72,63,0
206.10687,206.2695,72,72,0
206.10687,206.2695,64,61,0
206.2695,206.4377,74,58,0
206.4377,206.5956,76,67,0
206.5956,206.73366,78,59,0
206.10687,206.78386,81,65,0
206.74083,206.82664,78,65,0
206.78386,207.12613,67,63,0
206.78386,207.12613,76,75,0
207.12613,207.2915,74,62,0
207.2915,207.45686,76,57,0
207.45686,207.9767,72,70,0
207.45686,207.9767,66,57,0
207.9767,208.14883,74,68,0
207.45686,208.14883,81,65,0
208.14883,208.50348,71,63,0
208.14883,208.50348,79,75,0
208.50348,208.84181,79,70,0
208.84181,209.00444,79,78,0
208.84181,209.00444,71,67,0
209.00444,209.17264,81,63,0
209.17264,209.3297,83,70,0
209.3297,209.46777,84,63,0
208.84181,209.51797,86,70,0
209.47495,209.56187,84,68,0
209.51797,209.86911,74,68,0
209.51797,209.86911,83,81,0
209.86911,210.0401,81,75,0
210.0401,210.2111,83,71,0
210.2111,210.93146,91,78,0
210.2111,210.93146,79,87,0
210.2111,210.93146,71,71,0
210.93146,211.10359,62,62,0
210.93146,211.10359,57,71,0
211.10359,211.27573,59,60,0
211.27573,211.44786,60,59,0
211.44786,211.62627,62,54,0
211.62627,212.33987,74,68,0
212.33987,212.68274,72,70,0
212.33987,212.68274,64,59,0
212.68274,212.86223,71,62,0
212.68274,212.86223,62,52,0
212.86223,213.04172,72,55,0
212.86223,213.04172,64,46,0
213.04172,213.75102,69,62,0
213.04172,213.75102,60,52,0
213.75102,213.92316,62,62,0
213.75102,213.92316,57,71,0
213.92316,214.09529,59,60,0
214.09529,214.26743,60,59,0
214.26743,214.44583,62,56,0
214.44583,215.15944,74,68,0
215.15944,215.50034,71,70,0
215.15944,215.50034,62,59,0
215.50034,215.67984,69,62,0
215.50034,215.67984,60,52,0
215.67984,215.85933,71,55,0
215.67984,215.85933,62,46,0
215.85933,216.56863,67,62,0
215.85933,216.56863,59,52,0
216.56863,216.74077,62,51,0
216.56863,216.74077,57,58,0
216.74077,216.9129,59,47,0
216.9129,217.08504,60,48,0
217.08504,217.26344,62,46,0
217.26344,217.97705,74,55,0
217.97705,218.3199,72,57,0
217.97705,218.3199,64,48,0
218.3199,218.49939,71,51,0
218.3199,218.49939,62,43,0
218.49939,218.67888,72,45,0
218.49939,218.67888,64,37,0
218.67888,219.37251,69,51,0
218.67888,219.37251,60,43,0
219.37251,219.54465,62,48,0
219.37251,219.54465,57,55,0
219.54465,219.7168,59,43,0
219.7168,219.88893,60,45,0
219.88893,220.06734,62,42,0
220.06734,220.78093,74,52,0
220.78093,221.13136,71,54,0
220.78093,221.13136,62,45,0
221.13136,221.31085,69,48,0
221.13136,221.31085,60,40,0
221.31085,221.49034,71,42,0
221.31085,221.49034,62,35,0
221.49034,221.845,67,48,0
221.49034,221.845,59,40,0
221.845,222.21523,71,40,0
221.845,222.21523,62,34,0
222.21523,222.59259,69,46,0
222.21523,222.59259,60,39,0
222.59259,222.98994,67,43,0
222.59259,222.98994,59,36,0
222.98994,223.72614,67,48,0
222.98994,223.72614,59,40,0
222.98994,223.72614,79,48,0
223.72614,224.47614,62,40,0
223.72614,224.47614,59,34,0
224.47614,225.20784,79,48,0
225.20784,225.94403,62,39,0
225.20784,225.94403,59,33,0
225.94403,227.42642,79,48,0
227.42642,227.63673,78,45,0
227.60643,227.82022,76,41,0
227.78935,228.00618,74,40,0
227.97493,228.19545,72,37,0
228.1636,228.92793,71,48,0
228.92793,229.69228,69,41,0
228.92793,229.69228,66,34,0
228.92793,229.69228,60,34,0
229.69228,230.42398,62,34,0
229.69228,230.42398,59,34,0
229.69228,230.42398,67,40,0
230.42398,231.12512,86,43,0
231.12512,231.85683,62,32,0
231.12512,231.85683,59,32,0
231.12512,231.85683,67,38,0
231.85683,232.53479,86,39,0
232.53479,233.24486,62,32,0
232.53479,233.24486,59,32,0
232.53479,233.24486,67,38,0
233.24486,233.93745,86,39,0
233.93745,234.65318,62,39,0
233.93745,234.65318,59,33,0
234.65318,235.20638,86,42,0
235.20638,235.38797,62,46,0
235.38797,235.74478,67,51,0
235.38797,235.74478,59,43,0
235.74478,236.08311,67,44,0
236.08311,236.24663,67,50,0
236.08311,236.24663,59,42,0
236.24663,236.41388,69,40,0
236.41388,236.57741,71,45,0
236.57741,236.71547,72,40,0
236.08311,236.76567,86,47,0
236.72264,236.80957,72,44,0
236.76567,237.1168,71,51,0
236.76567,237.1168,62,43,0
237.1168,237.2878,69,39,0
237.2878,237.4588,71,38,0
237.4588,237.98549,67,45,0
237.4588,237.98549,59,38,0
237.98549,238.16104,64,47,0
237.4588,238.16104,86,45,0
238.16104,238.51785,69,51,0
238.16104,238.51785,60,43,0
238.51785,238.84752,69,45,0
238.84752,239.01013,69,50,0
238.84752,239.01013,60,42,0
239.01013,239.17834,71,40,0
239.17834,239.33963,72,45,0
239.33963,239.47769,74,40,0
238.84752,239.52791,86,47,0
239.48486,239.5718,74,44,0
239.52791,239.87903,72,51,0
239.52791,239.87903,64,43,0
239.87903,240.0457,71,41,0
240.0457,240.21236,72,38,0
240.21236,240.73904,69,45,0
240.21236,240.73904,60,38,0
240.73904,240.91461,67,47,0
240.21236,240.91461,86,45,0
240.91461,241.27141,66,51,0
240.91461,241.27141,57,43,0
241.27141,241.57265,66,48,0
241.57265,241.61568,67,42,0
241.27141,241.61568,60,38,0
241.61568,241.78583,66,50,0
241.61568,241.78583,57,42,0
241.78583,241.95598,62,40,0
241.95598,242.12811,64,45,0
241.95598,242.12811,60,41,0
242.12811,242.31639,66,40,0
241.61568,242.31639,86,47,0
242.31639,243.0257,67,51,0
242.31639,243.0257,59,43,0
243.5421,243.71837,62,41,0
243.0257,243.71837,86,47,0
243.71837,244.07516,59,43,0
243.71837,244.07516,67,51,0
244.07516,244.4135,67,44,0
244.4135,244.57703,67,50,0
244.4135,244.57703,59,42,0
244.57703,244.74426,69,40,0
244.74426,244.90779,71,45,0
244.90779,245.04585,72,40,0
244.4135,245.09607,77,44,0
245.05304,245.13995,72,44,0
245.09607,245.44719,62,43,0
245.09607,245.44719,71,51,0
245.44719,245.6182,69,41,0
245.6182,245.78918,71,38,0
245.78918,246.30864,67,45,0
245.78918,246.30864,59,38,0
246.30864,246.48178,64,47,0
245.78918,246.48178,77,42,0
246.48178,246.82407,60,43,0
246.48178,246.82407,69,51,0
246.82407,247.1624,69,45,0
247.1624,247.32501,69,51,0
247.1624,247.32501,60,44,0
247.32501,247.49321,71,42,0
247.49321,247.65765,72,48,0
247.65765,247.79572,74,43,0
247.1624,247.84592,76,46,0
247.80289,247.8892,74,47,0
247.84592,248.19223,64,46,0
247.84592,248.19223,72,55,0
248.19223,248.35852,71,45,0
248.35852,248.52481,72,41,0
248.52481,249.04265,69,51,0
248.52481,249.04265,60,42,0
249.04265,249.21379,67,50,0
248.52481,249.21379,76,47,0
249.21379,249.56421,64,46,0
249.21379,249.56421,72,55,0
249.56421,249.90254,72,49,0
249.90254,250.06517,72,56,0
249.90254,250.06517,64,47,0
250.06517,250.23337,74,45,0
250.23337,250.3978,76,52,0
250.3978,250.53587,78,46,0
249.90254,250.58607,81,53,0
250.54305,250.62798,78,50,0
250.58607,250.92128,67,49,0
250.58607,250.92128,76,58,0
250.92128,251.08664,74,48,0
251.08664,251.252,76,44,0
251.252,251.77184,72,54,0
251.252,251.77184,66,44,0
251.77184,251.94397,71,53,0
251.252,251.94397,81,53,0
251.94397,252.29861,71,49,0
251.94397,252.29861,79,58,0
252.29861,252.63695,79,54,0
252.63695,252.79958,79,60,0
252.63695,252.79958,71,52,0
252.79958,252.96777,81,49,0
252.96777,253.13222,83,56,0
253.13222,253.27028,84,49,0
252.63695,253.32048,86,57,0
253.27745,253.36438,84,53,0
253.32048,253.67162,74,53,0
253.32048,253.67162,83,63,0
253.67162,253.8426,81,58,0
253.8426,254.01361,83,55,0
254.01361,254.73396,91,64,0
254.01361,254.73396,79,67,0
254.01361,254.73396,71,55,0
254.73396,254.9061,62,51,0
254.73396,254.9061,57,58,0
254.9061,255.07823,59,49,0
255.07823,255.25037,60,48,0
255.25037,255.42877,62,46,0
255.42877,256.1424,74,55,0
256.1424,256.48523,72,57,0
256.1424,256.48523,64,48,0
256.48523,256.66473,71,51,0
256.48523,256.66473,62,43,0
256.66473,256.8442,72,45,0
256.66473,256.8442,64,37,0
256.8442,257.55353,69,51,0
256.8442,257.55353,60,43,0
257.55353,257.72565,62,51,0
257.55353,257.72565,57,58,0
257.72565,257.8978,59,47,0
257.8978,258.06995,60,48,0
258.06995,258.24832,62,45,0
258.24832,258.96194,74,55,0
258.96194,259.30286,71,57,0
258.96194,259.30286,62,48,0
259.30286,259.48233,69,51,0
259.30286,259.48233,60,43,0
259.48233,259.66183,71,45,0
259.48233,259.66183,62,37,0
259.66183,260.35355,67,51,0
259.66183,260.35355,59,43,0
260.35355,260.5257,62,51,0
260.35355,260.5257,57,58,0
260.5257,260.69785,59,46,0
260.69785,260.86996,60,48,0
260.86996,261.04837,62,46,0
261.04837,261.76196,74,55,0
261.76196,262.10483,72,57,0
261.76196,262.10483,64,48,0
262.10483,262.28433,71,51,0
262.10483,262.28433,62,43,0
262.28433,262.4638,72,45,0
262.28433,262.4638,64,37,0
262.4638,263.1756,69,51,0
262.4638,263.1756,60,43,0
263.1756,263.34775,62,48,0
263.1756,263.34775,57,55,0
263.34775,263.5199,59,43,0
263.5199,263.69202,60,45,0
263.69202,263.87042,62,43,0
263.87042,264.584,74,52,0
264.584,264.93445,71,54,0
264.584,264.93445,62,45,0
264.93445,265.11395,69,48,0
264.93445,265.11395,60,40,0
265.11395,265.29343,71,42,0
265.11395,265.29343,62,35,0
265.29343,265.6481,67,48,0
265.29343,265.6481,59,40,0
265.6481,266.0183,71,40,0
265.6481,266.0183,62,34,0
266.0183,266.3957,69,46,0
266.0183,266.3957,60,39,0
266.3957,266.79303,67,43,0
266.3957,266.79303,59,36,0
266.79303,267.5203,67,48,0
266.79303,267.5203,59,40,0
266.79303,267.5203,79,48,0
267.5203,268.2703,62,40,0
267.5203,268.2703,59,34,0
268.2703,269.002,79,48,0
269.002,269.7249,62,39,0
269.002,269.7249,59,33,0
269.7249,271.21213,79,48,0
271.21213,271.42242,78,45,0
271.39212,271.60593,76,41,0
271.57504,271.79187,74,44,0
271.76062,271.98117,72,36,0
271.9493,272.71365,71,47,0
272.71365,273.47797,69,41,0
272.71365,273.47797,66,34,0
272.71365,273.47797,60,34,0
273.47797,274.2097,62,36,0
273.47797,274.2097,59,30,0
273.47797,274.2097,67,36,0
274.2097,274.91083,86,43,0
274.91083,275.64252,62,36,0
274.91083,275.64252,59,31,0
275.64252,276.3205,86,41,0
276.3205,277.05222,62,36,0
276.3205,277.05222,59,31,0
277.05222,277.7448,86,42,0
277.7448,278.46054,62,36,0
277.7448,278.46054,59,30,0
278.46054,279.19882,86,41,0
279.19882,280.78824,62,32,0
279.19882,280.78824,59,27,0
280.78824,282.37762,86,36,0
0.0,1.432849,50,52,0
0.0,1.432849,43,44,0
1.432849,2.842522,43,38,0
1.432849,2.842522,50,44,0
2.842522,4.241005,43,29,0
2.842522,4.241005,50,36,0
4.241005,5.691529,50,30,0
4.241005,5.691529,43,25,0
5.691529,7.0692306,50,34,0
5.691529,7.0692306,43,28,0
7.0692306,8.464599,50,36,0
7.0692306,8.464599,43,30,0
8.464599,9.834604,50,34,0
8.464599,9.834604,43,28,0
9.834604,11.229972,50,36,0
9.834604,11.229972,43,30,0
11.229972,12.631752,50,34,0
11.229972,12.631752,43,28,0
12.631752,14.0473175,50,34,0
12.631752,14.0473175,43,28,0
14.0473175,15.424115,50,32,0
14.0473175,15.424115,43,27,0
15.424115,16.819483,50,34,0
15.424115,16.819483,43,28,0
16.819483,18.19628,43,27,0
16.819483,18.19628,50,32,0
18.19628,19.609756,43,28,0
18.19628,19.609756,50,34,0
19.609756,21.011538,50,32,0
19.609756,21.011538,43,27,0
21.011538,22.419556,50,32,0
21.011538,22.419556,43,27,0
22.419556,23.797256,50,34,0
22.419556,23.797256,43,28,0
23.797256,25.18298,50,36,0
23.797256,25.18298,43,30,0
25.18298,26.538452,43,28,0
25.18298,26.538452,52,34,0
26.538452,27.890144,52,38,0
26.538452,27.890144,43,32,0
27.890144,29.253775,43,35,0
27.890144,29.253775,50,42,0
29.253775,30.618742,50,46,0
29.253775,30.618742,43,38,0
30.618742,31.984795,43,44,0
30.618742,31.984795,50,53,0
31.984795,33.39827,50,55,0
31.984795,33.39827,43,46,0
33.39827,34.759228,50,46,0
33.39827,34.759228,43,37,0
34.759228,36.14003,50,48,0
34.759228,36.14003,43,40,0
36.14003,37.487316,43,37,0
36.14003,37.487316,52,46,0
37.487316,38.85518,52,52,0
37.487316,38.85518,43,43,0
38.85518,40.221764,43,40,0
38.85518,40.221764,50,48,0
40.221764,41.586727,50,53,0
40.221764,41.586727,43,44,0
41.586727,42.963245,43,45,0
41.586727,42.963245,50,54,0
42.963245,44.376724,50,55,0
42.963245,44.376724,43,48,0
44.376724,45.78514,50,47,0
44.376724,45.78514,43,39,0
45.78514,46.128,43,47,0
46.128,46.307487,43,40,0
46.307487,46.486977,50,40,0
46.486977,46.84163,43,47,0
46.84163,47.19628,38,41,0
47.19628,48.6047,50,47,0
47.19628,48.6047,43,39,0
48.6047,48.94561,43,47,0
48.94561,49.1251,43,40,0
49.1251,49.30459,50,40,0
49.30459,49.65924,55,47,0
49.30459,49.65924,43,40,0
49.65924,50.013893,38,39,0
50.013893,51.42231,50,38,0
50.013893,51.42231,43,32,0
51.42231,51.765167,43,38,0
51.765167,51.944656,43,33,0
51.944656,52.12415,50,33,0
52.12415,52.4788,43,38,0
52.4788,52.817783,38,33,0
52.817783,54.2262,50,36,0
52.817783,54.2262,43,30,0
54.2262,54.57663,43,36,0
54.57663,54.75612,43,31,0
54.75612,54.935608,50,31,0
54.935608,55.29026,43,31,0
55.29026,55.660492,38,29,0
55.660492,57.1714,50,36,0
55.660492,57.1714,43,30,0
57.1714,58.653107,50,28,0
57.1714,58.653107,43,24,0
60.148796,60.87169,62,39,0
58.653107,60.87169,43,24,0
58.653107,60.87169,50,28,0
60.148796,60.87169,59,33,0
62.373203,63.137535,38,24,0
63.137535,64.57038,50,31,0
63.137535,64.57038,43,26,0
64.57038,65.98006,50,27,0
64.57038,65.98006,43,22,0
65.98006,67.38272,50,28,0
65.98006,67.38272,43,23,0
67.38272,68.833244,50,26,0
67.38272,68.833244,43,22,0
68.833244,70.210945,43,28,0
68.833244,70.210945,50,34,0
70.210945,71.60631,50,36,0
70.210945,71.60631,43,30,0
71.60631,72.97317,50,34,0
71.60631,72.97317,43,28,0
72.97317,74.35987,50,36,0
72.97317,74.35987,43,30,0
74.35987,75.76165,50,34,0
74.35987,75.76165,43,28,0
75.76165,77.16363,50,34,0
75.76165,77.16363,43,28,0
77.16363,78.541336,50,34,0
77.16363,78.541336,43,28,0
78.541336,79.927055,50,36,0
78.541336,79.927055,43,30,0
79.927055,81.29119,43,28,0
79.927055,81.29119,52,34,0
81.29119,82.65905,52,39,0
81.29119,82.65905,43,32,0
82.65905,84.03134,43,31,0
82.65905,84.03134,50,37,0
84.03134,85.38924,50,41,0
84.03134,85.38924,43,34,0
85.38924,86.765755,43,35,0
85.38924,86.765755,50,42,0
86.765755,88.17923,50,43,0
86.765755,88.17923,43,37,0
88.17923,89.58765,50,38,0
88.17923,89.58765,43,32,0
89.58765,89.930504,43,38,0
89.930504,90.10999,43,33,0
90.10999,90.28948,50,33,0
90.28948,90.644135,43,38,0
90.644135,90.99879,38,34,0
90.99879,92.4072,50,38,0
90.99879,92.4072,43,32,0
92.4072,92.748116,43,38,0
92.748116,92.927605,43,33,0
92.927605,93.10709,50,33,0
93.10709,93.46175,43,33,0
93.46175,93.79883,38,32,0
93.79883,95.207245,50,38,0
93.79883,95.207245,43,32,0
95.207245,95.5501,43,38,0
95.5501,95.72959,43,33,0
95.72959,95.90908,50,33,0
95.90908,96.26373,43,38,0
96.26373,96.62087,38,33,0
96.62087,98.0293,50,36,0
96.62087,98.0293,43,30,0
98.0293,98.37972,43,36,0
98.37972,98.55921,43,31,0
98.55921,98.7387,50,31,0
98.7387,99.09335,43,31,0
99.09335,99.463585,38,29,0
99.463585,100.96557,50,36,0
99.463585,100.96557,43,30,0
100.96557,102.44727,50,28,0
100.96557,102.44727,43,24,0
103.9345,104.65739,62,39,0
102.44727,104.65739,43,24,0
102.44727,104.65739,50,28,0
103.9345,104.65739,59,33,0
106.158905,106.92324,38,24,0
106.92324,108.35609,50,31,0
106.92324,108.35609,43,26,0
108.35609,109.76576,50,32,0
108.35609,109.76576,43,22,0
109.76576,111.19007,50,30,0
109.76576,111.19007,43,25,0
111.19007,112.66034,50,31,0
111.19007,112.66034,43,22,0
112.66034,114.093185,50,31,0
112.66034,114.093185,43,26,0
114.093185,115.50286,50,31,0
114.093185,115.50286,43,21,0
115.50286,116.940445,50,25,0
115.50286,116.940445,43,21,0
116.940445,118.524864,50,24,0
116.940445,118.524864,43,20,0
120.0326,120.40996,55,40,0
120.40996,120.77805,57,39,0
121.57208,121.98304,58,34,0
121.57208,121.98304,62,40,0
121.98304,122.40857,60,36,0
121.98304,122.40857,53,30,0
122.40857,123.29746,60,40,0
122.40857,123.29746,53,34,0
123.29746,124.18635,53,36,0
123.29746,124.18635,46,29,0
128.07169,128.47984,58,34,0
128.07169,128.47984,62,40,0
128.47984,128.90538,61,39,0
128.47984,128.90538,57,33,0
128.90538,129.79427,61,44,0
128.90538,129.79427,57,37,0
129.79427,130.68315,57,39,0
129.79427,130.68315,50,31,0
134.62889,135.03157,58,53,0
135.03157,135.4541,57,53,0
135.4541,135.86507,55,49,0
135.86507,136.27602,53,46,0
136.27602,137.09795,51,53,0
137.09795,137.8823,45,41,0
137.8823,138.68228,46,49,0
138.68228,139.09325,51,46,0
139.09325,139.52182,45,41,0
139.52182,140.34373,46,49,0
140.34373,140.7547,48,48,0
140.7547,141.16565,46,42,0
141.16565,141.5882,48,49,0
141.5882,142.01073,51,38,0
142.01073,143.07732,38,46,0
143.07732,144.1217,31,40,0
146.4746,146.85196,55,35,0
146.85196,147.22005,57,35,0
148.01408,148.42503,58,29,0
148.01408,148.42503,62,35,0
148.42503,148.85057,60,31,0
148.42503,148.85057,53,26,0
148.85057,149.7298,60,35,0
148.85057,149.7298,53,29,0
149.7298,150.61707,53,29,0
149.7298,150.61707,46,23,0
154.49783,154.90599,58,29,0
154.49783,154.90599,62,35,0
154.90599,155.33153,61,34,0
154.90599,155.33153,57,28,0
155.33153,156.18413,61,38,0
155.33153,156.18413,57,32,0
155.33153,156.18413,67,38,0
156.18413,157.07303,57,30,0
156.18413,157.07303,50,24,0
161.02887,161.43156,58,46,0
161.43156,161.8541,57,46,0
161.8541,162.26506,55,41,0
162.26506,162.7095,53,40,0
162.7095,163.54283,52,46,0
162.7095,163.54283,58,46,0
163.54283,164.3456,57,36,0
163.54283,164.3456,51,36,0
164.3456,164.74559,56,42,0
164.3456,164.74559,50,36,0
164.74559,165.14558,55,39,0
164.74559,165.14558,51,33,0
165.14558,165.55655,54,39,0
165.14558,165.55655,50,33,0
165.55655,165.98512,55,36,0
165.55655,165.98512,46,30,0
165.98512,166.80704,55,42,0
165.98512,166.80704,48,36,0
166.80704,167.62895,55,41,0
166.80704,167.62895,46,33,0
167.62895,168.0515,48,42,0
168.0515,168.49594,51,33,0
168.49594,169.54436,38,39,0
169.54436,170.82095,31,35,0
172.23543,173.61765,50,30,0
172.23543,173.61765,43,25,0
173.61765,175.01302,50,32,0
173.61765,175.01302,43,27,0
175.01302,176.38303,50,30,0
175.01302,176.38303,43,25,0
176.38303,177.79047,50,32,0
176.38303,177.79047,43,27,0
177.79047,179.19225,50,30,0
177.79047,179.19225,43,25,0
179.19225,180.6078,50,30,0
179.19225,180.6078,43,25,0
180.6078,181.9846,50,32,0
180.6078,181.9846,43,27,0
181.9846,183.37997,50,34,0
181.9846,183.37997,43,28,0
183.37997,184.75677,43,27,0
183.37997,184.75677,50,32,0
184.75677,186.17026,43,28,0
184.75677,186.17026,50,34,0
186.17026,187.57204,50,32,0
186.17026,187.57204,43,27,0
187.57204,188.98004,50,32,0
187.57204,188.98004,43,27,0
188.98004,190.35776,50,34,0
188.98004,190.35776,43,28,0
190.35776,191.74347,50,36,0
190.35776,191.74347,43,30,0
191.74347,193.09894,43,28,0
191.74347,193.09894,52,34,0
193.09894,194.45064,52,38,0
193.09894,194.45064,43,32,0
194.45064,195.81427,43,35,0
194.45064,195.81427,50,42,0
195.81427,197.17923,50,46,0
195.81427,197.17923,43,38,0
197.17923,198.54529,43,44,0
197.17923,198.54529,50,53,0
198.54529,199.95877,50,55,0
198.54529,199.95877,43,46,0
199.95877,201.32135,50,46,0
199.95877,201.32135,43,37,0
201.32135,202.70215,50,48,0
201.32135,202.70215,43,40,0
202.70215,204.05026,43,37,0
202.70215,204.05026,52,46,0
204.05026,205.41812,52,52,0
204.05026,205.41812,43,43,0
205.41812,206.78386,43,40,0
205.41812,206.78386,50,48,0
206.78386,208.14883,50,53,0
206.78386,208.14883,43,44,0
208.14883,209.51797,43,45,0
208.14883,209.51797,50,54,0
209.51797,210.93146,50,55,0
209.51797,210.93146,43,48,0
210.93146,212.33987,50,47,0
210.93146,212.33987,43,39,0
212.33987,212.68274,43,47,0
212.68274,212.86223,43,40,0
212.86223,213.04172,50,40,0
213.04172,213.39636,43,47,0
213.39636,213.75102,38,41,0
213.75102,215.15944,50,47,0
213.75102,215.15944,43,39,0
215.15944,215.50034,43,47,0
215.50034,215.67984,43,40,0
215.67984,215.85933,50,40,0
215.85933,216.21397,55,47,0
215.85933,216.21397,43,40,0
216.21397,216.56863,38,39,0
216.56863,217.97705,50,38,0
216.56863,217.97705,43,32,0
217.97705,218.3199,43,38,0
218.3199,218.49939,43,33,0
218.49939,218.67888,50,33,0
218.67888,219.03354,43,38,0
219.03354,219.37251,38,33,0
219.37251,220.78093,50,36,0
219.37251,220.78093,43,30,0
220.78093,221.13136,43,36,0
221.13136,221.31085,43,31,0
221.31085,221.49034,50,31,0
221.49034,221.845,43,31,0
221.845,222.21523,38,29,0
222.21523,223.72614,50,36,0
222.21523,223.72614,43,30,0
223.72614,225.20784,50,28,0
223.72614,225.20784,43,24,0
226.70354,227.42642,62,39,0
225.20784,227.42642,43,24,0
225.20784,227.42642,50,28,0
226.70354,227.42642,59,33,0
228.92793,229.69228,38,24,0
229.69228,231.12512,50,31,0
229.69228,231.12512,43,26,0
231.12512,232.53479,50,27,0
231.12512,232.53479,43,22,0
232.53479,233.93745,50,28,0
232.53479,233.93745,43,23,0
233.93745,235.38797,50,26,0
233.93745,235.38797,43,22,0
235.38797,236.76567,43,28,0
235.38797,236.76567,50,34,0
236.76567,238.16104,50,36,0
236.76567,238.16104,43,30,0
238.16104,239.52791,50,34,0
238.16104,239.52791,43,28,0
239.52791,240.91461,50,36,0
239.52791,240.91461,43,30,0
240.91461,242.31639,50,34,0
240.91461,242.31639,43,28,0
242.31639,243.71837,50,34,0
242.31639,243.71837,43,28,0
243.71837,245.09607,50,34,0
243.71837,245.09607,43,28,0
245.09607,246.48178,50,36,0
245.09607,246.48178,43,30,0
246.48178,247.84592,43,28,0
246.48178,247.84592,52,34,0
247.84592,249.21379,52,39,0
247.84592,249.21379,43,32,0
249.21379,250.58607,43,31,0
249.21379,250.58607,50,37,0
250.58607,251.94397,50,41,0
250.58607,251.94397,43,34,0
251.94397,253.32048,43,35,0
251.94397,253.32048,50,42,0
253.32048,254.73396,50,43,0
253.32048,254.73396,43,37,0
254.73396,256.1424,50,38,0
254.73396,256.1424,43,32,0
256.1424,256.48523,43,38,0
256.48523,256.66473,43,33,0
256.66473,256.8442,50,33,0
256.8442,257.19888,43,38,0
257.19888,257.55353,38,34,0
257.55353,258.96194,50,38,0
257.55353,258.96194,43,32,0
258.96194,259.30286,43,38,0
259.30286,259.48233,43,33,0
259.48233,259.66183,50,33,0
259.66183,260.01648,43,33,0
260.01648,260.35355,38,32,0
260.35355,261.76196,50,38,0
260.35355,261.76196,43,32,0
261.76196,262.10483,43,38,0
262.10483,262.28433,43,33,0
262.28433,262.4638,50,33,0
262.4638,262.81848,43,38,0
262.81848,263.1756,38,33,0
263.1756,264.584,50,36,0
263.1756,264.584,43,30,0
264.584,264.93445,43,36,0
264.93445,265.11395,43,31,0
265.11395,265.29343,50,31,0
265.29343,265.6481,43,31,0
265.6481,266.0183,38,29,0
266.0183,267.5203,50,36,0
266.0183,267.5203,43,30,0
267.5203,269.002,50,28,0
267.5203,269.002,43,24,0
270.48923,271.21213,62,39,0
269.002,271.21213,43,24,0
269.002,271.21213,50,28,0
270.48923,271.21213,59,33,0
272.71365,273.47797,38,24,0
273.47797,274.91083,50,27,0
273.47797,274.91083,43,23,0
274.91083,276.3205,50,28,0
274.91083,276.3205,43,19,0
276.3205,277.7448,50,27,0
276.3205,277.7448,43,22,0
277.7448,279.19882,50,27,0
277.7448,279.19882,43,19,0
279.19882,282.37762,50,24,0
279.19882,282.37762,43,17,0
