start_time,end_time,note_value,velocity,instrument_program_number
0.0,0.3,62,82,0
0.3,0.374074,64,78,0
0.448148,0.522222,62,75,0
0.596296,0.6696457,61,79,0
0.7429955,0.8163453,62,73,0
0.889695,0.9670145,64,81,0
1.198973,1.2755077,67,75,0
1.5039344,1.5810552,66,73,0
1.8124174,2.0749173,62,82,0
2.0749173,2.1124175,66,71,0
2.1124175,2.1861274,64,75,0
2.2598374,2.3335474,62,73,0
2.4072573,2.4804282,61,77,0
2.5535989,2.6267698,62,71,0
2.6999404,2.7772598,64,80,0
3.0092185,3.0853608,67,74,0
3.3137875,3.3905137,66,73,0
3.6206925,3.9206924,62,80,0
3.9206924,4.0684757,64,73,0
4.0684757,4.2162595,66,74,0
4.2162595,4.362601,69,77,0
4.362601,4.5089426,72,78,0
4.5089426,4.8052382,76,79,0
4.8052382,5.1015344,79,78,0
5.1015344,5.4061036,78,78,0
5.4061036,5.7038703,78,79,0
5.4061036,5.7038703,66,60,0
5.4061036,5.7038703,62,60,0
5.7038703,5.8523855,67,57,0
5.7038703,5.8523855,79,72,0
5.8523855,6.0009003,78,72,0
5.8523855,6.0009003,66,57,0
6.0009003,6.1509004,64,56,0
6.0009003,6.1509004,76,71,0
6.1509004,6.3009005,74,71,0
6.1509004,6.3009005,62,56,0
6.3009005,6.565384,73,77,0
6.3009005,6.565384,67,70,0
6.565384,6.6031675,74,64,0
6.6031675,6.7513156,73,73,0
6.7513156,6.8994637,69,67,0
6.8994637,7.0494633,71,72,0
7.0494633,7.1994634,73,69,0
7.1994634,7.5048075,74,74,0
7.1994634,7.5048075,66,74,0
7.5048075,7.5788813,64,78,0
7.6529555,7.7270293,62,75,0
7.8011036,7.874633,61,79,0
7.9481626,8.021692,62,73,0
8.0952215,8.173143,64,81,0
8.406909,8.483051,67,74,0
8.711478,8.788402,66,73,0
9.019171,9.281671,62,82,0
9.281671,9.31917,66,71,0
9.31917,9.39288,64,75,0
9.466591,9.5403,62,73,0
9.614011,9.687181,61,77,0
9.760352,9.833523,62,71,0
9.906693,9.984414,64,80,0
10.217574,10.29391,67,74,0
10.522919,10.598867,66,73,0
10.826715,11.126716,62,80,0
11.126716,11.274136,64,73,0
11.274136,11.4215555,66,74,0
11.4215555,11.567186,69,77,0
11.567186,11.712817,72,78,0
11.712817,12.009113,76,79,0
12.009113,12.305409,79,78,0
12.305409,12.609979,78,78,0
12.609979,12.907745,66,60,0
12.609979,12.907745,78,79,0
12.609979,12.907745,62,60,0
12.907745,13.05626,79,72,0
12.907745,13.05626,67,57,0
13.05626,13.204776,78,72,0
13.05626,13.204776,66,57,0
13.204776,13.354775,64,56,0
13.204776,13.354775,76,71,0
13.354775,13.504775,74,71,0
13.354775,13.504775,62,56,0
13.504775,13.769259,67,70,0
13.504775,13.769259,73,77,0
13.769259,13.807042,74,64,0
13.807042,13.955191,73,73,0
13.955191,14.103338,69,67,0
14.103338,14.253339,71,72,0
14.253339,14.403338,73,69,0
14.403338,14.669836,74,74,0
14.403338,14.669836,66,74,0
14.669836,14.707908,64,73,0
14.707908,14.781981,62,78,0
14.856055,14.930129,61,75,0
15.004204,15.078278,62,79,0
15.300499,15.3755,62,74,0
15.600499,15.674573,69,78,0
15.748648,15.8227215,66,75,0
15.896795,15.971795,62,79,0
16.159296,16.196795,76,64,0
16.196795,16.271795,74,55,0
16.196795,16.271795,86,64,0
16.346796,16.421795,85,60,0
16.346796,16.421795,73,50,0
16.496796,16.572363,74,53,0
16.496796,16.572363,86,63,0
16.799063,16.874062,86,62,0
16.799063,16.874062,74,52,0
16.949062,17.024063,85,59,0
16.949062,17.024063,73,49,0
17.099062,17.174063,86,62,0
17.099062,17.174063,74,52,0
17.399063,17.549063,83,59,0
17.549063,17.699062,79,56,0
17.699062,17.930424,74,59,0
18.007545,18.159445,74,59,0
18.159445,18.31329,76,59,0
18.31329,18.536615,77,63,0
18.536615,18.573835,76,52,0
18.573835,18.611057,77,49,0
18.611057,18.76219,76,59,0
18.76219,18.913324,74,59,0
18.913324,18.990248,72,58,0
19.221016,19.37177,81,63,0
19.37177,19.522524,78,57,0
19.522524,19.599054,72,59,0
19.828646,19.905176,70,59,0
20.134768,20.285902,79,63,0
20.285902,20.437035,74,57,0
20.437035,20.51337,70,59,0
20.742378,21.666384,69,59,0
21.666384,21.93288,74,74,0
21.666384,21.93288,66,74,0
21.93288,21.970951,64,73,0
21.970951,22.045027,62,78,0
22.1191,22.193174,61,75,0
22.267248,22.341322,62,79,0
22.563543,22.638544,62,74,0
22.863544,22.937618,69,78,0
23.011692,23.085766,66,75,0
23.15984,23.23484,62,79,0
23.42234,23.45984,76,64,0
23.45984,23.53484,74,55,0
23.45984,23.53484,86,64,0
23.60984,23.68484,85,60,0
23.60984,23.68484,73,50,0
23.75984,23.835407,86,63,0
23.75984,23.835407,74,53,0
24.062107,24.137108,74,52,0
24.062107,24.137108,86,62,0
24.212107,24.287107,85,59,0
24.212107,24.287107,73,49,0
24.362106,24.437107,74,52,0
24.362106,24.437107,86,62,0
24.662107,24.812107,83,59,0
24.812107,24.962107,79,56,0
24.962107,25.19347,74,59,0
25.27059,25.42249,74,59,0
25.42249,25.576334,76,59,0
25.576334,25.799107,77,63,0
25.799107,25.836235,76,52,0
25.836235,25.873363,77,49,0
25.873363,26.024118,76,59,0
26.024118,26.174873,74,59,0
26.174873,26.251795,72,58,0
26.482565,26.633318,81,63,0
26.633318,26.784073,78,57,0
26.784073,26.860603,72,59,0
27.090195,27.166725,70,59,0
27.396317,27.54745,79,63,0
27.54745,27.698584,74,57,0
27.698584,27.77492,70,59,0
28.003927,28.922346,69,59,0
32.677864,32.82786,62,59,0
32.940365,32.977863,66,49,0
32.977863,33.12601,64,55,0
33.12601,33.27416,62,53,0
33.27416,33.42086,61,56,0
33.42086,33.59733,62,51,0
33.59733,33.675453,64,58,0
33.90983,33.985973,67,53,0
33.90983,33.985973,55,49,0
33.90983,33.985973,59,49,0
33.90983,33.985973,64,49,0
34.214397,34.293552,66,51,0
34.214397,34.293552,54,42,0
34.214397,34.293552,61,42,0
34.214397,34.293552,64,42,0
34.53102,34.609352,62,58,0
34.844337,34.920288,66,55,0
34.844337,34.920288,54,46,0
34.844337,34.920288,59,46,0
34.844337,34.920288,62,46,0
35.148136,35.225056,64,51,0
35.148136,35.225056,62,42,0
35.148136,35.225056,59,42,0
35.455826,35.605827,61,59,0
35.718327,35.755825,62,49,0
35.755825,35.903973,61,55,0
35.903973,36.052124,59,53,0
36.052124,36.198822,61,56,0
36.36353,36.513527,62,59,0
36.626026,36.66353,66,49,0
36.66353,36.811676,64,55,0
36.811676,36.959824,62,53,0
36.959824,37.10652,61,56,0
37.10652,37.282993,62,51,0
37.282993,37.36112,64,58,0
37.595493,37.671635,67,53,0
37.595493,37.671635,55,49,0
37.595493,37.671635,59,49,0
37.595493,37.671635,64,49,0
37.900063,37.978874,66,51,0
37.900063,37.978874,54,42,0
37.900063,37.978874,61,42,0
37.900063,37.978874,64,42,0
38.225945,38.30407,59,58,0
38.225945,38.30407,62,58,0
38.538445,38.61802,59,46,0
38.538445,38.61802,62,55,0
38.697598,38.777172,64,50,0
38.856747,38.93805,57,59,0
39.01935,39.10065,55,52,0
38.856747,39.18195,61,59,0
39.18195,39.34724,62,64,0
39.512527,39.67782,66,64,0
39.512527,39.67782,74,77,0
40.173687,40.32369,62,59,0
40.436188,40.473686,66,49,0
40.473686,40.621834,64,55,0
40.621834,40.76998,62,53,0
40.76998,40.916683,61,56,0
40.916683,41.093155,62,51,0
41.093155,41.17128,64,58,0
41.405655,41.481796,67,53,0
41.405655,41.481796,55,49,0
41.405655,41.481796,59,49,0
41.405655,41.481796,64,49,0
41.71022,41.79001,66,51,0
41.71022,41.79001,54,42,0
41.71022,41.79001,61,42,0
41.71022,41.79001,64,42,0
42.02937,42.10689,62,58,0
42.33945,42.415398,66,55,0
42.33945,42.415398,54,46,0
42.33945,42.415398,59,46,0
42.33945,42.415398,62,46,0
42.643246,42.72017,64,51,0
42.643246,42.72017,62,42,0
42.643246,42.72017,59,42,0
42.95094,43.100937,61,59,0
43.21344,43.25094,62,49,0
43.25094,43.399086,61,55,0
43.399086,43.547234,59,53,0
43.547234,43.693935,61,56,0
43.85864,44.00864,62,59,0
44.12114,44.158638,66,49,0
44.158638,44.306786,64,55,0
44.306786,44.454937,62,53,0
44.454937,44.601635,61,56,0
44.601635,44.778107,62,51,0
44.778107,44.85623,64,58,0
45.090607,45.166748,67,53,0
45.090607,45.166748,55,49,0
45.090607,45.166748,59,49,0
45.090607,45.166748,64,49,0
45.395176,45.473984,66,51,0
45.395176,45.473984,54,42,0
45.395176,45.473984,61,42,0
45.395176,45.473984,64,42,0
45.721058,45.799183,59,58,0
45.721058,45.799183,62,58,0
46.033558,46.113132,59,46,0
46.033558,46.113132,62,55,0
46.192707,46.27228,64,50,0
46.35186,46.43473,57,59,0
46.517605,46.60048,55,52,0
46.35186,46.68335,61,59,0
46.68335,46.85332,62,64,0
47.023293,47.188583,66,64,0
47.023293,47.188583,74,77,0
47.684452,47.985203,81,67,0
47.985203,48.134457,83,59,0
48.134457,48.28371,81,55,0
48.28371,48.432964,79,57,0
48.432964,48.591274,81,53,0
48.591274,48.898968,83,60,0
48.898968,49.05203,83,59,0
49.05203,49.20509,86,55,0
49.20509,49.52255,83,58,0
47.684452,49.52255,74,57,0
49.52255,49.823303,81,67,0
49.823303,49.972557,83,59,0
49.972557,50.121807,81,55,0
50.121807,50.274094,79,57,0
50.274094,50.432404,78,53,0
49.52255,50.432404,74,57,0
50.432404,50.740097,76,60,0
50.432404,50.740097,73,48,0
50.740097,50.893158,76,57,0
50.740097,50.893158,73,45,0
50.893158,51.04622,74,55,0
50.893158,51.04622,71,44,0
51.04622,51.360355,76,58,0
51.04622,51.360355,73,46,0
51.360355,51.661106,81,67,0
51.661106,51.81036,83,59,0
51.81036,51.959614,81,55,0
51.959614,52.108868,79,57,0
52.108868,52.267178,81,53,0
52.267178,52.57487,83,60,0
52.57487,52.727932,83,59,0
52.727932,52.880993,86,55,0
52.880993,53.20532,83,58,0
51.360355,53.20532,74,57,0
53.20532,53.531975,81,67,0
53.531975,53.703686,83,59,0
53.703686,53.884724,81,55,0
53.884724,54.07616,79,57,0
54.07616,54.27418,78,53,0
53.20532,54.27418,74,57,0
54.27418,55.2344,76,60,0
54.27418,55.2344,73,48,0
54.27418,55.2344,69,48,0
55.2344,55.384403,62,59,0
55.496902,55.5344,66,49,0
55.5344,55.68255,64,55,0
55.68255,55.8307,62,53,0
55.8307,55.977398,61,56,0
55.977398,56.15387,62,51,0
56.15387,56.231995,64,58,0
56.46637,56.54251,67,53,0
56.46637,56.54251,55,49,0
56.46637,56.54251,59,49,0
56.46637,56.54251,64,49,0
56.77094,56.849678,66,51,0
56.77094,56.849678,54,42,0
56.77094,56.849678,61,42,0
56.77094,56.849678,64,42,0
57.0859,57.164227,62,58,0
57.399216,57.475163,66,55,0
57.399216,57.475163,54,46,0
57.399216,57.475163,59,46,0
57.399216,57.475163,62,46,0
57.70301,57.779934,64,51,0
57.70301,57.779934,62,42,0
57.70301,57.779934,59,42,0
58.010704,58.1607,61,59,0
58.273205,58.310703,62,49,0
58.310703,58.45885,61,55,0
58.45885,58.607,59,53,0
58.607,58.7537,61,56,0
58.918404,59.068405,62,59,0
59.180904,59.218403,66,49,0
59.218403,59.366554,64,55,0
59.366554,59.5147,62,53,0
59.5147,59.6614,61,56,0
59.6614,59.83787,62,51,0
59.83787,59.915997,64,58,0
60.15037,60.226513,67,53,0
60.15037,60.226513,55,49,0
60.15037,60.226513,59,49,0
60.15037,60.226513,64,49,0
60.45494,60.53375,66,51,0
60.45494,60.53375,54,42,0
60.45494,60.53375,61,42,0
60.45494,60.53375,64,42,0
60.780823,60.858948,59,58,0
60.780823,60.858948,62,58,0
61.093323,61.172897,59,46,0
61.093323,61.172897,62,55,0
61.252472,61.332047,64,50,0
61.411625,61.494495,57,59,0
61.57737,61.660244,55,52,0
61.411625,61.743114,61,59,0
61.743114,61.908405,62,64,0
62.073696,62.238983,66,64,0
62.073696,62.238983,74,77,0
62.73485,63.06041,78,59,0
63.06041,63.219593,79,52,0
62.897633,63.219593,71,39,0
63.219593,63.37878,78,47,0
63.37878,63.535797,76,50,0
63.219593,63.535797,71,35,0
63.535797,63.6995,78,48,0
63.535797,63.6995,71,35,0
63.6995,64.01964,79,53,0
63.85957,64.17795,71,37,0
64.01964,64.33626,83,52,0
64.17795,64.49285,71,36,0
64.49285,64.649445,71,28,0
64.33626,64.649445,76,51,0
64.649445,64.975,78,59,0
64.975,65.134186,79,52,0
64.812225,65.134186,71,39,0
65.134186,65.29337,78,47,0
65.29337,65.450386,76,50,0
65.134186,65.450386,71,35,0
65.450386,65.61409,78,48,0
65.450386,65.61409,71,35,0
65.77416,65.93423,67,37,0
65.61409,65.93423,79,53,0
65.93423,66.250854,76,52,0
66.09254,66.42014,67,36,0
66.42014,66.58943,64,28,0
66.250854,66.58943,73,51,0
66.58943,67.60517,71,48,0
66.58943,67.60517,62,40,0
67.60517,67.686104,74,52,0
67.686104,67.76689,73,48,0
67.76689,67.84752,74,53,0
67.84752,67.928,73,49,0
67.928,68.008255,74,56,0
68.008255,68.08836,73,50,0
68.08836,68.16833,74,57,0
68.16833,68.24806,73,51,0
68.24806,68.32766,74,57,0
68.32766,68.40725,73,52,0
68.40725,68.48684,71,58,0
68.48684,68.56644,73,51,0
67.60517,68.56644,67,52,0
68.56644,68.88926,74,57,0
68.56644,68.88926,66,57,0
68.88926,69.048004,74,55,0
69.048004,69.20676,76,49,0
69.20676,69.531395,73,52,0
69.20676,69.531395,64,52,0
69.531395,70.49493,71,46,0
69.531395,70.49493,62,46,0
70.49493,70.57586,74,52,0
70.57586,70.65664,73,48,0
70.65664,70.73727,74,53,0
70.73727,70.81775,73,49,0
70.81775,70.89801,74,56,0
70.89801,70.97812,73,50,0
70.97812,71.058075,74,57,0
71.058075,71.13782,73,51,0
71.13782,71.21741,74,57,0
71.21741,71.297,73,52,0
71.297,71.376595,71,58,0
71.376595,71.456184,73,51,0
70.49493,71.456184,67,52,0
71.61942,71.78266,66,57,0
71.456184,71.78266,74,57,0
71.78266,71.94408,74,55,0
71.94408,72.105484,76,49,0
71.94408,72.27349,66,57,0
72.27349,72.44149,64,45,0
72.105484,72.44149,73,52,0
72.78046,73.11896,66,29,0
72.78046,73.11896,62,29,0
73.11896,73.46158,66,27,0
73.11896,73.46158,62,27,0
72.44149,73.46158,71,46,0
73.46158,73.80769,66,26,0
73.46158,73.80769,62,26,0
73.80769,74.15734,66,25,0
73.80769,74.15734,62,25,0
74.15734,74.515144,66,23,0
74.15734,74.515144,62,23,0
74.515144,74.840706,78,59,0
74.840706,74.999886,79,52,0
74.677925,74.999886,71,39,0
74.999886,75.15907,78,47,0
75.15907,75.31609,76,50,0
74.999886,75.31609,71,35,0
75.31609,75.4798,78,48,0
75.31609,75.4798,71,35,0
75.4798,75.802376,79,53,0
75.64108,75.960686,71,37,0
75.802376,76.118996,83,52,0
75.960686,76.27559,71,36,0
76.27559,76.43218,71,28,0
76.118996,76.43218,76,51,0
76.59496,76.75774,71,39,0
76.43218,76.75774,78,59,0
76.75774,76.91692,79,52,0
76.91692,77.07611,78,47,0
77.07611,77.23313,76,50,0
76.91692,77.23313,71,35,0
77.23313,77.39683,78,48,0
77.23313,77.39683,71,35,0
77.39683,77.716965,79,53,0
77.5569,77.875275,67,37,0
77.716965,78.03359,76,52,0
77.875275,78.20288,67,36,0
78.20288,78.37217,64,28,0
78.03359,78.37217,73,51,0
78.37217,79.38792,71,48,0
78.37217,79.38792,62,40,0
79.38792,79.46885,74,52,0
79.46885,79.54963,73,48,0
79.54963,79.63026,74,53,0
79.63026,79.71074,73,49,0
79.71074,79.79099,74,56,0
79.79099,79.8711,73,50,0
79.8711,79.951065,74,57,0
79.951065,80.03081,73,51,0
80.03081,80.1104,74,57,0
80.1104,80.18999,73,52,0
80.18999,80.269585,71,58,0
80.269585,80.349174,73,51,0
79.38792,80.349174,67,52,0
80.349174,80.672,74,57,0
80.349174,80.672,66,57,0
80.672,80.83074,74,55,0
80.83074,80.989494,76,49,0
80.989494,81.31413,73,52,0
80.989494,81.31413,64,52,0
81.31413,82.28716,71,46,0
81.31413,82.28716,62,46,0
82.28716,82.368095,74,52,0
82.368095,82.448875,73,48,0
82.448875,82.52951,74,53,0
82.52951,82.609985,73,49,0
82.609985,82.69025,74,56,0
82.69025,82.770355,73,50,0
82.770355,82.85031,74,57,0
82.85031,82.93005,73,51,0
82.93005,83.00964,74,57,0
83.00964,83.08924,73,52,0
83.08924,83.16883,71,58,0
83.16883,83.24842,73,51,0
82.28716,83.24842,67,52,0
83.41166,83.5749,66,57,0
83.24842,83.5749,74,57,0
83.5749,83.73631,74,55,0
83.73631,83.89773,76,49,0
83.73631,84.06573,66,57,0
84.06573,84.23373,64,45,0
83.89773,84.23373,73,52,0
84.57269,84.9112,66,29,0
84.57269,84.9112,62,29,0
84.9112,85.253815,66,27,0
84.9112,85.253815,62,27,0
84.23373,85.253815,71,46,0
85.253815,85.59993,66,26,0
85.253815,85.59993,62,26,0
85.59993,85.949615,66,25,0
85.59993,85.949615,62,25,0
85.949615,86.32579,66,23,0
85.949615,86.32579,62,23,0
86.32579,86.625786,62,82,0
86.625786,86.69986,64,78,0
86.77393,86.84801,62,75,0
86.92208,86.99543,61,79,0
87.06879,87.142136,62,73,0
87.215485,87.2928,64,81,0
87.52476,87.601295,67,75,0
87.82972,87.906845,66,73,0
88.13821,88.4007,62,82,0
88.4007,88.4382,66,71,0
88.4382,88.51192,64,75,0
88.585625,88.65933,62,73,0
88.73305,88.80621,61,77,0
88.87939,88.95256,62,71,0
89.02573,89.10305,64,80,0
89.33501,89.41115,67,74,0
89.63957,89.7163,66,73,0
89.94648,90.24648,62,80,0
90.24648,90.394264,64,73,0
90.394264,90.542046,66,74,0
90.542046,90.688385,69,77,0
90.688385,90.83473,72,78,0
90.83473,91.13103,76,79,0
91.13103,91.42732,79,78,0
91.42732,91.73189,78,78,0
91.73189,92.029655,78,79,0
91.73189,92.029655,66,60,0
91.73189,92.029655,62,60,0
92.029655,92.17817,79,72,0
92.029655,92.17817,67,57,0
92.17817,92.32669,78,72,0
92.17817,92.32669,66,57,0
92.32669,92.476685,76,71,0
92.32669,92.476685,64,56,0
92.476685,92.626686,74,71,0
92.476685,92.626686,62,56,0
92.626686,92.891174,73,77,0
92.626686,92.891174,67,70,0
92.891174,92.928955,74,64,0
92.928955,93.0771,73,73,0
93.0771,93.22525,69,67,0
93.22525,93.37525,71,72,0
93.37525,93.52525,73,69,0
93.52525,93.8306,74,74,0
93.52525,93.8306,66,74,0
93.8306,93.90467,64,78,0
93.978745,94.05282,62,75,0
94.12689,94.200424,61,79,0
94.27395,94.34748,62,73,0
94.421005,94.49893,64,81,0
94.7327,94.80884,67,74,0
95.03727,95.11419,66,73,0
95.344955,95.60746,62,82,0
95.60746,95.64496,66,71,0
95.64496,95.718666,64,75,0
95.79238,95.86609,62,73,0
95.9398,96.01297,61,77,0
96.086136,96.15931,62,71,0
96.23248,96.3102,64,80,0
96.543365,96.6197,67,74,0
96.84871,96.92465,66,73,0
97.152504,97.4525,62,80,0
97.4525,97.59992,64,73,0
97.59992,97.747345,66,74,0
97.747345,97.892975,69,77,0
97.892975,98.038605,72,78,0
98.038605,98.3349,76,79,0
98.3349,98.631195,79,78,0
98.631195,98.93577,78,78,0
98.93577,99.233536,78,79,0
98.93577,99.233536,66,60,0
98.93577,99.233536,62,60,0
99.233536,99.38205,79,72,0
99.233536,99.38205,67,57,0
99.38205,99.53056,78,72,0
99.38205,99.53056,66,57,0
99.53056,99.680565,76,71,0
99.53056,99.680565,64,56,0
99.680565,99.83057,74,71,0
99.680565,99.83057,62,56,0
99.83057,100.09505,73,77,0
99.83057,100.09505,67,68,0
100.09505,100.13283,74,64,0
100.13283,100.280975,73,73,0
100.280975,100.42912,69,67,0
100.42912,100.579124,71,72,0
100.579124,100.729126,73,69,0
100.729126,100.99562,74,74,0
100.729126,100.99562,66,74,0
100.99562,101.03369,64,73,0
101.03369,101.107765,62,78,0
101.18185,101.25592,61,75,0
101.329994,101.40407,62,79,0
101.62629,101.70129,62,74,0
101.926285,102.00036,69,78,0
102.07443,102.148506,66,75,0
102.22258,102.297585,62,79,0
102.485085,102.52258,76,64,0
102.52258,102.59758,86,64,0
102.52258,102.59758,74,55,0
102.672585,102.74758,85,60,0
102.672585,102.74758,73,50,0
102.822586,102.89815,86,63,0
102.822586,102.89815,74,53,0
103.12485,103.19985,86,62,0
103.12485,103.19985,74,52,0
103.27485,103.34985,85,59,0
103.27485,103.34985,73,49,0
103.42485,103.49985,86,62,0
103.42485,103.49985,74,52,0
103.72485,103.87485,83,59,0
103.87485,104.02485,79,56,0
104.02485,104.25621,74,59,0
104.333336,104.48523,74,59,0
104.48523,104.63908,76,59,0
104.63908,104.862404,77,63,0
104.862404,104.89962,76,52,0
104.89962,104.936844,77,49,0
104.936844,105.087975,76,59,0
105.087975,105.23911,74,59,0
105.23911,105.31603,72,58,0
105.54681,105.697556,81,63,0
105.697556,105.84831,78,57,0
105.84831,105.92484,72,59,0
106.154434,106.230965,70,59,0
106.460556,106.61169,79,63,0
106.61169,106.762825,74,57,0
106.762825,106.83916,70,59,0
107.06817,107.99217,69,59,0
107.99217,108.25867,74,74,0
107.99217,108.25867,66,74,0
108.25867,108.29674,64,73,0
108.29674,108.37081,62,78,0
108.444885,108.51896,61,75,0
108.59303,108.66711,62,79,0
108.88933,108.96433,62,74,0
109.18933,109.263405,69,78,0
109.33748,109.41155,66,75,0
109.48563,109.56063,62,79,0
109.74813,109.78563,76,64,0
109.78563,109.86063,86,64,0
109.78563,109.86063,74,55,0
109.93563,110.01063,85,60,0
109.93563,110.01063,73,50,0
110.085625,110.161194,86,63,0
110.085625,110.161194,74,53,0
110.38789,110.46289,86,62,0
110.38789,110.46289,74,52,0
110.537895,110.61289,85,59,0
110.537895,110.61289,73,49,0
110.6879,110.76289,86,62,0
110.6879,110.76289,74,52,0
110.98789,111.13789,83,59,0
111.13789,111.287895,79,56,0
111.287895,111.51926,74,59,0
111.596375,111.748276,74,59,0
111.748276,111.90212,76,59,0
111.90212,112.12489,77,63,0
112.12489,112.162025,76,52,0
112.162025,112.19915,77,49,0
112.19915,112.34991,76,59,0
112.34991,112.500656,74,59,0
112.500656,112.57758,72,58,0
112.80835,112.95911,81,63,0
112.95911,113.10986,78,57,0
113.10986,113.18639,72,59,0
113.415985,113.492516,70,59,0
113.72211,113.87324,79,63,0
113.87324,114.02437,74,57,0
114.02437,114.10071,70,59,0
114.32971,115.24813,69,59,0
119.003654,119.15365,62,59,0
119.26615,119.30365,66,49,0
119.30365,119.4518,64,55,0
119.4518,119.599945,62,53,0
119.599945,119.74664,61,56,0
119.74664,119.92312,62,51,0
119.92312,120.00124,64,58,0
120.23562,120.31176,67,53,0
120.23562,120.31176,55,49,0
120.23562,120.31176,59,49,0
120.23562,120.31176,64,49,0
120.540184,120.61934,66,51,0
120.540184,120.61934,54,42,0
120.540184,120.61934,61,42,0
120.540184,120.61934,64,42,0
120.85681,120.935135,62,58,0
121.17013,121.24607,66,55,0
121.17013,121.24607,54,46,0
121.17013,121.24607,59,46,0
121.17013,121.24607,62,46,0
121.47392,121.551445,64,51,0
121.47392,121.551445,62,42,0
121.47392,121.551445,59,42,0
121.784,121.934,61,59,0
122.0465,122.084,62,49,0
122.084,122.23215,61,55,0
122.23215,122.380295,59,53,0
122.380295,122.52699,61,56,0
122.6917,122.8417,62,59,0
122.9542,122.9917,66,49,0
122.9917,123.13985,64,55,0
123.13985,123.287994,62,53,0
123.287994,123.4347,61,56,0
123.4347,123.61117,62,51,0
123.61117,123.68929,64,58,0
123.92367,123.99981,67,53,0
123.92367,123.99981,55,49,0
123.92367,123.99981,59,49,0
123.92367,123.99981,64,49,0
124.22823,124.307045,66,51,0
124.22823,124.307045,54,42,0
124.22823,124.307045,61,42,0
124.22823,124.307045,64,42,0
124.554115,124.63224,59,58,0
124.554115,124.63224,62,58,0
124.866615,124.9462,59,46,0
124.866615,124.9462,62,55,0
125.02577,125.10535,64,50,0
125.18492,125.34752,57,59,0
125.34752,125.510124,55,52,0
125.18492,125.510124,61,59,0
125.510124,125.675415,62,64,0
125.840706,126.00599,66,64,0
125.840706,126.00599,74,77,0
126.50186,126.65186,62,59,0
126.76436,126.80186,66,49,0
126.80186,126.95001,64,55,0
126.95001,127.09816,62,53,0
127.09816,127.24486,61,56,0
127.24486,127.421326,62,51,0
127.421326,127.49945,64,58,0
127.733826,127.80997,67,53,0
127.733826,127.80997,55,49,0
127.733826,127.80997,59,49,0
127.733826,127.80997,64,49,0
128.03839,128.11818,66,51,0
128.03839,128.11818,54,42,0
128.03839,128.11818,61,42,0
128.03839,128.11818,64,42,0
128.35754,128.43608,62,58,0
128.67168,128.74763,66,55,0
128.67168,128.74763,54,46,0
128.67168,128.74763,59,46,0
128.67168,128.74763,62,46,0
128.97548,129.0524,64,51,0
128.97548,129.0524,62,42,0
128.97548,129.0524,59,42,0
129.28317,129.43317,61,59,0
129.54567,129.58318,62,49,0
129.58318,129.73132,61,55,0
129.73132,129.87947,59,53,0
129.87947,130.02617,61,56,0
130.19087,130.34087,62,59,0
130.45337,130.49088,66,49,0
130.49088,130.63902,64,55,0
130.63902,130.78717,62,53,0
130.78717,130.93387,61,56,0
130.93387,131.11034,62,51,0
131.11034,131.18846,64,58,0
131.42284,131.49898,67,53,0
131.42284,131.49898,55,49,0
131.42284,131.49898,59,49,0
131.42284,131.49898,64,49,0
131.7274,131.80621,66,51,0
131.7274,131.80621,54,42,0
131.7274,131.80621,61,42,0
131.7274,131.80621,64,42,0
132.05328,132.13141,59,58,0
132.05328,132.13141,62,58,0
132.36578,132.44536,59,46,0
132.36578,132.44536,62,55,0
132.52493,132.6045,64,50,0
132.6841,132.84938,57,59,0
132.84938,133.01466,55,52,0
132.6841,133.01466,61,59,0
133.01466,133.18274,62,64,0
133.3508,133.5161,66,64,0
133.3508,133.5161,74,77,0
134.01196,134.31271,81,67,0
134.31271,134.46196,83,59,0
134.46196,134.61122,81,55,0
134.61122,134.76047,79,57,0
134.76047,134.9188,81,53,0
134.9188,135.22647,83,60,0
135.22647,135.37953,83,59,0
135.37953,135.5326,86,55,0
135.5326,135.85005,83,58,0
134.01196,135.85005,74,57,0
135.85005,136.15082,81,67,0
136.15082,136.30006,83,59,0
136.30006,136.44933,81,55,0
136.44933,136.60161,79,57,0
136.60161,136.75992,78,53,0
135.85005,136.75992,74,57,0
136.75992,137.06761,76,60,0
136.75992,137.06761,73,48,0
137.06761,137.22067,76,57,0
137.06761,137.22067,73,45,0
137.22067,137.37373,74,55,0
137.22067,137.37373,71,44,0
137.37373,137.68787,76,58,0
137.37373,137.68787,73,46,0
137.68787,137.98862,81,67,0
137.98862,138.13786,83,59,0
138.13786,138.28712,81,55,0
138.28712,138.43637,79,57,0
138.43637,138.5947,81,53,0
138.5947,138.90637,83,60,0
138.90637,139.06102,83,59,0
139.06102,139.21565,86,55,0
139.21565,139.54086,83,58,0
137.68787,139.54086,74,57,0
139.54086,139.87,81,67,0
139.87,140.04288,83,59,0
140.04288,140.22746,81,55,0
140.22746,140.42546,79,57,0
140.42546,140.63235,78,53,0
139.54086,140.63235,74,57,0
140.63235,141.59258,76,60,0
140.63235,141.59258,73,48,0
140.63235,141.59258,69,48,0
141.59258,141.74258,62,59,0
141.85509,141.89258,66,49,0
141.89258,142.04073,64,55,0
142.04073,142.18887,62,53,0
142.18887,142.33557,61,56,0
142.33557,142.51204,62,51,0
142.51204,142.59016,64,58,0
142.82454,142.9007,67,53,0
142.82454,142.9007,55,49,0
142.82454,142.9007,59,49,0
142.82454,142.9007,64,49,0
143.12912,143.20786,66,51,0
143.12912,143.20786,54,42,0
143.12912,143.20786,61,42,0
143.12912,143.20786,64,42,0
143.44408,143.5224,62,58,0
143.75739,143.83334,66,55,0
143.75739,143.83334,54,46,0
143.75739,143.83334,59,46,0
143.75739,143.83334,62,46,0
144.06119,144.1381,64,51,0
144.06119,144.1381,62,42,0
144.06119,144.1381,59,42,0
144.36888,144.51888,61,59,0
144.63138,144.66888,62,49,0
144.66888,144.81703,61,55,0
144.81703,144.96518,59,53,0
144.96518,145.11188,61,56,0
145.28658,145.43658,62,59,0
145.53908,145.57658,66,49,0
145.58646,145.7346,64,55,0
145.7346,145.88266,62,53,0
145.88266,146.03134,61,56,0
146.06076,146.23251,62,51,0
146.20647,146.28459,64,58,0
146.5187,146.59485,67,53,0
146.5187,146.59485,55,49,0
146.5187,146.59485,59,49,0
146.5187,146.59485,64,49,0
146.8235,146.90245,66,51,0
146.8235,146.90245,54,42,0
146.8235,146.90245,61,42,0
146.8235,146.90245,64,42,0
147.13899,147.21712,59,58,0
147.13899,147.21712,62,58,0
147.45149,147.53192,59,46,0
147.45149,147.53192,62,55,0
147.61235,147.69278,64,50,0
147.77321,147.93805,57,59,0
147.93805,148.10289,55,52,0
147.77321,148.10289,61,59,0
148.10289,148.27095,62,64,0
148.43903,148.60431,66,64,0
148.43903,148.60431,74,77,0
149.10017,149.42574,78,59,0
149.42574,149.58492,79,52,0
149.26295,149.58492,71,39,0
149.58492,149.74411,78,47,0
149.74411,149.90112,76,50,0
149.58492,149.90112,71,35,0
149.90112,150.06482,78,48,0
149.90112,150.06482,71,35,0
150.06482,150.38496,79,53,0
150.2249,150.54327,71,37,0
150.38496,150.70158,83,52,0
150.54327,150.85817,71,36,0
150.85817,151.01477,71,28,0
150.70158,151.01477,76,51,0
151.17755,151.34033,71,39,0
151.01477,151.34033,78,59,0
151.34033,151.49951,79,52,0
151.49951,151.65869,78,47,0
151.49951,151.65869,71,35,0
151.65869,151.81572,76,50,0
151.81572,151.97942,78,48,0
151.81572,151.97942,71,35,0
152.13948,152.29955,67,37,0
151.97942,152.29955,79,53,0
152.45787,152.61618,67,36,0
152.29955,152.61618,76,52,0
152.78546,152.95476,64,28,0
152.61618,152.95476,73,51,0
152.95476,153.9705,71,48,0
152.95476,153.9705,62,40,0
153.9705,154.05144,74,52,0
154.05144,154.13222,73,48,0
154.13222,154.21284,74,53,0
154.21284,154.29332,73,49,0
154.29332,154.37358,74,56,0
154.37358,154.45369,73,50,0
154.45369,154.53365,74,57,0
154.53365,154.61339,73,51,0
154.61339,154.69298,74,57,0
154.69298,154.77257,73,52,0
154.77257,154.85217,71,58,0
154.85217,154.93176,73,51,0
153.9705,154.93176,67,52,0
154.93176,155.25458,74,57,0
154.93176,155.25458,66,57,0
155.25458,155.41333,74,55,0
155.41333,155.57208,76,49,0
155.57208,155.89671,73,52,0
155.57208,155.89671,64,52,0
155.89671,156.87766,71,46,0
155.89671,156.87766,62,46,0
156.87766,156.95859,74,52,0
156.95859,157.03937,73,48,0
157.03937,157.12001,74,53,0
157.12001,157.20049,73,49,0
157.20049,157.28075,74,56,0
157.28075,157.36086,73,50,0
157.36086,157.44081,74,57,0
157.44081,157.52055,73,51,0
157.52055,157.60014,74,57,0
157.60014,157.67973,73,52,0
157.67973,157.75932,71,58,0
157.75932,157.83891,73,51,0
156.87766,157.83891,67,52,0
158.00215,158.16539,66,57,0
157.83891,158.16539,74,57,0
158.16539,158.32681,74,55,0
158.32681,158.48822,76,49,0
158.32681,158.65622,66,57,0
158.65622,158.82422,64,45,0
158.48822,158.82422,73,52,0
159.1632,159.5017,66,29,0
159.1632,159.5017,62,29,0
159.5017,159.84431,66,27,0
159.5017,159.84431,62,27,0
158.82422,159.84431,71,46,0
159.84431,160.19043,66,26,0
159.84431,160.19043,62,26,0
160.19043,160.54007,66,25,0
160.19043,160.54007,62,25,0
160.54007,160.89732,66,23,0
160.54007,160.89732,62,23,0
160.89732,161.22289,78,59,0
161.22289,161.38206,79,52,0
161.0601,161.38206,71,39,0
161.38206,161.54126,78,47,0
161.54126,161.69827,76,50,0
161.38206,161.69827,71,35,0
161.69827,161.86197,78,48,0
161.69827,161.86197,71,35,0
161.86197,162.18211,79,53,0
162.02205,162.34042,71,37,0
162.18211,162.49873,83,52,0
162.34042,162.65533,71,36,0
162.65533,162.81192,71,28,0
162.49873,162.81192,76,51,0
162.9747,163.13748,71,39,0
162.81192,163.13748,78,59,0
163.13748,163.29666,79,52,0
163.29666,163.45584,78,47,0
163.29666,163.45584,71,35,0
163.45584,163.61287,76,50,0
163.61287,163.77657,78,48,0
163.61287,163.77657,71,35,0
163.93663,164.09671,67,37,0
163.77657,164.09671,79,53,0
164.25502,164.41333,67,36,0
164.09671,164.41333,76,52,0
164.58261,164.7519,64,28,0
164.41333,164.7519,73,51,0
164.7519,165.76765,71,48,0
164.7519,165.76765,62,40,0
165.76765,165.84859,74,52,0
165.84859,165.92937,73,48,0
165.92937,166.01,74,53,0
166.01,166.09047,73,49,0
166.09047,166.17073,74,56,0
166.17073,166.25084,73,50,0
166.25084,166.3308,74,57,0
166.3308,166.41054,73,51,0
166.41054,166.49013,74,57,0
166.49013,166.56973,73,52,0
166.56973,166.64932,71,58,0
166.64932,166.72891,73,51,0
165.76765,166.72891,67,52,0
166.72891,167.05173,74,57,0
166.72891,167.05173,66,57,0
167.05173,167.21048,74,55,0
167.21048,167.36923,76,49,0
167.36923,167.69386,73,52,0
167.36923,167.69386,64,52,0
167.69386,168.65913,71,46,0
167.69386,168.65913,62,46,0
168.65913,168.74007,74,52,0
168.74007,168.82085,73,48,0
168.82085,168.90149,74,53,0
168.90149,168.98196,73,49,0
168.98196,169.06223,74,56,0
169.06223,169.14233,73,50,0
169.14233,169.22229,74,57,0
169.22229,169.30203,73,51,0
169.30203,169.38162,74,57,0
169.38162,169.46121,73,52,0
169.46121,169.5408,71,58,0
169.5408,169.62039,73,51,0
168.65913,169.62039,67,52,0
169.78363,169.94687,66,57,0
169.62039,169.94687,74,57,0
169.94687,170.10829,74,55,0
170.10829,170.2697,76,49,0
170.10829,170.4377,66,57,0
170.4377,170.6057,64,45,0
170.2697,170.6057,73,52,0
170.94467,171.28317,66,29,0
170.94467,171.28317,62,29,0
171.28317,171.6258,66,27,0
171.28317,171.6258,62,27,0
170.6057,171.6258,71,46,0
171.6258,171.97191,66,26,0
171.6258,171.97191,62,26,0
171.97191,172.3216,66,25,0
171.97191,172.3216,62,25,0
172.3216,172.69777,66,23,0
172.3216,172.69777,62,23,0
172.69777,173.00429,74,82,0
172.69777,173.00429,86,98,0
173.00429,173.15575,76,78,0
173.00429,173.15575,88,93,0
173.15575,173.3072,74,75,0
173.15575,173.3072,86,89,0
173.3072,173.45949,73,74,0
173.3072,173.45949,85,88,0
173.45949,173.61177,74,74,0
173.45949,173.61177,86,87,0
173.61177,173.92796,76,81,0
173.61177,173.92796,88,97,0
173.92796,174.23975,79,75,0
173.92796,174.23975,91,89,0
174.23975,174.55515,78,74,0
174.23975,174.55515,90,87,0
174.55515,174.86186,74,82,0
174.55515,174.86186,86,98,0
174.86186,175.01257,76,75,0
174.86186,175.01257,88,89,0
175.01257,175.16328,74,74,0
175.01257,175.16328,86,87,0
175.16328,175.31519,73,72,0
175.16328,175.31519,85,86,0
175.31519,175.46709,74,72,0
175.31519,175.46709,86,85,0
175.46709,175.78328,76,81,0
175.46709,175.78328,88,96,0
175.78328,176.09465,79,74,0
175.78328,176.09465,91,88,0
176.09465,176.40843,78,74,0
176.09465,176.40843,90,87,0
176.40843,176.71515,74,81,0
176.40843,176.71515,86,96,0
176.71515,176.86624,88,87,0
176.71515,176.86624,76,74,0
176.86624,177.01732,90,88,0
176.86624,177.01732,78,74,0
177.01732,177.1662,93,92,0
177.01732,177.1662,81,77,0
177.1662,177.3151,96,93,0
177.1662,177.3151,84,78,0
177.3151,177.62122,100,94,0
177.3151,177.62122,88,80,0
177.62122,177.92578,103,93,0
177.62122,177.92578,91,78,0
177.92578,178.23717,102,93,0
177.92578,178.23717,90,78,0
178.23717,178.5416,102,94,0
178.23717,178.5416,90,60,0
178.5416,178.69342,103,86,0
178.5416,178.69342,91,57,0
178.69342,178.84526,102,86,0
178.69342,178.84526,90,57,0
178.84526,178.99863,100,85,0
178.84526,178.99863,88,55,0
178.99863,179.15198,98,85,0
178.99863,179.15198,86,55,0
179.15198,179.42238,97,92,0
179.15198,179.42238,85,77,0
179.42238,179.461,98,76,0
179.461,179.61247,97,87,0
179.461,179.61247,85,74,0
179.61247,179.76393,93,80,0
179.61247,179.76393,81,66,0
179.76393,179.91728,95,86,0
179.76393,179.91728,83,73,0
179.91728,180.07065,97,82,0
179.91728,180.07065,85,69,0
180.07065,180.35065,98,88,0
180.07065,180.35065,86,74,0
180.35065,180.38768,64,64,0
180.38768,180.4614,62,69,0
180.5351,180.60881,61,66,0
180.68253,180.75867,62,70,0
180.98709,181.06361,62,65,0
181.29321,181.36784,69,69,0
181.44246,181.51709,66,66,0
181.59172,181.66806,62,70,0
181.89706,181.97113,62,69,0
182.04521,182.11928,61,66,0
182.19336,182.26892,62,70,0
182.49562,182.5697,62,69,0
182.64377,182.71785,61,66,0
182.79192,182.86826,62,70,0
183.09726,183.17189,69,72,0
183.24652,183.32115,66,69,0
183.39577,183.47078,62,73,0
183.69577,183.7704,69,75,0
183.84503,183.91965,66,72,0
183.99428,184.06927,62,76,0
184.29428,184.36891,69,78,0
184.44353,184.51816,66,75,0
184.59279,184.66931,62,71,0
184.74585,184.82085,69,66,0
184.89584,184.97086,66,72,0
185.04585,185.12085,62,69,0
185.19585,185.27084,69,72,0
185.34586,185.42238,66,70,0
185.49892,185.57486,74,84,0
185.49892,185.57486,62,71,0
185.6508,185.72543,81,76,0
185.6508,185.72543,69,64,0
185.80006,185.8747,66,73,0
185.80006,185.8747,78,88,0
185.94931,186.02394,74,85,0
185.94931,186.02394,62,72,0
186.09857,186.17395,69,72,0
186.09857,186.17395,81,87,0
186.24933,186.32585,66,74,0
186.24933,186.32585,78,88,0
186.40239,186.70851,66,81,0
186.40239,186.70851,74,96,0
186.40239,186.70851,62,81,0
186.70851,187.01463,62,81,0
186.70851,187.01463,74,96,0
186.70851,187.01463,66,81,0
187.32076,187.62688,78,93,0
187.32076,187.62688,86,110,0
187.32076,187.62688,74,93,0
187.62688,187.933,74,93,0
187.62688,187.933,86,110,0
187.62688,187.933,78,93,0
188.23912,188.54524,90,101,0
188.23912,188.54524,98,120,0
188.23912,188.54524,86,101,0
0.0,0.3,50,64,0
0.0,0.3,38,46,0
0.3,0.374074,40,44,0
0.3,0.374074,52,61,0
0.448148,0.522222,38,41,0
0.448148,0.522222,50,59,0
0.596296,0.6696457,49,62,0
0.596296,0.6696457,37,45,0
0.7429955,0.8163453,50,58,0
0.7429955,0.8163453,38,40,0
0.889695,0.9670145,40,45,0
0.889695,0.9670145,52,63,0
1.198973,1.2755077,43,37,0
1.198973,1.2755077,55,52,0
1.5039344,1.5810552,54,58,0
1.5039344,1.5810552,42,40,0
1.8124174,2.0749173,50,64,0
1.8124174,2.0749173,38,46,0
2.0749173,2.1124175,42,39,0
2.0749173,2.1124175,54,56,0
2.1124175,2.1861274,40,42,0
2.1124175,2.1861274,52,59,0
2.2598374,2.3335474,50,57,0
2.2598374,2.3335474,38,40,0
2.4072573,2.4804282,49,60,0
2.4072573,2.4804282,37,44,0
2.5535989,2.6267698,38,39,0
2.5535989,2.6267698,50,56,0
2.6999404,2.7772598,52,63,0
2.6999404,2.7772598,40,45,0
3.0092185,3.0853608,55,52,0
3.0092185,3.0853608,43,37,0
3.3137875,3.3905137,54,58,0
3.3137875,3.3905137,42,40,0
3.6206925,3.9206924,38,59,0
3.6206925,3.9206924,50,63,0
3.9206924,4.0684757,52,58,0
4.0684757,4.2162595,54,59,0
4.2162595,4.362601,57,60,0
4.362601,4.5089426,60,61,0
4.5089426,4.8052382,64,62,0
4.8052382,5.1015344,67,61,0
5.1015344,5.4061036,66,60,0
5.4061036,6.3009005,55,55,0
5.4061036,6.3009005,59,57,0
6.3009005,6.565384,57,58,0
6.3009005,6.565384,61,60,0
6.3009005,6.565384,55,58,0
6.6031675,6.7513156,61,58,0
6.7513156,6.8994637,57,53,0
6.8994637,7.0494633,59,57,0
7.0494633,7.1994634,61,55,0
7.1994634,7.5048075,62,59,0
7.1994634,7.5048075,57,59,0
7.1994634,7.5048075,54,59,0
7.5048075,7.5788813,52,61,0
7.5048075,7.5788813,40,44,0
7.6529555,7.7270293,38,41,0
7.6529555,7.7270293,50,59,0
7.8011036,7.874633,49,62,0
7.8011036,7.874633,37,45,0
7.9481626,8.021692,50,58,0
7.9481626,8.021692,38,40,0
8.0952215,8.173143,40,45,0
8.0952215,8.173143,52,63,0
8.406909,8.483051,43,37,0
8.406909,8.483051,55,52,0
8.711478,8.788402,54,58,0
8.711478,8.788402,42,40,0
9.019171,9.281671,50,64,0
9.019171,9.281671,38,46,0
9.281671,9.31917,42,39,0
9.281671,9.31917,54,56,0
9.31917,9.39288,40,42,0
9.31917,9.39288,52,59,0
9.466591,9.5403,50,57,0
9.466591,9.5403,38,40,0
9.614011,9.687181,49,60,0
9.614011,9.687181,37,44,0
9.760352,9.833523,38,39,0
9.760352,9.833523,50,56,0
9.906693,9.984414,52,63,0
9.906693,9.984414,40,45,0
10.217574,10.29391,55,52,0
10.217574,10.29391,43,37,0
10.522919,10.598867,54,58,0
10.522919,10.598867,42,40,0
10.826715,11.126716,38,58,0
10.826715,11.126716,50,63,0
11.126716,11.274136,52,58,0
11.274136,11.4215555,54,59,0
11.4215555,11.567186,57,60,0
11.567186,11.712817,60,61,0
11.712817,12.009113,64,62,0
12.009113,12.305409,67,61,0
12.305409,12.609979,66,60,0
12.609979,13.504775,55,55,0
12.609979,13.504775,59,57,0
13.504775,13.769259,57,58,0
13.504775,13.769259,61,60,0
13.504775,13.769259,55,58,0
13.807042,13.955191,61,58,0
13.955191,14.103338,57,53,0
14.103338,14.253339,59,57,0
14.253339,14.403338,61,55,0
14.403338,14.707908,62,59,0
14.403338,14.707908,57,59,0
14.403338,14.707908,54,59,0
14.707908,14.781981,50,61,0
14.707908,14.781981,38,44,0
14.856055,14.930129,37,41,0
14.856055,14.930129,49,59,0
15.004204,15.078278,50,62,0
15.004204,15.078278,38,45,0
15.300499,15.3755,50,59,0
15.300499,15.3755,38,52,0
15.600499,15.674573,57,61,0
15.600499,15.674573,45,44,0
15.748648,15.8227215,42,41,0
15.748648,15.8227215,54,59,0
15.896795,15.971795,50,62,0
15.896795,15.971795,38,45,0
16.196795,16.271795,62,46,0
16.196795,16.271795,60,46,0
16.196795,16.271795,66,46,0
16.196795,16.271795,69,46,0
16.346796,16.421795,69,42,0
16.346796,16.421795,62,42,0
16.346796,16.421795,66,42,0
16.346796,16.421795,60,42,0
16.496796,16.572363,66,45,0
16.496796,16.572363,60,45,0
16.496796,16.572363,62,45,0
16.496796,16.572363,69,45,0
16.799063,16.874062,62,44,0
16.799063,16.874062,60,44,0
16.799063,16.874062,66,44,0
16.799063,16.874062,69,44,0
16.949062,17.024063,69,41,0
16.949062,17.024063,62,41,0
16.949062,17.024063,66,41,0
16.949062,17.024063,60,41,0
17.099062,17.174063,67,44,0
17.099062,17.174063,59,44,0
17.099062,17.174063,62,44,0
17.099062,17.174063,71,44,0
17.399063,17.549063,62,41,0
17.399063,17.549063,59,41,0
17.399063,17.549063,67,49,0
17.399063,17.549063,71,49,0
17.549063,17.699062,67,47,0
17.549063,17.699062,59,39,0
17.549063,17.699062,62,39,0
17.549063,17.699062,71,47,0
17.699062,17.930424,62,41,0
17.699062,17.930424,59,41,0
17.699062,17.930424,67,49,0
17.699062,17.930424,71,49,0
18.611057,18.76219,64,48,0
18.76219,18.913324,65,49,0
18.31329,18.913324,62,53,0
18.007545,18.913324,67,53,0
18.007545,18.913324,58,53,0
18.913324,18.990248,57,56,0
18.913324,18.990248,66,56,0
18.913324,18.990248,62,56,0
19.221016,19.296392,50,59,0
19.522524,19.599054,62,52,0
19.522524,19.599054,66,52,0
19.522524,19.599054,57,52,0
19.828646,19.905176,58,55,0
19.828646,19.905176,67,55,0
19.828646,19.905176,62,55,0
20.134768,20.210335,50,59,0
20.437035,20.51337,62,51,0
20.437035,20.51337,67,51,0
20.437035,20.51337,58,51,0
20.742378,20.818714,62,55,0
20.742378,20.818714,66,55,0
21.047724,21.12406,54,61,0
21.047724,21.12406,42,61,0
21.200396,21.276731,52,57,0
21.200396,21.276731,40,57,0
21.353067,21.431396,38,62,0
21.353067,21.431396,50,62,0
21.666384,21.970951,54,59,0
21.666384,21.970951,62,59,0
21.666384,21.970951,57,59,0
21.970951,22.045027,38,44,0
21.970951,22.045027,50,61,0
22.1191,22.193174,49,59,0
22.1191,22.193174,37,41,0
22.267248,22.341322,50,62,0
22.267248,22.341322,38,45,0
22.563543,22.638544,50,59,0
22.563543,22.638544,38,52,0
22.863544,22.937618,45,44,0
22.863544,22.937618,57,61,0
23.011692,23.085766,54,59,0
23.011692,23.085766,42,41,0
23.15984,23.23484,50,62,0
23.15984,23.23484,38,45,0
23.45984,23.53484,66,46,0
23.45984,23.53484,60,46,0
23.45984,23.53484,62,46,0
23.45984,23.53484,69,46,0
23.60984,23.68484,62,42,0
23.60984,23.68484,60,42,0
23.60984,23.68484,66,42,0
23.60984,23.68484,69,42,0
23.75984,23.835407,69,45,0
23.75984,23.835407,62,45,0
23.75984,23.835407,66,45,0
23.75984,23.835407,60,45,0
24.062107,24.137108,66,44,0
24.062107,24.137108,60,44,0
24.062107,24.137108,62,44,0
24.062107,24.137108,69,44,0
24.212107,24.287107,62,41,0
24.212107,24.287107,60,41,0
24.212107,24.287107,66,41,0
24.212107,24.287107,69,41,0
24.362106,24.437107,71,44,0
24.362106,24.437107,62,44,0
24.362106,24.437107,67,44,0
24.362106,24.437107,59,44,0
24.662107,24.812107,67,49,0
24.662107,24.812107,59,41,0
24.662107,24.812107,62,41,0
24.662107,24.812107,71,49,0
24.812107,24.962107,59,39,0
24.812107,24.962107,62,39,0
24.812107,24.962107,67,47,0
24.812107,24.962107,71,47,0
24.962107,25.19347,67,49,0
24.962107,25.19347,59,41,0
24.962107,25.19347,62,41,0
24.962107,25.19347,71,49,0
25.873363,26.024118,64,48,0
26.024118,26.174873,65,49,0
25.576334,26.174873,62,53,0
25.27059,26.174873,58,53,0
25.27059,26.174873,67,53,0
26.174873,26.251795,66,56,0
26.174873,26.251795,62,56,0
26.174873,26.251795,57,56,0
26.482565,26.557941,50,59,0
26.784073,26.860603,66,52,0
26.784073,26.860603,62,52,0
26.784073,26.860603,57,52,0
27.090195,27.166725,62,55,0
27.090195,27.166725,67,55,0
27.090195,27.166725,58,55,0
27.396317,27.471884,50,59,0
27.698584,27.77492,67,51,0
27.698584,27.77492,62,51,0
27.698584,27.77492,58,51,0
28.003927,28.080263,66,55,0
28.003927,28.080263,62,55,0
28.30927,28.385221,42,59,0
28.30927,28.385221,54,59,0
28.46117,28.537119,40,55,0
28.46117,28.537119,52,55,0
28.613068,28.690388,50,60,0
28.613068,28.690388,38,60,0
29.231625,29.307766,42,52,0
29.38391,29.46005,40,49,0
29.536194,29.613117,38,53,0
28.922346,29.843885,57,52,0
28.922346,29.843885,54,52,0
30.151577,30.22772,42,49,0
30.303862,30.380005,40,46,0
30.456146,30.53307,38,50,0
29.843885,30.763838,57,49,0
29.843885,30.763838,54,49,0
30.763838,30.840761,54,49,0
30.763838,30.840761,42,49,0
30.917685,30.994608,40,45,0
30.917685,30.994608,52,45,0
31.071531,31.148651,50,48,0
31.071531,31.148651,38,48,0
31.380013,31.456543,54,45,0
31.380013,31.456543,42,45,0
31.533075,31.609606,52,41,0
31.533075,31.609606,40,41,0
31.686136,31.766998,50,44,0
31.686136,31.766998,38,44,0
32.009586,32.090446,45,41,0
32.333035,32.419243,38,40,0
32.82786,33.59733,54,46,0
32.677864,33.59733,38,55,0
33.59733,33.675453,37,55,0
33.75358,33.831703,49,55,0
34.214397,34.53102,34,46,0
34.214397,34.53102,46,55,0
34.53102,34.609352,35,55,0
34.68768,34.76601,47,55,0
35.148136,35.225056,52,42,0
35.148136,35.455826,44,55,0
35.148136,35.455826,32,46,0
35.455826,35.755825,45,55,0
35.455826,35.755825,33,55,0
36.052124,36.198822,57,56,0
36.198822,36.373528,55,51,0
35.605827,36.373528,52,55,0
36.052124,36.373528,45,55,0
36.513527,37.282993,54,46,0
36.36353,37.282993,38,55,0
37.282993,37.36112,37,55,0
37.439243,37.51737,49,48,0
37.900063,38.215714,34,46,0
37.900063,38.215714,46,55,0
38.382195,38.46032,54,47,0
38.225945,38.538445,35,46,0
38.225945,38.538445,47,55,0
38.538445,38.697598,31,46,0
38.538445,38.697598,43,55,0
38.856747,38.93805,52,51,0
38.856747,39.01935,33,42,0
38.856747,39.01935,45,51,0
39.18195,39.34724,54,58,0
39.18195,39.34724,38,49,0
39.512527,39.67782,50,60,0
39.512527,39.67782,57,70,0
40.32369,41.093155,54,46,0
40.173687,41.093155,38,55,0
41.093155,41.17128,37,55,0
41.249405,41.32753,49,55,0
41.71022,42.02937,34,46,0
41.71022,42.02937,46,55,0
42.02937,42.10689,35,55,0
42.18441,42.26193,47,55,0
42.643246,42.72017,52,42,0
42.643246,42.95094,44,55,0
42.643246,42.95094,32,46,0
42.95094,43.25094,45,55,0
42.95094,43.25094,33,55,0
43.547234,43.693935,57,56,0
43.693935,43.86864,55,51,0
43.100937,43.86864,52,55,0
43.547234,43.86864,45,55,0
44.00864,44.778107,54,46,0
43.85864,44.778107,38,55,0
44.778107,44.85623,37,55,0
44.934357,45.01248,49,48,0
45.395176,45.710827,34,46,0
45.395176,45.710827,46,55,0
45.877308,45.955433,54,47,0
45.721058,46.033558,35,46,0
45.721058,46.033558,47,55,0
46.033558,46.192707,31,46,0
46.033558,46.192707,43,55,0
46.35186,46.43473,52,51,0
46.35186,46.517605,33,42,0
46.35186,46.517605,45,51,0
46.68335,46.85332,54,58,0
46.68335,46.85332,38,49,0
47.023293,47.188583,50,60,0
47.023293,47.188583,57,70,0
47.684452,47.985203,66,52,0
47.985203,48.134457,67,47,0
48.134457,48.28371,66,44,0
48.28371,48.432964,64,45,0
48.432964,48.591274,66,42,0
48.591274,48.898968,67,48,0
48.898968,49.05203,67,47,0
49.05203,49.20509,71,44,0
49.20509,49.52255,67,46,0
47.684452,49.52255,62,42,0
49.52255,49.823303,66,52,0
49.823303,49.972557,67,47,0
49.972557,50.121807,66,44,0
50.121807,50.274094,64,45,0
49.52255,50.274094,62,42,0
50.274094,50.432404,62,42,0
50.432404,50.740097,64,48,0
50.432404,50.740097,57,38,0
50.740097,50.893158,67,47,0
50.893158,51.04622,66,41,0
51.04622,51.360355,67,46,0
51.04622,51.360355,57,36,0
51.360355,51.661106,66,52,0
51.661106,51.81036,67,47,0
51.81036,51.959614,66,44,0
51.959614,52.108868,64,45,0
52.108868,52.267178,66,42,0
52.267178,52.57487,67,48,0
52.57487,52.727932,67,47,0
52.727932,52.880993,71,44,0
52.880993,53.20532,67,46,0
51.360355,53.20532,62,42,0
53.20532,53.531975,66,52,0
53.531975,53.703686,67,47,0
53.703686,53.884724,66,44,0
53.884724,54.07616,64,45,0
53.20532,54.07616,62,42,0
54.07616,54.27418,62,42,0
54.27418,55.2344,64,48,0
54.27418,55.2344,57,38,0
55.5344,56.15387,45,55,0
55.384403,56.15387,54,46,0
55.2344,56.15387,38,55,0
56.15387,56.231995,37,55,0
56.31012,56.388245,49,55,0
56.77094,57.0859,34,46,0
56.77094,57.0859,46,55,0
57.0859,57.164227,35,55,0
57.242558,57.320885,47,55,0
57.70301,57.779934,52,42,0
57.70301,58.010704,44,55,0
57.70301,58.010704,32,46,0
58.010704,58.310703,45,55,0
58.010704,58.310703,33,55,0
58.607,58.7537,57,56,0
58.7537,58.928406,55,51,0
58.1607,58.928406,52,55,0
58.607,58.928406,45,55,0
59.068405,59.83787,54,46,0
58.918404,59.83787,38,55,0
59.22828,59.848286,45,55,0
59.83787,59.915997,37,55,0
59.99412,60.072247,49,48,0
60.45494,60.77059,34,46,0
60.45494,60.77059,46,55,0
60.937073,61.015198,54,47,0
60.780823,61.093323,35,46,0
60.780823,61.093323,47,55,0
61.093323,61.252472,31,46,0
61.093323,61.252472,43,55,0
61.411625,61.494495,52,51,0
61.411625,61.57737,33,42,0
61.411625,61.57737,45,51,0
61.743114,61.908405,54,58,0
61.743114,61.908405,38,49,0
61.743114,61.908405,45,51,0
62.073696,62.238983,50,60,0
62.073696,62.238983,57,70,0
62.73485,63.06041,62,47,0
63.06041,63.219593,64,41,0
63.219593,63.37878,62,39,0
63.37878,63.535797,61,39,0
63.535797,63.6995,62,38,0
63.6995,64.01964,64,42,0
64.01964,64.33626,61,41,0
64.33626,64.649445,64,40,0
62.73485,64.649445,47,38,0
64.649445,64.975,62,47,0
64.975,65.134186,64,41,0
65.134186,65.29337,62,39,0
65.29337,65.450386,61,39,0
65.450386,65.61409,62,38,0
64.649445,65.61409,47,38,0
65.61409,65.93423,64,42,0
65.93423,66.250854,61,41,0
65.61409,66.250854,52,38,0
66.250854,66.58943,58,40,0
66.250854,66.58943,54,40,0
66.58943,66.75872,59,38,0
66.58943,66.75872,47,31,0
66.75872,67.097305,54,38,0
67.097305,67.43588,54,33,0
67.43588,67.60517,54,33,0
67.60517,67.928,52,38,0
67.928,68.24806,52,39,0
68.24806,68.56644,52,41,0
67.60517,68.56644,45,38,0
68.56644,68.88926,50,42,0
68.56644,68.88926,54,42,0
68.88926,69.20676,54,38,0
69.20676,69.531395,58,31,0
69.20676,69.531395,54,31,0
69.531395,69.84976,59,38,0
69.531395,69.84976,55,38,0
69.531395,69.84976,47,38,0
69.84976,70.011055,47,47,0
70.011055,70.17234,46,41,0
70.17234,70.49493,47,38,0
70.49493,70.65664,52,38,0
70.65664,70.97812,52,45,0
70.97812,71.297,52,38,0
71.297,71.456184,52,38,0
70.49493,71.456184,45,38,0
71.456184,71.78266,50,42,0
71.456184,71.78266,54,42,0
71.78266,72.105484,54,38,0
72.105484,72.44149,58,31,0
72.105484,72.44149,54,31,0
72.44149,72.61097,47,38,0
72.61097,72.94927,54,28,0
72.94927,73.28974,54,26,0
73.28974,73.46158,54,25,0
73.6342,73.98211,54,23,0
73.98211,74.33278,54,20,0
74.33278,74.515144,54,19,0
73.46158,74.515144,47,23,0
74.515144,74.840706,62,47,0
74.840706,74.999886,64,41,0
74.999886,75.15907,62,39,0
75.15907,75.31609,61,39,0
75.31609,75.4798,62,38,0
75.4798,75.802376,64,42,0
75.802376,76.118996,61,41,0
76.118996,76.43218,64,40,0
74.515144,76.43218,47,38,0
76.43218,76.75774,62,47,0
76.75774,76.91692,64,41,0
76.91692,77.07611,62,39,0
77.07611,77.23313,61,39,0
77.23313,77.39683,62,38,0
76.43218,77.39683,47,38,0
77.39683,77.716965,64,42,0
77.716965,78.03359,61,41,0
77.39683,78.03359,52,38,0
78.03359,78.37217,58,40,0
78.03359,78.37217,54,40,0
78.37217,78.54146,59,38,0
78.37217,78.54146,47,31,0
78.54146,78.88004,54,38,0
78.88004,79.21862,54,33,0
79.21862,79.38792,54,33,0
79.38792,79.71074,52,38,0
79.71074,80.03081,52,39,0
80.03081,80.349174,52,41,0
79.38792,80.349174,45,38,0
80.349174,80.672,50,42,0
80.349174,80.672,54,42,0
80.672,80.989494,54,38,0
80.989494,81.31413,58,31,0
80.989494,81.31413,54,31,0
81.31413,81.642,59,38,0
81.31413,81.642,55,38,0
81.31413,81.642,47,38,0
81.642,81.80329,47,49,0
81.80329,81.964584,46,40,0
81.964584,82.28716,47,38,0
82.28716,82.448875,52,38,0
82.448875,82.770355,52,46,0
82.770355,83.08924,52,38,0
83.08924,83.24842,52,38,0
82.28716,83.24842,45,38,0
83.24842,83.5749,50,42,0
83.24842,83.5749,54,42,0
83.5749,83.89773,54,38,0
83.89773,84.23373,58,31,0
83.89773,84.23373,54,31,0
84.23373,84.403206,47,38,0
84.403206,84.74151,54,28,0
84.74151,85.08198,54,26,0
85.08198,85.253815,54,25,0
85.42644,85.77435,54,23,0
85.77435,86.125786,54,20,0
86.125786,86.32579,54,19,0
85.253815,86.32579,47,23,0
86.32579,86.625786,50,64,0
86.32579,86.625786,38,46,0
86.625786,86.69986,52,61,0
86.625786,86.69986,40,44,0
86.77393,86.84801,50,59,0
86.77393,86.84801,38,41,0
86.92208,86.99543,49,62,0
86.92208,86.99543,37,45,0
87.06879,87.142136,50,58,0
87.06879,87.142136,38,40,0
87.215485,87.2928,52,63,0
87.215485,87.2928,40,45,0
87.52476,87.601295,55,52,0
87.52476,87.601295,43,37,0
87.82972,87.906845,54,58,0
87.82972,87.906845,42,40,0
88.13821,88.4007,50,64,0
88.13821,88.4007,38,46,0
88.4007,88.4382,54,56,0
88.4007,88.4382,42,39,0
88.4382,88.51192,52,59,0
88.4382,88.51192,40,42,0
88.585625,88.65933,50,57,0
88.585625,88.65933,38,40,0
88.73305,88.80621,49,60,0
88.73305,88.80621,37,44,0
88.87939,88.95256,50,56,0
88.87939,88.95256,38,39,0
89.02573,89.10305,52,63,0
89.02573,89.10305,40,45,0
89.33501,89.41115,55,52,0
89.33501,89.41115,43,37,0
89.63957,89.7163,54,58,0
89.63957,89.7163,42,40,0
89.94648,90.24648,50,63,0
89.94648,90.24648,38,59,0
90.24648,90.394264,52,58,0
90.394264,90.542046,54,59,0
90.542046,90.688385,57,60,0
90.688385,90.83473,60,61,0
90.83473,91.13103,64,62,0
91.13103,91.42732,67,61,0
91.42732,91.73189,66,60,0
91.73189,92.626686,55,55,0
91.73189,92.626686,59,57,0
92.626686,92.891174,61,60,0
92.626686,92.891174,57,58,0
92.626686,92.891174,55,58,0
92.928955,93.0771,61,58,0
93.0771,93.22525,57,53,0
93.22525,93.37525,59,57,0
93.37525,93.52525,61,55,0
93.52525,93.8306,62,59,0
93.52525,93.8306,57,59,0
93.52525,93.8306,54,59,0
93.8306,93.90467,40,44,0
93.8306,93.90467,52,61,0
93.978745,94.05282,50,59,0
93.978745,94.05282,38,41,0
94.12689,94.200424,49,62,0
94.12689,94.200424,37,45,0
94.27395,94.34748,50,58,0
94.27395,94.34748,38,40,0
94.421005,94.49893,52,63,0
94.421005,94.49893,40,45,0
94.7327,94.80884,55,52,0
94.7327,94.80884,43,37,0
95.03727,95.11419,54,58,0
95.03727,95.11419,42,40,0
95.344955,95.60746,50,64,0
95.344955,95.60746,38,46,0
95.60746,95.64496,54,56,0
95.60746,95.64496,42,39,0
95.64496,95.718666,52,59,0
95.64496,95.718666,40,42,0
95.79238,95.86609,50,57,0
95.79238,95.86609,38,40,0
95.9398,96.01297,49,60,0
95.9398,96.01297,37,44,0
96.086136,96.15931,50,56,0
96.086136,96.15931,38,39,0
96.23248,96.3102,52,63,0
96.23248,96.3102,40,45,0
96.543365,96.6197,55,52,0
96.543365,96.6197,43,37,0
96.84871,96.92465,54,58,0
96.84871,96.92465,42,40,0
97.152504,97.4525,50,63,0
97.152504,97.4525,38,59,0
97.4525,97.59992,52,58,0
97.59992,97.747345,54,59,0
97.747345,97.892975,57,60,0
97.892975,98.038605,60,61,0
98.038605,98.3349,64,62,0
98.3349,98.631195,67,61,0
98.631195,98.93577,66,60,0
98.93577,99.83057,55,55,0
98.93577,99.83057,59,57,0
99.83057,100.09505,61,60,0
99.83057,100.09505,57,58,0
99.83057,100.09505,55,58,0
100.13283,100.280975,61,58,0
100.280975,100.42912,57,53,0
100.42912,100.579124,59,57,0
100.579124,100.729126,61,55,0
100.729126,101.03369,62,59,0
100.729126,101.03369,57,59,0
100.729126,101.03369,54,59,0
101.03369,101.107765,38,44,0
101.03369,101.107765,50,61,0
101.18185,101.25592,49,59,0
101.18185,101.25592,37,41,0
101.329994,101.40407,50,62,0
101.329994,101.40407,38,45,0
101.62629,101.70129,50,59,0
101.62629,101.70129,38,52,0
101.926285,102.00036,45,44,0
101.926285,102.00036,57,61,0
102.07443,102.148506,54,59,0
102.07443,102.148506,42,41,0
102.22258,102.297585,50,62,0
102.22258,102.297585,38,45,0
102.52258,102.59758,69,46,0
102.52258,102.59758,60,46,0
102.52258,102.59758,62,46,0
102.52258,102.59758,66,46,0
102.672585,102.74758,69,42,0
102.672585,102.74758,60,42,0
102.672585,102.74758,62,42,0
102.672585,102.74758,66,42,0
102.822586,102.89815,69,45,0
102.822586,102.89815,60,45,0
102.822586,102.89815,62,45,0
102.822586,102.89815,66,45,0
103.12485,103.19985,69,44,0
103.12485,103.19985,60,44,0
103.12485,103.19985,62,44,0
103.12485,103.19985,66,44,0
103.27485,103.34985,69,41,0
103.27485,103.34985,60,41,0
103.27485,103.34985,62,41,0
103.27485,103.34985,66,41,0
103.42485,103.49985,71,44,0
103.42485,103.49985,59,44,0
103.42485,103.49985,62,44,0
103.42485,103.49985,67,44,0
103.72485,103.87485,71,49,0
103.72485,103.87485,59,41,0
103.72485,103.87485,62,41,0
103.72485,103.87485,67,49,0
103.87485,104.02485,71,47,0
103.87485,104.02485,59,39,0
103.87485,104.02485,62,39,0
103.87485,104.02485,67,47,0
104.02485,104.25621,71,49,0
104.02485,104.25621,59,41,0
104.02485,104.25621,62,41,0
104.02485,104.25621,67,49,0
104.936844,105.087975,64,48,0
105.087975,105.23911,65,49,0
104.63908,105.23911,62,53,0
104.333336,105.23911,67,53,0
104.333336,105.23911,58,53,0
105.23911,105.31603,66,56,0
105.23911,105.31603,62,56,0
105.23911,105.31603,57,56,0
105.54681,105.62218,50,59,0
105.84831,105.92484,66,52,0
105.84831,105.92484,62,52,0
105.84831,105.92484,57,52,0
106.154434,106.230965,67,55,0
106.154434,106.230965,62,55,0
106.154434,106.230965,58,55,0
106.460556,106.536125,50,59,0
106.762825,106.83916,67,51,0
106.762825,106.83916,62,51,0
106.762825,106.83916,58,51,0
107.06817,107.1445,66,55,0
107.06817,107.1445,62,55,0
107.37351,107.449844,54,61,0
107.37351,107.449844,42,61,0
107.526184,107.602516,52,57,0
107.526184,107.602516,40,57,0
107.678856,107.75719,50,62,0
107.678856,107.75719,38,62,0
107.99217,108.29674,62,59,0
107.99217,108.29674,57,59,0
107.99217,108.29674,54,59,0
108.29674,108.37081,38,44,0
108.29674,108.37081,50,61,0
108.444885,108.51896,49,59,0
108.444885,108.51896,37,41,0
108.59303,108.66711,50,62,0
108.59303,108.66711,38,45,0
108.88933,108.96433,50,59,0
108.88933,108.96433,38,52,0
109.18933,109.263405,45,44,0
109.18933,109.263405,57,61,0
109.33748,109.41155,54,59,0
109.33748,109.41155,42,41,0
109.48563,109.56063,50,62,0
109.48563,109.56063,38,45,0
109.78563,109.86063,69,46,0
109.78563,109.86063,60,46,0
109.78563,109.86063,62,46,0
109.78563,109.86063,66,46,0
109.93563,110.01063,69,42,0
109.93563,110.01063,60,42,0
109.93563,110.01063,62,42,0
109.93563,110.01063,66,42,0
110.085625,110.161194,69,45,0
110.085625,110.161194,60,45,0
110.085625,110.161194,62,45,0
110.085625,110.161194,66,45,0
110.38789,110.46289,69,44,0
110.38789,110.46289,60,44,0
110.38789,110.46289,62,44,0
110.38789,110.46289,66,44,0
110.537895,110.61289,69,41,0
110.537895,110.61289,60,41,0
110.537895,110.61289,62,41,0
110.537895,110.61289,66,41,0
110.6879,110.76289,71,44,0
110.6879,110.76289,59,44,0
110.6879,110.76289,62,44,0
110.6879,110.76289,67,44,0
110.98789,111.13789,71,49,0
110.98789,111.13789,59,41,0
110.98789,111.13789,62,41,0
110.98789,111.13789,67,49,0
111.13789,111.287895,71,47,0
111.13789,111.287895,59,39,0
111.13789,111.287895,62,39,0
111.13789,111.287895,67,47,0
111.287895,111.51926,71,49,0
111.287895,111.51926,59,41,0
111.287895,111.51926,62,41,0
111.287895,111.51926,67,49,0
112.19915,112.34991,64,48,0
112.34991,112.500656,65,49,0
111.90212,112.500656,62,53,0
111.596375,112.500656,67,53,0
111.596375,112.500656,58,53,0
112.500656,112.57758,66,56,0
112.500656,112.57758,62,56,0
112.500656,112.57758,57,56,0
112.80835,112.88373,50,59,0
113.10986,113.18639,66,52,0
113.10986,113.18639,62,52,0
113.10986,113.18639,57,52,0
113.415985,113.492516,67,55,0
113.415985,113.492516,62,55,0
113.415985,113.492516,58,55,0
113.72211,113.79767,50,59,0
114.02437,114.10071,67,51,0
114.02437,114.10071,62,51,0
114.02437,114.10071,58,51,0
114.32971,114.40605,66,55,0
114.32971,114.40605,62,55,0
114.635056,114.711006,54,59,0
114.635056,114.711006,42,59,0
114.78696,114.86291,52,55,0
114.78696,114.86291,40,55,0
114.93886,115.016174,50,60,0
114.93886,115.016174,38,60,0
115.55741,115.63355,42,52,0
115.709694,115.785835,40,49,0
115.861984,115.9389,38,53,0
115.24813,116.16967,57,52,0
115.24813,116.16967,54,52,0
116.47736,116.553505,42,49,0
116.62965,116.705795,40,46,0
116.78194,116.85886,38,50,0
116.16967,117.08962,54,49,0
116.16967,117.08962,57,49,0
117.08962,117.16655,54,49,0
117.08962,117.16655,42,49,0
117.24347,117.3204,52,45,0
117.24347,117.3204,40,45,0
117.397316,117.47444,50,48,0
117.397316,117.47444,38,48,0
117.7058,117.78233,54,45,0
117.7058,117.78233,42,45,0
117.858864,117.935394,40,41,0
117.858864,117.935394,52,41,0
118.011925,118.09279,50,44,0
118.011925,118.09279,38,44,0
118.33537,118.41624,45,41,0
118.65882,118.74503,38,40,0
119.15365,119.92312,54,46,0
119.003654,119.92312,38,55,0
119.92312,120.00124,37,55,0
120.07937,120.15749,49,55,0
120.540184,120.85681,34,46,0
120.540184,120.85681,46,55,0
120.85681,120.935135,35,55,0
121.013466,121.0918,47,55,0
121.47392,121.551445,52,42,0
121.47392,121.784,44,55,0
121.47392,121.784,32,46,0
121.784,122.084,45,55,0
121.784,122.084,33,55,0
122.380295,122.52699,57,56,0
122.52699,122.7017,55,51,0
121.934,122.7017,52,55,0
122.380295,122.7017,45,55,0
122.8417,123.61117,54,46,0
122.6917,123.61117,38,55,0
123.61117,123.68929,37,55,0
123.76742,123.84554,49,48,0
124.22823,124.54389,34,46,0
124.22823,124.54389,46,55,0
124.710365,124.78849,54,47,0
124.554115,124.866615,35,46,0
124.554115,124.866615,47,55,0
124.866615,125.02577,31,46,0
124.866615,125.02577,43,55,0
125.18492,125.26622,52,51,0
125.18492,125.34752,33,42,0
125.510124,125.675415,54,58,0
125.510124,125.675415,38,49,0
125.18492,125.840706,45,51,0
125.840706,126.00599,50,60,0
125.840706,126.00599,57,70,0
126.65186,127.421326,54,46,0
126.50186,127.421326,38,55,0
127.421326,127.49945,37,55,0
127.577576,127.6557,49,55,0
128.03839,128.35754,34,46,0
128.03839,128.35754,46,55,0
128.35754,128.43608,35,55,0
128.51462,128.59314,47,55,0
128.97548,129.0524,52,42,0
128.97548,129.28317,44,55,0
128.97548,129.28317,32,46,0
129.28317,129.58318,45,55,0
129.28317,129.58318,33,55,0
129.87947,130.02617,57,56,0
130.02617,130.20087,55,51,0
129.43317,130.20087,52,55,0
129.87947,130.20087,45,55,0
130.34087,131.11034,54,46,0
130.19087,131.11034,38,55,0
131.11034,131.18846,37,55,0
131.26659,131.34471,49,48,0
131.7274,132.04306,34,46,0
131.7274,132.04306,46,55,0
132.20953,132.28766,54,47,0
132.05328,132.36578,35,46,0
132.05328,132.36578,47,55,0
132.36578,132.52493,31,46,0
132.36578,132.52493,43,55,0
132.6841,132.76674,52,51,0
132.6841,132.84938,33,42,0
133.01466,133.18274,54,58,0
133.01466,133.18274,38,49,0
132.6841,133.3508,45,51,0
133.3508,133.5161,50,60,0
133.3508,133.5161,57,70,0
134.01196,134.31271,66,52,0
134.31271,134.46196,67,47,0
134.46196,134.61122,66,44,0
134.61122,134.76047,64,45,0
134.76047,134.9188,66,42,0
134.9188,135.22647,67,48,0
135.22647,135.37953,67,47,0
135.37953,135.5326,71,44,0
135.5326,135.85005,67,46,0
134.01196,135.85005,62,42,0
135.85005,136.15082,66,52,0
136.15082,136.30006,67,47,0
136.30006,136.44933,66,44,0
136.44933,136.60161,64,45,0
135.85005,136.60161,62,42,0
136.60161,136.75992,62,42,0
136.75992,137.06761,64,48,0
136.75992,137.06761,57,38,0
137.06761,137.22067,67,47,0
137.22067,137.37373,66,41,0
137.37373,137.68787,67,46,0
137.37373,137.68787,57,36,0
137.68787,137.98862,66,52,0
137.98862,138.13786,67,47,0
138.13786,138.28712,66,44,0
138.28712,138.43637,64,45,0
138.43637,138.5947,66,42,0
138.5947,138.90637,67,48,0
138.90637,139.06102,67,47,0
139.06102,139.21565,71,44,0
139.21565,139.54086,67,46,0
137.68787,139.54086,62,42,0
139.54086,139.87,66,52,0
139.87,140.04288,67,47,0
140.04288,140.22746,66,44,0
140.22746,140.42546,64,45,0
139.54086,140.42546,62,42,0
140.42546,140.63235,62,42,0
140.63235,141.59258,64,48,0
140.63235,141.59258,57,38,0
141.89258,142.51204,45,55,0
141.74258,142.51204,54,46,0
141.59258,142.51204,38,55,0
142.51204,142.59016,37,55,0
142.66829,142.74641,49,55,0
143.12912,143.44408,34,46,0
143.12912,143.44408,46,55,0
143.44408,143.5224,35,55,0
143.60074,143.67906,47,55,0
144.06119,144.1381,52,42,0
144.06119,144.36888,44,55,0
144.06119,144.36888,32,46,0
144.36888,144.66888,45,55,0
144.36888,144.66888,33,55,0
144.96518,145.11188,57,56,0
145.11188,145.28658,55,51,0
144.96518,145.28658,45,55,0
144.51888,145.28658,52,55,0
145.42659,146.19604,54,46,0
145.58646,146.20647,45,55,0
145.28658,146.20647,38,55,0
146.20647,146.28459,37,55,0
146.36272,146.44084,49,48,0
146.8235,147.13899,46,55,0
146.8235,147.13899,34,46,0
147.29524,147.37337,54,47,0
147.13899,147.45149,35,46,0
147.13899,147.45149,47,55,0
147.45149,147.61235,31,46,0
147.45149,147.61235,43,55,0
147.77321,147.85564,52,51,0
147.77321,147.93805,33,42,0
148.10289,148.27095,54,58,0
148.10289,148.27095,38,49,0
147.77321,148.43903,45,51,0
148.43903,148.60431,50,60,0
148.43903,148.60431,57,70,0
149.10017,149.42574,62,47,0
149.42574,149.58492,64,41,0
149.58492,149.74411,62,39,0
149.74411,149.90112,61,39,0
149.90112,150.06482,62,38,0
150.06482,150.38496,64,42,0
150.38496,150.70158,61,41,0
150.70158,151.01477,64,40,0
149.10017,151.01477,47,38,0
151.01477,151.34033,62,47,0
151.34033,151.49951,64,41,0
151.49951,151.65869,62,39,0
151.65869,151.81572,61,39,0
151.81572,151.97942,62,38,0
151.01477,151.97942,47,38,0
151.97942,152.29955,64,42,0
152.29955,152.61618,61,41,0
151.97942,152.61618,52,38,0
152.61618,152.95476,58,40,0
152.61618,152.95476,54,40,0
152.95476,153.12405,59,38,0
152.95476,153.12405,47,31,0
153.12405,153.46263,54,38,0
153.46263,153.80121,54,33,0
153.80121,153.9705,54,33,0
153.9705,154.29332,52,38,0
154.29332,154.61339,52,39,0
154.61339,154.93176,52,41,0
153.9705,154.93176,45,38,0
154.93176,155.25458,50,42,0
154.93176,155.25458,54,42,0
155.25458,155.57208,54,38,0
155.57208,155.89671,58,31,0
155.57208,155.89671,54,31,0
155.89671,156.22548,59,38,0
155.89671,156.22548,55,38,0
155.89671,156.22548,47,38,0
156.22548,156.38853,47,48,0
156.38853,156.55157,46,41,0
156.55157,156.87766,47,38,0
156.87766,157.03937,52,38,0
157.03937,157.36086,52,45,0
157.36086,157.67973,52,38,0
157.67973,157.83891,52,38,0
156.87766,157.83891,45,38,0
157.83891,158.16539,50,42,0
157.83891,158.16539,54,42,0
158.16539,158.48822,54,38,0
158.48822,158.82422,58,31,0
158.48822,158.82422,54,31,0
158.82422,158.9937,47,38,0
158.9937,159.332,54,28,0
159.332,159.67247,54,26,0
159.67247,159.84431,54,25,0
160.01694,160.36485,54,23,0
160.36485,160.71552,54,20,0
160.71552,160.89732,54,19,0
159.84431,160.89732,47,23,0
160.89732,161.22289,62,47,0
161.22289,161.38206,64,41,0
161.38206,161.54126,62,39,0
161.54126,161.69827,61,39,0
161.69827,161.86197,62,38,0
161.86197,162.18211,64,42,0
162.18211,162.49873,61,41,0
162.49873,162.81192,64,40,0
160.89732,162.81192,47,38,0
162.81192,163.13748,62,47,0
163.13748,163.29666,64,41,0
163.29666,163.45584,62,39,0
163.45584,163.61287,61,39,0
163.61287,163.77657,62,38,0
162.81192,163.77657,47,38,0
163.77657,164.09671,64,42,0
164.09671,164.41333,61,41,0
163.77657,164.41333,52,38,0
164.41333,164.7519,58,40,0
164.41333,164.7519,54,40,0
164.7519,164.9212,59,38,0
164.7519,164.9212,47,31,0
164.9212,165.25978,54,38,0
165.25978,165.59836,54,33,0
165.59836,165.76765,54,33,0
165.76765,166.09047,52,38,0
166.09047,166.41054,52,39,0
166.41054,166.72891,52,41,0
165.76765,166.72891,45,38,0
166.72891,167.05173,50,42,0
166.72891,167.05173,54,42,0
167.05173,167.36923,54,38,0
167.36923,167.69386,58,31,0
167.36923,167.69386,54,31,0
167.69386,168.01224,59,38,0
167.69386,168.01224,55,38,0
167.69386,168.01224,47,38,0
168.01224,168.17397,47,47,0
168.17397,168.3357,46,41,0
168.3357,168.65913,47,38,0
168.65913,168.82085,52,38,0
168.82085,169.14233,52,47,0
169.14233,169.46121,52,38,0
169.46121,169.62039,52,38,0
168.65913,169.62039,45,38,0
169.62039,169.94687,50,42,0
169.62039,169.94687,54,42,0
169.94687,170.2697,54,38,0
170.2697,170.6057,58,31,0
170.2697,170.6057,54,31,0
170.6057,170.77519,47,38,0
170.77519,171.11348,54,28,0
171.11348,171.45395,54,26,0
171.45395,171.6258,54,25,0
171.79842,172.14633,54,23,0
172.14633,172.49776,54,20,0
172.49776,172.69777,54,19,0
171.6258,172.69777,47,23,0
173.00429,173.61177,57,81,0
173.00429,173.61177,50,69,0
172.69777,173.61177,38,61,0
172.69777,173.61177,45,73,0
173.00429,173.61177,54,69,0
173.92796,174.55515,55,67,0
173.92796,174.55515,49,67,0
173.61177,174.55515,38,61,0
173.61177,174.55515,45,73,0
173.92796,174.55515,57,80,0
174.86186,175.46709,57,78,0
174.86186,175.46709,50,66,0
174.55515,175.46709,38,61,0
174.55515,175.46709,45,73,0
174.86186,175.46709,54,66,0
175.78328,176.40843,57,77,0
175.78328,176.40843,49,65,0
175.46709,176.40843,38,61,0
175.46709,176.40843,45,73,0
175.78328,176.40843,55,65,0
176.71515,177.3151,57,77,0
176.71515,177.3151,50,77,0
176.40843,177.3151,38,61,0
176.40843,177.3151,45,73,0
176.71515,177.3151,54,77,0
177.62122,177.92578,55,69,0
177.62122,177.92578,64,81,0
177.62122,177.92578,60,69,0
177.92578,178.23717,54,61,0
177.92578,178.23717,62,73,0
177.3151,178.23717,38,61,0
177.3151,178.23717,45,73,0
177.92578,178.23717,60,61,0
178.5416,179.15198,55,67,0
178.5416,179.15198,62,80,0
178.23717,179.15198,38,61,0
178.23717,179.15198,45,73,0
178.5416,179.15198,59,67,0
179.461,180.07065,55,70,0
179.461,180.07065,64,82,0
179.15198,180.07065,38,61,0
179.15198,180.07065,45,73,0
179.461,180.07065,57,70,0
180.07065,180.35065,54,73,0
180.07065,180.35065,45,61,0
180.07065,180.35065,38,61,0
180.38768,180.4614,50,53,0
180.38768,180.4614,38,38,0
180.5351,180.60881,49,51,0
180.5351,180.60881,37,36,0
180.68253,180.75867,50,54,0
180.68253,180.75867,38,38,0
180.98709,181.06361,50,51,0
180.98709,181.06361,38,46,0
181.29321,181.36784,45,38,0
181.29321,181.36784,57,53,0
181.44246,181.51709,54,51,0
181.44246,181.51709,42,36,0
181.59172,181.66806,50,54,0
181.59172,181.66806,38,38,0
181.89706,181.97113,50,53,0
181.89706,181.97113,38,38,0
182.04521,182.11928,49,51,0
182.04521,182.11928,37,36,0
182.19336,182.26892,50,54,0
182.19336,182.26892,38,38,0
182.49562,182.5697,50,53,0
182.49562,182.5697,38,38,0
182.64377,182.71785,49,51,0
182.64377,182.71785,37,36,0
182.79192,182.86826,50,54,0
182.79192,182.86826,38,38,0
183.09726,183.17189,45,39,0
183.09726,183.17189,57,55,0
183.24652,183.32115,54,53,0
183.24652,183.32115,42,37,0
183.39577,183.47078,50,57,0
183.39577,183.47078,38,39,0
183.69577,183.7704,45,42,0
183.69577,183.7704,57,58,0
183.84503,183.91965,54,55,0
183.84503,183.91965,42,39,0
183.99428,184.06927,50,59,0
183.99428,184.06927,38,42,0
184.29428,184.36891,45,44,0
184.29428,184.36891,57,61,0
184.44353,184.51816,54,58,0
184.44353,184.51816,42,40,0
184.59279,184.66931,50,65,0
184.74585,184.82085,57,63,0
184.89584,184.97086,54,67,0
185.04585,185.12085,50,61,0
185.19585,185.27084,57,65,0
185.34586,185.42238,54,61,0
185.49892,185.57486,38,54,0
185.49892,185.57486,50,65,0
185.6508,185.72543,45,50,0
185.6508,185.72543,57,60,0
185.80006,185.8747,54,69,0
185.80006,185.8747,42,58,0
185.94931,186.02394,50,64,0
185.94931,186.02394,38,53,0
186.09857,186.17395,57,66,0
186.09857,186.17395,45,54,0
186.24933,186.32585,42,54,0
186.24933,186.32585,54,66,0
186.40239,186.70851,38,60,0
186.40239,186.70851,50,72,0
186.70851,187.01463,38,60,0
186.70851,187.01463,50,72,0
187.32076,187.62688,50,70,0
187.32076,187.62688,62,82,0
187.32076,187.62688,57,70,0
187.62688,187.933,50,70,0
187.62688,187.933,62,82,0
187.62688,187.933,57,70,0
188.23912,188.54524,50,70,0
188.23912,188.54524,62,82,0
188.23912,188.54524,57,70,0
