start_time,end_time,note_value,velocity,instrument_program_number
2.896057,3.370365,87,52,0
2.896057,3.370365,91,57,0
3.370365,3.8468256,84,49,0
3.370365,3.8468256,87,53,0
3.8468256,4.802006,91,57,0
3.8468256,4.802006,87,52,0
4.802006,5.2791944,89,57,0
4.802006,5.2791944,86,52,0
5.2791944,5.758821,87,55,0
5.2791944,5.758821,84,50,0
5.758821,6.237328,89,59,0
5.758821,6.237328,86,54,0
6.237328,6.4746137,89,55,0
6.237328,6.4746137,86,50,0
6.4746137,6.711899,87,50,0
6.4746137,6.711899,84,46,0
6.711899,7.662432,82,51,0
6.711899,7.662432,86,56,0
7.662432,7.7424297,84,51,0
7.7424297,7.8235197,82,47,0
7.8235197,7.9036016,84,51,0
7.9036016,7.9836807,82,47,0
7.9836807,8.063844,84,50,0
8.063844,8.142706,82,46,0
8.142706,8.222538,84,50,0
8.222538,8.301161,82,45,0
8.301161,8.380501,84,48,0
8.380501,8.459409,82,46,0
8.459409,8.540177,80,49,0
8.540177,8.621605,82,50,0
7.662432,8.621605,74,45,0
8.621605,9.098136,84,60,0
8.621605,9.098136,80,55,0
9.098136,9.580606,84,48,0
9.098136,9.580606,87,57,0
9.580606,10.063076,86,53,0
9.580606,10.063076,82,49,0
10.063076,10.545547,84,56,0
10.063076,10.545547,80,51,0
10.545547,11.036143,86,53,0
10.545547,11.036143,82,49,0
11.036143,11.539541,82,51,0
11.036143,11.539541,74,46,0
11.539541,14.409221,79,51,0
11.539541,14.409221,75,47,0
14.409221,14.891149,91,52,0
14.409221,14.891149,87,48,0
14.891149,15.364881,84,45,0
14.891149,15.364881,87,49,0
15.364881,16.32006,91,52,0
15.364881,16.32006,87,48,0
16.32006,16.797249,86,50,0
16.32006,16.797249,89,55,0
16.797249,17.276876,87,51,0
16.797249,17.276876,84,47,0
17.276876,17.758804,89,53,0
17.276876,17.758804,86,49,0
17.758804,17.99609,89,50,0
17.758804,17.99609,86,46,0
17.99609,18.233376,87,46,0
17.99609,18.233376,84,42,0
18.233376,19.190607,86,51,0
18.233376,19.190607,82,47,0
19.190607,19.271307,84,47,0
19.271307,19.352184,82,43,0
19.352184,19.432442,84,47,0
19.432442,19.513252,82,42,0
19.513252,19.59419,84,46,0
19.59419,19.674456,82,41,0
19.674456,19.754889,84,46,0
19.754889,19.83418,82,41,0
19.83418,19.913313,84,44,0
19.913313,19.992384,82,42,0
19.992384,20.07304,80,45,0
20.07304,20.155075,82,46,0
19.190607,20.155075,74,41,0
20.155075,20.631607,84,55,0
20.155075,20.631607,80,50,0
20.631607,21.114077,87,54,0
20.631607,21.114077,84,46,0
21.114077,21.598227,86,51,0
21.114077,21.598227,82,47,0
21.598227,22.074417,84,53,0
21.598227,22.074417,80,49,0
22.074417,22.565014,82,48,0
22.074417,22.565014,86,52,0
22.565014,23.06841,82,48,0
22.565014,23.06841,74,44,0
23.06841,25.93604,79,47,0
23.06841,25.93604,75,43,0
25.93604,26.165926,65,48,0
25.93604,26.165926,62,40,0
26.165926,26.400301,67,51,0
26.165926,26.400301,63,38,0
26.400301,26.632175,65,49,0
26.400301,26.632175,62,41,0
26.632175,26.868488,67,52,0
26.632175,26.868488,63,39,0
26.868488,27.350021,68,57,0
26.868488,27.350021,65,43,0
27.350021,27.822945,71,58,0
27.350021,27.822945,67,44,0
27.822945,28.771416,65,55,0
27.822945,28.771416,74,62,0
28.771416,31.59389,67,58,0
28.771416,31.59389,63,52,0
31.59389,31.834854,65,40,0
31.59389,31.834854,62,34,0
31.834854,32.07898,67,43,0
31.834854,32.07898,63,32,0
32.07898,32.31898,65,41,0
32.07898,32.31898,62,34,0
32.31898,32.560917,67,44,0
32.31898,32.560917,63,33,0
32.560917,33.04807,68,48,0
32.560917,33.04807,65,36,0
33.04807,33.526157,71,52,0
33.04807,33.526157,67,39,0
33.526157,34.47463,65,41,0
33.526157,34.47463,74,55,0
34.47463,37.300083,67,52,0
34.47463,37.300083,63,39,0
37.300083,37.78201,91,52,0
37.300083,37.78201,87,48,0
37.78201,38.25574,84,45,0
37.78201,38.25574,87,49,0
38.25574,39.210922,91,52,0
38.25574,39.210922,87,48,0
39.210922,39.68509,89,55,0
39.210922,39.68509,86,50,0
39.68509,40.164715,87,51,0
39.68509,40.164715,84,47,0
40.164715,40.64664,89,53,0
40.164715,40.64664,86,49,0
40.64664,40.883926,89,50,0
40.64664,40.883926,86,46,0
40.883926,41.11739,84,42,0
40.883926,41.11739,87,46,0
41.11739,42.07449,86,51,0
41.11739,42.07449,82,47,0
42.07449,42.15519,84,47,0
42.15519,42.23607,82,45,0
42.23607,42.316326,84,47,0
42.316326,42.397137,82,43,0
42.397137,42.478073,84,46,0
42.478073,42.55834,82,43,0
42.55834,42.63877,84,46,0
42.63877,42.718063,82,41,0
42.718063,42.797195,84,44,0
42.797195,42.876266,82,42,0
42.876266,42.956924,80,45,0
42.956924,43.03896,82,46,0
42.07449,43.03896,74,41,0
43.03896,43.51549,80,50,0
43.03896,43.51549,84,55,0
43.51549,43.99358,87,53,0
43.51549,43.99358,84,47,0
43.99358,44.475506,86,51,0
43.99358,44.475506,82,47,0
44.475506,44.957436,84,53,0
44.475506,44.957436,80,49,0
44.957436,45.448032,86,52,0
44.957436,45.448032,82,48,0
45.448032,45.951427,82,48,0
45.448032,45.951427,74,44,0
45.951427,48.817184,79,47,0
45.951427,48.817184,75,43,0
48.817184,49.313297,74,56,0
49.313297,49.550453,74,56,0
49.550453,49.79239,75,51,0
49.79239,50.030483,74,56,0
50.030483,50.279526,75,51,0
48.817184,50.279526,65,45,0
50.279526,50.771652,72,56,0
50.771652,51.011963,72,49,0
51.011963,51.25415,68,47,0
51.25415,51.746277,67,47,0
50.279526,51.746277,63,45,0
51.746277,52.244366,74,51,0
52.244366,52.485603,74,51,0
52.485603,52.73465,75,46,0
52.73465,52.978767,74,51,0
52.978767,53.227814,75,44,0
51.746277,53.227814,65,45,0
53.227814,54.698284,72,51,0
53.227814,54.698284,63,45,0
54.698284,55.194397,74,61,0
55.194397,55.42969,74,61,0
55.42969,55.67,75,56,0
55.67,55.90622,74,61,0
55.90622,56.155266,75,56,0
54.698284,56.155266,65,49,0
56.155266,56.64542,72,61,0
56.659275,56.89723,72,61,0
56.88293,57.12801,74,56,0
57.12801,57.368317,72,61,0
57.368317,57.617363,74,56,0
56.155266,57.617363,63,49,0
56.155266,57.617363,68,49,0
57.617363,58.04625,71,60,0
58.04625,58.107517,72,49,0
58.107517,58.348755,71,56,0
58.348755,58.59884,69,48,0
58.59884,59.127472,67,53,0
57.617363,59.127472,62,55,0
59.127472,59.633804,74,45,0
59.633804,59.879864,74,45,0
59.879864,60.13619,75,42,0
60.13619,60.384247,74,45,0
60.384247,60.6395,75,42,0
59.127472,60.6395,65,40,0
60.6395,62.193104,72,42,0
60.6395,62.193104,63,38,0
62.193104,62.69103,79,52,0
62.193104,62.69103,75,48,0
62.69103,63.178864,72,45,0
62.69103,63.178864,75,49,0
63.178864,64.137825,79,52,0
63.178864,64.137825,75,48,0
64.137825,64.61291,77,55,0
64.137825,64.61291,74,50,0
64.61291,65.09254,72,47,0
64.61291,65.09254,75,51,0
65.09254,65.57446,77,53,0
65.09254,65.57446,74,49,0
65.57446,65.811745,77,50,0
65.57446,65.811745,74,46,0
65.811745,66.049034,75,46,0
65.811745,66.049034,72,42,0
66.049034,67.00626,74,51,0
66.049034,67.00626,70,47,0
67.00626,67.08697,84,47,0
67.08697,67.16784,82,44,0
67.16784,67.2481,84,47,0
67.2481,67.32891,82,44,0
67.32891,67.40985,84,46,0
67.40985,67.49011,82,46,0
67.49011,67.57055,84,46,0
67.57055,67.64984,82,42,0
67.64984,67.72897,84,44,0
67.72897,67.808044,82,42,0
67.808044,67.8887,80,45,0
67.8887,67.97073,82,46,0
67.00626,67.97073,74,41,0
67.97073,68.447266,72,55,0
67.97073,68.447266,68,50,0
68.447266,68.92726,75,55,0
68.447266,68.92726,72,50,0
68.92726,69.41507,74,51,0
68.92726,69.41507,70,47,0
69.41507,69.89894,72,53,0
69.41507,69.89894,68,49,0
69.89894,70.38954,74,52,0
69.89894,70.38954,70,48,0
70.38954,70.89294,62,40,0
70.38954,70.89294,70,48,0
70.89294,73.75358,67,47,0
70.89294,73.75358,63,43,0
73.75358,74.247406,60,59,0
73.75358,74.247406,56,50,0
74.247406,74.741234,63,54,0
74.247406,74.741234,60,45,0
74.741234,75.26071,62,46,0
74.741234,75.26071,58,38,0
75.26071,75.79169,60,49,0
75.26071,75.79169,56,41,0
75.79169,76.36311,62,42,0
75.79169,76.36311,58,35,0
76.36311,76.97225,58,39,0
78.961205,81.211205,79,44,0
78.961205,81.211205,75,39,0
84.221924,85.21407,75,51,0
85.21407,85.84551,75,51,0
85.84551,85.96394,74,46,0
85.96394,86.08237,75,46,0
86.08237,86.2008,77,46,0
86.2008,86.70822,75,51,0
86.70822,87.22104,74,48,0
87.22104,88.09195,70,48,0
88.09195,88.21183,68,31,0
88.21183,90.1687,70,49,0
90.1687,90.67305,68,51,0
90.67305,91.0395,72,51,0
91.0395,91.161644,70,32,0
91.161644,91.79309,72,52,0
91.79309,91.91152,71,46,0
91.91152,92.029945,72,46,0
92.029945,92.14838,74,46,0
92.14838,92.62691,72,51,0
92.62691,93.16262,71,49,0
93.16262,94.14251,67,51,0
94.14251,96.10723,67,49,0
96.10723,98.54734,79,72,0
96.10723,98.54734,67,59,0
98.54734,98.67509,69,45,0
98.67509,98.80283,71,45,0
98.80283,98.93058,72,45,0
98.93058,99.05833,74,45,0
99.05833,101.980156,72,48,0
101.980156,102.96312,79,78,0
102.96312,103.59457,79,79,0
103.59457,103.71299,78,67,0
103.71299,103.83142,79,67,0
103.83142,103.949844,81,62,0
103.949844,104.45016,79,75,0
104.45016,104.9674,78,70,0
104.9674,105.84241,74,70,0
105.84241,105.96229,72,46,0
105.96229,107.91796,74,64,0
107.91796,108.89006,75,72,0
108.89006,109.52151,75,70,0
109.52151,109.63994,75,60,0
109.63994,109.75836,78,60,0
109.75836,109.88299,75,56,0
109.88299,110.37203,78,64,0
110.37203,110.88485,74,58,0
110.88485,111.868454,77,61,0
111.868454,112.36963,76,58,0
112.36963,112.48868,72,42,0
112.509964,112.633934,72,46,0
112.633934,112.7579,75,46,0
112.7579,112.88252,74,42,0
112.88252,113.389946,75,48,0
113.389946,113.89415,74,43,0
113.89415,114.928276,71,48,0
114.928276,116.43565,67,45,0
116.43565,116.5634,69,37,0
116.5634,116.69115,71,36,0
116.69115,116.81889,72,36,0
116.81889,116.94664,74,37,0
116.94664,119.91223,72,44,0
119.91223,120.87445,75,46,0
120.87445,121.50589,75,46,0
121.50589,121.62667,74,40,0
121.62667,121.74862,75,40,0
121.74862,121.870575,77,40,0
121.870575,122.35048,75,46,0
122.35048,122.8862,74,43,0
122.8862,123.74513,70,43,0
123.74513,123.86502,68,28,0
123.86502,125.80657,70,44,0
125.80657,126.28831,68,46,0
126.28831,126.654755,72,46,0
126.654755,126.7769,70,42,0
126.7769,127.40835,72,47,0
127.40835,127.52678,71,40,0
127.52678,127.6452,72,40,0
127.6452,127.76363,74,40,0
127.76363,128.23604,72,46,0
128.23604,128.767,71,44,0
128.767,129.75102,67,46,0
129.75102,131.71964,67,44,0
131.71964,134.21391,79,71,0
131.71964,134.21391,67,58,0
134.21391,134.34166,69,43,0
134.34166,134.4694,71,37,0
134.4694,134.59715,72,43,0
134.59715,134.7249,74,37,0
134.7249,137.72243,72,46,0
140.61848,141.0928,91,57,0
140.61848,141.0928,87,52,0
141.0928,141.56926,84,49,0
141.0928,141.56926,87,53,0
141.56926,142.52444,91,57,0
141.56926,142.52444,87,52,0
142.52444,142.99672,89,57,0
142.52444,142.99672,86,52,0
142.99672,143.47635,87,55,0
142.99672,143.47635,84,50,0
143.47635,143.95485,89,59,0
143.47635,143.95485,86,54,0
143.95485,144.19107,89,55,0
143.95485,144.19107,86,50,0
144.19107,144.42917,87,50,0
144.19107,144.42917,84,46,0
144.42917,145.38051,86,56,0
144.42917,145.38051,82,51,0
145.38051,145.46051,84,51,0
145.46051,145.5416,82,47,0
145.5416,145.62167,84,51,0
145.62167,145.70175,82,47,0
145.70175,145.78192,84,50,0
145.78192,145.86078,82,47,0
145.86078,145.94061,84,50,0
145.94061,146.01924,82,47,0
146.01924,146.09857,84,48,0
146.09857,146.17749,82,46,0
146.17749,146.25826,80,49,0
146.25826,146.33968,82,50,0
145.38051,146.33968,74,45,0
146.33968,146.81621,84,60,0
146.33968,146.81621,80,55,0
146.81621,147.29868,87,55,0
146.81621,147.29868,84,50,0
147.29868,147.78114,86,53,0
147.29868,147.78114,82,49,0
147.78114,148.26363,84,56,0
147.78114,148.26363,80,51,0
148.26363,148.75949,86,53,0
148.26363,148.75949,82,49,0
148.75949,149.2629,82,51,0
148.75949,149.2629,74,47,0
149.2629,152.13257,79,51,0
149.2629,152.13257,75,47,0
152.13257,152.3645,65,48,0
152.13257,152.3645,62,40,0
152.3645,152.59886,67,51,0
152.3645,152.59886,63,38,0
152.59886,152.82787,65,49,0
152.59886,152.82787,62,41,0
152.82787,153.06503,67,52,0
152.82787,153.06503,63,39,0
153.06503,153.54643,68,57,0
153.06503,153.54643,65,43,0
153.54643,154.0194,71,58,0
153.54643,154.0194,67,44,0
154.0194,154.96411,74,62,0
154.0194,154.96411,65,55,0
154.96411,157.79095,67,58,0
154.96411,157.79095,63,52,0
157.79095,158.0319,65,40,0
157.79095,158.0319,62,34,0
158.0319,158.27602,67,43,0
158.0319,158.27602,63,32,0
158.27602,158.51604,65,41,0
158.27602,158.51604,62,34,0
158.51604,158.75797,67,44,0
158.51604,158.75797,63,33,0
158.75797,159.2451,68,48,0
158.75797,159.2451,65,36,0
159.2451,159.7232,71,52,0
159.2451,159.7232,67,39,0
159.7232,160.66975,74,55,0
159.7232,160.66975,65,41,0
160.66975,163.49844,67,52,0
160.66975,163.49844,63,39,0
163.49844,163.98036,91,52,0
163.49844,163.98036,87,48,0
163.98036,164.45413,84,45,0
163.98036,164.45413,87,49,0
164.45413,165.40927,91,52,0
164.45413,165.40927,87,48,0
165.40927,165.88347,89,55,0
165.40927,165.88347,86,50,0
165.88347,166.36307,87,51,0
165.88347,166.36307,84,47,0
166.36307,166.845,89,53,0
166.36307,166.845,86,49,0
166.845,167.08229,89,50,0
166.845,167.08229,86,46,0
167.08229,167.31578,87,46,0
167.08229,167.31578,84,42,0
167.31578,168.27284,86,51,0
167.31578,168.27284,82,47,0
168.27284,168.35355,84,47,0
168.35355,168.43442,82,44,0
168.43442,168.51466,84,47,0
168.51466,168.59549,82,43,0
168.59549,168.67642,84,46,0
168.67642,168.75668,82,42,0
168.75668,168.83714,84,46,0
168.83714,168.91643,82,42,0
168.91643,168.99556,84,44,0
168.99556,169.07465,82,42,0
169.07465,169.15526,80,45,0
169.15526,169.23729,82,46,0
168.27284,169.23729,74,41,0
169.23729,169.70815,84,55,0
169.23729,169.70815,80,50,0
169.70815,170.18816,87,53,0
169.70815,170.18816,84,48,0
170.18816,170.67502,86,51,0
170.18816,170.67502,82,47,0
170.67502,171.15695,84,53,0
170.67502,171.15695,80,49,0
171.15695,171.64752,86,52,0
171.15695,171.64752,82,48,0
171.64752,172.1509,82,48,0
171.64752,172.1509,74,44,0
172.1509,175.0115,79,47,0
172.1509,175.0115,75,43,0
175.0115,175.50609,74,56,0
175.50609,175.74138,74,56,0
175.74138,175.98143,75,51,0
175.98143,176.21858,74,56,0
176.21858,176.46736,75,51,0
175.0115,176.46736,65,45,0
176.46736,176.95901,72,56,0
176.95901,177.1991,72,49,0
177.1991,177.44104,68,47,0
177.44104,177.93266,67,47,0
176.46736,177.93266,63,45,0
177.93266,178.43028,74,51,0
178.43028,178.67133,74,51,0
178.67133,178.9201,75,47,0
178.9201,179.16402,74,51,0
179.16402,179.41281,75,45,0
177.93266,179.41281,65,45,0
179.41281,180.88185,72,51,0
179.41281,180.88185,63,45,0
180.88185,181.37746,74,61,0
181.37746,181.61276,74,61,0
181.61276,181.8528,75,56,0
181.8528,182.08902,74,61,0
182.08902,182.33778,75,56,0
180.88185,182.33778,65,49,0
182.33778,182.82747,72,61,0
182.84134,183.07904,72,61,0
183.06479,183.3096,74,56,0
183.3096,183.54967,72,61,0
183.54967,183.79846,74,56,0
182.33778,183.79846,68,49,0
182.33778,183.79846,63,49,0
183.79846,184.22694,71,60,0
184.22694,184.28815,72,49,0
184.28815,184.52916,71,56,0
184.52916,184.77896,69,49,0
184.77896,185.29845,67,52,0
183.79846,185.29845,62,55,0
185.29845,185.80692,74,45,0
185.80692,186.05676,74,45,0
186.05676,186.3147,75,42,0
186.3147,186.5668,74,45,0
186.5668,186.82654,75,42,0
185.29845,186.82654,65,40,0
186.82654,188.36642,72,42,0
186.82654,188.36642,63,38,0
188.36642,188.86435,79,52,0
188.36642,188.86435,75,48,0
188.86435,189.34828,72,45,0
188.86435,189.34828,75,49,0
189.34828,190.31017,79,52,0
189.34828,190.31017,75,48,0
190.31017,190.78526,77,55,0
190.31017,190.78526,74,50,0
190.78526,191.26486,75,51,0
190.78526,191.26486,72,47,0
191.26486,191.7468,77,53,0
191.26486,191.7468,74,49,0
191.7468,191.9841,77,50,0
191.7468,191.9841,74,46,0
191.9841,192.22139,75,46,0
191.9841,192.22139,72,42,0
192.22139,193.17859,74,51,0
192.22139,193.17859,70,47,0
193.17859,193.25931,72,47,0
193.25931,193.34018,70,41,0
193.34018,193.42043,72,47,0
193.42043,193.50125,70,39,0
193.50125,193.58217,72,46,0
193.58217,193.66245,70,40,0
193.66245,193.74289,72,46,0
193.74289,193.82217,70,39,0
193.82217,193.90132,72,44,0
193.90132,193.9804,70,38,0
193.9804,194.06102,68,45,0
194.06102,194.14305,70,46,0
193.17859,194.14305,62,41,0
194.14305,194.61961,72,55,0
194.14305,194.61961,68,50,0
194.61961,195.10207,75,55,0
194.61961,195.10207,72,50,0
195.10207,195.5882,74,51,0
195.10207,195.5882,70,47,0
195.5882,196.07013,72,53,0
195.5882,196.07013,68,49,0
196.07013,196.56071,74,52,0
196.07013,196.56071,70,48,0
196.56071,197.06409,70,48,0
196.56071,197.06409,62,44,0
197.06409,199.92195,67,47,0
197.06409,199.92195,63,43,0
199.92195,200.41577,60,59,0
199.92195,200.41577,56,50,0
200.41577,200.9264,63,54,0
200.41577,200.9264,60,45,0
200.9264,201.45273,62,46,0
200.9264,201.45273,58,38,0
201.45273,202.0161,60,49,0
201.45273,202.0161,56,41,0
202.0161,202.63466,62,41,0
202.0161,202.63466,58,31,0
202.63466,203.294,58,41,0
205.35114,207.40828,79,44,0
205.35114,207.40828,75,39,0
0.0,0.247934,60,37,0
0.247934,0.4898695,62,30,0
0.4898695,0.7289135,63,37,0
0.7289135,0.9660675,67,29,0
0.9660675,1.208003,63,33,0
1.208003,1.4499385,62,30,0
1.4499385,1.69584,60,37,0
1.69584,1.93584,62,31,0
1.93584,2.173935,63,37,0
2.173935,2.4101555,67,31,0
2.4101555,2.6501555,63,35,0
2.6501555,2.896057,62,30,0
2.896057,3.133211,60,35,0
3.133211,3.370365,62,31,0
3.370365,3.6142676,63,35,0
3.6142676,3.8468256,67,30,0
3.8468256,4.083046,63,33,0
4.083046,4.3252745,62,29,0
4.3252745,4.561737,60,35,0
4.561737,4.802006,62,29,0
4.802006,5.0417967,60,31,0
5.0417967,5.2791944,62,27,0
5.2791944,5.5165925,63,31,0
5.5165925,5.758821,67,27,0
5.758821,5.9980745,60,35,0
5.9980745,6.237328,62,31,0
6.237328,6.4746137,65,34,0
6.4746137,6.711899,70,29,0
6.711899,6.9491844,65,31,0
6.9491844,7.190439,62,29,0
7.190439,7.425034,60,33,0
7.425034,7.662432,62,28,0
7.662432,7.9036016,65,35,0
7.9036016,8.142706,70,30,0
8.142706,8.380501,65,34,0
8.380501,8.621605,58,29,0
8.621605,8.859871,56,39,0
8.859871,9.098136,58,33,0
9.098136,9.339372,60,36,0
9.339372,9.580606,63,32,0
9.580606,9.821841,65,35,0
9.821841,10.063076,67,29,0
10.063076,10.304311,68,34,0
10.304311,10.545547,70,31,0
10.545547,10.790845,68,34,0
10.790845,11.036143,70,31,0
11.036143,11.287842,56,32,0
11.287842,11.539541,58,31,0
11.539541,11.776939,60,37,0
11.776939,12.019168,62,31,0
12.019168,12.2556305,63,37,0
12.2556305,12.493725,67,29,0
12.493725,12.730187,63,35,0
12.730187,12.971442,62,30,0
12.971442,13.207905,60,37,0
13.207905,13.4481735,62,30,0
13.4481735,13.685572,63,35,0
13.685572,13.924616,67,29,0
13.924616,14.162975,63,35,0
14.162975,14.409221,62,31,0
14.409221,14.650185,60,32,0
14.650185,14.891149,62,29,0
14.891149,15.131418,63,32,0
15.131418,15.364881,67,28,0
15.364881,15.601101,63,30,0
15.601101,15.843329,62,27,0
15.843329,16.079792,60,32,0
16.079792,16.32006,62,27,0
16.32006,16.559853,60,29,0
16.559853,16.797249,62,25,0
16.797249,17.034647,63,28,0
17.034647,17.276876,67,25,0
17.276876,17.51784,60,32,0
17.51784,17.758804,62,29,0
17.758804,17.99609,65,31,0
17.99609,18.233376,70,27,0
18.233376,18.470661,65,29,0
18.470661,18.711916,62,27,0
18.711916,18.948378,60,30,0
18.948378,19.190607,62,26,0
19.190607,19.432442,65,32,0
19.432442,19.674456,70,28,0
19.674456,19.913313,65,31,0
19.913313,20.155075,58,27,0
20.155075,20.393341,56,36,0
20.393341,20.631607,58,30,0
20.631607,20.87284,60,33,0
20.87284,21.114077,63,32,0
21.114077,21.355312,65,32,0
21.355312,21.598227,67,27,0
21.598227,21.83632,68,33,0
21.83632,22.074417,70,30,0
22.074417,22.319715,68,33,0
22.319715,22.565014,70,29,0
22.565014,22.816713,56,31,0
22.816713,23.06841,58,29,0
23.06841,23.304874,60,34,0
23.304874,23.547102,62,29,0
23.547102,23.7845,63,33,0
23.7845,24.022596,67,27,0
24.022596,24.259058,63,32,0
24.259058,24.501286,62,28,0
24.501286,24.738684,60,34,0
24.738684,24.979939,62,28,0
24.979939,25.217337,63,32,0
25.217337,25.455433,67,27,0
25.455433,25.69283,63,32,0
25.69283,25.93604,62,29,0
25.93604,26.165926,58,47,0
26.165926,26.400301,56,41,0
26.400301,26.632175,58,47,0
26.632175,26.868488,56,39,0
26.868488,27.104803,53,44,0
27.104803,27.350021,51,39,0
27.350021,27.586483,50,48,0
27.586483,27.822945,48,44,0
27.822945,28.057358,47,47,0
28.057358,28.291769,44,49,0
28.291769,28.529188,41,50,0
28.529188,28.771416,39,49,0
28.771416,29.00601,38,57,0
29.00601,29.243164,36,52,0
29.243164,29.47776,38,52,0
29.47776,29.718029,39,48,0
29.718029,29.953545,43,52,0
29.953545,30.192856,48,47,0
30.192856,30.429165,50,52,0
30.429165,30.66079,51,46,0
30.66079,30.892412,53,47,0
30.892412,31.124037,51,47,0
31.124037,31.355661,50,45,0
31.355661,31.59389,51,44,0
31.59389,31.834854,58,39,0
31.834854,32.07898,56,34,0
32.07898,32.31898,58,39,0
32.31898,32.560917,56,33,0
32.560917,32.802853,53,37,0
32.802853,33.04807,51,33,0
33.04807,33.287113,50,43,0
33.287113,33.526157,48,39,0
33.526157,33.760567,47,42,0
33.760567,33.99498,44,44,0
33.99498,34.2324,41,45,0
34.2324,34.47463,39,44,0
34.47463,34.70922,38,51,0
34.70922,34.94949,36,46,0
34.94949,35.184086,38,46,0
35.184086,35.42124,39,43,0
35.42124,35.656757,43,46,0
35.656757,35.89607,48,42,0
35.89607,36.132374,50,46,0
36.132374,36.364,51,41,0
36.364,36.595623,53,42,0
36.595623,36.827255,51,42,0
36.827255,37.061985,50,40,0
37.061985,37.300083,51,39,0
37.300083,37.541046,60,32,0
37.541046,37.78201,62,29,0
37.78201,38.022278,63,30,0
38.022278,38.25574,67,28,0
38.25574,38.491962,63,29,0
38.491962,38.73419,62,27,0
38.73419,38.970654,60,32,0
38.970654,39.210922,62,27,0
39.210922,39.450714,60,29,0
39.450714,39.68509,62,25,0
39.68509,39.922485,63,30,0
39.922485,40.164715,67,25,0
40.164715,40.405678,60,32,0
40.405678,40.64664,62,29,0
40.64664,40.883926,65,31,0
40.883926,41.11739,70,27,0
41.11739,41.354546,65,29,0
41.354546,41.5958,62,27,0
41.5958,41.83226,60,30,0
41.83226,42.07449,62,26,0
42.07449,42.316326,65,32,0
42.316326,42.55834,70,28,0
42.55834,42.797195,65,31,0
42.797195,43.03896,58,27,0
43.03896,43.277225,56,36,0
43.277225,43.51549,58,30,0
43.51549,43.754536,60,33,0
43.754536,43.99358,63,32,0
43.99358,44.234543,65,32,0
44.234543,44.475506,67,27,0
44.475506,44.71647,68,33,0
44.71647,44.957436,70,30,0
44.957436,45.202732,68,33,0
45.202732,45.448032,70,29,0
45.448032,45.69973,56,32,0
45.69973,45.951427,58,31,0
45.951427,46.187893,60,34,0
46.187893,46.43012,62,29,0
46.43012,46.66752,63,32,0
46.66752,46.905613,67,27,0
46.905613,47.142075,63,32,0
47.142075,47.384304,62,28,0
47.384304,47.6217,60,34,0
47.6217,47.862957,62,28,0
47.862957,48.100353,63,32,0
48.100353,48.336575,67,27,0
48.336575,48.573975,63,32,0
48.573975,48.817184,55,29,0
48.817184,50.279526,43,34,0
48.817184,50.279526,59,38,0
50.279526,51.746277,55,34,0
50.279526,51.746277,48,30,0
51.746277,53.227814,43,34,0
51.746277,53.227814,59,38,0
53.227814,54.698284,48,30,0
53.227814,54.698284,55,34,0
54.698284,56.155266,46,45,0
56.155266,57.617363,41,49,0
57.617363,59.127472,43,38,0
59.127472,60.6395,43,30,0
59.127472,60.6395,59,34,0
60.6395,62.193104,60,28,0
60.6395,62.193104,55,25,0
60.6395,62.193104,48,25,0
62.193104,62.442066,48,32,0
62.442066,62.69103,50,29,0
62.69103,62.936928,51,32,0
62.936928,63.178864,55,28,0
63.178864,63.418865,51,30,0
63.418865,63.66109,50,27,0
63.66109,63.897556,48,32,0
63.897556,64.137825,50,27,0
64.137825,64.37762,48,29,0
64.37762,64.61291,50,25,0
64.61291,64.8503,51,28,0
64.8503,65.09254,55,25,0
65.09254,65.333496,48,32,0
65.333496,65.57446,50,29,0
65.57446,65.811745,53,31,0
65.811745,66.049034,58,27,0
66.049034,66.286316,53,29,0
66.286316,66.52757,50,27,0
66.52757,66.76404,48,30,0
66.76404,67.00626,50,26,0
67.00626,67.2481,53,32,0
67.2481,67.49011,58,28,0
67.49011,67.72897,53,31,0
67.72897,67.97073,46,27,0
67.97073,68.209,44,36,0
68.209,68.447266,46,30,0
68.447266,68.68726,48,33,0
68.68726,68.92726,51,32,0
68.92726,69.171165,53,32,0
69.171165,69.41507,55,27,0
69.41507,69.657005,56,33,0
69.657005,69.89894,58,30,0
69.89894,70.14424,56,33,0
70.14424,70.38954,58,29,0
70.38954,70.641235,44,31,0
70.641235,70.89294,46,29,0
70.89294,71.1294,48,37,0
71.1294,71.37163,50,32,0
71.37163,71.609024,48,36,0
71.609024,71.846176,50,31,0
71.846176,72.08264,48,39,0
72.08264,72.32487,46,34,0
72.32487,72.562965,44,44,0
72.562965,72.79734,46,37,0
72.79734,73.031715,44,42,0
73.031715,73.27297,46,37,0
73.27297,73.51037,44,45,0
73.51037,73.75358,43,42,0
76.36311,76.97225,50,33,0
73.75358,76.97225,41,50,0
76.97225,78.961205,55,38,0
76.97225,78.961205,51,32,0
76.97225,78.961205,36,28,0
78.961205,81.211205,60,25,0
78.961205,81.211205,67,29,0
81.4827,81.75419,55,29,0
81.75419,82.004776,60,24,0
81.75419,82.004776,63,29,0
82.004776,82.25427,55,25,0
82.25427,82.50246,63,29,0
82.25427,82.50246,60,24,0
82.50246,82.749596,55,25,0
82.749596,82.999596,63,29,0
82.749596,82.999596,60,24,0
82.999596,83.24788,55,25,0
83.24788,83.49412,63,29,0
83.24788,83.49412,60,24,0
83.49412,83.738686,55,24,0
83.738686,83.98128,63,29,0
83.738686,83.98128,60,24,0
83.98128,84.221924,55,25,0
81.211205,84.221924,36,33,0
84.221924,84.47833,36,33,0
84.47833,84.726265,55,29,0
84.726265,84.97017,63,29,0
84.726265,84.97017,60,24,0
84.97017,85.21407,55,25,0
85.21407,85.46465,63,29,0
85.21407,85.46465,60,24,0
85.46465,85.71524,55,25,0
85.71524,85.96394,63,29,0
85.71524,85.96394,60,24,0
86.2008,86.44273,63,29,0
85.96394,86.44273,55,35,0
86.70822,86.96463,65,29,0
86.44273,86.96463,56,35,0
86.96463,87.22104,53,29,0
87.22104,87.48191,36,33,0
87.48191,87.72781,55,27,0
87.72781,87.970566,62,29,0
87.72781,87.970566,58,24,0
87.970566,88.21183,55,26,0
88.21183,88.45066,58,24,0
88.21183,88.45066,62,29,0
88.45066,88.689026,55,25,0
88.689026,88.92594,58,24,0
88.689026,88.92594,62,29,0
89.1687,89.4187,62,29,0
89.1687,89.4187,58,24,0
88.92594,89.4187,53,34,0
89.6687,89.9187,58,24,0
89.6687,89.9187,62,29,0
89.4187,89.9187,55,35,0
89.9187,90.1687,51,31,0
90.1687,90.41663,36,33,0
90.41663,90.67305,53,29,0
90.67305,90.91734,60,29,0
90.67305,90.91734,56,24,0
90.91734,91.161644,53,25,0
91.161644,91.41223,60,29,0
91.161644,91.41223,56,24,0
91.41223,91.66282,53,25,0
91.66282,91.91152,60,29,0
91.66282,91.91152,56,24,0
92.14838,92.381004,60,29,0
92.14838,92.381004,56,24,0
91.91152,92.381004,51,32,0
92.62691,92.89476,60,26,0
92.62691,92.89476,56,19,0
92.381004,92.89476,53,30,0
92.89476,93.16262,50,28,0
93.16262,93.41055,36,33,0
93.41055,93.658485,51,30,0
93.658485,93.901245,60,29,0
93.658485,93.901245,55,24,0
93.901245,94.14251,51,26,0
94.14251,94.38134,55,24,0
94.14251,94.38134,60,29,0
94.38134,94.6197,51,25,0
94.6197,94.85662,55,27,0
94.6197,94.85662,60,32,0
95.09938,95.352196,60,44,0
95.09938,95.352196,55,35,0
94.85662,95.352196,50,41,0
95.60014,95.847435,55,44,0
95.60014,95.847435,60,53,0
95.352196,95.847435,51,52,0
95.847435,96.10723,48,51,0
96.10723,96.35305,43,48,0
96.35305,96.59887,55,43,0
96.59887,96.84317,60,37,0
96.59887,96.84317,65,45,0
96.84317,97.08747,55,37,0
97.08747,97.33023,59,40,0
97.08747,97.33023,65,48,0
97.33023,97.57299,55,38,0
97.57299,97.81426,57,38,0
97.57299,97.81426,65,46,0
97.81426,98.055534,55,35,0
98.055534,98.30144,59,33,0
98.055534,98.30144,65,39,0
98.30144,98.54734,55,30,0
98.54734,98.80283,65,36,0
98.80283,99.05833,55,33,0
99.314735,99.564735,55,29,0
99.564735,99.81456,60,24,0
99.564735,99.81456,63,29,0
99.81456,100.062325,55,25,0
100.062325,100.30806,63,29,0
100.062325,100.30806,60,24,0
100.30806,100.5518,55,25,0
100.5518,100.79069,63,31,0
100.5518,100.79069,60,26,0
100.79069,101.028496,55,28,0
101.028496,101.266785,63,36,0
101.028496,101.266785,60,29,0
101.266785,101.50319,55,31,0
101.50319,101.74241,63,41,0
101.50319,101.74241,60,33,0
101.74241,101.980156,55,37,0
99.05833,101.980156,36,33,0
101.980156,102.24103,36,53,0
102.24103,102.48693,55,41,0
102.48693,102.72502,63,41,0
102.48693,102.72502,60,34,0
102.72502,102.96312,55,36,0
102.96312,103.21371,63,41,0
102.96312,103.21371,60,34,0
103.21371,103.46429,55,36,0
103.46429,103.71299,63,41,0
103.46429,103.71299,60,34,0
103.949844,104.19375,63,41,0
103.949844,104.19375,60,37,0
103.71299,104.19375,55,52,0
104.45016,104.70878,63,41,0
104.45016,104.70878,60,37,0
104.19375,104.70878,58,52,0
104.70878,104.9674,57,41,0
104.9674,105.22827,36,49,0
105.22827,105.47827,54,38,0
105.47827,105.72103,62,41,0
105.47827,105.72103,57,34,0
105.72103,105.96229,54,37,0
105.96229,106.20112,57,34,0
105.96229,106.20112,62,41,0
106.20112,106.43948,54,36,0
106.43948,106.6764,57,34,0
106.43948,106.6764,62,41,0
106.91916,107.16192,62,41,0
106.91916,107.16192,57,34,0
106.6764,107.16192,54,50,0
107.40468,107.65678,57,34,0
107.40468,107.65678,62,41,0
107.16192,107.65678,52,52,0
107.65678,107.91796,54,46,0
107.91796,108.17007,36,51,0
108.17007,108.410065,55,40,0
108.410065,108.65006,63,40,0
108.410065,108.65006,60,33,0
108.65006,108.89006,55,35,0
108.89006,109.14065,63,40,0
108.89006,109.14065,60,33,0
109.14065,109.391235,55,35,0
109.391235,109.63994,63,40,0
109.391235,109.63994,60,33,0
109.88299,110.11562,63,40,0
109.88299,110.11562,60,36,0
109.63994,110.11562,58,47,0
110.37203,110.62844,66,40,0
110.37203,110.62844,60,36,0
110.11562,110.62844,57,42,0
110.62844,110.88485,54,39,0
110.88485,111.13075,36,42,0
111.13075,111.376656,56,37,0
111.376656,111.62256,65,40,0
111.376656,111.62256,60,33,0
111.62256,111.868454,56,35,0
111.868454,112.11904,67,40,0
111.868454,112.11904,60,33,0
112.11904,112.36963,55,35,0
112.36963,112.633934,67,31,0
112.36963,112.633934,60,25,0
112.88252,113.12446,66,30,0
112.88252,113.12446,57,26,0
112.633934,113.12446,55,35,0
113.389946,113.64205,66,29,0
113.389946,113.64205,60,25,0
113.12446,113.64205,55,28,0
113.64205,113.89415,55,25,0
113.89415,114.15964,43,34,0
114.15964,114.425125,55,28,0
114.425125,114.67722,62,25,0
114.425125,114.67722,65,30,0
114.67722,114.928276,55,25,0
114.928276,115.178276,60,26,0
114.928276,115.178276,65,31,0
115.178276,115.42621,55,27,0
115.42621,115.67313,59,18,0
115.42621,115.67313,65,28,0
115.67313,115.91903,55,24,0
115.91903,116.16293,59,19,0
115.91903,116.16293,65,28,0
116.16293,116.43565,55,25,0
116.43565,116.69115,65,27,0
116.69115,116.94664,55,25,0
117.198746,117.45084,55,26,0
117.45084,117.7019,60,21,0
117.45084,117.7019,63,26,0
117.7019,117.948814,55,22,0
117.948814,118.19272,63,26,0
117.948814,118.19272,60,21,0
118.19272,118.436615,55,22,0
118.436615,118.68052,63,27,0
118.436615,118.68052,60,22,0
118.68052,118.92442,55,23,0
118.92442,119.16833,63,28,0
118.92442,119.16833,60,22,0
119.16833,119.41223,55,23,0
119.41223,119.66223,63,28,0
119.41223,119.66223,60,23,0
119.66223,119.91223,55,24,0
116.94664,119.91223,36,29,0
119.91223,120.160164,36,29,0
120.160164,120.398254,55,26,0
120.398254,120.63635,63,26,0
120.398254,120.63635,60,21,0
120.63635,120.87445,55,22,0
120.87445,121.12503,63,26,0
120.87445,121.12503,60,21,0
121.12503,121.37562,55,22,0
121.37562,121.62667,63,26,0
121.37562,121.62667,60,21,0
121.870575,122.1032,63,26,0
121.62667,122.1032,55,31,0
122.35048,122.61834,65,26,0
122.1032,122.61834,56,34,0
122.61834,122.8862,53,24,0
122.8862,123.13949,36,29,0
123.13949,123.381,55,24,0
123.381,123.62376,62,26,0
123.381,123.62376,58,21,0
123.62376,123.86502,55,23,0
123.86502,124.10385,58,21,0
123.86502,124.10385,62,26,0
124.10385,124.34221,55,22,0
124.34221,124.57913,58,21,0
124.34221,124.57913,62,26,0
124.82189,125.064644,62,26,0
124.82189,125.064644,58,21,0
124.57913,125.064644,53,30,0
125.3074,125.55016,58,21,0
125.3074,125.55016,62,26,0
125.064644,125.55016,55,31,0
125.55016,125.80657,51,28,0
125.80657,126.050476,36,29,0
126.050476,126.28831,53,26,0
126.28831,126.53261,60,26,0
126.28831,126.53261,56,21,0
126.53261,126.7769,53,22,0
126.7769,127.02749,60,26,0
126.7769,127.02749,56,21,0
127.02749,127.278076,53,22,0
127.278076,127.52678,60,26,0
127.278076,127.52678,56,21,0
127.76363,127.99626,60,26,0
127.76363,127.99626,56,21,0
127.52678,127.99626,51,28,0
128.23604,128.50153,60,26,0
128.23604,128.50153,56,21,0
127.99626,128.50153,53,28,0
128.50153,128.767,50,25,0
128.767,129.017,36,29,0
129.017,129.267,51,27,0
129.267,129.50977,60,26,0
129.267,129.50977,55,21,0
129.50977,129.75102,51,23,0
129.75102,129.98985,55,21,0
129.75102,129.98985,60,26,0
129.98985,130.22821,51,22,0
130.22821,130.46513,55,24,0
130.22821,130.46513,60,28,0
130.7079,130.9586,60,34,0
130.7079,130.9586,55,29,0
130.46513,130.9586,50,31,0
131.20352,131.45325,55,32,0
131.20352,131.45325,60,38,0
130.9586,131.45325,51,39,0
131.45325,131.71964,48,36,0
131.71964,131.97388,43,47,0
131.97388,132.2281,55,37,0
132.2281,132.47241,60,36,0
132.2281,132.47241,65,42,0
132.47241,132.7167,55,36,0
132.7167,132.95947,59,39,0
132.7167,132.95947,65,47,0
132.95947,133.20222,55,37,0
133.20222,133.44244,57,37,0
133.20222,133.44244,65,44,0
133.44244,133.69041,55,33,0
133.69041,133.94722,59,30,0
133.69041,133.94722,65,36,0
133.94722,134.21391,55,27,0
134.21391,134.4694,65,32,0
134.4694,134.7249,55,29,0
134.96921,135.2135,55,26,0
135.2135,135.4535,60,21,0
135.2135,135.4535,63,26,0
135.4535,135.69609,55,22,0
135.69609,135.94066,63,26,0
135.69609,135.94066,60,21,0
135.94066,136.18793,55,22,0
136.18793,136.43724,63,27,0
136.18793,136.43724,60,22,0
136.43724,136.68933,55,23,0
136.68933,136.94429,63,27,0
136.68933,136.94429,60,23,0
136.94429,137.20145,55,23,0
137.20145,137.46156,63,28,0
137.20145,137.46156,60,24,0
137.46156,137.72243,55,25,0
134.7249,137.72243,36,29,0
137.72243,137.97037,60,37,0
137.97037,138.2123,62,30,0
138.2123,138.45134,63,37,0
138.45134,138.6885,67,29,0
138.6885,138.93044,63,33,0
138.93044,139.17236,62,30,0
139.17236,139.41827,60,37,0
139.41827,139.65828,62,31,0
139.65828,139.89636,63,37,0
139.89636,140.13258,67,31,0
140.13258,140.37259,63,35,0
140.37259,140.61848,62,30,0
140.61848,140.85564,60,35,0
140.85564,141.0928,62,31,0
141.0928,141.3367,63,35,0
141.3367,141.56926,67,30,0
141.56926,141.80548,63,33,0
141.80548,142.0477,62,29,0
142.0477,142.28416,60,35,0
142.28416,142.52444,62,29,0
142.52444,142.75932,60,31,0
142.75932,142.99672,62,27,0
142.99672,143.23412,63,31,0
143.23412,143.47635,67,27,0
143.47635,143.71559,60,35,0
143.71559,143.95485,62,29,0
143.95485,144.19107,65,34,0
144.19107,144.42917,70,29,0
144.42917,144.66725,65,31,0
144.66725,144.90851,62,29,0
144.90851,145.14311,60,33,0
145.14311,145.38051,62,28,0
145.38051,145.62167,65,35,0
145.62167,145.86078,70,30,0
145.86078,146.09857,65,34,0
146.09857,146.33968,58,29,0
146.33968,146.57794,56,39,0
146.57794,146.81621,58,33,0
146.81621,147.05745,60,36,0
147.05745,147.29868,63,35,0
147.29868,147.53992,65,35,0
147.53992,147.78114,67,29,0
147.78114,148.02238,68,36,0
148.02238,148.26363,70,33,0
148.26363,148.51155,68,36,0
148.51155,148.75949,70,31,0
148.75949,149.01118,56,32,0
149.01118,149.2629,58,29,0
149.2629,149.50029,60,37,0
149.50029,149.74251,62,31,0
149.74251,149.97897,63,37,0
149.97897,150.21707,67,29,0
150.21707,150.45354,63,35,0
150.45354,150.6948,62,30,0
150.6948,150.93124,60,37,0
150.93124,151.17152,62,30,0
151.17152,151.40892,63,35,0
151.40892,151.64796,67,29,0
151.64796,151.88632,63,35,0
151.88632,152.13257,62,31,0
152.13257,152.3645,58,47,0
152.3645,152.59886,56,41,0
152.59886,152.82787,58,47,0
152.82787,153.06503,56,39,0
153.06503,153.30125,53,44,0
153.30125,153.54643,51,39,0
153.54643,153.78293,50,48,0
153.78293,154.0194,48,44,0
154.0194,154.25195,47,47,0
154.25195,154.48451,44,49,0
154.48451,154.7219,41,50,0
154.7219,154.96411,39,52,0
154.96411,155.19757,38,57,0
155.19757,155.43471,36,52,0
155.43471,155.66933,38,52,0
155.66933,155.90956,39,48,0
155.90956,156.1451,43,52,0
156.1451,156.3844,48,47,0
156.3844,156.62073,50,52,0
156.62073,156.85236,51,46,0
156.85236,157.08398,53,47,0
157.08398,157.31836,51,47,0
157.31836,157.55273,50,45,0
157.55273,157.79095,51,44,0
157.79095,158.0319,58,39,0
158.0319,158.27602,56,34,0
158.27602,158.51604,58,39,0
158.51604,158.75797,56,33,0
158.75797,158.9999,53,37,0
158.9999,159.2451,51,33,0
159.2451,159.48416,50,43,0
159.48416,159.7232,48,39,0
159.7232,159.95668,47,42,0
159.95668,160.19014,44,44,0
160.19014,160.42752,41,45,0
160.42752,160.66975,39,46,0
160.66975,160.90437,38,51,0
160.90437,161.14462,36,46,0
161.14462,161.37924,38,46,0
161.37924,161.61638,39,43,0
161.61638,161.8519,43,46,0
161.8519,162.0912,48,42,0
162.0912,162.32753,50,46,0
162.32753,162.55916,51,41,0
162.55916,162.79079,53,42,0
162.79079,163.02565,51,42,0
163.02565,163.26035,50,40,0
163.26035,163.49844,51,39,0
163.49844,163.7394,60,32,0
163.7394,163.98036,62,29,0
163.98036,164.22063,63,32,0
164.22063,164.45413,67,28,0
164.45413,164.69034,63,30,0
164.69034,164.93254,62,27,0
164.93254,165.16902,60,32,0
165.16902,165.40927,62,27,0
165.40927,165.64908,60,29,0
165.64908,165.88347,62,25,0
165.88347,166.12085,63,30,0
166.12085,166.36307,67,25,0
166.36307,166.60403,60,32,0
166.60403,166.845,62,29,0
166.845,167.08229,65,31,0
167.08229,167.31578,70,27,0
167.31578,167.55292,65,29,0
167.55292,167.79414,62,27,0
167.79414,168.03064,60,30,0
168.03064,168.27284,62,26,0
168.27284,168.51466,65,32,0
168.51466,168.75668,70,28,0
168.75668,168.99556,65,31,0
168.99556,169.23729,58,27,0
169.23729,169.47559,56,36,0
169.47559,169.70815,58,30,0
169.70815,169.94719,60,33,0
169.94719,170.18816,63,32,0
170.18816,170.42912,65,32,0
170.42912,170.67502,67,27,0
170.67502,170.91599,68,33,0
170.91599,171.15695,70,30,0
171.15695,171.40222,68,33,0
171.40222,171.64752,70,29,0
171.64752,171.8992,56,32,0
171.8992,172.1509,58,29,0
172.1509,172.38742,60,34,0
172.38742,172.62962,62,29,0
172.62962,172.864,63,34,0
172.864,173.10208,67,27,0
173.10208,173.33855,63,32,0
173.33855,173.58075,62,28,0
173.58075,173.81818,60,34,0
173.81818,174.05942,62,28,0
174.05942,174.29471,63,32,0
174.29471,174.53093,67,27,0
174.53093,174.76831,63,32,0
174.76831,175.0115,55,29,0
175.0115,176.46736,59,38,0
175.0115,176.46736,43,34,0
176.46736,177.93266,55,34,0
176.46736,177.93266,48,30,0
177.93266,179.41281,59,38,0
177.93266,179.41281,43,34,0
179.41281,180.88185,55,34,0
179.41281,180.88185,48,30,0
180.88185,182.33778,46,45,0
182.33778,183.79846,41,49,0
183.79846,185.29845,43,38,0
185.29845,186.82654,59,34,0
185.29845,186.82654,43,30,0
186.82654,188.36642,55,25,0
186.82654,188.36642,48,25,0
186.82654,188.36642,60,28,0
188.36642,188.61539,48,32,0
188.61539,188.86435,50,29,0
188.86435,189.10826,51,32,0
189.10826,189.34828,55,28,0
189.34828,189.59119,51,30,0
189.59119,189.83342,50,27,0
189.83342,190.06992,48,32,0
190.06992,190.31017,50,27,0
190.31017,190.54996,48,28,0
190.54996,190.78526,50,25,0
190.78526,191.02266,51,30,0
191.02266,191.26486,55,25,0
191.26486,191.50583,48,32,0
191.50583,191.7468,50,29,0
191.7468,191.9841,53,31,0
191.9841,192.22139,58,27,0
192.22139,192.45866,53,29,0
192.45866,192.6999,50,27,0
192.6999,192.93639,48,30,0
192.93639,193.17859,50,26,0
193.17859,193.42043,53,32,0
193.42043,193.66245,58,28,0
193.66245,193.90132,53,31,0
193.90132,194.14305,46,27,0
194.14305,194.38135,44,36,0
194.38135,194.61961,46,30,0
194.61961,194.86084,48,33,0
194.86084,195.10207,51,32,0
195.10207,195.3433,53,32,0
195.3433,195.5882,55,27,0
195.5882,195.82916,56,33,0
195.82916,196.07013,58,30,0
196.07013,196.31541,56,33,0
196.31541,196.56071,58,29,0
196.56071,196.81238,44,33,0
196.81238,197.06409,46,29,0
197.06409,197.30061,48,37,0
197.30061,197.54282,50,32,0
197.54282,197.78023,48,39,0
197.78023,198.01738,50,31,0
198.01738,198.25385,48,39,0
198.25385,198.49605,46,34,0
198.49605,198.73137,44,44,0
198.73137,198.96576,46,37,0
198.96576,199.20013,44,42,0
199.20013,199.44136,46,37,0
199.44136,199.67877,44,45,0
199.67877,199.92195,43,42,0
202.63466,203.294,50,37,0
199.92195,203.294,41,50,0
203.294,205.35114,55,38,0
203.294,205.35114,51,32,0
203.294,205.35114,36,28,0
205.35114,207.40828,60,25,0
205.35114,207.40828,67,29,0
