start_time,end_time,note_value,velocity,instrument_program_number
15.32459,16.475807,81,64,40
16.475807,17.545147,84,74,40
17.545147,18.079819,74,64,40
18.079819,18.614489,76,64,40
18.614489,18.681322,77,64,40
18.681322,18.748156,79,64,40
18.748156,18.81499,77,64,40
18.81499,18.881823,79,64,40
18.881823,18.948656,77,64,40
18.948656,19.01549,79,64,40
19.01549,19.082323,77,64,40
19.082323,19.149158,79,64,40
19.149158,19.215992,77,64,40
19.215992,19.282825,79,64,40
19.282825,19.349659,77,64,40
19.349659,19.416492,79,64,40
19.416492,19.55016,76,64,40
19.55016,19.683828,77,64,40
19.683828,21.287838,79,64,40
21.287838,21.822508,80,64,40
21.822508,22.22351,81,64,40
22.22351,22.357178,89,64,40
22.357178,22.75818,89,64,40
22.75818,22.891848,81,64,40
22.891848,23.29285,82,64,40
23.29285,23.426517,86,64,40
23.426517,23.82752,86,64,40
23.82752,23.961187,80,65,40
23.961187,24.36219,81,65,40
24.36219,24.495857,84,65,40
24.495857,24.89686,84,65,40
24.89686,25.030527,81,65,40
25.030527,25.832533,79,64,40
25.832533,25.9662,81,60,40
25.9662,26.099867,79,59,40
26.099867,26.634539,77,58,40
26.634539,27.169209,65,54,40
27.169209,27.703878,64,57,40
27.703878,28.238548,63,60,40
28.238548,29.307888,62,64,40
31.446568,32.515907,74,64,40
32.515907,34.654587,77,74,40
35.723927,35.79076,74,74,40
35.79076,35.857594,76,64,40
35.857594,35.92443,74,64,40
35.92443,35.991264,76,64,40
35.991264,36.058098,74,64,40
36.058098,36.12493,76,64,40
36.12493,36.191765,74,64,40
36.191765,36.2586,76,64,40
36.2586,36.32543,74,64,40
36.32543,36.392265,76,64,40
36.392265,36.4591,74,64,40
36.4591,36.525932,76,64,40
36.525932,36.6596,73,64,40
36.6596,36.793266,74,64,40
36.793266,37.060604,82,64,40
37.327938,37.595272,86,64,40
38.93195,38.998783,72,74,40
38.998783,39.065617,74,64,40
39.065617,39.13245,72,64,40
39.13245,39.199284,74,64,40
39.199284,39.266117,72,64,40
39.266117,39.33295,74,64,40
39.33295,39.399784,72,64,40
39.399784,39.466618,74,64,40
39.466618,39.53345,72,64,40
39.53345,39.600285,74,64,40
39.600285,39.667118,72,64,40
39.667118,39.73395,74,64,40
39.73395,39.86762,71,64,40
39.86762,40.00129,72,64,40
40.00129,40.268623,81,64,40
40.535957,40.80329,84,64,40
41.07063,41.605297,74,64,40
41.605297,41.87263,79,64,40
41.87263,42.13997,82,64,40
42.13997,43.4982,72,64,40
43.4982,43.60571,74,64,40
43.71477,43.825428,76,64,40
43.93772,44.052143,77,64,40
44.16833,44.28634,79,64,40
44.40622,44.528027,80,64,40
44.652546,45.803764,81,64,40
45.803764,46.873104,84,74,40
46.873104,47.407772,74,64,40
47.407772,47.942444,76,64,40
47.942444,48.009277,77,74,40
48.009277,48.07611,79,64,40
48.07611,48.142944,77,64,40
48.142944,48.209778,79,64,40
48.209778,48.27661,77,64,40
48.27661,48.343445,79,64,40
48.343445,48.41028,77,64,40
48.41028,48.47711,79,64,40
48.47711,48.543945,77,64,40
48.543945,48.61078,79,64,40
48.61078,48.677616,77,64,40
48.677616,48.74445,79,64,40
48.74445,48.878117,76,64,40
48.878117,49.011784,77,64,40
49.011784,50.081123,79,64,40
50.081123,50.147957,81,73,40
50.147957,50.21479,82,64,40
50.21479,50.281624,81,64,40
50.281624,50.348457,82,64,40
50.348457,50.41529,81,64,40
50.41529,50.482124,82,64,40
50.482124,50.548958,81,64,40
50.548958,50.61579,82,64,40
50.61579,50.68263,81,64,40
50.68263,50.749462,82,64,40
50.749462,50.816296,81,64,40
50.816296,50.88313,82,64,40
50.88313,51.016796,79,64,40
51.016796,51.150463,81,64,40
51.150463,52.219803,82,64,40
54.358482,55.427822,74,64,40
55.427822,57.031834,77,74,40
57.031834,57.5665,82,64,40
57.5665,57.83384,81,64,40
57.83384,58.101173,77,64,40
58.101173,58.368507,74,64,40
58.368507,58.63584,70,64,40
58.63584,59.170513,69,64,40
59.170513,59.705185,65,64,40
59.705185,60.239853,64,64,40
60.239853,60.774525,58,64,40
60.774525,61.309193,57,100,40
61.309193,61.576527,60,64,40
61.843864,62.1112,65,64,40
62.378532,62.645866,69,64,40
62.913204,63.18054,72,64,40
63.447872,63.715206,77,64,40
63.982544,64.51721,57,100,40
64.51721,64.784546,60,64,40
65.05188,65.31922,65,64,40
65.586555,65.85389,69,64,40
66.12122,66.38856,72,64,40
66.65589,66.923225,77,64,40
67.19056,67.725235,57,100,40
67.725235,67.99257,60,64,40
68.2599,68.52724,66,64,40
68.79457,69.061905,69,64,40
69.32925,69.59658,72,64,40
69.863914,70.13125,78,64,40
70.39858,70.93325,57,100,40
70.93325,71.200584,61,64,40
71.467926,71.73526,66,64,40
72.002594,72.26993,69,64,40
72.53726,72.804596,73,64,40
73.07193,73.33927,78,64,40
73.606606,74.14127,56,100,40
74.14127,74.40861,59,64,40
74.67594,74.943275,65,64,40
75.21061,75.47795,68,64,40
75.745285,76.01262,71,64,40
76.27995,76.54729,77,64,40
76.81462,77.21562,78,64,40
77.21562,77.3493,73,64,40
77.3493,77.883965,78,74,40
78.284966,78.41863,73,64,40
78.41863,78.9533,78,74,40
79.35431,79.487976,73,64,40
79.487976,80.022644,78,74,40
80.423645,80.55731,74,64,40
80.55731,81.09198,78,74,40
81.49299,81.626656,74,64,40
81.626656,82.16132,78,74,40
82.562325,82.69599,74,64,40
82.69599,83.23066,78,74,40
83.63167,83.765335,73,64,40
83.765335,84.3,78,74,40
84.701004,84.83467,73,64,40
84.83467,85.36935,78,74,40
85.77035,85.904015,73,64,40
85.904015,86.43868,78,74,40
86.83968,86.97335,71,64,40
86.97335,87.508026,77,74,40
87.90903,88.042694,71,64,40
88.042694,88.57736,77,74,40
88.97836,89.11203,71,64,40
89.11203,89.646706,77,74,40
90.04771,90.18137,73,64,40
90.18137,90.71604,78,74,40
91.11704,91.25071,73,64,40
91.25071,91.785385,78,74,40
92.186386,92.32005,73,64,40
92.32005,92.85472,79,74,40
93.25572,93.3894,74,64,40
93.3894,93.924065,78,74,40
94.325066,94.45873,74,64,40
94.45873,94.9934,78,74,40
95.39441,95.528076,74,64,40
95.528076,96.062744,78,74,40
96.463745,96.59741,73,64,40
96.59741,97.13208,78,74,40
97.53309,97.666756,73,64,40
97.666756,98.20142,78,74,40
98.602425,98.73609,73,64,40
98.73609,99.27076,78,74,40
99.67177,99.805435,71,64,40
99.805435,100.3401,77,74,40
100.741104,100.87477,71,64,40
100.87477,101.40945,77,74,40
101.81045,101.944115,71,64,40
101.944115,102.47878,77,74,40
102.87978,103.01345,69,64,40
103.01345,103.54813,78,74,40
103.94913,104.082794,69,64,40
104.082794,104.61746,78,74,40
105.01846,105.15213,69,64,40
105.15213,105.686806,78,74,40
106.08781,106.22147,69,64,40
106.22147,106.75614,79,74,40
107.15714,107.29081,69,64,40
107.29081,107.825485,79,74,40
108.22649,108.36015,69,64,40
108.36015,108.89482,79,74,40
109.29582,109.4295,69,64,40
109.4295,109.964165,78,74,40
110.365166,110.49883,69,64,40
110.49883,111.0335,78,74,40
111.43451,111.56818,74,64,40
111.56818,112.102844,83,74,40
112.503845,112.63751,74,64,40
112.63751,113.17218,81,74,40
113.57319,113.706856,73,64,40
113.706856,114.24152,81,74,40
114.642525,114.77619,73,64,40
114.77619,115.31086,81,74,40
115.31086,115.48909,74,99,40
115.48909,115.66731,66,64,40
115.48909,115.66731,57,64,40
115.66731,115.845535,57,64,40
115.66731,115.845535,66,64,40
115.845535,116.02376,66,64,40
115.845535,116.02376,57,64,40
116.02376,116.20198,66,64,40
116.02376,116.20198,57,64,40
116.20198,116.3802,66,64,40
116.20198,116.3802,57,64,40
116.3802,116.558426,66,64,40
116.3802,116.558426,57,64,40
116.558426,116.73665,66,64,40
116.558426,116.73665,57,64,40
116.73665,116.91487,66,64,40
116.73665,116.91487,57,64,40
116.91487,117.093094,66,64,40
116.91487,117.093094,57,64,40
117.093094,117.27132,66,64,40
117.093094,117.27132,57,64,40
117.27132,117.44955,66,64,40
117.27132,117.44955,57,64,40
117.44955,117.62777,66,64,40
117.44955,117.62777,57,64,40
117.62777,117.80599,66,64,40
117.62777,117.80599,57,64,40
117.80599,117.984215,66,64,40
117.80599,117.984215,57,64,40
117.984215,118.16244,66,64,40
117.984215,118.16244,57,64,40
118.16244,118.34066,66,64,40
118.16244,118.34066,57,64,40
118.34066,118.51888,66,64,40
118.34066,118.51888,57,64,40
118.51888,118.697105,67,64,40
118.51888,118.697105,57,64,40
118.697105,118.87533,67,64,40
118.697105,118.87533,57,64,40
118.87533,119.05355,67,64,40
118.87533,119.05355,57,64,40
119.05355,119.23177,67,64,40
119.05355,119.23177,57,64,40
119.23177,119.409996,67,64,40
119.23177,119.409996,57,64,40
119.409996,119.58823,67,64,40
119.409996,119.58823,57,64,40
119.58823,119.76645,67,64,40
119.58823,119.76645,57,64,40
119.76645,119.94467,67,64,40
119.76645,119.94467,57,64,40
119.94467,120.122894,67,64,40
119.94467,120.122894,57,64,40
120.122894,120.30112,67,64,40
120.122894,120.30112,57,64,40
120.30112,120.47934,67,64,40
120.30112,120.47934,57,64,40
120.47934,120.65756,67,64,40
120.47934,120.65756,57,64,40
120.65756,120.835785,67,64,40
120.65756,120.835785,57,64,40
120.835785,121.01401,67,64,40
120.835785,121.01401,57,64,40
121.01401,121.19223,67,64,40
121.01401,121.19223,57,64,40
121.19223,121.37045,67,64,40
121.19223,121.37045,57,64,40
121.37045,121.54868,67,64,40
121.37045,121.54868,57,64,40
121.54868,121.726906,67,64,40
121.54868,121.726906,57,64,40
121.726906,121.90513,66,64,40
121.726906,121.90513,57,64,40
121.90513,122.08335,66,64,40
121.90513,122.08335,57,64,40
122.08335,122.26157,66,64,40
122.08335,122.26157,57,64,40
122.26157,122.4398,66,64,40
122.26157,122.4398,57,64,40
122.4398,122.61802,66,64,40
122.4398,122.61802,57,64,40
122.61802,122.79624,66,64,40
122.61802,122.79624,57,64,40
122.79624,122.974464,66,64,40
122.79624,122.974464,57,64,40
122.974464,123.15269,66,64,40
122.974464,123.15269,57,64,40
123.15269,123.33091,66,64,40
123.15269,123.33091,57,64,40
123.33091,123.50914,66,64,40
123.33091,123.50914,57,64,40
123.50914,123.68736,66,64,40
123.50914,123.68736,57,64,40
123.68736,123.865585,66,64,40
123.68736,123.865585,57,64,40
123.865585,124.04381,66,64,40
123.865585,124.04381,57,64,40
124.04381,124.22203,66,64,40
124.04381,124.22203,57,64,40
124.22203,124.40025,66,64,40
124.22203,124.40025,57,64,40
124.40025,124.578476,66,64,40
124.40025,124.578476,57,64,40
124.578476,124.7567,66,64,40
124.578476,124.7567,57,64,40
124.7567,124.93492,66,64,40
124.7567,124.93492,57,64,40
124.93492,125.113144,67,64,40
124.93492,125.113144,57,64,40
125.113144,125.29137,67,64,40
125.113144,125.29137,57,64,40
125.29137,125.4696,67,64,40
125.29137,125.4696,57,64,40
125.4696,125.64782,67,64,40
125.4696,125.64782,57,64,40
125.64782,125.82604,67,64,40
125.64782,125.82604,57,64,40
125.82604,126.004265,67,64,40
125.82604,126.004265,57,64,40
126.004265,126.18249,67,64,40
126.004265,126.18249,57,64,40
126.18249,126.36071,67,64,40
126.18249,126.36071,57,64,40
126.36071,126.53893,67,64,40
126.36071,126.53893,57,64,40
126.53893,126.717155,67,64,40
126.53893,126.717155,57,64,40
126.717155,126.89538,67,64,40
126.717155,126.89538,57,64,40
126.89538,127.0736,67,64,40
126.89538,127.0736,57,64,40
127.0736,127.25182,67,64,40
127.0736,127.25182,57,64,40
127.25182,127.430046,67,64,40
127.25182,127.430046,57,64,40
127.430046,127.60828,67,64,40
127.430046,127.60828,57,64,40
127.60828,127.7865,67,64,40
127.60828,127.7865,57,64,40
127.7865,127.96472,67,64,40
127.7865,127.96472,57,64,40
127.96472,128.14294,67,64,40
127.96472,128.14294,57,64,40
128.14294,128.32117,66,64,40
128.14294,128.32117,57,64,40
128.32117,128.49939,66,64,40
128.32117,128.49939,57,64,40
128.49939,128.67761,66,64,40
128.49939,128.67761,57,64,40
128.67761,128.85583,66,64,40
128.67761,128.85583,57,64,40
128.85583,129.03406,66,64,40
128.85583,129.03406,57,64,40
129.03406,129.21228,66,64,40
129.03406,129.21228,57,64,40
129.21228,129.3905,66,64,40
129.21228,129.3905,59,64,40
129.3905,129.56873,66,64,40
129.3905,129.56873,59,64,40
129.56873,129.74695,66,64,40
129.56873,129.74695,59,64,40
129.74695,129.92517,66,64,40
129.74695,129.92517,59,64,40
129.92517,130.1034,66,64,40
129.92517,130.1034,59,64,40
130.1034,130.28162,66,64,40
130.1034,130.28162,59,64,40
130.28162,130.45984,66,64,40
130.28162,130.45984,59,64,40
130.45984,130.63808,66,64,40
130.45984,130.63808,59,64,40
130.63808,130.8163,66,64,40
130.63808,130.8163,59,64,40
130.8163,130.99452,66,64,40
130.8163,130.99452,59,64,40
130.99452,131.17274,66,64,40
130.99452,131.17274,59,64,40
131.17274,131.35097,66,64,40
131.17274,131.35097,59,64,40
131.35097,131.52919,66,64,40
131.35097,131.52919,61,64,40
131.52919,131.70741,66,64,40
131.52919,131.70741,61,64,40
131.70741,131.88564,66,64,40
131.70741,131.88564,61,64,40
131.88564,132.06386,66,64,40
131.88564,132.06386,61,64,40
132.06386,132.24208,66,64,40
132.06386,132.24208,61,64,40
132.24208,132.4203,66,64,40
132.24208,132.4203,61,64,40
132.4203,132.59853,66,64,40
132.4203,132.59853,61,64,40
132.59853,132.77675,66,64,40
132.59853,132.77675,61,64,40
132.77675,132.95497,66,64,40
132.77675,132.95497,61,64,40
132.95497,133.1332,66,64,40
132.95497,133.1332,61,64,40
133.1332,133.31142,66,64,40
133.1332,133.31142,61,64,40
133.31142,133.48964,66,64,40
133.31142,133.48964,61,64,40
133.48964,133.66786,66,64,40
133.48964,133.66786,61,64,40
133.66786,133.84608,66,64,40
133.66786,133.84608,61,64,40
133.84608,134.0243,66,64,40
133.84608,134.0243,61,64,40
134.0243,134.20253,66,64,40
134.0243,134.20253,58,64,40
134.20253,134.38075,66,64,40
134.20253,134.38075,58,64,40
134.38075,134.55899,66,64,40
134.38075,134.55899,58,64,40
134.55899,134.73721,66,64,40
134.55899,134.73721,59,64,40
134.73721,134.91544,66,64,40
134.73721,134.91544,59,64,40
134.91544,135.09366,66,64,40
134.91544,135.09366,59,64,40
135.09366,135.27188,66,64,40
135.09366,135.27188,59,64,40
135.27188,135.4501,66,64,40
135.27188,135.4501,59,64,40
135.4501,135.62833,66,64,40
135.4501,135.62833,59,64,40
135.62833,135.80655,66,64,40
135.62833,135.80655,59,64,40
135.80655,135.98477,66,64,40
135.80655,135.98477,59,64,40
135.98477,136.163,66,64,40
135.98477,136.163,59,64,40
136.163,136.34122,66,64,40
136.163,136.34122,59,64,40
136.34122,136.51944,66,64,40
136.34122,136.51944,59,64,40
136.51944,136.69766,66,64,40
136.51944,136.69766,59,64,40
136.69766,136.87589,66,64,40
136.69766,136.87589,59,64,40
136.87589,137.05411,66,64,40
136.87589,137.05411,59,64,40
137.05411,137.23233,66,64,40
137.05411,137.23233,59,64,40
137.23233,137.41055,66,64,40
137.23233,137.41055,59,64,40
137.41055,137.58878,66,64,40
137.41055,137.58878,59,64,40
137.58878,137.767,66,64,40
137.58878,137.767,59,64,40
137.767,137.94522,66,64,40
137.767,137.94522,57,64,40
137.94522,138.12344,66,64,40
137.94522,138.12344,57,64,40
138.12344,138.30167,66,64,40
138.12344,138.30167,57,64,40
138.30167,138.47989,66,64,40
138.30167,138.47989,57,64,40
138.47989,138.65813,66,64,40
138.47989,138.65813,57,64,40
138.65813,138.83635,66,64,40
138.65813,138.83635,57,64,40
138.83635,139.01457,66,64,40
138.83635,139.01457,57,64,40
139.01457,139.1928,66,64,40
139.01457,139.1928,57,64,40
139.1928,139.37102,66,64,40
139.1928,139.37102,57,64,40
139.37102,139.54924,66,64,40
139.37102,139.54924,57,64,40
139.54924,139.72746,66,64,40
139.54924,139.72746,57,64,40
139.72746,139.90569,66,64,40
139.72746,139.90569,57,64,40
139.90569,140.08391,66,64,40
139.90569,140.08391,57,64,40
140.08391,140.26213,66,64,40
140.08391,140.26213,57,64,40
140.26213,140.44035,66,64,40
140.26213,140.44035,57,64,40
140.44035,140.61858,66,64,40
140.44035,140.61858,57,64,40
140.61858,140.7968,66,64,40
140.61858,140.7968,57,64,40
140.7968,140.97502,66,64,40
140.7968,140.97502,57,64,40
140.97502,141.50969,66,64,40
140.97502,141.50969,57,64,40
141.50969,142.22258,84,73,40
142.22258,142.31169,86,64,40
142.4008,142.48991,88,64,40
142.57904,142.66815,86,64,40
142.75726,142.84637,84,64,40
142.93549,143.0246,83,64,40
143.11371,143.20282,81,64,40
143.29193,143.38104,79,64,40
143.47015,143.55927,78,64,40
143.64838,143.73749,76,64,40
143.8266,143.91571,74,64,40
144.00482,144.09393,72,64,40
144.18304,144.71771,70,74,40
144.71771,145.25238,69,64,40
145.65338,145.78705,63,54,40
145.78705,146.72273,75,54,40
146.72273,146.8564,63,54,40
146.8564,147.39107,75,54,40
147.39107,147.6584,74,54,40
147.92574,148.63863,84,73,40
148.63863,148.72774,86,64,40
148.81685,148.90596,87,64,40
148.99507,149.08418,86,64,40
149.1733,149.2624,84,64,40
149.35152,149.44063,82,64,40
149.52974,149.61885,81,64,40
149.70796,149.79707,79,64,40
149.88618,149.9753,78,64,40
150.0644,150.15352,75,64,40
150.24263,150.33174,74,64,40
150.42085,150.50996,72,64,40
150.59909,151.13376,70,74,40
151.13376,151.66843,69,61,40
152.06943,152.2031,63,54,40
152.2031,153.13876,75,54,40
153.13876,153.27243,63,54,40
153.27243,153.8071,75,54,40
153.8071,154.07443,74,54,40
154.34177,155.05467,84,64,40
155.05467,155.14378,86,55,40
155.2329,155.322,87,55,40
155.41112,155.50023,86,55,40
155.58934,155.67845,84,55,40
155.76756,155.85667,82,55,40
155.94579,156.0349,81,55,40
156.12401,156.21312,79,55,40
156.30223,156.39134,78,55,40
156.48045,156.56956,75,54,40
156.65868,156.74779,74,54,40
156.8369,156.92601,72,54,40
157.01512,157.54979,70,54,40
157.54979,158.08446,69,54,40
159.15381,159.68848,70,54,40
159.68848,160.22314,69,54,40
161.29248,161.82715,70,54,40
161.82715,162.36182,69,54,40
163.43117,163.60939,60,54,40
163.60939,163.78761,60,54,40
163.78761,163.96584,60,54,40
163.96584,164.14406,60,53,40
164.14406,164.32228,60,53,40
164.32228,164.5005,60,53,40
164.5005,164.67873,59,52,40
164.67873,164.85695,59,52,40
164.85695,165.03517,59,52,40
165.03517,165.2134,59,52,40
165.2134,165.39162,59,51,40
165.39162,165.56984,59,51,40
165.56984,165.74806,57,51,40
165.74806,165.92628,57,51,40
165.92628,166.1045,57,50,40
166.1045,166.28273,57,50,40
166.28273,166.46095,57,50,40
166.46095,166.63919,57,49,40
166.63919,166.81741,55,49,40
166.81741,166.99564,55,49,40
166.99564,167.17386,55,49,40
167.17386,167.35208,55,48,40
167.35208,167.5303,55,48,40
167.5303,167.70853,55,48,40
167.70853,167.88675,55,47,40
167.88675,168.06497,55,47,40
168.06497,168.2432,55,47,40
168.2432,168.42142,55,47,40
168.42142,168.59964,55,46,40
168.59964,168.77786,55,46,40
168.77786,168.95609,60,46,40
168.95609,169.13431,60,46,40
169.13431,169.31253,60,45,40
169.31253,169.49075,60,45,40
169.49075,169.66898,60,45,40
169.66898,169.8472,60,44,40
169.8472,170.0477,59,44,40
170.2482,170.38187,59,44,40
170.38187,170.51553,59,44,40
170.91655,171.11705,59,44,40
171.31755,171.45122,59,44,40
171.45122,171.58488,59,44,40
171.98589,172.18639,59,44,40
172.38689,172.52055,59,44,40
172.52055,172.65422,59,44,40
173.05522,173.25572,62,44,40
173.05522,173.25572,60,44,40
173.45622,173.58989,62,44,40
173.45622,173.58989,60,44,40
173.58989,173.72356,62,44,40
173.58989,173.72356,60,44,40
174.12456,174.32506,62,44,40
174.12456,174.32506,60,44,40
174.52556,174.65923,62,44,40
174.52556,174.65923,60,44,40
174.65923,174.79291,62,44,40
174.65923,174.79291,60,44,40
175.19391,175.39441,60,44,40
175.19391,175.39441,66,44,40
175.59491,175.72858,60,44,40
175.59491,175.72858,66,44,40
175.72858,175.86224,60,44,40
175.72858,175.86224,66,44,40
176.26324,177.19891,59,44,40
176.26324,177.19891,67,44,40
177.19891,177.33258,71,44,40
177.33258,178.26825,74,44,40
178.26825,178.40192,74,44,40
178.40192,179.3376,79,44,40
179.3376,179.47127,83,44,40
179.47127,180.40694,84,44,40
180.40694,180.5406,78,44,40
180.5406,181.47627,81,44,40
181.47627,181.60994,69,44,40
181.60994,182.54561,72,44,40
182.54561,182.61244,74,44,40
182.61244,182.67928,72,44,40
182.67928,183.61496,71,44,40
183.61496,183.74863,71,44,40
183.74863,184.6843,74,44,40
184.6843,184.81796,74,44,40
184.81796,185.75363,75,44,40
185.75363,185.8873,66,44,40
185.8873,186.82298,67,44,40
186.82298,186.95665,71,44,40
186.95665,187.89232,74,44,40
187.89232,188.02599,74,44,40
188.02599,188.96165,75,44,40
188.96165,189.09532,66,44,40
189.09532,190.05118,67,44,40
190.05118,190.1915,67,44,40
190.1915,191.203,62,44,40
191.203,191.35173,62,44,40
191.35173,192.4258,59,44,40
192.4258,192.584,59,44,40
192.584,197.18599,55,44,40
210.99078,212.14201,72,64,40
212.14201,213.21135,75,74,40
213.21135,213.74602,65,64,40
213.74602,214.28069,67,64,40
214.28069,214.34752,68,64,40
214.34752,214.41435,70,64,40
214.41435,214.48119,68,64,40
214.48119,214.54802,70,64,40
214.54802,214.61485,68,64,40
214.61485,214.68169,70,64,40
214.68169,214.74852,68,64,40
214.74852,214.81535,70,64,40
214.81535,214.88219,68,64,40
214.88219,214.94902,70,64,40
214.94902,215.01585,68,64,40
215.01585,215.08269,70,64,40
215.08269,215.21635,67,64,40
215.21635,215.35002,68,64,40
215.35002,216.95404,70,64,40
216.95404,217.48871,71,64,40
217.48871,217.88971,72,64,40
217.88971,218.02338,80,64,40
218.02338,218.42438,80,64,40
218.42438,218.55804,72,64,40
218.55804,218.95905,73,64,40
218.95905,219.09271,77,64,40
219.09271,219.49373,77,64,40
219.49373,219.6274,71,65,40
219.6274,220.0284,72,65,40
220.0284,220.16206,75,65,40
220.16206,220.56306,75,65,40
220.56306,220.69673,68,65,40
220.69673,221.49873,70,64,40
221.49873,221.6324,72,60,40
221.6324,221.76607,70,59,40
221.76607,222.30074,68,58,40
222.30074,222.8354,68,54,40
222.8354,223.37007,67,57,40
223.37007,223.90475,66,60,40
223.90475,224.97409,65,64,40
227.11276,228.18211,77,64,40
228.18211,230.32079,80,74,40
231.39012,231.45697,77,74,40
231.45697,231.5238,79,64,40
231.5238,231.59064,77,64,40
231.59064,231.65747,79,64,40
231.65747,231.7243,77,64,40
231.7243,231.79114,79,64,40
231.79114,231.85797,77,64,40
231.85797,231.9248,79,64,40
231.9248,231.99164,77,64,40
231.99164,232.05847,79,64,40
232.05847,232.1253,77,64,40
232.1253,232.19214,79,64,40
232.19214,232.3258,76,64,40
232.3258,232.45947,77,64,40
232.45947,232.7268,73,64,40
232.99414,233.26147,77,64,40
234.59814,234.66498,75,74,40
234.66498,234.73181,77,64,40
234.73181,234.79865,75,64,40
234.79865,234.86548,77,64,40
234.86548,234.93231,75,64,40
234.93231,234.99915,77,64,40
234.99915,235.06598,75,64,40
235.06598,235.13281,77,64,40
235.13281,235.19965,75,64,40
235.19965,235.26648,77,64,40
235.26648,235.33331,75,64,40
235.33331,235.40015,77,64,40
235.40015,235.53383,74,64,40
235.53383,235.6675,75,64,40
235.6675,235.93483,72,64,40
236.20216,236.4695,75,64,40
236.73683,237.2715,65,64,40
237.2715,237.53883,70,64,40
237.53883,237.80617,73,64,40
237.80617,239.1644,63,64,40
239.1644,239.27191,65,64,40
239.38097,239.49162,67,64,40
239.60393,239.71834,68,64,40
239.83453,239.95255,70,64,40
240.07242,240.19423,71,64,40
240.31874,241.46997,72,64,40
241.46997,242.5393,75,74,40
242.5393,243.07397,65,64,40
243.07397,243.60864,67,64,40
243.60864,243.67548,68,74,40
243.67548,243.74231,70,64,40
243.74231,243.80914,68,64,40
243.80914,243.87598,70,64,40
243.87598,243.94281,68,64,40
243.94281,244.00964,70,64,40
244.00964,244.07648,68,64,40
244.07648,244.14331,70,64,40
244.14331,244.21014,68,64,40
244.21014,244.27698,70,64,40
244.27698,244.34381,68,64,40
244.34381,244.41064,70,64,40
244.41064,244.54431,67,64,40
244.54431,244.67798,68,64,40
244.67798,245.74733,70,64,40
245.74733,245.81416,72,73,40
245.81416,245.881,73,64,40
245.881,245.94783,72,64,40
245.94783,246.01466,73,64,40
246.01466,246.0815,72,64,40
246.0815,246.14833,73,64,40
246.14833,246.21516,72,64,40
246.21516,246.282,73,64,40
246.282,246.34883,72,64,40
246.34883,246.41566,73,64,40
246.41566,246.4825,72,64,40
246.4825,246.54933,73,64,40
246.54933,246.683,70,64,40
246.683,246.81667,72,64,40
246.81667,247.886,73,64,40
250.02469,251.09402,77,64,40
251.09402,252.69803,80,74,40
252.69803,253.23271,85,64,40
253.23271,253.50005,84,64,40
253.50005,253.76738,80,64,40
253.76738,254.03471,77,64,40
254.03471,254.30205,73,64,40
254.30205,254.83672,72,64,40
254.83672,255.37138,68,64,40
255.37138,255.90605,67,64,40
255.90605,256.44073,61,64,40
256.44073,256.9754,60,100,40
256.9754,257.24274,63,64,40
257.51007,257.7774,68,64,40
258.04474,258.31207,72,64,40
258.5794,258.84674,75,64,40
259.11407,259.3814,80,64,40
259.64874,260.1834,60,100,40
260.1834,260.45074,63,64,40
260.71808,260.9854,68,64,40
261.25275,261.52008,72,64,40
261.7874,262.05475,75,64,40
262.32208,262.58942,80,64,40
262.85675,263.39145,60,100,40
263.39145,263.65878,63,64,40
263.92612,264.19345,69,64,40
264.4608,264.72812,72,64,40
264.99545,265.2628,75,64,40
265.53012,265.79745,81,64,40
266.0648,266.59946,60,100,40
266.59946,266.8668,64,64,40
267.13412,267.40146,69,64,40
267.6688,267.93613,72,64,40
268.20346,268.4708,76,64,40
268.73813,269.00546,81,64,40
269.2728,269.80746,59,100,40
269.80746,270.0748,62,64,40
270.34213,270.60947,68,64,40
270.8768,271.14413,71,64,40
271.4115,271.67883,74,64,40
271.94617,272.2135,80,64,40
272.48083,272.88184,81,64,40
272.88184,273.0155,76,64,40
273.0155,273.55017,81,74,40
273.95117,274.08484,76,64,40
274.08484,274.6195,81,74,40
275.0205,275.15417,76,64,40
275.15417,275.68884,81,74,40
276.08984,276.2235,77,64,40
276.2235,276.75818,81,74,40
277.15918,277.29285,77,64,40
277.29285,277.8275,81,74,40
278.22852,278.36218,77,64,40
278.36218,278.89685,81,74,40
279.29785,279.43155,76,64,40
279.43155,279.96622,81,74,40
280.36722,280.5009,76,64,40
280.5009,281.03555,81,74,40
281.43655,281.57022,76,64,40
281.57022,282.1049,81,74,40
282.5059,282.63956,74,64,40
282.63956,283.17422,80,74,40
283.57523,283.7089,74,64,40
283.7089,284.24356,80,74,40
284.64456,284.77823,74,64,40
284.77823,285.3129,80,74,40
285.7139,285.84756,76,64,40
285.84756,286.38223,81,74,40
286.78323,286.9169,76,64,40
286.9169,287.4516,81,74,40
287.8526,287.98627,76,64,40
287.98627,288.52094,82,74,40
288.92194,289.0556,77,64,40
289.0556,289.59027,81,74,40
289.99127,290.12494,77,64,40
290.12494,290.6596,81,74,40
291.0606,291.19427,77,64,40
291.19427,291.72894,81,74,40
292.12994,292.2636,76,64,40
292.2636,292.79828,81,74,40
293.19928,293.33295,76,64,40
293.33295,293.8676,81,74,40
294.26862,294.40228,76,64,40
294.40228,294.93695,81,74,40
295.33795,295.47165,74,64,40
295.47165,296.00632,80,74,40
296.40732,296.541,74,64,40
296.541,297.07565,80,74,40
297.47665,297.61032,74,64,40
297.61032,298.145,80,74,40
298.546,298.67966,72,64,40
298.67966,299.21432,81,74,40
299.61533,299.749,72,64,40
299.749,300.28366,81,74,40
300.68466,300.81833,72,64,40
300.81833,301.353,81,74,40
301.754,301.88766,72,64,40
301.88766,302.42233,82,74,40
302.82333,302.957,72,64,40
302.957,303.4917,82,74,40
303.8927,304.02637,72,64,40
304.02637,304.56104,82,74,40
304.96204,305.0957,72,64,40
305.0957,305.63037,81,74,40
306.03137,306.16504,72,64,40
306.16504,306.6997,81,74,40
307.1007,307.23438,77,64,40
307.23438,307.76904,86,74,40
308.17004,308.3037,77,64,40
308.3037,308.83838,84,74,40
309.23938,309.37305,76,64,40
309.37305,309.9077,84,74,40
310.30872,310.44238,76,64,40
310.44238,310.97705,84,74,40
310.97705,311.15527,77,99,40
311.15527,311.3335,69,64,40
311.15527,311.3335,65,64,40
311.3335,311.51175,69,64,40
311.3335,311.51175,65,64,40
311.51175,311.68997,69,64,40
311.51175,311.68997,65,64,40
311.68997,311.8682,69,64,40
311.68997,311.8682,65,64,40
311.8682,312.04642,69,64,40
311.8682,312.04642,65,64,40
312.04642,312.22464,69,64,40
312.04642,312.22464,65,64,40
312.22464,312.40286,69,64,40
312.22464,312.40286,65,64,40
312.40286,312.5811,69,64,40
312.40286,312.5811,65,64,40
312.5811,312.7593,69,64,40
312.5811,312.7593,65,64,40
312.7593,312.93753,69,64,40
312.7593,312.93753,65,64,40
312.93753,313.11575,69,64,40
312.93753,313.11575,65,64,40
313.11575,313.29398,69,64,40
313.11575,313.29398,65,64,40
313.29398,313.4722,69,64,40
313.29398,313.4722,65,64,40
313.4722,313.65042,69,64,40
313.4722,313.65042,65,64,40
313.65042,313.82864,69,64,40
313.65042,313.82864,65,64,40
313.82864,314.00687,69,64,40
313.82864,314.00687,65,64,40
314.00687,314.1851,69,64,40
314.00687,314.1851,65,64,40
314.1851,314.3633,70,64,40
314.1851,314.3633,67,64,40
314.3633,314.54153,70,64,40
314.3633,314.54153,67,64,40
314.54153,314.71976,70,64,40
314.54153,314.71976,67,64,40
314.71976,314.89798,70,64,40
314.71976,314.89798,67,64,40
314.89798,315.0762,70,64,40
314.89798,315.0762,67,64,40
315.0762,315.25443,70,64,40
315.0762,315.25443,67,64,40
315.25443,315.43265,70,64,40
315.25443,315.43265,67,64,40
315.43265,315.61087,70,64,40
315.43265,315.61087,67,64,40
315.61087,315.7891,70,64,40
315.61087,315.7891,67,64,40
315.7891,315.96732,70,64,40
315.7891,315.96732,67,64,40
315.96732,316.14554,70,64,40
315.96732,316.14554,67,64,40
316.14554,316.32376,70,64,40
316.14554,316.32376,67,64,40
316.32376,316.50198,70,64,40
316.32376,316.50198,67,64,40
316.50198,316.6802,70,64,40
316.50198,316.6802,67,64,40
316.6802,316.85843,70,64,40
316.6802,316.85843,67,64,40
316.85843,317.03665,70,64,40
316.85843,317.03665,67,64,40
317.03665,317.21487,70,64,40
317.03665,317.21487,67,64,40
317.21487,317.3931,70,64,40
317.21487,317.3931,67,64,40
317.3931,317.57132,69,64,40
317.3931,317.57132,65,64,40
317.57132,317.74954,69,64,40
317.57132,317.74954,65,64,40
317.74954,317.92776,69,64,40
317.74954,317.92776,65,64,40
317.92776,318.106,69,64,40
317.92776,318.106,65,64,40
318.106,318.2842,69,64,40
318.106,318.2842,65,64,40
318.2842,318.46243,69,64,40
318.2842,318.46243,65,64,40
318.46243,318.64066,69,64,40
318.46243,318.64066,65,64,40
318.64066,318.81888,69,64,40
318.64066,318.81888,65,64,40
318.81888,318.9971,69,64,40
318.81888,318.9971,65,64,40
318.9971,319.17532,69,64,40
318.9971,319.17532,65,64,40
319.17532,319.35355,69,64,40
319.17532,319.35355,65,64,40
319.35355,319.5318,69,64,40
319.35355,319.5318,65,64,40
319.5318,319.71002,69,64,40
319.5318,319.71002,65,64,40
319.71002,319.88824,69,64,40
319.71002,319.88824,65,64,40
319.88824,320.06647,69,64,40
319.88824,320.06647,65,64,40
320.06647,320.2447,69,64,40
320.06647,320.2447,65,64,40
320.2447,320.4229,69,64,40
320.2447,320.4229,65,64,40
320.4229,320.60114,69,64,40
320.4229,320.60114,65,64,40
320.60114,320.77936,70,64,40
320.60114,320.77936,67,64,40
320.77936,320.95758,70,64,40
320.77936,320.95758,67,64,40
320.95758,321.1358,70,64,40
320.95758,321.1358,67,64,40
321.1358,321.31403,70,64,40
321.1358,321.31403,67,64,40
321.31403,321.49225,70,64,40
321.31403,321.49225,67,64,40
321.49225,321.67047,70,64,40
321.49225,321.67047,67,64,40
321.67047,321.8487,70,64,40
321.67047,321.8487,67,64,40
321.8487,322.02692,70,64,40
321.8487,322.02692,67,64,40
322.02692,322.20514,70,64,40
322.02692,322.20514,67,64,40
322.20514,322.38336,70,64,40
322.20514,322.38336,67,64,40
322.38336,322.56158,70,64,40
322.38336,322.56158,67,64,40
322.56158,322.7398,70,64,40
322.56158,322.7398,67,64,40
322.7398,322.91803,70,64,40
322.7398,322.91803,67,64,40
322.91803,323.09625,70,64,40
322.91803,323.09625,67,64,40
323.09625,323.27448,70,64,40
323.09625,323.27448,67,64,40
323.27448,323.4527,70,64,40
323.27448,323.4527,67,64,40
323.4527,323.63092,70,64,40
323.4527,323.63092,67,64,40
323.63092,323.80914,70,64,40
323.63092,323.80914,67,64,40
323.80914,323.98737,69,64,40
323.80914,323.98737,65,64,40
323.98737,324.1656,69,64,40
323.98737,324.1656,65,64,40
324.1656,324.3438,69,64,40
324.1656,324.3438,65,64,40
324.3438,324.52203,69,64,40
324.3438,324.52203,65,64,40
324.52203,324.70026,69,64,40
324.52203,324.70026,65,64,40
324.70026,324.87848,69,64,40
324.70026,324.87848,65,64,40
324.87848,325.0567,69,64,40
324.87848,325.0567,65,64,40
325.0567,325.23492,69,64,40
325.0567,325.23492,65,64,40
325.23492,325.41315,69,64,40
325.23492,325.41315,65,64,40
325.41315,325.59137,69,64,40
325.41315,325.59137,65,64,40
325.59137,325.7696,69,64,40
325.59137,325.7696,65,64,40
325.7696,325.9478,69,64,40
325.7696,325.9478,65,64,40
325.9478,326.12604,69,64,40
325.9478,326.12604,65,64,40
326.12604,326.30426,69,64,40
326.12604,326.30426,65,64,40
326.30426,326.48248,69,64,40
326.30426,326.48248,65,64,40
326.48248,326.6607,69,64,40
326.48248,326.6607,65,64,40
326.6607,326.83893,69,64,40
326.6607,326.83893,65,64,40
326.83893,327.01715,69,64,40
326.83893,327.01715,65,64,40
327.01715,327.19537,69,64,40
327.01715,327.19537,67,64,40
327.19537,327.3736,69,64,40
327.19537,327.3736,67,64,40
327.3736,327.55185,69,64,40
327.3736,327.55185,67,64,40
327.55185,327.73007,69,64,40
327.55185,327.73007,67,64,40
327.73007,327.9083,69,64,40
327.73007,327.9083,67,64,40
327.9083,328.08652,69,64,40
327.9083,328.08652,67,64,40
328.08652,328.26474,69,64,40
328.08652,328.26474,67,64,40
328.26474,328.44296,69,64,40
328.26474,328.44296,67,64,40
328.44296,328.6212,69,64,40
328.44296,328.6212,67,64,40
328.6212,328.7994,69,64,40
328.6212,328.7994,67,64,40
328.7994,328.97763,69,64,40
328.7994,328.97763,67,64,40
328.97763,329.15585,69,64,40
328.97763,329.15585,67,64,40
329.15585,329.33408,69,64,40
329.15585,329.33408,67,64,40
329.33408,329.5123,69,64,40
329.33408,329.5123,67,64,40
329.5123,329.69052,69,64,40
329.5123,329.69052,67,64,40
329.69052,329.86874,69,64,40
329.69052,329.86874,67,64,40
329.86874,330.04697,69,64,40
329.86874,330.04697,67,64,40
330.04697,330.2252,69,64,40
330.04697,330.2252,67,64,40
330.2252,330.4034,69,64,40
330.2252,330.4034,65,64,40
330.4034,330.58163,69,64,40
330.4034,330.58163,65,64,40
330.58163,330.75986,69,64,40
330.58163,330.75986,65,64,40
330.75986,330.93808,69,64,40
330.75986,330.93808,65,64,40
330.93808,331.1163,69,64,40
330.93808,331.1163,65,64,40
331.1163,331.29453,69,64,40
331.1163,331.29453,65,64,40
331.29453,331.47275,69,64,40
331.29453,331.47275,65,64,40
331.47275,331.65097,69,64,40
331.47275,331.65097,65,64,40
331.65097,331.8292,69,64,40
331.65097,331.8292,65,64,40
331.8292,332.00742,69,64,40
331.8292,332.00742,65,64,40
332.00742,332.18564,69,64,40
332.00742,332.18564,65,64,40
332.18564,332.36386,69,64,40
332.18564,332.36386,65,64,40
332.36386,332.54208,69,64,40
332.36386,332.54208,65,64,40
332.54208,332.7203,69,64,40
332.54208,332.7203,65,64,40
332.7203,332.89853,69,64,40
332.7203,332.89853,65,64,40
332.89853,333.07675,69,64,40
332.89853,333.07675,65,64,40
333.07675,333.25497,69,64,40
333.07675,333.25497,65,64,40
333.25497,333.4332,69,64,40
333.25497,333.4332,65,64,40
333.4332,333.61142,69,64,40
333.4332,333.61142,65,64,40
333.61142,333.78964,69,64,40
333.61142,333.78964,65,64,40
333.78964,333.96786,69,64,40
333.78964,333.96786,65,64,40
333.96786,334.1461,69,64,40
333.96786,334.1461,65,64,40
334.1461,334.3243,69,64,40
334.1461,334.3243,65,64,40
334.3243,334.50253,69,64,40
334.3243,334.50253,65,64,40
334.50253,334.68076,69,64,40
334.50253,334.68076,65,64,40
334.68076,334.85898,69,64,40
334.68076,334.85898,65,64,40
334.85898,335.0372,69,64,40
334.85898,335.0372,65,64,40
335.0372,335.21542,69,64,40
335.0372,335.21542,65,64,40
335.21542,335.39365,69,64,40
335.21542,335.39365,65,64,40
335.39365,335.5719,69,64,40
335.39365,335.5719,65,64,40
335.5719,335.75012,69,64,40
335.5719,335.75012,65,64,40
335.75012,335.92834,69,64,40
335.75012,335.92834,65,64,40
335.92834,336.10657,69,64,40
335.92834,336.10657,65,64,40
336.10657,336.2848,69,64,40
336.10657,336.2848,65,64,40
336.2848,336.463,69,64,40
336.2848,336.463,65,64,40
336.463,336.64124,69,64,40
336.463,336.64124,65,64,40
336.64124,336.81946,70,64,40
336.64124,336.81946,65,64,40
336.81946,336.99768,70,64,40
336.81946,336.99768,65,64,40
336.99768,337.1759,70,64,40
336.99768,337.1759,65,64,40
337.1759,337.35413,70,64,40
337.1759,337.35413,66,64,40
337.35413,337.53235,70,64,40
337.35413,337.53235,66,64,40
337.53235,337.71057,70,64,40
337.53235,337.71057,66,64,40
337.71057,337.8888,70,64,40
337.71057,337.8888,67,64,40
337.8888,338.06702,70,64,40
337.8888,338.06702,67,64,40
338.06702,338.24524,70,64,40
338.06702,338.24524,67,64,40
338.24524,338.42346,70,64,40
338.24524,338.42346,67,64,40
338.42346,338.60168,70,64,40
338.42346,338.60168,67,64,40
338.60168,338.7799,70,64,40
338.60168,338.7799,67,64,40
338.7799,338.95813,70,64,40
338.7799,338.95813,67,64,40
338.95813,339.13635,70,64,40
338.95813,339.13635,67,64,40
339.13635,339.31458,70,64,40
339.13635,339.31458,67,64,40
339.31458,339.4928,70,64,40
339.31458,339.4928,67,64,40
339.4928,339.67102,70,64,40
339.4928,339.67102,67,64,40
339.67102,339.84924,70,64,40
339.67102,339.84924,67,64,40
339.84924,340.3839,70,64,40
339.84924,340.3839,67,64,40
340.3839,341.0968,82,73,40
341.0968,341.1859,84,64,40
341.27502,341.36414,86,64,40
341.45325,341.54236,84,64,40
341.63147,341.72058,82,64,40
341.8097,341.8988,81,64,40
341.9879,342.07703,79,64,40
342.16614,342.25525,77,64,40
342.34436,342.43347,76,64,40
342.52258,342.6117,74,64,40
342.7008,342.78992,72,64,40
342.87903,342.96814,70,64,40
343.05725,343.59195,68,74,40
343.59195,344.12662,67,64,40
344.52762,344.6613,61,54,40
344.6613,345.59695,73,54,40
345.59695,345.73062,61,54,40
345.73062,346.2653,73,54,40
346.2653,346.53262,72,54,40
346.79996,347.51285,82,73,40
347.51285,347.60196,84,64,40
347.69107,347.78018,85,64,40
347.8693,347.9584,84,64,40
348.04752,348.13663,82,64,40
348.22574,348.31485,80,64,40
348.40396,348.49307,79,64,40
348.58218,348.6713,77,64,40
348.7604,348.84952,76,64,40
348.93863,349.02774,73,64,40
349.11685,349.20596,72,64,40
349.29507,349.3842,70,64,40
349.4733,350.00797,68,74,40
350.00797,350.54263,67,61,40
350.94363,351.0773,61,54,40
351.0773,352.013,73,54,40
352.013,352.14667,61,54,40
352.14667,352.68134,73,54,40
352.68134,352.94867,72,54,40
353.216,353.9289,82,64,40
353.9289,354.018,84,55,40
354.10712,354.19623,85,55,40
354.28534,354.37445,84,55,40
354.46356,354.55267,82,55,40
354.64178,354.7309,80,55,40
354.82,354.90912,79,55,40
354.99823,355.08734,77,55,40
355.17645,355.26556,76,55,40
355.35468,355.4438,73,54,40
355.5329,355.622,72,54,40
355.71112,355.80023,70,54,40
355.88934,356.424,68,54,40
356.424,356.95868,67,54,40
358.028,358.56268,68,54,40
358.56268,359.09735,67,54,40
360.16672,360.7014,68,54,40
360.7014,361.23605,67,54,40
362.3054,362.4836,58,54,40
362.4836,362.66183,58,54,40
362.66183,362.84006,58,54,40
362.84006,363.01828,58,53,40
363.01828,363.1965,58,53,40
363.1965,363.37473,58,53,40
363.37473,363.55295,57,52,40
363.55295,363.73117,57,52,40
363.73117,363.9094,57,52,40
363.9094,364.08762,57,52,40
364.08762,364.26584,57,51,40
364.26584,364.44406,57,51,40
364.44406,364.62228,55,51,40
364.62228,364.8005,55,51,40
364.8005,364.97873,55,50,40
364.97873,365.15695,55,50,40
365.15695,365.33517,55,50,40
365.33517,365.5134,55,49,40
365.5134,365.69162,62,49,40
365.69162,365.86984,62,49,40
365.86984,366.04807,62,49,40
366.04807,366.2263,62,48,40
366.2263,366.4045,62,48,40
366.4045,366.58273,62,48,40
366.58273,366.76096,60,47,40
366.76096,366.93918,60,47,40
366.93918,367.1174,60,47,40
367.1174,367.29562,60,47,40
367.29562,367.47385,60,46,40
367.47385,367.65207,60,46,40
367.65207,367.83032,58,46,40
367.83032,368.00854,58,46,40
368.00854,368.18677,58,45,40
368.18677,368.365,58,45,40
368.365,368.5432,58,45,40
368.5432,368.72144,58,44,40
368.72144,368.92194,57,44,40
369.12244,369.2561,57,44,40
369.2561,369.38977,57,44,40
369.79077,369.99127,57,44,40
370.19177,370.32544,57,44,40
370.32544,370.4591,57,44,40
370.8601,371.0606,57,44,40
371.2611,371.39478,57,44,40
371.39478,371.52844,57,44,40
371.92944,372.12994,58,44,40
372.33044,372.4641,58,44,40
372.4641,372.59778,58,44,40
372.99878,373.19928,58,44,40
373.39978,373.53345,58,44,40
373.53345,373.6671,58,44,40
374.0681,374.26862,58,44,40
374.46912,374.60278,58,44,40
374.60278,374.73645,58,44,40
375.13745,376.07315,57,44,40
375.13745,376.07315,65,44,40
376.07315,376.20682,69,44,40
376.20682,377.1425,72,44,40
377.1425,377.27615,72,44,40
377.27615,378.21182,77,44,40
378.21182,378.3455,81,44,40
378.3455,379.28116,82,44,40
379.28116,379.41483,76,44,40
379.41483,380.3505,79,44,40
380.3505,380.48416,67,44,40
380.48416,381.41983,70,44,40
381.41983,381.48666,72,44,40
381.48666,381.5535,70,44,40
381.5535,382.48917,69,44,40
382.48917,382.62283,69,44,40
382.62283,383.5585,72,44,40
383.5585,383.69217,72,44,40
383.69217,384.62787,73,44,40
384.62787,384.76154,64,44,40
384.76154,385.6972,65,44,40
385.6972,385.83087,69,44,40
385.83087,386.76654,72,44,40
386.76654,386.9002,72,44,40
386.9002,387.83588,73,44,40
387.83588,387.96954,64,44,40
387.96954,388.92538,65,44,40
388.92538,389.0657,65,44,40
389.0657,390.07724,60,44,40
390.07724,390.22595,60,44,40
390.22595,391.30002,69,44,40
391.30002,391.45822,69,44,40
391.45822,396.0825,65,44,40
2.1186125,2.6532824,65,64,41
2.6532824,3.1879525,60,64,41
3.1879525,3.7226224,69,75,41
3.7226224,4.2572923,65,64,41
4.2572923,4.7919626,62,64,41
4.7919626,5.3266325,58,64,41
5.3266325,5.8613024,57,64,41
5.8613024,6.3959727,60,64,41
6.3959727,6.9306426,58,64,41
6.9306426,7.4653125,60,64,41
7.4653125,7.9999824,58,64,41
7.9999824,8.534653,60,64,41
8.534653,9.069323,57,64,41
9.069323,9.603992,63,67,41
9.603992,10.138662,62,70,41
10.138662,10.673332,59,74,41
10.673332,11.208002,60,71,41
11.208002,11.742673,57,67,41
11.742673,12.277343,53,64,41
12.277343,12.812013,60,64,41
12.812013,13.363185,52,64,41
13.363185,13.9597225,58,64,41
13.9597225,14.609767,64,64,41
14.609767,15.32459,67,64,41
15.32459,15.941137,65,64,41
15.941137,16.475807,60,64,41
16.475807,17.010477,69,75,41
17.010477,17.545147,65,64,41
17.545147,18.079819,62,64,41
18.079819,18.614489,58,64,41
18.614489,19.149158,57,64,41
19.149158,19.683828,60,64,41
19.683828,20.218498,58,64,41
20.218498,20.753168,60,64,41
20.753168,21.287838,58,64,41
21.287838,21.822508,60,64,41
21.822508,22.357178,57,64,41
22.357178,22.891848,63,67,41
22.891848,23.426517,62,70,41
23.426517,23.961187,59,74,41
23.961187,24.495857,60,71,41
24.495857,25.030527,65,67,41
25.030527,25.832533,64,64,41
25.832533,26.099867,58,59,41
26.099867,26.634539,57,57,41
26.634539,27.169209,57,54,41
27.169209,27.703878,58,57,41
27.703878,28.238548,60,60,41
28.238548,28.773218,62,64,41
28.773218,29.307888,65,64,41
29.307888,29.842558,74,64,41
29.842558,30.377228,70,64,41
30.377228,30.911898,69,64,41
30.911898,31.446568,63,64,41
31.446568,31.981237,62,64,41
31.981237,32.515907,65,64,41
32.515907,33.05058,63,74,41
33.05058,33.585247,65,64,41
33.585247,34.11992,63,64,41
34.11992,34.654587,65,64,41
34.654587,35.18926,62,64,41
35.18926,35.723927,66,64,41
35.723927,36.2586,67,74,41
36.2586,36.793266,62,64,41
36.793266,37.327938,67,64,41
37.327938,37.862606,70,64,41
37.862606,38.397278,60,64,41
38.397278,38.93195,64,64,41
38.93195,39.466618,65,74,41
39.466618,40.00129,60,64,41
40.00129,40.535957,65,64,41
40.535957,41.07063,69,64,41
41.07063,41.605297,67,64,41
41.605297,41.87263,62,64,41
41.87263,42.13997,58,64,41
42.13997,42.98352,57,64,41
42.98352,43.13407,58,64,41
43.13407,43.287678,57,64,41
43.287678,43.93772,55,64,41
44.652546,45.269093,53,64,41
45.269093,45.803764,60,64,41
45.803764,46.338432,69,74,41
46.338432,46.873104,65,64,41
46.873104,47.407772,62,64,41
47.407772,47.942444,58,64,41
47.942444,48.47711,57,64,41
48.47711,49.011784,60,64,41
49.011784,49.54645,58,64,41
49.54645,50.081123,60,64,41
50.081123,50.61579,65,64,41
50.61579,51.150463,63,64,41
51.150463,51.685135,62,64,41
51.685135,52.219803,65,64,41
52.219803,52.754475,74,74,41
52.754475,53.289143,70,64,41
53.289143,53.823814,67,64,41
53.823814,54.358482,63,64,41
54.358482,54.893154,62,64,41
54.893154,55.427822,65,64,41
55.427822,55.962494,63,64,41
55.962494,56.49716,65,64,41
56.49716,57.031834,62,64,41
57.031834,57.5665,65,64,41
57.5665,58.101173,65,64,41
58.101173,58.63584,62,64,41
58.63584,59.170513,60,64,41
59.170513,59.705185,57,64,41
59.705185,60.239853,58,64,41
60.239853,60.774525,64,64,41
60.774525,61.309193,57,100,41
60.774525,61.309193,65,100,41
61.309193,61.576527,57,64,41
61.843864,62.1112,60,64,41
62.378532,62.645866,65,64,41
62.913204,63.18054,69,64,41
63.447872,63.715206,72,64,41
63.982544,64.51721,53,100,41
64.51721,64.784546,57,64,41
65.05188,65.31922,60,64,41
65.586555,65.85389,65,64,41
66.12122,66.38856,69,64,41
66.65589,66.923225,72,64,41
67.19056,67.725235,54,100,41
67.725235,67.99257,57,64,41
68.2599,68.52724,60,64,41
68.79457,69.061905,66,64,41
69.32925,69.59658,69,64,41
69.863914,70.13125,72,64,41
70.39858,70.93325,54,100,41
70.93325,71.200584,57,64,41
71.467926,71.73526,61,64,41
72.002594,72.26993,66,64,41
72.53726,72.804596,69,64,41
73.07193,73.33927,73,64,41
73.606606,74.14127,53,100,41
74.14127,74.40861,56,64,41
74.67594,74.943275,59,64,41
75.21061,75.47795,65,64,41
75.745285,76.01262,68,64,41
76.27995,76.54729,71,64,41
76.81462,77.883965,69,64,41
78.41863,78.68597,61,64,41
78.9533,79.220634,61,64,41
79.487976,79.75531,61,64,41
80.022644,81.09198,62,64,41
81.09198,82.69599,66,74,41
82.69599,83.23066,62,64,41
83.23066,84.83467,61,64,41
84.83467,85.36935,69,64,41
85.36935,85.904015,68,64,41
85.904015,86.43868,66,64,41
86.43868,87.508026,65,64,41
87.508026,88.57736,62,74,41
88.57736,89.11203,61,64,41
89.11203,89.646706,65,64,41
89.646706,90.71604,66,64,41
91.25071,91.51805,69,64,41
91.785385,92.05272,70,67,41
92.32005,92.58739,70,71,41
92.85472,93.74584,71,64,41
93.74584,93.83495,71,64,41
93.83495,93.924065,73,64,41
93.924065,95.528076,74,74,41
95.528076,96.062744,71,64,41
96.062744,97.13208,69,64,41
97.666756,98.20142,69,64,41
98.20142,98.73609,68,64,41
98.73609,99.27076,66,64,41
99.27076,99.805435,65,64,41
99.805435,100.3401,68,64,41
100.3401,101.40945,62,74,41
101.40945,101.944115,61,64,41
101.944115,102.47878,65,64,41
102.47878,103.54813,66,64,41
104.082794,104.61746,61,64,41
104.61746,105.15213,66,64,41
105.15213,105.686806,69,64,41
105.686806,107.825485,69,74,41
107.825485,108.09282,68,64,41
108.09282,108.36015,69,64,41
108.36015,108.62749,71,64,41
108.62749,108.89482,69,64,41
108.89482,109.964165,69,64,41
109.964165,111.0335,66,64,41
111.0335,112.102844,71,74,41
112.102844,113.17218,66,64,41
113.17218,114.77619,67,74,41
114.77619,115.31086,61,64,41
115.31086,115.48909,62,74,41
115.48909,115.66731,62,64,41
115.66731,115.845535,62,64,41
115.845535,116.02376,62,64,41
116.02376,116.20198,62,64,41
116.20198,116.3802,62,64,41
116.3802,116.558426,62,64,41
116.558426,116.73665,62,64,41
116.73665,116.91487,62,64,41
116.91487,117.093094,62,64,41
117.093094,117.27132,62,64,41
117.27132,117.44955,62,64,41
117.44955,117.62777,62,64,41
117.62777,117.80599,62,64,41
117.80599,117.984215,62,64,41
117.984215,118.16244,62,64,41
118.16244,118.34066,62,64,41
118.34066,118.51888,62,64,41
118.51888,118.697105,61,64,41
118.51888,118.697105,64,64,41
118.697105,118.87533,61,64,41
118.697105,118.87533,64,64,41
118.87533,119.05355,61,64,41
118.87533,119.05355,64,64,41
119.05355,119.23177,61,64,41
119.05355,119.23177,64,64,41
119.23177,119.409996,61,64,41
119.23177,119.409996,64,64,41
119.409996,119.58823,61,64,41
119.409996,119.58823,64,64,41
119.58823,119.76645,61,64,41
119.58823,119.76645,64,64,41
119.76645,119.94467,61,64,41
119.76645,119.94467,64,64,41
119.94467,120.122894,61,64,41
119.94467,120.122894,64,64,41
120.122894,120.30112,61,64,41
120.122894,120.30112,64,64,41
120.30112,120.47934,61,64,41
120.30112,120.47934,64,64,41
120.47934,120.65756,61,64,41
120.47934,120.65756,64,64,41
120.65756,120.835785,61,64,41
120.65756,120.835785,64,64,41
120.835785,121.01401,61,64,41
120.835785,121.01401,64,64,41
121.01401,121.19223,61,64,41
121.01401,121.19223,64,64,41
121.19223,121.37045,61,64,41
121.19223,121.37045,64,64,41
121.37045,121.54868,61,64,41
121.37045,121.54868,64,64,41
121.54868,121.726906,61,64,41
121.54868,121.726906,64,64,41
121.726906,121.90513,62,64,41
121.90513,122.08335,62,64,41
122.08335,122.26157,62,64,41
122.26157,122.4398,62,64,41
122.4398,122.61802,62,64,41
122.61802,122.79624,62,64,41
122.79624,122.974464,62,64,41
122.974464,123.15269,62,64,41
123.15269,123.33091,62,64,41
123.33091,123.50914,62,64,41
123.50914,123.68736,62,64,41
123.68736,123.865585,62,64,41
123.865585,124.04381,62,64,41
124.04381,124.22203,62,64,41
124.22203,124.40025,62,64,41
124.40025,124.578476,62,64,41
124.578476,124.7567,62,64,41
124.7567,124.93492,62,64,41
124.93492,125.113144,61,64,41
124.93492,125.113144,64,64,41
125.113144,125.29137,61,64,41
125.113144,125.29137,64,64,41
125.29137,125.4696,61,64,41
125.29137,125.4696,64,64,41
125.4696,125.64782,61,64,41
125.4696,125.64782,64,64,41
125.64782,125.82604,61,64,41
125.64782,125.82604,64,64,41
125.82604,126.004265,61,64,41
125.82604,126.004265,64,64,41
126.004265,126.18249,61,64,41
126.004265,126.18249,64,64,41
126.18249,126.36071,61,64,41
126.18249,126.36071,64,64,41
126.36071,126.53893,61,64,41
126.36071,126.53893,64,64,41
126.53893,126.717155,61,64,41
126.53893,126.717155,64,64,41
126.717155,126.89538,61,64,41
126.717155,126.89538,64,64,41
126.89538,127.0736,61,64,41
126.89538,127.0736,64,64,41
127.0736,127.25182,61,64,41
127.0736,127.25182,64,64,41
127.25182,127.430046,61,64,41
127.25182,127.430046,64,64,41
127.430046,127.60828,61,64,41
127.430046,127.60828,64,64,41
127.60828,127.7865,61,64,41
127.60828,127.7865,64,64,41
127.7865,127.96472,61,64,41
127.7865,127.96472,64,64,41
127.96472,128.14294,61,64,41
127.96472,128.14294,64,64,41
128.14294,128.32117,62,64,41
128.32117,128.49939,62,64,41
128.49939,128.67761,62,64,41
128.67761,128.85583,62,64,41
128.85583,129.03406,62,64,41
129.03406,129.21228,62,64,41
129.21228,129.3905,62,64,41
129.3905,129.56873,62,64,41
129.56873,129.74695,62,64,41
129.74695,129.92517,62,64,41
129.92517,130.1034,62,64,41
130.1034,130.28162,62,64,41
130.28162,130.45984,62,64,41
130.45984,130.63808,62,64,41
130.63808,130.8163,62,64,41
130.8163,130.99452,62,64,41
130.99452,131.17274,62,64,41
131.17274,131.35097,62,64,41
131.35097,131.52919,64,64,41
131.52919,131.70741,64,64,41
131.70741,131.88564,64,64,41
131.88564,132.06386,64,64,41
132.06386,132.24208,64,64,41
132.24208,132.4203,64,64,41
132.4203,132.59853,64,64,41
132.59853,132.77675,64,64,41
132.77675,132.95497,64,64,41
132.95497,133.1332,64,64,41
133.1332,133.31142,64,64,41
133.31142,133.48964,64,64,41
133.48964,133.66786,64,64,41
133.66786,133.84608,64,64,41
133.84608,134.0243,64,64,41
134.0243,134.20253,64,64,41
134.20253,134.38075,64,64,41
134.38075,134.55899,64,64,41
134.55899,134.73721,62,64,41
134.73721,134.91544,62,64,41
134.91544,135.09366,62,64,41
135.09366,135.27188,62,64,41
135.27188,135.4501,62,64,41
135.4501,135.62833,62,64,41
135.62833,135.80655,62,64,41
135.80655,135.98477,62,64,41
135.98477,136.163,62,64,41
136.163,136.34122,62,64,41
136.34122,136.51944,62,64,41
136.51944,136.69766,62,64,41
136.69766,136.87589,62,64,41
136.87589,137.05411,62,64,41
137.05411,137.23233,62,64,41
137.23233,137.41055,62,64,41
137.41055,137.58878,62,64,41
137.58878,137.767,62,64,41
137.767,137.94522,60,64,41
137.767,137.94522,62,64,41
137.94522,138.12344,60,64,41
137.94522,138.12344,62,64,41
138.12344,138.30167,60,64,41
138.12344,138.30167,62,64,41
138.30167,138.47989,60,64,41
138.30167,138.47989,62,64,41
138.47989,138.65813,60,64,41
138.47989,138.65813,62,64,41
138.65813,138.83635,60,64,41
138.65813,138.83635,62,64,41
138.83635,139.01457,60,64,41
138.83635,139.01457,62,64,41
139.01457,139.1928,60,64,41
139.01457,139.1928,62,64,41
139.1928,139.37102,60,64,41
139.1928,139.37102,62,64,41
139.37102,139.54924,60,64,41
139.37102,139.54924,62,64,41
139.54924,139.72746,60,64,41
139.54924,139.72746,62,64,41
139.72746,139.90569,60,64,41
139.72746,139.90569,62,64,41
139.90569,140.08391,60,64,41
139.90569,140.08391,62,64,41
140.08391,140.26213,60,64,41
140.08391,140.26213,62,64,41
140.26213,140.44035,60,64,41
140.26213,140.44035,62,64,41
140.44035,140.61858,60,64,41
140.44035,140.61858,62,64,41
140.61858,140.7968,60,64,41
140.61858,140.7968,62,64,41
140.7968,140.97502,60,64,41
140.7968,140.97502,62,64,41
140.97502,141.15324,57,54,41
140.97502,141.15324,66,54,41
141.15324,141.33147,57,54,41
141.15324,141.33147,66,54,41
141.33147,141.50969,57,54,41
141.33147,141.50969,66,54,41
141.50969,141.68791,57,54,41
141.50969,141.68791,66,54,41
141.68791,141.86613,57,54,41
141.68791,141.86613,66,54,41
141.86613,142.04436,57,54,41
141.86613,142.04436,66,54,41
142.04436,142.22258,57,54,41
142.04436,142.22258,66,54,41
142.22258,142.4008,57,54,41
142.22258,142.4008,66,54,41
142.4008,142.57904,57,54,41
142.4008,142.57904,66,54,41
142.57904,142.75726,57,54,41
142.57904,142.75726,66,54,41
142.75726,142.93549,57,54,41
142.75726,142.93549,66,54,41
142.93549,143.11371,57,54,41
142.93549,143.11371,66,54,41
143.11371,143.29193,57,54,41
143.11371,143.29193,66,54,41
143.29193,143.47015,57,54,41
143.29193,143.47015,66,54,41
143.47015,143.64838,57,54,41
143.47015,143.64838,66,54,41
143.64838,143.8266,57,54,41
143.64838,143.8266,66,54,41
143.8266,144.00482,57,54,41
143.8266,144.00482,66,54,41
144.00482,144.18304,57,54,41
144.00482,144.18304,66,54,41
144.18304,144.36127,63,54,41
144.18304,144.36127,60,54,41
144.36127,144.53949,63,54,41
144.36127,144.53949,60,54,41
144.53949,144.71771,63,54,41
144.53949,144.71771,60,54,41
144.71771,144.89594,63,54,41
144.71771,144.89594,60,54,41
144.89594,145.07416,63,54,41
144.89594,145.07416,60,54,41
145.07416,145.25238,63,54,41
145.07416,145.25238,60,54,41
145.25238,145.4306,63,54,41
145.25238,145.4306,60,54,41
145.4306,145.60883,63,54,41
145.4306,145.60883,60,54,41
145.60883,145.78705,63,54,41
145.60883,145.78705,60,54,41
145.78705,145.96527,63,54,41
145.78705,145.96527,60,54,41
145.96527,146.1435,63,54,41
145.96527,146.1435,60,54,41
146.1435,146.32172,63,54,41
146.1435,146.32172,60,54,41
146.32172,146.49994,63,54,41
146.32172,146.49994,60,54,41
146.49994,146.67818,63,54,41
146.49994,146.67818,60,54,41
146.67818,146.8564,63,54,41
146.67818,146.8564,60,54,41
146.8564,147.03462,63,54,41
146.8564,147.03462,60,54,41
147.03462,147.21284,63,54,41
147.03462,147.21284,60,54,41
147.21284,147.39107,63,54,41
147.21284,147.39107,60,54,41
147.39107,147.56929,60,54,41
147.39107,147.56929,62,54,41
147.56929,147.74751,60,54,41
147.56929,147.74751,62,54,41
147.74751,147.92574,60,54,41
147.74751,147.92574,62,54,41
147.92574,148.10396,60,54,41
147.92574,148.10396,62,54,41
148.10396,148.28218,60,54,41
148.10396,148.28218,62,54,41
148.28218,148.4604,60,54,41
148.28218,148.4604,62,54,41
148.4604,148.63863,60,54,41
148.4604,148.63863,62,54,41
148.63863,148.81685,60,54,41
148.63863,148.81685,62,54,41
148.81685,148.99507,60,54,41
148.81685,148.99507,62,54,41
148.99507,149.1733,60,54,41
148.99507,149.1733,62,54,41
149.1733,149.35152,60,54,41
149.1733,149.35152,62,54,41
149.35152,149.52974,60,54,41
149.35152,149.52974,62,54,41
149.52974,149.70796,60,54,41
149.52974,149.70796,62,54,41
149.70796,149.88618,60,54,41
149.70796,149.88618,62,54,41
149.88618,150.0644,60,54,41
149.88618,150.0644,62,54,41
150.0644,150.24263,60,54,41
150.0644,150.24263,62,54,41
150.24263,150.42085,60,54,41
150.24263,150.42085,62,54,41
150.42085,150.59909,60,54,41
150.42085,150.59909,62,54,41
150.59909,150.77731,63,54,41
150.59909,150.77731,60,54,41
150.77731,150.95554,63,54,41
150.77731,150.95554,60,54,41
150.95554,151.13376,63,54,41
150.95554,151.13376,60,54,41
151.13376,151.31198,63,54,41
151.13376,151.31198,60,54,41
151.31198,151.4902,63,54,41
151.31198,151.4902,60,54,41
151.4902,151.66843,63,54,41
151.4902,151.66843,60,54,41
151.66843,151.84665,63,54,41
151.66843,151.84665,60,54,41
151.84665,152.02487,63,54,41
151.84665,152.02487,60,54,41
152.02487,152.2031,63,54,41
152.02487,152.2031,60,54,41
152.2031,152.38132,63,54,41
152.2031,152.38132,60,54,41
152.38132,152.55954,63,54,41
152.38132,152.55954,60,54,41
152.55954,152.73776,63,54,41
152.55954,152.73776,60,54,41
152.73776,152.91599,63,54,41
152.73776,152.91599,60,54,41
152.91599,153.09421,63,54,41
152.91599,153.09421,60,54,41
153.09421,153.27243,63,54,41
153.09421,153.27243,60,54,41
153.27243,153.45065,63,54,41
153.27243,153.45065,60,54,41
153.45065,153.62888,63,54,41
153.45065,153.62888,60,54,41
153.62888,153.8071,63,54,41
153.62888,153.8071,60,54,41
153.8071,153.98532,60,54,41
153.8071,153.98532,62,54,41
153.98532,154.16354,60,54,41
153.98532,154.16354,62,54,41
154.16354,154.34177,60,54,41
154.16354,154.34177,62,54,41
154.34177,154.51999,60,54,41
154.34177,154.51999,62,54,41
154.51999,154.69823,60,54,41
154.51999,154.69823,62,54,41
154.69823,154.87645,60,54,41
154.69823,154.87645,62,54,41
154.87645,155.05467,60,54,41
154.87645,155.05467,62,54,41
155.05467,155.2329,60,54,41
155.05467,155.2329,62,54,41
155.2329,155.41112,60,54,41
155.2329,155.41112,62,54,41
155.41112,155.58934,60,54,41
155.41112,155.58934,62,54,41
155.58934,155.76756,60,54,41
155.58934,155.76756,62,54,41
155.76756,155.94579,60,54,41
155.76756,155.94579,62,54,41
155.94579,156.12401,60,54,41
155.94579,156.12401,62,54,41
156.12401,156.30223,60,54,41
156.12401,156.30223,62,54,41
156.30223,156.48045,60,54,41
156.30223,156.48045,62,54,41
156.48045,156.65868,60,54,41
156.48045,156.65868,62,54,41
156.65868,156.8369,60,54,41
156.65868,156.8369,62,54,41
156.8369,157.01512,60,54,41
156.8369,157.01512,62,54,41
157.01512,157.19334,60,54,41
157.01512,157.19334,62,54,41
157.19334,157.37157,60,54,41
157.19334,157.37157,62,54,41
157.37157,157.54979,60,54,41
157.37157,157.54979,62,54,41
157.54979,157.72801,60,54,41
157.54979,157.72801,62,54,41
157.72801,157.90623,60,54,41
157.72801,157.90623,62,54,41
157.90623,158.08446,60,54,41
157.90623,158.08446,62,54,41
158.08446,158.26268,60,54,41
158.08446,158.26268,62,54,41
158.26268,158.4409,60,54,41
158.26268,158.4409,62,54,41
158.4409,158.61914,60,54,41
158.4409,158.61914,62,54,41
158.61914,158.79736,60,54,41
158.61914,158.79736,62,54,41
158.79736,158.97559,60,54,41
158.79736,158.97559,62,54,41
158.97559,159.15381,60,54,41
158.97559,159.15381,62,54,41
159.15381,159.33203,60,54,41
159.15381,159.33203,62,54,41
159.33203,159.51025,60,54,41
159.33203,159.51025,62,54,41
159.51025,159.68848,60,54,41
159.51025,159.68848,62,54,41
159.68848,159.8667,60,54,41
159.68848,159.8667,62,54,41
159.8667,160.04492,60,54,41
159.8667,160.04492,62,54,41
160.04492,160.22314,60,54,41
160.04492,160.22314,62,54,41
160.22314,160.40137,60,54,41
160.22314,160.40137,62,54,41
160.40137,160.57959,60,54,41
160.40137,160.57959,62,54,41
160.57959,160.75781,60,54,41
160.57959,160.75781,62,54,41
160.75781,160.93604,60,54,41
160.75781,160.93604,62,54,41
160.93604,161.11426,60,54,41
160.93604,161.11426,62,54,41
161.11426,161.29248,60,54,41
161.11426,161.29248,62,54,41
161.29248,161.4707,60,54,41
161.29248,161.4707,62,54,41
161.4707,161.64893,60,54,41
161.4707,161.64893,62,54,41
161.64893,161.82715,60,54,41
161.64893,161.82715,62,54,41
161.82715,162.00537,60,54,41
161.82715,162.00537,62,54,41
162.00537,162.1836,60,54,41
162.00537,162.1836,62,54,41
162.1836,162.36182,60,54,41
162.1836,162.36182,62,54,41
162.36182,162.54004,60,54,41
162.36182,162.54004,62,54,41
162.54004,162.71828,60,54,41
162.54004,162.71828,62,54,41
162.71828,162.8965,60,54,41
162.71828,162.8965,62,54,41
162.8965,163.07472,60,54,41
162.8965,163.07472,62,54,41
163.07472,163.25294,60,54,41
163.07472,163.25294,62,54,41
163.25294,163.43117,60,54,41
163.25294,163.43117,62,54,41
163.43117,163.60939,57,54,41
163.60939,163.78761,57,54,41
163.78761,163.96584,57,54,41
163.96584,164.14406,57,53,41
164.14406,164.32228,57,53,41
164.32228,164.5005,57,53,41
164.5005,164.67873,55,52,41
164.67873,164.85695,55,52,41
164.85695,165.03517,55,52,41
165.03517,165.2134,55,52,41
165.2134,165.39162,55,51,41
165.39162,165.56984,55,51,41
165.56984,165.74806,54,51,41
165.74806,165.92628,54,51,41
165.92628,166.1045,54,50,41
166.1045,166.28273,54,50,41
166.28273,166.46095,54,50,41
166.46095,166.63919,54,49,41
166.63919,166.81741,52,49,41
166.81741,166.99564,52,49,41
166.99564,167.17386,52,49,41
167.17386,167.35208,52,48,41
167.35208,167.5303,52,48,41
167.5303,167.70853,52,48,41
167.70853,167.88675,50,47,41
167.88675,168.06497,50,47,41
168.06497,168.2432,50,47,41
168.2432,168.42142,50,47,41
168.42142,168.59964,50,46,41
168.59964,168.77786,50,46,41
168.77786,168.95609,54,46,41
168.95609,169.13431,54,46,41
169.13431,169.31253,54,45,41
169.31253,169.49075,54,45,41
169.49075,169.66898,54,45,41
169.66898,169.8472,54,44,41
169.8472,170.0477,55,44,41
170.2482,170.38187,55,44,41
170.38187,170.51553,55,44,41
170.91655,171.11705,55,44,41
171.31755,171.45122,55,44,41
171.45122,171.58488,55,44,41
171.98589,172.18639,55,44,41
172.38689,172.52055,55,44,41
172.52055,172.65422,55,44,41
173.05522,173.25572,54,44,41
173.45622,173.58989,54,44,41
173.58989,173.72356,54,44,41
174.12456,174.32506,54,44,41
174.52556,174.65923,54,44,41
174.65923,174.79291,54,44,41
175.19391,175.39441,57,44,41
175.59491,175.72858,57,44,41
175.72858,175.86224,57,44,41
176.26324,176.46375,50,44,41
176.26324,176.46375,59,44,41
176.66425,176.79791,50,44,41
176.66425,176.79791,59,44,41
176.79791,176.93158,50,44,41
176.79791,176.93158,59,44,41
177.33258,177.53308,50,44,41
177.33258,177.53308,59,44,41
177.73358,177.86725,50,44,41
177.73358,177.86725,59,44,41
177.86725,178.00092,50,44,41
177.86725,178.00092,59,44,41
178.40192,178.60242,50,44,41
178.40192,178.60242,59,44,41
178.80293,178.9366,50,44,41
178.80293,178.9366,59,44,41
178.9366,179.07027,50,44,41
178.9366,179.07027,59,44,41
179.47127,179.67177,50,44,41
179.47127,179.67177,60,44,41
179.87227,180.00594,50,44,41
179.87227,180.00594,60,44,41
180.00594,180.1396,50,44,41
180.00594,180.1396,60,44,41
180.5406,180.7411,50,44,41
180.5406,180.7411,60,44,41
180.9416,181.07527,50,44,41
180.9416,181.07527,60,44,41
181.07527,181.20894,50,44,41
181.07527,181.20894,60,44,41
181.60994,181.81044,57,44,41
181.60994,181.81044,66,44,41
182.01094,182.1446,57,44,41
182.01094,182.1446,66,44,41
182.1446,182.27827,57,44,41
182.1446,182.27827,66,44,41
182.67928,182.87979,50,44,41
182.67928,182.87979,59,44,41
183.08029,183.21396,50,44,41
183.08029,183.21396,59,44,41
183.21396,183.34763,50,44,41
183.21396,183.34763,59,44,41
183.74863,183.94913,50,44,41
183.74863,183.94913,59,44,41
184.14963,184.2833,50,44,41
184.14963,184.2833,59,44,41
184.2833,184.41696,50,44,41
184.2833,184.41696,59,44,41
184.81796,185.01846,51,44,41
184.81796,185.01846,60,44,41
185.21896,185.35263,51,44,41
185.21896,185.35263,60,44,41
185.35263,185.4863,51,44,41
185.35263,185.4863,60,44,41
185.8873,186.0878,50,44,41
185.8873,186.0878,59,44,41
186.2883,186.42197,50,44,41
186.2883,186.42197,59,44,41
186.42197,186.55563,50,44,41
186.42197,186.55563,59,44,41
186.95665,187.15715,50,44,41
186.95665,187.15715,59,44,41
187.35765,187.49132,50,44,41
187.35765,187.49132,59,44,41
187.49132,187.62498,50,44,41
187.49132,187.62498,59,44,41
188.02599,188.22649,51,44,41
188.02599,188.22649,60,44,41
188.42699,188.56065,51,44,41
188.42699,188.56065,60,44,41
188.56065,188.69432,51,44,41
188.56065,188.69432,60,44,41
189.09532,189.29633,50,44,41
189.09532,189.29633,59,44,41
189.49939,189.63585,50,44,41
189.49939,189.63585,59,44,41
189.63585,189.77336,50,44,41
189.63585,189.77336,59,44,41
190.1915,190.40398,50,44,41
190.1915,190.40398,59,44,41
190.61874,190.76314,50,44,41
190.61874,190.76314,59,44,41
190.76314,190.90872,50,44,41
190.76314,190.90872,59,44,41
191.35173,191.57707,50,44,41
191.35173,191.57707,59,44,41
191.805,191.95831,50,44,41
191.805,191.95831,59,44,41
191.95831,192.11296,50,44,41
191.95831,192.11296,59,44,41
192.584,197.18599,59,44,41
192.584,197.18599,50,44,41
197.78482,198.31949,68,64,41
198.31949,198.85416,63,64,41
198.85416,199.38882,72,75,41
199.38882,199.9235,68,64,41
199.9235,200.45816,65,64,41
200.45816,200.99283,61,64,41
200.99283,201.5275,60,64,41
201.5275,202.06218,63,64,41
202.06218,202.59685,61,64,41
202.59685,203.13152,63,64,41
203.13152,203.66618,61,64,41
203.66618,204.20085,63,64,41
204.20085,204.73552,60,64,41
204.73552,205.27019,66,67,41
205.27019,205.80487,65,70,41
205.80487,206.33954,62,74,41
206.33954,206.8742,63,71,41
206.8742,207.40887,60,67,41
207.40887,207.94354,56,64,41
207.94354,208.47821,63,64,41
208.47821,209.02939,55,64,41
209.02939,209.62593,61,64,41
209.62593,210.27597,67,64,41
210.27597,210.99078,70,64,41
210.99078,211.60735,68,64,41
211.60735,212.14201,63,64,41
212.14201,212.67668,72,75,41
212.67668,213.21135,68,64,41
213.21135,213.74602,65,64,41
213.74602,214.28069,61,64,41
214.28069,214.81535,60,64,41
214.81535,215.35002,63,64,41
215.35002,215.8847,61,64,41
215.8847,216.41937,63,64,41
216.41937,216.95404,61,64,41
216.95404,217.48871,63,64,41
217.48871,218.02338,60,64,41
218.02338,218.55804,66,67,41
218.55804,219.09271,65,70,41
219.09271,219.6274,62,74,41
219.6274,220.16206,63,71,41
220.16206,220.69673,68,67,41
220.69673,221.49873,67,64,41
221.49873,221.76607,61,59,41
221.76607,222.30074,60,57,41
222.30074,222.8354,60,54,41
222.8354,223.37007,61,57,41
223.37007,223.90475,63,60,41
223.90475,224.43942,65,64,41
224.43942,224.97409,68,64,41
224.97409,225.50876,65,64,41
225.50876,226.04343,61,64,41
226.04343,226.5781,60,64,41
226.5781,227.11276,54,64,41
227.11276,227.64745,53,64,41
227.64745,228.18211,56,64,41
228.18211,228.71678,54,74,41
228.71678,229.25145,56,64,41
229.25145,229.78612,54,64,41
229.78612,230.32079,56,64,41
230.32079,230.85545,53,64,41
230.85545,231.39012,57,64,41
231.39012,231.9248,58,74,41
231.9248,232.45947,53,64,41
232.45947,232.99414,58,64,41
232.99414,233.52881,61,64,41
233.52881,234.06348,51,64,41
234.06348,234.59814,55,64,41
234.59814,235.13281,56,74,41
235.13281,235.6675,51,64,41
235.6675,236.20216,56,64,41
236.20216,236.73683,60,64,41
236.73683,237.2715,58,64,41
237.2715,237.53883,65,64,41
237.53883,237.80617,61,64,41
237.80617,238.64972,60,64,41
238.64972,238.80028,61,64,41
238.80028,238.95387,60,64,41
238.95387,239.60393,58,64,41
240.31874,240.93529,56,64,41
240.93529,241.46997,63,64,41
241.46997,242.00464,72,74,41
242.00464,242.5393,68,64,41
242.5393,243.07397,65,64,41
243.07397,243.60864,61,64,41
243.60864,244.14331,60,64,41
244.14331,244.67798,63,64,41
244.67798,245.21266,61,64,41
245.21266,245.74733,63,64,41
245.74733,246.282,68,64,41
246.282,246.81667,66,64,41
246.81667,247.35133,65,64,41
247.35133,247.886,68,64,41
247.886,248.42067,65,74,41
248.42067,248.95534,61,64,41
248.95534,249.49002,58,64,41
249.49002,250.02469,66,64,41
250.02469,250.55936,65,64,41
250.55936,251.09402,68,64,41
251.09402,251.6287,66,64,41
251.6287,252.16336,68,64,41
252.16336,252.69803,65,64,41
252.69803,253.23271,68,64,41
253.23271,253.76738,68,64,41
253.76738,254.30205,65,64,41
254.30205,254.83672,63,64,41
254.83672,255.37138,60,64,41
255.37138,255.90605,61,64,41
255.90605,256.44073,67,64,41
256.44073,256.9754,60,100,41
256.44073,256.9754,68,100,41
256.9754,257.24274,60,64,41
257.51007,257.7774,63,64,41
258.04474,258.31207,68,64,41
258.5794,258.84674,72,64,41
259.11407,259.3814,75,64,41
259.64874,260.1834,56,100,41
260.1834,260.45074,60,64,41
260.71808,260.9854,63,64,41
261.25275,261.52008,68,64,41
261.7874,262.05475,72,64,41
262.32208,262.58942,75,64,41
262.85675,263.39145,57,100,41
263.39145,263.65878,60,64,41
263.92612,264.19345,63,64,41
264.4608,264.72812,69,64,41
264.99545,265.2628,72,64,41
265.53012,265.79745,75,64,41
266.0648,266.59946,57,100,41
266.59946,266.8668,60,64,41
267.13412,267.40146,64,64,41
267.6688,267.93613,69,64,41
268.20346,268.4708,72,64,41
268.73813,269.00546,76,64,41
269.2728,269.80746,56,100,41
269.80746,270.0748,59,64,41
270.34213,270.60947,62,64,41
270.8768,271.14413,68,64,41
271.4115,271.67883,71,64,41
271.94617,272.2135,74,64,41
272.48083,273.55017,72,64,41
274.08484,274.35217,64,64,41
274.6195,274.88684,64,64,41
275.15417,275.4215,64,64,41
275.68884,276.75818,65,64,41
276.75818,278.36218,69,74,41
278.36218,278.89685,65,64,41
278.89685,280.5009,64,64,41
280.5009,281.03555,72,64,41
281.03555,281.57022,71,64,41
281.57022,282.1049,69,64,41
282.1049,283.17422,68,64,41
283.17422,284.24356,65,74,41
284.24356,284.77823,64,64,41
284.77823,285.3129,68,64,41
285.3129,286.38223,69,64,41
286.9169,287.18423,72,64,41
287.4516,287.71893,73,67,41
287.98627,288.2536,73,71,41
288.52094,289.41205,74,64,41
289.41205,289.50116,74,64,41
289.50116,289.59027,76,64,41
289.59027,291.19427,77,74,41
291.19427,291.72894,74,64,41
291.72894,292.79828,72,64,41
293.33295,293.8676,72,64,41
293.8676,294.40228,71,64,41
294.40228,294.93695,69,64,41
294.93695,295.47165,68,64,41
295.47165,296.00632,71,64,41
296.00632,297.07565,65,74,41
297.07565,297.61032,64,64,41
297.61032,298.145,68,64,41
298.145,299.21432,69,64,41
299.749,300.28366,64,64,41
300.28366,300.81833,69,64,41
300.81833,301.353,72,64,41
301.353,303.4917,72,74,41
303.4917,303.75903,71,64,41
303.75903,304.02637,72,64,41
304.02637,304.2937,74,64,41
304.2937,304.56104,72,64,41
304.56104,305.63037,72,64,41
305.63037,306.6997,69,64,41
306.6997,307.76904,74,74,41
307.76904,308.83838,69,64,41
308.83838,310.44238,70,74,41
310.44238,310.97705,64,64,41
310.97705,311.15527,65,74,41
311.15527,311.3335,60,64,41
311.3335,311.51175,60,64,41
311.51175,311.68997,60,64,41
311.68997,311.8682,60,64,41
311.8682,312.04642,60,64,41
312.04642,312.22464,60,64,41
312.22464,312.40286,60,64,41
312.40286,312.5811,60,64,41
312.5811,312.7593,60,64,41
312.7593,312.93753,60,64,41
312.93753,313.11575,60,64,41
313.11575,313.29398,60,64,41
313.29398,313.4722,60,64,41
313.4722,313.65042,60,64,41
313.65042,313.82864,60,64,41
313.82864,314.00687,60,64,41
314.00687,314.1851,60,64,41
314.1851,314.3633,64,64,41
314.1851,314.3633,60,64,41
314.3633,314.54153,64,64,41
314.3633,314.54153,60,64,41
314.54153,314.71976,64,64,41
314.54153,314.71976,60,64,41
314.71976,314.89798,64,64,41
314.71976,314.89798,60,64,41
314.89798,315.0762,64,64,41
314.89798,315.0762,60,64,41
315.0762,315.25443,64,64,41
315.0762,315.25443,60,64,41
315.25443,315.43265,64,64,41
315.25443,315.43265,60,64,41
315.43265,315.61087,64,64,41
315.43265,315.61087,60,64,41
315.61087,315.7891,64,64,41
315.61087,315.7891,60,64,41
315.7891,315.96732,64,64,41
315.7891,315.96732,60,64,41
315.96732,316.14554,64,64,41
315.96732,316.14554,60,64,41
316.14554,316.32376,64,64,41
316.14554,316.32376,60,64,41
316.32376,316.50198,64,64,41
316.32376,316.50198,60,64,41
316.50198,316.6802,64,64,41
316.50198,316.6802,60,64,41
316.6802,316.85843,64,64,41
316.6802,316.85843,60,64,41
316.85843,317.03665,64,64,41
316.85843,317.03665,60,64,41
317.03665,317.21487,64,64,41
317.03665,317.21487,60,64,41
317.21487,317.3931,64,64,41
317.21487,317.3931,60,64,41
317.3931,317.57132,65,64,41
317.57132,317.74954,60,64,41
317.74954,317.92776,60,64,41
317.92776,318.106,60,64,41
318.106,318.2842,60,64,41
318.2842,318.46243,60,64,41
318.46243,318.64066,60,64,41
318.64066,318.81888,60,64,41
318.81888,318.9971,60,64,41
318.9971,319.17532,60,64,41
319.17532,319.35355,60,64,41
319.35355,319.5318,60,64,41
319.5318,319.71002,60,64,41
319.71002,319.88824,60,64,41
319.88824,320.06647,60,64,41
320.06647,320.2447,60,64,41
320.2447,320.4229,60,64,41
320.4229,320.60114,60,64,41
320.60114,320.77936,64,64,41
320.60114,320.77936,60,64,41
320.77936,320.95758,64,64,41
320.77936,320.95758,60,64,41
320.95758,321.1358,64,64,41
320.95758,321.1358,60,64,41
321.1358,321.31403,64,64,41
321.1358,321.31403,60,64,41
321.31403,321.49225,64,64,41
321.31403,321.49225,60,64,41
321.49225,321.67047,64,64,41
321.49225,321.67047,60,64,41
321.67047,321.8487,64,64,41
321.67047,321.8487,60,64,41
321.8487,322.02692,64,64,41
321.8487,322.02692,60,64,41
322.02692,322.20514,64,64,41
322.02692,322.20514,60,64,41
322.20514,322.38336,64,64,41
322.20514,322.38336,60,64,41
322.38336,322.56158,64,64,41
322.38336,322.56158,60,64,41
322.56158,322.7398,64,64,41
322.56158,322.7398,60,64,41
322.7398,322.91803,64,64,41
322.7398,322.91803,60,64,41
322.91803,323.09625,64,64,41
322.91803,323.09625,60,64,41
323.09625,323.27448,64,64,41
323.09625,323.27448,60,64,41
323.27448,323.4527,64,64,41
323.27448,323.4527,60,64,41
323.4527,323.63092,64,64,41
323.4527,323.63092,60,64,41
323.63092,323.80914,64,64,41
323.63092,323.80914,60,64,41
323.80914,323.98737,65,64,41
323.98737,324.1656,60,64,41
324.1656,324.3438,60,64,41
324.3438,324.52203,60,64,41
324.52203,324.70026,60,64,41
324.70026,324.87848,60,64,41
324.87848,325.0567,62,64,41
325.0567,325.23492,62,64,41
325.23492,325.41315,62,64,41
325.41315,325.59137,62,64,41
325.59137,325.7696,62,64,41
325.7696,325.9478,62,64,41
325.9478,326.12604,62,64,41
326.12604,326.30426,62,64,41
326.30426,326.48248,62,64,41
326.48248,326.6607,62,64,41
326.6607,326.83893,62,64,41
326.83893,327.01715,62,64,41
327.01715,327.19537,64,64,41
327.19537,327.3736,64,64,41
327.3736,327.55185,64,64,41
327.55185,327.73007,64,64,41
327.73007,327.9083,64,64,41
327.9083,328.08652,64,64,41
328.08652,328.26474,64,64,41
328.26474,328.44296,64,64,41
328.44296,328.6212,64,64,41
328.6212,328.7994,64,64,41
328.7994,328.97763,64,64,41
328.97763,329.15585,64,64,41
329.15585,329.33408,64,64,41
329.33408,329.5123,64,64,41
329.5123,329.69052,64,64,41
329.69052,329.86874,61,64,41
329.86874,330.04697,61,64,41
330.04697,330.2252,61,64,41
330.2252,330.4034,62,64,41
330.4034,330.58163,62,64,41
330.58163,330.75986,62,64,41
330.75986,330.93808,62,64,41
330.93808,331.1163,62,64,41
331.1163,331.29453,62,64,41
331.29453,331.47275,62,64,41
331.47275,331.65097,62,64,41
331.65097,331.8292,62,64,41
331.8292,332.00742,62,64,41
332.00742,332.18564,62,64,41
332.18564,332.36386,62,64,41
332.36386,332.54208,62,64,41
332.54208,332.7203,62,64,41
332.7203,332.89853,62,64,41
332.89853,333.07675,62,64,41
333.07675,333.25497,62,64,41
333.25497,333.4332,62,64,41
333.4332,333.61142,60,64,41
333.4332,333.61142,63,64,41
333.61142,333.78964,60,64,41
333.61142,333.78964,63,64,41
333.78964,333.96786,60,64,41
333.78964,333.96786,63,64,41
333.96786,334.1461,60,64,41
333.96786,334.1461,63,64,41
334.1461,334.3243,60,64,41
334.1461,334.3243,63,64,41
334.3243,334.50253,60,64,41
334.3243,334.50253,63,64,41
334.50253,334.68076,60,64,41
334.50253,334.68076,63,64,41
334.68076,334.85898,60,64,41
334.68076,334.85898,63,64,41
334.85898,335.0372,60,64,41
334.85898,335.0372,63,64,41
335.0372,335.21542,60,64,41
335.0372,335.21542,63,64,41
335.21542,335.39365,60,64,41
335.21542,335.39365,63,64,41
335.39365,335.5719,60,64,41
335.39365,335.5719,63,64,41
335.5719,335.75012,60,64,41
335.5719,335.75012,63,64,41
335.75012,335.92834,60,64,41
335.75012,335.92834,63,64,41
335.92834,336.10657,60,64,41
335.92834,336.10657,63,64,41
336.10657,336.2848,60,64,41
336.10657,336.2848,63,64,41
336.2848,336.463,60,64,41
336.2848,336.463,63,64,41
336.463,336.64124,60,64,41
336.463,336.64124,63,64,41
336.64124,336.81946,58,54,41
336.64124,336.81946,62,54,41
336.81946,336.99768,58,54,41
336.81946,336.99768,62,54,41
336.99768,337.1759,58,54,41
336.99768,337.1759,62,54,41
337.1759,337.35413,58,54,41
337.1759,337.35413,62,54,41
337.35413,337.53235,58,54,41
337.35413,337.53235,62,54,41
337.53235,337.71057,58,54,41
337.53235,337.71057,62,54,41
337.71057,337.8888,58,54,41
337.71057,337.8888,62,54,41
337.8888,338.06702,58,54,41
337.8888,338.06702,62,54,41
338.06702,338.24524,58,54,41
338.06702,338.24524,62,54,41
338.24524,338.42346,58,54,41
338.24524,338.42346,62,54,41
338.42346,338.60168,58,54,41
338.42346,338.60168,62,54,41
338.60168,338.7799,58,54,41
338.60168,338.7799,62,54,41
338.7799,338.95813,58,54,41
338.7799,338.95813,62,54,41
338.95813,339.13635,58,54,41
338.95813,339.13635,62,54,41
339.13635,339.31458,58,54,41
339.13635,339.31458,62,54,41
339.31458,339.4928,58,54,41
339.31458,339.4928,62,54,41
339.4928,339.67102,58,54,41
339.4928,339.67102,62,54,41
339.67102,339.84924,58,54,41
339.67102,339.84924,62,54,41
339.84924,340.02747,55,54,41
339.84924,340.02747,64,54,41
340.02747,340.2057,55,54,41
340.02747,340.2057,64,54,41
340.2057,340.3839,55,54,41
340.2057,340.3839,64,54,41
340.3839,340.56213,55,54,41
340.3839,340.56213,64,54,41
340.56213,340.74036,55,54,41
340.56213,340.74036,64,54,41
340.74036,340.91858,55,54,41
340.74036,340.91858,64,54,41
340.91858,341.0968,55,54,41
340.91858,341.0968,64,54,41
341.0968,341.27502,55,54,41
341.0968,341.27502,64,54,41
341.27502,341.45325,55,54,41
341.27502,341.45325,64,54,41
341.45325,341.63147,55,54,41
341.45325,341.63147,64,54,41
341.63147,341.8097,55,54,41
341.63147,341.8097,64,54,41
341.8097,341.9879,55,54,41
341.8097,341.9879,64,54,41
341.9879,342.16614,55,54,41
341.9879,342.16614,64,54,41
342.16614,342.34436,55,54,41
342.16614,342.34436,64,54,41
342.34436,342.52258,55,54,41
342.34436,342.52258,64,54,41
342.52258,342.7008,55,54,41
342.52258,342.7008,64,54,41
342.7008,342.87903,55,54,41
342.7008,342.87903,64,54,41
342.87903,343.05725,55,54,41
342.87903,343.05725,64,54,41
343.05725,343.23547,58,54,41
343.23547,343.4137,58,54,41
343.4137,343.59195,58,54,41
343.59195,343.77017,58,54,41
343.77017,343.9484,58,54,41
343.9484,344.12662,58,54,41
344.12662,344.30484,58,54,41
344.12662,344.30484,55,54,41
344.30484,344.48306,58,54,41
344.30484,344.48306,55,54,41
344.48306,344.6613,58,54,41
344.48306,344.6613,55,54,41
344.6613,344.8395,58,54,41
344.6613,344.8395,55,54,41
344.8395,345.01773,58,54,41
344.8395,345.01773,55,54,41
345.01773,345.19595,58,54,41
345.01773,345.19595,55,54,41
345.19595,345.37418,58,54,41
345.19595,345.37418,55,54,41
345.37418,345.5524,58,54,41
345.37418,345.5524,55,54,41
345.5524,345.73062,58,54,41
345.5524,345.73062,55,54,41
345.73062,345.90884,58,54,41
345.73062,345.90884,55,54,41
345.90884,346.08707,58,54,41
345.90884,346.08707,55,54,41
346.08707,346.2653,58,54,41
346.08707,346.2653,55,54,41
346.2653,346.4435,58,54,41
346.4435,346.62173,58,54,41
346.62173,346.79996,58,54,41
346.79996,346.97818,58,54,41
346.97818,347.1564,58,54,41
347.1564,347.33463,58,54,41
347.33463,347.51285,58,54,41
347.33463,347.51285,55,54,41
347.51285,347.69107,58,54,41
347.51285,347.69107,55,54,41
347.69107,347.8693,58,54,41
347.69107,347.8693,55,54,41
347.8693,348.04752,58,54,41
347.8693,348.04752,55,54,41
348.04752,348.22574,58,54,41
348.04752,348.22574,55,54,41
348.22574,348.40396,58,54,41
348.22574,348.40396,55,54,41
348.40396,348.58218,58,54,41
348.40396,348.58218,55,54,41
348.58218,348.7604,58,54,41
348.58218,348.7604,55,54,41
348.7604,348.93863,58,54,41
348.7604,348.93863,55,54,41
348.93863,349.11685,58,54,41
348.93863,349.11685,55,54,41
349.11685,349.29507,58,54,41
349.11685,349.29507,55,54,41
349.29507,349.4733,58,54,41
349.29507,349.4733,55,54,41
349.4733,349.65152,58,54,41
349.65152,349.82974,58,54,41
349.82974,350.00797,58,54,41
350.00797,350.1862,58,54,41
350.1862,350.3644,58,54,41
350.3644,350.54263,58,54,41
350.54263,350.72086,58,54,41
350.54263,350.72086,55,54,41
350.72086,350.89908,58,54,41
350.72086,350.89908,55,54,41
350.89908,351.0773,58,54,41
350.89908,351.0773,55,54,41
351.0773,351.25552,58,54,41
351.0773,351.25552,55,54,41
351.25552,351.43375,58,54,41
351.25552,351.43375,55,54,41
351.43375,351.61197,58,54,41
351.43375,351.61197,55,54,41
351.61197,351.79022,58,54,41
351.61197,351.79022,55,54,41
351.79022,351.96844,58,54,41
351.79022,351.96844,55,54,41
351.96844,352.14667,58,54,41
351.96844,352.14667,55,54,41
352.14667,352.3249,58,54,41
352.14667,352.3249,55,54,41
352.3249,352.5031,58,54,41
352.3249,352.5031,55,54,41
352.5031,352.68134,58,54,41
352.5031,352.68134,55,54,41
352.68134,352.85956,58,54,41
352.85956,353.03778,58,54,41
353.03778,353.216,58,54,41
353.216,353.39423,58,54,41
353.39423,353.57245,58,54,41
353.57245,353.75067,58,54,41
353.75067,353.9289,58,54,41
353.75067,353.9289,55,54,41
353.9289,354.10712,58,54,41
353.9289,354.10712,55,54,41
354.10712,354.28534,58,54,41
354.10712,354.28534,55,54,41
354.28534,354.46356,58,54,41
354.28534,354.46356,55,54,41
354.46356,354.64178,58,54,41
354.46356,354.64178,55,54,41
354.64178,354.82,58,54,41
354.64178,354.82,55,54,41
354.82,354.99823,58,54,41
354.82,354.99823,55,54,41
354.99823,355.17645,58,54,41
354.99823,355.17645,55,54,41
355.17645,355.35468,58,54,41
355.17645,355.35468,55,54,41
355.35468,355.5329,58,54,41
355.35468,355.5329,55,54,41
355.5329,355.71112,58,54,41
355.5329,355.71112,55,54,41
355.71112,355.88934,58,54,41
355.71112,355.88934,55,54,41
355.88934,356.06757,58,54,41
356.06757,356.2458,58,54,41
356.2458,356.424,58,54,41
356.424,356.60223,58,54,41
356.60223,356.78046,58,54,41
356.78046,356.95868,58,54,41
356.95868,357.1369,58,54,41
356.95868,357.1369,55,54,41
357.1369,357.31512,58,54,41
357.1369,357.31512,55,54,41
357.31512,357.49335,58,54,41
357.31512,357.49335,55,54,41
357.49335,357.67157,58,54,41
357.49335,357.67157,55,54,41
357.67157,357.8498,58,54,41
357.67157,357.8498,55,54,41
357.8498,358.028,58,54,41
357.8498,358.028,55,54,41
358.028,358.20624,58,54,41
358.20624,358.38446,58,54,41
358.38446,358.56268,58,54,41
358.56268,358.7409,58,54,41
358.7409,358.91913,58,54,41
358.91913,359.09735,58,54,41
359.09735,359.27557,58,54,41
359.09735,359.27557,55,54,41
359.27557,359.4538,58,54,41
359.27557,359.4538,55,54,41
359.4538,359.63202,58,54,41
359.4538,359.63202,55,54,41
359.63202,359.81027,58,54,41
359.63202,359.81027,55,54,41
359.81027,359.9885,58,54,41
359.81027,359.9885,55,54,41
359.9885,360.16672,58,54,41
359.9885,360.16672,55,54,41
360.16672,360.34494,58,54,41
360.34494,360.52316,58,54,41
360.52316,360.7014,58,54,41
360.7014,360.8796,58,54,41
360.8796,361.05783,58,54,41
361.05783,361.23605,58,54,41
361.23605,361.41428,58,54,41
361.23605,361.41428,55,54,41
361.41428,361.5925,58,54,41
361.41428,361.5925,55,54,41
361.5925,361.77072,58,54,41
361.5925,361.77072,55,54,41
361.77072,361.94894,58,54,41
361.77072,361.94894,55,54,41
361.94894,362.12717,58,54,41
361.94894,362.12717,55,54,41
362.12717,362.3054,58,54,41
362.12717,362.3054,55,54,41
362.3054,362.4836,55,54,41
362.4836,362.66183,55,54,41
362.66183,362.84006,55,54,41
362.84006,363.01828,55,53,41
363.01828,363.1965,55,53,41
363.1965,363.37473,55,53,41
363.37473,363.55295,53,52,41
363.55295,363.73117,53,52,41
363.73117,363.9094,53,52,41
363.9094,364.08762,53,52,41
364.08762,364.26584,53,51,41
364.26584,364.44406,53,51,41
364.44406,364.62228,52,51,41
364.62228,364.8005,52,51,41
364.8005,364.97873,52,50,41
364.97873,365.15695,52,50,41
365.15695,365.33517,52,50,41
365.33517,365.5134,52,49,41
365.5134,365.69162,53,49,41
365.69162,365.86984,53,49,41
365.86984,366.04807,53,49,41
366.04807,366.2263,53,48,41
366.2263,366.4045,53,48,41
366.4045,366.58273,53,48,41
366.58273,366.76096,53,47,41
366.76096,366.93918,53,47,41
366.93918,367.1174,53,47,41
367.1174,367.29562,53,47,41
367.29562,367.47385,53,46,41
367.47385,367.65207,53,46,41
367.65207,367.83032,52,46,41
367.83032,368.00854,52,46,41
368.00854,368.18677,52,45,41
368.18677,368.365,52,45,41
368.365,368.5432,52,45,41
368.5432,368.72144,52,44,41
368.72144,368.92194,53,44,41
369.12244,369.2561,53,44,41
369.2561,369.38977,53,44,41
369.79077,369.99127,53,44,41
370.19177,370.32544,53,44,41
370.32544,370.4591,53,44,41
370.8601,371.0606,53,44,41
371.2611,371.39478,53,44,41
371.39478,371.52844,53,44,41
371.92944,372.12994,55,44,41
371.92944,372.12994,52,44,41
372.33044,372.4641,55,44,41
372.33044,372.4641,52,44,41
372.4641,372.59778,55,44,41
372.4641,372.59778,52,44,41
372.99878,373.19928,55,44,41
372.99878,373.19928,52,44,41
373.39978,373.53345,55,44,41
373.39978,373.53345,52,44,41
373.53345,373.6671,55,44,41
373.53345,373.6671,52,44,41
374.0681,374.26862,55,44,41
374.46912,374.60278,55,44,41
374.60278,374.73645,55,44,41
375.13745,375.33795,48,44,41
375.13745,375.33795,57,44,41
375.53845,375.67212,48,44,41
375.53845,375.67212,57,44,41
375.67212,375.80582,48,44,41
375.67212,375.80582,57,44,41
376.20682,376.40732,48,44,41
376.20682,376.40732,57,44,41
376.60782,376.7415,48,44,41
376.60782,376.7415,57,44,41
376.7415,376.87515,48,44,41
376.7415,376.87515,57,44,41
377.27615,377.47665,48,44,41
377.27615,377.47665,57,44,41
377.67715,377.81082,48,44,41
377.67715,377.81082,57,44,41
377.81082,377.9445,48,44,41
377.81082,377.9445,57,44,41
378.3455,378.546,48,44,41
378.3455,378.546,58,44,41
378.7465,378.88016,48,44,41
378.7465,378.88016,58,44,41
378.88016,379.01382,48,44,41
378.88016,379.01382,58,44,41
379.41483,379.61533,48,44,41
379.41483,379.61533,58,44,41
379.81583,379.9495,48,44,41
379.81583,379.9495,58,44,41
379.9495,380.08316,48,44,41
379.9495,380.08316,58,44,41
380.48416,380.68466,55,44,41
380.48416,380.68466,64,44,41
380.88516,381.01883,55,44,41
380.88516,381.01883,64,44,41
381.01883,381.1525,55,44,41
381.01883,381.1525,64,44,41
381.5535,381.754,48,44,41
381.5535,381.754,57,44,41
381.9545,382.08817,48,44,41
381.9545,382.08817,57,44,41
382.08817,382.22183,48,44,41
382.08817,382.22183,57,44,41
382.62283,382.82333,48,44,41
382.62283,382.82333,57,44,41
383.02383,383.1575,48,44,41
383.02383,383.1575,57,44,41
383.1575,383.29117,48,44,41
383.1575,383.29117,57,44,41
383.69217,383.8927,49,44,41
383.69217,383.8927,58,44,41
384.0932,384.22687,49,44,41
384.0932,384.22687,58,44,41
384.22687,384.36053,49,44,41
384.22687,384.36053,58,44,41
384.76154,384.96204,48,44,41
384.76154,384.96204,57,44,41
385.16254,385.2962,48,44,41
385.16254,385.2962,57,44,41
385.2962,385.42987,48,44,41
385.2962,385.42987,57,44,41
385.83087,386.03137,48,44,41
385.83087,386.03137,57,44,41
386.23187,386.36554,48,44,41
386.23187,386.36554,57,44,41
386.36554,386.4992,48,44,41
386.36554,386.4992,57,44,41
386.9002,387.1007,49,44,41
386.9002,387.1007,58,44,41
387.3012,387.43488,49,44,41
387.3012,387.43488,58,44,41
387.43488,387.56854,49,44,41
387.43488,387.56854,58,44,41
387.96954,388.17056,48,44,41
387.96954,388.17056,57,44,41
388.3736,388.51007,48,44,41
388.3736,388.51007,57,44,41
388.51007,388.64758,48,44,41
388.51007,388.64758,57,44,41
389.0657,389.2782,48,44,41
389.0657,389.2782,57,44,41
389.49295,389.63736,48,44,41
389.49295,389.63736,57,44,41
389.63736,389.78296,48,44,41
389.63736,389.78296,57,44,41
390.22595,390.4513,48,44,41
390.22595,390.4513,57,44,41
390.6792,390.83252,48,44,41
390.6792,390.83252,57,44,41
390.83252,390.98718,48,44,41
390.83252,390.98718,57,44,41
391.45822,396.0825,57,44,41
391.45822,396.0825,48,44,41
2.1186125,3.7226224,53,64,42
3.7226224,4.2572923,57,64,42
4.2572923,4.7919626,58,64,42
4.7919626,5.3266325,55,64,42
5.3266325,5.8613024,53,64,42
6.3959727,6.9306426,52,64,42
7.4653125,7.9999824,48,64,42
8.534653,11.742673,53,64,42
11.742673,13.363185,48,64,42
13.363185,13.9597225,55,64,42
13.9597225,14.609767,58,64,42
14.609767,15.32459,64,64,42
15.32459,17.010477,65,64,42
17.010477,17.545147,57,64,42
17.545147,18.079819,58,64,42
18.079819,18.614489,55,64,42
18.614489,19.149158,53,64,42
19.683828,20.218498,52,64,42
20.753168,21.287838,48,64,42
21.822508,25.030527,53,64,42
25.030527,26.099867,48,64,42
26.099867,26.634539,53,57,42
26.634539,27.169209,53,54,42
27.169209,27.703878,55,57,42
27.703878,28.238548,57,61,42
28.238548,29.842558,58,64,42
29.842558,30.377228,62,64,42
30.377228,30.911898,63,64,42
30.911898,31.446568,57,64,42
31.446568,31.981237,58,64,42
32.515907,33.05058,57,64,42
33.585247,34.11992,53,64,42
34.654587,35.18926,58,64,42
35.18926,35.723927,60,66,42
35.723927,36.793266,58,69,42
37.862606,38.397278,57,64,42
38.397278,38.93195,58,66,42
38.93195,40.00129,57,69,42
41.07063,42.13997,46,64,42
42.13997,43.287678,48,64,42
44.652546,46.338432,53,64,42
46.338432,46.873104,57,64,42
46.873104,47.407772,58,64,42
47.407772,47.942444,55,64,42
47.942444,48.47711,53,64,42
49.011784,49.54645,52,64,42
50.081123,51.150463,53,64,42
51.150463,52.754475,58,64,42
52.754475,53.289143,62,64,42
53.289143,53.823814,63,64,42
53.823814,54.358482,60,64,42
54.358482,54.893154,58,64,42
55.427822,55.962494,57,64,42
56.49716,57.5665,58,64,42
57.5665,58.101173,53,64,42
58.101173,58.63584,46,64,42
58.63584,60.774525,48,64,42
60.774525,61.309193,41,100,42
61.309193,61.576527,53,64,42
61.843864,62.1112,57,64,42
62.378532,62.645866,60,64,42
62.913204,63.18054,65,64,42
63.447872,63.715206,69,64,42
63.982544,64.51721,48,100,42
64.51721,64.784546,53,64,42
65.05188,65.31922,57,64,42
65.586555,65.85389,60,64,42
66.12122,66.38856,65,64,42
66.65589,66.923225,69,64,42
67.19056,67.725235,48,100,42
67.725235,67.99257,54,64,42
68.2599,68.52724,57,64,42
68.79457,69.061905,60,64,42
69.32925,69.59658,66,64,42
69.863914,70.13125,69,64,42
70.39858,70.93325,49,100,42
70.93325,71.200584,54,64,42
71.467926,71.73526,57,64,42
72.002594,72.26993,61,64,42
72.53726,72.804596,66,64,42
73.07193,73.33927,69,64,42
73.606606,74.14127,47,100,42
74.14127,74.40861,53,64,42
74.67594,74.943275,56,64,42
75.21061,75.47795,59,64,42
75.745285,76.01262,65,64,42
76.27995,76.54729,68,64,42
76.81462,77.883965,66,64,42
78.41863,78.68597,57,64,42
78.9533,79.220634,57,64,42
79.487976,79.75531,57,64,42
80.022644,81.09198,59,64,42
81.09198,82.69599,62,74,42
82.69599,83.23066,59,64,42
83.23066,84.83467,57,64,42
84.83467,85.36935,61,64,42
85.36935,85.904015,59,64,42
85.904015,86.43868,57,64,42
86.43868,87.508026,56,64,42
87.508026,89.11203,59,74,42
89.11203,89.37937,57,64,42
89.37937,89.646706,56,64,42
89.646706,90.71604,57,64,42
91.25071,91.51805,61,64,42
91.785385,92.32005,61,67,42
92.32005,92.85472,64,70,42
92.85472,93.74584,62,64,42
93.74584,93.83495,62,64,42
93.83495,93.924065,64,64,42
93.924065,95.528076,66,74,42
95.528076,96.062744,62,64,42
96.062744,97.13208,61,64,42
97.666756,98.20142,61,64,42
98.20142,98.73609,59,64,42
98.73609,99.27076,57,64,42
99.27076,100.3401,56,64,42
100.3401,101.944115,59,64,42
101.944115,102.21145,57,64,42
102.21145,102.47878,56,64,42
102.47878,103.54813,54,64,42
104.082794,104.61746,57,64,42
104.61746,105.15213,61,64,42
105.15213,105.686806,66,64,42
105.686806,107.29081,67,64,42
107.29081,107.825485,64,64,42
107.825485,108.36015,61,64,42
108.36015,108.89482,55,64,42
108.89482,109.964165,54,64,42
109.964165,111.0335,57,64,42
111.0335,112.102844,62,74,42
112.63751,113.17218,62,64,42
113.17218,114.77619,61,74,42
114.77619,115.043526,57,64,42
115.043526,115.31086,55,64,42
115.31086,115.845535,54,100,42
116.3802,116.91487,54,64,42
117.44955,117.984215,50,64,42
118.51888,118.91988,45,64,42
118.91988,119.05355,45,64,42
119.05355,119.98923,57,74,42
119.98923,120.122894,45,64,42
120.122894,121.05856,57,74,42
121.05856,121.19223,45,64,42
121.19223,121.726906,57,74,42
121.726906,122.26157,50,64,42
122.79624,123.33091,54,64,42
123.865585,124.40025,50,64,42
124.93492,125.33592,45,64,42
125.33592,125.4696,45,64,42
125.4696,126.405266,57,74,42
126.405266,126.53893,45,64,42
126.53893,127.4746,57,74,42
127.4746,127.60828,45,64,42
127.60828,128.14294,57,74,42
128.14294,128.67761,50,64,42
129.21228,129.74695,47,64,42
130.28162,130.8163,50,64,42
131.35097,131.75197,54,64,42
131.75197,131.88564,42,64,42
131.88564,132.8213,54,74,42
132.8213,132.95497,42,64,42
132.95497,133.89064,54,74,42
133.89064,134.0243,42,64,42
134.0243,134.55899,54,74,42
134.55899,135.09366,47,64,42
135.62833,136.163,50,64,42
136.69766,137.23233,47,64,42
137.767,138.168,50,64,42
138.168,138.30167,38,64,42
138.30167,139.23735,50,74,42
139.23735,139.37102,38,64,42
139.37102,140.30669,50,74,42
140.30669,140.44035,38,64,42
140.44035,140.97502,50,74,42
140.97502,141.15324,60,54,42
141.15324,141.33147,60,54,42
141.33147,141.50969,60,54,42
141.50969,141.68791,60,54,42
141.68791,141.86613,60,54,42
141.86613,142.04436,60,54,42
142.04436,142.22258,60,54,42
142.22258,142.4008,60,54,42
142.4008,142.57904,60,54,42
142.57904,142.75726,60,54,42
142.75726,142.93549,60,54,42
142.93549,143.11371,60,54,42
143.11371,143.29193,60,54,42
143.29193,143.47015,60,54,42
143.47015,143.64838,60,54,42
143.64838,143.8266,60,54,42
143.8266,144.00482,60,54,42
144.00482,144.18304,60,54,42
144.18304,144.36127,60,54,42
144.36127,144.53949,60,54,42
144.53949,144.71771,60,54,42
144.71771,144.89594,60,54,42
144.89594,145.07416,60,54,42
145.07416,145.25238,60,54,42
145.25238,145.4306,57,54,42
145.4306,145.60883,57,54,42
145.60883,145.78705,57,54,42
145.78705,145.96527,57,54,42
145.96527,146.1435,57,54,42
146.1435,146.32172,57,54,42
146.32172,146.49994,57,54,42
146.49994,146.67818,57,54,42
146.67818,146.8564,57,54,42
146.8564,147.03462,57,54,42
147.03462,147.21284,57,54,42
147.21284,147.39107,57,54,42
147.39107,147.56929,60,54,42
147.56929,147.74751,60,54,42
147.74751,147.92574,60,54,42
147.92574,148.10396,60,54,42
148.10396,148.28218,60,54,42
148.28218,148.4604,60,54,42
148.4604,148.63863,57,54,42
148.63863,148.81685,57,54,42
148.81685,148.99507,57,54,42
148.99507,149.1733,57,54,42
149.1733,149.35152,57,54,42
149.35152,149.52974,57,54,42
149.52974,149.70796,57,54,42
149.70796,149.88618,57,54,42
149.88618,150.0644,57,54,42
150.0644,150.24263,57,54,42
150.24263,150.42085,57,54,42
150.42085,150.59909,57,54,42
150.59909,150.77731,60,54,42
150.77731,150.95554,60,54,42
150.95554,151.13376,60,54,42
151.13376,151.31198,60,54,42
151.31198,151.4902,60,54,42
151.4902,151.66843,60,54,42
151.66843,151.84665,57,54,42
151.84665,152.02487,57,54,42
152.02487,152.2031,57,54,42
152.2031,152.38132,57,54,42
152.38132,152.55954,57,54,42
152.55954,152.73776,57,54,42
152.73776,152.91599,57,54,42
152.91599,153.09421,57,54,42
153.09421,153.27243,57,54,42
153.27243,153.45065,57,54,42
153.45065,153.62888,57,54,42
153.62888,153.8071,57,54,42
153.8071,153.98532,60,54,42
153.98532,154.16354,60,54,42
154.16354,154.34177,60,54,42
154.34177,154.51999,60,54,42
154.51999,154.69823,60,54,42
154.69823,154.87645,60,54,42
154.87645,155.05467,57,54,42
155.05467,155.2329,57,54,42
155.2329,155.41112,57,54,42
155.41112,155.58934,57,54,42
155.58934,155.76756,57,54,42
155.76756,155.94579,57,54,42
155.94579,156.12401,57,54,42
156.12401,156.30223,57,54,42
156.30223,156.48045,57,54,42
156.48045,156.65868,57,54,42
156.65868,156.8369,57,54,42
156.8369,157.01512,57,54,42
157.01512,157.19334,54,54,42
157.19334,157.37157,54,54,42
157.37157,157.54979,54,54,42
157.54979,157.72801,54,54,42
157.72801,157.90623,54,54,42
157.90623,158.08446,54,54,42
158.08446,158.26268,57,54,42
158.26268,158.4409,57,54,42
158.4409,158.61914,57,54,42
158.61914,158.79736,57,54,42
158.79736,158.97559,57,54,42
158.97559,159.15381,57,54,42
159.15381,159.33203,54,54,42
159.33203,159.51025,54,54,42
159.51025,159.68848,54,54,42
159.68848,159.8667,54,54,42
159.8667,160.04492,54,54,42
160.04492,160.22314,54,54,42
160.22314,160.40137,57,54,42
160.40137,160.57959,57,54,42
160.57959,160.75781,57,54,42
160.75781,160.93604,57,54,42
160.93604,161.11426,57,54,42
161.11426,161.29248,57,54,42
161.29248,161.4707,54,54,42
161.4707,161.64893,54,54,42
161.64893,161.82715,54,54,42
161.82715,162.00537,54,54,42
162.00537,162.1836,54,54,42
162.1836,162.36182,54,54,42
162.36182,162.54004,57,54,42
162.54004,162.71828,57,54,42
162.71828,162.8965,57,54,42
162.8965,163.07472,57,54,42
163.07472,163.25294,57,54,42
163.25294,163.43117,57,54,42
163.43117,163.60939,50,54,42
163.60939,163.78761,50,54,42
163.78761,163.96584,50,54,42
163.96584,164.14406,50,53,42
164.14406,164.32228,50,53,42
164.32228,164.5005,50,53,42
164.5005,164.67873,50,53,42
164.67873,164.85695,50,52,42
164.85695,165.03517,50,52,42
165.03517,165.2134,50,52,42
165.2134,165.39162,50,51,42
165.39162,165.56984,50,51,42
165.56984,165.74806,50,51,42
165.74806,165.92628,50,51,42
165.92628,166.1045,50,50,42
166.1045,166.28273,50,50,42
166.28273,166.46095,50,50,42
166.46095,166.63919,50,49,42
166.63919,166.81741,50,49,42
166.81741,166.99564,50,49,42
166.99564,167.17386,50,49,42
167.17386,167.35208,50,48,42
167.35208,167.5303,50,48,42
167.5303,167.70853,50,48,42
167.70853,167.88675,50,48,42
167.88675,168.06497,50,47,42
168.06497,168.2432,50,47,42
168.2432,168.42142,50,47,42
168.42142,168.59964,50,46,42
168.59964,168.77786,50,46,42
168.77786,168.95609,50,46,42
168.95609,169.13431,50,46,42
169.13431,169.31253,50,45,42
169.31253,169.49075,50,45,42
169.49075,169.66898,50,45,42
169.66898,169.8472,50,44,42
169.8472,170.0477,50,44,42
170.2482,170.38187,50,44,42
170.38187,170.51553,50,44,42
170.91655,171.11705,50,44,42
171.31755,171.45122,50,44,42
171.45122,171.58488,50,44,42
171.98589,172.18639,50,44,42
172.38689,172.52055,50,44,42
172.52055,172.65422,50,44,42
173.05522,173.25572,50,44,42
173.45622,173.58989,50,44,42
173.58989,173.72356,50,44,42
174.12456,174.32506,50,44,42
174.52556,174.65923,50,44,42
174.65923,174.79291,50,44,42
175.19391,175.39441,50,44,42
175.59491,175.72858,50,44,42
175.72858,175.92908,48,44,42
176.12958,176.26324,50,44,42
176.26324,176.46375,55,44,42
176.66425,176.79791,55,44,42
176.79791,176.93158,55,44,42
177.33258,177.53308,55,44,42
177.73358,177.86725,55,44,42
177.86725,178.00092,55,44,42
178.40192,178.60242,55,44,42
178.80293,178.9366,55,44,42
178.9366,179.07027,55,44,42
179.47127,179.67177,54,44,42
179.87227,180.00594,54,44,42
180.00594,180.1396,54,44,42
180.5406,180.7411,54,44,42
180.9416,181.07527,54,44,42
181.07527,181.20894,54,44,42
181.60994,181.81044,51,44,42
182.01094,182.1446,51,44,42
182.1446,182.34511,48,44,42
182.54561,182.67928,51,44,42
182.67928,182.87979,55,44,42
183.08029,183.21396,55,44,42
183.21396,183.34763,55,44,42
183.74863,183.94913,55,44,42
184.14963,184.2833,55,44,42
184.2833,184.41696,55,44,42
184.81796,185.01846,54,44,42
185.21896,185.35263,54,44,42
185.35263,185.4863,54,44,42
185.8873,186.0878,55,44,42
186.2883,186.42197,55,44,42
186.42197,186.55563,55,44,42
186.95665,187.15715,55,44,42
187.35765,187.49132,55,44,42
187.49132,187.62498,55,44,42
188.02599,188.22649,54,44,42
188.42699,188.56065,54,44,42
188.56065,188.69432,54,44,42
189.09532,189.29633,55,44,42
189.49939,189.63585,55,44,42
189.63585,189.77336,55,44,42
190.1915,190.40398,55,44,42
190.61874,190.76314,55,44,42
190.76314,190.90872,55,44,42
191.35173,191.57707,55,44,42
191.805,191.95831,55,44,42
191.95831,192.11296,55,44,42
192.584,197.18599,55,44,42
197.78482,199.38882,56,64,42
199.38882,199.9235,60,64,42
199.9235,200.45816,61,64,42
200.45816,200.99283,58,64,42
200.99283,201.5275,56,64,42
202.06218,202.59685,55,64,42
203.13152,203.66618,51,64,42
204.20085,207.40887,56,64,42
207.40887,209.02939,51,64,42
209.02939,209.62593,58,64,42
209.62593,210.27597,61,64,42
210.27597,210.99078,67,64,42
210.99078,212.67668,68,64,42
212.67668,213.21135,60,64,42
213.21135,213.74602,61,64,42
213.74602,214.28069,58,64,42
214.28069,214.81535,56,64,42
215.35002,215.8847,55,64,42
216.41937,216.95404,51,64,42
217.48871,220.69673,56,64,42
220.69673,221.76607,51,64,42
221.76607,222.30074,56,57,42
222.30074,222.8354,56,54,42
222.8354,223.37007,58,57,42
223.37007,223.90475,60,61,42
223.90475,225.50876,61,64,42
225.50876,226.04343,53,64,42
226.04343,226.5781,54,64,42
226.5781,227.11276,60,64,42
227.11276,227.64745,61,64,42
228.18211,228.71678,48,64,42
229.25145,229.78612,44,64,42
230.32079,230.85545,49,64,42
230.85545,231.39012,51,66,42
231.39012,232.45947,49,69,42
233.52881,234.06348,48,64,42
234.06348,234.59814,49,66,42
234.59814,235.6675,48,69,42
236.73683,237.80617,49,64,42
237.80617,238.95387,51,64,42
240.31874,242.00464,56,64,42
242.00464,242.5393,60,64,42
242.5393,243.07397,61,64,42
243.07397,243.60864,58,64,42
243.60864,244.14331,56,64,42
244.67798,245.21266,55,64,42
245.74733,246.81667,56,64,42
246.81667,248.42067,61,64,42
248.42067,248.95534,53,64,42
248.95534,249.49002,54,64,42
249.49002,250.02469,51,64,42
250.02469,250.55936,49,64,42
251.09402,251.6287,48,64,42
252.16336,252.69803,49,64,42
253.23271,253.76738,44,64,42
253.76738,254.30205,49,64,42
254.30205,256.44073,51,64,42
256.44073,256.9754,44,100,42
256.9754,257.24274,56,64,42
257.51007,257.7774,60,64,42
258.04474,258.31207,63,64,42
258.5794,258.84674,68,64,42
259.11407,259.3814,72,64,42
259.64874,260.1834,51,100,42
260.1834,260.45074,56,64,42
260.71808,260.9854,60,64,42
261.25275,261.52008,63,64,42
261.7874,262.05475,68,64,42
262.32208,262.58942,72,64,42
262.85675,263.39145,51,100,42
263.39145,263.65878,57,64,42
263.92612,264.19345,60,64,42
264.4608,264.72812,63,64,42
264.99545,265.2628,69,64,42
265.53012,265.79745,72,64,42
266.0648,266.59946,52,100,42
266.59946,266.8668,57,64,42
267.13412,267.40146,60,64,42
267.6688,267.93613,64,64,42
268.20346,268.4708,69,64,42
268.73813,269.00546,72,64,42
269.2728,269.80746,50,100,42
269.80746,270.0748,56,64,42
270.34213,270.60947,59,64,42
270.8768,271.14413,62,64,42
271.4115,271.67883,68,64,42
271.94617,272.2135,71,64,42
272.48083,273.55017,69,64,42
274.08484,274.35217,60,64,42
274.6195,274.88684,60,64,42
275.15417,275.4215,60,64,42
275.68884,276.75818,62,64,42
276.75818,278.36218,65,74,42
278.36218,278.89685,62,64,42
278.89685,280.5009,60,64,42
280.5009,281.03555,64,64,42
281.03555,281.57022,62,64,42
281.57022,282.1049,60,64,42
282.1049,283.17422,59,64,42
283.17422,284.77823,62,74,42
284.77823,285.04556,60,64,42
285.04556,285.3129,59,64,42
285.3129,286.38223,60,64,42
286.9169,287.18423,64,64,42
287.4516,287.98627,64,67,42
287.98627,288.52094,67,70,42
288.52094,289.41205,65,64,42
289.41205,289.50116,65,64,42
289.50116,289.59027,67,64,42
289.59027,291.19427,69,74,42
291.19427,291.72894,65,64,42
291.72894,292.79828,64,64,42
293.33295,293.8676,64,64,42
293.8676,294.40228,62,64,42
294.40228,294.93695,60,64,42
294.93695,296.00632,59,64,42
296.00632,297.61032,62,64,42
297.61032,297.87766,60,64,42
297.87766,298.145,59,64,42
298.145,299.21432,57,64,42
299.749,300.28366,60,64,42
300.28366,300.81833,64,64,42
300.81833,301.353,69,64,42
301.353,302.957,70,64,42
302.957,303.4917,67,64,42
303.4917,304.02637,64,64,42
304.02637,304.56104,58,64,42
304.56104,305.63037,57,64,42
305.63037,306.6997,60,64,42
306.6997,307.76904,65,74,42
308.3037,308.83838,65,64,42
308.83838,310.44238,64,74,42
310.44238,310.70972,60,64,42
310.70972,310.97705,58,64,42
310.97705,311.51175,57,100,42
312.04642,312.5811,57,64,42
313.11575,313.65042,53,64,42
314.1851,314.5861,48,64,42
314.5861,314.71976,36,64,42
314.71976,315.65543,48,74,42
315.65543,315.7891,36,64,42
315.7891,316.72476,48,74,42
316.72476,316.85843,36,64,42
316.85843,317.3931,48,74,42
317.3931,317.92776,53,64,42
318.46243,318.9971,57,64,42
319.5318,320.06647,53,64,42
320.60114,321.00214,48,64,42
321.00214,321.1358,36,64,42
321.1358,322.07147,48,74,42
322.07147,322.20514,36,64,42
322.20514,323.1408,48,74,42
323.1408,323.27448,36,64,42
323.27448,323.80914,48,74,42
323.80914,324.3438,53,64,42
324.87848,325.41315,50,64,42
325.9478,326.48248,53,64,42
327.01715,327.41815,57,64,42
327.41815,327.55185,45,64,42
327.55185,328.48752,57,74,42
328.48752,328.6212,45,64,42
328.6212,329.55685,57,74,42
329.55685,329.69052,45,64,42
329.69052,330.2252,57,74,42
330.2252,330.75986,50,64,42
331.29453,331.8292,53,64,42
332.36386,332.89853,50,64,42
333.4332,333.8342,53,64,42
333.8342,333.96786,41,64,42
333.96786,334.90353,53,74,42
334.90353,335.0372,41,64,42
335.0372,335.9729,53,74,42
335.9729,336.10657,41,64,42
336.10657,336.64124,53,74,42
336.64124,337.04224,41,64,42
337.04224,337.1759,41,64,42
337.1759,338.11157,53,74,42
338.11157,338.24524,41,64,42
338.24524,339.1809,53,74,42
339.1809,339.31458,41,64,42
339.31458,339.84924,53,74,42
339.84924,340.02747,58,54,42
340.02747,340.2057,58,54,42
340.2057,340.3839,58,54,42
340.3839,340.56213,58,54,42
340.56213,340.74036,58,54,42
340.74036,340.91858,58,54,42
340.91858,341.0968,58,54,42
341.0968,341.27502,58,54,42
341.27502,341.45325,58,54,42
341.45325,341.63147,58,54,42
341.63147,341.8097,58,54,42
341.8097,341.9879,58,54,42
341.9879,342.16614,58,54,42
342.16614,342.34436,58,54,42
342.34436,342.52258,58,54,42
342.52258,342.7008,58,54,42
342.7008,342.87903,58,54,42
342.87903,343.05725,58,54,42
343.05725,343.23547,61,54,42
343.23547,343.4137,61,54,42
343.4137,343.59195,61,54,42
343.59195,343.77017,61,54,42
343.77017,343.9484,61,54,42
343.9484,344.12662,61,54,42
344.12662,344.30484,61,54,42
344.30484,344.48306,61,54,42
344.48306,344.6613,61,54,42
344.6613,344.8395,61,54,42
344.8395,345.01773,61,54,42
345.01773,345.19595,61,54,42
345.19595,345.37418,61,54,42
345.37418,345.5524,61,54,42
345.5524,345.73062,61,54,42
345.73062,345.90884,61,54,42
345.90884,346.08707,61,54,42
346.08707,346.2653,61,54,42
346.2653,346.4435,60,54,42
346.4435,346.62173,60,54,42
346.62173,346.79996,60,54,42
346.79996,346.97818,60,54,42
346.97818,347.1564,60,54,42
347.1564,347.33463,60,54,42
347.33463,347.51285,60,54,42
347.51285,347.69107,60,54,42
347.69107,347.8693,60,54,42
347.8693,348.04752,60,54,42
348.04752,348.22574,60,54,42
348.22574,348.40396,60,54,42
348.40396,348.58218,60,54,42
348.58218,348.7604,60,54,42
348.7604,348.93863,60,54,42
348.93863,349.11685,60,54,42
349.11685,349.29507,60,54,42
349.29507,349.4733,60,54,42
349.4733,349.65152,61,54,42
349.65152,349.82974,61,54,42
349.82974,350.00797,61,54,42
350.00797,350.1862,61,54,42
350.1862,350.3644,61,54,42
350.3644,350.54263,61,54,42
350.54263,350.72086,61,54,42
350.72086,350.89908,61,54,42
350.89908,351.0773,61,54,42
351.0773,351.25552,61,54,42
351.25552,351.43375,61,54,42
351.43375,351.61197,61,54,42
351.61197,351.79022,61,54,42
351.79022,351.96844,61,54,42
351.96844,352.14667,61,54,42
352.14667,352.3249,61,54,42
352.3249,352.5031,61,54,42
352.5031,352.68134,61,54,42
352.68134,352.85956,60,54,42
352.85956,353.03778,60,54,42
353.03778,353.216,60,54,42
353.216,353.39423,60,54,42
353.39423,353.57245,60,54,42
353.57245,353.75067,60,54,42
353.75067,353.9289,60,54,42
353.9289,354.10712,60,54,42
354.10712,354.28534,60,54,42
354.28534,354.46356,60,54,42
354.46356,354.64178,60,54,42
354.64178,354.82,60,54,42
354.82,354.99823,60,54,42
354.99823,355.17645,60,54,42
355.17645,355.35468,60,54,42
355.35468,355.5329,60,54,42
355.5329,355.71112,60,54,42
355.71112,355.88934,60,54,42
355.88934,356.06757,52,54,42
356.06757,356.2458,52,54,42
356.2458,356.424,52,54,42
356.424,356.60223,52,54,42
356.60223,356.78046,52,54,42
356.78046,356.95868,52,54,42
356.95868,357.1369,60,54,42
357.1369,357.31512,60,54,42
357.31512,357.49335,60,54,42
357.49335,357.67157,60,54,42
357.67157,357.8498,60,54,42
357.8498,358.028,60,54,42
358.028,358.20624,52,54,42
358.20624,358.38446,52,54,42
358.38446,358.56268,52,54,42
358.56268,358.7409,52,54,42
358.7409,358.91913,52,54,42
358.91913,359.09735,52,54,42
359.09735,359.27557,60,54,42
359.27557,359.4538,60,54,42
359.4538,359.63202,60,54,42
359.63202,359.81027,60,54,42
359.81027,359.9885,60,54,42
359.9885,360.16672,60,54,42
360.16672,360.34494,52,54,42
360.34494,360.52316,52,54,42
360.52316,360.7014,52,54,42
360.7014,360.8796,52,54,42
360.8796,361.05783,52,54,42
361.05783,361.23605,52,54,42
361.23605,361.41428,60,54,42
361.41428,361.5925,60,54,42
361.5925,361.77072,60,54,42
361.77072,361.94894,60,54,42
361.94894,362.12717,60,54,42
362.12717,362.3054,60,54,42
362.3054,362.4836,48,54,42
362.4836,362.66183,48,54,42
362.66183,362.84006,48,54,42
362.84006,363.01828,48,53,42
363.01828,363.1965,48,53,42
363.1965,363.37473,48,53,42
363.37473,363.55295,48,53,42
363.55295,363.73117,48,52,42
363.73117,363.9094,48,52,42
363.9094,364.08762,48,52,42
364.08762,364.26584,48,51,42
364.26584,364.44406,48,51,42
364.44406,364.62228,48,51,42
364.62228,364.8005,48,51,42
364.8005,364.97873,48,50,42
364.97873,365.15695,48,50,42
365.15695,365.33517,48,50,42
365.33517,365.5134,48,49,42
365.5134,365.69162,48,49,42
365.69162,365.86984,48,49,42
365.86984,366.04807,48,49,42
366.04807,366.2263,48,48,42
366.2263,366.4045,48,48,42
366.4045,366.58273,48,48,42
366.58273,366.76096,48,48,42
366.76096,366.93918,48,47,42
366.93918,367.1174,48,47,42
367.1174,367.29562,48,47,42
367.29562,367.47385,48,46,42
367.47385,367.65207,48,46,42
367.65207,367.83032,48,46,42
367.83032,368.00854,48,46,42
368.00854,368.18677,48,45,42
368.18677,368.365,48,45,42
368.365,368.5432,48,45,42
368.5432,368.72144,48,44,42
368.72144,368.92194,48,44,42
369.12244,369.2561,48,44,42
369.2561,369.38977,48,44,42
369.79077,369.99127,48,44,42
370.19177,370.32544,48,44,42
370.32544,370.4591,48,44,42
370.8601,371.0606,48,44,42
371.2611,371.39478,48,44,42
371.39478,371.52844,48,44,42
371.92944,372.12994,48,44,42
372.33044,372.4641,48,44,42
372.4641,372.59778,48,44,42
372.99878,373.19928,48,44,42
373.39978,373.53345,48,44,42
373.53345,373.6671,48,44,42
374.0681,374.26862,48,44,42
374.46912,374.60278,48,44,42
374.60278,374.80328,46,44,42
375.00378,375.13745,48,44,42
375.13745,375.33795,53,44,42
375.53845,375.67212,53,44,42
375.67212,375.80582,53,44,42
376.20682,376.40732,53,44,42
376.60782,376.7415,53,44,42
376.7415,376.87515,53,44,42
377.27615,377.47665,53,44,42
377.67715,377.81082,53,44,42
377.81082,377.9445,53,44,42
378.3455,378.546,52,44,42
378.7465,378.88016,52,44,42
378.88016,379.01382,52,44,42
379.41483,379.61533,52,44,42
379.81583,379.9495,52,44,42
379.9495,380.08316,52,44,42
380.48416,380.68466,49,44,42
380.88516,381.01883,49,44,42
381.01883,381.21933,46,44,42
381.41983,381.5535,48,44,42
381.5535,381.754,53,44,42
381.9545,382.08817,53,44,42
382.08817,382.22183,53,44,42
382.62283,382.82333,53,44,42
383.02383,383.1575,53,44,42
383.1575,383.29117,53,44,42
383.69217,383.8927,52,44,42
384.0932,384.22687,52,44,42
384.22687,384.36053,52,44,42
384.76154,384.96204,53,44,42
385.16254,385.2962,53,44,42
385.2962,385.42987,53,44,42
385.83087,386.03137,53,44,42
386.23187,386.36554,53,44,42
386.36554,386.4992,53,44,42
386.9002,387.1007,52,44,42
387.3012,387.43488,52,44,42
387.43488,387.56854,52,44,42
387.96954,388.17056,53,44,42
388.3736,388.51007,53,44,42
388.51007,388.64758,53,44,42
389.0657,389.2782,53,44,42
389.49295,389.63736,53,44,42
389.63736,389.78296,53,44,42
390.22595,390.4513,53,44,42
390.6792,390.83252,53,44,42
390.83252,390.98718,53,44,42
391.45822,396.0825,53,44,42
2.1186125,5.8613024,41,64,43
6.3959727,6.9306426,40,64,43
7.4653125,7.9999824,36,64,43
8.534653,11.742673,41,64,43
11.742673,15.32459,36,64,43
15.32459,19.149158,41,64,43
19.683828,20.218498,40,64,43
20.753168,21.287838,36,64,43
21.822508,25.030527,41,64,43
25.030527,26.099867,36,64,43
26.099867,26.634539,41,57,43
28.238548,31.981237,34,64,43
32.515907,33.05058,33,64,43
33.585247,34.11992,29,64,43
34.654587,35.18926,46,64,43
35.18926,35.723927,45,66,43
35.723927,36.793266,43,69,43
37.862606,38.397278,45,64,43
38.397278,38.93195,43,66,43
38.93195,40.00129,41,69,43
41.07063,42.13997,34,64,43
42.13997,43.287678,36,64,43
44.652546,48.47711,41,64,43
49.011784,49.54645,40,64,43
50.081123,51.150463,41,64,43
51.150463,54.893154,34,64,43
55.427822,55.962494,33,64,43
56.49716,57.5665,34,64,43
57.5665,58.101173,41,64,43
58.101173,58.63584,34,64,43
58.63584,60.774525,36,64,43
60.774525,61.843864,41,100,43
63.982544,65.05188,39,100,43
67.19056,68.2599,38,100,43
70.39858,71.467926,37,100,43
73.606606,74.67594,37,100,43
75.21061,75.47795,37,64,43
75.745285,76.01262,37,64,43
76.27995,76.54729,37,64,43
76.81462,77.3493,42,64,43
77.883965,78.41863,42,64,43
78.9533,79.487976,42,64,43
80.022644,80.55731,42,64,43
81.09198,81.626656,42,64,43
82.16132,82.69599,42,64,43
83.23066,83.765335,42,64,43
84.3,84.83467,42,64,43
85.36935,85.904015,42,64,43
86.43868,86.97335,37,64,43
87.508026,88.042694,37,64,43
88.57736,89.11203,37,64,43
89.646706,90.18137,42,64,43
90.71604,91.25071,42,64,43
91.785385,92.32005,42,64,43
92.85472,93.3894,42,64,43
93.924065,94.45873,42,64,43
94.9934,95.528076,42,64,43
96.062744,96.59741,42,64,43
97.13208,97.666756,42,64,43
98.20142,98.73609,42,64,43
99.27076,99.805435,37,64,43
100.3401,100.87477,37,64,43
101.40945,101.944115,37,64,43
102.47878,103.01345,42,64,43
103.54813,104.082794,42,64,43
104.61746,105.15213,42,63,43
105.686806,106.22147,40,62,43
106.75614,107.29081,40,60,43
107.825485,108.36015,40,59,43
108.89482,109.4295,38,58,43
109.964165,110.49883,38,57,43
111.0335,111.56818,32,55,43
112.102844,112.63751,33,54,43
113.17218,113.706856,33,54,43
114.24152,114.77619,33,54,43
115.31086,115.845535,42,100,43
116.3802,116.91487,42,64,43
117.44955,117.984215,38,64,43
118.51888,118.91988,33,64,43
118.91988,119.05355,33,64,43
119.05355,119.98923,45,74,43
119.98923,120.122894,33,64,43
120.122894,121.05856,45,74,43
121.05856,121.19223,33,64,43
121.19223,121.726906,45,74,43
121.726906,122.26157,38,64,43
122.79624,123.33091,42,64,43
123.865585,124.40025,38,64,43
124.93492,125.33592,33,64,43
125.33592,125.4696,33,64,43
125.4696,126.405266,45,74,43
126.405266,126.53893,33,64,43
126.53893,127.4746,45,74,43
127.4746,127.60828,33,64,43
127.60828,128.14294,45,74,43
128.14294,128.67761,38,64,43
129.21228,129.74695,35,64,43
130.28162,130.8163,38,64,43
131.35097,131.75197,42,64,43
131.75197,131.88564,30,64,43
131.88564,132.8213,42,74,43
132.8213,132.95497,30,64,43
132.95497,133.89064,42,74,43
133.89064,134.0243,30,64,43
134.0243,134.55899,42,74,43
134.55899,135.09366,35,64,43
135.62833,136.163,38,64,43
136.69766,137.23233,35,64,43
137.767,138.168,38,64,43
138.168,138.30167,26,64,43
138.30167,139.23735,38,74,43
139.23735,139.37102,26,64,43
139.37102,140.30669,38,74,43
140.30669,140.44035,26,64,43
140.44035,141.37602,38,74,43
141.37602,141.50969,26,64,43
141.50969,142.04436,38,64,43
142.04436,142.31169,26,64,43
143.11371,143.38104,38,64,43
144.18304,144.58405,43,64,43
144.58405,144.71771,31,64,43
144.71771,145.25238,43,64,43
145.25238,145.51971,31,64,43
146.32172,146.58907,43,64,43
147.39107,147.79207,42,63,43
147.79207,147.92574,30,63,43
147.92574,148.4604,42,62,43
148.4604,148.72774,30,62,43
149.52974,149.79707,42,61,43
150.59909,151.00009,43,60,43
151.00009,151.13376,31,59,43
151.13376,151.66843,43,59,43
151.66843,151.93576,31,59,43
152.73776,153.0051,43,58,43
153.8071,154.2081,42,56,43
154.2081,154.34177,30,56,43
154.34177,154.87645,42,56,43
154.87645,155.14378,30,55,43
155.94579,156.21312,42,54,43
157.01512,157.41612,38,54,43
157.41612,157.54979,26,54,43
157.54979,158.48546,38,54,43
158.48546,158.61914,26,54,43
158.61914,159.55481,38,54,43
159.55481,159.68848,26,54,43
159.68848,160.62415,38,54,43
160.62415,160.75781,26,54,43
160.75781,161.69348,38,54,43
161.69348,161.82715,26,54,43
161.82715,162.76283,38,54,43
162.76283,162.8965,26,54,43
162.8965,163.83217,38,54,43
163.83217,163.96584,26,54,43
163.96584,164.9015,38,54,43
164.9015,165.03517,26,54,43
165.03517,165.97084,38,54,43
165.97084,166.1045,26,54,43
166.1045,167.04019,38,54,43
167.04019,167.17386,26,54,43
167.17386,168.10953,38,54,43
168.10953,168.2432,26,54,43
168.2432,169.17886,38,54,43
169.17886,169.31253,26,54,43
169.31253,169.8472,38,54,43
169.8472,170.0477,31,44,43
170.2482,170.38187,31,44,43
170.38187,170.51553,31,44,43
170.91655,171.11705,31,44,43
171.31755,171.45122,31,44,43
171.45122,171.58488,31,44,43
171.98589,172.18639,31,44,43
172.38689,172.52055,31,44,43
172.52055,172.65422,31,44,43
173.05522,173.25572,31,44,43
173.45622,173.58989,31,44,43
173.58989,173.72356,31,44,43
174.12456,174.32506,31,44,43
174.52556,174.65923,31,44,43
174.65923,174.79291,31,44,43
175.19391,175.39441,31,44,43
175.59491,175.72858,31,44,43
175.72858,175.86224,31,44,43
176.26324,176.46375,31,44,43
176.66425,176.79791,31,44,43
176.79791,176.93158,31,44,43
177.33258,177.53308,31,44,43
177.73358,177.86725,31,44,43
177.86725,178.00092,31,44,43
178.40192,178.60242,31,44,43
178.80293,178.9366,31,44,43
178.9366,179.07027,31,44,43
179.47127,179.67177,31,44,43
179.87227,180.00594,31,44,43
180.00594,180.1396,31,44,43
180.5406,180.7411,31,44,43
180.9416,181.07527,31,44,43
181.07527,181.20894,31,44,43
181.60994,181.81044,31,44,43
182.01094,182.1446,31,44,43
182.1446,182.27827,31,44,43
182.67928,182.87979,31,44,43
183.08029,183.21396,31,44,43
183.21396,183.34763,31,44,43
183.74863,183.94913,31,44,43
184.14963,184.2833,31,44,43
184.2833,184.41696,31,44,43
184.81796,185.01846,31,44,43
185.21896,185.35263,31,44,43
185.35263,185.4863,31,44,43
185.8873,186.0878,31,44,43
186.2883,186.42197,31,44,43
186.42197,186.55563,31,44,43
186.95665,187.15715,31,44,43
187.35765,187.49132,31,44,43
187.49132,187.62498,31,44,43
188.02599,188.22649,31,44,43
188.42699,188.56065,31,44,43
188.56065,188.69432,31,44,43
189.09532,189.29633,31,44,43
189.49939,189.63585,31,44,43
189.63585,189.77336,31,44,43
190.1915,190.40398,31,44,43
190.61874,190.76314,31,44,43
190.76314,190.90872,31,44,43
191.35173,191.57707,31,44,43
191.805,191.95831,31,44,43
191.95831,192.11296,31,44,43
192.584,197.18599,31,44,43
197.78482,201.5275,44,64,43
202.06218,202.59685,43,64,43
203.13152,203.66618,39,64,43
204.20085,207.40887,44,64,43
207.40887,210.99078,39,64,43
210.99078,214.81535,44,64,43
215.35002,215.8847,43,64,43
216.41937,216.95404,39,64,43
217.48871,220.69673,44,64,43
220.69673,221.76607,39,64,43
221.76607,222.30074,44,57,43
223.90475,227.64745,37,64,43
228.18211,228.71678,36,64,43
229.25145,229.78612,32,64,43
230.32079,230.85545,37,64,43
230.85545,231.39012,36,66,43
231.39012,232.45947,34,69,43
233.52881,234.06348,36,64,43
234.06348,234.59814,34,66,43
234.59814,235.6675,32,69,43
236.73683,237.80617,37,64,43
237.80617,238.95387,39,64,43
240.31874,244.14331,44,64,43
244.67798,245.21266,43,64,43
245.74733,246.81667,44,64,43
246.81667,250.55936,37,64,43
251.09402,251.6287,36,64,43
252.16336,253.23271,37,64,43
253.23271,253.76738,32,64,43
253.76738,254.30205,37,64,43
254.30205,256.44073,39,64,43
256.44073,257.51007,32,100,43
259.64874,260.71808,42,100,43
262.85675,263.92612,41,100,43
266.0648,267.13412,40,100,43
269.2728,270.34213,40,100,43
270.8768,271.14413,40,64,43
271.4115,271.67883,40,64,43
271.94617,272.2135,40,64,43
272.48083,273.0155,45,64,43
273.55017,274.08484,45,64,43
274.6195,275.15417,45,64,43
275.68884,276.2235,45,64,43
276.75818,277.29285,45,64,43
277.8275,278.36218,45,64,43
278.89685,279.43155,45,64,43
279.96622,280.5009,45,64,43
281.03555,281.57022,45,64,43
282.1049,282.63956,40,64,43
283.17422,283.7089,40,64,43
284.24356,284.77823,40,64,43
285.3129,285.84756,45,64,43
286.38223,286.9169,45,64,43
287.4516,287.98627,45,64,43
288.52094,289.0556,45,64,43
289.59027,290.12494,45,64,43
290.6596,291.19427,45,64,43
291.72894,292.2636,45,64,43
292.79828,293.33295,45,64,43
293.8676,294.40228,45,64,43
294.93695,295.47165,40,64,43
296.00632,296.541,40,64,43
297.07565,297.61032,40,64,43
298.145,298.67966,45,64,43
299.21432,299.749,45,64,43
300.28366,300.81833,45,63,43
301.353,301.88766,43,62,43
302.42233,302.957,43,60,43
303.4917,304.02637,43,59,43
304.56104,305.0957,41,58,43
305.63037,306.16504,41,57,43
306.6997,307.23438,35,55,43
307.76904,308.3037,36,54,43
308.83838,309.37305,36,54,43
309.9077,310.44238,36,54,43
310.97705,311.51175,41,100,43
312.04642,312.5811,45,64,43
313.11575,313.65042,41,64,43
314.1851,314.5861,36,64,43
314.5861,314.71976,24,64,43
314.71976,315.65543,36,74,43
315.65543,315.7891,24,64,43
315.7891,316.72476,36,74,43
316.72476,316.85843,24,64,43
316.85843,317.3931,36,74,43
317.3931,317.92776,41,64,43
318.46243,318.9971,45,64,43
319.5318,320.06647,41,64,43
320.60114,321.00214,36,64,43
321.00214,321.1358,24,64,43
321.1358,322.07147,36,74,43
322.07147,322.20514,24,64,43
322.20514,323.1408,36,74,43
323.1408,323.27448,24,64,43
323.27448,323.80914,36,74,43
323.80914,324.3438,41,64,43
324.87848,325.41315,38,64,43
325.9478,326.48248,41,64,43
327.01715,327.41815,45,64,43
327.41815,327.55185,33,64,43
327.55185,328.48752,45,74,43
328.48752,328.6212,33,64,43
328.6212,329.55685,45,74,43
329.55685,329.69052,33,64,43
329.69052,330.2252,45,74,43
330.2252,330.75986,38,64,43
331.29453,331.8292,41,64,43
332.36386,332.89853,38,64,43
333.4332,333.8342,41,64,43
333.8342,333.96786,29,64,43
333.96786,334.90353,41,74,43
334.90353,335.0372,29,64,43
335.0372,335.9729,41,74,43
335.9729,336.10657,29,64,43
336.10657,336.64124,41,74,43
336.64124,337.04224,46,64,43
337.04224,337.1759,34,64,43
337.1759,338.11157,46,74,43
338.11157,338.24524,34,64,43
338.24524,339.1809,46,74,43
339.1809,339.31458,34,64,43
339.31458,339.84924,46,74,43
339.84924,340.25024,48,64,43
340.25024,340.3839,36,64,43
340.3839,340.91858,48,64,43
340.91858,341.1859,36,64,43
341.9879,342.25525,48,64,43
343.05725,343.45825,41,64,43
343.45825,343.59195,29,64,43
343.59195,344.12662,41,64,43
344.12662,344.39395,29,64,43
345.19595,345.4633,41,64,43
346.2653,346.6663,40,63,43
346.6663,346.79996,28,63,43
346.79996,347.33463,40,62,43
347.33463,347.60196,28,62,43
348.40396,348.6713,40,61,43
349.4733,349.8743,41,60,43
349.8743,350.00797,29,59,43
350.00797,350.54263,41,59,43
350.54263,350.80997,29,59,43
351.61197,351.87933,41,58,43
352.68134,353.08234,40,56,43
353.08234,353.216,28,56,43
353.216,353.75067,40,56,43
353.75067,354.018,28,55,43
354.82,355.08734,40,54,43
355.88934,356.29034,36,54,43
356.29034,356.424,24,54,43
356.424,357.35968,36,54,43
357.35968,357.49335,24,54,43
357.49335,358.42902,36,54,43
358.42902,358.56268,24,54,43
358.56268,359.49835,36,54,43
359.49835,359.63202,24,54,43
359.63202,360.56772,36,54,43
360.56772,360.7014,24,54,43
360.7014,361.63705,36,54,43
361.63705,361.77072,24,54,43
361.77072,362.7064,36,54,43
362.7064,362.84006,24,54,43
362.84006,363.77573,36,54,43
363.77573,363.9094,24,54,43
363.9094,364.84506,36,54,43
364.84506,364.97873,24,54,43
364.97873,365.9144,36,54,43
365.9144,366.04807,24,54,43
366.04807,366.98373,36,54,43
366.98373,367.1174,24,54,43
367.1174,368.0531,36,54,43
368.0531,368.18677,24,54,43
368.18677,368.72144,36,54,43
368.72144,368.92194,29,44,43
369.12244,369.2561,29,44,43
369.2561,369.38977,29,44,43
369.79077,369.99127,29,44,43
370.19177,370.32544,29,44,43
370.32544,370.4591,29,44,43
370.8601,371.0606,29,44,43
371.2611,371.39478,29,44,43
371.39478,371.52844,29,44,43
371.92944,372.12994,29,44,43
372.33044,372.4641,29,44,43
372.4641,372.59778,29,44,43
372.99878,373.19928,29,44,43
373.39978,373.53345,29,44,43
373.53345,373.6671,29,44,43
374.0681,374.26862,29,44,43
374.46912,374.60278,29,44,43
374.60278,374.73645,29,44,43
375.13745,375.33795,29,44,43
375.53845,375.67212,29,44,43
375.67212,375.80582,29,44,43
376.20682,376.40732,29,44,43
376.60782,376.7415,29,44,43
376.7415,376.87515,29,44,43
377.27615,377.47665,29,44,43
377.67715,377.81082,29,44,43
377.81082,377.9445,29,44,43
378.3455,378.546,29,44,43
378.7465,378.88016,29,44,43
378.88016,379.01382,29,44,43
379.41483,379.61533,29,44,43
379.81583,379.9495,29,44,43
379.9495,380.08316,29,44,43
380.48416,380.68466,29,44,43
380.88516,381.01883,29,44,43
381.01883,381.1525,29,44,43
381.5535,381.754,29,44,43
381.9545,382.08817,29,44,43
382.08817,382.22183,29,44,43
382.62283,382.82333,29,44,43
383.02383,383.1575,29,44,43
383.1575,383.29117,29,44,43
383.69217,383.8927,29,44,43
384.0932,384.22687,29,44,43
384.22687,384.36053,29,44,43
384.76154,384.96204,29,44,43
385.16254,385.2962,29,44,43
385.2962,385.42987,29,44,43
385.83087,386.03137,29,44,43
386.23187,386.36554,29,44,43
386.36554,386.4992,29,44,43
386.9002,387.1007,29,44,43
387.3012,387.43488,29,44,43
387.43488,387.56854,29,44,43
387.96954,388.17056,29,44,43
388.3736,388.51007,29,44,43
388.51007,388.64758,29,44,43
389.0657,389.2782,29,44,43
389.49295,389.63736,29,44,43
389.63736,389.78296,29,44,43
390.22595,390.4513,29,44,43
390.6792,390.83252,29,44,43
390.83252,390.98718,29,44,43
391.45822,396.0825,29,44,43
2.1186125,3.1879525,81,64,0
2.1186125,3.1879525,69,64,0
3.1879525,4.2572923,84,74,0
3.1879525,4.2572923,72,74,0
4.2572923,4.7919626,74,64,0
4.2572923,4.7919626,62,64,0
4.7919626,5.3266325,76,64,0
4.7919626,5.3266325,64,64,0
5.3266325,5.3934665,65,64,0
5.3266325,5.3934665,77,64,0
5.3934665,5.4603,67,64,0
5.3934665,5.4603,79,64,0
5.4603,5.527134,65,64,0
5.4603,5.527134,77,64,0
5.527134,5.5939674,67,64,0
5.527134,5.5939674,79,64,0
5.5939674,5.6608014,65,64,0
5.5939674,5.6608014,77,64,0
5.6608014,5.727635,67,64,0
5.6608014,5.727635,79,64,0
5.727635,5.794469,65,64,0
5.727635,5.794469,77,64,0
5.794469,5.8613024,67,64,0
5.794469,5.8613024,79,64,0
5.8613024,5.9281363,65,64,0
5.8613024,5.9281363,77,64,0
5.9281363,5.99497,67,64,0
5.9281363,5.99497,79,64,0
5.99497,6.061804,65,64,0
5.99497,6.061804,77,64,0
6.061804,6.1286373,67,64,0
6.061804,6.1286373,79,64,0
6.1286373,6.262305,64,64,0
6.1286373,6.262305,76,64,0
6.262305,6.3959727,65,64,0
6.262305,6.3959727,77,64,0
6.3959727,7.9999824,67,64,0
6.3959727,7.9999824,79,64,0
7.9999824,8.534653,68,64,0
7.9999824,8.534653,80,64,0
8.534653,8.935655,69,64,0
8.534653,8.935655,81,64,0
8.935655,9.069323,77,66,0
8.935655,9.069323,89,66,0
9.069323,9.470325,77,67,0
9.069323,9.470325,89,67,0
9.470325,9.603992,69,69,0
9.470325,9.603992,81,69,0
9.603992,10.004995,70,70,0
9.603992,10.004995,82,70,0
10.004995,10.138662,74,73,0
10.004995,10.138662,86,73,0
10.138662,10.539665,74,74,0
10.138662,10.539665,86,74,0
10.539665,10.673332,68,72,0
10.539665,10.673332,80,72,0
10.673332,11.074335,69,71,0
10.673332,11.074335,81,71,0
11.074335,11.208002,72,69,0
11.074335,11.208002,84,69,0
11.208002,11.609005,72,67,0
11.208002,11.609005,84,67,0
11.609005,11.742673,65,65,0
11.609005,11.742673,77,65,0
11.742673,12.544678,69,64,0
11.742673,12.544678,81,64,0
12.544678,12.678345,70,64,0
12.544678,12.678345,82,64,0
12.678345,12.812013,69,64,0
12.678345,12.812013,81,64,0
12.812013,13.363185,67,64,0
12.812013,13.363185,79,64,0
13.363185,13.655566,76,64,0
13.655566,13.9597225,79,64,0
13.9597225,14.277754,73,64,0
14.277754,14.609767,72,64,0
14.609767,14.958384,71,64,0
14.958384,15.32459,70,64,0
15.32459,16.475807,69,64,0
18.614489,19.683828,69,64,0
18.614489,19.683828,81,64,0
19.683828,21.822508,72,74,0
19.683828,21.822508,84,74,0
21.822508,22.891848,84,64,0
21.822508,22.891848,72,64,0
22.891848,23.693853,89,76,0
22.891848,23.693853,77,76,0
23.693853,23.961187,86,64,0
23.693853,23.961187,74,64,0
23.961187,24.495857,84,64,0
23.961187,24.495857,72,64,0
24.495857,25.030527,81,64,0
24.495857,25.030527,69,64,0
25.030527,25.832533,70,74,0
25.030527,25.832533,82,74,0
25.832533,26.099867,64,64,0
25.832533,26.099867,76,64,0
26.099867,26.634539,65,64,0
26.099867,26.634539,77,64,0
28.238548,29.307888,74,64,0
28.238548,29.307888,86,64,0
29.307888,30.55545,77,74,0
29.307888,30.55545,89,74,0
30.55545,30.733675,76,64,0
30.55545,30.733675,88,64,0
30.733675,30.911898,79,64,0
30.733675,30.911898,91,64,0
30.911898,31.09012,77,64,0
30.911898,31.09012,89,64,0
31.09012,31.268345,75,64,0
31.09012,31.268345,87,64,0
31.268345,31.446568,72,64,0
31.268345,31.446568,84,64,0
31.446568,31.513401,70,64,0
31.446568,31.513401,82,64,0
31.513401,31.580235,72,64,0
31.513401,31.580235,84,64,0
31.580235,31.64707,70,64,0
31.580235,31.64707,82,64,0
31.64707,31.713903,72,64,0
31.64707,31.713903,84,64,0
31.713903,31.780737,70,64,0
31.713903,31.780737,82,64,0
31.780737,31.84757,72,64,0
31.780737,31.84757,84,64,0
31.84757,31.914404,70,64,0
31.84757,31.914404,82,64,0
31.914404,31.981237,72,64,0
31.914404,31.981237,84,64,0
31.981237,32.048073,70,64,0
31.981237,32.048073,82,64,0
32.048073,32.114906,72,64,0
32.048073,32.114906,84,64,0
32.114906,32.18174,70,64,0
32.114906,32.18174,82,64,0
32.18174,32.248573,72,64,0
32.18174,32.248573,84,64,0
32.248573,32.38224,69,64,0
32.248573,32.38224,81,64,0
32.38224,32.515907,70,64,0
32.38224,32.515907,82,64,0
32.515907,34.11992,72,76,0
32.515907,34.11992,84,76,0
34.11992,34.654587,73,64,0
34.11992,34.654587,85,64,0
34.654587,34.72142,74,64,0
34.654587,34.72142,86,64,0
34.72142,34.788254,76,64,0
34.72142,34.788254,88,64,0
34.788254,34.855087,74,64,0
34.788254,34.855087,86,64,0
34.855087,34.921925,76,64,0
34.855087,34.921925,88,64,0
34.921925,34.988758,74,64,0
34.921925,34.988758,86,64,0
34.988758,35.05559,76,64,0
34.988758,35.05559,88,64,0
35.05559,35.122425,74,64,0
35.05559,35.122425,86,64,0
35.122425,35.18926,76,64,0
35.122425,35.18926,88,64,0
35.18926,35.256092,74,64,0
35.18926,35.256092,86,64,0
35.256092,35.322926,76,64,0
35.256092,35.322926,88,64,0
35.322926,35.38976,74,64,0
35.322926,35.38976,86,64,0
35.38976,35.456593,76,64,0
35.38976,35.456593,88,64,0
35.456593,35.59026,73,64,0
35.456593,35.59026,85,64,0
35.59026,35.723927,74,64,0
35.59026,35.723927,86,64,0
35.723927,36.971493,82,74,0
35.723927,36.971493,94,74,0
36.971493,37.149715,81,64,0
36.971493,37.149715,93,64,0
37.149715,37.327938,79,64,0
37.149715,37.327938,91,64,0
37.327938,37.50616,77,64,0
37.327938,37.50616,89,64,0
37.50616,37.684383,76,64,0
37.50616,37.684383,88,64,0
37.684383,37.862606,74,64,0
37.684383,37.862606,86,64,0
37.862606,37.929443,72,64,0
37.862606,37.929443,84,64,0
37.929443,37.996277,74,64,0
37.929443,37.996277,86,64,0
37.996277,38.06311,72,64,0
37.996277,38.06311,84,64,0
38.06311,38.129944,74,64,0
38.06311,38.129944,86,64,0
38.129944,38.196777,72,64,0
38.129944,38.196777,84,64,0
38.196777,38.26361,74,64,0
38.196777,38.26361,86,64,0
38.26361,38.330444,72,64,0
38.26361,38.330444,84,64,0
38.330444,38.397278,74,64,0
38.330444,38.397278,86,64,0
38.397278,38.46411,72,64,0
38.397278,38.46411,84,64,0
38.46411,38.530945,74,64,0
38.46411,38.530945,86,64,0
38.530945,38.59778,72,64,0
38.530945,38.59778,84,64,0
38.59778,38.66461,74,64,0
38.59778,38.66461,86,64,0
38.66461,38.79828,71,64,0
38.66461,38.79828,83,64,0
38.79828,38.93195,72,64,0
38.79828,38.93195,84,64,0
38.93195,40.179512,81,64,0
38.93195,40.179512,93,64,0
40.179512,40.357735,76,64,0
40.179512,40.357735,88,64,0
40.357735,40.535957,77,64,0
40.357735,40.535957,89,64,0
40.535957,40.71418,71,64,0
40.535957,40.71418,83,64,0
40.71418,40.892403,72,64,0
40.71418,40.892403,84,64,0
40.892403,41.07063,69,64,0
40.892403,41.07063,81,64,0
41.07063,41.24885,73,64,0
41.07063,41.24885,85,64,0
41.24885,41.427074,74,64,0
41.24885,41.427074,86,64,0
41.427074,41.605297,77,64,0
41.427074,41.605297,89,64,0
41.605297,41.78352,74,64,0
41.605297,41.78352,86,64,0
41.78352,41.961746,70,64,0
41.78352,41.961746,82,64,0
41.961746,42.13997,67,64,0
41.961746,42.13997,79,64,0
42.13997,42.98352,65,64,0
42.13997,42.98352,77,64,0
42.98352,43.13407,67,64,0
42.98352,43.13407,79,64,0
43.13407,43.287678,65,64,0
43.13407,43.287678,77,64,0
43.287678,43.93772,64,64,0
43.287678,43.93772,76,64,0
47.942444,49.011784,69,64,0
47.942444,49.011784,81,64,0
49.011784,50.61579,72,74,0
49.011784,50.61579,84,74,0
50.61579,51.150463,73,64,0
50.61579,51.150463,85,64,0
51.150463,52.219803,74,64,0
51.150463,52.219803,86,64,0
52.219803,53.289143,77,74,0
52.219803,53.289143,89,74,0
53.289143,53.823814,67,64,0
53.289143,53.823814,79,64,0
53.823814,54.358482,69,64,0
53.823814,54.358482,81,64,0
54.358482,54.425316,70,64,0
54.358482,54.425316,82,64,0
54.425316,54.49215,72,64,0
54.425316,54.49215,84,64,0
54.49215,54.558983,70,64,0
54.49215,54.558983,82,64,0
54.558983,54.625816,72,64,0
54.558983,54.625816,84,64,0
54.625816,54.692654,70,64,0
54.625816,54.692654,82,64,0
54.692654,54.759487,72,64,0
54.692654,54.759487,84,64,0
54.759487,54.82632,70,64,0
54.759487,54.82632,82,64,0
54.82632,54.893154,72,64,0
54.82632,54.893154,84,64,0
54.893154,54.959988,70,64,0
54.893154,54.959988,82,64,0
54.959988,55.02682,72,64,0
54.959988,55.02682,84,64,0
55.02682,55.093655,70,64,0
55.02682,55.093655,82,64,0
55.093655,55.16049,72,64,0
55.093655,55.16049,84,64,0
55.16049,55.294155,69,64,0
55.16049,55.294155,81,64,0
55.294155,55.427822,70,64,0
55.294155,55.427822,82,64,0
55.427822,56.49716,72,64,0
55.427822,56.49716,84,64,0
56.49716,57.5665,74,64,0
56.49716,57.5665,86,64,0
57.5665,57.83384,72,64,0
57.5665,57.83384,84,64,0
57.83384,58.101173,74,64,0
57.83384,58.101173,86,64,0
58.101173,58.368507,70,64,0
58.101173,58.368507,82,64,0
58.368507,58.63584,67,64,0
58.368507,58.63584,79,64,0
58.63584,58.814068,65,64,0
58.63584,58.814068,77,64,0
58.814068,58.99229,67,64,0
58.814068,58.99229,79,64,0
58.99229,59.170513,65,64,0
58.99229,59.170513,77,64,0
59.170513,59.437847,64,64,0
59.170513,59.437847,76,64,0
59.437847,59.705185,65,64,0
59.437847,59.705185,77,64,0
59.705185,60.507187,69,64,0
59.705185,60.507187,81,64,0
60.507187,60.774525,67,64,0
60.507187,60.774525,79,64,0
60.774525,60.952747,65,100,0
60.774525,60.952747,77,100,0
60.952747,61.13097,59,64,0
60.952747,61.13097,71,64,0
61.13097,61.309193,60,64,0
61.13097,61.309193,72,64,0
61.309193,61.487415,65,64,0
61.309193,61.487415,77,64,0
61.487415,61.665638,60,64,0
61.487415,61.665638,72,64,0
61.665638,61.843864,57,64,0
61.665638,61.843864,69,64,0
61.843864,62.022087,60,64,0
61.843864,62.022087,72,64,0
62.022087,62.20031,57,64,0
62.022087,62.20031,69,64,0
62.20031,62.378532,53,64,0
62.20031,62.378532,65,64,0
62.378532,62.556755,57,64,0
62.378532,62.556755,69,64,0
62.556755,62.73498,53,64,0
62.556755,62.73498,65,64,0
62.73498,62.913204,48,64,0
62.73498,62.913204,60,64,0
62.913204,63.091427,53,64,0
62.913204,63.091427,65,64,0
63.091427,63.26965,48,64,0
63.091427,63.26965,60,64,0
63.26965,63.447872,45,64,0
63.26965,63.447872,57,64,0
63.447872,63.626095,48,64,0
63.447872,63.626095,60,64,0
63.626095,63.80432,45,64,0
63.626095,63.80432,57,64,0
63.80432,63.982544,41,64,0
63.80432,63.982544,53,64,0
63.982544,64.16077,69,100,0
63.982544,64.16077,81,100,0
64.16077,64.33899,65,64,0
64.16077,64.33899,77,64,0
64.33899,64.51721,60,64,0
64.33899,64.51721,72,64,0
64.51721,64.695435,65,64,0
64.51721,64.695435,77,64,0
64.695435,64.87366,60,64,0
64.695435,64.87366,72,64,0
64.87366,65.05188,57,64,0
64.87366,65.05188,69,64,0
65.05188,65.23011,60,64,0
65.05188,65.23011,72,64,0
65.23011,65.40833,57,64,0
65.23011,65.40833,69,64,0
65.40833,65.586555,53,64,0
65.40833,65.586555,65,64,0
65.586555,65.76478,57,64,0
65.586555,65.76478,69,64,0
65.76478,65.943,53,64,0
65.76478,65.943,65,64,0
65.943,66.12122,48,64,0
65.943,66.12122,60,64,0
66.12122,66.299446,53,64,0
66.12122,66.299446,65,64,0
66.299446,66.47767,48,64,0
66.299446,66.47767,60,64,0
66.47767,66.65589,45,64,0
66.47767,66.65589,57,64,0
66.65589,66.834114,48,64,0
66.65589,66.834114,60,64,0
66.834114,67.01234,45,64,0
66.834114,67.01234,57,64,0
67.01234,67.19056,41,64,0
67.01234,67.19056,53,64,0
67.19056,67.36879,69,100,0
67.19056,67.36879,81,100,0
67.36879,67.54701,66,64,0
67.36879,67.54701,78,64,0
67.54701,67.725235,60,64,0
67.54701,67.725235,72,64,0
67.725235,67.90346,66,64,0
67.725235,67.90346,78,64,0
67.90346,68.08168,60,64,0
67.90346,68.08168,72,64,0
68.08168,68.2599,57,64,0
68.08168,68.2599,69,64,0
68.2599,68.438126,60,64,0
68.2599,68.438126,72,64,0
68.438126,68.61635,57,64,0
68.438126,68.61635,69,64,0
68.61635,68.79457,54,64,0
68.61635,68.79457,66,64,0
68.79457,68.97279,57,64,0
68.79457,68.97279,69,64,0
68.97279,69.15102,54,64,0
68.97279,69.15102,66,64,0
69.15102,69.32925,48,64,0
69.15102,69.32925,60,64,0
69.32925,69.50747,54,64,0
69.32925,69.50747,66,64,0
69.50747,69.68569,48,64,0
69.50747,69.68569,60,64,0
69.68569,69.863914,45,64,0
69.68569,69.863914,57,64,0
69.863914,70.04214,48,64,0
69.863914,70.04214,60,64,0
70.04214,70.22036,45,64,0
70.04214,70.22036,57,64,0
70.22036,70.39858,42,64,0
70.22036,70.39858,54,64,0
70.39858,70.576805,69,100,0
70.39858,70.576805,81,100,0
70.576805,70.75503,66,64,0
70.576805,70.75503,78,64,0
70.75503,70.93325,61,64,0
70.75503,70.93325,73,64,0
70.93325,71.11147,66,64,0
70.93325,71.11147,78,64,0
71.11147,71.2897,61,64,0
71.11147,71.2897,73,64,0
71.2897,71.467926,57,64,0
71.2897,71.467926,69,64,0
71.467926,71.64615,73,64,0
71.467926,71.64615,61,64,0
71.64615,71.82437,57,64,0
71.64615,71.82437,69,64,0
71.82437,72.002594,54,64,0
71.82437,72.002594,66,64,0
72.002594,72.18082,57,64,0
72.002594,72.18082,69,64,0
72.18082,72.35904,54,64,0
72.18082,72.35904,66,64,0
72.35904,72.53726,49,64,0
72.35904,72.53726,61,64,0
72.53726,72.715485,54,64,0
72.53726,72.715485,66,64,0
72.715485,72.89371,49,64,0
72.715485,72.89371,61,64,0
72.89371,73.07193,45,64,0
72.89371,73.07193,57,64,0
73.07193,73.25015,49,64,0
73.07193,73.25015,61,64,0
73.25015,73.42838,45,64,0
73.25015,73.42838,57,64,0
73.42838,73.606606,42,64,0
73.42838,73.606606,54,64,0
73.606606,73.78483,73,100,0
73.606606,73.78483,85,100,0
73.78483,73.96305,71,64,0
73.78483,73.96305,83,64,0
73.96305,74.14127,68,64,0
73.96305,74.14127,80,64,0
74.14127,74.319496,71,64,0
74.14127,74.319496,83,64,0
74.319496,74.49772,68,64,0
74.319496,74.49772,80,64,0
74.49772,74.67594,65,64,0
74.49772,74.67594,77,64,0
74.67594,74.854164,68,64,0
74.67594,74.854164,80,64,0
74.854164,75.03239,65,64,0
74.854164,75.03239,77,64,0
75.03239,75.21061,61,64,0
75.03239,75.21061,73,64,0
75.21061,75.38884,65,64,0
75.21061,75.38884,77,64,0
75.38884,75.56706,61,64,0
75.38884,75.56706,73,64,0
75.56706,75.745285,59,64,0
75.56706,75.745285,71,64,0
75.745285,75.92351,61,64,0
75.745285,75.92351,73,64,0
75.92351,76.10173,59,64,0
75.92351,76.10173,71,64,0
76.10173,76.27995,56,64,0
76.10173,76.27995,68,64,0
76.27995,76.458176,59,64,0
76.27995,76.458176,71,64,0
76.458176,76.6364,56,64,0
76.458176,76.6364,68,64,0
76.6364,76.81462,53,64,0
76.6364,76.81462,65,64,0
76.81462,76.99284,66,64,0
76.81462,77.081955,42,64,0
76.99284,77.17107,61,64,0
77.17107,77.3493,66,64,0
77.3493,77.52752,69,64,0
77.3493,77.61663,54,64,0
77.52752,77.70574,66,64,0
77.70574,77.883965,61,64,0
77.883965,78.06219,66,64,0
77.883965,78.1513,42,64,0
78.06219,78.24041,61,64,0
78.24041,78.41863,66,64,0
78.41863,78.596855,69,64,0
78.41863,78.68597,54,64,0
78.596855,78.77508,66,64,0
78.77508,78.9533,61,64,0
78.9533,79.13152,66,64,0
78.9533,79.220634,42,64,0
79.13152,79.30975,61,64,0
79.30975,79.487976,66,64,0
79.487976,79.6662,69,64,0
79.487976,79.75531,54,64,0
79.6662,79.84442,66,64,0
79.84442,80.022644,61,64,0
80.022644,80.20087,66,64,0
80.022644,80.28998,42,64,0
80.20087,80.37909,62,64,0
80.37909,80.55731,66,64,0
80.55731,80.735535,71,64,0
80.55731,80.824646,54,64,0
80.735535,80.91376,66,64,0
80.91376,81.09198,62,64,0
81.09198,81.2702,66,64,0
81.09198,81.35932,42,64,0
81.2702,81.44843,62,64,0
81.44843,81.626656,66,64,0
81.626656,81.80488,71,64,0
81.626656,81.89399,54,64,0
81.80488,81.9831,66,64,0
81.9831,82.16132,62,64,0
82.16132,82.33955,66,64,0
82.16132,82.42866,42,64,0
82.33955,82.51777,62,64,0
82.51777,82.69599,66,64,0
82.69599,82.874214,71,64,0
82.69599,82.963326,54,64,0
82.874214,83.05244,66,64,0
83.05244,83.23066,62,64,0
83.23066,83.40889,66,64,0
83.23066,83.498,42,64,0
83.40889,83.58711,61,64,0
83.58711,83.765335,66,64,0
83.765335,83.94356,69,64,0
83.765335,84.03267,54,64,0
83.94356,84.12178,66,64,0
84.12178,84.3,61,64,0
84.3,84.478226,66,64,0
84.3,84.56734,42,64,0
84.478226,84.65645,61,64,0
84.65645,84.83467,66,64,0
84.83467,85.01289,69,64,0
84.83467,85.102005,54,64,0
85.01289,85.19112,66,64,0
85.19112,85.36935,61,64,0
85.36935,85.54757,66,64,0
85.36935,85.63668,42,64,0
85.54757,85.72579,61,64,0
85.72579,85.904015,66,64,0
85.904015,86.08224,69,64,0
85.904015,86.17135,54,64,0
86.08224,86.26046,66,64,0
86.26046,86.43868,61,64,0
86.43868,86.616905,65,64,0
86.43868,86.70602,37,64,0
86.616905,86.79513,59,64,0
86.79513,86.97335,65,64,0
86.97335,87.15157,68,64,0
86.97335,87.240685,49,64,0
87.15157,87.3298,65,64,0
87.3298,87.508026,59,64,0
87.508026,87.68625,65,64,0
87.508026,87.77536,37,64,0
87.68625,87.86447,59,64,0
87.86447,88.042694,65,64,0
88.042694,88.22092,68,64,0
88.042694,88.31003,49,64,0
88.22092,88.39914,65,64,0
88.39914,88.57736,59,64,0
88.57736,88.755585,65,64,0
88.57736,88.844696,37,64,0
88.755585,88.93381,59,64,0
88.93381,89.11203,65,64,0
89.11203,89.29025,68,64,0
89.11203,89.37937,49,64,0
89.29025,89.46848,65,64,0
89.46848,89.646706,59,64,0
89.646706,89.82493,66,64,0
89.646706,89.91404,42,64,0
89.82493,90.00315,57,64,0
90.00315,90.18137,66,64,0
90.18137,90.3596,69,64,0
90.18137,90.44871,54,64,0
90.3596,90.53782,66,64,0
90.53782,90.71604,57,64,0
90.71604,90.894264,66,64,0
90.71604,90.983376,42,64,0
90.894264,91.07249,61,64,0
91.07249,91.25071,66,64,0
91.25071,91.42894,69,64,0
91.25071,91.51805,54,64,0
91.42894,91.60716,66,64,0
91.60716,91.785385,61,64,0
91.785385,91.96361,67,64,0
91.785385,92.05272,42,64,0
91.96361,92.14183,61,64,0
92.14183,92.32005,67,64,0
92.32005,92.498276,70,64,0
92.32005,92.58739,54,64,0
92.498276,92.6765,67,64,0
92.6765,92.85472,61,64,0
92.85472,93.03294,66,64,0
92.85472,93.122055,42,64,0
93.03294,93.21117,62,64,0
93.21117,93.3894,66,64,0
93.3894,93.56762,71,64,0
93.3894,93.65673,54,64,0
93.56762,93.74584,66,64,0
93.74584,93.924065,62,64,0
93.924065,94.10229,66,64,0
93.924065,94.1914,42,64,0
94.10229,94.28051,62,64,0
94.28051,94.45873,66,64,0
94.45873,94.636955,71,64,0
94.45873,94.72607,54,64,0
94.636955,94.81518,66,64,0
94.81518,94.9934,62,64,0
94.9934,95.17162,66,64,0
94.9934,95.260735,42,64,0
95.17162,95.34985,62,64,0
95.34985,95.528076,66,64,0
95.528076,95.7063,71,64,0
95.528076,95.79541,54,64,0
95.7063,95.88452,66,64,0
95.88452,96.062744,62,64,0
96.062744,96.24097,66,64,0
96.062744,96.33008,42,64,0
96.24097,96.41919,61,64,0
96.41919,96.59741,66,64,0
96.59741,96.775635,69,64,0
96.59741,96.864746,54,64,0
96.775635,96.95386,66,64,0
96.95386,97.13208,61,64,0
97.13208,97.3103,66,64,0
97.13208,97.39942,42,64,0
97.3103,97.48853,61,64,0
97.48853,97.666756,66,64,0
97.666756,97.84498,69,64,0
97.666756,97.93409,54,64,0
97.84498,98.0232,66,64,0
98.0232,98.20142,61,64,0
98.20142,98.37965,66,64,0
98.20142,98.46876,42,64,0
98.37965,98.55787,61,64,0
98.55787,98.73609,66,64,0
98.73609,98.914314,69,64,0
98.73609,99.003426,54,64,0
98.914314,99.09254,66,64,0
99.09254,99.27076,61,64,0
99.27076,99.44899,65,64,0
99.27076,99.5381,37,64,0
99.44899,99.62721,59,64,0
99.62721,99.805435,65,64,0
99.805435,99.98366,68,64,0
99.805435,100.07277,49,64,0
99.98366,100.16188,65,64,0
100.16188,100.3401,59,64,0
100.3401,100.518326,65,64,0
100.3401,100.60744,37,64,0
100.518326,100.69655,59,64,0
100.69655,100.87477,65,64,0
100.87477,101.05299,68,64,0
100.87477,101.142105,49,64,0
101.05299,101.23122,65,64,0
101.23122,101.40945,59,64,0
101.40945,101.58767,65,64,0
101.40945,101.67678,37,64,0
101.58767,101.76589,59,64,0
101.76589,101.944115,65,64,0
101.944115,102.12234,68,64,0
101.944115,102.21145,49,64,0
102.12234,102.30056,65,64,0
102.30056,102.47878,59,64,0
102.47878,102.657005,66,64,0
102.47878,102.74612,42,64,0
102.657005,102.83523,57,64,0
102.83523,103.01345,66,64,0
103.01345,103.19167,69,64,0
103.01345,103.280785,54,64,0
103.19167,103.369896,66,64,0
103.369896,103.54813,57,64,0
103.54813,103.72635,66,64,0
103.54813,103.81546,42,64,0
103.72635,103.90457,61,64,0
103.90457,104.082794,66,64,0
104.082794,104.26102,69,63,0
104.082794,104.35013,54,63,0
104.26102,104.43924,66,63,0
104.43924,104.61746,61,63,0
104.61746,104.795685,66,63,0
104.61746,104.884796,42,63,0
104.795685,104.97391,61,63,0
104.97391,105.15213,66,62,0
105.15213,105.33035,69,62,0
105.15213,105.41947,54,62,0
105.33035,105.50858,66,62,0
105.50858,105.686806,61,62,0
105.686806,105.86503,67,62,0
105.686806,105.95414,40,62,0
105.86503,106.04325,61,61,0
106.04325,106.22147,67,61,0
106.22147,106.3997,69,61,0
106.22147,106.48881,52,61,0
106.3997,106.57792,67,61,0
106.57792,106.75614,61,61,0
106.75614,106.934364,67,60,0
106.75614,107.023476,40,60,0
106.934364,107.11259,61,60,0
107.11259,107.29081,67,60,0
107.29081,107.46904,69,60,0
107.29081,107.55815,52,60,0
107.46904,107.64726,67,60,0
107.64726,107.825485,61,59,0
107.825485,108.00371,67,59,0
107.825485,108.09282,40,59,0
108.00371,108.18193,61,59,0
108.18193,108.36015,67,59,0
108.36015,108.538376,69,58,0
108.36015,108.62749,52,58,0
108.538376,108.7166,67,58,0
108.7166,108.89482,61,58,0
108.89482,109.073044,66,58,0
108.89482,109.162155,38,58,0
109.073044,109.25127,62,58,0
109.25127,109.4295,66,57,0
109.4295,109.60772,69,57,0
109.4295,109.69683,50,57,0
109.60772,109.78594,66,57,0
109.78594,109.964165,62,57,0
109.964165,110.14239,66,57,0
109.964165,110.2315,38,57,0
110.14239,110.32061,62,56,0
110.32061,110.49883,66,56,0
110.49883,110.677055,69,56,0
110.49883,110.76617,50,56,0
110.677055,110.85528,66,56,0
110.85528,111.0335,62,56,0
111.0335,111.21172,65,55,0
111.0335,111.300835,32,55,0
111.21172,111.389946,62,55,0
111.389946,111.56818,65,55,0
111.56818,111.7464,71,55,0
111.56818,111.83551,44,55,0
111.7464,111.92462,65,55,0
111.92462,112.102844,62,54,0
112.102844,112.28107,66,54,0
112.102844,112.37018,33,54,0
112.28107,112.45929,62,54,0
112.45929,112.63751,66,54,0
112.63751,112.815735,69,54,0
112.63751,112.90485,45,54,0
112.815735,112.99396,66,54,0
112.99396,113.17218,62,54,0
113.17218,113.3504,61,54,0
113.17218,113.43952,33,54,0
113.3504,113.52863,55,54,0
113.52863,113.706856,61,54,0
113.706856,113.88508,64,54,0
113.706856,113.97419,45,54,0
113.88508,114.0633,61,54,0
114.0633,114.24152,55,54,0
114.24152,114.41975,61,54,0
114.24152,114.50886,33,54,0
114.41975,114.59797,55,54,0
114.59797,114.77619,61,54,0
114.77619,114.954414,64,54,0
114.77619,115.043526,45,54,0
114.954414,115.13264,61,54,0
115.13264,115.31086,55,54,0
115.31086,115.71187,54,100,0
115.31086,115.71187,38,100,0
115.71187,115.845535,69,64,0
115.71187,115.845535,57,64,0
115.845535,116.781204,74,64,0
115.845535,116.781204,62,64,0
116.781204,116.91487,69,64,0
116.781204,116.91487,57,64,0
116.91487,117.85055,78,64,0
116.91487,117.85055,66,64,0
117.85055,117.984215,69,64,0
117.85055,117.984215,57,64,0
117.984215,118.51888,86,64,0
117.984215,118.51888,74,64,0
118.51888,118.78622,73,64,0
118.51888,118.78622,85,64,0
119.05355,119.76645,79,74,0
119.05355,119.76645,91,74,0
119.76645,119.85556,81,64,0
119.76645,119.85556,93,64,0
119.94467,120.03378,79,64,0
119.94467,120.03378,91,64,0
120.122894,120.212006,78,64,0
120.122894,120.212006,90,64,0
120.30112,120.39023,76,64,0
120.30112,120.39023,88,64,0
120.47934,120.56845,74,64,0
120.47934,120.56845,86,64,0
120.65756,120.74667,73,64,0
120.65756,120.74667,85,64,0
120.835785,120.9249,71,64,0
120.835785,120.9249,83,64,0
121.01401,121.10312,69,64,0
121.01401,121.10312,81,64,0
121.19223,121.28134,67,64,0
121.19223,121.28134,79,64,0
121.37045,121.45957,66,64,0
121.37045,121.45957,78,64,0
121.54868,121.637794,64,64,0
121.54868,121.637794,76,64,0
121.726906,122.12791,74,64,0
121.726906,122.12791,62,64,0
122.12791,122.26157,69,64,0
122.12791,122.26157,57,64,0
122.26157,123.19724,74,64,0
122.26157,123.19724,62,64,0
123.19724,123.33091,69,64,0
123.19724,123.33091,57,64,0
123.33091,124.26659,78,64,0
123.33091,124.26659,66,64,0
124.26659,124.40025,69,64,0
124.26659,124.40025,57,64,0
124.40025,124.93492,86,64,0
124.40025,124.93492,74,64,0
124.93492,125.202255,73,64,0
124.93492,125.202255,85,64,0
125.4696,126.18249,79,74,0
125.4696,126.18249,91,74,0
126.18249,126.2716,81,64,0
126.18249,126.2716,93,64,0
126.36071,126.44982,79,64,0
126.36071,126.44982,91,64,0
126.53893,126.628044,78,64,0
126.53893,126.628044,90,64,0
126.717155,126.80627,76,64,0
126.717155,126.80627,88,64,0
126.89538,126.98449,74,64,0
126.89538,126.98449,86,64,0
127.0736,127.16271,73,64,0
127.0736,127.16271,85,64,0
127.25182,127.340935,71,64,0
127.25182,127.340935,83,64,0
127.430046,127.519165,69,64,0
127.430046,127.519165,81,64,0
127.60828,127.69739,67,64,0
127.60828,127.69739,79,64,0
127.7865,127.87561,66,64,0
127.7865,127.87561,78,64,0
127.96472,128.05383,64,64,0
127.96472,128.05383,76,64,0
128.14294,128.54395,74,64,0
128.14294,128.54395,62,64,0
128.54395,128.67761,66,64,0
128.54395,128.67761,54,64,0
128.67761,129.61328,74,64,0
128.67761,129.61328,62,64,0
129.61328,129.74695,71,64,0
129.61328,129.74695,59,64,0
129.74695,130.68263,78,64,0
129.74695,130.68263,66,64,0
130.68263,130.8163,74,64,0
130.68263,130.8163,62,64,0
130.8163,131.35097,83,64,0
130.8163,131.35097,71,64,0
131.35097,131.6183,70,64,0
131.35097,131.6183,82,64,0
131.88564,132.59853,76,74,0
131.88564,132.59853,88,74,0
132.59853,132.68764,78,64,0
132.59853,132.68764,90,64,0
132.77675,132.86586,76,64,0
132.77675,132.86586,88,64,0
132.95497,133.04408,74,64,0
132.95497,133.04408,86,64,0
133.1332,133.2223,73,64,0
133.1332,133.2223,85,64,0
133.31142,133.40053,71,64,0
133.31142,133.40053,83,64,0
133.48964,133.57875,70,64,0
133.48964,133.57875,82,64,0
133.66786,133.75697,67,64,0
133.66786,133.75697,79,64,0
133.84608,133.9352,66,64,0
133.84608,133.9352,78,64,0
134.0243,134.11342,64,64,0
134.0243,134.11342,76,64,0
134.20253,134.29164,62,64,0
134.20253,134.29164,74,64,0
134.38075,134.46986,61,64,0
134.38075,134.46986,73,64,0
134.55899,134.95999,74,64,0
134.55899,134.95999,62,64,0
134.95999,135.09366,66,64,0
134.95999,135.09366,54,64,0
135.09366,136.02933,74,64,0
135.09366,136.02933,62,64,0
136.02933,136.163,71,64,0
136.02933,136.163,59,64,0
136.163,137.09866,78,64,0
136.163,137.09866,66,64,0
137.09866,137.23233,74,64,0
137.09866,137.23233,62,64,0
137.23233,137.767,83,64,0
137.23233,137.767,71,64,0
137.767,138.03433,72,64,0
137.767,138.03433,84,64,0
138.30167,139.01457,84,74,0
138.30167,139.01457,96,74,0
139.01457,139.10368,86,64,0
139.01457,139.10368,98,64,0
139.1928,139.2819,88,64,0
139.1928,139.2819,100,64,0
139.37102,139.46013,86,64,0
139.37102,139.46013,98,64,0
139.54924,139.63835,84,64,0
139.54924,139.63835,96,64,0
139.72746,139.81657,83,64,0
139.72746,139.81657,95,64,0
139.90569,139.9948,81,64,0
139.90569,139.9948,93,64,0
140.08391,140.17302,79,64,0
140.08391,140.17302,91,64,0
140.26213,140.35124,78,64,0
140.26213,140.35124,90,64,0
140.44035,140.52946,76,64,0
140.44035,140.52946,88,64,0
140.61858,140.70769,74,64,0
140.61858,140.70769,86,64,0
140.7968,140.88591,72,64,0
140.7968,140.88591,84,64,0
140.97502,141.50969,83,64,0
140.97502,141.50969,71,64,0
141.50969,142.04436,81,60,0
141.50969,142.04436,69,60,0
142.44536,142.57904,50,54,0
142.44536,142.57904,38,54,0
142.57904,143.51471,62,64,0
142.57904,143.51471,50,64,0
143.51471,143.64838,50,54,0
143.51471,143.64838,38,54,0
143.64838,144.18304,62,64,0
143.64838,144.18304,50,64,0
144.18304,144.45038,51,54,0
144.18304,144.45038,63,54,0
144.71771,145.4306,84,64,0
144.71771,145.4306,96,64,0
145.4306,145.51971,86,54,0
145.4306,145.51971,98,54,0
145.60883,145.69794,87,54,0
145.60883,145.69794,99,54,0
145.78705,145.87616,86,54,0
145.78705,145.87616,98,54,0
145.96527,146.05438,84,54,0
145.96527,146.05438,96,54,0
146.1435,146.2326,82,54,0
146.1435,146.2326,94,54,0
146.32172,146.41083,81,54,0
146.32172,146.41083,93,54,0
146.49994,146.58907,79,54,0
146.49994,146.58907,91,54,0
146.67818,146.76729,78,54,0
146.67818,146.76729,90,54,0
146.8564,146.94551,75,54,0
146.8564,146.94551,87,54,0
147.03462,147.12373,74,54,0
147.03462,147.12373,86,54,0
147.21284,147.30196,72,54,0
147.21284,147.30196,84,54,0
147.39107,147.92574,82,64,0
147.39107,147.92574,70,64,0
147.92574,148.4604,81,60,0
147.92574,148.4604,69,60,0
148.8614,148.99507,50,54,0
148.8614,148.99507,38,54,0
148.99507,149.93074,62,63,0
148.99507,149.93074,50,63,0
149.93074,150.0644,50,54,0
149.93074,150.0644,38,54,0
150.0644,150.59909,62,64,0
150.0644,150.59909,50,64,0
150.59909,150.86642,51,54,0
150.59909,150.86642,63,54,0
151.13376,151.84665,84,64,0
151.13376,151.84665,96,64,0
151.84665,151.93576,86,54,0
151.84665,151.93576,98,54,0
152.02487,152.11398,87,54,0
152.02487,152.11398,99,54,0
152.2031,152.2922,86,54,0
152.2031,152.2922,98,54,0
152.38132,152.47043,84,54,0
152.38132,152.47043,96,54,0
152.55954,152.64865,82,54,0
152.55954,152.64865,94,54,0
152.73776,152.82687,81,54,0
152.73776,152.82687,93,54,0
152.91599,153.0051,79,54,0
152.91599,153.0051,91,54,0
153.09421,153.18332,78,54,0
153.09421,153.18332,90,54,0
153.27243,153.36154,75,54,0
153.27243,153.36154,87,54,0
153.45065,153.53976,74,54,0
153.45065,153.53976,86,54,0
153.62888,153.71799,72,54,0
153.62888,153.71799,84,54,0
153.8071,154.34177,70,64,0
153.8071,154.34177,82,64,0
154.34177,154.87645,81,60,0
154.34177,154.87645,69,60,0
155.27745,155.41112,50,54,0
155.27745,155.41112,38,54,0
155.41112,156.34679,62,54,0
155.41112,156.34679,50,54,0
156.34679,156.48045,50,54,0
156.34679,156.48045,38,54,0
156.48045,157.01512,62,54,0
156.48045,157.01512,50,54,0
157.01512,157.28246,38,54,0
157.01512,157.28246,50,54,0
158.08446,158.61914,67,64,0
158.08446,158.61914,79,64,0
158.61914,159.15381,66,54,0
158.61914,159.15381,78,54,0
160.22314,160.75781,67,54,0
160.22314,160.75781,79,54,0
160.75781,161.29248,66,50,0
160.75781,161.29248,78,50,0
162.36182,162.8965,67,54,0
162.36182,162.8965,79,54,0
162.8965,163.43117,66,49,0
162.8965,163.43117,78,49,0
163.43117,163.96584,67,54,0
163.43117,163.96584,79,54,0
163.96584,164.23317,66,48,0
163.96584,164.23317,78,48,0
164.5005,165.03517,66,54,0
164.5005,165.03517,78,54,0
165.03517,165.3025,64,53,0
165.03517,165.3025,76,53,0
165.56984,166.1045,64,52,0
165.56984,166.1045,76,52,0
166.1045,166.37184,62,51,0
166.1045,166.37184,74,51,0
166.63919,167.17386,74,50,0
167.17386,167.4412,72,49,0
167.70853,168.2432,72,48,0
168.2432,168.51053,71,47,0
168.77786,169.31253,71,46,0
169.31253,169.57986,69,45,0
169.8472,170.2482,67,44,0
170.2482,170.38187,62,44,0
170.2482,170.38187,74,44,0
170.38187,171.31755,67,44,0
170.38187,171.31755,79,44,0
171.31755,171.45122,62,44,0
171.31755,171.45122,74,44,0
171.45122,172.38689,71,44,0
171.45122,172.38689,83,44,0
172.38689,172.52055,67,44,0
172.38689,172.52055,79,44,0
172.52055,172.92155,73,44,0
172.52055,172.92155,85,44,0
172.92155,173.05522,76,44,0
172.92155,173.05522,88,44,0
173.05522,173.45622,74,44,0
173.05522,173.45622,86,44,0
173.45622,173.58989,69,44,0
173.45622,173.58989,81,44,0
173.58989,174.52556,72,44,0
173.58989,174.52556,84,44,0
174.52556,174.65923,66,44,0
174.52556,174.65923,78,44,0
174.65923,175.59491,69,44,0
174.65923,175.59491,81,44,0
175.59491,175.72858,57,44,0
175.59491,175.72858,69,44,0
175.72858,176.12958,63,44,0
175.72858,176.12958,75,44,0
176.12958,176.26324,62,44,0
176.12958,176.26324,74,44,0
176.26324,176.66425,55,44,0
176.26324,176.66425,67,44,0
176.66425,176.79791,62,44,0
176.66425,176.79791,74,44,0
176.79791,177.73358,67,44,0
176.79791,177.73358,79,44,0
177.73358,177.86725,62,44,0
177.73358,177.86725,74,44,0
177.86725,178.80293,71,44,0
177.86725,178.80293,83,44,0
178.80293,178.9366,67,44,0
178.80293,178.9366,79,44,0
178.9366,179.3376,73,44,0
178.9366,179.3376,85,44,0
179.3376,179.47127,76,44,0
179.3376,179.47127,88,44,0
179.47127,179.87227,74,44,0
179.47127,179.87227,86,44,0
179.87227,180.00594,69,44,0
179.87227,180.00594,81,44,0
180.00594,180.9416,72,44,0
180.00594,180.9416,84,44,0
180.9416,181.07527,66,44,0
180.9416,181.07527,78,44,0
181.07527,182.01094,69,44,0
181.07527,182.01094,81,44,0
182.01094,182.1446,57,44,0
182.01094,182.1446,69,44,0
182.1446,182.54561,63,44,0
182.1446,182.54561,75,44,0
182.54561,182.67928,62,44,0
182.54561,182.67928,74,44,0
182.67928,183.08029,55,54,0
182.67928,183.08029,67,54,0
183.08029,183.21396,50,54,0
183.08029,183.21396,62,54,0
183.21396,184.14963,55,54,0
183.21396,184.14963,67,54,0
184.14963,184.2833,50,54,0
184.14963,184.2833,62,54,0
184.2833,185.21896,59,54,0
184.2833,185.21896,71,54,0
185.21896,185.35263,54,54,0
185.21896,185.35263,66,54,0
185.35263,185.8873,57,54,0
185.35263,185.8873,69,54,0
185.8873,186.2883,55,54,0
185.8873,186.2883,67,54,0
186.2883,186.42197,50,54,0
186.2883,186.42197,62,54,0
186.42197,187.35765,55,54,0
186.42197,187.35765,67,54,0
187.35765,187.49132,50,54,0
187.35765,187.49132,62,54,0
187.49132,188.42699,59,54,0
187.49132,188.42699,71,54,0
188.42699,188.56065,54,54,0
188.42699,188.56065,66,54,0
188.56065,189.09532,57,54,0
188.56065,189.09532,69,54,0
189.09532,189.49939,55,54,0
189.09532,189.49939,67,54,0
189.49939,189.63585,50,54,0
189.49939,189.63585,62,54,0
189.63585,190.61874,55,54,0
189.63585,190.61874,67,54,0
190.61874,190.76314,50,54,0
190.61874,190.76314,62,54,0
190.76314,191.805,55,54,0
190.76314,191.805,67,54,0
191.805,191.95831,50,54,0
191.805,191.95831,62,54,0
191.95831,193.06662,55,54,0
191.95831,193.06662,67,54,0
193.06662,193.23004,50,54,0
193.06662,193.23004,62,54,0
193.23004,197.18599,55,54,0
193.23004,197.18599,67,54,0
197.78482,198.85416,84,64,0
197.78482,198.85416,72,64,0
198.85416,199.9235,87,74,0
198.85416,199.9235,75,74,0
199.9235,200.45816,77,64,0
199.9235,200.45816,65,64,0
200.45816,200.99283,79,64,0
200.45816,200.99283,67,64,0
200.99283,201.05966,68,64,0
200.99283,201.05966,80,64,0
201.05966,201.1265,70,64,0
201.05966,201.1265,82,64,0
201.1265,201.19333,68,64,0
201.1265,201.19333,80,64,0
201.19333,201.26016,70,64,0
201.19333,201.26016,82,64,0
201.26016,201.327,68,64,0
201.26016,201.327,80,64,0
201.327,201.39383,70,64,0
201.327,201.39383,82,64,0
201.39383,201.46066,68,64,0
201.39383,201.46066,80,64,0
201.46066,201.5275,70,64,0
201.46066,201.5275,82,64,0
201.5275,201.59433,68,64,0
201.5275,201.59433,80,64,0
201.59433,201.66118,70,64,0
201.59433,201.66118,82,64,0
201.66118,201.72801,68,64,0
201.66118,201.72801,80,64,0
201.72801,201.79485,70,64,0
201.72801,201.79485,82,64,0
201.79485,201.92851,67,64,0
201.79485,201.92851,79,64,0
201.92851,202.06218,68,64,0
201.92851,202.06218,80,64,0
202.06218,203.66618,70,64,0
202.06218,203.66618,82,64,0
203.66618,204.20085,71,64,0
203.66618,204.20085,83,64,0
204.20085,204.60185,72,64,0
204.20085,204.60185,84,64,0
204.60185,204.73552,80,66,0
204.60185,204.73552,92,66,0
204.73552,205.13652,80,67,0
204.73552,205.13652,92,67,0
205.13652,205.27019,72,69,0
205.13652,205.27019,84,69,0
205.27019,205.6712,73,70,0
205.27019,205.6712,85,70,0
205.6712,205.80487,77,73,0
205.6712,205.80487,89,73,0
205.80487,206.20587,77,74,0
205.80487,206.20587,89,74,0
206.20587,206.33954,71,72,0
206.20587,206.33954,83,72,0
206.33954,206.74054,72,71,0
206.33954,206.74054,84,71,0
206.74054,206.8742,75,69,0
206.74054,206.8742,87,69,0
206.8742,207.2752,75,67,0
206.8742,207.2752,87,67,0
207.2752,207.40887,68,65,0
207.2752,207.40887,80,65,0
207.40887,208.21088,72,64,0
207.40887,208.21088,84,64,0
208.21088,208.34454,73,64,0
208.21088,208.34454,85,64,0
208.34454,208.47821,72,64,0
208.34454,208.47821,84,64,0
208.47821,209.02939,70,64,0
208.47821,209.02939,82,64,0
209.02939,209.32176,79,64,0
209.32176,209.62593,82,64,0
209.62593,209.94395,76,64,0
209.94395,210.27597,75,64,0
210.27597,210.62459,74,64,0
210.62459,210.99078,73,64,0
210.99078,212.14201,72,64,0
214.28069,215.35002,72,64,0
214.28069,215.35002,84,64,0
215.35002,217.48871,75,74,0
215.35002,217.48871,87,74,0
217.48871,218.55804,87,64,0
217.48871,218.55804,75,64,0
218.55804,219.36005,92,76,0
218.55804,219.36005,80,76,0
219.36005,219.6274,89,64,0
219.36005,219.6274,77,64,0
219.6274,220.16206,87,64,0
219.6274,220.16206,75,64,0
220.16206,220.69673,84,64,0
220.16206,220.69673,72,64,0
220.69673,221.49873,73,74,0
220.69673,221.49873,85,74,0
221.49873,221.76607,67,64,0
221.49873,221.76607,79,64,0
221.76607,222.30074,68,64,0
221.76607,222.30074,80,64,0
223.90475,224.97409,65,64,0
223.90475,224.97409,77,64,0
224.97409,226.22165,68,74,0
224.97409,226.22165,80,74,0
226.22165,226.39987,67,64,0
226.22165,226.39987,79,64,0
226.39987,226.5781,70,64,0
226.39987,226.5781,82,64,0
226.5781,226.75632,68,64,0
226.5781,226.75632,80,64,0
226.75632,226.93454,66,64,0
226.75632,226.93454,78,64,0
226.93454,227.11276,63,64,0
226.93454,227.11276,75,64,0
227.11276,227.1796,61,64,0
227.11276,227.1796,73,64,0
227.1796,227.24643,63,64,0
227.1796,227.24643,75,64,0
227.24643,227.31326,61,64,0
227.24643,227.31326,73,64,0
227.31326,227.3801,63,64,0
227.31326,227.3801,75,64,0
227.3801,227.44695,61,64,0
227.3801,227.44695,73,64,0
227.44695,227.51378,63,64,0
227.44695,227.51378,75,64,0
227.51378,227.58061,61,64,0
227.51378,227.58061,73,64,0
227.58061,227.64745,63,64,0
227.58061,227.64745,75,64,0
227.64745,227.71428,61,64,0
227.64745,227.71428,73,64,0
227.71428,227.78111,63,64,0
227.71428,227.78111,75,64,0
227.78111,227.84795,61,64,0
227.78111,227.84795,73,64,0
227.84795,227.91478,63,64,0
227.84795,227.91478,75,64,0
227.91478,228.04845,60,64,0
227.91478,228.04845,72,64,0
228.04845,228.18211,61,64,0
228.04845,228.18211,73,64,0
228.18211,229.78612,63,76,0
228.18211,229.78612,75,76,0
229.78612,230.32079,64,64,0
229.78612,230.32079,76,64,0
230.32079,230.38762,65,64,0
230.32079,230.38762,77,64,0
230.38762,230.45445,67,64,0
230.38762,230.45445,79,64,0
230.45445,230.52129,65,64,0
230.45445,230.52129,77,64,0
230.52129,230.58812,67,64,0
230.52129,230.58812,79,64,0
230.58812,230.65495,65,64,0
230.58812,230.65495,77,64,0
230.65495,230.72179,67,64,0
230.65495,230.72179,79,64,0
230.72179,230.78862,65,64,0
230.72179,230.78862,77,64,0
230.78862,230.85545,67,64,0
230.78862,230.85545,79,64,0
230.85545,230.92229,65,64,0
230.85545,230.92229,77,64,0
230.92229,230.98912,67,64,0
230.92229,230.98912,79,64,0
230.98912,231.05595,65,64,0
230.98912,231.05595,77,64,0
231.05595,231.12279,67,64,0
231.05595,231.12279,79,64,0
231.12279,231.25645,64,64,0
231.12279,231.25645,76,64,0
231.25645,231.39012,65,64,0
231.25645,231.39012,77,64,0
231.39012,232.6377,73,74,0
231.39012,232.6377,85,74,0
232.6377,232.81592,72,64,0
232.6377,232.81592,84,64,0
232.81592,232.99414,70,64,0
232.81592,232.99414,82,64,0
232.99414,233.17236,68,64,0
232.99414,233.17236,80,64,0
233.17236,233.35059,67,64,0
233.17236,233.35059,79,64,0
233.35059,233.52881,65,64,0
233.35059,233.52881,77,64,0
233.52881,233.59564,63,64,0
233.52881,233.59564,75,64,0
233.59564,233.66248,65,64,0
233.59564,233.66248,77,64,0
233.66248,233.72931,63,64,0
233.66248,233.72931,75,64,0
233.72931,233.79614,65,64,0
233.72931,233.79614,77,64,0
233.79614,233.86298,63,64,0
233.79614,233.86298,75,64,0
233.86298,233.92981,65,64,0
233.86298,233.92981,77,64,0
233.92981,233.99664,63,64,0
233.92981,233.99664,75,64,0
233.99664,234.06348,65,64,0
233.99664,234.06348,77,64,0
234.06348,234.13031,63,64,0
234.06348,234.13031,75,64,0
234.13031,234.19714,65,64,0
234.13031,234.19714,77,64,0
234.19714,234.26398,63,64,0
234.19714,234.26398,75,64,0
234.26398,234.33081,65,64,0
234.26398,234.33081,77,64,0
234.33081,234.46448,62,64,0
234.33081,234.46448,74,64,0
234.46448,234.59814,63,64,0
234.46448,234.59814,75,64,0
234.59814,235.84572,72,64,0
234.59814,235.84572,84,64,0
235.84572,236.02394,67,64,0
235.84572,236.02394,79,64,0
236.02394,236.20216,68,64,0
236.02394,236.20216,80,64,0
236.20216,236.38039,62,64,0
236.20216,236.38039,74,64,0
236.38039,236.55861,63,64,0
236.38039,236.55861,75,64,0
236.55861,236.73683,60,64,0
236.55861,236.73683,72,64,0
236.73683,236.91505,64,64,0
236.73683,236.91505,76,64,0
236.91505,237.09328,65,64,0
236.91505,237.09328,77,64,0
237.09328,237.2715,68,64,0
237.09328,237.2715,80,64,0
237.2715,237.44972,65,64,0
237.2715,237.44972,77,64,0
237.44972,237.62794,61,64,0
237.44972,237.62794,73,64,0
237.62794,237.80617,58,64,0
237.62794,237.80617,70,64,0
237.80617,238.64972,56,64,0
237.80617,238.64972,68,64,0
238.64972,238.80028,58,64,0
238.64972,238.80028,70,64,0
238.80028,238.95387,56,64,0
238.80028,238.95387,68,64,0
238.95387,239.60393,55,64,0
238.95387,239.60393,67,64,0
243.60864,244.67798,72,64,0
243.60864,244.67798,84,64,0
244.67798,246.282,75,74,0
244.67798,246.282,87,74,0
246.282,246.81667,76,64,0
246.282,246.81667,88,64,0
246.81667,247.886,77,64,0
246.81667,247.886,89,64,0
247.886,248.95534,80,74,0
247.886,248.95534,92,74,0
248.95534,249.49002,70,64,0
248.95534,249.49002,82,64,0
249.49002,250.02469,72,64,0
249.49002,250.02469,84,64,0
250.02469,250.09152,73,64,0
250.02469,250.09152,85,64,0
250.09152,250.15836,75,64,0
250.09152,250.15836,87,64,0
250.15836,250.22519,73,64,0
250.15836,250.22519,85,64,0
250.22519,250.29202,75,64,0
250.22519,250.29202,87,64,0
250.29202,250.35886,73,64,0
250.29202,250.35886,85,64,0
250.35886,250.42569,75,64,0
250.35886,250.42569,87,64,0
250.42569,250.49252,73,64,0
250.42569,250.49252,85,64,0
250.49252,250.55936,75,64,0
250.49252,250.55936,87,64,0
250.55936,250.62619,73,64,0
250.55936,250.62619,85,64,0
250.62619,250.69302,75,64,0
250.62619,250.69302,87,64,0
250.69302,250.75986,73,64,0
250.69302,250.75986,85,64,0
250.75986,250.82669,75,64,0
250.75986,250.82669,87,64,0
250.82669,250.96036,72,64,0
250.82669,250.96036,84,64,0
250.96036,251.09402,73,64,0
250.96036,251.09402,85,64,0
251.09402,252.16336,75,64,0
251.09402,252.16336,87,64,0
252.16336,253.23271,77,64,0
252.16336,253.23271,89,64,0
253.23271,253.50005,75,64,0
253.23271,253.50005,87,64,0
253.50005,253.76738,77,64,0
253.50005,253.76738,89,64,0
253.76738,254.03471,73,64,0
253.76738,254.03471,85,64,0
254.03471,254.30205,70,64,0
254.03471,254.30205,82,64,0
254.30205,254.48027,68,64,0
254.30205,254.48027,80,64,0
254.48027,254.6585,70,64,0
254.48027,254.6585,82,64,0
254.6585,254.83672,68,64,0
254.6585,254.83672,80,64,0
254.83672,255.10405,67,64,0
254.83672,255.10405,79,64,0
255.10405,255.37138,68,64,0
255.10405,255.37138,80,64,0
255.37138,256.1734,72,64,0
255.37138,256.1734,84,64,0
256.1734,256.44073,70,64,0
256.1734,256.44073,82,64,0
256.44073,256.61896,68,100,0
256.44073,256.61896,80,100,0
256.61896,256.79718,62,64,0
256.61896,256.79718,74,64,0
256.79718,256.9754,63,64,0
256.79718,256.9754,75,64,0
256.9754,257.15363,68,64,0
256.9754,257.15363,80,64,0
257.15363,257.33185,63,64,0
257.15363,257.33185,75,64,0
257.33185,257.51007,60,64,0
257.33185,257.51007,72,64,0
257.51007,257.6883,63,64,0
257.51007,257.6883,75,64,0
257.6883,257.86652,60,64,0
257.6883,257.86652,72,64,0
257.86652,258.04474,56,64,0
257.86652,258.04474,68,64,0
258.04474,258.22296,60,64,0
258.04474,258.22296,72,64,0
258.22296,258.40118,56,64,0
258.22296,258.40118,68,64,0
258.40118,258.5794,51,64,0
258.40118,258.5794,63,64,0
258.5794,258.75763,56,64,0
258.5794,258.75763,68,64,0
258.75763,258.93585,51,64,0
258.75763,258.93585,63,64,0
258.93585,259.11407,48,64,0
258.93585,259.11407,60,64,0
259.11407,259.2923,51,64,0
259.11407,259.2923,63,64,0
259.2923,259.47052,48,64,0
259.2923,259.47052,60,64,0
259.47052,259.64874,44,64,0
259.47052,259.64874,56,64,0
259.64874,259.82697,72,100,0
259.64874,259.82697,84,100,0
259.82697,260.0052,68,64,0
259.82697,260.0052,80,64,0
260.0052,260.1834,63,64,0
260.0052,260.1834,75,64,0
260.1834,260.36163,68,64,0
260.1834,260.36163,80,64,0
260.36163,260.53986,63,64,0
260.36163,260.53986,75,64,0
260.53986,260.71808,60,64,0
260.53986,260.71808,72,64,0
260.71808,260.8963,63,64,0
260.71808,260.8963,75,64,0
260.8963,261.07452,60,64,0
260.8963,261.07452,72,64,0
261.07452,261.25275,56,64,0
261.07452,261.25275,68,64,0
261.25275,261.43097,60,64,0
261.25275,261.43097,72,64,0
261.43097,261.6092,56,64,0
261.43097,261.6092,68,64,0
261.6092,261.7874,51,64,0
261.6092,261.7874,63,64,0
261.7874,261.96564,56,64,0
261.7874,261.96564,68,64,0
261.96564,262.14386,51,64,0
261.96564,262.14386,63,64,0
262.14386,262.32208,48,64,0
262.14386,262.32208,60,64,0
262.32208,262.5003,51,64,0
262.32208,262.5003,63,64,0
262.5003,262.67853,48,64,0
262.5003,262.67853,60,64,0
262.67853,262.85675,44,64,0
262.67853,262.85675,56,64,0
262.85675,263.03497,72,100,0
262.85675,263.03497,84,100,0
263.03497,263.2132,69,64,0
263.03497,263.2132,81,64,0
263.2132,263.39145,63,64,0
263.2132,263.39145,75,64,0
263.39145,263.56967,69,64,0
263.39145,263.56967,81,64,0
263.56967,263.7479,63,64,0
263.56967,263.7479,75,64,0
263.7479,263.92612,60,64,0
263.7479,263.92612,72,64,0
263.92612,264.10434,63,64,0
263.92612,264.10434,75,64,0
264.10434,264.28256,60,64,0
264.10434,264.28256,72,64,0
264.28256,264.4608,57,64,0
264.28256,264.4608,69,64,0
264.4608,264.639,60,64,0
264.4608,264.639,72,64,0
264.639,264.81723,57,64,0
264.639,264.81723,69,64,0
264.81723,264.99545,51,64,0
264.81723,264.99545,63,64,0
264.99545,265.17368,57,64,0
264.99545,265.17368,69,64,0
265.17368,265.3519,51,64,0
265.17368,265.3519,63,64,0
265.3519,265.53012,48,64,0
265.3519,265.53012,60,64,0
265.53012,265.70834,51,64,0
265.53012,265.70834,63,64,0
265.70834,265.88657,48,64,0
265.70834,265.88657,60,64,0
265.88657,266.0648,45,64,0
265.88657,266.0648,57,64,0
266.0648,266.243,72,100,0
266.0648,266.243,84,100,0
266.243,266.42123,69,64,0
266.243,266.42123,81,64,0
266.42123,266.59946,64,64,0
266.42123,266.59946,76,64,0
266.59946,266.77768,69,64,0
266.59946,266.77768,81,64,0
266.77768,266.9559,64,64,0
266.77768,266.9559,76,64,0
266.9559,267.13412,60,64,0
266.9559,267.13412,72,64,0
267.13412,267.31235,76,64,0
267.13412,267.31235,64,64,0
267.31235,267.49057,60,64,0
267.31235,267.49057,72,64,0
267.49057,267.6688,57,64,0
267.49057,267.6688,69,64,0
267.6688,267.84702,60,64,0
267.6688,267.84702,72,64,0
267.84702,268.02524,57,64,0
267.84702,268.02524,69,64,0
268.02524,268.20346,52,64,0
268.02524,268.20346,64,64,0
268.20346,268.38168,57,64,0
268.20346,268.38168,69,64,0
268.38168,268.5599,52,64,0
268.38168,268.5599,64,64,0
268.5599,268.73813,48,64,0
268.5599,268.73813,60,64,0
268.73813,268.91635,52,64,0
268.73813,268.91635,64,64,0
268.91635,269.09457,48,64,0
268.91635,269.09457,60,64,0
269.09457,269.2728,45,64,0
269.09457,269.2728,57,64,0
269.2728,269.45102,76,100,0
269.2728,269.45102,88,100,0
269.45102,269.62924,74,64,0
269.45102,269.62924,86,64,0
269.62924,269.80746,71,64,0
269.62924,269.80746,83,64,0
269.80746,269.9857,74,64,0
269.80746,269.9857,86,64,0
269.9857,270.1639,71,64,0
269.9857,270.1639,83,64,0
270.1639,270.34213,68,64,0
270.1639,270.34213,80,64,0
270.34213,270.52036,71,64,0
270.34213,270.52036,83,64,0
270.52036,270.69858,68,64,0
270.52036,270.69858,80,64,0
270.69858,270.8768,64,64,0
270.69858,270.8768,76,64,0
270.8768,271.05502,68,64,0
270.8768,271.05502,80,64,0
271.05502,271.23325,64,64,0
271.05502,271.23325,76,64,0
271.23325,271.4115,62,64,0
271.23325,271.4115,74,64,0
271.4115,271.58972,64,64,0
271.4115,271.58972,76,64,0
271.58972,271.76794,62,64,0
271.58972,271.76794,74,64,0
271.76794,271.94617,59,64,0
271.76794,271.94617,71,64,0
271.94617,272.1244,62,64,0
271.94617,272.1244,74,64,0
272.1244,272.3026,59,64,0
272.1244,272.3026,71,64,0
272.3026,272.48083,56,64,0
272.3026,272.48083,68,64,0
272.48083,272.65906,69,64,0
272.48083,272.74817,45,64,0
272.65906,272.83728,64,64,0
272.83728,273.0155,69,64,0
273.0155,273.19373,72,64,0
273.0155,273.28284,57,64,0
273.19373,273.37195,69,64,0
273.37195,273.55017,64,64,0
273.55017,273.7284,69,64,0
273.55017,273.8175,45,64,0
273.7284,273.90662,64,64,0
273.90662,274.08484,69,64,0
274.08484,274.26306,72,64,0
274.08484,274.35217,57,64,0
274.26306,274.44128,69,64,0
274.44128,274.6195,64,64,0
274.6195,274.79773,69,64,0
274.6195,274.88684,45,64,0
274.79773,274.97595,64,64,0
274.97595,275.15417,69,64,0
275.15417,275.3324,72,64,0
275.15417,275.4215,57,64,0
275.3324,275.51062,69,64,0
275.51062,275.68884,64,64,0
275.68884,275.86707,69,64,0
275.68884,275.95618,45,64,0
275.86707,276.0453,65,64,0
276.0453,276.2235,69,64,0
276.2235,276.40173,74,64,0
276.2235,276.49084,57,64,0
276.40173,276.57996,69,64,0
276.57996,276.75818,65,64,0
276.75818,276.9364,69,64,0
276.75818,277.0255,45,64,0
276.9364,277.11462,65,64,0
277.11462,277.29285,69,64,0
277.29285,277.47107,74,64,0
277.29285,277.56018,57,64,0
277.47107,277.6493,69,64,0
277.6493,277.8275,65,64,0
277.8275,278.00574,69,64,0
277.8275,278.09485,45,64,0
278.00574,278.18396,65,64,0
278.18396,278.36218,69,64,0
278.36218,278.5404,74,64,0
278.36218,278.62952,57,64,0
278.5404,278.71863,69,64,0
278.71863,278.89685,65,64,0
278.89685,279.07507,69,64,0
278.89685,279.16418,45,64,0
279.07507,279.2533,64,64,0
279.2533,279.43155,69,64,0
279.43155,279.60977,72,64,0
279.43155,279.69888,57,64,0
279.60977,279.788,69,64,0
279.788,279.96622,64,64,0
279.96622,280.14444,69,64,0
279.96622,280.23355,45,64,0
280.14444,280.32266,64,64,0
280.32266,280.5009,69,64,0
280.5009,280.6791,72,64,0
280.5009,280.76822,57,64,0
280.6791,280.85733,69,64,0
280.85733,281.03555,64,64,0
281.03555,281.21378,69,64,0
281.03555,281.3029,45,64,0
281.21378,281.392,64,64,0
281.392,281.57022,69,64,0
281.57022,281.74844,72,64,0
281.57022,281.83755,57,64,0
281.74844,281.92667,69,64,0
281.92667,282.1049,64,64,0
282.1049,282.2831,68,64,0
282.1049,282.37222,40,64,0
282.2831,282.46133,62,64,0
282.46133,282.63956,68,64,0
282.63956,282.81778,71,64,0
282.63956,282.9069,52,64,0
282.81778,282.996,68,64,0
282.996,283.17422,62,64,0
283.17422,283.35245,68,64,0
283.17422,283.44156,40,64,0
283.35245,283.53067,62,64,0
283.53067,283.7089,68,64,0
283.7089,283.88712,71,64,0
283.7089,283.97623,52,64,0
283.88712,284.06534,68,64,0
284.06534,284.24356,62,64,0
284.24356,284.42178,68,64,0
284.24356,284.5109,40,64,0
284.42178,284.6,62,64,0
284.6,284.77823,68,64,0
284.77823,284.95645,71,64,0
284.77823,285.04556,52,64,0
284.95645,285.13467,68,64,0
285.13467,285.3129,62,64,0
285.3129,285.49112,69,64,0
285.3129,285.58023,45,64,0
285.49112,285.66934,60,64,0
285.66934,285.84756,69,64,0
285.84756,286.0258,72,64,0
285.84756,286.1149,57,64,0
286.0258,286.204,69,64,0
286.204,286.38223,60,64,0
286.38223,286.56046,69,64,0
286.38223,286.64957,45,64,0
286.56046,286.73868,64,64,0
286.73868,286.9169,69,64,0
286.9169,287.09512,72,64,0
286.9169,287.18423,57,64,0
287.09512,287.27335,69,64,0
287.27335,287.4516,64,64,0
287.4516,287.62982,70,64,0
287.4516,287.71893,45,64,0
287.62982,287.80804,64,64,0
287.80804,287.98627,70,64,0
287.98627,288.1645,73,64,0
287.98627,288.2536,57,64,0
288.1645,288.3427,70,64,0
288.3427,288.52094,64,64,0
288.52094,288.69916,69,64,0
288.52094,288.78827,45,64,0
288.69916,288.87738,65,64,0
288.87738,289.0556,69,64,0
289.0556,289.23383,74,64,0
289.0556,289.32294,57,64,0
289.23383,289.41205,69,64,0
289.41205,289.59027,65,64,0
289.59027,289.7685,69,64,0
289.59027,289.8576,45,64,0
289.7685,289.94672,65,64,0
289.94672,290.12494,69,64,0
290.12494,290.30316,74,64,0
290.12494,290.39227,57,64,0
290.30316,290.48138,69,64,0
290.48138,290.6596,65,64,0
290.6596,290.83783,69,64,0
290.6596,290.92694,45,64,0
290.83783,291.01605,65,64,0
291.01605,291.19427,69,64,0
291.19427,291.3725,74,64,0
291.19427,291.4616,57,64,0
291.3725,291.55072,69,64,0
291.55072,291.72894,65,64,0
291.72894,291.90717,69,64,0
291.72894,291.99628,45,64,0
291.90717,292.0854,64,64,0
292.0854,292.2636,69,64,0
292.2636,292.44183,72,64,0
292.2636,292.53094,57,64,0
292.44183,292.62006,69,64,0
292.62006,292.79828,64,64,0
292.79828,292.9765,69,64,0
292.79828,293.0656,45,64,0
292.9765,293.15472,64,64,0
293.15472,293.33295,69,64,0
293.33295,293.51117,72,64,0
293.33295,293.60028,57,64,0
293.51117,293.6894,69,64,0
293.6894,293.8676,64,64,0
293.8676,294.04584,69,64,0
293.8676,294.13495,45,64,0
294.04584,294.22406,64,64,0
294.22406,294.40228,69,64,0
294.40228,294.5805,72,64,0
294.40228,294.66962,57,64,0
294.5805,294.75873,69,64,0
294.75873,294.93695,64,64,0
294.93695,295.11517,68,64,0
294.93695,295.20428,40,64,0
295.11517,295.2934,62,64,0
295.2934,295.47165,68,64,0
295.47165,295.64987,71,64,0
295.47165,295.73898,52,64,0
295.64987,295.8281,68,64,0
295.8281,296.00632,62,64,0
296.00632,296.18454,68,64,0
296.00632,296.27365,40,64,0
296.18454,296.36276,62,64,0
296.36276,296.541,68,64,0
296.541,296.7192,71,64,0
296.541,296.80832,52,64,0
296.7192,296.89743,68,64,0
296.89743,297.07565,62,64,0
297.07565,297.25388,68,64,0
297.07565,297.343,40,64,0
297.25388,297.4321,62,64,0
297.4321,297.61032,68,64,0
297.61032,297.78854,71,64,0
297.61032,297.87766,52,64,0
297.78854,297.96677,68,64,0
297.96677,298.145,62,64,0
298.145,298.3232,69,64,0
298.145,298.41232,45,64,0
298.3232,298.50143,60,64,0
298.50143,298.67966,69,64,0
298.67966,298.85788,72,64,0
298.67966,298.947,57,64,0
298.85788,299.0361,69,64,0
299.0361,299.21432,60,64,0
299.21432,299.39255,69,64,0
299.21432,299.48166,45,64,0
299.39255,299.57077,64,64,0
299.57077,299.749,69,64,0
299.749,299.92722,72,63,0
299.749,300.01633,57,63,0
299.92722,300.10544,69,63,0
300.10544,300.28366,64,63,0
300.28366,300.46188,69,63,0
300.28366,300.551,45,63,0
300.46188,300.6401,64,63,0
300.6401,300.81833,69,62,0
300.81833,300.99655,72,62,0
300.81833,301.08566,57,62,0
300.99655,301.17477,69,62,0
301.17477,301.353,64,62,0
301.353,301.53122,70,62,0
301.353,301.62033,43,62,0
301.53122,301.70944,64,61,0
301.70944,301.88766,70,61,0
301.88766,302.0659,72,61,0
301.88766,302.155,55,61,0
302.0659,302.2441,70,61,0
302.2441,302.42233,64,61,0
302.42233,302.60056,70,60,0
302.42233,302.68967,43,60,0
302.60056,302.77878,64,60,0
302.77878,302.957,70,60,0
302.957,303.13522,72,60,0
302.957,303.22433,55,60,0
303.13522,303.31345,70,60,0
303.31345,303.4917,64,59,0
303.4917,303.66992,70,59,0
303.4917,303.75903,43,59,0
303.66992,303.84814,64,59,0
303.84814,304.02637,70,59,0
304.02637,304.2046,72,58,0
304.02637,304.2937,55,58,0
304.2046,304.3828,70,58,0
304.3828,304.56104,64,58,0
304.56104,304.73926,69,58,0
304.56104,304.82837,41,58,0
304.73926,304.91748,65,58,0
304.91748,305.0957,69,57,0
305.0957,305.27393,72,57,0
305.0957,305.36304,53,57,0
305.27393,305.45215,69,57,0
305.45215,305.63037,65,57,0
305.63037,305.8086,69,57,0
305.63037,305.8977,41,57,0
305.8086,305.98682,65,56,0
305.98682,306.16504,69,56,0
306.16504,306.34326,72,56,0
306.16504,306.43237,53,56,0
306.34326,306.52148,69,56,0
306.52148,306.6997,65,56,0
306.6997,306.87793,68,55,0
306.6997,306.96704,35,55,0
306.87793,307.05615,65,55,0
307.05615,307.23438,68,55,0
307.23438,307.4126,74,55,0
307.23438,307.5017,47,55,0
307.4126,307.59082,68,55,0
307.59082,307.76904,65,54,0
307.76904,307.94727,69,54,0
307.76904,308.03638,36,54,0
307.94727,308.1255,65,54,0
308.1255,308.3037,69,54,0
308.3037,308.48193,72,54,0
308.3037,308.57104,48,54,0
308.48193,308.66016,69,54,0
308.66016,308.83838,65,54,0
308.83838,309.0166,64,54,0
308.83838,309.1057,36,54,0
309.0166,309.19482,58,54,0
309.19482,309.37305,64,54,0
309.37305,309.55127,67,54,0
309.37305,309.64038,48,54,0
309.55127,309.7295,64,54,0
309.7295,309.9077,58,54,0
309.9077,310.08594,64,54,0
309.9077,310.17505,36,54,0
310.08594,310.26416,58,54,0
310.26416,310.44238,64,54,0
310.44238,310.6206,67,54,0
310.44238,310.70972,48,54,0
310.6206,310.79883,64,54,0
310.79883,310.97705,58,54,0
310.97705,311.37805,57,100,0
310.97705,311.37805,41,100,0
311.37805,311.51175,72,64,0
311.37805,311.51175,60,64,0
311.51175,312.44742,77,64,0
311.51175,312.44742,65,64,0
312.44742,312.5811,72,64,0
312.44742,312.5811,60,64,0
312.5811,313.51675,81,64,0
312.5811,313.51675,69,64,0
313.51675,313.65042,72,64,0
313.51675,313.65042,60,64,0
313.65042,314.1851,89,64,0
313.65042,314.1851,77,64,0
314.1851,314.45242,76,64,0
314.1851,314.45242,88,64,0
314.71976,315.43265,82,74,0
314.71976,315.43265,94,74,0
315.43265,315.52176,84,64,0
315.43265,315.52176,96,64,0
315.61087,315.69998,82,64,0
315.61087,315.69998,94,64,0
315.7891,315.8782,81,64,0
315.7891,315.8782,93,64,0
315.96732,316.05643,79,64,0
315.96732,316.05643,91,64,0
316.14554,316.23465,77,64,0
316.14554,316.23465,89,64,0
316.32376,316.41287,76,64,0
316.32376,316.41287,88,64,0
316.50198,316.5911,74,64,0
316.50198,316.5911,86,64,0
316.6802,316.76932,72,64,0
316.6802,316.76932,84,64,0
316.85843,316.94754,70,64,0
316.85843,316.94754,82,64,0
317.03665,317.12576,69,64,0
317.03665,317.12576,81,64,0
317.21487,317.304,67,64,0
317.21487,317.304,79,64,0
317.3931,317.7941,77,64,0
317.3931,317.7941,65,64,0
317.7941,317.92776,72,64,0
317.7941,317.92776,60,64,0
317.92776,318.86343,77,64,0
317.92776,318.86343,65,64,0
318.86343,318.9971,72,64,0
318.86343,318.9971,60,64,0
318.9971,319.9328,81,64,0
318.9971,319.9328,69,64,0
319.9328,320.06647,72,64,0
319.9328,320.06647,60,64,0
320.06647,320.60114,89,64,0
320.06647,320.60114,77,64,0
320.60114,320.86847,76,64,0
320.60114,320.86847,88,64,0
321.1358,321.8487,82,74,0
321.1358,321.8487,94,74,0
321.8487,321.9378,84,64,0
321.8487,321.9378,96,64,0
322.02692,322.11603,82,64,0
322.02692,322.11603,94,64,0
322.20514,322.29425,81,64,0
322.20514,322.29425,93,64,0
322.38336,322.47247,79,64,0
322.38336,322.47247,91,64,0
322.56158,322.6507,77,64,0
322.56158,322.6507,89,64,0
322.7398,322.82892,76,64,0
322.7398,322.82892,88,64,0
322.91803,323.00714,74,64,0
322.91803,323.00714,86,64,0
323.09625,323.18536,72,64,0
323.09625,323.18536,84,64,0
323.27448,323.3636,70,64,0
323.27448,323.3636,82,64,0
323.4527,323.5418,69,64,0
323.4527,323.5418,81,64,0
323.63092,323.72003,67,64,0
323.63092,323.72003,79,64,0
323.80914,324.21014,77,64,0
323.80914,324.21014,65,64,0
324.21014,324.3438,69,64,0
324.21014,324.3438,57,64,0
324.3438,325.27948,77,64,0
324.3438,325.27948,65,64,0
325.27948,325.41315,74,64,0
325.27948,325.41315,62,64,0
325.41315,326.34882,81,64,0
325.41315,326.34882,69,64,0
326.34882,326.48248,77,64,0
326.34882,326.48248,65,64,0
326.48248,327.01715,86,64,0
326.48248,327.01715,74,64,0
327.01715,327.2845,73,64,0
327.01715,327.2845,85,64,0
327.55185,328.26474,79,74,0
327.55185,328.26474,91,74,0
328.26474,328.35385,81,64,0
328.26474,328.35385,93,64,0
328.44296,328.53207,79,64,0
328.44296,328.53207,91,64,0
328.6212,328.7103,77,64,0
328.6212,328.7103,89,64,0
328.7994,328.88852,76,64,0
328.7994,328.88852,88,64,0
328.97763,329.06674,74,64,0
328.97763,329.06674,86,64,0
329.15585,329.24496,73,64,0
329.15585,329.24496,85,64,0
329.33408,329.4232,70,64,0
329.33408,329.4232,82,64,0
329.5123,329.6014,69,64,0
329.5123,329.6014,81,64,0
329.69052,329.77963,67,64,0
329.69052,329.77963,79,64,0
329.86874,329.95786,65,64,0
329.86874,329.95786,77,64,0
330.04697,330.13608,64,64,0
330.04697,330.13608,76,64,0
330.2252,330.6262,77,64,0
330.2252,330.6262,65,64,0
330.6262,330.75986,69,64,0
330.6262,330.75986,57,64,0
330.75986,331.69553,77,64,0
330.75986,331.69553,65,64,0
331.69553,331.8292,74,64,0
331.69553,331.8292,62,64,0
331.8292,332.76486,81,64,0
331.8292,332.76486,69,64,0
332.76486,332.89853,77,64,0
332.76486,332.89853,65,64,0
332.89853,333.4332,86,64,0
332.89853,333.4332,74,64,0
333.4332,333.70053,75,54,0
333.4332,333.70053,87,54,0
333.96786,334.68076,75,54,0
333.96786,334.68076,87,54,0
334.68076,334.76987,77,54,0
334.68076,334.76987,89,54,0
334.85898,334.9481,79,54,0
334.85898,334.9481,91,54,0
335.0372,335.1263,77,54,0
335.0372,335.1263,89,54,0
335.21542,335.30453,75,54,0
335.21542,335.30453,87,54,0
335.39365,335.48276,74,54,0
335.39365,335.48276,86,54,0
335.5719,335.661,72,54,0
335.5719,335.661,84,54,0
335.75012,335.83923,70,54,0
335.75012,335.83923,82,54,0
335.92834,336.01746,69,54,0
335.92834,336.01746,81,54,0
336.10657,336.19568,67,54,0
336.10657,336.19568,79,54,0
336.2848,336.3739,65,54,0
336.2848,336.3739,77,54,0
336.463,336.55212,63,54,0
336.463,336.55212,75,54,0
336.64124,336.90857,74,64,0
336.64124,336.90857,62,64,0
337.1759,337.8888,82,74,0
337.1759,337.8888,94,74,0
337.8888,337.9779,84,64,0
337.8888,337.9779,96,64,0
338.06702,338.15613,86,64,0
338.06702,338.15613,98,64,0
338.24524,338.33435,84,64,0
338.24524,338.33435,96,64,0
338.42346,338.51257,82,64,0
338.42346,338.51257,94,64,0
338.60168,338.6908,81,64,0
338.60168,338.6908,93,64,0
338.7799,338.86902,79,64,0
338.7799,338.86902,91,64,0
338.95813,339.04724,77,64,0
338.95813,339.04724,89,64,0
339.13635,339.22546,76,64,0
339.13635,339.22546,88,64,0
339.31458,339.4037,74,64,0
339.31458,339.4037,86,64,0
339.4928,339.5819,72,64,0
339.4928,339.5819,84,64,0
339.67102,339.76013,70,64,0
339.67102,339.76013,82,64,0
339.84924,340.3839,81,64,0
339.84924,340.3839,69,64,0
340.3839,340.91858,79,60,0
340.3839,340.91858,67,60,0
341.31958,341.45325,48,54,0
341.31958,341.45325,36,54,0
341.45325,342.38892,60,64,0
341.45325,342.38892,48,64,0
342.38892,342.52258,48,54,0
342.38892,342.52258,36,54,0
342.52258,343.05725,60,64,0
342.52258,343.05725,48,64,0
343.05725,343.3246,37,54,0
343.05725,343.3246,49,54,0
343.59195,344.30484,82,64,0
343.59195,344.30484,94,64,0
344.30484,344.39395,84,54,0
344.30484,344.39395,96,54,0
344.48306,344.57217,85,54,0
344.48306,344.57217,97,54,0
344.6613,344.7504,84,54,0
344.6613,344.7504,96,54,0
344.8395,344.92862,82,54,0
344.8395,344.92862,94,54,0
345.01773,345.10684,80,54,0
345.01773,345.10684,92,54,0
345.19595,345.28506,79,54,0
345.19595,345.28506,91,54,0
345.37418,345.4633,77,54,0
345.37418,345.4633,89,54,0
345.5524,345.6415,76,54,0
345.5524,345.6415,88,54,0
345.73062,345.81973,73,54,0
345.73062,345.81973,85,54,0
345.90884,345.99796,72,54,0
345.90884,345.99796,84,54,0
346.08707,346.17618,70,54,0
346.08707,346.17618,82,54,0
346.2653,346.79996,80,64,0
346.2653,346.79996,68,64,0
346.79996,347.33463,79,60,0
346.79996,347.33463,67,60,0
347.73563,347.8693,48,54,0
347.73563,347.8693,36,54,0
347.8693,348.80496,60,63,0
347.8693,348.80496,48,63,0
348.80496,348.93863,48,54,0
348.80496,348.93863,36,54,0
348.93863,349.4733,60,64,0
348.93863,349.4733,48,64,0
349.4733,349.74063,37,54,0
349.4733,349.74063,49,54,0
350.00797,350.72086,82,64,0
350.00797,350.72086,94,64,0
350.72086,350.80997,84,54,0
350.72086,350.80997,96,54,0
350.89908,350.9882,85,54,0
350.89908,350.9882,97,54,0
351.0773,351.1664,84,54,0
351.0773,351.1664,96,54,0
351.25552,351.34464,82,54,0
351.25552,351.34464,94,54,0
351.43375,351.52286,80,54,0
351.43375,351.52286,92,54,0
351.61197,351.7011,79,54,0
351.61197,351.7011,91,54,0
351.79022,351.87933,77,54,0
351.79022,351.87933,89,54,0
351.96844,352.05756,76,54,0
351.96844,352.05756,88,54,0
352.14667,352.23578,73,54,0
352.14667,352.23578,85,54,0
352.3249,352.414,72,54,0
352.3249,352.414,84,54,0
352.5031,352.59222,70,54,0
352.5031,352.59222,82,54,0
352.68134,353.216,68,64,0
352.68134,353.216,80,64,0
353.216,353.75067,79,60,0
353.216,353.75067,67,60,0
354.15167,354.28534,48,54,0
354.15167,354.28534,36,54,0
354.28534,355.221,60,54,0
354.28534,355.221,48,54,0
355.221,355.35468,48,54,0
355.221,355.35468,36,54,0
355.35468,355.88934,60,54,0
355.35468,355.88934,48,54,0
355.88934,356.15668,36,54,0
355.88934,356.15668,48,54,0
356.95868,357.49335,65,64,0
356.95868,357.49335,77,64,0
357.49335,358.028,64,54,0
357.49335,358.028,76,54,0
359.09735,359.63202,65,54,0
359.09735,359.63202,77,54,0
359.63202,360.16672,64,50,0
359.63202,360.16672,76,50,0
361.23605,361.77072,65,54,0
361.23605,361.77072,77,54,0
361.77072,362.3054,64,49,0
361.77072,362.3054,76,49,0
362.3054,362.84006,65,54,0
362.3054,362.84006,77,54,0
362.84006,363.1074,64,48,0
362.84006,363.1074,76,48,0
363.37473,363.9094,64,54,0
363.37473,363.9094,76,54,0
363.9094,364.17673,62,53,0
363.9094,364.17673,74,53,0
364.44406,364.97873,62,52,0
364.44406,364.97873,74,52,0
364.97873,365.24606,60,51,0
364.97873,365.24606,72,51,0
365.5134,366.04807,72,50,0
366.04807,366.3154,70,49,0
366.58273,367.1174,70,48,0
367.1174,367.38474,69,47,0
367.65207,368.18677,69,46,0
368.18677,368.4541,67,45,0
368.72144,369.12244,65,44,0
369.12244,369.2561,60,44,0
369.12244,369.2561,72,44,0
369.2561,370.19177,65,44,0
369.2561,370.19177,77,44,0
370.19177,370.32544,60,44,0
370.19177,370.32544,72,44,0
370.32544,371.2611,69,44,0
370.32544,371.2611,81,44,0
371.2611,371.39478,65,44,0
371.2611,371.39478,77,44,0
371.39478,371.79578,71,44,0
371.39478,371.79578,83,44,0
371.79578,371.92944,74,44,0
371.79578,371.92944,86,44,0
371.92944,372.33044,72,44,0
371.92944,372.33044,84,44,0
372.33044,372.4641,67,44,0
372.33044,372.4641,79,44,0
372.4641,373.39978,70,44,0
372.4641,373.39978,82,44,0
373.39978,373.53345,64,44,0
373.39978,373.53345,76,44,0
373.53345,374.46912,67,44,0
373.53345,374.46912,79,44,0
374.46912,374.60278,55,44,0
374.46912,374.60278,67,44,0
374.60278,375.00378,61,44,0
374.60278,375.00378,73,44,0
375.00378,375.13745,60,44,0
375.00378,375.13745,72,44,0
375.13745,375.53845,53,44,0
375.13745,375.53845,65,44,0
375.53845,375.67212,60,44,0
375.53845,375.67212,72,44,0
375.67212,376.60782,65,44,0
375.67212,376.60782,77,44,0
376.60782,376.7415,60,44,0
376.60782,376.7415,72,44,0
376.7415,377.67715,69,44,0
376.7415,377.67715,81,44,0
377.67715,377.81082,65,44,0
377.67715,377.81082,77,44,0
377.81082,378.21182,71,44,0
377.81082,378.21182,83,44,0
378.21182,378.3455,74,44,0
378.21182,378.3455,86,44,0
378.3455,378.7465,72,44,0
378.3455,378.7465,84,44,0
378.7465,378.88016,67,44,0
378.7465,378.88016,79,44,0
378.88016,379.81583,70,44,0
378.88016,379.81583,82,44,0
379.81583,379.9495,64,44,0
379.81583,379.9495,76,44,0
379.9495,380.88516,67,44,0
379.9495,380.88516,79,44,0
380.88516,381.01883,55,44,0
380.88516,381.01883,67,44,0
381.01883,381.41983,61,44,0
381.01883,381.41983,73,44,0
381.41983,381.5535,60,44,0
381.41983,381.5535,72,44,0
381.5535,381.9545,53,54,0
381.5535,381.9545,65,54,0
381.9545,382.08817,48,54,0
381.9545,382.08817,60,54,0
382.08817,383.02383,53,54,0
382.08817,383.02383,65,54,0
383.02383,383.1575,48,54,0
383.02383,383.1575,60,54,0
383.1575,384.0932,57,54,0
383.1575,384.0932,69,54,0
384.0932,384.22687,52,54,0
384.0932,384.22687,64,54,0
384.22687,384.76154,55,54,0
384.22687,384.76154,67,54,0
384.76154,385.16254,53,54,0
384.76154,385.16254,65,54,0
385.16254,385.2962,48,54,0
385.16254,385.2962,60,54,0
385.2962,386.23187,53,54,0
385.2962,386.23187,65,54,0
386.23187,386.36554,48,54,0
386.23187,386.36554,60,54,0
386.36554,387.3012,57,54,0
386.36554,387.3012,69,54,0
387.3012,387.43488,52,54,0
387.3012,387.43488,64,54,0
387.43488,387.96954,55,54,0
387.43488,387.96954,67,54,0
387.96954,388.3736,53,54,0
387.96954,388.3736,65,54,0
388.3736,388.51007,48,54,0
388.3736,388.51007,60,54,0
388.51007,389.49295,53,54,0
388.51007,389.49295,65,54,0
389.49295,389.63736,48,54,0
389.49295,389.63736,60,54,0
389.63736,390.6792,53,54,0
389.63736,390.6792,65,54,0
390.6792,390.83252,48,54,0
390.6792,390.83252,60,54,0
390.83252,391.94086,53,54,0
390.83252,391.94086,65,54,0
391.94086,392.10425,48,54,0
391.94086,392.10425,60,54,0
392.10425,396.0825,53,54,0
392.10425,396.0825,65,54,0
