start_time,end_time,note_value,velocity,instrument_program_number
1.9762558,2.024862,81,100,40
2.0734682,2.1220744,85,100,40
2.1706808,2.219287,86,100,40
2.2678933,2.4623182,88,100,40
2.5595307,2.608137,81,100,40
2.6567433,2.7053494,83,100,40
2.7539558,2.802562,85,100,40
2.8511682,3.0455933,86,100,40
3.1428058,3.191412,78,100,40
3.2400181,3.2886245,80,100,40
3.3372307,3.385837,81,100,40
3.4344432,3.5316558,83,100,40
3.6288683,3.7260807,83,100,40
3.8232932,3.9205058,83,100,40
4.0177183,4.2121434,85,100,40
5.184268,5.281481,88,64,40
5.378693,5.475906,88,64,40
5.573118,5.6703305,88,64,40
6.934093,7.031306,85,100,40
7.128518,7.225731,85,100,40
7.322943,7.4201555,83,100,40
7.5173683,7.6145806,81,127,40
7.7117934,7.8090057,81,100,40
7.906218,8.00343,80,100,40
8.100643,8.197856,78,127,40
8.295068,8.392281,78,100,40
8.489493,8.586706,83,100,40
8.683918,8.781131,76,100,40
9.267193,9.364406,78,100,40
9.461618,9.55883,78,64,40
9.656043,9.753256,83,64,40
9.850469,9.94768,80,64,40
10.4337435,10.530955,78,100,40
10.628168,10.725381,78,64,40
10.822594,10.919806,83,64,40
11.017018,11.114231,80,64,40
11.600293,11.697506,80,100,40
11.794718,11.891931,80,64,40
11.989143,12.086356,83,64,40
12.183568,12.280781,88,64,40
12.475205,12.523812,83,110,40
12.572418,12.621024,85,110,40
12.669631,12.718237,86,110,40
12.766843,12.961268,88,110,40
13.05848,13.107087,81,110,40
13.155693,13.2043,83,110,40
13.252906,13.301512,85,110,40
13.350119,13.544543,86,110,40
13.641756,13.690362,78,110,40
13.738968,13.787575,80,110,40
13.836181,13.884787,81,110,40
13.9333935,14.127818,83,110,40
14.127818,14.322244,83,110,40
14.322244,14.516668,83,110,40
14.516668,14.711093,85,110,40
15.683218,15.780431,88,100,40
15.877644,15.974855,88,64,40
16.07207,16.169281,88,64,40
17.433043,17.530256,74,100,40
17.627468,17.72468,74,64,40
17.821894,17.919106,74,64,40
18.016317,18.113531,79,64,40
18.599594,18.696806,74,100,40
18.794018,18.891232,74,64,40
18.988443,19.085655,74,64,40
19.182869,19.28008,79,64,40
19.766144,19.960567,88,100,40
19.960567,20.154993,88,100,40
20.154993,20.349419,86,100,40
20.349419,20.543842,84,127,40
20.543842,20.738268,84,100,40
20.738268,20.932693,82,100,40
20.932693,21.12712,81,127,40
21.12712,21.321543,81,100,40
21.321543,21.515968,79,100,40
21.515968,21.710394,77,127,40
21.710394,21.904818,77,100,40
21.904818,22.099243,76,100,40
22.099243,22.196455,74,127,40
22.293669,22.39088,74,100,40
22.488092,22.585306,79,100,40
22.682518,22.77973,72,100,40
23.265793,23.363007,74,127,40
23.460218,23.55743,74,100,40
23.654644,23.751856,79,100,40
23.849068,23.946281,76,100,40
24.432343,24.529556,74,127,40
24.626768,24.72398,74,100,40
24.821194,24.918406,79,100,40
25.015617,25.112831,72,100,40
25.598894,25.696106,76,100,40
25.793318,25.890532,76,100,40
25.987743,26.084955,79,100,40
26.182169,26.27938,84,100,40
27.13951,27.188116,78,64,40
27.236721,27.285328,79,76,40
27.333935,27.38254,81,88,40
27.431147,27.819996,82,110,40
27.819996,28.014421,81,64,40
28.014421,28.403273,79,74,40
28.403273,28.597696,77,64,40
28.597696,28.69491,76,64,40
28.792122,28.889334,76,64,40
28.986547,29.08376,77,64,40
29.180971,29.278185,79,64,40
29.375397,29.472609,67,100,40
29.569822,29.667034,68,110,40
29.764246,29.86146,67,100,40
29.958672,30.055883,67,100,40
30.153097,30.250309,68,110,40
30.34752,30.444735,67,100,40
30.541946,30.63916,67,100,40
30.736372,30.833584,68,110,40
30.930798,31.125221,67,100,40
31.80571,31.854315,80,64,40
31.902922,31.951529,81,76,40
32.000134,32.04874,82,88,40
32.097347,32.4862,84,110,40
32.4862,32.680622,82,64,40
32.680622,33.069473,81,74,40
33.069473,33.263897,79,64,40
33.263897,33.36111,78,64,40
33.45832,33.555534,78,64,40
33.65275,33.749958,79,64,40
33.84717,33.944386,81,64,40
34.041595,34.13881,69,100,40
34.236023,34.333233,70,110,40
34.430447,34.52766,69,100,40
34.62487,34.722084,69,100,40
34.819298,34.916508,70,110,40
35.01372,35.110935,69,100,40
35.208145,35.30536,69,100,40
35.402573,35.499783,70,110,40
35.596996,35.79142,69,100,40
36.18027,36.763546,83,64,40
36.763546,37.34682,86,64,40
37.34682,37.930096,83,64,40
37.930096,38.51337,88,64,40
38.51337,38.610584,85,64,40
38.707798,38.805008,85,64,40
38.90222,38.999435,86,74,40
39.096645,39.19386,85,64,40
39.291073,39.388283,85,64,40
39.485497,39.58271,86,74,40
39.67992,39.777134,85,64,40
39.874348,39.971558,85,64,40
40.06877,40.165985,86,74,40
40.263195,40.457623,85,64,40
40.84647,41.42975,81,64,40
41.42975,42.013023,84,64,40
42.013023,42.5963,81,64,40
42.5963,43.179573,86,64,40
43.179573,43.276783,83,64,40
43.373997,43.47121,83,64,40
43.56842,43.665634,84,74,40
43.762848,43.860058,83,64,40
43.95727,44.054485,83,64,40
44.151695,44.24891,84,74,40
44.346123,44.443333,83,64,40
44.540546,44.63776,83,64,40
44.73497,44.832184,84,74,40
44.929398,45.12382,83,64,40
45.512672,45.707096,83,54,40
45.707096,45.901524,83,54,40
45.901524,46.095947,83,54,40
46.095947,46.29037,85,54,40
46.679222,46.873646,78,54,40
46.873646,47.068073,78,54,40
47.068073,47.262497,78,54,40
47.262497,47.45692,80,54,40
48.80751,48.856117,81,100,40
48.904724,48.95333,85,100,40
49.001934,49.05054,86,100,40
49.099148,49.293575,88,100,40
49.390785,49.439392,81,100,40
49.488,49.536606,83,100,40
49.585213,49.633816,85,100,40
49.682423,49.87685,86,100,40
49.97406,50.022667,78,100,40
50.071274,50.11988,80,100,40
50.168488,50.21709,81,100,40
50.265697,50.460125,83,100,40
50.460125,50.65455,83,100,40
50.65455,50.848972,83,100,40
50.848972,51.0434,85,100,40
52.015522,52.112736,88,100,40
52.20995,52.30716,88,64,40
52.404373,52.501587,88,64,40
53.765347,53.86256,71,100,40
53.959774,54.056988,71,64,40
54.154198,54.25141,71,64,40
54.348625,54.445835,76,64,40
54.9319,55.02911,71,100,40
55.126324,55.223537,71,64,40
55.320747,55.41796,71,64,40
55.515175,55.612385,76,64,40
56.09845,56.292873,85,110,40
56.292873,56.487297,85,110,40
56.487297,56.681725,83,110,40
56.681725,56.87615,81,127,40
56.87615,57.07057,81,110,40
57.07057,57.265,79,110,40
57.265,57.459423,78,127,40
57.459423,57.653847,78,110,40
57.653847,57.848274,76,110,40
57.848274,58.042698,74,127,40
58.042698,58.23712,74,110,40
58.23712,58.43155,73,110,40
58.43155,58.625973,71,127,40
58.625973,58.8204,71,110,40
58.8204,59.014824,76,110,40
59.014824,59.209248,69,110,40
59.5981,59.695312,71,100,40
59.792522,59.889736,71,64,40
59.98695,60.08416,76,64,40
60.181374,60.375797,73,64,40
60.76465,60.861862,71,100,40
60.959072,61.056286,71,64,40
61.1535,61.25071,76,64,40
61.347923,61.542347,69,64,40
61.9312,62.02841,73,110,40
62.12562,62.222836,73,110,40
62.32005,62.41726,76,110,40
62.514473,62.708897,81,110,40
63.389385,63.437992,78,64,40
63.4866,63.535206,79,76,40
63.583813,63.632416,81,88,40
63.681023,64.06987,82,110,40
64.06987,64.2643,81,64,40
64.2643,64.653145,79,74,40
64.653145,64.84757,77,64,40
64.84757,64.944786,76,64,40
65.042,65.13921,76,64,40
65.23642,65.33363,77,64,40
65.43085,65.52806,79,64,40
65.625275,65.72249,67,100,40
65.8197,65.91691,68,110,40
66.01412,66.111336,67,100,40
66.20855,66.30576,67,100,40
66.40298,66.50018,68,110,40
66.5974,66.69461,67,100,40
66.791824,66.88904,67,100,40
66.98625,67.08346,68,110,40
67.18067,67.3751,67,100,40
68.05559,68.104195,80,64,40
68.1528,68.20141,81,76,40
68.25001,68.298615,82,88,40
68.34722,68.73608,84,110,40
68.73608,68.9305,82,64,40
68.9305,69.31935,81,74,40
69.31935,69.51377,79,64,40
69.51377,69.610985,78,64,40
69.7082,69.80541,78,64,40
69.902626,69.99983,79,64,40
70.097046,70.19426,81,64,40
70.29147,70.38869,69,100,40
70.4859,70.583115,70,110,40
70.68032,70.777534,69,100,40
70.87475,70.97196,69,100,40
71.069176,71.16639,70,110,40
71.263596,71.36081,69,100,40
71.45802,71.55524,69,100,40
71.65245,71.749664,70,110,40
71.84687,72.0413,69,100,40
72.430145,73.01342,83,64,40
73.01342,73.596695,86,64,40
73.596695,74.17997,83,64,40
74.17997,74.763245,88,64,40
74.763245,74.86046,85,64,40
74.95767,75.054886,85,64,40
75.1521,75.24931,86,74,40
75.34653,75.44373,85,64,40
75.54095,75.63816,85,64,40
75.735374,75.83259,86,74,40
75.9298,76.02701,85,64,40
76.12422,76.221436,85,64,40
76.31865,76.41586,86,74,40
76.51308,76.7075,85,64,40
77.09635,77.67963,81,64,40
77.67963,78.2629,84,64,40
78.2629,78.846176,81,64,40
78.846176,79.42945,86,64,40
79.42945,79.52666,83,64,40
79.62387,79.721085,83,64,40
79.8183,79.91551,84,74,40
80.012726,80.10994,83,64,40
80.207146,80.30436,83,64,40
80.40157,80.49879,84,74,40
80.596,80.693214,83,64,40
80.79042,80.887634,83,64,40
80.98485,81.08206,84,74,40
81.179276,81.373695,83,64,40
81.76255,81.95697,83,54,40
81.95697,82.1514,83,54,40
82.1514,82.345825,83,54,40
82.345825,82.540245,85,54,40
82.9291,83.12352,78,54,40
83.12352,83.31795,78,54,40
83.31795,83.512375,78,54,40
83.512375,83.706795,80,54,40
85.052986,85.10159,81,100,40
85.1502,85.19881,85,100,40
85.24741,85.29602,86,100,40
85.34463,85.539055,88,100,40
85.63626,85.68487,81,100,40
85.733475,85.78208,83,100,40
85.83069,85.879295,85,100,40
85.9279,86.12233,86,100,40
86.219536,86.26814,78,100,40
86.31675,86.36536,80,100,40
86.41396,86.46257,81,100,40
86.51118,86.705605,83,100,40
86.705605,86.900024,83,100,40
86.900024,87.09445,83,100,40
87.09445,87.28888,85,100,40
88.261,88.358215,88,100,40
88.45543,88.55264,88,64,40
88.64985,88.74706,88,64,40
90.010826,90.10804,71,100,40
90.20525,90.30247,71,64,40
90.39967,90.49689,71,64,40
90.5941,90.691315,76,64,40
91.177376,91.27459,71,100,40
91.3718,91.46902,71,64,40
91.56622,91.66344,71,64,40
91.76065,91.857864,76,64,40
92.343925,92.53835,85,110,40
92.53835,92.73278,85,110,40
92.73278,92.9272,83,110,40
92.9272,93.12163,81,127,40
93.12163,93.316055,81,110,40
93.316055,93.510475,79,110,40
93.510475,93.7049,78,127,40
93.7049,93.89933,78,110,40
93.89933,94.09375,76,110,40
94.09375,94.28818,74,127,40
94.28818,94.482605,74,110,40
94.482605,94.677025,73,110,40
94.677025,94.87145,71,127,40
94.87145,95.06588,71,110,40
95.06588,95.2603,76,110,40
95.2603,95.45473,69,110,40
95.843575,95.94079,71,100,40
96.038,96.135216,71,64,40
96.23243,96.329636,76,64,40
96.42685,96.62128,73,64,40
97.010124,97.10734,71,100,40
97.20455,97.301765,71,64,40
97.39898,97.49619,76,64,40
97.5934,97.78783,69,64,40
98.176674,98.27389,73,110,40
98.3711,98.468315,73,110,40
98.56553,98.66274,76,110,40
98.75995,98.95438,81,110,40
100.00177,100.113495,78,64,40
100.22521,100.672104,78,64,40
100.672104,100.895546,76,64,40
100.895546,101.34244,76,64,40
101.34244,101.56588,74,64,40
101.56588,102.012764,74,64,40
102.012764,102.23621,69,64,40
102.23621,102.6831,69,64,40
102.90654,103.57687,73,64,40
103.57687,104.24721,76,64,40
104.24721,104.35893,73,64,40
104.47065,104.582375,74,64,40
104.69409,104.80582,76,64,40
104.91754,105.14098,78,64,40
106.928535,107.37542,71,74,40
107.37542,107.59887,74,64,40
107.59887,107.71059,74,64,40
107.82231,107.93404,76,64,40
108.04575,108.15748,78,64,40
108.24127,108.2692,78,64,40
108.2692,108.38092,76,64,40
108.492645,108.60436,75,64,40
108.71609,108.82781,76,64,40
108.93953,109.38642,81,74,40
109.38642,109.60986,73,64,40
109.60986,110.056755,78,74,40
110.056755,110.2802,76,64,40
110.2802,110.50364,69,64,40
110.72708,110.838806,78,64,40
110.95053,111.397415,78,64,40
111.397415,111.62086,76,64,40
111.62086,112.06775,76,64,40
112.06775,112.29119,74,64,40
112.29119,112.73808,74,64,40
112.73808,112.961525,69,64,40
112.961525,113.40841,69,64,40
113.63186,114.302185,73,64,40
114.302185,114.97252,76,64,40
114.97252,115.08424,73,64,40
115.19596,115.307686,74,64,40
115.41941,115.53113,76,64,40
115.64285,115.866295,78,64,40
117.65385,118.10074,71,74,40
118.10074,118.32418,74,64,40
118.32418,118.4359,74,64,40
118.54762,118.65935,76,64,40
118.771065,118.88279,78,64,40
118.96658,118.994514,78,64,40
118.994514,119.10623,76,64,40
119.21796,119.32967,75,64,40
119.4414,119.55312,76,64,40
119.66484,120.11173,81,74,40
120.11173,120.335175,73,64,40
120.335175,120.78207,78,74,40
120.78207,121.00551,76,64,40
121.00551,121.22895,69,64,40
122.79306,122.904785,81,54,40
123.0165,123.463394,81,54,40
123.463394,123.68684,79,54,40
123.68684,124.13372,79,54,40
124.13372,124.35717,78,54,40
124.35717,124.58061,78,54,40
125.47439,125.58611,74,54,40
125.69783,126.14472,74,54,40
126.14472,126.368164,72,54,40
126.368164,126.81505,72,54,40
126.81505,127.0385,71,54,40
127.0385,127.26194,71,54,40
128.15572,128.26744,79,54,40
128.37917,128.82605,79,54,40
128.82605,129.04948,74,54,40
129.04948,129.49638,74,54,40
129.49638,129.71982,71,54,40
129.71982,130.16672,71,54,40
130.83704,130.94876,79,54,40
131.06049,131.50737,79,54,40
131.50737,131.73082,74,54,40
131.73082,132.1777,74,54,40
132.1777,132.40115,70,54,40
132.40115,132.84804,70,54,40
133.51837,133.6301,70,54,40
133.74182,134.1887,75,54,40
134.1887,134.41214,72,54,40
134.41214,134.85904,73,54,40
134.85904,135.08247,77,54,40
135.08247,135.7528,74,54,40
135.7528,135.97626,77,54,40
135.97626,136.19969,74,54,40
136.19969,136.42314,70,54,40
136.42314,136.87003,75,54,40
136.87003,137.09348,72,54,40
137.09348,137.54036,72,64,40
137.54036,137.76381,77,54,40
137.76381,138.2107,74,110,40
138.2107,138.43414,77,100,40
138.43414,138.88103,77,111,40
138.88103,139.10448,74,100,40
139.10448,139.55136,74,110,40
139.55136,139.77481,77,100,40
139.77481,140.2217,77,111,40
140.2217,140.44513,74,100,40
140.44513,140.89203,74,110,40
140.89203,141.11546,78,100,40
141.11546,141.56236,78,111,40
141.56236,141.7858,74,100,40
141.7858,142.23268,73,110,40
142.23268,142.45613,81,100,40
142.45613,142.90302,81,110,40
144.91498,145.0588,78,64,40
145.19191,145.65495,78,64,40
145.65495,145.8784,76,64,40
145.8784,146.32529,76,64,40
146.32529,146.54874,74,64,40
146.54874,146.99562,74,64,40
146.99562,147.21907,79,64,40
147.21907,147.66595,79,74,40
147.8894,148.00113,78,64,40
148.11284,148.22456,76,64,40
148.33629,148.44801,74,64,40
148.55974,148.67145,73,64,40
148.78317,148.8949,74,64,40
149.00662,149.11835,76,64,40
149.23006,149.34178,74,64,40
149.4535,149.56523,78,64,40
149.67696,149.78868,83,64,40
149.90039,150.01212,81,64,40
152.58173,153.02861,86,74,40
153.02861,153.25206,83,64,40
153.25206,153.30792,81,64,40
153.30792,153.36378,83,64,40
153.36378,153.41963,81,64,40
153.41963,153.4755,83,64,40
153.4755,153.53136,81,64,40
153.53136,153.58722,83,64,40
153.58722,153.64308,81,64,40
153.64308,153.69894,83,64,40
153.69894,153.7548,81,64,40
153.7548,153.81067,83,64,40
153.81067,153.86653,81,64,40
153.86653,153.9224,83,64,40
153.9224,153.97826,81,64,40
153.97826,154.0341,83,64,40
154.0341,154.08997,81,64,40
154.08997,154.14583,83,64,40
154.14583,154.20169,81,64,40
154.20169,154.25755,83,64,40
154.25755,154.31342,81,64,40
154.31342,154.36928,83,64,40
154.36928,154.42514,81,64,40
154.42514,154.481,83,64,40
154.481,154.53687,81,64,40
154.53687,154.59271,83,64,40
154.59271,154.64857,81,64,40
154.64857,154.70444,83,64,40
154.70444,154.7603,81,64,40
154.7603,154.81616,83,64,40
154.81616,154.87202,81,64,40
154.87202,154.92789,83,64,40
154.92789,154.98375,81,64,40
154.98375,155.03961,83,64,40
155.03961,155.09547,81,64,40
155.09547,155.15134,83,64,40
155.15134,155.20718,80,64,40
155.20718,155.26305,81,64,40
155.26305,155.4865,74,64,40
157.0506,157.16232,81,54,40
157.27405,157.72093,81,54,40
157.72093,157.94438,79,54,40
157.94438,158.39127,79,54,40
158.39127,158.61472,78,54,40
158.61472,158.83815,78,54,40
159.73193,159.84366,74,54,40
159.95538,160.40227,74,54,40
160.40227,160.6257,72,54,40
160.6257,161.0726,72,54,40
161.0726,161.29604,71,54,40
161.29604,161.51949,71,54,40
162.41325,162.52498,79,54,40
162.6367,163.08359,79,54,40
163.08359,163.30704,74,54,40
163.30704,163.75392,74,54,40
163.75392,163.97737,71,54,40
163.97737,164.42426,71,54,40
165.09459,165.20631,79,54,40
165.31804,165.76492,79,54,40
165.76492,165.98836,74,54,40
165.98836,166.43526,74,54,40
166.43526,166.65869,70,54,40
166.65869,167.10559,70,54,40
167.77591,167.88763,70,54,40
167.99936,168.44624,75,54,40
168.44624,168.6697,72,54,40
168.6697,169.11658,73,54,40
169.11658,169.34003,77,54,40
169.34003,170.01036,74,54,40
170.01036,170.2338,77,54,40
170.2338,170.45724,74,54,40
170.45724,170.6807,70,54,40
170.6807,171.12758,75,54,40
171.12758,171.35101,72,54,40
171.35101,171.79791,72,64,40
171.79791,172.02135,77,54,40
172.02135,172.46825,74,110,40
172.46825,172.69168,77,100,40
172.69168,173.13857,77,111,40
173.13857,173.36201,74,100,40
173.36201,173.8089,74,110,40
173.8089,174.03235,77,100,40
174.03235,174.47923,77,111,40
174.47923,174.70268,74,100,40
174.70268,175.14957,74,110,40
175.14957,175.37302,78,100,40
175.37302,175.8199,78,111,40
175.8199,176.04335,74,100,40
176.04335,176.49023,73,110,40
176.49023,176.71367,81,100,40
176.71367,177.16057,81,110,40
179.17252,179.31635,78,64,40
179.44945,179.9125,78,64,40
179.9125,180.13594,76,64,40
180.13594,180.58284,76,64,40
180.58284,180.80627,74,64,40
180.80627,181.25317,74,64,40
181.25317,181.47661,79,64,40
181.47661,181.9235,79,74,40
182.14694,182.25867,78,64,40
182.37039,182.48212,76,64,40
182.59383,182.70555,74,64,40
182.81728,182.929,73,64,40
183.04073,183.15244,74,64,40
183.26416,183.37589,76,64,40
183.48761,183.59933,74,64,40
183.71106,183.82277,78,64,40
183.9345,184.04622,83,64,40
184.15794,184.26967,81,64,40
186.83926,187.28616,86,74,40
187.28616,187.5096,83,64,40
187.5096,187.56546,81,64,40
187.56546,187.62132,83,64,40
187.62132,187.67719,81,64,40
187.67719,187.73305,83,64,40
187.73305,187.78891,81,64,40
187.78891,187.84477,83,64,40
187.84477,187.90062,81,64,40
187.90062,187.95648,83,64,40
187.95648,188.01234,81,64,40
188.01234,188.0682,83,64,40
188.0682,188.12407,81,64,40
188.12407,188.17993,83,64,40
188.17993,188.2358,81,64,40
188.2358,188.29166,83,64,40
188.29166,188.34752,81,64,40
188.34752,188.40338,83,64,40
188.40338,188.45924,81,64,40
188.45924,188.51509,83,64,40
188.51509,188.57095,81,64,40
188.57095,188.62682,83,64,40
188.62682,188.68268,81,64,40
188.68268,188.73854,83,64,40
188.73854,188.7944,81,64,40
188.7944,188.85027,83,64,40
188.85027,188.90613,81,64,40
188.90613,188.96199,83,64,40
188.96199,189.01785,81,64,40
189.01785,189.07372,83,64,40
189.07372,189.12956,81,64,40
189.12956,189.18542,83,64,40
189.18542,189.24129,81,64,40
189.24129,189.29715,83,64,40
189.29715,189.35301,81,64,40
189.35301,189.40887,83,64,40
189.40887,189.46474,80,64,40
189.46474,189.5206,81,64,40
189.5206,189.74403,74,64,40
190.27872,190.32732,81,100,40
190.37592,190.42453,85,100,40
190.47313,190.52174,86,100,40
190.57034,190.76477,88,100,40
190.86198,190.9106,81,100,40
190.9592,191.0078,83,100,40
191.05641,191.10501,85,100,40
191.15363,191.34805,86,100,40
191.44527,191.49387,78,100,40
191.54247,191.59108,80,100,40
191.63968,191.6883,81,100,40
191.7369,191.8341,83,100,40
191.93132,192.02853,83,100,40
192.12575,192.22296,83,100,40
192.32018,192.5146,85,100,40
193.48672,193.58394,88,64,40
193.68115,193.77837,88,64,40
193.87558,193.97278,88,64,40
195.23654,195.33376,85,100,40
195.43097,195.52818,85,100,40
195.6254,195.72261,83,100,40
195.81982,195.91704,81,127,40
196.01425,196.11147,81,100,40
196.20868,196.30588,80,100,40
196.40309,196.5003,78,127,40
196.59752,196.69473,78,100,40
196.79195,196.88916,83,100,40
196.98637,197.08359,76,100,40
197.56964,197.66685,78,100,40
197.76407,197.86128,78,64,40
197.9585,198.05571,83,64,40
198.15292,198.25014,80,64,40
198.73619,198.8334,78,100,40
198.93062,199.02783,78,64,40
199.12505,199.22226,83,64,40
199.31947,199.41669,80,64,40
199.90274,199.99995,80,100,40
200.09717,200.19438,80,64,40
200.2916,200.38881,83,64,40
200.48602,200.58324,88,64,40
200.77766,200.82626,83,110,40
200.87488,200.92348,85,110,40
200.97209,201.02069,86,110,40
201.06929,201.26372,88,110,40
201.36093,201.40955,81,110,40
201.45815,201.50676,83,110,40
201.55536,201.60397,85,110,40
201.65257,201.847,86,110,40
201.94421,201.99281,78,110,40
202.04143,202.09003,80,110,40
202.13864,202.18724,81,110,40
202.23586,202.43027,83,110,40
202.43027,202.6247,83,110,40
202.6247,202.81912,83,110,40
202.81912,203.01355,85,110,40
203.98567,204.08289,88,100,40
204.1801,204.27731,88,64,40
204.37453,204.47174,88,64,40
205.7355,205.8327,74,100,40
205.92992,206.02713,74,64,40
206.12434,206.22156,74,64,40
206.31877,206.41599,79,64,40
206.90205,206.99927,74,100,40
207.09647,207.19368,74,64,40
207.2909,207.3881,74,64,40
207.48532,207.58253,79,64,40
208.0686,208.26302,88,100,40
208.26302,208.45744,88,100,40
208.45744,208.65187,86,100,40
208.65187,208.8463,84,127,40
208.8463,209.04073,84,100,40
209.04073,209.23515,82,100,40
209.23515,209.42957,81,127,40
209.42957,209.624,81,100,40
209.624,209.81842,79,100,40
209.81842,210.01285,77,127,40
210.01285,210.20728,77,100,40
210.20728,210.4017,76,100,40
210.4017,210.49892,74,127,40
210.59612,210.69333,74,100,40
210.79054,210.88776,79,100,40
210.98497,211.08218,72,100,40
211.56825,211.66547,74,127,40
211.76268,211.85988,74,100,40
211.95709,212.0543,79,100,40
212.15152,212.24873,76,100,40
212.7348,212.83202,74,127,40
212.92923,213.02643,74,100,40
213.12364,213.22086,79,100,40
213.31807,213.41528,72,100,40
213.90135,213.99857,76,100,40
214.09578,214.19298,76,100,40
214.29019,214.3874,79,100,40
214.48462,214.58183,84,100,40
215.44197,215.49057,78,64,40
215.53917,215.58778,79,76,40
215.63638,215.685,81,88,40
215.7336,216.12245,82,110,40
216.12245,216.31688,81,64,40
216.31688,216.70572,79,74,40
216.70572,216.90015,77,64,40
216.90015,216.99736,76,64,40
217.09457,217.19179,76,64,40
217.289,217.38622,77,64,40
217.48343,217.58064,79,64,40
217.67786,217.77507,67,100,40
217.87227,217.96948,68,110,40
218.0667,218.16391,67,100,40
218.26112,218.35834,67,100,40
218.45555,218.55276,68,110,40
218.64998,218.7472,67,100,40
218.8444,218.94162,67,100,40
219.03882,219.13603,68,110,40
219.23325,219.42767,67,100,40
220.10817,220.15677,80,64,40
220.20538,220.25398,81,76,40
220.30258,220.3512,82,88,40
220.3998,220.78865,84,110,40
220.78865,220.98308,82,64,40
220.98308,221.37193,81,74,40
221.37193,221.56635,79,64,40
221.56635,221.66356,78,64,40
221.76077,221.85799,78,64,40
221.9552,222.05241,79,64,40
222.14963,222.24684,81,64,40
222.34406,222.44127,69,100,40
222.53848,222.63568,70,110,40
222.7329,222.83011,69,100,40
222.92732,223.02454,69,100,40
223.12175,223.21896,70,110,40
223.31618,223.41339,69,100,40
223.5106,223.60782,69,100,40
223.70503,223.80225,70,110,40
223.89944,224.09387,69,100,40
224.48273,225.066,83,64,40
225.066,225.64928,86,64,40
225.64928,226.23254,83,64,40
226.23254,226.81583,88,64,40
226.81583,226.91304,85,64,40
227.01025,227.10747,85,64,40
227.20468,227.3019,86,74,40
227.3991,227.4963,85,64,40
227.59352,227.69073,85,64,40
227.78795,227.88516,86,74,40
227.98238,228.07959,85,64,40
228.1768,228.27402,85,64,40
228.37123,228.46844,86,74,40
228.56566,228.76007,85,64,40
229.14893,229.73221,81,64,40
229.73221,230.31548,84,64,40
230.31548,230.89876,81,64,40
230.89876,231.48203,86,64,40
231.48203,231.57924,83,64,40
231.67645,231.77367,83,64,40
231.87088,231.9681,84,74,40
232.0653,232.1625,83,64,40
232.25972,232.35693,83,64,40
232.45415,232.55136,84,74,40
232.64857,232.74579,83,64,40
232.843,232.94022,83,64,40
233.03743,233.13464,84,74,40
233.23186,233.42627,83,64,40
233.81512,234.00955,83,54,40
234.00955,234.20398,83,54,40
234.20398,234.3984,83,54,40
234.3984,234.59282,85,54,40
234.98167,235.1761,78,54,40
235.1761,235.37053,78,54,40
235.37053,235.56496,78,54,40
235.56496,235.75937,80,54,40
237.10997,237.15857,81,100,40
237.20718,237.25578,85,100,40
237.3044,237.353,86,100,40
237.4016,237.59602,88,100,40
237.69324,237.74185,81,100,40
237.79045,237.83907,83,100,40
237.88766,237.93626,85,100,40
237.98488,238.1793,86,100,40
238.27652,238.32512,78,100,40
238.37373,238.42233,80,100,40
238.47095,238.51955,81,100,40
238.56815,238.76257,83,100,40
238.76257,238.957,83,100,40
238.957,239.15143,83,100,40
239.15143,239.34586,85,100,40
240.31798,240.41519,88,100,40
240.5124,240.60962,88,64,40
240.70683,240.80405,88,64,40
242.06781,242.16501,71,100,40
242.26222,242.35944,71,64,40
242.45665,242.55386,71,64,40
242.65108,242.74829,76,64,40
243.23436,243.33156,71,100,40
243.42877,243.52599,71,64,40
243.6232,243.72041,71,64,40
243.81763,243.91484,76,64,40
244.40091,244.59532,85,110,40
244.59532,244.78975,85,110,40
244.78975,244.98418,83,110,40
244.98418,245.1786,81,127,40
245.1786,245.37303,81,110,40
245.37303,245.56746,79,110,40
245.56746,245.76187,78,127,40
245.76187,245.9563,78,110,40
245.9563,246.15073,76,110,40
246.15073,246.34515,74,127,40
246.34515,246.53958,74,110,40
246.53958,246.73401,73,110,40
246.73401,246.92842,71,127,40
246.92842,247.12285,71,110,40
247.12285,247.31728,76,110,40
247.31728,247.5117,69,110,40
247.90056,247.99777,71,100,40
248.09497,248.19218,71,64,40
248.2894,248.38661,76,64,40
248.48383,248.67825,73,64,40
249.06711,249.16432,71,100,40
249.26152,249.35873,71,64,40
249.45595,249.55316,76,64,40
249.65038,249.8448,69,64,40
250.23366,250.33333,73,110,40
250.43967,250.5536,73,110,40
250.67633,250.8093,76,110,40
250.9545,251.26639,81,110,40
1.9762558,2.024862,69,100,41
2.0734682,2.1220744,73,100,41
2.1706808,2.219287,74,100,41
2.2678933,2.4623182,76,100,41
2.5595307,2.608137,69,100,41
2.6567433,2.7053494,71,100,41
2.7539558,2.802562,73,100,41
2.8511682,3.0455933,74,100,41
3.1428058,3.191412,66,100,41
3.2400181,3.2886245,68,100,41
3.3372307,3.385837,69,100,41
3.4344432,3.5316558,71,100,41
3.6288683,3.7260807,71,100,41
3.8232932,3.9205058,71,100,41
4.0177183,4.2121434,73,100,41
6.350818,6.448031,76,64,41
6.5452433,6.6424556,76,64,41
6.7396684,6.8368807,76,64,41
6.934093,7.031306,73,100,41
7.128518,7.225731,73,100,41
7.322943,7.4201555,71,100,41
7.5173683,7.6145806,69,127,41
7.7117934,7.8090057,69,100,41
7.906218,8.00343,68,100,41
8.100643,8.197856,66,127,41
8.295068,8.392281,66,100,41
8.489493,8.586706,71,100,41
8.683918,8.781131,64,100,41
9.267193,9.364406,69,100,41
9.461618,9.55883,69,64,41
9.656043,9.753256,69,64,41
9.850469,9.94768,68,64,41
10.4337435,10.530955,69,100,41
10.628168,10.725381,69,64,41
10.822594,10.919806,69,64,41
11.017018,11.114231,68,64,41
11.600293,11.697506,71,100,41
11.794718,11.891931,71,64,41
11.989143,12.086356,68,64,41
12.183568,12.280781,71,64,41
12.475205,12.523812,71,110,41
12.572418,12.621024,73,110,41
12.669631,12.718237,74,110,41
12.766843,12.961268,76,110,41
13.05848,13.107087,69,110,41
13.155693,13.2043,71,110,41
13.252906,13.301512,73,110,41
13.350119,13.544543,74,110,41
13.641756,13.690362,66,110,41
13.738968,13.787575,68,110,41
13.836181,13.884787,69,110,41
13.9333935,14.127818,71,110,41
14.127818,14.322244,71,110,41
14.322244,14.516668,71,110,41
14.516668,14.711093,73,110,41
16.849768,16.946981,76,100,41
17.044193,17.141405,76,64,41
17.238619,17.33583,76,64,41
17.433043,17.530256,67,100,41
17.627468,17.72468,67,64,41
17.821894,17.919106,67,64,41
18.016317,18.113531,67,65,41
18.599594,18.696806,67,100,41
18.794018,18.891232,67,64,41
18.988443,19.085655,67,64,41
19.182869,19.28008,67,65,41
19.766144,19.960567,76,100,41
19.960567,20.154993,76,100,41
20.154993,20.349419,74,100,41
20.349419,20.543842,72,127,41
20.543842,20.738268,72,100,41
20.738268,20.932693,70,100,41
20.932693,21.12712,69,127,41
21.12712,21.321543,69,100,41
21.321543,21.515968,67,100,41
21.515968,21.710394,65,127,41
21.710394,21.904818,65,100,41
21.904818,22.099243,64,100,41
22.099243,22.196455,62,127,41
22.293669,22.39088,62,100,41
22.488092,22.585306,67,100,41
22.682518,22.77973,60,100,41
23.265793,23.363007,71,100,41
23.460218,23.55743,71,64,41
23.654644,23.751856,71,64,41
23.849068,23.946281,72,64,41
24.432343,24.529556,71,100,41
24.626768,24.72398,71,64,41
24.821194,24.918406,71,64,41
25.015617,25.112831,72,64,41
25.598894,25.696106,72,100,41
25.598894,25.696106,64,100,41
25.793318,25.890532,72,100,41
25.793318,25.890532,64,100,41
25.987743,26.084955,72,100,41
25.987743,26.084955,64,100,41
26.182169,26.27938,72,100,41
26.182169,26.27938,64,100,41
26.847872,27.042297,64,100,41
26.847872,27.042297,55,100,41
26.847872,27.042297,48,100,41
27.722784,27.77139,66,64,41
27.819996,27.868603,67,76,41
27.91721,27.965815,69,88,41
28.014421,28.403273,70,110,41
28.403273,28.597696,69,64,41
28.597696,28.986547,67,74,41
28.986547,29.180971,65,64,41
29.180971,29.278185,64,64,41
29.375397,29.472609,64,100,41
29.569822,29.667034,65,110,41
29.764246,29.86146,64,100,41
29.958672,30.055883,64,100,41
30.153097,30.250309,65,110,41
30.34752,30.444735,64,100,41
30.541946,30.63916,64,100,41
30.736372,30.833584,65,110,41
30.930798,31.125221,64,100,41
31.514072,31.708496,66,100,41
31.514072,31.708496,57,100,41
31.514072,31.708496,50,100,41
32.388985,32.43759,68,64,41
32.4862,32.5348,69,76,41
32.58341,32.632015,70,88,41
32.680622,33.069473,72,110,41
33.069473,33.263897,70,64,41
33.263897,33.65275,69,74,41
33.65275,33.84717,67,64,41
33.84717,33.944386,66,64,41
34.041595,34.13881,66,100,41
34.236023,34.333233,67,110,41
34.430447,34.52766,66,100,41
34.62487,34.722084,66,100,41
34.819298,34.916508,67,110,41
35.01372,35.110935,66,100,41
35.208145,35.30536,66,100,41
35.402573,35.499783,67,110,41
35.596996,35.79142,66,100,41
36.18027,36.763546,71,64,41
36.763546,37.34682,74,64,41
37.34682,37.930096,71,64,41
37.930096,38.51337,76,64,41
38.51337,38.610584,67,64,41
38.51337,38.610584,76,64,41
38.707798,38.805008,67,64,41
38.707798,38.805008,76,64,41
38.90222,38.999435,67,74,41
38.90222,38.999435,76,74,41
39.096645,39.19386,67,64,41
39.096645,39.19386,76,64,41
39.291073,39.388283,67,64,41
39.291073,39.388283,76,64,41
39.485497,39.58271,67,74,41
39.485497,39.58271,76,74,41
39.67992,39.777134,76,64,41
39.67992,39.777134,67,64,41
39.874348,39.971558,67,64,41
39.874348,39.971558,76,64,41
40.06877,40.165985,67,74,41
40.06877,40.165985,76,74,41
40.263195,40.457623,67,64,41
40.263195,40.457623,76,64,41
40.84647,41.42975,69,64,41
41.42975,42.013023,72,64,41
42.013023,42.5963,69,64,41
42.5963,43.179573,74,64,41
43.179573,43.276783,65,64,41
43.179573,43.276783,74,64,41
43.373997,43.47121,65,64,41
43.373997,43.47121,74,64,41
43.56842,43.665634,65,74,41
43.56842,43.665634,74,74,41
43.762848,43.860058,65,64,41
43.762848,43.860058,74,64,41
43.95727,44.054485,65,64,41
43.95727,44.054485,74,64,41
44.151695,44.24891,65,74,41
44.151695,44.24891,74,74,41
44.346123,44.443333,74,64,41
44.346123,44.443333,65,64,41
44.540546,44.63776,65,64,41
44.540546,44.63776,74,64,41
44.73497,44.832184,65,74,41
44.73497,44.832184,74,74,41
44.929398,45.12382,65,64,41
44.929398,45.12382,74,64,41
45.512672,45.707096,74,54,41
45.707096,45.901524,74,54,41
45.901524,46.095947,74,54,41
46.095947,46.29037,73,54,41
46.679222,46.873646,71,54,41
46.873646,47.068073,71,54,41
47.068073,47.262497,71,54,41
47.262497,47.45692,71,54,41
48.80751,48.856117,69,100,41
48.904724,48.95333,73,100,41
49.001934,49.05054,74,100,41
49.099148,49.293575,76,100,41
49.390785,49.439392,69,100,41
49.488,49.536606,71,100,41
49.585213,49.633816,73,100,41
49.682423,49.87685,74,100,41
49.97406,50.022667,66,100,41
50.071274,50.11988,68,100,41
50.168488,50.21709,69,100,41
50.265697,50.460125,71,100,41
50.460125,50.65455,71,100,41
50.65455,50.848972,71,100,41
50.848972,51.0434,73,100,41
53.18207,53.279285,76,100,41
53.3765,53.47371,76,64,41
53.570923,53.668137,76,64,41
53.765347,53.86256,68,100,41
53.959774,54.056988,68,64,41
54.154198,54.25141,68,64,41
54.348625,54.445835,69,64,41
54.9319,55.02911,68,100,41
55.126324,55.223537,68,64,41
55.320747,55.41796,68,64,41
55.515175,55.612385,69,64,41
56.09845,56.292873,73,110,41
56.292873,56.487297,73,110,41
56.487297,56.681725,71,110,41
56.681725,56.87615,69,127,41
56.87615,57.07057,69,110,41
57.07057,57.265,67,110,41
57.265,57.459423,66,127,41
57.459423,57.653847,66,110,41
57.653847,57.848274,64,110,41
57.848274,58.042698,62,127,41
58.042698,58.23712,62,110,41
58.23712,58.43155,61,110,41
58.43155,58.625973,59,127,41
58.625973,58.8204,59,110,41
58.8204,59.014824,64,110,41
59.014824,59.209248,57,110,41
59.5981,59.695312,68,100,41
59.792522,59.889736,68,64,41
59.98695,60.08416,68,64,41
60.181374,60.375797,69,64,41
60.76465,60.861862,68,100,41
60.959072,61.056286,68,64,41
61.1535,61.25071,68,64,41
61.347923,61.542347,69,64,41
61.9312,62.02841,69,110,41
61.9312,62.02841,61,110,41
62.12562,62.222836,69,110,41
62.12562,62.222836,61,110,41
62.32005,62.41726,69,110,41
62.32005,62.41726,61,110,41
62.514473,62.708897,61,110,41
62.514473,62.708897,69,110,41
63.097748,63.292175,64,100,41
63.097748,63.292175,55,100,41
63.097748,63.292175,48,100,41
63.97266,64.02127,66,64,41
64.06987,64.11848,67,76,41
64.16708,64.21569,69,88,41
64.2643,64.653145,70,110,41
64.653145,64.84757,69,64,41
64.84757,65.23642,67,74,41
65.23642,65.43085,65,64,41
65.43085,65.52806,64,64,41
65.625275,65.72249,64,100,41
65.8197,65.91691,65,110,41
66.01412,66.111336,64,100,41
66.20855,66.30576,64,100,41
66.40298,66.50018,65,110,41
66.5974,66.69461,64,100,41
66.791824,66.88904,64,100,41
66.98625,67.08346,65,110,41
67.18067,67.3751,64,100,41
67.76395,67.958374,66,100,41
67.76395,67.958374,57,100,41
67.76395,67.958374,50,100,41
68.63886,68.68747,68,64,41
68.73608,68.78468,69,76,41
68.83328,68.88189,70,88,41
68.9305,69.31935,72,110,41
69.31935,69.51377,70,64,41
69.51377,69.902626,69,74,41
69.902626,70.097046,67,64,41
70.097046,70.19426,66,64,41
70.29147,70.38869,66,100,41
70.4859,70.583115,67,110,41
70.68032,70.777534,66,100,41
70.87475,70.97196,66,100,41
71.069176,71.16639,67,110,41
71.263596,71.36081,66,100,41
71.45802,71.55524,66,100,41
71.65245,71.749664,67,110,41
71.84687,72.0413,66,100,41
72.430145,73.01342,71,64,41
73.01342,73.596695,74,64,41
73.596695,74.17997,71,64,41
74.17997,74.763245,76,64,41
74.763245,74.86046,67,64,41
74.763245,74.86046,76,64,41
74.95767,75.054886,67,64,41
74.95767,75.054886,76,64,41
75.1521,75.24931,67,74,41
75.1521,75.24931,76,74,41
75.34653,75.44373,67,64,41
75.34653,75.44373,76,64,41
75.54095,75.63816,67,64,41
75.54095,75.63816,76,64,41
75.735374,75.83259,67,74,41
75.735374,75.83259,76,74,41
75.9298,76.02701,76,64,41
75.9298,76.02701,67,64,41
76.12422,76.221436,67,64,41
76.12422,76.221436,76,64,41
76.31865,76.41586,67,74,41
76.31865,76.41586,76,74,41
76.51308,76.7075,67,64,41
76.51308,76.7075,76,64,41
77.09635,77.67963,69,64,41
77.67963,78.2629,72,64,41
78.2629,78.846176,69,64,41
78.846176,79.42945,74,64,41
79.42945,79.52666,65,64,41
79.42945,79.52666,74,64,41
79.62387,79.721085,65,64,41
79.62387,79.721085,74,64,41
79.8183,79.91551,65,74,41
79.8183,79.91551,74,74,41
80.012726,80.10994,65,64,41
80.012726,80.10994,74,64,41
80.207146,80.30436,65,64,41
80.207146,80.30436,74,64,41
80.40157,80.49879,65,74,41
80.40157,80.49879,74,74,41
80.596,80.693214,74,64,41
80.596,80.693214,65,64,41
80.79042,80.887634,65,64,41
80.79042,80.887634,74,64,41
80.98485,81.08206,65,74,41
80.98485,81.08206,74,74,41
81.179276,81.373695,65,64,41
81.179276,81.373695,74,64,41
81.76255,81.95697,74,54,41
81.95697,82.1514,74,54,41
82.1514,82.345825,74,54,41
82.345825,82.540245,73,54,41
82.9291,83.12352,71,54,41
83.12352,83.31795,71,54,41
83.31795,83.512375,71,54,41
83.512375,83.706795,71,54,41
85.052986,85.10159,69,100,41
85.1502,85.19881,73,100,41
85.24741,85.29602,74,100,41
85.34463,85.539055,76,100,41
85.63626,85.68487,69,100,41
85.733475,85.78208,71,100,41
85.83069,85.879295,73,100,41
85.9279,86.12233,74,100,41
86.219536,86.26814,66,100,41
86.31675,86.36536,68,100,41
86.41396,86.46257,69,100,41
86.51118,86.705605,71,100,41
86.705605,86.900024,71,100,41
86.900024,87.09445,71,100,41
87.09445,87.28888,73,100,41
89.42755,89.524765,76,100,41
89.62198,89.71919,76,64,41
89.8164,89.91361,76,64,41
90.010826,90.10804,68,100,41
90.20525,90.30247,68,64,41
90.39967,90.49689,68,64,41
90.5941,90.691315,69,64,41
91.177376,91.27459,68,100,41
91.3718,91.46902,68,64,41
91.56622,91.66344,68,64,41
91.76065,91.857864,69,64,41
92.343925,92.53835,73,110,41
92.53835,92.73278,73,110,41
92.73278,92.9272,71,110,41
92.9272,93.12163,69,127,41
93.12163,93.316055,69,110,41
93.316055,93.510475,67,110,41
93.510475,93.7049,66,127,41
93.7049,93.89933,66,110,41
93.89933,94.09375,64,110,41
94.09375,94.28818,62,127,41
94.28818,94.482605,62,110,41
94.482605,94.677025,61,110,41
94.677025,94.87145,59,127,41
94.87145,95.06588,59,110,41
95.06588,95.2603,64,110,41
95.2603,95.45473,57,110,41
95.843575,95.94079,68,100,41
96.038,96.135216,68,64,41
96.23243,96.329636,68,64,41
96.42685,96.62128,69,64,41
97.010124,97.10734,68,100,41
97.20455,97.301765,68,64,41
97.39898,97.49619,68,64,41
97.5934,97.78783,69,64,41
98.176674,98.27389,69,110,41
98.176674,98.27389,61,110,41
98.3711,98.468315,69,110,41
98.3711,98.468315,61,110,41
98.56553,98.66274,69,110,41
98.56553,98.66274,61,110,41
98.75995,98.95438,61,110,41
98.75995,98.95438,69,110,41
100.00177,100.113495,74,64,41
100.22521,100.672104,74,64,41
100.672104,100.895546,70,64,41
100.895546,101.34244,70,64,41
101.34244,101.56588,71,64,41
101.56588,102.012764,71,64,41
102.012764,102.23621,66,64,41
102.23621,102.6831,66,64,41
102.90654,103.57687,64,64,41
103.57687,104.24721,67,64,41
104.24721,104.91754,67,74,41
104.91754,105.14098,66,64,41
105.364426,105.47615,62,64,41
105.58787,106.03476,62,74,41
106.03476,106.2582,58,64,41
106.2582,106.70509,58,74,41
106.70509,106.928535,59,64,41
106.928535,107.37542,59,74,41
107.37542,107.59887,54,64,41
107.59887,107.82231,54,64,41
108.2692,109.60986,69,64,41
109.60986,110.2802,68,64,41
110.2802,110.50364,69,64,41
110.72708,110.838806,74,64,41
110.95053,111.397415,74,64,41
111.397415,111.62086,70,64,41
111.62086,112.06775,70,64,41
112.06775,112.29119,71,64,41
112.29119,112.73808,71,64,41
112.73808,112.961525,66,64,41
112.961525,113.40841,66,64,41
113.63186,114.302185,64,64,41
114.302185,114.97252,67,64,41
114.97252,115.64285,67,74,41
115.64285,115.866295,66,64,41
116.08974,116.20146,62,64,41
116.31319,116.76007,62,74,41
116.76007,116.98351,58,64,41
116.98351,117.430405,58,74,41
117.430405,117.65385,59,64,41
117.65385,118.10074,59,74,41
118.10074,118.32418,54,64,41
118.32418,118.54762,54,64,41
118.994514,120.335175,69,64,41
120.335175,121.00551,68,64,41
121.00551,121.22895,69,64,41
122.79306,122.904785,78,54,41
123.0165,123.463394,78,54,41
123.463394,123.68684,73,54,41
123.68684,124.13372,73,54,41
124.13372,124.35717,74,54,41
124.35717,124.58061,74,54,41
125.47439,125.58611,71,54,41
125.69783,126.14472,71,54,41
126.14472,126.368164,66,54,41
126.368164,126.81505,66,54,41
126.81505,127.0385,67,54,41
127.0385,132.1777,67,54,41
132.1777,132.40115,65,54,41
132.40115,137.76381,65,54,41
137.76381,138.2107,62,110,41
138.2107,138.43414,65,100,41
138.43414,138.88103,65,111,41
138.88103,139.10448,62,100,41
139.10448,139.55136,62,110,41
139.55136,139.77481,65,100,41
139.77481,140.2217,65,111,41
140.2217,140.44513,62,100,41
140.44513,140.89203,62,110,41
140.89203,141.11546,66,100,41
141.11546,141.56236,66,111,41
141.56236,141.7858,62,100,41
141.7858,142.23268,61,110,41
142.23268,142.45613,69,100,41
142.45613,142.90302,69,110,41
144.91498,145.0588,69,64,41
145.19191,145.65495,69,64,41
145.65495,145.8784,70,64,41
145.8784,146.32529,70,64,41
146.32529,146.54874,71,64,41
146.54874,146.99562,71,64,41
146.99562,147.21907,71,64,41
147.21907,147.66595,71,74,41
147.8894,148.00113,69,64,41
148.11284,148.22456,69,64,41
148.33629,148.44801,69,64,41
148.55974,148.67145,69,64,41
148.78317,148.8949,69,64,41
149.00662,149.11835,69,64,41
149.23006,149.34178,69,64,41
149.4535,149.56523,69,64,41
149.67696,149.78868,66,64,41
149.90039,150.01212,64,64,41
157.0506,157.16232,78,54,41
157.27405,157.72093,78,54,41
157.72093,157.94438,73,54,41
157.94438,158.39127,73,54,41
158.39127,158.61472,74,54,41
158.61472,158.83815,74,54,41
159.73193,159.84366,71,54,41
159.95538,160.40227,71,54,41
160.40227,160.6257,66,54,41
160.6257,161.0726,66,54,41
161.0726,161.29604,67,54,41
161.29604,166.43526,67,54,41
166.43526,166.65869,65,54,41
166.65869,172.02135,65,54,41
172.02135,172.46825,62,110,41
172.46825,172.69168,65,100,41
172.69168,173.13857,65,111,41
173.13857,173.36201,62,100,41
173.36201,173.8089,62,110,41
173.8089,174.03235,65,100,41
174.03235,174.47923,65,111,41
174.47923,174.70268,62,100,41
174.70268,175.14957,62,110,41
175.14957,175.37302,66,100,41
175.37302,175.8199,66,111,41
175.8199,176.04335,62,100,41
176.04335,176.49023,61,110,41
176.49023,176.71367,69,100,41
176.71367,177.16057,69,110,41
179.17252,179.31635,69,64,41
179.44945,179.9125,69,64,41
179.9125,180.13594,70,64,41
180.13594,180.58284,70,64,41
180.58284,180.80627,71,64,41
180.80627,181.25317,71,64,41
181.25317,181.47661,71,64,41
181.47661,181.9235,71,74,41
182.14694,182.25867,69,64,41
182.37039,182.48212,69,64,41
182.59383,182.70555,69,64,41
182.81728,182.929,69,64,41
183.04073,183.15244,69,64,41
183.26416,183.37589,69,64,41
183.48761,183.59933,69,64,41
183.71106,183.82277,69,64,41
183.9345,184.04622,66,64,41
184.15794,184.26967,64,64,41
190.27872,190.32732,69,100,41
190.37592,190.42453,73,100,41
190.47313,190.52174,74,100,41
190.57034,190.76477,76,100,41
190.86198,190.9106,69,100,41
190.9592,191.0078,71,100,41
191.05641,191.10501,73,100,41
191.15363,191.34805,74,100,41
191.44527,191.49387,66,100,41
191.54247,191.59108,68,100,41
191.63968,191.6883,69,100,41
191.7369,191.8341,71,100,41
191.93132,192.02853,71,100,41
192.12575,192.22296,71,100,41
192.32018,192.5146,73,100,41
194.65327,194.75049,76,64,41
194.8477,194.94492,76,64,41
195.04213,195.13933,76,64,41
195.23654,195.33376,73,100,41
195.43097,195.52818,73,100,41
195.6254,195.72261,71,100,41
195.81982,195.91704,69,127,41
196.01425,196.11147,69,100,41
196.20868,196.30588,68,100,41
196.40309,196.5003,66,127,41
196.59752,196.69473,66,100,41
196.79195,196.88916,71,100,41
196.98637,197.08359,64,100,41
197.56964,197.66685,69,100,41
197.76407,197.86128,69,64,41
197.9585,198.05571,69,64,41
198.15292,198.25014,68,64,41
198.73619,198.8334,69,100,41
198.93062,199.02783,69,64,41
199.12505,199.22226,69,64,41
199.31947,199.41669,68,64,41
199.90274,199.99995,71,100,41
200.09717,200.19438,71,64,41
200.2916,200.38881,68,64,41
200.48602,200.58324,71,64,41
200.77766,200.82626,71,110,41
200.87488,200.92348,73,110,41
200.97209,201.02069,74,110,41
201.06929,201.26372,76,110,41
201.36093,201.40955,69,110,41
201.45815,201.50676,71,110,41
201.55536,201.60397,73,110,41
201.65257,201.847,74,110,41
201.94421,201.99281,66,110,41
202.04143,202.09003,68,110,41
202.13864,202.18724,69,110,41
202.23586,202.43027,71,110,41
202.43027,202.6247,71,110,41
202.6247,202.81912,71,110,41
202.81912,203.01355,73,110,41
205.15222,205.24944,76,100,41
205.34665,205.44386,76,64,41
205.54108,205.63829,76,64,41
205.7355,205.8327,67,100,41
205.92992,206.02713,67,64,41
206.12434,206.22156,67,64,41
206.31877,206.41599,67,65,41
206.90205,206.99927,67,100,41
207.09647,207.19368,67,64,41
207.2909,207.3881,67,64,41
207.48532,207.58253,67,65,41
208.0686,208.26302,76,100,41
208.26302,208.45744,76,100,41
208.45744,208.65187,74,100,41
208.65187,208.8463,72,127,41
208.8463,209.04073,72,100,41
209.04073,209.23515,70,100,41
209.23515,209.42957,69,127,41
209.42957,209.624,69,100,41
209.624,209.81842,67,100,41
209.81842,210.01285,65,127,41
210.01285,210.20728,65,100,41
210.20728,210.4017,64,100,41
210.4017,210.49892,62,127,41
210.59612,210.69333,62,100,41
210.79054,210.88776,67,100,41
210.98497,211.08218,60,100,41
211.56825,211.66547,71,100,41
211.76268,211.85988,71,64,41
211.95709,212.0543,71,64,41
212.15152,212.24873,72,64,41
212.7348,212.83202,71,100,41
212.92923,213.02643,71,64,41
213.12364,213.22086,71,64,41
213.31807,213.41528,72,64,41
213.90135,213.99857,72,100,41
213.90135,213.99857,64,100,41
214.09578,214.19298,72,100,41
214.09578,214.19298,64,100,41
214.29019,214.3874,72,100,41
214.29019,214.3874,64,100,41
214.48462,214.58183,72,100,41
214.48462,214.58183,64,100,41
215.15033,215.34476,64,100,41
215.15033,215.34476,55,100,41
215.15033,215.34476,48,100,41
216.02524,216.07384,66,64,41
216.12245,216.17105,67,76,41
216.21967,216.26826,69,88,41
216.31688,216.70572,70,110,41
216.70572,216.90015,69,64,41
216.90015,217.289,67,74,41
217.289,217.48343,65,64,41
217.48343,217.58064,64,64,41
217.67786,217.77507,64,100,41
217.87227,217.96948,65,110,41
218.0667,218.16391,64,100,41
218.26112,218.35834,64,100,41
218.45555,218.55276,65,110,41
218.64998,218.7472,64,100,41
218.8444,218.94162,64,100,41
219.03882,219.13603,65,110,41
219.23325,219.42767,64,100,41
219.81653,220.01096,66,100,41
219.81653,220.01096,57,100,41
219.81653,220.01096,50,100,41
220.69144,220.74005,68,64,41
220.78865,220.83725,69,76,41
220.88586,220.93446,70,88,41
220.98308,221.37193,72,110,41
221.37193,221.56635,70,64,41
221.56635,221.9552,69,74,41
221.9552,222.14963,67,64,41
222.14963,222.24684,66,64,41
222.34406,222.44127,66,100,41
222.53848,222.63568,67,110,41
222.7329,222.83011,66,100,41
222.92732,223.02454,66,100,41
223.12175,223.21896,67,110,41
223.31618,223.41339,66,100,41
223.5106,223.60782,66,100,41
223.70503,223.80225,67,110,41
223.89944,224.09387,66,100,41
224.48273,225.066,71,64,41
225.066,225.64928,74,64,41
225.64928,226.23254,71,64,41
226.23254,226.81583,76,64,41
226.81583,226.91304,67,64,41
226.81583,226.91304,76,64,41
227.01025,227.10747,67,64,41
227.01025,227.10747,76,64,41
227.20468,227.3019,67,74,41
227.20468,227.3019,76,74,41
227.3991,227.4963,67,64,41
227.3991,227.4963,76,64,41
227.59352,227.69073,67,64,41
227.59352,227.69073,76,64,41
227.78795,227.88516,67,74,41
227.78795,227.88516,76,74,41
227.98238,228.07959,76,64,41
227.98238,228.07959,67,64,41
228.1768,228.27402,67,64,41
228.1768,228.27402,76,64,41
228.37123,228.46844,67,74,41
228.37123,228.46844,76,74,41
228.56566,228.76007,67,64,41
228.56566,228.76007,76,64,41
229.14893,229.73221,69,64,41
229.73221,230.31548,72,64,41
230.31548,230.89876,69,64,41
230.89876,231.48203,74,64,41
231.48203,231.57924,65,64,41
231.48203,231.57924,74,64,41
231.67645,231.77367,65,64,41
231.67645,231.77367,74,64,41
231.87088,231.9681,65,74,41
231.87088,231.9681,74,74,41
232.0653,232.1625,65,64,41
232.0653,232.1625,74,64,41
232.25972,232.35693,65,64,41
232.25972,232.35693,74,64,41
232.45415,232.55136,65,74,41
232.45415,232.55136,74,74,41
232.64857,232.74579,74,64,41
232.64857,232.74579,65,64,41
232.843,232.94022,65,64,41
232.843,232.94022,74,64,41
233.03743,233.13464,65,74,41
233.03743,233.13464,74,74,41
233.23186,233.42627,65,64,41
233.23186,233.42627,74,64,41
233.81512,234.00955,74,54,41
234.00955,234.20398,74,54,41
234.20398,234.3984,74,54,41
234.3984,234.59282,73,54,41
234.98167,235.1761,71,54,41
235.1761,235.37053,71,54,41
235.37053,235.56496,71,54,41
235.56496,235.75937,71,54,41
237.10997,237.15857,69,100,41
237.20718,237.25578,73,100,41
237.3044,237.353,74,100,41
237.4016,237.59602,76,100,41
237.69324,237.74185,69,100,41
237.79045,237.83907,71,100,41
237.88766,237.93626,73,100,41
237.98488,238.1793,74,100,41
238.27652,238.32512,66,100,41
238.37373,238.42233,68,100,41
238.47095,238.51955,69,100,41
238.56815,238.76257,71,100,41
238.76257,238.957,71,100,41
238.957,239.15143,71,100,41
239.15143,239.34586,73,100,41
241.48453,241.58174,76,100,41
241.67896,241.77617,76,64,41
241.87338,241.9706,76,64,41
242.06781,242.16501,68,100,41
242.26222,242.35944,68,64,41
242.45665,242.55386,68,64,41
242.65108,242.74829,69,64,41
243.23436,243.33156,68,100,41
243.42877,243.52599,68,64,41
243.6232,243.72041,68,64,41
243.81763,243.91484,69,64,41
244.40091,244.59532,73,110,41
244.59532,244.78975,73,110,41
244.78975,244.98418,71,110,41
244.98418,245.1786,69,127,41
245.1786,245.37303,69,110,41
245.37303,245.56746,67,110,41
245.56746,245.76187,66,127,41
245.76187,245.9563,66,110,41
245.9563,246.15073,64,110,41
246.15073,246.34515,62,127,41
246.34515,246.53958,62,110,41
246.53958,246.73401,61,110,41
246.73401,246.92842,59,127,41
246.92842,247.12285,59,110,41
247.12285,247.31728,64,110,41
247.31728,247.5117,57,110,41
247.90056,247.99777,68,100,41
248.09497,248.19218,68,64,41
248.2894,248.38661,68,64,41
248.48383,248.67825,69,64,41
249.06711,249.16432,68,100,41
249.26152,249.35873,68,64,41
249.45595,249.55316,68,64,41
249.65038,249.8448,69,64,41
250.23366,250.33333,69,110,41
250.23366,250.33333,61,110,41
250.43967,250.5536,69,110,41
250.43967,250.5536,61,110,41
250.67633,250.8093,69,110,41
250.67633,250.8093,61,110,41
250.9545,251.26639,61,110,41
250.9545,251.26639,69,110,41
2.2678933,2.4623182,61,100,42
2.2678933,2.4623182,52,100,42
2.2678933,2.4623182,45,100,42
2.8511682,3.0455933,45,100,42
2.8511682,3.0455933,54,100,42
2.8511682,3.0455933,62,100,42
3.4344432,3.6288683,52,100,42
3.4344432,3.6288683,45,100,42
3.6288683,3.8232932,45,100,42
3.6288683,3.8232932,52,100,42
3.8232932,4.0177183,45,100,42
3.8232932,4.0177183,52,100,42
4.0177183,4.2121434,57,100,42
4.0177183,4.2121434,52,100,42
4.0177183,4.2121434,45,100,42
6.934093,7.031306,64,100,42
7.128518,7.225731,64,100,42
7.322943,7.4201555,65,100,42
7.5173683,7.6145806,66,127,42
7.7117934,7.8090057,66,100,42
7.906218,8.00343,64,100,42
8.100643,8.197856,61,127,42
8.295068,8.392281,61,100,42
8.489493,8.586706,63,100,42
8.683918,8.781131,64,100,42
9.267193,9.364406,63,100,42
9.461618,9.55883,63,64,42
9.656043,9.753256,63,64,42
9.850469,9.94768,64,64,42
10.4337435,10.530955,63,100,42
10.628168,10.725381,63,64,42
10.822594,10.919806,63,64,42
11.017018,11.114231,64,64,42
11.600293,11.697506,64,100,42
11.794718,11.891931,64,64,42
11.989143,12.086356,64,64,42
12.183568,12.280781,62,64,42
12.766843,12.961268,61,110,42
12.766843,12.961268,52,110,42
12.766843,12.961268,45,110,42
13.350119,13.544543,45,110,42
13.350119,13.544543,54,110,42
13.350119,13.544543,62,110,42
13.9333935,14.127818,52,110,42
13.9333935,14.127818,45,110,42
14.127818,14.322244,52,110,42
14.127818,14.322244,45,110,42
14.322244,14.516668,52,110,42
14.322244,14.516668,45,110,42
14.516668,14.711093,45,110,42
14.516668,14.711093,52,110,42
14.516668,14.711093,57,110,42
17.433043,17.530256,59,100,42
17.627468,17.72468,59,64,42
17.821894,17.919106,59,64,42
18.016317,18.113531,60,64,42
18.599594,18.696806,59,100,42
18.794018,18.891232,59,64,42
18.988443,19.085655,59,64,42
19.182869,19.28008,60,64,42
19.766144,19.960567,67,100,42
19.960567,20.154993,67,100,42
20.154993,20.349419,67,100,42
20.349419,20.543842,69,127,42
20.543842,20.738268,69,100,42
20.738268,20.932693,64,100,42
20.932693,21.12712,65,127,42
21.12712,21.321543,65,100,42
21.321543,21.515968,61,100,42
21.515968,21.710394,62,127,42
21.710394,21.904818,62,100,42
21.904818,22.099243,60,100,42
22.099243,22.196455,57,127,42
22.293669,22.39088,57,100,42
22.488092,22.585306,59,100,42
22.682518,22.77973,60,100,42
23.265793,23.363007,65,100,42
23.460218,23.55743,65,64,42
23.654644,23.751856,65,64,42
23.849068,23.946281,64,64,42
24.432343,24.529556,65,100,42
24.626768,24.72398,65,64,42
24.821194,24.918406,65,64,42
25.015617,25.112831,64,64,42
25.598894,25.696106,60,100,42
25.598894,25.696106,67,100,42
25.793318,25.890532,67,100,42
25.793318,25.890532,60,100,42
25.987743,26.084955,60,100,42
25.987743,26.084955,67,100,42
26.182169,26.27938,67,100,42
26.182169,26.27938,60,100,42
26.847872,29.180971,48,127,42
29.180971,29.375397,48,100,42
29.375397,29.569822,48,100,42
29.764246,29.958672,48,100,42
29.958672,30.153097,48,100,42
30.34752,30.541946,48,100,42
30.541946,30.736372,48,100,42
30.930798,31.02801,48,127,42
31.125221,31.222435,48,100,42
31.319647,31.416859,51,100,42
31.514072,33.84717,50,127,42
33.84717,34.041595,50,100,42
34.041595,34.236023,50,100,42
34.430447,34.62487,50,100,42
34.62487,34.819298,50,100,42
35.01372,35.208145,50,100,42
35.208145,35.402573,50,100,42
35.596996,35.79142,50,127,42
35.79142,35.985847,50,118,42
35.985847,36.18027,50,108,42
37.930096,38.124523,52,127,42
38.124523,38.318947,52,106,42
38.318947,38.51337,52,85,42
38.51337,38.610584,57,64,42
38.707798,38.805008,57,64,42
38.90222,38.999435,58,74,42
39.096645,39.19386,57,64,42
39.291073,39.388283,57,64,42
39.485497,39.58271,58,74,42
39.67992,39.777134,57,64,42
39.874348,39.971558,57,64,42
40.06877,40.165985,58,74,42
40.263195,40.457623,57,64,42
42.5963,42.79072,50,127,42
42.79072,42.985146,50,106,42
42.985146,43.179573,50,85,42
43.179573,43.276783,55,64,42
43.373997,43.47121,55,64,42
43.56842,43.665634,56,74,42
43.762848,43.860058,55,64,42
43.95727,44.054485,55,64,42
44.151695,44.24891,56,74,42
44.346123,44.443333,55,64,42
44.540546,44.63776,55,64,42
44.73497,44.832184,56,74,42
44.929398,45.12382,55,64,42
45.512672,45.707096,64,54,42
45.707096,45.901524,64,54,42
45.901524,46.095947,64,54,42
46.095947,46.29037,64,54,42
46.679222,46.873646,62,54,42
46.873646,47.068073,62,54,42
47.068073,47.262497,62,54,42
47.262497,47.45692,62,54,42
47.84577,48.040195,40,100,42
48.040195,48.234623,40,100,42
48.234623,48.429047,40,100,42
48.429047,48.62347,40,100,42
49.099148,49.293575,45,100,42
49.099148,49.293575,52,100,42
49.099148,49.293575,61,100,42
49.682423,49.87685,62,100,42
49.682423,49.87685,54,100,42
49.682423,49.87685,45,100,42
50.265697,50.460125,45,100,42
50.265697,50.460125,52,100,42
50.460125,50.65455,45,100,42
50.460125,50.65455,52,100,42
50.65455,50.848972,45,100,42
50.65455,50.848972,52,100,42
50.848972,51.0434,45,100,42
50.848972,51.0434,52,100,42
50.848972,51.0434,57,100,42
53.765347,53.86256,64,100,42
53.959774,54.056988,64,64,42
54.154198,54.25141,64,64,42
54.348625,54.445835,64,64,42
54.9319,55.02911,64,100,42
55.126324,55.223537,64,64,42
55.320747,55.41796,64,64,42
55.515175,55.612385,64,64,42
56.09845,56.292873,64,110,42
56.292873,56.487297,64,110,42
56.487297,56.681725,65,110,42
56.681725,56.87615,66,127,42
56.87615,57.07057,66,110,42
57.07057,57.265,61,110,42
57.265,57.459423,62,127,42
57.459423,57.653847,62,110,42
57.653847,57.848274,58,110,42
57.848274,58.042698,59,127,42
58.042698,58.23712,59,110,42
58.23712,58.43155,57,110,42
58.43155,58.625973,54,127,42
58.625973,58.8204,57,110,42
58.8204,59.014824,56,110,42
59.014824,59.209248,57,110,42
59.5981,59.695312,62,100,42
59.792522,59.889736,62,64,42
59.98695,60.08416,62,64,42
60.181374,60.375797,61,64,42
60.76465,60.861862,62,100,42
60.959072,61.056286,62,64,42
61.1535,61.25071,62,64,42
61.347923,61.542347,61,64,42
61.9312,62.02841,57,110,42
61.9312,62.02841,64,110,42
62.12562,62.222836,57,110,42
62.12562,62.222836,64,110,42
62.32005,62.41726,57,110,42
62.32005,62.41726,64,110,42
62.514473,62.708897,64,110,42
62.514473,62.708897,57,110,42
63.097748,65.43085,48,127,42
65.43085,65.625275,48,100,42
65.625275,65.8197,48,100,42
66.01412,66.20855,48,100,42
66.20855,66.40298,48,100,42
66.5974,66.791824,48,100,42
66.791824,66.98625,48,100,42
67.18067,67.277885,48,127,42
67.3751,67.47231,48,100,42
67.56953,67.66673,51,100,42
67.76395,70.097046,50,127,42
70.097046,70.29147,50,100,42
70.29147,70.4859,50,100,42
70.68032,70.87475,50,100,42
70.87475,71.069176,50,100,42
71.263596,71.45802,50,100,42
71.45802,71.65245,50,100,42
71.84687,72.0413,50,127,42
72.0413,72.235725,50,118,42
72.235725,72.430145,50,108,42
74.17997,74.3744,52,127,42
74.3744,74.568825,52,106,42
74.568825,74.763245,52,85,42
74.763245,74.86046,57,64,42
74.95767,75.054886,57,64,42
75.1521,75.24931,58,74,42
75.34653,75.44373,57,64,42
75.54095,75.63816,57,64,42
75.735374,75.83259,58,74,42
75.9298,76.02701,57,64,42
76.12422,76.221436,57,64,42
76.31865,76.41586,58,74,42
76.51308,76.7075,57,64,42
78.846176,79.040596,50,127,42
79.040596,79.23502,50,106,42
79.23502,79.42945,50,85,42
79.42945,79.52666,55,64,42
79.62387,79.721085,55,64,42
79.8183,79.91551,56,74,42
80.012726,80.10994,55,64,42
80.207146,80.30436,55,64,42
80.40157,80.49879,56,74,42
80.596,80.693214,55,64,42
80.79042,80.887634,55,64,42
80.98485,81.08206,56,74,42
81.179276,81.373695,55,64,42
81.76255,81.95697,64,54,42
81.95697,82.1514,64,54,42
82.1514,82.345825,64,54,42
82.345825,82.540245,64,54,42
82.9291,83.12352,62,54,42
83.12352,83.31795,62,54,42
83.31795,83.512375,62,54,42
83.512375,83.706795,62,54,42
84.09565,84.29008,40,100,42
84.29008,84.4845,40,100,42
84.4845,84.678925,40,100,42
84.678925,84.87335,40,100,42
85.34463,85.539055,45,100,42
85.34463,85.539055,52,100,42
85.34463,85.539055,61,100,42
85.9279,86.12233,62,100,42
85.9279,86.12233,54,100,42
85.9279,86.12233,45,100,42
86.51118,86.705605,45,100,42
86.51118,86.705605,52,100,42
86.705605,86.900024,45,100,42
86.705605,86.900024,52,100,42
86.900024,87.09445,45,100,42
86.900024,87.09445,52,100,42
87.09445,87.28888,45,100,42
87.09445,87.28888,52,100,42
87.09445,87.28888,57,100,42
90.010826,90.10804,64,100,42
90.20525,90.30247,64,64,42
90.39967,90.49689,64,64,42
90.5941,90.691315,64,64,42
91.177376,91.27459,64,100,42
91.3718,91.46902,64,64,42
91.56622,91.66344,64,64,42
91.76065,91.857864,64,64,42
92.343925,92.53835,64,110,42
92.53835,92.73278,64,110,42
92.73278,92.9272,65,110,42
92.9272,93.12163,66,127,42
93.12163,93.316055,66,110,42
93.316055,93.510475,61,110,42
93.510475,93.7049,62,127,42
93.7049,93.89933,62,110,42
93.89933,94.09375,58,110,42
94.09375,94.28818,59,127,42
94.28818,94.482605,59,110,42
94.482605,94.677025,57,110,42
94.677025,94.87145,54,127,42
94.87145,95.06588,57,110,42
95.06588,95.2603,56,110,42
95.2603,95.45473,57,110,42
95.843575,95.94079,62,100,42
96.038,96.135216,62,64,42
96.23243,96.329636,62,64,42
96.42685,96.62128,61,64,42
97.010124,97.10734,62,100,42
97.20455,97.301765,62,64,42
97.39898,97.49619,62,64,42
97.5934,97.78783,61,64,42
98.176674,98.27389,57,110,42
98.176674,98.27389,64,110,42
98.3711,98.468315,57,110,42
98.3711,98.468315,64,110,42
98.56553,98.66274,57,110,42
98.56553,98.66274,64,110,42
98.75995,98.95438,64,110,42
98.75995,98.95438,57,110,42
104.24721,104.35893,57,64,42
104.47065,104.582375,59,64,42
104.69409,104.80582,61,64,42
104.91754,105.02926,62,64,42
105.14098,105.25271,64,64,42
105.364426,105.47615,66,64,42
105.58787,106.03476,66,74,42
106.03476,106.2582,64,64,42
106.2582,106.70509,64,74,42
106.70509,106.928535,62,64,42
106.928535,107.37542,62,74,42
107.37542,107.59887,57,64,42
107.59887,107.82231,57,64,42
108.2692,109.60986,61,64,42
109.60986,110.056755,59,74,42
110.056755,110.2802,62,64,42
110.2802,110.50364,61,64,42
114.97252,115.08424,57,64,42
115.19596,115.307686,59,64,42
115.41941,115.53113,61,64,42
115.64285,115.75457,62,64,42
115.866295,115.97802,64,64,42
116.08974,116.20146,66,64,42
116.31319,116.76007,66,74,42
116.76007,116.98351,64,64,42
116.98351,117.430405,64,74,42
117.430405,117.65385,62,64,42
117.65385,118.10074,62,74,42
118.10074,118.32418,57,64,42
118.32418,118.54762,57,64,42
118.994514,120.335175,61,64,42
120.335175,120.78207,59,74,42
120.78207,121.00551,62,64,42
121.00551,121.22895,61,64,42
124.13372,124.245445,66,54,42
124.35717,124.804054,66,54,42
124.804054,125.0275,64,54,42
125.0275,125.47439,64,54,42
125.47439,125.69783,62,54,42
125.69783,125.92127,62,54,42
127.0385,132.1777,59,54,42
132.1777,132.40115,62,54,42
132.40115,133.74182,62,54,42
133.74182,135.08247,63,54,42
135.08247,136.42314,62,54,42
136.42314,137.76381,63,54,42
137.76381,137.98726,62,100,42
137.76381,137.98726,53,100,42
137.76381,137.98726,46,100,42
138.43414,138.65758,46,100,42
138.43414,138.65758,53,100,42
138.43414,138.65758,62,100,42
139.10448,139.32791,62,100,42
139.10448,139.32791,53,100,42
139.10448,139.32791,46,100,42
139.77481,139.99825,46,100,42
139.77481,139.99825,53,100,42
139.77481,139.99825,62,100,42
140.44513,140.66858,62,100,42
140.44513,140.66858,45,100,42
140.44513,140.66858,54,100,42
141.11546,141.33891,62,100,42
141.11546,141.33891,45,100,42
141.11546,141.33891,54,100,42
141.7858,142.00925,61,100,42
141.7858,142.00925,52,100,42
141.7858,142.00925,45,100,42
142.45613,142.67958,61,100,42
142.45613,142.67958,52,100,42
142.45613,142.67958,45,100,42
144.91498,145.0588,62,64,42
145.19191,145.65495,62,64,42
145.65495,145.8784,61,64,42
145.8784,146.32529,61,64,42
146.32529,146.54874,62,64,42
146.54874,146.99562,62,64,42
146.99562,147.21907,62,64,42
147.21907,147.66595,62,74,42
147.8894,148.00113,62,64,42
148.11284,148.22456,64,64,42
148.33629,148.44801,66,64,42
148.55974,148.67145,67,64,42
148.78317,148.8949,66,64,42
149.00662,149.11835,64,64,42
149.23006,149.34178,66,64,42
149.4535,149.56523,64,64,42
149.67696,149.78868,62,64,42
149.90039,150.01212,61,64,42
158.39127,158.50299,66,54,42
158.61472,159.0616,66,54,42
159.0616,159.28505,64,54,42
159.28505,159.73193,64,54,42
159.73193,159.95538,62,54,42
159.95538,160.17882,62,54,42
161.29604,166.43526,59,54,42
166.43526,166.65869,62,54,42
166.65869,167.99936,62,54,42
167.99936,169.34003,63,54,42
169.34003,170.6807,62,54,42
170.6807,172.02135,63,54,42
172.02135,172.2448,62,100,42
172.02135,172.2448,53,100,42
172.02135,172.2448,46,100,42
172.69168,172.91513,46,100,42
172.69168,172.91513,53,100,42
172.69168,172.91513,62,100,42
173.36201,173.58546,62,100,42
173.36201,173.58546,53,100,42
173.36201,173.58546,46,100,42
174.03235,174.2558,46,100,42
174.03235,174.2558,53,100,42
174.03235,174.2558,62,100,42
174.70268,174.92612,62,100,42
174.70268,174.92612,45,100,42
174.70268,174.92612,54,100,42
175.37302,175.59645,62,100,42
175.37302,175.59645,45,100,42
175.37302,175.59645,54,100,42
176.04335,176.26678,61,100,42
176.04335,176.26678,52,100,42
176.04335,176.26678,45,100,42
176.71367,176.93712,61,100,42
176.71367,176.93712,52,100,42
176.71367,176.93712,45,100,42
179.17252,179.31635,62,64,42
179.44945,179.9125,62,64,42
179.9125,180.13594,61,64,42
180.13594,180.58284,61,64,42
180.58284,180.80627,62,64,42
180.80627,181.25317,62,64,42
181.25317,181.47661,62,64,42
181.47661,181.9235,62,74,42
182.14694,182.25867,62,64,42
182.37039,182.48212,64,64,42
182.59383,182.70555,66,64,42
182.81728,182.929,67,64,42
183.04073,183.15244,66,64,42
183.26416,183.37589,64,64,42
183.48761,183.59933,66,64,42
183.71106,183.82277,64,64,42
183.9345,184.04622,62,64,42
184.15794,184.26967,61,64,42
190.57034,190.76477,61,100,42
190.57034,190.76477,52,100,42
190.57034,190.76477,45,100,42
191.15363,191.34805,45,100,42
191.15363,191.34805,54,100,42
191.15363,191.34805,62,100,42
191.7369,191.93132,52,100,42
191.7369,191.93132,45,100,42
191.93132,192.12575,45,100,42
191.93132,192.12575,52,100,42
192.12575,192.32018,45,100,42
192.12575,192.32018,52,100,42
192.32018,192.5146,57,100,42
192.32018,192.5146,52,100,42
192.32018,192.5146,45,100,42
195.23654,195.33376,64,100,42
195.43097,195.52818,64,100,42
195.6254,195.72261,65,100,42
195.81982,195.91704,66,127,42
196.01425,196.11147,66,100,42
196.20868,196.30588,64,100,42
196.40309,196.5003,61,127,42
196.59752,196.69473,61,100,42
196.79195,196.88916,63,100,42
196.98637,197.08359,64,100,42
197.56964,197.66685,63,100,42
197.76407,197.86128,63,64,42
197.9585,198.05571,63,64,42
198.15292,198.25014,64,64,42
198.73619,198.8334,63,100,42
198.93062,199.02783,63,64,42
199.12505,199.22226,63,64,42
199.31947,199.41669,64,64,42
199.90274,199.99995,64,100,42
200.09717,200.19438,64,64,42
200.2916,200.38881,64,64,42
200.48602,200.58324,62,64,42
201.06929,201.26372,61,110,42
201.06929,201.26372,52,110,42
201.06929,201.26372,45,110,42
201.65257,201.847,45,110,42
201.65257,201.847,54,110,42
201.65257,201.847,62,110,42
202.23586,202.43027,52,110,42
202.23586,202.43027,45,110,42
202.43027,202.6247,52,110,42
202.43027,202.6247,45,110,42
202.6247,202.81912,52,110,42
202.6247,202.81912,45,110,42
202.81912,203.01355,45,110,42
202.81912,203.01355,52,110,42
202.81912,203.01355,57,110,42
205.7355,205.8327,59,100,42
205.92992,206.02713,59,64,42
206.12434,206.22156,59,64,42
206.31877,206.41599,60,64,42
206.90205,206.99927,59,100,42
207.09647,207.19368,59,64,42
207.2909,207.3881,59,64,42
207.48532,207.58253,60,64,42
208.0686,208.26302,67,100,42
208.26302,208.45744,67,100,42
208.45744,208.65187,67,100,42
208.65187,208.8463,69,127,42
208.8463,209.04073,69,100,42
209.04073,209.23515,64,100,42
209.23515,209.42957,65,127,42
209.42957,209.624,65,100,42
209.624,209.81842,61,100,42
209.81842,210.01285,62,127,42
210.01285,210.20728,62,100,42
210.20728,210.4017,60,100,42
210.4017,210.49892,57,127,42
210.59612,210.69333,57,100,42
210.79054,210.88776,59,100,42
210.98497,211.08218,60,100,42
211.56825,211.66547,65,100,42
211.76268,211.85988,65,64,42
211.95709,212.0543,65,64,42
212.15152,212.24873,64,64,42
212.7348,212.83202,65,100,42
212.92923,213.02643,65,64,42
213.12364,213.22086,65,64,42
213.31807,213.41528,64,64,42
213.90135,213.99857,60,100,42
213.90135,213.99857,67,100,42
214.09578,214.19298,67,100,42
214.09578,214.19298,60,100,42
214.29019,214.3874,60,100,42
214.29019,214.3874,67,100,42
214.48462,214.58183,67,100,42
214.48462,214.58183,60,100,42
215.15033,217.48343,48,127,42
217.48343,217.67786,48,100,42
217.67786,217.87227,48,100,42
218.0667,218.26112,48,100,42
218.26112,218.45555,48,100,42
218.64998,218.8444,48,100,42
218.8444,219.03882,48,100,42
219.23325,219.33046,48,127,42
219.42767,219.52489,48,100,42
219.6221,219.71931,51,100,42
219.81653,222.14963,50,127,42
222.14963,222.34406,50,100,42
222.34406,222.53848,50,100,42
222.7329,222.92732,50,100,42
222.92732,223.12175,50,100,42
223.31618,223.5106,50,100,42
223.5106,223.70503,50,100,42
223.89944,224.09387,50,127,42
224.09387,224.2883,50,118,42
224.2883,224.48273,50,108,42
226.23254,226.42697,52,127,42
226.42697,226.6214,52,106,42
226.6214,226.81583,52,85,42
226.81583,226.91304,57,64,42
227.01025,227.10747,57,64,42
227.20468,227.3019,58,74,42
227.3991,227.4963,57,64,42
227.59352,227.69073,57,64,42
227.78795,227.88516,58,74,42
227.98238,228.07959,57,64,42
228.1768,228.27402,57,64,42
228.37123,228.46844,58,74,42
228.56566,228.76007,57,64,42
230.89876,231.09317,50,127,42
231.09317,231.2876,50,106,42
231.2876,231.48203,50,85,42
231.48203,231.57924,55,64,42
231.67645,231.77367,55,64,42
231.87088,231.9681,56,74,42
232.0653,232.1625,55,64,42
232.25972,232.35693,55,64,42
232.45415,232.55136,56,74,42
232.64857,232.74579,55,64,42
232.843,232.94022,55,64,42
233.03743,233.13464,56,74,42
233.23186,233.42627,55,64,42
233.81512,234.00955,64,54,42
234.00955,234.20398,64,54,42
234.20398,234.3984,64,54,42
234.3984,234.59282,64,54,42
234.98167,235.1761,62,54,42
235.1761,235.37053,62,54,42
235.37053,235.56496,62,54,42
235.56496,235.75937,62,54,42
236.14822,236.34265,40,100,42
236.34265,236.53708,40,100,42
236.53708,236.7315,40,100,42
236.7315,236.92592,40,100,42
237.4016,237.59602,45,100,42
237.4016,237.59602,52,100,42
237.4016,237.59602,61,100,42
237.98488,238.1793,62,100,42
237.98488,238.1793,54,100,42
237.98488,238.1793,45,100,42
238.56815,238.76257,45,100,42
238.56815,238.76257,52,100,42
238.76257,238.957,45,100,42
238.76257,238.957,52,100,42
238.957,239.15143,45,100,42
238.957,239.15143,52,100,42
239.15143,239.34586,45,100,42
239.15143,239.34586,52,100,42
239.15143,239.34586,57,100,42
242.06781,242.16501,64,100,42
242.26222,242.35944,64,64,42
242.45665,242.55386,64,64,42
242.65108,242.74829,64,64,42
243.23436,243.33156,64,100,42
243.42877,243.52599,64,64,42
243.6232,243.72041,64,64,42
243.81763,243.91484,64,64,42
244.40091,244.59532,64,110,42
244.59532,244.78975,64,110,42
244.78975,244.98418,65,110,42
244.98418,245.1786,66,127,42
245.1786,245.37303,66,110,42
245.37303,245.56746,61,110,42
245.56746,245.76187,62,127,42
245.76187,245.9563,62,110,42
245.9563,246.15073,58,110,42
246.15073,246.34515,59,127,42
246.34515,246.53958,59,110,42
246.53958,246.73401,57,110,42
246.73401,246.92842,54,127,42
246.92842,247.12285,57,110,42
247.12285,247.31728,56,110,42
247.31728,247.5117,57,110,42
247.90056,247.99777,62,100,42
248.09497,248.19218,62,64,42
248.2894,248.38661,62,64,42
248.48383,248.67825,61,64,42
249.06711,249.16432,62,100,42
249.26152,249.35873,62,64,42
249.45595,249.55316,62,64,42
249.65038,249.8448,61,64,42
250.23366,250.33333,57,110,42
250.23366,250.33333,64,110,42
250.43967,250.5536,57,110,42
250.43967,250.5536,64,110,42
250.67633,250.8093,57,110,42
250.67633,250.8093,64,110,42
250.9545,251.26639,64,110,42
250.9545,251.26639,57,110,42
2.2678933,2.4623182,45,100,43
2.8511682,3.0455933,45,100,43
3.4344432,3.6288683,45,100,43
3.6288683,3.8232932,45,100,43
3.8232932,4.0177183,45,100,43
4.0177183,4.2121434,45,100,43
6.934093,7.031306,45,100,43
7.128518,7.225731,45,100,43
7.322943,7.4201555,44,100,43
7.5173683,7.6145806,42,127,43
7.7117934,7.8090057,42,100,43
7.906218,8.00343,46,100,43
8.100643,8.197856,47,127,43
8.295068,8.392281,47,100,43
8.489493,8.586706,35,100,43
8.683918,8.781131,40,100,43
9.267193,9.364406,47,100,43
9.461618,9.55883,47,64,43
9.656043,9.753256,47,64,43
9.850469,9.94768,40,64,43
10.4337435,10.530955,47,100,43
10.628168,10.725381,47,64,43
10.822594,10.919806,47,64,43
11.017018,11.114231,40,64,43
11.600293,11.697506,40,100,43
11.794718,11.891931,40,64,43
11.989143,12.086356,40,64,43
12.183568,12.280781,40,64,43
12.766843,12.961268,45,110,43
13.350119,13.544543,45,110,43
13.9333935,14.127818,45,110,43
14.127818,14.322244,45,110,43
14.322244,14.516668,45,110,43
14.516668,14.711093,45,110,43
17.433043,17.530256,41,100,43
17.627468,17.72468,41,64,43
17.821894,17.919106,41,64,43
18.016317,18.113531,40,64,43
18.599594,18.696806,41,100,43
18.794018,18.891232,41,64,43
18.988443,19.085655,41,64,43
19.182869,19.28008,40,64,43
19.766144,19.960567,48,100,43
19.960567,20.154993,48,100,43
20.154993,20.349419,47,100,43
20.349419,20.543842,45,127,43
20.543842,20.738268,45,100,43
20.738268,20.932693,43,100,43
20.932693,21.12712,41,127,43
21.12712,21.321543,41,100,43
21.321543,21.515968,40,100,43
21.515968,21.710394,38,127,43
21.710394,21.904818,38,100,43
21.904818,22.099243,42,100,43
22.099243,22.196455,43,127,43
22.293669,22.39088,43,100,43
22.488092,22.585306,31,100,43
22.682518,22.77973,36,100,43
23.265793,23.363007,43,100,43
23.460218,23.55743,43,64,43
23.654644,23.751856,43,64,43
23.849068,23.946281,48,64,43
24.432343,24.529556,43,100,43
24.626768,24.72398,43,64,43
24.821194,24.918406,43,64,43
25.015617,25.112831,48,64,43
25.598894,25.696106,36,100,43
25.793318,25.890532,36,100,43
25.987743,26.084955,36,100,43
26.182169,26.27938,36,100,43
26.847872,29.180971,36,127,43
29.180971,29.375397,36,100,43
29.375397,29.569822,36,100,43
29.764246,29.958672,36,100,43
29.958672,30.153097,36,100,43
30.34752,30.541946,36,100,43
30.541946,30.736372,36,100,43
30.930798,31.02801,36,127,43
31.125221,31.222435,36,100,43
31.319647,31.416859,39,100,43
31.514072,33.84717,38,127,43
33.84717,34.041595,38,100,43
34.041595,34.236023,38,100,43
34.430447,34.62487,38,100,43
34.62487,34.819298,38,100,43
35.01372,35.208145,38,100,43
35.208145,35.402573,38,100,43
35.596996,35.79142,38,127,43
35.79142,35.985847,38,118,43
35.985847,36.18027,38,108,43
37.930096,38.124523,40,127,43
38.124523,38.318947,40,106,43
38.318947,38.51337,40,85,43
40.263195,40.457623,33,127,43
40.457623,40.652046,33,106,43
40.652046,40.84647,33,85,43
42.5963,42.79072,38,127,43
42.79072,42.985146,38,106,43
42.985146,43.179573,38,85,43
44.929398,45.12382,31,127,43
45.12382,45.318245,31,103,43
45.318245,45.512672,31,79,43
45.512672,45.707096,32,54,43
45.707096,45.901524,44,54,43
45.901524,46.095947,44,54,43
46.095947,46.29037,45,54,43
46.679222,46.873646,38,54,43
46.873646,47.068073,38,54,43
47.068073,47.262497,38,54,43
47.262497,47.45692,40,54,43
47.84577,48.040195,40,100,43
48.040195,48.234623,40,100,43
48.234623,48.429047,40,100,43
48.429047,48.62347,40,100,43
49.099148,49.293575,45,100,43
49.682423,49.87685,45,100,43
50.265697,50.460125,45,100,43
50.460125,50.65455,45,100,43
50.65455,50.848972,45,100,43
50.848972,51.0434,45,100,43
53.765347,53.86256,50,100,43
53.959774,54.056988,50,64,43
54.154198,54.25141,50,64,43
54.348625,54.445835,49,64,43
54.9319,55.02911,50,100,43
55.126324,55.223537,50,64,43
55.320747,55.41796,50,64,43
55.515175,55.612385,49,64,43
56.09845,56.292873,45,110,43
56.292873,56.487297,45,110,43
56.487297,56.681725,44,110,43
56.681725,56.87615,42,127,43
56.87615,57.07057,42,110,43
57.07057,57.265,40,110,43
57.265,57.459423,38,127,43
57.459423,57.653847,38,110,43
57.653847,57.848274,37,110,43
57.848274,58.042698,35,127,43
58.042698,58.23712,35,110,43
58.23712,58.43155,39,110,43
58.43155,58.625973,40,127,43
58.625973,58.8204,40,110,43
58.8204,59.014824,40,110,43
59.014824,59.209248,33,110,43
59.5981,59.695312,40,100,43
59.792522,59.889736,40,64,43
59.98695,60.08416,40,64,43
60.181374,60.375797,45,64,43
60.76465,60.861862,40,100,43
60.959072,61.056286,40,64,43
61.1535,61.25071,40,64,43
61.347923,61.542347,45,64,43
61.9312,62.02841,33,110,43
62.12562,62.222836,33,110,43
62.32005,62.41726,33,110,43
62.514473,62.708897,33,110,43
63.097748,65.43085,36,127,43
65.43085,65.625275,36,100,43
65.625275,65.8197,36,100,43
66.01412,66.20855,36,100,43
66.20855,66.40298,36,100,43
66.5974,66.791824,36,100,43
66.791824,66.98625,36,100,43
67.18067,67.277885,36,127,43
67.3751,67.47231,36,100,43
67.56953,67.66673,39,100,43
67.76395,70.097046,38,127,43
70.097046,70.29147,38,100,43
70.29147,70.4859,38,100,43
70.68032,70.87475,38,100,43
70.87475,71.069176,38,100,43
71.263596,71.45802,38,100,43
71.45802,71.65245,38,100,43
71.84687,72.0413,38,127,43
72.0413,72.235725,38,118,43
72.235725,72.430145,38,108,43
74.17997,74.3744,40,127,43
74.3744,74.568825,40,106,43
74.568825,74.763245,40,85,43
76.51308,76.7075,33,127,43
76.7075,76.901924,33,106,43
76.901924,77.09635,33,85,43
78.846176,79.040596,38,127,43
79.040596,79.23502,38,106,43
79.23502,79.42945,38,85,43
81.179276,81.373695,31,127,43
81.373695,81.56812,31,103,43
81.56812,81.76255,31,79,43
81.76255,81.95697,32,54,43
81.95697,82.1514,44,54,43
82.1514,82.345825,44,54,43
82.345825,82.540245,45,54,43
82.9291,83.12352,38,54,43
83.12352,83.31795,38,54,43
83.31795,83.512375,38,54,43
83.512375,83.706795,40,54,43
84.09565,84.29008,40,100,43
84.29008,84.4845,40,100,43
84.4845,84.678925,40,100,43
84.678925,84.87335,40,100,43
85.34463,85.539055,45,100,43
85.9279,86.12233,45,100,43
86.51118,86.705605,45,100,43
86.705605,86.900024,45,100,43
86.900024,87.09445,45,100,43
87.09445,87.28888,45,100,43
90.010826,90.10804,50,100,43
90.20525,90.30247,50,64,43
90.39967,90.49689,50,64,43
90.5941,90.691315,49,64,43
91.177376,91.27459,50,100,43
91.3718,91.46902,50,64,43
91.56622,91.66344,50,64,43
91.76065,91.857864,49,64,43
92.343925,92.53835,45,110,43
92.53835,92.73278,45,110,43
92.73278,92.9272,44,110,43
92.9272,93.12163,42,127,43
93.12163,93.316055,42,110,43
93.316055,93.510475,40,110,43
93.510475,93.7049,38,127,43
93.7049,93.89933,38,110,43
93.89933,94.09375,37,110,43
94.09375,94.28818,35,127,43
94.28818,94.482605,35,110,43
94.482605,94.677025,39,110,43
94.677025,94.87145,40,127,43
94.87145,95.06588,40,110,43
95.06588,95.2603,40,110,43
95.2603,95.45473,33,110,43
95.843575,95.94079,40,100,43
96.038,96.135216,40,64,43
96.23243,96.329636,40,64,43
96.42685,96.62128,45,64,43
97.010124,97.10734,40,100,43
97.20455,97.301765,40,64,43
97.39898,97.49619,40,64,43
97.5934,97.78783,45,64,43
98.176674,98.27389,33,110,43
98.3711,98.468315,33,110,43
98.56553,98.66274,33,110,43
98.75995,98.95438,33,110,43
102.90654,104.91754,45,64,43
104.91754,105.14098,38,64,43
108.2692,110.2802,40,64,43
110.2802,110.50364,33,64,43
113.63186,115.64285,45,64,43
115.64285,115.866295,38,64,43
118.994514,121.00551,40,64,43
121.00551,121.22895,33,64,43
124.13372,124.245445,50,54,43
124.35717,124.804054,50,54,43
124.804054,125.0275,46,54,43
125.0275,125.47439,46,54,43
125.47439,125.69783,47,54,43
125.69783,125.92127,47,54,43
127.0385,132.1777,43,54,43
132.1777,132.40115,46,54,43
132.40115,133.07149,46,54,43
133.07149,133.51837,41,54,43
133.51837,133.74182,46,54,43
133.74182,134.41214,45,54,43
134.41214,134.63559,41,54,43
134.63559,134.85904,43,54,43
134.85904,135.08247,45,54,43
135.08247,135.7528,46,54,43
135.7528,136.19969,41,54,43
136.19969,136.42314,46,54,43
136.42314,137.09348,45,54,43
137.09348,137.31693,41,54,43
137.31693,137.54036,43,54,43
137.54036,137.76381,45,54,43
137.76381,137.98726,46,100,43
138.43414,138.65758,46,100,43
139.10448,139.32791,46,100,43
139.77481,139.99825,46,100,43
140.44513,140.66858,45,100,43
141.11546,141.33891,45,100,43
141.7858,142.00925,45,100,43
142.45613,142.67958,45,100,43
144.91498,145.0588,38,64,43
145.19191,145.65495,38,64,43
145.65495,145.8784,42,64,43
145.8784,146.32529,42,64,43
146.32529,146.54874,47,64,43
146.54874,146.99562,47,64,43
146.99562,147.21907,43,64,43
147.21907,147.66595,43,74,43
147.8894,148.00113,45,64,43
148.11284,148.22456,45,64,43
148.33629,148.44801,45,64,43
148.55974,148.67145,45,64,43
148.78317,148.8949,45,64,43
149.00662,149.11835,45,64,43
149.23006,149.34178,45,64,43
149.4535,149.56523,45,64,43
149.67696,149.78868,45,64,43
149.90039,150.01212,45,64,43
158.39127,158.50299,50,54,43
158.61472,159.0616,50,54,43
159.0616,159.28505,46,54,43
159.28505,159.73193,46,54,43
159.73193,159.95538,47,54,43
159.95538,160.17882,47,54,43
161.29604,166.43526,43,54,43
166.43526,166.65869,46,54,43
166.65869,167.32903,46,54,43
167.32903,167.77591,41,54,43
167.77591,167.99936,46,54,43
167.99936,168.6697,45,54,43
168.6697,168.89314,41,54,43
168.89314,169.11658,43,54,43
169.11658,169.34003,45,54,43
169.34003,170.01036,46,54,43
170.01036,170.45724,41,54,43
170.45724,170.6807,46,54,43
170.6807,171.35101,45,54,43
171.35101,171.57446,41,54,43
171.57446,171.79791,43,54,43
171.79791,172.02135,45,54,43
172.02135,172.2448,46,100,43
172.69168,172.91513,46,100,43
173.36201,173.58546,46,100,43
174.03235,174.2558,46,100,43
174.70268,174.92612,45,100,43
175.37302,175.59645,45,100,43
176.04335,176.26678,45,100,43
176.71367,176.93712,45,100,43
179.17252,179.31635,38,64,43
179.44945,179.9125,38,64,43
179.9125,180.13594,42,64,43
180.13594,180.58284,42,64,43
180.58284,180.80627,47,64,43
180.80627,181.25317,47,64,43
181.25317,181.47661,43,64,43
181.47661,181.9235,43,74,43
182.14694,182.25867,45,64,43
182.37039,182.48212,45,64,43
182.59383,182.70555,45,64,43
182.81728,182.929,45,64,43
183.04073,183.15244,45,64,43
183.26416,183.37589,45,64,43
183.48761,183.59933,45,64,43
183.71106,183.82277,45,64,43
183.9345,184.04622,45,64,43
184.15794,184.26967,45,64,43
190.57034,190.76477,45,100,43
191.15363,191.34805,45,100,43
191.7369,191.93132,45,100,43
191.93132,192.12575,45,100,43
192.12575,192.32018,45,100,43
192.32018,192.5146,45,100,43
195.23654,195.33376,45,100,43
195.43097,195.52818,45,100,43
195.6254,195.72261,44,100,43
195.81982,195.91704,42,127,43
196.01425,196.11147,42,100,43
196.20868,196.30588,46,100,43
196.40309,196.5003,47,127,43
196.59752,196.69473,47,100,43
196.79195,196.88916,35,100,43
196.98637,197.08359,40,100,43
197.56964,197.66685,47,100,43
197.76407,197.86128,47,64,43
197.9585,198.05571,47,64,43
198.15292,198.25014,40,64,43
198.73619,198.8334,47,100,43
198.93062,199.02783,47,64,43
199.12505,199.22226,47,64,43
199.31947,199.41669,40,64,43
199.90274,199.99995,40,100,43
200.09717,200.19438,40,64,43
200.2916,200.38881,40,64,43
200.48602,200.58324,40,64,43
201.06929,201.26372,45,110,43
201.65257,201.847,45,110,43
202.23586,202.43027,45,110,43
202.43027,202.6247,45,110,43
202.6247,202.81912,45,110,43
202.81912,203.01355,45,110,43
205.7355,205.8327,41,100,43
205.92992,206.02713,41,64,43
206.12434,206.22156,41,64,43
206.31877,206.41599,40,64,43
206.90205,206.99927,41,100,43
207.09647,207.19368,41,64,43
207.2909,207.3881,41,64,43
207.48532,207.58253,40,64,43
208.0686,208.26302,48,100,43
208.26302,208.45744,48,100,43
208.45744,208.65187,47,100,43
208.65187,208.8463,45,127,43
208.8463,209.04073,45,100,43
209.04073,209.23515,43,100,43
209.23515,209.42957,41,127,43
209.42957,209.624,41,100,43
209.624,209.81842,40,100,43
209.81842,210.01285,38,127,43
210.01285,210.20728,38,100,43
210.20728,210.4017,42,100,43
210.4017,210.49892,43,127,43
210.59612,210.69333,43,100,43
210.79054,210.88776,31,100,43
210.98497,211.08218,36,100,43
211.56825,211.66547,43,100,43
211.76268,211.85988,43,64,43
211.95709,212.0543,43,64,43
212.15152,212.24873,48,64,43
212.7348,212.83202,43,100,43
212.92923,213.02643,43,64,43
213.12364,213.22086,43,64,43
213.31807,213.41528,48,64,43
213.90135,213.99857,36,100,43
214.09578,214.19298,36,100,43
214.29019,214.3874,36,100,43
214.48462,214.58183,36,100,43
215.15033,217.48343,36,127,43
217.48343,217.67786,36,100,43
217.67786,217.87227,36,100,43
218.0667,218.26112,36,100,43
218.26112,218.45555,36,100,43
218.64998,218.8444,36,100,43
218.8444,219.03882,36,100,43
219.23325,219.33046,36,127,43
219.42767,219.52489,36,100,43
219.6221,219.71931,39,100,43
219.81653,222.14963,38,127,43
222.14963,222.34406,38,100,43
222.34406,222.53848,38,100,43
222.7329,222.92732,38,100,43
222.92732,223.12175,38,100,43
223.31618,223.5106,38,100,43
223.5106,223.70503,38,100,43
223.89944,224.09387,38,127,43
224.09387,224.2883,38,118,43
224.2883,224.48273,38,108,43
226.23254,226.42697,40,127,43
226.42697,226.6214,40,106,43
226.6214,226.81583,40,85,43
228.56566,228.76007,33,127,43
228.76007,228.9545,33,106,43
228.9545,229.14893,33,85,43
230.89876,231.09317,38,127,43
231.09317,231.2876,38,106,43
231.2876,231.48203,38,85,43
233.23186,233.42627,31,127,43
233.42627,233.6207,31,103,43
233.6207,233.81512,31,79,43
233.81512,234.00955,32,54,43
234.00955,234.20398,44,54,43
234.20398,234.3984,44,54,43
234.3984,234.59282,45,54,43
234.98167,235.1761,38,54,43
235.1761,235.37053,38,54,43
235.37053,235.56496,38,54,43
235.56496,235.75937,40,54,43
236.14822,236.34265,40,100,43
236.34265,236.53708,40,100,43
236.53708,236.7315,40,100,43
236.7315,236.92592,40,100,43
237.4016,237.59602,45,100,43
237.98488,238.1793,45,100,43
238.56815,238.76257,45,100,43
238.76257,238.957,45,100,43
238.957,239.15143,45,100,43
239.15143,239.34586,45,100,43
242.06781,242.16501,50,100,43
242.26222,242.35944,50,64,43
242.45665,242.55386,50,64,43
242.65108,242.74829,49,64,43
243.23436,243.33156,50,100,43
243.42877,243.52599,50,64,43
243.6232,243.72041,50,64,43
243.81763,243.91484,49,64,43
244.40091,244.59532,45,110,43
244.59532,244.78975,45,110,43
244.78975,244.98418,44,110,43
244.98418,245.1786,42,127,43
245.1786,245.37303,42,110,43
245.37303,245.56746,40,110,43
245.56746,245.76187,38,127,43
245.76187,245.9563,38,110,43
245.9563,246.15073,37,110,43
246.15073,246.34515,35,127,43
246.34515,246.53958,35,110,43
246.53958,246.73401,39,110,43
246.73401,246.92842,40,127,43
246.92842,247.12285,40,110,43
247.12285,247.31728,40,110,43
247.31728,247.5117,33,110,43
247.90056,247.99777,40,100,43
248.09497,248.19218,40,64,43
248.2894,248.38661,40,64,43
248.48383,248.67825,45,64,43
249.06711,249.16432,40,100,43
249.26152,249.35873,40,64,43
249.45595,249.55316,40,64,43
249.65038,249.8448,45,64,43
250.23366,250.33333,33,110,43
250.43967,250.5536,33,110,43
250.67633,250.8093,33,110,43
250.9545,251.26639,33,110,43
2.2678933,2.4623182,64,100,0
2.2678933,2.4623182,61,100,0
2.2678933,2.4623182,57,100,0
2.2678933,2.4623182,52,100,0
2.2678933,2.4623182,49,100,0
2.2678933,2.4623182,45,100,0
2.8511682,3.0455933,66,100,0
2.8511682,3.0455933,62,100,0
2.8511682,3.0455933,57,100,0
2.8511682,3.0455933,54,100,0
2.8511682,3.0455933,50,100,0
2.8511682,3.0455933,45,100,0
3.4344432,3.6288683,45,100,0
3.4344432,3.6288683,52,100,0
3.4344432,3.6288683,56,100,0
3.4344432,3.6288683,62,100,0
3.4344432,3.6288683,64,100,0
3.4344432,3.6288683,68,100,0
3.6288683,3.8232932,45,100,0
3.6288683,3.8232932,52,100,0
3.6288683,3.8232932,56,100,0
3.6288683,3.8232932,62,100,0
3.6288683,3.8232932,64,100,0
3.6288683,3.8232932,68,100,0
3.8232932,4.0177183,45,100,0
3.8232932,4.0177183,52,100,0
3.8232932,4.0177183,56,100,0
3.8232932,4.0177183,62,100,0
3.8232932,4.0177183,64,100,0
3.8232932,4.0177183,68,100,0
4.0177183,4.2121434,69,100,0
4.0177183,4.2121434,64,100,0
4.0177183,4.2121434,61,100,0
4.0177183,4.2121434,57,100,0
4.0177183,4.2121434,52,100,0
4.0177183,4.2121434,45,100,0
4.3093557,4.357962,81,64,0
4.406568,4.4551744,78,64,0
4.503781,4.5523868,76,64,0
4.600993,4.698206,75,64,0
4.600993,4.698206,66,64,0
4.600993,4.698206,69,64,0
4.7954183,4.8926306,75,64,0
4.7954183,4.8926306,66,64,0
4.7954183,4.8926306,69,64,0
4.9898434,5.0870557,75,64,0
4.9898434,5.0870557,66,64,0
4.9898434,5.0870557,69,64,0
5.184268,5.7675433,83,74,0
5.184268,5.7675433,74,74,0
5.184268,5.7675433,68,74,0
5.184268,5.7675433,64,74,0
5.7675433,5.8647556,75,64,0
5.7675433,5.8647556,66,64,0
5.7675433,5.8647556,69,64,0
5.9619684,6.0591807,75,64,0
5.9619684,6.0591807,66,64,0
5.9619684,6.0591807,69,64,0
6.156393,6.253606,75,64,0
6.156393,6.253606,66,64,0
6.156393,6.253606,69,64,0
6.350818,6.934093,83,74,0
6.350818,6.934093,74,74,0
6.350818,6.934093,68,74,0
6.350818,6.934093,64,74,0
6.934093,7.128518,85,100,0
6.934093,7.128518,76,100,0
6.934093,7.128518,73,100,0
6.934093,7.128518,69,100,0
6.934093,7.128518,64,100,0
6.934093,7.128518,57,100,0
7.322943,7.5173683,56,100,0
7.322943,7.5173683,61,100,0
7.322943,7.5173683,68,100,0
7.322943,7.5173683,73,100,0
7.322943,7.5173683,77,100,0
7.322943,7.5173683,83,100,0
7.5173683,7.7117934,81,100,0
7.5173683,7.7117934,78,100,0
7.5173683,7.7117934,73,100,0
7.5173683,7.7117934,66,100,0
7.5173683,7.7117934,61,100,0
7.5173683,7.7117934,54,100,0
7.906218,8.100643,58,100,0
7.906218,8.100643,64,100,0
7.906218,8.100643,68,100,0
7.906218,8.100643,76,100,0
7.906218,8.100643,80,100,0
8.100643,8.295068,78,100,0
8.100643,8.295068,76,100,0
8.100643,8.295068,73,100,0
8.100643,8.295068,66,100,0
8.100643,8.295068,64,100,0
8.100643,8.295068,59,100,0
8.489493,8.683918,59,100,0
8.489493,8.683918,66,100,0
8.489493,8.683918,69,100,0
8.489493,8.683918,75,100,0
8.489493,8.683918,78,100,0
8.489493,8.683918,83,100,0
8.683918,8.781131,80,100,0
8.683918,8.781131,71,100,0
8.683918,8.781131,68,100,0
8.683918,8.781131,64,100,0
8.878344,8.975555,64,64,0
8.878344,8.975555,68,64,0
8.878344,8.975555,71,64,0
8.878344,8.975555,80,64,0
9.072768,9.169981,83,64,0
9.072768,9.169981,71,64,0
9.072768,9.169981,68,64,0
9.072768,9.169981,64,64,0
9.267193,9.364406,59,64,0
9.267193,9.364406,63,64,0
9.267193,9.364406,69,64,0
9.267193,9.364406,71,64,0
9.267193,9.364406,78,64,0
9.850469,9.94768,80,100,0
9.850469,9.94768,71,100,0
9.850469,9.94768,68,100,0
9.850469,9.94768,64,100,0
10.044893,10.142106,64,64,0
10.044893,10.142106,68,64,0
10.044893,10.142106,71,64,0
10.044893,10.142106,80,64,0
10.239318,10.336531,83,64,0
10.239318,10.336531,71,64,0
10.239318,10.336531,68,64,0
10.239318,10.336531,64,64,0
10.4337435,10.530955,59,64,0
10.4337435,10.530955,63,64,0
10.4337435,10.530955,69,64,0
10.4337435,10.530955,71,64,0
10.4337435,10.530955,78,64,0
11.017018,11.114231,80,100,0
11.017018,11.114231,71,100,0
11.017018,11.114231,64,100,0
11.017018,11.114231,76,100,0
11.211443,11.308656,64,64,0
11.211443,11.308656,71,64,0
11.211443,11.308656,80,64,0
11.211443,11.308656,76,64,0
11.405869,11.50308,83,64,0
11.405869,11.50308,64,64,0
11.405869,11.50308,76,64,0
11.405869,11.50308,68,64,0
11.600293,11.697506,88,64,0
11.600293,11.697506,80,64,0
11.600293,11.697506,76,64,0
11.600293,11.697506,74,64,0
11.600293,11.697506,71,64,0
11.600293,11.697506,64,64,0
12.766843,12.961268,64,110,0
12.766843,12.961268,61,110,0
12.766843,12.961268,57,110,0
12.766843,12.961268,52,110,0
12.766843,12.961268,45,110,0
12.766843,12.961268,49,110,0
13.350119,13.544543,45,110,0
13.350119,13.544543,54,110,0
13.350119,13.544543,50,110,0
13.350119,13.544543,57,110,0
13.350119,13.544543,62,110,0
13.350119,13.544543,66,110,0
13.9333935,14.127818,45,110,0
13.9333935,14.127818,52,110,0
13.9333935,14.127818,56,110,0
13.9333935,14.127818,62,110,0
13.9333935,14.127818,64,110,0
13.9333935,14.127818,68,110,0
14.127818,14.322244,45,110,0
14.127818,14.322244,52,110,0
14.127818,14.322244,56,110,0
14.127818,14.322244,62,110,0
14.127818,14.322244,64,110,0
14.127818,14.322244,68,110,0
14.322244,14.516668,45,110,0
14.322244,14.516668,52,110,0
14.322244,14.516668,56,110,0
14.322244,14.516668,62,110,0
14.322244,14.516668,64,110,0
14.322244,14.516668,68,110,0
14.516668,14.711093,45,110,0
14.516668,14.711093,52,110,0
14.516668,14.711093,57,110,0
14.516668,14.711093,61,110,0
14.516668,14.711093,64,110,0
14.516668,14.711093,69,110,0
14.808306,14.856912,81,64,0
14.905519,14.954124,78,64,0
15.00273,15.051337,76,64,0
15.099943,15.197156,75,64,0
15.099943,15.197156,69,64,0
15.099943,15.197156,66,64,0
15.294368,15.391581,75,64,0
15.294368,15.391581,69,64,0
15.294368,15.391581,66,64,0
15.488793,15.586006,75,64,0
15.488793,15.586006,69,64,0
15.488793,15.586006,66,64,0
15.683218,16.266493,83,74,0
15.683218,16.266493,74,74,0
15.683218,16.266493,68,74,0
15.683218,16.266493,64,74,0
16.266493,16.363707,75,64,0
16.266493,16.363707,69,64,0
16.266493,16.363707,66,64,0
16.460918,16.55813,75,64,0
16.460918,16.55813,69,64,0
16.460918,16.55813,66,64,0
16.655344,16.752556,75,64,0
16.655344,16.752556,69,64,0
16.655344,16.752556,66,64,0
16.849768,17.433043,83,74,0
16.849768,17.433043,74,74,0
16.849768,17.433043,68,74,0
16.849768,17.433043,64,74,0
17.433043,17.530256,83,64,0
17.433043,17.530256,74,64,0
17.433043,17.530256,67,64,0
17.433043,17.530256,65,64,0
18.016317,18.113531,79,100,0
18.016317,18.113531,84,100,0
18.016317,18.113531,72,100,0
18.016317,18.113531,67,100,0
18.016317,18.113531,64,100,0
18.210743,18.307955,79,64,0
18.210743,18.307955,84,64,0
18.210743,18.307955,72,64,0
18.210743,18.307955,67,64,0
18.210743,18.307955,64,64,0
18.405169,18.50238,79,64,0
18.405169,18.50238,84,64,0
18.405169,18.50238,72,64,0
18.405169,18.50238,67,64,0
18.405169,18.50238,64,64,0
18.599594,18.696806,65,64,0
18.599594,18.696806,67,64,0
18.599594,18.696806,74,64,0
18.599594,18.696806,83,64,0
19.182869,19.28008,84,100,0
19.182869,19.28008,79,100,0
19.182869,19.28008,72,100,0
19.182869,19.28008,67,100,0
19.182869,19.28008,64,100,0
19.377293,19.474506,64,64,0
19.377293,19.474506,67,64,0
19.377293,19.474506,72,64,0
19.377293,19.474506,79,64,0
19.377293,19.474506,84,64,0
19.571718,19.66893,64,64,0
19.571718,19.66893,67,64,0
19.571718,19.66893,72,64,0
19.571718,19.66893,79,64,0
19.571718,19.66893,84,64,0
19.766144,19.960567,60,100,0
19.766144,19.960567,67,100,0
19.766144,19.960567,72,100,0
19.766144,19.960567,76,100,0
19.766144,19.960567,79,100,0
19.766144,19.960567,88,100,0
20.154993,20.349419,86,100,0
20.154993,20.349419,80,100,0
20.154993,20.349419,76,100,0
20.154993,20.349419,68,100,0
20.154993,20.349419,64,100,0
20.154993,20.349419,59,100,0
20.349419,20.543842,57,100,0
20.349419,20.543842,64,100,0
20.349419,20.543842,69,100,0
20.349419,20.543842,76,100,0
20.349419,20.543842,81,100,0
20.349419,20.543842,84,100,0
20.738268,20.932693,82,100,0
20.738268,20.932693,76,100,0
20.738268,20.932693,72,100,0
20.738268,20.932693,64,100,0
20.738268,20.932693,60,100,0
20.738268,20.932693,55,100,0
20.932693,21.12712,53,100,0
20.932693,21.12712,60,100,0
20.932693,21.12712,72,100,0
20.932693,21.12712,77,100,0
20.932693,21.12712,81,100,0
20.932693,21.12712,65,100,0
21.321543,21.515968,79,100,0
21.321543,21.515968,73,100,0
21.321543,21.515968,69,100,0
21.321543,21.515968,61,100,0
21.321543,21.515968,57,100,0
21.321543,21.515968,52,100,0
21.515968,21.710394,50,100,0
21.515968,21.710394,57,100,0
21.515968,21.710394,62,100,0
21.515968,21.710394,69,100,0
21.515968,21.710394,77,100,0
21.515968,21.710394,74,100,0
21.904818,22.099243,76,100,0
21.904818,22.099243,72,100,0
21.904818,22.099243,64,100,0
21.904818,22.099243,60,100,0
21.904818,22.099243,54,100,0
22.099243,22.293669,55,100,0
22.099243,22.293669,62,100,0
22.099243,22.293669,60,100,0
22.099243,22.293669,69,100,0
22.099243,22.293669,72,100,0
22.099243,22.293669,74,100,0
22.488092,22.682518,79,100,0
22.488092,22.682518,74,100,0
22.488092,22.682518,71,100,0
22.488092,22.682518,62,100,0
22.488092,22.682518,65,100,0
22.488092,22.682518,55,100,0
22.682518,22.77973,60,64,0
22.682518,22.77973,64,64,0
22.682518,22.77973,67,64,0
22.682518,22.77973,76,64,0
22.876944,22.974155,64,64,0
22.876944,22.974155,60,64,0
22.876944,22.974155,67,64,0
22.876944,22.974155,76,64,0
23.07137,23.168581,60,64,0
23.07137,23.168581,64,64,0
23.07137,23.168581,67,64,0
23.07137,23.168581,79,64,0
23.265793,23.460218,74,64,0
23.265793,23.460218,67,64,0
23.265793,23.460218,65,64,0
23.265793,23.460218,59,64,0
23.265793,23.460218,55,64,0
23.849068,23.946281,60,64,0
23.849068,23.946281,64,64,0
23.849068,23.946281,67,64,0
23.849068,23.946281,76,64,0
24.043493,24.140705,64,64,0
24.043493,24.140705,60,64,0
24.043493,24.140705,67,64,0
24.043493,24.140705,76,64,0
24.237919,24.33513,60,64,0
24.237919,24.33513,64,64,0
24.237919,24.33513,67,64,0
24.237919,24.33513,79,64,0
24.432343,24.626768,74,64,0
24.432343,24.626768,67,64,0
24.432343,24.626768,65,64,0
24.432343,24.626768,59,64,0
24.432343,24.626768,55,64,0
25.015617,25.112831,60,100,0
25.015617,25.112831,64,100,0
25.015617,25.112831,72,100,0
25.015617,25.112831,76,100,0
25.210043,25.307255,60,100,0
25.210043,25.307255,67,100,0
25.210043,25.307255,72,100,0
25.210043,25.307255,76,100,0
25.404469,25.50168,60,100,0
25.404469,25.50168,67,100,0
25.404469,25.50168,72,100,0
25.404469,25.50168,76,100,0
25.404469,25.50168,79,100,0
25.598894,25.793318,84,100,0
25.598894,25.793318,76,100,0
25.598894,25.793318,72,100,0
25.598894,25.793318,67,100,0
25.598894,25.793318,60,100,0
26.604841,26.653446,66,64,0
26.604841,26.653446,78,64,0
26.702053,26.75066,67,64,0
26.702053,26.75066,79,64,0
26.799265,26.847872,69,64,0
26.799265,26.847872,81,64,0
26.847872,27.236721,70,74,0
26.847872,27.236721,82,74,0
27.236721,27.431147,69,64,0
27.236721,27.431147,81,64,0
27.431147,27.819996,67,74,0
27.431147,27.819996,79,74,0
27.819996,28.014421,65,64,0
27.819996,28.014421,77,64,0
28.014421,28.111633,64,64,0
28.014421,28.111633,76,64,0
28.208847,28.306059,64,64,0
28.208847,28.306059,76,64,0
28.403273,28.500484,65,64,0
28.403273,28.500484,77,64,0
28.597696,28.69491,67,64,0
28.597696,28.69491,79,64,0
28.792122,28.889334,67,64,0
28.792122,28.889334,79,64,0
28.986547,29.08376,71,64,0
28.986547,29.08376,83,64,0
29.180971,29.278185,72,100,0
29.180971,29.278185,84,100,0
29.375397,29.472609,72,100,0
29.375397,29.472609,84,100,0
29.569822,29.667034,74,110,0
29.569822,29.667034,86,110,0
29.764246,29.86146,72,100,0
29.764246,29.86146,84,100,0
29.958672,30.055883,72,100,0
29.958672,30.055883,84,100,0
30.153097,30.250309,74,110,0
30.153097,30.250309,86,110,0
30.34752,30.444735,72,100,0
30.34752,30.444735,84,100,0
30.541946,30.63916,72,100,0
30.541946,30.63916,84,100,0
30.736372,30.833584,74,110,0
30.736372,30.833584,86,110,0
30.930798,31.125221,84,100,0
30.930798,31.125221,72,100,0
31.27104,31.319647,68,64,0
31.27104,31.319647,80,64,0
31.368254,31.416859,69,64,0
31.368254,31.416859,81,64,0
31.465466,31.514072,71,64,0
31.465466,31.514072,83,64,0
31.514072,31.902922,72,74,0
31.514072,31.902922,84,74,0
31.902922,32.097347,82,64,0
31.902922,32.097347,70,64,0
32.097347,32.4862,69,74,0
32.097347,32.4862,81,74,0
32.4862,32.680622,67,64,0
32.4862,32.680622,79,64,0
32.680622,32.777836,66,64,0
32.680622,32.777836,78,64,0
32.875046,32.97226,66,64,0
32.875046,32.97226,78,64,0
33.069473,33.166683,67,64,0
33.069473,33.166683,79,64,0
33.263897,33.36111,69,64,0
33.263897,33.36111,81,64,0
33.45832,33.555534,69,64,0
33.45832,33.555534,81,64,0
33.65275,33.749958,73,64,0
33.65275,33.749958,85,64,0
33.84717,33.944386,74,100,0
33.84717,33.944386,86,100,0
34.041595,34.13881,74,100,0
34.041595,34.13881,86,100,0
34.236023,34.333233,76,110,0
34.236023,34.333233,88,110,0
34.430447,34.52766,74,100,0
34.430447,34.52766,86,100,0
34.62487,34.722084,74,100,0
34.62487,34.722084,86,100,0
34.819298,34.916508,76,110,0
34.819298,34.916508,88,110,0
35.01372,35.110935,74,100,0
35.01372,35.110935,86,100,0
35.208145,35.30536,74,100,0
35.208145,35.30536,86,100,0
35.402573,35.499783,76,110,0
35.402573,35.499783,88,110,0
35.596996,35.79142,86,100,0
35.596996,35.79142,74,100,0
36.18027,36.277485,80,64,0
36.18027,36.277485,74,64,0
36.18027,36.277485,71,64,0
36.18027,36.277485,64,64,0
36.374695,36.47191,80,64,0
36.374695,36.47191,74,64,0
36.374695,36.47191,71,64,0
36.374695,36.47191,64,64,0
36.569122,36.666336,81,74,0
36.569122,36.666336,74,74,0
36.569122,36.666336,71,74,0
36.569122,36.666336,65,74,0
36.763546,36.86076,80,64,0
36.763546,36.86076,74,64,0
36.763546,36.86076,71,64,0
36.763546,36.86076,64,64,0
36.957973,37.055183,80,64,0
36.957973,37.055183,74,64,0
36.957973,37.055183,71,64,0
36.957973,37.055183,64,64,0
37.152397,37.24961,81,74,0
37.152397,37.24961,74,74,0
37.152397,37.24961,71,74,0
37.152397,37.24961,65,74,0
37.34682,37.444035,80,64,0
37.34682,37.444035,74,64,0
37.34682,37.444035,71,64,0
37.34682,37.444035,64,64,0
37.54125,37.63846,80,64,0
37.54125,37.63846,74,64,0
37.54125,37.63846,71,64,0
37.54125,37.63846,64,64,0
37.735672,37.832886,81,74,0
37.735672,37.832886,74,74,0
37.735672,37.832886,71,74,0
37.735672,37.832886,65,74,0
37.930096,38.124523,80,64,0
37.930096,38.124523,74,64,0
37.930096,38.124523,71,64,0
37.930096,38.124523,64,64,0
38.51337,39.096645,76,64,0
38.51337,39.096645,88,64,0
39.096645,39.67992,79,64,0
39.096645,39.67992,91,64,0
39.67992,40.263195,76,64,0
39.67992,40.263195,88,64,0
40.263195,40.84647,81,64,0
40.263195,40.84647,93,64,0
40.84647,40.943684,78,64,0
40.84647,40.943684,72,64,0
40.84647,40.943684,69,64,0
40.84647,40.943684,62,64,0
41.040897,41.13811,78,64,0
41.040897,41.13811,72,64,0
41.040897,41.13811,69,64,0
41.040897,41.13811,62,64,0
41.23532,41.332535,79,74,0
41.23532,41.332535,72,74,0
41.23532,41.332535,69,74,0
41.23532,41.332535,63,74,0
41.42975,41.52696,78,64,0
41.42975,41.52696,72,64,0
41.42975,41.52696,69,64,0
41.42975,41.52696,62,64,0
41.624172,41.721386,78,64,0
41.624172,41.721386,72,64,0
41.624172,41.721386,69,64,0
41.624172,41.721386,62,64,0
41.818596,41.91581,79,74,0
41.818596,41.91581,72,74,0
41.818596,41.91581,69,74,0
41.818596,41.91581,63,74,0
42.013023,42.110233,78,64,0
42.013023,42.110233,72,64,0
42.013023,42.110233,69,64,0
42.013023,42.110233,62,64,0
42.207447,42.30466,78,64,0
42.207447,42.30466,72,64,0
42.207447,42.30466,69,64,0
42.207447,42.30466,62,64,0
42.40187,42.499084,79,74,0
42.40187,42.499084,72,74,0
42.40187,42.499084,69,74,0
42.40187,42.499084,63,74,0
42.5963,42.79072,78,64,0
42.5963,42.79072,72,64,0
42.5963,42.79072,69,64,0
42.5963,42.79072,62,64,0
43.179573,43.762848,74,64,0
43.179573,43.762848,86,64,0
43.762848,44.346123,77,64,0
43.762848,44.346123,89,64,0
44.346123,44.929398,74,64,0
44.346123,44.929398,86,64,0
44.929398,45.512672,79,64,0
44.929398,45.512672,91,64,0
45.512672,45.707096,88,64,0
45.512672,45.707096,76,64,0
46.095947,46.29037,85,54,0
46.095947,46.29037,76,54,0
46.095947,46.29037,73,54,0
46.095947,46.29037,69,54,0
46.29037,46.4848,85,54,0
46.29037,46.4848,76,54,0
46.29037,46.4848,73,54,0
46.29037,46.4848,69,54,0
46.4848,46.679222,85,54,0
46.4848,46.679222,76,54,0
46.4848,46.679222,73,54,0
46.4848,46.679222,69,54,0
46.679222,46.873646,62,54,0
46.679222,46.873646,66,54,0
46.679222,46.873646,71,54,0
46.679222,46.873646,78,54,0
46.679222,46.873646,83,54,0
47.262497,47.45692,80,54,0
47.262497,47.45692,74,54,0
47.262497,47.45692,71,54,0
47.262497,47.45692,64,54,0
47.45692,47.65135,80,54,0
47.45692,47.65135,74,54,0
47.45692,47.65135,71,54,0
47.45692,47.65135,64,54,0
47.65135,47.84577,80,54,0
47.65135,47.84577,74,54,0
47.65135,47.84577,71,54,0
47.65135,47.84577,64,54,0
49.099148,49.293575,45,100,0
49.099148,49.293575,49,100,0
49.099148,49.293575,52,100,0
49.099148,49.293575,57,100,0
49.099148,49.293575,64,100,0
49.099148,49.293575,61,100,0
49.682423,49.87685,45,100,0
49.682423,49.87685,50,100,0
49.682423,49.87685,54,100,0
49.682423,49.87685,57,100,0
49.682423,49.87685,66,100,0
49.682423,49.87685,62,100,0
50.265697,50.460125,56,100,0
50.265697,50.460125,52,100,0
50.265697,50.460125,45,100,0
50.265697,50.460125,64,100,0
50.265697,50.460125,68,100,0
50.265697,50.460125,62,100,0
50.460125,50.65455,56,100,0
50.460125,50.65455,52,100,0
50.460125,50.65455,45,100,0
50.460125,50.65455,64,100,0
50.460125,50.65455,68,100,0
50.460125,50.65455,62,100,0
50.65455,50.848972,56,100,0
50.65455,50.848972,52,100,0
50.65455,50.848972,45,100,0
50.65455,50.848972,64,100,0
50.65455,50.848972,68,100,0
50.65455,50.848972,62,100,0
50.848972,51.0434,69,100,0
50.848972,51.0434,64,100,0
50.848972,51.0434,61,100,0
50.848972,51.0434,57,100,0
50.848972,51.0434,52,100,0
50.848972,51.0434,45,100,0
51.14061,51.237823,81,64,0
51.237823,51.335037,78,64,0
51.335037,51.432247,76,64,0
51.432247,51.52946,75,64,0
51.432247,51.52946,69,64,0
51.432247,51.52946,66,64,0
51.626675,51.723885,75,64,0
51.626675,51.723885,66,64,0
51.626675,51.723885,69,64,0
51.8211,51.918312,75,64,0
51.8211,51.918312,69,64,0
51.8211,51.918312,66,64,0
52.015522,52.598797,64,74,0
52.015522,52.598797,68,74,0
52.015522,52.598797,74,74,0
52.015522,52.598797,83,74,0
52.598797,52.69601,75,64,0
52.598797,52.69601,69,64,0
52.598797,52.69601,66,64,0
52.793224,52.890434,75,64,0
52.793224,52.890434,66,64,0
52.793224,52.890434,69,64,0
52.987648,53.08486,75,64,0
52.987648,53.08486,69,64,0
52.987648,53.08486,66,64,0
53.18207,53.765347,64,74,0
53.18207,53.765347,68,74,0
53.18207,53.765347,74,74,0
53.18207,53.765347,83,74,0
53.765347,53.959774,80,64,0
53.765347,53.959774,71,64,0
53.765347,53.959774,64,64,0
53.765347,53.959774,62,64,0
54.348625,54.445835,81,100,0
54.348625,54.445835,76,100,0
54.348625,54.445835,69,100,0
54.348625,54.445835,61,100,0
54.348625,54.445835,64,100,0
54.54305,54.640263,81,64,0
54.54305,54.640263,76,64,0
54.54305,54.640263,69,64,0
54.54305,54.640263,64,64,0
54.54305,54.640263,61,64,0
54.737473,54.834686,81,64,0
54.737473,54.834686,76,64,0
54.737473,54.834686,69,64,0
54.737473,54.834686,64,64,0
54.737473,54.834686,61,64,0
54.9319,55.126324,62,64,0
54.9319,55.126324,64,64,0
54.9319,55.126324,71,64,0
54.9319,55.126324,80,64,0
55.515175,55.612385,81,100,0
55.515175,55.612385,76,100,0
55.515175,55.612385,69,100,0
55.515175,55.612385,64,100,0
55.515175,55.612385,61,100,0
55.7096,55.806812,81,64,0
55.7096,55.806812,76,64,0
55.7096,55.806812,69,64,0
55.7096,55.806812,64,64,0
55.7096,55.806812,61,64,0
55.904022,56.001236,81,64,0
55.904022,56.001236,76,64,0
55.904022,56.001236,69,64,0
55.904022,56.001236,64,64,0
55.904022,56.001236,61,64,0
56.09845,56.292873,57,110,0
56.09845,56.292873,64,110,0
56.09845,56.292873,69,110,0
56.09845,56.292873,73,110,0
56.09845,56.292873,76,110,0
56.09845,56.292873,85,110,0
56.487297,56.681725,83,110,0
56.487297,56.681725,77,110,0
56.487297,56.681725,73,110,0
56.487297,56.681725,65,110,0
56.487297,56.681725,61,110,0
56.487297,56.681725,56,110,0
56.681725,56.87615,54,110,0
56.681725,56.87615,61,110,0
56.681725,56.87615,66,110,0
56.681725,56.87615,73,110,0
56.681725,56.87615,78,110,0
56.681725,56.87615,81,110,0
57.07057,57.265,79,110,0
57.07057,57.265,69,110,0
57.07057,57.265,73,110,0
57.07057,57.265,61,110,0
57.07057,57.265,57,110,0
57.07057,57.265,52,110,0
57.265,57.459423,50,110,0
57.265,57.459423,57,110,0
57.265,57.459423,62,110,0
57.265,57.459423,69,110,0
57.265,57.459423,74,110,0
57.265,57.459423,78,110,0
57.653847,57.848274,76,110,0
57.653847,57.848274,70,110,0
57.653847,57.848274,66,110,0
57.653847,57.848274,58,110,0
57.653847,57.848274,54,110,0
57.653847,57.848274,49,110,0
57.848274,58.042698,47,110,0
57.848274,58.042698,54,110,0
57.848274,58.042698,59,110,0
57.848274,58.042698,66,110,0
57.848274,58.042698,71,110,0
57.848274,58.042698,74,110,0
58.23712,58.43155,73,110,0
58.23712,58.43155,69,110,0
58.23712,58.43155,61,110,0
58.23712,58.43155,57,110,0
58.23712,58.43155,51,110,0
58.43155,58.625973,52,110,0
58.43155,58.625973,57,110,0
58.43155,58.625973,59,110,0
58.43155,58.625973,66,110,0
58.43155,58.625973,69,110,0
58.43155,58.625973,71,110,0
58.8204,59.014824,76,110,0
58.8204,59.014824,71,110,0
58.8204,59.014824,68,110,0
58.8204,59.014824,62,110,0
58.8204,59.014824,59,110,0
58.8204,59.014824,52,110,0
59.014824,59.112038,61,64,0
59.014824,59.112038,57,64,0
59.014824,59.112038,64,64,0
59.014824,59.112038,69,64,0
59.014824,59.112038,73,64,0
59.209248,59.30646,61,64,0
59.209248,59.30646,57,64,0
59.209248,59.30646,64,64,0
59.209248,59.30646,73,64,0
59.403675,59.500885,61,64,0
59.403675,59.500885,57,64,0
59.403675,59.500885,64,64,0
59.403675,59.500885,76,64,0
59.5981,59.792522,71,64,0
59.5981,59.792522,64,64,0
59.5981,59.792522,62,64,0
59.5981,59.792522,56,64,0
59.5981,59.792522,52,64,0
60.181374,60.278587,69,64,0
60.181374,60.278587,73,64,0
60.181374,60.278587,76,64,0
60.181374,60.278587,85,64,0
60.375797,60.47301,69,64,0
60.375797,60.47301,73,64,0
60.375797,60.47301,76,64,0
60.375797,60.47301,85,64,0
60.570225,60.667435,69,64,0
60.570225,60.667435,73,64,0
60.570225,60.667435,76,64,0
60.570225,60.667435,88,64,0
60.76465,60.959072,83,64,0
60.76465,60.959072,76,64,0
60.76465,60.959072,74,64,0
60.76465,60.959072,64,64,0
60.76465,60.959072,68,64,0
61.347923,61.445137,69,100,0
61.347923,61.445137,73,100,0
61.347923,61.445137,81,100,0
61.347923,61.445137,85,100,0
61.542347,61.63956,69,100,0
61.542347,61.63956,76,100,0
61.542347,61.63956,81,100,0
61.542347,61.63956,85,100,0
61.736774,61.833984,69,100,0
61.736774,61.833984,76,100,0
61.736774,61.833984,81,100,0
61.736774,61.833984,88,100,0
61.736774,61.833984,85,100,0
61.9312,62.12562,93,100,0
61.9312,62.12562,88,100,0
61.9312,62.12562,85,100,0
61.9312,62.12562,81,100,0
61.9312,62.12562,76,100,0
61.9312,62.12562,73,100,0
61.9312,62.12562,69,100,0
62.854717,62.903324,66,64,0
62.854717,62.903324,78,64,0
62.95193,63.000534,67,64,0
62.95193,63.000534,79,64,0
63.04914,63.097748,69,64,0
63.04914,63.097748,81,64,0
63.097748,63.4866,70,74,0
63.097748,63.4866,82,74,0
63.4866,63.681023,69,64,0
63.4866,63.681023,81,64,0
63.681023,64.06987,67,74,0
63.681023,64.06987,79,74,0
64.06987,64.2643,65,64,0
64.06987,64.2643,77,64,0
64.2643,64.36151,64,64,0
64.2643,64.36151,76,64,0
64.458725,64.55594,64,64,0
64.458725,64.55594,76,64,0
64.653145,64.75036,65,64,0
64.653145,64.75036,77,64,0
64.84757,64.944786,67,64,0
64.84757,64.944786,79,64,0
65.042,65.13921,67,64,0
65.042,65.13921,79,64,0
65.23642,65.33363,71,64,0
65.23642,65.33363,83,64,0
65.43085,65.52806,72,100,0
65.43085,65.52806,84,100,0
65.625275,65.72249,72,100,0
65.625275,65.72249,84,100,0
65.8197,65.91691,74,110,0
65.8197,65.91691,86,110,0
66.01412,66.111336,72,100,0
66.01412,66.111336,84,100,0
66.20855,66.30576,72,100,0
66.20855,66.30576,84,100,0
66.40298,66.50018,74,110,0
66.40298,66.50018,86,110,0
66.5974,66.69461,72,100,0
66.5974,66.69461,84,100,0
66.791824,66.88904,72,100,0
66.791824,66.88904,84,100,0
66.98625,67.08346,74,110,0
66.98625,67.08346,86,110,0
67.18067,67.3751,84,100,0
67.18067,67.3751,72,100,0
67.52092,67.56953,68,64,0
67.52092,67.56953,80,64,0
67.618126,67.66673,69,64,0
67.618126,67.66673,81,64,0
67.71534,67.76395,71,64,0
67.71534,67.76395,83,64,0
67.76395,68.1528,72,74,0
67.76395,68.1528,84,74,0
68.1528,68.34722,82,64,0
68.1528,68.34722,70,64,0
68.34722,68.73608,69,74,0
68.34722,68.73608,81,74,0
68.73608,68.9305,67,64,0
68.73608,68.9305,79,64,0
68.9305,69.02771,66,64,0
68.9305,69.02771,78,64,0
69.12492,69.22214,66,64,0
69.12492,69.22214,78,64,0
69.31935,69.41656,67,64,0
69.31935,69.41656,79,64,0
69.51377,69.610985,69,64,0
69.51377,69.610985,81,64,0
69.7082,69.80541,69,64,0
69.7082,69.80541,81,64,0
69.902626,69.99983,73,64,0
69.902626,69.99983,85,64,0
70.097046,70.19426,74,100,0
70.097046,70.19426,86,100,0
70.29147,70.38869,74,100,0
70.29147,70.38869,86,100,0
70.4859,70.583115,76,110,0
70.4859,70.583115,88,110,0
70.68032,70.777534,74,100,0
70.68032,70.777534,86,100,0
70.87475,70.97196,74,100,0
70.87475,70.97196,86,100,0
71.069176,71.16639,76,110,0
71.069176,71.16639,88,110,0
71.263596,71.36081,74,100,0
71.263596,71.36081,86,100,0
71.45802,71.55524,74,100,0
71.45802,71.55524,86,100,0
71.65245,71.749664,76,110,0
71.65245,71.749664,88,110,0
71.84687,72.0413,86,100,0
71.84687,72.0413,74,100,0
72.430145,72.52736,80,64,0
72.430145,72.52736,74,64,0
72.430145,72.52736,71,64,0
72.430145,72.52736,64,64,0
72.62457,72.72179,80,64,0
72.62457,72.72179,74,64,0
72.62457,72.72179,71,64,0
72.62457,72.72179,64,64,0
72.819,72.916214,81,74,0
72.819,72.916214,74,74,0
72.819,72.916214,71,74,0
72.819,72.916214,65,74,0
73.01342,73.110634,80,64,0
73.01342,73.110634,74,64,0
73.01342,73.110634,71,64,0
73.01342,73.110634,64,64,0
73.20785,73.30506,80,64,0
73.20785,73.30506,74,64,0
73.20785,73.30506,71,64,0
73.20785,73.30506,64,64,0
73.402275,73.49949,81,74,0
73.402275,73.49949,74,74,0
73.402275,73.49949,71,74,0
73.402275,73.49949,65,74,0
73.596695,73.69391,80,64,0
73.596695,73.69391,74,64,0
73.596695,73.69391,71,64,0
73.596695,73.69391,64,64,0
73.79112,73.888336,80,64,0
73.79112,73.888336,74,64,0
73.79112,73.888336,71,64,0
73.79112,73.888336,64,64,0
73.98555,74.08276,81,74,0
73.98555,74.08276,74,74,0
73.98555,74.08276,71,74,0
73.98555,74.08276,65,74,0
74.17997,74.3744,80,64,0
74.17997,74.3744,74,64,0
74.17997,74.3744,71,64,0
74.17997,74.3744,64,64,0
74.763245,75.34653,76,64,0
74.763245,75.34653,88,64,0
75.34653,75.9298,79,64,0
75.34653,75.9298,91,64,0
75.9298,76.51308,76,64,0
75.9298,76.51308,88,64,0
76.51308,77.09635,81,64,0
76.51308,77.09635,93,64,0
77.09635,77.19356,78,64,0
77.09635,77.19356,72,64,0
77.09635,77.19356,69,64,0
77.09635,77.19356,62,64,0
77.29077,77.387985,78,64,0
77.29077,77.387985,72,64,0
77.29077,77.387985,69,64,0
77.29077,77.387985,62,64,0
77.4852,77.58241,79,74,0
77.4852,77.58241,72,74,0
77.4852,77.58241,69,74,0
77.4852,77.58241,63,74,0
77.67963,77.77683,78,64,0
77.67963,77.77683,72,64,0
77.67963,77.77683,69,64,0
77.67963,77.77683,62,64,0
77.87405,77.97126,78,64,0
77.87405,77.97126,72,64,0
77.87405,77.97126,69,64,0
77.87405,77.97126,62,64,0
78.068474,78.16569,79,74,0
78.068474,78.16569,72,74,0
78.068474,78.16569,69,74,0
78.068474,78.16569,63,74,0
78.2629,78.36011,78,64,0
78.2629,78.36011,72,64,0
78.2629,78.36011,69,64,0
78.2629,78.36011,62,64,0
78.45732,78.554535,78,64,0
78.45732,78.554535,72,64,0
78.45732,78.554535,69,64,0
78.45732,78.554535,62,64,0
78.65175,78.74896,79,74,0
78.65175,78.74896,72,74,0
78.65175,78.74896,69,74,0
78.65175,78.74896,63,74,0
78.846176,79.040596,78,64,0
78.846176,79.040596,72,64,0
78.846176,79.040596,69,64,0
78.846176,79.040596,62,64,0
79.42945,80.012726,74,64,0
79.42945,80.012726,86,64,0
80.012726,80.596,77,64,0
80.012726,80.596,89,64,0
80.596,81.179276,74,64,0
80.596,81.179276,86,64,0
81.179276,81.76255,79,64,0
81.179276,81.76255,91,64,0
81.76255,81.95697,88,64,0
81.76255,81.95697,76,64,0
82.345825,82.540245,85,54,0
82.345825,82.540245,76,54,0
82.345825,82.540245,73,54,0
82.345825,82.540245,69,54,0
82.540245,82.73467,85,54,0
82.540245,82.73467,76,54,0
82.540245,82.73467,73,54,0
82.540245,82.73467,69,54,0
82.73467,82.9291,85,54,0
82.73467,82.9291,76,54,0
82.73467,82.9291,73,54,0
82.73467,82.9291,69,54,0
82.9291,83.12352,62,54,0
82.9291,83.12352,66,54,0
82.9291,83.12352,71,54,0
82.9291,83.12352,78,54,0
82.9291,83.12352,83,54,0
83.512375,83.706795,80,54,0
83.512375,83.706795,74,54,0
83.512375,83.706795,71,54,0
83.512375,83.706795,64,54,0
83.706795,83.90122,80,54,0
83.706795,83.90122,74,54,0
83.706795,83.90122,71,54,0
83.706795,83.90122,64,54,0
83.90122,84.09565,80,54,0
83.90122,84.09565,74,54,0
83.90122,84.09565,71,54,0
83.90122,84.09565,64,54,0
85.34463,85.539055,45,100,0
85.34463,85.539055,49,100,0
85.34463,85.539055,52,100,0
85.34463,85.539055,57,100,0
85.34463,85.539055,64,100,0
85.34463,85.539055,61,100,0
85.9279,86.12233,45,100,0
85.9279,86.12233,50,100,0
85.9279,86.12233,54,100,0
85.9279,86.12233,57,100,0
85.9279,86.12233,66,100,0
85.9279,86.12233,62,100,0
86.51118,86.705605,56,100,0
86.51118,86.705605,52,100,0
86.51118,86.705605,45,100,0
86.51118,86.705605,64,100,0
86.51118,86.705605,68,100,0
86.51118,86.705605,62,100,0
86.705605,86.900024,56,100,0
86.705605,86.900024,52,100,0
86.705605,86.900024,45,100,0
86.705605,86.900024,64,100,0
86.705605,86.900024,68,100,0
86.705605,86.900024,62,100,0
86.900024,87.09445,56,100,0
86.900024,87.09445,52,100,0
86.900024,87.09445,45,100,0
86.900024,87.09445,64,100,0
86.900024,87.09445,68,100,0
86.900024,87.09445,62,100,0
87.09445,87.28888,69,100,0
87.09445,87.28888,64,100,0
87.09445,87.28888,61,100,0
87.09445,87.28888,57,100,0
87.09445,87.28888,52,100,0
87.09445,87.28888,45,100,0
87.38609,87.4833,81,64,0
87.4833,87.58051,78,64,0
87.58051,87.67773,76,64,0
87.67773,87.77494,75,64,0
87.67773,87.77494,69,64,0
87.67773,87.77494,66,64,0
87.872154,87.96937,75,64,0
87.872154,87.96937,66,64,0
87.872154,87.96937,69,64,0
88.066574,88.16379,75,64,0
88.066574,88.16379,69,64,0
88.066574,88.16379,66,64,0
88.261,88.84428,64,74,0
88.261,88.84428,68,74,0
88.261,88.84428,74,74,0
88.261,88.84428,83,74,0
88.84428,88.94149,75,64,0
88.84428,88.94149,69,64,0
88.84428,88.94149,66,64,0
89.038704,89.13592,75,64,0
89.038704,89.13592,66,64,0
89.038704,89.13592,69,64,0
89.23312,89.33034,75,64,0
89.23312,89.33034,69,64,0
89.23312,89.33034,66,64,0
89.42755,90.010826,64,74,0
89.42755,90.010826,68,74,0
89.42755,90.010826,74,74,0
89.42755,90.010826,83,74,0
90.010826,90.20525,80,64,0
90.010826,90.20525,71,64,0
90.010826,90.20525,64,64,0
90.010826,90.20525,62,64,0
90.5941,90.691315,81,100,0
90.5941,90.691315,76,100,0
90.5941,90.691315,69,100,0
90.5941,90.691315,61,100,0
90.5941,90.691315,64,100,0
90.78853,90.88574,81,64,0
90.78853,90.88574,76,64,0
90.78853,90.88574,69,64,0
90.78853,90.88574,64,64,0
90.78853,90.88574,61,64,0
90.98295,91.08016,81,64,0
90.98295,91.08016,76,64,0
90.98295,91.08016,69,64,0
90.98295,91.08016,64,64,0
90.98295,91.08016,61,64,0
91.177376,91.3718,62,64,0
91.177376,91.3718,64,64,0
91.177376,91.3718,71,64,0
91.177376,91.3718,80,64,0
91.76065,91.857864,81,100,0
91.76065,91.857864,76,100,0
91.76065,91.857864,69,100,0
91.76065,91.857864,64,100,0
91.76065,91.857864,61,100,0
91.95508,92.05229,81,64,0
91.95508,92.05229,76,64,0
91.95508,92.05229,69,64,0
91.95508,92.05229,64,64,0
91.95508,92.05229,61,64,0
92.149506,92.24671,81,64,0
92.149506,92.24671,76,64,0
92.149506,92.24671,69,64,0
92.149506,92.24671,64,64,0
92.149506,92.24671,61,64,0
92.343925,92.53835,57,110,0
92.343925,92.53835,64,110,0
92.343925,92.53835,69,110,0
92.343925,92.53835,73,110,0
92.343925,92.53835,76,110,0
92.343925,92.53835,85,110,0
92.73278,92.9272,83,110,0
92.73278,92.9272,77,110,0
92.73278,92.9272,73,110,0
92.73278,92.9272,65,110,0
92.73278,92.9272,61,110,0
92.73278,92.9272,56,110,0
92.9272,93.12163,54,110,0
92.9272,93.12163,61,110,0
92.9272,93.12163,66,110,0
92.9272,93.12163,73,110,0
92.9272,93.12163,78,110,0
92.9272,93.12163,81,110,0
93.316055,93.510475,79,110,0
93.316055,93.510475,69,110,0
93.316055,93.510475,73,110,0
93.316055,93.510475,61,110,0
93.316055,93.510475,57,110,0
93.316055,93.510475,52,110,0
93.510475,93.7049,50,110,0
93.510475,93.7049,57,110,0
93.510475,93.7049,62,110,0
93.510475,93.7049,69,110,0
93.510475,93.7049,74,110,0
93.510475,93.7049,78,110,0
93.89933,94.09375,76,110,0
93.89933,94.09375,70,110,0
93.89933,94.09375,66,110,0
93.89933,94.09375,58,110,0
93.89933,94.09375,54,110,0
93.89933,94.09375,49,110,0
94.09375,94.28818,47,110,0
94.09375,94.28818,54,110,0
94.09375,94.28818,59,110,0
94.09375,94.28818,66,110,0
94.09375,94.28818,71,110,0
94.09375,94.28818,74,110,0
94.482605,94.677025,73,110,0
94.482605,94.677025,69,110,0
94.482605,94.677025,61,110,0
94.482605,94.677025,57,110,0
94.482605,94.677025,51,110,0
94.677025,94.87145,52,110,0
94.677025,94.87145,57,110,0
94.677025,94.87145,59,110,0
94.677025,94.87145,66,110,0
94.677025,94.87145,69,110,0
94.677025,94.87145,71,110,0
95.06588,95.2603,76,110,0
95.06588,95.2603,71,110,0
95.06588,95.2603,68,110,0
95.06588,95.2603,62,110,0
95.06588,95.2603,59,110,0
95.06588,95.2603,52,110,0
95.2603,95.35751,61,64,0
95.2603,95.35751,57,64,0
95.2603,95.35751,64,64,0
95.2603,95.35751,69,64,0
95.2603,95.35751,73,64,0
95.45473,95.55194,61,64,0
95.45473,95.55194,57,64,0
95.45473,95.55194,64,64,0
95.45473,95.55194,73,64,0
95.649155,95.74636,61,64,0
95.649155,95.74636,57,64,0
95.649155,95.74636,64,64,0
95.649155,95.74636,76,64,0
95.843575,96.038,71,64,0
95.843575,96.038,64,64,0
95.843575,96.038,62,64,0
95.843575,96.038,56,64,0
95.843575,96.038,52,64,0
96.42685,96.52406,69,64,0
96.42685,96.52406,73,64,0
96.42685,96.52406,76,64,0
96.42685,96.52406,85,64,0
96.62128,96.71849,69,64,0
96.62128,96.71849,73,64,0
96.62128,96.71849,76,64,0
96.62128,96.71849,85,64,0
96.815704,96.91292,69,64,0
96.815704,96.91292,73,64,0
96.815704,96.91292,76,64,0
96.815704,96.91292,88,64,0
97.010124,97.20455,83,64,0
97.010124,97.20455,76,64,0
97.010124,97.20455,74,64,0
97.010124,97.20455,64,64,0
97.010124,97.20455,68,64,0
97.5934,97.69061,69,100,0
97.5934,97.69061,73,100,0
97.5934,97.69061,81,100,0
97.5934,97.69061,85,100,0
97.78783,97.88504,69,100,0
97.78783,97.88504,76,100,0
97.78783,97.88504,81,100,0
97.78783,97.88504,85,100,0
97.982254,98.07947,69,100,0
97.982254,98.07947,76,100,0
97.982254,98.07947,81,100,0
97.982254,98.07947,88,100,0
97.982254,98.07947,85,100,0
98.176674,98.3711,93,100,0
98.176674,98.3711,88,100,0
98.176674,98.3711,85,100,0
98.176674,98.3711,81,100,0
98.176674,98.3711,76,100,0
98.176674,98.3711,73,100,0
98.176674,98.3711,69,100,0
101.56588,102.012764,71,75,0
101.56588,102.012764,83,75,0
102.012764,102.23621,74,64,0
102.012764,102.23621,86,64,0
102.23621,102.34793,74,64,0
102.23621,102.34793,86,64,0
102.459656,102.57138,76,64,0
102.459656,102.57138,88,64,0
102.6831,102.79482,78,64,0
102.6831,102.79482,90,64,0
102.87862,102.90654,81,64,0
102.87862,102.90654,93,64,0
102.90654,103.018265,79,64,0
102.90654,103.018265,91,64,0
103.12999,103.24171,78,64,0
103.12999,103.24171,90,64,0
103.35343,103.46516,79,64,0
103.35343,103.46516,91,64,0
103.57687,104.023766,83,74,0
103.57687,104.023766,95,74,0
104.023766,104.24721,81,64,0
104.023766,104.24721,93,64,0
104.24721,104.69409,83,74,0
104.24721,104.69409,95,74,0
104.69409,104.91754,81,64,0
104.69409,104.91754,93,64,0
104.91754,105.14098,78,64,0
104.91754,105.14098,90,64,0
108.2692,108.71609,73,74,0
108.2692,108.71609,76,74,0
108.2692,108.71609,85,74,0
108.2692,108.71609,88,74,0
108.71609,108.82781,73,64,0
108.71609,108.82781,69,64,0
108.71609,108.82781,85,64,0
108.71609,108.82781,81,64,0
108.93953,109.38642,73,75,0
108.93953,109.38642,69,75,0
108.93953,109.38642,85,75,0
108.93953,109.38642,81,75,0
109.38642,109.49814,69,64,0
109.38642,109.49814,64,64,0
109.38642,109.49814,81,64,0
109.38642,109.49814,76,64,0
109.60986,109.72159,62,64,0
109.60986,109.72159,74,64,0
109.833305,109.94503,63,64,0
109.833305,109.94503,75,64,0
110.056755,110.16847,64,64,0
110.056755,110.16847,76,64,0
110.2802,110.50364,57,64,0
110.2802,110.50364,69,64,0
112.29119,112.73808,71,75,0
112.29119,112.73808,83,75,0
112.73808,112.961525,74,64,0
112.73808,112.961525,86,64,0
112.961525,113.07324,74,64,0
112.961525,113.07324,86,64,0
113.18497,113.29669,76,64,0
113.18497,113.29669,88,64,0
113.40841,113.520134,78,64,0
113.40841,113.520134,90,64,0
113.60393,113.63186,81,64,0
113.60393,113.63186,93,64,0
113.63186,113.743576,79,64,0
113.63186,113.743576,91,64,0
113.8553,113.96702,78,64,0
113.8553,113.96702,90,64,0
114.07874,114.19047,79,64,0
114.07874,114.19047,91,64,0
114.302185,114.74908,83,74,0
114.302185,114.74908,95,74,0
114.74908,114.97252,81,64,0
114.74908,114.97252,93,64,0
114.97252,115.41941,83,74,0
114.97252,115.41941,95,74,0
115.41941,115.64285,81,64,0
115.41941,115.64285,93,64,0
115.64285,115.866295,78,64,0
115.64285,115.866295,90,64,0
118.994514,119.4414,73,74,0
118.994514,119.4414,76,74,0
118.994514,119.4414,85,74,0
118.994514,119.4414,88,74,0
119.4414,119.55312,73,64,0
119.4414,119.55312,69,64,0
119.4414,119.55312,85,64,0
119.4414,119.55312,81,64,0
119.66484,120.11173,73,75,0
119.66484,120.11173,69,75,0
119.66484,120.11173,85,75,0
119.66484,120.11173,81,75,0
120.11173,120.22345,69,64,0
120.11173,120.22345,64,64,0
120.11173,120.22345,81,64,0
120.11173,120.22345,76,64,0
120.335175,120.4469,62,64,0
120.335175,120.4469,74,64,0
120.55862,120.67034,63,64,0
120.55862,120.67034,75,64,0
120.78207,120.89378,64,64,0
120.78207,120.89378,76,64,0
121.00551,121.22895,57,64,0
121.00551,121.22895,69,64,0
121.45239,121.67584,85,54,0
121.45239,121.67584,81,54,0
121.67584,122.12273,85,54,0
121.67584,122.12273,81,54,0
122.12273,122.34617,83,54,0
122.12273,122.34617,77,54,0
122.34617,122.79306,77,54,0
122.34617,122.79306,83,54,0
122.79306,123.0165,81,54,0
122.79306,123.0165,78,54,0
123.0165,123.239944,78,54,0
123.0165,123.239944,81,54,0
126.81505,127.0385,86,54,0
126.81505,127.0385,74,54,0
127.0385,127.48538,86,54,0
127.0385,127.48538,74,54,0
127.48538,127.708824,83,54,0
127.48538,127.708824,71,54,0
127.708824,128.15572,83,54,0
127.708824,128.15572,71,54,0
128.15572,128.37917,88,54,0
128.15572,128.37917,76,54,0
128.37917,128.82605,74,54,0
128.37917,128.82605,86,54,0
129.49638,129.71982,86,54,0
129.49638,129.71982,74,54,0
129.71982,130.16672,86,54,0
129.71982,130.16672,74,54,0
130.16672,130.39015,83,54,0
130.16672,130.39015,71,54,0
130.39015,130.83704,83,54,0
130.39015,130.83704,71,54,0
130.83704,131.06049,88,54,0
130.83704,131.06049,76,54,0
131.06049,131.50737,74,54,0
131.06049,131.50737,86,54,0
132.1777,132.40115,89,54,0
132.1777,132.40115,77,54,0
132.40115,132.84804,89,54,0
132.40115,132.84804,77,54,0
132.84804,133.07149,86,54,0
132.84804,133.07149,74,54,0
133.07149,133.51837,86,54,0
133.07149,133.51837,74,54,0
133.51837,133.74182,91,54,0
133.51837,133.74182,79,54,0
133.74182,134.41214,72,54,0
133.74182,134.41214,84,54,0
134.41214,134.63559,87,54,0
134.41214,134.63559,75,54,0
134.63559,134.85904,86,54,0
134.63559,134.85904,74,54,0
134.85904,135.08247,84,54,0
134.85904,135.08247,72,54,0
135.08247,135.52937,89,54,0
135.08247,135.52937,77,54,0
135.52937,135.7528,86,54,0
135.52937,135.7528,74,54,0
135.7528,136.19969,86,54,0
135.7528,136.19969,74,54,0
136.19969,136.42314,91,54,0
136.19969,136.42314,79,54,0
136.42314,137.09348,72,54,0
136.42314,137.09348,84,54,0
137.09348,137.31693,87,54,0
137.09348,137.31693,75,54,0
137.31693,137.54036,86,54,0
137.31693,137.54036,74,54,0
137.54036,137.76381,84,54,0
137.54036,137.76381,72,54,0
137.76381,137.98726,58,100,0
137.76381,137.98726,62,100,0
137.76381,137.98726,65,100,0
137.76381,137.98726,70,100,0
137.76381,137.98726,74,100,0
137.76381,137.98726,77,100,0
137.76381,137.98726,80,100,0
137.76381,137.98726,86,100,0
138.43414,138.65758,58,100,0
138.43414,138.65758,62,100,0
138.43414,138.65758,65,100,0
138.43414,138.65758,70,100,0
138.43414,138.65758,74,100,0
138.43414,138.65758,77,100,0
138.43414,138.65758,80,100,0
138.43414,138.65758,86,100,0
139.10448,139.32791,58,100,0
139.10448,139.32791,62,100,0
139.10448,139.32791,65,100,0
139.10448,139.32791,70,100,0
139.10448,139.32791,74,100,0
139.10448,139.32791,77,100,0
139.10448,139.32791,80,100,0
139.10448,139.32791,86,100,0
139.77481,139.99825,58,100,0
139.77481,139.99825,62,100,0
139.77481,139.99825,65,100,0
139.77481,139.99825,70,100,0
139.77481,139.99825,74,100,0
139.77481,139.99825,77,100,0
139.77481,139.99825,80,100,0
139.77481,139.99825,86,100,0
140.44513,140.66858,62,100,0
140.44513,140.66858,86,100,0
140.44513,140.66858,57,100,0
140.44513,140.66858,66,100,0
140.44513,140.66858,69,100,0
140.44513,140.66858,90,100,0
140.44513,140.66858,81,100,0
140.44513,140.66858,78,100,0
141.11546,141.33891,62,100,0
141.11546,141.33891,86,100,0
141.11546,141.33891,57,100,0
141.11546,141.33891,66,100,0
141.11546,141.33891,69,100,0
141.11546,141.33891,90,100,0
141.11546,141.33891,81,100,0
141.11546,141.33891,78,100,0
141.7858,142.00925,57,100,0
141.7858,142.00925,64,100,0
141.7858,142.00925,67,100,0
141.7858,142.00925,69,100,0
141.7858,142.00925,81,100,0
141.7858,142.00925,85,100,0
141.7858,142.00925,88,100,0
141.7858,142.00925,93,100,0
142.45613,142.67958,57,100,0
142.45613,142.67958,64,100,0
142.45613,142.67958,67,100,0
142.45613,142.67958,69,100,0
142.45613,142.67958,81,100,0
142.45613,142.67958,85,100,0
142.45613,142.67958,88,100,0
142.45613,142.67958,93,100,0
147.21907,147.66595,98,74,0
147.21907,147.66595,86,74,0
147.66595,147.8894,95,64,0
147.66595,147.8894,83,64,0
147.8894,147.94527,93,64,0
147.8894,147.94527,81,64,0
147.94527,148.00113,95,64,0
147.94527,148.00113,83,64,0
148.00113,148.05698,93,64,0
148.00113,148.05698,81,64,0
148.05698,148.11284,95,64,0
148.05698,148.11284,83,64,0
148.11284,148.1687,93,64,0
148.11284,148.1687,81,64,0
148.1687,148.22456,95,64,0
148.1687,148.22456,83,64,0
148.22456,148.28043,93,64,0
148.22456,148.28043,81,64,0
148.28043,148.33629,95,64,0
148.28043,148.33629,83,64,0
148.33629,148.39215,93,64,0
148.33629,148.39215,81,64,0
148.39215,148.44801,95,64,0
148.39215,148.44801,83,64,0
148.44801,148.50388,93,64,0
148.44801,148.50388,81,64,0
148.50388,148.55974,95,64,0
148.50388,148.55974,83,64,0
148.55974,148.61559,93,64,0
148.55974,148.61559,81,64,0
148.61559,148.67145,95,64,0
148.61559,148.67145,83,64,0
148.67145,148.72731,93,64,0
148.67145,148.72731,81,64,0
148.72731,148.78317,95,64,0
148.72731,148.78317,83,64,0
148.78317,148.83904,93,64,0
148.78317,148.83904,81,64,0
148.83904,148.8949,95,64,0
148.83904,148.8949,83,64,0
148.8949,148.95076,93,64,0
148.8949,148.95076,81,64,0
148.95076,149.00662,95,64,0
148.95076,149.00662,83,64,0
149.00662,149.06248,93,64,0
149.00662,149.06248,81,64,0
149.06248,149.11835,95,64,0
149.06248,149.11835,83,64,0
149.11835,149.17421,93,64,0
149.11835,149.17421,81,64,0
149.17421,149.23006,95,64,0
149.17421,149.23006,83,64,0
149.23006,149.28592,93,64,0
149.23006,149.28592,81,64,0
149.28592,149.34178,95,64,0
149.28592,149.34178,83,64,0
149.34178,149.39764,93,64,0
149.34178,149.39764,81,64,0
149.39764,149.4535,95,64,0
149.39764,149.4535,83,64,0
149.4535,149.50937,93,64,0
149.4535,149.50937,81,64,0
149.50937,149.56523,95,64,0
149.50937,149.56523,83,64,0
149.56523,149.6211,93,64,0
149.56523,149.6211,81,64,0
149.6211,149.67696,95,64,0
149.6211,149.67696,83,64,0
149.67696,149.73282,93,64,0
149.67696,149.73282,81,64,0
149.73282,149.78868,95,64,0
149.73282,149.78868,83,64,0
149.78868,149.84453,93,64,0
149.78868,149.84453,81,64,0
149.84453,149.90039,95,64,0
149.84453,149.90039,83,64,0
149.90039,149.95625,93,64,0
149.90039,149.95625,81,64,0
149.95625,150.01212,95,64,0
149.95625,150.01212,83,64,0
150.01212,150.06798,93,64,0
150.01212,150.06798,81,64,0
150.06798,150.12384,95,64,0
150.06798,150.12384,83,64,0
150.12384,150.1797,93,64,0
150.12384,150.1797,81,64,0
150.1797,150.23557,95,64,0
150.1797,150.23557,83,64,0
150.23557,150.29143,93,64,0
150.23557,150.29143,81,64,0
150.29143,150.34729,95,64,0
150.29143,150.34729,83,64,0
150.34729,150.57072,62,64,0
150.34729,150.57072,74,64,0
150.34729,150.57072,81,64,0
150.34729,150.57072,90,64,0
150.57072,151.01761,90,64,0
150.57072,151.01761,81,64,0
150.57072,151.01761,74,64,0
150.57072,151.01761,62,64,0
151.01761,151.24106,66,64,0
151.01761,151.24106,73,64,0
151.01761,151.24106,82,64,0
151.01761,151.24106,88,64,0
151.24106,151.68794,88,64,0
151.24106,151.68794,82,64,0
151.24106,151.68794,73,64,0
151.24106,151.68794,66,64,0
151.68794,151.91139,71,64,0
151.68794,151.91139,74,64,0
151.68794,151.91139,86,64,0
151.68794,151.91139,83,64,0
151.91139,152.35828,86,64,0
151.91139,152.35828,83,64,0
151.91139,152.35828,74,64,0
151.91139,152.35828,71,64,0
152.35828,152.58173,83,64,0
152.35828,152.58173,91,64,0
152.35828,152.58173,67,64,0
152.35828,152.58173,74,64,0
152.58173,153.25206,74,73,0
152.58173,153.25206,67,73,0
152.58173,153.25206,83,73,0
152.58173,153.25206,91,73,0
153.25206,153.36378,90,64,0
153.25206,153.36378,81,64,0
153.25206,153.36378,69,64,0
153.25206,153.36378,74,64,0
153.4755,153.58722,88,64,0
153.4755,153.58722,81,64,0
153.4755,153.58722,69,64,0
153.4755,153.58722,76,64,0
153.69894,153.81067,86,64,0
153.69894,153.81067,81,64,0
153.69894,153.81067,69,64,0
153.69894,153.81067,78,64,0
153.9224,154.0341,79,64,0
153.9224,154.0341,69,64,0
153.9224,154.0341,81,64,0
153.9224,154.0341,85,64,0
154.14583,154.25755,78,64,0
154.14583,154.25755,69,64,0
154.14583,154.25755,81,64,0
154.14583,154.25755,86,64,0
154.36928,154.481,76,64,0
154.36928,154.481,69,64,0
154.36928,154.481,81,64,0
154.36928,154.481,88,64,0
154.59271,154.70444,86,64,0
154.59271,154.70444,81,64,0
154.59271,154.70444,69,64,0
154.59271,154.70444,78,64,0
154.81616,154.92789,90,64,0
154.81616,154.92789,81,64,0
154.81616,154.92789,69,64,0
154.81616,154.92789,74,64,0
155.03961,155.15134,93,64,0
155.03961,155.15134,81,64,0
155.03961,155.15134,69,64,0
155.03961,155.15134,79,64,0
155.03961,155.15134,73,64,0
155.26305,155.4865,78,64,0
155.26305,155.4865,74,64,0
155.26305,155.4865,81,64,0
155.26305,155.4865,86,64,0
155.70995,155.93338,85,54,0
155.70995,155.93338,81,54,0
155.93338,156.38026,85,54,0
155.93338,156.38026,81,54,0
156.38026,156.60371,83,54,0
156.38026,156.60371,77,54,0
156.60371,157.0506,77,54,0
156.60371,157.0506,83,54,0
157.0506,157.27405,81,54,0
157.0506,157.27405,78,54,0
157.27405,157.4975,78,54,0
157.27405,157.4975,81,54,0
161.0726,161.29604,86,54,0
161.0726,161.29604,74,54,0
161.29604,161.74294,86,54,0
161.29604,161.74294,74,54,0
161.74294,161.96637,83,54,0
161.74294,161.96637,71,54,0
161.96637,162.41325,83,54,0
161.96637,162.41325,71,54,0
162.41325,162.6367,88,54,0
162.41325,162.6367,76,54,0
162.6367,163.08359,74,54,0
162.6367,163.08359,86,54,0
163.75392,163.97737,86,54,0
163.75392,163.97737,74,54,0
163.97737,164.42426,86,54,0
163.97737,164.42426,74,54,0
164.42426,164.6477,83,54,0
164.42426,164.6477,71,54,0
164.6477,165.09459,83,54,0
164.6477,165.09459,71,54,0
165.09459,165.31804,88,54,0
165.09459,165.31804,76,54,0
165.31804,165.76492,74,54,0
165.31804,165.76492,86,54,0
166.43526,166.65869,89,54,0
166.43526,166.65869,77,54,0
166.65869,167.10559,89,54,0
166.65869,167.10559,77,54,0
167.10559,167.32903,86,54,0
167.10559,167.32903,74,54,0
167.32903,167.77591,86,54,0
167.32903,167.77591,74,54,0
167.77591,167.99936,91,54,0
167.77591,167.99936,79,54,0
167.99936,168.6697,72,54,0
167.99936,168.6697,84,54,0
168.6697,168.89314,87,54,0
168.6697,168.89314,75,54,0
168.89314,169.11658,86,54,0
168.89314,169.11658,74,54,0
169.11658,169.34003,84,54,0
169.11658,169.34003,72,54,0
169.34003,169.78691,89,54,0
169.34003,169.78691,77,54,0
169.78691,170.01036,86,54,0
169.78691,170.01036,74,54,0
170.01036,170.45724,86,54,0
170.01036,170.45724,74,54,0
170.45724,170.6807,91,54,0
170.45724,170.6807,79,54,0
170.6807,171.35101,72,54,0
170.6807,171.35101,84,54,0
171.35101,171.57446,87,54,0
171.35101,171.57446,75,54,0
171.57446,171.79791,86,54,0
171.57446,171.79791,74,54,0
171.79791,172.02135,84,54,0
171.79791,172.02135,72,54,0
172.02135,172.2448,58,100,0
172.02135,172.2448,62,100,0
172.02135,172.2448,65,100,0
172.02135,172.2448,70,100,0
172.02135,172.2448,74,100,0
172.02135,172.2448,77,100,0
172.02135,172.2448,80,100,0
172.02135,172.2448,86,100,0
172.69168,172.91513,58,100,0
172.69168,172.91513,62,100,0
172.69168,172.91513,65,100,0
172.69168,172.91513,70,100,0
172.69168,172.91513,74,100,0
172.69168,172.91513,77,100,0
172.69168,172.91513,80,100,0
172.69168,172.91513,86,100,0
173.36201,173.58546,58,100,0
173.36201,173.58546,62,100,0
173.36201,173.58546,65,100,0
173.36201,173.58546,70,100,0
173.36201,173.58546,74,100,0
173.36201,173.58546,77,100,0
173.36201,173.58546,80,100,0
173.36201,173.58546,86,100,0
174.03235,174.2558,58,100,0
174.03235,174.2558,62,100,0
174.03235,174.2558,65,100,0
174.03235,174.2558,70,100,0
174.03235,174.2558,74,100,0
174.03235,174.2558,77,100,0
174.03235,174.2558,80,100,0
174.03235,174.2558,86,100,0
174.70268,174.92612,62,100,0
174.70268,174.92612,86,100,0
174.70268,174.92612,57,100,0
174.70268,174.92612,66,100,0
174.70268,174.92612,69,100,0
174.70268,174.92612,90,100,0
174.70268,174.92612,81,100,0
174.70268,174.92612,78,100,0
175.37302,175.59645,62,100,0
175.37302,175.59645,86,100,0
175.37302,175.59645,57,100,0
175.37302,175.59645,66,100,0
175.37302,175.59645,69,100,0
175.37302,175.59645,90,100,0
175.37302,175.59645,81,100,0
175.37302,175.59645,78,100,0
176.04335,176.26678,57,100,0
176.04335,176.26678,64,100,0
176.04335,176.26678,67,100,0
176.04335,176.26678,69,100,0
176.04335,176.26678,81,100,0
176.04335,176.26678,85,100,0
176.04335,176.26678,88,100,0
176.04335,176.26678,93,100,0
176.71367,176.93712,57,100,0
176.71367,176.93712,64,100,0
176.71367,176.93712,67,100,0
176.71367,176.93712,69,100,0
176.71367,176.93712,81,100,0
176.71367,176.93712,85,100,0
176.71367,176.93712,88,100,0
176.71367,176.93712,93,100,0
181.47661,181.9235,98,74,0
181.47661,181.9235,86,74,0
181.9235,182.14694,95,64,0
181.9235,182.14694,83,64,0
182.14694,182.2028,93,64,0
182.14694,182.2028,81,64,0
182.2028,182.25867,95,64,0
182.2028,182.25867,83,64,0
182.25867,182.31453,93,64,0
182.25867,182.31453,81,64,0
182.31453,182.37039,95,64,0
182.31453,182.37039,83,64,0
182.37039,182.42625,93,64,0
182.37039,182.42625,81,64,0
182.42625,182.48212,95,64,0
182.42625,182.48212,83,64,0
182.48212,182.53796,93,64,0
182.48212,182.53796,81,64,0
182.53796,182.59383,95,64,0
182.53796,182.59383,83,64,0
182.59383,182.64969,93,64,0
182.59383,182.64969,81,64,0
182.64969,182.70555,95,64,0
182.64969,182.70555,83,64,0
182.70555,182.76141,93,64,0
182.70555,182.76141,81,64,0
182.76141,182.81728,95,64,0
182.76141,182.81728,83,64,0
182.81728,182.87314,93,64,0
182.81728,182.87314,81,64,0
182.87314,182.929,95,64,0
182.87314,182.929,83,64,0
182.929,182.98486,93,64,0
182.929,182.98486,81,64,0
182.98486,183.04073,95,64,0
182.98486,183.04073,83,64,0
183.04073,183.09659,93,64,0
183.04073,183.09659,81,64,0
183.09659,183.15244,95,64,0
183.09659,183.15244,83,64,0
183.15244,183.2083,93,64,0
183.15244,183.2083,81,64,0
183.2083,183.26416,95,64,0
183.2083,183.26416,83,64,0
183.26416,183.32002,93,64,0
183.26416,183.32002,81,64,0
183.32002,183.37589,95,64,0
183.32002,183.37589,83,64,0
183.37589,183.43175,93,64,0
183.37589,183.43175,81,64,0
183.43175,183.48761,95,64,0
183.43175,183.48761,83,64,0
183.48761,183.54347,93,64,0
183.48761,183.54347,81,64,0
183.54347,183.59933,95,64,0
183.54347,183.59933,83,64,0
183.59933,183.6552,93,64,0
183.59933,183.6552,81,64,0
183.6552,183.71106,95,64,0
183.6552,183.71106,83,64,0
183.71106,183.7669,93,64,0
183.71106,183.7669,81,64,0
183.7669,183.82277,95,64,0
183.7669,183.82277,83,64,0
183.82277,183.87863,93,64,0
183.82277,183.87863,81,64,0
183.87863,183.9345,95,64,0
183.87863,183.9345,83,64,0
183.9345,183.99036,93,64,0
183.9345,183.99036,81,64,0
183.99036,184.04622,95,64,0
183.99036,184.04622,83,64,0
184.04622,184.10208,93,64,0
184.04622,184.10208,81,64,0
184.10208,184.15794,95,64,0
184.10208,184.15794,83,64,0
184.15794,184.2138,93,64,0
184.15794,184.2138,81,64,0
184.2138,184.26967,95,64,0
184.2138,184.26967,83,64,0
184.26967,184.32552,93,64,0
184.26967,184.32552,81,64,0
184.32552,184.38138,95,64,0
184.32552,184.38138,83,64,0
184.38138,184.43724,93,64,0
184.38138,184.43724,81,64,0
184.43724,184.4931,95,64,0
184.43724,184.4931,83,64,0
184.4931,184.54897,93,64,0
184.4931,184.54897,81,64,0
184.54897,184.60483,95,64,0
184.54897,184.60483,83,64,0
184.60483,184.82828,62,64,0
184.60483,184.82828,74,64,0
184.60483,184.82828,81,64,0
184.60483,184.82828,90,64,0
184.82828,185.27516,90,64,0
184.82828,185.27516,81,64,0
184.82828,185.27516,74,64,0
184.82828,185.27516,62,64,0
185.27516,185.49861,66,64,0
185.27516,185.49861,73,64,0
185.27516,185.49861,82,64,0
185.27516,185.49861,88,64,0
185.49861,185.9455,88,64,0
185.49861,185.9455,82,64,0
185.49861,185.9455,73,64,0
185.49861,185.9455,66,64,0
185.9455,186.16893,71,64,0
185.9455,186.16893,74,64,0
185.9455,186.16893,86,64,0
185.9455,186.16893,83,64,0
186.16893,186.61583,86,64,0
186.16893,186.61583,83,64,0
186.16893,186.61583,74,64,0
186.16893,186.61583,71,64,0
186.61583,186.83926,83,64,0
186.61583,186.83926,91,64,0
186.61583,186.83926,67,64,0
186.61583,186.83926,74,64,0
186.83926,187.5096,74,73,0
186.83926,187.5096,67,73,0
186.83926,187.5096,83,73,0
186.83926,187.5096,91,73,0
187.5096,187.62132,90,64,0
187.5096,187.62132,81,64,0
187.5096,187.62132,69,64,0
187.5096,187.62132,74,64,0
187.73305,187.84477,88,64,0
187.73305,187.84477,81,64,0
187.73305,187.84477,69,64,0
187.73305,187.84477,76,64,0
187.95648,188.0682,86,64,0
187.95648,188.0682,81,64,0
187.95648,188.0682,69,64,0
187.95648,188.0682,78,64,0
188.17993,188.29166,79,64,0
188.17993,188.29166,69,64,0
188.17993,188.29166,81,64,0
188.17993,188.29166,85,64,0
188.40338,188.51509,78,64,0
188.40338,188.51509,69,64,0
188.40338,188.51509,81,64,0
188.40338,188.51509,86,64,0
188.62682,188.73854,76,64,0
188.62682,188.73854,69,64,0
188.62682,188.73854,81,64,0
188.62682,188.73854,88,64,0
188.85027,188.96199,86,64,0
188.85027,188.96199,81,64,0
188.85027,188.96199,69,64,0
188.85027,188.96199,78,64,0
189.07372,189.18542,90,64,0
189.07372,189.18542,81,64,0
189.07372,189.18542,69,64,0
189.07372,189.18542,74,64,0
189.29715,189.40887,93,64,0
189.29715,189.40887,81,64,0
189.29715,189.40887,69,64,0
189.29715,189.40887,79,64,0
189.29715,189.40887,73,64,0
189.5206,189.74403,78,64,0
189.5206,189.74403,74,64,0
189.5206,189.74403,81,64,0
189.5206,189.74403,86,64,0
190.57034,190.76477,64,100,0
190.57034,190.76477,61,100,0
190.57034,190.76477,57,100,0
190.57034,190.76477,52,100,0
190.57034,190.76477,49,100,0
190.57034,190.76477,45,100,0
191.15363,191.34805,66,100,0
191.15363,191.34805,62,100,0
191.15363,191.34805,57,100,0
191.15363,191.34805,54,100,0
191.15363,191.34805,50,100,0
191.15363,191.34805,45,100,0
191.7369,191.93132,45,100,0
191.7369,191.93132,52,100,0
191.7369,191.93132,56,100,0
191.7369,191.93132,62,100,0
191.7369,191.93132,64,100,0
191.7369,191.93132,68,100,0
191.93132,192.12575,45,100,0
191.93132,192.12575,52,100,0
191.93132,192.12575,56,100,0
191.93132,192.12575,62,100,0
191.93132,192.12575,64,100,0
191.93132,192.12575,68,100,0
192.12575,192.32018,45,100,0
192.12575,192.32018,52,100,0
192.12575,192.32018,56,100,0
192.12575,192.32018,62,100,0
192.12575,192.32018,64,100,0
192.12575,192.32018,68,100,0
192.32018,192.5146,69,100,0
192.32018,192.5146,64,100,0
192.32018,192.5146,61,100,0
192.32018,192.5146,57,100,0
192.32018,192.5146,52,100,0
192.32018,192.5146,45,100,0
192.61182,192.66042,81,64,0
192.70901,192.75763,78,64,0
192.80623,192.85484,76,64,0
192.90344,193.00066,75,64,0
192.90344,193.00066,66,64,0
192.90344,193.00066,69,64,0
193.09787,193.19508,75,64,0
193.09787,193.19508,66,64,0
193.09787,193.19508,69,64,0
193.2923,193.38951,75,64,0
193.2923,193.38951,66,64,0
193.2923,193.38951,69,64,0
193.48672,194.06999,83,74,0
193.48672,194.06999,74,74,0
193.48672,194.06999,68,74,0
193.48672,194.06999,64,74,0
194.06999,194.1672,75,64,0
194.06999,194.1672,66,64,0
194.06999,194.1672,69,64,0
194.26442,194.36163,75,64,0
194.26442,194.36163,66,64,0
194.26442,194.36163,69,64,0
194.45885,194.55606,75,64,0
194.45885,194.55606,66,64,0
194.45885,194.55606,69,64,0
194.65327,195.23654,83,74,0
194.65327,195.23654,74,74,0
194.65327,195.23654,68,74,0
194.65327,195.23654,64,74,0
195.23654,195.43097,85,100,0
195.23654,195.43097,76,100,0
195.23654,195.43097,73,100,0
195.23654,195.43097,69,100,0
195.23654,195.43097,64,100,0
195.23654,195.43097,57,100,0
195.6254,195.81982,56,100,0
195.6254,195.81982,61,100,0
195.6254,195.81982,68,100,0
195.6254,195.81982,73,100,0
195.6254,195.81982,77,100,0
195.6254,195.81982,83,100,0
195.81982,196.01425,81,100,0
195.81982,196.01425,78,100,0
195.81982,196.01425,73,100,0
195.81982,196.01425,66,100,0
195.81982,196.01425,61,100,0
195.81982,196.01425,54,100,0
196.20868,196.40309,58,100,0
196.20868,196.40309,64,100,0
196.20868,196.40309,68,100,0
196.20868,196.40309,76,100,0
196.20868,196.40309,80,100,0
196.40309,196.59752,78,100,0
196.40309,196.59752,76,100,0
196.40309,196.59752,73,100,0
196.40309,196.59752,66,100,0
196.40309,196.59752,64,100,0
196.40309,196.59752,59,100,0
196.79195,196.98637,59,100,0
196.79195,196.98637,66,100,0
196.79195,196.98637,69,100,0
196.79195,196.98637,75,100,0
196.79195,196.98637,78,100,0
196.79195,196.98637,83,100,0
196.98637,197.08359,80,100,0
196.98637,197.08359,71,100,0
196.98637,197.08359,68,100,0
196.98637,197.08359,64,100,0
197.1808,197.27802,64,64,0
197.1808,197.27802,68,64,0
197.1808,197.27802,71,64,0
197.1808,197.27802,80,64,0
197.37523,197.47243,83,64,0
197.37523,197.47243,71,64,0
197.37523,197.47243,68,64,0
197.37523,197.47243,64,64,0
197.56964,197.66685,59,64,0
197.56964,197.66685,63,64,0
197.56964,197.66685,69,64,0
197.56964,197.66685,71,64,0
197.56964,197.66685,78,64,0
198.15292,198.25014,80,100,0
198.15292,198.25014,71,100,0
198.15292,198.25014,68,100,0
198.15292,198.25014,64,100,0
198.34735,198.44456,64,64,0
198.34735,198.44456,68,64,0
198.34735,198.44456,71,64,0
198.34735,198.44456,80,64,0
198.54178,198.63899,83,64,0
198.54178,198.63899,71,64,0
198.54178,198.63899,68,64,0
198.54178,198.63899,64,64,0
198.73619,198.8334,59,64,0
198.73619,198.8334,63,64,0
198.73619,198.8334,69,64,0
198.73619,198.8334,71,64,0
198.73619,198.8334,78,64,0
199.31947,199.41669,80,100,0
199.31947,199.41669,71,100,0
199.31947,199.41669,64,100,0
199.31947,199.41669,76,100,0
199.5139,199.61111,64,64,0
199.5139,199.61111,71,64,0
199.5139,199.61111,80,64,0
199.5139,199.61111,76,64,0
199.70833,199.80554,83,64,0
199.70833,199.80554,64,64,0
199.70833,199.80554,76,64,0
199.70833,199.80554,68,64,0
199.90274,199.99995,88,64,0
199.90274,199.99995,80,64,0
199.90274,199.99995,76,64,0
199.90274,199.99995,74,64,0
199.90274,199.99995,71,64,0
199.90274,199.99995,64,64,0
201.06929,201.26372,64,110,0
201.06929,201.26372,61,110,0
201.06929,201.26372,57,110,0
201.06929,201.26372,52,110,0
201.06929,201.26372,45,110,0
201.06929,201.26372,49,110,0
201.65257,201.847,45,110,0
201.65257,201.847,54,110,0
201.65257,201.847,50,110,0
201.65257,201.847,57,110,0
201.65257,201.847,62,110,0
201.65257,201.847,66,110,0
202.23586,202.43027,45,110,0
202.23586,202.43027,52,110,0
202.23586,202.43027,56,110,0
202.23586,202.43027,62,110,0
202.23586,202.43027,64,110,0
202.23586,202.43027,68,110,0
202.43027,202.6247,45,110,0
202.43027,202.6247,52,110,0
202.43027,202.6247,56,110,0
202.43027,202.6247,62,110,0
202.43027,202.6247,64,110,0
202.43027,202.6247,68,110,0
202.6247,202.81912,45,110,0
202.6247,202.81912,52,110,0
202.6247,202.81912,56,110,0
202.6247,202.81912,62,110,0
202.6247,202.81912,64,110,0
202.6247,202.81912,68,110,0
202.81912,203.01355,45,110,0
202.81912,203.01355,52,110,0
202.81912,203.01355,57,110,0
202.81912,203.01355,61,110,0
202.81912,203.01355,64,110,0
202.81912,203.01355,69,110,0
203.11076,203.15936,81,64,0
203.20798,203.25658,78,64,0
203.30519,203.35379,76,64,0
203.4024,203.4996,75,64,0
203.4024,203.4996,69,64,0
203.4024,203.4996,66,64,0
203.59682,203.69403,75,64,0
203.59682,203.69403,69,64,0
203.59682,203.69403,66,64,0
203.79124,203.88846,75,64,0
203.79124,203.88846,69,64,0
203.79124,203.88846,66,64,0
203.98567,204.56895,83,74,0
203.98567,204.56895,74,74,0
203.98567,204.56895,68,74,0
203.98567,204.56895,64,74,0
204.56895,204.66615,75,64,0
204.56895,204.66615,69,64,0
204.56895,204.66615,66,64,0
204.76337,204.86058,75,64,0
204.76337,204.86058,69,64,0
204.76337,204.86058,66,64,0
204.9578,205.05501,75,64,0
204.9578,205.05501,69,64,0
204.9578,205.05501,66,64,0
205.15222,205.7355,83,74,0
205.15222,205.7355,74,74,0
205.15222,205.7355,68,74,0
205.15222,205.7355,64,74,0
205.7355,205.8327,83,64,0
205.7355,205.8327,74,64,0
205.7355,205.8327,67,64,0
205.7355,205.8327,65,64,0
206.31877,206.41599,79,100,0
206.31877,206.41599,84,100,0
206.31877,206.41599,72,100,0
206.31877,206.41599,67,100,0
206.31877,206.41599,64,100,0
206.5132,206.61041,79,64,0
206.5132,206.61041,84,64,0
206.5132,206.61041,72,64,0
206.5132,206.61041,67,64,0
206.5132,206.61041,64,64,0
206.70763,206.80484,79,64,0
206.70763,206.80484,84,64,0
206.70763,206.80484,72,64,0
206.70763,206.80484,67,64,0
206.70763,206.80484,64,64,0
206.90205,206.99927,65,64,0
206.90205,206.99927,67,64,0
206.90205,206.99927,74,64,0
206.90205,206.99927,83,64,0
207.48532,207.58253,84,100,0
207.48532,207.58253,79,100,0
207.48532,207.58253,72,100,0
207.48532,207.58253,67,100,0
207.48532,207.58253,64,100,0
207.67975,207.77696,64,64,0
207.67975,207.77696,67,64,0
207.67975,207.77696,72,64,0
207.67975,207.77696,79,64,0
207.67975,207.77696,84,64,0
207.87418,207.97139,64,64,0
207.87418,207.97139,67,64,0
207.87418,207.97139,72,64,0
207.87418,207.97139,79,64,0
207.87418,207.97139,84,64,0
208.0686,208.26302,60,100,0
208.0686,208.26302,67,100,0
208.0686,208.26302,72,100,0
208.0686,208.26302,76,100,0
208.0686,208.26302,79,100,0
208.0686,208.26302,88,100,0
208.45744,208.65187,86,100,0
208.45744,208.65187,80,100,0
208.45744,208.65187,76,100,0
208.45744,208.65187,68,100,0
208.45744,208.65187,64,100,0
208.45744,208.65187,59,100,0
208.65187,208.8463,57,100,0
208.65187,208.8463,64,100,0
208.65187,208.8463,69,100,0
208.65187,208.8463,76,100,0
208.65187,208.8463,81,100,0
208.65187,208.8463,84,100,0
209.04073,209.23515,82,100,0
209.04073,209.23515,76,100,0
209.04073,209.23515,72,100,0
209.04073,209.23515,64,100,0
209.04073,209.23515,60,100,0
209.04073,209.23515,55,100,0
209.23515,209.42957,53,100,0
209.23515,209.42957,60,100,0
209.23515,209.42957,72,100,0
209.23515,209.42957,77,100,0
209.23515,209.42957,81,100,0
209.23515,209.42957,65,100,0
209.624,209.81842,79,100,0
209.624,209.81842,73,100,0
209.624,209.81842,69,100,0
209.624,209.81842,61,100,0
209.624,209.81842,57,100,0
209.624,209.81842,52,100,0
209.81842,210.01285,50,100,0
209.81842,210.01285,57,100,0
209.81842,210.01285,62,100,0
209.81842,210.01285,69,100,0
209.81842,210.01285,77,100,0
209.81842,210.01285,74,100,0
210.20728,210.4017,76,100,0
210.20728,210.4017,72,100,0
210.20728,210.4017,64,100,0
210.20728,210.4017,60,100,0
210.20728,210.4017,54,100,0
210.4017,210.59612,55,100,0
210.4017,210.59612,62,100,0
210.4017,210.59612,60,100,0
210.4017,210.59612,69,100,0
210.4017,210.59612,72,100,0
210.4017,210.59612,74,100,0
210.79054,210.98497,79,100,0
210.79054,210.98497,74,100,0
210.79054,210.98497,71,100,0
210.79054,210.98497,62,100,0
210.79054,210.98497,65,100,0
210.79054,210.98497,55,100,0
210.98497,211.08218,60,64,0
210.98497,211.08218,64,64,0
210.98497,211.08218,67,64,0
210.98497,211.08218,76,64,0
211.1794,211.27661,64,64,0
211.1794,211.27661,60,64,0
211.1794,211.27661,67,64,0
211.1794,211.27661,76,64,0
211.37383,211.47104,60,64,0
211.37383,211.47104,64,64,0
211.37383,211.47104,67,64,0
211.37383,211.47104,79,64,0
211.56825,211.76268,74,64,0
211.56825,211.76268,67,64,0
211.56825,211.76268,65,64,0
211.56825,211.76268,59,64,0
211.56825,211.76268,55,64,0
212.15152,212.24873,60,64,0
212.15152,212.24873,64,64,0
212.15152,212.24873,67,64,0
212.15152,212.24873,76,64,0
212.34595,212.44316,64,64,0
212.34595,212.44316,60,64,0
212.34595,212.44316,67,64,0
212.34595,212.44316,76,64,0
212.54037,212.63759,60,64,0
212.54037,212.63759,64,64,0
212.54037,212.63759,67,64,0
212.54037,212.63759,79,64,0
212.7348,212.92923,74,64,0
212.7348,212.92923,67,64,0
212.7348,212.92923,65,64,0
212.7348,212.92923,59,64,0
212.7348,212.92923,55,64,0
213.31807,213.41528,60,100,0
213.31807,213.41528,64,100,0
213.31807,213.41528,72,100,0
213.31807,213.41528,76,100,0
213.5125,213.60971,60,100,0
213.5125,213.60971,67,100,0
213.5125,213.60971,72,100,0
213.5125,213.60971,76,100,0
213.70692,213.80414,60,100,0
213.70692,213.80414,67,100,0
213.70692,213.80414,72,100,0
213.70692,213.80414,76,100,0
213.70692,213.80414,79,100,0
213.90135,214.09578,84,100,0
213.90135,214.09578,76,100,0
213.90135,214.09578,72,100,0
213.90135,214.09578,67,100,0
213.90135,214.09578,60,100,0
214.90729,214.9559,66,64,0
214.90729,214.9559,78,64,0
215.0045,215.05312,67,64,0
215.0045,215.05312,79,64,0
215.10172,215.15033,69,64,0
215.10172,215.15033,81,64,0
215.15033,215.53917,70,74,0
215.15033,215.53917,82,74,0
215.53917,215.7336,69,64,0
215.53917,215.7336,81,64,0
215.7336,216.12245,67,74,0
215.7336,216.12245,79,74,0
216.12245,216.31688,65,64,0
216.12245,216.31688,77,64,0
216.31688,216.4141,64,64,0
216.31688,216.4141,76,64,0
216.5113,216.60852,64,64,0
216.5113,216.60852,76,64,0
216.70572,216.80293,65,64,0
216.70572,216.80293,77,64,0
216.90015,216.99736,67,64,0
216.90015,216.99736,79,64,0
217.09457,217.19179,67,64,0
217.09457,217.19179,79,64,0
217.289,217.38622,71,64,0
217.289,217.38622,83,64,0
217.48343,217.58064,72,100,0
217.48343,217.58064,84,100,0
217.67786,217.77507,72,100,0
217.67786,217.77507,84,100,0
217.87227,217.96948,74,110,0
217.87227,217.96948,86,110,0
218.0667,218.16391,72,100,0
218.0667,218.16391,84,100,0
218.26112,218.35834,72,100,0
218.26112,218.35834,84,100,0
218.45555,218.55276,74,110,0
218.45555,218.55276,86,110,0
218.64998,218.7472,72,100,0
218.64998,218.7472,84,100,0
218.8444,218.94162,72,100,0
218.8444,218.94162,84,100,0
219.03882,219.13603,74,110,0
219.03882,219.13603,86,110,0
219.23325,219.42767,84,100,0
219.23325,219.42767,72,100,0
219.5735,219.6221,68,64,0
219.5735,219.6221,80,64,0
219.6707,219.71931,69,64,0
219.6707,219.71931,81,64,0
219.76791,219.81653,71,64,0
219.76791,219.81653,83,64,0
219.81653,220.20538,72,74,0
219.81653,220.20538,84,74,0
220.20538,220.3998,82,64,0
220.20538,220.3998,70,64,0
220.3998,220.78865,69,74,0
220.3998,220.78865,81,74,0
220.78865,220.98308,67,64,0
220.78865,220.98308,79,64,0
220.98308,221.08029,66,64,0
220.98308,221.08029,78,64,0
221.1775,221.27472,66,64,0
221.1775,221.27472,78,64,0
221.37193,221.46913,67,64,0
221.37193,221.46913,79,64,0
221.56635,221.66356,69,64,0
221.56635,221.66356,81,64,0
221.76077,221.85799,69,64,0
221.76077,221.85799,81,64,0
221.9552,222.05241,73,64,0
221.9552,222.05241,85,64,0
222.14963,222.24684,74,100,0
222.14963,222.24684,86,100,0
222.34406,222.44127,74,100,0
222.34406,222.44127,86,100,0
222.53848,222.63568,76,110,0
222.53848,222.63568,88,110,0
222.7329,222.83011,74,100,0
222.7329,222.83011,86,100,0
222.92732,223.02454,74,100,0
222.92732,223.02454,86,100,0
223.12175,223.21896,76,110,0
223.12175,223.21896,88,110,0
223.31618,223.41339,74,100,0
223.31618,223.41339,86,100,0
223.5106,223.60782,74,100,0
223.5106,223.60782,86,100,0
223.70503,223.80225,76,110,0
223.70503,223.80225,88,110,0
223.89944,224.09387,86,100,0
223.89944,224.09387,74,100,0
224.48273,224.57994,80,64,0
224.48273,224.57994,74,64,0
224.48273,224.57994,71,64,0
224.48273,224.57994,64,64,0
224.67715,224.77437,80,64,0
224.67715,224.77437,74,64,0
224.67715,224.77437,71,64,0
224.67715,224.77437,64,64,0
224.87158,224.9688,81,74,0
224.87158,224.9688,74,74,0
224.87158,224.9688,71,74,0
224.87158,224.9688,65,74,0
225.066,225.16321,80,64,0
225.066,225.16321,74,64,0
225.066,225.16321,71,64,0
225.066,225.16321,64,64,0
225.26042,225.35764,80,64,0
225.26042,225.35764,74,64,0
225.26042,225.35764,71,64,0
225.26042,225.35764,64,64,0
225.45485,225.55206,81,74,0
225.45485,225.55206,74,74,0
225.45485,225.55206,71,74,0
225.45485,225.55206,65,74,0
225.64928,225.74649,80,64,0
225.64928,225.74649,74,64,0
225.64928,225.74649,71,64,0
225.64928,225.74649,64,64,0
225.8437,225.94092,80,64,0
225.8437,225.94092,74,64,0
225.8437,225.94092,71,64,0
225.8437,225.94092,64,64,0
226.03813,226.13535,81,74,0
226.03813,226.13535,74,74,0
226.03813,226.13535,71,74,0
226.03813,226.13535,65,74,0
226.23254,226.42697,80,64,0
226.23254,226.42697,74,64,0
226.23254,226.42697,71,64,0
226.23254,226.42697,64,64,0
226.81583,227.3991,76,64,0
226.81583,227.3991,88,64,0
227.3991,227.98238,79,64,0
227.3991,227.98238,91,64,0
227.98238,228.56566,76,64,0
227.98238,228.56566,88,64,0
228.56566,229.14893,81,64,0
228.56566,229.14893,93,64,0
229.14893,229.24614,78,64,0
229.14893,229.24614,72,64,0
229.14893,229.24614,69,64,0
229.14893,229.24614,62,64,0
229.34335,229.44057,78,64,0
229.34335,229.44057,72,64,0
229.34335,229.44057,69,64,0
229.34335,229.44057,62,64,0
229.53778,229.635,79,74,0
229.53778,229.635,72,74,0
229.53778,229.635,69,74,0
229.53778,229.635,63,74,0
229.73221,229.8294,78,64,0
229.73221,229.8294,72,64,0
229.73221,229.8294,69,64,0
229.73221,229.8294,62,64,0
229.92662,230.02383,78,64,0
229.92662,230.02383,72,64,0
229.92662,230.02383,69,64,0
229.92662,230.02383,62,64,0
230.12105,230.21826,79,74,0
230.12105,230.21826,72,74,0
230.12105,230.21826,69,74,0
230.12105,230.21826,63,74,0
230.31548,230.41269,78,64,0
230.31548,230.41269,72,64,0
230.31548,230.41269,69,64,0
230.31548,230.41269,62,64,0
230.5099,230.60712,78,64,0
230.5099,230.60712,72,64,0
230.5099,230.60712,69,64,0
230.5099,230.60712,62,64,0
230.70433,230.80154,79,74,0
230.70433,230.80154,72,74,0
230.70433,230.80154,69,74,0
230.70433,230.80154,63,74,0
230.89876,231.09317,78,64,0
230.89876,231.09317,72,64,0
230.89876,231.09317,69,64,0
230.89876,231.09317,62,64,0
231.48203,232.0653,74,64,0
231.48203,232.0653,86,64,0
232.0653,232.64857,77,64,0
232.0653,232.64857,89,64,0
232.64857,233.23186,74,64,0
232.64857,233.23186,86,64,0
233.23186,233.81512,79,64,0
233.23186,233.81512,91,64,0
233.81512,234.00955,88,64,0
233.81512,234.00955,76,64,0
234.3984,234.59282,85,54,0
234.3984,234.59282,76,54,0
234.3984,234.59282,73,54,0
234.3984,234.59282,69,54,0
234.59282,234.78725,85,54,0
234.59282,234.78725,76,54,0
234.59282,234.78725,73,54,0
234.59282,234.78725,69,54,0
234.78725,234.98167,85,54,0
234.78725,234.98167,76,54,0
234.78725,234.98167,73,54,0
234.78725,234.98167,69,54,0
234.98167,235.1761,62,54,0
234.98167,235.1761,66,54,0
234.98167,235.1761,71,54,0
234.98167,235.1761,78,54,0
234.98167,235.1761,83,54,0
235.56496,235.75937,80,54,0
235.56496,235.75937,74,54,0
235.56496,235.75937,71,54,0
235.56496,235.75937,64,54,0
235.75937,235.9538,80,54,0
235.75937,235.9538,74,54,0
235.75937,235.9538,71,54,0
235.75937,235.9538,64,54,0
235.9538,236.14822,80,54,0
235.9538,236.14822,74,54,0
235.9538,236.14822,71,54,0
235.9538,236.14822,64,54,0
237.4016,237.59602,45,100,0
237.4016,237.59602,49,100,0
237.4016,237.59602,52,100,0
237.4016,237.59602,57,100,0
237.4016,237.59602,64,100,0
237.4016,237.59602,61,100,0
237.98488,238.1793,45,100,0
237.98488,238.1793,50,100,0
237.98488,238.1793,54,100,0
237.98488,238.1793,57,100,0
237.98488,238.1793,66,100,0
237.98488,238.1793,62,100,0
238.56815,238.76257,56,100,0
238.56815,238.76257,52,100,0
238.56815,238.76257,45,100,0
238.56815,238.76257,64,100,0
238.56815,238.76257,68,100,0
238.56815,238.76257,62,100,0
238.76257,238.957,56,100,0
238.76257,238.957,52,100,0
238.76257,238.957,45,100,0
238.76257,238.957,64,100,0
238.76257,238.957,68,100,0
238.76257,238.957,62,100,0
238.957,239.15143,56,100,0
238.957,239.15143,52,100,0
238.957,239.15143,45,100,0
238.957,239.15143,64,100,0
238.957,239.15143,68,100,0
238.957,239.15143,62,100,0
239.15143,239.34586,69,100,0
239.15143,239.34586,64,100,0
239.15143,239.34586,61,100,0
239.15143,239.34586,57,100,0
239.15143,239.34586,52,100,0
239.15143,239.34586,45,100,0
239.44307,239.54028,81,64,0
239.54028,239.6375,78,64,0
239.6375,239.7347,76,64,0
239.7347,239.83191,75,64,0
239.7347,239.83191,69,64,0
239.7347,239.83191,66,64,0
239.92912,240.02634,75,64,0
239.92912,240.02634,66,64,0
239.92912,240.02634,69,64,0
240.12355,240.22076,75,64,0
240.12355,240.22076,69,64,0
240.12355,240.22076,66,64,0
240.31798,240.90125,64,74,0
240.31798,240.90125,68,74,0
240.31798,240.90125,74,74,0
240.31798,240.90125,83,74,0
240.90125,240.99846,75,64,0
240.90125,240.99846,69,64,0
240.90125,240.99846,66,64,0
241.09567,241.19289,75,64,0
241.09567,241.19289,66,64,0
241.09567,241.19289,69,64,0
241.2901,241.38731,75,64,0
241.2901,241.38731,69,64,0
241.2901,241.38731,66,64,0
241.48453,242.06781,64,74,0
241.48453,242.06781,68,74,0
241.48453,242.06781,74,74,0
241.48453,242.06781,83,74,0
242.06781,242.26222,80,64,0
242.06781,242.26222,71,64,0
242.06781,242.26222,64,64,0
242.06781,242.26222,62,64,0
242.65108,242.74829,81,100,0
242.65108,242.74829,76,100,0
242.65108,242.74829,69,100,0
242.65108,242.74829,61,100,0
242.65108,242.74829,64,100,0
242.8455,242.94272,81,64,0
242.8455,242.94272,76,64,0
242.8455,242.94272,69,64,0
242.8455,242.94272,64,64,0
242.8455,242.94272,61,64,0
243.03993,243.13715,81,64,0
243.03993,243.13715,76,64,0
243.03993,243.13715,69,64,0
243.03993,243.13715,64,64,0
243.03993,243.13715,61,64,0
243.23436,243.42877,62,64,0
243.23436,243.42877,64,64,0
243.23436,243.42877,71,64,0
243.23436,243.42877,80,64,0
243.81763,243.91484,81,100,0
243.81763,243.91484,76,100,0
243.81763,243.91484,69,100,0
243.81763,243.91484,64,100,0
243.81763,243.91484,61,100,0
244.01205,244.10927,81,64,0
244.01205,244.10927,76,64,0
244.01205,244.10927,69,64,0
244.01205,244.10927,64,64,0
244.01205,244.10927,61,64,0
244.20648,244.3037,81,64,0
244.20648,244.3037,76,64,0
244.20648,244.3037,69,64,0
244.20648,244.3037,64,64,0
244.20648,244.3037,61,64,0
244.40091,244.59532,57,110,0
244.40091,244.59532,64,110,0
244.40091,244.59532,69,110,0
244.40091,244.59532,73,110,0
244.40091,244.59532,76,110,0
244.40091,244.59532,85,110,0
244.78975,244.98418,83,110,0
244.78975,244.98418,77,110,0
244.78975,244.98418,73,110,0
244.78975,244.98418,65,110,0
244.78975,244.98418,61,110,0
244.78975,244.98418,56,110,0
244.98418,245.1786,54,110,0
244.98418,245.1786,61,110,0
244.98418,245.1786,66,110,0
244.98418,245.1786,73,110,0
244.98418,245.1786,78,110,0
244.98418,245.1786,81,110,0
245.37303,245.56746,79,110,0
245.37303,245.56746,69,110,0
245.37303,245.56746,73,110,0
245.37303,245.56746,61,110,0
245.37303,245.56746,57,110,0
245.37303,245.56746,52,110,0
245.56746,245.76187,50,110,0
245.56746,245.76187,57,110,0
245.56746,245.76187,62,110,0
245.56746,245.76187,69,110,0
245.56746,245.76187,74,110,0
245.56746,245.76187,78,110,0
245.9563,246.15073,76,110,0
245.9563,246.15073,70,110,0
245.9563,246.15073,66,110,0
245.9563,246.15073,58,110,0
245.9563,246.15073,54,110,0
245.9563,246.15073,49,110,0
246.15073,246.34515,47,110,0
246.15073,246.34515,54,110,0
246.15073,246.34515,59,110,0
246.15073,246.34515,66,110,0
246.15073,246.34515,71,110,0
246.15073,246.34515,74,110,0
246.53958,246.73401,73,110,0
246.53958,246.73401,69,110,0
246.53958,246.73401,61,110,0
246.53958,246.73401,57,110,0
246.53958,246.73401,51,110,0
246.73401,246.92842,52,110,0
246.73401,246.92842,57,110,0
246.73401,246.92842,59,110,0
246.73401,246.92842,66,110,0
246.73401,246.92842,69,110,0
246.73401,246.92842,71,110,0
247.12285,247.31728,76,110,0
247.12285,247.31728,71,110,0
247.12285,247.31728,68,110,0
247.12285,247.31728,62,110,0
247.12285,247.31728,59,110,0
247.12285,247.31728,52,110,0
247.31728,247.41449,61,64,0
247.31728,247.41449,57,64,0
247.31728,247.41449,64,64,0
247.31728,247.41449,69,64,0
247.31728,247.41449,73,64,0
247.5117,247.60892,61,64,0
247.5117,247.60892,57,64,0
247.5117,247.60892,64,64,0
247.5117,247.60892,73,64,0
247.70613,247.80334,61,64,0
247.70613,247.80334,57,64,0
247.70613,247.80334,64,64,0
247.70613,247.80334,76,64,0
247.90056,248.09497,71,64,0
247.90056,248.09497,64,64,0
247.90056,248.09497,62,64,0
247.90056,248.09497,56,64,0
247.90056,248.09497,52,64,0
248.48383,248.58104,69,64,0
248.48383,248.58104,73,64,0
248.48383,248.58104,76,64,0
248.48383,248.58104,85,64,0
248.67825,248.77547,69,64,0
248.67825,248.77547,73,64,0
248.67825,248.77547,76,64,0
248.67825,248.77547,85,64,0
248.87268,248.9699,69,64,0
248.87268,248.9699,73,64,0
248.87268,248.9699,76,64,0
248.87268,248.9699,88,64,0
249.06711,249.26152,83,64,0
249.06711,249.26152,76,64,0
249.06711,249.26152,74,64,0
249.06711,249.26152,64,64,0
249.06711,249.26152,68,64,0
249.65038,249.74759,69,100,0
249.65038,249.74759,73,100,0
249.65038,249.74759,81,100,0
249.65038,249.74759,85,100,0
249.8448,249.94202,69,100,0
249.8448,249.94202,76,100,0
249.8448,249.94202,81,100,0
249.8448,249.94202,85,100,0
250.03923,250.13644,69,100,0
250.03923,250.13644,76,100,0
250.03923,250.13644,81,100,0
250.03923,250.13644,88,100,0
250.03923,250.13644,85,100,0
250.23366,250.43967,93,100,0
250.23366,250.43967,88,100,0
250.23366,250.43967,85,100,0
250.23366,250.43967,81,100,0
250.23366,250.43967,76,100,0
250.23366,250.43967,73,100,0
250.23366,250.43967,69,100,0
