start_time,end_time,note_value,velocity,instrument_program_number
2.677005,3.211675,69,54,40
3.211675,3.8800125,74,54,40
4.01368,4.281015,74,54,40
4.281015,4.54835,78,54,40
4.815685,5.08302,78,54,40
5.350355,6.419695,74,54,40
6.419695,7.489035,69,54,40
7.489035,8.357874,69,54,40
8.424707,8.558375,69,54,40
8.558375,8.959377,76,54,40
8.959377,9.093045,74,54,40
9.093045,9.494047,73,54,40
9.494047,9.627715,71,54,40
9.627715,11.231725,69,54,40
11.231725,11.766395,69,54,40
11.766395,12.434732,74,54,40
12.5684,12.835735,74,54,40
12.835735,13.10307,78,54,40
13.370405,13.63774,78,54,40
13.905075,14.974415,74,54,40
14.974415,15.509085,69,54,40
15.509085,16.043755,74,54,40
16.043755,16.31109,73,54,40
16.31109,16.444757,74,54,40
16.444757,16.578424,73,54,40
16.578424,16.979427,71,54,40
16.979427,17.113094,73,54,40
17.113094,17.647764,74,64,40
17.647764,18.182434,68,54,40
18.182434,19.786446,69,54,40
19.786446,20.321115,69,54,40
20.321115,20.989452,74,54,40
21.12312,21.390455,74,54,40
21.390455,21.65779,78,54,40
21.925125,22.19246,78,54,40
22.459795,23.529135,74,54,40
23.529135,24.598475,69,54,40
24.598475,25.467314,69,54,40
25.534147,25.667814,69,54,40
25.667814,26.068817,76,54,40
26.068817,26.202484,74,54,40
26.202484,26.603487,73,54,40
26.603487,26.737156,71,54,40
26.737156,28.341166,69,54,40
28.341166,28.875835,69,54,40
28.875835,29.544172,74,54,40
29.67784,29.945175,74,54,40
29.945175,30.21251,78,54,40
30.479845,30.74718,78,54,40
31.014515,32.083855,74,54,40
32.083855,32.618526,69,54,40
32.618526,33.153194,74,54,40
33.153194,33.42053,73,54,40
33.42053,33.5542,74,54,40
33.5542,33.687866,73,54,40
33.687866,34.088867,71,54,40
34.088867,34.222534,73,54,40
34.222534,34.757206,74,63,40
34.757206,35.291874,68,54,40
35.291874,36.895885,69,54,40
36.895885,37.430553,69,54,40
37.430553,38.23256,73,64,40
38.23256,38.499893,73,64,40
38.499893,38.76723,74,64,40
38.76723,39.034565,73,64,40
39.034565,39.3019,71,64,40
39.3019,39.569237,73,64,40
39.569237,40.638577,74,64,40
40.638577,41.173244,69,64,40
41.173244,41.707916,74,64,40
41.707916,42.50992,73,64,40
42.50992,42.777256,73,64,40
42.777256,43.04459,73,64,40
43.04459,43.311924,79,64,40
43.311924,43.57926,76,64,40
43.57926,43.846596,73,64,40
43.846596,45.985275,74,64,40
45.985275,46.78728,71,64,40
46.78728,47.054615,71,71,40
47.054615,47.589287,71,74,40
47.589287,48.123955,74,69,40
48.123955,49.193295,74,64,40
49.193295,50.262634,69,64,40
50.262634,51.06464,69,64,40
51.06464,51.26514,69,64,40
51.26514,51.331974,69,64,40
51.331974,51.866646,76,64,40
51.866646,52.401314,73,64,40
52.401314,52.468147,74,64,40
52.468147,52.53498,76,64,40
52.53498,52.601818,74,64,40
52.601818,52.66865,76,64,40
52.66865,52.735485,74,64,40
52.735485,52.80232,76,64,40
52.80232,52.869152,74,64,40
52.869152,52.935986,76,64,40
52.935986,53.00282,74,64,40
53.00282,53.069653,76,64,40
53.069653,53.136486,74,64,40
53.136486,53.20332,76,64,40
53.20332,53.270153,74,64,40
53.270153,53.336987,76,64,40
53.336987,53.40382,74,64,40
53.40382,53.470654,76,64,40
53.470654,53.537487,74,64,40
53.537487,53.604324,76,64,40
53.604324,53.671158,74,64,40
53.671158,53.73799,76,64,40
53.73799,53.804825,74,64,40
53.804825,53.87166,76,64,40
53.87166,53.93849,74,64,40
53.93849,54.005325,76,64,40
54.005325,54.07216,74,64,40
54.07216,54.138992,76,64,40
54.138992,54.205826,74,64,40
54.205826,54.27266,76,64,40
54.27266,54.339493,74,64,40
54.339493,54.406326,76,64,40
54.406326,54.47316,73,64,40
54.47316,54.539993,74,64,40
54.539993,55.342,71,64,40
55.342,55.609337,71,64,40
55.609337,56.144005,71,64,40
56.144005,56.41134,76,64,40
56.41134,56.678677,74,64,40
56.678677,57.748016,74,64,40
57.748016,58.817356,69,64,40
58.817356,59.61936,69,64,40
59.61936,59.819862,69,64,40
59.819862,59.886696,69,64,40
59.886696,60.421364,76,64,40
60.421364,60.956036,73,64,40
60.956036,62.560043,74,64,40
64.164055,64.34228,69,54,40
64.34228,64.5205,74,54,40
64.5205,64.69872,78,54,40
64.69872,65.2334,74,54,40
66.302734,66.48096,69,54,40
66.48096,66.65918,74,54,40
66.65918,66.8374,78,54,40
66.8374,67.37208,74,54,40
68.441414,68.61964,69,54,40
68.61964,68.79786,76,54,40
68.79786,68.97608,79,54,40
68.97608,69.51076,76,54,40
70.58009,70.758316,69,54,40
70.758316,70.93654,76,54,40
70.93654,71.11476,79,54,40
71.11476,71.64944,76,54,40
72.71877,72.896996,69,54,40
72.896996,73.07522,74,54,40
73.07522,73.25345,78,54,40
73.25345,73.78812,74,54,40
74.85745,75.035675,69,54,40
75.035675,75.213905,74,54,40
75.213905,75.39213,78,54,40
75.39213,75.926796,74,54,40
76.99613,77.174355,69,54,40
77.174355,77.352585,73,54,40
77.352585,77.53081,76,54,40
77.53081,78.065475,73,54,40
79.13481,79.31304,69,54,40
79.31304,79.491264,73,54,40
79.491264,79.66949,76,54,40
79.66949,80.204155,79,54,40
80.204155,80.73882,78,50,40
80.73882,81.2735,76,46,40
81.2735,81.45172,69,54,40
81.45172,81.629944,74,54,40
81.629944,81.80817,78,54,40
81.80817,82.342834,74,54,40
83.41218,83.5904,69,54,40
83.5904,83.76862,74,54,40
83.76862,83.946846,78,54,40
83.946846,84.481514,74,54,40
85.55086,85.72908,69,54,40
85.72908,85.9073,76,54,40
85.9073,86.085526,79,54,40
86.085526,86.62019,76,54,40
87.68954,87.86776,69,54,40
87.86776,88.04598,76,54,40
88.04598,88.224205,79,54,40
88.224205,88.75887,76,54,40
89.82822,90.00644,69,54,40
90.00644,90.18466,74,54,40
90.18466,90.362885,78,54,40
90.362885,90.89755,74,54,40
91.966896,92.14512,69,54,40
92.14512,92.32334,74,54,40
92.32334,92.501564,78,54,40
92.501564,93.03623,74,54,40
94.105576,94.2838,69,54,40
94.2838,94.46202,73,54,40
94.46202,94.64024,76,54,40
94.64024,95.17491,73,54,40
96.244255,96.42248,69,54,40
96.42248,96.6007,73,54,40
96.6007,96.77892,76,54,40
96.77892,97.3136,81,54,40
97.3136,97.84827,76,50,40
97.84827,98.382935,78,46,40
98.382935,98.56116,76,64,40
98.56116,98.73938,79,64,40
98.73938,98.9176,76,64,40
98.9176,99.45228,69,64,40
99.45228,99.51911,81,74,40
99.51911,99.585945,83,64,40
99.585945,99.65278,81,64,40
99.65278,99.71961,83,64,40
99.71961,99.786446,81,64,40
99.786446,99.85328,83,64,40
99.85328,99.92011,81,64,40
99.92011,99.986946,83,64,40
99.986946,100.05378,81,64,40
100.05378,100.12061,83,64,40
100.12061,100.18745,81,64,40
100.18745,100.25428,83,64,40
100.25428,100.38795,80,64,40
100.38795,100.521614,81,64,40
100.521614,100.69984,74,64,40
100.69984,100.87806,78,64,40
100.87806,101.05628,74,64,40
101.05628,101.59096,69,64,40
101.59096,101.65779,81,74,40
101.65779,101.724625,83,64,40
101.724625,101.79146,81,64,40
101.79146,101.85829,83,64,40
101.85829,101.925125,81,64,40
101.925125,101.99196,83,64,40
101.99196,102.05879,81,64,40
102.05879,102.125626,83,64,40
102.125626,102.19246,81,64,40
102.19246,102.25929,83,64,40
102.25929,102.326126,81,64,40
102.326126,102.39296,83,64,40
102.39296,102.52663,80,64,40
102.52663,102.66029,81,64,40
102.66029,102.83852,76,64,40
102.83852,103.01674,79,64,40
103.01674,103.19496,76,64,40
103.19496,103.72964,69,64,40
103.72964,103.79647,81,74,40
103.79647,103.863304,83,64,40
103.863304,103.93014,81,64,40
103.93014,103.99697,83,64,40
103.99697,104.063805,81,64,40
104.063805,104.13064,83,64,40
104.13064,104.19747,81,64,40
104.19747,104.264305,83,64,40
104.264305,104.33114,81,64,40
104.33114,104.39797,83,64,40
104.39797,104.464806,81,64,40
104.464806,104.53164,83,64,40
104.53164,104.665306,80,64,40
104.665306,104.79897,81,64,40
104.79897,104.977196,74,64,40
104.977196,105.15542,78,64,40
105.15542,105.33365,74,64,40
105.33365,105.86832,69,64,40
105.86832,105.93515,74,74,40
105.93515,106.00198,76,64,40
106.00198,106.06882,74,64,40
106.06882,106.13565,76,64,40
106.13565,106.202484,74,64,40
106.202484,106.26932,76,64,40
106.26932,106.33615,74,64,40
106.33615,106.402985,76,64,40
106.402985,106.46982,74,64,40
106.46982,106.53665,76,64,40
106.53665,106.603485,74,64,40
106.603485,106.67032,76,64,40
106.67032,106.803986,73,64,40
106.803986,106.93765,74,64,40
106.93765,107.115875,74,64,40
107.115875,107.2941,71,64,40
107.2941,107.47233,74,64,40
107.47233,108.006996,79,64,40
108.006996,108.07383,74,74,40
108.07383,108.14066,76,64,40
108.14066,108.2075,74,64,40
108.2075,108.27433,76,64,40
108.27433,108.34116,74,64,40
108.34116,108.408,76,64,40
108.408,108.47483,74,64,40
108.47483,108.541664,76,64,40
108.541664,108.6085,74,64,40
108.6085,108.67533,76,64,40
108.67533,108.742165,74,64,40
108.742165,108.809,76,64,40
108.809,108.942665,73,64,40
108.942665,109.07633,74,64,40
109.07633,109.254555,74,64,40
109.254555,109.432785,69,64,40
109.432785,109.61101,74,64,40
109.61101,110.145676,78,64,40
110.145676,110.21251,81,74,40
110.21251,110.27934,83,64,40
110.27934,110.346176,81,64,40
110.346176,110.41301,83,64,40
110.41301,110.47984,81,64,40
110.47984,110.54668,83,64,40
110.54668,110.61351,81,64,40
110.61351,110.68034,83,64,40
110.68034,110.74718,81,64,40
110.74718,110.81401,83,64,40
110.81401,110.880844,81,64,40
110.880844,110.94768,83,64,40
110.94768,111.081345,80,64,40
111.081345,111.21501,81,64,40
111.21501,111.39324,76,64,40
111.39324,111.571465,79,64,40
111.571465,111.74969,76,64,40
111.74969,112.284355,69,64,40
112.284355,112.35119,81,74,40
112.35119,112.41802,83,64,40
112.41802,112.484856,81,64,40
112.484856,112.55169,83,64,40
112.55169,112.61852,81,64,40
112.61852,112.685356,83,64,40
112.685356,112.75219,81,64,40
112.75219,112.81902,83,64,40
112.81902,112.88586,81,64,40
112.88586,112.95269,83,64,40
112.95269,113.01952,81,64,40
113.01952,113.08636,83,64,40
113.08636,113.220024,80,64,40
113.220024,113.3537,81,64,40
113.3537,113.53192,74,64,40
113.53192,113.710144,76,64,40
113.710144,113.88837,74,64,40
113.88837,114.06659,74,64,40
114.06659,114.24481,76,64,40
114.24481,114.423035,74,64,40
114.423035,114.60126,76,64,40
114.60126,114.77948,79,64,40
114.77948,114.9577,76,64,40
114.9577,115.135925,78,64,40
115.135925,115.31415,81,64,40
115.31415,115.49238,78,64,40
115.49238,115.6706,79,64,40
115.6706,115.84882,71,64,40
115.84882,116.02705,74,64,40
116.02705,116.561714,79,64,40
116.561714,116.62855,74,74,40
116.62855,116.69538,76,64,40
116.69538,116.762215,74,64,40
116.762215,116.82905,76,64,40
116.82905,116.89588,74,64,40
116.89588,116.962715,76,64,40
116.962715,117.02955,74,64,40
117.02955,117.09638,76,64,40
117.09638,117.163216,74,64,40
117.163216,117.23005,76,64,40
117.23005,117.29688,74,64,40
117.29688,117.36372,76,64,40
117.36372,117.49739,73,64,40
117.49739,117.63106,74,64,40
117.63106,117.80928,74,64,40
117.80928,117.9875,69,64,40
117.9875,118.165726,74,64,40
118.165726,118.70039,78,64,40
118.70039,118.76723,81,74,40
118.76723,118.83406,83,64,40
118.83406,118.900894,81,64,40
118.900894,118.96773,83,64,40
118.96773,119.03456,81,64,40
119.03456,119.101395,83,64,40
119.101395,119.16823,81,64,40
119.16823,119.23506,83,64,40
119.23506,119.301895,81,64,40
119.301895,119.36874,83,64,40
119.36874,119.43557,81,64,40
119.43557,119.5024,83,64,40
119.5024,119.63607,80,64,40
119.63607,119.76974,81,64,40
119.76974,119.94796,76,64,40
119.94796,120.12618,79,64,40
120.12618,120.304405,76,64,40
120.304405,120.83907,69,64,40
120.83907,120.90591,81,74,40
120.90591,120.97274,83,64,40
120.97274,121.03957,81,64,40
121.03957,121.10641,83,64,40
121.10641,121.17324,81,64,40
121.17324,121.240074,83,64,40
121.240074,121.30691,81,64,40
121.30691,121.37375,83,64,40
121.37375,121.44058,81,64,40
121.44058,121.507416,83,64,40
121.507416,121.57425,81,64,40
121.57425,121.64108,83,64,40
121.64108,121.77475,80,64,40
121.77475,121.90842,81,64,40
121.90842,122.08664,74,64,40
122.08664,122.26486,69,64,40
122.26486,122.443085,74,64,40
122.443085,122.97775,78,64,40
122.97775,123.51243,62,64,40
124.581764,125.0496,81,64,40
125.0496,125.11643,88,64,40
125.11643,125.294655,86,64,40
125.294655,125.472885,85,64,40
125.472885,125.65111,86,64,40
125.65111,125.82933,90,64,40
125.82933,126.00755,88,64,40
126.00755,126.185776,86,64,40
126.185776,126.364,85,64,40
126.364,126.54222,86,64,40
126.54222,126.72044,83,64,40
126.72044,126.89867,81,64,40
126.89867,127.07689,83,64,40
127.07689,127.25511,80,64,40
127.25511,127.43334,81,64,40
127.43334,127.611565,78,64,40
127.611565,127.78979,77,64,40
127.78979,127.96801,78,64,40
127.96801,128.14622,74,64,40
128.14622,128.32445,73,64,40
128.32445,128.50269,74,64,40
128.50269,128.68091,69,64,40
128.68091,128.85913,68,64,40
128.85913,129.03735,69,64,40
129.03735,129.21558,66,64,40
129.21558,129.3938,62,64,40
129.3938,129.57202,57,64,40
129.57202,129.75024,61,64,40
129.75024,129.92847,64,64,40
129.92847,130.10669,69,64,40
130.10669,130.28491,73,64,40
130.28491,130.46313,76,64,40
130.46313,130.64136,81,64,40
130.64136,130.81958,83,64,40
130.81958,130.9978,84,64,40
130.9978,131.17603,85,64,40
131.17603,131.35425,86,64,40
131.35425,131.53247,87,64,40
131.53247,131.7107,88,64,40
131.7107,131.88892,89,64,40
131.88892,132.06714,90,64,40
132.06714,132.24536,91,64,40
132.24536,132.4236,95,74,40
132.4236,132.60182,93,64,40
132.60182,132.78004,90,64,40
132.78004,132.95827,93,74,40
132.95827,133.13649,91,64,40
133.13649,133.31471,88,64,40
133.31471,133.49294,91,74,40
133.49294,133.60432,90,64,40
133.60432,133.67116,88,64,40
133.67116,133.84938,86,64,40
133.84938,134.0276,85,64,40
134.0276,134.20583,86,64,40
134.20583,134.38405,90,64,40
134.38405,134.56227,88,64,40
134.56227,134.7405,86,64,40
134.7405,134.91872,85,64,40
134.91872,135.09694,86,64,40
135.09694,135.27516,83,64,40
135.27516,135.45338,81,64,40
135.45338,135.6316,83,64,40
135.6316,135.80983,80,64,40
135.80983,135.98805,81,64,40
135.98805,136.16628,78,64,40
136.16628,136.3445,77,64,40
136.3445,136.52274,78,64,40
136.52274,136.70096,74,64,40
136.70096,136.87918,73,64,40
136.87918,137.0574,74,64,40
137.0574,137.23563,69,64,40
137.23563,137.41385,68,64,40
137.41385,137.59207,69,64,40
137.59207,137.7703,66,64,40
137.7703,137.94852,62,64,40
137.94852,138.12674,61,64,40
138.12674,138.30496,64,64,40
138.30496,138.48318,69,64,40
138.48318,138.61685,73,64,40
138.61685,138.75052,76,64,40
138.75052,138.88419,81,64,40
138.88419,139.01785,85,64,40
139.01785,139.19608,88,64,40
139.19608,139.3743,87,64,40
139.3743,139.55252,90,64,40
139.55252,139.73074,88,64,40
139.73074,139.90897,86,64,40
139.90897,140.08719,83,64,40
140.08719,140.26541,81,64,40
140.26541,140.44365,85,64,40
140.44365,140.62187,83,64,40
140.62187,140.8001,81,64,40
140.8001,140.97832,88,64,40
140.97832,141.15654,86,64,40
141.15654,141.33476,85,64,40
141.33476,141.51299,95,64,40
141.51299,141.69121,93,64,40
141.69121,141.86943,97,64,40
141.86943,142.04765,95,64,40
142.04765,142.15904,91,64,40
142.15904,142.22588,88,64,40
142.22588,142.4041,86,64,40
142.4041,142.58232,85,64,40
142.58232,142.76054,86,64,40
142.76054,142.93877,90,64,40
142.93877,143.11699,88,64,40
143.11699,143.29521,86,64,40
143.29521,143.47343,85,64,40
143.47343,143.65166,86,64,40
143.65166,143.82988,83,64,40
143.82988,144.0081,81,64,40
144.0081,144.18633,83,64,40
144.18633,144.36455,80,64,40
144.36455,144.54279,81,64,40
144.54279,144.72101,78,64,40
144.72101,144.89923,77,64,40
144.89923,145.07745,78,64,40
145.07745,145.25568,74,64,40
145.25568,145.4339,73,64,40
145.4339,145.61212,74,64,40
145.61212,145.79034,69,64,40
145.79034,145.96857,68,64,40
145.96857,146.14679,69,64,40
146.14679,146.32501,66,64,40
146.32501,146.50323,62,64,40
146.50323,146.68146,57,64,40
146.68146,146.85968,61,64,40
146.85968,147.0379,64,64,40
147.0379,147.21613,69,64,40
147.21613,147.39435,73,64,40
147.39435,147.57257,76,64,40
147.57257,147.7508,81,64,40
147.7508,147.92902,83,64,40
147.92902,148.10724,84,64,40
148.10724,148.28546,85,64,40
148.28546,148.46368,86,64,40
148.46368,148.64192,87,64,40
148.64192,148.82014,88,64,40
148.82014,148.99837,89,64,40
148.99837,149.17659,90,64,40
149.17659,149.35481,91,64,40
149.35481,149.53304,95,74,40
149.53304,149.71126,93,64,40
149.71126,149.88948,90,64,40
149.88948,150.0677,93,74,40
150.0677,150.24593,91,64,40
150.24593,150.42415,88,64,40
150.42415,150.60237,91,74,40
150.60237,150.71376,90,64,40
150.71376,150.7806,88,64,40
150.7806,150.95882,86,64,40
150.95882,151.13704,85,64,40
151.13704,151.31526,86,64,40
151.31526,151.49348,90,64,40
151.49348,151.6717,88,64,40
151.6717,151.84993,86,64,40
151.84993,152.02815,85,64,40
152.02815,152.20638,86,64,40
152.20638,152.3846,83,64,40
152.3846,152.56284,81,64,40
152.56284,152.74106,83,64,40
152.74106,152.91928,80,64,40
152.91928,153.0975,81,64,40
153.0975,153.27573,78,64,40
153.27573,153.45395,77,64,40
153.45395,153.63217,78,64,40
153.63217,153.8104,74,64,40
153.8104,153.98862,73,64,40
153.98862,154.16684,74,64,40
154.16684,154.34506,69,64,40
154.34506,154.52328,68,64,40
154.52328,154.7015,69,64,40
154.7015,154.87973,66,64,40
154.87973,155.05795,62,64,40
155.05795,155.23618,61,64,40
155.23618,155.4144,64,64,40
155.4144,155.59262,69,64,40
155.59262,155.72629,73,64,40
155.72629,155.85995,76,64,40
155.85995,155.99362,81,64,40
155.99362,156.12729,85,64,40
156.12729,156.30551,88,64,40
156.30551,156.48373,87,64,40
156.48373,156.66197,90,64,40
156.66197,156.8402,88,64,40
156.8402,157.01842,86,64,40
157.01842,157.19664,83,64,40
157.19664,157.37486,81,64,40
157.37486,157.55309,80,64,40
157.55309,157.73131,81,64,40
157.73131,157.90953,85,64,40
157.90953,158.08775,83,64,40
158.08775,158.26598,81,64,40
158.26598,158.4442,88,64,40
158.4442,158.62242,86,64,40
158.62242,158.80064,85,64,40
158.80064,158.97887,90,64,40
158.97887,159.15709,88,64,40
159.15709,159.33531,86,64,40
159.33531,159.42442,91,64,40
159.51353,159.60265,90,64,40
159.69176,159.78087,88,64,40
159.86998,159.95909,86,64,40
160.0482,160.13731,85,64,40
160.22643,160.31554,83,64,40
160.40465,160.49376,81,64,40
160.58289,160.672,83,64,40
160.76111,160.85022,81,64,40
160.93933,161.02844,79,64,40
161.11755,161.20667,78,64,40
161.29578,161.38489,76,64,40
161.474,161.65222,74,64,40
161.65222,161.83044,78,64,40
161.83044,161.91956,69,64,40
162.00867,162.18689,69,64,40
162.18689,162.36511,74,64,40
162.36511,162.45422,66,64,40
162.54333,162.72156,66,64,40
162.72156,162.89978,69,64,40
162.89978,162.98889,62,64,40
163.078,163.25623,62,64,40
163.25623,163.43445,66,64,40
163.43445,163.52356,57,64,40
163.61267,163.70178,83,64,40
163.7909,163.88,81,64,40
163.96912,164.05823,80,64,40
164.14734,164.23645,79,64,40
164.32556,164.41467,78,64,40
164.50378,164.59291,77,64,40
164.68202,164.77113,76,64,40
164.86024,164.94936,74,64,40
165.03847,165.12758,73,64,40
165.21669,165.3058,71,64,40
165.39491,165.48402,69,64,40
165.57314,165.66225,67,64,40
165.75136,165.92958,66,64,40
165.92958,166.1078,61,64,40
166.1078,166.28603,62,64,40
166.28603,166.46425,69,64,40
166.46425,166.64247,65,64,40
166.64247,166.8207,66,64,40
166.8207,166.99892,74,64,40
166.99892,167.17714,68,64,40
167.17714,167.35536,69,64,40
167.35536,167.53358,78,64,40
167.53358,167.7118,73,64,40
167.7118,167.8232,74,64,40
167.8232,167.89003,85,64,40
167.89003,167.97914,83,64,40
168.06825,168.15736,82,64,40
168.24648,168.33559,83,64,40
168.4247,168.60294,86,74,40
168.60294,168.78116,74,64,40
168.78116,168.89255,79,64,40
168.89255,168.95938,85,64,40
168.95938,169.0485,83,64,40
169.1376,169.22672,82,64,40
169.31583,169.40494,83,64,40
169.49405,169.67227,86,74,40
169.67227,169.8505,74,64,40
169.8505,169.96188,79,64,40
169.96188,170.02872,88,64,40
170.02872,170.11783,86,64,40
170.20694,170.29605,85,64,40
170.38516,170.47427,86,64,40
170.56339,170.74161,90,74,40
170.74161,170.91983,80,64,40
170.91983,171.03122,81,64,40
171.03122,171.09805,88,64,40
171.09805,171.18716,86,64,40
171.27628,171.36539,85,64,40
171.4545,171.54361,86,64,40
171.63272,171.81094,90,74,40
171.81094,171.98917,80,64,40
171.98917,172.16739,81,64,40
172.16739,172.2565,91,100,40
172.34561,172.43472,90,64,40
172.52383,172.61296,88,64,40
172.70207,172.79118,86,64,40
172.8803,172.9694,85,64,40
173.05852,173.14763,83,64,40
173.23674,173.32585,81,64,40
173.41496,173.50407,83,64,40
173.59319,173.6823,81,64,40
173.77141,173.86052,79,64,40
173.94963,174.03874,78,64,40
174.12785,174.21696,76,64,40
174.30608,174.4843,74,64,40
174.4843,174.66252,62,64,40
174.66252,174.84074,66,64,40
174.84074,175.01897,69,64,40
175.01897,175.19719,65,64,40
175.19719,175.37541,66,64,40
175.37541,175.55363,74,64,40
175.55363,175.73186,68,64,40
175.73186,175.91008,69,64,40
175.91008,176.0883,78,64,40
176.0883,176.26653,73,64,40
176.26653,176.37791,74,64,40
176.37791,176.44475,85,64,40
176.44475,176.53386,83,64,40
176.62299,176.7121,82,64,40
176.80121,176.89032,83,64,40
176.97943,177.15765,86,74,40
177.15765,177.33588,74,64,40
177.33588,177.44727,79,64,40
177.44727,177.5141,85,64,40
177.5141,177.60321,83,64,40
177.69232,177.78143,82,64,40
177.87054,177.95966,83,64,40
178.04877,178.22699,86,74,40
178.22699,178.40521,74,64,40
178.40521,178.5166,79,64,40
178.5166,178.58344,88,64,40
178.58344,178.67255,86,64,40
178.76166,178.85077,85,64,40
178.93988,179.02899,86,64,40
179.1181,179.29633,90,74,40
179.29633,179.47455,80,64,40
179.47455,179.58594,81,64,40
179.58594,179.65277,88,64,40
179.65277,179.74188,86,64,40
179.831,179.9201,85,64,40
180.00922,180.09833,86,64,40
180.18744,180.36566,90,74,40
180.36566,180.54388,80,64,40
180.54388,180.65529,81,64,40
180.65529,180.72212,91,64,40
180.72212,180.81123,95,100,40
180.90034,180.98946,93,64,40
181.07857,181.16768,91,64,40
181.25679,181.3459,90,64,40
181.43501,181.52412,88,64,40
181.61324,181.70235,86,64,40
181.79146,181.88057,85,64,40
181.96968,182.05879,83,64,40
182.1479,182.23701,81,64,40
182.32613,182.41524,79,64,40
182.50435,182.59346,78,64,40
182.68257,182.77168,76,64,40
182.8608,182.9499,74,64,40
183.03902,183.12813,69,64,40
183.21724,183.30635,78,64,40
183.39546,183.48457,74,64,40
183.57368,183.6628,69,64,40
183.7519,183.84102,66,64,40
183.93013,184.4648,62,64,40
186.06882,186.19357,57,64,40
186.06882,186.19357,66,64,40
186.31833,186.44308,66,64,40
186.31833,186.44308,57,64,40
186.81735,186.94211,66,64,40
186.81735,186.94211,57,64,40
187.06686,187.19162,57,64,40
187.06686,187.19162,69,64,40
187.31638,187.44113,57,64,40
187.31638,187.44113,69,64,40
187.8154,187.94016,57,64,40
187.8154,187.94016,69,64,40
188.31442,188.43918,66,64,40
188.31442,188.43918,57,64,40
188.56393,188.68869,66,64,40
188.56393,188.68869,57,64,40
188.81345,188.9382,66,64,40
188.81345,188.9382,57,64,40
189.31248,189.43724,66,64,40
189.31248,189.43724,57,64,40
189.562,189.68675,66,64,40
189.562,189.68675,57,64,40
189.81151,189.93626,66,64,40
189.81151,189.93626,57,64,40
190.31053,190.43529,57,64,40
190.31053,190.43529,64,64,40
190.56004,190.6848,57,64,40
190.56004,190.6848,64,64,40
190.80956,190.93431,57,64,40
190.80956,190.93431,64,64,40
191.05907,191.30858,56,64,40
191.30858,191.55809,59,64,40
191.55809,191.8076,64,64,40
191.8076,192.05711,62,64,40
192.05711,192.18187,61,64,40
192.30663,192.43138,69,64,40
192.80565,192.9304,67,64,40
193.30467,193.42943,66,64,40
193.30467,193.42943,62,64,40
193.8037,193.92845,61,64,40
193.8037,193.92845,64,64,40
194.0532,194.17798,62,64,40
194.30273,194.42749,66,64,40
194.30273,194.42749,57,64,40
194.80176,194.92651,66,64,40
194.80176,194.92651,57,64,40
195.05127,195.17603,57,64,40
195.05127,195.17603,69,64,40
195.30078,195.42554,57,64,40
195.30078,195.42554,69,64,40
195.7998,195.92456,57,64,40
195.7998,195.92456,69,64,40
196.29883,196.42358,66,64,40
196.29883,196.42358,57,64,40
196.54834,196.6731,66,64,40
196.54834,196.6731,57,64,40
196.79785,196.9226,66,64,40
196.79785,196.9226,57,64,40
197.29688,197.42163,66,64,40
197.29688,197.42163,57,64,40
197.54639,197.67114,66,64,40
197.54639,197.67114,57,64,40
197.7959,197.92065,66,64,40
197.7959,197.92065,57,64,40
198.29492,198.41968,64,64,40
198.29492,198.41968,61,64,40
198.54443,198.66919,64,64,40
198.54443,198.66919,61,64,40
198.79395,198.9187,64,64,40
198.79395,198.9187,61,64,40
199.29298,199.41774,64,64,40
199.29298,199.41774,59,64,40
199.5425,199.66725,64,64,40
199.5425,199.66725,59,64,40
199.792,199.91676,64,64,40
199.792,199.91676,62,64,40
200.29103,200.41579,64,64,40
200.29103,200.41579,61,64,40
200.54054,200.6653,64,64,40
200.54054,200.6653,61,64,40
200.79005,200.91481,64,64,40
200.79005,200.91481,61,64,40
201.03957,201.53859,64,64,40
201.03957,201.53859,61,64,40
202.03761,202.16237,57,64,40
202.03761,202.16237,66,64,40
202.28712,202.41188,66,64,40
202.28712,202.41188,57,64,40
202.78615,202.9109,66,64,40
202.78615,202.9109,57,64,40
203.03566,203.16042,57,64,40
203.03566,203.16042,69,64,40
203.28517,203.40993,57,64,40
203.28517,203.40993,69,64,40
203.7842,203.90897,57,64,40
203.7842,203.90897,69,64,40
204.28323,204.40799,66,64,40
204.28323,204.40799,57,64,40
204.53275,204.6575,66,64,40
204.53275,204.6575,57,64,40
204.78226,204.90701,66,64,40
204.78226,204.90701,57,64,40
205.28128,205.40604,66,64,40
205.28128,205.40604,57,64,40
205.53079,205.65555,66,64,40
205.53079,205.65555,57,64,40
205.7803,205.90506,66,64,40
205.7803,205.90506,57,64,40
206.27933,206.40408,57,64,40
206.27933,206.40408,64,64,40
206.52884,206.6536,57,64,40
206.52884,206.6536,64,64,40
206.77835,206.9031,57,64,40
206.77835,206.9031,64,64,40
207.02786,207.27737,56,64,40
207.27737,207.52689,59,64,40
207.52689,207.7764,64,64,40
207.7764,208.02591,62,64,40
208.02591,208.15067,61,64,40
208.27542,208.40018,69,64,40
208.77446,208.89922,67,64,40
209.27348,209.39824,66,64,40
209.27348,209.39824,62,64,40
209.7725,209.89726,61,64,40
209.7725,209.89726,64,64,40
210.02202,210.14677,62,64,40
210.27153,210.39629,66,64,40
210.27153,210.39629,57,64,40
210.77055,210.89531,66,64,40
210.77055,210.89531,57,64,40
211.02007,211.14482,57,64,40
211.02007,211.14482,69,64,40
211.26958,211.39433,57,64,40
211.26958,211.39433,69,64,40
211.7686,211.89336,57,64,40
211.7686,211.89336,69,64,40
212.26762,212.39238,66,64,40
212.26762,212.39238,57,64,40
212.51714,212.64189,66,64,40
212.51714,212.64189,57,64,40
212.76665,212.8914,66,64,40
212.76665,212.8914,57,64,40
213.26567,213.39043,66,64,40
213.26567,213.39043,57,64,40
213.51518,213.63995,66,64,40
213.51518,213.63995,57,64,40
213.76471,213.88947,66,64,40
213.76471,213.88947,57,64,40
214.26373,214.38849,64,64,40
214.26373,214.38849,61,64,40
214.51324,214.638,64,64,40
214.51324,214.638,61,64,40
214.76276,214.88751,64,64,40
214.76276,214.88751,61,64,40
215.26178,215.38654,64,64,40
215.26178,215.38654,59,64,40
215.51129,215.63605,64,64,40
215.51129,215.63605,59,64,40
215.7608,215.88556,64,64,40
215.7608,215.88556,62,64,40
216.25983,216.38458,64,64,40
216.25983,216.38458,61,64,40
216.50934,216.6341,64,64,40
216.50934,216.6341,61,64,40
216.75885,216.8836,64,64,40
216.75885,216.8836,61,64,40
217.00836,217.50739,64,64,40
217.00836,217.50739,61,64,40
218.00641,218.13116,57,64,40
218.00641,218.13116,67,64,40
218.25592,218.38068,57,64,40
218.25592,218.38068,67,64,40
218.75496,218.87971,57,64,40
218.75496,218.87971,67,64,40
219.00447,219.12923,57,64,40
219.00447,219.12923,67,64,40
219.25398,219.37874,57,64,40
219.25398,219.37874,67,64,40
219.753,219.87776,57,64,40
219.753,219.87776,67,64,40
220.25203,220.37679,66,64,40
220.25203,220.37679,57,64,40
220.50154,220.6263,66,64,40
220.50154,220.6263,57,64,40
220.75105,220.87581,66,64,40
220.75105,220.87581,57,64,40
221.25008,221.37483,57,64,40
221.25008,221.37483,66,64,40
221.7491,221.87386,57,64,40
221.7491,221.87386,66,64,40
221.99861,222.12337,57,64,40
221.99861,222.12337,67,64,40
222.24812,222.37288,57,64,40
222.24812,222.37288,67,64,40
222.74715,222.8719,57,64,40
222.74715,222.8719,67,64,40
222.99666,223.12141,57,64,40
222.99666,223.12141,67,64,40
223.24617,223.37094,57,64,40
223.24617,223.37094,67,64,40
223.74521,223.86996,57,64,40
223.74521,223.86996,67,64,40
224.24423,224.36899,66,64,40
224.24423,224.36899,57,64,40
224.49374,224.6185,66,64,40
224.49374,224.6185,57,64,40
224.74326,224.86801,66,64,40
224.74326,224.86801,57,64,40
225.24228,225.36703,57,64,40
225.24228,225.36703,66,64,40
225.7413,225.86606,57,64,40
225.7413,225.86606,66,64,40
225.99081,226.11557,67,64,40
225.99081,226.11557,55,64,40
226.24033,226.36508,67,64,40
226.24033,226.36508,55,64,40
226.73935,226.8641,67,64,40
226.73935,226.8641,55,64,40
226.98886,227.11362,67,64,40
226.98886,227.11362,55,64,40
227.23837,227.36313,67,64,40
227.23837,227.36313,55,64,40
227.7374,227.86215,65,64,40
227.7374,227.86215,56,64,40
227.98691,228.23643,57,64,40
227.98691,228.23643,66,64,40
228.23643,228.48595,68,64,40
228.48595,228.73546,69,64,40
228.73546,228.98497,68,64,40
228.98497,229.23448,69,64,40
229.23448,229.484,69,64,40
229.484,229.7335,66,64,40
229.7335,229.98302,62,64,40
230.23253,230.35728,57,64,40
230.23253,230.35728,67,64,40
230.48204,230.6068,57,64,40
230.48204,230.6068,67,64,40
230.73155,230.85631,57,64,40
230.73155,230.85631,67,64,40
231.23058,231.35533,57,64,40
231.23058,231.35533,67,64,40
231.7296,231.85435,57,64,40
231.7296,231.85435,67,64,40
232.22862,232.35338,66,64,40
232.22862,232.35338,57,64,40
232.47813,232.60289,66,64,40
232.47813,232.60289,57,64,40
232.72765,232.8524,66,64,40
232.72765,232.8524,57,64,40
233.22668,233.35144,57,64,40
233.22668,233.35144,66,64,40
233.72571,233.85046,57,64,40
233.72571,233.85046,66,64,40
233.97522,234.09998,67,64,40
233.97522,234.09998,55,64,40
234.22473,234.34949,67,64,40
234.22473,234.34949,55,64,40
234.72375,234.84851,67,64,40
234.72375,234.84851,55,64,40
234.97327,235.09802,67,64,40
234.97327,235.09802,55,64,40
235.22278,235.34753,67,64,40
235.22278,235.34753,55,64,40
235.7218,235.84656,65,64,40
235.7218,235.84656,56,64,40
235.97131,236.22083,57,64,40
235.97131,236.22083,66,64,40
236.22083,236.47034,68,64,40
236.47034,236.71985,69,64,40
236.71985,236.96936,68,64,40
236.96936,237.21887,69,64,40
237.21887,237.46838,69,64,40
237.46838,237.7179,66,64,40
237.7179,237.96742,62,64,40
238.21693,238.34169,57,64,40
238.21693,238.34169,67,64,40
238.46645,238.5912,57,64,40
238.46645,238.5912,67,64,40
238.71596,238.84071,57,64,40
238.71596,238.84071,67,64,40
239.21498,239.33974,57,64,40
239.21498,239.33974,67,64,40
239.714,239.83876,57,64,40
239.714,239.83876,67,64,40
240.21303,240.33778,66,64,40
240.21303,240.33778,57,64,40
240.46254,240.5873,66,64,40
240.46254,240.5873,57,64,40
240.71205,240.8368,66,64,40
240.71205,240.8368,57,64,40
240.96156,241.46059,66,64,40
240.96156,241.46059,57,64,40
242.45863,242.95767,69,110,40
242.95767,243.4567,65,110,40
242.95767,243.4567,74,110,40
243.95572,244.12206,77,110,40
243.95572,244.12206,69,110,40
244.12206,244.28839,69,110,40
244.12206,244.28839,77,110,40
244.28839,244.45474,77,110,40
244.28839,244.45474,69,110,40
244.45474,244.62108,77,110,40
244.45474,244.62108,69,110,40
244.62108,244.78743,69,110,40
244.62108,244.78743,77,110,40
244.78743,244.95377,77,110,40
244.78743,244.95377,69,110,40
244.95377,245.45279,74,110,40
244.95377,245.45279,65,110,40
245.95181,246.11816,69,110,40
245.95181,246.11816,65,110,40
246.11816,246.2845,69,110,40
246.11816,246.2845,65,110,40
246.2845,246.45084,69,110,40
246.2845,246.45084,65,110,40
246.45084,246.61719,69,110,40
246.45084,246.61719,65,110,40
246.61719,246.78352,69,110,40
246.61719,246.78352,65,110,40
246.78352,246.94986,69,110,40
246.78352,246.94986,65,110,40
246.94986,247.44888,79,110,40
246.94986,247.44888,70,110,40
247.44888,247.94792,77,110,40
247.44888,247.94792,69,110,40
247.94792,248.44695,76,110,40
247.94792,248.44695,67,110,40
248.44695,248.94597,74,110,40
248.44695,248.94597,65,110,40
248.94597,249.1123,73,110,40
249.1123,249.27864,69,110,40
249.1123,249.27864,81,110,40
249.27864,249.44499,69,110,40
249.27864,249.44499,81,110,40
249.44499,249.61133,69,110,40
249.44499,249.61133,81,110,40
249.61133,249.77768,69,110,40
249.61133,249.77768,81,110,40
249.77768,249.94402,69,110,40
249.77768,249.94402,81,110,40
249.94402,250.44304,69,110,40
249.94402,250.44304,81,110,40
250.44304,250.94206,72,54,40
250.94206,251.02524,77,100,40
251.10841,251.27475,71,64,40
251.27475,251.44109,72,64,40
251.44109,251.52426,81,64,40
251.60744,251.77377,76,64,40
251.77377,251.94011,77,64,40
251.94011,252.02328,84,64,40
252.10646,252.2728,80,64,40
252.2728,252.43913,81,64,40
252.43913,252.52231,86,64,40
252.60548,252.77182,83,64,40
252.77182,252.93817,84,64,40
252.93817,253.02133,77,100,40
253.1045,253.27084,71,64,40
253.27084,253.4372,72,64,40
253.4372,253.52036,81,64,40
253.60353,253.76987,76,64,40
253.76987,253.93622,77,64,40
253.93622,254.01938,84,64,40
254.10255,254.2689,80,64,40
254.2689,254.43524,81,64,40
254.43524,254.51842,86,64,40
254.60158,254.76793,83,64,40
254.76793,254.93427,84,64,40
254.93427,255.1006,89,64,40
255.1006,255.26695,89,64,40
255.26695,255.43329,89,64,40
255.43329,255.59962,86,64,40
255.59962,255.76598,86,64,40
255.76598,255.93231,86,64,40
255.93231,256.09866,79,64,40
256.09866,256.26498,79,64,40
256.26498,256.43134,79,64,40
256.43134,256.5977,84,64,40
256.5977,256.76404,84,64,40
256.76404,256.93036,84,64,40
256.93036,257.0967,77,64,40
257.0967,257.26306,77,64,40
257.26306,257.42938,77,64,40
257.42938,257.59573,72,64,40
257.59573,257.7621,72,64,40
257.7621,257.9284,72,64,40
257.9284,258.42743,65,64,40
258.42743,258.92645,69,110,40
258.92645,259.42548,65,110,40
258.92645,259.42548,74,110,40
259.92453,260.09085,77,110,40
259.92453,260.09085,69,110,40
260.09085,260.2572,69,110,40
260.09085,260.2572,77,110,40
260.2572,260.42355,77,110,40
260.2572,260.42355,69,110,40
260.42355,260.58987,77,110,40
260.42355,260.58987,69,110,40
260.58987,260.75623,69,110,40
260.58987,260.75623,77,110,40
260.75623,260.92258,77,110,40
260.75623,260.92258,69,110,40
260.92258,261.4216,74,110,40
260.92258,261.4216,65,110,40
261.92062,262.08694,69,110,40
261.92062,262.08694,65,110,40
262.08694,262.2533,69,110,40
262.08694,262.2533,65,110,40
262.2533,262.41965,69,110,40
262.2533,262.41965,65,110,40
262.41965,262.58597,69,110,40
262.41965,262.58597,65,110,40
262.58597,262.75232,69,110,40
262.58597,262.75232,65,110,40
262.75232,262.91867,69,110,40
262.75232,262.91867,65,110,40
262.91867,263.4177,79,110,40
262.91867,263.4177,70,110,40
263.4177,263.91672,77,110,40
263.4177,263.91672,69,110,40
263.91672,264.41574,76,110,40
263.91672,264.41574,67,110,40
264.41574,264.91476,74,110,40
264.41574,264.91476,65,110,40
264.91476,265.08112,73,110,40
265.08112,265.24744,69,110,40
265.08112,265.24744,81,110,40
265.24744,265.4138,69,110,40
265.24744,265.4138,81,110,40
265.4138,265.58014,69,110,40
265.4138,265.58014,81,110,40
265.58014,265.74646,69,110,40
265.58014,265.74646,81,110,40
265.74646,265.9128,69,110,40
265.74646,265.9128,81,110,40
265.9128,266.41183,69,110,40
265.9128,266.41183,81,110,40
266.41183,266.91086,72,54,40
266.91086,266.99405,77,100,40
267.0772,267.24356,71,64,40
267.24356,267.40988,72,64,40
267.40988,267.49307,81,64,40
267.57623,267.74258,76,64,40
267.74258,267.9089,77,64,40
267.9089,267.9921,84,64,40
268.07526,268.2416,80,64,40
268.2416,268.40793,81,64,40
268.40793,268.49112,86,64,40
268.57428,268.74063,83,64,40
268.74063,268.90695,84,64,40
268.90695,268.99014,77,100,40
269.0733,269.23965,71,64,40
269.23965,269.40598,72,64,40
269.40598,269.48917,81,64,40
269.57233,269.73868,76,64,40
269.73868,269.90503,77,64,40
269.90503,269.9882,84,64,40
270.07135,270.2377,80,64,40
270.2377,270.40405,81,64,40
270.40405,270.4872,86,64,40
270.57037,270.73672,83,64,40
270.73672,270.90308,84,64,40
270.90308,271.0694,89,64,40
271.0694,271.23575,89,64,40
271.23575,271.4021,89,64,40
271.4021,271.56842,86,64,40
271.56842,271.73477,86,64,40
271.73477,271.90112,86,64,40
271.90112,272.06744,79,64,40
272.06744,272.2338,79,64,40
272.2338,272.40015,79,64,40
272.40015,272.56647,84,64,40
272.56647,272.73282,84,64,40
272.73282,272.89917,84,64,40
272.89917,273.06552,77,64,40
273.06552,273.23184,77,64,40
273.23184,273.3982,77,64,40
273.3982,273.56454,72,64,40
273.56454,273.73087,72,64,40
273.73087,273.89722,72,64,40
273.89722,274.39624,65,64,40
275.3943,275.45667,79,54,40
275.45667,275.51904,81,54,40
275.51904,275.58142,79,54,40
275.58142,275.6438,81,54,40
275.6438,275.70618,79,54,40
275.70618,275.76855,81,54,40
275.76855,275.83093,78,54,40
275.83093,275.8933,79,54,40
275.8933,275.97647,86,54,40
276.05966,276.14282,84,54,40
276.226,276.30917,83,54,40
276.39233,276.47552,82,54,40
276.5587,276.64185,81,54,40
276.72504,276.8082,79,54,40
276.89136,277.39038,81,54,40
277.39038,277.45276,84,54,40
277.45276,277.51514,86,54,40
277.51514,277.5775,84,54,40
277.5775,277.6399,86,54,40
277.6399,277.70227,84,54,40
277.70227,277.76465,86,54,40
277.76465,277.82703,83,54,40
277.82703,277.8894,84,54,40
277.8894,277.9726,81,54,40
278.05576,278.13892,79,54,40
278.2221,278.30527,77,54,40
278.38843,278.47162,76,54,40
278.55478,278.63794,77,54,40
278.72113,278.8043,74,54,40
278.88745,279.3865,72,54,40
279.3865,279.44888,79,54,40
279.44888,279.51126,81,54,40
279.51126,279.57364,79,54,40
279.57364,279.63602,81,54,40
279.63602,279.6984,79,54,40
279.6984,279.76077,81,54,40
279.76077,279.82315,78,54,40
279.82315,279.88553,79,54,40
279.88553,279.9687,82,54,40
280.05185,280.13504,79,54,40
280.2182,280.30136,76,54,40
280.38455,280.4677,72,54,40
280.55087,280.63406,74,54,40
280.71722,280.80038,76,54,40
280.88358,281.3826,77,54,40
281.3826,281.44498,72,54,40
281.44498,281.50735,74,54,40
281.50735,281.56973,72,54,40
281.56973,281.6321,74,54,40
281.6321,281.6945,72,54,40
281.6945,281.75687,74,54,40
281.75687,281.81924,71,54,40
281.81924,281.88162,72,54,40
281.88162,281.96478,77,54,40
282.04794,282.13113,75,54,40
282.2143,282.29745,74,54,40
282.38065,282.4638,72,54,40
282.54697,282.63016,70,54,40
282.71332,282.7965,69,54,40
282.87967,283.3787,70,54,40
284.37674,284.43912,81,54,40
284.43912,284.5015,82,54,40
284.5015,284.56387,81,56,40
284.56387,284.62625,82,56,40
284.62625,284.68863,81,58,40
284.68863,284.751,82,61,40
284.751,284.8134,80,61,40
284.8134,284.87576,81,63,40
284.87576,285.8738,86,74,40
285.8738,286.12332,84,60,40
286.12332,286.37283,82,58,40
286.37283,286.62234,81,58,40
286.62234,286.87186,79,56,40
286.87186,287.8699,77,54,40
287.8699,288.36893,73,54,40
288.36893,288.7432,76,54,40
288.7432,288.86795,74,54,40
288.86795,289.86603,74,54,40
292.36115,292.42352,69,54,40
292.42352,292.4859,70,54,40
292.4859,292.54828,69,56,40
292.54828,292.61066,70,56,40
292.61066,292.67303,69,58,40
292.67303,292.7354,70,61,40
292.7354,292.7978,68,61,40
292.7978,292.86017,69,63,40
292.86017,293.6087,74,74,40
293.6087,293.73346,75,61,40
293.73346,293.85822,74,60,40
293.85822,294.10773,72,60,40
294.10773,294.35724,70,58,40
294.35724,294.60675,69,57,40
294.60675,294.85626,67,55,40
294.85626,295.8543,65,54,40
295.8543,296.35333,61,54,40
296.35333,296.7276,64,54,40
296.7276,296.85236,62,54,40
296.85236,298.34943,62,54,40
299.91483,300.71683,62,54,40
300.71683,300.98416,65,54,40
300.98416,301.7862,62,54,40
301.7862,302.05353,65,54,40
302.05353,302.85553,62,54,40
302.85553,303.12286,65,54,40
303.12286,303.92487,62,54,40
303.92487,304.1922,65,54,40
304.1922,305.26154,63,54,40
305.26154,306.33087,64,64,40
306.33087,306.86554,65,54,40
306.86554,307.4002,63,54,40
307.4002,307.93488,62,54,40
307.93488,308.46954,60,54,40
308.46954,309.27155,62,54,40
309.27155,309.53888,65,54,40
309.53888,310.3409,62,54,40
310.3409,310.60825,65,54,40
310.60825,311.41025,61,54,40
311.41025,311.67758,65,54,40
311.67758,312.74692,59,64,40
312.74692,313.81625,65,54,40
313.81625,314.35092,67,54,40
314.35092,314.8856,64,54,40
314.8856,315.42026,65,54,40
315.42026,315.95493,64,54,40
315.95493,317.02426,63,54,40
317.02426,317.8263,62,54,40
317.8263,318.09363,65,54,40
318.09363,318.89563,62,54,40
318.89563,319.16296,65,54,40
319.16296,319.96497,62,54,40
319.96497,320.2323,65,54,40
320.2323,321.0343,62,54,40
321.0343,321.30164,65,54,40
321.30164,322.37097,63,54,40
322.37097,323.4403,64,64,40
323.4403,323.97498,65,54,40
323.97498,324.50964,63,54,40
324.50964,325.0443,62,54,40
325.0443,325.57898,60,54,40
325.57898,326.381,62,54,40
326.381,326.64835,65,54,40
326.64835,327.45035,62,54,40
327.45035,327.71768,65,54,40
327.71768,328.51968,61,54,40
328.51968,328.78702,65,54,40
328.78702,329.85635,59,64,40
329.85635,330.9257,65,54,40
330.9257,331.46036,67,54,40
331.46036,331.99503,64,54,40
331.99503,332.26236,65,54,40
332.5297,333.06436,57,54,40
333.06436,333.59903,60,54,40
333.59903,334.13373,62,54,40
334.13373,334.40106,63,54,40
334.40106,334.6684,65,54,40
334.6684,334.93573,63,54,40
334.93573,335.20306,65,54,40
335.20306,335.4704,63,54,40
335.4704,335.73773,65,54,40
335.73773,336.00507,63,54,40
336.00507,336.2724,65,54,40
336.2724,336.53973,61,54,40
336.53973,336.80707,65,54,40
336.80707,337.0744,61,54,40
337.0744,337.34174,65,54,40
337.34174,337.60907,61,54,40
337.60907,337.8764,65,54,40
337.8764,338.14374,61,54,40
338.14374,338.41107,65,54,40
338.41107,338.6784,66,54,40
338.6784,338.94574,68,55,40
338.94574,339.21307,66,55,40
339.21307,339.4804,68,56,40
339.4804,339.74774,66,57,40
339.74774,340.01508,68,57,40
340.01508,340.2824,66,58,40
340.2824,340.54974,68,58,40
340.54974,340.81708,65,59,40
340.81708,341.0844,68,60,40
341.0844,341.35175,65,60,40
341.35175,341.61908,68,61,40
341.61908,341.88644,65,62,40
341.88644,342.15378,68,62,40
342.15378,342.4211,65,63,40
342.4211,342.68845,68,63,40
342.68845,342.95578,70,54,40
343.2231,343.49045,70,54,40
343.75778,344.02512,70,54,40
344.29245,344.55978,70,54,40
344.82712,345.09445,68,54,40
345.3618,345.62912,68,54,40
345.89645,346.1638,68,54,40
346.43112,346.69846,68,54,40
346.9658,347.23312,66,54,40
347.50046,347.7678,66,54,40
348.03513,348.30246,63,54,40
348.5698,348.83713,66,54,40
349.10446,349.3718,65,54,40
349.63913,350.17383,73,54,40
350.17383,350.7085,72,54,40
350.7085,351.24316,71,54,40
351.24316,351.5105,70,54,40
351.77783,352.04517,70,54,40
352.3125,352.57983,70,54,40
352.84717,353.1145,70,54,40
353.38184,353.64917,68,54,40
353.9165,354.18384,68,54,40
354.45117,354.7185,68,54,40
354.98584,355.25317,68,54,40
355.5205,355.78784,66,54,40
356.05518,356.3225,66,54,40
356.58984,356.85718,63,54,40
357.1245,357.39185,66,54,40
357.65918,358.72855,65,54,40
359.79788,360.73355,72,64,40
360.73355,360.86722,75,64,40
360.86722,361.66922,78,74,40
361.66922,361.8029,76,64,40
361.8029,361.93655,75,64,40
361.93655,362.47122,73,64,40
362.47122,362.73856,64,64,40
363.0059,363.27322,64,63,40
363.54056,363.8079,64,62,40
364.07523,364.34256,62,61,40
364.6099,364.87723,62,60,40
365.14456,365.4119,62,59,40
365.67923,365.9466,62,58,40
366.21393,367.28326,61,57,40
368.3526,369.28827,65,64,40
369.28827,369.42194,68,64,40
369.42194,370.22394,71,74,40
370.22394,370.3576,69,64,40
370.3576,370.49127,68,64,40
370.49127,371.02594,66,64,40
371.02594,371.29327,57,63,40
371.5606,371.82794,57,62,40
372.09528,372.3626,57,60,40
372.62994,372.89728,55,59,40
373.1646,373.43195,55,58,40
373.69928,373.9747,55,57,40
374.2768,374.99295,55,55,40
376.65637,376.8435,74,64,40
377.03064,377.21777,74,64,40
377.34253,377.4049,74,64,40
377.4049,377.59204,78,64,40
377.77917,377.9663,78,64,40
378.15344,378.90198,74,64,40
378.90198,379.27625,69,64,40
379.6505,380.02478,69,64,40
380.2119,380.39908,69,64,40
380.39908,380.67978,76,64,40
380.67978,380.77335,74,64,40
380.77335,381.05405,73,64,40
381.05405,381.1476,71,64,40
381.1476,381.89615,69,64,40
382.27042,382.39517,69,64,40
382.39517,382.51993,71,64,40
382.51993,382.64468,73,64,40
382.64468,382.83182,74,64,40
383.01895,383.2061,74,64,40
383.33084,383.39322,74,64,40
383.39322,383.58035,78,64,40
383.7675,383.95462,78,64,40
384.14175,384.8903,74,64,40
384.8903,385.26456,69,64,40
385.26456,385.63882,74,64,40
385.63882,385.82596,73,64,40
385.82596,385.91953,74,64,40
385.91953,386.0131,73,64,40
386.0131,386.2938,71,64,40
386.2938,386.38736,73,64,40
386.38736,386.76163,74,74,40
386.76163,387.1359,68,64,40
387.1359,387.88443,69,64,40
388.75775,388.8825,57,64,40
388.8825,389.00726,66,64,40
389.00726,389.13202,62,64,40
389.13202,389.25677,69,64,40
389.25677,389.38153,66,64,40
389.38153,389.7558,74,74,40
389.7558,390.13007,69,64,40
390.25482,390.37958,57,64,40
390.37958,390.50433,66,64,40
390.50433,390.6291,62,64,40
390.6291,390.75385,69,64,40
390.75385,390.8786,66,64,40
390.8786,391.25287,74,74,40
391.25287,391.62714,69,64,40
391.7519,391.87665,57,64,40
391.87665,392.0014,67,64,40
392.0014,392.12616,64,64,40
392.12616,392.25092,69,64,40
392.25092,392.37567,67,64,40
392.37567,392.74994,76,74,40
392.74994,393.1242,69,64,40
393.24896,393.37372,57,64,40
393.37372,393.49847,67,64,40
393.49847,393.62323,64,64,40
393.62323,393.748,69,64,40
393.748,393.87274,67,64,40
393.87274,394.247,76,74,40
394.247,394.62128,69,64,40
394.74603,394.8708,57,64,40
394.8708,394.99554,66,64,40
394.99554,395.1203,62,64,40
395.1203,395.24506,69,64,40
395.24506,395.3698,66,64,40
395.3698,395.74408,74,74,40
395.74408,396.11835,69,64,40
396.2431,396.36786,57,64,40
396.36786,396.49265,66,64,40
396.49265,396.6174,62,64,40
396.6174,396.74216,69,64,40
396.74216,396.8669,66,64,40
396.8669,397.24118,74,74,40
397.24118,397.61545,69,64,40
397.7402,397.86496,61,64,40
397.86496,397.98972,69,64,40
397.98972,398.11447,64,64,40
398.11447,398.23923,73,64,40
398.23923,398.36398,69,64,40
398.36398,398.73825,76,74,40
398.73825,399.11252,68,64,40
399.23727,399.36203,57,64,40
399.36203,399.4868,64,64,40
399.4868,399.61154,61,64,40
399.61154,399.7363,69,64,40
399.7363,399.86105,64,64,40
399.86105,400.23532,73,74,40
400.23532,400.6096,69,64,40
400.6096,400.98386,73,64,40
400.98386,401.35812,73,64,40
401.35812,401.54526,74,64,40
401.54526,401.7324,73,64,40
401.7324,401.91953,71,64,40
401.91953,402.10666,73,64,40
402.10666,402.8552,74,64,40
402.8552,403.22946,69,64,40
403.60373,404.16513,73,64,40
404.16513,404.35226,73,64,40
404.35226,404.53943,73,64,40
404.53943,404.72656,79,64,40
404.72656,404.9137,76,64,40
404.9137,405.10083,73,64,40
405.10083,405.84937,74,64,40
406.22363,406.5979,74,64,40
406.5979,406.78503,71,64,40
406.97217,407.1593,71,64,40
407.34644,407.53357,71,64,40
407.65833,407.7207,71,64,40
407.7207,407.90784,74,75,40
408.09497,408.8435,74,64,40
408.8435,409.21777,69,64,40
409.59204,410.15344,69,64,40
410.15344,410.34058,69,64,40
410.34058,410.71484,76,64,40
410.71484,411.0891,73,64,40
411.0891,411.83765,74,64,40
412.2119,412.5862,86,64,40
412.5862,412.77335,83,64,40
412.96048,413.1476,83,64,40
413.33475,413.52188,83,64,40
413.64664,413.709,83,64,40
413.709,413.89615,86,75,40
414.08328,414.83182,86,64,40
414.83182,415.2061,81,64,40
415.58035,416.14175,81,64,40
416.14175,416.2665,81,64,40
416.2665,416.3289,81,64,40
416.3289,416.70316,88,64,40
416.70316,417.07742,85,64,40
417.07742,417.82596,86,64,40
418.69925,418.824,61,64,40
418.824,418.94876,64,64,40
418.94876,419.07352,67,64,40
419.07352,419.19827,68,64,40
419.19827,419.32303,69,64,40
419.32303,419.6973,71,74,40
419.6973,420.07156,69,64,40
420.19632,420.32108,62,64,40
420.32108,420.44583,66,64,40
420.44583,420.57062,67,64,40
420.57062,420.69537,68,64,40
420.69537,420.82013,69,64,40
420.82013,421.1944,78,74,40
421.1944,421.56866,74,64,40
421.69342,421.81818,61,64,40
421.81818,421.94293,64,64,40
421.94293,422.0677,67,64,40
422.0677,422.19244,68,64,40
422.19244,422.3172,69,64,40
422.3172,422.69147,71,74,40
422.69147,423.06573,69,64,40
423.1905,423.31525,62,64,40
423.31525,423.44,66,64,40
423.44,423.56476,67,64,40
423.56476,423.6895,68,64,40
423.6895,423.81427,69,64,40
423.81427,424.18854,78,74,40
424.18854,424.5628,74,64,40
424.68756,424.81232,62,64,40
424.81232,424.93707,67,64,40
424.93707,425.06183,71,64,40
425.06183,425.18658,72,64,40
425.18658,425.31134,73,64,40
425.31134,425.6856,76,74,40
425.6856,426.05988,74,64,40
426.18463,426.3094,62,64,40
426.3094,426.43414,66,64,40
426.43414,426.5589,67,64,40
426.5589,426.68365,68,64,40
426.68365,426.8084,69,64,40
426.8084,427.18268,76,74,40
427.18268,427.55695,74,64,40
427.6817,427.80646,64,64,40
427.80646,427.9312,67,64,40
427.9312,428.05597,68,64,40
428.05597,428.18073,69,64,40
428.18073,428.30548,73,64,40
428.30548,428.67978,79,74,40
428.67978,429.05405,76,64,40
429.1788,429.30356,62,64,40
429.30356,429.4283,66,64,40
429.4283,429.55307,67,64,40
429.55307,429.67783,68,64,40
429.67783,429.80258,69,64,40
429.80258,430.17685,78,74,40
430.17685,430.55112,74,64,40
430.55112,430.73825,71,64,40
430.92538,431.11252,71,64,40
431.29965,431.4868,71,64,40
431.61154,431.67392,71,64,40
431.67392,431.86105,74,75,40
432.0482,432.79672,74,64,40
432.79672,433.171,69,64,40
433.54526,434.10666,69,64,40
434.10666,434.2938,69,64,40
434.2938,434.66806,76,75,40
434.66806,435.04233,73,64,40
435.04233,435.79086,74,64,40
438.0365,438.80423,62,54,40
438.80423,439.6198,62,54,40
439.6198,440.04752,62,54,40
440.48975,440.94745,62,49,40
441.42178,445.94644,62,44,40
3.211675,3.746345,66,54,41
3.211675,3.746345,57,54,41
4.281015,4.54835,57,54,41
4.281015,4.54835,66,54,41
4.815685,5.08302,57,54,41
4.815685,5.08302,66,54,41
5.350355,7.489035,66,54,41
7.489035,8.023705,69,54,41
7.489035,8.023705,67,54,41
8.558375,8.82571,69,54,41
8.558375,8.82571,67,54,41
9.093045,9.36038,69,54,41
9.093045,9.36038,67,54,41
9.627715,9.89505,69,54,41
9.627715,9.89505,67,54,41
10.162385,10.697055,64,54,41
10.697055,11.231725,66,54,41
11.231725,11.766395,67,54,41
11.766395,12.301065,66,54,41
11.766395,12.301065,57,54,41
12.835735,13.10307,57,54,41
12.835735,13.10307,66,54,41
13.370405,13.63774,57,54,41
13.370405,13.63774,66,54,41
13.905075,15.509085,66,54,41
15.509085,16.043755,66,54,41
16.043755,17.647764,64,54,41
17.647764,18.182434,64,54,41
18.182434,18.44977,64,54,41
18.717106,19.251776,67,54,41
19.251776,19.786446,66,54,41
19.786446,20.321115,64,54,41
20.321115,20.855785,66,54,41
20.321115,20.855785,57,54,41
21.390455,21.65779,57,54,41
21.390455,21.65779,66,54,41
21.925125,22.19246,57,54,41
21.925125,22.19246,66,54,41
22.459795,24.598475,66,54,41
24.598475,25.133144,69,54,41
24.598475,25.133144,67,54,41
25.667814,25.93515,69,54,41
25.667814,25.93515,67,54,41
26.202484,26.46982,69,54,41
26.202484,26.46982,67,54,41
26.737156,27.00449,69,54,41
26.737156,27.00449,67,54,41
27.271826,27.806496,64,54,41
27.806496,28.341166,66,54,41
28.341166,28.875835,67,54,41
28.875835,29.410505,66,54,41
28.875835,29.410505,57,54,41
29.945175,30.21251,57,54,41
29.945175,30.21251,66,54,41
30.479845,30.74718,57,54,41
30.479845,30.74718,66,54,41
31.014515,32.618526,66,54,41
32.618526,33.153194,66,54,41
33.153194,34.757206,64,54,41
34.757206,35.291874,64,54,41
35.291874,35.55921,64,54,41
35.826546,36.361214,61,54,41
36.361214,36.895885,64,54,41
36.895885,37.430553,66,54,41
37.430553,37.965225,67,64,41
38.499893,38.76723,67,64,41
39.034565,39.3019,67,64,41
39.569237,41.707916,66,64,41
41.707916,42.242584,67,64,41
42.777256,43.04459,67,64,41
43.311924,43.57926,67,64,41
43.846596,44.381264,66,64,41
44.381264,44.915936,69,74,41
44.915936,45.450603,67,64,41
45.450603,45.985275,66,64,41
45.985275,46.519943,67,64,41
47.054615,47.32195,67,64,41
47.589287,47.85662,67,64,41
48.123955,50.262634,66,64,41
50.262634,51.06464,67,64,41
51.06464,51.331974,67,64,41
51.331974,51.866646,67,64,41
51.866646,52.401314,67,64,41
52.401314,52.935986,66,64,41
52.935986,53.470654,69,74,41
53.470654,54.005325,67,64,41
54.005325,54.539993,66,64,41
54.539993,55.074665,67,64,41
55.609337,55.87667,67,64,41
56.144005,56.41134,67,64,41
56.678677,58.817356,66,64,41
58.817356,59.61936,67,64,41
59.61936,59.886696,67,64,41
59.886696,60.421364,67,64,41
60.421364,60.956036,67,64,41
60.956036,62.560043,66,64,41
64.164055,64.34228,54,64,41
64.34228,64.5205,57,64,41
64.5205,64.69872,62,64,41
64.69872,64.876945,66,64,41
64.876945,65.05517,62,64,41
65.05517,65.2334,57,64,41
65.2334,65.41162,54,64,41
65.41162,65.58984,57,64,41
65.58984,65.76807,62,64,41
65.76807,65.94629,66,64,41
65.94629,66.12451,62,64,41
66.12451,66.302734,57,64,41
66.302734,66.48096,54,64,41
66.48096,66.65918,57,64,41
66.65918,66.8374,62,64,41
66.8374,67.015625,66,64,41
67.015625,67.193855,62,64,41
67.193855,67.37208,57,64,41
67.37208,67.5503,54,64,41
67.5503,67.72852,57,64,41
67.72852,67.906746,62,64,41
67.906746,68.08497,66,64,41
68.08497,68.26319,62,64,41
68.26319,68.441414,57,64,41
68.441414,68.61964,55,64,41
68.61964,68.79786,57,64,41
68.79786,68.97608,61,64,41
68.97608,69.15431,64,64,41
69.15431,69.332535,61,64,41
69.332535,69.51076,57,64,41
69.51076,69.68898,55,64,41
69.68898,69.8672,57,64,41
69.8672,70.045425,61,64,41
70.045425,70.22365,64,64,41
70.22365,70.40187,61,64,41
70.40187,70.58009,57,64,41
70.58009,70.758316,55,64,41
70.758316,70.93654,57,64,41
70.93654,71.11476,61,64,41
71.11476,71.29299,64,64,41
71.29299,71.471214,61,64,41
71.471214,71.64944,57,64,41
71.64944,71.82766,55,64,41
71.82766,72.00588,57,64,41
72.00588,72.184105,61,64,41
72.184105,72.36233,64,64,41
72.36233,72.54055,61,64,41
72.54055,72.71877,57,64,41
72.71877,72.896996,54,64,41
72.896996,73.07522,57,64,41
73.07522,73.25345,62,64,41
73.25345,73.43167,66,64,41
73.43167,73.60989,62,64,41
73.60989,73.78812,57,64,41
73.78812,73.96634,54,64,41
73.96634,74.14456,57,64,41
74.14456,74.322784,62,64,41
74.322784,74.50101,66,64,41
74.50101,74.67923,62,64,41
74.67923,74.85745,57,64,41
74.85745,75.035675,54,64,41
75.035675,75.213905,57,64,41
75.213905,75.39213,62,64,41
75.39213,75.57035,66,64,41
75.57035,75.74857,62,64,41
75.74857,75.926796,57,64,41
75.926796,76.10502,54,64,41
76.10502,76.28324,57,64,41
76.28324,76.461464,62,64,41
76.461464,76.63969,66,64,41
76.63969,76.81791,62,64,41
76.81791,76.99613,57,64,41
76.99613,77.174355,52,64,41
77.174355,77.352585,57,64,41
77.352585,77.53081,61,64,41
77.53081,77.70903,64,64,41
77.70903,77.88725,61,64,41
77.88725,78.065475,57,64,41
78.065475,78.2437,52,64,41
78.2437,78.42192,59,64,41
78.42192,78.60014,62,64,41
78.60014,78.778366,64,64,41
78.778366,78.95659,62,64,41
78.95659,79.13481,59,64,41
79.13481,79.66949,57,64,41
79.66949,79.84771,57,64,41
79.84771,80.02593,61,64,41
80.02593,80.204155,64,64,41
80.204155,80.38238,54,64,41
80.38238,80.5606,57,62,41
80.5606,80.73882,62,61,41
80.73882,80.917046,61,60,41
80.917046,81.09527,57,58,41
81.09527,81.2735,55,57,41
81.2735,81.45172,54,64,41
81.45172,81.629944,57,64,41
81.629944,81.80817,62,64,41
81.80817,81.98639,66,64,41
81.98639,82.16461,62,64,41
82.16461,82.342834,57,64,41
82.342834,82.52106,54,64,41
82.52106,82.69928,57,64,41
82.69928,82.8775,62,64,41
82.8775,83.055725,66,64,41
83.055725,83.233955,62,64,41
83.233955,83.41218,57,64,41
83.41218,83.5904,54,64,41
83.5904,83.76862,57,64,41
83.76862,83.946846,62,64,41
83.946846,84.12507,66,64,41
84.12507,84.30329,62,64,41
84.30329,84.481514,57,64,41
84.481514,84.65974,54,64,41
84.65974,84.83796,57,64,41
84.83796,85.01618,62,64,41
85.01618,85.194405,66,64,41
85.194405,85.372635,62,64,41
85.372635,85.55086,57,64,41
85.55086,85.72908,55,64,41
85.72908,85.9073,57,64,41
85.9073,86.085526,61,64,41
86.085526,86.26375,64,64,41
86.26375,86.44197,61,64,41
86.44197,86.62019,57,64,41
86.62019,86.798416,55,64,41
86.798416,86.97664,57,64,41
86.97664,87.15486,61,64,41
87.15486,87.33309,64,64,41
87.33309,87.511314,61,64,41
87.511314,87.68954,57,64,41
87.68954,87.86776,55,64,41
87.86776,88.04598,57,64,41
88.04598,88.224205,61,64,41
88.224205,88.40243,64,64,41
88.40243,88.58065,61,64,41
88.58065,88.75887,57,64,41
88.75887,88.937096,55,64,41
88.937096,89.11532,57,64,41
89.11532,89.29355,61,64,41
89.29355,89.47177,64,64,41
89.47177,89.649994,61,64,41
89.649994,89.82822,57,64,41
89.82822,90.00644,54,64,41
90.00644,90.18466,57,64,41
90.18466,90.362885,62,64,41
90.362885,90.54111,66,64,41
90.54111,90.71933,62,64,41
90.71933,90.89755,57,64,41
90.89755,91.075775,54,64,41
91.075775,91.254005,57,64,41
91.254005,91.43223,62,64,41
91.43223,91.61045,66,64,41
91.61045,91.78867,62,64,41
91.78867,91.966896,57,64,41
91.966896,92.14512,54,64,41
92.14512,92.32334,57,64,41
92.32334,92.501564,62,64,41
92.501564,92.67979,66,64,41
92.67979,92.85801,62,64,41
92.85801,93.03623,57,64,41
93.03623,93.214455,54,64,41
93.214455,93.392685,57,64,41
93.392685,93.57091,62,64,41
93.57091,93.74913,66,64,41
93.74913,93.92735,62,64,41
93.92735,94.105576,57,64,41
94.105576,94.2838,52,64,41
94.2838,94.46202,57,64,41
94.46202,94.64024,61,64,41
94.64024,94.81847,64,64,41
94.81847,94.99669,61,64,41
94.99669,95.17491,57,64,41
95.17491,95.35314,52,64,41
95.35314,95.531364,59,64,41
95.531364,95.70959,62,64,41
95.70959,95.88781,64,64,41
95.88781,96.06603,62,64,41
96.06603,96.244255,59,64,41
96.244255,96.77892,57,64,41
96.77892,96.957146,57,64,41
96.957146,97.13537,61,64,41
97.13537,97.3136,64,64,41
97.3136,97.49182,55,64,41
97.49182,97.670044,57,62,41
97.670044,97.84827,61,61,41
97.84827,98.02649,54,60,41
98.02649,98.20471,57,58,41
98.20471,98.382935,62,57,41
98.382935,98.56116,55,64,41
98.56116,98.73938,57,64,41
98.73938,98.9176,61,64,41
98.9176,99.095825,64,64,41
99.095825,99.274055,61,64,41
99.274055,99.45228,57,64,41
99.45228,99.6305,55,64,41
99.6305,99.80872,57,64,41
99.80872,99.986946,61,64,41
99.986946,100.16517,64,64,41
100.16517,100.34339,61,64,41
100.34339,100.521614,57,64,41
100.521614,100.69984,54,64,41
100.69984,100.87806,57,64,41
100.87806,101.05628,62,64,41
101.05628,101.234505,66,64,41
101.234505,101.412735,62,64,41
101.412735,101.59096,57,64,41
101.59096,101.76918,54,64,41
101.76918,101.9474,57,64,41
101.9474,102.125626,62,64,41
102.125626,102.30385,66,64,41
102.30385,102.48207,62,64,41
102.48207,102.66029,57,64,41
102.66029,102.83852,55,64,41
102.83852,103.01674,57,64,41
103.01674,103.19496,61,64,41
103.19496,103.37319,64,64,41
103.37319,103.551414,61,64,41
103.551414,103.72964,57,64,41
103.72964,103.90786,55,64,41
103.90786,104.08608,57,64,41
104.08608,104.264305,61,64,41
104.264305,104.44253,64,64,41
104.44253,104.62075,61,64,41
104.62075,104.79897,57,64,41
104.79897,104.977196,54,64,41
104.977196,105.15542,57,64,41
105.15542,105.33365,62,64,41
105.33365,105.51187,66,64,41
105.51187,105.690094,62,64,41
105.690094,105.86832,57,64,41
105.86832,106.04654,54,64,41
106.04654,106.22476,57,64,41
106.22476,106.402985,62,64,41
106.402985,106.58121,66,64,41
106.58121,106.75943,62,64,41
106.75943,106.93765,57,64,41
106.93765,107.115875,55,64,41
107.115875,107.2941,62,64,41
107.2941,107.47233,67,64,41
107.47233,107.65055,62,64,41
107.65055,107.82877,59,64,41
107.82877,108.006996,55,64,41
108.006996,108.18522,59,64,41
108.18522,108.36344,62,64,41
108.36344,108.541664,67,64,41
108.541664,108.71989,62,64,41
108.71989,108.89811,59,64,41
108.89811,109.07633,55,64,41
109.07633,109.254555,57,64,41
109.254555,109.432785,62,64,41
109.432785,109.61101,66,64,41
109.61101,109.78923,62,64,41
109.78923,109.96745,57,64,41
109.96745,110.145676,54,64,41
110.145676,110.3239,57,64,41
110.3239,110.50212,62,64,41
110.50212,110.68034,66,64,41
110.68034,110.85857,62,64,41
110.85857,111.03679,57,64,41
111.03679,111.21501,54,64,41
111.21501,111.39324,55,64,41
111.39324,111.571465,57,64,41
111.571465,111.74969,61,64,41
111.74969,111.92791,64,64,41
111.92791,112.10613,61,64,41
112.10613,112.284355,57,64,41
112.284355,112.46258,55,64,41
112.46258,112.6408,57,64,41
112.6408,112.81902,61,64,41
112.81902,112.997246,64,64,41
112.997246,113.17547,61,64,41
113.17547,113.3537,57,64,41
113.3537,113.53192,54,64,41
113.53192,113.710144,57,64,41
113.710144,113.88837,62,64,41
113.88837,114.423035,66,64,41
114.423035,114.9577,67,64,41
114.9577,115.49238,69,64,41
115.49238,115.6706,67,64,41
115.6706,115.84882,62,64,41
115.84882,116.02705,67,64,41
116.02705,116.20527,62,64,41
116.20527,116.38349,59,64,41
116.38349,116.561714,55,64,41
116.561714,116.73994,59,64,41
116.73994,116.91816,62,64,41
116.91816,117.09638,67,64,41
117.09638,117.274605,62,64,41
117.274605,117.452835,59,64,41
117.452835,117.63106,55,64,41
117.63106,117.80928,57,64,41
117.80928,117.9875,62,64,41
117.9875,118.165726,66,64,41
118.165726,118.34395,62,64,41
118.34395,118.52217,57,64,41
118.52217,118.70039,54,64,41
118.70039,118.87862,57,64,41
118.87862,119.05684,62,64,41
119.05684,119.23506,66,64,41
119.23506,119.41329,62,64,41
119.41329,119.591515,57,64,41
119.591515,119.76974,54,64,41
119.76974,119.94796,55,64,41
119.94796,120.12618,57,64,41
120.12618,120.304405,61,64,41
120.304405,120.48263,64,64,41
120.48263,120.66085,61,64,41
120.66085,120.83907,57,64,41
120.83907,121.017296,55,64,41
121.017296,121.19552,57,64,41
121.19552,121.37375,61,64,41
121.37375,121.55197,64,64,41
121.55197,121.730194,61,64,41
121.730194,121.90842,57,64,41
121.90842,122.08664,54,64,41
122.08664,122.26486,57,64,41
122.26486,122.443085,62,64,41
122.443085,122.62131,66,64,41
122.62131,122.79953,62,64,41
122.79953,122.97775,57,64,41
122.97775,123.51243,54,64,41
124.581764,125.11643,57,64,41
125.11643,125.784775,62,64,41
125.91844,126.185776,62,64,41
126.185776,126.45311,66,64,41
126.72044,126.98778,66,64,41
127.25511,128.32445,62,64,41
128.32445,128.85913,57,64,41
129.3938,130.1958,57,64,41
130.1958,130.46313,57,64,41
130.46313,130.86414,64,64,41
130.86414,130.9978,62,64,41
130.9978,131.3988,61,64,41
131.3988,131.53247,59,64,41
131.53247,132.60182,57,64,41
133.13649,133.67116,57,64,41
133.67116,134.3395,62,64,41
134.47316,134.7405,62,64,41
134.7405,135.00783,66,64,41
135.27516,135.5425,66,64,41
135.80983,136.87918,62,64,41
136.87918,137.41385,57,64,41
137.41385,137.94852,62,64,41
137.94852,138.48318,61,64,41
138.48318,138.88419,57,64,41
138.88419,139.01785,61,64,41
139.01785,139.55252,62,64,41
139.55252,140.08719,56,64,41
140.08719,140.35452,57,64,41
140.62187,141.15654,64,64,41
141.15654,141.69121,67,64,41
141.69121,142.22588,64,64,41
142.22588,142.89421,62,64,41
143.02788,143.29521,62,64,41
143.29521,143.56255,66,64,41
143.82988,144.09721,66,64,41
144.36455,145.4339,62,64,41
145.4339,145.96857,57,64,41
146.50323,147.30524,57,64,41
147.30524,147.57257,57,64,41
147.57257,147.97357,64,64,41
147.97357,148.10724,62,64,41
148.10724,148.50826,61,64,41
148.50826,148.64192,59,64,41
148.64192,149.71126,57,64,41
150.24593,150.7806,57,64,41
150.7806,151.44893,62,64,41
151.5826,151.84993,62,64,41
151.84993,152.11726,66,64,41
152.3846,152.65195,66,64,41
152.91928,153.98862,62,64,41
153.98862,154.52328,57,64,41
154.52328,155.05795,62,64,41
155.05795,155.59262,61,64,41
155.59262,155.99362,57,64,41
155.99362,156.12729,61,64,41
156.12729,156.66197,62,64,41
156.66197,157.19664,56,64,41
157.19664,157.46397,57,64,41
157.73131,158.26598,61,64,41
158.26598,158.80064,64,64,41
158.80064,159.06798,66,64,41
159.06798,159.33531,62,64,41
159.33531,160.00365,61,64,41
160.13731,160.40465,61,64,41
160.40465,160.672,62,64,41
160.672,160.93933,61,64,41
160.93933,161.20667,59,64,41
161.20667,161.474,61,64,41
161.474,162.54333,62,64,41
162.54333,163.078,57,64,41
163.61267,164.281,61,64,41
164.41467,164.68202,61,64,41
164.68202,164.94936,61,64,41
164.94936,165.21669,67,64,41
165.21669,165.48402,64,64,41
165.48402,165.75136,61,64,41
165.75136,166.8207,62,64,41
167.89003,168.55838,59,64,41
168.69205,168.95938,59,64,41
168.95938,169.49405,59,64,41
169.49405,170.02872,62,64,41
170.02872,171.09805,62,64,41
171.09805,171.63272,57,64,41
172.16739,172.83574,57,64,41
172.9694,173.23674,57,64,41
173.23674,173.77141,64,64,41
173.77141,174.30608,61,64,41
174.30608,175.37541,62,64,41
176.44475,177.1131,59,64,41
177.24677,177.5141,59,64,41
177.5141,178.04877,59,64,41
178.04877,178.58344,62,64,41
178.58344,179.65277,62,64,41
179.65277,180.18744,57,64,41
180.72212,181.39046,57,64,41
181.52412,181.79146,57,64,41
181.79146,182.32613,64,64,41
182.32613,182.8608,61,64,41
182.8608,184.4648,62,64,41
186.06882,186.19357,62,64,41
186.31833,186.44308,62,64,41
186.81735,186.94211,62,64,41
187.06686,187.19162,62,64,41
187.31638,187.44113,62,64,41
187.8154,187.94016,62,64,41
188.31442,188.43918,62,64,41
188.56393,188.68869,62,64,41
188.81345,188.9382,62,64,41
189.31248,189.43724,62,64,41
189.562,189.68675,62,64,41
189.81151,189.93626,62,64,41
190.31053,190.43529,61,64,41
190.56004,190.6848,61,64,41
190.80956,190.93431,61,64,41
191.05907,191.8076,64,64,41
191.8076,192.05711,68,64,41
192.05711,192.18187,69,64,41
192.30663,192.43138,64,64,41
192.30663,192.43138,61,64,41
192.80565,192.9304,59,64,41
192.80565,192.9304,62,64,41
193.30467,193.42943,57,64,41
193.8037,193.92845,55,64,41
194.0532,194.17798,54,64,41
194.0532,194.17798,57,64,41
194.30273,194.42749,62,64,41
194.80176,194.92651,62,64,41
195.05127,195.17603,62,64,41
195.30078,195.42554,62,64,41
195.7998,195.92456,62,64,41
196.29883,196.42358,62,64,41
196.54834,196.6731,62,64,41
196.79785,196.9226,62,64,41
197.29688,197.42163,62,64,41
197.54639,197.67114,62,64,41
197.7959,197.92065,62,64,41
198.29492,198.41968,57,64,41
198.54443,198.66919,57,64,41
198.79395,198.9187,57,64,41
199.29298,199.41774,56,64,41
199.5425,199.66725,56,64,41
199.792,199.91676,59,64,41
200.29103,200.41579,57,64,41
200.54054,200.6653,57,64,41
200.79005,200.91481,57,64,41
201.03957,201.53859,57,64,41
202.03761,202.16237,62,64,41
202.28712,202.41188,62,64,41
202.78615,202.9109,62,64,41
203.03566,203.16042,62,64,41
203.28517,203.40993,62,64,41
203.7842,203.90897,62,64,41
204.28323,204.40799,62,64,41
204.53275,204.6575,62,64,41
204.78226,204.90701,62,64,41
205.28128,205.40604,62,64,41
205.53079,205.65555,62,64,41
205.7803,205.90506,62,64,41
206.27933,206.40408,61,64,41
206.52884,206.6536,61,64,41
206.77835,206.9031,61,64,41
207.02786,207.7764,64,64,41
207.7764,208.02591,68,64,41
208.02591,208.15067,69,64,41
208.27542,208.40018,64,64,41
208.27542,208.40018,61,64,41
208.77446,208.89922,59,64,41
208.77446,208.89922,62,64,41
209.27348,209.39824,57,64,41
209.7725,209.89726,55,64,41
210.02202,210.14677,54,64,41
210.02202,210.14677,57,64,41
210.27153,210.39629,62,64,41
210.77055,210.89531,62,64,41
211.02007,211.14482,62,64,41
211.26958,211.39433,62,64,41
211.7686,211.89336,62,64,41
212.26762,212.39238,62,64,41
212.51714,212.64189,62,64,41
212.76665,212.8914,62,64,41
213.26567,213.39043,62,64,41
213.51518,213.63995,62,64,41
213.76471,213.88947,62,64,41
214.26373,214.38849,57,64,41
214.51324,214.638,57,64,41
214.76276,214.88751,57,64,41
215.26178,215.38654,56,64,41
215.51129,215.63605,56,64,41
215.7608,215.88556,59,64,41
216.25983,216.38458,57,64,41
216.50934,216.6341,57,64,41
216.75885,216.8836,57,64,41
217.00836,217.50739,57,64,41
218.00641,218.13116,64,64,41
218.25592,218.38068,64,64,41
218.75496,218.87971,64,64,41
219.00447,219.12923,64,64,41
219.25398,219.37874,64,64,41
219.753,219.87776,64,64,41
220.25203,220.37679,62,64,41
220.50154,220.6263,62,64,41
220.75105,220.87581,62,64,41
221.25008,221.37483,62,64,41
221.7491,221.87386,62,64,41
221.99861,222.12337,64,64,41
222.24812,222.37288,64,64,41
222.74715,222.8719,64,64,41
222.99666,223.12141,64,64,41
223.24617,223.37094,64,64,41
223.74521,223.86996,64,64,41
224.24423,224.36899,62,64,41
224.49374,224.6185,62,64,41
224.74326,224.86801,62,64,41
225.24228,225.36703,62,64,41
225.7413,225.86606,62,64,41
225.99081,226.11557,62,64,41
226.24033,226.36508,62,64,41
226.73935,226.8641,62,64,41
226.98886,227.11362,62,64,41
227.23837,227.36313,62,64,41
227.7374,227.86215,59,64,41
227.98691,228.23643,62,64,41
228.23643,228.48595,65,64,41
228.48595,228.73546,66,64,41
228.73546,228.98497,65,64,41
228.98497,229.23448,66,64,41
229.23448,229.484,66,64,41
229.484,229.7335,62,64,41
229.7335,229.98302,54,64,41
230.23253,230.35728,61,64,41
230.48204,230.6068,61,64,41
230.73155,230.85631,61,64,41
231.23058,231.35533,61,64,41
231.7296,231.85435,64,64,41
232.22862,232.35338,62,64,41
232.47813,232.60289,62,64,41
232.72765,232.8524,62,64,41
233.22668,233.35144,62,64,41
233.72571,233.85046,62,64,41
233.97522,234.09998,62,64,41
234.22473,234.34949,62,64,41
234.72375,234.84851,62,64,41
234.97327,235.09802,62,64,41
235.22278,235.34753,62,64,41
235.7218,235.84656,59,64,41
235.97131,236.22083,62,64,41
236.22083,236.47034,65,64,41
236.47034,236.71985,66,64,41
236.71985,236.96936,65,64,41
236.96936,237.21887,66,64,41
237.21887,237.46838,66,64,41
237.46838,237.7179,62,64,41
237.7179,237.96742,54,64,41
238.21693,238.34169,61,64,41
238.46645,238.5912,61,64,41
238.71596,238.84071,61,64,41
239.21498,239.33974,61,64,41
239.714,239.83876,64,64,41
240.21303,240.33778,62,64,41
240.46254,240.5873,62,64,41
240.71205,240.8368,62,64,41
240.96156,241.46059,62,64,41
242.45863,242.95767,69,110,41
242.95767,243.4567,69,110,41
242.95767,243.4567,62,110,41
243.95572,244.12206,69,110,41
243.95572,244.12206,62,110,41
244.12206,244.28839,69,110,41
244.12206,244.28839,62,110,41
244.28839,244.45474,69,110,41
244.28839,244.45474,62,110,41
244.45474,244.62108,69,110,41
244.45474,244.62108,62,110,41
244.62108,244.78743,69,110,41
244.62108,244.78743,62,110,41
244.78743,244.95377,69,110,41
244.78743,244.95377,62,110,41
244.95377,245.45279,62,110,41
244.95377,245.45279,69,110,41
245.95181,246.11816,62,110,41
245.95181,246.11816,57,110,41
246.11816,246.2845,62,110,41
246.11816,246.2845,57,110,41
246.2845,246.45084,62,110,41
246.2845,246.45084,57,110,41
246.45084,246.61719,62,110,41
246.45084,246.61719,57,110,41
246.61719,246.78352,62,110,41
246.61719,246.78352,57,110,41
246.78352,246.94986,62,110,41
246.78352,246.94986,57,110,41
246.94986,247.44888,61,110,41
246.94986,247.44888,64,110,41
247.44888,247.94792,62,110,41
247.44888,247.94792,65,110,41
247.94792,248.44695,67,110,41
247.94792,248.44695,70,110,41
248.44695,248.94597,71,110,41
248.44695,248.94597,68,110,41
248.94597,249.1123,69,110,41
249.1123,249.27864,64,110,41
249.1123,249.27864,73,110,41
249.27864,249.44499,64,110,41
249.27864,249.44499,73,110,41
249.44499,249.61133,64,110,41
249.44499,249.61133,73,110,41
249.61133,249.77768,64,110,41
249.61133,249.77768,73,110,41
249.77768,249.94402,64,110,41
249.77768,249.94402,73,110,41
249.94402,250.44304,64,110,41
249.94402,250.44304,73,110,41
250.44304,250.94206,72,54,41
250.94206,251.44109,69,54,41
250.94206,251.44109,65,54,41
251.94011,252.10646,69,54,41
252.10646,252.2728,69,54,41
252.2728,252.43913,69,54,41
252.43913,252.60548,69,54,41
252.60548,252.77182,69,54,41
252.77182,252.93817,69,54,41
252.93817,253.4372,65,54,41
253.93622,254.10255,60,54,41
254.10255,254.2689,60,54,41
254.2689,254.43524,60,54,41
254.43524,254.60158,60,54,41
254.60158,254.76793,60,54,41
254.76793,254.93427,60,54,41
254.93427,255.18378,60,54,41
255.43329,255.59962,59,54,41
255.43329,255.59962,62,54,41
255.59962,255.76598,59,54,41
255.59962,255.76598,62,54,41
255.76598,255.93231,59,54,41
255.76598,255.93231,62,54,41
255.93231,256.18182,64,54,41
255.93231,256.18182,58,54,41
256.43134,256.5977,67,54,41
256.43134,256.5977,58,54,41
256.5977,256.76404,67,54,41
256.5977,256.76404,58,54,41
256.76404,256.93036,67,54,41
256.76404,256.93036,58,54,41
256.93036,257.17987,57,54,41
256.93036,257.17987,65,54,41
257.42938,257.59573,58,54,41
257.59573,257.7621,58,54,41
257.7621,257.9284,58,54,41
257.9284,258.42743,57,54,41
258.42743,258.92645,69,110,41
258.92645,259.42548,69,110,41
258.92645,259.42548,62,110,41
259.92453,260.09085,69,110,41
259.92453,260.09085,62,110,41
260.09085,260.2572,69,110,41
260.09085,260.2572,62,110,41
260.2572,260.42355,69,110,41
260.2572,260.42355,62,110,41
260.42355,260.58987,69,110,41
260.42355,260.58987,62,110,41
260.58987,260.75623,69,110,41
260.58987,260.75623,62,110,41
260.75623,260.92258,69,110,41
260.75623,260.92258,62,110,41
260.92258,261.4216,62,110,41
260.92258,261.4216,69,110,41
261.92062,262.08694,62,110,41
261.92062,262.08694,57,110,41
262.08694,262.2533,62,110,41
262.08694,262.2533,57,110,41
262.2533,262.41965,62,110,41
262.2533,262.41965,57,110,41
262.41965,262.58597,62,110,41
262.41965,262.58597,57,110,41
262.58597,262.75232,62,110,41
262.58597,262.75232,57,110,41
262.75232,262.91867,62,110,41
262.75232,262.91867,57,110,41
262.91867,263.4177,61,110,41
262.91867,263.4177,64,110,41
263.4177,263.91672,62,110,41
263.4177,263.91672,65,110,41
263.91672,264.41574,67,110,41
263.91672,264.41574,70,110,41
264.41574,264.91476,71,110,41
264.41574,264.91476,68,110,41
264.91476,265.08112,69,110,41
265.08112,265.24744,64,110,41
265.08112,265.24744,73,110,41
265.24744,265.4138,64,110,41
265.24744,265.4138,73,110,41
265.4138,265.58014,64,110,41
265.4138,265.58014,73,110,41
265.58014,265.74646,64,110,41
265.58014,265.74646,73,110,41
265.74646,265.9128,64,110,41
265.74646,265.9128,73,110,41
265.9128,266.41183,64,110,41
265.9128,266.41183,73,110,41
266.41183,266.91086,72,54,41
266.91086,267.40988,69,54,41
266.91086,267.40988,65,54,41
267.9089,268.07526,69,54,41
268.07526,268.2416,69,54,41
268.2416,268.40793,69,54,41
268.40793,268.57428,69,54,41
268.57428,268.74063,69,54,41
268.74063,268.90695,69,54,41
268.90695,269.40598,65,54,41
269.90503,270.07135,60,54,41
270.07135,270.2377,60,54,41
270.2377,270.40405,60,54,41
270.40405,270.57037,60,54,41
270.57037,270.73672,60,54,41
270.73672,270.90308,60,54,41
270.90308,271.1526,60,54,41
271.4021,271.56842,59,54,41
271.4021,271.56842,62,54,41
271.56842,271.73477,59,54,41
271.56842,271.73477,62,54,41
271.73477,271.90112,59,54,41
271.73477,271.90112,62,54,41
271.90112,272.15063,64,54,41
271.90112,272.15063,58,54,41
272.40015,272.56647,67,54,41
272.40015,272.56647,58,54,41
272.56647,272.73282,67,54,41
272.56647,272.73282,58,54,41
272.73282,272.89917,67,54,41
272.73282,272.89917,58,54,41
272.89917,273.14868,57,54,41
272.89917,273.14868,65,54,41
273.3982,273.56454,58,54,41
273.56454,273.73087,58,54,41
273.73087,273.89722,58,54,41
273.89722,274.39624,57,54,41
274.89526,275.14478,64,54,41
275.14478,275.3943,60,54,41
275.3943,275.6438,58,54,41
275.6438,275.8933,60,54,41
275.8933,276.14282,64,54,41
276.14282,276.39233,60,54,41
276.39233,276.64185,58,54,41
276.64185,276.89136,60,54,41
276.89136,277.14087,65,54,41
277.14087,277.39038,60,54,41
277.39038,277.6399,57,54,41
277.6399,277.8894,60,54,41
277.8894,278.13892,65,54,41
278.13892,278.38843,60,54,41
278.38843,278.63794,57,54,41
278.63794,278.88745,60,54,41
278.88745,279.13696,64,54,41
279.13696,279.3865,60,54,41
279.3865,279.63602,58,54,41
279.63602,279.88553,60,54,41
279.88553,280.13504,67,54,41
280.13504,280.38455,60,54,41
280.38455,280.63406,58,54,41
280.63406,280.88358,60,54,41
280.88358,281.1331,65,54,41
281.1331,281.3826,60,54,41
281.3826,281.6321,57,54,41
281.6321,281.88162,60,54,41
281.88162,282.13113,65,54,41
282.13113,282.38065,57,54,41
282.38065,282.63016,60,54,41
282.63016,282.87967,63,54,41
282.87967,283.3787,62,54,41
283.3787,283.44107,70,54,41
283.44107,283.50345,72,56,41
283.50345,283.56583,70,56,41
283.56583,283.6282,72,58,41
283.6282,283.69058,70,58,41
283.69058,283.75296,72,60,41
283.75296,283.81534,69,62,41
283.81534,283.87772,70,62,41
283.87772,284.62625,75,64,41
284.62625,284.87576,66,62,41
284.87576,285.8738,67,61,41
285.8738,286.37283,74,57,41
286.37283,286.62234,72,56,41
286.62234,286.87186,70,55,41
286.87186,287.8699,69,54,41
287.8699,288.7432,67,54,41
288.7432,288.86795,65,54,41
288.86795,289.86603,65,54,41
289.86603,289.9284,65,54,41
289.9284,289.99078,67,54,41
289.99078,290.05316,65,55,41
289.99078,290.05316,77,55,41
290.05316,290.11554,67,55,41
290.11554,290.17792,65,56,41
290.17792,290.2403,67,57,41
290.2403,290.30267,65,57,41
290.30267,290.36505,67,58,41
290.36505,290.42743,65,59,41
290.42743,290.4898,67,59,41
290.4898,290.5522,65,60,41
290.5522,290.61456,67,60,41
290.61456,290.73932,64,61,41
290.73932,290.86407,65,62,41
290.86407,291.86212,74,64,41
291.86212,292.86017,72,74,41
292.86017,293.85822,70,64,41
293.85822,294.35724,62,64,41
294.35724,294.60675,60,59,41
294.60675,294.85626,58,58,41
294.85626,295.8543,57,55,41
295.8543,296.7276,55,54,41
296.7276,296.85236,53,54,41
296.85236,298.34943,53,54,41
299.91483,300.18216,58,54,41
300.18216,300.4495,57,54,41
300.4495,300.71683,58,54,41
300.71683,300.98416,53,54,41
300.98416,301.2515,58,54,41
301.2515,301.51883,57,54,41
301.51883,301.7862,58,54,41
301.7862,302.05353,53,54,41
302.05353,302.32086,58,54,41
302.32086,302.5882,57,54,41
302.5882,302.85553,58,54,41
302.85553,303.12286,53,54,41
303.12286,303.3902,58,54,41
303.3902,303.65753,57,54,41
303.65753,303.92487,58,54,41
303.92487,304.1922,53,54,41
304.1922,304.45953,57,54,41
304.45953,304.72687,56,54,41
304.72687,304.9942,57,54,41
304.9942,305.26154,53,54,41
305.26154,305.52887,58,54,41
305.52887,305.7962,53,54,41
305.7962,306.06354,60,54,41
306.06354,306.33087,61,54,41
306.33087,306.5982,60,54,41
306.5982,306.86554,53,54,41
306.86554,307.13287,60,54,41
307.13287,307.4002,53,54,41
307.4002,307.66754,58,54,41
307.66754,307.93488,53,54,41
307.93488,308.2022,57,54,41
308.2022,308.46954,53,54,41
308.46954,308.73688,58,54,41
308.73688,309.0042,57,54,41
309.0042,309.27155,58,54,41
309.27155,309.53888,53,54,41
309.53888,309.80624,58,54,41
309.80624,310.07358,57,54,41
310.07358,310.3409,58,54,41
310.3409,310.60825,53,54,41
310.60825,310.87558,58,54,41
310.87558,311.1429,57,54,41
311.1429,311.41025,58,54,41
311.41025,311.67758,53,54,41
311.67758,311.94492,56,64,41
311.94492,312.21225,55,54,41
312.21225,312.47958,56,54,41
312.47958,312.74692,53,54,41
312.74692,313.01425,57,54,41
313.01425,313.2816,60,54,41
313.2816,313.54892,59,54,41
313.54892,313.81625,60,54,41
313.81625,314.0836,55,54,41
314.0836,314.35092,60,54,41
314.35092,314.61826,57,54,41
314.61826,314.8856,58,54,41
314.8856,315.15292,57,54,41
315.15292,315.42026,53,54,41
315.42026,315.6876,58,54,41
315.6876,315.95493,55,54,41
315.95493,317.02426,60,54,41
317.02426,317.2916,58,54,41
317.2916,317.55893,57,54,41
317.55893,317.8263,58,54,41
317.8263,318.09363,53,54,41
318.09363,318.36096,58,54,41
318.36096,318.6283,57,54,41
318.6283,318.89563,58,54,41
318.89563,319.16296,53,54,41
319.16296,319.4303,58,54,41
319.4303,319.69763,57,54,41
319.69763,319.96497,58,54,41
319.96497,320.2323,53,54,41
320.2323,320.49963,58,54,41
320.49963,320.76697,57,54,41
320.76697,321.0343,58,54,41
321.0343,321.30164,53,54,41
321.30164,321.56897,57,54,41
321.56897,321.8363,56,54,41
321.8363,322.10364,57,54,41
322.10364,322.37097,53,54,41
322.37097,322.6383,58,54,41
322.6383,322.90564,53,54,41
322.90564,323.17297,60,54,41
323.17297,323.4403,61,54,41
323.4403,323.70764,60,54,41
323.70764,323.97498,53,54,41
323.97498,324.2423,60,54,41
324.2423,324.50964,53,54,41
324.50964,324.77698,58,54,41
324.77698,325.0443,53,54,41
325.0443,325.31165,57,54,41
325.31165,325.57898,53,54,41
325.57898,325.84634,58,54,41
325.84634,326.11368,57,54,41
326.11368,326.381,58,54,41
326.381,326.64835,53,54,41
326.64835,326.91568,58,54,41
326.91568,327.183,57,54,41
327.183,327.45035,58,54,41
327.45035,327.71768,53,54,41
327.71768,327.98502,58,54,41
327.98502,328.25235,57,54,41
328.25235,328.51968,58,54,41
328.51968,328.78702,53,54,41
328.78702,329.05435,56,64,41
329.05435,329.3217,55,54,41
329.3217,329.58902,56,54,41
329.58902,329.85635,53,54,41
329.85635,330.1237,57,54,41
330.1237,330.39102,60,54,41
330.39102,330.65836,59,54,41
330.65836,330.9257,60,54,41
330.9257,331.19302,55,54,41
331.19302,331.46036,60,54,41
331.46036,331.7277,57,54,41
331.7277,331.99503,58,54,41
331.99503,332.26236,57,54,41
332.5297,333.06436,53,54,41
333.06436,333.59903,57,54,41
333.59903,334.13373,58,54,41
334.13373,334.40106,60,54,41
334.6684,334.93573,60,54,41
335.20306,335.4704,60,54,41
335.73773,336.00507,60,54,41
336.2724,336.53973,58,54,41
336.80707,337.0744,58,54,41
337.34174,337.60907,58,54,41
337.8764,338.14374,58,54,41
338.41107,338.6784,63,54,41
338.94574,339.21307,63,55,41
339.4804,339.74774,63,57,41
340.01508,340.2824,63,58,41
340.54974,340.81708,61,60,41
341.0844,341.35175,61,61,41
341.61908,341.88644,61,62,41
342.15378,342.4211,61,64,41
342.68845,342.95578,66,54,41
342.95578,343.2231,61,54,41
343.2231,343.49045,66,54,41
343.49045,343.75778,61,54,41
343.75778,344.02512,66,54,41
344.02512,344.29245,61,54,41
344.29245,344.55978,66,54,41
344.55978,344.82712,61,54,41
344.82712,345.09445,65,54,41
345.09445,345.3618,61,54,41
345.3618,345.62912,65,54,41
345.62912,345.89645,61,54,41
345.89645,346.1638,65,54,41
346.1638,346.43112,61,54,41
346.43112,346.69846,65,54,41
346.69846,346.9658,61,54,41
346.9658,347.23312,63,54,41
347.23312,347.50046,56,54,41
347.50046,347.7678,63,54,41
347.7678,348.03513,56,54,41
348.03513,348.30246,60,54,41
348.30246,348.5698,56,54,41
348.5698,348.83713,60,54,41
348.83713,349.10446,56,54,41
349.10446,349.3718,61,54,41
349.63913,349.9065,61,54,41
349.9065,350.17383,65,54,41
350.17383,350.44116,63,54,41
350.44116,350.7085,66,54,41
350.7085,350.97583,65,54,41
350.97583,351.24316,68,54,41
351.24316,351.5105,66,54,41
351.5105,351.77783,61,54,41
351.77783,352.04517,66,54,41
352.04517,352.3125,61,54,41
352.3125,352.57983,66,54,41
352.57983,352.84717,61,54,41
352.84717,353.1145,66,54,41
353.1145,353.38184,61,54,41
353.38184,353.64917,65,54,41
353.64917,353.9165,61,54,41
353.9165,354.18384,65,54,41
354.18384,354.45117,61,54,41
354.45117,354.7185,65,54,41
354.7185,354.98584,61,54,41
354.98584,355.25317,65,54,41
355.25317,355.5205,61,54,41
355.5205,355.78784,63,54,41
355.78784,356.05518,56,54,41
356.05518,356.3225,63,54,41
356.3225,356.58984,56,54,41
356.58984,356.85718,60,54,41
356.85718,357.1245,56,54,41
357.1245,357.39185,60,54,41
357.39185,357.65918,56,54,41
357.65918,357.92654,61,54,41
357.92654,358.19388,56,54,41
358.19388,358.4612,65,54,41
358.4612,358.72855,61,54,41
358.72855,358.99588,65,54,41
358.99588,359.2632,61,54,41
359.2632,359.53055,65,54,41
359.53055,359.79788,61,54,41
359.79788,360.06522,63,54,41
360.06522,360.33255,60,54,41
360.33255,360.59988,63,54,41
360.59988,360.86722,60,54,41
360.86722,361.13455,63,54,41
361.13455,361.4019,60,54,41
361.4019,361.66922,63,54,41
361.66922,361.93655,60,54,41
361.93655,362.2039,61,54,41
362.2039,362.47122,56,54,41
362.47122,362.73856,61,54,41
362.73856,363.0059,56,54,41
363.0059,363.27322,61,54,41
363.27322,363.54056,56,54,41
363.54056,363.8079,61,54,41
363.8079,364.07523,56,54,41
364.07523,364.34256,59,54,41
364.34256,364.6099,56,54,41
364.6099,364.87723,59,54,41
364.87723,365.14456,56,54,41
365.14456,365.4119,59,54,41
365.4119,365.67923,56,54,41
365.67923,365.9466,59,54,41
365.9466,366.21393,56,54,41
366.21393,366.48126,57,54,41
366.48126,366.7486,52,54,41
366.7486,367.01593,57,54,41
367.01593,367.28326,52,54,41
367.28326,367.5506,57,54,41
367.5506,367.81793,52,54,41
367.81793,368.08527,57,54,41
368.08527,368.3526,52,54,41
368.3526,368.61993,56,55,41
368.61993,368.88727,53,55,41
368.88727,369.1546,56,54,41
369.1546,369.42194,53,54,41
369.42194,369.68927,56,53,41
369.68927,369.9566,53,53,41
369.9566,370.22394,56,53,41
370.22394,370.49127,53,52,41
370.49127,370.7586,54,52,41
370.7586,371.02594,49,51,41
371.02594,371.29327,54,51,41
371.29327,371.5606,49,51,41
371.5606,371.82794,54,50,41
371.82794,372.09528,49,50,41
372.09528,372.3626,54,49,41
372.3626,372.62994,49,49,41
372.62994,372.89728,52,48,41
372.89728,373.1646,49,48,41
373.1646,373.43195,52,48,41
373.43195,373.69928,49,47,41
373.69928,373.9747,52,47,41
373.9747,374.2768,49,47,41
374.2768,374.61438,52,46,41
374.61438,374.99295,49,46,41
376.65637,377.03064,50,64,41
389.00726,389.38153,54,64,41
389.00726,389.38153,62,64,41
389.7558,390.13007,62,64,41
389.7558,390.13007,54,64,41
390.50433,390.8786,54,64,41
390.50433,390.8786,62,64,41
391.25287,391.62714,54,64,41
391.25287,391.62714,62,64,41
392.0014,392.37567,61,64,41
392.0014,392.37567,55,64,41
392.74994,393.1242,55,64,41
392.74994,393.1242,61,64,41
393.49847,393.87274,61,64,41
393.49847,393.87274,55,64,41
394.247,394.62128,61,64,41
394.247,394.62128,55,64,41
394.99554,395.3698,54,64,41
394.99554,395.3698,62,64,41
395.74408,396.11835,54,64,41
395.74408,396.11835,62,64,41
396.49265,396.8669,62,64,41
396.49265,396.8669,54,64,41
397.24118,397.61545,62,64,41
397.24118,397.61545,54,64,41
397.98972,398.36398,52,64,41
397.98972,398.36398,61,64,41
398.73825,399.11252,52,64,41
398.73825,399.11252,62,64,41
399.4868,399.86105,61,64,41
399.4868,399.86105,52,64,41
400.23532,400.6096,61,64,41
400.23532,400.6096,52,64,41
418.94876,419.32303,55,64,41
418.94876,419.32303,57,64,41
419.6973,420.07156,57,64,41
419.6973,420.07156,55,64,41
420.44583,420.82013,54,64,41
420.44583,420.82013,57,64,41
421.1944,421.56866,57,64,41
421.1944,421.56866,54,64,41
421.94293,422.3172,55,64,41
421.94293,422.3172,57,64,41
422.69147,423.06573,57,64,41
422.69147,423.06573,55,64,41
423.44,423.81427,54,64,41
423.44,423.81427,57,64,41
424.18854,424.5628,57,64,41
424.18854,424.5628,54,64,41
424.93707,425.31134,59,64,41
424.93707,425.31134,50,64,41
425.6856,426.05988,50,64,41
425.6856,426.05988,59,64,41
426.43414,426.8084,57,64,41
426.43414,426.8084,54,64,41
427.18268,427.55695,54,64,41
427.18268,427.55695,57,64,41
427.9312,428.30548,55,64,41
427.9312,428.30548,57,64,41
428.67978,429.05405,57,64,41
428.67978,429.05405,55,64,41
429.4283,429.80258,54,64,41
429.4283,429.80258,57,64,41
430.17685,430.55112,57,64,41
430.17685,430.55112,54,64,41
430.92538,431.29965,59,64,41
430.92538,431.29965,50,64,41
431.67392,432.0482,50,64,41
431.67392,432.0482,59,64,41
432.42245,432.79672,57,64,41
432.42245,432.79672,54,64,41
433.171,433.54526,54,64,41
433.171,433.54526,57,64,41
433.91953,434.2938,55,64,41
433.91953,434.2938,57,64,41
434.66806,435.04233,57,64,41
434.66806,435.04233,55,64,41
435.4166,435.79086,62,64,41
435.4166,435.79086,54,64,41
436.16513,436.5394,54,61,41
436.16513,436.5394,57,61,41
436.9137,437.28796,62,58,41
436.9137,437.28796,54,58,41
437.66223,438.0365,54,55,41
437.66223,438.0365,57,55,41
438.0365,438.80423,57,54,41
438.0365,438.80423,54,54,41
438.80423,439.6198,54,54,41
438.80423,439.6198,57,54,41
439.6198,440.04752,57,54,41
439.6198,440.04752,54,54,41
440.48975,440.94745,57,54,41
440.48975,440.94745,54,54,41
441.42178,445.94644,54,54,41
441.42178,445.94644,57,54,41
3.211675,3.746345,62,54,42
4.281015,4.54835,62,54,42
4.815685,5.08302,62,54,42
5.350355,5.885025,57,54,42
5.885025,6.15236,59,54,42
6.15236,6.419695,61,54,42
6.419695,7.489035,62,54,42
7.489035,8.558375,61,54,42
8.558375,8.959377,61,54,42
8.959377,9.093045,62,54,42
9.093045,9.494047,64,54,42
9.494047,9.627715,62,54,42
9.627715,9.89505,61,54,42
10.162385,10.697055,61,54,42
10.697055,11.231725,62,54,42
11.231725,11.766395,64,54,42
11.766395,12.301065,62,54,42
12.835735,13.10307,62,54,42
13.370405,13.63774,62,54,42
13.905075,14.439745,57,54,42
14.439745,14.840748,59,54,42
14.840748,14.974415,61,54,42
14.974415,15.509085,62,54,42
15.509085,15.77642,57,54,42
16.043755,16.578424,57,54,42
16.578424,16.979427,56,54,42
16.979427,17.113094,57,54,42
17.113094,17.647764,59,54,42
17.647764,18.182434,62,54,42
18.182434,18.44977,61,54,42
18.717106,19.251776,64,54,42
19.251776,19.786446,62,54,42
19.786446,20.321115,61,54,42
20.321115,20.855785,62,54,42
21.390455,21.65779,62,54,42
21.925125,22.19246,62,54,42
22.459795,22.994465,57,54,42
22.994465,23.2618,59,54,42
23.2618,23.529135,61,54,42
23.529135,24.598475,62,54,42
24.598475,25.667814,61,54,42
25.667814,26.068817,61,54,42
26.068817,26.202484,62,54,42
26.202484,26.603487,64,54,42
26.603487,26.737156,62,54,42
26.737156,27.00449,61,54,42
27.271826,27.806496,61,54,42
27.806496,28.341166,62,54,42
28.341166,28.875835,64,54,42
28.875835,29.410505,62,54,42
29.945175,30.21251,62,54,42
30.479845,30.74718,62,54,42
31.014515,31.549185,57,54,42
31.549185,31.950188,59,54,42
31.950188,32.083855,61,54,42
32.083855,32.618526,62,54,42
32.618526,32.88586,57,54,42
33.153194,33.687866,57,54,42
33.687866,34.088867,56,54,42
34.088867,34.222534,57,54,42
34.222534,34.757206,59,54,42
34.757206,35.291874,62,54,42
35.291874,35.55921,61,54,42
35.826546,36.361214,57,54,42
36.361214,36.895885,61,54,42
36.895885,37.430553,62,54,42
37.430553,37.965225,64,64,42
38.499893,38.76723,64,64,42
39.034565,39.3019,64,64,42
39.569237,41.707916,62,64,42
41.707916,42.777256,64,64,42
42.777256,43.311924,64,64,42
43.311924,43.57926,61,64,42
43.57926,43.846596,64,64,42
43.846596,44.381264,62,64,42
44.381264,44.915936,66,74,42
44.915936,45.450603,64,64,42
45.450603,45.985275,62,64,42
45.985275,46.519943,62,64,42
47.054615,47.32195,62,64,42
47.589287,47.85662,62,64,42
48.123955,50.262634,62,64,42
50.262634,51.06464,61,64,42
51.06464,51.331974,61,64,42
51.331974,51.866646,61,64,42
51.866646,52.401314,64,64,42
52.401314,52.935986,62,64,42
52.935986,53.470654,66,74,42
53.470654,54.005325,64,64,42
54.005325,54.539993,62,64,42
54.539993,55.074665,62,64,42
55.609337,55.87667,62,64,42
56.144005,56.41134,62,64,42
56.678677,58.817356,62,64,42
58.817356,59.61936,61,64,42
59.61936,59.886696,61,64,42
59.886696,60.421364,61,64,42
60.421364,60.956036,64,64,42
60.956036,62.560043,62,64,42
65.2334,65.41162,57,64,42
65.41162,65.58984,62,64,42
65.58984,65.76807,66,64,42
65.76807,66.302734,62,64,42
67.37208,67.5503,57,64,42
67.5503,67.72852,62,64,42
67.72852,67.906746,66,64,42
67.906746,68.441414,62,64,42
69.51076,69.68898,57,64,42
69.68898,69.8672,64,64,42
69.8672,70.045425,67,64,42
70.045425,70.58009,64,64,42
71.64944,71.82766,57,64,42
71.82766,72.00588,64,64,42
72.00588,72.184105,67,64,42
72.184105,72.71877,64,64,42
73.78812,73.96634,57,64,42
73.96634,74.14456,62,64,42
74.14456,74.322784,66,64,42
74.322784,74.85745,62,64,42
75.926796,76.10502,57,64,42
76.10502,76.28324,62,64,42
76.28324,76.461464,66,64,42
76.461464,76.99613,62,64,42
78.065475,78.2437,59,64,42
78.2437,78.42192,62,64,42
78.42192,78.60014,64,64,42
78.60014,79.13481,62,64,42
79.13481,79.31304,61,64,42
79.31304,79.491264,57,64,42
79.491264,79.66949,61,64,42
79.66949,80.204155,64,64,42
80.204155,80.73882,62,61,42
80.73882,81.2735,57,58,42
82.342834,82.52106,57,64,42
82.52106,82.69928,62,64,42
82.69928,82.8775,66,64,42
82.8775,83.41218,62,64,42
84.481514,84.65974,57,64,42
84.65974,84.83796,62,64,42
84.83796,85.01618,66,64,42
85.01618,85.55086,62,64,42
86.62019,86.798416,57,64,42
86.798416,86.97664,64,64,42
86.97664,87.15486,67,64,42
87.15486,87.68954,64,64,42
88.75887,88.937096,57,64,42
88.937096,89.11532,64,64,42
89.11532,89.29355,67,64,42
89.29355,89.82822,64,64,42
90.89755,91.075775,57,64,42
91.075775,91.254005,62,64,42
91.254005,91.43223,66,64,42
91.43223,91.966896,62,64,42
93.03623,93.214455,57,64,42
93.214455,93.392685,62,64,42
93.392685,93.57091,66,64,42
93.57091,94.105576,62,64,42
95.17491,95.35314,59,64,42
95.35314,95.531364,62,64,42
95.531364,95.70959,64,64,42
95.70959,96.244255,62,64,42
96.244255,96.42248,61,64,42
96.42248,96.6007,57,64,42
96.6007,96.77892,61,64,42
96.77892,97.3136,57,64,42
97.3136,97.84827,61,61,42
97.84827,98.382935,62,58,42
98.382935,98.56116,67,64,42
98.56116,98.73938,64,64,42
98.73938,98.9176,67,64,42
98.9176,99.45228,57,64,42
99.45228,99.6305,64,64,42
99.6305,99.80872,67,64,42
99.80872,99.986946,64,64,42
99.986946,100.521614,57,64,42
100.521614,100.69984,66,64,42
100.69984,100.87806,62,64,42
100.87806,101.05628,66,64,42
101.05628,101.59096,57,64,42
101.59096,101.76918,62,64,42
101.76918,101.9474,66,64,42
101.9474,102.125626,62,64,42
102.125626,102.66029,57,64,42
102.66029,102.83852,67,64,42
102.83852,103.01674,64,64,42
103.01674,103.19496,67,64,42
103.19496,103.72964,57,64,42
103.72964,103.90786,64,64,42
103.90786,104.08608,67,64,42
104.08608,104.264305,64,64,42
104.264305,104.79897,57,64,42
104.79897,104.977196,66,64,42
104.977196,105.15542,62,64,42
105.15542,105.33365,66,64,42
105.33365,105.86832,57,64,42
105.86832,106.04654,62,64,42
106.04654,106.22476,66,64,42
106.22476,106.402985,62,64,42
106.402985,106.93765,57,64,42
106.93765,107.115875,59,64,42
107.115875,107.2941,62,64,42
107.2941,107.47233,59,64,42
107.47233,108.006996,62,64,42
108.006996,108.18522,62,64,42
108.18522,108.36344,59,64,42
108.36344,108.541664,62,64,42
108.541664,109.07633,67,64,42
109.07633,109.254555,66,64,42
109.254555,109.432785,62,64,42
109.432785,109.61101,57,64,42
109.61101,110.145676,62,64,42
110.145676,110.3239,62,64,42
110.3239,110.50212,57,64,42
110.50212,110.68034,62,64,42
110.68034,111.21501,66,64,42
111.21501,111.39324,67,64,42
111.39324,111.571465,64,64,42
111.571465,111.74969,67,64,42
111.74969,112.284355,57,64,42
112.284355,112.46258,61,64,42
112.46258,112.6408,64,64,42
112.6408,112.81902,67,64,42
112.81902,113.3537,57,64,42
113.3537,113.53192,66,64,42
113.53192,113.710144,62,64,42
113.710144,113.88837,66,64,42
113.88837,114.423035,62,64,42
114.423035,114.9577,61,64,42
114.9577,115.49238,60,64,42
115.49238,115.6706,59,64,42
115.6706,115.84882,62,64,42
115.84882,116.02705,59,64,42
116.02705,116.561714,67,64,42
116.561714,116.73994,62,64,42
116.73994,116.91816,59,64,42
116.91816,117.09638,62,64,42
117.09638,117.63106,67,64,42
117.63106,117.80928,66,64,42
117.80928,117.9875,62,64,42
117.9875,118.165726,57,64,42
118.165726,118.70039,62,64,42
118.70039,118.87862,62,64,42
118.87862,119.05684,57,64,42
119.05684,119.23506,62,64,42
119.23506,119.76974,66,64,42
119.76974,119.94796,67,64,42
119.94796,120.12618,64,64,42
120.12618,120.304405,67,64,42
120.304405,120.83907,57,64,42
120.83907,121.017296,64,64,42
121.017296,121.19552,67,64,42
121.19552,121.37375,64,64,42
121.37375,121.90842,57,64,42
121.90842,122.08664,66,64,42
122.08664,122.26486,62,64,42
122.26486,122.443085,57,64,42
122.443085,122.97775,62,64,42
124.581764,125.11643,57,64,42
125.11643,125.784775,54,64,42
125.91844,126.185776,54,64,42
126.185776,126.45311,62,64,42
126.72044,126.98778,62,64,42
127.25511,128.85913,54,64,42
129.3938,130.46313,55,64,42
130.46313,130.73047,55,64,42
130.46313,130.73047,57,64,42
130.9978,131.26514,57,64,42
130.9978,131.26514,55,64,42
131.53247,132.60182,57,64,42
131.53247,132.60182,55,64,42
133.13649,133.67116,57,64,42
133.67116,134.3395,54,64,42
134.47316,134.7405,54,64,42
134.7405,135.00783,62,64,42
135.27516,135.5425,62,64,42
135.80983,137.41385,54,64,42
137.41385,137.94852,54,64,42
137.94852,138.88419,52,64,42
138.88419,139.01785,57,64,42
139.01785,139.55252,56,64,42
139.55252,140.08719,62,64,42
140.08719,140.35452,61,64,42
140.62187,141.15654,61,64,42
141.15654,141.69121,64,64,42
141.69121,142.22588,55,64,42
142.22588,142.89421,54,64,42
143.02788,143.29521,54,64,42
143.29521,143.56255,62,64,42
143.82988,144.09721,62,64,42
144.36455,145.96857,54,64,42
146.50323,147.57257,55,64,42
147.57257,147.8399,55,64,42
147.57257,147.8399,57,64,42
148.10724,148.37457,57,64,42
148.10724,148.37457,55,64,42
148.64192,149.71126,57,64,42
148.64192,149.71126,55,64,42
150.24593,150.7806,57,64,42
150.7806,151.44893,54,64,42
151.5826,151.84993,54,64,42
151.84993,152.11726,62,64,42
152.3846,152.65195,62,64,42
152.91928,154.52328,54,64,42
154.52328,155.05795,54,64,42
155.05795,155.99362,52,64,42
155.99362,156.12729,57,64,42
156.12729,156.66197,56,64,42
156.66197,157.19664,62,64,42
157.19664,157.46397,61,64,42
157.73131,158.26598,57,64,42
158.26598,158.80064,61,64,42
158.80064,159.06798,62,64,42
159.06798,159.33531,54,64,42
159.33531,160.00365,55,64,42
160.13731,160.40465,55,64,42
160.40465,160.93933,55,64,42
160.93933,161.474,55,64,42
161.474,163.078,54,64,42
163.61267,164.281,55,64,42
164.41467,164.68202,55,64,42
164.68202,165.21669,55,64,42
165.21669,165.75136,57,64,42
165.75136,166.8207,54,64,42
167.89003,168.55838,55,64,42
168.69205,168.95938,55,64,42
168.95938,169.49405,55,64,42
169.49405,170.02872,55,64,42
170.02872,171.63272,54,64,42
172.16739,172.83574,55,64,42
172.9694,173.23674,55,64,42
173.23674,173.77141,55,64,42
173.77141,174.30608,57,64,42
174.30608,175.37541,54,64,42
176.44475,177.1131,50,64,42
177.24677,177.5141,50,64,42
177.5141,178.04877,50,64,42
178.04877,178.58344,50,64,42
178.58344,180.18744,54,64,42
180.72212,181.39046,55,64,42
181.52412,181.79146,55,64,42
181.79146,182.32613,55,64,42
182.32613,182.8608,55,64,42
182.8608,184.4648,54,64,42
185.53415,185.80148,45,64,42
186.06882,186.31833,50,64,42
186.56784,186.81735,50,64,42
187.06686,187.31638,54,64,42
187.56589,187.8154,54,64,42
188.06491,189.06296,50,64,42
189.06296,190.06102,45,64,42
190.06102,190.74718,45,64,42
190.80956,191.05907,45,64,42
191.05907,191.43333,52,64,42
191.43333,191.55809,50,64,42
191.55809,191.93236,49,64,42
191.93236,192.05711,47,64,42
192.05711,192.55614,45,64,42
192.55614,192.6809,57,64,42
193.05516,193.17992,57,64,42
193.55418,193.67894,57,64,42
194.0532,194.30273,50,64,42
194.55225,194.80176,50,64,42
195.05127,195.30078,54,64,42
195.5503,195.7998,54,64,42
196.04932,197.04736,50,64,42
197.04736,197.29688,45,64,42
197.54639,197.7959,62,64,42
198.04541,198.54443,61,64,42
198.54443,198.9187,57,64,42
198.9187,199.04347,61,64,42
199.04347,199.792,62,64,42
199.792,200.04152,56,64,42
200.04152,201.53859,57,64,42
201.53859,201.7881,45,64,42
202.03761,202.28712,50,64,42
202.53664,202.78615,50,64,42
203.03566,203.28517,54,64,42
203.53468,203.7842,54,64,42
204.03372,205.03177,50,64,42
205.03177,206.02982,45,64,42
206.02982,206.71597,45,64,42
206.77835,207.02786,45,64,42
207.02786,207.40213,52,64,42
207.40213,207.52689,50,64,42
207.52689,207.90115,49,64,42
207.90115,208.02591,47,64,42
208.02591,208.52493,45,64,42
208.52493,208.64969,57,64,42
209.02397,209.14873,57,64,42
209.523,209.64775,57,64,42
210.02202,210.27153,50,64,42
210.52104,210.77055,50,64,42
211.02007,211.26958,54,64,42
211.51909,211.7686,54,64,42
212.01811,213.01616,50,64,42
213.01616,213.26567,45,64,42
213.51518,213.76471,62,64,42
214.01422,214.51324,61,64,42
214.51324,214.88751,57,64,42
214.88751,215.01227,61,64,42
215.01227,215.7608,62,64,42
215.7608,216.01031,56,64,42
216.01031,217.50739,57,64,42
217.50739,217.7569,45,64,42
218.00641,218.25592,49,64,42
218.50545,218.75496,49,64,42
219.00447,219.25398,50,64,42
219.25398,219.5035,49,64,42
219.5035,219.753,47,64,42
219.753,220.00252,49,64,42
220.00252,221.00056,50,64,42
221.00056,221.49959,45,64,42
221.49959,221.99861,50,64,42
221.99861,222.24812,49,64,42
222.49763,222.74715,49,64,42
222.99666,223.24617,49,64,42
223.24617,223.4957,55,64,42
223.4957,223.74521,52,64,42
223.74521,223.99472,49,64,42
223.99472,224.99277,50,64,42
224.99277,225.49179,38,64,42
225.49179,225.99081,50,64,42
225.99081,226.48984,47,64,42
226.48984,226.98886,47,64,42
226.98886,227.48788,47,64,42
227.48788,227.98691,50,64,42
227.98691,228.98497,50,74,42
228.98497,229.484,45,64,42
229.484,229.98302,45,64,42
229.98302,230.6068,45,64,42
230.73155,230.98106,45,64,42
230.98106,231.48009,52,64,42
231.48009,231.97911,49,64,42
231.97911,232.97716,50,75,42
232.97716,233.4762,38,64,42
233.4762,233.97522,50,64,42
233.97522,234.47424,47,64,42
234.47424,234.97327,47,64,42
234.97327,235.47229,47,64,42
235.47229,235.97131,50,64,42
235.97131,236.96936,50,74,42
236.96936,237.46838,45,64,42
237.46838,237.96742,45,64,42
237.96742,238.5912,45,64,42
238.71596,238.96547,45,64,42
238.96547,239.4645,52,64,42
239.4645,239.96352,49,64,42
239.96352,241.46059,50,64,42
242.45863,242.95767,57,110,42
242.95767,243.04083,62,110,42
243.12401,243.29034,56,110,42
243.29034,243.4567,57,110,42
243.4567,243.53986,65,110,42
243.62303,243.78937,61,110,42
243.78937,243.95572,62,110,42
243.95572,244.03888,57,110,42
244.12206,244.28839,52,110,42
244.28839,244.45474,53,110,42
244.45474,244.53792,50,110,42
244.62108,244.78743,44,110,42
244.78743,244.95377,45,110,42
244.95377,245.03694,62,110,42
245.1201,245.28645,56,110,42
245.28645,245.45279,57,110,42
245.45279,245.53596,65,110,42
245.61913,245.78548,61,110,42
245.78548,245.95181,62,110,42
245.95181,246.03499,57,110,42
246.11816,246.2845,52,110,42
246.2845,246.45084,53,110,42
246.45084,246.53401,50,110,42
246.61719,246.78352,53,110,42
246.78352,246.94986,50,110,42
246.94986,247.03304,45,110,42
247.11621,247.19937,49,110,42
247.28255,247.36572,52,110,42
247.44888,247.53206,45,110,42
247.61523,247.69841,50,110,42
247.78157,247.86475,53,110,42
247.94792,248.03108,45,110,42
248.11426,248.19743,52,110,42
248.2806,248.36377,55,110,42
248.44695,248.5301,45,110,42
248.61328,248.69646,53,110,42
248.77962,248.8628,56,110,42
248.94597,249.02913,45,110,42
249.1123,249.19548,49,110,42
249.27864,249.36182,52,110,42
249.44499,249.52817,57,110,42
249.61133,249.6945,61,110,42
249.77768,249.86084,64,110,42
249.94402,250.44304,69,110,42
250.44304,250.94206,48,54,42
250.94206,251.44109,41,54,42
251.94011,252.10646,60,54,42
252.10646,252.2728,60,54,42
252.2728,252.43913,60,54,42
252.43913,252.60548,60,54,42
252.60548,252.77182,60,54,42
252.77182,252.93817,60,54,42
252.93817,253.4372,57,54,42
253.93622,254.10255,57,54,42
254.10255,254.2689,57,54,42
254.2689,254.43524,57,54,42
254.43524,254.60158,57,54,42
254.60158,254.76793,57,54,42
254.76793,254.93427,57,54,42
254.93427,255.18378,57,54,42
255.43329,255.59962,56,54,42
255.59962,255.76598,56,54,42
255.76598,255.93231,56,54,42
255.93231,256.18182,55,54,42
256.43134,256.5977,60,54,42
256.5977,256.76404,60,54,42
256.76404,256.93036,60,54,42
256.93036,257.17987,53,54,42
257.42938,257.51257,55,54,42
257.59573,257.7621,55,54,42
257.7621,257.9284,60,54,42
257.9284,258.42743,53,54,42
258.42743,258.92645,57,110,42
258.92645,259.00964,62,110,42
259.0928,259.25916,56,110,42
259.25916,259.42548,57,110,42
259.42548,259.50867,65,110,42
259.59183,259.75818,61,110,42
259.75818,259.92453,62,110,42
259.92453,260.0077,57,110,42
260.09085,260.2572,52,110,42
260.2572,260.42355,53,110,42
260.42355,260.5067,50,110,42
260.58987,260.75623,44,110,42
260.75623,260.92258,45,110,42
260.92258,261.00574,62,110,42
261.0889,261.25525,56,110,42
261.25525,261.4216,57,110,42
261.4216,261.50476,65,110,42
261.58792,261.75427,61,110,42
261.75427,261.92062,62,110,42
261.92062,262.00378,57,110,42
262.08694,262.2533,52,110,42
262.2533,262.41965,53,110,42
262.41965,262.5028,50,110,42
262.58597,262.75232,53,110,42
262.75232,262.91867,50,110,42
262.91867,263.00183,45,110,42
263.085,263.16818,49,110,42
263.25134,263.33453,52,110,42
263.4177,263.50085,45,110,42
263.58405,263.6672,50,110,42
263.75037,263.83356,53,110,42
263.91672,263.99988,45,110,42
264.08307,264.16623,52,110,42
264.2494,264.33258,55,110,42
264.41574,264.4989,45,110,42
264.5821,264.66525,53,110,42
264.7484,264.8316,56,110,42
264.91476,264.99792,45,110,42
265.08112,265.16428,49,110,42
265.24744,265.33063,52,110,42
265.4138,265.49695,57,110,42
265.58014,265.6633,61,110,42
265.74646,265.82965,64,110,42
265.9128,266.41183,69,110,42
266.41183,266.91086,48,54,42
266.91086,267.40988,41,54,42
267.9089,268.07526,60,54,42
268.07526,268.2416,60,54,42
268.2416,268.40793,60,54,42
268.40793,268.57428,60,54,42
268.57428,268.74063,60,54,42
268.74063,268.90695,60,54,42
268.90695,269.40598,57,54,42
269.90503,270.07135,57,54,42
270.07135,270.2377,57,54,42
270.2377,270.40405,57,54,42
270.40405,270.57037,57,54,42
270.57037,270.73672,57,54,42
270.73672,270.90308,57,54,42
270.90308,271.1526,57,54,42
271.4021,271.56842,56,54,42
271.56842,271.73477,56,54,42
271.73477,271.90112,56,54,42
271.90112,272.15063,55,54,42
272.40015,272.56647,60,54,42
272.56647,272.73282,60,54,42
272.73282,272.89917,60,54,42
272.89917,273.14868,53,54,42
273.3982,273.48135,55,54,42
273.56454,273.73087,55,54,42
273.73087,273.89722,60,54,42
273.89722,274.39624,53,54,42
275.3943,275.8933,55,54,42
276.39233,276.89136,55,54,42
277.39038,277.8894,53,54,42
278.38843,278.88745,53,54,42
279.3865,279.88553,55,54,42
280.38455,280.88358,55,54,42
281.3826,281.88162,53,54,42
282.38065,282.44302,53,54,42
282.44302,282.5054,55,54,42
282.5054,282.56778,53,54,42
282.56778,282.63016,55,54,42
282.63016,282.69254,53,54,42
282.69254,282.7549,55,54,42
282.7549,282.8173,52,54,42
282.8173,282.87967,53,54,42
282.87967,283.87772,62,54,42
283.87772,284.87576,60,64,42
284.87576,285.8738,58,61,42
286.12332,286.37283,58,57,42
286.37283,286.62234,60,56,42
286.62234,286.87186,62,55,42
286.87186,287.8699,62,54,42
287.8699,288.36893,64,54,42
288.36893,288.7432,61,54,42
288.7432,288.86795,62,54,42
288.86795,289.86603,62,54,42
291.3631,291.42548,57,54,42
291.42548,291.48785,58,54,42
291.48785,291.55023,57,58,42
291.55023,291.6126,58,62,42
291.6126,291.675,57,62,42
291.675,291.73737,58,66,42
291.73737,291.79974,55,66,42
291.79974,291.86212,57,69,42
291.86212,292.61066,63,74,42
292.61066,292.86017,54,67,42
292.86017,293.85822,55,64,42
294.10773,294.35724,46,57,42
294.35724,294.60675,48,56,42
294.60675,294.85626,50,55,42
294.85626,295.8543,50,54,42
295.8543,296.35333,52,54,42
296.35333,296.7276,49,54,42
296.7276,296.85236,50,54,42
296.85236,298.34943,50,54,42
299.38016,299.91483,53,64,42
299.91483,300.71683,58,64,42
300.8505,300.98416,58,64,42
300.98416,301.7862,62,64,42
301.91986,302.05353,62,64,42
302.05353,302.85553,65,74,42
302.85553,302.9892,62,64,42
302.9892,303.12286,58,64,42
303.12286,304.1922,53,64,42
304.1922,304.9942,60,64,42
305.12787,305.26154,60,64,42
305.26154,305.66254,61,64,42
305.66254,305.72937,63,64,42
305.72937,305.7962,61,64,42
305.7962,306.06354,60,64,42
306.06354,306.33087,58,64,42
306.33087,306.86554,57,64,42
306.86554,307.8012,65,74,42
307.8012,307.97943,64,71,42
307.93488,308.1131,63,69,42
308.1131,308.29132,62,68,42
308.29132,308.46954,60,66,42
308.46954,309.27155,58,64,42
309.4052,309.53888,58,64,42
309.53888,310.3409,62,64,42
310.47458,310.60825,62,72,42
310.60825,311.41025,65,74,42
311.41025,311.5439,61,67,42
311.5439,311.67758,58,66,42
311.67758,312.74692,53,64,42
312.74692,313.54892,60,64,42
313.6826,313.81625,57,64,42
313.81625,314.21725,58,64,42
314.21725,314.2841,60,64,42
314.2841,314.35092,58,64,42
314.35092,314.61826,57,64,42
314.61826,314.8856,55,64,42
314.8856,315.42026,53,64,42
315.42026,316.35593,53,74,42
316.35593,316.53415,54,64,42
316.4896,316.66782,55,64,42
316.66782,316.84604,56,64,42
316.84604,317.02426,57,64,42
317.02426,317.8263,58,64,42
317.95996,318.09363,58,64,42
318.09363,318.89563,62,64,42
319.0293,319.16296,62,64,42
319.16296,319.96497,65,74,42
319.96497,320.09863,62,64,42
320.09863,320.2323,58,64,42
320.2323,321.30164,53,64,42
321.30164,322.10364,60,64,42
322.2373,322.37097,60,64,42
322.37097,322.77197,61,64,42
322.77197,322.8388,63,64,42
322.8388,322.90564,61,64,42
322.90564,323.17297,60,64,42
323.17297,323.4403,58,64,42
323.4403,323.97498,57,64,42
323.97498,324.91064,65,74,42
324.91064,325.08887,64,71,42
325.0443,325.22253,63,69,42
325.22253,325.40076,62,68,42
325.40076,325.57898,60,66,42
325.57898,326.381,58,64,42
326.51468,326.64835,58,64,42
326.64835,327.45035,62,64,42
327.584,327.71768,62,72,42
327.71768,328.51968,65,74,42
328.51968,328.65335,61,67,42
328.65335,328.78702,58,66,42
328.78702,329.85635,53,64,42
329.85635,330.65836,60,64,42
330.79202,330.9257,57,64,42
330.9257,331.3267,58,64,42
331.3267,331.39352,60,64,42
331.39352,331.46036,58,64,42
331.46036,331.7277,57,64,42
331.7277,331.99503,55,64,42
331.99503,333.06436,53,64,42
334.13373,334.40106,57,64,42
334.6684,334.93573,57,64,42
335.20306,335.4704,58,64,42
335.4704,335.73773,57,64,42
335.73773,336.00507,55,64,42
336.00507,336.2724,57,64,42
336.2724,336.45062,58,64,42
336.45062,336.62885,60,64,42
336.62885,336.80707,58,64,42
336.80707,336.9853,57,64,42
336.9853,337.1635,58,64,42
337.1635,337.34174,60,64,42
337.34174,338.41107,61,74,42
338.41107,338.6784,60,64,42
338.94574,339.21307,60,65,42
339.4804,339.74774,61,66,42
339.74774,340.01508,60,67,42
340.01508,340.2824,58,68,42
340.2824,340.54974,60,68,42
340.54974,340.72797,61,69,42
340.72797,340.9062,63,69,42
340.9062,341.0844,61,70,42
341.0844,341.26263,60,70,42
341.26263,341.44086,61,71,42
341.44086,341.61908,63,71,42
341.61908,342.68845,65,81,42
342.68845,343.49045,58,64,42
343.49045,343.75778,61,64,42
343.75778,344.02512,63,64,42
344.02512,344.29245,61,64,42
344.29245,344.55978,60,64,42
344.55978,344.82712,58,64,42
344.82712,345.7628,56,64,42
345.7628,345.89645,61,64,42
345.89645,346.83212,65,74,42
346.83212,346.9658,61,64,42
346.9658,347.90146,60,64,42
347.90146,348.03513,63,64,42
348.03513,348.83713,66,64,42
348.83713,348.9708,65,64,42
348.9708,349.10446,63,64,42
349.10446,350.17383,61,64,42
350.7085,351.24316,61,64,42
351.24316,352.04517,58,64,42
352.04517,352.3125,61,64,42
352.3125,352.57983,63,74,42
352.57983,352.84717,61,64,42
352.84717,353.0254,60,64,42
353.0254,353.2036,61,64,42
353.2036,353.38184,58,64,42
353.38184,354.3175,56,64,42
354.3175,354.45117,61,64,42
354.45117,355.38684,65,74,42
355.38684,355.5205,61,64,42
355.5205,356.45618,60,64,42
356.45618,356.58984,63,64,42
356.58984,357.39185,66,64,42
357.39185,357.5255,65,64,42
357.5255,357.65918,63,64,42
357.65918,358.19388,61,64,42
358.19388,358.4612,56,64,42
358.72855,358.99588,56,61,42
359.2632,359.53055,56,58,42
359.79788,360.06522,54,64,42
360.33255,360.59988,54,64,42
360.86722,361.13455,54,64,42
361.4019,361.66922,54,64,42
361.93655,363.0059,52,64,42
364.07523,365.0109,56,64,42
365.0109,365.14456,59,64,42
365.14456,365.9466,62,74,42
365.9466,366.08026,61,64,42
366.08026,366.21393,59,64,42
366.21393,366.7486,57,64,42
366.7486,367.01593,49,64,42
367.28326,367.5506,49,64,42
367.81793,368.08527,49,64,42
368.3526,368.61993,47,64,42
368.88727,369.1546,47,63,42
369.42194,369.68927,47,62,42
369.9566,370.22394,47,61,42
370.49127,371.5606,45,59,42
372.62994,373.5656,49,54,42
373.5656,373.69928,52,62,42
373.69928,374.61438,55,62,42
374.61438,374.79794,54,58,42
374.79794,374.99295,52,57,42
376.65637,377.03064,50,64,42
388.2587,388.633,57,64,42
388.633,388.82013,62,64,42
389.00726,389.1944,62,64,42
389.31915,389.38153,62,64,42
389.38153,389.56866,66,64,42
389.7558,389.94293,66,64,42
390.13007,390.8786,62,64,42
390.8786,391.25287,57,64,42
391.62714,392.0014,57,64,42
392.18854,392.37567,57,64,42
392.37567,392.65637,64,64,42
392.65637,392.74994,62,64,42
392.74994,393.03064,61,64,42
393.03064,393.1242,59,64,42
393.1242,393.87274,57,64,42
394.247,394.37177,57,64,42
394.37177,394.49652,59,64,42
394.49652,394.62128,61,64,42
394.62128,394.8084,62,64,42
394.99554,395.18268,62,64,42
395.30743,395.3698,62,64,42
395.3698,395.55695,66,64,42
395.74408,395.9312,66,64,42
396.11835,396.8669,62,64,42
396.8669,397.24118,57,64,42
397.24118,397.61545,62,64,42
397.61545,397.80258,61,64,42
397.80258,397.89615,62,64,42
397.89615,397.98972,61,64,42
397.98972,398.27042,59,64,42
398.27042,398.36398,61,64,42
398.36398,398.73825,62,74,42
398.73825,399.11252,56,64,42
399.11252,399.86105,57,64,42
418.20023,418.5745,57,64,42
418.5745,418.94876,61,64,42
418.94876,419.32303,61,64,42
419.32303,419.51016,62,64,42
419.51016,419.6973,61,64,42
419.6973,419.88443,59,64,42
419.88443,420.07156,61,64,42
420.07156,420.82013,62,64,42
420.82013,421.1944,57,64,42
421.56866,422.13007,61,64,42
422.13007,422.3172,61,64,42
422.3172,422.50433,61,64,42
422.50433,422.69147,67,64,42
422.69147,422.8786,64,64,42
422.8786,423.06573,61,64,42
423.06573,423.81427,62,64,42
424.18854,424.5628,62,64,42
424.5628,424.74994,59,64,42
424.93707,425.1242,59,64,42
425.31134,425.49847,59,64,42
425.62323,425.6856,59,64,42
425.6856,425.87274,62,75,42
426.05988,426.8084,62,64,42
426.8084,427.18268,57,64,42
427.55695,428.11835,57,64,42
428.11835,428.30548,57,64,42
428.30548,428.67978,64,64,42
428.67978,429.05405,61,64,42
429.05405,429.80258,62,64,42
430.17685,430.55112,62,64,42
430.55112,430.73825,59,64,42
430.92538,431.11252,59,64,42
431.29965,431.4868,59,64,42
431.61154,431.67392,59,64,42
431.67392,431.86105,62,75,42
432.0482,432.79672,62,64,42
432.79672,433.171,57,64,42
433.54526,434.10666,57,64,42
434.10666,434.2314,57,64,42
434.2314,434.2938,57,64,42
434.2938,434.66806,64,64,42
434.66806,435.04233,61,64,42
435.04233,435.79086,62,64,42
438.16144,438.28748,50,54,42
438.28748,438.41476,54,54,42
438.41476,438.5433,55,54,42
438.5433,438.6731,56,54,42
438.6731,438.80423,57,54,42
438.80423,439.20566,66,64,42
439.20566,439.6198,62,54,42
439.76086,439.90338,50,54,42
439.90338,440.04752,54,53,42
440.04752,440.1933,55,53,42
440.1933,440.34064,56,52,42
440.34064,440.48975,57,51,42
440.48975,440.94745,66,60,42
440.94745,441.42178,62,47,42
441.42178,445.94644,50,45,42
3.211675,3.746345,38,54,43
4.281015,4.54835,38,54,43
4.815685,5.08302,38,54,43
5.350355,7.489035,38,54,43
7.489035,8.023705,45,54,43
8.558375,8.82571,45,54,43
9.093045,9.36038,45,54,43
9.627715,10.697055,45,54,43
11.766395,12.301065,38,54,43
12.835735,13.10307,38,54,43
13.370405,13.63774,38,54,43
13.905075,15.509085,38,54,43
15.509085,16.043755,38,54,43
16.043755,17.647764,40,54,43
17.647764,18.182434,40,54,43
18.182434,19.251776,33,54,43
20.321115,20.855785,38,54,43
21.390455,21.65779,38,54,43
21.925125,22.19246,38,54,43
22.459795,24.598475,38,54,43
24.598475,25.133144,45,54,43
25.667814,25.93515,45,54,43
26.202484,26.46982,45,54,43
26.737156,27.806496,45,54,43
28.875835,29.410505,38,54,43
29.945175,30.21251,38,54,43
30.479845,30.74718,38,54,43
31.014515,32.618526,38,54,43
32.618526,33.153194,38,54,43
33.153194,34.757206,40,54,43
34.757206,35.291874,40,54,43
35.291874,36.361214,33,54,43
37.430553,37.965225,45,64,43
38.499893,38.76723,45,64,43
39.034565,39.3019,45,64,43
39.569237,39.83657,38,64,43
40.103905,40.37124,38,64,43
40.638577,40.90591,42,64,43
41.173244,41.44058,38,64,43
41.707916,42.242584,45,64,43
42.777256,43.04459,45,64,43
43.311924,43.57926,45,64,43
43.846596,44.915936,50,64,43
45.985275,47.054615,31,64,43
47.054615,47.589287,31,64,43
47.589287,48.123955,35,64,43
48.123955,49.727966,38,64,43
49.727966,50.262634,42,64,43
50.262634,51.06464,45,64,43
51.06464,51.331974,45,64,43
51.331974,51.866646,45,64,43
51.866646,52.401314,45,64,43
52.401314,53.470654,50,64,43
54.539993,55.609337,31,64,43
55.609337,56.144005,31,64,43
56.144005,56.678677,35,64,43
56.678677,58.282684,38,64,43
58.282684,58.817356,42,64,43
58.817356,59.61936,45,64,43
59.61936,59.886696,45,64,43
59.886696,60.421364,45,64,43
60.421364,60.956036,45,64,43
60.956036,62.560043,38,64,43
125.11643,126.185776,38,64,43
129.3938,130.46313,33,64,43
131.53247,132.60182,45,64,43
133.67116,134.7405,38,64,43
137.41385,137.94852,38,64,43
137.94852,138.48318,40,64,43
139.01785,139.55252,40,64,43
140.08719,141.15654,33,64,43
142.22588,143.29521,38,64,43
146.50323,147.57257,33,64,43
148.64192,149.71126,45,64,43
150.7806,151.84993,38,64,43
154.52328,155.05795,38,64,43
155.05795,155.59262,40,64,43
156.12729,156.66197,40,64,43
157.19664,158.26598,33,64,43
159.33531,160.00365,45,64,43
160.13731,160.40465,45,64,43
160.40465,160.93933,45,64,43
160.93933,161.474,45,64,43
161.474,163.078,38,64,43
163.61267,164.281,45,64,43
164.41467,164.68202,45,64,43
164.68202,165.21669,45,64,43
165.21669,165.75136,45,64,43
165.75136,166.8207,38,64,43
167.89003,168.55838,31,64,43
168.69205,168.95938,31,64,43
168.95938,169.49405,31,64,43
169.49405,170.02872,35,64,43
170.02872,171.63272,38,64,43
172.16739,172.83574,33,64,43
172.9694,173.23674,33,64,43
173.23674,173.77141,33,64,43
173.77141,174.30608,33,64,43
174.30608,175.37541,38,64,43
176.44475,177.1131,31,64,43
177.24677,177.5141,31,64,43
177.5141,178.04877,31,64,43
178.04877,178.58344,35,64,43
178.58344,180.18744,38,64,43
180.72212,181.39046,33,64,43
181.52412,181.79146,33,64,43
181.79146,182.32613,33,64,43
182.32613,182.8608,33,64,43
182.8608,184.4648,38,64,43
185.53415,185.80148,33,64,43
186.06882,186.31833,38,64,43
186.56784,186.81735,38,64,43
187.06686,187.31638,42,64,43
187.56589,187.8154,42,64,43
188.06491,189.06296,38,64,43
189.06296,190.06102,33,64,43
190.06102,190.74718,33,64,43
190.80956,191.05907,33,64,43
191.05907,191.43333,40,64,43
191.43333,191.55809,38,64,43
191.55809,191.93236,37,64,43
191.93236,192.05711,35,64,43
192.05711,193.05516,33,64,43
193.55418,193.8037,33,64,43
194.0532,194.30273,38,64,43
194.55225,194.80176,38,64,43
195.05127,195.30078,42,64,43
195.5503,195.7998,42,64,43
196.04932,197.04736,38,64,43
197.04736,197.29688,33,64,43
197.54639,197.7959,38,64,43
198.04541,198.54443,40,64,43
199.04347,199.5425,40,64,43
200.04152,201.53859,33,64,43
201.53859,201.7881,33,64,43
202.03761,202.28712,38,64,43
202.53664,202.78615,38,64,43
203.03566,203.28517,42,64,43
203.53468,203.7842,42,64,43
204.03372,205.03177,38,64,43
205.03177,206.02982,33,64,43
206.02982,206.71597,33,64,43
206.77835,207.02786,33,64,43
207.02786,207.40213,40,64,43
207.40213,207.52689,38,64,43
207.52689,207.90115,37,64,43
207.90115,208.02591,35,64,43
208.02591,209.02397,33,64,43
209.523,209.7725,33,64,43
210.02202,210.27153,38,64,43
210.52104,210.77055,38,64,43
211.02007,211.26958,42,64,43
211.51909,211.7686,42,64,43
212.01811,213.01616,38,64,43
213.01616,213.26567,33,64,43
213.51518,213.76471,38,64,43
214.01422,214.51324,40,64,43
215.01227,215.51129,40,64,43
216.01031,217.50739,33,64,43
217.50739,217.7569,33,64,43
218.00641,218.25592,37,64,43
218.50545,218.75496,37,64,43
219.00447,219.25398,38,64,43
219.25398,219.5035,37,64,43
219.5035,219.753,35,64,43
219.753,220.00252,37,64,43
220.00252,221.00056,38,64,43
221.00056,221.49959,33,64,43
221.49959,221.99861,38,64,43
221.99861,222.24812,37,64,43
222.49763,222.74715,37,64,43
222.99666,223.24617,37,64,43
223.24617,223.4957,43,64,43
223.4957,223.74521,40,64,43
223.74521,223.99472,37,64,43
223.99472,224.99277,38,64,43
224.99277,225.49179,26,64,43
225.49179,225.99081,38,64,43
225.99081,226.48984,35,64,43
226.48984,226.98886,35,64,43
226.98886,227.48788,35,64,43
227.48788,227.98691,38,64,43
227.98691,228.98497,38,74,43
228.98497,229.484,33,64,43
229.484,229.98302,33,64,43
229.98302,230.6068,33,64,43
230.73155,230.98106,33,64,43
230.98106,231.48009,40,64,43
231.48009,231.97911,37,64,43
231.97911,232.97716,38,75,43
232.97716,233.4762,26,64,43
233.4762,233.97522,38,64,43
233.97522,234.47424,35,64,43
234.47424,234.97327,35,64,43
234.97327,235.47229,35,64,43
235.47229,235.97131,38,64,43
235.97131,236.96936,38,74,43
236.96936,237.46838,33,64,43
237.46838,237.96742,33,64,43
237.96742,238.5912,33,64,43
238.71596,238.96547,33,64,43
238.96547,239.4645,40,64,43
239.4645,239.96352,37,64,43
239.96352,241.46059,38,64,43
242.45863,242.95767,45,110,43
242.95767,243.04083,50,110,43
243.12401,243.29034,44,110,43
243.29034,243.4567,45,110,43
243.4567,243.53986,53,110,43
243.62303,243.78937,49,110,43
243.78937,243.95572,50,110,43
243.95572,244.03888,45,110,43
244.12206,244.28839,40,110,43
244.28839,244.45474,41,110,43
244.45474,244.53792,38,110,43
244.62108,244.78743,32,110,43
244.78743,244.95377,33,110,43
244.95377,245.03694,50,110,43
245.1201,245.28645,44,110,43
245.28645,245.45279,45,110,43
245.45279,245.53596,53,110,43
245.61913,245.78548,49,110,43
245.78548,245.95181,50,110,43
245.95181,246.03499,45,110,43
246.11816,246.2845,40,110,43
246.2845,246.45084,41,110,43
246.45084,246.53401,38,110,43
246.61719,246.78352,41,110,43
246.78352,246.94986,38,110,43
246.94986,247.03304,33,110,43
247.11621,247.19937,37,110,43
247.28255,247.36572,40,110,43
247.44888,247.53206,33,110,43
247.61523,247.69841,38,110,43
247.78157,247.86475,41,110,43
247.94792,248.03108,33,110,43
248.11426,248.19743,40,110,43
248.2806,248.36377,43,110,43
248.44695,248.5301,33,110,43
248.61328,248.69646,41,110,43
248.77962,248.8628,44,110,43
248.94597,249.02913,33,110,43
249.1123,249.19548,37,110,43
249.27864,249.36182,40,110,43
249.44499,249.52817,45,110,43
249.61133,249.6945,49,110,43
249.77768,249.86084,52,110,43
249.94402,250.44304,57,110,43
250.44304,250.94206,36,54,43
250.94206,251.44109,29,54,43
251.94011,252.10646,41,54,43
252.10646,252.2728,41,54,43
252.2728,252.43913,41,54,43
252.43913,252.60548,41,54,43
252.60548,252.77182,41,54,43
252.77182,252.93817,41,54,43
252.93817,253.4372,41,54,43
253.93622,254.10255,41,54,43
254.10255,254.2689,41,54,43
254.2689,254.43524,41,54,43
254.43524,254.60158,41,54,43
254.60158,254.76793,41,54,43
254.76793,254.93427,41,54,43
254.93427,255.18378,36,54,43
255.43329,255.59962,36,54,43
255.59962,255.76598,36,54,43
255.76598,255.93231,36,54,43
255.93231,256.18182,36,54,43
256.43134,256.5977,36,54,43
256.5977,256.76404,36,54,43
256.76404,256.93036,36,54,43
256.93036,257.17987,41,54,43
257.42938,257.59573,36,54,43
257.59573,257.7621,36,54,43
257.7621,257.9284,36,54,43
257.9284,258.42743,41,54,43
258.42743,258.92645,45,110,43
258.92645,259.00964,50,110,43
259.0928,259.25916,44,110,43
259.25916,259.42548,45,110,43
259.42548,259.50867,53,110,43
259.59183,259.75818,49,110,43
259.75818,259.92453,50,110,43
259.92453,260.0077,45,110,43
260.09085,260.2572,40,110,43
260.2572,260.42355,41,110,43
260.42355,260.5067,38,110,43
260.58987,260.75623,32,110,43
260.75623,260.92258,33,110,43
260.92258,261.00574,50,110,43
261.0889,261.25525,44,110,43
261.25525,261.4216,45,110,43
261.4216,261.50476,53,110,43
261.58792,261.75427,49,110,43
261.75427,261.92062,50,110,43
261.92062,262.00378,45,110,43
262.08694,262.2533,40,110,43
262.2533,262.41965,41,110,43
262.41965,262.5028,38,110,43
262.58597,262.75232,41,110,43
262.75232,262.91867,38,110,43
262.91867,263.00183,33,110,43
263.085,263.16818,37,110,43
263.25134,263.33453,40,110,43
263.4177,263.50085,33,110,43
263.58405,263.6672,38,110,43
263.75037,263.83356,41,110,43
263.91672,263.99988,33,110,43
264.08307,264.16623,40,110,43
264.2494,264.33258,43,110,43
264.41574,264.4989,33,110,43
264.5821,264.66525,41,110,43
264.7484,264.8316,44,110,43
264.91476,264.99792,33,110,43
265.08112,265.16428,37,110,43
265.24744,265.33063,40,110,43
265.4138,265.49695,45,110,43
265.58014,265.6633,49,110,43
265.74646,265.82965,52,110,43
265.9128,266.41183,57,110,43
266.41183,266.91086,36,54,43
266.91086,267.40988,29,54,43
267.9089,268.07526,41,54,43
268.07526,268.2416,41,54,43
268.2416,268.40793,41,54,43
268.40793,268.57428,41,54,43
268.57428,268.74063,41,54,43
268.74063,268.90695,41,54,43
268.90695,269.40598,41,54,43
269.90503,270.07135,41,54,43
270.07135,270.2377,41,54,43
270.2377,270.40405,41,54,43
270.40405,270.57037,41,54,43
270.57037,270.73672,41,54,43
270.73672,270.90308,41,54,43
270.90308,271.1526,36,54,43
271.4021,271.56842,36,54,43
271.56842,271.73477,36,54,43
271.73477,271.90112,36,54,43
271.90112,272.15063,36,54,43
272.40015,272.56647,36,54,43
272.56647,272.73282,36,54,43
272.73282,272.89917,36,54,43
272.89917,273.14868,41,54,43
273.3982,273.56454,36,54,43
273.56454,273.73087,36,54,43
273.73087,273.89722,36,54,43
273.89722,274.39624,41,54,43
275.3943,275.8933,36,54,43
276.39233,276.89136,36,54,43
277.39038,277.8894,29,54,43
278.38843,278.88745,29,54,43
279.3865,279.88553,36,54,43
280.38455,280.88358,36,54,43
281.3826,281.88162,29,54,43
282.38065,282.87967,29,54,43
282.87967,283.87772,34,54,43
283.87772,284.87576,33,64,43
284.87576,285.8738,34,61,43
285.8738,286.37283,31,57,43
286.37283,286.62234,33,56,43
286.62234,286.87186,34,55,43
286.87186,287.8699,33,54,43
287.8699,288.86795,33,54,43
288.86795,289.86603,38,54,43
289.86603,290.86407,36,54,43
290.86407,291.86212,34,54,43
291.86212,292.86017,33,74,43
292.86017,293.85822,34,65,43
293.85822,294.35724,31,64,43
294.35724,294.60675,33,59,43
294.60675,294.85626,34,57,43
294.85626,295.8543,33,54,43
295.8543,296.85236,33,54,43
296.85236,298.34943,38,54,43
299.91483,300.18216,34,54,43
300.4495,300.71683,46,54,43
300.98416,301.2515,34,54,43
301.51883,301.7862,46,54,43
302.05353,302.32086,34,54,43
302.5882,302.85553,46,54,43
303.12286,303.3902,34,54,43
303.65753,303.92487,46,54,43
304.1922,304.45953,29,54,43
304.72687,304.9942,41,54,43
305.26154,305.52887,29,54,43
305.7962,306.06354,41,54,43
306.33087,306.5982,29,54,43
306.86554,307.13287,41,54,43
307.4002,307.66754,29,54,43
307.93488,308.2022,41,54,43
308.46954,308.73688,34,54,43
309.0042,309.27155,46,54,43
309.53888,309.80624,34,54,43
310.07358,310.3409,46,54,43
310.60825,310.87558,34,54,43
311.1429,311.41025,46,54,43
311.67758,311.94492,37,64,43
312.21225,312.47958,49,54,43
312.74692,313.01425,36,54,43
313.2816,313.54892,48,54,43
313.81625,314.0836,36,54,43
314.35092,314.61826,48,54,43
314.8856,315.15292,29,54,43
315.42026,315.6876,41,54,43
315.95493,316.22226,29,54,43
317.02426,317.2916,34,54,43
317.55893,317.8263,46,54,43
318.09363,318.36096,34,54,43
318.6283,318.89563,46,54,43
319.16296,319.4303,34,54,43
319.69763,319.96497,46,54,43
320.2323,320.49963,34,54,43
320.76697,321.0343,46,54,43
321.30164,321.56897,29,54,43
321.8363,322.10364,41,54,43
322.37097,322.6383,29,54,43
322.90564,323.17297,41,54,43
323.4403,323.70764,29,54,43
323.97498,324.2423,41,54,43
324.50964,324.77698,29,54,43
325.0443,325.31165,41,54,43
325.57898,325.84634,34,54,43
326.11368,326.381,46,54,43
326.64835,326.91568,34,54,43
327.183,327.45035,46,54,43
327.71768,327.98502,34,54,43
328.25235,328.51968,46,54,43
328.78702,329.05435,37,64,43
329.3217,329.58902,49,54,43
329.85635,330.1237,36,54,43
330.39102,330.65836,48,54,43
330.9257,331.19302,36,54,43
331.46036,331.7277,48,54,43
331.99503,332.26236,29,54,43
332.5297,332.79703,41,54,43
333.06436,333.3317,29,54,43
334.13373,334.40106,29,54,43
334.6684,334.93573,41,54,43
335.20306,335.4704,29,54,43
335.73773,336.00507,41,54,43
336.2724,336.53973,34,54,43
336.80707,337.0744,46,54,43
337.34174,337.60907,34,54,43
337.8764,338.14374,46,54,43
338.41107,338.6784,32,54,43
338.94574,339.21307,44,55,43
339.4804,339.74774,32,57,43
340.01508,340.2824,44,58,43
340.54974,340.81708,37,59,43
341.0844,341.35175,49,60,43
341.61908,341.88644,37,62,43
342.15378,342.4211,49,63,43
342.68845,342.95578,30,54,43
343.2231,343.49045,42,54,43
343.75778,344.02512,30,54,43
344.29245,344.55978,42,54,43
344.82712,345.09445,37,54,43
345.3618,345.62912,49,54,43
345.89645,346.1638,37,54,43
346.43112,346.69846,49,54,43
346.9658,347.23312,32,54,43
347.50046,347.7678,44,54,43
348.03513,348.30246,32,54,43
348.5698,348.83713,44,54,43
349.10446,349.3718,37,54,43
349.63913,349.9065,49,54,43
350.17383,350.44116,37,54,43
350.7085,350.97583,49,54,43
351.24316,351.5105,30,54,43
351.77783,352.04517,42,54,43
352.3125,352.57983,30,54,43
352.84717,353.1145,42,54,43
353.38184,353.64917,37,54,43
353.9165,354.18384,49,54,43
354.45117,354.7185,37,54,43
354.98584,355.25317,49,54,43
355.5205,355.78784,32,54,43
356.05518,356.3225,44,54,43
356.58984,356.85718,32,54,43
357.1245,357.39185,44,54,43
357.65918,357.92654,37,54,43
358.19388,358.4612,37,54,43
358.72855,358.99588,37,51,43
359.2632,359.53055,37,48,43
359.79788,360.06522,32,54,43
360.33255,360.59988,32,54,43
360.86722,361.13455,32,54,43
361.4019,361.66922,32,54,43
361.93655,362.2039,37,54,43
362.47122,362.73856,37,54,43
363.0059,363.27322,37,54,43
363.54056,363.8079,37,54,43
364.07523,364.34256,40,54,43
364.6099,364.87723,40,54,43
365.14456,365.4119,40,54,43
365.67923,365.9466,40,54,43
366.21393,366.48126,33,54,43
366.7486,367.01593,33,54,43
367.28326,367.5506,33,54,43
367.81793,368.08527,33,54,43
368.3526,368.61993,37,54,43
368.88727,369.1546,37,53,43
369.42194,369.68927,37,53,43
369.9566,370.22394,37,52,43
370.49127,370.7586,30,51,43
371.02594,371.29327,30,50,43
371.5606,371.82794,30,49,43
372.09528,372.3626,30,48,43
372.62994,372.89728,33,48,43
373.1646,373.43195,33,47,43
373.69928,373.9747,33,46,43
374.2768,374.61438,33,45,43
376.65637,377.03064,38,64,43
388.633,389.00726,38,64,43
389.38153,389.7558,38,64,43
390.13007,390.50433,38,64,43
390.8786,391.25287,38,64,43
391.62714,392.0014,33,64,43
392.37567,392.74994,33,64,43
393.1242,393.49847,33,64,43
393.87274,394.247,33,64,43
394.62128,394.99554,38,64,43
395.3698,395.74408,38,64,43
396.11835,396.49265,38,64,43
396.8669,397.24118,38,64,43
397.61545,397.98972,40,64,43
398.36398,398.73825,40,64,43
399.11252,399.4868,33,64,43
399.86105,400.23532,33,64,43
418.5745,418.94876,33,64,43
419.32303,419.6973,33,64,43
420.07156,420.44583,38,64,43
420.82013,421.1944,38,64,43
421.56866,421.94293,33,64,43
422.3172,422.69147,33,64,43
423.06573,423.44,38,64,43
423.81427,424.18854,38,64,43
424.5628,424.93707,31,64,43
425.31134,425.6856,31,64,43
426.05988,426.43414,38,64,43
426.8084,427.18268,38,64,43
427.55695,427.9312,33,64,43
428.30548,428.67978,33,64,43
429.05405,429.4283,38,64,43
429.80258,430.17685,38,64,43
430.55112,430.92538,31,64,43
431.29965,431.67392,31,64,43
432.0482,432.42245,38,64,43
432.79672,433.171,38,64,43
433.54526,433.91953,33,64,43
434.2938,434.66806,33,64,43
435.04233,435.4166,38,64,43
435.79086,436.16513,38,62,43
436.5394,436.9137,38,59,43
437.28796,437.66223,38,57,43
438.0365,438.80423,38,54,43
438.80423,439.6198,38,54,43
439.6198,440.04752,38,54,43
440.48975,440.94745,38,49,43
441.42178,445.94644,38,44,43
64.164055,64.43139,38,64,45
64.69872,64.96606,50,64,45
65.2334,65.50073,45,64,45
65.76807,66.0354,42,64,45
66.302734,66.57007,38,64,45
66.8374,67.10474,45,64,45
67.37208,67.63941,42,64,45
67.906746,68.17408,38,64,45
68.441414,68.70875,33,64,45
68.97608,69.24342,37,64,45
69.51076,69.77809,40,64,45
70.045425,70.31276,45,64,45
70.58009,70.84743,33,64,45
71.11476,71.3821,37,64,45
71.64944,71.91677,40,64,45
72.184105,72.45144,45,64,45
72.71877,72.98611,42,64,45
73.25345,73.52078,50,64,45
73.78812,74.05545,45,64,45
74.322784,74.59012,42,64,45
74.85745,75.12479,38,64,45
75.39213,75.65946,45,64,45
75.926796,76.19413,42,64,45
76.461464,76.7288,38,64,45
76.99613,77.26347,40,64,45
77.53081,77.79814,45,64,45
78.065475,78.33281,44,64,45
78.60014,78.86748,40,64,45
79.13481,79.40215,45,64,45
79.66949,79.93682,33,64,45
80.73882,81.00616,33,58,45
81.2735,81.54083,38,64,45
81.80817,82.0755,50,64,45
82.342834,82.61017,45,64,45
82.8775,83.14484,42,64,45
83.41218,83.67951,38,64,45
83.946846,84.21418,45,64,45
84.481514,84.74885,42,64,45
85.01618,85.28352,38,64,45
85.55086,85.81819,33,64,45
86.085526,86.35286,37,64,45
86.62019,86.88753,40,64,45
87.15486,87.4222,45,64,45
87.68954,87.95687,33,64,45
88.224205,88.49154,37,64,45
88.75887,89.02621,40,64,45
89.29355,89.56088,45,64,45
89.82822,90.09555,42,64,45
90.362885,90.63022,50,64,45
90.89755,91.16489,45,64,45
91.43223,91.69956,42,64,45
91.966896,92.23423,38,64,45
92.501564,92.7689,45,64,45
93.03623,93.30357,42,64,45
93.57091,93.83824,38,64,45
94.105576,94.37291,40,64,45
94.64024,94.90758,45,64,45
95.17491,95.44225,44,64,45
95.70959,95.97692,40,64,45
96.244255,96.51159,45,64,45
96.77892,97.04626,33,64,45
97.84827,98.1156,33,58,45
98.382935,98.65027,33,64,45
98.9176,99.18494,37,64,45
99.45228,99.71961,40,64,45
99.986946,100.25428,45,64,45
100.521614,100.78895,38,64,45
101.05628,101.32362,42,64,45
101.59096,101.85829,45,64,45
102.125626,102.39296,50,64,45
102.66029,102.92763,33,64,45
103.19496,103.4623,37,64,45
103.72964,103.99697,40,64,45
104.264305,104.53164,45,64,45
104.79897,105.06631,38,64,45
105.33365,105.60098,42,64,45
105.86832,106.13565,45,64,45
106.402985,106.67032,50,64,45
106.93765,107.20499,31,64,45
107.47233,107.73966,43,64,45
108.006996,108.27433,31,64,45
108.541664,108.809,35,64,45
109.07633,109.34367,38,64,45
109.61101,109.87834,50,64,45
110.145676,110.41301,38,64,45
110.68034,110.94768,42,64,45
111.21501,111.48235,45,64,45
111.74969,112.01702,40,64,45
112.284355,112.55169,37,64,45
112.81902,113.08636,33,64,45
113.3537,113.62103,38,64,45
113.88837,114.1557,50,64,45
114.9577,115.22504,38,64,45
115.49238,115.75971,31,64,45
116.02705,116.29438,43,64,45
116.561714,116.82905,31,64,45
117.09638,117.36372,35,64,45
117.63106,117.89839,38,64,45
118.165726,118.43306,50,64,45
118.70039,118.96773,38,64,45
119.23506,119.5024,42,64,45
119.76974,120.03707,45,64,45
120.304405,120.57174,40,64,45
120.83907,121.10641,37,64,45
121.37375,121.64108,33,64,45
121.90842,122.17575,38,64,45
122.443085,122.71042,50,64,45
122.97775,123.24509,38,64,45
63.629387,64.164055,69,64,0
63.629387,64.164055,81,64,0
64.164055,64.96606,74,64,0
64.164055,64.96606,86,64,0
64.96606,65.2334,74,64,0
64.96606,65.2334,86,64,0
65.2334,65.76807,78,64,0
65.2334,65.76807,90,64,0
65.76807,66.0354,78,64,0
65.76807,66.0354,90,64,0
66.302734,66.36957,74,64,0
66.302734,66.36957,86,64,0
66.36957,66.4364,76,64,0
66.36957,66.4364,88,64,0
66.4364,66.503235,74,64,0
66.4364,66.503235,86,64,0
66.503235,66.57007,76,64,0
66.503235,66.57007,88,64,0
66.57007,66.6369,74,64,0
66.57007,66.6369,86,64,0
66.6369,66.703735,76,64,0
66.6369,66.703735,88,64,0
66.703735,66.77057,74,64,0
66.703735,66.77057,86,64,0
66.77057,66.8374,76,64,0
66.77057,66.8374,88,64,0
66.8374,66.904236,74,64,0
66.8374,66.904236,86,64,0
66.904236,66.97107,76,64,0
66.904236,66.97107,88,64,0
66.97107,67.0379,74,64,0
66.97107,67.0379,86,64,0
67.0379,67.10474,76,64,0
67.0379,67.10474,88,64,0
67.10474,67.23841,73,64,0
67.10474,67.23841,85,64,0
67.23841,67.37208,74,64,0
67.23841,67.37208,86,64,0
67.37208,68.441414,69,64,0
67.37208,68.441414,81,64,0
68.441414,69.24342,69,64,0
68.441414,69.24342,81,64,0
69.24342,69.51076,69,64,0
69.24342,69.51076,81,64,0
69.51076,69.91176,76,64,0
69.51076,69.91176,88,64,0
69.91176,70.045425,74,64,0
69.91176,70.045425,86,64,0
70.045425,70.11226,73,64,0
70.045425,70.11226,85,64,0
70.11226,70.17909,86,64,0
70.11226,70.17909,74,64,0
70.17909,70.44643,73,64,0
70.17909,70.44643,85,64,0
70.44643,70.58009,83,64,0
70.44643,70.58009,71,64,0
70.58009,72.184105,69,64,0
70.58009,72.184105,81,64,0
72.184105,72.36233,69,64,0
72.184105,72.36233,81,64,0
72.36233,72.54055,71,64,0
72.36233,72.54055,83,64,0
72.54055,72.71877,73,64,0
72.54055,72.71877,85,64,0
72.71877,73.52078,74,64,0
72.71877,73.52078,86,64,0
73.52078,73.78812,74,64,0
73.52078,73.78812,86,64,0
73.78812,74.322784,78,64,0
73.78812,74.322784,90,64,0
74.322784,74.59012,78,64,0
74.322784,74.59012,90,64,0
74.85745,74.924286,74,64,0
74.85745,74.924286,86,64,0
74.924286,74.99112,76,64,0
74.924286,74.99112,88,64,0
74.99112,75.05795,74,64,0
74.99112,75.05795,86,64,0
75.05795,75.12479,76,64,0
75.05795,75.12479,88,64,0
75.12479,75.19163,74,64,0
75.12479,75.19163,86,64,0
75.19163,75.25846,76,64,0
75.19163,75.25846,88,64,0
75.25846,75.325294,74,64,0
75.25846,75.325294,86,64,0
75.325294,75.39213,76,64,0
75.325294,75.39213,88,64,0
75.39213,75.45896,74,64,0
75.39213,75.45896,86,64,0
75.45896,75.525795,76,64,0
75.45896,75.525795,88,64,0
75.525795,75.59263,74,64,0
75.525795,75.59263,86,64,0
75.59263,75.65946,76,64,0
75.59263,75.65946,88,64,0
75.65946,75.79313,73,64,0
75.65946,75.79313,85,64,0
75.79313,75.926796,74,64,0
75.79313,75.926796,86,64,0
75.926796,76.461464,69,64,0
75.926796,76.461464,81,64,0
76.461464,76.7288,86,64,0
76.461464,76.7288,74,64,0
76.99613,77.39714,73,64,0
76.99613,77.39714,85,64,0
77.39714,77.463974,74,64,0
77.39714,77.463974,86,64,0
77.463974,77.53081,73,64,0
77.463974,77.53081,85,64,0
77.53081,77.93181,71,64,0
77.53081,77.93181,83,64,0
77.93181,78.065475,73,64,0
77.93181,78.065475,85,64,0
78.065475,78.60014,74,74,0
78.065475,78.60014,86,74,0
78.60014,79.13481,68,64,0
78.60014,79.13481,80,64,0
79.13481,80.73882,69,64,0
79.13481,80.73882,81,64,0
80.73882,81.2735,69,64,0
80.73882,81.2735,81,64,0
81.2735,82.0755,74,64,0
81.2735,82.0755,86,64,0
82.0755,82.342834,74,64,0
82.0755,82.342834,86,64,0
82.342834,82.8775,78,64,0
82.342834,82.8775,90,64,0
82.8775,83.14484,78,64,0
82.8775,83.14484,90,64,0
83.41218,83.47901,74,64,0
83.41218,83.47901,86,64,0
83.47901,83.545845,76,64,0
83.47901,83.545845,88,64,0
83.545845,83.61268,74,64,0
83.545845,83.61268,86,64,0
83.61268,83.67951,76,64,0
83.61268,83.67951,88,64,0
83.67951,83.746346,74,64,0
83.67951,83.746346,86,64,0
83.746346,83.81318,76,64,0
83.746346,83.81318,88,64,0
83.81318,83.88001,74,64,0
83.81318,83.88001,86,64,0
83.88001,83.946846,76,64,0
83.88001,83.946846,88,64,0
83.946846,84.01368,74,64,0
83.946846,84.01368,86,64,0
84.01368,84.08051,76,64,0
84.01368,84.08051,88,64,0
84.08051,84.14735,74,64,0
84.08051,84.14735,86,64,0
84.14735,84.21418,76,64,0
84.14735,84.21418,88,64,0
84.21418,84.34785,73,64,0
84.21418,84.34785,85,64,0
84.34785,84.481514,74,64,0
84.34785,84.481514,86,64,0
84.481514,85.55086,69,64,0
84.481514,85.55086,81,64,0
85.55086,86.35286,69,64,0
85.55086,86.35286,81,64,0
86.35286,86.62019,69,64,0
86.35286,86.62019,81,64,0
86.62019,87.021194,76,64,0
86.62019,87.021194,88,64,0
87.021194,87.15486,74,64,0
87.021194,87.15486,86,64,0
87.15486,87.221695,73,64,0
87.15486,87.221695,85,64,0
87.221695,87.288536,86,64,0
87.221695,87.288536,74,64,0
87.288536,87.55587,73,64,0
87.288536,87.55587,85,64,0
87.55587,87.68954,83,64,0
87.55587,87.68954,71,64,0
87.68954,89.29355,69,64,0
87.68954,89.29355,81,64,0
89.29355,89.47177,69,64,0
89.29355,89.47177,81,64,0
89.47177,89.649994,71,64,0
89.47177,89.649994,83,64,0
89.649994,89.82822,73,64,0
89.649994,89.82822,85,64,0
89.82822,90.63022,74,64,0
89.82822,90.63022,86,64,0
90.63022,90.89755,74,64,0
90.63022,90.89755,86,64,0
90.89755,91.43223,78,64,0
90.89755,91.43223,90,64,0
91.43223,91.69956,78,64,0
91.43223,91.69956,90,64,0
91.966896,92.03373,74,64,0
91.966896,92.03373,86,64,0
92.03373,92.10056,76,64,0
92.03373,92.10056,88,64,0
92.10056,92.1674,74,64,0
92.10056,92.1674,86,64,0
92.1674,92.23423,76,64,0
92.1674,92.23423,88,64,0
92.23423,92.30106,74,64,0
92.23423,92.30106,86,64,0
92.30106,92.3679,76,64,0
92.30106,92.3679,88,64,0
92.3679,92.43473,74,64,0
92.3679,92.43473,86,64,0
92.43473,92.501564,76,64,0
92.43473,92.501564,88,64,0
92.501564,92.5684,74,64,0
92.501564,92.5684,86,64,0
92.5684,92.63523,76,64,0
92.5684,92.63523,88,64,0
92.63523,92.702065,74,64,0
92.63523,92.702065,86,64,0
92.702065,92.7689,76,64,0
92.702065,92.7689,88,64,0
92.7689,92.902565,73,64,0
92.7689,92.902565,85,64,0
92.902565,93.03623,74,64,0
92.902565,93.03623,86,64,0
93.03623,93.57091,69,64,0
93.03623,93.57091,81,64,0
93.57091,93.83824,86,64,0
93.57091,93.83824,74,64,0
94.105576,94.50658,73,64,0
94.105576,94.50658,85,64,0
94.50658,94.57341,74,64,0
94.50658,94.57341,86,64,0
94.57341,94.64024,73,64,0
94.57341,94.64024,85,64,0
94.64024,95.041245,71,64,0
94.64024,95.041245,83,64,0
95.041245,95.17491,73,64,0
95.041245,95.17491,85,64,0
95.17491,95.70959,74,74,0
95.17491,95.70959,86,74,0
95.70959,96.244255,68,64,0
95.70959,96.244255,80,64,0
96.244255,97.84827,69,64,0
96.244255,97.84827,81,64,0
97.84827,98.382935,69,64,0
97.84827,98.382935,81,64,0
98.382935,99.18494,73,64,0
98.382935,99.18494,85,64,0
99.18494,99.45228,73,64,0
99.18494,99.45228,85,64,0
99.45228,99.71961,74,64,0
99.45228,99.71961,86,64,0
99.71961,99.986946,73,64,0
99.71961,99.986946,85,64,0
99.986946,100.25428,71,64,0
99.986946,100.25428,83,64,0
100.25428,100.521614,73,64,0
100.25428,100.521614,85,64,0
100.521614,100.58845,74,64,0
100.521614,100.58845,86,64,0
100.58845,100.65528,76,64,0
100.58845,100.65528,88,64,0
100.65528,100.722115,74,64,0
100.65528,100.722115,86,64,0
100.722115,100.78895,76,64,0
100.722115,100.78895,88,64,0
100.78895,100.85578,74,64,0
100.78895,100.85578,86,64,0
100.85578,100.922615,76,64,0
100.85578,100.922615,88,64,0
100.922615,100.98945,74,64,0
100.922615,100.98945,86,64,0
100.98945,101.05628,76,64,0
100.98945,101.05628,88,64,0
101.05628,101.123116,74,64,0
101.05628,101.123116,86,64,0
101.123116,101.18995,76,64,0
101.123116,101.18995,88,64,0
101.18995,101.25678,74,64,0
101.18995,101.25678,86,64,0
101.25678,101.32362,76,64,0
101.25678,101.32362,88,64,0
101.32362,101.45729,73,64,0
101.32362,101.45729,85,64,0
101.45729,101.59096,74,64,0
101.45729,101.59096,86,64,0
101.59096,101.85829,69,64,0
101.59096,101.85829,81,64,0
102.125626,102.39296,74,64,0
102.125626,102.39296,86,64,0
102.66029,103.4623,73,64,0
102.66029,103.4623,85,64,0
103.4623,103.72964,73,64,0
103.4623,103.72964,85,64,0
103.72964,103.90786,73,64,0
103.72964,103.90786,85,64,0
103.90786,104.08608,79,64,0
103.90786,104.08608,91,64,0
104.08608,104.264305,78,64,0
104.08608,104.264305,90,64,0
104.264305,104.44253,76,64,0
104.264305,104.44253,88,64,0
104.44253,104.62075,74,64,0
104.44253,104.62075,86,64,0
104.62075,104.79897,73,64,0
104.62075,104.79897,85,64,0
104.79897,106.402985,74,64,0
104.79897,106.402985,86,64,0
106.402985,106.93765,74,64,0
106.402985,106.93765,86,64,0
106.93765,107.73966,71,64,0
106.93765,107.73966,83,64,0
107.73966,108.006996,71,64,0
107.73966,108.006996,83,64,0
108.006996,108.47483,71,64,0
108.006996,108.47483,83,64,0
108.47483,108.541664,71,64,0
108.47483,108.541664,83,64,0
108.541664,109.07633,74,64,0
108.541664,109.07633,86,64,0
109.07633,109.143166,74,64,0
109.07633,109.143166,86,64,0
109.143166,109.21,76,64,0
109.143166,109.21,88,64,0
109.21,109.27683,74,64,0
109.21,109.27683,86,64,0
109.27683,109.34367,76,64,0
109.27683,109.34367,88,64,0
109.34367,109.41051,74,64,0
109.34367,109.41051,86,64,0
109.41051,109.47734,76,64,0
109.41051,109.47734,88,64,0
109.47734,109.544174,74,64,0
109.47734,109.544174,86,64,0
109.544174,109.61101,76,64,0
109.544174,109.61101,88,64,0
109.61101,109.67784,74,64,0
109.61101,109.67784,86,64,0
109.67784,109.744675,76,64,0
109.67784,109.744675,88,64,0
109.744675,109.81151,74,64,0
109.744675,109.81151,86,64,0
109.81151,109.87834,76,64,0
109.81151,109.87834,88,64,0
109.87834,110.01201,73,64,0
109.87834,110.01201,85,64,0
110.01201,110.145676,74,64,0
110.01201,110.145676,86,64,0
110.145676,110.68034,69,64,0
110.145676,110.68034,81,64,0
111.21501,112.01702,69,64,0
111.21501,112.01702,81,64,0
112.01702,112.21752,69,64,0
112.01702,112.21752,81,64,0
112.21752,112.284355,69,64,0
112.21752,112.284355,81,64,0
112.284355,112.81902,76,64,0
112.284355,112.81902,88,64,0
112.81902,113.3537,73,64,0
112.81902,113.3537,85,64,0
113.3537,113.42053,74,64,0
113.3537,113.42053,86,64,0
113.42053,113.487366,76,64,0
113.42053,113.487366,88,64,0
113.487366,113.5542,74,64,0
113.487366,113.5542,86,64,0
113.5542,113.62103,76,64,0
113.5542,113.62103,88,64,0
113.62103,113.68787,74,64,0
113.62103,113.68787,86,64,0
113.68787,113.7547,76,64,0
113.68787,113.7547,88,64,0
113.7547,113.82153,74,64,0
113.7547,113.82153,86,64,0
113.82153,113.88837,76,64,0
113.82153,113.88837,88,64,0
113.88837,113.9552,74,64,0
113.88837,113.9552,86,64,0
113.9552,114.02203,76,64,0
113.9552,114.02203,88,64,0
114.02203,114.08887,74,64,0
114.02203,114.08887,86,64,0
114.08887,114.1557,76,64,0
114.08887,114.1557,88,64,0
114.1557,114.222534,74,64,0
114.1557,114.222534,86,64,0
114.222534,114.28937,76,64,0
114.222534,114.28937,88,64,0
114.28937,114.3562,74,64,0
114.28937,114.3562,86,64,0
114.3562,114.423035,76,64,0
114.3562,114.423035,88,64,0
114.423035,114.48987,74,64,0
114.423035,114.48987,86,64,0
114.48987,114.5567,76,64,0
114.48987,114.5567,88,64,0
114.5567,114.623535,74,64,0
114.5567,114.623535,86,64,0
114.623535,114.69037,76,64,0
114.623535,114.69037,88,64,0
114.69037,114.7572,74,64,0
114.69037,114.7572,86,64,0
114.7572,114.824036,76,64,0
114.7572,114.824036,88,64,0
114.824036,114.89087,74,64,0
114.824036,114.89087,86,64,0
114.89087,114.9577,76,64,0
114.89087,114.9577,88,64,0
114.9577,115.024536,74,64,0
114.9577,115.024536,86,64,0
115.024536,115.09137,76,64,0
115.024536,115.09137,88,64,0
115.09137,115.1582,74,64,0
115.09137,115.1582,86,64,0
115.1582,115.22504,76,64,0
115.1582,115.22504,88,64,0
115.22504,115.35871,73,64,0
115.22504,115.35871,85,64,0
115.35871,115.49238,74,64,0
115.35871,115.49238,86,64,0
115.49238,116.29438,71,64,0
115.49238,116.29438,83,64,0
116.29438,116.561714,71,64,0
116.29438,116.561714,83,64,0
116.561714,117.02955,71,64,0
116.561714,117.02955,83,64,0
117.02955,117.09638,71,64,0
117.02955,117.09638,83,64,0
117.09638,117.63106,74,64,0
117.09638,117.63106,86,64,0
117.63106,117.69789,74,64,0
117.63106,117.69789,86,64,0
117.69789,117.764725,76,64,0
117.69789,117.764725,88,64,0
117.764725,117.83156,74,64,0
117.764725,117.83156,86,64,0
117.83156,117.89839,76,64,0
117.83156,117.89839,88,64,0
117.89839,117.965225,74,64,0
117.89839,117.965225,86,64,0
117.965225,118.03206,76,64,0
117.965225,118.03206,88,64,0
118.03206,118.09889,74,64,0
118.03206,118.09889,86,64,0
118.09889,118.165726,76,64,0
118.09889,118.165726,88,64,0
118.165726,118.23256,74,64,0
118.165726,118.23256,86,64,0
118.23256,118.29939,76,64,0
118.23256,118.29939,88,64,0
118.29939,118.36623,74,64,0
118.29939,118.36623,86,64,0
118.36623,118.43306,76,64,0
118.36623,118.43306,88,64,0
118.43306,118.56673,73,64,0
118.43306,118.56673,85,64,0
118.56673,118.70039,71,64,0
118.56673,118.70039,83,64,0
118.70039,119.23506,69,64,0
118.70039,119.23506,81,64,0
119.76974,120.57174,69,64,0
119.76974,120.57174,81,64,0
120.57174,120.77224,69,64,0
120.57174,120.77224,81,64,0
120.77224,120.83907,69,64,0
120.77224,120.83907,81,64,0
120.83907,121.37375,76,64,0
120.83907,121.37375,88,64,0
121.37375,121.90842,73,64,0
121.37375,121.90842,85,64,0
121.90842,123.51243,74,64,0
121.90842,123.51243,86,64,0
127.25511,128.05711,66,86,0
127.25511,128.05711,74,86,0
127.25511,128.05711,62,86,0
127.25511,128.05711,57,86,0
127.25511,128.05711,50,86,0
128.05711,128.32445,50,86,0
128.05711,128.32445,62,86,0
128.05711,128.32445,66,86,0
128.05711,128.32445,74,86,0
128.32445,128.85913,74,86,0
128.32445,128.85913,78,86,0
128.32445,128.85913,62,86,0
128.32445,128.85913,66,86,0
128.85913,129.3938,81,86,0
128.85913,129.3938,78,86,0
128.85913,129.3938,66,86,0
128.85913,129.3938,69,86,0
129.3938,130.46313,57,86,0
129.3938,130.46313,64,86,0
129.3938,130.46313,73,86,0
129.3938,130.46313,76,86,0
131.53247,132.06714,81,86,0
131.53247,132.06714,73,86,0
132.06714,132.60182,76,86,0
132.06714,132.60182,79,86,0
131.53247,132.60182,64,86,0
131.53247,132.60182,61,86,0
132.60182,133.13649,66,86,0
132.60182,133.13649,62,86,0
132.60182,133.13649,78,86,0
132.60182,133.13649,74,86,0
131.53247,133.67116,57,86,0
131.53247,133.67116,69,86,0
133.13649,133.67116,76,86,0
133.13649,133.67116,73,86,0
133.13649,133.67116,64,86,0
133.13649,133.67116,67,86,0
133.67116,134.7405,62,86,0
133.67116,134.7405,66,86,0
133.67116,134.7405,69,86,0
133.67116,134.7405,74,86,0
135.80983,136.61185,66,86,0
135.80983,136.61185,74,86,0
135.80983,136.61185,62,86,0
135.80983,136.61185,57,86,0
135.80983,136.61185,50,86,0
136.61185,136.87918,50,86,0
136.61185,136.87918,62,86,0
136.61185,136.87918,66,86,0
136.61185,136.87918,74,86,0
136.87918,137.41385,74,86,0
136.87918,137.41385,78,86,0
136.87918,137.41385,62,86,0
136.87918,137.41385,66,86,0
137.41385,137.94852,81,86,0
137.41385,137.94852,78,86,0
137.41385,137.94852,66,86,0
137.41385,137.94852,69,86,0
137.94852,138.48318,76,86,0
137.94852,138.48318,73,86,0
137.94852,138.48318,64,86,0
137.94852,138.48318,61,86,0
137.94852,138.48318,52,86,0
139.01785,139.55252,52,86,0
139.01785,139.55252,59,86,0
139.01785,139.55252,62,86,0
139.01785,139.55252,68,86,0
140.08719,140.62187,45,86,0
140.08719,140.62187,52,86,0
140.08719,140.62187,57,86,0
140.08719,140.62187,61,86,0
140.08719,140.62187,69,86,0
144.36455,145.16656,66,86,0
144.36455,145.16656,74,86,0
144.36455,145.16656,62,86,0
144.36455,145.16656,57,86,0
144.36455,145.16656,50,86,0
145.16656,145.4339,50,86,0
145.16656,145.4339,62,86,0
145.16656,145.4339,66,86,0
145.16656,145.4339,74,86,0
145.4339,145.96857,74,86,0
145.4339,145.96857,78,86,0
145.4339,145.96857,62,86,0
145.4339,145.96857,66,86,0
145.96857,146.50323,81,86,0
145.96857,146.50323,78,86,0
145.96857,146.50323,66,86,0
145.96857,146.50323,69,86,0
146.50323,147.57257,57,86,0
146.50323,147.57257,64,86,0
146.50323,147.57257,73,86,0
146.50323,147.57257,76,86,0
148.64192,149.17659,81,86,0
148.64192,149.17659,73,86,0
149.17659,149.71126,76,86,0
149.17659,149.71126,79,86,0
148.64192,149.71126,64,86,0
148.64192,149.71126,61,86,0
149.71126,150.24593,66,86,0
149.71126,150.24593,62,86,0
149.71126,150.24593,78,86,0
149.71126,150.24593,74,86,0
148.64192,150.7806,57,86,0
148.64192,150.7806,69,86,0
150.24593,150.7806,76,86,0
150.24593,150.7806,73,86,0
150.24593,150.7806,64,86,0
150.24593,150.7806,67,86,0
150.7806,151.84993,62,86,0
150.7806,151.84993,66,86,0
150.7806,151.84993,69,86,0
150.7806,151.84993,74,86,0
152.91928,153.72128,66,86,0
152.91928,153.72128,74,86,0
152.91928,153.72128,62,86,0
152.91928,153.72128,57,86,0
152.91928,153.72128,50,86,0
153.72128,153.98862,50,86,0
153.72128,153.98862,62,86,0
153.72128,153.98862,66,86,0
153.72128,153.98862,74,86,0
153.98862,154.52328,74,86,0
153.98862,154.52328,78,86,0
153.98862,154.52328,62,86,0
153.98862,154.52328,66,86,0
154.52328,155.05795,81,86,0
154.52328,155.05795,78,86,0
154.52328,155.05795,66,86,0
154.52328,155.05795,69,86,0
155.05795,155.59262,76,86,0
155.05795,155.59262,73,86,0
155.05795,155.59262,64,86,0
155.05795,155.59262,61,86,0
155.05795,155.59262,52,86,0
156.12729,156.66197,52,86,0
156.12729,156.66197,59,86,0
156.12729,156.66197,62,86,0
156.12729,156.66197,68,86,0
157.19664,157.73131,45,86,0
157.19664,157.73131,52,86,0
157.19664,157.73131,57,86,0
157.19664,157.73131,61,86,0
157.19664,157.73131,69,86,0
161.474,162.276,74,64,0
161.474,162.54333,66,64,0
161.474,162.54333,62,64,0
161.474,162.54333,57,64,0
161.474,162.54333,50,64,0
162.276,162.54333,74,64,0
162.54333,162.81067,78,64,0
162.54333,163.078,50,64,0
162.54333,163.078,57,64,0
162.54333,163.078,62,64,0
162.54333,163.078,66,64,0
162.81067,163.078,74,64,0
163.078,163.34534,73,64,0
163.078,163.61267,50,64,0
163.078,163.61267,57,64,0
163.078,163.61267,62,64,0
163.078,163.61267,66,64,0
163.34534,163.61267,74,64,0
163.61267,164.14734,83,64,0
163.61267,164.68202,73,64,0
163.61267,164.68202,64,64,0
163.61267,164.68202,67,64,0
163.61267,164.68202,57,64,0
164.14734,164.68202,81,64,0
165.75136,166.55336,74,64,0
165.75136,166.8207,66,64,0
165.75136,166.8207,62,64,0
165.75136,166.8207,57,64,0
165.75136,166.8207,50,64,0
166.55336,166.8207,74,64,0
166.8207,167.08803,74,64,0
166.8207,167.35536,50,64,0
166.8207,167.35536,57,64,0
166.8207,167.35536,62,64,0
166.8207,167.35536,66,64,0
167.08803,167.35536,81,64,0
167.35536,167.6227,78,64,0
167.35536,167.89003,50,64,0
167.35536,167.89003,57,64,0
167.35536,167.89003,62,64,0
167.35536,167.89003,66,64,0
167.6227,167.89003,74,64,0
167.89003,168.95938,71,64,0
167.89003,168.95938,67,64,0
167.89003,168.95938,62,64,0
167.89003,168.95938,55,64,0
170.02872,170.83072,74,64,0
170.02872,171.09805,66,64,0
170.02872,171.09805,62,64,0
170.02872,171.09805,57,64,0
170.02872,171.09805,50,64,0
170.83072,171.09805,74,64,0
171.09805,171.63272,50,64,0
171.09805,171.63272,57,64,0
171.09805,171.63272,62,64,0
171.09805,171.63272,66,64,0
171.09805,171.63272,74,64,0
171.63272,171.90005,78,64,0
171.63272,172.16739,50,64,0
171.63272,172.16739,57,64,0
171.63272,172.16739,62,64,0
171.63272,172.16739,66,64,0
171.90005,172.16739,74,64,0
172.16739,173.23674,69,64,0
172.16739,173.23674,67,64,0
172.16739,173.23674,64,64,0
172.16739,173.23674,57,64,0
174.30608,175.10808,74,64,0
174.30608,175.37541,66,64,0
174.30608,175.37541,62,64,0
174.30608,175.37541,57,64,0
174.30608,175.37541,50,64,0
175.10808,175.37541,74,64,0
175.37541,175.64275,74,64,0
175.37541,175.91008,50,64,0
175.37541,175.91008,57,64,0
175.37541,175.91008,62,64,0
175.37541,175.91008,66,64,0
175.64275,175.91008,81,64,0
175.91008,176.17741,78,64,0
175.91008,176.44475,50,64,0
175.91008,176.44475,57,64,0
175.91008,176.44475,62,64,0
175.91008,176.44475,66,64,0
176.17741,176.44475,74,64,0
176.44475,177.5141,71,64,0
176.44475,177.5141,67,64,0
176.44475,177.5141,62,64,0
176.44475,177.5141,55,64,0
178.58344,179.38544,74,64,0
178.58344,179.65277,66,64,0
178.58344,179.65277,62,64,0
178.58344,179.65277,57,64,0
178.58344,179.65277,50,64,0
179.38544,179.65277,74,64,0
179.65277,180.18744,50,64,0
179.65277,180.18744,57,64,0
179.65277,180.18744,62,64,0
179.65277,180.18744,66,64,0
179.65277,180.18744,74,64,0
180.18744,180.45477,78,64,0
180.18744,180.72212,50,64,0
180.18744,180.72212,57,64,0
180.18744,180.72212,62,64,0
180.18744,180.72212,66,64,0
180.45477,180.72212,74,64,0
180.72212,181.79146,69,64,0
180.72212,181.79146,67,64,0
180.72212,181.79146,64,64,0
180.72212,181.79146,57,64,0
182.8608,183.79646,66,64,0
182.8608,183.79646,74,64,0
182.8608,183.79646,62,64,0
182.8608,183.79646,57,64,0
182.8608,183.79646,50,64,0
183.79646,183.93013,74,64,0
183.79646,183.93013,69,64,0
183.79646,183.93013,66,64,0
183.93013,184.4648,66,64,0
183.93013,184.4648,62,64,0
183.93013,184.4648,86,64,0
185.53415,185.60098,69,100,0
185.53415,185.60098,81,100,0
185.60098,185.66782,71,100,0
185.60098,185.66782,83,100,0
185.66782,185.73465,69,100,0
185.66782,185.73465,81,100,0
185.73465,185.80148,71,100,0
185.73465,185.80148,83,100,0
185.80148,185.86832,69,100,0
185.80148,185.86832,81,100,0
185.86832,185.93515,71,100,0
185.86832,185.93515,83,100,0
185.93515,186.00198,68,100,0
185.93515,186.00198,80,100,0
186.00198,186.06882,69,100,0
186.00198,186.06882,81,100,0
186.06882,186.1312,66,100,0
186.06882,186.1312,78,100,0
186.19357,186.31833,71,100,0
186.19357,186.31833,83,100,0
186.31833,186.44308,69,100,0
186.31833,186.44308,81,100,0
186.44308,186.56784,66,100,0
186.44308,186.56784,78,100,0
186.56784,186.6926,62,100,0
186.56784,186.6926,74,100,0
186.6926,186.81735,76,100,0
186.6926,186.81735,88,100,0
186.81735,186.94211,74,100,0
186.81735,186.94211,86,100,0
186.94211,187.06686,69,100,0
186.94211,187.06686,81,100,0
187.06686,187.19162,66,100,0
187.06686,187.19162,78,100,0
187.19162,187.31638,71,100,0
187.19162,187.31638,83,100,0
187.31638,187.44113,69,100,0
187.31638,187.44113,81,100,0
187.44113,187.56589,66,100,0
187.44113,187.56589,78,100,0
187.56589,187.69064,62,100,0
187.56589,187.69064,74,100,0
187.69064,187.8154,76,100,0
187.69064,187.8154,88,100,0
187.8154,187.94016,74,100,0
187.8154,187.94016,86,100,0
187.94016,188.06491,69,100,0
187.94016,188.06491,81,100,0
188.06491,188.18967,66,100,0
188.06491,188.18967,78,100,0
188.18967,188.31442,78,100,0
188.18967,188.31442,90,100,0
188.31442,188.43918,76,100,0
188.31442,188.43918,88,100,0
188.43918,188.56393,74,100,0
188.43918,188.56393,86,100,0
188.56393,188.68869,73,100,0
188.56393,188.68869,85,100,0
188.68869,188.81345,71,100,0
188.68869,188.81345,83,100,0
188.81345,188.9382,69,100,0
188.81345,188.9382,81,100,0
188.9382,189.06296,68,100,0
188.9382,189.06296,80,100,0
189.06296,189.18771,71,100,0
189.06296,189.18771,83,100,0
189.18771,189.31248,69,100,0
189.18771,189.31248,81,100,0
189.31248,189.43724,74,100,0
189.31248,189.43724,86,100,0
189.43724,189.562,69,100,0
189.43724,189.562,81,100,0
189.562,189.68675,67,100,0
189.562,189.68675,79,100,0
189.68675,189.81151,66,100,0
189.68675,189.81151,78,100,0
189.81151,189.93626,64,100,0
189.81151,189.93626,76,100,0
189.93626,190.06102,62,100,0
189.93626,190.06102,74,100,0
190.06102,190.1234,61,100,0
190.06102,190.1234,73,100,0
190.18578,190.31053,73,100,0
190.18578,190.31053,85,100,0
190.31053,190.43529,69,100,0
190.31053,190.43529,81,100,0
190.43529,190.56004,64,100,0
190.43529,190.56004,76,100,0
190.56004,190.6848,61,100,0
190.56004,190.6848,73,100,0
190.6848,190.80956,76,100,0
190.6848,190.80956,88,100,0
190.80956,190.93431,73,100,0
190.80956,190.93431,85,100,0
190.93431,191.05907,69,100,0
190.93431,191.05907,81,100,0
191.05907,191.18382,68,100,0
191.05907,191.18382,80,100,0
191.18382,191.30858,76,100,0
191.18382,191.30858,88,100,0
191.30858,191.43333,68,100,0
191.30858,191.43333,80,100,0
191.43333,191.55809,78,100,0
191.43333,191.55809,90,100,0
191.55809,191.68285,69,100,0
191.55809,191.68285,81,100,0
191.68285,191.8076,76,100,0
191.68285,191.8076,88,100,0
191.8076,191.93236,71,100,0
191.8076,191.93236,83,100,0
191.93236,192.05711,74,100,0
191.93236,192.05711,86,100,0
192.05711,192.11949,73,100,0
192.05711,192.11949,85,100,0
192.18187,192.30663,81,100,0
192.18187,192.30663,93,100,0
192.30663,192.43138,76,100,0
192.30663,192.43138,88,100,0
192.43138,192.55614,73,100,0
192.43138,192.55614,85,100,0
192.55614,192.6809,71,100,0
192.55614,192.6809,83,100,0
192.6809,192.80565,79,100,0
192.6809,192.80565,91,100,0
192.80565,192.9304,74,100,0
192.80565,192.9304,86,100,0
192.9304,193.05516,71,100,0
192.9304,193.05516,83,100,0
193.05516,193.17992,69,100,0
193.05516,193.17992,81,100,0
193.17992,193.30467,78,100,0
193.17992,193.30467,90,100,0
193.30467,193.42943,74,100,0
193.30467,193.42943,86,100,0
193.42943,193.55418,69,100,0
193.42943,193.55418,81,100,0
193.55418,193.67894,67,100,0
193.55418,193.67894,79,100,0
193.67894,193.8037,76,100,0
193.67894,193.8037,88,100,0
193.8037,193.92845,73,100,0
193.8037,193.92845,85,100,0
193.92845,194.0532,67,100,0
193.92845,194.0532,79,100,0
194.0532,194.17798,66,100,0
194.0532,194.17798,78,100,0
194.17798,194.30273,71,100,0
194.17798,194.30273,83,100,0
194.30273,194.42749,69,100,0
194.30273,194.42749,81,100,0
194.42749,194.55225,66,100,0
194.42749,194.55225,78,100,0
194.55225,194.677,62,100,0
194.55225,194.677,74,100,0
194.677,194.80176,76,100,0
194.677,194.80176,88,100,0
194.80176,194.92651,74,100,0
194.80176,194.92651,86,100,0
194.92651,195.05127,69,100,0
194.92651,195.05127,81,100,0
195.05127,195.17603,66,100,0
195.05127,195.17603,78,100,0
195.17603,195.30078,71,100,0
195.17603,195.30078,83,100,0
195.30078,195.42554,69,100,0
195.30078,195.42554,81,100,0
195.42554,195.5503,66,100,0
195.42554,195.5503,78,100,0
195.5503,195.67505,62,100,0
195.5503,195.67505,74,100,0
195.67505,195.7998,76,100,0
195.67505,195.7998,88,100,0
195.7998,195.92456,74,100,0
195.7998,195.92456,86,100,0
195.92456,196.04932,69,100,0
195.92456,196.04932,81,100,0
196.04932,196.17407,66,100,0
196.04932,196.17407,78,100,0
196.17407,196.29883,78,100,0
196.17407,196.29883,90,100,0
196.29883,196.42358,76,100,0
196.29883,196.42358,88,100,0
196.42358,196.54834,74,100,0
196.42358,196.54834,86,100,0
196.54834,196.6731,73,100,0
196.54834,196.6731,85,100,0
196.6731,196.79785,71,100,0
196.6731,196.79785,83,100,0
196.79785,196.9226,69,100,0
196.79785,196.9226,81,100,0
196.9226,197.04736,68,100,0
196.9226,197.04736,80,100,0
197.04736,197.17212,71,100,0
197.04736,197.17212,83,100,0
197.17212,197.29688,69,100,0
197.17212,197.29688,81,100,0
197.29688,197.42163,74,100,0
197.29688,197.42163,86,100,0
197.42163,197.54639,69,100,0
197.42163,197.54639,81,100,0
197.54639,197.67114,67,100,0
197.54639,197.67114,79,100,0
197.67114,197.7959,66,100,0
197.67114,197.7959,78,100,0
197.7959,197.92065,64,100,0
197.7959,197.92065,76,100,0
197.92065,198.04541,62,100,0
197.92065,198.04541,74,100,0
198.04541,198.10779,61,100,0
198.04541,198.10779,73,100,0
198.17017,198.29492,73,100,0
198.17017,198.29492,85,100,0
198.29492,198.41968,69,100,0
198.29492,198.41968,81,100,0
198.41968,198.54443,64,100,0
198.41968,198.54443,76,100,0
198.54443,198.66919,61,100,0
198.54443,198.66919,73,100,0
198.66919,198.79395,76,100,0
198.66919,198.79395,88,100,0
198.79395,198.9187,73,100,0
198.79395,198.9187,85,100,0
198.9187,199.04347,69,100,0
198.9187,199.04347,81,100,0
199.04347,199.16823,68,100,0
199.04347,199.16823,80,100,0
199.16823,199.29298,69,100,0
199.16823,199.29298,81,100,0
199.29298,199.41774,71,100,0
199.29298,199.41774,83,100,0
199.41774,199.5425,73,100,0
199.41774,199.5425,85,100,0
199.5425,199.66725,74,100,0
199.5425,199.66725,86,100,0
199.66725,199.792,75,100,0
199.66725,199.792,87,100,0
199.792,199.91676,78,100,0
199.792,199.91676,90,100,0
199.91676,200.04152,76,100,0
199.91676,200.04152,88,100,0
200.04152,200.1039,69,100,0
200.04152,200.1039,81,100,0
200.16628,200.29103,81,100,0
200.16628,200.29103,93,100,0
200.29103,200.41579,76,100,0
200.29103,200.41579,88,100,0
200.41579,200.54054,73,100,0
200.41579,200.54054,85,100,0
200.54054,200.6653,69,100,0
200.54054,200.6653,81,100,0
200.6653,200.79005,69,100,0
200.6653,200.79005,81,100,0
200.79005,200.91481,64,100,0
200.79005,200.91481,76,100,0
200.91481,201.03957,61,100,0
200.91481,201.03957,73,100,0
201.03957,201.16432,57,100,0
201.03957,201.16432,69,100,0
201.16432,201.28908,59,100,0
201.16432,201.28908,71,100,0
201.28908,201.41383,60,100,0
201.28908,201.41383,72,100,0
201.41383,201.53859,61,100,0
201.41383,201.53859,73,100,0
201.53859,201.66335,62,100,0
201.53859,201.66335,74,100,0
201.66335,201.7881,63,100,0
201.66335,201.7881,75,100,0
201.7881,201.91286,64,100,0
201.7881,201.91286,76,100,0
201.91286,202.03761,65,100,0
201.91286,202.03761,77,100,0
202.03761,202.09999,66,100,0
202.03761,202.09999,78,100,0
202.16237,202.28712,71,100,0
202.16237,202.28712,83,100,0
202.28712,202.41188,69,100,0
202.28712,202.41188,81,100,0
202.41188,202.53664,66,100,0
202.41188,202.53664,78,100,0
202.53664,202.66139,62,100,0
202.53664,202.66139,74,100,0
202.66139,202.78615,76,100,0
202.66139,202.78615,88,100,0
202.78615,202.9109,74,100,0
202.78615,202.9109,86,100,0
202.9109,203.03566,69,100,0
202.9109,203.03566,81,100,0
203.03566,203.16042,66,100,0
203.03566,203.16042,78,100,0
203.16042,203.28517,71,100,0
203.16042,203.28517,83,100,0
203.28517,203.40993,69,100,0
203.28517,203.40993,81,100,0
203.40993,203.53468,66,100,0
203.40993,203.53468,78,100,0
203.53468,203.65944,62,100,0
203.53468,203.65944,74,100,0
203.65944,203.7842,76,100,0
203.65944,203.7842,88,100,0
203.7842,203.90897,74,100,0
203.7842,203.90897,86,100,0
203.90897,204.03372,69,100,0
203.90897,204.03372,81,100,0
204.03372,204.15848,66,100,0
204.03372,204.15848,78,100,0
204.15848,204.28323,78,100,0
204.15848,204.28323,90,100,0
204.28323,204.40799,76,100,0
204.28323,204.40799,88,100,0
204.40799,204.53275,74,100,0
204.40799,204.53275,86,100,0
204.53275,204.6575,73,100,0
204.53275,204.6575,85,100,0
204.6575,204.78226,71,100,0
204.6575,204.78226,83,100,0
204.78226,204.90701,69,100,0
204.78226,204.90701,81,100,0
204.90701,205.03177,68,100,0
204.90701,205.03177,80,100,0
205.03177,205.15652,71,100,0
205.03177,205.15652,83,100,0
205.15652,205.28128,69,100,0
205.15652,205.28128,81,100,0
205.28128,205.40604,74,100,0
205.28128,205.40604,86,100,0
205.40604,205.53079,69,100,0
205.40604,205.53079,81,100,0
205.53079,205.65555,67,100,0
205.53079,205.65555,79,100,0
205.65555,205.7803,66,100,0
205.65555,205.7803,78,100,0
205.7803,205.90506,64,100,0
205.7803,205.90506,76,100,0
205.90506,206.02982,62,100,0
205.90506,206.02982,74,100,0
206.02982,206.0922,61,100,0
206.02982,206.0922,73,100,0
206.15457,206.27933,73,100,0
206.15457,206.27933,85,100,0
206.27933,206.40408,69,100,0
206.27933,206.40408,81,100,0
206.40408,206.52884,64,100,0
206.40408,206.52884,76,100,0
206.52884,206.6536,61,100,0
206.52884,206.6536,73,100,0
206.6536,206.77835,76,100,0
206.6536,206.77835,88,100,0
206.77835,206.9031,73,100,0
206.77835,206.9031,85,100,0
206.9031,207.02786,69,100,0
206.9031,207.02786,81,100,0
207.02786,207.15262,68,100,0
207.02786,207.15262,80,100,0
207.15262,207.27737,76,100,0
207.15262,207.27737,88,100,0
207.27737,207.40213,68,100,0
207.27737,207.40213,80,100,0
207.40213,207.52689,78,100,0
207.40213,207.52689,90,100,0
207.52689,207.65164,69,100,0
207.52689,207.65164,81,100,0
207.65164,207.7764,76,100,0
207.65164,207.7764,88,100,0
207.7764,207.90115,71,100,0
207.7764,207.90115,83,100,0
207.90115,208.02591,74,100,0
207.90115,208.02591,86,100,0
208.02591,208.08829,73,100,0
208.02591,208.08829,85,100,0
208.15067,208.27542,81,100,0
208.15067,208.27542,93,100,0
208.27542,208.40018,76,100,0
208.27542,208.40018,88,100,0
208.40018,208.52493,73,100,0
208.40018,208.52493,85,100,0
208.52493,208.64969,71,100,0
208.52493,208.64969,83,100,0
208.64969,208.77446,79,100,0
208.64969,208.77446,91,100,0
208.77446,208.89922,74,100,0
208.77446,208.89922,86,100,0
208.89922,209.02397,71,100,0
208.89922,209.02397,83,100,0
209.02397,209.14873,69,100,0
209.02397,209.14873,81,100,0
209.14873,209.27348,78,100,0
209.14873,209.27348,90,100,0
209.27348,209.39824,74,100,0
209.27348,209.39824,86,100,0
209.39824,209.523,69,100,0
209.39824,209.523,81,100,0
209.523,209.64775,67,100,0
209.523,209.64775,79,100,0
209.64775,209.7725,76,100,0
209.64775,209.7725,88,100,0
209.7725,209.89726,73,100,0
209.7725,209.89726,85,100,0
209.89726,210.02202,67,100,0
209.89726,210.02202,79,100,0
210.02202,210.14677,66,100,0
210.02202,210.14677,78,100,0
210.14677,210.27153,71,100,0
210.14677,210.27153,83,100,0
210.27153,210.39629,69,100,0
210.27153,210.39629,81,100,0
210.39629,210.52104,66,100,0
210.39629,210.52104,78,100,0
210.52104,210.6458,62,100,0
210.52104,210.6458,74,100,0
210.6458,210.77055,76,100,0
210.6458,210.77055,88,100,0
210.77055,210.89531,74,100,0
210.77055,210.89531,86,100,0
210.89531,211.02007,69,100,0
210.89531,211.02007,81,100,0
211.02007,211.14482,66,100,0
211.02007,211.14482,78,100,0
211.14482,211.26958,71,100,0
211.14482,211.26958,83,100,0
211.26958,211.39433,69,100,0
211.26958,211.39433,81,100,0
211.39433,211.51909,66,100,0
211.39433,211.51909,78,100,0
211.51909,211.64384,62,100,0
211.51909,211.64384,74,100,0
211.64384,211.7686,76,100,0
211.64384,211.7686,88,100,0
211.7686,211.89336,74,100,0
211.7686,211.89336,86,100,0
211.89336,212.01811,69,100,0
211.89336,212.01811,81,100,0
212.01811,212.14287,66,100,0
212.01811,212.14287,78,100,0
212.14287,212.26762,78,100,0
212.14287,212.26762,90,100,0
212.26762,212.39238,76,100,0
212.26762,212.39238,88,100,0
212.39238,212.51714,74,100,0
212.39238,212.51714,86,100,0
212.51714,212.64189,73,100,0
212.51714,212.64189,85,100,0
212.64189,212.76665,71,100,0
212.64189,212.76665,83,100,0
212.76665,212.8914,69,100,0
212.76665,212.8914,81,100,0
212.8914,213.01616,68,100,0
212.8914,213.01616,80,100,0
213.01616,213.14091,71,100,0
213.01616,213.14091,83,100,0
213.14091,213.26567,69,100,0
213.14091,213.26567,81,100,0
213.26567,213.39043,74,100,0
213.26567,213.39043,86,100,0
213.39043,213.51518,69,100,0
213.39043,213.51518,81,100,0
213.51518,213.63995,67,100,0
213.51518,213.63995,79,100,0
213.63995,213.76471,66,100,0
213.63995,213.76471,78,100,0
213.76471,213.88947,64,100,0
213.76471,213.88947,76,100,0
213.88947,214.01422,62,100,0
213.88947,214.01422,74,100,0
214.01422,214.0766,61,100,0
214.01422,214.0766,73,100,0
214.13898,214.26373,73,100,0
214.13898,214.26373,85,100,0
214.26373,214.38849,69,100,0
214.26373,214.38849,81,100,0
214.38849,214.51324,64,100,0
214.38849,214.51324,76,100,0
214.51324,214.638,61,100,0
214.51324,214.638,73,100,0
214.638,214.76276,76,100,0
214.638,214.76276,88,100,0
214.76276,214.88751,73,100,0
214.76276,214.88751,85,100,0
214.88751,215.01227,69,100,0
214.88751,215.01227,81,100,0
215.01227,215.13702,68,100,0
215.01227,215.13702,80,100,0
215.13702,215.26178,69,100,0
215.13702,215.26178,81,100,0
215.26178,215.38654,71,100,0
215.26178,215.38654,83,100,0
215.38654,215.51129,73,100,0
215.38654,215.51129,85,100,0
215.51129,215.63605,74,100,0
215.51129,215.63605,86,100,0
215.63605,215.7608,75,100,0
215.63605,215.7608,87,100,0
215.7608,215.88556,78,100,0
215.7608,215.88556,90,100,0
215.88556,216.01031,76,100,0
215.88556,216.01031,88,100,0
216.01031,216.0727,69,100,0
216.01031,216.0727,81,100,0
216.13507,216.25983,81,100,0
216.13507,216.25983,93,100,0
216.25983,216.38458,76,100,0
216.25983,216.38458,88,100,0
216.38458,216.50934,73,100,0
216.38458,216.50934,85,100,0
216.50934,216.6341,69,100,0
216.50934,216.6341,81,100,0
216.6341,216.75885,69,100,0
216.6341,216.75885,81,100,0
216.75885,216.8836,64,100,0
216.75885,216.8836,76,100,0
216.8836,217.00836,61,100,0
216.8836,217.00836,73,100,0
217.00836,217.13312,57,100,0
217.00836,217.13312,69,100,0
217.13312,217.25787,59,100,0
217.13312,217.25787,71,100,0
217.25787,217.38263,60,100,0
217.25787,217.38263,72,100,0
217.38263,217.50739,61,100,0
217.38263,217.50739,73,100,0
217.50739,217.63214,62,100,0
217.50739,217.63214,74,100,0
217.63214,217.7569,63,100,0
217.63214,217.7569,75,100,0
217.7569,217.88165,64,100,0
217.7569,217.88165,76,100,0
217.88165,218.00641,65,100,0
217.88165,218.00641,77,100,0
218.00641,218.13116,67,100,0
218.00641,218.13116,79,100,0
218.13116,218.25592,68,100,0
218.13116,218.25592,80,100,0
218.25592,218.38068,69,100,0
218.25592,218.38068,81,100,0
218.38068,218.50545,68,100,0
218.38068,218.50545,80,100,0
218.50545,218.6302,69,100,0
218.50545,218.6302,81,100,0
218.6302,218.75496,70,100,0
218.6302,218.75496,82,100,0
218.75496,218.87971,71,100,0
218.75496,218.87971,83,100,0
218.87971,219.00447,70,100,0
218.87971,219.00447,82,100,0
219.00447,219.12923,71,100,0
219.00447,219.12923,83,100,0
219.12923,219.25398,76,100,0
219.12923,219.25398,88,100,0
219.25398,219.37874,79,100,0
219.25398,219.37874,91,100,0
219.37874,219.5035,78,100,0
219.37874,219.5035,90,100,0
219.5035,219.62825,79,100,0
219.5035,219.62825,91,100,0
219.62825,219.753,80,100,0
219.62825,219.753,92,100,0
219.753,219.87776,81,100,0
219.753,219.87776,93,100,0
219.87776,220.00252,79,100,0
219.87776,220.00252,91,100,0
220.00252,220.12727,78,100,0
220.00252,220.12727,90,100,0
220.12727,220.25203,81,100,0
220.12727,220.25203,93,100,0
220.25203,220.37679,74,100,0
220.25203,220.37679,86,100,0
220.37679,220.50154,78,100,0
220.37679,220.50154,90,100,0
220.50154,220.6263,83,100,0
220.50154,220.6263,95,100,0
220.6263,220.75105,81,100,0
220.6263,220.75105,93,100,0
220.75105,220.87581,69,100,0
220.75105,220.87581,81,100,0
220.87581,221.00056,74,100,0
220.87581,221.00056,86,100,0
221.00056,221.12532,79,100,0
221.00056,221.12532,91,100,0
221.12532,221.25008,78,100,0
221.12532,221.25008,90,100,0
221.25008,221.37483,66,100,0
221.25008,221.37483,78,100,0
221.37483,221.49959,69,100,0
221.37483,221.49959,81,100,0
221.49959,221.62434,76,100,0
221.49959,221.62434,88,100,0
221.62434,221.7491,74,100,0
221.62434,221.7491,86,100,0
221.7491,221.87386,73,100,0
221.7491,221.87386,85,100,0
221.87386,221.99861,71,100,0
221.87386,221.99861,83,100,0
221.99861,222.12337,69,100,0
221.99861,222.12337,81,100,0
222.12337,222.24812,68,100,0
222.12337,222.24812,80,100,0
222.24812,222.37288,69,100,0
222.24812,222.37288,81,100,0
222.37288,222.49763,68,100,0
222.37288,222.49763,80,100,0
222.49763,222.62239,69,100,0
222.49763,222.62239,81,100,0
222.62239,222.74715,70,100,0
222.62239,222.74715,82,100,0
222.74715,222.8719,71,100,0
222.74715,222.8719,83,100,0
222.8719,222.99666,70,100,0
222.8719,222.99666,82,100,0
222.99666,223.12141,71,100,0
222.99666,223.12141,83,100,0
223.12141,223.24617,76,100,0
223.12141,223.24617,88,100,0
223.24617,223.37094,79,100,0
223.24617,223.37094,91,100,0
223.37094,223.4957,78,100,0
223.37094,223.4957,90,100,0
223.4957,223.62045,79,100,0
223.4957,223.62045,91,100,0
223.62045,223.74521,80,100,0
223.62045,223.74521,92,100,0
223.74521,223.86996,81,100,0
223.74521,223.86996,93,100,0
223.86996,223.99472,79,100,0
223.86996,223.99472,91,100,0
223.99472,224.11948,78,100,0
223.99472,224.11948,90,100,0
224.11948,224.24423,81,100,0
224.11948,224.24423,93,100,0
224.24423,224.36899,74,100,0
224.24423,224.36899,86,100,0
224.36899,224.49374,78,100,0
224.36899,224.49374,90,100,0
224.49374,224.6185,83,100,0
224.49374,224.6185,95,100,0
224.6185,224.74326,81,100,0
224.6185,224.74326,93,100,0
224.74326,224.86801,69,100,0
224.74326,224.86801,81,100,0
224.86801,224.99277,74,100,0
224.86801,224.99277,86,100,0
224.99277,225.11752,79,100,0
224.99277,225.11752,91,100,0
225.11752,225.24228,78,100,0
225.11752,225.24228,90,100,0
225.24228,225.36703,66,100,0
225.24228,225.36703,78,100,0
225.36703,225.49179,69,100,0
225.36703,225.49179,81,100,0
225.49179,225.61655,76,100,0
225.49179,225.61655,88,100,0
225.61655,225.7413,74,100,0
225.61655,225.7413,86,100,0
225.7413,225.86606,73,100,0
225.7413,225.86606,85,100,0
225.86606,225.99081,74,100,0
225.86606,225.99081,86,100,0
225.99081,226.05319,79,100,0
225.99081,226.05319,91,100,0
226.11557,226.24033,74,100,0
226.11557,226.24033,86,100,0
226.24033,226.36508,73,100,0
226.24033,226.36508,85,100,0
226.36508,226.48984,74,100,0
226.36508,226.48984,86,100,0
226.48984,226.6146,83,100,0
226.48984,226.6146,95,100,0
226.6146,226.73935,79,100,0
226.6146,226.73935,91,100,0
226.73935,226.8641,78,100,0
226.73935,226.8641,90,100,0
226.8641,226.98886,79,100,0
226.8641,226.98886,91,100,0
226.98886,227.11362,86,100,0
226.98886,227.11362,98,100,0
227.11362,227.23837,88,100,0
227.11362,227.23837,100,100,0
227.23837,227.36313,85,100,0
227.23837,227.36313,97,100,0
227.36313,227.48788,86,100,0
227.36313,227.48788,98,100,0
227.48788,227.61264,88,100,0
227.48788,227.61264,100,100,0
227.61264,227.7374,86,100,0
227.61264,227.7374,98,100,0
227.7374,227.86215,85,100,0
227.7374,227.86215,97,100,0
227.86215,227.98691,83,100,0
227.86215,227.98691,95,100,0
227.98691,228.11166,81,100,0
227.98691,228.11166,93,100,0
228.11166,228.23643,80,100,0
228.11166,228.23643,92,100,0
228.23643,228.36119,83,100,0
228.23643,228.36119,95,100,0
228.36119,228.48595,80,100,0
228.36119,228.48595,92,100,0
228.48595,228.6107,81,100,0
228.48595,228.6107,93,100,0
228.6107,228.73546,80,100,0
228.6107,228.73546,92,100,0
228.73546,228.86021,83,100,0
228.73546,228.86021,95,100,0
228.86021,228.98497,80,100,0
228.86021,228.98497,92,100,0
228.98497,229.10973,81,100,0
228.98497,229.10973,93,100,0
229.10973,229.23448,80,100,0
229.10973,229.23448,92,100,0
229.23448,229.35924,83,100,0
229.23448,229.35924,95,100,0
229.35924,229.484,80,100,0
229.35924,229.484,92,100,0
229.484,229.60875,86,100,0
229.484,229.60875,98,100,0
229.60875,229.7335,81,100,0
229.60875,229.7335,93,100,0
229.7335,229.85826,78,100,0
229.7335,229.85826,90,100,0
229.85826,229.98302,74,100,0
229.85826,229.98302,86,100,0
229.98302,230.10777,73,100,0
229.98302,230.10777,85,100,0
230.10777,230.23253,79,100,0
230.10777,230.23253,91,100,0
230.23253,230.35728,78,100,0
230.23253,230.35728,90,100,0
230.35728,230.48204,77,100,0
230.35728,230.48204,89,100,0
230.48204,230.6068,76,100,0
230.48204,230.6068,88,100,0
230.6068,230.73155,83,100,0
230.6068,230.73155,95,100,0
230.73155,230.85631,81,100,0
230.73155,230.85631,93,100,0
230.85631,230.98106,80,100,0
230.85631,230.98106,92,100,0
230.98106,231.10582,79,100,0
230.98106,231.10582,91,100,0
231.10582,231.23058,88,100,0
231.10582,231.23058,100,100,0
231.23058,231.35533,86,100,0
231.23058,231.35533,98,100,0
231.35533,231.48009,85,100,0
231.35533,231.48009,97,100,0
231.48009,231.60484,83,100,0
231.48009,231.60484,95,100,0
231.60484,231.7296,82,100,0
231.60484,231.7296,94,100,0
231.7296,231.85435,81,100,0
231.7296,231.85435,93,100,0
231.85435,231.97911,79,100,0
231.85435,231.97911,91,100,0
231.97911,232.10387,78,100,0
231.97911,232.10387,90,100,0
232.10387,232.22862,78,100,0
232.10387,232.22862,90,100,0
232.22862,232.35338,76,100,0
232.22862,232.35338,88,100,0
232.35338,232.47813,74,100,0
232.35338,232.47813,86,100,0
232.47813,232.60289,73,100,0
232.47813,232.60289,85,100,0
232.60289,232.72765,71,100,0
232.60289,232.72765,83,100,0
232.72765,232.8524,69,100,0
232.72765,232.8524,81,100,0
232.8524,232.97716,68,100,0
232.8524,232.97716,80,100,0
232.97716,233.10193,71,100,0
232.97716,233.10193,83,100,0
233.10193,233.22668,69,100,0
233.10193,233.22668,81,100,0
233.22668,233.35144,74,100,0
233.22668,233.35144,86,100,0
233.35144,233.4762,69,100,0
233.35144,233.4762,81,100,0
233.4762,233.60095,67,100,0
233.4762,233.60095,79,100,0
233.60095,233.72571,66,100,0
233.60095,233.72571,78,100,0
233.72571,233.85046,64,100,0
233.72571,233.85046,76,100,0
233.85046,233.97522,62,100,0
233.85046,233.97522,74,100,0
233.97522,234.0376,67,100,0
233.97522,234.0376,79,100,0
234.09998,234.22473,62,100,0
234.09998,234.22473,74,100,0
234.22473,234.34949,61,100,0
234.22473,234.34949,73,100,0
234.34949,234.47424,62,100,0
234.34949,234.47424,74,100,0
234.47424,234.599,71,100,0
234.47424,234.599,83,100,0
234.599,234.72375,67,100,0
234.599,234.72375,79,100,0
234.72375,234.84851,66,100,0
234.72375,234.84851,78,100,0
234.84851,234.97327,67,100,0
234.84851,234.97327,79,100,0
234.97327,235.09802,74,100,0
234.97327,235.09802,86,100,0
235.09802,235.22278,76,100,0
235.09802,235.22278,88,100,0
235.22278,235.34753,73,100,0
235.22278,235.34753,85,100,0
235.34753,235.47229,74,100,0
235.34753,235.47229,86,100,0
235.47229,235.59705,76,100,0
235.47229,235.59705,88,100,0
235.59705,235.7218,74,100,0
235.59705,235.7218,86,100,0
235.7218,235.84656,73,100,0
235.7218,235.84656,85,100,0
235.84656,235.97131,71,100,0
235.84656,235.97131,83,100,0
235.97131,236.09607,69,100,0
235.97131,236.09607,81,100,0
236.09607,236.22083,68,100,0
236.09607,236.22083,80,100,0
236.22083,236.34558,71,100,0
236.22083,236.34558,83,100,0
236.34558,236.47034,68,100,0
236.34558,236.47034,80,100,0
236.47034,236.5951,69,100,0
236.47034,236.5951,81,100,0
236.5951,236.71985,68,100,0
236.5951,236.71985,80,100,0
236.71985,236.8446,71,100,0
236.71985,236.8446,83,100,0
236.8446,236.96936,68,100,0
236.8446,236.96936,80,100,0
236.96936,237.09412,69,100,0
236.96936,237.09412,81,100,0
237.09412,237.21887,68,100,0
237.09412,237.21887,80,100,0
237.21887,237.34363,71,100,0
237.21887,237.34363,83,100,0
237.34363,237.46838,68,100,0
237.34363,237.46838,80,100,0
237.46838,237.59314,74,100,0
237.46838,237.59314,86,100,0
237.59314,237.7179,69,100,0
237.59314,237.7179,81,100,0
237.7179,237.84265,66,100,0
237.7179,237.84265,78,100,0
237.84265,237.96742,62,100,0
237.84265,237.96742,74,100,0
237.96742,238.0298,61,100,0
237.96742,238.0298,73,100,0
238.09218,238.21693,67,100,0
238.09218,238.21693,79,100,0
238.21693,238.34169,66,100,0
238.21693,238.34169,78,100,0
238.34169,238.46645,65,100,0
238.34169,238.46645,77,100,0
238.46645,238.5912,64,100,0
238.46645,238.5912,76,100,0
238.5912,238.71596,71,100,0
238.5912,238.71596,83,100,0
238.71596,238.84071,69,100,0
238.71596,238.84071,81,100,0
238.84071,238.96547,68,100,0
238.84071,238.96547,80,100,0
238.96547,239.09023,67,100,0
238.96547,239.09023,79,100,0
239.09023,239.21498,79,100,0
239.09023,239.21498,91,100,0
239.21498,239.33974,76,100,0
239.21498,239.33974,88,100,0
239.33974,239.4645,73,100,0
239.33974,239.4645,85,100,0
239.4645,239.58925,69,100,0
239.4645,239.58925,81,100,0
239.58925,239.714,68,100,0
239.58925,239.714,80,100,0
239.714,239.83876,67,100,0
239.714,239.83876,79,100,0
239.83876,239.96352,64,100,0
239.83876,239.96352,76,100,0
239.96352,240.08827,62,100,0
239.96352,240.08827,74,100,0
240.08827,240.21303,65,100,0
240.08827,240.21303,77,100,0
240.21303,240.33778,66,100,0
240.21303,240.33778,78,100,0
240.33778,240.46254,61,100,0
240.33778,240.46254,73,100,0
240.46254,240.5873,62,100,0
240.46254,240.5873,74,100,0
240.5873,240.71205,56,100,0
240.5873,240.71205,68,100,0
240.71205,240.8368,57,100,0
240.71205,240.8368,69,100,0
240.8368,240.96156,54,100,0
240.8368,240.96156,66,100,0
240.96156,241.08632,50,100,0
240.96156,241.08632,62,100,0
242.45863,242.70815,81,110,0
242.45863,242.70815,57,110,0
242.45863,242.70815,45,110,0
242.95767,243.12401,86,110,0
242.95767,243.12401,81,110,0
242.95767,243.12401,77,110,0
242.95767,243.12401,74,110,0
242.95767,243.12401,50,110,0
242.95767,243.12401,45,110,0
242.95767,243.12401,38,110,0
243.12401,243.29034,86,110,0
243.12401,243.29034,81,110,0
243.12401,243.29034,77,110,0
243.12401,243.29034,74,110,0
243.12401,243.29034,50,110,0
243.12401,243.29034,45,110,0
243.12401,243.29034,38,110,0
243.29034,243.4567,86,110,0
243.29034,243.4567,81,110,0
243.29034,243.4567,77,110,0
243.29034,243.4567,74,110,0
243.29034,243.4567,50,110,0
243.29034,243.4567,45,110,0
243.29034,243.4567,38,110,0
243.4567,243.62303,86,110,0
243.4567,243.62303,81,110,0
243.4567,243.62303,77,110,0
243.4567,243.62303,74,110,0
243.4567,243.62303,50,110,0
243.4567,243.62303,45,110,0
243.4567,243.62303,38,110,0
243.62303,243.78937,86,110,0
243.62303,243.78937,81,110,0
243.62303,243.78937,77,110,0
243.62303,243.78937,74,110,0
243.62303,243.78937,50,110,0
243.62303,243.78937,45,110,0
243.62303,243.78937,38,110,0
243.78937,243.95572,86,110,0
243.78937,243.95572,81,110,0
243.78937,243.95572,77,110,0
243.78937,243.95572,74,110,0
243.78937,243.95572,50,110,0
243.78937,243.95572,45,110,0
243.78937,243.95572,38,110,0
243.95572,244.45474,86,110,0
243.95572,244.45474,81,110,0
243.95572,244.45474,77,110,0
243.95572,244.45474,74,110,0
243.95572,244.45474,50,110,0
243.95572,244.45474,45,110,0
243.95572,244.45474,38,110,0
244.95377,245.1201,86,110,0
244.95377,245.1201,81,110,0
244.95377,245.1201,77,110,0
244.95377,245.1201,74,110,0
244.95377,245.1201,50,110,0
244.95377,245.1201,45,110,0
244.95377,245.1201,38,110,0
245.1201,245.28645,86,110,0
245.1201,245.28645,81,110,0
245.1201,245.28645,77,110,0
245.1201,245.28645,74,110,0
245.1201,245.28645,50,110,0
245.1201,245.28645,45,110,0
245.1201,245.28645,38,110,0
245.28645,245.45279,86,110,0
245.28645,245.45279,81,110,0
245.28645,245.45279,77,110,0
245.28645,245.45279,74,110,0
245.28645,245.45279,50,110,0
245.28645,245.45279,45,110,0
245.28645,245.45279,38,110,0
245.45279,245.61913,86,110,0
245.45279,245.61913,81,110,0
245.45279,245.61913,77,110,0
245.45279,245.61913,74,110,0
245.45279,245.61913,50,110,0
245.45279,245.61913,45,110,0
245.45279,245.61913,38,110,0
245.61913,245.78548,86,110,0
245.61913,245.78548,81,110,0
245.61913,245.78548,77,110,0
245.61913,245.78548,74,110,0
245.61913,245.78548,50,110,0
245.61913,245.78548,45,110,0
245.61913,245.78548,38,110,0
245.78548,245.95181,86,110,0
245.78548,245.95181,81,110,0
245.78548,245.95181,77,110,0
245.78548,245.95181,74,110,0
245.78548,245.95181,50,110,0
245.78548,245.95181,45,110,0
245.78548,245.95181,38,110,0
245.95181,246.45084,86,110,0
245.95181,246.45084,81,110,0
245.95181,246.45084,77,110,0
245.95181,246.45084,74,110,0
245.95181,246.45084,50,110,0
245.95181,246.45084,45,110,0
245.95181,246.45084,38,110,0
246.94986,247.19937,45,110,0
246.94986,247.19937,33,110,0
246.94986,247.19937,91,110,0
246.94986,247.19937,88,110,0
246.94986,247.19937,85,110,0
246.94986,247.19937,82,110,0
246.94986,247.19937,79,110,0
247.44888,247.69841,45,110,0
247.44888,247.69841,33,110,0
247.44888,247.69841,89,110,0
247.44888,247.69841,77,110,0
247.44888,247.69841,81,110,0
247.44888,247.69841,86,110,0
247.94792,248.19743,45,110,0
247.94792,248.19743,33,110,0
247.94792,248.19743,88,110,0
247.94792,248.19743,85,110,0
247.94792,248.19743,79,110,0
247.94792,248.19743,76,110,0
248.44695,248.69646,45,110,0
248.44695,248.69646,33,110,0
248.44695,248.69646,86,110,0
248.44695,248.69646,74,110,0
248.44695,248.69646,83,110,0
248.44695,248.69646,77,110,0
248.94597,249.1123,85,110,0
248.94597,249.1123,81,110,0
248.94597,249.1123,76,110,0
248.94597,249.1123,73,110,0
248.94597,249.1123,33,110,0
249.1123,249.27864,81,110,0
249.1123,249.27864,76,110,0
249.1123,249.27864,73,110,0
249.1123,249.27864,69,110,0
249.1123,249.27864,37,110,0
249.27864,249.44499,81,110,0
249.27864,249.44499,76,110,0
249.27864,249.44499,73,110,0
249.27864,249.44499,69,110,0
249.27864,249.44499,40,110,0
249.44499,249.61133,81,110,0
249.44499,249.61133,76,110,0
249.44499,249.61133,73,110,0
249.44499,249.61133,69,110,0
249.44499,249.61133,45,110,0
249.61133,249.77768,81,110,0
249.61133,249.77768,76,110,0
249.61133,249.77768,73,110,0
249.61133,249.77768,69,110,0
249.61133,249.77768,49,110,0
249.77768,249.94402,81,110,0
249.77768,249.94402,76,110,0
249.77768,249.94402,73,110,0
249.77768,249.94402,69,110,0
249.77768,249.94402,52,110,0
249.94402,250.44304,57,110,0
249.94402,250.44304,73,110,0
249.94402,250.44304,81,110,0
249.94402,250.44304,76,110,0
249.94402,250.44304,69,110,0
250.44304,250.94206,72,54,0
250.44304,250.94206,60,54,0
250.94206,251.10841,60,54,0
250.94206,251.10841,53,54,0
250.94206,251.10841,69,54,0
250.94206,251.10841,77,54,0
251.10841,251.27475,60,54,0
251.10841,251.27475,53,54,0
251.10841,251.27475,69,54,0
251.10841,251.27475,77,54,0
251.27475,251.44109,60,54,0
251.27475,251.44109,53,54,0
251.27475,251.44109,69,54,0
251.27475,251.44109,77,54,0
251.44109,251.60744,60,54,0
251.44109,251.60744,53,54,0
251.44109,251.60744,69,54,0
251.44109,251.60744,77,54,0
251.60744,251.77377,60,54,0
251.60744,251.77377,53,54,0
251.60744,251.77377,69,54,0
251.60744,251.77377,77,54,0
251.77377,251.94011,60,54,0
251.77377,251.94011,53,54,0
251.77377,251.94011,69,54,0
251.77377,251.94011,77,54,0
251.94011,252.43913,77,54,0
251.94011,252.43913,69,54,0
251.94011,252.43913,60,54,0
251.94011,252.43913,53,54,0
252.93817,253.1045,60,54,0
252.93817,253.1045,53,54,0
252.93817,253.1045,69,54,0
252.93817,253.1045,77,54,0
253.1045,253.27084,60,54,0
253.1045,253.27084,53,54,0
253.1045,253.27084,69,54,0
253.1045,253.27084,77,54,0
253.27084,253.4372,60,54,0
253.27084,253.4372,53,54,0
253.27084,253.4372,69,54,0
253.27084,253.4372,77,54,0
253.4372,253.60353,60,54,0
253.4372,253.60353,53,54,0
253.4372,253.60353,69,54,0
253.4372,253.60353,77,54,0
253.60353,253.76987,60,54,0
253.60353,253.76987,53,54,0
253.60353,253.76987,69,54,0
253.60353,253.76987,77,54,0
253.76987,253.93622,60,54,0
253.76987,253.93622,53,54,0
253.76987,253.93622,69,54,0
253.76987,253.93622,77,54,0
253.93622,254.43524,77,54,0
253.93622,254.43524,69,54,0
253.93622,254.43524,60,54,0
253.93622,254.43524,53,54,0
255.1006,255.26695,84,54,0
254.93427,255.26695,72,54,0
255.26695,255.43329,72,54,0
254.93427,255.43329,69,54,0
255.43329,255.59962,74,54,0
255.59962,255.76598,86,54,0
255.76598,255.93231,74,54,0
255.43329,255.93231,68,54,0
255.43329,255.93231,71,54,0
255.93231,256.09866,76,54,0
256.09866,256.26498,88,54,0
256.26498,256.43134,76,54,0
255.93231,256.43134,67,54,0
255.93231,256.43134,70,54,0
256.43134,256.5977,79,54,0
256.5977,256.76404,91,54,0
256.76404,256.86798,79,54,0
254.93427,256.93036,60,54,0
256.43134,256.93036,70,54,0
256.43134,256.93036,64,54,0
256.86798,256.93036,81,54,0
256.93036,257.0967,93,54,0
257.0967,257.26306,89,54,0
256.93036,257.42938,65,54,0
256.93036,257.42938,69,54,0
257.26306,257.42938,84,54,0
257.42938,257.59573,83,54,0
257.42938,257.6789,72,54,0
257.59573,257.7621,82,54,0
257.42938,257.9284,60,54,0
257.42938,257.9284,64,54,0
257.6789,257.9284,70,54,0
257.7621,257.9284,79,54,0
257.9284,258.42743,77,54,0
257.9284,258.42743,69,54,0
257.9284,258.42743,65,54,0
258.42743,258.67694,81,110,0
258.42743,258.67694,57,110,0
258.42743,258.67694,45,110,0
258.92645,259.0928,86,110,0
258.92645,259.0928,81,110,0
258.92645,259.0928,77,110,0
258.92645,259.0928,74,110,0
258.92645,259.0928,50,110,0
258.92645,259.0928,45,110,0
258.92645,259.0928,38,110,0
259.0928,259.25916,86,110,0
259.0928,259.25916,81,110,0
259.0928,259.25916,77,110,0
259.0928,259.25916,74,110,0
259.0928,259.25916,50,110,0
259.0928,259.25916,45,110,0
259.0928,259.25916,38,110,0
259.25916,259.42548,86,110,0
259.25916,259.42548,81,110,0
259.25916,259.42548,77,110,0
259.25916,259.42548,74,110,0
259.25916,259.42548,50,110,0
259.25916,259.42548,45,110,0
259.25916,259.42548,38,110,0
259.42548,259.59183,86,110,0
259.42548,259.59183,81,110,0
259.42548,259.59183,77,110,0
259.42548,259.59183,74,110,0
259.42548,259.59183,50,110,0
259.42548,259.59183,45,110,0
259.42548,259.59183,38,110,0
259.59183,259.75818,86,110,0
259.59183,259.75818,81,110,0
259.59183,259.75818,77,110,0
259.59183,259.75818,74,110,0
259.59183,259.75818,50,110,0
259.59183,259.75818,45,110,0
259.59183,259.75818,38,110,0
259.75818,259.92453,86,110,0
259.75818,259.92453,81,110,0
259.75818,259.92453,77,110,0
259.75818,259.92453,74,110,0
259.75818,259.92453,50,110,0
259.75818,259.92453,45,110,0
259.75818,259.92453,38,110,0
259.92453,260.42355,86,110,0
259.92453,260.42355,81,110,0
259.92453,260.42355,77,110,0
259.92453,260.42355,74,110,0
259.92453,260.42355,50,110,0
259.92453,260.42355,45,110,0
259.92453,260.42355,38,110,0
260.92258,261.0889,86,110,0
260.92258,261.0889,81,110,0
260.92258,261.0889,77,110,0
260.92258,261.0889,74,110,0
260.92258,261.0889,50,110,0
260.92258,261.0889,45,110,0
260.92258,261.0889,38,110,0
261.0889,261.25525,86,110,0
261.0889,261.25525,81,110,0
261.0889,261.25525,77,110,0
261.0889,261.25525,74,110,0
261.0889,261.25525,50,110,0
261.0889,261.25525,45,110,0
261.0889,261.25525,38,110,0
261.25525,261.4216,86,110,0
261.25525,261.4216,81,110,0
261.25525,261.4216,77,110,0
261.25525,261.4216,74,110,0
261.25525,261.4216,50,110,0
261.25525,261.4216,45,110,0
261.25525,261.4216,38,110,0
261.4216,261.58792,86,110,0
261.4216,261.58792,81,110,0
261.4216,261.58792,77,110,0
261.4216,261.58792,74,110,0
261.4216,261.58792,50,110,0
261.4216,261.58792,45,110,0
261.4216,261.58792,38,110,0
261.58792,261.75427,86,110,0
261.58792,261.75427,81,110,0
261.58792,261.75427,77,110,0
261.58792,261.75427,74,110,0
261.58792,261.75427,50,110,0
261.58792,261.75427,45,110,0
261.58792,261.75427,38,110,0
261.75427,261.92062,86,110,0
261.75427,261.92062,81,110,0
261.75427,261.92062,77,110,0
261.75427,261.92062,74,110,0
261.75427,261.92062,50,110,0
261.75427,261.92062,45,110,0
261.75427,261.92062,38,110,0
261.92062,262.41965,86,110,0
261.92062,262.41965,81,110,0
261.92062,262.41965,77,110,0
261.92062,262.41965,74,110,0
261.92062,262.41965,50,110,0
261.92062,262.41965,45,110,0
261.92062,262.41965,38,110,0
262.91867,263.16818,45,110,0
262.91867,263.16818,33,110,0
262.91867,263.16818,91,110,0
262.91867,263.16818,88,110,0
262.91867,263.16818,85,110,0
262.91867,263.16818,82,110,0
262.91867,263.16818,79,110,0
263.4177,263.6672,45,110,0
263.4177,263.6672,33,110,0
263.4177,263.6672,89,110,0
263.4177,263.6672,77,110,0
263.4177,263.6672,81,110,0
263.4177,263.6672,86,110,0
263.91672,264.16623,45,110,0
263.91672,264.16623,33,110,0
263.91672,264.16623,88,110,0
263.91672,264.16623,85,110,0
263.91672,264.16623,79,110,0
263.91672,264.16623,76,110,0
264.41574,264.66525,45,110,0
264.41574,264.66525,33,110,0
264.41574,264.66525,86,110,0
264.41574,264.66525,74,110,0
264.41574,264.66525,83,110,0
264.41574,264.66525,77,110,0
264.91476,265.08112,85,110,0
264.91476,265.08112,81,110,0
264.91476,265.08112,76,110,0
264.91476,265.08112,73,110,0
264.91476,265.08112,33,110,0
265.08112,265.24744,81,110,0
265.08112,265.24744,76,110,0
265.08112,265.24744,73,110,0
265.08112,265.24744,69,110,0
265.08112,265.24744,37,110,0
265.24744,265.4138,81,110,0
265.24744,265.4138,76,110,0
265.24744,265.4138,73,110,0
265.24744,265.4138,69,110,0
265.24744,265.4138,40,110,0
265.4138,265.58014,81,110,0
265.4138,265.58014,76,110,0
265.4138,265.58014,73,110,0
265.4138,265.58014,69,110,0
265.4138,265.58014,45,110,0
265.58014,265.74646,81,110,0
265.58014,265.74646,76,110,0
265.58014,265.74646,73,110,0
265.58014,265.74646,69,110,0
265.58014,265.74646,49,110,0
265.74646,265.9128,81,110,0
265.74646,265.9128,76,110,0
265.74646,265.9128,73,110,0
265.74646,265.9128,69,110,0
265.74646,265.9128,52,110,0
265.9128,266.41183,57,110,0
265.9128,266.41183,73,110,0
265.9128,266.41183,81,110,0
265.9128,266.41183,76,110,0
265.9128,266.41183,69,110,0
266.41183,266.91086,72,54,0
266.41183,266.91086,60,54,0
266.91086,267.0772,60,54,0
266.91086,267.0772,53,54,0
266.91086,267.0772,69,54,0
266.91086,267.0772,77,54,0
267.0772,267.24356,60,54,0
267.0772,267.24356,53,54,0
267.0772,267.24356,69,54,0
267.0772,267.24356,77,54,0
267.24356,267.40988,60,54,0
267.24356,267.40988,53,54,0
267.24356,267.40988,69,54,0
267.24356,267.40988,77,54,0
267.40988,267.57623,60,54,0
267.40988,267.57623,53,54,0
267.40988,267.57623,69,54,0
267.40988,267.57623,77,54,0
267.57623,267.74258,60,54,0
267.57623,267.74258,53,54,0
267.57623,267.74258,69,54,0
267.57623,267.74258,77,54,0
267.74258,267.9089,60,54,0
267.74258,267.9089,53,54,0
267.74258,267.9089,69,54,0
267.74258,267.9089,77,54,0
267.9089,268.40793,77,54,0
267.9089,268.40793,69,54,0
267.9089,268.40793,60,54,0
267.9089,268.40793,53,54,0
268.90695,269.0733,60,54,0
268.90695,269.0733,53,54,0
268.90695,269.0733,69,54,0
268.90695,269.0733,77,54,0
269.0733,269.23965,60,54,0
269.0733,269.23965,53,54,0
269.0733,269.23965,69,54,0
269.0733,269.23965,77,54,0
269.23965,269.40598,60,54,0
269.23965,269.40598,53,54,0
269.23965,269.40598,69,54,0
269.23965,269.40598,77,54,0
269.40598,269.57233,60,54,0
269.40598,269.57233,53,54,0
269.40598,269.57233,69,54,0
269.40598,269.57233,77,54,0
269.57233,269.73868,60,54,0
269.57233,269.73868,53,54,0
269.57233,269.73868,69,54,0
269.57233,269.73868,77,54,0
269.73868,269.90503,60,54,0
269.73868,269.90503,53,54,0
269.73868,269.90503,69,54,0
269.73868,269.90503,77,54,0
269.90503,270.40405,77,54,0
269.90503,270.40405,69,54,0
269.90503,270.40405,60,54,0
269.90503,270.40405,53,54,0
271.0694,271.23575,84,54,0
270.90308,271.23575,72,54,0
271.23575,271.4021,72,54,0
270.90308,271.4021,69,54,0
271.4021,271.56842,74,54,0
271.56842,271.73477,86,54,0
271.73477,271.90112,74,54,0
271.4021,271.90112,68,54,0
271.4021,271.90112,71,54,0
271.90112,272.06744,76,54,0
272.06744,272.2338,88,54,0
272.2338,272.40015,76,54,0
271.90112,272.40015,67,54,0
271.90112,272.40015,70,54,0
272.40015,272.56647,79,54,0
272.56647,272.73282,91,54,0
272.73282,272.8368,79,54,0
270.90308,272.89917,60,54,0
272.40015,272.89917,70,54,0
272.40015,272.89917,64,54,0
272.8368,272.89917,81,54,0
272.89917,273.06552,93,54,0
273.06552,273.23184,89,54,0
272.89917,273.3982,65,54,0
272.89917,273.3982,69,54,0
273.23184,273.3982,84,54,0
273.3982,273.56454,83,54,0
273.3982,273.6477,72,54,0
273.56454,273.73087,82,54,0
273.3982,273.89722,60,54,0
273.3982,273.89722,64,54,0
273.6477,273.89722,70,54,0
273.73087,273.89722,79,54,0
273.89722,274.39624,77,54,0
273.89722,274.39624,69,54,0
273.89722,274.39624,65,54,0
274.39624,274.45862,60,54,0
274.39624,274.45862,72,54,0
274.45862,274.521,62,54,0
274.45862,274.521,74,54,0
274.521,274.58337,60,54,0
274.521,274.58337,72,54,0
274.58337,274.64575,62,54,0
274.58337,274.64575,74,54,0
274.64575,274.70813,60,54,0
274.64575,274.70813,72,54,0
274.70813,274.7705,62,54,0
274.70813,274.7705,74,54,0
274.7705,274.8329,59,54,0
274.7705,274.8329,71,54,0
274.8329,274.89526,60,54,0
274.8329,274.89526,72,54,0
274.89526,274.97842,70,54,0
274.89526,274.97842,82,54,0
275.0616,275.14478,69,54,0
275.0616,275.14478,81,54,0
275.22794,275.31113,67,54,0
275.22794,275.31113,79,54,0
275.3943,275.47745,65,54,0
275.3943,275.47745,77,54,0
275.56064,275.6438,64,54,0
275.56064,275.6438,76,54,0
275.72696,275.81015,62,54,0
275.72696,275.81015,74,54,0
275.8933,276.39233,60,54,0
275.8933,276.39233,72,54,0
276.39233,276.4547,64,54,0
276.39233,276.4547,76,54,0
276.4547,276.5171,65,54,0
276.4547,276.5171,77,54,0
276.5171,276.57947,64,54,0
276.5171,276.57947,76,54,0
276.57947,276.64185,65,54,0
276.57947,276.64185,77,54,0
276.64185,276.70422,64,54,0
276.64185,276.70422,76,54,0
276.70422,276.7666,65,54,0
276.70422,276.7666,77,54,0
276.7666,276.82898,62,54,0
276.7666,276.82898,74,54,0
276.82898,276.89136,64,54,0
276.82898,276.89136,76,54,0
276.89136,276.97455,65,54,0
276.89136,276.97455,77,54,0
277.0577,277.14087,67,54,0
277.0577,277.14087,79,54,0
277.22406,277.30722,64,54,0
277.22406,277.30722,76,54,0
277.39038,277.47357,65,54,0
277.39038,277.47357,77,54,0
277.55673,277.6399,69,54,0
277.55673,277.6399,81,54,0
277.72308,277.80624,74,54,0
277.72308,277.80624,86,54,0
277.8894,278.38843,72,54,0
277.8894,278.38843,84,54,0
278.38843,278.4508,69,54,0
278.38843,278.4508,81,54,0
278.4508,278.51318,70,54,0
278.4508,278.51318,82,54,0
278.51318,278.57556,69,54,0
278.51318,278.57556,81,54,0
278.57556,278.63794,70,54,0
278.57556,278.63794,82,54,0
278.63794,278.70032,69,54,0
278.63794,278.70032,81,54,0
278.70032,278.7627,70,54,0
278.70032,278.7627,82,54,0
278.7627,278.82507,67,54,0
278.7627,278.82507,79,54,0
278.82507,278.88745,69,54,0
278.82507,278.88745,81,54,0
278.88745,279.0538,72,54,0
278.88745,279.0538,84,54,0
279.0538,279.22015,70,54,0
279.0538,279.22015,82,54,0
279.22015,279.3033,69,54,0
279.22015,279.3033,81,54,0
279.3865,279.55283,67,54,0
279.3865,279.55283,79,54,0
279.55283,279.71918,69,54,0
279.55283,279.71918,81,54,0
279.71918,279.80234,65,54,0
279.71918,279.80234,77,54,0
279.88553,280.38455,64,54,0
279.88553,280.38455,76,54,0
280.38455,280.44693,57,54,0
280.38455,280.44693,69,54,0
280.44693,280.5093,58,54,0
280.44693,280.5093,70,54,0
280.5093,280.5717,57,54,0
280.5093,280.5717,69,54,0
280.5717,280.63406,58,54,0
280.5717,280.63406,70,54,0
280.63406,280.69644,57,54,0
280.63406,280.69644,69,54,0
280.69644,280.75882,58,54,0
280.69644,280.75882,70,54,0
280.75882,280.8212,55,54,0
280.75882,280.8212,67,54,0
280.8212,280.88358,57,54,0
280.8212,280.88358,69,54,0
280.88358,281.0499,57,54,0
280.88358,281.0499,69,54,0
281.0499,281.21625,60,54,0
281.0499,281.21625,72,54,0
281.21625,281.2994,62,54,0
281.21625,281.2994,74,54,0
281.3826,281.54892,64,54,0
281.3826,281.54892,76,54,0
281.54892,281.71527,65,54,0
281.54892,281.71527,77,54,0
281.71527,281.79843,67,54,0
281.71527,281.79843,79,54,0
281.88162,282.38065,69,54,0
281.88162,282.38065,81,54,0
283.12918,283.25394,77,54,0
283.12918,283.25394,86,54,0
283.12918,283.25394,74,54,0
283.12918,283.25394,70,54,0
283.3787,283.50345,86,60,0
283.3787,283.50345,77,60,0
283.3787,283.50345,74,60,0
283.3787,283.50345,70,60,0
283.6282,283.75296,86,63,0
283.6282,283.75296,77,63,0
283.6282,283.75296,74,63,0
283.6282,283.75296,70,63,0
284.12723,284.25198,69,72,0
284.12723,284.25198,72,72,0
284.12723,284.25198,78,72,0
284.12723,284.25198,87,72,0
284.37674,284.5015,72,71,0
284.37674,284.5015,69,71,0
284.37674,284.5015,78,71,0
284.37674,284.5015,87,71,0
284.62625,284.751,72,68,0
284.62625,284.751,69,68,0
284.62625,284.751,78,68,0
284.62625,284.751,87,68,0
285.12527,285.25003,86,64,0
285.12527,285.25003,79,64,0
285.12527,285.25003,70,64,0
285.12527,285.25003,67,64,0
285.3748,285.49954,86,64,0
285.3748,285.49954,79,64,0
285.3748,285.49954,70,64,0
285.3748,285.49954,67,64,0
285.6243,285.74905,86,64,0
285.6243,285.74905,79,64,0
285.6243,285.74905,70,64,0
285.6243,285.74905,67,64,0
286.12332,286.24808,82,64,0
286.12332,286.24808,74,64,0
286.12332,286.24808,70,64,0
286.12332,286.24808,67,64,0
286.12332,286.24808,62,64,0
286.12332,286.24808,55,64,0
286.37283,286.4976,81,60,0
286.37283,286.4976,74,60,0
286.37283,286.4976,72,60,0
286.37283,286.4976,66,60,0
286.37283,286.4976,62,60,0
286.37283,286.4976,57,60,0
286.62234,286.7471,79,57,0
286.62234,286.7471,74,57,0
286.62234,286.7471,70,57,0
286.62234,286.7471,67,57,0
286.62234,286.7471,62,57,0
286.62234,286.7471,58,57,0
287.12137,287.24612,77,54,0
287.12137,287.24612,74,54,0
287.12137,287.24612,69,54,0
287.12137,287.24612,65,54,0
287.12137,287.24612,62,54,0
287.12137,287.24612,57,54,0
287.37088,287.49564,77,54,0
287.37088,287.49564,74,54,0
287.37088,287.49564,69,54,0
287.37088,287.49564,65,54,0
287.37088,287.49564,62,54,0
287.37088,287.49564,57,54,0
287.6204,287.74515,77,54,0
287.6204,287.74515,74,54,0
287.6204,287.74515,69,54,0
287.6204,287.74515,65,54,0
287.6204,287.74515,62,54,0
287.6204,287.74515,57,54,0
288.11942,288.24417,57,54,0
288.11942,288.24417,64,54,0
288.11942,288.24417,67,54,0
288.11942,288.24417,73,54,0
288.36893,288.49368,57,54,0
288.36893,288.49368,64,54,0
288.36893,288.49368,67,54,0
288.36893,288.49368,73,54,0
288.61844,288.7432,57,54,0
288.61844,288.7432,64,54,0
288.61844,288.7432,67,54,0
288.61844,288.7432,73,54,0
289.1175,289.24225,74,54,0
289.1175,289.24225,65,54,0
289.1175,289.24225,62,54,0
289.1175,289.24225,57,54,0
289.1175,289.24225,50,54,0
289.367,289.49176,74,54,0
289.367,289.49176,65,54,0
289.367,289.49176,62,54,0
289.367,289.49176,57,54,0
289.367,289.49176,50,54,0
289.61652,289.74127,74,54,0
289.61652,289.74127,65,54,0
289.61652,289.74127,62,54,0
289.61652,289.74127,57,54,0
289.61652,289.74127,50,54,0
290.11554,290.2403,75,54,0
290.11554,290.2403,65,54,0
290.11554,290.2403,69,54,0
290.11554,290.2403,60,54,0
290.11554,290.2403,53,54,0
290.11554,290.2403,48,54,0
290.36505,290.4898,75,56,0
290.36505,290.4898,65,56,0
290.36505,290.4898,69,56,0
290.36505,290.4898,60,56,0
290.36505,290.4898,53,56,0
290.36505,290.4898,48,56,0
290.61456,290.73932,75,59,0
290.61456,290.73932,65,59,0
290.61456,290.73932,69,59,0
290.61456,290.73932,60,59,0
290.61456,290.73932,53,59,0
290.61456,290.73932,48,59,0
291.1136,291.23834,65,64,0
291.1136,291.23834,70,64,0
291.1136,291.23834,74,64,0
291.1136,291.23834,58,64,0
291.1136,291.23834,53,64,0
291.1136,291.23834,46,64,0
291.3631,291.48785,65,66,0
291.3631,291.48785,70,66,0
291.3631,291.48785,74,66,0
291.3631,291.48785,58,66,0
291.3631,291.48785,53,66,0
291.3631,291.48785,46,66,0
291.6126,291.73737,65,68,0
291.6126,291.73737,70,68,0
291.6126,291.73737,74,68,0
291.6126,291.73737,58,68,0
291.6126,291.73737,53,68,0
291.6126,291.73737,46,68,0
292.11163,292.2364,57,73,0
292.11163,292.2364,60,73,0
292.11163,292.2364,66,73,0
292.11163,292.2364,75,73,0
292.36115,292.4859,57,73,0
292.36115,292.4859,60,73,0
292.36115,292.4859,66,73,0
292.36115,292.4859,75,73,0
292.61066,292.7354,57,68,0
292.61066,292.7354,60,68,0
292.61066,292.7354,66,68,0
292.61066,292.7354,75,68,0
293.10968,293.23444,58,64,0
293.10968,293.23444,62,64,0
293.10968,293.23444,67,64,0
293.10968,293.23444,74,64,0
293.3592,293.48395,58,64,0
293.3592,293.48395,62,64,0
293.3592,293.48395,67,64,0
293.3592,293.48395,74,64,0
293.6087,293.73346,58,64,0
293.6087,293.73346,62,64,0
293.6087,293.73346,67,64,0
293.6087,293.73346,74,64,0
294.10773,294.23248,70,64,0
294.10773,294.23248,62,64,0
294.10773,294.23248,58,64,0
294.10773,294.23248,55,64,0
294.10773,294.23248,50,64,0
294.10773,294.23248,43,64,0
294.35724,294.482,69,60,0
294.35724,294.482,62,60,0
294.35724,294.482,60,60,0
294.35724,294.482,54,60,0
294.35724,294.482,50,60,0
294.35724,294.482,45,60,0
294.60675,294.7315,67,58,0
294.60675,294.7315,62,58,0
294.60675,294.7315,58,58,0
294.60675,294.7315,55,58,0
294.60675,294.7315,50,58,0
294.60675,294.7315,46,58,0
295.10577,295.23053,50,54,0
295.10577,295.23053,53,54,0
295.10577,295.23053,45,54,0
295.10577,295.23053,62,54,0
295.10577,295.23053,65,54,0
295.10577,295.23053,57,54,0
295.3553,295.48004,50,54,0
295.3553,295.48004,53,54,0
295.3553,295.48004,45,54,0
295.3553,295.48004,62,54,0
295.3553,295.48004,65,54,0
295.3553,295.48004,57,54,0
295.6048,295.72955,50,54,0
295.6048,295.72955,53,54,0
295.6048,295.72955,45,54,0
295.6048,295.72955,62,54,0
295.6048,295.72955,65,54,0
295.6048,295.72955,57,54,0
296.10382,296.22858,61,54,0
296.10382,296.22858,57,54,0
296.10382,296.22858,55,54,0
296.10382,296.22858,52,54,0
296.10382,296.22858,45,54,0
296.35333,296.4781,61,54,0
296.35333,296.4781,55,54,0
296.35333,296.4781,57,54,0
296.35333,296.4781,52,54,0
296.35333,296.4781,45,54,0
296.60284,296.7276,61,54,0
296.60284,296.7276,57,54,0
296.60284,296.7276,55,54,0
296.60284,296.7276,52,54,0
296.60284,296.7276,45,54,0
297.10187,297.22662,38,54,0
297.10187,297.22662,50,54,0
297.10187,297.22662,57,54,0
297.10187,297.22662,62,54,0
297.10187,297.22662,53,54,0
297.35138,297.47614,38,54,0
297.35138,297.47614,50,54,0
297.35138,297.47614,57,54,0
297.35138,297.47614,62,54,0
297.35138,297.47614,53,54,0
297.6009,297.72565,38,54,0
297.6009,297.72565,50,54,0
297.6009,297.72565,57,54,0
297.6009,297.72565,62,54,0
297.6009,297.72565,53,54,0
297.8504,298.34943,62,54,0
297.8504,298.34943,57,54,0
297.8504,298.34943,53,54,0
297.8504,298.34943,50,54,0
297.8504,298.34943,38,54,0
309.53888,310.47458,70,64,0
309.53888,310.47458,82,64,0
310.47458,310.60825,70,64,0
310.47458,310.60825,82,64,0
310.60825,311.5439,73,64,0
310.60825,311.5439,85,64,0
311.5439,311.67758,73,64,0
311.5439,311.67758,85,64,0
311.67758,312.74692,80,73,0
311.67758,312.74692,92,73,0
312.74692,312.92514,81,64,0
312.74692,312.92514,93,64,0
312.92514,313.10336,84,64,0
312.92514,313.10336,96,64,0
313.10336,313.2816,82,64,0
313.10336,313.2816,94,64,0
313.2816,313.4598,81,64,0
313.2816,313.4598,93,64,0
313.4598,313.63803,79,64,0
313.4598,313.63803,91,64,0
313.63803,313.81625,77,64,0
313.63803,313.81625,89,64,0
313.81625,313.99448,76,64,0
313.81625,313.99448,88,64,0
313.99448,314.1727,74,64,0
313.99448,314.1727,86,64,0
314.1727,314.35092,72,64,0
314.1727,314.35092,84,64,0
314.35092,314.52914,71,64,0
314.35092,314.52914,83,64,0
314.52914,314.70737,74,64,0
314.52914,314.70737,86,64,0
314.70737,314.8856,72,64,0
314.70737,314.8856,84,64,0
314.8856,315.42026,65,64,0
314.8856,315.42026,77,64,0
326.64835,327.584,70,64,0
326.64835,327.584,82,64,0
327.584,327.71768,70,64,0
327.584,327.71768,82,64,0
327.71768,328.65335,73,64,0
327.71768,328.65335,85,64,0
328.65335,328.78702,73,64,0
328.65335,328.78702,85,64,0
328.78702,329.85635,80,73,0
328.78702,329.85635,92,73,0
329.85635,330.03458,81,64,0
329.85635,330.03458,93,64,0
330.03458,330.2128,84,64,0
330.03458,330.2128,96,64,0
330.2128,330.39102,82,64,0
330.2128,330.39102,94,64,0
330.39102,330.56924,81,64,0
330.39102,330.56924,93,64,0
330.56924,330.74747,79,64,0
330.56924,330.74747,91,64,0
330.74747,330.9257,77,64,0
330.74747,330.9257,89,64,0
330.9257,331.1039,76,64,0
330.9257,331.1039,88,64,0
331.1039,331.28214,74,64,0
331.1039,331.28214,86,64,0
331.28214,331.46036,72,64,0
331.28214,331.46036,84,64,0
331.46036,331.63858,71,64,0
331.46036,331.63858,83,64,0
331.63858,331.8168,74,64,0
331.63858,331.8168,86,64,0
331.8168,331.99503,72,64,0
331.8168,331.99503,84,64,0
331.99503,332.5297,65,64,0
331.99503,332.5297,77,64,0
342.68845,342.8221,73,54,0
342.68845,342.8221,70,54,0
342.95578,343.08945,70,54,0
342.95578,343.08945,73,54,0
343.2231,343.35678,70,54,0
343.2231,343.35678,66,54,0
343.49045,343.6241,73,54,0
343.49045,343.6241,78,54,0
343.75778,343.89145,66,54,0
343.75778,343.89145,61,54,0
344.02512,344.15878,78,54,0
344.02512,344.15878,82,54,0
344.29245,344.42612,58,54,0
344.29245,344.42612,61,54,0
344.55978,344.69345,82,54,0
344.55978,344.69345,85,54,0
344.82712,344.9608,61,54,0
344.82712,344.9608,65,54,0
345.09445,345.22812,73,54,0
345.09445,345.22812,77,54,0
345.3618,345.49545,61,54,0
345.3618,345.49545,56,54,0
345.62912,345.7628,77,54,0
345.62912,345.7628,80,54,0
345.89645,346.03012,56,54,0
345.89645,346.03012,53,54,0
346.1638,346.29745,80,54,0
346.1638,346.29745,85,54,0
346.43112,346.5648,53,54,0
346.43112,346.5648,49,54,0
346.69846,346.83212,85,54,0
346.69846,346.83212,89,54,0
346.9658,347.09946,44,54,0
346.9658,347.09946,51,54,0
347.23312,347.3668,87,54,0
347.23312,347.3668,90,54,0
347.50046,347.63412,51,54,0
347.50046,347.63412,54,54,0
347.7678,347.90146,87,54,0
347.7678,347.90146,84,54,0
348.03513,348.1688,56,54,0
348.03513,348.1688,60,54,0
348.30246,348.43613,84,54,0
348.30246,348.43613,78,54,0
348.5698,348.70346,60,54,0
348.5698,348.70346,63,54,0
348.83713,348.9708,75,54,0
348.83713,348.9708,78,54,0
349.10446,349.23813,61,54,0
349.10446,349.23813,65,54,0
349.3718,349.50546,73,54,0
349.3718,349.50546,77,54,0
349.63913,349.77283,65,54,0
349.63913,349.77283,61,54,0
349.9065,350.04016,73,54,0
349.9065,350.04016,77,54,0
349.9065,350.04016,85,54,0
350.17383,350.3075,61,54,0
350.17383,350.3075,63,54,0
350.17383,350.3075,66,54,0
350.44116,350.57483,84,54,0
350.44116,350.57483,78,54,0
350.44116,350.57483,73,54,0
350.7085,350.84216,68,54,0
350.7085,350.84216,65,54,0
350.7085,350.84216,61,54,0
350.97583,351.1095,73,54,0
350.97583,351.1095,80,54,0
350.97583,351.1095,83,54,0
351.24316,351.37683,73,54,0
351.24316,351.37683,70,54,0
351.5105,351.64417,70,54,0
351.5105,351.64417,73,54,0
351.77783,351.9115,70,54,0
351.77783,351.9115,66,54,0
352.04517,352.17883,73,54,0
352.04517,352.17883,78,54,0
352.3125,352.44617,66,54,0
352.3125,352.44617,61,54,0
352.57983,352.7135,78,54,0
352.57983,352.7135,82,54,0
352.84717,352.98083,58,54,0
352.84717,352.98083,61,54,0
353.1145,353.24817,82,54,0
353.1145,353.24817,85,54,0
353.38184,353.5155,61,54,0
353.38184,353.5155,65,54,0
353.64917,353.78284,73,54,0
353.64917,353.78284,77,54,0
353.9165,354.05017,61,54,0
353.9165,354.05017,56,54,0
354.18384,354.3175,77,54,0
354.18384,354.3175,80,54,0
354.45117,354.58484,56,54,0
354.45117,354.58484,53,54,0
354.7185,354.85217,80,54,0
354.7185,354.85217,85,54,0
354.98584,355.1195,53,54,0
354.98584,355.1195,49,54,0
355.25317,355.38684,85,54,0
355.25317,355.38684,89,54,0
355.5205,355.65417,44,54,0
355.5205,355.65417,51,54,0
355.78784,355.9215,87,54,0
355.78784,355.9215,90,54,0
356.05518,356.18884,51,54,0
356.05518,356.18884,54,54,0
356.3225,356.45618,87,54,0
356.3225,356.45618,84,54,0
356.58984,356.7235,56,54,0
356.58984,356.7235,60,54,0
356.85718,356.99084,84,54,0
356.85718,356.99084,78,54,0
357.1245,357.25818,60,54,0
357.1245,357.25818,63,54,0
357.39185,357.5255,75,54,0
357.39185,357.5255,78,54,0
357.65918,357.79288,61,54,0
357.65918,357.79288,65,54,0
357.92654,358.0602,73,54,0
357.92654,358.0602,77,54,0
358.19388,358.32755,68,54,0
358.19388,358.32755,73,54,0
358.4612,358.59488,77,54,0
358.4612,358.59488,80,54,0
358.72855,358.8622,68,54,0
358.72855,358.8622,65,54,0
358.99588,359.12955,80,54,0
358.99588,359.12955,85,54,0
359.2632,359.39688,65,54,0
359.2632,359.39688,61,54,0
359.53055,359.6642,85,54,0
359.53055,359.6642,89,54,0
359.79788,359.93155,60,54,0
359.79788,359.93155,63,54,0
360.06522,360.19888,87,54,0
360.06522,360.19888,90,54,0
360.33255,360.46622,63,53,0
360.33255,360.46622,66,53,0
360.59988,360.73355,87,53,0
360.59988,360.73355,84,53,0
360.86722,361.0009,66,53,0
360.86722,361.0009,72,53,0
361.13455,361.26822,84,53,0
361.13455,361.26822,78,53,0
361.4019,361.53555,72,52,0
361.4019,361.53555,75,52,0
361.66922,361.8029,78,52,0
361.66922,361.8029,75,52,0
361.93655,362.07022,76,52,0
361.93655,362.07022,73,52,0
362.2039,362.33755,76,51,0
362.2039,362.33755,73,51,0
362.47122,362.6049,73,51,0
362.47122,362.6049,68,51,0
362.73856,362.87222,76,51,0
362.73856,362.87222,80,51,0
363.0059,363.13956,68,50,0
363.0059,363.13956,64,50,0
363.27322,363.4069,80,50,0
363.27322,363.4069,85,50,0
363.54056,363.67422,64,50,0
363.54056,363.67422,61,50,0
363.8079,363.94156,85,49,0
363.8079,363.94156,88,49,0
364.07523,364.2089,59,49,0
364.07523,364.2089,56,49,0
364.34256,364.47623,86,49,0
364.34256,364.47623,83,49,0
364.6099,364.74356,59,48,0
364.6099,364.74356,62,48,0
364.87723,365.0109,83,48,0
364.87723,365.0109,80,48,0
365.14456,365.27823,62,48,0
365.14456,365.27823,68,48,0
365.4119,365.54556,80,48,0
365.4119,365.54556,74,48,0
365.67923,365.81293,68,47,0
365.67923,365.81293,71,47,0
365.9466,366.08026,74,47,0
365.9466,366.08026,71,47,0
366.21393,366.3476,73,47,0
366.21393,366.3476,69,47,0
366.48126,366.61493,69,46,0
366.48126,366.61493,73,46,0
366.7486,366.88226,69,46,0
366.7486,366.88226,64,46,0
367.01593,367.1496,73,46,0
367.01593,367.1496,76,46,0
367.28326,367.41693,64,45,0
367.28326,367.41693,61,45,0
367.5506,367.68427,76,45,0
367.5506,367.68427,81,45,0
367.81793,367.9516,61,45,0
367.81793,367.9516,57,45,0
368.08527,368.21893,81,44,0
368.08527,368.21893,85,44,0
368.3526,368.48627,53,54,0
368.3526,368.48627,56,54,0
368.61993,368.7536,83,54,0
368.61993,368.7536,80,54,0
368.88727,369.02094,56,53,0
368.88727,369.02094,59,53,0
368.88727,369.02094,77,53,0
369.1546,369.28827,80,53,0
369.42194,369.5556,59,53,0
369.42194,369.5556,65,53,0
369.68927,369.82294,77,52,0
369.68927,369.82294,71,52,0
369.9566,370.09027,65,52,0
369.9566,370.09027,68,52,0
370.22394,370.3576,71,51,0
370.22394,370.3576,68,51,0
370.49127,370.62494,66,51,0
370.49127,370.62494,69,51,0
370.7586,370.89227,66,50,0
370.7586,370.89227,69,50,0
371.02594,371.1596,66,50,0
371.02594,371.1596,61,50,0
371.29327,371.42694,69,50,0
371.29327,371.42694,73,50,0
371.5606,371.69427,61,49,0
371.5606,371.69427,57,49,0
371.82794,371.9616,73,49,0
371.82794,371.9616,78,49,0
372.09528,372.22894,57,48,0
372.09528,372.22894,54,48,0
372.3626,372.49628,78,48,0
372.3626,372.49628,81,48,0
372.62994,372.7636,49,48,0
372.62994,372.7636,52,48,0
372.89728,373.03094,79,47,0
372.89728,373.03094,76,47,0
373.1646,373.29828,52,47,0
373.1646,373.29828,55,47,0
373.43195,373.5656,76,46,0
373.43195,373.5656,73,46,0
373.69928,373.83395,55,46,0
373.69928,373.83395,61,46,0
373.9747,374.1221,73,45,0
373.9747,374.1221,67,45,0
374.2768,374.441,61,45,0
374.2768,374.441,64,45,0
374.61438,374.79794,67,45,0
374.61438,374.79794,64,45,0
376.65637,376.8435,50,64,0
376.78113,376.90588,57,64,0
376.90588,377.03064,66,64,0
377.03064,377.21777,62,64,0
377.03064,377.21777,54,64,0
377.03064,377.21777,57,64,0
377.1554,377.28015,69,64,0
377.28015,377.4049,66,64,0
377.4049,377.59204,50,64,0
377.4049,377.77917,74,74,0
377.77917,377.9663,62,64,0
377.77917,377.9663,57,64,0
377.77917,377.9663,54,64,0
377.77917,378.15344,69,64,0
378.15344,378.34058,50,64,0
378.2782,378.40295,57,64,0
378.40295,378.5277,66,64,0
378.5277,378.71484,62,64,0
378.5277,378.71484,54,64,0
378.5277,378.71484,57,64,0
378.65247,378.77722,69,64,0
378.77722,378.90198,66,64,0
378.90198,379.0891,50,64,0
378.90198,379.27625,74,74,0
379.27625,379.46338,62,64,0
379.27625,379.46338,57,64,0
379.27625,379.46338,54,64,0
379.27625,379.6505,69,64,0
379.6505,379.83765,45,64,0
379.77527,379.90002,57,64,0
379.90002,380.02478,67,64,0
380.02478,380.14954,64,64,0
380.02478,380.2119,55,64,0
380.02478,380.2119,57,64,0
380.02478,380.2119,61,64,0
380.14954,380.2743,69,64,0
380.2743,380.39908,67,64,0
380.39908,380.5862,45,64,0
380.39908,380.77335,76,74,0
380.77335,380.96048,55,64,0
380.77335,380.96048,57,64,0
380.77335,380.96048,61,64,0
380.77335,381.1476,69,64,0
381.1476,381.33475,45,64,0
381.27237,381.39713,57,64,0
381.39713,381.52188,67,64,0
381.52188,381.64664,64,64,0
381.52188,381.709,55,64,0
381.52188,381.709,57,64,0
381.52188,381.709,61,64,0
381.64664,381.7714,69,64,0
381.7714,381.89615,67,64,0
381.89615,382.08328,45,64,0
381.89615,382.27042,76,74,0
382.27042,382.45755,55,64,0
382.27042,382.45755,57,64,0
382.27042,382.45755,61,64,0
382.27042,382.64468,69,64,0
382.64468,382.83182,50,64,0
382.76944,382.8942,57,64,0
382.8942,383.01895,66,64,0
383.01895,383.2061,62,64,0
383.01895,383.2061,54,64,0
383.01895,383.2061,57,64,0
383.1437,383.26846,69,64,0
383.26846,383.39322,66,64,0
383.39322,383.58035,50,64,0
383.39322,383.7675,74,74,0
383.7675,383.95462,62,64,0
383.7675,383.95462,57,64,0
383.7675,383.95462,54,64,0
383.7675,384.14175,69,64,0
384.14175,384.3289,50,64,0
384.2665,384.39127,57,64,0
384.39127,384.51602,66,64,0
384.51602,384.70316,62,64,0
384.51602,384.70316,54,64,0
384.51602,384.70316,57,64,0
384.64078,384.76553,69,64,0
384.76553,384.8903,66,64,0
384.8903,385.07742,50,64,0
384.8903,385.26456,74,74,0
385.26456,385.4517,62,64,0
385.26456,385.4517,57,64,0
385.26456,385.4517,54,64,0
385.26456,385.63882,69,64,0
385.63882,385.82596,40,64,0
385.76358,385.88834,61,64,0
385.88834,386.0131,69,64,0
386.0131,386.13785,64,64,0
386.0131,386.20023,52,64,0
386.0131,386.20023,57,64,0
386.0131,386.20023,61,64,0
386.13785,386.2626,73,64,0
386.2626,386.38736,69,64,0
386.38736,386.5745,40,64,0
386.38736,386.76163,76,74,0
386.76163,386.94876,59,64,0
386.76163,386.94876,62,64,0
386.76163,386.94876,52,64,0
386.76163,387.1359,68,75,0
387.1359,387.32303,45,64,0
387.26065,387.3854,57,64,0
387.3854,387.51016,64,64,0
387.51016,387.6973,49,64,0
387.51016,387.6973,52,64,0
387.51016,387.6973,57,64,0
387.63492,387.75967,61,64,0
387.63492,387.75967,69,64,0
387.75967,387.88443,64,64,0
387.88443,388.07156,45,64,0
387.88443,388.2587,73,75,0
388.2587,388.44586,49,64,0
388.2587,388.44586,52,64,0
388.2587,388.44586,57,64,0
388.2587,388.633,69,64,0
388.633,389.00726,50,64,0
388.633,389.00726,57,64,0
388.633,389.00726,66,64,0
388.633,389.00726,74,64,0
400.6096,400.79672,45,64,0
400.73434,400.8591,61,64,0
400.8591,400.98386,64,64,0
400.98386,401.1086,67,64,0
400.98386,401.171,61,64,0
400.98386,401.171,57,64,0
400.98386,401.171,55,64,0
401.1086,401.23337,68,64,0
401.23337,401.35812,69,64,0
401.35812,401.54526,45,64,0
401.35812,401.7324,71,74,0
401.7324,401.91953,61,64,0
401.7324,401.91953,57,64,0
401.7324,401.91953,55,64,0
401.7324,402.10666,69,64,0
402.10666,402.2938,50,64,0
402.2314,402.35617,62,64,0
402.35617,402.48093,66,64,0
402.48093,402.60568,67,64,0
402.48093,402.66806,54,64,0
402.48093,402.66806,57,64,0
402.48093,402.66806,62,64,0
402.60568,402.73044,68,64,0
402.73044,402.8552,69,64,0
402.8552,403.04233,50,64,0
402.8552,403.22946,78,74,0
403.22946,403.4166,62,64,0
403.22946,403.4166,57,64,0
403.22946,403.4166,54,64,0
403.22946,403.60373,74,64,0
403.60373,403.79086,45,64,0
403.7285,403.85324,61,64,0
403.85324,403.978,64,64,0
403.978,404.10275,67,64,0
403.978,404.16513,61,64,0
403.978,404.16513,57,64,0
403.978,404.16513,55,64,0
404.10275,404.2275,68,64,0
404.2275,404.35226,69,64,0
404.35226,404.53943,45,64,0
404.35226,404.72656,71,74,0
404.72656,404.9137,61,64,0
404.72656,404.9137,57,64,0
404.72656,404.9137,55,64,0
404.72656,405.10083,69,64,0
405.10083,405.28796,50,64,0
405.2256,405.35034,62,64,0
405.35034,405.4751,66,64,0
405.4751,405.59985,67,64,0
405.4751,405.66223,54,64,0
405.4751,405.66223,57,64,0
405.4751,405.66223,62,64,0
405.59985,405.7246,68,64,0
405.7246,405.84937,69,64,0
405.84937,406.0365,50,64,0
405.84937,406.22363,78,74,0
406.22363,406.41077,62,64,0
406.22363,406.41077,57,64,0
406.22363,406.41077,54,64,0
406.22363,406.5979,74,64,0
406.5979,406.78503,43,64,0
406.72266,406.8474,62,64,0
406.8474,406.97217,67,64,0
406.97217,407.09692,71,64,0
406.97217,407.1593,55,64,0
406.97217,407.1593,59,64,0
406.97217,407.1593,62,64,0
407.09692,407.22168,72,64,0
407.22168,407.34644,73,64,0
407.34644,407.53357,43,64,0
407.34644,407.7207,76,74,0
407.7207,407.90784,55,64,0
407.7207,407.90784,59,64,0
407.7207,407.90784,62,64,0
407.7207,408.09497,74,64,0
408.09497,408.2821,50,64,0
408.21973,408.34448,62,64,0
408.34448,408.46924,66,64,0
408.46924,408.594,67,64,0
408.46924,408.65637,54,64,0
408.46924,408.65637,57,64,0
408.46924,408.65637,62,64,0
408.594,408.71875,68,64,0
408.71875,408.8435,69,64,0
408.8435,409.03064,50,64,0
408.8435,409.21777,78,74,0
409.21777,409.4049,62,64,0
409.21777,409.4049,57,64,0
409.21777,409.4049,54,64,0
409.21777,409.59204,74,64,0
409.59204,409.77917,45,64,0
409.7168,409.84155,64,64,0
409.84155,409.9663,67,64,0
409.9663,410.09106,68,64,0
409.9663,410.15344,61,64,0
409.9663,410.15344,57,64,0
409.9663,410.15344,55,64,0
410.09106,410.21582,69,64,0
410.21582,410.34058,73,64,0
410.34058,410.5277,45,64,0
410.34058,410.71484,79,74,0
410.71484,410.90198,55,64,0
410.71484,410.90198,57,64,0
410.71484,410.90198,61,64,0
410.71484,411.0891,76,64,0
411.0891,411.27625,50,64,0
411.21387,411.33862,62,64,0
411.33862,411.46338,66,64,0
411.46338,411.58813,67,64,0
411.46338,411.6505,54,64,0
411.46338,411.6505,57,64,0
411.46338,411.6505,62,64,0
411.58813,411.7129,68,64,0
411.7129,411.83765,69,64,0
411.83765,412.02478,50,64,0
411.83765,412.2119,78,74,0
412.2119,412.39905,62,64,0
412.2119,412.39905,57,64,0
412.2119,412.39905,54,64,0
412.2119,412.5862,74,64,0
412.5862,412.77335,43,64,0
412.71097,412.83572,62,64,0
412.83572,412.96048,67,64,0
412.96048,413.08524,71,64,0
412.96048,413.1476,55,64,0
412.96048,413.1476,59,64,0
412.96048,413.1476,62,64,0
413.08524,413.21,72,64,0
413.21,413.33475,73,64,0
413.33475,413.52188,43,64,0
413.33475,413.709,76,74,0
413.709,413.89615,55,64,0
413.709,413.89615,59,64,0
413.709,413.89615,62,64,0
413.709,414.08328,74,64,0
414.08328,414.27042,50,64,0
414.20804,414.3328,62,64,0
414.3328,414.45755,66,64,0
414.45755,414.5823,67,64,0
414.45755,414.64468,54,64,0
414.45755,414.64468,57,64,0
414.45755,414.64468,62,64,0
414.5823,414.70706,68,64,0
414.70706,414.83182,69,64,0
414.83182,415.01895,50,64,0
414.83182,415.2061,78,74,0
415.2061,415.39322,62,64,0
415.2061,415.39322,57,64,0
415.2061,415.39322,54,64,0
415.2061,415.58035,74,64,0
415.58035,415.7675,45,64,0
415.7051,415.82986,64,64,0
415.82986,415.95462,67,64,0
415.95462,416.07938,68,64,0
415.95462,416.14175,61,64,0
415.95462,416.14175,57,64,0
415.95462,416.14175,55,64,0
416.07938,416.20413,69,64,0
416.20413,416.3289,73,64,0
416.3289,416.51602,45,64,0
416.3289,416.70316,79,74,0
416.70316,416.8903,55,64,0
416.70316,416.8903,57,64,0
416.70316,416.8903,61,64,0
416.70316,417.07742,76,64,0
417.07742,417.26456,50,64,0
417.20218,417.32693,62,64,0
417.32693,417.4517,66,64,0
417.4517,417.57645,67,64,0
417.4517,417.63882,54,64,0
417.4517,417.63882,57,64,0
417.4517,417.63882,62,64,0
417.57645,417.7012,68,64,0
417.7012,417.82596,69,64,0
417.82596,418.0131,50,64,0
417.82596,418.20023,78,74,0
418.20023,418.38736,62,64,0
418.20023,418.38736,57,64,0
418.20023,418.38736,54,64,0
418.20023,418.5745,74,64,0
430.67587,430.80063,62,64,0
430.67587,430.80063,74,64,0
430.80063,430.92538,67,64,0
430.80063,430.92538,79,64,0
430.92538,431.05014,71,64,0
430.92538,431.05014,83,64,0
431.05014,431.1749,72,64,0
431.05014,431.1749,84,64,0
431.1749,431.29965,73,64,0
431.1749,431.29965,85,64,0
431.29965,431.67392,76,74,0
431.29965,431.67392,88,74,0
431.67392,432.0482,74,64,0
431.67392,432.0482,86,64,0
432.17294,432.2977,62,64,0
432.17294,432.2977,74,64,0
432.2977,432.42245,66,64,0
432.2977,432.42245,78,64,0
432.42245,432.5472,67,64,0
432.42245,432.5472,79,64,0
432.5472,432.67197,68,64,0
432.5472,432.67197,80,64,0
432.67197,432.79672,69,64,0
432.67197,432.79672,81,64,0
432.79672,433.171,76,74,0
432.79672,433.171,88,74,0
433.171,433.54526,74,64,0
433.171,433.54526,86,64,0
433.67,433.79477,64,64,0
433.67,433.79477,76,64,0
433.79477,433.91953,67,64,0
433.79477,433.91953,79,64,0
433.91953,434.04428,68,64,0
433.91953,434.04428,80,64,0
434.04428,434.16904,69,64,0
434.04428,434.16904,81,64,0
434.16904,434.2938,73,64,0
434.16904,434.2938,85,64,0
434.2938,434.66806,79,74,0
434.2938,434.66806,91,74,0
434.66806,435.04233,76,64,0
434.66806,435.04233,88,64,0
435.16708,435.29184,62,64,0
435.16708,435.29184,74,64,0
435.29184,435.4166,66,63,0
435.29184,435.4166,78,63,0
435.4166,435.54135,67,63,0
435.4166,435.54135,79,63,0
435.54135,435.6661,68,63,0
435.54135,435.6661,80,63,0
435.6661,435.79086,69,62,0
435.6661,435.79086,81,62,0
435.79086,436.16513,78,72,0
435.79086,436.16513,90,72,0
436.16513,436.5394,74,60,0
436.16513,436.5394,86,60,0
436.66418,436.78894,62,59,0
436.66418,436.78894,74,59,0
436.78894,436.9137,66,58,0
436.78894,436.9137,78,58,0
436.9137,437.03845,67,58,0
436.9137,437.03845,79,58,0
437.03845,437.1632,68,58,0
437.03845,437.1632,80,58,0
437.1632,437.28796,69,57,0
437.1632,437.28796,81,57,0
437.28796,437.66223,78,67,0
437.28796,437.66223,90,67,0
437.66223,438.0365,74,55,0
437.66223,438.0365,86,55,0
438.41476,439.20566,74,64,0
438.41476,439.20566,86,64,0
439.20566,439.6198,78,54,0
439.20566,439.6198,90,54,0
440.04752,440.94745,74,64,0
440.04752,440.94745,86,64,0
440.94745,441.42178,78,48,0
440.94745,441.42178,90,48,0
441.42178,445.94644,74,45,0
441.42178,445.94644,86,45,0
