start_time,end_time,note_value,velocity,instrument_program_number
4.497076,4.809725,62,54,40
4.809725,4.8582582,64,54,40
4.8582582,4.905901,62,54,40
4.905901,5.0930357,61,54,40
5.0930357,5.186603,59,54,40
5.28017,5.654439,61,54,40
5.654439,6.028708,61,54,40
6.028708,6.3094096,62,54,40
6.3094096,6.3561935,64,54,40
6.3561935,6.402977,62,54,40
6.402977,6.5901117,61,54,40
6.5901117,6.6836786,59,54,40
6.777246,7.525784,61,54,40
10.519937,10.800638,64,64,40
10.800638,10.847422,66,64,40
10.847422,10.894205,64,64,40
10.894205,11.08134,62,64,40
11.08134,11.174907,61,64,40
11.268474,11.642743,61,64,40
11.642743,12.017012,61,64,40
12.017012,12.204146,66,74,40
12.204146,12.391281,64,64,40
12.391281,12.484848,64,64,40
12.578416,12.671983,64,64,40
12.76555,13.139819,64,64,40
13.139819,13.326954,62,64,40
13.514088,13.79479,62,64,40
13.79479,13.841574,64,64,40
13.841574,13.888357,62,64,40
13.888357,14.075492,61,64,40
14.075492,14.169059,59,64,40
14.262626,14.636895,59,64,40
14.636895,15.011164,59,64,40
15.011164,15.198298,64,74,40
15.198298,15.385433,62,64,40
15.385433,15.479,62,64,40
15.572568,15.666135,62,64,40
15.759702,16.13397,62,64,40
16.13397,16.321106,61,64,40
22.496544,22.777246,64,64,40
22.777246,22.82403,66,64,40
22.82403,22.870813,64,64,40
22.870813,23.057947,62,64,40
23.057947,23.151514,61,64,40
23.245083,23.61935,61,64,40
23.61935,23.99362,61,64,40
23.99362,24.180754,66,74,40
24.180754,24.36789,64,64,40
24.36789,24.461456,64,64,40
24.555023,24.64859,64,64,40
24.742159,25.116426,64,64,40
25.116426,25.303562,62,64,40
25.490696,25.771399,62,64,40
25.771399,25.818182,64,64,40
25.818182,25.864965,62,64,40
25.864965,26.0521,61,64,40
26.0521,26.145666,59,64,40
26.239235,26.613503,59,64,40
26.613503,26.987772,59,64,40
26.987772,27.174906,64,74,40
27.174906,27.362041,62,64,40
27.362041,27.455608,62,64,40
27.549175,27.642742,62,64,40
27.736311,28.110579,62,64,40
28.110579,28.297714,61,64,40
36.85086,37.16351,62,54,40
37.16351,37.212044,64,54,40
37.212044,37.259686,62,54,40
37.259686,37.44682,61,54,40
37.44682,37.540386,59,54,40
37.633953,38.008224,61,54,40
38.008224,38.382492,61,54,40
38.382492,38.663193,62,54,40
38.663193,38.709976,64,54,40
38.709976,38.75676,62,54,40
38.75676,38.943897,61,54,40
38.943897,39.037464,59,54,40
39.13103,39.87957,61,54,40
42.873722,43.154423,69,100,40
43.154423,43.201206,71,100,40
43.201206,43.24799,69,100,40
43.24799,43.435123,67,100,40
43.435123,43.52869,65,100,40
43.622257,43.99653,64,100,40
43.99653,44.370796,64,100,40
44.370796,44.745064,71,100,40
44.370796,44.745064,64,100,40
44.745064,45.119335,71,100,40
44.745064,45.119335,64,100,40
45.119335,45.493603,64,100,40
45.119335,45.493603,72,100,40
45.493603,46.055008,74,127,40
45.493603,46.055008,67,127,40
46.055008,46.148575,76,100,40
46.055008,46.148575,67,100,40
46.24214,46.33571,76,100,40
46.24214,46.33571,67,100,40
46.429276,46.522842,76,100,40
46.429276,46.522842,67,100,40
46.61641,46.803543,67,100,40
46.61641,46.803543,76,100,40
46.99068,47.177814,79,100,40
46.99068,47.177814,74,100,40
47.36495,47.552082,72,100,40
47.36495,47.552082,76,100,40
47.739216,47.926353,74,100,40
47.739216,47.926353,67,100,40
48.113487,48.30062,64,100,40
48.113487,48.30062,72,100,40
48.862022,49.142727,81,64,40
49.142727,49.18951,83,64,40
49.18951,49.236294,81,64,40
49.236294,49.423428,79,64,40
49.423428,49.516994,77,64,40
49.61056,49.797695,76,74,40
49.984833,50.3591,76,64,40
50.3591,50.546234,83,64,40
50.733368,50.920506,83,64,40
51.10764,51.294773,84,64,40
51.481907,52.043312,86,100,40
52.043312,52.13688,89,64,40
52.230446,52.324013,88,64,40
52.41758,52.511147,86,64,40
52.604713,52.791847,91,64,40
52.978985,53.07255,84,64,40
53.16612,53.259686,86,64,40
53.353252,53.540386,88,64,40
53.72752,53.914658,86,64,40
54.10179,54.288925,84,64,40
54.850327,55.13103,69,100,40
55.13103,55.177814,71,100,40
55.177814,55.224598,69,100,40
55.224598,55.41173,67,100,40
55.41173,55.5053,65,100,40
55.598866,55.973137,64,100,40
55.973137,56.347404,64,100,40
56.347404,56.721672,71,100,40
56.347404,56.721672,64,100,40
56.721672,57.095943,71,100,40
56.721672,57.095943,64,100,40
57.095943,57.47021,64,100,40
57.095943,57.47021,72,100,40
57.47021,58.031616,74,127,40
57.47021,58.031616,67,127,40
58.031616,58.125183,76,100,40
58.031616,58.125183,67,100,40
58.21875,58.312317,76,100,40
58.21875,58.312317,67,100,40
58.405884,58.49945,76,100,40
58.405884,58.49945,67,100,40
58.593018,58.78015,67,100,40
58.593018,58.78015,76,100,40
58.96729,59.154423,79,100,40
58.96729,59.154423,74,100,40
59.341557,59.52869,72,100,40
59.341557,59.52869,76,100,40
59.715824,59.902958,74,100,40
59.715824,59.902958,67,100,40
60.090096,60.27723,64,100,40
60.090096,60.27723,72,100,40
64.95559,65.517,74,100,40
65.517,65.610565,77,64,40
65.70413,65.7977,76,64,40
65.891266,65.98483,74,64,40
66.0784,66.45267,79,64,40
67.949745,68.51115,71,100,40
67.949745,68.51115,64,100,40
68.51115,68.60471,64,64,40
68.51115,68.60471,74,64,40
68.69828,68.79185,64,64,40
68.69828,68.79185,72,64,40
68.885414,68.97898,64,64,40
68.885414,68.97898,71,64,40
69.07255,69.446815,76,64,40
69.07255,69.446815,64,64,40
70.94389,71.5053,67,74,40
71.5053,71.59887,70,64,40
71.69244,71.786,69,62,40
71.87957,71.97314,67,59,40
72.0667,72.44097,72,55,40
73.94232,74.528725,64,64,40
74.528725,74.62874,70,54,40
74.7294,74.83078,69,54,40
74.932816,75.035576,67,54,40
75.13902,75.99351,69,54,40
75.99351,76.89973,67,59,40
76.89973,77.86436,65,64,40
77.86436,78.86241,64,59,40
78.86241,79.29939,62,86,40
79.29939,79.860794,74,100,40
79.860794,80.04793,78,86,40
80.04793,80.23506,76,86,40
80.23506,80.422195,74,86,40
80.422195,81.17074,81,86,40
81.17074,81.545006,78,86,40
81.545006,81.91927,74,86,40
81.91927,82.29354,69,86,40
85.2877,85.8491,74,74,40
85.8491,86.03623,78,64,40
86.03623,86.223366,76,64,40
86.223366,86.4105,74,64,40
86.4105,87.15904,81,64,40
87.15904,87.53331,78,64,40
87.53331,87.90758,74,64,40
87.90758,88.281845,69,64,40
91.276,91.8374,74,100,40
91.8374,92.024536,78,86,40
92.024536,92.21167,76,86,40
92.21167,92.3988,74,86,40
92.3988,93.14735,81,86,40
93.14735,93.521614,80,93,40
93.521614,93.89588,78,96,40
93.89588,95.39296,85,100,40
95.39296,95.45534,77,77,40
95.45534,95.517715,78,76,40
95.517715,95.58009,77,75,40
95.58009,95.64247,78,74,40
95.64247,95.70485,77,74,40
95.70485,95.76723,78,72,40
95.76723,95.829605,77,71,40
95.829605,95.89198,78,71,40
95.89198,95.95436,77,70,40
95.95436,96.01674,78,68,40
96.01674,96.07912,77,68,40
96.07912,96.141495,78,67,40
96.141495,96.20387,77,66,40
96.20387,96.26625,78,65,40
96.26625,96.32863,77,64,40
96.32863,96.39101,78,63,40
96.39101,96.453384,77,62,40
96.453384,96.51576,78,61,40
96.51576,96.57814,77,60,40
96.57814,96.64052,78,59,40
96.64052,96.702896,77,58,40
96.702896,96.765274,78,57,40
96.765274,96.82765,75,56,40
96.82765,96.89003,77,55,40
96.89003,97.07717,78,54,40
97.07717,97.264305,78,54,40
97.264305,97.35787,78,54,40
97.45144,97.545006,78,54,40
97.63857,97.82571,78,64,40
97.82571,98.01284,81,54,40
98.01284,98.10641,81,54,40
98.199974,98.29354,81,54,40
98.38711,98.57424,81,54,40
98.57424,98.761375,78,54,40
98.761375,98.85494,78,54,40
98.94852,99.04208,78,54,40
99.13565,99.322784,78,64,40
99.322784,99.50992,81,54,40
99.50992,99.603485,81,54,40
99.69705,99.79062,81,54,40
99.884186,100.07132,81,54,40
100.07132,100.25845,78,54,40
100.25845,100.35202,78,54,40
100.44559,100.539154,78,54,40
100.63272,100.819855,78,64,40
100.819855,101.006996,81,54,40
101.006996,101.10056,81,54,40
101.19413,101.2877,81,54,40
101.38126,101.5684,81,54,40
101.5684,101.75553,78,54,40
101.75553,101.8491,78,54,40
101.942665,102.03623,78,54,40
102.1298,102.31693,78,54,40
102.31693,102.50407,72,54,40
102.50407,102.59763,72,54,40
102.6912,102.78477,72,54,40
102.878334,103.065475,72,54,40
103.065475,103.25261,71,54,40
103.25261,103.346176,71,54,40
103.43974,103.53331,71,54,40
103.62688,103.81401,71,54,40
103.81401,104.001144,83,51,40
104.001144,104.09471,83,49,40
104.18828,104.281845,83,46,40
104.37541,104.562546,83,54,40
104.562546,104.74968,79,54,40
104.74968,104.84325,79,54,40
104.93682,105.03039,79,54,40
105.123955,105.31109,79,54,40
105.31109,105.49822,83,52,40
105.49822,105.59179,83,49,40
105.685356,105.77892,83,46,40
105.87249,106.05962,83,54,40
106.05962,106.24676,79,54,40
106.24676,106.340324,79,54,40
106.43389,106.52746,79,54,40
106.621025,106.80816,79,54,40
106.80816,106.9953,83,52,40
106.9953,107.08887,83,49,40
107.182434,107.276,83,46,40
107.36957,107.5567,83,54,40
107.5567,107.743835,79,54,40
107.743835,107.8374,79,54,40
107.93097,108.024536,79,54,40
108.1181,108.30524,79,54,40
108.30524,108.49237,76,54,40
108.49237,108.58594,76,54,40
108.679504,108.77307,76,54,40
108.86664,109.05378,76,54,40
109.05378,109.24091,74,54,40
109.24091,109.33448,74,54,40
109.42805,109.521614,74,54,40
109.61518,109.802315,74,54,40
109.802315,109.98945,86,51,40
109.98945,110.083015,86,49,40
110.17658,110.27015,86,46,40
110.363716,110.55085,86,44,40
110.55085,110.73798,81,44,40
110.73798,110.83155,81,45,40
110.92512,111.01869,81,45,40
111.11226,111.29939,81,46,40
111.29939,111.48653,80,46,40
111.48653,111.58009,80,47,40
111.67366,111.76723,80,47,40
111.860794,112.04793,79,48,40
112.04793,112.23506,79,48,40
112.23506,112.32863,79,49,40
112.422195,112.51576,79,49,40
112.60933,112.79646,79,50,40
112.79646,112.983604,81,50,40
112.983604,113.07717,79,51,40
113.17074,113.264305,79,51,40
113.35787,113.545006,79,52,40
113.545006,113.73214,81,52,40
113.73214,113.82571,79,53,40
113.91927,114.01284,79,53,40
114.10641,114.29354,79,54,40
114.29354,114.480675,78,53,40
114.480675,114.57424,78,53,40
114.66781,114.761375,78,52,40
114.85494,115.04208,78,52,40
115.04208,115.22922,76,51,40
115.22922,115.322784,76,51,40
115.41635,115.50992,76,50,40
115.603485,115.79062,76,50,40
115.79062,115.97775,74,49,40
115.97775,116.07132,74,48,40
116.16489,116.25845,74,48,40
116.35202,116.539154,74,47,40
116.539154,116.72629,73,47,40
116.72629,116.819855,73,46,40
116.91342,117.006996,73,46,40
117.10056,117.38126,78,64,40
117.38126,117.42805,79,64,40
117.42805,117.47483,78,64,40
117.47483,117.661964,76,64,40
117.661964,117.75553,74,64,40
117.8491,118.223366,74,64,40
118.223366,118.59763,74,64,40
118.59763,118.878334,78,64,40
118.878334,118.92512,79,64,40
118.92512,118.9719,78,64,40
118.9719,119.15904,76,64,40
119.15904,119.25261,74,64,40
119.346176,119.72044,74,64,40
119.72044,120.09471,74,64,40
120.09471,120.281845,79,64,40
120.281845,120.46898,78,64,40
120.46898,120.65611,78,64,40
120.65611,120.84325,76,64,40
120.84325,121.59179,76,75,40
121.59179,121.77892,79,64,40
121.77892,121.96606,78,64,40
121.96606,122.15319,78,64,40
122.15319,122.340324,76,64,40
122.340324,123.08887,76,75,40
123.08887,123.36957,76,64,40
123.36957,123.41635,78,64,40
123.41635,123.463135,76,64,40
123.463135,123.65027,74,64,40
123.65027,123.743835,73,64,40
123.8374,124.21167,73,64,40
124.21167,124.58594,73,64,40
124.58594,124.86664,76,64,40
124.86664,124.91342,78,64,40
124.91342,124.960205,76,64,40
124.960205,125.14735,74,64,40
125.14735,125.24091,73,64,40
125.33448,125.70875,73,64,40
125.70875,126.083015,73,64,40
126.083015,126.27015,78,64,40
126.27015,126.45728,76,64,40
126.45728,126.64442,76,64,40
126.64442,126.83155,74,64,40
126.83155,127.58009,74,75,40
127.58009,127.76723,78,64,40
127.76723,127.95436,76,64,40
127.95436,128.1415,76,64,40
128.1415,128.32863,74,64,40
128.32863,129.07716,74,75,40
132.07132,132.19608,79,100,40
132.19608,132.32083,77,98,40
132.32083,132.44559,73,95,40
132.44559,132.57034,75,92,40
132.57034,132.6951,74,90,40
132.6951,132.81985,69,88,40
132.81985,132.94461,72,100,40
132.94461,133.06937,70,100,40
133.06937,133.19412,64,100,40
133.19412,133.31888,67,100,40
133.31888,133.44363,65,100,40
133.44363,133.56839,70,100,40
133.56839,135.06548,69,100,40
135.06548,135.19023,79,100,40
135.19023,135.31499,77,98,40
135.31499,135.43974,73,95,40
135.43974,135.5645,75,92,40
135.5645,135.68925,74,90,40
135.68925,135.81401,69,88,40
135.81401,135.93877,72,100,40
135.93877,136.06352,70,100,40
136.06352,136.18828,64,100,40
136.18828,136.31303,67,100,40
136.31303,136.43779,65,100,40
136.43779,136.56255,70,100,40
136.56255,138.05962,69,100,40
138.05962,138.24677,70,100,40
138.4339,138.80817,65,100,40
138.80817,139.18243,70,103,40
139.18243,139.5567,74,107,40
139.5567,141.05377,77,110,40
141.05377,141.2409,78,100,40
141.42804,141.8023,69,100,40
141.8023,142.17659,74,102,40
142.17659,142.55086,78,106,40
142.55086,143.67366,79,110,40
143.67366,144.04793,67,105,40
144.04793,144.17268,66,64,40
144.17268,144.29744,67,64,40
144.29744,144.4222,68,64,40
144.4222,144.54695,69,64,40
144.54695,144.6717,68,64,40
144.6717,144.79646,69,64,40
144.79646,144.92122,78,64,40
144.92122,145.04597,76,61,40
145.04597,145.17073,73,58,40
145.17073,145.29549,76,64,40
145.29549,145.42024,74,64,40
145.42024,145.545,69,64,40
145.91927,146.29355,69,64,40
146.29355,146.66782,74,64,40
146.66782,147.04208,78,64,40
147.04208,147.16684,74,64,40
147.16684,147.2916,76,64,40
147.2916,147.41635,77,64,40
147.41635,147.5411,78,64,40
147.5411,147.66586,77,64,40
147.66586,147.79062,78,64,40
147.79062,147.91537,86,64,40
147.91537,148.04013,85,62,40
148.04013,148.16489,82,57,40
148.16489,148.28964,85,64,40
148.28964,148.4144,83,64,40
148.4144,148.53915,78,64,40
148.91342,149.28769,78,64,40
149.28769,149.66196,83,64,40
149.66196,150.03622,86,64,40
150.03622,150.161,71,64,40
150.161,150.28575,73,64,40
150.28575,150.4105,74,64,40
150.4105,150.53526,75,64,40
150.53526,150.66002,76,64,40
150.66002,150.78477,78,64,40
150.78477,150.90953,79,64,40
150.90953,151.03429,80,64,40
151.03429,151.15904,81,64,40
151.15904,151.2838,85,64,40
151.2838,151.40855,83,62,40
151.40855,151.53331,81,58,40
151.53331,151.65807,86,64,40
151.65807,151.78282,88,64,40
151.78282,151.8452,86,64,40
151.90758,152.03233,85,64,40
152.03233,152.15709,86,64,40
152.15709,152.21947,85,64,40
152.28185,152.65611,86,64,40
153.03038,153.15514,66,100,40
153.15514,153.27989,67,100,40
153.27989,153.40465,68,100,40
153.40465,153.5294,69,100,40
153.5294,153.65416,68,100,40
153.65416,153.77892,69,100,40
153.77892,153.90367,78,100,40
153.90367,154.02843,76,96,40
154.02843,154.1532,74,92,40
154.1532,154.27795,76,100,40
154.27795,154.40271,74,100,40
154.40271,154.52747,69,100,40
154.90173,155.276,69,100,40
155.276,155.65027,74,100,40
155.65027,156.02454,78,100,40
156.02454,156.14929,74,100,40
156.14929,156.27405,75,100,40
156.27405,156.3988,76,100,40
156.3988,156.52356,78,100,40
156.52356,156.64832,77,100,40
156.64832,156.77307,78,100,40
156.77307,156.89783,86,100,40
156.89783,157.02258,85,96,40
157.02258,157.14734,82,92,40
157.14734,157.2721,85,100,40
157.2721,157.39685,83,100,40
157.39685,157.5216,78,100,40
157.89587,158.27016,78,100,40
158.27016,158.64442,83,100,40
158.64442,159.01869,86,100,40
159.01869,159.14345,71,100,40
159.14345,159.2682,73,100,40
159.2682,159.39296,74,100,40
159.39296,159.51772,75,100,40
159.51772,159.64247,76,100,40
159.64247,159.76723,78,100,40
159.76723,159.89198,79,100,40
159.89198,160.01674,80,100,40
160.01674,160.1415,81,100,40
160.1415,160.26625,85,100,40
160.26625,160.391,83,100,40
160.391,160.51576,81,100,40
160.51576,160.64052,86,100,40
160.64052,160.76527,88,100,40
160.76527,160.82765,86,100,40
160.89003,161.01479,85,100,40
161.01479,161.13954,86,100,40
161.13954,161.20192,85,100,40
161.2643,161.32668,86,100,40
161.38905,161.45143,69,64,40
161.51381,161.57619,69,64,40
161.63857,161.70094,69,64,40
161.76332,161.8257,69,64,40
161.88808,161.95045,69,64,40
162.01283,162.13759,69,64,40
162.13759,162.26236,71,64,40
162.26236,162.32474,69,64,40
162.38712,162.51187,69,64,40
162.51187,162.63663,71,64,40
162.63663,162.699,69,64,40
162.76138,162.88614,69,64,40
162.88614,163.0109,71,64,40
163.0109,163.07327,69,64,40
163.13565,163.2604,69,64,40
163.2604,163.38516,71,64,40
163.38516,163.44754,69,64,40
163.50992,163.63467,69,64,40
163.63467,163.75943,71,64,40
163.75943,163.82181,69,64,40
163.88419,164.00894,69,64,40
164.00894,164.1337,71,64,40
164.1337,164.19608,69,64,40
164.25845,164.38321,69,64,40
164.38321,164.50797,71,64,40
164.50797,164.57034,69,64,40
164.63272,164.75748,69,64,40
164.75748,164.88223,71,64,40
164.88223,164.94461,69,64,40
165.00699,165.13174,74,64,40
165.13174,165.2565,76,64,40
165.2565,165.31888,74,64,40
165.38126,165.50601,74,64,40
165.50601,165.63077,76,64,40
165.63077,165.69315,74,64,40
165.75552,165.88028,71,64,40
165.88028,166.00504,73,64,40
166.00504,166.06741,71,64,40
166.12979,166.25456,71,64,40
166.25456,166.37932,73,64,40
166.37932,166.4417,71,64,40
166.50407,166.62883,69,64,40
166.62883,166.75359,71,64,40
166.75359,166.81596,69,64,40
166.87834,167.0031,69,64,40
167.0031,167.12785,71,64,40
167.12785,167.19023,69,64,40
167.25261,167.37737,69,64,40
167.37737,167.50212,71,64,40
167.50212,167.5645,69,64,40
167.62688,167.75163,69,64,40
167.75163,167.87639,71,64,40
167.87639,167.93877,69,64,40
168.00114,168.37541,62,64,40
169.49821,170.24677,62,75,40
170.24677,170.62103,61,64,40
170.9953,171.74384,67,75,40
171.74384,172.1181,66,64,40
172.49237,173.05377,71,64,40
173.05377,173.2409,73,64,40
173.2409,173.98944,74,74,40
173.98944,174.73799,64,64,40
174.73799,175.48653,69,64,40
175.48653,175.5489,62,110,40
175.61128,175.67366,65,110,40
175.73604,175.79842,69,110,40
175.8608,175.92317,74,110,40
175.98555,176.04793,77,110,40
176.1103,176.17268,81,110,40
176.23506,176.60933,86,110,40
176.9836,177.04597,60,110,40
177.10835,177.17073,64,110,40
177.23311,177.29549,67,110,40
177.35786,177.42024,72,110,40
177.48262,177.545,76,110,40
177.60738,177.66975,79,110,40
177.73213,178.1064,84,110,40
178.48068,178.54306,65,110,40
178.60544,178.66782,69,110,40
178.7302,178.79257,72,110,40
178.85495,178.91733,77,110,40
178.9797,179.04208,81,110,40
179.10446,179.16684,84,110,40
179.22922,179.60349,89,110,40
184.46898,184.84325,77,64,40
184.84325,185.21751,78,67,40
185.21751,185.59178,79,69,40
185.59178,185.96605,80,72,40
185.96605,186.66782,81,74,40
186.66782,186.7146,74,65,40
186.7146,186.90173,73,64,40
186.90173,187.08887,71,64,40
187.08887,187.276,73,64,40
187.276,187.46313,76,64,40
187.46313,187.74384,74,100,40
187.74384,187.8374,62,100,40
187.8374,187.96216,62,100,40
187.96216,188.08691,66,100,40
188.08691,188.21167,69,100,40
188.21167,188.49237,74,100,40
188.49237,188.58594,66,100,40
188.58594,188.7107,66,100,40
188.7107,188.83545,69,100,40
188.83545,188.9602,74,100,40
188.9602,189.2409,78,100,40
189.2409,189.33447,69,100,40
189.33447,189.45923,69,100,40
189.45923,189.58398,74,100,40
189.58398,189.70874,78,100,40
189.70874,189.98944,81,100,40
189.98944,190.08301,74,100,40
190.08301,190.20776,74,100,40
190.20776,190.33253,78,100,40
190.33253,190.45729,81,100,40
190.45729,190.84032,86,100,40
191.24419,191.67128,86,100,40
191.24419,191.67128,78,100,40
191.24419,191.67128,62,100,40
192.12445,192.5932,62,100,40
192.12445,192.5932,78,100,40
192.12445,192.5932,86,100,40
196.43402,196.74667,69,54,40
196.74667,196.79521,71,54,40
196.79521,196.84285,69,54,40
196.84285,197.02998,68,54,40
197.02998,197.12355,66,54,40
197.21712,197.59138,68,54,40
197.59138,197.96565,68,54,40
197.96565,198.24635,69,54,40
198.24635,198.29315,71,54,40
198.29315,198.33994,69,54,40
198.33994,198.52707,68,54,40
198.52707,198.62064,66,54,40
198.7142,199.46274,68,54,40
202.4569,202.7376,71,64,40
202.7376,202.78438,73,64,40
202.78438,202.83116,71,64,40
202.83116,203.0183,69,64,40
203.0183,203.11186,68,64,40
203.20543,203.5797,68,64,40
203.5797,203.95396,68,64,40
203.95396,204.1411,73,74,40
204.1411,204.32823,71,64,40
204.32823,204.4218,71,64,40
204.51537,204.60893,71,64,40
204.7025,205.07677,71,64,40
205.07677,205.2639,69,64,40
205.45103,205.73174,69,64,40
205.73174,205.77852,71,64,40
205.77852,205.8253,69,64,40
205.8253,206.01244,68,64,40
206.01244,206.106,66,64,40
206.19957,206.57385,66,64,40
206.57385,206.94812,66,64,40
206.94812,207.13525,71,74,40
207.13525,207.32239,69,64,40
207.32239,207.41595,69,64,40
207.50952,207.60309,69,64,40
207.69666,208.07092,69,64,40
208.07092,208.25806,68,64,40
214.4335,214.7142,71,64,40
214.7142,214.76099,73,64,40
214.76099,214.80777,71,64,40
214.80777,214.9949,69,64,40
214.9949,215.08847,68,64,40
215.18204,215.5563,68,64,40
215.5563,215.93057,68,64,40
215.93057,216.1177,73,74,40
216.1177,216.30484,71,64,40
216.30484,216.3984,71,64,40
216.49197,216.58554,71,64,40
216.67911,217.05338,71,64,40
217.05338,217.24051,69,64,40
217.42764,217.70834,69,64,40
217.70834,217.75513,71,64,40
217.75513,217.80191,69,64,40
217.80191,217.98904,68,64,40
217.98904,218.08261,66,64,40
218.17618,218.55046,66,64,40
218.55046,218.92473,66,64,40
218.92473,219.11186,71,74,40
219.11186,219.299,69,64,40
219.299,219.39256,69,64,40
219.48613,219.5797,69,64,40
219.67326,220.04753,69,64,40
220.04753,220.23466,68,64,40
228.65572,228.96837,69,54,40
228.96837,229.01689,71,54,40
229.01689,229.06454,69,54,40
229.06454,229.25168,68,54,40
229.25168,229.34525,66,54,40
229.43881,229.81308,68,54,40
229.81308,230.18735,68,54,40
230.18735,230.46805,69,54,40
230.46805,230.51483,71,54,40
230.51483,230.56161,69,54,40
230.56161,230.74875,68,54,40
230.74875,230.84232,66,54,40
230.93588,231.68442,68,54,40
234.67857,234.95927,64,100,40
234.95927,235.00606,66,100,40
235.00606,235.05284,64,100,40
235.05284,235.23997,62,100,40
235.23997,235.33354,60,100,40
235.42711,235.80139,59,100,40
235.80139,236.17566,59,100,40
236.17566,236.54993,78,100,40
236.17566,236.54993,71,100,40
236.54993,236.9242,78,100,40
236.54993,236.9242,71,100,40
236.9242,237.29846,71,100,40
236.9242,237.29846,79,100,40
237.29846,237.85986,81,127,40
237.29846,237.85986,74,127,40
237.85986,237.95343,83,100,40
237.85986,237.95343,74,100,40
238.047,238.14056,83,100,40
238.047,238.14056,74,100,40
238.23413,238.3277,83,100,40
238.23413,238.3277,74,100,40
238.42126,238.6084,74,100,40
238.42126,238.6084,83,100,40
238.79553,238.98267,86,100,40
238.79553,238.98267,81,100,40
239.1698,239.35693,79,100,40
239.1698,239.35693,83,100,40
239.54407,239.7312,81,100,40
239.54407,239.7312,74,100,40
239.91835,240.10548,71,100,40
239.91835,240.10548,79,100,40
240.66689,240.94759,76,64,40
240.94759,240.99437,78,64,40
240.99437,241.04115,76,64,40
241.04115,241.22829,74,64,40
241.22829,241.32185,72,64,40
241.41542,241.60255,71,74,40
241.78969,242.16396,71,64,40
242.16396,242.35109,78,64,40
242.53822,242.72536,78,64,40
242.91249,243.09962,79,64,40
243.28676,243.84818,81,100,40
243.84818,243.94174,84,64,40
244.03531,244.12888,83,64,40
244.22244,244.31601,81,64,40
244.40958,244.59671,86,64,40
244.78384,244.87741,79,64,40
244.97098,245.06454,81,64,40
245.15811,245.34525,83,64,40
245.53238,245.71951,81,64,40
245.90665,246.09378,79,64,40
246.65518,246.93588,64,100,40
246.93588,246.98267,66,100,40
246.98267,247.02945,64,100,40
247.02945,247.21658,62,100,40
247.21658,247.31015,60,100,40
247.40372,247.77798,59,100,40
247.77798,248.15227,59,100,40
248.15227,248.52654,66,100,40
248.15227,248.52654,59,100,40
248.52654,248.9008,66,100,40
248.52654,248.9008,59,100,40
248.9008,249.27507,71,100,40
248.9008,249.27507,79,100,40
249.27507,249.83647,81,127,40
249.27507,249.83647,74,127,40
249.83647,249.93004,83,100,40
249.83647,249.93004,74,100,40
250.0236,250.11717,83,100,40
250.0236,250.11717,74,100,40
250.21074,250.3043,83,100,40
250.21074,250.3043,74,100,40
250.39787,250.585,74,100,40
250.39787,250.585,83,100,40
250.77214,250.95927,86,100,40
250.77214,250.95927,81,100,40
251.14641,251.33354,79,100,40
251.14641,251.33354,83,100,40
251.52068,251.70781,81,100,40
251.52068,251.70781,74,100,40
251.89496,252.08209,71,100,40
251.89496,252.08209,79,100,40
256.76044,257.32184,81,100,40
257.32184,257.4154,84,64,40
257.50897,257.60254,83,64,40
257.6961,257.78967,81,64,40
257.88324,258.25754,86,64,40
259.7546,260.316,78,100,40
259.7546,260.316,71,100,40
260.316,260.40958,71,64,40
260.316,260.40958,81,64,40
260.50314,260.5967,71,64,40
260.50314,260.5967,79,64,40
260.69028,260.78384,71,64,40
260.69028,260.78384,78,64,40
260.8774,261.25168,83,64,40
260.8774,261.25168,71,64,40
262.74875,263.31015,74,74,40
263.31015,263.40372,77,64,40
263.49728,263.59085,76,62,40
263.68442,263.77798,74,59,40
263.87155,264.24582,79,55,40
265.7472,266.3336,71,64,40
266.3336,266.4336,77,54,40
266.53427,266.63562,76,54,40
266.73767,266.84042,74,54,40
266.94388,267.79837,76,54,40
267.79837,268.7046,74,59,40
268.7046,269.66922,72,64,40
269.66922,270.66727,71,59,40
270.66727,271.10425,69,54,40
274.0984,274.6598,76,100,40
274.6598,274.84692,80,86,40
274.84692,275.03406,78,86,40
275.03406,275.2212,76,86,40
275.2212,275.96976,83,86,40
275.96976,276.34402,80,86,40
276.34402,276.7183,74,80,40
276.7183,277.09256,73,74,40
280.0867,280.6481,76,100,40
280.6481,280.83524,80,86,40
280.83524,281.02237,78,86,40
281.02237,281.2095,76,86,40
281.2095,281.95804,83,86,40
281.95804,282.3323,80,86,40
282.3323,282.70657,74,80,40
282.70657,283.08084,73,74,40
286.075,286.6364,73,74,40
286.6364,286.82355,76,64,40
286.82355,287.01068,75,64,40
287.01068,287.1978,73,64,40
287.1978,288.32062,78,74,40
288.32062,288.50775,76,61,40
288.50775,288.6949,75,59,40
288.6949,288.88202,73,58,40
288.88202,289.06915,73,56,40
289.06915,289.16272,73,54,40
289.2563,289.34985,73,54,40
289.44342,289.63055,73,64,40
289.63055,289.8177,76,54,40
289.8177,289.91125,76,54,40
290.00482,290.0984,76,54,40
290.19196,290.3791,76,54,40
290.3791,290.56622,73,54,40
290.56622,290.6598,73,54,40
290.75336,290.84692,73,54,40
290.9405,291.12762,73,64,40
291.12762,291.31476,76,54,40
291.31476,291.40836,76,54,40
291.50192,291.5955,76,54,40
291.68906,291.8762,76,54,40
291.8762,292.06332,73,54,40
292.06332,292.1569,73,54,40
292.25046,292.34402,73,54,40
292.4376,292.62473,73,64,40
292.62473,292.81186,76,54,40
292.81186,292.90543,76,54,40
292.999,293.09256,76,54,40
293.18613,293.37326,76,54,40
293.37326,293.5604,73,54,40
293.5604,293.65396,73,54,40
293.74753,293.8411,73,54,40
293.93466,294.1218,73,54,40
294.1218,294.30893,67,54,40
294.30893,294.4025,67,54,40
294.49606,294.58963,67,54,40
294.6832,294.87033,67,54,40
294.87033,295.05746,66,54,40
295.05746,295.15103,66,54,40
295.2446,295.33817,66,54,40
295.43173,295.61887,66,54,40
295.61887,295.806,78,51,40
295.806,295.89957,78,49,40
295.99313,296.0867,78,46,40
296.18027,296.3674,78,54,40
296.3674,296.55453,74,54,40
296.55453,296.6481,74,54,40
296.74167,296.83524,74,54,40
296.9288,297.11594,74,54,40
297.11594,297.30307,78,52,40
297.30307,297.39664,78,49,40
297.4902,297.58377,78,46,40
297.67734,297.86447,78,54,40
297.86447,298.0516,74,54,40
298.0516,298.14517,74,54,40
298.23874,298.3323,74,54,40
298.42587,298.613,74,54,40
298.613,298.80014,78,52,40
298.80014,298.8937,78,49,40
298.98727,299.08084,78,46,40
299.1744,299.36154,78,54,40
299.36154,299.5487,74,54,40
299.5487,299.64227,74,54,40
299.73584,299.8294,74,54,40
299.92297,300.1101,74,54,40
300.1101,300.29724,71,54,40
300.29724,300.3908,71,54,40
300.48438,300.57794,71,54,40
300.6715,300.85864,71,54,40
300.85864,301.04578,69,54,40
301.04578,301.13934,69,54,40
301.2329,301.32648,69,54,40
301.42004,301.60718,69,54,40
301.60718,301.7943,81,51,40
301.7943,301.88788,81,49,40
301.98145,302.075,81,46,40
302.16858,302.3557,81,44,40
302.3557,302.54285,76,44,40
302.54285,302.6364,76,45,40
302.72998,302.82355,76,45,40
302.9171,303.10425,76,46,40
303.10425,303.29138,75,46,40
303.29138,303.38495,75,47,40
303.47852,303.57208,75,47,40
303.66565,303.85278,74,48,40
303.85278,304.03992,74,48,40
304.03992,304.13348,74,49,40
304.22705,304.32062,74,49,40
304.41418,304.60132,74,50,40
304.60132,304.78845,76,50,40
304.78845,304.88202,74,51,40
304.9756,305.06915,74,51,40
305.16272,305.34985,74,52,40
305.34985,305.537,76,52,40
305.537,305.63055,74,53,40
305.72412,305.8177,74,53,40
305.91125,306.0984,74,54,40
306.0984,306.28552,73,53,40
306.28552,306.3791,73,53,40
306.47266,306.56622,73,52,40
306.6598,306.84692,73,52,40
306.84692,307.03406,71,51,40
307.03406,307.12762,71,51,40
307.2212,307.31476,71,50,40
307.40836,307.5955,71,50,40
307.5955,307.78262,69,49,40
307.78262,307.8762,69,48,40
307.96976,308.06332,69,48,40
308.1569,308.34402,69,47,40
308.34402,308.53116,68,47,40
308.53116,308.62473,68,46,40
308.7183,308.81186,68,46,40
308.90543,309.18613,73,64,40
309.18613,309.2329,74,64,40
309.2329,309.2797,73,64,40
309.2797,309.46683,71,64,40
309.46683,309.5604,69,64,40
309.65396,310.02823,69,64,40
310.02823,310.4025,69,64,40
310.4025,310.6832,73,64,40
310.6832,310.72998,74,64,40
310.72998,310.77676,73,64,40
310.77676,310.9639,71,64,40
310.9639,311.05746,69,64,40
311.15103,311.5253,69,64,40
311.5253,311.89957,69,64,40
311.89957,312.0867,74,64,40
312.0867,312.27383,73,64,40
312.27383,312.46097,73,64,40
312.46097,312.6481,71,64,40
312.6481,313.39664,71,75,40
313.39664,313.58377,74,64,40
313.58377,313.7709,73,64,40
313.7709,313.95804,73,64,40
313.95804,314.14517,71,64,40
314.14517,314.8937,71,75,40
314.8937,315.1744,71,64,40
315.1744,315.2212,73,64,40
315.2212,315.26797,71,64,40
315.26797,315.45514,69,64,40
315.45514,315.5487,68,64,40
315.64227,316.01654,68,64,40
316.01654,316.3908,68,64,40
316.3908,316.6715,71,64,40
316.6715,316.7183,73,64,40
316.7183,316.76508,71,64,40
316.76508,316.9522,69,64,40
316.9522,317.04578,68,64,40
317.13934,317.5136,68,64,40
317.5136,317.88788,68,64,40
317.88788,318.075,73,64,40
318.075,318.26215,71,64,40
318.26215,318.44928,71,64,40
318.44928,318.6364,69,64,40
318.6364,319.38495,69,75,40
319.38495,319.57208,73,64,40
319.57208,319.75922,71,64,40
319.75922,319.94635,71,64,40
319.94635,320.13348,69,64,40
320.13348,320.88202,69,75,40
323.8762,324.00095,86,100,40
324.00095,324.1257,84,98,40
324.1257,324.25046,80,95,40
324.25046,324.3752,82,92,40
324.3752,324.49997,81,90,40
324.49997,324.62473,76,88,40
324.62473,324.74948,79,100,40
324.74948,324.87424,77,100,40
324.87424,324.999,71,100,40
324.999,325.12375,74,100,40
325.12375,325.2485,72,100,40
325.2485,325.37326,77,100,40
325.37326,326.87033,76,100,40
326.87033,326.9951,86,100,40
326.9951,327.11984,84,98,40
327.11984,327.2446,80,95,40
327.2446,327.36935,82,92,40
327.36935,327.4941,81,90,40
327.4941,327.61887,76,88,40
327.61887,327.74362,79,100,40
327.74362,327.86838,77,100,40
327.86838,327.99313,71,100,40
327.99313,328.1179,74,100,40
328.1179,328.24265,72,100,40
328.24265,328.3674,77,100,40
328.3674,329.86447,76,100,40
329.86447,330.0516,77,100,40
330.23874,330.613,72,100,40
330.613,330.98727,77,103,40
330.98727,331.36154,81,107,40
331.36154,332.85864,84,110,40
332.85864,333.04578,85,100,40
333.2329,333.60718,76,100,40
333.60718,333.98145,81,102,40
333.98145,334.3557,85,106,40
334.3557,335.47852,86,110,40
335.47852,335.85278,74,105,40
335.85278,335.97754,73,64,40
335.97754,336.1023,74,64,40
336.1023,336.22705,75,64,40
336.22705,336.3518,76,64,40
336.3518,336.47656,75,64,40
336.47656,336.60132,76,64,40
336.60132,336.72607,85,64,40
336.72607,336.85083,83,61,40
336.85083,336.9756,80,58,40
336.9756,337.10034,83,64,40
337.10034,337.2251,81,64,40
337.2251,337.34985,76,64,40
337.72412,338.0984,76,64,40
338.0984,338.47266,81,64,40
338.47266,338.84692,85,64,40
338.84692,338.97168,69,64,40
338.97168,339.09644,71,64,40
339.09644,339.2212,72,64,40
339.2212,339.34595,73,64,40
339.34595,339.4707,72,64,40
339.4707,339.5955,73,64,40
339.5955,339.72025,81,64,40
339.72025,339.845,80,62,40
339.845,339.96976,77,57,40
339.96976,340.0945,80,64,40
340.0945,340.21927,78,64,40
340.21927,340.34402,73,64,40
340.7183,341.09256,73,64,40
341.09256,341.46683,78,64,40
341.46683,341.8411,81,64,40
341.8411,341.96585,66,64,40
341.96585,342.0906,68,64,40
342.0906,342.21536,69,64,40
342.21536,342.34012,70,64,40
342.34012,342.46487,71,64,40
342.46487,342.58963,73,64,40
342.58963,342.7144,74,64,40
342.7144,342.83914,75,64,40
342.83914,342.9639,76,64,40
342.9639,343.08865,80,64,40
343.08865,343.2134,78,62,40
343.2134,343.33817,76,58,40
343.33817,343.46292,81,64,40
343.46292,343.58768,83,64,40
343.58768,343.65005,81,64,40
343.71243,343.8372,80,64,40
343.8372,343.96194,81,64,40
343.96194,344.02432,80,64,40
344.0867,344.46097,81,64,40
344.83524,344.96,73,100,40
344.96,345.08475,74,100,40
345.08475,345.2095,75,100,40
345.2095,345.33426,76,100,40
345.33426,345.459,75,100,40
345.459,345.58377,76,100,40
345.58377,345.70853,85,100,40
345.70853,345.83328,83,96,40
345.83328,345.95804,81,92,40
345.95804,346.0828,83,100,40
346.0828,346.20755,81,100,40
346.20755,346.3323,76,100,40
346.70657,347.08084,76,100,40
347.08084,347.4551,81,100,40
347.4551,347.8294,85,100,40
347.8294,347.95416,69,100,40
347.95416,348.07892,70,100,40
348.07892,348.20367,71,100,40
348.20367,348.32843,73,100,40
348.32843,348.4532,72,100,40
348.4532,348.57794,73,100,40
348.57794,348.7027,81,100,40
348.7027,348.82745,80,96,40
348.82745,348.9522,77,92,40
348.9522,349.07697,80,100,40
349.07697,349.20172,78,100,40
349.20172,349.32648,73,100,40
349.70074,350.075,73,100,40
350.075,350.44928,78,100,40
350.44928,350.82355,81,100,40
350.82355,350.9483,66,100,40
350.9483,351.07306,68,100,40
351.07306,351.1978,69,100,40
351.1978,351.32257,70,100,40
351.32257,351.44733,71,100,40
351.44733,351.57208,73,100,40
351.57208,351.69684,74,100,40
351.69684,351.8216,75,100,40
351.8216,351.94635,76,100,40
351.94635,352.0711,80,100,40
352.0711,352.19586,78,100,40
352.19586,352.32062,76,100,40
352.32062,352.44537,81,100,40
352.44537,352.57013,83,100,40
352.57013,352.6325,81,100,40
352.6949,352.81964,80,100,40
352.81964,352.9444,81,100,40
352.9444,353.00677,80,100,40
353.06915,353.13153,81,100,40
353.1939,353.2563,64,64,40
353.31866,353.38104,64,64,40
353.44342,353.5058,64,64,40
353.56818,353.63055,64,64,40
353.69293,353.7553,64,64,40
353.8177,353.94244,64,64,40
353.94244,354.0672,66,64,40
354.0672,354.12958,64,64,40
354.19196,354.3167,64,64,40
354.3167,354.44147,66,64,40
354.44147,354.50385,64,64,40
354.56622,354.69098,64,64,40
354.69098,354.81573,66,64,40
354.81573,354.8781,64,64,40
354.9405,355.06525,64,64,40
355.06525,355.19,66,64,40
355.19,355.25238,64,64,40
355.31476,355.4395,64,64,40
355.4395,355.56427,66,64,40
355.56427,355.62668,64,64,40
355.68906,355.8138,64,64,40
355.8138,355.93857,66,64,40
355.93857,356.00095,64,64,40
356.06332,356.18808,64,64,40
356.18808,356.31284,66,64,40
356.31284,356.3752,64,64,40
356.4376,356.56235,64,64,40
356.56235,356.6871,66,64,40
356.6871,356.74948,64,64,40
356.81186,356.9366,69,64,40
356.9366,357.06137,71,64,40
357.06137,357.12375,69,64,40
357.18613,357.31088,69,64,40
357.31088,357.43564,71,64,40
357.43564,357.49802,69,64,40
357.5604,357.68515,66,64,40
357.68515,357.8099,68,64,40
357.8099,357.87228,66,64,40
357.93466,358.05942,66,64,40
358.05942,358.18417,68,64,40
358.18417,358.24655,66,64,40
358.30893,358.4337,64,64,40
358.4337,358.55844,66,64,40
358.55844,358.62082,64,64,40
358.6832,358.80795,64,64,40
358.80795,358.9327,66,64,40
358.9327,358.9951,64,64,40
359.05746,359.18222,64,64,40
359.18222,359.30698,66,64,40
359.30698,359.36935,64,64,40
359.43173,359.5565,64,64,40
359.5565,359.68124,66,64,40
359.68124,359.74362,64,64,40
359.806,360.18027,57,64,40
361.30307,362.0516,57,75,40
362.0516,362.42587,56,64,40
362.80014,363.54868,62,75,40
363.54868,363.92297,61,64,40
364.29724,364.85864,66,64,40
364.85864,365.04578,68,64,40
365.04578,365.7943,69,74,40
365.7943,366.54285,59,64,40
366.54285,367.29138,64,64,40
367.29138,367.35376,57,110,40
367.41614,367.47852,60,110,40
367.5409,367.60327,64,110,40
367.66565,367.72803,69,110,40
367.7904,367.85278,72,110,40
367.91516,367.97754,76,110,40
368.03992,368.41418,81,110,40
368.78845,368.85083,55,110,40
368.9132,368.9756,59,110,40
369.03796,369.10034,62,110,40
369.16272,369.2251,67,110,40
369.28748,369.34985,71,110,40
369.41223,369.4746,74,110,40
369.537,369.91125,79,110,40
370.28552,370.3479,60,110,40
370.41028,370.47266,64,110,40
370.53503,370.5974,67,110,40
370.6598,370.72217,72,110,40
370.78455,370.84692,76,110,40
370.9093,370.97168,79,110,40
371.03406,371.40833,84,110,40
376.27383,376.6481,72,64,40
376.6481,377.02237,73,67,40
377.02237,377.39664,74,69,40
377.39664,377.7709,75,72,40
377.7709,378.47266,76,74,40
378.47266,378.51944,69,65,40
378.51944,378.70657,68,64,40
378.70657,378.8937,66,64,40
378.8937,379.08084,68,64,40
379.08084,379.26797,71,64,40
379.26797,379.54868,69,100,40
379.54868,379.64224,57,100,40
379.64224,379.76703,57,100,40
379.76703,379.89178,61,100,40
379.89178,380.01654,64,100,40
380.01654,380.29724,69,100,40
380.29724,380.3908,61,100,40
380.3908,380.51556,61,100,40
380.51556,380.64032,64,100,40
380.64032,380.76508,69,100,40
380.76508,381.04578,73,100,40
381.04578,381.13934,64,100,40
381.13934,381.2641,64,100,40
381.2641,381.38885,69,100,40
381.38885,381.5136,73,100,40
381.5136,381.7943,76,100,40
381.7943,381.88788,69,100,40
381.88788,382.01263,69,100,40
382.01263,382.1374,73,100,40
382.1374,382.26215,76,100,40
382.26215,382.6466,81,100,40
383.0556,383.49243,81,100,40
383.0556,383.49243,73,100,40
383.0556,383.49243,57,100,40
383.0556,383.49243,64,100,40
383.9612,384.46695,57,100,40
383.9612,384.46695,73,100,40
383.9612,384.46695,81,100,40
383.9612,384.46695,64,100,40
2.0,4.497076,64,100,41
4.497076,4.809725,59,54,41
4.809725,4.8582582,61,54,41
4.8582582,4.905901,59,54,41
4.905901,5.0930357,57,54,41
5.0930357,5.186603,56,54,41
5.28017,5.654439,57,54,41
5.654439,6.028708,57,54,41
6.028708,6.3094096,59,54,41
6.3094096,6.3561935,61,54,41
6.3561935,6.402977,59,54,41
6.402977,6.5901117,57,54,41
6.5901117,6.6836786,56,54,41
6.777246,7.525784,57,54,41
10.519937,10.800638,61,64,41
10.800638,10.847422,62,64,41
10.847422,10.894205,61,64,41
10.894205,11.08134,59,64,41
11.08134,11.174907,57,64,41
11.268474,11.642743,57,64,41
11.642743,12.017012,57,64,41
12.017012,12.204146,57,74,41
12.204146,12.391281,58,64,41
12.391281,12.484848,58,64,41
12.578416,12.671983,58,64,41
12.76555,13.139819,58,64,41
13.139819,13.326954,59,64,41
13.514088,13.79479,59,64,41
13.79479,13.841574,61,64,41
13.841574,13.888357,59,64,41
13.888357,14.075492,57,64,41
14.075492,14.169059,56,64,41
14.262626,14.636895,56,64,41
14.636895,15.011164,56,64,41
15.011164,15.385433,56,74,41
15.385433,15.479,56,64,41
15.572568,15.666135,56,64,41
15.759702,16.13397,56,64,41
16.13397,16.321106,57,64,41
22.496544,22.777246,61,64,41
22.777246,22.82403,62,64,41
22.82403,22.870813,61,64,41
22.870813,23.057947,59,64,41
23.057947,23.151514,57,64,41
23.245083,23.61935,57,64,41
23.61935,23.99362,57,64,41
23.99362,24.180754,57,74,41
24.180754,24.36789,58,64,41
24.36789,24.461456,58,64,41
24.555023,24.64859,58,64,41
24.742159,25.116426,58,64,41
25.116426,25.303562,59,64,41
25.490696,25.771399,59,64,41
25.771399,25.818182,61,64,41
25.818182,25.864965,59,64,41
25.864965,26.0521,57,64,41
26.0521,26.145666,56,64,41
26.239235,26.613503,56,64,41
26.613503,26.987772,56,64,41
26.987772,27.362041,56,74,41
27.362041,27.455608,56,64,41
27.549175,27.642742,56,64,41
27.736311,28.110579,56,64,41
28.110579,28.297714,57,64,41
34.473152,36.85086,64,100,41
36.85086,37.16351,59,54,41
37.16351,37.212044,61,54,41
37.212044,37.259686,59,54,41
37.259686,37.44682,57,54,41
37.44682,37.540386,56,54,41
37.633953,38.008224,57,54,41
38.008224,38.382492,57,54,41
38.382492,38.663193,59,54,41
38.663193,38.709976,61,54,41
38.709976,38.75676,59,54,41
38.75676,38.943897,57,54,41
38.943897,39.037464,56,54,41
39.13103,39.87957,57,54,41
42.873722,43.154423,57,100,41
43.154423,43.201206,59,100,41
43.201206,43.24799,57,100,41
43.24799,43.435123,55,100,41
43.435123,43.52869,53,100,41
43.622257,43.99653,52,100,41
43.99653,44.370796,52,100,41
44.370796,44.745064,62,100,41
44.370796,44.745064,68,100,41
44.745064,45.119335,62,100,41
44.745064,45.119335,68,100,41
45.119335,45.493603,69,100,41
45.119335,45.493603,60,100,41
45.493603,46.055008,71,127,41
45.493603,46.055008,65,127,41
46.055008,46.148575,72,100,41
46.055008,46.148575,64,100,41
46.24214,46.33571,72,100,41
46.24214,46.33571,64,100,41
46.429276,46.522842,72,100,41
46.429276,46.522842,64,100,41
46.61641,46.803543,72,100,41
46.61641,46.803543,64,100,41
46.99068,47.177814,67,100,41
47.36495,47.552082,67,100,41
47.739216,47.926353,65,100,41
47.739216,47.926353,55,100,41
48.113487,48.30062,55,100,41
48.113487,48.30062,64,100,41
48.862022,49.423428,60,64,41
49.423428,49.61056,62,64,41
49.61056,49.797695,64,64,41
49.984833,50.3591,71,64,41
50.3591,50.546234,68,64,41
50.733368,50.920506,68,64,41
51.10764,51.294773,69,64,41
51.481907,52.043312,67,100,41
51.481907,52.043312,71,100,41
52.043312,52.13688,67,64,41
52.043312,52.13688,71,64,41
52.230446,52.324013,67,64,41
52.230446,52.324013,71,64,41
52.41758,52.511147,67,64,41
52.41758,52.511147,71,64,41
52.604713,52.791847,72,64,41
52.978985,53.07255,69,64,41
53.16612,53.259686,69,64,41
53.353252,53.540386,72,64,41
53.72752,53.914658,65,64,41
53.72752,53.914658,71,64,41
54.10179,54.288925,64,64,41
54.10179,54.288925,72,64,41
54.850327,55.13103,57,100,41
55.13103,55.177814,59,100,41
55.177814,55.224598,57,100,41
55.224598,55.41173,55,100,41
55.41173,55.5053,53,100,41
55.598866,55.973137,52,100,41
55.973137,56.347404,52,100,41
56.347404,56.721672,62,100,41
56.347404,56.721672,68,100,41
56.721672,57.095943,62,100,41
56.721672,57.095943,68,100,41
57.095943,57.47021,69,100,41
57.095943,57.47021,60,100,41
57.47021,58.031616,71,127,41
57.47021,58.031616,65,127,41
58.031616,58.125183,72,100,41
58.031616,58.125183,64,100,41
58.21875,58.312317,72,100,41
58.21875,58.312317,64,100,41
58.405884,58.49945,72,100,41
58.405884,58.49945,64,100,41
58.593018,58.78015,72,100,41
58.593018,58.78015,64,100,41
58.96729,59.154423,67,100,41
59.341557,59.52869,67,100,41
59.715824,59.902958,65,100,41
59.715824,59.902958,55,100,41
60.090096,60.27723,55,100,41
60.090096,60.27723,64,100,41
64.95559,65.517,67,100,41
64.95559,65.517,59,100,41
65.517,65.610565,67,64,41
65.517,65.610565,59,64,41
65.70413,65.7977,67,64,41
65.70413,65.7977,59,64,41
65.891266,65.98483,67,64,41
65.891266,65.98483,59,64,41
66.0784,66.45267,67,64,41
66.0784,66.45267,60,64,41
67.949745,68.51115,56,100,41
68.51115,68.60471,56,64,41
68.69828,68.79185,56,64,41
68.885414,68.97898,56,64,41
69.07255,69.446815,57,64,41
70.94389,71.5053,64,74,41
70.94389,71.5053,60,74,41
71.5053,71.59887,64,64,41
71.5053,71.59887,60,64,41
71.69244,71.786,64,62,41
71.69244,71.786,60,62,41
71.87957,71.97314,64,59,41
71.87957,71.97314,60,59,41
72.0667,72.44097,60,55,41
72.0667,72.44097,65,55,41
73.94232,74.528725,57,64,41
74.528725,74.62874,57,54,41
74.7294,74.83078,57,54,41
74.932816,75.035576,57,54,41
75.13902,75.99351,57,54,41
75.99351,76.89973,58,59,41
76.89973,78.36339,57,65,41
78.36339,78.86241,55,57,41
78.86241,79.29939,54,86,41
79.29939,79.860794,62,100,41
79.860794,80.04793,66,86,41
80.04793,80.23506,64,86,41
80.23506,80.422195,62,86,41
80.422195,81.17074,69,86,41
81.17074,81.545006,66,86,41
81.545006,81.91927,62,86,41
81.91927,82.29354,57,86,41
85.2877,85.8491,62,74,41
85.8491,86.03623,66,64,41
86.03623,86.223366,64,64,41
86.223366,86.4105,62,64,41
86.4105,87.15904,69,64,41
87.15904,87.53331,66,64,41
87.53331,87.90758,62,64,41
87.90758,88.281845,57,64,41
91.276,91.8374,62,100,41
91.8374,92.024536,66,86,41
92.024536,92.21167,64,86,41
92.21167,92.3988,62,86,41
92.3988,93.14735,69,86,41
93.14735,93.521614,68,93,41
93.521614,93.89588,66,96,41
93.89588,95.39296,73,100,41
95.39296,96.51576,68,77,41
96.51576,96.702896,69,60,41
96.702896,96.89003,71,57,41
96.89003,97.07717,69,54,41
97.07717,97.264305,69,54,41
97.264305,97.35787,69,54,41
97.45144,97.545006,69,54,41
97.63857,98.01284,69,64,41
98.01284,98.10641,69,54,41
98.199974,98.29354,69,54,41
98.38711,98.761375,69,54,41
98.761375,98.85494,69,54,41
98.94852,99.04208,69,54,41
99.13565,99.50992,69,64,41
99.50992,99.603485,69,54,41
99.69705,99.79062,69,54,41
99.884186,100.25845,69,54,41
100.25845,100.35202,69,54,41
100.44559,100.539154,69,54,41
100.63272,101.006996,69,64,41
101.006996,101.10056,69,54,41
101.19413,101.2877,69,54,41
101.38126,101.75553,69,54,41
101.75553,101.8491,69,54,41
101.942665,102.03623,69,54,41
102.1298,102.50407,69,54,41
102.50407,102.59763,69,54,41
102.6912,102.78477,69,54,41
102.878334,103.065475,69,54,41
103.065475,103.25261,67,54,41
103.25261,103.346176,67,54,41
103.43974,103.53331,67,54,41
103.62688,103.81401,67,54,41
103.81401,104.001144,71,51,41
104.001144,104.09471,71,49,41
104.18828,104.281845,71,46,41
104.37541,104.74968,71,54,41
104.74968,104.84325,71,54,41
104.93682,105.03039,71,54,41
105.123955,105.49822,71,54,41
105.49822,105.59179,71,49,41
105.685356,105.77892,71,47,41
105.87249,106.24676,71,54,41
106.24676,106.340324,71,54,41
106.43389,106.52746,71,54,41
106.621025,106.9953,71,54,41
106.9953,107.08887,71,49,41
107.182434,107.276,71,47,41
107.36957,107.743835,71,54,41
107.743835,107.8374,71,54,41
107.93097,108.024536,71,54,41
108.1181,108.49237,71,54,41
108.49237,108.58594,71,54,41
108.679504,108.77307,71,54,41
108.86664,109.24091,71,54,41
109.24091,109.33448,71,54,41
109.42805,109.521614,71,54,41
109.61518,109.802315,71,54,41
109.802315,109.98945,74,51,41
109.98945,110.083015,74,49,41
110.17658,110.27015,74,46,41
110.363716,110.73798,74,44,41
110.73798,110.83155,74,45,41
110.92512,111.01869,74,46,41
111.11226,111.48653,74,46,41
111.48653,111.58009,74,47,41
111.67366,111.76723,74,48,41
111.860794,112.23506,74,48,41
112.23506,112.32863,74,49,41
112.422195,112.51576,74,50,41
112.60933,112.79646,74,50,41
112.79646,112.983604,72,51,41
112.983604,113.07717,72,51,41
113.17074,113.264305,72,52,41
113.35787,113.545006,72,52,41
113.545006,113.73214,70,53,41
113.73214,113.82571,70,53,41
113.91927,114.01284,70,54,41
114.10641,114.29354,70,54,41
114.29354,114.480675,69,53,41
114.480675,114.57424,69,53,41
114.66781,114.761375,69,52,41
114.85494,115.04208,69,52,41
115.04208,115.22922,71,51,41
115.22922,115.322784,71,51,41
115.41635,115.50992,71,50,41
115.603485,115.79062,71,50,41
115.79062,115.97775,69,49,41
115.97775,116.07132,69,48,41
116.16489,116.25845,69,48,41
116.35202,116.539154,69,47,41
116.539154,116.72629,67,47,41
116.72629,116.819855,67,46,41
116.91342,117.006996,67,46,41
117.10056,117.38126,69,64,41
117.38126,117.42805,71,64,41
117.42805,117.47483,69,64,41
117.47483,117.661964,67,64,41
117.661964,117.75553,66,64,41
117.8491,118.223366,66,64,41
118.223366,118.59763,66,64,41
118.59763,118.878334,69,64,41
118.878334,118.92512,71,64,41
118.92512,118.9719,69,64,41
118.9719,119.15904,67,64,41
119.15904,119.25261,66,64,41
119.346176,119.72044,66,64,41
119.72044,120.09471,66,64,41
120.09471,120.281845,71,64,41
120.281845,120.46898,69,64,41
120.46898,120.65611,69,64,41
120.65611,120.84325,67,64,41
120.84325,121.59179,67,75,41
121.59179,121.77892,71,64,41
121.77892,121.96606,69,64,41
121.96606,122.15319,69,64,41
122.15319,122.340324,67,64,41
122.340324,123.08887,67,75,41
123.08887,123.36957,67,64,41
123.36957,123.41635,69,64,41
123.41635,123.463135,67,64,41
123.463135,123.65027,66,64,41
123.65027,123.743835,64,64,41
123.8374,124.21167,64,64,41
124.21167,124.58594,64,64,41
124.58594,124.86664,67,64,41
124.86664,124.91342,69,64,41
124.91342,124.960205,67,64,41
124.960205,125.14735,66,64,41
125.14735,125.24091,64,64,41
125.33448,125.70875,64,64,41
125.70875,126.083015,64,64,41
126.083015,126.27015,69,64,41
126.27015,126.45728,67,64,41
126.45728,126.64442,67,64,41
126.64442,126.83155,66,64,41
126.83155,127.58009,66,75,41
127.58009,127.76723,69,64,41
127.76723,127.95436,67,64,41
127.95436,128.1415,67,64,41
128.1415,128.32863,66,64,41
128.32863,129.07716,66,75,41
132.44559,132.81985,53,84,41
132.81985,133.19412,58,89,41
133.19412,133.56839,62,95,41
133.56839,134.69121,63,100,41
134.69121,135.06548,66,86,41
135.06548,135.25261,65,86,41
135.43974,135.81401,53,84,41
135.81401,136.18828,58,89,41
136.18828,136.56255,62,95,41
136.56255,137.68535,63,100,41
137.68535,138.05962,66,86,41
138.05962,138.24677,65,86,41
138.4339,138.80817,62,100,41
138.80817,139.18243,65,103,41
139.18243,139.5567,70,107,41
139.5567,141.05377,74,110,41
141.05377,141.2409,66,100,41
141.05377,141.2409,69,100,41
141.42804,141.8023,66,100,41
141.8023,142.17659,69,103,41
142.17659,142.55086,74,107,41
142.55086,143.67366,73,110,41
143.67366,144.04793,76,100,41
144.04793,144.17268,50,54,41
144.04793,144.17268,57,54,41
144.17268,144.29744,57,54,41
144.17268,144.29744,50,54,41
144.29744,144.4222,50,54,41
144.29744,144.4222,57,54,41
144.4222,144.54695,50,54,41
144.4222,144.54695,57,54,41
144.54695,144.6717,57,54,41
144.54695,144.6717,50,54,41
144.6717,144.79646,50,54,41
144.6717,144.79646,57,54,41
144.79646,144.92122,50,54,41
144.79646,144.92122,57,54,41
144.92122,145.04597,57,54,41
144.92122,145.04597,50,54,41
145.04597,145.17073,50,54,41
145.04597,145.17073,57,54,41
145.17073,145.29549,50,54,41
145.17073,145.29549,57,54,41
145.29549,145.42024,57,54,41
145.29549,145.42024,50,54,41
145.42024,145.545,50,54,41
145.42024,145.545,57,54,41
145.545,145.66975,50,54,41
145.545,145.66975,57,54,41
145.66975,145.79451,57,54,41
145.66975,145.79451,50,54,41
145.79451,145.91927,50,54,41
145.79451,145.91927,57,54,41
145.91927,146.04402,50,54,41
145.91927,146.04402,57,54,41
146.04402,146.1688,57,54,41
146.04402,146.1688,50,54,41
146.1688,146.29355,50,54,41
146.1688,146.29355,57,54,41
146.29355,146.4183,50,54,41
146.29355,146.4183,57,54,41
146.4183,146.54306,57,54,41
146.4183,146.54306,50,54,41
146.54306,146.66782,50,54,41
146.54306,146.66782,57,54,41
146.66782,146.79257,50,54,41
146.66782,146.79257,57,54,41
146.79257,146.91733,57,54,41
146.79257,146.91733,50,54,41
146.91733,147.04208,50,54,41
146.91733,147.04208,57,54,41
147.04208,147.16684,59,54,41
147.04208,147.16684,54,54,41
147.16684,147.2916,59,54,41
147.16684,147.2916,54,54,41
147.2916,147.41635,59,54,41
147.2916,147.41635,54,54,41
147.41635,147.5411,59,54,41
147.41635,147.5411,54,54,41
147.5411,147.66586,59,54,41
147.5411,147.66586,54,54,41
147.66586,147.79062,59,54,41
147.66586,147.79062,54,54,41
147.79062,147.91537,59,54,41
147.79062,147.91537,54,54,41
147.91537,148.04013,59,54,41
147.91537,148.04013,54,54,41
148.04013,148.16489,59,54,41
148.04013,148.16489,54,54,41
148.16489,148.28964,59,54,41
148.16489,148.28964,54,54,41
148.28964,148.4144,59,54,41
148.28964,148.4144,54,54,41
148.4144,148.53915,59,54,41
148.4144,148.53915,54,54,41
148.53915,148.66391,59,54,41
148.53915,148.66391,54,54,41
148.66391,148.78867,59,54,41
148.66391,148.78867,54,54,41
148.78867,148.91342,59,54,41
148.78867,148.91342,54,54,41
148.91342,149.03818,59,54,41
148.91342,149.03818,54,54,41
149.03818,149.16293,59,54,41
149.03818,149.16293,54,54,41
149.16293,149.28769,59,54,41
149.16293,149.28769,54,54,41
149.28769,149.41245,59,54,41
149.28769,149.41245,54,54,41
149.41245,149.5372,59,54,41
149.41245,149.5372,54,54,41
149.5372,149.66196,59,54,41
149.5372,149.66196,54,54,41
149.66196,149.78671,59,54,41
149.66196,149.78671,54,54,41
149.78671,149.91147,59,54,41
149.78671,149.91147,54,54,41
149.91147,150.03622,59,54,41
149.91147,150.03622,54,54,41
150.03622,150.161,52,54,41
150.161,150.28575,52,54,41
150.28575,150.4105,52,54,41
150.4105,150.53526,54,54,41
150.53526,150.66002,54,54,41
150.66002,150.78477,55,54,41
150.78477,150.90953,57,54,41
150.90953,151.03429,57,54,41
151.03429,151.15904,57,54,41
151.15904,151.2838,57,54,41
151.2838,151.40855,57,54,41
151.40855,151.53331,57,54,41
151.53331,151.65807,66,54,41
151.53331,151.65807,57,54,41
151.65807,151.78282,66,54,41
151.65807,151.78282,57,54,41
151.78282,151.90758,66,54,41
151.78282,151.90758,57,54,41
151.90758,152.03233,57,54,41
151.90758,152.03233,67,54,41
152.03233,152.15709,57,54,41
152.03233,152.15709,67,54,41
152.15709,152.28185,57,54,41
152.15709,152.28185,67,54,41
152.28185,152.4066,66,54,41
152.28185,152.4066,57,54,41
152.4066,152.53136,57,59,41
152.4066,152.53136,50,59,41
152.53136,152.65611,57,68,41
152.53136,152.65611,50,68,41
152.65611,152.78087,57,75,41
152.65611,152.78087,50,75,41
152.78087,152.90562,57,82,41
152.78087,152.90562,50,82,41
152.90562,153.03038,57,92,41
152.90562,153.03038,50,92,41
153.03038,153.15514,57,100,41
153.03038,153.15514,50,100,41
153.15514,153.27989,57,100,41
153.15514,153.27989,50,100,41
153.27989,153.40465,57,100,41
153.27989,153.40465,50,100,41
153.40465,153.5294,57,100,41
153.40465,153.5294,50,100,41
153.5294,153.65416,57,100,41
153.5294,153.65416,50,100,41
153.65416,153.77892,57,100,41
153.65416,153.77892,50,100,41
153.77892,153.90367,57,100,41
153.77892,153.90367,50,100,41
153.90367,154.02843,57,100,41
153.90367,154.02843,50,100,41
154.02843,154.1532,57,100,41
154.02843,154.1532,50,100,41
154.1532,154.27795,57,100,41
154.1532,154.27795,50,100,41
154.27795,154.40271,57,100,41
154.27795,154.40271,50,100,41
154.40271,154.52747,57,100,41
154.40271,154.52747,50,100,41
154.52747,154.65222,57,100,41
154.52747,154.65222,50,100,41
154.65222,154.77698,57,100,41
154.65222,154.77698,50,100,41
154.77698,154.90173,57,100,41
154.77698,154.90173,50,100,41
154.90173,155.02649,57,100,41
154.90173,155.02649,50,100,41
155.02649,155.15125,57,100,41
155.02649,155.15125,50,100,41
155.15125,155.276,57,100,41
155.15125,155.276,50,100,41
155.276,155.40076,57,100,41
155.276,155.40076,50,100,41
155.40076,155.52551,57,100,41
155.40076,155.52551,50,100,41
155.52551,155.65027,57,100,41
155.52551,155.65027,50,100,41
155.65027,155.77502,57,100,41
155.65027,155.77502,50,100,41
155.77502,155.89978,57,100,41
155.77502,155.89978,50,100,41
155.89978,156.02454,57,100,41
155.89978,156.02454,50,100,41
156.02454,156.14929,59,100,41
156.02454,156.14929,54,100,41
156.14929,156.27405,59,100,41
156.14929,156.27405,54,100,41
156.27405,156.3988,59,100,41
156.27405,156.3988,54,100,41
156.3988,156.52356,59,100,41
156.3988,156.52356,54,100,41
156.52356,156.64832,59,100,41
156.52356,156.64832,54,100,41
156.64832,156.77307,59,100,41
156.64832,156.77307,54,100,41
156.77307,156.89783,59,100,41
156.77307,156.89783,54,100,41
156.89783,157.02258,59,100,41
156.89783,157.02258,54,100,41
157.02258,157.14734,59,100,41
157.02258,157.14734,54,100,41
157.14734,157.2721,59,100,41
157.14734,157.2721,54,100,41
157.2721,157.39685,59,100,41
157.2721,157.39685,54,100,41
157.39685,157.5216,59,100,41
157.39685,157.5216,54,100,41
157.5216,157.64636,59,100,41
157.5216,157.64636,54,100,41
157.64636,157.77112,59,100,41
157.64636,157.77112,54,100,41
157.77112,157.89587,59,100,41
157.77112,157.89587,54,100,41
157.89587,158.02063,59,100,41
157.89587,158.02063,54,100,41
158.02063,158.14539,59,100,41
158.02063,158.14539,54,100,41
158.14539,158.27016,59,100,41
158.14539,158.27016,54,100,41
158.27016,158.39491,59,100,41
158.27016,158.39491,54,100,41
158.39491,158.51967,59,100,41
158.39491,158.51967,54,100,41
158.51967,158.64442,59,100,41
158.51967,158.64442,54,100,41
158.64442,158.76918,59,100,41
158.64442,158.76918,54,100,41
158.76918,158.89394,59,100,41
158.76918,158.89394,54,100,41
158.89394,159.01869,59,100,41
158.89394,159.01869,54,100,41
159.01869,159.14345,52,100,41
159.14345,159.2682,52,100,41
159.2682,159.39296,52,100,41
159.39296,159.51772,54,100,41
159.51772,159.64247,54,100,41
159.64247,159.76723,55,100,41
159.76723,159.89198,57,100,41
159.89198,160.01674,57,100,41
160.01674,160.1415,57,100,41
160.1415,160.26625,57,100,41
160.26625,160.391,57,100,41
160.391,160.51576,57,100,41
160.51576,160.64052,66,100,41
160.51576,160.64052,57,100,41
160.64052,160.76527,66,100,41
160.64052,160.76527,57,100,41
160.76527,160.89003,66,100,41
160.76527,160.89003,57,100,41
160.89003,161.01479,57,100,41
160.89003,161.01479,67,100,41
161.01479,161.13954,57,100,41
161.01479,161.13954,67,100,41
161.13954,161.2643,57,100,41
161.13954,161.2643,67,100,41
161.2643,161.63857,66,100,41
161.2643,161.63857,57,100,41
168.1259,168.25066,66,64,41
168.25066,168.37541,64,64,41
168.37541,168.50017,62,64,41
168.50017,168.62492,61,64,41
168.62492,168.74968,59,64,41
168.74968,168.81206,57,64,41
168.87444,168.93681,57,64,41
168.99919,169.06157,57,64,41
169.12395,169.18633,57,64,41
169.2487,169.31108,57,64,41
169.37346,169.43584,57,64,41
169.49821,169.62297,57,64,41
169.62297,169.74773,59,64,41
169.74773,169.8101,57,64,41
169.87248,169.99724,57,64,41
169.99724,170.122,59,64,41
170.122,170.18437,57,64,41
170.24677,170.37152,57,64,41
170.37152,170.49628,59,64,41
170.49628,170.55865,57,64,41
170.62103,170.74579,57,64,41
170.74579,170.87054,59,64,41
170.87054,170.93292,57,64,41
170.9953,171.12006,57,64,41
171.12006,171.24481,59,64,41
171.24481,171.30719,57,64,41
171.36957,171.49432,57,64,41
171.49432,171.61908,59,64,41
171.61908,171.68146,57,64,41
171.74384,171.86859,57,64,41
171.86859,171.99335,59,64,41
171.99335,172.05573,57,64,41
172.1181,172.24286,57,64,41
172.24286,172.36761,59,64,41
172.36761,172.43,57,64,41
172.49237,172.61713,62,64,41
172.61713,172.74188,64,64,41
172.74188,172.80426,62,64,41
172.86664,172.9914,62,64,41
172.9914,173.11615,64,64,41
173.11615,173.17853,62,64,41
173.2409,173.36566,62,64,41
173.36566,173.49042,64,64,41
173.49042,173.5528,62,64,41
173.61517,173.73993,62,64,41
173.73993,173.86469,64,64,41
173.86469,173.92706,62,64,41
173.98944,174.1142,62,64,41
174.1142,174.23897,57,64,41
174.23897,174.30135,62,64,41
174.36372,174.48848,62,64,41
174.48848,174.61324,57,64,41
174.61324,174.67561,62,64,41
174.73799,174.86275,61,64,41
174.86275,174.9875,57,64,41
174.9875,175.04988,61,64,41
175.11226,175.23701,61,64,41
175.23701,175.36177,57,64,41
175.36177,175.42415,61,64,41
175.48653,175.5801,62,110,41
175.67366,176.04793,62,110,41
175.67366,176.04793,65,110,41
176.04793,176.60933,65,110,41
176.04793,176.60933,62,110,41
176.9836,177.17073,58,110,41
176.9836,177.17073,67,110,41
177.17073,177.545,67,110,41
177.17073,177.545,58,110,41
177.545,178.1064,58,110,41
177.545,178.1064,67,110,41
178.48068,178.66782,63,110,41
178.48068,178.66782,72,110,41
178.66782,179.04208,72,110,41
178.66782,179.04208,63,110,41
179.04208,179.60349,63,110,41
179.04208,179.60349,72,110,41
184.46898,185.96605,74,64,41
185.96605,186.34033,74,74,41
186.34033,186.7146,69,69,41
186.7146,187.46313,67,64,41
187.46313,187.8374,66,64,41
188.1181,188.21167,74,100,41
188.1181,188.21167,66,100,41
188.21167,188.58594,66,100,41
188.21167,188.58594,74,100,41
188.86664,188.9602,69,100,41
188.86664,188.9602,66,100,41
188.9602,189.33447,66,100,41
188.9602,189.33447,69,100,41
189.61517,189.70874,66,100,41
189.61517,189.70874,62,100,41
189.70874,190.08301,62,100,41
189.70874,190.08301,66,100,41
190.36372,190.45729,62,100,41
190.36372,190.45729,57,100,41
190.45729,190.84032,57,100,41
191.24419,191.67128,74,100,41
191.24419,191.67128,66,100,41
191.24419,191.67128,57,100,41
191.24419,191.67128,50,100,41
192.12445,192.5932,50,100,41
192.12445,192.5932,57,100,41
192.12445,192.5932,66,100,41
192.12445,192.5932,74,100,41
193.99945,196.43402,71,100,41
196.43402,196.74667,66,54,41
196.74667,196.79521,68,54,41
196.79521,196.84285,66,54,41
196.84285,197.02998,64,54,41
197.02998,197.12355,63,54,41
197.21712,197.59138,64,54,41
197.59138,197.96565,64,54,41
197.96565,198.24635,66,54,41
198.24635,198.29315,68,54,41
198.29315,198.33994,66,54,41
198.33994,198.52707,64,54,41
198.52707,198.62064,63,54,41
198.7142,199.46274,64,54,41
202.4569,202.7376,68,64,41
202.7376,202.78438,69,64,41
202.78438,202.83116,68,64,41
202.83116,203.0183,66,64,41
203.0183,203.11186,64,64,41
203.20543,203.5797,64,64,41
203.5797,203.95396,64,64,41
203.95396,204.1411,64,74,41
204.1411,204.32823,65,64,41
204.32823,204.4218,65,64,41
204.51537,204.60893,65,64,41
204.7025,205.07677,65,64,41
205.07677,205.2639,66,64,41
205.45103,205.73174,66,64,41
205.73174,205.77852,68,64,41
205.77852,205.8253,66,64,41
205.8253,206.01244,64,64,41
206.01244,206.106,63,64,41
206.19957,206.57385,63,64,41
206.57385,206.94812,63,64,41
206.94812,207.32239,63,74,41
207.32239,207.41595,63,64,41
207.50952,207.60309,63,64,41
207.69666,208.07092,63,64,41
208.07092,208.25806,64,64,41
214.4335,214.7142,68,64,41
214.7142,214.76099,69,64,41
214.76099,214.80777,68,64,41
214.80777,214.9949,66,64,41
214.9949,215.08847,64,64,41
215.18204,215.5563,64,64,41
215.5563,215.93057,64,64,41
215.93057,216.1177,64,74,41
216.1177,216.30484,65,64,41
216.30484,216.3984,65,64,41
216.49197,216.58554,65,64,41
216.67911,217.05338,65,64,41
217.05338,217.24051,66,64,41
217.42764,217.70834,66,64,41
217.70834,217.75513,68,64,41
217.75513,217.80191,66,64,41
217.80191,217.98904,64,64,41
217.98904,218.08261,63,64,41
218.17618,218.55046,63,64,41
218.55046,218.92473,63,64,41
218.92473,219.299,63,74,41
219.299,219.39256,63,64,41
219.48613,219.5797,63,64,41
219.67326,220.04753,63,64,41
220.04753,220.23466,64,64,41
226.41011,228.65572,71,100,41
228.65572,228.96837,66,54,41
228.96837,229.01689,68,54,41
229.01689,229.06454,66,54,41
229.06454,229.25168,64,54,41
229.25168,229.34525,63,54,41
229.43881,229.81308,64,54,41
229.81308,230.18735,64,54,41
230.18735,230.46805,66,54,41
230.46805,230.51483,68,54,41
230.51483,230.56161,66,54,41
230.56161,230.74875,64,54,41
230.74875,230.84232,63,54,41
230.93588,231.68442,64,54,41
234.67857,234.95927,64,100,41
234.95927,235.00606,66,100,41
235.00606,235.05284,64,100,41
235.05284,235.23997,62,100,41
235.23997,235.33354,60,100,41
235.42711,235.80139,59,100,41
235.80139,236.17566,59,100,41
236.17566,236.54993,69,100,41
236.17566,236.54993,75,100,41
236.54993,236.9242,69,100,41
236.54993,236.9242,75,100,41
236.9242,237.29846,76,100,41
236.9242,237.29846,67,100,41
237.29846,237.85986,72,127,41
237.29846,237.85986,62,127,41
237.85986,237.95343,71,100,41
237.85986,237.95343,62,100,41
238.047,238.14056,71,100,41
238.047,238.14056,62,100,41
238.23413,238.3277,71,100,41
238.23413,238.3277,62,100,41
238.42126,238.6084,71,100,41
238.42126,238.6084,62,100,41
238.79553,238.98267,62,100,41
238.79553,238.98267,69,100,41
239.1698,239.35693,67,100,41
239.54407,239.7312,50,100,41
239.54407,239.7312,66,100,41
239.54407,239.7312,62,100,41
239.91835,240.10548,50,100,41
239.91835,240.10548,55,100,41
239.91835,240.10548,67,100,41
240.66689,241.22829,55,64,41
241.22829,241.41542,57,64,41
241.41542,241.60255,59,64,41
241.78969,242.16396,66,75,41
242.16396,242.35109,63,64,41
242.53822,242.72536,63,64,41
242.91249,243.09962,64,64,41
243.28676,243.84818,62,100,41
243.28676,243.84818,66,100,41
243.84818,243.94174,62,64,41
243.84818,243.94174,66,64,41
244.03531,244.12888,62,64,41
244.03531,244.12888,66,64,41
244.22244,244.31601,62,64,41
244.22244,244.31601,66,64,41
244.40958,244.59671,67,64,41
244.78384,244.87741,64,64,41
244.97098,245.06454,64,64,41
245.15811,245.34525,67,64,41
245.53238,245.71951,66,64,41
245.53238,245.71951,72,64,41
245.90665,246.09378,67,64,41
245.90665,246.09378,71,64,41
246.65518,246.93588,64,100,41
246.93588,246.98267,66,100,41
246.98267,247.02945,64,100,41
247.02945,247.21658,62,100,41
247.21658,247.31015,60,100,41
247.40372,247.77798,59,100,41
247.77798,248.15227,59,100,41
248.15227,248.52654,75,100,41
248.15227,248.52654,66,100,41
248.52654,248.9008,75,100,41
248.52654,248.9008,66,100,41
248.9008,249.27507,76,100,41
248.9008,249.27507,67,100,41
249.27507,249.83647,72,127,41
249.27507,249.83647,66,127,41
249.83647,249.93004,67,100,41
249.83647,249.93004,71,100,41
250.0236,250.11717,67,100,41
250.0236,250.11717,71,100,41
250.21074,250.3043,67,100,41
250.21074,250.3043,71,100,41
250.39787,250.585,67,100,41
250.39787,250.585,71,100,41
250.77214,250.95927,62,100,41
250.77214,250.95927,69,100,41
251.14641,251.33354,71,100,41
251.14641,251.33354,67,100,41
251.52068,251.70781,50,100,41
251.52068,251.70781,66,100,41
251.52068,251.70781,74,100,41
251.89496,252.08209,50,100,41
251.89496,252.08209,67,100,41
256.76044,257.32184,74,100,41
256.76044,257.32184,66,100,41
257.32184,257.4154,74,64,41
257.32184,257.4154,66,64,41
257.50897,257.60254,74,64,41
257.50897,257.60254,66,64,41
257.6961,257.78967,74,64,41
257.6961,257.78967,66,64,41
257.88324,258.25754,74,64,41
257.88324,258.25754,67,64,41
259.7546,260.316,63,100,41
260.316,260.40958,63,64,41
260.50314,260.5967,63,64,41
260.69028,260.78384,63,64,41
260.8774,261.25168,64,64,41
262.74875,263.31015,71,74,41
262.74875,263.31015,67,74,41
263.31015,263.40372,71,64,41
263.31015,263.40372,67,64,41
263.49728,263.59085,71,62,41
263.49728,263.59085,67,62,41
263.68442,263.77798,71,59,41
263.68442,263.77798,67,59,41
263.87155,264.24582,67,55,41
263.87155,264.24582,72,55,41
265.7472,266.3336,64,64,41
266.3336,266.4336,64,54,41
266.53427,266.63562,64,54,41
266.73767,266.84042,64,54,41
266.94388,267.79837,64,54,41
267.79837,268.7046,65,59,41
268.7046,270.16824,64,65,41
270.16824,270.66727,62,57,41
270.66727,271.10425,61,54,41
274.0984,274.6598,64,100,41
274.6598,274.84692,68,86,41
274.84692,275.03406,66,86,41
275.03406,275.2212,64,86,41
275.2212,275.96976,71,86,41
275.96976,276.34402,68,86,41
276.34402,276.7183,62,80,41
276.7183,277.09256,61,74,41
280.0867,280.6481,64,100,41
280.6481,280.83524,68,86,41
280.83524,281.02237,66,86,41
281.02237,281.2095,64,86,41
281.2095,281.95804,71,86,41
281.95804,282.3323,68,86,41
282.3323,282.70657,62,80,41
282.70657,283.08084,61,74,41
286.075,286.6364,61,74,41
286.6364,286.82355,64,64,41
286.82355,287.01068,63,64,41
287.01068,287.1978,61,64,41
287.1978,288.32062,63,74,41
288.32062,288.50775,64,61,41
288.50775,288.6949,66,59,41
288.6949,289.06915,64,58,41
289.06915,289.16272,64,54,41
289.2563,289.34985,64,54,41
289.44342,289.8177,64,64,41
289.8177,289.91125,64,54,41
290.00482,290.0984,64,54,41
290.19196,290.56622,64,54,41
290.56622,290.6598,64,54,41
290.75336,290.84692,64,54,41
290.9405,291.31476,64,64,41
291.31476,291.40836,64,54,41
291.50192,291.5955,64,54,41
291.68906,292.06332,64,54,41
292.06332,292.1569,64,54,41
292.25046,292.34402,64,54,41
292.4376,292.81186,64,64,41
292.81186,292.90543,64,54,41
292.999,293.09256,64,54,41
293.18613,293.5604,64,54,41
293.5604,293.65396,64,54,41
293.74753,293.8411,64,54,41
293.93466,294.30893,64,54,41
294.30893,294.4025,64,54,41
294.49606,294.58963,64,54,41
294.6832,294.87033,64,54,41
294.87033,295.05746,62,54,41
295.05746,295.15103,62,54,41
295.2446,295.33817,62,54,41
295.43173,295.61887,62,54,41
295.61887,295.806,66,51,41
295.806,295.89957,66,49,41
295.99313,296.0867,66,46,41
296.18027,296.55453,66,54,41
296.55453,296.6481,66,54,41
296.74167,296.83524,66,54,41
296.9288,297.30307,66,54,41
297.30307,297.39664,66,49,41
297.4902,297.58377,66,47,41
297.67734,298.0516,66,54,41
298.0516,298.14517,66,54,41
298.23874,298.3323,66,54,41
298.42587,298.80014,66,54,41
298.80014,298.8937,66,49,41
298.98727,299.08084,66,47,41
299.1744,299.5487,66,54,41
299.5487,299.64227,66,54,41
299.73584,299.8294,66,54,41
299.92297,300.29724,66,54,41
300.29724,300.3908,66,54,41
300.48438,300.57794,66,54,41
300.6715,301.04578,66,54,41
301.04578,301.13934,66,54,41
301.2329,301.32648,66,54,41
301.42004,301.60718,66,54,41
301.60718,301.7943,69,51,41
301.7943,301.88788,69,49,41
301.98145,302.075,69,46,41
302.16858,302.54285,69,44,41
302.54285,302.6364,69,45,41
302.72998,302.82355,69,46,41
302.9171,303.29138,69,46,41
303.29138,303.38495,69,47,41
303.47852,303.57208,69,48,41
303.66565,304.03992,69,48,41
304.03992,304.13348,69,49,41
304.22705,304.32062,69,50,41
304.41418,304.60132,69,50,41
304.60132,304.78845,67,51,41
304.78845,304.88202,67,51,41
304.9756,305.06915,67,52,41
305.16272,305.34985,67,52,41
305.34985,305.537,65,53,41
305.537,305.63055,65,53,41
305.72412,305.8177,65,54,41
305.91125,306.0984,65,54,41
306.0984,306.28552,64,53,41
306.28552,306.3791,64,53,41
306.47266,306.56622,64,52,41
306.6598,306.84692,64,52,41
306.84692,307.03406,66,51,41
307.03406,307.12762,66,51,41
307.2212,307.31476,66,50,41
307.40836,307.5955,66,50,41
307.5955,307.78262,64,49,41
307.78262,307.8762,64,48,41
307.96976,308.06332,64,48,41
308.1569,308.34402,64,47,41
308.34402,308.53116,62,47,41
308.53116,308.62473,62,46,41
308.7183,308.81186,62,46,41
308.90543,309.18613,64,64,41
309.18613,309.2329,66,64,41
309.2329,309.2797,64,64,41
309.2797,309.46683,62,64,41
309.46683,309.5604,61,64,41
309.65396,310.02823,61,64,41
310.02823,310.4025,61,64,41
310.4025,310.6832,64,64,41
310.6832,310.72998,66,64,41
310.72998,310.77676,64,64,41
310.77676,310.9639,62,64,41
310.9639,311.05746,61,64,41
311.15103,311.5253,61,64,41
311.5253,311.89957,61,64,41
311.89957,312.0867,66,64,41
312.0867,312.27383,64,64,41
312.27383,312.46097,64,64,41
312.46097,312.6481,62,64,41
312.6481,313.39664,62,75,41
313.39664,313.58377,66,64,41
313.58377,313.7709,64,64,41
313.7709,313.95804,64,64,41
313.95804,314.14517,62,64,41
314.14517,314.8937,62,75,41
314.8937,315.1744,62,64,41
315.1744,315.2212,64,64,41
315.2212,315.26797,62,64,41
315.26797,315.45514,61,64,41
315.45514,315.5487,59,64,41
315.64227,316.01654,59,64,41
316.01654,316.3908,59,64,41
316.3908,316.6715,62,64,41
316.6715,316.7183,64,64,41
316.7183,316.76508,62,64,41
316.76508,316.9522,61,64,41
316.9522,317.04578,59,64,41
317.13934,317.5136,59,64,41
317.5136,317.88788,59,64,41
317.88788,318.075,64,64,41
318.075,318.26215,62,64,41
318.26215,318.44928,62,64,41
318.44928,318.6364,61,64,41
318.6364,319.38495,61,75,41
319.38495,319.57208,64,64,41
319.57208,319.75922,62,64,41
319.75922,319.94635,62,64,41
319.94635,320.13348,61,64,41
320.13348,320.88202,61,75,41
324.25046,324.62473,60,84,41
324.62473,324.999,65,89,41
324.999,325.37326,69,95,41
325.37326,326.49606,70,100,41
326.49606,326.87033,73,86,41
326.87033,327.05746,72,86,41
327.2446,327.61887,60,84,41
327.61887,327.99313,65,89,41
327.99313,328.3674,69,95,41
328.3674,329.4902,70,100,41
329.4902,329.86447,73,86,41
329.86447,330.0516,72,86,41
330.23874,330.613,57,100,41
330.613,330.98727,60,103,41
330.98727,331.36154,65,107,41
331.36154,332.85864,69,110,41
332.85864,333.04578,61,100,41
332.85864,333.04578,64,100,41
333.2329,333.60718,61,100,41
333.60718,333.98145,64,103,41
333.98145,334.3557,69,107,41
334.3557,335.47852,68,110,41
335.47852,335.85278,71,100,41
335.85278,336.22705,69,64,41
336.22705,336.60132,64,64,41
336.60132,336.9756,69,64,41
336.9756,337.34985,73,64,41
337.34985,337.4746,61,64,41
337.4746,337.59937,62,64,41
337.59937,337.72412,63,64,41
337.72412,337.84888,64,64,41
337.84888,337.97363,63,64,41
337.97363,338.0984,64,64,41
338.0984,338.22314,73,64,41
338.22314,338.3479,71,61,41
338.3479,338.47266,69,58,41
338.47266,338.5974,71,54,41
338.5974,338.72217,69,54,41
338.72217,338.84692,64,54,41
339.2212,339.5955,61,64,41
339.5955,339.96976,66,64,41
339.96976,340.34402,69,64,41
340.34402,340.46878,57,64,41
340.46878,340.59354,59,64,41
340.59354,340.7183,60,64,41
340.7183,340.84305,61,64,41
340.84305,340.9678,60,64,41
340.9678,341.09256,61,64,41
341.09256,341.21732,69,64,41
341.21732,341.34207,68,61,41
341.34207,341.46683,65,58,41
341.46683,341.59158,68,54,41
341.59158,341.71634,66,54,41
341.71634,341.8411,61,54,41
341.8411,342.02823,62,64,41
342.21536,342.58963,66,64,41
342.58963,342.652,68,75,41
342.652,342.7144,69,64,41
342.7144,342.77676,68,64,41
342.77676,342.83914,69,64,41
342.83914,342.90152,68,64,41
342.90152,342.9639,69,64,41
342.9639,343.02628,68,64,41
343.02628,343.08865,69,64,41
343.08865,343.15103,68,64,41
343.15103,343.2134,69,64,41
343.2134,343.2758,66,64,41
343.2758,343.33817,68,64,41
343.33817,343.46292,69,64,41
343.46292,343.58768,69,64,41
343.58768,343.71243,69,64,41
343.71243,343.8372,71,64,41
343.8372,343.96194,71,64,41
343.96194,344.0867,71,64,41
344.0867,344.46097,69,64,41
345.2095,345.58377,64,64,41
345.58377,345.95804,69,64,41
345.95804,346.3323,73,64,41
346.3323,346.45706,61,64,41
346.45706,346.58182,62,64,41
346.58182,346.70657,63,64,41
346.70657,346.83133,64,64,41
346.83133,346.9561,63,64,41
346.9561,347.08084,64,64,41
347.08084,347.2056,73,64,41
347.2056,347.33035,71,61,41
347.33035,347.4551,69,58,41
347.4551,347.5799,71,54,41
347.5799,347.70465,69,54,41
347.70465,347.8294,64,54,41
348.20367,348.57794,61,64,41
348.57794,348.9522,66,64,41
348.9522,349.32648,69,64,41
349.32648,349.45123,57,64,41
349.45123,349.576,59,64,41
349.576,349.70074,60,64,41
349.70074,349.8255,61,64,41
349.8255,349.95026,60,64,41
349.95026,350.075,61,64,41
350.075,350.19977,69,64,41
350.19977,350.32452,68,61,41
350.32452,350.44928,65,58,41
350.44928,350.57404,68,54,41
350.57404,350.6988,66,54,41
350.6988,350.82355,61,54,41
350.82355,351.01068,62,64,41
351.1978,351.57208,66,64,41
351.57208,351.63446,68,75,41
351.63446,351.69684,69,64,41
351.69684,351.75922,68,64,41
351.75922,351.8216,69,64,41
351.8216,351.88397,68,64,41
351.88397,351.94635,69,64,41
351.94635,352.00873,68,64,41
352.00873,352.0711,69,64,41
352.0711,352.13348,68,64,41
352.13348,352.19586,69,64,41
352.19586,352.25824,66,64,41
352.25824,352.32062,68,64,41
352.32062,352.44537,69,64,41
352.44537,352.57013,69,64,41
352.57013,352.6949,69,64,41
352.6949,352.81964,71,64,41
352.81964,352.9444,71,64,41
352.9444,353.06915,71,64,41
353.06915,353.44342,69,65,41
359.93076,360.0555,61,64,41
360.0555,360.18027,59,64,41
360.18027,360.30502,57,64,41
360.30502,360.42978,56,64,41
360.42978,360.55453,54,64,41
360.55453,360.6793,52,64,41
360.6793,360.80405,54,64,41
360.80405,360.86642,52,64,41
360.9288,361.05356,52,64,41
361.05356,361.1783,54,64,41
361.1783,361.2407,52,64,41
361.30307,361.42783,52,64,41
361.42783,361.55258,54,64,41
361.55258,361.61496,52,64,41
361.67734,361.8021,52,64,41
361.8021,361.92685,54,64,41
361.92685,361.98923,52,64,41
362.0516,362.17636,52,64,41
362.17636,362.30112,54,64,41
362.30112,362.3635,52,64,41
362.42587,362.55063,52,64,41
362.55063,362.67538,54,64,41
362.67538,362.73776,52,64,41
362.80014,362.9249,52,64,41
362.9249,363.04965,54,64,41
363.04965,363.11203,52,64,41
363.1744,363.29916,52,64,41
363.29916,363.42392,54,64,41
363.42392,363.4863,52,64,41
363.54868,363.67346,52,64,41
363.67346,363.79822,54,64,41
363.79822,363.8606,52,64,41
363.92297,364.04773,52,64,41
364.04773,364.1725,54,64,41
364.1725,364.23486,52,64,41
364.29724,364.422,57,64,41
364.422,364.54675,59,64,41
364.54675,364.60913,57,64,41
364.6715,364.79626,57,64,41
364.79626,364.92102,59,64,41
364.92102,364.9834,57,64,41
365.04578,365.17053,57,64,41
365.17053,365.2953,59,64,41
365.2953,365.35767,57,64,41
365.42004,365.5448,57,64,41
365.5448,365.66956,59,64,41
365.66956,365.73193,57,64,41
365.7943,365.91907,57,64,41
365.91907,366.04382,52,64,41
366.04382,366.1062,57,64,41
366.16858,366.29333,57,64,41
366.29333,366.4181,52,64,41
366.4181,366.48047,57,64,41
366.54285,366.6676,56,64,41
366.6676,366.79236,52,64,41
366.79236,366.85474,56,64,41
366.9171,367.04187,56,64,41
367.04187,367.16663,52,64,41
367.16663,367.229,56,64,41
367.29138,367.47852,57,110,41
367.47852,367.85278,60,110,41
367.47852,367.85278,69,110,41
367.85278,368.41418,60,110,41
367.85278,368.41418,69,110,41
368.78845,368.9756,65,110,41
368.78845,368.9756,74,110,41
368.9756,369.34985,65,110,41
368.9756,369.34985,74,110,41
369.34985,369.91125,65,110,41
369.34985,369.91125,74,110,41
370.28552,370.47266,58,110,41
370.28552,370.47266,67,110,41
370.47266,370.84692,67,110,41
370.47266,370.84692,58,110,41
370.84692,371.40833,58,110,41
370.84692,371.40833,67,110,41
376.27383,377.7709,69,64,41
377.7709,378.14517,69,74,41
378.14517,378.51944,64,69,41
378.51944,379.26797,62,64,41
379.26797,379.64224,61,64,41
379.92297,380.01654,69,100,41
379.92297,380.01654,61,100,41
380.01654,380.3908,61,100,41
380.01654,380.3908,69,100,41
380.6715,380.76508,64,100,41
380.6715,380.76508,73,100,41
380.76508,381.13934,64,100,41
380.76508,381.13934,73,100,41
381.42004,381.5136,61,100,41
381.42004,381.5136,69,100,41
381.5136,381.88788,61,100,41
381.5136,381.88788,69,100,41
382.16858,382.26215,57,100,41
382.16858,382.26215,49,100,41
382.26215,382.6466,49,100,41
383.0556,383.49243,69,100,41
383.0556,383.49243,64,100,41
383.0556,383.49243,57,100,41
383.9612,384.46695,69,100,41
383.9612,384.46695,64,100,41
383.9612,384.46695,57,100,41
2.0,4.497076,52,100,42
7.525784,7.7129188,40,54,42
7.900053,8.087188,52,54,42
8.2743225,8.461456,45,54,42
8.648591,8.835726,52,54,42
9.022861,9.209994,40,54,42
9.397129,9.584264,52,54,42
9.771399,9.958532,45,54,42
10.145667,10.332802,52,54,42
12.017012,12.204146,50,74,42
12.204146,12.391281,49,64,42
12.391281,12.484848,49,64,42
12.578416,12.671983,49,64,42
12.76555,13.139819,49,64,42
13.139819,13.326954,47,64,42
15.011164,15.198298,49,74,42
15.198298,15.385433,47,64,42
15.385433,15.479,47,64,42
15.572568,15.666135,47,64,42
15.759702,16.13397,47,64,42
16.13397,16.321106,45,64,42
23.99362,24.180754,50,74,42
24.180754,24.36789,49,64,42
24.36789,24.461456,49,64,42
24.555023,24.64859,49,64,42
24.742159,25.116426,49,64,42
25.116426,25.303562,47,64,42
26.987772,27.174906,49,74,42
27.174906,27.362041,47,64,42
27.362041,27.455608,47,64,42
27.549175,27.642742,47,64,42
27.736311,28.110579,47,64,42
28.110579,28.297714,45,64,42
34.473152,36.85086,52,100,42
39.87957,40.066704,40,54,42
40.253838,40.44097,52,54,42
40.628105,40.81524,45,54,42
41.002377,41.18951,52,54,42
41.376644,41.563778,40,54,42
41.75091,41.93805,52,54,42
42.125183,42.312317,45,54,42
42.49945,42.686584,52,54,42
42.873722,43.154423,57,100,42
43.154423,43.201206,59,100,42
43.201206,43.24799,57,100,42
43.24799,43.435123,55,100,42
43.435123,43.52869,53,100,42
43.622257,43.99653,52,100,42
43.99653,44.370796,52,100,42
44.370796,44.745064,52,100,42
44.745064,45.119335,52,100,42
45.119335,45.493603,57,100,42
45.493603,46.055008,55,127,42
46.055008,46.148575,60,100,42
46.24214,46.33571,60,100,42
46.429276,46.522842,60,100,42
46.61641,46.803543,60,100,42
46.99068,47.177814,59,100,42
47.36495,47.552082,60,100,42
47.739216,47.926353,55,100,42
48.113487,48.30062,60,100,42
48.862022,49.423428,57,64,42
49.423428,49.61056,59,64,42
49.61056,49.797695,60,64,42
49.984833,50.3591,62,64,42
50.3591,50.546234,64,64,42
50.546234,50.733368,65,64,42
50.733368,50.920506,64,64,42
50.920506,51.10764,62,64,42
51.10764,51.294773,60,64,42
51.481907,52.043312,65,100,42
52.043312,52.13688,62,64,42
52.230446,52.324013,64,64,42
52.41758,52.511147,65,64,42
52.604713,52.791847,64,64,42
52.978985,53.07255,65,64,42
53.16612,53.259686,66,64,42
53.353252,53.540386,67,64,42
53.72752,53.914658,55,64,42
54.10179,54.288925,60,64,42
54.850327,55.13103,57,100,42
55.13103,55.177814,59,100,42
55.177814,55.224598,57,100,42
55.224598,55.41173,55,100,42
55.41173,55.5053,53,100,42
55.598866,55.973137,52,100,42
55.973137,56.347404,52,100,42
56.347404,56.721672,52,100,42
56.721672,57.095943,52,100,42
57.095943,57.47021,57,100,42
57.47021,58.031616,55,127,42
58.031616,58.125183,60,100,42
58.21875,58.312317,60,100,42
58.405884,58.49945,60,100,42
58.593018,58.78015,60,100,42
58.96729,59.154423,59,100,42
59.341557,59.52869,60,100,42
59.715824,59.902958,55,100,42
60.090096,60.27723,60,100,42
64.95559,65.517,55,100,42
65.517,65.610565,55,64,42
65.70413,65.7977,55,64,42
65.891266,65.98483,55,64,42
66.0784,66.45267,55,64,42
67.949745,68.51115,52,100,42
68.51115,68.60471,52,64,42
68.69828,68.79185,52,64,42
68.885414,68.97898,52,64,42
69.07255,69.446815,52,64,42
70.94389,71.5053,48,74,42
71.5053,71.59887,48,64,42
71.69244,71.786,48,62,42
71.87957,71.97314,48,59,42
72.0667,72.44097,48,55,42
73.94232,74.528725,49,64,42
74.528725,74.62874,49,54,42
74.7294,74.83078,49,54,42
74.932816,75.035576,49,54,42
75.13902,76.439766,50,54,42
76.439766,76.89973,52,59,42
76.89973,77.86436,53,65,42
77.86436,78.86241,49,57,42
78.86241,79.29939,50,86,42
82.29354,82.85495,57,100,42
82.85495,83.04208,61,86,42
83.04208,83.22922,59,86,42
83.22922,83.41635,57,86,42
83.41635,84.16489,64,86,42
84.16489,84.539154,61,86,42
84.539154,84.91343,55,86,42
84.91343,85.2877,54,86,42
88.281845,88.84325,57,74,42
88.84325,89.03039,61,64,42
89.03039,89.21752,59,64,42
89.21752,89.404655,57,64,42
89.404655,90.15319,64,64,42
90.15319,90.52746,61,64,42
90.52746,90.90173,55,64,42
90.90173,91.276,54,64,42
94.27015,94.83155,54,100,42
94.83155,95.01869,57,93,42
95.01869,95.205826,56,95,42
95.205826,95.39296,54,97,42
95.39296,96.51576,59,100,42
96.51576,96.702896,57,66,42
96.702896,96.89003,56,60,42
96.89003,97.07717,54,54,42
97.07717,97.264305,61,54,42
97.264305,97.35787,61,54,42
97.45144,97.545006,61,54,42
97.63857,98.01284,61,64,42
98.01284,98.10641,61,54,42
98.199974,98.29354,61,54,42
98.38711,98.57424,61,54,42
98.57424,98.761375,62,54,42
98.761375,98.85494,62,54,42
98.94852,99.04208,62,54,42
99.13565,99.322784,62,64,42
99.322784,99.50992,61,54,42
99.50992,99.603485,61,54,42
99.69705,99.79062,61,54,42
99.884186,100.07132,61,54,42
100.07132,100.25845,62,54,42
100.25845,100.35202,62,54,42
100.44559,100.539154,62,54,42
100.63272,100.819855,62,64,42
100.819855,101.006996,61,54,42
101.006996,101.10056,61,54,42
101.19413,101.2877,61,54,42
101.38126,101.5684,61,54,42
101.5684,101.75553,62,54,42
101.75553,101.8491,62,54,42
101.942665,102.03623,62,54,42
102.1298,102.31693,62,54,42
102.31693,102.50407,63,54,42
102.50407,102.59763,63,54,42
102.6912,102.78477,63,54,42
102.878334,103.065475,63,54,42
103.065475,103.25261,64,54,42
103.25261,103.346176,64,54,42
103.43974,103.53331,64,54,42
103.62688,103.81401,64,54,42
103.81401,104.001144,63,51,42
104.001144,104.09471,63,49,42
104.18828,104.281845,63,46,42
104.37541,104.562546,63,54,42
104.562546,104.74968,64,54,42
104.74968,104.84325,64,54,42
104.93682,105.03039,64,54,42
105.123955,105.31109,64,54,42
105.31109,105.49822,63,52,42
105.49822,105.59179,63,49,42
105.685356,105.77892,63,46,42
105.87249,106.05962,63,54,42
106.05962,106.24676,64,54,42
106.24676,106.340324,64,54,42
106.43389,106.52746,64,54,42
106.621025,106.80816,64,54,42
106.80816,106.9953,62,52,42
106.9953,107.08887,62,49,42
107.182434,107.276,62,46,42
107.36957,107.5567,62,54,42
107.5567,107.743835,63,54,42
107.743835,107.8374,63,54,42
107.93097,108.024536,63,54,42
108.1181,108.30524,63,54,42
108.30524,108.49237,64,54,42
108.49237,108.58594,64,54,42
108.679504,108.77307,64,54,42
108.86664,109.05378,64,54,42
109.05378,109.24091,65,54,42
109.24091,109.33448,65,54,42
109.42805,109.521614,65,54,42
109.61518,109.98945,65,54,42
109.98945,110.083015,65,49,42
110.17658,110.27015,65,46,42
110.363716,110.73798,65,44,42
110.73798,110.83155,65,45,42
110.92512,111.01869,65,46,42
111.11226,111.48653,65,46,42
111.48653,111.58009,65,47,42
111.67366,111.76723,65,48,42
111.860794,112.23506,65,48,42
112.23506,112.32863,65,49,42
112.422195,112.51576,65,50,42
112.60933,112.79646,65,50,42
112.79646,112.983604,64,51,42
112.983604,113.07717,64,51,42
113.17074,113.264305,64,52,42
113.35787,113.73214,64,52,42
113.73214,113.82571,64,53,42
113.91927,114.01284,64,54,42
114.10641,114.29354,64,54,42
114.29354,114.480675,66,53,42
114.480675,114.57424,66,53,42
114.66781,114.761375,66,52,42
114.85494,115.04208,66,52,42
115.04208,115.22922,67,51,42
115.22922,115.322784,67,50,42
115.41635,115.50992,67,50,42
115.603485,115.79062,67,49,42
115.79062,115.97775,66,48,42
115.97775,116.07132,66,48,42
116.16489,116.25845,66,47,42
116.35202,116.539154,66,47,42
116.539154,116.72629,64,46,42
116.72629,116.819855,64,45,42
116.91342,117.006996,64,45,42
117.10056,117.47483,57,64,42
117.47483,117.661964,61,64,42
117.661964,117.75553,62,64,42
117.8491,118.223366,57,64,42
118.223366,118.59763,62,64,42
118.59763,118.9719,57,64,42
118.9719,119.15904,61,64,42
119.15904,119.25261,62,64,42
119.346176,119.72044,57,64,42
119.72044,120.09471,62,64,42
120.09471,120.46898,59,64,42
120.46898,120.65611,63,64,42
120.65611,120.84325,64,64,42
120.84325,121.21752,59,65,42
121.21752,121.59179,64,60,42
121.59179,121.96606,59,64,42
121.96606,122.15319,63,64,42
122.15319,122.340324,64,64,42
122.340324,122.71459,59,65,42
122.71459,123.08887,64,60,42
123.08887,123.276,61,64,42
123.276,123.463135,64,64,42
123.463135,123.65027,66,64,42
123.65027,123.8374,67,64,42
123.8374,124.21167,67,64,42
124.21167,124.58594,67,64,42
124.58594,124.77307,61,64,42
124.77307,124.960205,64,64,42
124.960205,125.14735,66,64,42
125.14735,125.33448,67,64,42
125.33448,125.70875,67,64,42
125.70875,126.083015,67,64,42
126.083015,126.27015,57,64,42
126.27015,126.45728,61,64,42
126.45728,126.64442,61,64,42
126.64442,126.83155,62,64,42
126.83155,127.205826,57,64,42
127.205826,127.58009,62,59,42
127.58009,127.76723,57,64,42
127.76723,127.95436,61,64,42
127.95436,128.1415,61,64,42
128.1415,128.32863,62,64,42
128.32863,128.7029,57,64,42
128.7029,129.07716,62,59,42
132.44559,132.81985,50,84,42
132.81985,133.19412,53,89,42
133.19412,133.56839,58,95,42
133.56839,134.69121,54,100,42
134.69121,135.06548,51,86,42
135.06548,135.25261,50,86,42
135.43974,135.81401,50,84,42
135.81401,136.18828,53,89,42
136.18828,136.56255,58,95,42
136.56255,137.68535,54,100,42
137.68535,138.05962,51,86,42
138.05962,138.24677,50,86,42
139.93097,140.30524,53,100,42
140.30524,140.6795,58,103,42
140.6795,141.05377,62,106,42
141.05377,141.8023,62,110,42
142.92513,143.2994,64,100,42
143.2994,143.67366,67,110,42
143.67366,144.04793,61,90,42
144.04793,144.4222,62,64,42
144.4222,144.79646,57,64,42
144.79646,145.17073,62,64,42
145.17073,145.545,66,64,42
145.545,145.66975,54,64,42
145.66975,145.79451,55,64,42
145.79451,145.91927,56,64,42
145.91927,146.04402,57,64,42
146.04402,146.1688,56,64,42
146.1688,146.29355,57,64,42
146.29355,146.4183,66,64,42
146.4183,146.54306,64,61,42
146.54306,146.66782,62,58,42
146.66782,146.79257,64,54,42
146.79257,146.91733,62,54,42
146.91733,147.04208,57,54,42
147.41635,147.79062,54,64,42
147.79062,148.16489,59,64,42
148.16489,148.53915,62,64,42
148.53915,148.66391,50,64,42
148.66391,148.78867,52,64,42
148.78867,148.91342,53,64,42
148.91342,149.03818,54,64,42
149.03818,149.16293,53,64,42
149.16293,149.28769,54,64,42
149.28769,149.41245,62,64,42
149.41245,149.5372,61,61,42
149.5372,149.66196,58,58,42
149.66196,149.78671,61,54,42
149.78671,149.91147,59,54,42
149.91147,150.03622,54,54,42
150.03622,150.22337,55,64,42
150.4105,150.78477,59,64,42
150.78477,150.84715,61,75,42
150.84715,150.90953,62,64,42
150.90953,150.97191,61,64,42
150.97191,151.03429,62,64,42
151.03429,151.09666,61,64,42
151.09666,151.15904,62,64,42
151.15904,151.22142,61,64,42
151.22142,151.2838,62,64,42
151.2838,151.34618,61,64,42
151.34618,151.40855,62,64,42
151.40855,151.47093,59,64,42
151.47093,151.53331,61,64,42
151.53331,151.65807,62,64,42
151.65807,151.78282,62,64,42
151.78282,151.90758,62,64,42
151.90758,152.03233,64,64,42
152.03233,152.15709,64,64,42
152.15709,152.28185,64,64,42
152.28185,152.65611,62,64,42
153.40465,153.77892,57,64,42
153.77892,154.1532,62,64,42
154.1532,154.52747,66,64,42
154.52747,154.65222,54,64,42
154.65222,154.77698,55,64,42
154.77698,154.90173,56,64,42
154.90173,155.02649,57,64,42
155.02649,155.15125,56,64,42
155.15125,155.276,57,64,42
155.276,155.40076,66,64,42
155.40076,155.52551,64,61,42
155.52551,155.65027,62,58,42
155.65027,155.77502,64,54,42
155.77502,155.89978,62,54,42
155.89978,156.02454,57,54,42
156.3988,156.77307,54,64,42
156.77307,157.14734,59,64,42
157.14734,157.5216,62,64,42
157.5216,157.64636,50,64,42
157.64636,157.77112,52,64,42
157.77112,157.89587,53,64,42
157.89587,158.02063,54,64,42
158.02063,158.14539,53,64,42
158.14539,158.27016,54,64,42
158.27016,158.39491,62,64,42
158.39491,158.51967,61,61,42
158.51967,158.64442,58,58,42
158.64442,158.76918,61,54,42
158.76918,158.89394,59,54,42
158.89394,159.01869,54,54,42
159.01869,159.20583,55,64,42
159.39296,159.76723,59,64,42
159.76723,159.8296,61,75,42
159.8296,159.89198,62,64,42
159.89198,159.95436,61,64,42
159.95436,160.01674,62,64,42
160.01674,160.07912,61,64,42
160.07912,160.1415,62,64,42
160.1415,160.20387,61,64,42
160.20387,160.26625,62,64,42
160.26625,160.32863,61,64,42
160.32863,160.391,62,64,42
160.391,160.45338,59,64,42
160.45338,160.51576,61,64,42
160.51576,160.64052,62,64,42
160.64052,160.76527,62,64,42
160.76527,160.89003,62,64,42
160.89003,161.01479,64,64,42
161.01479,161.13954,64,64,42
161.13954,161.2643,64,64,42
161.2643,161.63857,62,64,42
169.49821,170.24677,54,75,42
170.24677,170.62103,55,64,42
170.9953,171.74384,52,75,42
171.74384,172.1181,54,64,42
172.49237,173.98944,53,64,42
173.98944,174.55086,52,64,42
174.55086,174.73799,54,64,42
174.73799,175.48653,55,74,42
175.48653,175.67366,53,110,42
175.67366,176.04793,50,110,42
175.67366,176.04793,57,110,42
176.04793,176.60933,50,110,42
176.04793,176.60933,57,110,42
176.9836,177.17073,60,110,42
176.9836,177.17073,52,110,42
177.17073,177.545,60,110,42
177.17073,177.545,52,110,42
177.545,178.1064,60,110,42
177.545,178.1064,52,110,42
178.48068,178.66782,57,110,42
178.66782,179.04208,65,110,42
179.04208,179.60349,65,110,42
184.46898,185.59178,62,64,42
185.59178,185.96605,64,72,42
185.96605,186.7146,66,74,42
186.7146,187.276,64,64,42
187.276,187.46313,61,64,42
187.46313,187.8374,62,64,42
188.1181,188.21167,57,100,42
188.1181,188.21167,50,100,42
188.21167,188.58594,50,100,42
188.21167,188.58594,57,100,42
188.86664,188.9602,62,100,42
188.9602,189.33447,62,100,42
189.61517,189.70874,57,100,42
189.70874,190.08301,57,100,42
190.36372,190.45729,54,100,42
190.45729,190.84032,54,100,42
191.24419,191.67128,38,100,42
191.24419,191.67128,45,100,42
191.24419,191.67128,54,100,42
191.24419,191.67128,62,100,42
192.12445,192.5932,62,100,42
192.12445,192.5932,54,100,42
192.12445,192.5932,38,100,42
192.12445,192.5932,45,100,42
193.99945,196.43402,59,100,42
199.46274,199.64987,47,54,42
199.837,200.02414,59,54,42
200.21127,200.3984,52,54,42
200.58554,200.77267,59,54,42
200.95981,201.14694,47,54,42
201.33408,201.52121,59,54,42
201.70834,201.89548,52,54,42
202.08261,202.26974,59,54,42
203.95396,204.1411,57,74,42
204.1411,204.32823,56,64,42
204.32823,204.4218,56,64,42
204.51537,204.60893,56,64,42
204.7025,205.07677,56,64,42
205.07677,205.2639,54,64,42
206.94812,207.13525,56,74,42
207.13525,207.32239,54,64,42
207.32239,207.41595,54,64,42
207.50952,207.60309,54,64,42
207.69666,208.07092,54,64,42
208.07092,208.25806,52,64,42
215.93057,216.1177,57,74,42
216.1177,216.30484,56,64,42
216.30484,216.3984,56,64,42
216.49197,216.58554,56,64,42
216.67911,217.05338,56,64,42
217.05338,217.24051,54,64,42
218.92473,219.11186,56,74,42
219.11186,219.299,54,64,42
219.299,219.39256,54,64,42
219.48613,219.5797,54,64,42
219.67326,220.04753,54,64,42
220.04753,220.23466,52,64,42
226.41011,228.65572,59,100,42
231.68442,231.87157,47,54,42
232.0587,232.24583,59,54,42
232.43297,232.6201,52,54,42
232.80724,232.99437,59,54,42
233.1815,233.36864,47,54,42
233.55577,233.7429,59,54,42
233.93004,234.11717,52,54,42
234.3043,234.49144,59,54,42
234.67857,234.95927,52,100,42
234.95927,235.00606,54,100,42
235.00606,235.05284,52,100,42
235.05284,235.23997,50,100,42
235.23997,235.33354,48,100,42
235.42711,235.80139,47,100,42
235.80139,236.17566,47,100,42
236.17566,236.54993,59,100,42
236.54993,236.9242,59,100,42
236.9242,237.29846,64,100,42
237.29846,237.85986,62,127,42
237.85986,237.95343,67,100,42
238.047,238.14056,67,100,42
238.23413,238.3277,67,100,42
238.42126,238.6084,67,100,42
238.79553,238.98267,66,100,42
239.1698,239.35693,67,100,42
239.54407,239.7312,62,100,42
239.91835,240.10548,55,100,42
240.66689,241.22829,52,64,42
241.22829,241.41542,54,64,42
241.41542,241.60255,55,64,42
241.78969,242.16396,57,64,42
242.16396,242.35109,59,64,42
242.35109,242.53822,60,64,42
242.53822,242.72536,59,64,42
242.72536,242.91249,57,64,42
242.91249,243.09962,55,64,42
243.28676,243.84818,60,100,42
243.84818,243.94174,57,64,42
244.03531,244.12888,59,64,42
244.22244,244.31601,60,64,42
244.40958,244.59671,59,64,42
244.78384,244.87741,60,64,42
244.97098,245.06454,61,64,42
245.15811,245.34525,62,64,42
245.53238,245.71951,50,64,42
245.90665,246.09378,55,64,42
246.65518,246.93588,52,100,42
246.93588,246.98267,54,100,42
246.98267,247.02945,52,100,42
247.02945,247.21658,50,100,42
247.21658,247.31015,48,100,42
247.40372,247.77798,47,100,42
247.77798,248.15227,47,100,42
248.15227,248.52654,59,100,42
248.52654,248.9008,59,100,42
248.9008,249.27507,64,100,42
249.27507,249.83647,62,127,42
249.83647,249.93004,67,100,42
250.0236,250.11717,67,100,42
250.21074,250.3043,67,100,42
250.39787,250.585,67,100,42
250.77214,250.95927,66,100,42
251.14641,251.33354,67,100,42
251.52068,251.70781,62,100,42
251.89496,252.08209,55,100,42
256.76044,257.32184,62,100,42
257.32184,257.4154,62,64,42
257.50897,257.60254,62,64,42
257.6961,257.78967,62,64,42
257.88324,258.25754,62,64,42
259.7546,260.316,59,100,42
260.316,260.40958,59,64,42
260.50314,260.5967,59,64,42
260.69028,260.78384,59,64,42
260.8774,261.25168,59,64,42
262.74875,263.31015,55,74,42
263.31015,263.40372,55,64,42
263.49728,263.59085,55,62,42
263.68442,263.77798,55,59,42
263.87155,264.24582,55,55,42
265.7472,266.3336,56,64,42
266.3336,266.4336,56,54,42
266.53427,266.63562,56,54,42
266.73767,266.84042,56,54,42
266.94388,268.24463,57,54,42
268.24463,268.7046,59,59,42
268.7046,269.66922,60,65,42
269.66922,270.66727,56,57,42
270.66727,271.10425,57,54,42
271.10425,271.66565,57,100,42
271.66565,271.85278,61,86,42
271.85278,272.03992,59,86,42
272.03992,272.22705,57,86,42
272.22705,272.9756,64,86,42
272.9756,273.34985,61,86,42
273.34985,273.72412,57,86,42
273.72412,274.0984,52,86,42
277.09256,277.65396,57,100,42
277.65396,277.8411,61,86,42
277.8411,278.02823,59,86,42
278.02823,278.21536,57,86,42
278.21536,278.9639,64,86,42
278.9639,279.33817,61,86,42
279.33817,279.71243,57,86,42
279.71243,280.0867,52,86,42
283.08084,283.64227,57,100,42
283.64227,283.8294,61,86,42
283.8294,284.01654,59,86,42
284.01654,284.20367,57,86,42
284.20367,284.9522,64,86,42
284.9522,285.32648,63,93,42
285.32648,285.70074,61,96,42
285.70074,287.1978,68,100,42
287.1978,287.2602,60,77,42
287.2602,287.32257,61,76,42
287.32257,287.38495,60,75,42
287.38495,287.44733,61,74,42
287.44733,287.5097,60,74,42
287.5097,287.57208,61,72,42
287.57208,287.63446,60,71,42
287.63446,287.69684,61,71,42
287.69684,287.75922,60,70,42
287.75922,287.8216,61,68,42
287.8216,287.88397,60,68,42
287.88397,287.94635,61,67,42
287.94635,288.00873,60,66,42
288.00873,288.0711,61,65,42
288.0711,288.13348,60,64,42
288.13348,288.19586,61,63,42
288.19586,288.25824,60,62,42
288.25824,288.32062,61,61,42
288.32062,288.383,60,60,42
288.383,288.44537,61,59,42
288.44537,288.50775,60,58,42
288.50775,288.57013,61,57,42
288.57013,288.6325,58,56,42
288.6325,288.6949,60,55,42
288.6949,288.88202,61,54,42
288.88202,289.06915,56,54,42
289.06915,289.16272,56,54,42
289.2563,289.34985,56,54,42
289.44342,289.8177,56,64,42
289.8177,289.91125,56,54,42
290.00482,290.0984,56,54,42
290.19196,290.3791,56,54,42
290.3791,290.56622,57,54,42
290.56622,290.6598,57,54,42
290.75336,290.84692,57,54,42
290.9405,291.12762,57,64,42
291.12762,291.31476,56,54,42
291.31476,291.40836,56,54,42
291.50192,291.5955,56,54,42
291.68906,291.8762,56,54,42
291.8762,292.06332,57,54,42
292.06332,292.1569,57,54,42
292.25046,292.34402,57,54,42
292.4376,292.62473,57,64,42
292.62473,292.81186,56,54,42
292.81186,292.90543,56,54,42
292.999,293.09256,56,54,42
293.18613,293.37326,56,54,42
293.37326,293.5604,57,54,42
293.5604,293.65396,57,54,42
293.74753,293.8411,57,54,42
293.93466,294.1218,57,54,42
294.1218,294.30893,58,54,42
294.30893,294.4025,58,54,42
294.49606,294.58963,58,54,42
294.6832,294.87033,58,54,42
294.87033,295.05746,59,54,42
295.05746,295.15103,59,54,42
295.2446,295.33817,59,54,42
295.43173,295.61887,59,54,42
295.61887,295.806,58,51,42
295.806,295.89957,58,49,42
295.99313,296.0867,58,46,42
296.18027,296.3674,58,54,42
296.3674,296.55453,59,54,42
296.55453,296.6481,59,54,42
296.74167,296.83524,59,54,42
296.9288,297.11594,59,54,42
297.11594,297.30307,58,52,42
297.30307,297.39664,58,49,42
297.4902,297.58377,58,46,42
297.67734,297.86447,58,54,42
297.86447,298.0516,59,54,42
298.0516,298.14517,59,54,42
298.23874,298.3323,59,54,42
298.42587,298.613,59,54,42
298.613,298.80014,57,52,42
298.80014,298.8937,57,49,42
298.98727,299.08084,57,46,42
299.1744,299.36154,57,54,42
299.36154,299.5487,58,54,42
299.5487,299.64227,58,54,42
299.73584,299.8294,58,54,42
299.92297,300.1101,58,54,42
300.1101,300.29724,59,54,42
300.29724,300.3908,59,54,42
300.48438,300.57794,59,54,42
300.6715,300.85864,59,54,42
300.85864,301.04578,60,54,42
301.04578,301.13934,60,54,42
301.2329,301.32648,60,54,42
301.42004,301.7943,60,54,42
301.7943,301.88788,60,49,42
301.98145,302.075,60,46,42
302.16858,302.54285,60,44,42
302.54285,302.6364,60,45,42
302.72998,302.82355,60,46,42
302.9171,303.29138,60,46,42
303.29138,303.38495,60,47,42
303.47852,303.57208,60,48,42
303.66565,304.03992,60,48,42
304.03992,304.13348,60,49,42
304.22705,304.32062,60,50,42
304.41418,304.60132,60,50,42
304.60132,304.78845,59,51,42
304.78845,304.88202,59,51,42
304.9756,305.06915,59,52,42
305.16272,305.537,59,52,42
305.537,305.63055,59,53,42
305.72412,305.8177,59,54,42
305.91125,306.0984,59,54,42
306.0984,306.28552,61,53,42
306.28552,306.3791,61,53,42
306.47266,306.56622,61,52,42
306.6598,306.84692,61,52,42
306.84692,307.03406,62,51,42
307.03406,307.12762,62,50,42
307.2212,307.31476,62,50,42
307.40836,307.5955,62,49,42
307.5955,307.78262,61,48,42
307.78262,307.8762,61,48,42
307.96976,308.06332,61,47,42
308.1569,308.34402,61,47,42
308.34402,308.53116,59,46,42
308.53116,308.62473,59,45,42
308.7183,308.81186,59,45,42
308.90543,309.2797,52,64,42
309.2797,309.46683,56,64,42
309.46683,309.5604,57,64,42
309.65396,310.02823,52,64,42
310.02823,310.4025,57,64,42
310.4025,310.77676,52,64,42
310.77676,310.9639,56,64,42
310.9639,311.05746,57,64,42
311.15103,311.5253,52,64,42
311.5253,311.89957,57,64,42
311.89957,312.27383,54,64,42
312.27383,312.46097,58,64,42
312.46097,312.6481,59,64,42
312.6481,313.02237,54,65,42
313.02237,313.39664,59,60,42
313.39664,313.7709,54,64,42
313.7709,313.95804,58,64,42
313.95804,314.14517,59,64,42
314.14517,314.51944,54,65,42
314.51944,314.8937,59,60,42
314.8937,315.08084,56,64,42
315.08084,315.26797,59,64,42
315.26797,315.45514,61,64,42
315.45514,315.64227,62,64,42
315.64227,316.01654,62,64,42
316.01654,316.3908,62,64,42
316.3908,316.57794,56,64,42
316.57794,316.76508,59,64,42
316.76508,316.9522,61,64,42
316.9522,317.13934,62,64,42
317.13934,317.5136,62,64,42
317.5136,317.88788,62,64,42
317.88788,318.075,52,64,42
318.075,318.26215,56,64,42
318.26215,318.44928,56,64,42
318.44928,318.6364,57,64,42
318.6364,319.01068,52,64,42
319.01068,319.38495,57,59,42
319.38495,319.57208,52,64,42
319.57208,319.75922,56,64,42
319.75922,319.94635,56,64,42
319.94635,320.13348,57,64,42
320.13348,320.50775,52,64,42
320.50775,320.88202,57,59,42
324.25046,324.62473,57,84,42
324.62473,324.999,60,89,42
324.999,325.37326,65,95,42
325.37326,326.49606,61,100,42
326.49606,326.87033,58,86,42
326.87033,327.05746,57,86,42
327.2446,327.61887,57,84,42
327.61887,327.99313,60,89,42
327.99313,328.3674,65,95,42
328.3674,329.4902,61,100,42
329.4902,329.86447,58,86,42
329.86447,330.0516,57,86,42
331.73584,332.1101,48,100,42
332.1101,332.48438,53,103,42
332.48438,332.85864,57,106,42
332.85864,333.60718,57,110,42
334.72998,335.10425,59,100,42
335.10425,335.47852,62,110,42
335.47852,335.85278,56,90,42
335.85278,335.97754,57,54,42
335.97754,336.1023,52,54,42
335.97754,336.1023,45,54,42
336.1023,336.22705,45,54,42
336.1023,336.22705,52,54,42
336.22705,336.3518,45,54,42
336.22705,336.3518,52,54,42
336.3518,336.47656,52,54,42
336.3518,336.47656,45,54,42
336.47656,336.60132,45,54,42
336.47656,336.60132,52,54,42
336.60132,336.72607,45,54,42
336.60132,336.72607,52,54,42
336.72607,336.85083,52,54,42
336.72607,336.85083,45,54,42
336.85083,336.9756,45,54,42
336.85083,336.9756,52,54,42
336.9756,337.10034,45,54,42
336.9756,337.10034,52,54,42
337.10034,337.2251,52,54,42
337.10034,337.2251,45,54,42
337.2251,337.34985,45,54,42
337.2251,337.34985,52,54,42
337.34985,337.4746,45,54,42
337.34985,337.4746,52,54,42
337.4746,337.59937,52,54,42
337.4746,337.59937,45,54,42
337.59937,337.72412,45,54,42
337.59937,337.72412,52,54,42
337.72412,337.84888,45,54,42
337.72412,337.84888,52,54,42
337.84888,337.97363,52,54,42
337.84888,337.97363,45,54,42
337.97363,338.0984,45,54,42
337.97363,338.0984,52,54,42
338.0984,338.22314,45,54,42
338.0984,338.22314,52,54,42
338.22314,338.3479,52,54,42
338.22314,338.3479,45,54,42
338.3479,338.47266,45,54,42
338.3479,338.47266,52,54,42
338.47266,338.5974,45,54,42
338.47266,338.5974,52,54,42
338.5974,338.72217,52,54,42
338.5974,338.72217,45,54,42
338.72217,338.84692,45,54,42
338.72217,338.84692,52,54,42
338.84692,338.97168,49,54,42
338.84692,338.97168,42,54,42
338.97168,339.09644,49,54,42
338.97168,339.09644,42,54,42
339.09644,339.2212,49,54,42
339.09644,339.2212,42,54,42
339.2212,339.34595,49,54,42
339.2212,339.34595,42,54,42
339.34595,339.4707,49,54,42
339.34595,339.4707,42,54,42
339.4707,339.5955,49,54,42
339.4707,339.5955,42,54,42
339.5955,339.72025,49,54,42
339.5955,339.72025,42,54,42
339.72025,339.845,49,54,42
339.72025,339.845,42,54,42
339.845,339.96976,49,54,42
339.845,339.96976,42,54,42
339.96976,340.0945,49,54,42
339.96976,340.0945,42,54,42
340.0945,340.21927,49,54,42
340.0945,340.21927,42,54,42
340.21927,340.34402,49,54,42
340.21927,340.34402,42,54,42
340.34402,340.46878,49,54,42
340.34402,340.46878,42,54,42
340.46878,340.59354,49,54,42
340.46878,340.59354,42,54,42
340.59354,340.7183,49,54,42
340.59354,340.7183,42,54,42
340.7183,340.84305,49,54,42
340.7183,340.84305,42,54,42
340.84305,340.9678,49,54,42
340.84305,340.9678,42,54,42
340.9678,341.09256,49,54,42
340.9678,341.09256,42,54,42
341.09256,341.21732,49,54,42
341.09256,341.21732,42,54,42
341.21732,341.34207,49,54,42
341.21732,341.34207,42,54,42
341.34207,341.46683,49,54,42
341.34207,341.46683,42,54,42
341.46683,341.59158,49,54,42
341.46683,341.59158,42,54,42
341.59158,341.71634,49,54,42
341.59158,341.71634,42,54,42
341.71634,341.8411,49,54,42
341.71634,341.8411,42,54,42
341.8411,341.96585,47,54,42
341.96585,342.0906,47,54,42
342.0906,342.21536,47,54,42
342.21536,342.34012,49,54,42
342.34012,342.46487,49,54,42
342.46487,342.58963,50,54,42
342.58963,342.7144,52,54,42
342.7144,342.83914,52,54,42
342.83914,342.9639,52,54,42
342.9639,343.08865,52,54,42
343.08865,343.2134,52,54,42
343.2134,343.33817,52,54,42
343.33817,343.46292,61,54,42
343.46292,343.58768,61,54,42
343.58768,343.71243,61,54,42
343.71243,343.8372,62,54,42
343.8372,343.96194,62,54,42
343.96194,344.0867,62,54,42
344.0867,344.21146,61,54,42
344.21146,344.3362,52,59,42
344.21146,344.3362,45,59,42
344.3362,344.46097,52,68,42
344.3362,344.46097,45,68,42
344.46097,344.58572,52,75,42
344.46097,344.58572,45,75,42
344.58572,344.71048,52,82,42
344.58572,344.71048,45,82,42
344.71048,344.83524,52,92,42
344.71048,344.83524,45,92,42
344.83524,344.96,52,100,42
344.83524,344.96,45,100,42
344.96,345.08475,52,100,42
344.96,345.08475,45,100,42
345.08475,345.2095,52,100,42
345.08475,345.2095,45,100,42
345.2095,345.33426,52,100,42
345.2095,345.33426,45,100,42
345.33426,345.459,52,100,42
345.33426,345.459,45,100,42
345.459,345.58377,52,100,42
345.459,345.58377,45,100,42
345.58377,345.70853,52,100,42
345.58377,345.70853,45,100,42
345.70853,345.83328,52,100,42
345.70853,345.83328,45,100,42
345.83328,345.95804,52,100,42
345.83328,345.95804,45,100,42
345.95804,346.0828,52,100,42
345.95804,346.0828,45,100,42
346.0828,346.20755,52,100,42
346.0828,346.20755,45,100,42
346.20755,346.3323,52,100,42
346.20755,346.3323,45,100,42
346.3323,346.45706,52,100,42
346.3323,346.45706,45,100,42
346.45706,346.58182,52,100,42
346.45706,346.58182,45,100,42
346.58182,346.70657,52,100,42
346.58182,346.70657,45,100,42
346.70657,346.83133,52,100,42
346.70657,346.83133,45,100,42
346.83133,346.9561,52,100,42
346.83133,346.9561,45,100,42
346.9561,347.08084,52,100,42
346.9561,347.08084,45,100,42
347.08084,347.2056,52,100,42
347.08084,347.2056,45,100,42
347.2056,347.33035,52,100,42
347.2056,347.33035,45,100,42
347.33035,347.4551,52,100,42
347.33035,347.4551,45,100,42
347.4551,347.5799,52,100,42
347.4551,347.5799,45,100,42
347.5799,347.70465,52,100,42
347.5799,347.70465,45,100,42
347.70465,347.8294,52,100,42
347.70465,347.8294,45,100,42
347.8294,347.95416,49,100,42
347.8294,347.95416,42,100,42
347.95416,348.07892,49,100,42
347.95416,348.07892,42,100,42
348.07892,348.20367,49,100,42
348.07892,348.20367,42,100,42
348.20367,348.32843,49,100,42
348.20367,348.32843,42,100,42
348.32843,348.4532,49,100,42
348.32843,348.4532,42,100,42
348.4532,348.57794,49,100,42
348.4532,348.57794,42,100,42
348.57794,348.7027,49,100,42
348.57794,348.7027,42,100,42
348.7027,348.82745,49,100,42
348.7027,348.82745,42,100,42
348.82745,348.9522,49,100,42
348.82745,348.9522,42,100,42
348.9522,349.07697,49,100,42
348.9522,349.07697,42,100,42
349.07697,349.20172,49,100,42
349.07697,349.20172,42,100,42
349.20172,349.32648,49,100,42
349.20172,349.32648,42,100,42
349.32648,349.45123,49,100,42
349.32648,349.45123,42,100,42
349.45123,349.576,49,100,42
349.45123,349.576,42,100,42
349.576,349.70074,49,100,42
349.576,349.70074,42,100,42
349.70074,349.8255,49,100,42
349.70074,349.8255,42,100,42
349.8255,349.95026,49,100,42
349.8255,349.95026,42,100,42
349.95026,350.075,49,100,42
349.95026,350.075,42,100,42
350.075,350.19977,49,100,42
350.075,350.19977,42,100,42
350.19977,350.32452,49,100,42
350.19977,350.32452,42,100,42
350.32452,350.44928,49,100,42
350.32452,350.44928,42,100,42
350.44928,350.57404,49,100,42
350.44928,350.57404,42,100,42
350.57404,350.6988,49,100,42
350.57404,350.6988,42,100,42
350.6988,350.82355,49,100,42
350.6988,350.82355,42,100,42
350.82355,350.9483,47,100,42
350.9483,351.07306,47,100,42
351.07306,351.1978,47,100,42
351.1978,351.32257,49,100,42
351.32257,351.44733,49,100,42
351.44733,351.57208,50,100,42
351.57208,351.69684,52,100,42
351.69684,351.8216,52,100,42
351.8216,351.94635,52,100,42
351.94635,352.0711,52,100,42
352.0711,352.19586,52,100,42
352.19586,352.32062,52,100,42
352.32062,352.44537,61,100,42
352.44537,352.57013,61,100,42
352.57013,352.6949,61,100,42
352.6949,352.81964,62,100,42
352.81964,352.9444,62,100,42
352.9444,353.06915,62,100,42
353.06915,353.44342,57,64,42
361.30307,362.0516,49,75,42
362.0516,362.42587,50,64,42
362.80014,363.54868,47,75,42
363.54868,363.92297,49,64,42
364.29724,365.7943,48,64,42
365.7943,366.3557,47,64,42
366.3557,366.54285,49,64,42
366.54285,367.29138,50,74,42
367.29138,367.47852,48,110,42
367.47852,367.85278,45,110,42
367.47852,367.85278,52,110,42
367.85278,368.41418,45,110,42
367.85278,368.41418,52,110,42
368.78845,368.9756,55,110,42
368.78845,368.9756,47,110,42
368.9756,369.34985,55,110,42
368.9756,369.34985,47,110,42
369.34985,369.91125,55,110,42
369.34985,369.91125,47,110,42
370.28552,370.47266,52,110,42
370.28552,370.47266,60,110,42
370.47266,370.84692,60,110,42
370.47266,370.84692,52,110,42
370.84692,371.40833,60,110,42
370.84692,371.40833,52,110,42
376.27383,377.39664,57,64,42
377.39664,377.7709,59,72,42
377.7709,378.51944,61,74,42
378.51944,379.08084,59,64,42
379.08084,379.26797,56,64,42
379.26797,379.64224,57,64,42
379.92297,380.01654,64,100,42
379.92297,380.01654,57,100,42
380.01654,380.3908,57,100,42
380.01654,380.3908,64,100,42
380.6715,380.76508,45,100,42
380.76508,381.13934,45,100,42
381.42004,381.5136,64,100,42
381.42004,381.5136,57,100,42
381.5136,381.88788,64,100,42
381.5136,381.88788,57,100,42
382.16858,382.26215,52,100,42
382.16858,382.26215,45,100,42
382.26215,382.6466,52,100,42
382.26215,382.6466,45,100,42
383.0556,383.49243,45,100,42
383.0556,383.49243,52,100,42
383.0556,383.49243,61,100,42
383.9612,384.46695,61,100,42
383.9612,384.46695,45,100,42
383.9612,384.46695,52,100,42
4.497076,4.709852,28,54,43
4.905901,5.0930357,40,54,43
5.28017,5.4673047,33,54,43
5.654439,5.8415737,40,54,43
6.028708,6.2158427,28,54,43
6.402977,6.5901117,40,54,43
6.777246,6.9643807,33,54,43
7.151515,7.3386497,40,54,43
10.519937,10.70707,33,64,43
10.894205,11.08134,40,64,43
11.268474,11.455608,33,64,43
11.642743,11.829878,45,64,43
12.017012,12.204146,38,74,43
12.204146,12.391281,42,64,43
12.391281,12.484848,42,64,43
12.578416,12.671983,42,64,43
12.76555,13.139819,42,64,43
13.139819,13.326954,35,64,43
13.514088,13.701222,28,64,43
13.888357,14.075492,40,64,43
14.262626,14.44976,28,64,43
14.636895,14.82403,40,64,43
15.011164,15.198298,37,74,43
15.198298,15.385433,40,64,43
15.385433,15.479,40,64,43
15.572568,15.666135,40,64,43
15.759702,16.13397,40,64,43
16.13397,16.321106,33,64,43
22.496544,22.683678,33,64,43
22.870813,23.057947,40,64,43
23.245083,23.432217,33,64,43
23.61935,23.806486,45,64,43
23.99362,24.180754,38,74,43
24.180754,24.36789,42,64,43
24.36789,24.461456,42,64,43
24.555023,24.64859,42,64,43
24.742159,25.116426,42,64,43
25.116426,25.303562,35,64,43
25.490696,25.67783,28,64,43
25.864965,26.0521,40,64,43
26.239235,26.426369,28,64,43
26.613503,26.800638,40,64,43
26.987772,27.174906,37,74,43
27.174906,27.362041,40,64,43
27.362041,27.455608,40,64,43
27.549175,27.642742,40,64,43
27.736311,28.110579,40,64,43
28.110579,28.297714,33,64,43
36.85086,37.063637,40,54,43
37.259686,37.44682,52,54,43
37.633953,37.821087,45,54,43
38.008224,38.19536,52,54,43
38.382492,38.569626,40,54,43
38.75676,38.943897,52,54,43
39.13103,39.318165,45,54,43
39.5053,39.692432,52,54,43
42.873722,43.154423,45,100,43
43.154423,43.201206,47,100,43
43.201206,43.24799,45,100,43
43.24799,43.435123,43,100,43
43.435123,43.52869,41,100,43
43.622257,43.99653,40,100,43
43.99653,44.370796,40,100,43
44.370796,44.745064,40,100,43
44.745064,45.119335,40,100,43
45.119335,45.493603,45,100,43
45.493603,46.055008,43,127,43
46.055008,46.148575,48,100,43
46.24214,46.33571,48,100,43
46.429276,46.522842,48,100,43
46.61641,46.803543,48,100,43
46.99068,47.177814,47,100,43
47.36495,47.552082,48,100,43
47.739216,47.926353,43,100,43
48.113487,48.30062,48,100,43
54.850327,55.13103,45,100,43
55.13103,55.177814,47,100,43
55.177814,55.224598,45,100,43
55.224598,55.41173,43,100,43
55.41173,55.5053,41,100,43
55.598866,55.973137,40,100,43
55.973137,56.347404,40,100,43
56.347404,56.721672,40,100,43
56.721672,57.095943,40,100,43
57.095943,57.47021,45,100,43
57.47021,58.031616,43,127,43
58.031616,58.125183,48,100,43
58.21875,58.312317,48,100,43
58.405884,58.49945,48,100,43
58.593018,58.78015,48,100,43
58.96729,59.154423,47,100,43
59.341557,59.52869,48,100,43
59.715824,59.902958,43,100,43
60.090096,60.27723,48,100,43
64.95559,65.517,41,100,43
65.517,65.610565,38,64,43
65.70413,65.7977,40,64,43
65.891266,65.98483,41,64,43
66.0784,66.45267,40,64,43
67.949745,68.51115,38,100,43
68.51115,68.60471,35,64,43
68.69828,68.79185,36,64,43
68.885414,68.97898,38,64,43
69.07255,69.446815,36,64,43
70.94389,71.5053,34,74,43
71.5053,71.59887,31,64,43
71.69244,71.786,33,62,43
71.87957,71.97314,34,59,43
72.0667,72.44097,33,55,43
73.94232,74.528725,31,64,43
74.528725,74.62874,28,54,43
74.7294,74.83078,29,54,43
74.932816,75.035576,31,54,43
75.13902,75.99351,29,54,43
75.99351,76.89973,31,59,43
76.89973,78.86241,33,64,43
78.86241,79.09679,38,86,43
79.29939,79.43974,42,86,43
79.58009,79.62688,45,86,43
79.67366,80.04793,50,86,43
80.422195,80.60933,38,86,43
80.79646,80.93682,42,86,43
81.07717,81.123955,45,86,43
81.17074,81.545006,50,86,43
81.91927,82.10641,33,86,43
82.29354,82.43389,37,86,43
82.57424,82.621025,40,86,43
82.66781,83.04208,45,86,43
83.41635,83.603485,33,86,43
83.79062,83.93097,37,86,43
84.07132,84.1181,40,86,43
84.16489,84.539154,45,86,43
84.91343,85.10056,38,64,43
85.2877,85.42805,42,64,43
85.5684,85.61518,45,64,43
85.661964,86.03623,50,64,43
86.4105,86.59763,38,64,43
86.78477,86.925125,42,64,43
87.065475,87.11226,45,64,43
87.15904,87.53331,50,64,43
87.90758,88.09471,33,64,43
88.281845,88.422195,37,64,43
88.562546,88.60933,40,64,43
88.65611,89.03039,45,64,43
89.404655,89.59179,33,64,43
89.77892,89.91927,37,64,43
90.05962,90.10641,40,64,43
90.15319,90.52746,45,64,43
90.90173,91.08887,38,86,43
91.276,91.41635,42,86,43
91.5567,91.603485,45,86,43
91.65027,92.024536,50,86,43
92.3988,92.58594,38,86,43
92.77307,92.91343,42,88,43
93.05378,93.10056,45,89,43
93.14735,93.521614,50,89,43
93.89588,94.083015,37,93,43
94.27015,94.4105,42,95,43
94.55085,94.59763,45,96,43
94.64442,95.01869,49,96,43
95.39296,95.58009,37,100,43
95.76723,95.90758,41,89,43
96.04793,96.09471,44,81,43
96.141495,96.51576,49,78,43
96.89003,97.264305,42,54,43
97.264305,97.35787,42,54,43
97.45144,97.545006,42,54,43
97.63857,98.01284,42,64,43
98.01284,98.10641,42,54,43
98.199974,98.29354,42,54,43
98.38711,98.761375,42,54,43
98.761375,98.85494,42,54,43
98.94852,99.04208,42,54,43
99.13565,99.50992,42,64,43
99.50992,99.603485,42,54,43
99.69705,99.79062,42,54,43
99.884186,100.25845,42,54,43
100.25845,100.35202,42,54,43
100.44559,100.539154,42,54,43
100.63272,101.006996,42,64,43
101.006996,101.10056,42,54,43
101.19413,101.2877,42,54,43
101.38126,101.75553,42,54,43
101.75553,101.8491,42,54,43
101.942665,102.03623,42,54,43
102.1298,102.50407,42,54,43
102.50407,102.59763,42,54,43
102.6912,102.78477,42,54,43
102.878334,103.065475,42,54,43
103.065475,103.25261,43,54,43
103.25261,103.346176,43,54,43
103.43974,103.53331,43,54,43
103.62688,104.001144,43,54,43
104.001144,104.09471,43,49,43
104.18828,104.281845,43,47,43
104.37541,104.74968,43,54,43
104.74968,104.84325,43,54,43
104.93682,105.03039,43,54,43
105.123955,105.49822,43,54,43
105.49822,105.59179,43,49,43
105.685356,105.77892,43,47,43
105.87249,106.24676,43,54,43
106.24676,106.340324,43,54,43
106.43389,106.52746,43,54,43
106.621025,106.9953,43,54,43
106.9953,107.08887,43,49,43
107.182434,107.276,43,47,43
107.36957,107.743835,43,54,43
107.743835,107.8374,43,54,43
107.93097,108.024536,43,54,43
108.1181,108.49237,43,54,43
108.49237,108.58594,43,54,43
108.679504,108.77307,43,54,43
108.86664,109.24091,43,54,43
109.24091,109.33448,43,54,43
109.42805,109.521614,43,54,43
109.61518,109.802315,43,54,43
109.802315,109.98945,44,52,43
109.98945,110.083015,44,49,43
110.17658,110.27015,44,47,43
110.363716,110.55085,44,44,43
110.55085,110.73798,45,44,43
110.73798,110.83155,45,45,43
110.92512,111.01869,45,45,43
111.11226,111.29939,45,46,43
111.29939,111.48653,46,46,43
111.48653,111.58009,46,47,43
111.67366,111.76723,46,47,43
111.860794,112.04793,46,47,43
112.04793,112.23506,47,48,43
112.23506,112.32863,47,48,43
112.422195,112.51576,47,49,43
112.60933,112.79646,47,49,43
112.79646,112.983604,48,49,43
112.983604,113.07717,48,50,43
113.17074,113.264305,48,50,43
113.35787,113.545006,48,51,43
113.545006,113.73214,49,51,43
113.73214,113.82571,49,52,43
113.91927,114.01284,49,52,43
114.10641,114.29354,49,52,43
114.29354,114.480675,50,53,43
114.480675,114.57424,50,53,43
114.66781,114.761375,50,54,43
114.85494,115.04208,50,54,43
115.04208,115.22922,43,53,43
115.22922,115.322784,43,52,43
115.41635,115.50992,43,52,43
115.603485,115.79062,43,51,43
115.79062,115.97775,45,50,43
115.97775,116.07132,45,49,43
116.16489,116.25845,45,48,43
116.35202,116.539154,45,47,43
116.539154,116.72629,33,47,43
116.72629,116.819855,33,46,43
116.91342,117.006996,33,45,43
117.10056,129.07716,38,64,43
132.07132,132.81985,34,127,43
133.94266,134.31694,34,100,43
134.31694,134.69121,39,93,43
134.69121,135.06548,48,86,43
135.06548,135.81401,46,127,43
136.93681,137.31108,34,100,43
137.31108,137.68535,39,93,43
137.68535,138.05962,48,86,43
138.05962,138.24677,46,87,43
139.93097,140.30524,38,100,43
140.30524,140.6795,41,103,43
140.6795,141.05377,46,106,43
141.05377,141.8023,45,110,43
142.55086,142.92513,33,100,43
142.92513,143.2994,49,100,43
143.2994,143.67366,52,110,43
143.67366,144.04793,45,90,43
144.04793,144.17268,38,54,43
144.17268,144.29744,38,54,43
144.29744,144.4222,38,54,43
144.4222,144.54695,38,54,43
144.54695,144.6717,38,54,43
144.6717,144.79646,38,54,43
144.79646,144.92122,38,54,43
144.92122,145.04597,38,54,43
145.04597,145.17073,38,54,43
145.17073,145.29549,38,54,43
145.29549,145.42024,38,54,43
145.42024,145.545,38,54,43
145.545,145.66975,38,54,43
145.66975,145.79451,38,54,43
145.79451,145.91927,38,54,43
145.91927,146.04402,38,54,43
146.04402,146.1688,38,54,43
146.1688,146.29355,38,54,43
146.29355,146.4183,38,54,43
146.4183,146.54306,38,54,43
146.54306,146.66782,38,54,43
146.66782,146.79257,38,54,43
146.79257,146.91733,38,54,43
146.91733,147.04208,38,54,43
147.04208,147.16684,35,54,43
147.16684,147.2916,35,54,43
147.2916,147.41635,35,54,43
147.41635,147.5411,35,54,43
147.5411,147.66586,35,54,43
147.66586,147.79062,35,54,43
147.79062,147.91537,35,54,43
147.91537,148.04013,35,54,43
148.04013,148.16489,35,54,43
148.16489,148.28964,35,54,43
148.28964,148.4144,35,54,43
148.4144,148.53915,35,54,43
148.53915,148.66391,35,54,43
148.66391,148.78867,35,54,43
148.78867,148.91342,35,54,43
148.91342,149.03818,35,54,43
149.03818,149.16293,35,54,43
149.16293,149.28769,35,54,43
149.28769,149.41245,35,54,43
149.41245,149.5372,35,54,43
149.5372,149.66196,35,54,43
149.66196,149.78671,35,54,43
149.78671,149.91147,35,54,43
149.91147,150.03622,35,54,43
150.03622,150.161,40,54,43
150.161,150.28575,40,54,43
150.28575,150.4105,40,54,43
150.4105,150.53526,42,54,43
150.53526,150.66002,42,54,43
150.66002,150.78477,43,54,43
150.78477,150.90953,45,54,43
150.90953,151.03429,45,54,43
151.03429,151.15904,45,54,43
151.15904,151.2838,45,54,43
151.2838,151.40855,45,54,43
151.40855,151.53331,45,54,43
151.53331,151.65807,50,54,43
151.65807,151.78282,50,54,43
151.78282,151.90758,50,54,43
151.90758,152.03233,45,54,43
152.03233,152.15709,45,54,43
152.15709,152.28185,45,54,43
152.28185,152.4066,38,54,43
152.4066,152.53136,38,61,43
152.53136,152.65611,38,70,43
152.65611,152.78087,38,77,43
152.78087,152.90562,38,84,43
152.90562,153.03038,38,93,43
153.03038,153.15514,38,100,43
153.15514,153.27989,38,100,43
153.27989,153.40465,38,100,43
153.40465,153.5294,38,100,43
153.5294,153.65416,38,100,43
153.65416,153.77892,38,100,43
153.77892,153.90367,38,100,43
153.90367,154.02843,38,100,43
154.02843,154.1532,38,100,43
154.1532,154.27795,38,100,43
154.27795,154.40271,38,100,43
154.40271,154.52747,38,100,43
154.52747,154.65222,38,100,43
154.65222,154.77698,38,100,43
154.77698,154.90173,38,100,43
154.90173,155.02649,38,100,43
155.02649,155.15125,38,100,43
155.15125,155.276,38,100,43
155.276,155.40076,38,100,43
155.40076,155.52551,38,100,43
155.52551,155.65027,38,100,43
155.65027,155.77502,38,100,43
155.77502,155.89978,38,100,43
155.89978,156.02454,38,100,43
156.02454,156.14929,35,100,43
156.14929,156.27405,35,100,43
156.27405,156.3988,35,100,43
156.3988,156.52356,35,100,43
156.52356,156.64832,35,100,43
156.64832,156.77307,35,100,43
156.77307,156.89783,35,100,43
156.89783,157.02258,35,100,43
157.02258,157.14734,35,100,43
157.14734,157.2721,35,100,43
157.2721,157.39685,35,100,43
157.39685,157.5216,35,100,43
157.5216,157.64636,35,100,43
157.64636,157.77112,35,100,43
157.77112,157.89587,35,100,43
157.89587,158.02063,35,100,43
158.02063,158.14539,35,100,43
158.14539,158.27016,35,100,43
158.27016,158.39491,35,100,43
158.39491,158.51967,35,100,43
158.51967,158.64442,35,100,43
158.64442,158.76918,35,100,43
158.76918,158.89394,35,100,43
158.89394,159.01869,35,100,43
159.01869,159.14345,40,100,43
159.14345,159.2682,40,100,43
159.2682,159.39296,40,100,43
159.39296,159.51772,42,100,43
159.51772,159.64247,42,100,43
159.64247,159.76723,43,100,43
159.76723,159.89198,45,100,43
159.89198,160.01674,45,100,43
160.01674,160.1415,45,100,43
160.1415,160.26625,45,100,43
160.26625,160.391,45,100,43
160.391,160.51576,45,100,43
160.51576,160.64052,50,100,43
160.64052,160.76527,50,100,43
160.76527,160.89003,50,100,43
160.89003,161.01479,45,100,43
161.01479,161.13954,45,100,43
161.13954,161.2643,45,100,43
161.2643,161.63857,38,100,43
169.49821,170.24677,38,75,43
170.24677,170.62103,40,64,43
170.9953,171.74384,37,75,43
171.74384,172.1181,38,64,43
172.49237,173.2409,31,64,43
173.2409,173.98944,32,74,43
173.98944,175.48653,33,64,43
175.48653,175.67366,38,110,43
175.67366,176.04793,38,110,43
176.04793,176.60933,38,110,43
176.9836,177.17073,40,110,43
177.17073,177.545,40,110,43
177.545,178.1064,40,110,43
178.48068,178.66782,45,110,43
178.66782,179.04208,45,110,43
179.04208,179.60349,45,110,43
184.46898,185.21751,46,64,43
185.21751,185.96605,47,69,43
185.96605,186.7146,45,74,43
186.7146,187.46313,33,69,43
187.46313,187.74384,38,100,43
187.74384,187.8374,50,100,43
187.8374,188.21167,50,110,43
188.21167,188.49237,38,100,43
188.49237,188.58594,50,100,43
188.58594,188.9602,50,110,43
188.9602,189.2409,38,100,43
189.2409,189.33447,50,100,43
189.33447,189.70874,50,110,43
189.70874,189.98944,38,100,43
189.98944,190.08301,50,100,43
190.08301,190.45729,50,110,43
190.45729,190.84032,38,100,43
191.24419,191.67128,38,100,43
192.12445,192.5932,38,100,43
196.43402,196.6468,35,54,43
196.84285,197.02998,47,54,43
197.21712,197.40425,40,54,43
197.59138,197.77852,47,54,43
197.96565,198.15279,35,54,43
198.33994,198.52707,47,54,43
198.7142,198.90134,40,54,43
199.08847,199.2756,47,54,43
202.4569,202.64403,40,64,43
202.83116,203.0183,47,64,43
203.20543,203.39256,40,64,43
203.5797,203.76683,28,64,43
203.95396,204.1411,33,74,43
204.1411,204.32823,37,64,43
204.32823,204.4218,37,64,43
204.51537,204.60893,37,64,43
204.7025,205.07677,37,64,43
205.07677,205.2639,42,64,43
205.45103,205.63817,35,64,43
205.8253,206.01244,47,64,43
206.19957,206.38672,35,64,43
206.57385,206.76099,47,64,43
206.94812,207.13525,32,74,43
207.13525,207.32239,35,64,43
207.32239,207.41595,35,64,43
207.50952,207.60309,35,64,43
207.69666,208.07092,35,64,43
208.07092,208.25806,40,64,43
214.4335,214.62064,40,64,43
214.80777,214.9949,47,64,43
215.18204,215.36917,40,64,43
215.5563,215.74344,28,64,43
215.93057,216.1177,33,74,43
216.1177,216.30484,37,64,43
216.30484,216.3984,37,64,43
216.49197,216.58554,37,64,43
216.67911,217.05338,37,64,43
217.05338,217.24051,42,64,43
217.42764,217.61478,35,64,43
217.80191,217.98904,47,64,43
218.17618,218.36333,35,64,43
218.55046,218.7376,47,64,43
218.92473,219.11186,32,74,43
219.11186,219.299,35,64,43
219.299,219.39256,35,64,43
219.48613,219.5797,35,64,43
219.67326,220.04753,35,64,43
220.04753,220.23466,40,64,43
228.65572,228.8685,35,54,43
229.06454,229.25168,47,54,43
229.43881,229.62595,40,54,43
229.81308,230.00021,47,54,43
230.18735,230.37448,35,54,43
230.56161,230.74875,47,54,43
230.93588,231.12302,40,54,43
231.31015,231.49728,47,54,43
234.67857,234.95927,40,100,43
234.95927,235.00606,42,100,43
235.00606,235.05284,40,100,43
235.05284,235.23997,38,100,43
235.23997,235.33354,36,100,43
235.42711,235.80139,35,100,43
235.80139,236.17566,35,100,43
236.17566,236.54993,47,100,43
236.54993,236.9242,47,100,43
236.9242,237.29846,40,100,43
237.29846,237.85986,38,127,43
237.85986,237.95343,43,100,43
238.047,238.14056,43,100,43
238.23413,238.3277,43,100,43
238.42126,238.6084,43,100,43
238.79553,238.98267,42,100,43
239.1698,239.35693,43,100,43
239.54407,239.7312,38,100,43
239.91835,240.10548,43,100,43
246.65518,246.93588,40,100,43
246.93588,246.98267,42,100,43
246.98267,247.02945,40,100,43
247.02945,247.21658,38,100,43
247.21658,247.31015,36,100,43
247.40372,247.77798,35,100,43
247.77798,248.15227,35,100,43
248.15227,248.52654,47,100,43
248.52654,248.9008,47,100,43
248.9008,249.27507,40,100,43
249.27507,249.83647,38,127,43
249.83647,249.93004,43,100,43
250.0236,250.11717,43,100,43
250.21074,250.3043,43,100,43
250.39787,250.585,43,100,43
250.77214,250.95927,42,100,43
251.14641,251.33354,43,100,43
251.52068,251.70781,38,100,43
251.89496,252.08209,43,100,43
256.76044,257.32184,48,100,43
257.32184,257.4154,45,64,43
257.50897,257.60254,47,64,43
257.6961,257.78967,48,64,43
257.88324,258.25754,47,64,43
259.7546,260.316,45,100,43
260.316,260.40958,42,64,43
260.50314,260.5967,43,64,43
260.69028,260.78384,45,64,43
260.8774,261.25168,43,64,43
262.74875,263.31015,41,74,43
263.31015,263.40372,38,64,43
263.49728,263.59085,40,62,43
263.68442,263.77798,41,59,43
263.87155,264.24582,40,55,43
265.7472,266.3336,38,64,43
266.3336,266.4336,35,54,43
266.53427,266.63562,36,54,43
266.73767,266.84042,38,54,43
266.94388,267.79837,36,54,43
267.79837,268.7046,38,59,43
268.7046,270.66727,40,64,43
270.66727,270.90164,33,86,43
271.10425,271.2446,37,86,43
271.38495,271.43173,40,86,43
271.47852,271.85278,45,86,43
272.22705,272.41418,33,86,43
272.60132,272.74167,37,86,43
272.88202,272.9288,40,86,43
272.9756,273.34985,45,86,43
273.72412,273.91125,40,86,43
274.0984,274.23874,44,86,43
274.3791,274.42587,47,86,43
274.47266,274.84692,52,86,43
275.2212,275.40836,40,86,43
275.5955,275.73584,44,86,43
275.8762,275.92297,47,86,43
275.96976,276.34402,52,86,43
276.7183,276.90543,33,64,43
277.09256,277.2329,37,64,43
277.37326,277.42004,40,64,43
277.46683,277.8411,45,64,43
278.21536,278.4025,33,64,43
278.58963,278.72998,37,64,43
278.87033,278.9171,40,64,43
278.9639,279.33817,45,64,43
279.71243,279.89957,40,64,43
280.0867,280.22705,44,64,43
280.3674,280.41418,47,64,43
280.46097,280.83524,52,64,43
281.2095,281.39664,40,64,43
281.58377,281.72412,44,64,43
281.86447,281.91125,47,64,43
281.95804,282.3323,52,64,43
282.70657,282.8937,33,86,43
283.08084,283.2212,37,86,43
283.36157,283.40836,40,86,43
283.45514,283.8294,45,86,43
284.20367,284.3908,33,86,43
284.57794,284.7183,37,88,43
284.85864,284.90543,40,89,43
284.9522,285.32648,45,89,43
285.70074,285.88788,32,93,43
286.075,286.21536,37,95,43
286.3557,286.4025,40,96,43
286.44928,286.82355,44,96,43
287.1978,287.38495,32,100,43
287.57208,287.71243,36,89,43
287.85278,287.89957,39,81,43
287.94635,288.32062,44,78,43
288.6949,289.06915,37,54,43
289.06915,289.16272,37,54,43
289.2563,289.34985,37,54,43
289.44342,289.8177,37,64,43
289.8177,289.91125,37,54,43
290.00482,290.0984,37,54,43
290.19196,290.56622,37,54,43
290.56622,290.6598,37,54,43
290.75336,290.84692,37,54,43
290.9405,291.31476,37,64,43
291.31476,291.40836,37,54,43
291.50192,291.5955,37,54,43
291.68906,292.06332,37,54,43
292.06332,292.1569,37,54,43
292.25046,292.34402,37,54,43
292.4376,292.81186,37,64,43
292.81186,292.90543,37,54,43
292.999,293.09256,37,54,43
293.18613,293.5604,37,54,43
293.5604,293.65396,37,54,43
293.74753,293.8411,37,54,43
293.93466,294.30893,37,54,43
294.30893,294.4025,37,54,43
294.49606,294.58963,37,54,43
294.6832,294.87033,37,54,43
294.87033,295.05746,38,54,43
295.05746,295.15103,38,54,43
295.2446,295.33817,38,54,43
295.43173,295.806,38,54,43
295.806,295.89957,38,49,43
295.99313,296.0867,38,47,43
296.18027,296.55453,38,54,43
296.55453,296.6481,38,54,43
296.74167,296.83524,38,54,43
296.9288,297.30307,38,54,43
297.30307,297.39664,38,49,43
297.4902,297.58377,38,47,43
297.67734,298.0516,38,54,43
298.0516,298.14517,38,54,43
298.23874,298.3323,38,54,43
298.42587,298.80014,38,54,43
298.80014,298.8937,38,49,43
298.98727,299.08084,38,47,43
299.1744,299.5487,38,54,43
299.5487,299.64227,38,54,43
299.73584,299.8294,38,54,43
299.92297,300.29724,38,54,43
300.29724,300.3908,38,54,43
300.48438,300.57794,38,54,43
300.6715,301.04578,38,54,43
301.04578,301.13934,38,54,43
301.2329,301.32648,38,54,43
301.42004,301.60718,38,54,43
301.60718,301.7943,39,52,43
301.7943,301.88788,39,49,43
301.98145,302.075,39,47,43
302.16858,302.3557,39,44,43
302.3557,302.54285,40,44,43
302.54285,302.6364,40,45,43
302.72998,302.82355,40,45,43
302.9171,303.10425,40,46,43
303.10425,303.29138,41,46,43
303.29138,303.38495,41,47,43
303.47852,303.57208,41,47,43
303.66565,303.85278,41,47,43
303.85278,304.03992,42,48,43
304.03992,304.13348,42,48,43
304.22705,304.32062,42,49,43
304.41418,304.60132,42,49,43
304.60132,304.78845,43,49,43
304.78845,304.88202,43,50,43
304.9756,305.06915,43,50,43
305.16272,305.34985,43,51,43
305.34985,305.537,44,51,43
305.537,305.63055,44,52,43
305.72412,305.8177,44,52,43
305.91125,306.0984,44,52,43
306.0984,306.28552,45,53,43
306.28552,306.3791,45,53,43
306.47266,306.56622,45,54,43
306.6598,306.84692,45,54,43
306.84692,307.03406,38,53,43
307.03406,307.12762,38,52,43
307.2212,307.31476,38,52,43
307.40836,307.5955,38,51,43
307.5955,307.78262,40,50,43
307.78262,307.8762,40,49,43
307.96976,308.06332,40,48,43
308.1569,308.34402,40,47,43
308.34402,308.53116,40,47,43
308.53116,308.62473,40,46,43
308.7183,308.81186,40,45,43
308.90543,320.88202,33,64,43
323.8762,324.62473,29,127,43
325.74753,326.1218,29,100,43
326.1218,326.49606,34,93,43
326.49606,326.87033,43,86,43
326.87033,327.61887,41,127,43
328.74167,329.11594,29,100,43
329.11594,329.4902,34,93,43
329.4902,329.86447,43,86,43
329.86447,330.0516,41,87,43
331.73584,332.1101,33,100,43
332.1101,332.48438,36,103,43
332.48438,332.85864,41,106,43
332.85864,333.60718,40,110,43
334.72998,335.10425,44,100,43
335.10425,335.47852,47,110,43
335.47852,335.85278,40,90,43
335.85278,335.97754,33,54,43
335.97754,336.1023,33,54,43
336.1023,336.22705,33,54,43
336.22705,336.3518,33,54,43
336.3518,336.47656,33,54,43
336.47656,336.60132,33,54,43
336.60132,336.72607,33,54,43
336.72607,336.85083,33,54,43
336.85083,336.9756,33,54,43
336.9756,337.10034,33,54,43
337.10034,337.2251,33,54,43
337.2251,337.34985,33,54,43
337.34985,337.4746,33,54,43
337.4746,337.59937,33,54,43
337.59937,337.72412,33,54,43
337.72412,337.84888,33,54,43
337.84888,337.97363,33,54,43
337.97363,338.0984,33,54,43
338.0984,338.22314,33,54,43
338.22314,338.3479,33,54,43
338.3479,338.47266,33,54,43
338.47266,338.5974,33,54,43
338.5974,338.72217,33,54,43
338.72217,338.84692,33,54,43
338.84692,338.97168,30,54,43
338.97168,339.09644,30,54,43
339.09644,339.2212,30,54,43
339.2212,339.34595,30,54,43
339.34595,339.4707,30,54,43
339.4707,339.5955,30,54,43
339.5955,339.72025,30,54,43
339.72025,339.845,30,54,43
339.845,339.96976,30,54,43
339.96976,340.0945,30,54,43
340.0945,340.21927,30,54,43
340.21927,340.34402,30,54,43
340.34402,340.46878,30,54,43
340.46878,340.59354,30,54,43
340.59354,340.7183,30,54,43
340.7183,340.84305,30,54,43
340.84305,340.9678,30,54,43
340.9678,341.09256,30,54,43
341.09256,341.21732,30,54,43
341.21732,341.34207,30,54,43
341.34207,341.46683,30,54,43
341.46683,341.59158,30,54,43
341.59158,341.71634,30,54,43
341.71634,341.8411,30,54,43
341.8411,341.96585,35,54,43
341.96585,342.0906,35,54,43
342.0906,342.21536,35,54,43
342.21536,342.34012,37,54,43
342.34012,342.46487,37,54,43
342.46487,342.58963,38,54,43
342.58963,342.7144,40,54,43
342.7144,342.83914,40,54,43
342.83914,342.9639,40,54,43
342.9639,343.08865,40,54,43
343.08865,343.2134,40,54,43
343.2134,343.33817,40,54,43
343.33817,343.46292,45,54,43
343.46292,343.58768,45,54,43
343.58768,343.71243,45,54,43
343.71243,343.8372,40,54,43
343.8372,343.96194,40,54,43
343.96194,344.0867,40,54,43
344.0867,344.21146,33,54,43
344.21146,344.3362,33,61,43
344.3362,344.46097,33,70,43
344.46097,344.58572,33,77,43
344.58572,344.71048,33,84,43
344.71048,344.83524,33,93,43
344.83524,344.96,33,100,43
344.96,345.08475,33,100,43
345.08475,345.2095,33,100,43
345.2095,345.33426,33,100,43
345.33426,345.459,33,100,43
345.459,345.58377,33,100,43
345.58377,345.70853,33,100,43
345.70853,345.83328,33,100,43
345.83328,345.95804,33,100,43
345.95804,346.0828,33,100,43
346.0828,346.20755,33,100,43
346.20755,346.3323,33,100,43
346.3323,346.45706,33,100,43
346.45706,346.58182,33,100,43
346.58182,346.70657,33,100,43
346.70657,346.83133,33,100,43
346.83133,346.9561,33,100,43
346.9561,347.08084,33,100,43
347.08084,347.2056,33,100,43
347.2056,347.33035,33,100,43
347.33035,347.4551,33,100,43
347.4551,347.5799,33,100,43
347.5799,347.70465,33,100,43
347.70465,347.8294,33,100,43
347.8294,347.95416,30,100,43
347.95416,348.07892,30,100,43
348.07892,348.20367,30,100,43
348.20367,348.32843,30,100,43
348.32843,348.4532,30,100,43
348.4532,348.57794,30,100,43
348.57794,348.7027,30,100,43
348.7027,348.82745,30,100,43
348.82745,348.9522,30,100,43
348.9522,349.07697,30,100,43
349.07697,349.20172,30,100,43
349.20172,349.32648,30,100,43
349.32648,349.45123,30,100,43
349.45123,349.576,30,100,43
349.576,349.70074,30,100,43
349.70074,349.8255,30,100,43
349.8255,349.95026,30,100,43
349.95026,350.075,30,100,43
350.075,350.19977,30,100,43
350.19977,350.32452,30,100,43
350.32452,350.44928,30,100,43
350.44928,350.57404,30,100,43
350.57404,350.6988,30,100,43
350.6988,350.82355,30,100,43
350.82355,350.9483,35,100,43
350.9483,351.07306,35,100,43
351.07306,351.1978,35,100,43
351.1978,351.32257,37,100,43
351.32257,351.44733,37,100,43
351.44733,351.57208,38,100,43
351.57208,351.69684,40,100,43
351.69684,351.8216,40,100,43
351.8216,351.94635,40,100,43
351.94635,352.0711,40,100,43
352.0711,352.19586,40,100,43
352.19586,352.32062,40,100,43
352.32062,352.44537,45,100,43
352.44537,352.57013,45,100,43
352.57013,352.6949,45,100,43
352.6949,352.81964,40,100,43
352.81964,352.9444,40,100,43
352.9444,353.06915,40,100,43
353.06915,353.44342,33,100,43
361.30307,362.0516,33,75,43
362.0516,362.42587,35,64,43
362.80014,363.54868,32,75,43
363.54868,363.92297,33,64,43
364.29724,365.04578,26,64,43
365.04578,365.7943,27,74,43
365.7943,367.29138,28,64,43
367.29138,367.47852,33,110,43
367.47852,367.85278,33,110,43
367.85278,368.41418,33,110,43
368.78845,368.9756,35,110,43
368.9756,369.34985,35,110,43
369.34985,369.91125,35,110,43
370.28552,370.47266,40,110,43
370.47266,370.84692,40,110,43
370.84692,371.40833,40,110,43
376.27383,377.02237,41,64,43
377.02237,377.7709,42,69,43
377.7709,379.26797,40,74,43
379.26797,379.54868,33,100,43
379.54868,379.64224,45,100,43
379.64224,380.01654,45,110,43
380.01654,380.29724,33,100,43
380.29724,380.3908,45,100,43
380.3908,380.76508,45,110,43
380.76508,381.04578,33,100,43
381.04578,381.13934,45,100,43
381.13934,381.5136,45,110,43
381.5136,381.7943,33,100,43
381.7943,381.88788,45,100,43
381.88788,382.26215,45,110,43
382.26215,382.6466,33,100,43
383.0556,383.49243,45,100,43
383.9612,384.46695,33,100,43
2.0,7.525784,64,100,0
2.0,7.525784,52,100,0
7.525784,7.8064857,71,54,0
7.525784,7.8064857,74,54,0
7.8064857,7.8532696,73,54,0
7.8064857,7.8532696,76,54,0
7.8532696,7.900053,71,54,0
7.8532696,7.900053,74,54,0
7.900053,8.087188,69,54,0
7.900053,8.087188,73,54,0
8.087188,8.180755,68,54,0
8.087188,8.180755,71,54,0
8.2743225,8.648591,73,54,0
8.2743225,8.648591,69,54,0
8.648591,9.022861,73,54,0
8.648591,9.022861,69,54,0
9.022861,9.303562,71,54,0
9.022861,9.303562,74,54,0
9.303562,9.350346,73,54,0
9.303562,9.350346,76,54,0
9.350346,9.397129,71,54,0
9.350346,9.397129,74,54,0
9.397129,9.584264,69,54,0
9.397129,9.584264,73,54,0
9.584264,9.677831,68,54,0
9.584264,9.677831,71,54,0
7.525784,10.519937,52,54,0
7.525784,10.519937,64,54,0
9.771399,10.519937,69,54,0
9.771399,10.519937,73,54,0
16.50824,16.695375,42,64,0
16.50824,16.788942,73,64,0
16.788942,16.835726,74,64,0
16.50824,16.88251,64,64,0
16.835726,16.88251,73,64,0
16.88251,17.069643,62,64,0
16.88251,17.069643,71,64,0
16.88251,17.069643,54,64,0
17.069643,17.16321,61,64,0
17.069643,17.16321,70,64,0
17.256779,17.443913,42,64,0
17.256779,17.631046,61,64,0
17.256779,17.631046,70,64,0
17.631046,17.818182,54,64,0
17.631046,18.005316,61,64,0
17.631046,18.005316,70,64,0
18.005316,18.192451,66,74,0
18.005316,18.192451,74,74,0
18.005316,18.192451,59,74,0
18.005316,18.192451,47,74,0
18.192451,18.379585,66,64,0
18.192451,18.379585,72,64,0
18.192451,18.379585,57,64,0
18.192451,18.379585,50,64,0
18.379585,18.473152,66,64,0
18.379585,18.473152,72,64,0
18.379585,18.473152,57,64,0
18.379585,18.473152,50,64,0
18.56672,18.660286,66,64,0
18.56672,18.660286,72,64,0
18.56672,18.660286,57,64,0
18.56672,18.660286,50,64,0
18.753855,19.128122,66,64,0
18.753855,19.128122,72,64,0
18.753855,19.128122,50,64,0
18.753855,19.128122,57,64,0
19.128122,19.315258,67,64,0
19.128122,19.315258,71,64,0
19.128122,19.315258,55,64,0
19.502392,19.689528,40,64,0
19.502392,19.783094,71,64,0
19.783094,19.829878,73,64,0
19.502392,19.876661,62,64,0
19.829878,19.876661,71,64,0
19.876661,20.063795,69,64,0
19.876661,20.063795,61,64,0
19.876661,20.063795,52,64,0
20.063795,20.157362,68,64,0
20.063795,20.157362,59,64,0
20.25093,20.438065,40,64,0
20.25093,20.625198,68,64,0
20.25093,20.625198,59,64,0
20.625198,20.812334,52,64,0
20.625198,20.999468,68,64,0
20.625198,20.999468,59,64,0
20.999468,21.186604,73,74,0
20.999468,21.186604,64,74,0
20.999468,21.186604,57,74,0
20.999468,21.186604,49,74,0
21.186604,21.373737,71,65,0
21.186604,21.373737,62,65,0
21.186604,21.373737,56,64,0
21.186604,21.373737,52,64,0
21.373737,21.467304,71,64,0
21.373737,21.467304,62,64,0
21.373737,21.467304,52,64,0
21.373737,21.467304,56,64,0
21.560871,21.654438,71,64,0
21.560871,21.654438,62,64,0
21.560871,21.654438,52,64,0
21.560871,21.654438,56,64,0
21.748007,22.122274,71,64,0
21.748007,22.122274,62,64,0
21.748007,22.122274,56,64,0
21.748007,22.122274,52,64,0
22.122274,22.30941,69,64,0
22.122274,22.30941,61,64,0
22.122274,22.30941,57,64,0
28.484848,28.671982,42,64,0
28.484848,28.76555,73,64,0
28.76555,28.812334,74,64,0
28.484848,28.859118,64,64,0
28.812334,28.859118,73,64,0
28.859118,29.046251,62,64,0
28.859118,29.046251,71,64,0
28.859118,29.046251,54,64,0
29.046251,29.139818,61,64,0
29.046251,29.139818,70,64,0
29.233387,29.42052,42,64,0
29.233387,29.607655,61,64,0
29.233387,29.607655,70,64,0
29.607655,29.79479,54,64,0
29.607655,29.981924,61,64,0
29.607655,29.981924,70,64,0
29.981924,30.169058,66,74,0
29.981924,30.169058,74,74,0
29.981924,30.169058,59,74,0
29.981924,30.169058,47,74,0
30.169058,30.356194,66,64,0
30.169058,30.356194,72,64,0
30.169058,30.356194,57,64,0
30.169058,30.356194,50,64,0
30.356194,30.44976,66,64,0
30.356194,30.44976,72,64,0
30.356194,30.44976,57,64,0
30.356194,30.44976,50,64,0
30.543327,30.636894,66,64,0
30.543327,30.636894,72,64,0
30.543327,30.636894,57,64,0
30.543327,30.636894,50,64,0
30.730463,31.10473,66,64,0
30.730463,31.10473,72,64,0
30.730463,31.10473,50,64,0
30.730463,31.10473,57,64,0
31.10473,31.291866,67,64,0
31.10473,31.291866,71,64,0
31.10473,31.291866,55,64,0
31.479,31.666134,40,64,0
31.479,31.759703,71,64,0
31.759703,31.806486,73,64,0
31.479,31.85327,62,64,0
31.806486,31.85327,71,64,0
31.85327,32.040405,69,64,0
31.85327,32.040405,61,64,0
31.85327,32.040405,52,64,0
32.040405,32.133972,68,64,0
32.040405,32.133972,59,64,0
32.22754,32.414673,40,64,0
32.22754,32.601807,68,64,0
32.22754,32.601807,59,64,0
32.601807,32.78894,52,64,0
32.601807,32.976074,68,64,0
32.601807,32.976074,59,64,0
32.976074,33.16321,73,74,0
32.976074,33.16321,64,74,0
32.976074,33.16321,57,74,0
32.976074,33.16321,49,74,0
33.16321,33.350346,71,65,0
33.16321,33.350346,62,65,0
33.16321,33.350346,56,64,0
33.16321,33.350346,52,64,0
33.350346,33.443913,71,64,0
33.350346,33.443913,62,64,0
33.350346,33.443913,52,64,0
33.350346,33.443913,56,64,0
33.53748,33.631046,71,64,0
33.53748,33.631046,62,64,0
33.53748,33.631046,52,64,0
33.53748,33.631046,56,64,0
33.724613,34.098885,71,64,0
33.724613,34.098885,62,64,0
33.724613,34.098885,56,64,0
33.724613,34.098885,52,64,0
34.098885,34.28602,69,64,0
34.098885,34.28602,61,64,0
34.098885,34.28602,57,64,0
34.473152,39.87957,64,100,0
34.473152,39.87957,52,100,0
39.87957,40.16027,71,54,0
39.87957,40.16027,74,54,0
40.16027,40.207054,73,54,0
40.16027,40.207054,76,54,0
40.207054,40.253838,71,54,0
40.207054,40.253838,74,54,0
40.253838,40.44097,69,54,0
40.253838,40.44097,73,54,0
40.44097,40.53454,68,54,0
40.44097,40.53454,71,54,0
40.628105,41.002377,73,54,0
40.628105,41.002377,69,54,0
41.002377,41.376644,73,54,0
41.002377,41.376644,69,54,0
41.376644,41.657345,71,54,0
41.376644,41.657345,74,54,0
41.657345,41.70413,73,54,0
41.657345,41.70413,76,54,0
41.70413,41.75091,71,54,0
41.70413,41.75091,74,54,0
41.75091,41.93805,69,54,0
41.75091,41.93805,73,54,0
41.93805,42.031616,68,54,0
41.93805,42.031616,71,54,0
39.87957,42.873722,52,54,0
39.87957,42.873722,64,54,0
42.125183,42.873722,69,54,0
42.125183,42.873722,73,54,0
42.873722,43.154423,57,100,0
42.873722,43.154423,69,100,0
43.154423,43.201206,59,100,0
43.154423,43.201206,71,100,0
43.201206,43.24799,57,100,0
43.201206,43.24799,69,100,0
43.24799,43.435123,55,100,0
43.24799,43.435123,67,100,0
43.435123,43.52869,53,100,0
43.435123,43.52869,65,100,0
43.622257,43.80939,52,100,0
43.622257,43.80939,64,100,0
43.99653,44.183662,52,100,0
43.99653,44.183662,64,100,0
44.370796,44.55793,71,100,0
44.370796,44.55793,64,100,0
44.370796,44.55793,68,100,0
44.370796,44.55793,62,100,0
44.370796,44.55793,52,100,0
44.370796,44.55793,40,100,0
44.745064,44.9322,71,100,0
44.745064,44.9322,64,100,0
44.745064,44.9322,68,100,0
44.745064,44.9322,62,100,0
44.745064,44.9322,52,100,0
44.745064,44.9322,40,100,0
45.119335,45.30647,64,100,0
45.119335,45.30647,72,100,0
45.119335,45.30647,60,100,0
45.119335,45.30647,69,100,0
45.119335,45.30647,45,100,0
45.119335,45.30647,52,100,0
45.493603,46.055008,74,127,0
45.493603,46.055008,67,127,0
45.493603,46.055008,65,127,0
45.493603,46.055008,71,127,0
45.493603,46.055008,43,127,0
45.493603,46.055008,55,127,0
46.055008,46.148575,76,100,0
46.055008,46.148575,67,100,0
46.055008,46.148575,72,100,0
46.055008,46.148575,64,100,0
46.055008,46.148575,60,100,0
46.055008,46.148575,48,100,0
46.24214,46.33571,76,100,0
46.24214,46.33571,67,100,0
46.24214,46.33571,72,100,0
46.24214,46.33571,64,100,0
46.24214,46.33571,60,100,0
46.24214,46.33571,48,100,0
46.429276,46.522842,76,100,0
46.429276,46.522842,67,100,0
46.429276,46.522842,72,100,0
46.429276,46.522842,64,100,0
46.429276,46.522842,60,100,0
46.429276,46.522842,48,100,0
46.61641,46.803543,67,100,0
46.61641,46.803543,76,100,0
46.61641,46.803543,64,100,0
46.61641,46.803543,72,100,0
46.61641,46.803543,48,100,0
46.61641,46.803543,60,100,0
46.99068,47.177814,79,100,0
46.99068,47.177814,74,100,0
46.99068,47.177814,67,100,0
46.99068,47.177814,59,100,0
46.99068,47.177814,47,100,0
47.36495,47.552082,72,100,0
47.36495,47.552082,76,100,0
47.36495,47.552082,67,100,0
47.36495,47.552082,48,100,0
47.36495,47.552082,60,100,0
47.739216,47.926353,74,100,0
47.739216,47.926353,67,100,0
47.739216,47.926353,71,100,0
47.739216,47.926353,65,100,0
47.739216,47.926353,55,100,0
47.739216,47.926353,43,100,0
48.113487,48.30062,64,100,0
48.113487,48.30062,72,100,0
48.113487,48.30062,67,100,0
48.113487,48.30062,48,100,0
48.113487,48.30062,60,100,0
54.850327,55.13103,57,100,0
54.850327,55.13103,69,100,0
55.13103,55.177814,59,100,0
55.13103,55.177814,71,100,0
55.177814,55.224598,57,100,0
55.177814,55.224598,69,100,0
55.224598,55.41173,55,100,0
55.224598,55.41173,67,100,0
55.41173,55.5053,53,100,0
55.41173,55.5053,65,100,0
55.598866,55.786,52,100,0
55.598866,55.786,64,100,0
55.973137,56.16027,52,100,0
55.973137,56.16027,64,100,0
56.347404,56.53454,71,100,0
56.347404,56.53454,64,100,0
56.347404,56.53454,68,100,0
56.347404,56.53454,62,100,0
56.347404,56.53454,52,100,0
56.347404,56.53454,40,100,0
56.721672,56.908806,71,100,0
56.721672,56.908806,64,100,0
56.721672,56.908806,68,100,0
56.721672,56.908806,62,100,0
56.721672,56.908806,52,100,0
56.721672,56.908806,40,100,0
57.095943,57.283077,64,100,0
57.095943,57.283077,72,100,0
57.095943,57.283077,60,100,0
57.095943,57.283077,69,100,0
57.095943,57.283077,45,100,0
57.095943,57.283077,52,100,0
57.47021,58.031616,74,127,0
57.47021,58.031616,67,127,0
57.47021,58.031616,65,127,0
57.47021,58.031616,71,127,0
57.47021,58.031616,43,127,0
57.47021,58.031616,55,127,0
58.031616,58.125183,76,100,0
58.031616,58.125183,67,100,0
58.031616,58.125183,72,100,0
58.031616,58.125183,64,100,0
58.031616,58.125183,60,100,0
58.031616,58.125183,48,100,0
58.21875,58.312317,76,100,0
58.21875,58.312317,67,100,0
58.21875,58.312317,72,100,0
58.21875,58.312317,64,100,0
58.21875,58.312317,60,100,0
58.21875,58.312317,48,100,0
58.405884,58.49945,76,100,0
58.405884,58.49945,67,100,0
58.405884,58.49945,72,100,0
58.405884,58.49945,64,100,0
58.405884,58.49945,60,100,0
58.405884,58.49945,48,100,0
58.593018,58.78015,67,100,0
58.593018,58.78015,76,100,0
58.593018,58.78015,64,100,0
58.593018,58.78015,72,100,0
58.593018,58.78015,48,100,0
58.593018,58.78015,60,100,0
58.96729,59.154423,79,100,0
58.96729,59.154423,74,100,0
58.96729,59.154423,67,100,0
58.96729,59.154423,59,100,0
58.96729,59.154423,47,100,0
59.341557,59.52869,72,100,0
59.341557,59.52869,76,100,0
59.341557,59.52869,67,100,0
59.341557,59.52869,48,100,0
59.341557,59.52869,60,100,0
59.715824,59.902958,74,100,0
59.715824,59.902958,67,100,0
59.715824,59.902958,71,100,0
59.715824,59.902958,65,100,0
59.715824,59.902958,55,100,0
59.715824,59.902958,43,100,0
60.090096,60.27723,64,100,0
60.090096,60.27723,72,100,0
60.090096,60.27723,67,100,0
60.090096,60.27723,48,100,0
60.090096,60.27723,60,100,0
60.83863,61.119335,81,64,0
61.119335,61.16612,83,64,0
61.16612,61.212902,81,64,0
60.83863,61.400036,60,64,0
60.83863,61.400036,57,64,0
61.212902,61.400036,79,64,0
61.400036,61.493603,77,64,0
61.400036,61.58717,59,64,0
61.400036,61.58717,62,64,0
61.58717,61.774303,76,64,0
61.58717,61.96144,60,64,0
61.58717,61.96144,64,64,0
61.96144,62.148575,76,64,0
61.96144,62.33571,62,64,0
61.96144,62.33571,68,64,0
62.33571,62.522842,64,64,0
62.33571,62.522842,83,64,0
62.33571,62.709976,68,64,0
62.522842,62.709976,65,64,0
62.709976,62.89711,64,64,0
62.709976,62.89711,83,64,0
62.709976,63.084248,68,64,0
62.89711,63.084248,62,64,0
63.084248,63.27138,84,64,0
63.084248,63.27138,60,64,0
63.084248,63.27138,69,64,0
63.458515,64.01992,79,74,0
63.458515,64.01992,86,74,0
63.458515,64.01992,65,74,0
63.458515,64.01992,67,74,0
63.458515,64.01992,71,74,0
64.01992,64.11349,79,64,0
64.01992,64.11349,89,64,0
64.01992,64.11349,62,64,0
64.01992,64.11349,67,64,0
64.01992,64.11349,71,64,0
64.207054,64.30062,79,64,0
64.207054,64.30062,88,64,0
64.207054,64.30062,71,64,0
64.207054,64.30062,67,64,0
64.207054,64.30062,64,64,0
64.39419,64.487755,79,64,0
64.39419,64.487755,86,64,0
64.39419,64.487755,65,64,0
64.39419,64.487755,67,64,0
64.39419,64.487755,71,64,0
64.58132,64.768456,79,64,0
64.58132,64.768456,91,64,0
64.58132,64.768456,72,64,0
64.58132,64.768456,67,64,0
64.58132,64.768456,64,64,0
66.45267,67.01407,83,74,0
66.45267,67.01407,76,74,0
66.45267,67.01407,62,74,0
66.45267,67.01407,64,74,0
66.45267,67.01407,68,74,0
67.01407,67.107635,76,64,0
67.01407,67.107635,86,64,0
67.01407,67.107635,59,64,0
67.01407,67.107635,64,64,0
67.01407,67.107635,68,64,0
67.2012,67.29477,84,64,0
67.2012,67.29477,76,64,0
67.2012,67.29477,60,64,0
67.2012,67.29477,64,64,0
67.2012,67.29477,68,64,0
67.388336,67.48191,83,64,0
67.388336,67.48191,76,64,0
67.388336,67.48191,62,64,0
67.388336,67.48191,64,64,0
67.388336,67.48191,68,64,0
67.57548,67.76261,88,64,0
67.57548,67.76261,76,64,0
67.57548,67.76261,60,64,0
67.57548,67.76261,64,64,0
67.57548,67.76261,69,64,0
69.446815,70.008224,79,74,0
69.446815,70.008224,72,74,0
69.446815,70.008224,64,74,0
69.446815,70.008224,60,74,0
69.446815,70.008224,58,74,0
70.008224,70.10179,55,64,0
70.008224,70.10179,60,64,0
70.008224,70.10179,64,64,0
70.008224,70.10179,72,64,0
70.008224,70.10179,82,64,0
70.19536,70.288925,57,63,0
70.19536,70.288925,64,63,0
70.19536,70.288925,60,63,0
70.19536,70.288925,72,63,0
70.19536,70.288925,81,63,0
70.38249,70.47606,58,61,0
70.38249,70.47606,60,61,0
70.38249,70.47606,64,61,0
70.38249,70.47606,72,61,0
70.38249,70.47606,79,61,0
70.569626,70.75676,72,60,0
70.569626,70.75676,84,60,0
70.569626,70.75676,65,60,0
70.569626,70.75676,60,60,0
70.569626,70.75676,57,60,0
72.44097,73.00237,76,74,0
72.44097,73.00237,69,74,0
72.44097,73.00237,61,74,0
72.44097,73.00237,57,74,0
72.44097,73.00237,55,74,0
73.00237,73.09594,79,61,0
73.00237,73.09594,69,61,0
73.00237,73.09594,61,61,0
73.00237,73.09594,57,61,0
73.00237,73.09594,52,61,0
73.18951,73.28307,77,60,0
73.18951,73.28307,69,60,0
73.18951,73.28307,61,60,0
73.18951,73.28307,57,60,0
73.18951,73.28307,53,60,0
73.37664,73.47021,76,59,0
73.37664,73.47021,69,59,0
73.37664,73.47021,61,59,0
73.37664,73.47021,57,59,0
73.37664,73.47021,55,59,0
73.56378,73.751854,53,58,0
73.56378,73.751854,57,58,0
73.56378,73.751854,62,58,0
73.56378,73.751854,69,58,0
73.56378,73.751854,81,58,0
78.86241,79.09679,50,86,0
78.86241,79.09679,62,86,0
78.86241,79.20138,74,86,0
79.20138,79.29939,78,86,0
79.29939,79.48653,66,86,0
79.29939,79.48653,62,86,0
79.29939,79.58009,69,86,0
79.58009,79.67366,78,86,0
79.67366,79.860794,50,86,0
79.67366,79.860794,62,86,0
79.67366,79.95436,74,86,0
79.95436,80.04793,78,86,0
80.04793,80.23506,66,86,0
80.04793,80.23506,62,86,0
80.04793,80.32863,69,86,0
80.32863,80.422195,78,86,0
80.422195,80.60933,50,86,0
80.422195,80.60933,62,86,0
80.422195,80.702896,74,86,0
80.702896,80.79646,78,86,0
80.79646,80.983604,66,86,0
80.79646,80.983604,62,86,0
80.79646,81.07717,69,86,0
81.07717,81.17074,78,86,0
81.17074,81.35787,50,86,0
81.17074,81.35787,62,86,0
81.17074,81.45144,74,86,0
81.45144,81.545006,78,86,0
81.545006,81.73214,66,86,0
81.545006,81.73214,62,86,0
81.545006,81.82571,69,86,0
81.82571,81.91927,78,86,0
81.91927,82.10641,45,127,0
81.91927,82.10641,57,127,0
81.91927,82.199974,83,127,0
82.199974,82.29354,81,86,0
82.29354,82.480675,67,86,0
82.29354,82.480675,64,86,0
82.29354,82.480675,57,86,0
82.29354,82.792564,81,86,0
82.66781,82.85495,57,86,0
82.66781,82.85495,45,86,0
82.792564,82.91733,80,86,0
82.91733,83.04208,79,86,0
83.04208,83.16684,78,86,0
83.04208,83.22922,57,86,0
83.04208,83.22922,64,86,0
83.04208,83.22922,67,86,0
83.16684,83.291595,77,85,0
83.291595,83.41635,76,84,0
83.41635,83.54111,75,82,0
83.41635,83.603485,57,82,0
83.41635,83.603485,45,82,0
83.54111,83.66586,74,81,0
83.66586,83.79062,73,80,0
83.79062,83.915375,72,79,0
83.79062,83.97775,57,79,0
83.79062,83.97775,64,79,0
83.79062,83.97775,67,79,0
83.915375,84.04013,71,78,0
84.04013,84.16489,70,77,0
84.16489,84.28964,69,86,0
84.16489,84.35202,57,86,0
84.16489,84.35202,45,86,0
84.28964,84.4144,73,86,0
84.4144,84.539154,71,86,0
84.539154,84.66391,69,86,0
84.539154,84.72629,57,86,0
84.539154,84.72629,64,86,0
84.539154,84.72629,67,86,0
84.66391,84.788666,71,86,0
84.788666,84.91343,73,86,0
84.91343,85.10056,50,86,0
84.91343,85.10056,62,86,0
84.91343,85.19413,74,86,0
85.19413,85.2877,78,86,0
85.2877,85.47483,66,86,0
85.2877,85.47483,62,86,0
85.2877,85.5684,69,86,0
85.5684,85.661964,78,86,0
85.661964,85.8491,50,86,0
85.661964,85.8491,62,86,0
85.661964,85.942665,74,86,0
85.942665,86.03623,78,86,0
86.03623,86.223366,66,86,0
86.03623,86.223366,62,86,0
86.03623,86.31693,69,86,0
86.31693,86.4105,78,86,0
86.4105,86.59763,50,86,0
86.4105,86.59763,62,86,0
86.4105,86.6912,74,86,0
86.6912,86.78477,78,86,0
86.78477,86.97191,66,86,0
86.78477,86.97191,62,86,0
86.78477,87.065475,69,86,0
87.065475,87.15904,78,86,0
87.15904,87.346176,50,86,0
87.15904,87.346176,62,86,0
87.15904,87.43974,74,86,0
87.43974,87.53331,78,86,0
87.53331,87.72044,66,86,0
87.53331,87.72044,62,86,0
87.53331,87.81401,69,86,0
87.81401,87.90758,78,86,0
87.90758,88.09471,45,127,0
87.90758,88.09471,57,127,0
87.90758,88.18828,83,127,0
88.18828,88.281845,81,86,0
88.281845,88.46898,67,86,0
88.281845,88.46898,64,86,0
88.281845,88.46898,57,86,0
88.281845,88.78087,81,86,0
88.65611,88.84325,57,86,0
88.65611,88.84325,45,86,0
88.78087,88.90563,80,86,0
88.90563,89.03039,79,86,0
89.03039,89.15514,78,86,0
89.03039,89.21752,57,86,0
89.03039,89.21752,64,86,0
89.03039,89.21752,67,86,0
89.15514,89.2799,77,85,0
89.2799,89.404655,76,84,0
89.404655,89.52941,75,82,0
89.404655,89.59179,57,82,0
89.404655,89.59179,45,82,0
89.52941,89.65417,74,81,0
89.65417,89.77892,73,80,0
89.77892,89.90368,72,79,0
89.77892,89.96606,57,79,0
89.77892,89.96606,64,79,0
89.77892,89.96606,67,79,0
89.90368,90.028435,71,78,0
90.028435,90.15319,70,77,0
90.15319,90.27795,69,86,0
90.15319,90.340324,57,86,0
90.15319,90.340324,45,86,0
90.27795,90.4027,73,86,0
90.4027,90.52746,71,86,0
90.52746,90.652214,69,86,0
90.52746,90.71459,57,86,0
90.52746,90.71459,64,86,0
90.52746,90.71459,67,86,0
90.652214,90.77697,71,86,0
90.77697,90.90173,73,86,0
90.90173,91.08887,50,86,0
90.90173,91.08887,62,86,0
90.90173,91.182434,74,86,0
91.182434,91.276,78,86,0
91.276,91.463135,66,86,0
91.276,91.463135,62,86,0
91.276,91.5567,69,86,0
91.5567,91.65027,78,86,0
91.65027,91.8374,50,86,0
91.65027,91.8374,62,86,0
91.65027,91.93097,74,86,0
91.93097,92.024536,78,86,0
92.024536,92.21167,66,86,0
92.024536,92.21167,62,86,0
92.024536,92.30524,69,86,0
92.30524,92.3988,78,86,0
92.3988,92.58594,50,86,0
92.3988,92.58594,62,86,0
92.3988,92.679504,74,86,0
92.679504,92.77307,78,86,0
92.77307,92.96021,66,86,0
92.77307,92.96021,62,86,0
92.77307,93.05378,69,86,0
93.05378,93.14735,78,86,0
93.14735,93.33448,50,86,0
93.14735,93.33448,62,86,0
93.14735,93.42805,74,86,0
93.42805,93.521614,78,86,0
93.521614,93.70875,66,86,0
93.521614,93.70875,62,86,0
93.521614,93.802315,69,86,0
93.802315,93.89588,78,86,0
93.89588,94.083015,49,86,0
93.89588,94.17658,73,86,0
94.17658,94.27015,78,83,0
94.27015,94.45728,61,82,0
94.27015,94.45728,57,82,0
94.27015,94.55085,69,82,0
94.55085,94.64442,78,79,0
94.64442,94.83155,49,78,0
94.64442,94.925125,73,78,0
94.925125,95.01869,78,75,0
95.01869,95.205826,61,74,0
95.01869,95.205826,57,74,0
95.01869,95.29939,69,74,0
95.29939,95.39296,78,71,0
95.39296,95.58009,49,70,0
95.39296,95.67366,73,70,0
95.67366,95.76723,77,67,0
95.76723,95.95436,61,66,0
95.76723,95.95436,59,66,0
95.76723,95.95436,65,66,0
95.76723,96.04793,71,66,0
96.04793,96.141495,77,63,0
96.141495,96.32863,49,62,0
96.141495,96.422195,73,62,0
96.422195,96.51576,77,59,0
96.51576,96.702896,61,58,0
96.51576,96.702896,59,58,0
96.51576,96.702896,65,58,0
96.51576,96.79646,71,58,0
96.79646,96.89003,73,55,0
96.89003,97.264305,66,54,0
96.89003,97.264305,61,54,0
96.89003,97.264305,57,54,0
96.89003,97.264305,54,54,0
98.761375,99.13565,69,54,0
98.761375,99.13565,81,54,0
99.13565,99.50992,78,54,0
99.13565,99.50992,90,54,0
99.50992,99.884186,81,54,0
99.50992,99.884186,93,54,0
100.25845,100.63272,69,54,0
100.25845,100.63272,81,54,0
100.63272,101.006996,78,54,0
100.63272,101.006996,90,54,0
101.006996,101.38126,81,54,0
101.006996,101.38126,93,54,0
101.75553,102.1298,78,54,0
101.75553,102.1298,90,54,0
102.1298,102.4105,81,64,0
102.1298,102.4105,93,64,0
102.4105,102.45728,83,54,0
102.4105,102.45728,95,54,0
102.45728,102.50407,81,54,0
102.45728,102.50407,93,54,0
102.50407,102.6912,79,54,0
102.50407,102.6912,91,54,0
102.6912,102.878334,78,54,0
102.6912,102.878334,90,54,0
102.878334,103.065475,78,54,0
102.878334,103.065475,90,54,0
103.065475,103.25261,76,54,0
103.065475,103.25261,88,54,0
104.74968,105.123955,71,54,0
104.74968,105.123955,83,54,0
105.123955,105.49822,79,54,0
105.123955,105.49822,91,54,0
105.49822,105.87249,83,54,0
105.49822,105.87249,95,54,0
106.24676,106.621025,71,54,0
106.24676,106.621025,83,54,0
106.621025,106.9953,79,54,0
106.621025,106.9953,91,54,0
106.9953,107.36957,83,54,0
106.9953,107.36957,95,54,0
107.743835,108.49237,83,64,0
107.743835,108.49237,95,64,0
108.49237,108.679504,79,54,0
108.49237,108.679504,91,54,0
108.679504,108.86664,76,54,0
108.679504,108.86664,88,54,0
108.86664,109.24091,74,54,0
108.86664,109.24091,86,54,0
109.98945,110.363716,77,54,0
109.98945,110.363716,89,54,0
110.363716,110.73798,86,55,0
110.363716,110.73798,98,55,0
110.73798,111.11226,89,56,0
110.73798,111.11226,101,56,0
111.48653,111.860794,77,57,0
111.48653,111.860794,89,57,0
111.860794,112.23506,86,58,0
111.860794,112.23506,98,58,0
112.23506,112.60933,89,59,0
112.23506,112.60933,101,59,0
112.983604,113.35787,88,61,0
112.983604,113.35787,100,61,0
113.35787,113.73214,79,62,0
113.35787,113.73214,91,62,0
113.73214,114.10641,82,62,0
113.73214,114.10641,94,62,0
114.480675,114.85494,81,64,0
114.480675,114.85494,93,64,0
114.85494,115.22922,83,63,0
114.85494,115.22922,95,63,0
115.22922,115.97775,88,61,0
115.22922,115.97775,100,61,0
115.97775,116.72629,86,58,0
115.97775,116.72629,98,58,0
116.72629,117.10056,81,55,0
116.72629,117.10056,93,55,0
117.10056,117.22532,78,64,0
117.10056,117.22532,66,64,0
117.22532,117.350075,79,64,0
117.22532,117.350075,67,64,0
117.350075,117.47483,80,64,0
117.350075,117.47483,68,64,0
117.47483,117.59959,81,64,0
117.47483,117.59959,69,64,0
117.59959,117.72434,80,64,0
117.59959,117.72434,68,64,0
117.72434,117.8491,81,64,0
117.72434,117.8491,69,64,0
117.8491,117.973854,90,64,0
117.8491,117.973854,78,64,0
117.973854,118.09861,88,62,0
117.973854,118.09861,76,62,0
118.09861,118.223366,85,58,0
118.09861,118.223366,73,58,0
118.223366,118.34812,88,54,0
118.223366,118.34812,76,54,0
118.34812,118.47288,86,54,0
118.34812,118.47288,74,54,0
118.47288,118.59763,81,54,0
118.47288,118.59763,69,54,0
118.59763,118.72239,78,64,0
118.59763,118.72239,66,64,0
118.72239,118.847145,79,64,0
118.72239,118.847145,67,64,0
118.847145,118.9719,80,64,0
118.847145,118.9719,68,64,0
118.9719,119.096664,81,64,0
118.9719,119.096664,69,64,0
119.096664,119.22142,80,64,0
119.096664,119.22142,68,64,0
119.22142,119.346176,81,64,0
119.22142,119.346176,69,64,0
119.346176,119.47093,90,64,0
119.346176,119.47093,78,64,0
119.47093,119.59569,88,62,0
119.47093,119.59569,76,62,0
119.59569,119.72044,85,58,0
119.59569,119.72044,73,58,0
119.72044,119.8452,88,54,0
119.72044,119.8452,76,54,0
119.8452,119.969955,86,54,0
119.8452,119.969955,74,54,0
119.969955,120.09471,81,54,0
119.969955,120.09471,69,54,0
120.09471,120.21947,67,64,0
120.09471,120.21947,79,64,0
120.21947,120.34422,69,64,0
120.21947,120.34422,81,64,0
120.34422,120.46898,70,64,0
120.34422,120.46898,82,64,0
120.46898,120.593735,71,64,0
120.46898,120.593735,83,64,0
120.593735,120.71849,72,64,0
120.593735,120.71849,84,64,0
120.71849,120.84325,71,64,0
120.71849,120.84325,83,64,0
120.84325,120.968,83,64,0
120.84325,120.968,95,64,0
120.968,121.092766,79,61,0
120.968,121.092766,91,61,0
121.092766,121.21752,78,58,0
121.092766,121.21752,90,58,0
121.21752,121.34228,79,54,0
121.21752,121.34228,91,54,0
121.34228,121.46703,76,54,0
121.34228,121.46703,88,54,0
121.46703,121.59179,71,54,0
121.46703,121.59179,83,54,0
121.59179,121.716545,67,64,0
121.59179,121.716545,79,64,0
121.716545,121.8413,69,64,0
121.716545,121.8413,81,64,0
121.8413,121.96606,70,64,0
121.8413,121.96606,82,64,0
121.96606,122.09081,71,64,0
121.96606,122.09081,83,64,0
122.09081,122.21557,72,64,0
122.09081,122.21557,84,64,0
122.21557,122.340324,71,64,0
122.21557,122.340324,83,64,0
122.340324,122.46508,83,64,0
122.340324,122.46508,95,64,0
122.46508,122.589836,79,61,0
122.46508,122.589836,91,61,0
122.589836,122.71459,78,58,0
122.589836,122.71459,90,58,0
122.71459,122.83935,79,54,0
122.71459,122.83935,91,54,0
122.83935,122.9641,76,54,0
122.83935,122.9641,88,54,0
122.9641,123.08887,71,54,0
122.9641,123.08887,83,54,0
123.08887,123.21362,64,64,0
123.08887,123.21362,76,64,0
123.21362,123.33838,67,64,0
123.21362,123.33838,79,64,0
123.33838,123.463135,68,64,0
123.33838,123.463135,80,64,0
123.463135,123.58789,69,64,0
123.463135,123.58789,81,64,0
123.58789,123.71265,71,64,0
123.58789,123.71265,83,64,0
123.71265,123.8374,69,64,0
123.71265,123.8374,81,64,0
123.8374,123.96216,81,64,0
123.8374,123.96216,93,64,0
123.96216,124.086914,79,61,0
123.96216,124.086914,91,61,0
124.086914,124.21167,76,57,0
124.086914,124.21167,88,57,0
124.21167,124.336426,79,64,0
124.21167,124.336426,91,64,0
124.336426,124.46118,76,54,0
124.336426,124.46118,88,54,0
124.46118,124.58594,73,54,0
124.46118,124.58594,85,54,0
124.58594,124.71069,64,64,0
124.58594,124.71069,76,64,0
124.71069,124.83545,67,64,0
124.71069,124.83545,79,64,0
124.83545,124.960205,68,64,0
124.83545,124.960205,80,64,0
124.960205,125.08497,69,64,0
124.960205,125.08497,81,64,0
125.08497,125.209724,71,64,0
125.08497,125.209724,83,64,0
125.209724,125.33448,69,64,0
125.209724,125.33448,81,64,0
125.33448,125.459236,81,64,0
125.33448,125.459236,93,64,0
125.459236,125.58399,79,61,0
125.459236,125.58399,91,61,0
125.58399,125.70875,76,57,0
125.58399,125.70875,88,57,0
125.70875,125.8335,79,64,0
125.70875,125.8335,91,64,0
125.8335,125.95826,76,54,0
125.8335,125.95826,88,54,0
125.95826,126.083015,73,54,0
125.95826,126.083015,85,54,0
126.083015,126.20777,78,64,0
126.083015,126.20777,66,64,0
126.20777,126.33253,79,64,0
126.20777,126.33253,67,64,0
126.33253,126.45728,80,64,0
126.33253,126.45728,68,64,0
126.45728,126.58204,81,64,0
126.45728,126.58204,69,64,0
126.58204,126.706795,80,64,0
126.58204,126.706795,68,64,0
126.706795,126.83155,81,64,0
126.706795,126.83155,69,64,0
126.83155,126.95631,90,64,0
126.83155,126.95631,78,64,0
126.95631,127.08107,88,62,0
126.95631,127.08107,76,62,0
127.08107,127.205826,85,58,0
127.08107,127.205826,73,58,0
127.205826,127.33058,88,54,0
127.205826,127.33058,76,54,0
127.33058,127.45534,86,54,0
127.33058,127.45534,74,54,0
127.45534,127.58009,81,54,0
127.45534,127.58009,69,54,0
127.58009,127.70485,78,64,0
127.58009,127.70485,66,64,0
127.70485,127.829605,79,64,0
127.70485,127.829605,67,64,0
127.829605,127.95436,80,64,0
127.829605,127.95436,68,64,0
127.95436,128.07912,81,64,0
127.95436,128.07912,69,64,0
128.07912,128.20387,80,64,0
128.07912,128.20387,68,64,0
128.20387,128.32863,81,64,0
128.20387,128.32863,69,64,0
128.32863,128.45338,90,64,0
128.32863,128.45338,78,64,0
128.45338,128.57814,88,62,0
128.45338,128.57814,76,62,0
128.57814,128.7029,85,58,0
128.57814,128.7029,73,58,0
128.7029,128.82765,88,64,0
128.7029,128.82765,76,64,0
128.82765,128.95241,86,61,0
128.82765,128.95241,74,61,0
128.95241,129.07716,81,59,0
128.95241,129.07716,69,59,0
129.07716,129.20192,71,75,0
129.07716,129.20192,83,75,0
129.20192,129.32668,69,64,0
129.20192,129.32668,81,64,0
129.32668,129.45143,65,64,0
129.32668,129.45143,77,64,0
129.45143,129.57619,67,74,0
129.45143,129.57619,79,74,0
129.57619,129.70094,66,64,0
129.57619,129.70094,78,64,0
129.70094,129.8257,61,64,0
129.70094,129.8257,73,64,0
129.8257,129.95045,64,74,0
129.8257,129.95045,76,74,0
129.95045,130.07523,62,64,0
129.95045,130.07523,74,64,0
130.07523,130.19998,56,64,0
130.07523,130.19998,68,64,0
130.19998,130.32474,59,74,0
130.19998,130.32474,71,74,0
130.32474,130.4495,57,64,0
130.32474,130.4495,69,64,0
130.4495,130.57425,53,64,0
130.4495,130.57425,65,64,0
130.57425,130.699,55,74,0
130.57425,130.699,67,74,0
130.699,130.82376,54,64,0
130.699,130.82376,66,64,0
130.82376,130.94852,49,64,0
130.82376,130.94852,61,64,0
130.94852,131.07327,52,74,0
130.94852,131.07327,64,74,0
131.07327,131.19803,50,64,0
131.07327,131.19803,62,64,0
131.19803,131.32278,44,64,0
131.19803,131.32278,56,64,0
131.32278,131.44754,47,74,0
131.32278,131.44754,59,74,0
131.44754,131.5723,45,64,0
131.44754,131.5723,57,64,0
131.5723,131.69705,41,64,0
131.5723,131.69705,53,64,0
131.69705,131.82181,43,74,0
131.69705,131.82181,55,74,0
131.82181,131.94656,42,64,0
131.82181,131.94656,54,64,0
131.94656,132.07132,38,64,0
131.94656,132.07132,50,64,0
132.07132,133.56839,62,127,0
132.07132,133.56839,58,127,0
132.07132,133.56839,53,127,0
132.07132,133.56839,46,127,0
132.07132,133.56839,34,127,0
133.56839,133.69315,77,64,0
133.69315,133.8179,75,64,0
133.8179,133.94266,71,64,0
133.94266,134.06743,74,64,0
134.06743,134.19218,72,64,0
134.19218,134.31694,68,64,0
134.31694,134.4417,70,64,0
134.4417,134.56645,69,64,0
134.56645,134.69121,64,64,0
134.69121,134.81596,66,64,0
134.81596,134.94072,65,64,0
133.56839,135.06548,57,64,0
133.56839,135.06548,54,64,0
133.56839,135.06548,51,64,0
133.56839,135.06548,46,64,0
134.94072,135.06548,63,64,0
135.06548,136.56255,62,127,0
135.06548,136.56255,58,127,0
135.06548,136.56255,53,127,0
135.06548,136.56255,50,127,0
135.06548,136.56255,46,127,0
136.56255,136.6873,77,64,0
136.6873,136.81206,75,64,0
136.81206,136.93681,71,64,0
136.93681,137.06157,74,64,0
137.06157,137.18633,72,64,0
137.18633,137.31108,68,64,0
137.31108,137.43584,70,64,0
137.43584,137.5606,69,64,0
137.5606,137.68535,64,64,0
137.68535,137.8101,66,64,0
137.8101,137.93486,65,64,0
136.56255,138.05962,57,64,0
136.56255,138.05962,54,64,0
136.56255,138.05962,51,64,0
136.56255,138.05962,46,64,0
137.93486,138.05962,63,64,0
138.05962,138.18439,62,100,0
138.18439,138.30914,65,100,0
138.05962,138.4339,58,100,0
138.05962,138.4339,53,100,0
138.05962,138.4339,50,100,0
138.05962,138.4339,46,100,0
138.30914,138.4339,70,100,0
138.4339,138.55865,65,100,0
138.55865,138.68341,70,100,0
138.68341,138.80817,74,100,0
138.80817,138.93292,70,100,0
138.93292,139.05768,74,100,0
139.05768,139.18243,77,100,0
139.18243,139.30719,74,100,0
139.30719,139.43195,77,100,0
139.43195,139.5567,82,100,0
139.5567,139.68146,46,127,0
139.68146,139.80621,50,100,0
139.80621,139.93097,53,100,0
139.93097,140.05573,50,100,0
140.05573,140.18048,53,100,0
140.18048,140.30524,58,100,0
140.30524,140.43,53,100,0
140.43,140.55475,58,100,0
140.55475,140.6795,62,100,0
140.6795,140.80426,58,100,0
140.80426,140.92902,62,100,0
139.5567,141.05377,86,127,0
139.5567,141.05377,80,127,0
139.5567,141.05377,77,127,0
139.5567,141.05377,74,127,0
140.92902,141.05377,65,100,0
141.05377,141.17853,69,100,0
141.17853,141.30328,74,100,0
141.30328,141.42804,78,100,0
141.42804,141.5528,74,100,0
141.5528,141.67755,78,100,0
141.67755,141.8023,81,100,0
141.8023,141.92706,78,100,0
141.92706,142.05182,81,100,0
142.05182,142.17659,86,100,0
142.17659,142.30135,81,100,0
142.30135,142.4261,86,100,0
141.05377,142.55086,57,110,0
141.05377,142.55086,62,110,0
141.05377,142.55086,66,110,0
142.4261,142.55086,90,100,0
142.55086,142.67561,57,127,0
142.67561,142.80037,64,100,0
142.80037,142.92513,67,100,0
142.92513,143.04988,64,100,0
143.04988,143.17464,67,100,0
143.17464,143.2994,69,100,0
143.2994,143.42415,67,100,0
143.42415,143.5489,69,95,0
143.5489,143.67366,73,86,0
143.67366,143.79842,69,79,0
143.79842,143.92317,73,72,0
142.55086,144.04793,93,127,0
142.55086,144.04793,88,127,0
142.55086,144.04793,85,127,0
142.55086,144.04793,81,127,0
143.92317,144.04793,76,63,0
144.04793,144.32863,90,54,0
144.32863,144.37541,91,54,0
144.37541,144.4222,90,54,0
144.04793,144.4222,81,54,0
144.04793,144.4222,69,54,0
144.04793,144.60933,62,54,0
144.4222,144.60933,88,54,0
144.4222,144.60933,79,54,0
144.4222,144.60933,73,54,0
144.60933,144.7029,86,54,0
144.60933,144.7029,78,54,0
144.60933,144.7029,74,54,0
144.60933,144.7029,62,54,0
144.79646,145.17073,62,54,0
144.79646,145.17073,69,54,0
144.79646,145.17073,78,54,0
144.79646,145.17073,86,54,0
145.17073,145.545,62,54,0
145.17073,145.545,74,54,0
145.17073,145.545,78,54,0
145.17073,145.545,86,54,0
145.545,145.8257,90,54,0
145.8257,145.87248,91,54,0
145.87248,145.91927,90,54,0
145.545,145.91927,81,54,0
145.545,145.91927,69,54,0
145.545,146.10641,62,54,0
145.91927,146.10641,88,54,0
145.91927,146.10641,79,54,0
145.91927,146.10641,73,54,0
146.10641,146.19998,86,54,0
146.10641,146.19998,78,54,0
146.10641,146.19998,74,54,0
146.10641,146.19998,62,54,0
146.29355,146.66782,62,54,0
146.29355,146.66782,69,54,0
146.29355,146.66782,78,54,0
146.29355,146.66782,86,54,0
146.66782,147.04208,62,54,0
146.66782,147.04208,74,54,0
146.66782,147.04208,78,54,0
146.66782,147.04208,86,54,0
147.04208,147.22922,90,54,0
147.04208,147.22922,86,54,0
147.22922,147.41635,85,54,0
147.22922,147.41635,88,54,0
147.04208,147.41635,66,54,0
147.04208,147.60349,59,54,0
147.41635,147.60349,88,54,0
147.41635,147.60349,85,54,0
147.41635,147.60349,70,54,0
147.60349,147.79062,86,54,0
147.60349,147.79062,83,54,0
147.60349,147.79062,71,54,0
147.60349,147.79062,59,54,0
147.79062,148.16489,66,54,0
147.79062,148.53915,86,64,0
147.79062,148.53915,83,64,0
147.79062,148.53915,59,54,0
148.16489,148.53915,71,54,0
148.53915,148.72629,90,54,0
148.53915,148.72629,86,54,0
148.72629,148.91342,85,54,0
148.72629,148.91342,88,54,0
148.53915,148.91342,66,54,0
148.53915,149.10056,59,54,0
148.91342,149.10056,88,54,0
148.91342,149.10056,85,54,0
148.91342,149.10056,70,54,0
149.10056,149.28769,86,54,0
149.10056,149.28769,83,54,0
149.10056,149.28769,71,54,0
149.10056,149.28769,59,54,0
149.28769,149.66196,66,54,0
149.28769,150.03622,86,64,0
149.28769,150.03622,83,64,0
149.28769,150.03622,59,54,0
149.66196,150.03622,71,54,0
150.03622,150.31694,91,54,0
150.03622,150.31694,79,54,0
150.31694,150.36372,93,54,0
150.31694,150.36372,81,54,0
150.36372,150.4105,91,54,0
150.36372,150.4105,79,54,0
150.03622,150.59764,74,54,0
150.03622,150.59764,86,54,0
150.4105,150.59764,78,54,0
150.4105,150.59764,90,54,0
150.59764,150.69121,76,54,0
150.59764,150.69121,74,54,0
150.59764,150.69121,88,54,0
150.59764,150.69121,86,54,0
150.78477,151.15904,95,64,0
150.78477,151.53331,85,54,0
150.78477,151.53331,79,54,0
150.78477,151.53331,76,54,0
150.78477,151.53331,69,54,0
151.15904,151.53331,93,54,0
151.53331,151.65807,90,54,0
151.53331,151.72044,86,54,0
151.53331,151.72044,78,54,0
151.53331,151.72044,74,54,0
151.65807,151.78282,91,54,0
151.78282,151.8452,90,54,0
151.90758,152.03233,88,54,0
151.90758,152.09471,85,54,0
151.90758,152.09471,76,54,0
151.90758,152.09471,69,54,0
152.03233,152.15709,90,54,0
152.15709,152.21947,88,54,0
152.28185,152.65611,86,54,0
152.28185,152.65611,66,54,0
152.28185,152.65611,74,54,0
153.03038,153.31108,90,100,0
153.31108,153.35786,91,100,0
153.35786,153.40465,90,100,0
153.03038,153.40465,81,100,0
153.03038,153.40465,69,100,0
153.03038,153.59178,62,100,0
153.40465,153.59178,88,100,0
153.40465,153.59178,79,100,0
153.40465,153.59178,73,100,0
153.59178,153.68535,86,100,0
153.59178,153.68535,78,100,0
153.59178,153.68535,74,100,0
153.59178,153.68535,62,100,0
153.77892,154.1532,62,100,0
153.77892,154.1532,69,100,0
153.77892,154.1532,78,100,0
153.77892,154.1532,86,100,0
154.1532,154.52747,62,100,0
154.1532,154.52747,74,100,0
154.1532,154.52747,78,100,0
154.1532,154.52747,86,100,0
154.52747,154.80817,90,100,0
154.80817,154.85495,91,100,0
154.85495,154.90173,90,100,0
154.52747,154.90173,81,100,0
154.52747,154.90173,69,100,0
154.52747,155.08887,62,100,0
154.90173,155.08887,88,100,0
154.90173,155.08887,79,100,0
154.90173,155.08887,73,100,0
155.08887,155.18243,86,100,0
155.08887,155.18243,78,100,0
155.08887,155.18243,74,100,0
155.08887,155.18243,62,100,0
155.276,155.65027,62,100,0
155.276,155.65027,69,100,0
155.276,155.65027,78,100,0
155.276,155.65027,86,100,0
155.65027,156.02454,62,100,0
155.65027,156.02454,74,100,0
155.65027,156.02454,78,100,0
155.65027,156.02454,86,100,0
156.02454,156.21167,78,100,0
156.02454,156.21167,90,100,0
156.02454,156.21167,86,100,0
156.21167,156.3988,76,100,0
156.21167,156.3988,85,100,0
156.21167,156.3988,88,100,0
156.02454,156.3988,66,100,0
156.02454,156.58594,59,100,0
156.3988,156.58594,88,100,0
156.3988,156.58594,85,100,0
156.3988,156.58594,70,100,0
156.3988,156.58594,76,100,0
156.58594,156.77307,86,100,0
156.58594,156.77307,83,100,0
156.58594,156.77307,71,100,0
156.58594,156.77307,59,100,0
156.58594,156.77307,74,100,0
156.77307,157.14734,66,100,0
156.77307,157.5216,86,100,0
156.77307,157.5216,83,100,0
156.77307,157.5216,59,100,0
156.77307,157.5216,74,100,0
157.14734,157.5216,71,100,0
157.5216,157.70874,78,100,0
157.5216,157.70874,90,100,0
157.5216,157.70874,86,100,0
157.70874,157.89587,76,100,0
157.70874,157.89587,85,100,0
157.70874,157.89587,88,100,0
157.5216,157.89587,66,100,0
157.5216,158.08301,59,100,0
157.89587,158.08301,88,100,0
157.89587,158.08301,85,100,0
157.89587,158.08301,70,100,0
157.89587,158.08301,76,100,0
158.08301,158.27016,86,100,0
158.08301,158.27016,83,100,0
158.08301,158.27016,71,100,0
158.08301,158.27016,59,100,0
158.08301,158.27016,74,100,0
158.27016,158.64442,66,100,0
158.27016,159.01869,86,100,0
158.27016,159.01869,83,100,0
158.27016,159.01869,59,100,0
158.27016,159.01869,74,100,0
158.64442,159.01869,71,100,0
159.01869,159.2994,91,100,0
159.01869,159.2994,79,100,0
159.2994,159.34618,93,100,0
159.2994,159.34618,81,100,0
159.34618,159.39296,91,100,0
159.34618,159.39296,79,100,0
159.01869,159.5801,74,100,0
159.01869,159.5801,86,100,0
159.39296,159.5801,78,100,0
159.39296,159.5801,90,100,0
159.5801,159.67366,76,100,0
159.5801,159.67366,74,100,0
159.5801,159.67366,88,100,0
159.5801,159.67366,86,100,0
159.76723,160.1415,95,110,0
159.76723,160.51576,85,100,0
159.76723,160.51576,79,100,0
159.76723,160.51576,76,100,0
159.76723,160.51576,69,100,0
160.1415,160.51576,93,100,0
160.51576,160.64052,90,100,0
160.51576,160.7029,86,100,0
160.51576,160.7029,78,100,0
160.51576,160.7029,74,100,0
160.64052,160.76527,91,100,0
160.76527,160.82765,90,100,0
160.89003,161.01479,88,100,0
160.89003,161.07716,85,100,0
160.89003,161.07716,76,100,0
160.89003,161.07716,69,100,0
161.01479,161.13954,90,100,0
161.13954,161.20192,88,100,0
161.2643,161.63857,86,100,0
161.2643,161.63857,66,100,0
161.2643,161.63857,74,100,0
162.01283,162.76138,74,74,0
162.01283,162.76138,66,74,0
162.01283,162.76138,62,74,0
162.76138,163.13565,73,64,0
162.76138,163.13565,67,64,0
162.76138,163.13565,64,64,0
163.50992,164.25845,61,74,0
163.50992,164.25845,64,74,0
163.50992,164.25845,79,74,0
164.25845,164.63272,78,64,0
164.25845,164.63272,66,64,0
164.25845,164.63272,62,64,0
165.00699,165.56839,83,64,0
165.00699,165.56839,71,64,0
165.56839,165.75552,85,71,0
165.56839,165.75552,73,71,0
165.00699,165.75552,53,64,0
165.00699,166.50407,65,64,0
165.00699,166.50407,62,64,0
165.75552,166.50407,86,74,0
165.75552,166.50407,74,74,0
165.75552,166.50407,54,74,0
166.50407,167.06548,64,74,0
167.06548,167.25261,66,74,0
166.50407,167.25261,62,74,0
166.50407,167.25261,76,74,0
166.50407,168.00114,57,74,0
167.25261,168.00114,81,64,0
167.25261,168.00114,69,64,0
167.25261,168.00114,61,64,0
167.25261,168.00114,67,64,0
168.00114,168.18828,78,64,0
168.00114,168.18828,69,64,0
168.00114,168.18828,66,64,0
168.00114,168.18828,62,64,0
168.37541,168.74968,66,59,0
168.37541,168.74968,69,59,0
168.37541,168.74968,57,59,0
168.37541,168.74968,54,59,0
168.74968,168.93681,54,54,0
168.74968,168.93681,50,54,0
168.74968,168.93681,62,54,0
168.74968,168.93681,66,54,0
175.48653,175.5801,65,110,0
175.48653,175.5801,69,110,0
175.48653,175.5801,57,110,0
175.48653,175.5801,53,110,0
175.48653,175.5801,50,110,0
175.5801,175.67366,74,109,0
175.5801,175.67366,62,109,0
175.67366,175.76723,65,108,0
175.67366,175.76723,69,108,0
175.67366,175.76723,57,108,0
175.67366,175.76723,53,108,0
175.67366,175.76723,50,108,0
175.76723,175.8608,74,107,0
175.76723,175.8608,62,107,0
175.8608,175.95436,65,105,0
175.8608,175.95436,69,105,0
175.8608,175.95436,57,105,0
175.8608,175.95436,53,105,0
175.8608,175.95436,50,105,0
175.95436,176.04793,74,104,0
175.95436,176.04793,62,104,0
176.04793,176.1415,65,103,0
176.04793,176.1415,69,103,0
176.04793,176.1415,57,103,0
176.04793,176.1415,53,103,0
176.04793,176.1415,50,103,0
176.1415,176.23506,74,102,0
176.1415,176.23506,62,102,0
176.23506,176.60933,65,100,0
176.23506,176.60933,69,100,0
176.23506,176.60933,57,100,0
176.23506,176.60933,53,100,0
176.23506,176.60933,50,100,0
176.9836,177.07716,79,110,0
176.9836,177.07716,84,110,0
176.9836,177.07716,82,110,0
176.9836,177.07716,60,110,0
176.9836,177.07716,55,110,0
176.9836,177.07716,52,110,0
177.07716,177.17073,72,109,0
177.07716,177.17073,64,109,0
177.17073,177.2643,79,108,0
177.17073,177.2643,84,108,0
177.17073,177.2643,82,108,0
177.17073,177.2643,60,108,0
177.17073,177.2643,55,108,0
177.17073,177.2643,52,108,0
177.2643,177.35786,72,107,0
177.2643,177.35786,64,107,0
177.35786,177.45143,79,105,0
177.35786,177.45143,84,105,0
177.35786,177.45143,82,105,0
177.35786,177.45143,60,105,0
177.35786,177.45143,55,105,0
177.35786,177.45143,52,105,0
177.45143,177.545,72,104,0
177.45143,177.545,64,104,0
177.545,177.63857,79,103,0
177.545,177.63857,84,103,0
177.545,177.63857,82,103,0
177.545,177.63857,60,103,0
177.545,177.63857,55,103,0
177.545,177.63857,52,103,0
177.63857,177.73213,72,102,0
177.63857,177.73213,64,102,0
177.73213,178.1064,84,100,0
177.73213,178.1064,82,100,0
177.73213,178.1064,79,100,0
177.73213,178.1064,60,100,0
177.73213,178.1064,55,100,0
177.73213,178.1064,52,100,0
178.48068,178.57425,84,110,0
178.48068,178.57425,87,110,0
178.48068,178.57425,89,110,0
178.48068,178.57425,53,110,0
178.48068,178.57425,48,110,0
178.48068,178.57425,45,110,0
178.57425,178.66782,77,109,0
178.57425,178.66782,57,109,0
178.66782,178.76138,84,108,0
178.66782,178.76138,87,108,0
178.66782,178.76138,89,108,0
178.66782,178.76138,53,108,0
178.66782,178.76138,48,108,0
178.66782,178.76138,45,108,0
178.76138,178.85495,77,107,0
178.76138,178.85495,57,107,0
178.85495,178.94852,84,105,0
178.85495,178.94852,87,105,0
178.85495,178.94852,89,105,0
178.85495,178.94852,53,105,0
178.85495,178.94852,48,105,0
178.85495,178.94852,45,105,0
178.94852,179.04208,77,104,0
178.94852,179.04208,57,104,0
179.04208,179.13565,84,103,0
179.04208,179.13565,87,103,0
179.04208,179.13565,89,103,0
179.04208,179.13565,53,103,0
179.04208,179.13565,48,103,0
179.04208,179.13565,45,103,0
179.13565,179.22922,77,102,0
179.13565,179.22922,57,102,0
179.22922,179.60349,89,100,0
179.22922,179.60349,87,100,0
179.22922,179.60349,84,100,0
179.22922,179.60349,53,100,0
179.22922,179.60349,45,100,0
179.22922,179.60349,48,100,0
181.47482,181.84909,65,64,0
181.84909,182.22336,66,66,0
181.47482,182.22336,58,64,0
182.22336,182.59764,67,69,0
181.47482,182.59764,74,64,0
181.47482,182.97191,62,64,0
182.22336,182.97191,59,69,0
182.59764,182.97191,76,71,0
182.59764,182.97191,68,71,0
182.97191,183.67366,78,74,0
183.67366,183.72044,78,74,0
182.97191,183.72044,66,74,0
182.97191,183.72044,62,74,0
183.72044,183.90758,76,74,0
183.90758,184.09471,75,71,0
184.09471,184.28185,76,69,0
182.97191,184.46898,57,74,0
182.97191,184.46898,69,74,0
183.72044,184.46898,61,74,0
183.72044,184.46898,67,74,0
184.28185,184.46898,81,66,0
184.46898,184.84325,74,64,0
184.46898,184.84325,65,64,0
184.46898,184.84325,62,64,0
184.46898,184.84325,58,64,0
187.41635,187.46313,76,100,0
187.41635,187.46313,88,100,0
187.46313,187.58789,74,100,0
187.46313,187.58789,86,100,0
187.58789,187.71265,73,100,0
187.58789,187.71265,85,100,0
187.71265,187.8374,74,100,0
187.71265,187.8374,86,100,0
187.8374,187.96216,78,100,0
187.8374,187.96216,90,100,0
187.96216,188.08691,74,100,0
187.96216,188.08691,86,100,0
188.08691,188.16489,69,100,0
188.08691,188.16489,81,100,0
188.16489,188.21167,71,100,0
188.16489,188.21167,83,100,0
188.21167,188.33643,69,100,0
188.21167,188.33643,81,100,0
188.33643,188.46118,68,100,0
188.33643,188.46118,80,100,0
188.46118,188.58594,69,100,0
188.46118,188.58594,81,100,0
188.58594,188.7107,74,100,0
188.58594,188.7107,86,100,0
188.7107,188.83545,69,100,0
188.7107,188.83545,81,100,0
188.83545,188.91342,66,100,0
188.83545,188.91342,78,100,0
188.91342,188.9602,67,100,0
188.91342,188.9602,79,100,0
188.9602,189.08496,66,100,0
188.9602,189.08496,78,100,0
189.08496,189.20972,65,100,0
189.08496,189.20972,77,100,0
189.20972,189.33447,66,100,0
189.20972,189.33447,78,100,0
189.33447,189.45923,69,100,0
189.33447,189.45923,81,100,0
189.45923,189.58398,66,100,0
189.45923,189.58398,78,100,0
189.58398,189.66196,62,100,0
189.58398,189.66196,74,100,0
189.66196,189.70874,64,100,0
189.66196,189.70874,76,100,0
189.70874,189.8335,62,100,0
189.70874,189.8335,74,100,0
189.8335,189.95825,61,100,0
189.8335,189.95825,73,100,0
189.95825,190.08301,62,100,0
189.95825,190.08301,74,100,0
190.08301,190.17657,66,100,0
190.08301,190.17657,78,100,0
190.17657,190.27014,62,100,0
190.17657,190.27014,74,100,0
190.27014,190.36372,57,100,0
190.27014,190.36372,69,100,0
190.36372,190.45729,54,100,0
190.36372,190.45729,66,100,0
190.45729,190.84032,62,100,0
190.45729,190.84032,50,100,0
191.24419,191.67128,50,100,0
191.24419,191.67128,42,100,0
191.24419,191.67128,45,100,0
191.24419,191.67128,38,100,0
191.24419,191.67128,86,100,0
191.24419,191.67128,81,100,0
191.24419,191.67128,78,100,0
191.24419,191.67128,74,100,0
192.12445,192.5932,50,100,0
192.12445,192.5932,42,100,0
192.12445,192.5932,45,100,0
192.12445,192.5932,38,100,0
192.12445,192.5932,86,100,0
192.12445,192.5932,81,100,0
192.12445,192.5932,78,100,0
192.12445,192.5932,74,100,0
193.99945,199.46274,71,100,0
193.99945,199.46274,59,100,0
199.46274,199.74344,81,54,0
199.74344,199.79022,83,54,0
199.79022,199.837,81,54,0
199.46274,199.837,78,54,0
199.837,200.02414,76,54,0
199.837,200.02414,80,54,0
200.02414,200.1177,75,54,0
200.02414,200.1177,78,54,0
200.21127,200.58554,80,54,0
200.21127,200.58554,76,54,0
200.58554,200.95981,80,54,0
200.58554,200.95981,76,54,0
200.95981,201.24051,81,54,0
201.24051,201.2873,83,54,0
201.2873,201.33408,81,54,0
200.95981,201.33408,78,54,0
201.33408,201.52121,76,54,0
201.33408,201.52121,80,54,0
201.52121,201.61478,75,54,0
201.52121,201.61478,78,54,0
199.46274,202.4569,59,54,0
199.46274,202.4569,71,54,0
201.70834,202.4569,76,54,0
201.70834,202.4569,80,54,0
208.44519,208.63232,49,64,0
208.44519,208.72589,80,64,0
208.72589,208.77267,81,64,0
208.44519,208.81946,71,64,0
208.77267,208.81946,80,64,0
208.81946,209.00659,69,64,0
208.81946,209.00659,78,64,0
208.81946,209.00659,61,64,0
209.00659,209.10016,68,64,0
209.00659,209.10016,77,64,0
209.19373,209.38086,49,64,0
209.19373,209.568,68,64,0
209.19373,209.568,77,64,0
209.568,209.75513,61,64,0
209.568,209.94226,68,64,0
209.568,209.94226,77,64,0
209.94226,210.1294,73,74,0
209.94226,210.1294,81,74,0
209.94226,210.1294,66,74,0
209.94226,210.1294,54,74,0
210.1294,210.31653,73,64,0
210.1294,210.31653,79,64,0
210.1294,210.31653,64,64,0
210.1294,210.31653,57,64,0
210.31653,210.41011,73,64,0
210.31653,210.41011,79,64,0
210.31653,210.41011,64,64,0
210.31653,210.41011,57,64,0
210.50368,210.59724,73,64,0
210.50368,210.59724,79,64,0
210.50368,210.59724,64,64,0
210.50368,210.59724,57,64,0
210.69081,211.06508,73,64,0
210.69081,211.06508,79,64,0
210.69081,211.06508,57,64,0
210.69081,211.06508,64,64,0
211.06508,211.25221,74,64,0
211.06508,211.25221,78,64,0
211.06508,211.25221,62,64,0
211.43935,211.62648,47,64,0
211.43935,211.72005,78,64,0
211.72005,211.76683,80,64,0
211.43935,211.81361,69,64,0
211.76683,211.81361,78,64,0
211.81361,212.00075,76,64,0
211.81361,212.00075,68,64,0
211.81361,212.00075,59,64,0
212.00075,212.09431,75,64,0
212.00075,212.09431,66,64,0
212.18788,212.37502,47,64,0
212.18788,212.56215,75,64,0
212.18788,212.56215,66,64,0
212.56215,212.74928,59,64,0
212.56215,212.93642,75,64,0
212.56215,212.93642,66,64,0
212.93642,213.12355,80,74,0
212.93642,213.12355,71,74,0
212.93642,213.12355,64,74,0
212.93642,213.12355,56,74,0
213.12355,213.31068,78,65,0
213.12355,213.31068,69,65,0
213.12355,213.31068,63,64,0
213.12355,213.31068,59,64,0
213.31068,213.40425,78,64,0
213.31068,213.40425,69,64,0
213.31068,213.40425,59,64,0
213.31068,213.40425,63,64,0
213.49782,213.59138,78,64,0
213.49782,213.59138,69,64,0
213.49782,213.59138,59,64,0
213.49782,213.59138,63,64,0
213.68495,214.05922,78,64,0
213.68495,214.05922,69,64,0
213.68495,214.05922,63,64,0
213.68495,214.05922,59,64,0
214.05922,214.24635,76,64,0
214.05922,214.24635,68,64,0
214.05922,214.24635,64,64,0
220.4218,220.60893,49,64,0
220.4218,220.7025,80,64,0
220.7025,220.74928,81,64,0
220.4218,220.79607,71,64,0
220.74928,220.79607,80,64,0
220.79607,220.9832,69,64,0
220.79607,220.9832,78,64,0
220.79607,220.9832,61,64,0
220.9832,221.07677,68,64,0
220.9832,221.07677,77,64,0
221.17033,221.35747,49,64,0
221.17033,221.5446,68,64,0
221.17033,221.5446,77,64,0
221.5446,221.73174,61,64,0
221.5446,221.91887,68,64,0
221.5446,221.91887,77,64,0
221.91887,222.106,73,74,0
221.91887,222.106,81,74,0
221.91887,222.106,66,74,0
221.91887,222.106,54,74,0
222.106,222.29314,73,64,0
222.106,222.29314,79,64,0
222.106,222.29314,64,64,0
222.106,222.29314,57,64,0
222.29314,222.38672,73,64,0
222.29314,222.38672,79,64,0
222.29314,222.38672,64,64,0
222.29314,222.38672,57,64,0
222.48029,222.57385,73,64,0
222.48029,222.57385,79,64,0
222.48029,222.57385,64,64,0
222.48029,222.57385,57,64,0
222.66742,223.04169,73,64,0
222.66742,223.04169,79,64,0
222.66742,223.04169,57,64,0
222.66742,223.04169,64,64,0
223.04169,223.22882,74,64,0
223.04169,223.22882,78,64,0
223.04169,223.22882,62,64,0
223.41595,223.60309,47,64,0
223.41595,223.69666,78,64,0
223.69666,223.74344,80,64,0
223.41595,223.79022,69,64,0
223.74344,223.79022,78,64,0
223.79022,223.97736,76,64,0
223.79022,223.97736,68,64,0
223.79022,223.97736,59,64,0
223.97736,224.07092,75,64,0
223.97736,224.07092,66,64,0
224.16449,224.35162,47,64,0
224.16449,224.53876,75,64,0
224.16449,224.53876,66,64,0
224.53876,224.72589,59,64,0
224.53876,224.91302,75,64,0
224.53876,224.91302,66,64,0
224.91302,225.10016,80,74,0
224.91302,225.10016,71,74,0
224.91302,225.10016,64,74,0
224.91302,225.10016,56,74,0
225.10016,225.2873,78,65,0
225.10016,225.2873,69,65,0
225.10016,225.2873,63,64,0
225.10016,225.2873,59,64,0
225.2873,225.38086,78,64,0
225.2873,225.38086,69,64,0
225.2873,225.38086,59,64,0
225.2873,225.38086,63,64,0
225.47443,225.568,78,64,0
225.47443,225.568,69,64,0
225.47443,225.568,59,64,0
225.47443,225.568,63,64,0
225.66156,226.03583,78,64,0
225.66156,226.03583,69,64,0
225.66156,226.03583,63,64,0
225.66156,226.03583,59,64,0
226.03583,226.22296,76,64,0
226.03583,226.22296,68,64,0
226.03583,226.22296,64,64,0
226.41011,231.68442,71,100,0
226.41011,231.68442,59,100,0
231.68442,231.96513,78,54,0
231.68442,231.96513,81,54,0
231.96513,232.01192,80,54,0
231.96513,232.01192,83,54,0
232.01192,232.0587,78,54,0
232.01192,232.0587,81,54,0
232.0587,232.24583,76,54,0
232.0587,232.24583,80,54,0
232.24583,232.3394,75,54,0
232.24583,232.3394,78,54,0
232.43297,232.80724,80,54,0
232.43297,232.80724,76,54,0
232.80724,233.1815,80,54,0
232.80724,233.1815,76,54,0
233.1815,233.4622,78,54,0
233.1815,233.4622,81,54,0
233.4622,233.50899,80,54,0
233.4622,233.50899,83,54,0
233.50899,233.55577,78,54,0
233.50899,233.55577,81,54,0
233.55577,233.7429,76,54,0
233.55577,233.7429,80,54,0
233.7429,233.83647,75,54,0
233.7429,233.83647,78,54,0
231.68442,234.67857,59,54,0
231.68442,234.67857,71,54,0
233.93004,234.67857,76,54,0
233.93004,234.67857,80,54,0
234.67857,234.95927,52,100,0
234.67857,234.95927,64,100,0
234.95927,235.00606,54,100,0
234.95927,235.00606,66,100,0
235.00606,235.05284,52,100,0
235.00606,235.05284,64,100,0
235.05284,235.23997,50,100,0
235.05284,235.23997,62,100,0
235.23997,235.33354,48,100,0
235.23997,235.33354,60,100,0
235.42711,235.61424,47,100,0
235.42711,235.61424,59,100,0
235.80139,235.98853,47,100,0
235.80139,235.98853,59,100,0
236.17566,236.3628,78,100,0
236.17566,236.3628,71,100,0
236.17566,236.3628,75,100,0
236.17566,236.3628,69,100,0
236.17566,236.3628,59,100,0
236.17566,236.3628,47,100,0
236.54993,236.73706,78,100,0
236.54993,236.73706,71,100,0
236.54993,236.73706,75,100,0
236.54993,236.73706,69,100,0
236.54993,236.73706,59,100,0
236.54993,236.73706,47,100,0
236.9242,237.11133,71,100,0
236.9242,237.11133,79,100,0
236.9242,237.11133,67,100,0
236.9242,237.11133,76,100,0
236.9242,237.11133,52,100,0
236.9242,237.11133,59,100,0
237.29846,237.85986,81,127,0
237.29846,237.85986,74,127,0
237.29846,237.85986,72,127,0
237.29846,237.85986,78,127,0
237.29846,237.85986,50,127,0
237.29846,237.85986,62,127,0
237.85986,237.95343,83,100,0
237.85986,237.95343,74,100,0
237.85986,237.95343,79,100,0
237.85986,237.95343,71,100,0
237.85986,237.95343,67,100,0
237.85986,237.95343,55,100,0
238.047,238.14056,83,100,0
238.047,238.14056,74,100,0
238.047,238.14056,79,100,0
238.047,238.14056,71,100,0
238.047,238.14056,67,100,0
238.047,238.14056,55,100,0
238.23413,238.3277,83,100,0
238.23413,238.3277,74,100,0
238.23413,238.3277,79,100,0
238.23413,238.3277,71,100,0
238.23413,238.3277,67,100,0
238.23413,238.3277,55,100,0
238.42126,238.6084,74,100,0
238.42126,238.6084,83,100,0
238.42126,238.6084,71,100,0
238.42126,238.6084,79,100,0
238.42126,238.6084,55,100,0
238.42126,238.6084,67,100,0
238.79553,238.98267,86,100,0
238.79553,238.98267,81,100,0
238.79553,238.98267,74,100,0
238.79553,238.98267,66,100,0
238.79553,238.98267,54,100,0
239.1698,239.35693,79,100,0
239.1698,239.35693,83,100,0
239.1698,239.35693,74,100,0
239.1698,239.35693,55,100,0
239.1698,239.35693,67,100,0
239.54407,239.7312,81,100,0
239.54407,239.7312,74,100,0
239.54407,239.7312,78,100,0
239.54407,239.7312,72,100,0
239.54407,239.7312,62,100,0
239.54407,239.7312,50,100,0
239.91835,240.10548,71,100,0
239.91835,240.10548,79,100,0
239.91835,240.10548,74,100,0
239.91835,240.10548,55,100,0
239.91835,240.10548,67,100,0
246.65518,246.93588,52,100,0
246.65518,246.93588,64,100,0
246.93588,246.98267,54,100,0
246.93588,246.98267,66,100,0
246.98267,247.02945,52,100,0
246.98267,247.02945,64,100,0
247.02945,247.21658,50,100,0
247.02945,247.21658,62,100,0
247.21658,247.31015,48,100,0
247.21658,247.31015,60,100,0
247.40372,247.59085,47,100,0
247.40372,247.59085,59,100,0
247.77798,247.96513,47,100,0
247.77798,247.96513,59,100,0
248.15227,248.3394,78,100,0
248.15227,248.3394,71,100,0
248.15227,248.3394,75,100,0
248.15227,248.3394,69,100,0
248.15227,248.3394,59,100,0
248.15227,248.3394,47,100,0
248.52654,248.71367,78,100,0
248.52654,248.71367,71,100,0
248.52654,248.71367,75,100,0
248.52654,248.71367,69,100,0
248.52654,248.71367,59,100,0
248.52654,248.71367,47,100,0
248.9008,249.08794,71,100,0
248.9008,249.08794,79,100,0
248.9008,249.08794,67,100,0
248.9008,249.08794,76,100,0
248.9008,249.08794,52,100,0
248.9008,249.08794,59,100,0
249.27507,249.83647,81,127,0
249.27507,249.83647,74,127,0
249.27507,249.83647,72,127,0
249.27507,249.83647,78,127,0
249.27507,249.83647,50,127,0
249.27507,249.83647,62,127,0
249.83647,249.93004,83,100,0
249.83647,249.93004,74,100,0
249.83647,249.93004,79,100,0
249.83647,249.93004,71,100,0
249.83647,249.93004,67,100,0
249.83647,249.93004,55,100,0
250.0236,250.11717,83,100,0
250.0236,250.11717,74,100,0
250.0236,250.11717,79,100,0
250.0236,250.11717,71,100,0
250.0236,250.11717,67,100,0
250.0236,250.11717,55,100,0
250.21074,250.3043,83,100,0
250.21074,250.3043,74,100,0
250.21074,250.3043,79,100,0
250.21074,250.3043,71,100,0
250.21074,250.3043,67,100,0
250.21074,250.3043,55,100,0
250.39787,250.585,74,100,0
250.39787,250.585,83,100,0
250.39787,250.585,71,100,0
250.39787,250.585,79,100,0
250.39787,250.585,55,100,0
250.39787,250.585,67,100,0
250.77214,250.95927,86,100,0
250.77214,250.95927,81,100,0
250.77214,250.95927,74,100,0
250.77214,250.95927,66,100,0
250.77214,250.95927,54,100,0
251.14641,251.33354,79,100,0
251.14641,251.33354,83,100,0
251.14641,251.33354,74,100,0
251.14641,251.33354,55,100,0
251.14641,251.33354,67,100,0
251.52068,251.70781,81,100,0
251.52068,251.70781,74,100,0
251.52068,251.70781,78,100,0
251.52068,251.70781,72,100,0
251.52068,251.70781,62,100,0
251.52068,251.70781,50,100,0
251.89496,252.08209,71,100,0
251.89496,252.08209,79,100,0
251.89496,252.08209,74,100,0
251.89496,252.08209,55,100,0
251.89496,252.08209,67,100,0
252.6435,252.9242,88,64,0
252.9242,252.97098,90,64,0
252.97098,253.01776,88,64,0
252.6435,253.2049,67,64,0
252.6435,253.2049,64,64,0
253.01776,253.2049,86,64,0
253.2049,253.29846,84,64,0
253.2049,253.39203,66,64,0
253.2049,253.39203,69,64,0
253.39203,253.57916,83,64,0
253.39203,253.7663,67,64,0
253.39203,253.7663,71,64,0
253.7663,253.95343,83,64,0
253.7663,254.14056,69,64,0
253.7663,254.14056,75,64,0
254.14056,254.3277,71,64,0
254.14056,254.3277,90,64,0
254.14056,254.51483,75,64,0
254.3277,254.51483,72,64,0
254.51483,254.70197,71,64,0
254.51483,254.70197,90,64,0
254.51483,254.8891,75,64,0
254.70197,254.8891,69,64,0
254.8891,255.07623,91,64,0
254.8891,255.07623,67,64,0
254.8891,255.07623,76,64,0
255.26337,255.82477,86,74,0
255.26337,255.82477,93,74,0
255.26337,255.82477,72,74,0
255.26337,255.82477,74,74,0
255.26337,255.82477,78,74,0
255.82477,255.91835,86,64,0
255.82477,255.91835,96,64,0
255.82477,255.91835,69,64,0
255.82477,255.91835,74,64,0
255.82477,255.91835,78,64,0
256.0119,256.10547,86,64,0
256.0119,256.10547,95,64,0
256.0119,256.10547,78,64,0
256.0119,256.10547,74,64,0
256.0119,256.10547,71,64,0
256.19904,256.2926,86,64,0
256.19904,256.2926,93,64,0
256.19904,256.2926,72,64,0
256.19904,256.2926,74,64,0
256.19904,256.2926,78,64,0
256.38617,256.5733,86,64,0
256.38617,256.5733,98,64,0
256.38617,256.5733,79,64,0
256.38617,256.5733,74,64,0
256.38617,256.5733,71,64,0
258.25754,258.81894,90,74,0
258.25754,258.81894,83,74,0
258.25754,258.81894,69,74,0
258.25754,258.81894,71,74,0
258.25754,258.81894,75,74,0
258.81894,258.9125,83,64,0
258.81894,258.9125,93,64,0
258.81894,258.9125,66,64,0
258.81894,258.9125,71,64,0
258.81894,258.9125,75,64,0
259.00607,259.09964,91,64,0
259.00607,259.09964,83,64,0
259.00607,259.09964,67,64,0
259.00607,259.09964,71,64,0
259.00607,259.09964,75,64,0
259.1932,259.28677,90,64,0
259.1932,259.28677,83,64,0
259.1932,259.28677,69,64,0
259.1932,259.28677,71,64,0
259.1932,259.28677,75,64,0
259.38034,259.56747,95,64,0
259.38034,259.56747,83,64,0
259.38034,259.56747,67,64,0
259.38034,259.56747,71,64,0
259.38034,259.56747,76,64,0
261.25168,261.81308,86,74,0
261.25168,261.81308,79,74,0
261.25168,261.81308,71,74,0
261.25168,261.81308,67,74,0
261.25168,261.81308,65,74,0
261.81308,261.90665,62,64,0
261.81308,261.90665,67,64,0
261.81308,261.90665,71,64,0
261.81308,261.90665,79,64,0
261.81308,261.90665,89,64,0
262.0002,262.09378,64,63,0
262.0002,262.09378,71,63,0
262.0002,262.09378,67,63,0
262.0002,262.09378,79,63,0
262.0002,262.09378,88,63,0
262.18735,262.2809,65,61,0
262.18735,262.2809,67,61,0
262.18735,262.2809,71,61,0
262.18735,262.2809,79,61,0
262.18735,262.2809,86,61,0
262.37448,262.5616,79,60,0
262.37448,262.5616,91,60,0
262.37448,262.5616,72,60,0
262.37448,262.5616,67,60,0
262.37448,262.5616,64,60,0
264.24582,264.80722,83,74,0
264.24582,264.80722,76,74,0
264.24582,264.80722,68,74,0
264.24582,264.80722,64,74,0
264.24582,264.80722,62,74,0
264.80722,264.9008,86,61,0
264.80722,264.9008,76,61,0
264.80722,264.9008,68,61,0
264.80722,264.9008,64,61,0
264.80722,264.9008,59,61,0
264.99435,265.08792,84,60,0
264.99435,265.08792,76,60,0
264.99435,265.08792,68,60,0
264.99435,265.08792,64,60,0
264.99435,265.08792,60,60,0
265.1815,265.27505,83,59,0
265.1815,265.27505,76,59,0
265.1815,265.27505,68,59,0
265.1815,265.27505,64,59,0
265.1815,265.27505,62,59,0
265.36862,265.5567,60,58,0
265.36862,265.5567,64,58,0
265.36862,265.5567,69,58,0
265.36862,265.5567,76,58,0
265.36862,265.5567,88,58,0
270.66727,270.90164,57,86,0
270.66727,270.90164,69,86,0
270.66727,271.00623,81,86,0
271.00623,271.10425,85,86,0
271.10425,271.29138,73,86,0
271.10425,271.29138,69,86,0
271.10425,271.38495,76,86,0
271.38495,271.47852,85,86,0
271.47852,271.66565,57,86,0
271.47852,271.66565,69,86,0
271.47852,271.75922,81,86,0
271.75922,271.85278,85,86,0
271.85278,272.03992,73,86,0
271.85278,272.03992,69,86,0
271.85278,272.13348,76,86,0
272.13348,272.22705,85,86,0
272.22705,272.41418,57,86,0
272.22705,272.41418,69,86,0
272.22705,272.50775,81,86,0
272.50775,272.60132,85,86,0
272.60132,272.78845,73,86,0
272.60132,272.78845,69,86,0
272.60132,272.88202,76,86,0
272.88202,272.9756,85,86,0
272.9756,273.16272,57,86,0
272.9756,273.16272,69,86,0
272.9756,273.2563,81,86,0
273.2563,273.34985,85,86,0
273.34985,273.537,73,86,0
273.34985,273.537,69,86,0
273.34985,273.63055,76,86,0
273.63055,273.72412,85,86,0
273.72412,273.91125,52,127,0
273.72412,273.91125,64,127,0
273.72412,274.00482,90,127,0
274.00482,274.0984,88,86,0
274.0984,274.28552,74,86,0
274.0984,274.28552,71,86,0
274.0984,274.28552,64,86,0
274.0984,274.5974,88,86,0
274.47266,274.6598,64,86,0
274.47266,274.6598,52,86,0
274.5974,274.72217,87,86,0
274.72217,274.84692,86,86,0
274.84692,274.97168,85,86,0
274.84692,275.03406,64,86,0
274.84692,275.03406,71,86,0
274.84692,275.03406,74,86,0
274.97168,275.09644,84,85,0
275.09644,275.2212,83,84,0
275.2212,275.34598,82,82,0
275.2212,275.40836,64,82,0
275.2212,275.40836,52,82,0
275.34598,275.47073,81,81,0
275.47073,275.5955,80,80,0
275.5955,275.72025,79,79,0
275.5955,275.78262,64,79,0
275.5955,275.78262,71,79,0
275.5955,275.78262,74,79,0
275.72025,275.845,78,78,0
275.845,275.96976,77,77,0
275.96976,276.0945,76,86,0
275.96976,276.1569,64,86,0
275.96976,276.1569,52,86,0
276.0945,276.21927,80,86,0
276.21927,276.34402,78,86,0
276.34402,276.46878,76,86,0
276.34402,276.53116,64,86,0
276.34402,276.53116,71,86,0
276.34402,276.53116,74,86,0
276.46878,276.59354,78,86,0
276.59354,276.7183,80,86,0
276.7183,276.90543,57,86,0
276.7183,276.90543,69,86,0
276.7183,276.999,81,86,0
276.999,277.09256,85,86,0
277.09256,277.2797,73,86,0
277.09256,277.2797,69,86,0
277.09256,277.37326,76,86,0
277.37326,277.46683,85,86,0
277.46683,277.65396,57,86,0
277.46683,277.65396,69,86,0
277.46683,277.74753,81,86,0
277.74753,277.8411,85,86,0
277.8411,278.02823,73,86,0
277.8411,278.02823,69,86,0
277.8411,278.1218,76,86,0
278.1218,278.21536,85,86,0
278.21536,278.4025,57,86,0
278.21536,278.4025,69,86,0
278.21536,278.49606,81,86,0
278.49606,278.58963,85,86,0
278.58963,278.77676,73,86,0
278.58963,278.77676,69,86,0
278.58963,278.87033,76,86,0
278.87033,278.9639,85,86,0
278.9639,279.15103,57,86,0
278.9639,279.15103,69,86,0
278.9639,279.2446,81,86,0
279.2446,279.33817,85,86,0
279.33817,279.5253,73,86,0
279.33817,279.5253,69,86,0
279.33817,279.61887,76,86,0
279.61887,279.71243,85,86,0
279.71243,279.89957,52,127,0
279.71243,279.89957,64,127,0
279.71243,279.99313,90,127,0
279.99313,280.0867,88,86,0
280.0867,280.27383,74,86,0
280.0867,280.27383,71,86,0
280.0867,280.27383,64,86,0
280.0867,280.58572,88,86,0
280.46097,280.6481,64,86,0
280.46097,280.6481,52,86,0
280.58572,280.71048,87,86,0
280.71048,280.83524,86,86,0
280.83524,280.96,85,86,0
280.83524,281.02237,64,86,0
280.83524,281.02237,71,86,0
280.83524,281.02237,74,86,0
280.96,281.08475,84,85,0
281.08475,281.2095,83,84,0
281.2095,281.33426,82,82,0
281.2095,281.39664,64,82,0
281.2095,281.39664,52,82,0
281.33426,281.459,81,81,0
281.459,281.58377,80,80,0
281.58377,281.70853,79,79,0
281.58377,281.7709,64,79,0
281.58377,281.7709,71,79,0
281.58377,281.7709,74,79,0
281.70853,281.83328,78,78,0
281.83328,281.95804,77,77,0
281.95804,282.0828,76,86,0
281.95804,282.14517,64,86,0
281.95804,282.14517,52,86,0
282.0828,282.20755,80,86,0
282.20755,282.3323,78,86,0
282.3323,282.45706,76,86,0
282.3323,282.51944,64,86,0
282.3323,282.51944,71,86,0
282.3323,282.51944,74,86,0
282.45706,282.58182,78,86,0
282.58182,282.70657,80,86,0
282.70657,282.8937,57,86,0
282.70657,282.8937,69,86,0
282.70657,282.98727,81,86,0
282.98727,283.08084,85,86,0
283.08084,283.26797,73,86,0
283.08084,283.26797,69,86,0
283.08084,283.36157,76,86,0
283.36157,283.45514,85,86,0
283.45514,283.64227,57,86,0
283.45514,283.64227,69,86,0
283.45514,283.73584,81,86,0
283.73584,283.8294,85,86,0
283.8294,284.01654,73,86,0
283.8294,284.01654,69,86,0
283.8294,284.1101,76,86,0
284.1101,284.20367,85,86,0
284.20367,284.3908,57,86,0
284.20367,284.3908,69,86,0
284.20367,284.48438,81,86,0
284.48438,284.57794,85,86,0
284.57794,284.76508,73,86,0
284.57794,284.76508,69,86,0
284.57794,284.85864,76,86,0
284.85864,284.9522,85,86,0
284.9522,285.13934,57,86,0
284.9522,285.13934,69,86,0
284.9522,285.2329,81,86,0
285.2329,285.32648,85,86,0
285.32648,285.5136,73,86,0
285.32648,285.5136,69,86,0
285.32648,285.60718,76,86,0
285.60718,285.70074,85,86,0
285.70074,285.88788,56,86,0
285.70074,285.98145,80,86,0
285.98145,286.075,85,83,0
286.075,286.26215,68,82,0
286.075,286.26215,64,82,0
286.075,286.3557,76,82,0
286.3557,286.44928,85,79,0
286.44928,286.6364,56,78,0
286.44928,286.72998,80,78,0
286.72998,286.82355,85,75,0
286.82355,287.01068,68,74,0
286.82355,287.01068,64,74,0
286.82355,287.10425,76,74,0
287.10425,287.1978,85,71,0
287.1978,287.38495,56,70,0
287.1978,287.47852,80,70,0
287.47852,287.57208,84,67,0
287.57208,287.75922,68,66,0
287.57208,287.75922,66,66,0
287.57208,287.75922,72,66,0
287.57208,287.85278,78,66,0
287.85278,287.94635,84,63,0
287.94635,288.13348,56,62,0
287.94635,288.22705,80,62,0
288.22705,288.32062,84,59,0
288.32062,288.50775,68,58,0
288.32062,288.50775,66,58,0
288.32062,288.50775,72,58,0
288.32062,288.60132,78,58,0
288.60132,288.6949,80,55,0
288.6949,289.06915,73,54,0
288.6949,289.06915,68,54,0
288.6949,289.06915,64,54,0
288.6949,289.06915,61,54,0
290.56622,290.9405,64,54,0
290.56622,290.9405,76,54,0
290.9405,291.31476,73,54,0
290.9405,291.31476,85,54,0
291.31476,291.68906,76,54,0
291.31476,291.68906,88,54,0
292.06332,292.4376,64,54,0
292.06332,292.4376,76,54,0
292.4376,292.81186,73,54,0
292.4376,292.81186,85,54,0
292.81186,293.18613,76,54,0
292.81186,293.18613,88,54,0
293.5604,293.93466,73,54,0
293.5604,293.93466,85,54,0
293.93466,294.21536,76,64,0
293.93466,294.21536,88,64,0
294.21536,294.26215,78,54,0
294.21536,294.26215,90,54,0
294.26215,294.30893,76,54,0
294.26215,294.30893,88,54,0
294.30893,294.49606,74,54,0
294.30893,294.49606,86,54,0
294.49606,294.6832,73,54,0
294.49606,294.6832,85,54,0
294.6832,294.87033,73,54,0
294.6832,294.87033,85,54,0
294.87033,295.05746,71,54,0
294.87033,295.05746,83,54,0
296.55453,296.9288,66,54,0
296.55453,296.9288,78,54,0
296.9288,297.30307,74,54,0
296.9288,297.30307,86,54,0
297.30307,297.67734,78,54,0
297.30307,297.67734,90,54,0
298.0516,298.42587,66,54,0
298.0516,298.42587,78,54,0
298.42587,298.80014,74,54,0
298.42587,298.80014,86,54,0
298.80014,299.1744,78,54,0
298.80014,299.1744,90,54,0
299.5487,300.29724,78,64,0
299.5487,300.29724,90,64,0
300.29724,300.48438,74,54,0
300.29724,300.48438,86,54,0
300.48438,300.6715,71,54,0
300.48438,300.6715,83,54,0
300.6715,301.04578,69,54,0
300.6715,301.04578,81,54,0
301.7943,302.16858,72,54,0
301.7943,302.16858,84,54,0
302.16858,302.54285,81,55,0
302.16858,302.54285,93,55,0
302.54285,302.9171,84,56,0
302.54285,302.9171,96,56,0
303.29138,303.66565,72,57,0
303.29138,303.66565,84,57,0
303.66565,304.03992,81,58,0
303.66565,304.03992,93,58,0
304.03992,304.41418,84,59,0
304.03992,304.41418,96,59,0
304.78845,305.16272,83,61,0
304.78845,305.16272,95,61,0
305.16272,305.537,74,62,0
305.16272,305.537,86,62,0
305.537,305.91125,77,62,0
305.537,305.91125,89,62,0
306.28552,306.6598,76,64,0
306.28552,306.6598,88,64,0
306.6598,307.03406,78,63,0
306.6598,307.03406,90,63,0
307.03406,307.78262,83,61,0
307.03406,307.78262,95,61,0
307.78262,308.53116,81,58,0
307.78262,308.53116,93,58,0
308.53116,308.90543,76,55,0
308.53116,308.90543,88,55,0
308.90543,309.03018,85,64,0
308.90543,309.03018,73,64,0
309.03018,309.15494,86,64,0
309.03018,309.15494,74,64,0
309.15494,309.2797,87,64,0
309.15494,309.2797,75,64,0
309.2797,309.40445,88,64,0
309.2797,309.40445,76,64,0
309.40445,309.5292,87,64,0
309.40445,309.5292,75,64,0
309.5292,309.65396,88,64,0
309.5292,309.65396,76,64,0
309.65396,309.77872,97,64,0
309.65396,309.77872,85,64,0
309.77872,309.90347,95,62,0
309.77872,309.90347,83,62,0
309.90347,310.02823,92,58,0
309.90347,310.02823,80,58,0
310.02823,310.15298,95,54,0
310.02823,310.15298,83,54,0
310.15298,310.27774,93,54,0
310.15298,310.27774,81,54,0
310.27774,310.4025,88,54,0
310.27774,310.4025,76,54,0
310.4025,310.52725,85,64,0
310.4025,310.52725,73,64,0
310.52725,310.652,86,64,0
310.52725,310.652,74,64,0
310.652,310.77676,87,64,0
310.652,310.77676,75,64,0
310.77676,310.90152,88,64,0
310.77676,310.90152,76,64,0
310.90152,311.02628,87,64,0
310.90152,311.02628,75,64,0
311.02628,311.15103,88,64,0
311.02628,311.15103,76,64,0
311.15103,311.2758,97,64,0
311.15103,311.2758,85,64,0
311.2758,311.40054,95,62,0
311.2758,311.40054,83,62,0
311.40054,311.5253,92,58,0
311.40054,311.5253,80,58,0
311.5253,311.65005,95,54,0
311.5253,311.65005,83,54,0
311.65005,311.7748,93,54,0
311.65005,311.7748,81,54,0
311.7748,311.89957,88,54,0
311.7748,311.89957,76,54,0
311.89957,312.02432,74,64,0
311.89957,312.02432,86,64,0
312.02432,312.14908,76,64,0
312.02432,312.14908,88,64,0
312.14908,312.27383,77,64,0
312.14908,312.27383,89,64,0
312.27383,312.3986,78,64,0
312.27383,312.3986,90,64,0
312.3986,312.52335,79,64,0
312.3986,312.52335,91,64,0
312.52335,312.6481,78,64,0
312.52335,312.6481,90,64,0
312.6481,312.77286,90,64,0
312.6481,312.77286,102,64,0
312.77286,312.8976,86,61,0
312.77286,312.8976,98,61,0
312.8976,313.02237,85,58,0
312.8976,313.02237,97,58,0
313.02237,313.14713,86,54,0
313.02237,313.14713,98,54,0
313.14713,313.27188,83,54,0
313.14713,313.27188,95,54,0
313.27188,313.39664,78,54,0
313.27188,313.39664,90,54,0
313.39664,313.5214,74,64,0
313.39664,313.5214,86,64,0
313.5214,313.64615,76,64,0
313.5214,313.64615,88,64,0
313.64615,313.7709,77,64,0
313.64615,313.7709,89,64,0
313.7709,313.89566,78,64,0
313.7709,313.89566,90,64,0
313.89566,314.02042,79,64,0
313.89566,314.02042,91,64,0
314.02042,314.14517,78,64,0
314.02042,314.14517,90,64,0
314.14517,314.26993,90,64,0
314.14517,314.26993,102,64,0
314.26993,314.39468,86,61,0
314.26993,314.39468,98,61,0
314.39468,314.51944,85,58,0
314.39468,314.51944,97,58,0
314.51944,314.6442,86,54,0
314.51944,314.6442,98,54,0
314.6442,314.76895,83,54,0
314.6442,314.76895,95,54,0
314.76895,314.8937,78,54,0
314.76895,314.8937,90,54,0
314.8937,315.01846,71,64,0
314.8937,315.01846,83,64,0
315.01846,315.14322,74,64,0
315.01846,315.14322,86,64,0
315.14322,315.26797,75,64,0
315.14322,315.26797,87,64,0
315.26797,315.39273,76,64,0
315.26797,315.39273,88,64,0
315.39273,315.51752,78,64,0
315.39273,315.51752,90,64,0
315.51752,315.64227,76,64,0
315.51752,315.64227,88,64,0
315.64227,315.76703,88,64,0
315.64227,315.76703,100,64,0
315.76703,315.89178,86,61,0
315.76703,315.89178,98,61,0
315.89178,316.01654,83,57,0
315.89178,316.01654,95,57,0
316.01654,316.1413,86,64,0
316.01654,316.1413,98,64,0
316.1413,316.26605,83,54,0
316.1413,316.26605,95,54,0
316.26605,316.3908,80,54,0
316.26605,316.3908,92,54,0
316.3908,316.51556,71,64,0
316.3908,316.51556,83,64,0
316.51556,316.64032,74,64,0
316.51556,316.64032,86,64,0
316.64032,316.76508,75,64,0
316.64032,316.76508,87,64,0
316.76508,316.88983,76,64,0
316.76508,316.88983,88,64,0
316.88983,317.0146,78,64,0
316.88983,317.0146,90,64,0
317.0146,317.13934,76,64,0
317.0146,317.13934,88,64,0
317.13934,317.2641,88,64,0
317.13934,317.2641,100,64,0
317.2641,317.38885,86,61,0
317.2641,317.38885,98,61,0
317.38885,317.5136,83,57,0
317.38885,317.5136,95,57,0
317.5136,317.63837,86,64,0
317.5136,317.63837,98,64,0
317.63837,317.76312,83,54,0
317.63837,317.76312,95,54,0
317.76312,317.88788,80,54,0
317.76312,317.88788,92,54,0
317.88788,318.01263,85,64,0
317.88788,318.01263,73,64,0
318.01263,318.1374,86,64,0
318.01263,318.1374,74,64,0
318.1374,318.26215,87,64,0
318.1374,318.26215,75,64,0
318.26215,318.3869,88,64,0
318.26215,318.3869,76,64,0
318.3869,318.51166,87,64,0
318.3869,318.51166,75,64,0
318.51166,318.6364,88,64,0
318.51166,318.6364,76,64,0
318.6364,318.76117,97,64,0
318.6364,318.76117,85,64,0
318.76117,318.88593,95,62,0
318.76117,318.88593,83,62,0
318.88593,319.01068,92,58,0
318.88593,319.01068,80,58,0
319.01068,319.13544,95,54,0
319.01068,319.13544,83,54,0
319.13544,319.2602,93,54,0
319.13544,319.2602,81,54,0
319.2602,319.38495,88,54,0
319.2602,319.38495,76,54,0
319.38495,319.5097,85,64,0
319.38495,319.5097,73,64,0
319.5097,319.63446,86,64,0
319.5097,319.63446,74,64,0
319.63446,319.75922,87,64,0
319.63446,319.75922,75,64,0
319.75922,319.88397,88,64,0
319.75922,319.88397,76,64,0
319.88397,320.00873,87,64,0
319.88397,320.00873,75,64,0
320.00873,320.13348,88,64,0
320.00873,320.13348,76,64,0
320.13348,320.25824,97,64,0
320.13348,320.25824,85,64,0
320.25824,320.383,95,62,0
320.25824,320.383,83,62,0
320.383,320.50775,92,58,0
320.383,320.50775,80,58,0
320.50775,320.6325,95,64,0
320.50775,320.6325,83,64,0
320.6325,320.75726,93,61,0
320.6325,320.75726,81,61,0
320.75726,320.88202,88,59,0
320.75726,320.88202,76,59,0
320.88202,321.00677,78,75,0
320.88202,321.00677,90,75,0
321.00677,321.13153,76,64,0
321.00677,321.13153,88,64,0
321.13153,321.2563,72,64,0
321.13153,321.2563,84,64,0
321.2563,321.38104,74,74,0
321.2563,321.38104,86,74,0
321.38104,321.5058,73,64,0
321.38104,321.5058,85,64,0
321.5058,321.63055,68,64,0
321.5058,321.63055,80,64,0
321.63055,321.7553,71,74,0
321.63055,321.7553,83,74,0
321.7553,321.88007,69,64,0
321.7553,321.88007,81,64,0
321.88007,322.00482,63,64,0
321.88007,322.00482,75,64,0
322.00482,322.12958,66,74,0
322.00482,322.12958,78,74,0
322.12958,322.25433,64,64,0
322.12958,322.25433,76,64,0
322.25433,322.3791,60,64,0
322.25433,322.3791,72,64,0
322.3791,322.50385,62,74,0
322.3791,322.50385,74,74,0
322.50385,322.6286,61,64,0
322.50385,322.6286,73,64,0
322.6286,322.75336,56,64,0
322.6286,322.75336,68,64,0
322.75336,322.8781,59,74,0
322.75336,322.8781,71,74,0
322.8781,323.00287,57,64,0
322.8781,323.00287,69,64,0
323.00287,323.12762,51,64,0
323.00287,323.12762,63,64,0
323.12762,323.25238,54,74,0
323.12762,323.25238,66,74,0
323.25238,323.37714,52,64,0
323.25238,323.37714,64,64,0
323.37714,323.50192,48,64,0
323.37714,323.50192,60,64,0
323.50192,323.62668,50,74,0
323.50192,323.62668,62,74,0
323.62668,323.75143,49,64,0
323.62668,323.75143,61,64,0
323.75143,323.8762,45,64,0
323.75143,323.8762,57,64,0
323.8762,325.37326,69,127,0
323.8762,325.37326,65,127,0
323.8762,325.37326,60,127,0
323.8762,325.37326,53,127,0
323.8762,325.37326,41,127,0
325.37326,325.49802,84,64,0
325.49802,325.62277,82,64,0
325.62277,325.74753,78,64,0
325.74753,325.87228,81,64,0
325.87228,325.99704,79,64,0
325.99704,326.1218,75,64,0
326.1218,326.24655,77,64,0
326.24655,326.3713,76,64,0
326.3713,326.49606,71,64,0
326.49606,326.62082,73,64,0
326.62082,326.74557,72,64,0
325.37326,326.87033,64,64,0
325.37326,326.87033,61,64,0
325.37326,326.87033,58,64,0
325.37326,326.87033,53,64,0
326.74557,326.87033,70,64,0
326.87033,328.3674,69,127,0
326.87033,328.3674,65,127,0
326.87033,328.3674,60,127,0
326.87033,328.3674,57,127,0
326.87033,328.3674,53,127,0
328.3674,328.49216,84,64,0
328.49216,328.6169,82,64,0
328.6169,328.74167,78,64,0
328.74167,328.86642,81,64,0
328.86642,328.99118,79,64,0
328.99118,329.11594,75,64,0
329.11594,329.2407,77,64,0
329.2407,329.36545,76,64,0
329.36545,329.4902,71,64,0
329.4902,329.61496,73,64,0
329.61496,329.73972,72,64,0
328.3674,329.86447,64,64,0
328.3674,329.86447,61,64,0
328.3674,329.86447,58,64,0
328.3674,329.86447,53,64,0
329.73972,329.86447,70,64,0
329.86447,329.98923,69,100,0
329.98923,330.11398,72,100,0
329.86447,330.23874,65,100,0
329.86447,330.23874,60,100,0
329.86447,330.23874,57,100,0
329.86447,330.23874,53,100,0
330.11398,330.23874,77,100,0
330.23874,330.3635,72,100,0
330.3635,330.48825,77,100,0
330.48825,330.613,81,100,0
330.613,330.73776,77,100,0
330.73776,330.86252,81,100,0
330.86252,330.98727,84,100,0
330.98727,331.11203,81,100,0
331.11203,331.2368,84,100,0
331.2368,331.36154,89,100,0
331.36154,331.4863,53,127,0
331.4863,331.61108,57,100,0
331.61108,331.73584,60,100,0
331.73584,331.8606,57,100,0
331.8606,331.98535,60,100,0
331.98535,332.1101,65,100,0
332.1101,332.23486,60,100,0
332.23486,332.35962,65,100,0
332.35962,332.48438,69,100,0
332.48438,332.60913,65,100,0
332.60913,332.7339,69,100,0
331.36154,332.85864,93,127,0
331.36154,332.85864,87,127,0
331.36154,332.85864,84,127,0
331.36154,332.85864,81,127,0
332.7339,332.85864,72,100,0
332.85864,332.9834,76,100,0
332.9834,333.10815,81,100,0
333.10815,333.2329,85,100,0
333.2329,333.35767,81,100,0
333.35767,333.48242,85,100,0
333.48242,333.60718,88,100,0
333.60718,333.73193,85,100,0
333.73193,333.8567,88,100,0
333.8567,333.98145,93,100,0
333.98145,334.1062,88,100,0
334.1062,334.23096,93,100,0
332.85864,334.3557,64,110,0
332.85864,334.3557,69,110,0
332.85864,334.3557,73,110,0
334.23096,334.3557,97,100,0
334.3557,334.48047,64,127,0
334.48047,334.60522,71,100,0
334.60522,334.72998,74,100,0
334.72998,334.85474,71,100,0
334.85474,334.9795,74,100,0
334.9795,335.10425,76,100,0
335.10425,335.229,74,100,0
335.229,335.35376,76,95,0
335.35376,335.47852,80,86,0
335.47852,335.60327,76,79,0
335.60327,335.72803,80,72,0
334.3557,335.85278,100,127,0
334.3557,335.85278,95,127,0
334.3557,335.85278,92,127,0
334.3557,335.85278,88,127,0
335.72803,335.85278,83,63,0
335.85278,336.13348,85,54,0
336.13348,336.18027,86,54,0
336.18027,336.22705,85,54,0
335.85278,336.22705,76,54,0
335.85278,336.22705,64,54,0
335.85278,336.41418,57,54,0
336.22705,336.41418,83,54,0
336.22705,336.41418,74,54,0
336.22705,336.41418,68,54,0
336.41418,336.50775,81,54,0
336.41418,336.50775,73,54,0
336.41418,336.50775,69,54,0
336.41418,336.50775,57,54,0
336.60132,336.9756,57,54,0
336.60132,336.9756,64,54,0
336.60132,336.9756,73,54,0
336.60132,336.9756,81,54,0
336.9756,337.34985,57,54,0
336.9756,337.34985,69,54,0
336.9756,337.34985,73,54,0
336.9756,337.34985,81,54,0
337.34985,337.63055,85,54,0
337.63055,337.67734,86,54,0
337.67734,337.72412,85,54,0
337.34985,337.72412,76,54,0
337.34985,337.72412,64,54,0
337.34985,337.91125,57,54,0
337.72412,337.91125,83,54,0
337.72412,337.91125,74,54,0
337.72412,337.91125,68,54,0
337.91125,338.00482,81,54,0
337.91125,338.00482,73,54,0
337.91125,338.00482,69,54,0
337.91125,338.00482,57,54,0
338.0984,338.47266,57,54,0
338.0984,338.47266,64,54,0
338.0984,338.47266,73,54,0
338.0984,338.47266,81,54,0
338.47266,338.84692,57,54,0
338.47266,338.84692,69,54,0
338.47266,338.84692,73,54,0
338.47266,338.84692,81,54,0
338.84692,339.03406,85,54,0
338.84692,339.03406,81,54,0
339.03406,339.2212,80,54,0
339.03406,339.2212,83,54,0
338.84692,339.2212,61,54,0
338.84692,339.40833,54,54,0
339.2212,339.40833,83,54,0
339.2212,339.40833,80,54,0
339.2212,339.40833,65,54,0
339.40833,339.5955,81,54,0
339.40833,339.5955,78,54,0
339.40833,339.5955,66,54,0
339.40833,339.5955,54,54,0
339.5955,339.96976,61,54,0
339.5955,340.34402,81,64,0
339.5955,340.34402,78,64,0
339.5955,340.34402,54,54,0
339.96976,340.34402,66,54,0
340.34402,340.53116,85,54,0
340.34402,340.53116,81,54,0
340.53116,340.7183,80,54,0
340.53116,340.7183,83,54,0
340.34402,340.7183,61,54,0
340.34402,340.90543,54,54,0
340.7183,340.90543,83,54,0
340.7183,340.90543,80,54,0
340.7183,340.90543,65,54,0
340.90543,341.09256,81,54,0
340.90543,341.09256,78,54,0
340.90543,341.09256,66,54,0
340.90543,341.09256,54,54,0
341.09256,341.46683,61,54,0
341.09256,341.8411,81,64,0
341.09256,341.8411,78,64,0
341.09256,341.8411,54,54,0
341.46683,341.8411,66,54,0
341.8411,342.1218,86,54,0
341.8411,342.1218,74,54,0
342.1218,342.16858,88,54,0
342.1218,342.16858,76,54,0
342.16858,342.21536,86,54,0
342.16858,342.21536,74,54,0
341.8411,342.4025,69,54,0
341.8411,342.4025,81,54,0
342.21536,342.4025,73,54,0
342.21536,342.4025,85,54,0
342.4025,342.49606,71,54,0
342.4025,342.49606,69,54,0
342.4025,342.49606,83,54,0
342.4025,342.49606,81,54,0
342.58963,342.9639,90,64,0
342.58963,343.33817,80,54,0
342.58963,343.33817,74,54,0
342.58963,343.33817,71,54,0
342.58963,343.33817,64,54,0
342.9639,343.33817,88,54,0
343.33817,343.46292,85,54,0
343.33817,343.5253,81,54,0
343.33817,343.5253,73,54,0
343.33817,343.5253,69,54,0
343.46292,343.58768,86,54,0
343.58768,343.65005,85,54,0
343.71243,343.8372,83,54,0
343.71243,343.89957,80,54,0
343.71243,343.89957,71,54,0
343.71243,343.89957,64,54,0
343.8372,343.96194,85,54,0
343.96194,344.02432,83,54,0
344.0867,344.46097,81,54,0
344.0867,344.46097,61,54,0
344.0867,344.46097,69,54,0
344.83524,345.11594,85,100,0
345.11594,345.16272,86,100,0
345.16272,345.2095,85,100,0
344.83524,345.2095,76,100,0
344.83524,345.2095,64,100,0
344.83524,345.39664,57,100,0
345.2095,345.39664,83,100,0
345.2095,345.39664,74,100,0
345.2095,345.39664,68,100,0
345.39664,345.4902,81,100,0
345.39664,345.4902,73,100,0
345.39664,345.4902,69,100,0
345.39664,345.4902,57,100,0
345.58377,345.95804,57,100,0
345.58377,345.95804,64,100,0
345.58377,345.95804,73,100,0
345.58377,345.95804,81,100,0
345.95804,346.3323,57,100,0
345.95804,346.3323,69,100,0
345.95804,346.3323,73,100,0
345.95804,346.3323,81,100,0
346.3323,346.613,85,100,0
346.613,346.6598,86,100,0
346.6598,346.70657,85,100,0
346.3323,346.70657,76,100,0
346.3323,346.70657,64,100,0
346.3323,346.8937,57,100,0
346.70657,346.8937,83,100,0
346.70657,346.8937,74,100,0
346.70657,346.8937,68,100,0
346.8937,346.98727,81,100,0
346.8937,346.98727,73,100,0
346.8937,346.98727,69,100,0
346.8937,346.98727,57,100,0
347.08084,347.4551,57,100,0
347.08084,347.4551,64,100,0
347.08084,347.4551,73,100,0
347.08084,347.4551,81,100,0
347.4551,347.8294,57,100,0
347.4551,347.8294,69,100,0
347.4551,347.8294,73,100,0
347.4551,347.8294,81,100,0
347.8294,348.01654,73,100,0
347.8294,348.01654,85,100,0
347.8294,348.01654,81,100,0
348.01654,348.20367,71,100,0
348.01654,348.20367,80,100,0
348.01654,348.20367,83,100,0
347.8294,348.20367,61,100,0
347.8294,348.3908,54,100,0
348.20367,348.3908,83,100,0
348.20367,348.3908,80,100,0
348.20367,348.3908,65,100,0
348.20367,348.3908,71,100,0
348.3908,348.57794,81,100,0
348.3908,348.57794,78,100,0
348.3908,348.57794,66,100,0
348.3908,348.57794,54,100,0
348.3908,348.57794,69,100,0
348.57794,348.9522,61,100,0
348.57794,349.32648,81,100,0
348.57794,349.32648,78,100,0
348.57794,349.32648,54,100,0
348.57794,349.32648,69,100,0
348.9522,349.32648,66,100,0
349.32648,349.5136,73,100,0
349.32648,349.5136,85,100,0
349.32648,349.5136,81,100,0
349.5136,349.70074,71,100,0
349.5136,349.70074,80,100,0
349.5136,349.70074,83,100,0
349.32648,349.70074,61,100,0
349.32648,349.88788,54,100,0
349.70074,349.88788,83,100,0
349.70074,349.88788,80,100,0
349.70074,349.88788,65,100,0
349.70074,349.88788,71,100,0
349.88788,350.075,81,100,0
349.88788,350.075,78,100,0
349.88788,350.075,66,100,0
349.88788,350.075,54,100,0
349.88788,350.075,69,100,0
350.075,350.44928,61,100,0
350.075,350.82355,81,100,0
350.075,350.82355,78,100,0
350.075,350.82355,54,100,0
350.075,350.82355,69,100,0
350.44928,350.82355,66,100,0
350.82355,351.10425,86,100,0
350.82355,351.10425,74,100,0
351.10425,351.15103,88,100,0
351.10425,351.15103,76,100,0
351.15103,351.1978,86,100,0
351.15103,351.1978,74,100,0
350.82355,351.38495,69,100,0
350.82355,351.38495,81,100,0
351.1978,351.38495,73,100,0
351.1978,351.38495,85,100,0
351.38495,351.47852,71,100,0
351.38495,351.47852,69,100,0
351.38495,351.47852,83,100,0
351.38495,351.47852,81,100,0
351.57208,351.94635,90,110,0
351.57208,352.32062,80,100,0
351.57208,352.32062,74,100,0
351.57208,352.32062,71,100,0
351.57208,352.32062,64,100,0
351.94635,352.32062,88,100,0
352.32062,352.44537,85,100,0
352.32062,352.50775,81,100,0
352.32062,352.50775,73,100,0
352.32062,352.50775,69,100,0
352.44537,352.57013,86,100,0
352.57013,352.6325,85,100,0
352.6949,352.81964,83,100,0
352.6949,352.88202,80,100,0
352.6949,352.88202,71,100,0
352.6949,352.88202,64,100,0
352.81964,352.9444,85,100,0
352.9444,353.00677,83,100,0
353.06915,353.44342,81,100,0
353.06915,353.44342,61,100,0
353.06915,353.44342,69,100,0
353.8177,354.56622,69,74,0
353.8177,354.56622,61,74,0
353.8177,354.56622,57,74,0
354.56622,354.9405,68,64,0
354.56622,354.9405,62,64,0
354.56622,354.9405,59,64,0
355.31476,356.06332,56,74,0
355.31476,356.06332,59,74,0
355.31476,356.06332,74,74,0
356.06332,356.4376,73,64,0
356.06332,356.4376,61,64,0
356.06332,356.4376,57,64,0
356.81186,357.37326,78,64,0
356.81186,357.37326,66,64,0
357.37326,357.5604,80,71,0
357.37326,357.5604,68,71,0
356.81186,357.5604,48,64,0
356.81186,358.30893,60,64,0
356.81186,358.30893,57,64,0
357.5604,358.30893,81,74,0
357.5604,358.30893,69,74,0
357.5604,358.30893,49,74,0
358.30893,358.87033,59,74,0
358.87033,359.05746,61,74,0
358.30893,359.05746,57,74,0
358.30893,359.05746,71,74,0
358.30893,359.806,52,74,0
359.05746,359.806,76,64,0
359.05746,359.806,64,64,0
359.05746,359.806,56,64,0
359.05746,359.806,62,64,0
359.806,359.99313,73,64,0
359.806,359.99313,64,64,0
359.806,359.99313,61,64,0
359.806,359.99313,57,64,0
360.18027,360.55453,61,59,0
360.18027,360.55453,64,59,0
360.18027,360.55453,52,59,0
360.18027,360.55453,49,59,0
360.55453,360.74167,49,54,0
360.55453,360.74167,45,54,0
360.55453,360.74167,57,54,0
360.55453,360.74167,61,54,0
367.29138,367.38495,60,110,0
367.29138,367.38495,64,110,0
367.29138,367.38495,52,110,0
367.29138,367.38495,48,110,0
367.29138,367.38495,45,110,0
367.38495,367.47852,69,109,0
367.38495,367.47852,57,109,0
367.47852,367.57208,60,108,0
367.47852,367.57208,64,108,0
367.47852,367.57208,52,108,0
367.47852,367.57208,48,108,0
367.47852,367.57208,45,108,0
367.57208,367.66565,69,107,0
367.57208,367.66565,57,107,0
367.66565,367.75922,60,105,0
367.66565,367.75922,64,105,0
367.66565,367.75922,52,105,0
367.66565,367.75922,48,105,0
367.66565,367.75922,45,105,0
367.75922,367.85278,69,104,0
367.75922,367.85278,57,104,0
367.85278,367.94635,60,103,0
367.85278,367.94635,64,103,0
367.85278,367.94635,52,103,0
367.85278,367.94635,48,103,0
367.85278,367.94635,45,103,0
367.94635,368.03992,69,102,0
367.94635,368.03992,57,102,0
368.03992,368.41418,60,100,0
368.03992,368.41418,64,100,0
368.03992,368.41418,52,100,0
368.03992,368.41418,48,100,0
368.03992,368.41418,45,100,0
368.78845,368.88202,74,110,0
368.78845,368.88202,79,110,0
368.78845,368.88202,77,110,0
368.78845,368.88202,55,110,0
368.78845,368.88202,50,110,0
368.78845,368.88202,47,110,0
368.88202,368.9756,67,109,0
368.88202,368.9756,59,109,0
368.9756,369.06915,74,108,0
368.9756,369.06915,79,108,0
368.9756,369.06915,77,108,0
368.9756,369.06915,55,108,0
368.9756,369.06915,50,108,0
368.9756,369.06915,47,108,0
369.06915,369.16272,67,107,0
369.06915,369.16272,59,107,0
369.16272,369.2563,74,105,0
369.16272,369.2563,79,105,0
369.16272,369.2563,77,105,0
369.16272,369.2563,55,105,0
369.16272,369.2563,50,105,0
369.16272,369.2563,47,105,0
369.2563,369.34985,67,104,0
369.2563,369.34985,59,104,0
369.34985,369.44342,74,103,0
369.34985,369.44342,79,103,0
369.34985,369.44342,77,103,0
369.34985,369.44342,55,103,0
369.34985,369.44342,50,103,0
369.34985,369.44342,47,103,0
369.44342,369.537,67,102,0
369.44342,369.537,59,102,0
369.537,369.91125,79,100,0
369.537,369.91125,77,100,0
369.537,369.91125,74,100,0
369.537,369.91125,55,100,0
369.537,369.91125,50,100,0
369.537,369.91125,47,100,0
370.28552,370.3791,79,110,0
370.28552,370.3791,82,110,0
370.28552,370.3791,84,110,0
370.28552,370.3791,48,110,0
370.28552,370.3791,43,110,0
370.28552,370.3791,40,110,0
370.3791,370.47266,72,109,0
370.3791,370.47266,52,109,0
370.47266,370.56622,79,108,0
370.47266,370.56622,82,108,0
370.47266,370.56622,84,108,0
370.47266,370.56622,48,108,0
370.47266,370.56622,43,108,0
370.47266,370.56622,40,108,0
370.56622,370.6598,72,107,0
370.56622,370.6598,52,107,0
370.6598,370.75336,79,105,0
370.6598,370.75336,82,105,0
370.6598,370.75336,84,105,0
370.6598,370.75336,48,105,0
370.6598,370.75336,43,105,0
370.6598,370.75336,40,105,0
370.75336,370.84692,72,104,0
370.75336,370.84692,52,104,0
370.84692,370.9405,79,103,0
370.84692,370.9405,82,103,0
370.84692,370.9405,84,103,0
370.84692,370.9405,48,103,0
370.84692,370.9405,43,103,0
370.84692,370.9405,40,103,0
370.9405,371.03406,72,102,0
370.9405,371.03406,52,102,0
371.03406,371.40833,84,100,0
371.03406,371.40833,82,100,0
371.03406,371.40833,79,100,0
371.03406,371.40833,48,100,0
371.03406,371.40833,40,100,0
371.03406,371.40833,43,100,0
373.2797,373.65396,72,64,0
373.65396,374.02823,73,66,0
373.2797,374.02823,65,64,0
374.02823,374.4025,74,69,0
373.2797,374.4025,81,64,0
373.2797,374.77676,69,64,0
374.02823,374.77676,66,69,0
374.4025,374.77676,83,71,0
374.4025,374.77676,75,71,0
374.77676,375.47852,85,74,0
375.47852,375.5253,85,74,0
374.77676,375.5253,73,74,0
374.77676,375.5253,69,74,0
375.5253,375.71243,83,74,0
375.71243,375.89957,82,71,0
375.89957,376.0867,83,69,0
374.77676,376.27383,64,74,0
374.77676,376.27383,76,74,0
375.5253,376.27383,68,74,0
375.5253,376.27383,74,74,0
376.0867,376.27383,88,66,0
376.27383,376.6481,81,64,0
376.27383,376.6481,72,64,0
376.27383,376.6481,69,64,0
376.27383,376.6481,65,64,0
379.2212,379.26797,71,100,0
379.2212,379.26797,83,100,0
379.26797,379.39273,69,100,0
379.26797,379.39273,81,100,0
379.39273,379.5175,68,100,0
379.39273,379.5175,80,100,0
379.5175,379.64224,69,100,0
379.5175,379.64224,81,100,0
379.64224,379.76703,73,100,0
379.64224,379.76703,85,100,0
379.76703,379.89178,69,100,0
379.76703,379.89178,81,100,0
379.89178,379.96976,64,100,0
379.89178,379.96976,76,100,0
379.96976,380.01654,66,100,0
379.96976,380.01654,78,100,0
380.01654,380.1413,64,100,0
380.01654,380.1413,76,100,0
380.1413,380.26605,63,100,0
380.1413,380.26605,75,100,0
380.26605,380.3908,64,100,0
380.26605,380.3908,76,100,0
380.3908,380.51556,69,100,0
380.3908,380.51556,81,100,0
380.51556,380.64032,64,100,0
380.51556,380.64032,76,100,0
380.64032,380.7183,61,100,0
380.64032,380.7183,73,100,0
380.7183,380.76508,62,100,0
380.7183,380.76508,74,100,0
380.76508,380.88983,61,100,0
380.76508,380.88983,73,100,0
380.88983,381.0146,60,100,0
380.88983,381.0146,72,100,0
381.0146,381.13934,61,100,0
381.0146,381.13934,73,100,0
381.13934,381.2641,64,100,0
381.13934,381.2641,76,100,0
381.2641,381.38885,61,100,0
381.2641,381.38885,73,100,0
381.38885,381.46683,57,100,0
381.38885,381.46683,69,100,0
381.46683,381.5136,59,100,0
381.46683,381.5136,71,100,0
381.5136,381.63837,57,100,0
381.5136,381.63837,69,100,0
381.63837,381.76312,56,100,0
381.63837,381.76312,68,100,0
381.76312,381.88788,57,100,0
381.76312,381.88788,69,100,0
381.88788,381.98145,61,100,0
381.88788,381.98145,73,100,0
381.98145,382.075,57,100,0
381.98145,382.075,69,100,0
382.075,382.16858,52,100,0
382.075,382.16858,64,100,0
382.16858,382.26215,49,100,0
382.16858,382.26215,61,100,0
382.26215,382.6466,57,100,0
382.26215,382.6466,45,100,0
383.0556,383.49243,45,100,0
383.0556,383.49243,33,100,0
383.0556,383.49243,81,100,0
383.0556,383.49243,76,100,0
383.0556,383.49243,73,100,0
383.0556,383.49243,69,100,0
383.9612,384.46695,45,100,0
383.9612,384.46695,33,100,0
383.9612,384.46695,81,100,0
383.9612,384.46695,76,100,0
383.9612,384.46695,73,100,0
383.9612,384.46695,69,100,0
