start_time,end_time,note_value,velocity,instrument_program_number
0.0,1.730769,69,75,0
3.3173072,3.461538,71,49,0
1.730769,3.461538,68,75,0
3.461538,3.7499995,69,49,0
3.7499995,4.038461,68,49,0
4.038461,4.4711533,69,49,0
4.4711533,4.615384,73,49,0
4.615384,5.192307,69,49,0
5.192307,6.923076,68,49,0
6.923076,8.653845,73,49,0
8.653845,10.384614,74,49,0
10.384614,10.673076,74,49,0
10.673076,10.961537,73,49,0
10.961537,11.249998,73,49,0
11.249998,11.53846,71,49,0
11.53846,11.826921,71,49,0
11.826921,12.115383,69,49,0
12.115383,13.846152,68,49,0
13.846152,15.576921,69,75,0
17.16346,17.30769,71,49,0
15.576921,17.30769,68,75,0
17.30769,17.596151,69,49,0
17.596151,17.884613,68,49,0
17.884613,18.317305,69,49,0
18.317305,18.461536,73,49,0
18.461536,19.03846,69,49,0
19.03846,20.769228,68,49,0
20.769228,22.499996,71,88,0
20.769228,22.499996,66,88,0
22.499996,24.230766,69,49,0
24.086535,24.230766,69,49,0
22.499996,24.230766,66,49,0
24.230766,24.288458,68,49,0
24.80769,25.240381,68,49,0
25.240381,25.384611,69,49,0
25.384611,25.961535,68,49,0
25.961535,27.692305,69,49,0
27.548073,27.692305,69,49,0
27.692305,27.749996,68,49,0
28.269226,28.70192,68,49,0
28.70192,28.84615,69,49,0
28.84615,29.423073,68,49,0
29.423073,31.153843,66,49,0
31.153843,32.88461,69,36,0
34.47115,34.61538,71,36,0
32.88461,34.61538,68,36,0
34.61538,34.903843,69,36,0
34.903843,35.192303,68,36,0
35.192303,35.624996,69,36,0
35.624996,35.769226,73,36,0
35.769226,36.34615,69,36,0
36.34615,38.07692,68,36,0
38.07692,39.230762,73,62,0
39.230762,39.34615,73,75,0
39.336533,39.45192,74,75,0
39.461533,39.57692,73,75,0
39.567303,39.682686,71,75,0
39.692303,39.807686,73,75,0
39.807686,40.38461,76,88,0
40.38461,41.538456,74,49,0
41.538456,41.826916,74,49,0
41.826916,42.11538,73,49,0
42.11538,42.40384,73,49,0
42.40384,42.692303,71,49,0
42.692303,42.980762,71,49,0
42.980762,43.269226,69,49,0
43.269226,44.999992,68,49,0
44.999992,46.730762,78,88,0
44.999992,46.730762,71,88,0
44.999992,46.730762,66,88,0
46.730762,48.461533,69,49,0
48.317303,48.461533,69,49,0
46.730762,48.461533,66,49,0
46.730762,48.461533,73,49,0
48.461533,48.519226,68,49,0
49.038456,49.471146,68,49,0
49.471146,49.61538,69,49,0
49.61538,50.192303,68,49,0
51.77884,51.92307,69,49,0
50.192303,51.92307,73,75,0
51.92307,51.980762,68,36,0
52.499992,52.932686,68,36,0
52.932686,53.076916,69,36,0
53.076916,53.65384,68,36,0
53.65384,55.38461,66,36,0
53.65384,55.38461,61,36,0
53.65384,55.38461,57,36,0
55.38461,57.115376,81,49,0
55.38461,57.115376,69,49,0
57.115376,58.846146,80,49,0
57.115376,58.846146,68,49,0
58.846146,59.13461,81,49,0
58.846146,59.13461,69,49,0
59.13461,59.42307,80,49,0
59.13461,59.42307,68,49,0
59.42307,59.855762,81,49,0
59.42307,59.855762,69,49,0
59.855762,59.999992,85,49,0
59.855762,59.999992,73,49,0
59.999992,60.576916,81,49,0
59.999992,60.576916,69,49,0
60.576916,62.307686,80,49,0
60.576916,62.307686,68,49,0
62.307686,64.03845,85,62,0
62.307686,64.03845,73,62,0
64.03845,65.76922,86,75,0
64.03845,65.76922,74,75,0
65.76922,66.057686,86,62,0
65.76922,66.057686,74,62,0
66.057686,66.346146,85,62,0
66.057686,66.346146,73,62,0
66.346146,66.634605,85,62,0
66.346146,66.634605,73,62,0
66.634605,66.923065,83,62,0
66.634605,66.923065,71,62,0
66.923065,67.21153,83,62,0
66.923065,67.21153,71,62,0
67.21153,67.49999,81,62,0
67.21153,67.49999,69,62,0
67.49999,69.23076,80,49,0
67.49999,69.23076,77,49,0
67.49999,69.23076,68,49,0
69.23076,70.96153,81,49,0
69.23076,70.96153,69,49,0
70.96153,72.6923,80,49,0
70.96153,72.6923,68,49,0
72.6923,72.98076,81,49,0
72.6923,72.98076,69,49,0
72.98076,73.26922,80,49,0
72.98076,73.26922,68,49,0
73.26922,73.70191,81,49,0
73.26922,73.70191,69,49,0
73.70191,73.846146,85,49,0
73.70191,73.846146,73,49,0
73.846146,74.423065,81,49,0
73.846146,74.423065,69,49,0
74.423065,76.15384,80,49,0
74.423065,76.15384,68,49,0
76.15384,77.884605,83,75,0
76.15384,77.884605,78,70,0
76.15384,77.884605,71,65,0
77.884605,79.61537,81,49,0
79.471146,79.61537,81,49,0
77.884605,79.61537,69,49,0
77.884605,79.61537,78,49,0
79.61537,80.1923,80,75,0
80.1923,80.62499,80,75,0
80.62499,80.76922,81,75,0
80.76922,81.346146,80,75,0
81.346146,83.07691,81,75,0
82.93268,83.07691,81,75,0
81.346146,83.07691,73,75,0
81.346146,83.07691,78,75,0
83.07691,83.65383,80,62,0
83.65383,84.086525,80,62,0
84.086525,84.23076,81,62,0
84.23076,84.80768,80,62,0
84.80768,86.53845,78,62,0
84.80768,86.53845,73,62,0
84.80768,86.53845,69,62,0
86.53845,88.26922,81,62,0
86.53845,88.26922,69,62,0
88.26922,89.999985,80,62,0
88.26922,89.999985,68,62,0
89.999985,90.28845,81,62,0
89.999985,90.28845,69,62,0
90.28845,90.57691,80,62,0
90.28845,90.57691,68,62,0
90.57691,91.009605,81,62,0
90.57691,91.009605,69,62,0
91.009605,91.15383,85,62,0
91.009605,91.15383,73,62,0
91.15383,91.73076,81,62,0
91.15383,91.73076,69,62,0
91.73076,93.461525,80,62,0
91.73076,93.461525,68,62,0
93.461525,94.61537,85,62,0
93.461525,94.61537,73,62,0
94.61537,94.73076,85,75,0
94.72114,94.836525,86,75,0
94.84614,94.961525,85,75,0
94.95191,95.06729,83,75,0
95.07691,95.19229,85,75,0
95.19229,95.76922,88,88,0
95.19229,95.76922,76,88,0
95.76922,96.923065,86,49,0
95.76922,96.923065,74,49,0
96.923065,97.211525,86,49,0
96.923065,97.211525,74,49,0
97.211525,97.499985,85,49,0
97.211525,97.499985,73,49,0
97.499985,97.78845,85,49,0
97.499985,97.78845,73,49,0
97.78845,98.07691,83,49,0
97.78845,98.07691,71,49,0
98.07691,98.36537,83,49,0
98.07691,98.36537,71,49,0
98.36537,98.65383,81,49,0
98.36537,98.65383,69,49,0
98.65383,100.384605,80,49,0
98.65383,100.384605,77,49,0
98.65383,100.384605,68,49,0
100.384605,102.11537,90,88,0
100.384605,102.11537,83,88,0
100.384605,102.11537,78,88,0
102.11537,103.84614,81,49,0
103.70191,103.84614,81,49,0
102.11537,103.84614,73,49,0
102.11537,103.84614,78,49,0
102.11537,103.84614,85,49,0
103.84614,103.90383,80,49,0
104.423065,104.85576,80,49,0
104.85576,104.999985,81,49,0
104.999985,105.57691,80,49,0
105.57691,107.30768,81,67,0
107.163445,107.30768,81,49,0
105.57691,107.30768,85,75,0
107.30768,107.36537,80,36,0
107.8846,108.31729,80,36,0
108.31729,108.461525,81,36,0
108.461525,109.038445,80,36,0
109.038445,110.76922,78,36,0
110.76922,112.499985,66,36,0
110.76922,112.499985,62,36,0
110.76922,112.499985,59,36,0
112.499985,114.23075,66,36,0
112.499985,114.23075,61,36,0
112.499985,114.23075,57,36,0
114.23075,116.0721,66,36,0
114.23075,116.0721,59,36,0
114.23075,116.0721,56,36,0
116.0721,118.37234,66,36,0
116.0721,118.37234,57,36,0
116.0721,118.37234,54,36,0
118.37234,118.67846,65,49,0
118.67846,118.98458,66,49,0
118.98458,119.31067,73,49,0
119.31067,119.63676,72,49,0
119.63676,119.9939,74,49,0
119.9939,120.351036,73,49,0
120.351036,120.70818,78,62,0
120.70818,121.06532,77,62,0
121.06532,121.42247,80,62,0
121.42247,121.77961,78,62,0
121.77961,122.13676,83,62,0
122.13676,122.4939,81,62,0
122.4939,122.851036,86,75,0
122.851036,123.20818,85,75,0
123.20818,123.2558,83,75,0
123.56532,123.612946,81,75,0
123.92247,123.970085,80,75,0
124.27961,124.32723,78,75,0
124.63675,124.68437,76,75,0
124.9939,125.04151,74,75,0
125.351036,125.39866,73,75,0
125.70818,125.7558,71,75,0
126.06532,126.112946,69,75,0
126.30342,126.351036,68,75,0
126.52961,126.577225,66,75,0
126.77961,127.01771,65,75,0
127.01771,127.2558,64,75,0
127.2439,127.48199,65,75,0
127.4939,127.73199,71,75,0
127.73199,127.970085,70,75,0
127.95818,128.19627,71,75,0
128.20818,128.44627,74,75,0
128.44627,128.68437,73,75,0
128.67247,128.91057,74,75,0
128.92247,129.16057,77,88,0
129.16057,129.39865,76,88,0
129.38675,129.62485,77,88,0
129.63675,129.87485,83,88,0
129.87485,130.11295,82,88,0
130.10104,130.33913,83,88,0
130.35104,130.58913,86,88,0
130.58913,130.82722,85,88,0
130.81532,131.05342,86,88,0
131.06532,131.2439,89,88,0
131.2439,131.42247,91,88,0
131.42247,131.60104,89,88,0
131.60104,131.7796,88,88,0
131.7796,131.95818,86,88,0
131.95818,132.13675,84,88,0
132.13675,132.31532,83,88,0
132.31532,132.4939,81,88,0
132.4939,132.67247,79,88,0
132.67247,132.85103,78,88,0
132.85103,133.0296,77,88,0
133.0296,133.20818,76,88,0
133.20818,133.38675,74,75,0
133.38675,133.56532,76,75,0
133.56532,133.7439,77,75,0
133.7439,133.92247,76,75,0
133.92247,134.10103,74,75,0
134.10103,134.2796,72,75,0
134.2796,134.45818,71,75,0
134.45818,134.63675,69,75,0
134.63675,134.81532,67,75,0
134.81532,134.9939,65,75,0
134.9939,135.17247,64,75,0
135.17247,135.35103,62,75,0
135.35103,135.5296,61,75,0
135.5296,135.70818,70,75,0
135.70818,135.88675,64,75,0
135.88675,136.06532,61,75,0
136.06532,136.2439,61,75,0
136.2439,136.42247,70,75,0
136.42247,136.60103,64,75,0
136.60103,136.7796,61,75,0
136.7796,136.95818,64,88,0
136.95818,137.13675,67,88,0
137.13675,137.31532,70,88,0
137.31532,137.4939,73,88,0
137.4939,137.67247,76,88,0
137.67247,137.85103,79,88,0
137.85103,138.0296,82,88,0
138.0296,138.20818,85,88,0
138.20818,138.38675,82,88,0
138.38675,138.56532,79,88,0
138.56532,138.7439,76,88,0
138.7439,138.92247,73,88,0
138.92247,139.10103,70,75,0
139.10103,139.2796,67,75,0
139.2796,139.45818,64,75,0
139.45818,139.63675,61,75,0
139.63675,139.81532,60,75,0
139.81532,139.9939,69,75,0
139.9939,140.17245,63,75,0
140.17245,140.35103,60,75,0
140.35103,140.5296,60,75,0
140.5296,140.70818,69,75,0
140.70818,140.88675,63,75,0
140.88675,141.06532,60,75,0
141.06532,141.2439,63,88,0
141.2439,141.42245,66,88,0
141.42245,141.60103,69,88,0
141.60103,141.7796,72,88,0
141.7796,141.95818,75,88,0
141.95818,142.13675,78,88,0
142.13675,142.31532,81,88,0
142.31532,142.4939,84,88,0
142.4939,142.67245,81,88,0
142.67245,142.85103,78,88,0
142.85103,143.0296,75,88,0
143.0296,143.20818,72,88,0
143.20818,143.38675,69,75,0
143.38675,143.56532,66,75,0
143.56532,143.7439,63,75,0
143.7439,143.92245,60,75,0
143.92245,144.10103,59,75,0
144.10103,144.2796,68,75,0
144.2796,144.45818,62,75,0
144.45818,144.63675,59,75,0
144.63675,144.81532,59,75,0
144.81532,144.9939,68,75,0
144.9939,145.17245,62,75,0
145.17245,145.35103,59,75,0
145.35103,145.5296,62,88,0
145.5296,145.70818,65,88,0
145.70818,145.88675,68,88,0
145.88675,146.06532,71,88,0
146.06532,146.2439,74,88,0
146.2439,146.42245,77,88,0
146.42245,146.60103,80,88,0
146.60103,146.7796,83,88,0
146.7796,146.95818,80,88,0
146.95818,147.13675,77,88,0
147.13675,147.31532,74,88,0
147.31532,147.49388,71,88,0
147.49388,147.67245,68,75,0
147.67245,147.85103,65,75,0
147.85103,148.0296,62,75,0
148.0296,148.20818,59,75,0
148.20818,148.38675,59,75,0
148.38675,148.56532,67,75,0
148.56532,148.74388,62,75,0
148.74388,148.92245,59,75,0
148.92245,149.10103,59,75,0
149.10103,149.2796,67,75,0
149.2796,149.45818,62,75,0
149.45818,149.63675,59,75,0
149.63675,149.81532,62,88,0
149.81532,149.99388,65,88,0
149.99388,150.17245,67,88,0
150.17245,150.35103,71,88,0
150.35103,150.5296,74,88,0
150.5296,150.70818,77,88,0
150.70818,150.88675,79,88,0
150.88675,151.06532,83,88,0
151.06532,151.24388,79,88,0
151.24388,151.42245,77,88,0
151.42245,151.60103,74,88,0
151.60103,151.7796,71,88,0
151.7796,151.95818,67,75,0
151.95818,152.13675,65,75,0
152.13675,152.31532,62,75,0
152.31532,152.49388,59,75,0
152.49388,152.85103,60,75,0
152.85103,153.20818,72,75,0
153.20818,153.2558,67,75,0
153.56532,153.61293,65,75,0
153.92245,153.97008,63,75,0
154.2796,154.32722,62,75,0
154.63675,154.68436,60,75,0
154.99388,155.0415,63,75,0
155.35103,155.39865,67,75,0
155.70818,155.7558,72,75,0
156.0653,156.11293,75,75,0
156.42245,156.47008,77,75,0
156.7796,156.87483,80,62,0
156.86293,156.95818,79,62,0
156.95818,157.0534,80,62,0
157.0415,157.13675,79,62,0
157.13675,157.23198,80,62,0
157.22008,157.3153,79,62,0
157.3153,157.41055,80,62,0
157.39865,157.49388,79,62,0
157.49388,157.58913,80,62,0
157.57722,157.67245,79,62,0
157.67245,157.7677,80,62,0
157.75578,157.85103,79,62,0
157.85103,157.94627,80,62,0
157.93436,158.0296,79,62,0
158.0296,158.12483,80,62,0
158.11293,158.20818,79,62,0
158.20818,158.3034,80,62,0
158.2915,158.38675,79,62,0
158.38675,158.48198,80,62,0
158.47008,158.5653,79,62,0
158.5653,158.66055,80,62,0
158.64865,158.74388,79,62,0
158.74388,158.83913,80,62,0
158.82722,158.92245,79,62,0
158.92245,159.0177,80,62,0
159.00578,159.10103,79,62,0
159.10103,159.19626,80,62,0
159.18436,159.2796,79,62,0
159.2796,159.37483,80,62,0
159.36293,159.45818,79,62,0
159.45818,159.5534,80,62,0
159.5415,159.63675,79,62,0
159.63675,159.73198,80,62,0
159.72008,159.8153,79,62,0
159.8153,159.91055,80,62,0
159.89865,159.99388,79,62,0
159.99388,160.08913,80,62,0
160.07722,160.17245,79,62,0
160.17245,160.2677,80,62,0
160.25578,160.35103,79,62,0
160.35103,160.44626,80,62,0
160.43436,160.5296,79,62,0
160.5296,160.62483,80,62,0
160.61293,160.70818,79,62,0
160.70818,160.8034,80,62,0
160.7915,160.88673,79,62,0
160.88673,160.98198,80,62,0
160.97008,161.0653,79,62,0
161.0653,161.16055,80,49,0
161.14865,161.24388,79,49,0
161.24388,161.33913,80,49,0
161.32722,161.42245,79,49,0
161.42245,161.5177,80,49,0
161.50578,161.60103,79,49,0
161.60103,161.69626,80,49,0
161.68436,161.7796,79,49,0
161.7796,161.87483,80,49,0
161.86293,161.95818,79,49,0
161.95818,162.0534,80,49,0
162.0415,162.13673,79,49,0
162.13673,162.23198,80,49,0
162.22008,162.3153,79,49,0
162.3153,162.41055,80,49,0
162.39865,162.49388,79,49,0
162.49388,162.58913,80,49,0
162.57722,162.67245,79,49,0
162.67245,162.7677,80,49,0
162.75578,162.85103,79,49,0
162.85103,162.94626,80,49,0
162.93436,163.0296,79,49,0
163.0296,163.12483,77,49,0
163.11293,163.20818,79,49,0
163.20818,163.5653,82,49,0
163.5653,163.92245,80,49,0
163.92245,163.97008,80,49,0
164.2796,164.32721,80,49,0
164.63673,164.68436,80,49,0
164.99388,165.0415,80,49,0
165.35103,165.39865,80,62,0
165.70818,165.75578,80,62,0
165.70818,165.75578,77,62,0
166.0653,166.11293,80,62,0
166.0653,166.11293,77,62,0
166.42245,166.47008,80,62,0
166.42245,166.47008,77,62,0
166.7796,166.82721,80,49,0
166.7796,166.82721,77,49,0
167.13673,167.18436,80,49,0
167.13673,167.18436,77,49,0
167.49388,167.73198,80,49,0
167.73198,167.97008,92,49,0
167.95818,168.19626,80,49,0
168.20816,168.44626,92,62,0
168.44626,168.68436,80,62,0
168.67245,168.91055,92,62,0
168.92245,169.16055,80,62,0
169.16055,169.39865,92,62,0
169.38673,169.62483,80,62,0
169.63673,169.87483,92,62,0
169.87483,170.11293,80,62,0
170.10103,170.33913,92,62,0
170.35103,170.58913,80,75,0
170.58913,170.82721,92,75,0
170.8153,171.0534,80,75,0
171.0653,171.3034,92,75,0
171.3034,171.5415,80,75,0
171.5296,171.76768,92,75,0
171.7796,172.13673,64,75,0
172.13673,172.49388,76,75,0
172.49388,172.67245,71,75,0
172.67245,172.85103,72,75,0
172.85103,173.0296,71,75,0
173.0296,173.20816,69,75,0
173.20816,173.38673,67,75,0
173.38673,173.5653,69,75,0
173.5653,173.74388,67,75,0
173.74388,173.92245,66,75,0
173.92245,174.10103,64,75,0
174.10103,174.2796,66,75,0
174.2796,174.45816,67,75,0
174.45816,174.63673,69,75,0
174.63673,174.8153,71,75,0
174.8153,174.99388,73,75,0
174.99388,175.17245,75,75,0
175.17245,175.35103,76,75,0
175.35103,175.52959,78,75,0
175.52959,175.70816,79,75,0
175.70816,175.88673,81,75,0
175.88673,176.0653,83,75,0
176.0653,176.16055,84,62,0
176.14864,176.24388,83,62,0
176.24388,176.33911,84,62,0
176.32721,176.42245,83,62,0
176.42245,176.51768,84,62,0
176.50578,176.60103,83,62,0
176.60103,176.69626,84,62,0
176.68436,176.77959,83,62,0
176.77959,176.87483,84,62,0
176.86293,176.95816,83,62,0
176.95816,177.0534,84,62,0
177.0415,177.13673,83,62,0
177.13673,177.23198,84,62,0
177.22008,177.3153,83,62,0
177.3153,177.41055,84,62,0
177.39864,177.49388,83,62,0
177.49388,177.58911,84,62,0
177.57721,177.67245,83,62,0
177.67245,177.76768,84,62,0
177.75578,177.85103,83,62,0
177.85103,177.94626,84,62,0
177.93436,178.02959,83,62,0
178.02959,178.12483,84,62,0
178.11293,178.20816,83,62,0
178.20816,178.3034,84,62,0
178.2915,178.38673,83,62,0
178.38673,178.48198,84,62,0
178.47006,178.5653,83,62,0
178.5653,178.66055,84,62,0
178.64864,178.74388,83,62,0
178.74388,178.83911,84,62,0
178.82721,178.92245,83,62,0
178.92245,179.01768,84,62,0
179.00578,179.10103,83,62,0
179.10103,179.19626,84,62,0
179.18436,179.27959,83,62,0
179.27959,179.37483,84,62,0
179.36293,179.45816,83,62,0
179.45816,179.5534,84,62,0
179.5415,179.63673,83,62,0
179.63673,179.73198,84,62,0
179.72006,179.8153,83,62,0
179.8153,179.91055,84,62,0
179.89864,179.99388,83,62,0
179.99388,180.08911,84,62,0
180.07721,180.17245,83,62,0
180.17245,180.26768,84,62,0
180.25578,180.35103,83,62,0
180.35103,180.44626,84,62,0
180.43436,180.52959,83,62,0
180.52959,180.62483,84,62,0
180.61293,180.70816,83,62,0
180.70816,180.8034,84,62,0
180.7915,180.88673,83,62,0
180.88673,180.98198,84,62,0
180.97006,181.0653,83,62,0
181.0653,181.16054,84,62,0
181.14864,181.24388,83,62,0
181.24388,181.33911,84,62,0
181.32721,181.42245,83,62,0
181.42245,181.51768,84,62,0
181.50578,181.60103,83,62,0
181.60103,181.69626,84,62,0
181.68436,181.77959,83,62,0
181.77959,181.87483,84,62,0
181.86293,181.95816,83,62,0
181.95816,182.0534,84,62,0
182.0415,182.13673,83,62,0
182.13673,182.23198,84,62,0
182.22006,182.3153,83,62,0
182.3153,182.41054,81,62,0
182.39864,182.49388,83,62,0
182.49388,182.85101,86,62,0
182.85101,183.20816,84,62,0
183.20816,183.25578,84,62,0
183.5653,183.61293,84,62,0
183.92245,183.97006,84,62,0
184.27959,184.32721,84,62,0
184.63673,184.68436,84,62,0
184.87483,184.92245,84,62,0
184.87483,184.92245,80,62,0
185.10101,185.14864,84,62,0
185.10101,185.14864,80,62,0
185.35101,185.39864,84,62,0
185.35101,185.39864,80,62,0
185.58911,185.63673,84,62,0
185.58911,185.63673,80,62,0
185.8153,185.86293,84,62,0
185.8153,185.86293,80,62,0
186.0653,186.11293,84,62,0
186.0653,186.11293,80,62,0
186.3034,186.35101,84,62,0
186.3034,186.35101,80,62,0
186.52959,186.57721,84,62,0
186.52959,186.57721,80,62,0
186.77959,187.01768,84,75,0
187.01768,187.25578,96,75,0
187.24388,187.48198,84,75,0
187.49388,187.73196,96,75,0
187.73196,187.97006,84,75,0
187.95816,188.19626,96,75,0
188.20816,188.44626,84,75,0
188.44626,188.68436,96,75,0
188.67245,188.91054,84,75,0
188.92245,189.16054,96,75,0
189.16054,189.39864,84,75,0
189.38673,189.62483,96,75,0
189.63673,189.87483,84,75,0
189.87483,190.11293,96,75,0
190.10101,190.33911,84,75,0
190.35101,190.58911,96,75,0
190.58911,190.82721,84,75,0
190.8153,191.0534,96,75,0
191.0653,191.3034,85,75,0
191.3034,191.54149,97,75,0
191.52959,191.76768,85,75,0
191.77959,192.01768,97,75,0
192.01768,192.25578,85,75,0
192.24388,192.48196,97,75,0
192.49388,192.73196,85,75,0
192.73196,192.97006,97,75,0
192.95816,193.19626,85,75,0
193.20816,193.44626,97,75,0
193.44626,193.68436,85,75,0
193.67244,193.91054,97,75,0
193.92244,194.16054,85,75,0
194.16054,194.39864,97,75,0
194.38673,194.62483,85,75,0
194.63673,194.87483,97,75,0
194.87483,195.11292,85,75,0
195.10101,195.33911,97,75,0
195.35101,195.58911,85,127,0
195.58911,195.82721,97,101,0
195.8153,196.05339,85,101,0
196.0653,196.30339,81,127,0
196.30339,196.54149,93,101,0
196.52959,196.76768,81,101,0
196.77959,197.01768,78,127,0
197.01768,197.25578,90,101,0
197.24387,197.48196,78,101,0
197.49387,197.73196,73,127,0
197.73196,197.97006,85,101,0
197.95816,198.19626,73,101,0
198.20816,198.44626,69,127,0
198.44626,198.68436,81,101,0
198.67244,198.91054,69,101,0
198.92244,199.16054,80,127,0
199.16054,199.39864,77,101,0
199.38673,199.62483,78,101,0
199.63673,199.75578,100,114,0
199.74387,199.86292,99,114,0
199.87483,199.99387,97,114,0
199.99387,200.11292,95,114,0
200.10101,200.22006,93,114,0
200.23196,200.35101,92,114,0
200.35101,200.47006,90,101,0
200.45816,200.57721,88,101,0
200.58911,200.70816,87,101,0
200.70816,200.82721,85,101,0
200.8153,200.93434,83,101,0
200.94626,201.0653,81,101,0
201.0653,201.18434,80,88,0
201.17244,201.29149,78,88,0
201.30339,201.42244,76,88,0
201.42244,201.51768,75,88,0
201.50578,201.60101,73,88,0
201.60101,201.69626,71,88,0
201.68434,201.77959,69,88,0
201.77959,201.95816,68,114,0
201.95816,202.13673,66,114,0
202.13673,202.3153,64,114,0
202.3153,202.49387,63,114,0
202.49387,202.67244,61,114,0
202.67244,202.85101,59,114,0
202.85101,203.02959,57,114,0
203.02959,203.20816,56,114,0
203.20816,203.32721,54,114,0
203.3153,203.43434,52,114,0
203.44626,203.5653,51,114,0
203.5653,203.68434,49,114,0
203.67244,203.79149,47,114,0
203.80339,203.92244,45,114,0
203.92244,203.97006,44,127,0
204.27959,204.32721,56,127,0
204.27959,204.32721,52,127,0
204.27959,204.32721,49,127,0
204.63673,204.68434,61,127,0
204.63673,204.68434,56,127,0
204.63673,204.68434,52,127,0
204.99387,205.04149,64,127,0
204.99387,205.04149,61,127,0
204.99387,205.04149,56,127,0
205.35101,205.39864,68,127,0
205.35101,205.39864,64,127,0
205.35101,205.39864,61,127,0
205.70816,205.75578,73,127,0
205.70816,205.75578,68,127,0
205.70816,205.75578,64,127,0
206.06529,206.11292,76,127,0
206.06529,206.11292,73,127,0
206.06529,206.11292,68,127,0
206.42244,206.47006,80,127,0
206.42244,206.47006,76,127,0
206.42244,206.47006,73,127,0
206.77959,206.82721,85,127,0
206.77959,206.82721,80,127,0
206.77959,206.82721,76,127,0
207.13673,207.18434,88,127,0
207.13673,207.18434,85,127,0
207.13673,207.18434,80,127,0
207.49387,207.54149,92,127,0
207.49387,207.54149,88,127,0
207.49387,207.54149,85,127,0
207.85101,207.89864,68,127,0
207.85101,207.89864,64,127,0
207.85101,207.89864,61,127,0
208.20816,208.25577,67,114,0
208.20816,208.25577,64,109,0
208.20816,208.25577,61,104,0
208.56529,208.61292,79,114,0
208.56529,208.61292,76,109,0
208.56529,208.61292,73,104,0
208.92244,208.97006,76,114,0
208.92244,208.97006,73,109,0
208.92244,208.97006,67,104,0
209.27959,209.32721,73,114,0
209.27959,209.32721,67,109,0
209.27959,209.32721,64,104,0
209.63673,209.68434,67,114,0
209.63673,209.68434,64,109,0
209.63673,209.68434,61,104,0
209.99387,210.04149,76,114,0
209.99387,210.04149,73,109,0
209.99387,210.04149,67,104,0
210.35101,210.39864,76,127,0
210.35101,210.39864,73,122,0
210.35101,210.39864,67,117,0
210.70816,210.75577,73,127,0
210.70816,210.75577,67,122,0
210.70816,210.75577,64,117,0
211.06529,211.11292,79,127,0
211.06529,211.11292,76,122,0
211.06529,211.11292,73,117,0
211.42244,211.47006,76,127,0
211.42244,211.47006,73,122,0
211.42244,211.47006,67,117,0
211.77959,211.82721,85,127,0
211.77959,211.82721,79,122,0
211.77959,211.82721,76,117,0
212.13672,212.18434,97,127,0
212.13672,212.18434,91,122,0
212.13672,212.18434,88,117,0
212.49387,212.58911,88,114,0
212.57721,212.67244,90,114,0
212.67244,212.76768,91,114,0
212.75577,212.85101,93,114,0
212.85101,212.94624,95,114,0
212.93434,213.02959,93,114,0
213.02959,213.12482,91,114,0
213.11292,213.20816,90,114,0
213.20816,213.30339,88,114,0
213.29149,213.38672,86,114,0
213.38672,213.48196,84,114,0
213.47006,213.56529,83,114,0
213.56529,213.66054,81,114,0
213.64864,213.74387,79,114,0
213.74387,213.83911,78,114,0
213.82721,213.92244,76,114,0
213.92244,214.04149,74,114,0
214.02959,214.14864,72,114,0
214.16054,214.27959,71,114,0
214.27959,214.39864,69,114,0
214.38672,214.50577,67,114,0
214.51768,214.63672,66,114,0
214.63672,214.99387,64,114,0
214.99387,215.70816,76,127,0
214.99387,215.70816,64,127,0
215.70816,216.42244,88,127,0
215.70816,216.42244,76,127,0
216.42244,217.13672,100,114,0
216.42244,217.13672,88,114,0
217.13672,217.85101,88,114,0
217.13672,217.85101,76,114,0
217.85101,218.56529,76,114,0
217.85101,218.56529,64,114,0
218.56529,218.92244,64,114,0
218.92244,218.97006,64,49,0
219.16054,219.20815,65,49,0
219.38672,219.43434,66,49,0
219.63672,219.68434,67,62,0
219.87482,219.92244,68,62,0
220.10101,220.14864,69,62,0
220.35101,220.39864,70,75,0
220.58911,220.63672,71,75,0
220.81529,220.86292,72,75,0
221.06529,221.11292,73,75,0
221.06529,221.11292,61,75,0
221.30339,221.35101,74,75,0
221.30339,221.35101,62,75,0
221.52959,221.5772,75,75,0
221.52959,221.5772,63,75,0
221.77959,221.8272,76,75,0
221.77959,221.8272,64,75,0
222.01767,222.06529,77,75,0
222.01767,222.06529,65,75,0
222.24387,222.29149,78,75,0
222.24387,222.29149,66,75,0
222.49387,222.54149,79,75,0
222.49387,222.54149,67,75,0
222.73196,222.77959,80,75,0
222.73196,222.77959,68,75,0
222.95815,223.00577,81,75,0
222.95815,223.00577,69,75,0
223.20815,223.38672,70,88,0
223.38672,223.56529,82,88,0
223.56529,223.74387,71,88,0
223.74387,223.92244,83,88,0
223.92244,224.10101,72,88,0
224.10101,224.27959,84,88,0
224.27959,224.45815,73,88,0
224.45815,224.63672,85,88,0
224.63672,224.81529,74,88,0
224.81529,224.99387,86,88,0
224.99387,225.17244,75,88,0
225.17244,225.35101,87,88,0
225.35101,225.52959,76,101,0
225.52959,225.70815,88,101,0
225.70815,225.88672,77,101,0
225.88672,226.06529,89,101,0
226.06529,226.24387,78,101,0
226.24387,226.42244,90,101,0
226.42244,226.60101,79,101,0
226.60101,226.77957,91,101,0
226.77957,226.95815,88,101,0
226.77957,226.95815,80,101,0
226.95815,227.13672,92,101,0
227.13672,227.31529,88,101,0
227.13672,227.31529,80,101,0
227.31529,227.49387,92,101,0
227.49387,227.54149,92,127,0
227.49387,227.54149,80,115,0
227.49387,227.54149,85,119,0
227.49387,227.54149,88,123,0
227.85101,227.89862,92,127,0
227.85101,227.89862,80,115,0
227.85101,227.89862,85,119,0
227.85101,227.89862,88,123,0
228.20815,228.25577,92,127,0
228.20815,228.25577,80,115,0
228.20815,228.25577,85,119,0
228.20815,228.25577,88,123,0
228.56529,228.61292,92,127,0
228.56529,228.61292,80,115,0
228.56529,228.61292,85,119,0
228.56529,228.61292,88,123,0
228.92244,228.97005,92,127,0
228.92244,228.97005,80,115,0
228.92244,228.97005,85,119,0
228.92244,228.97005,88,123,0
229.27957,229.3272,92,127,0
229.27957,229.3272,80,115,0
229.27957,229.3272,85,119,0
229.27957,229.3272,88,123,0
229.63672,229.68434,92,127,0
229.63672,229.68434,80,115,0
229.63672,229.68434,85,119,0
229.63672,229.68434,88,123,0
229.99387,230.04149,92,127,0
229.99387,230.04149,80,115,0
229.99387,230.04149,85,119,0
229.99387,230.04149,88,123,0
230.35101,230.39862,92,127,0
230.35101,230.39862,80,115,0
230.35101,230.39862,85,119,0
230.35101,230.39862,88,123,0
230.70815,230.75577,92,127,0
230.70815,230.75577,80,115,0
230.70815,230.75577,85,119,0
230.70815,230.75577,88,123,0
231.06529,231.11292,92,127,0
231.06529,231.11292,80,115,0
231.06529,231.11292,85,119,0
231.06529,231.11292,88,123,0
231.42244,231.47005,92,127,0
231.42244,231.47005,80,115,0
231.42244,231.47005,85,119,0
231.42244,231.47005,88,123,0
231.77957,231.85101,97,127,0
231.77957,231.85101,85,127,0
231.77957,231.85101,88,127,0
231.77957,231.85101,92,127,0
233.92244,234.27957,60,49,0
234.27957,234.63672,61,49,0
234.63672,234.99387,63,49,0
234.99387,235.351,61,49,0
235.351,235.88672,64,49,0
235.88672,236.06529,63,49,0
236.06529,236.13672,97,127,0
236.06529,236.13672,85,127,0
236.06529,236.13672,88,127,0
236.06529,236.13672,92,127,0
238.20815,238.56529,60,49,0
238.56529,238.92244,61,49,0
238.92244,239.27957,63,49,0
239.27957,239.63672,61,49,0
239.63672,240.17244,64,49,0
240.17244,240.351,68,49,0
240.351,244.63672,62,49,0
244.63672,244.70815,98,127,0
244.63672,244.70815,86,127,0
244.63672,244.70815,90,127,0
244.63672,244.70815,93,127,0
246.77957,247.13672,61,49,0
247.13672,247.49387,62,49,0
247.49387,247.851,64,49,0
247.851,248.20815,62,49,0
248.20815,248.74385,66,49,0
248.74385,248.92242,64,49,0
248.92242,248.99385,98,127,0
248.92242,248.99385,86,127,0
248.92242,248.99385,90,127,0
248.92242,248.99385,93,127,0
251.06529,251.42242,61,49,0
251.42242,251.77957,62,49,0
251.77957,252.13672,64,49,0
252.13672,252.49385,62,49,0
252.49385,253.02957,66,49,0
253.02957,253.20815,69,49,0
253.20815,253.92242,61,49,0
253.92242,256.06528,68,49,0
256.06528,256.42242,66,49,0
256.42242,256.77957,64,49,0
256.77957,257.13672,63,49,0
257.13672,257.49387,61,49,0
257.49387,258.20813,60,49,0
258.20813,260.35098,68,49,0
260.35098,260.70813,67,49,0
260.70813,261.06528,68,49,0
261.06528,261.42242,66,49,0
261.42242,261.77957,63,49,0
261.77957,262.49387,64,62,0
262.49387,264.63672,68,62,0
264.63672,264.81528,66,101,0
264.81528,264.99387,68,75,0
264.99387,265.17242,66,75,0
265.17242,265.35098,64,75,0
265.35098,265.52957,63,101,0
265.52957,265.70813,64,75,0
265.70813,265.88672,63,75,0
265.88672,266.06528,61,75,0
266.06528,266.77957,60,75,0
266.77957,268.92242,68,75,0
268.92242,269.10098,67,75,0
269.10098,269.27957,68,75,0
269.27957,269.45813,69,88,0
269.45813,269.63672,68,75,0
269.63672,269.81528,67,75,0
269.81528,269.99387,68,62,0
269.99387,270.17242,66,62,0
270.17242,270.35098,63,62,0
270.35098,271.06528,61,49,0
271.06528,273.20813,68,49,0
273.20813,273.56528,66,49,0
273.56528,273.92242,65,49,0
273.92242,274.27957,63,49,0
274.27957,274.63672,61,49,0
274.63672,275.35098,60,62,0
275.35098,276.06528,68,75,0
276.06528,281.06528,70,88,0
281.06528,281.77957,68,36,0
281.77957,281.85098,66,36,0
283.20813,283.92242,65,36,0
283.92242,283.99384,63,36,0
285.35098,287.49384,61,75,0
287.49384,289.6367,61,62,0
289.6367,291.77957,61,49,0
291.77957,292.49384,60,75,0
292.49384,293.20813,66,75,0
293.20813,293.92242,60,75,0
293.92242,296.06528,61,75,0
296.06528,298.20813,61,62,0
298.20813,300.35098,61,49,0
300.35098,301.06528,60,75,0
301.06528,301.77957,66,75,0
301.77957,302.49384,60,75,0
302.49384,304.6367,61,75,0
304.6367,306.77954,61,75,0
306.77954,309.0964,61,75,0
309.0964,312.19382,61,49,0
312.19382,314.17252,69,62,0
316.1368,316.3154,71,49,0
314.17252,316.3154,68,49,0
316.3154,316.67252,69,49,0
316.67252,317.02966,68,49,0
317.02966,317.3868,69,49,0
317.3868,317.74396,73,49,0
317.74396,318.45825,69,49,0
318.45825,320.6011,68,49,0
320.6011,322.74396,73,75,0
322.74396,324.8868,74,62,0
324.8868,325.42252,74,62,0
325.42252,325.6011,73,62,0
325.6011,326.1368,73,62,0
326.1368,326.31537,71,62,0
326.31537,326.8511,71,62,0
326.8511,327.02966,69,62,0
327.02966,329.17252,77,62,0
327.02966,329.17252,73,62,0
327.02966,329.17252,68,62,0
329.17252,331.31537,69,62,0
333.27966,333.45825,71,49,0
331.31537,333.45825,68,49,0
333.45825,333.81537,69,49,0
333.81537,334.17252,68,49,0
334.17252,334.52966,69,49,0
334.52966,334.8868,73,49,0
334.8868,335.6011,69,49,0
335.6011,337.74396,68,49,0
337.74396,339.8868,71,62,0
339.8868,342.02966,69,62,0
342.02966,342.74396,77,62,0
342.02966,342.74396,73,62,0
342.02966,342.74396,68,62,0
342.74396,342.79156,77,62,0
342.74396,342.79156,73,62,0
342.74396,342.79156,68,62,0
342.98206,343.02966,78,62,0
342.98206,343.02966,73,62,0
342.98206,343.02966,69,62,0
343.20822,343.25586,80,62,0
343.20822,343.25586,73,62,0
343.20822,343.25586,71,62,0
343.45822,343.52966,77,62,0
343.45822,343.52966,73,62,0
343.45822,343.52966,68,62,0
344.17252,346.31537,81,62,0
344.17252,346.31537,78,62,0
344.17252,346.31537,73,62,0
346.31537,347.02966,73,49,0
346.31537,347.02966,68,49,0
346.31537,347.02966,65,49,0
347.02966,347.07727,73,49,0
347.02966,347.07727,68,49,0
347.02966,347.07727,65,49,0
347.26776,347.31537,73,49,0
347.26776,347.31537,69,49,0
347.26776,347.31537,66,49,0
347.49396,347.54156,73,49,0
347.49396,347.54156,71,49,0
347.49396,347.54156,68,49,0
347.74396,347.81537,73,49,0
347.74396,347.81537,68,49,0
347.74396,347.81537,65,49,0
348.45822,350.6011,73,49,0
348.45822,350.6011,69,49,0
348.45822,350.6011,66,49,0
350.6011,352.74396,69,49,0
354.70822,354.8868,71,49,0
352.74396,354.8868,68,49,0
354.8868,355.24396,69,49,0
355.24396,355.60107,68,49,0
355.60107,355.95822,69,49,0
355.95822,356.31537,73,49,0
356.31537,357.02966,69,49,0
357.02966,359.17252,68,49,0
359.17252,361.31537,73,49,0
361.31537,363.45822,74,62,0
363.45822,363.99396,74,75,0
363.99396,364.17252,73,75,0
364.17252,364.70822,73,75,0
364.70822,364.8868,71,75,0
364.8868,365.42252,71,62,0
365.42252,365.60107,69,62,0
365.60107,367.74393,68,49,0
367.74393,369.8868,78,88,0
367.74393,369.8868,73,88,0
367.74393,369.8868,66,88,0
369.8868,372.02966,90,88,0
369.8868,372.02966,81,88,0
369.8868,372.02966,78,88,0
372.02966,372.26776,86,101,0
372.02966,372.26776,80,101,0
372.02966,372.26776,77,101,0
372.26776,372.50586,85,101,0
372.26776,372.50586,77,101,0
372.49393,372.50586,77,101,0
372.26776,372.50586,80,101,0
372.49393,372.50586,80,101,0
372.49393,372.73203,83,101,0
372.74393,372.98203,83,101,0
372.74393,372.98203,77,101,0
372.74393,372.98203,74,101,0
372.98203,373.22012,81,101,0
372.98203,373.22012,74,101,0
373.20822,373.22012,74,101,0
372.98203,373.22012,77,101,0
373.20822,373.22012,77,101,0
373.20822,373.44632,80,101,0
373.45822,373.69632,80,101,0
373.45822,373.69632,74,101,0
373.45822,373.69632,71,101,0
373.69632,373.93442,78,101,0
373.69632,373.93442,71,101,0
373.92252,373.93442,71,101,0
373.69632,373.93442,74,101,0
373.92252,373.93442,74,101,0
373.92252,374.1606,77,101,0
374.17252,376.31537,78,101,0
374.17252,376.31537,73,101,0
374.17252,376.31537,69,101,0
376.31537,378.45822,69,49,0
378.45822,380.60107,67,49,0
380.42252,380.60107,67,49,0
380.60107,381.1368,66,49,0
381.1368,381.31537,64,49,0
381.31537,381.67252,66,49,0
381.67252,382.02966,69,49,0
382.02966,382.74393,66,49,0
382.74393,384.88678,64,49,0
384.88678,387.02966,67,49,0
384.88678,387.02966,55,49,0
387.02966,389.17252,66,49,0
387.02966,389.17252,54,49,0
389.17252,389.24393,61,49,0
389.88678,390.42252,61,49,0
390.42252,390.60107,62,49,0
390.60107,391.31537,61,49,0
391.31537,392.02966,54,49,0
391.19632,392.02966,49,49,0
391.07727,392.02966,45,49,0
392.74393,393.45822,54,49,0
392.62488,393.45822,49,49,0
392.50583,393.45822,45,49,0
394.17252,394.88678,54,49,0
394.05347,394.88678,50,49,0
393.93442,394.88678,47,49,0
395.60107,396.31537,54,49,0
395.48203,396.31537,49,49,0
395.36298,396.31537,45,49,0
397.0846,397.91794,54,49,0
396.9564,397.91794,49,49,0
396.8282,397.91794,45,49,0
398.82703,399.8615,54,49,0
398.6755,399.8615,47,49,0
398.524,399.8615,44,49,0
401.01535,405.6947,54,49,0
400.82303,405.6947,45,49,0
400.63074,405.6947,42,49,0
405.6947,411.3197,54,49,0
405.6947,411.3197,42,49,0
411.3197,416.9447,54,49,0
411.3197,416.9447,42,49,0
9.230768,10.384614,65,62,0
10.384614,10.961537,66,36,0
10.961537,11.53846,65,36,0
11.53846,12.115383,66,36,0
12.115383,13.846152,65,36,0
24.230766,24.80769,65,36,0
24.80769,25.384611,65,36,0
25.384611,25.961535,65,36,0
25.384611,25.961535,61,36,0
25.961535,27.692305,66,36,0
25.961535,27.692305,61,36,0
27.692305,28.269226,65,36,0
28.269226,28.84615,65,36,0
28.84615,29.423073,65,36,0
28.84615,29.423073,61,36,0
29.423073,31.153843,61,36,0
29.423073,31.153843,57,36,0
42.11538,42.692303,68,36,0
42.692303,43.269226,66,36,0
43.269226,44.999992,65,36,0
48.461533,49.038456,73,36,0
48.461533,49.038456,65,36,0
49.038456,49.61538,73,36,0
49.038456,49.61538,65,36,0
49.61538,50.192303,73,36,0
49.61538,50.192303,65,36,0
50.192303,51.92307,69,36,0
50.192303,51.92307,66,36,0
51.92307,52.499992,65,36,0
51.92307,52.499992,61,36,0
52.499992,53.076916,65,36,0
52.499992,53.076916,61,36,0
53.076916,53.65384,65,36,0
53.076916,53.65384,61,36,0
64.61538,65.76922,77,36,0
65.76922,66.346146,78,36,0
66.346146,66.923065,77,36,0
66.923065,67.49999,78,36,0
79.61537,80.1923,77,36,0
79.61537,80.1923,73,36,0
80.1923,80.76922,77,36,0
80.1923,80.76922,73,36,0
80.76922,81.346146,77,36,0
80.76922,81.346146,73,36,0
83.07691,83.65383,77,36,0
83.07691,83.65383,73,36,0
83.65383,84.23076,77,36,0
83.65383,84.23076,73,36,0
84.23076,84.80768,77,36,0
84.23076,84.80768,73,36,0
97.499985,98.07691,80,36,0
98.07691,98.65383,78,36,0
103.84614,104.423065,85,36,0
103.84614,104.423065,77,36,0
103.84614,104.423065,73,36,0
104.423065,104.999985,85,36,0
104.423065,104.999985,77,36,0
104.423065,104.999985,73,36,0
104.999985,105.57691,85,36,0
104.999985,105.57691,77,36,0
104.999985,105.57691,73,36,0
105.57691,107.30768,81,36,0
105.57691,107.30768,78,36,0
105.57691,107.30768,73,36,0
107.30768,107.8846,77,36,0
107.30768,107.8846,73,36,0
107.8846,108.461525,77,36,0
107.8846,108.461525,73,36,0
108.461525,109.038445,77,36,0
108.461525,109.038445,73,36,0
109.038445,110.76922,73,36,0
109.038445,110.76922,69,36,0
285.70813,286.06528,53,36,0
286.06528,286.42242,56,36,0
286.42242,286.77957,53,36,0
286.77957,287.13672,56,36,0
287.13672,287.31528,49,36,0
287.85098,288.20813,54,36,0
288.20813,288.56528,58,36,0
288.56528,288.92242,54,36,0
288.92242,289.27957,58,36,0
289.27957,289.45813,49,36,0
289.99384,290.35098,53,36,0
290.35098,290.70813,56,36,0
290.70813,291.06528,53,36,0
291.06528,291.42242,56,36,0
291.42242,291.60098,49,36,0
292.1367,292.49384,54,36,0
292.49384,292.85098,56,36,0
292.85098,293.20813,54,36,0
293.20813,293.56528,56,36,0
293.56528,293.74384,51,36,0
294.27957,294.6367,53,36,0
294.6367,294.99384,56,36,0
294.99384,295.35098,53,36,0
295.35098,295.70813,56,36,0
295.70813,295.8867,49,36,0
296.42242,296.77957,54,36,0
296.77957,297.1367,57,36,0
297.1367,297.49384,54,36,0
297.49384,297.85098,57,36,0
297.85098,298.02957,49,36,0
298.56528,298.92242,53,36,0
298.92242,299.27957,56,36,0
299.27957,299.6367,53,36,0
299.6367,299.99384,56,36,0
299.99384,300.17242,49,36,0
300.70813,301.06528,54,36,0
301.06528,301.42242,56,36,0
301.42242,301.77957,54,36,0
301.77957,302.1367,56,36,0
302.1367,302.31528,51,36,0
302.85098,303.20813,53,36,0
303.20813,303.56528,56,36,0
303.56528,303.92242,53,36,0
303.92242,304.27954,56,36,0
304.27954,304.45813,49,36,0
304.99384,305.35098,53,62,0
305.35098,305.70813,56,62,0
305.70813,306.06528,53,62,0
306.06528,306.42242,56,62,0
306.42242,306.60098,49,62,0
307.1367,307.49384,54,62,0
307.49384,307.87845,57,62,0
307.87845,308.26306,54,62,0
308.26306,308.67975,57,62,0
308.67975,308.88806,49,62,0
309.55096,310.0055,53,36,0
310.0055,310.52274,59,36,0
310.52274,311.03998,53,36,0
311.03998,311.6169,59,36,0
311.6169,311.90536,49,36,0
312.80606,312.84955,73,36,0
313.02347,313.06693,73,36,0
313.22998,313.27347,73,36,0
313.45825,314.17252,73,36,0
314.8868,315.1249,73,62,0
315.1249,315.363,73,36,0
315.3511,315.363,73,36,0
315.6011,316.3154,73,36,0
317.74396,318.45825,78,62,0
319.17252,319.4106,73,36,0
319.4106,319.6487,73,36,0
319.6368,319.6487,73,36,0
319.8868,320.6011,73,36,0
321.3154,321.55347,78,36,0
321.55347,321.79156,81,36,0
321.77966,322.01776,80,36,0
322.02966,322.74396,78,36,0
323.45825,323.69635,77,36,0
323.69635,323.93442,80,36,0
323.92252,324.1606,78,36,0
324.17252,324.8868,77,36,0
324.8868,325.6011,78,36,0
325.6011,326.31537,77,36,0
326.31537,327.02966,78,36,0
327.02966,329.17252,80,36,0
329.8868,329.93442,73,36,0
330.1249,330.17252,73,36,0
330.3511,330.3987,73,36,0
330.6011,331.31537,73,36,0
332.02966,332.26776,73,62,0
332.26776,332.50586,73,36,0
332.49396,332.50586,73,36,0
332.74396,333.45825,73,36,0
334.8868,335.6011,78,62,0
336.31537,336.55347,73,36,0
336.55347,336.79156,73,36,0
336.77966,336.79156,73,36,0
337.02966,337.74396,73,36,0
338.45822,338.69632,78,75,0
338.69632,338.93442,80,49,0
338.92252,339.1606,78,49,0
339.17252,339.8868,78,49,0
340.6011,340.8392,78,75,0
340.8392,341.07727,80,49,0
341.06537,341.30347,78,49,0
341.31537,342.02966,78,49,0
344.8868,346.31537,85,75,0
351.31537,352.74396,76,62,0
353.45822,354.8868,76,62,0
355.60107,357.02966,76,62,0
357.74396,359.17252,76,62,0
359.8868,361.31537,76,36,0
362.02966,363.45822,76,36,0
363.45822,364.17252,81,36,0
364.17252,364.8868,80,36,0
364.8868,365.60107,78,36,0
365.60107,367.74393,77,36,0
389.17252,389.88678,59,36,0
389.17252,389.88678,53,36,0
389.88678,391.31537,59,36,0
389.88678,391.31537,53,36,0
0.0,0.0576923,42,36,0
0.576923,1.153846,61,36,0
1.153846,1.730769,49,36,0
1.730769,1.7884613,41,36,0
2.307692,2.884615,61,36,0
2.884615,3.461538,49,36,0
3.461538,3.5192304,42,36,0
4.038461,4.615384,61,36,0
4.615384,5.192307,49,36,0
5.192307,5.2499995,41,36,0
5.76923,6.346153,61,36,0
6.346153,6.923076,49,36,0
6.923076,6.980768,45,36,0
7.499999,8.076922,61,36,0
8.076922,8.653845,49,36,0
8.653845,8.711537,47,36,0
9.230768,9.807691,61,36,0
9.807691,10.384614,49,36,0
10.384614,10.4423065,45,36,0
10.961537,11.019229,44,36,0
11.53846,11.596152,42,36,0
12.115383,12.173076,37,36,0
12.692306,13.269229,61,36,0
13.269229,13.846152,49,36,0
13.846152,13.903844,42,36,0
14.423075,14.999998,61,36,0
14.999998,15.576921,49,36,0
15.576921,15.634613,41,36,0
16.153845,16.730766,61,36,0
16.730766,17.30769,49,36,0
17.30769,17.365383,42,36,0
17.884613,18.461536,61,36,0
18.461536,19.03846,49,36,0
19.03846,19.096151,41,36,0
19.615381,20.192305,61,36,0
20.192305,20.769228,49,36,0
20.769228,20.82692,42,75,0
21.346151,21.923075,62,36,0
21.923075,22.499996,50,36,0
22.499996,22.55769,42,36,0
23.07692,23.653843,61,36,0
23.653843,24.230766,49,36,0
24.230766,24.288458,37,36,0
24.80769,25.384611,61,36,0
25.384611,25.961535,49,36,0
25.961535,26.019228,42,36,0
26.538458,27.115381,57,36,0
27.115381,27.692305,49,36,0
27.692305,27.749996,37,36,0
28.269226,28.84615,61,36,0
28.84615,29.423073,49,36,0
29.423073,29.480764,42,36,0
29.999996,30.57692,49,36,0
30.57692,31.153843,54,36,0
31.153843,31.211535,40,36,0
31.730764,32.30769,57,36,0
32.30769,32.88461,49,36,0
32.88461,32.942303,40,36,0
33.461533,34.038456,59,36,0
34.038456,34.61538,50,36,0
34.61538,34.673073,40,36,0
35.192303,35.769226,57,36,0
35.769226,36.34615,49,36,0
36.34615,36.403843,40,36,0
36.923073,37.499996,59,36,0
37.499996,38.07692,50,36,0
38.07692,38.13461,40,36,0
38.65384,39.230762,57,36,0
39.230762,39.807686,49,36,0
39.807686,39.86538,40,75,0
40.38461,40.961533,56,36,0
40.961533,41.538456,47,36,0
41.538456,41.59615,40,36,0
42.11538,42.173073,49,36,0
42.11538,42.173073,41,36,0
42.692303,42.749996,49,36,0
42.692303,42.749996,42,36,0
43.269226,43.326916,37,36,0
43.84615,44.423073,61,36,0
44.423073,44.999992,49,36,0
44.999992,45.057686,42,75,0
45.576916,46.15384,62,36,0
46.15384,46.730762,50,36,0
46.730762,46.788456,42,36,0
47.307686,47.88461,61,36,0
47.88461,48.461533,49,36,0
48.461533,48.519226,37,36,0
49.038456,49.61538,61,36,0
49.61538,50.192303,49,36,0
50.192303,50.249992,42,36,0
50.769222,51.346146,61,36,0
51.346146,51.92307,49,36,0
51.92307,51.980762,37,36,0
52.499992,53.076916,61,36,0
53.076916,53.65384,49,36,0
53.65384,53.711533,42,36,0
54.230762,54.288456,49,49,0
54.807686,54.865376,54,62,0
55.38461,55.4423,42,36,0
55.961533,56.538452,61,36,0
56.538452,57.115376,49,36,0
57.115376,57.17307,41,36,0
57.6923,58.269222,61,36,0
58.269222,58.846146,49,36,0
58.846146,58.90384,42,36,0
59.42307,59.999992,61,36,0
59.999992,60.576916,49,36,0
60.576916,60.634605,41,36,0
61.15384,61.730762,61,36,0
61.730762,62.307686,49,36,0
62.307686,62.365376,45,36,0
62.884605,63.46153,61,36,0
63.46153,64.03845,49,36,0
64.03845,64.096146,47,36,0
64.61538,65.1923,61,36,0
65.1923,65.76922,49,36,0
65.76922,65.82691,45,36,0
66.346146,66.40384,44,36,0
66.923065,66.98076,42,36,0
67.49999,67.557686,37,36,0
68.07691,68.65384,61,36,0
68.65384,69.23076,49,36,0
69.23076,69.28845,42,36,0
69.807686,70.384605,61,36,0
70.384605,70.96153,49,36,0
70.96153,71.01922,41,36,0
71.53845,72.11537,61,36,0
72.11537,72.6923,49,36,0
72.6923,72.74999,42,36,0
73.26922,73.846146,61,36,0
73.846146,74.423065,49,36,0
74.423065,74.48076,41,36,0
74.99999,75.57691,61,36,0
75.57691,76.15384,49,36,0
76.15384,76.211525,42,36,0
76.73076,77.30768,62,36,0
77.30768,77.884605,50,36,0
77.884605,77.9423,42,36,0
78.461525,79.03845,61,36,0
79.03845,79.61537,49,36,0
79.61537,79.673065,37,36,0
80.1923,80.76922,61,36,0
80.76922,81.346146,49,36,0
81.346146,81.40384,42,36,0
81.923065,82.49999,61,36,0
82.49999,83.07691,49,36,0
83.07691,83.134605,37,36,0
83.65383,84.23076,61,36,0
84.23076,84.80768,49,36,0
84.80768,84.86537,42,36,0
85.384605,85.961525,49,36,0
85.961525,86.53845,54,36,0
86.53845,86.596146,40,36,0
87.11537,87.6923,57,36,0
87.6923,88.26922,52,36,0
88.26922,88.32691,40,36,0
88.846146,89.423065,59,36,0
89.423065,89.999985,50,36,0
89.999985,90.05768,40,36,0
90.57691,91.15383,57,36,0
91.15383,91.73076,49,36,0
91.73076,91.78845,40,36,0
92.30768,92.884605,59,36,0
92.884605,93.461525,50,36,0
93.461525,93.51922,40,36,0
94.03845,94.61537,57,36,0
94.61537,95.19229,49,36,0
95.19229,95.249985,40,75,0
95.76922,96.34614,56,36,0
96.34614,96.923065,47,36,0
96.923065,96.98076,40,36,0
97.499985,97.55768,49,36,0
97.499985,97.55768,41,36,0
98.07691,98.134605,49,36,0
98.07691,98.134605,42,36,0
98.65383,98.711525,37,36,0
99.23076,99.80768,61,36,0
99.80768,100.384605,49,36,0
100.384605,100.44229,42,75,0
100.961525,101.538445,62,36,0
101.538445,102.11537,50,36,0
102.11537,102.173065,42,36,0
102.69229,103.26922,61,36,0
103.26922,103.84614,49,36,0
103.84614,103.90383,37,36,0
104.423065,104.999985,61,36,0
104.999985,105.57691,49,36,0
105.57691,105.6346,42,36,0
106.15383,106.73076,61,36,0
106.73076,107.30768,49,36,0
107.30768,107.36537,37,36,0
107.8846,108.461525,61,36,0
108.461525,109.038445,49,36,0
109.038445,109.09614,30,36,0
109.61537,110.19229,54,36,0
110.19229,110.76922,42,36,0
110.76922,110.82691,30,36,0
111.34614,111.923065,54,36,0
111.923065,112.499985,42,36,0
112.499985,112.55768,30,36,0
113.076904,113.65383,54,36,0
113.65383,114.23075,42,36,0
114.23075,114.288445,30,36,0
114.80768,115.41992,54,36,0
115.41992,116.0721,42,36,0
116.0721,116.14186,30,36,0
116.76977,117.539,54,36,0
117.539,118.37234,42,36,0
126.77961,131.06532,56,62,0
131.06532,132.4939,55,62,0
126.77961,132.4939,62,62,0
126.77961,132.4939,59,62,0
135.35103,139.63675,55,62,0
135.35103,139.63675,43,62,0
139.63675,143.92245,54,62,0
139.63675,143.92245,43,62,0
143.92245,148.20818,53,62,0
143.92245,148.20818,43,62,0
148.20818,152.49388,53,62,0
148.20818,152.49388,43,62,0
152.49388,156.0653,51,62,0
152.49388,156.0653,43,62,0
152.49388,156.0653,36,62,0
156.7796,157.13675,48,75,0
157.13675,157.49388,60,75,0
157.49388,157.5415,55,75,0
157.85103,157.89865,53,75,0
158.20818,158.25578,51,75,0
158.5653,158.61293,50,75,0
158.92245,158.97008,48,75,0
159.2796,159.32722,51,75,0
159.63675,159.68436,55,75,0
159.99388,160.0415,60,75,0
160.35103,160.39865,63,75,0
160.70818,160.75578,65,75,0
161.0653,161.16055,68,75,0
161.14865,161.24388,67,75,0
161.24388,161.33913,68,75,0
161.32722,161.42245,67,75,0
161.42245,161.5177,68,75,0
161.50578,161.60103,67,75,0
161.60103,161.69626,68,75,0
161.68436,161.7796,67,75,0
161.7796,161.87483,68,75,0
161.86293,161.95818,67,75,0
161.95818,162.0534,68,75,0
162.0415,162.13673,67,75,0
162.13673,162.23198,68,75,0
162.22008,162.3153,67,75,0
162.3153,162.41055,68,75,0
162.39865,162.49388,67,75,0
162.49388,162.58913,68,75,0
162.57722,162.67245,67,75,0
162.67245,162.7677,68,75,0
162.75578,162.85103,67,75,0
162.85103,162.94626,68,75,0
162.93436,163.0296,67,75,0
163.0296,163.12483,65,75,0
163.11293,163.20818,67,75,0
163.20818,163.5653,67,75,0
163.5653,163.92245,68,75,0
163.92245,164.2796,69,75,0
164.2796,164.63673,70,88,0
164.63673,164.99388,71,88,0
164.99388,165.35103,72,88,0
165.35103,165.70818,75,88,0
165.70818,166.0653,73,88,0
166.0653,166.11293,73,75,0
166.42245,166.47008,73,75,0
166.7796,166.82721,73,62,0
167.13673,167.18436,73,62,0
167.49388,167.73198,73,62,0
167.73198,167.97008,74,62,0
167.95818,168.19626,75,62,0
168.20816,168.44626,76,75,0
168.44626,168.68436,75,75,0
168.67245,168.91055,76,75,0
168.92245,169.16055,78,88,0
169.16055,169.39865,75,88,0
169.38673,169.62483,76,88,0
169.63673,169.87483,78,88,0
169.87483,170.11293,75,88,0
170.10103,170.33913,76,88,0
170.35103,170.58913,78,101,0
170.58913,170.82721,75,101,0
170.8153,171.0534,76,101,0
171.0653,171.3034,78,101,0
171.3034,171.5415,75,101,0
171.5296,171.76768,76,101,0
171.7796,175.35103,55,62,0
171.7796,175.35103,47,62,0
171.7796,175.35103,40,62,0
176.0653,176.42245,52,75,0
176.42245,176.77959,64,75,0
176.77959,176.95816,59,75,0
176.95816,177.13673,60,75,0
177.13673,177.3153,59,75,0
177.3153,177.49388,57,75,0
177.49388,177.67245,55,75,0
177.67245,177.85103,57,75,0
177.85103,178.02959,55,75,0
178.02959,178.20816,54,75,0
178.20816,178.38673,52,75,0
178.38673,178.5653,54,75,0
178.5653,178.74388,55,75,0
178.74388,178.92245,57,75,0
178.92245,179.10103,59,75,0
179.10103,179.27959,61,75,0
179.27959,179.45816,63,75,0
179.45816,179.63673,64,75,0
179.63673,179.8153,66,75,0
179.8153,179.99388,67,75,0
179.99388,180.17245,69,75,0
180.17245,180.35103,71,75,0
180.35103,180.44626,72,75,0
180.43436,180.52959,71,75,0
180.52959,180.62483,72,75,0
180.61293,180.70816,71,75,0
180.70816,180.8034,72,75,0
180.7915,180.88673,71,75,0
180.88673,180.98198,72,75,0
180.97006,181.0653,71,75,0
181.0653,181.16054,72,75,0
181.14864,181.24388,71,75,0
181.24388,181.33911,72,75,0
181.32721,181.42245,71,75,0
181.42245,181.51768,72,75,0
181.50578,181.60103,71,75,0
181.60103,181.69626,72,75,0
181.68436,181.77959,71,75,0
181.77959,181.87483,72,75,0
181.86293,181.95816,71,75,0
181.95816,182.0534,72,75,0
182.0415,182.13673,71,75,0
182.13673,182.23198,72,75,0
182.22006,182.3153,71,75,0
182.3153,182.41054,69,75,0
182.39864,182.49388,71,75,0
182.49388,182.85101,71,75,0
182.85101,183.20816,72,75,0
183.20816,183.5653,73,88,0
183.5653,183.92245,74,88,0
183.92245,184.27959,75,101,0
184.27959,184.63673,76,101,0
184.63673,184.87483,79,88,0
184.87483,185.11293,77,62,0
185.10101,185.11293,77,62,0
185.35101,185.39864,77,75,0
185.58911,185.63673,77,75,0
185.8153,185.86293,77,75,0
186.0653,186.11293,77,88,0
186.3034,186.35101,77,88,0
186.52959,186.57721,77,88,0
186.77959,187.01768,77,88,0
187.01768,187.25578,78,62,0
187.24388,187.48198,79,62,0
187.49388,187.73196,80,62,0
187.73196,187.97006,79,62,0
187.95816,188.19626,80,62,0
188.20816,188.44626,82,75,0
188.44626,188.68436,79,75,0
188.67245,188.91054,80,75,0
188.92245,189.16054,82,75,0
189.16054,189.39864,79,75,0
189.38673,189.62483,80,75,0
189.63673,189.87483,82,88,0
189.87483,190.11293,79,88,0
190.10101,190.33911,80,88,0
190.35101,190.58911,82,88,0
190.58911,190.82721,79,88,0
190.8153,191.0534,80,88,0
191.0653,191.3034,42,88,0
191.3034,191.54149,43,88,0
191.52959,191.76768,44,88,0
191.77959,192.01768,45,88,0
192.01768,192.25578,44,88,0
192.24388,192.48196,45,88,0
192.49388,192.73196,47,101,0
192.73196,192.97006,44,101,0
192.95816,193.19626,45,101,0
193.20816,193.44626,47,101,0
193.44626,193.68436,44,101,0
193.67244,193.91054,45,101,0
193.92244,194.16054,47,101,0
194.16054,194.39864,44,101,0
194.38673,194.62483,45,101,0
194.63673,194.87483,47,101,0
194.87483,195.11292,44,101,0
195.10101,195.33911,45,101,0
195.35101,195.58911,47,127,0
195.58911,195.82721,44,101,0
195.8153,196.05339,47,101,0
196.0653,196.30339,50,127,0
196.30339,196.54149,48,101,0
196.52959,196.76768,49,101,0
196.77959,197.01768,56,127,0
197.01768,197.25578,53,101,0
197.24387,197.48196,54,101,0
197.49387,197.73196,59,127,0
197.73196,197.97006,56,101,0
197.95816,198.19626,57,101,0
198.20816,198.44626,62,127,0
198.44626,198.68436,60,101,0
198.67244,198.91054,61,101,0
198.92244,199.16054,68,127,0
199.16054,199.39864,65,101,0
199.38673,199.62483,66,101,0
199.63673,201.77959,56,101,0
199.63673,201.77959,44,101,0
199.63673,201.77959,49,101,0
199.63673,201.77959,52,101,0
201.77959,201.95816,56,101,0
201.95816,202.13673,54,101,0
202.13673,202.3153,52,101,0
202.3153,202.49387,51,101,0
202.49387,202.67244,49,101,0
202.67244,202.85101,47,101,0
202.85101,203.02959,45,101,0
203.02959,203.20816,44,101,0
203.20816,203.32721,42,101,0
203.3153,203.43434,40,101,0
203.44626,203.5653,39,101,0
203.5653,203.68434,37,101,0
203.67244,203.79149,35,101,0
203.80339,203.92244,33,101,0
203.92244,204.10101,32,101,0
204.10101,204.27959,31,101,0
204.27959,204.45816,32,101,0
204.45816,204.63673,31,101,0
204.63673,204.81529,32,101,0
204.81529,204.99387,31,101,0
204.99387,205.17244,32,101,0
205.17244,205.35101,31,101,0
205.35101,205.52959,32,101,0
205.52959,205.70816,31,101,0
205.70816,205.88673,32,101,0
205.88673,206.06529,31,101,0
206.06529,206.24387,32,101,0
206.24387,206.42244,31,101,0
206.42244,206.60101,32,101,0
206.60101,206.77959,31,101,0
206.77959,206.95816,32,101,0
206.95816,207.13673,31,101,0
207.13673,207.31529,32,101,0
207.31529,207.49387,31,101,0
207.49387,207.67244,32,101,0
207.67244,207.85101,31,101,0
207.85101,208.02959,32,101,0
208.02959,208.20816,31,101,0
208.20816,208.38673,32,75,0
208.38673,208.56529,33,75,0
208.56529,208.74387,32,75,0
208.74387,208.92244,33,75,0
208.92244,209.10101,32,75,0
209.10101,209.27959,33,75,0
209.27959,209.45816,32,75,0
209.45816,209.63673,33,75,0
209.63673,209.81529,32,75,0
209.81529,209.99387,33,75,0
209.99387,210.17244,32,75,0
210.17244,210.35101,33,75,0
210.35101,210.52959,33,88,0
210.52959,210.70816,34,88,0
210.70816,210.88673,33,88,0
210.88673,211.06529,34,88,0
211.06529,211.24387,33,88,0
211.24387,211.42244,34,88,0
211.42244,211.60101,33,88,0
211.60101,211.77959,34,88,0
211.77959,211.95816,33,88,0
211.95816,212.13672,34,88,0
212.13672,212.31529,33,88,0
212.31529,212.49387,34,88,0
212.49387,212.67244,34,101,0
212.67244,212.85101,35,101,0
212.85101,213.02959,34,101,0
213.02959,213.20816,35,101,0
213.20816,213.38672,34,101,0
213.38672,213.56529,35,101,0
213.56529,213.74387,34,101,0
213.74387,213.92244,35,101,0
213.92244,214.10101,34,101,0
214.10101,214.27959,35,101,0
214.27959,214.45816,34,101,0
214.45816,214.63672,35,101,0
214.63672,214.81529,36,88,0
214.81529,214.99387,37,88,0
214.99387,215.17244,38,88,0
215.17244,215.35101,39,88,0
215.35101,215.52959,40,101,0
215.52959,215.70816,41,101,0
215.70816,215.88672,42,101,0
215.88672,216.06529,43,101,0
216.06529,216.24387,44,114,0
216.24387,216.42244,45,114,0
216.42244,216.60101,46,114,0
216.60101,216.77959,47,114,0
216.77959,216.95816,48,114,0
216.95816,217.13672,47,114,0
217.13672,217.31529,46,114,0
217.31529,217.49387,45,114,0
217.49387,217.67244,44,101,0
217.67244,217.85101,43,101,0
217.85101,218.02959,42,101,0
218.02959,218.20816,41,101,0
218.20816,218.38672,40,88,0
218.38672,218.56529,39,88,0
218.56529,218.74387,38,88,0
218.74387,218.92244,36,88,0
218.92244,219.04149,37,36,0
219.02959,219.14864,49,36,0
219.16054,219.27959,37,36,0
219.27959,219.39864,49,36,0
219.38672,219.50577,37,36,0
219.51767,219.63672,49,36,0
219.63672,219.75577,37,49,0
219.74387,219.86292,49,49,0
219.87482,219.99387,37,49,0
219.99387,220.11292,49,49,0
220.10101,220.22006,37,49,0
220.23196,220.35101,49,49,0
220.35101,220.47006,37,62,0
220.45815,220.5772,49,62,0
220.58911,220.70815,37,62,0
220.70815,220.8272,49,62,0
220.81529,220.93434,37,62,0
220.94624,221.06529,49,62,0
221.06529,221.18434,37,62,0
221.17244,221.29149,49,62,0
221.30339,221.42244,37,62,0
221.42244,221.54149,49,62,0
221.52959,221.64862,37,62,0
221.66054,221.77959,49,62,0
221.77959,221.89862,37,62,0
221.88672,222.00577,49,62,0
222.01767,222.13672,37,62,0
222.13672,222.25577,49,62,0
222.24387,222.36292,37,62,0
222.37482,222.49387,49,62,0
222.49387,222.61292,37,62,0
222.60101,222.72006,49,62,0
222.73196,222.85101,37,62,0
222.85101,222.97006,49,62,0
222.95815,223.0772,37,62,0
223.08911,223.20815,49,62,0
223.20815,223.38672,37,75,0
223.38672,223.56529,49,75,0
223.56529,223.74387,37,75,0
223.74387,223.92244,49,75,0
223.92244,224.10101,37,75,0
224.10101,224.27959,49,75,0
224.27959,224.45815,37,75,0
224.45815,224.63672,49,75,0
224.63672,224.81529,37,75,0
224.81529,224.99387,49,75,0
224.99387,225.17244,37,75,0
225.17244,225.35101,49,75,0
225.35101,225.52959,37,88,0
225.52959,225.70815,49,88,0
225.70815,225.88672,37,88,0
225.88672,226.06529,49,88,0
226.06529,226.24387,37,88,0
226.24387,226.42244,49,88,0
226.42244,226.60101,37,88,0
226.60101,226.77957,49,88,0
226.77957,226.95815,37,88,0
226.95815,227.13672,49,88,0
227.13672,227.31529,37,88,0
227.31529,227.49387,49,88,0
227.49387,227.67244,37,101,0
227.67244,227.85101,49,101,0
227.85101,228.02957,39,101,0
228.02957,228.20815,51,101,0
228.20815,228.38672,40,101,0
228.38672,228.56529,52,101,0
228.56529,228.74387,42,101,0
228.74387,228.92244,54,101,0
228.92244,229.10101,44,101,0
229.10101,229.27957,56,101,0
229.27957,229.45815,39,101,0
229.45815,229.63672,51,101,0
229.63672,229.81529,40,114,0
229.81529,229.99387,52,114,0
229.99387,230.17244,42,114,0
230.17244,230.35101,54,114,0
230.35101,230.52957,44,114,0
230.52957,230.70815,56,114,0
230.70815,230.88672,48,114,0
230.88672,231.06529,60,114,0
231.06529,231.24387,49,114,0
231.24387,231.42244,61,114,0
231.42244,231.60101,51,114,0
231.60101,231.77957,63,114,0
231.77957,231.85101,64,127,0
231.77957,231.85101,52,115,0
231.77957,231.85101,56,119,0
231.77957,231.85101,61,123,0
236.06529,236.13672,52,127,0
236.06529,236.13672,40,115,0
236.06529,236.13672,44,119,0
236.06529,236.13672,49,123,0
241.24387,241.42242,57,49,0
241.42242,241.601,56,49,0
241.601,241.77957,55,49,0
241.77957,241.95815,54,62,0
241.95815,242.13672,53,62,0
242.13672,242.31529,52,62,0
242.31529,242.49387,51,62,0
242.49387,242.67242,50,75,0
242.67242,242.851,49,75,0
242.851,243.02957,48,75,0
243.02957,243.20815,47,75,0
243.20815,243.38672,46,88,0
243.38672,243.56529,45,88,0
243.56529,243.74387,44,88,0
243.74387,243.92242,43,88,0
243.92242,244.101,42,101,0
244.101,244.27957,41,101,0
244.27957,244.45815,40,101,0
244.45815,244.63672,39,101,0
244.63672,245.351,38,101,0
248.92242,248.99385,54,127,0
248.92242,248.99385,42,115,0
248.92242,248.99385,45,119,0
248.92242,248.99385,50,123,0
255.25577,255.41052,52,123,0
255.0772,255.41052,44,115,0
255.17242,255.42242,49,119,0
255.351,255.42242,56,127,0
259.54147,259.69623,78,123,0
259.3629,259.69623,72,115,0
259.45813,259.70813,75,119,0
259.63672,259.70813,81,127,0
263.92242,263.99387,56,127,0
263.92242,263.99387,44,115,0
263.92242,263.99387,49,119,0
263.92242,263.99387,52,123,0
268.20813,268.27957,81,127,0
268.20813,268.27957,72,115,0
268.20813,268.27957,75,119,0
268.20813,268.27957,78,123,0
272.49387,273.20813,56,49,0
272.49387,273.20813,44,49,0
272.49387,273.20813,49,49,0
272.49387,273.20813,53,49,0
276.77957,276.85098,84,75,0
276.66052,276.85098,78,70,0
276.54147,276.85098,75,65,0
278.82718,278.98193,56,71,0
278.64862,278.98193,44,63,0
278.74384,278.99384,51,67,0
278.92242,278.99384,60,62,0
285.35098,285.42242,37,36,0
287.49384,287.56528,34,36,0
289.6367,289.70813,37,36,0
291.77957,291.82718,44,36,0
293.92242,294.6367,37,36,0
296.06528,296.16052,33,62,0
296.14862,296.24384,35,62,0
296.24384,296.33908,33,62,0
296.32718,296.42242,35,62,0
296.42242,296.51764,33,62,0
296.50574,296.60098,35,62,0
296.60098,296.69623,33,62,0
296.68433,296.77957,35,62,0
296.77957,296.8748,33,62,0
296.86288,296.95813,35,62,0
296.95813,297.05338,33,62,0
297.04147,297.1367,35,62,0
297.1367,297.23193,33,62,0
297.22003,297.31528,35,62,0
297.31528,297.41052,33,62,0
297.39862,297.49384,35,62,0
297.49384,297.58908,33,62,0
297.57718,297.67242,35,62,0
297.67242,297.76764,33,62,0
297.75574,297.85098,35,62,0
297.85098,297.94623,33,62,0
297.93433,298.02957,35,62,0
298.02957,298.1248,33,62,0
298.11288,298.20813,35,62,0
298.20813,298.92242,37,62,0
299.81528,299.86288,39,62,0
299.99384,300.04147,41,62,0
300.17242,300.22003,42,62,0
300.35098,300.3986,44,62,0
302.49384,302.56528,37,62,0
304.6367,304.70813,35,62,0
306.77954,307.49384,33,62,0
309.0964,310.0055,32,62,0
312.19382,312.23465,42,36,0
312.49994,312.80606,57,36,0
312.80606,313.13217,61,36,0
313.13217,313.45825,57,36,0
313.45825,313.8154,61,36,0
313.8154,313.99396,49,36,0
314.17252,314.22015,41,36,0
314.52966,314.8868,56,36,0
314.8868,315.24396,61,36,0
315.24396,315.6011,56,36,0
315.6011,315.95825,61,36,0
315.95825,316.1368,49,36,0
316.3154,316.363,42,36,0
316.67252,317.02966,57,36,0
317.02966,317.3868,61,36,0
317.3868,317.74396,57,36,0
317.74396,318.1011,61,36,0
318.1011,318.27966,49,36,0
318.45825,318.50586,41,36,0
318.8154,319.17252,56,36,0
319.17252,319.52966,61,36,0
319.52966,319.8868,56,36,0
319.8868,320.24396,61,36,0
320.24396,320.42252,49,36,0
320.6011,320.6487,45,36,0
320.95825,321.3154,60,36,0
321.3154,321.67252,61,36,0
321.67252,322.02966,49,36,0
322.02966,322.3868,61,36,0
322.3868,322.5654,49,36,0
322.74396,322.79156,47,36,0
323.1011,323.45825,60,36,0
323.45825,323.81537,61,36,0
323.81537,324.17252,49,36,0
324.17252,324.52966,61,36,0
324.52966,324.70825,49,36,0
324.8868,324.93442,45,36,0
325.24396,325.29156,49,36,0
325.6011,325.6487,44,36,0
325.95825,326.00586,49,36,0
326.31537,326.363,42,36,0
326.67252,326.72015,49,36,0
327.02966,327.0773,37,36,0
327.3868,327.74396,56,36,0
327.74396,328.1011,61,36,0
328.1011,328.45825,53,36,0
328.45825,328.81537,61,36,0
328.81537,328.99396,49,36,0
329.17252,329.22015,42,36,0
329.52966,329.8868,57,36,0
329.8868,330.24396,61,36,0
330.24396,330.6011,57,36,0
330.6011,330.95825,61,36,0
330.95825,331.1368,49,36,0
331.31537,331.363,41,36,0
331.67252,332.02966,56,36,0
332.02966,332.3868,61,36,0
332.3868,332.74396,56,36,0
332.74396,333.1011,61,36,0
333.1011,333.27966,49,36,0
333.45825,333.50586,42,36,0
333.81537,334.17252,57,36,0
334.17252,334.52966,61,36,0
334.52966,334.8868,57,36,0
334.8868,335.24396,61,36,0
335.24396,335.42252,49,36,0
335.6011,335.6487,41,36,0
335.95825,336.31537,56,36,0
336.31537,336.67252,61,36,0
336.67252,337.02966,56,36,0
337.02966,337.3868,61,36,0
337.3868,337.56537,49,36,0
337.74396,338.1011,42,49,0
338.1011,338.45822,59,49,0
338.45822,338.81537,62,49,0
338.81537,339.17252,59,49,0
339.17252,339.52966,62,49,0
339.52966,339.70822,50,49,0
339.8868,339.93442,42,36,0
340.24396,340.6011,57,36,0
340.6011,340.95822,61,36,0
340.95822,341.31537,57,36,0
341.31537,341.67252,61,36,0
341.67252,341.8511,49,36,0
342.02966,342.3868,37,36,0
342.3868,342.74396,56,36,0
342.74396,343.1011,61,36,0
343.1011,343.45822,56,36,0
343.45822,343.81537,61,36,0
343.81537,343.99396,49,36,0
344.17252,344.22015,42,36,0
344.52966,344.8868,57,36,0
344.8868,345.24396,61,36,0
345.24396,345.6011,57,36,0
345.6011,345.95822,61,36,0
345.95822,346.1368,49,36,0
346.31537,346.67252,37,36,0
346.67252,347.02966,56,36,0
347.02966,347.3868,61,36,0
347.3868,347.74396,56,36,0
347.74396,348.1011,61,36,0
348.1011,348.27966,53,36,0
348.45822,348.81537,42,36,0
348.81537,349.17252,54,36,0
349.17252,349.52966,57,36,0
349.52966,349.8868,49,36,0
349.8868,350.24396,54,36,0
350.24396,350.42252,45,36,0
350.6011,350.67252,40,36,0
351.31537,352.02966,57,36,0
352.02966,352.74396,49,36,0
352.74396,352.81537,40,36,0
353.45822,354.17252,59,36,0
354.17252,354.8868,50,36,0
354.8868,355.60107,40,36,0
355.60107,356.31537,57,36,0
356.31537,357.02966,49,36,0
357.02966,357.74396,40,36,0
357.74396,358.45822,59,36,0
358.45822,359.17252,50,36,0
359.17252,359.8868,40,36,0
359.8868,360.60107,57,36,0
360.60107,361.31537,49,36,0
361.31537,362.02966,40,36,0
362.02966,362.74396,56,36,0
362.74396,363.45822,47,36,0
363.45822,363.52966,40,36,0
364.17252,364.24396,49,36,0
364.17252,364.24396,41,36,0
364.8868,364.95822,49,36,0
364.8868,364.95822,42,36,0
365.60107,365.67252,37,36,0
366.31537,367.02966,61,36,0
367.02966,367.74393,49,36,0
367.74393,367.81537,42,75,0
368.45822,369.17252,62,62,0
369.17252,369.8868,50,49,0
369.8868,369.95822,42,75,0
370.60107,371.31537,61,62,0
371.31537,372.02966,49,49,0
372.02966,372.10107,37,101,0
372.74393,373.45822,61,101,0
373.45822,374.17252,49,101,0
374.17252,374.22012,54,114,0
374.4106,374.45822,50,114,0
374.6368,374.68442,49,114,0
374.8868,374.93442,47,101,0
375.12488,375.17252,45,101,0
375.35107,375.3987,44,101,0
375.60107,375.6487,42,88,0
375.83917,375.8868,37,88,0
376.06537,376.11298,33,88,0
376.31537,376.3868,30,36,0
377.02966,378.45822,61,36,0
377.02966,378.45822,49,36,0
378.45822,378.52966,40,36,0
379.17252,380.60107,61,36,0
379.17252,380.60107,49,36,0
380.60107,380.67252,38,36,0
381.31537,382.02966,62,36,0
381.31537,382.02966,50,36,0
382.02966,382.74393,57,36,0
382.02966,382.74393,45,36,0
382.74393,382.81537,37,36,0
383.45822,384.17252,57,36,0
383.45822,384.17252,45,36,0
384.17252,384.88678,36,36,0
384.88678,385.60107,35,36,0
385.60107,387.02966,50,36,0
385.60107,387.02966,38,36,0
387.02966,387.74393,33,36,0
387.74393,389.17252,49,36,0
387.74393,389.17252,37,36,0
389.17252,389.88678,32,36,0
389.88678,390.60107,49,36,0
389.88678,390.60107,37,36,0
390.60107,391.31537,31,36,0
391.31537,392.02966,30,36,0
391.75583,392.02966,30,36,0
392.02966,392.74393,42,36,0
391.93442,392.74393,37,36,0
391.85107,392.74393,33,36,0
393.45822,394.17252,42,36,0
393.18442,394.17252,30,36,0
393.27966,394.17252,35,36,0
393.36298,394.17252,38,36,0
394.88678,395.60107,42,36,0
394.61298,395.60107,30,36,0
394.70822,395.60107,35,36,0
394.79156,395.60107,38,36,0
396.31537,397.0846,42,36,0
396.04156,397.0846,30,36,0
396.13678,397.0846,33,36,0
396.22012,397.0846,37,36,0
397.91794,398.82703,42,36,0
397.59848,398.82703,30,36,0
397.7096,398.82703,32,36,0
397.80682,398.82703,35,36,0
399.8615,401.01535,42,36,0
399.72357,401.01535,35,36,0
399.46494,401.01535,30,36,0
400.63074,401.01535,30,36,0
399.60287,401.01535,32,36,0
401.01535,405.6947,42,36,0
400.82303,405.6947,33,36,0
405.6947,411.3197,30,36,0
411.3197,416.9447,30,36,0
