start_time,end_time,note_value,velocity,instrument_program_number
0.30303,0.333333,88,75,0
0.2777775,0.333333,85,85,0
0.252525,0.333333,81,80,0
0.60606,0.636363,76,49,0
0.60606,0.636363,73,49,0
0.60606,0.636363,69,49,0
1.51515,1.666665,71,49,0
1.51515,1.666665,68,49,0
1.666665,1.81818,76,49,0
1.81818,1.969695,73,49,0
1.81818,1.969695,69,49,0
1.969695,2.12121,76,49,0
2.12121,2.151513,88,75,0
2.0959575,2.151513,86,70,0
2.070705,2.151513,83,65,0
2.42424,2.454543,76,49,0
2.42424,2.454543,74,49,0
2.42424,2.454543,71,49,0
3.33333,3.484845,73,49,0
3.33333,3.484845,69,49,0
3.484845,3.63636,76,49,0
3.63636,3.787875,74,49,0
3.63636,3.787875,71,49,0
3.787875,3.93939,76,49,0
3.93939,3.969693,93,75,0
3.9141376,3.969693,88,70,0
3.888885,3.969693,85,65,0
4.24242,4.272723,81,49,0
4.24242,4.272723,76,49,0
4.24242,4.272723,73,49,0
5.15151,5.45454,79,49,0
5.15151,5.45454,74,49,0
5.15151,5.45454,71,49,0
5.45454,5.484843,91,75,0
5.45454,5.484843,86,70,0
5.45454,5.484843,83,65,0
5.7196913,5.75757,91,49,0
5.75757,5.909085,90,49,0
5.909085,6.0606,89,49,0
6.0606,6.212115,90,49,0
6.212115,6.36363,95,49,0
6.36363,6.515145,88,49,0
6.515145,6.66666,94,49,0
6.66666,6.818175,95,49,0
6.818175,6.96969,90,49,0
6.96969,7.121205,86,49,0
7.121205,7.27272,83,49,0
7.27272,7.424235,74,49,0
7.57575,7.606053,91,75,0
7.5504975,7.606053,86,70,0
7.525245,7.606053,83,65,0
7.87878,7.909083,79,49,0
7.87878,7.909083,74,49,0
7.87878,7.909083,71,49,0
8.78787,8.818173,77,49,0
8.78787,8.818173,72,49,0
8.78787,8.818173,69,49,0
9.0909,9.121203,89,75,0
9.0909,9.121203,84,70,0
9.0909,9.121203,81,65,0
9.356051,9.39393,89,49,0
9.39393,9.545445,88,49,0
9.545445,9.69696,87,49,0
9.69696,9.848475,88,49,0
9.848475,9.99999,87,49,0
9.99999,10.151505,88,49,0
10.151505,10.30302,90,49,0
10.30302,10.454535,90,75,0
10.454535,10.60605,88,49,0
10.60605,10.757565,85,49,0
10.757565,10.90908,81,49,0
10.90908,11.060595,76,49,0
11.21211,11.227262,76,49,0
11.21211,11.227262,74,49,0
11.363625,11.378777,76,49,0
11.363625,11.378777,74,49,0
11.51514,11.530292,76,49,0
11.51514,11.530292,74,49,0
11.666655,11.681807,76,49,0
11.666655,11.681807,74,49,0
11.81817,11.833322,76,49,0
11.81817,11.833322,74,49,0
11.969685,11.984837,76,49,0
11.969685,11.984837,74,49,0
12.1212,12.272715,78,75,0
12.1212,12.272715,73,67,0
12.272715,12.42423,76,49,0
12.42423,12.575745,73,49,0
12.575745,12.72726,69,49,0
12.72726,12.878775,64,49,0
13.03029,13.181805,64,49,0
13.181805,13.33332,66,49,0
13.33332,13.484835,62,49,0
13.484835,13.63635,66,49,0
13.63635,13.93938,68,49,0
13.93938,14.24241,69,49,0
14.84847,14.878773,88,75,0
14.823217,14.878773,85,70,0
14.797965,14.878773,81,65,0
15.1515,15.181803,76,49,0
15.1515,15.181803,73,49,0
15.1515,15.181803,69,49,0
16.06059,16.212105,71,49,0
16.06059,16.212105,68,49,0
16.212105,16.36362,76,49,0
16.36362,16.515135,73,49,0
16.36362,16.515135,69,49,0
16.515135,16.66665,76,49,0
16.66665,16.696953,88,75,0
16.641397,16.696953,86,70,0
16.616144,16.696953,83,65,0
16.96968,16.999983,76,49,0
16.96968,16.999983,74,49,0
16.96968,16.999983,71,49,0
17.87877,18.030285,73,49,0
17.87877,18.030285,69,49,0
18.030285,18.1818,76,49,0
18.1818,18.333315,74,49,0
18.1818,18.333315,71,49,0
18.333315,18.48483,76,49,0
18.48483,18.515133,93,75,0
18.459578,18.515133,88,70,0
18.434324,18.515133,85,65,0
18.78786,18.818163,81,49,0
18.78786,18.818163,76,49,0
18.78786,18.818163,73,49,0
19.69695,19.99998,79,49,0
19.69695,19.99998,74,49,0
19.69695,19.99998,71,49,0
19.99998,20.030283,91,75,0
19.99998,20.030283,86,70,0
19.99998,20.030283,83,65,0
20.265131,20.30301,91,49,0
20.30301,20.454525,90,49,0
20.454525,20.60604,89,49,0
20.60604,20.757555,90,49,0
20.757555,20.90907,95,49,0
20.90907,21.060585,88,49,0
21.060585,21.2121,94,49,0
21.2121,21.363615,95,49,0
21.363615,21.51513,90,49,0
21.51513,21.666645,86,49,0
21.666645,21.81816,83,49,0
21.81816,21.969675,74,49,0
22.12119,22.151493,91,75,0
22.095938,22.151493,86,70,0
22.070684,22.151493,83,65,0
22.42422,22.454523,79,49,0
22.42422,22.454523,74,49,0
22.42422,22.454523,71,49,0
23.33331,23.363613,77,49,0
23.33331,23.363613,72,49,0
23.33331,23.363613,69,49,0
23.63634,23.666643,89,75,0
23.63634,23.666643,84,70,0
23.63634,23.666643,81,65,0
23.901491,23.93937,89,49,0
23.93937,24.090885,88,49,0
24.090885,24.2424,87,49,0
24.2424,24.393915,88,49,0
24.393915,24.54543,87,49,0
24.54543,24.696945,88,49,0
24.696945,24.84846,90,49,0
24.84846,24.999975,90,75,0
24.999975,25.15149,88,49,0
25.15149,25.303005,85,49,0
25.303005,25.45452,81,49,0
25.45452,25.606035,76,49,0
25.75755,25.772701,76,49,0
25.75755,25.772701,74,49,0
25.909065,25.924217,76,49,0
25.909065,25.924217,74,49,0
26.06058,26.075731,76,49,0
26.06058,26.075731,74,49,0
26.212095,26.227247,76,49,0
26.212095,26.227247,74,49,0
26.36361,26.378761,76,49,0
26.36361,26.378761,74,49,0
26.515125,26.530277,76,49,0
26.515125,26.530277,74,49,0
26.66664,26.818155,78,75,0
26.66664,26.818155,73,67,0
26.818155,26.96967,76,49,0
26.96967,27.121185,73,49,0
27.121185,27.2727,69,49,0
27.2727,27.424215,64,49,0
27.57573,27.727245,64,49,0
27.727245,27.87876,66,49,0
27.87876,28.030275,62,49,0
28.030275,28.18179,66,49,0
28.18179,28.48482,68,49,0
28.48482,28.78785,69,49,0
29.356031,29.39391,53,49,0
29.39391,29.545425,52,88,0
29.545425,29.69694,51,88,0
29.69694,29.848455,52,88,0
29.848455,29.99997,51,88,0
29.99997,30.151485,52,88,0
30.151485,30.303,53,88,0
30.303,30.454515,53,88,0
30.454515,30.60603,52,88,0
30.60603,30.757545,48,88,0
30.757545,30.90906,55,88,0
30.90906,31.21209,64,114,0
30.90906,31.21209,60,106,0
31.21209,31.363605,64,88,0
31.363605,31.51512,62,88,0
31.51512,31.666636,59,88,0
31.666636,31.81815,55,88,0
31.81815,32.12118,67,114,0
31.81815,32.12118,59,106,0
32.12118,32.272694,65,88,0
32.272694,32.42421,64,88,0
32.42421,32.575726,67,88,0
32.575726,32.72724,65,88,0
32.72724,32.878754,69,88,0
32.878754,33.03027,67,88,0
33.90148,33.93936,67,49,0
33.03027,33.93936,62,88,0
33.03027,33.93936,59,88,0
33.93936,34.090874,65,49,0
34.090874,34.24239,64,49,0
34.24239,34.393906,65,49,0
34.393906,34.54542,64,49,0
34.54542,34.696934,65,49,0
34.696934,34.84845,69,49,0
34.84845,34.999966,69,49,0
34.999966,35.15148,67,49,0
35.15148,35.302994,64,49,0
35.302994,35.45451,60,49,0
35.45451,35.606026,64,49,0
35.606026,35.75754,76,49,0
35.75754,35.909054,76,49,0
35.909054,35.924206,74,49,0
36.06057,36.212086,72,49,0
36.212086,36.227238,71,49,0
36.3636,36.515114,69,49,0
36.515114,36.530266,67,49,0
36.66663,36.818146,69,49,0
36.818146,36.96966,67,49,0
36.96966,37.121174,64,49,0
37.121174,37.27269,60,49,0
37.27269,37.424206,55,49,0
37.53784,37.57572,79,49,0
37.57572,37.727234,77,49,0
37.727234,37.87875,76,49,0
37.87875,38.030266,77,49,0
38.030266,38.18178,76,49,0
38.18178,38.333294,77,49,0
38.333294,38.48481,81,49,0
38.48481,38.636326,81,49,0
38.636326,38.78784,79,49,0
38.78784,38.939354,76,49,0
38.939354,39.09087,72,49,0
39.09087,39.242386,76,49,0
39.242386,39.3939,88,49,0
39.3939,39.545414,88,49,0
39.545414,39.560566,86,49,0
39.69693,39.848446,84,49,0
39.848446,39.863598,83,49,0
39.99996,40.151474,81,49,0
40.151474,40.166626,79,49,0
40.30299,40.454506,81,49,0
40.454506,40.60602,79,49,0
40.60602,40.757534,76,49,0
40.757534,40.90905,72,49,0
40.90905,41.060566,76,49,0
41.060566,41.21208,88,49,0
41.21208,41.363594,88,49,0
41.363594,41.378746,86,49,0
41.51511,41.666626,84,49,0
41.666626,41.681778,83,49,0
41.81814,41.969654,81,49,0
41.969654,41.984806,79,49,0
42.12117,42.272686,81,49,0
42.272686,42.4242,79,49,0
42.4242,42.575714,76,49,0
42.575714,42.72723,72,49,0
42.72723,42.878746,67,49,0
43.03026,43.181774,81,49,0
43.181774,43.33329,79,49,0
43.33329,43.484806,76,49,0
43.484806,43.63632,72,49,0
43.63632,43.787834,67,49,0
43.93935,44.090866,81,36,0
44.090866,44.24238,79,36,0
44.24238,44.393894,76,36,0
44.393894,44.54541,72,36,0
44.54541,44.696926,67,36,0
44.84844,44.9242,93,101,0
44.9242,44.999954,92,101,0
44.999954,45.075714,90,101,0
45.075714,45.15147,88,101,0
45.15147,45.227226,87,88,0
45.227226,45.302986,85,88,0
45.302986,45.378742,83,88,0
45.378742,45.4545,81,88,0
45.4545,45.53026,80,75,0
45.53026,45.606014,78,75,0
45.606014,45.681774,76,75,0
45.681774,45.75753,75,75,0
45.75753,45.833286,73,75,0
45.833286,45.909046,71,75,0
45.909046,45.984802,69,75,0
45.984802,46.06056,68,75,0
46.06056,46.16157,66,75,0
46.159046,46.260056,64,75,0
46.26258,46.36359,63,75,0
46.36359,46.4646,61,75,0
46.462074,46.563084,59,75,0
46.56561,46.66662,57,75,0
46.66662,46.818134,56,75,0
46.96965,46.984802,68,114,0
46.96965,46.984802,63,114,0
46.96965,46.984802,60,114,0
48.446922,48.4848,75,49,0
48.4848,48.636314,73,49,0
48.636314,48.78783,72,49,0
48.78783,48.939346,73,49,0
48.939346,49.09086,76,49,0
49.09086,49.242374,73,49,0
50.265102,50.30298,75,75,0
49.39389,50.30298,78,75,0
50.30298,50.454494,73,75,0
50.454494,50.60601,72,75,0
50.60601,50.757526,73,75,0
50.757526,50.90904,76,75,0
50.90904,51.060555,73,75,0
51.21207,52.12116,81,101,0
52.12116,52.272675,81,36,0
52.272675,52.287827,80,36,0
52.42419,52.575706,78,36,0
52.575706,52.590855,76,36,0
52.72722,52.878735,75,36,0
52.878735,52.893887,73,36,0
53.03025,53.33328,73,36,0
53.33328,53.63631,76,36,0
53.901463,53.93934,63,49,0
53.63631,53.93934,75,36,0
53.63631,53.93934,72,36,0
53.93934,54.090855,61,49,0
54.090855,54.24237,60,49,0
54.24237,54.393887,61,49,0
54.393887,54.5454,64,49,0
54.5454,54.696915,61,49,0
55.719643,55.75752,63,75,0
54.84843,55.75752,66,75,0
55.75752,55.909035,61,75,0
55.909035,56.06055,60,75,0
56.06055,56.212067,61,75,0
56.212067,56.36358,64,75,0
56.36358,56.515095,61,75,0
56.66661,57.5757,69,101,0
57.5757,57.727215,69,36,0
57.727215,57.87873,68,36,0
57.87873,58.030247,66,36,0
58.030247,58.18176,64,36,0
58.18176,58.333275,62,36,0
58.333275,58.48479,61,36,0
58.48479,58.939335,61,36,0
58.939335,59.09085,62,36,0
59.09085,59.242367,59,36,0
59.39388,59.424183,88,75,0
59.368626,59.424183,85,57,0
59.343376,59.424183,81,52,0
59.69691,59.727215,76,49,0
59.69691,59.727215,73,49,0
59.69691,59.727215,69,49,0
60.606,60.757515,71,49,0
60.606,60.757515,68,49,0
60.757515,60.90903,76,49,0
60.90903,61.060547,73,49,0
60.90903,61.060547,69,49,0
61.060547,61.21206,76,49,0
61.21206,61.242363,88,75,0
61.186806,61.242363,86,70,0
61.161556,61.242363,83,65,0
61.51509,61.545395,76,49,0
61.51509,61.545395,74,49,0
61.51509,61.545395,71,49,0
62.42418,62.575695,73,49,0
62.42418,62.575695,69,49,0
62.575695,62.72721,76,49,0
62.72721,62.878723,74,49,0
62.72721,62.878723,71,49,0
62.878723,63.03024,76,49,0
63.03024,63.060543,93,75,0
63.004986,63.060543,88,70,0
62.979736,63.060543,85,65,0
63.33327,63.36357,81,49,0
63.33327,63.36357,76,49,0
63.33327,63.36357,73,49,0
64.24236,64.54539,79,49,0
64.24236,64.54539,74,49,0
64.24236,64.54539,71,49,0
64.54539,64.57569,91,75,0
64.54539,64.57569,86,70,0
64.54539,64.57569,83,65,0
64.81054,64.84842,91,49,0
64.84842,64.99993,90,49,0
64.99993,65.15145,89,49,0
65.15145,65.30296,90,49,0
65.15145,65.30296,80,49,0
65.30296,65.45448,93,49,0
65.45448,65.605995,88,49,0
65.605995,65.75751,93,49,0
65.75751,65.90903,90,49,0
65.90903,66.06054,86,49,0
66.06054,66.21205,81,49,0
66.21205,66.36357,78,49,0
66.36357,66.51508,74,49,0
66.6666,66.6969,91,75,0
66.64135,66.6969,86,70,0
66.6161,66.6969,83,65,0
66.96963,66.99993,79,49,0
66.96963,66.99993,74,49,0
66.96963,66.99993,71,49,0
67.87872,67.90902,77,49,0
67.87872,67.90902,72,49,0
67.87872,67.90902,69,49,0
68.18175,68.21205,89,75,0
68.156494,68.21205,84,70,0
68.13125,68.21205,81,65,0
68.4469,68.48478,89,49,0
68.48478,68.63629,88,49,0
68.63629,68.78781,87,49,0
68.78781,68.93932,88,49,0
68.93932,69.09084,91,49,0
69.09084,69.242355,86,49,0
69.242355,69.39387,91,49,0
69.39387,69.54539,88,49,0
69.54539,69.6969,84,49,0
69.6969,69.84841,79,49,0
69.84841,69.99993,76,49,0
69.99993,70.15144,72,49,0
70.26508,70.30296,93,49,0
70.30296,70.454475,91,49,0
70.454475,70.60599,90,49,0
70.60599,70.75751,91,49,0
70.75751,70.90902,90,49,0
70.90902,71.06053,91,49,0
71.06053,71.21205,93,49,0
71.21205,71.36356,93,75,0
71.36356,71.51508,91,75,0
71.51508,71.666595,88,75,0
71.666595,71.81811,84,75,0
71.81811,71.96963,79,75,0
72.12114,72.13629,79,75,0
72.12114,72.13629,77,75,0
72.27265,72.2878,79,75,0
72.27265,72.2878,77,75,0
72.42417,72.43932,79,75,0
72.42417,72.43932,77,75,0
72.57568,72.590836,79,75,0
72.57568,72.590836,77,75,0
72.7272,72.74235,79,75,0
72.7272,72.74235,77,75,0
72.878716,72.89387,79,75,0
72.878716,72.89387,77,75,0
73.03023,73.18175,81,75,0
73.03023,73.18175,76,75,0
73.18175,73.33326,79,75,0
73.33326,73.48477,76,75,0
73.48477,73.63629,72,75,0
73.63629,73.7878,67,75,0
73.90144,73.93932,90,49,0
73.93932,74.090836,88,49,0
74.090836,74.24235,87,49,0
74.24235,74.39387,88,49,0
74.39387,74.54538,87,49,0
74.54538,74.69689,88,49,0
74.69689,74.84841,90,49,0
74.84841,74.99992,90,75,0
74.99992,75.15144,88,49,0
75.15144,75.302956,85,49,0
75.302956,75.45447,81,49,0
75.45447,75.60599,76,49,0
75.7575,75.77265,76,49,0
75.7575,75.77265,74,49,0
75.90901,75.924164,76,49,0
75.90901,75.924164,74,49,0
76.06053,76.07568,76,49,0
76.06053,76.07568,74,49,0
76.21204,76.227196,76,49,0
76.21204,76.227196,74,49,0
76.36356,76.37871,76,49,0
76.36356,76.37871,74,49,0
76.515076,76.53023,76,49,0
76.515076,76.53023,74,49,0
76.66659,76.81811,78,75,0
76.66659,76.81811,73,67,0
76.81811,76.96962,76,49,0
76.96962,77.12113,73,49,0
77.12113,77.27265,69,49,0
77.27265,77.424164,64,49,0
77.55548,77.603455,85,71,0
77.5176,77.603455,79,63,0
77.5378,77.60598,81,67,0
77.57568,77.60598,88,114,0
77.87871,77.90901,76,88,0
77.87871,77.90901,67,88,0
77.87871,77.90901,69,88,0
77.87871,77.90901,73,88,0
78.7878,78.8181,90,88,0
78.7878,78.8181,78,88,0
78.7878,78.8181,81,88,0
78.7878,78.8181,86,88,0
79.070625,79.11861,90,110,0
79.03275,79.11861,81,102,0
79.05295,79.12113,86,106,0
79.09083,79.12113,93,114,0
79.39386,79.46962,100,49,0
79.46962,79.54537,97,49,0
79.54537,79.62113,93,49,0
79.69689,79.772644,97,49,0
79.772644,79.848404,93,49,0
79.848404,79.924164,88,49,0
79.99992,80.075676,93,49,0
80.075676,80.151436,88,49,0
80.151436,80.227196,85,49,0
80.30295,80.37871,88,49,0
80.37871,80.45447,86,49,0
80.45447,80.53022,83,49,0
80.60598,80.68174,86,49,0
80.68174,80.75749,83,49,0
80.75749,80.83325,80,49,0
80.90901,80.984764,83,49,0
80.984764,81.060524,80,49,0
81.060524,81.136284,76,49,0
81.19184,81.239815,73,71,0
81.15396,81.239815,67,63,0
81.174164,81.24234,69,67,0
81.21204,81.24234,76,114,0
81.51507,81.54537,64,88,0
81.51507,81.54537,55,88,0
81.51507,81.54537,57,88,0
81.51507,81.54537,61,88,0
82.42416,82.45446,66,88,0
82.42416,82.45446,54,88,0
82.42416,82.45446,57,88,0
82.42416,82.45446,62,88,0
82.706985,82.75497,78,110,0
82.669106,82.75497,69,102,0
82.68931,82.75749,74,106,0
82.72719,82.75749,81,114,0
83.03022,83.10598,88,49,0
83.10598,83.18173,85,49,0
83.18173,83.25749,81,49,0
83.33325,83.409004,85,49,0
83.409004,83.484764,81,49,0
83.484764,83.560524,76,49,0
83.63628,83.712036,81,49,0
83.712036,83.787796,76,49,0
83.787796,83.863556,73,49,0
83.93931,84.01507,76,49,0
84.01507,84.09083,74,49,0
84.09083,84.16658,71,49,0
84.24234,84.3181,74,49,0
84.3181,84.39385,71,49,0
84.39385,84.46961,68,49,0
84.54537,84.621124,71,49,0
84.621124,84.696884,68,49,0
84.696884,84.772644,64,49,0
84.8484,84.92416,69,88,0
84.92416,84.999916,64,88,0
84.999916,85.075676,61,88,0
85.15143,85.22719,64,88,0
85.22719,85.30295,61,88,0
85.30295,85.3787,57,88,0
85.45446,85.53022,57,88,0
85.53022,85.60597,52,88,0
85.60597,85.68173,49,88,0
85.75749,85.787796,45,114,0
86.6287,86.66658,53,88,0
86.66658,86.81809,52,88,0
86.81809,86.96961,51,88,0
86.96961,87.121124,52,88,0
87.121124,87.27264,51,88,0
87.27264,87.42416,52,88,0
87.42416,87.57567,53,88,0
87.57567,87.72719,53,88,0
87.72719,87.8787,52,88,0
87.8787,88.03021,48,88,0
88.03021,88.18173,55,88,0
88.18173,88.48476,64,114,0
88.18173,88.48476,60,106,0
88.48476,88.63628,64,88,0
88.63628,88.78779,62,88,0
88.78779,88.93931,59,88,0
88.93931,89.09082,55,88,0
89.09082,89.39385,67,114,0
89.09082,89.39385,59,106,0
89.39385,89.545364,65,88,0
89.545364,89.69688,64,88,0
89.69688,89.8484,67,88,0
89.8484,89.99991,65,88,0
89.99991,90.15143,69,88,0
90.15143,90.30294,67,88,0
91.17415,91.21203,67,49,0
90.30294,91.21203,62,88,0
90.30294,91.21203,59,88,0
91.21203,91.36355,65,49,0
91.36355,91.51506,64,49,0
91.51506,91.66657,65,49,0
91.66657,91.81809,64,49,0
91.81809,91.969604,65,49,0
91.969604,92.12112,69,49,0
92.12112,92.27264,69,49,0
92.27264,92.42415,67,49,0
92.42415,92.57567,64,49,0
92.57567,92.72718,60,49,0
92.72718,92.87869,64,49,0
92.87869,93.03021,76,49,0
93.03021,93.181725,76,49,0
93.181725,93.19688,74,49,0
93.33324,93.48476,72,49,0
93.48476,93.49991,71,49,0
93.63627,93.78779,69,49,0
93.78779,93.80293,67,49,0
93.9393,94.09081,69,49,0
94.09081,94.24233,67,49,0
94.24233,94.393845,64,49,0
94.393845,94.54536,60,49,0
94.54536,94.69688,55,49,0
94.81051,94.84839,79,49,0
94.84839,94.99991,77,49,0
94.99991,95.15142,76,49,0
95.15142,95.30293,77,49,0
95.30293,95.45445,76,49,0
95.45445,95.605965,77,49,0
95.605965,95.75748,81,49,0
95.75748,95.909,81,49,0
95.909,96.06051,79,49,0
96.06051,96.21203,76,49,0
96.21203,96.36354,72,49,0
96.36354,96.51505,76,49,0
96.51505,96.66657,88,49,0
96.66657,96.818085,88,49,0
96.818085,96.83324,86,49,0
96.9696,97.12112,84,49,0
97.12112,97.13627,83,49,0
97.27263,97.42415,81,49,0
97.42415,97.43929,79,49,0
97.57566,97.72717,81,49,0
97.72717,97.87869,79,49,0
97.87869,98.030205,76,49,0
98.030205,98.18172,72,49,0
98.18172,98.33324,76,49,0
98.33324,98.48475,88,49,0
98.48475,98.63627,88,49,0
98.63627,98.65141,86,49,0
98.78778,98.93929,84,49,0
98.93929,98.954445,83,49,0
99.09081,99.242325,81,49,0
99.242325,99.25748,79,49,0
99.39384,99.54536,81,49,0
99.54536,99.69687,79,49,0
99.69687,99.84839,76,49,0
99.84839,99.9999,72,49,0
99.9999,100.15141,67,49,0
100.30293,100.454445,81,49,0
100.454445,100.60596,79,49,0
100.60596,100.75748,76,49,0
100.75748,100.90899,72,49,0
100.90899,101.06051,67,49,0
101.21202,101.36353,81,36,0
101.36353,101.51505,79,36,0
101.51505,101.666565,76,36,0
101.666565,101.81808,72,36,0
101.81808,101.9696,67,36,0
102.12111,102.19687,93,101,0
102.19687,102.27263,92,101,0
102.27263,102.34838,90,101,0
102.34838,102.42414,88,101,0
102.42414,102.4999,87,88,0
102.4999,102.57565,85,88,0
102.57565,102.65141,83,88,0
102.65141,102.72717,81,88,0
102.72717,102.802925,80,75,0
102.802925,102.878685,78,75,0
102.878685,102.954445,76,75,0
102.954445,103.0302,75,75,0
103.0302,103.10596,73,75,0
103.10596,103.18172,71,75,0
103.18172,103.25747,69,75,0
103.25747,103.33323,68,75,0
103.33323,103.43424,66,75,0
103.43172,103.53272,64,75,0
103.53525,103.63626,63,75,0
103.63626,103.73727,61,75,0
103.73474,103.835754,59,75,0
103.83828,103.93929,57,75,0
103.93929,104.090805,56,75,0
104.24232,104.25747,68,114,0
104.24232,104.25747,63,114,0
104.24232,104.25747,60,114,0
105.71959,105.75747,75,49,0
105.75747,105.90898,73,49,0
105.90898,106.0605,72,49,0
106.0605,106.21201,73,49,0
106.21201,106.36353,76,49,0
106.36353,106.515045,73,49,0
107.53777,107.57565,75,75,0
106.66656,107.57565,78,75,0
107.57565,107.727165,73,75,0
107.727165,107.87868,72,75,0
107.87868,108.0302,73,75,0
108.0302,108.18171,76,75,0
108.18171,108.33322,73,75,0
108.48474,109.39383,81,101,0
109.39383,109.54534,81,36,0
109.54534,109.56049,80,36,0
109.69686,109.84837,78,36,0
109.84837,109.863525,76,36,0
109.99989,110.151405,75,36,0
110.151405,110.16656,73,36,0
110.30292,110.60595,73,36,0
110.60595,110.90898,76,36,0
111.17413,111.21201,63,49,0
110.90898,111.21201,75,36,0
110.90898,111.21201,72,36,0
111.21201,111.363525,61,49,0
111.363525,111.51504,60,49,0
111.51504,111.66656,61,49,0
111.66656,111.81807,64,49,0
111.81807,111.96958,61,49,0
112.99231,113.03019,63,75,0
112.1211,113.03019,66,75,0
113.03019,113.1817,61,75,0
113.1817,113.33322,60,75,0
113.33322,113.48473,61,75,0
113.48473,113.63625,64,75,0
113.63625,113.787766,61,75,0
113.93928,114.84837,69,101,0
114.84837,114.999886,69,36,0
114.999886,115.1514,68,36,0
115.1514,115.30292,66,36,0
115.30292,115.45443,64,36,0
115.45443,115.60594,62,36,0
115.60594,115.75746,61,36,0
115.75746,116.212006,61,36,0
116.212006,116.36352,62,36,0
116.36352,116.51504,59,36,0
116.66655,116.69685,88,75,0
116.6413,116.69685,85,57,0
116.61604,116.69685,81,52,0
116.96958,116.999886,76,49,0
116.96958,116.999886,73,49,0
116.96958,116.999886,69,49,0
117.87867,118.03018,71,49,0
117.87867,118.03018,68,49,0
118.03018,118.1817,76,49,0
118.1817,118.33321,73,49,0
118.1817,118.33321,69,49,0
118.33321,118.48473,76,49,0
118.48473,118.51503,88,75,0
118.45948,118.51503,86,70,0
118.43423,118.51503,83,65,0
118.78776,118.81806,76,49,0
118.78776,118.81806,74,49,0
118.78776,118.81806,71,49,0
119.69685,119.848366,73,49,0
119.69685,119.848366,69,49,0
119.848366,119.99988,76,49,0
119.99988,120.1514,74,49,0
119.99988,120.1514,71,49,0
120.1514,120.30291,76,49,0
120.30291,120.33321,93,75,0
120.27766,120.33321,88,70,0
120.2524,120.33321,85,65,0
120.60594,120.636246,81,49,0
120.60594,120.636246,76,49,0
120.60594,120.636246,73,49,0
121.51503,121.81806,79,49,0
121.51503,121.81806,74,49,0
121.51503,121.81806,71,49,0
121.81806,121.848366,91,75,0
121.81806,121.848366,86,70,0
121.81806,121.848366,83,65,0
122.08321,122.12109,91,49,0
122.12109,122.272606,90,49,0
122.272606,122.42412,89,49,0
122.42412,122.57564,90,49,0
122.42412,122.57564,80,49,0
122.57564,122.72715,93,49,0
122.72715,122.87866,88,49,0
122.87866,123.03018,93,49,0
123.03018,123.181694,90,49,0
123.181694,123.33321,86,49,0
123.33321,123.484726,81,49,0
123.484726,123.63624,78,49,0
123.63624,123.78776,74,49,0
123.93927,123.969574,91,75,0
123.91402,123.969574,86,70,0
123.88876,123.969574,83,65,0
124.2423,124.272606,79,49,0
124.2423,124.272606,74,49,0
124.2423,124.272606,71,49,0
125.15139,125.181694,77,49,0
125.15139,125.181694,72,49,0
125.15139,125.181694,69,49,0
125.45442,125.484726,89,75,0
125.42917,125.484726,84,70,0
125.403915,125.484726,81,65,0
125.719574,125.75745,89,49,0
125.75745,125.908966,88,49,0
125.908966,126.06048,87,49,0
126.06048,126.212,88,49,0
126.212,126.36351,91,49,0
126.36351,126.51502,86,49,0
126.51502,126.66654,91,49,0
126.66654,126.818054,88,49,0
126.818054,126.96957,84,49,0
126.96957,127.121086,79,49,0
127.121086,127.2726,76,49,0
127.2726,127.42412,72,49,0
127.53775,127.57563,93,49,0
127.57563,127.72714,91,49,0
127.72714,127.87866,90,49,0
127.87866,128.03018,91,49,0
128.03018,128.18169,90,49,0
128.18169,128.3332,91,49,0
128.3332,128.48473,93,49,0
128.48473,128.63623,93,75,0
128.63623,128.78775,91,75,0
128.78775,128.93927,88,75,0
128.93927,129.09077,84,75,0
129.09077,129.2423,79,75,0
129.39381,129.40897,79,75,0
129.39381,129.40897,77,75,0
129.54532,129.56047,79,75,0
129.54532,129.56047,77,75,0
129.69684,129.71199,79,75,0
129.69684,129.71199,77,75,0
129.84836,129.86351,79,75,0
129.84836,129.86351,77,75,0
129.99986,130.01501,79,75,0
129.99986,130.01501,77,75,0
130.15138,130.16653,79,75,0
130.15138,130.16653,77,75,0
130.3029,130.45442,81,75,0
130.3029,130.45442,76,75,0
130.45442,130.60593,79,75,0
130.60593,130.75745,76,75,0
130.75745,130.90897,72,75,0
130.90897,131.06047,67,75,0
131.17412,131.21199,90,49,0
131.21199,131.36351,88,49,0
131.36351,131.51501,87,49,0
131.51501,131.66653,88,49,0
131.66653,131.81805,87,49,0
131.81805,131.96956,88,49,0
131.96956,132.12108,90,49,0
132.12108,132.2726,90,75,0
132.2726,132.4241,88,49,0
132.4241,132.57562,85,49,0
132.57562,132.72714,81,49,0
132.72714,132.87866,76,49,0
133.03017,133.04532,76,49,0
133.03017,133.04532,74,49,0
133.18169,133.19684,76,49,0
133.18169,133.19684,74,49,0
133.3332,133.34836,76,49,0
133.3332,133.34836,74,49,0
133.48471,133.49986,76,49,0
133.48471,133.49986,74,49,0
133.63623,133.65138,76,49,0
133.63623,133.65138,74,49,0
133.78775,133.8029,76,49,0
133.78775,133.8029,74,49,0
133.93925,134.09077,78,75,0
133.93925,134.09077,73,67,0
134.09077,134.2423,76,49,0
134.2423,134.3938,73,49,0
134.3938,134.54532,69,49,0
134.54532,134.69684,64,49,0
134.82816,134.87613,85,71,0
134.79027,134.87613,79,63,0
134.81047,134.87865,81,67,0
134.84834,134.87865,88,114,0
135.15138,135.18169,76,88,0
135.15138,135.18169,67,88,0
135.15138,135.18169,69,88,0
135.15138,135.18169,73,88,0
136.06047,136.09077,90,88,0
136.06047,136.09077,78,88,0
136.06047,136.09077,81,88,0
136.06047,136.09077,86,88,0
136.34329,136.39128,90,110,0
136.30542,136.39128,81,102,0
136.32562,136.3938,86,106,0
136.3635,136.3938,93,114,0
136.66653,136.7423,100,49,0
136.7423,136.81804,97,49,0
136.81804,136.8938,93,49,0
136.96956,137.04532,97,49,0
137.04532,137.12108,93,49,0
137.12108,137.19684,88,49,0
137.27258,137.34834,93,49,0
137.34834,137.4241,88,49,0
137.4241,137.49986,85,49,0
137.57562,137.65138,88,49,0
137.65138,137.72714,86,49,0
137.72714,137.80289,83,49,0
137.87865,137.9544,86,49,0
137.9544,138.03017,83,49,0
138.03017,138.10593,80,49,0
138.18169,138.25743,83,49,0
138.25743,138.33319,80,49,0
138.33319,138.40895,76,49,0
138.46451,138.51248,73,71,0
138.42664,138.51248,67,63,0
138.44684,138.51501,69,67,0
138.48471,138.51501,76,114,0
138.78773,138.81804,64,88,0
138.78773,138.81804,55,88,0
138.78773,138.81804,57,88,0
138.78773,138.81804,61,88,0
139.69682,139.72713,66,88,0
139.69682,139.72713,54,88,0
139.69682,139.72713,57,88,0
139.69682,139.72713,62,88,0
139.97966,140.02763,78,110,0
139.94177,140.02763,69,102,0
139.96198,140.03017,74,106,0
139.99986,140.03017,81,114,0
140.30289,140.37865,88,49,0
140.37865,140.4544,85,49,0
140.4544,140.53017,81,49,0
140.60593,140.68167,85,49,0
140.68167,140.75743,81,49,0
140.75743,140.83319,76,49,0
140.90895,140.98471,81,49,0
140.98471,141.06047,76,49,0
141.06047,141.13622,73,49,0
141.21198,141.28773,76,49,0
141.28773,141.3635,74,49,0
141.3635,141.43925,71,49,0
141.51501,141.59077,74,49,0
141.59077,141.66652,71,49,0
141.66652,141.74228,68,49,0
141.81804,141.8938,71,49,0
141.8938,141.96956,68,49,0
141.96956,142.04532,64,49,0
142.12106,142.19682,69,88,0
142.19682,142.27258,64,88,0
142.27258,142.34834,61,88,0
142.4241,142.49986,64,88,0
142.49986,142.57562,61,88,0
142.57562,142.65137,57,88,0
142.72713,142.80289,57,88,0
142.80289,142.87865,52,88,0
142.87865,142.9544,49,88,0
143.03017,143.06047,45,114,0
144.3166,144.35434,74,49,0
145.44868,145.48642,74,49,0
146.58075,146.59962,74,49,0
146.76944,146.7883,76,49,0
146.95811,146.97697,78,49,0
147.14679,147.16566,79,49,0
147.33546,147.37321,81,49,0
148.84491,148.88264,74,49,0
149.97697,150.01471,74,49,0
151.10905,151.12791,81,49,0
151.29773,151.3166,81,49,0
151.4864,151.50528,83,49,0
151.6751,151.69395,85,49,0
151.86377,151.9015,86,49,0
153.3732,153.41093,74,49,0
154.50528,154.54301,74,49,0
155.63734,155.65622,74,49,0
155.82603,155.8449,76,49,0
156.01471,156.03357,78,49,0
156.20338,156.22226,79,49,0
156.39206,156.4298,81,49,0
157.90149,157.93922,74,49,0
159.03357,159.0713,74,49,0
160.16565,160.18451,81,49,0
160.35432,160.37318,81,49,0
160.543,160.56187,83,49,0
160.73167,160.75055,85,49,0
160.92036,160.9581,86,49,0
162.05243,162.09016,69,75,0
163.18451,163.22224,69,75,0
164.69394,164.71281,76,75,0
164.88261,164.90149,77,75,0
165.0713,165.09016,79,75,0
165.25998,165.27884,80,75,0
165.44865,165.48639,81,75,0
166.58073,166.61847,69,114,0
167.7128,167.75053,69,114,0
169.5996,169.63733,72,127,0
169.97696,170.0147,77,127,0
171.86374,171.90147,72,127,0
172.2411,172.27884,77,127,0
174.12788,174.16562,72,127,0
174.50525,174.54298,73,127,0
178.27882,178.31656,72,49,0
179.4109,179.44864,71,49,0
180.54297,180.58072,73,49,0
181.67505,181.71278,74,49,0
182.80713,182.84486,84,49,0
183.9392,183.97693,83,49,0
185.07127,185.10901,85,49,0
186.20334,186.24109,86,49,0
186.95807,186.9958,69,75,0
188.09013,188.12787,69,75,0
189.59956,189.61844,76,75,0
189.78825,189.80711,77,75,0
189.97693,189.99579,79,75,0
190.1656,190.18448,80,75,0
190.35428,190.39201,81,75,0
191.48636,191.5241,69,114,0
192.61844,192.65617,69,114,0
194.50522,194.54295,72,127,0
194.88258,194.92032,77,127,0
196.76936,196.8071,72,127,0
197.14673,197.18446,77,127,0
199.03352,199.07126,72,127,0
199.41087,199.44861,73,127,0
203.18446,203.2222,72,49,0
204.31653,204.35426,71,49,0
205.44861,205.48634,73,49,0
206.58067,206.61841,74,49,0
207.71275,207.75049,84,49,0
208.84483,208.88257,83,49,0
209.9769,210.01463,85,49,0
211.10898,211.14671,86,49,0
212.24104,212.27878,85,36,0
213.37312,213.41086,86,36,0
214.5052,214.54294,90,36,0
214.5052,214.54294,86,36,0
218.27878,218.30908,88,75,0
218.24733,218.30908,85,57,0
218.21588,218.30908,81,52,0
218.5818,218.6121,76,49,0
218.5818,218.6121,73,49,0
218.5818,218.6121,69,49,0
219.49089,219.64241,71,49,0
219.49089,219.64241,68,49,0
219.64241,219.79393,76,49,0
219.79393,219.94543,73,49,0
219.79393,219.94543,69,49,0
219.94543,220.09695,76,49,0
220.09695,220.12726,88,75,0
220.0717,220.12726,86,70,0
220.04645,220.12726,83,65,0
220.39998,220.43028,76,49,0
220.39998,220.43028,74,49,0
220.39998,220.43028,71,49,0
221.30908,221.46059,73,49,0
221.30908,221.46059,69,49,0
221.46059,221.6121,76,49,0
221.6121,221.76363,74,49,0
221.6121,221.76363,71,49,0
221.76363,221.91513,76,49,0
221.91513,221.94543,93,75,0
221.88988,221.94543,88,70,0
221.86462,221.94543,85,65,0
222.21817,222.24847,81,49,0
222.21817,222.24847,76,49,0
222.21817,222.24847,73,49,0
223.12726,223.43028,79,49,0
223.12726,223.43028,74,49,0
223.12726,223.43028,71,49,0
223.43028,223.46059,91,75,0
223.43028,223.46059,86,70,0
223.43028,223.46059,83,65,0
223.69543,223.73332,91,49,0
223.73332,223.88483,90,49,0
223.88483,224.03635,89,49,0
224.03635,224.18787,90,49,0
224.18787,224.33937,95,49,0
224.33937,224.49089,88,49,0
224.49089,224.64241,94,49,0
224.64241,224.79391,95,49,0
224.79391,224.94543,90,49,0
224.94543,225.09695,86,49,0
225.09695,225.24846,83,49,0
225.24846,225.39998,74,49,0
225.5515,225.5818,91,75,0
225.52625,225.5818,86,70,0
225.50099,225.5818,83,65,0
225.85452,225.88483,79,49,0
225.85452,225.88483,74,49,0
225.85452,225.88483,71,49,0
226.76361,226.79391,77,49,0
226.76361,226.79391,72,49,0
226.76361,226.79391,69,49,0
227.06665,227.09695,89,75,0
227.06665,227.09695,84,70,0
227.06665,227.09695,81,65,0
227.3318,227.36967,89,49,0
227.36967,227.5212,88,49,0
227.5212,227.6727,87,49,0
227.6727,227.82422,88,49,0
227.82422,227.97574,87,49,0
227.97574,228.12726,88,49,0
228.12726,228.27876,90,49,0
228.27876,228.43028,90,75,0
228.43028,228.5818,88,49,0
228.5818,228.7333,85,49,0
228.7333,228.88483,81,49,0
228.88483,229.03635,76,49,0
229.18785,229.203,76,49,0
229.18785,229.203,74,49,0
229.33937,229.35452,76,49,0
229.33937,229.35452,74,49,0
229.49089,229.50604,76,49,0
229.49089,229.50604,74,49,0
229.6424,229.65755,76,49,0
229.6424,229.65755,74,49,0
229.79391,229.80907,76,49,0
229.79391,229.80907,74,49,0
229.94543,229.96059,76,49,0
229.94543,229.96059,74,49,0
230.09694,230.24846,78,75,0
230.09694,230.24846,73,67,0
230.24846,230.39998,76,49,0
230.39998,230.5515,73,49,0
230.5515,230.703,69,49,0
230.703,230.85452,64,49,0
231.00604,231.15755,64,49,0
231.15755,231.30907,66,49,0
231.30907,231.46059,62,49,0
231.46059,231.61209,66,49,0
231.61209,231.91513,68,49,0
231.91513,232.21815,69,49,0
232.78633,232.82422,53,49,0
232.82422,232.97574,52,88,0
232.97574,233.12724,51,88,0
233.12724,233.27876,52,88,0
233.27876,233.43028,51,88,0
233.43028,233.58179,52,88,0
233.58179,233.7333,53,88,0
233.7333,233.88483,53,88,0
233.88483,234.03633,52,88,0
234.03633,234.18785,48,88,0
234.18785,234.33937,55,88,0
234.33937,234.6424,64,114,0
234.33937,234.6424,60,106,0
234.6424,234.79391,64,88,0
234.79391,234.94542,62,88,0
234.94542,235.09694,59,88,0
235.09694,235.24846,55,88,0
235.24846,235.55148,67,114,0
235.24846,235.55148,59,106,0
235.55148,235.703,65,88,0
235.703,235.85452,64,88,0
235.85452,236.00603,67,88,0
236.00603,236.15755,65,88,0
236.15755,236.30907,69,88,0
236.30907,236.46057,67,88,0
237.33179,237.36966,67,49,0
236.46057,237.36966,62,88,0
236.46057,237.36966,59,88,0
237.36966,237.52118,65,49,0
237.52118,237.6727,64,49,0
237.6727,237.8242,65,49,0
237.8242,237.97572,64,49,0
237.97572,238.12724,65,49,0
238.12724,238.27876,69,49,0
238.27876,238.43027,69,49,0
238.43027,238.58179,67,49,0
238.58179,238.7333,64,49,0
238.7333,238.88481,60,49,0
238.88481,239.03633,64,49,0
239.03633,239.18785,76,49,0
239.18785,239.33936,76,49,0
239.33936,239.3545,74,49,0
239.49088,239.6424,72,49,0
239.6424,239.65755,71,49,0
239.7939,239.94542,69,49,0
239.94542,239.96057,67,49,0
240.09694,240.24844,69,49,0
240.24844,240.39996,67,49,0
240.39996,240.55148,64,49,0
240.55148,240.703,60,49,0
240.703,240.8545,55,49,0
240.96814,241.00603,79,49,0
241.00603,241.15755,77,49,0
241.15755,241.30905,76,49,0
241.30905,241.46057,77,49,0
241.46057,241.61209,76,49,0
241.61209,241.7636,77,49,0
241.7636,241.91512,81,49,0
241.91512,242.06664,81,49,0
242.06664,242.21814,79,49,0
242.21814,242.36966,76,49,0
242.36966,242.52118,72,49,0
242.52118,242.67268,76,49,0
242.67268,242.8242,88,49,0
242.8242,242.97572,88,49,0
242.97572,242.99088,86,49,0
243.12724,243.27875,84,49,0
243.27875,243.2939,83,49,0
243.43027,243.58179,81,49,0
243.58179,243.59694,79,49,0
243.73329,243.88481,81,49,0
243.88481,244.03633,79,49,0
244.03633,244.18784,76,49,0
244.18784,244.33936,72,49,0
244.33936,244.49088,76,49,0
244.49088,244.64238,88,49,0
244.64238,244.7939,88,49,0
244.7939,244.80905,86,49,0
244.94542,245.09692,84,49,0
245.09692,245.11208,83,49,0
245.24844,245.39996,81,49,0
245.39996,245.41512,79,49,0
245.55148,245.70299,81,49,0
245.70299,245.8545,79,49,0
245.8545,246.00603,76,49,0
246.00603,246.15753,72,49,0
246.15753,246.30905,67,49,0
246.46057,246.61208,81,49,0
246.61208,246.7636,79,49,0
246.7636,246.91512,76,49,0
246.91512,247.06662,72,49,0
247.06662,247.21814,67,49,0
247.36966,247.52116,81,36,0
247.52116,247.67268,79,36,0
247.67268,247.8242,76,36,0
247.8242,247.97572,72,36,0
247.97572,248.12723,67,36,0
248.27875,248.3545,93,101,0
248.3545,248.43027,92,101,0
248.43027,248.50601,90,101,0
248.50601,248.58177,88,101,0
248.58177,248.65753,87,88,0
248.65753,248.73329,85,88,0
248.73329,248.80905,83,88,0
248.80905,248.88481,81,88,0
248.88481,248.96056,80,75,0
248.96056,249.03632,78,75,0
249.03632,249.11208,76,75,0
249.11208,249.18784,75,75,0
249.18784,249.2636,73,75,0
249.2636,249.33936,71,75,0
249.33936,249.41512,69,75,0
249.41512,249.49086,68,75,0
249.49086,249.59187,66,75,0
249.58936,249.69035,64,75,0
249.69289,249.7939,63,75,0
249.7939,249.89491,61,75,0
249.89238,249.9934,59,75,0
249.99591,250.09692,57,75,0
250.09692,250.24844,56,75,0
250.39996,250.4151,68,114,0
250.39996,250.4151,63,114,0
250.39996,250.4151,60,114,0
251.87723,251.9151,75,49,0
251.9151,252.06662,73,49,0
252.06662,252.21814,72,49,0
252.21814,252.36964,73,49,0
252.36964,252.52116,76,49,0
252.52116,252.67268,73,49,0
253.6954,253.73329,75,75,0
252.8242,253.73329,78,75,0
253.73329,253.8848,73,75,0
253.8848,254.03632,72,75,0
254.03632,254.18784,73,75,0
254.18784,254.33934,76,75,0
254.33934,254.49086,73,75,0
254.64238,255.55147,81,101,0
255.55147,255.70299,81,36,0
255.70299,255.71814,80,36,0
255.85449,256.006,78,36,0
256.006,256.02115,76,36,0
256.15753,256.30905,75,36,0
256.30905,256.3242,73,36,0
256.46054,256.76358,73,36,0
256.76358,257.06662,76,36,0
257.33176,257.36966,63,49,0
257.06662,257.36966,75,36,0
257.06662,257.36966,72,36,0
257.36966,257.52115,61,49,0
257.52115,257.67267,60,49,0
257.67267,257.8242,61,49,0
257.8242,257.9757,64,49,0
257.9757,258.12723,61,49,0
259.14993,259.18784,63,75,0
258.27875,259.18784,66,75,0
259.18784,259.33936,61,75,0
259.33936,259.49084,60,75,0
259.49084,259.64236,61,75,0
259.64236,259.79388,64,75,0
259.79388,259.9454,61,75,0
260.09692,261.006,69,101,0
261.006,261.15753,69,36,0
261.15753,261.30902,68,36,0
261.30902,261.46054,66,36,0
261.46054,261.61206,64,36,0
261.61206,261.76358,62,36,0
261.76358,261.9151,61,36,0
261.9151,262.36963,61,36,0
262.36963,262.52115,62,36,0
262.52115,262.67267,59,36,0
262.8242,262.8545,88,75,0
262.79892,262.8545,85,57,0
262.77368,262.8545,81,52,0
263.12723,263.15753,76,49,0
263.12723,263.15753,73,49,0
263.12723,263.15753,69,49,0
264.03632,264.18784,71,49,0
264.03632,264.18784,68,49,0
264.18784,264.33932,76,49,0
264.33932,264.49084,73,49,0
264.33932,264.49084,69,49,0
264.49084,264.64236,76,49,0
264.64236,264.67267,88,75,0
264.61713,264.67267,86,70,0
264.59186,264.67267,83,65,0
264.9454,264.9757,76,49,0
264.9454,264.9757,74,49,0
264.9454,264.9757,71,49,0
265.8545,266.006,73,49,0
265.8545,266.006,69,49,0
266.006,266.1575,76,49,0
266.1575,266.30902,74,49,0
266.1575,266.30902,71,49,0
266.30902,266.46054,76,49,0
266.46054,266.49084,93,75,0
266.4353,266.49084,88,70,0
266.41003,266.49084,85,65,0
266.76358,266.79388,81,49,0
266.76358,266.79388,76,49,0
266.76358,266.79388,73,49,0
267.67267,267.9757,79,49,0
267.67267,267.9757,74,49,0
267.67267,267.9757,71,49,0
267.9757,268.006,91,75,0
267.9757,268.006,86,70,0
267.9757,268.006,83,65,0
268.24084,268.27872,91,49,0
268.27872,268.43024,90,49,0
268.43024,268.58176,89,49,0
268.58176,268.73328,90,49,0
268.58176,268.73328,80,49,0
268.73328,268.8848,93,49,0
268.8848,269.03632,88,49,0
269.03632,269.1878,93,49,0
269.1878,269.33932,90,49,0
269.33932,269.49084,86,49,0
269.49084,269.64236,81,49,0
269.64236,269.79388,78,49,0
269.79388,269.9454,74,49,0
270.0969,270.1272,91,75,0
270.07166,270.1272,86,70,0
270.0464,270.1272,83,65,0
270.39993,270.43024,79,49,0
270.39993,270.43024,74,49,0
270.39993,270.43024,71,49,0
271.30902,271.33932,77,49,0
271.30902,271.33932,72,49,0
271.30902,271.33932,69,49,0
271.61206,271.64236,89,75,0
271.5868,271.64236,84,70,0
271.56155,271.64236,81,65,0
271.8772,271.9151,89,49,0
271.9151,272.0666,88,49,0
272.0666,272.2181,87,49,0
272.2181,272.36963,88,49,0
272.36963,272.52115,91,49,0
272.52115,272.67267,86,49,0
272.67267,272.8242,91,49,0
272.8242,272.97568,88,49,0
272.97568,273.1272,84,49,0
273.1272,273.27872,79,49,0
273.27872,273.43024,76,49,0
273.43024,273.58176,72,49,0
273.69537,273.73328,93,49,0
273.73328,273.8848,91,49,0
273.8848,274.0363,90,49,0
274.0363,274.1878,91,49,0
274.1878,274.33932,90,49,0
274.33932,274.49084,91,49,0
274.49084,274.64236,93,49,0
274.64236,274.79388,93,75,0
274.79388,274.94537,91,75,0
274.94537,275.0969,88,75,0
275.0969,275.2484,84,75,0
275.2484,275.39993,79,75,0
275.55145,275.5666,79,75,0
275.55145,275.5666,77,75,0
275.70297,275.7181,79,75,0
275.70297,275.7181,77,75,0
275.85446,275.86963,79,75,0
275.85446,275.86963,77,75,0
276.00598,276.02115,79,75,0
276.00598,276.02115,77,75,0
276.1575,276.17267,79,75,0
276.1575,276.17267,77,75,0
276.30902,276.32416,79,75,0
276.30902,276.32416,77,75,0
276.46054,276.61206,81,75,0
276.46054,276.61206,76,75,0
276.61206,276.76358,79,75,0
276.76358,276.91507,76,75,0
276.91507,277.0666,72,75,0
277.0666,277.2181,67,75,0
277.33176,277.36963,90,49,0
277.36963,277.52115,88,49,0
277.52115,277.67267,87,49,0
277.67267,277.82416,88,49,0
277.82416,277.97568,87,49,0
277.97568,278.1272,88,49,0
278.1272,278.27872,90,49,0
278.27872,278.43024,90,75,0
278.43024,278.58176,88,49,0
278.58176,278.73325,85,49,0
278.73325,278.88477,81,49,0
278.88477,279.0363,76,49,0
279.1878,279.20297,76,49,0
279.1878,279.20297,74,49,0
279.33932,279.35446,76,49,0
279.33932,279.35446,74,49,0
279.49084,279.50598,76,49,0
279.49084,279.50598,74,49,0
279.64236,279.6575,76,49,0
279.64236,279.6575,74,49,0
279.79385,279.80902,76,49,0
279.79385,279.80902,74,49,0
279.94537,279.96054,76,49,0
279.94537,279.96054,74,49,0
280.0969,280.2484,78,75,0
280.0969,280.2484,73,67,0
280.2484,280.39993,76,49,0
280.39993,280.55145,73,49,0
280.55145,280.70294,69,49,0
280.70294,280.85446,64,49,0
280.98578,281.03375,85,71,0
280.9479,281.03375,79,63,0
280.9681,281.0363,81,67,0
281.00598,281.0363,88,114,0
281.30902,281.33932,76,88,0
281.30902,281.33932,67,88,0
281.30902,281.33932,69,88,0
281.30902,281.33932,73,88,0
282.2181,282.2484,90,88,0
282.2181,282.2484,78,88,0
282.2181,282.2484,81,88,0
282.2181,282.2484,86,88,0
282.50095,282.54892,90,110,0
282.46304,282.54892,81,102,0
282.48325,282.55145,86,106,0
282.52115,282.55145,93,114,0
282.82416,282.89993,100,49,0
282.89993,282.97568,97,49,0
282.97568,283.05145,93,49,0
283.1272,283.20294,97,49,0
283.20294,283.27872,93,49,0
283.27872,283.35446,88,49,0
283.43024,283.50598,93,49,0
283.50598,283.58173,88,49,0
283.58173,283.6575,85,49,0
283.73325,283.80902,88,49,0
283.80902,283.88477,86,49,0
283.88477,283.96054,83,49,0
284.0363,284.11203,86,49,0
284.11203,284.1878,83,49,0
284.1878,284.26355,80,49,0
284.33932,284.41507,83,49,0
284.41507,284.49084,80,49,0
284.49084,284.5666,76,49,0
284.62213,284.67014,73,71,0
284.58426,284.67014,67,63,0
284.60446,284.67264,69,67,0
284.64233,284.67264,76,114,0
284.94537,284.97568,64,88,0
284.94537,284.97568,55,88,0
284.94537,284.97568,57,88,0
284.94537,284.97568,61,88,0
285.85446,285.88477,66,88,0
285.85446,285.88477,54,88,0
285.85446,285.88477,57,88,0
285.85446,285.88477,62,88,0
286.1373,286.18527,78,110,0
286.09943,286.18527,69,102,0
286.11963,286.1878,74,106,0
286.1575,286.1878,81,114,0
286.46054,286.5363,88,49,0
286.5363,286.61203,85,49,0
286.61203,286.6878,81,49,0
286.76355,286.83932,85,49,0
286.83932,286.91507,81,49,0
286.91507,286.9908,76,49,0
287.0666,287.14233,81,49,0
287.14233,287.2181,76,49,0
287.2181,287.29385,73,49,0
287.36963,287.44537,76,49,0
287.44537,287.52112,74,49,0
287.52112,287.5969,71,49,0
287.67264,287.7484,74,49,0
287.7484,287.82416,71,49,0
287.82416,287.89993,68,49,0
287.97568,288.05142,71,49,0
288.05142,288.1272,68,49,0
288.1272,288.20294,64,49,0
288.27872,288.35446,69,88,0
288.35446,288.4302,64,88,0
288.4302,288.50598,61,88,0
288.58173,288.6575,64,88,0
288.6575,288.73325,61,88,0
288.73325,288.80902,57,88,0
288.88477,288.9605,57,88,0
288.9605,289.0363,52,88,0
289.0363,289.11203,49,88,0
289.1878,289.2181,45,114,0
13.63635,13.787865,64,64,0
13.787865,13.93938,62,64,0
13.93938,14.24241,61,64,0
28.18179,28.333305,64,64,0
28.333305,28.48482,62,64,0
28.48482,28.78785,61,64,0
32.12118,32.42421,60,64,0
32.42421,32.72724,59,64,0
32.72724,33.03027,60,64,0
33.93936,34.84845,59,36,0
34.84845,35.15148,64,36,0
34.84845,35.15148,60,36,0
35.75754,36.06057,71,36,0
35.75754,36.06057,65,36,0
36.06057,36.3636,65,36,0
36.06057,36.3636,62,36,0
36.3636,36.66663,65,36,0
36.3636,36.66663,59,36,0
36.66663,36.96966,64,36,0
36.66663,36.96966,60,36,0
37.57572,38.48481,71,36,0
38.48481,38.78784,76,36,0
38.48481,38.78784,72,36,0
39.3939,39.69693,83,36,0
39.3939,39.69693,77,36,0
39.69693,39.99996,77,36,0
39.69693,39.99996,74,36,0
39.99996,40.30299,77,36,0
39.99996,40.30299,71,36,0
40.30299,40.60602,76,36,0
40.30299,40.60602,72,36,0
41.21208,41.51511,83,36,0
41.21208,41.51511,77,36,0
41.51511,41.81814,77,36,0
41.51511,41.81814,74,36,0
41.81814,42.12117,77,36,0
41.81814,42.12117,71,36,0
42.12117,42.4242,76,36,0
42.12117,42.4242,72,36,0
43.03026,43.33329,76,36,0
43.03026,43.33329,72,36,0
43.93935,44.24238,76,36,0
43.93935,44.24238,72,36,0
53.03025,53.63631,73,36,0
58.48479,59.09085,57,36,0
89.39385,89.69688,60,36,0
89.69688,89.99991,59,36,0
89.99991,90.30294,60,36,0
91.21203,92.12112,59,36,0
92.12112,92.42415,64,36,0
92.12112,92.42415,60,36,0
93.03021,93.33324,71,36,0
93.03021,93.33324,65,36,0
93.33324,93.63627,65,36,0
93.33324,93.63627,62,36,0
93.63627,93.9393,65,36,0
93.63627,93.9393,59,36,0
93.9393,94.24233,64,36,0
93.9393,94.24233,60,36,0
94.84839,95.75748,71,36,0
95.75748,96.06051,76,36,0
95.75748,96.06051,72,36,0
96.66657,96.9696,83,36,0
96.66657,96.9696,77,36,0
96.9696,97.27263,77,36,0
96.9696,97.27263,74,36,0
97.27263,97.57566,77,36,0
97.27263,97.57566,71,36,0
97.57566,97.87869,76,36,0
97.57566,97.87869,72,36,0
98.48475,98.78778,83,36,0
98.48475,98.78778,77,36,0
98.78778,99.09081,77,36,0
98.78778,99.09081,74,36,0
99.09081,99.39384,77,36,0
99.09081,99.39384,71,36,0
99.39384,99.69687,76,36,0
99.39384,99.69687,72,36,0
100.30293,100.60596,76,36,0
100.30293,100.60596,72,36,0
101.21202,101.51505,76,36,0
101.21202,101.51505,72,36,0
110.30292,110.90898,73,36,0
115.75746,116.36352,57,36,0
143.93925,145.07132,66,36,0
143.93925,145.07132,62,36,0
143.93925,145.07132,57,36,0
145.07132,146.2034,67,36,0
145.07132,146.2034,62,36,0
145.07132,146.2034,59,36,0
146.2034,146.58075,67,36,0
146.2034,146.58075,62,36,0
146.2034,146.58075,59,36,0
146.58075,146.95811,66,36,0
146.58075,146.95811,62,36,0
146.58075,146.95811,57,36,0
146.95811,147.33546,62,36,0
146.95811,147.33546,57,36,0
146.95811,147.33546,54,36,0
147.33546,148.0902,61,36,0
147.33546,148.0902,57,36,0
147.33546,148.0902,52,36,0
148.46754,149.59962,66,36,0
148.46754,149.59962,62,36,0
148.46754,149.59962,57,36,0
149.59962,150.73169,67,36,0
149.59962,150.73169,62,36,0
149.59962,150.73169,58,36,0
150.73169,151.10905,66,36,0
150.73169,151.10905,62,36,0
150.73169,151.10905,57,36,0
151.10905,151.4864,69,36,0
151.10905,151.4864,66,36,0
151.10905,151.4864,57,36,0
151.4864,151.86377,67,36,0
151.4864,151.86377,64,36,0
151.4864,151.86377,57,36,0
151.86377,152.99585,66,36,0
151.86377,152.99585,62,36,0
151.86377,152.99585,57,36,0
152.99585,154.12791,66,36,0
152.99585,154.12791,62,36,0
152.99585,154.12791,57,36,0
154.12791,155.26,67,36,0
154.12791,155.26,62,36,0
154.12791,155.26,59,36,0
155.26,155.63734,67,36,0
155.26,155.63734,62,36,0
155.26,155.63734,59,36,0
155.63734,156.01471,66,36,0
155.63734,156.01471,62,36,0
155.63734,156.01471,57,36,0
156.01471,156.39206,62,36,0
156.01471,156.39206,57,36,0
156.01471,156.39206,54,36,0
156.39206,157.14677,61,36,0
156.39206,157.14677,57,36,0
156.39206,157.14677,52,36,0
157.52414,158.65622,66,36,0
157.52414,158.65622,62,36,0
157.52414,158.65622,57,36,0
158.65622,159.78828,67,36,0
158.65622,159.78828,62,36,0
158.65622,159.78828,58,36,0
159.78828,160.16565,66,36,0
159.78828,160.16565,62,36,0
159.78828,160.16565,57,36,0
160.16565,160.543,69,36,0
160.16565,160.543,66,36,0
160.16565,160.543,57,36,0
160.543,160.92036,67,36,0
160.543,160.92036,64,36,0
160.543,160.92036,57,36,0
160.92036,162.05243,66,36,0
160.92036,162.05243,62,36,0
160.92036,162.05243,57,36,0
162.05243,163.18451,64,62,0
162.05243,163.18451,61,62,0
163.18451,164.31659,65,62,0
163.18451,164.31659,62,62,0
162.05243,164.31659,57,62,0
164.31659,164.69394,69,62,0
164.31659,164.69394,65,62,0
164.31659,164.69394,57,62,0
164.69394,165.0713,67,62,0
164.69394,165.0713,64,62,0
164.69394,165.0713,57,62,0
165.0713,165.44865,65,62,0
165.0713,165.44865,62,62,0
165.0713,165.44865,57,62,0
165.44865,166.58073,64,62,0
165.44865,166.58073,61,62,0
165.44865,166.58073,57,62,0
166.58073,167.33545,64,75,0
166.58073,167.33545,61,75,0
166.58073,167.33545,57,75,0
167.7128,168.46751,65,75,0
167.7128,168.46751,60,75,0
167.7128,168.46751,57,75,0
168.84488,169.22223,69,114,0
168.84488,169.22223,65,114,0
168.84488,169.22223,60,114,0
169.22223,169.5996,70,114,0
169.22223,169.5996,67,114,0
169.22223,169.5996,60,114,0
169.5996,169.97696,67,114,0
169.5996,169.97696,64,114,0
169.5996,169.97696,60,114,0
169.97696,170.35431,74,114,0
169.97696,170.35431,70,114,0
169.97696,170.35431,60,114,0
170.35431,171.10902,72,114,0
170.35431,171.10902,69,114,0
170.35431,171.10902,60,114,0
171.10902,171.48639,69,114,0
171.10902,171.48639,65,114,0
171.10902,171.48639,60,114,0
171.48639,171.86374,70,114,0
171.48639,171.86374,67,114,0
171.48639,171.86374,60,114,0
171.86374,172.2411,67,114,0
171.86374,172.2411,64,114,0
171.86374,172.2411,60,114,0
172.2411,172.61845,74,114,0
172.2411,172.61845,70,114,0
172.2411,172.61845,60,114,0
172.61845,173.37317,72,114,0
172.61845,173.37317,69,114,0
172.61845,173.37317,60,114,0
173.37317,173.75053,69,114,0
173.37317,173.75053,65,114,0
173.37317,173.75053,60,114,0
173.75053,174.12788,70,114,0
173.75053,174.12788,67,114,0
173.75053,174.12788,60,114,0
174.12788,174.50525,67,114,0
174.12788,174.50525,64,114,0
174.12788,174.50525,60,114,0
174.50525,177.90147,69,114,0
174.50525,177.90147,57,114,0
174.50525,177.90147,64,114,0
174.50525,177.90147,67,114,0
177.90147,179.03354,66,36,0
177.90147,179.03354,62,36,0
177.90147,179.03354,57,36,0
179.03354,180.16562,67,36,0
179.03354,180.16562,62,36,0
179.03354,180.16562,59,36,0
180.16562,180.54297,67,36,0
180.16562,180.54297,64,36,0
180.16562,180.54297,57,36,0
180.54297,180.92033,69,36,0
180.54297,180.92033,66,36,0
180.54297,180.92033,57,36,0
180.92033,181.2977,67,36,0
180.92033,181.2977,64,36,0
180.92033,181.2977,57,36,0
181.2977,182.42976,66,36,0
181.2977,182.42976,62,36,0
181.2977,182.42976,57,36,0
182.42976,183.56184,78,36,0
182.42976,183.56184,74,36,0
182.42976,183.56184,69,36,0
183.56184,184.69391,79,36,0
183.56184,184.69391,74,36,0
183.56184,184.69391,71,36,0
184.69391,185.07127,79,36,0
184.69391,185.07127,76,36,0
184.69391,185.07127,69,36,0
185.07127,185.44862,81,36,0
185.07127,185.44862,78,36,0
185.07127,185.44862,69,36,0
185.44862,185.82599,79,36,0
185.44862,185.82599,76,36,0
185.44862,185.82599,69,36,0
185.82599,186.95807,78,36,0
185.82599,186.95807,74,36,0
185.82599,186.95807,69,36,0
186.95807,188.09013,64,62,0
186.95807,188.09013,61,62,0
188.09013,189.22221,65,62,0
188.09013,189.22221,62,62,0
186.95807,189.22221,57,62,0
189.22221,189.59956,69,62,0
189.22221,189.59956,65,62,0
189.22221,189.59956,57,62,0
189.59956,189.97693,67,62,0
189.59956,189.97693,64,62,0
189.59956,189.97693,57,62,0
189.97693,190.35428,65,62,0
189.97693,190.35428,62,62,0
189.97693,190.35428,57,62,0
190.35428,191.48636,64,62,0
190.35428,191.48636,61,62,0
190.35428,191.48636,57,62,0
191.48636,192.24107,64,75,0
191.48636,192.24107,61,75,0
191.48636,192.24107,57,75,0
192.61844,193.37315,65,75,0
192.61844,193.37315,60,75,0
192.61844,193.37315,57,75,0
193.7505,194.12787,69,114,0
193.7505,194.12787,65,114,0
193.7505,194.12787,60,114,0
194.12787,194.50522,70,114,0
194.12787,194.50522,67,114,0
194.12787,194.50522,60,114,0
194.50522,194.88258,67,114,0
194.50522,194.88258,64,114,0
194.50522,194.88258,60,114,0
194.88258,195.25993,74,114,0
194.88258,195.25993,70,114,0
194.88258,195.25993,60,114,0
195.25993,196.01465,72,114,0
195.25993,196.01465,69,114,0
195.25993,196.01465,60,114,0
196.01465,196.39201,69,114,0
196.01465,196.39201,65,114,0
196.01465,196.39201,60,114,0
196.39201,196.76936,70,114,0
196.39201,196.76936,67,114,0
196.39201,196.76936,60,114,0
196.76936,197.14673,67,114,0
196.76936,197.14673,64,114,0
196.76936,197.14673,60,114,0
197.14673,197.5241,74,114,0
197.14673,197.5241,70,114,0
197.14673,197.5241,60,114,0
197.5241,198.27881,72,114,0
197.5241,198.27881,69,114,0
197.5241,198.27881,60,114,0
198.27881,198.65616,69,114,0
198.27881,198.65616,65,114,0
198.27881,198.65616,60,114,0
198.65616,199.03352,70,114,0
198.65616,199.03352,67,114,0
198.65616,199.03352,60,114,0
199.03352,199.41087,67,114,0
199.03352,199.41087,64,114,0
199.03352,199.41087,60,114,0
199.41087,202.8071,69,114,0
199.41087,202.8071,57,114,0
199.41087,202.8071,64,114,0
199.41087,202.8071,67,114,0
202.8071,203.93918,66,36,0
202.8071,203.93918,62,36,0
202.8071,203.93918,57,36,0
203.93918,205.07124,67,36,0
203.93918,205.07124,62,36,0
203.93918,205.07124,59,36,0
205.07124,205.44861,67,36,0
205.07124,205.44861,64,36,0
205.07124,205.44861,57,36,0
205.44861,205.82596,69,36,0
205.44861,205.82596,66,36,0
205.44861,205.82596,57,36,0
205.82596,206.20332,67,36,0
205.82596,206.20332,64,36,0
205.82596,206.20332,57,36,0
206.20332,207.33539,66,36,0
206.20332,207.33539,62,36,0
206.20332,207.33539,57,36,0
207.33539,208.46747,78,36,0
207.33539,208.46747,74,36,0
207.33539,208.46747,69,36,0
208.46747,209.59955,79,36,0
208.46747,209.59955,74,36,0
208.46747,209.59955,71,36,0
209.59955,209.9769,79,36,0
209.59955,209.9769,76,36,0
209.59955,209.9769,69,36,0
209.9769,210.35426,81,36,0
209.9769,210.35426,78,36,0
209.9769,210.35426,69,36,0
210.35426,210.73161,79,36,0
210.35426,210.73161,76,36,0
210.35426,210.73161,69,36,0
210.73161,211.8637,78,36,0
210.73161,211.8637,74,36,0
210.73161,211.8637,69,36,0
211.8637,212.24104,79,36,0
211.8637,212.24104,76,36,0
211.8637,212.24104,69,36,0
212.24104,212.61841,81,36,0
212.24104,212.61841,78,36,0
212.24104,212.61841,69,36,0
212.61841,212.99576,79,36,0
212.61841,212.99576,76,36,0
212.61841,212.99576,69,36,0
212.99576,214.12784,78,36,0
212.99576,214.12784,74,36,0
212.99576,214.12784,69,36,0
214.12784,215.25992,78,36,0
214.12784,215.25992,74,36,0
214.12784,215.25992,71,36,0
215.25992,216.39198,76,36,0
215.25992,216.39198,74,36,0
215.25992,216.39198,71,36,0
216.76935,217.90141,88,36,0
216.76935,217.90141,86,36,0
216.76935,217.90141,83,36,0
231.61209,231.76361,64,36,0
231.76361,231.91513,62,36,0
231.91513,232.21815,61,36,0
235.55148,235.85452,60,36,0
235.85452,236.15755,59,36,0
236.15755,236.46057,60,36,0
237.36966,238.27876,59,36,0
238.27876,238.58179,64,36,0
238.27876,238.58179,60,36,0
239.18785,239.49088,71,36,0
239.18785,239.49088,65,36,0
239.49088,239.7939,65,36,0
239.49088,239.7939,62,36,0
239.7939,240.09694,65,36,0
239.7939,240.09694,59,36,0
240.09694,240.39996,64,36,0
240.09694,240.39996,60,36,0
241.00603,241.91512,71,36,0
241.91512,242.21814,76,36,0
241.91512,242.21814,72,36,0
242.8242,243.12724,83,36,0
242.8242,243.12724,77,36,0
243.12724,243.43027,77,36,0
243.12724,243.43027,74,36,0
243.43027,243.73329,77,36,0
243.43027,243.73329,71,36,0
243.73329,244.03633,76,36,0
243.73329,244.03633,72,36,0
244.64238,244.94542,83,36,0
244.64238,244.94542,77,36,0
244.94542,245.24844,77,36,0
244.94542,245.24844,74,36,0
245.24844,245.55148,77,36,0
245.24844,245.55148,71,36,0
245.55148,245.8545,76,36,0
245.55148,245.8545,72,36,0
246.46057,246.7636,76,36,0
246.46057,246.7636,72,36,0
247.36966,247.67268,76,36,0
247.36966,247.67268,72,36,0
256.46054,257.06662,73,36,0
261.9151,262.52115,57,36,0
0.90909,0.939393,64,49,0
0.90909,0.939393,61,49,0
0.90909,0.939393,57,49,0
1.21212,1.242423,64,49,0
1.21212,1.242423,59,49,0
1.21212,1.242423,56,49,0
1.81818,1.848483,64,36,0
1.81818,1.848483,61,36,0
1.81818,1.848483,57,36,0
2.72727,2.757573,64,49,0
2.72727,2.757573,62,49,0
2.72727,2.757573,59,49,0
3.0303,3.060603,64,49,0
3.0303,3.060603,61,49,0
3.0303,3.060603,57,49,0
3.63636,3.666663,64,36,0
3.63636,3.666663,62,36,0
3.63636,3.666663,59,36,0
4.54545,4.575753,64,49,0
4.54545,4.575753,61,49,0
4.84848,5.75757,67,75,0
4.84848,5.75757,62,70,0
4.84848,5.75757,59,65,0
5.75757,6.36363,62,36,0
5.75757,6.36363,59,36,0
5.75757,6.36363,54,36,0
6.36363,6.66666,64,36,0
6.36363,6.66666,61,36,0
6.36363,6.66666,54,36,0
6.66666,7.57575,62,36,0
6.66666,7.57575,59,36,0
8.18181,8.48484,62,36,0
8.18181,8.48484,59,36,0
8.48484,9.39393,65,62,0
8.48484,9.39393,60,57,0
8.48484,9.39393,57,52,0
9.39393,9.69696,44,36,0
9.69696,9.99999,52,36,0
9.99999,10.30302,59,36,0
10.30302,10.60605,45,36,0
10.60605,10.90908,52,36,0
10.90908,11.21211,61,36,0
11.21211,11.51514,47,36,0
11.51514,11.81817,56,36,0
11.81817,12.1212,62,36,0
12.1212,12.42423,49,36,0
12.42423,12.72726,57,36,0
12.72726,13.03029,61,36,0
13.63635,13.787865,61,36,0
13.787865,13.93938,59,36,0
14.090895,14.24241,57,36,0
14.24241,14.393925,52,36,0
14.393925,14.54544,49,36,0
14.54544,14.696955,45,36,0
15.45453,15.484833,64,49,0
15.45453,15.484833,61,49,0
15.45453,15.484833,57,49,0
15.75756,15.787863,64,49,0
15.75756,15.787863,59,49,0
15.75756,15.787863,56,49,0
16.36362,16.393923,64,36,0
16.36362,16.393923,61,36,0
16.36362,16.393923,57,36,0
17.27271,17.303013,64,49,0
17.27271,17.303013,62,49,0
17.27271,17.303013,59,49,0
17.57574,17.606043,64,49,0
17.57574,17.606043,61,49,0
17.57574,17.606043,57,49,0
18.1818,18.212103,64,36,0
18.1818,18.212103,62,36,0
18.1818,18.212103,59,36,0
19.09089,19.121193,64,49,0
19.09089,19.121193,61,49,0
19.39392,20.30301,67,75,0
19.39392,20.30301,62,70,0
19.39392,20.30301,59,65,0
20.30301,20.90907,62,36,0
20.30301,20.90907,59,36,0
20.30301,20.90907,54,36,0
20.90907,21.2121,64,36,0
20.90907,21.2121,61,36,0
20.90907,21.2121,54,36,0
21.2121,22.12119,62,36,0
21.2121,22.12119,59,36,0
22.72725,23.03028,62,36,0
22.72725,23.03028,59,36,0
23.03028,23.93937,65,62,0
23.03028,23.93937,60,57,0
23.03028,23.93937,57,52,0
23.93937,24.2424,44,36,0
24.2424,24.54543,52,36,0
24.54543,24.84846,59,36,0
24.84846,25.15149,45,36,0
25.15149,25.45452,52,36,0
25.45452,25.75755,61,36,0
25.75755,26.06058,47,36,0
26.06058,26.36361,56,36,0
26.36361,26.66664,62,36,0
26.66664,26.96967,49,36,0
26.96967,27.2727,57,36,0
27.2727,27.57573,61,36,0
28.18179,28.333305,61,36,0
28.333305,28.48482,59,36,0
28.636335,28.78785,57,36,0
28.78785,28.939365,52,36,0
28.939365,29.09088,49,36,0
29.09088,29.242395,45,36,0
29.356031,29.39391,41,36,0
29.39391,29.545425,40,75,0
29.545425,29.69694,39,75,0
29.69694,29.848455,40,75,0
29.848455,29.99997,39,75,0
29.99997,30.151485,40,75,0
30.151485,30.303,41,75,0
30.303,30.454515,41,75,0
30.454515,30.60603,40,75,0
30.60603,30.757545,36,75,0
30.757545,30.90906,43,75,0
30.90906,31.21209,52,75,0
31.21209,31.363605,52,75,0
31.363605,31.51512,50,75,0
31.51512,31.666636,47,75,0
31.81815,32.12118,55,75,0
31.81815,32.12118,50,75,0
31.666636,32.12118,43,75,0
32.12118,32.15148,55,75,0
32.12118,32.15148,48,75,0
32.42421,32.454514,55,75,0
32.42421,32.454514,50,75,0
32.72724,32.75754,55,75,0
32.72724,32.75754,52,75,0
33.181786,33.3333,55,75,0
33.3333,33.484814,50,75,0
33.484814,33.63633,47,75,0
33.63633,33.787846,43,75,0
33.93936,34.24239,43,36,0
34.24239,34.54542,50,36,0
34.54542,34.84845,55,36,0
34.84845,35.15148,43,36,0
35.15148,35.45451,52,36,0
35.45451,35.75754,55,36,0
36.06057,36.3636,50,36,0
36.3636,36.66663,55,36,0
36.96966,37.27269,52,36,0
37.27269,37.57572,55,36,0
37.87875,38.18178,50,36,0
38.18178,38.48481,55,36,0
38.78784,39.09087,52,36,0
39.09087,39.3939,55,36,0
39.69693,39.99996,50,36,0
39.99996,40.30299,55,36,0
40.60602,40.90905,52,36,0
40.90905,41.21208,55,36,0
41.51511,41.81814,50,36,0
41.81814,42.12117,55,36,0
42.4242,42.72723,52,36,0
42.72723,43.03026,55,36,0
43.33329,43.63632,52,36,0
43.63632,43.93935,55,36,0
44.24238,44.54541,52,36,0
44.54541,44.84844,55,36,0
44.84844,44.878742,56,114,0
44.84844,44.878742,44,102,0
44.84844,44.878742,49,106,0
44.84844,44.878742,52,110,0
45.15147,46.66662,56,88,0
45.15147,46.66662,44,88,0
45.15147,46.66662,49,88,0
45.15147,46.66662,52,88,0
46.66662,46.68177,44,62,0
46.66662,46.68177,32,62,0
46.96965,46.984802,56,101,0
46.96965,46.984802,44,101,0
48.78783,48.818134,68,36,0
48.78783,48.818134,64,36,0
48.78783,48.818134,61,36,0
49.69692,49.727222,66,36,0
49.69692,49.727222,61,36,0
49.69692,49.727222,57,36,0
50.60601,50.636314,64,62,0
50.60601,50.636314,61,62,0
50.60601,50.636314,56,62,0
51.5151,51.545403,62,62,0
51.5151,51.545403,57,62,0
51.5151,51.545403,54,62,0
52.42419,52.72722,64,36,0
52.42419,52.72722,61,36,0
52.42419,52.72722,56,36,0
53.03025,53.33328,64,36,0
53.33328,53.63631,68,36,0
53.63631,53.666615,68,36,0
54.24237,54.272675,56,36,0
54.24237,54.272675,52,36,0
54.24237,54.272675,49,36,0
54.5454,54.575703,56,36,0
54.5454,54.575703,52,36,0
54.5454,54.575703,49,36,0
55.15146,55.181763,54,36,0
55.15146,55.181763,49,36,0
55.15146,55.181763,45,36,0
55.45449,55.484795,54,36,0
55.45449,55.484795,49,36,0
55.45449,55.484795,45,36,0
56.06055,56.090855,52,62,0
56.06055,56.090855,49,62,0
56.06055,56.090855,44,62,0
56.36358,56.393883,52,62,0
56.36358,56.393883,49,62,0
56.36358,56.393883,44,62,0
56.96964,56.999943,50,62,0
56.96964,56.999943,45,62,0
56.96964,56.999943,42,62,0
57.27267,57.302975,50,62,0
57.27267,57.302975,45,62,0
57.27267,57.302975,42,62,0
57.87873,57.909035,49,36,0
57.87873,57.909035,40,36,0
58.18176,58.212063,45,36,0
58.18176,58.212063,40,36,0
58.48479,59.242367,52,36,0
58.48479,59.242367,40,36,0
59.99994,60.030243,64,49,0
59.99994,60.030243,61,49,0
59.99994,60.030243,57,49,0
60.30297,60.333275,64,49,0
60.30297,60.333275,59,49,0
60.30297,60.333275,56,49,0
60.90903,60.939335,64,36,0
60.90903,60.939335,61,36,0
60.90903,60.939335,57,36,0
61.81812,61.848423,64,49,0
61.81812,61.848423,62,49,0
61.81812,61.848423,59,49,0
62.12115,62.15145,64,49,0
62.12115,62.15145,61,49,0
62.12115,62.15145,57,49,0
62.72721,62.75751,64,36,0
62.72721,62.75751,62,36,0
62.72721,62.75751,59,36,0
63.6363,63.666603,64,49,0
63.6363,63.666603,61,49,0
63.93933,64.84842,67,75,0
63.93933,64.84842,62,70,0
63.93933,64.84842,59,65,0
65.15145,65.181755,66,49,0
65.15145,65.181755,62,49,0
65.15145,65.181755,57,49,0
65.45448,65.48478,67,49,0
65.45448,65.48478,61,49,0
65.45448,65.48478,57,49,0
65.75751,66.36357,66,49,0
65.75751,66.36357,62,49,0
67.27266,67.57569,62,49,0
67.27266,67.57569,59,49,0
67.57569,68.48478,65,49,0
67.57569,68.48478,60,49,0
67.57569,68.48478,57,49,0
68.78781,69.09084,64,49,0
68.78781,69.09084,60,49,0
68.78781,69.09084,55,49,0
69.09084,69.39387,65,49,0
69.09084,69.39387,59,49,0
69.09084,69.39387,55,49,0
69.39387,69.99993,64,49,0
69.39387,69.99993,60,49,0
70.30296,70.60599,47,49,0
70.60599,70.90902,55,49,0
70.90902,71.21205,62,49,0
71.21205,71.51508,48,62,0
71.51508,71.81811,55,62,0
71.81811,72.12114,64,62,0
72.12114,72.42417,50,62,0
72.42417,72.7272,59,62,0
72.7272,73.03023,65,62,0
73.03023,73.33326,52,62,0
73.33326,73.63629,60,62,0
73.63629,73.93932,64,62,0
73.93932,74.24235,44,36,0
74.24235,74.54538,52,36,0
74.54538,74.84841,59,36,0
74.84841,75.15144,45,36,0
75.15144,75.45447,52,36,0
75.45447,75.7575,61,36,0
75.7575,76.06053,47,36,0
76.06053,76.36356,56,36,0
76.36356,76.66659,62,36,0
76.66659,76.96962,49,36,0
76.96962,77.27265,57,36,0
77.27265,77.57568,61,36,0
78.18174,78.21204,64,88,0
78.18174,78.21204,61,88,0
78.18174,78.21204,57,88,0
78.48477,78.515076,62,88,0
78.48477,78.515076,57,88,0
78.48477,78.515076,50,88,0
79.39386,79.69689,64,36,0
79.39386,79.69689,52,36,0
79.39386,79.69689,57,36,0
79.39386,79.69689,61,36,0
79.69689,79.99992,64,36,0
79.69689,79.99992,52,36,0
79.69689,79.99992,57,36,0
79.69689,79.99992,61,36,0
80.30295,80.60598,64,36,0
80.30295,80.60598,52,36,0
80.30295,80.60598,59,36,0
80.30295,80.60598,62,36,0
80.60598,80.90901,64,36,0
80.60598,80.90901,52,36,0
80.60598,80.90901,59,36,0
80.60598,80.90901,62,36,0
81.8181,81.848404,52,88,0
81.8181,81.848404,49,88,0
81.8181,81.848404,45,88,0
82.12113,82.151436,50,88,0
82.12113,82.151436,45,88,0
82.12113,82.151436,38,88,0
83.03022,83.060524,64,36,0
83.03022,83.060524,52,36,0
83.03022,83.060524,57,36,0
83.03022,83.060524,61,36,0
83.33325,83.363556,64,36,0
83.33325,83.363556,52,36,0
83.33325,83.363556,57,36,0
83.33325,83.363556,61,36,0
83.93931,83.96961,64,36,0
83.93931,83.96961,52,36,0
83.93931,83.96961,59,36,0
83.93931,83.96961,62,36,0
84.24234,84.272644,64,36,0
84.24234,84.272644,52,36,0
84.24234,84.272644,59,36,0
84.24234,84.272644,62,36,0
84.8484,84.92416,57,75,0
84.92416,84.999916,52,75,0
84.999916,85.075676,49,75,0
85.15143,85.22719,52,75,0
85.22719,85.30295,49,75,0
85.30295,85.3787,45,75,0
85.45446,85.53022,45,75,0
85.53022,85.60597,40,75,0
85.60597,85.68173,37,75,0
85.75749,85.787796,33,101,0
86.6287,86.66658,41,75,0
86.66658,86.81809,40,75,0
86.81809,86.96961,39,75,0
86.96961,87.121124,40,75,0
87.121124,87.27264,39,75,0
87.27264,87.42416,40,75,0
87.42416,87.57567,41,75,0
87.57567,87.72719,41,75,0
87.72719,87.8787,40,75,0
87.8787,88.03021,36,75,0
88.03021,88.18173,43,75,0
88.18173,88.48476,52,75,0
88.48476,88.63628,52,75,0
88.63628,88.78779,50,75,0
88.78779,88.93931,47,75,0
89.09082,89.39385,55,75,0
89.09082,89.39385,50,75,0
88.93931,89.39385,43,75,0
89.39385,89.42416,55,75,0
89.39385,89.42416,48,75,0
89.69688,89.72718,55,75,0
89.69688,89.72718,50,75,0
89.99991,90.03021,55,75,0
89.99991,90.03021,52,75,0
90.45445,90.60597,55,75,0
90.60597,90.757484,50,75,0
90.757484,90.909,47,75,0
90.909,91.06052,43,75,0
91.21203,91.51506,43,36,0
91.51506,91.81809,50,36,0
91.81809,92.12112,55,36,0
92.12112,92.42415,43,36,0
92.42415,92.72718,52,36,0
92.72718,93.03021,55,36,0
93.33324,93.63627,50,36,0
93.63627,93.9393,55,36,0
94.24233,94.54536,52,36,0
94.54536,94.84839,55,36,0
95.15142,95.45445,50,36,0
95.45445,95.75748,55,36,0
96.06051,96.36354,52,36,0
96.36354,96.66657,55,36,0
96.9696,97.27263,50,36,0
97.27263,97.57566,55,36,0
97.87869,98.18172,52,36,0
98.18172,98.48475,55,36,0
98.78778,99.09081,50,36,0
99.09081,99.39384,55,36,0
99.69687,99.9999,52,36,0
99.9999,100.30293,55,36,0
100.60596,100.90899,52,36,0
100.90899,101.21202,55,36,0
101.51505,101.81808,52,36,0
101.81808,102.12111,55,36,0
102.12111,102.15141,56,114,0
102.12111,102.15141,44,102,0
102.12111,102.15141,49,106,0
102.12111,102.15141,52,110,0
102.42414,103.93929,56,88,0
102.42414,103.93929,44,88,0
102.42414,103.93929,49,88,0
102.42414,103.93929,52,88,0
103.93929,103.954445,44,62,0
103.93929,103.954445,32,62,0
104.24232,104.25747,56,101,0
104.24232,104.25747,44,101,0
106.0605,106.090805,68,36,0
106.0605,106.090805,64,36,0
106.0605,106.090805,61,36,0
106.96959,106.99989,66,36,0
106.96959,106.99989,61,36,0
106.96959,106.99989,57,36,0
107.87868,107.90898,64,62,0
107.87868,107.90898,61,62,0
107.87868,107.90898,56,62,0
108.78777,108.81807,62,62,0
108.78777,108.81807,57,62,0
108.78777,108.81807,54,62,0
109.69686,109.99989,64,36,0
109.69686,109.99989,61,36,0
109.69686,109.99989,56,36,0
110.30292,110.60595,64,36,0
110.60595,110.90898,68,36,0
110.90898,110.939285,68,36,0
111.51504,111.54534,56,36,0
111.51504,111.54534,52,36,0
111.51504,111.54534,49,36,0
111.81807,111.84837,56,36,0
111.81807,111.84837,52,36,0
111.81807,111.84837,49,36,0
112.42413,112.45443,54,36,0
112.42413,112.45443,49,36,0
112.42413,112.45443,45,36,0
112.72716,112.75746,54,36,0
112.72716,112.75746,49,36,0
112.72716,112.75746,45,36,0
113.33322,113.363525,52,62,0
113.33322,113.363525,49,62,0
113.33322,113.363525,44,62,0
113.63625,113.66655,52,62,0
113.63625,113.66655,49,62,0
113.63625,113.66655,44,62,0
114.24231,114.27261,50,62,0
114.24231,114.27261,45,62,0
114.24231,114.27261,42,62,0
114.54534,114.575645,50,62,0
114.54534,114.575645,45,62,0
114.54534,114.575645,42,62,0
115.1514,115.1817,49,36,0
115.1514,115.1817,40,36,0
115.45443,115.48473,45,36,0
115.45443,115.48473,40,36,0
115.75746,116.51504,52,36,0
115.75746,116.51504,40,36,0
117.27261,117.30291,64,49,0
117.27261,117.30291,61,49,0
117.27261,117.30291,57,49,0
117.57564,117.60594,64,49,0
117.57564,117.60594,59,49,0
117.57564,117.60594,56,49,0
118.1817,118.212006,64,36,0
118.1817,118.212006,61,36,0
118.1817,118.212006,57,36,0
119.09079,119.12109,64,49,0
119.09079,119.12109,62,49,0
119.09079,119.12109,59,49,0
119.39382,119.424126,64,49,0
119.39382,119.424126,61,49,0
119.39382,119.424126,57,49,0
119.99988,120.03018,64,36,0
119.99988,120.03018,62,36,0
119.99988,120.03018,59,36,0
120.90897,120.93927,64,49,0
120.90897,120.93927,61,49,0
121.212,122.12109,67,75,0
121.212,122.12109,62,70,0
121.212,122.12109,59,65,0
122.42412,122.45442,66,49,0
122.42412,122.45442,62,49,0
122.42412,122.45442,57,49,0
122.72715,122.757454,67,49,0
122.72715,122.757454,61,49,0
122.72715,122.757454,57,49,0
123.03018,123.63624,66,49,0
123.03018,123.63624,62,49,0
124.54533,124.84836,62,49,0
124.54533,124.84836,59,49,0
124.84836,125.75745,65,49,0
124.84836,125.75745,60,49,0
124.84836,125.75745,57,49,0
126.06048,126.36351,64,49,0
126.06048,126.36351,60,49,0
126.06048,126.36351,55,49,0
126.36351,126.66654,65,49,0
126.36351,126.66654,59,49,0
126.36351,126.66654,55,49,0
126.66654,127.2726,64,49,0
126.66654,127.2726,60,49,0
127.57563,127.87866,47,49,0
127.87866,128.18169,55,49,0
128.18169,128.48473,62,49,0
128.48473,128.78775,48,62,0
128.78775,129.09077,55,62,0
129.09077,129.39381,64,62,0
129.39381,129.69684,50,62,0
129.69684,129.99986,59,62,0
129.99986,130.3029,65,62,0
130.3029,130.60593,52,62,0
130.60593,130.90897,60,62,0
130.90897,131.21199,64,62,0
131.21199,131.51501,44,36,0
131.51501,131.81805,52,36,0
131.81805,132.12108,59,36,0
132.12108,132.4241,45,36,0
132.4241,132.72714,52,36,0
132.72714,133.03017,61,36,0
133.03017,133.3332,47,36,0
133.3332,133.63623,56,36,0
133.63623,133.93925,62,36,0
133.93925,134.2423,49,36,0
134.2423,134.54532,57,36,0
134.54532,134.84834,61,36,0
135.4544,135.48471,64,88,0
135.4544,135.48471,61,88,0
135.4544,135.48471,57,88,0
135.75745,135.78775,62,88,0
135.75745,135.78775,57,88,0
135.75745,135.78775,50,88,0
136.66653,136.96956,64,36,0
136.66653,136.96956,52,36,0
136.66653,136.96956,57,36,0
136.66653,136.96956,61,36,0
136.96956,137.27258,64,36,0
136.96956,137.27258,52,36,0
136.96956,137.27258,57,36,0
136.96956,137.27258,61,36,0
137.57562,137.87865,64,36,0
137.57562,137.87865,52,36,0
137.57562,137.87865,59,36,0
137.57562,137.87865,62,36,0
137.87865,138.18169,64,36,0
137.87865,138.18169,52,36,0
137.87865,138.18169,59,36,0
137.87865,138.18169,62,36,0
139.09077,139.12108,52,88,0
139.09077,139.12108,49,88,0
139.09077,139.12108,45,88,0
139.3938,139.4241,50,88,0
139.3938,139.4241,45,88,0
139.3938,139.4241,38,88,0
140.30289,140.33319,64,36,0
140.30289,140.33319,52,36,0
140.30289,140.33319,57,36,0
140.30289,140.33319,61,36,0
140.60593,140.63623,64,36,0
140.60593,140.63623,52,36,0
140.60593,140.63623,57,36,0
140.60593,140.63623,61,36,0
141.21198,141.24228,64,36,0
141.21198,141.24228,52,36,0
141.21198,141.24228,59,36,0
141.21198,141.24228,62,36,0
141.51501,141.54532,64,36,0
141.51501,141.54532,52,36,0
141.51501,141.54532,59,36,0
141.51501,141.54532,62,36,0
142.12106,142.19682,57,75,0
142.19682,142.27258,52,75,0
142.27258,142.34834,49,75,0
142.4241,142.49986,52,75,0
142.49986,142.57562,49,75,0
142.57562,142.65137,45,75,0
142.72713,142.80289,45,75,0
142.80289,142.87865,40,75,0
142.87865,142.9544,37,75,0
143.03017,143.06047,33,101,0
143.93925,143.97699,50,36,0
145.07132,145.10905,50,36,0
146.2034,146.24113,50,36,0
147.71283,147.7317,45,36,0
147.9015,147.92038,43,36,0
148.0902,148.10905,42,36,0
148.27887,148.29773,40,36,0
148.46754,148.50528,38,36,0
149.59962,149.63736,50,36,0
150.73169,150.76942,45,36,0
152.24112,152.26,45,36,0
152.42981,152.44867,45,36,0
152.61848,152.63734,47,36,0
152.80716,152.82603,49,36,0
152.99585,153.03358,50,36,0
154.12791,154.16565,50,36,0
155.26,155.29773,50,36,0
156.76942,156.78828,45,36,0
156.9581,156.97697,43,36,0
157.14677,157.16565,42,36,0
157.33546,157.35432,40,36,0
157.52414,157.56187,38,36,0
158.65622,158.69395,50,36,0
159.78828,159.82602,45,36,0
161.29771,161.31659,45,36,0
161.4864,161.50526,49,36,0
161.67508,161.71281,50,36,0
162.4298,162.46753,45,62,0
163.56186,163.59961,45,62,0
165.82602,165.84488,45,62,0
166.0147,166.03355,46,62,0
166.20337,166.22224,45,62,0
166.95808,166.99582,45,101,0
168.09016,168.1279,45,127,0
168.46751,168.50525,41,101,0
168.84488,168.88261,36,127,0
170.73167,170.76941,48,127,0
171.10902,171.14676,36,127,0
172.99582,173.03355,48,127,0
173.37317,173.4109,36,127,0
174.8826,174.92035,61,127,0
175.25996,175.2977,49,127,0
175.63733,175.67506,37,127,0
176.01468,176.05241,45,127,0
177.90147,177.93921,50,36,0
179.03354,179.07127,50,36,0
180.16562,180.20335,50,36,0
181.2977,181.33543,50,36,0
182.42976,182.4675,62,36,0
183.56184,183.59958,62,36,0
184.69391,184.73164,62,36,0
185.82599,185.86372,62,36,0
187.33542,187.37315,45,62,0
188.4675,188.50523,45,62,0
190.73164,190.7505,45,62,0
190.92032,190.9392,46,62,0
191.109,191.12787,45,62,0
191.86371,191.90146,45,101,0
192.99579,193.03352,45,127,0
193.37315,193.41089,41,101,0
193.7505,193.78824,36,127,0
195.6373,195.67503,48,127,0
196.01465,196.05238,36,127,0
197.90144,197.93918,48,127,0
198.27881,198.31654,36,127,0
199.78824,199.82597,61,127,0
200.16559,200.20332,49,127,0
200.54295,200.58069,37,127,0
200.9203,200.95804,45,127,0
202.8071,202.84483,50,36,0
203.93918,203.97691,50,36,0
205.07124,205.10898,50,36,0
206.20332,206.24106,50,36,0
207.33539,207.37312,62,36,0
208.46747,208.5052,62,36,0
209.59955,209.63728,62,36,0
210.73161,210.76935,62,36,0
211.8637,211.90143,62,36,0
212.99576,213.0335,62,36,0
214.12784,214.16557,59,36,0
215.25992,215.29765,56,36,0
218.88484,218.91515,64,49,0
218.88484,218.91515,61,49,0
218.88484,218.91515,57,49,0
219.18787,219.21817,64,49,0
219.18787,219.21817,59,49,0
219.18787,219.21817,56,49,0
219.79393,219.82423,64,36,0
219.79393,219.82423,61,36,0
219.79393,219.82423,57,36,0
220.70302,220.73332,64,49,0
220.70302,220.73332,62,49,0
220.70302,220.73332,59,49,0
221.00604,221.03635,64,49,0
221.00604,221.03635,61,49,0
221.00604,221.03635,57,49,0
221.6121,221.64241,64,36,0
221.6121,221.64241,62,36,0
221.6121,221.64241,59,36,0
222.5212,222.5515,64,49,0
222.5212,222.5515,61,49,0
222.82422,223.73332,67,75,0
222.82422,223.73332,62,70,0
222.82422,223.73332,59,65,0
223.73332,224.33937,62,36,0
223.73332,224.33937,59,36,0
223.73332,224.33937,54,36,0
224.33937,224.64241,64,36,0
224.33937,224.64241,61,36,0
224.33937,224.64241,54,36,0
224.64241,225.5515,62,36,0
224.64241,225.5515,59,36,0
226.15756,226.46059,62,36,0
226.15756,226.46059,59,36,0
226.46059,227.36967,65,62,0
226.46059,227.36967,60,57,0
226.46059,227.36967,57,52,0
227.36967,227.6727,44,36,0
227.6727,227.97574,52,36,0
227.97574,228.27876,59,36,0
228.27876,228.5818,45,36,0
228.5818,228.88483,52,36,0
228.88483,229.18785,61,36,0
229.18785,229.49089,47,36,0
229.49089,229.79391,56,36,0
229.79391,230.09694,62,36,0
230.09694,230.39998,49,36,0
230.39998,230.703,57,36,0
230.703,231.00604,61,36,0
231.61209,231.76361,61,36,0
231.76361,231.91513,59,36,0
232.06664,232.21815,57,36,0
232.21815,232.36967,52,36,0
232.36967,232.52118,49,36,0
232.52118,232.6727,45,36,0
232.78633,232.82422,41,36,0
232.82422,232.97574,40,75,0
232.97574,233.12724,39,75,0
233.12724,233.27876,40,75,0
233.27876,233.43028,39,75,0
233.43028,233.58179,40,75,0
233.58179,233.7333,41,75,0
233.7333,233.88483,41,75,0
233.88483,234.03633,40,75,0
234.03633,234.18785,36,75,0
234.18785,234.33937,43,75,0
234.33937,234.6424,52,75,0
234.6424,234.79391,52,75,0
234.79391,234.94542,50,75,0
234.94542,235.09694,47,75,0
235.24846,235.55148,55,75,0
235.24846,235.55148,50,75,0
235.09694,235.55148,43,75,0
235.55148,235.58179,55,75,0
235.55148,235.58179,48,75,0
235.85452,235.88481,55,75,0
235.85452,235.88481,50,75,0
236.15755,236.18785,55,75,0
236.15755,236.18785,52,75,0
236.61209,236.76361,55,75,0
236.76361,236.91512,50,75,0
236.91512,237.06664,47,75,0
237.06664,237.21815,43,75,0
237.36966,237.6727,43,36,0
237.6727,237.97572,50,36,0
237.97572,238.27876,55,36,0
238.27876,238.58179,43,36,0
238.58179,238.88481,52,36,0
238.88481,239.18785,55,36,0
239.49088,239.7939,50,36,0
239.7939,240.09694,55,36,0
240.39996,240.703,52,36,0
240.703,241.00603,55,36,0
241.30905,241.61209,50,36,0
241.61209,241.91512,55,36,0
242.21814,242.52118,52,36,0
242.52118,242.8242,55,36,0
243.12724,243.43027,50,36,0
243.43027,243.73329,55,36,0
244.03633,244.33936,52,36,0
244.33936,244.64238,55,36,0
244.94542,245.24844,50,36,0
245.24844,245.55148,55,36,0
245.8545,246.15753,52,36,0
246.15753,246.46057,55,36,0
246.7636,247.06662,52,36,0
247.06662,247.36966,55,36,0
247.67268,247.97572,52,36,0
247.97572,248.27875,55,36,0
248.27875,248.30905,56,114,0
248.27875,248.30905,44,102,0
248.27875,248.30905,49,106,0
248.27875,248.30905,52,110,0
248.58177,250.09692,56,88,0
248.58177,250.09692,44,88,0
248.58177,250.09692,49,88,0
248.58177,250.09692,52,88,0
250.09692,250.11208,44,62,0
250.09692,250.11208,32,62,0
250.39996,250.4151,56,101,0
250.39996,250.4151,44,101,0
252.21814,252.24844,68,36,0
252.21814,252.24844,64,36,0
252.21814,252.24844,61,36,0
253.12723,253.15753,66,36,0
253.12723,253.15753,61,36,0
253.12723,253.15753,57,36,0
254.03632,254.06662,64,62,0
254.03632,254.06662,61,62,0
254.03632,254.06662,56,62,0
254.9454,254.97571,62,62,0
254.9454,254.97571,57,62,0
254.9454,254.97571,54,62,0
255.85449,256.15753,64,36,0
255.85449,256.15753,61,36,0
255.85449,256.15753,56,36,0
256.46054,256.76358,64,36,0
256.76358,257.06662,68,36,0
257.06662,257.09692,68,36,0
257.67267,257.70297,56,36,0
257.67267,257.70297,52,36,0
257.67267,257.70297,49,36,0
257.9757,258.006,56,36,0
257.9757,258.006,52,36,0
257.9757,258.006,49,36,0
258.58176,258.61206,54,36,0
258.58176,258.61206,49,36,0
258.58176,258.61206,45,36,0
258.8848,258.9151,54,36,0
258.8848,258.9151,49,36,0
258.8848,258.9151,45,36,0
259.49084,259.52115,52,62,0
259.49084,259.52115,49,62,0
259.49084,259.52115,44,62,0
259.79388,259.8242,52,62,0
259.79388,259.8242,49,62,0
259.79388,259.8242,44,62,0
260.39993,260.43024,50,62,0
260.39993,260.43024,45,62,0
260.39993,260.43024,42,62,0
260.70297,260.73328,50,62,0
260.70297,260.73328,45,62,0
260.70297,260.73328,42,62,0
261.30902,261.33932,49,36,0
261.30902,261.33932,40,36,0
261.61206,261.64236,45,36,0
261.61206,261.64236,40,36,0
261.9151,262.67267,52,36,0
261.9151,262.67267,40,36,0
263.43024,263.46054,64,49,0
263.43024,263.46054,61,49,0
263.43024,263.46054,57,49,0
263.73328,263.76358,64,49,0
263.73328,263.76358,59,49,0
263.73328,263.76358,56,49,0
264.33932,264.36963,64,36,0
264.33932,264.36963,61,36,0
264.33932,264.36963,57,36,0
265.2484,265.27872,64,49,0
265.2484,265.27872,62,49,0
265.2484,265.27872,59,49,0
265.55145,265.58176,64,49,0
265.55145,265.58176,61,49,0
265.55145,265.58176,57,49,0
266.1575,266.1878,64,36,0
266.1575,266.1878,62,36,0
266.1575,266.1878,59,36,0
267.06662,267.09692,64,49,0
267.06662,267.09692,61,49,0
267.36963,268.27872,67,75,0
267.36963,268.27872,62,70,0
267.36963,268.27872,59,65,0
268.58176,268.61206,66,49,0
268.58176,268.61206,62,49,0
268.58176,268.61206,57,49,0
268.8848,268.9151,67,49,0
268.8848,268.9151,61,49,0
268.8848,268.9151,57,49,0
269.1878,269.79388,66,49,0
269.1878,269.79388,62,49,0
270.70297,271.00598,62,49,0
270.70297,271.00598,59,49,0
271.00598,271.9151,65,49,0
271.00598,271.9151,60,49,0
271.00598,271.9151,57,49,0
272.2181,272.52115,64,49,0
272.2181,272.52115,60,49,0
272.2181,272.52115,55,49,0
272.52115,272.8242,65,49,0
272.52115,272.8242,59,49,0
272.52115,272.8242,55,49,0
272.8242,273.43024,64,49,0
272.8242,273.43024,60,49,0
273.73328,274.0363,47,49,0
274.0363,274.33932,55,49,0
274.33932,274.64236,62,49,0
274.64236,274.94537,48,62,0
274.94537,275.2484,55,62,0
275.2484,275.55145,64,62,0
275.55145,275.85446,50,62,0
275.85446,276.1575,59,62,0
276.1575,276.46054,65,62,0
276.46054,276.76358,52,62,0
276.76358,277.0666,60,62,0
277.0666,277.36963,64,62,0
277.36963,277.67267,44,36,0
277.67267,277.97568,52,36,0
277.97568,278.27872,59,36,0
278.27872,278.58176,45,36,0
278.58176,278.88477,52,36,0
278.88477,279.1878,61,36,0
279.1878,279.49084,47,36,0
279.49084,279.79385,56,36,0
279.79385,280.0969,62,36,0
280.0969,280.39993,49,36,0
280.39993,280.70294,57,36,0
280.70294,281.00598,61,36,0
281.61206,281.64233,64,88,0
281.61206,281.64233,61,88,0
281.61206,281.64233,57,88,0
281.91507,281.94537,62,88,0
281.91507,281.94537,57,88,0
281.91507,281.94537,50,88,0
282.82416,283.1272,64,36,0
282.82416,283.1272,52,36,0
282.82416,283.1272,57,36,0
282.82416,283.1272,61,36,0
283.1272,283.43024,64,36,0
283.1272,283.43024,52,36,0
283.1272,283.43024,57,36,0
283.1272,283.43024,61,36,0
283.73325,284.0363,64,36,0
283.73325,284.0363,52,36,0
283.73325,284.0363,59,36,0
283.73325,284.0363,62,36,0
284.0363,284.33932,64,36,0
284.0363,284.33932,52,36,0
284.0363,284.33932,59,36,0
284.0363,284.33932,62,36,0
285.2484,285.27872,52,88,0
285.2484,285.27872,49,88,0
285.2484,285.27872,45,88,0
285.55142,285.58173,50,88,0
285.55142,285.58173,45,88,0
285.55142,285.58173,38,88,0
286.46054,286.4908,64,36,0
286.46054,286.4908,52,36,0
286.46054,286.4908,57,36,0
286.46054,286.4908,61,36,0
286.76355,286.79385,64,36,0
286.76355,286.79385,52,36,0
286.76355,286.79385,57,36,0
286.76355,286.79385,61,36,0
287.36963,287.39993,64,36,0
287.36963,287.39993,52,36,0
287.36963,287.39993,59,36,0
287.36963,287.39993,62,36,0
287.67264,287.70294,64,36,0
287.67264,287.70294,52,36,0
287.67264,287.70294,59,36,0
287.67264,287.70294,62,36,0
288.27872,288.35446,57,75,0
288.35446,288.4302,52,75,0
288.4302,288.50598,49,75,0
288.58173,288.6575,52,75,0
288.6575,288.73325,49,75,0
288.73325,288.80902,45,75,0
288.88477,288.9605,45,75,0
288.9605,289.0363,40,75,0
289.0363,289.11203,37,75,0
289.1878,289.2181,33,101,0
13.03029,13.33332,47,36,0
13.33332,13.63635,50,36,0
13.63635,13.93938,52,36,0
27.57573,27.87876,47,36,0
27.87876,28.18179,50,36,0
28.18179,28.48482,52,36,0
33.93936,34.84845,43,36,0
34.84845,35.75754,43,36,0
35.75754,36.66663,43,36,0
36.66663,37.57572,43,36,0
37.57572,38.48481,43,36,0
38.48481,39.3939,43,36,0
39.3939,40.30299,43,36,0
40.30299,41.21208,43,36,0
41.21208,42.12117,43,36,0
42.12117,43.03026,43,36,0
43.03026,43.93935,43,36,0
43.93935,44.84844,43,36,0
53.03025,53.63631,56,36,0
53.63631,53.93934,56,36,0
91.21203,92.12112,43,36,0
92.12112,93.03021,43,36,0
93.03021,93.9393,43,36,0
93.9393,94.84839,43,36,0
94.84839,95.75748,43,36,0
95.75748,96.66657,43,36,0
96.66657,97.57566,43,36,0
97.57566,98.48475,43,36,0
98.48475,99.39384,43,36,0
99.39384,100.30293,43,36,0
100.30293,101.21202,43,36,0
101.21202,102.12111,43,36,0
110.30292,110.90898,56,36,0
110.90898,111.21201,56,36,0
231.00604,231.30907,47,36,0
231.30907,231.61209,50,36,0
231.61209,231.91513,52,36,0
237.36966,238.27876,43,36,0
238.27876,239.18785,43,36,0
239.18785,240.09694,43,36,0
240.09694,241.00603,43,36,0
241.00603,241.91512,43,36,0
241.91512,242.8242,43,36,0
242.8242,243.73329,43,36,0
243.73329,244.64238,43,36,0
244.64238,245.55148,43,36,0
245.55148,246.46057,43,36,0
246.46057,247.36966,43,36,0
247.36966,248.27875,43,36,0
256.46054,257.06662,56,36,0
257.06662,257.36966,56,36,0
