start_time,end_time,note_value,velocity,instrument_program_number
0.0,0.2173915,61,49,0
0.434783,1.304349,64,49,0
0.434783,1.304349,61,49,0
1.304349,1.739132,69,49,0
1.304349,1.739132,64,49,0
1.304349,1.739132,61,49,0
1.739132,2.173915,69,49,0
2.173915,2.3913064,68,49,0
1.739132,2.3913064,64,49,0
1.739132,2.3913064,62,49,0
2.608698,3.478264,69,49,0
2.608698,3.478264,64,49,0
2.608698,3.478264,61,49,0
3.478264,4.1304383,71,49,0
3.478264,4.1304383,69,49,0
3.478264,4.1304383,66,49,0
4.1304383,4.34783,71,49,0
4.1304383,4.34783,69,49,0
4.1304383,4.34783,66,49,0
4.34783,4.782613,73,49,0
4.34783,4.782613,69,49,0
4.34783,4.782613,66,49,0
4.782613,5.217396,69,49,0
4.782613,5.217396,66,49,0
4.782613,5.217396,61,49,0
5.217396,6.086962,69,49,0
5.217396,6.086962,64,49,0
5.217396,6.086962,61,49,0
6.086962,6.3043537,68,49,0
6.3043537,6.521745,66,49,0
6.521745,6.7391367,64,49,0
6.7391367,6.956528,62,49,0
6.956528,7.1739197,61,49,0
7.391311,8.260877,64,49,0
7.391311,8.260877,61,49,0
8.260877,8.69566,69,49,0
8.260877,8.69566,64,49,0
8.260877,8.69566,61,49,0
8.69566,9.130443,69,49,0
9.130443,9.347835,68,49,0
8.69566,9.347835,64,49,0
8.69566,9.347835,62,49,0
9.565226,10.434792,69,49,0
9.565226,10.434792,64,49,0
9.565226,10.434792,61,49,0
10.434792,10.869575,71,49,0
10.434792,10.869575,69,49,0
10.434792,10.869575,66,49,0
10.869575,11.0869665,73,49,0
10.869575,11.0869665,69,49,0
10.869575,11.0869665,64,49,0
11.0869665,11.304358,74,49,0
11.0869665,11.304358,69,49,0
11.0869665,11.304358,62,49,0
11.304358,11.3478365,73,49,0
11.304358,11.3478365,69,49,0
11.304358,11.3478365,64,49,0
11.739141,11.782619,71,49,0
11.739141,11.782619,64,49,0
11.739141,11.782619,62,49,0
12.173924,13.04349,71,49,0
12.173924,13.04349,64,49,0
12.173924,13.04349,62,49,0
13.04349,13.260881,69,49,0
13.04349,13.260881,64,49,0
13.04349,13.260881,61,49,0
13.260881,13.28262,71,49,0
13.260881,13.28262,59,49,0
13.478273,13.500012,73,49,0
13.478273,13.500012,61,49,0
13.695664,13.717403,74,49,0
13.695664,13.717403,62,49,0
13.913056,14.56523,76,62,0
13.913056,14.56523,64,62,0
14.56523,14.782622,76,62,0
14.56523,14.782622,64,62,0
14.782622,15.652188,78,62,0
14.782622,15.652188,66,62,0
15.652188,16.086971,76,75,0
15.652188,16.086971,64,75,0
16.086971,16.304363,75,75,0
16.086971,16.304363,63,75,0
16.521753,17.17393,71,75,0
16.521753,17.17393,59,75,0
17.17393,17.39132,73,75,0
17.17393,17.39132,61,75,0
17.39132,18.043495,74,75,0
17.39132,18.043495,62,75,0
18.043495,18.260885,74,75,0
18.043495,18.260885,62,75,0
18.260885,19.130451,76,101,0
18.260885,19.130451,64,93,0
19.130451,19.347843,69,75,0
19.347843,19.420307,71,75,0
19.420307,19.492771,69,75,0
19.489147,19.561611,68,75,0
19.565235,19.782627,69,75,0
19.782627,20.000017,71,75,0
20.000017,20.869583,73,75,0
20.000017,20.869583,69,75,0
20.000017,20.869583,64,75,0
20.869583,20.913063,71,49,0
20.869583,20.913063,69,49,0
20.869583,20.913063,66,49,0
21.304367,21.347845,71,49,0
21.304367,21.347845,69,49,0
21.304367,21.347845,66,49,0
21.73915,22.173933,71,49,0
21.73915,22.173933,68,49,0
21.73915,22.173933,64,49,0
22.173933,22.500021,74,49,0
22.500021,22.608715,73,49,0
22.608715,23.478283,73,49,0
22.608715,23.478283,69,49,0
23.478283,24.130457,76,114,0
24.130457,24.239153,74,49,0
24.239153,24.347849,73,49,0
24.347849,24.391327,71,49,0
24.347849,24.391327,69,49,0
24.347849,24.391327,66,49,0
24.78263,24.826109,71,49,0
24.78263,24.826109,69,49,0
24.78263,24.826109,66,49,0
25.217415,25.652197,71,49,0
25.217415,25.652197,68,49,0
25.217415,25.652197,64,49,0
25.652197,25.978285,74,49,0
25.978285,26.08698,73,49,0
26.08698,26.739155,69,49,0
26.08698,26.739155,61,49,0
26.739155,26.760893,68,49,0
26.956547,26.978285,69,49,0
27.173937,27.195677,71,49,0
27.173937,27.195677,59,49,0
27.391329,27.413069,73,49,0
27.391329,27.413069,61,49,0
27.60872,27.630459,74,49,0
27.60872,27.630459,62,49,0
27.826113,28.478287,76,62,0
27.826113,28.478287,64,62,0
28.478287,28.695679,76,62,0
28.478287,28.695679,64,62,0
28.695679,29.565245,78,62,0
28.695679,29.565245,66,62,0
29.565245,30.000027,76,75,0
29.565245,30.000027,64,75,0
30.000027,30.217419,75,75,0
30.000027,30.217419,63,75,0
30.43481,31.086985,71,75,0
30.43481,31.086985,59,75,0
31.086985,31.304377,73,75,0
31.086985,31.304377,61,75,0
31.304377,31.95655,74,75,0
31.304377,31.95655,62,75,0
31.95655,32.173943,74,75,0
31.95655,32.173943,62,75,0
32.173943,33.043507,76,101,0
32.173943,33.043507,64,93,0
33.043507,33.2609,69,75,0
33.2609,33.333363,71,75,0
33.333363,33.405827,69,75,0
33.402203,33.474667,68,75,0
33.47829,33.695683,69,75,0
33.695683,33.913074,71,75,0
33.913074,34.78264,73,75,0
33.913074,34.78264,69,75,0
33.913074,34.78264,64,75,0
34.78264,34.82612,71,49,0
34.78264,34.82612,69,49,0
34.78264,34.82612,66,49,0
35.217422,35.260902,71,49,0
35.217422,35.260902,69,49,0
35.217422,35.260902,66,49,0
35.652206,36.08699,71,49,0
35.652206,36.08699,68,49,0
35.652206,36.08699,64,49,0
36.08699,36.413074,74,49,0
36.413074,36.52177,73,49,0
36.52177,37.39134,73,49,0
36.52177,37.39134,69,49,0
37.39134,38.043514,76,114,0
38.043514,38.152206,74,49,0
38.152206,38.260902,73,49,0
38.260902,38.304382,71,49,0
38.260902,38.304382,69,49,0
38.260902,38.304382,66,49,0
38.695686,38.739166,71,49,0
38.695686,38.739166,69,49,0
38.695686,38.739166,66,49,0
39.13047,39.565254,71,49,0
39.13047,39.565254,68,49,0
39.13047,39.565254,64,49,0
39.565254,39.89134,74,49,0
39.89134,40.000034,73,49,0
40.000034,41.086994,69,49,0
40.000034,41.086994,61,49,0
41.739166,41.884094,85,36,0
41.880474,42.0254,86,36,0
42.029022,42.17395,88,36,0
42.17395,42.31888,86,36,0
42.315254,42.460182,85,36,0
42.463806,42.608734,83,36,0
42.608734,42.753662,81,36,0
42.75004,42.894966,83,36,0
42.89859,43.043518,85,36,0
43.043518,43.188446,81,36,0
43.184822,43.32975,80,36,0
43.333374,43.4783,78,36,0
43.4783,43.623226,76,36,0
43.619606,43.764534,75,36,0
43.768154,43.913082,76,36,0
43.913082,44.05801,77,36,0
44.054386,44.199314,78,36,0
44.202938,44.347866,74,36,0
44.347866,44.492794,73,36,0
44.48917,44.634098,71,36,0
44.637722,44.78265,69,36,0
44.78265,44.927578,68,36,0
44.923954,45.068882,71,36,0
45.072506,45.21743,69,36,0
45.21743,45.36236,66,36,0
45.358738,45.503666,69,36,0
45.507286,45.652214,81,36,0
45.652214,45.797142,69,36,0
45.793518,45.938446,81,36,0
45.94207,46.086998,69,36,0
46.086998,46.231926,66,36,0
46.228302,46.37323,69,36,0
46.376854,46.521782,81,36,0
46.521782,46.66671,69,36,0
46.663086,46.808014,73,36,0
46.811638,46.956566,85,36,0
46.956566,47.10149,73,36,0
47.09787,47.242798,76,36,0
47.246418,47.391346,80,36,0
47.391346,47.536274,81,36,0
47.53265,47.677578,83,36,0
47.681202,47.82613,85,36,0
47.82613,47.971058,83,36,0
47.967434,48.112362,85,36,0
48.115986,48.260914,86,36,0
48.260914,48.40584,85,36,0
48.402218,48.547146,86,36,0
48.55077,48.695698,83,36,0
48.695698,48.840622,85,36,0
48.837,48.98193,86,36,0
48.98555,49.130478,88,36,0
49.130478,49.275406,86,36,0
49.271782,49.41671,85,36,0
49.420334,49.56526,83,36,0
49.56526,49.71019,81,36,0
49.706566,49.851494,83,36,0
49.855118,50.000046,85,36,0
50.000046,50.144974,81,36,0
50.14135,50.286278,80,36,0
50.2899,50.43483,78,36,0
50.43483,50.579754,76,36,0
50.576134,50.72106,75,36,0
50.72468,50.86961,76,36,0
50.86961,51.014538,77,36,0
51.010914,51.15584,78,36,0
51.159466,51.304394,74,36,0
51.304394,51.44932,73,36,0
51.445698,51.590626,71,36,0
51.59425,51.739178,69,36,0
51.739178,51.884106,68,36,0
51.88048,52.02541,71,36,0
52.029034,52.17396,69,36,0
52.17396,52.318886,69,36,0
52.315266,52.460194,78,36,0
52.463814,52.60874,69,36,0
52.60874,52.75367,76,36,0
52.750046,52.894974,69,36,0
52.898598,53.043526,74,36,0
53.043526,53.188454,76,36,0
53.18483,53.329758,69,36,0
53.33338,53.47831,81,36,0
53.47831,53.623238,76,36,0
53.619614,53.76454,68,36,0
53.768166,53.913094,80,36,0
53.913094,54.05802,80,36,0
54.054398,54.199326,86,36,0
54.202946,54.347874,85,36,0
54.347874,54.4928,83,36,0
54.489178,54.634106,81,36,0
54.63773,54.782658,80,36,0
54.782658,55.00005,81,36,0
55.652225,55.67396,69,36,0
55.869614,55.891354,71,36,0
56.087006,56.108746,73,36,0
56.304398,56.326138,74,36,0
56.52179,56.666718,76,36,0
56.663094,56.80802,75,36,0
56.811646,56.956573,76,36,0
56.956573,57.1015,78,36,0
57.097878,57.242805,85,36,0
57.24643,57.391357,77,36,0
57.391357,57.536285,78,36,0
57.53266,57.67759,77,36,0
57.68121,57.826138,78,36,0
57.826138,57.971066,79,36,0
57.967445,58.11237,80,36,0
58.115993,58.26092,82,36,0
58.26092,58.478313,83,36,0
59.34788,59.369617,74,36,0
59.56527,59.58701,76,36,0
59.78266,59.8044,78,36,0
60.000053,60.14498,76,36,0
60.141357,60.286285,80,36,0
60.28991,60.434837,81,36,0
60.434837,60.579765,83,36,0
60.57614,60.72107,80,36,0
60.724693,60.86962,74,36,0
60.86962,61.01455,73,36,0
61.010925,61.155853,71,36,0
61.159477,61.3044,73,36,0
61.3044,61.44933,74,36,0
61.44571,61.590633,73,36,0
61.594257,61.739185,74,36,0
61.739185,61.884113,76,36,0
61.88049,62.025417,78,36,0
62.02904,62.17397,80,36,0
62.17397,62.318897,81,36,0
62.315273,62.4602,76,36,0
62.463825,62.608753,73,36,0
62.608753,62.75368,78,36,0
62.750057,62.894985,71,36,0
62.89861,63.043533,78,36,0
63.043533,63.18846,81,36,0
63.18484,63.329765,71,36,0
63.33339,63.478317,81,36,0
63.478317,63.623245,80,36,0
63.61962,63.76455,71,36,0
63.768173,63.9131,80,36,0
63.9131,64.05803,83,36,0
64.054405,64.19933,80,36,0
64.20296,64.347885,83,36,0
64.347885,64.49281,81,36,0
64.48919,64.63412,83,36,0
64.63774,64.78267,80,36,0
64.78267,64.9276,81,36,0
64.92397,65.0689,83,36,0
65.072525,65.21745,84,36,0
65.21745,65.36238,85,36,0
65.35876,65.503685,86,36,0
65.50731,65.65223,88,36,0
65.65223,65.79716,90,36,0
65.79354,65.93847,92,36,0
65.942085,66.08701,93,36,0
66.08701,66.23194,78,36,0
66.22832,66.373245,71,36,0
66.37687,66.5218,78,36,0
66.5218,66.666725,81,36,0
66.6631,66.80803,71,36,0
66.81165,66.95658,81,36,0
66.95658,67.10151,80,36,0
67.097885,67.24281,71,36,0
67.24644,67.391365,80,36,0
67.391365,67.53629,83,36,0
67.53267,67.6776,80,36,0
67.68122,67.82615,88,36,0
67.82615,67.97108,85,36,0
67.96745,68.11238,81,36,0
68.116005,68.26093,76,36,0
68.26093,68.40586,73,36,0
68.40224,68.547165,74,36,0
68.55079,68.69572,71,36,0
68.69572,68.91311,69,36,0
69.56528,69.58702,69,36,0
69.78267,69.80441,71,36,0
70.00006,70.021805,73,36,0
70.21745,70.2392,74,36,0
70.434845,70.57977,76,36,0
70.57615,70.72108,75,36,0
70.7247,70.86963,76,36,0
70.86963,71.01456,78,36,0
71.01093,71.15586,85,36,0
71.159485,71.30441,77,36,0
71.30441,71.44934,78,36,0
71.44572,71.590645,77,36,0
71.59427,71.7392,78,36,0
71.7392,71.884125,79,36,0
71.8805,72.02543,80,36,0
72.02905,72.17398,82,36,0
72.17398,72.39137,83,36,0
73.26093,73.28268,74,36,0
73.478325,73.50007,76,36,0
73.69572,73.71746,78,36,0
73.91311,74.05804,76,36,0
74.05441,74.19934,80,36,0
74.202965,74.34789,81,36,0
74.34789,74.49282,83,36,0
74.4892,74.634125,80,36,0
74.63775,74.78268,74,36,0
74.78268,74.927605,73,36,0
74.92398,75.06891,71,36,0
75.07253,75.21746,73,36,0
75.21746,75.36239,74,36,0
75.358765,75.50369,73,36,0
75.50732,75.652245,74,36,0
75.652245,75.79717,76,36,0
75.79355,75.93848,78,36,0
75.9421,76.08703,80,36,0
76.08703,76.23195,81,36,0
76.22833,76.37326,76,36,0
76.37688,76.521805,73,36,0
76.521805,76.66673,78,36,0
76.66311,76.80804,71,36,0
76.81166,76.95659,78,36,0
76.95659,77.10152,81,36,0
77.09789,77.24282,71,36,0
77.246445,77.39137,81,36,0
77.39137,77.5363,80,36,0
77.53268,77.677605,71,36,0
77.68123,77.82616,80,36,0
77.82616,77.971085,83,36,0
77.96746,78.11239,80,36,0
78.11601,78.26094,83,36,0
78.26094,78.40587,81,36,0
78.402245,78.54717,83,36,0
78.5508,78.695724,80,36,0
78.695724,78.84065,81,36,0
78.83703,78.98196,83,36,0
78.98558,79.13051,84,36,0
79.13051,79.27544,85,36,0
79.27181,79.41674,86,36,0
79.420364,79.56529,88,36,0
79.56529,79.71022,90,36,0
79.7066,79.851524,92,36,0
79.85514,80.00007,93,36,0
80.00007,80.145,78,36,0
80.14137,80.2863,71,36,0
80.289925,80.43485,78,36,0
80.43485,80.57978,81,36,0
80.57616,80.721085,71,36,0
80.72471,80.86964,81,36,0
80.86964,81.014565,80,36,0
81.01094,81.15587,71,36,0
81.15949,81.30442,80,36,0
81.30442,81.44935,83,36,0
81.445724,81.59065,80,36,0
81.59428,81.739204,88,36,0
81.739204,81.88413,73,49,0
81.88051,82.02544,68,49,0
82.02906,82.17399,80,49,0
82.17399,82.31892,77,49,0
82.31529,82.46022,73,49,0
82.463844,82.60877,85,49,0
82.60877,82.7537,80,49,0
82.75008,82.895004,77,49,0
82.89863,83.04356,73,49,0
83.04356,83.188484,61,49,0
83.18486,83.32979,73,49,0
83.333405,83.47833,61,49,0
83.47833,83.62326,69,62,0
83.619644,83.764565,66,62,0
83.76819,83.91312,74,62,0
83.91312,84.058044,69,62,0
84.05442,84.19935,66,62,0
84.20297,84.3479,78,62,0
84.3479,84.49283,74,62,0
84.489204,84.63413,69,62,0
84.63776,84.782684,81,62,0
84.782684,84.92761,66,62,0
84.92399,85.06892,68,62,0
85.07254,85.21747,69,62,0
85.21747,85.3624,71,75,0
85.35877,85.5037,64,75,0
85.507324,85.65225,76,75,0
85.65225,85.79718,71,75,0
85.79356,85.938484,68,75,0
85.94211,86.087036,80,75,0
86.087036,86.231964,76,75,0
86.22834,86.37327,71,75,0
86.37689,86.52182,83,75,0
86.52182,86.66675,80,75,0
86.663124,86.80805,76,75,0
86.811676,86.9566,88,75,0
86.9566,87.101524,76,88,0
87.09791,87.24283,64,88,0
87.24645,87.39138,76,88,0
87.39138,87.53631,80,88,0
87.532684,87.67761,68,88,0
87.68124,87.826164,80,88,0
87.826164,87.97109,83,88,0
87.96747,88.1124,71,88,0
88.11602,88.26095,83,88,0
88.26095,88.405876,88,101,0
88.40225,88.54718,76,101,0
88.550804,88.69573,88,101,0
88.69573,88.84066,76,101,0
88.837036,88.981964,88,101,0
88.98559,89.130516,85,101,0
89.130516,89.275444,81,88,0
89.27182,89.41675,76,88,0
89.42037,89.5653,72,88,0
89.5653,89.71023,73,88,0
89.706604,89.85153,75,88,0
89.855156,90.000084,76,88,0
90.000084,90.14501,78,88,0
90.14139,90.286316,80,88,0
90.28994,90.43486,81,88,0
90.43486,90.57979,83,88,0
90.57617,90.7211,80,88,0
90.72472,90.869644,76,88,0
90.869644,91.01457,71,88,0
91.01095,91.155876,68,88,0
91.1595,91.30443,71,88,0
91.30443,91.449356,80,88,0
91.44573,91.59066,71,88,0
91.594284,91.73921,76,88,0
91.73921,91.88414,78,88,0
91.880516,92.025444,71,88,0
92.02907,92.173996,75,88,0
92.173996,92.318924,64,88,0
92.3153,92.46023,78,88,0
92.46385,92.60878,76,88,0
92.60878,92.75371,68,88,0
92.750084,92.89501,81,88,0
92.898636,93.043564,80,88,0
93.043564,93.18849,71,88,0
93.18487,93.329796,85,88,0
93.33342,93.47835,83,88,0
93.47835,93.623276,76,101,0
93.61965,93.76458,90,101,0
93.7682,93.91313,88,101,0
93.91313,94.05805,76,101,0
94.054436,94.19936,88,101,0
94.20298,94.34791,85,101,0
94.34791,94.492836,81,88,0
94.48921,94.63414,76,88,0
94.637764,94.78269,72,88,0
94.78269,94.92762,73,88,0
94.923996,95.068924,75,88,0
95.07255,95.217476,76,88,0
95.217476,95.362404,78,88,0
95.35878,95.50371,80,88,0
95.50733,95.65226,81,88,0
95.65226,95.79719,71,114,0
95.793564,95.93849,83,114,0
95.942116,96.08704,80,114,0
96.08704,96.23197,76,114,0
96.22835,96.373276,71,114,0
96.3769,96.52183,68,114,0
96.52183,96.666756,70,114,0
96.66313,96.80806,88,114,0
96.81168,96.95661,85,114,0
96.95661,97.10154,82,114,0
97.097916,97.24284,78,114,0
97.24647,97.391396,82,114,0
97.391396,97.60878,83,114,0
97.82617,97.86965,82,88,0
97.82617,97.86965,78,88,0
97.82617,97.86965,76,88,0
98.260956,98.304436,83,75,0
98.260956,98.304436,78,75,0
98.260956,98.304436,76,75,0
98.69574,98.73922,85,62,0
98.69574,98.73922,78,62,0
98.69574,98.73922,76,62,0
99.13052,99.174,83,62,0
99.13052,99.174,78,62,0
99.13052,99.174,75,62,0
99.56531,99.710236,73,49,0
99.70661,99.85154,66,49,0
99.85516,100.00009,64,49,0
100.00009,100.14502,71,49,0
100.141396,100.28632,66,49,0
100.28995,100.434875,64,49,0
100.434875,100.5798,70,36,0
100.57618,100.72111,66,36,0
100.72473,100.86966,64,36,0
100.86966,101.01459,71,36,0
101.01096,101.15589,66,36,0
101.15951,101.304436,63,36,0
101.304436,101.347916,85,88,0
101.304436,101.347916,78,88,0
101.304436,101.347916,76,88,0
101.73922,101.7827,83,75,0
101.73922,101.7827,78,75,0
101.73922,101.7827,76,75,0
102.174,102.21748,82,62,0
102.174,102.21748,78,62,0
102.174,102.21748,76,62,0
102.60879,102.65227,83,49,0
102.60879,102.65227,78,49,0
102.60879,102.65227,75,49,0
103.04357,103.1885,70,75,0
103.184875,103.3298,66,75,0
103.33343,103.478355,64,75,0
103.478355,103.62328,71,62,0
103.61966,103.76459,66,62,0
103.76821,103.91314,64,62,0
103.91314,104.05807,73,62,0
104.05444,104.19937,66,62,0
104.202995,104.34792,64,62,0
104.34792,104.49285,71,62,0
104.48923,104.634155,66,62,0
104.63777,104.7827,63,62,0
106.95662,107.0001,71,49,0
107.3914,107.434875,71,49,0
107.82619,108.69575,71,49,0
108.69575,108.71749,71,75,0
108.91314,108.93488,71,49,0
109.13053,109.152275,73,49,0
109.34792,109.36967,75,49,0
109.565315,110.43488,76,49,0
110.43488,110.45662,76,75,0
110.43488,110.45662,64,67,0
110.652275,110.67401,76,49,0
110.652275,110.67401,64,49,0
110.86967,110.8914,78,49,0
110.86967,110.8914,66,49,0
111.08706,111.108795,80,49,0
111.08706,111.108795,68,49,0
111.30445,112.17401,81,49,0
111.30445,112.17401,69,49,0
112.17401,112.21749,85,49,0
112.17401,112.21749,73,49,0
112.608795,112.652275,85,49,0
112.608795,112.652275,73,49,0
113.04358,113.47836,83,49,0
113.04358,113.47836,71,49,0
113.47836,113.91315,85,49,0
113.47836,113.91315,73,49,0
113.91315,114.34793,83,49,0
113.91315,114.34793,71,49,0
114.34793,114.782715,80,49,0
114.34793,114.782715,68,49,0
114.782715,115.652275,78,49,0
114.782715,115.652275,66,49,0
115.652275,115.695755,71,36,0
116.08706,116.13054,71,36,0
116.52184,117.39141,71,36,0
117.39141,117.41315,71,62,0
117.6088,117.63054,71,36,0
117.826195,117.84793,73,36,0
118.04359,118.06532,74,36,0
118.26098,119.13054,73,36,0
119.13054,119.15228,73,62,0
119.13054,119.15228,61,54,0
119.34793,119.369675,73,36,0
119.34793,119.369675,61,36,0
119.56532,119.58707,75,36,0
119.56532,119.58707,63,36,0
119.782715,119.80446,77,36,0
119.782715,119.80446,65,36,0
120.00011,120.869675,78,36,0
120.00011,120.869675,66,36,0
120.869675,120.913155,80,36,0
120.869675,120.913155,68,36,0
121.30446,121.34794,80,49,0
121.30446,121.34794,68,49,0
121.73924,122.17403,81,62,0
121.73924,122.17403,69,62,0
122.17403,122.6088,80,75,0
122.17403,122.6088,68,75,0
122.6088,123.04359,78,62,0
122.6088,123.04359,66,62,0
123.04359,123.47837,77,49,0
123.04359,123.47837,65,49,0
123.47837,123.913155,78,49,0
123.47837,123.913155,66,49,0
123.913155,124.05808,66,36,0
124.05446,124.19939,69,36,0
124.20301,124.34794,73,36,0
124.34794,124.49287,66,36,0
124.48924,124.63417,69,36,0
124.637794,124.78272,73,36,0
124.78272,124.92765,66,36,0
124.92403,125.068954,69,36,0
125.07258,125.21751,73,36,0
125.21751,125.362434,65,36,0
125.35881,125.50374,68,36,0
125.50736,125.65229,73,36,0
125.65229,125.79722,65,36,0
125.793594,125.93852,68,36,0
125.94214,126.08707,73,36,0
126.08707,126.231995,68,36,0
126.22837,126.3733,71,36,0
126.37692,126.52185,73,36,0
126.52185,126.66678,68,36,0
126.663155,126.80808,71,36,0
126.81171,126.956635,73,36,0
126.956635,127.10156,69,36,0
127.09794,127.24287,73,36,0
127.24649,127.39142,69,36,0
127.39142,127.53635,66,36,0
127.53272,127.67765,69,36,0
127.681274,127.8262,73,36,0
127.8262,127.97113,73,36,0
127.96751,128.11243,76,36,0
128.11606,128.26099,78,36,0
128.26099,128.40591,73,36,0
128.40228,128.54721,76,36,0
128.55084,128.69577,78,36,0
128.69577,128.8407,71,36,0
128.83707,128.982,74,36,0
128.98563,129.13055,78,36,0
129.13055,129.27548,71,36,0
129.27185,129.41678,74,36,0
129.42041,129.56534,78,36,0
129.56534,129.71027,78,36,0
129.70663,129.85156,83,36,0
129.8552,130.00012,86,36,0
130.00012,130.14505,78,36,0
130.14142,130.28635,83,36,0
130.28998,130.4349,86,36,0
130.4349,130.57983,76,36,0
130.5762,130.72113,81,36,0
130.72476,130.86969,88,36,0
130.86969,131.01462,78,36,0
131.01099,131.15591,81,36,0
131.15955,131.30446,86,36,0
131.30446,131.44939,76,36,0
131.44577,131.5907,81,36,0
131.59431,131.73924,85,36,0
131.73924,131.88417,76,36,0
131.88055,132.02548,80,36,0
132.0291,132.17403,83,36,0
132.17403,132.31895,81,36,0
132.31534,132.46027,85,36,0
132.46388,132.60881,81,36,0
132.60881,132.75374,76,36,0
132.75012,132.89505,73,36,0
132.89867,133.0436,69,36,0
133.0436,133.18852,76,36,0
133.1849,133.32983,73,36,0
133.33345,133.47838,69,36,0
133.47838,133.6233,76,36,0
133.61969,133.76462,73,36,0
133.76823,133.91316,69,36,0
133.91316,134.05809,68,49,0
134.05447,134.1994,71,49,0
134.20302,134.34795,76,49,0
134.34795,134.49287,68,49,0
134.48926,134.63419,71,49,0
134.6378,134.78273,76,49,0
134.78273,134.92766,76,36,0
134.92404,135.06897,80,36,0
135.07259,135.21751,83,36,0
135.21751,135.36244,88,36,0
135.35881,135.50374,92,36,0
135.50737,135.6523,95,36,0
135.6523,135.79723,93,36,0
135.7936,135.93852,88,36,0
135.94215,136.08708,85,36,0
136.08708,136.23201,81,36,0
136.22838,136.3733,76,36,0
136.37694,136.52187,73,36,0
136.52187,136.6668,76,36,0
136.66316,136.80809,73,36,0
136.81172,136.95665,69,36,0
136.95665,137.10158,76,36,0
137.09795,137.24287,73,36,0
137.2465,137.39143,69,36,0
137.39143,137.53636,68,49,0
137.53273,137.67766,71,49,0
137.68129,137.82622,76,49,0
137.82622,137.97115,68,49,0
137.96751,138.11244,71,49,0
138.11607,138.261,76,49,0
138.261,138.40591,76,36,0
138.4023,138.54723,80,36,0
138.55084,138.69577,83,36,0
138.69577,138.8407,88,36,0
138.83708,138.98201,92,36,0
138.98563,139.13055,95,36,0
139.13055,139.27548,93,36,0
139.27187,139.4168,88,36,0
139.42041,139.56534,85,36,0
139.56534,139.71027,81,49,0
139.70665,139.85158,76,49,0
139.8552,140.00012,73,49,0
140.00012,140.14505,76,62,0
140.14143,140.28636,80,62,0
140.28998,140.4349,83,62,0
140.4349,140.57983,88,75,0
140.57622,140.72115,92,75,0
140.72476,140.86969,95,75,0
140.86969,141.01462,93,75,0
141.011,141.15593,88,75,0
141.15955,141.30447,85,75,0
141.30447,141.4494,81,49,0
141.44579,141.59071,76,49,0
141.59433,141.73926,73,49,0
141.73926,141.88419,76,36,0
141.88057,142.0255,80,36,0
142.02911,142.17404,83,36,0
142.17404,142.31897,88,36,0
142.31534,142.46027,92,36,0
142.4639,142.60883,95,36,0
142.60883,142.75375,93,36,0
142.75012,142.89505,88,36,0
142.89868,143.04361,85,36,0
143.04361,143.18854,81,36,0
143.1849,143.32983,76,36,0
143.33347,143.4784,73,36,0
143.4784,143.52187,76,36,0
143.91318,143.95665,76,36,0
144.34796,145.21753,76,36,0
145.21753,145.261,76,36,0
145.6523,145.69579,76,36,0
146.08708,146.95665,76,36,0
146.95665,146.9784,76,49,0
147.17404,147.19579,76,49,0
147.39143,147.41318,78,62,0
147.60883,147.63057,79,62,0
147.82622,148.261,81,75,0
148.261,148.69579,79,75,0
148.69579,149.13057,78,62,0
149.13057,149.56535,76,49,0
149.56535,150.43492,78,36,0
150.43492,150.4784,81,36,0
150.8697,150.91318,81,36,0
151.30449,152.17406,81,36,0
152.17406,152.21753,81,36,0
152.60883,152.65231,81,36,0
153.04361,153.91318,81,36,0
153.91318,153.93492,81,36,0
154.13057,154.15231,81,36,0
154.34796,154.3697,83,49,0
154.56535,154.5871,84,49,0
154.78275,155.21753,86,62,0
155.21753,155.65231,84,75,0
155.65231,156.0871,83,62,0
156.0871,156.52188,81,62,0
156.52188,157.39145,83,36,0
157.39145,157.4132,83,62,0
157.39145,157.4132,71,54,0
157.60884,157.63057,83,36,0
157.60884,157.63057,71,36,0
157.82623,157.84796,85,49,0
157.82623,157.84796,73,49,0
158.04362,158.06535,87,49,0
158.04362,158.06535,75,49,0
158.26102,159.13058,88,62,0
158.26102,159.13058,76,62,0
159.13058,159.15231,88,101,0
159.13058,159.15231,76,93,0
159.34798,159.3697,88,75,0
159.34798,159.3697,76,75,0
159.56535,159.5871,90,75,0
159.56535,159.5871,78,75,0
159.78275,159.80449,92,75,0
159.78275,159.80449,80,75,0
160.00014,160.8697,93,75,0
160.00014,160.8697,81,75,0
160.8697,160.9132,85,88,0
160.8697,160.9132,73,88,0
161.30449,161.34798,85,88,0
161.30449,161.34798,73,88,0
161.73927,162.17406,83,88,0
161.73927,162.17406,71,88,0
162.17406,162.60884,81,88,0
162.17406,162.60884,69,88,0
162.60884,163.04362,80,88,0
162.60884,163.04362,68,88,0
163.04362,163.47841,78,88,0
163.04362,163.47841,66,88,0
163.47841,163.9132,76,88,0
163.47841,163.9132,64,88,0
163.9132,164.05812,64,62,0
164.05449,164.19942,68,62,0
164.20305,164.34798,71,62,0
164.34798,164.4929,64,62,0
164.48927,164.6342,68,62,0
164.63783,164.78276,71,62,0
164.78276,164.92769,64,62,0
164.92406,165.06898,68,62,0
165.07262,165.21754,71,62,0
165.21754,165.36247,63,62,0
165.35884,165.50377,66,62,0
165.5074,165.65233,71,62,0
165.65233,165.79726,63,62,0
165.79362,165.93855,66,62,0
165.94218,166.08711,71,62,0
166.08711,166.23204,66,62,0
166.22841,166.37334,69,62,0
166.37697,166.5219,71,62,0
166.5219,166.66681,66,62,0
166.6632,166.80812,69,62,0
166.81174,166.95667,71,62,0
166.95667,167.1016,67,62,0
167.09798,167.2429,71,62,0
167.24652,167.39145,67,62,0
167.39145,167.53638,64,62,0
167.53276,167.67769,67,62,0
167.6813,167.82623,71,62,0
167.82623,167.97116,71,62,0
167.96754,168.11247,74,62,0
168.11609,168.26102,76,62,0
168.26102,168.40594,71,62,0
168.40233,168.54726,74,62,0
168.55087,168.6958,76,62,0
168.6958,168.84073,69,62,0
168.83711,168.98204,72,62,0
168.98566,169.13058,76,62,0
169.13058,169.27551,69,62,0
169.2719,169.41682,72,62,0
169.42044,169.56537,76,62,0
169.56537,169.7103,76,62,0
169.70668,169.85161,81,62,0
169.85522,170.00015,84,62,0
170.00015,170.14508,76,62,0
170.14146,170.28639,81,62,0
170.29001,170.43494,84,62,0
170.43494,170.57986,74,62,0
170.57623,170.72116,79,62,0
170.7248,170.86972,86,62,0
170.86972,171.01465,76,62,0
171.01102,171.15594,79,62,0
171.15958,171.3045,84,62,0
171.3045,171.44943,74,62,0
171.4458,171.59073,79,62,0
171.59436,171.73929,83,62,0
171.73929,171.88422,74,62,0
171.88058,172.02551,78,62,0
172.02914,172.17407,81,62,0
172.17407,172.319,83,127,0
172.31537,172.4603,81,88,0
172.46393,172.60886,78,88,0
172.60886,172.75378,71,101,0
172.75015,172.89508,69,101,0
172.89871,173.04364,66,101,0
173.04364,173.18857,59,114,0
173.18494,173.32986,71,114,0
173.3335,173.47842,59,114,0
173.47842,173.62335,71,114,0
173.61972,173.76465,59,114,0
173.76826,173.9132,71,114,0
173.9132,174.05812,66,114,0
174.0545,174.19943,69,114,0
174.20305,174.34798,72,114,0
174.34798,174.4929,78,114,0
174.48929,174.63422,81,114,0
174.63783,174.78276,84,114,0
174.78276,174.92769,90,114,0
174.92407,175.069,78,114,0
175.07262,175.21754,90,114,0
175.21754,175.36247,78,114,0
175.35886,175.50378,90,114,0
175.5074,175.65233,78,114,0
175.65233,175.79726,83,114,0
175.79364,175.93857,81,114,0
175.94218,176.08711,78,114,0
176.08711,176.23204,71,114,0
176.22842,176.37335,69,114,0
176.37697,176.5219,66,114,0
176.5219,176.66682,59,114,0
176.66321,176.80814,71,114,0
176.81175,176.95668,59,114,0
176.95668,177.10161,71,114,0
177.09799,177.24292,59,114,0
177.24654,177.39146,71,114,0
177.39146,177.53639,66,114,0
177.53278,177.67769,69,114,0
177.68132,177.82625,72,114,0
177.82625,177.97118,78,114,0
177.96754,178.11247,81,114,0
178.1161,178.26103,84,114,0
178.26103,178.40596,90,114,0
178.40233,178.54726,78,114,0
178.55089,178.69582,90,114,0
178.69582,178.84074,78,114,0
178.83711,178.98204,90,114,0
178.98567,179.1306,78,114,0
179.1306,179.27553,93,114,0
179.2719,179.41682,92,114,0
179.42046,179.56538,90,114,0
179.56538,179.71031,88,114,0
179.70668,179.85161,87,114,0
179.85524,180.00017,85,114,0
180.00017,180.1451,83,101,0
180.14146,180.28639,81,101,0
180.29002,180.43495,80,101,0
180.43495,180.57988,78,101,0
180.57625,180.72118,76,101,0
180.72481,180.86972,75,101,0
180.86972,181.01465,73,88,0
181.01103,181.15596,71,88,0
181.15958,181.3045,69,88,0
181.3045,181.44943,68,88,0
181.44582,181.59074,66,88,0
181.59436,181.73929,64,88,0
181.73929,181.88422,63,75,0
181.8806,182.02553,61,75,0
182.02914,182.17407,59,75,0
182.17407,182.319,58,75,0
182.31538,182.46031,59,75,0
182.46393,182.60886,61,75,0
182.60886,182.75378,63,62,0
182.75017,182.8951,64,62,0
182.89871,183.04364,66,62,0
183.04364,183.18857,68,49,0
183.18495,183.32988,69,49,0
183.3335,183.47842,70,49,0
183.47842,183.52191,71,36,0
183.91321,183.95668,71,36,0
184.34799,185.21756,71,36,0
185.21756,185.2393,71,36,0
185.43495,185.4567,71,36,0
185.65234,185.67409,73,36,0
185.86974,185.89146,75,36,0
186.08713,186.9567,76,36,0
186.9567,187.00017,67,62,0
187.39148,187.43495,67,36,0
187.82626,188.69582,67,36,0
188.69582,188.7393,76,36,0
188.69582,188.7393,64,36,0
189.1306,189.17409,76,36,0
189.1306,189.17409,64,36,0
189.56538,190.43495,77,36,0
189.56538,190.43495,65,36,0
190.43495,190.47844,67,62,0
190.86974,190.91321,67,36,0
191.30452,192.17409,67,36,0
192.17409,192.28278,89,36,0
192.28278,192.39148,86,36,0
192.39148,192.50017,83,36,0
192.50017,192.60887,77,36,0
192.60887,192.7538,74,36,0
192.75017,192.8951,71,36,0
192.89873,193.04366,65,36,0
193.04366,193.91322,64,36,0
193.91322,193.9567,67,62,0
194.348,194.39148,67,36,0
194.78279,195.65234,67,36,0
195.65234,195.86974,76,36,0
195.65234,195.86974,64,36,0
195.86974,196.08713,76,36,0
195.86974,196.08713,64,36,0
196.08713,196.30452,76,36,0
196.08713,196.30452,64,36,0
196.30452,196.52191,76,36,0
196.30452,196.52191,64,36,0
197.33713,197.39148,69,36,0
196.52191,197.39148,77,36,0
196.52191,197.39148,65,36,0
197.39148,197.60887,67,36,0
197.60887,197.82626,66,36,0
197.82626,198.04366,67,36,0
198.04366,198.26105,69,36,0
198.26105,198.69583,69,62,0
198.69583,198.91322,67,36,0
199.13062,199.2393,89,36,0
199.2393,199.348,86,36,0
199.348,199.4567,83,36,0
199.4567,199.5654,77,36,0
199.5654,199.71033,74,36,0
199.7067,199.85162,71,36,0
199.85526,200.00018,65,36,0
200.00018,200.65236,64,36,0
200.65236,200.67409,88,49,0
200.86975,200.97844,89,49,0
200.97844,201.08714,86,49,0
201.08714,201.19583,83,49,0
201.19583,201.30453,77,49,0
201.30453,201.44946,74,49,0
201.44583,201.59076,71,49,0
201.59439,201.73932,65,49,0
201.73932,202.39148,64,62,0
202.39148,202.41322,88,49,0
202.60887,202.71758,89,49,0
202.71758,202.82626,86,49,0
202.82626,202.93497,83,49,0
202.93497,203.04366,77,49,0
203.04366,203.18858,74,49,0
203.18497,203.3299,71,49,0
203.33351,203.47844,65,49,0
203.47844,203.91322,64,75,0
203.91322,204.05815,88,75,0
204.05453,204.19946,76,75,0
204.20308,204.348,88,75,0
204.348,204.49294,89,75,0
204.48932,204.63425,77,75,0
204.63786,204.78279,89,75,0
204.78279,204.92772,90,75,0
204.9241,205.06903,78,75,0
205.07265,205.21758,90,75,0
205.21758,205.3625,91,88,0
205.35889,205.50381,79,88,0
205.50743,205.65236,91,88,0
205.65236,205.79729,92,88,0
205.79367,205.9386,80,88,0
205.94221,206.08714,92,88,0
206.08714,206.23207,93,101,0
206.22844,206.37337,81,101,0
206.377,206.52193,93,101,0
206.52193,206.66685,94,101,0
206.66322,206.80815,82,101,0
206.81178,206.95671,94,101,0
206.95671,207.10164,95,127,0
207.098,207.24294,92,75,0
207.24657,207.3915,88,75,0
207.3915,207.53642,83,75,0
207.53279,207.67772,80,75,0
207.68135,207.82628,76,75,0
207.82628,207.9712,83,75,0
207.96758,208.1125,80,75,0
208.11613,208.26106,76,75,0
208.26106,208.40599,71,75,0
208.40236,208.54729,68,75,0
208.55092,208.69585,64,75,0
208.69585,208.91324,59,75,0
209.13063,210.00018,68,114,0
209.13063,210.00018,64,114,0
209.13063,210.00018,59,114,0
210.00018,210.43497,66,114,0
210.00018,210.43497,63,114,0
210.00018,210.43497,59,114,0
210.43497,210.5799,64,49,0
210.57628,210.7212,59,49,0
210.72482,210.86975,56,49,0
210.86975,211.01468,59,49,0
211.01106,211.15599,64,49,0
211.1596,211.30453,68,49,0
211.30453,211.44946,71,49,0
211.44585,211.59077,68,49,0
211.59439,211.73932,64,49,0
211.73932,211.88425,71,49,0
211.88063,212.02556,68,49,0
212.02917,212.1741,64,49,0
212.1741,212.31903,63,62,0
212.31541,212.46034,66,62,0
212.46396,212.60889,71,62,0
212.60889,212.75381,63,62,0
212.7502,212.89513,66,62,0
212.89874,213.04367,71,62,0
213.04367,213.1886,71,49,0
213.18497,213.3299,75,49,0
213.33353,213.47845,78,49,0
213.47845,213.62338,83,49,0
213.61975,213.76468,87,49,0
213.76831,213.91324,90,49,0
213.91324,214.05817,88,49,0
214.05453,214.19946,83,49,0
214.2031,214.34802,80,49,0
214.34802,214.49295,76,49,0
214.48932,214.63425,71,49,0
214.63788,214.7828,68,49,0
214.7828,214.92773,71,49,0
214.9241,215.06903,68,49,0
215.07266,215.21759,64,49,0
215.21759,215.36252,71,49,0
215.35889,215.50381,68,49,0
215.50745,215.65237,64,49,0
215.65237,215.7973,63,62,0
215.79367,215.9386,66,62,0
215.94223,216.08716,71,62,0
216.08716,216.23209,63,62,0
216.22845,216.37338,66,62,0
216.377,216.52193,71,62,0
216.52193,216.66685,71,49,0
216.66324,216.80817,75,49,0
216.81178,216.95671,78,49,0
216.95671,217.10164,83,49,0
217.09802,217.24295,87,49,0
217.24657,217.3915,90,49,0
217.3915,217.53642,88,36,0
217.5328,217.67773,83,36,0
217.68135,217.82628,80,36,0
217.82628,217.9712,76,36,0
217.96759,218.11252,71,36,0
218.11613,218.26106,68,36,0
218.26106,218.40599,71,49,0
218.40237,218.5473,75,49,0
218.55092,218.69585,78,49,0
218.69585,218.84077,83,49,0
218.83716,218.98209,87,49,0
218.9857,219.13063,90,49,0
219.13063,219.27556,88,36,0
219.27194,219.41687,83,36,0
219.42049,219.56541,80,36,0
219.56541,219.71034,76,36,0
219.70673,219.85165,71,36,0
219.85527,220.0002,68,36,0
220.0002,220.14513,71,49,0
220.14151,220.28642,75,49,0
220.29005,220.43498,78,49,0
220.43498,220.57991,83,49,0
220.57628,220.7212,87,49,0
220.72484,220.86977,90,49,0
220.86977,221.0147,88,49,0
221.01106,221.15599,83,49,0
221.15962,221.30455,80,49,0
221.30455,221.44948,76,49,0
221.44585,221.59077,71,49,0
221.5944,221.73933,68,49,0
221.73933,221.7828,83,75,0
221.73933,221.7828,81,75,0
221.73933,221.7828,75,75,0
222.17412,222.21759,83,75,0
222.17412,222.21759,81,75,0
222.17412,222.21759,75,75,0
222.6089,223.47845,83,62,0
222.6089,223.47845,80,62,0
222.6089,223.47845,76,62,0
223.47845,223.52194,83,62,0
223.47845,223.52194,81,62,0
223.47845,223.52194,75,62,0
223.91324,223.95673,83,62,0
223.91324,223.95673,81,62,0
223.91324,223.95673,75,62,0
224.34802,225.21759,83,49,0
224.34802,225.21759,80,49,0
224.34802,225.21759,76,49,0
225.21759,225.26108,83,49,0
225.21759,225.26108,81,49,0
225.21759,225.26108,75,49,0
225.65237,225.69586,83,49,0
225.65237,225.69586,81,49,0
225.65237,225.69586,75,49,0
226.08716,228.26108,83,36,0
226.08716,228.26108,80,36,0
226.08716,228.26108,76,36,0
229.56543,229.58716,64,49,0
230.00021,230.86977,64,49,0
230.86977,230.91325,76,49,0
233.04369,233.06543,64,49,0
233.47847,234.34804,64,49,0
234.34804,234.39151,76,49,0
236.52196,236.54369,76,49,0
236.95674,237.8263,76,62,0
237.8263,237.86978,88,75,0
238.26108,238.28282,64,75,0
238.69586,239.56543,64,75,0
239.56543,239.60892,76,75,0
240.435,241.30457,64,75,0
241.30457,241.73935,76,75,0
241.73935,241.7611,62,75,0
242.17896,243.1247,64,75,0
243.1247,243.17511,76,75,0
243.63542,243.6622,62,62,0
244.17113,245.24255,64,49,0
245.24255,245.29613,76,49,0
245.77827,245.99567,73,49,0
245.77827,245.99567,61,49,0
246.21306,247.08263,76,62,0
246.21306,247.08263,64,62,0
247.08263,247.1261,81,75,0
247.08263,247.1261,69,75,0
247.51741,247.95218,81,75,0
247.51741,247.95218,69,75,0
247.95218,248.16957,80,75,0
247.95218,248.16957,68,75,0
248.38696,249.25653,81,75,0
248.38696,249.25653,69,75,0
249.25653,249.9087,83,75,0
249.25653,249.9087,71,75,0
249.9087,250.1261,83,75,0
249.9087,250.1261,71,75,0
250.1261,250.16959,85,75,0
250.1261,250.16959,73,75,0
250.56088,250.60435,81,75,0
250.56088,250.60435,69,75,0
250.99567,251.86523,81,75,0
250.99567,251.86523,69,75,0
251.86523,252.08263,80,75,0
251.86523,252.08263,68,75,0
252.08263,252.30002,78,75,0
252.08263,252.30002,66,75,0
252.30002,252.51741,76,75,0
252.30002,252.51741,64,75,0
252.51741,252.7348,74,75,0
252.51741,252.7348,62,75,0
252.7348,252.9522,73,49,0
252.7348,252.9522,61,49,0
253.16959,254.03915,76,62,0
253.16959,254.03915,64,62,0
254.03915,254.08263,81,75,0
254.03915,254.08263,69,75,0
254.47394,254.9087,81,75,0
254.47394,254.9087,69,75,0
254.9087,255.1261,80,75,0
254.9087,255.1261,68,75,0
255.34349,256.21307,81,75,0
255.34349,256.21307,69,75,0
256.21307,256.64786,83,75,0
256.21307,256.64786,71,75,0
256.64786,256.86523,85,75,0
256.64786,256.86523,73,75,0
256.86523,257.08264,86,75,0
256.86523,257.08264,74,75,0
257.08264,257.1261,85,75,0
257.08264,257.1261,73,75,0
257.51743,257.56088,83,75,0
257.51743,257.56088,71,75,0
257.9522,258.82175,83,75,0
257.9522,258.82175,71,75,0
258.82175,259.03915,81,75,0
258.82175,259.03915,69,75,0
259.6913,259.71307,69,36,0
259.90872,259.93045,71,36,0
260.1261,260.14786,73,36,0
260.3435,260.36523,74,36,0
260.56088,260.7058,76,36,0
260.7022,260.84714,75,36,0
260.85074,260.99567,76,36,0
260.99567,261.1406,78,36,0
261.137,261.28192,85,36,0
261.28552,261.43045,77,36,0
261.43045,261.57538,78,36,0
261.57178,261.7167,77,36,0
261.7203,261.86523,78,36,0
261.86523,262.01016,79,36,0
262.00656,262.1515,80,36,0
262.1551,262.30002,82,36,0
262.30002,262.51743,83,36,0
263.387,263.40872,74,36,0
263.60437,263.6261,76,36,0
263.82178,263.8435,78,36,0
264.03915,264.18408,76,36,0
264.18045,264.32538,80,36,0
264.329,264.47394,81,36,0
264.47394,264.61887,83,36,0
264.61523,264.76016,80,36,0
264.7638,264.90872,74,36,0
264.90872,265.05365,73,36,0
265.05002,265.19495,71,36,0
265.19858,265.3435,73,36,0
265.3435,265.48843,74,36,0
265.4848,265.62973,73,36,0
265.63336,265.7783,74,36,0
265.7783,265.92322,76,36,0
265.9196,266.0645,78,36,0
266.06815,266.21307,80,36,0
266.21307,266.358,81,36,0
266.35437,266.4993,76,36,0
266.50293,266.64786,73,36,0
266.64786,266.7928,78,36,0
266.78915,266.93408,71,36,0
266.9377,267.08264,78,36,0
267.08264,267.22757,81,36,0
267.22394,267.36887,71,36,0
267.3725,267.51743,81,36,0
267.51743,267.66235,80,36,0
267.65872,267.80365,71,36,0
267.80728,267.9522,80,36,0
267.9522,268.09714,83,36,0
268.0935,268.23843,80,36,0
268.24207,268.387,83,36,0
268.387,268.53192,81,36,0
268.5283,268.67322,83,36,0
268.67685,268.82178,80,36,0
268.82178,268.9667,81,36,0
268.96307,269.108,83,36,0
269.11163,269.25656,84,36,0
269.25656,269.4015,85,36,0
269.39786,269.5428,86,36,0
269.54642,269.69135,88,36,0
269.69135,269.83627,90,36,0
269.83264,269.97757,92,36,0
269.9812,270.12613,93,36,0
270.12613,270.27106,78,36,0
270.26743,270.41235,71,36,0
270.416,270.5609,78,36,0
270.5609,270.70584,81,36,0
270.7022,270.84714,71,36,0
270.85077,270.9957,81,36,0
270.9957,271.14062,80,36,0
271.137,271.28192,71,36,0
271.28555,271.43048,80,36,0
271.43048,271.5754,83,36,0
271.57178,271.7167,80,36,0
271.72034,271.86526,88,36,0
271.86526,272.0102,85,36,0
272.00656,272.1515,81,36,0
272.15512,272.30005,76,36,0
272.30005,272.44498,73,36,0
272.44135,272.58627,74,36,0
272.58987,272.7348,71,36,0
272.7348,272.9522,69,36,0
273.60437,273.7493,84,62,0
273.7457,273.89062,86,62,0
273.89423,274.03915,88,62,0
274.03915,274.18408,86,62,0
274.18048,274.3254,84,62,0
274.329,274.47394,83,62,0
274.47394,274.61887,81,62,0
274.61526,274.7602,83,62,0
274.7638,274.90872,84,62,0
274.90872,275.05365,81,62,0
275.05005,275.19498,79,62,0
275.19858,275.3435,77,62,0
275.3435,275.48843,76,62,0
275.48483,275.62976,75,62,0
275.63336,275.7783,76,62,0
275.7783,275.92322,77,62,0
275.91962,276.06454,76,62,0
276.06815,276.21307,74,62,0
276.21307,276.358,72,62,0
276.3544,276.4993,71,62,0
276.50293,276.64786,69,62,0
276.64786,276.7928,68,62,0
276.78915,276.93408,71,62,0
276.9377,277.08264,69,62,0
277.08264,277.22757,65,62,0
277.22394,277.36887,69,62,0
277.3725,277.51743,81,62,0
277.51743,277.66235,69,62,0
277.65872,277.80365,81,62,0
277.80728,277.9522,69,62,0
277.9522,278.09714,66,62,0
278.0935,278.23843,69,62,0
278.24207,278.387,81,62,0
278.387,278.53192,69,62,0
278.5283,278.67322,72,62,0
278.67685,278.82178,84,62,0
278.82178,278.9667,72,62,0
278.96307,279.108,76,62,0
279.11163,279.25656,80,62,0
279.25656,279.4015,81,62,0
279.39786,279.5428,83,62,0
279.54642,279.69135,84,62,0
279.69135,279.83627,83,62,0
279.83264,279.97757,84,62,0
279.9812,280.12613,86,62,0
280.12613,280.27106,88,62,0
280.26743,280.41235,90,62,0
280.416,280.5609,92,62,0
280.5609,280.58264,93,75,0
280.7783,280.80005,72,75,0
280.9957,281.01743,76,75,0
281.21307,281.23483,69,75,0
281.43048,281.4522,72,75,0
281.64786,281.66962,64,75,0
281.86526,281.887,69,75,0
282.08264,282.1044,60,75,0
282.30005,282.32178,83,101,0
282.51743,282.53918,78,75,0
282.73483,282.75656,81,75,0
282.9522,282.97397,71,75,0
283.16962,283.19135,71,75,0
283.387,283.40875,64,75,0
283.6044,283.62613,67,75,0
283.82178,283.84354,59,75,0
284.03918,284.0609,88,75,0
284.25656,284.27832,79,75,0
284.47397,284.4957,83,75,0
284.69135,284.71307,76,75,0
284.90875,284.93048,79,75,0
285.12613,285.14786,71,75,0
285.34354,285.36526,76,75,0
285.5609,285.58264,67,75,0
285.77832,285.80005,90,75,0
285.9957,286.01743,85,75,0
286.2131,286.23483,88,75,0
286.43048,286.4522,78,75,0
286.6479,286.66962,78,75,0
286.86526,286.887,71,75,0
287.08264,287.1044,74,75,0
287.30005,287.32178,66,75,0
287.51743,287.53918,88,75,0
287.73483,287.75656,83,75,0
287.9522,287.97397,86,75,0
288.16962,288.19135,76,75,0
288.387,288.40875,76,75,0
288.6044,288.62613,69,75,0
288.82178,288.84354,72,75,0
289.03918,289.0609,64,75,0
289.25656,289.27832,83,75,0
289.47397,289.4957,78,75,0
289.69135,289.7131,81,75,0
289.90875,289.93048,71,75,0
290.12613,290.1479,71,75,0
290.12613,290.1479,67,75,0
290.12613,290.1479,64,75,0
290.34354,290.36526,59,75,0
290.5609,290.58267,70,75,0
290.5609,290.58267,67,75,0
290.5609,290.58267,64,75,0
290.77832,290.80005,58,75,0
290.9957,291.01746,71,75,0
290.9957,291.01746,63,75,0
291.2131,291.23483,59,75,0
291.43048,291.45224,75,101,0
291.43048,291.45224,72,93,0
291.6479,291.66962,71,75,0
291.86526,291.887,76,101,0
292.08267,292.1044,71,75,0
292.30005,292.32178,78,101,0
292.30005,292.32178,75,93,0
292.51746,292.53918,71,75,0
292.73483,292.95224,79,88,0
292.73483,292.95224,76,88,0
293.16962,294.03918,79,114,0
293.16962,294.03918,67,106,0
294.03918,294.47397,84,88,0
294.03918,294.47397,72,88,0
294.47397,294.90875,83,88,0
294.47397,294.90875,71,88,0
294.90875,295.12613,82,88,0
294.90875,295.12613,70,88,0
295.34354,296.2131,83,114,0
295.34354,296.2131,71,106,0
296.2131,296.23483,71,88,0
296.2131,296.23483,59,88,0
296.6479,297.51746,74,114,0
296.6479,297.51746,62,106,0
297.51746,297.95224,79,88,0
297.51746,297.95224,67,88,0
297.95224,298.38702,78,88,0
297.95224,298.38702,66,88,0
298.38702,298.6044,77,88,0
298.38702,298.6044,65,88,0
298.8218,299.69138,78,114,0
298.8218,299.69138,66,106,0
299.69138,300.12616,76,88,0
299.69138,300.12616,64,88,0
300.12616,300.34354,75,88,0
300.12616,300.34354,63,88,0
300.56094,301.2131,76,88,0
300.56094,301.2131,64,88,0
301.2131,301.43048,79,88,0
301.2131,301.43048,67,88,0
301.43048,301.86526,71,88,0
301.43048,301.86526,59,88,0
301.86526,302.08267,70,88,0
301.86526,302.08267,58,88,0
302.30005,302.95224,71,88,0
302.30005,302.95224,59,88,0
302.95224,303.16962,67,88,0
302.95224,303.16962,55,88,0
303.16962,303.2131,66,114,0
303.16962,303.2131,54,106,0
303.6044,303.6479,64,114,0
303.6044,303.6479,52,106,0
304.03918,304.08267,62,114,0
304.03918,304.08267,50,106,0
304.47397,304.51746,61,114,0
304.47397,304.51746,49,106,0
305.01746,305.12616,59,75,0
305.12616,305.23483,61,75,0
305.23483,305.34354,62,75,0
305.34354,305.45224,64,75,0
305.45224,305.56094,66,75,0
305.56094,305.66962,68,75,0
305.66962,305.77832,70,75,0
305.77832,305.88702,71,75,0
305.88702,305.99573,73,75,0
305.99573,306.1044,74,75,0
306.1044,306.2131,76,75,0
306.2131,306.3218,78,75,0
306.3218,306.4305,80,75,0
306.4305,306.53918,82,75,0
306.53918,306.6479,83,75,0
306.6479,306.66962,85,88,0
306.8653,306.88702,73,88,0
307.08267,307.1044,97,88,0
307.30008,307.3218,85,88,0
307.51746,307.62616,71,101,0
307.62616,307.73486,73,101,0
307.73486,307.84354,74,101,0
307.84354,307.95224,76,101,0
307.95224,308.06094,78,101,0
308.06094,308.16962,80,101,0
308.16962,308.27832,82,101,0
308.27832,308.38702,83,101,0
308.38702,308.40875,85,101,0
308.6044,308.62616,73,101,0
308.8218,308.84354,97,101,0
309.03918,309.06094,85,101,0
309.2566,309.90875,85,114,0
309.2566,309.90875,80,109,0
309.2566,309.90875,73,104,0
309.90875,309.9305,85,88,0
309.90875,309.9305,80,88,0
309.90875,309.9305,73,88,0
310.12616,310.2711,81,88,0
310.12616,310.2711,78,88,0
310.26746,310.41238,73,88,0
310.41602,310.56094,81,88,0
310.41602,310.56094,78,88,0
310.56094,310.70587,83,88,0
310.56094,310.70587,80,88,0
310.70224,310.84717,74,88,0
310.8508,310.99573,83,88,0
310.8508,310.99573,80,88,0
310.99573,311.14066,81,88,0
310.99573,311.14066,78,88,0
311.13702,311.28195,73,88,0
311.28558,311.4305,81,88,0
311.28558,311.4305,78,88,0
311.4305,311.57544,80,88,0
311.4305,311.57544,77,88,0
311.5718,311.71674,73,88,0
311.72037,311.8653,80,88,0
311.72037,311.8653,77,88,0
311.97397,312.08267,54,75,0
312.08267,312.19138,56,75,0
312.19138,312.30008,57,75,0
312.30008,312.40875,59,75,0
312.40875,312.51746,61,75,0
312.51746,312.62616,63,75,0
312.62616,312.73486,65,75,0
312.73486,312.84354,66,75,0
312.84354,312.95224,68,75,0
312.95224,313.06094,69,75,0
313.06094,313.16965,71,75,0
313.16965,313.27832,73,75,0
313.27832,313.38702,75,75,0
313.38702,313.49573,77,75,0
313.49573,313.60443,78,75,0
313.60443,313.62616,80,101,0
313.8218,313.84354,68,101,0
314.0392,314.06094,92,101,0
314.2566,314.27832,80,101,0
314.474,314.58267,66,101,0
314.58267,314.69138,68,101,0
314.69138,314.80008,69,101,0
314.80008,314.90878,71,101,0
314.90878,315.01746,73,101,0
315.01746,315.12616,75,101,0
315.12616,315.23486,77,101,0
315.23486,315.34354,78,101,0
315.34354,315.3653,80,101,0
315.56094,315.58267,68,101,0
315.77832,315.80008,92,101,0
315.99573,316.01746,80,101,0
316.2131,316.8653,80,88,0
316.2131,316.8653,75,88,0
316.2131,316.8653,68,88,0
316.8653,317.08267,80,88,0
316.8653,317.08267,75,88,0
316.8653,317.08267,68,88,0
317.08267,317.2276,76,88,0
317.08267,317.2276,73,88,0
317.224,317.36893,68,88,0
317.37253,317.51746,76,88,0
317.37253,317.51746,73,88,0
317.51746,317.66238,78,88,0
317.51746,317.66238,75,88,0
317.65878,317.8037,69,88,0
317.8073,317.95224,78,88,0
317.8073,317.95224,75,88,0
317.95224,318.09717,76,88,0
317.95224,318.09717,73,88,0
318.09357,318.2385,68,88,0
318.2421,318.38702,76,88,0
318.2421,318.38702,73,88,0
318.38702,318.53195,75,88,0
318.38702,318.53195,72,88,0
318.52835,318.67328,68,88,0
318.67688,318.8218,75,88,0
318.67688,318.8218,72,88,0
318.8218,319.0392,73,88,0
319.2566,320.12616,64,49,0
319.2566,320.12616,52,49,0
320.12616,320.16965,69,49,0
320.12616,320.16965,57,49,0
320.56094,320.99573,68,49,0
320.56094,320.99573,56,49,0
320.99573,321.21313,67,49,0
320.99573,321.21313,55,49,0
321.4305,322.30008,68,114,0
321.4305,322.30008,56,114,0
321.4305,322.30008,61,114,0
321.4305,322.30008,64,114,0
322.30008,322.73486,68,49,0
322.30008,322.73486,56,49,0
322.73486,322.95224,67,49,0
322.73486,322.95224,55,49,0
323.16965,324.0392,68,114,0
323.16965,324.0392,56,114,0
323.16965,324.0392,60,114,0
323.16965,324.0392,66,114,0
324.0392,324.474,68,49,0
324.0392,324.474,56,49,0
324.474,324.69138,67,49,0
324.474,324.69138,55,49,0
324.90878,325.77835,73,114,0
324.90878,325.77835,68,114,0
324.90878,325.77835,61,114,0
325.77835,325.8218,69,88,0
325.77835,325.8218,57,88,0
326.21313,326.22763,66,88,0
326.21313,326.22763,54,88,0
326.64792,326.69138,63,88,0
326.64792,326.69138,51,88,0
327.0827,327.12616,68,88,0
327.0827,327.12616,56,88,0
327.5175,327.62616,73,36,0
327.62616,327.73486,72,36,0
327.73486,327.84357,73,36,0
327.84357,327.95227,75,36,0
327.95227,328.06094,76,36,0
328.06094,328.16965,78,36,0
328.16965,328.27835,76,36,0
328.27835,328.38705,75,36,0
328.38705,328.49573,73,36,0
328.49573,328.60443,72,36,0
328.60443,328.71313,73,36,0
328.71313,328.82184,75,36,0
328.82184,328.9305,76,36,0
328.9305,329.0392,78,36,0
329.0392,329.14792,76,36,0
329.14792,329.2566,75,36,0
329.2566,329.3653,73,36,0
329.3653,329.474,72,36,0
329.474,329.5827,73,36,0
329.5827,329.69138,75,36,0
329.69138,329.80008,76,36,0
329.80008,329.90878,78,36,0
329.90878,330.0175,76,36,0
330.0175,330.12616,75,36,0
330.12616,330.23486,73,36,0
330.23486,330.34357,72,36,0
330.34357,330.45227,73,36,0
330.45227,330.56094,75,36,0
330.56094,330.66965,76,36,0
330.66965,330.77835,78,36,0
330.77835,330.88705,76,36,0
330.88705,330.99573,73,36,0
330.99573,331.10443,75,36,0
331.10443,331.21313,74,36,0
331.21313,331.32184,75,36,0
331.32184,331.4305,76,36,0
331.4305,331.5392,78,36,0
331.5392,331.64792,80,36,0
331.64792,331.75662,78,36,0
331.75662,331.8653,76,36,0
331.8653,331.974,75,36,0
331.974,332.0827,74,36,0
332.0827,332.1914,75,36,0
332.1914,332.30008,76,36,0
332.30008,332.40878,78,36,0
332.40878,332.5175,80,36,0
332.5175,332.6262,78,36,0
332.6262,332.73486,75,36,0
332.73486,332.84357,76,36,0
332.84357,332.95227,75,36,0
332.95227,333.06094,76,36,0
333.06094,333.16965,78,36,0
333.16965,333.27835,80,36,0
333.27835,333.38705,81,36,0
333.38705,333.49573,80,36,0
333.49573,333.60443,78,36,0
333.60443,333.71313,76,36,0
333.71313,333.82184,75,36,0
333.82184,333.9305,76,36,0
333.9305,334.0392,78,36,0
334.0392,334.14792,80,36,0
334.14792,334.25662,81,36,0
334.25662,334.3653,80,36,0
334.3653,334.474,76,36,0
334.474,334.5827,78,36,0
334.5827,334.6914,77,36,0
334.6914,334.80008,78,36,0
334.80008,334.90878,80,36,0
334.90878,335.0175,81,36,0
335.0175,335.1262,83,36,0
335.1262,335.23486,81,36,0
335.23486,335.34357,80,36,0
335.34357,335.45227,78,36,0
335.45227,335.56097,80,36,0
335.56097,335.66965,78,36,0
335.66965,335.77835,76,36,0
335.77835,335.88705,75,36,0
335.88705,335.99576,76,36,0
335.99576,336.10443,75,36,0
336.10443,336.21313,73,36,0
336.21313,336.32184,72,36,0
336.32184,336.4305,75,36,0
336.4305,336.5392,72,36,0
336.5392,336.64792,69,36,0
336.64792,336.75662,68,49,0
336.75662,336.8653,69,49,0
336.8653,336.974,68,49,0
336.974,337.0827,66,49,0
337.0827,337.1914,64,62,0
337.1914,337.30008,68,62,0
337.30008,337.40878,66,62,0
337.40878,337.5175,64,62,0
337.5175,337.6262,63,75,0
337.6262,337.73486,66,75,0
337.73486,337.84357,64,75,0
337.84357,337.95227,63,75,0
337.95227,338.38705,61,114,0
338.38705,338.40878,64,88,0
338.60443,338.6262,68,88,0
338.82184,338.84357,73,101,0
339.0392,339.06097,76,101,0
339.25662,339.27835,80,114,0
339.474,339.49576,85,114,0
339.6914,340.1262,84,114,0
339.6914,340.1262,72,114,0
340.1262,340.34357,85,101,0
340.1262,340.34357,73,101,0
340.56097,341.43054,40,127,0
341.43054,341.86533,84,88,0
341.43054,341.86533,72,88,0
341.86533,342.0827,85,101,0
341.86533,342.0827,73,101,0
342.3001,343.16968,42,127,0
343.16968,343.60443,88,88,0
343.16968,343.60443,76,88,0
343.60443,343.82184,85,88,0
343.60443,343.82184,73,88,0
344.0392,344.0827,44,88,0
344.474,344.5175,45,88,0
344.90878,345.77835,47,88,0
345.77835,345.82184,83,88,0
345.77835,345.82184,71,88,0
346.21313,346.25662,85,88,0
346.21313,346.25662,73,88,0
346.64792,347.5175,87,88,0
346.64792,347.5175,75,88,0
347.5175,348.38705,88,88,0
347.5175,348.38705,76,88,0
348.38705,349.25662,42,88,0
349.25662,350.1262,44,88,0
350.1262,350.77835,45,88,0
350.77835,350.8001,69,88,0
350.99576,351.0175,73,88,0
351.21313,351.2349,76,88,0
351.43054,351.45227,81,88,0
351.64792,351.66968,85,88,0
351.86533,352.3001,84,88,0
351.86533,352.3001,72,88,0
352.3001,352.5175,85,101,0
352.3001,352.5175,73,101,0
352.7349,353.60446,40,127,0
353.60446,354.03925,84,88,0
353.60446,354.03925,72,88,0
354.03925,354.25662,85,101,0
354.03925,354.25662,73,101,0
354.47403,355.3436,42,127,0
355.3436,355.77838,88,88,0
355.3436,355.77838,76,88,0
355.77838,355.99576,85,88,0
355.77838,355.99576,73,88,0
356.21317,356.25662,44,114,0
356.64795,356.6914,45,114,0
357.08273,357.95227,47,88,0
357.95227,357.99576,92,114,0
357.95227,357.99576,80,106,0
358.38705,358.43054,93,114,0
358.38705,358.43054,81,106,0
358.82184,359.6914,95,88,0
358.82184,359.6914,83,88,0
359.6914,360.56097,96,88,0
359.6914,360.56097,84,88,0
360.56097,361.43054,97,88,0
360.56097,361.43054,85,88,0
361.43054,362.3001,42,88,0
362.3001,363.16968,44,88,0
363.16968,363.21317,45,114,0
363.60446,363.64795,46,114,0
364.03925,364.9088,47,88,0
364.9088,364.9523,95,114,0
364.9088,364.9523,83,106,0
365.3436,365.3871,96,114,0
365.3436,365.3871,84,106,0
365.77838,366.64795,97,88,0
365.77838,366.64795,85,88,0
366.64795,366.69144,45,114,0
367.08273,367.12622,46,114,0
367.51752,368.3871,47,88,0
368.3871,368.43054,95,114,0
368.3871,368.43054,83,106,0
368.82187,368.86533,96,114,0
368.82187,368.86533,84,106,0
369.25665,370.12622,97,88,0
369.25665,370.12622,85,88,0
370.12622,370.16968,42,114,0
370.561,370.60446,43,114,0
370.9958,371.86533,44,88,0
371.86533,372.7349,45,88,0
372.7349,373.60446,42,88,0
373.60446,374.47403,44,88,0
374.47403,375.3436,37,88,0
375.3436,375.3871,84,49,0
375.77838,375.82187,85,49,0
376.21317,377.08273,86,75,0
377.08273,377.12622,42,49,0
377.51752,377.561,45,49,0
377.9523,378.82187,49,75,0
378.82187,379.25665,84,49,0
379.25665,379.69144,85,49,0
379.69144,380.561,86,49,0
380.561,380.6045,42,49,0
380.9958,381.03928,45,49,0
381.43057,382.30014,49,49,0
382.30014,382.3436,78,49,0
382.73492,382.77838,81,49,0
383.1697,384.03928,85,49,0
384.03928,384.08273,42,49,0
384.47406,384.51752,45,49,0
384.90884,385.7784,49,49,0
385.7784,386.64795,49,49,0
386.64795,387.51752,49,49,0
387.51752,388.3871,49,49,0
388.3871,390.561,49,49,0
394.29715,395.36856,73,75,0
395.36856,395.6364,72,49,0
395.6364,395.9043,71,49,0
395.9043,396.12167,70,36,0
396.33905,397.20862,73,36,0
396.33905,397.20862,70,36,0
397.20862,397.2521,78,36,0
397.20862,397.2521,70,36,0
397.6434,398.0782,78,36,0
398.0782,398.2956,77,36,0
397.6434,398.2956,71,36,0
398.51297,399.38254,78,36,0
398.51297,399.38254,73,36,0
399.38254,400.03473,80,36,0
399.38254,400.03473,75,36,0
400.03473,400.2521,80,36,0
400.03473,400.2521,75,36,0
400.2521,400.6869,82,36,0
400.2521,400.6869,75,36,0
400.6869,401.12167,78,36,0
400.6869,401.12167,75,36,0
401.12167,401.99124,78,36,0
401.99124,402.20865,77,36,0
401.12167,402.20865,73,36,0
402.20865,402.42603,75,36,0
402.42603,402.64343,73,36,0
402.64343,402.8608,71,36,0
402.8608,402.8753,70,36,0
403.2956,404.16516,73,36,0
403.2956,404.16516,70,36,0
404.16516,404.20865,78,36,0
404.16516,404.20865,70,36,0
404.59995,405.03473,78,36,0
405.03473,405.2521,77,36,0
404.59995,405.2521,71,36,0
405.4695,406.33908,78,36,0
405.4695,406.33908,73,36,0
406.33908,406.99124,80,36,0
406.33908,406.99124,74,36,0
406.99124,407.20865,80,36,0
406.99124,407.20865,74,36,0
407.20865,407.2521,82,36,0
407.20865,407.2521,74,36,0
407.64343,407.6869,78,36,0
407.64343,407.6869,74,36,0
408.07822,408.7451,78,36,0
408.07822,408.7451,73,36,0
408.7451,408.97766,78,36,0
408.7451,408.97766,73,36,0
408.97766,409.02563,81,36,0
408.97766,409.02563,72,36,0
409.46356,409.51398,78,36,0
409.46356,409.51398,72,36,0
409.97427,410.77783,81,49,0
409.97427,410.77783,73,49,0
410.77783,411.04572,81,62,0
410.77783,411.04572,76,62,0
411.04572,411.09927,85,75,0
411.04572,411.09927,81,75,0
411.58142,411.63498,83,62,0
411.58142,411.63498,80,62,0
412.11713,412.33453,73,49,0
412.5519,413.42148,76,49,0
412.5519,413.42148,73,49,0
413.42148,413.85626,81,49,0
413.42148,413.85626,73,49,0
413.85626,414.29105,81,49,0
414.29105,414.50842,80,49,0
413.85626,414.50842,74,49,0
414.72583,415.5954,81,75,0
414.72583,415.5954,76,67,0
415.5954,416.24756,83,49,0
415.5954,416.24756,78,49,0
416.24756,416.46497,83,49,0
416.24756,416.46497,78,49,0
416.46497,416.50842,85,49,0
416.46497,416.50842,78,49,0
416.89975,416.91425,81,49,0
416.89975,416.91425,78,49,0
417.33453,418.2041,81,49,0
418.2041,418.42148,80,49,0
417.33453,418.42148,76,49,0
418.42148,418.6389,78,49,0
418.6389,418.85626,76,49,0
418.85626,419.07367,74,49,0
419.07367,419.29105,73,49,0
419.50845,420.37802,76,49,0
419.50845,420.37802,73,49,0
420.37802,420.81277,81,49,0
420.37802,420.81277,73,49,0
420.81277,421.24756,81,49,0
421.24756,421.46497,80,49,0
420.81277,421.46497,74,49,0
421.68234,422.5519,81,75,0
421.68234,422.5519,76,67,0
422.5519,422.9867,83,49,0
422.5519,422.9867,78,49,0
422.9867,423.2041,85,49,0
422.9867,423.2041,76,49,0
423.2041,423.42148,86,49,0
423.2041,423.42148,74,49,0
423.42148,423.46497,85,49,0
423.42148,423.46497,76,49,0
423.85626,423.89975,83,49,0
423.85626,423.89975,76,49,0
423.85626,423.89975,74,49,0
424.29105,425.1606,83,49,0
424.29105,425.1606,74,49,0
425.1606,425.37802,81,49,0
425.1606,425.37802,73,49,0
424.29105,425.37802,76,49,0
425.37802,425.39975,83,49,0
425.37802,425.39975,71,49,0
425.5954,425.61713,85,49,0
425.5954,425.61713,73,49,0
425.8128,425.83453,86,49,0
425.8128,425.83453,74,49,0
426.03018,426.68237,88,62,0
426.03018,426.68237,76,62,0
426.68237,426.89975,88,62,0
426.68237,426.89975,76,62,0
426.89975,427.76932,90,88,0
426.89975,427.76932,78,80,0
427.76932,428.2041,88,62,0
427.76932,428.2041,76,62,0
428.2041,428.42148,87,62,0
428.2041,428.42148,75,62,0
428.6389,429.29105,83,62,0
428.6389,429.29105,71,62,0
429.29105,429.50845,85,62,0
429.29105,429.50845,73,62,0
429.50845,430.1606,86,62,0
429.50845,430.1606,74,62,0
430.1606,430.37802,86,62,0
430.1606,430.37802,74,62,0
430.37802,431.2476,88,88,0
430.37802,431.2476,76,80,0
431.2476,431.89975,81,62,0
431.2476,431.89975,69,62,0
431.89975,432.11716,83,62,0
431.89975,432.11716,71,62,0
432.11716,432.98672,85,62,0
432.11716,432.98672,73,62,0
432.98672,433.03018,83,62,0
432.98672,433.03018,71,62,0
433.4215,433.46497,83,62,0
433.4215,433.46497,71,62,0
433.8563,433.89975,83,62,0
433.8563,433.89975,71,62,0
434.29108,434.61716,86,62,0
434.29108,434.61716,74,62,0
434.61716,434.72583,85,62,0
434.61716,434.72583,73,62,0
434.72583,435.5954,85,62,0
434.72583,435.5954,73,62,0
435.5954,436.2476,88,88,0
435.5954,436.2476,76,80,0
436.2476,436.3563,86,62,0
436.3563,436.46497,85,62,0
436.46497,436.50845,83,62,0
436.46497,436.50845,71,62,0
436.89975,436.94324,83,62,0
436.89975,436.94324,71,62,0
437.33453,437.37802,83,62,0
437.33453,437.37802,71,62,0
437.76932,438.09543,86,62,0
437.76932,438.09543,74,62,0
438.09543,438.2041,85,62,0
438.09543,438.2041,73,62,0
438.2041,439.29108,81,62,0
438.2041,439.29108,69,62,0
439.94324,439.96497,69,49,0
440.16064,440.18237,71,49,0
440.37802,440.39975,73,49,0
440.59543,440.61716,74,49,0
440.8128,440.95773,76,49,0
440.9541,441.09903,75,49,0
441.10266,441.2476,76,49,0
441.2476,441.39252,77,49,0
441.3889,441.5338,78,49,0
441.53745,441.68237,79,49,0
441.68237,441.8273,78,49,0
441.82367,441.9686,77,49,0
441.97223,442.11716,78,49,0
442.11716,442.2621,79,49,0
442.25845,442.40338,80,49,0
442.407,442.55194,82,49,0
442.55194,442.76932,83,49,0
443.6389,443.66064,74,49,0
443.8563,443.87802,76,49,0
444.07367,444.09543,78,49,0
444.29108,444.436,76,49,0
444.43237,444.5773,80,49,0
444.58093,444.72586,81,49,0
444.72586,444.8708,83,49,0
444.86716,445.0121,80,49,0
445.01572,445.16064,74,49,0
445.16064,445.30557,73,49,0
445.30194,445.44687,71,49,0
445.4505,445.59543,73,49,0
445.59543,445.74036,74,49,0
445.73672,445.88165,73,49,0
445.88528,446.0302,74,49,0
446.0302,446.17514,76,49,0
446.1715,446.31644,78,49,0
446.32007,446.465,80,49,0
446.465,446.60992,81,49,0
446.6063,446.75122,76,49,0
446.75485,446.89978,73,49,0
446.89978,447.0447,78,49,0
447.04108,447.186,71,49,0
447.18964,447.33456,78,49,0
447.33456,447.4795,81,49,0
447.47586,447.6208,71,49,0
447.62442,447.76935,81,49,0
447.76935,447.91428,80,49,0
447.91064,448.05557,71,49,0
448.0592,448.20413,80,49,0
448.20413,448.34906,83,49,0
448.34543,448.49036,80,49,0
448.494,448.63892,83,49,0
448.63892,448.7838,81,49,0
448.7802,448.92514,83,49,0
448.92874,449.07367,80,49,0
449.07367,449.2186,81,49,0
449.215,449.35992,83,49,0
449.36353,449.50845,84,49,0
449.50845,449.65338,85,49,0
449.64978,449.7947,86,49,0
449.7983,449.94324,88,49,0
449.94324,450.08817,90,49,0
450.08456,450.2295,92,49,0
450.2331,450.37802,93,49,0
450.37802,450.52295,78,49,0
450.51935,450.66428,71,49,0
450.66788,450.8128,78,49,0
450.8128,450.95773,81,49,0
450.95413,451.09906,71,49,0
451.10266,451.2476,81,49,0
451.2476,451.39252,80,49,0
451.38892,451.53384,71,49,0
451.53745,451.68237,80,49,0
451.68237,451.8273,83,49,0
451.8237,451.96863,80,49,0
451.97223,452.11716,88,49,0
452.11716,452.2621,85,75,0
452.25848,452.4034,80,75,0
452.407,452.55194,92,75,0
452.55194,452.69687,89,75,0
452.69324,452.83817,85,75,0
452.8418,452.98672,97,75,0
452.98672,453.13165,92,75,0
453.12802,453.27295,89,75,0
453.27658,453.4215,85,75,0
453.4215,453.56644,73,75,0
453.5628,453.70773,85,75,0
453.71136,453.8563,73,75,0
453.8563,454.00122,81,88,0
453.9976,454.14252,78,88,0
454.14615,454.29108,86,88,0
454.29108,454.436,81,88,0
454.43237,454.5773,78,88,0
454.58093,454.72586,90,88,0
454.72586,454.8708,86,88,0
454.86716,455.0121,81,88,0
455.01572,455.16064,93,88,0
455.16064,455.30557,78,88,0
455.30194,455.44687,80,88,0
455.4505,455.59543,81,88,0
455.59543,455.74036,83,88,0
455.73672,455.88165,76,88,0
455.88528,456.0302,88,88,0
456.0302,456.17514,83,88,0
456.1715,456.31644,80,88,0
456.32007,456.465,92,88,0
456.465,456.60992,88,88,0
456.6063,456.75122,83,88,0
456.75485,456.89978,95,88,0
456.89978,457.0447,92,88,0
457.04108,457.186,88,88,0
457.18964,457.33456,100,88,0
457.33456,457.4795,81,75,0
457.47586,457.6208,69,75,0
457.62442,457.76935,81,75,0
457.76935,457.91428,85,75,0
457.91064,458.05557,73,75,0
458.0592,458.20413,85,75,0
458.20413,458.34906,88,75,0
458.34543,458.49036,76,75,0
458.494,458.63892,88,75,0
458.63892,458.78384,93,88,0
458.7802,458.92514,81,88,0
458.92877,459.0737,93,88,0
459.0737,459.21863,81,101,0
459.215,459.35992,93,101,0
459.36356,459.50848,90,101,0
459.50848,459.6534,86,88,0
459.64978,459.7947,81,88,0
459.79834,459.94327,77,88,0
459.94327,460.0882,78,75,0
460.08456,460.2295,80,75,0
460.23312,460.37805,81,75,0
460.37805,460.52298,83,75,0
460.51935,460.66428,85,75,0
460.6679,460.81284,86,75,0
460.81284,460.95776,88,75,0
460.95413,461.09906,85,75,0
461.1027,461.24762,81,75,0
461.24762,461.39255,76,75,0
461.38892,461.53384,73,75,0
461.53748,461.6824,76,75,0
461.6824,461.82733,85,75,0
461.8237,461.96863,76,75,0
461.97226,462.1172,81,75,0
462.1172,462.26212,83,75,0
462.25848,462.4034,76,75,0
462.40704,462.55197,80,75,0
462.55197,462.6969,69,75,0
462.69327,462.8382,83,75,0
462.84183,462.98672,81,75,0
462.98672,463.13165,73,75,0
463.12805,463.27298,86,75,0
463.27658,463.4215,85,75,0
463.4215,463.56644,76,75,0
463.56284,463.70776,88,75,0
463.71136,463.8563,86,75,0
463.8563,464.00122,81,88,0
463.99762,464.14255,95,88,0
464.14615,464.29108,93,88,0
464.29108,464.436,81,101,0
464.4324,464.57733,93,101,0
464.58093,464.72586,90,101,0
464.72586,464.8708,86,88,0
464.8672,465.01212,81,88,0
465.01572,465.16064,77,88,0
465.16064,465.30557,78,75,0
465.30197,465.4469,80,75,0
465.4505,465.59543,81,75,0
465.59543,465.74036,83,75,0
465.73676,465.88168,85,75,0
465.88528,466.0302,86,75,0
466.0302,466.17514,76,75,0
466.17154,466.31647,88,75,0
466.32007,466.465,85,75,0
466.465,466.60992,81,75,0
466.60632,466.75125,76,75,0
466.75485,466.89978,73,75,0
466.89978,467.0447,75,101,0
467.04108,467.186,93,101,0
467.18964,467.33456,90,101,0
467.33456,467.4795,87,101,0
467.47586,467.6208,83,101,0
467.62442,467.76935,87,101,0
467.76935,467.98676,88,101,0
468.20413,468.24762,87,127,0
468.20413,468.24762,83,127,0
468.20413,468.24762,81,127,0
468.63892,468.6824,88,127,0
468.63892,468.6824,83,122,0
468.63892,468.6824,81,117,0
469.0737,469.1172,90,127,0
469.0737,469.1172,83,127,0
469.0737,469.1172,81,120,0
469.50848,469.94327,88,88,0
469.50848,469.94327,83,88,0
469.50848,469.94327,80,88,0
469.94327,470.0882,78,62,0
470.08456,470.2295,71,36,0
470.23312,470.37805,69,36,0
470.37805,470.52298,76,36,0
470.51935,470.66428,71,36,0
470.6679,470.81284,69,36,0
470.81284,470.95776,75,36,0
470.95413,471.09906,71,36,0
471.1027,471.24762,69,36,0
471.24762,471.39255,76,36,0
471.38892,471.53384,71,36,0
471.53748,471.6824,68,36,0
471.6824,471.7259,90,114,0
471.6824,471.7259,83,109,0
471.6824,471.7259,81,104,0
472.1172,472.16068,88,127,0
472.1172,472.16068,83,127,0
472.1172,472.16068,81,120,0
472.55197,472.59546,87,127,0
472.55197,472.59546,83,127,0
472.55197,472.59546,81,120,0
472.98676,473.42154,88,88,0
472.98676,473.42154,83,88,0
472.98676,473.42154,80,88,0
473.42154,473.56647,75,62,0
473.56284,473.70776,71,36,0
473.7114,473.85632,69,36,0
473.85632,474.00125,76,36,0
473.99762,474.14255,71,36,0
474.14618,474.2911,69,36,0
474.2911,474.43604,78,36,0
474.4324,474.57733,71,36,0
474.58096,474.7259,69,36,0
474.7259,474.87082,76,36,0
474.8672,475.01212,71,36,0
475.01575,475.16068,68,36,0
475.16068,475.3056,64,36,0
475.30197,475.4469,59,36,0
475.45053,475.59546,56,36,0
477.33456,477.37805,76,49,0
477.76935,477.81284,76,49,0
478.20413,479.0737,76,49,0
479.0737,479.09546,76,75,0
479.2911,479.31284,76,49,0
479.50848,479.53024,78,49,0
479.7259,479.74762,80,49,0
479.94327,480.81284,81,49,0
480.81284,480.8346,81,75,0
480.81284,480.8346,69,67,0
481.03024,481.05197,81,49,0
481.03024,481.05197,69,49,0
481.24762,481.26938,83,49,0
481.24762,481.26938,71,49,0
481.46503,481.48676,85,49,0
481.46503,481.48676,73,49,0
481.6824,482.55197,86,49,0
481.6824,482.55197,74,49,0
482.55197,482.59546,90,49,0
482.55197,482.59546,78,49,0
482.98676,483.03024,90,62,0
482.98676,483.03024,78,62,0
483.42154,483.85632,88,75,0
483.42154,483.85632,76,75,0
483.85632,484.2911,90,75,0
483.85632,484.2911,78,75,0
484.2911,484.7259,88,62,0
484.2911,484.7259,76,62,0
484.7259,485.16068,85,62,0
484.7259,485.16068,73,62,0
485.16068,486.03024,83,49,0
485.16068,486.03024,71,49,0
486.03024,486.07373,76,49,0
486.46503,486.5085,76,49,0
486.8998,487.76938,76,49,0
487.76938,487.7911,76,75,0
487.98676,488.0085,76,62,0
488.20416,488.2259,78,49,0
488.42154,488.4433,79,49,0
488.63895,489.5085,78,49,0
489.5085,489.53024,78,75,0
489.5085,489.53024,66,75,0
489.7259,489.74762,78,62,0
489.7259,489.74762,66,62,0
489.9433,489.96503,80,49,0
489.9433,489.96503,68,49,0
490.16068,490.1824,82,49,0
490.16068,490.1824,70,49,0
490.37808,491.24765,83,49,0
490.37808,491.24765,71,49,0
491.24765,491.2911,85,49,0
491.24765,491.2911,73,49,0
491.6824,491.7259,85,49,0
491.6824,491.7259,73,49,0
492.1172,492.55197,86,62,0
492.1172,492.55197,74,62,0
492.55197,492.98676,85,75,0
492.55197,492.98676,73,75,0
492.98676,493.42154,83,75,0
492.98676,493.42154,71,75,0
493.42154,493.85632,82,62,0
493.42154,493.85632,70,62,0
493.85632,494.2911,83,49,0
493.85632,494.2911,71,49,0
494.2911,494.43604,71,36,0
494.43243,494.57736,74,36,0
494.58096,494.7259,78,36,0
494.7259,494.87082,71,36,0
494.86722,495.01215,74,36,0
495.01575,495.16068,78,36,0
495.16068,495.3056,71,36,0
495.30197,495.4469,74,36,0
495.45053,495.59546,78,36,0
495.59546,495.7404,70,36,0
495.73676,495.88168,73,36,0
495.8853,496.03024,78,36,0
496.03024,496.17517,70,36,0
496.17154,496.31647,73,36,0
496.3201,496.46503,78,36,0
496.46503,496.60995,73,36,0
496.60632,496.75125,76,36,0
496.75488,496.8998,78,36,0
496.8998,497.04474,73,36,0
497.0411,497.18604,76,36,0
497.18967,497.3346,78,36,0
497.3346,497.47952,74,36,0
497.4759,497.62082,78,36,0
497.62445,497.76938,74,36,0
497.76938,497.9143,71,36,0
497.91068,498.0556,74,36,0
498.05923,498.20416,78,36,0
498.20416,498.3491,78,36,0
498.34546,498.4904,81,36,0
498.49402,498.63895,83,36,0
498.63895,498.78387,78,36,0
498.78024,498.92517,81,36,0
498.9288,499.07373,83,36,0
499.07373,499.21866,76,36,0
499.21503,499.35995,79,36,0
499.3636,499.5085,83,36,0
499.5085,499.65344,76,36,0
499.6498,499.79474,79,36,0
499.79837,499.9433,83,36,0
499.9433,500.08823,83,36,0
500.0846,500.22952,88,36,0
500.23315,500.37808,91,36,0
500.37808,500.523,83,36,0
500.51938,500.6643,88,36,0
500.66794,500.81287,91,36,0
500.81287,500.9578,81,49,0
500.95416,501.0991,86,49,0
501.10272,501.24765,93,49,0
501.24765,501.39258,83,62,0
501.38895,501.53387,86,62,0
501.5375,501.68243,91,62,0
501.68243,501.82736,81,62,0
501.82373,501.96866,86,62,0
501.9723,502.11722,90,62,0
502.11722,502.26215,81,49,0
502.2585,502.40344,85,49,0
502.40707,502.552,88,49,0
502.552,502.69693,86,49,0
502.6933,502.83823,90,49,0
502.84186,502.9868,86,49,0
502.9868,503.1317,81,49,0
503.12808,503.273,78,49,0
503.27664,503.42157,74,49,0
503.42157,503.5665,81,36,0
503.56287,503.7078,78,36,0
503.71143,503.85635,74,36,0
503.85635,504.00128,81,36,0
503.99765,504.14258,78,36,0
504.1462,504.29114,74,36,0
504.29114,504.43607,73,49,0
504.43243,504.57736,76,49,0
504.581,504.72592,81,49,0
504.72592,504.87085,73,49,0
504.86722,505.01215,76,49,0
505.01578,505.1607,81,49,0
505.1607,505.30563,81,36,0
505.302,505.44693,85,36,0
505.45056,505.59546,88,36,0
505.59546,505.7404,93,36,0
505.7368,505.8817,97,36,0
505.8853,506.03024,100,36,0
506.03024,506.17517,98,36,0
506.17157,506.3165,93,36,0
506.3201,506.46503,90,36,0
506.46503,506.60995,86,36,0
506.60635,506.75128,81,36,0
506.75488,506.8998,78,36,0
506.8998,507.04474,81,36,0
507.04114,507.18607,78,36,0
507.18967,507.3346,74,36,0
507.3346,507.47952,81,36,0
507.47592,507.62085,78,36,0
507.62445,507.76938,74,36,0
507.76938,507.9143,73,62,0
507.9107,508.05563,76,62,0
508.05923,508.20416,81,62,0
508.20416,508.3491,73,49,0
508.3455,508.49042,76,49,0
508.49402,508.63895,81,49,0
508.63895,508.78387,81,36,0
508.78027,508.9252,85,36,0
508.9288,509.07373,88,36,0
509.07373,509.21866,93,36,0
509.21506,509.36,97,36,0
509.3636,509.5085,100,36,0
509.5085,509.65344,98,62,0
509.6498,509.79474,93,62,0
509.79837,509.9433,90,62,0
509.9433,510.08823,86,49,0
510.0846,510.22952,81,49,0
510.23315,510.37808,78,49,0
510.37808,510.523,81,36,0
510.51938,510.6643,85,36,0
510.66794,510.81287,88,36,0
510.81287,510.9578,93,36,0
510.95416,511.0991,97,36,0
511.10272,511.24765,100,36,0
511.24765,511.39258,98,62,0
511.38895,511.53387,93,62,0
511.5375,511.68243,90,62,0
511.68243,511.82736,86,49,0
511.82373,511.96866,81,49,0
511.9723,512.11725,78,49,0
512.11725,512.26215,81,36,0
512.25854,512.40344,85,36,0
512.4071,512.552,88,36,0
512.552,512.6969,93,36,0
512.6933,512.83826,97,36,0
512.84186,512.98676,100,36,0
512.98676,513.1317,98,36,0
513.1281,513.273,93,36,0
513.2766,513.4216,90,36,0
513.4216,513.56647,86,36,0
513.56287,513.7078,81,36,0
513.7114,513.8563,78,36,0
513.8563,513.89984,81,75,0
514.29114,514.3346,81,49,0
514.7259,515.59546,81,49,0
515.59546,515.639,81,49,0
516.0303,516.0737,81,49,0
516.465,517.3346,81,49,0
517.3346,517.3564,81,49,0
517.552,517.5737,81,49,0
517.7694,517.79114,83,49,0
517.9868,518.00854,84,49,0
518.20416,518.639,86,75,0
518.639,519.0737,84,75,0
519.0737,519.50854,83,62,0
519.50854,519.9433,81,62,0
519.9433,520.81287,83,49,0
520.81287,520.8564,74,75,0
521.2477,521.29114,74,49,0
521.68243,522.552,74,49,0
522.552,522.59546,74,49,0
522.9868,523.0303,74,49,0
523.4216,524.29114,74,49,0
524.29114,524.31287,74,49,0
524.50854,524.5303,74,49,0
524.72595,524.7477,76,62,0
524.9433,524.965,77,62,0
525.1607,525.5955,79,75,0
525.5955,526.0303,77,75,0
526.0303,526.4651,76,62,0
526.4651,526.89984,74,62,0
526.89984,527.7694,76,49,0
527.7694,527.79114,88,75,0
527.7694,527.79114,76,75,0
527.9868,528.00854,88,75,0
527.9868,528.00854,76,75,0
528.20416,528.22595,90,62,0
528.20416,528.22595,78,62,0
528.4216,528.4433,92,49,0
528.4216,528.4433,80,49,0
528.639,529.50854,93,49,0
528.639,529.50854,81,49,0
529.50854,529.5303,81,75,0
529.50854,529.5303,69,75,0
529.72595,529.7477,81,75,0
529.72595,529.7477,69,75,0
529.9433,529.9651,83,62,0
529.9433,529.9651,71,62,0
530.1607,530.18243,85,49,0
530.1607,530.18243,73,49,0
530.3781,531.2477,86,49,0
530.3781,531.2477,74,49,0
531.2477,531.68243,90,88,0
531.2477,531.68243,78,88,0
531.68243,532.11725,90,88,0
531.68243,532.11725,78,88,0
532.11725,532.552,88,101,0
532.11725,532.552,76,101,0
532.552,532.9868,86,101,0
532.552,532.9868,74,101,0
532.9868,533.4216,85,88,0
532.9868,533.4216,73,88,0
533.4216,533.8564,83,88,0
533.4216,533.8564,71,88,0
533.8564,534.29114,81,88,0
533.8564,534.29114,69,88,0
534.29114,534.4361,69,88,0
534.43243,534.5774,73,88,0
534.581,534.72595,76,88,0
534.72595,534.87085,69,62,0
534.86725,535.01215,73,62,0
535.0158,535.1607,76,62,0
535.1607,535.30566,69,62,0
535.302,535.44696,73,62,0
535.45056,535.5955,76,62,0
535.5955,535.7404,68,62,0
535.7368,535.8817,71,62,0
535.8854,536.0303,76,62,0
536.0303,536.17523,68,62,0
536.1716,536.3165,71,62,0
536.3201,536.4651,76,62,0
536.4651,536.61,71,62,0
536.6064,536.7513,74,62,0
536.75494,536.89984,76,62,0
536.89984,537.0448,71,62,0
537.04114,537.1861,74,62,0
537.1897,537.33466,76,62,0
537.33466,537.47955,72,62,0
537.47595,537.62085,76,62,0
537.6245,537.7694,72,62,0
537.7694,537.91437,69,62,0
537.9107,538.05566,72,62,0
538.05927,538.2042,76,62,0
538.2042,538.3491,76,62,0
538.3455,538.4904,79,62,0
538.4941,538.639,81,62,0
538.639,538.78394,76,62,0
538.7803,538.92523,79,62,0
538.92883,539.0738,81,62,0
539.0738,539.2187,74,62,0
539.2151,539.36,77,62,0
539.36365,539.50854,81,62,0
539.50854,539.6535,74,62,0
539.64984,539.7948,77,62,0
539.7984,539.94336,81,62,0
539.94336,540.08826,81,62,0
540.08466,540.22955,86,62,0
540.2332,540.3781,89,62,0
540.3781,540.5231,81,62,0
540.5194,540.66437,86,62,0
540.66797,540.8129,89,62,0
540.8129,540.9578,79,62,0
540.9542,541.0991,84,62,0
541.1027,541.2477,91,62,0
541.2477,541.3926,81,62,0
541.389,541.53394,84,62,0
541.53754,541.68243,89,62,0
541.68243,541.8274,79,62,0
541.8238,541.9687,84,62,0
541.9723,542.11725,88,62,0
542.11725,542.26215,79,62,0
542.25854,542.4035,83,62,0
542.4071,542.552,86,62,0
542.552,542.69696,88,101,0
542.69336,542.83826,86,75,0
542.84186,542.9868,83,75,0
542.9868,543.1317,76,75,0
543.1281,543.2731,74,75,0
543.2767,543.4216,71,75,0
543.4216,543.5665,64,62,0
543.5629,543.7078,76,62,0
543.7114,543.8564,64,62,0
543.8564,544.0013,76,62,0
543.9977,544.14264,64,62,0
544.14624,544.29114,76,62,0
544.29114,544.4361,71,75,0
544.4325,544.5774,74,75,0
544.581,544.72595,77,75,0
544.72595,544.87085,83,75,0
544.86725,545.01215,86,75,0
545.0158,545.1607,89,75,0
545.1607,545.30566,95,62,0
545.302,545.44696,83,62,0
545.45056,545.5955,95,62,0
545.5955,545.7404,83,62,0
545.7368,545.8817,95,62,0
545.8854,546.0303,83,62,0
546.0303,546.17523,88,75,0
546.1716,546.3165,86,75,0
546.3201,546.4651,83,75,0
546.4651,546.61,76,75,0
546.6064,546.7513,74,75,0
546.75494,546.89984,71,75,0
546.89984,547.0448,64,62,0
547.04114,547.1861,76,62,0
547.1897,547.33466,64,62,0
547.33466,547.47955,76,62,0
547.47595,547.62085,64,62,0
547.6245,547.7694,76,62,0
547.7694,547.91437,71,75,0
547.9107,548.05566,74,75,0
548.05927,548.2042,77,75,0
548.2042,548.3491,83,75,0
548.3455,548.4904,86,75,0
548.4941,548.639,89,75,0
548.639,548.78394,95,62,0
548.7803,548.92523,83,62,0
548.92883,549.0738,95,62,0
549.0738,549.2187,83,62,0
549.2151,549.36,95,62,0
549.36365,549.50854,83,62,0
549.50854,549.6535,98,88,0
549.64984,549.7948,97,88,0
549.7984,549.94336,95,88,0
549.94336,550.08826,93,88,0
550.08466,550.22955,92,88,0
550.2332,550.3781,90,88,0
550.3781,550.5231,88,75,0
550.5194,550.66437,86,75,0
550.66797,550.8129,85,75,0
550.8129,550.9578,83,75,0
550.9542,551.0991,81,75,0
551.1028,551.2477,80,75,0
551.2477,551.39264,78,62,0
551.389,551.53394,76,62,0
551.53754,551.6825,74,62,0
551.6825,551.8274,73,62,0
551.8238,551.9687,71,62,0
551.97235,552.11725,69,62,0
552.11725,552.2622,68,49,0
552.25854,552.4035,66,49,0
552.4071,552.55206,64,49,0
552.55206,552.69696,63,49,0
552.69336,552.83826,64,49,0
552.8419,552.9868,66,49,0
552.9868,553.1318,68,49,0
553.1281,553.2731,69,49,0
553.2767,553.42163,71,49,0
553.42163,553.5665,73,49,0
553.5629,553.7078,74,49,0
553.7115,553.8564,75,49,0
553.8564,553.89984,76,36,0
554.2912,554.33466,76,36,0
554.72595,555.5955,76,36,0
555.5955,555.61725,76,62,0
555.8129,555.83466,76,62,0
556.0303,556.05206,78,49,0
556.2477,556.2694,80,36,0
556.4651,557.33466,81,36,0
557.33466,557.3781,72,62,0
557.7694,557.8129,72,49,0
558.2042,559.0738,72,49,0
559.0738,559.11725,81,49,0
559.0738,559.11725,69,49,0
559.50854,559.55206,81,49,0
559.50854,559.55206,69,49,0
559.94336,560.8129,82,49,0
559.94336,560.8129,70,49,0
560.8129,560.8564,72,62,0
561.2477,561.2912,72,49,0
561.6825,562.55206,72,36,0
562.55206,562.66077,94,36,0
562.66077,562.7694,91,36,0
562.7694,562.8781,88,36,0
562.8781,562.9868,82,36,0
562.9868,563.1318,79,36,0
563.1281,563.2731,76,36,0
563.2767,563.42163,70,36,0
563.42163,564.2912,69,36,0
564.2912,564.33466,72,62,0
564.72595,564.7695,72,49,0
565.16077,566.03033,72,49,0
566.03033,566.05206,81,49,0
566.03033,566.05206,69,49,0
566.2477,566.2695,81,49,0
566.2477,566.2695,69,49,0
566.4651,566.4868,81,49,0
566.4651,566.4868,69,49,0
566.6825,566.7042,81,49,0
566.6825,566.7042,69,49,0
567.7151,567.7695,74,49,0
566.8999,567.7695,82,49,0
566.8999,567.7695,70,49,0
567.7695,567.9868,72,49,0
567.9868,568.2042,71,49,0
568.2042,568.42163,72,49,0
568.42163,568.63904,74,49,0
568.63904,569.0738,74,49,0
569.0738,569.2912,72,49,0
569.50854,569.61725,94,49,0
569.61725,569.72595,91,49,0
569.72595,569.83466,88,49,0
569.83466,569.94336,82,49,0
569.94336,570.08826,79,49,0
570.08466,570.2296,76,49,0
570.2332,570.3781,70,49,0
570.3781,571.03033,69,49,0
571.03033,571.05206,93,49,0
571.2477,571.3564,94,75,0
571.3564,571.4651,91,75,0
571.4651,571.5738,88,49,0
571.5738,571.6825,82,49,0
571.6825,571.8274,79,49,0
571.8238,571.96875,76,49,0
571.97235,572.11725,70,49,0
572.11725,572.7695,69,75,0
572.7695,572.7912,93,75,0
572.9868,573.0955,94,101,0
573.0955,573.2042,91,101,0
573.2042,573.3129,88,75,0
573.3129,573.42163,82,75,0
573.42163,573.5665,79,75,0
573.5629,573.7078,76,75,0
573.7115,573.8564,70,75,0
573.8564,574.2912,69,88,0
574.2912,574.4361,81,88,0
574.4325,574.5774,69,88,0
574.58105,574.72595,81,88,0
574.72595,574.8709,82,88,0
574.86725,575.0122,70,88,0
575.0158,575.16077,82,88,0
575.16077,575.30566,83,101,0
575.30206,575.44696,71,101,0
575.4506,575.5955,83,101,0
575.5955,575.7405,84,101,0
575.7368,575.8818,72,101,0
575.8854,576.03033,84,101,0
576.03033,576.17523,85,101,0
576.17163,576.3165,73,101,0
576.3202,576.4651,85,101,0
576.4651,576.61005,86,101,0
576.6064,576.75134,74,101,0
576.75494,576.8999,86,101,0
576.8999,577.0448,87,101,0
577.0412,577.1861,75,101,0
577.18976,577.33466,87,101,0
577.33466,577.4796,88,114,0
577.47595,577.6209,85,114,0
577.6245,577.7695,81,114,0
577.7695,577.91437,76,101,0
577.91077,578.05566,73,101,0
578.0593,578.2042,69,101,0
578.2042,578.3492,76,88,0
578.3455,578.4905,73,88,0
578.4941,578.63904,69,88,0
578.63904,578.78394,64,75,0
578.78033,578.92523,61,75,0
578.9289,579.0738,57,75,0
579.0738,579.2912,52,75,0
579.5086,580.3782,73,114,0
579.5086,580.3782,69,114,0
579.5086,580.3782,64,114,0
580.3782,580.8129,71,114,0
580.3782,580.8129,68,114,0
580.3782,580.8129,64,114,0
580.8129,580.9579,69,36,0
580.9542,581.0992,64,36,0
581.1028,581.24774,61,36,0
581.24774,581.39264,64,36,0
581.38904,581.53394,69,36,0
581.5376,581.6825,73,36,0
581.6825,581.82745,76,36,0
581.8238,581.96875,73,36,0
581.97235,582.1173,69,36,0
582.1173,582.2622,76,36,0
582.2586,582.4035,73,36,0
582.40717,582.55206,69,36,0
582.55206,582.697,68,49,0
582.69336,582.8383,71,49,0
582.8419,582.9869,76,49,0
582.9869,583.1318,68,49,0
583.1282,583.2731,71,49,0
583.27673,583.42163,76,49,0
583.42163,583.5665,76,36,0
583.5629,583.7079,80,36,0
583.7115,583.8564,83,36,0
583.8564,584.00134,88,36,0
583.99774,584.14264,92,36,0
584.14624,584.2912,95,36,0
584.2912,584.4361,93,49,0
584.4325,584.57745,88,49,0
584.58105,584.72595,85,49,0
584.72595,584.8709,81,49,0
584.8673,585.0122,76,49,0
585.0158,585.16077,73,49,0
585.16077,585.30566,76,36,0
585.30206,585.447,73,36,0
585.4506,585.5955,69,36,0
585.5955,585.7405,76,36,0
585.7369,585.8818,73,36,0
585.8854,586.03033,69,36,0
586.03033,586.17523,68,49,0
586.17163,586.3166,71,49,0
586.3202,586.4651,76,49,0
586.4651,586.61005,68,49,0
586.60645,586.75134,71,49,0
586.75494,586.8999,76,49,0
586.8999,587.0448,76,36,0
587.0412,587.18616,80,36,0
587.18976,587.33466,83,36,0
587.33466,587.4796,88,36,0
587.47595,587.6209,92,36,0
587.6245,587.7695,95,36,0
587.7695,587.91437,93,49,0
587.91077,588.05566,88,49,0
588.0593,588.2042,85,49,0
588.2042,588.3492,81,49,0
588.3455,588.4905,76,49,0
588.4941,588.63904,73,49,0
588.63904,588.78394,76,36,0
588.78033,588.92523,80,36,0
588.9289,589.0738,83,36,0
589.0738,589.21875,88,36,0
589.2151,589.36005,92,36,0
589.36365,589.5086,95,36,0
589.5086,589.6535,93,49,0
589.6499,589.7948,88,49,0
589.79846,589.94336,85,49,0
589.94336,590.0883,81,49,0
590.08466,590.2296,76,49,0
590.2332,590.3782,73,49,0
590.3782,590.5231,76,36,0
590.5195,590.66437,80,36,0
590.668,590.8129,83,36,0
590.8129,590.9579,88,36,0
590.9542,591.0992,92,36,0
591.1028,591.24774,95,36,0
591.24774,591.39264,93,49,0
591.38904,591.53394,88,49,0
591.5376,591.6825,85,49,0
591.6825,591.82745,81,49,0
591.8238,591.96875,76,49,0
591.97235,592.1173,73,49,0
592.1173,592.16077,88,88,0
592.1173,592.16077,86,88,0
592.1173,592.16077,80,88,0
592.55206,592.5666,88,88,0
592.55206,592.5666,86,88,0
592.55206,592.5666,80,88,0
592.9869,593.8863,88,88,0
592.9869,593.8863,85,88,0
592.9869,593.8863,81,88,0
593.8863,593.9343,88,75,0
593.8863,593.9343,86,75,0
593.8863,593.9343,80,75,0
594.3722,594.4226,88,75,0
594.3722,594.4226,86,75,0
594.3722,594.4226,80,75,0
594.88293,595.95435,88,62,0
594.88293,595.95435,85,62,0
594.88293,595.95435,81,62,0
595.95435,596.00793,88,88,0
595.95435,596.00793,86,83,0
595.95435,596.00793,80,78,0
596.49005,596.54364,88,62,0
596.49005,596.54364,86,62,0
596.49005,596.54364,80,62,0
599.16864,599.38605,61,49,0
599.6034,600.47296,64,49,0
599.6034,600.47296,61,49,0
600.47296,600.9078,69,49,0
600.47296,600.9078,64,49,0
600.47296,600.9078,61,49,0
600.9078,601.3425,69,49,0
601.3425,601.55994,68,49,0
600.9078,601.55994,64,49,0
600.9078,601.55994,62,49,0
601.77734,602.6469,69,49,0
601.77734,602.6469,64,49,0
601.77734,602.6469,61,49,0
602.6469,603.3138,71,49,0
602.6469,603.3138,69,49,0
602.6469,603.3138,66,49,0
603.3138,603.5463,71,49,0
603.3138,603.5463,69,49,0
603.3138,603.5463,66,49,0
603.5463,604.0322,73,49,0
603.5463,604.0322,69,49,0
603.5463,604.0322,66,49,0
604.0322,604.54297,69,49,0
604.0322,604.54297,66,49,0
604.0322,604.54297,61,49,0
604.54297,605.6144,69,49,0
604.54297,605.6144,64,49,0
604.54297,605.6144,61,49,0
605.6144,605.88226,68,49,0
605.88226,606.1501,66,49,0
606.1501,606.41797,64,49,0
606.41797,606.68585,62,49,0
608.8287,609.0461,72,36,0
609.2635,610.13306,76,36,0
609.2635,610.13306,72,36,0
610.13306,610.5678,81,36,0
610.13306,610.5678,76,36,0
610.13306,610.5678,72,36,0
610.5678,611.00745,81,36,0
611.00745,611.2347,80,36,0
610.5678,611.2347,76,36,0
610.5678,611.2347,74,36,0
611.4673,612.46387,81,36,0
611.4673,612.46387,76,36,0
611.4673,612.46387,72,36,0
612.46387,612.9996,82,49,0
612.46387,612.9996,77,49,0
612.9996,613.26746,84,62,0
612.9996,613.26746,77,62,0
613.26746,613.5353,86,62,0
613.26746,613.5353,77,62,0
613.5353,613.58887,84,75,0
613.5353,613.58887,77,75,0
614.07104,614.1246,84,49,0
614.07104,614.1246,76,49,0
616.7496,617.4018,72,49,0
616.7496,617.4018,60,49,0
617.4018,617.61914,72,49,0
617.4018,617.61914,60,49,0
617.61914,618.4887,74,49,0
617.61914,618.4887,62,49,0
618.4887,618.9235,72,49,0
618.4887,618.9235,60,49,0
618.9235,619.14087,71,49,0
618.9235,619.14087,59,49,0
619.3583,620.01044,67,49,0
619.3583,620.01044,55,49,0
620.01044,620.22784,69,49,0
620.01044,620.22784,57,49,0
620.22784,620.88,70,49,0
620.22784,620.88,58,49,0
620.88,621.0974,70,49,0
620.88,621.0974,58,49,0
621.0974,621.967,72,49,0
621.0974,621.967,60,49,0
621.967,622.1844,65,49,0
622.1844,622.25684,67,49,0
622.25684,622.3293,65,49,0
622.3257,622.39813,64,49,0
622.4018,622.61914,65,49,0
622.61914,622.83655,67,49,0
622.83655,623.7061,69,49,0
622.83655,623.7061,65,49,0
622.83655,623.7061,60,49,0
625.6022,625.87006,81,36,0
625.87006,625.95935,83,36,0
625.95935,626.0486,81,36,0
626.0441,626.1334,80,36,0
626.1379,626.40576,81,36,0
626.40576,626.6736,83,36,0
626.6736,627.74506,84,36,0
626.6736,627.74506,81,36,0
626.6736,627.74506,75,36,0
629.8879,630.1053,69,49,0
630.1053,630.17773,71,49,0
630.17773,630.25024,69,49,0
630.2466,630.31903,68,49,0
630.3227,630.5401,69,49,0
630.5401,630.75745,71,49,0
630.75745,631.627,73,49,0
630.75745,631.627,69,49,0
630.75745,631.627,64,49,0
631.627,631.67053,71,49,0
631.627,631.67053,69,49,0
631.627,631.67053,66,49,0
632.0618,632.1053,71,49,0
632.0618,632.1053,69,49,0
632.0618,632.1053,66,49,0
632.4966,632.9314,71,49,0
632.4966,632.9314,68,49,0
632.4966,632.9314,64,49,0
632.9314,633.25745,74,49,0
633.25745,633.36615,73,49,0
633.36615,634.2656,73,49,0
633.36615,634.2656,69,49,0
634.2656,635.0036,76,88,0
635.0036,635.13293,74,49,0
635.13293,635.2622,73,49,0
635.2622,635.3158,71,49,0
635.2622,635.3158,69,49,0
635.2622,635.3158,66,49,0
635.7979,635.8515,71,49,0
635.7979,635.8515,69,49,0
635.7979,635.8515,66,49,0
636.3337,636.8694,71,49,0
636.3337,636.8694,68,49,0
636.3337,636.8694,64,49,0
636.8694,637.2712,74,49,0
637.2712,637.4051,73,49,0
640.0837,640.19476,61,62,0
640.192,640.3031,64,36,0
640.30585,640.417,69,36,0
640.417,640.5281,73,36,0
640.5253,640.6364,76,36,0
640.6392,640.7503,81,36,0
640.7503,640.86145,85,36,0
640.85864,640.9698,81,36,0
640.97253,641.0837,85,36,0
641.0837,641.19476,88,36,0
641.192,641.3031,85,36,0
641.30585,641.417,88,36,0
641.417,641.5281,61,36,0
641.5253,641.6364,64,36,0
641.6392,641.7503,69,36,0
641.7503,641.86145,73,36,0
641.85864,641.9698,76,36,0
641.97253,642.0837,81,36,0
642.0837,642.19476,85,36,0
642.19196,642.3031,81,36,0
642.30585,642.417,85,36,0
642.417,642.5281,88,36,0
642.5253,642.6364,85,36,0
642.6392,642.7503,88,36,0
642.7503,642.86145,74,36,0
642.85864,642.9698,78,36,0
642.97253,643.0837,81,36,0
643.0837,643.19476,86,36,0
643.19196,643.3031,90,36,0
643.30585,643.417,93,36,0
643.417,643.5281,73,49,0
643.5253,643.6364,76,49,0
643.6392,643.7503,81,49,0
643.7503,643.86145,85,49,0
643.85864,643.9698,88,49,0
643.97253,644.0837,93,49,0
644.0837,644.19476,74,62,0
644.19196,644.3031,78,62,0
644.30585,644.417,81,62,0
644.417,644.5281,86,62,0
644.5253,644.6364,90,62,0
644.6392,644.7503,93,62,0
644.7503,644.86145,73,62,0
644.85864,644.9698,76,62,0
644.97253,645.0837,81,62,0
645.0837,645.19476,85,62,0
645.19196,645.3031,88,62,0
645.30585,645.417,93,62,0
645.417,645.5281,62,75,0
645.5253,645.6364,65,75,0
645.6392,645.7503,64,75,0
645.7503,645.86145,65,75,0
645.85864,645.9698,69,75,0
645.97253,646.0836,68,75,0
646.0836,646.19476,69,88,0
646.19196,646.3031,74,88,0
646.30585,646.417,73,88,0
646.417,646.5281,74,88,0
646.5253,646.6364,86,88,0
646.6392,646.7503,85,88,0
646.7503,646.86145,86,88,0
646.85864,646.9698,82,88,0
646.97253,647.0836,77,88,0
647.0836,647.19476,74,75,0
647.19196,647.3031,70,75,0
647.30585,647.417,65,75,0
647.417,647.5281,62,75,0
647.5253,647.6364,65,75,0
647.6392,647.7503,70,75,0
647.7503,647.86145,74,75,0
647.85864,647.9698,70,75,0
647.97253,648.0836,65,75,0
648.0836,648.19476,62,75,0
648.19196,648.3031,65,75,0
648.30585,648.417,64,75,0
648.417,648.5281,65,75,0
648.5253,648.6364,69,75,0
648.6392,648.7503,68,75,0
648.7503,648.86145,69,88,0
648.85864,648.9697,74,88,0
648.97253,649.0836,73,88,0
649.0836,649.19476,74,88,0
649.19196,649.3031,86,88,0
649.30585,649.417,85,88,0
649.417,649.5281,86,88,0
649.5253,649.6364,82,88,0
649.6392,649.7503,77,88,0
649.7503,649.86145,74,75,0
649.85864,649.9697,70,75,0
649.97253,650.0836,65,75,0
650.0836,650.19476,62,75,0
650.19196,650.3031,65,75,0
650.30585,650.417,70,75,0
650.417,650.4503,74,127,0
650.417,650.4503,68,122,0
650.417,650.4503,65,117,0
650.7503,650.86145,69,75,0
650.85864,650.9697,72,75,0
650.97253,651.0836,71,75,0
651.0836,651.19476,72,75,0
651.19196,651.3031,76,75,0
651.30585,651.417,75,75,0
651.417,651.5281,76,88,0
651.5253,651.6364,81,88,0
651.6392,651.7503,80,88,0
651.7503,651.86145,81,88,0
651.85864,651.9697,93,88,0
651.97253,652.0836,92,88,0
652.0836,652.19476,93,101,0
652.19196,652.3031,89,101,0
652.30585,652.417,84,101,0
652.417,652.5281,81,88,0
652.5253,652.6364,77,88,0
652.6392,652.7503,72,88,0
652.7503,652.8614,69,88,0
652.85864,652.9697,72,88,0
652.97253,653.0836,77,88,0
653.0836,653.19476,81,88,0
653.19196,653.3031,77,88,0
653.30585,653.417,72,88,0
653.417,653.5281,69,75,0
653.5253,653.6364,72,75,0
653.6392,653.7503,71,75,0
653.7503,653.8614,72,75,0
653.85864,653.9697,76,75,0
653.97253,654.0836,75,75,0
654.0836,654.19476,76,88,0
654.19196,654.3031,81,88,0
654.30585,654.417,80,88,0
654.417,654.5281,81,88,0
654.5253,654.6364,93,88,0
654.6392,654.7503,92,88,0
654.7503,654.8614,93,101,0
654.85864,654.9697,89,101,0
654.97253,655.0836,84,101,0
655.0836,655.19476,81,88,0
655.19196,655.3031,77,88,0
655.30585,655.417,72,88,0
655.417,655.5281,69,88,0
655.5253,655.6364,72,88,0
655.6392,655.7503,77,88,0
655.7503,655.8614,72,88,0
655.85864,655.9697,84,88,0
655.97253,656.0836,83,88,0
656.0836,656.19476,72,101,0
656.19196,656.3031,84,101,0
656.30585,656.417,80,101,0
656.417,656.5281,77,101,0
656.5253,656.6364,72,101,0
656.6392,656.7503,68,101,0
656.7503,656.8614,65,101,0
656.85864,656.9697,68,101,0
656.97253,657.0836,72,101,0
657.0836,657.19476,73,101,0
657.19196,657.3031,85,101,0
657.30585,657.417,84,101,0
657.417,657.5281,73,101,0
657.5253,657.6364,85,101,0
657.6392,657.7503,80,101,0
657.7503,657.8614,76,101,0
657.85864,657.9697,73,101,0
657.97253,658.0836,68,101,0
658.0836,658.19476,64,101,0
658.19196,658.3031,68,101,0
658.30585,658.417,73,101,0
658.417,658.5281,76,101,0
658.5253,658.6364,86,101,0
658.6392,658.7503,85,101,0
658.7503,658.8614,74,101,0
658.85864,658.9697,86,101,0
658.97253,659.0836,83,101,0
659.0836,659.19476,80,101,0
659.19196,659.3031,74,101,0
659.30585,659.417,71,101,0
659.417,659.5281,68,101,0
659.5253,659.6364,71,101,0
659.63916,659.7503,74,101,0
659.7503,659.8614,75,101,0
659.85864,659.9697,87,101,0
659.97253,660.0836,85,101,0
660.0836,660.19476,75,101,0
660.19196,660.3031,87,101,0
660.30585,660.417,83,101,0
660.417,660.5281,76,101,0
660.5253,660.6364,88,101,0
660.63916,660.7503,87,101,0
660.7503,660.8614,76,101,0
660.85864,660.9697,88,101,0
660.97253,661.0836,83,101,0
661.0836,661.19476,80,101,0
661.19196,661.3031,92,101,0
661.30585,661.417,86,101,0
661.417,661.4503,93,114,0
661.417,661.4503,85,114,0
661.417,661.4503,81,114,0
662.0836,662.11694,90,114,0
662.0836,662.11694,78,114,0
662.0836,662.11694,81,114,0
662.0836,662.11694,86,114,0
662.7503,662.7836,85,114,0
662.7503,662.7836,81,114,0
662.7503,662.7836,76,114,0
663.417,663.4503,88,114,0
663.417,663.4503,76,114,0
663.417,663.4503,80,114,0
663.417,663.4503,83,114,0
666.2865,666.9387,76,88,0
666.21405,666.9387,69,78,0
666.1416,666.9387,61,68,0
666.9387,667.0474,74,36,0
667.0474,667.15607,73,36,0
667.15607,667.1996,71,36,0
667.15607,667.1996,69,36,0
667.15607,667.1996,63,36,0
667.5909,667.60535,71,36,0
667.5909,667.60535,69,36,0
667.5909,667.60535,63,36,0
668.02563,668.46045,71,36,0
668.46045,668.78656,74,36,0
668.78656,668.8952,73,36,0
668.8952,669.33,69,36,0
668.8952,669.33,61,36,0
669.7648,670.417,76,88,0
669.6923,670.417,69,78,0
669.6199,670.417,61,68,0
670.417,670.52563,74,36,0
670.52563,670.63434,73,36,0
670.63434,670.67786,71,36,0
670.63434,670.67786,69,36,0
670.63434,670.67786,62,36,0
671.06915,671.0836,71,36,0
671.06915,671.0836,69,36,0
671.06915,671.0836,62,36,0
671.5039,671.9387,71,36,0
671.9387,672.2648,74,36,0
672.2648,672.3735,73,36,0
672.3735,672.8083,69,36,0
672.3735,672.8083,61,36,0
673.24304,673.67786,71,36,0
673.67786,674.0039,74,36,0
674.0039,674.1126,73,36,0
674.1126,674.55225,69,36,0
674.1126,674.55225,61,36,0
675.0121,675.498,71,36,0
675.498,675.8794,74,36,0
675.8794,676.00867,73,36,0
676.00867,676.5444,69,36,0
676.00867,676.5444,61,36,0
677.08014,677.61584,71,36,0
677.61584,678.01764,74,36,0
678.01764,678.15155,73,36,0
678.15155,678.68726,69,36,0
678.15155,678.68726,61,36,0
679.22296,679.3341,45,101,0
679.3313,679.44244,49,101,0
679.4452,679.55634,52,101,0
679.55634,679.6674,57,101,0
679.6646,679.77576,61,101,0
679.7785,679.88965,64,101,0
679.88965,680.00073,69,101,0
679.998,680.1091,73,101,0
680.1119,680.22296,76,101,0
680.22296,680.3341,81,101,0
680.3313,680.44244,85,101,0
680.4452,680.55634,88,101,0
680.55634,680.56744,93,127,0
681.22296,681.2563,81,114,0
681.22296,681.2563,69,114,0
681.22296,681.2563,74,114,0
681.22296,681.2563,78,114,0
681.88965,682.5563,57,114,0
682.5563,682.56744,81,114,0
682.5563,682.56744,69,114,0
682.5563,682.56744,76,114,0
682.5563,682.56744,79,114,0
683.22296,683.88965,57,114,0
683.88965,683.923,81,114,0
683.88965,683.923,69,114,0
683.88965,683.923,74,114,0
683.88965,683.923,78,114,0
684.57367,685.31244,57,114,0
685.31244,685.3514,81,127,0
685.31244,685.3514,69,115,0
685.31244,685.3514,73,119,0
685.31244,685.3514,76,123,0
685.702,685.74097,57,127,0
686.0916,686.1306,81,127,0
686.0916,686.1306,69,115,0
686.0916,686.1306,71,119,0
686.0916,686.1306,74,123,0
686.48126,686.5202,57,127,0
686.87085,686.90985,81,127,0
686.87085,686.90985,69,115,0
686.87085,686.90985,73,119,0
686.87085,686.90985,76,123,0
687.6501,689.98773,57,127,0
22.173933,22.608715,68,36,0
22.173933,22.608715,64,36,0
22.608715,23.478283,64,36,0
23.478283,24.347849,69,75,0
23.478283,24.347849,64,75,0
25.652197,26.08698,68,36,0
25.652197,26.08698,64,36,0
36.08699,36.52177,68,36,0
36.08699,36.52177,64,36,0
36.52177,37.39134,64,36,0
37.39134,38.260902,69,75,0
37.39134,38.260902,64,75,0
39.565254,40.000034,68,36,0
39.565254,40.000034,64,36,0
632.9314,633.36615,68,36,0
632.9314,633.36615,64,36,0
633.36615,634.2656,64,36,0
634.2656,635.2622,69,75,0
634.2656,635.2622,64,75,0
636.8694,637.4051,68,36,0
636.8694,637.4051,64,36,0
668.02563,668.8952,68,36,0
668.02563,668.8952,62,36,0
671.5039,672.3735,68,36,0
671.5039,672.3735,62,36,0
673.24304,674.1126,68,36,0
673.24304,674.1126,62,36,0
675.0121,676.00867,68,36,0
675.0121,676.00867,62,36,0
677.08014,678.15155,68,36,0
677.08014,678.15155,62,36,0
0.0,0.2173915,45,36,0
0.2173915,0.434783,52,36,0
0.434783,0.6521745,57,36,0
0.6521745,0.869566,52,36,0
0.869566,1.0869575,49,36,0
1.0869575,1.304349,52,36,0
1.304349,1.5217406,57,36,0
1.5217406,1.739132,52,36,0
1.739132,1.9565235,47,36,0
1.9565235,2.173915,52,36,0
2.173915,2.3913064,56,36,0
2.3913064,2.608698,52,36,0
2.608698,2.8260894,49,36,0
2.8260894,3.043481,52,36,0
3.043481,3.2608726,57,36,0
3.2608726,3.478264,52,36,0
3.478264,3.6956556,50,36,0
3.6956556,3.913047,54,36,0
3.913047,4.1304383,59,36,0
4.1304383,4.34783,54,36,0
4.34783,4.5652213,51,36,0
4.5652213,4.782613,54,36,0
4.782613,5.0000043,57,36,0
5.0000043,5.217396,54,36,0
5.217396,5.4347873,40,36,0
5.4347873,5.652179,52,36,0
5.652179,5.8695707,57,36,0
5.8695707,6.086962,61,36,0
6.086962,6.3043537,59,36,0
6.3043537,6.521745,62,36,0
6.521745,6.7391367,61,36,0
6.7391367,6.956528,59,36,0
6.956528,7.1739197,45,36,0
7.1739197,7.391311,52,36,0
7.391311,7.6087027,57,36,0
7.6087027,7.826094,52,36,0
7.826094,8.043486,49,36,0
8.043486,8.260877,52,36,0
8.260877,8.478269,57,36,0
8.478269,8.69566,52,36,0
8.69566,8.913052,47,36,0
8.913052,9.130443,52,36,0
9.130443,9.347835,56,36,0
9.347835,9.565226,52,36,0
9.565226,9.782618,49,36,0
9.782618,10.000009,52,36,0
10.000009,10.217401,57,36,0
10.217401,10.434792,52,36,0
10.434792,10.652184,50,36,0
10.652184,10.869575,54,36,0
10.869575,11.0869665,57,36,0
11.0869665,11.304358,57,36,0
11.5217495,11.739141,57,36,0
11.9565325,12.173924,56,36,0
12.173924,12.391315,45,36,0
12.391315,12.608707,52,36,0
12.608707,12.826098,56,36,0
12.826098,13.04349,52,36,0
13.04349,13.260881,57,36,0
13.913056,14.130447,49,49,0
14.130447,14.347839,52,49,0
14.347839,14.56523,57,49,0
14.56523,14.782622,52,49,0
14.782622,15.000013,46,75,0
15.000013,15.217405,54,49,0
15.217405,15.434796,61,49,0
15.434796,15.652188,54,49,0
15.652188,15.869579,47,62,0
15.869579,16.086971,54,62,0
16.086971,16.304363,59,62,0
16.304363,16.521753,54,62,0
16.521753,16.739145,47,62,0
16.739145,16.956537,54,62,0
16.956537,17.17393,59,62,0
17.17393,17.39132,54,62,0
17.39132,17.608711,42,62,0
17.608711,17.826103,54,62,0
17.826103,18.043495,57,62,0
18.043495,18.260885,54,62,0
18.260885,18.478277,44,62,0
18.478277,18.69567,52,62,0
18.69567,18.913061,59,62,0
18.913061,19.130451,52,62,0
19.130451,19.347843,49,62,0
19.347843,19.565235,52,62,0
19.565235,19.782627,57,62,0
19.782627,20.000017,52,62,0
20.000017,20.21741,45,62,0
20.21741,20.434801,52,62,0
20.434801,20.652193,61,62,0
20.652193,20.869583,52,62,0
20.869583,21.086975,50,36,0
21.086975,21.304367,54,36,0
21.304367,21.521759,59,36,0
21.521759,21.73915,54,36,0
21.73915,21.956541,52,36,0
21.956541,22.173933,56,36,0
22.173933,22.391325,59,36,0
22.391325,22.608715,56,36,0
22.608715,22.826107,45,36,0
22.826107,23.043499,52,36,0
23.043499,23.260891,61,36,0
23.260891,23.478283,52,36,0
23.478283,23.695673,49,75,0
23.695673,23.913065,52,36,0
23.913065,24.130457,57,36,0
24.130457,24.347849,52,36,0
24.347849,24.565239,50,36,0
24.565239,24.78263,54,36,0
24.78263,25.000023,59,36,0
25.000023,25.217415,54,36,0
25.217415,25.434805,52,36,0
25.434805,25.652197,56,36,0
25.652197,25.869589,59,36,0
25.869589,26.08698,56,36,0
26.08698,26.30437,45,36,0
26.30437,26.521763,52,36,0
26.521763,26.739155,57,36,0
27.826113,28.043503,49,49,0
28.043503,28.260895,52,49,0
28.260895,28.478287,57,49,0
28.478287,28.695679,52,49,0
28.695679,28.913069,46,75,0
28.913069,29.13046,54,49,0
29.13046,29.347853,61,49,0
29.347853,29.565245,54,49,0
29.565245,29.782635,47,62,0
29.782635,30.000027,54,62,0
30.000027,30.217419,59,62,0
30.217419,30.43481,54,62,0
30.43481,30.6522,47,62,0
30.6522,30.869593,54,62,0
30.869593,31.086985,59,62,0
31.086985,31.304377,54,62,0
31.304377,31.521767,42,62,0
31.521767,31.739159,54,62,0
31.739159,31.95655,57,62,0
31.95655,32.173943,54,62,0
32.173943,32.391335,44,62,0
32.391335,32.608727,52,62,0
32.608727,32.826115,59,62,0
32.826115,33.043507,52,62,0
33.043507,33.2609,49,62,0
33.2609,33.47829,52,62,0
33.47829,33.695683,57,62,0
33.695683,33.913074,52,62,0
33.913074,34.130466,45,62,0
34.130466,34.34786,52,62,0
34.34786,34.56525,61,62,0
34.56525,34.78264,52,62,0
34.78264,35.00003,50,36,0
35.00003,35.217422,54,36,0
35.217422,35.434814,59,36,0
35.434814,35.652206,54,36,0
35.652206,35.8696,52,36,0
35.8696,36.08699,56,36,0
36.08699,36.304382,59,36,0
36.304382,36.52177,56,36,0
36.52177,36.739162,45,36,0
36.739162,36.956554,52,36,0
36.956554,37.173946,61,36,0
37.173946,37.39134,52,36,0
37.39134,37.60873,49,75,0
37.60873,37.826122,52,36,0
37.826122,38.043514,57,36,0
38.043514,38.260902,52,36,0
38.260902,38.478294,50,36,0
38.478294,38.695686,54,36,0
38.695686,38.91308,59,36,0
38.91308,39.13047,54,36,0
39.13047,39.347862,52,36,0
39.347862,39.565254,56,36,0
39.565254,39.782646,59,36,0
39.782646,40.000034,56,36,0
40.000034,40.217426,45,36,0
40.217426,40.43482,52,36,0
40.43482,40.65221,57,36,0
40.65221,40.869602,56,36,0
40.869602,41.086994,57,36,0
41.086994,41.304386,54,36,0
41.304386,41.52178,52,36,0
41.52178,41.739166,50,36,0
41.739166,42.17395,49,75,0
42.17395,43.043518,52,49,0
43.043518,43.913082,57,49,0
43.913082,44.347866,56,49,0
44.347866,45.21743,57,49,0
45.21743,45.869606,59,49,0
45.869606,46.086998,59,49,0
46.086998,46.521782,61,49,0
46.521782,46.956566,57,49,0
46.956566,47.82613,57,49,0
47.82613,48.04352,56,49,0
48.04352,48.06526,54,49,0
48.260914,48.282654,52,49,0
48.478306,48.500042,50,49,0
48.695698,49.130478,49,75,0
49.130478,50.000046,52,49,0
50.000046,50.86961,57,49,0
50.86961,51.304394,56,49,0
51.304394,52.17396,57,49,0
52.17396,52.60874,59,49,0
52.17396,52.60874,50,49,0
52.60874,52.826134,61,49,0
52.60874,52.826134,52,49,0
52.826134,53.043526,62,49,0
52.826134,53.043526,54,49,0
53.043526,53.087006,61,49,0
53.043526,53.087006,52,49,0
53.47831,53.521786,59,49,0
53.47831,53.521786,52,49,0
53.913094,54.782658,59,49,0
53.913094,54.782658,50,49,0
54.782658,55.00005,57,49,0
53.913094,55.00005,45,49,0
53.913094,55.00005,52,49,0
54.782658,55.00005,49,49,0
55.00005,55.02179,59,49,0
55.21744,55.23918,61,49,0
55.434834,55.456573,62,49,0
55.652225,56.304398,64,49,0
56.304398,56.52179,64,49,0
56.52179,57.391357,66,62,0
57.391357,57.826138,64,75,0
57.826138,58.04353,63,75,0
58.26092,58.913097,59,75,0
58.913097,59.13049,61,75,0
59.13049,60.000053,62,75,0
60.000053,60.86962,64,75,0
60.86962,61.521793,57,75,0
61.521793,61.739185,59,75,0
61.739185,62.608753,61,75,0
62.608753,62.65223,59,101,0
63.043533,63.087013,59,101,0
63.478317,63.9131,59,75,0
63.9131,64.23919,62,75,0
64.23919,64.347885,61,75,0
64.347885,65.21745,61,75,0
65.21745,65.79716,64,101,0
65.79354,65.93847,62,75,0
65.942085,66.08701,61,75,0
66.08701,66.13049,59,101,0
66.08701,66.13049,50,93,0
66.5218,66.56528,59,101,0
66.5218,66.56528,51,93,0
66.95658,67.391365,59,75,0
67.391365,67.71745,62,75,0
67.71745,67.82615,61,75,0
67.82615,68.69572,57,75,0
68.69572,68.71745,57,75,0
68.91311,68.934845,59,75,0
69.1305,69.15224,61,75,0
69.347885,69.36963,62,75,0
69.56528,70.21745,64,75,0
70.21745,70.434845,64,75,0
70.434845,71.30441,66,62,0
71.30441,71.7392,64,75,0
71.7392,71.95659,63,75,0
72.17398,72.82615,59,75,0
72.82615,73.04354,61,75,0
73.04354,73.91311,62,75,0
73.91311,74.78268,64,75,0
74.78268,75.43485,57,75,0
75.43485,75.652245,59,75,0
75.652245,76.521805,61,75,0
76.521805,76.565285,59,101,0
76.95659,77.00007,59,101,0
77.39137,77.82616,59,75,0
77.82616,78.152245,62,75,0
78.152245,78.26094,61,75,0
78.26094,79.13051,61,75,0
79.13051,79.71022,64,101,0
79.7066,79.851524,62,75,0
79.85514,80.00007,61,75,0
80.00007,80.04355,59,101,0
80.00007,80.04355,50,93,0
80.43485,80.47833,59,101,0
80.43485,80.47833,51,93,0
80.86964,81.30442,59,75,0
81.30442,81.63051,62,75,0
81.63051,81.739204,61,75,0
81.739204,83.04356,61,75,0
83.04356,83.36964,59,75,0
83.36964,83.47833,61,75,0
83.47833,83.52181,62,75,0
83.91312,83.9566,62,75,0
84.3479,84.782684,62,75,0
84.782684,85.10877,66,75,0
85.10877,85.21747,64,75,0
85.21747,86.9566,64,75,0
85.21747,86.9566,56,75,0
86.9566,87.00008,59,75,0
86.9566,87.00008,50,75,0
86.9566,87.00008,52,75,0
86.9566,87.00008,56,75,0
87.39138,87.43486,59,75,0
87.39138,87.43486,50,75,0
87.39138,87.43486,52,75,0
87.39138,87.43486,56,75,0
87.826164,87.869644,59,75,0
87.826164,87.869644,50,75,0
87.826164,87.869644,52,75,0
87.826164,87.869644,56,75,0
88.26095,88.30443,59,88,0
88.26095,88.30443,50,88,0
88.26095,88.30443,52,88,0
88.26095,88.30443,56,88,0
88.69573,89.5653,61,88,0
88.69573,89.5653,49,88,0
88.69573,89.5653,52,88,0
88.69573,89.5653,57,88,0
89.5653,90.000084,69,88,0
89.5653,90.000084,61,88,0
90.000084,90.43486,66,88,0
90.000084,90.43486,57,88,0
90.43486,91.087036,64,88,0
90.43486,91.087036,56,88,0
90.43486,91.087036,47,88,0
91.087036,91.30443,64,88,0
91.087036,91.30443,56,88,0
91.30443,91.73921,68,88,0
91.30443,91.73921,64,88,0
91.73921,92.173996,66,88,0
91.73921,92.173996,63,88,0
92.173996,92.217476,59,88,0
92.173996,92.217476,50,88,0
92.173996,92.217476,52,88,0
92.173996,92.217476,56,88,0
92.60878,92.65226,59,88,0
92.60878,92.65226,50,88,0
92.60878,92.65226,52,88,0
92.60878,92.65226,56,88,0
93.043564,93.08704,59,88,0
93.043564,93.08704,50,88,0
93.043564,93.08704,52,88,0
93.043564,93.08704,56,88,0
93.47835,93.52182,59,88,0
93.47835,93.52182,50,88,0
93.47835,93.52182,52,88,0
93.47835,93.52182,56,88,0
93.91313,94.78269,61,88,0
93.91313,94.78269,49,88,0
93.91313,94.78269,52,88,0
93.91313,94.78269,57,88,0
94.78269,95.65226,57,88,0
94.78269,95.65226,45,88,0
94.78269,95.65226,49,88,0
94.78269,95.65226,54,88,0
95.65226,96.52183,56,101,0
95.65226,96.52183,44,101,0
95.65226,96.52183,47,101,0
95.65226,96.52183,52,101,0
96.52183,97.391396,61,101,0
96.52183,97.391396,54,101,0
96.52183,97.391396,49,101,0
96.52183,97.391396,52,101,0
96.52183,97.391396,58,101,0
97.391396,97.60878,59,101,0
97.391396,97.60878,47,101,0
97.391396,97.60878,51,101,0
97.391396,97.60878,54,101,0
97.82617,97.9711,61,75,0
97.967476,98.112404,54,75,0
98.11603,98.260956,47,75,0
98.260956,98.40588,59,62,0
98.40226,98.54719,54,62,0
98.55081,98.69574,47,62,0
98.69574,98.84067,58,49,0
98.83704,98.98197,54,49,0
98.985596,99.13052,47,49,0
99.13052,99.27545,59,49,0
99.27183,99.416756,54,49,0
99.42038,99.56531,47,49,0
99.56531,99.60879,54,49,0
99.56531,99.60879,52,49,0
99.56531,99.60879,46,49,0
100.00009,100.04357,54,49,0
100.00009,100.04357,52,49,0
100.00009,100.04357,47,49,0
100.434875,100.47835,54,36,0
100.434875,100.47835,52,36,0
100.434875,100.47835,49,36,0
100.86966,101.304436,54,36,0
100.86966,101.304436,51,36,0
100.86966,101.304436,47,36,0
101.304436,101.44936,58,75,0
101.44574,101.59067,54,75,0
101.59429,101.73922,47,75,0
101.73922,101.88415,59,62,0
101.88052,102.02545,54,62,0
102.029076,102.174,47,62,0
102.174,102.31893,61,49,0
102.31531,102.460236,54,49,0
102.46386,102.60879,47,49,0
102.60879,102.753716,59,36,0
102.75009,102.89502,54,36,0
102.89864,103.04357,47,36,0
103.04357,103.08705,54,49,0
103.04357,103.08705,52,49,0
103.04357,103.08705,49,49,0
103.478355,103.521835,54,36,0
103.478355,103.521835,52,36,0
103.478355,103.521835,47,36,0
103.91314,103.95661,54,36,0
103.91314,103.95661,52,36,0
103.91314,103.95661,46,36,0
104.34792,104.391396,54,36,0
104.34792,104.391396,51,36,0
104.34792,104.391396,47,36,0
104.7827,104.92763,59,36,0
104.92401,105.06893,54,36,0
105.072556,105.21748,51,36,0
105.21748,105.36241,47,62,0
105.35879,105.503716,45,62,0
105.50734,105.65227,44,62,0
105.65227,105.797195,45,75,0
105.79357,105.9385,44,75,0
105.94212,106.08705,42,75,0
106.08705,106.23198,40,75,0
106.228355,106.37328,44,75,0
106.37691,106.521835,47,75,0
106.521835,106.66676,52,49,0
106.66314,106.80807,56,49,0
106.81169,106.95662,59,49,0
106.95662,107.10155,52,36,0
107.09792,107.24285,56,36,0
107.246475,107.3914,59,36,0
107.3914,107.53633,52,36,0
107.53271,107.677635,56,36,0
107.68126,107.82619,59,36,0
107.82619,107.971115,51,36,0
107.96749,108.11242,54,36,0
108.11604,108.26096,59,36,0
108.26096,108.40589,51,36,0
108.402275,108.547195,54,36,0
108.55082,108.69575,59,36,0
108.69575,108.840675,54,36,0
108.83705,108.98198,57,36,0
108.9856,109.13053,59,36,0
109.13053,109.27546,54,36,0
109.271835,109.41676,57,36,0
109.42039,109.565315,59,36,0
109.565315,109.71024,52,36,0
109.70662,109.85155,56,36,0
109.85517,110.0001,59,36,0
110.0001,110.14503,52,36,0
110.1414,110.28633,56,36,0
110.289955,110.43488,59,36,0
110.43488,110.57981,50,36,0
110.57619,110.721115,52,36,0
110.72474,110.86967,59,36,0
110.86967,111.014595,50,36,0
111.01097,111.1559,52,36,0
111.15952,111.30445,59,36,0
111.30445,111.44938,49,36,0
111.445755,111.59068,52,36,0
111.59431,111.73923,57,36,0
111.73923,111.884155,49,36,0
111.88054,112.02547,52,36,0
112.02908,112.17401,57,36,0
112.17401,112.31894,45,36,0
112.315315,112.46024,49,36,0
112.46387,112.608795,52,36,0
112.608795,112.75372,45,36,0
112.7501,112.89503,49,36,0
112.89865,113.04358,52,36,0
113.04358,113.18851,44,36,0
113.18488,113.32981,47,36,0
113.333435,113.47836,52,36,0
113.47836,113.62329,42,36,0
113.61967,113.764595,45,36,0
113.76822,113.91315,52,36,0
113.91315,114.058075,44,36,0
114.05445,114.19938,47,36,0
114.203,114.34793,52,36,0
114.34793,114.49286,40,36,0
114.489235,114.63416,47,36,0
114.63779,114.782715,52,36,0
114.782715,114.92764,47,36,0
114.92402,115.06895,51,36,0
115.07257,115.2175,54,36,0
115.2175,115.36242,59,36,0
115.3588,115.50373,58,36,0
115.50735,115.652275,57,36,0
115.652275,115.7972,56,36,0
115.79358,115.93851,59,36,0
115.94213,116.08706,64,36,0
116.08706,116.23199,56,36,0
116.22836,116.37329,59,36,0
116.376915,116.52184,64,36,0
116.52184,116.66677,54,36,0
116.66315,116.808075,57,36,0
116.8117,116.95663,63,36,0
116.95663,117.101555,54,36,0
117.09793,117.24286,57,36,0
117.24648,117.39141,63,36,0
117.39141,117.53634,54,36,0
117.532715,117.67764,57,36,0
117.68127,117.826195,62,36,0
117.826195,117.97112,54,36,0
117.9675,118.11243,57,36,0
118.11605,118.26098,62,36,0
118.26098,118.40591,53,36,0
118.40228,118.54721,56,36,0
118.550835,118.69576,61,36,0
118.69576,118.84068,53,36,0
118.83707,118.981995,56,36,0
118.98561,119.13054,61,36,0
119.13054,119.27547,47,36,0
119.27184,119.41677,49,36,0
119.420395,119.56532,56,36,0
119.56532,119.71025,47,36,0
119.70663,119.851555,49,36,0
119.85518,120.00011,56,36,0
120.00011,120.145035,45,36,0
120.14141,120.28634,49,36,0
120.28996,120.43489,54,36,0
120.43489,120.57982,45,36,0
120.576195,120.72112,49,36,0
120.72475,120.869675,54,36,0
120.869675,121.0146,47,36,0
121.01098,121.15591,56,36,0
121.15953,121.30446,59,36,0
121.30446,121.44939,47,36,0
121.44576,121.59069,56,36,0
121.594315,121.73924,59,36,0
121.73924,121.88417,49,36,0
121.88055,122.025475,57,36,0
122.0291,122.17403,61,36,0
122.17403,122.318954,49,36,0
122.31533,122.46026,59,36,0
122.463875,122.6088,62,36,0
122.6088,122.75373,49,36,0
122.75011,122.895035,57,36,0
122.89866,123.04359,61,36,0
123.04359,123.188515,49,36,0
123.18489,123.32982,56,36,0
123.33344,123.47837,61,36,0
123.47837,123.6233,54,36,0
123.619675,123.7646,57,36,0
123.76823,123.913155,61,36,0
124.34794,124.39142,61,75,0
124.78272,124.8262,61,49,0
125.21751,126.08707,61,49,0
126.08707,126.10881,61,75,0
126.30446,126.3262,61,49,0
126.52185,126.543594,63,49,0
126.73924,126.76099,65,49,0
126.956635,127.39142,66,49,0
127.8262,127.84794,54,75,0
128.0436,128.06534,54,49,0
128.26099,128.28273,56,62,0
128.47838,128.50012,58,62,0
128.69577,129.56534,59,62,0
129.56534,129.58707,47,88,0
129.78273,129.80446,47,62,0
130.00012,130.02185,49,75,0
130.21751,130.23924,50,75,0
130.4349,130.86969,49,75,0
130.86969,131.30446,50,75,0
131.30446,131.34795,52,62,0
131.73924,131.78273,52,49,0
132.17403,132.60881,45,49,0
133.0436,133.08708,64,36,0
133.0436,133.08708,61,36,0
133.0436,133.08708,57,36,0
133.47838,133.52187,64,36,0
133.47838,133.52187,61,36,0
133.47838,133.52187,57,36,0
133.91316,134.78273,64,36,0
133.91316,134.78273,62,36,0
133.91316,134.78273,57,36,0
134.78273,134.8262,64,36,0
134.78273,134.8262,62,36,0
134.78273,134.8262,57,36,0
135.21751,135.26099,64,36,0
135.21751,135.26099,62,36,0
135.21751,135.26099,57,36,0
135.6523,136.52187,64,36,0
135.6523,136.52187,61,36,0
135.6523,136.52187,57,36,0
136.52187,136.56534,64,36,0
136.52187,136.56534,61,36,0
136.52187,136.56534,57,36,0
136.95665,137.00012,64,36,0
136.95665,137.00012,61,36,0
136.95665,137.00012,57,36,0
137.39143,138.261,64,36,0
137.39143,138.261,62,36,0
137.39143,138.261,57,36,0
138.261,138.30447,64,36,0
138.261,138.30447,62,36,0
138.261,138.30447,57,36,0
138.69577,138.73926,64,36,0
138.69577,138.73926,62,36,0
138.69577,138.73926,57,36,0
139.13055,140.00012,64,36,0
139.13055,140.00012,61,36,0
139.13055,140.00012,57,36,0
140.00012,140.04361,64,36,0
140.00012,140.04361,62,36,0
140.00012,140.04361,57,36,0
140.4349,140.4784,64,36,0
140.4349,140.4784,62,36,0
140.4349,140.4784,57,36,0
140.86969,141.73926,64,36,0
140.86969,141.73926,61,36,0
140.86969,141.73926,57,36,0
141.73926,141.78273,64,36,0
141.73926,141.78273,62,36,0
141.73926,141.78273,57,36,0
142.17404,142.21751,64,36,0
142.17404,142.21751,62,36,0
142.17404,142.21751,57,36,0
142.60883,143.4784,64,36,0
142.60883,143.4784,61,36,0
142.60883,143.4784,57,36,0
143.4784,143.62332,61,36,0
143.61969,143.76462,64,36,0
143.76825,143.91318,69,36,0
143.91318,144.0581,61,36,0
144.05447,144.1994,64,36,0
144.20303,144.34796,69,36,0
144.34796,144.49289,59,36,0
144.48926,144.63419,62,36,0
144.63782,144.78275,68,36,0
144.78275,144.92767,59,36,0
144.92404,145.06897,62,36,0
145.0726,145.21753,68,36,0
145.21753,145.36246,58,36,0
145.35883,145.50375,62,36,0
145.50737,145.6523,67,36,0
145.6523,145.79723,58,36,0
145.79361,145.93854,62,36,0
145.94215,146.08708,67,36,0
146.08708,146.23201,57,36,0
146.2284,146.37332,61,36,0
146.37694,146.52187,67,36,0
146.52187,146.6668,57,36,0
146.66318,146.8081,61,36,0
146.81172,146.95665,67,36,0
146.95665,147.10158,55,36,0
147.09796,147.24289,57,36,0
147.2465,147.39143,61,36,0
147.39143,147.53636,55,36,0
147.53275,147.67767,57,36,0
147.68129,147.82622,61,36,0
147.82622,147.97115,54,36,0
147.96753,148.11246,57,36,0
148.11607,148.261,62,36,0
148.261,148.40593,55,36,0
148.40231,148.54724,59,36,0
148.55086,148.69579,62,36,0
148.69579,148.84071,57,36,0
148.8371,148.98203,62,36,0
148.98564,149.13057,66,36,0
149.13057,149.2755,57,36,0
149.27188,149.4168,61,36,0
149.42043,149.56535,67,36,0
149.56535,149.71028,62,36,0
149.70665,149.85158,66,36,0
149.85521,150.00014,69,36,0
150.00014,150.14507,62,36,0
150.14143,150.28636,66,36,0
150.29,150.43492,69,36,0
150.43492,150.57985,66,36,0
150.57622,150.72115,69,36,0
150.72478,150.8697,74,36,0
150.8697,151.01463,66,36,0
151.011,151.15593,69,36,0
151.15956,151.30449,74,36,0
151.30449,151.44942,64,36,0
151.44579,151.59071,67,36,0
151.59435,151.73927,73,36,0
151.73927,151.8842,64,36,0
151.88057,152.0255,67,36,0
152.02913,152.17406,73,36,0
152.17406,152.31898,63,36,0
152.31535,152.46028,67,36,0
152.4639,152.60883,72,36,0
152.60883,152.75375,63,36,0
152.75014,152.89507,67,36,0
152.89868,153.04361,72,36,0
153.04361,153.18854,62,36,0
153.18492,153.32985,66,36,0
153.33347,153.4784,72,36,0
153.4784,153.62332,62,36,0
153.6197,153.76463,66,36,0
153.76825,153.91318,72,36,0
153.91318,154.0581,60,36,0
154.05449,154.19942,62,36,0
154.20303,154.34796,66,36,0
154.34796,154.49289,60,36,0
154.48927,154.6342,62,36,0
154.63782,154.78275,66,36,0
154.78275,154.92767,59,36,0
154.92406,155.06898,62,36,0
155.0726,155.21753,67,36,0
155.21753,155.36246,60,36,0
155.35884,155.50377,64,36,0
155.50739,155.65231,67,36,0
155.65231,155.79724,62,36,0
155.79362,155.93855,67,36,0
155.94217,156.0871,71,36,0
156.0871,156.23203,62,36,0
156.22841,156.37332,66,36,0
156.37695,156.52188,72,36,0
156.52188,156.66681,63,36,0
156.66318,156.8081,66,36,0
156.81174,156.95667,71,36,0
156.95667,157.1016,63,36,0
157.09796,157.24289,66,36,0
157.24652,157.39145,71,36,0
157.39145,157.53638,59,36,0
157.53275,157.67767,63,36,0
157.6813,157.82623,66,36,0
157.82623,157.97116,57,36,0
157.96753,158.11246,59,36,0
158.11609,158.26102,66,36,0
158.26102,158.40594,56,49,0
158.40231,158.54724,59,49,0
158.55087,158.6958,64,49,0
158.6958,158.84073,56,49,0
158.8371,158.98203,59,49,0
158.98566,159.13058,64,49,0
159.13058,159.27551,52,62,0
159.27188,159.41681,56,62,0
159.42044,159.56535,59,62,0
159.56535,159.71028,50,62,0
159.70667,159.8516,52,62,0
159.85521,160.00014,59,62,0
160.00014,160.14507,49,62,0
160.14145,160.28638,52,62,0
160.29,160.43492,57,62,0
160.43492,160.57985,49,62,0
160.57623,160.72116,52,62,0
160.72478,160.8697,57,62,0
160.8697,161.01463,45,75,0
161.01102,161.15594,49,75,0
161.15956,161.30449,52,75,0
161.30449,161.44942,45,75,0
161.4458,161.59073,49,75,0
161.59435,161.73927,52,75,0
161.73927,161.8842,44,75,0
161.88058,162.02551,47,75,0
162.02913,162.17406,52,75,0
162.17406,162.31898,45,75,0
162.31537,162.4603,49,75,0
162.46391,162.60884,52,75,0
162.60884,162.75377,47,75,0
162.75015,162.89508,52,75,0
162.8987,163.04362,56,75,0
163.04362,163.18855,47,75,0
163.18494,163.32986,51,75,0
163.33348,163.47841,57,75,0
163.47841,163.62334,52,62,0
163.6197,163.76463,56,62,0
163.76826,163.9132,59,62,0
164.34798,164.39145,59,75,0
164.78276,164.82623,59,75,0
165.21754,166.08711,59,75,0
166.08711,166.10884,59,101,0
166.3045,166.32623,59,75,0
166.5219,166.54362,61,75,0
166.73927,166.76102,63,75,0
166.95667,167.39145,64,75,0
167.82623,167.84798,52,101,0
168.04362,168.06537,52,75,0
168.26102,168.28276,54,75,0
168.47841,168.50015,56,75,0
168.6958,169.56537,57,75,0
169.56537,169.58711,45,75,0
169.78276,169.8045,45,75,0
170.00015,170.0219,47,75,0
170.21754,170.23929,48,75,0
170.43494,170.86972,47,75,0
170.86972,171.3045,48,75,0
171.3045,171.34798,50,75,0
171.73929,171.78276,50,75,0
172.17407,173.04364,51,127,0
172.17407,173.04364,47,117,0
172.17407,173.04364,39,107,0
173.04364,173.08711,47,127,0
173.04364,173.08711,39,119,0
173.47842,173.5219,47,101,0
173.47842,173.5219,39,101,0
173.9132,174.78276,48,101,0
173.9132,174.78276,40,101,0
174.78276,174.82625,48,127,0
174.78276,174.82625,40,119,0
175.21754,175.26103,48,101,0
175.21754,175.26103,40,101,0
175.65233,176.5219,47,75,0
175.65233,176.5219,39,75,0
176.5219,176.56538,47,127,0
176.5219,176.56538,39,119,0
176.95668,177.00015,47,101,0
176.95668,177.00015,39,101,0
177.39146,178.26103,48,101,0
177.39146,178.26103,40,101,0
178.26103,178.3045,48,127,0
178.26103,178.3045,40,119,0
178.69582,178.73929,48,101,0
178.69582,178.73929,40,101,0
179.1306,180.00017,47,101,0
179.1306,180.00017,39,101,0
183.47842,183.62335,52,36,0
183.61974,183.76466,55,36,0
183.76828,183.91321,59,36,0
183.91321,184.05814,52,36,0
184.05452,184.19945,55,36,0
184.20306,184.34799,59,36,0
184.34799,184.49292,51,36,0
184.4893,184.63423,54,36,0
184.63785,184.78278,59,36,0
184.78278,184.9277,51,36,0
184.92407,185.069,54,36,0
185.07263,185.21756,59,36,0
185.21756,185.36249,47,36,0
185.35886,185.50378,54,36,0
185.50742,185.65234,57,36,0
185.65234,185.79727,47,36,0
185.79364,185.93857,54,36,0
185.9422,186.08713,57,36,0
186.08713,186.23206,48,36,0
186.22842,186.37335,52,36,0
186.37698,186.52191,55,36,0
186.52191,186.66684,48,36,0
186.66321,186.80814,52,36,0
186.81177,186.9567,55,36,0
186.9567,187.10162,48,36,0
187.09799,187.24292,52,36,0
187.24655,187.39148,55,36,0
187.39148,187.5364,48,36,0
187.53278,187.6777,52,36,0
187.68134,187.82626,55,36,0
187.82626,187.97118,48,36,0
187.96756,188.11249,52,36,0
188.1161,188.26103,55,36,0
188.26103,188.40596,48,36,0
188.40234,188.54727,52,36,0
188.55089,188.69582,55,36,0
188.69582,188.84074,48,36,0
188.83713,188.98206,52,36,0
188.98567,189.1306,55,36,0
189.1306,189.27553,48,36,0
189.27191,189.41684,52,36,0
189.42046,189.56538,55,36,0
189.56538,189.71031,47,36,0
189.7067,189.85162,50,36,0
189.85524,190.00017,55,36,0
190.00017,190.1451,47,36,0
190.14148,190.2864,50,36,0
190.29002,190.43495,55,36,0
190.43495,190.57988,47,36,0
190.57626,190.72119,50,36,0
190.72481,190.86974,55,36,0
190.86974,191.01466,47,36,0
191.01105,191.15598,50,36,0
191.15959,191.30452,55,36,0
191.30452,191.44945,47,36,0
191.44583,191.59076,50,36,0
191.59438,191.7393,55,36,0
191.7393,191.88423,47,36,0
191.8806,192.02553,50,36,0
192.02916,192.17409,55,36,0
192.17409,192.31902,47,36,0
192.31538,192.46031,50,36,0
192.46394,192.60887,55,36,0
192.60887,192.7538,47,36,0
192.75017,192.8951,50,36,0
192.89873,193.04366,55,36,0
193.04366,193.18858,48,36,0
193.18495,193.32988,52,36,0
193.33351,193.47844,55,36,0
193.47844,193.62337,48,36,0
193.61974,193.76466,52,36,0
193.7683,193.91322,55,36,0
193.91322,194.05815,48,36,0
194.05452,194.19945,52,36,0
194.20308,194.348,55,36,0
194.348,194.49294,48,36,0
194.4893,194.63423,52,36,0
194.63786,194.78279,55,36,0
194.78279,194.92772,48,36,0
194.92409,195.06902,52,36,0
195.07263,195.21756,55,36,0
195.21756,195.36249,48,36,0
195.35887,195.5038,52,36,0
195.50742,195.65234,55,36,0
195.65234,195.79727,48,36,0
195.79366,195.93858,52,36,0
195.9422,196.08713,55,36,0
196.08713,196.23206,48,36,0
196.22844,196.37337,52,36,0
196.37698,196.52191,55,36,0
196.52191,196.66684,47,36,0
196.66322,196.80815,50,36,0
196.81177,196.9567,55,36,0
196.9567,197.10162,47,36,0
197.098,197.24294,50,36,0
197.24655,197.39148,55,36,0
197.39148,197.5364,47,36,0
197.53279,197.67772,50,36,0
197.68134,197.82626,55,36,0
197.82626,197.97119,47,36,0
197.96758,198.1125,50,36,0
198.11612,198.26105,55,36,0
198.26105,198.40598,47,36,0
198.40236,198.54729,50,36,0
198.5509,198.69583,55,36,0
198.69583,198.84076,47,36,0
198.83714,198.98206,50,36,0
198.98569,199.13062,55,36,0
199.13062,199.27554,47,36,0
199.27191,199.41684,50,36,0
199.42047,199.5654,55,36,0
199.5654,199.71033,47,36,0
199.7067,199.85162,50,36,0
199.85526,200.00018,55,36,0
200.00018,200.14511,48,36,0
200.14148,200.2864,52,36,0
200.29004,200.43497,55,36,0
200.43497,200.5799,48,36,0
200.57626,200.72119,52,36,0
200.72482,200.86975,55,36,0
200.86975,201.01468,47,36,0
201.01105,201.15598,50,36,0
201.1596,201.30453,55,36,0
201.30453,201.44946,47,36,0
201.44583,201.59076,50,36,0
201.59439,201.73932,55,36,0
201.73932,201.88425,48,49,0
201.88062,202.02554,52,49,0
202.02917,202.17409,55,49,0
202.17409,202.31902,48,49,0
202.3154,202.46033,52,49,0
202.46394,202.60887,55,49,0
202.60887,202.7538,47,49,0
202.75018,202.89511,50,49,0
202.89873,203.04366,55,49,0
203.04366,203.18858,47,49,0
203.18497,203.3299,50,49,0
203.33351,203.47844,55,49,0
203.47844,203.62337,48,62,0
203.61975,203.76468,52,62,0
203.7683,203.91322,55,62,0
203.91322,204.05815,48,62,0
204.05453,204.19946,52,62,0
204.20308,204.348,55,62,0
204.348,204.49294,47,62,0
204.48932,204.63425,50,62,0
204.63786,204.78279,55,62,0
204.78279,204.92772,47,62,0
204.9241,205.06903,50,62,0
205.07265,205.21758,54,62,0
205.21758,205.3625,47,75,0
205.35889,205.50381,50,75,0
205.50743,205.65236,53,75,0
205.65236,205.79729,47,75,0
205.79367,205.9386,50,75,0
205.94221,206.08714,52,75,0
206.08714,206.23207,48,88,0
206.22844,206.37337,52,88,0
206.377,206.52193,57,88,0
206.52193,206.66685,49,88,0
206.66322,206.80815,52,88,0
206.81178,206.95671,55,88,0
206.95671,207.82628,56,114,0
206.95671,207.82628,52,104,0
206.95671,207.82628,47,94,0
207.82628,207.9712,59,62,0
207.96758,208.1125,56,62,0
208.11613,208.26106,52,62,0
208.26106,208.40599,47,62,0
208.40236,208.54729,44,62,0
208.55092,208.69585,40,62,0
208.69585,208.91324,35,62,0
209.13063,210.00018,56,101,0
209.13063,210.00018,52,101,0
209.13063,210.00018,47,101,0
210.00018,210.43497,54,101,0
210.00018,210.43497,51,101,0
210.00018,210.43497,47,101,0
210.43497,210.86975,52,36,0
210.43497,210.86975,40,36,0
211.30453,211.34802,59,36,0
211.30453,211.34802,56,36,0
211.30453,211.34802,52,36,0
211.73932,211.7828,59,36,0
211.73932,211.7828,56,36,0
211.73932,211.7828,52,36,0
212.1741,213.04367,59,36,0
212.1741,213.04367,57,36,0
212.1741,213.04367,52,36,0
213.04367,213.08714,59,36,0
213.04367,213.08714,57,36,0
213.04367,213.08714,52,36,0
213.47845,213.52193,59,36,0
213.47845,213.52193,57,36,0
213.47845,213.52193,52,36,0
213.91324,214.7828,59,36,0
213.91324,214.7828,56,36,0
213.91324,214.7828,52,36,0
214.7828,214.82628,59,36,0
214.7828,214.82628,56,36,0
214.7828,214.82628,52,36,0
215.21759,215.26106,59,36,0
215.21759,215.26106,56,36,0
215.21759,215.26106,52,36,0
215.65237,216.52193,59,36,0
215.65237,216.52193,57,36,0
215.65237,216.52193,52,36,0
216.52193,216.56541,59,36,0
216.52193,216.56541,57,36,0
216.52193,216.56541,52,36,0
216.95671,217.0002,59,36,0
216.95671,217.0002,57,36,0
216.95671,217.0002,52,36,0
217.3915,218.26106,59,36,0
217.3915,218.26106,56,36,0
217.3915,218.26106,52,36,0
218.26106,218.30455,59,36,0
218.26106,218.30455,57,36,0
218.26106,218.30455,52,36,0
218.69585,218.73933,59,36,0
218.69585,218.73933,57,36,0
218.69585,218.73933,52,36,0
219.13063,220.0002,59,36,0
219.13063,220.0002,56,36,0
219.13063,220.0002,52,36,0
220.0002,220.04367,59,36,0
220.0002,220.04367,57,36,0
220.0002,220.04367,52,36,0
220.43498,220.47845,59,36,0
220.43498,220.47845,57,36,0
220.43498,220.47845,52,36,0
220.86977,221.73933,59,36,0
220.86977,221.73933,56,36,0
220.86977,221.73933,52,36,0
221.73933,221.88426,47,88,0
221.88063,222.02556,51,88,0
222.02919,222.17412,54,88,0
222.17412,222.31905,59,88,0
222.31541,222.46034,63,88,0
222.46397,222.6089,66,88,0
222.6089,222.75383,64,75,0
222.7502,222.89513,59,75,0
222.89876,223.04369,56,75,0
223.04369,223.18861,59,75,0
223.18498,223.32991,56,75,0
223.33354,223.47845,52,75,0
223.47845,223.62338,47,75,0
223.61977,223.7647,51,75,0
223.76831,223.91324,54,75,0
223.91324,224.05817,59,75,0
224.05455,224.19948,63,75,0
224.2031,224.34802,66,75,0
224.34802,224.49295,64,62,0
224.48933,224.63426,59,62,0
224.63788,224.7828,56,62,0
224.7828,224.92773,59,62,0
224.92412,225.06905,56,62,0
225.07266,225.21759,52,62,0
225.21759,225.36252,47,62,0
225.3589,225.50383,51,62,0
225.50745,225.65237,54,62,0
225.65237,225.7973,59,62,0
225.79369,225.93861,63,62,0
225.94223,226.08716,66,62,0
226.08716,226.23209,64,49,0
226.22847,226.3734,59,49,0
226.37701,226.52194,56,49,0
226.52194,226.66687,59,49,0
226.66325,226.80818,56,49,0
226.8118,226.95673,52,49,0
226.95673,227.10165,56,49,0
227.09804,227.24297,52,49,0
227.24658,227.39151,47,49,0
227.39151,227.53644,52,49,0
227.5328,227.67773,47,49,0
227.68137,227.8263,44,49,0
227.8263,227.97122,40,49,0
227.96759,228.11252,44,49,0
228.11615,228.26108,47,49,0
228.26108,228.406,44,36,0
228.40237,228.5473,47,36,0
228.55093,228.69586,52,36,0
228.69586,228.84079,40,36,0
228.83716,228.98209,44,36,0
228.98572,229.13065,47,36,0
229.13065,229.27557,44,36,0
229.27194,229.41687,47,36,0
229.4205,229.56543,52,36,0
229.56543,229.71036,40,36,0
229.70673,229.85165,44,36,0
229.85529,230.00021,47,36,0
230.00021,230.14514,44,36,0
230.14151,230.28644,47,36,0
230.29007,230.435,52,36,0
230.435,230.57991,40,36,0
230.5763,230.72122,44,36,0
230.72484,230.86977,47,36,0
230.86977,231.0147,44,36,0
231.01108,231.156,47,36,0
231.15962,231.30455,52,36,0
231.30455,231.44948,40,36,0
231.44586,231.59079,41,36,0
231.5944,231.73933,45,36,0
231.73933,231.88426,41,36,0
231.88065,232.02557,45,36,0
232.02919,232.17412,52,36,0
232.17412,232.31905,40,36,0
232.31543,232.46036,41,36,0
232.46397,232.6089,45,36,0
232.6089,232.75383,41,36,0
232.75021,232.89514,45,36,0
232.89876,233.04369,52,36,0
233.04369,233.18861,40,36,0
233.185,233.32993,41,36,0
233.33354,233.47847,45,36,0
233.47847,233.6234,41,36,0
233.61978,233.76471,45,36,0
233.76833,233.91325,52,36,0
233.91325,234.05818,40,36,0
234.05457,234.1995,41,36,0
234.20311,234.34804,45,36,0
234.34804,234.49297,41,36,0
234.48933,234.63426,45,36,0
234.6379,234.78282,52,36,0
234.78282,234.92775,40,36,0
234.92412,235.06905,42,36,0
235.07268,235.2176,45,36,0
235.2176,235.36253,42,36,0
235.3589,235.50383,45,36,0
235.50746,235.65239,52,36,0
235.65239,235.79732,40,36,0
235.79369,235.93861,43,36,0
235.94225,236.08717,46,36,0
236.08717,236.2321,43,36,0
236.22847,236.3734,46,36,0
236.37703,236.52196,52,36,0
236.52196,236.66689,40,36,0
236.66325,236.80818,44,36,0
236.81181,236.95674,47,36,0
236.95674,237.10167,44,49,0
237.09804,237.24297,47,49,0
237.2466,237.39153,52,49,0
237.39153,237.53645,45,62,0
237.53282,237.67775,48,62,0
237.68137,237.8263,52,62,0
237.8263,237.97122,46,62,0
237.9676,238.11253,49,62,0
238.11615,238.26108,52,62,0
238.26108,238.406,40,62,0
238.40239,238.54732,47,62,0
238.55093,238.69586,50,62,0
238.69586,238.84079,47,62,0
238.83717,238.9821,50,62,0
238.98572,239.13065,52,62,0
239.13065,239.27557,50,62,0
239.27196,239.41689,52,62,0
239.4205,239.56543,56,62,0
239.56543,239.71036,52,62,0
239.70674,239.85167,56,62,0
239.85529,240.00021,59,62,0
240.00021,240.14514,56,62,0
240.14153,240.28645,59,62,0
240.29007,240.435,62,62,0
240.435,240.57993,56,62,0
240.57631,240.72124,59,62,0
240.72485,240.86978,62,62,0
240.86978,241.01471,52,62,0
241.0111,241.15602,56,62,0
241.15964,241.30457,59,62,0
241.30457,241.4495,50,62,0
241.44588,241.59079,52,62,0
241.59442,241.73935,56,62,0
241.73935,241.88428,47,62,0
241.88065,242.02711,50,62,0
242.0308,242.17896,52,62,0
242.17896,242.33047,50,62,0
242.32669,242.47987,52,62,0
242.48375,242.6388,56,62,0
242.6388,242.7988,47,62,0
242.79478,242.95667,50,62,0
242.96075,243.1247,52,62,0
243.1247,243.29276,50,62,0
243.28856,243.4587,52,62,0
243.463,243.63542,56,62,0
243.63542,243.81398,47,49,0
243.80952,243.9881,50,49,0
243.99255,244.17113,52,49,0
244.17113,244.3497,50,36,0
244.34523,244.5238,52,36,0
244.52827,244.70685,56,36,0
244.70685,244.88542,47,36,0
244.88095,245.05952,50,36,0
245.06398,245.24255,52,36,0
245.24255,245.42113,50,36,0
245.41666,245.59523,52,36,0
245.5997,245.77827,56,36,0
245.77827,245.9232,45,62,0
245.91957,246.0645,49,62,0
246.06813,246.21306,52,62,0
246.21306,246.35799,49,62,0
246.35435,246.49928,52,62,0
246.50291,246.64784,57,62,0
246.64784,246.79277,49,62,0
246.78914,246.93407,52,62,0
246.9377,247.08263,57,62,0
247.08263,247.22755,52,62,0
247.22392,247.36885,57,62,0
247.37248,247.51741,61,62,0
247.51741,247.66234,47,62,0
247.6587,247.80363,50,62,0
247.80725,247.95218,52,62,0
247.95218,248.0971,50,62,0
248.09349,248.23842,52,62,0
248.24203,248.38696,59,62,0
248.38696,248.53189,49,62,0
248.52827,248.6732,52,62,0
248.67682,248.82175,57,62,0
248.82175,248.96667,52,62,0
248.96306,249.10799,57,62,0
249.1116,249.25653,61,62,0
249.25653,249.40146,50,62,0
249.39784,249.54277,54,62,0
249.54639,249.69131,57,62,0
249.69131,249.83624,54,62,0
249.83263,249.97755,57,62,0
249.98117,250.1261,59,62,0
250.1261,250.27103,51,62,0
250.26741,250.41234,54,62,0
250.41595,250.56088,57,62,0
250.56088,250.70581,54,62,0
250.7022,250.84712,57,62,0
250.85074,250.99567,61,62,0
250.99567,251.1406,52,62,0
251.13698,251.2819,57,62,0
251.28552,251.43045,61,62,0
251.43045,251.57538,57,62,0
251.57176,251.71667,61,62,0
251.7203,251.86523,64,62,0
251.86523,252.01016,52,62,0
252.00653,252.15146,59,62,0
252.15509,252.30002,62,62,0
252.30002,252.44495,61,62,0
252.44131,252.58624,62,62,0
252.58987,252.7348,59,62,0
252.7348,252.87973,45,62,0
252.8761,253.02103,49,62,0
253.02466,253.16959,52,62,0
253.16959,253.31451,49,62,0
253.31088,253.45581,52,62,0
253.45944,253.60437,57,62,0
253.60437,253.7493,49,62,0
253.74567,253.8906,52,62,0
253.89423,254.03915,57,62,0
254.03915,254.18408,52,62,0
254.18045,254.32538,57,62,0
254.32901,254.47394,61,62,0
254.47394,254.61887,47,62,0
254.61523,254.76016,50,62,0
254.7638,254.9087,52,62,0
254.9087,255.05363,50,62,0
255.05002,255.19495,52,62,0
255.19856,255.34349,59,62,0
255.34349,255.48842,49,62,0
255.4848,255.62973,52,62,0
255.63335,255.77827,57,62,0
255.77827,255.9232,52,62,0
255.91959,256.0645,57,62,0
256.06815,256.21307,61,62,0
256.21307,256.358,50,62,0
256.35437,256.4993,54,62,0
256.50293,256.64786,57,62,0
256.64786,256.7928,52,62,0
256.78915,256.93408,57,62,0
256.9377,257.08264,54,62,0
257.08264,257.22757,52,62,0
257.22394,257.36887,57,62,0
257.3725,257.51743,61,62,0
257.51743,257.66235,52,62,0
257.65872,257.80365,56,62,0
257.80728,257.9522,62,62,0
257.9522,258.09714,45,62,0
258.0935,258.23843,52,62,0
258.24207,258.38696,56,62,0
258.38696,258.5319,52,62,0
258.5283,258.67322,56,62,0
258.67682,258.82175,62,62,0
258.82175,258.8435,61,62,0
258.82175,258.8435,57,62,0
259.03915,259.06088,59,62,0
259.25653,259.2783,61,62,0
259.47394,259.49567,62,62,0
259.6913,260.3435,64,62,0
260.3435,260.56088,64,62,0
260.56088,261.43045,66,62,0
261.43045,261.86523,64,75,0
261.86523,262.08264,63,75,0
262.30002,262.9522,59,75,0
262.9522,263.1696,61,75,0
263.1696,264.03915,62,75,0
264.03915,264.90872,64,75,0
264.90872,265.56088,57,75,0
265.56088,265.7783,59,75,0
265.7783,266.64786,61,75,0
266.64786,266.69135,59,101,0
267.08264,267.12613,59,101,0
267.51743,267.9522,59,75,0
267.9522,268.2783,62,75,0
268.2783,268.387,61,75,0
268.387,269.25656,61,75,0
269.25656,269.83627,64,101,0
269.83264,269.97757,62,75,0
269.9812,270.12613,61,75,0
270.12613,270.1696,59,101,0
270.12613,270.1696,50,93,0
270.5609,270.60437,59,101,0
270.5609,270.60437,51,93,0
270.9957,271.43048,59,75,0
271.43048,271.75656,62,75,0
271.75656,271.86526,61,75,0
271.86526,272.9522,57,75,0
272.9522,272.97394,44,75,0
273.1696,273.19135,45,75,0
273.387,273.40872,47,75,0
273.60437,274.03915,48,75,0
274.03915,274.90872,52,75,0
274.90872,275.7783,57,75,0
275.7783,276.21307,56,75,0
276.21307,277.08264,57,75,0
277.08264,277.73483,59,75,0
277.73483,277.9522,59,75,0
277.9522,278.387,60,75,0
278.387,278.82178,57,75,0
278.82178,279.69135,57,75,0
279.69135,279.90872,56,75,0
279.90872,279.93048,50,75,0
280.12613,280.14786,48,75,0
280.3435,280.36526,47,75,0
280.5609,280.7783,45,88,0
280.5609,280.7783,33,88,0
280.9957,281.86526,48,114,0
280.9957,281.86526,36,106,0
281.86526,281.90875,53,88,0
281.86526,281.90875,41,88,0
282.30005,282.73483,52,88,0
282.30005,282.73483,40,88,0
282.73483,282.9522,51,88,0
282.73483,282.9522,39,88,0
283.16962,284.03918,52,114,0
283.16962,284.03918,40,106,0
284.03918,284.0609,52,88,0
284.03918,284.0609,40,88,0
284.47397,285.34354,55,114,0
284.47397,285.34354,43,106,0
285.34354,285.387,60,88,0
285.34354,285.387,48,88,0
285.77832,286.2131,59,88,0
285.77832,286.2131,47,88,0
286.2131,286.43048,58,88,0
286.2131,286.43048,46,88,0
286.6479,287.30005,59,114,0
286.6479,287.30005,47,106,0
287.30005,287.51743,62,88,0
287.30005,287.51743,50,88,0
287.51743,287.9522,57,88,0
287.51743,287.9522,45,88,0
287.9522,288.16962,56,88,0
287.9522,288.16962,44,88,0
288.387,289.03918,57,88,0
288.387,289.03918,45,88,0
289.03918,289.25656,60,88,0
289.03918,289.25656,48,88,0
289.25656,289.69135,52,88,0
289.25656,289.69135,40,88,0
289.69135,289.90875,51,88,0
289.69135,289.90875,39,88,0
290.12613,290.77832,52,88,0
290.12613,290.77832,40,88,0
290.77832,290.9957,48,88,0
290.77832,290.9957,36,88,0
290.9957,291.43048,47,88,0
290.9957,291.43048,35,88,0
291.43048,291.47397,47,114,0
291.43048,291.47397,45,106,0
291.86526,291.90875,47,114,0
291.86526,291.90875,43,106,0
292.30005,292.34354,47,114,0
292.30005,292.34354,42,106,0
292.73483,292.75656,40,75,0
292.95224,292.97397,55,75,0
293.16962,293.19135,59,75,0
293.38702,293.40875,52,75,0
293.6044,293.62613,55,75,0
293.82178,293.84354,47,75,0
294.03918,294.0609,52,75,0
294.25656,294.27832,43,75,0
294.47397,294.4957,53,75,0
294.69135,294.7131,43,75,0
294.90875,294.93048,54,75,0
295.12613,295.1479,42,75,0
295.34354,295.36526,51,75,0
295.5609,295.58267,39,75,0
295.77832,295.80005,46,75,0
295.9957,296.01746,34,75,0
296.2131,296.23483,47,75,0
296.43048,296.45224,50,75,0
296.6479,296.66962,54,75,0
296.86526,296.88702,47,75,0
297.08267,297.1044,50,75,0
297.30005,297.3218,42,75,0
297.51746,297.53918,47,75,0
297.73483,297.7566,38,75,0
297.95224,297.97397,48,75,0
298.16962,298.19138,38,75,0
298.38702,298.40875,49,75,0
298.6044,298.62616,37,75,0
298.8218,298.84354,45,75,0
299.03918,299.0609,33,75,0
299.2566,299.27832,45,75,0
299.47397,299.4957,47,75,0
299.69138,299.7131,48,75,0
299.90875,299.93048,58,75,0
300.12616,300.1479,59,75,0
300.34354,300.36526,47,75,0
300.56094,300.58267,43,75,0
300.77832,300.80005,55,75,0
300.9957,301.01746,52,75,0
301.2131,301.23483,48,75,0
301.43048,301.45224,53,75,0
301.6479,301.66962,43,75,0
301.86526,301.88702,54,75,0
302.08267,302.1044,42,75,0
302.30005,302.3218,51,75,0
302.51746,302.53918,39,75,0
302.73483,302.7566,52,75,0
302.95224,302.97397,40,75,0
303.16962,303.19138,50,75,0
303.38702,303.40875,42,75,0
303.6044,303.62616,43,75,0
303.8218,303.84354,47,75,0
304.03918,304.06094,42,75,0
304.2566,304.27832,47,75,0
304.47397,304.49573,42,75,0
304.69138,304.7131,46,75,0
304.90875,305.34354,47,127,0
305.56094,305.58267,59,88,0
305.77832,306.2131,67,88,0
305.77832,306.2131,55,88,0
306.2131,306.4305,66,88,0
306.2131,306.4305,54,88,0
306.6479,307.51746,65,127,0
306.6479,307.51746,53,115,0
306.6479,307.51746,56,119,0
306.6479,307.51746,61,123,0
307.51746,307.95224,43,114,0
307.51746,307.95224,31,114,0
307.95224,308.16962,42,114,0
307.95224,308.16962,30,114,0
308.38702,309.2566,41,127,0
308.38702,309.2566,29,119,0
309.2566,309.40152,41,101,0
309.3979,309.54282,44,75,0
309.54645,309.69138,49,75,0
309.69138,309.8363,53,75,0
309.83267,309.9776,56,75,0
309.98123,310.12616,61,75,0
310.12616,310.2711,42,75,0
310.26746,310.41238,54,75,0
310.41602,310.56094,42,75,0
310.56094,310.70587,35,75,0
310.70224,310.84717,47,75,0
310.8508,310.99573,35,75,0
310.99573,311.14066,37,75,0
311.13702,311.28195,49,75,0
311.28558,311.4305,37,75,0
311.4305,311.57544,49,75,0
311.5718,311.71674,37,75,0
311.72037,311.8653,49,75,0
311.8653,312.73486,50,114,0
311.8653,312.73486,38,106,0
312.73486,313.16965,62,88,0
312.73486,313.16965,50,88,0
313.16965,313.38702,61,88,0
313.16965,313.38702,49,88,0
313.60443,314.474,60,114,0
313.60443,314.474,48,114,0
313.60443,314.474,51,114,0
313.60443,314.474,56,114,0
314.474,314.90878,50,114,0
314.474,314.90878,38,114,0
314.90878,315.12616,49,114,0
314.90878,315.12616,37,114,0
315.34354,316.2131,48,114,0
315.34354,316.2131,36,114,0
315.34354,316.2131,39,114,0
315.34354,316.2131,44,114,0
316.2131,316.35803,36,75,0
316.35443,316.49936,39,75,0
316.50296,316.6479,44,75,0
316.6479,316.79282,48,75,0
316.7892,316.93414,51,75,0
316.93774,317.08267,56,75,0
317.08267,317.2276,37,75,0
317.224,317.36893,49,75,0
317.37253,317.51746,37,75,0
317.51746,317.66238,30,75,0
317.65878,317.8037,42,75,0
317.8073,317.95224,30,75,0
317.95224,318.09717,32,75,0
318.09357,318.2385,44,75,0
318.2421,318.38702,32,75,0
318.38702,318.53195,44,75,0
318.52835,318.67328,32,75,0
318.67688,318.8218,44,75,0
318.8218,318.96674,37,75,0
318.9631,319.10803,36,36,0
319.11166,319.2566,37,36,0
319.2566,319.40152,40,36,0
319.3979,319.54282,37,36,0
319.54645,319.69138,40,36,0
319.69138,319.8363,37,36,0
319.83267,319.9776,36,36,0
319.98123,320.12616,37,36,0
320.12616,320.2711,40,36,0
320.26746,320.41238,37,36,0
320.41602,320.56094,40,36,0
320.56094,320.70587,37,36,0
320.70224,320.84717,36,36,0
320.8508,320.99573,37,36,0
320.99573,321.14066,40,36,0
321.13702,321.28195,37,36,0
321.28558,321.4305,40,36,0
321.4305,321.57544,37,36,0
321.5718,321.71674,36,36,0
321.72037,321.8653,37,36,0
321.8653,322.01022,40,36,0
322.0066,322.15152,37,36,0
322.15515,322.30008,40,36,0
322.30008,322.445,39,36,0
322.44138,322.5863,38,36,0
322.58994,322.73486,39,36,0
322.73486,322.8798,42,36,0
322.87616,323.0211,39,36,0
323.02472,323.16965,42,36,0
323.16965,323.31458,39,36,0
323.31094,323.45587,38,36,0
323.4595,323.60443,39,36,0
323.60443,323.74936,42,36,0
323.74573,323.89066,39,36,0
323.8943,324.0392,42,36,0
324.0392,324.18414,40,36,0
324.1805,324.32544,39,36,0
324.32907,324.474,40,36,0
324.474,324.61893,44,36,0
324.6153,324.76022,40,36,0
324.76385,324.90878,44,36,0
324.90878,325.0537,40,36,0
325.05008,325.195,39,36,0
325.19864,325.34357,40,36,0
325.34357,325.4885,44,36,0
325.48486,325.6298,40,36,0
325.63342,325.77835,44,36,0
325.77835,325.92328,42,36,0
325.91965,326.06458,41,36,0
326.0682,326.21313,42,36,0
326.21313,326.35806,45,36,0
326.35443,326.49936,42,36,0
326.503,326.64792,45,36,0
326.64792,326.79285,44,36,0
326.7892,326.93414,43,36,0
326.93777,327.0827,44,36,0
327.0827,327.22763,48,36,0
327.224,327.36893,44,36,0
327.37256,327.5175,48,36,0
327.5175,327.73486,49,75,0
327.95227,328.82184,52,49,0
328.82184,328.8653,57,49,0
329.2566,329.69138,56,49,0
329.69138,329.90878,55,49,0
330.12616,330.99573,56,114,0
330.12616,330.99573,52,114,0
330.12616,330.99573,49,114,0
330.99573,331.4305,56,49,0
331.4305,331.64792,55,49,0
331.8653,332.73486,56,114,0
331.8653,332.73486,54,114,0
331.8653,332.73486,48,114,0
332.73486,333.16965,56,49,0
333.16965,333.38705,55,49,0
333.60443,334.474,61,114,0
333.60443,334.474,56,114,0
333.60443,334.474,52,114,0
334.474,334.90878,57,75,0
334.90878,335.34357,54,75,0
335.34357,335.77835,51,75,0
335.77835,336.21313,55,75,0
336.21313,336.25662,56,75,0
336.64792,336.6914,56,88,0
336.64792,336.6914,54,88,0
337.0827,337.1262,56,101,0
337.0827,337.1262,52,101,0
337.5175,337.56097,56,114,0
337.5175,337.56097,51,114,0
337.95227,338.0972,49,36,0
338.09357,338.2385,52,36,0
338.24213,338.38705,56,36,0
338.38705,338.53198,49,36,0
338.52835,338.67328,52,36,0
338.6769,338.82184,56,36,0
338.82184,338.96677,49,49,0
338.96313,339.10806,52,49,0
339.1117,339.25662,56,49,0
339.25662,339.40155,49,62,0
339.39792,339.54285,52,62,0
339.54648,339.6914,56,62,0
339.6914,339.83633,52,62,0
339.8327,339.97763,56,62,0
339.98126,340.1262,61,62,0
340.1262,340.27112,52,49,0
340.2675,340.4124,56,49,0
340.41605,340.56097,61,49,0
340.56097,340.7059,52,36,0
340.70227,340.8472,56,36,0
340.85083,340.99576,61,36,0
340.99576,341.1407,52,36,0
341.13705,341.28198,56,36,0
341.2856,341.43054,61,36,0
341.43054,341.57547,54,49,0
341.57184,341.71677,57,49,0
341.7204,341.86533,61,49,0
341.86533,342.01025,54,49,0
342.00662,342.15155,57,49,0
342.15518,342.3001,61,49,0
342.3001,342.44504,54,49,0
342.4414,342.58633,57,49,0
342.58997,342.7349,61,49,0
342.7349,342.87982,54,49,0
342.8762,343.02112,57,49,0
343.02475,343.16968,61,49,0
343.16968,343.3146,56,62,0
343.31097,343.4559,61,62,0
343.4595,343.60443,64,62,0
343.60443,343.74936,56,62,0
343.74576,343.8907,61,62,0
343.8943,344.0392,64,62,0
344.0392,344.18414,56,62,0
344.18054,344.32547,61,62,0
344.32907,344.474,64,62,0
344.474,344.61893,57,62,0
344.61533,344.76025,61,62,0
344.76385,344.90878,64,62,0
344.90878,345.0537,59,62,0
345.0501,345.19504,64,62,0
345.19864,345.34357,68,62,0
345.34357,345.4885,59,62,0
345.4849,345.62982,64,62,0
345.63342,345.77835,68,62,0
345.77835,345.92328,59,62,0
345.91968,346.0646,64,62,0
346.0682,346.21313,68,62,0
346.21313,346.35806,59,62,0
346.35446,346.4994,64,62,0
346.503,346.64792,68,62,0
346.64792,346.79285,60,62,0
346.78925,346.93417,66,62,0
346.93777,347.0827,68,62,0
347.0827,347.22763,60,62,0
347.22403,347.36893,66,62,0
347.37256,347.5175,68,62,0
347.5175,347.6624,61,62,0
347.65878,347.8037,64,62,0
347.80734,347.95227,68,62,0
347.95227,348.0972,61,62,0
348.09357,348.2385,64,62,0
348.24213,348.38705,68,62,0
348.38705,348.53198,61,62,0
348.52835,348.67328,63,62,0
348.6769,348.82184,69,62,0
348.82184,348.96677,61,62,0
348.96313,349.10806,63,62,0
349.1117,349.25662,69,62,0
349.25662,349.40155,60,62,0
349.39792,349.54285,63,62,0
349.54648,349.6914,68,62,0
349.6914,349.83633,60,62,0
349.8327,349.97763,63,62,0
349.98126,350.1262,68,62,0
350.1262,350.27112,57,62,0
350.2675,350.4124,61,62,0
350.41605,350.56097,64,62,0
350.56097,350.7059,57,88,0
350.70227,350.8472,61,62,0
350.85083,350.99576,64,62,0
350.99576,351.1407,56,88,0
351.13705,351.28198,61,62,0
351.2856,351.43054,64,62,0
351.43054,351.57547,54,88,0
351.57184,351.71677,61,62,0
351.7204,351.86533,64,62,0
351.86533,352.01025,52,88,0
352.00662,352.15155,56,62,0
352.15518,352.3001,61,62,0
352.3001,352.44504,52,49,0
352.4414,352.58633,56,49,0
352.58997,352.7349,61,49,0
352.7349,352.87982,52,36,0
352.8762,353.02112,56,36,0
353.02475,353.16968,61,36,0
353.16968,353.3146,52,36,0
353.31097,353.4559,56,36,0
353.45953,353.60446,61,36,0
353.60446,353.7494,54,49,0
353.74576,353.8907,57,49,0
353.89432,354.03925,61,49,0
354.03925,354.18417,54,49,0
354.18054,354.32547,57,49,0
354.3291,354.47403,61,49,0
354.47403,354.61896,54,49,0
354.61533,354.76025,57,49,0
354.7639,354.9088,61,49,0
354.9088,355.05374,54,49,0
355.0501,355.19504,57,49,0
355.19867,355.3436,61,49,0
355.3436,355.48853,56,62,0
355.4849,355.62982,61,62,0
355.63345,355.77838,64,62,0
355.77838,355.9233,56,62,0
355.91968,356.0646,61,62,0
356.06824,356.21317,64,62,0
356.21317,356.3581,56,62,0
356.35446,356.4994,61,62,0
356.50302,356.64795,64,62,0
356.64795,356.79288,57,62,0
356.78925,356.93417,61,62,0
356.9378,357.08273,64,62,0
357.08273,357.22766,59,62,0
357.22403,357.36896,64,62,0
357.3726,357.51752,68,62,0
357.51752,357.6624,59,62,0
357.6588,357.80374,64,62,0
357.80734,357.95227,68,62,0
357.95227,358.0972,59,62,0
358.0936,358.23853,64,62,0
358.24213,358.38705,68,62,0
358.38705,358.53198,59,62,0
358.52838,358.6733,64,62,0
358.6769,358.82184,68,62,0
358.82184,358.96677,59,62,0
358.96317,359.1081,64,62,0
359.1117,359.25662,68,62,0
359.25662,359.40155,59,62,0
359.39795,359.54288,64,62,0
359.54648,359.6914,68,62,0
359.6914,359.83633,56,62,0
359.83273,359.97766,63,62,0
359.98126,360.1262,66,62,0
360.1262,360.27112,56,62,0
360.26752,360.41245,63,62,0
360.41605,360.56097,66,62,0
360.56097,360.7059,57,62,0
360.7023,360.84723,61,62,0
360.85083,360.99576,64,62,0
360.99576,361.1407,57,62,0
361.1371,361.282,61,62,0
361.2856,361.43054,64,62,0
361.43054,361.57547,57,62,0
361.57184,361.71677,61,62,0
361.7204,361.86533,63,62,0
361.86533,362.01025,57,62,0
362.00662,362.15155,61,62,0
362.15518,362.3001,63,62,0
362.3001,362.44504,56,62,0
362.4414,362.58633,61,62,0
362.58997,362.7349,64,62,0
362.7349,362.87982,56,62,0
362.8762,363.02112,61,62,0
363.02475,363.16968,64,62,0
363.16968,363.3146,57,62,0
363.31097,363.4559,64,62,0
363.45953,363.60446,66,62,0
363.60446,363.7494,58,62,0
363.74576,363.8907,64,62,0
363.89432,364.03925,66,62,0
364.03925,364.18417,59,62,0
364.18054,364.32547,64,62,0
364.3291,364.47403,68,62,0
364.47403,364.61896,59,62,0
364.61533,364.76025,64,62,0
364.7639,364.9088,68,62,0
364.9088,365.05374,59,62,0
365.0501,365.19504,64,62,0
365.19867,365.3436,68,62,0
365.3436,365.48853,60,62,0
365.4849,365.62982,64,62,0
365.63345,365.77838,68,62,0
365.77838,365.9233,61,62,0
365.91968,366.0646,64,62,0
366.06824,366.21317,68,62,0
366.21317,366.3581,61,62,0
366.35446,366.4994,64,62,0
366.50302,366.64795,68,62,0
366.64795,366.79288,57,62,0
366.78925,366.93417,64,62,0
366.9378,367.08273,66,62,0
367.08273,367.22766,58,62,0
367.22403,367.36896,64,62,0
367.3726,367.51752,66,62,0
367.51752,367.66245,59,62,0
367.6588,367.80374,64,62,0
367.80737,367.9523,68,62,0
367.9523,368.09723,59,62,0
368.0936,368.23853,64,62,0
368.24216,368.3871,68,62,0
368.3871,368.532,59,62,0
368.52838,368.6733,64,62,0
368.67694,368.82187,68,62,0
368.82187,368.9668,60,62,0
368.96317,369.1081,64,62,0
369.11172,369.25665,68,62,0
369.25665,369.40158,61,62,0
369.39795,369.54288,64,62,0
369.5465,369.69144,68,62,0
369.69144,369.83636,61,62,0
369.83273,369.97766,64,62,0
369.9813,370.12622,68,62,0
370.12622,370.27115,61,62,0
370.26752,370.41245,63,62,0
370.41608,370.561,69,62,0
370.561,370.70593,61,62,0
370.7023,370.84723,63,62,0
370.85086,370.9958,69,62,0
370.9958,371.14072,61,62,0
371.1371,371.282,64,62,0
371.28564,371.43057,68,62,0
371.43057,371.5755,61,62,0
371.57187,371.7168,64,62,0
371.72043,371.86533,68,62,0
371.86533,372.01025,61,62,0
372.00665,372.15158,64,62,0
372.15518,372.3001,69,62,0
372.3001,372.44504,61,62,0
372.44144,372.58636,64,62,0
372.58997,372.7349,69,62,0
372.7349,372.87982,61,62,0
372.87622,373.02115,63,62,0
373.02475,373.16968,66,62,0
373.16968,373.3146,61,62,0
373.311,373.45593,63,62,0
373.45953,373.60446,66,62,0
373.60446,373.7494,60,62,0
373.7458,373.89072,63,62,0
373.89432,374.03925,68,62,0
374.03925,374.18417,60,62,0
374.18057,374.3255,63,62,0
374.3291,374.47403,68,62,0
374.47403,374.61896,61,62,0
374.61536,374.76028,65,62,0
374.7639,374.9088,68,62,0
374.9088,375.05374,61,36,0
375.05014,375.19507,65,36,0
375.19867,375.3436,68,36,0
375.3436,375.48853,61,36,0
375.48492,375.62985,65,36,0
375.63345,375.77838,68,36,0
375.77838,375.9233,61,36,0
375.91968,376.0646,65,36,0
376.06824,376.21317,68,36,0
376.21317,376.3581,61,36,0
376.35446,376.4994,66,36,0
376.50302,376.64795,69,36,0
376.64795,376.79288,61,36,0
376.78925,376.93417,66,36,0
376.9378,377.08273,69,36,0
377.08273,377.22766,61,36,0
377.22403,377.36896,66,36,0
377.3726,377.51752,69,36,0
377.51752,377.66245,61,36,0
377.6588,377.80374,66,36,0
377.80737,377.9523,69,36,0
377.9523,378.09723,61,36,0
378.0936,378.23853,65,36,0
378.24216,378.3871,68,36,0
378.3871,378.532,61,36,0
378.52838,378.6733,65,36,0
378.67694,378.82187,68,36,0
378.82187,378.9668,61,36,0
378.96317,379.1081,65,36,0
379.11172,379.25665,68,36,0
379.25665,379.40158,61,36,0
379.39795,379.54288,65,36,0
379.5465,379.69144,68,36,0
379.69144,379.83636,61,36,0
379.83273,379.97766,66,36,0
379.9813,380.12622,69,36,0
380.12622,380.27115,61,36,0
380.26752,380.41245,66,36,0
380.41608,380.561,69,36,0
380.561,380.70593,61,36,0
380.7023,380.84723,66,36,0
380.85086,380.9958,69,36,0
380.9958,381.14072,61,36,0
381.1371,381.282,66,36,0
381.28564,381.43057,69,36,0
381.43057,381.5755,61,36,0
381.57187,381.7168,65,36,0
381.72043,381.86536,68,36,0
381.86536,382.01028,61,36,0
382.00665,382.15158,65,36,0
382.1552,382.30014,68,36,0
382.30014,382.44507,61,36,0
382.44144,382.58636,66,36,0
382.59,382.73492,69,36,0
382.73492,382.87985,61,36,0
382.87622,383.02115,66,36,0
383.02478,383.1697,69,36,0
383.1697,383.31464,61,36,0
383.311,383.45593,65,36,0
383.45956,383.6045,68,36,0
383.6045,383.74942,61,36,0
383.7458,383.89072,65,36,0
383.89435,384.03928,68,36,0
384.03928,384.1842,61,36,0
384.18057,384.3255,66,36,0
384.32913,384.47406,69,36,0
384.47406,384.619,61,36,0
384.61536,384.76028,66,36,0
384.76392,384.90884,69,36,0
384.90884,385.05377,61,36,0
385.05014,385.19507,65,36,0
385.1987,385.34363,68,36,0
385.34363,385.48856,61,36,0
385.48492,385.62985,65,36,0
385.63348,385.7784,68,36,0
385.7784,385.92334,57,36,0
385.9197,386.06464,61,36,0
386.06824,386.21317,66,36,0
386.21317,386.3581,57,36,0
386.3545,386.49942,61,36,0
386.50302,386.64795,66,36,0
386.64795,386.79288,56,36,0
386.78928,386.9342,61,36,0
386.9378,387.08273,65,36,0
387.08273,387.22766,56,36,0
387.22406,387.369,61,36,0
387.3726,387.51752,65,36,0
387.51752,387.66245,54,36,0
387.65884,387.80377,57,36,0
387.80737,387.9523,62,36,0
387.9523,388.09723,54,36,0
388.09363,388.23856,57,36,0
388.24216,388.3871,62,36,0
388.3871,388.532,53,36,0
388.5284,388.67334,56,36,0
388.67694,388.82187,61,36,0
388.82187,388.9668,53,36,0
388.9632,389.10812,56,36,0
389.11172,389.25665,61,36,0
389.25665,389.40158,53,36,0
389.39798,389.5429,56,36,0
389.5465,389.69144,61,36,0
389.69144,389.83636,53,36,0
389.83276,389.97766,56,36,0
389.9813,390.12622,61,36,0
390.12622,390.27115,50,36,0
390.26752,390.41245,54,36,0
390.41608,390.561,61,36,0
390.561,390.70593,50,36,0
390.7023,390.84723,54,36,0
390.85086,390.9958,61,36,0
390.9958,391.14072,50,36,0
391.1371,391.282,54,36,0
391.28564,391.43057,61,36,0
391.43057,391.5755,50,36,0
391.57187,391.7168,54,36,0
391.72043,391.86536,61,36,0
391.86536,392.01028,49,36,0
392.00665,392.1531,53,36,0
392.15683,392.30496,61,36,0
392.30496,392.45648,49,36,0
392.4527,392.6059,53,36,0
392.60977,392.7648,61,36,0
392.7648,392.9248,49,36,0
392.9208,393.08267,53,36,0
393.08676,393.2507,61,36,0
393.2507,393.41876,49,36,0
393.41458,393.58472,53,36,0
393.58902,393.7614,61,36,0
393.7614,394.0293,49,36,0
394.0293,394.29715,61,36,0
394.29715,394.3239,61,36,0
394.565,394.5918,61,36,0
394.83286,394.85965,61,36,0
395.1007,395.1275,61,36,0
395.36856,395.39536,61,36,0
395.6364,395.6632,61,36,0
395.9043,396.12167,54,36,0
396.12167,396.33905,61,36,0
396.33905,396.3608,61,36,0
396.55646,396.5782,61,36,0
396.77383,396.99124,58,36,0
396.99124,397.20862,61,36,0
397.20862,397.23038,61,36,0
397.42603,397.44775,61,36,0
397.6434,397.8608,56,36,0
397.8608,398.0782,61,36,0
398.0782,398.09995,61,36,0
398.2956,398.31732,61,36,0
398.51297,398.73038,58,36,0
398.73038,398.94775,61,36,0
398.94775,399.16516,61,36,0
399.16516,399.38254,66,36,0
399.38254,399.59995,59,36,0
399.59995,399.81732,66,36,0
399.81732,399.83908,66,36,0
400.03473,400.05646,66,36,0
400.2521,400.4695,60,36,0
400.4695,400.6869,66,36,0
400.6869,400.9043,60,36,0
400.9043,401.12167,70,36,0
401.12167,401.33908,61,36,0
401.33908,401.55646,70,36,0
401.55646,401.5782,70,36,0
401.77386,401.7956,70,36,0
401.99124,402.20865,68,36,0
402.20865,402.42603,71,36,0
402.42603,402.64343,70,36,0
402.64343,402.8608,68,36,0
402.8608,403.07822,66,36,0
402.8608,403.07822,54,36,0
403.07822,403.2956,61,36,0
403.2956,403.31732,61,36,0
403.51297,403.53473,61,36,0
403.73038,403.94775,58,36,0
403.94775,404.16516,61,36,0
404.16516,404.1869,61,36,0
404.38254,404.4043,61,36,0
404.59995,404.81732,56,36,0
404.81732,405.03473,61,36,0
405.03473,405.05646,61,36,0
405.2521,405.27386,61,36,0
405.4695,405.6869,58,36,0
405.6869,405.9043,61,36,0
405.9043,406.12167,61,36,0
406.12167,406.33908,66,36,0
406.33908,406.55646,59,36,0
406.55646,406.77386,66,36,0
406.77386,406.7956,66,36,0
406.99124,407.013,66,36,0
407.20865,407.42603,60,36,0
407.42603,407.64343,66,36,0
407.64343,407.8608,60,36,0
407.8608,408.07822,69,36,0
408.07822,408.2956,61,36,0
408.2956,408.51782,69,36,0
408.51782,408.54056,69,36,0
408.7451,408.76834,69,36,0
408.97766,409.21765,62,36,0
409.21765,409.46356,66,36,0
409.46356,409.71567,63,36,0
409.71567,409.97427,69,36,0
409.97427,410.24213,64,36,0
410.24213,410.50998,69,36,0
410.50998,410.77783,69,36,0
410.77783,411.04572,73,36,0
411.04572,411.31357,64,36,0
411.31357,411.58142,76,36,0
411.58142,411.84927,64,36,0
411.84927,412.11713,74,36,0
412.11713,412.33453,57,36,0
412.33453,412.5519,64,36,0
412.5519,412.57364,64,36,0
412.76932,412.79105,64,36,0
412.9867,413.2041,61,36,0
413.2041,413.42148,64,36,0
413.42148,413.4432,64,36,0
413.63885,413.6606,64,36,0
413.85626,414.07364,59,36,0
414.07364,414.29105,64,36,0
414.29105,414.31277,64,36,0
414.50842,414.53018,64,36,0
414.72583,414.9432,61,36,0
414.9432,415.1606,64,36,0
415.1606,415.378,64,36,0
415.378,415.5954,69,36,0
415.5954,415.81277,62,36,0
415.81277,416.03018,69,36,0
416.03018,416.0519,69,36,0
416.24756,416.26932,69,36,0
416.46497,416.68234,63,36,0
416.68234,416.89975,69,36,0
416.89975,417.11713,63,36,0
417.11713,417.33453,73,36,0
417.33453,417.5519,64,36,0
417.5519,417.76932,73,36,0
417.76932,417.79105,73,36,0
417.9867,418.00845,73,36,0
418.2041,418.42148,71,36,0
418.42148,418.6389,74,36,0
418.6389,418.85626,73,36,0
418.85626,419.07367,71,36,0
419.07367,419.29105,69,36,0
419.07367,419.29105,57,36,0
419.29105,419.50845,64,36,0
419.50845,419.72583,64,36,0
419.72583,419.94324,64,36,0
419.94324,420.1606,61,36,0
420.1606,420.37802,64,36,0
420.37802,420.5954,64,36,0
420.5954,420.81277,64,36,0
420.81277,421.03018,59,36,0
421.03018,421.24756,64,36,0
421.24756,421.46497,64,36,0
421.46497,421.68234,64,36,0
421.68234,421.89975,61,36,0
421.89975,422.11713,64,36,0
422.11713,422.33453,64,36,0
422.33453,422.5519,69,36,0
422.5519,422.76932,62,36,0
422.76932,422.9867,69,36,0
422.9867,423.2041,69,36,0
423.2041,423.42148,69,36,0
423.42148,423.6389,64,36,0
423.6389,423.85626,69,36,0
423.85626,424.07367,64,36,0
424.07367,424.29105,68,36,0
424.29105,424.50845,57,36,0
424.50845,424.72583,64,36,0
424.72583,424.94324,68,36,0
424.94324,425.1606,64,36,0
425.1606,425.37802,69,36,0
426.03018,426.2476,61,49,0
426.03018,426.2476,57,49,0
426.2476,426.46497,64,49,0
426.46497,426.68237,59,49,0
426.46497,426.68237,55,49,0
426.68237,426.89975,64,49,0
426.89975,427.11716,58,75,0
426.89975,427.11716,54,67,0
427.11716,427.33453,66,49,0
427.33453,427.5519,58,49,0
427.33453,427.5519,54,49,0
427.5519,427.76932,59,49,0
427.5519,427.76932,56,49,0
427.76932,427.9867,61,49,0
427.76932,427.9867,58,49,0
427.9867,428.2041,66,49,0
428.2041,428.42148,63,49,0
428.2041,428.42148,59,49,0
428.42148,428.6389,66,49,0
428.6389,428.85626,63,49,0
428.85626,429.07367,66,49,0
429.07367,429.29105,62,49,0
429.29105,429.50845,64,49,0
429.29105,429.50845,61,49,0
429.50845,429.72583,62,49,0
429.50845,429.72583,59,49,0
429.72583,429.94324,66,49,0
429.94324,430.1606,61,49,0
429.94324,430.1606,57,49,0
430.1606,430.37802,66,49,0
430.37802,430.5954,59,75,0
430.37802,430.5954,56,67,0
430.5954,430.8128,64,49,0
430.8128,431.03018,52,49,0
430.8128,431.03018,50,49,0
431.03018,431.2476,59,49,0
431.2476,431.46497,52,49,0
431.2476,431.46497,49,49,0
431.46497,431.68237,57,49,0
431.68237,431.89975,50,49,0
431.68237,431.89975,47,49,0
431.89975,432.11716,57,49,0
432.11716,432.33453,49,49,0
432.11716,432.33453,45,49,0
432.33453,432.55194,57,49,0
432.55194,432.76932,50,49,0
432.55194,432.76932,47,49,0
432.76932,432.98672,52,49,0
432.76932,432.98672,49,49,0
432.98672,433.2041,54,49,0
432.98672,433.2041,50,49,0
433.2041,433.4215,59,49,0
433.4215,433.6389,57,49,0
433.4215,433.6389,51,49,0
433.6389,433.8563,59,49,0
433.8563,434.07367,57,49,0
433.8563,434.07367,52,49,0
434.07367,434.29108,59,49,0
434.29108,434.50845,56,49,0
434.29108,434.50845,53,49,0
434.50845,434.72583,62,49,0
434.72583,434.94324,57,49,0
434.72583,434.94324,54,49,0
434.94324,435.1606,61,49,0
435.1606,435.37802,59,49,0
435.1606,435.37802,56,49,0
435.37802,435.5954,57,49,0
435.37802,435.5954,54,49,0
435.5954,435.8128,59,49,0
435.5954,435.8128,56,49,0
435.8128,436.03018,64,49,0
436.03018,436.2476,61,49,0
436.03018,436.2476,57,49,0
436.2476,436.46497,64,49,0
436.46497,436.68237,57,49,0
436.46497,436.68237,50,49,0
436.68237,436.89975,59,49,0
436.89975,437.11716,57,49,0
436.89975,437.11716,51,49,0
437.11716,437.33453,59,49,0
437.33453,437.55194,57,49,0
437.33453,437.55194,52,49,0
437.55194,437.76932,59,49,0
437.76932,437.98672,56,49,0
437.76932,437.98672,53,49,0
437.98672,438.2041,62,49,0
438.2041,438.4215,61,49,0
438.2041,438.4215,57,49,0
438.4215,438.6389,66,49,0
438.4215,438.6389,62,49,0
438.6389,438.8563,64,49,0
438.6389,438.8563,61,49,0
438.8563,439.07367,62,49,0
438.8563,439.07367,59,49,0
439.07367,439.29108,61,49,0
439.07367,439.29108,57,49,0
439.29108,439.3128,59,75,0
439.50845,439.5302,61,75,0
439.72586,439.7476,62,75,0
439.94324,440.59543,64,101,0
440.59543,440.8128,64,75,0
440.8128,441.68237,66,62,0
441.68237,442.11716,64,75,0
442.11716,442.33453,63,75,0
442.55194,443.2041,59,75,0
443.2041,443.4215,61,75,0
443.4215,444.29108,62,75,0
444.29108,445.16064,64,75,0
445.16064,445.8128,57,75,0
445.8128,446.0302,59,75,0
446.0302,446.89978,61,75,0
446.89978,446.94324,59,101,0
447.33456,447.37802,59,101,0
447.76935,448.20413,59,75,0
448.20413,448.5302,62,75,0
448.5302,448.63892,61,75,0
448.63892,449.50845,61,75,0
449.50845,450.08817,64,101,0
450.08456,450.2295,62,75,0
450.2331,450.37802,61,75,0
450.37802,450.4215,59,101,0
450.37802,450.4215,50,93,0
450.8128,450.8563,59,101,0
450.8128,450.8563,51,93,0
451.2476,451.68237,59,75,0
451.68237,452.00848,62,75,0
452.00848,452.11716,61,75,0
452.11716,453.4215,61,88,0
453.4215,453.7476,59,88,0
453.7476,453.8563,61,88,0
453.8563,453.89978,62,101,0
454.29108,454.33456,62,101,0
454.72586,455.16064,62,101,0
455.16064,455.48672,66,101,0
455.48672,455.59543,64,101,0
455.59543,457.33456,64,101,0
455.59543,457.33456,56,101,0
457.33456,457.37805,64,88,0
457.33456,457.37805,55,88,0
457.33456,457.37805,57,88,0
457.33456,457.37805,61,88,0
457.76935,457.81284,64,88,0
457.76935,457.81284,55,88,0
457.76935,457.81284,57,88,0
457.76935,457.81284,61,88,0
458.20413,458.24762,64,88,0
458.20413,458.24762,55,88,0
458.20413,458.24762,57,88,0
458.20413,458.24762,61,88,0
458.63892,458.68237,64,101,0
458.63892,458.68237,55,101,0
458.63892,458.68237,57,101,0
458.63892,458.68237,61,101,0
459.0737,459.94327,66,114,0
459.0737,459.94327,54,114,0
459.0737,459.94327,57,114,0
459.0737,459.94327,62,114,0
459.94327,460.37805,74,114,0
459.94327,460.37805,66,106,0
460.37805,460.81284,71,88,0
460.37805,460.81284,62,88,0
460.81284,461.465,69,88,0
460.81284,461.465,61,88,0
460.81284,461.465,52,88,0
461.465,461.6824,69,88,0
461.465,461.6824,61,88,0
461.6824,462.1172,73,88,0
461.6824,462.1172,69,88,0
462.1172,462.55197,71,88,0
462.1172,462.55197,68,88,0
462.55197,462.59543,64,88,0
462.55197,462.59543,55,88,0
462.55197,462.59543,57,88,0
462.55197,462.59543,61,88,0
462.98672,463.0302,64,88,0
462.98672,463.0302,55,88,0
462.98672,463.0302,57,88,0
462.98672,463.0302,61,88,0
463.4215,463.465,64,88,0
463.4215,463.465,55,88,0
463.4215,463.465,57,88,0
463.4215,463.465,61,88,0
463.8563,463.89978,64,101,0
463.8563,463.89978,55,101,0
463.8563,463.89978,57,101,0
463.8563,463.89978,61,101,0
464.29108,465.16064,66,114,0
464.29108,465.16064,54,114,0
464.29108,465.16064,57,114,0
464.29108,465.16064,62,114,0
465.16064,466.0302,62,88,0
465.16064,466.0302,50,88,0
465.16064,466.0302,54,88,0
465.16064,466.0302,59,88,0
466.0302,466.89978,61,88,0
466.0302,466.89978,49,88,0
466.0302,466.89978,52,88,0
466.0302,466.89978,57,88,0
466.89978,467.76935,63,114,0
466.89978,467.76935,54,114,0
466.89978,467.76935,57,114,0
466.89978,467.76935,59,114,0
467.76935,468.20413,64,114,0
467.76935,468.20413,52,114,0
467.76935,468.20413,56,114,0
467.76935,468.20413,59,114,0
468.20413,468.34906,66,75,0
468.34543,468.49036,59,75,0
468.494,468.63892,52,75,0
468.63892,468.78384,64,75,0
468.7802,468.92514,59,75,0
468.92877,469.0737,52,75,0
469.0737,469.21863,63,62,0
469.215,469.35992,59,62,0
469.36356,469.50848,52,62,0
469.50848,469.6534,64,62,0
469.64978,469.7947,59,62,0
469.79834,469.94327,52,62,0
469.94327,469.98676,59,101,0
469.94327,469.98676,57,91,0
469.94327,469.98676,51,81,0
470.37805,470.42154,59,49,0
470.37805,470.42154,57,49,0
470.37805,470.42154,52,49,0
470.81284,470.82733,59,49,0
470.81284,470.82733,57,49,0
470.81284,470.82733,54,49,0
471.24762,471.6824,59,49,0
471.24762,471.6824,56,49,0
471.24762,471.6824,52,49,0
471.6824,471.82733,63,101,0
471.8237,471.96863,59,75,0
471.97226,472.1172,52,75,0
472.1172,472.26212,64,75,0
472.25848,472.4034,59,75,0
472.40704,472.55197,52,75,0
472.55197,472.6969,66,75,0
472.69327,472.8382,59,75,0
472.84183,472.98676,52,75,0
472.98676,473.13168,64,75,0
473.12805,473.27298,59,75,0
473.2766,473.42154,52,75,0
473.42154,473.465,59,75,0
473.42154,473.465,57,70,0
473.42154,473.465,54,65,0
473.85632,473.89978,59,49,0
473.85632,473.89978,57,49,0
473.85632,473.89978,52,49,0
474.2911,474.3056,59,49,0
474.2911,474.3056,57,49,0
474.2911,474.3056,51,49,0
474.7259,475.59546,59,49,0
474.7259,475.59546,56,49,0
474.7259,475.59546,52,49,0
475.59546,475.7404,52,75,0
475.73676,475.88168,50,75,0
475.8853,476.03024,49,75,0
476.03024,476.17517,50,75,0
476.17154,476.31647,49,62,0
476.3201,476.46503,47,62,0
476.46503,476.60995,45,49,0
476.60632,476.75125,49,49,0
476.75488,476.8998,52,49,0
476.8998,477.04474,57,49,0
477.0411,477.18604,61,49,0
477.18964,477.33456,64,49,0
477.33456,477.4795,57,36,0
477.4759,477.62082,61,36,0
477.62442,477.76935,64,36,0
477.76935,477.91428,57,36,0
477.91068,478.0556,61,36,0
478.0592,478.20413,64,36,0
478.20413,478.34906,56,36,0
478.34546,478.4904,59,36,0
478.494,478.63892,64,36,0
478.63892,478.78384,56,36,0
478.78024,478.92517,59,36,0
478.92877,479.0737,64,36,0
479.0737,479.21863,59,36,0
479.21503,479.35995,62,36,0
479.36356,479.50848,64,36,0
479.50848,479.6534,59,36,0
479.6498,479.79474,62,36,0
479.79834,479.94327,64,36,0
479.94327,480.0882,57,36,0
480.0846,480.22952,61,36,0
480.23312,480.37805,64,36,0
480.37805,480.52298,57,36,0
480.51938,480.6643,61,36,0
480.6679,480.81284,64,36,0
480.81284,480.95776,55,36,0
480.95416,481.09906,57,36,0
481.1027,481.24762,64,36,0
481.24762,481.39255,55,36,0
481.38892,481.53384,57,36,0
481.53748,481.6824,64,36,0
481.6824,481.82733,54,36,0
481.8237,481.96863,57,36,0
481.97226,482.1172,62,36,0
482.1172,482.26212,54,36,0
482.25848,482.4034,57,36,0
482.40704,482.55197,62,36,0
482.55197,482.6969,50,36,0
482.69327,482.8382,54,36,0
482.84183,482.98676,57,36,0
482.98676,483.13168,50,49,0
483.12805,483.27298,54,49,0
483.2766,483.42154,57,49,0
483.42154,483.56647,49,62,0
483.56284,483.70776,52,62,0
483.7114,483.85632,57,62,0
483.85632,484.00125,47,62,0
483.99762,484.14255,50,62,0
484.14618,484.2911,57,62,0
484.2911,484.43604,49,49,0
484.4324,484.57733,52,49,0
484.58096,484.7259,57,49,0
484.7259,484.87082,45,49,0
484.8672,485.01212,52,49,0
485.01575,485.16068,57,49,0
485.16068,485.3056,52,49,0
485.30197,485.4469,56,49,0
485.45053,485.59546,59,49,0
485.59546,485.7404,64,49,0
485.73676,485.88168,63,49,0
485.8853,486.03024,62,49,0
486.03024,486.17517,61,36,0
486.17154,486.31647,64,36,0
486.3201,486.46503,69,36,0
486.46503,486.60995,61,36,0
486.60632,486.75125,64,36,0
486.75488,486.8998,69,36,0
486.8998,487.04474,59,36,0
487.0411,487.18604,62,36,0
487.18967,487.3346,68,36,0
487.3346,487.47952,59,36,0
487.4759,487.62082,62,36,0
487.62445,487.76938,68,36,0
487.76938,487.9143,59,36,0
487.91068,488.0556,62,36,0
488.05923,488.20416,67,36,0
488.20416,488.3491,59,36,0
488.34546,488.4904,62,36,0
488.49402,488.63895,67,36,0
488.63895,488.78387,58,36,0
488.78024,488.92517,61,36,0
488.9288,489.07373,66,36,0
489.07373,489.21866,58,36,0
489.21503,489.35995,61,36,0
489.3636,489.5085,66,36,0
489.5085,489.65344,54,36,0
489.6498,489.79474,58,36,0
489.79837,489.9433,61,36,0
489.9433,490.08823,54,36,0
490.0846,490.22952,58,36,0
490.23315,490.37808,61,36,0
490.37808,490.523,50,36,0
490.51938,490.6643,54,36,0
490.66794,490.81287,59,36,0
490.81287,490.9578,50,36,0
490.95416,491.0991,54,36,0
491.10272,491.24765,59,36,0
491.24765,491.39255,52,36,0
491.38895,491.53387,61,36,0
491.53748,491.6824,64,36,0
491.6824,491.82733,52,36,0
491.82373,491.96866,61,36,0
491.97226,492.1172,64,36,0
492.1172,492.26212,54,49,0
492.2585,492.40344,62,49,0
492.40704,492.55197,66,49,0
492.55197,492.6969,54,62,0
492.6933,492.83823,64,62,0
492.84183,492.98676,67,62,0
492.98676,493.13168,54,62,0
493.12808,493.273,62,62,0
493.2766,493.42154,66,62,0
493.42154,493.56647,54,49,0
493.56287,493.7078,61,49,0
493.7114,493.85632,64,49,0
493.85632,494.00125,59,36,0
493.99765,494.14258,62,36,0
494.14618,494.2911,66,36,0
494.7259,494.76938,66,75,0
495.16068,495.20416,66,49,0
495.59546,496.46503,66,49,0
496.46503,496.48676,66,75,0
496.68243,496.70416,66,75,0
496.8998,496.92154,68,62,0
497.11722,497.13895,70,49,0
497.3346,497.76938,71,49,0
498.20416,498.2259,59,75,0
498.42154,498.4433,59,75,0
498.63895,498.66068,61,62,0
498.85632,498.87808,63,49,0
499.07373,499.9433,64,49,0
499.9433,499.96503,52,75,0
500.16068,500.18243,52,75,0
500.37808,500.3998,54,62,0
500.59546,500.61722,55,49,0
500.81287,501.24765,54,62,0
501.24765,501.68243,55,75,0
501.68243,502.11722,57,75,0
502.11722,502.16068,57,62,0
502.552,502.9868,50,62,0
503.42157,503.46503,69,36,0
503.42157,503.46503,66,36,0
503.42157,503.46503,62,36,0
503.85635,503.8998,69,36,0
503.85635,503.8998,66,36,0
503.85635,503.8998,62,36,0
504.29114,505.1607,69,62,0
504.29114,505.1607,67,62,0
504.29114,505.1607,62,62,0
505.1607,505.20416,69,36,0
505.1607,505.20416,67,36,0
505.1607,505.20416,62,36,0
505.59546,505.63895,69,36,0
505.59546,505.63895,67,36,0
505.59546,505.63895,62,36,0
506.03024,506.8998,69,36,0
506.03024,506.8998,66,36,0
506.03024,506.8998,62,36,0
506.8998,506.9433,69,36,0
506.8998,506.9433,66,36,0
506.8998,506.9433,62,36,0
507.3346,507.37808,69,36,0
507.3346,507.37808,66,36,0
507.3346,507.37808,62,36,0
507.76938,508.63895,69,75,0
507.76938,508.63895,67,75,0
507.76938,508.63895,62,75,0
508.63895,508.68243,69,36,0
508.63895,508.68243,67,36,0
508.63895,508.68243,62,36,0
509.07373,509.11722,69,36,0
509.07373,509.11722,67,36,0
509.07373,509.11722,62,36,0
509.5085,510.37808,69,75,0
509.5085,510.37808,66,75,0
509.5085,510.37808,62,75,0
510.37808,510.42157,69,36,0
510.37808,510.42157,67,36,0
510.37808,510.42157,62,36,0
510.81287,510.85635,69,36,0
510.81287,510.85635,67,36,0
510.81287,510.85635,62,36,0
511.24765,512.11725,69,75,0
511.24765,512.11725,66,75,0
511.24765,512.11725,62,75,0
512.11725,512.1607,69,36,0
512.11725,512.1607,67,36,0
512.11725,512.1607,62,36,0
512.552,512.59546,69,36,0
512.552,512.59546,67,36,0
512.552,512.59546,62,36,0
512.98676,513.8563,69,36,0
512.98676,513.8563,66,36,0
512.98676,513.8563,62,36,0
513.8563,514.0013,66,36,0
513.9977,514.1426,69,36,0
514.1462,514.29114,74,36,0
514.29114,514.43604,66,36,0
514.43243,514.5774,69,36,0
514.581,514.7259,74,36,0
514.7259,514.87085,64,36,0
514.86725,515.01215,67,36,0
515.01575,515.1607,73,36,0
515.1607,515.3056,64,36,0
515.302,515.44696,67,36,0
515.45056,515.59546,73,36,0
515.59546,515.7404,63,36,0
515.7368,515.8817,67,36,0
515.8853,516.0303,72,36,0
516.0303,516.1752,63,36,0
516.1716,516.3165,67,36,0
516.3201,516.465,72,36,0
516.465,516.61,62,36,0
516.6063,516.7513,66,36,0
516.7549,516.89984,72,36,0
516.89984,517.04474,62,36,0
517.04114,517.18604,66,36,0
517.1897,517.3346,72,36,0
517.3346,517.47955,60,36,0
517.4759,517.62085,62,36,0
517.62445,517.7694,66,36,0
517.7694,517.9143,60,36,0
517.9107,518.0556,62,36,0
518.05927,518.20416,66,36,0
518.20416,518.3491,59,62,0
518.34546,518.4904,62,62,0
518.494,518.639,67,62,0
518.639,518.7839,60,62,0
518.7803,518.9252,64,62,0
518.92883,519.0737,67,62,0
519.0737,519.2187,62,49,0
519.215,519.36,67,49,0
519.3636,519.50854,71,49,0
519.50854,519.65344,62,49,0
519.64984,519.79474,66,49,0
519.7984,519.9433,72,49,0
519.9433,520.08826,67,49,0
520.0846,520.22955,71,49,0
520.23315,520.3781,67,49,0
520.3781,520.523,62,49,0
520.5194,520.6643,67,49,0
520.66797,520.81287,62,49,0
520.81287,520.9578,59,36,0
520.95416,521.0991,62,36,0
521.1027,521.2477,67,36,0
521.2477,521.3926,59,36,0
521.389,521.5339,62,36,0
521.53754,521.68243,67,36,0
521.68243,521.8274,57,36,0
521.8237,521.9687,60,36,0
521.9723,522.11725,66,36,0
522.11725,522.26215,57,36,0
522.25854,522.40344,60,36,0
522.4071,522.552,66,36,0
522.552,522.69696,56,36,0
522.6933,522.83826,60,36,0
522.84186,522.9868,65,36,0
522.9868,523.1317,56,36,0
523.1281,523.273,60,36,0
523.2767,523.4216,65,36,0
523.4216,523.5665,55,36,0
523.56287,523.7078,59,36,0
523.7114,523.8564,65,36,0
523.8564,524.0013,55,36,0
523.9977,524.1426,59,36,0
524.14624,524.29114,65,36,0
524.29114,524.4361,53,36,0
524.43243,524.5774,55,36,0
524.581,524.72595,59,36,0
524.72595,524.87085,53,49,0
524.86725,525.01215,55,49,0
525.0158,525.1607,59,49,0
525.1607,525.30566,52,62,0
525.302,525.44696,55,62,0
525.45056,525.5955,60,62,0
525.5955,525.7404,53,62,0
525.7368,525.8817,57,62,0
525.8854,526.0303,60,62,0
526.0303,526.17523,55,49,0
526.1716,526.3165,60,49,0
526.3201,526.4651,64,49,0
526.4651,526.61,55,49,0
526.6064,526.7513,59,49,0
526.75494,526.89984,65,49,0
526.89984,527.04474,56,36,0
527.04114,527.1861,59,36,0
527.1897,527.3346,64,36,0
527.3346,527.47955,56,36,0
527.47595,527.62085,59,36,0
527.62445,527.7694,64,36,0
527.7694,527.9143,52,36,0
527.9107,528.05566,56,36,0
528.05927,528.20416,59,36,0
528.20416,528.3491,50,36,0
528.3455,528.4904,52,36,0
528.494,528.639,59,36,0
528.639,528.7839,49,36,0
528.7803,528.92523,52,36,0
528.92883,529.0737,57,36,0
529.0737,529.2187,49,36,0
529.2151,529.36,52,36,0
529.3636,529.50854,57,36,0
529.50854,529.65344,55,36,0
529.64984,529.7948,57,36,0
529.7984,529.9433,64,36,0
529.9433,530.08826,55,36,0
530.08466,530.22955,57,36,0
530.23315,530.3781,64,36,0
530.3781,530.523,54,36,0
530.5194,530.6643,57,36,0
530.66797,530.81287,62,36,0
530.81287,530.9578,54,36,0
530.95416,531.0991,57,36,0
531.1027,531.2477,62,36,0
531.2477,531.3926,50,75,0
531.389,531.5339,54,75,0
531.53754,531.68243,57,75,0
531.68243,531.8274,50,75,0
531.8237,531.9687,54,75,0
531.9723,532.11725,57,75,0
532.11725,532.26215,49,88,0
532.25854,532.40344,52,88,0
532.4071,532.552,57,88,0
532.552,532.69696,50,88,0
532.6933,532.83826,54,88,0
532.84186,532.9868,57,88,0
532.9868,533.1317,52,75,0
533.1281,533.273,57,75,0
533.2767,533.4216,61,75,0
533.4216,533.5665,52,75,0
533.56287,533.7078,56,75,0
533.7114,533.8564,62,75,0
533.8564,534.0013,57,75,0
533.9977,534.1426,61,75,0
534.14624,534.29114,64,75,0
534.72595,534.7694,64,101,0
535.1607,535.2042,64,75,0
535.5955,536.4651,64,75,0
536.4651,536.4868,64,101,0
536.68243,536.7042,64,101,0
536.89984,536.9216,66,88,0
537.11725,537.139,68,75,0
537.33466,537.7694,69,75,0
538.2042,538.22595,57,75,0
538.4216,538.44336,57,75,0
538.639,538.6607,59,62,0
538.8564,538.8781,61,49,0
539.0738,539.94336,62,49,0
539.94336,539.9651,50,62,0
540.1607,540.18243,50,62,0
540.3781,540.39984,52,75,0
540.5955,540.61725,53,75,0
540.8129,541.2477,52,75,0
541.2477,541.68243,53,75,0
541.68243,541.72595,55,75,0
542.11725,542.1607,55,75,0
542.552,543.4216,56,114,0
542.552,543.4216,52,109,0
542.552,543.4216,44,104,0
543.4216,543.4651,52,75,0
543.4216,543.4651,44,75,0
543.8564,543.89984,52,75,0
543.8564,543.89984,44,75,0
544.29114,545.1607,53,88,0
544.29114,545.1607,45,88,0
545.1607,545.2042,53,75,0
545.1607,545.2042,45,75,0
545.5955,545.639,53,75,0
545.5955,545.639,45,75,0
546.0303,546.89984,52,88,0
546.0303,546.89984,44,88,0
546.89984,546.94336,52,75,0
546.89984,546.94336,44,75,0
547.33466,547.3781,52,75,0
547.33466,547.3781,44,75,0
547.7694,548.639,53,88,0
547.7694,548.639,45,88,0
548.639,548.6825,53,75,0
548.639,548.6825,45,75,0
549.0738,549.11725,53,75,0
549.0738,549.11725,45,75,0
549.50854,550.3781,52,88,0
549.50854,550.3781,44,88,0
553.8564,554.00134,57,36,0
553.9977,554.14264,60,36,0
554.14624,554.2912,64,36,0
554.2912,554.4361,57,36,0
554.4325,554.5774,60,36,0
554.58105,554.72595,64,36,0
554.72595,554.8709,56,36,0
554.86725,555.0122,59,36,0
555.0158,555.1607,64,36,0
555.1607,555.30566,56,36,0
555.30206,555.44696,59,36,0
555.45056,555.5955,64,36,0
555.5955,555.7404,52,36,0
555.7368,555.8818,59,36,0
555.8854,556.0303,62,36,0
556.0303,556.17523,52,36,0
556.17163,556.3165,59,36,0
556.3201,556.4651,62,36,0
556.4651,556.61,53,36,0
556.6064,556.75134,57,36,0
556.75494,556.89984,60,36,0
556.89984,557.0448,53,36,0
557.0412,557.1861,57,36,0
557.1897,557.33466,60,36,0
557.33466,557.47955,53,36,0
557.47595,557.6209,57,36,0
557.6245,557.7694,60,36,0
557.7694,557.91437,53,36,0
557.91077,558.05566,57,36,0
558.05927,558.2042,60,36,0
558.2042,558.3491,53,36,0
558.3455,558.4905,57,36,0
558.4941,558.639,60,36,0
558.639,558.78394,53,36,0
558.78033,558.92523,57,36,0
558.92883,559.0738,60,36,0
559.0738,559.2187,53,36,0
559.2151,559.36,57,36,0
559.36365,559.50854,60,36,0
559.50854,559.6535,53,36,0
559.64984,559.7948,57,36,0
559.7984,559.94336,60,36,0
559.94336,560.08826,52,36,0
560.08466,560.22955,55,36,0
560.2332,560.3781,60,36,0
560.3781,560.5231,52,36,0
560.5194,560.66437,55,36,0
560.66797,560.8129,60,36,0
560.8129,560.9578,52,36,0
560.9542,561.0991,55,36,0
561.1028,561.2477,60,36,0
561.2477,561.39264,52,36,0
561.389,561.53394,55,36,0
561.53754,561.6825,60,36,0
561.6825,561.8274,52,36,0
561.8238,561.9687,55,36,0
561.97235,562.11725,60,36,0
562.11725,562.2622,52,36,0
562.25854,562.4035,55,36,0
562.4071,562.55206,60,36,0
562.55206,562.69696,52,36,0
562.69336,562.83826,55,36,0
562.8419,562.9868,60,36,0
562.9868,563.1318,52,36,0
563.1281,563.2731,55,36,0
563.2767,563.42163,60,36,0
563.42163,563.5665,53,36,0
563.5629,563.7078,57,36,0
563.7115,563.8564,60,36,0
563.8564,564.00134,53,36,0
563.9977,564.14264,57,36,0
564.14624,564.2912,60,36,0
564.2912,564.4361,53,36,0
564.4325,564.5774,57,36,0
564.58105,564.72595,60,36,0
564.72595,564.8709,53,36,0
564.86725,565.0122,57,36,0
565.0158,565.16077,60,36,0
565.16077,565.30566,53,36,0
565.30206,565.44696,57,36,0
565.4506,565.5955,60,36,0
565.5955,565.7405,53,36,0
565.7368,565.8818,57,36,0
565.8854,566.03033,60,36,0
566.03033,566.17523,53,36,0
566.17163,566.3165,57,36,0
566.3202,566.4651,60,36,0
566.4651,566.61005,53,36,0
566.6064,566.75134,57,36,0
566.75494,566.8999,60,36,0
566.8999,567.0448,52,36,0
567.0412,567.1861,55,36,0
567.18976,567.33466,60,36,0
567.33466,567.4796,52,36,0
567.47595,567.6209,55,36,0
567.6245,567.7695,60,36,0
567.7695,567.91437,52,36,0
567.91077,568.05566,55,36,0
568.0593,568.2042,60,36,0
568.2042,568.3492,52,36,0
568.3455,568.4905,55,36,0
568.4941,568.63904,60,36,0
568.63904,568.78394,52,36,0
568.78033,568.92523,55,36,0
568.9289,569.0738,60,36,0
569.0738,569.21875,52,36,0
569.2151,569.36005,55,36,0
569.36365,569.50854,60,36,0
569.50854,569.6535,52,36,0
569.6499,569.7948,55,36,0
569.7984,569.94336,60,36,0
569.94336,570.08826,52,36,0
570.08466,570.2296,55,36,0
570.2332,570.3781,60,36,0
570.3781,570.5231,53,36,0
570.5195,570.66437,57,36,0
570.66797,570.8129,60,36,0
570.8129,570.9578,53,36,0
570.9542,571.0992,57,36,0
571.1028,571.2477,60,36,0
571.2477,571.39264,52,36,0
571.38904,571.53394,55,36,0
571.53754,571.6825,60,36,0
571.6825,571.8274,52,36,0
571.8238,571.96875,55,36,0
571.97235,572.11725,60,36,0
572.11725,572.2622,53,62,0
572.2586,572.4035,57,62,0
572.4071,572.55206,60,62,0
572.55206,572.69696,53,62,0
572.69336,572.8383,57,62,0
572.8419,572.9868,60,62,0
572.9868,573.1318,52,62,0
573.1282,573.2731,55,62,0
573.2767,573.42163,60,62,0
573.42163,573.5665,52,62,0
573.5629,573.7078,55,62,0
573.7115,573.8564,60,62,0
573.8564,574.00134,53,75,0
573.9977,574.14264,57,75,0
574.14624,574.2912,60,75,0
574.2912,574.4361,53,75,0
574.4325,574.5774,57,75,0
574.58105,574.72595,60,75,0
574.72595,574.8709,52,75,0
574.86725,575.0122,55,75,0
575.0158,575.16077,60,75,0
575.16077,575.30566,52,88,0
575.30206,575.44696,55,88,0
575.4506,575.5955,59,88,0
575.5955,575.7405,52,88,0
575.7368,575.8818,55,88,0
575.8854,576.03033,58,88,0
576.03033,576.17523,52,88,0
576.17163,576.3165,55,88,0
576.3202,576.4651,57,88,0
576.4651,576.61005,53,88,0
576.6064,576.75134,57,88,0
576.75494,576.8999,62,88,0
576.8999,577.0448,54,88,0
577.0412,577.1861,57,88,0
577.18976,577.33466,60,88,0
577.33466,578.2042,61,101,0
577.33466,578.2042,57,101,0
577.33466,578.2042,52,101,0
578.2042,578.3492,64,75,0
578.3455,578.4905,61,75,0
578.4941,578.63904,57,75,0
578.63904,578.78394,52,62,0
578.78033,578.92523,49,62,0
578.9289,579.0738,45,62,0
579.0738,579.2912,40,62,0
579.5086,580.3782,61,101,0
579.5086,580.3782,57,101,0
579.5086,580.3782,52,101,0
580.3782,580.8129,59,101,0
580.3782,580.8129,56,101,0
580.3782,580.8129,52,101,0
580.8129,581.24774,57,49,0
580.8129,581.24774,52,49,0
580.8129,581.24774,45,49,0
581.6825,581.72595,64,49,0
581.6825,581.72595,61,49,0
581.6825,581.72595,57,49,0
582.1173,582.16077,64,49,0
582.1173,582.16077,61,49,0
582.1173,582.16077,57,49,0
582.55206,583.42163,64,62,0
582.55206,583.42163,62,62,0
582.55206,583.42163,57,62,0
583.42163,583.4651,64,49,0
583.42163,583.4651,62,49,0
583.42163,583.4651,57,49,0
583.8564,583.8709,64,49,0
583.8564,583.8709,62,49,0
583.8564,583.8709,57,49,0
584.2912,585.16077,64,62,0
584.2912,585.16077,61,62,0
584.2912,585.16077,57,62,0
585.16077,585.17523,64,49,0
585.16077,585.17523,61,49,0
585.16077,585.17523,57,49,0
585.5955,585.61005,64,49,0
585.5955,585.61005,61,49,0
585.5955,585.61005,57,49,0
586.03033,586.8999,64,62,0
586.03033,586.8999,62,62,0
586.03033,586.8999,57,62,0
586.8999,586.94336,64,49,0
586.8999,586.94336,62,49,0
586.8999,586.94336,57,49,0
587.33466,587.3492,64,49,0
587.33466,587.3492,62,49,0
587.33466,587.3492,57,49,0
587.7695,588.63904,64,49,0
587.7695,588.63904,61,49,0
587.7695,588.63904,57,49,0
588.63904,588.6825,64,49,0
588.63904,588.6825,62,49,0
588.63904,588.6825,57,49,0
589.0738,589.0883,64,49,0
589.0738,589.0883,62,49,0
589.0738,589.0883,57,49,0
589.5086,590.3782,64,49,0
589.5086,590.3782,61,49,0
589.5086,590.3782,57,49,0
590.3782,590.42163,64,49,0
590.3782,590.42163,62,49,0
590.3782,590.42163,57,49,0
590.8129,590.82745,64,49,0
590.8129,590.82745,62,49,0
590.8129,590.82745,57,49,0
591.24774,592.1173,64,49,0
591.24774,592.1173,61,49,0
591.24774,592.1173,57,49,0
592.1173,592.2622,52,75,0
592.2586,592.4035,56,75,0
592.40717,592.55206,59,75,0
592.55206,592.697,64,75,0
592.69336,592.8383,68,75,0
592.8419,592.9869,71,75,0
592.9869,593.1318,69,75,0
593.1282,593.2746,64,75,0
593.2783,593.42645,61,75,0
593.42645,593.578,64,75,0
593.5742,593.72736,61,75,0
593.73126,593.8863,57,75,0
593.8863,594.0463,52,62,0
594.0423,594.20416,56,62,0
594.20825,594.3722,59,62,0
594.3722,594.5403,64,62,0
594.5361,594.7062,68,62,0
594.7105,594.88293,71,62,0
594.88293,595.0615,69,49,0
595.057,595.2356,64,49,0
595.24005,595.41864,61,49,0
595.41864,595.5972,64,49,0
595.5928,595.7713,61,49,0
595.77576,595.95435,57,49,0
595.95435,596.13293,52,49,0
596.1285,596.307,56,49,0
596.3115,596.49005,59,49,0
596.49005,596.66864,64,49,0
596.6642,596.8428,68,49,0
596.8472,597.02576,71,49,0
599.16864,599.38605,45,36,0
599.38605,599.6034,52,36,0
599.6034,599.8208,57,36,0
599.8208,600.0382,52,36,0
600.0382,600.2556,49,36,0
600.2556,600.47296,52,36,0
600.47296,600.69037,57,36,0
600.69037,600.9078,52,36,0
600.9078,601.1252,47,36,0
601.1252,601.3425,52,36,0
601.3425,601.55994,56,36,0
601.55994,601.77734,52,36,0
601.77734,601.99475,49,36,0
601.99475,602.2121,52,36,0
602.2121,602.4295,57,36,0
602.4295,602.6469,52,36,0
602.6469,602.8643,50,36,0
602.8643,603.0865,54,36,0
603.0865,603.3138,59,36,0
603.3138,603.5463,54,36,0
603.5463,603.7863,51,36,0
603.7863,604.0322,54,36,0
604.0322,604.28436,57,36,0
604.28436,604.54297,54,36,0
604.54297,604.81085,40,36,0
604.81085,605.0787,52,36,0
605.0787,605.34656,57,36,0
605.34656,605.6144,61,36,0
605.6144,605.88226,59,36,0
605.88226,606.1501,62,36,0
606.1501,606.41797,61,36,0
606.41797,606.68585,59,36,0
608.8287,609.0461,57,36,0
609.0461,609.2635,64,36,0
609.2635,609.48083,69,36,0
609.48083,609.69824,64,36,0
609.69824,609.91565,60,36,0
609.91565,610.13306,64,36,0
610.13306,610.3504,69,36,0
610.3504,610.5678,64,36,0
610.5678,610.7852,59,36,0
610.7852,611.00745,64,36,0
611.00745,611.2347,68,36,0
611.2347,611.4673,64,36,0
611.4673,611.7073,60,36,0
611.7073,611.9532,64,36,0
611.9532,612.20526,69,36,0
612.20526,612.46387,64,36,0
612.46387,612.73175,62,36,0
612.73175,612.9996,65,36,0
612.9996,613.26746,69,36,0
613.26746,613.5353,70,36,0
613.5353,613.58887,69,36,0
613.5353,613.58887,60,36,0
614.07104,614.1246,67,36,0
614.07104,614.1246,60,36,0
616.7496,616.967,45,36,0
616.967,617.1844,48,36,0
617.1844,617.4018,53,36,0
617.4018,617.61914,48,36,0
617.61914,617.83655,42,36,0
617.83655,618.05396,50,36,0
618.05396,618.2713,57,36,0
618.2713,618.4887,50,36,0
618.4887,618.7061,43,36,0
618.7061,618.9235,50,36,0
618.9235,619.14087,55,36,0
619.14087,619.3583,50,36,0
619.3583,619.5757,43,36,0
619.5757,619.7931,50,36,0
619.7931,620.01044,55,36,0
620.01044,620.22784,50,36,0
620.22784,620.44525,38,36,0
620.44525,620.66266,50,36,0
620.66266,620.88,53,36,0
620.88,621.0974,50,36,0
621.0974,621.3148,40,36,0
621.3148,621.5322,48,36,0
621.5322,621.7496,55,36,0
621.7496,621.967,48,36,0
621.967,622.1844,45,36,0
622.1844,622.4018,48,36,0
622.4018,622.61914,53,36,0
622.61914,622.83655,48,36,0
622.83655,623.05396,41,36,0
623.05396,623.27136,48,36,0
623.27136,623.4887,53,36,0
623.4887,623.7061,48,36,0
625.6022,625.87006,53,36,0
625.87006,626.1379,60,36,0
626.1379,626.40576,65,36,0
626.40576,626.6736,60,36,0
626.6736,626.94147,53,36,0
626.94147,627.20935,60,36,0
627.20935,627.4772,65,36,0
627.4772,627.74506,60,36,0
629.8879,630.1053,49,36,0
630.1053,630.3227,52,36,0
630.3227,630.5401,57,36,0
630.5401,630.75745,52,36,0
630.75745,630.97485,45,36,0
630.97485,631.19226,52,36,0
631.19226,631.40967,61,36,0
631.40967,631.627,52,36,0
631.627,631.8444,50,36,0
631.8444,632.0618,54,36,0
632.0618,632.2792,59,36,0
632.2792,632.4966,54,36,0
632.4966,632.714,52,36,0
632.714,632.9314,56,36,0
632.9314,633.14874,59,36,0
633.14874,633.36615,56,36,0
633.36615,633.58356,45,36,0
633.58356,633.8058,52,36,0
633.8058,634.033,61,36,0
634.033,634.2656,52,36,0
634.2656,634.5056,49,75,0
634.5056,634.7515,52,36,0
634.7515,635.0036,57,36,0
635.0036,635.2622,52,36,0
635.2622,635.5301,50,36,0
635.5301,635.7979,54,36,0
635.7979,636.0658,59,36,0
636.0658,636.3337,54,36,0
636.3337,636.6015,52,36,0
636.6015,636.8694,56,36,0
636.8694,637.1372,59,36,0
637.1372,637.4051,56,36,0
640.0837,640.117,57,75,0
640.417,640.4503,57,49,0
640.7503,641.0837,57,49,0
641.0837,641.3337,61,75,0
641.3337,641.417,59,49,0
641.417,641.4281,55,49,0
641.7503,641.7836,55,49,0
642.0837,642.417,55,49,0
642.417,642.667,59,75,0
642.667,642.7503,57,49,0
642.7503,643.0837,54,49,0
643.0837,643.3337,59,75,0
643.3337,643.417,57,49,0
643.417,643.7503,55,62,0
643.7503,644.0003,59,88,0
644.0003,644.0837,57,62,0
644.0837,644.417,54,75,0
644.417,644.667,59,101,0
644.667,644.7503,57,75,0
644.7503,645.0837,55,75,0
645.0837,645.3337,59,101,0
645.3337,645.417,57,75,0
645.417,645.4503,41,88,0
645.417,645.4503,29,88,0
645.7503,645.7836,41,88,0
645.7503,645.7836,29,88,0
646.0836,646.117,41,101,0
646.0836,646.117,29,101,0
646.417,646.667,46,101,0
646.417,646.667,34,101,0
646.667,646.7503,45,101,0
646.667,646.7503,33,101,0
646.7503,647.7503,46,101,0
646.7503,647.7503,34,101,0
648.0836,648.117,41,88,0
648.0836,648.117,29,88,0
648.417,648.4503,41,88,0
648.417,648.4503,29,88,0
648.7503,648.7836,41,101,0
648.7503,648.7836,29,101,0
649.0836,649.3336,46,101,0
649.0836,649.3336,34,101,0
649.3336,649.417,45,101,0
649.3336,649.417,33,101,0
649.417,650.417,46,101,0
649.417,650.417,34,101,0
650.417,650.4503,47,101,0
650.417,650.4503,35,101,0
650.7503,650.7836,48,88,0
650.7503,650.7836,36,88,0
651.0836,651.117,48,88,0
651.0836,651.117,36,88,0
651.417,651.7503,48,101,0
651.417,651.7503,36,101,0
651.7503,652.0003,53,101,0
651.7503,652.0003,41,101,0
652.0003,652.0836,52,101,0
652.0003,652.0836,40,101,0
652.0836,653.0836,53,114,0
652.0836,653.0836,41,114,0
652.0836,653.0836,45,114,0
652.0836,653.0836,48,114,0
653.417,653.4503,48,88,0
653.417,653.4503,36,88,0
653.7503,653.7836,48,88,0
653.7503,653.7836,36,88,0
654.0836,654.417,48,101,0
654.0836,654.417,36,101,0
654.417,654.667,53,101,0
654.417,654.667,41,101,0
654.667,654.7503,52,101,0
654.667,654.7503,40,101,0
654.7503,655.7503,53,114,0
654.7503,655.7503,41,114,0
654.7503,655.7503,45,114,0
654.7503,655.7503,48,114,0
655.7503,656.0003,56,101,0
655.7503,656.0003,44,101,0
656.0003,656.0836,55,101,0
656.0003,656.0836,43,101,0
656.0836,657.0836,56,114,0
656.0836,657.0836,44,114,0
657.0836,657.3336,64,114,0
657.0836,657.3336,61,114,0
657.0836,657.3336,56,114,0
657.3336,657.417,63,114,0
657.3336,657.417,61,114,0
657.3336,657.417,56,114,0
657.417,658.417,64,114,0
657.417,658.417,61,114,0
657.417,658.417,56,114,0
658.417,658.667,64,114,0
658.417,658.667,59,114,0
658.417,658.667,56,114,0
658.667,658.7503,65,114,0
658.667,658.7503,59,114,0
658.667,658.7503,56,114,0
658.7503,659.7503,64,114,0
658.7503,659.7503,59,114,0
658.7503,659.7503,56,114,0
659.7503,660.0003,63,114,0
659.7503,660.0003,59,114,0
659.7503,660.0003,56,114,0
660.0003,660.0836,64,114,0
660.0003,660.0836,59,114,0
660.0003,660.0836,56,114,0
660.0836,660.417,63,114,0
660.0836,660.417,59,114,0
660.0836,660.417,56,114,0
660.417,660.667,62,114,0
660.417,660.667,59,114,0
660.417,660.667,56,114,0
660.667,660.7503,64,114,0
660.667,660.7503,59,114,0
660.667,660.7503,56,114,0
660.7503,661.0836,62,114,0
660.7503,661.0836,59,114,0
660.7503,661.0836,56,114,0
661.0836,661.0947,62,114,0
661.0836,661.0947,59,114,0
661.0836,661.0947,53,114,0
661.417,661.4503,61,101,0
661.417,661.4503,57,101,0
661.417,661.4503,54,101,0
662.0836,662.11694,62,101,0
662.0836,662.11694,50,101,0
662.0836,662.11694,54,101,0
662.0836,662.11694,57,101,0
662.7503,662.7836,61,101,0
662.7503,662.7836,57,101,0
662.7503,662.7836,52,101,0
663.417,663.4503,64,101,0
663.417,663.4503,52,101,0
663.417,663.4503,56,101,0
663.417,663.4503,59,101,0
665.417,665.63434,45,36,0
665.63434,665.85175,52,36,0
665.85175,666.06915,57,36,0
666.06915,666.2865,52,36,0
666.2865,666.5039,45,36,0
666.5039,666.7213,52,36,0
666.7213,666.9387,57,36,0
666.9387,667.15607,52,36,0
667.15607,667.3735,45,36,0
667.3735,667.5909,54,36,0
667.5909,667.8083,59,36,0
667.8083,668.02563,54,36,0
668.02563,668.24304,45,36,0
668.24304,668.46045,52,36,0
668.46045,668.67786,59,36,0
668.67786,668.8952,52,36,0
668.8952,669.1126,45,36,0
669.1126,669.33,52,36,0
669.33,669.5474,57,36,0
669.5474,669.7648,52,36,0
669.7648,669.9822,45,36,0
669.9822,670.1996,52,36,0
670.1996,670.417,57,36,0
670.417,670.63434,52,36,0
670.63434,670.85175,45,36,0
670.85175,671.06915,53,36,0
671.06915,671.28656,59,36,0
671.28656,671.5039,53,36,0
671.5039,671.7213,45,36,0
671.7213,671.9387,52,36,0
671.9387,672.1561,59,36,0
672.1561,672.3735,52,36,0
672.3735,672.5909,45,36,0
672.5909,672.8083,52,36,0
672.8083,673.02563,57,36,0
673.02563,673.24304,52,36,0
673.24304,673.46045,45,36,0
673.46045,673.67786,52,36,0
673.67786,673.8952,56,36,0
673.8952,674.1126,52,36,0
674.1126,674.33,45,36,0
674.33,674.55225,52,36,0
674.55225,674.7795,57,36,0
674.7795,675.0121,52,36,0
675.0121,675.2521,45,36,0
675.2521,675.498,52,36,0
675.498,675.75006,56,36,0
675.75006,676.00867,52,36,0
676.00867,676.27655,45,36,0
676.27655,676.5444,52,36,0
676.5444,676.81226,57,36,0
676.81226,677.08014,52,36,0
677.08014,677.34796,45,36,0
677.34796,677.61584,53,36,0
677.61584,677.88367,56,36,0
677.88367,678.15155,53,36,0
678.15155,678.68726,57,36,0
678.15155,678.68726,52,36,0
678.15155,678.68726,45,36,0
679.22296,679.3341,33,88,0
679.3313,679.44244,37,88,0
679.4452,679.55634,40,88,0
679.55634,679.6674,45,88,0
679.6646,679.77576,49,88,0
679.7785,679.88965,52,88,0
679.88965,680.00073,57,88,0
679.998,680.1091,61,88,0
680.1119,680.22296,64,88,0
680.22296,680.3341,69,88,0
680.3313,680.44244,73,88,0
680.4452,680.55634,76,88,0
680.55634,680.58966,81,114,0
681.22296,681.2563,66,101,0
681.22296,681.2563,62,101,0
681.22296,681.2563,57,101,0
681.88965,682.5563,45,101,0
681.88965,682.5563,33,101,0
682.5563,682.58966,67,101,0
682.5563,682.58966,64,101,0
682.5563,682.58966,57,101,0
683.22296,683.88965,45,101,0
683.22296,683.88965,33,101,0
683.88965,683.923,66,101,0
683.88965,683.923,62,101,0
683.88965,683.923,57,101,0
684.57367,685.31244,45,101,0
684.57367,685.31244,33,101,0
685.31244,685.3514,64,127,0
685.31244,685.3514,61,122,0
685.31244,685.3514,57,117,0
685.702,685.74097,45,127,0
686.0916,686.1306,62,127,0
686.0916,686.1306,59,122,0
686.0916,686.1306,57,117,0
686.48126,686.5202,45,127,0
686.87085,686.90985,64,127,0
686.87085,686.90985,61,122,0
686.87085,686.90985,57,117,0
687.6501,689.98773,45,127,0
687.6501,689.98773,33,119,0
0.0,0.869566,45,36,0
0.869566,1.739132,49,36,0
1.739132,2.608698,47,36,0
2.608698,3.478264,49,36,0
3.478264,4.34783,50,36,0
4.34783,5.217396,51,36,0
6.956528,7.826094,45,36,0
7.826094,8.69566,49,36,0
8.69566,9.565226,47,36,0
9.565226,10.434792,49,36,0
10.434792,10.869575,50,36,0
10.869575,11.0869665,49,36,0
11.0869665,11.304358,47,36,0
11.304358,11.739141,49,36,0
11.739141,12.173924,52,36,0
12.173924,13.260881,45,36,0
13.913056,14.782622,49,36,0
14.782622,15.652188,46,36,0
15.652188,16.521753,47,36,0
16.521753,17.39132,47,36,0
19.130451,20.000017,49,36,0
20.000017,20.869583,45,36,0
20.869583,21.73915,50,36,0
21.73915,22.608715,52,36,0
22.608715,23.478283,45,36,0
23.478283,24.347849,49,36,0
24.347849,25.217415,50,36,0
25.217415,26.08698,52,36,0
26.08698,26.739155,45,36,0
27.826113,28.695679,49,36,0
28.695679,29.565245,46,36,0
29.565245,30.43481,47,36,0
30.43481,31.304377,47,36,0
33.043507,33.913074,49,36,0
33.913074,34.78264,45,36,0
34.78264,35.652206,50,36,0
35.652206,36.52177,52,36,0
36.52177,37.39134,45,36,0
37.39134,38.260902,49,36,0
38.260902,39.13047,50,36,0
39.13047,40.000034,52,36,0
40.000034,41.086994,45,36,0
41.086994,41.304386,50,36,0
41.304386,41.52178,49,36,0
41.52178,41.739166,47,36,0
41.739166,42.608734,45,36,0
42.608734,43.4783,49,36,0
43.4783,44.347866,47,36,0
44.347866,45.21743,49,36,0
45.21743,46.086998,50,36,0
46.086998,46.956566,51,36,0
46.956566,48.04352,52,36,0
48.695698,49.56526,45,36,0
49.56526,50.43483,49,36,0
50.43483,51.304394,47,36,0
51.304394,52.17396,49,36,0
55.652225,56.52179,61,36,0
56.52179,57.391357,58,36,0
57.391357,58.04353,59,36,0
59.34788,59.369617,54,36,0
59.56527,59.58701,56,36,0
59.78266,59.8044,57,36,0
60.000053,60.86962,56,36,0
60.86962,62.608753,57,36,0
62.608753,63.478317,50,36,0
63.478317,64.347885,52,36,0
64.347885,65.21745,57,36,0
66.95658,67.82615,52,36,0
67.82615,68.69572,45,36,0
69.56528,70.434845,61,36,0
70.434845,71.30441,58,36,0
71.30441,71.95659,59,36,0
73.26093,73.28268,54,36,0
73.478325,73.50007,56,36,0
73.69572,73.71746,57,36,0
73.91311,74.78268,56,36,0
74.78268,76.521805,57,36,0
76.521805,77.39137,50,36,0
77.39137,78.26094,52,36,0
78.26094,79.13051,57,36,0
80.86964,81.739204,52,36,0
81.739204,83.47833,53,36,0
83.47833,84.3479,54,36,0
84.3479,85.21747,54,36,0
91.30443,92.173996,59,36,0
259.6913,260.56088,61,36,0
260.56088,261.43045,58,36,0
261.43045,262.08264,59,36,0
263.387,263.40872,54,36,0
263.60437,263.6261,56,36,0
263.82178,263.8435,57,36,0
264.03915,264.90872,56,36,0
264.90872,266.64786,57,36,0
266.64786,267.51743,50,36,0
267.51743,268.387,52,36,0
268.387,269.25656,57,36,0
270.9957,271.86526,52,36,0
271.86526,272.9522,45,36,0
273.60437,274.47394,45,62,0
274.47394,275.3435,48,62,0
275.3435,276.21307,47,62,0
276.21307,277.08264,48,62,0
277.08264,277.9522,50,62,0
277.9522,278.82178,51,62,0
278.82178,279.90872,52,62,0
422.5519,422.9867,62,36,0
422.9867,423.2041,64,36,0
423.2041,423.42148,66,36,0
423.42148,423.85626,64,36,0
423.85626,424.29105,64,36,0
424.29105,425.37802,57,36,0
439.94324,440.8128,61,36,0
440.8128,441.68237,58,36,0
441.68237,442.33453,59,36,0
443.6389,443.66064,54,36,0
443.8563,443.87802,56,36,0
444.07367,444.09543,57,36,0
444.29108,445.16064,56,36,0
445.16064,446.89978,57,36,0
446.89978,447.76935,50,36,0
447.76935,448.63892,52,36,0
448.63892,449.50845,57,36,0
451.2476,452.11716,52,36,0
452.11716,453.8563,53,75,0
453.8563,454.72586,54,88,0
454.72586,455.59543,54,88,0
461.6824,462.55197,64,75,0
599.16864,600.0382,45,36,0
600.0382,600.9078,49,36,0
600.9078,601.77734,47,36,0
601.77734,602.6469,49,36,0
602.6469,603.5463,50,36,0
603.5463,604.54297,51,36,0
608.8287,609.69824,57,36,0
609.69824,610.5678,60,36,0
610.5678,611.4673,59,36,0
611.4673,612.46387,60,36,0
612.46387,612.9996,62,36,0
612.9996,613.26746,65,36,0
612.9996,613.26746,60,36,0
613.26746,613.5353,65,36,0
613.26746,613.5353,58,36,0
616.7496,617.61914,45,36,0
617.61914,618.4887,42,36,0
618.4887,619.3583,43,36,0
619.3583,620.22784,43,36,0
621.967,622.83655,45,36,0
622.83655,623.7061,41,36,0
625.6022,626.6736,53,36,0
626.6736,627.74506,53,36,0
629.8879,630.75745,49,36,0
630.75745,631.627,45,36,0
631.627,632.4966,50,36,0
632.4966,633.36615,52,36,0
633.36615,634.2656,45,36,0
634.2656,635.2622,49,36,0
635.2622,636.3337,50,36,0
636.3337,637.4051,52,36,0
665.417,666.2865,45,36,0
666.2865,667.15607,45,36,0
667.15607,668.02563,45,36,0
668.02563,668.8952,45,36,0
668.8952,669.7648,45,36,0
669.7648,670.63434,45,36,0
670.63434,671.5039,45,36,0
671.5039,672.3735,45,36,0
672.3735,673.24304,45,36,0
673.24304,674.1126,45,36,0
674.1126,675.0121,45,36,0
675.0121,676.00867,45,36,0
676.00867,677.08014,45,36,0
677.08014,678.15155,45,36,0
