start_time,end_time,note_value,velocity,instrument_program_number
0.666666,0.9444435,77,63,40
0.999999,1.1631932,79,45,40
1.1666656,1.3298597,81,45,40
1.333332,1.6111095,82,63,40
1.666665,1.8298593,82,48,40
1.8333315,1.9965258,82,50,40
1.999998,2.0555534,81,52,40
2.333331,2.3888865,82,56,40
2.666664,2.999997,83,84,40
2.999997,3.1631913,84,45,40
3.33333,3.5798576,82,45,40
3.5833297,3.6631908,82,56,40
3.666663,3.9131906,84,59,40
3.9166627,3.9965239,84,71,40
3.999996,4.333329,87,105,40
4.333329,4.4965234,86,75,40
4.666662,4.7222176,87,84,40
4.8333287,4.888884,89,60,40
4.999995,5.0555506,91,55,40
5.1666613,5.222217,87,50,40
5.333328,5.916661,84,45,40
5.999994,6.2777715,77,63,40
6.333327,6.4965215,79,47,40
6.4999933,6.663188,81,48,40
6.66666,6.9444375,82,68,40
6.999993,7.1631875,82,51,40
7.1666594,7.329854,82,52,40
7.333326,7.3888817,81,53,40
7.666659,7.7222147,82,56,40
7.999992,8.333325,86,84,40
8.333325,8.496519,84,45,40
8.666658,8.913185,74,45,40
8.916657,8.996519,74,56,40
8.999991,9.246518,75,59,40
9.24999,9.329852,75,71,40
9.333324,9.666657,79,105,40
9.666657,9.829851,77,75,40
9.99999,10.333323,82,63,40
10.333323,10.496517,76,45,40
10.666656,10.999989,77,45,40
10.999989,11.163183,65,45,40
12.666654,12.72221,72,45,40
12.833321,12.888876,74,45,40
12.999987,13.055543,75,45,40
13.166654,13.222209,72,45,40
13.33332,13.916653,77,63,40
15.333318,15.579845,77,60,40
15.583318,15.663178,77,60,40
15.666651,15.913178,76,60,40
15.916651,15.996511,76,60,40
15.999984,16.246511,77,60,40
16.249983,16.329845,77,72,40
16.333317,16.579845,82,76,40
16.583317,16.663177,82,88,40
16.66665,16.918781,84,92,40
16.92233,17.004007,84,92,40
17.007559,17.25969,84,89,40
17.26324,17.344917,86,78,40
17.348469,17.406607,82,75,40
17.522886,17.697306,77,68,40
17.697306,17.875875,74,61,40
17.875875,18.050726,70,53,40
18.054447,18.221113,69,45,40
18.221113,18.38778,72,45,40
18.38778,18.554447,69,45,40
18.554447,18.71764,65,45,40
18.721113,18.88778,60,45,40
18.88778,19.054445,62,45,40
19.054445,19.221113,64,45,40
19.221113,19.384306,65,45,40
19.38778,19.554445,63,45,40
19.554445,19.721111,67,45,40
19.721111,19.88778,65,45,40
19.721111,19.88778,71,45,40
19.88778,20.050972,67,45,40
20.054445,20.221111,63,45,40
20.054445,20.221111,72,45,40
20.221111,20.387777,67,45,40
20.387777,20.554445,63,45,40
20.554445,20.717638,60,45,40
20.721111,20.887777,62,45,40
20.887777,21.054443,70,52,40
21.054443,21.221111,69,59,40
21.221111,21.384304,63,67,40
21.387777,21.554443,62,75,40
21.554443,21.72111,70,75,40
21.72111,21.887777,65,70,40
21.887777,22.05097,62,65,40
22.054443,22.22111,58,60,40
22.22111,22.387775,67,60,40
22.387775,22.554443,64,60,40
22.554443,22.717636,58,60,40
22.72111,22.887775,57,60,40
22.887775,23.054441,60,60,40
23.054441,23.22111,65,60,40
23.22111,23.384302,67,60,40
23.387775,23.554441,68,60,40
23.554441,23.721107,72,60,40
23.721107,23.887775,68,60,40
23.887775,24.050968,65,60,40
24.054441,24.221107,60,60,40
24.221107,24.387774,62,60,40
24.387774,24.554441,64,60,40
24.554441,24.717634,65,60,40
24.721107,24.887774,63,60,40
24.887774,25.05444,67,58,40
25.05444,25.221106,65,56,40
25.05444,25.221106,71,56,40
25.221106,25.3843,67,54,40
25.387774,25.55444,63,51,40
25.387774,25.55444,72,51,40
25.55444,25.721106,67,48,40
25.721106,25.887772,63,45,40
25.887772,26.050966,60,45,40
26.05444,26.221106,62,45,40
26.221106,26.387772,70,52,40
26.387772,26.554438,69,59,40
26.554438,26.717632,63,67,40
26.721106,26.887772,62,75,40
26.887772,27.054438,70,75,40
27.054438,27.221104,65,65,40
27.221104,27.384298,62,55,40
27.387772,27.554438,61,63,40
27.554438,27.721104,64,45,40
27.721104,27.88777,70,45,40
27.88777,28.050964,61,45,40
28.054438,28.221104,62,45,40
28.221104,28.38777,65,45,40
28.38777,28.554436,70,45,40
28.554436,28.71763,62,45,40
28.721104,29.054436,82,63,40
29.054436,29.21763,76,45,40
29.38777,29.721102,77,63,40
29.721102,29.884296,65,45,40
30.054436,30.221102,57,45,40
30.221102,30.387768,65,46,40
30.387768,30.554434,60,47,40
30.554434,30.717628,57,49,40
30.721102,30.887768,58,51,40
30.887768,31.054434,65,53,40
31.054434,31.2211,62,55,40
31.2211,31.384295,58,57,40
31.387768,31.443323,72,59,40
31.554434,31.60999,74,61,40
31.7211,31.776655,75,63,40
31.887766,31.943321,72,65,40
32.054432,32.387768,76,93,40
32.387768,32.55096,77,71,40
32.7211,32.776653,58,75,40
32.887764,32.94332,70,75,40
33.054432,33.10999,58,75,40
33.2211,33.276653,70,75,40
33.387764,33.444584,58,75,40
33.55822,33.615036,70,77,40
33.728676,33.785492,62,79,40
33.899128,33.955948,70,81,40
34.069584,34.127724,67,83,40
34.244003,34.30214,70,85,40
34.41842,34.47656,69,87,40
34.59284,34.650978,63,89,40
34.767258,35.37772,62,92,40
34.767258,35.37772,70,92,40
35.46493,36.075397,74,92,40
36.162605,36.25084,62,92,40
36.515545,36.57437,66,92,40
36.57437,36.633194,67,88,40
36.633194,36.692017,66,84,40
36.692017,36.75084,67,80,40
36.75084,36.80966,64,75,40
36.80966,36.86481,66,75,40
36.86849,37.486134,67,92,40
37.574368,37.657703,70,45,40
37.824368,37.879925,70,45,40
37.907703,37.991035,70,45,40
38.157703,38.213257,72,45,40
38.241035,38.491035,74,45,40
38.491035,38.570896,79,45,40
38.574368,38.6577,74,45,40
38.824368,38.879925,74,45,40
38.9077,38.991035,74,45,40
39.1577,39.213257,74,45,40
39.241035,39.324368,73,45,40
39.491035,39.54659,72,45,40
39.574368,39.6577,70,45,40
39.824368,39.87992,69,45,40
39.9077,39.99103,67,45,40
40.1577,40.213257,65,45,40
40.24103,40.324368,64,45,40
40.49103,40.54659,72,45,40
40.574368,40.6577,72,45,40
40.824368,40.87992,72,45,40
40.9077,40.99103,72,45,40
41.1577,41.213253,74,45,40
41.24103,41.324364,76,45,40
41.49103,41.54659,77,45,40
41.574364,41.65959,79,45,40
41.830048,41.886864,79,45,40
41.915276,42.0005,79,45,40
42.170956,42.227776,81,45,40
42.256184,42.514175,77,45,40
42.51781,42.601387,65,62,40
42.60502,42.69223,67,68,40
42.86665,42.924786,69,86,40
42.953857,43.578854,70,92,40
43.66814,44.29314,74,92,40
44.382423,44.680042,62,92,40
44.739567,44.79909,66,92,40
44.79909,44.858616,67,84,40
44.858616,44.918137,66,76,40
44.918137,44.97766,67,68,40
44.97766,45.037186,64,60,40
45.037186,45.092987,66,60,40
45.09671,45.721706,67,92,40
46.163933,46.25217,62,45,40
46.163933,46.25217,70,45,40
46.869816,46.95805,62,45,40
46.869816,46.95805,74,45,40
47.222755,47.310993,66,45,40
47.5757,47.663933,62,45,40
47.5757,47.663933,69,45,40
48.28158,48.369816,62,45,40
48.28158,48.369816,70,45,40
48.63452,48.722755,67,45,40
48.98746,49.0757,60,45,40
48.98746,49.0757,67,45,40
49.340405,49.42864,60,45,40
49.340405,49.42864,69,45,40
49.693344,49.781578,69,45,40
49.693344,49.781578,77,45,40
50.046284,50.13452,67,45,40
50.046284,50.13452,77,45,40
50.399227,50.48746,67,45,40
50.399227,50.48746,76,45,40
50.752167,50.87265,65,45,40
50.87265,50.99313,69,50,40
50.99313,51.113613,72,55,40
51.113613,51.230328,77,60,40
51.234093,51.31316,79,65,40
51.354576,51.43364,81,70,40
51.475056,52.131306,83,105,40
52.225056,52.881306,86,105,40
52.975056,53.068806,74,75,40
53.350056,53.443806,77,75,40
53.725056,54.381306,79,105,40
54.475056,55.131306,83,105,40
55.225056,55.881306,86,105,40
55.975056,56.068806,74,75,40
56.350056,56.443806,77,75,40
56.725056,57.381306,79,105,40
57.475056,58.131306,83,105,40
58.225056,58.881306,86,105,40
58.975056,59.068806,74,75,40
59.350056,59.443806,77,75,40
59.725056,60.475056,80,60,40
60.475056,61.225056,80,45,40
61.225056,61.975056,84,45,40
61.975056,62.350056,79,45,40
62.350056,62.725056,82,45,40
62.725056,63.287556,80,63,40
63.287556,63.47115,77,45,40
63.475056,64.22506,75,45,40
64.22506,64.97506,79,45,40
64.97506,65.35006,73,45,40
65.35006,65.72506,77,45,40
65.72506,66.28756,75,63,40
66.28756,66.47115,72,45,40
66.47506,67.22506,68,45,40
67.22506,67.97506,75,63,40
67.97506,68.72506,72,45,40
68.72506,69.38131,77,63,40
69.47506,69.85006,75,45,40
69.85006,70.22506,80,52,40
70.22506,70.60006,82,59,40
70.60006,70.97506,84,67,40
70.97506,71.35006,82,75,40
71.35006,71.72506,80,60,40
71.72506,72.10006,72,60,40
72.10006,72.41256,75,60,40
72.47506,73.22506,68,45,40
73.22506,73.97506,75,63,40
73.97506,74.72506,72,45,40
74.72506,75.38131,77,63,40
75.47506,75.85006,75,45,40
75.85006,76.22506,80,52,40
76.22506,76.60006,82,59,40
76.60006,76.97506,84,67,40
76.97506,77.35006,82,75,40
77.35006,77.72506,80,75,40
77.72506,78.10006,72,60,40
78.10006,78.41256,75,60,40
78.47506,79.22506,68,45,40
79.22506,79.97506,75,45,40
79.97506,80.744286,72,38,40
80.744286,81.44429,76,30,40
81.54429,81.82207,77,45,40
86.460945,86.5165,70,45,40
86.54428,86.62762,72,45,40
86.79428,86.84984,74,45,40
86.87762,86.960945,75,45,40
87.12762,87.18317,75,45,40
87.210945,87.29428,75,45,40
87.460945,87.5165,77,45,40
87.54428,87.79428,79,45,40
87.79428,87.874146,84,45,40
87.87762,87.960945,79,45,40
88.12762,88.18317,79,46,40
88.210945,88.29428,79,46,40
88.460945,88.5165,79,47,40
88.54428,88.62762,78,47,40
88.79428,88.84984,77,48,40
88.87761,88.960945,75,48,40
89.12761,89.18317,74,49,40
89.210945,89.29428,72,49,40
89.460945,89.5165,70,50,40
89.54428,89.62761,69,50,40
89.79428,89.84983,77,51,40
89.87761,89.960945,77,51,40
90.12761,90.18317,77,52,40
90.210945,90.29428,77,52,40
90.460945,90.5165,79,53,40
90.54428,90.62761,81,53,40
90.79428,90.84983,82,54,40
90.87761,90.960945,84,54,40
91.12761,91.18317,84,56,40
91.210945,91.29428,84,56,40
91.460945,91.5165,86,59,40
91.54427,91.82205,82,60,40
96.89275,97.00903,57,60,40
96.89275,97.00903,65,60,40
97.00903,97.12531,69,62,40
97.12531,97.24159,72,64,40
97.24159,97.35692,77,66,40
97.36064,97.43877,79,69,40
97.47969,97.557816,81,72,40
97.59874,98.25499,83,105,40
98.34874,99.00499,86,105,40
99.09874,99.19249,74,75,40
99.47374,99.56749,77,75,40
99.84874,100.50499,79,105,40
100.59874,101.25499,83,105,40
101.34874,102.00499,86,105,40
102.09874,102.19249,74,75,40
102.47374,102.56749,77,75,40
102.84874,103.50499,79,105,40
103.59874,104.25499,83,105,40
104.34874,105.00499,86,105,40
105.09874,105.19249,74,75,40
105.47374,105.56749,77,75,40
105.84874,106.50499,80,105,40
106.59874,106.69249,81,45,40
106.69249,106.78624,77,45,40
106.78624,106.87999,81,45,40
106.87999,106.97374,77,45,40
106.97374,107.06749,81,45,40
107.06749,107.16124,77,45,40
107.16124,107.25499,81,45,40
107.25499,107.34874,77,45,40
107.34874,107.44249,81,45,40
107.44249,107.53624,77,45,40
107.53624,107.62999,81,45,40
107.62999,107.72374,77,45,40
107.72374,107.81749,81,45,40
107.81749,107.91124,77,45,40
107.91124,108.00499,81,45,40
108.00499,108.09483,77,45,40
108.09874,108.19249,79,45,40
108.19249,108.28624,76,45,40
108.28624,108.37999,79,45,40
108.37999,108.47374,76,45,40
108.47374,108.56749,79,45,40
108.56749,108.66124,76,45,40
108.66124,108.75499,79,45,40
108.75499,108.84874,76,45,40
108.84874,108.94249,77,75,40
108.94249,109.03624,74,75,40
109.03624,109.12999,77,71,40
109.12999,109.22374,74,67,40
109.22374,109.31749,77,63,40
109.31749,109.41124,74,59,40
109.41124,109.50499,77,55,40
109.50499,109.59483,74,50,40
109.59874,109.69249,76,45,40
109.69249,109.78624,72,45,40
109.78624,109.87999,76,45,40
109.87999,109.97374,72,45,40
109.97374,110.06749,76,45,40
110.06749,110.16124,72,45,40
110.16124,110.25499,76,45,40
110.25499,110.34874,72,45,40
110.34874,110.44249,76,45,40
110.44249,110.53624,72,45,40
110.53624,110.62999,76,45,40
110.62999,110.72374,72,45,40
110.72374,110.81749,76,45,40
110.81749,110.91124,72,45,40
110.91124,111.00499,76,45,40
111.00499,111.09483,72,45,40
111.09874,111.19249,74,45,40
111.19249,111.28624,70,45,40
111.28624,111.37999,74,45,40
111.37999,111.47374,70,45,40
111.47374,111.56749,74,45,40
111.56749,111.66124,70,45,40
111.66124,111.75499,74,45,40
111.75499,111.84874,70,45,40
111.84874,111.94249,72,75,40
111.94249,112.03624,69,75,40
112.03624,112.12999,72,71,40
112.12999,112.22374,69,67,40
112.22374,112.31749,72,63,40
112.31749,112.41124,69,59,40
112.41124,112.50499,72,55,40
112.50499,112.59483,69,50,40
112.59874,112.69249,72,45,40
112.69249,112.78624,69,45,40
112.78624,112.87999,72,45,40
112.87999,112.97374,69,45,40
112.97374,113.06749,72,45,40
113.06749,113.16124,69,45,40
113.16124,113.25499,72,45,40
113.25499,113.34874,69,45,40
113.34874,113.44249,70,75,40
113.44249,113.53624,67,75,40
113.53624,113.62999,70,71,40
113.62999,113.72374,67,67,40
113.72374,113.81749,70,63,40
113.81749,113.91124,67,59,40
113.91124,114.00499,70,55,40
114.00499,114.09483,67,50,40
114.09874,114.19249,69,45,40
114.19249,114.28624,65,45,40
114.28624,114.37999,69,45,40
114.37999,114.47374,65,45,40
114.47374,114.56749,69,45,40
114.56749,114.66124,65,45,40
114.66124,114.75499,69,45,40
114.75499,114.84874,65,45,40
114.84874,114.94249,67,75,40
114.94249,115.03624,64,75,40
115.03624,115.12999,67,71,40
115.12999,115.22374,64,67,40
115.22374,115.31749,67,63,40
115.31749,115.41124,64,59,40
115.41124,115.50499,67,55,40
115.50499,115.59483,64,50,40
115.59874,115.69249,69,45,40
115.69249,115.78624,65,45,40
115.78624,115.87999,69,45,40
115.87999,115.97374,65,45,40
115.97374,116.06749,69,45,40
116.06749,116.16124,65,45,40
116.16124,116.25499,69,45,40
116.25499,116.34874,65,45,40
116.34874,116.44249,70,45,40
116.44249,116.53624,67,48,40
116.53624,116.62999,70,51,40
116.62999,116.72374,67,55,40
116.72374,116.81749,72,59,40
116.81749,116.91124,69,63,40
116.91124,117.00499,72,67,40
117.00499,117.09483,69,71,40
117.09874,117.19249,70,75,40
117.19249,117.28624,67,75,40
117.28624,117.37999,70,75,40
117.37999,117.47374,67,70,40
117.47374,117.56749,69,65,40
117.56749,117.66124,65,60,40
117.66124,117.75499,69,55,40
117.75499,117.84874,65,50,40
117.84874,117.94249,69,45,40
117.94249,118.03624,65,45,40
118.03624,118.12999,69,45,40
118.12999,118.22374,65,45,40
118.22374,118.31749,67,45,40
118.31749,118.41124,64,45,40
118.41124,118.50499,67,45,40
118.50499,118.59483,64,45,40
118.59874,118.69249,72,45,40
118.69249,118.78624,69,45,40
118.78624,118.87999,72,45,40
118.87999,118.97374,69,45,40
118.97374,119.06749,72,45,40
119.06749,119.16124,69,45,40
119.16124,119.25499,72,45,40
119.25499,119.34874,69,45,40
119.34874,119.44249,70,63,40
119.44249,119.53624,67,45,40
119.53624,119.62999,70,45,40
119.62999,119.72374,67,45,40
119.72374,119.81749,70,45,40
119.81749,119.91124,67,45,40
119.91124,120.00499,70,45,40
120.00499,120.09483,67,45,40
120.09874,120.19249,69,45,40
120.19249,120.28624,65,45,40
120.28624,120.37999,69,45,40
120.37999,120.47374,65,45,40
120.47374,120.56749,69,45,40
120.56749,120.66124,65,45,40
120.66124,120.75499,69,45,40
120.75499,120.84874,65,45,40
120.84874,120.94249,67,63,40
120.94249,121.03624,64,45,40
121.03624,121.12999,67,45,40
121.12999,121.22374,64,45,40
121.22374,121.31749,67,45,40
121.31749,121.41124,64,45,40
121.41124,121.50499,67,45,40
121.50499,121.59483,64,45,40
121.59874,121.69249,69,45,40
121.69249,121.78624,65,45,40
121.78624,121.87999,69,45,40
121.87999,121.97374,65,45,40
121.97374,122.06749,69,45,40
122.06749,122.16124,65,45,40
122.16124,122.25499,69,45,40
122.25499,122.34874,65,45,40
122.34874,122.44249,70,45,40
122.44249,122.53624,67,48,40
122.53624,122.62999,70,51,40
122.62999,122.72374,67,55,40
122.72374,122.81749,72,59,40
122.81749,122.91124,69,63,40
122.91124,123.00499,72,67,40
123.00499,123.09483,69,71,40
123.09874,123.19249,70,75,40
123.19249,123.28624,67,75,40
123.28624,123.37999,70,75,40
123.37999,123.47374,67,73,40
123.47374,123.56749,69,71,40
123.56749,123.66124,65,69,40
123.66124,123.75499,69,66,40
123.75499,123.84874,65,63,40
123.84874,123.94249,69,60,40
123.94249,124.03624,65,60,40
124.03624,124.12999,69,60,40
124.12999,124.22374,65,60,40
124.22374,124.31749,67,60,40
124.31749,124.41124,64,60,40
124.41124,124.50499,67,60,40
124.50499,124.59483,64,60,40
124.59874,125.25499,65,92,40
125.34874,126.00499,69,105,40
126.09874,126.41124,57,75,40
126.47374,126.53624,61,75,40
126.53624,126.59874,62,72,40
126.59874,126.66124,61,68,40
126.66124,126.72374,62,64,40
126.72374,126.78624,59,60,40
126.78624,126.84483,61,60,40
126.84874,127.50499,62,105,40
127.59874,128.25499,67,105,40
128.34874,129.00499,70,105,40
129.09874,129.19249,74,75,40
129.47374,129.53624,78,75,40
129.53624,129.59874,79,72,40
129.59874,129.66124,78,68,40
129.66124,129.72374,79,64,40
129.72374,129.78624,76,60,40
129.78624,129.84483,78,60,40
129.84874,130.41124,79,105,40
130.41124,130.47374,77,75,40
130.47374,130.53624,76,75,40
130.53624,130.59483,74,75,40
130.59874,130.69249,72,75,40
130.97374,131.06749,76,75,40
131.34874,131.91124,77,105,40
131.91124,131.97374,75,75,40
131.97374,132.03624,74,75,40
132.03624,132.09483,72,75,40
132.09874,132.29457,70,75,40
132.49873,132.69456,70,75,40
132.49873,132.69456,79,75,40
132.89874,133.10855,69,75,40
132.89874,133.10855,77,75,40
133.3273,133.53712,70,75,40
133.3273,133.53712,76,75,40
136.00587,136.09962,58,75,40
136.09962,136.19337,60,73,40
136.19337,136.28712,58,71,40
136.28712,136.38087,60,69,40
136.38087,136.47462,58,66,40
136.47462,136.56837,60,63,40
136.56837,136.66212,57,60,40
136.66212,136.75197,58,60,40
136.75587,137.41212,63,105,40
137.50587,138.16212,67,105,40
138.25587,138.34962,55,75,40
138.63087,138.72462,59,75,40
139.00587,139.19337,61,75,40
139.19337,139.28712,60,70,40
139.28712,139.38087,61,68,40
139.38087,139.47462,60,66,40
139.47462,139.56837,61,63,40
139.56837,139.66212,58,60,40
139.66212,139.75197,60,60,40
139.75587,140.41212,61,105,40
140.50587,141.16212,65,105,40
141.25587,141.34962,68,60,40
141.63087,141.72462,72,60,40
142.00587,142.09962,73,64,40
142.38087,142.47462,75,68,40
142.75587,142.84962,77,72,40
143.13087,143.22462,79,77,40
143.50587,143.59962,80,82,40
143.88087,143.97462,82,87,40
144.25587,144.91212,84,92,40
145.00587,145.66212,85,105,40
145.75587,146.41212,88,105,40
146.50587,147.06837,89,105,40
147.06837,147.13087,87,75,40
147.13087,147.19337,86,75,40
147.19337,147.25197,84,75,40
147.25587,147.43947,82,75,40
147.63087,147.72072,62,75,40
147.63087,147.81447,70,75,40
147.67775,147.81447,79,75,40
148.00587,148.09572,60,75,40
148.00587,148.18947,69,75,40
148.05275,148.18947,77,75,40
148.38087,148.47072,60,75,40
148.38087,148.56447,67,75,40
148.42775,148.56447,76,75,40
148.75587,149.41212,84,105,40
149.50587,150.16212,85,105,40
150.25587,150.91212,88,105,40
151.00587,151.56837,89,105,40
151.56837,151.63087,87,75,40
151.63087,151.69337,86,75,40
151.69337,151.75197,84,75,40
151.75587,151.93947,82,75,40
152.13087,152.22072,62,75,40
152.13087,152.31447,70,75,40
152.17775,152.31447,79,75,40
152.50587,152.59572,60,75,40
152.50587,152.68947,69,75,40
152.55275,152.68947,77,75,40
152.88087,152.97072,60,75,40
152.88087,153.06447,67,75,40
152.92775,153.06447,76,75,40
153.25587,153.34572,60,75,40
153.25587,153.43947,69,75,40
153.30275,153.43947,77,75,40
153.63087,153.81447,84,75,40
153.81837,154.00197,84,75,40
154.00587,154.31837,84,75,40
154.38087,154.56447,84,73,40
154.56837,154.75197,84,72,40
154.75587,155.06837,84,71,40
155.13087,155.31447,84,69,40
155.31837,155.50197,84,68,40
155.50587,155.81837,84,67,40
155.88087,156.06447,86,65,40
156.06837,156.25197,88,64,40
156.25587,156.43947,89,63,40
156.63087,156.81447,72,60,40
156.81837,157.00197,72,60,40
157.00587,157.31837,72,60,40
157.38087,157.56447,72,60,40
157.56837,157.75197,72,60,40
157.75587,158.06837,72,60,40
158.13087,158.31447,72,60,40
158.31837,158.50197,72,60,40
158.50587,158.81837,72,60,40
158.88087,159.06447,74,60,40
159.06837,159.25197,76,60,40
159.25587,159.56837,77,60,40
160.00587,160.31837,72,60,40
160.38087,160.56447,74,58,40
160.56837,160.75197,76,57,40
160.75587,161.06837,77,56,40
161.50587,161.81837,72,51,40
161.88087,162.06447,74,48,40
162.06837,162.25197,76,47,40
162.25587,162.56837,77,45,40
163.00587,163.31837,72,45,40
163.38087,163.56447,74,45,40
163.56837,163.75197,76,45,40
163.75587,164.06837,77,45,40
164.50587,164.81837,72,45,40
164.88087,165.06447,74,45,40
165.06837,165.25197,76,45,40
165.25587,165.56837,77,45,40
165.63087,165.81447,77,45,40
165.81837,166.00197,77,45,40
166.00587,166.32639,77,45,40
166.39049,166.5788,77,45,40
166.5828,166.7711,77,45,40
166.7751,167.09563,77,45,40
167.15973,167.34802,77,45,40
167.35204,167.54033,77,45,40
167.54434,167.87329,77,45,40
167.93907,168.13232,77,45,40
168.13644,168.3297,77,45,40
168.33382,168.99007,77,105,40
169.08382,169.74007,81,105,40
169.83382,169.92757,69,75,40
170.20882,170.30257,71,75,40
170.58382,170.67757,72,75,40
170.67757,170.77132,74,73,40
170.77132,170.86507,72,71,40
170.86507,170.95882,74,69,40
170.95882,171.05257,72,66,40
171.05257,171.14632,74,63,40
171.14632,171.24007,71,60,40
171.24007,171.33382,72,60,40
171.33382,171.64632,77,92,40
171.70882,171.89241,77,60,40
171.89632,172.07991,77,60,40
172.08382,172.39632,77,60,40
172.45882,172.64241,77,60,40
172.64632,172.82991,77,60,40
172.83382,173.15433,77,60,40
173.21843,173.40672,77,60,40
173.41074,173.59903,77,60,40
173.60304,173.93637,77,60,40
174.00304,174.19887,77,60,40
174.20303,174.39888,77,60,40
174.40305,175.0593,77,105,40
175.15305,175.8093,81,105,40
175.90305,175.9968,69,75,40
176.27805,176.3718,70,75,40
176.65305,176.84055,73,75,40
176.84055,176.9343,72,75,40
176.9343,177.02805,73,72,40
177.02805,177.1218,72,68,40
177.1218,177.21555,73,64,40
177.21555,177.3093,70,60,40
177.3093,177.40305,72,60,40
177.40305,177.71555,73,92,40
177.77805,177.96164,77,60,40
177.96555,178.14914,77,60,40
178.15305,178.47356,77,60,40
178.53766,178.72595,77,58,40
178.72997,178.91826,77,57,40
178.92227,179.24278,77,56,40
179.30688,179.4952,77,54,40
179.49919,179.6875,77,53,40
179.6915,180.02483,77,52,40
180.0915,180.28734,77,49,40
180.2915,180.48734,77,47,40
180.4915,180.78561,77,63,40
180.84444,180.90326,77,45,40
181.0209,181.07974,77,45,40
181.19739,181.4915,80,63,40
181.55032,181.60915,80,45,40
181.72679,181.78561,80,45,40
181.90326,181.9915,85,45,40
182.25621,182.34444,87,45,40
182.60915,182.90326,89,63,40
182.96208,183.0209,89,45,40
183.13857,183.19739,89,45,40
183.31503,183.60915,85,63,40
183.66797,183.72679,85,45,40
183.84444,183.90326,85,45,40
184.0209,184.07973,80,45,40
184.19739,184.25621,82,45,40
184.37386,184.43268,78,45,40
184.55032,184.60915,80,45,40
184.72679,185.0209,77,63,40
185.07973,185.13855,77,45,40
185.25621,185.31503,77,45,40
185.43268,185.72679,80,63,40
185.78561,185.84444,80,45,40
185.96208,186.0209,80,45,40
186.13855,186.22679,85,45,40
186.4915,186.57973,87,45,40
186.84444,187.13855,89,63,40
187.19737,187.2562,89,45,40
187.37386,187.43268,89,45,40
187.55032,187.84444,85,63,40
187.90326,187.96208,85,45,40
188.07973,188.13855,85,45,40
188.2562,188.31503,80,45,40
188.43268,188.4915,82,45,40
188.60915,188.66797,78,45,40
188.78561,188.84444,80,45,40
188.96208,189.2562,77,63,40
189.31502,189.37386,77,45,40
189.4915,189.55032,77,45,40
189.66797,189.96208,80,63,40
190.0209,190.07973,80,52,40
190.19737,190.2562,80,55,40
190.37386,190.46208,85,59,40
190.72679,190.81502,89,67,40
191.07973,191.37384,92,75,40
191.43268,191.4915,80,60,40
191.60915,191.66797,80,60,40
191.78561,191.84444,80,84,40
191.96208,192.0209,82,60,40
192.13855,192.19737,82,84,40
192.31502,192.37384,84,60,40
192.4915,192.55032,84,84,40
192.66797,192.72679,85,60,40
192.84444,192.90326,85,84,40
193.0209,193.07973,87,60,40
193.19737,193.4915,89,84,40
193.55032,193.60915,77,60,40
193.72679,193.78561,77,60,40
193.90326,194.19737,80,84,40
194.2562,194.31502,80,68,40
194.43266,194.49149,80,72,40
194.60915,194.69737,85,76,40
194.96208,195.05032,89,84,40
195.31502,195.60915,92,92,40
195.66797,195.72679,80,60,40
195.84444,195.90326,80,60,40
196.0209,196.07973,80,84,40
196.19737,196.2562,82,61,40
196.37384,196.43266,82,88,40
196.55031,196.60915,84,65,40
196.72679,196.78561,84,93,40
196.90326,196.96208,85,69,40
197.07973,197.13855,85,99,40
197.2562,197.31502,87,73,40
197.43266,198.05031,85,105,40
198.13855,198.7562,89,105,40
198.84444,198.93266,77,75,40
199.19737,199.28561,80,60,40
199.55031,200.16795,84,84,40
200.2562,200.87384,87,84,40
200.96208,201.05031,75,60,40
201.31502,201.40326,80,60,40
201.66795,202.28561,82,105,40
202.37384,202.99149,85,105,40
203.07973,203.16795,73,75,40
203.43266,203.5209,78,75,40
203.7856,204.40326,80,105,40
204.49149,205.10913,85,105,40
205.19737,205.2856,77,75,40
205.55031,205.63855,80,75,40
205.90326,206.2562,78,105,40
206.2562,206.60913,87,75,40
206.60913,206.90324,84,75,40
206.96208,207.05031,80,75,40
207.31502,207.40324,82,75,40
207.66795,207.7562,84,75,40
208.0209,208.63855,85,105,40
208.72678,209.34442,89,105,40
209.43266,209.5209,77,75,40
209.7856,209.87384,80,60,40
210.13855,210.49149,78,60,40
210.49149,210.84442,87,62,40
210.84442,211.13855,84,64,40
211.19737,211.2856,80,66,40
211.55031,211.63855,82,69,40
211.90324,211.99149,84,72,40
212.2562,212.87384,85,105,40
212.96207,213.57971,89,105,40
213.66795,213.7562,77,75,40
214.02089,214.10913,80,75,40
214.37384,214.66795,85,92,40
214.72678,214.89957,80,92,40
214.90324,215.07603,80,92,40
215.07971,215.37384,77,92,40
215.43266,215.60545,77,92,40
215.60913,215.78192,77,92,40
215.7856,215.95839,72,92,40
215.96207,216.13486,73,92,40
216.13853,216.31134,70,92,40
216.31502,216.48781,72,92,40
216.49149,216.7856,68,92,40
217.90324,218.07603,63,92,40
217.90324,218.16428,72,92,40
217.99149,218.16428,80,92,40
218.25618,218.42899,63,92,40
218.25618,218.51721,70,92,40
218.34442,218.51721,79,92,40
218.60913,218.78192,63,92,40
218.60913,218.95839,72,92,40
218.69736,218.95839,80,92,40
220.02089,220.19368,67,92,40
220.02089,220.28192,75,92,40
220.10913,220.28192,84,92,40
220.37384,220.54663,67,92,40
220.37384,220.63486,74,92,40
220.46207,220.63486,83,92,40
220.72678,221.07603,67,92,40
220.72678,221.37383,75,92,40
220.90324,221.37383,84,92,40
221.43266,222.05031,87,92,40
222.13853,222.43266,79,92,40
222.49149,222.7856,83,92,40
222.84442,223.46207,84,92,40
223.55031,224.16795,87,92,40
224.25618,224.55031,79,92,40
224.60913,224.90324,83,92,40
224.96207,225.25618,84,92,40
225.315,225.48781,79,90,40
225.49147,225.66428,79,89,40
225.66795,225.96207,75,88,40
226.02089,226.19368,72,85,40
226.19736,226.37015,72,84,40
226.37383,226.54663,70,83,40
226.5503,226.7231,72,81,40
226.72678,226.89957,68,79,40
226.90324,227.07603,70,77,40
227.07971,227.37383,67,75,40
229.19736,229.49147,79,60,40
229.5503,229.7231,79,60,40
229.72678,229.89957,79,60,40
229.90324,230.19736,74,60,40
230.25618,230.42897,74,60,40
230.43265,230.60544,74,60,40
230.60912,230.78192,71,60,40
230.7856,230.95839,72,68,40
230.96207,231.13486,69,76,40
231.13853,231.31133,71,84,40
231.315,231.60912,67,92,40
233.43265,233.72676,79,60,40
233.78558,233.95839,79,60,40
233.96207,234.13486,79,60,40
234.13853,234.43265,74,60,40
234.49147,234.66426,74,60,40
234.66794,234.84074,74,60,40
234.84442,235.01721,71,60,40
235.02089,235.19368,72,68,40
235.19736,235.37015,69,76,40
235.37383,235.54662,71,84,40
235.5503,235.8444,67,92,40
235.90324,236.07603,69,92,40
235.90324,236.07603,78,92,40
236.07971,236.2525,69,92,40
236.07971,236.2525,78,92,40
236.25618,236.5503,71,92,40
236.25618,236.5503,79,92,40
236.60912,236.7819,69,92,40
236.60912,236.7819,78,92,40
236.78558,236.95839,69,92,40
236.78558,236.95839,78,92,40
236.96207,237.25618,71,92,40
236.96207,237.25618,79,92,40
237.315,237.4878,69,92,40
237.315,237.4878,78,92,40
237.49147,237.66426,69,92,40
237.49147,237.66426,78,92,40
237.66794,237.84073,71,92,40
237.66794,237.84073,79,92,40
237.8444,237.90323,74,84,40
238.02089,238.07971,76,76,40
238.19736,238.25618,78,68,40
238.37383,238.66794,79,60,40
238.72676,238.89957,79,60,40
238.90323,239.07603,79,60,40
239.07971,239.37383,79,60,40
239.43265,239.60544,79,60,40
239.60912,239.7819,79,60,40
239.78558,240.08679,79,60,40
240.14703,240.32399,79,60,40
240.32776,240.50471,79,60,40
240.50848,240.81712,79,60,40
240.87885,241.06018,79,60,40
241.06403,241.24536,79,60,40
241.24922,241.55786,79,60,40
241.61958,241.80092,79,60,40
241.80478,241.9861,79,60,40
241.98996,242.2986,79,60,40
242.36032,242.54166,80,55,40
242.54552,242.72684,81,53,40
242.7307,243.03934,82,51,40
243.10107,243.2824,82,45,40
243.28625,243.46758,82,45,40
243.47144,243.77264,82,45,40
243.83289,244.00984,82,45,40
244.01361,244.19057,82,45,40
244.19432,244.48845,82,45,40
244.54727,244.72006,82,45,40
244.72374,244.89653,82,45,40
244.9002,245.19432,82,45,40
245.25316,245.42595,82,45,40
245.42963,245.60242,82,45,40
245.6061,245.89018,82,45,40
245.947,246.1139,82,45,40
246.11746,246.28436,82,45,40
246.2879,246.56569,70,63,40
246.62125,246.78444,72,47,40
246.7879,246.95111,74,48,40
246.95457,247.23236,75,49,40
247.2879,247.45111,75,51,40
247.45457,247.61777,75,52,40
247.62125,247.6768,74,53,40
247.95457,248.01013,75,56,40
248.2879,248.62125,76,84,40
248.62125,248.78444,77,45,40
248.95457,249.2011,75,45,40
249.20457,249.28444,75,56,40
249.2879,249.53444,77,59,40
249.5379,249.61777,77,71,40
249.62125,249.95457,80,105,40
249.95457,250.11777,79,75,40
250.2879,250.34346,80,60,40
250.45457,250.51013,82,60,40
250.62125,250.67679,84,55,40
250.7879,250.84346,80,50,40
250.95457,251.5379,77,45,40
251.62123,251.89902,70,63,40
251.95457,252.11777,72,50,40
252.12123,252.28444,74,52,40
252.2879,252.56569,75,54,40
252.62123,252.78442,75,59,40
252.7879,252.9511,75,61,40
252.95457,253.01013,74,63,40
253.2879,253.34346,75,69,40
253.62123,253.95457,79,75,40
253.95457,254.11777,77,45,40
254.2879,254.53442,79,45,40
254.5379,254.61777,79,62,40
254.62123,254.86777,80,68,40
254.87123,254.9511,80,86,40
254.95457,255.2879,84,92,40
255.2879,255.4511,82,60,40
255.62123,255.95457,87,63,40
255.95457,256.11777,81,45,40
256.2879,256.62125,82,63,40
256.62125,256.78442,70,45,40
258.2879,258.34344,77,45,40
258.45456,258.51013,79,46,40
258.62122,258.6768,80,47,40
258.7879,258.84344,77,49,40
258.95456,259.5379,82,71,40
260.95456,261.20108,70,75,40
261.20456,261.28442,70,75,40
261.2879,261.53442,69,75,40
261.5379,261.61777,69,75,40
261.62122,261.86777,70,75,40
261.87122,261.95108,70,81,40
261.95456,262.20108,75,83,40
262.20456,262.28442,75,89,40
262.2879,262.53442,77,92,40
262.5379,262.61777,77,92,40
262.62122,262.86777,77,92,40
262.87122,262.95108,79,84,40
262.95456,263.0101,75,82,40
263.12122,263.2879,70,77,40
263.2879,263.45456,67,72,40
263.45456,263.61777,63,66,40
263.62122,263.7879,62,60,40
263.7879,263.95456,65,60,40
263.95456,264.12122,70,60,40
264.12122,264.28442,65,60,40
264.2879,264.45456,65,60,40
264.45456,264.62122,67,60,40
264.62122,264.7879,69,60,40
264.7879,264.95108,70,60,40
264.95456,265.12122,68,60,40
265.12122,265.2879,72,60,40
265.2879,265.45456,70,60,40
265.45456,265.61774,72,60,40
265.62122,265.7879,68,60,40
265.7879,265.95456,72,60,40
265.95456,266.12122,68,60,40
266.12122,266.28442,65,60,40
266.2879,266.45456,67,60,40
266.45456,266.62122,75,68,40
266.62122,266.7879,74,76,40
266.7879,266.95108,68,84,40
266.95456,267.12122,67,92,40
267.12122,267.2879,75,92,40
267.2879,267.45456,70,75,40
267.45456,267.61774,67,75,40
267.62122,267.7879,63,60,40
267.7879,267.95456,72,60,40
267.95456,268.12122,69,60,40
268.12122,268.28442,63,60,40
268.2879,268.45456,62,60,40
268.45456,268.62122,65,60,40
268.62122,268.78787,70,60,40
268.78787,268.95108,72,60,40
268.95456,269.12122,73,92,40
269.12122,269.28787,77,92,40
269.28787,269.45456,73,92,40
269.45456,269.61774,70,92,40
269.62122,269.78787,65,92,40
269.78787,269.95456,67,92,40
269.95456,270.12122,69,92,40
270.12122,270.28442,70,92,40
270.28787,270.45456,68,92,40
270.45456,270.62122,72,92,40
270.62122,270.78787,70,92,40
270.78787,270.95108,72,92,40
270.95456,271.12122,68,92,40
271.12122,271.28787,72,92,40
271.28787,271.45456,68,92,40
271.45456,271.61774,65,92,40
271.62122,271.899,79,127,40
271.95456,272.0101,81,92,40
272.12122,272.17676,83,92,40
272.28787,272.56567,84,92,40
272.62122,272.67676,84,92,40
272.78787,272.84344,84,92,40
272.95456,273.11774,82,92,40
273.28787,273.45108,69,92,40
273.28787,273.45108,81,92,40
273.62122,273.78442,70,92,40
273.62122,273.78442,82,92,40
273.95456,274.11774,69,92,40
273.95456,274.11774,81,92,40
274.28787,274.45108,67,92,40
274.28787,274.45108,79,92,40
274.62122,274.78442,74,76,40
274.95456,275.11774,70,60,40
275.28787,275.45108,69,60,40
275.62122,275.7844,67,60,40
275.95456,276.11774,69,60,40
276.28787,276.45108,67,60,40
276.62122,276.7844,69,60,40
276.95456,277.0101,67,92,40
277.12122,277.17676,62,92,40
277.28787,277.34344,64,92,40
277.45456,277.5101,66,92,40
277.62122,277.70456,67,92,40
277.95456,278.03787,69,92,40
278.28787,278.45456,70,75,40
278.45456,278.62122,62,75,40
278.62122,278.78787,63,75,40
278.78787,278.95108,65,75,40
278.95453,279.12122,63,75,40
279.12122,279.28787,70,75,40
279.28787,279.45453,66,75,40
279.45453,279.61774,63,75,40
279.62122,279.78787,61,75,40
279.78787,279.95453,65,75,40
279.95453,280.12122,63,75,40
280.12122,280.2844,65,75,40
280.28787,280.45453,61,75,40
280.45453,280.62122,65,75,40
280.62122,280.78787,61,75,40
280.78787,280.95108,58,75,40
280.95453,281.23233,84,105,40
281.28787,281.34344,86,75,40
281.45453,281.5101,88,75,40
281.62122,281.899,89,75,40
281.95453,282.0101,89,75,40
282.12122,282.17676,89,75,40
282.28787,282.45108,87,75,40
282.62122,282.7844,86,75,40
282.95453,283.11774,87,75,40
283.28787,283.45108,86,75,40
283.62122,283.7844,84,75,40
283.95453,284.11774,79,75,40
284.28787,284.45108,75,75,40
284.62122,284.7844,74,75,40
284.95453,285.11774,72,75,40
285.28787,285.45108,74,75,40
285.62122,285.7844,72,75,40
285.95453,286.11774,74,75,40
286.28787,286.45105,72,75,40
286.62122,286.7844,72,75,40
286.95453,287.11774,70,75,40
287.28787,287.45105,72,71,40
287.62122,287.7844,70,67,40
287.95453,288.11774,72,63,40
288.28787,288.45105,70,57,40
288.62122,288.7844,72,51,40
288.95453,289.2323,77,63,40
289.28787,289.3434,79,45,40
289.45453,289.5101,81,45,40
289.6212,289.899,82,63,40
289.95453,290.0101,82,45,40
290.1212,290.17676,82,45,40
290.28787,290.3434,81,45,40
290.6212,290.67676,82,45,40
290.95453,291.28787,83,63,40
291.28787,291.45105,84,45,40
291.6212,291.86774,82,45,40
291.8712,291.95105,82,56,40
291.95453,292.20105,84,59,40
292.20453,292.2844,84,71,40
292.28787,292.6212,87,75,40
292.6212,292.7844,86,75,40
292.95453,293.01007,87,60,40
293.1212,293.17676,89,60,40
293.28787,293.3434,91,60,40
293.45453,293.51007,87,60,40
293.6212,294.20453,84,84,40
295.6212,295.89896,77,84,40
295.95453,296.01007,77,60,40
296.1212,296.17676,77,60,40
296.28787,296.56564,77,84,40
296.6212,296.67676,77,60,40
296.78787,296.8434,77,60,40
296.95453,297.2323,77,60,40
298.95453,299.2323,77,84,40
299.28784,299.3434,77,60,40
299.45453,299.51007,77,60,40
299.6212,299.95453,82,84,40
299.95453,300.1177,76,60,40
300.28784,300.6212,77,60,40
300.6212,300.7844,65,60,40
301.6212,301.89896,77,60,40
301.95453,302.01007,77,60,40
302.1212,302.17676,77,60,40
302.28784,302.3434,72,60,40
302.45453,302.51007,74,64,40
302.6212,302.67673,75,68,40
302.78784,302.8434,72,72,40
302.95453,303.28784,76,106,40
303.28784,303.45105,77,84,40
303.6212,303.89896,77,92,40
303.95453,304.20105,76,75,40
304.20453,304.2844,76,75,40
304.28784,304.5344,77,60,40
304.53784,304.6177,77,60,40
304.6212,304.8677,82,75,40
304.8712,304.95105,82,75,40
304.95453,305.20105,84,92,40
305.20453,305.2844,84,92,40
305.28784,305.3712,84,75,40
305.53784,305.5934,86,75,40
305.6212,306.20453,82,84,40
306.28784,306.8712,86,84,40
306.95453,307.03784,74,60,40
307.28784,307.3712,78,60,40
307.6212,308.20453,79,84,40
308.28784,308.8712,82,84,40
308.95453,309.03784,70,60,40
309.28784,309.3712,74,60,40
309.6212,310.2045,75,84,40
310.28784,310.8712,79,84,40
310.9545,311.03784,67,60,40
311.28784,311.3712,71,60,40
311.6212,312.2045,72,84,40
312.28784,312.8712,75,105,40
312.9545,313.03784,76,75,40
313.28784,313.3712,79,60,40
313.6212,314.2045,81,45,40
314.28784,314.8712,84,45,40
314.9545,315.03784,72,45,40
315.28784,315.3712,76,45,40
315.6212,315.7045,77,45,40
315.8712,315.92673,72,45,40
315.9545,316.20102,71,45,40
316.2045,316.28436,71,45,40
316.28784,316.53436,72,45,40
316.53784,316.6177,72,45,40
316.6212,316.8677,77,45,40
316.8712,316.95102,77,45,40
316.9545,317.20102,79,45,40
317.2045,317.28436,79,45,40
317.28784,317.3712,79,45,40
317.53784,317.59338,82,45,40
317.6212,318.2045,81,45,40
318.28784,318.8712,84,45,40
318.9545,319.03784,72,45,40
319.28784,319.3712,76,45,40
319.62115,319.7045,77,45,40
319.87115,319.92673,72,48,40
319.9545,320.20102,71,49,40
320.2045,320.28436,71,52,40
320.28784,320.53436,72,53,40
320.53784,320.6177,72,57,40
320.62115,320.8677,81,58,40
320.87115,320.95102,81,62,40
320.9545,321.20102,79,63,40
321.2045,321.28436,79,67,40
321.28784,321.37115,79,68,40
321.53784,321.59338,81,73,40
321.62115,322.2045,77,105,40
322.28784,322.87115,81,105,40
322.9545,323.23227,69,75,40
323.28784,323.5656,72,75,40
323.62115,324.2045,77,105,40
324.28784,324.87115,81,105,40
324.9545,325.23227,69,75,40
325.28784,325.5656,72,75,40
325.62115,326.2045,77,75,40
326.28784,326.87115,81,105,40
326.9545,327.53784,84,105,40
327.62115,327.89893,72,75,40
327.9545,328.23227,77,75,40
328.28784,328.87115,81,75,40
328.9545,329.53784,84,106,40
329.62115,330.2045,87,107,40
330.2878,330.5656,77,78,40
330.62115,330.89893,81,78,40
330.9545,331.5378,84,78,40
331.62115,332.2045,87,112,40
332.2878,332.5656,77,82,40
332.62115,332.89893,81,83,40
332.9545,333.5378,84,84,40
333.62115,333.7064,87,86,40
333.96207,334.0473,84,87,40
334.30298,334.3912,81,88,40
334.6559,334.74414,77,89,40
335.00885,335.1026,75,90,40
335.38385,335.4776,72,91,40
335.75885,336.3765,70,92,40
336.46475,337.0824,74,105,40
337.17062,337.46475,62,75,40
337.52356,337.5824,66,75,40
337.5824,337.6412,67,72,40
337.6412,337.70004,66,68,40
337.70004,337.75885,67,64,40
337.75885,337.8177,64,60,40
337.8177,337.87283,66,60,40
337.8765,338.49414,67,84,40
338.5824,338.67062,70,60,40
338.84708,338.9059,70,60,40
338.93533,339.02356,70,60,40
339.20004,339.25885,72,60,40
339.28827,339.5493,74,60,40
339.55298,339.63754,79,60,40
339.6412,339.72943,74,60,40
339.9059,339.96472,74,60,40
339.99414,340.0824,74,60,40
340.25885,340.3177,74,60,40
340.34708,340.43533,73,60,40
340.6118,340.67062,72,60,40
340.70004,340.78827,70,60,40
340.96472,341.02356,69,60,40
341.05298,341.1412,67,60,40
341.3177,341.3765,70,60,40
341.4059,341.49414,82,60,40
341.67062,341.72943,82,60,40
341.75885,341.84708,81,60,40
342.02356,342.0824,80,60,40
342.1118,342.37283,79,60,40
342.3765,342.46106,87,60,40
342.46472,342.55298,87,60,40
342.72943,342.78827,87,60,40
342.8177,342.9059,89,60,40
343.08237,343.1412,89,60,40
343.17062,343.25885,89,60,40
343.43533,343.49414,91,60,40
343.52356,343.78458,87,60,40
343.78827,343.84708,70,60,40
343.8765,343.96472,72,60,40
344.1412,344.20004,74,60,40
344.22943,344.84708,75,105,40
344.93533,345.55298,79,105,40
345.6412,345.93533,67,75,40
345.99414,346.05298,71,75,40
346.05298,346.1118,72,75,40
346.1118,346.17062,71,75,40
346.17062,346.22943,72,75,40
346.22943,346.28827,69,75,40
346.28827,346.3434,71,75,40
346.34708,346.96472,72,105,40
347.4059,347.49414,55,60,40
347.4059,347.49414,63,60,40
348.1118,348.2,55,60,40
348.1118,348.2,67,60,40
348.46472,348.55298,59,60,40
348.8177,348.9059,55,60,40
348.8177,348.9059,62,60,40
349.52356,349.6118,55,60,40
349.52356,349.6118,63,60,40
349.8765,349.96472,60,60,40
350.22943,350.31766,65,60,40
350.22943,350.31766,72,60,40
350.58237,350.67062,65,60,40
350.58237,350.67062,74,60,40
350.93533,351.02356,62,60,40
350.93533,351.02356,70,60,40
351.28827,351.3765,60,60,40
351.28827,351.3765,70,60,40
351.6412,351.72943,69,60,40
351.99414,352.11462,58,60,40
352.11462,352.2351,62,65,40
352.2351,352.3556,65,70,40
352.3556,352.47668,70,75,40
352.4806,352.56262,72,80,40
352.6056,352.68762,74,86,40
352.7306,353.38684,76,92,40
353.4806,354.13684,79,105,40
354.2306,354.32434,67,75,40
354.6056,354.69934,70,75,40
354.9806,355.63684,72,105,40
355.7306,356.38684,76,105,40
356.4806,357.13684,79,105,40
357.2306,357.32434,67,75,40
357.6056,357.69934,70,75,40
357.9806,358.63684,72,105,40
358.7306,359.38684,76,105,40
359.4806,360.13684,79,105,40
360.2306,360.32434,67,75,40
360.6056,360.69934,70,68,40
360.9806,361.7306,73,61,40
361.7306,362.4806,73,45,40
362.4806,363.2306,77,45,40
363.2306,363.6056,72,45,40
363.6056,363.9806,75,45,40
363.9806,364.5431,73,63,40
364.5431,364.72668,70,45,40
364.7306,365.4806,68,45,40
365.4806,366.2306,72,45,40
366.2306,366.6056,66,45,40
366.6056,366.9806,70,45,40
366.9806,367.5431,68,63,40
367.5431,367.72668,65,45,40
367.7306,368.4806,61,45,40
368.4806,369.2306,68,63,40
369.2306,369.9806,65,45,40
369.9806,370.63684,70,63,40
370.7306,371.1056,68,45,40
371.1056,371.4806,73,45,40
371.4806,371.8556,75,60,40
371.8556,372.2306,77,60,40
372.2306,372.6056,75,75,40
372.6056,372.9806,73,60,40
372.9806,373.3556,65,45,40
373.3556,373.6681,68,45,40
373.7306,374.4806,61,45,40
374.4806,375.2306,68,63,40
375.2306,375.9806,65,45,40
375.9806,376.63684,70,63,40
376.7306,377.1056,68,45,40
377.1056,377.4806,73,45,40
377.4806,377.8556,75,60,40
377.8556,378.2306,77,60,40
378.2306,378.6056,75,75,40
378.6056,378.9806,73,60,40
378.9806,379.3556,65,45,40
379.3556,379.6681,68,45,40
379.7306,380.4806,61,45,40
380.4806,381.2306,68,45,40
381.2306,381.9806,65,45,40
381.9806,382.63684,69,45,40
382.7306,383.02472,70,45,40
387.93646,387.9953,75,45,40
388.0247,388.11295,77,45,40
388.2894,388.34824,79,48,40
388.37766,388.46588,80,49,40
388.64233,388.70117,80,53,40
388.7306,388.81882,80,54,40
388.9953,389.0541,82,58,40
389.08353,389.34824,84,60,40
389.34824,389.4328,89,60,40
389.43646,389.5247,84,60,40
389.70117,389.76,84,60,40
389.7894,389.87766,84,60,40
390.0541,390.11295,84,60,40
390.14233,390.2306,83,60,40
390.40704,390.46588,82,60,40
390.4953,390.58353,80,60,40
390.76,390.81882,79,60,40
390.84824,390.93646,77,60,40
391.11295,391.17175,75,60,40
391.20117,391.2894,74,60,40
391.46588,391.5247,82,60,40
391.5541,391.64233,82,60,40
391.81882,391.87766,82,60,40
391.90704,391.9953,82,60,40
392.17175,392.2306,84,60,40
392.25998,392.34824,86,60,40
392.5247,392.58353,87,60,40
392.61295,392.70117,89,60,40
392.87766,392.93646,89,60,40
392.96588,393.0541,89,60,40
393.2306,393.2894,91,60,40
393.31882,393.61295,87,60,40
398.96588,399.08636,58,60,40
399.08636,399.20685,62,65,40
399.20685,399.32733,65,70,40
399.32733,399.44843,70,75,40
399.45233,399.53436,72,80,40
399.57733,399.65936,74,86,40
399.70233,400.35858,76,92,40
400.45233,401.10858,79,105,40
401.20233,401.29608,67,75,40
401.57733,401.67108,70,75,40
401.95233,402.60858,72,105,40
402.70233,403.35858,76,105,40
403.45233,404.10858,79,105,40
404.20233,404.29608,67,75,40
404.57733,404.67108,70,75,40
404.95233,405.60858,72,105,40
405.70233,406.35858,76,105,40
406.45233,407.10858,79,105,40
407.20233,407.29608,67,75,40
407.57733,407.67108,70,75,40
407.95233,408.60858,73,105,40
408.70233,408.79608,74,45,40
408.79608,408.88983,70,45,40
408.88983,408.98358,74,45,40
408.98358,409.07733,70,45,40
409.07733,409.17108,74,45,40
409.17108,409.26483,70,45,40
409.26483,409.35858,74,45,40
409.35858,409.45233,70,45,40
409.45233,409.54608,74,45,40
409.54608,409.63983,70,45,40
409.63983,409.73358,74,45,40
409.73358,409.82733,70,45,40
409.82733,409.92108,74,45,40
409.92108,410.01483,70,45,40
410.01483,410.10858,74,45,40
410.10858,410.19843,70,45,40
410.20233,410.29608,72,45,40
410.29608,410.38983,69,45,40
410.38983,410.48358,72,45,40
410.48358,410.57733,69,45,40
410.57733,410.67108,72,45,40
410.67108,410.76483,69,45,40
410.76483,410.85858,72,45,40
410.85858,410.95233,69,45,40
410.95233,411.04608,70,63,40
411.04608,411.13983,67,45,40
411.13983,411.23358,70,45,40
411.23358,411.32733,67,45,40
411.32733,411.42108,70,45,40
411.42108,411.51483,67,45,40
411.51483,411.60858,70,45,40
411.60858,411.69843,67,45,40
411.70233,411.79608,69,45,40
411.79608,411.88983,65,45,40
411.88983,411.98358,69,45,40
411.98358,412.07733,65,45,40
412.07733,412.17108,69,45,40
412.17108,412.26483,65,45,40
412.26483,412.35858,69,45,40
412.35858,412.45233,65,45,40
412.45233,412.54608,69,45,40
412.54608,412.63983,65,45,40
412.63983,412.73358,69,45,40
412.73358,412.82733,65,45,40
412.82733,412.92108,69,45,40
412.92108,413.01483,65,45,40
413.01483,413.10858,69,45,40
413.10858,413.19843,65,45,40
413.20233,413.29608,67,45,40
413.29608,413.38983,63,45,40
413.38983,413.48358,67,45,40
413.48358,413.57733,63,45,40
413.57733,413.67108,67,45,40
413.67108,413.76483,63,45,40
413.76483,413.85858,67,45,40
413.85858,413.95233,63,45,40
413.95233,414.04608,65,63,40
414.04608,414.13983,62,45,40
414.13983,414.23358,65,45,40
414.23358,414.32733,62,45,40
414.32733,414.42108,65,45,40
414.42108,414.51483,62,45,40
414.51483,414.60858,65,45,40
414.60858,414.69843,62,45,40
414.70233,414.79608,65,45,40
414.79608,414.88983,62,45,40
414.88983,414.98358,65,45,40
414.98358,415.07733,62,45,40
415.07733,415.17108,65,45,40
415.17108,415.26483,62,45,40
415.26483,415.35858,65,45,40
415.35858,415.45233,62,45,40
415.45233,415.54608,63,63,40
415.54608,415.63983,60,45,40
415.63983,415.73358,63,45,40
415.73358,415.82733,60,45,40
415.82733,415.92108,63,45,40
415.92108,416.01483,60,45,40
416.01483,416.10858,63,45,40
416.10858,416.19843,60,45,40
416.20233,416.29608,62,45,40
416.29608,416.38983,58,45,40
416.38983,416.48358,62,45,40
416.48358,416.57733,58,45,40
416.57733,416.67108,62,45,40
416.67108,416.76483,58,45,40
416.76483,416.85858,62,45,40
416.85858,416.95233,58,45,40
416.95233,417.04608,60,63,40
417.04608,417.13983,57,45,40
417.13983,417.23358,60,45,40
417.23358,417.32733,57,45,40
417.32733,417.42108,60,45,40
417.42108,417.51483,57,45,40
417.51483,417.60858,60,45,40
417.60858,417.69843,57,45,40
417.70233,417.79608,62,45,40
417.79608,417.88983,58,46,40
417.88983,417.98358,62,47,40
417.98358,418.07733,58,49,40
418.07733,418.17108,62,51,40
418.17108,418.26483,58,53,40
418.26483,418.35858,62,55,40
418.35858,418.45233,58,57,40
418.45233,418.54608,63,59,40
418.54608,418.63983,60,61,40
418.63983,418.73358,63,63,40
418.73358,418.82733,60,65,40
418.82733,418.92108,65,67,40
418.92108,419.01483,62,69,40
419.01483,419.10858,65,71,40
419.10858,419.19843,62,73,40
419.20233,419.29608,63,75,40
419.29608,419.38983,60,75,40
419.38983,419.48358,63,75,40
419.48358,419.57733,60,70,40
419.57733,419.67108,62,65,40
419.67108,419.76483,58,60,40
419.76483,419.85858,62,55,40
419.85858,419.95233,58,50,40
419.95233,420.04608,62,45,40
420.04608,420.13983,58,45,40
420.13983,420.23358,62,45,40
420.23358,420.32733,58,45,40
420.32733,420.42108,60,45,40
420.42108,420.51483,57,45,40
420.51483,420.60858,60,45,40
420.60858,420.69843,57,45,40
420.70233,420.79608,65,45,40
420.79608,420.88983,62,45,40
420.88983,420.98358,65,45,40
420.98358,421.07733,62,45,40
421.07733,421.17108,65,45,40
421.17108,421.26483,62,45,40
421.26483,421.35858,65,45,40
421.35858,421.45233,62,45,40
421.45233,421.54608,63,63,40
421.54608,421.63983,60,45,40
421.63983,421.73358,63,45,40
421.73358,421.82733,60,45,40
421.82733,421.92108,63,45,40
421.92108,422.01483,60,45,40
422.01483,422.10858,63,45,40
422.10858,422.19843,60,45,40
422.20233,422.29608,62,45,40
422.29608,422.38983,58,45,40
422.38983,422.48358,62,45,40
422.48358,422.57733,58,45,40
422.57733,422.67108,62,45,40
422.67108,422.76483,58,45,40
422.76483,422.85858,62,45,40
422.85858,422.95233,58,45,40
422.95233,423.04608,60,63,40
423.04608,423.13983,57,45,40
423.13983,423.23358,60,45,40
423.23358,423.32733,57,45,40
423.32733,423.42108,60,45,40
423.42108,423.51483,57,45,40
423.51483,423.60858,60,45,40
423.60858,423.69843,57,45,40
423.70233,423.79608,62,45,40
423.79608,423.88983,58,46,40
423.88983,423.98358,62,47,40
423.98358,424.07733,58,49,40
424.07733,424.17108,62,51,40
424.17108,424.26483,58,53,40
424.26483,424.35858,62,55,40
424.35858,424.45233,58,57,40
424.45233,424.54608,63,59,40
424.54608,424.63983,60,61,40
424.63983,424.73358,63,63,40
424.73358,424.82733,60,65,40
424.82733,424.92108,65,67,40
424.92108,425.01483,62,69,40
425.01483,425.10858,65,71,40
425.10858,425.19843,62,73,40
425.20233,425.29608,63,75,40
425.29608,425.38983,60,75,40
425.38983,425.48358,63,75,40
425.48358,425.57733,60,70,40
425.57733,425.67108,62,65,40
425.67108,425.76483,58,60,40
425.76483,425.85858,62,55,40
425.85858,425.95233,58,50,40
425.95233,426.04608,62,45,40
426.04608,426.13983,58,45,40
426.13983,426.23358,62,45,40
426.23358,426.32733,58,45,40
426.32733,426.42108,60,60,40
426.42108,426.51483,57,60,40
426.51483,426.60858,60,60,40
426.60858,426.69843,57,60,40
426.70233,427.35858,70,105,40
427.45233,428.10858,74,105,40
428.20233,428.29608,62,75,40
428.57733,428.63983,66,75,40
428.63983,428.70233,67,72,40
428.70233,428.76483,66,68,40
428.76483,428.82733,67,64,40
428.82733,428.88983,64,60,40
428.88983,428.94843,66,60,40
428.95233,429.60858,67,105,40
429.70233,430.35858,60,105,40
430.45233,431.10858,63,105,40
431.20233,431.29608,67,75,40
431.57733,431.67108,71,75,40
431.95233,432.51483,72,105,40
432.51483,432.57733,70,75,40
432.57733,432.63983,69,75,40
432.63983,432.69843,67,75,40
432.70233,432.88593,65,75,40
433.07733,433.26093,69,75,40
433.45233,434.01483,70,105,40
434.01483,434.07733,68,75,40
434.07733,434.13983,67,75,40
434.13983,434.19843,65,75,40
434.20233,434.38593,63,75,40
434.57733,434.76562,75,75,40
434.57733,434.76562,84,75,40
434.96194,435.15778,65,75,40
434.96194,435.25775,74,75,40
435.06192,435.25775,82,75,40
435.36194,435.55777,65,75,40
435.36194,435.65778,72,75,40
435.46194,435.65778,81,75,40
437.87958,438.409,63,92,40
438.409,438.4678,61,60,40
438.4678,438.52664,60,60,40
438.52664,438.5818,58,60,40
438.58545,439.2031,56,84,40
439.29135,439.909,72,84,40
439.99722,440.17,60,76,40
440.35016,440.52295,64,84,40
440.61487,440.7031,66,90,40
440.7031,440.79135,65,92,40
440.79135,440.87958,66,92,40
440.87958,440.9678,65,82,40
440.9678,441.05606,66,71,40
441.05606,441.1443,65,60,40
441.1443,441.2325,66,60,40
441.2325,441.32074,63,60,40
441.32074,441.4053,65,60,40
441.409,442.02664,66,105,40
442.11487,442.7325,70,105,40
442.82074,442.99356,73,75,40
443.1737,443.3465,77,77,40
443.52664,443.69943,78,79,40
443.87958,444.05237,80,81,40
444.2325,444.4053,82,83,40
444.58545,444.75824,84,85,40
444.9384,445.1112,85,87,40
445.29135,445.46414,87,89,40
445.6443,446.26193,89,127,40
446.35016,446.9678,69,105,40
446.35016,446.9678,78,105,40
447.05603,447.6737,69,105,40
447.05603,447.6737,81,105,40
447.76193,448.29135,70,105,40
447.76193,448.29135,82,105,40
448.29135,448.35016,80,75,40
448.35016,448.409,79,75,40
448.409,448.46414,77,75,40
448.4678,448.6406,75,75,40
448.82074,448.99353,67,75,40
448.82074,449.0818,75,75,40
448.909,449.0818,84,75,40
449.1737,449.3465,65,75,40
449.1737,449.43472,74,75,40
449.26193,449.43472,82,75,40
449.52664,449.69943,65,75,40
449.52664,449.78766,72,75,40
449.61487,449.78766,81,75,40
449.87958,450.49722,66,105,40
449.87958,450.49722,74,105,40
450.58545,451.2031,69,105,40
450.58545,451.2031,78,105,40
451.29135,451.909,69,105,40
451.29135,451.909,81,105,40
451.99722,452.52664,70,105,40
451.99722,452.52664,82,105,40
452.52664,452.58545,80,75,40
452.58545,452.6443,79,75,40
452.6443,452.69943,77,75,40
452.7031,452.8759,75,75,40
453.05603,453.22882,67,75,40
453.05603,453.31708,75,75,40
453.1443,453.31708,84,75,40
453.409,453.5818,65,75,40
453.409,453.67,74,75,40
453.49722,453.67,82,75,40
453.76193,453.93472,65,75,40
453.76193,454.02295,72,75,40
453.85016,454.02295,81,75,40
454.11487,454.28766,65,75,40
454.11487,454.3759,74,75,40
454.2031,454.3759,82,75,40
454.4678,454.6406,65,75,40
454.6443,454.81708,65,75,40
454.82074,455.11487,65,75,40
455.17368,455.3465,65,75,40
455.35016,455.52295,65,75,40
455.52664,455.82074,65,75,40
455.87958,456.05237,65,72,40
456.05603,456.22882,65,70,40
456.2325,456.52664,65,68,40
456.58545,456.75824,67,64,40
456.76193,456.93472,69,62,40
456.9384,457.2325,70,60,40
457.29132,457.46414,77,60,40
457.4678,457.6406,77,60,40
457.6443,457.9384,77,60,40
457.99722,458.17,77,60,40
458.17368,458.34647,77,60,40
458.35016,458.6443,77,60,40
458.7031,458.8759,77,60,40
458.87958,459.05237,77,60,40
459.05603,459.35016,77,60,40
459.40897,459.5818,79,60,40
459.58545,459.75824,81,60,40
459.76193,460.05603,82,60,40
460.4678,460.76193,77,60,40
460.82074,460.99353,79,59,40
460.99722,461.17,81,58,40
461.17368,461.4678,82,57,40
461.87958,462.17368,77,53,40
462.2325,462.4053,79,51,40
462.40897,462.5818,81,50,40
462.58545,462.87958,82,49,40
463.29132,463.58545,77,45,40
463.6443,463.81708,79,45,40
463.82074,463.99353,81,45,40
463.99722,464.29132,82,45,40
464.7031,464.99722,77,45,40
465.05603,465.22882,79,45,40
465.2325,465.4053,81,45,40
465.40897,465.7031,82,45,40
465.76193,465.93472,70,45,40
465.9384,466.11118,70,45,40
466.11487,466.40897,70,45,40
466.4678,466.6406,70,45,40
466.64426,466.81708,70,45,40
466.82074,467.12195,70,45,40
467.1822,467.35913,70,45,40
467.3629,467.53986,70,45,40
467.54364,467.85614,70,45,40
467.91864,468.10223,70,45,40
468.10614,468.28973,70,45,40
468.29364,468.9113,70,105,40
468.9995,469.61716,74,105,40
469.70538,469.87817,62,75,40
470.05835,470.23114,64,75,40
470.4113,470.4995,65,75,40
470.4995,470.58774,67,73,40
470.58774,470.676,65,71,40
470.676,470.76422,67,69,40
470.76422,470.85245,65,66,40
470.85245,470.94067,67,63,40
470.94067,471.02893,64,60,40
471.02893,471.1135,65,60,40
471.11716,471.4113,70,92,40
471.4701,471.64288,70,60,40
471.64658,471.81937,70,60,40
471.82303,472.11716,70,60,40
472.176,472.3488,70,60,40
472.35245,472.52524,70,60,40
472.52893,472.82303,70,60,40
472.88187,473.05466,70,60,40
473.05835,473.23114,70,60,40
473.2348,473.52893,70,60,40
473.58774,473.76053,70,60,40
473.76422,473.937,70,60,40
473.94067,474.55832,70,105,40
474.64658,475.26422,74,105,40
475.35245,475.52524,62,75,40
475.70538,475.87817,64,75,40
475.9701,476.05832,66,75,40
476.05832,476.14658,65,75,40
476.14658,476.2348,66,73,40
476.2348,476.32303,65,71,40
476.32303,476.4113,66,69,40
476.4113,476.4995,65,66,40
476.4995,476.58774,66,63,40
476.58774,476.676,63,60,40
476.676,476.76422,65,60,40
476.76422,477.05832,66,92,40
477.11716,477.28995,70,92,40
477.29364,477.46643,70,92,40
477.4701,477.76422,70,92,40
477.82303,477.99582,70,92,40
477.9995,478.1723,70,88,40
478.17596,478.46335,70,84,40
478.5208,478.68964,70,75,40
478.6932,478.86203,70,70,40
478.86563,479.14655,70,65,40
479.2027,479.36774,70,55,40
479.37125,479.5363,70,50,40
479.5398,479.81757,70,63,40
479.8731,479.92868,70,45,40
480.0398,480.09534,70,45,40
480.20645,480.48422,73,63,40
480.5398,480.59534,73,45,40
480.70645,480.76202,73,45,40
480.8731,481.03632,78,45,40
481.20645,481.36966,80,45,40
481.5398,481.81757,82,63,40
481.8731,481.92868,82,45,40
482.0398,482.09534,82,45,40
482.20645,482.48422,78,63,40
482.5398,482.59534,78,45,40
482.70645,482.762,78,45,40
482.8731,482.92868,73,45,40
483.0398,483.09534,75,45,40
483.20645,483.262,71,45,40
483.3731,483.42868,73,45,40
483.5398,483.81757,70,63,40
483.8731,483.92868,70,45,40
484.0398,484.09534,70,45,40
484.20645,484.48422,73,63,40
484.5398,484.59534,73,45,40
484.70645,484.762,73,45,40
484.8731,485.03632,78,45,40
485.20645,485.36966,80,45,40
485.5398,485.81757,82,63,40
485.8731,485.92868,82,45,40
486.0398,486.09534,82,45,40
486.20645,486.48422,78,63,40
486.5398,486.59534,78,45,40
486.70645,486.762,78,45,40
486.8731,486.92868,73,45,40
487.0398,487.09534,75,45,40
487.20645,487.262,71,45,40
487.3731,487.42868,73,45,40
487.5398,487.81757,70,45,40
487.8731,487.92868,70,45,40
488.0398,488.09534,70,45,40
488.20645,488.48422,73,45,40
488.5398,488.59534,73,52,40
488.70645,488.762,73,55,40
488.8731,489.03632,78,59,40
489.20645,489.36963,82,67,40
489.53976,489.81757,85,75,40
489.8731,489.92868,73,45,40
490.03976,490.09534,73,45,40
490.20645,490.262,73,63,40
490.3731,490.42868,75,48,40
490.53976,490.59534,75,71,40
490.70645,490.762,77,55,40
490.8731,490.92868,77,82,40
491.03976,491.09534,78,63,40
491.20645,491.262,78,93,40
491.3731,491.42868,80,71,40
491.53976,491.81757,82,75,40
491.8731,491.92868,70,60,40
492.03976,492.09534,70,60,40
492.20645,492.48422,73,60,40
492.53976,492.59534,73,63,40
492.70645,492.762,73,65,40
492.8731,493.03632,78,67,40
493.20645,493.36963,82,71,40
493.53976,493.81757,85,75,40
493.8731,493.92865,73,45,40
494.03976,494.09534,73,45,40
494.20645,494.262,73,63,40
494.3731,494.42865,75,49,40
494.53976,494.59534,75,74,40
494.70645,494.762,77,57,40
494.8731,494.92865,77,85,40
495.03976,495.09534,78,65,40
495.20645,495.262,78,98,40
495.3731,495.42865,80,75,40
495.53976,496.1231,78,84,40
496.20645,496.78976,82,84,40
496.8731,497.0363,70,60,40
497.20645,497.36963,73,60,40
497.53976,498.1231,77,84,40
498.20645,498.78976,80,84,40
498.8731,499.0363,68,60,40
499.20642,499.36963,73,60,40
499.53976,500.1231,75,84,40
500.20642,500.78976,78,84,40
500.8731,501.0363,66,60,40
501.20642,501.36963,71,60,40
501.53976,502.1231,73,84,40
502.20642,502.78976,78,84,40
502.8731,503.0363,70,60,40
503.20642,503.36963,72,60,40
503.53976,504.1231,74,84,40
504.20642,504.78976,77,84,40
504.8731,505.0363,74,60,40
505.20642,505.36963,77,60,40
505.53976,505.8731,75,84,40
505.8731,506.20642,84,66,40
506.20642,506.4842,81,72,40
506.53976,506.70294,77,78,40
506.8731,507.0363,79,84,40
507.20642,507.36963,81,92,40
507.53976,508.1231,82,105,40
508.20642,508.78976,86,105,40
508.8731,509.0363,74,75,40
509.20642,509.36963,77,75,40
509.53976,509.87308,75,105,40
509.87308,510.20642,84,73,40
510.20642,510.4842,81,71,40
510.53976,510.70294,77,69,40
510.87308,511.0363,79,67,40
511.20642,511.36963,81,64,40
511.53976,512.1231,70,84,40
511.53976,512.1231,82,84,40
512.2064,512.78973,74,84,40
512.8731,513.03625,62,60,40
513.2064,513.3696,65,60,40
513.53973,514.1231,70,84,40
514.2064,514.78973,74,84,40
514.8731,515.03625,62,60,40
515.2064,515.3696,65,60,40
515.53973,516.1231,70,84,40
516.2064,516.78973,74,84,40
516.8731,517.03625,62,60,40
517.2064,517.3696,65,60,40
517.53973,518.1231,70,84,40
518.2064,518.78973,74,84,40
518.8731,519.03625,62,59,40
519.2064,519.3696,65,59,40
519.53973,520.1231,70,82,40
520.2064,520.78973,74,81,40
520.8731,521.03625,62,57,40
521.2064,521.3696,65,57,40
521.53973,521.8731,63,79,40
521.8731,522.2064,72,57,40
522.2064,522.4842,69,57,40
522.53973,522.70294,65,57,40
522.8731,523.03625,67,57,40
523.2064,523.3696,69,57,40
523.53973,524.1231,70,79,40
524.2064,524.78973,74,78,40
524.87305,525.03625,62,54,40
525.2064,525.3696,65,54,40
525.53973,525.87305,63,75,40
525.87305,526.2064,72,53,40
526.2064,526.4842,69,52,40
526.53973,526.70294,65,51,40
526.87305,527.03625,67,51,40
527.2064,527.3696,69,49,40
527.53973,527.8175,70,47,40
527.87305,527.92865,62,45,40
528.03973,528.0953,62,45,40
528.2064,528.4842,65,45,40
528.53973,528.5953,65,45,40
528.7064,528.76196,65,45,40
528.87305,529.03625,70,45,40
529.2064,529.3696,72,45,40
529.53973,529.8175,70,45,40
529.87305,529.92865,62,45,40
530.03973,530.0953,62,45,40
530.2064,530.4842,65,45,40
530.53973,530.5953,65,45,40
530.7064,530.76196,65,45,40
530.87305,531.03625,70,45,40
531.2064,531.36957,72,45,40
531.53973,531.8175,70,45,40
531.87305,531.92865,74,45,40
532.03973,532.0953,74,45,40
532.2064,532.4842,77,45,40
532.53973,532.5953,77,45,40
532.7064,532.76196,77,45,40
532.87305,533.03625,82,45,40
533.2064,533.36957,84,45,40
533.53973,533.83386,82,45,40
533.8927,533.9515,74,52,40
534.06915,534.128,74,56,40
534.2456,534.5581,77,60,40
534.6206,534.6831,77,68,40
534.8081,534.8706,77,72,40
534.9956,535.19147,82,76,40
535.3956,535.59143,84,84,40
535.7956,536.3206,82,92,40
536.3956,536.9206,86,92,40
536.9956,537.1425,62,92,40
537.2956,537.4425,64,92,40
537.59564,537.6706,66,92,40
537.6706,537.7456,67,87,40
537.7456,537.8206,66,82,40
537.8206,537.8956,67,77,40
537.8956,537.97064,66,72,40
537.97064,538.0456,67,66,40
538.0456,538.1206,64,60,40
538.1206,538.1925,66,60,40
538.1956,538.34247,67,92,40
538.4956,538.6425,69,92,40
538.7956,538.8706,71,92,40
538.8706,538.9456,72,87,40
538.9456,539.0206,71,82,40
539.0206,539.09564,72,77,40
539.09564,539.1706,71,72,40
539.1706,539.2456,72,66,40
539.2456,539.3206,69,60,40
539.3206,539.3925,71,60,40
539.3956,539.5425,72,75,40
539.6956,539.84247,74,75,40
539.9956,540.1425,75,75,40
540.2956,540.4425,76,77,40
540.59564,540.7425,77,79,40
540.8956,541.0425,79,81,40
541.1956,541.34247,80,84,40
541.4956,541.6425,81,88,40
541.7956,542.3956,74,92,40
541.7956,542.3956,82,92,40
542.3956,542.84564,74,92,40
542.3956,542.84564,82,92,40
542.84564,542.8956,80,92,40
542.8956,542.9456,79,92,40
542.9456,542.9925,77,92,40
542.9956,543.1425,75,92,40
543.2956,543.4425,67,92,40
543.2956,543.5175,75,92,40
543.3706,543.5175,84,92,40
543.59564,543.7425,65,92,40
543.59564,543.8175,74,92,40
543.6706,543.8175,82,92,40
543.8956,544.0425,65,92,40
543.8956,544.1175,72,92,40
543.97064,544.1175,81,92,40
544.1956,544.34247,65,92,40
544.1956,544.4175,74,92,40
544.2706,544.4175,82,92,40
544.4956,544.6425,65,92,40
544.6456,544.7925,65,92,40
544.7956,545.0456,65,92,40
545.09564,545.2425,65,87,40
545.2456,545.3925,65,85,40
545.3956,545.6456,65,83,40
545.6956,545.84247,65,78,40
545.84564,545.9925,65,75,40
545.9956,546.2456,65,72,40
546.2956,546.4425,67,66,40
546.4456,546.59247,69,63,40
546.59564,546.84564,70,60,40
546.8956,547.0425,77,60,40
547.0456,547.1925,77,60,40
547.1956,547.4456,77,60,40
547.4956,547.6425,77,60,40
547.6456,547.7925,77,60,40
547.7956,548.0456,77,60,40
548.09564,548.2425,77,60,40
548.2456,548.3925,77,60,40
548.3956,548.6456,77,60,40
548.6956,548.84247,79,60,40
548.84564,548.9925,81,60,40
548.9956,549.2456,82,60,40
549.59564,549.8407,77,60,40
549.8897,550.03375,79,60,40
550.0368,550.1808,81,60,40
550.18384,550.42896,82,60,40
550.7721,551.01483,77,60,40
551.06335,551.20593,79,60,40
551.209,551.35156,81,60,40
551.3546,551.59735,82,60,40
551.93713,552.1775,77,60,40
552.2256,552.3668,79,65,40
552.3698,552.51105,81,67,40
552.51404,552.75446,82,69,40
553.091,553.3291,65,80,40
553.3767,553.5166,67,86,40
553.51953,553.6594,69,89,40
553.6624,553.9005,70,92,40
554.2338,554.46967,65,92,40
554.51685,554.6554,67,87,40
554.6584,554.79694,69,85,40
554.79987,555.0357,70,83,40
555.3659,555.59955,65,72,40
555.6463,555.78357,67,66,40
555.78644,555.9237,69,63,40
555.92664,556.1603,70,60,40
556.4874,556.7189,77,45,40
556.7652,556.9012,79,45,40
556.90405,557.04004,81,45,40
557.04297,557.2744,82,45,40
557.5985,557.8279,77,30,40
557.8737,558.0085,79,30,40
558.01135,558.1461,81,30,40
558.149,558.3783,82,30,40
559.49945,559.69525,65,92,40
559.49945,559.89526,72,92,40
559.5994,559.89526,81,92,40
561.2225,561.4485,58,92,40
561.2225,561.4485,65,92,40
561.3379,561.6792,74,92,40
561.3379,561.6792,82,92,40
81.87762,82.155396,60,45,45
81.87762,82.155396,68,45,45
82.54429,82.82207,60,45,45
82.54429,82.82207,72,45,45
82.87762,83.155396,60,45,45
82.87762,83.155396,64,45,45
83.21095,83.48873,60,46,45
83.21095,83.48873,67,46,45
83.87762,84.155396,60,48,45
83.87762,84.155396,68,48,45
84.21095,84.48873,62,49,45
84.21095,84.48873,70,49,45
84.54428,84.82206,58,50,45
84.54428,84.82206,68,50,45
84.87762,85.155396,58,52,45
84.87762,85.155396,67,52,45
85.21095,85.48872,58,54,45
85.21095,85.48872,63,54,45
85.54428,85.82206,60,56,45
85.54428,85.82206,65,56,45
85.87762,86.155396,56,58,45
85.87762,86.155396,62,58,45
86.21095,86.45747,55,60,45
86.21095,86.45747,63,60,45
92.54427,92.82205,62,60,45
92.54427,92.82205,70,60,45
93.210945,93.488716,62,60,45
93.210945,93.488716,74,60,45
93.54427,93.82205,62,60,45
93.54427,93.82205,66,60,45
93.87761,94.15539,62,60,45
93.87761,94.15539,69,60,45
94.54427,94.82205,62,60,45
94.54427,94.82205,70,60,45
94.87761,95.15539,60,60,45
94.87761,95.15539,67,60,45
95.21094,95.488716,67,60,45
95.21094,95.488716,72,60,45
95.54427,95.707466,60,60,45
95.54427,95.707466,69,60,45
95.87761,96.0408,60,60,45
95.87761,96.0408,65,60,45
96.21094,96.377846,62,60,45
96.55185,96.71875,58,60,45
96.55185,96.71875,64,60,45
383.08353,383.37766,65,45,45
383.08353,383.37766,73,45,45
383.7894,384.08353,65,45,45
383.7894,384.08353,77,45,45
384.14236,384.43646,65,45,45
384.14236,384.43646,69,45,45
384.4953,384.7894,65,45,45
384.4953,384.7894,72,45,45
385.20117,385.4953,65,45,45
385.20117,385.4953,73,45,45
385.5541,385.84824,67,45,45
385.5541,385.84824,75,45,45
385.90704,386.20117,63,45,45
385.90704,386.20117,73,45,45
386.26,386.5541,63,45,45
386.26,386.5541,72,45,45
386.61295,386.90704,75,45,45
386.96588,387.26,65,45,45
386.96588,387.26,70,45,45
387.31882,387.61295,61,45,45
387.31882,387.61295,67,45,45
387.67175,387.9328,60,45,45
387.67175,387.9328,68,45,45
394.37766,394.67175,67,60,45
394.37766,394.67175,75,60,45
395.08353,395.37762,67,60,45
395.08353,395.37762,79,60,45
395.43646,395.7306,67,60,45
395.43646,395.7306,71,60,45
395.7894,396.08353,67,60,45
395.7894,396.08353,74,60,45
396.4953,396.7894,67,60,45
396.4953,396.7894,75,60,45
396.84824,397.14233,65,60,45
396.84824,397.14233,69,60,45
397.20117,397.4953,65,60,45
397.20117,397.4953,72,60,45
397.5541,397.7269,65,60,45
397.5541,397.7269,74,60,45
397.90704,398.07983,65,60,45
397.90704,398.07983,70,60,45
398.25998,398.43277,67,60,45
398.25998,398.43277,72,60,45
398.61295,398.78574,63,60,45
398.61295,398.78574,69,60,45
11.333322,11.666655,70,63,42
11.666655,11.829849,64,45,42
11.999988,12.333321,65,45,42
12.333321,12.496515,53,45,42
13.999986,14.055541,60,45,42
14.166653,14.222208,62,52,42
14.333319,14.388874,63,59,42
14.499986,14.555541,60,67,42
14.666652,14.999985,64,105,42
14.999985,15.163179,65,60,42
15.333318,15.579845,65,75,42
15.583318,15.663178,65,75,42
15.666651,15.913178,64,75,42
15.916651,15.996511,64,75,42
15.999984,16.246511,65,75,42
16.249983,16.329845,65,81,42
16.333317,16.579845,70,83,42
16.583317,16.663177,70,89,42
16.66665,16.918781,60,92,42
16.92233,17.004007,60,92,42
17.007559,17.25969,60,75,42
17.26324,17.344917,62,75,42
17.348469,17.639166,58,75,42
18.054447,18.332224,53,45,42
18.721113,18.99889,56,45,42
19.38778,19.550974,55,45,42
19.721111,19.884306,55,45,42
20.054445,20.332222,60,45,42
20.721111,20.884306,55,45,42
21.054443,21.217638,53,59,42
21.387777,21.665554,58,75,42
22.054443,22.137775,55,60,42
22.387775,22.47111,60,60,42
22.72111,22.998886,53,60,42
23.387775,23.665552,53,60,42
24.054441,24.332218,56,60,42
24.721107,24.884302,55,60,42
25.05444,25.217634,55,53,42
25.387774,25.66555,60,45,42
26.05444,26.217634,55,45,42
26.387772,26.550966,53,59,42
26.721106,26.998882,58,75,42
27.387772,27.665548,55,63,42
28.054438,28.332214,58,45,42
28.721104,28.99888,55,63,42
29.38777,29.665546,58,45,42
30.054436,30.217628,53,45,42
30.387768,30.550962,51,47,42
30.721102,30.884295,50,51,42
31.054434,31.217628,46,55,42
31.387768,31.55096,53,59,42
31.7211,31.884295,51,63,42
32.054432,32.21763,50,67,42
32.387768,32.55096,46,71,42
32.7211,32.884293,38,75,42
33.054432,33.217625,37,75,42
33.387764,33.55467,38,75,42
33.728676,33.895576,43,79,42
34.069584,34.240368,39,83,42
34.41842,34.589203,41,87,42
34.767258,35.37772,58,92,42
35.46493,36.075397,62,92,42
36.162605,36.456722,50,92,42
36.515545,36.57437,54,92,42
36.57437,36.633194,55,88,42
36.633194,36.692017,54,84,42
36.692017,36.75084,55,80,42
36.75084,36.80966,52,75,42
36.80966,36.86481,55,75,42
36.86849,37.486134,55,92,42
42.953857,43.578854,58,92,42
43.66814,44.29314,62,92,42
44.382423,44.680042,50,92,42
44.739567,44.79909,54,73,42
44.79909,44.858616,55,70,42
44.858616,44.918137,54,67,42
44.918137,44.97766,55,64,42
44.97766,45.037186,52,60,42
45.037186,45.092987,54,60,42
45.09671,45.721706,55,92,42
45.810993,46.42864,55,63,42
46.516876,47.13452,58,63,42
47.222755,47.516876,50,45,42
47.5757,47.869816,54,45,42
47.92864,48.546288,55,63,42
48.63452,48.722755,48,45,42
48.98746,49.0757,52,45,42
49.340405,49.42864,53,45,42
49.693344,49.781578,45,45,42
50.046284,50.13452,46,45,42
50.399227,50.48746,48,45,42
50.752167,51.05337,53,45,42
52.975056,53.631306,59,105,42
53.725056,54.381306,62,105,42
54.475056,54.568806,50,75,42
54.850056,54.943806,53,75,42
55.225056,55.881306,55,105,42
55.975056,56.631306,59,105,42
56.725056,57.381306,62,105,42
57.475056,57.568806,50,75,42
57.850056,57.943806,53,75,42
58.225056,58.881306,56,105,42
58.975056,59.631306,59,105,42
59.725056,59.818806,62,60,42
60.100056,60.193806,65,60,42
60.475056,61.131306,68,45,42
61.225056,66.78756,44,45,42
66.85006,67.53756,44,63,42
67.60006,68.28756,44,63,42
68.35006,69.03756,44,63,42
69.10006,69.78756,44,63,42
69.85006,70.97506,44,63,42
70.97506,71.28756,44,75,42
71.35006,71.44381,44,75,42
71.72506,71.81881,44,70,42
72.10006,72.19381,44,65,42
72.47506,72.78756,44,60,42
72.85006,73.53756,44,84,42
73.60006,74.28756,44,84,42
74.35006,75.03756,44,84,42
75.10006,75.78756,44,84,42
75.85006,76.22506,44,60,42
76.22506,76.97506,44,75,42
76.97506,77.28756,44,60,42
77.35006,77.44381,44,60,42
77.72506,77.81881,44,60,42
78.10006,78.19381,44,60,42
78.47506,80.744286,44,45,42
80.744286,81.44429,48,30,42
99.09874,99.75499,59,84,42
99.84874,100.50499,62,84,42
100.59874,100.69249,50,60,42
100.97374,101.06749,53,60,42
101.34874,102.00499,55,84,42
102.09874,102.75499,59,84,42
102.84874,103.50499,62,84,42
103.59874,103.69249,50,60,42
103.97374,104.06749,53,60,42
104.34874,105.00499,56,84,42
105.09874,105.75499,59,84,42
105.84874,105.94249,62,60,42
106.22374,106.31749,65,60,42
106.59874,106.69249,65,45,42
106.69249,106.78624,69,45,42
106.78624,106.87999,65,45,42
106.87999,106.97374,69,45,42
106.97374,107.06749,65,45,42
107.06749,107.16124,69,45,42
107.16124,107.25499,65,45,42
107.25499,107.34874,69,45,42
107.34874,107.44249,65,45,42
107.44249,107.53624,69,45,42
107.53624,107.62999,65,45,42
107.62999,107.72374,69,45,42
107.72374,107.81749,65,45,42
107.81749,107.91124,69,45,42
107.91124,108.00499,65,45,42
108.00499,108.09483,69,45,42
108.09874,108.19249,64,45,42
108.19249,108.28624,67,45,42
108.28624,108.37999,64,45,42
108.37999,108.47374,67,45,42
108.47374,108.56749,64,45,42
108.56749,108.66124,67,45,42
108.66124,108.75499,64,45,42
108.75499,108.84874,67,45,42
108.84874,108.94249,62,75,42
108.94249,109.03624,65,75,42
109.03624,109.12999,62,71,42
109.12999,109.22374,65,67,42
109.22374,109.31749,62,63,42
109.31749,109.41124,65,59,42
109.41124,109.50499,62,55,42
109.50499,109.59483,65,50,42
109.59874,109.69249,60,45,42
109.69249,109.78624,64,45,42
109.78624,109.87999,60,45,42
109.87999,109.97374,64,45,42
109.97374,110.06749,60,45,42
110.06749,110.16124,64,45,42
110.16124,110.25499,60,45,42
110.25499,110.34874,64,45,42
110.34874,110.44249,60,45,42
110.44249,110.53624,64,45,42
110.53624,110.62999,60,45,42
110.62999,110.72374,64,45,42
110.72374,110.81749,60,45,42
110.81749,110.91124,64,45,42
110.91124,111.00499,60,45,42
111.00499,111.09483,64,45,42
111.09874,111.19249,58,45,42
111.19249,111.28624,62,45,42
111.28624,111.37999,58,45,42
111.37999,111.47374,62,45,42
111.47374,111.56749,58,45,42
111.56749,111.66124,62,45,42
111.66124,111.75499,58,45,42
111.75499,111.84874,62,45,42
111.84874,111.94249,57,75,42
111.94249,112.03624,60,75,42
112.03624,112.12999,57,71,42
112.12999,112.22374,60,67,42
112.22374,112.31749,57,63,42
112.31749,112.41124,60,59,42
112.41124,112.50499,57,55,42
112.50499,112.59483,60,50,42
112.59874,112.69249,57,45,42
112.69249,112.78624,60,45,42
112.78624,112.87999,57,45,42
112.87999,112.97374,60,45,42
112.97374,113.06749,57,45,42
113.06749,113.16124,60,45,42
113.16124,113.25499,57,45,42
113.25499,113.34874,60,45,42
113.34874,113.44249,55,75,42
113.44249,113.53624,58,75,42
113.53624,113.62999,55,71,42
113.62999,113.72374,58,67,42
113.72374,113.81749,55,63,42
113.81749,113.91124,58,59,42
113.91124,114.00499,55,55,42
114.00499,114.09483,58,50,42
114.09874,114.19249,53,45,42
114.19249,114.28624,57,45,42
114.28624,114.37999,53,45,42
114.37999,114.47374,57,45,42
114.47374,114.56749,53,45,42
114.56749,114.66124,57,45,42
114.66124,114.75499,53,45,42
114.75499,114.84874,57,45,42
114.84874,114.94249,52,75,42
114.94249,115.03624,55,75,42
115.03624,115.12999,52,71,42
115.12999,115.22374,55,67,42
115.22374,115.31749,52,63,42
115.31749,115.41124,55,59,42
115.41124,115.50499,52,55,42
115.50499,115.59483,55,50,42
115.59874,115.69249,53,45,42
115.69249,115.78624,57,45,42
115.78624,115.87999,53,45,42
115.87999,115.97374,57,45,42
115.97374,116.06749,53,45,42
116.06749,116.16124,57,45,42
116.16124,116.25499,53,45,42
116.25499,116.34874,57,45,42
116.34874,116.44249,55,45,42
116.44249,116.53624,58,48,42
116.53624,116.62999,55,51,42
116.62999,116.72374,58,55,42
116.72374,116.81749,57,59,42
116.81749,116.91124,60,63,42
116.91124,117.00499,57,67,42
117.00499,117.09483,60,71,42
117.09874,117.19249,55,75,42
117.19249,117.28624,58,75,42
117.28624,117.37999,55,75,42
117.37999,117.47374,58,70,42
117.47374,117.56749,53,65,42
117.56749,117.66124,57,60,42
117.66124,117.75499,53,55,42
117.75499,117.84874,57,50,42
117.84874,117.94249,53,45,42
117.94249,118.03624,57,45,42
118.03624,118.12999,53,45,42
118.12999,118.22374,57,45,42
118.22374,118.31749,52,45,42
118.31749,118.41124,55,45,42
118.41124,118.50499,52,45,42
118.50499,118.59483,55,45,42
118.59874,118.69249,57,45,42
118.69249,118.78624,60,45,42
118.78624,118.87999,57,45,42
118.87999,118.97374,60,45,42
118.97374,119.06749,57,45,42
119.06749,119.16124,60,45,42
119.16124,119.25499,57,45,42
119.25499,119.34874,60,45,42
119.34874,119.44249,55,63,42
119.44249,119.53624,58,45,42
119.53624,119.62999,55,45,42
119.62999,119.72374,58,45,42
119.72374,119.81749,55,45,42
119.81749,119.91124,58,45,42
119.91124,120.00499,55,45,42
120.00499,120.09483,58,45,42
120.09874,120.19249,53,45,42
120.19249,120.28624,57,45,42
120.28624,120.37999,53,45,42
120.37999,120.47374,57,45,42
120.47374,120.56749,53,45,42
120.56749,120.66124,57,45,42
120.66124,120.75499,53,45,42
120.75499,120.84874,57,45,42
120.84874,120.94249,52,63,42
120.94249,121.03624,55,45,42
121.03624,121.12999,52,45,42
121.12999,121.22374,55,45,42
121.22374,121.31749,52,45,42
121.31749,121.41124,55,45,42
121.41124,121.50499,52,45,42
121.50499,121.59483,55,45,42
121.59874,121.69249,53,45,42
121.69249,121.78624,57,45,42
121.78624,121.87999,53,45,42
121.87999,121.97374,57,45,42
121.97374,122.06749,53,45,42
122.06749,122.16124,57,45,42
122.16124,122.25499,53,45,42
122.25499,122.34874,57,45,42
122.34874,122.44249,55,45,42
122.44249,122.53624,58,48,42
122.53624,122.62999,55,51,42
122.62999,122.72374,58,55,42
122.72374,122.81749,57,59,42
122.81749,122.91124,60,63,42
122.91124,123.00499,57,67,42
123.00499,123.09483,60,71,42
123.09874,123.19249,55,75,42
123.19249,123.28624,58,75,42
123.28624,123.37999,55,75,42
123.37999,123.47374,58,73,42
123.47374,123.56749,53,71,42
123.56749,123.66124,57,69,42
123.66124,123.75499,53,66,42
123.75499,123.84874,57,63,42
123.84874,123.94249,53,60,42
123.94249,124.03624,57,60,42
124.03624,124.12999,53,60,42
124.12999,124.22374,57,60,42
124.22374,124.31749,52,60,42
124.31749,124.41124,55,60,42
124.41124,124.50499,52,60,42
124.50499,124.59483,55,60,42
124.59874,125.25499,53,92,42
125.34874,126.00499,57,105,42
126.09874,126.41124,45,75,42
126.47374,126.53624,49,75,42
126.53624,126.59874,50,72,42
126.59874,126.66124,49,68,42
126.66124,126.72374,50,64,42
126.72374,126.78624,47,60,42
126.78624,126.84483,50,60,42
126.84874,127.50499,50,105,42
127.59874,128.25499,55,105,42
128.34874,129.00499,58,105,42
129.09874,129.19249,62,75,42
129.47374,129.53624,66,75,42
129.53624,129.59874,67,72,42
129.59874,129.66124,66,68,42
129.66124,129.72374,67,64,42
129.72374,129.78624,64,60,42
129.78624,129.84483,66,60,42
129.84874,130.41124,67,105,42
130.41124,130.47374,65,75,42
130.47374,130.53624,64,75,42
130.53624,130.59483,62,75,42
130.59874,130.69249,60,75,42
130.97374,131.06749,64,75,42
131.34874,131.91124,65,105,42
131.91124,131.97374,63,75,42
131.97374,132.03624,62,75,42
132.03624,132.09483,60,75,42
132.09874,132.29457,58,75,42
132.49873,132.69456,46,75,42
132.89874,133.10855,48,75,42
133.3273,133.53712,48,75,42
136.00587,136.09962,46,75,42
136.09962,136.19337,48,73,42
136.19337,136.28712,46,71,42
136.28712,136.38087,48,69,42
136.38087,136.47462,46,66,42
136.47462,136.56837,48,63,42
136.56837,136.66212,45,60,42
136.66212,136.75197,46,60,42
136.75587,137.41212,51,105,42
137.50587,138.16212,55,105,42
138.25587,138.34962,43,75,42
138.63087,138.72462,47,75,42
139.00587,139.19337,49,75,42
139.19337,139.28712,48,70,42
139.28712,139.38087,49,68,42
139.38087,139.47462,48,66,42
139.47462,139.56837,49,63,42
139.56837,139.66212,46,60,42
139.66212,139.75197,48,60,42
139.75587,140.41212,49,105,42
140.50587,141.16212,53,105,42
141.25587,141.34962,44,60,42
141.63087,141.72462,48,60,42
142.00587,142.09962,49,64,42
142.38087,142.47462,51,68,42
142.75587,142.84962,53,72,42
143.13087,143.22462,55,77,42
143.50587,143.59962,56,82,42
143.88087,143.97462,58,87,42
144.25587,144.91212,60,92,42
145.00587,145.18947,45,92,42
145.00587,145.69337,52,92,42
145.09962,145.69337,57,92,42
145.75587,145.93947,45,92,42
145.75587,146.44337,52,92,42
145.84962,146.44337,61,92,42
146.50587,147.25587,41,75,42
147.25587,147.43947,46,75,42
147.63087,147.81447,58,75,42
148.00587,148.18947,60,75,42
148.38087,148.56447,48,75,42
148.75587,149.41212,60,105,42
149.50587,149.68947,45,75,42
149.50587,150.19337,52,75,42
149.59962,150.19337,57,75,42
150.25587,150.43947,45,75,42
150.25587,150.94337,52,75,42
150.34962,150.94337,61,75,42
151.00587,151.75587,41,75,42
151.75587,151.93947,46,75,42
152.13087,152.31447,58,75,42
152.50587,152.68947,60,75,42
152.88087,153.06447,48,75,42
153.25587,153.43947,53,75,42
153.63087,153.81447,60,75,42
153.81837,154.00197,60,75,42
154.00587,154.31837,60,75,42
154.38087,154.56447,60,74,42
154.56837,154.75197,60,74,42
154.75587,155.06837,60,74,42
155.13087,155.31447,60,73,42
155.31837,155.50197,60,73,42
155.50587,155.81837,60,73,42
155.88087,156.06447,62,72,42
156.06837,156.25197,64,72,42
156.25587,156.43947,65,72,42
159.25587,159.56837,60,60,42
159.63087,159.81447,62,60,42
159.81837,160.00197,64,60,42
160.00587,160.31837,65,60,42
160.75587,161.06837,60,60,42
161.13087,161.31447,62,57,42
161.31837,161.50197,64,55,42
161.50587,161.81837,65,53,42
162.25587,162.56837,60,45,42
162.63087,162.81447,62,45,42
162.81837,163.00197,64,45,42
163.00587,163.31837,65,45,42
163.75587,164.06837,60,45,42
164.13087,164.31447,62,45,42
164.31837,164.50197,64,45,42
164.50587,164.81837,65,45,42
168.33382,168.99007,53,105,42
169.08382,169.74007,57,105,42
169.83382,169.92757,45,75,42
170.20882,170.30257,47,75,42
170.58382,170.67757,48,75,42
170.67757,170.77132,50,73,42
170.77132,170.86507,48,71,42
170.86507,170.95882,50,69,42
170.95882,171.05257,48,66,42
171.05257,171.14632,50,63,42
171.14632,171.24007,47,60,42
171.24007,171.32991,48,60,42
171.33382,171.64632,53,92,42
174.40305,175.0593,53,105,42
175.15305,175.8093,57,105,42
175.90305,175.9968,45,75,42
176.27805,176.3718,46,75,42
176.65305,176.84055,49,75,42
176.84055,176.9343,48,70,42
176.9343,177.02805,49,68,42
177.02805,177.1218,48,66,42
177.1218,177.21555,49,63,42
177.21555,177.3093,46,60,42
177.3093,177.39914,48,60,42
177.40305,177.71555,49,92,42
180.4915,181.10915,61,63,42
181.19739,181.81503,65,63,42
181.90326,181.9915,53,45,42
182.25621,182.34444,56,45,42
182.60915,183.22679,61,63,42
183.31503,183.93268,65,63,42
184.0209,184.10915,53,45,42
184.37386,184.46208,56,45,42
184.72679,185.34444,61,63,42
185.43268,186.05032,65,63,42
186.13855,186.22679,53,45,42
186.4915,186.57973,56,45,42
186.84444,187.46208,61,63,42
187.55032,188.16797,65,63,42
188.2562,188.34444,53,45,42
188.60915,188.69737,56,45,42
188.96208,189.57973,61,63,42
189.66797,190.28561,65,63,42
190.37386,190.46208,53,45,42
190.72679,190.81502,56,60,42
191.07973,191.43268,54,75,42
191.43268,191.78561,63,60,42
191.78561,192.07973,60,60,42
192.13855,192.22679,56,45,42
192.4915,192.57973,58,45,42
192.84444,192.93266,60,45,42
193.19737,193.81502,61,63,42
193.90326,194.5209,65,63,42
194.60915,194.69737,53,45,42
194.96208,195.05032,56,68,42
195.31502,195.66797,54,92,42
195.66797,196.0209,63,60,42
196.0209,196.31502,60,60,42
196.37384,196.46208,56,60,42
196.72679,196.81502,58,60,42
197.07973,197.16797,60,60,42
197.43266,198.7562,61,75,42
198.84444,199.90326,65,60,42
199.90326,200.19737,63,60,42
200.2562,201.22678,60,60,42
201.31502,202.0209,63,60,42
202.0209,202.31502,61,60,42
202.37384,203.34444,58,60,42
203.43266,204.07973,61,60,42
204.13855,204.19737,53,60,42
204.31502,204.37384,53,63,42
204.49149,204.57973,56,66,42
204.84442,204.90326,56,72,42
205.0209,205.07973,56,75,42
205.19737,205.2856,61,78,42
205.55031,205.63855,65,85,42
205.90326,206.19737,68,92,42
206.2562,206.31502,56,60,42
206.43266,206.49149,56,60,42
206.60913,206.66795,56,84,42
206.7856,206.84442,58,64,42
206.96208,207.0209,58,95,42
207.13855,207.19737,60,72,42
207.31502,207.37384,60,106,42
207.49149,207.55031,61,80,42
207.66795,207.72678,61,117,42
207.84442,207.90324,63,88,42
208.0209,208.31502,65,92,42
208.37384,208.43266,53,60,42
208.55031,208.60913,53,60,42
208.72678,209.0209,56,60,42
209.07973,209.13855,56,60,42
209.2562,209.31502,56,65,42
209.43266,209.5209,61,70,42
209.7856,209.87384,65,81,42
210.13855,210.43266,68,92,42
210.49149,210.55031,56,60,42
210.66795,210.72678,56,60,42
210.84442,210.90324,56,84,42
211.02089,211.07973,58,64,42
211.19737,211.2562,58,95,42
211.37384,211.43266,60,72,42
211.55031,211.60913,60,106,42
211.72678,211.7856,61,80,42
211.90324,211.96207,61,117,42
212.07971,212.13855,63,88,42
212.2562,212.55031,65,92,42
212.60913,212.66795,65,92,42
212.7856,212.84442,65,92,42
212.96207,213.2562,61,92,42
213.31502,213.37384,61,92,42
213.49149,213.55031,61,92,42
213.66795,213.72678,56,92,42
213.84442,213.90324,58,92,42
214.02089,214.07971,54,92,42
214.19737,214.2562,56,92,42
214.37384,214.99149,53,92,42
215.07971,215.69736,56,92,42
215.7856,216.07971,44,92,42
216.13853,216.43266,48,92,42
216.49149,216.7856,53,92,42
217.90324,218.19736,44,92,42
218.25618,218.55031,39,92,42
218.60913,218.90324,44,92,42
220.02089,220.315,48,92,42
220.37384,220.66795,43,92,42
220.72678,221.34442,48,92,42
221.43266,222.05031,51,92,42
222.13853,222.43266,43,92,42
222.49149,222.7856,47,92,42
222.84442,223.46207,48,92,42
223.55031,224.16795,51,92,42
224.25618,224.55031,43,92,42
224.60913,224.90324,47,92,42
224.96207,225.25618,48,92,42
225.315,225.48781,55,90,42
225.49147,225.66428,55,89,42
225.66795,225.96207,51,88,42
226.02089,226.19368,48,85,42
226.19736,226.37015,48,84,42
226.37383,226.54663,46,83,42
226.5503,226.7231,48,81,42
226.72678,226.89957,44,79,42
226.90324,227.07603,46,77,42
227.07971,227.37383,43,75,42
227.43265,227.60545,55,75,42
227.60913,227.78192,55,75,42
227.7856,228.07971,59,75,42
228.13853,228.31133,59,75,42
228.315,228.4878,59,75,42
228.49147,228.66428,62,75,42
228.66795,228.84074,64,75,42
228.84442,229.01721,60,75,42
229.02089,229.19368,62,75,42
229.19736,229.49147,59,60,42
231.315,231.60912,55,92,42
231.66794,231.84074,55,92,42
231.84442,232.01721,55,92,42
232.02089,232.315,59,92,42
232.37383,232.54662,59,92,42
232.5503,232.7231,59,92,42
232.72676,232.89957,62,92,42
232.90324,233.07603,64,92,42
233.07971,233.2525,60,92,42
233.25618,233.42897,62,92,42
233.43265,233.72676,59,60,42
235.90324,236.07603,50,92,42
236.07971,236.2525,50,92,42
236.25618,236.5503,55,92,42
236.60912,236.7819,50,92,42
236.78558,236.95839,50,92,42
236.96207,237.25618,55,92,42
237.315,237.4878,50,92,42
237.49147,237.66426,50,92,42
237.66794,237.96207,55,92,42
256.95456,257.2879,63,63,42
257.2879,257.45108,57,45,42
257.62125,257.95456,58,45,42
257.95456,258.11777,67,45,42
259.62122,259.6768,65,45,42
259.7879,259.84344,67,48,42
259.95456,260.01013,68,51,42
260.12122,260.1768,65,55,42
260.2879,260.62122,69,82,42
260.62122,260.78442,70,67,42
260.95456,261.20108,58,75,42
261.20456,261.28442,58,75,42
261.2879,261.53442,57,75,42
261.5379,261.61777,57,75,42
261.62122,261.86777,58,75,42
261.87122,261.95108,58,81,42
261.95456,262.20108,63,83,42
262.20456,262.28442,63,89,42
262.2879,262.53442,65,92,42
262.5379,262.61777,65,92,42
262.62122,262.86777,65,90,42
262.87122,262.95108,67,83,42
262.95456,263.23233,63,81,42
263.62122,263.89902,46,60,42
264.2879,264.56567,49,60,42
264.95456,265.11777,48,60,42
265.2879,265.45108,48,60,42
265.62122,265.899,53,60,42
266.2879,266.45108,60,60,42
266.62122,266.78442,58,67,42
266.95456,267.23233,51,105,42
267.62122,267.899,53,60,42
268.2879,268.56567,46,60,42
268.95456,269.23233,46,92,42
269.62122,269.899,49,92,42
270.28787,270.56567,48,92,42
270.62122,270.6768,50,92,42
270.78787,270.84344,52,92,42
270.95456,271.23233,53,92,42
271.28787,271.34344,53,92,42
271.45456,271.5101,53,92,42
271.62122,271.78442,51,92,42
271.95456,272.11774,50,92,42
272.28787,272.62122,51,92,42
272.62122,272.78442,48,92,42
272.95456,273.11774,55,92,42
273.28787,273.45108,62,92,42
273.62122,273.78442,62,92,42
273.95456,274.11774,62,92,42
274.28787,274.45108,58,92,42
274.62122,274.78442,57,76,42
274.95456,275.11774,55,60,42
275.28787,275.45108,62,60,42
275.62122,275.7844,58,60,42
275.95456,276.11774,62,60,42
276.28787,276.45108,58,60,42
276.62122,276.7844,62,60,42
276.95456,277.0101,55,92,42
277.12122,277.17676,50,92,42
277.28787,277.34344,52,92,42
277.45456,277.5101,54,92,42
277.62122,277.70456,55,92,42
277.95456,278.03787,57,92,42
278.28787,278.37122,58,75,42
278.95453,279.23233,54,75,42
279.62122,279.899,53,75,42
279.95453,280.0101,55,75,42
280.12122,280.17676,57,75,42
280.28787,280.56564,58,75,42
280.62122,280.67676,58,75,42
280.78787,280.84344,58,75,42
280.95453,281.11774,56,75,42
281.28787,281.45108,55,75,42
281.62122,281.95453,56,75,42
281.95453,282.11774,53,75,42
282.28787,282.45108,55,75,42
282.62122,282.7844,55,75,42
282.95453,283.11774,55,75,42
283.28787,283.45108,55,75,42
283.62122,283.7844,51,75,42
283.95453,284.11774,62,72,42
284.28787,284.45108,60,68,42
284.62122,284.7844,67,64,42
284.95453,285.11774,63,60,42
285.28787,285.45108,67,60,42
285.62122,285.7844,63,60,42
285.95453,286.11774,67,60,42
286.28787,286.45105,63,60,42
286.62122,286.7844,65,60,42
286.95453,287.11774,62,60,42
287.28787,287.45105,65,60,42
287.62122,287.7844,62,60,42
287.95453,288.11774,65,59,42
288.28787,288.45105,62,57,42
288.62122,288.7844,65,55,42
290.28787,290.56564,65,63,42
290.6212,290.67676,65,45,42
290.78787,290.8434,65,45,42
290.95453,291.2323,65,63,42
291.28787,291.3434,65,45,42
291.45453,291.5101,65,45,42
291.6212,291.899,65,45,42
293.6212,293.899,65,63,42
293.95453,294.01007,65,45,42
294.1212,294.17676,65,45,42
294.28787,294.56564,53,84,42
294.6212,294.67676,55,60,42
294.78787,294.8434,57,60,42
294.95453,295.2323,58,84,42
295.28787,295.3434,58,60,42
295.45453,295.51007,58,60,42
295.6212,295.67676,57,60,42
295.95453,296.01007,58,60,42
296.28787,296.6212,62,60,42
296.6212,296.7844,60,45,42
296.95453,297.20105,62,45,42
297.20453,297.2844,62,56,42
297.28787,297.5344,63,59,42
297.53787,297.6177,63,71,42
297.6212,297.95453,67,75,42
297.95453,298.1177,65,60,42
298.28787,298.6212,70,63,42
298.6212,298.7844,64,45,42
298.95453,299.28784,65,45,42
299.28784,299.45105,53,45,42
300.28784,300.56564,65,45,42
300.6212,300.67676,65,45,42
300.78784,300.8434,65,45,42
300.95453,301.01007,60,45,42
301.1212,301.17676,62,47,42
301.28784,301.3434,63,49,42
301.45453,301.51007,60,51,42
301.6212,302.20453,65,74,42
302.95453,303.2323,70,105,42
303.28784,303.3434,70,75,42
303.45453,303.51007,70,75,42
303.6212,303.8677,65,75,42
303.8712,303.95105,65,75,42
303.95453,304.20105,64,75,42
304.20453,304.2844,64,75,42
304.28784,304.5344,65,75,42
304.53784,304.6177,65,81,42
304.6212,304.8677,70,83,42
304.8712,304.95105,70,89,42
304.95453,305.20105,60,92,42
305.20453,305.2844,60,92,42
305.28784,305.5344,60,86,42
305.53784,305.6177,65,67,42
305.6212,305.8677,62,60,42
305.8712,305.95105,62,60,42
305.95453,306.20105,61,60,42
306.20453,306.28436,61,60,42
306.28784,306.53436,62,60,42
306.53784,306.6177,62,60,42
306.6212,306.8677,67,60,42
306.8712,306.95105,67,60,42
306.95453,307.20105,69,60,42
307.20453,307.28436,69,60,42
307.28784,307.53436,69,60,42
307.53784,307.6177,70,60,42
307.6212,307.8677,67,60,42
307.8712,307.95105,58,60,42
307.95453,308.20105,57,60,42
308.20453,308.28436,57,60,42
308.28784,308.53436,58,60,42
308.53784,308.6177,58,60,42
308.6212,308.8677,63,60,42
308.8712,308.95105,63,60,42
308.95453,309.20105,65,60,42
309.20453,309.28436,65,60,42
309.28784,309.53436,65,60,42
309.53784,309.6177,67,60,42
309.6212,309.8677,63,60,42
309.8712,309.95105,55,60,42
309.9545,310.20105,54,60,42
310.2045,310.28436,54,60,42
310.28784,310.53436,55,60,42
310.53784,310.6177,55,60,42
310.6212,310.8677,60,60,42
310.8712,310.95105,60,60,42
310.9545,311.20105,62,60,42
311.2045,311.28436,62,60,42
311.28784,311.53436,62,60,42
311.53784,311.6177,63,60,42
311.6212,311.8677,60,60,42
311.8712,311.95105,60,68,42
311.9545,312.20105,63,70,42
312.2045,312.28436,63,78,42
312.28784,312.53436,60,80,42
312.53784,312.6177,60,89,42
312.6212,312.8677,62,92,42
312.8712,312.95105,62,92,42
312.9545,313.20105,60,92,42
313.2045,313.28436,60,80,42
313.28784,313.53436,58,76,42
313.53784,313.6177,58,64,42
313.6212,313.8677,57,60,42
313.8712,313.95105,60,60,42
313.9545,314.20105,59,45,42
314.2045,314.28436,59,45,42
314.28784,314.53436,60,45,42
314.53784,314.6177,60,45,42
314.6212,314.8677,65,45,42
314.8712,314.95105,65,45,42
314.9545,315.20105,67,45,42
315.2045,315.28436,67,45,42
315.28784,315.53436,67,45,42
315.53784,315.6177,70,45,42
315.6212,316.2045,69,45,42
316.28784,316.8712,72,45,42
316.9545,317.28784,60,45,42
317.28784,317.5656,64,45,42
317.6212,317.8712,65,45,42
317.8712,317.95102,60,45,42
317.9545,318.20102,59,45,42
318.2045,318.28436,59,45,42
318.28784,318.53436,60,45,42
318.53784,318.6177,60,45,42
318.6212,318.8677,69,45,42
318.8712,318.95102,69,45,42
318.9545,319.20102,67,45,42
319.2045,319.28436,67,45,42
319.28784,319.53436,67,45,42
319.53784,319.6177,70,45,42
319.62115,320.2045,69,45,42
320.28784,320.87115,72,52,42
320.9545,321.03784,60,59,42
321.28784,321.37115,64,63,42
321.62115,321.89896,65,67,42
322.28784,322.87115,65,105,42
322.9545,323.53784,69,105,42
323.62115,323.89896,57,75,42
323.9545,324.23227,60,75,42
324.28784,324.87115,65,75,42
324.9545,325.53784,69,105,42
325.62115,325.89896,57,75,42
325.9545,326.23227,60,75,42
326.28784,326.87115,65,75,42
326.9545,327.53784,69,105,42
327.62115,328.2045,60,105,42
328.28784,328.5656,48,76,42
328.62115,328.89893,53,76,42
328.9545,329.53784,57,76,42
329.62115,330.2045,60,107,42
330.2878,330.87115,63,109,42
330.9545,331.23227,53,79,42
331.2878,331.5656,57,79,42
331.62115,332.2045,60,80,42
332.2878,332.87115,63,114,42
332.9545,333.23227,53,84,42
333.2878,333.5656,57,85,42
333.62115,334.21774,60,86,42
334.30298,334.3912,63,88,42
334.6559,334.74414,60,89,42
335.00885,335.1026,57,90,42
335.38385,335.4776,53,91,42
335.75885,336.3765,58,92,42
336.46475,337.0824,62,105,42
337.17062,337.46475,50,75,42
337.52356,337.5824,54,75,42
337.5824,337.6412,55,72,42
337.6412,337.70004,54,68,42
337.70004,337.75885,55,64,42
337.75885,337.8177,52,60,42
337.8177,337.87283,54,60,42
337.8765,338.49414,55,84,42
344.22943,344.84708,51,105,42
344.93533,345.55298,55,105,42
345.6412,345.93533,43,75,42
345.99414,346.05298,47,75,42
346.05298,346.1118,48,75,42
346.1118,346.17062,47,75,42
346.17062,346.22943,48,75,42
346.22943,346.28827,45,75,42
346.28827,346.3434,47,75,42
346.34708,346.96472,48,105,42
347.05298,347.67062,48,60,42
347.75885,348.3765,51,60,42
348.46472,348.55298,43,60,42
348.8177,348.9059,47,60,42
349.17062,349.78827,48,84,42
349.8765,349.96472,41,60,42
350.22943,350.31766,45,60,42
350.58237,350.67062,46,60,42
350.93533,351.02356,38,60,42
351.28827,351.3765,39,60,42
351.6412,351.72943,41,60,42
351.99414,352.29535,46,60,42
354.2306,354.88684,52,92,42
354.9806,355.63684,55,105,42
355.7306,355.82434,43,75,42
356.1056,356.19934,46,75,42
356.4806,357.13684,48,105,42
357.2306,357.88684,52,105,42
357.9806,358.63684,55,105,42
358.7306,358.82434,43,75,42
359.1056,359.19934,46,75,42
359.4806,360.13684,49,105,42
360.2306,360.88684,52,105,42
360.9806,361.07434,55,60,42
361.3556,361.44934,58,53,42
361.7306,362.4806,61,63,42
362.4806,368.0431,37,45,42
368.1056,368.7931,37,63,42
368.8556,369.5431,37,63,42
369.6056,370.2931,37,63,42
370.3556,371.0431,37,63,42
371.1056,372.5431,37,63,42
372.6056,373.2931,37,63,42
373.3556,374.0431,37,63,42
374.1056,374.7931,37,63,42
374.8556,375.5431,37,63,42
375.6056,376.2931,37,63,42
376.3556,377.0431,37,63,42
377.1056,378.5431,37,63,42
378.6056,378.69934,37,45,42
378.9806,379.07434,37,45,42
379.3556,379.44934,37,45,42
379.7306,381.9806,37,45,42
381.9806,382.63684,41,45,42
401.20233,401.85858,52,92,42
401.95233,402.60858,55,105,42
402.70233,402.79608,43,75,42
403.07733,403.17108,46,75,42
403.45233,404.10858,48,105,42
404.20233,404.85858,52,105,42
404.95233,405.60858,55,105,42
405.70233,405.79608,43,75,42
406.07733,406.17108,46,75,42
406.45233,407.10858,49,105,42
407.20233,407.85858,52,105,42
407.95233,408.04608,55,75,42
408.32733,408.42108,58,75,42
408.70233,408.79608,58,45,42
408.79608,408.88983,62,45,42
408.88983,408.98358,58,45,42
408.98358,409.07733,62,45,42
409.07733,409.17108,58,45,42
409.17108,409.26483,62,45,42
409.26483,409.35858,58,45,42
409.35858,409.45233,62,45,42
409.45233,409.54608,58,45,42
409.54608,409.63983,62,45,42
409.63983,409.73358,58,45,42
409.73358,409.82733,62,45,42
409.82733,409.92108,58,45,42
409.92108,410.01483,62,45,42
410.01483,410.10858,58,45,42
410.10858,410.19843,62,45,42
410.20233,410.29608,57,45,42
410.29608,410.38983,60,45,42
410.38983,410.48358,57,45,42
410.48358,410.57733,60,45,42
410.57733,410.67108,57,45,42
410.67108,410.76483,60,45,42
410.76483,410.85858,57,45,42
410.85858,410.95233,60,45,42
410.95233,411.04608,55,63,42
411.04608,411.13983,58,45,42
411.13983,411.23358,55,45,42
411.23358,411.32733,58,45,42
411.32733,411.42108,55,45,42
411.42108,411.51483,58,45,42
411.51483,411.60858,55,45,42
411.60858,411.69843,58,45,42
411.70233,411.79608,53,45,42
411.79608,411.88983,57,45,42
411.88983,411.98358,53,45,42
411.98358,412.07733,57,45,42
412.07733,412.17108,53,45,42
412.17108,412.26483,57,45,42
412.26483,412.35858,53,45,42
412.35858,412.45233,57,45,42
412.45233,412.54608,53,45,42
412.54608,412.63983,57,45,42
412.63983,412.73358,53,45,42
412.73358,412.82733,57,45,42
412.82733,412.92108,53,45,42
412.92108,413.01483,57,45,42
413.01483,413.10858,53,45,42
413.10858,413.19843,57,45,42
413.20233,413.29608,51,45,42
413.29608,413.38983,55,45,42
413.38983,413.48358,51,45,42
413.48358,413.57733,55,45,42
413.57733,413.67108,51,45,42
413.67108,413.76483,55,45,42
413.76483,413.85858,51,45,42
413.85858,413.95233,55,45,42
413.95233,414.04608,50,63,42
414.04608,414.13983,53,45,42
414.13983,414.23358,50,45,42
414.23358,414.32733,53,45,42
414.32733,414.42108,50,45,42
414.42108,414.51483,53,45,42
414.51483,414.60858,50,45,42
414.60858,414.69843,53,45,42
414.70233,414.79608,50,45,42
414.79608,414.88983,53,45,42
414.88983,414.98358,50,45,42
414.98358,415.07733,53,45,42
415.07733,415.17108,50,45,42
415.17108,415.26483,53,45,42
415.26483,415.35858,50,45,42
415.35858,415.45233,53,45,42
415.45233,415.54608,48,63,42
415.54608,415.63983,51,45,42
415.63983,415.73358,48,45,42
415.73358,415.82733,51,45,42
415.82733,415.92108,48,45,42
415.92108,416.01483,51,45,42
416.01483,416.10858,48,45,42
416.10858,416.19843,51,45,42
416.20233,416.29608,46,45,42
416.29608,416.38983,50,45,42
416.38983,416.48358,46,45,42
416.48358,416.57733,50,45,42
416.57733,416.67108,46,45,42
416.67108,416.76483,50,45,42
416.76483,416.85858,46,45,42
416.85858,416.95233,50,45,42
416.95233,417.04608,45,63,42
417.04608,417.13983,48,45,42
417.13983,417.23358,45,45,42
417.23358,417.32733,48,45,42
417.32733,417.42108,45,45,42
417.42108,417.51483,48,45,42
417.51483,417.60858,45,45,42
417.60858,417.69843,48,45,42
417.70233,417.79608,46,45,42
417.79608,417.88983,50,45,42
417.88983,417.98358,46,45,42
417.98358,418.07733,50,45,42
418.07733,418.17108,46,45,42
418.17108,418.26483,50,45,42
418.26483,418.35858,46,45,42
418.35858,418.45233,50,45,42
418.45233,418.54608,48,45,42
418.54608,418.63983,51,48,42
418.63983,418.73358,48,51,42
418.73358,418.82733,51,55,42
418.82733,418.92108,50,59,42
418.92108,419.01483,53,63,42
419.01483,419.10858,50,67,42
419.10858,419.19843,53,71,42
419.20233,419.29608,48,75,42
419.29608,419.38983,51,75,42
419.38983,419.48358,48,71,42
419.48358,419.57733,51,67,42
419.57733,419.67108,46,63,42
419.67108,419.76483,50,59,42
419.76483,419.85858,46,55,42
419.85858,419.95233,50,50,42
419.95233,420.04608,46,45,42
420.04608,420.13983,50,45,42
420.13983,420.23358,46,45,42
420.23358,420.32733,50,45,42
420.32733,420.42108,45,45,42
420.42108,420.51483,48,45,42
420.51483,420.60858,45,45,42
420.60858,420.69843,48,45,42
420.70233,420.79608,50,45,42
420.79608,420.88983,53,45,42
420.88983,420.98358,50,45,42
420.98358,421.07733,53,45,42
421.07733,421.17108,50,45,42
421.17108,421.26483,53,45,42
421.26483,421.35858,50,45,42
421.35858,421.45233,53,45,42
421.45233,421.54608,48,63,42
421.54608,421.63983,51,45,42
421.63983,421.73358,48,45,42
421.73358,421.82733,51,45,42
421.82733,421.92108,48,45,42
421.92108,422.01483,51,45,42
422.01483,422.10858,48,45,42
422.10858,422.19843,51,45,42
422.20233,422.29608,46,45,42
422.29608,422.38983,50,45,42
422.38983,422.48358,46,45,42
422.48358,422.57733,50,45,42
422.57733,422.67108,46,45,42
422.67108,422.76483,50,45,42
422.76483,422.85858,46,45,42
422.85858,422.95233,50,45,42
422.95233,423.04608,45,63,42
423.04608,423.13983,48,45,42
423.13983,423.23358,45,45,42
423.23358,423.32733,48,45,42
423.32733,423.42108,45,45,42
423.42108,423.51483,48,45,42
423.51483,423.60858,45,45,42
423.60858,423.69843,48,45,42
423.70233,423.79608,46,45,42
423.79608,423.88983,50,45,42
423.88983,423.98358,46,45,42
423.98358,424.07733,50,45,42
424.07733,424.17108,46,45,42
424.17108,424.26483,50,45,42
424.26483,424.35858,46,45,42
424.35858,424.45233,50,45,42
424.45233,424.54608,48,45,42
424.54608,424.63983,51,48,42
424.63983,424.73358,48,51,42
424.73358,424.82733,51,55,42
424.82733,424.92108,50,59,42
424.92108,425.01483,53,63,42
425.01483,425.10858,50,67,42
425.10858,425.19843,53,71,42
425.20233,425.29608,48,75,42
425.29608,425.38983,51,75,42
425.38983,425.48358,48,71,42
425.48358,425.57733,51,67,42
425.57733,425.67108,46,63,42
425.67108,425.76483,50,59,42
425.76483,425.85858,46,55,42
425.85858,425.95233,50,50,42
425.95233,426.04608,46,45,42
426.04608,426.13983,50,45,42
426.13983,426.23358,46,45,42
426.23358,426.32733,50,45,42
426.32733,426.42108,45,60,42
426.42108,426.51483,48,60,42
426.51483,426.60858,45,60,42
426.60858,426.69843,48,60,42
426.70233,427.35858,58,105,42
427.45233,428.10858,62,105,42
428.20233,428.29608,50,75,42
428.57733,428.63983,54,75,42
428.63983,428.70233,55,72,42
428.70233,428.76483,54,68,42
428.76483,428.82733,55,64,42
428.82733,428.88983,52,60,42
428.88983,428.94843,54,60,42
428.95233,429.60858,55,105,42
429.70233,430.35858,48,105,42
430.45233,431.10858,51,105,42
431.20233,431.29608,55,75,42
431.57733,431.67108,59,75,42
431.95233,432.51483,60,105,42
432.51483,432.57733,58,75,42
432.57733,432.63983,57,75,42
432.63983,432.69843,55,75,42
432.70233,432.79608,53,75,42
433.07733,433.17108,57,75,42
433.45233,434.01483,58,105,42
434.01483,434.07733,56,75,42
434.07733,434.13983,55,75,42
434.13983,434.19843,53,75,42
434.20233,434.38593,51,75,42
434.57733,434.76562,50,75,42
434.96194,435.15778,53,75,42
435.36194,435.55777,41,75,42
437.87958,438.409,51,105,42
438.409,438.4678,49,60,42
438.4678,438.52664,48,60,42
438.52664,438.5818,46,60,42
438.58545,439.2031,44,84,42
439.29135,439.909,60,84,42
439.99722,440.08545,48,76,42
440.35016,440.52295,52,84,42
440.61487,440.7031,54,90,42
440.7031,440.79135,53,92,42
440.79135,440.87958,55,92,42
440.87958,440.9678,53,82,42
440.9678,441.05606,55,71,42
441.05606,441.1443,53,60,42
441.1443,441.2325,55,60,42
441.2325,441.32074,51,60,42
441.32074,441.4053,53,60,42
441.409,442.02664,54,105,42
442.11487,442.7325,58,105,42
442.82074,442.909,49,75,42
443.1737,443.26193,53,77,42
443.52664,443.61487,54,79,42
443.87958,443.9678,56,81,42
444.2325,444.32074,58,83,42
444.58545,444.6737,60,85,42
444.9384,445.02664,61,87,42
445.29135,445.37958,63,89,42
445.6443,446.26193,65,127,42
446.35016,446.9678,50,105,42
446.35016,446.9678,62,105,42
447.05603,447.6737,50,105,42
447.05603,447.6737,66,105,42
447.76193,448.4678,46,105,42
448.4678,448.6406,51,75,42
448.82074,448.99353,51,75,42
449.1737,449.3465,53,75,42
449.52664,449.69943,41,75,42
449.87958,450.49722,50,105,42
450.58545,451.2031,50,105,42
450.58545,451.2031,62,105,42
451.29135,451.909,50,105,42
451.29135,451.909,66,105,42
451.99722,452.7031,46,105,42
452.7031,452.8759,51,75,42
453.05603,453.22882,51,75,42
453.409,453.5818,53,75,42
453.76193,453.93472,41,75,42
454.11487,454.409,46,75,42
454.4678,454.6406,53,92,42
454.6443,454.81708,53,92,42
454.82074,455.11487,53,92,42
455.17368,455.3465,53,92,42
455.35016,455.52295,53,92,42
455.52664,455.82074,53,92,42
455.87958,456.05237,53,84,42
456.05603,456.22882,53,80,42
456.2325,456.52664,53,76,42
456.58545,456.75824,55,68,42
456.76193,456.93472,57,64,42
456.9384,457.2325,58,60,42
459.76193,460.05603,65,60,42
460.11487,460.28766,67,60,42
460.29132,460.4641,69,60,42
460.4678,460.76193,70,60,42
461.17368,461.4678,65,60,42
461.5266,461.69943,67,60,42
461.7031,461.8759,69,58,42
461.87958,462.17368,70,56,42
462.58545,462.87958,65,45,42
462.9384,463.11118,67,45,42
463.11487,463.28766,69,45,42
463.29132,463.58545,70,45,42
463.99722,464.29132,65,45,42
464.35016,464.52295,67,45,42
464.5266,464.69943,69,45,42
464.7031,464.99722,70,45,42
468.29364,468.4701,58,105,42
468.9995,469.61716,62,105,42
469.70538,469.79364,50,75,42
470.05835,470.14658,52,75,42
470.4113,470.4995,53,75,42
470.4995,470.58774,55,73,42
470.58774,470.676,53,71,42
470.676,470.76422,55,69,42
470.76422,470.85245,53,66,42
470.85245,470.94067,55,63,42
470.94067,471.02893,52,60,42
471.02893,471.1135,53,60,42
471.11716,471.4113,46,92,42
473.94067,474.55832,58,105,42
474.64658,475.26422,62,105,42
475.35245,475.44067,50,75,42
475.70538,475.76422,52,75,42
475.9701,476.05832,54,75,42
476.05832,476.14658,53,75,42
476.14658,476.2348,55,73,42
476.2348,476.32303,53,71,42
476.32303,476.4113,55,69,42
476.4113,476.4995,53,66,42
476.4995,476.58774,55,63,42
476.58774,476.676,51,60,42
476.676,476.76053,53,60,42
476.76422,477.05832,54,92,42
479.5398,480.1231,66,63,42
480.20645,480.7898,70,63,42
480.8731,480.95645,58,45,42
481.20645,481.2898,61,45,42
481.5398,482.1231,66,63,42
482.20645,482.7898,70,63,42
482.8731,482.95645,58,45,42
483.20645,483.2898,61,45,42
483.5398,484.1231,66,63,42
484.20645,484.7898,70,63,42
484.8731,484.95645,58,45,42
485.20645,485.2898,61,45,42
485.5398,486.1231,66,63,42
486.20645,486.7898,70,63,42
486.8731,486.95645,58,45,42
487.20645,487.2898,61,45,42
487.5398,488.1231,66,63,42
488.20645,488.7898,70,63,42
488.8731,488.95645,58,45,42
489.20645,489.28976,61,60,42
489.53976,489.8731,59,75,42
489.8731,490.20645,68,75,42
490.20645,490.48422,65,60,42
490.53976,490.6231,61,45,42
490.8731,490.95645,63,45,42
491.20645,491.28976,65,45,42
491.53976,492.1231,66,63,42
492.20645,492.78976,70,63,42
492.8731,492.95645,58,45,42
493.20645,493.28976,61,60,42
493.53976,493.8731,59,75,42
493.8731,494.20645,68,75,42
494.20645,494.48422,65,60,42
494.53976,494.6231,61,45,42
494.8731,494.95645,63,45,42
495.20645,495.28976,65,45,42
495.53976,496.78976,66,60,42
496.8731,497.8731,70,60,42
497.8731,498.15088,68,60,42
498.20645,499.1231,65,60,42
499.20642,499.8731,68,60,42
499.8731,500.15088,66,60,42
500.20642,501.1231,63,60,42
501.20642,501.81754,66,60,42
501.8731,501.92865,58,60,42
502.03976,502.09534,58,60,42
502.20642,502.48422,61,60,42
502.53976,502.5953,66,60,42
502.70642,502.762,66,60,42
502.8731,502.95642,70,60,42
503.20642,503.28976,64,60,42
503.53976,503.81754,65,60,42
503.8731,503.92865,58,60,42
504.03976,504.0953,58,60,42
504.20642,504.48422,62,60,42
504.53976,504.5953,53,60,42
504.70642,504.762,53,65,42
504.8731,504.95642,58,70,42
505.20642,505.28976,62,81,42
505.53976,505.81754,65,92,42
505.8731,505.92865,53,60,42
506.03976,506.0953,53,60,42
506.20642,506.262,53,84,42
506.3731,506.42865,55,64,42
506.53976,506.5953,55,95,42
506.70642,506.762,57,72,42
506.8731,506.92865,57,106,42
507.03976,507.0953,58,80,42
507.20642,507.262,58,117,42
507.3731,507.42865,60,88,42
507.53976,507.81754,62,92,42
507.8731,507.92865,50,60,42
508.03976,508.0953,50,60,42
508.20642,508.4842,53,60,42
508.53976,508.5953,53,60,42
508.70642,508.762,53,65,42
508.8731,508.95642,58,70,42
509.20642,509.28976,62,81,42
509.53976,509.81754,65,92,42
509.87308,509.92865,53,60,42
510.03976,510.0953,53,60,42
510.20642,510.262,53,84,42
510.37308,510.42865,55,60,42
510.53976,510.5953,55,84,42
510.70642,510.762,57,60,42
510.87308,510.92865,57,84,42
511.03976,511.0953,58,60,42
511.20642,511.262,58,84,42
511.37308,511.42865,60,60,42
511.53976,511.81754,62,92,42
512.2064,512.78973,46,84,42
512.8731,512.9564,46,60,42
513.2064,513.28973,46,60,42
513.53973,514.1231,46,84,42
514.2064,514.78973,46,84,42
514.8731,514.9564,46,60,42
515.2064,515.28973,46,60,42
515.53973,516.1231,46,84,42
516.2064,516.78973,46,84,42
516.8731,516.9564,46,60,42
517.2064,517.28973,46,60,42
517.53973,518.1231,46,84,42
518.2064,518.78973,46,84,42
518.8731,518.9564,46,59,42
519.2064,519.28973,46,59,42
519.53973,520.1231,46,82,42
520.2064,520.78973,46,81,42
520.8731,520.9564,46,57,42
521.2064,521.28973,46,57,42
521.53973,522.1231,46,79,42
522.2064,522.78973,46,78,42
522.8731,522.9564,46,55,42
523.2064,523.28973,46,55,42
523.53973,524.1231,46,77,42
524.2064,524.78973,46,75,42
524.87305,524.9564,46,53,42
525.2064,525.28973,46,53,42
525.53973,526.12305,46,74,42
526.2064,526.78973,46,71,42
526.87305,526.9564,46,49,42
527.2064,527.28973,46,48,42
527.53973,528.12305,58,65,42
528.2064,528.78973,62,63,42
528.87305,528.9564,50,45,42
529.2064,529.28973,53,45,42
529.53973,530.12305,58,63,42
530.2064,530.78973,62,63,42
530.87305,530.9564,50,45,42
531.2064,531.28973,53,45,42
531.53973,532.12305,58,63,42
532.2064,532.78973,62,63,42
532.87305,532.9564,50,45,42
533.2064,533.28973,53,45,42
533.53973,534.1574,58,63,42
534.2456,534.90186,62,84,42
534.9956,535.09564,50,76,42
535.3956,535.4956,53,84,42
535.7956,536.3206,58,92,42
536.3956,536.9206,62,92,42
536.9956,537.0706,38,92,42
537.2956,537.3706,40,92,42
537.59564,537.6706,42,92,42
537.6706,537.7456,43,87,42
537.7456,537.8206,42,82,42
537.8206,537.8956,43,77,42
537.8956,537.97064,42,72,42
537.97064,538.0456,43,66,42
538.0456,538.1206,40,60,42
538.1206,538.1925,42,60,42
538.1956,538.2706,43,92,42
538.4956,538.5706,45,92,42
538.7956,538.8706,47,92,42
538.8706,538.9456,48,87,42
538.9456,539.0206,47,82,42
539.0206,539.09564,48,77,42
539.09564,539.1706,47,72,42
539.1706,539.2456,48,66,42
539.2456,539.3206,45,60,42
539.3206,539.3925,47,60,42
539.3956,539.47064,48,75,42
539.6956,539.7706,50,75,42
539.9956,540.0706,51,75,42
540.2956,540.3706,52,77,42
540.59564,540.6706,53,80,42
540.8956,540.97064,55,83,42
541.1956,541.2706,56,86,42
541.4956,541.5706,57,89,42
541.7956,542.3956,46,92,42
542.3956,542.9956,46,92,42
542.9956,543.1425,51,92,42
543.2956,543.4425,51,92,42
543.59564,543.7425,53,92,42
543.8956,544.0425,41,92,42
544.1956,544.4456,46,92,42
544.4956,544.6425,53,92,42
544.6456,544.7925,53,92,42
544.7956,545.0456,53,92,42
545.09564,545.2425,53,87,42
545.2456,545.3925,53,85,42
545.3956,545.6456,53,83,42
545.6956,545.84247,53,78,42
545.84564,545.9925,53,75,42
545.9956,546.2456,53,72,42
546.2956,546.4425,55,66,42
546.4456,546.59247,57,63,42
546.59564,546.84564,58,60,42
546.8956,547.0425,65,60,42
547.0456,547.1925,65,60,42
547.1956,547.4456,65,60,42
547.4956,547.6425,65,60,42
547.6456,547.7925,65,60,42
547.7956,548.0456,65,60,42
548.09564,548.2425,65,60,42
548.2456,548.3925,65,60,42
548.3956,548.6456,65,60,42
548.6956,548.84247,65,60,42
548.84564,548.9925,65,60,42
548.9956,549.2456,65,60,42
549.2956,549.4425,67,60,42
549.4456,549.59247,69,60,42
549.59564,549.8407,70,60,42
550.18384,550.42896,65,60,42
550.47797,550.62195,67,60,42
550.625,550.76904,69,60,42
550.7721,551.01483,70,60,42
551.3546,551.59735,65,60,42
551.6459,551.78845,67,64,42
551.7915,551.9341,69,66,42
551.93713,552.1775,70,68,42
552.51404,552.75446,65,76,42
552.8025,552.9437,67,80,42
552.9467,553.08795,69,82,42
553.091,553.3291,70,84,42
553.6624,553.9005,53,92,42
553.9481,554.088,55,92,42
554.091,554.23083,57,92,42
554.2338,554.46967,58,92,42
554.79987,555.0357,53,82,42
555.0829,555.22144,55,77,42
555.2244,555.363,57,75,42
555.3659,555.59955,58,72,42
555.92664,556.1603,53,60,42
556.20703,556.3443,55,60,42
556.3472,556.4845,57,60,42
556.4874,556.7189,58,60,42
557.04297,557.2744,65,45,42
557.32074,557.4567,67,45,42
557.4596,557.5956,69,45,42
557.5985,557.8279,70,45,42
559.49945,559.83276,53,92,42
559.49945,559.83276,60,92,42
561.2225,561.4485,46,92,42
561.2225,561.6792,53,92,42
561.3379,561.6792,62,92,42
81.54429,81.82207,53,45,45
82.21095,82.48873,56,45,45
82.87762,83.155396,48,45,45
83.21095,83.48873,52,46,45
83.54429,83.82206,53,47,45
84.21095,84.48873,46,49,45
84.54428,84.82206,50,50,45
84.87762,85.155396,51,52,45
85.21095,85.48872,43,54,45
85.54428,85.82206,44,56,45
85.87762,86.155396,46,58,45
86.21095,86.48872,51,60,45
86.87762,87.155396,48,45,45
87.54428,87.82206,51,45,45
88.210945,88.48872,43,47,45
88.54428,88.82206,47,48,45
88.87761,89.15539,48,49,45
89.54428,89.82206,41,51,45
89.87761,90.15539,45,52,45
90.210945,90.37414,46,53,45
90.54428,90.70747,38,54,45
90.87761,91.0408,39,56,45
91.210945,91.37414,41,58,45
91.54427,91.82205,46,60,45
92.210945,92.48872,55,60,45
92.87761,93.15539,58,60,45
93.54427,93.82205,50,60,45
93.87761,94.15539,54,60,45
94.21094,94.488716,55,60,45
94.87761,95.15539,48,60,45
95.21094,95.488716,52,60,45
95.54427,95.82205,53,60,45
95.87761,96.15538,45,60,45
96.21094,96.49503,46,60,45
96.55185,96.83594,48,60,45
96.89275,97.18346,41,60,45
382.7306,383.02472,58,45,45
383.43646,383.7306,61,45,45
384.14236,384.43646,53,45,45
384.4953,384.7894,57,45,45
384.84824,385.14236,58,45,45
385.5541,385.84824,51,45,45
385.90704,386.20117,55,45,45
386.26,386.5541,56,45,45
386.61295,386.90704,48,45,45
386.96588,387.26,49,45,45
387.31882,387.61295,51,45,45
387.67175,387.96588,44,45,45
388.37766,388.67175,53,60,45
389.08353,389.37766,56,60,45
389.7894,390.08353,48,60,45
390.14233,390.43646,52,60,45
390.4953,390.7894,53,60,45
391.20117,391.4953,46,60,45
391.5541,391.84824,50,60,45
391.90704,392.20117,51,60,45
392.25998,392.5541,43,60,45
392.61295,392.90704,44,60,45
392.96588,393.25998,46,60,45
393.31882,393.61295,51,60,45
394.0247,394.31882,60,60,45
394.7306,395.0247,63,60,45
395.43646,395.7306,55,60,45
395.7894,396.08353,59,60,45
396.14233,396.43646,60,60,45
396.84824,397.14233,53,60,45
397.20117,397.4953,57,60,45
397.5541,397.84824,58,60,45
397.90704,398.20117,50,60,45
398.25998,398.5541,51,60,45
398.61295,398.90704,53,60,45
398.96588,399.2671,46,60,45
0.8333325,0.999999,53,45,0
0.999999,1.1666656,62,45,0
1.1666656,1.3298597,65,45,0
1.4999985,1.666665,53,45,0
1.666665,1.8333315,62,47,0
1.8333315,1.9965258,65,49,0
1.999998,2.1666646,63,51,0
2.1666646,2.333331,65,53,0
2.333331,2.4999976,62,55,0
2.4999976,2.666664,65,57,0
2.666664,2.8333304,60,60,0
2.8333304,2.999997,65,60,0
2.999997,3.1666634,60,60,0
3.1666634,3.3298578,53,45,0
3.33333,3.4999964,62,45,0
3.4999964,3.666663,65,52,0
3.666663,3.8333294,60,60,0
3.8333294,3.999996,65,68,0
3.999996,4.1666627,58,76,0
4.1666627,4.333329,70,84,0
4.333329,4.4999957,65,92,0
4.4999957,4.66319,58,92,0
4.666662,4.8333287,70,60,0
4.8333287,4.999995,69,60,0
4.999995,5.1666613,67,55,0
5.1666613,5.333328,72,50,0
5.333328,5.4999943,69,45,0
5.4999943,5.666661,65,45,0
5.666661,5.8333273,64,45,0
5.8333273,5.996522,63,45,0
5.999994,6.1666603,62,45,0
6.1666603,6.333327,53,46,0
6.333327,6.4999933,62,47,0
6.4999933,6.663188,65,48,0
6.8333263,6.999993,53,50,0
6.999993,7.1666594,62,51,0
7.1666594,7.329854,65,52,0
7.333326,7.4999924,63,53,0
7.4999924,7.666659,65,54,0
7.666659,7.8333254,62,56,0
7.8333254,7.999992,65,58,0
7.999992,8.166658,60,60,0
8.166658,8.333325,65,60,0
8.333325,8.499991,53,60,0
8.499991,8.663186,60,60,0
8.666658,8.833324,58,60,0
8.833324,8.999991,70,60,0
8.999991,9.166657,60,75,0
9.166657,9.333324,70,75,0
9.333324,9.49999,63,92,0
9.49999,9.666657,70,92,0
9.666657,9.8333235,62,75,0
9.8333235,9.996518,70,75,0
9.99999,10.1666565,61,63,0
10.1666565,10.333323,64,45,0
10.333323,10.4999895,70,45,0
10.4999895,10.666656,61,45,0
10.666656,10.833323,62,45,0
10.833323,10.999989,65,45,0
10.999989,11.166656,70,45,0
11.166656,11.32985,62,45,0
11.333322,11.499989,61,45,0
11.499989,11.666655,64,45,0
11.666655,11.833322,70,45,0
11.833322,11.999988,61,45,0
11.999988,12.166655,62,45,0
12.166655,12.333321,65,45,0
12.333321,12.499988,70,45,0
12.499988,12.663181,62,45,0
12.666654,12.833321,57,45,0
12.833321,12.999987,65,45,0
12.999987,13.166654,60,45,0
13.166654,13.33332,57,45,0
13.33332,13.499987,58,45,0
13.499987,13.666653,65,46,0
13.666653,13.83332,62,47,0
13.83332,13.996513,58,48,0
13.999986,14.166653,57,49,0
14.166653,14.333319,65,50,0
14.333319,14.499986,60,51,0
14.499986,14.666652,57,52,0
14.666652,14.833319,58,53,0
14.833319,14.999985,65,54,0
14.999985,15.166652,62,56,0
15.166652,15.329845,58,58,0
15.333318,15.499985,58,60,0
15.499985,15.666651,70,60,0
15.666651,15.833318,58,60,0
15.833318,15.999984,70,60,0
15.999984,16.16665,58,60,0
16.16665,16.333317,70,68,0
16.333317,16.499983,62,76,0
16.499983,16.663177,70,84,0
16.66665,16.837105,67,92,0
16.837105,17.007559,70,92,0
17.007559,17.178013,69,82,0
17.178013,17.344917,63,71,0
17.348469,17.639166,62,60,0
18.054447,18.332224,84,84,0
18.38778,18.443335,86,62,0
18.554447,18.610003,88,63,0
18.721113,18.99889,89,89,0
19.054445,19.11,89,66,0
19.221113,19.276669,89,67,0
19.38778,19.550974,87,68,0
19.721111,19.884306,86,71,0
20.054445,20.387777,87,75,0
20.387777,20.550972,84,45,0
20.721111,20.967638,82,45,0
20.971111,21.050972,82,56,0
21.054443,21.300972,84,59,0
21.304443,21.384304,84,71,0
21.387777,21.72111,86,75,0
21.72111,21.884304,82,60,0
22.054443,22.109999,88,60,0
22.22111,22.276665,89,60,0
22.387775,22.44333,91,60,0
22.554443,22.609999,93,60,0
22.72111,23.304441,89,60,0
23.387775,23.665552,84,60,0
23.721107,23.776663,86,60,0
23.887775,23.94333,88,60,0
24.054441,24.332218,89,60,0
24.387774,24.443329,89,60,0
24.554441,24.609997,89,60,0
24.721107,24.884302,87,60,0
25.05444,25.217634,86,60,0
25.387774,25.721106,87,75,0
25.721106,25.8843,84,45,0
26.05444,26.300966,82,45,0
26.30444,26.3843,82,56,0
26.387772,26.6343,84,59,0
26.637772,26.717632,84,71,0
26.721106,27.054438,86,75,0
27.054438,27.217632,82,60,0
27.387772,27.721104,94,45,0
27.721104,27.884298,88,45,0
28.054438,28.38777,89,45,0
28.38777,28.550964,77,45,0
28.721104,28.88777,61,63,0
28.88777,29.054436,64,45,0
29.054436,29.221102,70,45,0
29.221102,29.384296,61,45,0
29.38777,29.554436,62,45,0
29.554436,29.721102,65,45,0
29.721102,29.887768,70,45,0
29.887768,30.050962,62,45,0
30.054436,30.109991,84,45,0
30.221102,30.276657,86,46,0
30.387768,30.443323,87,47,0
30.554434,30.60999,84,49,0
30.721102,31.304434,89,71,0
32.7211,32.967625,77,75,0
32.9711,33.05096,77,75,0
33.054432,33.30096,76,75,0
33.304432,33.384293,76,75,0
33.387764,33.639896,77,75,0
33.643448,33.725124,77,78,0
33.728676,33.980804,82,79,0
33.984356,34.066032,82,82,0
34.069584,34.327576,84,83,0
34.33121,34.414787,84,86,0
34.41842,34.676414,84,87,0
34.680046,34.763622,86,90,0
34.767258,35.37772,70,92,0
34.767258,35.37772,82,92,0
35.46493,36.075397,74,92,0
35.46493,36.075397,86,92,0
36.162605,36.25084,62,92,0
36.162605,36.25084,74,92,0
36.515545,36.603783,66,92,0
36.515545,36.603783,78,92,0
36.86849,37.486134,67,92,0
36.86849,37.486134,79,92,0
37.907703,37.991035,62,45,0
37.907703,37.991035,67,45,0
37.907703,37.991035,70,45,0
38.574368,38.6577,62,45,0
38.574368,38.6577,67,45,0
38.574368,38.6577,74,45,0
38.9077,38.991035,62,45,0
38.9077,38.991035,66,45,0
39.241035,39.324368,62,45,0
39.241035,39.324368,69,45,0
39.9077,39.99103,62,45,0
39.9077,39.99103,67,45,0
39.9077,39.99103,70,45,0
40.24103,40.324368,60,45,0
40.24103,40.324368,64,45,0
40.24103,40.324368,72,45,0
40.574368,40.6577,60,45,0
40.574368,40.6577,67,45,0
40.574368,40.6577,70,45,0
40.9077,41.18548,60,45,0
40.9077,41.18548,65,45,0
40.9077,41.18548,69,45,0
41.24103,41.51881,60,45,0
41.24103,41.51881,65,45,0
41.574364,41.858456,62,45,0
41.574364,41.858456,65,45,0
41.574364,41.858456,67,45,0
41.915276,42.199364,58,45,0
41.915276,42.199364,64,45,0
41.915276,42.199364,72,45,0
42.256184,42.54688,57,45,0
42.256184,42.54688,65,45,0
42.953857,43.578854,70,92,0
42.953857,43.578854,82,92,0
43.66814,44.29314,74,92,0
43.66814,44.29314,86,92,0
44.382423,44.47171,62,92,0
44.382423,44.47171,74,92,0
44.739567,44.828854,66,92,0
44.739567,44.828854,78,92,0
45.09671,45.721706,67,92,0
45.09671,45.721706,79,92,0
45.810993,45.92864,82,45,0
45.92864,46.046288,84,45,0
46.046288,46.163933,81,45,0
46.163933,46.28158,82,45,0
46.28158,46.399227,84,45,0
46.399227,46.516876,85,45,0
46.516876,46.63452,86,45,0
46.63452,46.75217,91,45,0
46.75217,46.869816,87,45,0
46.869816,46.987465,86,45,0
46.987465,47.10511,82,45,0
47.10511,47.222755,84,45,0
47.222755,47.340405,86,45,0
47.340405,47.45805,87,45,0
47.45805,47.5757,86,45,0
47.5757,47.693344,84,45,0
47.693344,47.810993,86,45,0
47.810993,47.92864,84,45,0
47.92864,48.046288,82,45,0
48.046288,48.163933,84,45,0
48.163933,48.28158,81,45,0
48.28158,48.399227,79,45,0
48.399227,48.516872,81,45,0
48.516872,48.63452,77,45,0
48.63452,48.752167,76,45,0
48.752167,48.869816,84,45,0
48.869816,48.98746,83,45,0
48.98746,49.10511,86,45,0
49.10511,49.222755,84,45,0
49.222755,49.340405,82,45,0
49.340405,49.45805,81,45,0
49.45805,49.5757,82,45,0
49.5757,49.693344,84,45,0
49.693344,49.81099,86,45,0
49.81099,49.92864,88,45,0
49.92864,50.046284,89,45,0
50.046284,50.163933,91,45,0
50.163933,50.281578,93,45,0
50.281578,50.399227,90,45,0
50.399227,50.516872,91,45,0
50.516872,50.63452,93,45,0
50.63452,50.752167,91,45,0
50.752167,51.05337,89,45,0
51.475056,51.568806,79,92,0
51.568806,51.662556,77,92,0
51.662556,51.756306,79,92,0
51.756306,51.850056,77,92,0
51.850056,51.943806,79,92,0
51.943806,52.037556,77,91,0
52.037556,52.131306,79,90,0
52.131306,52.225056,77,89,0
52.225056,52.318806,79,88,0
52.318806,52.412556,77,87,0
52.412556,52.506306,79,86,0
52.506306,52.600056,77,85,0
52.600056,52.693806,79,84,0
52.693806,52.787556,77,82,0
52.787556,52.881306,79,80,0
52.881306,52.975056,77,78,0
52.975056,53.068806,79,76,0
53.068806,53.162556,77,74,0
53.162556,53.256306,79,72,0
53.256306,53.350056,77,70,0
53.350056,53.443806,79,68,0
53.443806,53.537556,77,66,0
53.537556,53.631306,79,64,0
53.631306,53.725056,77,62,0
53.725056,53.818806,79,60,0
53.818806,53.912556,77,60,0
53.912556,54.006306,79,60,0
54.006306,54.100056,77,60,0
54.100056,54.193806,79,60,0
54.193806,54.287556,77,60,0
54.287556,54.381306,79,60,0
54.381306,54.47115,77,60,0
54.475056,54.568806,79,92,0
54.568806,54.662556,77,92,0
54.662556,54.756306,79,92,0
54.756306,54.850056,77,92,0
54.850056,54.943806,79,92,0
54.943806,55.037556,77,91,0
55.037556,55.131306,79,90,0
55.131306,55.225056,77,89,0
55.225056,55.318806,79,88,0
55.318806,55.412556,77,87,0
55.412556,55.506306,79,86,0
55.506306,55.600056,77,85,0
55.600056,55.693806,79,84,0
55.693806,55.787556,77,82,0
55.787556,55.881306,79,80,0
55.881306,55.975056,77,78,0
55.975056,56.068806,79,76,0
56.068806,56.162556,77,74,0
56.162556,56.256306,79,72,0
56.256306,56.350056,77,70,0
56.350056,56.443806,79,68,0
56.443806,56.537556,77,66,0
56.537556,56.631306,79,64,0
56.631306,56.725056,77,62,0
56.725056,56.818806,79,60,0
56.818806,56.912556,77,60,0
56.912556,57.006306,79,60,0
57.006306,57.100056,77,60,0
57.100056,57.193806,79,60,0
57.193806,57.287556,77,60,0
57.287556,57.381306,79,60,0
57.381306,57.47115,77,60,0
57.475056,57.568806,80,92,0
57.568806,57.662556,77,92,0
57.662556,57.756306,80,92,0
57.756306,57.850056,77,92,0
57.850056,57.943806,80,92,0
57.943806,58.037556,77,91,0
58.037556,58.131306,80,90,0
58.131306,58.225056,77,89,0
58.225056,58.318806,80,88,0
58.318806,58.412556,77,87,0
58.412556,58.506306,80,86,0
58.506306,58.600056,77,85,0
58.600056,58.693806,80,84,0
58.693806,58.787556,77,82,0
58.787556,58.881306,80,80,0
58.881306,58.975056,77,78,0
58.975056,59.068806,80,76,0
59.068806,59.162556,77,74,0
59.162556,59.256306,80,72,0
59.256306,59.350056,77,70,0
59.350056,59.443806,80,68,0
59.443806,59.537556,77,66,0
59.537556,59.631306,80,64,0
59.631306,59.725056,77,62,0
59.725056,59.818806,83,60,0
59.818806,59.912556,80,60,0
59.912556,60.006306,83,60,0
60.006306,60.100056,80,60,0
60.100056,60.193806,83,60,0
60.193806,60.287556,80,60,0
60.287556,60.381306,83,60,0
60.381306,60.47115,80,60,0
60.475056,60.568806,84,45,0
60.568806,60.662556,80,45,0
60.662556,60.756306,84,45,0
60.756306,60.850056,80,45,0
60.850056,60.943806,84,45,0
60.943806,61.037556,80,45,0
61.037556,61.131306,84,45,0
61.131306,61.225056,80,45,0
61.225056,61.318806,84,45,0
61.318806,61.412556,80,45,0
61.412556,61.506306,84,45,0
61.506306,61.600056,80,45,0
61.600056,61.693806,84,45,0
61.693806,61.787556,80,45,0
61.787556,61.881306,84,45,0
61.881306,61.975056,80,45,0
61.975056,62.068806,82,45,0
62.068806,62.162556,79,45,0
62.162556,62.256306,82,45,0
62.256306,62.350056,79,45,0
62.350056,62.443806,82,45,0
62.443806,62.537556,79,45,0
62.537556,62.631306,82,45,0
62.631306,62.725056,79,45,0
62.725056,62.818806,80,75,0
62.818806,62.912556,77,75,0
62.912556,63.006306,80,71,0
63.006306,63.100056,77,67,0
63.100056,63.193806,80,63,0
63.193806,63.287556,77,59,0
63.287556,63.381306,80,55,0
63.381306,63.47115,77,50,0
63.475056,63.568806,79,45,0
63.568806,63.662556,75,45,0
63.662556,63.756306,79,45,0
63.756306,63.850056,75,45,0
63.850056,63.943806,79,45,0
63.943806,64.03756,75,45,0
64.03756,64.13131,79,45,0
64.13131,64.22506,75,45,0
64.22506,64.31881,79,45,0
64.31881,64.41256,75,45,0
64.41256,64.50631,79,45,0
64.50631,64.60006,75,45,0
64.60006,64.69381,79,45,0
64.69381,64.78756,75,45,0
64.78756,64.88131,79,45,0
64.88131,64.97506,75,45,0
64.97506,65.06881,77,45,0
65.06881,65.16256,73,45,0
65.16256,65.25631,77,45,0
65.25631,65.35006,73,45,0
65.35006,65.44381,77,45,0
65.44381,65.53756,73,45,0
65.53756,65.63131,77,45,0
65.63131,65.72506,73,45,0
65.72506,65.81881,75,75,0
65.81881,65.91256,72,75,0
65.91256,66.00631,75,75,0
66.00631,66.10006,72,70,0
66.10006,66.19381,75,65,0
66.19381,66.28756,72,60,0
66.28756,66.38131,75,55,0
66.38131,66.47115,72,50,0
66.47506,66.56881,75,45,0
66.56881,66.66256,72,45,0
66.66256,66.75631,75,45,0
66.75631,66.85006,72,45,0
66.85006,66.94381,75,45,0
66.94381,67.03756,72,45,0
67.03756,67.13131,75,45,0
67.13131,67.22506,72,45,0
67.22506,67.31881,73,75,0
67.31881,67.41256,70,75,0
67.41256,67.50631,73,75,0
67.50631,67.60006,70,70,0
67.60006,67.69381,73,65,0
67.69381,67.78756,70,60,0
67.78756,67.88131,73,55,0
67.88131,67.97506,70,50,0
67.97506,68.06881,72,45,0
68.06881,68.16256,68,45,0
68.16256,68.25631,72,45,0
68.25631,68.35006,68,45,0
68.35006,68.44381,72,45,0
68.44381,68.53756,68,45,0
68.53756,68.63131,72,45,0
68.63131,68.72506,68,45,0
68.72506,68.81881,70,75,0
68.81881,68.91256,67,75,0
68.91256,69.00631,70,75,0
69.00631,69.10006,67,70,0
69.10006,69.19381,70,65,0
69.19381,69.28756,67,60,0
69.28756,69.38131,70,55,0
69.38131,69.47115,67,50,0
69.47506,69.56881,72,45,0
69.56881,69.66256,68,45,0
69.66256,69.75631,72,45,0
69.75631,69.85006,68,45,0
69.85006,69.94381,72,45,0
69.94381,70.03756,68,48,0
70.03756,70.13131,72,51,0
70.13131,70.22506,68,55,0
70.22506,70.31881,73,59,0
70.31881,70.41256,70,63,0
70.41256,70.50631,73,67,0
70.50631,70.60006,70,71,0
70.60006,70.69381,75,75,0
70.69381,70.78756,72,75,0
70.78756,70.88131,75,75,0
70.88131,70.97506,72,75,0
70.97506,71.06881,73,75,0
71.06881,71.16256,70,72,0
71.16256,71.25631,73,69,0
71.25631,71.35006,70,65,0
71.35006,71.44381,72,61,0
71.44381,71.53756,68,57,0
71.53756,71.63131,72,53,0
71.63131,71.72506,68,49,0
71.72506,71.81881,72,45,0
71.81881,71.91256,68,45,0
71.91256,72.00631,72,45,0
72.00631,72.10006,68,45,0
72.10006,72.19381,70,45,0
72.19381,72.28756,67,45,0
72.28756,72.38131,70,45,0
72.38131,72.47115,67,45,0
72.47506,72.56881,75,45,0
72.56881,72.66256,72,45,0
72.66256,72.75631,75,45,0
72.75631,72.85006,72,45,0
72.85006,72.94381,75,45,0
72.94381,73.03756,72,45,0
73.03756,73.13131,75,45,0
73.13131,73.22506,72,45,0
73.22506,73.31881,73,75,0
73.31881,73.41256,70,75,0
73.41256,73.50631,73,75,0
73.50631,73.60006,70,70,0
73.60006,73.69381,73,65,0
73.69381,73.78756,70,60,0
73.78756,73.88131,73,55,0
73.88131,73.97506,70,50,0
73.97506,74.06881,72,45,0
74.06881,74.16256,68,45,0
74.16256,74.25631,72,45,0
74.25631,74.35006,68,45,0
74.35006,74.44381,72,45,0
74.44381,74.53756,68,45,0
74.53756,74.63131,72,45,0
74.63131,74.72506,68,45,0
74.72506,74.81881,70,75,0
74.81881,74.91256,67,75,0
74.91256,75.00631,70,75,0
75.00631,75.10006,67,70,0
75.10006,75.19381,70,65,0
75.19381,75.28756,67,60,0
75.28756,75.38131,70,55,0
75.38131,75.47115,67,50,0
75.47506,75.56881,72,45,0
75.56881,75.66256,68,45,0
75.66256,75.75631,72,45,0
75.75631,75.85006,68,45,0
75.85006,75.94381,72,45,0
75.94381,76.03756,68,47,0
76.03756,76.13131,72,49,0
76.13131,76.22506,68,51,0
76.22506,76.31881,73,53,0
76.31881,76.41256,70,55,0
76.41256,76.50631,73,57,0
76.50631,76.60006,70,60,0
76.60006,76.69381,75,63,0
76.69381,76.78756,72,66,0
76.78756,76.88131,75,69,0
76.88131,76.97506,72,72,0
76.97506,77.06881,73,75,0
77.06881,77.16256,70,75,0
77.16256,77.25631,73,75,0
77.25631,77.35006,70,75,0
77.35006,77.44381,72,75,0
77.44381,77.53756,68,72,0
77.53756,77.63131,72,69,0
77.63131,77.72506,68,65,0
77.72506,77.81881,72,61,0
77.81881,77.91256,68,57,0
77.91256,78.00631,72,53,0
78.00631,78.10006,68,49,0
78.10006,78.19381,70,45,0
78.19381,78.28756,67,45,0
78.28756,78.38131,70,45,0
78.38131,78.47115,67,45,0
78.47506,78.56881,75,45,0
78.56881,78.66256,72,45,0
78.66256,78.75631,75,45,0
78.75631,78.85006,72,45,0
78.85006,78.94381,75,45,0
78.94381,79.03756,72,45,0
79.03756,79.13131,75,45,0
79.13131,79.22506,72,45,0
79.22506,79.31881,73,45,0
79.31881,79.41256,70,45,0
79.41256,79.50631,73,44,0
79.50631,79.60006,70,43,0
79.60006,79.69381,73,42,0
79.69381,79.78756,70,41,0
79.78756,79.88131,73,40,0
79.88131,79.97506,70,39,0
79.97506,80.07121,72,38,0
80.07121,80.167366,68,37,0
80.167366,80.26352,72,36,0
80.26352,80.35967,68,35,0
80.35967,80.455826,72,34,0
80.455826,80.55198,68,33,0
80.55198,80.64813,72,32,0
80.64813,80.744286,68,31,0
80.744286,80.844284,70,30,0
80.844284,80.94429,67,30,0
80.94429,81.04429,70,30,0
81.04429,81.14429,67,30,0
81.14429,81.244286,70,30,0
81.244286,81.344284,67,30,0
81.344284,81.44429,70,30,0
81.44429,81.54012,67,30,0
81.54429,81.79082,68,30,0
81.79429,81.849846,80,45,0
81.87762,81.96095,80,45,0
82.12762,82.183174,82,45,0
82.21095,82.46095,84,45,0
82.46095,82.54082,89,45,0
82.54429,82.62762,84,45,0
82.79429,82.84984,84,46,0
82.87762,82.96095,84,46,0
83.12762,83.183174,84,47,0
83.21095,83.29429,83,47,0
83.46095,83.51651,82,48,0
83.54429,83.62762,80,48,0
83.79428,83.84984,79,49,0
83.87762,83.96095,77,49,0
84.12762,84.183174,75,50,0
84.21095,84.29428,74,50,0
84.46095,84.51651,82,51,0
84.54428,84.62762,82,51,0
84.79428,84.84984,82,52,0
84.87762,85.124146,82,52,0
85.12762,85.20748,84,53,0
85.21095,85.45747,86,53,0
85.46095,85.54081,87,54,0
85.54428,85.79081,89,54,0
85.79428,85.874146,89,56,0
85.87762,86.124146,89,56,0
86.12762,86.20747,91,59,0
86.21095,86.48872,87,60,0
87.210945,87.374146,67,45,0
87.210945,87.374146,72,45,0
87.210945,87.374146,75,45,0
87.87762,88.04081,67,45,0
87.87762,88.04081,72,45,0
87.87762,88.04081,79,45,0
88.210945,88.37414,67,45,0
88.210945,88.37414,71,45,0
88.54428,88.70747,67,45,0
88.54428,88.70747,74,45,0
89.210945,89.48872,67,46,0
89.210945,89.48872,75,46,0
89.54428,89.70747,65,48,0
89.54428,89.70747,69,48,0
89.54428,89.70747,77,48,0
89.87761,90.04081,65,50,0
89.87761,90.04081,72,50,0
89.87761,90.04081,75,50,0
90.210945,90.37414,65,52,0
90.210945,90.37414,70,52,0
90.210945,90.37414,74,52,0
90.54428,90.70747,65,54,0
90.54428,90.70747,70,54,0
90.87761,91.0408,67,56,0
90.87761,91.0408,70,56,0
90.87761,91.0408,72,56,0
91.210945,91.37414,69,58,0
91.210945,91.37414,72,58,0
91.210945,91.37414,77,58,0
91.54427,91.7908,70,60,0
91.79427,91.84983,77,60,0
91.87761,91.960945,79,60,0
92.12761,92.18317,81,60,0
92.210945,92.32205,82,60,0
92.32205,92.43317,84,60,0
92.43317,92.54427,81,60,0
92.54427,92.65539,82,60,0
92.65539,92.766495,84,60,0
92.766495,92.87761,85,60,0
92.87761,92.98872,86,60,0
92.98872,93.09983,91,60,0
93.09983,93.210945,87,60,0
93.210945,93.32205,86,60,0
93.32205,93.43317,82,60,0
93.43317,93.5408,84,60,0
93.54427,93.65539,86,60,0
93.65539,93.766495,87,60,0
93.766495,93.87761,86,60,0
93.87761,93.988716,84,60,0
93.988716,94.09983,86,60,0
94.09983,94.21094,84,60,0
94.21094,94.32205,82,60,0
94.32205,94.43317,84,60,0
94.43317,94.54427,81,60,0
94.54427,94.65539,79,60,0
94.65539,94.766495,81,60,0
94.766495,94.87761,77,60,0
94.87761,94.988716,76,60,0
94.988716,95.09983,84,60,0
95.09983,95.21094,83,60,0
95.21094,95.32205,86,60,0
95.32205,95.43316,84,60,0
95.43316,95.5408,82,60,0
95.54427,95.65538,81,60,0
95.65538,95.766495,82,60,0
95.766495,95.87761,84,60,0
95.87761,95.988716,86,60,0
95.988716,96.09983,88,60,0
96.09983,96.21094,89,60,0
96.21094,96.32458,91,60,0
96.32458,96.43821,93,60,0
96.43821,96.55185,90,60,0
96.55185,96.66548,91,60,0
96.66548,96.77912,93,60,0
96.77912,96.89275,91,60,0
96.89275,97.063545,89,60,0
97.59874,97.69249,79,92,0
97.69249,97.78624,77,92,0
97.78624,97.87999,79,92,0
97.87999,97.97374,77,92,0
97.97374,98.06749,79,92,0
98.06749,98.16124,77,91,0
98.16124,98.25499,79,90,0
98.25499,98.34874,77,89,0
98.34874,98.44249,79,88,0
98.44249,98.53624,77,87,0
98.53624,98.62999,79,86,0
98.62999,98.72374,77,85,0
98.72374,98.81749,79,84,0
98.81749,98.91124,77,82,0
98.91124,99.00499,79,80,0
99.00499,99.09874,77,78,0
99.09874,99.19249,79,76,0
99.19249,99.28624,77,74,0
99.28624,99.37999,79,72,0
99.37999,99.47374,77,70,0
99.47374,99.56749,79,68,0
99.56749,99.66124,77,66,0
99.66124,99.75499,79,64,0
99.75499,99.84874,77,62,0
99.84874,99.94249,79,60,0
99.94249,100.03624,77,60,0
100.03624,100.12999,79,60,0
100.12999,100.22374,77,60,0
100.22374,100.31749,89,92,0
100.31749,100.41124,77,92,0
100.41124,100.50499,89,92,0
100.50499,100.59483,77,92,0
100.59874,100.69249,79,92,0
100.69249,100.78624,77,92,0
100.78624,100.87999,79,92,0
100.87999,100.97374,77,92,0
100.97374,101.06749,79,92,0
101.06749,101.16124,77,91,0
101.16124,101.25499,79,90,0
101.25499,101.34874,77,89,0
101.34874,101.44249,79,88,0
101.44249,101.53624,77,87,0
101.53624,101.62999,79,86,0
101.62999,101.72374,77,85,0
101.72374,101.81749,79,84,0
101.81749,101.91124,77,82,0
101.91124,102.00499,79,80,0
102.00499,102.09874,77,78,0
102.09874,102.19249,79,76,0
102.19249,102.28624,77,74,0
102.28624,102.37999,79,72,0
102.37999,102.47374,77,70,0
102.47374,102.56749,79,68,0
102.56749,102.66124,77,66,0
102.66124,102.75499,79,64,0
102.75499,102.84874,77,62,0
102.84874,102.94249,79,60,0
102.94249,103.03624,77,60,0
103.03624,103.12999,79,60,0
103.12999,103.22374,77,60,0
103.22374,103.31749,89,92,0
103.31749,103.41124,77,92,0
103.41124,103.50499,89,75,0
103.50499,103.59483,77,75,0
103.59874,103.69249,80,60,0
103.69249,103.78624,77,60,0
103.78624,103.87999,80,60,0
103.87999,103.97374,77,60,0
103.97374,104.06749,80,60,0
104.06749,104.16124,77,61,0
104.16124,104.25499,80,62,0
104.25499,104.34874,77,63,0
104.34874,104.44249,80,64,0
104.44249,104.53624,77,65,0
104.53624,104.62999,80,66,0
104.62999,104.72374,77,67,0
104.72374,104.81749,80,68,0
104.81749,104.91124,77,69,0
104.91124,105.00499,80,70,0
105.00499,105.09874,77,71,0
105.09874,105.19249,80,72,0
105.19249,105.28624,77,73,0
105.28624,105.37999,80,74,0
105.37999,105.47374,77,75,0
105.47374,105.56749,80,76,0
105.56749,105.66124,77,78,0
105.66124,105.75499,80,80,0
105.75499,105.84874,77,82,0
105.84874,105.94249,80,84,0
105.94249,106.03624,77,86,0
106.03624,106.12999,80,88,0
106.12999,106.22374,77,90,0
106.22374,106.31749,89,92,0
106.31749,106.41124,77,92,0
106.41124,106.50499,89,92,0
106.50499,106.59483,77,92,0
106.59874,107.34874,77,45,0
106.59874,107.34874,89,45,0
107.34874,108.09874,81,45,0
107.34874,108.09874,93,45,0
108.09874,108.47374,76,52,0
108.09874,108.47374,88,52,0
108.47374,108.84874,79,56,0
108.47374,108.84874,91,56,0
108.84874,109.41124,77,84,0
108.84874,109.41124,89,84,0
109.41124,109.59483,74,60,0
109.41124,109.59483,86,60,0
109.59874,110.34874,72,60,0
109.59874,110.34874,84,60,0
110.34874,111.09874,76,60,0
110.34874,111.09874,88,60,0
111.09874,111.47374,70,60,0
111.09874,111.47374,82,60,0
111.47374,111.84874,74,60,0
111.47374,111.84874,86,60,0
111.84874,112.41124,72,84,0
111.84874,112.41124,84,84,0
112.41124,112.59483,69,60,0
112.41124,112.59483,81,60,0
112.59874,113.25499,65,60,0
112.59874,113.25499,77,60,0
113.34874,114.00499,72,84,0
113.34874,114.00499,84,84,0
114.09874,114.75499,69,60,0
114.09874,114.75499,81,60,0
114.84874,115.50499,74,84,0
114.84874,115.50499,86,84,0
115.59874,115.97374,72,60,0
115.59874,115.97374,84,60,0
115.97374,116.34874,77,65,0
115.97374,116.34874,89,65,0
116.34874,116.72374,79,70,0
116.34874,116.72374,91,70,0
116.72374,117.03624,81,75,0
116.72374,117.03624,93,75,0
117.09874,117.47374,79,75,0
117.09874,117.47374,91,75,0
117.47374,117.84874,77,75,0
117.47374,117.84874,89,75,0
117.84874,118.22374,69,65,0
117.84874,118.22374,81,65,0
118.22374,118.53624,72,55,0
118.22374,118.53624,84,55,0
118.59874,119.34874,65,45,0
118.59874,119.34874,77,45,0
119.34874,120.09874,72,63,0
119.34874,120.09874,84,63,0
120.09874,120.84874,69,45,0
120.09874,120.84874,81,45,0
120.84874,121.50499,74,63,0
120.84874,121.50499,86,63,0
121.59874,121.97374,72,45,0
121.59874,121.97374,84,45,0
121.97374,122.34874,77,52,0
121.97374,122.34874,89,52,0
122.34874,122.72374,79,59,0
122.34874,122.72374,91,59,0
122.72374,123.03624,81,67,0
122.72374,123.03624,93,67,0
123.09874,123.47374,79,75,0
123.09874,123.47374,91,75,0
123.47374,123.84874,77,75,0
123.47374,123.84874,89,75,0
123.84874,124.22374,69,68,0
123.84874,124.22374,81,68,0
124.22374,124.59874,72,60,0
124.22374,124.59874,84,60,0
124.59874,124.91124,65,92,0
124.59874,124.91124,77,92,0
126.84874,127.41124,74,92,0
126.84874,127.41124,78,92,0
126.84874,127.41124,86,92,0
127.41124,127.47374,84,92,0
127.47374,127.53624,82,82,0
127.53624,127.59874,81,71,0
127.59874,127.78233,79,60,0
129.84874,130.59874,71,92,0
129.84874,130.59874,74,92,0
129.84874,130.59874,79,92,0
129.84874,130.59874,83,92,0
130.59874,130.78233,72,60,0
130.59874,130.78233,76,60,0
130.59874,130.78233,79,60,0
130.59874,130.78233,84,60,0
131.34874,131.72374,69,92,0
131.34874,131.72374,72,92,0
131.34874,131.72374,77,92,0
131.72374,131.81749,79,92,0
131.81749,131.91124,81,82,0
131.91124,132.00499,82,71,0
132.00499,132.09874,84,60,0
132.09874,132.29457,86,75,0
132.49873,132.59874,86,75,0
132.59874,132.69873,88,75,0
132.69873,132.79874,89,75,0
132.79874,132.89874,91,75,0
132.89874,133.10855,93,75,0
133.3273,133.53712,88,75,0
133.3273,133.53712,91,75,0
133.3273,133.53712,96,75,0
133.75587,134.41212,65,84,0
133.75587,134.41212,77,84,0
134.50587,135.16212,69,84,0
134.50587,135.16212,81,84,0
135.25587,135.34962,57,60,0
135.25587,135.34962,69,60,0
135.63087,135.72462,61,60,0
135.63087,135.72462,73,60,0
136.00587,136.75587,62,84,0
136.00587,136.75587,65,84,0
136.00587,136.75587,70,84,0
136.00587,136.75587,74,84,0
136.75587,137.06837,63,60,0
136.75587,137.06837,67,60,0
136.75587,137.06837,70,60,0
136.75587,137.06837,75,60,0
139.00587,139.66212,60,92,0
139.00587,139.66212,63,92,0
139.00587,139.66212,68,92,0
139.75587,140.41212,61,92,0
139.75587,140.41212,73,92,0
140.50587,141.16212,65,92,0
140.50587,141.16212,77,92,0
141.25587,141.34962,56,60,0
141.25587,141.34962,68,60,0
141.63087,141.72462,60,60,0
141.63087,141.72462,72,60,0
142.00587,142.09962,61,64,0
142.00587,142.09962,73,64,0
142.38087,142.47462,63,68,0
142.38087,142.47462,75,68,0
142.75587,142.84962,65,72,0
142.75587,142.84962,77,72,0
143.13087,143.22462,67,77,0
143.13087,143.22462,79,77,0
143.50587,143.59962,68,82,0
143.50587,143.59962,80,82,0
143.88087,143.97462,70,87,0
143.88087,143.97462,82,87,0
144.25587,144.91212,72,92,0
144.25587,144.91212,81,92,0
144.25587,144.91212,84,92,0
145.00587,145.66212,73,92,0
145.00587,145.66212,81,92,0
145.00587,145.66212,85,92,0
145.75587,146.41212,76,92,0
145.75587,146.41212,85,92,0
145.75587,146.41212,88,92,0
146.50587,147.25587,77,92,0
146.50587,147.25587,81,92,0
146.50587,147.25587,84,92,0
146.50587,147.25587,89,92,0
147.25587,147.43947,77,75,0
147.25587,147.43947,82,75,0
147.25587,147.43947,86,75,0
147.63087,147.72462,86,92,0
147.72462,147.81837,88,92,0
147.81837,147.91212,89,92,0
147.91212,148.00587,91,92,0
148.00587,148.18947,93,92,0
148.38087,148.44337,84,92,0
148.38087,148.44337,88,92,0
148.38087,148.44337,91,92,0
148.75587,149.41212,72,92,0
148.75587,149.41212,81,92,0
148.75587,149.41212,84,92,0
149.50587,150.16212,73,92,0
149.50587,150.16212,81,92,0
149.50587,150.16212,85,92,0
150.25587,150.91212,76,92,0
150.25587,150.91212,81,92,0
150.25587,150.91212,85,92,0
150.25587,150.91212,88,92,0
151.00587,151.75587,77,92,0
151.00587,151.75587,81,92,0
151.00587,151.75587,84,92,0
151.00587,151.75587,89,92,0
151.75587,151.93947,77,75,0
151.75587,151.93947,82,75,0
151.75587,151.93947,86,75,0
152.13087,152.22462,86,92,0
152.22462,152.31837,88,92,0
152.31837,152.41212,89,92,0
152.41212,152.50587,91,92,0
152.50587,152.68947,93,92,0
152.88087,152.94337,84,92,0
152.88087,152.94337,88,92,0
152.88087,152.94337,91,92,0
153.25587,153.31837,81,92,0
153.25587,153.31837,84,92,0
153.25587,153.31837,89,92,0
153.63087,153.69337,72,92,0
153.63087,153.69337,76,92,0
153.63087,153.69337,79,92,0
154.00587,154.06837,72,92,0
154.00587,154.06837,77,92,0
154.00587,154.06837,81,92,0
154.38087,154.44337,72,88,0
154.38087,154.44337,76,88,0
154.38087,154.44337,79,88,0
154.75587,154.81837,72,84,0
154.75587,154.81837,77,84,0
154.75587,154.81837,81,84,0
155.13087,155.19337,72,80,0
155.13087,155.19337,76,80,0
155.13087,155.19337,79,80,0
155.50587,155.56837,72,76,0
155.50587,155.56837,77,76,0
155.50587,155.56837,81,76,0
155.88087,155.94337,72,72,0
155.88087,155.94337,79,72,0
156.25587,156.31837,69,66,0
156.25587,156.31837,72,66,0
156.25587,156.31837,77,66,0
156.63087,156.69337,84,60,0
156.63087,156.69337,88,60,0
156.63087,156.69337,91,60,0
157.00587,157.06837,84,60,0
157.00587,157.06837,89,60,0
157.00587,157.06837,93,60,0
157.38087,157.44337,84,60,0
157.38087,157.44337,88,60,0
157.38087,157.44337,91,60,0
157.75587,157.81837,84,60,0
157.75587,157.81837,89,60,0
157.75587,157.81837,93,60,0
158.13087,158.19337,84,60,0
158.13087,158.19337,88,60,0
158.13087,158.19337,91,60,0
158.50587,158.56837,84,60,0
158.50587,158.56837,89,60,0
158.50587,158.56837,93,60,0
158.88087,158.94337,84,60,0
158.88087,158.94337,91,60,0
159.25587,159.43947,81,60,0
159.25587,159.43947,84,60,0
159.25587,159.43947,89,60,0
159.63087,159.81447,79,59,0
159.63087,159.81447,84,59,0
160.00587,160.18947,77,57,0
160.00587,160.18947,81,57,0
160.38087,160.56447,72,55,0
160.38087,160.56447,79,55,0
160.75587,160.93947,69,53,0
160.75587,160.93947,77,53,0
161.13087,161.31447,67,51,0
161.13087,161.31447,72,51,0
161.50587,161.68947,65,49,0
161.50587,161.68947,69,49,0
161.88087,162.06447,60,47,0
161.88087,162.06447,67,47,0
162.25587,162.43947,57,45,0
162.25587,162.43947,65,45,0
162.63087,162.81447,60,45,0
162.63087,162.81447,67,45,0
163.00587,163.18947,57,45,0
163.00587,163.18947,65,45,0
163.38087,163.56447,60,45,0
163.38087,163.56447,67,45,0
163.75587,163.93947,57,45,0
163.75587,163.93947,65,45,0
164.13087,164.31447,60,45,0
164.13087,164.31447,67,45,0
164.50587,164.68947,57,45,0
164.50587,164.68947,65,45,0
164.88087,165.06447,60,45,0
164.88087,165.06447,67,45,0
165.25587,165.56837,57,45,0
165.25587,165.56837,65,45,0
168.33382,168.99007,65,105,0
168.33382,168.99007,77,105,0
169.08382,169.74007,69,105,0
169.08382,169.74007,81,105,0
169.83382,169.92757,57,75,0
169.83382,169.92757,69,75,0
170.20882,170.30257,59,75,0
170.20882,170.30257,71,75,0
170.58382,171.33382,60,105,0
170.58382,171.33382,64,105,0
170.58382,171.33382,67,105,0
170.58382,171.33382,70,105,0
170.58382,171.33382,72,105,0
171.33382,171.64632,60,92,0
171.33382,171.64632,65,92,0
171.33382,171.64632,69,92,0
174.40305,175.0593,65,105,0
174.40305,175.0593,77,105,0
175.15305,175.8093,69,105,0
175.15305,175.8093,81,105,0
175.90305,175.9968,57,75,0
175.90305,175.9968,69,75,0
176.27805,176.3718,58,75,0
176.27805,176.3718,70,75,0
176.65305,177.40305,64,105,0
176.65305,177.40305,67,105,0
176.65305,177.40305,70,105,0
176.65305,177.40305,72,105,0
177.40305,177.71555,65,92,0
177.40305,177.71555,68,92,0
177.40305,177.71555,73,92,0
180.84444,181.46208,56,45,0
180.84444,181.46208,61,45,0
180.84444,181.46208,65,45,0
181.55032,181.63857,56,45,0
181.55032,181.63857,61,45,0
181.55032,181.63857,65,45,0
181.90326,181.9915,56,45,0
181.90326,181.9915,61,45,0
181.90326,181.9915,65,45,0
182.25621,182.34444,56,45,0
182.25621,182.34444,60,45,0
182.25621,182.34444,66,45,0
182.96208,183.57973,56,45,0
182.96208,183.57973,61,45,0
182.96208,183.57973,65,45,0
183.66797,183.75621,56,45,0
183.66797,183.75621,61,45,0
183.66797,183.75621,65,45,0
184.0209,184.10915,56,45,0
184.0209,184.10915,61,45,0
184.0209,184.10915,65,45,0
184.37386,184.46208,56,45,0
184.37386,184.46208,60,45,0
184.37386,184.46208,63,45,0
185.07973,185.69737,56,45,0
185.07973,185.69737,61,45,0
185.07973,185.69737,65,45,0
185.78561,185.87386,56,45,0
185.78561,185.87386,61,45,0
185.78561,185.87386,65,45,0
186.13855,186.22679,56,45,0
186.13855,186.22679,61,45,0
186.13855,186.22679,65,45,0
186.4915,186.57973,56,45,0
186.4915,186.57973,60,45,0
186.4915,186.57973,66,45,0
187.19737,187.81503,56,45,0
187.19737,187.81503,61,45,0
187.19737,187.81503,65,45,0
187.90326,187.9915,56,45,0
187.90326,187.9915,61,45,0
187.90326,187.9915,65,45,0
188.2562,188.34444,56,45,0
188.2562,188.34444,61,45,0
188.2562,188.34444,65,45,0
188.60915,188.69737,56,45,0
188.60915,188.69737,60,45,0
188.60915,188.69737,63,45,0
189.31502,189.93268,56,45,0
189.31502,189.93268,61,45,0
189.31502,189.93268,65,45,0
190.0209,190.10915,56,55,0
190.0209,190.10915,61,55,0
190.0209,190.10915,65,55,0
190.37386,190.46208,56,60,0
190.37386,190.46208,61,60,0
190.37386,190.46208,65,60,0
190.72679,190.81502,56,65,0
190.72679,190.81502,61,65,0
190.72679,190.81502,65,65,0
191.43268,192.05032,56,75,0
191.43268,192.05032,60,75,0
191.43268,192.05032,66,75,0
192.13855,192.22679,56,75,0
192.13855,192.22679,60,75,0
192.13855,192.22679,66,75,0
192.4915,192.57973,56,60,0
192.4915,192.57973,61,60,0
192.4915,192.57973,66,60,0
192.84444,192.93266,56,45,0
192.84444,192.93266,63,45,0
192.84444,192.93266,66,45,0
193.55032,194.16797,56,45,0
193.55032,194.16797,61,45,0
193.55032,194.16797,65,45,0
194.2562,194.34444,56,60,0
194.2562,194.34444,61,60,0
194.2562,194.34444,65,60,0
194.60915,194.69737,56,67,0
194.60915,194.69737,61,67,0
194.60915,194.69737,65,67,0
194.96208,195.05032,56,75,0
194.96208,195.05032,61,75,0
194.96208,195.05032,65,75,0
195.66797,196.28561,56,60,0
195.66797,196.28561,60,60,0
195.66797,196.28561,66,60,0
196.37384,196.46208,56,60,0
196.37384,196.46208,60,60,0
196.37384,196.46208,66,60,0
196.72679,196.81502,56,60,0
196.72679,196.81502,61,60,0
196.72679,196.81502,66,60,0
197.07973,197.16797,56,60,0
197.07973,197.16797,63,60,0
197.07973,197.16797,66,60,0
197.43266,197.72679,56,60,0
197.43266,197.72679,61,60,0
197.43266,197.72679,65,60,0
197.78561,197.84444,68,60,0
197.96208,198.0209,68,60,0
198.13855,198.31502,68,60,0
198.31502,198.48781,70,60,0
198.49149,198.66797,70,60,0
198.66797,198.84076,72,60,0
198.84444,199.0209,72,60,0
199.0209,199.1937,73,60,0
199.19737,199.37384,73,60,0
199.37384,199.54663,75,60,0
199.55031,199.72679,75,60,0
199.72679,199.89958,77,60,0
199.90326,200.07973,77,60,0
200.07973,200.25252,78,60,0
200.2562,200.43266,78,60,0
200.43266,200.60545,80,60,0
200.60913,200.78561,80,60,0
200.78561,200.9584,82,60,0
200.96208,201.13855,82,60,0
201.13855,201.31134,84,60,0
201.31502,201.49149,84,60,0
201.49149,201.66428,85,60,0
201.66795,201.84444,85,60,0
201.84444,202.01723,87,60,0
202.0209,202.19737,87,60,0
202.19737,202.37016,89,60,0
202.37384,202.55031,89,60,0
202.55031,202.72311,90,60,0
202.72678,202.90326,90,60,0
202.90326,203.07605,92,60,0
203.07973,203.2562,92,60,0
203.2562,203.42899,94,60,0
203.43266,203.60913,94,60,0
203.60913,203.78194,96,60,0
203.7856,204.07973,97,60,0
204.13855,204.31502,89,60,0
204.31502,204.48781,85,60,0
204.49149,204.66795,85,60,0
204.66795,204.84076,80,60,0
204.84442,205.0209,80,60,0
205.0209,205.1937,77,60,0
205.19737,205.37384,77,60,0
205.37384,205.54663,73,60,0
205.55031,205.72678,73,60,0
205.72678,205.89958,68,60,0
206.2562,206.87384,56,60,0
206.2562,206.87384,60,60,0
206.2562,206.87384,66,60,0
206.96208,207.2562,56,72,0
206.96208,207.2562,60,72,0
206.96208,207.2562,66,72,0
207.31502,207.60913,56,78,0
207.31502,207.60913,61,78,0
207.31502,207.60913,66,78,0
207.66795,207.96208,56,85,0
207.66795,207.96208,63,85,0
207.66795,207.96208,66,85,0
208.0209,208.31502,56,92,0
208.0209,208.31502,61,92,0
208.0209,208.31502,65,92,0
208.37384,208.55031,89,92,0
208.55031,208.7231,85,88,0
208.72678,208.90324,85,84,0
208.90324,209.07605,80,80,0
209.07973,209.2562,80,76,0
209.2562,209.42899,77,72,0
209.43266,209.60913,77,68,0
209.60913,209.78192,73,64,0
209.7856,209.96207,73,60,0
209.96207,210.13487,68,60,0
210.49149,211.10913,56,60,0
210.49149,211.10913,60,60,0
210.49149,211.10913,66,60,0
211.19737,211.49149,56,72,0
211.19737,211.49149,60,72,0
211.19737,211.49149,66,72,0
211.55031,211.84442,56,78,0
211.55031,211.84442,61,78,0
211.55031,211.84442,66,78,0
211.90324,212.19737,56,85,0
211.90324,212.19737,63,85,0
211.90324,212.19737,66,85,0
212.2562,212.55031,56,92,0
212.2562,212.55031,61,92,0
212.2562,212.55031,65,92,0
213.66795,213.7562,65,92,0
213.66795,213.7562,68,92,0
213.66795,213.7562,73,92,0
214.02089,214.10913,68,92,0
214.02089,214.10913,72,92,0
214.02089,214.10913,75,92,0
214.37384,214.66795,68,92,0
214.37384,214.66795,73,92,0
214.37384,214.66795,77,92,0
215.7856,216.07971,68,92,0
215.7856,216.07971,72,92,0
215.7856,216.07971,77,92,0
216.13853,216.43266,72,91,0
216.13853,216.43266,76,91,0
216.13853,216.43266,79,91,0
216.49149,217.10913,72,90,0
216.49149,217.10913,77,90,0
216.49149,217.10913,80,90,0
217.19736,217.81502,72,87,0
217.19736,217.81502,84,87,0
217.90324,218.19736,60,84,0
217.90324,218.19736,72,84,0
218.25618,218.55031,63,83,0
218.25618,218.55031,75,83,0
218.60913,218.90324,68,82,0
218.60913,218.90324,80,82,0
218.96207,219.13486,75,81,0
219.13853,219.31134,75,80,0
219.315,219.60913,72,79,0
219.66795,219.84074,72,77,0
219.84442,220.01721,72,76,0
220.02089,220.19368,67,75,0
220.19736,220.37016,68,75,0
220.37384,220.54663,65,75,0
220.55031,220.7231,67,75,0
220.72678,221.34442,63,92,0
220.72678,221.34442,72,92,0
221.43266,222.05031,75,92,0
222.13853,222.43266,67,92,0
222.49149,222.7856,71,92,0
222.84442,223.46207,72,92,0
223.55031,224.16795,75,92,0
224.25618,224.55031,67,92,0
224.60913,224.90324,71,92,0
224.96207,225.25618,72,92,0
225.315,225.48781,67,88,0
225.49147,225.66428,67,86,0
225.66795,225.96207,63,84,0
226.02089,226.19368,60,80,0
226.19736,226.37015,60,78,0
226.37383,226.54663,58,75,0
226.5503,226.7231,60,75,0
226.72678,226.89957,56,75,0
226.90324,227.07603,58,75,0
227.07971,227.69736,55,105,0
227.07971,227.69736,67,105,0
227.7856,228.40324,62,105,0
227.7856,228.40324,74,105,0
228.49147,228.57971,62,75,0
228.84442,228.93265,66,75,0
229.19736,229.49147,67,60,0
230.60912,230.69736,71,60,0
230.60912,230.69736,74,60,0
230.60912,230.69736,79,60,0
230.96207,231.0503,72,60,0
230.96207,231.0503,74,60,0
230.96207,231.0503,81,60,0
231.315,231.93265,71,105,0
231.315,231.93265,74,105,0
231.315,231.93265,79,105,0
232.02089,232.63853,74,105,0
232.02089,232.63853,86,105,0
232.72676,232.815,62,75,0
232.72676,232.815,74,75,0
233.07971,233.16794,66,75,0
233.07971,233.16794,78,75,0
233.43265,233.72676,67,60,0
233.43265,233.72676,79,60,0
234.84442,234.93265,71,60,0
234.84442,234.93265,74,60,0
234.84442,234.93265,79,60,0
235.19736,235.28558,72,60,0
235.19736,235.28558,74,60,0
235.19736,235.28558,81,60,0
235.5503,235.63853,71,92,0
235.5503,235.63853,74,92,0
235.5503,235.63853,79,92,0
235.90324,235.99147,74,92,0
235.90324,235.99147,78,92,0
235.90324,235.99147,81,92,0
236.25618,236.3444,74,92,0
236.25618,236.3444,79,92,0
236.25618,236.3444,83,92,0
236.60912,236.69736,74,92,0
236.60912,236.69736,78,92,0
236.60912,236.69736,81,92,0
236.96207,237.0503,74,92,0
236.96207,237.0503,79,92,0
236.96207,237.0503,83,92,0
237.315,237.40323,74,92,0
237.315,237.40323,78,92,0
237.315,237.40323,81,92,0
237.66794,237.96207,71,92,0
237.66794,237.96207,74,92,0
237.66794,237.96207,79,92,0
241.98996,242.6381,58,60,0
241.98996,242.6381,63,60,0
241.98996,242.6381,67,60,0
244.3708,244.54727,58,45,0
244.54727,244.72374,63,45,0
244.54727,244.72374,67,45,0
244.72374,244.89653,58,45,0
245.07668,245.25316,58,45,0
245.25316,245.42963,63,45,0
245.25316,245.42963,67,45,0
245.42963,245.60242,58,45,0
245.77655,245.947,58,45,0
245.947,246.11746,65,45,0
245.947,246.11746,68,45,0
246.11746,246.28436,58,45,0
246.45457,246.62125,58,45,0
246.62125,246.7879,63,46,0
246.7879,246.95111,67,47,0
247.12125,247.2879,58,49,0
247.2879,247.45457,63,50,0
247.45457,247.61777,70,51,0
247.62125,247.7879,68,52,0
247.7879,247.95457,70,54,0
247.95457,248.12125,67,56,0
248.12125,248.2879,70,58,0
248.2879,248.45457,65,60,0
248.45457,248.62125,70,60,0
248.62125,248.7879,65,45,0
248.7879,248.9511,58,45,0
248.95457,249.12125,67,45,0
249.12125,249.2879,70,52,0
249.2879,249.45457,65,59,0
249.45457,249.62125,70,67,0
249.62125,249.7879,63,75,0
249.7879,249.95457,75,75,0
249.95457,250.12125,70,70,0
250.12125,250.28444,63,65,0
250.2879,250.45457,63,60,0
250.45457,250.62125,62,60,0
250.62125,250.7879,60,60,0
250.7879,250.95457,65,60,0
250.95457,251.12123,62,60,0
251.12123,251.2879,70,60,0
251.2879,251.45457,69,60,0
251.45457,251.61777,68,60,0
251.62123,251.7879,67,60,0
251.7879,251.95457,58,60,0
251.95457,252.12123,67,60,0
252.12123,252.28444,70,60,0
252.45457,252.62123,58,60,0
252.62123,252.7879,67,60,0
252.7879,252.9511,70,60,0
252.95457,253.12123,68,60,0
253.12123,253.2879,70,60,0
253.2879,253.45457,67,60,0
253.45457,253.62123,70,60,0
253.62123,253.7879,65,60,0
253.7879,253.95457,70,60,0
253.95457,254.12123,58,60,0
254.12123,254.28442,65,60,0
254.2879,254.45457,63,60,0
254.45457,254.62123,75,65,0
254.62123,254.7879,65,70,0
254.7879,254.95457,75,75,0
254.95457,255.12123,68,75,0
255.12123,255.2879,75,68,0
255.2879,255.45457,67,61,0
255.45457,255.61777,75,53,0
255.62123,255.7879,66,63,0
255.7879,255.95457,69,45,0
255.95457,256.12125,75,45,0
256.12125,256.2879,66,45,0
256.2879,256.45456,67,45,0
256.45456,256.62125,70,45,0
256.62125,256.7879,75,45,0
256.7879,256.95108,67,45,0
256.95456,257.12125,66,63,0
257.12125,257.2879,69,45,0
257.2879,257.45456,75,45,0
257.45456,257.62125,66,45,0
257.62125,257.7879,67,45,0
257.7879,257.95456,70,45,0
257.95456,258.12125,75,45,0
258.12125,258.28442,67,45,0
258.2879,258.45456,62,45,0
258.45456,258.62122,70,46,0
258.62122,258.7879,65,47,0
258.7879,258.95456,62,49,0
258.95456,259.12122,63,51,0
259.12122,259.2879,70,53,0
259.2879,259.45456,67,55,0
259.45456,259.61777,63,57,0
259.62122,259.7879,62,59,0
259.7879,259.95456,70,61,0
259.95456,260.12122,65,63,0
260.12122,260.2879,62,65,0
260.2879,260.45456,63,67,0
260.45456,260.62122,70,69,0
260.62122,260.7879,67,71,0
260.7879,260.95108,63,73,0
260.95456,261.12122,63,75,0
261.12122,261.2879,75,75,0
261.2879,261.45456,63,75,0
261.45456,261.62122,75,75,0
261.62122,261.7879,63,75,0
261.7879,261.95456,75,79,0
261.95456,262.12122,63,83,0
262.12122,262.28442,75,87,0
262.2879,262.45456,72,92,0
262.45456,262.62122,75,92,0
262.62122,262.7879,74,75,0
262.7879,262.95108,68,75,0
262.95456,263.23233,67,60,0
263.62122,263.89902,89,84,0
263.95456,264.0101,91,60,0
264.12122,264.1768,93,60,0
264.2879,264.56567,94,84,0
264.62122,264.6768,94,60,0
264.7879,264.84344,94,60,0
264.95456,265.0101,92,60,0
265.2879,265.34344,91,60,0
265.62122,265.95456,92,60,0
265.95456,266.11774,89,60,0
266.2879,266.53442,87,60,0
266.5379,266.61774,87,72,0
266.62122,266.86774,89,76,0
266.87122,266.95108,89,88,0
266.95456,267.2879,91,92,0
267.2879,267.45108,87,75,0
267.62122,267.6768,93,60,0
267.7879,267.84344,94,60,0
267.95456,268.0101,96,60,0
268.12122,268.1768,98,60,0
268.2879,268.56567,94,60,0
268.95456,269.23233,77,105,0
268.95456,269.23233,89,105,0
269.28787,269.45108,79,75,0
269.28787,269.45108,91,75,0
269.45456,269.61774,81,75,0
269.45456,269.61774,93,75,0
269.62122,269.899,82,105,0
269.62122,269.899,94,105,0
269.95456,270.11774,82,75,0
269.95456,270.11774,94,75,0
270.12122,270.28442,82,75,0
270.12122,270.28442,94,75,0
270.28787,270.45108,80,75,0
270.28787,270.45108,92,75,0
270.62122,270.78442,79,75,0
270.62122,270.78442,91,75,0
270.95456,271.28787,80,105,0
270.95456,271.28787,92,105,0
271.28787,271.45108,77,75,0
271.28787,271.45108,89,75,0
271.62122,271.78787,72,75,0
271.78787,271.95456,67,75,0
271.95456,272.12122,65,75,0
272.12122,272.28787,67,75,0
272.28787,272.45456,63,75,0
272.45456,272.62122,67,75,0
272.62122,272.78787,63,75,0
272.78787,272.95108,60,75,0
272.95456,273.23233,62,105,0
273.28787,273.34344,64,75,0
273.45456,273.5101,66,75,0
273.62122,273.899,67,105,0
273.62122,273.899,74,105,0
273.95456,274.0101,76,75,0
274.12122,274.17676,78,75,0
274.28787,274.56567,79,60,0
274.95456,275.23233,86,60,0
275.28787,275.34344,88,58,0
275.45456,275.5101,90,57,0
275.62122,275.899,91,56,0
276.28787,276.56564,86,51,0
276.62122,276.67676,88,48,0
276.78787,276.84344,90,47,0
276.95456,277.23233,91,45,0
278.28787,278.56564,82,105,0
278.62122,278.67676,84,75,0
278.78787,278.84344,86,75,0
278.95453,279.23233,87,105,0
279.28787,279.34344,87,75,0
279.45453,279.5101,87,75,0
279.62122,279.7844,85,75,0
279.95453,280.11774,84,75,0
280.28787,280.62122,85,105,0
280.62122,280.7844,82,75,0
280.95453,281.12122,77,75,0
281.12122,281.28787,72,75,0
281.28787,281.45453,70,75,0
281.45453,281.62122,72,75,0
281.62122,281.78787,68,75,0
281.78787,281.95453,72,75,0
281.95453,282.12122,68,75,0
282.12122,282.2844,65,75,0
282.28787,282.56564,55,105,0
282.62122,282.67676,57,75,0
282.78787,282.8434,59,75,0
282.95453,283.23233,60,105,0
282.95453,283.23233,67,105,0
283.28787,283.3434,69,75,0
283.45453,283.5101,71,75,0
283.62122,283.899,72,75,0
284.28787,284.56564,79,105,0
284.62122,284.67676,81,73,0
284.78787,284.8434,83,72,0
284.95453,285.23233,84,71,0
285.62122,285.899,91,67,0
285.95453,286.0101,93,65,0
286.12122,286.17676,95,64,0
286.28787,286.3434,96,63,0
286.45453,286.5101,89,62,0
286.62122,286.67676,91,61,0
286.78787,286.8434,93,60,0
286.95453,287.2323,94,59,0
287.62122,287.899,77,55,0
287.95453,288.0101,79,53,0
288.12122,288.17676,81,52,0
288.28787,288.56564,82,51,0
288.95453,289.11774,82,45,0
288.95453,289.11774,86,45,0
289.28787,289.45105,77,45,0
289.28787,289.45105,84,45,0
289.6212,289.7844,74,45,0
289.6212,289.7844,82,45,0
289.95453,290.11774,74,45,0
289.95453,290.11774,77,45,0
290.28787,290.45105,75,45,0
290.28787,290.45105,77,45,0
290.6212,290.7844,74,45,0
290.6212,290.7844,77,45,0
290.78787,290.95105,70,45,0
290.95453,291.11774,69,45,0
290.95453,291.11774,77,45,0
291.28787,291.45105,65,45,0
291.28787,291.45105,77,45,0
291.6212,291.7844,62,45,0
291.6212,291.7844,70,45,0
291.95453,292.1212,65,45,0
291.95453,292.1212,72,45,0
292.1212,292.2844,62,45,0
292.1212,292.2844,70,45,0
292.28787,292.45105,65,45,0
292.28787,292.45105,72,45,0
292.6212,292.7844,70,45,0
292.6212,292.7844,74,45,0
292.95453,293.11774,72,45,0
292.95453,293.11774,75,45,0
293.28787,293.45105,75,45,0
293.28787,293.45105,79,45,0
293.6212,294.20453,69,63,0
293.6212,294.20453,72,63,0
294.28787,294.45105,82,45,0
294.28787,294.45105,86,45,0
294.6212,294.7844,77,45,0
294.6212,294.7844,84,45,0
294.95453,295.11774,74,45,0
294.95453,295.11774,82,45,0
295.28787,295.45105,74,45,0
295.28787,295.45105,77,45,0
295.6212,295.7844,75,45,0
295.6212,295.7844,77,45,0
295.95453,296.1177,74,45,0
295.95453,296.1177,77,45,0
296.1212,296.2844,70,45,0
296.28787,296.45105,69,45,0
296.28787,296.45105,77,45,0
296.6212,296.7844,65,45,0
296.6212,296.7844,77,45,0
296.95453,297.1177,70,45,0
296.95453,297.1177,74,45,0
297.28787,297.45105,70,59,0
297.28787,297.45105,72,59,0
297.28787,297.45105,75,59,0
297.6212,297.7844,70,75,0
297.6212,297.7844,73,75,0
297.6212,297.7844,76,75,0
297.95453,298.1177,70,60,0
297.95453,298.1177,74,60,0
297.95453,298.1177,77,60,0
298.28787,298.45105,73,45,0
298.28787,298.45105,76,45,0
298.6212,298.7844,73,45,0
298.6212,298.7844,76,45,0
298.6212,298.7844,82,45,0
298.95453,299.1177,74,45,0
298.95453,299.1177,77,45,0
298.95453,299.1177,82,45,0
299.28784,299.45105,74,45,0
299.28784,299.45105,77,45,0
299.6212,299.7844,73,45,0
299.6212,299.7844,76,45,0
299.95453,300.1177,73,45,0
299.95453,300.1177,76,45,0
300.28784,300.45105,74,45,0
300.28784,300.45105,77,45,0
300.6212,300.7844,74,45,0
300.6212,300.7844,77,45,0
300.95453,301.1177,65,45,0
300.95453,301.1177,69,45,0
300.95453,301.1177,72,45,0
301.28784,301.45105,65,51,0
301.28784,301.45105,69,51,0
301.28784,301.45105,77,51,0
301.6212,301.7844,65,57,0
301.6212,301.7844,70,57,0
301.6212,301.7844,77,57,0
301.95453,302.1177,65,63,0
301.95453,302.1177,70,63,0
301.95453,302.1177,74,63,0
302.28784,302.56564,65,69,0
302.28784,302.56564,69,69,0
302.28784,302.56564,72,69,0
302.6212,302.7844,65,76,0
302.6212,302.7844,69,76,0
302.6212,302.7844,77,76,0
302.95453,303.1177,65,84,0
302.95453,303.1177,70,84,0
302.95453,303.1177,77,84,0
303.28784,303.45105,65,92,0
303.28784,303.45105,70,92,0
303.28784,303.45105,74,92,0
303.6212,303.7844,70,92,0
303.6212,303.7844,82,92,0
303.95453,304.1177,70,92,0
303.95453,304.1177,82,92,0
304.28784,304.45105,70,92,0
304.28784,304.45105,82,92,0
304.6212,304.7844,70,84,0
304.6212,304.7844,77,84,0
304.95453,305.1177,70,76,0
304.95453,305.1177,72,76,0
304.95453,305.1177,79,76,0
305.28784,305.45105,69,68,0
305.28784,305.45105,75,68,0
305.28784,305.45105,77,68,0
305.6212,305.7844,70,60,0
305.6212,305.7844,74,60,0
305.6212,305.7844,77,60,0
305.95453,306.1177,70,60,0
305.95453,306.1177,73,60,0
305.95453,306.1177,79,60,0
306.28784,306.45105,70,60,0
306.28784,306.45105,74,60,0
306.28784,306.45105,79,60,0
306.6212,306.78436,67,60,0
306.6212,306.78436,70,60,0
306.6212,306.78436,74,60,0
306.95453,307.1177,66,60,0
306.95453,307.1177,72,60,0
306.95453,307.1177,74,60,0
307.28784,307.45105,62,60,0
307.28784,307.45105,72,60,0
307.6212,307.78436,62,60,0
307.6212,307.78436,67,60,0
307.6212,307.78436,70,60,0
307.95453,308.1177,67,60,0
307.95453,308.1177,69,60,0
307.95453,308.1177,75,60,0
308.28784,308.45105,67,60,0
308.28784,308.45105,70,60,0
308.28784,308.45105,75,60,0
308.6212,308.78436,63,60,0
308.6212,308.78436,67,60,0
308.6212,308.78436,70,60,0
308.95453,309.1177,62,60,0
308.95453,309.1177,68,60,0
308.95453,309.1177,70,60,0
309.28784,309.45105,58,60,0
309.28784,309.45105,68,60,0
309.6212,309.89896,58,60,0
309.6212,309.89896,67,60,0
309.9545,310.1177,75,60,0
309.9545,310.1177,78,60,0
309.9545,310.1177,84,60,0
310.28784,310.45105,75,60,0
310.28784,310.45105,79,60,0
310.28784,310.45105,84,60,0
310.6212,310.78436,72,60,0
310.6212,310.78436,75,60,0
310.6212,310.78436,79,60,0
310.9545,311.1177,71,60,0
310.9545,311.1177,77,60,0
310.9545,311.1177,79,60,0
311.28784,311.45105,67,60,0
311.28784,311.45105,77,60,0
311.6212,311.78436,67,60,0
311.6212,311.78436,75,60,0
311.9545,312.1177,63,68,0
311.9545,312.1177,67,68,0
312.28784,312.45105,72,76,0
312.28784,312.45105,75,76,0
312.6212,312.78436,70,84,0
312.6212,312.78436,74,84,0
312.6212,312.78436,75,84,0
312.9545,313.1177,69,92,0
312.9545,313.1177,72,92,0
312.9545,313.1177,76,92,0
313.28784,313.45105,67,75,0
313.28784,313.45105,70,75,0
313.28784,313.45105,76,75,0
313.6212,313.78436,65,60,0
313.6212,313.78436,69,60,0
313.6212,313.78436,77,60,0
313.9545,314.1177,69,45,0
313.9545,314.1177,71,45,0
313.9545,314.1177,77,45,0
314.28784,314.45105,69,45,0
314.28784,314.45105,72,45,0
314.28784,314.45105,77,45,0
314.6212,314.78436,65,45,0
314.6212,314.78436,69,45,0
314.6212,314.78436,72,45,0
314.9545,315.1177,64,45,0
314.9545,315.1177,70,45,0
314.9545,315.1177,72,45,0
315.28784,315.45105,60,45,0
315.28784,315.45105,70,45,0
315.6212,315.78436,60,45,0
315.6212,315.78436,69,45,0
315.9545,316.1177,83,45,0
315.9545,316.1177,89,45,0
316.28784,316.45102,81,45,0
316.28784,316.45102,84,45,0
316.28784,316.45102,89,45,0
316.6212,316.78436,77,45,0
316.6212,316.78436,81,45,0
316.6212,316.78436,84,45,0
316.9545,317.1177,76,45,0
316.9545,317.1177,82,45,0
316.9545,317.1177,84,45,0
317.28784,317.45102,72,45,0
317.28784,317.45102,82,45,0
317.6212,317.78436,72,45,0
317.6212,317.78436,81,45,0
317.9545,318.1177,69,45,0
317.9545,318.1177,71,45,0
317.9545,318.1177,77,45,0
318.28784,318.45102,69,45,0
318.28784,318.45102,72,45,0
318.28784,318.45102,77,45,0
318.6212,318.78436,65,45,0
318.6212,318.78436,69,45,0
318.6212,318.78436,72,45,0
318.9545,319.1177,64,45,0
318.9545,319.1177,70,45,0
318.9545,319.1177,72,45,0
319.28784,319.45102,60,45,0
319.28784,319.45102,70,45,0
319.62115,319.78436,60,45,0
319.62115,319.78436,69,45,0
319.9545,320.1177,83,45,0
319.9545,320.1177,89,45,0
320.28784,320.45102,81,45,0
320.28784,320.45102,84,45,0
320.28784,320.45102,89,45,0
320.62115,320.78436,77,45,0
320.62115,320.78436,81,45,0
320.62115,320.78436,84,45,0
320.9545,321.1177,76,60,0
320.9545,321.1177,82,60,0
320.9545,321.1177,84,60,0
321.28784,321.45102,72,75,0
321.28784,321.45102,82,75,0
321.62115,321.78436,72,92,0
321.62115,321.78436,81,92,0
322.9545,323.53784,65,105,0
323.62115,324.2045,69,105,0
324.28784,324.5656,57,75,0
324.62115,324.89896,60,75,0
324.9545,325.53784,65,75,0
325.62115,326.2045,69,105,0
326.28784,326.5656,57,75,0
326.62115,326.89893,60,75,0
326.9545,327.53784,65,75,0
327.62115,328.2045,69,106,0
328.28784,328.87115,72,107,0
328.9545,329.23227,60,78,0
329.28784,329.5656,65,78,0
329.62115,330.2045,69,78,0
330.2878,330.87115,72,110,0
330.9545,331.5378,75,112,0
331.62115,331.89893,65,81,0
331.9545,332.23227,69,81,0
332.2878,332.87115,72,82,0
332.9545,333.5378,75,117,0
333.62115,333.7064,65,86,0
333.96207,334.0473,69,87,0
334.30298,334.3912,72,88,0
334.6559,334.74414,63,89,0
334.6559,334.74414,75,89,0
335.00885,335.1026,65,90,0
335.00885,335.1026,77,90,0
335.38385,335.4776,69,91,0
335.38385,335.4776,81,91,0
335.75885,336.3765,70,92,0
335.75885,336.3765,82,92,0
336.46475,337.0824,74,105,0
336.46475,337.0824,86,105,0
337.17062,337.25885,62,75,0
337.17062,337.25885,74,75,0
337.52356,337.6118,66,75,0
337.52356,337.6118,78,75,0
337.8765,338.49414,67,75,0
337.8765,338.49414,79,75,0
338.93533,339.02356,62,60,0
338.93533,339.02356,67,60,0
338.93533,339.02356,70,60,0
339.6412,339.72943,62,60,0
339.6412,339.72943,67,60,0
339.6412,339.72943,74,60,0
339.99414,340.0824,62,60,0
339.99414,340.0824,66,60,0
340.34708,340.43533,62,60,0
340.34708,340.43533,69,60,0
341.05298,341.1412,62,60,0
341.05298,341.1412,67,60,0
341.05298,341.1412,70,60,0
341.4059,341.49414,70,60,0
341.4059,341.49414,74,60,0
341.75885,341.84708,70,60,0
341.75885,341.84708,77,60,0
342.1118,342.20004,70,60,0
342.1118,342.20004,79,60,0
342.46472,342.55298,70,60,0
342.46472,342.55298,75,60,0
342.8177,342.9059,72,60,0
342.8177,342.9059,75,60,0
342.8177,342.9059,77,60,0
343.17062,343.25885,68,60,0
343.17062,343.25885,74,60,0
343.17062,343.25885,82,60,0
343.52356,343.8177,67,60,0
343.52356,343.8177,75,60,0
344.22943,344.84708,63,105,0
344.22943,344.84708,75,105,0
344.93533,345.55298,67,105,0
344.93533,345.55298,79,105,0
345.6412,345.72943,55,75,0
345.6412,345.72943,67,75,0
345.99414,346.08237,59,75,0
345.99414,346.08237,71,75,0
346.34708,346.96472,60,105,0
346.34708,346.96472,72,105,0
347.05298,347.16693,87,60,0
347.17062,347.28458,89,60,0
347.28827,347.40222,86,60,0
347.4059,347.51987,87,60,0
347.52356,347.6375,89,60,0
347.6412,347.7552,90,60,0
347.75885,347.87283,91,60,0
347.8765,347.99048,96,60,0
347.99414,348.10812,92,60,0
348.1118,348.22577,91,60,0
348.22943,348.3434,87,60,0
348.34708,348.46106,89,60,0
348.46472,348.5787,91,60,0
348.58237,348.69635,92,60,0
348.7,348.814,91,60,0
348.8177,348.93164,89,60,0
348.93533,349.0493,91,60,0
349.05298,349.16693,89,60,0
349.17062,349.28458,87,60,0
349.28827,349.40222,89,60,0
349.4059,349.51987,86,60,0
349.52356,349.6375,84,60,0
349.6412,349.75516,86,60,0
349.75885,349.87283,82,60,0
349.8765,349.99048,81,60,0
349.99414,350.10812,89,60,0
350.1118,350.22577,88,60,0
350.22943,350.3434,91,60,0
350.34708,350.46106,89,60,0
350.46472,350.5787,87,60,0
350.58237,350.69635,86,60,0
350.7,350.814,87,60,0
350.81766,350.93164,89,60,0
350.93533,351.0493,91,60,0
351.05298,351.16693,93,60,0
351.17062,351.28458,94,60,0
351.28827,351.40222,96,60,0
351.4059,351.51987,98,60,0
351.52356,351.6375,95,60,0
351.6412,351.75516,96,60,0
351.75885,351.87283,98,60,0
351.8765,351.99048,96,60,0
351.99414,352.29535,94,60,0
352.7306,352.82434,72,92,0
352.82434,352.9181,70,92,0
352.9181,353.01184,72,92,0
353.01184,353.1056,70,92,0
353.1056,353.19934,72,92,0
353.19934,353.2931,70,91,0
353.2931,353.38684,72,90,0
353.38684,353.4806,70,89,0
353.4806,353.57434,72,88,0
353.57434,353.6681,70,87,0
353.6681,353.76184,72,86,0
353.76184,353.8556,70,85,0
353.8556,353.94934,72,84,0
353.94934,354.0431,70,82,0
354.0431,354.13684,72,80,0
354.13684,354.2306,70,78,0
354.2306,354.32434,72,76,0
354.32434,354.4181,70,74,0
354.4181,354.51184,72,72,0
354.51184,354.6056,70,70,0
354.6056,354.69934,72,68,0
354.69934,354.7931,70,66,0
354.7931,354.88684,72,64,0
354.88684,354.9806,70,62,0
354.9806,355.07434,72,60,0
355.07434,355.1681,70,60,0
355.1681,355.26184,72,60,0
355.26184,355.3556,70,60,0
355.3556,355.44934,72,60,0
355.44934,355.5431,70,60,0
355.5431,355.63684,72,60,0
355.63684,355.72668,70,60,0
355.7306,355.82434,72,92,0
355.82434,355.9181,70,92,0
355.9181,356.01184,72,92,0
356.01184,356.1056,70,92,0
356.1056,356.19934,72,92,0
356.19934,356.2931,70,91,0
356.2931,356.38684,72,90,0
356.38684,356.4806,70,89,0
356.4806,356.57434,72,88,0
356.57434,356.6681,70,87,0
356.6681,356.76184,72,86,0
356.76184,356.8556,70,85,0
356.8556,356.94934,72,84,0
356.94934,357.0431,70,82,0
357.0431,357.13684,72,80,0
357.13684,357.2306,70,78,0
357.2306,357.32434,72,76,0
357.32434,357.4181,70,74,0
357.4181,357.51184,72,72,0
357.51184,357.6056,70,70,0
357.6056,357.69934,72,68,0
357.69934,357.7931,70,66,0
357.7931,357.88684,72,64,0
357.88684,357.9806,70,62,0
357.9806,358.07434,72,60,0
358.07434,358.1681,70,60,0
358.1681,358.26184,72,60,0
358.26184,358.3556,70,60,0
358.3556,358.44934,72,60,0
358.44934,358.5431,70,60,0
358.5431,358.63684,72,60,0
358.63684,358.72668,70,60,0
358.7306,358.82434,73,92,0
358.82434,358.9181,70,92,0
358.9181,359.01184,73,88,0
359.01184,359.1056,70,84,0
359.1056,359.19934,73,80,0
359.19934,359.2931,70,75,0
359.2931,359.38684,73,70,0
359.38684,359.4806,70,65,0
359.4806,359.57434,73,60,0
359.57434,359.6681,70,60,0
359.6681,359.76184,73,60,0
359.76184,359.8556,70,60,0
359.8556,359.94934,73,60,0
359.94934,360.0431,70,60,0
360.0431,360.13684,73,61,0
360.13684,360.2306,70,62,0
360.2306,360.32434,73,63,0
360.32434,360.4181,70,64,0
360.4181,360.51184,73,65,0
360.51184,360.6056,70,66,0
360.6056,360.69934,73,67,0
360.69934,360.7931,70,68,0
360.7931,360.88684,73,69,0
360.88684,360.9806,70,70,0
360.9806,361.07434,76,71,0
361.07434,361.1681,73,72,0
361.1681,361.26184,76,73,0
361.26184,361.3556,73,74,0
361.3556,361.44934,76,75,0
361.44934,361.5431,73,75,0
361.5431,361.63684,76,75,0
361.63684,361.72668,73,75,0
361.7306,361.82434,77,45,0
361.82434,361.9181,73,45,0
361.9181,362.01184,77,45,0
362.01184,362.1056,73,45,0
362.1056,362.19934,77,45,0
362.19934,362.2931,73,45,0
362.2931,362.38684,77,45,0
362.38684,362.4806,73,45,0
362.4806,362.57434,77,45,0
362.57434,362.6681,73,45,0
362.6681,362.76184,77,45,0
362.76184,362.8556,73,45,0
362.8556,362.94934,77,45,0
362.94934,363.0431,73,45,0
363.0431,363.13684,77,45,0
363.13684,363.2306,73,45,0
363.2306,363.32434,75,45,0
363.32434,363.4181,72,45,0
363.4181,363.51184,75,45,0
363.51184,363.6056,72,45,0
363.6056,363.69934,75,45,0
363.69934,363.7931,72,45,0
363.7931,363.88684,75,45,0
363.88684,363.9806,72,45,0
363.9806,364.07434,73,75,0
364.07434,364.1681,70,75,0
364.1681,364.26184,73,60,0
364.26184,364.3556,70,60,0
364.3556,364.44934,73,45,0
364.44934,364.5431,70,45,0
364.5431,364.63684,73,45,0
364.63684,364.72668,70,45,0
364.7306,364.82434,72,45,0
364.82434,364.9181,68,45,0
364.9181,365.01184,72,45,0
365.01184,365.1056,68,45,0
365.1056,365.19934,72,45,0
365.19934,365.2931,68,45,0
365.2931,365.38684,72,45,0
365.38684,365.4806,68,45,0
365.4806,365.57434,72,45,0
365.57434,365.6681,68,45,0
365.6681,365.76184,72,45,0
365.76184,365.8556,68,45,0
365.8556,365.94934,72,45,0
365.94934,366.0431,68,45,0
366.0431,366.13684,72,45,0
366.13684,366.2306,68,45,0
366.2306,366.32434,70,45,0
366.32434,366.4181,66,45,0
366.4181,366.51184,70,45,0
366.51184,366.6056,66,45,0
366.6056,366.69934,70,45,0
366.69934,366.7931,66,45,0
366.7931,366.88684,70,45,0
366.88684,366.9806,66,45,0
366.9806,367.07434,68,75,0
367.07434,367.1681,65,75,0
367.1681,367.26184,68,60,0
367.26184,367.3556,65,60,0
367.3556,367.44934,68,45,0
367.44934,367.5431,65,45,0
367.5431,367.63684,68,45,0
367.63684,367.72668,65,45,0
367.7306,367.82434,68,45,0
367.82434,367.9181,65,45,0
367.9181,368.01184,68,45,0
368.01184,368.1056,65,45,0
368.1056,368.19934,68,45,0
368.19934,368.2931,65,45,0
368.2931,368.38684,68,45,0
368.38684,368.4806,65,45,0
368.4806,368.57434,66,75,0
368.57434,368.6681,63,75,0
368.6681,368.76184,66,71,0
368.76184,368.8556,63,67,0
368.8556,368.94934,66,63,0
368.94934,369.0431,63,59,0
369.0431,369.13684,66,55,0
369.13684,369.2306,63,50,0
369.2306,369.32434,65,45,0
369.32434,369.4181,61,45,0
369.4181,369.51184,65,45,0
369.51184,369.6056,61,45,0
369.6056,369.69934,65,45,0
369.69934,369.7931,61,45,0
369.7931,369.88684,65,45,0
369.88684,369.9806,61,45,0
369.9806,370.07434,63,75,0
370.07434,370.1681,60,75,0
370.1681,370.26184,63,71,0
370.26184,370.3556,60,67,0
370.3556,370.44934,63,63,0
370.44934,370.5431,60,59,0
370.5431,370.63684,63,55,0
370.63684,370.72668,60,50,0
370.7306,370.82434,65,45,0
370.82434,370.9181,61,45,0
370.9181,371.01184,65,45,0
371.01184,371.1056,61,45,0
371.1056,371.19934,65,45,0
371.19934,371.2931,61,45,0
371.2931,371.38684,65,45,0
371.38684,371.4806,61,45,0
371.4806,371.57434,66,45,0
371.57434,371.6681,63,48,0
371.6681,371.76184,66,51,0
371.76184,371.8556,63,55,0
371.8556,371.94934,68,59,0
371.94934,372.0431,65,63,0
372.0431,372.13684,68,67,0
372.13684,372.2306,65,71,0
372.2306,372.32434,66,75,0
372.32434,372.4181,63,75,0
372.4181,372.51184,66,75,0
372.51184,372.6056,63,75,0
372.6056,372.69934,65,75,0
372.69934,372.7931,61,68,0
372.7931,372.88684,65,61,0
372.88684,372.9806,61,53,0
372.9806,373.07434,65,45,0
373.07434,373.1681,61,45,0
373.1681,373.26184,65,45,0
373.26184,373.3556,61,45,0
373.3556,373.44934,63,45,0
373.44934,373.5431,60,45,0
373.5431,373.63684,63,45,0
373.63684,373.72668,60,45,0
373.7306,373.82434,68,45,0
373.82434,373.9181,65,45,0
373.9181,374.01184,68,45,0
374.01184,374.1056,65,45,0
374.1056,374.19934,68,45,0
374.19934,374.2931,65,45,0
374.2931,374.38684,68,45,0
374.38684,374.4806,65,45,0
374.4806,374.57434,66,75,0
374.57434,374.6681,63,75,0
374.6681,374.76184,66,71,0
374.76184,374.8556,63,67,0
374.8556,374.94934,66,63,0
374.94934,375.0431,63,59,0
375.0431,375.13684,66,55,0
375.13684,375.2306,63,50,0
375.2306,375.32434,65,45,0
375.32434,375.4181,61,45,0
375.4181,375.51184,65,45,0
375.51184,375.6056,61,45,0
375.6056,375.69934,65,45,0
375.69934,375.7931,61,45,0
375.7931,375.88684,65,45,0
375.88684,375.9806,61,45,0
375.9806,376.07434,63,75,0
376.07434,376.1681,60,75,0
376.1681,376.26184,63,71,0
376.26184,376.3556,60,67,0
376.3556,376.44934,63,63,0
376.44934,376.5431,60,59,0
376.5431,376.63684,63,55,0
376.63684,376.72668,60,50,0
376.7306,376.82434,65,45,0
376.82434,376.9181,61,45,0
376.9181,377.01184,65,45,0
377.01184,377.1056,61,45,0
377.1056,377.19934,65,45,0
377.19934,377.2931,61,45,0
377.2931,377.38684,65,45,0
377.38684,377.4806,61,45,0
377.4806,377.57434,66,45,0
377.57434,377.6681,63,48,0
377.6681,377.76184,66,51,0
377.76184,377.8556,63,55,0
377.8556,377.94934,68,59,0
377.94934,378.0431,65,63,0
378.0431,378.13684,68,67,0
378.13684,378.2306,65,71,0
378.2306,378.32434,66,75,0
378.32434,378.4181,63,75,0
378.4181,378.51184,66,73,0
378.51184,378.6056,63,71,0
378.6056,378.69934,65,69,0
378.69934,378.7931,61,67,0
378.7931,378.88684,65,65,0
378.88684,378.9806,61,63,0
378.9806,379.07434,65,60,0
379.07434,379.1681,61,60,0
379.1681,379.26184,65,60,0
379.26184,379.3556,61,60,0
379.3556,379.44934,63,60,0
379.44934,379.5431,60,60,0
379.5431,379.63684,63,60,0
379.63684,379.72668,60,60,0
379.7306,379.82434,68,45,0
379.82434,379.9181,65,45,0
379.9181,380.01184,68,45,0
380.01184,380.1056,65,45,0
380.1056,380.19934,68,45,0
380.19934,380.2931,65,45,0
380.2931,380.38684,68,45,0
380.38684,380.4806,65,45,0
380.4806,380.57434,66,45,0
380.57434,380.6681,63,45,0
380.6681,380.76184,66,45,0
380.76184,380.8556,63,45,0
380.8556,380.94934,66,45,0
380.94934,381.0431,63,45,0
381.0431,381.13684,66,45,0
381.13684,381.2306,63,45,0
381.2306,381.32434,65,45,0
381.32434,381.4181,61,45,0
381.4181,381.51184,65,45,0
381.51184,381.6056,61,45,0
381.6056,381.69934,65,45,0
381.69934,381.7931,61,45,0
381.7931,381.88684,65,45,0
381.88684,381.9806,61,45,0
381.9806,382.07434,63,45,0
382.07434,382.1681,60,45,0
382.1681,382.26184,63,45,0
382.26184,382.3556,60,45,0
382.3556,382.44934,63,45,0
382.44934,382.5431,60,45,0
382.5431,382.63684,63,45,0
382.63684,382.72668,60,45,0
382.7306,382.9916,58,45,0
382.7306,382.9916,61,45,0
382.9953,383.0541,85,45,0
383.08353,383.17175,85,45,0
383.34824,383.40704,87,45,0
383.43646,383.70117,89,45,0
383.70117,383.78574,94,45,0
383.7894,383.87766,89,45,0
384.0541,384.11295,89,45,0
384.14236,384.2306,89,45,0
384.40704,384.46588,89,45,0
384.4953,384.58353,88,45,0
384.76,384.81882,87,45,0
384.84824,384.93646,85,45,0
385.11295,385.17175,84,45,0
385.20117,385.2894,82,45,0
385.46588,385.5247,80,45,0
385.5541,385.64236,79,45,0
385.81882,385.87766,87,45,0
385.90704,385.9953,87,45,0
386.17175,386.2306,87,45,0
386.26,386.34824,87,45,0
386.5247,386.58353,89,45,0
386.61295,386.70117,91,45,0
386.87766,386.93646,92,45,0
386.96588,387.0541,94,45,0
387.2306,387.2894,94,45,0
387.31882,387.40704,94,45,0
387.58353,387.64236,96,45,0
387.67175,387.76,92,45,0
388.7306,388.90338,72,60,0
388.7306,388.90338,77,60,0
388.7306,388.90338,80,60,0
389.43646,389.60925,72,60,0
389.43646,389.60925,77,60,0
389.43646,389.60925,84,60,0
389.7894,389.9622,72,60,0
389.7894,389.9622,76,60,0
390.14233,390.31516,72,60,0
390.14233,390.31516,79,60,0
390.84824,391.14233,72,60,0
390.84824,391.14233,80,60,0
391.20117,391.37396,74,60,0
391.20117,391.37396,82,60,0
391.5541,391.7269,70,60,0
391.5541,391.7269,77,60,0
391.5541,391.7269,80,60,0
391.90704,392.07983,70,60,0
391.90704,392.07983,75,60,0
391.90704,392.07983,79,60,0
392.25998,392.4328,70,60,0
392.25998,392.4328,75,60,0
392.61295,392.78574,72,60,0
392.61295,392.78574,75,60,0
392.61295,392.78574,77,60,0
392.96588,393.13867,74,60,0
392.96588,393.13867,77,60,0
392.96588,393.13867,82,60,0
393.31882,393.57983,75,60,0
393.58353,393.6681,82,60,0
393.67175,393.9328,84,60,0
393.93646,394.02103,86,60,0
394.0247,394.14233,87,60,0
394.14233,394.25998,89,60,0
394.25998,394.37766,86,60,0
394.37766,394.4953,87,60,0
394.4953,394.61295,89,60,0
394.61295,394.7306,90,60,0
394.7306,394.84824,91,60,0
394.84824,394.96588,96,60,0
394.96588,395.08353,92,60,0
395.08353,395.20117,91,60,0
395.20117,395.31882,87,60,0
395.31882,395.43646,89,60,0
395.43646,395.5541,91,60,0
395.5541,395.67175,92,60,0
395.67175,395.7894,91,60,0
395.7894,395.90704,89,60,0
395.90704,396.0247,91,60,0
396.0247,396.13867,89,60,0
396.14233,396.25998,87,60,0
396.25998,396.37762,89,60,0
396.37762,396.4953,86,60,0
396.4953,396.61295,84,60,0
396.61295,396.7306,86,60,0
396.7306,396.84824,82,60,0
396.84824,396.96588,81,60,0
396.96588,397.08353,89,60,0
397.08353,397.20117,88,60,0
397.20117,397.31882,91,60,0
397.31882,397.43646,89,60,0
397.43646,397.5541,87,60,0
397.5541,397.67175,86,60,0
397.67175,397.7894,87,60,0
397.7894,397.90704,89,60,0
397.90704,398.0247,91,60,0
398.0247,398.14233,93,60,0
398.14233,398.25998,94,60,0
398.25998,398.37762,96,60,0
398.37762,398.49527,98,60,0
398.49527,398.61295,95,60,0
398.61295,398.7306,96,60,0
398.7306,398.84824,98,60,0
398.84824,398.96588,96,60,0
398.96588,399.2671,94,60,0
399.70233,399.79608,72,92,0
399.79608,399.88983,70,92,0
399.88983,399.98358,72,92,0
399.98358,400.07733,70,92,0
400.07733,400.17108,72,92,0
400.17108,400.26483,70,91,0
400.26483,400.35858,72,90,0
400.35858,400.45233,70,89,0
400.45233,400.54608,72,88,0
400.54608,400.63983,70,87,0
400.63983,400.73358,72,86,0
400.73358,400.82733,70,85,0
400.82733,400.92108,72,84,0
400.92108,401.01483,70,82,0
401.01483,401.10858,72,80,0
401.10858,401.20233,70,78,0
401.20233,401.29608,72,76,0
401.29608,401.38983,70,74,0
401.38983,401.48358,72,72,0
401.48358,401.57733,70,70,0
401.57733,401.67108,72,68,0
401.67108,401.76483,70,66,0
401.76483,401.85858,72,64,0
401.85858,401.95233,70,62,0
401.95233,402.04608,72,60,0
402.04608,402.13983,70,60,0
402.13983,402.23358,72,60,0
402.23358,402.32733,70,60,0
402.32733,402.42108,82,92,0
402.42108,402.51483,70,92,0
402.51483,402.60858,82,75,0
402.60858,402.69843,70,75,0
402.70233,402.79608,72,92,0
402.79608,402.88983,70,92,0
402.88983,402.98358,72,92,0
402.98358,403.07733,70,92,0
403.07733,403.17108,72,92,0
403.17108,403.26483,70,91,0
403.26483,403.35858,72,90,0
403.35858,403.45233,70,89,0
403.45233,403.54608,72,88,0
403.54608,403.63983,70,87,0
403.63983,403.73358,72,86,0
403.73358,403.82733,70,85,0
403.82733,403.92108,72,84,0
403.92108,404.01483,70,82,0
404.01483,404.10858,72,80,0
404.10858,404.20233,70,78,0
404.20233,404.29608,72,76,0
404.29608,404.38983,70,74,0
404.38983,404.48358,72,72,0
404.48358,404.57733,70,70,0
404.57733,404.67108,72,68,0
404.67108,404.76483,70,66,0
404.76483,404.85858,72,64,0
404.85858,404.95233,70,62,0
404.95233,405.04608,72,60,0
405.04608,405.13983,70,60,0
405.13983,405.23358,72,60,0
405.23358,405.32733,70,60,0
405.32733,405.42108,82,92,0
405.42108,405.51483,70,92,0
405.51483,405.60858,82,75,0
405.60858,405.69843,70,75,0
405.70233,405.79608,73,60,0
405.79608,405.88983,70,60,0
405.88983,405.98358,73,60,0
405.98358,406.07733,70,60,0
406.07733,406.17108,73,60,0
406.17108,406.26483,70,61,0
406.26483,406.35858,73,62,0
406.35858,406.45233,70,63,0
406.45233,406.54608,73,64,0
406.54608,406.63983,70,65,0
406.63983,406.73358,73,66,0
406.73358,406.82733,70,67,0
406.82733,406.92108,73,68,0
406.92108,407.01483,70,69,0
407.01483,407.10858,73,70,0
407.10858,407.20233,70,71,0
407.20233,407.29608,73,72,0
407.29608,407.38983,70,73,0
407.38983,407.48358,73,74,0
407.48358,407.57733,70,75,0
407.57733,407.67108,73,76,0
407.67108,407.76483,70,78,0
407.76483,407.85858,73,80,0
407.85858,407.95233,70,82,0
407.95233,408.04608,73,84,0
408.04608,408.13983,70,86,0
408.13983,408.23358,73,88,0
408.23358,408.32733,70,90,0
408.32733,408.42108,82,92,0
408.42108,408.51483,70,92,0
408.51483,408.60858,82,92,0
408.60858,408.69843,70,92,0
408.70233,409.45233,70,45,0
408.70233,409.45233,82,45,0
409.45233,410.20233,74,45,0
409.45233,410.20233,86,45,0
410.20233,410.57733,69,45,0
410.20233,410.57733,81,45,0
410.57733,410.95233,72,45,0
410.57733,410.95233,84,45,0
410.95233,411.51483,70,63,0
410.95233,411.51483,82,63,0
411.51483,411.69843,67,45,0
411.51483,411.69843,79,45,0
411.70233,412.45233,65,45,0
411.70233,412.45233,77,45,0
412.45233,413.20233,69,45,0
412.45233,413.20233,81,45,0
413.20233,413.57733,63,45,0
413.20233,413.57733,75,45,0
413.57733,413.95233,67,45,0
413.57733,413.95233,79,45,0
413.95233,414.51483,65,63,0
413.95233,414.51483,77,63,0
414.51483,414.69843,62,45,0
414.51483,414.69843,74,45,0
414.70233,415.45233,58,45,0
414.70233,415.45233,70,45,0
415.45233,416.20233,65,63,0
415.45233,416.20233,77,63,0
416.20233,416.95233,62,45,0
416.20233,416.95233,74,45,0
416.95233,417.60858,67,63,0
416.95233,417.60858,79,63,0
417.70233,418.07733,65,45,0
417.70233,418.07733,77,45,0
418.07733,418.45233,70,45,0
418.07733,418.45233,82,45,0
418.45233,418.82733,72,60,0
418.45233,418.82733,84,60,0
418.82733,419.13983,74,75,0
418.82733,419.13983,86,75,0
419.20233,419.57733,72,75,0
419.20233,419.57733,84,75,0
419.57733,419.95233,70,68,0
419.57733,419.95233,82,68,0
419.95233,420.32733,62,61,0
419.95233,420.32733,74,61,0
420.32733,420.63983,65,53,0
420.32733,420.63983,77,53,0
420.70233,421.35858,58,45,0
420.70233,421.35858,70,45,0
421.45233,422.10858,65,63,0
421.45233,422.10858,77,63,0
422.20233,422.85858,62,45,0
422.20233,422.85858,74,45,0
422.95233,423.60858,67,63,0
422.95233,423.60858,79,63,0
423.70233,424.07733,65,45,0
423.70233,424.07733,77,45,0
424.07733,424.45233,70,55,0
424.07733,424.45233,82,55,0
424.45233,424.82733,72,65,0
424.45233,424.82733,84,65,0
424.82733,425.13983,74,75,0
424.82733,425.13983,86,75,0
425.20233,425.57733,72,75,0
425.20233,425.57733,84,75,0
425.57733,425.95233,70,70,0
425.57733,425.95233,82,70,0
425.95233,426.32733,62,65,0
425.95233,426.32733,74,65,0
426.32733,426.63983,65,60,0
426.32733,426.63983,77,60,0
426.70233,427.01483,58,92,0
426.70233,427.01483,70,92,0
428.95233,429.51483,71,92,0
428.95233,429.51483,67,92,0
428.95233,429.51483,74,92,0
428.95233,429.51483,79,92,0
429.51483,429.57733,77,92,0
429.57733,429.63983,75,82,0
429.63983,429.70233,74,71,0
429.70233,429.88593,72,60,0
431.95233,432.70233,76,92,0
431.95233,432.70233,79,92,0
431.95233,432.70233,84,92,0
431.95233,432.70233,88,92,0
432.70233,432.88593,77,92,0
432.70233,432.88593,81,92,0
432.70233,432.88593,84,92,0
432.70233,432.88593,89,92,0
433.45233,433.82733,74,92,0
433.45233,433.82733,77,92,0
433.45233,433.82733,82,92,0
433.82733,433.92108,84,75,0
433.92108,434.01483,86,75,0
434.01483,434.10858,87,75,0
434.10858,434.20233,89,75,0
434.20233,434.38593,91,75,0
434.57733,434.67346,91,75,0
434.67346,434.76962,93,75,0
434.76962,434.86578,94,75,0
434.86578,434.96194,96,75,0
434.96194,435.15778,98,75,0
435.36194,435.55777,93,75,0
435.36194,435.55777,96,75,0
435.36194,435.55777,101,75,0
435.76193,436.37958,70,84,0
435.76193,436.37958,82,84,0
436.4678,437.08545,74,84,0
436.4678,437.08545,86,84,0
437.1737,437.26193,62,60,0
437.1737,437.26193,74,60,0
437.52664,437.61487,66,60,0
437.52664,437.61487,78,60,0
437.87958,438.58545,67,84,0
437.87958,438.58545,70,84,0
437.87958,438.58545,75,84,0
437.87958,438.58545,79,84,0
438.58545,438.75827,68,60,0
438.58545,438.75827,72,60,0
438.58545,438.75827,75,60,0
438.58545,438.75827,80,60,0
440.7031,441.32074,61,105,0
440.7031,441.32074,65,105,0
440.7031,441.32074,68,105,0
440.7031,441.32074,73,105,0
441.409,442.02664,66,105,0
441.409,442.02664,78,105,0
442.11487,442.7325,70,105,0
442.11487,442.7325,82,105,0
442.82074,442.909,61,75,0
442.82074,442.909,73,75,0
443.1737,443.26193,65,77,0
443.1737,443.26193,77,77,0
443.52664,443.61487,66,79,0
443.52664,443.61487,78,79,0
443.87958,443.9678,68,81,0
443.87958,443.9678,80,81,0
444.2325,444.32074,70,83,0
444.2325,444.32074,82,83,0
444.58545,444.6737,72,85,0
444.58545,444.6737,84,85,0
444.9384,445.02664,73,87,0
444.9384,445.02664,85,87,0
445.29135,445.37958,75,89,0
445.29135,445.37958,87,89,0
445.6443,446.26193,77,92,0
445.6443,446.26193,86,92,0
445.6443,446.26193,89,92,0
446.35016,446.9678,78,92,0
446.35016,446.9678,86,92,0
446.35016,446.9678,90,92,0
447.05603,447.6737,81,92,0
447.05603,447.6737,90,92,0
447.05603,447.6737,93,92,0
447.76193,448.4678,82,92,0
447.76193,448.4678,86,92,0
447.76193,448.4678,89,92,0
447.76193,448.4678,94,92,0
448.4678,448.6406,82,75,0
448.4678,448.6406,87,75,0
448.4678,448.6406,91,75,0
448.82074,448.909,79,75,0
448.909,448.99722,81,75,0
448.99722,449.08545,82,75,0
449.08545,449.17,84,75,0
449.1737,449.3465,86,75,0
449.52664,449.58545,77,75,0
449.52664,449.58545,81,75,0
449.52664,449.58545,84,75,0
449.87958,450.49722,74,105,0
449.87958,450.49722,78,105,0
449.87958,450.49722,81,105,0
449.87958,450.49722,86,105,0
450.58545,451.2031,78,105,0
450.58545,451.2031,86,105,0
450.58545,451.2031,90,105,0
451.29135,451.909,81,105,0
451.29135,451.909,90,105,0
451.29135,451.909,93,105,0
451.99722,452.7031,82,105,0
451.99722,452.7031,86,105,0
451.99722,452.7031,89,105,0
451.99722,452.7031,94,105,0
452.7031,452.8759,82,75,0
452.7031,452.8759,87,75,0
452.7031,452.8759,91,75,0
453.05603,453.1443,79,75,0
453.1443,453.2325,81,75,0
453.2325,453.32074,82,75,0
453.32074,453.409,84,75,0
453.409,453.5818,86,75,0
453.76193,453.82074,77,75,0
453.76193,453.82074,81,75,0
453.76193,453.82074,84,75,0
454.11487,454.28766,74,75,0
454.11487,454.28766,77,75,0
454.11487,454.28766,82,75,0
454.4678,454.6406,77,75,0
454.4678,454.6406,81,75,0
454.4678,454.6406,84,75,0
454.82074,454.99353,77,75,0
454.82074,454.99353,82,75,0
454.82074,454.99353,86,75,0
455.17368,455.3465,77,73,0
455.17368,455.3465,81,73,0
455.17368,455.3465,84,73,0
455.52664,455.69943,77,71,0
455.52664,455.69943,82,71,0
455.52664,455.69943,86,71,0
455.87958,456.05237,77,69,0
455.87958,456.05237,81,69,0
455.87958,456.05237,84,69,0
456.2325,456.4053,77,67,0
456.2325,456.4053,82,67,0
456.2325,456.4053,86,67,0
456.58545,456.75824,77,64,0
456.58545,456.75824,84,64,0
456.9384,457.11118,74,60,0
456.9384,457.11118,77,60,0
456.9384,457.11118,82,60,0
457.29132,457.46414,89,60,0
457.29132,457.46414,93,60,0
457.29132,457.46414,96,60,0
457.6443,457.81708,89,60,0
457.6443,457.81708,94,60,0
457.6443,457.81708,98,60,0
457.99722,458.17,89,60,0
457.99722,458.17,93,60,0
457.99722,458.17,96,60,0
458.35016,458.52295,89,60,0
458.35016,458.52295,94,60,0
458.35016,458.52295,98,60,0
458.7031,458.8759,89,60,0
458.7031,458.8759,93,60,0
458.7031,458.8759,96,60,0
459.05603,459.22882,89,60,0
459.05603,459.22882,94,60,0
459.05603,459.22882,98,60,0
459.40897,459.5818,89,60,0
459.40897,459.5818,96,60,0
459.76193,459.93472,86,60,0
459.76193,459.93472,94,60,0
460.11487,460.28766,84,60,0
460.11487,460.28766,89,60,0
460.4678,460.6406,82,60,0
460.4678,460.6406,86,60,0
460.82074,460.99353,77,58,0
460.82074,460.99353,84,58,0
461.17368,461.34647,74,56,0
461.17368,461.34647,82,56,0
461.5266,461.69943,72,54,0
461.5266,461.69943,77,54,0
461.87958,462.05237,70,52,0
461.87958,462.05237,74,52,0
462.2325,462.4053,65,49,0
462.2325,462.4053,72,49,0
462.58545,462.75824,62,45,0
462.58545,462.75824,70,45,0
462.9384,463.11118,65,45,0
462.9384,463.11118,72,45,0
463.29132,463.4641,62,45,0
463.29132,463.4641,70,45,0
463.6443,463.81708,65,45,0
463.6443,463.81708,72,45,0
463.99722,464.17,62,45,0
463.99722,464.17,70,45,0
464.35016,464.52295,65,45,0
464.35016,464.52295,72,45,0
464.7031,464.8759,62,45,0
464.7031,464.8759,70,45,0
465.05603,465.22882,65,45,0
465.05603,465.22882,72,45,0
465.40897,465.7031,62,45,0
465.40897,465.7031,70,45,0
468.29364,468.9113,70,105,0
468.29364,468.9113,82,105,0
468.9995,469.61716,74,105,0
468.9995,469.61716,86,105,0
469.70538,469.79364,62,75,0
469.70538,469.79364,74,75,0
470.05835,470.14658,64,75,0
470.05835,470.14658,76,75,0
470.4113,471.11716,65,105,0
470.4113,471.11716,69,105,0
470.4113,471.11716,72,105,0
470.4113,471.11716,75,105,0
470.4113,471.11716,77,105,0
471.11716,471.4113,65,92,0
471.11716,471.4113,70,92,0
471.11716,471.4113,74,92,0
473.94067,474.55832,70,105,0
473.94067,474.55832,82,105,0
474.64658,475.26422,74,105,0
474.64658,475.26422,86,105,0
475.35245,475.44067,62,75,0
475.35245,475.44067,74,75,0
475.70538,475.79364,64,75,0
475.70538,475.79364,76,75,0
476.05832,476.76422,69,105,0
476.05832,476.76422,72,105,0
476.05832,476.76422,75,105,0
476.05832,476.76422,77,105,0
476.76422,477.05832,70,92,0
476.76422,477.05832,73,92,0
476.76422,477.05832,78,92,0
479.8731,480.45645,49,45,0
479.8731,480.45645,54,45,0
479.8731,480.45645,58,45,0
480.5398,480.6231,49,45,0
480.5398,480.6231,54,45,0
480.5398,480.6231,58,45,0
480.8731,480.95645,49,45,0
480.8731,480.95645,54,45,0
480.8731,480.95645,58,45,0
481.20645,481.2898,49,45,0
481.20645,481.2898,53,45,0
481.20645,481.2898,59,45,0
481.8731,482.45645,49,45,0
481.8731,482.45645,54,45,0
481.8731,482.45645,58,45,0
482.5398,482.6231,49,45,0
482.5398,482.6231,54,45,0
482.5398,482.6231,58,45,0
482.8731,482.95645,49,45,0
482.8731,482.95645,54,45,0
482.8731,482.95645,58,45,0
483.20645,483.2898,49,45,0
483.20645,483.2898,53,45,0
483.20645,483.2898,56,45,0
483.8731,484.45645,49,45,0
483.8731,484.45645,54,45,0
483.8731,484.45645,58,45,0
484.5398,484.6231,49,45,0
484.5398,484.6231,54,45,0
484.5398,484.6231,58,45,0
484.8731,484.95645,49,45,0
484.8731,484.95645,54,45,0
484.8731,484.95645,58,45,0
485.20645,485.2898,49,45,0
485.20645,485.2898,53,45,0
485.20645,485.2898,59,45,0
485.8731,486.45645,49,45,0
485.8731,486.45645,54,45,0
485.8731,486.45645,58,45,0
486.5398,486.6231,49,45,0
486.5398,486.6231,54,45,0
486.5398,486.6231,58,45,0
486.8731,486.95645,49,45,0
486.8731,486.95645,54,45,0
486.8731,486.95645,58,45,0
487.20645,487.2898,49,45,0
487.20645,487.2898,53,45,0
487.20645,487.2898,56,45,0
487.8731,488.45645,49,45,0
487.8731,488.45645,54,45,0
487.8731,488.45645,58,45,0
488.5398,488.6231,49,55,0
488.5398,488.6231,54,55,0
488.5398,488.6231,58,55,0
488.8731,488.95645,49,60,0
488.8731,488.95645,54,60,0
488.8731,488.95645,58,60,0
489.20645,489.28976,49,65,0
489.20645,489.28976,54,65,0
489.20645,489.28976,58,65,0
489.8731,490.45645,49,75,0
489.8731,490.45645,53,75,0
489.8731,490.45645,59,75,0
490.53976,490.6231,49,75,0
490.53976,490.6231,53,75,0
490.53976,490.6231,59,75,0
490.8731,490.95645,49,68,0
490.8731,490.95645,54,68,0
490.8731,490.95645,59,68,0
491.20645,491.28976,49,61,0
491.20645,491.28976,56,61,0
491.20645,491.28976,59,61,0
491.8731,492.45645,49,45,0
491.8731,492.45645,54,45,0
491.8731,492.45645,58,45,0
492.53976,492.6231,49,45,0
492.53976,492.6231,54,45,0
492.53976,492.6231,58,45,0
492.8731,492.95645,49,45,0
492.8731,492.95645,54,45,0
492.8731,492.95645,58,45,0
493.20645,493.28976,49,45,0
493.20645,493.28976,54,45,0
493.20645,493.28976,58,45,0
493.8731,494.45645,49,45,0
493.8731,494.45645,53,45,0
493.8731,494.45645,59,45,0
494.53976,494.6231,49,45,0
494.53976,494.6231,53,45,0
494.53976,494.6231,59,45,0
494.8731,494.95645,49,45,0
494.8731,494.95645,54,45,0
494.8731,494.95645,59,45,0
495.20645,495.28976,49,45,0
495.20645,495.28976,56,45,0
495.20645,495.28976,59,45,0
495.53976,495.81754,49,45,0
495.53976,495.81754,54,45,0
495.53976,495.81754,58,45,0
495.8731,496.0363,73,60,0
496.03976,496.20297,73,60,0
496.20645,496.3731,73,60,0
496.3731,496.5363,75,60,0
496.53976,496.70645,75,60,0
496.70645,496.86963,77,60,0
496.8731,497.03976,77,60,0
497.03976,497.20297,78,60,0
497.20645,497.3731,78,60,0
497.3731,497.5363,80,60,0
497.53976,497.70645,80,60,0
497.70645,497.86963,82,60,0
497.8731,498.03976,82,60,0
498.03976,498.20297,83,60,0
498.20645,498.3731,83,60,0
498.3731,498.5363,85,60,0
498.53976,498.70645,85,60,0
498.70645,498.86963,87,60,0
498.8731,499.03976,87,60,0
499.03976,499.20297,89,60,0
499.20642,499.3731,89,60,0
499.3731,499.5363,90,60,0
499.53976,499.70642,90,60,0
499.70642,499.86963,92,60,0
499.8731,500.03976,92,60,0
500.03976,500.20297,94,60,0
500.20642,500.3731,94,60,0
500.3731,500.5363,95,60,0
500.53976,500.70642,95,60,0
500.70642,500.86963,97,60,0
500.8731,501.03976,97,60,0
501.03976,501.20297,99,60,0
501.20642,501.3731,97,60,0
501.3731,501.5363,95,60,0
501.53976,501.81754,97,60,0
501.8731,502.03976,94,60,0
502.03976,502.20297,90,60,0
502.20642,502.3731,90,60,0
502.3731,502.5363,85,60,0
502.53976,502.70642,85,60,0
502.70642,502.86963,82,60,0
502.8731,503.03976,82,60,0
503.03976,503.20297,78,60,0
503.20642,503.3731,78,60,0
503.3731,503.5363,76,60,0
503.53976,503.81754,77,60,0
503.8731,504.03976,86,60,0
504.03976,504.20297,82,60,0
504.20642,504.3731,82,60,0
504.3731,504.5363,77,60,0
504.53976,504.70642,77,60,0
504.70642,504.86963,74,60,0
504.8731,505.03976,74,60,0
505.03976,505.20297,70,60,0
505.20642,505.3731,70,60,0
505.3731,505.5363,65,60,0
505.8731,506.45642,53,60,0
505.8731,506.45642,63,60,0
505.8731,506.45642,65,60,0
506.53976,506.81754,53,60,0
506.53976,506.81754,63,60,0
506.53976,506.81754,65,60,0
506.8731,507.15088,53,60,0
506.8731,507.15088,63,60,0
506.8731,507.15088,65,60,0
507.20642,507.4842,53,60,0
507.20642,507.4842,63,60,0
507.20642,507.4842,65,60,0
507.53976,507.81754,53,60,0
507.53976,507.81754,62,60,0
507.53976,507.81754,65,60,0
507.8731,507.92865,86,60,0
508.03976,508.0953,86,60,0
508.20642,508.3731,86,60,0
508.3731,508.5363,82,60,0
508.53976,508.70642,82,60,0
508.70642,508.86963,77,60,0
508.8731,509.03976,77,60,0
509.03976,509.20294,74,60,0
509.20642,509.37308,74,60,0
509.37308,509.5363,70,60,0
509.53976,509.81754,65,60,0
509.87308,510.45642,53,60,0
509.87308,510.45642,63,60,0
509.87308,510.45642,65,60,0
510.53976,510.81754,53,60,0
510.53976,510.81754,63,60,0
510.53976,510.81754,65,60,0
510.87308,511.15088,53,60,0
510.87308,511.15088,63,60,0
510.87308,511.15088,65,60,0
511.20642,511.4842,53,60,0
511.20642,511.4842,63,60,0
511.20642,511.4842,65,60,0
511.53976,511.81754,53,60,0
511.53976,511.81754,62,60,0
511.53976,511.81754,65,60,0
511.87308,511.92865,86,60,0
512.03973,512.09534,86,60,0
512.2064,512.4842,89,84,0
512.53973,512.59534,89,60,0
512.7064,512.76196,89,60,0
512.8731,512.9564,94,60,0
513.2064,513.28973,96,60,0
513.53973,513.8175,98,84,0
513.8731,513.92865,98,60,0
514.03973,514.09534,98,60,0
514.2064,514.4842,94,84,0
514.53973,514.59534,94,60,0
514.7064,514.76196,94,60,0
514.8731,515.03973,89,60,0
515.03973,515.2064,91,60,0
515.2064,515.3731,87,60,0
515.3731,515.53625,89,60,0
515.53973,515.8175,86,84,0
515.8731,515.92865,86,60,0
516.03973,516.09534,86,60,0
516.2064,516.4842,89,84,0
516.53973,516.59534,89,60,0
516.7064,516.76196,89,60,0
516.8731,516.9564,94,60,0
517.2064,517.28973,96,60,0
517.53973,517.8175,98,84,0
517.8731,517.92865,98,60,0
518.03973,518.0953,98,60,0
518.2064,518.4842,94,84,0
518.53973,518.5953,94,60,0
518.7064,518.76196,94,60,0
518.8731,519.03973,89,60,0
519.03973,519.2064,91,60,0
519.2064,519.3731,87,60,0
519.3731,519.53625,89,60,0
519.53973,519.8175,86,84,0
519.8731,519.92865,86,60,0
520.03973,520.0953,86,60,0
520.2064,520.4842,89,84,0
520.53973,520.5953,89,60,0
520.7064,520.76196,89,60,0
520.8731,520.9564,94,60,0
521.2064,521.28973,98,60,0
521.53973,521.8175,101,84,0
521.8731,521.92865,89,60,0
522.03973,522.0953,89,60,0
522.2064,522.3731,89,60,0
522.3731,522.53625,91,60,0
522.53973,522.7064,91,60,0
522.7064,522.8696,93,60,0
522.8731,523.03973,93,60,0
523.03973,523.20294,94,60,0
523.2064,523.3731,94,60,0
523.3731,523.53625,96,60,0
523.53973,523.8175,98,84,0
523.8731,523.92865,86,59,0
524.03973,524.0953,86,59,0
524.2064,524.4842,89,82,0
524.53973,524.5953,89,58,0
524.7064,524.76196,89,58,0
524.87305,524.9564,94,58,0
525.2064,525.28973,98,57,0
525.53973,525.8175,101,78,0
525.87305,525.92865,89,55,0
526.03973,526.0953,89,54,0
526.2064,526.37305,89,53,0
526.37305,526.53625,91,52,0
526.53973,526.7064,91,51,0
526.7064,526.8696,93,50,0
526.87305,527.03973,93,49,0
527.03973,527.20294,94,48,0
527.2064,527.37305,94,47,0
527.37305,527.53625,96,46,0
527.53973,527.8175,94,45,0
527.87305,527.92865,86,45,0
528.03973,528.0953,86,45,0
528.2064,528.4842,82,45,0
528.53973,528.5953,82,45,0
528.7064,528.76196,82,45,0
528.87305,529.03973,77,45,0
529.03973,529.2064,79,45,0
529.2064,529.37305,75,45,0
529.37305,529.53625,77,45,0
529.53973,529.8175,74,45,0
529.87305,529.92865,86,45,0
530.03973,530.0953,86,45,0
530.2064,530.4842,82,45,0
530.53973,530.5953,82,45,0
530.7064,530.76196,82,45,0
530.87305,531.03973,77,45,0
531.03973,531.2064,79,45,0
531.2064,531.37305,75,45,0
531.37305,531.53625,77,45,0
531.53973,531.8175,74,45,0
531.87305,531.92865,74,45,0
532.03973,532.0953,74,45,0
532.2064,532.4842,70,45,0
532.53973,532.5953,70,45,0
532.7064,532.76196,70,45,0
532.87305,533.03973,65,45,0
533.03973,533.2064,67,45,0
533.2064,533.37305,63,45,0
533.37305,533.53625,65,45,0
533.53973,533.83386,62,45,0
533.8927,533.9515,74,52,0
534.06915,534.128,74,56,0
534.2456,534.5581,70,60,0
534.6206,534.6831,70,68,0
534.8081,534.8706,70,72,0
534.9956,535.1956,65,76,0
535.1956,535.3956,67,80,0
535.3956,535.59564,63,84,0
535.59564,535.79144,65,88,0
535.7956,536.3206,62,92,0
535.7956,536.3206,70,92,0
536.3956,536.9206,74,92,0
536.9956,537.0706,62,92,0
537.2956,537.3706,64,92,0
537.59564,537.6706,66,92,0
537.6706,537.7456,67,87,0
537.7456,537.8206,66,82,0
537.8206,537.8956,67,77,0
537.8956,537.97064,66,72,0
537.97064,538.0456,67,66,0
538.0456,538.1206,64,60,0
538.1206,538.1925,66,60,0
538.1956,538.2706,67,92,0
538.4956,538.5706,69,92,0
538.7956,538.8675,71,92,0
538.8706,538.9425,72,87,0
538.9456,539.0175,71,82,0
539.0206,539.09247,72,77,0
539.09564,539.1675,71,72,0
539.1706,539.2425,72,66,0
539.2456,539.3175,69,60,0
539.3206,539.3925,71,60,0
539.3956,539.47064,72,75,0
539.6956,539.7706,62,75,0
539.6956,539.7706,74,75,0
539.9956,540.0706,63,75,0
539.9956,540.0706,75,75,0
540.2956,540.3706,64,77,0
540.2956,540.3706,76,77,0
540.59564,540.6706,65,80,0
540.59564,540.6706,77,80,0
540.8956,540.97064,67,83,0
540.8956,540.97064,79,83,0
541.1956,541.2706,68,86,0
541.1956,541.2706,80,86,0
541.4956,541.5706,69,89,0
541.4956,541.5706,81,89,0
541.7956,542.9206,70,92,0
541.7956,542.9206,74,92,0
541.7956,542.9206,77,92,0
541.7956,542.9206,82,92,0
542.9956,543.1425,70,92,0
542.9956,543.1425,75,92,0
542.9956,543.1425,79,92,0
543.2956,543.3706,91,92,0
543.3706,543.4456,93,92,0
543.4456,543.5206,94,92,0
543.5206,543.59564,96,92,0
543.59564,543.7425,98,92,0
543.8956,544.0425,89,92,0
543.8956,544.0425,93,92,0
543.8956,544.0425,96,92,0
544.1956,544.34247,86,92,0
544.1956,544.34247,89,92,0
544.1956,544.34247,94,92,0
544.4956,544.6425,89,92,0
544.4956,544.6425,93,92,0
544.4956,544.6425,96,92,0
544.7956,544.9425,89,92,0
544.7956,544.9425,94,92,0
544.7956,544.9425,98,92,0
545.09564,545.2425,89,92,0
545.09564,545.2425,93,92,0
545.09564,545.2425,96,92,0
545.3956,545.5425,89,92,0
545.3956,545.5425,94,92,0
545.3956,545.5425,98,92,0
545.6956,545.84247,89,86,0
545.6956,545.84247,93,86,0
545.6956,545.84247,96,86,0
545.9956,546.1425,89,80,0
545.9956,546.1425,94,80,0
545.9956,546.1425,98,80,0
546.2956,546.4425,89,74,0
546.2956,546.4425,93,74,0
546.2956,546.4425,96,74,0
546.59564,546.7425,86,68,0
546.59564,546.7425,89,68,0
546.59564,546.7425,94,68,0
546.8956,547.0425,77,60,0
546.8956,547.0425,81,60,0
546.8956,547.0425,84,60,0
547.1956,547.34247,77,60,0
547.1956,547.34247,82,60,0
547.1956,547.34247,86,60,0
547.4956,547.6425,77,60,0
547.4956,547.6425,81,60,0
547.4956,547.6425,84,60,0
547.7956,547.9425,77,60,0
547.7956,547.9425,82,60,0
547.7956,547.9425,86,60,0
548.09564,548.2425,77,60,0
548.09564,548.2425,81,60,0
548.09564,548.2425,84,60,0
548.3956,548.5425,77,60,0
548.3956,548.5425,82,60,0
548.3956,548.5425,86,60,0
548.6956,548.84247,77,60,0
548.6956,548.84247,84,60,0
548.9956,549.1425,74,60,0
548.9956,549.1425,82,60,0
549.2956,549.4425,77,60,0
549.2956,549.4425,84,60,0
549.59564,549.7396,82,60,0
549.59564,549.7396,86,60,0
549.8897,550.03375,77,60,0
549.8897,550.03375,84,60,0
550.18384,550.3278,74,60,0
550.18384,550.3278,82,60,0
550.47797,550.62195,72,60,0
550.47797,550.62195,77,60,0
550.7721,550.9147,70,60,0
550.7721,550.9147,74,60,0
551.06335,551.20593,65,60,0
551.06335,551.20593,72,60,0
551.3546,551.4972,62,60,0
551.3546,551.4972,70,60,0
551.6459,551.78845,65,64,0
551.6459,551.78845,72,64,0
551.93713,552.07837,70,68,0
551.93713,552.07837,74,68,0
552.2256,552.3668,72,72,0
552.2256,552.3668,77,72,0
552.51404,552.6553,74,76,0
552.51404,552.6553,82,76,0
552.8025,552.9437,77,80,0
552.8025,552.9437,84,80,0
553.091,553.23083,82,84,0
553.091,553.23083,86,84,0
553.3767,553.5166,84,88,0
553.3767,553.5166,89,88,0
553.6624,553.8023,86,92,0
553.6624,553.8023,94,92,0
553.9481,554.088,89,92,0
553.9481,554.088,96,92,0
554.2338,554.3724,86,92,0
554.2338,554.3724,94,92,0
554.51685,554.6554,89,87,0
554.51685,554.6554,96,87,0
554.79987,554.9384,86,81,0
554.79987,554.9384,94,81,0
555.0829,555.22144,89,75,0
555.0829,555.22144,96,75,0
555.3659,555.5032,86,69,0
555.3659,555.5032,94,69,0
555.6463,555.78357,89,63,0
555.6463,555.78357,96,63,0
555.92664,556.0639,86,57,0
555.92664,556.0639,94,57,0
556.20703,556.3443,65,51,0
556.20703,556.3443,72,51,0
556.4874,556.6234,62,45,0
556.4874,556.6234,70,45,0
556.7652,556.9012,65,45,0
556.7652,556.9012,72,45,0
557.04297,557.17896,62,45,0
557.04297,557.17896,70,45,0
557.32074,557.4567,65,45,0
557.32074,557.4567,72,45,0
557.5985,557.7333,62,30,0
557.5985,557.7333,70,30,0
557.8737,558.0085,65,30,0
557.8737,558.0085,72,30,0
558.149,558.3783,62,30,0
558.149,558.3783,70,30,0
559.49945,559.83276,72,92,0
559.49945,559.83276,77,92,0
559.49945,559.83276,81,92,0
559.49945,559.83276,84,92,0
561.2225,561.6071,74,92,0
561.2225,561.6071,77,92,0
561.2225,561.6071,82,92,0
561.2225,561.6071,86,92,0
0.666666,0.9444435,46,45,0
1.333332,1.6111095,50,45,0
1.999998,2.1631923,48,52,0
2.333331,2.4965253,46,56,0
2.666664,2.9444416,45,60,0
3.33333,3.4965243,46,60,0
3.666663,3.8298573,45,67,0
3.999996,4.2777734,44,75,0
4.666662,4.8298564,43,60,0
4.999995,5.1631894,39,60,0
5.333328,5.6111054,41,45,0
5.999994,6.2777715,46,45,0
6.66666,6.9444375,50,49,0
7.333326,7.4965205,48,54,0
7.666659,7.829853,46,56,0
7.999992,8.277769,45,60,0
8.666658,8.829852,46,60,0
8.999991,9.163185,46,75,0
9.333324,9.611101,46,92,0
9.99999,10.277767,43,63,0
10.666656,10.944433,46,45,0
11.333322,11.611099,43,63,0
11.999988,12.277765,46,45,0
12.666654,12.829848,53,45,0
12.999987,13.163181,51,45,0
13.33332,13.496514,50,45,0
13.666653,13.829847,46,47,0
13.999986,14.16318,53,49,0
14.333319,14.496513,51,51,0
14.666652,14.829846,50,53,0
14.999985,15.163179,46,56,0
15.333318,15.496512,38,60,0
15.666651,15.829845,37,60,0
15.999984,16.163177,38,60,0
16.333317,16.496511,43,76,0
16.66665,16.833553,39,92,0
17.007559,17.174463,41,75,0
17.348469,17.639166,46,60,0
18.054447,18.332224,72,84,0
18.38778,18.443335,74,62,0
18.554447,18.610003,76,63,0
18.721113,18.99889,77,89,0
19.054445,19.11,77,66,0
19.221113,19.276669,77,67,0
19.38778,19.550974,75,68,0
19.721111,19.884306,74,71,0
20.054445,20.387777,75,75,0
20.387777,20.550972,72,45,0
20.721111,20.967638,70,45,0
20.971111,21.050972,70,56,0
21.054443,21.300972,72,59,0
21.304443,21.384304,72,71,0
21.387777,21.72111,74,75,0
21.72111,21.884304,70,60,0
22.054443,22.109999,76,60,0
22.22111,22.276665,77,60,0
22.387775,22.44333,79,60,0
22.554443,22.609999,81,60,0
22.72111,23.304441,77,60,0
23.387775,23.665552,72,60,0
23.721107,23.776663,74,60,0
23.887775,23.94333,76,60,0
24.054441,24.332218,77,60,0
24.387774,24.443329,77,60,0
24.554441,24.609997,77,60,0
24.721107,24.884302,75,60,0
25.05444,25.217634,74,60,0
25.387774,25.721106,75,75,0
25.721106,25.8843,72,45,0
26.05444,26.300966,70,45,0
26.30444,26.3843,70,56,0
26.387772,26.6343,72,59,0
26.637772,26.717632,72,71,0
26.721106,27.054438,74,75,0
27.054438,27.217632,70,60,0
27.387772,27.721104,82,45,0
27.721104,27.884298,76,45,0
28.054438,28.38777,77,45,0
28.38777,28.550964,65,45,0
30.054436,30.109991,72,45,0
30.221102,30.276657,74,46,0
30.387768,30.443323,75,47,0
30.554434,30.60999,72,49,0
30.721102,31.304434,77,71,0
31.387768,31.554434,57,59,0
31.554434,31.7211,65,61,0
31.7211,31.887766,60,63,0
31.887766,32.05096,57,65,0
32.054432,32.2211,58,67,0
32.2211,32.387768,65,69,0
32.387768,32.554432,62,71,0
32.554432,32.71763,58,73,0
32.7211,32.967625,65,75,0
32.9711,33.05096,65,75,0
33.054432,33.30096,64,75,0
33.304432,33.384293,64,75,0
33.387764,33.639896,65,75,0
33.643448,33.725124,65,78,0
33.728676,33.980804,70,79,0
33.984356,34.066032,70,82,0
34.069584,34.327576,72,83,0
34.33121,34.414787,72,86,0
34.41842,34.676414,72,87,0
34.680046,34.763622,74,90,0
34.767258,35.37772,46,92,0
34.767258,35.37772,58,92,0
35.46493,36.075397,50,92,0
35.46493,36.075397,62,92,0
36.162605,36.25084,38,92,0
36.162605,36.25084,50,92,0
36.515545,36.603783,42,92,0
36.515545,36.603783,54,92,0
36.86849,37.486134,43,92,0
36.86849,37.486134,55,92,0
37.574368,38.241035,55,63,0
38.241035,38.824368,58,63,0
38.9077,38.991035,50,45,0
39.241035,39.324368,54,45,0
39.574368,40.1577,55,63,0
40.24103,40.324368,48,45,0
40.574368,40.6577,52,45,0
40.9077,41.18548,53,45,0
41.24103,41.51881,45,45,0
41.574364,41.858456,46,45,0
41.915276,42.199364,48,45,0
42.256184,42.54688,53,45,0
42.953857,43.578854,46,92,0
42.953857,43.578854,58,92,0
43.66814,44.29314,50,92,0
43.66814,44.29314,62,92,0
44.382423,44.47171,38,92,0
44.382423,44.47171,50,92,0
44.739567,44.828854,42,92,0
44.739567,44.828854,54,92,0
45.09671,45.721706,43,92,0
45.09671,45.721706,55,92,0
45.810993,45.92864,70,45,0
45.92864,46.046288,72,45,0
46.046288,46.163933,69,45,0
46.163933,46.28158,70,45,0
46.28158,46.399227,72,45,0
46.399227,46.516876,73,45,0
46.516876,46.63452,74,45,0
46.63452,46.75217,79,45,0
46.75217,46.869816,75,45,0
46.869816,46.987465,74,45,0
46.987465,47.10511,70,45,0
47.10511,47.222755,72,45,0
47.222755,47.340405,74,45,0
47.340405,47.45805,75,45,0
47.45805,47.5757,74,45,0
47.5757,47.693344,72,45,0
47.693344,47.810993,74,45,0
47.810993,47.92864,72,45,0
47.92864,48.046288,70,45,0
48.046288,48.163933,72,45,0
48.163933,48.28158,69,45,0
48.28158,48.399227,67,45,0
48.399227,48.516872,69,45,0
48.516872,48.63452,65,45,0
48.63452,48.752167,64,45,0
48.752167,48.869816,72,45,0
48.869816,48.98746,71,45,0
48.98746,49.10511,74,45,0
49.10511,49.222755,72,45,0
49.222755,49.340405,70,45,0
49.340405,49.45805,69,45,0
49.45805,49.5757,70,45,0
49.5757,49.693344,72,45,0
49.693344,49.81099,74,45,0
49.81099,49.92864,76,45,0
49.92864,50.046284,77,45,0
50.046284,50.163933,79,45,0
50.163933,50.281578,81,45,0
50.281578,50.399227,78,45,0
50.399227,50.516872,79,45,0
50.516872,50.63452,81,45,0
50.63452,50.752167,79,45,0
50.752167,51.05337,77,45,0
51.475056,51.568806,65,92,0
51.568806,51.662556,67,92,0
51.662556,51.756306,65,92,0
51.756306,51.850056,67,92,0
51.850056,51.943806,65,92,0
51.943806,52.037556,67,91,0
52.037556,52.131306,65,90,0
52.131306,52.225056,67,89,0
52.225056,52.318806,65,88,0
52.318806,52.412556,67,87,0
52.412556,52.506306,65,86,0
52.506306,52.600056,67,85,0
52.600056,52.693806,65,84,0
52.693806,52.787556,67,82,0
52.787556,52.881306,65,80,0
52.881306,52.975056,67,78,0
52.975056,53.068806,65,76,0
53.068806,53.162556,67,74,0
53.162556,53.256306,65,72,0
53.256306,53.350056,67,70,0
53.350056,53.443806,65,68,0
53.443806,53.537556,67,66,0
53.537556,53.631306,65,64,0
53.631306,53.725056,67,62,0
53.725056,53.818806,65,60,0
53.818806,53.912556,67,60,0
53.912556,54.006306,65,60,0
54.006306,54.100056,67,60,0
54.100056,54.193806,65,60,0
54.193806,54.287556,67,60,0
54.287556,54.381306,65,60,0
54.381306,54.47115,67,60,0
54.475056,54.568806,65,92,0
54.568806,54.662556,67,92,0
54.662556,54.756306,65,92,0
54.756306,54.850056,67,92,0
54.850056,54.943806,65,92,0
54.943806,55.037556,67,91,0
55.037556,55.131306,65,90,0
55.131306,55.225056,67,89,0
55.225056,55.318806,65,88,0
55.318806,55.412556,67,87,0
55.412556,55.506306,65,86,0
55.506306,55.600056,67,85,0
55.600056,55.693806,65,84,0
55.693806,55.787556,67,82,0
55.787556,55.881306,65,80,0
55.881306,55.975056,67,78,0
55.975056,56.068806,65,76,0
56.068806,56.162556,67,74,0
56.162556,56.256306,65,72,0
56.256306,56.350056,67,70,0
56.350056,56.443806,65,68,0
56.443806,56.537556,67,66,0
56.537556,56.631306,65,64,0
56.631306,56.725056,67,62,0
56.725056,56.818806,65,60,0
56.818806,56.912556,67,60,0
56.912556,57.006306,65,60,0
57.006306,57.100056,67,60,0
57.100056,57.193806,65,60,0
57.193806,57.287556,67,60,0
57.287556,57.381306,65,60,0
57.381306,57.47115,67,60,0
57.475056,57.568806,65,92,0
57.568806,57.662556,68,92,0
57.662556,57.756306,65,92,0
57.756306,57.850056,68,92,0
57.850056,57.943806,65,92,0
57.943806,58.037556,68,91,0
58.037556,58.131306,65,90,0
58.131306,58.225056,68,89,0
58.225056,58.318806,65,88,0
58.318806,58.412556,68,87,0
58.412556,58.506306,65,86,0
58.506306,58.600056,68,85,0
58.600056,58.693806,65,84,0
58.693806,58.787556,68,82,0
58.787556,58.881306,65,80,0
58.881306,58.975056,68,78,0
58.975056,59.068806,65,76,0
59.068806,59.162556,68,74,0
59.162556,59.256306,65,72,0
59.256306,59.350056,68,70,0
59.350056,59.443806,65,68,0
59.443806,59.537556,68,66,0
59.537556,59.631306,65,64,0
59.631306,59.725056,68,62,0
59.725056,59.818806,68,60,0
59.818806,59.912556,71,60,0
59.912556,60.006306,68,60,0
60.006306,60.100056,71,60,0
60.100056,60.193806,68,60,0
60.193806,60.287556,71,60,0
60.287556,60.381306,68,60,0
60.381306,60.47115,71,60,0
60.475056,60.568806,68,45,0
60.568806,60.662556,72,45,0
60.662556,60.756306,68,45,0
60.756306,60.850056,72,45,0
60.850056,60.943806,68,45,0
60.943806,61.037556,72,45,0
61.037556,61.131306,68,45,0
61.131306,61.225056,72,45,0
61.225056,61.318806,68,45,0
61.318806,61.412556,72,45,0
61.412556,61.506306,68,45,0
61.506306,61.600056,72,45,0
61.600056,61.693806,68,45,0
61.693806,61.787556,72,45,0
61.787556,61.881306,68,45,0
61.881306,61.975056,72,45,0
61.975056,62.068806,67,45,0
62.068806,62.162556,70,45,0
62.162556,62.256306,67,45,0
62.256306,62.350056,70,45,0
62.350056,62.443806,67,45,0
62.443806,62.537556,70,45,0
62.537556,62.631306,67,45,0
62.631306,62.725056,70,45,0
62.725056,62.818806,65,75,0
62.818806,62.912556,68,75,0
62.912556,63.006306,65,71,0
63.006306,63.100056,68,67,0
63.100056,63.193806,65,63,0
63.193806,63.287556,68,59,0
63.287556,63.381306,65,55,0
63.381306,63.47115,68,50,0
63.475056,63.568806,63,45,0
63.568806,63.662556,67,45,0
63.662556,63.756306,63,45,0
63.756306,63.850056,67,45,0
63.850056,63.943806,63,45,0
63.943806,64.03756,67,45,0
64.03756,64.13131,63,45,0
64.13131,64.22506,67,45,0
64.22506,64.31881,63,45,0
64.31881,64.41256,67,45,0
64.41256,64.50631,63,45,0
64.50631,64.60006,67,45,0
64.60006,64.69381,63,45,0
64.69381,64.78756,67,45,0
64.78756,64.88131,63,45,0
64.88131,64.97506,67,45,0
64.97506,65.06881,61,45,0
65.06881,65.16256,65,45,0
65.16256,65.25631,61,45,0
65.25631,65.35006,65,45,0
65.35006,65.44381,61,45,0
65.44381,65.53756,65,45,0
65.53756,65.63131,61,45,0
65.63131,65.72506,65,45,0
65.72506,65.81881,60,75,0
65.81881,65.91256,63,75,0
65.91256,66.00631,60,75,0
66.00631,66.10006,63,70,0
66.10006,66.19381,60,65,0
66.19381,66.28756,63,60,0
66.28756,66.38131,60,55,0
66.38131,66.47115,63,50,0
66.47506,66.56881,60,45,0
66.56881,66.66256,63,45,0
66.66256,66.75631,60,45,0
66.75631,66.85006,63,45,0
66.85006,66.94381,60,45,0
66.94381,67.03756,63,45,0
67.03756,67.13131,60,45,0
67.13131,67.22506,63,45,0
67.22506,67.31881,58,75,0
67.31881,67.41256,61,75,0
67.41256,67.50631,58,75,0
67.50631,67.60006,61,70,0
67.60006,67.69381,58,65,0
67.69381,67.78756,61,60,0
67.78756,67.88131,58,55,0
67.88131,67.97506,61,50,0
67.97506,68.06881,56,45,0
68.06881,68.16256,60,45,0
68.16256,68.25631,56,45,0
68.25631,68.35006,60,45,0
68.35006,68.44381,56,45,0
68.44381,68.53756,60,45,0
68.53756,68.63131,56,45,0
68.63131,68.72506,60,45,0
68.72506,68.81881,55,75,0
68.81881,68.91256,58,75,0
68.91256,69.00631,55,75,0
69.00631,69.10006,58,70,0
69.10006,69.19381,55,65,0
69.19381,69.28756,58,60,0
69.28756,69.38131,55,55,0
69.38131,69.47115,58,50,0
69.47506,69.56881,56,45,0
69.56881,69.66256,60,45,0
69.66256,69.75631,56,45,0
69.75631,69.85006,60,45,0
69.85006,69.94381,56,45,0
69.94381,70.03756,60,48,0
70.03756,70.13131,56,51,0
70.13131,70.22506,60,55,0
70.22506,70.31881,58,59,0
70.31881,70.41256,61,63,0
70.41256,70.50631,58,67,0
70.50631,70.60006,61,71,0
70.60006,70.69381,60,75,0
70.69381,70.78756,63,75,0
70.78756,70.88131,60,75,0
70.88131,70.97506,63,75,0
70.97506,71.06881,58,75,0
71.06881,71.16256,61,72,0
71.16256,71.25631,58,69,0
71.25631,71.35006,61,65,0
71.35006,71.44381,56,61,0
71.44381,71.53756,60,57,0
71.53756,71.63131,56,53,0
71.63131,71.72506,60,49,0
71.72506,71.81881,56,45,0
71.81881,71.91256,60,45,0
71.91256,72.00631,56,45,0
72.00631,72.10006,60,45,0
72.10006,72.19381,55,45,0
72.19381,72.28756,58,45,0
72.28756,72.38131,55,45,0
72.38131,72.47115,58,45,0
72.47506,72.56881,60,45,0
72.56881,72.66256,63,45,0
72.66256,72.75631,60,45,0
72.75631,72.85006,63,45,0
72.85006,72.94381,60,45,0
72.94381,73.03756,63,45,0
73.03756,73.13131,60,45,0
73.13131,73.22506,63,45,0
73.22506,73.31881,58,75,0
73.31881,73.41256,61,75,0
73.41256,73.50631,58,75,0
73.50631,73.60006,61,70,0
73.60006,73.69381,58,65,0
73.69381,73.78756,61,60,0
73.78756,73.88131,58,55,0
73.88131,73.97506,61,50,0
73.97506,74.06881,56,45,0
74.06881,74.16256,60,45,0
74.16256,74.25631,56,45,0
74.25631,74.35006,60,45,0
74.35006,74.44381,56,45,0
74.44381,74.53756,60,45,0
74.53756,74.63131,56,45,0
74.63131,74.72506,60,45,0
74.72506,74.81881,55,75,0
74.81881,74.91256,58,75,0
74.91256,75.00631,55,75,0
75.00631,75.10006,58,70,0
75.10006,75.19381,55,65,0
75.19381,75.28756,58,60,0
75.28756,75.38131,55,55,0
75.38131,75.47115,58,50,0
75.47506,75.56881,56,45,0
75.56881,75.66256,60,45,0
75.66256,75.75631,56,45,0
75.75631,75.85006,60,45,0
75.85006,75.94381,56,45,0
75.94381,76.03756,60,47,0
76.03756,76.13131,56,49,0
76.13131,76.22506,60,51,0
76.22506,76.31881,58,53,0
76.31881,76.41256,61,55,0
76.41256,76.50631,58,57,0
76.50631,76.60006,61,60,0
76.60006,76.69381,60,63,0
76.69381,76.78756,63,66,0
76.78756,76.88131,60,69,0
76.88131,76.97506,63,72,0
76.97506,77.06881,58,75,0
77.06881,77.16256,61,75,0
77.16256,77.25631,58,75,0
77.25631,77.35006,61,75,0
77.35006,77.44381,56,75,0
77.44381,77.53756,60,72,0
77.53756,77.63131,56,69,0
77.63131,77.72506,60,65,0
77.72506,77.81881,56,61,0
77.81881,77.91256,60,57,0
77.91256,78.00631,56,53,0
78.00631,78.10006,60,49,0
78.10006,78.19381,55,45,0
78.19381,78.28756,58,45,0
78.28756,78.38131,55,45,0
78.38131,78.47115,58,45,0
78.47506,78.56881,60,45,0
78.56881,78.66256,63,45,0
78.66256,78.75631,60,45,0
78.75631,78.85006,63,45,0
78.85006,78.94381,60,45,0
78.94381,79.03756,63,45,0
79.03756,79.13131,60,45,0
79.13131,79.22506,63,45,0
79.22506,79.31881,58,45,0
79.31881,79.41256,61,45,0
79.41256,79.50631,58,44,0
79.50631,79.60006,61,43,0
79.60006,79.69381,58,42,0
79.69381,79.78756,61,41,0
79.78756,79.88131,58,40,0
79.88131,79.97506,61,39,0
79.97506,80.07121,56,38,0
80.07121,80.167366,60,37,0
80.167366,80.26352,56,36,0
80.26352,80.35967,60,35,0
80.35967,80.455826,56,34,0
80.455826,80.55198,60,33,0
80.55198,80.64813,56,32,0
80.64813,80.744286,60,31,0
80.744286,80.844284,55,30,0
80.844284,80.94429,58,30,0
80.94429,81.04429,55,30,0
81.04429,81.14429,58,30,0
81.14429,81.244286,55,30,0
81.244286,81.344284,58,30,0
81.344284,81.44429,55,30,0
81.44429,81.54012,58,30,0
81.54429,81.79082,53,30,0
81.54429,81.79082,56,30,0
81.79429,81.849846,68,45,0
81.87762,81.96095,68,45,0
82.12762,82.183174,70,45,0
82.21095,82.46095,72,45,0
82.46095,82.54082,77,45,0
82.54429,82.62762,72,45,0
82.79429,82.84984,72,46,0
82.87762,82.96095,72,46,0
83.12762,83.183174,72,47,0
83.21095,83.29429,71,47,0
83.46095,83.51651,70,48,0
83.54429,83.62762,68,48,0
83.79428,83.84984,67,49,0
83.87762,83.96095,65,49,0
84.12762,84.183174,63,50,0
84.21095,84.29428,62,50,0
84.46095,84.51651,70,51,0
84.54428,84.62762,70,51,0
84.79428,84.84984,70,52,0
84.87762,85.124146,70,52,0
85.12762,85.20748,72,53,0
85.21095,85.45747,74,53,0
85.46095,85.54081,75,54,0
85.54428,85.79081,77,54,0
85.79428,85.874146,77,56,0
85.87762,86.124146,77,56,0
86.12762,86.20747,79,59,0
86.21095,86.48872,75,60,0
87.210945,87.374146,55,45,0
87.210945,87.374146,60,45,0
87.210945,87.374146,63,45,0
87.87762,88.04081,55,45,0
87.87762,88.04081,60,45,0
87.87762,88.04081,63,45,0
88.210945,88.37414,55,45,0
88.210945,88.37414,59,45,0
88.54428,88.70747,55,45,0
88.54428,88.70747,62,45,0
89.210945,89.48872,55,46,0
89.210945,89.48872,63,46,0
89.54428,89.70747,53,48,0
89.54428,89.70747,57,48,0
89.87761,90.04081,53,50,0
89.87761,90.04081,60,50,0
89.87761,90.04081,63,50,0
90.210945,90.37414,58,52,0
90.210945,90.37414,62,52,0
90.54428,90.70747,50,54,0
90.54428,90.70747,58,54,0
90.87761,91.0408,51,56,0
90.87761,91.0408,55,56,0
90.87761,91.0408,58,56,0
90.87761,91.0408,60,56,0
91.210945,91.37414,53,58,0
91.210945,91.37414,60,58,0
91.210945,91.37414,63,58,0
91.54427,91.82205,58,60,0
91.54427,91.82205,62,60,0
92.210945,92.32205,70,60,0
92.32205,92.43317,72,60,0
92.43317,92.54427,69,60,0
92.54427,92.65539,70,60,0
92.65539,92.766495,72,60,0
92.766495,92.87761,73,60,0
92.87761,92.98872,74,60,0
92.98872,93.09983,79,60,0
93.09983,93.210945,75,60,0
93.210945,93.32205,74,60,0
93.32205,93.43317,70,60,0
93.43317,93.5408,72,60,0
93.54427,93.65539,74,60,0
93.65539,93.766495,75,60,0
93.766495,93.87761,74,60,0
93.87761,93.988716,72,60,0
93.988716,94.09983,74,60,0
94.09983,94.21094,72,60,0
94.21094,94.32205,70,60,0
94.32205,94.43317,72,60,0
94.43317,94.54427,69,60,0
94.54427,94.65539,67,60,0
94.65539,94.766495,69,60,0
94.766495,94.87761,65,60,0
94.87761,94.988716,64,60,0
94.988716,95.09983,72,60,0
95.09983,95.21094,71,60,0
95.21094,95.32205,74,60,0
95.32205,95.43316,72,60,0
95.43316,95.5408,70,60,0
95.54427,95.65538,69,60,0
95.65538,95.766495,70,60,0
95.766495,95.87761,72,60,0
95.87761,95.988716,74,60,0
95.988716,96.09983,76,60,0
96.09983,96.21094,77,60,0
96.21094,96.32458,79,60,0
96.32458,96.43821,81,60,0
96.43821,96.55185,78,60,0
96.55185,96.66548,79,60,0
96.66548,96.77912,81,60,0
96.77912,96.89275,79,60,0
96.89275,97.063545,77,60,0
97.59874,97.69249,65,92,0
97.69249,97.78624,67,92,0
97.78624,97.87999,65,92,0
97.87999,97.97374,67,92,0
97.97374,98.06749,65,92,0
98.06749,98.16124,67,91,0
98.16124,98.25499,65,90,0
98.25499,98.34874,67,89,0
98.34874,98.44249,65,88,0
98.44249,98.53624,67,87,0
98.53624,98.62999,65,86,0
98.62999,98.72374,67,85,0
98.72374,98.81749,65,84,0
98.81749,98.91124,67,82,0
98.91124,99.00499,65,80,0
99.00499,99.09874,67,78,0
99.09874,99.19249,65,76,0
99.19249,99.28624,67,74,0
99.28624,99.37999,65,72,0
99.37999,99.47374,67,70,0
99.47374,99.56749,65,68,0
99.56749,99.66124,67,66,0
99.66124,99.75499,65,64,0
99.75499,99.84874,67,62,0
99.84874,99.94249,65,60,0
99.94249,100.03624,67,60,0
100.03624,100.12999,65,60,0
100.12999,100.22374,67,60,0
100.22374,100.31749,55,92,0
100.31749,100.41124,67,92,0
100.41124,100.50499,55,92,0
100.50499,100.59483,67,92,0
100.59874,100.69249,65,92,0
100.69249,100.78624,67,92,0
100.78624,100.87999,65,92,0
100.87999,100.97374,67,92,0
100.97374,101.06749,65,92,0
101.06749,101.16124,67,91,0
101.16124,101.25499,65,90,0
101.25499,101.34874,67,89,0
101.34874,101.44249,65,88,0
101.44249,101.53624,67,87,0
101.53624,101.62999,65,86,0
101.62999,101.72374,67,85,0
101.72374,101.81749,65,84,0
101.81749,101.91124,67,82,0
101.91124,102.00499,65,80,0
102.00499,102.09874,67,78,0
102.09874,102.19249,65,76,0
102.19249,102.28624,67,74,0
102.28624,102.37999,65,72,0
102.37999,102.47374,67,70,0
102.47374,102.56749,65,68,0
102.56749,102.66124,67,66,0
102.66124,102.75499,65,64,0
102.75499,102.84874,67,62,0
102.84874,102.94249,65,60,0
102.94249,103.03624,67,60,0
103.03624,103.12999,65,60,0
103.12999,103.22374,67,60,0
103.22374,103.31749,55,92,0
103.31749,103.41124,67,92,0
103.41124,103.50499,55,75,0
103.50499,103.59483,67,75,0
103.59874,103.69249,65,60,0
103.69249,103.78624,68,60,0
103.78624,103.87999,65,60,0
103.87999,103.97374,68,60,0
103.97374,104.06749,65,60,0
104.06749,104.16124,68,61,0
104.16124,104.25499,65,62,0
104.25499,104.34874,68,63,0
104.34874,104.44249,65,64,0
104.44249,104.53624,68,65,0
104.53624,104.62999,65,66,0
104.62999,104.72374,68,67,0
104.72374,104.81749,65,68,0
104.81749,104.91124,68,69,0
104.91124,105.00499,65,70,0
105.00499,105.09874,68,71,0
105.09874,105.19249,65,72,0
105.19249,105.28624,68,73,0
105.28624,105.37999,65,74,0
105.37999,105.47374,68,75,0
105.47374,105.56749,65,76,0
105.56749,105.66124,68,78,0
105.66124,105.75499,65,80,0
105.75499,105.84874,68,82,0
105.84874,105.94249,65,84,0
105.94249,106.03624,68,86,0
106.03624,106.12999,65,88,0
106.12999,106.22374,68,90,0
106.22374,106.31749,53,92,0
106.31749,106.41124,65,92,0
106.41124,106.50499,53,92,0
106.50499,106.59483,65,92,0
106.59874,107.25499,29,45,0
106.59874,109.50499,41,45,0
109.59874,112.91124,41,60,0
112.97374,113.66124,29,60,0
112.97374,113.66124,41,60,0
113.72374,114.03624,29,60,0
113.72374,114.03624,41,60,0
114.47374,115.16124,29,60,0
114.47374,115.16124,41,60,0
115.22374,115.91124,29,60,0
115.22374,115.91124,41,60,0
115.97374,117.41124,29,60,0
115.97374,117.41124,41,60,0
117.47374,118.16124,29,60,0
117.47374,118.16124,41,60,0
118.22374,118.91124,29,60,0
118.22374,118.91124,41,60,0
118.97374,119.66124,29,60,0
118.97374,119.66124,41,60,0
119.72374,120.41124,29,60,0
119.72374,120.41124,41,60,0
120.47374,121.16124,29,60,0
120.47374,121.16124,41,60,0
121.22374,121.91124,29,60,0
121.22374,121.91124,41,60,0
121.97374,123.00499,29,60,0
121.97374,123.00499,41,60,0
123.47374,124.16124,29,75,0
123.47374,124.16124,41,75,0
124.22374,124.91124,29,92,0
124.22374,124.91124,41,92,0
126.84874,127.59874,50,92,0
126.84874,127.59874,57,92,0
126.84874,127.59874,60,92,0
126.84874,127.59874,62,92,0
127.59874,127.78233,55,60,0
127.59874,127.78233,58,60,0
127.59874,127.78233,62,60,0
129.84874,130.59874,55,92,0
129.84874,130.59874,62,92,0
129.84874,130.59874,65,92,0
130.59874,130.78233,60,60,0
130.59874,130.78233,64,60,0
131.34874,132.09874,53,92,0
131.34874,132.09874,60,92,0
131.34874,132.09874,63,92,0
132.09874,132.29457,58,75,0
132.09874,132.29457,62,75,0
132.49873,132.59874,74,75,0
132.59874,132.69873,76,75,0
132.69873,132.79874,77,75,0
132.79874,132.89874,79,75,0
132.89874,133.10855,81,75,0
133.3273,133.53712,72,75,0
133.3273,133.53712,79,75,0
133.3273,133.53712,82,75,0
136.00587,136.75587,46,105,0
136.00587,136.75587,53,105,0
136.00587,136.75587,56,105,0
136.75587,137.06837,51,75,0
136.75587,137.06837,55,75,0
139.00587,139.66212,44,92,0
139.00587,139.66212,51,92,0
139.00587,139.66212,54,92,0
139.75587,140.41212,37,92,0
139.75587,140.41212,49,92,0
140.50587,141.16212,41,92,0
140.50587,141.16212,53,92,0
141.25587,141.34962,32,60,0
141.25587,141.34962,44,60,0
141.63087,141.72462,36,60,0
141.63087,141.72462,48,60,0
142.00587,142.09962,37,64,0
142.00587,142.09962,49,64,0
142.38087,142.47462,39,68,0
142.38087,142.47462,51,68,0
142.75587,142.84962,41,72,0
142.75587,142.84962,53,72,0
143.13087,143.22462,43,77,0
143.13087,143.22462,55,77,0
143.50587,143.59962,44,82,0
143.50587,143.59962,56,82,0
143.88087,143.97462,46,87,0
143.88087,143.97462,58,87,0
144.25587,144.91212,48,92,0
144.25587,144.91212,57,92,0
144.25587,144.91212,60,92,0
145.00587,145.66212,45,92,0
145.00587,145.66212,52,92,0
145.00587,145.66212,57,92,0
145.75587,146.41212,45,92,0
145.75587,146.41212,52,92,0
145.75587,146.41212,57,92,0
146.50587,147.25587,41,92,0
146.50587,147.25587,48,92,0
146.50587,147.25587,51,92,0
146.50587,147.25587,53,92,0
147.25587,147.43947,46,75,0
147.25587,147.43947,50,75,0
147.25587,147.43947,53,75,0
147.63087,147.72462,74,92,0
147.72462,147.81837,76,92,0
147.81837,147.91212,77,92,0
147.91212,148.00587,79,92,0
148.00587,148.18947,81,92,0
148.38087,148.44337,72,92,0
148.38087,148.44337,76,92,0
148.38087,148.44337,79,92,0
148.75587,149.41212,48,92,0
148.75587,149.41212,57,92,0
148.75587,149.41212,60,92,0
149.50587,150.16212,45,92,0
149.50587,150.16212,52,92,0
149.50587,150.16212,57,92,0
150.25587,150.91212,45,92,0
150.25587,150.91212,52,92,0
150.25587,150.91212,57,92,0
151.00587,151.75587,41,92,0
151.00587,151.75587,48,92,0
151.00587,151.75587,51,92,0
151.00587,151.75587,53,92,0
151.75587,151.93947,46,75,0
151.75587,151.93947,50,75,0
151.75587,151.93947,53,75,0
152.13087,152.22462,74,92,0
152.22462,152.31837,76,92,0
152.31837,152.41212,77,92,0
152.41212,152.50587,79,92,0
152.50587,152.68947,81,92,0
152.88087,152.94337,72,92,0
152.88087,152.94337,76,92,0
152.88087,152.94337,79,92,0
153.25587,153.31837,65,92,0
153.25587,153.31837,69,92,0
153.25587,153.31837,72,92,0
153.25587,153.31837,77,92,0
153.63087,153.72462,60,92,0
153.63087,153.72462,64,92,0
153.63087,153.72462,67,92,0
154.00587,154.09962,65,92,0
154.00587,154.09962,69,92,0
154.38087,154.47462,60,88,0
154.38087,154.47462,64,88,0
154.38087,154.47462,67,88,0
154.75587,154.84962,65,84,0
154.75587,154.84962,69,84,0
155.13087,155.19337,60,80,0
155.13087,155.19337,64,80,0
155.13087,155.19337,67,80,0
155.50587,155.56837,65,76,0
155.50587,155.56837,69,76,0
155.88087,155.94337,60,72,0
155.88087,155.94337,67,72,0
156.25587,156.31837,57,66,0
156.25587,156.31837,60,66,0
156.25587,156.31837,65,66,0
156.63087,156.69337,72,60,0
156.63087,156.69337,76,60,0
156.63087,156.69337,79,60,0
157.00587,157.06837,72,60,0
157.00587,157.06837,77,60,0
157.00587,157.06837,81,60,0
157.38087,157.44337,72,60,0
157.38087,157.44337,76,60,0
157.38087,157.44337,79,60,0
157.75587,157.81837,72,60,0
157.75587,157.81837,77,60,0
157.75587,157.81837,81,60,0
158.13087,158.19337,72,60,0
158.13087,158.19337,76,60,0
158.13087,158.19337,79,60,0
158.50587,158.56837,72,60,0
158.50587,158.56837,77,60,0
158.50587,158.56837,81,60,0
158.88087,158.94337,72,60,0
158.88087,158.94337,79,60,0
159.25587,159.43947,69,60,0
159.25587,159.43947,77,60,0
159.63087,159.81447,67,59,0
159.63087,159.81447,72,59,0
160.00587,160.18947,65,57,0
160.00587,160.18947,69,57,0
160.38087,160.56447,60,55,0
160.38087,160.56447,67,55,0
160.75587,160.93947,57,53,0
160.75587,160.93947,65,53,0
161.13087,161.31447,55,51,0
161.13087,161.31447,60,51,0
161.50587,161.68947,53,49,0
161.50587,161.68947,57,49,0
161.88087,162.06447,48,47,0
161.88087,162.06447,55,47,0
162.25587,162.43947,45,45,0
162.25587,162.43947,53,45,0
162.63087,162.81447,48,45,0
162.63087,162.81447,55,45,0
163.00587,163.18947,45,45,0
163.00587,163.18947,53,45,0
163.38087,163.56447,48,45,0
163.38087,163.56447,55,45,0
163.75587,163.93947,45,45,0
163.75587,163.93947,53,45,0
164.13087,164.31447,48,45,0
164.13087,164.31447,55,45,0
164.50587,164.68947,45,45,0
164.50587,164.68947,53,45,0
164.88087,165.06447,48,45,0
164.88087,165.06447,55,45,0
165.25587,165.56837,41,45,0
165.25587,165.56837,45,45,0
165.25587,165.56837,53,45,0
168.33382,168.99007,41,105,0
168.33382,168.99007,53,105,0
169.08382,169.74007,45,105,0
169.08382,169.74007,57,105,0
169.83382,169.92757,45,75,0
170.20882,170.30257,47,75,0
170.58382,171.33382,48,105,0
170.58382,171.33382,52,105,0
170.58382,171.33382,55,105,0
170.58382,171.33382,58,105,0
171.33382,171.64632,53,92,0
171.33382,171.64632,57,92,0
174.40305,175.0593,41,105,0
174.40305,175.0593,53,105,0
175.15305,175.8093,45,105,0
175.15305,175.8093,57,105,0
175.90305,175.9968,45,75,0
176.27805,176.3718,46,75,0
176.65305,177.40305,48,105,0
176.65305,177.40305,55,105,0
176.65305,177.40305,58,105,0
177.40305,177.71555,49,92,0
177.40305,177.71555,53,92,0
177.40305,177.71555,56,92,0
180.4915,181.10915,49,63,0
181.19739,181.81503,49,63,0
181.90326,181.9915,49,45,0
182.25621,182.34444,49,45,0
182.60915,183.22679,49,63,0
183.31503,183.93268,49,63,0
184.0209,184.10915,49,45,0
184.37386,184.46208,49,45,0
184.72679,185.34444,49,63,0
185.43268,186.05032,49,63,0
186.13855,186.22679,49,45,0
186.4915,186.57973,49,45,0
186.84444,187.46208,49,63,0
187.55032,188.16797,49,63,0
188.2562,188.34444,49,45,0
188.60915,188.69737,49,45,0
188.96208,189.57973,49,63,0
189.66797,190.28561,49,77,0
190.37386,190.46208,49,65,0
190.72679,190.81502,49,70,0
191.07973,191.69737,49,105,0
191.78561,192.40326,49,84,0
192.4915,192.57973,49,45,0
192.84444,192.93266,49,45,0
193.19737,193.81502,49,63,0
193.90326,194.5209,49,79,0
194.60915,194.69737,49,69,0
194.96208,195.05032,49,75,0
195.31502,195.93266,49,84,0
196.0209,196.63855,49,84,0
196.72679,196.81502,49,60,0
197.07973,197.16797,49,60,0
197.43266,197.72679,49,60,0
197.78561,198.07973,61,60,0
197.78561,198.07973,65,60,0
198.13855,198.43266,49,60,0
198.49149,198.78561,61,60,0
198.49149,198.78561,65,60,0
198.84444,199.13855,49,60,0
199.19737,199.49149,61,60,0
199.19737,199.49149,65,60,0
199.55031,199.84444,49,60,0
199.90326,200.19737,60,60,0
199.90326,200.19737,63,60,0
200.2562,200.55031,49,60,0
200.60913,200.90326,60,60,0
200.60913,200.90326,63,60,0
200.96208,201.2562,49,60,0
201.31502,201.60913,60,60,0
201.31502,201.60913,63,60,0
201.66795,201.96208,49,60,0
202.0209,202.31502,58,60,0
202.0209,202.31502,61,60,0
202.37384,202.66795,49,60,0
202.72678,203.0209,58,60,0
202.72678,203.0209,61,60,0
203.07973,203.37384,49,60,0
203.43266,203.72678,54,60,0
203.43266,203.72678,58,60,0
203.7856,204.07973,49,60,0
204.13855,204.43266,53,60,0
204.13855,204.43266,56,60,0
204.49149,204.7856,49,60,0
204.84442,205.13855,53,60,0
204.84442,205.13855,56,60,0
205.19737,205.49149,49,60,0
205.55031,205.84442,53,60,0
205.55031,205.84442,61,60,0
205.90326,206.19737,49,60,0
206.60913,206.90324,49,70,0
207.31502,207.60913,49,80,0
207.66795,207.96208,49,86,0
208.0209,208.31502,49,92,0
208.37384,208.66795,56,92,0
208.37384,208.66795,61,92,0
208.37384,208.66795,65,92,0
208.72678,209.0209,49,84,0
209.07973,209.37384,56,76,0
209.07973,209.37384,61,76,0
209.07973,209.37384,65,76,0
209.43266,209.72678,49,68,0
209.7856,210.07973,56,60,0
209.7856,210.07973,61,60,0
209.7856,210.07973,65,60,0
210.13855,210.43266,49,60,0
210.84442,211.13855,49,70,0
211.55031,211.84442,49,80,0
211.90324,212.19737,49,86,0
212.2562,212.55031,49,92,0
213.66795,213.7562,37,92,0
213.66795,213.7562,49,92,0
214.02089,214.10913,32,92,0
214.02089,214.10913,44,92,0
214.37384,214.66795,37,92,0
214.37384,214.66795,49,92,0
215.7856,216.07971,41,92,0
215.7856,216.07971,53,92,0
216.13853,216.43266,36,91,0
216.13853,216.43266,48,91,0
216.49149,216.7856,41,90,0
216.49149,216.7856,53,90,0
216.84442,217.01721,60,89,0
217.02089,217.1937,60,89,0
217.19736,217.49149,56,89,0
217.55031,217.7231,56,88,0
217.72678,217.89957,56,88,0
217.90324,218.07603,51,87,0
218.07971,218.25252,53,86,0
218.25618,218.42899,49,85,0
218.43266,218.60545,51,84,0
218.60913,219.22678,48,83,0
218.60913,219.22678,60,83,0
219.315,219.93266,51,79,0
219.315,219.93266,63,79,0
220.02089,220.315,39,75,0
220.02089,220.315,51,75,0
220.37384,220.66795,43,75,0
220.37384,220.66795,55,75,0
220.72678,221.34442,48,92,0
220.72678,221.34442,60,92,0
221.43266,222.05031,51,92,0
221.43266,222.05031,63,92,0
222.13853,222.43266,43,92,0
222.13853,222.43266,55,92,0
222.49149,222.7856,47,92,0
222.49149,222.7856,59,92,0
222.84442,223.46207,48,92,0
222.84442,223.46207,60,92,0
223.55031,224.16795,51,92,0
223.55031,224.16795,63,92,0
224.25618,224.55031,43,92,0
224.25618,224.55031,55,92,0
224.60913,224.90324,47,92,0
224.60913,224.90324,59,92,0
224.96207,225.25618,48,92,0
224.96207,225.25618,60,92,0
225.315,225.60913,43,88,0
225.315,225.60913,55,88,0
225.66795,225.96207,39,84,0
225.66795,225.96207,51,84,0
226.02089,226.315,36,80,0
226.02089,226.315,48,80,0
226.37383,226.66795,34,75,0
226.37383,226.66795,46,75,0
226.72678,227.02089,32,75,0
226.72678,227.02089,44,75,0
227.07971,227.69736,31,105,0
227.07971,227.69736,43,105,0
228.49147,228.57971,50,75,0
228.49147,228.57971,59,75,0
228.84442,228.93265,50,75,0
228.84442,228.93265,57,75,0
229.19736,229.815,43,60,0
229.19736,229.815,55,60,0
229.90324,230.52089,47,84,0
229.90324,230.52089,59,84,0
230.60912,230.69736,38,60,0
230.60912,230.69736,50,60,0
230.96207,231.0503,42,60,0
230.96207,231.0503,54,60,0
231.315,231.93265,43,105,0
231.315,231.93265,55,105,0
232.72676,232.815,50,75,0
232.72676,232.815,59,75,0
233.07971,233.16794,50,75,0
233.07971,233.16794,57,75,0
233.43265,234.0503,43,60,0
233.43265,234.0503,55,60,0
234.13853,234.75618,47,84,0
234.13853,234.75618,59,84,0
234.84442,234.93265,38,60,0
234.84442,234.93265,50,60,0
235.19736,235.28558,42,60,0
235.19736,235.28558,54,60,0
235.5503,235.63853,43,92,0
235.5503,235.63853,55,92,0
235.90324,235.99147,50,92,0
235.90324,235.99147,57,92,0
235.90324,235.99147,60,92,0
236.25618,236.3444,55,92,0
236.25618,236.3444,59,92,0
236.60912,236.69736,50,92,0
236.60912,236.69736,57,92,0
236.60912,236.69736,60,92,0
236.96207,237.0503,55,92,0
236.96207,237.0503,59,92,0
237.315,237.40323,50,92,0
237.315,237.40323,57,92,0
237.315,237.40323,60,92,0
237.66794,237.96207,55,92,0
237.66794,237.96207,59,92,0
241.98996,242.6381,51,60,0
244.19432,244.48845,51,45,0
244.9002,245.19432,51,45,0
245.6061,245.89018,50,45,0
246.2879,246.56569,51,45,0
246.95457,247.23236,55,49,0
247.62125,247.78444,53,54,0
247.95457,248.11777,51,56,0
248.2879,248.56569,50,60,0
248.95457,249.11777,51,45,0
249.2879,249.4511,50,60,0
249.62125,249.89902,49,75,0
250.2879,250.4511,48,60,0
250.62125,250.78444,44,60,0
250.95457,251.23235,46,60,0
251.62123,251.89902,51,60,0
252.2879,252.56569,55,60,0
252.95457,253.11777,53,60,0
253.2879,253.4511,51,60,0
253.62123,253.89902,50,60,0
254.2879,254.4511,51,60,0
254.62123,254.78442,51,75,0
254.95457,255.23235,51,75,0
255.62123,255.89902,48,63,0
256.2879,256.56567,51,45,0
256.95456,257.23233,48,63,0
257.62125,257.89902,51,45,0
258.2879,258.45108,58,45,0
258.62122,258.78442,56,47,0
258.95456,259.11777,55,51,0
259.2879,259.45108,51,55,0
259.62122,259.78442,58,59,0
259.95456,260.11777,56,63,0
260.2879,260.45108,55,67,0
260.62122,260.78442,51,71,0
260.95456,261.11777,43,75,0
261.2879,261.45108,42,75,0
261.62122,261.78442,43,75,0
261.95456,262.11777,48,75,0
262.2879,262.45108,44,92,0
262.62122,262.78442,46,60,0
262.95456,263.23233,51,60,0
263.62122,263.89902,77,84,0
263.95456,264.0101,79,60,0
264.12122,264.1768,81,60,0
264.2879,264.56567,82,84,0
264.62122,264.6768,82,60,0
264.7879,264.84344,82,60,0
264.95456,265.0101,80,60,0
265.2879,265.34344,79,60,0
265.62122,265.95456,80,60,0
265.95456,266.11774,77,60,0
266.2879,266.53442,75,60,0
266.5379,266.61774,75,72,0
266.62122,266.86774,77,76,0
266.87122,266.95108,77,88,0
266.95456,267.2879,79,92,0
267.2879,267.45108,75,75,0
267.62122,267.6768,81,60,0
267.7879,267.84344,82,60,0
267.95456,268.0101,84,60,0
268.12122,268.1768,86,60,0
268.2879,268.56567,82,60,0
268.95456,269.23233,65,105,0
269.28787,269.45108,67,75,0
269.45456,269.61774,69,75,0
269.62122,269.899,70,105,0
269.95456,270.11774,70,75,0
270.12122,270.28442,70,75,0
270.28787,270.45108,68,75,0
270.62122,270.78442,67,75,0
270.95456,271.28787,68,105,0
271.28787,271.45108,65,75,0
272.95456,273.23233,38,105,0
272.95456,273.23233,50,105,0
273.28787,273.34344,52,75,0
273.45456,273.5101,54,75,0
273.62122,273.899,55,105,0
274.28787,274.56567,74,60,0
274.62122,274.67676,76,60,0
274.78787,274.84344,78,60,0
274.95456,275.23233,79,60,0
275.62122,275.899,74,62,0
275.95456,276.0101,76,63,0
276.12122,276.17676,78,63,0
276.28787,276.56564,79,63,0
278.28787,278.56564,70,105,0
278.62122,278.67676,72,75,0
278.78787,278.84344,74,75,0
278.95453,279.23233,75,105,0
279.28787,279.34344,75,75,0
279.45453,279.5101,75,75,0
279.62122,279.7844,73,75,0
279.95453,280.11774,72,75,0
280.28787,280.62122,73,105,0
280.62122,280.7844,70,75,0
280.95453,281.12122,65,75,0
281.12122,281.28787,60,75,0
281.28787,281.45453,58,75,0
281.45453,281.62122,60,75,0
281.62122,281.78787,56,75,0
281.78787,281.95453,60,75,0
281.95453,282.12122,56,75,0
282.12122,282.2844,53,75,0
282.28787,282.56564,31,105,0
282.28787,282.56564,43,105,0
282.62122,282.67676,45,75,0
282.78787,282.8434,47,75,0
282.95453,283.23233,48,105,0
283.62122,283.899,67,105,0
283.95453,284.0101,69,75,0
284.12122,284.17676,71,75,0
284.28787,284.56564,72,75,0
284.95453,285.23233,79,99,0
285.28787,285.3434,81,69,0
285.45453,285.5101,83,68,0
285.62122,285.899,84,67,0
286.95453,287.2323,77,59,0
287.28787,287.3434,79,57,0
287.45453,287.5101,81,56,0
287.62122,287.899,82,55,0
288.28787,288.56564,65,51,0
288.62122,288.67676,67,48,0
288.78787,288.8434,69,47,0
288.95453,289.11774,70,45,0
288.95453,289.11774,74,45,0
289.28787,289.45105,65,45,0
289.28787,289.45105,72,45,0
289.6212,289.899,62,45,0
289.6212,289.899,70,45,0
289.95453,290.11774,62,45,0
289.95453,290.11774,65,45,0
290.28787,290.45105,63,45,0
290.6212,290.7844,62,45,0
290.6212,290.7844,65,45,0
290.78787,290.95105,58,45,0
290.95453,291.11774,57,45,0
290.95453,291.11774,65,45,0
291.28787,291.45105,53,45,0
291.6212,291.7844,50,45,0
291.6212,291.7844,58,45,0
291.95453,292.1212,53,45,0
291.95453,292.1212,60,45,0
292.1212,292.2844,50,45,0
292.1212,292.2844,58,45,0
292.28787,292.45105,53,45,0
292.28787,292.45105,60,45,0
292.6212,292.7844,58,45,0
292.6212,292.7844,62,45,0
292.95453,293.11774,60,45,0
292.95453,293.11774,63,45,0
293.28787,293.45105,63,45,0
293.28787,293.45105,67,45,0
293.6212,294.20453,53,63,0
293.6212,294.20453,60,63,0
294.28787,294.45105,70,45,0
294.28787,294.45105,74,45,0
294.6212,294.7844,65,45,0
294.6212,294.7844,72,45,0
294.95453,295.11774,62,45,0
294.95453,295.11774,70,45,0
295.28787,295.45105,62,45,0
295.28787,295.45105,65,45,0
295.6212,295.7844,63,45,0
295.6212,295.7844,65,45,0
295.95453,296.1177,62,45,0
295.95453,296.1177,65,45,0
296.1212,296.2844,58,45,0
296.28787,296.45105,57,45,0
296.28787,296.45105,65,45,0
296.6212,296.7844,53,45,0
296.95453,297.1177,58,45,0
296.95453,297.1177,62,45,0
297.28787,297.45105,58,59,0
297.28787,297.45105,60,59,0
297.28787,297.45105,63,59,0
297.6212,297.7844,58,75,0
297.6212,297.7844,61,75,0
297.6212,297.7844,64,75,0
297.95453,298.1177,58,60,0
297.95453,298.1177,62,60,0
297.95453,298.1177,65,60,0
298.28787,298.45105,58,45,0
298.28787,298.45105,61,45,0
298.28787,298.45105,64,45,0
298.6212,298.7844,58,45,0
298.6212,298.7844,61,45,0
298.6212,298.7844,64,45,0
298.6212,298.7844,70,45,0
298.95453,299.1177,58,45,0
298.95453,299.1177,62,45,0
298.95453,299.1177,65,45,0
298.95453,299.1177,70,45,0
299.28784,299.45105,58,45,0
299.28784,299.45105,62,45,0
299.28784,299.45105,65,45,0
299.6212,299.7844,58,45,0
299.6212,299.7844,61,45,0
299.6212,299.7844,64,45,0
299.95453,300.1177,58,45,0
299.95453,300.1177,61,45,0
299.95453,300.1177,64,45,0
299.95453,300.1177,70,45,0
300.28784,300.45105,58,45,0
300.28784,300.45105,62,45,0
300.28784,300.45105,65,45,0
300.28784,300.45105,70,45,0
300.6212,300.7844,58,45,0
300.6212,300.7844,62,45,0
300.6212,300.7844,65,45,0
300.95453,301.1177,53,45,0
301.28784,301.45105,51,51,0
301.28784,301.45105,53,51,0
301.6212,301.7844,50,57,0
301.6212,301.7844,53,57,0
301.95453,302.1177,46,63,0
301.95453,302.1177,53,63,0
302.28784,302.45105,53,69,0
302.6212,302.7844,51,76,0
302.6212,302.7844,53,76,0
302.95453,303.1177,50,84,0
302.95453,303.1177,53,84,0
303.28784,303.45105,46,92,0
303.28784,303.45105,53,92,0
303.6212,303.7844,50,92,0
303.6212,303.7844,58,92,0
303.95453,304.1177,49,92,0
303.95453,304.1177,58,92,0
304.28784,304.45105,50,92,0
304.28784,304.45105,58,92,0
304.6212,304.7844,50,84,0
304.6212,304.7844,53,84,0
304.95453,305.1177,51,76,0
304.95453,305.1177,55,76,0
305.28784,305.45105,53,68,0
305.6212,305.7844,58,60,0
306.28784,306.45105,46,60,0
306.95453,307.1177,50,60,0
307.6212,307.78436,43,60,0
308.28784,308.45105,31,60,0
308.95453,309.1177,34,60,0
309.6212,309.78436,39,60,0
310.28784,310.45105,51,60,0
310.9545,311.1177,55,60,0
311.6212,311.78436,60,60,0
312.28784,312.45105,48,76,0
312.9545,313.1177,36,92,0
313.6212,313.78436,53,60,0
314.28784,314.45105,45,45,0
314.9545,315.1177,48,45,0
315.6212,315.78436,53,45,0
316.28784,316.45102,45,45,0
316.9545,317.23227,48,45,0
317.6212,317.78436,53,45,0
318.28784,318.45102,45,45,0
318.9545,319.1177,48,45,0
319.62115,319.78436,53,45,0
320.28784,320.45102,45,45,0
320.9545,321.1177,48,60,0
321.62115,321.78436,53,92,0
322.9545,323.53784,41,105,0
322.9545,323.53784,53,105,0
323.62115,324.2045,45,105,0
323.62115,324.2045,57,105,0
324.28784,324.5656,33,75,0
324.28784,324.5656,45,75,0
324.62115,324.89896,36,75,0
324.62115,324.89896,48,75,0
324.9545,325.53784,41,75,0
324.9545,325.53784,53,75,0
325.62115,326.2045,45,105,0
325.62115,326.2045,57,105,0
326.28784,326.5656,33,75,0
326.28784,326.5656,45,75,0
326.62115,326.89893,36,75,0
326.62115,326.89893,48,75,0
326.9545,327.53784,41,75,0
326.9545,327.53784,53,75,0
327.62115,328.2045,45,106,0
327.62115,328.2045,57,106,0
328.28784,328.87115,48,107,0
328.28784,328.87115,60,107,0
328.9545,329.23227,36,78,0
328.9545,329.23227,48,78,0
329.28784,329.5656,41,78,0
329.28784,329.5656,53,78,0
329.62115,330.2045,45,78,0
329.62115,330.2045,57,78,0
330.2878,330.87115,48,110,0
330.2878,330.87115,60,110,0
330.9545,331.5378,51,112,0
330.9545,331.5378,63,112,0
331.62115,331.89893,48,81,0
331.62115,331.89893,60,81,0
331.9545,332.23227,45,81,0
331.9545,332.23227,57,81,0
332.2878,332.87115,41,82,0
332.2878,332.87115,53,82,0
332.9545,333.0378,45,84,0
332.9545,333.0378,57,84,0
333.2878,333.37115,48,85,0
333.2878,333.37115,60,85,0
333.62115,333.7064,53,86,0
333.62115,333.7064,65,86,0
333.96207,334.0473,51,87,0
333.96207,334.0473,63,87,0
334.30298,334.3912,48,88,0
334.30298,334.3912,60,88,0
334.6559,334.74414,45,89,0
334.6559,334.74414,57,89,0
335.00885,335.1026,41,90,0
335.00885,335.1026,53,90,0
335.38385,335.4776,29,91,0
335.38385,335.4776,41,91,0
335.75885,336.3765,34,92,0
335.75885,336.3765,46,92,0
336.46475,337.0824,38,105,0
336.46475,337.0824,50,105,0
337.17062,337.25885,38,75,0
337.17062,337.25885,50,75,0
337.52356,337.6118,42,75,0
337.52356,337.6118,54,75,0
337.8765,338.49414,43,75,0
337.8765,338.49414,55,75,0
338.5824,339.20004,55,84,0
339.28827,339.9059,58,84,0
339.99414,340.0824,50,60,0
340.34708,340.43533,54,60,0
340.70004,341.3177,55,84,0
341.4059,341.49414,58,60,0
341.75885,341.84708,62,60,0
342.1118,342.20004,63,60,0
342.46472,342.55298,55,60,0
342.8177,342.9059,56,60,0
343.17062,343.25885,58,60,0
343.52356,343.8177,63,60,0
344.22943,344.84708,39,105,0
344.22943,344.84708,51,105,0
344.93533,345.55298,43,105,0
344.93533,345.55298,55,105,0
345.6412,345.72943,31,75,0
345.6412,345.72943,43,75,0
345.99414,346.08237,35,75,0
345.99414,346.08237,47,75,0
346.34708,346.96472,36,75,0
346.34708,346.96472,48,75,0
347.05298,347.16693,75,60,0
347.17062,347.28458,77,60,0
347.28827,347.40222,74,60,0
347.4059,347.51987,75,60,0
347.52356,347.6375,77,60,0
347.6412,347.7552,78,60,0
347.75885,347.87283,79,60,0
347.8765,347.99048,84,60,0
347.99414,348.10812,80,60,0
348.1118,348.22577,79,60,0
348.22943,348.3434,75,60,0
348.34708,348.46106,77,60,0
348.46472,348.5787,79,60,0
348.58237,348.69635,80,60,0
348.7,348.814,79,60,0
348.8177,348.93164,77,60,0
348.93533,349.0493,79,60,0
349.05298,349.16693,77,60,0
349.17062,349.28458,75,60,0
349.28827,349.40222,77,60,0
349.4059,349.51987,74,60,0
349.52356,349.6375,72,60,0
349.6412,349.75516,74,60,0
349.75885,349.87283,70,60,0
349.8765,349.99048,69,60,0
349.99414,350.10812,77,60,0
350.1118,350.22577,76,60,0
350.22943,350.3434,79,60,0
350.34708,350.46106,77,60,0
350.46472,350.5787,75,60,0
350.58237,350.69635,74,60,0
350.7,350.814,75,60,0
350.81766,350.93164,77,60,0
350.93533,351.0493,79,60,0
351.05298,351.16693,81,60,0
351.17062,351.28458,82,60,0
351.28827,351.40222,84,60,0
351.4059,351.51987,86,60,0
351.52356,351.6375,83,60,0
351.6412,351.75516,84,60,0
351.75885,351.87283,86,60,0
351.8765,351.99048,84,60,0
351.99414,352.29535,82,60,0
352.7306,352.82434,58,92,0
352.82434,352.9181,60,92,0
352.9181,353.01184,58,92,0
353.01184,353.1056,60,92,0
353.1056,353.19934,58,92,0
353.19934,353.2931,60,91,0
353.2931,353.38684,58,90,0
353.38684,353.4806,60,89,0
353.4806,353.57434,58,88,0
353.57434,353.6681,60,87,0
353.6681,353.76184,58,86,0
353.76184,353.8556,60,85,0
353.8556,353.94934,58,84,0
353.94934,354.0431,60,82,0
354.0431,354.13684,58,80,0
354.13684,354.2306,60,78,0
354.2306,354.32434,58,76,0
354.32434,354.4181,60,74,0
354.4181,354.51184,58,72,0
354.51184,354.6056,60,70,0
354.6056,354.69934,58,68,0
354.69934,354.7931,60,66,0
354.7931,354.88684,58,64,0
354.88684,354.9806,60,62,0
354.9806,355.07434,58,60,0
355.07434,355.1681,60,60,0
355.1681,355.26184,58,60,0
355.26184,355.3556,60,60,0
355.3556,355.44934,58,60,0
355.44934,355.5431,60,60,0
355.5431,355.63684,58,60,0
355.63684,355.72668,60,60,0
355.7306,355.82434,58,92,0
355.82434,355.9181,60,92,0
355.9181,356.01184,58,92,0
356.01184,356.1056,60,92,0
356.1056,356.19934,58,92,0
356.19934,356.2931,60,91,0
356.2931,356.38684,58,90,0
356.38684,356.4806,60,89,0
356.4806,356.57434,58,88,0
356.57434,356.6681,60,87,0
356.6681,356.76184,58,86,0
356.76184,356.8556,60,85,0
356.8556,356.94934,58,84,0
356.94934,357.0431,60,82,0
357.0431,357.13684,58,80,0
357.13684,357.2306,60,78,0
357.2306,357.32434,58,76,0
357.32434,357.4181,60,74,0
357.4181,357.51184,58,72,0
357.51184,357.6056,60,70,0
357.6056,357.69934,58,68,0
357.69934,357.7931,60,66,0
357.7931,357.88684,58,64,0
357.88684,357.9806,60,62,0
357.9806,358.07434,58,60,0
358.07434,358.1681,60,60,0
358.1681,358.26184,58,60,0
358.26184,358.3556,60,60,0
358.3556,358.44934,58,60,0
358.44934,358.5431,60,60,0
358.5431,358.63684,58,60,0
358.63684,358.72668,60,60,0
358.7306,358.82434,58,92,0
358.82434,358.9181,61,92,0
358.9181,359.01184,58,88,0
359.01184,359.1056,61,84,0
359.1056,359.19934,58,80,0
359.19934,359.2931,61,75,0
359.2931,359.38684,58,70,0
359.38684,359.4806,61,65,0
359.4806,359.57434,58,60,0
359.57434,359.6681,61,60,0
359.6681,359.76184,58,60,0
359.76184,359.8556,61,60,0
359.8556,359.94934,58,60,0
359.94934,360.0431,61,60,0
360.0431,360.13684,58,61,0
360.13684,360.2306,61,62,0
360.2306,360.32434,58,63,0
360.32434,360.4181,61,64,0
360.4181,360.51184,58,65,0
360.51184,360.6056,61,66,0
360.6056,360.69934,58,67,0
360.69934,360.7931,61,68,0
360.7931,360.88684,58,69,0
360.88684,360.9806,61,70,0
360.9806,361.07434,61,71,0
361.07434,361.1681,64,72,0
361.1681,361.26184,61,73,0
361.26184,361.3556,64,74,0
361.3556,361.44934,61,75,0
361.44934,361.5431,64,75,0
361.5431,361.63684,61,75,0
361.63684,361.72668,64,75,0
361.7306,361.82434,61,45,0
361.82434,361.9181,65,45,0
361.9181,362.01184,61,45,0
362.01184,362.1056,65,45,0
362.1056,362.19934,61,45,0
362.19934,362.2931,65,45,0
362.2931,362.38684,61,45,0
362.38684,362.4806,65,45,0
362.4806,362.57434,61,45,0
362.57434,362.6681,65,45,0
362.6681,362.76184,61,45,0
362.76184,362.8556,65,45,0
362.8556,362.94934,61,45,0
362.94934,363.0431,65,45,0
363.0431,363.13684,61,45,0
363.13684,363.2306,65,45,0
363.2306,363.32434,60,45,0
363.32434,363.4181,63,45,0
363.4181,363.51184,60,45,0
363.51184,363.6056,63,45,0
363.6056,363.69934,60,45,0
363.69934,363.7931,63,45,0
363.7931,363.88684,60,45,0
363.88684,363.9806,63,45,0
363.9806,364.07434,58,75,0
364.07434,364.1681,61,75,0
364.1681,364.26184,58,60,0
364.26184,364.3556,61,60,0
364.3556,364.44934,58,45,0
364.44934,364.5431,61,45,0
364.5431,364.63684,58,45,0
364.63684,364.72668,61,45,0
364.7306,364.82434,56,45,0
364.82434,364.9181,60,45,0
364.9181,365.01184,56,45,0
365.01184,365.1056,60,45,0
365.1056,365.19934,56,45,0
365.19934,365.2931,60,45,0
365.2931,365.38684,56,45,0
365.38684,365.4806,60,45,0
365.4806,365.57434,56,45,0
365.57434,365.6681,60,45,0
365.6681,365.76184,56,45,0
365.76184,365.8556,60,45,0
365.8556,365.94934,56,45,0
365.94934,366.0431,60,45,0
366.0431,366.13684,56,45,0
366.13684,366.2306,60,45,0
366.2306,366.32434,54,45,0
366.32434,366.4181,58,45,0
366.4181,366.51184,54,45,0
366.51184,366.6056,58,45,0
366.6056,366.69934,54,45,0
366.69934,366.7931,58,45,0
366.7931,366.88684,54,45,0
366.88684,366.9806,58,45,0
366.9806,367.07434,53,75,0
367.07434,367.1681,56,75,0
367.1681,367.26184,53,60,0
367.26184,367.3556,56,60,0
367.3556,367.44934,53,45,0
367.44934,367.5431,56,45,0
367.5431,367.63684,53,45,0
367.63684,367.72668,56,45,0
367.7306,367.82434,53,45,0
367.82434,367.9181,56,45,0
367.9181,368.01184,53,45,0
368.01184,368.1056,56,45,0
368.1056,368.19934,53,45,0
368.19934,368.2931,56,45,0
368.2931,368.38684,53,45,0
368.38684,368.4806,56,45,0
368.4806,368.57434,51,75,0
368.57434,368.6681,54,75,0
368.6681,368.76184,51,71,0
368.76184,368.8556,54,67,0
368.8556,368.94934,51,63,0
368.94934,369.0431,54,59,0
369.0431,369.13684,51,55,0
369.13684,369.2306,54,50,0
369.2306,369.32434,49,45,0
369.32434,369.4181,53,45,0
369.4181,369.51184,49,45,0
369.51184,369.6056,53,45,0
369.6056,369.69934,49,45,0
369.69934,369.7931,53,45,0
369.7931,369.88684,49,45,0
369.88684,369.9806,53,45,0
369.9806,370.07434,48,75,0
370.07434,370.1681,51,75,0
370.1681,370.26184,48,71,0
370.26184,370.3556,51,67,0
370.3556,370.44934,48,63,0
370.44934,370.5431,51,59,0
370.5431,370.63684,48,55,0
370.63684,370.72668,51,50,0
370.7306,370.82434,49,45,0
370.82434,370.9181,53,45,0
370.9181,371.01184,49,45,0
371.01184,371.1056,53,45,0
371.1056,371.19934,49,45,0
371.19934,371.2931,53,45,0
371.2931,371.38684,49,45,0
371.38684,371.4806,53,45,0
371.4806,371.57434,51,45,0
371.57434,371.6681,54,48,0
371.6681,371.76184,51,51,0
371.76184,371.8556,54,55,0
371.8556,371.94934,53,59,0
371.94934,372.0431,56,63,0
372.0431,372.13684,53,67,0
372.13684,372.2306,56,71,0
372.2306,372.32434,51,75,0
372.32434,372.4181,54,75,0
372.4181,372.51184,51,75,0
372.51184,372.6056,54,75,0
372.6056,372.69934,49,75,0
372.69934,372.7931,53,68,0
372.7931,372.88684,49,61,0
372.88684,372.9806,53,53,0
372.9806,373.07434,49,45,0
373.07434,373.1681,53,45,0
373.1681,373.26184,49,45,0
373.26184,373.3556,53,45,0
373.3556,373.44934,48,45,0
373.44934,373.5431,51,45,0
373.5431,373.63684,48,45,0
373.63684,373.72668,51,45,0
373.7306,373.82434,53,45,0
373.82434,373.9181,56,45,0
373.9181,374.01184,53,45,0
374.01184,374.1056,56,45,0
374.1056,374.19934,53,45,0
374.19934,374.2931,56,45,0
374.2931,374.38684,53,45,0
374.38684,374.4806,56,45,0
374.4806,374.57434,51,75,0
374.57434,374.6681,54,75,0
374.6681,374.76184,51,71,0
374.76184,374.8556,54,67,0
374.8556,374.94934,51,63,0
374.94934,375.0431,54,59,0
375.0431,375.13684,51,55,0
375.13684,375.2306,54,50,0
375.2306,375.32434,49,45,0
375.32434,375.4181,53,45,0
375.4181,375.51184,49,45,0
375.51184,375.6056,53,45,0
375.6056,375.69934,49,45,0
375.69934,375.7931,53,45,0
375.7931,375.88684,49,45,0
375.88684,375.9806,53,45,0
375.9806,376.07434,48,75,0
376.07434,376.1681,51,75,0
376.1681,376.26184,48,71,0
376.26184,376.3556,51,67,0
376.3556,376.44934,48,63,0
376.44934,376.5431,51,59,0
376.5431,376.63684,48,55,0
376.63684,376.72668,51,50,0
376.7306,376.82434,49,45,0
376.82434,376.9181,53,45,0
376.9181,377.01184,49,45,0
377.01184,377.1056,53,45,0
377.1056,377.19934,49,45,0
377.19934,377.2931,53,45,0
377.2931,377.38684,49,45,0
377.38684,377.4806,53,45,0
377.4806,377.57434,51,45,0
377.57434,377.6681,54,48,0
377.6681,377.76184,51,51,0
377.76184,377.8556,54,55,0
377.8556,377.94934,53,59,0
377.94934,378.0431,56,63,0
378.0431,378.13684,53,67,0
378.13684,378.2306,56,71,0
378.2306,378.32434,51,75,0
378.32434,378.4181,54,75,0
378.4181,378.51184,51,73,0
378.51184,378.6056,54,71,0
378.6056,378.69934,49,69,0
378.69934,378.7931,53,67,0
378.7931,378.88684,49,65,0
378.88684,378.9806,53,63,0
378.9806,379.07434,49,60,0
379.07434,379.1681,53,60,0
379.1681,379.26184,49,60,0
379.26184,379.3556,53,60,0
379.3556,379.44934,48,60,0
379.44934,379.5431,51,60,0
379.5431,379.63684,48,60,0
379.63684,379.72668,51,60,0
379.7306,379.82434,53,45,0
379.82434,379.9181,56,45,0
379.9181,380.01184,53,45,0
380.01184,380.1056,56,45,0
380.1056,380.19934,53,45,0
380.19934,380.2931,56,45,0
380.2931,380.38684,53,45,0
380.38684,380.4806,56,45,0
380.4806,380.57434,51,45,0
380.57434,380.6681,54,45,0
380.6681,380.76184,51,45,0
380.76184,380.8556,54,45,0
380.8556,380.94934,51,45,0
380.94934,381.0431,54,45,0
381.0431,381.13684,51,45,0
381.13684,381.2306,54,45,0
381.2306,381.32434,49,45,0
381.32434,381.4181,53,45,0
381.4181,381.51184,49,45,0
381.51184,381.6056,53,45,0
381.6056,381.69934,49,45,0
381.69934,381.7931,53,45,0
381.7931,381.88684,49,45,0
381.88684,381.9806,53,45,0
381.9806,382.07434,48,45,0
382.07434,382.1681,51,45,0
382.1681,382.26184,48,45,0
382.26184,382.3556,51,45,0
382.3556,382.44934,48,45,0
382.44934,382.5431,51,45,0
382.5431,382.63684,48,45,0
382.63684,382.72668,51,45,0
382.7306,382.9916,46,45,0
382.7306,382.9916,49,45,0
382.9953,383.0541,73,45,0
383.08353,383.17175,73,45,0
383.34824,383.40704,75,45,0
383.43646,383.70117,77,45,0
383.70117,383.78574,82,45,0
383.7894,383.87766,77,45,0
384.0541,384.11295,77,45,0
384.14236,384.2306,77,45,0
384.40704,384.46588,77,45,0
384.4953,384.58353,76,45,0
384.76,384.81882,75,45,0
384.84824,384.93646,73,45,0
385.11295,385.17175,72,45,0
385.20117,385.2894,70,45,0
385.46588,385.5247,68,45,0
385.5541,385.64236,67,45,0
385.81882,385.87766,75,45,0
385.90704,385.9953,75,45,0
386.17175,386.2306,75,45,0
386.26,386.34824,75,45,0
386.5247,386.58353,77,45,0
386.61295,386.70117,79,45,0
386.87766,386.93646,80,45,0
386.96588,387.0541,82,45,0
387.2306,387.2894,82,45,0
387.31882,387.40704,82,45,0
387.58353,387.64236,84,45,0
387.67175,387.76,80,45,0
388.7306,388.90338,60,60,0
388.7306,388.90338,65,60,0
388.7306,388.90338,68,60,0
389.43646,389.60925,60,60,0
389.43646,389.60925,65,60,0
389.43646,389.60925,68,60,0
389.7894,389.9622,60,60,0
389.7894,389.9622,64,60,0
390.14233,390.31516,60,60,0
390.14233,390.31516,67,60,0
390.84824,391.14233,60,60,0
390.84824,391.14233,68,60,0
391.20117,391.37396,58,60,0
391.20117,391.37396,62,60,0
391.20117,391.37396,70,60,0
391.5541,391.7269,58,60,0
391.5541,391.7269,65,60,0
391.5541,391.7269,68,60,0
391.90704,392.07983,58,60,0
391.90704,392.07983,63,60,0
391.90704,392.07983,67,60,0
392.25998,392.4328,55,60,0
392.25998,392.4328,58,60,0
392.25998,392.4328,63,60,0
392.61295,392.78574,56,60,0
392.61295,392.78574,60,60,0
392.61295,392.78574,65,60,0
392.96588,393.13867,58,60,0
392.96588,393.13867,65,60,0
392.96588,393.13867,68,60,0
393.31882,393.57983,63,60,0
393.31882,393.57983,67,60,0
393.58353,393.6681,70,60,0
393.67175,393.9328,72,60,0
393.93646,394.02103,74,60,0
394.0247,394.14233,75,60,0
394.14233,394.25998,77,60,0
394.25998,394.37766,74,60,0
394.37766,394.4953,75,60,0
394.4953,394.61295,77,60,0
394.61295,394.7306,78,60,0
394.7306,394.84824,79,60,0
394.84824,394.96588,84,60,0
394.96588,395.08353,80,60,0
395.08353,395.20117,79,60,0
395.20117,395.31882,75,60,0
395.31882,395.43646,77,60,0
395.43646,395.5541,79,60,0
395.5541,395.67175,80,60,0
395.67175,395.7894,79,60,0
395.7894,395.90704,77,60,0
395.90704,396.0247,79,60,0
396.0247,396.13867,77,60,0
396.14233,396.25998,75,60,0
396.25998,396.37762,77,60,0
396.37762,396.4953,74,60,0
396.4953,396.61295,72,60,0
396.61295,396.7306,74,60,0
396.7306,396.84824,70,60,0
396.84824,396.96588,69,60,0
396.96588,397.08353,77,60,0
397.08353,397.20117,76,60,0
397.20117,397.31882,79,60,0
397.31882,397.43646,77,60,0
397.43646,397.5541,75,60,0
397.5541,397.67175,74,60,0
397.67175,397.7894,75,60,0
397.7894,397.90704,77,60,0
397.90704,398.0247,79,60,0
398.0247,398.14233,81,60,0
398.14233,398.25998,82,60,0
398.25998,398.37762,84,60,0
398.37762,398.49527,86,60,0
398.49527,398.61295,83,60,0
398.61295,398.7306,84,60,0
398.7306,398.84824,86,60,0
398.84824,398.96588,84,60,0
398.96588,399.2671,82,60,0
399.70233,399.79608,58,92,0
399.79608,399.88983,60,92,0
399.88983,399.98358,58,92,0
399.98358,400.07733,60,92,0
400.07733,400.17108,58,92,0
400.17108,400.26483,60,91,0
400.26483,400.35858,58,90,0
400.35858,400.45233,60,89,0
400.45233,400.54608,58,88,0
400.54608,400.63983,60,87,0
400.63983,400.73358,58,86,0
400.73358,400.82733,60,85,0
400.82733,400.92108,58,84,0
400.92108,401.01483,60,82,0
401.01483,401.10858,58,80,0
401.10858,401.20233,60,78,0
401.20233,401.29608,58,76,0
401.29608,401.38983,60,74,0
401.38983,401.48358,58,72,0
401.48358,401.57733,60,70,0
401.57733,401.67108,58,68,0
401.67108,401.76483,60,66,0
401.76483,401.85858,58,64,0
401.85858,401.95233,60,62,0
401.95233,402.04608,58,60,0
402.04608,402.13983,60,60,0
402.13983,402.23358,58,60,0
402.23358,402.32733,60,60,0
402.32733,402.42108,48,92,0
402.42108,402.51483,60,92,0
402.51483,402.60858,48,75,0
402.60858,402.69843,60,75,0
402.70233,402.79608,58,92,0
402.79608,402.88983,60,92,0
402.88983,402.98358,58,92,0
402.98358,403.07733,60,92,0
403.07733,403.17108,58,92,0
403.17108,403.26483,60,91,0
403.26483,403.35858,58,90,0
403.35858,403.45233,60,89,0
403.45233,403.54608,58,88,0
403.54608,403.63983,60,87,0
403.63983,403.73358,58,86,0
403.73358,403.82733,60,85,0
403.82733,403.92108,58,84,0
403.92108,404.01483,60,82,0
404.01483,404.10858,58,80,0
404.10858,404.20233,60,78,0
404.20233,404.29608,58,76,0
404.29608,404.38983,60,74,0
404.38983,404.48358,58,72,0
404.48358,404.57733,60,70,0
404.57733,404.67108,58,68,0
404.67108,404.76483,60,66,0
404.76483,404.85858,58,64,0
404.85858,404.95233,60,62,0
404.95233,405.04608,58,60,0
405.04608,405.13983,60,60,0
405.13983,405.23358,58,60,0
405.23358,405.32733,60,60,0
405.32733,405.42108,48,92,0
405.42108,405.51483,60,92,0
405.51483,405.60858,48,75,0
405.60858,405.69843,60,75,0
405.70233,405.79608,58,60,0
405.79608,405.88983,61,60,0
405.88983,405.98358,58,60,0
405.98358,406.07733,61,60,0
406.07733,406.17108,58,60,0
406.17108,406.26483,61,61,0
406.26483,406.35858,58,62,0
406.35858,406.45233,61,63,0
406.45233,406.54608,58,64,0
406.54608,406.63983,61,65,0
406.63983,406.73358,58,66,0
406.73358,406.82733,61,67,0
406.82733,406.92108,58,68,0
406.92108,407.01483,61,69,0
407.01483,407.10858,58,70,0
407.10858,407.20233,61,71,0
407.20233,407.29608,58,72,0
407.29608,407.38983,61,73,0
407.38983,407.48358,58,74,0
407.48358,407.57733,61,75,0
407.57733,407.67108,58,76,0
407.67108,407.76483,61,78,0
407.76483,407.85858,58,80,0
407.85858,407.95233,61,82,0
407.95233,408.04608,58,84,0
408.04608,408.13983,61,86,0
408.13983,408.23358,58,88,0
408.23358,408.32733,61,90,0
408.32733,408.42108,46,92,0
408.42108,408.51483,58,92,0
408.51483,408.60858,46,92,0
408.60858,408.69843,58,92,0
408.70233,411.60858,34,45,0
408.70233,411.60858,46,45,0
411.70233,415.01483,34,45,0
411.70233,415.01483,46,45,0
415.07733,415.76483,34,45,0
415.07733,415.76483,46,45,0
415.82733,416.51483,34,45,0
415.82733,416.51483,46,45,0
416.57733,417.26483,34,45,0
416.57733,417.26483,46,45,0
417.32733,417.63983,34,45,0
417.32733,417.63983,46,45,0
417.70233,418.01483,34,45,0
417.70233,418.01483,46,45,0
418.07733,419.51483,34,60,0
418.07733,419.51483,46,60,0
419.57733,419.67108,34,75,0
419.57733,419.67108,46,75,0
419.95233,420.04608,34,75,0
419.95233,420.04608,46,75,0
420.32733,420.42108,34,60,0
420.32733,420.42108,46,60,0
420.70233,421.01483,34,45,0
420.70233,421.01483,46,45,0
421.07733,421.76483,34,45,0
421.07733,421.76483,46,45,0
421.82733,422.51483,34,45,0
421.82733,422.51483,46,45,0
422.57733,423.26483,34,45,0
422.57733,423.26483,46,45,0
423.32733,424.01483,34,45,0
423.32733,424.01483,46,45,0
424.07733,425.51483,34,45,0
424.07733,425.51483,46,45,0
425.57733,425.67108,34,75,0
425.57733,425.67108,46,75,0
425.95233,426.04608,34,60,0
425.95233,426.04608,46,60,0
426.32733,426.42108,34,60,0
426.32733,426.42108,46,60,0
426.70233,427.01483,34,92,0
426.70233,427.01483,46,92,0
428.95233,429.70233,43,92,0
428.95233,429.70233,50,92,0
428.95233,429.70233,53,92,0
428.95233,429.70233,55,92,0
429.70233,429.88593,48,60,0
429.70233,429.88593,51,60,0
431.95233,432.70233,48,92,0
431.95233,432.70233,55,92,0
431.95233,432.70233,58,92,0
431.95233,432.70233,60,92,0
432.70233,432.88593,53,92,0
432.70233,432.88593,57,92,0
433.45233,434.20233,58,92,0
433.45233,434.20233,65,92,0
433.45233,434.20233,68,92,0
434.20233,434.38593,63,75,0
434.20233,434.38593,67,75,0
434.57733,434.67346,79,75,0
434.67346,434.76962,81,75,0
434.76962,434.86578,82,75,0
434.86578,434.96194,84,75,0
434.96194,435.15778,86,75,0
435.36194,435.55777,65,75,0
435.36194,435.55777,72,75,0
435.36194,435.55777,75,75,0
437.87958,438.58545,51,84,0
437.87958,438.58545,58,84,0
437.87958,438.58545,61,84,0
438.58545,438.75827,56,60,0
438.58545,438.75827,60,60,0
440.7031,441.32074,49,105,0
440.7031,441.32074,56,105,0
440.7031,441.32074,59,105,0
441.409,442.02664,42,105,0
441.409,442.02664,54,105,0
442.11487,442.7325,46,105,0
442.11487,442.7325,58,105,0
442.82074,442.909,37,75,0
442.82074,442.909,49,75,0
443.1737,443.26193,41,77,0
443.1737,443.26193,53,77,0
443.52664,443.61487,42,79,0
443.52664,443.61487,54,79,0
443.87958,443.9678,44,81,0
443.87958,443.9678,56,81,0
444.2325,444.32074,46,83,0
444.2325,444.32074,58,83,0
444.58545,444.6737,48,85,0
444.58545,444.6737,60,85,0
444.9384,445.02664,49,87,0
444.9384,445.02664,61,87,0
445.29135,445.37958,51,89,0
445.29135,445.37958,63,89,0
445.6443,446.26193,53,92,0
445.6443,446.26193,62,92,0
445.6443,446.26193,65,92,0
446.35016,446.9678,50,92,0
446.35016,446.9678,57,92,0
446.35016,446.9678,62,92,0
447.05603,447.6737,50,92,0
447.05603,447.6737,57,92,0
447.05603,447.6737,62,92,0
447.76193,448.4678,46,92,0
447.76193,448.4678,53,92,0
447.76193,448.4678,56,92,0
447.76193,448.4678,58,92,0
448.4678,448.6406,51,75,0
448.4678,448.6406,55,75,0
448.82074,448.909,67,75,0
448.909,448.99722,69,75,0
448.99722,449.08545,70,75,0
449.08545,449.17,72,75,0
449.1737,449.3465,74,75,0
449.52664,449.58545,65,75,0
449.52664,449.58545,69,75,0
449.52664,449.58545,72,75,0
449.87958,450.49722,50,105,0
449.87958,450.49722,54,105,0
449.87958,450.49722,57,105,0
449.87958,450.49722,62,105,0
450.58545,451.2031,50,105,0
450.58545,451.2031,57,105,0
450.58545,451.2031,62,105,0
451.29135,451.909,50,105,0
451.29135,451.909,57,105,0
451.29135,451.909,60,105,0
451.99722,452.7031,46,105,0
451.99722,452.7031,53,105,0
451.99722,452.7031,56,105,0
451.99722,452.7031,58,105,0
452.7031,452.8759,51,75,0
452.7031,452.8759,55,75,0
453.05603,453.1443,67,75,0
453.1443,453.2325,69,75,0
453.2325,453.32074,70,75,0
453.32074,453.409,72,75,0
453.409,453.5818,74,75,0
453.76193,453.82074,65,75,0
453.76193,453.82074,69,75,0
453.76193,453.82074,72,75,0
454.11487,454.28766,58,75,0
454.11487,454.28766,62,75,0
454.11487,454.28766,65,75,0
454.11487,454.28766,70,75,0
454.4678,454.6406,65,75,0
454.4678,454.6406,69,75,0
454.4678,454.6406,72,75,0
454.82074,454.99353,65,75,0
454.82074,454.99353,70,75,0
454.82074,454.99353,74,75,0
455.17368,455.3465,65,73,0
455.17368,455.3465,69,73,0
455.17368,455.3465,72,73,0
455.52664,455.69943,65,71,0
455.52664,455.69943,70,71,0
455.52664,455.69943,74,71,0
455.87958,456.05237,65,69,0
455.87958,456.05237,69,69,0
455.87958,456.05237,72,69,0
456.2325,456.4053,65,67,0
456.2325,456.4053,70,67,0
456.2325,456.4053,74,67,0
456.58545,456.75824,65,64,0
456.58545,456.75824,72,64,0
456.9384,457.11118,62,60,0
456.9384,457.11118,65,60,0
456.9384,457.11118,70,60,0
457.29132,457.46414,77,60,0
457.29132,457.46414,81,60,0
457.29132,457.46414,84,60,0
457.6443,457.81708,77,60,0
457.6443,457.81708,82,60,0
457.6443,457.81708,86,60,0
457.99722,458.17,77,60,0
457.99722,458.17,81,60,0
457.99722,458.17,84,60,0
458.35016,458.52295,77,60,0
458.35016,458.52295,82,60,0
458.35016,458.52295,86,60,0
458.7031,458.8759,77,60,0
458.7031,458.8759,81,60,0
459.05603,459.22882,77,60,0
459.05603,459.22882,82,60,0
459.05603,459.22882,86,60,0
459.40897,459.5818,77,60,0
459.40897,459.5818,84,60,0
459.76193,459.93472,74,60,0
459.76193,459.93472,82,60,0
460.11487,460.28766,72,60,0
460.11487,460.28766,77,60,0
460.4678,460.6406,70,60,0
460.4678,460.6406,74,60,0
460.82074,460.99353,65,58,0
460.82074,460.99353,72,58,0
461.17368,461.34647,62,56,0
461.17368,461.34647,70,56,0
461.5266,461.69943,60,54,0
461.5266,461.69943,65,54,0
461.87958,462.05237,58,52,0
461.87958,462.05237,62,52,0
462.2325,462.4053,53,49,0
462.2325,462.4053,60,49,0
462.58545,462.75824,50,45,0
462.58545,462.75824,58,45,0
462.9384,463.11118,53,45,0
462.9384,463.11118,60,45,0
463.29132,463.4641,50,45,0
463.29132,463.4641,58,45,0
463.6443,463.81708,53,45,0
463.6443,463.81708,60,45,0
463.99722,464.17,50,45,0
463.99722,464.17,58,45,0
464.35016,464.52295,53,45,0
464.35016,464.52295,60,45,0
464.7031,464.8759,50,45,0
464.7031,464.8759,58,45,0
465.05603,465.22882,53,45,0
465.05603,465.22882,60,45,0
465.40897,465.7031,46,45,0
465.40897,465.7031,50,45,0
465.40897,465.7031,58,45,0
468.29364,468.9113,46,105,0
468.29364,468.9113,58,105,0
468.9995,469.61716,50,105,0
468.9995,469.61716,62,105,0
469.70538,469.79364,38,75,0
469.70538,469.79364,50,75,0
470.05835,470.14658,40,75,0
470.05835,470.14658,52,75,0
470.4113,471.11716,41,105,0
470.4113,471.11716,48,105,0
470.4113,471.11716,51,105,0
470.4113,471.11716,53,105,0
471.11716,471.4113,46,92,0
471.11716,471.4113,50,92,0
471.11716,471.4113,53,92,0
473.94067,474.55832,46,105,0
473.94067,474.55832,58,105,0
474.64658,475.26422,50,105,0
474.64658,475.26422,62,105,0
475.35245,475.44067,50,75,0
475.70538,475.79364,52,75,0
476.05832,476.76422,53,105,0
476.05832,476.76422,60,105,0
476.05832,476.76422,63,105,0
476.76422,477.05832,54,92,0
476.76422,477.05832,58,92,0
476.76422,477.05832,61,92,0
479.5398,480.1231,42,63,0
480.20645,480.7898,42,63,0
480.8731,480.95645,42,45,0
481.20645,481.2898,42,45,0
481.5398,482.1231,42,63,0
482.20645,482.7898,42,63,0
482.8731,482.95645,42,45,0
483.20645,483.2898,42,45,0
483.5398,484.1231,42,63,0
484.20645,484.7898,42,63,0
484.8731,484.95645,42,45,0
485.20645,485.2898,42,45,0
485.5398,486.1231,42,63,0
486.20645,486.7898,42,63,0
486.8731,486.95645,42,45,0
487.20645,487.2898,42,45,0
487.5398,488.1231,42,63,0
488.20645,488.7898,42,77,0
488.8731,488.95645,42,65,0
489.20645,489.28976,42,70,0
489.53976,490.1231,42,105,0
490.20645,490.78976,42,105,0
490.8731,490.95645,42,60,0
491.20645,491.28976,42,53,0
491.53976,492.1231,42,63,0
492.20645,492.78976,42,63,0
492.8731,492.95645,42,45,0
493.20645,493.28976,42,45,0
493.53976,494.1231,42,63,0
494.20645,494.78976,42,63,0
494.8731,494.95645,42,45,0
495.20645,495.28976,42,45,0
495.53976,495.6231,42,60,0
495.8731,495.95645,54,60,0
495.8731,495.95645,58,60,0
496.20645,496.28976,42,60,0
496.53976,496.6231,54,60,0
496.53976,496.6231,58,60,0
496.8731,496.95645,42,60,0
497.20645,497.28976,54,60,0
497.20645,497.28976,58,60,0
497.53976,497.81754,42,60,0
497.8731,498.15088,53,60,0
497.8731,498.15088,56,60,0
498.20645,498.48422,42,60,0
498.53976,498.81754,53,60,0
498.53976,498.81754,56,60,0
498.8731,499.15088,42,60,0
499.20642,499.48422,53,60,0
499.20642,499.48422,56,60,0
499.53976,499.81754,42,60,0
499.8731,500.15088,51,60,0
499.8731,500.15088,54,60,0
500.20642,500.48422,42,60,0
500.53976,500.81754,51,60,0
500.53976,500.81754,54,60,0
500.8731,501.15088,42,60,0
501.20642,501.48422,47,60,0
501.20642,501.48422,51,60,0
501.53976,501.81754,42,60,0
501.8731,502.15088,46,60,0
501.8731,502.15088,49,60,0
502.20642,502.48422,42,60,0
502.53976,502.81754,46,60,0
502.53976,502.81754,49,60,0
502.8731,503.15088,42,60,0
503.20642,503.48422,46,60,0
503.20642,503.48422,49,60,0
503.53976,503.81754,41,60,0
503.8731,504.15088,46,60,0
503.8731,504.15088,50,60,0
504.20642,504.48422,41,60,0
504.53976,504.81754,46,60,0
504.53976,504.81754,50,60,0
504.8731,505.15088,41,60,0
505.20642,505.48422,50,60,0
505.53976,506.1231,41,60,0
506.20642,506.78976,41,60,0
506.8731,507.15088,41,60,0
507.20642,507.4842,41,60,0
507.53976,507.81754,41,60,0
507.8731,508.15088,53,60,0
507.8731,508.15088,58,60,0
507.8731,508.15088,62,60,0
508.20642,508.4842,39,60,0
508.53976,508.81754,53,60,0
508.53976,508.81754,58,60,0
508.53976,508.81754,62,60,0
508.8731,509.15088,41,60,0
509.20642,509.4842,53,60,0
509.20642,509.4842,58,60,0
509.20642,509.4842,62,60,0
509.53976,510.12308,41,60,0
510.20642,510.78976,41,60,0
510.87308,511.15088,41,60,0
511.20642,511.4842,41,60,0
511.53976,511.81754,46,60,0
511.87308,512.4564,53,60,0
511.87308,512.4564,58,60,0
511.87308,512.4564,62,60,0
512.53973,512.8175,53,60,0
512.53973,512.8175,58,60,0
512.53973,512.8175,62,60,0
512.8731,513.1509,53,60,0
512.8731,513.1509,58,60,0
512.8731,513.1509,62,60,0
513.2064,513.4842,53,60,0
513.2064,513.4842,57,60,0
513.2064,513.4842,63,60,0
513.53973,513.8175,46,60,0
513.8731,514.4564,53,60,0
513.8731,514.4564,58,60,0
513.8731,514.4564,62,60,0
514.53973,514.8175,53,60,0
514.53973,514.8175,58,60,0
514.53973,514.8175,62,60,0
514.8731,515.1509,53,60,0
514.8731,515.1509,58,60,0
514.8731,515.1509,62,60,0
515.2064,515.4842,53,60,0
515.2064,515.4842,57,60,0
515.2064,515.4842,60,60,0
515.53973,515.8175,46,60,0
515.8731,516.4564,53,60,0
515.8731,516.4564,58,60,0
515.8731,516.4564,62,60,0
516.53973,516.8175,53,60,0
516.53973,516.8175,58,60,0
516.53973,516.8175,62,60,0
516.8731,517.1509,53,60,0
516.8731,517.1509,58,60,0
516.8731,517.1509,62,60,0
517.2064,517.4842,53,60,0
517.2064,517.4842,57,60,0
517.2064,517.4842,63,60,0
517.53973,517.8175,46,60,0
517.8731,518.4564,53,60,0
517.8731,518.4564,58,60,0
517.8731,518.4564,62,60,0
518.53973,518.8175,53,59,0
518.53973,518.8175,58,59,0
518.53973,518.8175,62,59,0
518.8731,519.1509,53,59,0
518.8731,519.1509,58,59,0
518.8731,519.1509,62,59,0
519.2064,519.4842,53,59,0
519.2064,519.4842,57,59,0
519.2064,519.4842,60,59,0
519.53973,519.8175,46,59,0
519.8731,520.4564,53,59,0
519.8731,520.4564,58,59,0
519.8731,520.4564,62,59,0
520.53973,520.8175,53,58,0
520.53973,520.8175,58,58,0
520.53973,520.8175,62,58,0
520.8731,521.1509,53,58,0
520.8731,521.1509,58,58,0
520.8731,521.1509,62,58,0
521.2064,521.4842,53,58,0
521.2064,521.4842,58,58,0
521.2064,521.4842,62,58,0
521.53973,521.8175,46,58,0
521.8731,522.4564,53,58,0
521.8731,522.4564,57,58,0
521.8731,522.4564,63,58,0
522.53973,522.8175,53,57,0
522.53973,522.8175,57,57,0
522.53973,522.8175,63,57,0
522.8731,523.1509,53,57,0
522.8731,523.1509,58,57,0
522.8731,523.1509,63,57,0
523.2064,523.4842,53,57,0
523.2064,523.4842,60,57,0
523.2064,523.4842,63,57,0
523.53973,523.8175,46,57,0
523.8731,524.4564,53,56,0
523.8731,524.4564,58,56,0
523.8731,524.4564,62,56,0
524.53973,524.8175,53,54,0
524.53973,524.8175,58,54,0
524.53973,524.8175,62,54,0
524.87305,525.1509,53,53,0
524.87305,525.1509,58,53,0
524.87305,525.1509,62,53,0
525.2064,525.4842,53,52,0
525.2064,525.4842,58,52,0
525.2064,525.4842,62,52,0
525.53973,525.8175,46,51,0
525.87305,526.4564,53,50,0
525.87305,526.4564,57,50,0
525.87305,526.4564,63,50,0
526.53973,526.8175,53,48,0
526.53973,526.8175,57,48,0
526.53973,526.8175,63,48,0
526.87305,527.1509,53,47,0
526.87305,527.1509,58,47,0
526.87305,527.1509,63,47,0
527.2064,527.4842,53,46,0
527.2064,527.4842,60,46,0
527.2064,527.4842,63,46,0
527.53973,527.8175,34,45,0
527.53973,527.8175,46,45,0
527.87305,528.4564,53,45,0
527.87305,528.4564,58,45,0
527.87305,528.4564,62,45,0
528.53973,528.8175,53,45,0
528.53973,528.8175,58,45,0
528.53973,528.8175,62,45,0
528.87305,529.1509,53,45,0
528.87305,529.1509,58,45,0
528.87305,529.1509,62,45,0
529.2064,529.4842,53,45,0
529.2064,529.4842,57,45,0
529.2064,529.4842,63,45,0
529.53973,529.8175,46,45,0
529.87305,530.4564,53,45,0
529.87305,530.4564,58,45,0
529.87305,530.4564,62,45,0
530.53973,530.8175,53,45,0
530.53973,530.8175,58,45,0
530.53973,530.8175,62,45,0
530.87305,531.1509,53,45,0
530.87305,531.1509,58,45,0
530.87305,531.1509,62,45,0
531.2064,531.4842,53,45,0
531.2064,531.4842,57,45,0
531.2064,531.4842,63,45,0
531.53973,531.8175,46,45,0
531.87305,532.4564,53,45,0
531.87305,532.4564,58,45,0
531.87305,532.4564,62,45,0
532.53973,532.8175,53,45,0
532.53973,532.8175,58,45,0
532.53973,532.8175,62,45,0
532.87305,533.1508,53,45,0
532.87305,533.1508,58,45,0
532.87305,533.1508,62,45,0
533.2064,533.4842,53,45,0
533.2064,533.4842,57,45,0
533.2064,533.4842,60,45,0
533.53973,533.83386,46,45,0
533.8927,534.52686,53,50,0
533.8927,534.52686,58,50,0
533.8927,534.52686,62,50,0
534.6206,534.9331,53,62,0
534.6206,534.9331,58,62,0
534.6206,534.9331,62,62,0
534.9956,535.329,53,68,0
534.9956,535.329,58,68,0
534.9956,535.329,62,68,0
535.3956,535.72894,53,74,0
535.3956,535.72894,57,74,0
535.3956,535.72894,60,74,0
535.7956,536.3206,46,80,0
535.7956,536.3206,58,80,0
536.3956,536.9206,50,92,0
536.3956,536.9206,62,92,0
536.9956,537.0706,38,92,0
536.9956,537.0706,50,92,0
537.2956,537.3706,40,92,0
537.2956,537.3706,52,92,0
537.59564,538.1206,42,127,0
537.59564,538.1206,54,127,0
538.1956,538.2706,43,92,0
538.1956,538.2706,55,92,0
538.4956,538.5706,45,92,0
538.4956,538.5706,57,92,0
538.7956,539.3206,47,92,0
538.7956,539.3206,59,92,0
539.3956,539.47064,48,75,0
539.3956,539.47064,60,75,0
539.6956,539.7706,50,75,0
539.9956,540.0706,51,75,0
540.2956,540.3706,40,77,0
540.2956,540.3706,52,77,0
540.59564,540.6706,41,80,0
540.59564,540.6706,53,80,0
540.8956,540.97064,43,83,0
540.8956,540.97064,55,83,0
541.1956,541.2706,44,86,0
541.1956,541.2706,56,86,0
541.4956,541.5706,45,89,0
541.4956,541.5706,57,89,0
541.7956,542.9206,46,92,0
541.7956,542.9206,53,92,0
541.7956,542.9206,56,92,0
541.7956,542.9206,58,92,0
542.9956,543.1425,51,92,0
542.9956,543.1425,55,92,0
542.9956,543.1425,58,92,0
543.2956,543.3706,79,92,0
543.3706,543.4456,81,92,0
543.4456,543.5206,82,92,0
543.5206,543.59564,84,92,0
543.59564,543.7425,86,92,0
543.8956,544.0425,77,92,0
543.8956,544.0425,81,92,0
543.8956,544.0425,84,92,0
544.1956,544.34247,74,92,0
544.1956,544.34247,77,92,0
544.1956,544.34247,82,92,0
544.4956,544.6425,77,92,0
544.4956,544.6425,81,92,0
544.4956,544.6425,84,92,0
544.7956,544.9425,77,92,0
544.7956,544.9425,82,92,0
544.7956,544.9425,86,92,0
545.09564,545.2425,77,92,0
545.09564,545.2425,81,92,0
545.09564,545.2425,84,92,0
545.3956,545.5425,77,92,0
545.3956,545.5425,82,92,0
545.3956,545.5425,86,92,0
545.6956,545.84247,77,86,0
545.6956,545.84247,81,86,0
545.6956,545.84247,84,86,0
545.9956,546.1425,77,80,0
545.9956,546.1425,82,80,0
545.9956,546.1425,86,80,0
546.2956,546.4425,77,74,0
546.2956,546.4425,81,74,0
546.2956,546.4425,84,74,0
546.59564,546.7425,74,68,0
546.59564,546.7425,77,68,0
546.59564,546.7425,82,68,0
546.8956,547.0425,65,60,0
546.8956,547.0425,69,60,0
546.8956,547.0425,72,60,0
547.1956,547.34247,65,60,0
547.1956,547.34247,70,60,0
547.1956,547.34247,74,60,0
547.4956,547.6425,65,60,0
547.4956,547.6425,69,60,0
547.4956,547.6425,72,60,0
547.7956,547.9425,65,60,0
547.7956,547.9425,70,60,0
547.7956,547.9425,74,60,0
548.09564,548.2425,65,60,0
548.09564,548.2425,69,60,0
548.09564,548.2425,72,60,0
548.3956,548.5425,65,60,0
548.3956,548.5425,70,60,0
548.3956,548.5425,74,60,0
548.6956,548.84247,65,60,0
548.6956,548.84247,72,60,0
548.9956,549.1425,62,60,0
548.9956,549.1425,70,60,0
549.2956,549.4425,65,60,0
549.2956,549.4425,72,60,0
549.59564,549.7396,70,60,0
549.59564,549.7396,74,60,0
549.8897,550.03375,65,60,0
549.8897,550.03375,72,60,0
550.18384,550.3278,62,60,0
550.18384,550.3278,70,60,0
550.47797,550.62195,60,60,0
550.47797,550.62195,65,60,0
550.7721,550.9147,58,60,0
550.7721,550.9147,62,60,0
551.06335,551.20593,53,60,0
551.06335,551.20593,60,60,0
551.3546,551.4972,50,60,0
551.3546,551.4972,58,60,0
551.6459,551.78845,53,64,0
551.6459,551.78845,60,64,0
551.93713,552.07837,58,68,0
551.93713,552.07837,62,68,0
552.2256,552.3668,60,72,0
552.2256,552.3668,65,72,0
552.51404,552.6553,62,76,0
552.51404,552.6553,70,76,0
552.8025,552.9437,65,80,0
552.8025,552.9437,72,80,0
553.091,553.23083,70,84,0
553.091,553.23083,74,84,0
553.3767,553.5166,72,88,0
553.3767,553.5166,77,88,0
553.6624,553.8023,74,92,0
553.6624,553.8023,82,92,0
553.9481,554.088,77,92,0
553.9481,554.088,84,92,0
554.2338,554.3724,74,92,0
554.2338,554.3724,82,92,0
554.51685,554.6554,77,87,0
554.51685,554.6554,84,87,0
554.79987,554.9384,74,81,0
554.79987,554.9384,82,81,0
555.0829,555.22144,77,75,0
555.0829,555.22144,84,75,0
555.3659,555.5032,74,69,0
555.3659,555.5032,82,69,0
555.6463,555.78357,77,63,0
555.6463,555.78357,84,63,0
555.92664,556.0639,74,57,0
555.92664,556.0639,82,57,0
556.20703,556.3443,53,51,0
556.20703,556.3443,60,51,0
556.4874,556.6234,50,45,0
556.4874,556.6234,58,45,0
556.7652,556.9012,53,45,0
556.7652,556.9012,60,45,0
557.04297,557.17896,50,45,0
557.04297,557.17896,58,45,0
557.32074,557.4567,53,45,0
557.32074,557.4567,60,45,0
557.5985,557.7333,50,30,0
557.5985,557.7333,58,30,0
557.8737,558.0085,53,30,0
557.8737,558.0085,60,30,0
558.149,558.3783,46,30,0
558.149,558.3783,50,30,0
558.149,558.3783,58,30,0
559.49945,559.83276,41,92,0
559.49945,559.83276,45,92,0
559.49945,559.83276,48,92,0
559.49945,559.83276,53,92,0
561.2225,561.6071,34,92,0
561.2225,561.6071,38,92,0
561.2225,561.6071,41,92,0
561.2225,561.6071,46,92,0
562.8379,563.06384,46,10,0
