start_time,end_time,note_value,velocity,instrument_program_number
4.904347,5.37989,71,45,40
5.393477,5.5429335,71,45,40
5.5565205,7.29565,71,45,40
8.817388,9.292932,71,45,40
9.306519,9.360866,71,45,40
9.38804,9.469562,71,45,40
9.469562,10.121735,76,45,40
10.121735,10.760322,71,45,40
12.730429,13.205972,71,45,40
13.219559,13.369016,71,45,40
13.382603,15.121732,71,45,40
16.64347,17.119013,71,45,40
17.1326,17.282057,71,45,40
17.295643,17.947817,73,45,40
17.947817,18.586403,71,45,40
20.55651,21.032055,73,45,40
21.04564,21.195097,73,45,40
21.208685,22.947813,73,45,40
24.469551,24.945095,73,45,40
24.958683,25.026617,73,45,40
25.040203,25.121725,73,45,40
25.121725,25.7739,78,45,40
25.7739,26.412485,73,45,40
28.382593,28.858137,73,45,40
28.871723,29.02118,73,45,40
29.034767,30.773895,73,45,40
32.295635,32.771175,73,45,40
32.784763,32.8527,73,45,40
32.866287,32.947807,73,45,40
32.947807,33.59998,85,45,40
33.59998,34.238567,73,45,40
36.208675,36.68422,78,45,40
36.697803,36.847263,78,46,40
36.860847,38.59998,78,46,40
40.121716,40.59726,78,55,40
40.610847,40.67878,78,56,40
40.692368,40.773888,78,56,40
40.773888,41.426064,82,56,40
41.426064,42.064648,78,58,40
44.034756,44.5103,78,66,40
44.523888,44.673344,78,67,40
44.68693,46.42606,78,67,40
47.9478,48.42334,78,77,40
48.436928,48.504864,78,78,40
48.51845,48.59997,78,78,40
48.59997,49.252144,85,78,40
49.252144,49.89073,78,80,40
51.86084,52.336384,78,92,40
52.349968,52.499424,78,92,40
52.513012,54.25214,78,92,40
55.77388,56.249424,78,78,40
56.263012,56.412468,78,76,40
56.426052,57.078228,78,76,40
57.078228,57.7304,87,73,40
57.7304,58.368988,85,70,40
59.68692,60.162464,85,60,40
60.176052,60.32551,85,60,40
60.339096,62.078224,85,60,40
63.59996,64.07551,85,60,40
64.08909,64.197784,85,58,40
64.25214,66.86083,85,58,40
66.86083,67.49941,82,45,40
67.513,67.98855,78,45,40
68.00214,68.15159,78,45,40
68.16518,69.904305,78,45,40
71.42604,71.90159,78,45,40
71.91518,71.98311,78,45,40
71.9967,72.07822,78,45,40
72.07822,72.73039,82,45,40
72.73039,73.36898,78,45,40
75.33909,75.81463,78,45,40
75.82822,75.97767,78,47,40
75.99126,77.730385,78,48,40
79.25213,79.72767,78,68,40
79.74126,79.80919,78,71,40
79.82278,79.9043,78,71,40
79.9043,80.55647,90,71,40
80.55647,81.19506,78,75,40
83.16517,83.64071,78,92,40
83.6543,83.80376,78,92,40
83.81734,85.55647,78,92,40
87.07821,87.55375,78,75,40
87.56734,87.67603,78,75,40
87.730385,88.38255,78,75,40
88.38255,89.03473,90,75,40
89.03473,89.67332,88,75,40
90.99125,91.46679,88,60,40
91.48038,91.62984,88,60,40
91.643425,93.38255,88,60,40
94.90429,95.37983,88,60,40
95.39342,95.50211,88,58,40
95.556465,98.16516,88,58,40
98.16516,98.80374,85,45,40
98.81733,99.29288,81,45,40
99.30646,99.45592,81,45,40
99.469505,101.20863,81,45,40
102.73037,103.20592,81,60,40
103.219505,103.36896,81,60,40
103.382545,104.03472,81,75,40
104.03472,104.68689,85,75,40
104.68689,105.32548,83,75,40
106.64341,107.11896,83,60,40
107.132545,107.282,83,60,40
107.295586,109.03471,83,60,40
110.615746,111.1129,83,60,40
111.127106,111.240746,83,59,40
111.29756,113.10442,83,59,40
113.12087,113.25245,81,53,40
113.25245,113.384026,80,53,40
113.384026,113.49916,78,53,40
113.5156,114.15419,76,53,40
150.03732,150.51286,71,51,40
150.52646,150.6759,71,52,40
150.6895,152.42862,83,52,40
157.8634,158.33894,71,65,40
158.35254,158.50198,71,66,40
158.51558,159.16776,83,66,40
159.16776,159.81993,84,67,40
159.81993,160.45851,83,68,40
165.68948,166.16502,76,80,40
166.17862,166.32808,76,81,40
166.34166,168.0808,88,81,40
173.51556,173.9911,76,92,40
174.0047,174.15416,76,90,40
174.16774,174.81992,76,90,40
174.81992,175.47209,85,87,40
175.47209,176.11067,83,84,40
177.4286,177.90414,71,75,40
177.91774,178.0672,71,75,40
178.08078,179.81992,71,75,40
181.34164,181.8172,73,75,40
181.83078,181.98024,73,75,40
181.99382,182.646,75,75,40
182.646,183.29817,76,65,40
183.29817,183.93675,78,55,40
183.95035,185.0373,76,45,40
186.55904,187.21121,80,45,40
187.21121,187.86339,78,45,40
187.86339,188.50197,76,45,40
191.12425,191.77643,76,45,40
191.77643,192.4286,78,63,40
192.4286,193.06718,76,50,40
195.0373,195.68947,84,70,40
195.68947,196.32805,83,75,40
196.34164,196.57262,81,75,40
196.66772,196.89871,80,72,40
196.99382,197.2248,78,69,40
197.3199,197.55087,76,66,40
197.64598,197.87697,75,63,40
197.97208,198.20305,73,60,40
198.29816,198.52914,71,57,40
198.62425,198.85522,69,54,40
198.95033,199.1813,68,51,40
199.27643,199.4938,66,48,40
199.60251,200.25468,67,45,40
200.25468,200.89326,68,45,40
202.86337,203.51555,68,45,40
203.51555,204.16772,66,63,40
204.16772,204.8063,64,45,40
206.77641,207.42859,64,45,40
207.42859,208.08076,66,63,40
208.08076,208.71935,64,45,40
210.68945,211.66772,72,63,40
211.66772,211.98022,71,45,40
211.9938,212.2112,69,45,40
212.31989,212.53728,68,45,40
212.64598,212.86337,66,45,40
212.97206,213.18945,64,45,40
213.29816,213.95032,59,45,40
213.95032,214.6025,61,45,40
214.6025,215.24109,63,45,40
215.25467,216.34163,64,45,40
220.9612,221.06989,64,45,40
221.12424,221.45032,65,45,40
221.45032,221.53185,64,52,40
221.53185,221.61336,65,54,40
221.61336,221.69489,64,56,40
221.69489,221.77641,65,58,40
221.77641,221.85454,64,60,40
221.85454,221.93266,65,62,40
221.93266,222.01079,64,64,40
222.01079,222.08891,65,66,40
222.08891,222.16704,64,68,40
222.16704,222.24516,65,70,40
222.24516,222.32329,64,72,40
222.32329,222.40141,65,74,40
222.40141,222.47954,64,76,40
222.47954,222.55766,65,78,40
222.55766,222.63579,64,80,40
222.63579,222.71391,65,82,40
222.71391,222.87016,62,84,40
222.87016,223.01338,64,88,40
223.02641,224.02641,65,92,40
229.9264,230.21391,72,75,40
230.22641,233.66391,80,105,40
233.6764,233.77641,79,75,40
233.8264,234.4264,79,75,40
234.4264,236.5139,77,75,40
236.52641,236.72641,79,75,40
236.8264,237.02641,80,75,40
237.1264,237.3264,82,75,40
237.4264,240.8639,84,105,40
240.8764,240.97641,82,73,40
241.02641,241.6264,82,73,40
241.6264,243.71391,81,73,40
243.72641,243.9264,81,71,40
244.02641,244.22641,82,71,40
244.3264,244.52641,84,71,40
244.6264,245.22641,82,71,40
245.22641,246.2639,85,99,40
246.27641,246.3764,77,70,40
246.4264,247.02641,78,70,40
247.02641,248.0639,82,69,40
248.0764,248.1764,77,68,40
248.22641,248.8264,76,68,40
248.8264,250.6139,84,93,40
250.6264,250.9264,82,64,40
250.9264,251.0639,80,63,40
251.22641,251.52641,79,63,40
251.52641,251.66391,77,62,40
251.8264,252.41391,77,60,40
252.4264,253.46391,80,84,40
253.47641,253.5764,72,60,40
253.6264,254.22641,73,60,40
254.22641,255.2639,77,60,40
255.27641,255.3764,72,60,40
255.4264,256.0264,71,60,40
256.0264,257.8139,79,86,40
257.82642,258.1264,77,69,40
258.1264,258.26392,75,70,40
258.4264,258.7264,74,70,40
258.7264,258.8639,72,71,40
259.0264,259.6264,74,71,40
259.6264,261.4139,79,103,40
261.4264,261.7264,77,83,40
261.7264,261.8639,75,84,40
262.0264,262.32642,74,84,40
262.32642,262.4639,72,86,40
262.6264,263.2139,84,88,40
263.2264,265.01392,85,92,40
265.0264,265.32642,84,75,40
265.32642,265.4639,82,75,40
265.6264,265.9264,80,60,40
265.9264,266.0639,79,60,40
266.2264,269.5264,80,45,40
269.82642,269.9264,81,45,40
269.9264,270.0264,82,45,40
270.0264,270.1264,81,45,40
270.1264,270.2264,82,45,40
270.2264,270.32642,81,45,40
270.32642,270.4264,82,45,40
270.4264,270.5264,81,45,40
270.5264,270.6264,82,46,40
270.6264,270.7264,81,46,40
270.7264,270.82642,82,47,40
270.82642,270.9264,81,48,40
270.9264,271.0264,82,49,40
271.0264,271.1264,81,50,40
271.1264,271.2264,82,51,40
271.2264,271.32642,81,52,40
271.32642,271.4264,82,53,40
271.4264,271.5264,81,54,40
271.5264,271.6264,82,55,40
271.6264,271.7264,81,56,40
271.7264,271.82642,82,57,40
271.82642,271.9264,81,58,40
271.9264,272.0264,82,59,40
272.0264,272.1264,81,60,40
272.1264,272.2264,82,61,40
272.2264,272.32642,81,62,40
272.32642,272.4264,82,63,40
272.4264,272.5264,81,64,40
272.5264,272.6264,82,65,40
272.6264,272.7264,81,66,40
272.7264,272.82642,82,67,40
272.82642,272.9264,81,68,40
272.9264,273.0264,82,69,40
273.0264,273.1264,81,70,40
273.1264,273.2264,82,71,40
273.2264,273.32642,79,72,40
273.32642,273.4139,81,73,40
273.4264,275.82642,82,75,40
275.82642,276.82642,82,60,40
277.0264,277.1264,83,60,40
277.1264,277.2264,84,60,40
277.2264,277.32642,83,60,40
277.32642,277.4264,84,60,40
277.4264,277.5264,83,60,40
277.5264,277.6264,84,61,40
277.6264,277.7264,83,61,40
277.7264,277.82642,84,62,40
277.82642,277.9264,83,63,40
277.9264,278.0264,84,64,40
278.0264,278.1264,83,65,40
278.1264,278.2264,84,66,40
278.2264,278.32642,83,67,40
278.32642,278.4264,84,68,40
278.4264,278.5264,83,69,40
278.5264,278.6264,84,70,40
278.6264,278.7264,83,71,40
278.7264,278.82642,84,72,40
278.82642,278.9264,83,73,40
278.9264,279.0264,84,74,40
279.0264,279.1264,83,75,40
279.1264,279.2264,84,76,40
279.2264,279.32642,83,77,40
279.32642,279.4264,84,78,40
279.4264,279.5264,83,79,40
279.5264,279.6264,84,80,40
279.6264,279.7264,83,81,40
279.7264,279.82642,84,82,40
279.82642,279.9264,83,83,40
279.9264,280.0264,84,84,40
280.0264,280.1264,83,85,40
280.1264,280.2264,84,86,40
280.2264,280.32642,83,87,40
280.32642,280.4264,84,88,40
280.4264,280.5264,81,89,40
280.5264,280.6139,83,90,40
280.6264,283.0264,84,92,40
283.0264,284.0264,84,60,40
284.2264,284.32642,86,60,40
284.32642,284.4264,87,60,40
284.4264,284.5264,86,60,40
284.5264,284.6264,87,60,40
284.6264,284.7264,86,60,40
284.7264,284.82642,87,61,40
284.82642,284.9264,86,61,40
284.9264,285.0264,87,62,40
285.0264,285.1264,86,63,40
285.1264,285.2264,87,64,40
285.2264,285.32642,86,65,40
285.32642,285.4264,87,66,40
285.4264,285.5264,86,67,40
285.5264,285.6264,87,68,40
285.6264,285.7264,86,69,40
285.7264,285.82642,87,70,40
285.82642,285.9264,86,71,40
285.9264,286.0264,87,72,40
286.0264,286.1264,86,73,40
286.1264,286.2264,87,74,40
286.2264,286.32642,86,75,40
286.32642,286.4264,87,76,40
286.4264,286.5264,86,77,40
286.5264,286.6264,87,78,40
286.6264,286.7264,86,79,40
286.7264,286.82642,87,80,40
286.82642,286.9264,86,81,40
286.9264,287.0264,87,82,40
287.0264,287.1264,86,83,40
287.1264,287.2264,87,84,40
287.2264,287.32642,86,85,40
287.32642,287.4264,87,86,40
287.4264,287.5264,86,87,40
287.5264,287.6264,87,88,40
287.6264,287.7264,84,89,40
287.7264,287.8139,86,90,40
287.82642,290.2264,87,92,40
290.2264,290.82642,86,92,40
290.82642,291.4264,84,88,40
291.4264,292.0264,83,84,40
292.0264,292.6264,84,80,40
292.6264,293.2264,83,76,40
293.2264,293.82642,84,72,40
293.82642,294.4264,85,95,40
294.4264,295.01392,84,64,40
295.0264,296.82642,79,60,40
296.82642,297.4139,80,45,40
302.2264,304.32642,80,84,40
304.6264,305.2264,79,60,40
305.2264,305.82642,77,57,40
305.82642,306.4264,75,54,40
306.4264,307.0264,73,51,40
307.0264,307.6264,72,48,40
307.6264,308.2264,73,45,40
308.2264,308.82642,77,45,40
308.82642,309.4139,73,45,40
309.4264,312.7264,72,45,40
312.7264,313.01392,75,45,40
313.0264,315.4264,75,45,40
315.4264,316.0264,74,71,40
316.0264,316.6139,80,78,40
316.6264,317.2264,79,85,40
317.2264,319.0264,87,92,40
319.0264,319.6264,86,92,40
319.6264,320.2139,84,92,40
320.2264,320.82642,83,92,40
320.82642,321.4264,84,85,40
321.4264,322.0264,83,77,40
322.0264,322.6264,84,69,40
322.6264,323.2264,85,61,40
323.2264,323.8139,84,53,40
323.82642,325.32642,79,45,40
325.32642,325.6264,82,45,40
325.6264,326.2139,80,45,40
331.0264,333.1264,80,105,40
333.4264,334.0264,79,75,40
334.0264,334.6264,77,72,40
334.6264,335.2264,75,69,40
335.2264,335.82642,73,65,40
335.82642,336.4264,72,61,40
336.4264,337.0264,73,57,40
337.0264,337.6264,77,53,40
337.6264,338.2139,73,49,40
338.2264,341.5264,72,45,40
341.5264,341.8139,75,45,40
341.82642,344.2264,75,45,40
344.2264,344.82642,74,45,40
344.82642,345.4139,79,45,40
345.4264,346.4264,81,63,40
346.6264,347.8139,81,72,40
347.82642,348.82642,81,84,40
349.0264,350.0264,81,95,40
350.2264,351.4139,81,106,40
351.4264,351.6264,81,84,40
352.0264,352.2264,81,88,40
352.6264,356.2264,84,92,40
356.2264,359.82642,83,75,40
359.82642,362.2264,82,60,40
362.2264,362.82642,84,60,40
362.82642,363.4264,79,59,40
363.4264,364.0264,82,57,40
364.0264,364.6264,80,55,40
364.6264,365.2264,79,53,40
365.2264,365.82642,77,51,40
365.82642,366.4264,80,49,40
366.4264,367.01392,73,47,40
367.0264,370.32642,72,45,40
370.32642,370.6139,75,45,40
370.6264,373.0264,75,45,40
373.0264,373.6264,74,45,40
373.6264,374.2139,79,45,40
374.2264,375.2264,81,63,40
375.4264,376.6139,81,72,40
376.6264,377.6264,81,84,40
377.82642,378.82642,81,95,40
379.0264,380.2139,81,106,40
380.2264,380.4264,81,84,40
380.82642,381.0264,81,88,40
381.4264,383.82642,84,92,40
383.82642,385.0264,84,75,40
385.0264,385.6139,83,60,40
385.6264,386.6264,83,60,40
386.82642,387.82642,83,72,40
388.0264,388.6139,83,85,40
388.6264,392.2264,86,92,40
392.2264,395.5264,85,75,40
395.82642,399.4264,84,60,40
399.4264,403.0264,83,60,40
403.0264,405.1264,82,60,40
405.4264,406.0264,84,60,40
406.0264,406.6264,79,60,40
406.6264,407.2264,82,60,40
407.2264,407.82642,80,60,40
407.82642,408.4264,79,60,40
408.4264,409.0264,77,60,40
409.0264,409.6264,80,60,40
409.6264,410.2139,73,60,40
410.2264,413.2139,72,45,40
413.2264,414.4264,63,45,40
414.4264,415.0264,65,49,40
415.0264,415.6264,67,51,40
415.6264,416.2264,65,53,40
416.2264,416.82642,68,55,40
416.82642,417.4139,61,57,40
417.4264,420.4139,60,60,40
420.4264,421.6264,63,60,40
421.6264,422.2264,65,60,40
422.2264,422.82642,67,60,40
422.82642,423.4264,65,60,40
423.4264,424.0264,68,60,40
424.0264,424.6139,61,60,40
424.6264,427.6264,60,60,40
427.6264,428.2139,63,54,40
428.2264,431.2264,63,53,40
431.2264,431.8139,62,47,40
431.82642,432.82642,62,45,40
435.2764,435.4139,62,45,40
435.4264,436.4264,62,45,40
438.8764,439.01392,62,60,40
439.0264,439.6264,62,60,40
439.6264,440.2139,61,60,40
442.4764,442.6264,73,60,40
442.6264,443.2264,74,60,40
443.2264,443.8139,73,60,40
446.2264,447.2264,60,45,40
449.6764,449.8139,60,45,40
449.82642,450.82642,60,45,40
453.2764,453.4139,60,45,40
453.4264,454.0514,60,45,40
454.0514,454.6634,59,45,40
457.09488,457.25793,71,45,40
457.25793,457.93976,72,45,40
457.93976,458.60736,71,45,40
460.73196,461.44623,60,45,40
461.44623,462.12805,63,63,40
462.12805,462.79565,61,45,40
465.53714,469.82285,61,45,40
469.82285,480.14667,59,45,40
481.34232,481.5597,80,45,40
481.6684,481.88577,78,45,40
481.99448,482.21188,76,45,40
482.32056,482.53796,75,45,40
482.64667,482.86404,73,45,40
482.97275,483.29883,71,45,40
483.29883,483.61133,68,45,40
483.951,484.1684,71,45,40
484.2771,484.60318,71,45,40
484.60318,484.91568,73,45,40
484.92926,485.25534,71,45,40
485.25534,485.56784,68,45,40
485.90753,486.22003,71,45,40
486.5597,486.8722,76,45,40
486.88577,487.21185,75,45,40
487.21185,487.52435,83,45,40
489.1684,489.38577,85,45,40
489.49448,489.71185,83,45,40
489.82056,490.03796,81,45,40
490.14664,490.36404,80,45,40
490.47275,490.69012,78,45,40
490.79883,491.1249,76,45,40
491.1249,491.4374,75,45,40
491.77707,491.99448,75,45,40
492.10318,492.42926,75,45,40
492.42926,492.74176,78,45,40
492.75534,493.08142,78,45,40
493.08142,493.39392,75,45,40
493.7336,494.0461,83,45,40
494.38577,494.69827,85,45,40
494.71185,495.03796,86,45,40
495.03796,495.35046,85,45,40
496.99448,497.21185,81,45,40
497.32056,497.53796,80,45,40
497.64664,497.86404,78,45,40
497.97272,498.19012,76,45,40
498.29883,498.5162,74,45,40
498.6249,498.951,74,45,40
498.951,499.2635,73,45,40
499.27707,499.60318,73,45,40
499.60318,499.91565,72,45,40
499.92926,500.25534,72,45,40
500.25534,500.56784,73,45,40
500.58142,500.9075,73,45,40
500.9075,501.22,69,45,40
501.5597,501.8722,73,45,40
502.21185,502.52435,78,45,40
502.53793,502.86404,80,45,40
502.86404,503.17654,85,45,40
504.82056,505.03793,83,45,40
505.14664,505.36404,85,45,40
505.47272,505.69012,83,45,40
505.79883,506.0162,81,45,40
506.1249,506.3423,80,45,40
506.451,506.77707,78,45,40
506.77707,507.08957,77,45,40
507.42926,507.64664,77,45,40
507.75534,508.08142,77,45,40
508.08142,508.39392,80,45,40
508.4075,508.73358,78,45,40
508.73358,509.04608,77,45,40
509.38577,509.69827,80,45,40
510.03793,510.35043,85,45,40
510.364,510.69012,85,45,40
510.69012,511.00262,82,45,40
512.6466,512.864,73,45,40
512.9727,513.1901,75,45,40
513.2988,513.5162,77,45,40
513.6249,513.8423,78,46,40
513.951,514.1684,80,47,40
514.27704,514.60315,82,48,40
514.60315,514.91565,78,49,40
515.2553,515.4727,78,51,40
515.5814,515.90753,78,52,40
515.90753,516.22003,82,53,40
516.2336,516.5597,82,54,40
516.5597,516.8722,78,55,40
517.21185,517.52435,82,57,40
517.864,518.1765,83,59,40
518.1901,518.5162,85,60,40
518.5162,518.8287,82,60,40
520.4727,520.7852,85,60,40
521.1249,521.4374,89,62,40
521.77704,522.08954,90,66,40
522.10315,522.42926,85,68,40
522.42926,522.74176,82,70,40
524.38574,524.69824,82,82,40
525.0379,525.3504,85,86,40
525.6901,526.0026,90,90,40
526.0162,526.3423,90,92,40
526.3423,526.6548,87,92,40
528.2988,528.5162,78,75,40
528.6249,528.8423,83,75,40
528.951,529.16833,85,75,40
529.27704,529.49445,87,75,40
529.60315,529.82056,88,75,40
529.92926,530.2553,90,75,40
530.2553,530.5678,87,75,40
531.2336,531.5597,78,75,40
531.5597,531.8722,75,74,40
531.88574,532.21185,78,72,40
532.21185,532.52435,75,70,40
532.5379,532.864,83,68,40
532.864,533.1765,77,66,40
533.1901,533.5162,78,64,40
533.67926,533.7879,87,61,40
533.8423,534.16833,85,60,40
534.16833,534.48083,80,60,40
534.82056,535.0379,73,60,40
535.1466,535.4727,73,60,40
535.4727,535.7852,68,60,40
535.79877,536.1249,73,60,40
536.1249,536.4374,74,60,40
536.451,536.77704,74,60,40
536.77704,537.08954,73,60,40
537.10315,537.4292,73,60,40
537.4292,537.7417,68,60,40
537.7553,538.0814,75,60,40
538.0814,538.3939,80,60,40
539.71185,540.0379,73,60,40
540.0379,540.3504,80,58,40
540.364,540.6901,73,56,40
540.6901,541.0026,82,54,40
541.0162,541.1792,83,51,40
541.1792,541.3423,85,50,40
541.3423,541.5053,87,49,40
541.5053,541.6548,85,47,40
541.66833,541.99445,85,45,40
541.99445,542.30695,82,45,40
543.951,544.16833,73,45,40
544.27704,544.49445,75,45,40
544.60315,544.82056,77,45,40
544.9292,545.1466,78,45,40
545.2553,545.4727,80,45,40
545.5814,545.9075,82,45,40
545.9075,546.22,78,45,40
546.55963,546.77704,78,45,40
546.88574,547.21185,78,45,40
547.21185,547.52435,82,45,40
547.5379,547.864,82,45,40
547.864,548.1765,78,45,40
548.5162,548.8287,82,45,40
549.16833,549.48083,83,45,40
549.49445,549.8205,85,45,40
549.8205,550.133,82,46,40
551.77704,552.08954,85,58,40
552.4292,552.7417,89,62,40
553.0814,553.3939,90,66,40
553.4075,553.7336,85,68,40
553.7336,554.0461,82,70,40
555.69006,556.00256,82,82,40
556.3423,556.6548,85,86,40
556.99445,557.30695,90,90,40
557.3205,557.6466,90,92,40
557.6466,557.9591,86,92,40
559.60315,559.8205,78,92,40
559.9292,560.1466,83,89,40
560.2553,560.4727,85,86,40
560.58136,560.79877,86,83,40
560.9075,561.1249,88,79,40
561.2336,561.55963,90,75,40
561.55963,561.87213,86,75,40
562.5379,562.864,78,75,40
562.864,563.1765,74,74,40
563.19006,563.5162,78,72,40
563.5162,563.8287,74,70,40
563.8422,564.16833,86,68,40
564.16833,564.48083,80,66,40
564.49445,564.8205,81,64,40
564.9836,565.0922,90,61,40
565.1466,565.4727,88,60,40
565.4727,565.7852,83,60,40
566.1249,566.3422,76,60,40
566.4509,566.77704,76,60,40
566.77704,567.08954,71,60,40
567.10315,567.4292,76,60,40
567.4292,567.7417,77,60,40
567.7553,568.08136,77,60,40
568.08136,568.39386,76,60,40
568.4075,568.7336,76,60,40
568.7336,569.0461,71,60,40
569.05963,569.38574,78,60,40
569.38574,569.69824,83,60,40
571.0162,571.3422,76,60,40
571.3422,571.6547,83,58,40
571.66833,571.99445,76,56,40
571.99445,572.30695,85,54,40
572.3205,572.4836,86,51,40
572.4836,572.6466,88,50,40
572.6466,572.80963,90,49,40
572.80963,572.9591,88,47,40
572.97266,573.29877,88,45,40
573.29877,573.61127,85,45,40
575.2553,575.47266,76,45,40
575.58136,575.79877,81,48,40
575.9075,576.1249,83,51,40
576.2335,576.4509,85,54,40
576.55963,576.77704,86,57,40
576.88574,577.2118,88,60,40
577.2118,577.5243,85,60,40
578.19006,578.5162,76,60,40
578.5162,578.8287,73,63,40
578.8422,579.16833,76,67,40
579.16833,579.48083,73,71,40
579.49445,579.8205,85,75,40
579.8205,580.133,75,75,40
580.1466,580.47266,76,75,40
580.63574,580.74445,85,75,40
580.79877,581.1249,83,60,40
581.1249,581.4374,78,60,40
581.77704,581.99445,71,60,40
582.1031,582.4292,71,60,40
582.4292,582.7417,66,60,40
582.7553,583.08136,71,60,40
583.08136,583.39386,72,60,40
583.4075,583.7335,72,60,40
583.7335,584.046,71,60,40
584.05963,584.38574,71,60,40
584.38574,584.69824,66,60,40
584.7118,585.05273,73,60,40
585.05273,585.3794,78,60,40
586.75726,587.09814,71,60,40
587.09814,587.42487,78,58,40
587.4391,587.7962,71,56,40
587.7962,588.1385,80,54,40
588.1534,588.3409,81,51,40
588.3409,588.5284,83,50,40
588.5284,588.7159,85,49,40
588.7159,588.88776,83,47,40
588.9034,589.54193,80,45,40
590.2077,590.6832,71,45,40
590.69684,590.8463,71,45,40
590.85986,591.94684,71,63,40
594.1207,594.5963,71,45,40
594.60986,594.6778,71,45,40
594.6914,594.77295,71,45,40
594.77295,595.4251,76,45,40
595.4251,596.06366,71,45,40
598.0338,598.50934,78,45,40
598.52295,598.67236,78,45,40
598.686,599.77295,78,63,40
601.94684,602.42236,78,45,40
602.436,602.5039,78,45,40
602.51746,602.599,78,45,40
602.599,603.25116,83,45,40
603.25116,603.8898,78,45,40
605.85986,606.3354,81,45,40
606.349,606.4985,81,45,40
606.512,607.599,81,63,40
609.7729,610.2485,81,45,40
610.262,610.32996,81,45,40
610.34357,610.4251,81,45,40
610.4251,611.0773,86,45,40
611.0773,611.7158,81,45,40
613.686,614.1615,81,45,40
614.1751,614.3245,81,45,40
614.33813,615.4251,81,63,40
617.599,618.0745,81,45,40
618.08813,618.15607,81,45,40
618.1697,618.25116,81,45,40
618.25116,618.9033,86,45,40
618.9033,619.54193,81,45,40
621.512,621.9876,71,47,40
622.00116,622.15063,71,47,40
622.1642,623.25116,74,47,40
625.4251,625.90063,71,52,40
625.9142,626.06366,71,53,40
626.0773,627.1642,74,53,40
629.33813,629.81366,71,58,40
629.8273,629.9767,71,59,40
629.9903,631.0773,75,59,40
633.25116,633.7267,71,65,40
633.7403,633.8898,71,66,40
633.9033,634.9903,75,66,40
637.1642,637.6398,64,72,40
637.6533,637.8028,64,73,40
637.8164,638.9033,76,73,40
641.0773,641.5528,64,83,40
641.56635,641.7158,64,84,40
641.72943,642.81635,76,84,40
644.9903,645.4658,76,92,40
645.47943,645.62885,76,91,40
645.64246,646.72943,88,91,40
648.9033,649.37885,76,81,40
649.39246,649.54193,76,80,40
649.5555,650.64246,85,80,40
652.81635,653.29193,71,70,40
653.3055,653.45496,71,69,40
653.46857,654.5555,71,69,40
656.72943,657.20496,73,57,40
657.21857,657.368,73,55,40
657.3816,658.03375,75,55,40
658.03375,658.6859,76,52,40
658.6859,659.3245,78,49,40
659.3381,660.42505,76,45,40
661.45764,661.6207,75,60,40
661.6207,661.78375,76,60,40
661.78375,661.9468,75,59,40
661.9468,662.10986,76,58,40
662.10986,662.2729,75,57,40
662.2729,662.4359,76,56,40
662.4359,662.599,75,55,40
662.599,662.762,76,53,40
662.762,662.92505,75,51,40
662.92505,663.0881,76,49,40
663.0881,663.23755,80,47,40
663.25116,663.9033,78,45,40
663.9033,664.54193,76,45,40
665.3707,665.53375,75,60,40
665.53375,665.6968,76,60,40
665.6968,665.85986,75,59,40
665.85986,666.0303,76,58,40
666.0303,666.20074,75,57,40
666.20074,666.3712,76,56,40
666.3712,666.5416,75,55,40
666.5416,666.7202,76,53,40
666.7202,666.8988,75,51,40
666.8988,667.0774,76,49,40
667.0774,667.2411,78,47,40
667.2559,667.90814,78,45,40
667.90814,668.5467,76,45,40
669.8646,670.19073,76,60,40
670.35376,670.5168,76,60,40
670.5168,670.7342,84,75,40
671.169,671.82117,83,75,40
671.82117,672.13367,81,70,40
672.1472,672.3646,80,68,40
672.4733,672.7006,78,66,40
672.8142,673.0415,76,64,40
673.15515,673.38245,75,62,40
673.49603,673.7233,73,60,40
673.837,674.0751,71,57,40
674.1941,674.4322,69,54,40
674.5513,674.8013,68,51,40
674.9263,675.1763,66,48,40
675.3013,675.9534,67,45,40
675.9534,676.592,68,45,40
678.56213,679.2007,68,45,40
679.2143,679.86646,66,63,40
679.86646,680.50507,64,45,40
682.47516,683.1273,64,45,40
683.1273,683.7795,66,63,40
683.7795,684.4181,64,45,40
685.736,686.3882,64,60,40
686.3882,687.0268,72,75,40
687.04034,687.69257,71,75,40
687.69257,687.9235,69,70,40
688.0186,688.24963,68,68,40
688.3447,688.5757,66,66,40
688.6708,688.8882,64,64,40
688.9969,689.6787,59,62,40
689.6787,690.393,61,57,40
690.393,691.1274,63,51,40
691.143,692.27936,64,45,40
696.768,696.92426,64,45,40
696.9385,697.27936,65,45,40
697.27936,697.393,64,51,40
697.393,697.50665,65,53,40
697.50665,697.62024,64,55,40
697.62024,697.7339,65,57,40
697.7339,697.84753,64,59,40
697.84753,697.9612,65,61,40
697.9612,698.0748,64,63,40
698.0748,698.1885,65,65,40
698.1885,698.30206,64,67,40
698.30206,698.4157,65,69,40
698.4157,698.52936,64,71,40
698.52936,698.643,65,73,40
698.643,698.75665,64,75,40
698.75665,698.87024,65,77,40
698.87024,698.9839,64,80,40
698.9839,699.09753,65,83,40
699.09753,699.2112,62,86,40
699.2112,699.3106,64,89,40
699.3248,701.46765,65,92,40
701.46765,703.61053,65,75,40
703.61053,707.5391,64,60,40
707.89624,710.89624,64,45,40
710.89624,711.64624,66,45,40
711.64624,712.3806,68,45,40
712.39624,714.64624,64,45,40
714.64624,714.74,63,45,40
714.74,714.83374,64,45,40
714.83374,714.9275,63,46,40
714.9275,715.02124,64,47,40
715.02124,715.115,63,48,40
715.115,715.20874,64,49,40
715.20874,715.3025,63,50,40
715.3025,715.39624,64,51,40
715.39624,715.49493,63,52,40
715.49493,715.5936,64,53,40
715.5936,715.6923,63,54,40
715.6923,715.79095,64,55,40
715.79095,715.89813,63,56,40
715.89813,716.00525,64,57,40
716.00525,716.1124,63,58,40
716.1124,716.21954,64,59,40
716.21954,716.34454,63,60,40
716.34454,716.46954,64,60,40
716.46954,716.59454,63,60,40
716.59454,716.71954,64,58,40
716.71954,717.008,61,56,40
717.008,717.3205,63,51,40
717.34894,721.84894,64,45,40
721.84894,725.97394,64,30,40
114.819954,115.45854,68,45,45
114.819954,115.45854,71,45,45
115.47212,116.55908,59,45,45
115.47212,116.55908,68,45,45
115.47212,116.55908,76,45,45
118.732994,119.37158,68,45,45
118.732994,119.37158,71,45,45
119.38517,120.47212,64,45,45
119.38517,120.47212,71,45,45
119.38517,120.47212,80,45,45
122.646034,123.28462,71,45,45
123.29821,124.38516,62,45,45
123.29821,124.38516,71,45,45
123.29821,124.38516,78,45,45
126.559074,127.19766,71,45,45
127.21125,128.2982,66,45,45
127.21125,128.2982,74,45,45
127.21125,128.2982,83,45,45
130.47212,131.1107,69,45,45
131.12428,132.21124,62,45,45
131.12428,132.21124,69,45,45
131.12428,132.21124,78,45,45
134.38516,135.02374,69,45,45
135.03734,136.12428,62,45,45
135.03734,136.12428,69,45,45
135.03734,136.12428,78,45,45
138.2982,138.93678,74,45,45
138.95038,140.03732,66,45,45
138.95038,140.03732,74,45,45
138.95038,140.03732,81,45,45
142.21124,142.84982,74,45,45
142.21124,142.84982,81,45,45
142.86342,143.95036,69,45,45
142.86342,143.95036,78,45,45
142.86342,143.95036,86,45,45
146.12428,146.76286,74,45,45
146.77646,147.8634,67,46,45
146.77646,147.8634,74,46,45
146.77646,147.8634,83,46,45
153.95036,154.58894,71,58,45
154.60254,155.6895,75,59,45
154.60254,155.6895,83,59,45
161.77644,162.41502,71,72,45
162.42862,163.51558,64,73,45
162.42862,163.51558,74,73,45
162.42862,163.51558,83,73,45
169.60252,170.24112,73,92,45
169.60252,170.24112,76,92,45
170.2547,171.34166,69,92,45
170.2547,171.34166,76,92,45
170.2547,171.34166,85,92,45
218.51553,219.15413,68,45,45
218.51553,219.15413,71,45,45
219.16771,220.25467,56,45,45
219.16771,220.25467,64,45,45
592.16425,592.8028,68,45,45
592.16425,592.8028,76,45,45
592.8164,593.455,64,45,45
592.8164,593.455,71,45,45
592.8164,593.455,80,45,45
596.0773,596.7159,64,45,45
596.0773,596.7159,71,45,45
596.0773,596.7159,80,45,45
596.72943,597.36804,62,45,45
596.72943,597.36804,71,45,45
596.72943,597.36804,78,45,45
599.9903,600.6289,71,45,45
599.9903,600.6289,78,45,45
600.6425,601.28107,66,45,45
600.6425,601.28107,74,45,45
600.6425,601.28107,83,45,45
603.9034,604.54193,71,45,45
603.9034,604.54193,80,45,45
604.55554,605.1941,66,45,45
604.55554,605.1941,74,45,45
604.55554,605.1941,81,45,45
607.8164,608.45496,74,45,45
607.8164,608.45496,81,45,45
608.46857,609.1072,69,45,45
608.46857,609.1072,78,45,45
608.46857,609.1072,86,45,45
611.72943,612.36804,62,45,45
611.72943,612.36804,69,45,45
611.72943,612.36804,78,45,45
612.3816,613.0202,66,45,45
612.3816,613.0202,74,45,45
612.3816,613.0202,81,45,45
615.64246,616.28107,78,45,45
615.64246,616.28107,81,45,45
616.2947,616.9332,69,45,45
616.2947,616.9332,78,45,45
616.2947,616.9332,86,45,45
619.55554,620.1941,66,45,45
619.55554,620.1941,74,45,45
619.55554,620.1941,81,45,45
620.2077,620.84625,67,45,45
620.2077,620.84625,74,45,45
620.2077,620.84625,83,45,45
623.46857,624.1071,62,49,45
623.46857,624.1071,71,49,45
623.46857,624.1071,79,49,45
624.1207,624.75934,67,50,45
624.1207,624.75934,74,50,45
624.1207,624.75934,83,50,45
627.3816,628.0202,76,55,45
627.3816,628.0202,83,55,45
628.03375,628.67236,75,56,45
628.03375,628.67236,83,56,45
631.2946,631.9332,63,62,45
631.2946,631.9332,71,62,45
631.94684,632.5854,75,63,45
631.94684,632.5854,83,63,45
635.2077,635.84625,75,69,45
635.2077,635.84625,83,69,45
635.85986,636.4984,68,70,45
635.85986,636.4984,76,70,45
635.85986,636.4984,83,70,45
639.1207,639.75934,64,77,45
639.1207,639.75934,71,77,45
639.1207,639.75934,80,77,45
639.7729,640.4115,64,79,45
639.7729,640.4115,74,79,45
639.7729,640.4115,83,79,45
643.03375,643.67236,68,89,45
643.03375,643.67236,76,89,45
643.03375,643.67236,83,89,45
643.6859,644.3245,69,92,45
643.6859,644.3245,76,92,45
643.6859,644.3245,85,92,45
646.9468,647.5854,69,87,45
646.9468,647.5854,76,87,45
647.599,648.23755,69,85,45
647.599,648.23755,76,85,45
647.599,648.23755,85,85,45
650.85986,651.4984,68,76,45
650.85986,651.4984,76,76,45
650.85986,651.4984,83,76,45
651.512,652.15063,66,74,45
651.512,652.15063,76,74,45
651.512,652.15063,83,74,45
654.7729,655.4115,66,64,45
654.7729,655.4115,76,64,45
655.42505,656.06366,66,62,45
655.42505,656.06366,76,62,45
3.6,7.186954,68,45,40
7.513041,10.121735,68,45,40
10.121735,10.773909,66,60,40
10.773909,11.412495,64,60,40
11.426082,17.282057,66,45,40
17.295643,18.59999,66,60,40
18.59999,19.238577,68,60,40
19.252165,23.165205,69,45,40
23.165205,26.75216,69,45,40
27.078245,32.93422,68,45,40
32.947807,33.59998,68,60,40
33.59998,34.252155,73,60,40
34.252155,34.89074,71,60,40
34.904327,41.412476,70,45,40
41.426064,41.88802,70,64,40
42.078236,42.295628,71,66,40
42.73041,45.013016,73,68,40
45.339104,45.80106,71,76,40
45.991276,46.208668,70,78,40
46.64345,48.92606,73,80,40
49.252144,49.90432,78,88,40
49.90432,50.542904,74,90,40
50.55649,54.143448,75,92,40
54.469532,57.078228,75,92,40
57.078228,57.7304,71,71,40
57.7304,58.368988,70,66,40
58.382572,61.96953,68,60,40
62.295616,64.25214,60,60,40
62.295616,64.25214,68,60,40
64.25214,64.90431,61,53,40
64.25214,64.90431,68,53,40
64.90431,65.55648,70,51,40
65.55648,66.19507,71,48,40
66.20866,69.79561,61,45,40
66.20866,72.404305,70,45,40
72.73039,73.192345,70,45,40
73.38256,73.59995,71,45,40
74.03474,76.317345,73,45,40
76.64343,77.105385,71,60,40
77.29561,77.51299,70,64,40
77.94778,80.230385,73,68,40
80.55647,81.20865,78,84,40
81.20865,81.84724,73,88,40
81.86082,87.730385,74,92,40
87.730385,88.38255,78,75,40
88.38255,89.03473,74,75,40
89.03473,89.67332,73,75,40
89.686905,93.27386,71,60,40
93.599945,95.556465,63,60,40
93.599945,96.20863,71,60,40
96.20863,96.86081,73,51,40
95.556465,97.4994,64,53,40
96.86081,97.4994,74,48,40
97.512985,103.36896,64,45,40
97.512985,103.36896,73,45,40
103.382545,104.03472,73,75,40
104.03472,104.68689,69,75,40
104.68689,105.32548,68,75,40
105.339066,108.92602,66,60,40
109.252106,111.29756,58,60,40
109.252106,112.01185,66,60,40
112.01185,112.726135,68,60,40
111.29756,113.49916,59,60,40
112.726135,113.49916,69,60,40
113.5156,120.02375,68,45,40
120.03734,120.689514,66,45,40
120.689514,121.3281,64,45,40
121.34169,127.84984,66,45,40
127.86343,128.5156,66,45,40
128.5156,129.15419,68,45,40
129.16777,135.67592,69,45,40
135.6895,136.34167,67,45,40
136.34167,136.98027,66,45,40
136.99385,143.1895,69,45,40
143.51558,144.16776,67,45,40
144.16776,144.80635,66,45,40
144.81993,148.40689,71,45,40
148.73297,151.98026,71,52,40
151.99384,152.21123,71,58,40
152.64601,159.16776,71,59,40
159.16776,159.81993,72,72,40
159.81993,160.45851,71,73,40
160.47209,164.05905,71,74,40
164.38513,166.99384,71,83,40
166.99384,167.64601,69,89,40
167.64601,168.28459,68,90,40
168.29817,171.88513,73,92,40
172.21123,174.81992,73,75,40
174.81992,175.47209,69,75,40
175.47209,176.11067,68,75,40
180.03731,181.77643,58,75,40
181.99382,182.646,59,75,40
176.12427,182.646,66,60,40
182.646,183.29817,59,75,40
182.646,183.29817,64,75,40
183.29817,183.93675,59,60,40
183.29817,183.93675,63,60,40
183.95035,191.45033,64,45,40
191.77643,195.0373,64,45,40
195.0373,195.67587,66,70,40
195.68947,198.29816,59,75,40
198.29816,198.95033,64,60,40
198.95033,199.58891,63,60,40
199.60251,202.2112,64,45,40
202.2112,202.86337,59,45,40
202.86337,203.50197,61,45,40
203.51555,206.12424,62,45,40
206.12424,206.77641,61,45,40
206.77641,207.41501,60,45,40
207.42859,209.38512,61,45,40
209.38512,211.12424,60,45,40
211.34163,213.95032,59,45,40
213.95032,214.6025,58,45,40
214.6025,215.24109,57,45,40
215.25467,220.14597,56,45,40
220.9612,221.06989,64,45,40
221.12424,221.45032,65,45,40
221.45032,221.53185,64,52,40
221.53185,221.61336,65,54,40
221.61336,221.69489,64,56,40
221.69489,221.77641,65,58,40
221.77641,221.85454,64,60,40
221.85454,221.93266,65,62,40
221.93266,222.01079,64,64,40
222.01079,222.08891,65,66,40
222.08891,222.16704,64,68,40
222.16704,222.24516,65,70,40
222.24516,222.32329,64,72,40
222.32329,222.40141,65,74,40
222.40141,222.47954,64,76,40
222.47954,222.55766,65,78,40
222.55766,222.63579,64,80,40
222.63579,222.71391,65,82,40
222.71391,222.87016,62,84,40
222.87016,223.01338,64,88,40
223.02641,223.3139,65,92,40
223.3264,223.91391,56,105,40
223.3264,223.91391,65,105,40
223.9264,224.5139,56,75,40
223.9264,224.5139,65,75,40
224.52641,224.8139,60,75,40
224.52641,224.8139,68,75,40
225.1264,225.71391,56,105,40
225.1264,225.71391,65,105,40
225.72641,226.3139,56,75,40
225.72641,226.3139,65,75,40
226.3264,226.6139,60,75,40
226.3264,226.6139,68,75,40
226.9264,227.5139,56,105,40
226.9264,227.5139,65,105,40
227.52641,228.1139,56,75,40
227.52641,228.1139,65,75,40
228.1264,228.41391,72,75,40
228.4264,228.6139,70,75,40
228.6264,228.8139,70,75,40
228.8264,229.0139,70,75,40
229.02641,229.21391,68,75,40
229.22641,229.41391,68,75,40
229.4264,229.6139,68,75,40
229.6264,229.8139,67,75,40
229.8264,230.0139,67,75,40
230.02641,230.21391,67,75,40
230.22641,230.5139,65,105,40
230.52641,231.1139,56,75,40
230.52641,231.1139,65,75,40
231.1264,231.71391,56,75,40
231.1264,231.71391,65,75,40
231.72641,232.0139,60,75,40
231.72641,232.0139,68,75,40
232.3264,232.91391,56,105,40
232.3264,232.91391,65,105,40
232.9264,233.5139,56,75,40
232.9264,233.5139,65,75,40
233.52641,233.8139,60,75,40
233.52641,233.8139,68,75,40
234.1264,234.71391,56,105,40
234.1264,234.71391,65,105,40
234.72641,235.3139,56,75,40
234.72641,235.3139,65,75,40
235.3264,235.6139,72,75,40
235.6264,235.8139,70,75,40
235.8264,236.0139,70,75,40
236.02641,236.21391,70,75,40
236.22641,236.41391,68,75,40
236.4264,236.6139,68,75,40
236.6264,236.8139,68,75,40
236.8264,237.0139,67,75,40
237.02641,237.21391,67,75,40
237.22641,237.41391,67,75,40
237.4264,237.71391,65,105,40
237.72641,238.3139,57,105,40
237.72641,238.3139,65,105,40
238.3264,238.91391,57,75,40
238.3264,238.91391,65,75,40
238.9264,239.21391,65,75,40
238.9264,239.21391,69,75,40
239.52641,240.1139,57,105,40
239.52641,240.1139,65,105,40
240.1264,240.71391,57,75,40
240.1264,240.71391,65,75,40
240.72641,241.0139,65,75,40
240.72641,241.0139,69,75,40
241.3264,241.91391,60,105,40
241.3264,241.91391,65,105,40
241.9264,242.5139,60,75,40
241.9264,242.5139,65,75,40
242.52641,242.8139,65,75,40
242.52641,242.8139,72,75,40
242.8264,243.0139,65,75,40
242.8264,243.0139,72,75,40
243.02641,243.21391,65,75,40
243.02641,243.21391,72,75,40
243.22641,243.41391,65,75,40
243.22641,243.41391,72,75,40
243.4264,243.6139,65,75,40
243.4264,243.6139,70,75,40
243.6264,243.8139,65,75,40
243.6264,243.8139,70,75,40
243.8264,244.0139,65,75,40
243.8264,244.0139,70,75,40
244.02641,244.21391,65,75,40
244.02641,244.21391,69,75,40
244.22641,244.41391,65,75,40
244.22641,244.41391,69,75,40
244.4264,244.6139,65,75,40
244.4264,244.6139,69,75,40
244.9264,245.5139,65,105,40
244.9264,245.5139,70,105,40
245.52641,246.1139,65,74,40
245.52641,246.1139,70,74,40
246.1264,246.41391,65,73,40
246.1264,246.41391,73,73,40
246.72641,247.3139,58,73,40
246.72641,247.3139,66,73,40
247.3264,247.91391,58,72,40
247.3264,247.91391,66,72,40
247.9264,248.21391,66,71,40
247.9264,248.21391,70,71,40
248.22641,248.41391,64,71,40
248.22641,248.41391,72,71,40
248.4264,248.6139,64,71,40
248.4264,248.6139,72,71,40
248.6264,248.8139,64,71,40
248.6264,248.8139,72,71,40
248.8264,249.0139,65,71,40
248.8264,249.0139,72,71,40
249.02641,249.21391,65,71,40
249.02641,249.21391,72,71,40
249.22641,249.41391,65,71,40
249.22641,249.41391,72,71,40
249.4264,249.6139,67,71,40
249.4264,249.6139,72,71,40
249.6264,249.8139,67,71,40
249.6264,249.8139,72,71,40
249.8264,250.0139,67,71,40
249.8264,250.0139,72,71,40
250.02641,250.3139,65,71,40
250.02641,250.3139,72,71,40
250.3264,250.91391,60,70,40
250.3264,250.91391,68,70,40
250.9264,251.5139,60,67,40
250.9264,251.5139,68,67,40
251.52641,251.8139,68,64,40
251.52641,251.8139,72,64,40
252.1264,252.71391,56,84,40
252.1264,252.71391,65,84,40
252.72641,253.3139,56,60,40
252.72641,253.3139,65,60,40
253.3264,253.6139,60,60,40
253.3264,253.6139,68,60,40
253.9264,254.5139,61,84,40
254.52641,255.1139,61,60,40
255.1264,255.41391,61,60,40
255.1264,255.41391,65,60,40
255.4264,255.6139,59,60,40
255.4264,255.6139,67,60,40
255.6264,255.8139,59,60,40
255.6264,255.8139,67,60,40
255.8264,256.01392,59,60,40
255.8264,256.01392,67,60,40
256.0264,256.2139,60,60,40
256.0264,256.2139,67,60,40
256.2264,256.4139,60,60,40
256.2264,256.4139,67,60,40
256.4264,256.6139,60,60,40
256.4264,256.6139,67,60,40
256.6264,256.8139,62,60,40
256.6264,256.8139,67,60,40
256.82642,257.01392,62,60,40
256.82642,257.01392,67,60,40
257.0264,257.2139,62,61,40
257.0264,257.2139,67,61,40
257.2264,257.51392,63,61,40
257.2264,257.51392,67,61,40
257.5264,258.1139,55,62,40
257.5264,258.1139,63,62,40
258.1264,258.7139,55,65,40
258.1264,258.7139,63,65,40
258.7264,259.01392,60,68,40
258.7264,259.01392,67,68,40
259.0264,259.2139,65,69,40
259.2264,259.4139,65,70,40
259.4264,259.6139,65,71,40
259.6264,259.8139,67,72,40
259.82642,260.01392,67,73,40
260.0264,260.2139,67,74,40
260.2264,260.4139,68,75,40
260.4264,260.6139,68,76,40
260.6264,260.8139,68,77,40
260.82642,261.1139,67,78,40
261.1264,261.7139,55,79,40
261.1264,261.7139,63,79,40
261.7264,262.3139,55,82,40
261.7264,262.3139,63,82,40
262.32642,262.6139,67,86,40
262.6264,262.8139,60,88,40
262.6264,262.8139,70,88,40
262.82642,263.01392,60,89,40
262.82642,263.01392,70,89,40
263.0264,263.2139,60,90,40
263.0264,263.2139,70,90,40
263.2264,263.4139,61,92,40
263.2264,263.4139,68,92,40
263.4264,263.6139,61,92,40
263.4264,263.6139,68,92,40
263.6264,263.8139,61,92,40
263.6264,263.8139,68,92,40
263.82642,264.01392,61,92,40
263.82642,264.01392,67,92,40
264.0264,264.2139,61,92,40
264.0264,264.2139,67,92,40
264.2264,264.4139,61,92,40
264.2264,264.4139,67,92,40
264.4264,264.7139,60,92,40
264.4264,264.7139,70,92,40
264.7264,265.3139,67,86,40
264.7264,265.3139,70,86,40
265.32642,265.9139,67,73,40
265.32642,265.9139,70,73,40
265.9264,266.2139,67,59,40
265.9264,266.2139,72,59,40
266.5264,267.1139,68,63,40
267.1264,267.7139,68,45,40
267.7264,268.01392,65,45,40
267.7264,268.01392,73,45,40
268.32642,268.9139,68,63,40
268.9264,269.51392,68,45,40
269.5264,269.8139,65,45,40
269.5264,269.8139,73,45,40
269.82642,270.01392,72,45,40
270.0264,270.2139,72,45,40
270.2264,270.4139,72,45,40
270.4264,270.6139,74,45,40
270.6264,270.8139,74,45,40
270.82642,271.01392,74,45,40
271.0264,271.2139,75,45,40
271.2264,271.4139,75,45,40
271.4264,271.6139,75,45,40
271.9264,272.1264,75,45,40
272.2264,272.5264,74,63,40
272.5264,272.8139,75,45,40
272.82642,273.1264,75,63,40
273.1264,273.4139,77,45,40
273.4264,273.7139,75,105,40
273.7264,274.3139,67,75,40
273.7264,274.3139,70,75,40
274.32642,274.9139,67,75,40
274.32642,274.9139,70,75,40
274.9264,275.2139,67,75,40
274.9264,275.2139,75,75,40
275.5264,276.1139,67,60,40
275.5264,276.1139,70,60,40
276.1264,276.7139,67,60,40
276.1264,276.7139,70,60,40
276.7264,277.01392,67,60,40
276.7264,277.01392,75,60,40
277.0264,277.2139,74,60,40
277.2264,277.4139,74,61,40
277.4264,277.6139,74,62,40
277.6264,277.8139,76,63,40
277.82642,278.01392,76,64,40
278.0264,278.2139,76,66,40
278.2264,278.4139,77,68,40
278.4264,278.6139,77,70,40
278.6264,278.8139,77,72,40
279.1264,279.32642,77,77,40
279.4264,279.7264,76,112,40
279.7264,280.01392,77,83,40
280.0264,280.32642,77,120,40
280.32642,280.6139,79,89,40
280.6264,280.9139,77,92,40
280.9264,281.51392,72,92,40
281.5264,282.1139,72,86,40
282.1264,282.4139,69,80,40
282.1264,282.4139,77,80,40
282.7264,283.3139,72,74,40
283.32642,283.9139,72,67,40
283.9264,284.2139,69,60,40
283.9264,284.2139,77,60,40
284.2264,284.4139,77,60,40
284.4264,284.6139,77,61,40
284.6264,284.8139,77,62,40
284.82642,285.01392,79,63,40
285.0264,285.2139,79,64,40
285.2264,285.4139,79,66,40
285.4264,285.6139,80,68,40
285.6264,285.8139,80,70,40
285.82642,286.01392,80,72,40
286.32642,286.5264,80,77,40
286.6264,286.9264,79,112,40
286.9264,287.2139,80,83,40
287.2264,287.5264,82,120,40
287.5264,287.8139,80,89,40
287.82642,288.1139,79,92,40
288.1264,288.7139,67,92,40
288.7264,289.3139,67,92,40
289.32642,289.6139,72,92,40
289.9264,290.51392,67,92,40
290.5264,291.1139,67,89,40
291.1264,291.4139,72,86,40
291.7264,292.3139,67,84,40
292.32642,292.9139,67,80,40
292.9264,293.2139,72,76,40
293.2264,293.4139,67,74,40
293.2264,293.4139,70,74,40
293.4264,293.6139,67,73,40
293.4264,293.6139,70,73,40
293.6264,293.8139,67,72,40
293.6264,293.8139,70,72,40
293.82642,294.01392,67,71,40
293.82642,294.01392,70,71,40
294.0264,294.2139,67,70,40
294.0264,294.2139,70,70,40
294.2264,294.4139,67,69,40
294.2264,294.4139,70,69,40
294.4264,294.6139,67,68,40
294.4264,294.6139,70,68,40
294.6264,294.8139,67,67,40
294.6264,294.8139,70,67,40
294.82642,295.01392,67,65,40
294.82642,295.01392,70,65,40
295.32642,295.9139,60,60,40
295.32642,295.9139,68,60,40
295.9264,296.51392,60,60,40
295.9264,296.51392,68,60,40
296.5264,296.8139,68,60,40
296.5264,296.8139,72,60,40
297.1264,297.7139,60,60,40
297.1264,297.7139,68,60,40
297.7264,298.3139,60,55,40
297.7264,298.3139,68,55,40
298.32642,298.6139,68,50,40
298.32642,298.6139,72,50,40
298.9264,299.51392,60,45,40
298.9264,299.51392,68,45,40
299.5264,300.1139,60,45,40
299.5264,300.1139,68,45,40
300.1264,300.4139,68,45,40
300.1264,300.4139,72,45,40
300.4264,300.6139,68,45,40
300.6264,300.8139,68,46,40
300.82642,301.01392,68,47,40
301.0264,301.2139,70,48,40
301.2264,301.4139,70,50,40
301.4264,301.6139,70,52,40
301.6264,301.8139,72,54,40
301.82642,302.01392,72,56,40
302.0264,302.2139,72,58,40
302.2264,302.51392,73,84,40
302.5264,303.1139,68,60,40
303.1264,303.7139,68,60,40
303.7264,304.01392,65,57,40
303.7264,304.01392,73,57,40
304.32642,304.9139,68,53,40
304.9264,305.51392,68,49,40
305.5264,305.8139,65,45,40
305.5264,305.8139,73,45,40
306.1264,306.7139,56,45,40
306.1264,306.7139,65,45,40
306.7264,307.3139,56,45,40
306.7264,307.3139,65,45,40
307.32642,307.6139,68,45,40
307.9264,308.51392,56,45,40
307.9264,308.51392,65,45,40
308.5264,309.1139,56,45,40
308.5264,309.1139,65,45,40
309.1264,309.4139,68,45,40
309.7264,310.3139,55,63,40
309.7264,310.3139,63,63,40
310.32642,310.9139,55,45,40
310.32642,310.9139,63,45,40
310.9264,311.2139,67,45,40
311.5264,312.1139,55,63,40
311.5264,312.1139,63,63,40
312.1264,312.7139,55,45,40
312.1264,312.7139,63,45,40
312.7264,313.01392,67,45,40
313.32642,313.9139,55,63,40
313.32642,313.9139,65,63,40
313.9264,314.51392,55,52,40
313.9264,314.51392,65,52,40
314.5264,314.8139,59,60,40
314.5264,314.8139,67,60,40
315.1264,315.7139,55,68,40
315.1264,315.7139,65,68,40
315.7264,316.3139,55,76,40
315.7264,316.3139,65,76,40
316.32642,316.6139,59,84,40
316.32642,316.6139,68,84,40
316.9264,317.51392,60,92,40
316.9264,317.51392,67,92,40
317.5264,318.1139,60,92,40
317.5264,318.1139,67,92,40
318.1264,318.4139,67,92,40
318.1264,318.4139,72,92,40
318.7264,319.3139,67,92,40
319.32642,319.9139,67,92,40
319.9264,320.2139,72,92,40
320.5264,321.1139,67,92,40
321.1264,321.7139,67,85,40
321.7264,322.01392,72,77,40
322.0264,322.2139,67,73,40
322.0264,322.2139,70,73,40
322.2264,322.4139,67,71,40
322.2264,322.4139,70,71,40
322.4264,322.6139,67,69,40
322.4264,322.6139,70,69,40
322.6264,322.8139,67,67,40
322.6264,322.8139,70,67,40
322.82642,323.01392,67,65,40
322.82642,323.01392,70,65,40
323.0264,323.2139,67,62,40
323.0264,323.2139,70,62,40
323.2264,323.4139,67,59,40
323.2264,323.4139,70,59,40
323.4264,323.6139,67,56,40
323.4264,323.6139,70,56,40
323.6264,323.8139,67,53,40
323.6264,323.8139,70,53,40
324.1264,324.7139,60,45,40
324.1264,324.7139,68,45,40
324.7264,325.3139,60,45,40
324.7264,325.3139,68,45,40
325.32642,325.6139,68,45,40
325.32642,325.6139,72,45,40
325.9264,326.51392,60,45,40
325.9264,326.51392,68,45,40
326.5264,327.1139,60,45,40
326.5264,327.1139,68,45,40
327.1264,327.4139,68,45,40
327.1264,327.4139,72,45,40
327.7264,328.3139,68,45,40
328.32642,328.9139,68,50,40
328.9264,329.2139,72,55,40
329.2264,329.4139,68,57,40
329.4264,329.6139,68,59,40
329.6264,329.8139,68,61,40
329.82642,330.01392,70,63,40
330.0264,330.2139,70,65,40
330.2264,330.4139,70,67,40
330.4264,330.6139,72,69,40
330.6264,330.8139,72,71,40
330.82642,331.01392,72,73,40
331.0264,331.3139,65,105,40
331.0264,331.3139,73,105,40
331.32642,331.9139,68,75,40
331.9264,332.51392,68,75,40
332.5264,332.8139,65,75,40
332.5264,332.8139,73,75,40
333.1264,333.7139,68,75,40
333.7264,334.3139,68,72,40
334.32642,334.6139,65,69,40
334.32642,334.6139,73,69,40
334.9264,335.51392,56,67,40
334.9264,335.51392,65,67,40
335.5264,336.1139,56,64,40
335.5264,336.1139,65,64,40
336.1264,336.4139,68,61,40
336.7264,337.3139,56,57,40
336.7264,337.3139,65,57,40
337.32642,337.9139,56,53,40
337.32642,337.9139,65,53,40
337.9264,338.2139,68,49,40
338.5264,339.1139,55,45,40
338.5264,339.1139,63,45,40
339.1264,339.7139,55,45,40
339.1264,339.7139,63,45,40
339.7264,340.01392,67,45,40
340.32642,340.9139,55,45,40
340.32642,340.9139,63,45,40
340.9264,341.51392,55,45,40
340.9264,341.51392,63,45,40
341.5264,341.8139,67,45,40
342.1264,342.7139,55,45,40
342.1264,342.7139,65,45,40
342.7264,343.3139,55,45,40
342.7264,343.3139,65,45,40
343.32642,343.6139,59,45,40
343.32642,343.6139,67,45,40
343.9264,344.51392,55,45,40
343.9264,344.51392,65,45,40
344.5264,345.1139,55,45,40
344.5264,345.1139,65,45,40
345.1264,345.4139,59,45,40
345.1264,345.4139,67,45,40
345.7264,346.3139,69,45,40
346.32642,346.9139,69,48,40
346.9264,347.2139,63,52,40
346.9264,347.2139,72,52,40
347.5264,348.1139,69,56,40
348.1264,348.7139,69,60,40
348.7264,349.01392,63,64,40
348.7264,349.01392,72,64,40
349.32642,349.9139,69,68,40
349.9264,350.51392,69,72,40
350.5264,350.8139,63,76,40
350.5264,350.8139,72,76,40
350.82642,351.01392,63,109,40
350.82642,351.01392,69,109,40
351.0264,351.2139,63,79,40
351.0264,351.2139,69,79,40
351.2264,351.4139,63,80,40
351.2264,351.4139,69,80,40
351.4264,351.6139,63,113,40
351.4264,351.6139,71,113,40
351.6264,351.8139,63,82,40
351.6264,351.8139,71,82,40
351.82642,352.01392,63,83,40
351.82642,352.01392,71,83,40
352.0264,352.2139,63,117,40
352.0264,352.2139,72,117,40
352.2264,352.4139,63,85,40
352.2264,352.4139,72,85,40
352.4264,352.6139,63,87,40
352.4264,352.6139,72,87,40
352.9264,353.51392,64,92,40
352.9264,353.51392,72,92,40
353.5264,354.1139,64,92,40
353.5264,354.1139,72,92,40
354.1264,354.4139,72,75,40
354.1264,354.4139,76,75,40
354.4264,354.6139,72,60,40
354.6264,354.8139,72,60,40
354.82642,355.01392,72,60,40
355.0264,355.2139,74,64,40
355.2264,355.4139,74,68,40
355.4264,355.6139,74,72,40
355.6264,355.8139,75,77,40
355.82642,356.01392,75,82,40
356.0264,356.2139,75,87,40
356.2264,356.51392,76,92,40
356.5264,357.1139,69,92,40
356.5264,357.1139,71,92,40
357.1264,357.7139,69,87,40
357.1264,357.7139,71,87,40
357.7264,358.01392,69,82,40
357.7264,358.01392,76,82,40
358.32642,358.9139,68,78,40
358.32642,358.9139,71,78,40
358.9264,359.51392,68,72,40
358.9264,359.51392,71,72,40
359.5264,359.8139,68,66,40
359.5264,359.8139,76,66,40
360.1264,360.7139,67,60,40
360.1264,360.7139,70,60,40
360.7264,361.3139,67,60,40
360.7264,361.3139,70,60,40
361.32642,361.6139,73,60,40
361.9264,362.51392,67,60,40
361.9264,362.51392,70,60,40
362.5264,363.1139,67,59,40
362.5264,363.1139,70,59,40
363.1264,363.4139,72,58,40
363.7264,364.3139,60,57,40
363.7264,364.3139,68,57,40
364.32642,364.9139,60,55,40
364.32642,364.9139,68,55,40
364.9264,365.2139,68,53,40
364.9264,365.2139,72,53,40
365.5264,366.1139,56,51,40
365.5264,366.1139,65,51,40
366.1264,366.7139,56,49,40
366.1264,366.7139,65,49,40
366.7264,367.01392,68,47,40
367.32642,367.9139,55,45,40
367.32642,367.9139,63,45,40
367.9264,368.51392,55,45,40
367.9264,368.51392,63,45,40
368.5264,368.8139,67,45,40
369.1264,369.7139,55,45,40
369.1264,369.7139,63,45,40
369.7264,370.3139,55,45,40
369.7264,370.3139,63,45,40
370.32642,370.6139,67,45,40
370.9264,371.51392,55,45,40
370.9264,371.51392,65,45,40
371.5264,372.1139,55,45,40
371.5264,372.1139,65,45,40
372.1264,372.4139,59,45,40
372.1264,372.4139,67,45,40
372.7264,373.3139,55,45,40
372.7264,373.3139,65,45,40
373.32642,373.9139,55,45,40
373.32642,373.9139,65,45,40
373.9264,374.2139,59,45,40
373.9264,374.2139,67,45,40
374.5264,375.1139,69,45,40
375.1264,375.7139,69,48,40
375.7264,376.01392,63,52,40
375.7264,376.01392,72,52,40
376.32642,376.9139,69,56,40
376.9264,377.51392,69,60,40
377.5264,377.8139,63,64,40
377.5264,377.8139,72,64,40
378.1264,378.7139,69,68,40
378.7264,379.3139,69,72,40
379.32642,379.6139,63,76,40
379.32642,379.6139,72,76,40
379.6264,379.8139,63,109,40
379.6264,379.8139,69,109,40
379.82642,380.01392,63,79,40
379.82642,380.01392,69,79,40
380.0264,380.2139,63,80,40
380.0264,380.2139,69,80,40
380.2264,380.4139,63,113,40
380.2264,380.4139,71,113,40
380.4264,380.6139,63,82,40
380.4264,380.6139,71,82,40
380.6264,380.8139,63,83,40
380.6264,380.8139,71,83,40
380.82642,381.01392,63,117,40
380.82642,381.01392,72,117,40
381.0264,381.2139,63,85,40
381.0264,381.2139,72,85,40
381.2264,381.4139,63,87,40
381.2264,381.4139,72,87,40
381.7264,382.3139,64,92,40
381.7264,382.3139,72,92,40
382.32642,382.9139,64,92,40
382.32642,382.9139,72,92,40
382.9264,383.2139,72,85,40
382.9264,383.2139,76,85,40
383.2264,383.4139,72,82,40
383.4264,383.6139,72,80,40
383.6264,383.8139,72,78,40
383.82642,384.01392,74,76,40
384.0264,384.2139,74,74,40
384.2264,384.4139,74,72,40
384.4264,384.6139,75,69,40
384.6264,384.8139,75,66,40
384.82642,385.01392,75,63,40
385.0264,385.3139,68,60,40
385.0264,385.3139,76,60,40
385.32642,385.9139,68,60,40
385.32642,385.9139,71,60,40
385.9264,386.51392,68,60,40
385.9264,386.51392,71,60,40
386.5264,386.8139,68,66,40
386.5264,386.8139,76,66,40
386.82642,387.01392,71,69,40
387.0264,387.2139,71,71,40
387.2264,387.4139,71,73,40
387.4264,387.6139,73,75,40
387.6264,387.8139,73,77,40
387.82642,388.01392,73,79,40
388.0264,388.2139,74,81,40
388.2264,388.4139,74,83,40
388.4264,388.6139,74,85,40
388.9264,389.51392,66,92,40
388.9264,389.51392,74,92,40
389.5264,390.1139,66,92,40
389.5264,390.1139,74,92,40
390.1264,390.4139,74,90,40
390.1264,390.4139,78,90,40
390.4264,390.6139,74,89,40
390.6264,390.8139,74,88,40
390.82642,391.01392,74,87,40
391.0264,391.2139,76,86,40
391.2264,391.4139,76,85,40
391.4264,391.6139,76,84,40
391.6264,391.8139,77,83,40
391.82642,392.01392,77,82,40
392.0264,392.2139,77,81,40
392.2264,392.51392,78,80,40
392.5264,393.1139,66,79,40
392.5264,393.1139,73,79,40
393.1264,393.7139,66,76,40
393.1264,393.7139,73,76,40
393.7264,394.01392,73,73,40
393.7264,394.01392,78,73,40
394.32642,394.9139,66,71,40
394.32642,394.9139,73,71,40
394.9264,395.51392,66,68,40
394.9264,395.51392,73,68,40
395.5264,395.8139,73,64,40
395.5264,395.8139,78,64,40
396.1264,396.7139,69,60,40
396.1264,396.7139,72,60,40
396.7264,397.3139,69,60,40
396.7264,397.3139,72,60,40
397.32642,397.6139,69,60,40
397.32642,397.6139,77,60,40
397.9264,398.51392,69,60,40
397.9264,398.51392,72,60,40
398.5264,399.1139,69,60,40
398.5264,399.1139,72,60,40
399.1264,399.4139,69,60,40
399.1264,399.4139,77,60,40
399.7264,400.3139,69,60,40
399.7264,400.3139,71,60,40
400.32642,400.9139,69,60,40
400.32642,400.9139,71,60,40
400.9264,401.2139,69,60,40
400.9264,401.2139,76,60,40
401.5264,402.1139,68,60,40
401.5264,402.1139,71,60,40
402.1264,402.7139,68,59,40
402.1264,402.7139,71,59,40
402.7264,403.01392,68,58,40
402.7264,403.01392,76,58,40
403.32642,403.9139,67,58,40
403.32642,403.9139,70,58,40
403.9264,404.51392,67,57,40
403.9264,404.51392,70,57,40
404.5264,404.8139,73,56,40
405.1264,405.7139,67,56,40
405.1264,405.7139,70,56,40
405.7264,406.3139,67,55,40
405.7264,406.3139,70,55,40
406.32642,406.6139,72,54,40
406.9264,407.51392,60,54,40
406.9264,407.51392,68,54,40
407.5264,408.1139,60,53,40
407.5264,408.1139,68,53,40
408.1264,408.4139,68,52,40
408.1264,408.4139,72,52,40
408.7264,409.3139,56,51,40
408.7264,409.3139,65,51,40
409.32642,409.9139,56,49,40
409.32642,409.9139,65,49,40
409.9264,410.2139,65,47,40
409.9264,410.2139,68,47,40
410.5264,411.1139,55,45,40
410.5264,411.1139,63,45,40
411.1264,411.7139,55,45,40
411.1264,411.7139,63,45,40
411.7264,412.01392,67,45,40
412.32642,412.9139,55,45,40
412.32642,412.9139,63,45,40
412.9264,413.51392,55,45,40
412.9264,413.51392,63,45,40
413.5264,413.8139,67,45,40
414.1264,414.7139,56,45,40
414.1264,414.7139,65,45,40
414.7264,415.3139,56,47,40
414.7264,415.3139,65,47,40
415.32642,415.6139,68,49,40
415.9264,416.51392,56,51,40
415.9264,416.51392,65,51,40
416.5264,417.1139,56,54,40
416.5264,417.1139,65,54,40
417.1264,417.4139,68,57,40
417.7264,418.3139,55,60,40
417.7264,418.3139,63,60,40
418.32642,418.9139,55,60,40
418.32642,418.9139,63,60,40
418.9264,419.2139,67,60,40
419.5264,420.1139,55,60,40
419.5264,420.1139,63,60,40
420.1264,420.7139,55,60,40
420.1264,420.7139,63,60,40
420.7264,421.01392,67,60,40
421.32642,421.9139,56,60,40
421.32642,421.9139,65,60,40
421.9264,422.51392,56,60,40
421.9264,422.51392,65,60,40
422.5264,422.8139,68,60,40
423.1264,423.7139,56,60,40
423.1264,423.7139,65,60,40
423.7264,424.3139,56,60,40
423.7264,424.3139,65,60,40
424.32642,424.6139,68,60,40
424.9264,425.51392,55,60,40
424.9264,425.51392,63,60,40
425.5264,426.1139,55,59,40
425.5264,426.1139,63,59,40
426.1264,426.4139,67,58,40
426.7264,427.3139,55,58,40
426.7264,427.3139,63,58,40
427.32642,427.9139,55,57,40
427.32642,427.9139,63,57,40
427.9264,428.2139,67,56,40
428.5264,429.1139,55,56,40
428.5264,429.1139,65,56,40
429.1264,429.7139,55,54,40
429.1264,429.7139,65,54,40
429.7264,430.01392,59,52,40
429.7264,430.01392,67,52,40
430.32642,430.9139,55,50,40
430.32642,430.9139,65,50,40
430.9264,431.51392,55,48,40
430.9264,431.51392,65,48,40
431.5264,431.8139,59,46,40
431.5264,431.8139,67,46,40
431.82642,432.82642,59,45,40
435.2764,435.4139,59,45,40
435.4264,436.4264,59,45,40
438.8764,439.01392,59,60,40
439.0264,439.6264,59,60,40
439.6264,440.2139,58,60,40
442.4764,442.6264,70,60,40
442.6264,443.2264,71,60,40
443.2264,443.8139,70,60,40
446.2264,447.2264,57,45,40
449.6764,449.8139,57,45,40
449.82642,450.82642,57,45,40
453.2764,453.4139,57,45,40
453.4264,454.0514,57,45,40
454.0514,454.6634,56,45,40
457.09488,457.25793,68,45,40
457.25793,457.93976,69,45,40
457.93976,458.60736,68,45,40
465.53714,469.82285,57,45,40
469.82285,474.32285,56,45,40
474.32285,478.66495,57,45,40
479.0597,479.71188,56,45,40
479.71188,482.75534,68,45,40
482.97275,485.58142,68,45,40
485.58142,486.2336,66,60,40
486.2336,486.8722,64,60,40
486.88577,490.47275,66,45,40
490.79883,493.08142,66,45,40
493.40753,494.0597,66,60,40
494.0597,494.69827,68,60,40
494.71185,498.6249,69,45,40
498.6249,502.21185,69,45,40
502.53793,508.39392,68,45,40
508.4075,509.0597,68,60,40
509.0597,509.71185,73,60,40
509.71185,510.35043,71,60,40
510.364,516.8722,70,45,40
516.88574,517.3477,70,60,40
517.53796,517.7553,71,60,40
518.1901,520.4727,73,60,40
520.7988,521.26074,71,70,40
521.451,521.6684,70,72,40
522.10315,524.38574,73,74,40
524.71185,525.364,78,86,40
525.364,526.0026,74,89,40
526.0162,528.6249,75,92,40
528.6249,529.71185,75,75,40
529.92926,532.5379,75,75,40
532.5379,533.1901,71,105,40
533.1901,533.8287,70,105,40
533.8423,537.4292,68,60,40
537.7553,539.71185,60,60,40
537.7553,539.71185,68,60,40
539.71185,540.364,61,53,40
539.71185,540.364,68,53,40
540.364,541.0162,61,71,40
540.364,541.0162,70,71,40
541.0162,541.6548,61,67,40
541.0162,541.6548,71,67,40
541.66833,545.2553,61,45,40
541.66833,548.1765,70,45,40
548.19006,548.65204,70,63,40
548.8423,549.05963,71,63,40
549.49445,551.77704,73,45,40
552.10315,552.56506,71,60,40
552.7553,552.9727,70,64,40
553.4075,556.0162,73,68,40
556.0162,556.66833,78,84,40
556.66833,557.30695,73,88,40
557.3205,559.9292,74,92,40
559.9292,563.19006,74,75,40
563.19006,563.8422,78,75,40
563.8422,564.49445,74,70,40
564.49445,565.133,73,91,40
565.1466,568.7336,71,60,40
569.05963,570.79877,63,84,40
571.0162,571.66833,64,53,40
569.05963,571.66833,71,84,40
571.66833,572.3205,64,71,40
571.66833,572.3205,73,71,40
572.3205,572.9591,64,67,40
572.3205,572.9591,74,67,40
572.97266,578.8287,64,45,40
572.97266,578.8287,73,45,40
578.8422,579.49445,73,75,40
579.49445,580.1466,69,75,40
580.1466,580.78516,68,68,40
584.7118,586.75726,58,60,40
580.79877,586.75726,66,60,40
586.75726,587.4391,59,60,40
586.75726,587.4391,66,60,40
587.4391,588.1534,59,55,40
587.4391,588.1534,68,55,40
588.1534,588.88776,59,50,40
588.1534,588.88776,69,50,40
588.9034,595.4115,68,45,40
595.4251,596.0773,66,60,40
596.0773,596.7159,64,60,40
596.72943,603.2376,66,45,40
603.25116,603.9034,66,60,40
603.9034,604.54193,68,60,40
604.55554,611.06366,69,45,40
611.0773,611.72943,67,60,40
611.72943,612.36804,66,60,40
612.3816,618.8898,69,45,40
618.9033,619.55554,67,45,40
619.55554,620.1941,66,45,40
620.2077,623.7946,71,45,40
624.1207,627.36804,71,52,40
627.3816,628.0202,71,58,40
628.03375,634.5555,71,59,40
634.5555,635.2077,72,72,40
635.2077,635.84625,71,73,40
635.85986,639.44684,71,74,40
639.7729,642.3816,71,83,40
642.3816,643.03375,69,89,40
643.03375,643.67236,68,90,40
643.6859,647.2729,73,92,40
647.599,650.2077,73,75,40
650.2077,650.85986,69,75,40
650.85986,651.4984,68,73,40
651.512,655.099,66,71,40
655.42505,657.3816,58,58,40
657.3816,658.03375,59,52,40
655.42505,658.03375,66,58,40
658.03375,658.6859,59,50,40
658.03375,658.6859,64,50,40
658.6859,659.3245,59,48,40
658.6859,659.3245,63,48,40
659.3381,666.8988,64,45,40
667.2559,670.5168,64,45,40
670.5168,671.1554,66,60,40
671.169,673.837,59,75,40
673.837,674.5513,64,60,40
674.5513,675.28564,63,60,40
675.3013,677.91,64,45,40
677.91,678.56213,59,45,40
678.56213,679.2007,61,45,40
679.2143,681.823,62,45,40
681.823,682.47516,61,45,40
682.47516,683.1138,60,45,40
683.1273,685.08386,61,45,40
685.08386,686.823,60,60,40
687.04034,689.6787,59,75,40
689.6787,690.393,58,60,40
690.393,691.1274,57,60,40
691.143,694.893,56,45,40
695.2339,697.27936,55,45,40
697.27936,699.09753,55,60,40
699.3248,701.46765,60,92,40
701.46765,703.61053,60,75,40
703.61053,707.5391,58,60,40
707.89624,712.02124,59,45,40
712.39624,713.64624,59,45,40
714.64624,715.93384,59,45,40
717.34894,721.84894,59,45,40
721.84894,725.97394,59,30,40
3.6,10.121735,64,45,41
10.121735,10.773909,63,60,41
10.773909,11.412495,59,60,41
11.426082,18.59999,63,45,41
18.59999,19.238577,65,60,41
19.252165,23.165205,66,45,41
23.165205,26.75216,66,45,41
27.078245,29.68694,66,45,41
29.68694,30.339113,65,45,41
30.339113,30.9777,63,45,41
30.991287,34.252155,65,45,41
34.252155,34.89074,68,60,41
34.904327,41.412476,66,45,41
41.426064,41.88802,66,64,41
42.078236,42.295628,68,66,41
42.73041,45.013016,70,68,41
45.339104,45.80106,68,76,41
45.991276,46.208668,66,78,41
46.64345,49.89073,70,80,41
49.90432,50.542904,70,90,41
50.55649,57.06464,71,92,41
57.078228,57.7304,65,92,41
57.7304,58.368988,66,76,41
62.295616,64.034744,63,60,41
58.382572,64.034744,66,60,41
64.25214,64.90431,65,53,41
64.90431,65.55648,66,51,41
65.55648,66.19507,68,48,41
66.20866,72.716805,66,45,41
72.73039,73.192345,66,45,41
73.38256,73.59995,68,45,41
74.03474,76.317345,70,45,41
76.64343,77.105385,68,60,41
77.29561,77.51299,66,64,41
77.94778,81.19506,70,68,41
81.20865,81.42604,70,88,41
81.86082,87.7168,71,92,41
87.730385,88.38255,66,75,41
88.38255,89.03473,68,75,41
89.03473,89.67332,69,75,41
93.599945,95.33907,66,60,41
89.686905,95.33907,69,60,41
95.556465,96.20863,68,60,41
96.20863,96.86081,69,55,41
96.86081,97.4994,71,50,41
97.512985,103.36896,69,45,41
103.382545,104.03472,61,75,41
104.03472,104.68689,63,75,41
104.68689,105.32548,64,75,41
109.252106,111.07029,61,60,41
105.339066,111.07029,64,60,41
111.29756,112.01185,63,60,41
112.01185,112.726135,64,60,41
112.726135,113.49916,66,60,41
113.5156,120.02375,64,45,41
120.03734,120.689514,63,45,41
120.689514,121.3281,59,45,41
121.34169,127.84984,62,45,41
127.86343,128.5156,62,45,41
128.5156,129.15419,65,45,41
129.16777,135.67592,66,45,41
135.6895,136.34167,64,45,41
136.34167,136.98027,62,45,41
136.99385,143.502,66,45,41
143.51558,144.16776,64,45,41
144.16776,144.80635,62,45,41
144.81993,151.77644,67,45,41
151.99384,152.21123,67,58,41
152.64601,159.60254,69,59,41
159.81993,160.45851,69,73,41
160.47209,166.99384,68,74,41
166.99384,167.64601,66,88,41
167.64601,168.28459,64,90,41
168.29817,174.15416,69,92,41
174.16774,174.81992,61,92,41
174.81992,175.47209,63,82,41
175.47209,176.11067,64,71,41
180.03731,181.99382,61,75,41
176.12427,181.99382,64,60,41
181.99382,182.646,63,75,41
182.646,183.28458,59,65,41
183.29817,183.93675,59,55,41
183.95035,187.86339,59,45,41
187.86339,191.45033,62,45,41
191.77643,193.73294,62,45,41
193.73294,195.0373,61,60,41
195.0373,195.67587,60,70,41
195.68947,197.64598,59,75,41
197.64598,198.95033,57,75,41
198.95033,199.58891,59,60,41
199.60251,202.19762,59,45,41
202.2112,202.67316,56,45,41
202.86337,203.08076,56,45,41
203.51555,207.10251,56,45,41
207.42859,211.01555,57,45,41
211.34163,212.64598,56,45,41
212.64598,214.6025,64,63,41
214.6025,215.24109,59,45,41
215.25467,220.14597,59,45,41
220.9612,221.06989,52,45,41
221.12424,221.45032,53,45,41
221.45032,221.53185,52,52,41
221.53185,221.61336,53,54,41
221.61336,221.69489,52,56,41
221.69489,221.77641,53,58,41
221.77641,221.85454,52,60,41
221.85454,221.93266,53,62,41
221.93266,222.01079,52,64,41
222.01079,222.08891,53,66,41
222.08891,222.16704,52,68,41
222.16704,222.24516,53,70,41
222.24516,222.32329,52,72,41
222.32329,222.40141,53,74,41
222.40141,222.47954,52,76,41
222.47954,222.55766,53,78,41
222.55766,222.63579,52,80,41
222.63579,222.71391,53,82,41
222.71391,222.87016,50,84,41
222.87016,223.01338,52,88,41
223.02641,223.3139,53,92,41
223.3264,223.91391,60,105,41
223.9264,224.5139,60,75,41
224.52641,224.8139,65,75,41
225.1264,225.71391,60,105,41
225.72641,226.3139,60,75,41
226.3264,226.6139,65,75,41
226.9264,227.5139,60,105,41
227.52641,228.1139,60,75,41
228.1264,228.41391,65,75,41
228.4264,228.6139,61,75,41
228.4264,228.6139,65,75,41
228.6264,228.8139,61,75,41
228.6264,228.8139,65,75,41
228.8264,229.0139,61,75,41
228.8264,229.0139,65,75,41
229.02641,229.21391,60,105,41
229.02641,229.21391,65,105,41
229.22641,229.41391,60,105,41
229.22641,229.41391,65,105,41
229.4264,229.6139,60,105,41
229.4264,229.6139,65,105,41
229.6264,229.8139,58,75,41
229.6264,229.8139,65,75,41
229.8264,230.0139,58,75,41
229.8264,230.0139,65,75,41
230.02641,230.21391,58,75,41
230.02641,230.21391,65,75,41
230.22641,230.5139,56,105,41
230.22641,230.5139,65,105,41
230.52641,231.1139,60,75,41
231.1264,231.71391,60,75,41
231.72641,232.0139,65,75,41
232.3264,232.91391,60,105,41
232.9264,233.5139,60,75,41
233.52641,233.8139,65,75,41
234.1264,234.71391,60,105,41
234.72641,235.3139,60,75,41
235.3264,235.6139,65,75,41
235.6264,235.8139,61,75,41
235.6264,235.8139,65,75,41
235.8264,236.0139,61,75,41
235.8264,236.0139,65,75,41
236.02641,236.21391,61,75,41
236.02641,236.21391,65,75,41
236.22641,236.41391,60,105,41
236.22641,236.41391,65,105,41
236.4264,236.6139,60,105,41
236.4264,236.6139,65,105,41
236.6264,236.8139,60,105,41
236.6264,236.8139,65,105,41
236.8264,237.0139,58,75,41
236.8264,237.0139,65,75,41
237.02641,237.21391,58,75,41
237.02641,237.21391,65,75,41
237.22641,237.41391,58,75,41
237.22641,237.41391,65,75,41
237.4264,237.71391,57,105,41
237.4264,237.71391,65,105,41
237.72641,238.3139,63,105,41
238.3264,238.91391,63,75,41
238.9264,239.21391,63,75,41
239.52641,240.1139,63,105,41
240.1264,240.71391,63,75,41
240.72641,241.0139,63,75,41
241.3264,241.91391,63,105,41
241.9264,242.5139,63,75,41
242.52641,242.8139,63,75,41
242.8264,243.0139,63,75,41
243.02641,243.21391,63,75,41
243.22641,243.41391,63,75,41
243.4264,243.6139,61,105,41
243.6264,243.8139,61,105,41
243.8264,244.0139,61,105,41
244.02641,244.21391,60,75,41
244.22641,244.41391,60,75,41
244.4264,244.6139,60,75,41
244.9264,245.5139,61,105,41
245.52641,246.1139,61,74,41
246.1264,246.41391,70,73,41
246.72641,247.3139,61,102,41
247.3264,247.91391,61,72,41
247.9264,248.21391,61,71,41
248.22641,248.41391,67,71,41
248.4264,248.6139,67,71,41
248.6264,248.8139,67,71,41
248.8264,249.0139,68,71,41
249.02641,249.21391,68,71,41
249.22641,249.41391,68,71,41
249.4264,249.6139,70,71,41
249.6264,249.8139,70,71,41
249.8264,250.0139,70,71,41
250.02641,250.3139,68,71,41
250.3264,250.91391,65,70,41
250.9264,251.5139,65,67,41
251.52641,251.8139,65,64,41
252.1264,252.71391,60,84,41
252.72641,253.3139,60,60,41
253.3264,253.6139,65,60,41
253.9264,254.5139,53,84,41
253.9264,254.5139,56,84,41
254.52641,255.1139,53,60,41
254.52641,255.1139,56,60,41
255.1264,255.41391,56,60,41
255.4264,255.6139,55,60,41
255.4264,255.6139,62,60,41
255.6264,255.8139,55,60,41
255.6264,255.8139,62,60,41
255.8264,256.01392,55,60,41
255.8264,256.01392,62,60,41
256.0264,256.2139,55,60,41
256.0264,256.2139,63,60,41
256.2264,256.4139,55,60,41
256.2264,256.4139,63,60,41
256.4264,256.6139,55,60,41
256.4264,256.6139,63,60,41
256.6264,256.8139,55,60,41
256.6264,256.8139,65,60,41
256.82642,257.01392,55,60,41
256.82642,257.01392,65,60,41
257.0264,257.2139,55,61,41
257.0264,257.2139,65,61,41
257.2264,257.51392,55,61,41
257.2264,257.51392,67,61,41
257.5264,258.1139,60,62,41
258.1264,258.7139,60,65,41
258.7264,259.01392,63,68,41
259.0264,259.2139,55,69,41
259.0264,259.2139,62,69,41
259.2264,259.4139,55,70,41
259.2264,259.4139,62,70,41
259.4264,259.6139,55,71,41
259.4264,259.6139,62,71,41
259.6264,259.8139,55,72,41
259.6264,259.8139,63,72,41
259.82642,260.01392,55,73,41
259.82642,260.01392,63,73,41
260.0264,260.2139,55,74,41
260.0264,260.2139,63,74,41
260.2264,260.4139,55,75,41
260.2264,260.4139,65,75,41
260.4264,260.6139,55,76,41
260.4264,260.6139,65,76,41
260.6264,260.8139,55,77,41
260.6264,260.8139,65,77,41
260.82642,261.1139,55,78,41
260.82642,261.1139,63,78,41
261.1264,261.7139,60,79,41
261.7264,262.3139,60,82,41
262.32642,262.6139,60,86,41
262.6264,262.8139,67,88,41
262.82642,263.01392,67,89,41
263.0264,263.2139,67,90,41
263.2264,263.4139,65,92,41
263.4264,263.6139,65,92,41
263.6264,263.8139,65,92,41
263.82642,264.01392,64,92,41
264.0264,264.2139,64,92,41
264.2264,264.4139,64,92,41
264.4264,264.7139,67,92,41
264.7264,265.3139,60,86,41
265.32642,265.9139,60,73,41
265.9264,266.2139,70,59,41
266.5264,267.1139,61,63,41
266.5264,267.1139,65,63,41
267.1264,267.7139,61,45,41
267.1264,267.7139,65,45,41
267.7264,268.01392,68,45,41
268.32642,268.9139,61,63,41
268.32642,268.9139,65,63,41
268.9264,269.51392,61,45,41
268.9264,269.51392,65,45,41
269.5264,269.8139,68,45,41
269.82642,270.01392,60,45,41
270.0264,270.2139,60,45,41
270.2264,270.4139,60,45,41
270.4264,270.6139,62,45,41
270.6264,270.8139,62,45,41
270.82642,271.01392,62,45,41
271.0264,271.2139,63,45,41
271.2264,271.4139,63,45,41
271.4264,271.6139,63,45,41
271.9264,272.1264,63,45,41
272.2264,272.5264,62,63,41
272.5264,272.8139,63,45,41
272.82642,273.1264,63,63,41
273.1264,273.4139,65,45,41
273.4264,273.7139,63,105,41
273.7264,274.3139,63,75,41
274.32642,274.9139,63,75,41
274.9264,275.2139,70,75,41
275.5264,276.1139,63,60,41
276.1264,276.7139,63,60,41
276.7264,277.01392,70,60,41
277.0264,277.2139,62,60,41
277.2264,277.4139,62,61,41
277.4264,277.6139,62,62,41
277.6264,277.8139,64,63,41
277.82642,278.01392,64,64,41
278.0264,278.2139,64,66,41
278.2264,278.4139,65,68,41
278.4264,278.6139,65,70,41
278.6264,278.8139,65,72,41
279.1264,279.32642,65,77,41
279.4264,279.7264,64,112,41
279.7264,280.01392,65,83,41
280.0264,280.32642,65,120,41
280.32642,280.6139,67,89,41
280.6264,280.9139,65,92,41
280.9264,281.51392,65,92,41
280.9264,281.51392,69,92,41
281.5264,282.1139,65,86,41
281.5264,282.1139,69,86,41
282.1264,282.4139,72,80,41
282.7264,283.3139,65,74,41
282.7264,283.3139,69,74,41
283.32642,283.9139,65,67,41
283.32642,283.9139,69,67,41
283.9264,284.2139,72,60,41
284.2264,284.4139,65,60,41
284.4264,284.6139,65,61,41
284.6264,284.8139,65,62,41
284.82642,285.01392,67,63,41
285.0264,285.2139,67,64,41
285.2264,285.4139,67,66,41
285.4264,285.6139,68,68,41
285.6264,285.8139,68,70,41
285.82642,286.01392,68,72,41
286.32642,286.5264,68,77,41
286.6264,286.9264,67,112,41
286.9264,287.2139,68,83,41
287.2264,287.5264,70,120,41
287.5264,287.8139,68,89,41
287.82642,288.1139,67,92,41
288.1264,288.7139,60,92,41
288.7264,289.3139,60,92,41
289.32642,289.6139,67,92,41
289.9264,290.51392,60,92,41
290.5264,291.1139,60,89,41
291.1264,291.4139,67,86,41
291.7264,292.3139,60,84,41
292.32642,292.9139,60,80,41
292.9264,293.2139,67,76,41
293.2264,293.4139,60,74,41
293.4264,293.6139,60,73,41
293.6264,293.8139,60,72,41
293.82642,294.01392,61,71,41
294.0264,294.2139,61,70,41
294.2264,294.4139,61,69,41
294.4264,294.6139,60,68,41
294.6264,294.8139,60,67,41
294.82642,295.01392,60,65,41
295.32642,295.9139,65,60,41
295.9264,296.51392,65,60,41
296.5264,296.8139,65,60,41
297.1264,297.7139,65,60,41
297.7264,298.3139,65,55,41
298.32642,298.6139,65,50,41
298.9264,299.51392,65,45,41
299.5264,300.1139,65,45,41
300.1264,300.4139,65,45,41
300.4264,300.6139,60,45,41
300.4264,300.6139,65,45,41
300.6264,300.8139,60,46,41
300.6264,300.8139,65,46,41
300.82642,301.01392,60,47,41
300.82642,301.01392,65,47,41
301.0264,301.2139,60,48,41
301.0264,301.2139,67,48,41
301.2264,301.4139,60,50,41
301.2264,301.4139,67,50,41
301.4264,301.6139,60,52,41
301.4264,301.6139,67,52,41
301.6264,301.8139,60,54,41
301.6264,301.8139,68,54,41
301.82642,302.01392,60,56,41
301.82642,302.01392,68,56,41
302.0264,302.2139,60,58,41
302.0264,302.2139,68,58,41
302.2264,302.51392,61,84,41
302.2264,302.51392,68,84,41
302.5264,303.1139,61,60,41
302.5264,303.1139,65,60,41
303.1264,303.7139,61,60,41
303.1264,303.7139,65,60,41
303.7264,304.01392,68,57,41
304.32642,304.9139,61,53,41
304.32642,304.9139,65,53,41
304.9264,305.51392,61,49,41
304.9264,305.51392,65,49,41
305.5264,305.8139,68,45,41
306.1264,306.7139,61,45,41
306.7264,307.3139,61,45,41
307.32642,307.6139,61,45,41
307.32642,307.6139,65,45,41
307.9264,308.51392,61,45,41
308.5264,309.1139,61,45,41
309.1264,309.4139,61,45,41
309.1264,309.4139,65,45,41
309.7264,310.3139,60,63,41
310.32642,310.9139,60,45,41
310.9264,311.2139,60,45,41
310.9264,311.2139,63,45,41
311.5264,312.1139,60,63,41
312.1264,312.7139,60,45,41
312.7264,313.01392,60,45,41
312.7264,313.01392,63,45,41
313.32642,313.9139,59,63,41
313.9264,314.51392,59,52,41
314.5264,314.8139,65,60,41
315.1264,315.7139,59,68,41
315.7264,316.3139,59,76,41
316.32642,316.6139,62,84,41
316.9264,317.51392,63,92,41
317.5264,318.1139,63,92,41
318.1264,318.4139,63,92,41
318.7264,319.3139,60,92,41
319.32642,319.9139,60,92,41
319.9264,320.2139,67,92,41
320.5264,321.1139,60,92,41
321.1264,321.7139,60,85,41
321.7264,322.01392,67,77,41
322.0264,322.2139,60,73,41
322.2264,322.4139,60,71,41
322.4264,322.6139,60,69,41
322.6264,322.8139,61,67,41
322.82642,323.01392,61,65,41
323.0264,323.2139,61,62,41
323.2264,323.4139,60,59,41
323.4264,323.6139,60,56,41
323.6264,323.8139,60,53,41
324.1264,324.7139,65,45,41
324.7264,325.3139,65,45,41
325.32642,325.6139,65,45,41
325.9264,326.51392,65,45,41
326.5264,327.1139,65,45,41
327.1264,327.4139,65,45,41
327.7264,328.3139,65,45,41
328.32642,328.9139,65,50,41
328.9264,329.2139,65,55,41
329.2264,329.4139,60,57,41
329.2264,329.4139,65,57,41
329.4264,329.6139,60,59,41
329.4264,329.6139,65,59,41
329.6264,329.8139,60,61,41
329.6264,329.8139,65,61,41
329.82642,330.01392,60,63,41
329.82642,330.01392,67,63,41
330.0264,330.2139,60,65,41
330.0264,330.2139,67,65,41
330.2264,330.4139,60,67,41
330.2264,330.4139,67,67,41
330.4264,330.6139,60,69,41
330.4264,330.6139,68,69,41
330.6264,330.8139,60,71,41
330.6264,330.8139,68,71,41
330.82642,331.01392,60,73,41
330.82642,331.01392,68,73,41
331.0264,331.3139,61,105,41
331.0264,331.3139,68,105,41
331.32642,331.9139,61,75,41
331.32642,331.9139,65,75,41
331.9264,332.51392,61,75,41
331.9264,332.51392,65,75,41
332.5264,332.8139,68,75,41
333.1264,333.7139,61,75,41
333.1264,333.7139,65,75,41
333.7264,334.3139,61,72,41
333.7264,334.3139,65,72,41
334.32642,334.6139,68,69,41
334.9264,335.51392,61,67,41
335.5264,336.1139,61,64,41
336.1264,336.4139,61,61,41
336.1264,336.4139,65,61,41
336.7264,337.3139,61,57,41
337.32642,337.9139,61,53,41
337.9264,338.2139,61,49,41
337.9264,338.2139,65,49,41
338.5264,339.1139,60,45,41
339.1264,339.7139,60,45,41
339.7264,340.01392,60,45,41
339.7264,340.01392,63,45,41
340.32642,340.9139,60,45,41
340.9264,341.51392,60,45,41
341.5264,341.8139,60,45,41
341.5264,341.8139,63,45,41
342.1264,342.7139,59,45,41
342.7264,343.3139,59,45,41
343.32642,343.6139,65,45,41
343.9264,344.51392,59,45,41
344.5264,345.1139,59,45,41
345.1264,345.4139,65,45,41
345.7264,346.3139,60,45,41
345.7264,346.3139,63,45,41
346.32642,346.9139,60,48,41
346.32642,346.9139,63,48,41
346.9264,347.2139,69,52,41
347.5264,348.1139,60,56,41
347.5264,348.1139,63,56,41
348.1264,348.7139,60,60,41
348.1264,348.7139,63,60,41
348.7264,349.01392,69,64,41
349.32642,349.9139,60,68,41
349.32642,349.9139,63,68,41
349.9264,350.51392,60,72,41
349.9264,350.51392,63,72,41
350.5264,350.8139,69,76,41
350.82642,351.01392,57,109,41
351.0264,351.2139,57,79,41
351.2264,351.4139,57,80,41
351.4264,351.6139,59,113,41
351.6264,351.8139,59,82,41
351.82642,352.01392,59,83,41
352.0264,352.2139,60,117,41
352.2264,352.4139,60,85,41
352.4264,352.6139,60,87,41
352.9264,353.51392,60,92,41
352.9264,353.51392,69,92,41
353.5264,354.1139,60,92,41
353.5264,354.1139,69,92,41
354.1264,354.4139,64,75,41
354.1264,354.4139,69,75,41
354.4264,354.6139,60,60,41
354.4264,354.6139,69,60,41
354.6264,354.8139,60,60,41
354.6264,354.8139,69,60,41
354.82642,355.01392,60,60,41
354.82642,355.01392,69,60,41
355.0264,355.2139,62,64,41
355.0264,355.2139,69,64,41
355.2264,355.4139,62,68,41
355.2264,355.4139,69,68,41
355.4264,355.6139,62,72,41
355.4264,355.6139,69,72,41
355.6264,355.8139,63,77,41
355.6264,355.8139,69,77,41
355.82642,356.01392,63,82,41
355.82642,356.01392,69,82,41
356.0264,356.2139,63,87,41
356.0264,356.2139,69,87,41
356.2264,356.51392,64,92,41
356.2264,356.51392,69,92,41
356.5264,357.1139,64,92,41
357.1264,357.7139,64,87,41
357.7264,358.01392,71,82,41
358.32642,358.9139,64,78,41
358.9264,359.51392,64,72,41
359.5264,359.8139,71,66,41
360.1264,360.7139,61,60,41
360.7264,361.3139,61,60,41
361.32642,361.6139,67,60,41
361.32642,361.6139,70,60,41
361.9264,362.51392,60,60,41
362.5264,363.1139,60,59,41
363.1264,363.4139,67,58,41
363.1264,363.4139,70,58,41
363.7264,364.3139,65,57,41
364.32642,364.9139,65,55,41
364.9264,365.2139,65,53,41
365.5264,366.1139,61,51,41
366.1264,366.7139,61,49,41
366.7264,367.01392,61,47,41
366.7264,367.01392,65,47,41
367.32642,367.9139,60,45,41
367.9264,368.51392,60,45,41
368.5264,368.8139,60,45,41
368.5264,368.8139,63,45,41
369.1264,369.7139,60,45,41
369.7264,370.3139,60,45,41
370.32642,370.6139,60,45,41
370.32642,370.6139,63,45,41
370.9264,371.51392,59,45,41
371.5264,372.1139,59,45,41
372.1264,372.4139,65,45,41
372.7264,373.3139,59,45,41
373.32642,373.9139,59,45,41
373.9264,374.2139,65,45,41
374.5264,375.1139,60,45,41
374.5264,375.1139,63,45,41
375.1264,375.7139,60,48,41
375.1264,375.7139,63,48,41
375.7264,376.01392,69,52,41
376.32642,376.9139,60,56,41
376.32642,376.9139,63,56,41
376.9264,377.51392,60,60,41
376.9264,377.51392,63,60,41
377.5264,377.8139,69,64,41
378.1264,378.7139,60,68,41
378.1264,378.7139,63,68,41
378.7264,379.3139,60,72,41
378.7264,379.3139,63,72,41
379.32642,379.6139,69,76,41
379.6264,379.8139,57,109,41
379.82642,380.01392,57,79,41
380.0264,380.2139,57,80,41
380.2264,380.4139,59,113,41
380.4264,380.6139,59,82,41
380.6264,380.8139,59,83,41
380.82642,381.01392,60,117,41
381.0264,381.2139,60,85,41
381.2264,381.4139,60,87,41
381.7264,382.3139,60,92,41
381.7264,382.3139,69,92,41
382.32642,382.9139,60,92,41
382.32642,382.9139,69,92,41
382.9264,383.2139,64,85,41
382.9264,383.2139,69,85,41
383.2264,383.4139,60,82,41
383.2264,383.4139,69,82,41
383.4264,383.6139,60,80,41
383.4264,383.6139,69,80,41
383.6264,383.8139,60,78,41
383.6264,383.8139,69,78,41
383.82642,384.01392,62,76,41
383.82642,384.01392,69,76,41
384.0264,384.2139,62,74,41
384.0264,384.2139,69,74,41
384.2264,384.4139,62,72,41
384.2264,384.4139,69,72,41
384.4264,384.6139,63,69,41
384.4264,384.6139,69,69,41
384.6264,384.8139,63,66,41
384.6264,384.8139,69,66,41
384.82642,385.01392,63,63,41
384.82642,385.01392,69,63,41
385.0264,385.3139,64,60,41
385.32642,385.9139,64,60,41
385.9264,386.51392,64,60,41
386.5264,386.8139,71,66,41
386.82642,387.01392,59,69,41
386.82642,387.01392,65,69,41
387.0264,387.2139,59,71,41
387.0264,387.2139,65,71,41
387.2264,387.4139,59,73,41
387.2264,387.4139,65,73,41
387.4264,387.6139,61,75,41
387.4264,387.6139,65,75,41
387.6264,387.8139,61,77,41
387.6264,387.8139,65,77,41
387.82642,388.01392,61,79,41
387.82642,388.01392,65,79,41
388.0264,388.2139,62,81,41
388.0264,388.2139,65,81,41
388.2264,388.4139,62,83,41
388.2264,388.4139,65,83,41
388.4264,388.6139,62,85,41
388.4264,388.6139,65,85,41
388.9264,389.51392,62,92,41
388.9264,389.51392,71,92,41
389.5264,390.1139,62,92,41
389.5264,390.1139,71,92,41
390.1264,390.4139,66,90,41
390.1264,390.4139,71,90,41
390.4264,390.6139,62,89,41
390.4264,390.6139,71,89,41
390.6264,390.8139,62,88,41
390.6264,390.8139,71,88,41
390.82642,391.01392,62,87,41
390.82642,391.01392,71,87,41
391.0264,391.2139,64,86,41
391.0264,391.2139,71,86,41
391.2264,391.4139,64,85,41
391.2264,391.4139,71,85,41
391.4264,391.6139,64,84,41
391.4264,391.6139,71,84,41
391.6264,391.8139,65,83,41
391.6264,391.8139,71,83,41
391.82642,392.01392,65,82,41
391.82642,392.01392,71,82,41
392.0264,392.2139,65,81,41
392.0264,392.2139,71,81,41
392.2264,392.51392,66,80,41
392.2264,392.51392,71,80,41
392.5264,393.1139,71,79,41
393.1264,393.7139,71,76,41
393.7264,394.01392,71,73,41
394.32642,394.9139,70,71,41
394.9264,395.51392,70,68,41
395.5264,395.8139,70,64,41
396.1264,396.7139,66,60,41
396.7264,397.3139,66,60,41
397.32642,397.6139,72,60,41
397.9264,398.51392,66,60,41
398.5264,399.1139,66,60,41
399.1264,399.4139,72,60,41
399.7264,400.3139,64,60,41
400.32642,400.9139,64,60,41
400.9264,401.2139,71,60,41
401.5264,402.1139,64,60,41
402.1264,402.7139,64,59,41
402.7264,403.01392,71,58,41
403.32642,403.9139,61,58,41
403.9264,404.51392,61,57,41
404.5264,404.8139,67,56,41
404.5264,404.8139,70,56,41
405.1264,405.7139,60,56,41
405.7264,406.3139,60,55,41
406.32642,406.6139,67,54,41
406.32642,406.6139,70,54,41
406.9264,407.51392,65,54,41
407.5264,408.1139,65,53,41
408.1264,408.4139,65,52,41
408.7264,409.3139,61,51,41
409.32642,409.9139,61,49,41
409.9264,410.2139,61,47,41
409.9264,410.2139,65,47,41
410.5264,411.1139,60,45,41
411.1264,411.7139,60,45,41
411.7264,412.01392,60,45,41
411.7264,412.01392,63,45,41
412.32642,412.9139,60,45,41
412.9264,413.51392,60,45,41
413.5264,413.8139,60,45,41
413.5264,413.8139,63,45,41
414.1264,414.7139,61,45,41
414.7264,415.3139,61,47,41
415.32642,415.6139,61,49,41
415.32642,415.6139,65,49,41
415.9264,416.51392,61,51,41
416.5264,417.1139,61,54,41
417.1264,417.4139,61,57,41
417.1264,417.4139,65,57,41
417.7264,418.3139,60,60,41
418.32642,418.9139,60,60,41
418.9264,419.2139,60,60,41
418.9264,419.2139,63,60,41
419.5264,420.1139,60,60,41
420.1264,420.7139,60,60,41
420.7264,421.01392,60,60,41
420.7264,421.01392,63,60,41
421.32642,421.9139,61,60,41
421.9264,422.51392,61,60,41
422.5264,422.8139,61,60,41
422.5264,422.8139,65,60,41
423.1264,423.7139,61,60,41
423.7264,424.3139,61,60,41
424.32642,424.6139,61,60,41
424.32642,424.6139,65,60,41
424.9264,425.51392,60,60,41
425.5264,426.1139,60,59,41
426.1264,426.4139,60,58,41
426.1264,426.4139,63,58,41
426.7264,427.3139,60,58,41
427.32642,427.9139,60,57,41
427.9264,428.2139,60,56,41
427.9264,428.2139,63,56,41
428.5264,429.1139,59,56,41
429.1264,429.7139,59,54,41
429.7264,430.01392,65,52,41
430.32642,430.9139,59,50,41
430.9264,431.51392,59,48,41
431.5264,431.8139,65,46,41
431.82642,432.82642,56,45,41
435.2764,435.4139,56,45,41
435.4264,436.4264,56,45,41
438.8764,439.01392,56,60,41
439.0264,440.0264,54,60,41
442.4764,442.6139,66,60,41
442.6264,443.6264,66,60,41
446.2264,447.2264,54,45,41
449.6764,449.8139,54,45,41
449.82642,450.82642,54,45,41
453.2764,453.4139,54,45,41
453.4264,454.46808,52,45,41
457.09488,457.24435,64,45,41
457.25793,458.3943,64,45,41
460.73196,461.44623,54,45,41
461.44623,462.12805,54,63,41
462.12805,462.79565,52,45,41
465.53714,474.32285,52,45,41
474.32285,478.66495,54,45,41
479.0597,479.69827,52,45,41
479.71188,485.58142,64,45,41
485.58142,486.2336,63,60,41
486.2336,486.8722,59,60,41
486.88577,494.0597,63,45,41
494.0597,494.69827,65,60,41
494.71185,498.6249,66,45,41
498.6249,502.21185,66,45,41
502.53793,505.14664,66,45,41
505.14664,505.79883,65,60,41
505.79883,506.4374,63,60,41
506.451,509.69827,65,45,41
509.71185,510.35043,68,60,41
510.364,516.8722,66,45,41
516.88574,517.3477,66,60,41
517.53796,517.7553,68,60,41
518.1901,520.4727,70,60,41
520.7988,521.26074,68,70,41
521.451,521.6684,66,72,41
522.10315,525.6901,70,74,41
526.0162,528.6249,71,92,41
528.6249,532.52435,71,75,41
532.5379,533.1901,65,105,41
533.1901,533.8287,66,75,41
537.7553,539.49445,63,60,41
533.8423,539.49445,66,60,41
539.71185,540.364,65,74,41
540.364,541.0162,66,71,41
541.0162,541.6548,68,67,41
541.66833,548.1765,66,45,41
548.19006,548.65204,66,63,41
548.8423,549.05963,68,63,41
549.49445,551.77704,70,45,41
552.10315,552.56506,68,60,41
552.7553,552.9727,66,64,41
553.4075,556.6548,70,68,41
556.66833,557.30695,70,88,41
557.3205,559.9292,71,92,41
559.9292,563.19006,71,75,41
563.19006,563.8422,66,75,41
563.8422,564.49445,68,70,41
564.49445,565.133,69,91,41
569.05963,570.79877,66,60,41
565.1466,570.79877,69,60,41
571.0162,571.66833,68,53,41
571.66833,572.3205,69,71,41
572.3205,572.9591,71,67,41
572.97266,578.8287,69,45,41
578.8422,579.49445,61,75,41
579.49445,580.1466,63,75,41
580.1466,580.78516,64,68,41
580.79877,584.7118,64,60,41
584.7118,586.52997,61,60,41
584.7118,586.52997,64,60,41
586.75726,587.4391,63,60,41
587.4391,588.1534,64,55,41
588.1534,588.88776,66,50,41
588.9034,595.4115,64,45,41
595.4251,596.0773,63,60,41
596.0773,596.7159,59,60,41
596.72943,603.2376,62,45,41
603.25116,603.9034,62,60,41
603.9034,604.54193,65,60,41
604.55554,611.06366,66,45,41
611.0773,611.72943,64,60,41
611.72943,612.36804,62,60,41
612.3816,618.8898,66,45,41
618.9033,619.55554,64,45,41
619.55554,620.1941,62,45,41
620.2077,627.1642,67,45,41
627.3816,628.0202,67,58,41
628.03375,631.94684,69,59,41
631.94684,635.53375,69,67,41
635.85986,642.3816,68,75,41
642.3816,643.03375,66,88,41
643.03375,643.67236,64,90,41
643.6859,649.54193,69,92,41
649.5555,650.2077,61,75,41
650.2077,650.85986,63,75,41
650.85986,651.4984,64,73,41
655.42505,657.1642,61,58,41
651.512,657.1642,64,71,41
657.3816,658.03375,63,52,41
658.03375,658.6859,64,50,41
658.6859,659.3245,59,48,41
659.3381,663.25116,59,45,41
663.25116,666.8988,62,45,41
667.2559,669.21246,62,45,41
669.21246,670.5168,61,60,41
670.5168,671.1554,60,70,41
671.169,673.15515,59,75,41
673.15515,674.5513,57,75,41
674.5513,675.28564,59,60,41
675.3013,677.58386,59,45,41
677.91,678.3719,56,45,41
678.56213,678.7795,56,45,41
679.2143,683.1273,56,45,41
683.1273,686.7143,57,45,41
687.04034,688.3447,56,75,41
688.3447,690.393,64,75,41
690.393,691.1274,59,60,41
691.143,694.893,59,45,41
695.2339,697.27936,60,60,41
697.27936,699.09753,60,75,41
699.3248,701.46765,56,92,41
701.46765,703.61053,56,75,41
703.61053,707.5391,55,60,41
707.89624,710.89624,56,45,41
710.89624,711.64624,57,45,41
711.64624,712.3806,59,45,41
712.39624,713.64624,56,45,41
714.64624,715.93384,57,45,41
717.34894,721.84894,56,45,41
721.84894,725.97394,56,30,41
3.6,10.773909,59,45,42
10.773909,11.412495,56,60,42
11.426082,19.034773,59,45,42
19.252165,22.947813,61,45,42
23.165205,24.469551,62,45,42
24.469551,26.860855,61,45,42
27.078245,34.89074,61,45,42
34.904327,41.412476,61,45,42
41.426064,41.88802,61,64,42
42.078236,42.295628,61,66,42
42.73041,45.325516,61,68,42
45.339104,45.80106,61,76,42
45.991276,46.208668,61,78,42
46.64345,49.90432,61,80,42
49.90432,50.542904,64,90,42
50.55649,53.81736,63,92,42
53.81736,54.455948,66,92,42
54.469532,55.77388,66,88,42
55.77388,56.426052,63,79,42
56.426052,57.7304,59,75,42
57.7304,58.368988,61,65,42
58.382572,62.078224,61,60,42
62.295616,64.034744,60,60,42
64.25214,64.90431,59,53,42
64.90431,65.55648,58,51,42
65.55648,66.19507,53,48,42
66.20866,68.16518,54,45,42
68.16518,72.716805,61,45,42
72.73039,73.192345,61,45,42
73.38256,73.59995,61,45,42
74.03474,76.629845,61,45,42
76.64343,77.105385,61,60,42
77.29561,77.51299,61,64,42
77.94778,80.542885,61,68,42
80.55647,81.20865,61,84,42
81.20865,81.84724,66,88,42
81.86082,87.51299,66,92,42
87.730385,89.03473,62,75,42
89.03473,89.67332,64,75,42
89.686905,93.599945,64,60,42
93.599945,95.33907,63,60,42
95.556465,96.20863,62,60,42
96.20863,96.86081,61,55,42
96.86081,97.4994,56,50,42
97.512985,103.36896,57,45,42
103.382545,104.68689,57,60,42
104.68689,105.32548,59,60,42
105.339066,109.252106,59,60,42
109.252106,111.07029,58,60,42
111.29756,112.01185,57,60,42
112.01185,112.726135,56,60,42
112.726135,113.49916,51,60,42
113.5156,114.60256,52,45,42
114.819954,119.16778,59,45,42
119.38517,120.689514,59,45,42
120.689514,121.3281,56,45,42
121.34169,127.84984,59,45,42
127.86343,128.32538,59,45,42
128.5156,128.73299,59,45,42
129.16777,136.12428,57,45,42
136.34167,136.98027,57,45,42
136.99385,144.80635,60,45,42
144.81993,148.73297,59,45,42
148.73297,151.34167,59,52,42
151.34167,151.99384,62,57,42
151.99384,152.63243,64,58,42
152.64601,156.55905,63,59,42
156.55905,159.60254,63,67,42
159.81993,160.45851,63,73,42
160.47209,164.38513,62,74,42
164.38513,167.42862,62,83,42
167.64601,168.28459,62,90,42
168.29817,171.55905,61,92,42
171.55905,172.21123,64,92,42
172.21123,173.95035,69,92,42
174.16774,175.47209,57,92,42
175.47209,176.11067,59,71,42
176.12427,180.03731,59,60,42
180.03731,181.99382,58,75,42
181.99382,182.646,57,75,42
182.646,183.29817,56,65,42
183.29817,183.93675,57,55,42
183.95035,191.77643,56,45,42
191.77643,195.47208,57,45,42
195.68947,197.64598,56,75,42
197.64598,198.95033,54,60,42
198.95033,199.58891,57,60,42
199.60251,202.19762,56,45,42
202.2112,202.67316,64,45,42
202.86337,203.08076,64,45,42
203.51555,210.68945,64,45,42
210.68945,211.32805,66,45,42
211.34163,212.64598,59,45,42
212.64598,214.6025,68,63,42
214.6025,215.24109,66,45,42
215.25467,220.25467,64,45,42
220.9612,221.06989,40,45,42
221.12424,221.45032,41,45,42
221.45032,221.53185,40,45,42
221.53185,221.61336,41,45,42
221.61336,221.69489,40,45,42
221.69489,221.77641,41,45,42
221.77641,221.85454,40,45,42
221.85454,221.93266,41,45,42
221.93266,222.01079,40,45,42
222.01079,222.08891,41,45,42
222.08891,222.16704,40,45,42
222.16704,222.24516,41,45,42
222.24516,222.32329,40,45,42
222.32329,222.40141,41,45,42
222.40141,222.47954,40,45,42
222.47954,222.55766,41,45,42
222.55766,222.63579,40,45,42
222.63579,222.71391,41,45,42
222.71391,222.87016,38,45,42
222.87016,223.01338,40,45,42
223.02641,224.02641,41,92,42
229.9264,230.21391,60,75,42
230.22641,233.66391,68,105,42
233.6764,233.77641,67,75,42
233.8264,234.4264,67,75,42
234.4264,236.5139,65,75,42
236.52641,236.72641,67,75,42
236.8264,237.02641,68,75,42
237.1264,237.3264,70,75,42
237.4264,240.8639,72,105,42
240.8764,240.97641,70,73,42
241.02641,241.6264,70,73,42
241.6264,243.71391,69,73,42
243.72641,243.9264,69,71,42
244.02641,244.22641,70,71,42
244.3264,244.52641,72,71,42
244.6264,245.22641,70,71,42
245.22641,246.2639,73,99,42
246.27641,246.3764,65,70,42
246.4264,247.02641,66,70,42
247.02641,248.0639,70,69,42
248.0764,248.1764,65,68,42
248.22641,248.8264,64,68,42
248.8264,250.6139,72,93,42
250.6264,250.9264,70,64,42
250.9264,251.0639,68,63,42
251.22641,251.52641,67,63,42
251.52641,251.66391,65,62,42
251.8264,252.4264,65,60,42
252.4264,253.46391,68,84,42
253.47641,253.5764,60,60,42
253.6264,254.22641,61,60,42
254.22641,255.2639,65,60,42
255.27641,255.3764,60,60,42
255.4264,256.0264,59,60,42
256.0264,257.8139,67,86,42
257.82642,258.1264,65,69,42
258.1264,258.26392,63,70,42
258.4264,258.7264,62,70,42
258.7264,258.8639,60,71,42
259.0264,259.6139,62,71,42
259.6264,261.4139,67,74,42
261.4264,261.7264,65,83,42
261.7264,261.8639,63,84,42
262.0264,262.32642,62,84,42
262.32642,262.4639,60,86,42
262.6264,263.2264,72,88,42
263.2264,265.01392,73,92,42
265.0264,265.32642,72,75,42
265.32642,265.4639,70,75,42
265.6264,265.9264,68,60,42
265.9264,266.0639,67,60,42
266.2264,269.5264,68,45,42
269.82642,269.9264,69,45,42
269.9264,270.0264,70,45,42
270.0264,270.1264,69,45,42
270.1264,270.2264,70,45,42
270.2264,270.32642,69,45,42
270.32642,270.4264,70,45,42
270.4264,270.5264,69,45,42
270.5264,270.6264,70,45,42
270.6264,270.7264,69,45,42
270.7264,270.82642,70,45,42
270.82642,270.9264,69,45,42
270.9264,271.0264,70,45,42
271.0264,271.1264,69,45,42
271.1264,271.2264,70,45,42
271.2264,271.32642,69,45,42
271.32642,271.4264,70,45,42
271.4264,271.5264,69,45,42
271.5264,271.6264,70,45,42
271.6264,271.7264,69,45,42
271.7264,271.82642,70,45,42
271.82642,271.9264,69,45,42
271.9264,272.0264,70,45,42
272.0264,272.1264,69,45,42
272.1264,272.2264,70,45,42
272.2264,272.32642,69,45,42
272.32642,272.4264,70,45,42
272.4264,272.5264,69,45,42
272.5264,272.6264,70,45,42
272.6264,272.7264,69,45,42
272.7264,272.82642,70,45,42
272.82642,272.9264,69,45,42
272.9264,273.0264,70,45,42
273.0264,273.1264,69,45,42
273.1264,273.2264,70,45,42
273.2264,273.32642,67,45,42
273.32642,273.4139,69,45,42
273.4264,275.82642,70,75,42
275.82642,276.82642,70,60,42
277.0264,277.1264,71,60,42
277.1264,277.2264,72,60,42
277.2264,277.32642,71,60,42
277.32642,277.4264,72,60,42
277.4264,277.5264,71,60,42
277.5264,277.6264,72,61,42
277.6264,277.7264,71,61,42
277.7264,277.82642,72,62,42
277.82642,277.9264,71,63,42
277.9264,278.0264,72,64,42
278.0264,278.1264,71,65,42
278.1264,278.2264,72,66,42
278.2264,278.32642,71,67,42
278.32642,278.4264,72,68,42
278.4264,278.5264,71,69,42
278.5264,278.6264,72,70,42
278.6264,278.7264,71,71,42
278.7264,278.82642,72,72,42
278.82642,278.9264,71,73,42
278.9264,279.0264,72,74,42
279.0264,279.1264,71,75,42
279.1264,279.2264,72,76,42
279.2264,279.32642,71,77,42
279.32642,279.4264,72,78,42
279.4264,279.5264,71,79,42
279.5264,279.6264,72,80,42
279.6264,279.7264,71,81,42
279.7264,279.82642,72,82,42
279.82642,279.9264,71,83,42
279.9264,280.0264,72,84,42
280.0264,280.1264,71,85,42
280.1264,280.2264,72,86,42
280.2264,280.32642,71,87,42
280.32642,280.4264,72,88,42
280.4264,280.5264,69,89,42
280.5264,280.6139,71,90,42
280.6264,283.0264,72,92,42
283.0264,284.0264,72,60,42
284.2264,284.32642,74,60,42
284.32642,284.4264,75,60,42
284.4264,284.5264,74,60,42
284.5264,284.6264,75,60,42
284.6264,284.7264,74,60,42
284.7264,284.82642,75,61,42
284.82642,284.9264,74,61,42
284.9264,285.0264,75,62,42
285.0264,285.1264,74,63,42
285.1264,285.2264,75,64,42
285.2264,285.32642,74,65,42
285.32642,285.4264,75,66,42
285.4264,285.5264,74,67,42
285.5264,285.6264,75,68,42
285.6264,285.7264,74,69,42
285.7264,285.82642,75,70,42
285.82642,285.9264,74,71,42
285.9264,286.0264,75,72,42
286.0264,286.1264,74,73,42
286.1264,286.2264,75,74,42
286.2264,286.32642,74,75,42
286.32642,286.4264,75,76,42
286.4264,286.5264,74,77,42
286.5264,286.6264,75,78,42
286.6264,286.7264,74,79,42
286.7264,286.82642,75,80,42
286.82642,286.9264,74,81,42
286.9264,287.0264,75,82,42
287.0264,287.1264,74,83,42
287.1264,287.2264,75,84,42
287.2264,287.32642,74,85,42
287.32642,287.4264,75,86,42
287.4264,287.5264,74,87,42
287.5264,287.6264,75,88,42
287.6264,287.7264,72,89,42
287.7264,287.8139,74,90,42
287.82642,289.9264,75,92,42
290.2264,290.82642,74,92,42
290.82642,291.4264,72,88,42
291.4264,292.0264,71,84,42
292.0264,292.6264,72,80,42
292.6264,293.2264,71,76,42
293.2264,293.82642,72,72,42
293.82642,294.4264,73,95,42
294.4264,295.01392,72,64,42
295.0264,296.82642,67,60,42
296.82642,297.4139,68,45,42
302.2264,304.32642,68,60,42
304.6264,305.2264,67,60,42
305.2264,305.82642,65,57,42
305.82642,306.4264,63,54,42
306.4264,307.0264,61,51,42
307.0264,307.6264,60,48,42
307.6264,308.2264,61,45,42
308.2264,308.82642,65,45,42
308.82642,309.4139,61,45,42
309.4264,312.7264,60,45,42
312.7264,313.01392,63,45,42
313.0264,315.4264,63,45,42
315.4264,316.0264,62,71,42
316.0264,316.6139,68,78,42
316.6264,317.2264,67,85,42
317.2264,319.0264,75,92,42
319.0264,319.6264,74,92,42
319.6264,320.2139,72,92,42
320.2264,320.82642,71,92,42
320.82642,321.4264,72,85,42
321.4264,322.0264,71,77,42
322.0264,322.6264,72,69,42
322.6264,323.2264,73,61,42
323.2264,323.8139,72,53,42
323.82642,325.3139,67,45,42
325.32642,325.6139,70,45,42
325.6264,326.2139,68,45,42
331.0264,333.1264,68,75,42
333.4264,334.0264,67,75,42
334.0264,334.6264,65,72,42
334.6264,335.2264,63,69,42
335.2264,335.82642,61,65,42
335.82642,336.4264,60,61,42
336.4264,337.0264,61,57,42
337.0264,337.6264,65,53,42
337.6264,338.2139,61,49,42
338.2264,341.5264,60,45,42
341.5264,341.8139,63,45,42
341.82642,344.2264,63,45,42
344.2264,344.82642,62,45,42
344.82642,345.4139,67,45,42
345.4264,346.4264,69,63,42
346.6264,347.8139,69,72,42
347.82642,348.82642,69,84,42
349.0264,350.0264,69,95,42
350.2264,351.4139,69,106,42
351.4264,351.6264,69,84,42
352.0264,352.2264,69,88,42
352.6264,356.2264,72,92,42
356.2264,359.82642,71,75,42
359.82642,361.9264,70,60,42
362.2264,362.82642,72,60,42
362.82642,363.4264,67,59,42
363.4264,364.0264,70,57,42
364.0264,364.6264,68,55,42
364.6264,365.2264,67,53,42
365.2264,365.82642,65,51,42
365.82642,366.4264,68,49,42
366.4264,367.01392,61,47,42
367.0264,370.32642,60,45,42
370.32642,370.6139,63,45,42
370.6264,373.0264,63,45,42
373.0264,373.6264,62,45,42
373.6264,374.2139,67,45,42
374.2264,375.2264,69,63,42
375.4264,376.6139,69,72,42
376.6264,377.6264,69,84,42
377.82642,378.82642,69,95,42
379.0264,380.2139,69,106,42
380.2264,380.4264,69,84,42
380.82642,381.0264,69,88,42
381.4264,383.82642,72,92,42
383.82642,385.0264,72,75,42
385.0264,385.6139,71,60,42
385.6264,386.6264,71,60,42
386.82642,387.82642,71,72,42
388.0264,388.6139,71,85,42
388.6264,392.2264,74,92,42
392.2264,395.5264,73,75,42
395.82642,399.4264,72,60,42
399.4264,403.0264,71,60,42
403.0264,405.1264,70,60,42
405.4264,406.0264,72,60,42
406.0264,406.6264,67,60,42
406.6264,407.2264,70,60,42
407.2264,407.82642,68,60,42
407.82642,408.4264,67,60,42
408.4264,409.0264,65,60,42
409.0264,409.6264,68,60,42
409.6264,410.2139,61,60,42
410.2264,413.2139,60,45,42
413.2264,414.4264,51,45,42
414.4264,415.0264,53,49,42
415.0264,415.6264,55,51,42
415.6264,416.2264,53,53,42
416.2264,416.82642,56,55,42
416.82642,417.4139,49,57,42
417.4264,420.4139,48,60,42
420.4264,421.6264,51,60,42
421.6264,422.2264,53,60,42
422.2264,422.82642,55,60,42
422.82642,423.4264,53,60,42
423.4264,424.0264,56,60,42
424.0264,424.6139,49,60,42
424.6264,427.6264,48,60,42
427.6264,428.2139,51,54,42
428.2264,431.2264,51,53,42
431.2264,431.8139,50,47,42
431.82642,432.82642,50,45,42
435.2764,435.4139,50,45,42
435.4264,436.4264,50,45,42
438.8764,439.01392,50,60,42
439.0264,439.6264,50,60,42
439.6264,440.2139,49,60,42
446.2264,447.2264,48,45,42
449.6764,449.8139,48,45,42
449.82642,450.82642,48,45,42
453.2764,453.4139,48,45,42
453.4264,454.0514,48,45,42
454.0514,454.6634,47,45,42
460.73196,461.44623,51,45,42
461.44623,462.12805,48,63,42
462.12805,462.79565,49,45,42
465.53714,469.82285,49,45,42
469.82285,476.69128,52,45,42
476.69128,478.79654,51,45,42
479.0597,479.69827,52,45,42
479.71188,486.2336,59,45,42
486.2336,486.8722,56,60,42
486.88577,493.8423,59,45,42
494.0597,494.69827,59,60,42
494.71185,498.6249,61,45,42
498.6249,499.92926,62,60,42
499.92926,502.32056,61,60,42
502.53793,510.03793,61,45,42
510.364,516.8722,61,45,42
516.88574,517.3477,61,60,42
517.53796,517.7553,61,60,42
518.1901,520.4727,61,60,42
520.7988,521.26074,61,70,42
521.451,521.6684,61,72,42
522.10315,525.364,61,74,42
525.364,526.0026,64,89,42
526.0162,529.27704,63,92,42
529.27704,529.91565,66,75,42
529.92926,531.2336,66,75,42
531.2336,531.88574,63,70,42
531.88574,533.1901,59,68,42
533.1901,533.8287,61,88,42
533.8423,537.4292,61,60,42
537.7553,539.49445,60,60,42
539.71185,540.364,59,74,42
540.364,541.0162,58,71,42
541.0162,541.6548,53,67,42
541.66833,543.4075,54,45,42
543.6249,548.1765,61,45,42
548.19006,548.65204,61,63,42
548.8423,549.05963,61,63,42
549.49445,551.77704,61,45,42
552.10315,552.56506,61,60,42
552.7553,552.9727,61,64,42
553.4075,556.66833,61,68,42
556.66833,557.30695,66,88,42
557.3205,559.9292,66,92,42
559.9292,563.1765,66,75,42
563.19006,564.49445,62,75,42
564.49445,565.133,64,91,42
565.1466,569.05963,64,60,42
569.05963,570.79877,63,84,42
571.0162,571.66833,62,53,42
571.66833,572.3205,61,51,42
572.3205,572.9591,56,67,42
572.97266,578.6249,57,45,42
578.8422,580.1466,57,75,42
580.1466,580.78516,59,75,42
580.79877,584.7118,59,60,42
584.7118,586.52997,58,60,42
586.75726,587.4391,57,60,42
587.4391,588.1534,56,55,42
588.1534,588.88776,51,50,42
588.9034,590.2077,52,45,42
590.2077,596.06366,59,45,42
596.0773,596.7159,56,63,42
596.72943,603.2376,59,45,42
603.25116,603.71313,59,45,42
603.9034,604.1207,59,45,42
604.55554,611.512,57,45,42
611.72943,612.36804,57,60,42
612.3816,619.33813,60,45,42
619.55554,620.1941,60,45,42
620.2077,626.06366,59,45,42
626.0773,626.72943,59,78,42
626.72943,627.3816,62,79,42
627.3816,628.0202,64,81,42
628.03375,634.9903,63,59,42
635.2077,635.84625,63,73,42
635.85986,639.7729,62,74,42
639.7729,643.35986,62,83,42
643.6859,646.9468,61,92,42
646.9468,647.5854,64,92,42
647.599,649.5555,69,75,42
649.5555,650.85986,57,75,42
650.85986,651.4984,59,71,42
651.512,655.42505,59,69,42
655.42505,657.3816,58,57,42
657.3816,658.03375,57,51,42
658.03375,658.6859,56,49,42
658.6859,659.3245,57,47,42
659.3381,666.8988,56,45,42
667.2559,670.8429,57,60,42
671.169,673.15515,56,75,42
673.15515,674.5513,54,60,42
674.5513,675.28564,57,60,42
675.3013,677.58386,56,45,42
677.91,678.3719,64,45,42
678.56213,678.7795,64,45,42
679.2143,686.3882,64,45,42
686.3882,687.0268,66,60,42
687.04034,688.3447,59,75,42
688.3447,690.393,68,75,42
690.393,691.1274,66,60,42
691.143,694.893,64,45,42
695.2339,697.27936,64,45,42
697.27936,699.09753,64,75,42
699.3248,701.46765,48,92,42
701.46765,703.61053,48,75,42
703.61053,707.5391,48,60,42
707.89624,712.02124,47,45,42
712.39624,713.64624,47,45,42
714.64624,715.93384,54,45,42
717.34894,721.84894,52,45,42
721.84894,725.97394,52,30,42
3.6,4.686956,52,45,45
6.8608675,7.499454,56,45,45
7.513041,8.599997,52,45,45
10.773909,11.412495,52,60,45
11.426082,12.513038,47,45,45
14.68695,15.325536,51,45,45
15.339123,16.426079,47,45,45
17.947817,18.586403,47,60,45
18.59999,18.91249,45,60,45
18.926077,19.238577,44,60,45
19.252165,20.339119,42,45,45
22.513031,23.151619,45,45,45
23.165205,24.252161,42,45,45
26.426073,27.06466,45,45,45
27.078245,28.165201,49,45,45
30.339113,30.9777,37,45,45
30.991287,32.078243,49,45,45
34.252155,34.89074,49,60,45
34.904327,35.991283,42,45,45
38.165195,38.803783,46,54,45
38.817368,39.904324,42,56,45
42.078236,42.716824,54,66,45
42.73041,43.817368,42,68,45
45.991276,46.629864,54,78,45
46.64345,47.730408,42,80,45
49.90432,50.542904,42,90,45
50.55649,51.643448,47,92,45
53.81736,54.455948,42,92,45
54.469532,55.556488,47,88,45
57.078228,57.716812,44,70,45
57.7304,58.0429,46,65,45
58.056488,58.368988,47,63,45
58.382572,59.46953,49,60,45
61.64344,62.28203,49,60,45
62.295616,63.382572,49,60,45
65.55648,66.19507,49,48,45
66.20866,67.29561,42,45,45
69.46952,70.10811,46,45,45
70.1217,71.20866,42,45,45
73.38256,74.02115,54,45,45
74.03474,75.1217,42,45,45
77.29561,77.93419,54,64,45
77.94778,79.03474,42,68,45
81.20865,81.84724,42,88,45
81.86082,82.94778,47,92,45
85.12169,85.76028,42,92,45
85.773865,86.86082,47,92,45
88.38255,89.02114,47,75,45
89.03473,89.34723,49,75,45
89.36082,89.67332,50,75,45
89.686905,90.77386,52,60,45
92.94777,93.58636,52,60,45
93.599945,94.6869,52,60,45
96.86081,97.4994,52,60,45
97.512985,98.59994,45,45,45
100.77385,101.41244,40,60,45
101.426025,102.51298,45,60,45
104.03472,104.67331,42,75,45
104.68689,104.99939,44,75,45
105.01298,105.32548,45,75,45
105.339066,106.426025,47,75,45
108.59993,109.23852,47,75,45
109.252106,110.38847,47,75,45
112.726135,113.49916,47,75,45
113.5156,114.60256,40,45,45
116.776474,117.41506,44,45,45
117.42865,118.5156,40,45,45
120.689514,121.3281,40,45,45
121.34169,122.42864,47,45,45
124.602554,125.24114,50,45,45
125.25473,126.34168,47,45,45
128.5156,129.15419,50,45,45
129.16777,130.25473,50,45,45
132.42863,133.06723,54,45,45
133.08081,134.16777,50,45,45
136.34167,136.98027,38,45,45
136.99385,138.08081,50,45,45
140.25471,140.89331,57,45,45
140.90689,141.99385,50,45,45
144.16776,144.80635,50,45,45
144.81993,145.90689,43,45,45
148.0808,148.71939,55,50,45
148.73297,149.81993,43,51,45
151.99384,152.63243,43,56,45
152.64601,153.73297,42,57,45
155.90688,156.54547,42,63,45
156.55905,157.64601,41,64,45
159.81993,160.45851,41,71,45
160.47209,161.55905,40,72,45
163.73297,164.37155,40,79,45
164.38513,165.47209,40,80,45
167.64601,168.28459,52,90,45
168.29817,169.38513,45,92,45
171.55905,172.19763,49,92,45
172.21123,173.29817,45,92,45
174.81992,175.4585,42,92,45
175.47209,175.78459,44,76,45
175.79817,176.11067,45,68,45
176.12427,177.21121,47,60,45
179.38513,180.02371,47,75,45
180.03731,181.12425,47,75,45
183.29817,183.93675,47,50,45
183.95035,185.0373,40,45,45
187.21121,187.8498,52,45,45
187.86339,188.95035,52,45,45
191.12425,191.76283,52,45,45
191.77643,192.86339,45,45,45
195.0373,195.67587,45,60,45
195.68947,196.77643,47,75,45
198.95033,199.58891,47,60,45
199.60251,200.68947,40,45,45
202.86337,203.50197,52,45,45
203.51555,204.60251,52,45,45
206.77641,207.41501,40,45,45
207.42859,208.51555,45,45,45
210.68945,211.32805,45,45,45
211.34163,212.42859,47,45,45
214.6025,215.24109,47,45,45
215.25467,216.34163,40,45,45
218.51553,219.15413,40,45,45
219.16771,220.25467,40,45,45
540.364,541.0026,49,84,45
571.66833,572.30695,52,84,45
587.4391,588.1385,47,52,45
588.9034,589.9903,40,45,45
592.16425,592.8028,44,45,45
592.8164,593.9034,40,45,45
596.0773,596.7159,40,60,45
596.72943,597.8164,47,45,45
599.9903,600.6289,50,45,45
600.6425,601.72943,47,45,45
603.9034,604.54193,50,60,45
604.55554,605.64246,50,45,45
607.8164,608.45496,54,45,45
608.46857,609.55554,50,45,45
611.72943,612.36804,38,60,45
612.3816,613.46857,50,45,45
615.64246,616.28107,57,45,45
616.2947,617.3816,50,45,45
619.55554,620.1941,50,45,45
620.2077,621.2947,43,45,45
623.46857,624.1071,55,50,45
624.1207,625.2077,43,51,45
627.3816,628.0202,43,56,45
628.03375,629.1207,42,57,45
631.2946,631.9332,42,63,45
631.94684,633.03375,41,64,45
635.2077,635.84625,41,71,45
635.85986,636.94684,40,72,45
639.1207,639.75934,40,79,45
639.7729,640.85986,40,80,45
643.03375,643.67236,52,90,45
643.6859,644.7729,45,92,45
646.9468,647.5854,49,92,45
647.599,648.6859,45,90,45
650.2077,650.84625,42,81,45
650.85986,651.17236,44,79,45
651.1859,651.4984,45,78,45
651.512,652.599,47,77,45
654.7729,655.4115,47,65,45
655.42505,656.512,47,63,45
658.6859,659.3245,47,48,45
659.3381,660.42505,40,45,45
662.599,663.23755,52,45,45
663.25116,664.3381,52,45,45
666.5416,667.2411,52,45,45
667.2559,668.3429,45,45,45
670.5168,671.1554,45,60,45
671.169,672.2559,47,75,45
674.5513,675.28564,47,60,45
675.3013,676.3882,52,45,45
678.56213,679.2007,52,45,45
679.2143,680.3013,52,45,45
682.47516,683.1138,52,45,45
683.1273,684.2143,45,45,45
686.3882,687.0268,45,60,45
687.04034,688.1273,47,75,45
690.393,691.1274,47,60,45
691.143,692.27936,52,45,45
694.55206,695.2197,52,45,45
695.2339,696.37024,48,45,45
698.643,699.3106,48,75,45
699.3248,700.51526,41,92,45
702.89624,703.59564,41,75,45
703.61053,704.801,48,60,45
221.12424,221.45032,41,45,42
221.45032,221.53185,40,52,42
221.53185,221.61336,41,54,42
221.61336,221.69489,40,56,42
221.69489,221.77641,41,58,42
221.77641,221.85454,40,60,42
221.85454,221.93266,41,62,42
221.93266,222.01079,40,64,42
222.01079,222.08891,41,66,42
222.08891,222.16704,40,68,42
222.16704,222.24516,41,70,42
222.24516,222.32329,40,72,42
222.32329,222.40141,41,74,42
222.40141,222.47954,40,76,42
222.47954,222.55766,41,78,42
222.55766,222.63579,40,80,42
222.63579,222.71391,41,82,42
222.71391,222.87016,38,84,42
222.87016,223.01338,40,88,42
223.02641,224.02641,41,92,42
224.6764,224.8264,52,75,42
224.8264,225.8264,53,105,42
226.47641,226.6264,40,75,42
226.6264,226.75766,41,78,42
226.8264,226.95766,43,82,42
227.02641,227.15765,44,87,42
227.22641,227.35765,41,92,42
227.4264,227.55766,43,92,42
227.6264,227.75766,44,89,42
227.8264,227.95766,41,86,42
228.02641,228.15765,43,83,42
228.22641,228.35765,44,79,42
228.4264,229.0139,41,75,42
229.3264,229.52641,41,105,42
229.6264,229.8264,41,105,42
229.9264,230.1264,41,105,42
230.22641,231.22641,41,75,42
231.8764,232.02641,52,75,42
232.02641,233.02641,53,105,42
233.6764,233.8264,40,75,42
233.8264,233.95766,41,78,42
234.02641,234.15765,43,82,42
234.22641,234.35765,44,87,42
234.4264,234.55766,41,92,42
234.6264,234.75766,43,92,42
234.8264,234.95766,44,89,42
235.02641,235.15765,41,86,42
235.22641,235.35765,43,83,42
235.4264,235.55766,44,79,42
235.6264,236.21391,41,75,42
236.52641,236.72641,41,105,42
236.8264,237.02641,41,105,42
237.1264,237.3264,41,105,42
237.4264,238.4264,41,75,42
239.0764,239.22641,52,74,42
239.22641,240.22641,53,103,42
240.8764,241.02641,40,73,42
241.02641,241.15765,41,73,42
241.22641,241.35765,43,73,42
241.4264,241.55766,45,73,42
241.6264,241.75766,41,73,42
241.8264,241.95766,43,73,42
242.02641,242.15765,45,73,42
242.22641,242.35765,41,73,42
242.4264,242.55766,43,73,42
242.6264,242.75766,45,73,42
242.8264,243.41391,41,73,42
243.72641,243.9264,41,102,42
244.02641,244.22641,42,102,42
244.3264,244.52641,41,102,42
244.6264,245.6264,46,73,42
246.27641,246.4264,45,71,42
246.4264,246.55766,46,71,42
246.6264,246.75766,48,71,42
246.8264,246.95766,49,71,42
247.02641,247.15765,46,71,42
247.22641,247.35765,48,71,42
247.4264,247.55766,49,71,42
247.6264,247.75766,46,71,42
247.8264,247.95766,48,71,42
248.02641,248.15765,49,71,42
248.22641,248.8139,48,71,42
249.1264,249.3264,37,96,42
249.4264,249.6264,36,95,42
249.72641,249.9264,40,93,42
250.02641,251.02641,41,66,42
251.6764,251.8139,52,61,42
251.8264,252.8264,53,60,42
253.47641,253.6264,40,60,42
253.6264,253.75766,41,60,42
253.8264,253.95766,43,60,42
254.02641,254.15765,44,60,42
254.22641,254.35765,41,60,42
254.4264,254.55766,43,60,42
254.6264,254.75766,44,60,42
254.8264,254.95766,41,60,42
255.02641,255.15765,43,60,42
255.22641,255.35765,44,60,42
255.4264,256.4264,43,60,42
257.07642,257.2264,44,67,42
257.2264,257.35767,43,67,42
257.4264,257.55765,47,67,42
257.6264,257.75766,48,67,42
257.82642,257.95764,43,67,42
258.0264,258.15765,47,68,42
258.2264,258.35767,48,69,42
258.4264,258.55765,43,70,42
258.6264,258.75766,47,71,42
258.82642,258.95764,48,72,42
259.0264,260.0264,47,73,42
260.6764,260.82642,47,81,42
260.82642,260.95764,48,81,42
261.0264,261.15765,50,82,42
261.2264,261.35767,51,83,42
261.4264,261.55765,48,84,42
261.6264,261.75766,50,85,42
261.82642,261.95764,51,86,42
262.0264,262.15765,48,87,42
262.2264,262.35767,50,88,42
262.4264,262.55765,51,90,42
262.6264,263.6264,52,92,42
264.4264,264.55765,40,92,42
264.6264,264.75766,41,87,42
264.82642,264.95764,43,82,42
265.0264,265.15765,40,77,42
265.2264,265.35767,41,72,42
265.4264,265.55765,43,67,42
265.6264,265.75766,40,62,42
265.82642,265.95764,41,57,42
266.0264,266.15765,43,51,42
266.2264,267.2264,41,45,42
268.0264,268.15765,41,45,42
268.2264,268.35767,43,55,42
268.4264,268.55765,44,65,42
268.6264,268.75766,41,75,42
268.82642,268.95764,43,75,42
269.0264,269.15765,44,69,42
269.2264,269.35767,41,63,42
269.4264,269.55765,43,57,42
269.6264,269.75766,44,51,42
269.82642,270.82642,42,45,42
271.4764,271.6264,53,60,42
271.6264,272.6264,54,84,42
273.2764,273.4264,42,60,42
273.4264,274.4264,43,75,42
275.2264,275.35767,43,60,42
275.4264,275.55765,45,60,42
275.6264,275.75766,46,60,42
275.82642,275.95764,43,60,42
276.0264,276.15765,45,60,42
276.2264,276.35767,46,60,42
276.4264,276.55765,43,60,42
276.6264,276.75766,45,60,42
276.82642,276.95764,46,60,42
277.0264,278.0264,44,60,42
278.6764,278.82642,57,74,42
278.82642,279.82642,56,75,42
280.4764,280.6264,44,90,42
280.6264,281.6264,45,92,42
282.4264,282.55765,45,60,42
282.6264,282.75766,47,60,42
282.82642,282.95764,48,60,42
283.0264,283.15765,45,60,42
283.2264,283.35767,47,60,42
283.4264,283.55765,48,60,42
283.6264,283.75766,45,60,42
283.82642,283.95764,47,60,42
284.0264,284.15765,48,60,42
284.2264,285.2264,47,60,42
285.8764,286.01392,60,60,42
286.0264,287.0264,59,60,42
287.6764,287.8139,47,60,42
287.82642,287.95764,48,60,42
288.0264,288.15765,50,60,42
288.2264,288.35767,51,60,42
288.4264,288.55765,48,60,42
288.6264,288.75766,50,60,42
288.82642,288.95764,51,60,42
289.0264,289.15765,48,60,42
289.2264,289.35767,50,60,42
289.4264,289.55765,51,60,42
289.6264,290.2139,48,60,42
291.4264,291.55765,40,60,42
291.6264,291.75766,41,60,42
291.82642,291.95764,43,60,42
292.0264,292.15765,40,60,42
292.2264,292.35767,41,60,42
292.4264,292.55765,43,60,42
292.6264,292.75766,40,60,42
292.82642,292.95764,41,60,42
293.0264,293.15765,43,60,42
293.2264,293.8139,40,60,42
295.0264,296.0264,41,60,42
298.4764,298.6139,44,45,42
298.6264,300.4264,43,45,42
300.4264,301.01392,41,45,42
302.07642,302.1764,39,60,42
302.2264,303.2264,37,84,42
303.8764,304.0264,48,84,42
304.0264,305.0264,49,60,42
305.6764,305.82642,40,45,42
305.82642,305.95764,41,45,42
306.0264,306.15765,43,50,42
306.2264,306.35767,44,55,42
306.4264,306.55765,41,60,42
306.6264,306.75766,43,60,42
306.82642,306.95764,44,57,42
307.0264,307.15765,41,54,42
307.2264,307.35767,43,51,42
307.4264,307.55765,44,48,42
307.6264,308.2139,41,45,42
309.4264,310.4264,43,45,42
311.07642,311.2264,54,60,42
311.2264,312.2264,55,60,42
312.8764,313.0264,42,60,42
313.0264,314.0264,43,61,42
314.82642,316.0264,43,76,42
316.0264,316.6139,41,86,42
316.6264,316.75766,39,92,42
316.82642,316.95764,41,92,42
317.0264,317.15765,43,92,42
317.2264,317.35767,39,92,42
317.4264,317.55765,41,92,42
317.6264,317.75766,43,92,42
317.82642,317.95764,39,92,42
318.0264,318.15765,41,92,42
318.2264,318.35767,43,92,42
318.4264,319.01392,39,92,42
320.2264,320.35767,40,92,42
320.4264,320.55765,41,90,42
320.6264,320.75766,43,88,42
320.82642,320.95764,40,86,42
321.0264,321.15765,41,84,42
321.2264,321.35767,43,82,42
321.4264,321.55765,40,80,42
321.6264,321.75766,41,78,42
321.82642,321.95764,43,75,42
322.0264,322.6139,40,72,42
323.82642,324.82642,41,45,42
327.2764,327.4139,44,45,42
327.4264,329.2264,43,63,42
329.2264,329.8139,41,45,42
330.8764,330.9764,39,75,42
331.0264,332.0264,37,105,42
332.6764,332.82642,48,75,42
332.82642,333.82642,49,105,42
334.32642,334.6264,40,75,42
334.6264,334.75766,41,73,42
334.82642,334.95764,43,72,42
335.0264,335.15765,44,71,42
335.2264,335.35767,41,70,42
335.4264,335.55765,43,69,42
335.6264,335.75766,44,68,42
335.82642,335.95764,41,67,42
336.0264,336.15765,43,66,42
336.2264,336.35767,44,65,42
336.4264,337.01392,41,63,42
338.2264,339.2264,43,45,42
339.8764,340.0264,54,45,42
340.0264,341.0264,55,63,42
341.6764,341.82642,42,45,42
341.82642,342.82642,43,63,42
343.6264,344.6264,55,45,42
344.82642,345.4139,43,45,42
345.4264,346.4264,42,45,42
347.07642,347.2139,41,55,42
347.2264,348.2264,42,56,42
348.8764,349.01392,41,67,42
349.0264,350.0264,42,67,42
350.82642,351.82642,42,79,42
352.0264,352.6139,41,87,42
352.6264,352.75766,40,92,42
352.82642,352.95764,40,92,42
353.0264,353.15765,40,92,42
353.2264,353.35767,40,90,42
353.4264,353.55765,40,88,42
353.6264,353.75766,40,86,42
353.82642,353.95764,40,84,42
354.0264,354.15765,40,81,42
354.2264,354.35767,40,78,42
354.4264,356.4139,40,75,42
356.4264,356.55765,41,75,42
356.6264,356.75766,39,75,42
356.82642,356.95764,40,75,42
357.0264,357.15765,41,74,42
357.2264,357.35767,39,73,42
357.4264,357.55765,40,72,42
357.6264,357.75766,41,71,42
357.82642,357.95764,39,70,42
358.0264,358.6139,40,69,42
359.82642,359.95764,40,60,42
360.0264,360.15765,41,60,42
360.2264,360.35767,43,60,42
360.4264,360.55765,40,60,42
360.6264,360.75766,41,60,42
360.82642,360.95764,43,60,42
361.0264,361.15765,40,60,42
361.2264,361.35767,41,60,42
361.4264,361.55765,43,60,42
361.6264,362.2139,40,60,42
363.4264,363.55765,41,60,42
363.6264,363.75766,43,60,42
363.82642,363.95764,44,60,42
364.0264,364.15765,41,60,42
364.2264,364.35767,43,59,42
364.4264,364.55765,44,58,42
364.6264,364.75766,41,57,42
364.82642,364.95764,43,56,42
365.0264,365.15765,44,55,42
365.2264,365.8139,41,54,42
367.0264,368.0264,43,45,42
368.6764,368.82642,54,45,42
368.82642,369.82642,55,63,42
370.4764,370.6264,42,45,42
370.6264,371.6264,43,63,42
372.4264,373.4264,55,45,42
373.6264,374.2139,43,45,42
374.2264,375.2264,42,45,42
375.8764,376.0264,41,55,42
376.0264,377.0264,42,56,42
377.6764,377.82642,41,67,42
377.82642,378.82642,42,67,42
379.6264,380.6264,42,79,42
380.82642,381.4139,41,87,42
381.4264,381.55765,40,92,42
381.6264,381.75766,40,92,42
381.82642,381.95764,40,92,42
382.0264,382.15765,40,88,42
382.2264,382.35767,40,84,42
382.4264,382.55765,40,80,42
382.6264,382.75766,40,75,42
382.82642,382.95764,40,70,42
383.0264,383.15765,40,65,42
383.2264,385.15765,40,60,42
385.2264,385.35767,41,60,42
385.4264,385.55765,39,61,42
385.6264,385.75766,40,62,42
385.82642,385.95764,41,64,42
386.0264,386.15765,39,66,42
386.2264,386.8139,40,68,42
386.82642,387.82642,44,74,42
388.0264,388.6139,43,86,42
388.6264,388.75766,42,92,42
388.82642,388.95764,42,92,42
389.0264,389.15765,42,92,42
389.2264,389.35767,42,92,42
389.4264,389.55765,42,92,42
389.6264,389.75766,42,91,42
389.82642,389.95764,42,91,42
390.0264,390.15765,42,90,42
390.2264,390.35767,42,89,42
390.4264,392.35767,42,88,42
392.4264,392.55765,43,78,42
392.6264,392.75766,41,77,42
392.82642,392.95764,42,76,42
393.0264,393.15765,43,75,42
393.2264,393.35767,41,74,42
393.4264,393.55765,42,73,42
393.6264,393.75766,43,72,42
393.82642,393.95764,41,71,42
394.0264,395.0264,42,70,42
395.82642,396.82642,51,60,42
397.6264,397.7264,39,60,42
397.7264,397.82642,40,60,42
397.82642,397.9264,39,60,42
397.9264,398.0264,40,60,42
398.0264,398.1264,39,61,42
398.1264,398.2264,40,62,42
398.2264,398.32642,39,63,42
398.32642,398.4264,40,64,42
398.4264,398.5264,39,65,42
398.5264,398.6264,40,66,42
398.6264,398.7264,39,67,42
398.7264,398.82642,40,68,42
398.82642,398.9264,39,69,42
398.9264,399.0264,40,70,42
399.0264,399.1264,39,71,42
399.1264,399.2264,40,72,42
399.2264,399.32642,37,73,42
399.32642,399.4264,39,74,42
399.4264,399.55765,40,75,42
399.6264,399.75766,41,75,42
399.82642,399.95764,39,75,42
400.0264,400.15765,40,73,42
400.2264,400.35767,41,71,42
400.4264,400.55765,39,69,42
400.6264,400.75766,40,67,42
400.82642,400.95764,41,65,42
401.0264,401.15765,39,63,42
401.2264,402.2264,40,60,42
403.0264,403.15765,40,60,42
403.2264,403.35767,41,60,42
403.4264,403.55765,43,60,42
403.6264,403.75766,40,60,42
403.82642,403.95764,41,60,42
404.0264,404.15765,43,60,42
404.2264,404.35767,40,60,42
404.4264,404.55765,41,60,42
404.6264,404.75766,43,60,42
404.82642,405.82642,40,60,42
406.6264,406.75766,41,60,42
406.82642,406.95764,43,60,42
407.0264,407.15765,44,60,42
407.2264,407.35767,41,60,42
407.4264,407.55765,43,60,42
407.6264,407.75766,44,60,42
407.82642,407.95764,41,60,42
408.0264,408.15765,43,60,42
408.2264,408.35767,44,60,42
408.4264,409.4264,41,60,42
410.2264,411.2264,43,45,42
411.8764,412.01392,54,45,42
412.0264,413.0264,55,45,42
413.6764,413.8139,43,45,42
413.82642,413.95764,41,45,42
414.0264,414.15765,43,52,42
414.2264,414.35767,44,59,42
414.4264,414.55765,41,67,42
414.6264,414.75766,43,75,42
414.82642,414.95764,44,75,42
415.0264,415.15765,43,72,42
415.2264,415.35767,41,68,42
415.4264,415.55765,39,64,42
415.6264,416.2139,37,60,42
416.82642,417.4139,41,60,42
417.4264,418.4264,43,60,42
419.07642,419.2264,54,60,42
419.2264,420.2264,55,60,42
420.8764,421.01392,43,60,42
421.0264,421.15765,41,60,42
421.2264,421.35767,43,63,42
421.4264,421.55765,44,67,42
421.6264,421.75766,41,71,42
421.82642,421.95764,43,75,42
422.0264,422.15765,44,75,42
422.2264,422.35767,43,68,42
422.4264,422.55765,41,61,42
422.6264,422.75766,39,53,42
422.82642,423.4139,37,45,42
424.0264,424.2264,41,45,42
424.6264,425.6264,43,45,42
426.2764,426.4264,53,45,42
426.4264,427.4264,55,45,42
428.07642,428.2264,42,45,42
428.2264,429.2264,43,45,42
430.0264,431.0264,43,45,42
431.82642,432.82642,41,45,42
435.2764,435.4139,41,45,42
435.4264,436.4264,41,45,42
438.8764,439.01392,41,60,42
439.0264,440.0264,42,60,42
446.2264,447.2264,39,45,42
449.6764,449.8139,39,45,42
449.82642,450.82642,39,45,42
453.2764,453.4139,39,45,42
453.4264,454.46808,40,45,42
460.73196,461.43137,44,45,42
461.44623,462.5826,45,63,42
465.53714,469.82285,45,45,42
469.82285,478.66495,47,45,42
479.22275,479.38577,39,60,42
479.38577,479.54883,40,60,42
479.54883,479.71188,39,60,42
479.71188,479.8749,40,59,42
479.8749,480.03796,43,58,42
480.03796,480.201,44,57,42
480.201,480.36404,43,56,42
480.36404,480.5271,44,55,42
480.5271,480.69012,46,54,42
480.69012,480.85318,47,53,42
480.85318,481.0162,46,52,42
481.0162,481.17926,47,51,42
481.17926,481.34232,51,50,42
481.34232,481.50534,52,49,42
481.50534,481.6684,51,47,42
481.6684,481.9809,52,45,42
483.29883,483.5162,39,45,42
483.6249,483.951,39,45,42
483.951,484.2635,40,45,42
484.2771,484.60318,40,45,42
484.60318,484.91568,39,45,42
484.92926,485.25534,39,45,42
485.25534,485.56784,40,45,42
487.04883,487.21185,46,60,42
487.21185,487.3749,47,60,42
487.3749,487.53796,46,60,42
487.53796,487.701,47,59,42
487.701,487.86404,50,58,42
487.86404,488.0271,51,57,42
488.0271,488.19012,50,56,42
488.19012,488.35318,51,55,42
488.35318,488.5162,53,54,42
488.5162,488.67926,54,53,42
488.67926,488.84232,53,52,42
488.84232,489.00534,54,51,42
489.00534,489.1684,58,50,42
489.1684,489.33142,59,49,42
489.33142,489.49448,58,47,42
489.49448,489.80698,59,45,42
491.1249,491.34232,46,45,42
491.451,491.77707,46,45,42
491.77707,492.08957,47,45,42
492.10318,492.42926,47,45,42
492.42926,492.74176,46,45,42
492.75534,493.08142,46,45,42
493.08142,493.39392,47,45,42
493.7336,493.96457,47,63,42
494.0597,494.29068,45,63,42
494.38577,494.60318,44,63,42
494.8749,495.03796,41,60,42
495.03796,495.201,42,60,42
495.201,495.36404,41,60,42
495.36404,495.52707,42,59,42
495.52707,495.69012,44,58,42
495.69012,495.85318,45,57,42
495.85318,496.0162,44,56,42
496.0162,496.17926,45,55,42
496.17926,496.3423,48,54,42
496.3423,496.50534,49,53,42
496.50534,496.6684,48,52,42
496.6684,496.83142,49,51,42
496.83142,496.99448,53,50,42
496.99448,497.1575,54,49,42
497.1575,497.32056,53,47,42
497.32056,497.63306,54,45,42
498.951,499.1684,42,45,42
499.27707,499.60318,42,45,42
499.60318,499.91565,45,45,42
499.92926,500.25534,45,45,42
500.25534,500.56784,42,45,42
500.58142,500.9075,45,45,42
500.9075,501.22,42,45,42
501.2336,501.451,40,45,42
501.88577,502.19827,39,45,42
502.701,502.86404,36,60,42
502.86404,503.02707,37,60,42
503.02707,503.19012,36,60,42
503.19012,503.35315,37,59,42
503.35315,503.5162,40,58,42
503.5162,503.67926,41,57,42
503.67926,503.8423,40,56,42
503.8423,504.00534,41,55,42
504.00534,504.16837,43,54,42
504.16837,504.33142,44,53,42
504.33142,504.49448,43,52,42
504.49448,504.6575,44,51,42
504.6575,504.82056,48,50,42
504.82056,504.98358,49,49,42
504.98358,505.14664,50,47,42
505.14664,505.45914,49,45,42
506.77707,506.99448,36,60,42
507.10315,507.42926,36,60,42
507.42926,507.74176,37,60,42
507.75534,508.08142,37,60,42
508.08142,508.39392,36,60,42
508.4075,508.73358,36,60,42
508.73358,509.04608,37,60,42
510.52707,510.69012,41,60,42
510.69012,510.85315,42,59,42
510.85315,511.0162,41,58,42
511.0162,511.17923,42,57,42
511.17923,511.3423,45,56,42
511.3423,511.50534,46,55,42
511.50534,511.66837,45,54,42
511.66837,511.83142,46,53,42
511.83142,511.99448,48,52,42
511.99448,512.15753,49,51,42
512.15753,512.32056,48,50,42
512.32056,512.4836,49,49,42
512.4836,512.6466,53,48,42
512.6466,512.8097,54,47,42
512.8097,512.9727,56,46,42
512.9727,513.2852,54,45,42
514.60315,514.82056,41,45,42
514.92926,515.2553,41,46,42
515.2553,515.5678,42,47,42
515.5814,515.90753,42,48,42
515.90753,516.22003,41,49,42
516.2336,516.5597,41,50,42
516.5597,516.8722,42,51,42
518.35315,518.5162,41,60,42
518.5162,518.67926,42,60,42
518.67926,518.8423,41,60,42
518.8423,519.0053,42,60,42
519.0053,519.1684,45,60,42
519.1684,519.3314,46,60,42
519.3314,519.49445,45,60,42
519.49445,519.6575,46,60,42
519.6575,519.82056,47,60,42
519.82056,519.9836,49,60,42
519.9836,520.1466,46,60,42
520.1466,520.7852,42,60,42
522.2662,522.42926,41,75,42
522.42926,522.5923,42,75,42
522.5923,522.7553,41,75,42
522.7553,522.9184,42,75,42
522.9184,523.0814,45,75,42
523.0814,523.24445,46,75,42
523.24445,523.4075,45,75,42
523.4075,523.57056,46,75,42
523.57056,523.7336,47,75,42
523.7336,523.8966,49,75,42
523.8966,524.0597,46,75,42
524.0597,524.69824,42,75,42
526.17926,526.3423,46,92,42
526.3423,526.5053,47,92,42
526.5053,526.66833,46,92,42
526.66833,526.8314,47,92,42
526.8314,526.99445,50,92,42
526.99445,527.1575,51,92,42
527.1575,527.32056,50,92,42
527.32056,527.4836,51,92,42
527.4836,527.6466,53,92,42
527.6466,527.8097,54,92,42
527.8097,527.9727,53,92,42
527.9727,528.13574,54,92,42
528.13574,528.2988,58,92,42
528.2988,528.46185,59,92,42
528.46185,528.6249,61,92,42
528.6249,529.2635,63,92,42
530.2553,530.4727,46,75,42
530.5814,530.9075,46,75,42
530.9075,531.22,47,75,42
531.2336,531.5597,47,75,42
531.5597,531.8722,46,75,42
531.88574,532.21185,46,75,42
532.21185,532.52435,47,73,42
532.5379,533.1765,44,71,42
533.1901,533.53656,46,66,42
533.67926,533.7879,47,62,42
533.8423,534.0597,49,60,42
534.49445,534.82056,48,60,42
534.82056,535.13306,49,60,42
535.1466,535.364,49,60,42
536.451,536.77704,48,60,42
536.77704,537.08954,49,60,42
537.10315,537.32056,49,84,42
538.4075,538.7336,48,60,42
538.7336,539.0461,49,60,42
539.05963,539.27704,49,84,42
541.8314,541.99445,41,60,42
541.99445,542.1575,42,60,42
542.1575,542.32056,41,60,42
542.32056,542.4836,42,59,42
542.4836,542.6466,45,58,42
542.6466,542.80963,46,57,42
542.80963,542.9727,45,56,42
542.9727,543.13574,46,55,42
543.13574,543.29877,48,54,42
543.29877,543.46185,49,53,42
543.46185,543.6249,48,52,42
543.6249,543.7879,49,51,42
543.7879,543.951,53,50,42
543.951,544.114,54,49,42
544.114,544.27704,56,47,42
544.27704,544.58954,54,45,42
545.9075,546.1249,41,60,42
546.2336,546.55963,41,60,42
546.55963,546.87213,42,60,42
546.88574,547.21185,42,60,42
547.21185,547.52435,41,60,42
547.5379,547.864,41,60,42
547.864,548.1765,42,60,42
549.6575,549.8205,41,60,42
549.8205,549.9836,42,60,42
549.9836,550.1466,41,60,42
550.1466,550.30963,42,60,42
550.30963,550.4727,45,60,42
550.4727,550.63574,46,60,42
550.63574,550.79877,45,60,42
550.79877,550.96185,46,60,42
550.96185,551.1249,47,60,42
551.1249,551.2879,49,60,42
551.2879,551.4509,46,60,42
551.4509,551.7634,42,60,42
553.5705,553.7336,41,69,42
553.7336,553.8966,42,69,42
553.8966,554.05963,41,70,42
554.05963,554.2227,42,71,42
554.2227,554.38574,45,72,42
554.38574,554.54877,46,73,42
554.54877,554.71185,45,74,42
554.71185,554.8749,46,75,42
554.8749,555.0379,47,76,42
555.0379,555.2009,49,77,42
555.2009,555.364,46,78,42
555.364,555.6765,42,79,42
557.4836,557.6466,46,92,42
557.6466,557.80963,47,92,42
557.80963,557.9727,46,92,42
557.9727,558.13574,47,92,42
558.13574,558.29877,49,92,42
558.29877,558.46185,50,92,42
558.46185,558.6249,49,92,42
558.6249,558.7879,50,92,42
558.7879,558.9509,53,92,42
558.9509,559.114,54,92,42
559.114,559.27704,53,92,42
559.27704,559.44006,54,92,42
559.44006,559.60315,58,92,42
559.60315,559.7662,59,92,42
559.7662,559.9292,61,92,42
559.9292,560.2417,62,92,42
561.55963,561.77704,46,75,42
561.88574,562.2118,46,75,42
562.2118,562.5243,47,75,42
562.5379,562.864,47,75,42
562.864,563.1765,46,75,42
563.19006,563.5162,46,75,42
563.5162,563.8287,47,73,42
563.8422,564.48083,47,71,42
564.49445,564.8205,49,66,42
564.9836,565.0922,50,62,42
565.1466,565.364,52,60,42
565.79877,566.1249,51,60,42
566.1249,566.4374,52,60,42
566.4509,566.66833,52,60,42
567.7553,568.08136,51,60,42
568.08136,568.39386,52,60,42
568.4075,568.6249,52,84,42
569.7118,570.0379,51,60,42
570.0379,570.3504,52,60,42
570.364,570.58136,52,84,42
573.13574,573.29877,44,60,42
573.29877,573.4618,45,60,42
573.4618,573.6249,44,60,42
573.6249,573.7879,45,59,42
573.7879,573.9509,48,58,42
573.9509,574.114,49,57,42
574.114,574.27704,48,56,42
574.27704,574.44006,49,55,42
574.44006,574.6031,51,54,42
574.6031,574.7662,52,53,42
574.7662,574.9292,51,52,42
574.9292,575.0922,52,51,42
575.0922,575.2553,56,50,42
575.2553,575.41833,57,49,42
575.41833,575.58136,59,47,42
575.58136,575.89386,61,45,42
577.2118,577.4292,44,60,42
577.5379,577.864,44,60,42
577.864,578.1765,45,60,42
578.19006,578.5162,45,60,42
578.5162,578.8287,44,60,42
578.8422,579.16833,44,75,42
579.16833,579.48083,45,75,42
579.49445,579.95636,42,75,42
580.1466,580.49304,44,75,42
580.63574,580.74445,45,75,42
580.79877,581.0162,47,60,42
581.4509,581.77704,46,60,42
581.77704,582.08954,47,60,42
582.1031,582.3205,47,60,42
583.4075,583.7335,46,60,42
583.7335,584.046,47,60,42
584.05963,584.27704,47,60,42
585.3936,585.73456,46,60,42
585.73456,586.0612,47,59,42
586.07544,586.30273,47,58,42
707.18195,707.88135,48,84,42
707.89624,712.02124,47,45,42
712.39624,713.64624,47,45,42
714.64624,715.93384,47,45,42
717.34894,721.84894,40,45,42
717.34894,721.84894,47,45,42
721.84894,725.97394,40,30,42
721.84894,725.97394,47,30,42
733.84894,735.09894,40,10,0
