start_time,end_time,note_value,velocity,instrument_program_number
0.234375,0.2734375,71,36,0
0.0,0.3125,72,36,0
0.2734375,0.3125,72,36,0
0.3125,0.625,71,36,0
0.625,0.9375,69,36,0
0.9375,1.40625,76,62,0
1.40625,1.484375,72,36,0
1.484375,1.5625,69,36,0
1.5625,2.5,64,36,0
2.5,2.53125,64,75,0
2.5,2.53125,57,75,0
2.8125,2.84375,64,75,0
2.8125,2.84375,62,75,0
2.8125,2.84375,56,75,0
3.1317935,3.1431572,64,75,0
3.1317935,3.1431572,60,75,0
3.1317935,3.1431572,57,75,0
3.4808195,3.5183196,64,75,0
3.4808195,3.5183196,59,75,0
3.865688,3.9073546,69,75,0
3.865688,3.9073546,63,75,0
3.865688,3.9073546,57,75,0
4.2946095,5.2728705,68,75,0
4.2946095,5.2728705,64,75,0
4.2946095,5.2728705,56,75,0
5.5174356,5.5581965,72,36,0
5.2728705,5.5989575,74,36,0
5.5581965,5.5989575,74,36,0
5.5989575,5.9250445,72,36,0
5.9250445,6.2511315,71,36,0
6.2511315,6.740262,77,62,0
6.740262,6.8217835,74,36,0
6.8217835,6.9033055,71,36,0
6.9033055,7.8815665,64,36,0
7.8815665,7.914175,68,75,0
7.8815665,7.914175,64,75,0
7.8815665,7.914175,59,75,0
8.207653,8.240262,69,75,0
8.207653,8.240262,64,75,0
8.207653,8.240262,57,75,0
8.541151,8.576866,71,75,0
8.541151,8.576866,64,75,0
8.541151,8.576866,59,75,0
8.907223,8.946696,72,75,0
8.907223,8.946696,64,75,0
8.907223,8.946696,60,75,0
9.312925,9.357042,76,75,0
9.312925,9.357042,71,75,0
9.312925,9.357042,64,75,0
9.767888,11.767888,76,75,0
9.767888,11.767888,69,75,0
9.767888,12.017888,81,75,0
12.017888,12.142888,83,75,0
12.142888,12.267888,81,75,0
12.267888,12.517888,80,75,0
12.517888,12.767888,81,75,0
12.767888,13.267888,84,75,0
13.267888,13.767888,83,75,0
13.767888,13.924138,80,75,0
13.767888,13.924138,76,75,0
14.080388,14.705388,64,75,0
14.705388,15.330388,64,75,0
15.330388,15.955388,64,75,0
15.955388,16.267887,64,75,0
16.267887,16.424137,65,75,0
16.424137,16.580387,57,75,0
16.580387,16.736637,60,75,0
16.736637,16.892887,64,75,0
16.892887,17.049137,65,75,0
17.049137,17.205387,57,75,0
17.205387,17.361637,60,75,0
17.361637,17.517887,64,75,0
17.517887,17.674137,65,75,0
17.674137,17.830387,59,75,0
17.830387,17.986637,62,75,0
17.986637,18.142887,65,75,0
18.142887,18.611637,71,101,0
18.611637,18.767887,71,101,0
18.767887,18.924137,68,75,0
18.767887,18.924137,64,75,0
19.080387,19.705387,76,75,0
19.705387,20.330387,76,75,0
20.330387,20.955387,76,75,0
20.955387,21.267887,76,75,0
21.267887,21.424137,77,75,0
21.424137,21.580387,69,75,0
21.580387,21.736637,72,75,0
21.736637,21.892887,76,75,0
21.892887,22.049137,77,75,0
22.049137,22.205387,69,75,0
22.205387,22.361637,72,75,0
22.361637,22.517887,76,75,0
22.517887,22.674137,77,75,0
22.674137,22.830387,71,75,0
22.830387,22.986637,74,75,0
22.986637,23.142887,77,75,0
23.142887,23.611637,83,101,0
23.611637,23.767887,83,101,0
23.767887,24.080387,80,88,0
23.767887,24.080387,76,88,0
24.080387,24.705387,88,88,0
24.080387,24.705387,76,88,0
24.705387,25.330387,88,88,0
24.705387,25.330387,76,88,0
25.330387,25.955387,88,88,0
25.330387,25.955387,76,88,0
25.955387,26.267887,88,88,0
25.955387,26.267887,76,88,0
26.267887,26.299137,93,101,0
26.267887,26.299137,84,101,0
26.267887,26.299137,81,101,0
26.580387,27.205387,81,101,0
26.580387,27.205387,69,101,0
26.580387,27.205387,72,101,0
26.580387,27.205387,75,101,0
27.205387,27.517887,81,101,0
27.205387,27.517887,69,101,0
27.205387,27.517887,72,101,0
27.205387,27.517887,75,101,0
27.517887,27.549137,82,101,0
27.517887,27.549137,74,101,0
27.517887,27.549137,70,101,0
27.830387,28.455387,93,101,0
27.830387,28.455387,81,101,0
27.830387,28.455387,84,101,0
27.830387,28.455387,87,101,0
28.455387,28.767887,93,101,0
28.455387,28.767887,81,101,0
28.455387,28.767887,84,101,0
28.455387,28.767887,87,101,0
28.767887,28.799137,94,101,0
28.767887,28.799137,86,101,0
28.767887,28.799137,82,101,0
29.080387,29.705387,81,101,0
29.080387,29.705387,69,101,0
29.080387,29.705387,72,101,0
29.080387,29.705387,75,101,0
29.705387,30.017887,81,101,0
29.705387,30.017887,69,101,0
29.705387,30.017887,72,101,0
29.705387,30.017887,75,101,0
30.017887,30.049137,82,101,0
30.017887,30.049137,74,101,0
30.017887,30.049137,70,101,0
30.330387,30.955387,93,101,0
30.330387,30.955387,81,101,0
30.330387,30.955387,84,101,0
30.330387,30.955387,87,101,0
30.955387,31.267887,93,101,0
30.955387,31.267887,81,101,0
30.955387,31.267887,84,101,0
30.955387,31.267887,87,101,0
31.267887,31.299137,93,101,0
31.267887,31.299137,81,101,0
31.267887,31.299137,84,101,0
31.267887,31.299137,88,101,0
31.892887,31.924137,88,101,0
31.892887,31.924137,76,101,0
31.892887,31.924137,81,101,0
31.892887,31.924137,84,101,0
32.517887,32.549137,88,101,0
32.517887,32.549137,76,101,0
32.517887,32.549137,81,101,0
32.517887,32.549137,83,101,0
33.142887,33.174137,88,101,0
33.142887,33.174137,76,101,0
33.142887,33.174137,80,101,0
33.142887,33.174137,83,101,0
33.767887,33.924137,69,101,0
33.924137,33.939762,57,101,0
34.080387,34.096012,57,101,0
34.236637,34.252262,57,101,0
34.392887,34.424137,57,101,0
36.267887,36.424137,69,114,0
36.424137,36.439762,57,114,0
36.580387,36.596012,57,114,0
36.736637,36.752262,57,114,0
36.892887,36.924137,57,114,0
38.767887,38.924137,72,114,0
38.924137,39.080387,60,114,0
39.080387,39.096012,60,114,0
39.236637,39.252262,60,114,0
39.392887,39.424137,60,114,0
39.705387,39.736637,62,49,0
39.705387,39.736637,59,49,0
39.705387,39.736637,55,49,0
40.017887,40.049137,64,49,0
40.017887,40.049137,60,49,0
40.017887,40.049137,55,49,0
40.330387,40.361637,62,49,0
40.330387,40.361637,59,49,0
40.330387,40.361637,55,49,0
40.642887,40.674137,64,49,0
40.642887,40.674137,60,49,0
40.642887,40.674137,55,49,0
40.955387,40.986637,62,49,0
40.955387,40.986637,59,49,0
40.955387,40.986637,55,49,0
41.267887,41.424137,72,114,0
41.424137,41.580387,60,114,0
41.580387,41.596012,60,114,0
41.736637,41.752262,60,114,0
41.892887,41.924137,60,114,0
42.205387,42.236637,62,49,0
42.205387,42.236637,59,49,0
42.205387,42.236637,55,49,0
42.517887,42.549137,64,49,0
42.517887,42.549137,60,49,0
42.517887,42.549137,55,49,0
42.830387,42.861637,62,49,0
42.830387,42.861637,59,49,0
42.830387,42.861637,55,49,0
43.142887,43.174137,64,49,0
43.142887,43.174137,60,49,0
43.142887,43.174137,55,49,0
43.455387,43.486637,66,49,0
43.455387,43.486637,63,49,0
43.455387,43.486637,59,49,0
43.767887,43.924137,67,114,0
43.767887,43.924137,65,114,0
43.767887,43.924137,62,114,0
43.924137,44.080387,55,114,0
44.080387,44.096012,67,114,0
44.080387,44.096012,65,114,0
44.080387,44.096012,62,114,0
44.236637,44.252262,67,114,0
44.236637,44.252262,65,114,0
44.236637,44.252262,62,114,0
44.392887,44.424137,67,114,0
44.392887,44.424137,65,114,0
44.392887,44.424137,62,114,0
44.705387,44.736637,68,114,0
44.705387,44.736637,65,114,0
44.705387,44.736637,62,114,0
45.017887,45.174137,67,114,0
45.017887,45.174137,65,114,0
45.017887,45.174137,62,114,0
45.174137,45.330387,55,114,0
45.330387,45.346012,67,114,0
45.330387,45.346012,65,114,0
45.330387,45.346012,62,114,0
45.486637,45.502262,67,114,0
45.486637,45.502262,65,114,0
45.486637,45.502262,62,114,0
45.642887,45.674137,67,114,0
45.642887,45.674137,65,114,0
45.642887,45.674137,62,114,0
45.955387,45.986637,68,114,0
45.955387,45.986637,65,114,0
45.955387,45.986637,62,114,0
46.267887,46.299137,67,114,0
46.267887,46.299137,65,114,0
46.267887,46.299137,62,114,0
46.580387,46.611637,68,114,0
46.580387,46.611637,65,114,0
46.580387,46.611637,62,114,0
46.892887,46.924137,67,114,0
46.892887,46.924137,65,114,0
46.892887,46.924137,62,114,0
47.205387,47.236637,68,114,0
47.205387,47.236637,65,114,0
47.205387,47.236637,62,114,0
47.517887,47.549137,69,114,0
47.517887,47.549137,65,114,0
47.517887,47.549137,62,114,0
47.830387,47.861637,70,114,0
47.830387,47.861637,65,114,0
47.830387,47.861637,62,114,0
48.142887,48.174137,71,114,0
48.142887,48.174137,65,114,0
48.142887,48.174137,62,114,0
48.455387,48.486637,72,114,0
48.455387,48.486637,69,114,0
48.455387,48.486637,63,114,0
48.767887,48.924137,72,114,0
48.924137,49.080387,76,114,0
49.080387,49.096012,76,114,0
49.080387,49.096012,72,114,0
49.236637,49.252262,76,114,0
49.236637,49.252262,72,114,0
49.392887,49.424137,76,114,0
49.392887,49.424137,72,114,0
49.705387,49.736637,77,114,0
49.705387,49.736637,76,114,0
50.017887,50.174137,81,114,0
50.174137,50.330387,79,114,0
50.330387,50.346012,79,114,0
50.486637,50.502262,79,114,0
50.642887,50.674137,79,114,0
50.955387,50.986637,79,114,0
50.955387,50.986637,67,114,0
50.955387,50.986637,71,114,0
50.955387,50.986637,74,114,0
51.267887,51.424137,79,88,0
51.424137,51.580387,67,49,0
51.580387,51.596012,67,49,0
51.736637,51.752262,67,49,0
51.892887,51.908512,67,49,0
52.049137,52.064762,67,49,0
52.205387,52.361637,71,49,0
52.361637,52.517887,74,49,0
52.517887,52.674137,72,49,0
52.674137,52.830387,67,49,0
52.830387,52.986637,71,49,0
52.986637,53.142887,74,49,0
53.142887,53.299137,72,49,0
53.299137,53.455387,67,49,0
53.455387,53.611637,71,49,0
53.611637,53.767887,74,49,0
53.767887,53.924137,72,49,0
53.924137,54.080387,67,49,0
54.080387,54.236637,72,49,0
54.236637,54.392887,76,49,0
54.392887,54.549137,79,75,0
54.549137,54.705387,84,75,0
54.705387,54.861637,88,75,0
54.861637,55.017887,91,75,0
55.017887,55.174137,91,75,0
55.174137,55.330387,79,75,0
55.330387,55.486637,92,75,0
55.486637,55.642887,80,75,0
55.642887,55.799137,93,88,0
55.799137,55.955387,81,88,0
55.955387,56.111637,93,88,0
56.111637,56.267887,81,88,0
56.267887,56.424137,81,88,0
56.424137,56.580387,69,49,0
56.580387,56.596012,69,49,0
56.736637,56.752262,69,49,0
56.892887,56.908512,69,49,0
57.049137,57.064762,69,49,0
57.205387,57.361637,73,49,0
57.361637,57.517887,76,49,0
57.517887,57.674137,74,49,0
57.674137,57.830387,69,49,0
57.830387,57.986637,73,49,0
57.986637,58.142887,76,49,0
58.142887,58.299137,74,49,0
58.299137,58.455387,69,49,0
58.455387,58.611637,73,49,0
58.611637,58.767887,76,49,0
58.767887,58.924137,74,49,0
58.924137,59.080387,69,49,0
59.080387,59.236637,74,49,0
59.236637,59.392887,77,49,0
59.392887,59.549137,81,75,0
59.549137,59.705387,86,75,0
59.705387,59.861637,89,75,0
59.861637,60.017887,93,75,0
60.017887,60.174137,93,75,0
60.174137,60.330387,81,75,0
60.330387,60.486637,93,75,0
60.486637,60.642887,81,75,0
60.642887,60.799137,94,75,0
60.799137,60.955387,82,75,0
60.955387,61.111637,94,75,0
61.111637,61.267887,82,75,0
61.267887,61.424137,95,88,0
61.424137,61.580387,83,88,0
61.580387,61.596012,83,88,0
61.580387,61.596012,77,88,0
61.580387,61.596012,71,88,0
61.736637,61.752262,83,88,0
61.736637,61.752262,77,88,0
61.736637,61.752262,71,88,0
61.892887,61.924137,83,88,0
61.892887,61.924137,77,88,0
61.892887,61.924137,71,88,0
62.205387,62.236637,83,114,0
62.205387,62.236637,77,114,0
62.205387,62.236637,71,114,0
62.517887,62.674137,84,114,0
62.517887,62.674137,72,114,0
62.674137,62.830387,76,114,0
62.830387,62.846012,76,114,0
62.830387,62.846012,72,114,0
62.986637,63.002262,76,114,0
62.986637,63.002262,72,114,0
63.142887,63.174137,76,114,0
63.142887,63.174137,72,114,0
63.455387,63.486637,81,114,0
63.455387,63.486637,69,114,0
63.455387,63.486637,72,114,0
63.455387,63.486637,75,114,0
64.08039,64.11164,74,114,0
64.08039,64.11164,72,114,0
64.08039,64.11164,67,114,0
64.70539,64.73664,79,114,0
64.70539,64.73664,67,114,0
64.70539,64.73664,71,114,0
64.70539,64.73664,74,114,0
65.01789,65.17414,79,75,0
65.17414,65.33039,76,49,0
65.33039,65.48664,67,49,0
65.48664,65.64289,76,49,0
65.64289,65.79914,67,49,0
65.95539,65.98664,67,49,0
65.95539,65.98664,65,49,0
66.26789,66.29914,67,49,0
66.26789,66.29914,64,49,0
66.58039,66.61164,67,49,0
66.58039,66.61164,65,49,0
66.89289,66.92414,67,49,0
66.89289,66.92414,64,49,0
67.20539,67.23664,67,49,0
67.20539,67.23664,65,49,0
67.51789,68.14289,67,49,0
67.51789,68.14289,64,49,0
68.45539,68.48664,76,49,0
68.45539,68.48664,74,49,0
68.92414,69.08039,73,49,0
69.08039,69.23664,76,49,0
69.23664,69.39289,81,49,0
69.39289,69.54914,85,49,0
69.54914,69.70539,88,49,0
69.70539,69.73664,93,114,0
69.70539,69.73664,81,114,0
70.01789,70.17414,81,75,0
70.17414,70.33039,77,49,0
70.33039,70.48664,69,49,0
70.48664,70.64289,77,49,0
70.64289,70.79914,69,49,0
70.95539,70.98664,69,49,0
70.95539,70.98664,67,49,0
71.26789,71.29914,69,49,0
71.26789,71.29914,65,49,0
71.58039,71.61164,69,49,0
71.58039,71.61164,67,49,0
71.89289,71.92414,69,49,0
71.89289,71.92414,65,49,0
72.20539,72.23664,69,49,0
72.20539,72.23664,67,49,0
72.51789,73.14289,69,75,0
72.51789,73.14289,65,75,0
73.45539,73.48664,77,75,0
73.45539,73.48664,75,75,0
73.92414,74.08039,74,88,0
74.08039,74.23664,77,88,0
74.23664,74.39289,82,88,0
74.39289,74.54914,86,88,0
74.54914,74.70539,89,88,0
74.70539,74.73664,94,88,0
74.70539,74.73664,82,88,0
75.33039,75.36164,83,101,0
75.33039,75.36164,71,101,0
75.33039,75.36164,74,101,0
75.33039,75.36164,77,101,0
75.95539,75.98664,84,101,0
75.95539,75.98664,72,101,0
75.95539,75.98664,75,101,0
75.95539,75.98664,81,101,0
77.83039,77.86164,74,49,0
77.83039,77.86164,72,49,0
77.83039,77.86164,65,49,0
78.45539,78.48664,79,49,0
78.45539,78.48664,67,49,0
78.45539,78.48664,71,49,0
78.45539,78.48664,74,49,0
81.189766,81.22883,74,49,0
80.95539,81.26789,75,49,0
81.22883,81.26789,75,49,0
81.26789,81.58039,74,49,0
81.58039,81.89289,72,49,0
81.89289,82.36164,79,75,0
82.36164,82.439766,75,49,0
82.439766,82.51789,72,49,0
82.51789,83.45539,67,49,0
83.45539,83.48664,67,49,0
83.76789,83.79914,67,49,0
83.76789,83.79914,65,49,0
84.08039,84.11164,67,49,0
84.08039,84.11164,63,49,0
84.39289,84.42414,67,49,0
84.39289,84.42414,62,49,0
84.70539,84.73664,75,49,0
84.70539,84.73664,66,49,0
85.01789,85.64289,75,49,0
85.64289,85.79914,74,49,0
85.01789,85.79914,67,49,0
86.189766,86.22883,75,49,0
85.95539,86.26789,77,49,0
86.22883,86.26789,77,49,0
86.26789,86.58039,75,49,0
86.58039,86.89289,74,49,0
86.89289,87.36164,80,75,0
87.36164,87.439766,77,49,0
87.439766,87.51789,74,49,0
87.51789,88.45539,67,49,0
88.45539,88.76789,67,49,0
88.76789,88.79914,68,49,0
88.76789,88.79914,67,49,0
89.08039,89.11164,71,49,0
89.08039,89.11164,67,49,0
89.39289,89.42414,72,75,0
89.39289,89.42414,67,75,0
89.70539,89.73664,74,75,0
89.70539,89.73664,67,75,0
90.01789,90.64289,77,75,0
90.64289,90.95539,75,75,0
90.01789,90.95539,67,75,0
91.189766,91.22883,62,75,0
90.95539,91.26789,63,75,0
91.22883,91.26789,63,75,0
91.26789,91.58039,62,75,0
91.58039,91.89289,60,75,0
91.89289,92.36164,67,101,0
92.36164,92.439766,63,75,0
92.439766,92.51789,60,75,0
92.51789,94.39289,56,75,0
95.01789,96.26789,67,49,0
95.01789,96.26789,63,49,0
95.01789,96.26789,60,49,0
96.26789,97.51789,67,49,0
96.26789,97.51789,62,49,0
96.26789,97.51789,59,49,0
102.51789,102.67414,60,49,0
102.67414,102.83039,55,49,0
102.83039,102.846016,55,49,0
102.98664,103.002266,55,49,0
103.14289,103.17414,55,49,0
103.689766,103.72883,59,88,0
103.45539,103.76789,60,88,0
103.72883,103.76789,60,88,0
103.76789,104.08039,59,88,0
104.08039,104.39289,57,88,0
104.39289,104.70539,59,88,0
104.939766,104.97883,59,88,0
104.70539,105.01789,60,88,0
104.97883,105.01789,60,88,0
105.01789,105.33039,59,88,0
105.33039,105.48664,57,88,0
105.48664,105.64289,59,88,0
105.64289,105.79914,60,88,0
105.95539,105.98664,62,88,0
105.95539,105.98664,53,88,0
105.95539,105.98664,55,88,0
105.95539,105.98664,59,88,0
106.26789,106.42414,60,49,0
106.42414,106.58039,55,49,0
106.58039,106.596016,55,49,0
106.73664,106.752266,55,49,0
106.89289,106.92414,55,49,0
107.439766,107.47883,59,49,0
107.20539,107.51789,60,49,0
107.47883,107.51789,60,49,0
107.51789,107.83039,59,49,0
107.83039,108.14289,57,49,0
108.14289,108.45539,59,49,0
108.689766,108.72883,59,49,0
108.45539,108.76789,60,49,0
108.72883,108.76789,60,49,0
108.76789,109.08039,59,49,0
109.08039,109.23664,57,49,0
109.23664,109.39289,59,49,0
109.39289,109.54914,60,49,0
109.70539,109.73664,62,49,0
109.70539,109.73664,53,49,0
109.70539,109.73664,55,49,0
109.70539,109.73664,59,49,0
114.939766,114.97883,71,36,0
114.70539,115.01789,72,36,0
114.97883,115.01789,72,36,0
115.01789,115.33039,71,36,0
115.33039,115.64289,69,36,0
115.64289,116.11164,76,62,0
116.11164,116.189766,72,36,0
116.189766,116.26789,69,36,0
116.26789,117.20539,64,36,0
117.20539,117.23664,64,75,0
117.20539,117.23664,57,75,0
117.51789,117.54914,64,75,0
117.51789,117.54914,62,75,0
117.51789,117.54914,56,75,0
117.83718,117.84855,64,75,0
117.83718,117.84855,60,75,0
117.83718,117.84855,57,75,0
118.18621,118.22371,64,75,0
118.18621,118.22371,59,75,0
118.571075,118.61274,69,75,0
118.571075,118.61274,63,75,0
118.571075,118.61274,57,75,0
119.0,119.97826,68,75,0
119.0,119.97826,64,75,0
119.0,119.97826,56,75,0
120.222824,120.26359,72,36,0
119.97826,120.304344,74,36,0
120.26359,120.304344,74,36,0
120.304344,120.63043,72,36,0
120.63043,120.95652,71,36,0
120.95652,121.44565,77,62,0
121.44565,121.52717,74,36,0
121.52717,121.608696,71,36,0
121.608696,122.58695,64,36,0
122.58695,122.61956,68,75,0
122.58695,122.61956,64,75,0
122.58695,122.61956,59,75,0
122.91304,122.94565,69,75,0
122.91304,122.94565,64,75,0
122.91304,122.94565,57,75,0
123.24654,123.28226,71,75,0
123.24654,123.28226,64,75,0
123.24654,123.28226,59,75,0
123.61261,123.652084,72,75,0
123.61261,123.652084,64,75,0
123.61261,123.652084,60,75,0
124.01831,124.06243,76,75,0
124.01831,124.06243,71,75,0
124.01831,124.06243,64,75,0
124.473274,126.473274,76,75,0
124.473274,126.473274,69,75,0
124.473274,126.723274,81,75,0
126.723274,126.848274,83,75,0
126.848274,126.973274,81,75,0
126.973274,127.223274,80,75,0
127.223274,127.473274,81,75,0
127.473274,127.973274,84,75,0
127.973274,128.47328,83,75,0
128.47328,128.62953,80,75,0
128.47328,128.62953,76,75,0
128.78578,129.41078,64,75,0
129.41078,130.03578,64,75,0
130.03578,130.66078,64,75,0
130.66078,130.97328,64,75,0
130.97328,131.12953,65,75,0
131.12953,131.28578,57,75,0
131.28578,131.44203,60,75,0
131.44203,131.59828,64,75,0
131.59828,131.75453,65,75,0
131.75453,131.91078,57,75,0
131.91078,132.06703,60,75,0
132.06703,132.22328,64,75,0
132.22328,132.37953,65,75,0
132.37953,132.53578,59,75,0
132.53578,132.69203,62,75,0
132.69203,132.84828,65,75,0
132.84828,133.31703,71,101,0
133.31703,133.47328,71,101,0
133.47328,133.62953,68,75,0
133.47328,133.62953,64,75,0
133.78578,134.41078,76,75,0
134.41078,135.03578,76,75,0
135.03578,135.66078,76,75,0
135.66078,135.97328,76,75,0
135.97328,136.12953,77,75,0
136.12953,136.28578,69,75,0
136.28578,136.44203,72,75,0
136.44203,136.59828,76,75,0
136.59828,136.75453,77,75,0
136.75453,136.91078,69,75,0
136.91078,137.06703,72,75,0
137.06703,137.22328,76,75,0
137.22328,137.37953,77,75,0
137.37953,137.53578,71,75,0
137.53578,137.69203,74,75,0
137.69203,137.84828,77,75,0
137.84828,138.31703,83,101,0
138.31703,138.47328,83,101,0
138.47328,138.78578,80,88,0
138.47328,138.78578,76,88,0
138.78578,139.41078,88,88,0
138.78578,139.41078,76,88,0
139.41078,140.03578,88,88,0
139.41078,140.03578,76,88,0
140.03578,140.66078,88,88,0
140.03578,140.66078,76,88,0
140.66078,140.97328,88,88,0
140.66078,140.97328,76,88,0
140.97328,141.00453,93,101,0
140.97328,141.00453,84,101,0
140.97328,141.00453,81,101,0
141.28578,141.91078,81,101,0
141.28578,141.91078,69,101,0
141.28578,141.91078,72,101,0
141.28578,141.91078,75,101,0
141.91078,142.22328,81,101,0
141.91078,142.22328,69,101,0
141.91078,142.22328,72,101,0
141.91078,142.22328,75,101,0
142.22328,142.25453,82,101,0
142.22328,142.25453,74,101,0
142.22328,142.25453,70,101,0
142.53578,143.16078,93,101,0
142.53578,143.16078,81,101,0
142.53578,143.16078,84,101,0
142.53578,143.16078,87,101,0
143.16078,143.47328,93,101,0
143.16078,143.47328,81,101,0
143.16078,143.47328,84,101,0
143.16078,143.47328,87,101,0
143.47328,143.50453,94,101,0
143.47328,143.50453,86,101,0
143.47328,143.50453,82,101,0
143.78578,144.41078,81,101,0
143.78578,144.41078,69,101,0
143.78578,144.41078,72,101,0
143.78578,144.41078,75,101,0
144.41078,144.72328,81,101,0
144.41078,144.72328,69,101,0
144.41078,144.72328,72,101,0
144.41078,144.72328,75,101,0
144.72328,144.75453,82,101,0
144.72328,144.75453,74,101,0
144.72328,144.75453,70,101,0
145.03578,145.66078,93,101,0
145.03578,145.66078,81,101,0
145.03578,145.66078,84,101,0
145.03578,145.66078,87,101,0
145.66078,145.97328,93,101,0
145.66078,145.97328,81,101,0
145.66078,145.97328,84,101,0
145.66078,145.97328,87,101,0
145.97328,146.00453,93,101,0
145.97328,146.00453,81,101,0
145.97328,146.00453,84,101,0
145.97328,146.00453,88,101,0
146.59828,146.62953,88,101,0
146.59828,146.62953,76,101,0
146.59828,146.62953,81,101,0
146.59828,146.62953,84,101,0
147.22328,147.25453,88,101,0
147.22328,147.25453,76,101,0
147.22328,147.25453,81,101,0
147.22328,147.25453,83,101,0
147.84828,147.87953,88,101,0
147.84828,147.87953,76,101,0
147.84828,147.87953,80,101,0
147.84828,147.87953,83,101,0
148.47328,148.62953,69,101,0
148.62953,148.64516,57,101,0
148.78578,148.8014,57,101,0
148.94203,148.95766,57,101,0
149.09828,149.12953,57,101,0
150.97328,151.12953,69,114,0
151.12953,151.14516,57,114,0
151.28578,151.3014,57,114,0
151.44203,151.45766,57,114,0
151.59828,151.62953,57,114,0
153.47328,153.62953,72,114,0
153.62953,153.78578,60,114,0
153.78578,153.8014,60,114,0
153.94203,153.95766,60,114,0
154.09828,154.12953,60,114,0
154.41078,154.44203,62,49,0
154.41078,154.44203,59,49,0
154.41078,154.44203,55,49,0
154.72328,154.75453,64,49,0
154.72328,154.75453,60,49,0
154.72328,154.75453,55,49,0
155.03578,155.06703,62,49,0
155.03578,155.06703,59,49,0
155.03578,155.06703,55,49,0
155.34828,155.37953,64,49,0
155.34828,155.37953,60,49,0
155.34828,155.37953,55,49,0
155.66078,155.69203,62,49,0
155.66078,155.69203,59,49,0
155.66078,155.69203,55,49,0
155.97328,156.12953,72,114,0
156.12953,156.28578,60,114,0
156.28578,156.3014,60,114,0
156.44203,156.45766,60,114,0
156.59828,156.62953,60,114,0
156.91078,156.94203,62,49,0
156.91078,156.94203,59,49,0
156.91078,156.94203,55,49,0
157.22328,157.25453,64,49,0
157.22328,157.25453,60,49,0
157.22328,157.25453,55,49,0
157.53578,157.56703,62,49,0
157.53578,157.56703,59,49,0
157.53578,157.56703,55,49,0
157.84828,157.87953,64,49,0
157.84828,157.87953,60,49,0
157.84828,157.87953,55,49,0
158.16078,158.19203,66,49,0
158.16078,158.19203,63,49,0
158.16078,158.19203,59,49,0
158.47328,158.62953,67,114,0
158.47328,158.62953,65,114,0
158.47328,158.62953,62,114,0
158.62953,158.78578,55,114,0
158.78578,158.8014,67,114,0
158.78578,158.8014,65,114,0
158.78578,158.8014,62,114,0
158.94203,158.95766,67,114,0
158.94203,158.95766,65,114,0
158.94203,158.95766,62,114,0
159.09828,159.12953,67,114,0
159.09828,159.12953,65,114,0
159.09828,159.12953,62,114,0
159.41078,159.44203,68,114,0
159.41078,159.44203,65,114,0
159.41078,159.44203,62,114,0
159.72328,159.87953,67,114,0
159.72328,159.87953,65,114,0
159.72328,159.87953,62,114,0
159.87953,160.03578,55,114,0
160.03578,160.0514,67,114,0
160.03578,160.0514,65,114,0
160.03578,160.0514,62,114,0
160.19203,160.20766,67,114,0
160.19203,160.20766,65,114,0
160.19203,160.20766,62,114,0
160.34828,160.37953,67,114,0
160.34828,160.37953,65,114,0
160.34828,160.37953,62,114,0
160.66078,160.69203,68,114,0
160.66078,160.69203,65,114,0
160.66078,160.69203,62,114,0
160.97328,161.00453,67,114,0
160.97328,161.00453,65,114,0
160.97328,161.00453,62,114,0
161.28578,161.31703,68,114,0
161.28578,161.31703,65,114,0
161.28578,161.31703,62,114,0
161.59828,161.62953,67,114,0
161.59828,161.62953,65,114,0
161.59828,161.62953,62,114,0
161.91078,161.94203,68,114,0
161.91078,161.94203,65,114,0
161.91078,161.94203,62,114,0
162.22328,162.25453,69,114,0
162.22328,162.25453,65,114,0
162.22328,162.25453,62,114,0
162.53578,162.56703,70,114,0
162.53578,162.56703,65,114,0
162.53578,162.56703,62,114,0
162.84828,162.87953,71,114,0
162.84828,162.87953,65,114,0
162.84828,162.87953,62,114,0
163.16078,163.19203,72,114,0
163.16078,163.19203,69,114,0
163.16078,163.19203,63,114,0
163.47328,163.62953,72,114,0
163.62953,163.78578,76,114,0
163.78578,163.8014,76,114,0
163.78578,163.8014,72,114,0
163.94203,163.95766,76,114,0
163.94203,163.95766,72,114,0
164.09828,164.12953,76,114,0
164.09828,164.12953,72,114,0
164.41078,164.44203,77,114,0
164.41078,164.44203,76,114,0
164.72328,164.87953,81,114,0
164.87953,165.03578,79,114,0
165.03578,165.0514,79,114,0
165.19203,165.20766,79,114,0
165.34828,165.37953,79,114,0
165.66078,165.69203,79,114,0
165.66078,165.69203,67,114,0
165.66078,165.69203,71,114,0
165.66078,165.69203,74,114,0
165.97328,166.12953,79,88,0
166.12953,166.28578,67,49,0
166.28578,166.3014,67,49,0
166.44203,166.45766,67,49,0
166.59828,166.6139,67,49,0
166.75453,166.77016,67,49,0
166.91078,167.06703,71,49,0
167.06703,167.22328,74,49,0
167.22328,167.37953,72,49,0
167.37953,167.53578,67,49,0
167.53578,167.69203,71,49,0
167.69203,167.84828,74,49,0
167.84828,168.00453,72,49,0
168.00453,168.16078,67,49,0
168.16078,168.31703,71,49,0
168.31703,168.47328,74,49,0
168.47328,168.62953,72,49,0
168.62953,168.78578,67,49,0
168.78578,168.94203,72,49,0
168.94203,169.09828,76,49,0
169.09828,169.25453,79,75,0
169.25453,169.41078,84,75,0
169.41078,169.56703,88,75,0
169.56703,169.72328,91,75,0
169.72328,169.87953,91,75,0
169.87953,170.03578,79,75,0
170.03578,170.19203,92,75,0
170.19203,170.34828,80,75,0
170.34828,170.50453,93,88,0
170.50453,170.66078,81,88,0
170.66078,170.81703,93,88,0
170.81703,170.97328,81,88,0
170.97328,171.12953,81,88,0
171.12953,171.28578,69,49,0
171.28578,171.3014,69,49,0
171.44203,171.45766,69,49,0
171.59828,171.6139,69,49,0
171.75453,171.77016,69,49,0
171.91078,172.06703,73,49,0
172.06703,172.22328,76,49,0
172.22328,172.37953,74,49,0
172.37953,172.53578,69,49,0
172.53578,172.69203,73,49,0
172.69203,172.84828,76,49,0
172.84828,173.00453,74,49,0
173.00453,173.16078,69,49,0
173.16078,173.31703,73,49,0
173.31703,173.47328,76,49,0
173.47328,173.62953,74,49,0
173.62953,173.78578,69,49,0
173.78578,173.94203,74,49,0
173.94203,174.09828,77,49,0
174.09828,174.25453,81,75,0
174.25453,174.41078,86,75,0
174.41078,174.56703,89,75,0
174.56703,174.72328,93,75,0
174.72328,174.87953,93,75,0
174.87953,175.03578,81,75,0
175.03578,175.19203,93,75,0
175.19203,175.34828,81,75,0
175.34828,175.50453,94,75,0
175.50453,175.66078,82,75,0
175.66078,175.81703,94,75,0
175.81703,175.97328,82,75,0
175.97328,176.12953,95,88,0
176.12953,176.28578,83,88,0
176.28578,176.3014,83,88,0
176.28578,176.3014,77,88,0
176.28578,176.3014,71,88,0
176.44203,176.45766,83,88,0
176.44203,176.45766,77,88,0
176.44203,176.45766,71,88,0
176.59828,176.62953,83,88,0
176.59828,176.62953,77,88,0
176.59828,176.62953,71,88,0
176.91078,176.94203,83,114,0
176.91078,176.94203,77,114,0
176.91078,176.94203,71,114,0
177.22328,177.37953,84,114,0
177.22328,177.37953,72,114,0
177.37953,177.53578,76,114,0
177.53578,177.5514,76,114,0
177.53578,177.5514,72,114,0
177.69203,177.70766,76,114,0
177.69203,177.70766,72,114,0
177.84828,177.87953,76,114,0
177.84828,177.87953,72,114,0
178.16078,178.19203,81,114,0
178.16078,178.19203,69,114,0
178.16078,178.19203,72,114,0
178.16078,178.19203,75,114,0
178.78578,178.81703,74,114,0
178.78578,178.81703,72,114,0
178.78578,178.81703,67,114,0
179.41078,179.44203,79,114,0
179.41078,179.44203,67,114,0
179.41078,179.44203,71,114,0
179.41078,179.44203,74,114,0
179.72328,179.87953,79,75,0
179.87953,180.03578,76,49,0
180.03578,180.19203,67,49,0
180.19203,180.34828,76,49,0
180.34828,180.50453,67,49,0
180.66078,180.69203,67,49,0
180.66078,180.69203,65,49,0
180.97328,181.00453,67,49,0
180.97328,181.00453,64,49,0
181.28578,181.31703,67,49,0
181.28578,181.31703,65,49,0
181.59828,181.62953,67,49,0
181.59828,181.62953,64,49,0
181.91078,181.94203,67,49,0
181.91078,181.94203,65,49,0
182.22328,182.84828,67,49,0
182.22328,182.84828,64,49,0
183.16078,183.19203,76,49,0
183.16078,183.19203,74,49,0
183.62953,183.78578,73,49,0
183.78578,183.94203,76,49,0
183.94203,184.09828,81,49,0
184.09828,184.25453,85,49,0
184.25453,184.41078,88,49,0
184.41078,184.44203,93,114,0
184.41078,184.44203,81,114,0
184.72328,184.87953,81,75,0
184.87953,185.03578,77,49,0
185.03578,185.19203,69,49,0
185.19203,185.34828,77,49,0
185.34828,185.50453,69,49,0
185.66078,185.69203,69,49,0
185.66078,185.69203,67,49,0
185.97328,186.00453,69,49,0
185.97328,186.00453,65,49,0
186.28578,186.31703,69,49,0
186.28578,186.31703,67,49,0
186.59828,186.62953,69,49,0
186.59828,186.62953,65,49,0
186.91078,186.94203,69,49,0
186.91078,186.94203,67,49,0
187.22328,187.84828,69,75,0
187.22328,187.84828,65,75,0
188.16078,188.19203,77,75,0
188.16078,188.19203,75,75,0
188.62953,188.78578,74,88,0
188.78578,188.94203,77,88,0
188.94203,189.09828,82,88,0
189.09828,189.25453,86,88,0
189.25453,189.41078,89,88,0
189.41078,189.44203,94,88,0
189.41078,189.44203,82,88,0
190.03578,190.06703,83,101,0
190.03578,190.06703,71,101,0
190.03578,190.06703,74,101,0
190.03578,190.06703,77,101,0
190.66078,190.69203,84,101,0
190.66078,190.69203,72,101,0
190.66078,190.69203,75,101,0
190.66078,190.69203,81,101,0
192.53578,192.56703,74,49,0
192.53578,192.56703,72,49,0
192.53578,192.56703,65,49,0
193.16078,193.19203,79,49,0
193.16078,193.19203,67,49,0
193.16078,193.19203,71,49,0
193.16078,193.19203,74,49,0
195.89516,195.93422,74,49,0
195.66078,195.97328,75,49,0
195.93422,195.97328,75,49,0
195.97328,196.28578,74,49,0
196.28578,196.59828,72,49,0
196.59828,197.06703,79,75,0
197.06703,197.14516,75,49,0
197.14516,197.22328,72,49,0
197.22328,198.16078,67,49,0
198.16078,198.19203,67,49,0
198.47328,198.50453,67,49,0
198.47328,198.50453,65,49,0
198.78578,198.81703,67,49,0
198.78578,198.81703,63,49,0
199.09828,199.12953,67,49,0
199.09828,199.12953,62,49,0
199.41078,199.44203,75,49,0
199.41078,199.44203,66,49,0
199.72328,200.34828,75,49,0
200.34828,200.50453,74,49,0
199.72328,200.50453,67,49,0
200.89516,200.93422,75,49,0
200.66078,200.97328,77,49,0
200.93422,200.97328,77,49,0
200.97328,201.28578,75,49,0
201.28578,201.59828,74,49,0
201.59828,202.06703,80,75,0
202.06703,202.14516,77,49,0
202.14516,202.22328,74,49,0
202.22328,203.16078,67,49,0
203.16078,203.47328,67,49,0
203.47328,203.50453,68,49,0
203.47328,203.50453,67,49,0
203.78578,203.81703,71,49,0
203.78578,203.81703,67,49,0
204.09828,204.12953,72,75,0
204.09828,204.12953,67,75,0
204.41078,204.44203,74,75,0
204.41078,204.44203,67,75,0
204.72328,205.34828,77,75,0
205.34828,205.66078,75,75,0
204.72328,205.66078,67,75,0
205.89516,205.93422,62,75,0
205.66078,205.97328,63,75,0
205.93422,205.97328,63,75,0
205.97328,206.28578,62,75,0
206.28578,206.59828,60,75,0
206.59828,207.06703,67,101,0
207.06703,207.14516,63,75,0
207.14516,207.22328,60,75,0
207.22328,209.09828,56,75,0
209.72328,210.97328,67,49,0
209.72328,210.97328,63,49,0
209.72328,210.97328,60,49,0
210.97328,212.22328,67,49,0
210.97328,212.22328,62,49,0
210.97328,212.22328,59,49,0
217.22328,217.37953,60,49,0
217.37953,217.53578,55,49,0
217.53578,217.5514,55,49,0
217.69203,217.70766,55,49,0
217.84828,217.87953,55,49,0
218.39516,218.43422,59,88,0
218.16078,218.47328,60,88,0
218.43422,218.47328,60,88,0
218.47328,218.78578,59,88,0
218.78578,219.09828,57,88,0
219.09828,219.41078,59,88,0
219.64516,219.68422,59,88,0
219.41078,219.72328,60,88,0
219.68422,219.72328,60,88,0
219.72328,220.03578,59,88,0
220.03578,220.19203,57,88,0
220.19203,220.34828,59,88,0
220.34828,220.50453,60,88,0
220.66078,220.69203,62,88,0
220.66078,220.69203,53,88,0
220.66078,220.69203,55,88,0
220.66078,220.69203,59,88,0
220.97328,221.12953,60,49,0
221.12953,221.28578,55,49,0
221.28578,221.3014,55,49,0
221.44203,221.45766,55,49,0
221.59828,221.62953,55,49,0
222.14516,222.18422,59,49,0
221.91078,222.22328,60,49,0
222.18422,222.22328,60,49,0
222.22328,222.53578,59,49,0
222.53578,222.84828,57,49,0
222.84828,223.16078,59,49,0
223.39516,223.43422,59,49,0
223.16078,223.47328,60,49,0
223.43422,223.47328,60,49,0
223.47328,223.78578,59,49,0
223.78578,223.94203,57,49,0
223.94203,224.09828,59,49,0
224.09828,224.25453,60,49,0
224.41078,224.44203,62,49,0
224.41078,224.44203,53,49,0
224.41078,224.44203,55,49,0
224.41078,224.44203,59,49,0
229.64516,229.68422,62,75,0
229.41078,229.72328,64,75,0
229.68422,229.72328,64,75,0
229.72328,230.03578,62,75,0
230.03578,230.34828,59,75,0
230.34828,230.66078,62,75,0
230.89516,230.93422,62,75,0
230.66078,230.97328,64,75,0
230.93422,230.97328,64,75,0
230.97328,231.28578,62,75,0
231.28578,231.44203,59,75,0
231.44203,231.59828,62,75,0
231.59828,231.91078,64,75,0
232.14516,232.18422,76,49,0
231.91078,232.22328,77,49,0
232.18422,232.22328,77,49,0
231.91078,232.22328,65,49,0
232.22328,232.53578,76,49,0
232.53578,232.84828,74,49,0
232.84828,233.16078,76,49,0
233.39516,233.43422,76,49,0
233.16078,233.47328,77,49,0
233.43422,233.47328,77,49,0
233.47328,233.78578,76,49,0
233.78578,233.94203,74,49,0
233.94203,234.09828,76,49,0
234.09828,234.41078,77,49,0
234.41078,234.56703,76,75,0
234.64516,234.68422,62,75,0
234.68422,234.72328,64,75,0
234.72328,235.03578,62,75,0
235.03578,235.34828,59,75,0
235.34828,235.66078,62,75,0
235.89516,235.93422,62,75,0
235.66078,235.97328,64,75,0
235.93422,235.97328,64,75,0
235.97328,236.28578,62,75,0
236.28578,236.44203,59,75,0
236.44203,236.59828,62,75,0
236.59828,236.91078,64,75,0
237.14516,237.18422,76,49,0
236.91078,237.22328,77,49,0
237.18422,237.22328,77,49,0
236.91078,237.22328,65,49,0
237.22328,237.53578,76,49,0
237.53578,237.84828,74,49,0
237.84828,238.16078,76,49,0
238.39516,238.43422,76,49,0
238.16078,238.47328,77,49,0
238.43422,238.47328,77,49,0
238.47328,238.78578,76,49,0
238.78578,238.94203,74,49,0
238.94203,239.09828,76,49,0
239.09828,239.41078,77,49,0
239.41078,239.56703,76,49,0
239.64516,239.68422,62,49,0
239.68422,239.72328,64,49,0
239.72328,240.03578,62,75,0
240.03578,240.34828,59,75,0
240.34828,240.66078,62,75,0
240.89516,240.93422,62,75,0
240.66078,240.97328,64,75,0
240.93422,240.97328,64,75,0
240.97328,241.28578,62,75,0
241.28578,241.44203,59,75,0
241.44203,241.59828,62,75,0
241.59828,241.91078,64,75,0
242.14516,242.18422,60,75,0
241.91078,242.22328,62,75,0
242.18422,242.22328,62,75,0
242.22328,242.53578,60,75,0
242.53578,242.69203,58,75,0
242.69203,242.84828,60,75,0
242.84828,243.16078,62,75,0
243.16078,243.47328,60,75,0
243.47328,243.78578,58,75,0
243.78578,244.09828,57,75,0
244.09828,244.41078,55,75,0
244.41078,244.72328,65,49,0
244.41078,244.72328,59,49,0
244.41078,244.72328,53,49,0
244.72328,245.97328,62,49,0
244.72328,245.97328,57,49,0
245.97328,247.22328,61,49,0
245.97328,247.22328,57,49,0
248.39516,248.43422,76,49,0
248.16078,248.47328,77,49,0
248.43422,248.47328,77,49,0
248.47328,248.78578,76,49,0
248.78578,249.09828,74,49,0
249.09828,249.41078,81,75,0
249.41078,249.56703,77,49,0
249.56703,249.72328,74,49,0
249.72328,250.34828,69,49,0
250.34828,250.50453,70,49,0
250.50453,250.66078,73,49,0
250.66078,250.81703,67,49,0
250.81703,250.97328,70,49,0
250.97328,251.12953,64,49,0
251.12953,251.28578,67,49,0
251.28578,251.44203,61,49,0
251.44203,251.59828,64,49,0
251.59828,251.75453,67,49,0
251.75453,251.91078,70,49,0
251.91078,252.06703,73,49,0
252.06703,252.22328,76,49,0
252.22328,253.16078,69,49,0
253.39516,253.43422,76,49,0
253.16078,253.47328,77,49,0
253.43422,253.47328,77,49,0
253.47328,253.78578,76,49,0
253.78578,254.09828,74,49,0
254.09828,254.41078,81,75,0
254.41078,254.56703,77,49,0
254.56703,254.72328,74,49,0
254.72328,255.97328,70,49,0
255.97328,256.12952,58,49,0
256.12952,256.28577,59,49,0
256.28577,256.44202,62,49,0
256.44202,256.59827,65,49,0
256.59827,256.75452,68,49,0
256.75452,256.91077,70,49,0
256.91077,257.06702,71,49,0
257.06702,257.22327,77,49,0
257.22327,258.16077,70,49,0
258.39514,258.4342,73,49,0
258.4342,258.47327,75,49,0
258.16077,258.47327,70,49,0
258.47327,258.78577,73,49,0
258.78577,259.09827,72,49,0
259.09827,259.41077,82,49,0
259.41077,259.56702,79,49,0
259.56702,259.72327,76,49,0
259.72327,259.87952,72,49,0
259.87952,259.9967,73,49,0
259.95764,259.9967,73,49,0
259.9967,260.03577,75,49,0
260.03577,260.19202,73,49,0
260.27014,260.3092,73,49,0
260.3092,260.34827,75,49,0
260.19202,260.34827,72,49,0
260.34827,260.50452,73,49,0
260.58264,260.6217,73,49,0
260.6217,260.66077,75,49,0
260.50452,260.66077,72,49,0
260.66077,260.81702,73,49,0
260.89514,260.9342,73,49,0
260.9342,260.97327,75,49,0
260.81702,260.97327,72,49,0
260.97327,261.28577,73,49,0
261.28577,261.59827,72,49,0
261.59827,261.91077,82,75,0
261.91077,262.06702,79,49,0
262.06702,262.22327,76,49,0
262.22327,262.37952,72,49,0
262.37952,262.4967,73,49,0
262.45764,262.4967,73,49,0
262.4967,262.53577,75,49,0
262.53577,262.69202,73,49,0
262.77014,262.8092,73,49,0
262.8092,262.84827,75,49,0
262.69202,262.84827,72,49,0
262.84827,263.00452,73,49,0
263.08264,263.1217,73,49,0
263.1217,263.16077,75,49,0
263.00452,263.16077,72,49,0
263.16077,263.31702,73,49,0
263.39514,263.4342,73,49,0
263.4342,263.47327,75,49,0
263.31702,263.47327,72,49,0
263.47327,263.78577,73,49,0
263.78577,264.09827,72,49,0
264.09827,264.41077,85,75,0
264.41077,264.56702,82,49,0
264.56702,264.72327,79,49,0
264.72327,264.87952,76,49,0
264.87952,265.03577,79,49,0
265.03577,265.19202,76,49,0
265.19202,265.34827,73,49,0
265.34827,265.50452,72,49,0
265.50452,265.66077,73,49,0
265.66077,265.81702,70,49,0
265.81702,265.97327,67,49,0
265.97327,266.0514,65,36,0
266.0514,266.12952,72,36,0
266.12952,266.20764,68,36,0
266.20764,266.28577,72,36,0
266.28577,266.3639,68,36,0
266.3639,266.44202,72,36,0
266.44202,266.52014,68,36,0
266.52014,266.59827,72,36,0
266.59827,266.6764,68,36,0
266.6764,266.75452,72,36,0
266.75452,266.83264,68,36,0
266.83264,266.91077,72,36,0
266.91077,266.9889,68,36,0
266.9889,267.06702,72,36,0
267.06702,267.14514,68,36,0
267.14514,267.22327,72,36,0
267.22327,267.3014,68,36,0
267.3014,267.37952,72,36,0
267.37952,267.45764,68,36,0
267.45764,267.53577,72,36,0
267.53577,267.6139,68,36,0
267.6139,267.69202,72,36,0
267.69202,267.77014,68,36,0
267.77014,267.84827,72,36,0
267.84827,267.9264,68,36,0
267.9264,268.00452,72,36,0
268.00452,268.08264,68,36,0
268.08264,268.16077,72,36,0
268.16077,268.2389,68,36,0
268.2389,268.31702,72,36,0
268.31702,268.39514,68,36,0
268.39514,268.47327,72,36,0
268.47327,268.5514,68,36,0
268.5514,268.62952,72,36,0
268.62952,268.70764,68,36,0
268.70764,268.78577,72,36,0
268.78577,268.8639,68,36,0
268.8639,268.94202,72,36,0
268.94202,269.02014,68,36,0
269.02014,269.09827,72,36,0
269.09827,269.1764,68,36,0
269.1764,269.25452,72,36,0
269.25452,269.33264,68,36,0
269.33264,269.41077,72,36,0
269.41077,269.4889,68,36,0
269.4889,269.56702,72,36,0
269.56702,269.64514,68,36,0
269.64514,269.72327,72,36,0
269.72327,269.8014,68,36,0
269.8014,269.87952,72,36,0
269.87952,269.95764,68,36,0
269.95764,270.03577,72,36,0
270.03577,270.1139,68,36,0
270.1139,270.19202,72,36,0
270.19202,270.27014,68,36,0
270.27014,270.34827,72,36,0
270.34827,270.4264,68,36,0
270.4264,270.50452,72,36,0
270.50452,270.58264,68,36,0
270.58264,270.66077,72,36,0
270.66077,270.7389,68,36,0
270.7389,270.81702,72,36,0
270.81702,270.89514,68,36,0
270.89514,270.97327,72,36,0
270.97327,271.0514,68,36,0
271.0514,271.12952,72,36,0
271.12952,271.20764,68,36,0
271.20764,271.28577,72,36,0
271.28577,271.3639,68,36,0
271.3639,271.44202,72,36,0
271.44202,271.52014,68,36,0
271.52014,271.59827,72,36,0
271.59827,271.6764,67,36,0
271.6764,271.75452,70,36,0
271.75452,271.83264,67,36,0
271.83264,271.91077,70,36,0
271.91077,271.9889,65,36,0
271.9889,272.06702,68,36,0
272.06702,272.14514,65,36,0
272.14514,272.22327,68,36,0
272.22327,272.3014,64,36,0
272.3014,272.37952,67,36,0
272.37952,272.45764,64,36,0
272.45764,272.53577,67,36,0
272.53577,272.6139,65,36,0
272.6139,272.69202,68,36,0
272.69202,272.77014,65,36,0
272.77014,272.84827,68,36,0
272.84827,272.9264,67,36,0
272.9264,273.00452,70,36,0
273.00452,273.08264,67,36,0
273.08264,273.16077,70,36,0
273.16077,273.2389,65,36,0
273.2389,273.31702,71,36,0
273.31702,273.39514,65,36,0
273.39514,273.47327,71,36,0
273.47327,273.5514,64,36,0
273.5514,273.62952,72,36,0
273.62952,273.70764,64,36,0
273.70764,273.78577,72,36,0
273.78577,273.8639,64,36,0
273.8639,273.94202,72,36,0
273.94202,274.02014,64,36,0
274.02014,274.09827,72,36,0
274.09827,274.1764,64,36,0
274.1764,274.25452,70,36,0
274.25452,274.33264,64,36,0
274.33264,274.41077,70,36,0
274.41077,274.4889,64,36,0
274.4889,274.56702,70,36,0
274.56702,274.64514,64,36,0
274.64514,274.72327,70,36,0
274.72327,274.8014,64,36,0
274.8014,274.87952,67,36,0
274.87952,274.95764,64,36,0
274.95764,275.03577,70,36,0
275.03577,275.1139,67,36,0
275.1139,275.19202,70,36,0
275.19202,275.27014,67,36,0
275.27014,275.34827,73,36,0
275.34827,275.4264,70,36,0
275.4264,275.50452,73,36,0
275.50452,275.58264,70,36,0
275.58264,275.66077,76,36,0
275.66077,275.7389,73,36,0
275.7389,275.81702,76,36,0
275.81702,275.89514,73,36,0
275.89514,275.97327,79,36,0
275.97327,276.0514,76,36,0
276.0514,276.12952,79,36,0
276.12952,276.20764,76,36,0
276.20764,276.28577,82,36,0
276.28577,276.3639,80,36,0
276.3639,276.44202,79,36,0
276.44202,276.52014,77,36,0
276.52014,276.59827,76,36,0
276.59827,276.6764,75,36,0
276.6764,276.75452,73,36,0
276.75452,276.83264,72,36,0
276.83264,276.91077,70,36,0
276.91077,276.9889,68,36,0
276.9889,277.06702,67,36,0
277.06702,277.14514,65,36,0
277.14514,277.22327,64,36,0
277.22327,277.3014,65,36,0
277.3014,277.37952,68,36,0
277.37952,277.45764,65,36,0
277.45764,277.53577,68,36,0
277.53577,277.6139,65,36,0
277.6139,277.69202,68,36,0
277.69202,277.77014,65,36,0
277.77014,277.84827,68,36,0
277.84827,277.9264,65,36,0
277.9264,278.00452,68,36,0
278.00452,278.08264,65,36,0
278.08264,278.16077,68,36,0
278.16077,278.2389,65,36,0
278.2389,278.31702,68,36,0
278.31702,278.39514,65,36,0
278.39514,278.47327,68,36,0
278.47327,278.5514,65,36,0
278.5514,278.62952,68,36,0
278.62952,278.70764,65,36,0
278.70764,278.78577,72,36,0
278.78577,278.8639,68,36,0
278.8639,278.94202,72,36,0
278.94202,279.02014,68,36,0
279.02014,279.09827,77,36,0
279.09827,279.1764,72,36,0
279.1764,279.25452,77,36,0
279.25452,279.33264,72,36,0
279.33264,279.41077,80,36,0
279.41077,279.4889,77,36,0
279.4889,279.56702,80,36,0
279.56702,279.64514,77,36,0
279.64514,279.72327,84,36,0
279.72327,279.8014,80,36,0
279.8014,279.87952,84,36,0
279.87952,279.95764,80,36,0
279.95764,280.03577,89,62,0
280.03577,280.1139,87,36,0
280.1139,280.19202,85,36,0
280.19202,280.27014,84,36,0
280.27014,280.34827,82,36,0
280.34827,280.4264,80,36,0
280.4264,280.50452,79,36,0
280.50452,280.58264,77,36,0
280.58264,280.66077,75,36,0
280.66077,280.7389,73,36,0
280.7389,280.81702,72,36,0
280.81702,280.89514,70,36,0
280.89514,280.97327,68,36,0
280.97327,281.0514,65,36,0
281.0514,281.12952,77,36,0
281.12952,281.20764,68,36,0
281.20764,281.28577,77,36,0
281.28577,281.3639,65,36,0
281.3639,281.44202,77,36,0
281.44202,281.52014,68,36,0
281.52014,281.59827,77,36,0
281.59827,281.6764,65,62,0
281.6764,281.75452,77,62,0
281.75452,281.83264,68,62,0
281.83264,281.91077,77,62,0
281.91077,281.9889,65,62,0
281.9889,282.06702,77,62,0
282.06702,282.14514,68,62,0
282.14514,282.22327,77,62,0
282.22327,282.3014,66,62,0
282.3014,282.37952,78,62,0
282.37952,282.45764,69,62,0
282.45764,282.53577,78,62,0
282.53577,282.6139,66,62,0
282.6139,282.69202,78,62,0
282.69202,282.77014,69,62,0
282.77014,282.84827,78,62,0
282.84827,282.9264,66,75,0
282.9264,283.00452,78,75,0
283.00452,283.08264,69,75,0
283.08264,283.16077,78,75,0
283.16077,283.2389,66,75,0
283.2389,283.31702,78,75,0
283.31702,283.39514,69,75,0
283.39514,283.47327,78,75,0
283.47327,283.5514,67,88,0
283.5514,283.62952,79,88,0
283.62952,283.70764,73,88,0
283.70764,283.78577,79,88,0
283.78577,283.8639,67,88,0
283.8639,283.94202,79,88,0
283.94202,284.02014,73,88,0
284.02014,284.09827,79,88,0
284.09827,284.1764,67,88,0
284.1764,284.25452,79,88,0
284.25452,284.33264,73,88,0
284.33264,284.41077,79,88,0
284.41077,284.4889,67,88,0
284.4889,284.56702,79,88,0
284.56702,284.64514,73,88,0
284.64514,284.72327,79,88,0
284.72327,284.8014,67,88,0
284.8014,284.87952,79,88,0
284.87952,284.95764,73,88,0
284.95764,285.03577,79,88,0
285.03577,285.1139,67,88,0
285.1139,285.19202,79,88,0
285.19202,285.27014,73,88,0
285.27014,285.34827,79,88,0
285.34827,285.4264,67,88,0
285.4264,285.50452,79,88,0
285.50452,285.58264,73,88,0
285.58264,285.66077,79,88,0
285.66077,285.7389,67,88,0
285.7389,285.81702,79,88,0
285.81702,285.89514,73,88,0
285.89514,285.97327,79,88,0
285.97327,286.0514,67,88,0
286.0514,286.12952,79,88,0
286.12952,286.20764,73,88,0
286.20764,286.28577,79,88,0
286.28577,286.3639,67,88,0
286.3639,286.44202,79,88,0
286.44202,286.52014,73,88,0
286.52014,286.59827,79,88,0
286.59827,286.6764,67,88,0
286.6764,286.75452,79,88,0
286.75452,286.83264,73,88,0
286.83264,286.91077,79,88,0
286.91077,286.9889,67,88,0
286.9889,287.06702,79,88,0
287.06702,287.14514,73,88,0
287.14514,287.22327,79,88,0
287.22327,287.3014,67,88,0
287.3014,287.37952,79,88,0
287.37952,287.45764,73,88,0
287.45764,287.53577,79,88,0
287.53577,287.6139,67,88,0
287.6139,287.69202,79,88,0
287.69202,287.77014,73,88,0
287.77014,287.84827,79,88,0
287.84827,287.9264,67,88,0
287.9264,288.00452,79,88,0
288.00452,288.08264,73,88,0
288.08264,288.16077,79,88,0
288.16077,288.2389,67,88,0
288.2389,288.31702,79,88,0
288.31702,288.39514,73,88,0
288.39514,288.47327,79,88,0
288.47327,288.5514,67,88,0
288.5514,288.62952,79,88,0
288.62952,288.70764,76,88,0
288.62952,288.70764,73,88,0
288.70764,288.78577,79,88,0
288.78577,288.8639,67,88,0
288.8639,288.94202,79,88,0
288.94202,289.02014,76,88,0
288.94202,289.02014,73,88,0
289.02014,289.09827,79,88,0
289.09827,289.1764,67,88,0
289.1764,289.25452,79,88,0
289.25452,289.33264,76,88,0
289.25452,289.33264,73,88,0
289.33264,289.41077,79,88,0
289.41077,289.4889,67,88,0
289.4889,289.56702,79,88,0
289.56702,289.64514,76,88,0
289.56702,289.64514,73,88,0
289.64514,289.72327,79,88,0
289.72327,289.8014,67,88,0
289.8014,289.87952,79,88,0
289.87952,289.95764,76,88,0
289.95764,290.03577,79,88,0
290.03577,290.1139,67,88,0
290.1139,290.19202,79,88,0
290.19202,290.27014,76,88,0
290.27014,290.34827,79,88,0
290.34827,290.4264,67,88,0
290.4264,290.50452,79,88,0
290.50452,290.58264,76,88,0
290.58264,290.66077,79,88,0
290.66077,290.7389,67,88,0
290.7389,290.81702,79,88,0
290.81702,290.89514,76,88,0
290.89514,290.97327,79,88,0
290.97327,291.0514,70,88,0
291.0514,291.12952,79,88,0
291.12952,291.20764,76,88,0
291.20764,291.28577,79,88,0
291.28577,291.3639,70,88,0
291.3639,291.44202,79,88,0
291.44202,291.52014,76,88,0
291.52014,291.59827,79,88,0
291.59827,291.6764,70,88,0
291.6764,291.75452,79,88,0
291.75452,291.83264,76,88,0
291.83264,291.91077,79,88,0
291.91077,291.9889,70,88,0
291.9889,292.06702,79,88,0
292.06702,292.14514,76,88,0
292.14514,292.22327,79,88,0
292.22327,292.3014,70,88,0
292.3014,292.37952,79,88,0
292.37952,292.45764,76,88,0
292.45764,292.53577,79,88,0
292.53577,292.6139,70,75,0
292.6139,292.69202,79,75,0
292.69202,292.77014,76,75,0
292.77014,292.84827,79,75,0
292.84827,292.9264,70,62,0
292.9264,293.00452,79,62,0
293.00452,293.08264,76,62,0
293.08264,293.16077,79,62,0
293.16077,293.2389,70,62,0
293.2389,293.31702,79,62,0
293.31702,293.39514,76,62,0
293.39514,293.47327,79,62,0
293.47327,293.57745,70,49,0
293.57483,293.67902,79,49,0
293.6816,293.78577,76,49,0
293.78577,293.88995,70,49,0
293.88733,293.99152,79,49,0
293.9941,294.09827,76,49,0
294.09827,294.20245,70,49,0
294.19983,294.30402,79,49,0
294.3066,294.41077,76,49,0
294.41077,294.51495,70,49,0
294.51233,294.61652,79,49,0
294.6191,294.72327,76,49,0
294.72327,294.82745,70,49,0
294.82483,294.92902,79,49,0
294.9316,295.03577,76,49,0
295.03577,295.13995,70,49,0
295.13733,295.24152,79,49,0
295.2441,295.34827,76,49,0
295.34827,295.45245,70,49,0
295.44983,295.55402,79,49,0
295.5566,295.66077,76,49,0
295.66077,295.76495,70,49,0
295.76233,295.86652,79,49,0
295.8691,295.97327,76,49,0
295.97327,296.12952,71,49,0
296.12952,296.28577,80,49,0
296.12952,296.28577,77,49,0
296.28577,296.44202,71,49,0
296.44202,296.59827,80,49,0
296.44202,296.59827,77,49,0
296.59827,296.75452,71,49,0
296.75452,296.91077,80,49,0
296.75452,296.91077,77,49,0
296.91077,297.06702,71,49,0
297.06702,297.22327,80,49,0
297.06702,297.22327,77,49,0
298.39514,298.4342,68,49,0
298.16077,298.47327,69,49,0
298.4342,298.47327,69,49,0
298.47327,298.78577,68,49,0
298.78577,299.09827,66,49,0
299.09827,299.56702,73,75,0
299.56702,299.64514,69,49,0
299.64514,299.72327,66,49,0
299.72327,300.66077,61,49,0
300.66077,300.97327,66,49,0
300.97327,301.28577,65,49,0
301.28577,301.59827,66,49,0
301.59827,301.91077,68,49,0
301.91077,302.22327,69,49,0
301.91077,302.22327,66,49,0
301.91077,302.22327,60,49,0
302.22327,302.53577,61,49,0
302.53577,302.84827,60,49,0
302.84827,303.16077,64,49,0
303.16077,303.47327,69,49,0
303.16077,303.47327,63,49,0
303.47327,304.09827,69,49,0
303.47327,304.09827,63,49,0
304.09827,304.41077,68,49,0
304.09827,304.41077,64,49,0
303.47327,304.41077,59,49,0
305.89514,305.9342,71,49,0
305.66077,305.97327,72,49,0
305.9342,305.97327,72,49,0
305.97327,306.28577,71,49,0
306.28577,306.59827,69,49,0
306.59827,307.06702,76,75,0
307.06702,307.14514,72,49,0
307.14514,307.22327,69,49,0
307.22327,308.16077,64,49,0
308.16077,308.47327,69,49,0
308.47327,308.78577,68,49,0
308.78577,309.09827,69,49,0
309.09827,309.41077,71,49,0
309.41077,309.72327,72,49,0
309.41077,309.72327,69,49,0
309.41077,309.72327,63,49,0
309.72327,310.03577,64,49,0
310.03577,310.34827,63,49,0
310.34827,310.66077,67,49,0
310.66077,310.97327,72,49,0
310.66077,310.97327,66,49,0
310.97327,311.59827,72,49,0
310.97327,311.59827,65,49,0
311.59827,311.91077,71,49,0
311.59827,311.91077,67,49,0
310.97327,311.91077,62,49,0
312.14514,312.1842,75,49,0
311.91077,312.22327,77,49,0
312.1842,312.22327,77,49,0
312.22327,312.53577,75,49,0
312.53577,312.84827,74,49,0
312.84827,313.31702,80,49,0
313.31702,313.39514,77,49,0
313.39514,313.47327,74,49,0
313.47327,314.09827,67,49,0
314.64514,314.6842,75,49,0
314.41077,314.72327,77,49,0
314.6842,314.72327,77,49,0
314.72327,315.03577,75,49,0
315.03577,315.34827,74,49,0
315.34827,315.81702,80,49,0
315.81702,315.89514,77,49,0
315.89514,315.97327,74,49,0
315.97327,316.59827,67,49,0
317.14514,317.1842,75,49,0
316.91077,317.22327,77,49,0
317.1842,317.22327,77,49,0
317.22327,317.53577,75,49,0
317.53577,317.84827,74,49,0
317.84827,318.31702,80,49,0
318.31702,318.39514,77,49,0
318.39514,318.47327,74,49,0
318.47327,318.94202,83,75,0
318.94202,319.02014,80,49,0
319.02014,319.09827,77,49,0
319.09827,319.64514,86,75,0
319.64514,319.72327,84,49,0
319.72327,320.03577,83,49,0
319.72327,320.03577,79,49,0
320.89514,320.9342,63,49,0
320.66077,320.97327,65,75,0
320.9342,320.97327,65,49,0
320.97327,321.28577,63,49,0
321.28577,321.59827,62,49,0
321.59827,322.06702,68,75,0
322.06702,322.14514,65,49,0
322.14514,322.22327,62,49,0
322.22327,322.69202,71,114,0
322.69202,322.77014,68,88,0
322.77014,322.84827,65,88,0
322.84827,323.39514,74,114,0
323.39514,323.47327,72,88,0
323.47327,323.78577,71,88,0
323.47327,323.78577,67,88,0
323.78577,324.41077,67,88,0
324.41077,325.03577,67,88,0
325.03577,325.66077,67,88,0
325.66077,325.97327,67,88,0
325.97327,326.12952,68,88,0
326.12952,326.28577,56,88,0
326.28577,326.44202,60,88,0
326.44202,326.59827,63,88,0
326.59827,326.75452,68,88,0
326.75452,326.91077,56,88,0
326.91077,327.06702,62,88,0
327.06702,327.22327,65,88,0
327.22327,327.37952,68,88,0
327.37952,327.53577,56,88,0
327.53577,327.69202,62,88,0
327.69202,327.84827,65,88,0
327.84827,328.00452,68,88,0
328.00452,328.16077,65,88,0
328.16077,328.31702,69,88,0
328.16077,328.31702,63,88,0
328.31702,328.47327,65,88,0
328.47327,328.78577,70,88,0
328.47327,328.78577,62,88,0
329.09827,329.72327,70,49,0
329.72327,330.34827,70,49,0
330.34827,331.28577,70,49,0
331.28577,331.91077,82,75,0
331.28577,331.91077,70,75,0
331.91077,332.53577,80,75,0
331.91077,332.53577,68,75,0
332.53577,333.16077,77,75,0
332.53577,333.16077,65,75,0
333.16077,333.47327,75,75,0
333.16077,333.47327,68,75,0
333.16077,333.47327,66,75,0
333.47327,333.78577,73,75,0
333.47327,333.78577,68,75,0
333.47327,333.78577,65,75,0
333.78577,334.41077,73,88,0
334.41077,335.03577,73,88,0
335.03577,335.66077,73,88,0
335.66077,335.97327,73,88,0
335.97327,336.12952,74,88,0
336.12952,336.28577,62,88,0
336.28577,336.44202,66,88,0
336.44202,336.59827,69,88,0
336.59827,336.75452,74,88,0
336.75452,336.91077,62,88,0
336.91077,337.06702,68,88,0
337.06702,337.22327,71,88,0
337.22327,337.37952,74,88,0
337.37952,337.53577,62,88,0
337.53577,337.69202,68,88,0
337.69202,337.84827,71,88,0
337.84827,338.00452,74,88,0
338.00452,338.16077,71,88,0
338.16077,338.31702,75,88,0
338.16077,338.31702,69,88,0
338.31702,338.47327,71,88,0
338.47327,338.78577,76,88,0
338.47327,338.78577,68,88,0
338.78577,339.41077,88,88,0
338.78577,339.41077,76,88,0
339.41077,340.03577,88,88,0
339.41077,340.03577,76,88,0
340.03577,340.66077,88,88,0
340.03577,340.66077,76,88,0
340.66077,340.97327,88,88,0
340.66077,340.97327,76,88,0
340.97327,341.00452,93,101,0
340.97327,341.00452,84,101,0
340.97327,341.00452,81,101,0
341.28577,341.91077,81,101,0
341.28577,341.91077,69,101,0
341.28577,341.91077,72,101,0
341.28577,341.91077,75,101,0
341.91077,342.22327,81,101,0
341.91077,342.22327,69,101,0
341.91077,342.22327,72,101,0
341.91077,342.22327,75,101,0
342.22327,342.25452,82,101,0
342.22327,342.25452,74,101,0
342.22327,342.25452,70,101,0
342.53577,343.16077,93,101,0
342.53577,343.16077,81,101,0
342.53577,343.16077,84,101,0
342.53577,343.16077,87,101,0
343.16077,343.47327,93,101,0
343.16077,343.47327,81,101,0
343.16077,343.47327,84,101,0
343.16077,343.47327,87,101,0
343.47327,343.50452,94,101,0
343.47327,343.50452,86,101,0
343.47327,343.50452,82,101,0
343.78577,344.41077,81,101,0
343.78577,344.41077,69,101,0
343.78577,344.41077,72,101,0
343.78577,344.41077,75,101,0
344.41077,344.72327,81,101,0
344.41077,344.72327,69,101,0
344.41077,344.72327,72,101,0
344.41077,344.72327,75,101,0
344.72327,344.75452,82,101,0
344.72327,344.75452,74,101,0
344.72327,344.75452,70,101,0
345.03577,345.66077,93,101,0
345.03577,345.66077,81,101,0
345.03577,345.66077,84,101,0
345.03577,345.66077,87,101,0
345.66077,345.97327,93,101,0
345.66077,345.97327,81,101,0
345.66077,345.97327,84,101,0
345.66077,345.97327,87,101,0
345.97327,346.28577,93,101,0
345.97327,346.28577,81,101,0
345.97327,346.28577,84,101,0
345.97327,346.28577,88,101,0
346.59827,346.91077,88,101,0
346.59827,346.91077,76,101,0
346.59827,346.91077,81,101,0
346.59827,346.91077,84,101,0
347.22327,347.53577,88,101,0
347.22327,347.53577,76,101,0
347.22327,347.53577,81,101,0
347.22327,347.53577,83,101,0
347.84827,348.16077,88,101,0
347.84827,348.16077,76,101,0
347.84827,348.16077,80,101,0
347.84827,348.16077,83,101,0
348.47327,348.62952,69,101,0
348.62952,348.78577,57,101,0
348.78577,348.8014,57,101,0
348.94202,348.95764,57,101,0
349.09827,349.12952,57,101,0
349.41077,349.44202,59,49,0
349.41077,349.44202,56,49,0
349.41077,349.44202,52,49,0
349.72327,349.75452,60,49,0
349.72327,349.75452,57,49,0
349.72327,349.75452,52,49,0
350.03577,350.06702,59,49,0
350.03577,350.06702,56,49,0
350.03577,350.06702,52,49,0
350.34827,350.37952,60,49,0
350.34827,350.37952,57,49,0
350.34827,350.37952,52,49,0
350.66077,350.69202,59,49,0
350.66077,350.69202,56,49,0
350.66077,350.69202,52,49,0
350.97327,351.12952,69,114,0
351.12952,351.28577,57,114,0
351.28577,351.3014,57,114,0
351.44202,351.45764,57,114,0
351.59827,351.62952,57,114,0
351.91077,351.94202,59,49,0
351.91077,351.94202,56,49,0
351.91077,351.94202,52,49,0
352.22327,352.25452,60,49,0
352.22327,352.25452,57,49,0
352.22327,352.25452,52,49,0
352.53577,352.56702,59,49,0
352.53577,352.56702,56,49,0
352.53577,352.56702,52,49,0
352.84827,352.87952,60,49,0
352.84827,352.87952,57,49,0
352.84827,352.87952,52,49,0
353.16077,353.19202,62,49,0
353.16077,353.19202,59,49,0
353.16077,353.19202,56,49,0
353.47327,353.62952,72,114,0
353.62952,353.78577,60,114,0
353.78577,353.8014,60,114,0
353.94202,353.95764,60,114,0
354.09827,354.12952,60,114,0
354.41077,354.44202,62,49,0
354.41077,354.44202,59,49,0
354.41077,354.44202,55,49,0
354.72327,354.75452,64,49,0
354.72327,354.75452,60,49,0
354.72327,354.75452,55,49,0
355.03577,355.06702,62,49,0
355.03577,355.06702,59,49,0
355.03577,355.06702,55,49,0
355.34827,355.37952,64,49,0
355.34827,355.37952,60,49,0
355.34827,355.37952,55,49,0
355.66077,355.69202,62,49,0
355.66077,355.69202,59,49,0
355.66077,355.69202,55,49,0
355.97327,356.12952,72,114,0
356.12952,356.28577,60,114,0
356.28577,356.3014,60,114,0
356.44202,356.45764,60,114,0
356.59827,356.62952,60,114,0
356.91077,356.94202,62,49,0
356.91077,356.94202,59,49,0
356.91077,356.94202,55,49,0
357.22327,357.25452,64,49,0
357.22327,357.25452,60,49,0
357.22327,357.25452,55,49,0
357.53577,357.56702,62,49,0
357.53577,357.56702,59,49,0
357.53577,357.56702,55,49,0
357.84827,357.87952,64,49,0
357.84827,357.87952,60,49,0
357.84827,357.87952,55,49,0
358.16077,358.19202,66,49,0
358.16077,358.19202,63,49,0
358.16077,358.19202,59,49,0
358.47327,358.62952,67,114,0
358.47327,358.62952,65,114,0
358.47327,358.62952,62,114,0
358.62952,358.78577,55,114,0
358.78577,358.8014,67,114,0
358.78577,358.8014,65,114,0
358.78577,358.8014,62,114,0
358.94202,358.95764,67,114,0
358.94202,358.95764,65,114,0
358.94202,358.95764,62,114,0
359.09827,359.12952,67,114,0
359.09827,359.12952,65,114,0
359.09827,359.12952,62,114,0
359.41077,359.44202,68,114,0
359.41077,359.44202,65,114,0
359.41077,359.44202,62,114,0
359.72327,359.87952,67,114,0
359.72327,359.87952,65,114,0
359.72327,359.87952,62,114,0
359.87952,360.03577,55,114,0
360.03577,360.0514,67,114,0
360.03577,360.0514,65,114,0
360.03577,360.0514,62,114,0
360.19202,360.20764,67,114,0
360.19202,360.20764,65,114,0
360.19202,360.20764,62,114,0
360.34827,360.37952,67,114,0
360.34827,360.37952,65,114,0
360.34827,360.37952,62,114,0
360.66077,360.69202,68,114,0
360.66077,360.69202,65,114,0
360.66077,360.69202,62,114,0
360.97327,361.00452,67,114,0
360.97327,361.00452,65,114,0
360.97327,361.00452,62,114,0
361.28577,361.31702,68,114,0
361.28577,361.31702,65,114,0
361.28577,361.31702,62,114,0
361.59827,361.62952,67,114,0
361.59827,361.62952,65,114,0
361.59827,361.62952,62,114,0
361.91077,361.94202,68,114,0
361.91077,361.94202,65,114,0
361.91077,361.94202,62,114,0
362.22327,362.25452,69,114,0
362.22327,362.25452,65,114,0
362.22327,362.25452,62,114,0
362.53577,362.56702,70,114,0
362.53577,362.56702,65,114,0
362.53577,362.56702,62,114,0
362.84827,362.87952,71,114,0
362.84827,362.87952,65,114,0
362.84827,362.87952,62,114,0
363.16077,363.19202,72,114,0
363.16077,363.19202,69,114,0
363.16077,363.19202,63,114,0
363.47327,363.62952,69,114,0
363.47327,363.62952,64,114,0
363.47327,363.62952,61,114,0
363.62952,363.78577,73,114,0
363.78577,363.8014,73,114,0
363.78577,363.8014,69,114,0
363.78577,363.8014,64,114,0
363.94202,363.95764,73,114,0
363.94202,363.95764,69,114,0
363.94202,363.95764,64,114,0
364.09827,364.12952,73,114,0
364.09827,364.12952,69,114,0
364.09827,364.12952,64,114,0
364.41077,364.44202,75,114,0
364.41077,364.44202,66,114,0
364.41077,364.44202,69,114,0
364.41077,364.44202,72,114,0
364.72327,364.87952,78,114,0
364.72327,364.87952,74,114,0
364.87952,365.03577,76,114,0
365.03577,365.0514,76,114,0
365.03577,365.0514,74,114,0
365.19202,365.20764,76,114,0
365.19202,365.20764,74,114,0
365.34827,365.37952,76,114,0
365.34827,365.37952,68,114,0
365.34827,365.37952,71,114,0
365.34827,365.37952,74,114,0
365.66077,365.69202,76,114,0
365.66077,365.69202,68,114,0
365.66077,365.69202,71,114,0
365.66077,365.69202,74,114,0
365.97327,366.12952,76,88,0
366.12952,366.28577,64,49,0
366.28577,366.3014,64,49,0
366.44202,366.45764,64,49,0
366.59827,366.6139,64,49,0
366.75452,366.77014,64,49,0
366.91077,367.06702,68,49,0
367.06702,367.22327,71,49,0
367.22327,367.37952,69,49,0
367.37952,367.53577,64,49,0
367.53577,367.69202,68,49,0
367.69202,367.84827,71,49,0
367.84827,368.00452,69,49,0
368.00452,368.16077,64,49,0
368.16077,368.31702,68,49,0
368.31702,368.47327,71,49,0
368.47327,368.62952,69,49,0
368.62952,368.78577,64,49,0
368.78577,368.94202,69,49,0
368.94202,369.09827,73,49,0
369.09827,369.25452,76,49,0
369.25452,369.41077,81,49,0
369.41077,369.56702,85,49,0
369.56702,369.72327,88,49,0
369.72327,369.87952,88,75,0
369.87952,370.03577,76,75,0
370.03577,370.19202,89,75,0
370.19202,370.34827,77,75,0
370.34827,370.50452,90,88,0
370.50452,370.66077,78,88,0
370.66077,370.81702,90,88,0
370.81702,370.97327,78,88,0
370.97327,371.12952,78,88,0
371.12952,371.28577,66,49,0
371.28577,371.3014,66,49,0
371.44202,371.45764,66,49,0
371.59827,371.6139,66,49,0
371.75452,371.77014,66,49,0
371.91077,372.06702,70,49,0
372.06702,372.22327,73,49,0
372.22327,372.37952,71,49,0
372.37952,372.53577,66,49,0
372.53577,372.69202,70,49,0
372.69202,372.84827,73,49,0
372.84827,373.00452,71,49,0
373.00452,373.16077,66,49,0
373.16077,373.31702,70,49,0
373.31702,373.47327,73,49,0
373.47327,373.62952,71,49,0
373.62952,373.78577,66,49,0
373.78577,373.94202,71,49,0
373.94202,374.09827,74,49,0
374.09827,374.25452,78,49,0
374.25452,374.41077,83,49,0
374.41077,374.56702,86,49,0
374.56702,374.72327,90,49,0
374.72327,374.87952,90,75,0
374.87952,375.03577,78,75,0
375.03577,375.19202,90,75,0
375.19202,375.34827,78,75,0
375.34827,375.50452,91,75,0
375.50452,375.66077,79,75,0
375.66077,375.81702,91,75,0
375.81702,375.97327,79,75,0
375.97327,376.12952,92,88,0
376.12952,376.28577,80,88,0
376.28577,376.3014,80,88,0
376.28577,376.3014,74,88,0
376.28577,376.3014,68,88,0
376.44202,376.45764,80,88,0
376.44202,376.45764,74,88,0
376.44202,376.45764,68,88,0
376.59827,376.91077,80,88,0
376.59827,376.91077,74,88,0
376.59827,376.91077,68,88,0
376.91077,376.94202,80,114,0
376.91077,376.94202,74,114,0
376.91077,376.94202,68,114,0
377.22327,377.37952,81,114,0
377.22327,377.37952,69,114,0
377.37952,377.53577,73,114,0
377.53577,377.5514,73,114,0
377.53577,377.5514,69,114,0
377.69202,377.70764,73,114,0
377.69202,377.70764,69,114,0
377.84827,378.16077,73,114,0
377.84827,378.16077,69,114,0
378.16077,378.19202,78,114,0
378.16077,378.19202,66,114,0
378.16077,378.19202,69,114,0
378.16077,378.19202,72,114,0
378.78577,379.09827,71,114,0
378.78577,379.09827,69,114,0
378.78577,379.09827,64,114,0
379.41077,379.72327,76,114,0
379.41077,379.72327,64,114,0
379.41077,379.72327,68,114,0
379.41077,379.72327,71,114,0
379.72327,379.87952,76,75,0
379.87952,380.03577,73,49,0
380.03577,380.19202,64,49,0
380.19202,380.34827,73,49,0
380.34827,380.50452,64,49,0
380.66077,380.69202,64,49,0
380.66077,380.69202,62,49,0
380.97327,381.00452,64,49,0
380.97327,381.00452,61,49,0
381.28577,381.31702,64,49,0
381.28577,381.31702,62,49,0
381.59827,381.62952,64,49,0
381.59827,381.62952,61,49,0
381.91077,381.94202,64,49,0
381.91077,381.94202,62,49,0
382.22327,382.84827,64,49,0
382.22327,382.84827,61,49,0
383.16077,383.19202,73,49,0
383.16077,383.19202,71,49,0
383.62952,383.78577,70,49,0
383.78577,383.94202,73,49,0
383.94202,384.09827,78,49,0
384.09827,384.25452,82,49,0
384.25452,384.41077,85,49,0
384.41077,384.72327,90,114,0
384.41077,384.72327,78,114,0
384.72327,384.87952,78,75,0
384.87952,385.03577,74,49,0
385.03577,385.19202,66,49,0
385.19202,385.34827,74,49,0
385.34827,385.50452,66,49,0
385.66077,385.69202,66,49,0
385.66077,385.69202,64,49,0
385.97327,386.00452,66,49,0
385.97327,386.00452,62,49,0
386.28577,386.31702,66,49,0
386.28577,386.31702,64,49,0
386.59827,386.62952,66,49,0
386.59827,386.62952,62,49,0
386.91077,386.94202,66,49,0
386.91077,386.94202,64,49,0
387.22327,387.84827,66,49,0
387.22327,387.84827,62,49,0
388.16077,388.19202,74,49,0
388.16077,388.19202,72,49,0
388.62952,388.78577,71,49,0
388.78577,388.94202,74,49,0
388.94202,389.09827,79,49,0
389.09827,389.25452,83,49,0
389.25452,389.41077,86,49,0
389.41077,389.72327,91,114,0
389.41077,389.72327,79,114,0
390.03577,390.06702,80,101,0
390.03577,390.06702,74,101,0
390.03577,390.06702,68,101,0
390.66077,390.69202,81,101,0
390.66077,390.69202,69,101,0
390.66077,390.69202,72,101,0
390.66077,390.69202,78,101,0
392.53577,392.56702,71,49,0
392.53577,392.56702,69,49,0
392.53577,392.56702,62,49,0
393.78577,393.81702,76,49,0
393.78577,393.81702,64,49,0
393.78577,393.81702,68,49,0
393.78577,393.81702,71,49,0
395.89514,395.9342,71,49,0
395.66077,395.97327,72,49,0
395.9342,395.97327,72,49,0
395.97327,396.28577,71,49,0
396.28577,396.59827,69,49,0
396.59827,397.06702,76,75,0
397.06702,397.14514,72,49,0
397.14514,397.22327,69,49,0
397.22327,398.16077,64,49,0
398.16077,398.19202,64,75,0
398.47327,398.50452,64,75,0
398.47327,398.50452,62,75,0
398.79257,398.82666,64,75,0
398.79257,398.82666,60,75,0
399.1416,399.1791,64,75,0
399.1416,399.1791,59,75,0
399.52646,399.56815,72,75,0
399.52646,399.56815,63,75,0
399.95538,400.60757,72,75,0
400.60757,400.7706,71,75,0
399.95538,400.7706,64,75,0
401.17822,401.21896,72,75,0
400.93365,401.25974,74,75,0
401.21896,401.25974,74,75,0
401.25974,401.58582,72,75,0
401.58582,401.9119,71,75,0
401.9119,402.40103,77,101,0
402.40103,402.48257,74,75,0
402.48257,402.5641,71,75,0
402.5641,403.54233,64,75,0
403.54233,403.86844,64,75,0
403.86844,403.90103,65,75,0
403.86844,403.90103,64,75,0
404.19452,404.2271,68,75,0
404.19452,404.2271,64,75,0
404.5206,404.55322,69,75,0
404.5206,404.55322,64,75,0
404.84668,404.8793,71,75,0
404.84668,404.8793,64,75,0
405.1728,405.82495,74,75,0
405.82495,405.988,72,75,0
405.1728,405.988,64,75,0
406.3956,406.43637,59,88,0
406.15103,406.4771,60,88,0
406.43637,406.4771,60,88,0
406.4771,406.80322,59,88,0
406.80322,407.1293,57,88,0
407.1293,408.43365,64,88,0
408.43365,408.75974,62,88,0
408.75974,409.08582,60,88,0
409.08582,409.4119,59,88,0
409.4119,409.44452,60,88,0
409.4119,409.44452,57,88,0
409.738,409.7706,62,88,0
409.738,409.7706,53,88,0
409.738,409.7706,56,88,0
409.738,409.7706,59,88,0
410.0641,410.09668,63,88,0
410.0641,410.09668,53,88,0
410.0641,410.09668,57,88,0
410.0641,410.09668,60,88,0
410.39017,411.69452,64,49,0
410.39017,411.69452,60,49,0
410.39017,411.69452,57,49,0
411.69452,412.99887,64,49,0
411.69452,412.99887,59,49,0
411.69452,412.99887,56,49,0
412.99887,413.1619,65,49,0
413.1619,413.32495,60,49,0
413.32495,413.34125,60,49,0
413.488,413.5043,60,49,0
413.65103,413.9771,60,49,0
413.9771,414.00974,67,49,0
413.9771,414.00974,58,49,0
413.9771,414.00974,60,49,0
413.9771,414.00974,64,49,0
414.30322,414.33582,65,49,0
414.30322,414.33582,60,49,0
414.30322,414.33582,57,49,0
414.6293,414.6619,67,49,0
414.6293,414.6619,58,49,0
414.6293,414.6619,60,49,0
414.6293,414.6619,64,49,0
414.95538,414.988,69,49,0
414.95538,414.988,57,49,0
414.95538,414.988,60,49,0
414.95538,414.988,65,49,0
415.28146,415.3141,67,49,0
415.28146,415.3141,58,49,0
415.28146,415.3141,60,49,0
415.28146,415.3141,64,49,0
415.60757,415.7706,65,49,0
415.7706,415.93365,60,49,0
415.93365,415.94995,60,49,0
416.09668,416.113,60,49,0
416.25974,416.4228,60,49,0
416.83038,416.87115,64,88,0
416.58582,416.9119,65,88,0
416.87115,416.9119,65,88,0
416.9119,417.238,64,88,0
417.238,417.5641,62,88,0
417.5641,417.89017,64,88,0
418.13474,418.1755,60,88,0
418.1755,418.21625,62,88,0
417.89017,418.21625,65,88,0
418.21625,418.54236,60,88,0
418.54236,418.70538,59,88,0
418.70538,418.86844,60,88,0
418.86844,419.19452,62,88,0
419.19452,419.5206,64,88,0
419.19452,419.5206,59,88,0
419.19452,419.5206,56,88,0
419.5206,419.68365,65,49,0
419.68365,419.84668,60,49,0
419.84668,419.863,60,49,0
420.00974,420.02603,60,49,0
420.1728,420.49887,60,49,0
420.49887,420.53146,67,49,0
420.49887,420.53146,58,49,0
420.49887,420.53146,60,49,0
420.49887,420.53146,64,49,0
420.82495,420.85757,65,49,0
420.82495,420.85757,60,49,0
420.82495,420.85757,57,49,0
421.15103,421.18365,67,49,0
421.15103,421.18365,58,49,0
421.15103,421.18365,60,49,0
421.15103,421.18365,64,49,0
421.47714,421.50974,69,49,0
421.47714,421.50974,57,49,0
421.47714,421.50974,60,49,0
421.47714,421.50974,65,49,0
421.80322,421.83582,67,49,0
421.80322,421.83582,58,49,0
421.80322,421.83582,60,49,0
421.80322,421.83582,64,49,0
422.1293,422.29236,65,49,0
422.29236,422.45538,60,49,0
422.45538,422.47168,60,49,0
422.61844,422.63474,60,49,0
422.78146,422.94452,60,49,0
423.35214,423.39288,64,49,0
423.10757,423.43365,65,49,0
423.39288,423.43365,65,49,0
423.43365,423.75974,64,49,0
423.75974,424.08582,62,49,0
424.08582,424.4119,64,49,0
424.65646,424.69724,60,49,0
424.69724,424.738,62,49,0
424.4119,424.738,65,49,0
424.738,425.0641,60,49,0
425.0641,425.22714,59,49,0
425.22714,425.39017,60,49,0
425.39017,425.71625,62,49,0
425.71625,426.04236,64,49,0
425.71625,426.04236,59,49,0
425.71625,426.04236,56,49,0
435.33582,435.49887,64,49,0
435.49887,435.66193,64,49,0
435.66193,435.82495,64,49,0
435.82495,436.15103,64,49,0
436.15103,436.47714,64,49,0
436.64017,436.80322,64,49,0
436.80322,436.96625,64,49,0
436.96625,437.1293,64,49,0
437.1293,437.45538,64,49,0
437.45538,437.78146,64,49,0
439.0043,439.04507,59,49,0
438.75974,439.08582,60,49,0
439.04507,439.08582,60,49,0
439.08582,439.41193,59,49,0
439.41193,439.738,57,49,0
439.738,440.0641,59,49,0
440.30865,440.34943,59,49,0
440.0641,440.39017,60,49,0
440.34943,440.39017,60,49,0
440.39017,440.71625,59,49,0
440.71625,440.8793,57,49,0
440.8793,441.04236,59,49,0
441.04236,441.36844,60,49,0
441.613,441.65375,60,49,0
441.36844,441.69452,62,49,0
441.65375,441.69452,62,49,0
441.69452,442.0206,60,49,0
442.0206,442.3467,59,49,0
442.3467,442.6728,60,49,0
442.91736,442.9581,60,49,0
442.6728,442.99887,62,49,0
442.9581,442.99887,62,49,0
442.99887,443.32495,60,75,0
443.32495,443.488,59,75,0
443.488,443.65103,60,75,0
443.65103,443.97714,62,75,0
444.2217,444.26245,62,75,0
443.97714,444.30322,64,75,0
444.26245,444.30322,64,75,0
444.30322,444.6293,62,75,0
444.6293,444.79236,60,75,0
444.79236,444.95538,62,75,0
444.95538,445.28146,64,75,0
445.28146,445.60757,65,75,0
445.60757,445.93365,67,88,0
445.93365,446.25974,65,88,0
446.25974,446.58582,64,88,0
446.58582,446.91193,62,88,0
446.58582,446.91193,50,88,0
446.91193,447.238,60,88,0
447.238,447.2706,58,88,0
447.5641,447.5967,57,88,0
447.89017,447.9228,55,88,0
448.21625,449.19452,69,101,0
448.21625,449.19452,57,101,0
448.21625,449.19452,60,101,0
448.21625,449.19452,65,101,0
449.19452,449.5206,67,101,0
449.19452,449.5206,64,101,0
449.19452,449.5206,60,101,0
449.5206,449.8467,69,101,0
449.5206,449.8467,65,101,0
449.5206,449.8467,60,101,0
449.8467,450.1728,67,101,0
449.8467,450.1728,64,101,0
449.8467,450.1728,60,101,0
450.1728,450.49887,69,101,0
450.1728,450.49887,65,101,0
450.1728,450.49887,60,101,0
450.49887,450.82495,72,101,0
450.49887,450.82495,67,101,0
450.49887,450.82495,60,101,0
450.49887,450.82495,64,101,0
450.49887,450.82495,70,101,0
450.82495,451.80322,69,101,0
450.82495,451.80322,65,101,0
450.82495,451.80322,60,101,0
451.80322,452.1293,67,101,0
451.80322,452.1293,64,101,0
451.80322,452.1293,60,101,0
452.1293,452.45538,69,101,0
452.1293,452.45538,65,101,0
452.1293,452.45538,60,101,0
452.45538,452.7815,67,101,0
452.45538,452.7815,64,101,0
452.45538,452.7815,60,101,0
452.7815,453.10757,69,101,0
452.7815,453.10757,65,101,0
452.7815,453.10757,60,101,0
453.10757,453.43365,72,101,0
453.10757,453.43365,67,101,0
453.10757,453.43365,60,101,0
453.10757,453.43365,64,101,0
453.10757,453.43365,70,101,0
453.43365,454.41193,69,101,0
453.43365,454.41193,65,101,0
453.43365,454.41193,60,101,0
454.41193,454.738,69,101,0
454.41193,454.738,65,101,0
454.41193,454.738,60,101,0
454.738,455.71625,72,101,0
454.738,455.71625,60,101,0
454.738,455.71625,63,101,0
454.738,455.71625,69,101,0
455.71625,456.04236,72,101,0
455.71625,456.04236,60,101,0
455.71625,456.04236,63,101,0
455.71625,456.04236,69,101,0
456.04236,457.0206,75,101,0
456.04236,457.0206,63,101,0
456.04236,457.0206,69,101,0
456.04236,457.0206,72,101,0
458.56952,458.6103,71,49,0
458.32495,458.65103,72,49,0
458.6103,458.65103,72,49,0
458.65103,458.97714,71,49,0
458.97714,459.30322,69,49,0
459.30322,459.79236,75,49,0
459.79236,459.87387,72,49,0
459.87387,459.95538,69,49,0
459.95538,461.25974,64,49,0
459.95538,461.25974,60,49,0
459.95538,461.25974,57,49,0
461.25974,461.91193,64,49,0
461.25974,461.91193,59,49,0
461.25974,461.91193,57,49,0
461.91193,462.5641,64,49,0
461.91193,462.5641,59,49,0
461.91193,462.5641,56,49,0
463.78693,463.82767,59,49,0
463.54236,463.86844,60,49,0
463.82767,463.86844,60,49,0
463.86844,464.19452,59,49,0
464.19452,464.5206,57,49,0
464.5206,464.8467,59,49,0
465.09128,465.13202,59,49,0
464.8467,465.1728,60,49,0
465.13202,465.1728,60,49,0
465.1728,465.49887,59,49,0
465.49887,465.66193,57,49,0
465.66193,465.82495,59,49,0
465.82495,466.15103,60,49,0
466.3956,466.43637,60,49,0
466.15103,466.47714,62,49,0
466.43637,466.47714,62,49,0
466.47714,466.80322,60,62,0
466.80322,467.1293,59,62,0
467.1293,467.45538,60,62,0
467.69995,467.74072,60,62,0
467.45538,467.7815,62,62,0
467.74072,467.7815,62,62,0
467.7815,468.10757,60,75,0
468.10757,468.2706,59,75,0
468.2706,468.43365,60,75,0
468.43365,468.75974,62,75,0
469.0043,469.04507,62,75,0
468.75974,469.08582,64,75,0
469.04507,469.08582,64,75,0
469.08582,469.41193,62,75,0
469.41193,469.57495,60,75,0
469.57495,469.738,62,75,0
469.738,470.0641,64,75,0
470.0641,470.39017,65,75,0
470.39017,470.71628,67,88,0
470.71628,471.04236,65,88,0
471.04236,471.36844,64,88,0
471.36844,471.69452,62,88,0
471.36844,471.69452,50,88,0
471.69452,472.0206,60,88,0
472.0206,472.05322,58,88,0
472.3467,472.3793,57,88,0
472.6728,472.70538,55,88,0
472.99887,473.97714,69,88,0
472.99887,473.97714,63,88,0
472.99887,473.97714,60,88,0
473.97714,474.30322,70,88,0
473.97714,474.30322,64,88,0
473.97714,474.30322,61,88,0
474.30322,475.2815,69,88,0
474.30322,475.2815,63,88,0
474.30322,475.2815,60,88,0
475.2815,475.60757,70,88,0
475.2815,475.60757,64,88,0
475.2815,475.60757,61,88,0
475.60757,475.93365,71,88,0
475.60757,475.93365,66,88,0
475.60757,475.93365,62,88,0
475.93365,476.25974,70,88,0
475.93365,476.25974,66,88,0
475.93365,476.25974,61,88,0
476.25974,476.58582,71,88,0
476.25974,476.58582,66,88,0
476.25974,476.58582,62,88,0
476.58582,476.91193,73,88,0
476.58582,476.91193,66,88,0
476.58582,476.91193,64,88,0
476.91193,477.89017,71,88,0
476.91193,477.89017,66,88,0
476.91193,477.89017,62,88,0
477.89017,477.9228,73,88,0
477.89017,477.9228,66,88,0
477.89017,477.9228,64,88,0
478.21628,479.19452,71,88,0
478.21628,479.19452,66,88,0
478.21628,479.19452,62,88,0
479.19452,479.22714,73,88,0
479.19452,479.22714,66,88,0
479.19452,479.22714,64,88,0
479.5206,479.8467,74,88,0
479.5206,479.8467,66,88,0
479.8467,480.1728,73,88,0
479.8467,480.1728,66,88,0
479.8467,480.1728,64,88,0
480.1728,480.49887,74,88,0
480.1728,480.49887,66,88,0
480.49887,480.82495,76,88,0
480.49887,480.82495,67,88,0
480.82495,481.80322,74,88,0
480.82495,481.80322,66,88,0
481.80322,481.83585,74,88,0
481.80322,481.83585,71,88,0
481.80322,481.83585,66,88,0
482.1293,483.10757,76,88,0
482.1293,483.10757,73,88,0
482.1293,483.10757,70,88,0
483.10757,483.14017,76,88,0
483.10757,483.14017,73,88,0
483.10757,483.14017,70,88,0
483.43365,484.41193,77,88,0
483.43365,484.41193,73,88,0
483.43365,484.41193,70,88,0
484.41193,484.44452,77,88,0
484.41193,484.44452,73,88,0
484.41193,484.44452,70,88,0
484.738,485.71628,81,88,0
484.738,485.71628,69,88,0
484.738,485.71628,72,88,0
484.738,485.71628,75,88,0
485.71628,485.74887,81,88,0
485.71628,485.74887,69,88,0
485.71628,485.74887,72,88,0
485.71628,485.74887,75,88,0
486.04236,487.0206,84,88,0
486.04236,487.0206,72,88,0
486.04236,487.0206,76,88,0
486.04236,487.0206,81,88,0
487.0206,487.05322,84,88,0
487.0206,487.05322,72,88,0
487.0206,487.05322,76,88,0
487.0206,487.05322,81,88,0
487.3467,488.32495,88,88,0
487.3467,488.32495,76,88,0
487.3467,488.32495,81,88,0
487.3467,488.32495,83,88,0
488.32495,488.35757,88,88,0
488.32495,488.35757,76,88,0
488.32495,488.35757,80,88,0
488.32495,488.35757,83,88,0
488.65106,489.6293,93,101,0
488.65106,489.6293,81,101,0
488.65106,489.6293,84,101,0
488.65106,489.6293,88,101,0
489.6293,489.66193,92,101,0
489.6293,489.66193,80,101,0
489.6293,489.66193,83,101,0
489.6293,489.66193,88,101,0
489.95538,489.988,93,101,0
489.95538,489.988,81,101,0
489.95538,489.988,84,101,0
489.95538,489.988,88,101,0
490.2815,490.3141,92,101,0
490.2815,490.3141,80,101,0
490.2815,490.3141,83,101,0
490.2815,490.3141,88,101,0
490.60757,490.64017,93,101,0
490.60757,490.64017,81,101,0
490.60757,490.64017,84,101,0
490.60757,490.64017,88,101,0
490.93365,490.96628,95,101,0
490.93365,490.96628,83,101,0
490.93365,490.96628,86,101,0
490.93365,490.96628,88,101,0
491.25974,492.238,93,101,0
491.25974,492.238,81,101,0
491.25974,492.238,84,101,0
491.25974,492.238,88,101,0
492.238,492.27063,92,101,0
492.238,492.27063,80,101,0
492.238,492.27063,83,101,0
492.238,492.27063,88,101,0
492.5641,492.5967,93,101,0
492.5641,492.5967,81,101,0
492.5641,492.5967,84,101,0
492.5641,492.5967,88,101,0
492.89017,492.9228,92,101,0
492.89017,492.9228,80,101,0
492.89017,492.9228,83,101,0
492.89017,492.9228,88,101,0
493.21628,493.24887,93,101,0
493.21628,493.24887,81,101,0
493.21628,493.24887,84,101,0
493.21628,493.24887,88,101,0
493.54236,493.57495,95,101,0
493.54236,493.57495,83,101,0
493.54236,493.57495,86,101,0
493.54236,493.57495,88,101,0
493.86844,494.19452,93,101,0
493.86844,494.19452,81,101,0
493.86844,494.19452,84,101,0
493.86844,494.19452,88,101,0
494.19452,494.52063,95,101,0
494.19452,494.52063,83,101,0
494.19452,494.52063,88,101,0
494.19452,494.52063,92,101,0
494.52063,494.8467,96,101,0
494.52063,494.8467,84,101,0
494.52063,494.8467,88,101,0
494.52063,494.8467,93,101,0
494.8467,495.1728,95,101,0
494.8467,495.1728,83,101,0
494.8467,495.1728,88,101,0
494.8467,495.1728,92,101,0
495.1728,495.49887,96,101,0
495.1728,495.49887,84,101,0
495.1728,495.49887,88,101,0
495.1728,495.49887,93,101,0
495.49887,495.82495,95,101,0
495.49887,495.82495,83,101,0
495.49887,495.82495,88,101,0
495.49887,495.82495,92,101,0
495.82495,496.15106,96,101,0
495.82495,496.15106,84,101,0
495.82495,496.15106,88,101,0
495.82495,496.15106,93,101,0
496.15106,496.47714,95,101,0
496.15106,496.47714,83,101,0
496.15106,496.47714,88,101,0
496.15106,496.47714,92,101,0
496.47714,496.80322,93,101,0
496.47714,496.80322,81,101,0
496.47714,496.80322,84,101,0
496.47714,496.80322,88,101,0
497.1293,497.45538,88,101,0
497.1293,497.45538,76,101,0
497.1293,497.45538,80,101,0
497.1293,497.45538,83,101,0
497.7815,498.10757,88,101,0
497.7815,498.10757,76,101,0
497.7815,498.10757,81,101,0
497.7815,498.10757,84,101,0
498.43365,498.75974,88,101,0
498.43365,498.75974,76,101,0
498.43365,498.75974,80,101,0
498.43365,498.75974,83,101,0
499.08585,500.0641,69,114,0
499.08585,500.0641,57,114,0
500.0641,500.39017,68,114,0
500.0641,500.39017,56,114,0
500.39017,500.71628,69,114,0
500.39017,500.71628,57,114,0
500.71628,501.04236,68,114,0
500.71628,501.04236,56,114,0
501.04236,501.36844,69,114,0
501.04236,501.36844,57,114,0
501.36844,501.69452,71,114,0
501.36844,501.69452,59,114,0
501.69452,502.02063,69,114,0
501.69452,502.02063,57,114,0
502.02063,502.18365,68,114,0
502.02063,502.18365,56,114,0
502.18365,502.3467,69,114,0
502.18365,502.3467,57,114,0
502.3467,502.6728,71,114,0
502.3467,502.6728,59,114,0
502.6728,502.99887,72,114,0
502.6728,502.99887,60,114,0
502.99887,503.97714,69,114,0
502.99887,503.97714,57,114,0
503.97714,504.30322,68,114,0
503.97714,504.30322,56,114,0
504.30322,504.6293,69,114,0
504.30322,504.6293,57,114,0
504.6293,504.9554,68,114,0
504.6293,504.9554,56,114,0
504.9554,505.2815,69,114,0
504.9554,505.2815,57,114,0
505.2815,505.60757,71,114,0
505.2815,505.60757,59,114,0
505.60757,505.93365,69,114,0
505.60757,505.93365,57,114,0
505.93365,506.0967,68,114,0
505.93365,506.0967,56,114,0
506.0967,506.25974,69,114,0
506.0967,506.25974,57,114,0
506.25974,506.58585,71,114,0
506.25974,506.58585,59,114,0
506.58585,506.91193,72,114,0
506.58585,506.91193,60,114,0
506.91193,507.238,69,114,0
506.91193,507.238,57,114,0
508.21628,508.86844,76,114,0
508.21628,508.86844,64,114,0
508.21628,508.86844,68,114,0
508.21628,508.86844,71,114,0
509.52063,510.1728,81,114,0
509.52063,510.1728,69,114,0
509.52063,510.1728,72,114,0
509.52063,510.1728,76,114,0
11.767888,13.767888,75,62,0
11.767888,13.767888,69,62,0
13.767888,13.924138,68,62,0
18.299137,18.455387,62,62,0
18.455387,18.611637,65,62,0
23.299137,23.455387,74,62,0
23.455387,23.611637,77,62,0
48.767887,49.080387,67,101,0
48.767887,49.080387,64,101,0
49.080387,49.096012,67,101,0
49.080387,49.096012,64,101,0
49.236637,49.252262,67,101,0
49.236637,49.252262,64,101,0
49.392887,49.424137,67,101,0
49.392887,49.424137,64,101,0
49.705387,49.736637,72,101,0
49.705387,49.736637,69,101,0
50.017887,50.330387,77,101,0
50.017887,50.330387,74,101,0
50.017887,50.330387,71,101,0
50.330387,50.346012,77,101,0
50.330387,50.346012,74,101,0
50.330387,50.346012,71,101,0
50.486637,50.502262,77,101,0
50.486637,50.502262,74,101,0
50.486637,50.502262,71,101,0
50.642887,50.674137,77,101,0
50.642887,50.674137,74,101,0
50.642887,50.674137,71,101,0
73.14289,73.29914,65,62,0
73.29914,73.45539,69,62,0
73.45539,73.48664,69,62,0
73.45539,73.48664,57,62,0
73.76789,74.39289,70,88,0
73.76789,74.39289,58,88,0
93.14289,93.45539,65,75,0
93.45539,93.76789,63,75,0
93.76789,94.08039,62,88,0
94.08039,94.39289,63,88,0
94.08039,94.39289,60,88,0
94.39289,94.70539,65,88,0
94.39289,94.70539,56,88,0
94.39289,94.70539,59,88,0
94.39289,94.70539,62,88,0
94.70539,95.01789,66,88,0
94.70539,95.01789,56,88,0
94.70539,95.01789,60,88,0
94.70539,95.01789,63,88,0
97.51789,97.67414,60,49,0
97.67414,97.83039,55,49,0
97.83039,97.846016,55,49,0
97.98664,98.002266,55,49,0
98.14289,98.17414,55,49,0
98.45539,98.48664,62,49,0
98.45539,98.48664,53,49,0
98.45539,98.48664,55,49,0
98.45539,98.48664,59,49,0
98.76789,98.79914,60,49,0
98.76789,98.79914,55,49,0
98.76789,98.79914,52,49,0
99.08039,99.11164,62,49,0
99.08039,99.11164,53,49,0
99.08039,99.11164,55,49,0
99.08039,99.11164,59,49,0
99.39289,99.42414,64,49,0
99.39289,99.42414,52,49,0
99.39289,99.42414,55,49,0
99.39289,99.42414,60,49,0
99.70539,99.73664,62,49,0
99.70539,99.73664,53,49,0
99.70539,99.73664,55,49,0
99.70539,99.73664,59,49,0
100.01789,100.17414,60,49,0
100.17414,100.33039,55,49,0
100.33039,100.346016,55,49,0
100.48664,100.502266,55,49,0
100.64289,100.67414,55,49,0
100.95539,100.98664,62,49,0
100.95539,100.98664,53,49,0
100.95539,100.98664,55,49,0
100.95539,100.98664,59,49,0
101.26789,101.29914,60,49,0
101.26789,101.29914,55,49,0
101.26789,101.29914,52,49,0
101.58039,101.61164,62,49,0
101.58039,101.61164,53,49,0
101.58039,101.61164,55,49,0
101.58039,101.61164,59,49,0
101.89289,101.92414,64,49,0
101.89289,101.92414,52,49,0
101.89289,101.92414,55,49,0
101.89289,101.92414,60,49,0
102.20539,102.23664,62,49,0
102.20539,102.23664,53,49,0
102.20539,102.23664,55,49,0
102.20539,102.23664,59,49,0
102.51789,103.45539,52,36,0
106.26789,107.20539,52,36,0
110.01789,110.17414,60,49,0
110.17414,110.33039,55,49,0
110.33039,110.346016,55,49,0
110.48664,110.502266,55,49,0
110.64289,110.67414,55,49,0
110.95539,110.98664,62,49,0
110.95539,110.98664,53,49,0
110.95539,110.98664,55,49,0
110.95539,110.98664,59,49,0
111.26789,111.42414,60,49,0
111.42414,111.58039,55,49,0
111.58039,111.596016,55,49,0
111.73664,111.752266,55,49,0
111.89289,111.92414,55,49,0
112.20539,112.23664,62,49,0
112.20539,112.23664,53,49,0
112.20539,112.23664,55,49,0
112.20539,112.23664,59,49,0
112.51789,112.67414,60,49,0
112.67414,112.83039,55,49,0
112.83039,112.846016,55,49,0
112.98664,113.002266,55,49,0
113.14289,113.17414,55,49,0
113.45539,113.48664,64,49,0
113.45539,113.48664,56,49,0
113.45539,113.48664,52,49,0
126.473274,128.47328,75,62,0
126.473274,128.47328,69,62,0
128.47328,128.62953,68,62,0
133.00453,133.16078,62,62,0
133.16078,133.31703,65,62,0
138.00453,138.16078,74,62,0
138.16078,138.31703,77,62,0
163.47328,163.78578,67,101,0
163.47328,163.78578,64,101,0
163.78578,163.8014,67,101,0
163.78578,163.8014,64,101,0
163.94203,163.95766,67,101,0
163.94203,163.95766,64,101,0
164.09828,164.12953,67,101,0
164.09828,164.12953,64,101,0
164.41078,164.44203,72,101,0
164.41078,164.44203,69,101,0
164.72328,165.03578,77,101,0
164.72328,165.03578,74,101,0
164.72328,165.03578,71,101,0
165.03578,165.0514,77,101,0
165.03578,165.0514,74,101,0
165.03578,165.0514,71,101,0
165.19203,165.20766,77,101,0
165.19203,165.20766,74,101,0
165.19203,165.20766,71,101,0
165.34828,165.37953,77,101,0
165.34828,165.37953,74,101,0
165.34828,165.37953,71,101,0
187.84828,188.00453,65,62,0
188.00453,188.16078,69,62,0
188.16078,188.19203,69,62,0
188.16078,188.19203,57,62,0
188.47328,189.09828,70,88,0
188.47328,189.09828,58,88,0
207.84828,208.16078,65,75,0
208.16078,208.47328,63,75,0
208.47328,208.78578,62,88,0
208.78578,209.09828,63,88,0
208.78578,209.09828,60,88,0
209.09828,209.41078,65,88,0
209.09828,209.41078,56,88,0
209.09828,209.41078,59,88,0
209.09828,209.41078,62,88,0
209.41078,209.72328,66,88,0
209.41078,209.72328,56,88,0
209.41078,209.72328,60,88,0
209.41078,209.72328,63,88,0
212.22328,212.37953,60,49,0
212.37953,212.53578,55,49,0
212.53578,212.5514,55,49,0
212.69203,212.70766,55,49,0
212.84828,212.87953,55,49,0
213.16078,213.19203,62,49,0
213.16078,213.19203,53,49,0
213.16078,213.19203,55,49,0
213.16078,213.19203,59,49,0
213.47328,213.50453,60,49,0
213.47328,213.50453,55,49,0
213.47328,213.50453,52,49,0
213.78578,213.81703,62,49,0
213.78578,213.81703,53,49,0
213.78578,213.81703,55,49,0
213.78578,213.81703,59,49,0
214.09828,214.12953,64,49,0
214.09828,214.12953,52,49,0
214.09828,214.12953,55,49,0
214.09828,214.12953,60,49,0
214.41078,214.44203,62,49,0
214.41078,214.44203,53,49,0
214.41078,214.44203,55,49,0
214.41078,214.44203,59,49,0
214.72328,214.87953,60,49,0
214.87953,215.03578,55,49,0
215.03578,215.0514,55,49,0
215.19203,215.20766,55,49,0
215.34828,215.37953,55,49,0
215.66078,215.69203,62,49,0
215.66078,215.69203,53,49,0
215.66078,215.69203,55,49,0
215.66078,215.69203,59,49,0
215.97328,216.00453,60,49,0
215.97328,216.00453,55,49,0
215.97328,216.00453,52,49,0
216.28578,216.31703,62,49,0
216.28578,216.31703,53,49,0
216.28578,216.31703,55,49,0
216.28578,216.31703,59,49,0
216.59828,216.62953,64,49,0
216.59828,216.62953,52,49,0
216.59828,216.62953,55,49,0
216.59828,216.62953,60,49,0
216.91078,216.94203,62,49,0
216.91078,216.94203,53,49,0
216.91078,216.94203,55,49,0
216.91078,216.94203,59,49,0
217.22328,218.16078,52,36,0
220.97328,221.91078,52,36,0
224.72328,224.87953,60,49,0
224.87953,225.03578,55,49,0
225.03578,225.0514,55,49,0
225.19203,225.20766,55,49,0
225.34828,225.37953,55,49,0
225.66078,225.69203,62,49,0
225.66078,225.69203,53,49,0
225.66078,225.69203,55,49,0
225.66078,225.69203,59,49,0
225.97328,226.12953,60,49,0
226.12953,226.28578,55,49,0
226.28578,226.3014,55,49,0
226.44203,226.45766,55,49,0
226.59828,226.62953,55,49,0
226.91078,226.94203,62,49,0
226.91078,226.94203,53,49,0
226.91078,226.94203,55,49,0
226.91078,226.94203,59,49,0
227.22328,227.37953,60,49,0
227.37953,227.53578,55,49,0
227.53578,227.5514,55,49,0
227.69203,227.70766,55,49,0
227.84828,227.87953,55,49,0
228.16078,228.19203,64,49,0
228.16078,228.19203,56,49,0
228.16078,228.19203,52,49,0
255.34828,255.66078,68,49,0
255.66078,255.81703,65,49,0
255.81703,255.97328,62,49,0
285.34827,285.37952,69,101,0
285.66077,285.69202,69,101,0
287.84827,287.87952,69,101,0
288.16077,288.19202,69,101,0
289.09827,289.12952,70,101,0
289.41077,289.44202,70,101,0
290.34827,290.37952,71,101,0
290.66077,290.69202,71,101,0
291.59827,291.62952,72,101,0
291.91077,291.94202,72,101,0
294.09827,294.12952,73,49,0
294.41077,294.44202,73,49,0
302.22327,302.84827,69,49,0
302.22327,302.84827,66,49,0
302.84827,303.47327,59,49,0
309.72327,310.34827,72,49,0
309.72327,310.34827,69,49,0
310.34827,310.97327,62,49,0
314.72327,315.66077,71,49,0
317.22327,318.16077,71,49,0
319.09827,319.72327,78,49,0
320.97327,321.91077,59,49,0
322.84827,323.47327,66,49,0
364.72327,365.03577,71,49,0
364.72327,365.03577,68,49,0
365.03577,365.0514,71,49,0
365.03577,365.0514,68,49,0
365.19202,365.20764,71,49,0
365.19202,365.20764,68,49,0
407.61844,407.69995,60,88,0
407.69995,407.78146,57,88,0
407.78146,409.738,53,88,0
412.99887,413.9771,57,49,0
415.60757,416.58582,57,49,0
419.5206,420.49887,57,49,0
422.1293,423.10757,57,49,0
435.1728,436.47714,60,36,0
435.1728,436.47714,57,36,0
436.47714,437.78146,59,36,0
436.47714,437.78146,56,36,0
0.234375,0.2734375,59,36,0
0.0,0.3125,60,36,0
0.2734375,0.3125,60,36,0
0.3125,0.625,59,36,0
0.625,0.9375,57,36,0
0.9375,1.40625,64,62,0
1.40625,1.484375,60,36,0
1.484375,1.5625,57,36,0
1.5625,2.5,52,36,0
2.5,2.53125,52,62,0
2.5,2.53125,48,62,0
2.8125,2.84375,52,62,0
2.8125,2.84375,47,62,0
3.1317935,3.1658845,52,62,0
3.1317935,3.1658845,45,62,0
3.4808195,3.5183196,52,62,0
3.4808195,3.5183196,43,62,0
3.865688,3.9073546,52,62,0
3.865688,3.9073546,41,62,0
4.2946095,5.2728705,52,62,0
4.2946095,5.2728705,40,62,0
5.5174356,5.5581965,60,36,0
5.2728705,5.5989575,62,36,0
5.5581965,5.5989575,62,36,0
5.5989575,5.9250445,60,36,0
5.9250445,6.2511315,59,36,0
6.2511315,6.740262,65,62,0
6.740262,6.8217835,62,36,0
6.8217835,6.9033055,59,36,0
6.9033055,7.8815665,52,36,0
7.8815665,7.914175,52,62,0
7.8815665,7.914175,50,62,0
8.207653,8.240262,52,62,0
8.207653,8.240262,48,62,0
8.541151,8.576866,52,62,0
8.541151,8.576866,47,62,0
8.907223,8.946696,52,62,0
8.907223,8.946696,45,62,0
9.312925,9.357042,52,62,0
9.312925,9.357042,44,62,0
9.767888,11.767888,54,62,0
9.767888,11.767888,42,62,0
11.767888,13.767888,53,62,0
11.767888,13.767888,41,62,0
13.767888,14.392888,52,62,0
14.392888,15.017888,52,62,0
15.017888,15.642888,52,62,0
15.642888,16.267887,52,62,0
16.267887,16.580387,52,62,0
16.267887,16.580387,40,62,0
16.580387,16.892887,52,62,0
16.580387,16.892887,40,62,0
16.892887,17.205387,52,62,0
16.892887,17.205387,40,62,0
17.205387,17.517887,52,62,0
17.205387,17.517887,40,62,0
17.517887,17.830387,52,62,0
17.517887,17.830387,40,62,0
17.830387,18.142887,52,62,0
17.830387,18.142887,40,62,0
18.142887,18.455387,52,88,0
18.142887,18.455387,40,80,0
18.455387,18.767887,52,62,0
18.455387,18.767887,40,62,0
18.767887,19.392887,52,62,0
18.767887,19.392887,40,62,0
19.392887,20.017887,64,62,0
19.392887,20.017887,52,62,0
20.017887,20.642887,64,62,0
20.017887,20.642887,52,62,0
20.642887,21.267887,64,62,0
20.642887,21.267887,52,62,0
21.267887,21.580387,64,62,0
21.267887,21.580387,52,62,0
21.267887,21.580387,57,62,0
21.267887,21.580387,60,62,0
21.580387,21.892887,64,62,0
21.580387,21.892887,52,62,0
21.580387,21.892887,57,62,0
21.580387,21.892887,60,62,0
21.892887,22.205387,64,62,0
21.892887,22.205387,52,62,0
21.892887,22.205387,57,62,0
21.892887,22.205387,60,62,0
22.205387,22.517887,64,62,0
22.205387,22.517887,52,62,0
22.205387,22.517887,57,62,0
22.205387,22.517887,60,62,0
22.517887,22.830387,64,62,0
22.517887,22.830387,52,62,0
22.517887,22.830387,59,62,0
22.517887,22.830387,62,62,0
22.830387,23.142887,64,62,0
22.830387,23.142887,52,62,0
22.830387,23.142887,59,62,0
22.830387,23.142887,62,62,0
23.142887,23.455387,64,88,0
23.142887,23.455387,52,76,0
23.142887,23.455387,59,80,0
23.142887,23.455387,62,84,0
23.455387,23.767887,64,62,0
23.455387,23.767887,52,62,0
23.455387,23.767887,59,62,0
23.455387,23.767887,62,62,0
23.767887,24.392887,64,75,0
23.767887,24.392887,52,75,0
24.392887,25.017887,64,75,0
24.392887,25.017887,52,75,0
25.017887,25.642887,64,75,0
25.017887,25.642887,52,75,0
25.642887,26.267887,64,75,0
25.642887,26.267887,52,75,0
26.267887,26.299137,65,88,0
26.267887,26.299137,53,88,0
26.580387,27.205387,65,88,0
26.580387,27.205387,53,88,0
27.205387,27.517887,65,88,0
27.205387,27.517887,53,88,0
27.517887,27.549137,65,88,0
27.517887,27.549137,53,88,0
27.830387,28.455387,53,88,0
27.830387,28.455387,41,88,0
28.455387,28.767887,53,88,0
28.455387,28.767887,41,88,0
28.767887,28.799137,53,88,0
28.767887,28.799137,41,88,0
29.080387,29.705387,65,88,0
29.080387,29.705387,53,88,0
29.705387,30.017887,65,88,0
29.705387,30.017887,53,88,0
30.017887,30.049137,65,88,0
30.017887,30.049137,53,88,0
30.330387,30.955387,53,88,0
30.330387,30.955387,41,88,0
30.955387,31.267887,53,88,0
30.955387,31.267887,41,88,0
31.267887,31.299137,52,88,0
31.267887,31.299137,40,88,0
31.892887,31.924137,64,88,0
31.892887,31.924137,52,88,0
31.892887,31.924137,57,88,0
31.892887,31.924137,60,88,0
32.517887,32.549137,64,88,0
32.517887,32.549137,52,88,0
32.517887,32.549137,57,88,0
32.517887,32.549137,59,88,0
33.142887,33.174137,64,88,0
33.142887,33.174137,52,88,0
33.142887,33.174137,56,88,0
33.142887,33.174137,59,88,0
34.705387,34.736637,59,49,0
34.705387,34.736637,56,49,0
34.705387,34.736637,52,49,0
35.017887,35.049137,60,49,0
35.017887,35.049137,57,49,0
35.017887,35.049137,52,49,0
35.330387,35.361637,59,49,0
35.330387,35.361637,56,49,0
35.330387,35.361637,52,49,0
35.642887,35.674137,60,49,0
35.642887,35.674137,57,49,0
35.642887,35.674137,52,49,0
35.955387,35.986637,59,49,0
35.955387,35.986637,56,49,0
35.955387,35.986637,52,49,0
37.205387,37.236637,59,49,0
37.205387,37.236637,56,49,0
37.205387,37.236637,52,49,0
37.517887,37.549137,60,49,0
37.517887,37.549137,57,49,0
37.517887,37.549137,52,49,0
37.830387,37.861637,59,49,0
37.830387,37.861637,56,49,0
37.830387,37.861637,52,49,0
38.142887,38.174137,60,49,0
38.142887,38.174137,57,49,0
38.142887,38.174137,52,49,0
38.455387,38.486637,62,49,0
38.455387,38.486637,59,49,0
38.455387,38.486637,56,49,0
43.767887,43.924137,35,101,0
43.924137,44.080387,47,101,0
44.080387,44.096012,47,101,0
44.236637,44.252262,47,101,0
44.392887,44.424137,47,101,0
44.705387,44.736637,46,101,0
45.017887,45.174137,35,101,0
45.174137,45.330387,47,101,0
45.330387,45.346012,47,101,0
45.486637,45.502262,47,101,0
45.642887,45.674137,47,101,0
45.955387,45.986637,46,101,0
46.267887,46.299137,47,101,0
46.580387,46.611637,46,101,0
46.892887,46.924137,47,101,0
47.205387,47.236637,46,101,0
47.517887,47.549137,45,101,0
47.830387,47.861637,44,101,0
48.142887,48.174137,43,101,0
48.455387,48.486637,42,101,0
48.767887,48.924137,31,101,0
48.924137,49.080387,43,101,0
49.080387,49.096012,43,101,0
49.236637,49.252262,43,101,0
49.392887,49.424137,43,101,0
49.705387,49.736637,43,101,0
50.017887,50.330387,55,101,0
50.017887,50.330387,43,101,0
50.330387,50.346012,65,101,0
50.330387,50.346012,62,101,0
50.330387,50.346012,55,101,0
50.486637,50.502262,65,101,0
50.486637,50.502262,62,101,0
50.486637,50.502262,55,101,0
50.642887,50.674137,65,101,0
50.642887,50.674137,62,101,0
50.642887,50.674137,55,101,0
50.955387,50.986637,65,101,0
50.955387,50.986637,62,101,0
50.955387,50.986637,55,101,0
51.267887,51.580387,48,75,0
51.580387,51.596012,64,36,0
51.580387,51.596012,55,36,0
51.736637,51.752262,64,36,0
51.736637,51.752262,55,36,0
51.892887,51.924137,64,36,0
51.892887,51.924137,55,36,0
52.205387,52.517887,65,36,0
52.205387,52.517887,55,36,0
52.517887,52.830387,64,36,0
52.517887,52.830387,55,36,0
52.830387,53.142887,65,36,0
52.830387,53.142887,55,36,0
53.142887,53.455387,64,36,0
53.142887,53.455387,55,36,0
53.455387,53.767887,65,36,0
53.455387,53.767887,55,36,0
53.767887,54.080387,48,36,0
54.080387,54.096012,64,49,0
54.080387,54.096012,55,49,0
54.236637,54.252262,64,49,0
54.236637,54.252262,55,49,0
54.392887,54.424137,64,49,0
54.392887,54.424137,55,49,0
55.017887,55.330387,48,49,0
55.017887,55.330387,36,49,0
55.330387,55.642887,46,49,0
55.330387,55.642887,34,49,0
55.642887,55.955387,45,75,0
55.642887,55.955387,33,75,0
55.955387,56.267887,67,75,0
55.955387,56.267887,61,75,0
55.955387,56.267887,57,75,0
56.267887,56.580387,50,75,0
56.580387,56.596012,65,36,0
56.580387,56.596012,57,36,0
56.736637,56.752262,65,36,0
56.736637,56.752262,57,36,0
56.892887,56.924137,65,36,0
56.892887,56.924137,57,36,0
57.205387,57.517887,67,36,0
57.205387,57.517887,57,36,0
57.517887,57.830387,65,36,0
57.517887,57.830387,57,36,0
57.830387,58.142887,67,36,0
57.830387,58.142887,57,36,0
58.142887,58.455387,65,36,0
58.142887,58.455387,57,36,0
58.455387,58.767887,67,36,0
58.455387,58.767887,57,36,0
58.767887,59.080387,50,36,0
59.080387,59.096012,65,49,0
59.080387,59.096012,57,49,0
59.236637,59.252262,65,49,0
59.236637,59.252262,57,49,0
59.392887,59.424137,65,62,0
59.392887,59.424137,57,62,0
60.017887,60.330387,50,62,0
60.017887,60.330387,38,62,0
60.330387,60.642887,48,62,0
60.330387,60.642887,36,62,0
60.642887,60.955387,46,62,0
60.642887,60.955387,34,62,0
60.955387,61.267887,44,62,0
60.955387,61.267887,32,62,0
61.267887,61.580387,43,75,0
61.267887,61.580387,31,75,0
61.580387,61.596012,65,75,0
61.580387,61.596012,62,75,0
61.580387,61.596012,55,75,0
61.736637,61.752262,65,75,0
61.736637,61.752262,62,75,0
61.736637,61.752262,55,75,0
61.892887,61.924137,65,75,0
61.892887,61.924137,62,75,0
61.892887,61.924137,55,75,0
62.205387,62.236637,65,101,0
62.205387,62.236637,62,101,0
62.205387,62.236637,56,101,0
62.517887,62.830387,57,101,0
62.517887,62.830387,45,101,0
62.830387,62.846012,64,101,0
62.830387,62.846012,60,101,0
62.830387,62.846012,57,101,0
62.986637,63.002262,64,101,0
62.986637,63.002262,60,101,0
62.986637,63.002262,57,101,0
63.142887,63.174137,64,101,0
63.142887,63.174137,60,101,0
63.142887,63.174137,57,101,0
63.455387,63.486637,54,101,0
63.455387,63.486637,42,101,0
63.767887,63.799137,55,101,0
63.767887,63.799137,43,101,0
64.39289,64.42414,65,101,0
64.39289,64.42414,62,101,0
64.39289,64.42414,55,101,0
65.01789,65.17414,48,36,0
65.17414,65.33039,55,36,0
65.33039,65.48664,64,36,0
65.48664,65.64289,55,36,0
65.64289,65.79914,64,36,0
65.95539,66.11164,47,36,0
66.11164,66.26789,55,36,0
66.26789,66.42414,48,36,0
66.42414,66.58039,55,36,0
66.58039,66.73664,47,36,0
66.73664,66.89289,55,36,0
66.89289,67.04914,48,36,0
67.04914,67.20539,55,36,0
67.20539,67.36164,47,36,0
67.36164,67.51789,55,36,0
67.51789,67.67414,48,36,0
67.67414,67.83039,52,36,0
67.83039,67.98664,55,36,0
67.98664,68.14289,60,36,0
68.14289,68.29914,64,36,0
68.29914,68.45539,67,36,0
68.45539,68.48664,68,36,0
68.45539,68.48664,56,36,0
68.76789,69.70539,69,36,0
68.76789,69.70539,57,36,0
69.70539,69.73664,45,101,0
69.70539,69.73664,33,101,0
70.01789,70.17414,50,36,0
70.17414,70.33039,57,36,0
70.33039,70.48664,65,36,0
70.48664,70.64289,57,36,0
70.64289,70.79914,65,36,0
70.95539,71.11164,49,36,0
71.11164,71.26789,57,36,0
71.26789,71.42414,50,36,0
71.42414,71.58039,57,36,0
71.58039,71.73664,49,36,0
71.73664,71.89289,57,36,0
71.89289,72.04914,50,36,0
72.04914,72.20539,57,36,0
72.20539,72.36164,49,36,0
72.36164,72.51789,57,36,0
72.51789,72.67414,50,62,0
72.67414,72.83039,53,62,0
72.83039,72.98664,57,62,0
72.98664,73.14289,62,62,0
74.39289,74.70539,46,75,0
74.39289,74.70539,34,75,0
74.70539,75.01789,44,75,0
74.70539,75.01789,32,75,0
75.01789,75.04914,43,88,0
75.01789,75.04914,31,88,0
75.64289,75.67414,42,88,0
75.64289,75.67414,30,88,0
77.51789,77.54914,62,49,0
77.51789,77.54914,60,49,0
77.51789,77.54914,57,49,0
78.14289,78.17414,65,49,0
78.14289,78.17414,62,49,0
78.14289,78.17414,55,49,0
81.189766,81.22883,62,36,0
80.95539,81.26789,63,36,0
81.22883,81.26789,63,36,0
81.26789,81.58039,62,36,0
81.58039,81.89289,60,36,0
81.89289,82.36164,67,62,0
82.36164,82.439766,63,36,0
82.439766,82.51789,60,36,0
82.51789,83.45539,55,36,0
83.45539,83.48664,63,36,0
83.45539,83.48664,55,36,0
83.76789,83.79914,62,36,0
83.76789,83.79914,55,36,0
84.08039,84.11164,60,36,0
84.08039,84.11164,55,36,0
84.39289,84.42414,59,36,0
84.39289,84.42414,55,36,0
84.70539,84.73664,63,36,0
84.70539,84.73664,60,36,0
84.70539,84.73664,55,36,0
85.01789,85.64289,63,36,0
85.01789,85.64289,60,36,0
85.64289,85.79914,62,36,0
85.64289,85.79914,59,36,0
85.01789,85.79914,55,36,0
86.189766,86.22883,63,36,0
85.95539,86.26789,65,36,0
86.22883,86.26789,65,36,0
86.26789,86.58039,63,36,0
86.58039,86.89289,62,36,0
86.89289,87.36164,68,62,0
87.36164,87.439766,65,36,0
87.439766,87.51789,62,36,0
87.51789,88.45539,55,36,0
88.45539,88.48664,55,36,0
88.76789,88.79914,55,36,0
89.08039,89.11164,65,36,0
89.08039,89.11164,55,36,0
89.39289,89.42414,63,62,0
89.39289,89.42414,55,62,0
89.70539,89.73664,62,62,0
89.70539,89.73664,59,62,0
89.70539,89.73664,55,62,0
90.01789,90.64289,65,62,0
90.01789,90.64289,62,62,0
90.01789,90.64289,60,62,0
90.64289,90.95539,63,62,0
90.64289,90.95539,60,62,0
91.189766,91.22883,50,62,0
90.95539,91.26789,51,62,0
91.22883,91.26789,51,62,0
91.26789,91.58039,50,62,0
91.58039,91.89289,48,62,0
91.89289,92.36164,55,88,0
92.36164,92.439766,51,62,0
92.439766,92.51789,48,62,0
92.51789,94.39289,44,62,0
95.01789,96.26789,55,36,0
95.01789,96.26789,43,36,0
95.01789,96.26789,48,36,0
95.01789,96.26789,51,36,0
96.26789,97.51789,55,36,0
96.26789,97.51789,43,36,0
96.26789,97.51789,47,36,0
96.26789,97.51789,50,36,0
97.51789,98.45539,52,36,0
102.51789,103.45539,43,36,0
102.51789,103.45539,36,36,0
103.689766,103.72883,47,75,0
103.45539,103.76789,48,75,0
103.72883,103.76789,48,75,0
103.76789,104.08039,47,75,0
104.08039,104.39289,45,75,0
104.39289,104.70539,47,75,0
104.939766,104.97883,47,75,0
104.70539,105.01789,48,75,0
104.97883,105.01789,48,75,0
105.01789,105.33039,47,75,0
105.33039,105.48664,45,75,0
105.48664,105.64289,47,75,0
105.64289,105.79914,48,75,0
105.95539,105.98664,43,75,0
105.95539,105.98664,31,75,0
106.26789,107.20539,43,36,0
106.26789,107.20539,36,36,0
107.439766,107.47883,47,36,0
107.20539,107.51789,48,36,0
107.47883,107.51789,48,36,0
107.51789,107.83039,47,36,0
107.83039,108.14289,45,36,0
108.14289,108.45539,47,36,0
108.689766,108.72883,47,36,0
108.45539,108.76789,48,36,0
108.72883,108.76789,48,36,0
108.76789,109.08039,47,36,0
109.08039,109.23664,45,36,0
109.23664,109.39289,47,36,0
109.39289,109.54914,48,36,0
109.70539,109.73664,43,36,0
109.70539,109.73664,31,36,0
110.01789,110.95539,52,36,0
111.26789,112.20539,52,36,0
112.51789,113.45539,52,36,0
114.939766,114.97883,59,36,0
114.70539,115.01789,60,36,0
114.97883,115.01789,60,36,0
115.01789,115.33039,59,36,0
115.33039,115.64289,57,36,0
115.64289,116.11164,64,62,0
116.11164,116.189766,60,36,0
116.189766,116.26789,57,36,0
116.26789,117.20539,52,36,0
117.20539,117.23664,52,62,0
117.20539,117.23664,48,62,0
117.51789,117.54914,52,62,0
117.51789,117.54914,47,62,0
117.83718,117.87127,52,62,0
117.83718,117.87127,45,62,0
118.18621,118.22371,52,62,0
118.18621,118.22371,43,62,0
118.571075,118.61274,52,62,0
118.571075,118.61274,41,62,0
119.0,119.97826,52,62,0
119.0,119.97826,40,62,0
120.222824,120.26359,60,36,0
119.97826,120.304344,62,36,0
120.26359,120.304344,62,36,0
120.304344,120.63043,60,36,0
120.63043,120.95652,59,36,0
120.95652,121.44565,65,62,0
121.44565,121.52717,62,36,0
121.52717,121.608696,59,36,0
121.608696,122.58695,52,36,0
122.58695,122.61956,52,62,0
122.58695,122.61956,50,62,0
122.91304,122.94565,52,62,0
122.91304,122.94565,48,62,0
123.24654,123.28226,52,62,0
123.24654,123.28226,47,62,0
123.61261,123.652084,52,62,0
123.61261,123.652084,45,62,0
124.01831,124.06243,52,62,0
124.01831,124.06243,44,62,0
124.473274,126.473274,54,62,0
124.473274,126.473274,42,62,0
126.473274,128.47328,53,62,0
126.473274,128.47328,41,62,0
128.47328,129.09828,52,62,0
129.09828,129.72328,52,62,0
129.72328,130.34828,52,62,0
130.34828,130.97328,52,62,0
130.97328,131.28578,52,62,0
130.97328,131.28578,40,62,0
131.28578,131.59828,52,62,0
131.28578,131.59828,40,62,0
131.59828,131.91078,52,62,0
131.59828,131.91078,40,62,0
131.91078,132.22328,52,62,0
131.91078,132.22328,40,62,0
132.22328,132.53578,52,62,0
132.22328,132.53578,40,62,0
132.53578,132.84828,52,62,0
132.53578,132.84828,40,62,0
132.84828,133.16078,52,88,0
132.84828,133.16078,40,80,0
133.16078,133.47328,52,62,0
133.16078,133.47328,40,62,0
133.47328,134.09828,52,62,0
133.47328,134.09828,40,62,0
134.09828,134.72328,64,62,0
134.09828,134.72328,52,62,0
134.72328,135.34828,64,62,0
134.72328,135.34828,52,62,0
135.34828,135.97328,64,62,0
135.34828,135.97328,52,62,0
135.97328,136.28578,64,62,0
135.97328,136.28578,52,62,0
135.97328,136.28578,57,62,0
135.97328,136.28578,60,62,0
136.28578,136.59828,64,62,0
136.28578,136.59828,52,62,0
136.28578,136.59828,57,62,0
136.28578,136.59828,60,62,0
136.59828,136.91078,64,62,0
136.59828,136.91078,52,62,0
136.59828,136.91078,57,62,0
136.59828,136.91078,60,62,0
136.91078,137.22328,64,62,0
136.91078,137.22328,52,62,0
136.91078,137.22328,57,62,0
136.91078,137.22328,60,62,0
137.22328,137.53578,64,62,0
137.22328,137.53578,52,62,0
137.22328,137.53578,59,62,0
137.22328,137.53578,62,62,0
137.53578,137.84828,64,62,0
137.53578,137.84828,52,62,0
137.53578,137.84828,59,62,0
137.53578,137.84828,62,62,0
137.84828,138.16078,64,88,0
137.84828,138.16078,52,76,0
137.84828,138.16078,59,80,0
137.84828,138.16078,62,84,0
138.16078,138.47328,64,62,0
138.16078,138.47328,52,62,0
138.16078,138.47328,59,62,0
138.16078,138.47328,62,62,0
138.47328,139.09828,64,75,0
138.47328,139.09828,52,75,0
139.09828,139.72328,64,75,0
139.09828,139.72328,52,75,0
139.72328,140.34828,64,75,0
139.72328,140.34828,52,75,0
140.34828,140.97328,64,75,0
140.34828,140.97328,52,75,0
140.97328,141.00453,65,88,0
140.97328,141.00453,53,88,0
141.28578,141.91078,65,88,0
141.28578,141.91078,53,88,0
141.91078,142.22328,65,88,0
141.91078,142.22328,53,88,0
142.22328,142.25453,65,88,0
142.22328,142.25453,53,88,0
142.53578,143.16078,53,88,0
142.53578,143.16078,41,88,0
143.16078,143.47328,53,88,0
143.16078,143.47328,41,88,0
143.47328,143.50453,53,88,0
143.47328,143.50453,41,88,0
143.78578,144.41078,65,88,0
143.78578,144.41078,53,88,0
144.41078,144.72328,65,88,0
144.41078,144.72328,53,88,0
144.72328,144.75453,65,88,0
144.72328,144.75453,53,88,0
145.03578,145.66078,53,88,0
145.03578,145.66078,41,88,0
145.66078,145.97328,53,88,0
145.66078,145.97328,41,88,0
145.97328,146.00453,52,88,0
145.97328,146.00453,40,88,0
146.59828,146.62953,64,88,0
146.59828,146.62953,52,88,0
146.59828,146.62953,57,88,0
146.59828,146.62953,60,88,0
147.22328,147.25453,64,88,0
147.22328,147.25453,52,88,0
147.22328,147.25453,57,88,0
147.22328,147.25453,59,88,0
147.84828,147.87953,64,88,0
147.84828,147.87953,52,88,0
147.84828,147.87953,56,88,0
147.84828,147.87953,59,88,0
149.41078,149.44203,59,49,0
149.41078,149.44203,56,49,0
149.41078,149.44203,52,49,0
149.72328,149.75453,60,49,0
149.72328,149.75453,57,49,0
149.72328,149.75453,52,49,0
150.03578,150.06703,59,49,0
150.03578,150.06703,56,49,0
150.03578,150.06703,52,49,0
150.34828,150.37953,60,49,0
150.34828,150.37953,57,49,0
150.34828,150.37953,52,49,0
150.66078,150.69203,59,49,0
150.66078,150.69203,56,49,0
150.66078,150.69203,52,49,0
151.91078,151.94203,59,49,0
151.91078,151.94203,56,49,0
151.91078,151.94203,52,49,0
152.22328,152.25453,60,49,0
152.22328,152.25453,57,49,0
152.22328,152.25453,52,49,0
152.53578,152.56703,59,49,0
152.53578,152.56703,56,49,0
152.53578,152.56703,52,49,0
152.84828,152.87953,60,49,0
152.84828,152.87953,57,49,0
152.84828,152.87953,52,49,0
153.16078,153.19203,62,49,0
153.16078,153.19203,59,49,0
153.16078,153.19203,56,49,0
158.47328,158.62953,35,101,0
158.62953,158.78578,47,101,0
158.78578,158.8014,47,101,0
158.94203,158.95766,47,101,0
159.09828,159.12953,47,101,0
159.41078,159.44203,46,101,0
159.72328,159.87953,35,101,0
159.87953,160.03578,47,101,0
160.03578,160.0514,47,101,0
160.19203,160.20766,47,101,0
160.34828,160.37953,47,101,0
160.66078,160.69203,46,101,0
160.97328,161.00453,47,101,0
161.28578,161.31703,46,101,0
161.59828,161.62953,47,101,0
161.91078,161.94203,46,101,0
162.22328,162.25453,45,101,0
162.53578,162.56703,44,101,0
162.84828,162.87953,43,101,0
163.16078,163.19203,42,101,0
163.47328,163.62953,31,101,0
163.62953,163.78578,43,101,0
163.78578,163.8014,43,101,0
163.94203,163.95766,43,101,0
164.09828,164.12953,43,101,0
164.41078,164.44203,43,101,0
164.72328,165.03578,55,101,0
164.72328,165.03578,43,101,0
165.03578,165.0514,65,101,0
165.03578,165.0514,62,101,0
165.03578,165.0514,55,101,0
165.19203,165.20766,65,101,0
165.19203,165.20766,62,101,0
165.19203,165.20766,55,101,0
165.34828,165.37953,65,101,0
165.34828,165.37953,62,101,0
165.34828,165.37953,55,101,0
165.66078,165.69203,65,101,0
165.66078,165.69203,62,101,0
165.66078,165.69203,55,101,0
165.97328,166.28578,48,75,0
166.28578,166.3014,64,36,0
166.28578,166.3014,55,36,0
166.44203,166.45766,64,36,0
166.44203,166.45766,55,36,0
166.59828,166.62953,64,36,0
166.59828,166.62953,55,36,0
166.91078,167.22328,65,36,0
166.91078,167.22328,55,36,0
167.22328,167.53578,64,36,0
167.22328,167.53578,55,36,0
167.53578,167.84828,65,36,0
167.53578,167.84828,55,36,0
167.84828,168.16078,64,36,0
167.84828,168.16078,55,36,0
168.16078,168.47328,65,36,0
168.16078,168.47328,55,36,0
168.47328,168.78578,48,36,0
168.78578,168.8014,64,49,0
168.78578,168.8014,55,49,0
168.94203,168.95766,64,49,0
168.94203,168.95766,55,49,0
169.09828,169.12953,64,49,0
169.09828,169.12953,55,49,0
169.72328,170.03578,48,49,0
169.72328,170.03578,36,49,0
170.03578,170.34828,46,49,0
170.03578,170.34828,34,49,0
170.34828,170.66078,45,75,0
170.34828,170.66078,33,75,0
170.66078,170.97328,67,75,0
170.66078,170.97328,61,75,0
170.66078,170.97328,57,75,0
170.97328,171.28578,50,75,0
171.28578,171.3014,65,36,0
171.28578,171.3014,57,36,0
171.44203,171.45766,65,36,0
171.44203,171.45766,57,36,0
171.59828,171.62953,65,36,0
171.59828,171.62953,57,36,0
171.91078,172.22328,67,36,0
171.91078,172.22328,57,36,0
172.22328,172.53578,65,36,0
172.22328,172.53578,57,36,0
172.53578,172.84828,67,36,0
172.53578,172.84828,57,36,0
172.84828,173.16078,65,36,0
172.84828,173.16078,57,36,0
173.16078,173.47328,67,36,0
173.16078,173.47328,57,36,0
173.47328,173.78578,50,36,0
173.78578,173.8014,65,49,0
173.78578,173.8014,57,49,0
173.94203,173.95766,65,49,0
173.94203,173.95766,57,49,0
174.09828,174.12953,65,62,0
174.09828,174.12953,57,62,0
174.72328,175.03578,50,62,0
174.72328,175.03578,38,62,0
175.03578,175.34828,48,62,0
175.03578,175.34828,36,62,0
175.34828,175.66078,46,62,0
175.34828,175.66078,34,62,0
175.66078,175.97328,44,62,0
175.66078,175.97328,32,62,0
175.97328,176.28578,43,75,0
175.97328,176.28578,31,75,0
176.28578,176.3014,65,75,0
176.28578,176.3014,62,75,0
176.28578,176.3014,55,75,0
176.44203,176.45766,65,75,0
176.44203,176.45766,62,75,0
176.44203,176.45766,55,75,0
176.59828,176.62953,65,75,0
176.59828,176.62953,62,75,0
176.59828,176.62953,55,75,0
176.91078,176.94203,65,101,0
176.91078,176.94203,62,101,0
176.91078,176.94203,56,101,0
177.22328,177.53578,57,101,0
177.22328,177.53578,45,101,0
177.53578,177.5514,64,101,0
177.53578,177.5514,60,101,0
177.53578,177.5514,57,101,0
177.69203,177.70766,64,101,0
177.69203,177.70766,60,101,0
177.69203,177.70766,57,101,0
177.84828,177.87953,64,101,0
177.84828,177.87953,60,101,0
177.84828,177.87953,57,101,0
178.16078,178.19203,54,101,0
178.16078,178.19203,42,101,0
178.47328,178.50453,55,101,0
178.47328,178.50453,43,101,0
179.09828,179.12953,65,101,0
179.09828,179.12953,62,101,0
179.09828,179.12953,55,101,0
179.72328,179.87953,48,36,0
179.87953,180.03578,55,36,0
180.03578,180.19203,64,36,0
180.19203,180.34828,55,36,0
180.34828,180.50453,64,36,0
180.66078,180.81703,47,36,0
180.81703,180.97328,55,36,0
180.97328,181.12953,48,36,0
181.12953,181.28578,55,36,0
181.28578,181.44203,47,36,0
181.44203,181.59828,55,36,0
181.59828,181.75453,48,36,0
181.75453,181.91078,55,36,0
181.91078,182.06703,47,36,0
182.06703,182.22328,55,36,0
182.22328,182.37953,48,36,0
182.37953,182.53578,52,36,0
182.53578,182.69203,55,36,0
182.69203,182.84828,60,36,0
182.84828,183.00453,64,36,0
183.00453,183.16078,67,36,0
183.16078,183.19203,68,36,0
183.16078,183.19203,56,36,0
183.47328,184.41078,69,36,0
183.47328,184.41078,57,36,0
184.41078,184.44203,45,101,0
184.41078,184.44203,33,101,0
184.72328,184.87953,50,36,0
184.87953,185.03578,57,36,0
185.03578,185.19203,65,36,0
185.19203,185.34828,57,36,0
185.34828,185.50453,65,36,0
185.66078,185.81703,49,36,0
185.81703,185.97328,57,36,0
185.97328,186.12953,50,36,0
186.12953,186.28578,57,36,0
186.28578,186.44203,49,36,0
186.44203,186.59828,57,36,0
186.59828,186.75453,50,36,0
186.75453,186.91078,57,36,0
186.91078,187.06703,49,36,0
187.06703,187.22328,57,36,0
187.22328,187.37953,50,62,0
187.37953,187.53578,53,62,0
187.53578,187.69203,57,62,0
187.69203,187.84828,62,62,0
189.09828,189.41078,46,75,0
189.09828,189.41078,34,75,0
189.41078,189.72328,44,75,0
189.41078,189.72328,32,75,0
189.72328,189.75453,43,88,0
189.72328,189.75453,31,88,0
190.34828,190.37953,42,88,0
190.34828,190.37953,30,88,0
192.22328,192.25453,62,49,0
192.22328,192.25453,60,49,0
192.22328,192.25453,57,49,0
192.84828,192.87953,65,49,0
192.84828,192.87953,62,49,0
192.84828,192.87953,55,49,0
195.89516,195.93422,62,36,0
195.66078,195.97328,63,36,0
195.93422,195.97328,63,36,0
195.97328,196.28578,62,36,0
196.28578,196.59828,60,36,0
196.59828,197.06703,67,62,0
197.06703,197.14516,63,36,0
197.14516,197.22328,60,36,0
197.22328,198.16078,55,36,0
198.16078,198.19203,63,36,0
198.16078,198.19203,55,36,0
198.47328,198.50453,62,36,0
198.47328,198.50453,55,36,0
198.78578,198.81703,60,36,0
198.78578,198.81703,55,36,0
199.09828,199.12953,59,36,0
199.09828,199.12953,55,36,0
199.41078,199.44203,63,36,0
199.41078,199.44203,60,36,0
199.41078,199.44203,55,36,0
199.72328,200.34828,63,36,0
199.72328,200.34828,60,36,0
200.34828,200.50453,62,36,0
200.34828,200.50453,59,36,0
199.72328,200.50453,55,36,0
200.89516,200.93422,63,36,0
200.66078,200.97328,65,36,0
200.93422,200.97328,65,36,0
200.97328,201.28578,63,36,0
201.28578,201.59828,62,36,0
201.59828,202.06703,68,62,0
202.06703,202.14516,65,36,0
202.14516,202.22328,62,36,0
202.22328,203.16078,55,36,0
203.16078,203.19203,55,36,0
203.47328,203.50453,55,36,0
203.78578,203.81703,65,36,0
203.78578,203.81703,55,36,0
204.09828,204.12953,63,62,0
204.09828,204.12953,55,62,0
204.41078,204.44203,62,62,0
204.41078,204.44203,59,62,0
204.41078,204.44203,55,62,0
204.72328,205.34828,65,62,0
204.72328,205.34828,62,62,0
204.72328,205.34828,60,62,0
205.34828,205.66078,63,62,0
205.34828,205.66078,60,62,0
205.89516,205.93422,50,62,0
205.66078,205.97328,51,62,0
205.93422,205.97328,51,62,0
205.97328,206.28578,50,62,0
206.28578,206.59828,48,62,0
206.59828,207.06703,55,88,0
207.06703,207.14516,51,62,0
207.14516,207.22328,48,62,0
207.22328,209.09828,44,62,0
209.72328,210.97328,55,36,0
209.72328,210.97328,43,36,0
209.72328,210.97328,48,36,0
209.72328,210.97328,51,36,0
210.97328,212.22328,55,36,0
210.97328,212.22328,43,36,0
210.97328,212.22328,47,36,0
210.97328,212.22328,50,36,0
212.22328,213.16078,52,36,0
217.22328,218.16078,43,36,0
217.22328,218.16078,36,36,0
218.39516,218.43422,47,75,0
218.16078,218.47328,48,75,0
218.43422,218.47328,48,75,0
218.47328,218.78578,47,75,0
218.78578,219.09828,45,75,0
219.09828,219.41078,47,75,0
219.64516,219.68422,47,75,0
219.41078,219.72328,48,75,0
219.68422,219.72328,48,75,0
219.72328,220.03578,47,75,0
220.03578,220.19203,45,75,0
220.19203,220.34828,47,75,0
220.34828,220.50453,48,75,0
220.66078,220.69203,43,75,0
220.66078,220.69203,31,75,0
220.97328,221.91078,43,36,0
220.97328,221.91078,36,36,0
222.14516,222.18422,47,36,0
221.91078,222.22328,48,36,0
222.18422,222.22328,48,36,0
222.22328,222.53578,47,36,0
222.53578,222.84828,45,36,0
222.84828,223.16078,47,36,0
223.39516,223.43422,47,36,0
223.16078,223.47328,48,36,0
223.43422,223.47328,48,36,0
223.47328,223.78578,47,36,0
223.78578,223.94203,45,36,0
223.94203,224.09828,47,36,0
224.09828,224.25453,48,36,0
224.41078,224.44203,43,36,0
224.41078,224.44203,31,36,0
224.72328,225.66078,52,36,0
225.97328,226.91078,52,36,0
227.22328,228.16078,52,36,0
229.64516,229.68422,50,62,0
229.41078,229.72328,52,62,0
229.68422,229.72328,52,62,0
229.72328,230.03578,50,62,0
230.03578,230.34828,47,62,0
230.34828,230.66078,50,62,0
230.89516,230.93422,50,62,0
230.66078,230.97328,52,62,0
230.93422,230.97328,52,62,0
230.97328,231.28578,50,62,0
231.28578,231.44203,47,62,0
231.44203,231.59828,50,62,0
231.59828,231.91078,52,62,0
231.91078,232.06703,53,36,0
232.14516,232.18422,64,36,0
232.18422,232.22328,65,36,0
232.22328,232.53578,64,36,0
232.53578,232.84828,62,36,0
232.84828,233.16078,64,36,0
233.39516,233.43422,64,36,0
233.16078,233.47328,65,36,0
233.43422,233.47328,65,36,0
233.47328,233.78578,64,36,0
233.78578,233.94203,62,36,0
233.94203,234.09828,64,36,0
234.09828,234.41078,65,36,0
234.64516,234.68422,50,62,0
234.41078,234.72328,52,62,0
234.68422,234.72328,52,62,0
234.41078,234.72328,64,62,0
234.72328,235.03578,50,62,0
235.03578,235.34828,47,62,0
235.34828,235.66078,50,62,0
235.89516,235.93422,50,62,0
235.66078,235.97328,52,62,0
235.93422,235.97328,52,62,0
235.97328,236.28578,50,62,0
236.28578,236.44203,47,62,0
236.44203,236.59828,50,62,0
236.59828,236.91078,52,62,0
236.91078,237.06703,53,36,0
237.14516,237.18422,64,36,0
237.18422,237.22328,65,36,0
237.22328,237.53578,64,36,0
237.53578,237.84828,62,36,0
237.84828,238.16078,64,36,0
238.39516,238.43422,64,36,0
238.16078,238.47328,65,36,0
238.43422,238.47328,65,36,0
238.47328,238.78578,64,36,0
238.78578,238.94203,62,36,0
238.94203,239.09828,64,36,0
239.09828,239.41078,65,36,0
239.64516,239.68422,50,36,0
239.41078,239.72328,52,36,0
239.68422,239.72328,52,36,0
239.41078,239.72328,64,36,0
239.72328,240.03578,50,62,0
240.03578,240.34828,47,62,0
240.34828,240.66078,50,62,0
240.89516,240.93422,50,62,0
240.66078,240.97328,52,62,0
240.93422,240.97328,52,62,0
240.97328,241.28578,50,62,0
241.28578,241.44203,47,62,0
241.44203,241.59828,50,62,0
241.59828,241.91078,52,62,0
242.14516,242.18422,48,62,0
241.91078,242.22328,50,62,0
242.18422,242.22328,50,62,0
242.22328,242.53578,48,62,0
242.53578,242.69203,46,62,0
242.69203,242.84828,48,62,0
242.84828,243.16078,50,62,0
243.16078,243.47328,48,62,0
243.47328,243.78578,46,62,0
243.78578,244.09828,45,62,0
244.09828,244.41078,43,62,0
244.41078,244.72328,44,36,0
244.72328,245.97328,52,36,0
244.72328,245.97328,45,36,0
245.97328,247.22328,52,36,0
245.97328,247.22328,45,36,0
247.53578,248.16078,57,36,0
248.16078,248.78578,57,36,0
248.78578,249.41078,57,36,0
249.41078,250.03578,57,36,0
250.03578,250.66078,57,36,0
250.66078,251.28578,58,36,0
251.28578,251.91078,55,36,0
251.91078,252.22328,58,36,0
252.22328,252.37953,53,36,0
252.37953,252.53578,55,36,0
252.53578,253.16078,57,36,0
253.16078,253.78578,57,36,0
253.78578,254.41078,57,36,0
254.41078,255.03578,57,36,0
255.03578,255.66078,58,36,0
255.66078,256.28577,56,36,0
256.28577,256.91077,53,36,0
256.91077,257.53577,56,36,0
257.53577,258.16077,55,36,0
258.16077,258.78577,55,36,0
258.78577,259.41077,55,36,0
259.41077,260.03577,55,36,0
260.03577,260.34827,55,62,0
260.34827,260.66077,65,88,0
260.66077,260.81702,61,62,0
260.81702,260.97327,58,62,0
260.97327,261.28577,55,36,0
261.28577,261.91077,55,36,0
261.91077,262.53577,55,36,0
262.53577,262.84827,55,62,0
262.84827,263.16077,65,88,0
263.16077,263.31702,61,62,0
263.31702,263.47327,58,62,0
263.47327,264.72327,55,36,0
263.47327,264.72327,52,36,0
264.72327,265.66077,58,36,0
264.72327,265.66077,48,36,0
265.97327,266.28577,41,49,0
267.14514,267.1842,55,49,0
266.91077,267.22327,56,49,0
267.1842,267.22327,56,49,0
267.22327,267.53577,55,49,0
267.53577,267.84827,53,49,0
267.84827,268.16077,60,75,0
268.16077,268.31702,56,49,0
268.31702,268.47327,53,49,0
268.47327,268.78577,48,49,0
268.78577,268.94202,44,49,0
268.94202,269.09827,41,49,0
269.09827,269.25452,36,49,0
269.25452,269.41077,41,49,0
269.41077,269.56702,43,49,0
269.56702,269.72327,44,49,0
269.72327,269.87952,46,49,0
269.87952,270.03577,48,49,0
270.03577,270.19202,52,49,0
270.19202,270.34827,53,49,0
270.34827,270.50452,55,49,0
270.50452,270.66077,56,49,0
270.66077,270.81702,58,49,0
270.81702,270.97327,60,49,0
270.97327,273.47327,49,75,0
273.47327,274.09827,48,49,0
274.09827,274.41077,61,49,0
274.41077,274.56702,58,49,0
274.56702,274.72327,55,49,0
274.72327,276.59827,36,49,0
276.59827,276.6139,36,49,0
276.75452,276.77014,36,49,0
276.91077,276.9264,36,49,0
277.06702,277.08264,36,49,0
277.22327,277.84827,36,49,0
277.84827,278.16077,60,88,0
278.16077,278.31702,56,49,0
278.31702,278.47327,53,49,0
278.47327,280.34827,36,49,0
280.34827,280.3639,36,49,0
280.50452,280.52014,36,49,0
280.66077,280.6764,36,49,0
280.81702,280.83264,36,49,0
280.97327,281.59827,37,75,0
281.59827,281.91077,61,75,0
281.91077,282.06702,56,49,0
282.06702,282.22327,53,49,0
282.22327,282.84827,37,75,0
282.84827,283.16077,61,75,0
283.16077,283.31702,57,49,0
283.31702,283.47327,54,49,0
283.47327,284.09827,33,114,0
284.09827,284.41077,61,88,0
284.41077,284.56702,57,88,0
284.56702,284.72327,52,88,0
284.72327,285.03577,64,101,0
285.03577,285.19202,61,101,0
285.19202,285.34827,57,101,0
285.97327,286.59827,33,114,0
286.59827,286.91077,61,88,0
286.91077,287.06702,57,88,0
287.06702,287.22327,52,88,0
287.22327,287.53577,64,88,0
287.53577,287.69202,61,88,0
287.69202,287.84827,57,88,0
288.47327,289.09827,34,114,0
289.72327,290.34827,35,114,0
290.97327,291.59827,36,114,0
293.47327,294.09827,37,75,0
295.97327,296.00452,49,49,0
296.28577,296.31702,49,49,0
299.64514,299.6842,44,36,0
299.41077,299.72327,45,36,0
299.6842,299.72327,45,36,0
299.72327,300.03577,44,36,0
300.03577,300.34827,42,36,0
300.34827,300.81702,49,62,0
300.81702,300.89514,45,36,0
300.89514,300.97327,42,36,0
300.97327,301.91077,38,36,0
301.91077,302.22327,38,36,0
302.22327,302.53577,37,36,0
302.53577,302.84827,39,36,0
302.84827,303.16077,40,36,0
303.16077,303.47327,41,36,0
303.47327,304.09827,41,36,0
304.09827,304.41077,40,36,0
307.14514,307.1842,47,36,0
306.91077,307.22327,48,36,0
307.1842,307.22327,48,36,0
307.22327,307.53577,47,36,0
307.53577,307.84827,45,36,0
307.84827,308.31702,52,62,0
308.31702,308.39514,48,36,0
308.39514,308.47327,45,36,0
308.47327,309.41077,41,36,0
309.41077,309.72327,41,36,0
309.72327,310.03577,40,36,0
310.03577,310.34827,42,36,0
310.34827,310.66077,43,36,0
310.66077,310.97327,44,36,0
310.97327,311.59827,44,36,0
311.59827,311.91077,43,36,0
313.16077,313.47327,65,36,0
313.16077,313.47327,62,36,0
313.47327,313.78577,63,36,0
313.47327,313.78577,60,36,0
313.78577,314.09827,62,36,0
313.78577,314.09827,59,36,0
314.09827,314.41077,63,36,0
314.09827,314.41077,60,36,0
314.41077,314.56702,65,36,0
314.41077,314.56702,62,36,0
314.56702,314.72327,67,36,0
314.56702,314.72327,63,36,0
314.72327,315.66077,68,88,0
314.72327,315.66077,65,88,0
314.72327,315.66077,55,88,0
315.66077,315.97327,65,62,0
315.66077,315.97327,62,62,0
315.97327,316.28577,63,62,0
315.97327,316.28577,60,62,0
316.28577,316.59827,62,62,0
316.28577,316.59827,59,62,0
316.59827,316.91077,63,62,0
316.59827,316.91077,60,62,0
316.91077,317.06702,65,62,0
316.91077,317.06702,62,62,0
317.06702,317.22327,67,62,0
317.06702,317.22327,63,62,0
317.22327,318.16077,68,88,0
317.22327,318.16077,65,88,0
317.22327,318.16077,55,88,0
318.16077,318.78577,65,62,0
318.16077,318.78577,62,62,0
318.16077,318.78577,55,62,0
318.78577,319.09827,62,62,0
318.78577,319.09827,59,62,0
318.78577,319.09827,55,62,0
319.09827,319.72327,56,80,0
319.72327,320.03577,55,62,0
319.09827,320.03577,62,88,0
320.03577,320.19202,47,62,0
320.03577,320.19202,43,62,0
320.19202,320.34827,48,62,0
320.19202,320.34827,45,62,0
320.34827,320.50452,50,62,0
320.34827,320.50452,47,62,0
320.50452,320.66077,51,62,0
320.50452,320.66077,48,62,0
320.66077,320.81702,53,62,0
320.66077,320.81702,50,62,0
320.81702,320.97327,55,62,0
320.81702,320.97327,51,62,0
320.97327,321.91077,56,88,0
320.97327,321.91077,53,80,0
321.91077,322.53577,53,62,0
321.91077,322.53577,50,62,0
321.91077,322.53577,43,62,0
322.53577,322.84827,50,75,0
322.53577,322.84827,47,75,0
322.53577,322.84827,43,75,0
322.84827,323.47327,44,93,0
323.47327,323.78577,43,75,0
322.84827,323.78577,50,101,0
324.09827,325.34827,55,75,0
324.09827,325.34827,43,75,0
325.34827,326.28577,55,75,0
325.34827,326.28577,43,75,0
326.28577,326.91077,55,75,0
326.28577,326.91077,43,75,0
326.91077,327.53577,53,75,0
326.91077,327.53577,41,75,0
327.53577,328.16077,50,75,0
327.53577,328.16077,38,75,0
328.16077,328.47327,48,75,0
328.16077,328.47327,36,75,0
328.47327,328.78577,46,75,0
328.47327,328.78577,34,75,0
328.78577,329.41077,58,36,0
328.78577,329.41077,46,36,0
329.41077,330.03577,58,36,0
329.41077,330.03577,46,36,0
330.03577,330.66077,58,36,0
330.03577,330.66077,46,36,0
330.66077,330.97327,58,36,0
330.66077,330.97327,46,36,0
330.97327,331.12952,59,62,0
331.12952,331.28577,47,62,0
331.28577,331.44202,51,62,0
331.44202,331.59827,54,62,0
331.59827,331.75452,59,62,0
331.75452,331.91077,47,62,0
331.91077,332.06702,53,62,0
332.06702,332.22327,56,62,0
332.22327,332.37952,59,62,0
332.37952,332.53577,47,62,0
332.53577,332.69202,53,62,0
332.69202,332.84827,56,62,0
332.84827,333.00452,59,62,0
333.00452,333.16077,47,62,0
333.16077,333.31702,60,62,0
333.31702,333.47327,48,62,0
333.47327,333.78577,61,62,0
333.47327,333.78577,49,62,0
334.09827,334.72327,61,75,0
334.09827,334.72327,49,75,0
334.72327,335.34827,61,75,0
334.72327,335.34827,49,75,0
335.34827,336.28577,61,75,0
335.34827,336.28577,49,75,0
336.28577,336.91077,61,75,0
336.28577,336.91077,49,75,0
336.91077,337.53577,59,75,0
336.91077,337.53577,47,75,0
337.53577,338.16077,56,75,0
337.53577,338.16077,44,75,0
338.16077,338.47327,54,75,0
338.16077,338.47327,42,75,0
338.47327,338.78577,52,75,0
338.47327,338.78577,40,75,0
339.09827,339.72327,64,75,0
339.09827,339.72327,52,75,0
339.72327,340.34827,64,75,0
339.72327,340.34827,52,75,0
340.34827,340.97327,64,75,0
340.34827,340.97327,52,75,0
340.97327,341.00452,65,88,0
340.97327,341.00452,53,88,0
341.28577,341.91077,53,88,0
341.28577,341.91077,41,88,0
341.91077,342.22327,53,88,0
341.91077,342.22327,41,88,0
342.22327,342.25452,53,88,0
342.22327,342.25452,41,88,0
342.53577,343.16077,41,88,0
342.53577,343.16077,29,88,0
343.16077,343.47327,41,88,0
343.16077,343.47327,29,88,0
343.47327,343.50452,41,88,0
343.47327,343.50452,29,88,0
343.78577,344.41077,53,88,0
343.78577,344.41077,41,88,0
344.41077,344.72327,53,88,0
344.41077,344.72327,41,88,0
344.72327,344.75452,53,88,0
344.72327,344.75452,41,88,0
345.03577,345.66077,41,88,0
345.03577,345.66077,29,88,0
345.66077,345.97327,41,88,0
345.66077,345.97327,29,88,0
345.97327,346.00452,40,88,0
345.97327,346.00452,28,88,0
346.59827,346.62952,64,88,0
346.59827,346.62952,52,88,0
346.59827,346.62952,57,88,0
346.59827,346.62952,60,88,0
347.22327,347.53577,64,88,0
347.22327,347.53577,52,88,0
347.22327,347.53577,57,88,0
347.22327,347.53577,59,88,0
347.84827,348.16077,64,88,0
347.84827,348.16077,52,88,0
347.84827,348.16077,56,88,0
347.84827,348.16077,59,88,0
348.47327,348.62952,33,88,0
348.62952,348.78577,45,88,0
348.78577,348.8014,45,88,0
348.94202,348.95764,45,88,0
349.09827,349.12952,45,88,0
349.41077,349.44202,40,36,0
349.72327,349.75452,45,36,0
350.03577,350.06702,40,36,0
350.34827,350.37952,45,36,0
350.66077,350.69202,40,36,0
350.97327,351.12952,33,101,0
351.12952,351.28577,45,101,0
351.28577,351.3014,45,101,0
351.44202,351.45764,45,101,0
351.59827,351.62952,45,101,0
351.91077,351.94202,40,36,0
352.22327,352.25452,45,36,0
352.53577,352.56702,40,36,0
352.84827,352.87952,45,36,0
353.16077,353.19202,43,36,0
353.47327,353.62952,36,101,0
353.62952,353.78577,48,101,0
353.78577,353.8014,48,101,0
353.94202,353.95764,48,101,0
354.09827,354.12952,48,101,0
354.41077,354.44202,43,36,0
354.72327,354.75452,48,36,0
355.03577,355.06702,43,36,0
355.34827,355.37952,48,36,0
355.66077,355.69202,43,36,0
355.97327,356.12952,36,101,0
356.12952,356.28577,48,101,0
356.28577,356.3014,48,101,0
356.44202,356.45764,48,101,0
356.59827,356.62952,48,101,0
356.91077,356.94202,43,36,0
357.22327,357.25452,48,36,0
357.53577,357.56702,43,36,0
357.84827,357.87952,48,36,0
358.16077,358.19202,43,36,0
358.47327,358.62952,35,101,0
358.62952,358.78577,47,101,0
358.78577,358.8014,47,101,0
358.94202,358.95764,47,101,0
359.09827,359.12952,47,101,0
359.41077,359.44202,46,101,0
359.72327,359.87952,47,101,0
359.87952,360.03577,35,101,0
360.03577,360.0514,47,101,0
360.19202,360.20764,47,101,0
360.34827,360.37952,47,101,0
360.66077,360.69202,46,101,0
360.97327,361.00452,47,101,0
361.28577,361.31702,46,101,0
361.59827,361.62952,47,101,0
361.91077,361.94202,46,101,0
362.22327,362.25452,45,101,0
362.53577,362.56702,44,101,0
362.84827,362.87952,43,101,0
363.16077,363.19202,42,101,0
363.47327,363.78577,40,101,0
363.78577,363.8014,52,101,0
363.78577,363.8014,40,101,0
363.94202,363.95764,52,101,0
363.94202,363.95764,40,101,0
364.09827,364.12952,52,101,0
364.09827,364.12952,40,101,0
364.41077,364.44202,52,101,0
364.41077,364.44202,40,101,0
364.72327,365.03577,52,101,0
364.72327,365.03577,40,101,0
365.03577,365.0514,62,101,0
365.03577,365.0514,59,101,0
365.03577,365.0514,52,101,0
365.19202,365.20764,62,101,0
365.19202,365.20764,59,101,0
365.19202,365.20764,52,101,0
365.34827,365.37952,62,101,0
365.34827,365.37952,59,101,0
365.34827,365.37952,52,101,0
365.66077,365.69202,62,101,0
365.66077,365.69202,59,101,0
365.66077,365.69202,52,101,0
365.97327,366.28577,45,75,0
366.28577,366.3014,61,36,0
366.28577,366.3014,52,36,0
366.44202,366.45764,61,36,0
366.44202,366.45764,52,36,0
366.59827,366.91077,61,36,0
366.59827,366.91077,52,36,0
366.91077,367.22327,62,36,0
366.91077,367.22327,52,36,0
367.22327,367.53577,61,36,0
367.22327,367.53577,52,36,0
367.53577,367.84827,62,36,0
367.53577,367.84827,52,36,0
367.84827,368.16077,61,36,0
367.84827,368.16077,52,36,0
368.16077,368.47327,62,36,0
368.16077,368.47327,52,36,0
368.47327,368.78577,45,75,0
368.78577,368.8014,61,49,0
368.78577,368.8014,52,49,0
368.94202,368.95764,61,49,0
368.94202,368.95764,52,49,0
369.09827,369.41077,61,49,0
369.09827,369.41077,52,49,0
369.72327,370.03577,45,75,0
369.72327,370.03577,33,75,0
370.03577,370.34827,43,75,0
370.03577,370.34827,31,75,0
370.34827,370.66077,42,75,0
370.34827,370.66077,30,75,0
370.66077,370.69202,64,75,0
370.66077,370.69202,58,75,0
370.66077,370.69202,54,75,0
370.97327,371.28577,47,75,0
371.28577,371.3014,62,36,0
371.28577,371.3014,54,36,0
371.44202,371.45764,62,36,0
371.44202,371.45764,54,36,0
371.59827,371.91077,62,36,0
371.59827,371.91077,54,36,0
371.91077,372.22327,64,36,0
371.91077,372.22327,54,36,0
372.22327,372.53577,62,36,0
372.22327,372.53577,54,36,0
372.53577,372.84827,64,36,0
372.53577,372.84827,54,36,0
372.84827,373.16077,62,36,0
372.84827,373.16077,54,36,0
373.16077,373.47327,64,36,0
373.16077,373.47327,54,36,0
373.47327,373.78577,47,36,0
373.78577,373.8014,62,36,0
373.78577,373.8014,54,36,0
373.94202,373.95764,62,36,0
373.94202,373.95764,54,36,0
374.09827,374.41077,62,36,0
374.09827,374.41077,54,36,0
374.72327,375.03577,47,62,0
374.72327,375.03577,35,62,0
375.03577,375.34827,45,62,0
375.03577,375.34827,33,62,0
375.34827,375.66077,43,62,0
375.34827,375.66077,31,62,0
375.66077,375.97327,41,62,0
375.66077,375.97327,29,62,0
375.97327,376.28577,40,75,0
375.97327,376.28577,28,75,0
376.28577,376.3014,62,75,0
376.28577,376.3014,59,75,0
376.28577,376.3014,52,75,0
376.44202,376.45764,62,75,0
376.44202,376.45764,59,75,0
376.44202,376.45764,52,75,0
376.59827,376.91077,62,75,0
376.59827,376.91077,59,75,0
376.59827,376.91077,52,75,0
376.91077,376.94202,62,101,0
376.91077,376.94202,59,101,0
376.91077,376.94202,53,101,0
377.22327,377.53577,42,101,0
377.53577,377.5514,61,101,0
377.53577,377.5514,57,101,0
377.53577,377.5514,54,101,0
377.69202,377.70764,61,101,0
377.69202,377.70764,57,101,0
377.69202,377.70764,54,101,0
377.84827,378.16077,61,101,0
377.84827,378.16077,57,101,0
377.84827,378.16077,54,101,0
378.16077,378.47327,51,101,0
378.16077,378.47327,39,101,0
378.47327,378.78577,52,101,0
378.47327,378.78577,40,101,0
379.09827,379.41077,62,101,0
379.09827,379.41077,59,101,0
379.09827,379.41077,52,101,0
379.72327,379.87952,45,36,0
379.87952,380.03577,52,36,0
380.03577,380.19202,61,36,0
380.19202,380.34827,52,36,0
380.34827,380.50452,61,36,0
380.66077,380.81702,44,36,0
380.81702,380.97327,52,36,0
380.97327,381.12952,45,36,0
381.12952,381.28577,52,36,0
381.28577,381.44202,44,36,0
381.44202,381.59827,52,36,0
381.59827,381.75452,45,36,0
381.75452,381.91077,52,36,0
381.91077,382.06702,44,36,0
382.06702,382.22327,52,36,0
382.22327,382.37952,45,36,0
382.37952,382.53577,49,36,0
382.53577,382.69202,52,36,0
382.69202,382.84827,57,36,0
382.84827,383.00452,61,36,0
383.00452,383.16077,64,36,0
383.16077,383.19202,65,36,0
383.16077,383.19202,53,36,0
383.47327,384.09827,66,36,0
383.47327,384.09827,54,36,0
384.41077,384.44202,42,101,0
384.41077,384.44202,30,101,0
384.72327,384.87952,47,36,0
384.87952,385.03577,54,36,0
385.03577,385.19202,62,36,0
385.19202,385.34827,54,36,0
385.34827,385.50452,62,36,0
385.66077,385.81702,46,36,0
385.81702,385.97327,54,36,0
385.97327,386.12952,47,36,0
386.12952,386.28577,54,36,0
386.28577,386.44202,46,36,0
386.44202,386.59827,54,36,0
386.59827,386.75452,47,36,0
386.75452,386.91077,54,36,0
386.91077,387.06702,46,36,0
387.06702,387.22327,54,36,0
387.22327,387.37952,47,36,0
387.37952,387.53577,50,36,0
387.53577,387.69202,54,36,0
387.69202,387.84827,59,36,0
387.84827,388.00452,62,36,0
388.00452,388.16077,66,36,0
388.16077,388.19202,66,36,0
388.16077,388.19202,54,36,0
388.47327,389.09827,67,36,0
388.47327,389.09827,55,36,0
389.09827,389.41077,55,36,0
389.09827,389.41077,43,36,0
389.41077,389.72327,53,101,0
389.41077,389.72327,41,101,0
389.72327,389.75452,52,101,0
389.72327,389.75452,40,101,0
390.34827,390.37952,51,101,0
390.34827,390.37952,39,101,0
392.22327,392.25452,59,49,0
392.22327,392.25452,57,49,0
392.22327,392.25452,53,49,0
393.47327,393.50452,62,36,0
393.47327,393.50452,59,36,0
393.47327,393.50452,52,36,0
395.89514,395.9342,59,36,0
395.66077,395.97327,60,36,0
395.9342,395.97327,60,36,0
395.97327,396.28577,59,36,0
396.28577,396.59827,57,36,0
396.59827,397.06702,64,62,0
397.06702,397.14514,60,36,0
397.14514,397.22327,57,36,0
397.22327,398.16077,52,36,0
398.16077,398.19202,60,62,0
398.16077,398.19202,52,62,0
398.47327,398.50452,59,62,0
398.47327,398.50452,52,62,0
398.79257,398.82666,57,62,0
398.79257,398.82666,52,62,0
399.1416,399.1791,56,62,0
399.1416,399.1791,52,62,0
399.52646,399.56815,60,62,0
399.52646,399.56815,57,62,0
399.52646,399.56815,52,62,0
399.95538,400.60757,60,62,0
399.95538,400.60757,57,62,0
400.60757,400.7706,59,62,0
400.60757,400.7706,56,62,0
399.95538,400.7706,52,62,0
401.17822,401.21896,60,36,0
400.93365,401.25974,62,36,0
401.21896,401.25974,62,36,0
401.25974,401.58582,60,36,0
401.58582,401.9119,59,36,0
401.9119,402.40103,65,62,0
402.40103,402.48257,62,36,0
402.48257,402.5641,59,36,0
402.5641,403.54233,52,36,0
403.54233,403.86844,52,36,0
403.86844,403.90103,52,36,0
404.19452,404.2271,62,36,0
404.19452,404.2271,52,36,0
404.5206,404.55322,60,36,0
404.5206,404.55322,52,36,0
404.84668,404.8793,59,36,0
404.84668,404.8793,52,36,0
405.1728,405.82495,62,36,0
405.1728,405.82495,59,36,0
405.82495,405.988,60,36,0
405.1728,405.988,57,36,0
406.3956,406.43637,47,75,0
406.15103,406.4771,48,75,0
406.43637,406.4771,48,75,0
406.4771,406.80322,47,75,0
406.80322,407.1293,45,75,0
407.1293,408.43365,52,75,0
408.43365,408.75974,50,75,0
408.75974,409.08582,48,75,0
409.08582,409.4119,47,75,0
409.4119,409.44452,48,75,0
409.4119,409.44452,45,75,0
409.738,409.7706,50,75,0
409.738,409.7706,41,75,0
409.738,409.7706,44,75,0
409.738,409.7706,47,75,0
410.0641,410.09668,51,75,0
410.0641,410.09668,41,75,0
410.0641,410.09668,45,75,0
410.0641,410.09668,48,75,0
410.39017,411.69452,52,36,0
410.39017,411.69452,40,36,0
410.39017,411.69452,45,36,0
410.39017,411.69452,48,36,0
411.69452,412.99887,52,36,0
411.69452,412.99887,40,36,0
411.69452,412.99887,44,36,0
411.69452,412.99887,47,36,0
412.99887,413.9771,48,36,0
412.99887,413.9771,41,36,0
413.9771,414.00974,48,36,0
413.9771,414.00974,36,36,0
414.30322,414.33582,48,36,0
414.30322,414.33582,41,36,0
414.6293,414.6619,48,36,0
414.6293,414.6619,36,36,0
414.95538,414.988,48,36,0
414.95538,414.988,41,36,0
415.28146,415.3141,48,36,0
415.28146,415.3141,36,36,0
415.60757,416.4228,48,36,0
415.60757,416.4228,41,36,0
416.83038,416.87115,52,75,0
416.58582,416.9119,53,75,0
416.87115,416.9119,53,75,0
416.9119,417.238,52,75,0
417.238,417.5641,50,75,0
417.5641,417.89017,52,75,0
418.13474,418.1755,48,75,0
418.1755,418.21625,50,75,0
417.89017,418.21625,53,75,0
418.21625,418.54236,48,75,0
418.54236,418.70538,47,75,0
418.70538,418.86844,48,75,0
418.86844,419.19452,50,75,0
419.19452,419.5206,52,75,0
419.19452,419.5206,47,75,0
419.19452,419.5206,40,75,0
419.5206,420.49887,48,36,0
419.5206,420.49887,41,36,0
420.49887,420.53146,48,36,0
420.49887,420.53146,36,36,0
420.82495,420.85757,48,36,0
420.82495,420.85757,41,36,0
421.15103,421.18365,48,36,0
421.15103,421.18365,36,36,0
421.47714,421.50974,48,36,0
421.47714,421.50974,41,36,0
421.80322,421.83582,48,36,0
421.80322,421.83582,36,36,0
422.1293,422.94452,48,36,0
422.1293,422.94452,41,36,0
423.35214,423.39288,52,36,0
423.10757,423.43365,53,36,0
423.39288,423.43365,53,36,0
423.43365,423.75974,52,36,0
423.75974,424.08582,50,36,0
424.08582,424.4119,52,36,0
424.65646,424.69724,48,36,0
424.69724,424.738,50,36,0
424.4119,424.738,53,36,0
424.738,425.0641,48,36,0
425.0641,425.22714,47,36,0
425.22714,425.39017,48,36,0
425.39017,425.71625,50,36,0
425.71625,426.04236,52,36,0
425.71625,426.04236,47,36,0
425.71625,426.04236,40,36,0
427.26517,427.30594,47,36,0
427.0206,427.34668,48,36,0
427.30594,427.34668,48,49,0
427.0206,427.34668,36,36,0
427.34668,427.6728,47,49,0
427.6728,427.99887,45,49,0
427.99887,428.32495,47,49,0
428.56952,428.6103,47,49,0
428.32495,428.65103,48,49,0
428.6103,428.65103,48,49,0
428.65103,428.97714,47,49,0
428.97714,429.14017,45,49,0
429.14017,429.30322,47,49,0
429.30322,429.6293,48,49,0
429.87387,429.91464,48,49,0
429.6293,429.95538,50,49,0
429.91464,429.95538,50,49,0
429.95538,430.28146,48,49,0
430.28146,430.60757,47,49,0
430.60757,430.93365,48,49,0
431.17822,431.21896,48,49,0
430.93365,431.25974,50,49,0
431.21896,431.25974,50,49,0
431.25974,431.58582,48,75,0
431.58582,431.74887,47,75,0
431.74887,431.91193,48,75,0
431.91193,432.238,50,75,0
432.48257,432.52332,50,75,0
432.238,432.5641,52,75,0
432.52332,432.5641,52,75,0
432.5641,432.89017,50,75,0
432.89017,433.05322,48,75,0
433.05322,433.21625,50,75,0
433.21625,433.54236,52,75,0
433.54236,433.86844,53,75,0
433.86844,434.19452,55,75,0
433.86844,434.19452,43,75,0
434.19452,434.5206,53,75,0
434.19452,434.5206,41,75,0
434.5206,434.84668,52,75,0
434.5206,434.84668,40,75,0
434.84668,435.1728,50,75,0
434.84668,435.1728,38,75,0
435.1728,436.47714,52,36,0
435.1728,436.47714,40,36,0
436.47714,437.78146,52,36,0
436.47714,437.78146,40,36,0
439.0043,439.04507,47,36,0
438.75974,439.08582,48,36,0
439.04507,439.08582,48,36,0
439.08582,439.41193,47,36,0
439.41193,439.738,45,36,0
439.738,440.0641,47,36,0
440.30865,440.34943,47,36,0
440.0641,440.39017,48,36,0
440.34943,440.39017,48,36,0
440.39017,440.71625,47,36,0
440.71625,440.8793,45,36,0
440.8793,441.04236,47,36,0
441.04236,441.36844,48,36,0
441.613,441.65375,48,36,0
441.36844,441.69452,50,36,0
441.65375,441.69452,50,36,0
441.69452,442.0206,48,36,0
442.0206,442.3467,47,36,0
442.3467,442.6728,48,36,0
442.91736,442.9581,48,36,0
442.6728,442.99887,50,36,0
442.9581,442.99887,50,36,0
442.99887,443.32495,48,62,0
443.32495,443.488,47,62,0
443.488,443.65103,48,62,0
443.65103,443.97714,50,62,0
444.2217,444.26245,50,62,0
443.97714,444.30322,52,62,0
444.26245,444.30322,52,62,0
444.30322,444.6293,50,62,0
444.6293,444.79236,48,62,0
444.79236,444.95538,50,62,0
444.95538,445.28146,52,62,0
445.28146,445.60757,53,62,0
445.60757,445.93365,55,75,0
445.60757,445.93365,43,75,0
445.93365,446.25974,53,75,0
445.93365,446.25974,41,75,0
446.25974,446.58582,52,75,0
446.25974,446.58582,40,75,0
446.58582,446.91193,38,75,0
446.91193,447.238,48,75,0
446.91193,447.238,36,75,0
447.238,447.2706,46,75,0
447.238,447.2706,34,75,0
447.5641,447.5967,45,75,0
447.5641,447.5967,33,75,0
447.89017,447.9228,43,75,0
447.89017,447.9228,31,75,0
448.21625,448.3793,41,88,0
448.21625,448.3793,29,88,0
448.3793,448.54236,36,88,0
448.54236,448.55865,36,88,0
448.70538,448.7217,36,88,0
448.86844,448.90103,36,88,0
449.19452,449.22714,36,88,0
449.5206,449.68365,41,88,0
449.5206,449.68365,29,88,0
449.68365,449.8467,36,88,0
449.8467,449.863,36,88,0
450.00974,450.02603,36,88,0
450.1728,450.20538,36,88,0
450.49887,450.5315,36,88,0
450.82495,450.988,41,88,0
450.82495,450.988,29,88,0
450.988,451.15103,36,88,0
451.15103,451.16736,36,88,0
451.3141,451.33038,36,88,0
451.47714,451.50974,36,88,0
451.80322,451.83582,36,88,0
452.1293,452.29236,41,88,0
452.1293,452.29236,29,88,0
452.29236,452.45538,36,88,0
452.45538,452.4717,36,88,0
452.61844,452.63474,36,88,0
452.7815,452.8141,36,88,0
453.10757,453.14017,36,88,0
453.43365,453.5967,41,88,0
453.43365,453.5967,29,88,0
453.5967,453.75974,36,88,0
453.75974,453.77603,36,88,0
453.9228,453.9391,36,88,0
454.08582,454.11844,36,88,0
454.41193,454.44452,36,88,0
454.738,454.90103,41,88,0
454.738,454.90103,29,88,0
454.90103,455.0641,36,88,0
455.0641,455.08038,36,88,0
455.22714,455.24344,36,88,0
455.39017,455.4228,36,88,0
455.71625,455.74887,36,88,0
456.04236,456.20538,29,88,0
456.20538,456.36844,41,88,0
456.36844,456.38474,41,88,0
456.5315,456.5478,41,88,0
456.69452,457.0206,41,88,0
459.87387,459.91464,47,36,0
459.6293,459.95538,48,36,0
459.91464,459.95538,48,36,0
459.95538,460.2815,47,36,0
460.2815,460.60757,45,36,0
460.60757,461.0967,52,62,0
461.0967,461.17822,48,36,0
461.17822,461.25974,45,36,0
461.25974,461.91193,40,36,0
461.91193,462.5641,40,36,0
463.78693,463.82767,47,36,0
463.54236,463.86844,48,36,0
463.82767,463.86844,48,36,0
463.86844,464.19452,47,36,0
464.19452,464.5206,45,36,0
464.5206,464.8467,47,36,0
465.09128,465.13202,47,36,0
464.8467,465.1728,48,36,0
465.13202,465.1728,48,36,0
465.1728,465.49887,47,36,0
465.49887,465.66193,45,36,0
465.66193,465.82495,47,36,0
465.82495,466.15103,48,36,0
466.3956,466.43637,48,36,0
466.15103,466.47714,50,36,0
466.43637,466.47714,50,36,0
466.47714,466.80322,48,36,0
466.80322,467.1293,47,36,0
467.1293,467.45538,48,36,0
467.69995,467.74072,48,36,0
467.45538,467.7815,50,36,0
467.74072,467.7815,50,36,0
467.7815,468.10757,48,62,0
468.10757,468.2706,47,62,0
468.2706,468.43365,48,62,0
468.43365,468.75974,50,62,0
469.0043,469.04507,50,62,0
468.75974,469.08582,52,62,0
469.04507,469.08582,52,62,0
469.08582,469.41193,50,62,0
469.41193,469.57495,48,62,0
469.57495,469.738,50,62,0
469.738,470.0641,52,62,0
470.0641,470.39017,53,62,0
470.39017,470.71628,55,75,0
470.39017,470.71628,43,75,0
470.71628,471.04236,53,75,0
470.71628,471.04236,41,75,0
471.04236,471.36844,52,75,0
471.04236,471.36844,40,75,0
471.36844,471.69452,38,75,0
471.69452,472.0206,48,75,0
471.69452,472.0206,36,75,0
472.0206,472.05322,46,75,0
472.0206,472.05322,34,75,0
472.3467,472.3793,45,75,0
472.3467,472.3793,33,75,0
472.6728,472.70538,43,75,0
472.6728,472.70538,31,75,0
472.99887,473.16193,30,75,0
473.16193,473.32495,42,75,0
473.32495,473.34128,42,75,0
473.488,473.5043,42,75,0
473.65106,473.68365,42,75,0
473.97714,474.00974,42,75,0
474.30322,474.46628,30,75,0
474.46628,474.6293,42,75,0
474.6293,474.6456,42,75,0
474.79236,474.80865,42,75,0
474.95538,474.988,42,75,0
475.2815,475.3141,42,75,0
475.60757,475.7706,30,75,0
475.7706,475.93365,42,75,0
475.93365,475.94995,42,75,0
476.0967,476.113,42,75,0
476.25974,476.29236,42,75,0
476.58582,476.61844,42,75,0
476.91193,477.07495,30,75,0
477.07495,477.238,42,75,0
477.238,477.2543,42,75,0
477.40106,477.41736,42,75,0
477.5641,477.5967,42,75,0
477.89017,477.9228,42,75,0
478.21628,478.3793,30,75,0
478.3793,478.54236,42,75,0
478.54236,478.55865,42,75,0
478.70538,478.7217,42,75,0
478.86844,478.90106,42,75,0
479.19452,479.22714,42,75,0
479.5206,479.68365,30,75,0
479.68365,479.8467,42,75,0
479.8467,479.863,42,75,0
480.00974,480.02606,42,75,0
480.1728,480.20538,42,75,0
480.49887,480.5315,42,75,0
480.82495,480.988,30,75,0
480.988,481.15106,42,75,0
481.15106,481.16736,42,75,0
481.3141,481.33038,42,75,0
481.47714,481.50974,42,75,0
481.80322,481.83585,42,75,0
482.1293,482.29236,30,75,0
482.29236,482.45538,42,75,0
482.45538,482.4717,42,75,0
482.61844,482.63474,42,75,0
482.7815,482.8141,42,75,0
483.10757,483.14017,42,75,0
483.43365,483.5967,29,75,0
483.5967,483.75974,41,75,0
483.75974,483.77606,41,75,0
483.9228,483.9391,41,75,0
484.08585,484.11844,41,75,0
484.41193,484.44452,41,75,0
484.738,484.90106,29,75,0
484.90106,485.0641,41,75,0
485.0641,485.08038,41,75,0
485.22714,485.24344,41,75,0
485.39017,485.4228,41,75,0
485.71628,485.74887,41,75,0
486.04236,486.20538,28,75,0
486.20538,486.36844,40,75,0
486.36844,486.38474,40,75,0
486.5315,486.5478,40,75,0
486.69452,486.72714,40,75,0
487.0206,487.05322,40,75,0
487.3467,487.50974,40,75,0
487.50974,487.6728,52,75,0
487.6728,487.6891,52,75,0
487.83585,487.85214,52,75,0
487.99887,488.0315,52,75,0
488.32495,488.35757,52,75,0
488.65106,488.8141,45,88,0
488.8141,488.97714,52,88,0
488.97714,488.99344,52,88,0
489.14017,489.1565,52,88,0
489.30322,489.33585,52,88,0
489.6293,489.66193,52,88,0
489.6293,489.66193,40,88,0
489.95538,489.988,52,88,0
489.95538,489.988,45,88,0
490.2815,490.3141,52,88,0
490.2815,490.3141,40,88,0
490.60757,490.64017,52,88,0
490.60757,490.64017,45,88,0
490.93365,490.96628,52,88,0
490.93365,490.96628,40,88,0
491.25974,491.4228,45,88,0
491.4228,491.58585,52,88,0
491.58585,491.60214,52,88,0
491.74887,491.76517,52,88,0
491.91193,491.94452,52,88,0
492.238,492.27063,52,88,0
492.238,492.27063,40,88,0
492.5641,492.5967,52,88,0
492.5641,492.5967,45,88,0
492.89017,492.9228,52,88,0
492.89017,492.9228,40,88,0
493.21628,493.24887,52,88,0
493.21628,493.24887,45,88,0
493.54236,493.57495,52,88,0
493.54236,493.57495,40,88,0
493.86844,494.19452,52,88,0
493.86844,494.19452,45,88,0
494.19452,494.52063,52,88,0
494.19452,494.52063,40,88,0
494.52063,494.8467,52,88,0
494.52063,494.8467,45,88,0
494.8467,495.1728,52,88,0
494.8467,495.1728,40,88,0
495.1728,495.49887,52,88,0
495.1728,495.49887,45,88,0
495.49887,495.82495,52,88,0
495.49887,495.82495,40,88,0
495.82495,496.15106,52,88,0
495.82495,496.15106,45,88,0
496.15106,496.47714,52,88,0
496.15106,496.47714,40,88,0
496.47714,496.80322,52,88,0
496.47714,496.80322,45,88,0
497.1293,497.45538,64,88,0
497.1293,497.45538,52,88,0
497.1293,497.45538,56,88,0
497.1293,497.45538,59,88,0
497.7815,498.10757,64,88,0
497.7815,498.10757,52,88,0
497.7815,498.10757,57,88,0
497.7815,498.10757,60,88,0
498.43365,498.75974,64,88,0
498.43365,498.75974,52,88,0
498.43365,498.75974,56,88,0
498.43365,498.75974,59,88,0
499.08585,500.0641,45,101,0
499.08585,500.0641,33,101,0
500.0641,500.39017,44,101,0
500.0641,500.39017,32,101,0
500.39017,500.71628,45,101,0
500.39017,500.71628,33,101,0
500.71628,501.04236,44,101,0
500.71628,501.04236,32,101,0
501.04236,501.36844,45,101,0
501.04236,501.36844,33,101,0
501.36844,501.69452,47,101,0
501.36844,501.69452,35,101,0
501.69452,502.02063,45,101,0
501.69452,502.02063,33,101,0
502.02063,502.18365,44,101,0
502.02063,502.18365,32,101,0
502.18365,502.3467,45,101,0
502.18365,502.3467,33,101,0
502.3467,502.6728,47,101,0
502.3467,502.6728,35,101,0
502.6728,502.99887,48,101,0
502.6728,502.99887,36,101,0
502.99887,503.97714,45,114,0
502.99887,503.97714,33,114,0
503.97714,504.30322,44,114,0
503.97714,504.30322,32,114,0
504.30322,504.6293,45,114,0
504.30322,504.6293,33,114,0
504.6293,504.9554,44,114,0
504.6293,504.9554,32,114,0
504.9554,505.2815,45,114,0
504.9554,505.2815,33,114,0
505.2815,505.60757,47,114,0
505.2815,505.60757,35,114,0
505.60757,505.93365,45,114,0
505.60757,505.93365,33,114,0
505.93365,506.0967,44,114,0
505.93365,506.0967,32,114,0
506.0967,506.25974,45,114,0
506.0967,506.25974,33,114,0
506.25974,506.58585,47,114,0
506.25974,506.58585,35,114,0
506.58585,506.91193,48,114,0
506.58585,506.91193,36,114,0
506.91193,507.238,45,114,0
506.91193,507.238,33,114,0
508.21628,508.86844,52,114,0
508.21628,508.86844,40,114,0
508.21628,508.86844,44,114,0
508.21628,508.86844,47,114,0
509.52063,510.1728,45,114,0
509.52063,510.1728,33,114,0
509.52063,510.1728,36,114,0
509.52063,510.1728,40,114,0
13.767888,14.080388,40,62,0
33.767887,33.924137,33,62,0
33.924137,34.080387,45,62,0
34.080387,34.096012,45,62,0
34.236637,34.252262,45,62,0
34.392887,34.424137,45,62,0
34.705387,34.736637,40,49,0
35.017887,35.049137,45,49,0
35.330387,35.361637,40,49,0
35.642887,35.674137,45,49,0
35.955387,35.986637,40,49,0
36.267887,36.424137,33,101,0
36.424137,36.580387,45,101,0
36.580387,36.596012,45,101,0
36.736637,36.752262,45,101,0
36.892887,36.924137,45,101,0
37.205387,37.236637,40,49,0
37.517887,37.549137,45,49,0
37.830387,37.861637,40,49,0
38.142887,38.174137,45,49,0
38.455387,38.486637,40,49,0
38.767887,38.924137,36,101,0
38.924137,39.080387,48,101,0
39.080387,39.096012,48,101,0
39.236637,39.252262,48,101,0
39.392887,39.424137,48,101,0
39.705387,39.736637,43,49,0
40.017887,40.049137,48,49,0
40.330387,40.361637,43,49,0
40.642887,40.674137,48,49,0
40.955387,40.986637,43,49,0
41.267887,41.424137,36,101,0
41.424137,41.580387,48,101,0
41.580387,41.596012,48,101,0
41.736637,41.752262,48,101,0
41.892887,41.924137,48,101,0
42.205387,42.236637,43,49,0
42.517887,42.549137,48,49,0
42.830387,42.861637,43,49,0
43.142887,43.174137,48,49,0
43.455387,43.486637,47,49,0
93.14289,93.45539,53,62,0
93.45539,93.76789,51,62,0
93.76789,94.08039,50,75,0
94.08039,94.39289,51,75,0
94.08039,94.39289,48,75,0
94.39289,94.70539,53,75,0
94.39289,94.70539,44,75,0
94.39289,94.70539,47,75,0
94.39289,94.70539,50,75,0
94.70539,95.01789,54,75,0
94.70539,95.01789,44,75,0
94.70539,95.01789,48,75,0
94.70539,95.01789,51,75,0
97.51789,98.45539,48,62,0
97.51789,98.45539,36,62,0
98.45539,98.48664,43,62,0
98.45539,98.48664,31,62,0
98.76789,98.79914,43,62,0
98.76789,98.79914,36,62,0
99.08039,99.11164,43,62,0
99.08039,99.11164,31,62,0
99.39289,99.42414,43,62,0
99.39289,99.42414,36,62,0
99.70539,99.73664,43,62,0
99.70539,99.73664,31,62,0
100.01789,100.95539,43,62,0
100.01789,100.95539,36,62,0
100.95539,100.98664,43,62,0
100.95539,100.98664,31,62,0
101.26789,101.29914,43,62,0
101.26789,101.29914,36,62,0
101.58039,101.61164,43,62,0
101.58039,101.61164,31,62,0
101.89289,101.92414,43,62,0
101.89289,101.92414,36,62,0
102.20539,102.23664,43,62,0
102.20539,102.23664,31,62,0
110.01789,110.95539,43,36,0
110.01789,110.95539,36,36,0
110.95539,110.98664,43,36,0
110.95539,110.98664,31,36,0
111.26789,112.20539,43,36,0
111.26789,112.20539,36,36,0
112.20539,112.23664,43,36,0
112.20539,112.23664,31,36,0
112.51789,113.45539,43,36,0
112.51789,113.45539,36,36,0
113.45539,113.48664,40,36,0
113.45539,113.48664,28,36,0
128.47328,128.78578,40,62,0
148.47328,148.62953,33,62,0
148.62953,148.78578,45,62,0
148.78578,148.8014,45,62,0
148.94203,148.95766,45,62,0
149.09828,149.12953,45,62,0
149.41078,149.44203,40,49,0
149.72328,149.75453,45,49,0
150.03578,150.06703,40,49,0
150.34828,150.37953,45,49,0
150.66078,150.69203,40,49,0
150.97328,151.12953,33,101,0
151.12953,151.28578,45,101,0
151.28578,151.3014,45,101,0
151.44203,151.45766,45,101,0
151.59828,151.62953,45,101,0
151.91078,151.94203,40,49,0
152.22328,152.25453,45,49,0
152.53578,152.56703,40,49,0
152.84828,152.87953,45,49,0
153.16078,153.19203,40,49,0
153.47328,153.62953,36,101,0
153.62953,153.78578,48,101,0
153.78578,153.8014,48,101,0
153.94203,153.95766,48,101,0
154.09828,154.12953,48,101,0
154.41078,154.44203,43,49,0
154.72328,154.75453,48,49,0
155.03578,155.06703,43,49,0
155.34828,155.37953,48,49,0
155.66078,155.69203,43,49,0
155.97328,156.12953,36,101,0
156.12953,156.28578,48,101,0
156.28578,156.3014,48,101,0
156.44203,156.45766,48,101,0
156.59828,156.62953,48,101,0
156.91078,156.94203,43,49,0
157.22328,157.25453,48,49,0
157.53578,157.56703,43,49,0
157.84828,157.87953,48,49,0
158.16078,158.19203,47,49,0
207.84828,208.16078,53,62,0
208.16078,208.47328,51,62,0
208.47328,208.78578,50,75,0
208.78578,209.09828,51,75,0
208.78578,209.09828,48,75,0
209.09828,209.41078,53,75,0
209.09828,209.41078,44,75,0
209.09828,209.41078,47,75,0
209.09828,209.41078,50,75,0
209.41078,209.72328,54,75,0
209.41078,209.72328,44,75,0
209.41078,209.72328,48,75,0
209.41078,209.72328,51,75,0
212.22328,213.16078,48,62,0
212.22328,213.16078,36,62,0
213.16078,213.19203,43,62,0
213.16078,213.19203,31,62,0
213.47328,213.50453,43,62,0
213.47328,213.50453,36,62,0
213.78578,213.81703,43,62,0
213.78578,213.81703,31,62,0
214.09828,214.12953,43,62,0
214.09828,214.12953,36,62,0
214.41078,214.44203,43,62,0
214.41078,214.44203,31,62,0
214.72328,215.66078,43,62,0
214.72328,215.66078,36,62,0
215.66078,215.69203,43,62,0
215.66078,215.69203,31,62,0
215.97328,216.00453,43,62,0
215.97328,216.00453,36,62,0
216.28578,216.31703,43,62,0
216.28578,216.31703,31,62,0
216.59828,216.62953,43,62,0
216.59828,216.62953,36,62,0
216.91078,216.94203,43,62,0
216.91078,216.94203,31,62,0
224.72328,225.66078,43,36,0
224.72328,225.66078,36,36,0
225.66078,225.69203,43,36,0
225.66078,225.69203,31,36,0
225.97328,226.91078,43,36,0
225.97328,226.91078,36,36,0
226.91078,226.94203,43,36,0
226.91078,226.94203,31,36,0
227.22328,228.16078,43,36,0
227.22328,228.16078,36,36,0
228.16078,228.19203,40,36,0
228.16078,228.19203,28,36,0
247.22328,247.84828,50,36,0
247.84828,248.47328,50,36,0
248.47328,249.09828,50,36,0
249.09828,249.72328,50,36,0
249.72328,250.34828,50,36,0
250.34828,250.97328,50,36,0
250.97328,251.59828,50,36,0
251.59828,252.22328,50,36,0
252.22328,252.84828,50,36,0
252.84828,253.47328,50,36,0
253.47328,254.09828,50,36,0
254.09828,254.72328,50,36,0
254.72328,255.34828,50,36,0
255.34828,255.97328,50,36,0
255.97328,256.59827,50,36,0
256.59827,257.22327,50,36,0
257.22327,257.84827,51,36,0
257.84827,258.47327,51,36,0
258.47327,259.09827,52,36,0
259.09827,259.72327,52,36,0
259.72327,260.97327,53,36,0
260.97327,261.59827,52,36,0
261.59827,262.22327,52,36,0
262.22327,263.47327,53,36,0
407.61844,407.69995,48,75,0
407.69995,407.78146,45,75,0
407.78146,409.738,41,75,0
427.26517,427.30594,35,75,0
427.30594,427.34668,36,75,0
427.34668,427.6728,35,36,0
427.6728,427.99887,33,36,0
427.99887,428.32495,35,36,0
428.56952,428.6103,35,36,0
428.32495,428.65103,36,36,0
428.6103,428.65103,36,36,0
428.65103,428.97714,35,36,0
428.97714,429.14017,33,36,0
429.14017,429.30322,35,36,0
429.30322,429.6293,36,36,0
429.87387,429.91464,36,36,0
429.6293,429.95538,38,36,0
429.91464,429.95538,38,36,0
429.95538,430.28146,36,36,0
430.28146,430.60757,35,36,0
430.60757,430.93365,36,36,0
431.17822,431.21896,36,36,0
430.93365,431.25974,38,36,0
431.21896,431.25974,38,36,0
431.25974,431.58582,36,62,0
431.58582,431.74887,35,62,0
431.74887,431.91193,36,62,0
431.91193,432.238,38,62,0
432.48257,432.52332,38,62,0
432.238,432.5641,40,62,0
432.52332,432.5641,40,62,0
432.5641,432.89017,38,62,0
432.89017,433.05322,36,62,0
433.05322,433.21625,38,62,0
433.21625,433.54236,40,62,0
433.54236,433.86844,41,62,0
