start_time,end_time,note_value,velocity,instrument_program_number
0.0,0.0625,67,49,0
0.0,0.0625,64,49,0
0.625,1.875,67,49,0
0.625,1.875,65,49,0
1.875,1.9375,67,49,0
1.875,1.9375,62,49,0
2.5,3.75,67,49,0
2.5,3.75,64,49,0
3.75,4.21875,60,49,0
4.21875,4.375,64,49,0
4.375,4.6875,64,49,0
4.6875,5.0,62,49,0
5.0,5.625,60,49,0
5.625,6.25,59,49,0
6.25,7.5,60,49,0
7.5,8.125,64,49,0
8.125,9.0625,67,75,0
9.0625,9.375,65,49,0
9.375,9.6875,64,49,0
9.6875,10.0,62,49,0
10.0,10.9375,65,75,0
10.9375,11.25,64,49,0
11.25,11.5625,62,49,0
11.5625,11.875,60,49,0
11.875,12.34375,64,49,0
12.34375,12.5,62,49,0
12.5,13.125,59,49,0
13.125,13.75,60,49,0
13.75,15.0,67,49,0
15.0,15.0625,76,49,0
15.0,15.0625,67,49,0
15.625,16.875,79,75,0
15.625,16.875,67,67,0
16.875,16.9375,74,49,0
16.875,16.9375,67,49,0
17.5,18.75,76,75,0
17.5,18.75,67,67,0
18.75,19.21875,72,49,0
19.21875,19.375,76,49,0
19.375,19.6875,76,49,0
19.6875,20.0,74,49,0
20.0,20.625,72,49,0
20.625,21.25,71,49,0
21.25,22.5,79,49,0
21.25,22.5,72,49,0
21.25,22.5,67,49,0
22.5,22.5625,76,49,0
22.5,22.5625,67,49,0
23.125,24.0625,79,75,0
24.0625,24.21875,77,49,0
24.21875,24.302084,76,49,0
24.291666,24.40625,77,49,0
24.40625,24.71875,76,49,0
24.71875,24.875,74,49,0
25.0,25.9375,77,75,0
25.9375,26.25,76,49,0
26.25,26.71875,72,49,0
26.71875,26.875,74,49,0
26.875,27.1875,76,49,0
27.1875,27.5,74,49,0
27.5,27.5625,71,49,0
28.125,28.1875,78,49,0
28.75,30.0,79,49,0
28.75,30.0,67,49,0
30.0,30.0625,67,49,0
30.625,31.875,69,49,0
31.875,31.9375,71,49,0
32.5,33.75,72,49,0
33.75,34.375,74,49,0
33.75,34.375,67,49,0
34.375,35.0,76,49,0
34.375,35.0,67,49,0
35.0,35.625,72,49,0
35.625,36.25,74,49,0
36.25,36.875,76,49,0
36.875,37.1875,74,49,0
37.5,37.5625,67,49,0
38.125,39.375,69,49,0
39.375,39.4375,71,49,0
40.0,41.25,72,49,0
41.25,41.875,74,49,0
41.25,41.875,67,49,0
41.25,41.875,62,49,0
41.875,42.5,76,49,0
41.875,42.5,67,49,0
41.875,42.5,64,49,0
42.5,43.125,69,49,0
42.5,43.125,60,49,0
43.125,43.75,74,49,0
43.125,43.75,66,49,0
43.75,45.0,67,49,0
43.75,45.0,59,49,0
45.0,45.0625,67,36,0
45.0,45.0625,64,36,0
45.625,46.875,67,36,0
45.625,46.875,65,36,0
46.875,46.9375,67,36,0
46.875,46.9375,62,36,0
47.5,48.75,67,36,0
47.5,48.75,64,36,0
48.75,49.21875,60,36,0
49.21875,49.375,64,36,0
49.375,49.53125,64,36,0
49.53125,49.6875,65,36,0
49.6875,49.84375,67,36,0
49.84375,50.0,65,36,0
50.0,50.625,62,36,0
50.625,51.25,61,36,0
51.25,52.5,69,36,0
51.25,52.5,62,36,0
52.5,52.5625,76,36,0
52.5,52.5625,69,36,0
53.125,54.375,77,88,0
53.125,54.375,68,88,0
54.375,54.4375,74,49,0
54.375,54.4375,71,49,0
54.375,54.4375,67,49,0
55.0,56.25,76,75,0
55.0,56.25,72,70,0
55.0,56.25,67,65,0
56.25,56.3125,72,49,0
56.875,57.34375,76,49,0
57.34375,57.5,74,49,0
57.5,57.5625,72,49,0
58.125,58.1875,71,49,0
58.125,58.1875,67,49,0
58.75,60.0,72,49,0
58.75,60.0,67,49,0
58.75,60.0,64,49,0
60.0,60.0625,67,49,0
60.625,61.875,69,49,0
61.875,61.9375,71,49,0
62.5,63.75,72,49,0
63.75,64.375,74,49,0
63.75,64.375,67,49,0
64.375,65.0,76,49,0
64.375,65.0,67,49,0
65.0,65.625,72,49,0
65.625,66.25,74,49,0
66.25,66.875,76,49,0
66.875,67.1875,74,49,0
67.5,67.5625,67,49,0
68.125,69.375,69,49,0
69.375,69.4375,71,49,0
70.0,71.25,72,49,0
71.25,71.875,74,49,0
71.25,71.875,67,49,0
71.25,71.875,62,49,0
71.875,72.5,76,49,0
71.875,72.5,67,49,0
71.875,72.5,64,49,0
72.5,73.125,69,49,0
72.5,73.125,60,49,0
73.125,73.75,74,49,0
73.125,73.75,66,49,0
73.75,75.0,67,49,0
73.75,75.0,59,49,0
75.0,75.0625,67,36,0
75.0,75.0625,64,36,0
75.625,76.875,67,36,0
75.625,76.875,65,36,0
76.875,76.9375,67,36,0
76.875,76.9375,62,36,0
77.5,78.75,67,36,0
77.5,78.75,64,36,0
78.75,79.21875,60,36,0
79.21875,79.375,64,36,0
79.375,79.53125,64,36,0
79.53125,79.6875,65,36,0
79.6875,79.84375,67,36,0
79.84375,80.0,65,36,0
80.0,80.625,62,36,0
80.625,81.25,61,36,0
81.25,82.5,69,36,0
81.25,82.5,62,36,0
82.5,82.5625,76,36,0
82.5,82.5625,69,36,0
83.125,84.375,77,88,0
83.125,84.375,68,88,0
84.375,84.4375,74,49,0
84.375,84.4375,71,49,0
84.375,84.4375,67,49,0
85.0,86.25,76,75,0
85.0,86.25,72,70,0
85.0,86.25,67,65,0
86.25,86.3125,72,49,0
86.875,87.34375,76,49,0
87.34375,87.5,74,49,0
87.5,87.5625,72,49,0
88.125,88.1875,71,49,0
88.125,88.1875,67,49,0
88.75,90.0,72,49,0
88.75,90.0,67,49,0
88.75,90.0,64,49,0
90.0,90.0625,76,49,0
90.0,90.0625,67,49,0
90.625,91.875,77,49,0
90.625,91.875,67,49,0
91.875,91.9375,74,49,0
91.875,91.9375,67,49,0
92.5,93.4375,76,49,0
92.5,93.4375,67,49,0
93.4375,93.75,72,49,0
93.4375,93.75,67,49,0
93.75,94.0625,74,49,0
93.75,94.0625,67,49,0
94.0625,94.375,76,49,0
94.0625,94.375,67,49,0
94.375,94.6875,73,49,0
94.6875,95.0,74,49,0
95.0,95.3125,79,49,0
95.3125,95.625,72,49,0
95.625,95.9375,79,49,0
96.09375,96.25,67,49,0
95.9375,96.25,71,49,0
96.25,96.5625,81,49,0
96.5625,96.875,79,49,0
96.875,97.1875,76,49,0
97.1875,97.5,72,49,0
97.5,97.5625,79,49,0
97.5,97.5625,76,49,0
97.5,97.5625,67,49,0
98.125,99.375,79,49,0
98.125,99.375,77,49,0
98.125,99.375,67,49,0
99.375,99.4375,79,49,0
99.375,99.4375,74,49,0
99.375,99.4375,67,49,0
100.0,100.9375,79,49,0
100.0,100.9375,76,49,0
100.0,100.9375,67,49,0
100.9375,101.25,72,49,0
100.9375,101.25,67,49,0
101.25,101.5625,74,49,0
101.25,101.5625,67,49,0
101.5625,101.875,76,49,0
101.5625,101.875,67,49,0
101.875,102.1875,73,49,0
102.1875,102.5,74,49,0
102.5,102.8125,83,49,0
102.8125,103.125,79,49,0
103.125,103.4375,78,49,0
103.4375,103.75,74,49,0
103.75,105.0,79,49,0
105.0,105.0625,76,49,0
105.0,105.0625,67,49,0
105.625,106.875,77,49,0
105.625,106.875,67,49,0
106.875,106.9375,74,49,0
106.875,106.9375,67,49,0
107.5,108.4375,76,49,0
107.5,108.4375,67,49,0
108.4375,108.75,72,49,0
108.4375,108.75,67,49,0
108.75,109.0625,74,49,0
108.75,109.0625,67,49,0
109.0625,109.375,76,49,0
109.0625,109.375,67,49,0
109.375,109.6875,73,49,0
109.6875,110.0,74,49,0
110.0,110.3125,79,49,0
110.3125,110.625,72,49,0
110.625,110.9375,79,49,0
111.09375,111.25,67,49,0
110.9375,111.25,71,49,0
111.25,111.5625,81,49,0
111.5625,111.875,79,49,0
111.875,112.1875,76,49,0
112.1875,112.5,72,49,0
112.5,112.5625,79,49,0
112.5,112.5625,76,49,0
112.5,112.5625,67,49,0
113.125,114.375,79,49,0
113.125,114.375,77,49,0
113.125,114.375,67,49,0
114.375,114.4375,79,49,0
114.375,114.4375,74,49,0
114.375,114.4375,67,49,0
115.0,115.9375,79,49,0
115.0,115.9375,76,49,0
115.0,115.9375,67,49,0
115.9375,116.25,72,49,0
115.9375,116.25,67,49,0
116.25,116.5625,74,49,0
116.25,116.5625,67,49,0
116.5625,116.875,76,49,0
116.5625,116.875,67,49,0
116.875,117.1875,73,49,0
117.1875,117.5,74,49,0
117.5,117.8125,83,49,0
117.8125,118.125,79,49,0
118.125,118.4375,78,49,0
118.4375,118.75,74,49,0
118.75,120.0,79,49,0
120.0,120.625,67,49,0
120.625,121.875,69,49,0
121.875,122.1875,69,49,0
122.1875,122.5,74,49,0
122.5,123.125,67,49,0
123.125,123.75,72,49,0
123.75,124.375,74,49,0
124.375,124.6875,76,49,0
124.6875,125.0,74,49,0
125.0,125.3125,72,49,0
125.3125,125.625,74,49,0
125.625,125.9375,75,49,0
125.9375,126.25,81,49,0
126.25,126.875,76,49,0
126.25,126.875,72,49,0
126.875,127.1875,74,49,0
126.875,127.1875,71,49,0
127.5,127.5625,76,49,0
127.5,127.5625,67,49,0
128.125,129.375,77,75,0
128.125,129.375,67,67,0
129.375,129.4375,74,49,0
129.375,129.4375,67,49,0
130.0,130.9375,76,49,0
130.0,130.9375,67,49,0
130.9375,130.97917,72,49,0
130.9375,130.97917,67,49,0
131.25,131.29167,74,49,0
131.25,131.29167,67,49,0
131.5625,131.60417,76,49,0
131.5625,131.60417,67,49,0
131.875,132.1875,76,49,0
132.1875,132.5,74,49,0
132.5,132.8125,81,49,0
132.8125,133.125,74,49,0
133.125,133.4375,81,49,0
133.59375,133.75,69,49,0
133.4375,133.75,73,49,0
133.75,134.0625,82,49,0
134.0625,134.375,81,49,0
134.375,134.6875,77,49,0
134.6875,135.0,74,49,0
135.0,135.0625,76,88,0
135.0,135.0625,69,88,0
135.625,136.875,77,88,0
135.625,136.875,65,88,0
135.625,136.875,68,88,0
135.625,136.875,71,88,0
136.875,137.5,74,88,0
136.875,137.5,65,88,0
137.5,138.75,76,88,0
137.5,138.75,67,88,0
137.5,138.75,64,88,0
138.75,139.21875,72,75,0
139.21875,139.375,74,75,0
139.375,139.84375,76,75,0
139.84375,140.0,74,75,0
140.0,140.3125,72,49,0
140.3125,140.625,67,49,0
140.625,140.9375,69,49,0
140.9375,141.25,71,49,0
141.25,142.5,72,49,0
142.5,143.125,67,49,0
143.125,144.375,69,49,0
144.375,144.6875,69,49,0
144.6875,145.0,74,49,0
145.0,145.625,67,49,0
145.625,146.25,72,49,0
146.25,146.875,74,49,0
146.875,147.1875,76,49,0
147.1875,147.5,74,49,0
147.5,147.8125,72,49,0
147.8125,148.125,74,49,0
148.125,148.4375,75,49,0
148.4375,148.75,81,49,0
148.75,149.375,76,49,0
148.75,149.375,72,49,0
149.375,149.6875,74,49,0
149.375,149.6875,71,49,0
150.0,150.0625,76,49,0
150.0,150.0625,67,49,0
150.625,151.875,77,75,0
150.625,151.875,67,67,0
151.875,151.9375,74,49,0
151.875,151.9375,67,49,0
152.5,153.4375,76,49,0
152.5,153.4375,67,49,0
153.4375,153.47917,72,49,0
153.4375,153.47917,67,49,0
153.75,153.79167,74,49,0
153.75,153.79167,67,49,0
154.0625,154.10417,76,49,0
154.0625,154.10417,67,49,0
154.375,154.6875,76,49,0
154.6875,155.0,74,49,0
155.0,155.3125,81,49,0
155.3125,155.625,74,49,0
155.625,155.9375,81,49,0
156.09375,156.25,69,49,0
155.9375,156.25,73,49,0
156.25,156.5625,82,49,0
156.5625,156.875,81,49,0
156.875,157.1875,77,49,0
157.1875,157.5,74,49,0
157.5,157.5625,76,88,0
157.5,157.5625,69,88,0
158.125,159.375,77,88,0
158.125,159.375,65,88,0
158.125,159.375,68,88,0
158.125,159.375,71,88,0
159.375,160.0,74,88,0
159.375,160.0,65,88,0
160.0,161.25,76,88,0
160.0,161.25,67,88,0
160.0,161.25,64,88,0
161.25,161.71875,72,75,0
161.71875,161.875,74,75,0
161.875,162.34375,76,75,0
162.34375,162.5,74,75,0
162.5,162.8125,72,49,0
162.8125,163.125,67,49,0
163.125,163.4375,69,49,0
163.4375,163.75,71,49,0
163.75,165.0,72,49,0
165.0,165.15625,67,49,0
165.15625,165.3125,72,49,0
165.3125,165.46875,74,49,0
165.46875,165.625,76,49,0
165.625,165.78125,76,49,0
165.78125,165.9375,74,49,0
165.9375,166.09375,74,49,0
166.09375,166.25,72,49,0
166.25,166.40625,72,49,0
166.40625,166.5625,71,49,0
166.5625,166.71875,71,49,0
166.71875,166.80208,69,49,0
166.79167,166.80208,69,49,0
166.83333,166.875,71,49,0
166.875,167.03125,69,49,0
167.03125,167.1875,67,49,0
167.1875,167.34375,69,49,0
167.34375,167.5,71,49,0
167.5,167.65625,74,49,0
167.65625,167.8125,72,49,0
167.8125,167.96875,72,49,0
167.96875,168.125,67,49,0
168.125,168.28125,67,49,0
168.28125,168.4375,64,49,0
168.4375,168.59375,64,49,0
168.59375,168.75,67,49,0
168.75,168.90625,67,49,0
168.90625,169.0625,72,49,0
169.0625,169.21875,76,49,0
169.21875,169.375,79,49,0
169.375,169.53125,79,49,0
169.53125,169.6875,77,49,0
169.6875,169.84375,81,49,0
169.84375,170.0,77,49,0
170.0,170.15625,77,49,0
170.15625,170.3125,76,49,0
170.3125,170.46875,79,49,0
170.46875,170.625,76,49,0
170.625,170.78125,76,49,0
170.78125,170.9375,74,49,0
170.9375,171.09375,79,49,0
171.09375,171.25,77,49,0
171.25,171.71875,75,49,0
171.71875,171.80208,76,49,0
171.79167,171.875,77,49,0
171.875,172.03125,76,75,0
172.03125,172.07292,79,75,0
172.1875,172.22917,81,75,0
172.34375,172.38542,83,75,0
172.5,172.54167,84,75,0
172.65625,172.69792,86,75,0
172.8125,172.85417,86,75,0
172.96875,173.01042,88,75,0
173.125,173.28125,88,75,0
173.28125,173.4375,86,75,0
173.4375,173.59375,86,75,0
173.59375,173.75,84,75,0
173.75,173.90625,84,75,0
173.90625,174.0625,83,75,0
174.0625,174.21875,83,75,0
174.21875,174.30208,81,75,0
174.29167,174.30208,81,75,0
174.33333,174.375,83,75,0
174.375,174.53125,81,75,0
174.53125,174.6875,79,75,0
174.6875,174.84375,81,75,0
174.84375,175.0,83,75,0
175.0,175.15625,86,75,0
175.15625,175.3125,84,75,0
175.3125,175.46875,84,75,0
175.46875,175.625,79,75,0
175.625,175.78125,79,75,0
175.78125,175.9375,76,75,0
175.9375,176.09375,76,75,0
176.09375,176.25,79,75,0
176.25,176.40625,79,75,0
176.40625,176.5625,84,75,0
176.5625,176.71875,86,75,0
176.71875,176.875,87,75,0
176.875,177.03125,87,75,0
177.03125,177.1875,86,75,0
177.1875,177.34375,86,75,0
177.34375,177.5,91,75,0
177.5,177.67046,91,75,0
177.67046,177.84091,79,75,0
177.84091,178.01137,81,75,0
178.01137,178.18182,82,75,0
178.18182,178.35228,70,75,0
178.18182,178.35228,66,75,0
178.35228,178.52272,60,75,0
178.52272,178.69318,69,75,0
178.52272,178.69318,66,75,0
178.69318,178.86363,60,75,0
178.86363,179.20454,67,75,0
178.86363,179.20454,59,75,0
179.20454,179.375,67,75,0
179.375,179.46591,69,75,0
179.45454,179.46591,69,75,0
179.5,179.54546,71,75,0
179.54546,179.73296,69,75,0
179.73296,179.83295,67,75,0
179.82045,179.87045,69,75,0
179.87045,179.92046,71,75,0
179.92046,180.10796,69,75,0
180.10796,180.29546,67,75,0
180.29546,180.46591,67,49,0
180.46591,180.63637,72,49,0
180.63637,180.80682,74,49,0
180.80682,180.97726,76,49,0
180.97726,181.14772,76,49,0
181.14772,181.31818,74,49,0
181.31818,181.48863,74,49,0
181.48863,181.65909,72,49,0
181.65909,181.84659,72,49,0
181.84659,182.03409,71,49,0
182.03409,182.22159,71,49,0
182.22159,182.3216,69,49,0
182.3091,182.3216,69,49,0
182.35909,182.40909,71,49,0
182.40909,182.61742,69,49,0
182.61742,182.82576,67,49,0
182.82576,183.03409,69,49,0
183.03409,183.24242,71,49,0
183.24242,183.39867,74,49,0
183.39867,183.55492,72,49,0
183.55492,183.71117,72,49,0
183.71117,183.86742,67,49,0
183.86742,184.02367,67,49,0
184.02367,184.17992,64,49,0
184.17992,184.33617,64,49,0
184.33617,184.49242,67,49,0
184.49242,184.64867,67,49,0
184.64867,184.80492,72,49,0
184.80492,184.96117,76,49,0
184.96117,185.11742,79,49,0
185.11742,185.27367,79,49,0
185.27367,185.42992,77,49,0
185.42992,185.58617,81,49,0
185.58617,185.74242,77,49,0
185.74242,185.89867,77,49,0
185.89867,186.05492,76,49,0
186.05492,186.21117,79,49,0
186.21117,186.36742,76,49,0
186.36742,186.52367,76,49,0
186.52367,186.67992,74,49,0
186.67992,186.83617,79,49,0
186.83617,186.99242,77,49,0
186.99242,187.46117,75,49,0
187.46117,187.54451,76,49,0
187.53409,187.61742,77,49,0
187.61742,187.77367,76,75,0
187.77367,187.81534,79,75,0
187.92992,187.97159,81,75,0
188.08617,188.12784,83,75,0
188.24242,188.28409,84,75,0
188.39867,188.44034,86,75,0
188.55492,188.59659,86,75,0
188.71117,188.75284,88,75,0
188.86742,189.02367,88,75,0
189.02367,189.17992,86,75,0
189.17992,189.33617,86,75,0
189.33617,189.49242,84,75,0
189.49242,189.64867,84,75,0
189.64867,189.80492,83,75,0
189.80492,189.96117,83,75,0
189.96117,190.04451,81,75,0
190.03409,190.04451,81,75,0
190.07576,190.11742,83,75,0
190.11742,190.27367,81,75,0
190.27367,190.42992,79,75,0
190.42992,190.58617,81,75,0
190.58617,190.74242,83,75,0
190.74242,190.89867,86,75,0
190.89867,191.05492,84,75,0
191.05492,191.21117,84,75,0
191.21117,191.36742,79,75,0
191.36742,191.52367,79,75,0
191.52367,191.67992,76,75,0
191.67992,191.83617,76,75,0
191.83617,191.99242,79,75,0
191.99242,192.14867,79,75,0
192.14867,192.30492,84,75,0
192.30492,192.46117,86,75,0
192.46117,192.61742,87,75,0
192.61742,192.77367,87,75,0
192.77367,192.92992,86,75,0
192.92992,193.08617,86,75,0
193.08617,193.24242,91,75,0
193.24242,193.41287,91,75,0
193.41287,193.58333,79,75,0
193.58333,193.75378,81,75,0
193.75378,193.92424,82,75,0
193.92424,194.0947,70,75,0
193.92424,194.0947,66,75,0
194.0947,194.26515,60,75,0
194.26515,194.43561,69,75,0
194.26515,194.43561,66,75,0
194.43561,194.60606,60,75,0
194.60606,194.94698,67,75,0
194.60606,194.94698,59,75,0
194.94698,195.11742,67,75,0
195.11742,195.20833,69,75,0
195.19698,195.20833,69,75,0
195.24242,195.28787,71,75,0
195.28787,195.47537,69,75,0
195.47537,195.57538,67,75,0
195.56288,195.61288,69,75,0
195.61288,195.66287,71,75,0
195.66287,195.85037,69,75,0
195.85037,196.03787,67,75,0
196.03787,196.20833,76,49,0
196.20833,196.37878,72,49,0
196.37878,196.43561,71,49,0
196.43561,196.49242,73,49,0
196.48106,196.53787,71,49,0
196.54924,196.7197,69,49,0
196.7197,196.89015,81,49,0
196.89015,196.98106,77,49,0
196.9697,197.01515,76,49,0
197.01515,197.06061,77,49,0
197.06061,197.23106,76,49,0
197.23106,197.40152,74,49,0
197.40152,197.58902,86,36,0
197.58902,197.77652,89,36,0
197.77652,197.96402,91,36,0
197.96402,198.15152,93,36,0
198.15152,198.35985,74,49,0
198.35985,198.56818,71,49,0
198.56818,198.63762,69,49,0
198.63762,198.70706,71,49,0
198.69318,198.76262,69,49,0
198.77652,198.98485,67,49,0
198.98485,199.1411,79,49,0
199.1411,199.22443,76,49,0
199.21402,199.25568,74,49,0
199.25568,199.29735,76,49,0
199.29735,199.4536,74,49,0
199.4536,199.60985,72,49,0
199.60985,199.7661,84,36,0
199.7661,199.92235,88,36,0
199.92235,200.0786,89,36,0
200.0786,200.23485,91,36,0
200.23485,200.3911,74,49,0
200.3911,200.54735,76,49,0
200.54735,200.7036,76,49,0
200.7036,200.85985,77,49,0
200.85985,201.0161,77,49,0
201.0161,201.17235,76,49,0
201.17235,201.3286,76,49,0
201.3286,201.48485,74,49,0
201.48485,201.6411,74,49,0
201.6411,201.79735,72,49,0
201.79735,201.9536,72,49,0
201.9536,202.10985,71,49,0
202.10985,202.2661,71,49,0
202.2661,202.42235,69,49,0
202.42235,202.5786,69,49,0
202.5786,202.73485,67,49,0
202.73485,203.5161,67,49,0
203.5161,203.67235,69,49,0
203.67235,203.8286,69,49,0
203.8286,203.98485,67,49,0
203.98485,205.23485,81,88,0
205.23485,205.54735,86,88,0
205.54735,205.85985,80,88,0
205.85985,207.10985,79,88,0
207.10985,207.42235,84,88,0
207.42235,207.73485,79,88,0
207.73485,208.35985,79,88,0
208.35985,208.67235,79,88,0
208.67235,208.98485,76,88,0
208.98485,209.29735,72,88,0
209.29735,209.60985,75,88,0
209.60985,209.92235,74,88,0
209.92235,210.23485,78,88,0
210.23485,210.54735,79,88,0
210.23485,210.54735,71,88,0
210.54735,210.7036,67,49,0
210.7036,210.78693,69,49,0
210.77652,210.78693,69,49,0
210.81818,210.85985,71,49,0
210.85985,211.0161,69,49,0
211.0161,211.09943,67,49,0
211.08902,211.13068,69,49,0
211.13068,211.17235,71,49,0
211.17235,211.3286,69,49,0
211.3286,211.48485,67,49,0
211.48485,211.6411,67,49,0
211.6411,211.79735,72,49,0
211.79735,211.9536,74,49,0
211.9536,212.10985,76,49,0
212.10985,212.2661,76,49,0
212.2661,212.42235,74,49,0
212.42235,212.5786,74,49,0
212.5786,212.73485,72,49,0
212.73485,212.8911,72,49,0
212.8911,213.04735,71,49,0
213.04735,213.2036,71,49,0
213.2036,213.28693,69,49,0
213.27652,213.28693,69,49,0
213.31818,213.35985,71,49,0
213.35985,213.5161,69,49,0
213.5161,213.67235,67,49,0
213.67235,213.8286,69,49,0
213.8286,213.98485,71,49,0
213.98485,214.1411,74,49,0
214.1411,214.29735,72,49,0
214.29735,214.4536,72,49,0
214.4536,214.60985,67,49,0
214.60985,214.7661,67,49,0
214.7661,214.92235,64,49,0
214.92235,215.0786,64,49,0
215.0786,215.23485,67,49,0
215.23485,215.3911,67,49,0
215.3911,215.54735,72,49,0
215.54735,215.7036,74,49,0
215.7036,215.85985,76,49,0
215.85985,216.0161,73,36,0
216.0161,216.17235,74,36,0
216.17235,216.3286,81,36,0
216.3286,216.48485,74,36,0
216.48485,216.6411,76,36,0
216.6411,216.79735,74,36,0
216.79735,216.9536,81,36,0
216.9536,217.03693,74,36,0
217.02652,217.06818,77,36,0
217.06818,217.10985,79,36,0
217.10985,217.2661,77,36,0
217.2661,217.42235,76,36,0
217.42235,217.5786,81,36,0
217.5786,217.73485,79,36,0
217.73485,218.2036,76,36,0
218.2036,218.28693,77,36,0
218.27652,218.35985,79,36,0
218.35985,218.5161,77,36,0
218.5161,218.55777,80,75,0
218.67235,218.71402,81,75,0
218.8286,218.87027,83,75,0
218.98485,219.02652,84,75,0
219.1411,219.18277,86,75,0
219.29735,219.33902,87,75,0
219.4536,219.49527,88,75,0
219.60985,219.7661,88,75,0
219.7661,219.92235,89,75,0
219.92235,220.0786,89,75,0
220.0786,220.23485,86,75,0
220.23485,220.3911,86,75,0
220.3911,220.54735,83,75,0
220.54735,220.7036,83,75,0
220.7036,220.85985,80,75,0
220.85985,221.0161,80,75,0
221.0161,221.17235,79,75,0
221.17235,221.3286,79,75,0
221.3286,221.48485,83,75,0
221.48485,221.6411,86,75,0
221.6411,221.79735,84,75,0
221.79735,221.9536,84,75,0
221.9536,222.10985,79,75,0
222.10985,222.2661,79,75,0
222.2661,222.42235,76,75,0
222.42235,222.5786,76,75,0
222.5786,222.73485,72,75,0
222.73485,222.8911,72,88,0
222.8911,223.04735,67,88,0
223.04735,223.2036,67,88,0
223.2036,223.35985,63,88,0
223.35985,223.5161,63,88,0
223.5161,223.67235,62,88,0
223.67235,223.8286,62,88,0
223.8286,223.98485,60,88,0
223.98485,224.1553,60,88,0
224.1553,224.32576,62,88,0
224.32576,224.49622,62,88,0
224.49622,224.66667,63,88,0
224.66667,224.83711,64,49,0
224.83711,225.00757,67,49,0
225.00757,225.17802,62,49,0
225.17802,225.34848,67,49,0
225.34848,225.68939,60,49,0
225.34848,225.68939,52,49,0
225.68939,225.85985,67,49,0
225.85985,225.95076,69,49,0
225.93939,225.95076,69,49,0
225.98485,226.0303,71,49,0
226.0303,226.2178,69,49,0
226.2178,226.3178,67,49,0
226.3053,226.3553,69,49,0
226.3553,226.4053,71,49,0
226.4053,226.5928,69,49,0
226.5928,226.7803,67,49,0
226.7803,226.95076,81,49,0
226.95076,227.04167,77,49,0
227.0303,227.07576,76,49,0
227.07576,227.12122,77,49,0
227.12122,227.29167,76,49,0
227.29167,227.46211,74,49,0
227.46211,227.64961,86,36,0
227.64961,227.83711,89,36,0
227.83711,228.02461,91,36,0
228.02461,228.21211,93,36,0
228.21211,228.42046,74,49,0
228.42046,228.62878,71,49,0
228.62878,228.69823,69,49,0
228.69823,228.76767,71,49,0
228.75378,228.82323,69,49,0
228.83711,229.04546,67,49,0
229.04546,229.21591,79,49,0
229.21591,229.30681,76,49,0
229.29546,229.34091,74,49,0
229.34091,229.38637,76,49,0
229.38637,229.55681,74,49,0
229.55681,229.72726,72,49,0
229.72726,229.89772,84,36,0
229.89772,230.06818,88,36,0
230.06818,230.23863,89,36,0
230.23863,230.40909,91,36,0
230.40909,230.57954,74,49,0
230.57954,230.75,76,49,0
230.75,230.92046,76,49,0
230.92046,231.09091,77,49,0
231.09091,231.26137,77,49,0
231.26137,231.43181,76,49,0
231.43181,231.60226,76,49,0
231.60226,231.77272,74,49,0
231.77272,231.94318,74,49,0
231.94318,232.11363,72,49,0
232.11363,232.28409,72,49,0
232.28409,232.45454,71,49,0
232.45454,232.625,71,49,0
232.625,232.79546,69,49,0
232.79546,232.96591,69,49,0
232.96591,233.13637,67,49,0
233.13637,233.98863,67,49,0
233.98863,234.15909,69,49,0
234.15909,234.32954,69,49,0
234.32954,234.5,67,49,0
234.5,235.86363,81,88,0
235.86363,236.20454,86,88,0
236.20454,236.54546,80,88,0
236.54546,237.90909,79,88,0
237.90909,238.25,84,88,0
238.25,238.59091,79,88,0
238.59091,239.27272,79,88,0
239.27272,239.61363,79,88,0
239.61363,239.95454,76,88,0
239.95454,240.29546,72,88,0
240.29546,240.63635,75,88,0
240.63635,240.97726,74,88,0
240.97726,241.31818,78,88,0
241.31818,241.65909,79,88,0
241.31818,241.65909,71,88,0
241.65909,241.82954,67,49,0
241.82954,241.92046,69,49,0
241.90909,241.92046,69,49,0
241.95454,242.0,71,49,0
242.0,242.17046,69,49,0
242.17046,242.26135,67,49,0
242.25,242.29546,69,49,0
242.29546,242.3409,71,49,0
242.3409,242.51135,69,49,0
242.51135,242.68181,67,49,0
242.68181,242.85226,67,49,0
242.85226,243.02272,72,49,0
243.02272,243.19318,74,49,0
243.19318,243.36363,76,49,0
243.36363,243.53409,76,49,0
243.53409,243.70454,74,49,0
243.70454,243.875,74,49,0
243.875,244.04546,72,49,0
244.04546,244.2159,72,49,0
244.2159,244.38635,71,49,0
244.38635,244.55681,71,49,0
244.55681,244.64772,69,49,0
244.63635,244.64772,69,49,0
244.68181,244.72726,71,49,0
244.72726,244.89772,69,49,0
244.89772,245.06818,67,49,0
245.06818,245.23863,69,49,0
245.23863,245.40909,71,49,0
245.40909,245.57954,74,49,0
245.57954,245.75,72,49,0
245.75,245.92044,72,49,0
245.92044,246.0909,67,49,0
246.0909,246.26135,67,49,0
246.26135,246.43181,64,49,0
246.43181,246.60226,64,49,0
246.60226,246.77272,67,49,0
246.77272,246.94318,67,49,0
246.94318,247.11363,72,49,0
247.11363,247.28409,74,49,0
247.28409,247.45454,76,49,0
247.45454,247.625,73,36,0
247.625,247.79544,74,36,0
247.79544,247.9659,81,36,0
247.9659,248.13635,74,36,0
248.13635,248.30681,76,36,0
248.30681,248.47726,74,36,0
248.47726,248.64772,81,36,0
248.64772,248.73863,74,36,0
248.72726,248.77272,77,36,0
248.77272,248.81818,79,36,0
248.81818,248.98863,77,36,0
248.98863,249.15909,76,36,0
249.15909,249.32954,81,36,0
249.32954,249.5,79,36,0
249.5,250.01135,76,36,0
250.01135,250.10226,77,36,0
250.0909,250.18181,79,36,0
250.18181,250.35226,77,36,0
250.35226,250.39772,80,75,0
250.52272,250.56818,81,75,0
250.69318,250.73863,83,75,0
250.86363,250.90909,84,75,0
251.03409,251.07954,86,75,0
251.20454,251.24998,87,75,0
251.37498,251.42044,88,75,0
251.54544,251.7159,88,75,0
251.7159,251.88635,89,75,0
251.88635,252.05681,89,75,0
252.05681,252.22726,86,75,0
252.22726,252.39772,86,75,0
252.39772,252.56818,83,75,0
252.56818,252.73863,83,75,0
252.73863,252.90909,80,75,0
252.90909,253.07954,80,75,0
253.07954,253.24998,79,75,0
253.24998,253.42044,79,75,0
253.42044,253.5909,83,75,0
253.5909,253.76135,86,75,0
253.76135,253.93181,84,75,0
253.93181,254.10226,84,75,0
254.10226,254.27272,79,75,0
254.27272,254.44318,79,75,0
254.44318,254.61363,76,75,0
254.61363,254.78409,76,75,0
254.78409,254.95454,72,75,0
254.95454,255.12498,72,88,0
255.12498,255.29544,67,88,0
255.29544,255.4659,67,88,0
255.4659,255.63635,63,88,0
255.63635,255.80681,63,88,0
255.80681,255.97726,62,88,0
255.97726,256.1477,62,88,0
256.1477,256.31818,60,88,0
256.31818,256.50568,60,88,0
256.50568,256.69318,62,88,0
256.69318,256.88068,62,88,0
256.88068,257.06818,63,88,0
257.06818,257.23862,64,49,0
257.23862,257.4091,67,49,0
257.4091,257.57953,62,49,0
257.57953,257.75,67,49,0
257.75,258.0909,60,49,0
257.75,258.0909,52,49,0
259.18182,260.01514,75,49,0
260.01514,260.52652,77,49,0
260.52652,260.69696,79,49,0
260.69696,261.07196,80,49,0
261.44696,261.5303,74,49,0
262.2803,262.74905,75,49,0
262.74905,262.9053,77,49,0
262.9053,263.2178,79,49,0
263.5303,263.5928,72,49,0
264.1553,264.31155,73,49,0
264.31155,264.4678,75,49,0
264.4678,264.62405,77,49,0
264.62405,264.7803,73,49,0
264.7803,265.4053,72,49,0
265.4053,266.0303,71,49,0
266.0303,266.07196,72,49,0
266.3428,266.6553,67,62,0
266.6553,266.9678,67,62,0
266.9678,267.2803,67,75,0
267.2803,267.5928,67,75,0
267.5928,267.9053,67,88,0
267.9053,268.2178,68,114,0
267.9053,268.2178,67,109,0
267.9053,268.2178,60,104,0
268.2178,268.5303,68,88,0
268.2178,268.5303,65,88,0
268.2178,268.5303,60,88,0
268.5303,268.8428,72,114,0
268.5303,268.8428,68,109,0
268.5303,268.8428,67,104,0
268.8428,269.1553,72,88,0
268.8428,269.1553,68,88,0
268.8428,269.1553,65,88,0
269.1553,269.4678,80,114,0
269.1553,269.4678,79,109,0
269.1553,269.4678,71,104,0
269.4678,269.7803,80,88,0
269.4678,269.7803,77,88,0
269.4678,269.7803,70,88,0
269.7803,270.0928,67,114,0
269.7803,270.0928,65,109,0
269.7803,270.0928,58,104,0
270.0928,270.4053,67,88,0
270.0928,270.4053,63,88,0
270.0928,270.4053,58,88,0
270.4053,270.7178,70,114,0
270.4053,270.7178,67,109,0
270.4053,270.7178,65,104,0
270.7178,271.0303,70,88,0
270.7178,271.0303,67,88,0
270.7178,271.0303,63,88,0
271.0303,271.3428,79,114,0
271.0303,271.3428,77,109,0
271.0303,271.3428,70,104,0
271.3428,271.6553,79,88,0
271.3428,271.6553,75,88,0
271.3428,271.6553,70,88,0
271.6553,271.9678,67,114,0
271.6553,271.9678,61,109,0
271.6553,271.9678,58,104,0
271.9678,272.2803,67,88,0
271.9678,272.2803,62,88,0
271.9678,272.2803,58,88,0
272.2803,272.5928,73,114,0
272.2803,272.5928,70,109,0
272.2803,272.5928,67,104,0
272.5928,272.9053,74,88,0
272.5928,272.9053,70,88,0
272.5928,272.9053,67,88,0
272.9053,273.2178,79,114,0
272.9053,273.2178,67,102,0
272.9053,273.2178,72,106,0
272.9053,273.2178,75,110,0
273.2178,273.5303,78,88,0
273.2178,273.5303,68,88,0
273.2178,273.5303,72,88,0
273.2178,273.5303,74,88,0
273.5303,273.8428,79,88,0
273.5303,273.8428,67,88,0
273.5303,273.8428,71,88,0
273.5303,273.8428,74,88,0
274.7803,274.8428,75,49,0
275.4053,275.87405,77,49,0
275.87405,276.0303,79,49,0
276.0303,276.3428,80,49,0
276.6553,276.7178,74,49,0
277.2803,277.74905,75,49,0
277.74905,277.9053,77,49,0
277.9053,278.2178,79,49,0
278.5303,278.5928,72,49,0
279.1553,279.31155,73,49,0
279.31155,279.4678,75,49,0
279.4678,279.62405,77,49,0
279.62405,279.7803,73,49,0
279.7803,280.4053,72,49,0
280.4053,281.0303,71,49,0
281.0303,281.07196,72,49,0
281.3428,281.6553,67,62,0
281.6553,281.9678,67,62,0
281.9678,282.2803,67,75,0
282.2803,282.5928,67,75,0
282.5928,282.9053,67,88,0
282.9053,283.2178,68,114,0
282.9053,283.2178,67,109,0
282.9053,283.2178,60,104,0
283.2178,283.5303,68,88,0
283.2178,283.5303,65,88,0
283.2178,283.5303,60,88,0
283.5303,283.8428,72,114,0
283.5303,283.8428,68,109,0
283.5303,283.8428,67,104,0
283.8428,284.1553,72,88,0
283.8428,284.1553,68,88,0
283.8428,284.1553,65,88,0
284.1553,284.4678,80,114,0
284.1553,284.4678,79,109,0
284.1553,284.4678,71,104,0
284.4678,284.7803,80,88,0
284.4678,284.7803,77,88,0
284.4678,284.7803,70,88,0
284.7803,285.0928,67,114,0
284.7803,285.0928,65,109,0
284.7803,285.0928,58,104,0
285.0928,285.4053,67,88,0
285.0928,285.4053,63,88,0
285.0928,285.4053,58,88,0
285.4053,285.7178,70,114,0
285.4053,285.7178,67,109,0
285.4053,285.7178,65,104,0
285.7178,286.0303,70,88,0
285.7178,286.0303,67,88,0
285.7178,286.0303,63,88,0
286.0303,286.3428,79,114,0
286.0303,286.3428,77,109,0
286.0303,286.3428,70,104,0
286.3428,286.6553,79,88,0
286.3428,286.6553,75,88,0
286.3428,286.6553,70,88,0
286.6553,286.9678,67,114,0
286.6553,286.9678,61,109,0
286.6553,286.9678,58,104,0
286.9678,287.2803,67,88,0
286.9678,287.2803,62,88,0
286.9678,287.2803,58,88,0
287.2803,287.5928,73,114,0
287.2803,287.5928,70,109,0
287.2803,287.5928,67,104,0
287.5928,287.9053,74,88,0
287.5928,287.9053,70,88,0
287.5928,287.9053,67,88,0
287.9053,288.2178,79,114,0
287.9053,288.2178,67,102,0
287.9053,288.2178,72,106,0
287.9053,288.2178,75,110,0
288.2178,288.5303,78,88,0
288.2178,288.5303,68,88,0
288.2178,288.5303,72,88,0
288.2178,288.5303,74,88,0
288.5303,288.8428,79,88,0
288.5303,288.8428,67,88,0
288.5303,288.8428,71,88,0
288.5303,288.8428,74,88,0
288.8428,289.1553,67,88,0
289.1553,289.4678,67,88,0
289.4678,289.7803,67,88,0
289.7803,290.0928,67,88,0
290.0928,290.4053,67,88,0
290.4053,290.7178,68,127,0
290.4053,290.7178,67,119,0
290.7178,291.0303,68,101,0
290.7178,291.0303,65,101,0
291.0303,291.3428,79,127,0
291.0303,291.3428,68,119,0
291.3428,291.6553,77,101,0
291.3428,291.6553,68,101,0
291.6553,291.9678,86,127,0
291.6553,291.9678,80,122,0
291.6553,291.9678,79,117,0
291.9678,292.2803,86,101,0
291.9678,292.2803,80,101,0
291.9678,292.2803,77,101,0
292.2803,292.5928,67,127,0
292.2803,292.5928,65,119,0
292.5928,292.9053,67,101,0
292.5928,292.9053,63,101,0
292.9053,293.2178,77,127,0
292.9053,293.2178,67,119,0
293.2178,293.5303,75,101,0
293.2178,293.5303,67,101,0
293.5303,293.8428,86,127,0
293.5303,293.8428,79,119,0
293.8428,294.1553,84,101,0
293.8428,294.1553,79,101,0
294.1553,294.4678,72,101,0
294.1553,294.4678,67,101,0
294.4678,294.7803,74,101,0
294.4678,294.7803,67,101,0
294.7803,295.0928,75,101,0
294.7803,295.0928,67,101,0
295.0928,295.4053,77,101,0
295.0928,295.4053,67,101,0
295.4053,295.7178,75,101,0
295.4053,295.7178,67,101,0
295.7178,296.0303,74,101,0
295.7178,296.0303,69,101,0
295.7178,296.0303,66,101,0
296.0303,296.6553,72,114,0
296.0303,296.6553,63,114,0
296.0303,296.6553,66,114,0
296.0303,296.6553,69,114,0
296.6553,296.9678,71,114,0
296.6553,296.9678,67,114,0
296.6553,296.9678,62,114,0
297.5928,297.9053,71,114,0
297.5928,297.9053,59,114,0
297.9053,298.37405,72,127,0
297.9053,298.37405,60,127,0
298.37405,298.5303,75,114,0
298.37405,298.5303,63,114,0
298.5303,298.99905,74,127,0
298.5303,298.99905,62,127,0
298.99905,299.1553,84,114,0
298.99905,299.1553,72,114,0
299.1553,299.62405,83,127,0
299.1553,299.62405,71,127,0
299.62405,299.7803,86,114,0
299.62405,299.7803,74,114,0
299.7803,300.24905,75,127,0
299.7803,300.24905,63,127,0
300.24905,300.4053,79,114,0
300.24905,300.4053,67,114,0
300.4053,300.87405,84,127,0
300.4053,300.87405,72,127,0
300.87405,301.0303,86,114,0
300.87405,301.0303,74,114,0
301.0303,301.49905,87,127,0
301.0303,301.49905,75,127,0
301.49905,301.6553,74,114,0
301.49905,301.6553,62,114,0
301.6553,302.12405,75,101,0
301.6553,302.12405,63,101,0
302.12405,302.2803,74,101,0
302.12405,302.2803,62,101,0
302.2803,302.74905,72,101,0
302.2803,302.74905,60,101,0
302.74905,302.9053,71,101,0
302.74905,302.9053,59,101,0
302.9053,303.37405,72,101,0
302.9053,303.37405,60,101,0
303.37405,303.5303,74,101,0
303.37405,303.5303,62,101,0
303.5303,304.1553,78,101,0
303.5303,304.1553,69,101,0
303.5303,304.1553,72,101,0
303.5303,304.1553,75,101,0
304.1553,304.4678,79,101,0
304.1553,304.4678,74,101,0
304.1553,304.4678,71,101,0
304.7803,304.8428,75,49,0
305.4053,305.87405,77,49,0
305.87405,306.0303,79,49,0
306.0303,306.3428,80,49,0
306.6553,306.7178,74,49,0
307.12405,307.2803,77,49,0
307.2803,307.43655,75,49,0
307.43655,307.5928,74,49,0
307.5928,307.74905,75,49,0
307.74905,307.9053,77,49,0
307.9053,308.2178,79,49,0
308.5303,308.5928,72,49,0
309.1553,309.2803,73,49,0
309.26987,309.39487,75,49,0
309.4053,309.5303,77,49,0
309.51987,309.64487,75,49,0
309.6553,309.7803,73,49,0
309.7803,310.4053,73,49,0
310.4053,311.0303,72,49,0
311.0303,311.6553,73,49,0
312.9053,313.2178,68,62,0
312.9053,313.2178,67,54,0
313.2178,313.5303,68,36,0
313.2178,313.5303,65,36,0
313.5303,313.8428,74,62,0
313.5303,313.8428,72,54,0
313.8428,314.1553,74,36,0
313.8428,314.1553,71,36,0
314.1553,314.4678,86,62,0
314.1553,314.4678,80,57,0
314.1553,314.4678,79,52,0
314.4678,314.7803,86,36,0
314.4678,314.7803,80,36,0
314.4678,314.7803,77,36,0
314.7803,315.0928,67,62,0
314.7803,315.0928,65,54,0
315.0928,315.4053,67,36,0
315.0928,315.4053,63,36,0
315.4053,315.7178,75,62,0
315.4053,315.7178,74,54,0
315.7178,316.0303,75,36,0
315.7178,316.0303,72,36,0
316.0303,316.3428,84,62,0
316.0303,316.3428,79,57,0
316.0303,316.3428,77,52,0
316.3428,316.6553,84,36,0
316.3428,316.6553,79,36,0
316.3428,316.6553,75,36,0
316.6553,316.9678,87,36,0
316.6553,316.9678,77,36,0
316.9678,317.2803,85,36,0
316.9678,317.2803,77,36,0
317.2803,317.5928,73,36,0
317.2803,317.5928,63,36,0
317.5928,317.9053,72,36,0
317.5928,317.9053,63,36,0
318.5303,318.8428,60,36,0
318.5303,318.8428,55,36,0
318.5303,318.8428,51,36,0
318.8428,319.1553,67,62,0
319.1553,319.4678,67,62,0
319.4678,319.7803,67,75,0
319.7803,320.0928,67,88,0
320.0928,320.4053,67,88,0
320.4053,320.7178,68,127,0
320.4053,320.7178,67,119,0
320.7178,321.0303,68,101,0
320.7178,321.0303,65,101,0
321.0303,321.3428,79,127,0
321.0303,321.3428,68,119,0
321.3428,321.6553,77,101,0
321.3428,321.6553,68,101,0
321.6553,321.9678,86,127,0
321.6553,321.9678,80,122,0
321.6553,321.9678,79,117,0
321.9678,322.2803,86,101,0
321.9678,322.2803,80,101,0
321.9678,322.2803,77,101,0
322.2803,322.5928,67,127,0
322.2803,322.5928,65,119,0
322.5928,322.9053,67,101,0
322.5928,322.9053,63,101,0
322.9053,323.2178,77,127,0
322.9053,323.2178,67,119,0
323.2178,323.5303,75,101,0
323.2178,323.5303,67,101,0
323.5303,323.8428,86,127,0
323.5303,323.8428,79,119,0
323.8428,324.1553,84,101,0
323.8428,324.1553,79,101,0
324.1553,324.4678,72,101,0
324.1553,324.4678,67,101,0
324.4678,324.7803,74,101,0
324.4678,324.7803,67,101,0
324.7803,325.0928,75,101,0
324.7803,325.0928,67,101,0
325.0928,325.4053,77,101,0
325.0928,325.4053,67,101,0
325.4053,325.7178,75,101,0
325.4053,325.7178,67,101,0
325.7178,326.0303,74,101,0
325.7178,326.0303,69,101,0
325.7178,326.0303,66,101,0
326.0303,326.6553,72,114,0
326.0303,326.6553,63,114,0
326.0303,326.6553,66,114,0
326.0303,326.6553,69,114,0
326.6553,326.9678,71,114,0
326.6553,326.9678,67,114,0
326.6553,326.9678,62,114,0
327.5928,327.9053,71,114,0
327.5928,327.9053,59,114,0
327.9053,328.37405,72,127,0
327.9053,328.37405,60,127,0
328.37405,328.5303,75,114,0
328.37405,328.5303,63,114,0
328.5303,328.99905,74,127,0
328.5303,328.99905,62,127,0
328.99905,329.1553,84,114,0
328.99905,329.1553,72,114,0
329.1553,329.62405,83,127,0
329.1553,329.62405,71,127,0
329.62405,329.7803,86,114,0
329.62405,329.7803,74,114,0
329.7803,330.24905,75,127,0
329.7803,330.24905,63,127,0
330.24905,330.4053,79,114,0
330.24905,330.4053,67,114,0
330.4053,330.87405,84,127,0
330.4053,330.87405,72,127,0
330.87405,331.0303,86,114,0
330.87405,331.0303,74,114,0
331.0303,331.49905,87,127,0
331.0303,331.49905,75,127,0
331.49905,331.6553,74,114,0
331.49905,331.6553,62,114,0
331.6553,332.12405,75,101,0
331.6553,332.12405,63,101,0
332.12405,332.2803,74,101,0
332.12405,332.2803,62,101,0
332.2803,332.74905,72,101,0
332.2803,332.74905,60,101,0
332.74905,332.9053,71,101,0
332.74905,332.9053,59,101,0
332.9053,333.37405,72,101,0
332.9053,333.37405,60,101,0
333.37405,333.5303,74,101,0
333.37405,333.5303,62,101,0
333.5303,334.1553,78,101,0
333.5303,334.1553,69,101,0
333.5303,334.1553,72,101,0
333.5303,334.1553,75,101,0
334.1553,334.4678,79,101,0
334.1553,334.4678,74,101,0
334.1553,334.4678,71,101,0
334.7803,334.8428,75,49,0
335.4053,335.87405,77,49,0
335.87405,336.0303,79,49,0
336.0303,336.3428,80,49,0
336.6553,336.7178,74,49,0
337.12405,337.2803,77,49,0
337.2803,337.43655,75,49,0
337.43655,337.5928,74,49,0
337.5928,337.74905,75,49,0
337.74905,337.9053,77,49,0
337.9053,338.2178,79,49,0
338.5303,338.5928,72,49,0
339.1553,339.2803,73,49,0
339.26987,339.39487,75,49,0
339.4053,339.5303,77,49,0
339.51987,339.64487,75,49,0
339.6553,339.7803,73,49,0
339.7803,340.4053,73,49,0
340.4053,341.0303,72,49,0
341.0303,341.6553,73,49,0
342.9053,343.2178,68,62,0
342.9053,343.2178,67,54,0
343.2178,343.5303,68,36,0
343.2178,343.5303,65,36,0
343.5303,343.8428,74,62,0
343.5303,343.8428,72,54,0
343.8428,344.1553,74,36,0
343.8428,344.1553,71,36,0
344.1553,344.4678,86,62,0
344.1553,344.4678,80,57,0
344.1553,344.4678,79,52,0
344.4678,344.7803,86,36,0
344.4678,344.7803,80,36,0
344.4678,344.7803,77,36,0
344.7803,345.0928,67,62,0
344.7803,345.0928,65,54,0
345.0928,345.4053,67,36,0
345.0928,345.4053,63,36,0
345.4053,345.7178,75,62,0
345.4053,345.7178,74,54,0
345.7178,346.0303,75,36,0
345.7178,346.0303,72,36,0
346.0303,346.3428,84,62,0
346.0303,346.3428,79,57,0
346.0303,346.3428,77,52,0
346.3428,346.6553,84,36,0
346.3428,346.6553,79,36,0
346.3428,346.6553,75,36,0
346.6553,346.9678,87,36,0
346.6553,346.9678,77,36,0
346.9678,347.2803,85,36,0
346.9678,347.2803,77,36,0
347.2803,347.5928,73,36,0
347.2803,347.5928,63,36,0
347.5928,347.9053,72,36,0
347.5928,347.9053,63,36,0
350.4053,351.3428,72,49,0
350.4053,351.3428,60,49,0
350.4053,351.3428,63,49,0
350.4053,351.3428,68,49,0
351.3428,351.38446,72,49,0
351.6553,351.69696,72,49,0
351.9678,352.00946,72,49,0
352.2803,352.38446,73,49,0
352.37405,352.4782,75,49,0
352.48862,352.5928,77,49,0
352.5928,352.69696,75,49,0
352.68655,352.7907,73,49,0
352.80112,352.9053,72,49,0
352.9053,353.00946,70,49,0
352.99905,353.1032,72,49,0
353.11362,353.2178,73,49,0
353.2178,353.32196,72,49,0
353.31155,353.4157,70,49,0
353.42612,353.5303,68,49,0
353.5303,353.63446,67,49,0
353.62405,353.7282,70,49,0
353.73862,353.8428,72,49,0
353.8428,353.94696,73,49,0
353.93655,354.0407,75,49,0
354.05112,354.1553,77,49,0
354.1553,354.25946,75,49,0
354.24905,354.3532,84,49,0
354.36362,354.4678,82,49,0
354.4678,354.57196,80,49,0
354.56155,354.6657,79,49,0
354.67612,354.7803,77,49,0
354.7803,354.88446,75,49,0
354.87405,354.9782,77,49,0
354.98862,355.0928,73,49,0
355.0928,355.19696,75,49,0
355.18655,355.2907,72,49,0
355.30112,355.4053,70,49,0
355.4053,355.50946,68,49,0
355.49905,355.6032,70,49,0
355.61362,355.7178,67,49,0
355.7178,355.82196,68,49,0
355.81155,355.9157,70,49,0
355.92612,356.0303,72,49,0
356.0303,356.13446,75,75,0
356.12405,356.2282,73,49,0
356.23862,356.3428,75,49,0
356.3428,356.44696,77,49,0
356.43655,356.5407,79,49,0
356.55112,356.6553,80,49,0
356.6553,356.75946,82,75,0
356.74905,356.8532,80,49,0
356.86362,356.9678,82,49,0
356.9678,357.07196,84,49,0
357.06155,357.1657,85,49,0
357.17612,357.2803,87,49,0
357.2803,357.38446,89,75,0
357.37405,357.4782,87,49,0
357.48862,357.5928,89,49,0
357.5928,357.69696,91,49,0
357.68655,357.7907,92,49,0
357.80112,357.9053,94,49,0
357.9053,358.2178,92,49,0
359.4678,359.57196,69,75,0
359.56155,359.6657,70,75,0
359.67612,359.7803,72,75,0
359.7803,359.88446,73,114,0
359.87405,359.9782,75,88,0
359.98862,360.0928,77,88,0
360.0928,360.19696,75,88,0
360.18655,360.2907,73,88,0
360.30112,360.4053,72,88,0
360.4053,360.50946,70,114,0
360.49905,360.6032,72,88,0
360.61362,360.7178,73,88,0
360.7178,360.82196,72,88,0
360.81155,360.9157,70,88,0
360.92612,361.0303,68,88,0
361.0303,361.13446,67,114,0
361.12405,361.2282,70,88,0
361.23862,361.3428,67,88,0
361.3428,361.44696,64,88,0
361.43655,361.5407,63,88,0
361.55112,361.6553,61,88,0
361.6553,361.75946,60,88,0
361.74905,361.8532,63,88,0
361.86362,361.9678,68,88,0
361.9678,362.07196,59,88,0
362.06155,362.1657,62,88,0
362.17612,362.2803,68,88,0
362.2803,362.38446,60,88,0
362.37405,362.4782,63,88,0
362.48862,362.5928,68,88,0
362.5928,362.9053,74,88,0
362.5928,362.9053,68,88,0
362.5928,362.9053,62,88,0
362.9053,363.2178,75,88,0
362.9053,363.2178,68,88,0
362.9053,363.2178,63,88,0
363.2178,363.5303,77,88,0
363.2178,363.5303,65,88,0
363.2178,363.5303,69,88,0
363.2178,363.5303,75,88,0
363.5303,363.8428,79,88,0
363.5303,363.8428,67,88,0
363.5303,363.8428,70,88,0
363.5303,363.8428,75,88,0
363.8428,364.1553,80,88,0
363.8428,364.1553,68,88,0
363.8428,364.1553,71,88,0
363.8428,364.1553,75,88,0
364.1553,364.4678,82,88,0
364.1553,364.4678,75,88,0
364.1553,364.4678,70,88,0
364.4678,364.7803,90,101,0
364.4678,364.7803,78,101,0
364.7803,365.0928,89,101,0
364.7803,365.0928,77,101,0
365.0928,365.4053,94,101,0
365.0928,365.4053,86,101,0
365.0928,365.4053,80,101,0
365.4053,365.7178,87,101,0
365.4053,365.7178,79,101,0
365.4053,365.7178,75,101,0
366.0303,366.13446,63,101,0
366.12405,366.2282,67,101,0
366.23862,366.3428,68,101,0
366.3428,366.44696,70,101,0
366.43655,366.5407,72,101,0
366.55112,366.6553,74,101,0
366.6553,366.9678,75,127,0
367.12405,367.2803,72,49,0
367.2803,367.38446,73,49,0
367.37405,367.4782,75,49,0
367.48862,367.5928,77,49,0
367.5928,367.69696,75,49,0
367.68655,367.7907,73,49,0
367.80112,367.9053,72,49,0
367.9053,368.00946,70,49,0
367.99905,368.1032,72,49,0
368.11362,368.2178,73,49,0
368.2178,368.32196,72,49,0
368.31155,368.4157,70,49,0
368.42612,368.5303,68,49,0
368.5303,368.63446,67,49,0
368.62405,368.7282,70,49,0
368.73862,368.8428,72,49,0
368.8428,368.94696,73,49,0
368.93655,369.0407,75,49,0
369.05112,369.1553,77,49,0
369.1553,369.25946,75,49,0
369.24905,369.3532,84,49,0
369.36362,369.4678,82,49,0
369.4678,369.57196,80,49,0
369.56155,369.6657,79,49,0
369.67612,369.7803,77,49,0
369.7803,369.88446,75,49,0
369.87405,369.9782,77,49,0
369.98862,370.0928,73,49,0
370.0928,370.19696,75,49,0
370.18655,370.2907,72,49,0
370.30112,370.4053,70,49,0
370.4053,370.50946,68,49,0
370.49905,370.6032,70,49,0
370.61362,370.7178,67,49,0
370.7178,370.82196,68,49,0
370.81155,370.9157,70,49,0
370.92612,371.0303,72,49,0
371.0303,371.13446,75,75,0
371.12405,371.2282,73,49,0
371.23862,371.3428,75,49,0
371.3428,371.44696,77,49,0
371.43655,371.5407,79,49,0
371.55112,371.6553,80,49,0
371.6553,371.75946,82,75,0
371.74905,371.8532,80,49,0
371.86362,371.9678,82,49,0
371.9678,372.07196,84,49,0
372.06155,372.1657,85,49,0
372.17612,372.2803,87,49,0
372.2803,372.38446,89,75,0
372.37405,372.4782,87,49,0
372.48862,372.5928,89,49,0
372.5928,372.69696,91,49,0
372.68655,372.7907,92,49,0
372.80112,372.9053,94,49,0
372.9053,373.2178,92,49,0
374.4678,374.57196,69,75,0
374.56155,374.6657,70,75,0
374.67612,374.7803,72,75,0
374.7803,374.88446,73,114,0
374.87405,374.9782,75,88,0
374.98862,375.0928,77,88,0
375.0928,375.19696,75,88,0
375.18655,375.2907,73,88,0
375.30112,375.4053,72,88,0
375.4053,375.50946,70,114,0
375.49905,375.6032,72,88,0
375.61362,375.7178,73,88,0
375.7178,375.82196,72,88,0
375.81155,375.9157,70,88,0
375.92612,376.0303,68,88,0
376.0303,376.13446,67,114,0
376.12405,376.2282,70,88,0
376.23862,376.3428,67,88,0
376.3428,376.44696,64,88,0
376.43655,376.5407,63,88,0
376.55112,376.6553,61,88,0
376.6553,376.75946,60,88,0
376.74905,376.8532,63,88,0
376.86362,376.9678,68,88,0
376.9678,377.07196,59,88,0
377.06155,377.1657,62,88,0
377.17612,377.2803,68,88,0
377.2803,377.38446,60,88,0
377.37405,377.4782,63,88,0
377.48862,377.5928,68,88,0
377.5928,377.9053,74,88,0
377.5928,377.9053,68,88,0
377.5928,377.9053,62,88,0
377.9053,378.2178,75,88,0
377.9053,378.2178,68,88,0
377.9053,378.2178,63,88,0
378.2178,378.5303,77,88,0
378.2178,378.5303,65,88,0
378.2178,378.5303,69,88,0
378.2178,378.5303,75,88,0
378.5303,378.8428,79,88,0
378.5303,378.8428,67,88,0
378.5303,378.8428,70,88,0
378.5303,378.8428,75,88,0
378.8428,379.1553,80,88,0
378.8428,379.1553,68,88,0
378.8428,379.1553,71,88,0
378.8428,379.1553,75,88,0
379.1553,379.4678,82,88,0
379.1553,379.4678,75,88,0
379.1553,379.4678,70,88,0
379.4678,379.7803,90,101,0
379.4678,379.7803,78,101,0
379.7803,380.0928,89,101,0
379.7803,380.0928,77,101,0
380.0928,380.4053,94,101,0
380.0928,380.4053,86,101,0
380.0928,380.4053,80,101,0
380.4053,380.7178,87,101,0
380.4053,380.7178,79,101,0
380.4053,380.7178,75,101,0
381.0303,381.13446,63,101,0
381.12405,381.2282,67,101,0
381.23862,381.3428,68,101,0
381.3428,381.44696,70,101,0
381.43655,381.5407,72,101,0
381.55112,381.6553,74,101,0
381.6553,381.9678,75,127,0
382.12405,382.2803,75,49,0
382.2803,382.38446,77,49,0
382.37405,382.4782,79,49,0
382.48862,382.5928,80,49,0
382.5928,382.69696,81,49,0
382.68655,382.7907,82,49,0
382.80112,382.9053,84,49,0
382.9053,383.00946,85,49,0
382.99905,383.1032,87,49,0
383.11362,383.2178,89,49,0
383.2178,383.32196,87,49,0
383.31155,383.4157,85,49,0
383.42612,383.5303,84,49,0
383.5303,383.63446,82,49,0
383.62405,383.7282,70,49,0
383.73862,383.8428,71,49,0
383.8428,383.94696,72,49,0
383.93655,384.0407,73,49,0
384.05112,384.1553,74,49,0
384.1553,384.25946,75,49,0
384.24905,384.3532,77,49,0
384.36362,384.4678,78,49,0
384.4678,384.57196,79,49,0
384.56155,384.6657,80,49,0
384.67612,384.7803,82,49,0
384.7803,384.88446,84,49,0
384.87405,384.9782,85,49,0
384.98862,385.0928,87,49,0
385.0928,385.19696,85,49,0
385.18655,385.2907,84,49,0
385.30112,385.4053,82,49,0
385.4053,385.50946,80,49,0
385.49905,385.6032,68,49,0
385.61362,385.7178,69,49,0
385.7178,385.82196,70,49,0
385.81155,385.9157,72,49,0
385.92612,386.0303,73,49,0
386.0303,386.13446,75,49,0
386.12405,386.2282,77,49,0
386.23862,386.3428,78,49,0
386.3428,386.44696,79,49,0
386.43655,386.5407,80,49,0
386.55112,386.6553,82,49,0
386.6553,386.75946,83,49,0
386.74905,386.8532,85,49,0
386.86362,386.9678,87,49,0
386.9678,387.07196,89,49,0
387.06155,387.1657,91,49,0
387.17612,387.2803,92,49,0
387.2803,387.38446,93,49,0
387.37405,387.4782,94,49,0
387.48862,387.5928,95,49,0
387.5928,387.69696,96,49,0
387.68655,387.7907,97,49,0
387.80112,387.9053,98,49,0
387.9053,388.2178,99,49,0
388.2178,388.32196,63,49,0
388.31155,388.4157,65,49,0
388.42612,388.5303,67,49,0
388.5303,388.63446,68,62,0
388.62405,388.7282,70,62,0
388.73862,388.8428,72,62,0
388.8428,388.94696,74,62,0
388.93655,389.0407,75,62,0
389.05112,389.1553,77,62,0
389.1553,389.25946,79,75,0
389.24905,389.3532,80,75,0
389.36362,389.4678,82,75,0
389.4678,389.57196,84,75,0
389.56155,389.6657,86,75,0
389.67612,389.7803,87,75,0
389.7803,389.88446,65,88,0
389.87405,389.9782,67,88,0
389.98862,390.0928,68,88,0
390.0928,390.19696,69,88,0
390.18655,390.2907,70,88,0
390.30112,390.4053,72,88,0
390.4053,390.50946,73,88,0
390.49905,390.6032,75,88,0
390.61362,390.7178,77,88,0
390.7178,390.82196,79,88,0
390.81155,390.9157,80,88,0
390.92612,391.0303,81,88,0
391.0303,391.13446,82,88,0
391.12405,391.2282,84,88,0
391.23862,391.3428,80,88,0
391.3428,391.44696,82,88,0
391.43655,391.5407,84,88,0
391.55112,391.6553,85,88,0
391.6553,391.75946,63,88,0
391.74905,391.8532,65,88,0
391.86362,391.9678,66,88,0
391.9678,392.07196,67,88,0
392.06155,392.1657,68,88,0
392.17612,392.2803,70,88,0
392.2803,392.38446,72,88,0
392.37405,392.4782,73,88,0
392.48862,392.5928,74,88,0
392.5928,392.69696,75,88,0
392.68655,392.7907,77,88,0
392.80112,392.9053,79,88,0
392.9053,393.00946,80,88,0
392.99905,393.1032,82,88,0
393.11362,393.2178,83,88,0
393.2178,393.32196,84,88,0
393.31155,393.4157,85,88,0
393.42612,393.5303,87,88,0
393.5303,393.63446,88,101,0
393.62405,393.7282,76,101,0
393.73862,393.8428,88,101,0
393.8428,393.94696,90,101,0
393.93655,394.0407,78,101,0
394.05112,394.1553,90,101,0
394.1553,394.25946,92,101,0
394.24905,394.3532,80,101,0
394.36362,394.4678,92,101,0
394.4678,394.57196,90,101,0
394.56155,394.6657,78,101,0
394.67612,394.7803,90,101,0
394.7803,394.88446,88,101,0
394.87405,394.9782,76,101,0
394.98862,395.0928,88,101,0
395.0928,395.13446,86,114,0
395.0928,395.13446,80,114,0
395.0928,395.13446,74,114,0
395.4053,395.7178,87,114,0
395.4053,395.7178,79,114,0
395.4053,395.7178,75,114,0
396.0303,396.13446,63,114,0
396.12405,396.2282,67,114,0
396.23862,396.3428,68,114,0
396.3428,396.44696,70,114,0
396.43655,396.5407,72,114,0
396.55112,396.6553,74,114,0
396.6553,396.9678,75,127,0
397.12405,397.2803,72,49,0
397.2803,397.38446,73,49,0
397.37405,397.4782,75,49,0
397.48862,397.5928,77,49,0
397.5928,397.69696,75,49,0
397.68655,397.7907,73,49,0
397.80112,397.9053,72,49,0
397.9053,398.00946,70,49,0
397.99905,398.1032,72,49,0
398.11362,398.2178,73,49,0
398.2178,398.32196,72,49,0
398.31155,398.4157,70,49,0
398.42612,398.5303,68,49,0
398.5303,398.63446,67,49,0
398.62405,398.7282,70,49,0
398.73862,398.8428,72,49,0
398.8428,398.94696,73,49,0
398.93655,399.0407,75,49,0
399.05112,399.1553,77,49,0
399.1553,399.25946,75,49,0
399.24905,399.3532,84,49,0
399.36362,399.4678,82,49,0
399.4678,399.57196,80,49,0
399.56155,399.6657,79,49,0
399.67612,399.7803,77,49,0
399.7803,399.88446,75,49,0
399.87405,399.9782,77,49,0
399.98862,400.0928,73,49,0
400.0928,400.19696,75,49,0
400.18655,400.2907,72,49,0
400.30112,400.4053,70,49,0
400.4053,400.50946,68,49,0
400.49905,400.6032,70,49,0
400.61362,400.7178,67,49,0
400.7178,400.82196,68,49,0
400.81155,400.9157,70,49,0
400.92612,401.0303,72,49,0
401.0303,401.13446,72,75,0
401.12405,401.2282,70,49,0
401.23862,401.3428,72,49,0
401.3428,401.44696,73,49,0
401.43655,401.5407,75,49,0
401.55112,401.6553,77,49,0
401.6553,401.75946,78,75,0
401.74905,401.8532,77,49,0
401.86362,401.9678,81,49,0
401.9678,402.07196,82,49,0
402.06155,402.1657,84,49,0
402.17612,402.2803,85,49,0
402.2803,402.38446,90,75,0
402.37405,402.4782,89,49,0
402.48862,402.5928,91,49,0
402.5928,402.69696,93,49,0
402.68655,402.7907,94,49,0
402.80112,402.9053,96,49,0
402.9053,403.2178,94,75,0
404.1553,404.25946,70,88,0
404.24905,404.3532,72,88,0
404.36362,404.4678,73,88,0
404.4678,404.57196,72,88,0
404.56155,404.6657,73,88,0
404.67612,404.7803,75,88,0
404.7803,404.88446,73,114,0
404.87405,404.9782,75,88,0
404.98862,405.0928,76,88,0
405.0928,405.19696,75,88,0
405.18655,405.2907,73,88,0
405.30112,405.4053,72,88,0
405.4053,405.50946,70,114,0
405.49905,405.6032,72,88,0
405.61362,405.7178,73,88,0
405.7178,405.82196,72,88,0
405.81155,405.9157,70,88,0
405.92612,406.0303,68,88,0
406.0303,406.13446,67,114,0
406.12405,406.2282,70,88,0
406.23862,406.3428,67,88,0
406.3428,406.44696,64,88,0
406.43655,406.5407,63,88,0
406.55112,406.6553,61,88,0
406.6553,406.75946,60,88,0
406.74905,406.8532,63,88,0
406.86362,406.9678,68,88,0
406.9678,407.07196,59,88,0
407.06155,407.1657,62,88,0
407.17612,407.2803,68,88,0
407.2803,407.38446,60,88,0
407.37405,407.4782,63,88,0
407.48862,407.5928,68,88,0
407.5928,407.9053,74,88,0
407.5928,407.9053,68,88,0
407.5928,407.9053,62,88,0
407.9053,408.2178,75,88,0
407.9053,408.2178,68,88,0
407.9053,408.2178,63,88,0
408.2178,408.5303,76,88,0
408.2178,408.5303,68,88,0
408.2178,408.5303,64,88,0
408.5303,408.8428,77,75,0
408.5303,408.8428,68,75,0
408.5303,408.8428,65,75,0
408.8428,409.1553,79,75,0
408.8428,409.1553,72,75,0
408.8428,409.1553,67,75,0
409.1553,409.4678,80,75,0
409.1553,409.4678,72,75,0
409.1553,409.4678,68,75,0
409.4678,409.7803,82,62,0
409.4678,409.7803,75,62,0
409.4678,409.7803,70,62,0
409.7803,410.0928,84,62,0
409.7803,410.0928,75,62,0
409.7803,410.0928,72,62,0
410.0928,410.4053,85,62,0
410.0928,410.4053,75,62,0
410.0928,410.4053,73,62,0
410.4053,411.0303,85,49,0
410.4053,411.0303,75,49,0
410.4053,411.0303,73,49,0
411.0303,411.3428,84,49,0
411.0303,411.3428,75,49,0
411.0303,411.3428,72,49,0
411.3428,411.44696,63,49,0
411.43655,411.5407,65,49,0
411.55112,411.6553,67,49,0
411.6553,411.75946,68,49,0
411.74905,411.8532,70,49,0
411.86362,411.9678,71,49,0
411.9678,412.07196,72,49,0
412.06155,412.1657,73,49,0
412.17612,412.2803,75,49,0
412.2803,412.38446,77,49,0
412.37405,412.4782,79,49,0
412.48862,412.5928,80,49,0
412.5928,412.69696,81,49,0
412.68655,412.7907,82,49,0
412.80112,412.9053,84,49,0
412.9053,413.00946,85,49,0
412.99905,413.1032,87,49,0
413.11362,413.2178,89,49,0
413.2178,413.32196,87,49,0
413.31155,413.4157,85,49,0
413.42612,413.5303,84,49,0
413.5303,413.63446,82,49,0
413.62405,413.7282,70,49,0
413.73862,413.8428,71,49,0
413.8428,413.94696,72,49,0
413.93655,414.0407,73,49,0
414.05112,414.1553,74,49,0
414.1553,414.25946,75,49,0
414.24905,414.3532,77,49,0
414.36362,414.4678,78,49,0
414.4678,414.57196,79,49,0
414.56155,414.6657,80,49,0
414.67612,414.7803,82,49,0
414.7803,414.88446,84,49,0
414.87405,414.9782,85,49,0
414.98862,415.0928,87,49,0
415.0928,415.19696,85,49,0
415.18655,415.2907,84,49,0
415.30112,415.4053,82,49,0
415.4053,415.50946,80,49,0
415.49905,415.6032,68,49,0
415.61362,415.7178,69,49,0
415.7178,415.82196,70,49,0
415.81155,415.9157,72,49,0
415.92612,416.0303,73,49,0
416.0303,416.13446,75,49,0
416.12405,416.2282,77,49,0
416.23862,416.3428,78,49,0
416.3428,416.44696,79,49,0
416.43655,416.5407,80,49,0
416.55112,416.6553,82,49,0
416.6553,416.75946,83,49,0
416.74905,416.8532,85,49,0
416.86362,416.9678,87,49,0
416.9678,417.07196,89,49,0
417.06155,417.1657,91,49,0
417.17612,417.2803,92,49,0
417.2803,417.38446,93,49,0
417.37405,417.4782,94,49,0
417.48862,417.5928,95,49,0
417.5928,417.69696,96,49,0
417.68655,417.7907,97,49,0
417.80112,417.9053,98,49,0
417.9053,418.2178,99,49,0
418.2178,418.32196,63,49,0
418.31155,418.4157,65,49,0
418.42612,418.5303,67,49,0
418.5303,418.63446,68,62,0
418.62405,418.7282,70,62,0
418.73862,418.8428,72,62,0
418.8428,418.94696,74,62,0
418.93655,419.0407,75,62,0
419.05112,419.1553,77,62,0
419.1553,419.25946,79,75,0
419.24905,419.3532,80,75,0
419.36362,419.4678,82,75,0
419.4678,419.57196,84,75,0
419.56155,419.6657,86,75,0
419.67612,419.7803,87,75,0
419.7803,419.88446,65,88,0
419.87405,419.9782,67,88,0
419.98862,420.0928,68,88,0
420.0928,420.19696,69,88,0
420.18655,420.2907,70,88,0
420.30112,420.4053,72,88,0
420.4053,420.50946,73,88,0
420.49905,420.6032,75,88,0
420.61362,420.7178,77,88,0
420.7178,420.82196,79,88,0
420.81155,420.9157,80,88,0
420.92612,421.0303,81,88,0
421.0303,421.13446,82,88,0
421.12405,421.2282,84,88,0
421.23862,421.3428,80,88,0
421.3428,421.44696,82,88,0
421.43655,421.5407,84,88,0
421.55112,421.6553,85,88,0
421.6553,421.75946,63,88,0
421.74905,421.8532,65,88,0
421.86362,421.9678,66,88,0
421.9678,422.07196,67,88,0
422.06155,422.1657,68,88,0
422.17612,422.2803,70,88,0
422.2803,422.38446,72,88,0
422.37405,422.4782,73,88,0
422.48862,422.5928,74,88,0
422.5928,422.69696,75,88,0
422.68655,422.7907,77,88,0
422.80112,422.9053,79,88,0
422.9053,423.00946,80,88,0
422.99905,423.1032,82,88,0
423.11362,423.2178,83,88,0
423.2178,423.32196,84,88,0
423.31155,423.4157,85,88,0
423.42612,423.5303,87,88,0
423.5303,423.63446,88,101,0
423.62405,423.7282,76,101,0
423.73862,423.8428,88,101,0
423.8428,423.94696,90,101,0
423.93655,424.0407,78,101,0
424.05112,424.1553,90,101,0
424.1553,424.25946,92,101,0
424.24905,424.3532,80,101,0
424.36362,424.4678,92,101,0
424.4678,424.57196,90,101,0
424.56155,424.6657,78,101,0
424.67612,424.7803,90,101,0
424.7803,424.88446,88,101,0
424.87405,424.9782,76,101,0
424.98862,425.0928,88,101,0
425.0928,425.13446,86,114,0
425.0928,425.13446,80,114,0
425.0928,425.13446,74,114,0
425.4053,425.7178,87,114,0
425.4053,425.7178,79,114,0
425.4053,425.7178,75,114,0
426.0303,426.13446,63,114,0
426.12405,426.2282,67,114,0
426.23862,426.3428,68,114,0
426.3428,426.44696,70,114,0
426.43655,426.5407,72,114,0
426.55112,426.6553,74,114,0
426.6553,426.9678,75,127,0
427.12405,427.2803,72,49,0
427.2803,427.38446,73,49,0
427.37405,427.4782,75,49,0
427.48862,427.5928,77,49,0
427.5928,427.69696,75,49,0
427.68655,427.7907,73,49,0
427.80112,427.9053,72,49,0
427.9053,428.00946,70,49,0
427.99905,428.1032,72,49,0
428.11362,428.2178,73,49,0
428.2178,428.32196,72,49,0
428.31155,428.4157,70,49,0
428.42612,428.5303,68,49,0
428.5303,428.63446,67,49,0
428.62405,428.7282,70,49,0
428.73862,428.8428,72,49,0
428.8428,428.94696,73,49,0
428.93655,429.0407,75,49,0
429.05112,429.1553,77,49,0
429.1553,429.25946,75,49,0
429.24905,429.3532,84,49,0
429.36362,429.4678,82,49,0
429.4678,429.57196,80,49,0
429.56155,429.6657,79,49,0
429.67612,429.7803,77,49,0
429.7803,429.88446,75,49,0
429.87405,429.9782,77,49,0
429.98862,430.0928,73,49,0
430.0928,430.19696,75,49,0
430.18655,430.2907,72,49,0
430.30112,430.4053,70,49,0
430.4053,430.50946,68,49,0
430.49905,430.6032,70,49,0
430.61362,430.7178,67,49,0
430.7178,430.82196,68,49,0
430.81155,430.9157,70,49,0
430.92612,431.0303,72,49,0
431.0303,431.13446,72,75,0
431.12405,431.2282,70,49,0
431.23862,431.3428,72,49,0
431.3428,431.44696,73,49,0
431.43655,431.5407,75,49,0
431.55112,431.6553,77,49,0
431.6553,431.75946,78,75,0
431.74905,431.8532,77,49,0
431.86362,431.9678,81,49,0
431.9678,432.07196,82,49,0
432.06155,432.1657,84,49,0
432.17612,432.2803,85,49,0
432.2803,432.38446,90,75,0
432.37405,432.4782,89,49,0
432.48862,432.5928,91,49,0
432.5928,432.69696,93,49,0
432.68655,432.7907,94,49,0
432.80112,432.9053,96,49,0
432.9053,433.2178,94,75,0
434.1553,434.25946,70,88,0
434.24905,434.3532,72,88,0
434.36362,434.4678,73,88,0
434.4678,434.57196,72,88,0
434.56155,434.6657,73,88,0
434.67612,434.7803,75,88,0
434.7803,434.88446,73,114,0
434.87405,434.9782,75,88,0
434.98862,435.0928,76,88,0
435.0928,435.19696,75,88,0
435.18655,435.2907,73,88,0
435.30112,435.4053,72,88,0
435.4053,435.50946,70,114,0
435.49905,435.6032,72,88,0
435.61362,435.7178,73,88,0
435.7178,435.82196,72,88,0
435.81155,435.9157,70,88,0
435.92612,436.0303,68,88,0
436.0303,436.13446,67,114,0
436.12405,436.2282,70,88,0
436.23862,436.3428,67,88,0
436.3428,436.44696,64,88,0
436.43655,436.5407,63,88,0
436.55112,436.6553,61,88,0
436.6553,436.75946,60,88,0
436.74905,436.8532,63,88,0
436.86362,436.9678,68,88,0
436.9678,437.07196,59,88,0
437.06155,437.1657,62,88,0
437.17612,437.2803,68,88,0
437.2803,437.38446,60,88,0
437.37405,437.4782,63,88,0
437.48862,437.5928,68,88,0
437.5928,437.9053,74,88,0
437.5928,437.9053,68,88,0
437.5928,437.9053,62,88,0
437.9053,438.2178,75,88,0
437.9053,438.2178,68,88,0
437.9053,438.2178,63,88,0
438.2178,438.5303,76,88,0
438.2178,438.5303,68,88,0
438.2178,438.5303,64,88,0
438.5303,438.8428,77,75,0
438.5303,438.8428,68,75,0
438.5303,438.8428,65,75,0
438.8428,439.1553,79,75,0
438.8428,439.1553,72,75,0
438.8428,439.1553,67,75,0
439.1553,439.4678,80,75,0
439.1553,439.4678,72,75,0
439.1553,439.4678,68,75,0
439.4678,439.7803,82,62,0
439.4678,439.7803,75,62,0
439.4678,439.7803,70,62,0
439.7803,440.0928,84,62,0
439.7803,440.0928,75,62,0
439.7803,440.0928,72,62,0
440.0928,440.4053,85,62,0
440.0928,440.4053,75,62,0
440.0928,440.4053,73,62,0
440.4053,441.0303,85,49,0
440.4053,441.0303,75,49,0
440.4053,441.0303,73,49,0
441.0303,441.3428,84,49,0
441.0303,441.3428,75,49,0
441.0303,441.3428,72,49,0
441.3428,441.6553,75,49,0
441.6553,441.9678,75,49,0
441.9678,442.2803,75,49,0
442.2803,442.5928,75,49,0
442.5928,442.9053,75,49,0
442.9053,443.2178,75,49,0
443.2178,443.5303,75,49,0
443.5303,443.8428,75,49,0
443.8428,444.1553,75,49,0
444.1553,444.4678,75,49,0
444.4678,444.7803,75,49,0
444.7803,445.0928,75,49,0
445.0928,445.4053,75,49,0
445.4053,445.7178,75,49,0
445.7178,446.0303,75,49,0
446.0303,446.3428,76,49,0
446.3428,446.6553,76,49,0
446.6553,446.9678,77,49,0
446.9678,447.2803,77,49,0
447.2803,447.5928,77,49,0
447.5928,447.9053,77,49,0
447.9053,448.2178,77,62,0
448.2178,448.5303,77,62,0
448.5303,448.8428,78,62,0
448.8428,449.1553,78,75,0
449.1553,449.4678,78,75,0
449.4678,449.7803,78,75,0
449.7803,450.0928,79,88,0
449.7803,450.0928,67,88,0
450.0928,450.4053,79,88,0
450.0928,450.4053,67,88,0
450.4053,450.7178,79,49,0
450.4053,450.7178,67,49,0
450.7178,451.0303,79,49,0
450.7178,451.0303,67,49,0
451.0303,451.3428,81,49,0
451.0303,451.3428,69,49,0
451.3428,451.6553,83,49,0
451.3428,451.6553,71,49,0
451.6553,451.86362,84,49,0
451.6553,451.86362,72,49,0
451.86362,452.07196,67,49,0
452.06155,452.07196,67,49,0
452.2803,452.48862,67,49,0
452.48862,452.69696,67,49,0
452.68655,452.69696,67,49,0
452.9053,452.94696,67,36,0
453.11362,453.1553,72,36,0
453.11362,453.1553,67,36,0
453.31155,453.3532,76,36,0
453.31155,453.3532,67,36,0
453.5303,453.73862,76,36,0
453.5303,453.73862,67,36,0
453.73862,453.94696,77,36,0
453.73862,453.94696,67,36,0
453.93655,453.94696,67,36,0
453.93655,453.9782,74,36,0
454.1553,454.19696,74,36,0
454.1553,454.19696,67,36,0
454.36362,454.4053,74,36,0
454.36362,454.4053,67,36,0
454.56155,454.6032,74,36,0
454.56155,454.6032,67,36,0
454.7803,454.82196,77,36,0
454.7803,454.82196,67,36,0
454.98862,455.0303,76,36,0
454.98862,455.0303,67,36,0
455.18655,455.2282,74,36,0
455.18655,455.2282,67,36,0
455.4053,455.61362,74,36,0
455.4053,455.61362,67,36,0
455.61362,455.82196,76,36,0
455.61362,455.82196,67,36,0
455.81155,455.82196,67,36,0
455.81155,455.8532,72,36,0
456.0303,456.07196,72,36,0
456.0303,456.07196,67,36,0
456.23862,456.2803,72,36,0
456.23862,456.2803,67,36,0
456.43655,456.4782,74,36,0
456.43655,456.4782,67,36,0
456.6553,456.69696,76,36,0
456.6553,456.69696,67,36,0
456.86362,456.9053,77,36,0
456.86362,456.9053,67,36,0
457.06155,457.1032,79,36,0
457.06155,457.1032,67,36,0
457.2803,457.48862,79,36,0
457.2803,457.48862,67,36,0
457.48862,457.69696,77,36,0
457.48862,457.69696,67,36,0
457.68655,457.69696,67,36,0
457.68655,457.89487,74,36,0
457.9053,458.11362,74,36,0
457.9053,458.11362,67,36,0
458.11362,458.32196,76,36,0
458.11362,458.32196,67,36,0
458.31155,458.32196,67,36,0
458.31155,458.51987,72,36,0
458.5303,458.73862,72,36,0
458.5303,458.73862,67,36,0
458.73862,458.94696,76,36,0
458.73862,458.94696,67,36,0
458.93655,458.94696,67,36,0
458.93655,459.14487,74,36,0
459.1553,459.36362,72,36,0
459.1553,459.36362,67,36,0
459.36362,459.57196,76,36,0
459.36362,459.57196,67,36,0
459.56155,459.57196,67,36,0
459.56155,459.76987,79,36,0
459.7803,459.82196,79,36,0
459.7803,459.82196,67,36,0
459.98862,460.0303,81,36,0
459.98862,460.0303,69,36,0
460.18655,460.2282,83,36,0
460.18655,460.2282,71,36,0
460.4053,460.44696,84,36,0
460.4053,460.44696,72,36,0
460.61362,460.6553,86,36,0
460.61362,460.6553,74,36,0
460.81155,460.8532,88,36,0
460.81155,460.8532,76,36,0
461.0303,461.23862,88,36,0
461.0303,461.23862,76,36,0
461.23862,461.44696,89,36,0
461.23862,461.44696,77,36,0
461.43655,461.4782,74,36,0
461.43655,461.4782,86,36,0
461.6553,461.69696,86,36,0
461.6553,461.69696,74,36,0
461.86362,461.9053,86,36,0
461.86362,461.9053,74,36,0
462.06155,462.1032,86,36,0
462.06155,462.1032,74,36,0
462.2803,462.32196,89,36,0
462.2803,462.32196,77,36,0
462.48862,462.5303,88,36,0
462.48862,462.5303,76,36,0
462.68655,462.7282,86,36,0
462.68655,462.7282,74,36,0
462.9053,463.11362,86,36,0
462.9053,463.11362,74,36,0
463.11362,463.32196,88,36,0
463.11362,463.32196,76,36,0
463.31155,463.3532,72,36,0
463.31155,463.3532,84,36,0
463.5303,463.57196,84,36,0
463.5303,463.57196,72,36,0
463.73862,463.7803,84,36,0
463.73862,463.7803,72,36,0
463.93655,463.9782,86,36,0
463.93655,463.9782,74,36,0
464.1553,464.19696,88,36,0
464.1553,464.19696,76,36,0
464.36362,464.4053,90,36,0
464.36362,464.4053,78,36,0
464.56155,464.6032,91,36,0
464.56155,464.6032,79,36,0
464.7803,464.98862,91,36,0
464.7803,464.98862,79,36,0
464.98862,465.19696,90,36,0
464.98862,465.19696,78,36,0
465.18655,465.39487,76,36,0
465.18655,465.39487,88,36,0
465.4053,465.61362,86,62,0
465.4053,465.61362,74,54,0
465.61362,465.82196,84,36,0
465.61362,465.82196,72,36,0
465.81155,466.01987,71,36,0
465.81155,466.01987,83,36,0
466.0303,466.23862,81,62,0
466.0303,466.23862,69,54,0
466.23862,466.44696,83,36,0
466.23862,466.44696,71,36,0
466.43655,466.64487,69,36,0
466.43655,466.64487,81,36,0
466.6553,466.86362,79,36,0
466.6553,466.86362,67,36,0
466.86362,467.07196,67,36,0
467.06155,467.07196,67,36,0
467.2803,467.48862,67,36,0
467.48862,467.69696,67,36,0
467.68655,467.69696,67,36,0
467.9053,467.94696,67,36,0
468.11362,468.1553,72,36,0
468.11362,468.1553,67,36,0
468.31155,468.3532,75,36,0
468.31155,468.3532,67,36,0
468.5303,468.73862,75,62,0
468.5303,468.73862,67,54,0
468.73862,468.94696,74,36,0
468.93655,468.94696,74,36,0
468.73862,468.94696,67,36,0
468.93655,468.94696,67,36,0
469.1553,469.19696,74,36,0
469.1553,469.19696,67,36,0
469.36362,469.4053,74,36,0
469.36362,469.4053,67,36,0
469.56155,469.6032,74,36,0
469.56155,469.6032,67,36,0
469.7803,469.82196,77,36,0
469.98862,470.0303,75,36,0
469.98862,470.0303,67,36,0
470.18655,470.2282,74,36,0
470.18655,470.2282,67,36,0
470.4053,470.61362,74,62,0
470.4053,470.61362,67,54,0
470.61362,470.82196,72,36,0
470.81155,470.82196,72,36,0
470.61362,470.82196,67,36,0
470.81155,470.82196,67,36,0
471.0303,471.07196,72,36,0
471.0303,471.07196,67,36,0
471.23862,471.2803,72,36,0
471.23862,471.2803,67,36,0
471.43655,471.4782,74,36,0
471.43655,471.4782,67,36,0
471.6553,471.69696,75,36,0
471.6553,471.69696,67,36,0
471.86362,471.9053,77,36,0
471.86362,471.9053,67,36,0
472.06155,472.1032,79,36,0
472.06155,472.1032,67,36,0
472.2803,472.48862,79,36,0
472.2803,472.48862,67,36,0
472.48862,472.69696,77,36,0
472.48862,472.69696,65,36,0
472.68655,472.69696,65,36,0
472.68655,472.7282,74,36,0
472.9053,472.94696,74,62,0
472.9053,472.94696,65,54,0
473.11362,473.1553,72,36,0
473.11362,473.1553,67,36,0
473.31155,473.3532,72,36,0
473.31155,473.3532,67,36,0
473.5303,473.57196,72,62,0
473.5303,473.57196,67,54,0
473.73862,473.7803,75,36,0
473.73862,473.7803,67,36,0
473.93655,473.9782,74,36,0
473.93655,473.9782,67,36,0
474.1553,474.36362,72,36,0
474.1553,474.36362,67,36,0
474.36362,474.57196,67,36,0
474.56155,474.57196,67,36,0
474.7803,474.82196,79,36,0
474.7803,474.82196,67,36,0
474.98862,475.0303,81,36,0
474.98862,475.0303,69,36,0
475.18655,475.2282,83,36,0
475.18655,475.2282,71,36,0
475.4053,475.44696,84,36,0
475.4053,475.44696,72,36,0
475.61362,475.6553,86,36,0
475.61362,475.6553,74,36,0
475.81155,475.8532,88,36,0
475.81155,475.8532,76,36,0
476.0303,476.23862,88,36,0
476.0303,476.23862,76,36,0
476.23862,476.44696,89,36,0
476.23862,476.44696,77,36,0
476.43655,476.4782,74,36,0
476.43655,476.4782,86,36,0
476.6553,476.69696,86,62,0
476.6553,476.69696,74,62,0
476.86362,476.9053,86,62,0
476.86362,476.9053,74,62,0
477.06155,477.1032,86,62,0
477.06155,477.1032,74,62,0
477.2803,477.32196,86,75,0
477.2803,477.32196,74,75,0
477.48862,477.5303,88,75,0
477.48862,477.5303,76,75,0
477.68655,477.7282,89,75,0
477.68655,477.7282,77,75,0
477.9053,478.11362,93,88,0
477.9053,478.11362,81,88,0
478.11362,478.32196,91,49,0
478.11362,478.32196,79,49,0
478.31155,478.3532,76,49,0
478.31155,478.3532,88,49,0
478.5303,478.57196,84,49,0
478.5303,478.57196,72,49,0
478.73862,478.7803,84,49,0
478.73862,478.7803,72,49,0
478.93655,478.9782,86,49,0
478.93655,478.9782,74,49,0
479.1553,479.19696,88,49,0
479.1553,479.19696,76,49,0
479.36362,479.4053,90,49,0
479.36362,479.4053,78,49,0
479.56155,479.6032,91,49,0
479.56155,479.6032,79,49,0
479.7803,479.98862,91,49,0
479.7803,479.98862,79,49,0
479.98862,480.19696,90,49,0
479.98862,480.19696,78,49,0
480.18655,480.39487,76,49,0
480.18655,480.39487,88,49,0
480.4053,480.61362,86,75,0
480.4053,480.61362,74,67,0
480.61362,480.82196,84,49,0
480.61362,480.82196,72,49,0
480.81155,481.01987,71,49,0
480.81155,481.01987,83,49,0
481.0303,481.23862,81,75,0
481.0303,481.23862,69,67,0
481.23862,481.44696,83,49,0
481.23862,481.44696,71,49,0
481.43655,481.64487,69,49,0
481.43655,481.64487,81,49,0
481.6553,481.86362,79,49,0
481.6553,481.86362,67,49,0
481.86362,482.07196,67,49,0
482.06155,482.07196,67,49,0
482.2803,482.48862,67,62,0
482.48862,482.69696,67,62,0
482.68655,482.69696,67,62,0
482.9053,483.11362,67,75,0
483.11362,483.32196,67,75,0
483.31155,483.32196,67,75,0
483.5303,483.73862,67,88,0
483.5303,483.73862,65,88,0
483.5303,483.73862,59,88,0
483.73862,483.94696,67,88,0
483.93655,483.94696,67,88,0
483.73862,483.94696,59,88,0
483.93655,483.94696,59,88,0
483.73862,483.94696,65,88,0
483.93655,483.94696,65,88,0
484.1553,484.36362,67,88,0
484.1553,484.36362,65,88,0
484.1553,484.36362,59,88,0
484.36362,484.57196,67,88,0
484.56155,484.57196,67,88,0
484.36362,484.57196,59,88,0
484.56155,484.57196,59,88,0
484.36362,484.57196,65,88,0
484.56155,484.57196,65,88,0
484.7803,484.98862,67,88,0
484.7803,484.98862,65,88,0
484.7803,484.98862,59,88,0
484.98862,485.19696,67,88,0
485.18655,485.19696,67,88,0
484.98862,485.19696,59,88,0
485.18655,485.19696,59,88,0
484.98862,485.19696,65,88,0
485.18655,485.19696,65,88,0
485.4053,485.61362,67,114,0
485.4053,485.61362,65,109,0
485.4053,485.61362,59,104,0
485.61362,485.82196,67,88,0
485.81155,485.82196,67,88,0
485.61362,485.82196,60,88,0
485.81155,485.82196,60,88,0
485.61362,485.82196,63,88,0
485.81155,485.82196,63,88,0
486.0303,486.23862,67,88,0
486.0303,486.23862,63,88,0
486.0303,486.23862,60,88,0
486.23862,486.44696,67,88,0
486.43655,486.44696,67,88,0
486.43655,486.64487,69,88,0
486.6553,486.86362,71,88,0
486.6553,486.86362,67,88,0
486.6553,486.86362,65,88,0
486.86362,487.07196,72,88,0
486.86362,487.07196,65,88,0
487.06155,487.07196,65,88,0
486.86362,487.07196,67,88,0
487.06155,487.07196,67,88,0
487.06155,487.26987,74,88,0
487.2803,487.48862,74,101,0
487.2803,487.48862,67,101,0
487.2803,487.48862,65,101,0
487.48862,487.69696,75,101,0
487.68655,487.69696,75,101,0
487.48862,487.69696,63,101,0
487.68655,487.69696,63,101,0
487.48862,487.69696,67,101,0
487.68655,487.69696,67,101,0
487.9053,488.11362,74,127,0
487.9053,488.11362,67,122,0
487.9053,488.11362,63,117,0
488.11362,488.32196,72,101,0
488.31155,488.32196,72,101,0
488.11362,488.32196,63,101,0
488.31155,488.32196,63,101,0
488.11362,488.32196,68,101,0
488.31155,488.32196,68,101,0
488.5303,488.73862,72,127,0
488.5303,488.73862,68,122,0
488.5303,488.73862,63,117,0
488.73862,488.94696,74,101,0
488.93655,488.94696,74,101,0
488.73862,488.94696,72,101,0
488.93655,488.94696,72,101,0
488.73862,488.94696,62,101,0
488.93655,488.94696,62,101,0
488.73862,488.94696,69,101,0
488.93655,488.94696,69,101,0
488.73862,488.94696,66,101,0
488.93655,488.94696,66,101,0
489.1553,489.36362,79,114,0
489.1553,489.36362,67,114,0
489.1553,489.36362,72,114,0
489.1553,489.36362,75,114,0
489.36362,489.57196,67,114,0
489.56155,489.57196,67,114,0
489.7803,489.98862,67,114,0
489.7803,489.98862,55,114,0
489.7803,489.98862,59,114,0
489.7803,489.98862,62,114,0
489.98862,490.19696,55,114,0
490.18655,490.19696,55,114,0
490.4053,490.61362,55,114,0
490.61362,490.82196,67,114,0
490.81155,490.82196,67,114,0
490.61362,490.82196,55,114,0
490.81155,490.82196,55,114,0
491.0303,491.23862,67,114,0
491.0303,491.23862,61,114,0
491.23862,491.44696,69,114,0
491.43655,491.44696,69,114,0
491.23862,491.44696,61,114,0
491.43655,491.44696,61,114,0
491.23862,491.44696,67,114,0
491.43655,491.44696,67,114,0
491.6553,491.86362,69,114,0
491.6553,491.86362,67,114,0
491.6553,491.86362,61,114,0
491.86362,492.07196,69,114,0
492.06155,492.07196,69,114,0
491.86362,492.07196,62,114,0
491.86362,492.07196,67,114,0
492.06155,492.07196,67,114,0
492.06155,492.26987,64,114,0
492.2803,492.48862,69,114,0
492.2803,492.48862,65,114,0
492.48862,492.69696,69,114,0
492.68655,492.69696,69,114,0
492.48862,492.69696,64,114,0
492.48862,492.69696,65,114,0
492.68655,492.69696,65,114,0
492.68655,492.89487,62,114,0
492.9053,493.11362,71,88,0
492.9053,493.11362,65,88,0
492.9053,493.11362,62,88,0
493.11362,493.32196,71,88,0
493.31155,493.32196,71,88,0
493.11362,493.32196,62,88,0
493.31155,493.32196,62,88,0
493.11362,493.32196,65,88,0
493.31155,493.32196,65,88,0
493.5303,493.57196,72,75,0
493.5303,493.57196,64,75,0
493.5303,493.57196,60,75,0
493.73862,493.7803,72,75,0
493.73862,493.7803,65,75,0
493.73862,493.7803,62,75,0
493.93655,493.9782,72,75,0
493.93655,493.9782,67,75,0
493.93655,493.9782,64,75,0
494.1553,494.19696,71,62,0
494.1553,494.19696,67,62,0
494.1553,494.19696,65,62,0
494.36362,494.4053,72,62,0
494.36362,494.4053,67,62,0
494.36362,494.4053,65,62,0
494.56155,494.6032,74,62,0
494.56155,494.6032,67,62,0
494.56155,494.6032,65,62,0
494.7803,494.98862,74,75,0
494.7803,494.98862,67,70,0
494.7803,494.98862,65,65,0
494.98862,495.19696,76,49,0
495.18655,495.19696,76,49,0
494.98862,495.19696,64,49,0
495.18655,495.19696,64,49,0
494.98862,495.19696,67,49,0
495.18655,495.19696,67,49,0
495.4053,495.61362,76,75,0
495.4053,495.61362,67,70,0
495.4053,495.61362,64,65,0
495.61362,495.82196,72,49,0
495.81155,495.82196,72,49,0
495.61362,495.82196,63,49,0
495.81155,495.82196,63,49,0
495.61362,495.82196,66,49,0
495.81155,495.82196,66,49,0
496.0303,496.23862,72,75,0
496.0303,496.23862,66,70,0
496.0303,496.23862,63,65,0
496.23862,496.44696,74,49,0
496.43655,496.44696,74,49,0
496.23862,496.44696,62,49,0
496.23862,496.44696,66,49,0
496.43655,496.44696,66,49,0
496.43655,496.4782,60,49,0
496.6553,496.86362,67,49,0
496.6553,496.86362,59,49,0
496.86362,497.07196,67,36,0
497.06155,497.07196,67,36,0
497.2803,497.48862,67,36,0
497.48862,497.69696,67,36,0
497.68655,497.69696,67,36,0
497.9053,497.94696,67,36,0
498.11362,498.1553,72,36,0
498.11362,498.1553,67,36,0
498.31155,498.3532,76,36,0
498.31155,498.3532,67,36,0
498.5303,498.73862,76,36,0
498.5303,498.73862,67,36,0
498.73862,498.94696,77,36,0
498.73862,498.94696,67,36,0
498.93655,498.94696,67,36,0
498.93655,498.9782,74,36,0
499.1553,499.19696,74,36,0
499.1553,499.19696,67,36,0
499.36362,499.4053,74,36,0
499.36362,499.4053,67,36,0
499.56155,499.6032,74,36,0
499.56155,499.6032,67,36,0
499.7803,499.88446,76,36,0
499.87405,499.9782,77,36,0
499.98862,500.0928,77,36,0
500.0928,500.19696,76,36,0
500.18655,500.19696,76,36,0
500.30112,500.4053,74,36,0
500.4053,500.61362,74,36,0
500.4053,500.61362,67,36,0
500.61362,500.82196,76,36,0
500.61362,500.82196,67,36,0
500.81155,500.82196,67,36,0
500.81155,500.8532,72,36,0
501.0303,501.07196,72,36,0
501.23862,501.2803,72,36,0
501.43655,501.5407,72,36,0
501.55112,501.6553,74,36,0
501.6553,501.75946,74,36,0
501.74905,501.8532,75,36,0
501.86362,501.9678,75,36,0
501.9678,502.07196,77,36,0
502.06155,502.07196,77,36,0
502.17612,502.2803,79,36,0
502.2803,502.48862,79,36,0
502.2803,502.48862,67,36,0
502.48862,502.69696,80,36,0
502.48862,502.69696,68,36,0
502.68655,502.69696,68,36,0
502.68655,502.89487,77,36,0
502.9053,503.13257,73,36,0
502.9053,503.13257,68,36,0
503.13257,503.35983,73,36,0
503.34848,503.35983,73,36,0
503.13257,503.35983,68,36,0
503.34848,503.35983,68,36,0
503.5871,503.63712,73,36,0
503.5871,503.63712,68,36,0
503.8371,503.88712,77,36,0
503.8371,503.88712,68,36,0
504.07462,504.1246,75,36,0
504.07462,504.1246,72,36,0
504.3371,504.5644,75,36,0
504.3371,504.5644,72,36,0
504.3371,504.5644,68,36,0
504.5644,504.79166,73,36,0
504.7803,504.79166,73,36,0
504.5644,504.79166,68,36,0
504.7803,504.79166,68,36,0
505.01892,505.26892,73,36,0
505.01892,505.26892,68,36,0
505.26892,505.51892,73,36,0
505.50644,505.51892,73,36,0
505.26892,505.51892,68,36,0
505.50644,505.51892,68,36,0
505.76892,505.8144,77,36,0
505.76892,505.8144,68,36,0
505.99622,506.04166,79,36,0
505.99622,506.04166,68,36,0
506.2121,506.25757,80,36,0
506.2121,506.25757,68,36,0
506.45074,506.678,80,36,0
506.45074,506.678,68,36,0
506.678,506.9053,79,36,0
506.89392,506.9053,79,36,0
506.678,506.9053,67,36,0
506.89392,506.9053,67,36,0
507.13257,507.18256,79,36,0
507.13257,507.18256,67,36,0
507.38257,507.43256,86,36,0
507.38257,507.43256,74,36,0
507.62006,507.67007,88,36,0
507.62006,507.67007,76,36,0
507.88257,507.9381,89,36,0
507.88257,507.9381,77,36,0
508.16034,508.2159,91,36,0
508.16034,508.2159,79,36,0
508.42422,508.4798,93,36,0
508.42422,508.4798,81,36,0
508.7159,508.92422,93,36,0
508.7159,508.92422,81,36,0
508.92422,509.13257,91,36,0
508.92422,509.13257,79,36,0
509.12216,509.16382,76,36,0
509.12216,509.16382,88,36,0
509.3409,509.38257,84,36,0
509.3409,509.38257,72,36,0
509.54922,509.5909,84,36,0
509.54922,509.5909,72,36,0
509.74716,509.78882,84,36,0
509.74716,509.78882,72,36,0
509.9659,510.17422,96,75,0
509.9659,510.17422,84,67,0
510.17422,510.38257,100,49,0
510.17422,510.38257,88,49,0
510.37216,510.58047,86,49,0
510.37216,510.58047,98,49,0
510.5909,510.79922,96,75,0
510.5909,510.79922,84,67,0
510.79922,511.00757,95,49,0
510.79922,511.00757,83,49,0
510.99716,511.20547,81,49,0
510.99716,511.20547,93,49,0
511.2159,511.42422,91,75,0
511.2159,511.42422,79,67,0
511.42422,511.63257,89,49,0
511.42422,511.63257,77,49,0
511.62216,511.83047,76,49,0
511.62216,511.83047,88,49,0
511.8409,512.04926,86,75,0
511.8409,512.04926,74,67,0
512.04926,512.25757,88,49,0
512.04926,512.25757,76,49,0
512.24713,512.4555,74,49,0
512.24713,512.4555,86,49,0
512.4659,512.67426,84,49,0
512.4659,512.67426,72,49,0
512.67426,512.7159,67,49,0
512.87213,512.9138,67,49,0
513.0909,513.13257,67,62,0
513.29926,513.3409,67,62,0
513.49713,513.5388,67,62,0
513.7159,513.75757,67,75,0
513.92426,513.9659,67,75,0
514.12213,514.1638,67,75,0
514.3409,514.54926,67,88,0
514.3409,514.54926,65,88,0
514.3409,514.54926,59,88,0
514.54926,514.75757,67,88,0
514.74713,514.75757,67,88,0
514.54926,514.75757,59,88,0
514.74713,514.75757,59,88,0
514.54926,514.75757,65,88,0
514.74713,514.75757,65,88,0
514.9659,515.17426,67,88,0
514.9659,515.17426,65,88,0
514.9659,515.17426,59,88,0
515.17426,515.38257,67,88,0
515.37213,515.38257,67,88,0
515.17426,515.38257,59,88,0
515.37213,515.38257,59,88,0
515.17426,515.38257,65,88,0
515.37213,515.38257,65,88,0
515.5909,515.79926,67,88,0
515.5909,515.79926,65,88,0
515.5909,515.79926,59,88,0
515.79926,516.00757,67,88,0
515.99713,516.00757,67,88,0
515.79926,516.00757,59,88,0
515.99713,516.00757,59,88,0
515.79926,516.00757,65,88,0
515.99713,516.00757,65,88,0
516.2159,516.42426,67,114,0
516.2159,516.42426,65,109,0
516.2159,516.42426,59,104,0
516.42426,516.63257,67,88,0
516.62213,516.63257,67,88,0
516.42426,516.63257,60,88,0
516.62213,516.63257,60,88,0
516.42426,516.63257,63,88,0
516.62213,516.63257,63,88,0
516.8409,517.04926,67,88,0
516.8409,517.04926,63,88,0
516.8409,517.04926,60,88,0
517.04926,517.25757,67,88,0
517.24713,517.25757,67,88,0
517.24713,517.4555,69,88,0
517.4659,517.67426,71,88,0
517.4659,517.67426,67,88,0
517.4659,517.67426,65,88,0
517.67426,517.88257,72,88,0
517.67426,517.88257,65,88,0
517.87213,517.88257,65,88,0
517.67426,517.88257,67,88,0
517.87213,517.88257,67,88,0
517.87213,518.0805,74,88,0
518.0909,518.29926,74,101,0
518.0909,518.29926,67,101,0
518.0909,518.29926,65,101,0
518.29926,518.50757,75,101,0
518.49713,518.50757,75,101,0
518.29926,518.50757,63,101,0
518.49713,518.50757,63,101,0
518.29926,518.50757,67,101,0
518.49713,518.50757,67,101,0
518.7159,518.92426,74,127,0
518.7159,518.92426,67,122,0
518.7159,518.92426,63,117,0
518.92426,519.13257,72,101,0
519.12213,519.13257,72,101,0
518.92426,519.13257,63,101,0
519.12213,519.13257,63,101,0
518.92426,519.13257,68,101,0
519.12213,519.13257,68,101,0
519.3409,519.54926,72,127,0
519.3409,519.54926,68,122,0
519.3409,519.54926,63,117,0
519.54926,519.75757,74,101,0
519.74713,519.75757,74,101,0
519.54926,519.75757,72,101,0
519.74713,519.75757,72,101,0
519.54926,519.75757,62,101,0
519.74713,519.75757,62,101,0
519.54926,519.75757,69,101,0
519.74713,519.75757,69,101,0
519.54926,519.75757,66,101,0
519.74713,519.75757,66,101,0
519.9659,520.17426,79,114,0
519.9659,520.17426,67,114,0
519.9659,520.17426,72,114,0
519.9659,520.17426,75,114,0
520.17426,520.38257,67,114,0
520.37213,520.38257,67,114,0
520.5909,520.79926,67,114,0
520.5909,520.79926,55,114,0
520.5909,520.79926,59,114,0
520.5909,520.79926,62,114,0
520.79926,521.00757,55,114,0
520.99713,521.00757,55,114,0
521.2159,521.42426,55,114,0
521.42426,521.63257,67,114,0
521.62213,521.63257,67,114,0
521.42426,521.63257,55,114,0
521.62213,521.63257,55,114,0
521.8409,522.04926,67,114,0
521.8409,522.04926,61,114,0
522.04926,522.25757,69,114,0
522.24713,522.25757,69,114,0
522.04926,522.25757,61,114,0
522.24713,522.25757,61,114,0
522.04926,522.25757,67,114,0
522.24713,522.25757,67,114,0
522.4659,522.67426,69,114,0
522.4659,522.67426,67,114,0
522.4659,522.67426,61,114,0
522.67426,522.88257,69,114,0
522.87213,522.88257,69,114,0
522.67426,522.88257,62,114,0
522.67426,522.88257,67,114,0
522.87213,522.88257,67,114,0
522.87213,523.0805,64,114,0
523.0909,523.29926,69,114,0
523.0909,523.29926,65,114,0
523.29926,523.50757,69,114,0
523.49713,523.50757,69,114,0
523.29926,523.50757,64,114,0
523.29926,523.50757,65,114,0
523.49713,523.50757,65,114,0
523.49713,523.7055,62,114,0
523.7159,523.92426,71,88,0
523.7159,523.92426,65,88,0
523.7159,523.92426,62,88,0
523.92426,524.13257,71,88,0
524.12213,524.13257,71,88,0
523.92426,524.13257,62,88,0
524.12213,524.13257,62,88,0
523.92426,524.13257,65,88,0
524.12213,524.13257,65,88,0
524.3409,524.38257,72,75,0
524.3409,524.38257,64,75,0
524.3409,524.38257,60,75,0
524.54926,524.5909,72,75,0
524.54926,524.5909,65,75,0
524.54926,524.5909,62,75,0
524.74713,524.7888,72,75,0
524.74713,524.7888,67,75,0
524.74713,524.7888,64,75,0
524.9659,525.00757,71,62,0
524.9659,525.00757,67,62,0
524.9659,525.00757,65,62,0
525.17426,525.2159,72,62,0
525.17426,525.2159,67,62,0
525.17426,525.2159,65,62,0
525.37213,525.4138,74,62,0
525.37213,525.4138,67,62,0
525.37213,525.4138,65,62,0
525.5909,525.79926,74,75,0
525.5909,525.79926,67,70,0
525.5909,525.79926,65,65,0
525.79926,526.00757,76,49,0
525.99713,526.00757,76,49,0
525.79926,526.00757,64,49,0
525.99713,526.00757,64,49,0
525.79926,526.00757,67,49,0
525.99713,526.00757,67,49,0
526.2159,526.42426,76,75,0
526.2159,526.42426,67,70,0
526.2159,526.42426,64,65,0
526.42426,526.63257,72,49,0
526.62213,526.63257,72,49,0
526.42426,526.63257,63,49,0
526.62213,526.63257,63,49,0
526.42426,526.63257,66,49,0
526.62213,526.63257,66,49,0
526.8409,527.04926,72,75,0
526.8409,527.04926,66,70,0
526.8409,527.04926,63,65,0
527.04926,527.25757,74,49,0
527.24713,527.25757,74,49,0
527.04926,527.25757,62,49,0
527.04926,527.25757,66,49,0
527.24713,527.25757,66,49,0
527.24713,527.2888,60,49,0
527.4659,527.67426,67,49,0
527.4659,527.67426,59,49,0
527.67426,527.88257,67,36,0
527.87213,527.88257,67,36,0
528.0909,528.29926,67,36,0
528.29926,528.50757,67,36,0
528.49713,528.50757,67,36,0
528.7159,528.75757,67,36,0
528.92426,528.9659,72,36,0
528.92426,528.9659,67,36,0
529.12213,529.1638,76,36,0
529.12213,529.1638,67,36,0
529.3409,529.54926,76,36,0
529.3409,529.54926,67,36,0
529.54926,529.75757,77,36,0
529.54926,529.75757,67,36,0
529.74713,529.75757,67,36,0
529.74713,529.7888,74,36,0
529.9659,530.00757,74,36,0
529.9659,530.00757,67,36,0
530.17426,530.2159,74,36,0
530.17426,530.2159,67,36,0
530.37213,530.4138,74,36,0
530.37213,530.4138,67,36,0
530.5909,530.69507,76,36,0
530.68463,530.7888,77,36,0
530.79926,530.9034,77,36,0
530.9034,531.00757,76,36,0
530.99713,531.00757,76,36,0
531.11176,531.2159,74,36,0
531.2159,531.42426,74,36,0
531.2159,531.42426,67,36,0
531.42426,531.63257,76,36,0
531.42426,531.63257,67,36,0
531.62213,531.63257,67,36,0
531.62213,531.6638,72,36,0
531.8409,531.88257,72,36,0
532.04926,532.0909,72,36,0
532.24713,532.3513,72,36,0
532.36176,532.4659,74,36,0
532.4659,532.57007,74,36,0
532.55963,532.6638,75,36,0
532.67426,532.7784,75,36,0
532.7784,532.88257,77,36,0
532.87213,532.88257,77,36,0
532.98676,533.0909,79,36,0
533.0909,533.29926,79,36,0
533.0909,533.29926,67,36,0
533.29926,533.50757,80,36,0
533.29926,533.50757,68,36,0
533.49713,533.50757,68,36,0
533.49713,533.7055,77,36,0
533.7159,533.9432,73,36,0
533.7159,533.9432,68,36,0
533.9432,534.1705,73,36,0
534.15906,534.1705,73,36,0
533.9432,534.1705,68,36,0
534.15906,534.1705,68,36,0
534.3977,534.4477,73,36,0
534.3977,534.4477,68,36,0
534.6477,534.6977,77,36,0
534.6477,534.6977,68,36,0
534.8852,534.93524,75,36,0
534.8852,534.93524,72,36,0
535.1477,535.375,75,36,0
535.1477,535.375,72,36,0
535.1477,535.375,68,36,0
535.375,535.60223,73,36,0
535.5909,535.60223,73,36,0
535.375,535.60223,68,36,0
535.5909,535.60223,68,36,0
535.8295,536.0795,73,36,0
535.8295,536.0795,68,36,0
536.0795,536.3295,73,36,0
536.317,536.3295,73,36,0
536.0795,536.3295,68,36,0
536.317,536.3295,68,36,0
536.5795,536.625,77,36,0
536.5795,536.625,68,36,0
536.8068,536.85223,79,36,0
536.8068,536.85223,68,36,0
537.0227,537.0682,80,36,0
537.0227,537.0682,68,36,0
537.26135,537.48865,80,36,0
537.26135,537.48865,68,36,0
537.48865,537.7159,79,36,0
537.7045,537.7159,79,36,0
537.48865,537.7159,67,36,0
537.7045,537.7159,67,36,0
537.9432,537.99316,79,36,0
537.9432,537.99316,67,36,0
538.1932,538.24316,86,36,0
538.1932,538.24316,74,36,0
538.43066,538.48065,88,36,0
538.43066,538.48065,76,36,0
538.6932,538.7487,89,36,0
538.6932,538.7487,77,36,0
538.97095,539.0265,91,36,0
538.97095,539.0265,79,36,0
539.23486,539.2904,93,36,0
539.23486,539.2904,81,36,0
539.5265,539.73486,93,36,0
539.5265,539.73486,81,36,0
539.73486,539.9432,91,36,0
539.73486,539.9432,79,36,0
539.93274,539.9744,76,36,0
539.93274,539.9744,88,36,0
540.1515,540.1932,84,36,0
540.1515,540.1932,72,36,0
540.35986,540.4015,84,36,0
540.35986,540.4015,72,36,0
540.55774,540.5994,84,36,0
540.55774,540.5994,72,36,0
540.7765,540.98486,96,75,0
540.7765,540.98486,84,67,0
540.98486,541.1932,100,49,0
540.98486,541.1932,88,49,0
541.18274,541.3911,86,49,0
541.18274,541.3911,98,49,0
541.4015,541.60986,96,75,0
541.4015,541.60986,84,67,0
541.60986,541.8182,95,49,0
541.60986,541.8182,83,49,0
541.80774,542.0161,81,49,0
541.80774,542.0161,93,49,0
542.0265,542.23486,91,75,0
542.0265,542.23486,79,67,0
542.23486,542.4432,89,49,0
542.23486,542.4432,77,49,0
542.43274,542.6411,76,49,0
542.43274,542.6411,88,49,0
542.6515,542.85986,86,75,0
542.6515,542.85986,74,67,0
542.85986,543.0682,88,49,0
542.85986,543.0682,76,49,0
543.05774,543.2661,74,49,0
543.05774,543.2661,86,49,0
543.2765,543.48486,84,49,0
543.2765,543.48486,72,49,0
543.48486,543.5265,72,49,0
543.68274,543.7244,72,49,0
543.9015,543.9432,72,49,0
544.10986,544.1515,72,49,0
544.30774,544.3494,72,49,0
544.5265,544.5682,72,36,0
544.73486,544.7765,72,36,0
544.93274,544.9744,72,36,0
545.1515,545.35986,74,36,0
545.1515,545.35986,70,36,0
545.1515,545.35986,64,36,0
545.35986,545.5682,72,36,0
545.55774,545.5682,72,36,0
545.35986,545.5682,64,36,0
545.55774,545.5682,64,36,0
545.35986,545.5682,70,36,0
545.55774,545.5682,70,36,0
545.7765,545.98486,72,36,0
545.7765,545.98486,70,36,0
545.7765,545.98486,64,36,0
545.98486,546.1932,72,36,0
546.18274,546.1932,72,36,0
545.98486,546.1932,64,36,0
546.18274,546.1932,64,36,0
545.98486,546.1932,70,36,0
546.18274,546.1932,70,36,0
546.4015,546.60986,72,36,0
546.4015,546.60986,70,36,0
546.4015,546.60986,64,36,0
546.60986,546.8182,74,36,0
546.60986,546.8182,65,36,0
546.60986,546.8182,70,36,0
546.80774,546.8182,70,36,0
546.80774,547.0161,67,36,0
546.80774,547.0161,76,36,0
547.0265,547.23486,76,36,0
547.0265,547.23486,70,36,0
547.0265,547.23486,67,36,0
547.23486,547.4432,77,36,0
547.43274,547.4432,77,36,0
547.23486,547.4432,69,36,0
547.43274,547.4432,69,36,0
547.6515,547.85986,77,36,0
547.6515,547.85986,69,36,0
547.85986,548.0682,77,36,0
548.05774,548.0682,77,36,0
547.85986,548.0682,69,36,0
548.05774,548.0682,69,36,0
548.2765,548.48486,77,36,0
548.2765,548.48486,69,36,0
548.48486,548.6932,79,36,0
548.48486,548.6932,71,36,0
548.48486,548.6932,77,36,0
548.68274,548.6932,77,36,0
548.68274,548.8911,72,36,0
548.68274,548.8911,81,36,0
548.9015,549.10986,81,36,0
548.9015,549.10986,77,36,0
548.9015,549.10986,72,36,0
549.10986,549.3182,79,36,0
549.30774,549.3182,79,36,0
549.10986,549.3182,71,36,0
549.30774,549.3182,71,36,0
549.10986,549.3182,77,36,0
549.30774,549.3182,77,36,0
549.5265,549.73486,79,36,0
549.5265,549.73486,77,36,0
549.5265,549.73486,71,36,0
549.73486,549.9432,79,36,0
549.93274,549.9432,79,36,0
549.73486,549.9432,71,36,0
549.93274,549.9432,71,36,0
549.73486,549.9432,77,36,0
549.93274,549.9432,77,36,0
550.1515,550.35986,79,36,0
550.1515,550.35986,77,36,0
550.1515,550.35986,71,36,0
550.35986,550.5682,81,36,0
550.35986,550.5682,72,36,0
550.35986,550.5682,77,36,0
550.55774,550.5682,77,36,0
550.55774,550.7661,71,36,0
550.55774,550.7661,79,36,0
550.7765,550.98486,81,36,0
550.7765,550.98486,77,36,0
550.7765,550.98486,72,36,0
550.98486,551.1932,79,36,0
551.18274,551.1932,79,36,0
550.98486,551.1932,72,36,0
551.18274,551.1932,72,36,0
550.98486,551.1932,76,36,0
551.18274,551.1932,76,36,0
551.4015,551.60986,79,36,0
551.4015,551.60986,76,36,0
551.4015,551.60986,72,36,0
551.60986,551.8182,60,36,0
551.80774,551.8182,60,36,0
552.0265,552.23486,60,36,0
552.23486,552.4432,60,36,0
552.43274,552.4432,60,36,0
552.6515,552.85986,62,36,0
552.6515,552.85986,58,36,0
552.6515,552.85986,52,36,0
552.85986,553.0682,60,36,0
553.05774,553.0682,60,36,0
552.85986,553.0682,52,36,0
553.05774,553.0682,52,36,0
552.85986,553.0682,58,36,0
553.05774,553.2661,59,36,0
553.2765,553.48486,60,36,0
553.2765,553.48486,59,36,0
553.2765,553.48486,52,36,0
553.48486,553.6932,60,36,0
553.68274,553.6932,60,36,0
553.48486,553.6932,52,36,0
553.68274,553.6932,52,36,0
553.48486,553.6932,58,36,0
553.68274,553.6932,58,36,0
553.9015,554.10986,60,36,0
553.9015,554.10986,58,36,0
553.9015,554.10986,52,36,0
554.10986,554.3182,62,36,0
554.10986,554.3182,53,36,0
554.10986,554.3182,58,36,0
554.30774,554.3182,58,36,0
554.30774,554.5161,55,36,0
554.30774,554.5161,64,36,0
554.5265,554.73486,64,36,0
554.5265,554.73486,58,36,0
554.5265,554.73486,55,36,0
554.73486,554.9432,65,36,0
554.93274,554.9432,65,36,0
554.73486,554.9432,57,36,0
554.93274,554.9432,57,36,0
555.1515,555.35986,65,36,0
555.1515,555.35986,57,36,0
555.35986,555.5682,65,36,0
555.55774,555.5682,65,36,0
555.35986,555.5682,57,36,0
555.55774,555.5682,57,36,0
555.7765,555.98486,65,36,0
555.7765,555.98486,57,36,0
555.98486,556.1932,67,36,0
555.98486,556.1932,59,36,0
555.98486,556.1932,65,36,0
556.18274,556.1932,65,36,0
556.18274,556.3911,60,36,0
556.18274,556.3911,69,36,0
556.4015,556.60986,69,36,0
556.4015,556.60986,65,36,0
556.4015,556.60986,60,36,0
556.60986,556.8182,67,36,0
556.80774,556.8182,67,36,0
556.60986,556.8182,59,36,0
556.80774,556.8182,59,36,0
556.60986,556.8182,65,36,0
556.80774,556.8182,65,36,0
557.0265,557.23486,67,36,0
557.0265,557.23486,65,36,0
557.0265,557.23486,59,36,0
557.23486,557.4432,67,36,0
557.43274,557.4432,67,36,0
557.23486,557.4432,59,36,0
557.43274,557.4432,59,36,0
557.23486,557.4432,65,36,0
557.43274,557.4432,65,36,0
557.6515,557.85986,67,36,0
557.6515,557.85986,65,36,0
557.6515,557.85986,59,36,0
557.85986,558.0682,69,36,0
557.85986,558.0682,60,36,0
557.85986,558.0682,65,36,0
558.05774,558.0682,65,36,0
558.05774,558.2661,59,36,0
558.05774,558.2661,67,36,0
558.2765,558.48486,69,36,0
558.2765,558.48486,65,36,0
558.2765,558.48486,60,36,0
558.48486,558.6932,67,36,0
558.68274,558.6932,67,36,0
558.48486,558.6932,60,36,0
558.68274,558.6932,60,36,0
558.48486,558.6932,64,36,0
558.68274,558.6932,64,36,0
558.9015,559.10986,67,36,0
558.9015,559.10986,64,36,0
558.9015,559.10986,60,36,0
559.10986,559.3182,67,36,0
559.30774,559.3182,67,36,0
559.10986,559.3182,60,36,0
559.30774,559.3182,60,36,0
559.10986,559.3182,64,36,0
559.30774,559.3182,64,36,0
559.5265,559.73486,67,36,0
559.5265,559.73486,64,36,0
559.5265,559.73486,60,36,0
559.73486,559.9432,67,36,0
559.93274,559.9432,67,36,0
559.73486,559.9432,59,36,0
559.73486,559.9432,64,36,0
559.93274,559.9432,64,36,0
559.93274,560.1411,57,36,0
560.1515,560.35986,67,36,0
560.1515,560.35986,64,36,0
560.1515,560.35986,55,36,0
560.35986,560.5682,64,36,0
560.55774,560.5682,64,36,0
560.35986,560.5682,55,36,0
560.55774,560.5682,55,36,0
560.35986,560.5682,60,36,0
560.55774,560.5682,60,36,0
560.7765,560.98486,64,36,0
560.7765,560.98486,60,36,0
560.7765,560.98486,55,36,0
560.98486,561.1932,64,36,0
561.18274,561.1932,64,36,0
560.98486,561.1932,55,36,0
561.18274,561.1932,55,36,0
560.98486,561.1932,60,36,0
561.18274,561.1932,60,36,0
561.4015,561.60986,64,36,0
561.4015,561.60986,60,36,0
561.4015,561.60986,57,36,0
561.60986,561.8182,64,36,0
561.80774,561.8182,64,36,0
561.60986,561.8182,55,36,0
561.60986,561.8182,60,36,0
561.80774,561.8182,60,36,0
561.80774,562.0161,53,36,0
562.0265,562.23486,64,36,0
562.0265,562.23486,60,36,0
562.0265,562.23486,52,36,0
562.23486,562.4432,60,36,0
562.43274,562.4432,60,36,0
562.23486,562.4432,52,36,0
562.43274,562.4432,52,36,0
562.23486,562.4432,55,36,0
562.43274,562.4432,55,36,0
562.6515,562.85986,60,36,0
562.6515,562.85986,55,36,0
562.6515,562.85986,52,36,0
562.85986,563.0682,60,36,0
563.05774,563.0682,60,36,0
562.85986,563.0682,52,36,0
563.05774,563.0682,52,36,0
562.85986,563.0682,55,36,0
563.05774,563.0682,55,36,0
563.2765,563.48486,60,36,0
563.2765,563.48486,55,36,0
563.2765,563.48486,52,36,0
563.48486,563.6932,60,36,0
563.68274,563.6932,60,36,0
563.48486,563.6932,52,36,0
563.68274,563.6932,52,36,0
563.48486,563.6932,55,36,0
563.68274,563.6932,55,36,0
563.9015,564.214,60,36,0
563.9015,564.214,55,36,0
563.9015,564.214,52,36,0
565.1515,565.35986,74,36,0
565.1515,565.35986,67,36,0
565.35986,565.5682,76,36,0
565.35986,565.5682,67,36,0
565.55774,565.5682,67,36,0
565.55774,565.7661,74,36,0
565.7765,566.089,72,36,0
565.7765,566.089,67,36,0
567.0265,567.23486,77,36,0
567.0265,567.23486,67,36,0
567.23486,567.4432,76,36,0
567.23486,567.4432,67,36,0
567.43274,567.4432,67,36,0
567.43274,567.6411,74,36,0
567.6515,567.964,72,36,0
567.6515,567.964,67,36,0
568.9015,569.10986,86,36,0
568.9015,569.10986,74,36,0
569.10986,569.3182,88,36,0
569.10986,569.3182,76,36,0
569.30774,569.5161,74,36,0
569.30774,569.5161,86,36,0
569.5265,569.839,84,36,0
569.5265,569.839,72,36,0
570.7765,570.98486,89,36,0
570.7765,570.98486,77,36,0
570.98486,571.1932,88,36,0
570.98486,571.1932,76,36,0
571.18274,571.3911,74,36,0
571.18274,571.3911,86,36,0
571.4015,572.0265,84,36,0
571.4015,572.0265,72,36,0
572.6515,572.714,79,36,0
572.6515,572.714,76,36,0
572.6515,572.714,72,36,0
573.9015,573.964,76,36,0
573.9015,573.964,72,36,0
573.9015,573.964,67,36,0
575.1515,575.35986,72,36,0
575.1515,575.35986,67,36,0
575.1515,575.35986,64,36,0
575.35986,575.4015,84,36,0
575.35986,575.4015,76,36,0
575.35986,575.4015,72,36,0
575.55774,575.5994,84,36,0
575.55774,575.5994,76,36,0
575.55774,575.5994,72,36,0
575.7765,575.82196,84,36,0
575.7765,575.82196,76,36,0
575.7765,575.82196,72,36,0
576.0038,576.04926,84,36,0
576.0038,576.04926,76,36,0
576.0038,576.04926,72,36,0
576.21967,576.26514,84,36,0
576.21967,576.26514,76,36,0
576.21967,576.26514,72,36,0
576.4583,576.5083,84,36,0
576.4583,576.5083,77,36,0
576.4583,576.5083,72,36,0
576.7083,576.7583,84,36,0
576.7083,576.7583,77,36,0
576.7083,576.7583,72,36,0
576.9458,576.99585,84,36,0
576.9458,576.99585,77,36,0
576.9458,576.99585,72,36,0
577.2083,579.4583,84,36,0
577.2083,579.4583,76,36,0
577.2083,579.4583,72,36,0
3.75,4.375,67,36,0
4.375,4.4375,67,36,0
5.0,5.0625,67,36,0
5.625,5.6875,67,36,0
6.25,7.5,67,36,0
7.5,7.5625,67,36,0
9.375,10.0,67,36,0
10.0,11.25,67,36,0
11.25,11.875,67,36,0
11.875,11.9375,67,36,0
12.5,12.5625,67,36,0
13.125,13.1875,66,36,0
13.75,15.0,59,36,0
18.75,19.375,79,36,0
18.75,19.375,67,36,0
19.375,19.4375,79,36,0
19.375,19.4375,67,36,0
20.0,20.0625,79,36,0
20.0,20.0625,67,36,0
20.625,20.6875,79,36,0
20.625,20.6875,67,36,0
23.125,24.375,67,36,0
24.375,25.0,67,36,0
25.0,26.25,67,36,0
26.25,26.875,67,36,0
26.875,27.5,67,36,0
27.5,28.125,67,36,0
28.125,28.75,69,36,0
30.625,31.25,67,49,0
31.25,31.5625,65,49,0
31.5625,31.875,64,49,0
31.875,33.125,65,49,0
33.125,33.75,64,49,0
35.0,36.25,69,49,0
36.25,36.875,72,49,0
36.875,37.1875,67,49,0
38.125,38.75,67,49,0
38.75,39.0625,65,49,0
39.0625,39.375,64,49,0
39.375,40.625,62,49,0
40.625,41.25,60,49,0
43.125,43.4375,62,49,0
43.4375,43.75,60,49,0
48.75,48.8125,67,49,0
49.375,49.4375,69,49,0
50.0,50.0625,69,49,0
50.625,50.6875,69,49,0
56.25,56.5625,67,36,0
56.5625,56.875,68,36,0
56.875,57.5,69,36,0
57.5,57.5625,67,36,0
58.125,58.1875,65,36,0
60.625,61.25,67,49,0
61.25,61.5625,65,49,0
61.5625,61.875,64,49,0
61.875,63.125,65,49,0
63.125,63.75,64,49,0
65.0,66.25,69,49,0
66.25,66.875,72,49,0
66.875,67.1875,67,49,0
68.125,68.75,67,49,0
68.75,69.0625,65,49,0
69.0625,69.375,64,49,0
69.375,70.625,62,49,0
70.625,71.25,60,49,0
73.125,73.4375,62,49,0
73.4375,73.75,60,49,0
78.75,78.8125,67,49,0
79.375,79.4375,69,49,0
80.0,80.0625,69,49,0
80.625,80.6875,69,49,0
86.25,86.5625,67,36,0
86.5625,86.875,68,36,0
86.875,87.5,69,36,0
87.5,87.5625,67,36,0
88.125,88.1875,65,36,0
94.375,95.0,67,36,0
95.0,95.625,67,36,0
95.625,96.25,67,36,0
101.875,102.5,67,36,0
102.5,103.125,71,36,0
103.125,103.4375,69,36,0
103.4375,103.75,66,36,0
103.75,104.0625,67,36,0
104.0625,104.375,69,36,0
104.375,104.6875,67,36,0
104.6875,105.0,77,36,0
109.375,110.0,67,36,0
110.0,110.625,67,36,0
110.625,111.25,67,36,0
116.875,117.5,67,36,0
117.5,118.125,71,36,0
118.125,118.4375,69,36,0
118.4375,118.75,66,36,0
118.75,119.0625,67,36,0
119.0625,119.375,69,36,0
119.375,119.6875,71,36,0
119.6875,120.0,69,36,0
120.625,121.25,67,36,0
121.25,121.5625,65,36,0
121.5625,121.875,64,36,0
121.875,122.5,65,36,0
122.5,123.125,65,36,0
123.125,123.75,64,36,0
123.75,124.375,67,36,0
124.375,124.6875,72,36,0
124.6875,125.0,67,36,0
125.0,125.3125,64,36,0
125.3125,125.625,71,36,0
125.625,126.25,72,36,0
131.875,132.5,69,36,0
132.5,133.125,69,36,0
133.125,133.75,69,36,0
136.875,137.1875,71,36,0
137.1875,137.5,67,36,0
138.75,139.375,64,62,0
139.375,140.0,65,62,0
140.0,140.625,64,36,0
140.625,140.9375,65,36,0
140.9375,141.25,62,36,0
141.25,141.5625,60,36,0
141.5625,141.875,62,36,0
141.875,142.1875,64,36,0
142.1875,142.5,65,36,0
143.125,143.75,67,36,0
143.75,144.0625,65,36,0
144.0625,144.375,64,36,0
144.375,145.0,65,36,0
145.0,145.625,65,36,0
145.625,146.25,64,36,0
146.25,146.875,67,36,0
146.875,147.1875,72,36,0
147.1875,147.5,67,36,0
147.5,147.8125,64,36,0
147.8125,148.125,71,36,0
148.125,148.75,72,36,0
154.375,155.0,69,36,0
155.0,155.625,69,36,0
155.625,156.25,69,36,0
159.375,159.6875,71,36,0
159.6875,160.0,67,36,0
161.25,161.875,64,62,0
161.875,162.5,65,62,0
162.5,163.125,64,36,0
163.125,163.4375,65,36,0
163.4375,163.75,62,36,0
163.75,165.0,60,36,0
203.98485,204.92235,79,75,0
204.92235,205.85985,77,75,0
205.85985,206.79735,77,75,0
206.79735,207.73485,76,75,0
207.73485,208.04735,74,75,0
208.04735,208.35985,71,75,0
208.35985,209.29735,72,75,0
209.29735,209.60985,67,75,0
209.60985,209.92235,66,75,0
209.92235,210.0786,74,75,0
210.0786,210.23485,72,75,0
223.98485,224.66667,56,75,0
224.66667,225.00757,60,36,0
224.66667,225.00757,55,36,0
225.00757,225.34848,59,36,0
225.00757,225.34848,53,36,0
234.5,235.52272,79,75,0
235.52272,236.54546,77,75,0
236.54546,237.56818,77,75,0
237.56818,238.59091,76,75,0
238.59091,238.93181,74,75,0
238.93181,239.27272,71,75,0
239.27272,240.29546,72,75,0
240.29546,240.63635,67,75,0
240.63635,240.97726,66,75,0
240.97726,241.14772,74,75,0
241.14772,241.31818,72,75,0
256.31818,257.06818,56,75,0
257.06818,257.4091,60,36,0
257.06818,257.4091,55,36,0
257.4091,257.75,59,36,0
257.4091,257.75,53,36,0
258.0909,258.43182,67,36,0
258.43182,258.80682,67,36,0
258.80682,259.18182,67,36,0
259.18182,259.59848,67,36,0
259.59848,260.01514,67,36,0
260.01514,260.35605,67,36,0
260.35605,260.69696,67,36,0
260.69696,261.07196,67,36,0
261.07196,261.44696,67,36,0
261.44696,261.86362,67,36,0
261.86362,262.2803,67,36,0
262.2803,262.5928,67,36,0
262.5928,262.9053,67,36,0
262.9053,263.2178,67,36,0
263.2178,263.5303,67,36,0
263.5303,263.8428,67,36,0
263.8428,264.1553,67,36,0
264.1553,264.4678,67,36,0
264.4678,264.7803,65,36,0
264.7803,265.0928,65,36,0
265.0928,265.4053,63,36,0
265.4053,265.7178,63,36,0
265.7178,266.0303,62,36,0
266.0303,266.3428,60,36,0
273.8428,274.1553,67,36,0
274.1553,274.4678,67,36,0
274.4678,274.7803,67,36,0
274.7803,275.0928,67,36,0
275.0928,275.4053,67,36,0
275.4053,275.7178,67,36,0
275.7178,276.0303,67,36,0
276.0303,276.3428,67,36,0
276.3428,276.6553,67,36,0
276.6553,276.9678,67,36,0
276.9678,277.2803,67,36,0
277.2803,277.5928,67,36,0
277.5928,277.9053,67,36,0
277.9053,278.2178,67,36,0
278.2178,278.5303,67,36,0
278.5303,278.8428,67,36,0
278.8428,279.1553,67,36,0
279.1553,279.4678,67,36,0
279.4678,279.7803,65,36,0
279.7803,280.0928,65,36,0
280.0928,280.4053,63,36,0
280.4053,280.7178,63,36,0
280.7178,281.0303,62,36,0
281.0303,281.3428,60,36,0
304.4678,304.7803,67,36,0
304.7803,305.0928,67,36,0
305.0928,305.4053,67,36,0
305.4053,305.7178,67,36,0
305.7178,306.0303,67,36,0
306.0303,306.3428,67,36,0
306.3428,306.6553,67,36,0
306.6553,306.9678,67,36,0
306.9678,307.2803,67,36,0
307.2803,307.5928,67,36,0
307.5928,307.9053,67,36,0
307.9053,308.2178,67,36,0
308.2178,308.5303,67,36,0
308.5303,308.8428,67,36,0
308.8428,309.1553,67,36,0
309.1553,309.4678,67,36,0
309.4678,309.7803,65,36,0
309.7803,310.0928,65,36,0
310.0928,310.4053,65,36,0
310.4053,310.7178,66,36,0
310.4053,310.7178,63,36,0
310.7178,311.0303,66,36,0
310.7178,311.0303,63,36,0
311.0303,311.3428,65,36,0
311.0303,311.3428,61,36,0
311.3428,311.6553,68,36,0
311.6553,311.9678,68,36,0
311.9678,312.2803,68,36,0
312.2803,312.5928,68,36,0
312.5928,312.9053,68,36,0
317.9053,318.2178,60,49,0
317.9053,318.2178,50,49,0
317.9053,318.2178,53,49,0
317.9053,318.2178,56,49,0
318.2178,318.5303,59,49,0
318.2178,318.5303,50,49,0
318.2178,318.5303,53,49,0
318.2178,318.5303,55,49,0
334.4678,334.7803,67,36,0
334.7803,335.0928,67,36,0
335.0928,335.4053,67,36,0
335.4053,335.7178,67,36,0
335.7178,336.0303,67,36,0
336.0303,336.3428,67,36,0
336.3428,336.6553,67,36,0
336.6553,336.9678,67,36,0
336.9678,337.2803,67,36,0
337.2803,337.5928,67,36,0
337.5928,337.9053,67,36,0
337.9053,338.2178,67,36,0
338.2178,338.5303,67,36,0
338.5303,338.8428,67,36,0
338.8428,339.1553,67,36,0
339.1553,339.4678,67,36,0
339.4678,339.7803,65,36,0
339.7803,340.0928,65,36,0
340.0928,340.4053,65,36,0
340.4053,340.7178,66,36,0
340.4053,340.7178,63,36,0
340.7178,341.0303,66,36,0
340.7178,341.0303,63,36,0
341.0303,341.3428,65,36,0
341.0303,341.3428,61,36,0
341.3428,341.6553,68,36,0
341.6553,341.9678,68,36,0
341.9678,342.2803,68,36,0
342.2803,342.5928,68,36,0
342.5928,342.9053,68,36,0
347.9053,348.2178,60,49,0
347.9053,348.2178,50,49,0
347.9053,348.2178,53,49,0
347.9053,348.2178,56,49,0
348.2178,348.5303,59,49,0
348.2178,348.5303,50,49,0
348.2178,348.5303,53,49,0
348.2178,348.5303,55,49,0
348.5303,349.4678,60,49,0
348.5303,349.4678,48,49,0
348.5303,349.4678,51,49,0
348.5303,349.4678,56,49,0
349.4678,349.50946,60,49,0
349.7803,349.82196,60,49,0
350.0928,350.13446,60,49,0
441.6553,441.75946,63,49,0
441.74905,441.8532,65,49,0
441.86362,441.9678,67,49,0
441.9678,442.07196,68,49,0
442.06155,442.1657,70,49,0
442.17612,442.2803,72,49,0
442.2803,442.9053,73,75,0
442.2803,442.9053,70,70,0
442.2803,442.9053,67,65,0
442.9053,443.2178,72,49,0
442.9053,443.2178,68,49,0
443.5303,443.63446,63,49,0
443.62405,443.7282,65,49,0
443.73862,443.8428,67,49,0
443.8428,443.94696,68,49,0
443.93655,444.0407,70,49,0
444.05112,444.1553,72,49,0
444.1553,444.7803,73,75,0
444.1553,444.7803,70,70,0
444.1553,444.7803,67,65,0
444.7803,445.0928,72,49,0
444.7803,445.0928,68,49,0
445.4053,445.50946,63,49,0
445.49905,445.6032,65,49,0
445.61362,445.7178,67,49,0
445.7178,445.82196,68,49,0
445.81155,445.9157,70,49,0
445.92612,446.0303,72,49,0
446.0303,446.6553,73,75,0
446.0303,446.6553,70,70,0
446.0303,446.6553,67,65,0
446.6553,446.9678,72,49,0
446.6553,446.9678,68,49,0
499.7803,499.98862,67,49,0
499.98862,500.19696,67,49,0
500.18655,500.19696,67,49,0
501.0303,501.07196,67,49,0
501.23862,501.2803,67,49,0
501.43655,501.4782,67,49,0
509.9659,510.17422,72,36,0
509.9659,510.17422,64,36,0
510.17422,510.38257,76,36,0
510.17422,510.38257,67,36,0
510.37216,510.58047,68,36,0
510.37216,510.58047,74,36,0
510.5909,510.79922,72,36,0
510.5909,510.79922,69,36,0
510.79922,511.00757,71,36,0
510.79922,511.00757,64,36,0
510.99716,511.20547,65,36,0
510.99716,511.20547,69,36,0
511.2159,511.42422,67,36,0
511.2159,511.42422,64,36,0
511.42422,511.63257,65,36,0
511.42422,511.63257,62,36,0
511.62216,511.83047,60,36,0
511.62216,511.83047,64,36,0
511.8409,512.04926,62,36,0
511.8409,512.04926,55,36,0
512.04926,512.25757,64,36,0
512.04926,512.25757,60,36,0
512.24713,512.4555,55,36,0
512.24713,512.4555,62,36,0
530.5909,530.79926,67,36,0
530.79926,531.00757,67,36,0
530.99713,531.00757,67,36,0
531.8409,531.88257,67,36,0
532.04926,532.0909,67,36,0
532.24713,532.2888,67,36,0
540.7765,540.98486,72,36,0
540.7765,540.98486,64,36,0
540.98486,541.1932,76,36,0
540.98486,541.1932,67,36,0
541.18274,541.3911,68,36,0
541.18274,541.3911,74,36,0
541.4015,541.60986,72,36,0
541.4015,541.60986,69,36,0
541.60986,541.8182,71,36,0
541.60986,541.8182,64,36,0
541.80774,542.0161,65,36,0
541.80774,542.0161,69,36,0
542.0265,542.23486,67,36,0
542.0265,542.23486,64,36,0
542.23486,542.4432,65,36,0
542.23486,542.4432,62,36,0
542.43274,542.6411,60,36,0
542.43274,542.6411,64,36,0
542.6515,542.85986,62,36,0
542.6515,542.85986,55,36,0
542.85986,543.0682,64,36,0
542.85986,543.0682,60,36,0
543.05774,543.2661,55,36,0
543.05774,543.2661,62,36,0
0.0,0.0625,60,36,0
0.625,1.875,62,62,0
1.875,2.5,59,36,0
2.5,3.75,60,62,0
3.75,4.375,52,36,0
4.375,4.4166665,53,36,0
4.375,4.4166665,43,36,0
5.0,5.0625,52,36,0
5.0,5.0625,43,36,0
5.625,5.6875,50,36,0
5.625,5.6875,43,36,0
6.25,7.5,52,36,0
6.25,7.5,48,36,0
7.5,7.5625,60,36,0
8.125,9.375,62,36,0
9.375,9.4375,59,36,0
10.0,11.25,60,36,0
11.25,11.875,52,36,0
11.875,11.9375,47,36,0
12.5,12.5625,50,36,0
13.125,13.1875,57,36,0
13.125,13.1875,50,36,0
13.75,15.0,55,36,0
13.75,15.0,50,36,0
13.75,15.0,43,36,0
15.0,15.0625,64,36,0
15.0,15.0625,60,36,0
15.625,16.875,65,36,0
15.625,16.875,62,36,0
16.875,16.9375,62,36,0
16.875,16.9375,59,36,0
17.5,18.75,64,36,0
17.5,18.75,60,36,0
18.75,19.375,60,36,0
18.75,19.375,52,36,0
19.375,19.4375,65,36,0
19.375,19.4375,55,36,0
20.0,20.0625,64,36,0
20.0,20.0625,55,36,0
20.625,20.6875,62,36,0
20.625,20.6875,55,36,0
21.25,22.5,64,36,0
21.25,22.5,60,36,0
22.5,22.5625,64,36,0
22.5,22.5625,60,36,0
23.125,24.375,65,36,0
23.125,24.375,62,36,0
24.375,24.4375,62,36,0
24.375,24.4375,59,36,0
25.0,26.25,64,36,0
25.0,26.25,60,36,0
26.25,26.875,64,36,0
26.875,26.9375,59,36,0
27.5,27.5625,62,36,0
28.125,28.1875,62,36,0
28.125,28.1875,60,36,0
28.125,28.1875,50,36,0
28.75,30.0,62,36,0
28.75,30.0,59,36,0
28.75,30.0,55,36,0
31.875,33.125,62,36,0
33.125,33.75,60,36,0
33.75,34.375,65,36,0
33.75,34.375,59,36,0
34.375,35.0,64,36,0
34.375,35.0,60,36,0
35.0,35.625,63,36,0
35.0,35.625,57,36,0
35.625,36.25,62,36,0
35.625,36.25,54,36,0
36.25,36.875,60,36,0
36.875,37.1875,59,36,0
37.5,37.5625,52,36,0
38.125,38.75,49,36,0
38.75,39.0625,50,36,0
39.0625,39.375,52,36,0
39.375,40.625,53,36,0
40.625,41.25,52,36,0
41.25,41.875,55,36,0
41.875,42.5,55,36,0
41.875,42.5,48,36,0
42.5,43.125,54,36,0
42.5,43.125,51,36,0
43.125,43.75,57,36,0
43.125,43.75,50,36,0
43.75,45.0,55,36,0
43.75,45.0,50,36,0
43.75,45.0,43,36,0
45.0,45.3125,60,36,0
45.3125,45.625,61,36,0
45.625,46.875,62,62,0
46.875,46.958332,59,36,0
46.947918,47.03125,60,36,0
47.03125,47.114582,59,36,0
47.104168,47.1875,60,36,0
47.1875,47.270832,59,36,0
47.260418,47.34375,60,36,0
47.34375,47.427082,59,36,0
47.416668,47.5,60,36,0
47.5,48.75,60,62,0
48.75,48.8125,52,36,0
49.375,49.4375,53,36,0
49.375,49.4375,41,36,0
50.0,50.0625,53,36,0
50.0,50.0625,45,36,0
50.625,50.6875,55,36,0
50.625,50.6875,45,36,0
51.25,52.5,53,36,0
51.25,52.5,50,36,0
52.5,52.5625,64,36,0
52.5,52.5625,60,36,0
53.125,54.375,65,75,0
53.125,54.375,62,75,0
53.125,54.375,59,75,0
54.375,54.4375,65,36,0
54.375,54.4375,55,36,0
55.0,56.25,64,36,0
55.0,56.25,60,36,0
56.25,56.3125,60,36,0
56.25,56.3125,52,36,0
56.875,57.1875,60,36,0
57.1875,57.5,62,36,0
58.75,60.0,60,36,0
58.75,60.0,55,36,0
58.75,60.0,48,36,0
61.875,63.125,62,36,0
63.125,63.75,60,36,0
63.75,64.375,65,36,0
63.75,64.375,59,36,0
64.375,65.0,64,36,0
64.375,65.0,60,36,0
65.0,65.625,63,36,0
65.0,65.625,57,36,0
65.625,66.25,62,36,0
65.625,66.25,54,36,0
66.25,66.875,60,36,0
66.875,67.1875,59,36,0
67.5,67.5625,52,36,0
68.125,68.75,49,36,0
68.75,69.0625,50,36,0
69.0625,69.375,52,36,0
69.375,70.625,53,36,0
70.625,71.25,52,36,0
71.25,71.875,55,36,0
71.875,72.5,55,36,0
71.875,72.5,48,36,0
72.5,73.125,54,36,0
72.5,73.125,51,36,0
73.125,73.75,57,36,0
73.125,73.75,50,36,0
73.75,75.0,55,36,0
73.75,75.0,50,36,0
73.75,75.0,43,36,0
75.0,75.3125,60,36,0
75.3125,75.625,61,36,0
75.625,76.875,62,62,0
76.875,76.958336,59,36,0
76.947914,77.03125,60,36,0
77.03125,77.114586,59,36,0
77.104164,77.1875,60,36,0
77.1875,77.270836,59,36,0
77.260414,77.34375,60,36,0
77.34375,77.427086,59,36,0
77.416664,77.5,60,36,0
77.5,78.75,60,62,0
78.75,78.8125,52,36,0
79.375,79.4375,53,36,0
79.375,79.4375,41,36,0
80.0,80.0625,53,36,0
80.0,80.0625,45,36,0
80.625,80.6875,55,36,0
80.625,80.6875,45,36,0
81.25,82.5,53,36,0
81.25,82.5,50,36,0
82.5,82.5625,64,36,0
82.5,82.5625,60,36,0
83.125,84.375,65,75,0
83.125,84.375,62,75,0
83.125,84.375,59,75,0
84.375,84.4375,65,36,0
84.375,84.4375,55,36,0
85.0,86.25,64,36,0
85.0,86.25,60,36,0
86.25,86.3125,60,36,0
86.25,86.3125,52,36,0
86.875,87.1875,60,36,0
87.1875,87.5,62,36,0
88.75,90.0,60,36,0
88.75,90.0,55,36,0
88.75,90.0,48,36,0
90.0,90.3125,60,36,0
90.3125,90.625,61,36,0
90.625,90.9375,61,62,0
90.9375,91.25,62,36,0
91.25,91.5625,59,36,0
91.5625,91.875,55,36,0
91.875,92.1875,57,36,0
92.1875,92.5,59,36,0
92.5,92.8125,59,62,0
92.8125,93.125,60,36,0
93.125,93.4375,55,36,0
93.4375,93.75,52,36,0
93.75,94.0625,53,36,0
94.0625,94.375,55,36,0
94.375,94.4375,65,36,0
94.375,94.4375,55,36,0
95.0,95.0625,64,36,0
95.0,95.0625,55,36,0
95.625,95.6875,62,36,0
95.625,95.6875,55,36,0
96.25,97.5,64,36,0
96.25,97.5,60,36,0
97.5,97.8125,60,36,0
97.8125,98.125,61,36,0
98.125,98.4375,64,62,0
98.4375,98.75,62,36,0
98.75,99.0625,59,36,0
99.21875,99.375,59,36,0
99.0625,99.375,55,36,0
99.375,99.53125,57,36,0
99.53125,99.6875,55,36,0
99.6875,99.84375,57,36,0
99.84375,100.0,59,36,0
100.0,100.3125,62,62,0
100.3125,100.625,60,36,0
100.625,100.9375,55,36,0
100.9375,101.25,52,36,0
101.25,101.5625,50,36,0
101.5625,101.875,48,36,0
101.875,101.9375,47,36,0
102.5,102.5625,62,36,0
102.5,102.5625,50,36,0
103.125,103.75,50,36,0
103.75,104.0625,59,36,0
104.0625,104.375,60,36,0
104.375,104.6875,59,36,0
104.6875,105.0,62,36,0
105.0,105.3125,60,36,0
105.3125,105.625,61,36,0
105.625,105.9375,61,62,0
105.9375,106.25,62,36,0
106.25,106.5625,59,36,0
106.5625,106.875,55,36,0
106.875,107.1875,57,36,0
107.1875,107.5,59,36,0
107.5,107.8125,59,62,0
107.8125,108.125,60,36,0
108.125,108.4375,55,36,0
108.4375,108.75,52,36,0
108.75,109.0625,53,36,0
109.0625,109.375,55,36,0
109.375,109.4375,65,36,0
109.375,109.4375,55,36,0
110.0,110.0625,64,36,0
110.0,110.0625,55,36,0
110.625,110.6875,62,36,0
110.625,110.6875,55,36,0
111.25,112.5,64,36,0
111.25,112.5,60,36,0
112.5,112.8125,60,36,0
112.8125,113.125,61,36,0
113.125,113.4375,64,62,0
113.4375,113.75,62,36,0
113.75,114.0625,59,36,0
114.21875,114.375,59,36,0
114.0625,114.375,55,36,0
114.375,114.53125,57,36,0
114.53125,114.6875,55,36,0
114.6875,114.84375,57,36,0
114.84375,115.0,59,36,0
115.0,115.3125,62,62,0
115.3125,115.625,60,36,0
115.625,115.9375,55,36,0
115.9375,116.25,52,36,0
116.25,116.5625,50,36,0
116.5625,116.875,48,36,0
116.875,116.9375,47,36,0
117.5,117.5625,62,36,0
117.5,117.5625,50,36,0
118.125,118.75,50,36,0
118.75,119.0625,59,36,0
119.0625,119.375,60,36,0
119.375,119.6875,62,36,0
119.6875,120.0,60,36,0
120.0,120.625,59,36,0
120.625,120.9375,49,36,0
120.9375,121.25,50,36,0
121.25,121.5625,53,36,0
121.5625,121.875,57,36,0
121.875,122.1875,62,36,0
122.1875,122.5,60,36,0
122.5,122.8125,59,36,0
122.8125,122.96875,60,36,0
122.96875,123.125,62,36,0
123.125,123.4375,60,36,0
123.4375,123.75,55,36,0
123.75,124.0625,53,36,0
124.0625,124.375,50,36,0
124.375,124.6875,48,36,0
124.6875,125.0,47,36,0
125.0,125.3125,45,36,0
125.3125,125.625,43,36,0
125.625,126.25,42,36,0
126.25,126.5625,43,36,0
126.5625,126.875,54,36,0
126.875,127.1875,55,36,0
127.1875,127.34375,57,36,0
127.34375,127.5,59,36,0
127.5,127.8125,60,36,0
127.8125,128.125,61,36,0
128.125,128.4375,61,62,0
128.4375,128.75,62,36,0
128.75,129.0625,59,36,0
129.21875,129.375,59,36,0
129.0625,129.375,55,36,0
129.375,129.53125,57,36,0
129.53125,129.6875,55,36,0
129.6875,129.84375,57,36,0
129.84375,130.0,59,36,0
130.0,130.3125,62,36,0
130.3125,130.625,60,36,0
130.625,130.9375,55,36,0
130.9375,130.97917,52,36,0
131.25,131.29167,53,36,0
131.5625,131.60417,55,36,0
131.875,132.5,53,36,0
132.5,132.5625,65,36,0
132.5,132.5625,57,36,0
133.125,133.1875,67,36,0
133.125,133.1875,57,36,0
133.75,135.0,65,36,0
133.75,135.0,62,36,0
135.0,135.3125,60,75,0
135.0,135.3125,48,75,0
135.3125,135.625,64,75,0
135.3125,135.625,52,75,0
135.625,135.9375,64,101,0
135.625,135.9375,52,93,0
135.9375,136.25,62,75,0
135.9375,136.25,50,75,0
136.25,136.5625,59,75,0
136.25,136.5625,47,75,0
136.5625,136.875,56,75,0
136.5625,136.875,44,75,0
136.875,137.1875,55,75,0
136.875,137.1875,43,75,0
137.1875,137.5,59,75,0
137.1875,137.5,47,75,0
137.5,137.8125,62,101,0
137.5,137.8125,50,93,0
137.8125,138.125,60,75,0
137.8125,138.125,48,75,0
138.125,138.4375,55,75,0
138.125,138.4375,43,75,0
138.4375,138.75,52,75,0
138.4375,138.75,40,75,0
138.75,139.0625,48,62,0
138.75,139.0625,36,62,0
139.0625,139.375,47,62,0
139.0625,139.375,35,62,0
139.375,139.6875,45,62,0
139.375,139.6875,33,62,0
139.6875,140.0,44,62,0
139.6875,140.0,32,62,0
140.0,140.625,43,36,0
140.0,140.625,31,36,0
140.625,140.9375,50,36,0
140.9375,141.25,53,36,0
141.25,141.5625,52,36,0
141.5625,141.875,53,36,0
141.875,142.1875,55,36,0
142.1875,142.5,53,36,0
142.5,142.8125,52,36,0
142.8125,143.125,55,36,0
143.125,143.4375,49,36,0
143.4375,143.75,50,36,0
143.75,144.0625,53,36,0
144.0625,144.375,57,36,0
144.375,144.6875,62,36,0
144.6875,145.0,60,36,0
145.0,145.3125,59,36,0
145.3125,145.46875,60,36,0
145.46875,145.625,62,36,0
145.625,145.9375,60,36,0
145.9375,146.25,55,36,0
146.25,146.5625,53,36,0
146.5625,146.875,50,36,0
146.875,147.1875,48,36,0
147.1875,147.5,47,36,0
147.5,147.8125,45,36,0
147.8125,148.125,43,36,0
148.125,148.75,42,36,0
148.75,149.0625,43,36,0
149.0625,149.375,54,36,0
149.375,149.6875,55,36,0
149.6875,149.84375,57,36,0
149.84375,150.0,59,36,0
150.0,150.3125,60,36,0
150.3125,150.625,61,36,0
150.625,150.9375,61,62,0
150.9375,151.25,62,36,0
151.25,151.5625,59,36,0
151.71875,151.875,59,36,0
151.5625,151.875,55,36,0
151.875,152.03125,57,36,0
152.03125,152.1875,55,36,0
152.1875,152.34375,57,36,0
152.34375,152.5,59,36,0
152.5,152.8125,62,36,0
152.8125,153.125,60,36,0
153.125,153.4375,55,36,0
153.4375,153.47917,52,36,0
153.75,153.79167,53,36,0
154.0625,154.10417,55,36,0
154.375,155.0,53,36,0
155.0,155.0625,65,36,0
155.0,155.0625,57,36,0
155.625,155.6875,67,36,0
155.625,155.6875,57,36,0
156.25,157.5,65,36,0
156.25,157.5,62,36,0
157.5,157.8125,60,75,0
157.5,157.8125,48,75,0
157.8125,158.125,64,75,0
157.8125,158.125,52,75,0
158.125,158.4375,64,101,0
158.125,158.4375,52,93,0
158.4375,158.75,62,75,0
158.4375,158.75,50,75,0
158.75,159.0625,59,75,0
158.75,159.0625,47,75,0
159.0625,159.375,56,75,0
159.0625,159.375,44,75,0
159.375,159.6875,55,75,0
159.375,159.6875,43,75,0
159.6875,160.0,59,75,0
159.6875,160.0,47,75,0
160.0,160.3125,62,101,0
160.0,160.3125,50,93,0
160.3125,160.625,60,75,0
160.3125,160.625,48,75,0
160.625,160.9375,55,75,0
160.625,160.9375,43,75,0
160.9375,161.25,52,75,0
160.9375,161.25,40,75,0
161.25,161.5625,48,62,0
161.25,161.5625,36,62,0
161.5625,161.875,47,62,0
161.5625,161.875,35,62,0
161.875,162.1875,45,62,0
161.875,162.1875,33,62,0
162.1875,162.5,44,62,0
162.1875,162.5,32,62,0
162.5,163.125,43,36,0
162.5,163.125,31,36,0
163.125,163.4375,50,36,0
163.4375,163.75,53,36,0
163.75,165.0,52,36,0
163.75,165.0,48,36,0
165.0,165.3125,48,36,0
165.3125,165.625,64,36,0
165.3125,165.625,55,36,0
165.625,165.9375,47,36,0
165.9375,166.25,65,36,0
165.9375,166.25,55,36,0
166.25,166.5625,65,36,0
166.25,166.5625,55,36,0
166.5625,166.875,65,36,0
166.5625,166.875,55,36,0
166.875,167.1875,50,36,0
167.1875,167.5,65,36,0
167.1875,167.5,55,36,0
167.5,167.8125,48,36,0
167.8125,168.125,64,36,0
167.8125,168.125,55,36,0
168.125,168.4375,64,36,0
168.125,168.4375,55,36,0
168.4375,168.75,64,36,0
168.4375,168.75,55,36,0
168.75,169.0625,52,36,0
169.0625,169.375,64,36,0
169.0625,169.375,55,36,0
169.375,169.41667,55,36,0
169.6875,169.72917,69,36,0
169.6875,169.72917,65,36,0
170.0,170.04167,55,36,0
170.3125,170.35417,67,36,0
170.3125,170.35417,64,36,0
170.625,170.66667,55,36,0
170.9375,170.97917,67,36,0
170.9375,170.97917,59,36,0
171.25,171.5625,48,36,0
171.5625,172.1875,67,36,0
171.5625,172.1875,60,36,0
172.5,172.8125,48,62,0
172.8125,173.125,64,62,0
172.8125,173.125,55,62,0
173.125,173.4375,47,62,0
173.4375,173.75,65,62,0
173.4375,173.75,55,62,0
173.75,174.0625,65,62,0
173.75,174.0625,55,62,0
174.0625,174.375,65,62,0
174.0625,174.375,55,62,0
174.375,174.6875,50,62,0
174.6875,175.0,65,62,0
174.6875,175.0,55,62,0
175.0,175.3125,48,62,0
175.3125,175.625,64,62,0
175.3125,175.625,55,62,0
175.625,175.9375,64,62,0
175.625,175.9375,55,62,0
175.9375,176.25,64,62,0
175.9375,176.25,55,62,0
176.25,176.40625,55,62,0
176.40625,176.5625,60,62,0
176.5625,176.71875,62,62,0
176.71875,176.875,63,62,0
176.875,177.03125,63,62,0
177.03125,177.1875,62,62,0
177.1875,177.34375,62,62,0
177.34375,177.5,67,62,0
177.34375,177.5,63,62,0
177.5,177.67046,67,62,0
177.5,177.67046,63,62,0
177.67046,177.84091,55,62,0
177.84091,178.01137,57,62,0
178.01137,178.18182,58,62,0
178.18182,178.22728,50,36,0
178.52272,178.56818,50,36,0
178.86363,179.20454,43,36,0
180.29546,180.63637,48,36,0
180.63637,180.97726,64,36,0
180.63637,180.97726,55,36,0
180.97726,181.31818,47,36,0
181.31818,181.65909,65,36,0
181.31818,181.65909,55,36,0
181.65909,182.03409,65,36,0
181.65909,182.03409,55,36,0
182.03409,182.40909,65,36,0
182.03409,182.40909,55,36,0
182.40909,182.82576,50,36,0
182.82576,183.24242,65,36,0
182.82576,183.24242,55,36,0
183.24242,183.55492,48,36,0
183.55492,183.86742,64,36,0
183.55492,183.86742,55,36,0
183.86742,184.17992,64,36,0
183.86742,184.17992,55,36,0
184.17992,184.49242,64,36,0
184.17992,184.49242,55,36,0
184.49242,184.80492,52,36,0
184.80492,185.11742,64,36,0
184.80492,185.11742,55,36,0
185.11742,185.15909,55,36,0
185.42992,185.47159,69,36,0
185.42992,185.47159,65,36,0
185.74242,185.78409,55,36,0
186.05492,186.09659,67,36,0
186.05492,186.09659,64,36,0
186.36742,186.40909,55,36,0
186.67992,186.72159,67,36,0
186.67992,186.72159,59,36,0
186.99242,187.30492,48,36,0
187.30492,187.92992,67,36,0
187.30492,187.92992,60,36,0
188.24242,188.55492,48,62,0
188.55492,188.86742,64,62,0
188.55492,188.86742,55,62,0
188.86742,189.17992,47,62,0
189.17992,189.49242,65,62,0
189.17992,189.49242,55,62,0
189.49242,189.80492,65,62,0
189.49242,189.80492,55,62,0
189.80492,190.11742,65,62,0
189.80492,190.11742,55,62,0
190.11742,190.42992,50,62,0
190.42992,190.74242,65,62,0
190.42992,190.74242,55,62,0
190.74242,191.05492,48,62,0
191.05492,191.36742,64,62,0
191.05492,191.36742,55,62,0
191.36742,191.67992,64,62,0
191.36742,191.67992,55,62,0
191.67992,191.99242,64,62,0
191.67992,191.99242,55,62,0
191.99242,192.14867,55,62,0
192.14867,192.30492,60,62,0
192.30492,192.46117,62,62,0
192.46117,192.61742,63,62,0
192.61742,192.77367,63,62,0
192.77367,192.92992,62,62,0
192.92992,193.08617,62,62,0
193.08617,193.24242,67,62,0
193.08617,193.24242,63,62,0
193.24242,193.41287,67,62,0
193.24242,193.41287,63,62,0
193.41287,193.58333,55,62,0
193.58333,193.75378,57,62,0
193.75378,193.92424,58,62,0
193.92424,193.9697,50,36,0
194.26515,194.31061,50,36,0
194.60606,194.94698,43,36,0
196.03787,196.37878,49,36,0
196.37878,196.7197,67,36,0
196.37878,196.7197,57,36,0
196.7197,197.06061,50,36,0
197.06061,197.40152,65,36,0
197.06061,197.40152,57,36,0
197.40152,197.77652,65,36,0
197.40152,197.77652,57,36,0
197.77652,198.15152,65,36,0
197.77652,198.15152,57,36,0
198.15152,198.56818,47,36,0
198.56818,198.98485,65,36,0
198.56818,198.98485,55,36,0
198.98485,199.29735,48,36,0
199.29735,199.60985,64,36,0
199.29735,199.60985,55,36,0
199.60985,199.92235,64,36,0
199.60985,199.92235,55,36,0
199.92235,200.23485,64,36,0
199.92235,200.23485,55,36,0
200.54735,200.85985,55,36,0
200.85985,201.17235,55,36,0
201.17235,201.48485,57,36,0
201.48485,201.79735,59,36,0
201.79735,202.10985,60,36,0
202.10985,202.42235,62,36,0
202.42235,202.73485,63,36,0
202.42235,202.73485,60,36,0
202.73485,202.8911,63,36,0
202.73485,202.8911,60,36,0
202.8911,203.04735,62,36,0
202.8911,203.04735,59,36,0
203.04735,203.2036,60,36,0
203.04735,203.2036,57,36,0
203.2036,203.35985,63,36,0
203.2036,203.35985,60,36,0
203.35985,203.98485,62,36,0
203.35985,203.98485,59,36,0
203.98485,204.1411,62,75,0
204.1411,204.29735,61,75,0
204.29735,204.4536,61,75,0
204.4536,204.60985,57,75,0
204.60985,204.7661,62,75,0
204.7661,204.92235,65,75,0
204.92235,205.0786,65,75,0
205.0786,205.23485,69,75,0
205.23485,205.3911,69,75,0
205.3911,205.54735,65,75,0
205.54735,205.7036,64,75,0
205.7036,205.85985,62,75,0
205.85985,206.0161,60,75,0
206.0161,206.17235,59,75,0
206.17235,206.3286,59,75,0
206.3286,206.48485,55,75,0
206.48485,206.6411,60,75,0
206.6411,206.79735,64,75,0
206.79735,206.9536,64,75,0
206.9536,207.10985,67,75,0
207.10985,207.2661,65,75,0
207.2661,207.42235,64,75,0
207.42235,207.5786,62,75,0
207.5786,207.73485,60,75,0
207.73485,207.8911,59,75,0
207.8911,208.04735,57,75,0
208.04735,208.2036,55,75,0
208.2036,208.35985,53,75,0
208.35985,208.5161,52,75,0
208.5161,208.67235,50,75,0
208.67235,208.8286,48,75,0
208.8286,208.98485,47,75,0
208.98485,209.1411,45,75,0
209.1411,209.29735,47,75,0
209.29735,209.4536,48,75,0
209.4536,209.60985,49,75,0
209.60985,209.7661,50,75,0
209.7661,209.92235,48,75,0
209.92235,210.0786,47,75,0
210.0786,210.23485,45,75,0
210.23485,210.54735,43,75,0
211.48485,211.79735,48,36,0
211.79735,212.10985,64,36,0
211.79735,212.10985,55,36,0
212.10985,212.42235,47,36,0
212.42235,212.73485,65,36,0
212.42235,212.73485,55,36,0
212.73485,213.04735,65,36,0
212.73485,213.04735,55,36,0
213.04735,213.35985,65,36,0
213.04735,213.35985,55,36,0
213.35985,213.67235,50,36,0
213.67235,213.98485,65,36,0
213.67235,213.98485,55,36,0
213.98485,214.29735,48,36,0
214.29735,214.60985,64,36,0
214.29735,214.60985,55,36,0
214.60985,214.92235,64,36,0
214.60985,214.92235,55,36,0
214.92235,215.23485,64,36,0
214.92235,215.23485,55,36,0
215.23485,215.54735,52,36,0
215.54735,215.85985,64,36,0
215.54735,215.85985,55,36,0
215.85985,215.90152,53,36,0
216.17235,216.21402,69,36,0
216.17235,216.21402,65,36,0
216.48485,216.52652,57,36,0
216.79735,216.83902,69,36,0
216.79735,216.83902,65,36,0
217.10985,217.15152,57,36,0
217.42235,217.46402,69,36,0
217.42235,217.46402,61,36,0
217.73485,218.04735,50,36,0
218.04735,218.67235,69,36,0
218.04735,218.67235,62,36,0
218.98485,219.29735,48,62,0
219.29735,219.60985,64,62,0
219.29735,219.60985,57,62,0
219.60985,219.92235,47,62,0
219.92235,220.23485,65,62,0
219.92235,220.23485,62,62,0
219.92235,220.23485,56,62,0
220.23485,220.54735,65,62,0
220.23485,220.54735,62,62,0
220.23485,220.54735,56,62,0
220.54735,220.85985,65,62,0
220.54735,220.85985,62,62,0
220.54735,220.85985,56,62,0
220.85985,221.17235,50,62,0
221.17235,221.48485,65,62,0
221.17235,221.48485,59,62,0
221.17235,221.48485,55,62,0
221.48485,221.79735,48,62,0
221.79735,222.10985,64,62,0
221.79735,222.10985,60,62,0
221.79735,222.10985,55,62,0
222.10985,222.42235,64,62,0
222.10985,222.42235,60,62,0
222.10985,222.42235,55,62,0
222.42235,222.73485,64,62,0
222.42235,222.73485,60,62,0
222.42235,222.73485,55,62,0
222.73485,222.8911,48,75,0
222.8911,223.04735,43,75,0
223.04735,223.2036,43,75,0
223.2036,223.35985,39,75,0
223.35985,223.5161,39,75,0
223.5161,223.67235,38,75,0
223.67235,223.8286,38,75,0
223.8286,223.98485,36,75,0
223.98485,224.1553,36,75,0
224.1553,224.32576,38,75,0
224.32576,224.49622,38,75,0
224.49622,224.66667,39,75,0
226.7803,227.12122,50,75,0
227.12122,227.46211,65,75,0
227.12122,227.46211,57,75,0
227.46211,227.83711,65,36,0
227.46211,227.83711,57,36,0
227.83711,228.21211,65,36,0
227.83711,228.21211,57,36,0
228.21211,228.62878,47,36,0
228.62878,229.04546,65,36,0
228.62878,229.04546,55,36,0
229.04546,229.38637,48,36,0
229.38637,229.72726,64,36,0
229.38637,229.72726,55,36,0
229.72726,230.06818,64,36,0
229.72726,230.06818,55,36,0
230.06818,230.40909,64,36,0
230.06818,230.40909,55,36,0
230.75,231.09091,55,36,0
231.09091,231.43181,55,36,0
231.43181,231.77272,57,36,0
231.77272,232.11363,59,36,0
232.11363,232.45454,60,36,0
232.45454,232.79546,62,36,0
232.79546,233.13637,63,36,0
232.79546,233.13637,60,36,0
233.13637,233.30681,63,36,0
233.13637,233.30681,60,36,0
233.30681,233.47726,62,36,0
233.30681,233.47726,59,36,0
233.47726,233.64772,60,36,0
233.47726,233.64772,57,36,0
233.64772,233.81818,63,36,0
233.64772,233.81818,60,36,0
233.81818,234.5,62,36,0
233.81818,234.5,59,36,0
234.5,234.67046,62,75,0
234.67046,234.84091,61,75,0
234.84091,235.01135,61,75,0
235.01135,235.18181,57,75,0
235.18181,235.35226,62,75,0
235.35226,235.52272,65,75,0
235.52272,235.69318,65,75,0
235.69318,235.86363,69,75,0
235.86363,236.03409,69,75,0
236.03409,236.20454,65,75,0
236.20454,236.375,64,75,0
236.375,236.54546,62,75,0
236.54546,236.71591,60,75,0
236.71591,236.88635,59,75,0
236.88635,237.05681,59,75,0
237.05681,237.22726,55,75,0
237.22726,237.39772,60,75,0
237.39772,237.56818,64,75,0
237.56818,237.73863,64,75,0
237.73863,237.90909,67,75,0
237.90909,238.07954,65,75,0
238.07954,238.25,64,75,0
238.25,238.42046,62,75,0
238.42046,238.59091,60,75,0
238.59091,238.76135,59,75,0
238.76135,238.93181,57,75,0
238.93181,239.10226,55,75,0
239.10226,239.27272,53,75,0
239.27272,239.44318,52,75,0
239.44318,239.61363,50,75,0
239.61363,239.78409,48,75,0
239.78409,239.95454,47,75,0
239.95454,240.125,45,75,0
240.125,240.29546,47,75,0
240.29546,240.4659,48,75,0
240.4659,240.63635,49,75,0
240.63635,240.80681,50,75,0
240.80681,240.97726,48,75,0
240.97726,241.14772,47,75,0
241.14772,241.31818,45,75,0
241.31818,241.65909,43,75,0
242.68181,243.02272,48,36,0
243.02272,243.36363,64,36,0
243.02272,243.36363,55,36,0
243.36363,243.70454,47,36,0
243.70454,244.04546,65,36,0
243.70454,244.04546,55,36,0
244.04546,244.38635,65,36,0
244.04546,244.38635,55,36,0
244.38635,244.72726,65,36,0
244.38635,244.72726,55,36,0
244.72726,245.06818,50,36,0
245.06818,245.40909,65,36,0
245.06818,245.40909,55,36,0
245.40909,245.75,48,36,0
245.75,246.0909,64,36,0
245.75,246.0909,55,36,0
246.0909,246.43181,64,36,0
246.0909,246.43181,55,36,0
246.43181,246.77272,64,36,0
246.43181,246.77272,55,36,0
246.77272,247.11363,52,36,0
247.11363,247.45454,64,36,0
247.11363,247.45454,55,36,0
247.45454,247.5,53,36,0
247.79544,247.8409,69,36,0
247.79544,247.8409,65,36,0
248.13635,248.18181,57,36,0
248.47726,248.52272,69,36,0
248.47726,248.52272,65,36,0
248.81818,248.86363,57,36,0
249.15909,249.20454,69,36,0
249.15909,249.20454,61,36,0
249.5,249.8409,50,36,0
249.8409,250.52272,69,36,0
249.8409,250.52272,62,36,0
250.86363,251.20454,48,62,0
251.20454,251.54544,64,62,0
251.20454,251.54544,57,62,0
251.54544,251.88635,47,62,0
251.88635,252.22726,65,62,0
251.88635,252.22726,62,62,0
251.88635,252.22726,56,62,0
252.22726,252.56818,65,62,0
252.22726,252.56818,62,62,0
252.22726,252.56818,56,62,0
252.56818,252.90909,65,62,0
252.56818,252.90909,62,62,0
252.56818,252.90909,56,62,0
252.90909,253.24998,50,62,0
253.24998,253.5909,65,62,0
253.24998,253.5909,59,62,0
253.24998,253.5909,55,62,0
253.5909,253.93181,48,62,0
253.93181,254.27272,64,62,0
253.93181,254.27272,60,62,0
253.93181,254.27272,55,62,0
254.27272,254.61363,64,62,0
254.27272,254.61363,60,62,0
254.27272,254.61363,55,62,0
254.61363,254.95454,64,62,0
254.61363,254.95454,60,62,0
254.61363,254.95454,55,62,0
254.95454,255.12498,48,75,0
255.12498,255.29544,43,75,0
255.29544,255.4659,43,75,0
255.4659,255.63635,39,75,0
255.63635,255.80681,39,75,0
255.80681,255.97726,38,75,0
255.97726,256.1477,38,75,0
256.1477,256.31818,36,75,0
256.31818,256.50568,36,75,0
256.50568,256.69318,38,75,0
256.69318,256.88068,38,75,0
256.88068,257.06818,39,75,0
260.01514,260.52652,62,49,0
260.52652,260.69696,63,49,0
260.69696,261.07196,65,49,0
261.44696,261.5303,59,49,0
262.2803,262.74905,60,49,0
262.74905,262.9053,62,49,0
262.9053,263.2178,63,49,0
263.5303,263.99905,51,49,0
263.99905,264.08237,53,49,0
264.07196,264.1553,55,49,0
264.1553,264.7803,56,49,0
264.7803,265.4053,55,49,0
265.4053,266.0303,53,49,0
265.4053,266.0303,43,49,0
266.0303,266.6553,51,49,0
266.0303,266.6553,48,49,0
267.5928,267.63446,51,88,0
267.5928,267.63446,39,88,0
267.9053,268.37405,53,88,0
267.9053,268.37405,41,88,0
268.37405,268.5303,55,88,0
268.37405,268.5303,43,88,0
268.5303,269.1553,56,88,0
268.5303,269.1553,44,88,0
269.4678,269.50946,50,88,0
269.4678,269.50946,38,88,0
269.7803,270.24905,51,88,0
269.7803,270.24905,39,88,0
270.24905,270.4053,53,88,0
270.24905,270.4053,41,88,0
270.4053,271.0303,55,88,0
270.4053,271.0303,43,88,0
271.3428,271.38446,43,88,0
271.3428,271.38446,31,88,0
271.6553,272.12405,51,88,0
271.6553,272.12405,39,88,0
272.12405,272.2803,50,88,0
272.12405,272.2803,38,88,0
272.2803,272.3428,46,88,0
272.2803,272.3428,34,88,0
272.9053,272.9678,50,88,0
272.9053,272.9678,38,88,0
273.5303,274.1553,43,88,0
273.5303,274.1553,31,88,0
274.7803,274.8428,60,49,0
275.4053,275.87405,62,49,0
275.87405,276.0303,63,49,0
276.0303,276.3428,65,49,0
276.6553,276.7178,59,49,0
277.2803,277.74905,60,49,0
277.74905,277.9053,62,49,0
277.9053,278.2178,63,49,0
278.5303,278.99905,51,49,0
278.99905,279.08237,53,49,0
279.07196,279.1553,55,49,0
279.1553,279.7803,56,49,0
279.7803,280.4053,55,49,0
280.4053,281.0303,53,49,0
280.4053,281.0303,43,49,0
281.0303,281.6553,51,49,0
281.0303,281.6553,48,49,0
282.5928,282.63446,51,88,0
282.5928,282.63446,39,88,0
282.9053,283.37405,53,88,0
282.9053,283.37405,41,88,0
283.37405,283.5303,55,88,0
283.37405,283.5303,43,88,0
283.5303,284.1553,56,88,0
283.5303,284.1553,44,88,0
284.4678,284.50946,50,88,0
284.4678,284.50946,38,88,0
284.7803,285.24905,51,88,0
284.7803,285.24905,39,88,0
285.24905,285.4053,53,88,0
285.24905,285.4053,41,88,0
285.4053,286.0303,55,88,0
285.4053,286.0303,43,88,0
286.3428,286.38446,43,88,0
286.3428,286.38446,31,88,0
286.6553,287.12405,51,88,0
286.6553,287.12405,39,88,0
287.12405,287.2803,50,88,0
287.12405,287.2803,38,88,0
287.2803,287.3428,46,88,0
287.2803,287.3428,34,88,0
287.9053,287.9678,50,88,0
287.9053,287.9678,38,88,0
288.5303,289.1553,43,88,0
288.5303,289.1553,31,88,0
290.0928,290.4053,47,88,0
290.0928,290.4053,35,88,0
290.4053,290.87405,48,101,0
290.4053,290.87405,36,101,0
290.87405,291.0303,51,101,0
290.87405,291.0303,39,101,0
291.0303,291.49905,50,101,0
291.0303,291.49905,38,101,0
291.49905,291.6553,60,101,0
291.49905,291.6553,48,101,0
291.6553,292.12405,59,101,0
291.6553,292.12405,47,101,0
292.12405,292.2803,62,101,0
292.12405,292.2803,50,101,0
292.2803,292.74905,51,101,0
292.2803,292.74905,39,101,0
292.74905,292.9053,55,101,0
292.74905,292.9053,43,101,0
292.9053,293.37405,60,101,0
292.9053,293.37405,48,101,0
293.37405,293.5303,62,101,0
293.37405,293.5303,50,101,0
293.5303,293.99905,63,101,0
293.5303,293.99905,51,101,0
293.99905,294.1553,50,101,0
293.99905,294.1553,38,101,0
294.1553,294.62405,51,101,0
294.1553,294.62405,39,101,0
294.62405,294.7803,50,101,0
294.62405,294.7803,38,101,0
294.7803,295.24905,48,101,0
294.7803,295.24905,36,101,0
295.24905,295.4053,47,101,0
295.24905,295.4053,35,101,0
295.4053,295.87405,48,101,0
295.4053,295.87405,36,101,0
295.87405,296.0303,50,101,0
295.87405,296.0303,38,101,0
296.0303,296.9678,43,101,0
296.0303,296.9678,31,101,0
296.9678,297.2803,55,101,0
297.2803,297.5928,55,101,0
297.5928,297.9053,55,101,0
297.9053,298.2178,56,101,0
297.9053,298.2178,55,101,0
298.2178,298.5303,56,101,0
298.2178,298.5303,53,101,0
298.5303,298.8428,55,101,0
298.5303,298.8428,44,101,0
298.8428,299.1553,53,101,0
298.8428,299.1553,44,101,0
299.1553,299.4678,44,101,0
299.1553,299.4678,43,101,0
299.4678,299.7803,44,101,0
299.4678,299.7803,41,101,0
299.7803,300.0928,55,101,0
299.7803,300.0928,53,101,0
300.0928,300.4053,55,101,0
300.0928,300.4053,51,101,0
300.4053,300.7178,53,101,0
300.4053,300.7178,43,101,0
300.7178,301.0303,51,101,0
300.7178,301.0303,43,101,0
301.0303,301.3428,43,101,0
301.0303,301.3428,38,101,0
301.3428,301.6553,43,101,0
301.3428,301.6553,36,101,0
301.6553,302.12405,51,88,0
301.6553,302.12405,39,88,0
302.12405,302.2803,50,88,0
302.12405,302.2803,38,88,0
302.2803,302.74905,48,88,0
302.2803,302.74905,36,88,0
302.74905,302.9053,47,88,0
302.74905,302.9053,35,88,0
302.9053,303.37405,48,88,0
302.9053,303.37405,36,88,0
303.37405,303.5303,50,88,0
303.37405,303.5303,38,88,0
303.5303,304.4678,43,88,0
303.5303,304.4678,31,88,0
304.7803,304.8428,60,49,0
305.4053,305.87405,62,49,0
305.87405,306.0303,63,49,0
306.0303,306.3428,65,49,0
306.6553,306.7178,59,49,0
307.2803,307.74905,60,49,0
307.74905,307.9053,62,49,0
307.9053,308.2178,63,49,0
308.5303,308.99905,51,49,0
308.99905,309.08237,53,49,0
309.07196,309.1553,55,49,0
309.1553,309.2178,56,49,0
309.7803,309.8428,56,49,0
310.4053,310.4678,56,49,0
310.4053,310.4678,44,49,0
311.0303,311.6553,56,49,0
311.0303,311.6553,44,49,0
312.12405,312.2803,66,49,0
312.12405,312.2803,54,49,0
312.2803,312.74905,65,49,0
312.2803,312.74905,53,49,0
312.74905,312.9053,61,49,0
312.74905,312.9053,49,49,0
312.9053,313.37405,59,49,0
312.9053,313.37405,47,49,0
313.37405,313.5303,63,49,0
313.37405,313.5303,51,49,0
313.5303,313.99905,53,49,0
313.5303,313.99905,41,49,0
313.99905,314.1553,56,49,0
313.99905,314.1553,43,49,0
314.1553,314.62405,47,49,0
314.1553,314.62405,35,49,0
314.62405,314.7803,63,49,0
314.62405,314.7803,51,49,0
314.7803,315.24905,48,49,0
315.24905,315.4053,55,49,0
315.4053,315.87405,43,49,0
315.87405,316.0303,48,49,0
316.0303,316.49905,36,49,0
316.49905,316.6553,39,49,0
316.6553,317.12405,29,49,0
317.12405,317.2803,32,49,0
317.2803,317.74905,31,49,0
317.74905,317.9053,31,49,0
317.9053,318.37405,31,49,0
318.37405,318.5303,31,49,0
318.5303,319.1553,48,49,0
320.0928,320.4053,51,88,0
320.0928,320.4053,39,88,0
320.4053,320.87405,48,101,0
320.4053,320.87405,36,101,0
320.87405,321.0303,51,101,0
320.87405,321.0303,39,101,0
321.0303,321.49905,50,101,0
321.0303,321.49905,38,101,0
321.49905,321.6553,60,101,0
321.49905,321.6553,48,101,0
321.6553,322.12405,59,101,0
321.6553,322.12405,47,101,0
322.12405,322.2803,62,101,0
322.12405,322.2803,50,101,0
322.2803,322.74905,51,101,0
322.2803,322.74905,39,101,0
322.74905,322.9053,55,101,0
322.74905,322.9053,43,101,0
322.9053,323.37405,60,101,0
322.9053,323.37405,48,101,0
323.37405,323.5303,62,101,0
323.37405,323.5303,50,101,0
323.5303,323.99905,63,101,0
323.5303,323.99905,51,101,0
323.99905,324.1553,50,101,0
323.99905,324.1553,38,101,0
324.1553,324.62405,51,101,0
324.1553,324.62405,39,101,0
324.62405,324.7803,50,101,0
324.62405,324.7803,38,101,0
324.7803,325.24905,48,101,0
324.7803,325.24905,36,101,0
325.24905,325.4053,47,101,0
325.24905,325.4053,35,101,0
325.4053,325.87405,48,101,0
325.4053,325.87405,36,101,0
325.87405,326.0303,50,101,0
325.87405,326.0303,38,101,0
326.0303,326.9678,43,101,0
326.0303,326.9678,31,101,0
326.9678,327.2803,55,101,0
327.2803,327.5928,55,101,0
327.5928,327.9053,55,101,0
327.9053,328.2178,56,101,0
327.9053,328.2178,55,101,0
328.2178,328.5303,56,101,0
328.2178,328.5303,53,101,0
328.5303,328.8428,55,101,0
328.5303,328.8428,44,101,0
328.8428,329.1553,53,101,0
328.8428,329.1553,44,101,0
329.1553,329.4678,44,101,0
329.1553,329.4678,43,101,0
329.4678,329.7803,44,101,0
329.4678,329.7803,41,101,0
329.7803,330.0928,55,101,0
329.7803,330.0928,53,101,0
330.0928,330.4053,55,101,0
330.0928,330.4053,51,101,0
330.4053,330.7178,53,101,0
330.4053,330.7178,43,101,0
330.7178,331.0303,51,101,0
330.7178,331.0303,43,101,0
331.0303,331.3428,43,101,0
331.0303,331.3428,38,101,0
331.3428,331.6553,43,101,0
331.3428,331.6553,36,101,0
331.6553,332.12405,51,88,0
331.6553,332.12405,39,88,0
332.12405,332.2803,50,88,0
332.12405,332.2803,38,88,0
332.2803,332.74905,48,88,0
332.2803,332.74905,36,88,0
332.74905,332.9053,47,88,0
332.74905,332.9053,35,88,0
332.9053,333.37405,48,88,0
332.9053,333.37405,36,88,0
333.37405,333.5303,50,88,0
333.37405,333.5303,38,88,0
333.5303,334.4678,43,88,0
333.5303,334.4678,31,88,0
334.7803,334.8428,60,49,0
335.4053,335.87405,62,49,0
335.87405,336.0303,63,49,0
336.0303,336.3428,65,49,0
336.6553,336.7178,59,49,0
337.2803,337.74905,60,49,0
337.74905,337.9053,62,49,0
337.9053,338.2178,63,49,0
338.5303,338.99905,51,49,0
338.99905,339.08237,53,49,0
339.07196,339.1553,55,49,0
339.1553,339.2178,56,49,0
339.7803,339.8428,56,49,0
340.4053,340.4678,56,49,0
340.4053,340.4678,44,49,0
341.0303,341.6553,56,49,0
341.0303,341.6553,44,49,0
342.12405,342.2803,66,49,0
342.12405,342.2803,54,49,0
342.2803,342.74905,65,49,0
342.2803,342.74905,53,49,0
342.74905,342.9053,61,49,0
342.74905,342.9053,49,49,0
342.9053,343.37405,59,49,0
342.9053,343.37405,47,49,0
343.37405,343.5303,63,49,0
343.37405,343.5303,51,49,0
343.5303,343.99905,53,49,0
343.5303,343.99905,41,49,0
343.99905,344.1553,56,49,0
343.99905,344.1553,43,49,0
344.1553,344.62405,47,49,0
344.1553,344.62405,35,49,0
344.62405,344.7803,63,49,0
344.62405,344.7803,51,49,0
344.7803,345.24905,48,49,0
345.24905,345.4053,55,49,0
345.4053,345.87405,43,49,0
345.87405,346.0303,48,49,0
346.0303,346.49905,36,49,0
346.49905,346.6553,39,49,0
346.6553,347.12405,29,49,0
347.12405,347.2803,32,49,0
347.2803,347.74905,31,49,0
347.74905,347.9053,31,49,0
347.9053,348.37405,31,49,0
348.37405,348.5303,31,49,0
348.5303,349.4678,44,36,0
348.5303,349.4678,32,36,0
350.4053,351.6553,56,36,0
350.4053,351.6553,51,36,0
350.4053,351.6553,44,36,0
352.12405,352.1657,57,36,0
352.2803,352.32196,58,36,0
352.74905,352.7907,60,36,0
352.9053,352.94696,61,36,0
353.37405,353.4157,62,36,0
353.5303,353.57196,63,36,0
353.99905,354.0407,61,36,0
354.1553,354.19696,60,36,0
354.62405,354.6657,68,36,0
354.62405,354.6657,61,36,0
354.7803,354.82196,68,36,0
354.7803,354.82196,60,36,0
355.24905,355.2907,58,36,0
355.24905,355.2907,51,36,0
355.24905,355.2907,49,36,0
355.4053,355.44696,56,36,0
355.4053,355.44696,51,36,0
355.4053,355.44696,48,36,0
355.87405,355.9157,44,36,0
356.0303,356.49905,41,36,0
356.49905,356.6553,61,36,0
356.49905,356.6553,56,36,0
356.49905,356.6553,53,36,0
356.6553,357.12405,39,36,0
357.12405,357.2803,60,36,0
357.12405,357.2803,56,36,0
357.12405,357.2803,51,36,0
357.2803,357.74905,39,36,0
357.74905,357.9053,61,36,0
357.74905,357.9053,55,36,0
357.74905,357.9053,51,36,0
357.9053,357.94696,60,49,0
357.9053,357.94696,56,49,0
357.99905,358.1032,44,49,0
358.11362,358.2178,46,49,0
358.2178,358.32196,48,49,0
358.31155,358.4157,49,49,0
358.42612,358.5303,50,49,0
358.5303,358.63446,51,62,0
358.62405,358.7282,53,62,0
358.73862,358.8428,55,62,0
358.8428,358.94696,56,62,0
358.93655,359.0407,58,62,0
359.05112,359.1553,60,62,0
359.1553,359.25946,57,75,0
359.24905,359.3532,58,75,0
359.36362,359.4678,60,75,0
359.4678,359.57196,57,75,0
359.56155,359.6657,58,75,0
359.67612,359.7803,60,75,0
359.7803,359.88446,61,75,0
359.87405,359.9782,63,75,0
359.98862,360.0928,65,75,0
360.0928,360.19696,63,75,0
360.18655,360.2907,61,75,0
360.30112,360.4053,60,75,0
360.4053,360.50946,58,75,0
360.49905,360.6032,60,75,0
360.61362,360.7178,61,75,0
360.7178,360.82196,60,75,0
360.81155,360.9157,58,75,0
360.92612,361.0303,56,75,0
361.0303,361.13446,55,75,0
361.12405,361.2282,58,75,0
361.23862,361.3428,55,75,0
361.3428,361.44696,52,75,0
361.43655,361.5407,51,75,0
361.55112,361.6553,49,75,0
361.6553,361.75946,48,75,0
361.74905,361.8532,51,75,0
361.86362,361.9678,56,75,0
361.9678,362.07196,47,75,0
362.06155,362.1657,50,75,0
362.17612,362.2803,56,75,0
362.2803,362.38446,48,75,0
362.37405,362.4782,51,75,0
362.48862,362.5928,56,75,0
362.5928,362.69696,47,75,0
362.68655,362.7907,50,75,0
362.80112,362.9053,56,75,0
362.9053,363.00946,48,75,0
362.99905,363.1032,51,75,0
363.11362,363.2178,56,75,0
363.2178,363.32196,47,75,0
363.31155,363.4157,51,75,0
363.42612,363.5303,53,75,0
363.5303,363.63446,46,75,0
363.62405,363.7282,51,75,0
363.73862,363.8428,55,75,0
363.8428,363.94696,44,75,0
363.93655,364.0407,47,75,0
364.05112,364.1553,51,75,0
364.1553,364.25946,43,75,0
364.24905,364.3532,46,75,0
364.36362,364.4678,51,75,0
364.4678,364.57196,42,88,0
364.56155,364.6657,54,88,0
364.67612,364.7803,42,88,0
364.7803,364.88446,41,88,0
364.87405,364.9782,53,88,0
364.98862,365.0928,41,88,0
365.0928,365.4053,46,88,0
365.0928,365.4053,34,88,0
365.4053,365.50946,39,88,0
365.49905,365.6032,43,88,0
365.61362,365.7178,44,88,0
365.7178,365.82196,46,88,0
365.81155,365.9157,48,88,0
365.92612,366.0303,50,88,0
366.0303,366.13446,51,88,0
366.12405,366.2282,55,88,0
366.23862,366.3428,56,88,0
366.3428,366.44696,58,88,0
366.43655,366.5407,60,88,0
366.55112,366.6553,62,88,0
366.6553,366.9678,63,114,0
367.12405,367.1657,57,36,0
367.2803,367.32196,58,36,0
367.74905,367.7907,60,36,0
367.9053,367.94696,61,36,0
368.37405,368.4157,62,36,0
368.5303,368.57196,63,36,0
368.99905,369.0407,61,36,0
369.1553,369.19696,60,36,0
369.62405,369.6657,68,36,0
369.62405,369.6657,61,36,0
369.7803,369.82196,68,36,0
369.7803,369.82196,60,36,0
370.24905,370.2907,58,36,0
370.24905,370.2907,51,36,0
370.24905,370.2907,49,36,0
370.4053,370.44696,56,36,0
370.4053,370.44696,51,36,0
370.4053,370.44696,48,36,0
370.87405,370.9157,44,36,0
371.0303,371.49905,41,36,0
371.49905,371.6553,61,36,0
371.49905,371.6553,56,36,0
371.49905,371.6553,53,36,0
371.6553,372.12405,39,36,0
372.12405,372.2803,60,36,0
372.12405,372.2803,56,36,0
372.12405,372.2803,51,36,0
372.2803,372.74905,39,36,0
372.74905,372.9053,61,36,0
372.74905,372.9053,55,36,0
372.74905,372.9053,51,36,0
372.9053,372.94696,60,49,0
372.9053,372.94696,56,49,0
372.99905,373.1032,44,49,0
373.11362,373.2178,46,49,0
373.2178,373.32196,48,49,0
373.31155,373.4157,49,49,0
373.42612,373.5303,50,49,0
373.5303,373.63446,51,62,0
373.62405,373.7282,53,62,0
373.73862,373.8428,55,62,0
373.8428,373.94696,56,62,0
373.93655,374.0407,58,62,0
374.05112,374.1553,60,62,0
374.1553,374.25946,57,75,0
374.24905,374.3532,58,75,0
374.36362,374.4678,60,75,0
374.4678,374.57196,57,75,0
374.56155,374.6657,58,75,0
374.67612,374.7803,60,75,0
374.7803,374.88446,61,75,0
374.87405,374.9782,63,75,0
374.98862,375.0928,65,75,0
375.0928,375.19696,63,75,0
375.18655,375.2907,61,75,0
375.30112,375.4053,60,75,0
375.4053,375.50946,58,75,0
375.49905,375.6032,60,75,0
375.61362,375.7178,61,75,0
375.7178,375.82196,60,75,0
375.81155,375.9157,58,75,0
375.92612,376.0303,56,75,0
376.0303,376.13446,55,75,0
376.12405,376.2282,58,75,0
376.23862,376.3428,55,75,0
376.3428,376.44696,52,75,0
376.43655,376.5407,51,75,0
376.55112,376.6553,49,75,0
376.6553,376.75946,48,75,0
376.74905,376.8532,51,75,0
376.86362,376.9678,56,75,0
376.9678,377.07196,47,75,0
377.06155,377.1657,50,75,0
377.17612,377.2803,56,75,0
377.2803,377.38446,48,75,0
377.37405,377.4782,51,75,0
377.48862,377.5928,56,75,0
377.5928,377.69696,47,75,0
377.68655,377.7907,50,75,0
377.80112,377.9053,56,75,0
377.9053,378.00946,48,75,0
377.99905,378.1032,51,75,0
378.11362,378.2178,56,75,0
378.2178,378.32196,47,75,0
378.31155,378.4157,51,75,0
378.42612,378.5303,53,75,0
378.5303,378.63446,46,75,0
378.62405,378.7282,51,75,0
378.73862,378.8428,55,75,0
378.8428,378.94696,44,75,0
378.93655,379.0407,47,75,0
379.05112,379.1553,51,75,0
379.1553,379.25946,43,75,0
379.24905,379.3532,46,75,0
379.36362,379.4678,51,75,0
379.4678,379.57196,42,88,0
379.56155,379.6657,54,88,0
379.67612,379.7803,42,88,0
379.7803,379.88446,41,88,0
379.87405,379.9782,53,88,0
379.98862,380.0928,41,88,0
380.0928,380.4053,46,88,0
380.0928,380.4053,34,88,0
380.4053,380.50946,39,88,0
380.49905,380.6032,43,88,0
380.61362,380.7178,44,88,0
380.7178,380.82196,46,88,0
380.81155,380.9157,48,88,0
380.92612,381.0303,50,88,0
381.0303,381.13446,51,88,0
381.12405,381.2282,55,88,0
381.23862,381.3428,56,88,0
381.3428,381.44696,58,88,0
381.43655,381.5407,60,88,0
381.55112,381.6553,62,88,0
381.6553,381.9678,63,114,0
381.9678,382.5928,63,49,0
382.5928,383.2178,61,49,0
383.2178,383.5303,58,49,0
383.5303,383.8428,61,49,0
383.8428,383.99905,64,49,0
383.99905,384.1553,63,49,0
384.1553,384.4678,61,49,0
384.4678,385.0928,60,49,0
385.0928,385.4053,56,49,0
385.4053,385.7178,60,49,0
385.7178,385.87405,63,49,0
385.87405,386.0303,61,49,0
386.0303,386.3428,59,49,0
386.3428,386.6553,58,49,0
386.6553,386.9678,56,49,0
386.9678,387.2803,55,49,0
387.2803,387.5928,53,49,0
387.5928,387.9053,65,49,0
387.5928,387.9053,56,49,0
387.9053,388.2178,63,49,0
387.9053,388.2178,55,49,0
387.9053,388.2178,51,49,0
388.2178,388.32196,39,49,0
388.31155,388.4157,41,49,0
388.42612,388.5303,43,49,0
388.5303,388.63446,44,49,0
388.62405,388.7282,46,49,0
388.73862,388.8428,48,49,0
388.8428,388.94696,50,49,0
388.93655,389.0407,51,49,0
389.05112,389.1553,53,49,0
389.1553,389.25946,55,62,0
389.24905,389.3532,56,62,0
389.36362,389.4678,58,62,0
389.4678,389.57196,60,62,0
389.56155,389.6657,62,62,0
389.67612,389.7803,63,62,0
389.7803,390.0928,63,88,0
389.7803,390.0928,51,88,0
390.0928,390.7178,61,88,0
390.0928,390.7178,49,88,0
390.7178,391.0303,58,88,0
390.7178,391.0303,46,88,0
391.0303,391.3428,53,88,0
391.0303,391.3428,41,88,0
391.3428,391.58237,52,88,0
391.3428,391.58237,40,88,0
391.57196,391.6553,39,88,0
391.57196,391.6553,51,88,0
391.6553,391.9678,49,88,0
391.6553,391.9678,37,88,0
391.9678,392.5928,48,88,0
391.9678,392.5928,36,88,0
392.5928,392.63446,44,88,0
392.82196,392.86362,39,88,0
392.9053,392.94696,36,88,0
393.2178,393.25946,32,88,0
393.5303,393.8428,52,101,0
393.5303,393.8428,40,101,0
393.8428,394.1553,54,101,0
393.8428,394.1553,42,101,0
394.1553,394.4678,56,101,0
394.1553,394.4678,44,101,0
394.4678,394.7803,54,101,0
394.4678,394.7803,42,101,0
394.7803,395.0928,52,101,0
394.7803,395.0928,40,101,0
395.0928,395.13446,46,114,0
395.0928,395.13446,34,114,0
395.4053,395.50946,39,114,0
395.49905,395.6032,43,114,0
395.61362,395.7178,44,114,0
395.7178,395.82196,46,114,0
395.81155,395.9157,48,114,0
395.92612,396.0303,50,114,0
396.0303,396.13446,51,114,0
396.12405,396.2282,55,114,0
396.23862,396.3428,56,114,0
396.3428,396.44696,58,114,0
396.43655,396.5407,60,114,0
396.55112,396.6553,62,114,0
396.6553,396.9678,63,127,0
397.12405,397.1657,57,36,0
397.2803,397.32196,58,36,0
397.74905,397.7907,60,36,0
397.9053,397.94696,61,36,0
398.37405,398.4157,62,36,0
398.5303,398.57196,63,36,0
398.99905,399.0407,61,36,0
399.1553,399.19696,60,36,0
399.62405,399.6657,68,36,0
399.62405,399.6657,61,36,0
399.7803,399.82196,68,36,0
399.7803,399.82196,60,36,0
400.24905,400.2907,58,36,0
400.24905,400.2907,51,36,0
400.24905,400.2907,49,36,0
400.4053,400.44696,56,36,0
400.4053,400.44696,51,36,0
400.4053,400.44696,48,36,0
400.87405,400.9157,44,36,0
401.0303,401.49905,37,36,0
401.49905,401.6553,58,36,0
401.49905,401.6553,53,36,0
401.49905,401.6553,49,36,0
401.6553,402.12405,41,36,0
402.12405,402.2803,61,36,0
402.12405,402.2803,58,36,0
402.12405,402.2803,53,36,0
402.2803,402.74905,41,36,0
402.74905,402.9053,63,36,0
402.74905,402.9053,57,36,0
402.74905,402.9053,53,36,0
402.9053,402.94696,61,36,0
402.9053,402.94696,58,36,0
402.99905,403.1032,46,36,0
403.11362,403.2178,48,36,0
403.2178,403.32196,49,36,0
403.31155,403.4157,51,36,0
403.42612,403.5303,52,36,0
403.5303,403.63446,53,75,0
403.62405,403.7282,55,75,0
403.73862,403.8428,57,75,0
403.8428,403.94696,58,75,0
403.93655,404.0407,60,75,0
404.05112,404.1553,61,75,0
404.1553,404.25946,58,75,0
404.24905,404.3532,60,75,0
404.36362,404.4678,61,75,0
404.4678,404.57196,60,75,0
404.56155,404.6657,61,75,0
404.67612,404.7803,63,75,0
404.7803,404.88446,61,75,0
404.87405,404.9782,63,75,0
404.98862,405.0928,64,75,0
405.0928,405.19696,63,75,0
405.18655,405.2907,61,75,0
405.30112,405.4053,60,75,0
405.4053,405.50946,58,75,0
405.49905,405.6032,60,75,0
405.61362,405.7178,61,75,0
405.7178,405.82196,60,75,0
405.81155,405.9157,58,75,0
405.92612,406.0303,56,75,0
406.0303,406.13446,55,75,0
406.12405,406.2282,58,75,0
406.23862,406.3428,55,75,0
406.3428,406.44696,52,75,0
406.43655,406.5407,51,75,0
406.55112,406.6553,49,75,0
406.6553,406.75946,48,75,0
406.74905,406.8532,51,75,0
406.86362,406.9678,56,75,0
406.9678,407.07196,47,75,0
407.06155,407.1657,50,75,0
407.17612,407.2803,56,75,0
407.2803,407.38446,48,75,0
407.37405,407.4782,51,75,0
407.48862,407.5928,56,75,0
407.5928,407.69696,47,75,0
407.68655,407.7907,50,75,0
407.80112,407.9053,56,75,0
407.9053,408.00946,48,75,0
407.99905,408.1032,51,75,0
408.11362,408.2178,56,75,0
408.2178,408.32196,48,75,0
408.31155,408.4157,52,75,0
408.42612,408.5303,55,75,0
408.5303,408.63446,49,62,0
408.62405,408.7282,53,62,0
408.73862,408.8428,56,62,0
408.8428,408.94696,52,62,0
408.93655,409.0407,55,62,0
409.05112,409.1553,60,62,0
409.1553,409.25946,53,62,0
409.24905,409.3532,56,62,0
409.36362,409.4678,60,62,0
409.4678,409.57196,55,49,0
409.56155,409.6657,58,49,0
409.67612,409.7803,63,49,0
409.7803,409.88446,56,49,0
409.87405,409.9782,60,49,0
409.98862,410.0928,63,49,0
410.0928,410.19696,58,49,0
410.18655,410.2907,63,49,0
410.30112,410.4053,67,49,0
410.4053,411.0303,67,36,0
410.4053,411.0303,58,36,0
411.0303,411.3428,68,36,0
411.0303,411.3428,56,36,0
410.4053,411.3428,63,36,0
411.9678,412.5928,63,36,0
412.5928,413.2178,61,36,0
413.2178,413.5303,58,36,0
413.5303,413.8428,61,36,0
413.8428,413.99905,64,36,0
413.99905,414.1553,63,36,0
414.1553,414.4678,61,36,0
414.4678,415.0928,60,36,0
415.0928,415.4053,56,36,0
415.4053,415.7178,60,36,0
415.7178,415.87405,63,36,0
415.87405,416.0303,61,36,0
416.0303,416.3428,59,36,0
416.3428,416.6553,58,36,0
416.6553,416.9678,56,36,0
416.9678,417.2803,55,36,0
417.2803,417.5928,53,36,0
417.5928,417.9053,65,36,0
417.5928,417.9053,56,36,0
417.9053,418.2178,63,36,0
417.9053,418.2178,55,36,0
417.9053,418.2178,51,36,0
418.2178,418.32196,39,36,0
418.31155,418.4157,41,36,0
418.42612,418.5303,43,36,0
418.5303,418.63446,44,49,0
418.62405,418.7282,46,49,0
418.73862,418.8428,48,49,0
418.8428,418.94696,50,49,0
418.93655,419.0407,51,49,0
419.05112,419.1553,53,49,0
419.1553,419.25946,55,62,0
419.24905,419.3532,56,62,0
419.36362,419.4678,58,62,0
419.4678,419.57196,60,62,0
419.56155,419.6657,62,62,0
419.67612,419.7803,63,62,0
419.7803,420.0928,63,88,0
419.7803,420.0928,51,88,0
420.0928,420.7178,61,88,0
420.0928,420.7178,49,88,0
420.7178,421.0303,58,88,0
420.7178,421.0303,46,88,0
421.0303,421.3428,53,88,0
421.0303,421.3428,41,88,0
421.3428,421.58237,52,88,0
421.3428,421.58237,40,88,0
421.57196,421.6553,39,88,0
421.57196,421.6553,51,88,0
421.6553,421.9678,49,88,0
421.6553,421.9678,37,88,0
421.9678,422.5928,48,88,0
421.9678,422.5928,36,88,0
422.5928,422.63446,44,88,0
422.82196,422.86362,39,88,0
422.9053,422.94696,36,88,0
423.2178,423.25946,32,88,0
423.5303,423.8428,52,101,0
423.5303,423.8428,40,101,0
423.8428,424.1553,54,101,0
423.8428,424.1553,42,101,0
424.1553,424.4678,56,101,0
424.1553,424.4678,44,101,0
424.4678,424.7803,54,101,0
424.4678,424.7803,42,101,0
424.7803,425.0928,52,101,0
424.7803,425.0928,40,101,0
425.0928,425.13446,46,114,0
425.0928,425.13446,34,114,0
425.4053,425.50946,39,114,0
425.49905,425.6032,43,114,0
425.61362,425.7178,44,114,0
425.7178,425.82196,46,114,0
425.81155,425.9157,48,114,0
425.92612,426.0303,50,114,0
426.0303,426.13446,51,114,0
426.12405,426.2282,55,114,0
426.23862,426.3428,56,114,0
426.3428,426.44696,58,114,0
426.43655,426.5407,60,114,0
426.55112,426.6553,62,114,0
426.6553,426.9678,63,127,0
427.12405,427.1657,57,36,0
427.2803,427.32196,58,36,0
427.74905,427.7907,60,36,0
427.9053,427.94696,61,36,0
428.37405,428.4157,62,36,0
428.5303,428.57196,63,36,0
428.99905,429.0407,61,36,0
429.1553,429.19696,60,36,0
429.62405,429.6657,68,36,0
429.62405,429.6657,61,36,0
429.7803,429.82196,68,36,0
429.7803,429.82196,60,36,0
430.24905,430.2907,58,36,0
430.24905,430.2907,51,36,0
430.24905,430.2907,49,36,0
430.4053,430.44696,56,36,0
430.4053,430.44696,51,36,0
430.4053,430.44696,48,36,0
430.87405,430.9157,44,36,0
431.0303,431.49905,37,36,0
431.49905,431.6553,58,36,0
431.49905,431.6553,53,36,0
431.49905,431.6553,49,36,0
431.6553,432.12405,41,36,0
432.12405,432.2803,61,36,0
432.12405,432.2803,58,36,0
432.12405,432.2803,53,36,0
432.2803,432.74905,41,36,0
432.74905,432.9053,63,36,0
432.74905,432.9053,57,36,0
432.74905,432.9053,53,36,0
432.9053,432.94696,61,36,0
432.9053,432.94696,58,36,0
432.99905,433.1032,46,36,0
433.11362,433.2178,48,36,0
433.2178,433.32196,49,36,0
433.31155,433.4157,51,36,0
433.42612,433.5303,52,36,0
433.5303,433.63446,53,75,0
433.62405,433.7282,55,75,0
433.73862,433.8428,57,75,0
433.8428,433.94696,58,75,0
433.93655,434.0407,60,75,0
434.05112,434.1553,61,75,0
434.1553,434.25946,58,75,0
434.24905,434.3532,60,75,0
434.36362,434.4678,61,75,0
434.4678,434.57196,60,75,0
434.56155,434.6657,61,75,0
434.67612,434.7803,63,75,0
434.7803,434.88446,61,75,0
434.87405,434.9782,63,75,0
434.98862,435.0928,64,75,0
435.0928,435.19696,63,75,0
435.18655,435.2907,61,75,0
435.30112,435.4053,60,75,0
435.4053,435.50946,58,75,0
435.49905,435.6032,60,75,0
435.61362,435.7178,61,75,0
435.7178,435.82196,60,75,0
435.81155,435.9157,58,75,0
435.92612,436.0303,56,75,0
436.0303,436.13446,55,75,0
436.12405,436.2282,58,75,0
436.23862,436.3428,55,75,0
436.3428,436.44696,52,75,0
436.43655,436.5407,51,75,0
436.55112,436.6553,49,75,0
436.6553,436.75946,48,75,0
436.74905,436.8532,51,75,0
436.86362,436.9678,56,75,0
436.9678,437.07196,47,75,0
437.06155,437.1657,50,75,0
437.17612,437.2803,56,75,0
437.2803,437.38446,48,75,0
437.37405,437.4782,51,75,0
437.48862,437.5928,56,75,0
437.5928,437.69696,47,75,0
437.68655,437.7907,50,75,0
437.80112,437.9053,56,75,0
437.9053,438.00946,48,75,0
437.99905,438.1032,51,75,0
438.11362,438.2178,56,75,0
438.2178,438.32196,48,75,0
438.31155,438.4157,52,75,0
438.42612,438.5303,55,75,0
438.5303,438.63446,49,62,0
438.62405,438.7282,53,62,0
438.73862,438.8428,56,62,0
438.8428,438.94696,52,62,0
438.93655,439.0407,55,62,0
439.05112,439.1553,60,62,0
439.1553,439.25946,53,62,0
439.24905,439.3532,56,62,0
439.36362,439.4678,60,62,0
439.4678,439.57196,55,49,0
439.56155,439.6657,58,49,0
439.67612,439.7803,63,49,0
439.7803,439.88446,56,49,0
439.87405,439.9782,60,49,0
439.98862,440.0928,63,49,0
440.0928,440.19696,58,49,0
440.18655,440.2907,63,49,0
440.30112,440.4053,67,49,0
440.4053,441.0303,67,36,0
440.4053,441.0303,58,36,0
441.0303,441.3428,68,36,0
441.0303,441.3428,56,36,0
440.4053,441.3428,63,36,0
447.9053,448.5303,60,62,0
447.9053,448.5303,56,62,0
448.5303,448.8428,62,75,0
448.5303,448.8428,60,75,0
448.5303,448.8428,56,75,0
449.7803,449.8428,64,88,0
449.7803,449.8428,60,88,0
449.7803,449.8428,55,88,0
450.4053,451.3428,65,49,0
450.4053,451.3428,62,49,0
450.4053,451.3428,55,49,0
451.3428,451.6553,62,49,0
451.3428,451.6553,55,49,0
451.6553,451.9678,60,49,0
451.6553,451.9678,52,49,0
451.6553,451.9678,48,49,0
452.9053,452.94696,55,36,0
452.9053,452.94696,52,36,0
453.11362,453.1553,60,36,0
453.11362,453.1553,55,36,0
453.31155,453.3532,64,36,0
453.31155,453.3532,60,36,0
453.5303,453.73862,64,36,0
453.5303,453.73862,60,36,0
453.73862,453.94696,65,36,0
453.73862,453.94696,62,36,0
453.93655,453.94696,62,36,0
453.93655,453.9782,55,36,0
454.1553,454.19696,62,36,0
454.1553,454.19696,55,36,0
454.36362,454.4053,62,36,0
454.36362,454.4053,55,36,0
454.56155,454.6032,62,36,0
454.56155,454.6032,55,36,0
454.7803,454.82196,65,36,0
454.7803,454.82196,62,36,0
454.98862,455.0303,64,36,0
454.98862,455.0303,60,36,0
455.18655,455.2282,62,36,0
455.18655,455.2282,55,36,0
455.4053,455.61362,62,36,0
455.4053,455.61362,55,36,0
455.61362,455.82196,64,36,0
455.61362,455.82196,60,36,0
455.81155,455.82196,60,36,0
455.81155,455.8532,52,36,0
456.0303,456.07196,60,36,0
456.0303,456.07196,52,36,0
456.23862,456.2803,60,36,0
456.23862,456.2803,52,36,0
456.43655,456.4782,62,36,0
456.43655,456.4782,55,36,0
456.6553,456.69696,64,36,0
456.6553,456.69696,60,36,0
456.86362,456.9053,65,36,0
456.86362,456.9053,62,36,0
457.06155,457.1032,67,36,0
457.06155,457.1032,64,36,0
457.2803,457.48862,64,36,0
457.48862,457.69696,65,36,0
457.48862,457.69696,62,36,0
457.68655,457.69696,62,36,0
457.68655,457.89487,55,36,0
457.9053,458.11362,62,36,0
457.9053,458.11362,55,36,0
458.11362,458.32196,64,36,0
458.11362,458.32196,60,36,0
458.31155,458.32196,60,36,0
458.31155,458.51987,52,36,0
458.5303,458.73862,60,36,0
458.5303,458.73862,52,36,0
458.73862,458.94696,64,36,0
458.73862,458.94696,60,36,0
458.93655,459.14487,55,36,0
458.93655,459.14487,62,36,0
459.1553,459.36362,60,36,0
459.1553,459.36362,52,36,0
459.36362,459.57196,55,36,0
459.56155,459.57196,55,36,0
459.7803,459.82196,55,36,0
459.98862,460.0303,55,36,0
460.18655,460.2282,55,36,0
460.4053,460.44696,60,36,0
460.4053,460.44696,55,36,0
460.4053,460.44696,52,36,0
460.61362,460.6553,62,36,0
460.61362,460.6553,55,36,0
460.81155,460.8532,64,36,0
460.81155,460.8532,60,36,0
461.0303,461.23862,67,36,0
461.0303,461.23862,64,36,0
461.0303,461.23862,60,36,0
461.23862,461.44696,67,36,0
461.43655,461.44696,67,36,0
461.23862,461.44696,62,36,0
461.43655,461.44696,62,36,0
461.23862,461.44696,65,36,0
461.43655,461.4782,55,36,0
461.6553,461.69696,67,36,0
461.6553,461.69696,62,36,0
461.6553,461.69696,55,36,0
461.86362,461.9053,67,36,0
461.86362,461.9053,62,36,0
461.86362,461.9053,55,36,0
462.06155,462.1032,67,36,0
462.06155,462.1032,62,36,0
462.06155,462.1032,55,36,0
462.2803,462.32196,67,36,0
462.2803,462.32196,65,36,0
462.2803,462.32196,62,36,0
462.48862,462.5303,67,36,0
462.48862,462.5303,64,36,0
462.48862,462.5303,60,36,0
462.68655,462.7282,67,36,0
462.68655,462.7282,62,36,0
462.68655,462.7282,55,36,0
462.9053,463.11362,67,36,0
462.9053,463.11362,62,36,0
462.9053,463.11362,55,36,0
463.11362,463.32196,67,36,0
463.11362,463.32196,60,36,0
463.31155,463.32196,60,36,0
463.11362,463.32196,64,36,0
463.31155,463.3532,52,36,0
463.5303,463.57196,60,36,0
463.5303,463.57196,52,36,0
463.73862,463.7803,60,36,0
463.73862,463.7803,52,36,0
463.93655,463.9782,62,36,0
463.93655,463.9782,55,36,0
464.1553,464.19696,64,36,0
464.1553,464.19696,60,36,0
464.36362,464.4053,66,36,0
464.36362,464.4053,62,36,0
464.56155,464.6032,67,36,0
464.56155,464.6032,64,36,0
464.7803,464.98862,67,36,0
464.7803,464.98862,61,36,0
464.98862,465.19696,66,36,0
464.98862,465.19696,62,36,0
465.18655,465.39487,60,36,0
465.18655,465.39487,64,36,0
465.4053,465.61362,62,36,0
465.4053,465.61362,59,36,0
465.61362,465.82196,60,36,0
465.61362,465.82196,57,36,0
465.81155,466.01987,55,36,0
465.81155,466.01987,59,36,0
466.0303,466.23862,57,36,0
466.0303,466.23862,50,36,0
466.23862,466.44696,59,36,0
466.23862,466.44696,55,36,0
466.43655,466.64487,50,36,0
466.43655,466.64487,57,36,0
466.6553,467.2803,55,36,0
466.6553,467.2803,47,36,0
466.6553,467.2803,43,36,0
467.9053,467.94696,55,36,0
468.11362,468.1553,63,36,0
468.11362,468.1553,55,36,0
468.31155,468.3532,67,36,0
468.31155,468.3532,55,36,0
468.5303,468.73862,67,36,0
468.5303,468.73862,55,36,0
468.73862,468.94696,65,36,0
468.93655,468.94696,65,36,0
468.73862,468.94696,55,36,0
468.93655,468.94696,55,36,0
469.1553,469.19696,65,36,0
469.1553,469.19696,55,36,0
469.36362,469.4053,65,36,0
469.36362,469.4053,55,36,0
469.56155,469.6032,65,36,0
469.56155,469.6032,55,36,0
469.7803,469.82196,68,36,0
469.7803,469.82196,55,36,0
469.98862,470.0303,67,36,0
469.98862,470.0303,55,36,0
470.18655,470.2282,65,36,0
470.18655,470.2282,55,36,0
470.4053,470.61362,65,36,0
470.4053,470.61362,55,36,0
470.61362,470.82196,63,36,0
470.81155,470.82196,63,36,0
470.61362,470.82196,55,36,0
470.81155,470.82196,55,36,0
471.0303,471.07196,63,36,0
471.0303,471.07196,55,36,0
471.23862,471.2803,63,36,0
471.23862,471.2803,55,36,0
471.43655,471.4782,65,36,0
471.43655,471.4782,55,36,0
471.6553,471.69696,67,36,0
471.6553,471.69696,55,36,0
471.86362,471.9053,65,36,0
471.86362,471.9053,55,36,0
472.06155,472.1032,63,36,0
472.06155,472.1032,55,36,0
472.2803,472.48862,63,36,0
472.2803,472.48862,55,36,0
472.48862,472.69696,62,36,0
472.68655,472.69696,62,36,0
472.48862,472.69696,56,36,0
472.68655,472.69696,56,36,0
472.9053,472.94696,62,36,0
472.9053,472.94696,56,36,0
473.11362,473.1553,63,36,0
473.11362,473.1553,55,36,0
473.31155,473.3532,63,36,0
473.31155,473.3532,55,36,0
473.5303,473.57196,63,36,0
473.5303,473.57196,55,36,0
473.73862,473.7803,67,36,0
473.73862,473.7803,55,36,0
473.93655,473.9782,65,36,0
473.93655,473.9782,55,36,0
474.1553,474.36362,63,36,0
474.1553,474.36362,60,36,0
474.36362,474.57196,55,36,0
474.56155,474.57196,55,36,0
474.7803,474.82196,55,36,0
474.98862,475.0303,55,36,0
475.18655,475.2282,55,36,0
475.4053,475.44696,60,36,0
475.4053,475.44696,55,36,0
475.4053,475.44696,52,36,0
475.61362,475.6553,62,36,0
475.61362,475.6553,55,36,0
475.81155,475.8532,64,36,0
475.81155,475.8532,60,36,0
476.0303,476.23862,67,36,0
476.0303,476.23862,64,36,0
476.0303,476.23862,60,36,0
476.23862,476.44696,67,36,0
476.43655,476.44696,67,36,0
476.23862,476.44696,62,36,0
476.43655,476.44696,62,36,0
476.23862,476.44696,65,36,0
476.43655,476.4782,55,36,0
476.6553,476.69696,67,49,0
476.6553,476.69696,62,49,0
476.6553,476.69696,55,49,0
476.86362,476.9053,67,49,0
476.86362,476.9053,62,49,0
476.86362,476.9053,55,49,0
477.06155,477.1032,67,49,0
477.06155,477.1032,62,49,0
477.06155,477.1032,55,49,0
477.2803,477.32196,67,62,0
477.2803,477.32196,62,62,0
477.2803,477.32196,55,62,0
477.48862,477.5303,67,62,0
477.48862,477.5303,64,62,0
477.48862,477.5303,60,62,0
477.68655,477.7282,67,62,0
477.68655,477.7282,65,62,0
477.68655,477.7282,62,62,0
477.9053,478.11362,69,75,0
477.9053,478.11362,65,75,0
478.11362,478.32196,67,36,0
478.11362,478.32196,64,36,0
478.31155,478.32196,64,36,0
478.31155,478.3532,60,36,0
478.5303,478.57196,60,36,0
478.5303,478.57196,52,36,0
478.73862,478.7803,60,36,0
478.73862,478.7803,52,36,0
478.93655,478.9782,62,36,0
478.93655,478.9782,55,36,0
479.1553,479.19696,64,36,0
479.1553,479.19696,60,36,0
479.36362,479.4053,66,36,0
479.36362,479.4053,62,36,0
479.56155,479.6032,67,36,0
479.56155,479.6032,64,36,0
479.7803,479.98862,67,36,0
479.7803,479.98862,61,36,0
479.98862,480.19696,66,36,0
479.98862,480.19696,62,36,0
480.18655,480.39487,60,36,0
480.18655,480.39487,64,36,0
480.4053,480.61362,62,36,0
480.4053,480.61362,59,36,0
480.61362,480.82196,60,36,0
480.61362,480.82196,57,36,0
480.81155,481.01987,55,36,0
480.81155,481.01987,59,36,0
481.0303,481.23862,57,36,0
481.0303,481.23862,50,36,0
481.23862,481.44696,59,36,0
481.23862,481.44696,55,36,0
481.43655,481.64487,50,36,0
481.43655,481.64487,57,36,0
481.6553,482.2803,55,36,0
481.6553,482.2803,47,36,0
481.6553,482.2803,43,36,0
482.9053,483.11362,55,62,0
482.9053,483.11362,43,62,0
483.11362,483.32196,50,62,0
483.11362,483.32196,38,62,0
483.31155,483.51987,35,62,0
483.31155,483.51987,47,62,0
483.5303,483.73862,45,75,0
483.5303,483.73862,33,75,0
483.73862,483.94696,43,75,0
483.93655,483.94696,43,75,0
483.73862,483.94696,31,75,0
483.93655,483.94696,31,75,0
484.1553,484.36362,43,75,0
484.1553,484.36362,31,75,0
484.36362,484.57196,43,75,0
484.36362,484.57196,31,75,0
484.56155,484.76987,33,75,0
484.56155,484.76987,45,75,0
484.7803,484.98862,47,75,0
484.7803,484.98862,35,75,0
484.98862,485.19696,48,75,0
484.98862,485.19696,36,75,0
485.18655,485.39487,38,75,0
485.18655,485.39487,50,75,0
485.4053,485.61362,50,101,0
485.4053,485.61362,38,93,0
485.61362,485.82196,51,75,0
485.81155,485.82196,51,75,0
485.61362,485.82196,39,75,0
485.81155,485.82196,39,75,0
486.0303,486.23862,51,75,0
486.0303,486.23862,39,75,0
486.23862,486.44696,51,75,0
486.23862,486.44696,39,75,0
486.43655,486.64487,41,75,0
486.43655,486.64487,53,75,0
486.6553,486.86362,55,75,0
486.6553,486.86362,43,75,0
486.86362,487.07196,57,75,0
486.86362,487.07196,45,75,0
487.06155,487.26987,47,75,0
487.06155,487.26987,59,75,0
487.2803,487.48862,59,88,0
487.2803,487.48862,47,88,0
487.48862,487.69696,60,88,0
487.68655,487.69696,60,88,0
487.48862,487.69696,48,88,0
487.68655,487.69696,48,88,0
487.9053,488.11362,58,114,0
487.9053,488.11362,46,106,0
488.11362,488.32196,56,88,0
488.31155,488.32196,56,88,0
488.11362,488.32196,44,88,0
488.31155,488.32196,44,88,0
488.5303,488.73862,56,114,0
488.5303,488.73862,44,106,0
488.73862,488.94696,50,88,0
488.93655,488.94696,50,88,0
488.73862,488.94696,38,88,0
488.93655,488.94696,38,88,0
489.1553,489.36362,43,101,0
489.1553,489.36362,31,101,0
489.36362,489.57196,43,101,0
489.56155,489.57196,43,101,0
489.7803,489.98862,43,101,0
489.7803,489.98862,31,101,0
489.98862,490.19696,43,101,0
490.18655,490.19696,43,101,0
490.4053,490.61362,43,101,0
490.61362,490.82196,38,101,0
490.81155,491.01987,35,101,0
491.0303,491.23862,46,101,0
491.0303,491.23862,34,101,0
491.23862,491.2803,45,101,0
491.23862,491.2803,33,101,0
491.43655,491.4782,45,101,0
491.43655,491.4782,33,101,0
491.6553,491.86362,45,101,0
491.6553,491.86362,33,101,0
491.86362,492.07196,47,101,0
491.86362,492.07196,35,101,0
492.06155,492.26987,37,101,0
492.06155,492.26987,49,101,0
492.2803,492.48862,50,101,0
492.2803,492.48862,38,101,0
492.48862,492.69696,52,101,0
492.48862,492.69696,40,101,0
492.68655,492.89487,41,101,0
492.68655,492.89487,53,101,0
492.9053,493.11362,56,75,0
492.9053,493.11362,44,75,0
493.11362,493.32196,55,75,0
493.31155,493.32196,55,75,0
493.11362,493.32196,43,75,0
493.31155,493.32196,43,75,0
493.5303,493.57196,55,62,0
493.5303,493.57196,43,62,0
493.73862,493.7803,53,62,0
493.73862,493.7803,41,62,0
493.93655,493.9782,52,62,0
493.93655,493.9782,40,62,0
494.1553,494.19696,50,49,0
494.1553,494.19696,38,49,0
494.36362,494.4053,48,49,0
494.36362,494.4053,36,49,0
494.56155,494.6032,47,49,0
494.56155,494.6032,35,49,0
494.7803,494.98862,47,62,0
494.7803,494.98862,35,54,0
494.98862,495.19696,48,36,0
495.18655,495.19696,48,36,0
494.98862,495.19696,36,36,0
495.18655,495.19696,36,36,0
495.4053,495.61362,48,62,0
495.4053,495.61362,36,54,0
495.61362,495.82196,57,36,0
495.81155,495.82196,57,36,0
495.61362,495.82196,45,36,0
495.81155,495.82196,45,36,0
496.0303,496.23862,57,62,0
496.0303,496.23862,43,54,0
496.23862,496.44696,50,36,0
496.43655,496.44696,50,36,0
496.23862,496.44696,38,36,0
496.43655,496.44696,38,36,0
496.6553,497.2803,43,36,0
497.9053,497.94696,55,36,0
497.9053,497.94696,52,36,0
498.11362,498.1553,60,36,0
498.11362,498.1553,55,36,0
498.31155,498.3532,64,36,0
498.31155,498.3532,60,36,0
498.5303,498.73862,64,36,0
498.5303,498.73862,60,36,0
498.73862,498.94696,65,36,0
498.73862,498.94696,62,36,0
498.93655,498.94696,62,36,0
498.93655,498.9782,55,36,0
499.1553,499.19696,62,36,0
499.1553,499.19696,55,36,0
499.36362,499.4053,62,36,0
499.36362,499.4053,55,36,0
499.56155,499.6032,62,36,0
499.56155,499.6032,55,36,0
499.7803,499.98862,65,36,0
499.7803,499.98862,62,36,0
499.98862,500.19696,64,36,0
499.98862,500.19696,60,36,0
500.18655,500.39487,55,36,0
500.18655,500.39487,62,36,0
500.4053,500.61362,62,36,0
500.4053,500.61362,55,36,0
500.61362,500.82196,64,36,0
500.61362,500.82196,60,36,0
500.81155,500.82196,60,36,0
500.81155,500.8532,52,36,0
501.0303,501.07196,60,36,0
501.0303,501.07196,52,36,0
501.23862,501.2803,60,36,0
501.23862,501.2803,52,36,0
501.43655,501.4782,62,36,0
501.43655,501.4782,55,36,0
501.6553,501.69696,67,36,0
501.6553,501.69696,63,36,0
501.6553,501.69696,60,36,0
501.86362,501.9053,67,36,0
501.86362,501.9053,65,36,0
501.86362,501.9053,62,36,0
502.06155,502.1032,67,36,0
502.06155,502.1032,63,36,0
502.2803,502.48862,63,36,0
502.48862,502.69696,65,36,0
502.68655,502.69696,65,36,0
502.68655,502.89487,56,36,0
502.9053,503.13257,65,36,0
502.9053,503.13257,56,36,0
503.13257,503.35983,65,36,0
503.34848,503.35983,65,36,0
503.13257,503.35983,56,36,0
503.34848,503.35983,56,36,0
503.5871,503.8371,65,36,0
503.5871,503.8371,56,36,0
503.8371,504.0871,65,36,0
503.8371,504.0871,56,36,0
504.07462,504.0871,56,36,0
504.07462,504.32462,66,36,0
504.3371,504.5644,66,36,0
504.3371,504.5644,56,36,0
504.5644,504.79166,65,36,0
504.7803,504.79166,65,36,0
504.5644,504.79166,61,36,0
504.7803,504.79166,61,36,0
505.01892,505.26892,65,36,0
505.01892,505.26892,61,36,0
505.26892,505.51892,65,36,0
505.50644,505.51892,65,36,0
505.26892,505.51892,61,36,0
505.50644,505.51892,61,36,0
505.76892,505.8144,65,36,0
505.76892,505.8144,60,36,0
505.99622,506.04166,65,36,0
505.99622,506.04166,60,36,0
506.2121,506.25757,65,36,0
506.2121,506.25757,60,36,0
506.45074,506.678,65,36,0
506.45074,506.678,60,36,0
506.678,506.9053,65,36,0
506.89392,506.9053,65,36,0
506.678,506.9053,59,36,0
506.89392,506.9053,59,36,0
507.13257,507.18256,65,36,0
507.13257,507.18256,59,36,0
507.38257,507.43256,67,36,0
507.38257,507.43256,62,36,0
507.38257,507.43256,59,36,0
507.62006,507.67007,67,36,0
507.62006,507.67007,64,36,0
507.62006,507.67007,60,36,0
507.88257,507.9381,67,36,0
507.88257,507.9381,65,36,0
507.88257,507.9381,62,36,0
508.16034,508.2159,67,36,0
508.16034,508.2159,64,36,0
508.42422,508.4798,69,36,0
508.42422,508.4798,65,36,0
508.7159,508.92422,65,36,0
508.7159,508.92422,62,36,0
508.92422,509.13257,64,36,0
508.92422,509.13257,60,36,0
509.12216,509.13257,60,36,0
509.12216,509.16382,57,36,0
509.3409,509.38257,60,36,0
509.3409,509.38257,52,36,0
509.54922,509.5909,60,36,0
509.54922,509.5909,52,36,0
509.74716,509.78882,60,36,0
509.74716,509.78882,52,36,0
512.4659,513.0909,60,36,0
512.4659,513.0909,52,36,0
512.4659,513.0909,48,36,0
513.7159,513.92426,55,75,0
513.7159,513.92426,43,75,0
513.92426,514.13257,50,75,0
513.92426,514.13257,38,75,0
514.12213,514.3305,35,75,0
514.12213,514.3305,47,75,0
514.3409,514.54926,45,75,0
514.3409,514.54926,33,75,0
514.54926,514.75757,43,75,0
514.74713,514.75757,43,75,0
514.54926,514.75757,31,75,0
514.74713,514.75757,31,75,0
514.9659,515.17426,43,75,0
514.9659,515.17426,31,75,0
515.17426,515.38257,43,75,0
515.17426,515.38257,31,75,0
515.37213,515.5805,33,75,0
515.37213,515.5805,45,75,0
515.5909,515.79926,47,75,0
515.5909,515.79926,35,75,0
515.79926,516.00757,48,75,0
515.79926,516.00757,36,75,0
515.99713,516.2055,38,75,0
515.99713,516.2055,50,75,0
516.2159,516.42426,50,101,0
516.2159,516.42426,38,93,0
516.42426,516.63257,51,75,0
516.62213,516.63257,51,75,0
516.42426,516.63257,39,75,0
516.62213,516.63257,39,75,0
516.8409,517.04926,51,75,0
516.8409,517.04926,39,75,0
517.04926,517.25757,51,75,0
517.04926,517.25757,39,75,0
517.24713,517.4555,41,75,0
517.24713,517.4555,53,75,0
517.4659,517.67426,55,75,0
517.4659,517.67426,43,75,0
517.67426,517.88257,57,75,0
517.67426,517.88257,45,75,0
517.87213,518.0805,47,75,0
517.87213,518.0805,59,75,0
518.0909,518.29926,59,88,0
518.0909,518.29926,47,88,0
518.29926,518.50757,60,88,0
518.49713,518.50757,60,88,0
518.29926,518.50757,48,88,0
518.49713,518.50757,48,88,0
518.7159,518.92426,58,114,0
518.7159,518.92426,46,106,0
518.92426,519.13257,56,88,0
519.12213,519.13257,56,88,0
518.92426,519.13257,44,88,0
519.12213,519.13257,44,88,0
519.3409,519.54926,56,114,0
519.3409,519.54926,44,106,0
519.54926,519.75757,50,88,0
519.74713,519.75757,50,88,0
519.54926,519.75757,38,88,0
519.74713,519.75757,38,88,0
519.9659,520.17426,43,101,0
519.9659,520.17426,31,101,0
520.17426,520.38257,43,101,0
520.37213,520.38257,43,101,0
520.5909,520.79926,43,101,0
520.5909,520.79926,31,101,0
520.79926,521.00757,43,101,0
520.99713,521.00757,43,101,0
521.2159,521.42426,43,101,0
521.42426,521.63257,38,101,0
521.62213,521.8305,35,101,0
521.8409,522.04926,46,101,0
521.8409,522.04926,34,101,0
522.04926,522.0909,45,101,0
522.04926,522.0909,33,101,0
522.24713,522.2888,45,101,0
522.24713,522.2888,33,101,0
522.4659,522.67426,45,101,0
522.4659,522.67426,33,101,0
522.67426,522.88257,47,101,0
522.67426,522.88257,35,101,0
522.87213,523.0805,37,101,0
522.87213,523.0805,49,101,0
523.0909,523.29926,50,101,0
523.0909,523.29926,38,101,0
523.29926,523.50757,52,101,0
523.29926,523.50757,40,101,0
523.49713,523.7055,41,101,0
523.49713,523.7055,53,101,0
523.7159,523.92426,56,75,0
523.7159,523.92426,44,75,0
523.92426,524.13257,55,75,0
524.12213,524.13257,55,75,0
523.92426,524.13257,43,75,0
524.12213,524.13257,43,75,0
524.3409,524.38257,55,62,0
524.3409,524.38257,43,62,0
524.54926,524.5909,53,62,0
524.54926,524.5909,41,62,0
524.74713,524.7888,52,62,0
524.74713,524.7888,40,62,0
524.9659,525.00757,50,49,0
524.9659,525.00757,38,49,0
525.17426,525.2159,48,49,0
525.17426,525.2159,36,49,0
525.37213,525.4138,47,49,0
525.37213,525.4138,35,49,0
525.5909,525.79926,47,62,0
525.5909,525.79926,35,54,0
525.79926,526.00757,48,36,0
525.99713,526.00757,48,36,0
525.79926,526.00757,36,36,0
525.99713,526.00757,36,36,0
526.2159,526.42426,48,62,0
526.2159,526.42426,36,54,0
526.42426,526.63257,57,36,0
526.62213,526.63257,57,36,0
526.42426,526.63257,45,36,0
526.62213,526.63257,45,36,0
526.8409,527.04926,57,62,0
526.8409,527.04926,43,54,0
527.04926,527.25757,50,36,0
527.24713,527.25757,50,36,0
527.04926,527.25757,38,36,0
527.24713,527.25757,38,36,0
527.4659,528.0909,43,36,0
528.7159,528.75757,55,36,0
528.7159,528.75757,52,36,0
528.92426,528.9659,60,36,0
528.92426,528.9659,55,36,0
529.12213,529.1638,64,36,0
529.12213,529.1638,60,36,0
529.3409,529.54926,64,36,0
529.3409,529.54926,60,36,0
529.54926,529.75757,65,36,0
529.54926,529.75757,62,36,0
529.74713,529.75757,62,36,0
529.74713,529.7888,55,36,0
529.9659,530.00757,62,36,0
529.9659,530.00757,55,36,0
530.17426,530.2159,62,36,0
530.17426,530.2159,55,36,0
530.37213,530.4138,62,36,0
530.37213,530.4138,55,36,0
530.5909,530.79926,65,36,0
530.5909,530.79926,62,36,0
530.79926,531.00757,64,36,0
530.79926,531.00757,60,36,0
530.99713,531.2055,55,36,0
530.99713,531.2055,62,36,0
531.2159,531.42426,62,36,0
531.2159,531.42426,55,36,0
531.42426,531.63257,64,36,0
531.42426,531.63257,60,36,0
531.62213,531.63257,60,36,0
531.62213,531.6638,52,36,0
531.8409,531.88257,60,36,0
531.8409,531.88257,52,36,0
532.04926,532.0909,60,36,0
532.04926,532.0909,52,36,0
532.24713,532.2888,62,36,0
532.24713,532.2888,55,36,0
532.4659,532.50757,67,36,0
532.4659,532.50757,63,36,0
532.4659,532.50757,60,36,0
532.67426,532.7159,67,36,0
532.67426,532.7159,65,36,0
532.67426,532.7159,62,36,0
532.87213,532.9138,67,36,0
532.87213,532.9138,63,36,0
533.0909,533.29926,63,36,0
533.29926,533.50757,65,36,0
533.49713,533.50757,65,36,0
533.49713,533.7055,56,36,0
533.7159,533.9432,65,36,0
533.7159,533.9432,56,36,0
533.9432,534.1705,65,36,0
534.15906,534.1705,65,36,0
533.9432,534.1705,56,36,0
534.15906,534.1705,56,36,0
534.3977,534.6477,65,36,0
534.3977,534.6477,56,36,0
534.6477,534.8977,65,36,0
534.6477,534.8977,56,36,0
534.8852,534.8977,56,36,0
534.8852,535.1352,66,36,0
535.1477,535.375,66,36,0
535.1477,535.375,56,36,0
535.375,535.60223,65,36,0
535.5909,535.60223,65,36,0
535.375,535.60223,61,36,0
535.5909,535.60223,61,36,0
535.8295,536.0795,65,36,0
535.8295,536.0795,61,36,0
536.0795,536.3295,65,36,0
536.317,536.3295,65,36,0
536.0795,536.3295,61,36,0
536.317,536.3295,61,36,0
536.5795,536.625,65,36,0
536.5795,536.625,60,36,0
536.8068,536.85223,65,36,0
536.8068,536.85223,60,36,0
537.0227,537.0682,65,36,0
537.0227,537.0682,60,36,0
537.26135,537.48865,65,36,0
537.26135,537.48865,60,36,0
537.48865,537.7159,65,36,0
537.7045,537.7159,65,36,0
537.48865,537.7159,59,36,0
537.7045,537.7159,59,36,0
537.9432,537.99316,65,36,0
537.9432,537.99316,59,36,0
538.1932,538.24316,67,36,0
538.1932,538.24316,62,36,0
538.1932,538.24316,59,36,0
538.43066,538.48065,67,36,0
538.43066,538.48065,64,36,0
538.43066,538.48065,60,36,0
538.6932,538.7487,67,36,0
538.6932,538.7487,65,36,0
538.6932,538.7487,62,36,0
538.97095,539.0265,67,36,0
538.97095,539.0265,64,36,0
539.23486,539.2904,69,36,0
539.23486,539.2904,65,36,0
539.5265,539.73486,65,36,0
539.5265,539.73486,62,36,0
539.73486,539.9432,64,36,0
539.73486,539.9432,60,36,0
539.93274,539.9432,60,36,0
539.93274,539.9744,57,36,0
540.1515,540.1932,60,36,0
540.1515,540.1932,52,36,0
540.35986,540.4015,60,36,0
540.35986,540.4015,52,36,0
540.55774,540.5994,60,36,0
540.55774,540.5994,52,36,0
543.2765,544.5265,60,36,0
543.2765,544.5265,52,36,0
543.2765,544.5265,48,36,0
544.5265,544.73486,60,36,0
544.73486,544.9432,55,36,0
544.93274,545.1411,52,36,0
545.1515,546.4015,48,36,0
546.4015,546.60986,48,36,0
546.60986,546.8182,48,36,0
546.80774,546.8182,48,36,0
547.0265,548.2765,48,36,0
548.2765,548.3182,48,36,0
548.48486,548.5265,47,36,0
548.68274,548.7244,45,36,0
548.9015,549.5265,50,62,0
549.5265,550.1515,55,62,0
550.1515,550.62024,43,62,0
550.62024,550.7765,50,36,0
550.7765,552.0265,48,36,0
552.0265,552.0682,48,36,0
552.23486,552.2765,43,36,0
552.43274,552.4744,40,36,0
552.6515,553.9015,36,36,0
553.9015,554.10986,36,36,0
554.10986,554.3182,36,36,0
554.30774,554.3182,36,36,0
554.5265,555.7765,36,36,0
555.7765,555.8182,36,36,0
555.98486,556.0265,35,36,0
556.18274,556.2244,33,36,0
556.4015,557.0265,38,62,0
557.0265,557.6515,43,62,0
557.6515,558.12024,31,62,0
558.12024,558.2765,38,36,0
558.2765,559.5265,36,36,0
559.5265,560.7765,36,36,0
560.7765,562.0265,36,36,0
562.0265,563.2765,36,36,0
563.2765,563.9015,36,36,0
563.9015,564.10986,36,36,0
564.10986,564.3182,55,36,0
564.30774,564.3182,55,36,0
564.5265,564.73486,55,36,0
564.73486,564.9432,55,36,0
564.93274,564.9432,55,36,0
565.1515,565.35986,62,36,0
565.1515,565.35986,55,36,0
565.35986,565.5682,64,36,0
565.35986,565.5682,60,36,0
565.55774,565.7661,55,36,0
565.55774,565.7661,62,36,0
565.7765,565.98486,60,36,0
565.7765,565.98486,52,36,0
565.98486,566.1932,55,36,0
566.18274,566.1932,55,36,0
566.4015,566.60986,55,36,0
566.60986,566.8182,55,36,0
566.80774,566.8182,55,36,0
567.0265,567.23486,65,36,0
567.0265,567.23486,62,36,0
567.23486,567.4432,64,36,0
567.23486,567.4432,60,36,0
567.43274,567.6411,55,36,0
567.43274,567.6411,62,36,0
567.6515,567.85986,60,36,0
567.6515,567.85986,52,36,0
567.85986,568.0682,55,36,0
568.05774,568.0682,55,36,0
568.2765,568.48486,55,36,0
568.48486,568.6932,55,36,0
568.68274,568.6932,55,36,0
568.9015,569.10986,62,36,0
568.9015,569.10986,55,36,0
569.10986,569.3182,64,36,0
569.10986,569.3182,60,36,0
569.30774,569.5161,55,36,0
569.30774,569.5161,62,36,0
569.5265,569.73486,60,36,0
569.5265,569.73486,52,36,0
569.73486,569.9432,55,36,0
569.93274,569.9432,55,36,0
570.1515,570.35986,55,36,0
570.35986,570.5682,55,36,0
570.55774,570.5682,55,36,0
570.7765,570.98486,65,36,0
570.7765,570.98486,62,36,0
570.98486,571.1932,64,36,0
570.98486,571.1932,60,36,0
571.18274,571.3911,55,36,0
571.18274,571.3911,62,36,0
571.4015,571.60986,60,36,0
571.4015,571.60986,52,36,0
571.60986,571.8182,48,36,0
571.80774,571.8182,48,36,0
572.0265,572.23486,48,36,0
572.23486,572.4432,48,36,0
572.43274,572.4432,48,36,0
572.6515,572.85986,48,36,0
572.85986,573.0682,48,36,0
573.05774,573.0682,48,36,0
573.2765,573.48486,48,36,0
573.48486,573.6932,36,36,0
573.68274,573.6932,36,36,0
573.9015,574.10986,36,36,0
574.10986,574.3182,36,36,0
574.30774,574.3182,36,36,0
574.5265,574.73486,36,36,0
574.73486,574.9432,36,36,0
574.93274,574.9432,36,36,0
575.1515,575.35986,36,36,0
575.35986,575.4015,67,36,0
575.35986,575.4015,60,36,0
575.55774,575.5994,67,36,0
575.55774,575.5994,60,36,0
575.7765,575.82196,67,36,0
575.7765,575.82196,60,36,0
576.0038,576.04926,67,36,0
576.0038,576.04926,60,36,0
576.21967,576.26514,67,36,0
576.21967,576.26514,60,36,0
576.4583,576.5083,69,36,0
576.4583,576.5083,60,36,0
576.7083,576.7583,69,36,0
576.7083,576.7583,60,36,0
576.9458,576.99585,69,36,0
576.9458,576.99585,60,36,0
577.2083,579.4583,67,36,0
577.2083,579.4583,60,36,0
30.625,32.5,55,64,0
32.5,33.75,55,64,0
36.25,37.1875,55,64,0
38.125,40.0,43,64,0
40.0,41.25,43,64,0
41.25,41.875,47,64,0
56.875,57.5,53,36,0
57.5,57.5625,64,36,0
57.5,57.5625,55,36,0
58.125,58.1875,62,36,0
58.125,58.1875,55,36,0
60.625,62.5,55,36,0
62.5,63.75,55,36,0
66.25,67.1875,55,36,0
68.125,70.0,43,36,0
70.0,71.25,43,36,0
71.25,71.875,47,36,0
86.875,87.5,53,36,0
87.5,87.5625,64,36,0
87.5,87.5625,55,36,0
88.125,88.1875,62,36,0
88.125,88.1875,55,36,0
103.125,103.4375,62,36,0
103.4375,103.75,61,36,0
103.75,105.0,55,36,0
118.125,118.4375,62,36,0
118.4375,118.75,61,36,0
118.75,120.0,55,36,0
120.0,120.3125,55,36,0
120.3125,120.625,52,36,0
140.625,141.25,43,36,0
141.25,142.5,48,36,0
163.125,163.75,43,36,0
200.23485,200.85985,47,36,0
200.85985,202.10985,48,36,0
202.10985,202.73485,54,36,0
202.73485,203.98485,55,36,0
223.98485,224.66667,32,75,0
224.66667,224.71211,31,36,0
225.00757,225.05302,31,36,0
225.34848,225.39394,36,36,0
230.40909,231.09091,47,36,0
231.09091,232.45454,48,36,0
232.45454,233.13637,54,36,0
233.13637,234.5,55,36,0
256.31818,257.06818,32,75,0
257.06818,257.11362,31,36,0
257.4091,257.45453,31,36,0
257.75,257.79544,36,36,0
259.18182,259.26514,60,36,0
382.2803,382.9053,51,49,0
382.9053,384.1553,51,49,0
384.1553,384.7803,51,49,0
384.7803,386.0303,51,49,0
386.0303,387.9053,51,49,0
412.2803,412.9053,51,49,0
412.9053,414.1553,51,49,0
414.1553,414.7803,51,49,0
414.7803,416.0303,51,49,0
416.0303,417.9053,51,49,0
