start_time,end_time,note_value,velocity,instrument_program_number
0.0,0.138889,69,49,0
0.138889,0.277778,69,49,0
0.277778,0.833334,71,49,0
0.277778,0.833334,68,49,0
0.277778,0.833334,64,49,0
0.833334,0.972223,69,49,0
0.972223,1.111112,69,49,0
1.111112,1.666668,71,49,0
1.111112,1.666668,68,49,0
1.111112,1.666668,64,49,0
1.666668,1.805557,69,49,0
1.805557,1.944446,69,49,0
1.944446,2.222224,71,49,0
1.944446,2.222224,68,49,0
1.944446,2.222224,64,49,0
2.222224,2.250002,72,49,0
2.222224,2.250002,69,49,0
2.222224,2.250002,64,49,0
2.500002,2.5277798,71,49,0
2.500002,2.5277798,68,49,0
2.500002,2.5277798,64,49,0
2.77778,2.8055577,72,49,0
2.77778,2.8055577,69,49,0
2.77778,2.8055577,64,49,0
3.055558,3.611114,76,101,0
3.055558,3.611114,71,101,0
3.055558,3.611114,64,101,0
3.611114,3.888892,72,101,0
3.611114,3.888892,69,101,0
3.611114,3.888892,64,101,0
4.16667,4.305559,72,49,0
4.305559,4.444448,72,49,0
4.444448,5.000004,74,75,0
5.000004,5.138893,72,49,0
5.138893,5.277782,72,49,0
5.277782,5.833338,74,75,0
5.833338,5.972227,72,49,0
5.972227,6.111116,72,49,0
6.111116,6.666672,74,49,0
6.666672,6.805561,76,49,0
6.805561,6.94445,76,49,0
6.94445,7.083339,79,49,0
7.083339,7.222228,77,49,0
7.222228,7.2500057,76,49,0
7.500006,7.527784,74,49,0
7.777784,7.805562,72,49,0
8.055562,8.611118,79,88,0
8.055562,8.611118,67,88,0
8.611118,8.638896,76,88,0
8.611118,8.638896,64,88,0
8.888896,8.916674,72,88,0
8.888896,8.916674,60,88,0
9.166674,9.194451,69,88,0
9.166674,9.194451,57,88,0
9.444452,9.47223,65,88,0
9.444452,9.47223,53,88,0
9.72223,10.277786,81,88,0
9.72223,10.277786,69,88,0
9.72223,10.277786,74,88,0
9.72223,10.277786,77,88,0
10.277786,11.527787,86,88,0
10.277786,11.527787,81,88,0
10.277786,11.527787,77,88,0
11.527787,11.666676,84,49,0
11.666676,11.805565,83,49,0
11.805565,11.944454,81,49,0
11.944454,12.083343,79,49,0
12.222232,12.638899,91,49,0
12.638899,12.777788,88,49,0
12.777788,12.916677,88,49,0
12.916677,13.055566,84,49,0
13.055566,13.194455,84,49,0
13.194455,13.333344,81,49,0
13.333344,13.472233,81,49,0
13.472233,13.611122,77,49,0
13.611122,13.750011,77,49,0
13.8889,15.27779,80,75,0
13.8889,15.27779,75,70,0
13.8889,15.27779,72,65,0
15.27779,15.416679,74,49,0
15.416679,15.555568,76,49,0
15.555568,15.694457,77,62,0
15.694457,15.833346,76,62,0
15.833346,15.972235,74,75,0
15.972235,16.111124,76,75,0
16.944458,17.083347,79,49,0
17.083347,17.222237,77,49,0
17.222237,17.361126,77,49,0
17.361126,17.500013,76,49,0
17.500013,17.638903,76,49,0
17.638903,17.777792,74,49,0
17.777792,18.333347,72,49,0
17.777792,18.333347,64,49,0
18.333347,18.472237,79,36,0
18.472237,18.611126,79,36,0
18.611126,19.166681,67,36,0
19.166681,19.30557,79,36,0
19.30557,19.44446,79,36,0
19.44446,20.000015,69,36,0
20.000015,20.138905,79,36,0
20.138905,20.277794,79,36,0
20.277794,20.416683,71,36,0
20.416683,20.555573,79,36,0
20.555573,20.694462,72,36,0
20.694462,20.83335,79,36,0
20.83335,20.972239,74,36,0
20.972239,21.111128,79,36,0
21.111128,21.250017,76,36,0
21.250017,21.388906,79,36,0
21.388906,21.527796,74,36,0
21.527796,21.666683,80,36,0
21.666683,21.805573,72,49,0
21.805573,21.944462,81,49,0
21.944462,22.083351,81,62,0
22.083351,22.22224,86,62,0
22.22224,22.36113,83,75,0
22.36113,22.500017,88,75,0
22.500017,22.638906,83,88,0
22.638906,22.777796,91,88,0
22.777796,23.055574,84,88,0
23.333351,23.47224,69,49,0
23.47224,23.61113,69,49,0
23.61113,24.166685,71,49,0
23.61113,24.166685,68,49,0
23.61113,24.166685,64,49,0
24.166685,24.305574,69,49,0
24.305574,24.444464,69,49,0
24.444464,25.00002,71,49,0
24.444464,25.00002,68,49,0
24.444464,25.00002,64,49,0
25.00002,25.138908,69,49,0
25.138908,25.277798,69,49,0
25.277798,25.555576,71,49,0
25.277798,25.555576,68,49,0
25.277798,25.555576,64,49,0
25.555576,25.583353,72,49,0
25.555576,25.583353,69,49,0
25.555576,25.583353,64,49,0
25.833355,25.861132,71,49,0
25.833355,25.861132,68,49,0
25.833355,25.861132,64,49,0
26.111132,26.13891,72,49,0
26.111132,26.13891,69,49,0
26.111132,26.13891,64,49,0
26.38891,26.944466,76,101,0
26.38891,26.944466,71,101,0
26.38891,26.944466,64,101,0
26.944466,27.222244,72,101,0
26.944466,27.222244,69,101,0
26.944466,27.222244,64,101,0
27.500023,27.63891,72,49,0
27.63891,27.7778,72,49,0
27.7778,28.333357,74,75,0
28.333357,28.472244,72,49,0
28.472244,28.611134,72,49,0
28.611134,29.16669,74,75,0
29.16669,29.305578,72,49,0
29.305578,29.444468,72,49,0
29.444468,30.000025,74,49,0
30.000025,30.138912,76,49,0
30.138912,30.277802,76,49,0
30.277802,30.41669,79,49,0
30.41669,30.55558,77,49,0
30.55558,30.583357,76,49,0
30.833359,30.861135,74,49,0
31.111135,31.138914,72,49,0
31.388914,31.94447,79,88,0
31.388914,31.94447,67,88,0
31.94447,31.972248,76,88,0
31.94447,31.972248,64,88,0
32.222248,32.250027,72,88,0
32.222248,32.250027,60,88,0
32.500027,32.527805,69,88,0
32.500027,32.527805,57,88,0
32.777805,32.80558,65,88,0
32.777805,32.80558,53,88,0
33.05558,33.611137,81,88,0
33.05558,33.611137,69,88,0
33.05558,33.611137,74,88,0
33.05558,33.611137,77,88,0
33.611137,34.861137,86,88,0
33.611137,34.861137,81,88,0
33.611137,34.861137,77,88,0
34.861137,35.000027,84,49,0
35.000027,35.138916,83,49,0
35.138916,35.277805,81,49,0
35.277805,35.416695,79,49,0
35.555584,35.97225,91,49,0
35.97225,36.11114,88,49,0
36.11114,36.25003,88,49,0
36.25003,36.38892,84,49,0
36.38892,36.527805,84,49,0
36.527805,36.666695,81,49,0
36.666695,36.805584,81,49,0
36.805584,36.944473,77,49,0
36.944473,37.083363,77,49,0
37.22225,38.61114,80,75,0
37.22225,38.61114,75,70,0
37.22225,38.61114,72,65,0
38.61114,38.75003,74,49,0
38.75003,38.88892,76,49,0
38.88892,39.02781,77,62,0
39.02781,39.1667,76,62,0
39.1667,39.305588,74,75,0
39.305588,39.444477,76,75,0
40.27781,40.4167,79,49,0
40.4167,40.555588,77,49,0
40.555588,40.694477,77,49,0
40.694477,40.833366,76,49,0
40.833366,40.972256,76,49,0
40.972256,41.111145,74,49,0
41.111145,41.6667,72,49,0
41.111145,41.6667,64,49,0
41.6667,41.805588,79,36,0
41.805588,41.944477,79,36,0
41.944477,42.500034,67,36,0
42.500034,42.638924,79,36,0
42.638924,42.777813,79,36,0
42.777813,43.333366,69,36,0
43.333366,43.472256,79,36,0
43.472256,43.611145,79,36,0
43.611145,43.750034,71,36,0
43.750034,43.888924,79,36,0
43.888924,44.027813,72,36,0
44.027813,44.166702,79,36,0
44.166702,44.30559,74,36,0
44.30559,44.44448,79,36,0
44.44448,44.58337,76,36,0
44.58337,44.72226,79,36,0
44.72226,44.86115,74,36,0
44.86115,45.000034,80,36,0
45.000034,45.138924,72,49,0
45.138924,45.277813,81,49,0
45.277813,45.416702,81,62,0
45.416702,45.55559,86,62,0
45.55559,45.69448,83,75,0
45.69448,45.83337,88,75,0
45.83337,45.97226,83,88,0
45.97226,46.11115,91,88,0
46.11115,46.388927,84,88,0
46.666702,46.80559,72,49,0
46.80559,46.94448,72,49,0
46.94448,47.50004,73,49,0
46.94448,47.50004,70,49,0
47.50004,47.638927,72,49,0
47.50004,47.638927,68,49,0
47.638927,47.777817,72,49,0
47.638927,47.777817,68,49,0
47.777817,48.33337,70,49,0
47.777817,48.33337,67,49,0
48.33337,48.47226,68,49,0
48.33337,48.47226,65,49,0
48.47226,48.61115,68,49,0
48.47226,48.61115,65,49,0
48.61115,48.888927,67,49,0
48.61115,48.888927,64,49,0
48.888927,48.916706,67,49,0
48.888927,48.916706,64,49,0
49.166706,49.194485,68,49,0
49.166706,49.194485,65,49,0
49.444485,50.00004,67,49,0
49.444485,50.00004,64,49,0
50.00004,50.138927,60,36,0
50.138927,50.277817,60,36,0
50.277817,50.833374,61,36,0
50.277817,50.833374,58,36,0
50.833374,50.972263,60,36,0
50.833374,50.972263,56,36,0
50.972263,51.111153,60,36,0
50.972263,51.111153,56,36,0
51.111153,51.66671,58,36,0
51.111153,51.66671,55,36,0
51.66671,51.805595,56,36,0
51.66671,51.805595,53,36,0
51.805595,51.944485,56,36,0
51.805595,51.944485,53,36,0
51.944485,52.222263,55,36,0
51.944485,52.222263,52,36,0
52.222263,52.250042,55,36,0
52.222263,52.250042,52,36,0
52.500042,52.52782,56,36,0
52.500042,52.52782,53,36,0
52.77782,53.333378,55,36,0
52.77782,53.333378,52,36,0
53.88893,54.722267,75,88,0
53.88893,54.722267,63,88,0
53.88893,54.722267,67,88,0
53.88893,54.722267,70,88,0
54.722267,55.5556,75,88,0
54.722267,55.5556,63,88,0
54.722267,55.5556,67,88,0
54.722267,55.5556,70,88,0
55.5556,55.583378,75,88,0
55.5556,55.583378,63,88,0
55.5556,55.583378,67,88,0
55.5556,55.583378,70,88,0
55.833378,55.861156,75,88,0
55.833378,55.861156,63,88,0
55.833378,55.861156,67,88,0
55.833378,55.861156,70,88,0
56.111156,56.138935,75,101,0
56.111156,56.138935,63,101,0
56.111156,56.138935,67,101,0
56.111156,56.138935,70,101,0
56.388935,56.41671,79,101,0
56.388935,56.41671,75,101,0
56.388935,56.41671,70,101,0
56.666714,56.69449,82,101,0
56.666714,56.69449,79,101,0
56.666714,56.69449,75,101,0
56.94449,56.972267,85,114,0
56.94449,56.972267,82,114,0
56.94449,56.972267,75,114,0
58.33338,58.472267,63,49,0
58.472267,59.444492,63,49,0
59.444492,60.277824,63,49,0
60.277824,60.305603,73,49,0
60.277824,60.305603,70,49,0
60.277824,60.305603,65,49,0
60.555603,60.58338,73,49,0
60.555603,60.58338,70,49,0
60.555603,60.58338,65,49,0
60.83338,60.86116,72,49,0
60.83338,60.86116,69,49,0
60.83338,60.86116,65,49,0
61.11116,61.666718,73,49,0
61.11116,61.666718,70,49,0
61.666718,61.944492,72,49,0
61.666718,61.944492,69,49,0
61.944492,62.50005,77,49,0
61.944492,62.50005,73,49,0
62.50005,62.77783,75,49,0
62.50005,62.77783,72,49,0
62.77783,63.333385,77,49,0
62.77783,63.333385,73,49,0
63.333385,63.61116,75,49,0
63.333385,63.61116,72,49,0
63.61116,63.63894,77,49,0
63.61116,63.63894,73,49,0
63.61116,63.63894,68,49,0
63.88894,63.916718,77,49,0
63.88894,63.916718,73,49,0
63.88894,63.916718,68,49,0
64.16672,64.194496,79,49,0
64.16672,64.194496,75,49,0
64.16672,64.194496,70,49,0
64.444496,65.00005,80,62,0
64.444496,65.00005,75,62,0
64.444496,65.00005,68,62,0
65.00005,65.27783,79,62,0
65.00005,65.27783,75,62,0
65.00005,65.27783,70,62,0
65.27783,65.83339,80,101,0
65.27783,65.83339,75,96,0
65.27783,65.83339,68,91,0
65.83339,66.11116,79,75,0
65.83339,66.11116,75,75,0
65.83339,66.11116,70,75,0
66.11116,66.13894,80,114,0
66.11116,66.13894,75,109,0
66.11116,66.13894,68,104,0
66.38894,66.41672,80,114,0
66.38894,66.41672,75,109,0
66.38894,66.41672,68,104,0
66.66672,66.694496,82,114,0
66.66672,66.694496,75,109,0
66.66672,66.694496,70,104,0
66.944496,66.972275,84,114,0
66.944496,66.972275,75,109,0
66.944496,66.972275,72,104,0
67.222275,67.25005,85,127,0
67.222275,67.25005,80,122,0
67.222275,67.25005,73,117,0
67.50005,67.52783,87,127,0
67.50005,67.52783,80,122,0
67.50005,67.52783,75,117,0
67.77783,67.80561,89,127,0
67.77783,67.80561,80,122,0
67.77783,67.80561,77,117,0
68.33339,68.472275,68,101,0
68.472275,68.61117,68,101,0
68.61117,70.55561,71,88,0
71.38895,71.52783,63,49,0
71.52783,71.666725,63,49,0
71.666725,72.22228,75,49,0
72.22228,72.36117,63,49,0
72.36117,72.50006,63,49,0
72.50006,73.05561,75,49,0
73.05561,73.08339,75,49,0
73.05561,73.08339,63,49,0
73.33339,73.36117,79,49,0
73.33339,73.36117,67,49,0
73.61117,73.63895,80,49,0
73.61117,73.63895,68,49,0
73.88895,73.916725,82,49,0
73.88895,73.916725,70,49,0
74.166725,74.1945,83,49,0
74.166725,74.1945,71,49,0
74.4445,74.47228,85,49,0
74.4445,74.47228,73,49,0
74.72228,74.75006,87,49,0
74.72228,74.75006,75,49,0
75.00006,75.02784,88,49,0
75.00006,75.02784,76,49,0
75.27784,75.8334,87,49,0
75.27784,75.8334,75,49,0
76.38895,76.52784,63,49,0
76.52784,76.666725,63,49,0
76.666725,77.22228,75,49,0
77.22228,77.361176,63,49,0
77.361176,77.50006,63,49,0
77.50006,78.05562,75,49,0
78.05562,78.3334,75,49,0
78.05562,78.3334,63,49,0
78.3334,78.611176,75,49,0
78.3334,78.611176,63,49,0
78.611176,78.888954,76,49,0
78.611176,78.888954,64,49,0
78.888954,78.91673,78,49,0
78.888954,78.91673,66,49,0
79.16673,79.19451,79,49,0
79.16673,79.19451,67,49,0
79.44451,79.47228,81,62,0
79.44451,79.47228,69,62,0
79.72228,79.75006,83,75,0
79.72228,79.75006,71,75,0
80.00006,80.02784,84,75,0
80.00006,80.02784,72,75,0
80.27784,80.8334,83,49,0
80.27784,80.8334,71,49,0
80.8334,80.97229,76,36,0
80.97229,81.111176,76,36,0
81.111176,81.66673,66,36,0
81.66673,81.80562,76,36,0
81.80562,81.94451,76,36,0
81.94451,82.50007,71,36,0
82.50007,82.77785,83,36,0
82.77785,82.91673,83,36,0
82.91673,83.05562,81,36,0
83.05562,83.19451,81,36,0
83.19451,83.3334,83,36,0
83.3334,83.47229,83,36,0
83.47229,83.611176,84,36,0
83.611176,84.16673,83,36,0
84.16673,84.305626,76,36,0
84.305626,84.44451,76,36,0
84.44451,85.00007,66,36,0
85.00007,85.138954,76,36,0
85.138954,85.27785,76,36,0
85.27785,85.86722,71,36,0
85.86722,86.03026,76,36,0
86.03026,86.200714,76,36,0
86.200714,86.961525,66,36,0
86.961525,87.15889,76,36,0
87.15889,87.35626,76,36,0
87.35626,88.14574,71,36,0
88.14574,88.3431,67,36,0
88.3431,88.540474,71,36,0
88.540474,88.67936,71,36,0
88.67936,88.818245,69,36,0
88.818245,88.95714,69,36,0
88.95714,89.09602,67,36,0
89.09602,89.23492,67,36,0
89.23492,89.3738,66,36,0
89.3738,89.65158,64,36,0
89.92936,90.06825,71,88,0
89.92936,90.06825,68,88,0
90.06825,90.20714,71,88,0
90.06825,90.20714,68,88,0
90.20714,90.762695,72,88,0
90.20714,90.762695,69,88,0
90.762695,90.90158,71,88,0
90.762695,90.90158,68,88,0
90.90158,91.040474,71,88,0
90.90158,91.040474,68,88,0
91.040474,91.59603,77,114,0
91.040474,91.59603,74,106,0
91.59603,91.73492,76,88,0
91.59603,91.73492,72,88,0
91.73492,91.87381,76,88,0
91.73492,91.87381,72,88,0
91.87381,92.15158,74,88,0
91.87381,92.15158,71,88,0
92.15158,92.17936,74,88,0
92.15158,92.17936,71,88,0
92.42936,92.45714,72,88,0
92.42936,92.45714,69,88,0
92.42936,92.45714,63,88,0
92.70714,93.262695,71,88,0
92.70714,93.262695,68,88,0
92.70714,93.262695,64,88,0
93.262695,93.40159,59,88,0
93.262695,93.40159,56,88,0
93.40159,93.540474,59,88,0
93.40159,93.540474,56,88,0
93.540474,94.09603,60,88,0
93.540474,94.09603,57,88,0
94.09603,94.23492,59,88,0
94.09603,94.23492,56,88,0
94.23492,94.37381,59,88,0
94.23492,94.37381,56,88,0
94.37381,94.92937,65,114,0
94.37381,94.92937,62,106,0
94.92937,95.06825,64,88,0
94.92937,95.06825,60,88,0
95.06825,95.207146,64,88,0
95.06825,95.207146,60,88,0
95.207146,95.48492,62,88,0
95.207146,95.48492,59,88,0
95.48492,95.512695,62,88,0
95.48492,95.512695,59,88,0
95.762695,95.790474,60,88,0
95.762695,95.790474,57,88,0
96.040474,96.59603,59,88,0
96.040474,96.59603,56,88,0
96.040474,96.59603,52,88,0
96.59603,96.734924,60,49,0
96.59603,96.734924,57,49,0
96.59603,96.734924,51,49,0
96.734924,96.87381,60,49,0
96.734924,96.87381,57,49,0
96.734924,96.87381,51,49,0
96.87381,97.42937,59,49,0
96.87381,97.42937,56,49,0
96.87381,97.42937,52,49,0
97.42937,97.56825,60,49,0
97.42937,97.56825,57,49,0
97.42937,97.56825,51,49,0
97.56825,97.707146,60,49,0
97.56825,97.707146,57,49,0
97.56825,97.707146,51,49,0
97.707146,98.2627,59,49,0
97.707146,98.2627,56,49,0
97.707146,98.2627,52,49,0
98.2627,98.40159,60,49,0
98.2627,98.40159,57,49,0
98.2627,98.40159,51,49,0
98.40159,98.54048,60,49,0
98.40159,98.54048,57,49,0
98.40159,98.54048,51,49,0
98.54048,99.09603,59,49,0
98.54048,99.09603,56,49,0
98.54048,99.09603,52,49,0
99.09603,99.234924,60,49,0
99.09603,99.234924,57,49,0
99.09603,99.234924,51,49,0
99.234924,99.37381,60,49,0
99.234924,99.37381,57,49,0
99.234924,99.37381,51,49,0
99.37381,99.92937,59,49,0
99.37381,99.92937,56,49,0
99.37381,99.92937,52,49,0
99.92937,100.06826,60,49,0
99.92937,100.06826,57,49,0
99.92937,100.06826,51,49,0
100.06826,100.207146,60,49,0
100.06826,100.207146,57,49,0
100.06826,100.207146,51,49,0
100.207146,100.7627,59,49,0
100.207146,100.7627,56,49,0
100.207146,100.7627,52,49,0
100.7627,100.90159,69,49,0
100.90159,101.04048,69,49,0
101.04048,101.59604,71,49,0
101.04048,101.59604,68,49,0
101.04048,101.59604,64,49,0
101.59604,101.734924,69,49,0
101.734924,101.87382,69,49,0
101.87382,102.42937,71,49,0
101.87382,102.42937,68,49,0
101.87382,102.42937,64,49,0
102.42937,102.56826,69,49,0
102.56826,102.707146,69,49,0
102.707146,102.984924,71,49,0
102.707146,102.984924,68,49,0
102.707146,102.984924,64,49,0
102.984924,103.0127,72,62,0
102.984924,103.0127,69,62,0
102.984924,103.0127,64,62,0
103.2627,103.29048,71,75,0
103.2627,103.29048,68,75,0
103.2627,103.29048,64,75,0
103.54048,103.56826,72,88,0
103.54048,103.56826,69,88,0
103.54048,103.56826,64,88,0
103.81826,104.37382,76,101,0
103.81826,104.37382,71,101,0
103.81826,104.37382,64,101,0
104.37382,104.651596,72,101,0
104.37382,104.651596,69,101,0
104.37382,104.651596,64,101,0
104.929375,105.06826,69,49,0
105.06826,105.20715,69,49,0
105.20715,105.7627,71,75,0
105.7627,105.901596,69,49,0
105.901596,106.04048,69,49,0
106.04048,106.59604,71,75,0
106.59604,106.73493,69,49,0
106.73493,106.87382,69,49,0
106.87382,107.429375,71,75,0
107.429375,107.56826,73,49,0
107.56826,107.70715,73,49,0
107.70715,107.84604,76,49,0
107.84604,107.98493,74,49,0
107.98493,108.01271,73,49,0
108.26271,108.29049,71,49,0
108.54049,108.81827,69,49,0
108.81827,109.37382,76,101,0
108.81827,109.37382,64,101,0
109.37382,109.401596,73,101,0
109.37382,109.401596,61,101,0
109.651596,109.679375,69,101,0
109.651596,109.679375,57,101,0
109.929375,109.95715,66,101,0
109.929375,109.95715,54,101,0
110.20715,110.48493,62,101,0
110.20715,110.48493,50,101,0
110.48493,111.04049,78,88,0
110.48493,111.04049,74,88,0
110.48493,111.04049,71,88,0
111.04049,112.29049,83,88,0
111.04049,112.29049,78,88,0
111.04049,112.29049,74,88,0
112.29049,112.429375,81,36,0
112.429375,112.56827,80,36,0
112.56827,112.70715,78,36,0
112.70715,112.98493,76,36,0
112.98493,113.4016,88,36,0
113.4016,113.54049,85,36,0
113.54049,113.67938,85,36,0
113.67938,113.81827,81,36,0
113.81827,113.95716,81,36,0
113.95716,114.09605,78,36,0
114.09605,114.23493,78,36,0
114.23493,114.373825,74,36,0
114.373825,114.4016,74,36,0
114.6516,116.04049,77,62,0
114.6516,116.04049,72,57,0
114.6516,116.04049,69,52,0
116.873825,117.42938,74,96,0
116.04049,117.42938,68,49,0
117.42938,117.70716,73,75,0
117.42938,117.70716,69,75,0
116.04049,117.70716,76,49,0
117.70716,117.84605,76,49,0
117.84605,117.98494,74,49,0
117.98494,118.123825,74,49,0
118.123825,118.26272,73,49,0
118.26272,118.4016,73,49,0
118.4016,118.5405,71,49,0
118.5405,118.818275,69,49,0
118.5405,118.818275,61,49,0
119.096054,119.23494,76,49,0
119.23494,119.373825,76,49,0
119.373825,119.92938,64,75,0
119.92938,120.068275,76,49,0
120.068275,120.20716,76,49,0
120.20716,120.76272,66,49,0
120.76272,120.9016,76,49,0
120.9016,121.0405,76,49,0
121.0405,121.17938,68,49,0
121.17938,121.318275,76,49,0
121.318275,121.45716,69,49,0
121.45716,121.596054,76,49,0
121.596054,121.73494,71,49,0
121.73494,121.87383,76,49,0
121.87383,122.01272,73,62,0
122.01272,122.15161,76,62,0
122.15161,122.2905,71,62,0
122.2905,122.42939,77,62,0
122.42939,122.568275,69,62,0
122.568275,122.70716,78,62,0
122.70716,122.846054,78,75,0
122.846054,122.98494,83,75,0
122.98494,123.12383,80,75,0
123.12383,123.26272,85,75,0
123.26272,123.40161,80,75,0
123.40161,123.5405,88,75,0
123.5405,123.818275,81,88,0
124.096054,124.23495,76,101,0
124.096054,124.23495,68,101,0
124.096054,124.23495,71,101,0
124.096054,124.23495,74,101,0
124.23495,124.37383,76,101,0
124.23495,124.37383,68,101,0
124.23495,124.37383,71,101,0
124.23495,124.37383,74,101,0
124.37383,124.92939,76,127,0
124.37383,124.92939,73,122,0
124.37383,124.92939,69,117,0
124.92939,125.068275,76,101,0
124.92939,125.068275,68,101,0
124.92939,125.068275,71,101,0
124.92939,125.068275,74,101,0
125.068275,125.20717,76,101,0
125.068275,125.20717,68,101,0
125.068275,125.20717,71,101,0
125.068275,125.20717,74,101,0
125.20717,125.762726,76,127,0
125.20717,125.762726,73,122,0
125.20717,125.762726,69,117,0
125.762726,125.90161,80,101,0
125.762726,125.90161,71,101,0
125.762726,125.90161,74,101,0
125.762726,125.90161,76,101,0
125.90161,126.0405,80,101,0
125.90161,126.0405,71,101,0
125.90161,126.0405,74,101,0
125.90161,126.0405,76,101,0
126.0405,126.596054,81,127,0
126.0405,126.596054,76,122,0
126.0405,126.596054,73,117,0
126.596054,126.73495,83,101,0
126.596054,126.73495,80,101,0
126.596054,126.73495,76,101,0
126.73495,126.87383,83,101,0
126.73495,126.87383,80,101,0
126.73495,126.87383,76,101,0
126.87383,127.42939,85,127,0
126.87383,127.42939,81,122,0
126.87383,127.42939,76,117,0
127.42939,127.56828,88,101,0
127.42939,127.56828,80,101,0
127.42939,127.56828,83,101,0
127.42939,127.56828,86,101,0
127.56828,127.70717,88,101,0
127.56828,127.70717,80,101,0
127.56828,127.70717,83,101,0
127.56828,127.70717,86,101,0
127.70717,127.73495,88,127,0
127.70717,127.73495,85,122,0
127.70717,127.73495,81,117,0
127.98495,128.01273,88,127,0
127.98495,128.01273,85,122,0
127.98495,128.01273,81,117,0
128.26273,128.2905,92,127,0
128.26273,128.2905,83,115,0
128.26273,128.2905,86,119,0
128.26273,128.2905,88,123,0
128.5405,128.81828,93,101,0
128.5405,128.81828,81,101,0
128.5405,128.81828,85,101,0
128.5405,128.81828,88,101,0
129.09605,129.23495,76,75,0
129.23495,129.37384,76,75,0
129.37384,129.9294,77,75,0
129.37384,129.9294,74,75,0
129.9294,130.06828,76,75,0
129.9294,130.06828,72,75,0
130.06828,130.20717,76,75,0
130.06828,130.20717,72,75,0
130.20717,130.76273,74,75,0
130.20717,130.76273,71,75,0
130.76273,130.90161,72,75,0
130.76273,130.90161,69,75,0
130.90161,131.04051,72,75,0
130.90161,131.04051,69,75,0
131.04051,131.06828,71,75,0
131.04051,131.06828,68,75,0
131.31828,131.34605,71,75,0
131.31828,131.34605,68,75,0
131.59605,131.62384,72,75,0
131.59605,131.62384,69,75,0
131.87384,131.90161,71,75,0
131.87384,131.90161,68,75,0
132.4294,132.56828,72,75,0
132.56828,132.70717,72,75,0
132.70717,133.26273,73,75,0
132.70717,133.26273,70,75,0
133.26273,133.40161,72,75,0
133.26273,133.40161,68,75,0
133.40161,133.54051,72,75,0
133.40161,133.54051,68,75,0
133.54051,134.09607,70,75,0
133.54051,134.09607,67,75,0
134.09607,134.23495,68,75,0
134.09607,134.23495,65,75,0
134.23495,134.37384,68,75,0
134.23495,134.37384,65,75,0
134.37384,134.65161,67,75,0
134.37384,134.65161,64,75,0
134.65161,134.6794,67,75,0
134.65161,134.6794,64,75,0
134.9294,134.95717,68,75,0
134.9294,134.95717,65,75,0
135.20717,135.23495,67,75,0
135.20717,135.23495,64,75,0
136.31828,137.15163,75,88,0
136.31828,137.15163,63,88,0
136.31828,137.15163,67,88,0
136.31828,137.15163,70,88,0
137.15163,137.98495,75,88,0
137.15163,137.98495,63,88,0
137.15163,137.98495,67,88,0
137.15163,137.98495,70,88,0
137.98495,138.01273,75,88,0
137.98495,138.01273,63,88,0
137.98495,138.01273,67,88,0
137.98495,138.01273,70,88,0
138.26273,138.29051,75,88,0
138.26273,138.29051,63,88,0
138.26273,138.29051,67,88,0
138.26273,138.29051,70,88,0
138.54051,138.56828,75,101,0
138.54051,138.56828,63,101,0
138.54051,138.56828,67,101,0
138.54051,138.56828,70,101,0
138.81828,138.84607,79,101,0
138.81828,138.84607,75,101,0
138.81828,138.84607,70,101,0
139.09607,139.12384,82,101,0
139.09607,139.12384,79,101,0
139.09607,139.12384,75,101,0
139.37384,139.40163,85,114,0
139.37384,139.40163,82,114,0
139.37384,139.40163,75,114,0
140.76274,140.90163,63,49,0
140.90163,141.87384,63,49,0
141.87384,142.70718,63,49,0
142.70718,142.73495,73,49,0
142.70718,142.73495,70,49,0
142.70718,142.73495,65,49,0
142.98495,143.01274,73,49,0
142.98495,143.01274,70,49,0
142.98495,143.01274,65,49,0
143.26274,143.29051,72,49,0
143.26274,143.29051,69,49,0
143.26274,143.29051,65,49,0
143.54051,144.09607,73,49,0
143.54051,144.09607,70,49,0
144.09607,144.37386,72,49,0
144.09607,144.37386,69,49,0
144.37386,144.9294,77,49,0
144.37386,144.9294,73,49,0
144.9294,145.20718,75,49,0
144.9294,145.20718,72,49,0
145.20718,145.76274,77,49,0
145.20718,145.76274,73,49,0
145.76274,146.04051,75,49,0
145.76274,146.04051,72,49,0
146.04051,146.0683,77,49,0
146.04051,146.0683,73,49,0
146.04051,146.0683,68,49,0
146.3183,146.34607,77,49,0
146.3183,146.34607,73,49,0
146.3183,146.34607,68,49,0
146.59607,146.62386,79,49,0
146.59607,146.62386,75,49,0
146.59607,146.62386,70,49,0
146.87386,147.42941,80,62,0
146.87386,147.42941,75,62,0
146.87386,147.42941,68,62,0
147.42941,147.70718,79,62,0
147.42941,147.70718,75,62,0
147.42941,147.70718,70,62,0
147.70718,148.26274,80,101,0
147.70718,148.26274,75,96,0
147.70718,148.26274,68,91,0
148.26274,148.54051,79,75,0
148.26274,148.54051,75,75,0
148.26274,148.54051,70,75,0
148.54051,148.5683,80,114,0
148.54051,148.5683,75,109,0
148.54051,148.5683,68,104,0
148.8183,148.84607,80,114,0
148.8183,148.84607,75,109,0
148.8183,148.84607,68,104,0
149.09607,149.12386,82,114,0
149.09607,149.12386,75,109,0
149.09607,149.12386,70,104,0
149.37386,149.40163,84,114,0
149.37386,149.40163,75,109,0
149.37386,149.40163,72,104,0
149.65163,149.67941,85,127,0
149.65163,149.67941,80,122,0
149.65163,149.67941,73,117,0
149.92941,149.95718,87,127,0
149.92941,149.95718,80,122,0
149.92941,149.95718,75,117,0
150.20718,150.23497,89,127,0
150.20718,150.23497,80,122,0
150.20718,150.23497,77,117,0
150.76274,150.90163,68,101,0
150.90163,151.04053,68,101,0
151.04053,152.98497,71,88,0
153.8183,153.95718,63,49,0
153.95718,154.09608,63,49,0
154.09608,154.65164,75,49,0
154.65164,154.79053,63,49,0
154.79053,154.92941,63,49,0
154.92941,155.48497,75,49,0
155.48497,155.51274,75,49,0
155.48497,155.51274,63,49,0
155.76274,155.79053,79,49,0
155.76274,155.79053,67,49,0
156.04053,156.0683,80,49,0
156.04053,156.0683,68,49,0
156.3183,156.34608,82,49,0
156.3183,156.34608,70,49,0
156.59608,156.62386,83,49,0
156.59608,156.62386,71,49,0
156.87386,156.90164,85,49,0
156.87386,156.90164,73,49,0
157.15164,157.17941,87,49,0
157.15164,157.17941,75,49,0
157.42941,157.4572,88,49,0
157.42941,157.4572,76,49,0
157.7072,158.26274,87,49,0
157.7072,158.26274,75,49,0
158.8183,158.9572,63,49,0
158.9572,159.09608,63,49,0
159.09608,159.65164,75,49,0
159.65164,159.79053,63,49,0
159.79053,159.92941,63,49,0
159.92941,160.48497,75,49,0
160.48497,160.76276,75,49,0
160.48497,160.76276,63,49,0
160.76276,161.04053,75,49,0
160.76276,161.04053,63,49,0
161.04053,161.31831,76,49,0
161.04053,161.31831,64,49,0
161.31831,161.34608,78,49,0
161.31831,161.34608,66,49,0
161.59608,161.62386,79,49,0
161.59608,161.62386,67,49,0
161.87386,161.90164,81,62,0
161.87386,161.90164,69,62,0
162.15164,162.17941,83,75,0
162.15164,162.17941,71,75,0
162.42941,162.4572,84,75,0
162.42941,162.4572,72,75,0
162.7072,163.26276,83,49,0
162.7072,163.26276,71,49,0
163.26276,163.40164,76,36,0
163.40164,163.54053,76,36,0
163.54053,164.09608,66,36,0
164.09608,164.23497,76,36,0
164.23497,164.37387,76,36,0
164.37387,164.92943,71,36,0
164.92943,165.2072,83,36,0
165.2072,165.34608,83,36,0
165.34608,165.48497,81,36,0
165.48497,165.62387,81,36,0
165.62387,165.76276,83,36,0
165.76276,165.90164,83,36,0
165.90164,166.04053,84,36,0
166.04053,166.59608,83,36,0
166.59608,166.73497,76,36,0
166.73497,166.87387,76,36,0
166.87387,167.42943,66,36,0
167.42943,167.56831,76,36,0
167.56831,167.7072,76,36,0
167.7072,168.29657,71,36,0
168.29657,168.45961,76,36,0
168.45961,168.63007,76,36,0
168.63007,169.39088,66,36,0
169.39088,169.58824,76,36,0
169.58824,169.78561,76,36,0
169.78561,170.57509,71,36,0
170.57509,170.77246,67,36,0
170.77246,170.96982,71,36,0
170.96982,171.10872,71,36,0
171.10872,171.2476,69,36,0
171.2476,171.38649,69,36,0
171.38649,171.52538,67,36,0
171.52538,171.66428,67,36,0
171.66428,171.80316,66,36,0
171.80316,172.08093,64,36,0
172.35872,172.4976,71,88,0
172.35872,172.4976,68,88,0
172.4976,172.63649,71,88,0
172.4976,172.63649,68,88,0
172.63649,173.19205,72,88,0
172.63649,173.19205,69,88,0
173.19205,173.33093,71,88,0
173.19205,173.33093,68,88,0
173.33093,173.46983,71,88,0
173.33093,173.46983,68,88,0
173.46983,174.02539,77,114,0
173.46983,174.02539,74,106,0
174.02539,174.16428,76,88,0
174.02539,174.16428,72,88,0
174.16428,174.30316,76,88,0
174.16428,174.30316,72,88,0
174.30316,174.58093,74,88,0
174.30316,174.58093,71,88,0
174.58093,174.60872,74,88,0
174.58093,174.60872,71,88,0
174.85872,174.88649,72,88,0
174.85872,174.88649,69,88,0
174.85872,174.88649,63,88,0
175.13649,175.69205,71,88,0
175.13649,175.69205,68,88,0
175.13649,175.69205,64,88,0
175.69205,175.83093,59,88,0
175.69205,175.83093,56,88,0
175.83093,175.96983,59,88,0
175.83093,175.96983,56,88,0
175.96983,176.52539,60,88,0
175.96983,176.52539,57,88,0
176.52539,176.66428,59,88,0
176.52539,176.66428,56,88,0
176.66428,176.80316,59,88,0
176.66428,176.80316,56,88,0
176.80316,177.35872,65,114,0
176.80316,177.35872,62,106,0
177.35872,177.4976,64,88,0
177.35872,177.4976,60,88,0
177.4976,177.63649,64,88,0
177.4976,177.63649,60,88,0
177.63649,177.91428,62,88,0
177.63649,177.91428,59,88,0
177.91428,177.94205,62,88,0
177.91428,177.94205,59,88,0
178.19205,178.21983,60,88,0
178.19205,178.21983,57,88,0
178.46983,179.02539,59,88,0
178.46983,179.02539,56,88,0
178.46983,179.02539,52,88,0
179.02539,179.16428,60,49,0
179.02539,179.16428,57,49,0
179.02539,179.16428,51,49,0
179.16428,179.30316,60,49,0
179.16428,179.30316,57,49,0
179.16428,179.30316,51,49,0
179.30316,179.85872,59,49,0
179.30316,179.85872,56,49,0
179.30316,179.85872,52,49,0
179.85872,179.9976,60,49,0
179.85872,179.9976,57,49,0
179.85872,179.9976,51,49,0
179.9976,180.1365,60,49,0
179.9976,180.1365,57,49,0
179.9976,180.1365,51,49,0
180.1365,180.69206,59,49,0
180.1365,180.69206,56,49,0
180.1365,180.69206,52,49,0
180.69206,180.83095,60,49,0
180.69206,180.83095,57,49,0
180.69206,180.83095,51,49,0
180.83095,180.96983,60,49,0
180.83095,180.96983,57,49,0
180.83095,180.96983,51,49,0
180.96983,181.52539,59,49,0
180.96983,181.52539,56,49,0
180.96983,181.52539,52,49,0
181.52539,181.66428,60,49,0
181.52539,181.66428,57,49,0
181.52539,181.66428,51,49,0
181.66428,181.80316,60,49,0
181.66428,181.80316,57,49,0
181.66428,181.80316,51,49,0
181.80316,182.35872,59,49,0
181.80316,182.35872,56,49,0
181.80316,182.35872,52,49,0
182.35872,182.49762,60,49,0
182.35872,182.49762,57,49,0
182.35872,182.49762,51,49,0
182.49762,182.6365,60,49,0
182.49762,182.6365,57,49,0
182.49762,182.6365,51,49,0
182.6365,183.19206,59,49,0
182.6365,183.19206,56,49,0
182.6365,183.19206,52,49,0
183.19206,183.33095,69,49,0
183.33095,183.46983,69,49,0
183.46983,184.02539,71,49,0
183.46983,184.02539,68,49,0
183.46983,184.02539,64,49,0
184.02539,184.16428,69,49,0
184.16428,184.30316,69,49,0
184.30316,184.85872,71,49,0
184.30316,184.85872,68,49,0
184.30316,184.85872,64,49,0
184.85872,184.99762,69,49,0
184.99762,185.1365,69,49,0
185.1365,185.41428,71,49,0
185.1365,185.41428,68,49,0
185.1365,185.41428,64,49,0
185.41428,185.44206,72,62,0
185.41428,185.44206,69,62,0
185.41428,185.44206,64,62,0
185.69206,185.71983,71,75,0
185.69206,185.71983,68,75,0
185.69206,185.71983,64,75,0
185.96983,185.99762,72,88,0
185.96983,185.99762,69,88,0
185.96983,185.99762,64,88,0
186.24762,186.80318,76,101,0
186.24762,186.80318,71,101,0
186.24762,186.80318,64,101,0
186.80318,187.08095,72,101,0
186.80318,187.08095,69,101,0
186.80318,187.08095,64,101,0
187.35873,187.49762,69,49,0
187.49762,187.6365,69,49,0
187.6365,188.19206,71,75,0
188.19206,188.33095,69,49,0
188.33095,188.46983,69,49,0
188.46983,189.02539,71,75,0
189.02539,189.16429,69,49,0
189.16429,189.30318,69,49,0
189.30318,189.85873,71,75,0
189.85873,189.99762,73,49,0
189.99762,190.1365,73,49,0
190.1365,190.27539,76,49,0
190.27539,190.41429,74,49,0
190.41429,190.44206,73,49,0
190.69206,190.71983,71,49,0
190.96983,191.24762,69,49,0
191.24762,191.80318,76,101,0
191.24762,191.80318,64,101,0
191.80318,191.83095,73,101,0
191.80318,191.83095,61,101,0
192.08095,192.10873,69,101,0
192.08095,192.10873,57,101,0
192.35873,192.3865,66,101,0
192.35873,192.3865,54,101,0
192.6365,192.91429,62,101,0
192.6365,192.91429,50,101,0
192.91429,193.46985,78,88,0
192.91429,193.46985,74,88,0
192.91429,193.46985,71,88,0
193.46985,194.71985,83,88,0
193.46985,194.71985,78,88,0
193.46985,194.71985,74,88,0
194.71985,194.85873,81,36,0
194.85873,194.99762,80,36,0
194.99762,195.1365,78,36,0
195.1365,195.41429,76,36,0
195.41429,195.83096,88,36,0
195.83096,195.96985,85,36,0
195.96985,196.10873,85,36,0
196.10873,196.24762,81,36,0
196.24762,196.3865,81,36,0
196.3865,196.5254,78,36,0
196.5254,196.66429,78,36,0
196.66429,196.80318,74,36,0
196.80318,196.83096,74,36,0
197.08096,198.46985,77,62,0
197.08096,198.46985,72,57,0
197.08096,198.46985,69,52,0
199.30318,199.85873,74,96,0
198.46985,199.85873,68,49,0
199.85873,200.13652,73,75,0
199.85873,200.13652,69,75,0
198.46985,200.13652,76,49,0
200.13652,200.2754,76,49,0
200.2754,200.41429,74,49,0
200.41429,200.55318,74,49,0
200.55318,200.69208,73,49,0
200.69208,200.83096,73,49,0
200.83096,200.96985,71,49,0
200.96985,201.24762,69,49,0
200.96985,201.24762,61,49,0
201.5254,201.66429,76,49,0
201.66429,201.80318,76,49,0
201.80318,202.35873,64,75,0
202.35873,202.49763,76,49,0
202.49763,202.63652,76,49,0
202.63652,203.19208,66,49,0
203.19208,203.33096,76,49,0
203.33096,203.46985,76,49,0
203.46985,203.60873,68,49,0
203.60873,203.74763,76,49,0
203.74763,203.88652,69,49,0
203.88652,204.0254,76,49,0
204.0254,204.16429,71,49,0
204.16429,204.30319,76,49,0
204.30319,204.44208,73,62,0
204.44208,204.58096,76,62,0
204.58096,204.71985,71,62,0
204.71985,204.85873,77,62,0
204.85873,204.99763,69,62,0
204.99763,205.13652,78,62,0
205.13652,205.2754,78,75,0
205.2754,205.41429,83,75,0
205.41429,205.55319,80,75,0
205.55319,205.69208,85,75,0
205.69208,205.83096,80,75,0
205.83096,205.96985,88,75,0
205.96985,206.24763,81,88,0
206.5254,206.66429,76,101,0
206.5254,206.66429,68,101,0
206.5254,206.66429,71,101,0
206.5254,206.66429,74,101,0
206.66429,206.80319,76,101,0
206.66429,206.80319,68,101,0
206.66429,206.80319,71,101,0
206.66429,206.80319,74,101,0
206.80319,207.35875,76,127,0
206.80319,207.35875,73,122,0
206.80319,207.35875,69,117,0
207.35875,207.49763,76,101,0
207.35875,207.49763,68,101,0
207.35875,207.49763,71,101,0
207.35875,207.49763,74,101,0
207.49763,207.63652,76,101,0
207.49763,207.63652,68,101,0
207.49763,207.63652,71,101,0
207.49763,207.63652,74,101,0
207.63652,208.19208,76,127,0
207.63652,208.19208,73,122,0
207.63652,208.19208,69,117,0
208.19208,208.33096,80,101,0
208.19208,208.33096,71,101,0
208.19208,208.33096,74,101,0
208.19208,208.33096,76,101,0
208.33096,208.46985,80,101,0
208.33096,208.46985,71,101,0
208.33096,208.46985,74,101,0
208.33096,208.46985,76,101,0
208.46985,209.0254,81,127,0
208.46985,209.0254,76,122,0
208.46985,209.0254,73,117,0
209.0254,209.1643,83,101,0
209.0254,209.1643,80,101,0
209.0254,209.1643,76,101,0
209.1643,209.30319,83,101,0
209.1643,209.30319,80,101,0
209.1643,209.30319,76,101,0
209.30319,209.85875,85,127,0
209.30319,209.85875,81,122,0
209.30319,209.85875,76,117,0
209.85875,209.99763,88,101,0
209.85875,209.99763,80,101,0
209.85875,209.99763,83,101,0
209.85875,209.99763,86,101,0
209.99763,210.13652,88,101,0
209.99763,210.13652,80,101,0
209.99763,210.13652,83,101,0
209.99763,210.13652,86,101,0
210.13652,210.1643,88,127,0
210.13652,210.1643,85,122,0
210.13652,210.1643,81,117,0
210.4143,210.44208,88,127,0
210.4143,210.44208,85,122,0
210.4143,210.44208,81,117,0
210.69208,210.71986,92,127,0
210.69208,210.71986,83,115,0
210.69208,210.71986,86,119,0
210.69208,210.71986,88,123,0
210.96986,211.24763,93,127,0
210.96986,211.24763,81,115,0
210.96986,211.24763,85,119,0
210.96986,211.24763,88,123,0
212.08096,212.86528,69,36,0
212.86528,213.25745,72,36,0
213.25745,214.04175,69,36,0
214.04175,214.43391,72,36,0
214.43391,215.21823,69,36,0
215.21823,215.61038,72,36,0
215.61038,216.3947,69,36,0
216.3947,216.78685,72,36,0
216.78685,217.17902,69,36,0
217.17902,217.57117,72,36,0
217.57117,217.96332,74,36,0
217.96332,218.74763,77,36,0
218.74763,219.1398,69,36,0
219.1398,219.53195,70,36,0
219.53195,219.9241,67,36,0
219.9241,220.31627,74,36,0
220.31627,221.10059,72,36,0
221.10059,221.49274,79,36,0
221.10059,221.49274,67,36,0
221.49274,222.27705,81,62,0
221.49274,222.27705,69,54,0
222.27705,222.6692,72,36,0
222.27705,222.6692,67,36,0
222.6692,223.45352,69,36,0
222.6692,223.45352,65,36,0
223.45352,223.84567,79,36,0
223.45352,223.84567,67,36,0
223.84567,224.62999,81,62,0
223.84567,224.62999,69,54,0
224.62999,225.02216,72,36,0
224.62999,225.02216,67,36,0
225.02216,225.80646,69,36,0
225.02216,225.80646,65,36,0
225.80646,226.19862,84,36,0
225.80646,226.19862,72,36,0
226.19862,226.59077,81,36,0
226.19862,226.59077,69,36,0
226.59077,226.98294,84,36,0
226.59077,226.98294,72,36,0
226.98294,227.37509,86,36,0
226.98294,227.37509,74,36,0
227.37509,228.15941,89,36,0
227.37509,228.15941,77,36,0
228.15941,228.55156,81,36,0
228.15941,228.55156,69,36,0
228.55156,228.94373,82,36,0
228.55156,228.94373,70,36,0
228.94373,229.33588,79,36,0
228.94373,229.33588,67,36,0
229.33588,229.72803,86,36,0
229.33588,229.72803,74,36,0
229.72803,230.51234,84,36,0
229.72803,230.51234,72,36,0
230.51234,230.90451,91,36,0
230.51234,230.90451,79,36,0
230.90451,231.68881,93,62,0
230.90451,231.68881,81,54,0
231.68881,232.08098,84,36,0
231.68881,232.08098,72,36,0
232.08098,232.8653,81,36,0
232.08098,232.8653,69,36,0
232.8653,233.25745,91,36,0
232.8653,233.25745,79,36,0
233.25745,234.04176,93,62,0
233.25745,234.04176,81,54,0
234.04176,234.43391,84,36,0
234.04176,234.43391,72,36,0
234.43391,235.21823,81,36,0
234.43391,235.21823,69,36,0
235.21823,235.61038,86,36,0
235.21823,235.61038,74,36,0
235.61038,236.3947,81,36,0
235.61038,236.3947,69,36,0
236.3947,236.78687,86,36,0
236.3947,236.78687,74,36,0
236.78687,237.57117,81,36,0
236.78687,237.57117,69,36,0
237.57117,237.96333,86,36,0
237.57117,237.96333,74,36,0
237.96333,238.00255,88,36,0
237.96333,238.00255,76,36,0
238.35548,238.3947,88,36,0
238.35548,238.3947,76,36,0
238.74765,238.78687,88,36,0
238.74765,238.78687,76,36,0
239.1398,239.17902,88,36,0
239.1398,239.17902,76,36,0
239.92412,240.31627,72,36,0
240.31627,240.70844,69,36,0
240.70844,241.10059,72,36,0
241.10059,241.49274,74,36,0
241.49274,242.27705,77,36,0
242.27705,242.66922,69,36,0
242.66922,243.06137,70,36,0
243.06137,243.45352,67,36,0
243.45352,243.84569,74,36,0
243.84569,244.63,72,36,0
244.63,245.02216,79,36,0
244.63,245.02216,67,36,0
245.02216,245.80647,81,62,0
245.02216,245.80647,69,54,0
245.80647,246.19862,72,36,0
245.80647,246.19862,67,36,0
246.19862,246.98294,69,36,0
246.19862,246.98294,65,36,0
246.98294,247.37509,79,36,0
246.98294,247.37509,67,36,0
247.37509,248.15941,81,62,0
247.37509,248.15941,69,54,0
248.15941,248.55157,72,36,0
248.15941,248.55157,67,36,0
248.55157,249.33588,69,36,0
248.55157,249.33588,65,36,0
249.33588,249.72804,84,36,0
249.33588,249.72804,72,36,0
249.72804,250.1202,81,36,0
249.72804,250.1202,69,36,0
250.1202,250.51236,84,36,0
250.1202,250.51236,72,36,0
250.51236,250.90451,86,36,0
250.51236,250.90451,74,36,0
250.90451,251.68883,89,36,0
250.90451,251.68883,77,36,0
251.68883,252.08098,81,36,0
251.68883,252.08098,69,36,0
252.08098,252.47314,82,36,0
252.08098,252.47314,70,36,0
252.47314,252.8653,79,36,0
252.47314,252.8653,67,36,0
252.8653,253.25746,86,36,0
252.8653,253.25746,74,36,0
253.25746,254.04176,84,36,0
253.25746,254.04176,72,36,0
254.04176,254.43393,91,36,0
254.04176,254.43393,79,36,0
254.43393,255.21825,93,62,0
254.43393,255.21825,81,54,0
255.21825,255.6104,84,36,0
255.21825,255.6104,72,36,0
255.6104,256.3947,81,36,0
255.6104,256.3947,69,36,0
256.3947,256.78687,91,36,0
256.3947,256.78687,79,36,0
256.78687,257.57117,93,62,0
256.78687,257.57117,81,54,0
257.57117,257.96335,84,36,0
257.57117,257.96335,72,36,0
257.96335,258.74765,81,36,0
257.96335,258.74765,69,36,0
258.74765,259.1398,86,36,0
258.74765,259.1398,74,36,0
259.1398,259.92413,81,36,0
259.1398,259.92413,69,36,0
259.92413,260.31628,86,36,0
259.92413,260.31628,74,36,0
260.31628,261.1006,81,36,0
260.31628,261.1006,69,36,0
261.1006,261.49274,86,36,0
261.1006,261.49274,74,36,0
261.49274,261.53195,88,36,0
261.49274,261.53195,76,36,0
261.88492,261.92413,88,36,0
261.88492,261.92413,76,36,0
262.27707,262.31628,88,36,0
262.27707,262.31628,76,36,0
262.66922,262.70844,88,36,0
262.66922,262.70844,76,36,0
263.45352,263.8457,76,75,0
263.45352,263.8457,64,75,0
263.8457,264.63,77,101,0
263.8457,264.63,65,93,0
264.63,265.02216,76,75,0
264.63,265.02216,64,75,0
265.02216,265.8065,77,75,0
265.02216,265.8065,65,75,0
265.8065,265.8457,74,75,0
265.8065,265.8457,70,75,0
265.8065,265.8457,65,75,0
266.19864,266.23785,77,75,0
266.19864,266.23785,70,75,0
266.19864,266.23785,65,75,0
266.5908,266.63,77,75,0
266.5908,266.63,70,75,0
266.5908,266.63,65,75,0
266.98294,267.02216,72,75,0
266.98294,267.02216,69,75,0
266.98294,267.02216,65,75,0
267.3751,268.15942,74,75,0
267.3751,268.15942,70,75,0
267.3751,268.15942,65,75,0
268.15942,268.55157,74,75,0
268.15942,268.55157,62,75,0
268.55157,269.33588,75,75,0
268.55157,269.33588,63,75,0
269.33588,269.72806,74,75,0
269.33588,269.72806,62,75,0
269.72806,270.51236,75,75,0
269.72806,270.51236,63,75,0
270.51236,270.55157,70,75,0
270.51236,270.55157,67,75,0
270.51236,270.55157,62,75,0
270.9045,270.94373,74,75,0
270.9045,270.94373,67,75,0
270.9045,270.94373,62,75,0
271.29666,271.33588,74,75,0
271.29666,271.33588,67,75,0
271.29666,271.33588,62,75,0
271.68884,271.72806,69,75,0
271.68884,271.72806,66,75,0
271.68884,271.72806,62,75,0
272.081,272.8653,70,75,0
272.081,272.8653,67,75,0
272.081,272.8653,62,75,0
272.8653,273.25745,70,36,0
272.8653,273.25745,67,36,0
272.8653,273.25745,62,36,0
273.25745,274.04178,69,62,0
273.25745,274.04178,67,57,0
273.25745,274.04178,61,52,0
274.04178,274.43393,70,36,0
274.04178,274.43393,67,36,0
274.04178,274.43393,62,36,0
274.43393,275.21823,69,62,0
274.43393,275.21823,67,57,0
274.43393,275.21823,61,52,0
275.21823,275.6104,70,36,0
275.21823,275.6104,67,36,0
275.21823,275.6104,62,36,0
275.6104,277.5712,69,62,0
275.6104,277.5712,67,57,0
275.6104,277.5712,61,52,0
277.5712,277.96335,72,36,0
277.96335,278.3555,69,36,0
278.3555,278.74765,72,36,0
278.74765,279.1398,74,36,0
279.1398,279.92413,77,36,0
279.92413,280.31628,69,36,0
280.31628,280.70844,70,36,0
280.70844,281.1006,67,36,0
281.1006,281.49277,74,36,0
281.49277,282.27707,72,36,0
282.27707,282.66922,91,36,0
282.27707,282.66922,79,36,0
282.66922,283.45355,93,62,0
282.66922,283.45355,81,54,0
284.63,285.02216,91,36,0
284.63,285.02216,79,36,0
285.02216,285.8065,93,62,0
285.02216,285.8065,81,54,0
288.15942,288.55157,91,36,0
288.15942,288.55157,79,36,0
288.55157,289.3359,93,62,0
288.55157,289.3359,81,54,0
291.68884,292.081,76,75,0
291.68884,292.081,64,75,0
292.081,292.86533,77,101,0
292.081,292.86533,65,93,0
292.86533,293.25748,76,75,0
292.86533,293.25748,64,75,0
293.25748,294.04178,77,75,0
293.25748,294.04178,65,75,0
294.04178,294.081,74,75,0
294.04178,294.081,70,75,0
294.04178,294.081,65,75,0
294.43393,294.47314,77,75,0
294.43393,294.47314,70,75,0
294.43393,294.47314,65,75,0
294.8261,294.86533,77,75,0
294.8261,294.86533,70,75,0
294.8261,294.86533,65,75,0
295.21826,295.25748,72,75,0
295.21826,295.25748,69,75,0
295.21826,295.25748,65,75,0
295.6104,296.3947,74,75,0
295.6104,296.3947,70,75,0
295.6104,296.3947,65,75,0
296.3947,296.7869,74,75,0
296.3947,296.7869,62,75,0
296.7869,297.5712,75,75,0
296.7869,297.5712,63,75,0
297.5712,297.96335,74,75,0
297.5712,297.96335,62,75,0
297.96335,298.74768,75,75,0
297.96335,298.74768,63,75,0
298.74768,298.7869,70,75,0
298.74768,298.7869,67,75,0
298.74768,298.7869,62,75,0
299.13983,299.17905,74,75,0
299.13983,299.17905,67,75,0
299.13983,299.17905,62,75,0
299.53198,299.5712,74,75,0
299.53198,299.5712,67,75,0
299.53198,299.5712,62,75,0
299.92413,299.96335,69,75,0
299.92413,299.96335,66,75,0
299.92413,299.96335,62,75,0
300.31628,301.10062,70,75,0
300.31628,301.10062,67,75,0
300.31628,301.10062,62,75,0
301.10062,301.49277,70,36,0
301.10062,301.49277,67,36,0
301.10062,301.49277,62,36,0
301.49277,302.27707,69,62,0
301.49277,302.27707,67,57,0
301.49277,302.27707,61,52,0
302.27707,302.66925,70,36,0
302.27707,302.66925,67,36,0
302.27707,302.66925,62,36,0
302.66925,303.45355,69,62,0
302.66925,303.45355,67,57,0
302.66925,303.45355,61,52,0
303.45355,303.8457,70,36,0
303.45355,303.8457,67,36,0
303.45355,303.8457,62,36,0
303.8457,305.8065,69,62,0
303.8457,305.8065,67,57,0
303.8457,305.8065,61,52,0
305.8065,306.19864,72,36,0
306.19864,306.59082,69,36,0
306.59082,306.98297,72,36,0
306.98297,307.37512,74,36,0
307.37512,308.15942,77,36,0
308.15942,308.5516,69,36,0
308.5516,308.94376,70,36,0
308.94376,309.3359,67,36,0
309.3359,309.72806,74,36,0
309.72806,310.5124,72,36,0
310.5124,310.90454,91,36,0
310.5124,310.90454,79,36,0
310.90454,311.68884,93,62,0
310.90454,311.68884,81,54,0
312.86533,313.25748,91,36,0
312.86533,313.25748,79,36,0
313.25748,314.04178,93,62,0
313.25748,314.04178,81,54,0
316.39474,316.7869,91,36,0
316.39474,316.7869,79,36,0
316.7869,317.5712,93,62,0
316.7869,317.5712,81,54,0
319.92413,320.06302,69,49,0
320.06302,320.20193,69,49,0
320.20193,320.75748,71,49,0
320.20193,320.75748,68,49,0
320.20193,320.75748,64,49,0
320.75748,320.89636,69,49,0
320.89636,321.03525,69,49,0
321.03525,321.59082,71,49,0
321.03525,321.59082,68,49,0
321.03525,321.59082,64,49,0
321.59082,321.7297,69,49,0
321.7297,321.8686,69,49,0
321.8686,322.14636,71,49,0
321.8686,322.14636,68,49,0
321.8686,322.14636,64,49,0
322.14636,322.17413,72,49,0
322.14636,322.17413,69,49,0
322.14636,322.17413,64,49,0
322.42413,322.45193,71,49,0
322.42413,322.45193,68,49,0
322.42413,322.45193,64,49,0
322.70193,322.7297,72,49,0
322.70193,322.7297,69,49,0
322.70193,322.7297,64,49,0
322.9797,323.53525,76,101,0
322.9797,323.53525,71,101,0
322.9797,323.53525,64,101,0
323.53525,323.81305,72,101,0
323.53525,323.81305,69,101,0
323.53525,323.81305,64,101,0
324.09082,324.2297,72,49,0
324.2297,324.3686,72,49,0
324.3686,324.92413,74,75,0
324.92413,325.06305,72,49,0
325.06305,325.20193,72,49,0
325.20193,325.75748,74,75,0
325.75748,325.89636,72,49,0
325.89636,326.03525,72,49,0
326.03525,326.59082,74,49,0
326.59082,326.7297,76,49,0
326.7297,326.8686,76,49,0
326.8686,327.00748,79,49,0
327.00748,327.14636,77,49,0
327.14636,327.17416,76,49,0
327.42416,327.45193,74,49,0
327.70193,327.7297,72,49,0
327.9797,328.53525,79,88,0
327.9797,328.53525,67,88,0
328.53525,328.56305,76,88,0
328.53525,328.56305,64,88,0
328.81305,328.84082,72,88,0
328.81305,328.84082,60,88,0
329.09082,329.1186,69,88,0
329.09082,329.1186,57,88,0
329.3686,329.39636,65,88,0
329.3686,329.39636,53,88,0
329.64636,330.20193,81,88,0
329.64636,330.20193,69,88,0
329.64636,330.20193,74,88,0
329.64636,330.20193,77,88,0
330.20193,331.45193,86,88,0
330.20193,331.45193,81,88,0
330.20193,331.45193,77,88,0
331.45193,331.59082,84,49,0
331.59082,331.7297,83,49,0
331.7297,331.8686,81,49,0
331.8686,332.00748,79,49,0
332.14636,332.56305,91,49,0
332.56305,332.70193,88,49,0
332.70193,332.84082,88,49,0
332.84082,332.9797,84,49,0
332.9797,333.1186,84,49,0
333.1186,333.25748,81,49,0
333.25748,333.39636,81,49,0
333.39636,333.53528,77,49,0
333.53528,333.67416,77,49,0
333.81305,335.20193,80,75,0
333.81305,335.20193,75,70,0
333.81305,335.20193,72,65,0
335.20193,335.34082,74,49,0
335.34082,335.4797,76,49,0
335.4797,335.6186,77,62,0
335.6186,335.75748,76,62,0
335.75748,335.8964,74,75,0
335.8964,336.03528,76,75,0
336.8686,337.00748,79,49,0
337.00748,337.1464,77,49,0
337.1464,337.28528,77,49,0
337.28528,337.42416,76,49,0
337.42416,337.56305,76,49,0
337.56305,337.70193,74,49,0
337.70193,338.25748,72,49,0
337.70193,338.25748,64,49,0
338.25748,338.3964,79,36,0
338.3964,338.53528,79,36,0
338.53528,339.09082,67,36,0
339.09082,339.2297,79,36,0
339.2297,339.3686,79,36,0
339.3686,339.92416,69,36,0
339.92416,340.06305,79,36,0
340.06305,340.20193,79,36,0
340.20193,340.34082,71,36,0
340.34082,340.4797,79,36,0
340.4797,340.6186,72,36,0
340.6186,340.7575,79,36,0
340.7575,340.8964,74,36,0
340.8964,341.03528,79,36,0
341.03528,341.17416,76,36,0
341.17416,341.31305,79,36,0
341.31305,341.45193,74,36,0
341.45193,341.59082,80,36,0
341.59082,341.7297,72,49,0
341.7297,341.8686,81,49,0
341.8686,342.0075,81,62,0
342.0075,342.1464,86,62,0
342.1464,342.28528,83,75,0
342.28528,342.42416,88,75,0
342.42416,342.56305,83,88,0
342.56305,342.70193,91,88,0
342.70193,342.9797,84,88,0
343.2575,343.3964,72,49,0
343.3964,343.53528,72,49,0
343.53528,344.09082,73,49,0
343.53528,344.09082,70,49,0
344.09082,344.2297,72,49,0
344.09082,344.2297,68,49,0
344.2297,344.36862,72,49,0
344.2297,344.36862,68,49,0
344.36862,344.92416,70,49,0
344.36862,344.92416,67,49,0
344.92416,345.06305,68,49,0
344.92416,345.06305,65,49,0
345.06305,345.20193,68,49,0
345.06305,345.20193,65,49,0
345.20193,345.4797,67,49,0
345.20193,345.4797,64,49,0
345.4797,345.5075,67,49,0
345.4797,345.5075,64,49,0
345.7575,345.78528,68,49,0
345.7575,345.78528,65,49,0
346.03528,346.59082,67,49,0
346.03528,346.59082,64,49,0
346.59082,346.7297,60,36,0
346.7297,346.86862,60,36,0
346.86862,347.42416,61,36,0
346.86862,347.42416,58,36,0
347.42416,347.56305,60,36,0
347.42416,347.56305,56,36,0
347.56305,347.70193,60,36,0
347.56305,347.70193,56,36,0
347.70193,348.2575,58,36,0
347.70193,348.2575,55,36,0
348.2575,348.3964,56,36,0
348.2575,348.3964,53,36,0
348.3964,348.53528,56,36,0
348.3964,348.53528,53,36,0
348.53528,348.81305,55,36,0
348.53528,348.81305,52,36,0
348.81305,348.84082,55,36,0
348.81305,348.84082,52,36,0
349.09082,349.11862,56,36,0
349.09082,349.11862,53,36,0
349.36862,349.92416,55,36,0
349.36862,349.92416,52,36,0
350.47974,351.31305,75,88,0
350.47974,351.31305,63,88,0
350.47974,351.31305,67,88,0
350.47974,351.31305,70,88,0
351.31305,352.1464,75,88,0
351.31305,352.1464,63,88,0
351.31305,352.1464,67,88,0
351.31305,352.1464,70,88,0
352.1464,352.17416,75,88,0
352.1464,352.17416,63,88,0
352.1464,352.17416,67,88,0
352.1464,352.17416,70,88,0
352.42416,352.45193,75,88,0
352.42416,352.45193,63,88,0
352.42416,352.45193,67,88,0
352.42416,352.45193,70,88,0
352.70193,352.72974,75,101,0
352.70193,352.72974,63,101,0
352.70193,352.72974,67,101,0
352.70193,352.72974,70,101,0
352.97974,353.0075,79,101,0
352.97974,353.0075,75,101,0
352.97974,353.0075,70,101,0
353.2575,353.28528,82,101,0
353.2575,353.28528,79,101,0
353.2575,353.28528,75,101,0
353.53528,353.56305,85,114,0
353.53528,353.56305,82,114,0
353.53528,353.56305,75,114,0
354.92416,355.06305,63,49,0
355.06305,356.03528,63,49,0
356.03528,356.86862,63,49,0
356.86862,356.8964,73,49,0
356.86862,356.8964,70,49,0
356.86862,356.8964,65,49,0
357.1464,357.17416,73,49,0
357.1464,357.17416,70,49,0
357.1464,357.17416,65,49,0
357.42416,357.45197,72,49,0
357.42416,357.45197,69,49,0
357.42416,357.45197,65,49,0
357.70197,358.2575,73,49,0
357.70197,358.2575,70,49,0
358.2575,358.53528,72,49,0
358.2575,358.53528,69,49,0
358.53528,359.09085,77,49,0
358.53528,359.09085,73,49,0
359.09085,359.36862,75,49,0
359.09085,359.36862,72,49,0
359.36862,359.92416,77,49,0
359.36862,359.92416,73,49,0
359.92416,360.20197,75,49,0
359.92416,360.20197,72,49,0
360.20197,360.22974,77,49,0
360.20197,360.22974,73,49,0
360.20197,360.22974,68,49,0
360.47974,360.5075,77,49,0
360.47974,360.5075,73,49,0
360.47974,360.5075,68,49,0
360.7575,360.78528,79,49,0
360.7575,360.78528,75,49,0
360.7575,360.78528,70,49,0
361.03528,361.59085,80,62,0
361.03528,361.59085,75,62,0
361.03528,361.59085,68,62,0
361.59085,361.86862,79,62,0
361.59085,361.86862,75,62,0
361.59085,361.86862,70,62,0
361.86862,362.42416,80,101,0
361.86862,362.42416,75,96,0
361.86862,362.42416,68,91,0
362.42416,362.70197,79,75,0
362.42416,362.70197,75,75,0
362.42416,362.70197,70,75,0
362.70197,362.72974,80,114,0
362.70197,362.72974,75,109,0
362.70197,362.72974,68,104,0
362.97974,363.0075,80,114,0
362.97974,363.0075,75,109,0
362.97974,363.0075,68,104,0
363.2575,363.28528,82,114,0
363.2575,363.28528,75,109,0
363.2575,363.28528,70,104,0
363.53528,363.56308,84,114,0
363.53528,363.56308,75,109,0
363.53528,363.56308,72,104,0
363.81308,363.84085,85,127,0
363.81308,363.84085,80,122,0
363.81308,363.84085,73,117,0
364.09085,364.11862,87,127,0
364.09085,364.11862,80,122,0
364.09085,364.11862,75,117,0
364.36862,364.3964,89,127,0
364.36862,364.3964,80,122,0
364.36862,364.3964,77,117,0
364.9242,365.06308,68,101,0
365.06308,365.20197,68,101,0
365.20197,367.1464,71,88,0
367.97974,368.11862,63,49,0
368.11862,368.2575,63,49,0
368.2575,368.81308,75,49,0
368.81308,368.95197,63,49,0
368.95197,369.09085,63,49,0
369.09085,369.6464,75,49,0
369.6464,369.6742,75,49,0
369.6464,369.6742,63,49,0
369.9242,369.95197,79,49,0
369.9242,369.95197,67,49,0
370.20197,370.22974,80,49,0
370.20197,370.22974,68,49,0
370.47974,370.5075,82,49,0
370.47974,370.5075,70,49,0
370.7575,370.7853,83,49,0
370.7575,370.7853,71,49,0
371.0353,371.06308,85,49,0
371.0353,371.06308,73,49,0
371.31308,371.34085,87,49,0
371.31308,371.34085,75,49,0
371.59085,371.61862,88,49,0
371.59085,371.61862,76,49,0
371.86862,372.4242,87,49,0
371.86862,372.4242,75,49,0
372.97974,373.11862,63,49,0
373.11862,373.2575,63,49,0
373.2575,373.81308,75,49,0
373.81308,373.95197,63,49,0
373.95197,374.09085,63,49,0
374.09085,374.64642,75,49,0
374.64642,374.9242,75,49,0
374.64642,374.9242,63,49,0
374.9242,375.20197,75,49,0
374.9242,375.20197,63,49,0
375.20197,375.47974,76,49,0
375.20197,375.47974,64,49,0
375.47974,375.5075,78,49,0
375.47974,375.5075,66,49,0
375.7575,375.7853,79,49,0
375.7575,375.7853,67,49,0
376.0353,376.06308,81,62,0
376.0353,376.06308,69,62,0
376.31308,376.34085,83,75,0
376.31308,376.34085,71,75,0
376.59085,376.61862,84,75,0
376.59085,376.61862,72,75,0
376.86862,377.4242,83,49,0
376.86862,377.4242,71,49,0
377.4242,377.56308,76,36,0
377.56308,377.70197,76,36,0
377.70197,378.25754,66,36,0
378.25754,378.39642,76,36,0
378.39642,378.5353,76,36,0
378.5353,379.09085,71,36,0
379.09085,379.36862,83,36,0
379.36862,379.50754,83,36,0
379.50754,379.64642,81,36,0
379.64642,379.7853,81,36,0
379.7853,379.9242,83,36,0
379.9242,380.06308,83,36,0
380.06308,380.20197,84,36,0
380.20197,380.75754,83,36,0
380.75754,380.89642,76,36,0
380.89642,381.0353,76,36,0
381.0353,381.59085,66,36,0
381.59085,381.72974,76,36,0
381.72974,381.86865,76,36,0
381.86865,382.458,71,36,0
382.458,382.62106,76,36,0
382.62106,382.7915,76,36,0
382.7915,383.5523,66,36,0
383.5523,383.7497,76,36,0
383.7497,383.94705,76,36,0
383.94705,384.7365,71,36,0
384.7365,384.9339,67,36,0
384.9339,385.13126,71,36,0
385.13126,385.27014,71,36,0
385.27014,385.40903,69,36,0
385.40903,385.54794,69,36,0
385.54794,385.68683,67,36,0
385.68683,385.8257,67,36,0
385.8257,385.9646,66,36,0
385.9646,386.24237,64,36,0
386.52014,386.65903,71,88,0
386.52014,386.65903,68,88,0
386.65903,386.79794,71,88,0
386.65903,386.79794,68,88,0
386.79794,387.3535,72,88,0
386.79794,387.3535,69,88,0
387.3535,387.49237,71,88,0
387.3535,387.49237,68,88,0
387.49237,387.63126,71,88,0
387.49237,387.63126,68,88,0
387.63126,388.18683,77,114,0
387.63126,388.18683,74,106,0
388.18683,388.3257,76,88,0
388.18683,388.3257,72,88,0
388.3257,388.4646,76,88,0
388.3257,388.4646,72,88,0
388.4646,388.74237,74,88,0
388.4646,388.74237,71,88,0
388.74237,388.77014,74,88,0
388.74237,388.77014,71,88,0
389.02014,389.04794,72,88,0
389.02014,389.04794,69,88,0
389.02014,389.04794,63,88,0
389.29794,389.8535,71,88,0
389.29794,389.8535,68,88,0
389.29794,389.8535,64,88,0
389.8535,389.99237,59,88,0
389.8535,389.99237,56,88,0
389.99237,390.13126,59,88,0
389.99237,390.13126,56,88,0
390.13126,390.68683,60,88,0
390.13126,390.68683,57,88,0
390.68683,390.8257,59,88,0
390.68683,390.8257,56,88,0
390.8257,390.9646,59,88,0
390.8257,390.9646,56,88,0
390.9646,391.52014,65,114,0
390.9646,391.52014,62,106,0
391.52014,391.65906,64,88,0
391.52014,391.65906,60,88,0
391.65906,391.79794,64,88,0
391.65906,391.79794,60,88,0
391.79794,392.0757,62,88,0
391.79794,392.0757,59,88,0
392.0757,392.1035,62,88,0
392.0757,392.1035,59,88,0
392.3535,392.38126,60,88,0
392.3535,392.38126,57,88,0
392.63126,393.18683,59,88,0
392.63126,393.18683,56,88,0
392.63126,393.18683,52,88,0
393.18683,393.3257,60,49,0
393.18683,393.3257,57,49,0
393.18683,393.3257,51,49,0
393.3257,393.4646,60,49,0
393.3257,393.4646,57,49,0
393.3257,393.4646,51,49,0
393.4646,394.02017,59,49,0
393.4646,394.02017,56,49,0
393.4646,394.02017,52,49,0
394.02017,394.15906,60,49,0
394.02017,394.15906,57,49,0
394.02017,394.15906,51,49,0
394.15906,394.29794,60,49,0
394.15906,394.29794,57,49,0
394.15906,394.29794,51,49,0
394.29794,394.8535,59,49,0
394.29794,394.8535,56,49,0
394.29794,394.8535,52,49,0
394.8535,394.99237,60,49,0
394.8535,394.99237,57,49,0
394.8535,394.99237,51,49,0
394.99237,395.13126,60,49,0
394.99237,395.13126,57,49,0
394.99237,395.13126,51,49,0
395.13126,395.68683,59,49,0
395.13126,395.68683,56,49,0
395.13126,395.68683,52,49,0
395.68683,395.8257,60,49,0
395.68683,395.8257,57,49,0
395.68683,395.8257,51,49,0
395.8257,395.9646,60,49,0
395.8257,395.9646,57,49,0
395.8257,395.9646,51,49,0
395.9646,396.52017,59,49,0
395.9646,396.52017,56,49,0
395.9646,396.52017,52,49,0
396.52017,396.65906,60,49,0
396.52017,396.65906,57,49,0
396.52017,396.65906,51,49,0
396.65906,396.79794,60,49,0
396.65906,396.79794,57,49,0
396.65906,396.79794,51,49,0
396.79794,397.3535,59,49,0
396.79794,397.3535,56,49,0
396.79794,397.3535,52,49,0
397.3535,397.49237,69,49,0
397.49237,397.6313,69,49,0
397.6313,398.18683,71,49,0
397.6313,398.18683,68,49,0
397.6313,398.18683,64,49,0
398.18683,398.3257,69,49,0
398.3257,398.4646,69,49,0
398.4646,399.02017,71,49,0
398.4646,399.02017,68,49,0
398.4646,399.02017,64,49,0
399.02017,399.15906,69,49,0
399.15906,399.29794,69,49,0
399.29794,399.5757,71,49,0
399.29794,399.5757,68,49,0
399.29794,399.5757,64,49,0
399.5757,399.6035,72,62,0
399.5757,399.6035,69,62,0
399.5757,399.6035,64,62,0
399.8535,399.8813,71,75,0
399.8535,399.8813,68,75,0
399.8535,399.8813,64,75,0
400.1313,400.15906,72,88,0
400.1313,400.15906,69,88,0
400.1313,400.15906,64,88,0
400.40906,400.9646,76,101,0
400.40906,400.9646,71,101,0
400.40906,400.9646,64,101,0
400.9646,401.2424,72,101,0
400.9646,401.2424,69,101,0
400.9646,401.2424,64,101,0
401.52017,401.65906,69,49,0
401.65906,401.79794,69,49,0
401.79794,402.3535,71,75,0
402.3535,402.4924,69,49,0
402.4924,402.6313,69,49,0
402.6313,403.18683,71,75,0
403.18683,403.3257,69,49,0
403.3257,403.4646,69,49,0
403.4646,404.02017,71,75,0
404.02017,404.15906,73,49,0
404.15906,404.29794,73,49,0
404.29794,404.43683,76,49,0
404.43683,404.5757,74,49,0
404.5757,404.6035,73,49,0
404.85352,404.8813,71,49,0
405.1313,405.40906,69,49,0
405.40906,405.9646,76,101,0
405.40906,405.9646,64,101,0
405.9646,405.9924,73,101,0
405.9646,405.9924,61,101,0
406.2424,406.27017,69,101,0
406.2424,406.27017,57,101,0
406.52017,406.54794,66,101,0
406.52017,406.54794,54,101,0
406.79794,407.0757,62,101,0
406.79794,407.0757,50,101,0
407.0757,407.6313,78,88,0
407.0757,407.6313,74,88,0
407.0757,407.6313,71,88,0
407.6313,408.8813,83,88,0
407.6313,408.8813,78,88,0
407.6313,408.8813,74,88,0
408.8813,409.02017,81,36,0
409.02017,409.15906,80,36,0
409.15906,409.29794,78,36,0
409.29794,409.5757,76,36,0
409.5757,409.9924,88,36,0
409.9924,410.1313,85,36,0
410.1313,410.27017,85,36,0
410.27017,410.40906,81,36,0
410.40906,410.54794,81,36,0
410.54794,410.68683,78,36,0
410.68683,410.8257,78,36,0
410.8257,410.96463,74,36,0
410.96463,410.9924,74,36,0
411.2424,412.6313,77,62,0
411.2424,412.6313,72,57,0
411.2424,412.6313,69,52,0
413.46463,414.02017,74,96,0
412.6313,414.02017,68,49,0
414.02017,414.29794,73,75,0
414.02017,414.29794,69,75,0
412.6313,414.29794,76,49,0
414.29794,414.43683,76,49,0
414.43683,414.57574,74,49,0
414.57574,414.71463,74,49,0
414.71463,414.85352,73,49,0
414.85352,414.9924,73,49,0
414.9924,415.1313,71,49,0
415.1313,415.40906,69,49,0
415.1313,415.40906,61,49,0
415.68683,415.82574,76,49,0
415.82574,415.96463,76,49,0
415.96463,416.52017,64,75,0
416.52017,416.65906,76,49,0
416.65906,416.79794,76,49,0
416.79794,417.35352,66,49,0
417.35352,417.4924,76,49,0
417.4924,417.6313,76,49,0
417.6313,417.77017,68,49,0
417.77017,417.90906,76,49,0
417.90906,418.04794,69,49,0
418.04794,418.18686,76,49,0
418.18686,418.32574,71,49,0
418.32574,418.46463,76,49,0
418.46463,418.60352,73,62,0
418.60352,418.7424,76,62,0
418.7424,418.8813,71,62,0
418.8813,419.02017,77,62,0
419.02017,419.15906,69,62,0
419.15906,419.29794,78,62,0
419.29794,419.43686,78,75,0
419.43686,419.57574,83,75,0
419.57574,419.71463,80,75,0
419.71463,419.85352,85,75,0
419.85352,419.9924,80,75,0
419.9924,420.1313,88,75,0
420.1313,420.40906,81,88,0
420.68686,420.82574,76,101,0
420.68686,420.82574,68,101,0
420.68686,420.82574,71,101,0
420.68686,420.82574,74,101,0
420.82574,420.96463,76,101,0
420.82574,420.96463,68,101,0
420.82574,420.96463,71,101,0
420.82574,420.96463,74,101,0
420.96463,421.52017,76,127,0
420.96463,421.52017,73,122,0
420.96463,421.52017,69,117,0
421.52017,421.65906,76,101,0
421.52017,421.65906,68,101,0
421.52017,421.65906,71,101,0
421.52017,421.65906,74,101,0
421.65906,421.79797,76,101,0
421.65906,421.79797,68,101,0
421.65906,421.79797,71,101,0
421.65906,421.79797,74,101,0
421.79797,422.35352,76,127,0
421.79797,422.35352,73,122,0
421.79797,422.35352,69,117,0
422.35352,422.4924,80,101,0
422.35352,422.4924,71,101,0
422.35352,422.4924,74,101,0
422.35352,422.4924,76,101,0
422.4924,422.6313,80,101,0
422.4924,422.6313,71,101,0
422.4924,422.6313,74,101,0
422.4924,422.6313,76,101,0
422.6313,423.18686,81,127,0
422.6313,423.18686,76,122,0
422.6313,423.18686,73,117,0
423.18686,423.32574,83,101,0
423.18686,423.32574,80,101,0
423.18686,423.32574,76,101,0
423.32574,423.46463,83,101,0
423.32574,423.46463,80,101,0
423.32574,423.46463,76,101,0
423.46463,424.02017,85,127,0
423.46463,424.02017,81,122,0
423.46463,424.02017,76,117,0
424.02017,424.15906,88,101,0
424.02017,424.15906,80,101,0
424.02017,424.15906,83,101,0
424.02017,424.15906,86,101,0
424.15906,424.29797,88,101,0
424.15906,424.29797,80,101,0
424.15906,424.29797,83,101,0
424.15906,424.29797,86,101,0
424.29797,424.32574,88,127,0
424.29797,424.32574,85,122,0
424.29797,424.32574,81,117,0
424.57574,424.60352,88,127,0
424.57574,424.60352,85,122,0
424.57574,424.60352,81,117,0
424.85352,424.8813,92,127,0
424.85352,424.8813,83,115,0
424.85352,424.8813,86,119,0
424.85352,424.8813,88,123,0
425.1313,425.40906,93,127,0
425.1313,425.40906,81,115,0
425.1313,425.40906,85,119,0
425.1313,425.40906,88,123,0
4.16667,4.444448,67,36,0
4.444448,5.000004,67,36,0
5.000004,5.277782,67,36,0
5.277782,5.833338,67,36,0
5.833338,6.111116,67,36,0
6.111116,6.666672,67,36,0
6.666672,6.94445,72,36,0
6.94445,7.222228,72,36,0
7.222228,7.2500057,72,36,0
7.500006,7.527784,71,36,0
16.111124,16.66668,77,96,0
15.27779,16.66668,71,36,0
16.66668,16.944458,76,75,0
16.66668,16.944458,72,75,0
15.27779,16.944458,79,36,0
16.944458,17.222237,74,36,0
16.944458,17.222237,69,36,0
17.222237,17.500013,72,36,0
17.222237,17.500013,67,36,0
17.500013,17.777792,71,36,0
17.500013,17.777792,65,36,0
27.500023,27.7778,67,36,0
27.7778,28.333357,67,36,0
28.333357,28.611134,67,36,0
28.611134,29.16669,67,36,0
29.16669,29.444468,67,36,0
29.444468,30.000025,67,36,0
30.000025,30.277802,72,36,0
30.277802,30.55558,72,36,0
30.55558,30.583357,72,36,0
30.833359,30.861135,71,36,0
39.444477,40.00003,77,96,0
38.61114,40.00003,71,36,0
40.00003,40.27781,76,75,0
40.00003,40.27781,72,75,0
38.61114,40.27781,79,36,0
40.27781,40.555588,74,36,0
40.27781,40.555588,69,36,0
40.555588,40.833366,72,36,0
40.555588,40.833366,67,36,0
40.833366,41.111145,71,36,0
40.833366,41.111145,65,36,0
58.611156,59.166714,72,49,0
58.611156,59.166714,68,49,0
59.166714,59.444492,70,49,0
59.166714,59.444492,67,49,0
59.444492,60.00005,72,49,0
59.444492,60.00005,68,49,0
60.00005,60.277824,70,49,0
60.00005,60.277824,67,49,0
61.11116,61.944492,65,49,0
61.944492,62.77783,68,49,0
62.77783,63.61116,68,49,0
88.540474,88.818245,66,49,0
88.818245,89.09602,64,49,0
89.09602,89.3738,63,49,0
104.929375,105.20715,64,36,0
105.20715,105.7627,64,36,0
105.7627,106.04048,64,36,0
106.04048,106.59604,64,36,0
106.59604,106.87382,64,36,0
106.87382,107.429375,64,36,0
107.429375,107.70715,69,36,0
107.70715,107.98493,69,36,0
107.98493,108.01271,69,36,0
108.26271,108.29049,68,36,0
116.04049,116.17938,71,49,0
116.17938,116.31827,73,49,0
116.31827,116.45716,74,62,0
116.45716,116.59605,73,62,0
116.59605,116.73494,71,75,0
116.73494,116.873825,73,75,0
117.70716,117.98494,71,36,0
117.70716,117.98494,66,36,0
117.98494,118.26272,69,36,0
117.98494,118.26272,64,36,0
118.26272,118.5405,68,36,0
118.26272,118.5405,62,36,0
141.04051,141.59607,72,49,0
141.04051,141.59607,68,49,0
141.59607,141.87384,70,49,0
141.59607,141.87384,67,49,0
141.87384,142.4294,72,49,0
141.87384,142.4294,68,49,0
142.4294,142.70718,70,49,0
142.4294,142.70718,67,49,0
143.54051,144.37386,65,49,0
144.37386,145.20718,68,49,0
145.20718,146.04051,68,49,0
170.96982,171.2476,66,49,0
171.2476,171.52538,64,49,0
171.52538,171.80316,63,49,0
187.35873,187.6365,64,36,0
187.6365,188.19206,64,36,0
188.19206,188.46983,64,36,0
188.46983,189.02539,64,36,0
189.02539,189.30318,64,36,0
189.30318,189.85873,64,36,0
189.85873,190.1365,69,36,0
190.1365,190.41429,69,36,0
190.41429,190.44206,69,36,0
190.69206,190.71983,68,36,0
198.46985,198.60873,71,49,0
198.60873,198.74762,73,49,0
198.74762,198.88652,74,62,0
198.88652,199.0254,73,62,0
199.0254,199.16429,71,75,0
199.16429,199.30318,73,75,0
200.13652,200.41429,71,36,0
200.13652,200.41429,66,36,0
200.41429,200.69208,69,36,0
200.41429,200.69208,64,36,0
200.69208,200.96985,68,36,0
200.69208,200.96985,62,36,0
283.45355,283.8457,48,36,0
283.8457,284.63,41,36,0
285.8065,286.19864,48,36,0
286.19864,286.98297,41,36,0
286.98297,287.37512,48,36,0
287.37512,288.15942,41,36,0
289.3359,289.72806,48,36,0
289.72806,291.68884,41,36,0
311.68884,312.081,48,36,0
312.081,312.86533,41,36,0
314.04178,314.43396,48,36,0
314.43396,315.21826,41,36,0
315.21826,315.6104,48,36,0
315.6104,316.39474,41,36,0
317.5712,317.96335,48,36,0
317.96335,319.92413,41,36,0
324.09082,324.3686,67,36,0
324.3686,324.92413,67,36,0
324.92413,325.20193,67,36,0
325.20193,325.75748,67,36,0
325.75748,326.03525,67,36,0
326.03525,326.59082,67,36,0
326.59082,326.8686,72,36,0
326.8686,327.14636,72,36,0
327.14636,327.17416,72,36,0
327.42416,327.45193,71,36,0
336.03528,336.59082,77,96,0
335.20193,336.59082,71,36,0
336.59082,336.8686,76,75,0
336.59082,336.8686,72,75,0
335.20193,336.8686,79,36,0
336.8686,337.1464,74,36,0
336.8686,337.1464,69,36,0
337.1464,337.42416,72,36,0
337.1464,337.42416,67,36,0
337.42416,337.70193,71,36,0
337.42416,337.70193,65,36,0
355.20193,355.7575,72,49,0
355.20193,355.7575,68,49,0
355.7575,356.03528,70,49,0
355.7575,356.03528,67,49,0
356.03528,356.59085,72,49,0
356.03528,356.59085,68,49,0
356.59085,356.86862,70,49,0
356.59085,356.86862,67,49,0
357.70197,358.53528,65,49,0
358.53528,359.36862,68,49,0
359.36862,360.20197,68,49,0
385.13126,385.40903,66,49,0
385.40903,385.68683,64,49,0
385.68683,385.9646,63,49,0
401.52017,401.79794,64,36,0
401.79794,402.3535,64,36,0
402.3535,402.6313,64,36,0
402.6313,403.18683,64,36,0
403.18683,403.4646,64,36,0
403.4646,404.02017,64,36,0
404.02017,404.29794,69,36,0
404.29794,404.5757,69,36,0
404.5757,404.6035,69,36,0
404.85352,404.8813,68,36,0
412.6313,412.77017,71,49,0
412.77017,412.90906,73,49,0
412.90906,413.04794,74,62,0
413.04794,413.18683,73,62,0
413.18683,413.32574,71,75,0
413.32574,413.46463,73,75,0
414.29794,414.57574,71,36,0
414.29794,414.57574,66,36,0
414.57574,414.85352,69,36,0
414.57574,414.85352,64,36,0
414.85352,415.1313,68,36,0
414.85352,415.1313,62,36,0
0.0,0.138889,57,36,0
0.138889,0.277778,57,36,0
0.277778,0.833334,52,36,0
0.833334,0.972223,57,36,0
0.972223,1.111112,57,36,0
1.111112,1.666668,52,36,0
1.666668,1.805557,57,36,0
1.805557,1.944446,57,36,0
1.944446,2.222224,52,36,0
2.222224,2.250002,57,36,0
2.500002,2.5277798,52,36,0
2.77778,2.8055577,57,36,0
3.055558,3.611114,44,88,0
3.055558,3.611114,32,88,0
3.611114,3.888892,45,88,0
3.611114,3.888892,33,88,0
4.16667,4.444448,64,36,0
4.16667,4.444448,60,36,0
4.444448,5.000004,65,36,0
4.444448,5.000004,59,36,0
5.000004,5.277782,64,36,0
5.000004,5.277782,60,36,0
5.277782,5.833338,65,36,0
5.277782,5.833338,59,36,0
5.833338,6.111116,64,36,0
5.833338,6.111116,60,36,0
6.111116,6.666672,65,36,0
6.111116,6.666672,59,36,0
6.666672,6.94445,67,36,0
6.666672,6.94445,58,36,0
6.94445,7.222228,65,36,0
6.94445,7.222228,57,36,0
6.666672,7.222228,60,36,0
7.222228,7.2500057,67,36,0
7.222228,7.2500057,55,36,0
7.500006,7.527784,65,36,0
7.500006,7.527784,55,36,0
7.777784,7.805562,64,36,0
7.777784,7.805562,60,36,0
8.055562,8.611118,64,75,0
8.055562,8.611118,52,75,0
8.611118,8.638896,60,75,0
8.611118,8.638896,48,75,0
8.888896,8.916674,57,75,0
8.888896,8.916674,45,75,0
9.166674,9.194451,53,75,0
9.166674,9.194451,41,75,0
9.444452,9.47223,50,75,0
9.444452,9.47223,38,75,0
9.72223,10.277786,47,75,0
9.72223,10.277786,35,75,0
10.277786,11.944454,69,75,0
10.277786,11.944454,65,75,0
10.277786,11.944454,59,75,0
11.944454,12.083343,67,36,0
11.944454,12.083343,64,36,0
11.944454,12.083343,60,36,0
12.222232,12.777788,79,62,0
12.222232,12.777788,76,54,0
12.777788,12.805566,76,36,0
12.777788,12.805566,72,36,0
13.055566,13.0833435,72,36,0
13.055566,13.0833435,69,36,0
13.333344,13.361122,69,36,0
13.333344,13.361122,65,36,0
13.611122,13.750011,65,36,0
13.611122,13.750011,62,36,0
13.8889,15.27779,68,62,0
13.8889,15.27779,63,57,0
13.8889,15.27779,60,52,0
15.27779,15.416679,74,36,0
15.416679,15.555568,76,36,0
15.555568,15.694457,77,49,0
15.694457,15.833346,76,49,0
15.833346,15.972235,74,62,0
15.972235,16.111124,76,62,0
21.111128,21.250017,60,62,0
21.250017,21.388906,64,62,0
21.388906,21.527796,59,62,0
21.527796,21.666683,64,62,0
21.666683,21.805573,57,62,0
21.805573,21.944462,64,62,0
21.944462,22.083351,53,49,0
22.083351,22.22224,62,49,0
22.22224,22.36113,55,62,0
22.36113,22.500017,64,62,0
22.500017,22.638906,55,75,0
22.638906,22.777796,65,75,0
22.777796,23.055574,64,75,0
22.777796,23.055574,60,75,0
23.333351,23.47224,57,36,0
23.47224,23.61113,57,36,0
23.61113,24.166685,52,36,0
24.166685,24.305574,57,36,0
24.305574,24.444464,57,36,0
24.444464,25.00002,52,36,0
25.00002,25.138908,57,36,0
25.138908,25.277798,57,36,0
25.277798,25.555576,52,36,0
25.555576,25.583353,57,36,0
25.833355,25.861132,52,36,0
26.111132,26.13891,57,36,0
26.38891,26.944466,44,88,0
26.38891,26.944466,32,88,0
26.944466,27.222244,45,88,0
26.944466,27.222244,33,88,0
27.500023,27.7778,64,36,0
27.500023,27.7778,60,36,0
27.7778,28.333357,65,36,0
27.7778,28.333357,59,36,0
28.333357,28.611134,64,36,0
28.333357,28.611134,60,36,0
28.611134,29.16669,65,36,0
28.611134,29.16669,59,36,0
29.16669,29.444468,64,36,0
29.16669,29.444468,60,36,0
29.444468,30.000025,65,36,0
29.444468,30.000025,59,36,0
30.000025,30.277802,67,36,0
30.000025,30.277802,58,36,0
30.277802,30.55558,65,36,0
30.277802,30.55558,57,36,0
30.000025,30.55558,60,36,0
30.55558,30.583357,67,36,0
30.55558,30.583357,55,36,0
30.833359,30.861135,65,36,0
30.833359,30.861135,55,36,0
31.111135,31.138914,64,36,0
31.111135,31.138914,60,36,0
31.388914,31.94447,64,75,0
31.388914,31.94447,52,75,0
31.94447,31.972248,60,75,0
31.94447,31.972248,48,75,0
32.222248,32.250027,57,75,0
32.222248,32.250027,45,75,0
32.500027,32.527805,53,75,0
32.500027,32.527805,41,75,0
32.777805,32.80558,50,75,0
32.777805,32.80558,38,75,0
33.05558,33.611137,47,75,0
33.05558,33.611137,35,75,0
33.611137,35.277805,69,75,0
33.611137,35.277805,65,75,0
33.611137,35.277805,59,75,0
35.277805,35.416695,67,36,0
35.277805,35.416695,64,36,0
35.277805,35.416695,60,36,0
35.555584,36.11114,79,62,0
35.555584,36.11114,76,54,0
36.11114,36.138916,76,36,0
36.11114,36.138916,72,36,0
36.38892,36.416695,72,36,0
36.38892,36.416695,69,36,0
36.666695,36.694473,69,36,0
36.666695,36.694473,65,36,0
36.944473,37.083363,65,36,0
36.944473,37.083363,62,36,0
37.22225,38.61114,68,62,0
37.22225,38.61114,63,57,0
37.22225,38.61114,60,52,0
38.61114,38.75003,74,36,0
38.75003,38.88892,76,36,0
38.88892,39.02781,77,49,0
39.02781,39.1667,76,49,0
39.1667,39.305588,74,62,0
39.305588,39.444477,76,62,0
44.44448,44.58337,60,62,0
44.58337,44.72226,64,62,0
44.72226,44.86115,59,62,0
44.86115,45.000034,64,62,0
45.000034,45.138924,57,62,0
45.138924,45.277813,64,62,0
45.277813,45.416702,53,49,0
45.416702,45.55559,62,49,0
45.55559,45.69448,55,62,0
45.69448,45.83337,64,62,0
45.83337,45.97226,55,75,0
45.97226,46.11115,65,75,0
46.11115,46.388927,64,75,0
46.11115,46.388927,60,75,0
47.22226,48.055595,60,36,0
48.055595,48.888927,60,36,0
48.888927,48.916706,61,36,0
49.166706,49.194485,59,36,0
49.444485,49.583374,60,36,0
49.722263,50.555595,48,36,0
50.555595,51.38893,48,36,0
51.38893,52.222263,48,36,0
52.222263,52.250042,49,36,0
52.500042,52.52782,47,36,0
52.77782,52.8056,48,36,0
53.0556,53.083374,36,36,0
53.333378,53.472263,60,101,0
53.333378,53.472263,48,101,0
53.472263,53.611153,60,101,0
53.472263,53.611153,48,101,0
53.611153,54.16671,61,101,0
53.611153,54.16671,49,101,0
54.16671,54.3056,60,101,0
54.16671,54.3056,48,101,0
54.3056,54.44449,60,101,0
54.3056,54.44449,48,101,0
54.44449,55.000046,61,101,0
54.44449,55.000046,49,101,0
55.000046,55.13893,60,101,0
55.000046,55.13893,48,101,0
55.13893,55.27782,60,101,0
55.13893,55.27782,48,101,0
55.27782,55.3056,61,101,0
55.27782,55.3056,49,101,0
55.5556,55.583378,58,101,0
55.5556,55.583378,46,101,0
55.833378,55.861156,55,101,0
55.833378,55.861156,43,101,0
56.111156,56.138935,51,88,0
56.111156,56.138935,39,88,0
56.388935,56.41671,49,88,0
56.388935,56.41671,37,88,0
56.666714,56.69449,46,88,0
56.666714,56.69449,34,88,0
56.94449,56.972267,43,101,0
56.94449,56.972267,31,101,0
58.888935,59.027824,44,36,0
59.027824,59.166714,44,36,0
59.166714,59.194492,51,36,0
59.72227,59.86116,44,36,0
59.86116,60.00005,44,36,0
60.00005,60.027824,51,36,0
60.277824,60.305603,46,36,0
60.555603,60.58338,49,36,0
60.83338,60.86116,53,36,0
61.38894,61.52783,46,36,0
61.52783,61.666718,46,36,0
61.666718,61.694492,53,36,0
62.22227,62.36116,49,36,0
62.36116,62.50005,49,36,0
62.50005,62.52783,56,36,0
63.055607,63.194496,49,36,0
63.194496,63.333385,49,36,0
63.333385,63.36116,56,36,0
63.88894,63.916718,49,36,0
64.16672,64.194496,63,36,0
64.16672,64.194496,61,36,0
64.722275,64.86116,63,49,0
64.722275,64.86116,60,49,0
64.86116,65.00005,63,49,0
64.86116,65.00005,60,49,0
65.00005,65.02783,63,49,0
65.00005,65.02783,61,49,0
65.55561,65.694496,63,62,0
65.55561,65.694496,60,62,0
65.694496,65.83339,63,62,0
65.694496,65.83339,60,62,0
65.83339,65.86116,63,62,0
65.83339,65.86116,61,62,0
66.38894,66.41672,63,101,0
66.38894,66.41672,60,93,0
66.66672,66.694496,63,101,0
66.66672,66.694496,58,93,0
66.944496,66.972275,63,101,0
66.944496,66.972275,56,93,0
67.222275,67.25005,61,114,0
67.222275,67.25005,56,109,0
67.222275,67.25005,53,104,0
67.50005,67.52783,60,114,0
67.50005,67.52783,56,109,0
67.50005,67.52783,51,104,0
67.77783,69.722275,59,88,0
67.77783,69.722275,56,88,0
67.77783,69.722275,50,88,0
70.83339,70.97228,51,36,0
70.97228,71.11117,51,36,0
71.11117,71.666725,59,36,0
71.11117,71.666725,56,36,0
71.666725,71.9445,58,36,0
71.666725,71.9445,55,36,0
71.9445,72.50006,59,36,0
71.9445,72.50006,56,36,0
72.50006,72.52783,58,36,0
72.50006,72.52783,55,36,0
72.77784,72.80561,59,36,0
72.77784,72.80561,56,36,0
73.05561,73.08339,59,36,0
73.05561,73.08339,56,36,0
73.33339,73.36117,61,36,0
73.33339,73.36117,58,36,0
73.33339,73.36117,56,36,0
73.61117,73.63895,63,36,0
73.61117,73.63895,59,36,0
73.61117,73.63895,56,36,0
73.88895,73.916725,61,36,0
73.88895,73.916725,58,36,0
73.88895,73.916725,56,36,0
74.166725,74.1945,59,36,0
74.166725,74.1945,56,36,0
74.4445,74.47228,61,36,0
74.4445,74.47228,58,36,0
74.4445,74.47228,56,36,0
74.72228,74.75006,63,36,0
74.72228,74.75006,59,36,0
74.72228,74.75006,56,36,0
75.00006,75.02784,64,36,0
75.00006,75.02784,56,36,0
75.00006,75.02784,58,36,0
75.00006,75.02784,61,36,0
75.27784,75.8334,63,36,0
75.27784,75.8334,59,36,0
75.27784,75.8334,56,36,0
75.8334,75.97228,51,36,0
75.97228,76.111176,51,36,0
76.111176,76.666725,59,36,0
76.111176,76.666725,56,36,0
76.666725,76.9445,58,36,0
76.666725,76.9445,55,36,0
76.9445,77.50006,59,36,0
76.9445,77.50006,56,36,0
77.50006,77.77784,58,36,0
77.50006,77.77784,55,36,0
77.77784,78.05562,59,36,0
77.77784,78.05562,56,36,0
78.05562,78.3334,59,36,0
78.05562,78.3334,56,36,0
78.3334,78.611176,59,36,0
78.3334,78.611176,57,36,0
78.3334,78.611176,54,36,0
78.611176,78.888954,59,36,0
78.611176,78.888954,55,36,0
78.611176,78.888954,52,36,0
78.888954,78.91673,57,36,0
78.888954,78.91673,54,36,0
78.888954,78.91673,52,36,0
79.16673,79.19451,55,36,0
79.16673,79.19451,52,36,0
79.44451,79.453766,57,49,0
79.44451,79.453766,54,49,0
79.44451,79.453766,52,49,0
79.72228,79.731544,59,62,0
79.72228,79.731544,55,62,0
79.72228,79.731544,52,62,0
80.00006,80.00932,60,62,0
80.00006,80.00932,57,62,0
80.00006,80.00932,52,62,0
80.27784,81.111176,59,36,0
80.27784,81.111176,55,36,0
80.27784,81.111176,52,36,0
81.388954,81.94451,60,36,0
81.388954,81.94451,52,36,0
81.388954,81.94451,54,36,0
81.388954,81.94451,57,36,0
82.22229,82.77785,59,36,0
82.22229,82.77785,55,36,0
82.22229,82.77785,52,36,0
82.77785,82.80562,57,36,0
82.77785,82.80562,54,36,0
82.77785,82.80562,52,36,0
83.05562,83.0834,59,36,0
83.05562,83.0834,55,36,0
83.05562,83.0834,52,36,0
83.3334,83.361176,60,36,0
83.3334,83.361176,57,36,0
83.3334,83.361176,52,36,0
83.611176,84.44451,59,36,0
83.611176,84.44451,55,36,0
83.611176,84.44451,52,36,0
84.72229,85.27785,60,36,0
84.72229,85.27785,52,36,0
84.72229,85.27785,54,36,0
84.72229,85.27785,57,36,0
85.56097,86.200714,59,36,0
85.56097,86.200714,55,36,0
85.56097,86.200714,52,36,0
86.56679,87.35626,60,36,0
86.56679,87.35626,52,36,0
86.56679,87.35626,54,36,0
86.56679,87.35626,57,36,0
87.751,88.540474,59,36,0
87.751,88.540474,55,36,0
87.751,88.540474,52,36,0
88.540474,88.568245,57,36,0
88.540474,88.568245,54,36,0
88.540474,88.568245,45,36,0
88.818245,88.84602,59,36,0
88.818245,88.84602,55,36,0
88.818245,88.84602,47,36,0
89.09602,89.1238,59,36,0
89.09602,89.1238,57,36,0
89.09602,89.1238,47,36,0
89.3738,89.40158,59,36,0
89.3738,89.40158,55,36,0
89.3738,89.40158,52,36,0
89.65158,90.48492,64,75,0
90.48492,91.31825,64,75,0
91.31825,92.15158,64,75,0
92.15158,92.70714,64,75,0
92.98492,93.81825,52,75,0
93.81825,94.65159,52,75,0
94.65159,95.48492,52,75,0
95.48492,95.512695,52,75,0
95.762695,95.790474,51,75,0
96.31825,97.15159,40,75,0
97.15159,97.984924,40,36,0
97.984924,98.81826,35,62,0
98.81826,99.65159,40,36,0
99.65159,100.207146,35,75,0
100.207146,100.484924,35,75,0
100.484924,100.7627,40,75,0
100.7627,100.90159,57,36,0
100.90159,101.04048,57,36,0
101.04048,101.59604,52,36,0
101.59604,101.734924,57,36,0
101.734924,101.87382,57,36,0
101.87382,102.42937,52,36,0
102.42937,102.56826,57,36,0
102.56826,102.707146,57,36,0
102.707146,102.734924,52,36,0
102.984924,103.0127,57,49,0
103.2627,103.29048,52,62,0
103.54048,103.56826,57,75,0
103.81826,104.37382,44,88,0
103.81826,104.37382,32,88,0
104.37382,104.651596,45,88,0
104.37382,104.651596,33,88,0
104.929375,105.20715,61,36,0
104.929375,105.20715,57,36,0
105.20715,105.7627,62,62,0
105.20715,105.7627,56,54,0
105.7627,106.04048,61,36,0
105.7627,106.04048,57,36,0
106.04048,106.59604,62,62,0
106.04048,106.59604,56,54,0
106.59604,106.87382,61,36,0
106.59604,106.87382,57,36,0
106.87382,107.429375,62,36,0
106.87382,107.429375,56,36,0
107.429375,107.70715,64,36,0
107.429375,107.70715,57,36,0
107.429375,107.70715,55,36,0
107.70715,107.98493,62,36,0
107.70715,107.98493,57,36,0
107.70715,107.98493,54,36,0
107.98493,108.01271,64,36,0
107.98493,108.01271,52,36,0
108.26271,108.29049,62,36,0
108.26271,108.29049,52,36,0
108.54049,108.81827,61,36,0
108.54049,108.81827,57,36,0
108.81827,109.37382,61,88,0
108.81827,109.37382,49,88,0
109.37382,109.401596,57,88,0
109.37382,109.401596,45,88,0
109.651596,109.679375,54,88,0
109.651596,109.679375,42,88,0
109.929375,109.95715,50,88,0
109.929375,109.95715,38,88,0
110.20715,110.48493,47,88,0
110.20715,110.48493,35,88,0
110.48493,111.04049,44,75,0
110.48493,111.04049,32,75,0
111.04049,112.1516,66,75,0
111.04049,112.1516,62,75,0
111.04049,112.1516,57,75,0
112.70715,112.84605,64,36,0
112.70715,112.84605,61,36,0
112.70715,112.84605,57,36,0
112.98493,113.54049,76,36,0
112.98493,113.54049,73,36,0
113.54049,113.56827,73,36,0
113.54049,113.56827,69,36,0
113.81827,113.84605,69,36,0
113.81827,113.84605,66,36,0
114.09605,114.123825,66,36,0
114.09605,114.123825,62,36,0
114.373825,114.4016,62,36,0
114.373825,114.4016,59,36,0
114.6516,116.04049,65,62,0
114.6516,116.04049,60,57,0
114.6516,116.04049,57,52,0
116.873825,117.42938,62,62,0
116.04049,117.42938,56,36,0
117.42938,117.70716,61,62,0
117.42938,117.70716,57,62,0
116.04049,117.70716,64,36,0
117.70716,117.73494,50,36,0
117.98494,118.01272,52,36,0
118.26272,118.2905,52,36,0
118.5405,118.818275,57,36,0
119.096054,119.23494,61,36,0
119.23494,119.373825,61,36,0
119.373825,119.92938,49,36,0
119.92938,120.068275,61,36,0
120.068275,120.20716,61,36,0
120.20716,120.76272,50,36,0
120.76272,120.9016,61,36,0
120.9016,121.0405,61,36,0
121.0405,121.17938,52,36,0
121.17938,121.318275,62,36,0
121.318275,121.45716,54,36,0
121.45716,121.596054,62,36,0
121.596054,121.73494,56,36,0
121.73494,121.87383,62,36,0
121.87383,122.01272,57,49,0
122.01272,122.15161,61,49,0
122.15161,122.2905,56,49,0
122.2905,122.42939,61,49,0
122.42939,122.568275,54,49,0
122.568275,122.70716,61,49,0
122.70716,122.846054,50,62,0
122.846054,122.98494,59,62,0
122.98494,123.12383,52,62,0
123.12383,123.26272,61,62,0
123.26272,123.40161,52,62,0
123.40161,123.5405,62,62,0
123.5405,123.818275,61,75,0
123.5405,123.818275,57,75,0
123.818275,124.65161,45,88,0
123.818275,124.65161,33,88,0
124.65161,125.48495,45,114,0
124.65161,125.48495,33,106,0
125.48495,126.318275,45,114,0
125.48495,126.318275,33,106,0
126.318275,127.15161,45,114,0
126.318275,127.15161,33,106,0
127.15161,127.98495,45,114,0
127.15161,127.98495,33,106,0
127.98495,128.01273,49,114,0
127.98495,128.01273,37,106,0
128.26273,128.2905,52,114,0
128.26273,128.2905,40,106,0
128.5405,128.56828,45,114,0
128.5405,128.56828,33,106,0
128.81828,129.65161,64,62,0
129.65161,130.48495,64,62,0
130.48495,131.31828,64,62,0
131.31828,131.34605,65,62,0
131.59605,131.62384,63,62,0
131.87384,131.90161,64,62,0
132.15161,132.98495,60,62,0
132.98495,133.81828,60,62,0
133.81828,134.65161,60,62,0
134.65161,134.6794,61,62,0
134.9294,134.95717,59,62,0
135.20717,135.23495,60,62,0
135.48495,135.76273,48,62,0
135.76273,135.90163,60,101,0
135.76273,135.90163,48,101,0
135.90163,136.04051,60,101,0
135.90163,136.04051,48,101,0
136.04051,136.59607,61,101,0
136.04051,136.59607,49,101,0
136.59607,136.73495,60,101,0
136.59607,136.73495,48,101,0
136.73495,136.87384,60,101,0
136.73495,136.87384,48,101,0
136.87384,137.4294,61,101,0
136.87384,137.4294,49,101,0
137.4294,137.56828,60,101,0
137.4294,137.56828,48,101,0
137.56828,137.70718,60,101,0
137.56828,137.70718,48,101,0
137.70718,137.73495,61,101,0
137.70718,137.73495,49,101,0
137.98495,138.01273,58,101,0
137.98495,138.01273,46,101,0
138.26273,138.29051,55,101,0
138.26273,138.29051,43,101,0
138.54051,138.56828,51,88,0
138.54051,138.56828,39,88,0
138.81828,138.84607,49,88,0
138.81828,138.84607,37,88,0
139.09607,139.12384,46,88,0
139.09607,139.12384,34,88,0
139.37384,139.40163,43,101,0
139.37384,139.40163,31,101,0
141.31828,141.45718,44,36,0
141.45718,141.59607,44,36,0
141.59607,141.62384,51,36,0
142.15163,142.29051,44,36,0
142.29051,142.4294,44,36,0
142.4294,142.45718,51,36,0
142.70718,142.73495,46,36,0
142.98495,143.01274,49,36,0
143.26274,143.29051,53,36,0
143.8183,143.95718,46,36,0
143.95718,144.09607,46,36,0
144.09607,144.12386,53,36,0
144.65163,144.79051,49,36,0
144.79051,144.9294,49,36,0
144.9294,144.95718,56,36,0
145.48495,145.62386,49,36,0
145.62386,145.76274,49,36,0
145.76274,145.79051,56,36,0
146.3183,146.34607,49,36,0
146.59607,146.62386,63,36,0
146.59607,146.62386,61,36,0
147.15163,147.29051,63,49,0
147.15163,147.29051,60,49,0
147.29051,147.42941,63,49,0
147.29051,147.42941,60,49,0
147.42941,147.45718,63,49,0
147.42941,147.45718,61,49,0
147.98497,148.12386,63,62,0
147.98497,148.12386,60,62,0
148.12386,148.26274,63,62,0
148.12386,148.26274,60,62,0
148.26274,148.29051,63,62,0
148.26274,148.29051,61,62,0
148.8183,148.84607,63,101,0
148.8183,148.84607,60,93,0
149.09607,149.12386,63,101,0
149.09607,149.12386,58,93,0
149.37386,149.40163,63,101,0
149.37386,149.40163,56,93,0
149.65163,149.67941,61,114,0
149.65163,149.67941,56,109,0
149.65163,149.67941,53,104,0
149.92941,149.95718,60,114,0
149.92941,149.95718,56,109,0
149.92941,149.95718,51,104,0
150.20718,152.15163,59,88,0
150.20718,152.15163,56,88,0
150.20718,152.15163,50,88,0
153.26274,153.40163,51,36,0
153.40163,153.54053,51,36,0
153.54053,154.09608,59,36,0
153.54053,154.09608,56,36,0
154.09608,154.37386,58,36,0
154.09608,154.37386,55,36,0
154.37386,154.92941,59,36,0
154.37386,154.92941,56,36,0
154.92941,154.95718,58,36,0
154.92941,154.95718,55,36,0
155.20718,155.23497,59,36,0
155.20718,155.23497,56,36,0
155.48497,155.51274,59,36,0
155.48497,155.51274,56,36,0
155.76274,155.79053,61,36,0
155.76274,155.79053,58,36,0
155.76274,155.79053,56,36,0
156.04053,156.0683,63,36,0
156.04053,156.0683,59,36,0
156.04053,156.0683,56,36,0
156.3183,156.34608,61,36,0
156.3183,156.34608,58,36,0
156.3183,156.34608,56,36,0
156.59608,156.62386,59,36,0
156.59608,156.62386,56,36,0
156.87386,156.90164,61,36,0
156.87386,156.90164,58,36,0
156.87386,156.90164,56,36,0
157.15164,157.17941,63,36,0
157.15164,157.17941,59,36,0
157.15164,157.17941,56,36,0
157.42941,157.4572,64,36,0
157.42941,157.4572,56,36,0
157.42941,157.4572,58,36,0
157.42941,157.4572,61,36,0
157.7072,158.26274,63,36,0
157.7072,158.26274,59,36,0
157.7072,158.26274,56,36,0
158.26274,158.40164,51,36,0
158.40164,158.54053,51,36,0
158.54053,159.09608,59,36,0
158.54053,159.09608,56,36,0
159.09608,159.37386,58,36,0
159.09608,159.37386,55,36,0
159.37386,159.92941,59,36,0
159.37386,159.92941,56,36,0
159.92941,160.2072,58,36,0
159.92941,160.2072,55,36,0
160.2072,160.48497,59,36,0
160.2072,160.48497,56,36,0
160.48497,160.76276,59,36,0
160.48497,160.76276,56,36,0
160.76276,161.04053,59,36,0
160.76276,161.04053,57,36,0
160.76276,161.04053,54,36,0
161.04053,161.31831,59,36,0
161.04053,161.31831,55,36,0
161.04053,161.31831,52,36,0
161.31831,161.34608,57,36,0
161.31831,161.34608,54,36,0
161.31831,161.34608,52,36,0
161.59608,161.62386,55,36,0
161.59608,161.62386,52,36,0
161.87386,161.88312,57,49,0
161.87386,161.88312,54,49,0
161.87386,161.88312,52,49,0
162.15164,162.1609,59,62,0
162.15164,162.1609,55,62,0
162.15164,162.1609,52,62,0
162.42941,162.43867,60,62,0
162.42941,162.43867,57,62,0
162.42941,162.43867,52,62,0
162.7072,163.54053,59,36,0
162.7072,163.54053,55,36,0
162.7072,163.54053,52,36,0
163.81831,164.37387,60,36,0
163.81831,164.37387,52,36,0
163.81831,164.37387,54,36,0
163.81831,164.37387,57,36,0
164.65164,165.2072,59,36,0
164.65164,165.2072,55,36,0
164.65164,165.2072,52,36,0
165.2072,165.23497,57,36,0
165.2072,165.23497,54,36,0
165.2072,165.23497,52,36,0
165.48497,165.51276,59,36,0
165.48497,165.51276,55,36,0
165.48497,165.51276,52,36,0
165.76276,165.79053,60,36,0
165.76276,165.79053,57,36,0
165.76276,165.79053,52,36,0
166.04053,166.87387,59,36,0
166.04053,166.87387,55,36,0
166.04053,166.87387,52,36,0
167.15164,167.7072,60,36,0
167.15164,167.7072,52,36,0
167.15164,167.7072,54,36,0
167.15164,167.7072,57,36,0
167.99033,168.63007,59,36,0
167.99033,168.63007,55,36,0
167.99033,168.63007,52,36,0
168.99614,169.78561,60,36,0
168.99614,169.78561,52,36,0
168.99614,169.78561,54,36,0
168.99614,169.78561,57,36,0
170.18034,170.96982,59,36,0
170.18034,170.96982,55,36,0
170.18034,170.96982,52,36,0
170.96982,170.9976,57,36,0
170.96982,170.9976,54,36,0
170.96982,170.9976,45,36,0
171.2476,171.27538,59,36,0
171.2476,171.27538,55,36,0
171.2476,171.27538,47,36,0
171.52538,171.55316,59,36,0
171.52538,171.55316,57,36,0
171.52538,171.55316,47,36,0
171.80316,171.83093,59,36,0
171.80316,171.83093,55,36,0
171.80316,171.83093,52,36,0
172.08093,172.91428,64,75,0
172.91428,173.7476,64,75,0
173.7476,174.58093,64,75,0
174.58093,175.13649,64,75,0
175.41428,176.2476,52,75,0
176.2476,177.08095,52,75,0
177.08095,177.91428,52,75,0
177.91428,177.94205,52,75,0
178.19205,178.21983,51,75,0
178.7476,179.58095,40,75,0
179.58095,180.41428,40,36,0
180.41428,181.2476,35,62,0
181.2476,182.08095,40,36,0
182.08095,182.6365,35,75,0
182.6365,182.91428,35,75,0
182.91428,183.19206,40,75,0
183.19206,183.33095,57,36,0
183.33095,183.46983,57,36,0
183.46983,184.02539,52,36,0
184.02539,184.16428,57,36,0
184.16428,184.30316,57,36,0
184.30316,184.85872,52,36,0
184.85872,184.99762,57,36,0
184.99762,185.1365,57,36,0
185.1365,185.16428,52,36,0
185.41428,185.44206,57,49,0
185.69206,185.71983,52,62,0
185.96983,185.99762,57,75,0
186.24762,186.80318,44,88,0
186.24762,186.80318,32,88,0
186.80318,187.08095,45,88,0
186.80318,187.08095,33,88,0
187.35873,187.6365,61,36,0
187.35873,187.6365,57,36,0
187.6365,188.19206,62,62,0
187.6365,188.19206,56,54,0
188.19206,188.46983,61,36,0
188.19206,188.46983,57,36,0
188.46983,189.02539,62,62,0
188.46983,189.02539,56,54,0
189.02539,189.30318,61,36,0
189.02539,189.30318,57,36,0
189.30318,189.85873,62,36,0
189.30318,189.85873,56,36,0
189.85873,190.1365,64,36,0
189.85873,190.1365,57,36,0
189.85873,190.1365,55,36,0
190.1365,190.41429,62,36,0
190.1365,190.41429,57,36,0
190.1365,190.41429,54,36,0
190.41429,190.44206,64,36,0
190.41429,190.44206,52,36,0
190.69206,190.71983,62,36,0
190.69206,190.71983,52,36,0
190.96983,191.24762,61,36,0
190.96983,191.24762,57,36,0
191.24762,191.80318,61,88,0
191.24762,191.80318,49,88,0
191.80318,191.83095,57,88,0
191.80318,191.83095,45,88,0
192.08095,192.10873,54,88,0
192.08095,192.10873,42,88,0
192.35873,192.3865,50,88,0
192.35873,192.3865,38,88,0
192.6365,192.91429,47,88,0
192.6365,192.91429,35,88,0
192.91429,193.46985,44,75,0
192.91429,193.46985,32,75,0
193.46985,194.58095,66,75,0
193.46985,194.58095,62,75,0
193.46985,194.58095,57,75,0
195.1365,195.2754,64,36,0
195.1365,195.2754,61,36,0
195.1365,195.2754,57,36,0
195.41429,195.96985,76,36,0
195.41429,195.96985,73,36,0
195.96985,195.99762,73,36,0
195.96985,195.99762,69,36,0
196.24762,196.2754,69,36,0
196.24762,196.2754,66,36,0
196.5254,196.55318,66,36,0
196.5254,196.55318,62,36,0
196.80318,196.83096,62,36,0
196.80318,196.83096,59,36,0
197.08096,198.46985,65,62,0
197.08096,198.46985,60,57,0
197.08096,198.46985,57,52,0
199.30318,199.85873,62,62,0
198.46985,199.85873,56,36,0
199.85873,200.13652,61,62,0
199.85873,200.13652,57,62,0
198.46985,200.13652,64,36,0
200.13652,200.16429,50,36,0
200.41429,200.44208,52,36,0
200.69208,200.71985,52,36,0
200.96985,201.24762,57,36,0
201.5254,201.66429,61,36,0
201.66429,201.80318,61,36,0
201.80318,202.35873,49,36,0
202.35873,202.49763,61,36,0
202.49763,202.63652,61,36,0
202.63652,203.19208,50,36,0
203.19208,203.33096,61,36,0
203.33096,203.46985,61,36,0
203.46985,203.60873,52,36,0
203.60873,203.74763,62,36,0
203.74763,203.88652,54,36,0
203.88652,204.0254,62,36,0
204.0254,204.16429,56,36,0
204.16429,204.30319,62,36,0
204.30319,204.44208,57,49,0
204.44208,204.58096,61,49,0
204.58096,204.71985,56,49,0
204.71985,204.85873,61,49,0
204.85873,204.99763,54,49,0
204.99763,205.13652,61,49,0
205.13652,205.2754,50,62,0
205.2754,205.41429,59,62,0
205.41429,205.55319,52,62,0
205.55319,205.69208,61,62,0
205.69208,205.83096,52,62,0
205.83096,205.96985,62,62,0
205.96985,206.24763,61,75,0
205.96985,206.24763,57,75,0
206.24763,207.08096,45,88,0
206.24763,207.08096,33,88,0
207.08096,207.91429,45,114,0
207.08096,207.91429,33,106,0
207.91429,208.74763,45,114,0
207.91429,208.74763,33,106,0
208.74763,209.58096,45,114,0
208.74763,209.58096,33,106,0
209.58096,210.4143,45,114,0
209.58096,210.4143,33,106,0
210.4143,210.44208,49,114,0
210.4143,210.44208,37,106,0
210.69208,210.71986,52,114,0
210.69208,210.71986,40,106,0
210.96986,211.24763,45,127,0
210.96986,211.24763,33,124,0
214.04175,214.43391,60,36,0
214.43391,215.21823,57,36,0
215.21823,215.61038,60,36,0
215.61038,216.3947,57,36,0
216.3947,216.78685,60,36,0
216.78685,217.17902,57,36,0
217.17902,217.57117,60,36,0
217.57117,217.96332,62,36,0
217.96332,218.74763,65,36,0
218.74763,219.1398,57,36,0
219.1398,219.9241,58,36,0
219.1398,219.9241,55,36,0
219.9241,220.31627,62,36,0
219.9241,220.31627,55,36,0
220.31627,221.10059,60,36,0
220.31627,221.10059,57,36,0
220.31627,221.10059,53,36,0
221.10059,221.49274,60,36,0
221.10059,221.49274,58,36,0
221.10059,221.49274,53,36,0
221.49274,222.27705,60,62,0
221.49274,222.27705,53,54,0
222.27705,222.6692,60,36,0
222.27705,222.6692,58,36,0
222.27705,222.6692,53,36,0
222.6692,223.45352,60,36,0
222.6692,223.45352,57,36,0
222.6692,223.45352,53,36,0
223.45352,223.84567,60,36,0
223.45352,223.84567,58,36,0
223.45352,223.84567,53,36,0
223.84567,224.62999,60,62,0
223.84567,224.62999,53,54,0
224.62999,225.02216,60,36,0
224.62999,225.02216,58,36,0
224.62999,225.02216,53,36,0
225.02216,225.80646,60,36,0
225.02216,225.80646,57,36,0
225.02216,225.80646,53,36,0
225.80646,226.19862,60,36,0
225.80646,226.19862,57,36,0
225.80646,226.19862,53,36,0
226.19862,226.59077,57,36,0
226.59077,226.98294,60,36,0
226.98294,227.37509,62,36,0
227.37509,228.15941,65,36,0
228.15941,228.55156,57,36,0
228.55156,229.33588,58,36,0
228.55156,229.33588,55,36,0
229.33588,229.72803,62,36,0
229.33588,229.72803,55,36,0
229.72803,230.51234,60,36,0
229.72803,230.51234,57,36,0
229.72803,230.51234,53,36,0
230.51234,230.90451,67,36,0
230.51234,230.90451,53,36,0
230.51234,230.90451,58,36,0
230.51234,230.90451,60,36,0
230.90451,231.68881,69,62,0
230.90451,231.68881,60,57,0
230.90451,231.68881,53,52,0
231.68881,232.08098,67,36,0
231.68881,232.08098,53,36,0
231.68881,232.08098,58,36,0
231.68881,232.08098,60,36,0
232.08098,232.8653,65,36,0
232.08098,232.8653,53,36,0
232.08098,232.8653,57,36,0
232.08098,232.8653,60,36,0
232.8653,233.25745,67,36,0
232.8653,233.25745,53,36,0
232.8653,233.25745,58,36,0
232.8653,233.25745,60,36,0
233.25745,234.04176,69,62,0
233.25745,234.04176,60,57,0
233.25745,234.04176,53,52,0
234.04176,234.43391,67,36,0
234.04176,234.43391,53,36,0
234.04176,234.43391,58,36,0
234.04176,234.43391,60,36,0
234.43391,235.21823,65,36,0
234.43391,235.21823,53,36,0
234.43391,235.21823,57,36,0
234.43391,235.21823,60,36,0
235.21823,235.61038,62,36,0
235.21823,235.61038,57,36,0
235.21823,235.61038,53,36,0
235.61038,236.3947,60,36,0
235.61038,236.3947,57,36,0
235.61038,236.3947,53,36,0
236.3947,236.78687,62,36,0
236.3947,236.78687,57,36,0
236.3947,236.78687,53,36,0
236.78687,237.57117,60,36,0
236.78687,237.57117,57,36,0
236.78687,237.57117,53,36,0
237.57117,237.96333,62,36,0
237.57117,237.96333,57,36,0
237.57117,237.96333,53,36,0
237.96333,238.00255,64,36,0
237.96333,238.00255,52,36,0
237.96333,238.00255,57,36,0
237.96333,238.00255,60,36,0
238.35548,238.3947,64,36,0
238.35548,238.3947,52,36,0
238.35548,238.3947,57,36,0
238.35548,238.3947,60,36,0
238.74765,238.78687,64,36,0
238.74765,238.78687,52,36,0
238.74765,238.78687,56,36,0
238.74765,238.78687,59,36,0
239.1398,239.17902,64,36,0
239.1398,239.17902,60,36,0
239.1398,239.17902,57,36,0
239.92412,240.31627,60,36,0
240.31627,240.70844,57,36,0
240.70844,241.10059,60,36,0
241.10059,241.49274,62,36,0
241.49274,242.27705,65,36,0
242.27705,242.66922,57,36,0
242.66922,243.45352,58,36,0
242.66922,243.45352,55,36,0
243.45352,243.84569,62,36,0
243.45352,243.84569,55,36,0
243.84569,244.63,60,36,0
243.84569,244.63,57,36,0
243.84569,244.63,53,36,0
244.63,245.02216,60,36,0
244.63,245.02216,58,36,0
244.63,245.02216,53,36,0
245.02216,245.80647,60,62,0
245.02216,245.80647,53,54,0
245.80647,246.19862,60,36,0
245.80647,246.19862,58,36,0
245.80647,246.19862,53,36,0
246.19862,246.98294,60,36,0
246.19862,246.98294,57,36,0
246.19862,246.98294,53,36,0
246.98294,247.37509,60,36,0
246.98294,247.37509,58,36,0
246.98294,247.37509,53,36,0
247.37509,248.15941,60,62,0
247.37509,248.15941,53,54,0
248.15941,248.55157,60,36,0
248.15941,248.55157,58,36,0
248.15941,248.55157,53,36,0
248.55157,249.33588,60,36,0
248.55157,249.33588,57,36,0
248.55157,249.33588,53,36,0
249.33588,249.72804,60,36,0
249.33588,249.72804,57,36,0
249.33588,249.72804,53,36,0
249.72804,250.1202,57,36,0
250.1202,250.51236,60,36,0
250.51236,250.90451,62,36,0
250.90451,251.68883,65,36,0
251.68883,252.08098,57,36,0
252.08098,252.8653,58,36,0
252.08098,252.8653,55,36,0
252.8653,253.25746,62,36,0
252.8653,253.25746,55,36,0
253.25746,254.04176,60,36,0
253.25746,254.04176,57,36,0
253.25746,254.04176,53,36,0
254.04176,254.43393,67,36,0
254.04176,254.43393,53,36,0
254.04176,254.43393,58,36,0
254.04176,254.43393,60,36,0
254.43393,255.21825,69,62,0
254.43393,255.21825,60,57,0
254.43393,255.21825,53,52,0
255.21825,255.6104,67,36,0
255.21825,255.6104,53,36,0
255.21825,255.6104,58,36,0
255.21825,255.6104,60,36,0
255.6104,256.3947,65,36,0
255.6104,256.3947,53,36,0
255.6104,256.3947,57,36,0
255.6104,256.3947,60,36,0
256.3947,256.78687,67,36,0
256.3947,256.78687,53,36,0
256.3947,256.78687,58,36,0
256.3947,256.78687,60,36,0
256.78687,257.57117,69,62,0
256.78687,257.57117,60,57,0
256.78687,257.57117,53,52,0
257.57117,257.96335,67,36,0
257.57117,257.96335,53,36,0
257.57117,257.96335,58,36,0
257.57117,257.96335,60,36,0
257.96335,258.74765,65,36,0
257.96335,258.74765,53,36,0
257.96335,258.74765,57,36,0
257.96335,258.74765,60,36,0
258.74765,259.1398,62,36,0
258.74765,259.1398,57,36,0
258.74765,259.1398,53,36,0
259.1398,259.92413,60,36,0
259.1398,259.92413,57,36,0
259.1398,259.92413,53,36,0
259.92413,260.31628,62,36,0
259.92413,260.31628,57,36,0
259.92413,260.31628,53,36,0
260.31628,261.1006,60,36,0
260.31628,261.1006,57,36,0
260.31628,261.1006,53,36,0
261.1006,261.49274,62,36,0
261.1006,261.49274,57,36,0
261.1006,261.49274,53,36,0
261.49274,261.53195,64,36,0
261.49274,261.53195,52,36,0
261.49274,261.53195,57,36,0
261.49274,261.53195,60,36,0
261.88492,261.92413,64,36,0
261.88492,261.92413,52,36,0
261.88492,261.92413,57,36,0
261.88492,261.92413,60,36,0
262.27707,262.31628,64,36,0
262.27707,262.31628,52,36,0
262.27707,262.31628,56,36,0
262.27707,262.31628,59,36,0
262.66922,262.70844,64,36,0
262.66922,262.70844,60,36,0
262.66922,262.70844,57,36,0
263.45352,263.8457,60,62,0
263.45352,263.8457,57,62,0
263.8457,264.63,63,88,0
263.8457,264.63,53,76,0
263.8457,264.63,57,80,0
263.8457,264.63,60,84,0
264.63,265.02216,60,62,0
264.63,265.02216,57,62,0
265.02216,265.8065,63,62,0
265.02216,265.8065,53,62,0
265.02216,265.8065,57,62,0
265.02216,265.8065,60,62,0
265.8065,265.8457,62,62,0
265.8065,265.8457,58,62,0
266.19864,266.23785,62,62,0
266.19864,266.23785,58,62,0
266.19864,266.23785,50,62,0
266.5908,266.63,62,62,0
266.5908,266.63,58,62,0
266.5908,266.63,53,62,0
266.98294,267.02216,63,62,0
266.98294,267.02216,60,62,0
266.98294,267.02216,53,62,0
267.3751,268.15942,62,62,0
267.3751,268.15942,58,62,0
268.15942,268.55157,58,62,0
268.15942,268.55157,55,62,0
268.55157,269.33588,61,62,0
268.55157,269.33588,51,62,0
268.55157,269.33588,55,62,0
268.55157,269.33588,58,62,0
269.33588,269.72806,58,62,0
269.33588,269.72806,55,62,0
269.72806,270.51236,61,62,0
269.72806,270.51236,51,62,0
269.72806,270.51236,55,62,0
269.72806,270.51236,58,62,0
270.51236,270.55157,58,62,0
270.51236,270.55157,55,62,0
270.9045,270.94373,58,62,0
270.9045,270.94373,55,62,0
270.9045,270.94373,46,62,0
271.29666,271.33588,58,62,0
271.29666,271.33588,55,62,0
271.29666,271.33588,50,62,0
271.68884,271.72806,60,62,0
271.68884,271.72806,57,62,0
271.68884,271.72806,50,62,0
272.081,272.8653,58,62,0
272.081,272.8653,55,62,0
272.8653,273.25745,55,36,0
272.8653,273.25745,43,36,0
273.25745,274.04178,52,62,0
273.25745,274.04178,45,54,0
274.04178,274.43393,55,36,0
274.04178,274.43393,43,36,0
274.43393,275.21823,52,62,0
274.43393,275.21823,45,54,0
275.21823,275.6104,55,36,0
275.21823,275.6104,43,36,0
275.6104,277.5712,52,62,0
275.6104,277.5712,45,54,0
277.5712,277.96335,60,36,0
277.5712,277.96335,57,36,0
277.5712,277.96335,53,36,0
277.96335,278.3555,57,36,0
278.3555,278.74765,60,36,0
278.74765,279.1398,62,36,0
279.1398,279.92413,65,36,0
279.92413,280.31628,57,36,0
280.31628,281.1006,58,36,0
280.31628,281.1006,55,36,0
281.1006,281.49277,62,36,0
281.1006,281.49277,55,36,0
281.49277,282.27707,60,36,0
281.49277,282.27707,57,36,0
281.49277,282.27707,53,36,0
282.27707,282.66922,67,36,0
282.27707,282.66922,53,36,0
282.27707,282.66922,58,36,0
282.27707,282.66922,60,36,0
282.66922,283.45355,69,36,0
282.66922,283.45355,60,36,0
282.66922,283.45355,53,36,0
283.45355,283.8457,67,36,0
283.45355,283.8457,53,36,0
283.45355,283.8457,58,36,0
283.45355,283.8457,60,36,0
283.8457,284.63,65,36,0
283.8457,284.63,53,36,0
283.8457,284.63,57,36,0
283.8457,284.63,60,36,0
284.63,285.02216,67,36,0
284.63,285.02216,53,36,0
284.63,285.02216,58,36,0
284.63,285.02216,60,36,0
285.02216,285.8065,69,36,0
285.02216,285.8065,60,36,0
285.02216,285.8065,53,36,0
285.8065,286.19864,67,36,0
285.8065,286.19864,53,36,0
285.8065,286.19864,58,36,0
285.8065,286.19864,60,36,0
286.19864,286.98297,65,36,0
286.19864,286.98297,53,36,0
286.19864,286.98297,57,36,0
286.19864,286.98297,60,36,0
286.98297,287.37512,67,36,0
286.98297,287.37512,53,36,0
286.98297,287.37512,58,36,0
286.98297,287.37512,60,36,0
287.37512,288.15942,65,36,0
287.37512,288.15942,53,36,0
287.37512,288.15942,57,36,0
287.37512,288.15942,60,36,0
288.15942,288.55157,67,36,0
288.15942,288.55157,53,36,0
288.15942,288.55157,58,36,0
288.15942,288.55157,60,36,0
288.55157,289.3359,69,36,0
288.55157,289.3359,60,36,0
288.55157,289.3359,53,36,0
289.3359,289.72806,67,36,0
289.3359,289.72806,53,36,0
289.3359,289.72806,58,36,0
289.3359,289.72806,60,36,0
289.72806,291.68884,60,36,0
289.72806,291.68884,57,36,0
289.72806,291.68884,53,36,0
291.68884,292.081,60,62,0
291.68884,292.081,57,62,0
292.081,292.86533,63,88,0
292.081,292.86533,53,76,0
292.081,292.86533,57,80,0
292.081,292.86533,60,84,0
292.86533,293.25748,60,62,0
292.86533,293.25748,57,62,0
293.25748,294.04178,63,62,0
293.25748,294.04178,53,62,0
293.25748,294.04178,57,62,0
293.25748,294.04178,60,62,0
294.04178,294.081,62,62,0
294.04178,294.081,58,62,0
294.43393,294.47314,62,62,0
294.43393,294.47314,58,62,0
294.43393,294.47314,50,62,0
294.8261,294.86533,62,62,0
294.8261,294.86533,58,62,0
294.8261,294.86533,53,62,0
295.21826,295.25748,63,62,0
295.21826,295.25748,60,62,0
295.21826,295.25748,53,62,0
295.6104,296.3947,62,62,0
295.6104,296.3947,58,62,0
296.3947,296.7869,58,62,0
296.3947,296.7869,55,62,0
296.7869,297.5712,61,62,0
296.7869,297.5712,51,62,0
296.7869,297.5712,55,62,0
296.7869,297.5712,58,62,0
297.5712,297.96335,58,62,0
297.5712,297.96335,55,62,0
297.96335,298.74768,61,62,0
297.96335,298.74768,51,62,0
297.96335,298.74768,55,62,0
297.96335,298.74768,58,62,0
298.74768,298.7869,58,62,0
298.74768,298.7869,55,62,0
299.13983,299.17905,58,62,0
299.13983,299.17905,55,62,0
299.13983,299.17905,46,62,0
299.53198,299.5712,58,62,0
299.53198,299.5712,55,62,0
299.53198,299.5712,50,62,0
299.92413,299.96335,60,62,0
299.92413,299.96335,57,62,0
299.92413,299.96335,50,62,0
300.31628,301.10062,58,62,0
300.31628,301.10062,55,62,0
301.10062,301.49277,55,36,0
301.10062,301.49277,43,36,0
301.49277,302.27707,52,62,0
301.49277,302.27707,45,54,0
302.27707,302.66925,55,36,0
302.27707,302.66925,43,36,0
302.66925,303.45355,52,62,0
302.66925,303.45355,45,54,0
303.45355,303.8457,55,36,0
303.45355,303.8457,43,36,0
303.8457,305.8065,52,62,0
303.8457,305.8065,45,54,0
305.8065,306.19864,60,36,0
305.8065,306.19864,57,36,0
305.8065,306.19864,53,36,0
306.19864,306.59082,57,36,0
306.59082,306.98297,60,36,0
306.98297,307.37512,62,36,0
307.37512,308.15942,65,36,0
308.15942,308.5516,57,36,0
308.5516,309.3359,58,36,0
308.5516,309.3359,55,36,0
309.3359,309.72806,62,36,0
309.3359,309.72806,55,36,0
309.72806,310.5124,60,36,0
309.72806,310.5124,57,36,0
309.72806,310.5124,53,36,0
310.5124,310.90454,67,36,0
310.5124,310.90454,53,36,0
310.5124,310.90454,58,36,0
310.5124,310.90454,60,36,0
310.90454,311.68884,69,36,0
310.90454,311.68884,60,36,0
310.90454,311.68884,53,36,0
311.68884,312.081,67,36,0
311.68884,312.081,53,36,0
311.68884,312.081,58,36,0
311.68884,312.081,60,36,0
312.081,312.86533,65,36,0
312.081,312.86533,53,36,0
312.081,312.86533,57,36,0
312.081,312.86533,60,36,0
312.86533,313.25748,67,36,0
312.86533,313.25748,53,36,0
312.86533,313.25748,58,36,0
312.86533,313.25748,60,36,0
313.25748,314.04178,69,36,0
313.25748,314.04178,60,36,0
313.25748,314.04178,53,36,0
314.04178,314.43396,67,36,0
314.04178,314.43396,53,36,0
314.04178,314.43396,58,36,0
314.04178,314.43396,60,36,0
314.43396,315.21826,65,36,0
314.43396,315.21826,53,36,0
314.43396,315.21826,57,36,0
314.43396,315.21826,60,36,0
315.21826,315.6104,67,36,0
315.21826,315.6104,53,36,0
315.21826,315.6104,58,36,0
315.21826,315.6104,60,36,0
315.6104,316.39474,65,36,0
315.6104,316.39474,53,36,0
315.6104,316.39474,57,36,0
315.6104,316.39474,60,36,0
316.39474,316.7869,67,36,0
316.39474,316.7869,53,36,0
316.39474,316.7869,58,36,0
316.39474,316.7869,60,36,0
316.7869,317.5712,69,36,0
316.7869,317.5712,60,36,0
316.7869,317.5712,53,36,0
317.5712,317.96335,67,36,0
317.5712,317.96335,53,36,0
317.5712,317.96335,58,36,0
317.5712,317.96335,60,36,0
317.96335,319.92413,60,36,0
317.96335,319.92413,57,36,0
317.96335,319.92413,53,36,0
319.92413,320.06302,57,36,0
320.06302,320.20193,57,36,0
320.20193,320.75748,52,36,0
320.75748,320.89636,57,36,0
320.89636,321.03525,57,36,0
321.03525,321.59082,52,36,0
321.59082,321.7297,57,36,0
321.7297,321.8686,57,36,0
321.8686,322.14636,52,36,0
322.14636,322.17413,57,36,0
322.42413,322.45193,52,36,0
322.70193,322.7297,57,36,0
322.9797,323.53525,44,88,0
322.9797,323.53525,32,88,0
323.53525,323.81305,45,88,0
323.53525,323.81305,33,88,0
324.09082,324.3686,64,36,0
324.09082,324.3686,60,36,0
324.3686,324.92413,65,36,0
324.3686,324.92413,59,36,0
324.92413,325.20193,64,36,0
324.92413,325.20193,60,36,0
325.20193,325.75748,65,36,0
325.20193,325.75748,59,36,0
325.75748,326.03525,64,36,0
325.75748,326.03525,60,36,0
326.03525,326.59082,65,36,0
326.03525,326.59082,59,36,0
326.59082,326.8686,67,36,0
326.59082,326.8686,58,36,0
326.8686,327.14636,65,36,0
326.8686,327.14636,57,36,0
326.59082,327.14636,60,36,0
327.14636,327.17416,67,36,0
327.14636,327.17416,55,36,0
327.42416,327.45193,65,36,0
327.42416,327.45193,55,36,0
327.70193,327.7297,64,36,0
327.70193,327.7297,60,36,0
327.9797,328.53525,64,75,0
327.9797,328.53525,52,75,0
328.53525,328.56305,60,75,0
328.53525,328.56305,48,75,0
328.81305,328.84082,57,75,0
328.81305,328.84082,45,75,0
329.09082,329.1186,53,75,0
329.09082,329.1186,41,75,0
329.3686,329.39636,50,75,0
329.3686,329.39636,38,75,0
329.64636,330.20193,47,75,0
329.64636,330.20193,35,75,0
330.20193,331.8686,69,75,0
330.20193,331.8686,65,75,0
330.20193,331.8686,59,75,0
331.8686,332.00748,67,36,0
331.8686,332.00748,64,36,0
331.8686,332.00748,60,36,0
332.14636,332.70193,79,62,0
332.14636,332.70193,76,54,0
332.70193,332.7297,76,36,0
332.70193,332.7297,72,36,0
332.9797,333.00748,72,36,0
332.9797,333.00748,69,36,0
333.25748,333.28528,69,36,0
333.25748,333.28528,65,36,0
333.53528,333.67416,65,36,0
333.53528,333.67416,62,36,0
333.81305,335.20193,68,62,0
333.81305,335.20193,63,57,0
333.81305,335.20193,60,52,0
335.20193,335.34082,74,36,0
335.34082,335.4797,76,36,0
335.4797,335.6186,77,49,0
335.6186,335.75748,76,49,0
335.75748,335.8964,74,62,0
335.8964,336.03528,76,62,0
341.03528,341.17416,60,62,0
341.17416,341.31305,64,62,0
341.31305,341.45193,59,62,0
341.45193,341.59082,64,62,0
341.59082,341.7297,57,62,0
341.7297,341.8686,64,62,0
341.8686,342.0075,53,49,0
342.0075,342.1464,62,49,0
342.1464,342.28528,55,62,0
342.28528,342.42416,64,62,0
342.42416,342.56305,55,75,0
342.56305,342.70193,65,75,0
342.70193,342.9797,64,75,0
342.70193,342.9797,60,75,0
343.81305,344.6464,60,36,0
344.6464,345.4797,60,36,0
345.4797,345.5075,61,36,0
345.7575,345.78528,59,36,0
346.03528,346.17416,60,36,0
346.31305,347.1464,48,36,0
347.1464,347.97974,48,36,0
347.97974,348.81305,48,36,0
348.81305,348.84082,49,36,0
349.09082,349.11862,47,36,0
349.36862,349.3964,48,36,0
349.6464,349.67416,36,36,0
349.92416,350.06305,60,101,0
349.92416,350.06305,48,101,0
350.06305,350.20193,60,101,0
350.06305,350.20193,48,101,0
350.20193,350.7575,61,101,0
350.20193,350.7575,49,101,0
350.7575,350.8964,60,101,0
350.7575,350.8964,48,101,0
350.8964,351.03528,60,101,0
350.8964,351.03528,48,101,0
351.03528,351.59085,61,101,0
351.03528,351.59085,49,101,0
351.59085,351.72974,60,101,0
351.59085,351.72974,48,101,0
351.72974,351.86862,60,101,0
351.72974,351.86862,48,101,0
351.86862,351.8964,61,101,0
351.86862,351.8964,49,101,0
352.1464,352.17416,58,101,0
352.1464,352.17416,46,101,0
352.42416,352.45193,55,101,0
352.42416,352.45193,43,101,0
352.70193,352.72974,51,88,0
352.70193,352.72974,39,88,0
352.97974,353.0075,49,88,0
352.97974,353.0075,37,88,0
353.2575,353.28528,46,88,0
353.2575,353.28528,34,88,0
353.53528,353.56305,43,101,0
353.53528,353.56305,31,101,0
355.47974,355.61862,44,36,0
355.61862,355.7575,44,36,0
355.7575,355.78528,51,36,0
356.31305,356.45197,44,36,0
356.45197,356.59085,44,36,0
356.59085,356.61862,51,36,0
356.86862,356.8964,46,36,0
357.1464,357.17416,49,36,0
357.42416,357.45197,53,36,0
357.97974,358.11862,46,36,0
358.11862,358.2575,46,36,0
358.2575,358.28528,53,36,0
358.81305,358.95197,49,36,0
358.95197,359.09085,49,36,0
359.09085,359.11862,56,36,0
359.6464,359.78528,49,36,0
359.78528,359.92416,49,36,0
359.92416,359.95197,56,36,0
360.47974,360.5075,49,36,0
360.7575,360.78528,63,36,0
360.7575,360.78528,61,36,0
361.31308,361.45197,63,49,0
361.31308,361.45197,60,49,0
361.45197,361.59085,63,49,0
361.45197,361.59085,60,49,0
361.59085,361.61862,63,49,0
361.59085,361.61862,61,49,0
362.1464,362.28528,63,62,0
362.1464,362.28528,60,62,0
362.28528,362.42416,63,62,0
362.28528,362.42416,60,62,0
362.42416,362.45197,63,62,0
362.42416,362.45197,61,62,0
362.97974,363.0075,63,101,0
362.97974,363.0075,60,93,0
363.2575,363.28528,63,101,0
363.2575,363.28528,58,93,0
363.53528,363.56308,63,101,0
363.53528,363.56308,56,93,0
363.81308,363.84085,61,114,0
363.81308,363.84085,56,109,0
363.81308,363.84085,53,104,0
364.09085,364.11862,60,114,0
364.09085,364.11862,56,109,0
364.09085,364.11862,51,104,0
364.36862,366.31308,59,88,0
364.36862,366.31308,56,88,0
364.36862,366.31308,50,88,0
367.4242,367.56308,51,36,0
367.56308,367.70197,51,36,0
367.70197,368.2575,59,36,0
367.70197,368.2575,56,36,0
368.2575,368.5353,58,36,0
368.2575,368.5353,55,36,0
368.5353,369.09085,59,36,0
368.5353,369.09085,56,36,0
369.09085,369.11862,58,36,0
369.09085,369.11862,55,36,0
369.36862,369.3964,59,36,0
369.36862,369.3964,56,36,0
369.6464,369.6742,59,36,0
369.6464,369.6742,56,36,0
369.9242,369.95197,61,36,0
369.9242,369.95197,58,36,0
369.9242,369.95197,56,36,0
370.20197,370.22974,63,36,0
370.20197,370.22974,59,36,0
370.20197,370.22974,56,36,0
370.47974,370.5075,61,36,0
370.47974,370.5075,58,36,0
370.47974,370.5075,56,36,0
370.7575,370.7853,59,36,0
370.7575,370.7853,56,36,0
371.0353,371.06308,61,36,0
371.0353,371.06308,58,36,0
371.0353,371.06308,56,36,0
371.31308,371.34085,63,36,0
371.31308,371.34085,59,36,0
371.31308,371.34085,56,36,0
371.59085,371.61862,64,36,0
371.59085,371.61862,56,36,0
371.59085,371.61862,58,36,0
371.59085,371.61862,61,36,0
371.86862,372.4242,63,36,0
371.86862,372.4242,59,36,0
371.86862,372.4242,56,36,0
372.4242,372.56308,51,36,0
372.56308,372.70197,51,36,0
372.70197,373.2575,59,36,0
372.70197,373.2575,56,36,0
373.2575,373.5353,58,36,0
373.2575,373.5353,55,36,0
373.5353,374.09085,59,36,0
373.5353,374.09085,56,36,0
374.09085,374.36862,58,36,0
374.09085,374.36862,55,36,0
374.36862,374.64642,59,36,0
374.36862,374.64642,56,36,0
374.64642,374.9242,59,36,0
374.64642,374.9242,56,36,0
374.9242,375.20197,59,36,0
374.9242,375.20197,57,36,0
374.9242,375.20197,54,36,0
375.20197,375.47974,59,36,0
375.20197,375.47974,55,36,0
375.20197,375.47974,52,36,0
375.47974,375.5075,57,36,0
375.47974,375.5075,54,36,0
375.47974,375.5075,52,36,0
375.7575,375.7853,55,36,0
375.7575,375.7853,52,36,0
376.0353,376.04456,57,49,0
376.0353,376.04456,54,49,0
376.0353,376.04456,52,49,0
376.31308,376.32233,59,62,0
376.31308,376.32233,55,62,0
376.31308,376.32233,52,62,0
376.59085,376.60013,60,62,0
376.59085,376.60013,57,62,0
376.59085,376.60013,52,62,0
376.86862,377.70197,59,36,0
376.86862,377.70197,55,36,0
376.86862,377.70197,52,36,0
377.97974,378.5353,60,36,0
377.97974,378.5353,52,36,0
377.97974,378.5353,54,36,0
377.97974,378.5353,57,36,0
378.81308,379.36862,59,36,0
378.81308,379.36862,55,36,0
378.81308,379.36862,52,36,0
379.36862,379.39642,57,36,0
379.36862,379.39642,54,36,0
379.36862,379.39642,52,36,0
379.64642,379.6742,59,36,0
379.64642,379.6742,55,36,0
379.64642,379.6742,52,36,0
379.9242,379.95197,60,36,0
379.9242,379.95197,57,36,0
379.9242,379.95197,52,36,0
380.20197,381.0353,59,36,0
380.20197,381.0353,55,36,0
380.20197,381.0353,52,36,0
381.31308,381.86865,60,36,0
381.31308,381.86865,52,36,0
381.31308,381.86865,54,36,0
381.31308,381.86865,57,36,0
382.15176,382.7915,59,36,0
382.15176,382.7915,55,36,0
382.15176,382.7915,52,36,0
383.15756,383.94705,60,36,0
383.15756,383.94705,52,36,0
383.15756,383.94705,54,36,0
383.15756,383.94705,57,36,0
384.3418,385.13126,59,36,0
384.3418,385.13126,55,36,0
384.3418,385.13126,52,36,0
385.13126,385.15903,57,36,0
385.13126,385.15903,54,36,0
385.13126,385.15903,45,36,0
385.40903,385.43683,59,36,0
385.40903,385.43683,55,36,0
385.40903,385.43683,47,36,0
385.68683,385.7146,59,36,0
385.68683,385.7146,57,36,0
385.68683,385.7146,47,36,0
385.9646,385.99237,59,36,0
385.9646,385.99237,55,36,0
385.9646,385.99237,52,36,0
386.24237,387.0757,64,75,0
387.0757,387.90906,64,75,0
387.90906,388.74237,64,75,0
388.74237,389.29794,64,75,0
389.5757,390.40906,52,75,0
390.40906,391.24237,52,75,0
391.24237,392.0757,52,75,0
392.0757,392.1035,52,75,0
392.3535,392.38126,51,75,0
392.90906,393.74237,40,75,0
393.74237,394.5757,40,36,0
394.5757,395.40906,35,62,0
395.40906,396.24237,40,36,0
396.24237,396.79794,35,75,0
396.79794,397.0757,35,75,0
397.0757,397.3535,40,75,0
397.3535,397.49237,57,36,0
397.49237,397.6313,57,36,0
397.6313,398.18683,52,36,0
398.18683,398.3257,57,36,0
398.3257,398.4646,57,36,0
398.4646,399.02017,52,36,0
399.02017,399.15906,57,36,0
399.15906,399.29794,57,36,0
399.29794,399.3257,52,36,0
399.5757,399.6035,57,49,0
399.8535,399.8813,52,62,0
400.1313,400.15906,57,75,0
400.40906,400.9646,44,88,0
400.40906,400.9646,32,88,0
400.9646,401.2424,45,88,0
400.9646,401.2424,33,88,0
401.52017,401.79794,61,36,0
401.52017,401.79794,57,36,0
401.79794,402.3535,62,62,0
401.79794,402.3535,56,54,0
402.3535,402.6313,61,36,0
402.3535,402.6313,57,36,0
402.6313,403.18683,62,62,0
402.6313,403.18683,56,54,0
403.18683,403.4646,61,36,0
403.18683,403.4646,57,36,0
403.4646,404.02017,62,36,0
403.4646,404.02017,56,36,0
404.02017,404.29794,64,36,0
404.02017,404.29794,57,36,0
404.02017,404.29794,55,36,0
404.29794,404.5757,62,36,0
404.29794,404.5757,57,36,0
404.29794,404.5757,54,36,0
404.5757,404.6035,64,36,0
404.5757,404.6035,52,36,0
404.85352,404.8813,62,36,0
404.85352,404.8813,52,36,0
405.1313,405.40906,61,36,0
405.1313,405.40906,57,36,0
405.40906,405.9646,61,88,0
405.40906,405.9646,49,88,0
405.9646,405.9924,57,88,0
405.9646,405.9924,45,88,0
406.2424,406.27017,54,88,0
406.2424,406.27017,42,88,0
406.52017,406.54794,50,88,0
406.52017,406.54794,38,88,0
406.79794,407.0757,47,88,0
406.79794,407.0757,35,88,0
407.0757,407.6313,44,75,0
407.0757,407.6313,32,75,0
407.6313,408.7424,66,75,0
407.6313,408.7424,62,75,0
407.6313,408.7424,57,75,0
409.29794,409.43683,64,36,0
409.29794,409.43683,61,36,0
409.29794,409.43683,57,36,0
409.5757,410.1313,76,36,0
409.5757,410.1313,73,36,0
410.1313,410.15906,73,36,0
410.1313,410.15906,69,36,0
410.40906,410.43683,69,36,0
410.40906,410.43683,66,36,0
410.68683,410.71463,66,36,0
410.68683,410.71463,62,36,0
410.96463,410.9924,62,36,0
410.96463,410.9924,59,36,0
411.2424,412.6313,65,62,0
411.2424,412.6313,60,57,0
411.2424,412.6313,57,52,0
413.46463,414.02017,62,62,0
412.6313,414.02017,56,36,0
414.02017,414.29794,61,62,0
414.02017,414.29794,57,62,0
412.6313,414.29794,64,36,0
414.29794,414.32574,50,36,0
414.57574,414.60352,52,36,0
414.85352,414.8813,52,36,0
415.1313,415.40906,57,36,0
415.68683,415.82574,61,36,0
415.82574,415.96463,61,36,0
415.96463,416.52017,49,36,0
416.52017,416.65906,61,36,0
416.65906,416.79794,61,36,0
416.79794,417.35352,50,36,0
417.35352,417.4924,61,36,0
417.4924,417.6313,61,36,0
417.6313,417.77017,52,36,0
417.77017,417.90906,62,36,0
417.90906,418.04794,54,36,0
418.04794,418.18686,62,36,0
418.18686,418.32574,56,36,0
418.32574,418.46463,62,36,0
418.46463,418.60352,57,49,0
418.60352,418.7424,61,49,0
418.7424,418.8813,56,49,0
418.8813,419.02017,61,49,0
419.02017,419.15906,54,49,0
419.15906,419.29794,61,49,0
419.29794,419.43686,50,62,0
419.43686,419.57574,59,62,0
419.57574,419.71463,52,62,0
419.71463,419.85352,61,62,0
419.85352,419.9924,52,62,0
419.9924,420.1313,62,62,0
420.1313,420.40906,61,75,0
420.1313,420.40906,57,75,0
420.40906,421.2424,45,88,0
420.40906,421.2424,33,88,0
421.2424,422.07574,45,114,0
421.2424,422.07574,33,106,0
422.07574,422.90906,45,114,0
422.07574,422.90906,33,106,0
422.90906,423.7424,45,114,0
422.90906,423.7424,33,106,0
423.7424,424.57574,45,114,0
423.7424,424.57574,33,106,0
424.57574,424.60352,49,114,0
424.57574,424.60352,37,106,0
424.85352,424.8813,52,114,0
424.85352,424.8813,40,106,0
425.1313,425.40906,45,127,0
425.1313,425.40906,33,124,0
16.111124,16.66668,65,75,0
15.27779,16.66668,59,64,0
16.66668,16.944458,64,75,0
16.66668,16.944458,60,75,0
15.27779,16.944458,67,64,0
16.944458,16.972237,53,36,0
17.222237,17.250013,55,36,0
17.500013,17.527792,55,36,0
17.777792,18.333347,55,36,0
17.777792,18.333347,48,36,0
18.333347,18.472237,64,36,0
18.472237,18.611126,64,36,0
18.611126,19.166681,52,36,0
19.166681,19.30557,64,36,0
19.30557,19.44446,64,36,0
19.44446,20.000015,53,36,0
20.000015,20.138905,64,36,0
20.138905,20.277794,64,36,0
20.277794,20.416683,55,36,0
20.416683,20.555573,65,36,0
20.555573,20.694462,57,36,0
20.694462,20.83335,65,36,0
20.83335,20.972239,59,36,0
20.972239,21.111128,65,36,0
39.444477,40.00003,65,75,0
38.61114,40.00003,59,36,0
40.00003,40.27781,64,75,0
40.00003,40.27781,60,75,0
38.61114,40.27781,67,36,0
40.27781,40.305588,53,36,0
40.555588,40.583366,55,36,0
40.833366,40.861145,55,36,0
41.111145,41.6667,55,36,0
41.111145,41.6667,48,36,0
41.6667,41.805588,64,36,0
41.805588,41.944477,64,36,0
41.944477,42.500034,52,36,0
42.500034,42.638924,64,36,0
42.638924,42.777813,64,36,0
42.777813,43.333366,53,36,0
43.333366,43.472256,64,36,0
43.472256,43.611145,64,36,0
43.611145,43.750034,55,36,0
43.750034,43.888924,65,36,0
43.888924,44.027813,57,36,0
44.027813,44.166702,65,36,0
44.166702,44.30559,59,36,0
44.30559,44.44448,65,36,0
116.04049,116.17938,59,36,0
116.17938,116.31827,61,36,0
116.31827,116.45716,62,49,0
116.45716,116.59605,61,49,0
116.59605,116.73494,59,62,0
116.73494,116.873825,61,62,0
198.46985,198.60873,59,36,0
198.60873,198.74762,61,36,0
198.74762,198.88652,62,49,0
198.88652,199.0254,61,49,0
199.0254,199.16429,59,62,0
199.16429,199.30318,61,62,0
216.78685,217.57117,53,36,0
217.57117,217.96332,57,36,0
217.57117,217.96332,53,36,0
217.96332,218.74763,57,36,0
217.96332,218.74763,53,36,0
218.74763,219.1398,53,36,0
219.1398,219.9241,53,36,0
219.9241,220.31627,53,36,0
226.19862,226.98294,53,36,0
226.98294,227.37509,57,36,0
226.98294,227.37509,53,36,0
227.37509,228.15941,57,36,0
227.37509,228.15941,53,36,0
228.15941,228.55156,53,36,0
228.55156,229.33588,53,36,0
229.33588,229.72803,53,36,0
240.31627,241.10059,53,36,0
241.10059,241.49274,57,36,0
241.10059,241.49274,53,36,0
241.49274,242.27705,57,36,0
241.49274,242.27705,53,36,0
242.27705,242.66922,53,36,0
242.66922,243.45352,53,36,0
243.45352,243.84569,53,36,0
249.72804,250.51236,53,36,0
250.51236,250.90451,57,36,0
250.51236,250.90451,53,36,0
250.90451,251.68883,57,36,0
250.90451,251.68883,53,36,0
251.68883,252.08098,53,36,0
252.08098,252.8653,53,36,0
252.8653,253.25746,53,36,0
277.96335,278.74765,53,36,0
278.74765,279.1398,57,36,0
278.74765,279.1398,53,36,0
279.1398,279.92413,57,36,0
279.1398,279.92413,53,36,0
279.92413,280.31628,53,36,0
280.31628,281.1006,53,36,0
281.1006,281.49277,53,36,0
306.19864,306.98297,53,36,0
306.98297,307.37512,57,36,0
306.98297,307.37512,53,36,0
307.37512,308.15942,57,36,0
307.37512,308.15942,53,36,0
308.15942,308.5516,53,36,0
308.5516,309.3359,53,36,0
309.3359,309.72806,53,36,0
336.03528,336.59082,65,75,0
335.20193,336.59082,59,36,0
336.59082,336.8686,64,75,0
336.59082,336.8686,60,75,0
335.20193,336.8686,67,36,0
336.8686,336.8964,53,36,0
337.1464,337.17416,55,36,0
337.42416,337.45193,55,36,0
337.70193,338.25748,55,36,0
337.70193,338.25748,48,36,0
338.25748,338.3964,64,36,0
338.3964,338.53528,64,36,0
338.53528,339.09082,52,36,0
339.09082,339.2297,64,36,0
339.2297,339.3686,64,36,0
339.3686,339.92416,53,36,0
339.92416,340.06305,64,36,0
340.06305,340.20193,64,36,0
340.20193,340.34082,55,36,0
340.34082,340.4797,65,36,0
340.4797,340.6186,57,36,0
340.6186,340.7575,65,36,0
340.7575,340.8964,59,36,0
340.8964,341.03528,65,36,0
412.6313,412.77017,59,36,0
412.77017,412.90906,61,36,0
412.90906,413.04794,62,49,0
413.04794,413.18683,61,49,0
413.18683,413.32574,59,62,0
413.32574,413.46463,61,62,0
