start_time,end_time,note_value,velocity,instrument_program_number
0.25,0.375,76,36,0
0.375,0.5,77,36,0
0.5,0.625,76,36,0
0.625,0.75,64,36,0
0.75,0.875,74,36,0
0.875,1.0,64,36,0
1.0,1.125,72,36,0
1.125,1.25,64,36,0
1.25,1.375,71,36,0
1.375,1.5,64,36,0
1.5,1.625,71,36,0
1.625,1.75,69,36,0
1.75,1.875,64,36,0
1.875,2.0,69,36,0
2.0,2.125,72,36,0
2.125,2.25,71,36,0
2.25,2.375,64,36,0
2.375,2.5,72,36,0
2.5,2.625,68,36,0
2.625,2.75,69,36,0
2.75,2.875,64,36,0
2.875,3.0,69,36,0
3.0,3.125,72,36,0
3.125,3.25,71,36,0
3.25,3.375,64,36,0
3.375,3.5,71,36,0
3.5,3.625,74,36,0
3.625,3.75,72,36,0
3.75,3.875,71,36,0
3.875,4.0,72,36,0
4.0,4.125,74,36,0
4.125,4.25,67,36,0
4.25,4.375,75,36,0
4.375,4.5,67,36,0
4.5,4.625,76,36,0
4.625,4.75,67,36,0
4.75,4.875,77,36,0
4.875,5.0,67,36,0
5.0,5.125,79,49,0
5.125,5.25,67,49,0
5.25,5.375,81,49,0
5.375,5.5,71,49,0
5.5,5.625,79,62,0
5.625,5.75,72,62,0
5.75,5.875,77,62,0
5.875,6.0,71,62,0
6.0,6.125,76,75,0
6.125,6.25,72,75,0
6.25,6.375,74,75,0
6.375,6.5,69,75,0
6.5,6.625,72,62,0
6.625,6.75,69,62,0
6.75,6.875,74,62,0
6.875,7.0,69,62,0
7.0,7.125,76,49,0
7.125,7.25,64,49,0
7.25,7.375,76,49,0
7.375,7.5,77,49,0
7.5,7.625,77,49,0
7.625,7.75,76,49,0
7.75,7.875,76,49,0
7.875,8.0,74,49,0
8.0,8.125,74,49,0
8.125,8.25,72,49,0
8.25,8.375,72,49,0
8.375,8.5,71,49,0
8.5,8.625,71,49,0
8.625,8.75,69,49,0
8.75,8.875,64,49,0
8.875,9.0,69,49,0
9.0,9.125,72,49,0
9.125,9.25,71,49,0
9.25,9.375,64,49,0
9.375,9.5,71,49,0
9.5,9.625,68,49,0
9.625,9.75,69,49,0
9.75,9.875,64,49,0
9.875,10.0,69,49,0
10.0,10.125,72,49,0
10.125,10.25,71,49,0
10.25,10.375,64,49,0
10.375,10.5,71,49,0
10.5,10.625,74,49,0
10.625,10.75,72,49,0
10.75,10.875,71,49,0
10.875,11.0,72,49,0
11.0,11.125,74,49,0
11.125,11.25,67,49,0
11.25,11.375,75,49,0
11.375,11.5,67,49,0
11.5,11.625,76,49,0
11.625,11.75,67,49,0
11.75,11.875,78,49,0
11.875,12.0,71,49,0
12.0,12.125,79,49,0
12.125,12.25,78,49,0
12.25,12.375,71,49,0
12.375,12.5,78,49,0
12.5,12.625,79,49,0
12.625,12.75,71,49,0
12.75,12.875,81,49,0
12.875,13.0,71,49,0
13.0,13.125,83,49,0
13.125,13.25,71,49,0
13.25,13.375,88,49,0
13.375,13.5,78,49,0
13.5,13.625,86,49,0
13.625,13.75,79,49,0
13.75,13.875,84,49,0
13.875,14.0,78,49,0
14.0,14.125,83,49,0
14.125,14.25,79,49,0
14.25,14.375,81,49,0
14.375,14.5,71,49,0
14.5,14.625,79,49,0
14.625,14.75,72,49,0
14.75,14.875,77,49,0
14.875,15.0,71,49,0
15.0,15.125,76,49,0
15.125,15.25,72,49,0
15.25,15.375,74,49,0
15.375,15.5,69,49,0
15.5,15.625,72,49,0
15.625,15.75,69,49,0
15.75,15.875,74,49,0
15.875,16.0,69,49,0
16.0,16.125,76,49,0
16.125,16.25,64,49,0
16.25,16.375,76,49,0
16.375,16.5,77,49,0
16.5,16.625,76,49,0
16.625,16.75,77,49,0
16.75,16.875,74,49,0
16.875,17.0,76,49,0
17.0,17.125,72,49,0
17.125,17.25,74,49,0
17.25,17.375,71,49,0
17.375,17.5,72,49,0
17.5,17.625,71,36,0
17.625,17.75,69,36,0
17.75,17.875,64,36,0
17.875,18.0,69,36,0
18.0,18.125,72,36,0
18.125,18.25,71,36,0
18.25,18.375,64,36,0
18.375,18.5,71,36,0
18.5,18.625,68,36,0
18.625,18.75,69,36,0
18.75,18.875,64,36,0
18.875,19.0,69,36,0
19.0,19.125,72,36,0
19.125,19.25,71,36,0
19.25,19.375,64,36,0
19.375,19.5,71,36,0
19.5,19.625,71,36,0
19.625,19.75,69,36,0
19.75,19.875,64,36,0
19.875,20.0,69,36,0
20.0,20.125,72,36,0
20.125,20.25,71,36,0
20.25,20.375,64,36,0
20.375,20.5,71,36,0
20.5,20.625,68,36,0
20.625,20.75,69,36,0
20.75,20.875,64,36,0
20.875,21.0,69,36,0
21.0,21.125,72,36,0
21.125,21.25,71,36,0
21.25,21.375,64,36,0
21.375,21.5,71,36,0
21.5,21.625,69,36,0
21.625,21.75,64,36,0
21.75,21.875,68,36,0
21.875,22.0,71,36,0
22.0,22.125,69,36,0
22.125,22.25,64,36,0
22.25,22.375,68,36,0
22.375,22.5,76,36,0
22.5,22.625,69,36,0
22.625,22.75,64,36,0
22.75,22.875,68,36,0
22.875,23.0,71,36,0
23.0,23.25,69,36,0
23.4375,23.46875,60,36,0
23.46875,23.5,62,36,0
23.5,23.75,60,88,0
23.75,23.875,59,88,0
23.875,24.0,57,88,0
24.0,24.25,55,88,0
24.25,24.275,76,88,0
24.25,24.275,64,88,0
24.5,25.0,79,88,0
24.5,25.0,67,88,0
25.0,25.25,76,88,0
25.0,25.25,64,88,0
25.5,25.75,81,88,0
25.75,25.875,81,88,0
25.875,26.0,81,88,0
26.0,26.125,81,88,0
26.125,26.25,84,88,0
26.25,26.375,83,88,0
26.375,26.5,81,88,0
26.5,26.75,76,88,0
26.75,27.0,93,114,0
26.75,27.0,87,114,0
26.75,27.0,81,114,0
27.4375,27.46875,65,114,0
27.46875,27.5,67,114,0
27.0,27.5,88,114,0
27.0,27.5,76,114,0
27.5,27.75,65,114,0
27.75,27.875,64,114,0
27.875,28.0,62,114,0
28.0,28.25,60,114,0
28.25,28.275,81,114,0
28.25,28.275,69,114,0
28.5,29.0,84,114,0
28.5,29.0,72,114,0
29.0,29.25,81,114,0
29.0,29.25,69,114,0
29.5,29.75,86,114,0
29.75,29.875,86,114,0
29.875,30.0,86,114,0
30.0,30.125,86,114,0
30.125,30.25,89,114,0
30.25,30.375,88,114,0
30.375,30.5,86,114,0
30.5,30.75,81,114,0
30.75,30.875,81,114,0
30.875,31.0,81,114,0
31.0,31.125,81,114,0
31.125,31.25,84,114,0
31.25,31.375,83,114,0
31.375,31.5,81,114,0
31.5,31.75,76,114,0
31.75,32.0,92,114,0
31.75,32.0,83,114,0
31.75,32.0,80,114,0
32.0,32.5,93,114,0
32.0,32.5,84,114,0
32.0,32.5,81,114,0
32.5,32.75,81,101,0
32.5,32.75,77,101,0
32.5,32.75,69,101,0
32.75,32.875,81,101,0
32.75,32.875,77,101,0
32.75,32.875,69,101,0
32.875,33.0,81,101,0
32.875,33.0,77,101,0
32.875,33.0,69,101,0
33.0,33.25,81,114,0
33.0,33.25,77,114,0
33.0,33.25,69,114,0
33.25,33.375,81,114,0
33.25,33.375,77,114,0
33.25,33.375,69,114,0
33.375,33.5,81,114,0
33.375,33.5,77,114,0
33.375,33.5,69,114,0
33.5,33.75,81,114,0
33.5,33.75,77,114,0
33.5,33.75,69,114,0
33.75,33.875,81,114,0
33.75,33.875,77,114,0
33.75,33.875,69,114,0
33.875,34.0,81,114,0
33.875,34.0,77,114,0
33.875,34.0,69,114,0
34.0,34.0125,81,114,0
34.0,34.0125,77,114,0
34.0,34.0125,69,114,0
34.125,34.25,84,114,0
34.125,34.25,81,114,0
34.25,34.375,82,114,0
34.25,34.375,79,114,0
34.375,34.5,81,114,0
34.375,34.5,77,114,0
34.5,34.525,79,114,0
34.5,34.525,76,114,0
34.75,34.775,81,114,0
34.75,34.775,77,114,0
34.75,34.775,72,114,0
35.0,35.5,79,114,0
35.0,35.5,76,114,0
35.0,35.5,72,114,0
35.5,35.75,77,114,0
35.5,35.75,74,114,0
35.5,35.75,65,114,0
35.75,35.875,77,114,0
35.75,35.875,74,114,0
35.75,35.875,65,114,0
35.875,36.0,77,114,0
35.875,36.0,74,114,0
35.875,36.0,65,114,0
36.0,36.25,77,114,0
36.0,36.25,74,114,0
36.0,36.25,65,114,0
36.25,36.375,77,114,0
36.25,36.375,74,114,0
36.25,36.375,65,114,0
36.375,36.5,77,114,0
36.375,36.5,74,114,0
36.375,36.5,65,114,0
36.5,36.75,77,114,0
36.5,36.75,74,114,0
36.5,36.75,65,114,0
36.75,36.875,77,114,0
36.75,36.875,74,114,0
36.75,36.875,65,114,0
36.875,37.0,77,114,0
36.875,37.0,74,114,0
36.875,37.0,65,114,0
37.0,37.008335,77,114,0
37.0,37.008335,74,114,0
37.0,37.008335,65,114,0
37.125,37.25,81,114,0
37.125,37.25,77,114,0
37.25,37.375,79,114,0
37.25,37.375,76,114,0
37.375,37.5,77,114,0
37.375,37.5,74,114,0
37.5,37.525,76,114,0
37.5,37.525,73,114,0
37.75,37.775,77,114,0
37.75,37.775,74,114,0
37.75,37.775,69,114,0
38.0,38.5,76,114,0
38.0,38.5,73,114,0
38.0,38.5,69,114,0
38.5,38.75,84,114,0
38.5,38.75,81,114,0
38.5,38.75,72,114,0
38.75,38.875,84,114,0
38.75,38.875,81,114,0
38.75,38.875,72,114,0
38.875,39.0,84,114,0
38.875,39.0,81,114,0
38.875,39.0,72,114,0
39.0,39.25,84,114,0
39.0,39.25,81,114,0
39.0,39.25,72,114,0
39.25,39.375,84,114,0
39.25,39.375,81,114,0
39.25,39.375,72,114,0
39.375,39.5,84,114,0
39.375,39.5,81,114,0
39.375,39.5,72,114,0
39.5,39.75,84,114,0
39.5,39.75,81,114,0
39.5,39.75,72,114,0
39.75,39.875,84,114,0
39.75,39.875,81,114,0
39.75,39.875,72,114,0
39.875,40.0,84,114,0
39.875,40.0,81,114,0
39.875,40.0,72,114,0
40.0,40.125,84,114,0
40.0,40.125,81,114,0
40.0,40.125,72,114,0
40.125,40.25,88,114,0
40.125,40.25,84,114,0
40.25,40.375,86,114,0
40.25,40.375,83,114,0
40.375,40.5,84,114,0
40.375,40.5,81,114,0
40.5,40.525,83,114,0
40.5,40.525,80,114,0
40.75,40.775,84,114,0
40.75,40.775,81,114,0
40.75,40.775,76,114,0
41.0,41.025,83,114,0
41.0,41.025,80,114,0
41.0,41.025,76,114,0
41.25,41.275,84,114,0
41.25,41.275,81,114,0
41.25,41.275,76,114,0
41.5,41.625,71,49,0
41.625,41.75,64,49,0
41.75,41.875,72,49,0
41.875,42.0,64,49,0
42.0,42.125,71,49,0
42.125,42.25,64,49,0
42.25,42.375,72,49,0
42.375,42.5,64,49,0
42.5,42.525,83,114,0
42.5,42.525,80,109,0
42.5,42.525,76,104,0
42.75,42.775,84,114,0
42.75,42.775,81,109,0
42.75,42.775,76,104,0
43.0,43.025,83,114,0
43.0,43.025,80,109,0
43.0,43.025,76,104,0
43.25,43.275,84,114,0
43.25,43.275,81,109,0
43.25,43.275,76,104,0
43.5,43.625,71,49,0
43.625,43.75,64,49,0
43.75,43.875,72,49,0
43.875,44.0,64,49,0
44.0,44.125,71,49,0
44.125,44.25,64,49,0
44.25,44.375,72,49,0
44.375,44.5,64,49,0
44.5,44.625,71,49,0
44.625,44.75,72,49,0
44.75,44.875,72,49,0
44.875,45.0,74,49,0
45.0,45.125,74,49,0
45.125,45.25,76,49,0
45.25,45.375,76,49,0
45.375,45.5,77,49,0
45.5,45.625,76,49,0
45.625,45.75,64,49,0
45.75,45.875,74,49,0
45.875,46.0,64,49,0
46.0,46.125,72,49,0
46.125,46.25,64,49,0
46.25,46.375,71,49,0
46.375,46.5,64,49,0
46.5,46.625,71,49,0
46.625,46.75,69,49,0
46.75,46.875,64,49,0
46.875,47.0,69,49,0
47.0,47.125,72,49,0
47.125,47.25,71,49,0
47.25,47.375,64,49,0
47.375,47.5,72,49,0
47.5,47.625,68,49,0
47.625,47.75,69,49,0
47.75,47.875,64,49,0
47.875,48.0,69,49,0
48.0,48.125,72,49,0
48.125,48.25,71,49,0
48.25,48.375,64,49,0
48.375,48.5,71,49,0
48.5,48.625,74,49,0
48.625,48.75,72,49,0
48.75,48.875,71,49,0
48.875,49.0,72,49,0
49.0,49.125,74,49,0
49.125,49.25,67,49,0
49.25,49.375,75,49,0
49.375,49.5,67,49,0
49.5,49.625,76,49,0
49.625,49.75,67,49,0
49.75,49.875,77,49,0
49.875,50.0,67,49,0
50.0,50.125,79,49,0
50.125,50.25,67,49,0
50.25,50.375,81,49,0
50.375,50.5,71,49,0
50.5,50.625,79,62,0
50.625,50.75,72,62,0
50.75,50.875,77,62,0
50.875,51.0,71,62,0
51.0,51.125,76,62,0
51.125,51.25,72,62,0
51.25,51.375,74,62,0
51.375,51.5,69,62,0
51.5,51.625,72,62,0
51.625,51.75,69,62,0
51.75,51.875,74,62,0
51.875,52.0,69,62,0
52.0,52.125,76,62,0
52.125,52.25,64,62,0
52.25,52.375,76,62,0
52.375,52.5,77,62,0
52.5,52.625,77,36,0
52.625,52.75,76,36,0
52.75,52.875,76,36,0
52.875,53.0,74,36,0
53.0,53.125,74,36,0
53.125,53.25,72,36,0
53.25,53.375,72,36,0
53.375,53.5,71,36,0
53.5,53.625,71,36,0
53.625,53.75,69,36,0
53.75,53.875,68,36,0
53.875,54.0,69,36,0
54.0,54.125,72,36,0
54.125,54.25,71,36,0
54.25,54.375,69,36,0
54.375,54.5,71,36,0
54.5,54.625,74,49,0
54.625,54.75,72,49,0
54.75,54.875,71,49,0
54.875,55.0,72,49,0
55.0,55.125,76,75,0
55.125,55.25,75,75,0
55.25,55.375,73,75,0
55.375,55.5,75,75,0
55.5,55.625,78,75,0
55.625,55.75,76,75,0
55.75,55.875,75,75,0
55.875,56.0,76,75,0
56.0,56.125,79,75,0
56.125,56.25,78,75,0
56.25,56.375,76,75,0
56.375,56.5,78,75,0
56.5,56.625,75,75,0
56.625,56.75,83,75,0
56.75,56.875,76,75,0
56.875,57.0,84,75,0
57.0,57.125,76,75,0
57.125,57.25,79,75,0
57.25,57.375,75,75,0
57.375,57.5,78,75,0
57.5,57.75,76,88,0
57.75,57.775,88,88,0
57.75,57.775,76,88,0
58.0,58.025,86,88,0
58.0,58.025,74,88,0
58.25,58.275,84,88,0
58.25,58.275,72,88,0
58.5,58.525,83,88,0
58.5,58.525,71,88,0
58.75,58.775,79,88,0
58.75,58.775,67,88,0
59.0,59.025,78,88,0
59.0,59.025,66,88,0
59.25,59.275,76,88,0
59.25,59.275,64,88,0
59.5,59.525,74,88,0
59.5,59.525,62,88,0
59.75,59.775,83,88,0
59.75,59.775,71,88,0
60.0,60.025,81,88,0
60.0,60.025,69,88,0
60.25,60.275,79,88,0
60.25,60.275,67,88,0
60.5,60.525,78,88,0
60.5,60.525,66,88,0
60.75,60.775,81,88,0
60.75,60.775,78,88,0
60.75,60.775,72,88,0
61.0,61.025,79,88,0
61.0,61.025,76,88,0
61.0,61.025,71,88,0
61.25,61.275,78,88,0
61.25,61.275,75,88,0
61.25,61.275,71,88,0
61.5,61.75,76,101,0
61.5,61.75,64,101,0
61.75,61.875,76,101,0
61.875,62.0,76,101,0
62.0,62.125,76,101,0
62.125,62.25,79,101,0
62.25,62.375,78,101,0
62.375,62.5,76,101,0
62.5,62.525,83,114,0
62.5,62.525,71,114,0
62.75,62.775,84,114,0
62.75,62.775,72,114,0
63.0,63.5,83,114,0
63.0,63.5,71,114,0
63.5,63.625,83,49,0
63.625,63.75,84,49,0
63.75,63.875,81,49,0
63.875,64.0,83,49,0
64.0,64.125,79,49,0
64.125,64.25,81,49,0
64.25,64.375,78,49,0
64.375,64.5,79,49,0
64.5,64.625,78,49,0
64.625,64.75,76,49,0
64.75,64.875,71,49,0
64.875,65.0,76,49,0
65.0,65.125,79,49,0
65.125,65.25,78,49,0
65.25,65.375,71,49,0
65.375,65.5,78,49,0
65.5,65.625,75,49,0
65.625,65.75,76,49,0
65.75,65.875,71,49,0
65.875,66.0,76,49,0
66.0,66.125,79,49,0
66.125,66.25,78,49,0
66.25,66.375,71,49,0
66.375,66.5,78,49,0
66.5,66.75,76,88,0
66.5,66.75,64,88,0
66.75,66.875,76,88,0
66.875,67.0,76,88,0
67.0,67.125,76,88,0
67.125,67.25,79,88,0
67.25,67.375,78,88,0
67.375,67.5,76,88,0
67.5,67.525,83,114,0
67.5,67.525,71,114,0
67.75,67.775,88,114,0
67.75,67.775,82,114,0
67.75,67.775,74,114,0
68.0,68.5,83,114,0
68.0,68.5,71,114,0
68.5,68.625,83,49,0
68.625,68.75,85,49,0
68.75,68.875,81,49,0
68.875,69.0,83,49,0
69.0,69.125,80,49,0
69.125,69.25,81,49,0
69.25,69.375,78,49,0
69.375,69.5,80,49,0
69.5,69.625,78,49,0
69.625,69.75,76,49,0
69.75,69.875,71,49,0
69.875,70.0,76,49,0
70.0,70.125,80,49,0
70.125,70.25,78,49,0
70.25,70.375,71,49,0
70.375,70.5,78,49,0
70.5,70.625,75,49,0
70.625,70.75,76,49,0
70.75,70.875,71,49,0
70.875,71.0,76,49,0
71.0,71.125,80,49,0
71.125,71.25,78,49,0
71.25,71.375,71,49,0
71.375,71.5,78,49,0
71.5,71.55,64,101,0
71.55,71.6,66,101,0
71.6,71.65,64,101,0
71.64792,71.697914,66,101,0
71.697914,71.74792,64,101,0
71.75,71.875,63,101,0
71.875,72.0,61,101,0
72.0,72.125,59,101,0
72.125,72.25,76,49,0
72.25,72.375,71,49,0
72.375,72.5,80,49,0
72.5,72.625,73,49,0
72.625,72.75,78,49,0
72.75,72.875,73,49,0
72.875,73.0,85,49,0
73.0,73.125,80,49,0
73.125,73.25,83,49,0
73.25,73.375,78,49,0
73.375,73.5,90,49,0
73.5,73.55,64,88,0
73.55,73.6,66,88,0
73.6,73.65,64,88,0
73.64792,73.697914,66,88,0
73.697914,73.74792,64,88,0
73.75,73.875,63,88,0
73.875,74.0,61,88,0
74.0,74.125,59,88,0
74.125,74.25,76,49,0
74.25,74.375,71,49,0
74.375,74.5,80,49,0
74.5,74.625,73,49,0
74.625,74.75,78,49,0
74.75,74.875,73,49,0
74.875,75.0,85,49,0
75.0,75.125,80,49,0
75.125,75.25,83,49,0
75.25,75.375,78,49,0
75.375,75.5,90,49,0
75.5,75.55,64,88,0
75.55,75.6,66,88,0
75.6,75.65,64,88,0
75.64792,75.697914,66,88,0
75.697914,75.74792,64,88,0
75.75,75.875,63,88,0
75.875,76.0,61,88,0
76.0,76.125,60,88,0
76.125,76.25,87,88,0
76.25,76.375,80,114,0
76.375,76.5,92,114,0
76.5,76.55,64,88,0
76.55,76.6,66,88,0
76.6,76.65,64,88,0
76.64792,76.697914,66,88,0
76.697914,76.74792,64,88,0
76.75,76.875,63,88,0
76.875,77.0,61,88,0
77.0,77.125,60,88,0
77.125,77.25,87,88,0
77.25,77.375,80,114,0
77.375,77.5,92,114,0
77.625,77.75,75,36,0
77.75,77.875,68,36,0
77.875,78.0,80,36,0
78.0,78.125,68,36,0
78.125,78.25,80,36,0
78.25,78.375,68,36,0
78.375,78.5,80,36,0
78.5,78.625,68,36,0
78.625,78.75,80,36,0
78.75,78.875,68,36,0
78.875,79.0,80,36,0
79.0,79.05,75,36,0
79.05,79.1,77,36,0
79.1,79.15,75,36,0
79.14792,79.197914,77,36,0
79.197914,79.24792,75,36,0
79.25,79.375,73,36,0
79.375,79.5,72,36,0
79.5,79.625,70,36,0
79.625,79.75,77,36,0
79.75,79.875,70,36,0
79.875,80.0,82,36,0
80.0,80.05,78,36,0
80.05,80.1,80,36,0
80.1,80.15,78,36,0
80.14792,80.197914,80,36,0
80.197914,80.24792,78,36,0
80.25,80.375,77,36,0
80.375,80.5,75,36,0
80.5,80.625,70,36,0
80.625,80.75,77,36,0
80.75,80.875,70,36,0
80.875,81.0,82,36,0
81.0,81.125,70,36,0
81.125,81.25,77,36,0
81.25,81.375,70,36,0
81.375,81.5,82,36,0
81.5,81.625,70,36,0
81.625,81.75,77,36,0
81.75,81.875,70,36,0
81.875,82.0,82,36,0
82.0,82.125,73,36,0
82.125,82.25,80,36,0
82.25,82.375,73,36,0
82.375,82.5,85,36,0
82.5,82.625,73,36,0
82.625,82.75,80,36,0
82.75,82.875,73,36,0
82.875,83.0,85,36,0
83.0,83.05,83,49,0
83.05,83.1,85,49,0
83.1,83.15,83,49,0
83.14792,83.197914,85,49,0
83.197914,83.24792,83,49,0
83.25,83.375,81,49,0
83.375,83.5,80,49,0
83.5,83.625,78,62,0
83.625,83.75,85,62,0
83.75,83.875,78,62,0
83.875,84.0,90,62,0
84.0,84.125,83,75,0
84.125,84.25,90,75,0
84.25,84.375,83,75,0
84.375,84.5,95,75,0
84.5,84.55,64,101,0
84.55,84.6,66,101,0
84.6,84.65,64,101,0
84.64792,84.697914,66,101,0
84.697914,84.74792,64,101,0
84.75,84.875,63,101,0
84.875,85.0,61,101,0
85.0,85.125,59,101,0
85.5,85.55,64,101,0
85.55,85.6,66,101,0
85.6,85.65,64,101,0
85.64792,85.697914,66,101,0
85.697914,85.74792,64,101,0
85.75,85.875,63,101,0
85.875,86.0,61,101,0
86.0,86.125,59,101,0
86.5,86.55,68,101,0
86.55,86.6,69,101,0
86.6,86.65,68,101,0
86.64792,86.697914,69,101,0
86.697914,86.74792,68,101,0
86.75,86.875,66,101,0
86.75,86.875,63,101,0
86.875,87.0,64,101,0
86.875,87.0,61,101,0
87.0,87.125,63,101,0
87.0,87.125,59,101,0
87.5,87.55,68,101,0
87.55,87.6,69,101,0
87.6,87.65,68,101,0
87.64792,87.697914,69,101,0
87.697914,87.74792,68,101,0
87.75,87.875,66,101,0
87.75,87.875,63,101,0
87.875,88.0,64,101,0
87.875,88.0,61,101,0
88.0,88.125,63,101,0
88.0,88.125,59,101,0
88.5,88.625,68,101,0
88.625,88.75,64,101,0
88.75,88.875,69,101,0
88.875,89.0,64,101,0
89.0,89.125,71,101,0
89.125,89.25,64,101,0
89.25,89.375,73,101,0
89.375,89.5,64,101,0
89.5,89.625,75,101,0
89.625,89.75,71,101,0
89.75,89.875,76,101,0
89.875,90.0,71,101,0
90.0,90.125,78,101,0
90.125,90.25,71,101,0
90.25,90.375,79,101,0
90.375,90.5,71,101,0
90.5,91.0,79,88,0
90.5,91.0,67,88,0
90.5,91.0,71,88,0
90.5,91.0,74,88,0
91.0,91.5,79,88,0
91.0,91.5,67,88,0
91.0,91.5,71,88,0
91.0,91.5,74,88,0
91.5,92.0,79,88,0
91.5,92.0,67,88,0
91.5,92.0,71,88,0
91.5,92.0,74,88,0
92.0,92.5,79,88,0
92.0,92.5,67,88,0
92.0,92.5,71,88,0
92.0,92.5,74,88,0
92.5,93.0,83,88,0
92.5,93.0,80,88,0
92.5,93.0,71,88,0
93.0,93.5,83,88,0
93.0,93.5,80,88,0
93.0,93.5,71,88,0
93.5,94.0,83,88,0
93.5,94.0,80,88,0
93.5,94.0,71,88,0
94.0,94.5,83,88,0
94.0,94.5,80,88,0
94.0,94.5,71,88,0
94.5,94.525,83,88,0
94.5,94.525,80,88,0
94.5,94.525,71,88,0
94.75,94.875,81,88,0
94.75,94.875,78,88,0
94.75,94.875,71,88,0
94.875,95.0,80,88,0
94.875,95.0,76,88,0
95.0,95.025,80,88,0
95.0,95.025,76,88,0
95.0,95.025,71,88,0
95.25,95.25833,78,88,0
95.25,95.25833,75,88,0
95.25,95.25833,71,88,0
95.5,95.5125,76,88,0
95.5,95.5125,71,88,0
95.5,95.5125,68,88,0
95.625,95.75,64,88,0
95.75,95.875,76,88,0
95.875,96.0,77,88,0
96.0,96.125,76,88,0
96.125,96.25,64,88,0
96.25,96.375,76,88,0
96.375,96.5,77,88,0
96.5,96.625,76,75,0
96.625,96.75,68,75,0
96.75,96.875,76,75,0
96.875,97.0,77,75,0
97.0,97.125,76,75,0
97.125,97.25,71,75,0
97.25,97.375,76,75,0
97.375,97.5,77,75,0
97.5,97.625,76,75,0
97.625,97.75,74,75,0
97.75,97.875,76,75,0
97.875,98.0,77,75,0
98.0,98.125,76,75,0
98.125,98.25,71,75,0
98.25,98.375,76,75,0
98.375,98.5,77,75,0
98.5,98.625,76,75,0
98.625,98.75,74,75,0
98.75,98.875,76,75,0
98.875,99.0,77,75,0
99.0,99.125,76,75,0
99.125,99.25,71,75,0
99.25,99.375,76,75,0
99.375,99.5,77,75,0
99.5,99.625,76,75,0
99.625,99.75,74,75,0
99.75,99.875,76,75,0
99.875,100.0,77,75,0
100.0,100.125,76,75,0
100.125,100.25,71,75,0
100.25,100.375,76,75,0
100.375,100.5,77,75,0
100.5,100.625,76,75,0
100.5,100.625,74,75,0
100.625,100.75,68,75,0
100.75,100.875,76,75,0
100.75,100.875,74,75,0
100.875,101.0,77,75,0
101.0,101.125,76,75,0
101.0,101.125,74,75,0
101.125,101.25,68,75,0
101.25,101.375,76,75,0
101.25,101.375,74,75,0
101.375,101.5,77,75,0
101.5,101.625,76,49,0
101.5,101.625,74,49,0
101.625,101.75,68,49,0
101.75,101.875,76,49,0
101.75,101.875,74,49,0
101.875,102.0,77,49,0
102.0,102.125,76,49,0
102.0,102.125,74,49,0
102.125,102.25,68,49,0
102.25,102.375,76,49,0
102.25,102.375,74,49,0
102.375,102.5,77,49,0
102.5,102.625,76,49,0
102.5,102.625,74,49,0
102.625,102.75,68,49,0
102.75,102.875,76,49,0
102.75,102.875,74,49,0
102.875,103.0,77,49,0
103.0,103.125,76,49,0
103.0,103.125,74,49,0
103.125,103.25,68,49,0
103.25,103.375,76,49,0
103.25,103.375,74,49,0
103.375,103.5,77,49,0
103.5,103.625,76,49,0
103.5,103.625,74,49,0
103.625,103.75,68,49,0
103.75,103.875,76,49,0
103.875,104.0,77,49,0
104.0,104.125,76,49,0
104.125,104.25,68,49,0
104.25,104.375,76,49,0
104.375,104.5,77,49,0
104.5,104.625,76,49,0
104.625,104.75,64,49,0
104.75,104.875,74,49,0
104.875,105.0,64,49,0
105.0,105.125,72,49,0
105.125,105.25,64,49,0
105.25,105.375,71,49,0
105.375,105.5,64,49,0
105.5,105.625,71,49,0
105.625,105.75,69,49,0
105.75,105.875,64,49,0
105.875,106.0,69,49,0
106.0,106.125,72,49,0
106.125,106.25,71,49,0
106.25,106.375,64,49,0
106.375,106.5,72,49,0
106.5,106.625,68,49,0
106.625,106.75,69,49,0
106.75,106.875,64,49,0
106.875,107.0,69,49,0
107.0,107.125,72,49,0
107.125,107.25,71,49,0
107.25,107.375,64,49,0
107.375,107.5,71,49,0
107.5,107.625,74,49,0
107.625,107.75,72,49,0
107.75,107.875,71,49,0
107.875,108.0,72,49,0
108.0,108.125,74,49,0
108.125,108.25,67,49,0
108.25,108.375,75,49,0
108.375,108.5,67,49,0
108.5,108.625,76,49,0
108.625,108.75,67,49,0
108.75,108.875,77,49,0
108.875,109.0,67,49,0
109.0,109.125,79,49,0
109.125,109.25,67,49,0
109.25,109.375,81,49,0
109.375,109.5,71,49,0
109.5,109.625,79,62,0
109.625,109.75,72,62,0
109.75,109.875,77,62,0
109.875,110.0,71,62,0
110.0,110.125,76,75,0
110.125,110.25,72,75,0
110.25,110.375,74,75,0
110.375,110.5,69,75,0
110.5,110.625,72,62,0
110.625,110.75,69,62,0
110.75,110.875,74,62,0
110.875,111.0,69,62,0
111.0,111.125,76,49,0
111.125,111.25,64,49,0
111.25,111.375,76,49,0
111.375,111.5,77,49,0
111.5,111.625,77,49,0
111.625,111.75,76,49,0
111.75,111.875,76,49,0
111.875,112.0,74,49,0
112.0,112.125,74,49,0
112.125,112.25,72,49,0
112.25,112.375,72,49,0
112.375,112.5,71,49,0
112.5,112.625,71,49,0
112.625,112.75,69,49,0
112.75,112.875,64,49,0
112.875,113.0,69,49,0
113.0,113.125,72,49,0
113.125,113.25,71,49,0
113.25,113.375,64,49,0
113.375,113.5,71,49,0
113.5,113.625,68,49,0
113.625,113.75,69,49,0
113.75,113.875,64,49,0
113.875,114.0,69,49,0
114.0,114.125,72,49,0
114.125,114.25,71,49,0
114.25,114.375,64,49,0
114.375,114.5,71,49,0
114.5,114.625,74,49,0
114.625,114.75,72,49,0
114.75,114.875,71,49,0
114.875,115.0,72,49,0
115.0,115.125,74,49,0
115.125,115.25,67,49,0
115.25,115.375,75,49,0
115.375,115.5,67,49,0
115.5,115.625,76,49,0
115.625,115.75,67,49,0
115.75,115.875,78,49,0
115.875,116.0,71,49,0
116.0,116.125,79,49,0
116.125,116.25,78,49,0
116.25,116.375,71,49,0
116.375,116.5,78,49,0
116.5,116.625,79,49,0
116.625,116.75,71,49,0
116.75,116.875,81,49,0
116.875,117.0,71,49,0
117.0,117.125,83,49,0
117.125,117.25,71,49,0
117.25,117.375,88,49,0
117.375,117.5,78,49,0
117.5,117.625,86,49,0
117.625,117.75,79,49,0
117.75,117.875,84,49,0
117.875,118.0,78,49,0
118.0,118.125,83,49,0
118.125,118.25,79,49,0
118.25,118.375,81,49,0
118.375,118.5,71,49,0
118.5,118.625,79,49,0
118.625,118.75,72,49,0
118.75,118.875,77,49,0
118.875,119.0,71,49,0
119.0,119.125,76,49,0
119.125,119.25,72,49,0
119.25,119.375,74,49,0
119.375,119.5,69,49,0
119.5,119.625,72,49,0
119.625,119.75,69,49,0
119.75,119.875,74,49,0
119.875,120.0,69,49,0
120.0,120.125,76,49,0
120.125,120.25,64,49,0
120.25,120.375,76,49,0
120.375,120.5,77,49,0
120.5,120.625,76,49,0
120.625,120.75,77,49,0
120.75,120.875,74,49,0
120.875,121.0,76,49,0
121.0,121.125,72,49,0
121.125,121.25,74,49,0
121.25,121.375,71,49,0
121.375,121.5,72,49,0
121.5,121.625,71,36,0
121.625,121.75,69,36,0
121.75,121.875,64,36,0
121.875,122.0,69,36,0
122.0,122.125,72,36,0
122.125,122.25,71,36,0
122.25,122.375,64,36,0
122.375,122.5,71,36,0
122.5,122.625,68,36,0
122.625,122.75,69,36,0
122.75,122.875,64,36,0
122.875,123.0,69,36,0
123.0,123.125,73,36,0
123.125,123.25,71,36,0
123.25,123.375,64,36,0
123.375,123.5,71,36,0
123.5,123.625,71,36,0
123.625,123.75431,69,36,0
123.75431,123.88824,64,36,0
123.88824,124.02713,69,36,0
124.02713,124.17136,72,36,0
124.17136,124.32136,71,36,0
124.32136,124.47761,64,36,0
124.47761,124.640656,71,36,0
124.640656,124.811104,68,36,0
124.811104,124.98156,69,36,0
124.98156,125.152016,64,36,0
125.152016,125.32247,69,36,0
125.32247,125.49293,73,36,0
125.49293,125.663376,71,36,0
125.663376,125.83383,64,36,0
125.83383,126.00429,71,36,0
126.00429,126.12929,69,36,0
126.12929,126.25429,64,36,0
126.25429,126.37929,68,36,0
126.37929,126.50429,71,36,0
126.50429,126.62929,69,36,0
126.62929,126.75429,64,36,0
126.75429,126.87929,68,36,0
126.87929,127.00429,76,36,0
127.00429,127.12929,69,36,0
127.12929,127.25429,64,36,0
127.25429,127.37929,68,36,0
127.37929,127.50429,71,36,0
127.50429,127.75429,69,36,0
129.00429,129.25429,85,49,0
129.00429,129.25429,73,49,0
129.25429,129.50429,83,49,0
129.25429,129.50429,71,49,0
129.50429,129.75429,81,49,0
129.50429,129.75429,69,49,0
129.75429,130.00429,80,49,0
129.75429,130.00429,68,49,0
130.00429,130.50429,81,49,0
130.00429,130.50429,69,49,0
130.50429,131.00429,83,49,0
130.50429,131.00429,71,49,0
131.00429,131.50429,85,75,0
131.00429,131.50429,73,75,0
131.50429,131.75429,86,49,0
131.50429,131.75429,74,49,0
131.75429,132.00429,83,49,0
131.75429,132.00429,71,49,0
132.00429,132.50429,73,49,0
132.00429,132.50429,61,49,0
132.50429,133.00429,74,49,0
132.50429,133.00429,62,49,0
133.00429,133.50429,76,75,0
133.00429,133.50429,64,75,0
133.50429,133.75429,78,36,0
133.50429,133.75429,66,36,0
133.75429,134.00429,74,36,0
133.75429,134.00429,62,36,0
134.00429,134.12929,83,36,0
134.12929,134.25429,71,36,0
134.25429,134.37929,81,36,0
134.37929,134.50429,71,36,0
134.50429,134.62929,80,36,0
134.62929,134.75429,71,36,0
134.75429,134.87929,78,36,0
134.87929,135.00429,71,36,0
135.00429,135.12929,76,36,0
135.12929,135.25429,68,36,0
135.25429,135.37929,73,36,0
135.37929,135.50429,76,36,0
135.50429,135.62929,78,36,0
135.62929,135.75429,69,36,0
135.75429,135.87929,73,62,0
135.87929,136.00429,78,62,0
136.00429,136.12929,80,75,0
136.12929,136.25429,72,75,0
136.25429,136.37929,75,62,0
136.37929,136.50429,80,62,0
136.50429,136.62929,81,36,0
136.62929,136.75429,73,36,0
136.75429,136.87929,78,36,0
136.87929,137.00429,69,36,0
137.00429,137.12929,76,36,0
137.00429,137.12929,68,36,0
137.12929,137.25429,80,36,0
137.25429,137.37929,83,36,0
137.37929,137.50429,88,36,0
137.50429,137.62929,92,88,0
137.62929,137.75429,83,88,0
137.75429,137.87929,95,49,0
137.87929,138.00429,83,49,0
138.00429,138.25429,71,49,0
138.25429,138.50429,81,49,0
138.50429,138.75429,78,49,0
138.75429,139.00429,75,49,0
139.00429,139.12929,76,36,0
139.00429,139.12929,68,36,0
139.12929,139.25429,80,36,0
139.25429,139.37929,83,36,0
139.37929,139.50429,88,36,0
139.50429,139.62929,92,36,0
139.62929,139.75429,83,36,0
139.75429,139.87929,95,36,0
139.87929,140.00429,83,36,0
140.00429,140.25429,71,36,0
140.25429,140.50429,81,36,0
140.50429,140.75429,78,36,0
140.75429,141.00429,75,36,0
141.00429,141.25429,76,36,0
141.00429,141.25429,68,36,0
142.00429,142.25429,85,49,0
142.00429,142.25429,73,49,0
142.25429,142.50429,83,49,0
142.25429,142.50429,71,49,0
142.50429,142.75429,81,49,0
142.50429,142.75429,69,49,0
142.75429,143.00429,80,49,0
142.75429,143.00429,68,49,0
143.00429,143.50429,81,49,0
143.00429,143.50429,69,49,0
143.50429,144.00429,83,49,0
143.50429,144.00429,71,49,0
144.00429,144.50429,85,75,0
144.00429,144.50429,73,75,0
144.50429,144.75429,86,49,0
144.50429,144.75429,74,49,0
144.75429,144.77928,83,49,0
144.75429,144.77928,71,49,0
145.00429,145.12929,69,49,0
145.12929,145.25429,78,49,0
145.25429,145.37929,74,49,0
145.37929,145.50429,69,49,0
145.50429,145.62929,69,49,0
145.62929,145.75429,76,49,0
145.75429,145.87929,72,62,0
145.87929,146.00429,69,62,0
146.00429,146.12929,69,75,0
146.12929,146.25429,75,75,0
146.25429,146.37929,72,62,0
146.37929,146.50429,69,62,0
146.50429,146.62929,71,49,0
146.62929,146.75429,76,49,0
146.75429,146.87929,67,49,0
146.87929,147.00429,76,49,0
147.00429,147.50429,79,49,0
147.00429,147.50429,67,49,0
147.50429,148.00429,81,49,0
147.50429,148.00429,69,49,0
148.00429,148.50429,83,75,0
148.00429,148.50429,71,75,0
148.50429,148.52928,84,49,0
148.50429,148.52928,72,49,0
148.75429,148.76262,81,49,0
148.75429,148.76262,69,49,0
149.00429,149.12929,88,49,0
149.12929,149.25429,76,49,0
149.25429,149.37929,86,49,0
149.37929,149.50429,76,49,0
149.50429,149.62929,85,49,0
149.62929,149.75429,76,49,0
149.75429,149.87929,83,49,0
149.87929,150.00429,76,49,0
150.00429,150.12929,81,49,0
150.12929,150.25429,69,49,0
150.25429,150.37929,78,49,0
150.37929,150.50429,81,49,0
150.50429,150.62929,83,49,0
150.62929,150.75429,74,49,0
150.75429,150.87929,78,49,0
150.87929,151.00429,83,49,0
151.00429,151.12929,85,49,0
151.12929,151.25429,77,49,0
151.25429,151.37929,80,49,0
151.37929,151.50429,85,49,0
151.50429,151.62929,86,62,0
151.62929,151.75429,78,62,0
151.75429,151.87929,83,36,0
151.87929,152.00429,71,36,0
152.00429,152.12929,81,36,0
152.00429,152.12929,73,36,0
152.12929,152.25429,85,36,0
152.25429,152.37929,88,36,0
152.37929,152.50429,93,36,0
152.50429,152.75429,97,88,0
152.75429,153.00429,100,88,0
153.00429,153.25429,76,49,0
153.25429,153.50429,86,49,0
153.50429,153.75429,83,49,0
153.75429,154.00429,80,49,0
154.00429,154.12929,81,49,0
154.00429,154.12929,73,49,0
154.12929,154.25429,85,49,0
154.25429,154.37929,88,49,0
154.37929,154.50429,93,49,0
154.50429,154.75429,97,88,0
154.75429,155.00429,100,88,0
155.00429,155.25429,76,49,0
155.25429,155.50429,86,49,0
155.50429,155.75429,83,49,0
155.75429,156.00429,80,49,0
156.00429,156.12929,81,49,0
156.12929,156.25429,83,49,0
156.25429,156.37929,80,49,0
156.37929,156.50429,83,49,0
156.50429,156.62929,81,49,0
156.62929,156.75429,83,49,0
156.75429,156.87929,80,49,0
156.87929,157.00429,83,49,0
157.00429,157.12929,81,62,0
157.12929,157.25429,82,62,0
157.25429,157.37929,79,62,0
157.37929,157.50429,81,62,0
157.50429,157.62929,77,75,0
157.62929,157.75429,79,75,0
157.75429,157.87929,76,75,0
157.87929,158.00429,77,75,0
158.00429,158.12929,82,101,0
158.12929,158.25429,81,101,0
158.25429,158.37929,81,101,0
158.37929,158.50429,79,101,0
158.50429,158.62929,79,101,0
158.62929,158.75429,77,101,0
158.75429,158.87929,77,101,0
158.87929,159.00429,76,101,0
159.00429,159.12929,76,101,0
159.12929,159.25429,74,101,0
159.25429,159.37929,69,101,0
159.37929,159.50429,74,101,0
159.50429,159.62929,77,101,0
159.62929,159.75429,76,101,0
159.75429,159.87929,69,101,0
159.87929,160.00429,73,101,0
160.00429,160.12929,76,101,0
160.12929,160.25429,74,101,0
160.25429,160.37929,69,101,0
160.37929,160.50429,74,101,0
160.50429,160.62929,77,101,0
160.62929,160.75429,76,101,0
160.75429,160.87929,69,101,0
160.87929,161.00429,73,101,0
161.00429,161.12929,74,101,0
161.12929,161.25429,69,101,0
161.25429,161.37929,76,101,0
161.37929,161.50429,69,101,0
161.50429,161.62929,77,101,0
161.62929,161.75429,69,101,0
161.75429,161.87929,80,101,0
161.87929,162.00429,74,101,0
162.00429,162.50429,81,101,0
162.00429,162.50429,69,101,0
162.50429,163.00429,83,101,0
162.50429,163.00429,71,101,0
163.00429,163.50429,84,101,0
163.00429,163.50429,72,101,0
163.50429,163.52928,86,101,0
163.50429,163.52928,74,101,0
163.75429,163.77928,83,101,0
163.75429,163.77928,71,101,0
164.00429,164.50429,84,101,0
164.00429,164.50429,72,101,0
164.50429,164.52928,86,101,0
164.50429,164.52928,74,101,0
164.75429,164.77928,83,101,0
164.75429,164.77928,71,101,0
165.00429,165.02928,84,101,0
165.00429,165.02928,72,101,0
165.25429,165.27928,80,101,0
165.25429,165.27928,68,101,0
165.50429,165.52928,81,101,0
165.50429,165.52928,69,101,0
165.75429,165.77928,77,101,0
165.75429,165.77928,65,101,0
166.00429,166.12929,76,101,0
166.12929,166.25429,89,101,0
166.25429,166.37929,89,101,0
166.37929,166.50429,88,101,0
166.50429,166.62929,88,101,0
166.62929,166.75429,86,101,0
166.75429,166.87929,86,101,0
166.87929,167.00429,84,101,0
167.00429,167.12929,84,101,0
167.12929,167.25429,83,101,0
167.25429,167.37929,76,101,0
167.37929,167.50429,83,101,0
167.50429,167.62929,86,101,0
167.62929,167.75429,84,101,0
167.75429,167.87929,81,101,0
167.87929,168.00429,93,101,0
168.00429,168.50429,76,101,0
168.00429,168.50429,64,101,0
168.50429,169.00429,78,101,0
168.50429,169.00429,66,101,0
169.00429,169.50429,80,101,0
169.00429,169.50429,68,101,0
169.50429,169.52928,81,101,0
169.50429,169.52928,69,101,0
169.75429,169.77928,77,101,0
169.75429,169.77928,65,101,0
170.00429,170.02928,76,101,0
170.00429,170.02928,64,101,0
170.25429,170.50429,76,101,0
170.25429,170.50429,71,101,0
170.50429,170.75429,75,101,0
170.50429,170.75429,72,101,0
170.75429,170.77928,93,101,0
170.75429,170.77928,87,101,0
170.75429,170.77928,81,101,0
171.00429,171.02928,92,101,0
171.00429,171.02928,88,101,0
171.00429,171.02928,80,101,0
171.25429,171.50429,76,101,0
171.25429,171.50429,71,101,0
171.50429,171.75429,75,101,0
171.50429,171.75429,72,101,0
171.75429,171.77928,93,101,0
171.75429,171.77928,87,101,0
171.75429,171.77928,81,101,0
172.00429,172.01678,92,101,0
172.00429,172.01678,88,101,0
172.00429,172.01678,80,101,0
172.12929,172.25429,76,101,0
172.25429,172.37929,88,101,0
172.37929,172.50429,89,101,0
172.50429,172.62929,88,49,0
172.62929,172.75429,76,49,0
172.75429,172.87929,88,49,0
172.87929,173.00429,89,49,0
173.00429,173.12929,88,49,0
173.12929,173.25429,89,49,0
173.25429,173.37929,86,49,0
173.37929,173.50429,88,49,0
173.50429,173.62929,84,49,0
173.62929,173.75429,86,49,0
173.75429,173.87929,83,49,0
173.87929,174.00429,84,49,0
174.00429,174.12929,83,49,0
174.12929,174.25429,81,49,0
174.25429,174.37929,76,49,0
174.37929,174.50429,81,49,0
174.50429,174.62929,84,49,0
174.62929,174.75429,83,49,0
174.75429,174.87929,76,49,0
174.87929,175.00429,80,49,0
175.00429,175.12929,83,49,0
175.12929,175.25429,81,49,0
175.25429,175.37929,76,49,0
175.37929,175.50429,81,49,0
175.50429,175.62929,84,49,0
175.62929,175.75429,83,49,0
175.75429,175.87929,76,49,0
175.87929,176.00429,83,49,0
176.00429,176.12929,80,49,0
176.12929,176.25429,81,49,0
176.25429,176.37929,76,49,0
176.37929,176.50429,81,49,0
176.50429,176.62929,85,49,0
176.62929,176.75429,83,49,0
176.75429,176.87929,76,49,0
176.87929,177.00429,83,49,0
177.00429,177.12929,80,49,0
177.12929,177.25429,81,49,0
177.25429,177.37929,76,49,0
177.37929,177.50429,81,49,0
177.50429,177.62929,85,49,0
177.62929,177.75429,83,49,0
177.75429,177.87929,76,49,0
177.87929,178.00429,80,49,0
178.00429,178.12929,81,49,0
178.12929,178.25429,76,49,0
178.25429,178.37929,80,49,0
178.37929,178.50429,83,49,0
178.50429,178.62929,81,49,0
178.62929,178.75429,76,49,0
178.75429,178.87929,80,49,0
178.87929,179.00429,88,49,0
179.00429,179.12929,81,49,0
179.12929,179.25429,76,49,0
179.25429,179.37929,80,49,0
179.37929,179.50429,83,49,0
179.50429,179.62929,81,49,0
179.94179,179.97304,60,49,0
179.97304,180.00429,62,49,0
180.00429,180.25429,60,88,0
180.25429,180.37929,59,88,0
180.37929,180.50429,57,88,0
180.50429,180.75429,55,88,0
180.75429,180.77928,76,88,0
180.75429,180.77928,64,88,0
181.00429,181.50429,79,88,0
181.00429,181.50429,67,88,0
181.50429,181.75429,76,88,0
181.50429,181.75429,64,88,0
182.00429,182.25429,81,88,0
182.25429,182.37929,81,88,0
182.37929,182.50429,81,88,0
182.50429,182.62929,81,88,0
182.62929,182.75429,84,88,0
182.75429,182.87929,83,88,0
182.87929,183.00429,81,88,0
183.00429,183.25429,76,88,0
183.25429,183.50429,93,114,0
183.25429,183.50429,87,114,0
183.25429,183.50429,81,114,0
183.94179,183.97304,65,114,0
183.97304,184.00429,67,114,0
183.50429,184.00429,88,114,0
183.50429,184.00429,76,114,0
184.00429,184.25429,65,114,0
184.25429,184.37929,64,114,0
184.37929,184.50429,62,114,0
184.50429,184.75429,60,114,0
184.75429,184.77928,81,114,0
184.75429,184.77928,69,114,0
185.00429,185.50429,84,114,0
185.00429,185.50429,72,114,0
185.50429,185.75429,81,114,0
185.50429,185.75429,69,114,0
186.00429,186.25429,86,114,0
186.25429,186.37929,86,114,0
186.37929,186.50429,86,114,0
186.50429,186.62929,86,114,0
186.62929,186.75429,89,114,0
186.75429,186.87929,88,114,0
186.87929,187.00429,86,114,0
187.00429,187.25429,81,114,0
187.25429,187.37929,81,114,0
187.37929,187.50429,81,114,0
187.50429,187.62929,81,114,0
187.62929,187.75429,84,114,0
187.75429,187.87929,83,114,0
187.87929,188.00429,81,114,0
188.00429,188.25429,76,114,0
188.25429,188.50429,92,114,0
188.25429,188.50429,83,114,0
188.25429,188.50429,80,114,0
188.50429,189.00429,93,114,0
188.50429,189.00429,84,114,0
188.50429,189.00429,81,114,0
189.00429,189.25429,81,101,0
189.00429,189.25429,77,101,0
189.00429,189.25429,69,101,0
189.25429,189.37929,81,101,0
189.25429,189.37929,77,101,0
189.25429,189.37929,69,101,0
189.37929,189.50429,81,101,0
189.37929,189.50429,77,101,0
189.37929,189.50429,69,101,0
189.50429,189.75429,81,114,0
189.50429,189.75429,77,114,0
189.50429,189.75429,69,114,0
189.75429,189.87929,81,114,0
189.75429,189.87929,77,114,0
189.75429,189.87929,69,114,0
189.87929,190.00429,81,114,0
189.87929,190.00429,77,114,0
189.87929,190.00429,69,114,0
190.00429,190.25429,81,114,0
190.00429,190.25429,77,114,0
190.00429,190.25429,69,114,0
190.25429,190.37929,81,114,0
190.25429,190.37929,77,114,0
190.25429,190.37929,69,114,0
190.37929,190.50429,81,114,0
190.37929,190.50429,77,114,0
190.37929,190.50429,69,114,0
190.50429,190.51678,81,114,0
190.50429,190.51678,77,114,0
190.50429,190.51678,69,114,0
190.62929,190.75429,84,114,0
190.62929,190.75429,81,114,0
190.75429,190.87929,82,114,0
190.75429,190.87929,79,114,0
190.87929,191.00429,81,114,0
190.87929,191.00429,77,114,0
191.00429,191.02928,79,114,0
191.00429,191.02928,76,114,0
191.25429,191.27928,81,114,0
191.25429,191.27928,77,114,0
191.25429,191.27928,72,114,0
191.50429,192.00429,79,114,0
191.50429,192.00429,76,114,0
191.50429,192.00429,72,114,0
192.00429,192.25429,77,114,0
192.00429,192.25429,74,114,0
192.00429,192.25429,65,114,0
192.25429,192.37929,77,114,0
192.25429,192.37929,74,114,0
192.25429,192.37929,65,114,0
192.37929,192.50429,77,114,0
192.37929,192.50429,74,114,0
192.37929,192.50429,65,114,0
192.50429,192.75429,77,114,0
192.50429,192.75429,74,114,0
192.50429,192.75429,65,114,0
192.75429,192.87929,77,114,0
192.75429,192.87929,74,114,0
192.75429,192.87929,65,114,0
192.87929,193.00429,77,114,0
192.87929,193.00429,74,114,0
192.87929,193.00429,65,114,0
193.00429,193.25429,77,114,0
193.00429,193.25429,74,114,0
193.00429,193.25429,65,114,0
193.25429,193.37929,77,114,0
193.25429,193.37929,74,114,0
193.25429,193.37929,65,114,0
193.37929,193.50429,77,114,0
193.37929,193.50429,74,114,0
193.37929,193.50429,65,114,0
193.50429,193.51262,77,114,0
193.50429,193.51262,74,114,0
193.50429,193.51262,65,114,0
193.62929,193.75429,81,114,0
193.62929,193.75429,77,114,0
193.75429,193.87929,79,114,0
193.75429,193.87929,76,114,0
193.87929,194.00429,77,114,0
193.87929,194.00429,74,114,0
194.00429,194.02928,76,114,0
194.00429,194.02928,73,114,0
194.25429,194.27928,77,114,0
194.25429,194.27928,74,114,0
194.25429,194.27928,69,114,0
194.50429,194.52928,76,114,0
194.50429,194.52928,73,114,0
194.50429,194.52928,69,114,0
194.75429,194.77928,77,114,0
194.75429,194.77928,74,114,0
194.75429,194.77928,69,114,0
195.00429,195.12929,64,49,0
195.12929,195.25429,57,49,0
195.25429,195.37929,65,49,0
195.37929,195.50429,57,49,0
195.50429,195.62929,64,49,0
195.62929,195.75429,57,49,0
195.75429,195.87929,65,49,0
195.87929,196.00429,57,49,0
196.00429,196.02928,76,114,0
196.00429,196.02928,73,109,0
196.00429,196.02928,69,104,0
196.25429,196.27928,77,114,0
196.25429,196.27928,74,109,0
196.25429,196.27928,69,104,0
196.50429,196.52928,76,114,0
196.50429,196.52928,73,109,0
196.50429,196.52928,69,104,0
196.75429,196.77928,77,114,0
196.75429,196.77928,74,109,0
196.75429,196.77928,69,104,0
197.00429,197.12929,64,49,0
197.12929,197.25429,57,49,0
197.25429,197.37929,65,49,0
197.37929,197.50429,57,49,0
197.50429,197.62929,64,49,0
197.62929,197.75429,57,49,0
197.75429,197.87929,65,49,0
197.87929,198.00429,57,49,0
198.00429,198.12929,64,49,0
198.12929,198.25429,65,49,0
198.25429,198.37929,65,49,0
198.37929,198.50429,67,49,0
198.50429,198.62929,67,62,0
198.62929,198.75429,69,62,0
198.75429,198.87929,69,62,0
198.87929,199.00429,70,62,0
199.00429,199.12929,69,75,0
199.12929,199.25429,57,75,0
199.25429,199.37929,67,75,0
199.37929,199.50429,57,75,0
199.50429,199.62929,65,75,0
199.62929,199.75429,57,75,0
199.75429,199.87929,64,75,0
199.87929,200.00429,57,75,0
200.00429,200.12929,64,75,0
200.12929,200.25429,62,75,0
200.25429,200.37929,57,75,0
200.37929,200.50429,62,75,0
200.50429,200.62929,65,75,0
200.62929,200.75429,64,75,0
200.75429,200.87929,57,75,0
200.87929,201.00429,64,75,0
201.00429,201.12929,61,75,0
201.12929,201.25429,62,75,0
201.25429,201.37929,57,75,0
201.37929,201.50429,62,75,0
201.50429,201.62929,65,75,0
201.62929,201.75429,64,75,0
201.75429,201.87929,57,101,0
201.87929,202.00429,64,75,0
202.00429,202.12929,67,75,0
202.12929,202.25429,65,75,0
202.25429,202.37929,64,75,0
202.37929,202.50429,65,75,0
202.50429,202.62929,67,75,0
202.62929,202.75429,60,75,0
202.75429,202.87929,68,75,0
202.87929,203.00429,60,75,0
203.00429,203.12929,69,75,0
203.12929,203.25429,60,75,0
203.25429,203.37929,70,75,0
203.37929,203.50429,60,75,0
203.50429,203.62929,72,75,0
203.62929,203.75429,60,75,0
203.75429,203.87929,74,75,0
203.87929,204.00429,64,75,0
204.00429,204.12929,72,75,0
204.12929,204.25429,65,75,0
204.25429,204.37929,70,75,0
204.37929,204.50429,64,75,0
204.50429,204.62929,69,75,0
204.62929,204.75429,65,75,0
204.75429,204.87929,67,75,0
204.87929,205.00429,62,75,0
205.00429,205.12929,65,75,0
205.12929,205.25429,62,75,0
205.25429,205.37929,67,75,0
205.37929,205.50429,62,75,0
205.50429,205.62929,69,75,0
205.62929,205.75429,57,75,0
205.75429,205.87929,69,75,0
205.87929,206.00429,70,75,0
206.00429,206.12929,70,75,0
206.12929,206.25429,69,75,0
206.25429,206.37929,69,75,0
206.37929,206.50429,67,75,0
206.50429,206.62929,67,75,0
206.62929,206.75429,65,75,0
206.75429,206.87929,65,75,0
206.87929,207.00429,64,75,0
207.00429,207.12929,64,88,0
207.12929,207.25429,62,49,0
207.25429,207.37929,61,49,0
207.37929,207.50429,62,49,0
207.50429,208.00429,67,88,0
208.00429,208.12929,69,88,0
208.50429,209.00429,71,62,0
209.00429,209.12929,72,75,0
209.50429,210.00429,74,75,0
210.00429,210.12929,68,75,0
210.12929,210.25429,76,75,0
210.25429,210.37929,69,75,0
210.37929,210.50429,77,75,0
210.50429,210.62929,69,88,0
210.62929,210.75429,72,88,0
210.75429,210.87929,68,88,0
210.87929,211.00429,71,88,0
211.00429,211.25429,69,114,0
211.25429,211.27928,93,88,0
211.25429,211.27928,81,88,0
211.50429,211.52928,91,114,0
211.50429,211.52928,79,106,0
211.75429,211.77928,89,88,0
211.75429,211.77928,77,88,0
212.00429,212.02928,88,114,0
212.00429,212.02928,76,106,0
212.25429,212.27928,84,88,0
212.25429,212.27928,72,88,0
212.50429,212.52928,83,114,0
212.50429,212.52928,71,106,0
212.75429,212.77928,81,88,0
212.75429,212.77928,69,88,0
213.00429,213.02928,79,88,0
213.00429,213.02928,67,88,0
213.25429,213.27928,88,88,0
213.25429,213.27928,76,88,0
213.50429,213.52928,86,88,0
213.50429,213.52928,74,88,0
213.75429,213.77928,84,88,0
213.75429,213.77928,72,88,0
214.00429,214.02928,83,88,0
214.00429,214.02928,71,88,0
214.25429,214.27928,86,88,0
214.25429,214.27928,83,88,0
214.25429,214.27928,77,88,0
214.50429,214.52928,84,88,0
214.50429,214.52928,81,88,0
214.50429,214.52928,76,88,0
214.75429,214.77928,83,88,0
214.75429,214.77928,80,88,0
214.75429,214.77928,76,88,0
215.00429,215.25429,81,101,0
215.00429,215.25429,69,101,0
215.25429,215.37929,69,101,0
215.37929,215.50429,69,101,0
215.50429,215.51678,69,127,0
215.62929,215.75429,72,101,0
215.75429,215.87929,71,101,0
215.87929,216.00429,69,101,0
216.00429,216.02928,76,114,0
216.25429,216.27928,77,114,0
216.25429,216.27928,65,114,0
216.50429,217.00429,76,114,0
216.50429,217.00429,64,114,0
217.00429,217.12929,88,49,0
217.12929,217.25429,89,49,0
217.25429,217.37929,86,49,0
217.37929,217.50429,88,49,0
217.50429,217.62929,84,49,0
217.62929,217.75429,86,49,0
217.75429,217.87929,83,49,0
217.87929,218.00429,84,49,0
218.00429,218.12929,83,49,0
218.12929,218.25429,81,49,0
218.25429,218.37929,76,49,0
218.37929,218.50429,81,49,0
218.50429,218.62929,84,49,0
218.62929,218.75429,83,49,0
218.75429,218.87929,76,49,0
218.87929,219.00429,83,49,0
219.00429,219.12929,80,49,0
219.12929,219.25429,81,49,0
219.25429,219.37929,76,49,0
219.37929,219.50429,81,49,0
219.50429,219.62929,84,49,0
219.62929,219.75429,83,49,0
219.75429,219.87929,76,49,0
219.87929,220.00429,83,49,0
220.00429,220.25429,81,88,0
220.00429,220.25429,69,88,0
220.25429,220.37929,69,88,0
220.37929,220.50429,69,88,0
220.50429,220.51678,69,114,0
220.62929,220.75429,72,88,0
220.75429,220.87929,71,88,0
220.87929,221.00429,69,88,0
221.00429,221.02928,76,114,0
221.25429,221.27928,81,114,0
221.25429,221.27928,75,114,0
221.25429,221.27928,69,114,0
221.50429,222.00429,76,114,0
221.50429,222.00429,64,114,0
222.00429,222.12929,88,49,0
222.12929,222.25429,90,49,0
222.25429,222.37929,86,49,0
222.37929,222.50429,88,49,0
222.50429,222.62929,85,49,0
222.62929,222.75429,86,49,0
222.75429,222.87929,83,49,0
222.87929,223.00429,85,49,0
223.00429,223.12929,83,49,0
223.12929,223.25429,81,49,0
223.25429,223.37929,76,49,0
223.37929,223.50429,81,49,0
223.50429,223.62929,85,49,0
223.62929,223.75429,83,49,0
223.75429,223.87929,76,49,0
223.87929,224.00429,83,49,0
224.00429,224.12929,80,49,0
224.12929,224.25429,81,49,0
224.25429,224.37929,76,49,0
224.37929,224.50429,81,49,0
224.50429,224.62929,85,49,0
224.62929,224.75429,83,49,0
224.75429,224.87929,76,49,0
224.87929,225.00429,83,49,0
225.00429,225.05429,57,88,0
225.05429,225.1043,59,88,0
225.1043,225.15428,57,88,0
225.1522,225.20221,59,88,0
225.20221,225.25221,57,88,0
225.25429,225.37929,56,88,0
225.37929,225.50429,54,88,0
225.50429,225.62929,52,88,0
225.62929,225.75429,69,49,0
225.75429,225.87929,64,49,0
225.87929,226.00429,73,49,0
226.00429,226.12929,66,49,0
226.12929,226.25429,71,49,0
226.25429,226.37929,66,49,0
226.37929,226.50429,78,49,0
226.50429,226.62929,73,49,0
226.62929,226.75429,76,49,0
226.75429,226.87929,71,49,0
226.87929,227.00429,83,49,0
227.00429,227.05429,57,101,0
227.05429,227.1043,59,101,0
227.1043,227.15428,57,101,0
227.1522,227.20221,59,101,0
227.20221,227.25221,57,101,0
227.25429,227.37929,56,101,0
227.37929,227.50429,54,101,0
227.50429,227.62929,52,101,0
227.62929,227.75429,69,49,0
227.75429,227.87929,64,49,0
227.87929,228.00429,73,49,0
228.00429,228.12929,66,49,0
228.12929,228.25429,71,49,0
228.25429,228.37929,66,49,0
228.37929,228.50429,78,49,0
228.50429,228.62929,73,49,0
228.62929,228.75429,76,49,0
228.75429,228.87929,71,49,0
228.87929,229.00429,83,49,0
229.00429,229.05429,57,101,0
229.05429,229.1043,59,101,0
229.1043,229.15428,57,101,0
229.1522,229.20221,59,101,0
229.20221,229.25221,57,101,0
229.25429,229.37929,56,101,0
229.37929,229.50429,54,101,0
229.50429,229.62929,53,101,0
229.62929,229.75429,80,101,0
229.75429,229.87929,73,114,0
229.87929,230.00429,85,114,0
230.00429,230.05429,57,101,0
230.05429,230.1043,59,101,0
230.1043,230.15428,57,101,0
230.1522,230.20221,59,101,0
230.20221,230.25221,57,101,0
230.25429,230.37929,56,101,0
230.37929,230.50429,54,101,0
230.50429,230.62929,53,101,0
230.62929,230.75429,80,101,0
230.75429,230.87929,73,114,0
230.87929,231.00429,85,114,0
231.62929,231.75429,68,49,0
231.75429,231.87929,61,49,0
231.87929,232.00429,73,49,0
232.00429,232.12929,61,49,0
232.12929,232.25429,73,49,0
232.25429,232.37929,61,49,0
232.37929,232.50429,73,49,0
232.50429,232.62929,61,49,0
232.62929,232.75429,73,49,0
232.75429,232.87929,61,49,0
232.87929,233.00429,73,49,0
233.00429,233.05429,68,49,0
233.05429,233.1043,70,49,0
233.1043,233.15428,68,49,0
233.1522,233.20221,70,49,0
233.20221,233.25221,68,49,0
233.25429,233.37929,66,49,0
233.37929,233.50429,65,49,0
233.50429,233.62929,63,49,0
233.62929,233.75429,70,49,0
233.75429,233.87929,63,49,0
233.87929,234.00429,75,49,0
234.00429,234.05429,71,75,0
234.05429,234.1043,73,49,0
234.1043,234.15428,71,49,0
234.1522,234.20221,73,49,0
234.20221,234.25221,71,49,0
234.25429,234.37929,70,49,0
234.37929,234.50429,68,49,0
234.50429,234.62929,66,49,0
234.62929,234.75429,73,49,0
234.75429,234.87929,66,49,0
234.87929,235.00429,78,49,0
235.00429,235.12929,66,49,0
235.12929,235.25429,73,49,0
235.25429,235.37929,66,49,0
235.37929,235.50429,78,49,0
235.50429,235.62929,66,49,0
235.62929,235.75429,73,49,0
235.75429,235.87929,66,49,0
235.87929,236.00429,78,49,0
236.00429,236.12929,66,49,0
236.12929,236.25429,73,49,0
236.25429,236.37929,66,49,0
236.37929,236.50429,78,49,0
236.50429,236.62929,66,49,0
236.62929,236.75429,73,49,0
236.75429,236.87929,66,49,0
236.87929,237.00429,78,49,0
237.00429,237.05429,76,88,0
237.05429,237.1043,78,62,0
237.1043,237.15428,76,62,0
237.1522,237.20221,78,62,0
237.20221,237.25221,76,62,0
237.25429,237.37929,74,62,0
237.37929,237.50429,73,62,0
237.50429,237.62929,71,75,0
237.62929,237.75429,78,75,0
237.75429,237.87929,71,75,0
237.87929,238.00429,83,75,0
238.00429,238.12929,76,88,0
238.12929,238.25429,83,88,0
238.25429,238.37929,76,88,0
238.37929,238.50429,88,88,0
238.50429,238.55429,69,101,0
238.55429,238.6043,71,101,0
238.6043,238.65428,69,101,0
238.6522,238.70221,71,101,0
238.70221,238.75221,69,101,0
238.75429,238.87929,68,101,0
238.87929,239.00429,66,101,0
239.00429,239.12929,64,101,0
239.50429,239.55429,69,101,0
239.55429,239.6043,71,101,0
239.6043,239.65428,69,101,0
239.6522,239.70221,71,101,0
239.70221,239.75221,69,101,0
239.75429,239.87929,68,101,0
239.87929,240.00429,66,101,0
240.00429,240.12929,64,127,0
240.50429,240.55429,73,101,0
240.55429,240.6043,74,101,0
240.6043,240.65428,73,101,0
240.6522,240.70221,74,101,0
240.70221,240.75221,73,101,0
240.75429,240.87929,71,101,0
240.75429,240.87929,68,101,0
240.87929,241.00429,69,101,0
240.87929,241.00429,66,101,0
241.00429,241.12929,68,127,0
241.00429,241.12929,64,119,0
241.50429,241.55429,73,101,0
241.55429,241.6043,74,101,0
241.6043,241.65428,73,101,0
241.6522,241.70221,74,101,0
241.70221,241.75221,73,101,0
241.75429,241.87929,71,101,0
241.75429,241.87929,68,101,0
241.87929,242.00429,69,101,0
241.87929,242.00429,66,101,0
242.00429,242.12929,68,127,0
242.00429,242.12929,64,119,0
242.50429,242.62929,73,101,0
242.62929,242.75429,69,101,0
242.75429,242.87929,74,101,0
242.87929,243.00429,69,101,0
243.00429,243.12929,76,101,0
243.12929,243.25429,69,101,0
243.25429,243.37929,78,101,0
243.37929,243.50429,69,101,0
243.50429,243.62929,80,101,0
243.62929,243.75429,76,101,0
243.75429,243.87929,81,101,0
243.87929,244.00429,76,101,0
244.00429,244.12929,83,101,0
244.12929,244.25429,76,101,0
244.25429,244.37929,84,101,0
244.37929,244.50429,76,101,0
244.50429,245.00429,84,88,0
244.50429,245.00429,72,88,0
244.50429,245.00429,76,88,0
244.50429,245.00429,79,88,0
245.00429,245.50429,84,88,0
245.00429,245.50429,72,88,0
245.00429,245.50429,76,88,0
245.00429,245.50429,79,88,0
245.50429,246.00429,84,88,0
245.50429,246.00429,72,88,0
245.50429,246.00429,76,88,0
245.50429,246.00429,79,88,0
246.00429,246.50429,84,88,0
246.00429,246.50429,72,88,0
246.00429,246.50429,76,88,0
246.00429,246.50429,79,88,0
246.50429,247.00429,88,88,0
246.50429,247.00429,85,88,0
246.50429,247.00429,76,88,0
247.00429,247.50429,88,88,0
247.00429,247.50429,85,88,0
247.00429,247.50429,76,88,0
247.50429,248.00429,88,88,0
247.50429,248.00429,85,88,0
247.50429,248.00429,76,88,0
248.00429,248.50429,88,88,0
248.00429,248.50429,85,88,0
248.00429,248.50429,76,88,0
248.50429,248.52928,88,88,0
248.50429,248.52928,85,88,0
248.50429,248.52928,76,88,0
248.75429,248.87929,86,88,0
248.75429,248.87929,83,88,0
248.87929,249.00429,85,88,0
248.87929,249.00429,81,88,0
249.00429,249.02928,85,88,0
249.00429,249.02928,81,88,0
249.00429,249.02928,76,88,0
249.25429,249.27928,83,88,0
249.25429,249.27928,80,88,0
249.25429,249.27928,76,88,0
249.50429,249.62929,81,88,0
249.50429,249.62929,76,88,0
249.50429,249.62929,73,88,0
249.62929,249.75429,69,88,0
249.75429,249.87929,81,88,0
249.87929,250.00429,83,88,0
250.00429,250.12929,81,49,0
250.12929,250.25429,69,49,0
250.25429,250.37929,81,49,0
250.37929,250.50429,83,49,0
250.50429,250.62929,81,49,0
250.62929,250.75429,69,49,0
250.75429,250.87929,81,49,0
250.87929,251.00429,82,49,0
251.00429,251.12929,81,49,0
251.12929,251.25429,82,49,0
251.25429,251.37929,81,49,0
251.37929,251.50429,82,49,0
251.50429,251.60846,81,49,0
251.60846,251.71262,82,49,0
251.71262,251.81679,79,49,0
251.81679,251.92096,81,49,0
251.92096,252.02512,77,49,0
252.02512,252.12929,79,49,0
252.12929,252.23346,76,49,0
252.23346,252.33762,77,49,0
252.33762,252.44179,76,49,0
252.44179,252.54596,74,49,0
252.54596,252.65012,69,49,0
252.65012,252.75429,74,49,0
252.75429,252.85846,77,49,0
252.85846,252.96262,76,49,0
252.96262,253.06679,69,49,0
253.06679,253.17096,73,49,0
253.17096,253.27512,76,49,0
253.27512,253.37929,74,49,0
253.37929,253.48346,69,49,0
253.48346,253.58762,74,49,0
253.58762,253.69179,77,49,0
253.69179,253.79596,76,49,0
253.79596,253.90013,69,49,0
253.90013,254.00429,73,49,0
254.00429,254.10846,74,49,0
254.10846,254.21263,69,49,0
254.21263,254.31679,76,49,0
254.31679,254.42096,73,49,0
254.42096,254.52513,77,75,0
254.52513,254.62929,74,75,0
254.62929,254.73346,79,75,0
254.73346,254.83763,76,75,0
254.83763,255.25429,84,88,0
254.83763,255.25429,81,88,0
254.83763,255.25429,72,88,0
255.25429,255.27513,84,88,0
255.25429,255.27513,82,88,0
255.25429,255.27513,72,88,0
255.46263,255.48346,84,88,0
255.46263,255.48346,79,88,0
255.46263,255.48346,72,88,0
255.67096,256.08762,84,88,0
255.67096,256.08762,81,88,0
255.67096,256.08762,72,88,0
256.08762,256.10846,84,88,0
256.08762,256.10846,82,88,0
256.08762,256.10846,72,88,0
256.29596,256.3168,84,88,0
256.29596,256.3168,79,88,0
256.29596,256.3168,72,88,0
256.5043,256.52512,81,88,0
256.5043,256.52512,72,88,0
256.5043,256.52512,69,88,0
256.71262,256.73346,79,88,0
256.71262,256.73346,72,88,0
256.71262,256.73346,67,88,0
256.92096,256.9418,77,88,0
256.92096,256.9418,72,88,0
256.92096,256.9418,65,88,0
257.1293,257.15012,76,88,0
257.1293,257.15012,74,88,0
257.1293,257.15012,64,88,0
257.33762,257.4418,83,88,0
257.4418,257.54596,81,88,0
257.54596,257.65012,76,88,0
257.65012,257.7543,81,88,0
257.7543,257.85846,84,88,0
257.85846,257.96262,83,88,0
257.96262,258.0668,76,88,0
258.0668,258.17096,80,88,0
258.17096,258.27512,83,88,0
258.27512,258.3793,81,88,0
258.3793,258.48346,76,88,0
258.48346,258.58762,81,88,0
258.58762,258.6918,84,88,0
258.6918,258.79596,83,88,0
258.79596,258.90012,76,88,0
258.90012,259.0043,80,88,0
259.0043,259.42096,88,101,0
259.0043,259.42096,84,101,0
259.0043,259.42096,76,101,0
259.42096,259.4418,88,101,0
259.42096,259.4418,86,101,0
259.42096,259.4418,76,101,0
259.6293,259.65012,88,101,0
259.6293,259.65012,83,101,0
259.6293,259.65012,76,101,0
259.83762,260.2543,88,101,0
259.83762,260.2543,84,101,0
259.83762,260.2543,76,101,0
260.2543,260.27512,88,101,0
260.2543,260.27512,86,101,0
260.2543,260.27512,76,101,0
260.46262,260.48346,88,101,0
260.46262,260.48346,83,101,0
260.46262,260.48346,76,101,0
260.67096,260.8793,88,101,0
260.67096,260.8793,84,101,0
260.67096,260.8793,76,101,0
260.8793,260.90012,92,101,0
260.8793,260.90012,88,101,0
260.8793,260.90012,83,101,0
261.08762,261.10846,93,101,0
261.08762,261.10846,88,101,0
261.08762,261.10846,84,101,0
261.29596,261.3168,92,101,0
261.29596,261.3168,88,101,0
261.29596,261.3168,83,101,0
261.5043,261.52512,93,101,0
261.5043,261.52512,88,101,0
261.5043,261.52512,84,101,0
261.71262,261.92096,95,101,0
261.71262,261.92096,92,101,0
261.71262,261.92096,88,101,0
261.92096,261.9418,96,101,0
261.92096,261.9418,93,101,0
261.92096,261.9418,88,101,0
262.1293,262.15012,95,101,0
262.1293,262.15012,92,101,0
262.1293,262.15012,88,101,0
262.33762,262.4418,96,101,0
262.4418,262.54596,98,101,0
262.54596,262.65012,95,101,0
262.65012,262.7543,96,101,0
262.7543,262.85846,93,101,0
262.85846,262.96262,88,101,0
262.96262,263.0668,84,101,0
263.0668,263.17096,81,101,0
263.17096,263.27515,93,101,0
263.27515,263.3793,95,101,0
263.3793,263.48346,89,101,0
263.48346,263.58765,93,101,0
263.58765,263.6918,88,101,0
263.6918,263.79596,84,101,0
263.79596,263.90015,81,101,0
263.90015,264.0043,76,101,0
264.0043,264.10846,88,88,0
264.10846,264.21265,89,88,0
264.21265,264.3168,86,88,0
264.3168,264.42096,88,88,0
264.42096,264.52515,84,88,0
264.52515,264.6293,81,88,0
264.6293,264.73346,76,88,0
264.73346,264.83765,72,88,0
264.83765,264.9418,84,75,0
264.9418,265.04596,86,75,0
265.04596,265.15015,83,75,0
265.15015,265.2543,84,75,0
265.2543,265.35846,81,75,0
265.35846,265.46265,76,75,0
265.46265,265.5668,72,75,0
265.5668,265.67096,69,75,0
265.67096,265.77515,81,62,0
265.77515,265.8793,83,62,0
265.8793,265.98346,77,62,0
265.98346,266.08765,81,62,0
266.08765,266.1918,76,62,0
266.1918,266.29596,72,62,0
266.29596,266.40015,69,62,0
266.40015,266.5043,64,62,0
266.5043,266.60846,76,49,0
266.60846,266.71265,77,49,0
266.71265,266.8168,74,49,0
266.8168,266.92096,76,49,0
266.92096,267.02515,72,49,0
267.02515,267.1293,69,49,0
267.1293,267.23346,64,49,0
267.23346,267.33765,60,49,0
267.33765,267.4418,72,49,0
267.4418,267.54596,74,49,0
267.54596,267.65015,71,49,0
267.65015,267.7543,72,49,0
267.7543,267.85846,69,49,0
267.85846,267.96265,64,49,0
267.96265,268.0668,60,49,0
268.0668,268.17096,57,49,0
268.17096,268.27515,69,49,0
268.27515,268.3793,64,49,0
268.3793,268.48346,60,49,0
268.48346,268.58765,57,49,0
268.58765,268.6918,69,49,0
268.6918,268.79596,64,49,0
268.79596,268.90015,60,49,0
268.90015,269.0043,57,49,0
269.0043,269.21265,69,49,0
269.83765,270.04596,76,101,0
269.83765,270.04596,64,101,0
269.83765,270.04596,68,101,0
269.83765,270.04596,71,101,0
270.67096,270.8793,81,101,0
270.67096,270.8793,69,101,0
270.67096,270.8793,72,101,0
270.67096,270.8793,76,101,0
3.5,4.0,67,36,0
10.5,11.0,67,36,0
48.5,49.0,67,36,0
54.0,54.5,74,36,0
54.5,54.75,76,49,0
55.0,55.5,78,75,0
55.5,55.75,79,75,0
56.0,56.5,81,75,0
86.5,86.75,64,75,0
87.5,87.75,64,75,0
107.5,108.0,67,36,0
114.5,115.0,67,36,0
138.12929,138.25429,69,36,0
138.25429,138.37929,72,36,0
138.37929,138.50429,69,36,0
138.50429,138.62929,71,36,0
138.62929,138.75429,69,36,0
138.75429,138.87929,71,36,0
138.87929,139.00429,69,36,0
140.12929,140.25429,69,36,0
140.25429,140.37929,72,36,0
140.37929,140.50429,69,36,0
140.50429,140.62929,71,36,0
140.62929,140.75429,69,36,0
140.75429,140.87929,71,36,0
140.87929,141.00429,69,36,0
152.62929,152.75429,88,75,0
152.87929,153.00429,88,36,0
153.12929,153.25429,74,36,0
153.25429,153.37929,77,36,0
153.37929,153.50429,74,36,0
153.50429,153.62929,76,36,0
153.62929,153.75429,74,36,0
153.75429,153.87929,76,36,0
153.87929,154.00429,74,36,0
154.62929,154.75429,88,75,0
154.87929,155.00429,88,36,0
155.12929,155.25429,74,36,0
155.25429,155.37929,77,36,0
155.37929,155.50429,74,36,0
155.50429,155.62929,76,36,0
155.62929,155.75429,74,36,0
155.75429,155.87929,76,36,0
155.87929,156.00429,74,36,0
202.00429,202.50429,60,36,0
207.50429,207.62929,65,88,0
207.62929,207.75429,64,49,0
207.75429,207.87929,62,49,0
207.87929,208.00429,64,49,0
208.00429,208.12929,67,49,0
208.12929,208.25429,65,49,0
208.25429,208.37929,64,49,0
208.37929,208.50429,65,49,0
208.50429,208.62929,69,62,0
208.62929,208.75429,68,62,0
208.75429,208.87929,66,62,0
208.87929,209.00429,68,62,0
209.00429,209.12929,71,75,0
209.12929,209.25429,69,75,0
209.25429,209.37929,68,75,0
209.37929,209.50429,69,75,0
209.50429,209.62929,72,75,0
209.62929,209.75429,71,75,0
209.75429,209.87929,69,75,0
209.87929,210.00429,71,75,0
240.50429,240.75429,69,88,0
241.50429,241.75429,69,88,0
248.75429,249.00429,76,75,0
0.5,0.75,60,36,0
0.75,1.0,59,36,0
1.0,1.25,57,36,0
1.25,1.5,62,36,0
1.5,1.75,60,36,0
1.75,2.0,57,36,0
2.0,2.25,56,36,0
2.25,2.5,52,36,0
2.5,2.75,60,36,0
2.75,3.0,57,36,0
3.0,3.25,56,36,0
3.25,3.75,52,36,0
3.75,3.875,50,36,0
3.875,4.0,48,36,0
4.0,4.25,47,36,0
4.25,4.5,43,36,0
4.5,4.75,48,36,0
4.75,5.0,50,36,0
5.0,5.25,52,36,0
5.25,5.5,53,36,0
5.5,5.75,52,49,0
5.75,6.0,56,49,0
6.0,6.25,57,62,0
6.25,6.5,65,62,0
6.5,6.75,64,49,0
6.75,7.0,57,49,0
6.75,7.0,53,49,0
7.0,7.25,60,36,0
7.0,7.25,57,36,0
7.25,7.5,59,36,0
7.25,7.5,56,36,0
7.5,7.75,60,36,0
7.75,8.0,59,36,0
8.0,8.25,57,36,0
8.25,8.5,62,36,0
8.5,8.75,60,36,0
8.75,9.0,57,36,0
9.0,9.25,56,36,0
9.25,9.5,52,36,0
9.5,9.75,60,36,0
9.75,10.0,57,36,0
10.0,10.25,56,36,0
10.25,10.75,52,62,0
10.75,10.875,50,36,0
10.875,11.0,48,36,0
11.0,11.25,47,36,0
11.25,11.5,43,36,0
11.5,11.75,48,36,0
11.75,12.0,51,36,0
12.0,12.25,52,36,0
12.25,12.5,51,36,0
12.5,12.75,52,36,0
12.75,13.0,54,36,0
13.0,13.25,55,36,0
13.25,13.5,60,36,0
13.5,13.75,59,36,0
13.75,14.0,63,36,0
14.0,14.25,64,36,0
14.25,14.5,53,36,0
14.5,14.75,52,36,0
14.75,15.0,56,36,0
15.0,15.25,57,36,0
15.25,15.5,65,36,0
15.5,15.75,64,36,0
15.75,16.0,57,36,0
15.75,16.0,53,36,0
16.0,16.25,60,36,0
16.0,16.25,57,36,0
16.25,16.5,59,36,0
16.25,16.5,56,36,0
16.5,16.75,60,36,0
16.75,17.0,59,36,0
17.0,17.25,57,36,0
17.25,17.5,62,36,0
17.5,18.0,60,36,0
18.0,18.5,62,36,0
18.5,19.0,60,36,0
19.0,19.5,62,36,0
19.5,20.0,60,36,0
20.0,20.5,62,36,0
20.5,21.0,60,36,0
21.0,21.5,62,36,0
21.5,21.75,60,36,0
21.5,21.75,57,36,0
21.75,22.0,62,36,0
21.75,22.0,52,36,0
22.0,22.25,60,36,0
22.0,22.25,57,36,0
22.25,22.5,62,36,0
22.25,22.5,52,36,0
22.5,22.75,60,36,0
22.5,22.75,57,36,0
22.75,23.0,62,36,0
22.75,23.0,52,36,0
23.0,23.25,60,36,0
23.0,23.25,57,36,0
23.4375,23.46875,48,36,0
23.46875,23.5,50,36,0
23.5,23.75,48,75,0
23.75,23.875,47,75,0
23.875,24.0,45,75,0
24.0,24.25,43,75,0
24.25,24.275,52,75,0
24.25,24.275,40,75,0
24.5,25.0,55,75,0
24.5,25.0,43,75,0
25.0,25.25,52,75,0
25.0,25.25,40,75,0
25.5,25.525,60,75,0
25.5,25.525,57,75,0
25.5,25.525,48,75,0
25.75,25.775,60,75,0
25.75,25.775,57,75,0
25.75,25.775,50,75,0
26.0,26.025,60,75,0
26.0,26.025,57,75,0
26.0,26.025,52,75,0
26.25,26.275,60,75,0
26.25,26.275,57,75,0
26.25,26.275,53,75,0
26.5,26.525,60,75,0
26.5,26.525,57,75,0
26.5,26.525,52,75,0
26.75,26.775,63,101,0
26.75,26.775,57,101,0
26.75,26.775,53,101,0
27.4375,27.46875,53,101,0
27.46875,27.5,55,101,0
27.0,27.5,64,101,0
27.0,27.5,56,101,0
27.0,27.5,52,101,0
27.5,27.75,53,101,0
27.75,27.875,52,101,0
27.875,28.0,50,101,0
28.0,28.25,48,101,0
28.25,28.275,57,101,0
28.25,28.275,45,101,0
28.5,29.0,60,101,0
28.5,29.0,48,101,0
29.0,29.25,57,101,0
29.0,29.25,45,101,0
29.5,29.525,65,101,0
29.5,29.525,62,101,0
29.5,29.525,53,101,0
29.75,29.775,65,101,0
29.75,29.775,62,101,0
29.75,29.775,55,101,0
30.0,30.025,65,101,0
30.0,30.025,62,101,0
30.0,30.025,57,101,0
30.25,30.275,65,101,0
30.25,30.275,62,101,0
30.25,30.275,58,101,0
30.5,30.525,60,101,0
30.5,30.525,57,101,0
30.5,30.525,48,101,0
30.75,30.775,60,101,0
30.75,30.775,57,101,0
30.75,30.775,50,101,0
31.0,31.025,60,101,0
31.0,31.025,57,101,0
31.0,31.025,52,101,0
31.25,31.275,60,101,0
31.25,31.275,57,101,0
31.25,31.275,53,101,0
31.5,31.525,60,101,0
31.5,31.525,57,101,0
31.5,31.525,52,101,0
31.75,31.775,62,101,0
31.75,31.775,59,101,0
31.75,31.775,52,101,0
32.0,32.5,60,101,0
32.0,32.5,57,101,0
32.5,33.0,53,88,0
32.5,33.0,41,88,0
33.0,33.5,55,101,0
33.0,33.5,43,101,0
33.5,34.0,57,101,0
33.5,34.0,45,101,0
34.0,34.5,58,101,0
34.0,34.5,46,101,0
34.5,34.525,60,101,0
34.5,34.525,48,101,0
34.75,34.775,55,101,0
34.75,34.775,43,101,0
35.0,35.5,60,101,0
35.0,35.5,48,101,0
35.5,36.0,50,101,0
35.5,36.0,38,101,0
36.0,36.5,52,101,0
36.0,36.5,40,101,0
36.5,37.0,53,101,0
36.5,37.0,41,101,0
37.0,37.5,55,101,0
37.0,37.5,43,101,0
37.5,37.525,57,101,0
37.5,37.525,45,101,0
37.75,37.775,50,101,0
37.75,37.775,38,101,0
38.0,38.5,57,101,0
38.0,38.5,45,101,0
38.5,39.0,45,101,0
38.5,39.0,33,101,0
39.0,39.5,47,101,0
39.0,39.5,35,101,0
39.5,40.0,48,101,0
39.5,40.0,36,101,0
40.0,40.5,50,101,0
40.0,40.5,38,101,0
40.5,40.525,52,101,0
40.5,40.525,40,101,0
40.75,40.775,57,101,0
40.75,40.775,45,101,0
41.0,41.025,52,101,0
41.0,41.025,40,101,0
41.25,41.275,57,101,0
41.25,41.275,45,101,0
41.5,41.75,56,36,0
41.5,41.75,52,36,0
41.75,42.0,57,36,0
41.75,42.0,48,36,0
42.0,42.25,56,36,0
42.0,42.25,52,36,0
42.25,42.5,57,36,0
42.25,42.5,48,36,0
42.5,42.525,52,101,0
42.5,42.525,40,93,0
42.75,42.775,57,101,0
42.75,42.775,45,93,0
43.0,43.025,52,101,0
43.0,43.025,40,93,0
43.25,43.275,57,101,0
43.25,43.275,45,93,0
43.5,43.75,56,36,0
43.5,43.75,52,36,0
43.75,44.0,57,36,0
43.75,44.0,48,36,0
44.0,44.25,56,36,0
44.0,44.25,52,36,0
44.25,44.5,57,36,0
44.25,44.5,48,36,0
44.5,44.75,56,36,0
44.75,45.0,57,36,0
45.0,45.25,59,36,0
45.25,45.5,62,36,0
45.5,45.75,60,36,0
45.75,46.0,59,36,0
46.0,46.25,57,36,0
46.25,46.5,62,36,0
46.5,46.75,60,36,0
46.75,47.0,57,36,0
47.0,47.25,56,36,0
47.25,47.5,52,36,0
47.5,47.75,60,36,0
47.75,48.0,57,36,0
48.0,48.25,56,36,0
48.25,48.75,52,36,0
48.75,48.875,50,36,0
48.875,49.0,48,36,0
49.0,49.25,47,36,0
49.25,49.5,43,36,0
49.5,49.75,48,36,0
49.75,50.0,50,36,0
50.0,50.25,52,36,0
50.25,50.5,53,36,0
50.5,50.75,52,49,0
50.75,51.0,56,49,0
51.0,51.25,57,49,0
51.25,51.5,65,49,0
51.5,51.75,64,49,0
51.75,52.0,57,49,0
51.75,52.0,53,49,0
52.0,52.25,60,49,0
52.0,52.25,57,49,0
52.25,52.5,59,49,0
52.25,52.5,56,49,0
52.5,52.75,60,36,0
52.75,53.0,59,36,0
53.0,53.25,57,36,0
53.25,53.5,62,36,0
53.5,53.75,60,36,0
53.75,54.0,57,36,0
54.0,54.25,55,36,0
54.25,54.5,53,36,0
54.5,54.75,52,36,0
54.75,55.0,48,36,0
55.0,55.25,47,62,0
55.25,55.5,45,62,0
55.5,55.75,43,62,0
55.75,56.0,40,62,0
56.0,56.25,38,62,0
56.25,56.5,36,62,0
56.5,56.525,35,62,0
56.75,56.775,33,62,0
57.0,57.025,35,62,0
57.25,57.275,35,62,0
57.5,57.625,42,75,0
57.625,57.75,40,75,0
57.75,57.875,39,75,0
57.875,58.0,40,75,0
58.0,58.125,43,75,0
58.125,58.25,42,75,0
58.25,58.375,40,75,0
58.375,58.5,42,75,0
58.5,58.625,45,75,0
58.625,58.75,43,75,0
58.75,58.875,42,75,0
58.875,59.0,43,75,0
59.0,59.125,47,75,0
59.125,59.25,46,75,0
59.25,59.375,44,75,0
59.375,59.5,46,75,0
59.5,59.625,49,75,0
59.625,59.75,47,75,0
59.75,59.875,46,75,0
59.875,60.0,47,75,0
60.0,60.125,50,75,0
60.125,60.25,49,75,0
60.25,60.375,47,75,0
60.375,60.5,49,75,0
60.5,60.625,50,75,0
60.625,60.75,54,75,0
60.75,60.875,45,75,0
60.875,61.0,54,75,0
61.0,61.125,47,75,0
61.125,61.25,55,75,0
61.25,61.375,47,75,0
61.375,61.5,59,75,0
61.5,61.75,52,88,0
61.5,61.75,40,88,0
61.75,61.875,52,88,0
61.875,62.0,52,88,0
62.0,62.125,52,88,0
62.125,62.25,55,88,0
62.25,62.375,54,88,0
62.375,62.5,52,88,0
62.5,62.525,59,101,0
62.5,62.525,47,101,0
62.75,62.775,60,101,0
62.75,62.775,48,101,0
63.0,63.5,59,101,0
63.0,63.5,47,101,0
63.5,63.75,63,36,0
63.75,64.0,72,36,0
64.0,64.25,71,36,0
64.25,64.5,69,36,0
64.75,65.0,64,36,0
65.0,65.25,63,36,0
65.25,65.5,59,36,0
65.75,66.0,64,36,0
66.0,66.25,63,36,0
66.25,66.5,59,36,0
66.5,66.75,52,75,0
66.5,66.75,40,75,0
66.75,66.875,52,75,0
66.875,67.0,52,75,0
67.0,67.125,52,75,0
67.125,67.25,55,75,0
67.25,67.375,54,75,0
67.375,67.5,52,75,0
67.5,67.525,59,101,0
67.5,67.525,47,101,0
67.75,67.775,60,101,0
67.75,67.775,48,101,0
68.0,68.5,59,101,0
68.0,68.5,47,101,0
68.5,68.75,63,36,0
68.75,69.0,73,36,0
69.0,69.25,71,36,0
69.25,69.5,69,36,0
69.75,70.0,64,36,0
70.0,70.25,63,36,0
70.25,70.5,59,36,0
70.75,71.0,64,36,0
71.0,71.25,63,36,0
71.25,71.5,59,36,0
71.5,71.55,52,88,0
71.55,71.6,54,88,0
71.6,71.65,52,88,0
71.64792,71.697914,54,88,0
71.697914,71.74792,52,88,0
71.75,71.875,51,88,0
71.875,72.0,49,88,0
72.0,72.125,47,88,0
72.25,72.5,64,36,0
72.25,72.5,56,36,0
72.5,72.75,61,36,0
72.75,73.0,66,36,0
73.0,73.25,68,36,0
73.25,73.5,69,36,0
73.5,73.55,52,75,0
73.55,73.6,54,75,0
73.6,73.65,52,75,0
73.64792,73.697914,54,75,0
73.697914,73.74792,52,75,0
73.75,73.875,51,75,0
73.875,74.0,49,75,0
74.0,74.125,47,75,0
74.25,74.5,64,36,0
74.25,74.5,56,36,0
74.5,74.75,61,36,0
74.75,75.0,66,36,0
75.0,75.25,68,36,0
75.25,75.5,69,36,0
75.5,75.55,52,75,0
75.55,75.6,54,75,0
75.6,75.65,52,75,0
75.64792,75.697914,54,75,0
75.697914,75.74792,52,75,0
75.75,75.875,51,75,0
75.875,76.0,49,75,0
76.0,76.125,48,75,0
76.25,76.5,68,101,0
76.25,76.5,63,101,0
76.25,76.5,60,101,0
76.5,76.55,52,75,0
76.55,76.6,54,75,0
76.6,76.65,52,75,0
76.64792,76.697914,54,75,0
76.697914,76.74792,52,75,0
76.75,76.875,51,75,0
76.875,77.0,49,75,0
77.0,77.125,48,75,0
77.25,77.5,68,101,0
77.25,77.5,63,101,0
77.25,77.5,60,101,0
77.75,78.0,63,36,0
77.75,78.0,60,36,0
78.0,78.25,63,36,0
78.0,78.25,60,36,0
78.25,78.5,63,36,0
78.25,78.5,60,36,0
78.5,78.75,63,36,0
78.5,78.75,60,36,0
78.75,79.0,63,36,0
78.75,79.0,60,36,0
79.25,79.75,68,36,0
79.75,80.25,68,36,0
80.25,80.75,68,36,0
80.75,81.25,68,36,0
81.25,81.75,68,36,0
81.75,82.25,68,36,0
82.25,82.75,68,36,0
82.75,83.0,68,36,0
83.25,83.5,64,36,0
83.25,83.5,59,36,0
83.75,84.0,66,49,0
83.75,84.0,61,49,0
84.25,84.5,69,62,0
84.25,84.5,63,62,0
84.5,84.75,52,88,0
85.0,85.625,47,114,0
86.0,86.625,47,114,0
87.0,87.625,47,114,0
88.0,88.625,47,114,0
88.75,88.875,42,88,0
89.0,89.125,44,88,0
89.25,89.375,45,88,0
89.5,89.625,47,88,0
89.5,89.625,35,88,0
89.75,89.875,49,88,0
89.75,89.875,37,88,0
90.0,90.125,51,88,0
90.0,90.125,39,88,0
90.25,90.375,52,88,0
90.25,90.375,40,88,0
90.5,91.0,55,75,0
90.5,91.0,50,75,0
90.5,91.0,43,75,0
91.0,91.5,55,75,0
91.0,91.5,50,75,0
91.0,91.5,43,75,0
91.5,92.0,55,75,0
91.5,92.0,50,75,0
91.5,92.0,43,75,0
92.0,92.5,55,75,0
92.0,92.5,50,75,0
92.0,92.5,43,75,0
92.5,93.0,47,75,0
92.5,93.0,35,75,0
93.0,93.5,56,75,0
93.0,93.5,44,75,0
93.5,94.0,59,75,0
93.5,94.0,47,75,0
94.0,94.5,64,75,0
94.0,94.5,52,75,0
94.5,94.525,44,75,0
94.5,94.525,32,75,0
94.75,94.775,45,75,0
94.75,94.775,33,75,0
95.0,95.025,47,75,0
95.0,95.025,35,75,0
95.25,95.275,47,75,0
95.25,95.275,35,75,0
95.5,95.525,52,75,0
95.5,95.525,40,75,0
96.75,97.0,52,62,0
97.25,97.5,56,62,0
97.75,98.0,59,62,0
98.25,98.5,62,62,0
98.75,99.0,65,62,0
99.25,99.5,62,62,0
99.75,100.0,59,62,0
100.25,100.5,56,62,0
100.75,101.0,52,62,0
101.25,101.5,47,62,0
101.75,102.0,40,36,0
102.25,102.5,47,36,0
102.75,103.0,40,36,0
103.0,103.75,40,36,0
104.5,104.75,60,36,0
104.75,105.0,59,36,0
105.0,105.25,57,36,0
105.25,105.5,62,36,0
105.5,105.75,60,36,0
105.75,106.0,57,36,0
106.0,106.25,56,36,0
106.25,106.5,52,36,0
106.5,106.75,60,36,0
106.75,107.0,57,36,0
107.0,107.25,56,36,0
107.25,107.75,52,36,0
107.75,107.875,50,36,0
107.875,108.0,48,36,0
108.0,108.25,47,36,0
108.25,108.5,43,36,0
108.5,108.75,48,36,0
108.75,109.0,50,36,0
109.0,109.25,52,36,0
109.25,109.5,53,36,0
109.5,109.75,52,49,0
109.75,110.0,56,49,0
110.0,110.25,57,62,0
110.25,110.5,65,62,0
110.5,110.75,64,49,0
110.75,111.0,57,49,0
110.75,111.0,53,49,0
111.0,111.25,60,36,0
111.0,111.25,57,36,0
111.25,111.5,59,36,0
111.25,111.5,56,36,0
111.5,111.75,60,36,0
111.75,112.0,59,36,0
112.0,112.25,57,36,0
112.25,112.5,62,36,0
112.5,112.75,60,36,0
112.75,113.0,57,36,0
113.0,113.25,56,36,0
113.25,113.5,52,36,0
113.5,113.75,60,36,0
113.75,114.0,57,36,0
114.0,114.25,56,36,0
114.25,114.75,52,62,0
114.75,114.875,50,36,0
114.875,115.0,48,36,0
115.0,115.25,47,36,0
115.25,115.5,43,36,0
115.5,115.75,48,36,0
115.75,116.0,51,36,0
116.0,116.25,52,36,0
116.25,116.5,51,36,0
116.5,116.75,52,36,0
116.75,117.0,54,36,0
117.0,117.25,55,36,0
117.25,117.5,60,36,0
117.5,117.75,59,36,0
117.75,118.0,63,36,0
118.0,118.25,64,36,0
118.25,118.5,53,36,0
118.5,118.75,52,36,0
118.75,119.0,56,36,0
119.0,119.25,57,36,0
119.25,119.5,65,36,0
119.5,119.75,64,36,0
119.75,120.0,57,36,0
119.75,120.0,53,36,0
120.0,120.25,60,36,0
120.0,120.25,57,36,0
120.25,120.5,59,36,0
120.25,120.5,56,36,0
120.5,120.75,60,36,0
120.75,121.0,59,36,0
121.0,121.25,57,36,0
121.25,121.5,62,36,0
121.5,122.0,60,36,0
122.0,122.5,62,36,0
122.5,123.0,61,36,0
123.0,123.5,62,36,0
123.5,124.02713,60,36,0
124.02713,124.640656,62,36,0
124.640656,125.32247,61,36,0
125.32247,126.00429,62,36,0
126.00429,126.25429,61,36,0
126.00429,126.25429,57,36,0
126.25429,126.50429,62,36,0
126.25429,126.50429,52,36,0
126.50429,126.75429,61,36,0
126.50429,126.75429,57,36,0
126.75429,127.00429,62,36,0
126.75429,127.00429,52,36,0
127.00429,127.25429,61,36,0
127.00429,127.25429,57,36,0
127.25429,127.50429,62,36,0
127.25429,127.50429,52,36,0
127.50429,127.62929,61,36,0
127.50429,127.62929,57,36,0
127.62929,127.75429,52,36,0
127.75429,127.87929,57,36,0
127.87929,128.00429,61,36,0
128.00429,128.12929,64,49,0
128.12929,128.25429,66,49,0
128.25429,128.37929,63,49,0
128.37929,128.50429,66,49,0
128.50429,128.62929,64,49,0
128.62929,128.75429,66,49,0
128.75429,128.87929,63,49,0
128.87929,129.00429,66,49,0
129.00429,129.12929,64,36,0
129.12929,129.25429,66,36,0
129.25429,129.37929,62,36,0
129.37929,129.50429,64,36,0
129.50429,129.62929,61,36,0
129.62929,129.75429,62,36,0
129.75429,129.87929,59,36,0
129.87929,130.00429,61,36,0
130.12929,130.25429,57,36,0
130.25429,130.37929,52,36,0
130.37929,130.50429,49,36,0
130.62929,130.75429,56,36,0
130.75429,130.87929,52,62,0
130.87929,131.00429,47,62,0
131.12929,131.25429,55,62,0
131.25429,131.37929,52,62,0
131.37929,131.50429,46,62,0
131.62929,131.75429,54,36,0
131.87929,132.00429,54,36,0
132.12929,132.25429,57,36,0
132.25429,132.37929,55,36,0
132.37929,132.50429,52,36,0
132.62929,132.75429,59,36,0
132.75429,132.87929,55,49,0
132.87929,133.00429,50,49,0
133.00429,133.12929,49,62,0
133.12929,133.25429,57,62,0
133.25429,133.37929,55,49,0
133.37929,133.50429,49,49,0
133.50429,133.62929,50,36,0
133.62929,133.75429,57,36,0
133.75429,133.87929,54,36,0
133.87929,134.00429,57,36,0
134.00429,134.12929,56,36,0
134.00429,134.12929,52,36,0
134.25429,134.27928,73,36,0
134.50429,134.52928,71,36,0
134.75429,134.77928,69,36,0
135.00429,135.12929,61,36,0
135.25429,135.37929,64,36,0
135.37929,135.50429,61,36,0
135.50429,135.62929,57,36,0
135.62929,135.75429,66,36,0
135.75429,135.87929,61,49,0
135.87929,136.00429,57,49,0
136.00429,136.12929,56,62,0
136.12929,136.25429,63,62,0
136.25429,136.37929,60,49,0
136.37929,136.50429,56,49,0
136.50429,136.62929,54,36,0
136.62929,136.75429,66,36,0
136.75429,136.87929,59,36,0
136.87929,137.00429,63,36,0
137.00429,137.12929,64,36,0
137.00429,137.12929,52,36,0
137.50429,137.75429,76,88,0
137.75429,138.00429,80,36,0
138.00429,138.25429,59,36,0
138.25429,138.50429,66,36,0
138.50429,138.75429,63,36,0
138.75429,139.00429,59,36,0
139.00429,139.12929,64,36,0
139.50429,139.75429,76,36,0
139.75429,140.00429,80,36,0
140.00429,140.25429,59,36,0
140.25429,140.50429,66,36,0
140.50429,140.75429,63,36,0
140.75429,141.00429,59,36,0
141.00429,141.12929,64,36,0
141.12929,141.25429,66,36,0
141.25429,141.37929,63,36,0
141.37929,141.50429,66,36,0
141.50429,141.62929,64,36,0
141.62929,141.75429,66,36,0
141.75429,141.87929,63,36,0
141.87929,142.00429,66,36,0
142.00429,142.12929,64,36,0
142.12929,142.25429,66,36,0
142.25429,142.37929,62,36,0
142.37929,142.50429,64,36,0
142.50429,142.62929,61,36,0
142.62929,142.75429,62,36,0
142.75429,142.87929,59,36,0
142.87929,143.00429,61,36,0
143.12929,143.25429,57,36,0
143.25429,143.37929,52,36,0
143.37929,143.50429,49,36,0
143.62929,143.75429,56,36,0
143.75429,143.87929,52,62,0
143.87929,144.00429,47,62,0
144.12929,144.25429,55,62,0
144.25429,144.37929,52,62,0
144.37929,144.50429,46,62,0
144.62929,144.75429,54,36,0
144.87929,145.00429,54,36,0
145.00429,145.50429,38,36,0
145.50429,146.00429,40,36,0
146.00429,146.50429,42,62,0
146.50429,146.52928,43,36,0
146.75429,146.76262,40,36,0
147.12929,147.25429,55,36,0
147.25429,147.37929,50,36,0
147.37929,147.50429,47,36,0
147.62929,147.75429,53,36,0
147.75429,147.87929,48,62,0
147.87929,148.00429,45,62,0
148.12929,148.25429,53,62,0
148.25429,148.37929,50,49,0
148.37929,148.50429,44,49,0
148.62929,148.75429,51,36,0
148.87929,149.00429,48,36,0
149.00429,149.12929,49,36,0
149.00429,149.12929,40,36,0
149.25429,149.50429,78,36,0
149.50429,149.75429,76,36,0
149.75429,150.00429,74,36,0
150.00429,150.12929,66,36,0
150.25429,150.37929,69,36,0
150.37929,150.50429,66,36,0
150.50429,150.62929,62,36,0
150.62929,150.75429,71,36,0
150.75429,150.87929,66,36,0
150.87929,151.00429,62,36,0
151.00429,151.12929,61,36,0
151.12929,151.25429,68,36,0
151.25429,151.37929,65,36,0
151.37929,151.50429,61,36,0
151.50429,151.62929,59,49,0
151.62929,151.75429,71,49,0
151.75429,151.87929,64,36,0
151.87929,152.00429,68,36,0
152.00429,152.12929,69,36,0
152.00429,152.12929,57,36,0
152.50429,152.75429,81,75,0
152.75429,152.87929,85,36,0
153.00429,153.25429,64,36,0
153.25429,153.50429,71,36,0
153.50429,153.75429,68,36,0
153.75429,154.00429,64,36,0
154.00429,154.12929,69,36,0
154.50429,154.75429,81,36,0
154.75429,155.00429,85,36,0
155.00429,155.25429,64,36,0
155.25429,155.50429,71,36,0
155.50429,155.75429,68,36,0
155.75429,156.00429,64,36,0
156.00429,156.25429,73,36,0
156.00429,156.25429,69,36,0
158.00429,158.50429,50,88,0
158.00429,158.50429,38,88,0
158.50429,159.00429,52,88,0
158.50429,159.00429,40,88,0
159.00429,159.50429,53,88,0
159.00429,159.50429,41,88,0
159.50429,159.52928,55,88,0
159.50429,159.52928,43,88,0
159.75429,159.77928,52,88,0
159.75429,159.77928,40,88,0
160.00429,160.50429,53,88,0
160.00429,160.50429,41,88,0
160.50429,160.52928,55,88,0
160.50429,160.52928,43,88,0
160.75429,160.77928,52,88,0
160.75429,160.77928,40,88,0
161.00429,161.02928,53,88,0
161.00429,161.02928,41,88,0
161.25429,161.27928,49,88,0
161.25429,161.27928,37,88,0
161.50429,161.52928,50,88,0
161.50429,161.52928,38,88,0
161.75429,161.77928,47,88,0
161.75429,161.77928,35,88,0
162.00429,162.12929,53,101,0
162.12929,162.25429,52,101,0
162.25429,162.37929,52,101,0
162.37929,162.50429,50,101,0
162.50429,162.62929,50,101,0
162.62929,162.75429,48,101,0
162.75429,162.87929,48,101,0
162.87929,163.00429,47,101,0
163.00429,163.12929,47,101,0
163.12929,163.25429,45,101,0
163.25429,163.37929,40,101,0
163.37929,163.50429,45,101,0
163.50429,163.62929,48,101,0
163.62929,163.75429,47,101,0
163.75429,163.87929,40,101,0
163.87929,164.00429,44,101,0
164.00429,164.12929,47,101,0
164.12929,164.25429,45,101,0
164.25429,164.37929,40,101,0
164.37929,164.50429,45,101,0
164.50429,164.62929,48,101,0
164.62929,164.75429,47,101,0
164.75429,164.87929,40,101,0
164.87929,165.00429,44,101,0
165.00429,165.12929,45,101,0
165.12929,165.25429,48,101,0
165.25429,165.37929,47,101,0
165.37929,165.50429,50,101,0
165.50429,165.62929,48,101,0
165.62929,165.75429,52,101,0
165.75429,165.87929,53,101,0
165.87929,166.00429,57,101,0
166.00429,166.50429,52,88,0
166.00429,166.50429,40,88,0
166.50429,167.00429,54,88,0
166.50429,167.00429,42,88,0
167.00429,167.50429,56,88,0
167.00429,167.50429,44,88,0
167.50429,167.52928,57,88,0
167.50429,167.52928,45,88,0
167.75429,167.77928,53,88,0
167.75429,167.77928,41,88,0
168.00429,168.12929,40,101,0
168.12929,168.25429,53,101,0
168.25429,168.37929,53,101,0
168.37929,168.50429,52,101,0
168.50429,168.62929,52,101,0
168.62929,168.75429,50,101,0
168.75429,168.87929,50,101,0
168.87929,169.00429,48,101,0
169.00429,169.12929,48,101,0
169.12929,169.25429,47,101,0
169.25429,169.37929,40,101,0
169.37929,169.50429,47,101,0
169.50429,169.62929,50,101,0
169.62929,169.75429,48,101,0
169.75429,169.87929,45,101,0
169.87929,170.00429,57,101,0
170.00429,170.25429,56,88,0
170.00429,170.25429,52,88,0
170.25429,170.37929,56,88,0
170.37929,170.50429,68,88,0
170.50429,170.62929,57,88,0
170.62929,170.75429,69,88,0
170.75429,170.87929,41,88,0
170.87929,171.00429,53,88,0
171.00429,171.12929,40,88,0
171.12929,171.25429,52,88,0
171.25429,171.37929,56,88,0
171.37929,171.50429,68,88,0
171.50429,171.62929,57,88,0
171.62929,171.75429,69,88,0
171.75429,171.87929,41,88,0
171.87929,172.00429,53,88,0
172.00429,172.25429,52,88,0
172.00429,172.25429,40,88,0
173.00429,173.50429,60,36,0
173.00429,173.50429,57,36,0
173.50429,174.00429,62,36,0
173.50429,174.00429,59,36,0
174.00429,174.50429,60,36,0
174.00429,175.00429,64,36,0
175.00429,175.50429,60,36,0
175.00429,176.00429,64,36,0
176.00429,176.50429,61,36,0
176.00429,177.00429,64,36,0
177.00429,177.50429,61,36,0
177.00429,178.00429,64,36,0
178.00429,178.02928,64,36,0
178.00429,178.02928,60,36,0
178.25429,178.27928,64,36,0
178.25429,178.27928,62,36,0
178.50429,178.52928,64,36,0
178.50429,178.52928,60,36,0
178.75429,178.77928,64,36,0
178.75429,178.77928,62,36,0
179.00429,179.02928,64,36,0
179.00429,179.02928,60,36,0
179.25429,179.27928,62,36,0
179.25429,179.27928,52,36,0
179.50429,179.51678,60,36,0
179.50429,179.51678,57,36,0
179.94179,179.97304,48,36,0
179.97304,180.00429,50,36,0
180.00429,180.25429,48,75,0
180.25429,180.37929,47,75,0
180.37929,180.50429,45,75,0
180.50429,180.75429,43,75,0
180.75429,180.77928,52,75,0
180.75429,180.77928,40,75,0
181.00429,181.50429,55,75,0
181.00429,181.50429,43,75,0
181.50429,181.75429,52,75,0
181.50429,181.75429,40,75,0
182.00429,182.02928,60,75,0
182.00429,182.02928,57,75,0
182.00429,182.02928,48,75,0
182.25429,182.27928,60,75,0
182.25429,182.27928,57,75,0
182.25429,182.27928,50,75,0
182.50429,182.52928,60,75,0
182.50429,182.52928,57,75,0
182.50429,182.52928,52,75,0
182.75429,182.77928,60,75,0
182.75429,182.77928,57,75,0
182.75429,182.77928,53,75,0
183.00429,183.02928,60,75,0
183.00429,183.02928,57,75,0
183.00429,183.02928,52,75,0
183.25429,183.27928,63,101,0
183.25429,183.27928,57,101,0
183.25429,183.27928,53,101,0
183.94179,183.97304,53,101,0
183.97304,184.00429,55,101,0
183.50429,184.00429,64,101,0
183.50429,184.00429,56,101,0
183.50429,184.00429,52,101,0
184.00429,184.25429,53,101,0
184.25429,184.37929,52,101,0
184.37929,184.50429,50,101,0
184.50429,184.75429,48,101,0
184.75429,184.77928,57,101,0
184.75429,184.77928,45,101,0
185.00429,185.50429,60,101,0
185.00429,185.50429,48,101,0
185.50429,185.75429,57,101,0
185.50429,185.75429,45,101,0
186.00429,186.02928,65,101,0
186.00429,186.02928,62,101,0
186.00429,186.02928,53,101,0
186.25429,186.27928,65,101,0
186.25429,186.27928,62,101,0
186.25429,186.27928,55,101,0
186.50429,186.52928,65,101,0
186.50429,186.52928,62,101,0
186.50429,186.52928,57,101,0
186.75429,186.77928,65,101,0
186.75429,186.77928,62,101,0
186.75429,186.77928,58,101,0
187.00429,187.02928,60,101,0
187.00429,187.02928,57,101,0
187.00429,187.02928,48,101,0
187.25429,187.27928,60,101,0
187.25429,187.27928,57,101,0
187.25429,187.27928,50,101,0
187.50429,187.52928,60,101,0
187.50429,187.52928,57,101,0
187.50429,187.52928,52,101,0
187.75429,187.77928,60,101,0
187.75429,187.77928,57,101,0
187.75429,187.77928,53,101,0
188.00429,188.02928,60,101,0
188.00429,188.02928,57,101,0
188.00429,188.02928,52,101,0
188.25429,188.27928,62,101,0
188.25429,188.27928,59,101,0
188.25429,188.27928,52,101,0
188.50429,189.00429,60,101,0
188.50429,189.00429,57,101,0
189.00429,189.50429,53,88,0
189.00429,189.50429,41,88,0
189.50429,190.00429,55,101,0
189.50429,190.00429,43,101,0
190.00429,190.50429,57,101,0
190.00429,190.50429,45,101,0
190.50429,191.00429,58,101,0
190.50429,191.00429,46,101,0
191.00429,191.02928,60,101,0
191.00429,191.02928,48,101,0
191.25429,191.27928,55,101,0
191.25429,191.27928,43,101,0
191.50429,192.00429,60,101,0
191.50429,192.00429,48,101,0
192.00429,192.50429,50,101,0
192.00429,192.50429,38,101,0
192.50429,193.00429,52,101,0
192.50429,193.00429,40,101,0
193.00429,193.50429,53,101,0
193.00429,193.50429,41,101,0
193.50429,194.00429,55,101,0
193.50429,194.00429,43,101,0
194.00429,194.02928,57,101,0
194.00429,194.02928,45,101,0
194.25429,194.27928,50,101,0
194.25429,194.27928,38,101,0
194.50429,194.52928,57,101,0
194.50429,194.52928,45,101,0
194.75429,194.77928,50,101,0
194.75429,194.77928,38,101,0
195.00429,195.25429,49,36,0
195.00429,195.25429,45,36,0
195.25429,195.50429,50,36,0
195.25429,195.50429,41,36,0
195.50429,195.75429,49,36,0
195.50429,195.75429,45,36,0
195.75429,196.00429,50,36,0
195.75429,196.00429,41,36,0
196.00429,196.02928,57,101,0
196.00429,196.02928,45,93,0
196.25429,196.27928,50,101,0
196.25429,196.27928,38,93,0
196.50429,196.52928,57,101,0
196.50429,196.52928,45,93,0
196.75429,196.77928,50,101,0
196.75429,196.77928,38,93,0
197.00429,197.25429,49,36,0
197.00429,197.25429,45,36,0
197.25429,197.50429,50,36,0
197.25429,197.50429,41,36,0
197.50429,197.75429,49,36,0
197.50429,197.75429,45,36,0
197.75429,198.00429,50,36,0
197.75429,198.00429,41,36,0
198.00429,198.25429,49,36,0
198.25429,198.50429,50,36,0
198.50429,198.75429,52,49,0
198.75429,199.00429,55,49,0
199.00429,199.25429,53,62,0
199.25429,199.50429,52,62,0
199.50429,199.75429,50,62,0
199.75429,200.00429,55,62,0
200.00429,200.25429,53,62,0
200.25429,200.50429,50,62,0
200.50429,200.75429,49,62,0
200.75429,201.00429,45,62,0
201.00429,201.25429,53,62,0
201.25429,201.50429,50,62,0
201.50429,201.75429,49,62,0
201.75429,202.25429,45,88,0
202.25429,202.37929,43,62,0
202.37929,202.50429,41,62,0
202.50429,202.75429,40,62,0
202.75429,203.00429,36,62,0
203.00429,203.25429,41,62,0
203.25429,203.50429,43,62,0
203.50429,203.75429,45,62,0
203.75429,204.00429,46,62,0
204.00429,204.25429,45,62,0
204.25429,204.50429,49,62,0
204.50429,204.75429,50,62,0
204.75429,205.00429,58,62,0
205.00429,205.25429,57,62,0
205.25429,205.50429,50,62,0
205.25429,205.50429,46,62,0
205.50429,205.75429,53,62,0
205.50429,205.75429,50,62,0
205.75429,206.00429,52,62,0
205.75429,206.00429,49,62,0
206.00429,206.25429,53,62,0
206.25429,206.50429,58,62,0
206.50429,206.75429,57,62,0
206.75429,207.00429,55,62,0
207.00429,207.02928,53,75,0
207.25429,207.27928,50,36,0
207.50429,207.52928,48,75,0
207.75429,207.77928,46,36,0
208.00429,208.02928,45,62,0
208.25429,208.27928,53,36,0
208.25429,208.27928,41,36,0
208.50429,208.52928,52,75,0
208.50429,208.52928,40,67,0
208.75429,208.77928,50,49,0
208.75429,208.77928,38,49,0
209.00429,209.02928,48,88,0
209.00429,209.02928,36,80,0
209.25429,209.27928,45,62,0
209.25429,209.27928,33,62,0
209.50429,209.52928,43,88,0
209.50429,209.52928,31,80,0
209.75429,209.77928,41,62,0
209.75429,209.77928,29,62,0
210.00429,210.02928,40,62,0
210.00429,210.02928,28,62,0
210.25429,210.27928,38,62,0
210.25429,210.27928,26,62,0
210.50429,210.52928,40,75,0
210.50429,210.52928,28,75,0
210.75429,210.77928,40,75,0
210.75429,210.77928,28,75,0
211.00429,211.12929,47,88,0
211.12929,211.25429,45,88,0
211.25429,211.37929,44,88,0
211.37929,211.50429,45,88,0
211.50429,211.62929,48,88,0
211.62929,211.75429,47,88,0
211.75429,211.87929,45,88,0
211.87929,212.00429,47,88,0
212.00429,212.12929,50,88,0
212.12929,212.25429,48,88,0
212.25429,212.37929,47,88,0
212.37929,212.50429,48,88,0
212.50429,212.62929,52,88,0
212.62929,212.75429,51,88,0
212.75429,212.87929,49,88,0
212.87929,213.00429,51,88,0
213.00429,213.12929,54,88,0
213.12929,213.25429,52,88,0
213.25429,213.37929,51,88,0
213.37929,213.50429,52,88,0
213.50429,213.62929,55,88,0
213.62929,213.75429,54,88,0
213.75429,213.87929,52,88,0
213.87929,214.00429,54,88,0
214.00429,214.12929,55,88,0
214.12929,214.25429,59,88,0
214.25429,214.37929,50,88,0
214.37929,214.50429,59,88,0
214.50429,214.62929,52,88,0
214.62929,214.75429,60,88,0
214.75429,214.87929,52,88,0
214.87929,215.00429,64,88,0
215.00429,215.25429,57,88,0
215.00429,215.25429,45,88,0
215.25429,215.37929,45,88,0
215.37929,215.50429,45,88,0
215.50429,215.51678,45,114,0
215.62929,215.75429,48,88,0
215.75429,215.87929,47,88,0
215.87929,216.00429,45,88,0
216.00429,216.02928,52,101,0
216.25429,216.27928,53,101,0
216.25429,216.27928,41,101,0
216.50429,217.00429,52,101,0
216.50429,217.00429,40,101,0
217.00429,217.25429,68,49,0
217.25429,217.50429,77,49,0
217.50429,217.75429,76,49,0
217.75429,218.00429,74,49,0
218.00429,218.50429,72,49,0
218.50429,219.00429,74,49,0
219.00429,219.50429,72,49,0
219.50429,220.00429,74,49,0
220.00429,220.25429,57,75,0
220.00429,220.25429,45,75,0
220.25429,220.37929,45,75,0
220.37929,220.50429,45,75,0
220.50429,220.51678,45,101,0
220.62929,220.75429,48,75,0
220.75429,220.87929,47,75,0
220.87929,221.00429,45,75,0
221.00429,221.02928,52,101,0
221.25429,221.27928,53,101,0
221.25429,221.27928,41,101,0
221.50429,222.00429,52,101,0
221.50429,222.00429,40,101,0
222.00429,222.25429,68,49,0
222.25429,222.50429,78,49,0
222.50429,222.75429,76,49,0
222.75429,223.00429,74,49,0
223.00429,223.50429,73,49,0
223.50429,224.00429,74,49,0
224.00429,224.50429,73,49,0
224.50429,225.00429,74,49,0
225.00429,225.05429,45,75,0
225.05429,225.1043,47,75,0
225.1043,225.15428,45,75,0
225.1522,225.20221,47,75,0
225.20221,225.25221,45,75,0
225.25429,225.37929,44,75,0
225.37929,225.50429,42,75,0
225.50429,225.62929,40,75,0
225.75429,226.00429,57,36,0
225.75429,226.00429,49,36,0
226.00429,226.25429,54,36,0
226.25429,226.50429,59,36,0
226.50429,226.75429,61,36,0
226.75429,227.00429,62,36,0
227.00429,227.05429,45,88,0
227.05429,227.1043,47,88,0
227.1043,227.15428,45,88,0
227.1522,227.20221,47,88,0
227.20221,227.25221,45,88,0
227.25429,227.37929,44,88,0
227.37929,227.50429,42,88,0
227.50429,227.62929,40,88,0
227.75429,228.00429,57,36,0
227.75429,228.00429,49,36,0
228.00429,228.25429,54,36,0
228.25429,228.50429,59,36,0
228.50429,228.75429,61,36,0
228.75429,229.00429,62,36,0
229.00429,229.05429,45,88,0
229.05429,229.1043,47,88,0
229.1043,229.15428,45,88,0
229.1522,229.20221,47,88,0
229.20221,229.25221,45,88,0
229.25429,229.37929,44,88,0
229.37929,229.50429,42,88,0
229.50429,229.62929,41,88,0
229.75429,230.00429,61,101,0
229.75429,230.00429,56,101,0
229.75429,230.00429,53,101,0
230.00429,230.05429,45,88,0
230.05429,230.1043,47,88,0
230.1043,230.15428,45,88,0
230.1522,230.20221,47,88,0
230.20221,230.25221,45,88,0
230.25429,230.37929,44,88,0
230.37929,230.50429,42,88,0
230.50429,230.62929,41,88,0
230.75429,231.00429,61,101,0
230.75429,231.00429,56,101,0
230.75429,231.00429,53,101,0
231.75429,231.77928,56,36,0
231.75429,231.77928,53,36,0
232.00429,232.02928,56,36,0
232.00429,232.02928,53,36,0
232.25429,232.27928,56,36,0
232.25429,232.27928,53,36,0
232.50429,232.52928,56,36,0
232.50429,232.52928,53,36,0
232.75429,232.77928,56,36,0
232.75429,232.77928,53,36,0
233.25429,233.75429,61,36,0
233.75429,234.25429,61,36,0
234.25429,234.75429,61,36,0
234.75429,235.25429,61,36,0
235.25429,235.75429,61,36,0
235.75429,236.25429,61,36,0
236.25429,236.75429,61,36,0
236.75429,237.00429,61,36,0
237.25429,237.50429,57,49,0
237.25429,237.50429,52,49,0
237.75429,238.00429,59,62,0
237.75429,238.00429,54,62,0
238.25429,238.50429,62,75,0
238.25429,238.50429,56,75,0
238.50429,238.75429,61,114,0
238.50429,238.75429,57,106,0
239.00429,239.62929,52,88,0
240.00429,240.62929,52,114,0
241.00429,241.62929,52,114,0
242.00429,242.62929,52,114,0
242.75429,242.87929,47,88,0
243.00429,243.12929,49,88,0
243.25429,243.37929,50,88,0
243.50429,243.62929,52,88,0
243.50429,243.62929,40,88,0
243.75429,243.87929,54,88,0
243.75429,243.87929,42,88,0
244.00429,244.12929,56,88,0
244.00429,244.12929,44,88,0
244.25429,244.37929,57,88,0
244.25429,244.37929,45,88,0
244.50429,245.00429,60,75,0
244.50429,245.00429,55,75,0
244.50429,245.00429,48,75,0
245.00429,245.50429,60,75,0
245.00429,245.50429,55,75,0
245.00429,245.50429,48,75,0
245.50429,246.00429,60,75,0
245.50429,246.00429,55,75,0
245.50429,246.00429,48,75,0
246.00429,246.50429,60,75,0
246.00429,246.50429,55,75,0
246.00429,246.50429,48,75,0
246.50429,247.00429,52,75,0
246.50429,247.00429,40,75,0
247.00429,247.50429,61,75,0
247.00429,247.50429,49,75,0
247.50429,248.00429,64,75,0
247.50429,248.00429,52,75,0
248.00429,248.50429,69,75,0
248.00429,248.50429,57,75,0
248.50429,248.52928,49,75,0
248.50429,248.52928,37,75,0
248.75429,248.77928,50,75,0
248.75429,248.77928,38,75,0
249.00429,249.02928,52,75,0
249.00429,249.02928,40,75,0
249.25429,249.27928,52,75,0
249.25429,249.27928,40,75,0
249.50429,249.52928,45,75,0
249.50429,249.52928,33,75,0
251.50429,251.92096,53,75,0
251.50429,251.92096,50,75,0
251.92096,252.33762,55,75,0
251.92096,252.33762,52,75,0
252.33762,252.75429,57,75,0
252.33762,252.75429,53,75,0
252.75429,252.77512,57,75,0
252.75429,252.77512,55,75,0
252.96262,252.98346,57,75,0
252.96262,252.98346,52,75,0
253.17096,253.58762,57,75,0
253.17096,253.58762,53,75,0
253.58762,253.60846,57,75,0
253.58762,253.60846,55,75,0
253.79596,253.81679,57,75,0
253.79596,253.81679,52,75,0
254.00429,254.02513,57,75,0
254.00429,254.02513,53,75,0
254.21263,254.23346,57,75,0
254.21263,254.23346,52,75,0
254.42096,254.44179,57,62,0
254.42096,254.44179,50,62,0
254.62929,254.65013,58,62,0
254.62929,254.65013,48,62,0
254.83763,254.94179,57,88,0
254.94179,255.04596,53,88,0
255.04596,255.15013,48,88,0
255.15013,255.25429,53,88,0
255.25429,255.35846,57,88,0
255.35846,255.46263,55,88,0
255.46263,255.56679,48,88,0
255.56679,255.67096,52,88,0
255.67096,255.77513,55,88,0
255.77513,255.87929,53,88,0
255.87929,255.98346,48,88,0
255.98346,256.08762,53,88,0
256.08762,256.1918,57,88,0
256.1918,256.29596,55,88,0
256.29596,256.40012,48,88,0
256.40012,256.5043,52,88,0
256.5043,256.60846,53,88,0
256.60846,256.71262,48,88,0
256.71262,256.8168,55,88,0
256.8168,256.92096,52,88,0
256.92096,257.02512,57,88,0
257.02512,257.1293,53,88,0
257.1293,257.23346,59,88,0
257.23346,257.33762,56,88,0
257.33762,257.7543,60,75,0
257.33762,257.7543,52,75,0
257.33762,257.7543,48,75,0
257.7543,257.77512,62,75,0
257.7543,257.77512,52,75,0
257.7543,257.77512,50,75,0
257.96262,257.98346,59,75,0
257.96262,257.98346,52,75,0
257.96262,257.98346,47,75,0
258.17096,258.58762,60,75,0
258.17096,258.58762,52,75,0
258.17096,258.58762,48,75,0
258.58762,258.60846,62,75,0
258.58762,258.60846,52,75,0
258.58762,258.60846,50,75,0
258.79596,258.8168,59,75,0
258.79596,258.8168,52,75,0
258.79596,258.8168,47,75,0
259.0043,259.10846,47,101,0
259.10846,259.21262,45,101,0
259.21262,259.3168,40,101,0
259.3168,259.42096,45,101,0
259.42096,259.52512,48,101,0
259.52512,259.6293,47,101,0
259.6293,259.73346,40,101,0
259.73346,259.83762,44,101,0
259.83762,259.9418,47,101,0
259.9418,260.04596,45,101,0
260.04596,260.15012,40,101,0
260.15012,260.2543,45,101,0
260.2543,260.35846,48,101,0
260.35846,260.46262,47,101,0
260.46262,260.5668,40,101,0
260.5668,260.67096,44,101,0
260.67096,260.77512,45,101,0
260.77512,260.8793,52,101,0
260.8793,260.98346,40,101,0
260.98346,261.08762,52,101,0
261.08762,261.1918,45,101,0
261.1918,261.29596,52,101,0
261.29596,261.40012,40,101,0
261.40012,261.5043,52,101,0
261.5043,261.60846,45,101,0
261.60846,261.71262,52,101,0
261.71262,261.8168,40,101,0
261.8168,261.92096,52,101,0
261.92096,262.02512,45,101,0
262.02512,262.1293,52,101,0
262.1293,262.23346,40,101,0
262.23346,262.33762,52,101,0
262.7543,262.77512,48,101,0
262.7543,262.77512,36,101,0
262.96262,262.98346,45,101,0
262.96262,262.98346,33,101,0
263.58765,263.60846,48,101,0
263.58765,263.60846,36,101,0
263.79596,263.8168,45,101,0
263.79596,263.8168,33,101,0
264.42096,264.4418,48,101,0
264.42096,264.4418,36,101,0
264.6293,264.65015,45,101,0
264.6293,264.65015,33,101,0
265.2543,265.27515,48,101,0
265.2543,265.27515,36,101,0
265.46265,265.48346,45,101,0
265.46265,265.48346,33,101,0
266.08765,266.10846,48,62,0
266.08765,266.10846,36,62,0
266.29596,266.3168,45,62,0
266.29596,266.3168,33,62,0
266.92096,266.9418,48,62,0
266.92096,266.9418,36,62,0
267.1293,267.15015,45,62,0
267.1293,267.15015,33,62,0
267.7543,267.77515,48,62,0
267.7543,267.77515,36,62,0
267.96265,267.98346,45,62,0
267.96265,267.98346,33,62,0
268.17096,268.1918,48,62,0
268.17096,268.1918,36,62,0
268.3793,268.40015,45,62,0
268.3793,268.40015,33,62,0
268.58765,268.60846,48,62,0
268.58765,268.60846,36,62,0
268.79596,268.8168,45,62,0
268.79596,268.8168,33,62,0
269.0043,269.21265,57,62,0
269.0043,269.21265,45,62,0
269.83765,270.04596,52,88,0
269.83765,270.04596,47,88,0
269.83765,270.04596,40,88,0
270.67096,270.8793,45,88,0
270.67096,270.8793,33,88,0
270.67096,270.8793,36,88,0
270.67096,270.8793,40,88,0
7.0,7.5,52,64,0
16.0,16.5,52,36,0
17.75,18.0,57,36,0
18.0,18.25,56,36,0
18.25,18.5,52,36,0
18.75,19.0,57,36,0
19.0,19.25,56,36,0
19.25,19.5,52,36,0
19.75,20.0,57,36,0
20.0,20.25,56,36,0
20.25,20.5,52,36,0
20.75,21.0,57,36,0
21.0,21.25,56,36,0
21.25,21.5,52,36,0
44.5,45.25,52,36,0
52.0,52.5,52,36,0
64.5,65.0,67,36,0
65.0,65.5,69,36,0
65.5,66.0,67,36,0
66.0,66.5,69,36,0
69.5,70.0,68,36,0
70.0,70.5,69,36,0
70.5,71.0,68,36,0
71.0,71.5,69,36,0
72.5,73.0,57,36,0
73.0,73.5,59,36,0
74.5,75.0,57,36,0
75.0,75.5,59,36,0
79.0,79.5,60,36,0
79.5,80.0,61,36,0
80.0,80.5,63,36,0
80.5,81.0,65,36,0
81.0,81.5,65,36,0
81.5,82.0,65,36,0
82.0,82.5,64,36,0
82.5,83.0,64,36,0
83.0,83.5,56,36,0
83.5,84.0,57,49,0
84.0,84.5,59,62,0
85.0,85.25,45,114,0
85.25,85.375,44,88,0
85.375,85.5,42,88,0
85.5,85.625,40,88,0
86.0,86.25,45,114,0
86.25,86.375,44,88,0
86.375,86.5,42,88,0
86.5,86.625,40,88,0
87.0,87.25,45,114,0
87.25,87.375,44,88,0
87.375,87.5,42,88,0
87.5,87.625,40,88,0
88.0,88.25,45,114,0
88.25,88.375,44,88,0
88.375,88.5,42,88,0
88.5,88.625,40,88,0
111.0,111.5,52,88,0
120.0,120.5,52,36,0
121.75,122.0,57,36,0
122.0,122.25,56,36,0
122.25,122.5,52,36,0
122.75,123.0,57,36,0
123.0,123.25,56,36,0
123.25,123.5,52,36,0
123.75431,124.02713,57,36,0
124.02713,124.32136,56,36,0
124.32136,124.640656,52,36,0
124.98156,125.32247,57,36,0
125.32247,125.663376,56,36,0
125.663376,126.00429,52,36,0
130.00429,130.50429,49,36,0
130.50429,131.00429,47,36,0
131.00429,131.50429,46,62,0
131.50429,131.75429,47,36,0
131.75429,132.00429,50,36,0
132.00429,132.50429,52,36,0
132.50429,133.00429,50,36,0
143.00429,143.50429,49,36,0
143.50429,144.00429,47,36,0
144.00429,144.50429,46,62,0
144.50429,144.75429,47,36,0
144.75429,145.00429,50,36,0
147.00429,147.37929,47,36,0
147.50429,147.94179,45,36,0
148.00429,148.37929,44,62,0
148.50429,148.75429,42,36,0
148.75429,149.00429,41,36,0
174.50429,174.52928,62,36,0
174.75429,174.77928,59,36,0
175.50429,175.52928,62,36,0
175.75429,175.77928,59,36,0
176.50429,176.52928,62,36,0
176.75429,176.77928,59,36,0
177.50429,177.52928,62,36,0
177.75429,177.77928,59,36,0
198.00429,198.75429,45,36,0
205.50429,206.00429,45,36,0
218.25429,218.50429,69,49,0
218.50429,218.75429,68,49,0
218.75429,219.00429,64,49,0
219.25429,219.50429,69,49,0
219.50429,219.75429,68,49,0
219.75429,220.00429,64,49,0
223.25429,223.50429,69,49,0
223.50429,223.75429,68,49,0
223.75429,224.00429,64,49,0
224.25429,224.50429,69,49,0
224.50429,224.75429,68,49,0
224.75429,225.00429,64,49,0
226.00429,226.50429,50,36,0
226.50429,227.00429,52,36,0
228.00429,228.50429,50,36,0
228.50429,229.00429,52,36,0
233.00429,233.50429,53,36,0
233.50429,234.00429,54,36,0
234.00429,234.50429,56,36,0
234.50429,235.00429,58,36,0
235.00429,235.50429,58,36,0
235.50429,236.00429,58,36,0
236.00429,236.50429,57,36,0
236.50429,237.00429,57,36,0
237.00429,237.50429,49,36,0
237.50429,238.00429,50,49,0
238.00429,238.50429,52,62,0
239.00429,239.25429,50,62,0
239.25429,239.37929,49,62,0
239.37929,239.50429,47,62,0
239.50429,239.62929,45,62,0
240.00429,240.25429,50,88,0
240.25429,240.37929,49,62,0
240.37929,240.50429,47,62,0
240.50429,240.62929,45,62,0
241.00429,241.25429,50,88,0
241.25429,241.37929,49,62,0
241.37929,241.50429,47,62,0
241.50429,241.62929,45,62,0
242.00429,242.25429,50,88,0
242.25429,242.37929,49,62,0
242.37929,242.50429,47,62,0
242.50429,242.62929,45,62,0
