start_time,end_time,note_value,velocity,instrument_program_number
0.0,0.833334,60,49,0
0.833334,1.111112,65,49,0
1.111112,1.666668,69,49,0
1.666668,2.222224,74,49,0
2.222224,3.055558,72,49,0
3.055558,3.333336,70,49,0
3.333336,3.888892,67,49,0
3.888892,4.444448,69,49,0
4.444448,5.55556,65,49,0
4.444448,5.55556,57,49,0
4.444448,5.55556,53,49,0
5.55556,6.666672,70,49,0
5.55556,6.666672,67,49,0
5.55556,6.666672,58,49,0
6.666672,6.94445,69,49,0
5.55556,6.94445,60,49,0
6.666672,6.94445,57,49,0
6.666672,6.94445,65,49,0
7.222228,7.638895,60,36,0
7.638895,7.7453766,61,36,0
7.740747,7.8101916,60,36,0
7.8101916,8.226858,59,62,0
8.226858,8.296303,60,36,0
8.296303,8.365747,61,36,0
8.365747,8.643525,60,36,0
8.888896,9.72223,60,49,0
9.72223,10.000008,65,49,0
10.000008,10.555564,69,49,0
10.555564,11.11112,74,49,0
10.555564,11.11112,69,49,0
11.11112,11.944454,74,62,0
11.11112,11.944454,62,62,0
11.944454,12.222232,77,62,0
11.944454,12.222232,65,62,0
12.222232,12.777788,81,75,0
12.222232,12.777788,69,75,0
12.777788,13.333344,82,75,0
12.777788,13.333344,73,75,0
12.777788,13.333344,70,75,0
13.333344,14.444456,82,88,0
13.333344,14.444456,73,88,0
13.333344,14.444456,70,88,0
14.444456,15.000012,81,49,0
14.444456,15.000012,72,49,0
14.444456,15.000012,69,49,0
15.000012,15.555568,79,49,0
15.000012,15.555568,72,49,0
15.000012,15.555568,70,49,0
15.555568,15.833346,77,49,0
15.555568,15.833346,72,49,0
15.555568,15.833346,69,49,0
16.111124,16.52779,60,36,0
16.52779,16.634272,61,36,0
16.629642,16.699087,60,36,0
16.699087,17.115755,59,62,0
17.115755,17.1852,60,36,0
17.1852,17.254642,61,36,0
17.254642,17.532421,60,36,0
17.777792,18.611126,60,49,0
18.611126,18.888905,64,49,0
18.888905,19.44446,67,49,0
19.44446,20.000015,70,49,0
19.44446,20.000015,61,49,0
19.44446,20.000015,58,49,0
20.000015,20.83335,62,75,0
20.83335,21.111128,65,62,0
21.111128,21.666683,70,62,0
21.666683,22.22224,74,75,0
21.666683,22.22224,62,75,0
21.666683,22.22224,65,75,0
21.666683,22.22224,70,75,0
22.22224,23.333351,75,88,0
22.22224,23.333351,66,88,0
22.22224,23.333351,63,88,0
23.333351,23.888908,74,88,0
23.333351,23.888908,65,88,0
23.333351,23.888908,62,88,0
23.888908,24.444464,72,75,0
23.888908,24.444464,65,75,0
23.888908,24.444464,60,75,0
24.444464,25.555576,73,101,0
24.444464,25.555576,64,96,0
24.444464,25.555576,61,91,0
25.555576,26.111132,72,75,0
25.555576,26.111132,65,75,0
25.555576,26.111132,60,75,0
26.111132,26.666689,69,49,0
26.111132,26.666689,65,49,0
26.111132,26.666689,57,49,0
26.666689,27.500023,72,75,0
27.500023,27.7778,70,49,0
27.7778,28.333357,67,49,0
28.333357,28.888912,69,49,0
28.888912,30.000025,65,49,0
28.888912,30.000025,57,49,0
28.888912,30.000025,53,49,0
30.000025,31.111135,67,75,0
30.000025,31.111135,64,70,0
30.000025,31.111135,58,65,0
31.111135,31.388914,69,49,0
31.111135,31.388914,65,49,0
31.111135,31.388914,57,49,0
31.666693,32.08336,60,36,0
32.08336,32.189842,61,36,0
32.18521,32.254654,60,36,0
32.254654,32.67132,59,62,0
32.67132,32.74077,60,36,0
32.74077,32.81021,61,36,0
32.81021,33.08799,60,36,0
33.33336,34.166695,84,75,0
34.166695,34.444473,82,49,0
34.444473,35.000027,79,49,0
35.000027,35.555584,81,49,0
35.555584,36.666695,77,49,0
35.555584,36.666695,69,49,0
35.555584,36.666695,65,49,0
36.666695,37.77781,79,75,0
36.666695,37.77781,76,70,0
36.666695,37.77781,67,65,0
37.77781,38.055588,77,49,0
37.77781,38.055588,65,49,0
38.333363,38.75003,72,36,0
38.75003,38.856514,73,36,0
38.851883,38.921326,72,36,0
38.921326,39.337994,71,62,0
39.337994,39.40744,72,36,0
39.40744,39.476883,73,36,0
39.476883,39.75466,72,36,0
40.555588,40.972256,65,49,0
40.972256,41.0417,66,49,0
41.0417,41.111145,65,49,0
41.111145,41.52781,64,49,0
41.52781,41.597256,65,49,0
41.597256,41.6667,66,49,0
41.6667,42.083366,65,49,0
42.083366,42.152813,63,49,0
42.152813,42.222256,61,49,0
42.222256,42.638924,60,62,0
42.638924,42.708366,61,62,0
42.708366,42.777813,63,62,0
42.777813,43.19448,61,75,0
43.19448,43.263924,60,75,0
43.263924,43.333366,58,75,0
43.333366,43.750034,57,88,0
43.750034,43.81948,58,88,0
43.81948,43.888924,60,88,0
43.888924,44.30559,58,101,0
44.30559,44.375034,56,101,0
44.375034,44.44448,54,101,0
44.44448,45.55559,61,114,0
44.44448,45.55559,56,114,0
44.44448,45.55559,53,114,0
45.55559,45.740776,61,114,0
45.73615,45.740776,61,114,0
45.55559,45.740776,53,114,0
45.55559,45.740776,56,114,0
45.73615,45.740776,56,114,0
45.73615,45.921333,65,114,0
45.925964,45.94448,65,114,0
45.925964,45.94448,61,114,0
45.925964,45.94448,56,114,0
46.11115,46.296333,68,114,0
46.291702,46.296333,68,114,0
46.11115,46.296333,61,114,0
46.11115,46.296333,65,114,0
46.291702,46.296333,65,114,0
46.291702,46.47689,73,114,0
46.481518,46.50004,73,114,0
46.481518,46.50004,68,114,0
46.481518,46.50004,65,114,0
46.666702,47.22226,73,114,0
47.22226,47.777817,72,114,0
47.777817,47.963,61,114,0
47.95837,47.963,61,114,0
47.777817,47.963,53,114,0
47.777817,47.963,58,114,0
47.95837,47.963,58,114,0
47.95837,48.14356,65,114,0
48.148186,48.166706,65,114,0
48.148186,48.166706,61,114,0
48.148186,48.166706,58,114,0
48.33337,48.51856,65,114,0
48.513927,48.51856,65,114,0
48.33337,48.51856,58,114,0
48.33337,48.51856,61,114,0
48.513927,48.51856,61,114,0
48.513927,48.699112,69,114,0
48.703743,48.72226,69,114,0
48.703743,48.72226,65,114,0
48.703743,48.72226,61,114,0
48.888927,49.444485,70,114,0
49.444485,50.00004,68,114,0
50.00004,50.185226,58,114,0
50.180595,50.185226,58,114,0
50.00004,50.185226,49,114,0
50.00004,50.185226,54,114,0
50.180595,50.185226,54,114,0
50.180595,50.36578,61,114,0
50.37041,50.388927,61,114,0
50.37041,50.388927,58,114,0
50.37041,50.388927,54,114,0
50.555595,50.74078,61,114,0
50.736153,50.74078,61,114,0
50.555595,50.74078,54,114,0
50.555595,50.74078,58,114,0
50.736153,50.74078,58,114,0
50.736153,50.921337,66,114,0
50.92597,50.944485,66,114,0
50.92597,50.944485,61,114,0
50.92597,50.944485,58,114,0
51.111153,51.296337,66,114,0
51.291706,51.296337,66,114,0
51.111153,51.296337,58,114,0
51.111153,51.296337,61,114,0
51.291706,51.296337,61,114,0
51.291706,51.476894,70,114,0
51.48152,51.500042,70,114,0
51.48152,51.500042,66,114,0
51.48152,51.500042,61,114,0
51.66671,51.851894,70,114,0
51.847263,51.851894,70,114,0
51.66671,51.851894,61,114,0
51.66671,51.851894,66,114,0
51.847263,51.851894,66,114,0
51.847263,52.032448,73,114,0
52.03708,52.055595,73,114,0
52.03708,52.055595,70,114,0
52.03708,52.055595,66,114,0
52.222263,52.407448,73,114,0
52.40282,52.407448,73,114,0
52.222263,52.407448,66,114,0
52.222263,52.407448,70,114,0
52.40282,52.407448,70,114,0
52.40282,52.588005,78,114,0
52.592636,52.611153,78,114,0
52.592636,52.611153,73,114,0
52.592636,52.611153,70,114,0
52.77782,52.963005,78,114,0
52.958374,52.963005,78,114,0
52.77782,52.963005,70,114,0
52.958374,52.963005,70,114,0
52.77782,52.963005,73,114,0
52.958374,52.963005,73,114,0
52.958374,53.143562,82,114,0
53.14819,53.16671,82,114,0
53.14819,53.16671,70,114,0
53.14819,53.16671,73,114,0
53.14819,53.16671,78,114,0
53.333378,53.88893,85,114,0
53.333378,53.88893,80,114,0
53.333378,53.88893,73,114,0
53.88893,54.074116,83,114,0
53.88893,54.074116,80,114,0
53.88893,54.074116,71,114,0
53.88893,54.074116,73,114,0
54.06949,54.074116,73,114,0
54.06949,54.254673,70,114,0
54.06949,54.254673,82,114,0
54.06949,54.254673,78,114,0
54.259304,54.27782,82,114,0
54.259304,54.27782,70,114,0
54.259304,54.27782,73,114,0
54.259304,54.27782,78,114,0
54.44449,55.000046,85,114,0
54.44449,55.000046,80,114,0
54.44449,55.000046,73,114,0
55.000046,55.18523,83,114,0
55.000046,55.18523,80,114,0
55.000046,55.18523,71,114,0
55.000046,55.18523,73,114,0
55.1806,55.18523,73,114,0
55.1806,55.365784,70,114,0
55.1806,55.365784,82,114,0
55.1806,55.365784,78,114,0
55.370415,55.388935,82,114,0
55.370415,55.388935,70,114,0
55.370415,55.388935,73,114,0
55.370415,55.388935,78,114,0
55.5556,56.111156,88,114,0
55.5556,56.111156,82,114,0
55.5556,56.111156,76,114,0
56.111156,56.29634,86,114,0
56.111156,56.29634,74,114,0
56.111156,56.29634,82,114,0
56.29171,56.29634,82,114,0
56.29171,56.4769,75,114,0
56.29171,56.4769,87,114,0
56.481525,56.500046,87,114,0
56.481525,56.500046,82,114,0
56.481525,56.500046,75,114,0
56.666714,57.222267,88,114,0
56.666714,57.222267,82,114,0
56.666714,57.222267,76,114,0
57.222267,57.40745,86,114,0
57.222267,57.40745,74,114,0
57.222267,57.40745,82,114,0
57.402824,57.40745,82,114,0
57.402824,57.58801,75,114,0
57.402824,57.58801,87,114,0
57.59264,57.611156,87,114,0
57.59264,57.611156,82,114,0
57.59264,57.611156,75,114,0
57.777824,58.33338,88,114,0
57.777824,58.33338,82,114,0
57.777824,58.33338,76,114,0
58.33338,58.888935,88,114,0
58.33338,58.888935,82,114,0
58.33338,58.888935,76,114,0
58.888935,59.444492,88,114,0
58.888935,59.444492,82,114,0
58.888935,59.444492,76,114,0
59.444492,60.00005,88,114,0
59.444492,60.00005,82,114,0
59.444492,60.00005,76,114,0
60.00005,60.555603,89,114,0
60.00005,60.555603,77,114,0
60.00005,60.555603,83,114,0
60.00005,60.555603,86,114,0
60.555603,61.11116,89,114,0
60.555603,61.11116,77,114,0
60.555603,61.11116,83,114,0
60.555603,61.11116,86,114,0
61.11116,61.666718,90,114,0
61.11116,61.666718,84,114,0
61.11116,61.666718,78,114,0
61.11116,61.666718,81,114,0
61.11116,61.666718,87,114,0
61.666718,62.22227,90,114,0
61.666718,62.22227,84,114,0
61.666718,62.22227,78,114,0
61.666718,62.22227,81,114,0
61.666718,62.22227,87,114,0
62.22227,62.407455,91,114,0
62.22227,62.407455,86,114,0
62.22227,62.407455,79,114,0
62.40283,62.407455,79,49,0
62.22227,62.407455,82,114,0
62.592644,62.61116,79,49,0
62.77783,62.963013,67,49,0
62.958385,63.14357,79,49,0
63.148197,63.166718,79,49,0
63.333385,63.51857,67,49,0
63.51394,63.699123,79,49,0
63.703754,63.722275,79,49,0
63.88894,64.07413,67,49,0
64.069496,64.254684,79,49,0
64.25931,64.27783,79,49,0
64.444496,64.629684,67,49,0
64.62505,64.81275,79,49,0
64.81751,64.83656,79,49,0
65.00799,65.20406,67,49,0
65.199165,65.39806,79,49,0
65.403114,65.42332,79,49,0
65.60513,65.81567,67,49,0
65.8104,66.024185,79,49,0
66.029625,66.05136,79,49,0
66.24701,66.47173,67,49,0
66.46611,66.69456,79,49,0
66.70037,66.723625,79,49,0
66.93293,67.12524,76,36,0
67.12043,67.31274,79,36,0
67.31754,67.33678,79,36,0
67.50985,67.702156,79,36,0
67.69735,67.889656,84,36,0
67.89447,67.9137,84,36,0
68.08678,68.27908,84,36,0
68.27428,68.46658,88,36,0
68.47139,68.49062,88,36,0
68.6637,68.856,88,36,0
68.8512,69.0435,93,36,0
69.04831,69.06754,93,36,0
69.24062,69.43293,93,36,0
69.42812,69.62043,91,36,0
69.62524,69.64447,91,36,0
69.81754,70.00985,91,36,0
70.00504,70.19735,89,36,0
70.202156,70.22139,89,36,0
70.39447,70.58678,89,36,0
70.58197,70.77428,86,36,0
70.77908,70.79831,86,36,0
70.97139,71.1637,86,36,0
71.15889,71.3512,88,36,0
71.356,71.37524,88,36,0
71.54831,71.74062,76,36,0
71.73581,71.92812,84,36,0
71.93293,72.12524,84,36,0
72.12524,72.31754,86,36,0
72.31274,72.50504,84,36,0
72.50985,72.702156,84,36,0
72.702156,72.89446,83,36,0
72.889656,73.08196,89,36,0
73.08678,73.27908,89,36,0
73.27908,73.47139,91,36,0
73.46658,73.65889,89,36,0
73.6637,73.856,89,36,0
73.856,74.14446,88,36,0
74.43293,74.86562,76,36,0
74.86562,74.93774,77,36,0
74.93774,75.00985,76,36,0
75.00985,75.44254,75,62,0
75.44254,75.514656,76,36,0
75.514656,75.58678,77,36,0
75.58678,75.87524,76,36,0
76.1637,76.348885,76,36,0
76.34425,76.529434,79,36,0
76.534065,76.55259,79,36,0
76.71925,76.904434,79,36,0
76.89981,77.08499,84,36,0
77.08962,77.10814,84,36,0
77.27481,77.45999,84,36,0
77.45536,77.64055,88,36,0
77.64518,77.6637,88,36,0
77.83037,78.01555,88,36,0
78.01092,78.196106,93,36,0
78.20074,78.21925,93,36,0
78.38592,78.571106,76,49,0
78.566475,78.75166,81,49,0
78.756294,78.77481,81,49,0
78.941475,79.12666,81,62,0
79.12203,79.30722,84,62,0
79.311844,79.33037,84,62,0
79.49703,79.68222,84,75,0
79.67759,79.86277,88,75,0
79.8674,79.885925,88,75,0
80.05259,80.23777,88,88,0
80.23315,80.41833,77,88,0
80.23315,80.41833,80,88,0
80.23315,80.41833,89,88,0
80.42296,80.441475,89,88,0
80.42296,80.441475,80,88,0
80.42296,80.441475,77,88,0
80.60815,81.71925,89,114,0
80.60815,81.71925,80,109,0
80.60815,81.71925,77,104,0
81.71925,81.90444,79,49,0
81.89981,82.085,89,49,0
82.08963,82.10815,88,49,0
82.27481,82.46,77,49,0
82.45537,82.64056,88,49,0
82.64518,82.663704,86,49,0
82.83037,83.10815,84,49,0
82.83037,83.10815,76,49,0
83.385925,83.80259,76,36,0
83.80259,83.87204,77,36,0
83.87204,83.94148,76,36,0
83.94148,84.35815,75,62,0
84.35815,84.42759,76,36,0
84.42759,84.49704,77,36,0
84.49704,84.77481,76,36,0
85.05259,85.23778,67,36,0
85.23315,85.418335,72,36,0
85.422966,85.44148,72,36,0
85.60815,85.793335,72,36,0
85.788704,85.97389,76,36,0
85.978516,85.99704,76,36,0
86.163704,86.34889,76,36,0
86.34426,86.52944,79,36,0
86.53407,86.5526,79,36,0
86.71926,86.90445,79,36,0
86.89982,87.085,82,36,0
87.08963,87.10815,82,36,0
87.27482,87.46,70,49,0
87.455376,87.64056,74,49,0
87.64519,87.663704,74,49,0
87.830376,88.01556,74,62,0
88.010925,88.19611,77,62,0
88.200745,88.21926,77,62,0
88.385925,88.57111,77,62,0
88.56648,88.75167,82,62,0
88.7563,88.77482,82,62,0
88.94148,89.12667,82,75,0
89.12204,89.30723,74,75,0
89.12204,89.30723,77,75,0
89.12204,89.30723,86,75,0
89.31185,89.330376,86,75,0
89.31185,89.330376,77,75,0
89.31185,89.330376,74,75,0
89.49704,90.608154,87,88,0
89.49704,90.608154,78,88,0
89.49704,90.608154,75,88,0
90.608154,90.793335,77,49,0
90.78871,90.97389,87,49,0
90.97852,90.99704,86,49,0
91.16371,91.34889,77,49,0
91.34426,91.52945,86,49,0
91.53408,91.5526,84,49,0
91.71926,92.879906,85,114,0
91.71926,92.879906,76,109,0
91.71926,92.879906,73,104,0
92.879906,93.09043,72,49,0
93.08517,93.29896,85,49,0
93.30439,93.326126,84,49,0
93.52178,93.7465,72,49,0
93.74088,93.96932,82,49,0
93.975136,93.9984,81,49,0
94.207695,94.4,86,36,0
94.395195,94.5875,84,36,0
94.592316,94.61154,84,36,0
94.78462,94.97693,84,36,0
94.97212,95.16443,82,36,0
95.169235,95.18847,82,36,0
95.36154,95.55385,82,36,0
95.54904,95.74135,79,36,0
95.746155,95.76539,79,36,0
95.93847,96.130775,79,36,0
96.12597,96.318275,81,36,0
96.32308,96.342316,81,36,0
96.51539,96.707695,69,36,0
96.70289,96.895195,77,36,0
96.9,96.919235,77,36,0
97.092316,97.28462,79,36,0
97.279816,97.47212,77,36,0
97.47693,97.496155,77,36,0
97.669235,97.86154,76,36,0
97.856735,98.04904,82,36,0
98.05385,98.07308,82,36,0
98.246155,98.43847,84,36,0
98.433655,98.62597,82,36,0
98.630775,98.65,82,36,0
98.82308,99.11154,81,36,0
99.4,99.832695,69,36,0
99.832695,99.90481,70,36,0
99.90481,99.97693,69,36,0
99.97693,100.40962,68,62,0
100.40962,100.481735,69,36,0
100.481735,100.55385,70,36,0
100.55385,100.84231,69,36,0
101.130775,101.315956,98,36,0
101.311325,101.49651,96,36,0
101.501144,101.51966,96,36,0
101.68633,101.87151,96,36,0
101.86688,102.05207,94,36,0
102.0567,102.07522,94,36,0
102.24188,102.42707,94,36,0
102.42244,102.60763,91,36,0
102.61226,102.630775,91,36,0
102.79744,102.98263,91,36,0
102.978,103.163185,93,36,0
103.16781,103.18633,93,36,0
103.353,103.538185,81,36,0
103.533554,103.718735,89,36,0
103.723366,103.74189,89,36,0
103.908554,104.093735,91,36,0
104.08911,104.27429,89,36,0
104.27892,104.29744,89,36,0
104.46411,104.64929,82,36,0
104.64466,104.82985,91,36,0
104.83448,104.853,91,36,0
105.01967,105.20485,94,36,0
105.20022,105.38541,93,36,0
105.39004,105.408554,91,36,0
105.57522,105.853,89,36,0
106.130775,106.54745,69,36,0
106.54745,106.61689,70,36,0
106.61689,106.68633,69,36,0
106.68633,107.103,68,62,0
107.103,107.17245,69,36,0
107.17245,107.24189,70,36,0
107.24189,107.51967,69,36,0
108.353004,108.76967,72,36,0
108.76967,108.83911,73,36,0
108.83911,108.908554,72,36,0
108.908554,109.325226,71,62,0
109.325226,109.39467,72,36,0
109.39467,109.46411,73,36,0
109.46411,109.74189,72,36,0
110.01967,110.43633,71,62,0
110.43633,110.50578,72,62,0
110.50578,110.575226,73,62,0
110.575226,110.99189,72,75,0
110.99189,111.06133,70,75,0
111.06133,111.13078,68,75,0
111.13078,111.54745,67,88,0
111.54745,111.61689,68,88,0
111.61689,111.68634,70,88,0
111.68634,112.103004,68,75,0
112.103004,112.17245,67,75,0
112.17245,112.24189,65,75,0
112.24189,113.353004,60,49,0
113.353004,113.76967,72,49,0
113.76967,113.83912,74,49,0
113.83912,113.90856,76,49,0
113.90856,114.325226,77,49,0
114.325226,114.39468,79,49,0
114.39468,114.46412,81,49,0
114.46412,115.575226,82,114,0
114.46412,115.575226,73,114,0
114.46412,115.575226,70,114,0
115.575226,115.64468,82,36,0
115.64468,115.71412,84,36,0
115.71412,115.78356,82,36,0
115.78356,115.853004,84,36,0
115.853004,115.922455,82,36,0
115.922455,115.9919,84,36,0
115.9919,116.06134,81,36,0
116.06134,116.13078,82,36,0
116.13078,116.40856,88,36,0
116.40856,116.547455,82,36,0
116.68634,116.75578,81,36,0
116.75578,116.82523,82,36,0
116.82523,116.89468,81,36,0
116.89468,116.96412,82,36,0
116.96412,117.03356,81,36,0
117.03356,117.103004,82,36,0
117.103004,117.172455,80,36,0
117.172455,117.2419,81,36,0
117.2419,117.51968,84,36,0
117.51968,117.65856,81,36,0
117.797455,117.8669,79,36,0
117.8669,117.93634,81,36,0
117.93634,118.00578,79,36,0
118.00578,118.07523,81,36,0
118.07523,118.14468,79,36,0
118.14468,118.21412,81,36,0
118.21412,118.28356,78,36,0
118.28356,118.35301,79,36,0
118.35301,118.63079,82,36,0
118.63079,118.76968,79,36,0
119.46412,119.88079,72,36,0
119.88079,119.95023,73,36,0
119.95023,120.01968,72,36,0
120.01968,120.43634,71,62,0
120.43634,120.50579,72,36,0
120.50579,120.57523,73,36,0
120.57523,120.85301,72,36,0
121.13079,121.547455,71,62,0
121.547455,121.6169,72,62,0
121.6169,121.68635,73,62,0
121.68635,122.10301,72,75,0
122.10301,122.172455,70,75,0
122.172455,122.2419,68,75,0
122.2419,122.65857,67,88,0
122.65857,122.72801,68,88,0
122.72801,122.797455,70,88,0
122.797455,123.21413,68,75,0
123.21413,123.28357,67,75,0
123.28357,123.35301,65,75,0
123.35301,124.46413,63,88,0
124.46413,124.88079,75,49,0
124.88079,124.95023,77,62,0
124.95023,125.019684,79,62,0
125.019684,125.43635,80,75,0
125.43635,125.50579,82,88,0
125.50579,125.57523,84,88,0
125.57523,126.68635,85,114,0
125.57523,126.68635,76,114,0
125.57523,126.68635,73,114,0
126.68635,126.75579,85,49,0
126.75579,126.82524,88,49,0
126.82524,126.894684,85,49,0
126.894684,126.96413,88,49,0
126.96413,127.03357,85,49,0
127.03357,127.10302,88,49,0
127.10302,127.17246,84,49,0
127.17246,127.241905,85,49,0
127.241905,127.519684,91,49,0
127.519684,127.65857,85,49,0
127.79746,127.866905,84,49,0
127.866905,127.93635,85,49,0
127.93635,128.0058,84,49,0
128.0058,128.07524,85,49,0
128.07524,128.14468,84,49,0
128.14468,128.21413,85,49,0
128.21413,128.28357,82,49,0
128.28357,128.35301,84,49,0
128.35301,128.6308,87,49,0
128.6308,128.76968,84,49,0
128.90857,128.97801,82,49,0
128.97801,129.04745,84,49,0
129.04745,129.11691,82,49,0
129.11691,129.18636,84,49,0
129.18636,129.2558,82,49,0
129.2558,129.32524,84,49,0
129.32524,129.39468,81,49,0
129.39468,129.46413,82,49,0
129.46413,129.74191,85,49,0
129.74191,129.8808,82,49,0
130.57524,130.99191,70,36,0
130.99191,131.06136,72,36,0
131.06136,131.1308,70,36,0
131.1308,131.54747,69,36,0
131.54747,131.61691,70,36,0
131.61691,131.68636,72,36,0
131.68636,131.96413,70,36,0
132.24191,133.35303,70,88,0
132.24191,133.35303,61,88,0
133.35303,133.42247,70,49,0
133.42247,133.49191,72,49,0
133.49191,133.56136,70,49,0
133.56136,133.6308,72,49,0
133.6308,133.70024,70,49,0
133.70024,133.76968,72,49,0
133.76968,133.83913,69,49,0
133.83913,133.90858,70,49,0
133.90858,134.18636,76,49,0
134.18636,134.32524,70,49,0
134.46413,134.53358,69,49,0
134.53358,134.60303,70,49,0
134.60303,134.67247,69,49,0
134.67247,134.74191,70,49,0
134.74191,134.81334,69,49,0
134.81334,134.88477,70,49,0
134.88477,134.95619,68,49,0
134.95619,135.02762,69,49,0
135.02762,135.32175,72,49,0
135.32175,135.47325,69,49,0
135.62477,135.70372,67,49,0
135.70372,135.78267,69,49,0
135.78267,135.86162,67,49,0
135.86162,135.94057,69,49,0
135.94057,136.02208,67,49,0
136.02208,136.1036,69,49,0
136.1036,136.18513,66,49,0
136.18513,136.26665,67,49,0
136.26665,136.60373,70,49,0
136.60373,136.77815,67,49,0
137.68427,138.51761,60,49,0
138.51761,138.79538,65,49,0
138.79538,139.35094,69,49,0
139.35094,139.9065,74,49,0
139.9065,140.73984,72,49,0
139.9065,140.73984,60,49,0
140.73984,141.01761,70,49,0
141.01761,141.57317,67,49,0
141.57317,142.12872,69,49,0
142.12872,143.23984,65,49,0
142.12872,143.23984,57,49,0
142.12872,143.23984,53,49,0
143.23984,144.35094,67,75,0
143.23984,144.35094,64,70,0
143.23984,144.35094,58,65,0
144.35094,144.62872,65,49,0
144.35094,144.62872,57,49,0
145.51158,145.82738,65,49,0
145.51158,145.82738,57,49,0
146.83937,149.63007,65,49,0
146.83937,149.63007,57,49,0
0.0,1.111112,60,36,0
0.0,1.111112,57,36,0
2.222224,3.333336,67,36,0
8.888896,10.000008,60,36,0
8.888896,10.000008,57,36,0
10.555564,11.11112,62,36,0
11.11112,12.222232,69,36,0
11.11112,12.222232,62,36,0
17.777792,18.888905,55,36,0
20.000015,21.111128,58,36,0
26.666689,27.7778,67,62,0
33.33336,34.444473,79,62,0
46.666702,47.777817,68,101,0
46.666702,47.777817,63,101,0
48.888927,50.00004,65,101,0
48.888927,50.00004,60,101,0
74.43293,75.87524,72,36,0
83.385925,84.77481,72,36,0
86.71926,87.135925,73,36,0
86.71926,87.135925,70,36,0
87.135925,87.27482,73,36,0
87.135925,87.27482,70,36,0
99.4,100.84231,65,36,0
106.130775,107.51967,65,36,0
115.575226,116.68634,74,36,0
116.68634,117.797455,72,36,0
117.797455,118.90856,72,36,0
126.68635,127.79746,76,36,0
127.79746,128.90857,75,36,0
128.90857,130.01968,75,36,0
130.57524,131.96413,67,36,0
132.24191,133.35303,58,75,0
133.35303,134.46413,61,36,0
134.46413,135.62477,60,36,0
135.62477,136.95256,60,36,0
137.68427,138.79538,60,36,0
137.68427,138.79538,57,36,0
139.9065,141.01761,64,36,0
0.0,0.833334,48,36,0
0.833334,1.111112,53,36,0
1.111112,1.666668,57,36,0
1.666668,2.222224,62,36,0
2.222224,3.055558,60,36,0
3.055558,3.333336,58,36,0
3.333336,3.888892,55,36,0
3.888892,4.444448,57,36,0
4.444448,5.55556,50,36,0
4.444448,5.55556,45,36,0
4.444448,5.55556,38,36,0
5.55556,6.666672,52,36,0
5.55556,6.666672,48,36,0
5.55556,6.666672,40,36,0
6.666672,6.94445,53,36,0
6.666672,6.94445,48,36,0
6.666672,6.94445,41,36,0
7.222228,7.638895,48,36,0
7.638895,7.7083397,49,36,0
7.7083397,7.777784,48,36,0
7.777784,8.194451,47,62,0
8.194451,8.263895,48,36,0
8.263895,8.33334,49,36,0
8.33334,8.611118,48,36,0
8.888896,9.72223,48,36,0
9.72223,10.000008,53,36,0
10.000008,10.555564,57,36,0
10.555564,11.11112,62,36,0
11.11112,12.222232,57,36,0
11.11112,12.222232,50,36,0
11.11112,12.222232,41,36,0
12.777788,13.333344,67,62,0
12.777788,13.333344,64,62,0
12.777788,13.333344,57,62,0
13.333344,14.444456,67,75,0
13.333344,14.444456,64,75,0
14.444456,15.000012,65,36,0
13.333344,15.000012,57,75,0
15.000012,15.555568,64,36,0
15.555568,15.833346,65,36,0
15.555568,15.833346,53,36,0
15.000012,15.833346,60,36,0
16.111124,16.52779,48,36,0
16.52779,16.597235,49,36,0
16.597235,16.66668,48,36,0
16.66668,17.083347,47,62,0
17.083347,17.152792,48,36,0
17.152792,17.222237,49,36,0
17.222237,17.500013,48,36,0
17.777792,18.611126,48,36,0
18.611126,18.888905,52,36,0
18.888905,19.44446,55,36,0
19.44446,20.000015,55,36,0
19.44446,20.000015,49,36,0
19.44446,20.000015,40,36,0
20.000015,20.83335,50,36,0
20.83335,21.111128,53,49,0
21.111128,21.666683,58,49,0
21.666683,22.22224,58,62,0
21.666683,22.22224,50,62,0
22.22224,23.333351,60,75,0
22.22224,23.333351,57,75,0
23.333351,23.888908,58,75,0
22.22224,23.888908,50,75,0
23.888908,24.444464,57,62,0
23.888908,24.444464,45,62,0
24.444464,25.555576,58,88,0
24.444464,25.555576,55,83,0
25.555576,26.111132,57,62,0
24.444464,26.111132,45,78,0
26.111132,26.666689,53,36,0
26.111132,26.666689,48,36,0
26.111132,26.666689,41,36,0
26.666689,27.500023,60,62,0
27.500023,27.7778,58,36,0
27.7778,28.333357,55,36,0
28.333357,28.888912,57,36,0
28.888912,30.000025,50,36,0
28.888912,30.000025,45,36,0
28.888912,30.000025,38,36,0
30.000025,31.111135,36,54,0
31.111135,31.388914,41,36,0
30.000025,31.388914,48,62,0
31.666693,32.08336,48,36,0
32.08336,32.152805,49,36,0
32.152805,32.222248,48,36,0
32.222248,32.638916,47,62,0
32.638916,32.70836,48,36,0
32.70836,32.777805,49,36,0
32.777805,33.05558,48,36,0
33.33336,34.166695,72,62,0
34.166695,34.444473,70,36,0
34.444473,35.000027,67,36,0
35.000027,35.555584,69,36,0
35.555584,36.666695,62,36,0
35.555584,36.666695,57,36,0
35.555584,36.666695,50,36,0
36.666695,37.77781,58,57,0
36.666695,37.77781,48,52,0
37.77781,38.055588,57,36,0
37.77781,38.055588,53,36,0
36.666695,38.055588,60,62,0
38.333363,38.75003,60,36,0
38.75003,38.819477,61,36,0
38.819477,38.88892,60,36,0
38.88892,39.305588,59,62,0
39.305588,39.37503,60,36,0
39.37503,39.444477,61,36,0
39.444477,39.722256,60,36,0
40.555588,40.972256,53,36,0
40.972256,41.0417,54,36,0
41.0417,41.111145,53,36,0
41.111145,41.52781,52,36,0
41.52781,41.597256,53,36,0
41.597256,41.6667,54,36,0
41.6667,42.083366,53,36,0
42.083366,42.152813,51,36,0
42.152813,42.222256,49,36,0
42.222256,42.638924,48,49,0
42.638924,42.708366,49,49,0
42.708366,42.777813,51,49,0
42.777813,43.19448,49,62,0
43.19448,43.263924,48,62,0
43.263924,43.333366,46,75,0
43.333366,43.750034,45,75,0
43.750034,43.81948,46,75,0
43.81948,43.888924,48,75,0
43.888924,44.30559,46,88,0
44.30559,44.375034,44,88,0
44.375034,44.44448,42,88,0
44.44448,45.55559,49,101,0
44.44448,45.55559,44,101,0
44.44448,45.55559,41,101,0
45.55559,46.666702,37,101,0
46.666702,46.85189,32,101,0
46.84726,47.032444,39,101,0
47.037075,47.05559,39,101,0
47.22226,47.407444,39,101,0
47.402817,47.588,44,101,0
47.592632,47.61115,44,101,0
47.777817,48.888927,46,101,0
48.888927,49.074112,29,101,0
49.069485,49.25467,36,101,0
49.2593,49.277817,36,101,0
49.444485,49.62967,36,101,0
49.62504,49.810226,41,101,0
49.814854,49.833374,41,101,0
50.00004,51.111153,42,101,0
51.111153,51.180595,42,101,0
51.180595,51.250042,44,101,0
51.250042,51.319485,42,101,0
51.319485,51.38893,44,101,0
51.38893,51.458374,42,101,0
51.458374,51.52782,44,101,0
51.52782,51.597263,42,101,0
51.597263,51.66671,44,101,0
51.66671,51.736153,42,101,0
51.736153,51.805595,44,101,0
51.805595,51.875042,42,101,0
51.875042,51.944485,44,101,0
51.944485,52.01393,42,101,0
52.01393,52.083374,44,101,0
52.083374,52.15282,42,101,0
52.15282,52.222263,44,101,0
52.222263,52.29171,42,101,0
52.29171,52.361153,44,101,0
52.361153,52.4306,42,101,0
52.4306,52.500042,44,101,0
52.500042,52.569485,42,101,0
52.569485,52.63893,44,101,0
52.63893,52.708374,42,101,0
52.708374,52.77782,44,101,0
52.77782,52.847263,42,101,0
52.847263,52.91671,44,101,0
52.91671,52.986153,42,101,0
52.986153,53.0556,44,101,0
53.0556,53.125042,42,101,0
53.125042,53.19449,44,101,0
53.19449,53.26393,42,101,0
53.26393,53.333378,44,101,0
53.333378,53.518562,42,101,0
53.333378,53.518562,30,101,0
53.51393,53.699116,29,101,0
53.51393,53.699116,41,101,0
53.703747,53.722263,41,101,0
53.703747,53.722263,29,101,0
53.88893,54.44449,42,101,0
53.88893,54.44449,30,101,0
54.44449,54.629673,42,101,0
54.44449,54.629673,30,101,0
54.625042,54.81023,29,101,0
54.625042,54.81023,41,101,0
54.814857,54.833378,41,101,0
54.814857,54.833378,29,101,0
55.000046,55.5556,42,101,0
55.000046,55.5556,30,101,0
55.5556,55.740784,44,101,0
55.5556,55.740784,32,101,0
55.736156,55.92134,31,101,0
55.736156,55.92134,43,101,0
55.925972,55.94449,43,101,0
55.925972,55.94449,31,101,0
56.111156,56.666714,55,101,0
56.111156,56.666714,43,101,0
56.666714,56.8519,44,101,0
56.666714,56.8519,32,101,0
56.847267,57.03245,31,101,0
56.847267,57.03245,43,101,0
57.037083,57.055603,43,101,0
57.037083,57.055603,31,101,0
57.222267,57.777824,55,101,0
57.222267,57.777824,43,101,0
57.777824,57.96301,43,101,0
57.958378,57.96301,43,101,0
57.777824,57.96301,31,101,0
57.958378,58.143566,55,101,0
58.148193,58.166714,55,101,0
58.148193,58.166714,43,101,0
58.33338,58.518566,43,101,0
58.513935,58.518566,43,101,0
58.33338,58.518566,31,101,0
58.513935,58.69912,55,101,0
58.70375,58.72227,55,101,0
58.70375,58.72227,43,101,0
58.888935,59.07412,43,101,0
59.069492,59.07412,43,101,0
58.888935,59.07412,31,101,0
59.069492,59.254677,55,101,0
59.259308,59.277824,55,101,0
59.259308,59.277824,43,101,0
59.444492,59.629677,43,101,0
59.62505,59.629677,43,101,0
59.444492,59.629677,31,101,0
59.62505,59.810234,55,101,0
59.81486,59.83338,55,101,0
59.81486,59.83338,43,101,0
60.00005,60.185234,43,101,0
60.180603,60.185234,43,101,0
60.00005,60.185234,31,101,0
60.180603,60.365788,55,101,0
60.37042,60.38894,55,101,0
60.37042,60.38894,43,101,0
60.555603,60.740788,43,101,0
60.73616,60.740788,43,101,0
60.555603,60.740788,31,101,0
60.73616,60.921345,55,101,0
60.925976,60.944492,55,101,0
60.925976,60.944492,43,101,0
61.11116,61.296345,43,101,0
61.291718,61.296345,43,101,0
61.11116,61.296345,31,101,0
61.291718,61.476902,55,101,0
61.48153,61.50005,55,101,0
61.48153,61.50005,43,101,0
61.666718,61.851902,43,101,0
61.84727,61.851902,43,101,0
61.666718,61.851902,31,101,0
61.84727,62.032455,55,101,0
62.037086,62.055607,55,101,0
62.037086,62.055607,43,101,0
62.22227,62.50005,43,101,0
62.22227,62.50005,31,101,0
64.444496,65.60513,65,49,0
64.444496,65.60513,62,49,0
65.60513,66.24701,64,49,0
65.60513,66.24701,60,49,0
66.24701,66.93293,62,49,0
66.24701,66.93293,55,49,0
66.93293,67.79831,55,36,0
67.79831,68.08678,60,36,0
68.08678,68.6637,64,36,0
68.6637,69.24062,69,36,0
69.24062,70.106,67,36,0
69.19254,70.106,55,36,0
69.14447,70.106,47,36,0
70.106,70.39447,65,36,0
70.39447,70.97139,62,36,0
70.97139,71.54831,64,36,0
71.54831,72.702156,60,36,0
71.452156,72.702156,45,36,0
71.50024,72.702156,52,36,0
72.702156,73.856,65,36,0
72.65408,73.856,55,36,0
73.80793,73.856,55,36,0
72.606,73.856,47,36,0
73.856,74.14446,64,36,0
73.75985,74.14446,48,36,0
74.43293,75.00985,67,36,0
75.00985,75.58678,69,36,0
75.00985,75.58678,66,36,0
75.58678,75.87524,67,36,0
76.1637,76.99703,55,36,0
76.99703,77.27481,60,36,0
77.27481,77.83037,64,36,0
77.83037,78.38592,69,36,0
77.784065,78.38592,60,36,0
77.73777,78.38592,48,36,0
78.38592,79.21925,57,62,0
79.21925,79.49703,60,75,0
79.49703,80.05259,64,75,0
80.05259,80.071106,62,75,0
80.05259,80.071106,59,75,0
80.05259,80.071106,52,75,0
80.23315,80.25166,62,75,0
80.23315,80.25166,59,75,0
80.23315,80.25166,52,75,0
80.42296,80.441475,62,75,0
80.42296,80.441475,59,75,0
80.42296,80.441475,52,75,0
80.60815,81.71925,62,101,0
80.60815,81.71925,59,96,0
80.60815,81.71925,52,91,0
81.71925,82.27481,60,36,0
81.71925,82.27481,52,36,0
82.27481,82.83037,59,36,0
82.27481,82.83037,55,36,0
82.83037,83.10815,60,36,0
83.385925,83.94148,67,36,0
83.94148,84.49704,69,36,0
83.94148,84.49704,66,36,0
84.49704,84.77481,67,36,0
85.05259,85.885925,48,36,0
85.885925,86.163704,52,36,0
86.163704,86.71926,55,36,0
86.71926,87.27482,58,36,0
86.672966,87.27482,49,36,0
86.62667,87.27482,40,36,0
87.27482,88.108154,50,36,0
88.108154,88.385925,53,49,0
88.385925,88.94148,58,49,0
88.94148,88.96001,58,62,0
88.94148,88.96001,50,62,0
89.12204,89.14056,58,62,0
89.12204,89.14056,50,62,0
89.31185,89.330376,58,62,0
89.31185,89.330376,50,62,0
89.49704,90.608154,60,75,0
89.49704,90.608154,57,75,0
89.49704,90.608154,50,75,0
90.608154,91.16371,58,36,0
90.608154,91.16371,50,36,0
91.16371,91.71926,57,36,0
91.16371,91.71926,53,36,0
91.16371,91.71926,45,36,0
91.71926,92.879906,58,101,0
91.71926,92.879906,55,96,0
91.71926,92.879906,45,91,0
92.879906,93.52178,57,36,0
92.879906,93.52178,53,36,0
92.879906,93.52178,45,36,0
93.52178,94.207695,53,36,0
93.52178,94.207695,41,36,0
93.52178,94.207695,48,36,0
94.14956,94.207695,48,36,0
94.207695,95.07308,60,36,0
94.091415,95.07308,40,36,0
95.07308,95.36154,58,36,0
95.36154,95.93847,55,36,0
95.93847,96.51539,57,36,0
96.51539,97.669235,53,36,0
96.419235,97.669235,38,36,0
96.467316,97.669235,45,36,0
97.669235,98.82308,55,36,0
97.57308,98.82308,40,36,0
97.621155,98.82308,48,36,0
98.82308,99.11154,57,36,0
98.82308,99.11154,48,36,0
98.82308,99.11154,41,36,0
99.4,99.97693,60,36,0
99.97693,100.55385,62,36,0
99.97693,100.55385,59,36,0
100.55385,100.84231,60,36,0
101.130775,101.9641,72,62,0
101.9641,102.24188,70,36,0
102.24188,102.79744,67,36,0
102.79744,103.353,69,36,0
103.353,104.46411,65,36,0
103.353,104.46411,57,36,0
103.353,104.46411,50,36,0
104.46411,105.57522,64,36,0
104.46411,105.57522,58,36,0
104.46411,105.57522,48,36,0
105.57522,105.853,65,36,0
105.57522,105.853,57,36,0
105.57522,105.853,53,36,0
106.130775,106.68633,60,36,0
106.68633,107.24189,62,36,0
106.68633,107.24189,59,36,0
107.24189,107.51967,60,36,0
108.353004,108.76967,60,36,0
108.76967,108.83911,61,36,0
108.83911,108.908554,60,36,0
108.908554,109.325226,59,62,0
109.325226,109.39467,60,36,0
109.39467,109.46411,61,36,0
109.46411,109.74189,60,36,0
110.01967,110.43633,59,49,0
110.43633,110.50578,60,49,0
110.50578,110.575226,61,49,0
110.575226,110.99189,60,62,0
110.99189,111.06133,58,62,0
111.06133,111.13078,56,75,0
111.13078,111.54745,55,75,0
111.54745,111.61689,56,75,0
111.61689,111.68634,58,62,0
111.68634,112.103004,56,62,0
112.103004,112.17245,55,62,0
112.17245,112.24189,53,62,0
112.24189,114.46412,57,36,0
112.24189,114.46412,53,36,0
112.24189,114.46412,48,36,0
114.46412,116.68634,55,101,0
114.46412,116.68634,52,101,0
116.68634,117.797455,53,36,0
114.46412,117.797455,45,101,0
117.797455,118.90856,58,36,0
117.797455,118.90856,52,36,0
117.797455,118.90856,48,36,0
119.46412,119.88079,60,36,0
119.88079,119.95023,61,36,0
119.95023,120.01968,60,36,0
120.01968,120.43634,59,62,0
120.43634,120.50579,60,36,0
120.50579,120.57523,61,36,0
120.57523,120.85301,60,36,0
121.13079,121.547455,59,49,0
121.547455,121.6169,60,49,0
121.6169,121.68635,61,49,0
121.68635,122.10301,60,62,0
122.10301,122.172455,58,62,0
122.172455,122.2419,56,75,0
122.2419,122.65857,55,75,0
122.65857,122.72801,56,75,0
122.72801,122.797455,58,62,0
122.797455,123.21413,56,62,0
123.21413,123.28357,55,62,0
123.28357,123.35301,53,62,0
123.35301,125.57523,60,75,0
123.35301,125.57523,56,75,0
123.35301,125.57523,51,75,0
125.57523,127.79746,58,101,0
125.57523,127.79746,55,101,0
125.57523,127.79746,48,101,0
127.79746,128.90857,56,36,0
127.79746,128.90857,48,36,0
128.90857,130.01968,61,36,0
128.90857,130.01968,55,36,0
128.90857,130.01968,51,36,0
130.57524,131.96413,61,36,0
130.57524,131.96413,52,36,0
132.24191,134.46413,55,75,0
132.24191,134.46413,52,75,0
134.46413,135.62477,53,75,0
132.24191,135.62477,45,75,0
135.62477,136.95256,58,75,0
135.62477,136.95256,52,75,0
135.62477,136.95256,48,75,0
137.68427,138.51761,48,75,0
138.51761,138.79538,53,75,0
138.79538,139.35094,57,75,0
139.35094,139.9065,62,75,0
140.73984,141.01761,58,75,0
141.01761,141.57317,55,75,0
141.57317,142.12872,57,75,0
142.12872,143.23984,50,75,0
142.12872,143.23984,45,75,0
142.12872,143.23984,38,75,0
143.23984,144.35094,36,93,0
144.35094,144.62872,41,75,0
143.23984,144.62872,48,101,0
145.51158,145.82738,48,75,0
145.51158,145.82738,41,75,0
146.83937,149.63007,48,75,0
146.83937,149.63007,41,75,0
0.0,1.111112,48,36,0
0.0,1.111112,41,36,0
2.222224,3.333336,55,36,0
2.222224,3.333336,48,36,0
2.222224,3.333336,40,36,0
8.888896,10.000008,48,36,0
8.888896,10.000008,41,36,0
10.555564,11.11112,50,36,0
10.555564,11.11112,41,36,0
17.777792,18.888905,48,36,0
17.777792,18.888905,40,36,0
20.000015,21.111128,41,36,0
26.666689,27.7778,55,62,0
26.666689,27.7778,48,57,0
26.666689,27.7778,40,52,0
33.33336,34.444473,67,62,0
33.33336,34.444473,60,57,0
33.33336,34.444473,52,52,0
66.93293,68.08678,52,36,0
66.93293,68.08678,48,36,0
74.43293,75.87524,60,36,0
76.1637,77.27481,52,36,0
76.1637,77.27481,48,36,0
78.38592,79.49703,52,36,0
78.38592,79.49703,48,36,0
83.385925,84.77481,60,36,0
85.05259,86.163704,48,36,0
85.05259,86.163704,40,36,0
87.27482,88.385925,50,36,0
87.27482,88.385925,41,36,0
99.4,100.84231,53,36,0
101.130775,102.24188,60,36,0
101.130775,102.24188,52,36,0
106.130775,107.51967,53,36,0
137.68427,138.79538,48,36,0
137.68427,138.79538,41,36,0
139.9065,141.01761,55,36,0
139.8602,141.01761,46,36,0
139.8139,141.01761,36,36,0
