start_time,end_time,note_value,velocity,instrument_program_number
0.0,0.106383,69,49,0
0.10372342,0.21010643,71,49,0
0.212766,0.319149,72,49,0
0.319149,0.425532,71,49,0
0.42287242,0.52925545,72,49,0
0.531915,0.638298,74,49,0
0.638298,0.957447,76,75,0
0.957447,1.06383,69,49,0
1.0611705,1.1675534,71,49,0
1.170213,1.276596,72,49,0
1.276596,1.382979,71,49,0
1.3803195,1.4867024,72,49,0
1.489362,1.595745,74,49,0
1.595745,1.914894,76,75,0
1.914894,2.021277,69,49,0
2.0186174,2.1250005,71,49,0
2.12766,2.234043,72,49,0
2.234043,2.340426,71,49,0
2.3377664,2.4441495,72,49,0
2.446809,2.553192,74,49,0
2.553192,2.659575,72,49,0
2.6569154,2.7632985,74,49,0
2.765958,2.872341,76,49,0
2.872341,2.978724,77,49,0
2.9760644,3.0824475,79,49,0
3.085107,3.19149,81,49,0
3.19149,3.297873,79,49,0
3.2952135,3.4015963,77,49,0
3.404256,3.510639,76,49,0
3.510639,3.617022,74,49,0
3.6143625,3.7207453,72,49,0
3.723405,3.829788,71,49,0
3.829788,3.936171,69,49,0
3.9335115,4.0398946,71,49,0
4.042554,4.148937,72,49,0
4.148937,4.25532,71,49,0
4.2526603,4.3590436,69,49,0
4.361703,4.468086,67,49,0
4.468086,4.574469,65,49,0
4.5718093,4.6781926,64,49,0
4.680852,4.787235,63,49,0
4.787235,5.106384,64,75,0
5.425533,5.531916,59,75,0
5.5292563,5.635639,61,49,0
5.638299,5.744682,63,49,0
5.744682,5.851065,64,49,0
5.8484054,5.954788,66,49,0
5.957448,6.063831,68,49,0
6.063831,6.38298,69,75,0
6.38298,6.489363,59,75,0
6.4867034,6.5930862,61,49,0
6.595746,6.702129,63,49,0
6.702129,6.808512,64,49,0
6.8058524,6.9122353,66,49,0
6.914895,7.021278,68,49,0
7.021278,7.340427,69,75,0
7.340427,7.44681,59,75,0
7.4441504,7.5505333,61,49,0
7.553193,7.659576,63,49,0
7.659576,7.765959,64,49,0
7.7632995,7.8696823,66,49,0
7.872342,7.978725,68,49,0
7.978725,8.085108,66,49,0
8.082448,8.188831,68,49,0
8.191491,8.297874,69,49,0
8.297874,8.404257,68,62,0
8.401597,8.50798,69,62,0
8.51064,8.617023,71,62,0
8.617023,8.723406,69,62,0
8.720746,8.827129,71,62,0
8.829789,8.936172,72,62,0
8.936172,9.042555,71,75,0
9.039895,9.146278,72,75,0
9.148938,9.255321,74,75,0
9.255321,9.361704,72,75,0
9.359044,9.465427,74,75,0
9.468087,9.57447,76,75,0
9.57447,9.680853,77,88,0
9.678193,9.784576,76,88,0
9.787236,9.893619,74,88,0
9.893619,10.000002,77,88,0
9.997342,10.103725,76,88,0
10.106385,10.212768,74,88,0
10.212768,10.319151,77,88,0
10.316491,10.422874,76,88,0
10.425534,10.531917,74,88,0
10.531917,10.6383,77,101,0
10.63564,10.742023,76,101,0
10.744683,10.851066,74,101,0
10.851066,10.957449,77,101,0
10.954789,11.0611725,76,101,0
11.063832,11.170215,74,101,0
11.170215,11.276598,77,101,0
11.273938,11.3803215,76,101,0
11.382981,11.489364,74,101,0
11.489364,11.595747,77,114,0
11.593087,11.6994705,76,114,0
11.70213,11.808513,74,114,0
11.808513,11.914896,77,101,0
11.912236,12.01862,76,101,0
12.021279,12.127662,74,101,0
12.127662,12.234045,77,88,0
12.231385,12.340014,76,88,0
12.342792,12.453903,74,88,0
12.453903,12.570182,77,75,0
12.567275,12.686249,76,75,0
12.689297,12.811249,74,75,0
12.811249,12.939453,76,62,0
12.936249,13.067745,74,62,0
13.071123,13.206259,72,62,0
13.206259,13.349115,74,49,0
13.345544,13.492514,72,49,0
13.496302,13.647817,71,49,0
13.647817,13.758927,69,49,0
13.756149,13.867261,71,49,0
13.870038,13.98115,72,49,0
13.98115,14.09226,71,49,0
14.089482,14.200594,72,49,0
14.203371,14.314483,74,49,0
14.314483,14.647816,76,75,0
14.647816,14.758926,69,49,0
14.756148,14.86726,71,49,0
14.870037,14.981149,72,49,0
14.981149,15.092259,71,49,0
15.089481,15.200593,72,49,0
15.20337,15.314482,74,49,0
15.314482,15.647815,76,75,0
15.647815,15.758925,69,49,0
15.756147,15.867259,71,49,0
15.870036,15.981148,72,49,0
15.981148,16.092258,71,49,0
16.089481,16.200592,72,49,0
16.20337,16.31448,74,49,0
16.31448,16.425592,72,49,0
16.422813,16.533924,74,49,0
16.536703,16.647814,76,49,0
16.647814,16.758924,77,49,0
16.756147,16.867258,79,49,0
16.870035,16.981146,81,49,0
16.981146,17.092258,79,49,0
17.08948,17.20059,77,49,0
17.20337,17.31448,76,49,0
17.31448,17.42559,74,49,0
17.422813,17.533924,72,49,0
17.536701,17.647812,71,49,0
17.647812,17.758923,69,49,0
17.756145,17.867256,71,49,0
17.870035,17.981146,72,49,0
17.981146,18.092257,71,49,0
18.08948,18.20059,69,49,0
18.203367,18.314478,67,49,0
18.314478,18.425589,65,49,0
18.422812,18.533922,64,49,0
18.536701,18.647812,63,49,0
18.647812,18.758923,64,49,0
18.756145,18.867256,66,49,0
18.870033,18.981144,67,49,0
18.981144,19.314478,69,75,0
19.314478,19.425589,59,75,0
19.422812,19.533922,61,49,0
19.5367,19.64781,63,49,0
19.64781,19.75892,64,49,0
19.756144,19.867254,66,49,0
19.870033,19.981144,67,49,0
19.981144,20.314476,69,75,0
20.314476,20.425587,59,75,0
20.42281,20.53392,61,49,0
20.5367,20.64781,63,49,0
20.64781,20.75892,64,49,0
20.756144,20.867254,66,49,0
20.870031,20.981142,67,49,0
20.981142,21.092253,66,49,0
21.089476,21.200586,67,49,0
21.203365,21.314476,69,49,0
21.314476,21.425587,67,62,0
21.42281,21.53392,69,62,0
21.536697,21.647808,71,62,0
21.647808,21.758919,69,62,0
21.756142,21.867252,71,62,0
21.870031,21.981142,72,62,0
21.981142,22.092253,71,75,0
22.089476,22.200586,72,75,0
22.203363,22.314474,74,75,0
22.314474,22.425585,72,75,0
22.422808,22.533918,74,75,0
22.536697,22.647808,76,75,0
22.647808,22.758919,65,101,0
22.756142,22.867252,70,101,0
22.87003,22.98114,74,101,0
22.98114,23.09225,77,101,0
23.089474,23.200584,82,101,0
23.203363,23.314474,86,101,0
23.314474,23.425585,89,101,0
23.422806,23.533918,94,101,0
23.536695,23.647806,98,101,0
23.647806,23.814472,101,101,0
23.98114,24.014473,76,127,0
23.98114,24.014473,64,115,0
23.98114,24.014473,69,119,0
23.98114,24.014473,72,123,0
24.314472,24.347805,76,127,0
24.314472,24.347805,64,115,0
24.314472,24.347805,68,119,0
24.314472,24.347805,71,123,0
24.647806,24.758917,69,75,0
24.756138,24.86725,71,75,0
24.870028,24.981138,72,75,0
24.981138,25.314472,74,75,0
25.314472,25.425583,64,75,0
25.422804,25.533916,66,75,0
25.536694,25.647804,68,75,0
25.647804,25.758915,69,75,0
25.756138,25.867249,71,75,0
25.870026,25.981138,72,75,0
25.981138,26.31447,74,75,0
26.31447,26.425581,64,75,0
26.422804,26.533915,66,75,0
26.536692,26.647804,68,75,0
26.647804,26.758915,69,75,0
26.756136,26.867249,71,75,0
26.870026,26.981136,72,75,0
26.981136,27.092247,71,88,0
27.08947,27.20058,72,88,0
27.203358,27.31447,74,88,0
27.31447,27.425581,72,88,0
27.422802,27.533915,74,88,0
27.536692,27.647802,76,88,0
27.647802,27.758913,65,101,0
27.756136,27.867247,70,101,0
27.870024,27.981136,74,101,0
27.981136,28.092247,77,101,0
28.089468,28.20058,82,101,0
28.203358,28.314468,86,101,0
28.314468,28.42558,89,101,0
28.422802,28.533913,94,101,0
28.53669,28.647802,98,101,0
28.647802,28.814468,101,101,0
28.981134,29.014467,76,127,0
28.981134,29.014467,64,115,0
28.981134,29.014467,69,119,0
28.981134,29.014467,72,123,0
29.314468,29.347801,76,127,0
29.314468,29.347801,64,115,0
29.314468,29.347801,68,119,0
29.314468,29.347801,71,123,0
29.6478,30.6478,81,101,0
29.6478,30.6478,69,101,0
29.6478,30.6478,72,101,0
29.6478,30.6478,76,101,0
30.6478,30.664467,76,101,0
30.6478,30.664467,68,101,0
30.814466,30.831133,75,101,0
30.814466,30.831133,69,101,0
30.981133,30.997799,76,101,0
30.981133,30.997799,68,101,0
31.147799,31.164465,75,101,0
31.147799,31.164465,69,101,0
31.314465,31.331133,76,101,0
31.314465,31.331133,68,101,0
31.647799,32.647797,77,114,0
31.647799,32.647797,65,114,0
31.647799,32.647797,69,114,0
31.647799,32.647797,72,114,0
32.647797,32.664463,72,114,0
32.647797,32.664463,64,114,0
32.814465,32.83113,71,114,0
32.814465,32.83113,65,114,0
32.98113,32.9978,72,114,0
32.98113,32.9978,64,114,0
33.147797,33.164463,71,114,0
33.147797,33.164463,65,114,0
33.314465,33.33113,72,114,0
33.314465,33.33113,64,114,0
33.647797,34.31446,74,114,0
33.647797,34.31446,62,114,0
33.647797,34.31446,65,114,0
33.647797,34.31446,71,114,0
34.31446,34.347797,72,127,0
34.31446,34.347797,60,127,0
34.31446,34.347797,64,127,0
34.31446,34.347797,69,127,0
34.647797,34.68113,70,127,0
34.647797,34.68113,58,127,0
34.647797,34.68113,62,127,0
34.647797,34.68113,65,127,0
34.98113,35.01446,77,127,0
34.98113,35.01446,65,127,0
34.98113,35.01446,68,127,0
34.98113,35.01446,74,127,0
35.31446,35.347794,76,127,0
35.31446,35.347794,64,127,0
35.31446,35.347794,69,127,0
35.31446,35.347794,72,127,0
35.647793,35.68113,74,127,0
35.647793,35.68113,71,127,0
35.647793,35.68113,65,127,0
35.98113,36.01446,72,127,0
35.98113,36.01446,69,127,0
35.98113,36.01446,64,127,0
36.31446,36.347794,71,127,0
36.31446,36.347794,68,127,0
36.31446,36.347794,64,127,0
36.647793,36.81446,69,114,0
36.81446,36.897793,71,114,0
36.897793,36.981125,72,114,0
36.981125,37.06446,74,114,0
37.06446,37.147793,76,114,0
37.147793,37.231125,78,114,0
37.231125,37.31446,80,114,0
37.31446,37.397793,81,114,0
37.397793,37.481125,83,114,0
37.481125,37.56446,84,114,0
37.56446,37.647793,86,114,0
37.647793,37.66446,88,114,0
37.647793,37.66446,76,114,0
37.81446,37.831127,87,114,0
37.81446,37.831127,75,114,0
37.981125,37.99779,88,114,0
37.981125,37.99779,76,114,0
38.147793,38.16446,87,114,0
38.147793,38.16446,75,114,0
38.314457,38.331123,88,114,0
38.314457,38.331123,76,114,0
38.647793,38.814457,65,114,0
38.814457,38.897793,67,114,0
38.897793,38.981125,69,114,0
38.981125,39.064457,70,114,0
39.064457,39.147793,72,114,0
39.147793,39.231125,74,114,0
39.231125,39.314457,76,114,0
39.314457,39.39779,77,114,0
39.39779,39.481125,79,114,0
39.481125,39.564457,81,114,0
39.564457,39.64779,82,114,0
39.64779,39.664455,84,114,0
39.64779,39.664455,72,114,0
39.814457,39.831123,83,114,0
39.814457,39.831123,71,114,0
39.981125,39.99779,84,114,0
39.981125,39.99779,72,114,0
40.14779,40.164455,83,114,0
40.14779,40.164455,71,114,0
40.314457,40.331123,84,114,0
40.314457,40.331123,72,114,0
40.64779,40.73112,71,114,0
40.73112,40.814457,72,114,0
40.814457,40.89779,74,114,0
40.89779,40.98112,76,114,0
40.98112,41.064457,77,114,0
41.064457,41.14779,83,114,0
41.14779,41.23112,86,114,0
41.23112,41.314457,89,114,0
41.314457,41.48112,88,114,0
41.64779,41.73112,70,114,0
41.73112,41.814453,74,114,0
41.814453,41.89779,77,114,0
41.89779,41.98112,82,114,0
41.98112,42.064453,74,114,0
42.064453,42.14779,77,114,0
42.14779,42.23112,80,114,0
42.23112,42.314453,86,114,0
42.314453,42.39779,72,114,0
42.39779,42.48112,76,114,0
42.48112,42.564453,81,114,0
42.564453,42.64779,84,114,0
42.64779,42.73112,71,114,0
42.73112,42.814453,74,114,0
42.814453,42.89779,77,114,0
42.89779,42.98112,83,114,0
42.98112,43.064453,69,114,0
43.064453,43.147785,72,114,0
43.147785,43.23112,76,114,0
43.23112,43.314453,81,114,0
43.314453,43.397785,68,114,0
43.397785,43.48112,71,114,0
43.48112,43.564453,76,114,0
43.564453,43.647785,80,114,0
43.647785,43.814453,57,114,0
43.814453,43.897785,59,114,0
43.897785,43.98112,60,114,0
43.98112,44.064453,62,114,0
44.064453,44.147785,64,114,0
44.147785,44.23112,66,114,0
44.23112,44.314453,68,114,0
44.314453,44.397785,69,114,0
44.397785,44.481117,71,114,0
44.481117,44.564453,72,114,0
44.564453,44.647785,74,114,0
44.647785,44.731117,76,114,0
44.731117,44.814453,77,114,0
44.814453,44.897785,79,114,0
44.897785,44.981117,81,114,0
44.981117,45.01445,82,114,0
45.981117,46.01445,79,114,0
46.981117,47.01445,76,88,0
47.981117,48.01445,73,49,0
48.981113,49.014446,72,49,0
49.981113,50.814445,69,36,0
50.814445,50.897778,70,36,0
50.897778,50.981113,69,36,0
50.981113,51.314445,67,36,0
51.314445,51.647778,70,36,0
51.647778,51.98111,73,36,0
51.98111,52.647778,72,36,0
52.647778,52.98111,69,36,0
52.98111,53.647778,72,36,0
53.647778,53.98111,70,36,0
53.98111,54.81444,69,36,0
54.81444,54.897774,70,36,0
54.897774,54.98111,69,36,0
54.98111,55.31444,67,36,0
55.31444,55.647774,70,36,0
55.647774,55.981106,73,36,0
55.981106,56.647774,72,36,0
56.647774,56.981106,69,36,0
56.981106,57.647774,72,36,0
57.647774,57.981106,70,36,0
57.981106,58.64777,73,36,0
58.64777,58.981106,70,36,0
58.981106,59.64777,74,49,0
59.64777,59.981102,70,49,0
59.981102,60.314438,69,62,0
60.314438,60.64777,78,62,0
60.64777,60.981102,77,62,0
60.981102,61.64777,75,75,0
61.64777,61.981102,74,75,0
61.981102,62.314434,69,75,0
62.314434,62.647766,75,75,0
62.647766,62.981102,74,75,0
62.981102,63.647766,72,62,0
63.647766,63.9811,70,62,0
63.9811,64.647766,72,49,0
64.647766,64.9811,70,49,0
64.9811,65.647766,72,49,0
65.647766,65.981094,69,49,0
65.981094,66.31443,73,75,0
66.31443,66.481094,72,49,0
66.481094,66.647766,70,49,0
66.647766,66.81443,69,49,0
66.81443,66.981094,67,49,0
66.981094,67.481094,65,36,0
67.481094,67.647766,67,36,0
67.647766,67.81443,69,36,0
67.81443,67.981094,70,36,0
67.981094,68.31443,69,62,0
68.31443,68.64776,78,62,0
68.64776,68.981094,77,62,0
68.981094,69.64776,75,75,0
69.64776,69.981094,74,75,0
69.981094,70.31443,69,75,0
70.31443,70.64776,75,75,0
70.64776,70.981094,74,75,0
70.981094,71.64776,72,62,0
71.64776,71.981094,70,62,0
71.981094,72.64776,72,49,0
72.64776,72.98109,70,49,0
72.98109,73.64776,72,49,0
73.64776,73.98109,69,49,0
73.98109,74.31442,73,75,0
74.31442,74.48109,72,49,0
74.48109,74.64776,70,49,0
74.64776,74.81442,69,49,0
74.81442,74.98109,67,49,0
74.98109,75.31442,65,49,0
74.98109,75.31442,57,49,0
75.98109,76.98109,69,36,0
75.98109,76.98109,60,36,0
76.98109,78.114395,69,36,0
76.98109,78.114395,64,36,0
76.98109,78.114395,60,36,0
78.114395,79.61809,68,36,0
78.114395,79.61809,64,36,0
78.114395,79.61809,59,36,0
79.61809,79.724464,69,36,0
79.72181,79.82819,71,36,0
79.83085,79.93723,72,36,0
79.93723,80.04362,71,36,0
80.040955,80.14734,72,36,0
80.15,80.256386,74,36,0
80.256386,80.57553,76,62,0
80.57553,80.681915,69,36,0
80.67925,80.78564,71,36,0
80.7883,80.89468,72,36,0
80.89468,81.00106,71,49,0
80.998405,81.10479,72,49,0
81.107445,81.21383,74,49,0
81.21383,81.532974,76,75,0
81.532974,81.63936,69,49,0
81.6367,81.74309,71,49,0
81.74574,81.85213,72,49,0
81.85213,81.95851,71,49,0
81.95585,82.06223,72,49,0
82.064896,82.17127,74,49,0
82.17127,82.27766,72,49,0
82.275,82.381386,74,49,0
82.38404,82.490425,76,49,0
82.490425,82.59681,77,49,0
82.59415,82.70053,79,49,0
82.70319,82.80957,81,49,0
82.80957,82.915955,79,49,0
82.9133,83.019684,77,49,0
83.02234,83.12872,76,49,0
83.12872,83.23511,74,49,0
83.232445,83.33883,72,49,0
83.34149,83.44787,71,49,0
83.44787,83.55425,69,49,0
83.5516,83.65798,71,49,0
83.66064,83.76702,72,49,0
83.76702,83.873405,71,49,0
83.87074,83.97713,69,49,0
83.97979,84.08617,67,49,0
84.08617,84.19255,65,49,0
84.189896,84.29628,64,49,0
84.298935,84.40532,63,49,0
84.40532,84.724464,64,75,0
85.04362,85.15,59,75,0
85.14734,85.25372,61,49,0
85.256386,85.36276,63,49,0
85.36276,85.46915,64,49,0
85.46649,85.572876,66,49,0
85.57553,85.681915,68,49,0
85.681915,86.00106,69,75,0
86.00106,86.107445,59,75,0
86.10479,86.211174,61,49,0
86.21383,86.32021,63,49,0
86.32021,86.4266,64,49,0
86.423935,86.53032,66,49,0
86.53298,86.63936,68,49,0
86.63936,86.95851,69,75,0
86.95851,87.064896,59,75,0
87.06223,87.16862,61,49,0
87.17128,87.27766,63,49,0
87.27766,87.38404,64,49,0
87.381386,87.48777,66,49,0
87.490425,87.59681,68,49,0
87.59681,87.70319,66,49,0
87.70053,87.806915,68,49,0
87.80958,87.915955,69,49,0
87.915955,88.02234,68,62,0
88.019684,88.12607,69,62,0
88.12872,88.23511,71,62,0
88.23511,88.34149,69,62,0
88.33883,88.44521,71,62,0
88.447876,88.55425,72,62,0
88.55425,88.66064,71,75,0
88.65798,88.764366,72,75,0
88.76702,88.873405,74,75,0
88.873405,88.97979,72,75,0
88.97713,89.08351,74,75,0
89.086174,89.19255,76,75,0
89.19255,89.298935,77,88,0
89.29628,89.402664,76,88,0
89.40532,89.5117,74,88,0
89.5117,89.61809,77,88,0
89.615425,89.72181,76,88,0
89.72447,89.83085,74,88,0
89.83085,89.93723,77,88,0
89.93458,90.04096,76,88,0
90.04362,90.15,74,88,0
90.15,90.256386,77,101,0
90.25372,90.36011,76,101,0
90.36277,90.46915,74,101,0
90.46915,90.57553,77,101,0
90.572876,90.67925,76,101,0
90.681915,90.7883,74,101,0
90.7883,90.894684,77,101,0
90.89202,90.998405,76,101,0
91.00107,91.107445,74,101,0
91.107445,91.21383,77,114,0
91.211174,91.31755,75,114,0
91.32021,91.4266,74,114,0
91.4266,91.53298,77,101,0
91.53032,91.6367,75,101,0
91.639366,91.74574,74,101,0
91.74574,91.85213,77,88,0
91.84947,91.95585,75,88,0
91.95851,92.064896,74,88,0
92.064896,92.17128,80,75,0
92.16862,92.275,79,75,0
92.277664,92.38404,77,75,0
92.38404,92.490425,79,62,0
92.48777,92.59415,77,62,0
92.59681,92.70319,75,62,0
92.70319,92.80958,77,62,0
92.806915,92.9133,75,62,0
92.91596,93.02234,74,62,0
93.02234,93.12872,72,49,0
93.12607,93.232445,74,49,0
93.23511,93.34149,75,49,0
93.34149,93.447876,74,49,0
93.44521,93.5516,75,49,0
93.55426,93.66064,77,49,0
93.66064,93.97979,79,75,0
93.97979,94.086174,72,49,0
94.08351,94.189896,74,49,0
94.19256,94.298935,75,49,0
94.298935,94.40532,74,49,0
94.402664,94.50904,75,49,0
94.5117,94.61809,77,49,0
94.61809,94.93723,79,75,0
94.93723,95.04362,72,49,0
95.04096,95.14734,74,49,0
95.15,95.256386,75,49,0
95.256386,95.36277,74,49,0
95.36011,95.46649,75,49,0
95.469154,95.57553,77,49,0
95.57553,95.681915,75,49,0
95.67926,95.78564,77,49,0
95.7883,95.894684,79,49,0
95.894684,96.00107,80,62,0
95.998405,96.10479,82,62,0
96.10745,96.21383,84,62,0
96.21383,96.32021,82,62,0
96.31756,96.423935,80,62,0
96.4266,96.53298,79,62,0
96.53298,96.639366,77,49,0
96.6367,96.74309,75,49,0
96.74575,96.85213,74,49,0
96.85213,96.95851,72,49,0
96.95586,97.06223,74,49,0
97.064896,97.17128,75,49,0
97.17128,97.277664,74,49,0
97.275,97.381386,72,49,0
97.38405,97.490425,70,49,0
97.490425,97.59681,68,49,0
97.594154,97.70053,67,49,0
97.70319,97.80958,66,49,0
97.80958,98.12872,67,49,0
98.447876,98.55426,62,49,0
98.5516,98.65798,64,49,0
98.660645,98.76702,66,49,0
98.76702,98.873405,67,49,0
98.87075,98.97713,69,49,0
98.97979,99.086174,71,49,0
99.086174,99.40532,72,75,0
99.40532,99.5117,62,49,0
99.50905,99.615425,64,49,0
99.61809,99.72447,66,49,0
99.72447,99.83086,67,49,0
99.82819,99.93458,69,49,0
99.93724,100.04362,71,49,0
100.04362,100.36277,72,75,0
100.36277,100.469154,62,49,0
100.46649,100.572876,64,49,0
100.57554,100.681915,66,49,0
100.681915,100.7883,67,49,0
100.785645,100.89202,69,49,0
100.894684,101.00107,71,49,0
101.00107,101.10745,69,49,0
101.10479,101.211174,71,49,0
101.21384,101.32021,72,49,0
101.32021,101.4266,71,62,0
101.42394,101.53032,72,62,0
101.53298,101.639366,74,62,0
101.639366,101.74575,72,62,0
101.74309,101.84947,74,62,0
101.852135,101.95851,76,62,0
101.95851,102.064896,74,75,0
102.06224,102.16862,76,75,0
102.17128,102.277664,77,75,0
102.277664,102.38405,76,75,0
102.381386,102.48777,77,75,0
102.49043,102.59681,79,75,0
102.59681,102.70319,60,88,0
102.70054,102.806915,65,88,0
102.80958,102.91596,69,88,0
102.91596,103.02235,72,88,0
103.019684,103.12607,77,88,0
103.12873,103.23511,81,88,0
103.23511,103.34149,84,88,0
103.33884,103.44521,89,88,0
103.447876,103.55426,93,88,0
103.55426,103.71384,96,88,0
103.873405,103.90532,83,114,0
103.873405,103.90532,71,102,0
103.873405,103.90532,76,106,0
103.873405,103.90532,79,110,0
104.19256,104.22447,83,114,0
104.19256,104.22447,71,102,0
104.19256,104.22447,75,106,0
104.19256,104.22447,78,110,0
104.5117,104.61809,76,49,0
104.61543,104.72181,78,49,0
104.72447,104.83086,79,49,0
104.83086,105.15,81,49,0
105.15,105.256386,71,49,0
105.25373,105.36011,73,49,0
105.36277,105.469154,75,49,0
105.469154,105.57554,76,49,0
105.572876,105.67926,78,49,0
105.681915,105.7883,79,49,0
105.7883,106.10745,81,49,0
106.10745,106.21384,71,49,0
106.211174,106.31756,73,49,0
106.32021,106.4266,75,49,0
106.4266,106.53298,76,49,0
106.53033,106.6367,78,49,0
106.639366,106.74575,79,49,0
106.74575,106.852135,78,49,0
106.84947,106.95586,79,49,0
106.95851,107.064896,81,49,0
107.064896,107.17128,79,49,0
107.168625,107.275,81,49,0
107.277664,107.38405,83,49,0
107.38405,107.49043,60,101,0
107.48777,107.594154,65,101,0
107.59681,107.70319,69,101,0
107.70319,107.80958,72,101,0
107.80692,107.9133,77,101,0
107.91596,108.02235,81,101,0
108.02235,108.12873,84,101,0
108.12607,108.23245,89,101,0
108.23511,108.34149,93,101,0
108.34149,108.50107,96,101,0
108.660645,108.69256,83,127,0
108.660645,108.69256,71,115,0
108.660645,108.69256,76,119,0
108.660645,108.69256,79,123,0
108.97979,109.0117,83,127,0
108.97979,109.0117,71,115,0
108.97979,109.0117,75,119,0
108.97979,109.0117,78,123,0
109.29894,110.256386,88,101,0
109.29894,110.256386,76,101,0
109.29894,110.256386,79,101,0
109.29894,110.256386,83,101,0
110.256386,110.27235,83,101,0
110.256386,110.27235,75,101,0
110.41596,110.43192,82,101,0
110.41596,110.43192,76,101,0
110.57554,110.59149,83,101,0
110.57554,110.59149,75,101,0
110.735115,110.75107,82,101,0
110.735115,110.75107,76,101,0
110.894684,110.910645,83,101,0
110.894684,110.910645,75,101,0
111.21384,112.17128,86,101,0
111.21384,112.17128,74,101,0
111.21384,112.17128,78,101,0
111.21384,112.17128,81,101,0
112.17128,112.18724,81,101,0
112.17128,112.18724,73,101,0
112.33086,112.34682,80,101,0
112.33086,112.34682,74,101,0
112.49043,112.506386,81,101,0
112.49043,112.506386,73,101,0
112.65001,112.66596,80,101,0
112.65001,112.66596,74,101,0
112.80958,112.82554,81,101,0
112.80958,112.82554,73,101,0
113.12873,113.76703,84,101,0
113.12873,113.76703,72,101,0
113.12873,113.76703,76,101,0
113.12873,113.76703,79,101,0
113.76703,113.79894,83,127,0
113.76703,113.79894,71,115,0
113.76703,113.79894,76,119,0
113.76703,113.79894,79,123,0
114.086174,114.11809,81,127,0
114.086174,114.11809,69,115,0
114.086174,114.11809,72,119,0
114.086174,114.11809,77,123,0
114.40533,114.43724,84,127,0
114.40533,114.43724,72,115,0
114.40533,114.43724,75,119,0
114.40533,114.43724,81,123,0
114.72447,114.756386,83,127,0
114.72447,114.756386,71,115,0
114.72447,114.756386,76,119,0
114.72447,114.756386,79,123,0
115.043625,115.07554,81,127,0
115.043625,115.07554,78,122,0
115.043625,115.07554,72,117,0
115.36277,115.394684,79,127,0
115.36277,115.394684,76,122,0
115.36277,115.394684,71,117,0
115.68192,115.71384,78,127,0
115.68192,115.71384,75,122,0
115.68192,115.71384,71,117,0
116.00107,116.160645,64,101,0
116.160645,116.24043,66,101,0
116.24043,116.32022,67,101,0
116.32022,116.40001,69,101,0
116.40001,116.47979,71,101,0
116.47979,116.55958,73,101,0
116.55958,116.639366,75,101,0
116.639366,116.719154,76,101,0
116.719154,116.79894,78,101,0
116.79894,116.87873,79,101,0
116.87873,116.95852,81,101,0
116.95852,116.97447,83,101,0
116.95852,116.97447,71,101,0
117.11809,117.13405,82,101,0
117.11809,117.13405,70,101,0
117.277664,117.293625,83,101,0
117.277664,117.293625,71,101,0
117.43724,117.4532,82,101,0
117.43724,117.4532,70,101,0
117.59682,117.61277,83,101,0
117.59682,117.61277,71,101,0
117.91596,118.07554,62,101,0
118.07554,118.15533,64,101,0
118.15533,118.235115,66,101,0
118.235115,118.3149,67,101,0
118.3149,118.394684,69,101,0
118.394684,118.47447,71,101,0
118.47447,118.55426,73,101,0
118.55426,118.63405,74,101,0
118.63405,118.71384,76,101,0
118.71384,118.793625,78,101,0
118.793625,118.87341,80,101,0
118.87341,118.889366,81,101,0
118.87341,118.889366,69,101,0
119.03298,119.04894,80,101,0
119.03298,119.04894,68,101,0
119.19256,119.20852,81,101,0
119.19256,119.20852,69,101,0
119.352135,119.368095,80,101,0
119.352135,119.368095,68,101,0
119.51171,119.527664,81,101,0
119.51171,119.527664,69,101,0
119.910645,119.99043,72,101,0
119.99043,120.07022,76,101,0
120.07022,120.15001,79,101,0
120.15001,120.2298,84,101,0
120.2298,120.30958,88,101,0
120.30958,120.389366,91,101,0
120.389366,120.469154,96,101,0
120.469154,120.62873,95,101,0
120.78831,120.868095,69,101,0
120.868095,120.947876,72,101,0
120.947876,121.027664,77,101,0
121.027664,121.10745,81,101,0
121.10745,121.18724,72,101,0
121.18724,121.26703,75,101,0
121.26703,121.34682,81,101,0
121.34682,121.426605,84,101,0
121.426605,121.50639,71,101,0
121.50639,121.586174,76,101,0
121.586174,121.66596,79,101,0
121.66596,121.74575,83,101,0
121.74575,121.82554,69,101,0
121.82554,121.90533,72,101,0
121.90533,121.985115,78,101,0
121.985115,122.0649,81,101,0
122.0649,122.14469,67,101,0
122.14469,122.22447,71,101,0
122.22447,122.30426,76,101,0
122.30426,122.38405,79,101,0
122.38405,122.46384,66,101,0
122.46384,122.543625,71,101,0
122.543625,122.62341,75,101,0
122.62341,122.7032,78,101,0
122.7032,122.86277,64,101,0
122.86277,122.94256,66,101,0
122.94256,123.02235,67,101,0
123.02235,123.102135,69,101,0
123.102135,123.18192,71,101,0
123.18192,123.26171,73,101,0
123.26171,123.3415,75,101,0
123.3415,123.42129,76,101,0
123.42129,123.50107,78,101,0
123.50107,123.58086,79,101,0
123.58086,123.660645,81,101,0
123.660645,123.74043,83,101,0
123.74043,123.82022,84,101,0
123.82022,123.90001,86,101,0
123.90001,123.9798,88,101,0
123.9798,124.01171,89,114,0
124.93724,124.969154,86,101,0
125.89469,125.926605,83,75,0
126.852135,126.88405,80,49,0
127.809586,127.8415,79,49,0
128.76703,129.5649,76,36,0
129.5649,129.64468,77,36,0
129.64468,129.72447,76,36,0
129.72447,130.04362,74,36,0
130.04362,130.36278,77,36,0
130.36278,130.68193,80,36,0
130.68193,131.32022,79,36,0
131.32022,131.63937,76,36,0
131.63937,132.27766,79,36,0
132.27766,132.59682,77,36,0
132.59682,133.39468,76,36,0
133.39468,133.47447,77,36,0
133.47447,133.55426,76,36,0
133.55426,133.87341,74,36,0
133.87341,134.19257,77,36,0
134.19257,134.51172,80,36,0
134.51172,135.15001,79,36,0
135.15001,135.46916,76,36,0
135.46916,136.10745,79,36,0
136.10745,136.4266,77,36,0
136.4266,137.06491,80,49,0
137.06491,137.38405,77,49,0
137.38405,138.02235,81,62,0
138.02235,138.3415,77,62,0
138.3415,138.66064,76,75,0
138.66064,138.9798,85,75,0
138.9798,139.29895,84,75,0
139.29895,139.93724,82,75,0
139.93724,140.2564,81,75,0
140.2564,140.57555,76,75,0
140.57555,140.8947,82,75,0
140.8947,141.21384,81,75,0
141.21384,141.85214,79,62,0
141.85214,142.1713,77,62,0
142.1713,142.80959,79,49,0
142.80959,143.12874,77,49,0
143.12874,143.76703,79,49,0
143.76703,144.08618,76,49,0
144.08618,144.40533,80,75,0
144.40533,144.56491,79,49,0
144.56491,144.72449,77,49,0
144.72449,144.88405,76,49,0
144.88405,145.04362,74,49,0
145.04362,145.52235,72,36,0
145.52235,145.68193,74,36,0
145.68193,145.8415,76,36,0
145.8415,146.00108,77,36,0
146.00108,146.32022,76,75,0
146.32022,146.63937,85,75,0
146.63937,146.95853,84,75,0
146.95853,147.59682,82,75,0
147.59682,147.91597,81,75,0
147.91597,148.23512,76,75,0
148.23512,148.55428,82,75,0
148.55428,148.87341,81,75,0
148.87341,149.51172,79,62,0
149.51172,149.83087,77,62,0
149.83087,150.46916,79,49,0
150.46916,150.78831,77,49,0
150.78831,151.4266,79,49,0
151.4266,151.74576,76,49,0
151.74576,152.06491,80,75,0
152.06491,152.22449,79,49,0
152.22449,152.38405,77,49,0
152.38405,152.54362,76,49,0
152.54362,152.7032,74,49,0
152.7032,153.02235,72,49,0
153.66064,154.6181,76,36,0
153.66064,154.6181,67,36,0
154.6181,155.6967,76,36,0
154.6181,155.6967,71,36,0
154.6181,155.6967,67,36,0
155.6967,157.106,75,36,0
155.6967,157.106,71,36,0
155.6967,157.106,66,36,0
157.106,157.21237,65,101,0
157.20972,157.3161,71,101,0
157.31876,157.42514,74,101,0
157.42514,157.53152,77,88,0
157.52887,157.63525,83,88,0
157.63791,157.7443,86,88,0
157.7443,157.85068,89,75,0
157.84802,157.9544,95,75,0
157.95706,158.06345,98,75,0
158.06345,158.3826,101,75,0
160.29749,161.25493,74,36,0
160.29749,161.25493,68,36,0
160.29749,161.25493,65,36,0
161.25493,162.33353,74,36,0
161.25493,162.33353,69,36,0
161.25493,162.33353,65,36,0
162.33353,163.74283,73,36,0
162.33353,163.74283,69,36,0
162.33353,163.74283,64,36,0
163.74283,163.84921,63,101,0
163.84656,163.95294,69,101,0
163.9556,164.06198,72,101,0
164.06198,164.16837,75,88,0
164.1657,164.27208,81,88,0
164.27475,164.38113,84,88,0
164.38113,164.4875,87,75,0
164.48485,164.59123,93,75,0
164.59389,164.70027,96,75,0
164.70027,164.85985,99,75,0
166.93433,167.89177,75,36,0
166.93433,167.89177,68,36,0
166.93433,167.89177,66,36,0
167.89177,168.84921,75,36,0
167.89177,169.80666,68,36,0
167.89177,169.80666,65,36,0
169.80666,170.88525,80,36,0
169.80666,170.88525,73,36,0
169.80666,170.88525,63,36,0
170.88525,172.29456,80,36,0
170.88525,172.29456,72,36,0
170.88525,172.29456,66,36,0
172.29456,172.40094,73,36,0
172.39828,172.50467,75,36,0
172.50732,172.61371,77,36,0
172.61371,172.7201,75,36,0
172.71742,172.8238,77,36,0
172.82648,172.93286,78,36,0
172.93286,173.03923,77,36,0
173.03658,173.14296,78,36,0
173.14561,173.252,80,36,0
173.252,173.35838,78,36,0
173.35573,173.46211,80,36,0
173.46477,173.57115,82,36,0
173.57115,173.67754,80,36,0
173.67488,173.78127,82,36,0
173.78392,173.8903,84,36,0
173.8903,173.99669,85,36,0
173.99402,174.1004,87,36,0
174.10307,174.20946,89,36,0
174.20946,174.31583,90,36,0
174.31317,174.41956,89,36,0
174.42221,174.5286,87,36,0
174.5286,174.63498,89,36,0
174.63232,174.73871,87,36,0
174.74136,174.84775,85,36,0
174.84775,174.95413,87,36,0
174.95148,175.05786,85,36,0
175.06052,175.1669,84,36,0
175.1669,175.27328,85,36,0
175.27061,175.377,84,36,0
175.37967,175.48605,82,36,0
175.48605,175.59242,84,36,0
175.58977,175.69615,82,36,0
175.6988,175.80519,80,36,0
175.80519,175.91158,78,36,0
175.90892,176.0153,77,36,0
176.01796,176.12434,75,36,0
176.12434,176.23073,73,36,0
176.22807,176.33446,75,36,0
176.33711,176.4435,76,36,0
176.4435,176.54988,75,36,0
176.54721,176.6536,76,36,0
176.65627,176.76265,78,36,0
176.76265,176.86902,76,36,0
176.86636,176.97275,78,36,0
176.9754,177.08179,80,36,0
177.08179,177.18817,78,36,0
177.18552,177.2919,80,36,0
177.29456,177.40094,81,36,0
177.40094,177.50732,80,36,0
177.50467,177.61105,82,36,0
177.61371,177.7201,84,36,0
177.7201,177.82648,85,36,0
177.8238,177.93019,87,36,0
177.93286,178.03925,88,36,0
178.03925,178.14561,90,36,0
178.14296,178.24934,88,36,0
178.252,178.35838,87,36,0
178.35838,178.46477,88,36,0
178.46211,178.5685,87,36,0
178.57115,178.67754,85,36,0
178.67754,178.78392,87,36,0
178.78127,178.88765,85,36,0
178.8903,178.99669,84,36,0
178.99669,179.10307,85,36,0
179.1004,179.20679,83,36,0
179.20946,179.31584,81,36,0
179.31584,179.42221,83,36,0
179.41956,179.52594,81,36,0
179.5286,179.63498,80,36,0
179.63498,179.74136,78,36,0
179.73871,179.8451,76,36,0
179.84775,179.95413,75,36,0
179.95413,180.06052,73,36,0
180.05786,180.16425,75,36,0
180.1669,180.27328,76,36,0
180.27328,180.37967,75,36,0
180.377,180.48338,76,36,0
180.48605,180.59244,78,36,0
180.59244,180.6988,76,36,0
180.69615,180.80254,78,36,0
180.80519,180.91158,80,36,0
180.91158,181.54988,81,62,0
181.54988,181.86903,80,36,0
181.86903,181.9754,73,36,0
181.97275,182.07913,75,36,0
182.08179,182.18817,76,36,0
182.18817,182.29456,75,36,0
182.2919,182.39828,76,36,0
182.40094,182.50732,78,36,0
182.50732,182.61371,76,36,0
182.61105,182.71744,78,36,0
182.7201,182.82648,80,36,0
182.82648,183.46477,81,62,0
183.46477,183.78392,80,36,0
183.78392,183.8903,76,36,0
183.88765,183.99403,78,36,0
183.99669,184.10307,79,36,0
184.10307,184.20946,78,36,0
184.20679,184.31317,79,36,0
184.31584,184.42223,81,36,0
184.42223,184.5286,79,36,0
184.52594,184.63232,81,36,0
184.63498,184.74136,83,36,0
184.74136,185.37967,84,62,0
185.37967,185.69882,83,36,0
185.69882,186.33711,86,36,0
186.33711,186.65627,85,36,0
186.65627,186.76265,78,36,0
186.75998,186.86636,80,36,0
186.86903,186.97542,81,36,0
186.97542,187.08179,80,36,0
187.07913,187.18552,81,36,0
187.18817,187.29456,83,36,0
187.29456,187.61371,85,62,0
187.29456,187.61371,79,54,0
187.61371,187.93286,90,36,0
187.61371,187.93286,78,36,0
188.252,188.35838,78,36,0
188.35573,188.46211,83,36,0
188.46477,188.57115,78,36,0
188.57115,188.67754,88,36,0
188.57115,188.67754,76,36,0
188.67488,188.78127,78,36,0
188.78392,188.8903,80,36,0
188.8903,188.99669,78,36,0
188.99403,189.10042,80,36,0
189.10307,189.20946,81,36,0
189.20946,189.5286,83,36,0
189.20946,189.5286,77,36,0
189.5286,189.84775,88,36,0
189.5286,189.84775,76,36,0
190.1669,190.27328,76,36,0
190.27063,190.37701,81,36,0
190.37967,190.48605,76,36,0
190.48605,190.59244,86,36,0
190.48605,190.59244,74,36,0
190.58977,190.69615,76,36,0
190.69882,190.80519,78,36,0
190.80519,190.91158,76,36,0
190.90892,191.0153,78,36,0
191.01796,191.12434,79,36,0
191.12434,191.4435,81,36,0
191.4435,191.76265,80,36,0
191.12434,191.76265,86,36,0
191.12434,191.76265,74,36,0
192.08179,192.18817,81,36,0
192.18552,192.2919,86,36,0
192.29456,192.40094,81,36,0
192.40094,192.50732,80,36,0
192.50467,192.61105,81,36,0
192.61371,192.7201,83,36,0
192.7201,192.82648,81,36,0
192.82382,192.9302,83,36,0
192.93286,193.03925,84,36,0
193.03925,193.35838,81,36,0
193.35838,193.67754,80,36,0
193.03925,193.67754,86,36,0
193.03925,193.67754,74,36,0
193.99669,194.10307,81,36,0
194.10042,194.2068,86,36,0
194.20946,194.31584,81,36,0
194.31584,194.42223,80,36,0
194.41956,194.52594,81,36,0
194.52861,194.63498,83,36,0
194.63498,194.74136,81,36,0
194.73871,194.8451,83,36,0
194.84775,194.95413,84,36,0
194.95413,195.27328,81,36,0
195.27328,195.59244,80,36,0
194.95413,195.59244,86,36,0
194.95413,195.59244,74,36,0
195.91158,196.01796,68,36,0
196.0153,196.12169,69,36,0
196.12434,196.23073,71,36,0
196.23073,196.33711,69,36,0
196.33446,196.44084,71,36,0
196.4435,196.54988,72,36,0
196.54988,196.65627,71,36,0
196.65361,196.76,72,36,0
196.76265,196.86903,74,36,0
196.86903,197.18817,76,62,0
197.18817,197.29456,69,36,0
197.2919,197.39828,71,36,0
197.40094,197.50732,72,36,0
197.50732,197.61371,71,36,0
197.61105,197.71744,72,36,0
197.7201,197.82648,74,36,0
197.82648,198.14563,76,62,0
198.14563,198.25201,69,36,0
198.24934,198.35573,71,36,0
198.3584,198.46477,72,36,0
198.46477,198.57115,71,36,0
198.5685,198.67488,72,36,0
198.67754,198.78392,74,36,0
198.78392,198.8903,72,36,0
198.88765,198.99403,74,36,0
198.99669,199.10307,76,36,0
199.10307,199.20946,77,36,0
199.2068,199.31317,79,36,0
199.31584,199.42223,81,36,0
199.42223,199.52861,79,36,0
199.52594,199.63232,77,36,0
199.635,199.74136,76,36,0
199.74136,199.84775,74,36,0
199.8451,199.95148,72,36,0
199.95413,200.06052,71,36,0
200.06052,200.1669,69,36,0
200.16425,200.27063,71,36,0
200.27328,200.37967,72,36,0
200.37967,200.48605,71,36,0
200.4834,200.58977,69,36,0
200.59244,200.69882,67,36,0
200.69882,200.8052,65,36,0
200.80254,200.90892,64,36,0
200.91159,201.01796,63,36,0
201.01796,201.33711,64,36,0
201.65627,201.76265,59,62,0
201.76,201.86636,61,36,0
201.86903,201.97542,63,36,0
201.97542,202.0818,64,36,0
202.07913,202.18552,66,36,0
202.18819,202.29456,67,36,0
202.29456,202.61371,69,62,0
202.61371,202.7201,59,62,0
202.71744,202.82382,61,36,0
202.82648,202.93286,63,36,0
202.93286,203.03925,64,36,0
203.03659,203.14296,66,36,0
203.14563,203.25201,67,36,0
203.25201,203.57115,69,62,0
203.57115,203.67754,59,62,0
203.67488,203.78127,61,36,0
203.78392,203.8903,63,36,0
203.8903,203.99669,64,36,0
203.99403,204.10042,66,36,0
204.10307,204.20946,68,36,0
204.20946,204.31584,66,36,0
204.31319,204.41956,68,36,0
204.42223,204.52861,69,36,0
204.52861,204.635,68,62,0
204.63232,204.73871,69,62,0
204.74138,204.84775,71,62,0
204.84775,204.95413,69,62,0
204.95148,205.05786,71,62,0
205.06052,205.1669,72,62,0
205.1669,205.27328,71,75,0
205.27063,205.37701,72,75,0
205.37967,205.48605,74,75,0
205.48605,205.59244,72,75,0
205.58978,205.69615,74,75,0
205.69882,205.8052,76,75,0
205.8052,205.91159,65,101,0
205.90892,206.0153,70,101,0
206.01797,206.12434,74,101,0
206.12434,206.23073,77,101,0
206.22807,206.33446,82,101,0
206.33711,206.4435,86,101,0
206.4435,206.54988,89,101,0
206.54723,206.65361,94,101,0
206.65627,206.76265,98,101,0
206.76265,206.92223,101,101,0
207.0818,207.11371,76,127,0
207.0818,207.11371,64,115,0
207.0818,207.11371,69,119,0
207.0818,207.11371,72,123,0
207.40094,207.43286,76,127,0
207.40094,207.43286,64,115,0
207.40094,207.43286,68,119,0
207.40094,207.43286,71,123,0
207.7201,208.03925,69,75,0
208.3584,208.46478,64,75,0
208.46211,208.5685,66,75,0
208.57117,208.67754,68,75,0
208.67754,208.78392,69,75,0
208.78127,208.88765,71,75,0
208.8903,208.99669,72,75,0
208.99669,209.31584,74,75,0
209.31584,209.42223,64,75,0
209.41957,209.52594,66,75,0
209.52861,209.635,68,75,0
209.635,209.74138,69,75,0
209.73871,209.8451,71,75,0
209.84776,209.95413,72,75,0
209.95413,210.27328,74,75,0
210.27328,210.37967,64,75,0
210.37701,210.4834,66,75,0
210.48605,210.59244,68,75,0
210.59244,210.69882,69,75,0
210.69617,210.80254,71,75,0
210.8052,210.91159,72,75,0
210.91159,211.01797,71,88,0
211.0153,211.12169,72,88,0
211.12434,211.23073,74,88,0
211.23073,211.33711,72,88,0
211.33446,211.44084,74,88,0
211.4435,211.54988,76,88,0
211.54988,211.65627,65,101,0
211.65361,211.76,70,101,0
211.76265,211.86903,74,101,0
211.86903,211.97542,77,101,0
211.97276,212.07913,82,101,0
212.0818,212.18819,86,101,0
212.18819,212.29457,89,101,0
212.2919,212.39828,94,101,0
212.40094,212.50732,98,101,0
212.50732,212.6669,101,101,0
212.82648,212.8584,76,127,0
212.82648,212.8584,64,115,0
212.82648,212.8584,69,119,0
212.82648,212.8584,72,123,0
213.14563,213.17754,76,127,0
213.14563,213.17754,64,115,0
213.14563,213.17754,68,119,0
213.14563,213.17754,71,123,0
213.46478,213.57117,65,101,0
213.5685,213.67488,70,101,0
213.67754,213.78392,74,101,0
213.78392,213.8903,77,101,0
213.88765,213.99403,82,101,0
213.99669,214.10307,86,101,0
214.10307,214.20946,89,101,0
214.2068,214.31319,94,101,0
214.31584,214.42223,98,101,0
214.42223,214.5818,101,101,0
214.74138,214.77328,77,127,0
214.74138,214.77328,65,115,0
214.74138,214.77328,70,119,0
214.74138,214.77328,74,123,0
215.06052,215.09244,77,127,0
215.06052,215.09244,65,115,0
215.06052,215.09244,69,119,0
215.06052,215.09244,72,123,0
215.37967,215.69882,91,114,0
215.37967,215.69882,79,114,0
215.69882,215.73073,79,127,0
215.69882,215.73073,67,127,0
215.69882,215.73073,72,127,0
215.69882,215.73073,75,127,0
216.01797,216.04988,79,127,0
216.01797,216.04988,67,127,0
216.01797,216.04988,71,127,0
216.01797,216.04988,74,127,0
216.33711,216.65627,93,114,0
216.33711,216.65627,81,114,0
216.65627,216.68819,81,127,0
216.65627,216.68819,69,127,0
216.65627,216.68819,74,127,0
216.65627,216.68819,77,127,0
216.97542,217.00732,81,127,0
216.97542,217.00732,69,127,0
216.97542,217.00732,73,127,0
216.97542,217.00732,76,127,0
217.29457,217.31052,70,114,0
217.29457,217.31052,67,114,0
217.45415,217.4701,70,114,0
217.45415,217.4701,67,114,0
217.61371,217.62967,73,114,0
217.61371,217.62967,70,114,0
217.61371,217.62967,67,114,0
217.77328,217.78925,73,114,0
217.77328,217.78925,70,114,0
217.77328,217.78925,67,114,0
217.93286,217.94882,76,114,0
217.93286,217.94882,67,114,0
217.93286,217.94882,70,114,0
217.93286,217.94882,73,114,0
218.09244,218.1084,76,114,0
218.09244,218.1084,67,114,0
218.09244,218.1084,70,114,0
218.09244,218.1084,73,114,0
218.25201,218.26797,79,114,0
218.25201,218.26797,70,114,0
218.25201,218.26797,73,114,0
218.25201,218.26797,76,114,0
218.41159,218.42755,79,114,0
218.41159,218.42755,70,114,0
218.41159,218.42755,73,114,0
218.41159,218.42755,76,114,0
218.57117,218.58711,82,114,0
218.57117,218.58711,73,114,0
218.57117,218.58711,76,114,0
218.57117,218.58711,79,114,0
218.73074,218.74669,82,114,0
218.73074,218.74669,73,114,0
218.73074,218.74669,76,114,0
218.73074,218.74669,79,114,0
218.8903,218.90627,85,114,0
218.8903,218.90627,76,114,0
218.8903,218.90627,79,114,0
218.8903,218.90627,82,114,0
219.04988,219.06584,85,114,0
219.04988,219.06584,76,114,0
219.04988,219.06584,79,114,0
219.04988,219.06584,82,114,0
219.20946,219.52861,86,101,0
219.20946,219.52861,74,101,0
219.20946,219.52861,77,101,0
219.20946,219.52861,81,101,0
220.1669,220.48605,89,101,0
220.1669,220.48605,77,101,0
220.1669,220.48605,81,101,0
220.1669,220.48605,86,101,0
221.12436,221.4435,76,49,0
221.12436,221.4435,69,49,0
222.0818,222.40096,76,49,0
222.0818,222.40096,68,49,0
223.03925,223.83711,73,36,0
223.83711,223.9169,74,36,0
223.9169,223.99669,73,36,0
223.99669,224.31584,71,36,0
224.31584,224.635,74,36,0
224.635,224.95415,77,36,0
224.95415,225.59244,76,36,0
225.59244,225.91159,73,36,0
225.91159,226.54988,76,36,0
226.54988,226.86903,74,36,0
226.86903,227.6669,73,36,0
227.6669,227.74669,74,36,0
227.74669,227.82648,73,36,0
227.82648,228.14563,71,36,0
228.14563,228.46478,74,36,0
228.46478,228.78394,77,36,0
228.78394,229.42223,76,36,0
229.42223,229.74138,73,36,0
229.74138,230.37967,76,49,0
230.37967,230.69882,74,49,0
230.69882,231.33713,77,62,0
231.33713,231.65627,74,62,0
231.65627,232.29457,78,75,0
232.29457,232.61372,74,75,0
232.61372,232.93286,73,75,0
232.93286,233.25201,82,75,0
233.25201,233.57117,81,75,0
233.57117,234.20946,79,75,0
234.20946,234.52861,78,75,0
234.52861,234.84776,73,75,0
234.84776,235.16692,79,75,0
235.16692,235.48605,78,75,0
235.48605,236.12436,76,62,0
236.12436,236.44351,74,62,0
236.44351,237.0818,76,49,0
237.0818,237.40096,74,49,0
237.40096,238.03925,76,49,0
238.03925,238.3584,73,49,0
238.3584,238.67755,77,49,0
238.67755,238.83713,76,49,0
238.83713,238.9967,74,49,0
238.9967,239.15627,73,49,0
239.15627,239.31584,71,49,0
239.31584,239.79457,69,36,0
239.79457,239.95415,71,36,0
239.95415,240.11372,73,36,0
240.11372,240.2733,74,36,0
240.2733,240.59244,73,36,0
240.59244,240.91159,82,36,0
240.91159,241.23074,81,36,0
241.23074,241.86903,79,36,0
241.86903,242.18819,78,36,0
242.18819,242.50734,73,36,0
242.50734,242.82649,79,36,0
242.82649,243.14563,78,36,0
243.14563,243.78394,76,62,0
243.78394,244.10309,74,62,0
244.10309,244.74138,76,49,0
244.74138,245.06053,74,49,0
245.06053,245.69882,76,49,0
245.69882,246.01797,73,49,0
246.01797,246.33713,77,49,0
246.33713,246.4967,76,49,0
246.4967,246.65628,74,49,0
246.65628,246.81584,73,49,0
246.81584,246.97542,71,49,0
246.97542,247.93288,69,49,0
246.97542,247.93288,61,49,0
247.93288,248.09244,69,101,0
248.09244,248.17223,71,101,0
248.17223,248.25201,72,101,0
248.25201,248.3318,74,101,0
248.3318,248.41159,76,101,0
248.41159,248.49138,78,101,0
248.49138,248.57117,80,101,0
248.57117,248.65096,81,101,0
248.65096,248.73074,83,101,0
248.73074,248.81053,84,101,0
248.81053,248.89032,86,101,0
248.89032,248.90628,88,101,0
248.89032,248.90628,76,101,0
249.0499,249.06584,87,101,0
249.0499,249.06584,75,101,0
249.20947,249.22542,88,101,0
249.20947,249.22542,76,101,0
249.36903,249.385,87,101,0
249.36903,249.385,75,101,0
249.52861,249.54457,88,101,0
249.52861,249.54457,76,101,0
249.84776,250.00734,67,101,0
250.00734,250.08713,69,101,0
250.08713,250.16692,71,101,0
250.16692,250.2467,72,101,0
250.2467,250.32649,74,101,0
250.32649,250.40628,76,101,0
250.40628,250.48607,78,101,0
250.48607,250.56584,79,101,0
250.56584,250.64563,81,101,0
250.64563,250.72542,83,101,0
250.72542,250.8052,85,101,0
250.8052,250.82117,86,101,0
250.8052,250.82117,74,101,0
250.96478,250.98074,85,101,0
250.96478,250.98074,73,101,0
251.12436,251.14032,86,101,0
251.12436,251.14032,74,101,0
251.28394,251.2999,85,101,0
251.28394,251.2999,73,101,0
251.44351,251.45947,86,101,0
251.44351,251.45947,74,101,0
251.84244,251.92223,77,101,0
251.92223,252.00201,81,101,0
252.00201,252.0818,84,101,0
252.0818,252.16159,89,101,0
252.16159,252.24138,93,101,0
252.24138,252.32117,96,101,0
252.32117,252.40096,101,101,0
252.40096,252.56053,100,101,0
252.72011,252.7999,74,101,0
252.7999,252.87968,77,101,0
252.87968,252.95947,82,101,0
252.95947,253.03926,86,101,0
253.03926,253.11903,77,101,0
253.11903,253.19882,80,101,0
253.19882,253.27861,86,101,0
253.27861,253.3584,89,101,0
253.3584,253.43819,76,101,0
253.43819,253.51797,81,101,0
253.51797,253.59776,84,101,0
253.59776,253.67755,88,101,0
253.67755,253.75734,74,101,0
253.75734,253.83713,77,101,0
253.83713,253.91692,83,101,0
253.91692,253.9967,86,101,0
253.9967,254.07649,72,101,0
254.07649,254.15628,76,101,0
254.15628,254.23607,81,101,0
254.23607,254.31586,84,101,0
254.31586,254.39563,71,101,0
254.39563,254.47542,76,101,0
254.47542,254.5552,80,101,0
254.5552,254.635,83,101,0
254.635,254.74138,69,101,0
254.635,254.74138,57,101,0
254.73872,254.84511,59,101,0
254.73872,254.84511,71,101,0
254.84776,254.95415,72,101,0
254.84776,254.95415,60,101,0
254.95415,255.06053,71,101,0
254.95415,255.06053,59,101,0
255.05788,255.16426,60,101,0
255.05788,255.16426,72,101,0
255.16692,255.2733,74,101,0
255.16692,255.2733,62,101,0
255.2733,255.59245,76,114,0
255.2733,255.59245,64,114,0
255.59245,255.69882,69,114,0
255.59245,255.69882,57,114,0
255.69617,255.80255,59,114,0
255.69617,255.80255,71,114,0
255.8052,255.91159,72,114,0
255.8052,255.91159,60,114,0
255.91159,256.01797,71,114,0
255.91159,256.01797,59,114,0
256.01532,256.1217,60,114,0
256.01532,256.1217,72,114,0
256.12436,256.23074,74,114,0
256.12436,256.23074,62,114,0
256.23074,256.5499,76,114,0
256.23074,256.5499,64,114,0
256.5499,256.65628,81,114,0
256.5499,256.65628,69,114,0
256.65363,256.76,71,114,0
256.65363,256.76,83,114,0
256.76266,256.86905,84,114,0
256.76266,256.86905,72,114,0
256.86905,256.97543,83,114,0
256.86905,256.97543,71,114,0
256.97278,257.07916,72,114,0
256.97278,257.07916,84,114,0
257.08182,257.1882,86,114,0
257.08182,257.1882,74,114,0
257.1882,257.50735,88,114,0
257.1882,257.50735,76,114,0
257.50735,257.6137,81,114,0
257.50735,257.6137,69,114,0
257.61105,257.71744,71,114,0
257.61105,257.71744,83,114,0
257.7201,257.82648,84,114,0
257.7201,257.82648,72,114,0
257.82648,257.93286,83,114,0
257.82648,257.93286,71,114,0
257.9302,258.0366,72,114,0
257.9302,258.0366,84,114,0
258.03925,258.14563,86,114,0
258.03925,258.14563,74,114,0
258.14563,258.46478,88,114,0
258.14563,258.46478,76,114,0
258.46478,258.4967,84,114,0
258.46478,258.4967,72,114,0
258.46478,258.4967,76,114,0
258.46478,258.4967,81,114,0
259.1031,259.135,83,114,0
259.1031,259.135,71,114,0
259.1031,259.135,76,114,0
259.1031,259.135,80,114,0
259.42224,259.45416,84,114,0
259.42224,259.45416,72,114,0
259.42224,259.45416,76,114,0
259.42224,259.45416,81,114,0
260.06052,260.09244,83,114,0
260.06052,260.09244,71,114,0
260.06052,260.09244,76,114,0
260.06052,260.09244,80,114,0
260.37967,260.4116,84,114,0
260.37967,260.4116,72,114,0
260.37967,260.4116,76,114,0
260.37967,260.4116,81,114,0
261.01797,261.0499,83,114,0
261.01797,261.0499,71,114,0
261.01797,261.0499,76,114,0
261.01797,261.0499,80,114,0
261.33713,261.36905,81,114,0
261.33713,261.36905,69,114,0
261.33713,261.36905,72,114,0
261.33713,261.36905,76,114,0
262.2946,262.69458,69,114,0
262.2946,262.69458,57,114,0
262.2946,262.69458,60,114,0
262.2946,262.69458,64,114,0
262.69458,263.09457,69,114,0
262.69458,263.09457,57,114,0
262.69458,263.09457,60,114,0
262.69458,263.09457,64,114,0
263.09457,263.49457,69,114,0
263.09457,263.49457,57,114,0
263.09457,263.49457,60,114,0
263.09457,263.49457,64,114,0
263.49457,264.69458,69,114,0
263.49457,264.69458,57,114,0
263.49457,264.69458,60,114,0
263.49457,264.69458,64,114,0
9.893619,10.212768,83,114,0
10.212768,10.531917,83,114,0
10.531917,10.851066,83,114,0
10.851066,11.170215,83,114,0
11.170215,11.489364,83,114,0
11.489364,11.808513,83,114,0
49.981113,51.98111,60,36,0
51.98111,52.98111,60,36,0
52.98111,53.98111,60,36,0
53.98111,55.981106,60,36,0
55.981106,56.981106,60,36,0
56.981106,57.981106,60,36,0
57.981106,58.981106,61,36,0
58.981106,59.981102,62,36,0
59.981102,60.981102,63,49,0
60.981102,61.981102,65,62,0
61.981102,62.981102,60,62,0
62.981102,63.9811,62,49,0
63.9811,64.9811,60,36,0
64.9811,65.981094,60,36,0
65.981094,66.981094,58,36,0
66.981094,67.31443,57,36,0
67.981094,68.981094,63,49,0
68.981094,69.981094,65,62,0
69.981094,70.981094,60,62,0
70.981094,71.981094,62,49,0
71.981094,72.98109,60,36,0
72.98109,73.98109,60,36,0
73.98109,74.98109,58,36,0
89.5117,89.83085,83,114,0
89.83085,90.15,83,114,0
90.15,90.46915,83,114,0
90.46915,90.7883,83,114,0
90.7883,91.107445,83,114,0
91.107445,91.4266,83,127,0
91.4266,91.74574,83,88,0
91.74574,92.064896,83,75,0
128.76703,130.68193,67,36,0
130.68193,131.63937,67,36,0
131.63937,132.59682,67,36,0
132.59682,134.51172,67,36,0
134.51172,135.46916,67,36,0
135.46916,136.4266,67,36,0
136.4266,137.38405,68,36,0
137.38405,138.3415,69,49,0
138.3415,139.29895,70,62,0
139.29895,140.2564,72,62,0
140.2564,141.21384,67,62,0
141.21384,142.1713,69,49,0
142.1713,143.12874,67,36,0
143.12874,144.08618,67,36,0
144.08618,145.04362,65,36,0
145.04362,146.00108,64,36,0
146.00108,146.95853,70,62,0
146.95853,147.91597,72,62,0
147.91597,148.87341,67,62,0
148.87341,149.83087,69,49,0
149.83087,150.78831,67,36,0
150.78831,151.74576,67,36,0
151.74576,152.7032,65,36,0
152.7032,153.02235,64,36,0
168.84921,169.16837,73,36,0
169.16837,169.48752,77,36,0
169.48752,169.80666,78,36,0
188.252,188.57115,75,36,0
190.1669,190.48605,73,36,0
192.08179,192.7201,74,36,0
193.99669,194.63498,74,36,0
223.03925,224.95415,64,36,0
224.95415,225.91159,64,36,0
225.91159,226.86903,64,36,0
226.86903,228.78394,64,36,0
228.78394,229.74138,64,36,0
229.74138,230.69882,64,36,0
230.69882,231.65627,65,49,0
231.65627,232.61372,66,62,0
232.61372,233.57117,67,62,0
233.57117,234.52861,69,62,0
234.52861,235.48605,64,62,0
235.48605,236.44351,66,49,0
236.44351,237.40096,64,36,0
237.40096,238.3584,64,36,0
238.3584,239.31584,62,36,0
239.31584,239.79457,61,36,0
240.2733,241.23074,67,36,0
241.23074,242.18819,69,36,0
242.18819,243.14563,64,36,0
243.14563,244.10309,66,49,0
244.10309,245.06053,64,36,0
245.06053,246.01797,64,36,0
246.01797,246.97542,62,36,0
0.638298,0.744681,64,49,0
0.74202144,0.8484044,66,49,0
0.851064,0.957447,68,49,0
0.957447,1.06383,66,36,0
1.0611705,1.1675534,68,36,0
1.170213,1.276596,69,36,0
1.276596,1.595745,71,75,0
1.595745,1.702128,64,49,0
1.6994684,1.8058515,66,49,0
1.808511,1.914894,68,49,0
1.914894,2.021277,66,36,0
2.0186174,2.1250005,68,36,0
2.12766,2.234043,69,36,0
2.234043,2.553192,71,62,0
2.553192,2.659575,69,36,0
2.6569154,2.7632985,71,36,0
2.765958,2.872341,72,36,0
2.872341,2.978724,74,36,0
2.9760644,3.0824475,76,36,0
3.085107,3.19149,77,36,0
3.19149,3.297873,76,36,0
3.2952135,3.4015963,74,36,0
3.404256,3.510639,72,36,0
3.510639,3.617022,71,36,0
3.6143625,3.7207453,69,36,0
3.723405,3.829788,67,36,0
3.829788,3.861703,65,49,0
4.148937,4.180852,60,49,0
4.468086,4.500001,57,49,0
4.787235,4.893618,56,49,0
4.8909583,4.9973416,54,49,0
5.000001,5.106384,52,49,0
5.106384,5.212767,51,49,0
5.2101073,5.3164907,49,49,0
5.31915,5.425533,47,49,0
5.425533,5.744682,57,75,0
5.744682,5.851065,56,36,0
5.8484054,5.954788,54,36,0
5.957448,6.063831,52,36,0
6.063831,6.170214,51,49,0
6.1675544,6.273937,49,49,0
6.276597,6.38298,47,49,0
6.38298,6.702129,57,75,0
6.702129,6.808512,56,36,0
6.8058524,6.9122353,54,36,0
6.914895,7.021278,52,36,0
7.021278,7.127661,51,49,0
7.1250014,7.2313843,49,49,0
7.234044,7.340427,47,49,0
7.340427,7.659576,57,75,0
7.659576,7.765959,56,49,0
7.7632995,7.8696823,54,49,0
7.872342,7.978725,52,49,0
7.978725,8.085108,54,49,0
8.082448,8.188831,52,49,0
8.191491,8.297874,51,49,0
8.297874,8.404257,52,49,0
8.401597,8.50798,51,49,0
8.51064,8.617023,50,49,0
8.617023,8.723406,52,49,0
8.720746,8.827129,50,49,0
8.829789,8.936172,48,49,0
8.936172,9.042555,50,62,0
9.039895,9.146278,48,62,0
9.148938,9.255321,47,62,0
9.255321,9.361704,48,62,0
9.359044,9.465427,47,62,0
9.468087,9.57447,45,62,0
9.57447,9.680853,44,75,0
9.678193,9.784576,45,75,0
9.787236,9.893619,47,75,0
9.893619,10.000002,44,75,0
9.997342,10.103725,45,75,0
10.106385,10.212768,47,75,0
10.212768,10.319151,44,75,0
10.316491,10.422874,45,75,0
10.425534,10.531917,47,75,0
10.531917,10.6383,44,88,0
10.63564,10.742023,45,88,0
10.744683,10.851066,47,88,0
10.851066,10.957449,44,88,0
10.954789,11.0611725,45,88,0
11.063832,11.170215,47,88,0
11.170215,11.276598,44,88,0
11.273938,11.3803215,45,88,0
11.382981,11.489364,47,88,0
11.489364,11.808513,44,127,0
11.489364,11.808513,32,119,0
14.314483,14.425593,64,49,0
14.422815,14.533927,66,49,0
14.536704,14.647816,68,49,0
14.647816,14.758926,66,36,0
14.756148,14.86726,68,36,0
14.870037,14.981149,69,36,0
14.981149,15.314482,71,75,0
15.314482,15.425592,64,49,0
15.422814,15.533926,66,49,0
15.536703,15.647815,68,49,0
15.647815,15.758925,66,36,0
15.756147,15.867259,68,36,0
15.870036,15.981148,69,36,0
15.981148,16.31448,71,62,0
16.31448,16.425592,69,36,0
16.422813,16.533924,71,36,0
16.536703,16.647814,72,36,0
16.647814,16.758924,74,36,0
16.756147,16.867258,76,36,0
16.870035,16.981146,77,36,0
16.981146,17.092258,76,36,0
17.08948,17.20059,74,36,0
17.20337,17.31448,72,36,0
17.31448,17.42559,71,36,0
17.422813,17.533924,69,36,0
17.536701,17.647812,67,36,0
17.647812,17.681147,65,49,0
17.981146,18.014479,60,49,0
18.314478,18.347813,57,49,0
18.647812,18.758923,55,49,0
18.756145,18.867256,54,49,0
18.870033,18.981144,52,49,0
18.981144,19.092255,51,49,0
19.089478,19.200588,49,49,0
19.203367,19.314478,47,49,0
19.314478,19.64781,57,75,0
19.64781,19.75892,55,36,0
19.756144,19.867254,54,36,0
19.870033,19.981144,52,36,0
19.981144,20.092255,51,49,0
20.089478,20.200588,49,49,0
20.203365,20.314476,47,49,0
20.314476,20.64781,57,75,0
20.64781,20.75892,55,49,0
20.756144,20.867254,54,49,0
20.870031,20.981142,52,49,0
20.981142,21.092253,50,49,0
21.089476,21.200586,52,49,0
21.203365,21.314476,54,49,0
21.314476,21.425587,52,49,0
21.42281,21.53392,54,49,0
21.536697,21.647808,55,49,0
21.647808,21.758919,54,49,0
21.756142,21.867252,55,49,0
21.870031,21.981142,57,49,0
21.981142,22.092253,56,62,0
22.089476,22.200586,57,62,0
22.203363,22.314474,59,62,0
22.314474,22.425585,57,62,0
22.422808,22.533918,59,62,0
22.536697,22.647808,60,62,0
22.647808,22.758919,62,88,0
22.756142,22.867252,58,88,0
22.87003,22.98114,53,88,0
22.98114,23.09225,50,88,0
23.089474,23.200584,46,88,0
23.203363,23.314474,41,88,0
23.314474,23.425585,38,88,0
23.422806,23.533918,34,88,0
23.536695,23.647806,29,88,0
23.647806,23.814472,26,88,0
23.98114,24.014473,52,114,0
23.98114,24.014473,40,102,0
23.98114,24.014473,45,106,0
23.98114,24.014473,48,110,0
24.314472,24.347805,52,114,0
24.314472,24.347805,40,102,0
24.314472,24.347805,44,106,0
24.314472,24.347805,47,110,0
24.647806,24.758917,60,62,0
24.756138,24.86725,59,62,0
24.870028,24.981138,57,62,0
24.981138,25.092249,56,75,0
25.089472,25.200583,54,75,0
25.20336,25.314472,52,75,0
25.314472,25.647804,62,75,0
25.647804,25.758915,60,62,0
25.756138,25.867249,59,62,0
25.870026,25.981138,57,62,0
25.981138,26.092249,56,75,0
26.08947,26.200583,54,75,0
26.20336,26.31447,52,75,0
26.31447,26.647804,62,75,0
26.647804,26.758915,60,75,0
26.756136,26.867249,59,75,0
26.870026,26.981136,57,75,0
26.981136,27.092247,56,75,0
27.08947,27.20058,57,75,0
27.203358,27.31447,59,75,0
27.31447,27.425581,57,75,0
27.422802,27.533915,59,75,0
27.536692,27.647802,60,75,0
27.647802,27.758913,62,88,0
27.756136,27.867247,58,88,0
27.870024,27.981136,53,88,0
27.981136,28.092247,50,88,0
28.089468,28.20058,46,88,0
28.203358,28.314468,41,88,0
28.314468,28.42558,38,88,0
28.422802,28.533913,34,88,0
28.53669,28.647802,29,88,0
28.647802,28.814468,26,88,0
28.981134,29.014467,52,114,0
28.981134,29.014467,40,102,0
28.981134,29.014467,45,106,0
28.981134,29.014467,48,110,0
29.314468,29.347801,52,114,0
29.314468,29.347801,40,102,0
29.314468,29.347801,44,106,0
29.314468,29.347801,47,110,0
29.6478,30.5228,45,88,0
30.481133,30.5228,45,88,0
30.5228,30.564466,47,88,0
30.564466,30.606133,48,88,0
30.606133,30.617245,50,88,0
29.6478,30.6478,33,88,0
29.6478,30.6478,36,88,0
29.6478,30.6478,40,88,0
30.6478,30.814466,52,88,0
30.6478,30.814466,40,88,0
30.814466,30.831133,53,88,0
30.814466,30.831133,41,88,0
30.981133,30.997799,52,88,0
30.981133,30.997799,40,88,0
31.147799,31.164465,53,88,0
31.147799,31.164465,41,88,0
31.314465,31.331133,52,88,0
31.314465,31.331133,40,88,0
31.647799,32.522797,41,101,0
32.481133,32.522797,41,101,0
32.522797,32.564465,43,101,0
32.564465,32.606133,45,101,0
32.606133,32.647797,47,101,0
31.647799,32.647797,29,101,0
31.647799,32.647797,33,101,0
31.647799,32.647797,36,101,0
32.647797,32.664463,48,101,0
32.647797,32.664463,36,101,0
32.814465,32.83113,50,101,0
32.814465,32.83113,38,101,0
32.98113,32.9978,48,101,0
32.98113,32.9978,36,101,0
33.147797,33.164463,50,101,0
33.147797,33.164463,38,101,0
33.314465,33.33113,48,101,0
33.314465,33.33113,36,101,0
33.647797,34.31446,44,101,0
33.647797,34.31446,32,101,0
34.31446,34.347797,45,127,0
34.31446,34.347797,33,119,0
34.647797,34.68113,46,127,0
34.647797,34.68113,34,119,0
34.98113,35.01446,47,127,0
34.98113,35.01446,35,119,0
35.31446,35.347794,48,127,0
35.31446,35.347794,36,119,0
35.647793,35.68113,50,127,0
35.647793,35.68113,38,119,0
35.98113,36.01446,52,127,0
35.98113,36.01446,40,119,0
36.31446,36.347794,52,127,0
36.31446,36.347794,40,119,0
36.647793,37.647793,57,101,0
36.647793,37.647793,45,101,0
36.647793,37.647793,48,101,0
36.647793,37.647793,52,101,0
37.647793,37.66446,56,101,0
37.647793,37.66446,52,101,0
37.81446,37.831127,57,101,0
37.81446,37.831127,53,101,0
37.981125,37.99779,56,101,0
37.981125,37.99779,52,101,0
38.147793,38.16446,57,101,0
38.147793,38.16446,53,101,0
38.314457,38.331123,56,101,0
38.314457,38.331123,52,101,0
38.647793,39.64779,53,101,0
38.647793,39.64779,41,101,0
38.647793,39.64779,45,101,0
38.647793,39.64779,48,101,0
39.64779,39.664455,52,101,0
39.64779,39.664455,48,101,0
39.814457,39.831123,53,101,0
39.814457,39.831123,50,101,0
39.981125,39.99779,52,101,0
39.981125,39.99779,48,101,0
40.14779,40.164455,53,101,0
40.14779,40.164455,50,101,0
40.314457,40.331123,52,101,0
40.314457,40.331123,48,101,0
40.64779,41.314457,56,101,0
40.64779,41.314457,50,101,0
40.64779,41.314457,44,101,0
40.64779,41.314457,47,101,0
40.64779,41.314457,53,101,0
41.314457,41.48112,57,101,0
41.314457,41.48112,45,101,0
41.314457,41.48112,48,101,0
41.314457,41.48112,52,101,0
41.64779,41.98112,58,101,0
41.64779,41.98112,46,101,0
41.64779,41.98112,50,101,0
41.64779,41.98112,53,101,0
41.98112,42.314453,59,101,0
41.98112,42.314453,53,101,0
41.98112,42.314453,47,101,0
41.98112,42.314453,50,101,0
41.98112,42.314453,56,101,0
42.314453,42.64779,60,101,0
42.314453,42.64779,48,101,0
42.314453,42.64779,52,101,0
42.314453,42.64779,57,101,0
42.64779,42.98112,62,101,0
42.64779,42.98112,50,101,0
42.64779,42.98112,53,101,0
42.64779,42.98112,59,101,0
42.98112,43.314453,64,101,0
42.98112,43.314453,52,101,0
42.98112,43.314453,57,101,0
42.98112,43.314453,60,101,0
43.314453,43.647785,64,101,0
43.314453,43.647785,52,101,0
43.314453,43.647785,56,101,0
43.314453,43.647785,59,101,0
43.647785,43.814453,45,101,0
43.814453,43.897785,47,101,0
43.897785,43.98112,48,101,0
43.98112,44.064453,50,101,0
44.064453,44.147785,52,101,0
44.147785,44.23112,54,101,0
44.23112,44.314453,56,101,0
44.314453,44.397785,57,101,0
44.397785,44.481117,59,101,0
44.481117,44.564453,60,101,0
44.564453,44.647785,62,101,0
44.647785,44.731117,64,101,0
44.731117,44.814453,65,101,0
44.814453,44.897785,67,101,0
44.897785,44.981117,69,101,0
44.981117,45.01445,70,101,0
45.981117,46.01445,67,101,0
46.981117,47.01445,64,75,0
47.981117,48.01445,61,36,0
48.981113,49.014446,60,36,0
49.981113,50.14778,41,36,0
50.14778,50.314445,48,36,0
50.314445,50.481113,53,36,0
50.481113,50.64778,48,36,0
50.64778,50.814445,57,36,0
50.981113,51.147778,40,36,0
51.147778,51.314445,48,36,0
51.314445,51.481113,55,36,0
51.481113,51.647778,48,36,0
51.647778,51.814445,58,36,0
51.98111,52.147778,41,36,0
52.147778,52.314445,48,36,0
52.314445,52.48111,57,36,0
52.48111,52.647778,48,36,0
52.647778,52.814445,53,36,0
52.98111,53.147778,40,36,0
53.147778,53.31444,48,36,0
53.31444,53.48111,52,36,0
53.48111,53.647778,48,36,0
53.647778,53.81444,55,36,0
53.98111,54.147778,41,36,0
54.147778,54.31444,48,36,0
54.31444,54.48111,53,36,0
54.48111,54.647774,48,36,0
54.647774,54.81444,57,36,0
54.98111,55.147774,40,36,0
55.147774,55.31444,48,36,0
55.31444,55.48111,55,36,0
55.48111,55.647774,48,36,0
55.647774,55.81444,58,36,0
55.981106,56.147774,41,36,0
56.147774,56.31444,48,36,0
56.31444,56.481106,57,36,0
56.481106,56.647774,48,36,0
56.647774,56.81444,53,36,0
56.981106,57.147774,40,36,0
57.147774,57.314438,48,36,0
57.314438,57.481106,52,36,0
57.481106,57.647774,48,36,0
57.647774,57.814438,55,36,0
57.981106,58.147774,40,36,0
58.147774,58.314438,49,36,0
58.314438,58.481106,52,36,0
58.481106,58.64777,49,36,0
58.64777,58.814438,55,36,0
58.981106,59.14777,41,36,0
59.14777,59.314438,50,36,0
59.314438,59.481106,53,36,0
59.481106,59.64777,50,36,0
59.64777,59.814438,58,36,0
59.981102,60.14777,41,49,0
60.14777,60.314438,53,49,0
60.314438,60.481102,60,49,0
60.481102,60.64777,53,49,0
60.64777,60.814438,60,49,0
60.981102,61.14777,46,62,0
61.14777,61.314434,53,62,0
61.314434,61.481102,58,62,0
61.481102,61.64777,53,62,0
61.64777,61.814434,62,62,0
61.981102,62.147766,38,62,0
62.147766,62.314434,50,62,0
62.314434,62.481102,54,62,0
62.481102,62.647766,50,62,0
62.647766,62.814434,57,62,0
62.981102,63.147766,43,49,0
63.147766,63.314434,50,49,0
63.314434,63.4811,55,49,0
63.4811,63.647766,50,49,0
63.647766,63.814434,58,49,0
63.9811,64.147766,40,36,0
64.147766,64.31443,48,36,0
64.31443,64.4811,52,36,0
64.4811,64.647766,48,36,0
64.647766,64.81443,55,36,0
64.9811,65.147766,41,36,0
65.147766,65.31443,48,36,0
65.31443,65.481094,57,36,0
65.481094,65.647766,48,36,0
65.647766,65.81443,53,36,0
65.981094,66.147766,36,36,0
66.147766,66.31443,48,36,0
66.31443,66.481094,55,36,0
66.481094,66.647766,48,36,0
66.647766,66.81443,52,36,0
66.981094,67.147766,41,36,0
67.147766,67.31443,48,36,0
67.31443,67.481094,57,36,0
67.481094,67.647766,48,36,0
67.647766,67.81443,53,36,0
67.981094,68.14776,41,49,0
68.14776,68.31443,53,49,0
68.31443,68.481094,60,49,0
68.481094,68.64776,53,49,0
68.64776,68.81443,60,49,0
68.981094,69.14776,46,62,0
69.14776,69.31443,53,62,0
69.31443,69.481094,58,62,0
69.481094,69.64776,53,62,0
69.64776,69.81443,62,62,0
69.981094,70.14776,38,62,0
70.14776,70.31443,50,62,0
70.31443,70.481094,54,62,0
70.481094,70.64776,50,62,0
70.64776,70.81442,57,62,0
70.981094,71.14776,43,49,0
71.14776,71.31442,50,49,0
71.31442,71.481094,55,49,0
71.481094,71.64776,50,49,0
71.64776,71.81442,58,49,0
71.981094,72.14776,40,36,0
72.14776,72.31442,48,36,0
72.31442,72.481094,52,36,0
72.481094,72.64776,48,36,0
72.64776,72.81442,55,36,0
72.98109,73.14776,41,36,0
73.14776,73.31442,48,36,0
73.31442,73.48109,57,36,0
73.48109,73.64776,48,36,0
73.64776,73.81442,53,36,0
73.98109,74.14776,36,36,0
74.14776,74.31442,48,36,0
74.31442,74.48109,55,36,0
74.48109,74.64776,48,36,0
74.64776,74.81442,52,36,0
74.98109,75.14776,41,36,0
75.14776,75.31442,48,36,0
75.31442,75.48109,53,36,0
75.48109,75.64775,48,36,0
75.64775,75.81442,57,36,0
75.98109,76.14775,41,36,0
76.14775,76.31442,48,36,0
76.31442,76.48109,53,36,0
76.48109,76.64775,48,36,0
76.64775,76.81442,57,36,0
76.98109,77.14775,40,36,0
77.14775,77.322174,48,36,0
77.322174,77.5051,52,36,0
77.5051,77.6974,48,36,0
77.6974,77.90011,57,36,0
78.114395,78.34167,40,36,0
78.34167,78.5836,47,36,0
78.5836,78.842224,52,36,0
78.842224,79.100845,47,36,0
79.100845,79.35947,56,36,0
79.61809,79.93723,45,36,0
80.256386,80.36276,64,36,0
80.36011,80.46649,66,36,0
80.46915,80.57553,68,36,0
80.57553,80.681915,66,36,0
80.67925,80.78564,68,36,0
80.7883,80.89468,69,36,0
80.89468,81.21383,71,75,0
81.21383,81.32021,64,49,0
81.31755,81.423935,66,49,0
81.4266,81.532974,68,49,0
81.532974,81.63936,66,36,0
81.6367,81.74309,68,36,0
81.74574,81.85213,69,36,0
81.85213,82.17127,71,62,0
82.17127,82.27766,69,36,0
82.275,82.381386,71,36,0
82.38404,82.490425,72,36,0
82.490425,82.59681,74,36,0
82.59415,82.70053,76,36,0
82.70319,82.80957,77,36,0
82.80957,82.915955,76,36,0
82.9133,83.019684,74,36,0
83.02234,83.12872,72,36,0
83.12872,83.23511,71,36,0
83.232445,83.33883,69,36,0
83.34149,83.44787,67,36,0
83.44787,83.47979,65,49,0
83.76702,83.798935,60,49,0
84.08617,84.11809,57,49,0
84.40532,84.5117,56,49,0
84.50904,84.615425,54,49,0
84.61809,84.724464,52,49,0
84.724464,84.83085,51,49,0
84.82819,84.93458,49,49,0
84.93723,85.04362,47,49,0
85.04362,85.36276,57,75,0
85.36276,85.46915,56,36,0
85.46649,85.572876,54,36,0
85.57553,85.681915,52,36,0
85.681915,85.7883,51,49,0
85.78564,85.89202,49,49,0
85.894684,86.00106,47,49,0
86.00106,86.32021,57,75,0
86.32021,86.4266,56,36,0
86.423935,86.53032,54,36,0
86.53298,86.63936,52,36,0
86.63936,86.74574,51,49,0
86.74309,86.84947,49,49,0
86.85213,86.95851,47,49,0
86.95851,87.27766,57,75,0
87.27766,87.38404,56,49,0
87.381386,87.48777,54,49,0
87.490425,87.59681,52,49,0
87.59681,87.70319,54,49,0
87.70053,87.806915,52,49,0
87.80958,87.915955,51,49,0
87.915955,88.02234,52,49,0
88.019684,88.12607,51,49,0
88.12872,88.23511,50,49,0
88.23511,88.34149,52,49,0
88.33883,88.44521,50,49,0
88.447876,88.55425,48,49,0
88.55425,88.66064,50,62,0
88.65798,88.764366,48,62,0
88.76702,88.873405,47,62,0
88.873405,88.97979,48,62,0
88.97713,89.08351,47,62,0
89.086174,89.19255,45,62,0
89.19255,89.298935,44,75,0
89.29628,89.402664,45,75,0
89.40532,89.5117,47,75,0
89.5117,89.61809,44,75,0
89.615425,89.72181,45,75,0
89.72447,89.83085,47,75,0
89.83085,89.93723,44,75,0
89.93458,90.04096,45,75,0
90.04362,90.15,47,75,0
90.15,90.256386,44,88,0
90.25372,90.36011,45,88,0
90.36277,90.46915,47,88,0
90.46915,90.57553,44,88,0
90.572876,90.67925,45,88,0
90.681915,90.7883,47,88,0
90.7883,90.894684,44,88,0
90.89202,90.998405,45,88,0
91.00107,91.107445,47,88,0
91.107445,91.4266,43,101,0
91.107445,91.4266,31,101,0
93.66064,93.76702,67,49,0
93.764366,93.87074,69,49,0
93.873405,93.97979,71,49,0
93.97979,94.086174,69,36,0
94.08351,94.189896,71,36,0
94.19256,94.298935,72,36,0
94.298935,94.61809,74,62,0
94.61809,94.72447,67,49,0
94.72181,94.82819,69,49,0
94.83086,94.93723,71,49,0
94.93723,95.04362,69,36,0
95.04096,95.14734,71,36,0
95.15,95.256386,72,36,0
95.256386,95.57553,74,62,0
95.57553,95.681915,72,36,0
95.67926,95.78564,74,36,0
95.7883,95.894684,75,36,0
95.894684,96.00107,77,49,0
95.998405,96.10479,79,49,0
96.10745,96.21383,80,49,0
96.21383,96.32021,79,49,0
96.31756,96.423935,77,49,0
96.4266,96.53298,75,49,0
96.53298,96.639366,74,36,0
96.6367,96.74309,72,36,0
96.74575,96.85213,70,36,0
96.85213,96.88405,68,49,0
97.17128,97.20319,63,49,0
97.490425,97.52235,60,49,0
97.80958,97.91596,59,49,0
97.9133,98.019684,57,49,0
98.02235,98.12872,55,49,0
98.12872,98.23511,54,49,0
98.23245,98.33883,52,49,0
98.34149,98.447876,50,49,0
98.447876,98.76702,60,75,0
98.76702,98.873405,59,36,0
98.87075,98.97713,57,36,0
98.97979,99.086174,55,36,0
99.086174,99.19256,54,49,0
99.189896,99.29628,52,49,0
99.29894,99.40532,50,49,0
99.40532,99.72447,60,75,0
99.72447,99.83086,59,36,0
99.82819,99.93458,57,36,0
99.93724,100.04362,55,36,0
100.04362,100.15,54,49,0
100.14735,100.25372,52,49,0
100.256386,100.36277,50,49,0
100.36277,100.681915,60,75,0
100.681915,100.7883,59,49,0
100.785645,100.89202,57,49,0
100.894684,101.00107,55,49,0
101.00107,101.10745,57,49,0
101.10479,101.211174,55,49,0
101.21384,101.32021,54,49,0
101.32021,101.4266,55,49,0
101.42394,101.53032,54,49,0
101.53298,101.639366,53,49,0
101.639366,101.74575,52,49,0
101.74309,101.84947,50,49,0
101.852135,101.95851,48,49,0
101.95851,102.064896,50,62,0
102.06224,102.16862,48,62,0
102.17128,102.277664,47,62,0
102.277664,102.38405,48,62,0
102.381386,102.48777,47,62,0
102.49043,102.59681,46,62,0
102.59681,102.756386,45,75,0
102.91596,103.02235,57,75,0
103.019684,103.12607,53,75,0
103.12873,103.23511,48,75,0
103.23511,103.34149,45,75,0
103.33884,103.44521,41,75,0
103.447876,103.55426,36,75,0
103.55426,103.71384,33,75,0
103.873405,103.90532,59,101,0
103.873405,103.90532,47,89,0
103.873405,103.90532,52,93,0
103.873405,103.90532,55,97,0
104.19256,104.22447,59,101,0
104.19256,104.22447,47,89,0
104.19256,104.22447,51,93,0
104.19256,104.22447,54,97,0
104.5117,104.61809,67,36,0
104.61543,104.72181,66,36,0
104.72447,104.83086,64,36,0
104.83086,104.93724,63,49,0
104.93458,105.04096,61,49,0
105.04362,105.15,59,49,0
105.15,105.469154,69,49,0
105.469154,105.57554,67,36,0
105.572876,105.67926,66,36,0
105.681915,105.7883,64,36,0
105.7883,105.894684,63,49,0
105.89203,105.998405,61,49,0
106.00107,106.10745,59,49,0
106.10745,106.4266,69,49,0
106.4266,106.53298,67,49,0
106.53033,106.6367,66,49,0
106.639366,106.74575,64,49,0
106.74575,106.852135,63,49,0
106.84947,106.95586,64,49,0
106.95851,107.064896,66,49,0
107.064896,107.17128,64,49,0
107.168625,107.275,66,49,0
107.277664,107.38405,67,49,0
107.70319,107.80958,57,88,0
107.80692,107.9133,53,88,0
107.91596,108.02235,48,88,0
108.02235,108.12873,45,88,0
108.12607,108.23245,41,88,0
108.23511,108.34149,36,88,0
108.34149,108.50107,33,88,0
108.660645,108.69256,59,114,0
108.660645,108.69256,47,102,0
108.660645,108.69256,52,106,0
108.660645,108.69256,55,110,0
108.97979,109.0117,59,114,0
108.97979,109.0117,47,102,0
108.97979,109.0117,51,106,0
108.97979,109.0117,54,110,0
109.29894,110.256386,52,88,0
109.29894,110.256386,40,88,0
109.29894,110.256386,43,88,0
109.29894,110.256386,47,88,0
110.256386,110.27235,59,88,0
110.256386,110.27235,47,88,0
110.41596,110.43192,61,88,0
110.41596,110.43192,49,88,0
110.57554,110.59149,59,88,0
110.57554,110.59149,47,88,0
110.735115,110.75107,61,88,0
110.735115,110.75107,49,88,0
110.894684,110.910645,59,88,0
110.894684,110.910645,47,88,0
111.21384,112.17128,50,88,0
111.21384,112.17128,38,88,0
111.21384,112.17128,42,88,0
111.21384,112.17128,45,88,0
112.17128,112.18724,57,88,0
112.17128,112.18724,45,88,0
112.33086,112.34682,58,88,0
112.33086,112.34682,46,88,0
112.49043,112.506386,57,88,0
112.49043,112.506386,45,88,0
112.65001,112.66596,58,88,0
112.65001,112.66596,46,88,0
112.80958,112.82554,57,88,0
112.80958,112.82554,45,88,0
113.12873,113.76703,48,88,0
113.12873,113.76703,36,88,0
113.76703,113.79894,52,114,0
113.76703,113.79894,40,106,0
114.086174,114.11809,53,114,0
114.086174,114.11809,41,106,0
114.40533,114.43724,54,114,0
114.40533,114.43724,42,106,0
114.72447,114.756386,55,114,0
114.72447,114.756386,43,106,0
115.043625,115.07554,57,114,0
115.043625,115.07554,45,106,0
115.36277,115.394684,59,114,0
115.36277,115.394684,47,106,0
115.68192,115.71384,59,114,0
115.68192,115.71384,47,106,0
116.00107,116.95852,64,88,0
116.00107,116.95852,52,88,0
116.00107,116.95852,55,88,0
116.00107,116.95852,59,88,0
116.95852,116.97447,51,88,0
116.95852,116.97447,47,88,0
117.11809,117.13405,52,88,0
117.11809,117.13405,48,88,0
117.277664,117.293625,51,88,0
117.277664,117.293625,47,88,0
117.43724,117.4532,52,88,0
117.43724,117.4532,48,88,0
117.59682,117.61277,51,88,0
117.59682,117.61277,47,88,0
117.91596,118.87341,62,88,0
117.91596,118.87341,50,88,0
117.91596,118.87341,54,88,0
117.91596,118.87341,57,88,0
118.87341,118.889366,49,88,0
118.87341,118.889366,45,88,0
119.03298,119.04894,50,88,0
119.03298,119.04894,46,88,0
119.19256,119.20852,49,88,0
119.19256,119.20852,45,88,0
119.352135,119.368095,50,88,0
119.352135,119.368095,46,88,0
119.51171,119.527664,49,88,0
119.51171,119.527664,45,88,0
119.83086,120.469154,48,88,0
119.83086,120.469154,36,88,0
119.83086,120.469154,40,88,0
119.83086,120.469154,43,88,0
120.469154,120.62873,52,88,0
120.469154,120.62873,40,88,0
120.469154,120.62873,43,88,0
120.469154,120.62873,47,88,0
120.78831,121.10745,53,88,0
120.78831,121.10745,41,88,0
120.78831,121.10745,45,88,0
120.78831,121.10745,48,88,0
121.10745,121.426605,54,88,0
121.10745,121.426605,42,88,0
121.10745,121.426605,45,88,0
121.10745,121.426605,51,88,0
121.426605,121.74575,55,88,0
121.426605,121.74575,43,88,0
121.426605,121.74575,47,88,0
121.426605,121.74575,52,88,0
121.74575,122.0649,57,88,0
121.74575,122.0649,45,88,0
121.74575,122.0649,48,88,0
121.74575,122.0649,54,88,0
122.0649,122.38405,59,88,0
122.0649,122.38405,47,88,0
122.0649,122.38405,52,88,0
122.0649,122.38405,55,88,0
122.38405,122.7032,59,88,0
122.38405,122.7032,47,88,0
122.38405,122.7032,51,88,0
122.38405,122.7032,54,88,0
122.7032,122.86277,52,88,0
122.86277,122.94256,54,88,0
122.94256,123.02235,55,88,0
123.02235,123.102135,57,88,0
123.102135,123.18192,59,88,0
123.18192,123.26171,61,88,0
123.26171,123.3415,63,88,0
123.3415,123.42129,64,88,0
123.42129,123.50107,66,88,0
123.50107,123.58086,67,88,0
123.58086,123.660645,69,88,0
123.660645,123.74043,71,88,0
123.74043,123.82022,72,88,0
123.82022,123.90001,74,88,0
123.90001,123.9798,76,88,0
123.9798,124.01171,77,101,0
124.93724,124.969154,74,88,0
125.89469,125.926605,71,62,0
126.852135,126.88405,68,36,0
127.809586,127.8415,67,36,0
128.76703,128.9266,48,36,0
128.9266,129.08618,55,36,0
129.08618,129.24576,60,36,0
129.24576,129.40533,55,36,0
129.40533,129.5649,64,36,0
129.72447,129.88405,47,36,0
129.88405,130.04362,55,36,0
130.04362,130.2032,62,36,0
130.2032,130.36278,55,36,0
130.36278,130.52235,65,36,0
130.68193,130.84149,48,36,0
130.84149,131.00107,55,36,0
131.00107,131.16064,64,36,0
131.16064,131.32022,55,36,0
131.32022,131.4798,60,36,0
131.63937,131.79895,47,36,0
131.79895,131.95853,55,36,0
131.95853,132.11809,65,36,0
132.11809,132.27766,55,36,0
132.27766,132.43724,62,36,0
132.59682,132.7564,48,36,0
132.7564,132.91597,55,36,0
132.91597,133.07555,60,36,0
133.07555,133.23512,55,36,0
133.23512,133.39468,64,36,0
133.55426,133.71384,47,36,0
133.71384,133.87341,55,36,0
133.87341,134.03299,62,36,0
134.03299,134.19257,55,36,0
134.19257,134.35214,65,36,0
134.51172,134.67128,48,36,0
134.67128,134.83086,55,36,0
134.83086,134.99043,64,36,0
134.99043,135.15001,55,36,0
135.15001,135.30959,60,36,0
135.46916,135.62874,47,36,0
135.62874,135.78831,55,36,0
135.78831,135.94788,65,36,0
135.94788,136.10745,55,36,0
136.10745,136.26703,62,36,0
136.4266,136.58618,47,36,0
136.58618,136.74576,56,36,0
136.74576,136.90533,65,36,0
136.90533,137.06491,56,36,0
137.06491,137.22447,62,36,0
137.38405,137.54362,48,49,0
137.54362,137.7032,57,49,0
137.7032,137.86278,65,49,0
137.86278,138.02235,57,49,0
138.02235,138.18193,60,49,0
138.3415,138.50107,48,62,0
138.50107,138.66064,60,62,0
138.66064,138.82022,67,62,0
138.82022,138.9798,60,62,0
138.9798,139.13937,64,62,0
139.29895,139.45853,53,62,0
139.45853,139.6181,60,62,0
139.6181,139.77766,65,62,0
139.77766,139.93724,60,62,0
139.93724,140.09682,69,62,0
140.2564,140.41597,45,62,0
140.41597,140.57555,57,62,0
140.57555,140.73512,61,62,0
140.73512,140.8947,57,62,0
140.8947,141.05426,64,62,0
141.21384,141.37341,50,49,0
141.37341,141.53299,57,49,0
141.53299,141.69257,62,49,0
141.69257,141.85214,57,49,0
141.85214,142.01172,65,49,0
142.1713,142.33086,47,36,0
142.33086,142.49043,55,36,0
142.49043,142.65001,65,36,0
142.65001,142.80959,55,36,0
142.80959,142.96916,62,36,0
143.12874,143.28831,48,36,0
143.28831,143.44789,55,36,0
143.44789,143.60745,64,36,0
143.60745,143.76703,55,36,0
143.76703,143.9266,60,36,0
144.08618,144.24576,43,36,0
144.24576,144.40533,55,36,0
144.40533,144.56491,62,36,0
144.56491,144.72449,55,36,0
144.72449,144.88405,59,36,0
145.04362,145.2032,48,36,0
145.2032,145.36278,55,36,0
145.36278,145.52235,64,36,0
145.52235,145.68193,55,36,0
145.68193,145.8415,60,36,0
146.00108,146.16064,48,62,0
146.16064,146.32022,60,62,0
146.32022,146.4798,67,62,0
146.4798,146.63937,60,62,0
146.63937,146.79895,64,62,0
146.95853,147.1181,53,62,0
147.1181,147.27768,60,62,0
147.27768,147.43724,65,62,0
147.43724,147.59682,60,62,0
147.59682,147.7564,69,62,0
147.91597,148.07555,45,62,0
148.07555,148.23512,57,62,0
148.23512,148.3947,61,62,0
148.3947,148.55428,57,62,0
148.55428,148.71384,64,62,0
148.87341,149.03299,50,49,0
149.03299,149.19257,57,49,0
149.19257,149.35214,62,49,0
149.35214,149.51172,57,49,0
149.51172,149.6713,65,49,0
149.83087,149.99043,47,36,0
149.99043,150.15001,55,36,0
150.15001,150.30959,65,36,0
150.30959,150.46916,55,36,0
150.46916,150.62874,62,36,0
150.78831,150.94789,48,36,0
150.94789,151.10745,55,36,0
151.10745,151.26703,64,36,0
151.26703,151.4266,55,36,0
151.4266,151.58618,60,36,0
151.74576,151.90533,43,36,0
151.90533,152.06491,55,36,0
152.06491,152.22449,62,36,0
152.22449,152.38405,55,36,0
152.38405,152.54362,59,36,0
152.7032,152.86278,48,36,0
152.86278,153.02235,55,36,0
153.02235,153.18193,60,36,0
153.18193,153.3415,55,36,0
153.3415,153.50108,64,36,0
153.66064,153.82022,48,36,0
153.82022,153.9798,55,36,0
153.9798,154.13937,60,36,0
154.13937,154.29895,55,36,0
154.29895,154.45853,64,36,0
154.6181,154.77768,47,36,0
154.77768,154.94434,55,36,0
154.94434,155.11876,59,36,0
155.11876,155.30168,55,36,0
155.30168,155.49399,64,36,0
155.6967,155.91098,47,36,0
155.91098,156.13826,54,36,0
156.13826,156.38019,59,36,0
156.38019,156.62213,54,36,0
156.62213,156.86406,63,36,0
157.106,157.21237,56,88,0
157.20972,157.3161,65,88,0
157.31876,157.42514,62,88,0
157.42514,157.53152,59,75,0
157.52887,157.63525,56,75,0
157.63791,157.7443,53,75,0
157.7443,157.85068,50,62,0
157.84802,157.9544,47,62,0
157.95706,158.06345,45,62,0
158.06345,158.3826,44,62,0
159.34004,159.49962,46,36,0
159.49962,159.6592,53,36,0
159.6592,159.81876,58,36,0
159.81876,159.97833,53,36,0
159.97833,160.13791,62,36,0
160.29749,160.45706,46,36,0
160.45706,160.61664,53,36,0
160.61664,160.77621,58,36,0
160.77621,160.93579,53,36,0
160.93579,161.09535,62,36,0
161.25493,161.4145,45,36,0
161.4145,161.58118,53,36,0
161.58118,161.75558,57,36,0
161.75558,161.93852,53,36,0
161.93852,162.13083,62,36,0
162.33353,162.54782,45,36,0
162.54782,162.77509,52,36,0
162.77509,163.01703,57,36,0
163.01703,163.25896,52,36,0
163.25896,163.5009,61,36,0
163.74283,163.84921,54,88,0
163.84656,163.95294,63,88,0
163.9556,164.06198,60,88,0
164.06198,164.16837,57,75,0
164.1657,164.27208,54,75,0
164.27475,164.38113,51,75,0
164.38113,164.4875,48,62,0
164.48485,164.59123,45,62,0
164.59389,164.70027,43,62,0
164.70027,164.85985,42,62,0
165.97687,166.13644,44,36,0
166.13644,166.29602,51,36,0
166.29602,166.4556,56,36,0
166.4556,166.61517,51,36,0
166.61517,166.77475,60,36,0
166.93433,167.09389,44,36,0
167.09389,167.25346,51,36,0
167.25346,167.41304,56,36,0
167.41304,167.57262,51,36,0
167.57262,167.7322,60,36,0
167.89177,168.05135,44,36,0
168.05135,168.21092,53,36,0
168.21092,168.37048,56,36,0
168.37048,168.53006,53,36,0
168.53006,168.68964,61,36,0
168.84921,169.00879,44,36,0
169.00879,169.16837,53,36,0
169.16837,169.32794,56,36,0
169.32794,169.48752,53,36,0
169.48752,169.64708,61,36,0
169.80666,169.96623,32,36,0
169.96623,170.1329,44,36,0
170.1329,170.30731,51,36,0
170.30731,170.49025,44,36,0
170.49025,170.68256,54,36,0
170.88525,171.09955,32,36,0
171.09955,171.32681,44,36,0
171.32681,171.56876,51,36,0
171.56876,171.81068,44,36,0
171.81068,172.05263,54,36,0
172.29456,174.20946,61,36,0
172.29456,174.20946,49,36,0
172.29456,174.20946,53,36,0
172.29456,174.20946,56,36,0
174.20946,175.1669,51,36,0
175.1669,176.12434,54,36,0
174.20946,176.12434,60,36,0
174.20946,176.12434,56,36,0
174.20946,176.12434,49,36,0
176.12434,178.03925,61,36,0
176.12434,178.03925,49,36,0
176.12434,178.03925,52,36,0
176.12434,178.03925,56,36,0
178.03925,178.99669,51,36,0
178.99669,179.95413,54,36,0
178.03925,179.95413,60,36,0
179.95413,180.27328,61,36,0
178.03925,180.27328,49,36,0
178.03925,180.27328,56,36,0
179.95413,180.27328,52,36,0
180.91158,181.01796,60,36,0
181.0153,181.12169,61,36,0
181.12434,181.23073,63,36,0
181.23073,181.33711,61,36,0
181.33446,181.44084,63,36,0
181.4435,181.54988,64,36,0
181.54988,181.65627,66,36,0
181.6536,181.75998,64,36,0
181.76265,181.86903,63,36,0
181.86903,182.50732,64,36,0
182.50732,182.82648,61,36,0
182.82648,182.93286,60,36,0
182.93019,183.03658,61,36,0
183.03925,183.14563,63,36,0
183.14563,183.252,61,36,0
183.24934,183.35573,63,36,0
183.35838,183.46477,64,36,0
183.46477,183.57115,66,36,0
183.5685,183.67488,64,36,0
183.67754,183.78392,63,36,0
183.78392,184.74136,64,36,0
184.74136,184.84775,63,36,0
184.8451,184.95148,64,36,0
184.95413,185.06052,66,36,0
185.06052,185.1669,64,36,0
185.16425,185.27063,66,36,0
185.27328,185.37967,67,36,0
185.37967,185.48605,69,36,0
185.48338,185.58977,67,36,0
185.59244,185.69882,66,36,0
185.69882,185.80519,64,36,0
185.80254,185.90892,66,36,0
185.91158,186.01796,68,36,0
186.01796,186.12434,66,36,0
186.12169,186.22807,68,36,0
186.23073,186.33711,69,36,0
186.33711,186.4435,71,36,0
186.44084,186.54723,69,36,0
186.54988,186.65627,68,36,0
186.65627,186.97542,66,36,0
187.29456,187.40094,64,62,0
187.39828,187.50467,70,36,0
187.50732,187.61371,64,36,0
187.61371,187.7201,71,36,0
187.61371,187.7201,63,36,0
187.71744,187.82382,64,36,0
187.82648,187.93286,66,36,0
187.93286,188.03925,64,36,0
188.03658,188.14296,66,36,0
188.14563,188.252,68,36,0
188.252,188.57115,69,36,0
188.57115,188.8903,68,36,0
189.20946,189.31584,62,36,0
189.31317,189.41956,68,36,0
189.42223,189.5286,62,36,0
189.5286,189.63498,69,36,0
189.5286,189.63498,61,36,0
189.63232,189.73871,62,36,0
189.74136,189.84775,64,36,0
189.84775,189.95413,62,36,0
189.95148,190.05786,64,36,0
190.06052,190.1669,66,36,0
190.1669,190.48605,67,36,0
190.48605,190.80519,66,36,0
191.12434,191.23073,65,36,0
191.22807,191.33446,69,36,0
191.33711,191.4435,65,36,0
191.4435,191.54988,64,36,0
191.54723,191.65361,66,36,0
191.65627,191.76265,68,36,0
191.76265,191.86903,66,36,0
191.86636,191.97275,68,36,0
191.97542,192.08179,69,36,0
192.08179,192.40094,65,36,0
192.40094,192.7201,64,36,0
192.08179,192.7201,71,36,0
193.03925,193.14563,65,36,0
193.14296,193.24934,69,36,0
193.25201,193.35838,65,36,0
193.35838,193.46477,64,36,0
193.46211,193.5685,66,36,0
193.57115,193.67754,68,36,0
193.67754,193.78392,66,36,0
193.78127,193.88765,68,36,0
193.8903,193.99669,69,36,0
193.99669,194.31584,65,36,0
194.31584,194.63498,64,36,0
193.99669,194.63498,71,36,0
194.95413,195.06052,65,36,0
195.05786,195.16425,69,36,0
195.1669,195.27328,65,36,0
195.27328,195.37967,64,36,0
195.37701,195.4834,66,36,0
195.48605,195.59244,68,36,0
195.59244,195.69882,66,36,0
195.69615,195.80254,68,36,0
195.8052,195.91158,69,36,0
196.86903,196.97542,64,36,0
196.97275,197.07913,66,36,0
197.0818,197.18817,68,36,0
197.18817,197.29456,66,36,0
197.2919,197.39828,68,36,0
197.40094,197.50732,69,36,0
197.50732,197.82648,71,75,0
197.82648,197.93286,64,49,0
197.9302,198.03658,66,49,0
198.03925,198.14563,68,49,0
198.14563,198.25201,66,36,0
198.24934,198.35573,68,36,0
198.3584,198.46477,69,36,0
198.46477,198.78392,71,62,0
198.78392,198.8903,69,36,0
198.88765,198.99403,71,36,0
198.99669,199.10307,72,36,0
199.10307,199.20946,74,36,0
199.2068,199.31317,76,36,0
199.31584,199.42223,77,36,0
199.42223,199.52861,76,36,0
199.52594,199.63232,74,36,0
199.635,199.74136,72,36,0
199.74136,199.84775,71,36,0
199.8451,199.95148,69,36,0
199.95413,200.06052,67,36,0
200.06052,200.09244,65,49,0
200.37967,200.41159,60,49,0
200.69882,200.73073,57,49,0
201.01796,201.12434,56,49,0
201.12169,201.22807,54,49,0
201.23073,201.33711,52,49,0
201.33711,201.4435,51,49,0
201.44084,201.54723,49,49,0
201.54988,201.65627,47,49,0
201.65627,201.97542,57,75,0
201.97542,202.0818,56,49,0
202.07913,202.18552,54,49,0
202.18819,202.29456,52,49,0
202.29456,202.40094,51,49,0
202.39828,202.50467,49,49,0
202.50732,202.61371,47,49,0
202.61371,202.93286,57,75,0
202.93286,203.03925,56,36,0
203.03659,203.14296,54,36,0
203.14563,203.25201,52,36,0
203.25201,203.3584,51,49,0
203.35573,203.46211,49,49,0
203.46478,203.57115,47,49,0
203.57115,203.8903,57,75,0
203.8903,203.99669,56,49,0
203.99403,204.10042,54,49,0
204.10307,204.20946,52,49,0
204.20946,204.31584,54,49,0
204.31319,204.41956,52,49,0
204.42223,204.52861,51,49,0
204.52861,204.635,52,49,0
204.63232,204.73871,51,49,0
204.74138,204.84775,50,49,0
204.84775,204.95413,54,49,0
204.95148,205.05786,55,49,0
205.06052,205.1669,57,49,0
205.1669,205.27328,56,62,0
205.27063,205.37701,57,62,0
205.37967,205.48605,59,62,0
205.48605,205.59244,57,62,0
205.58978,205.69615,59,62,0
205.69882,205.8052,60,62,0
205.8052,205.91159,62,88,0
205.90892,206.0153,58,88,0
206.01797,206.12434,53,88,0
206.12434,206.23073,50,88,0
206.22807,206.33446,46,88,0
206.33711,206.4435,41,88,0
206.4435,206.54988,38,88,0
206.54723,206.65361,34,88,0
206.65627,206.76265,29,88,0
206.76265,206.92223,26,88,0
207.0818,207.11371,52,114,0
207.0818,207.11371,40,102,0
207.0818,207.11371,45,106,0
207.0818,207.11371,48,110,0
207.40094,207.43286,52,114,0
207.40094,207.43286,40,102,0
207.40094,207.43286,44,106,0
207.40094,207.43286,47,110,0
207.7201,207.82648,60,62,0
207.82382,207.9302,59,62,0
207.93286,208.03925,57,62,0
208.03925,208.14563,56,75,0
208.14297,208.24934,54,75,0
208.25201,208.3584,52,75,0
208.3584,208.67754,62,75,0
208.67754,208.78392,60,62,0
208.78127,208.88765,59,62,0
208.8903,208.99669,57,62,0
208.99669,209.10307,56,75,0
209.10042,209.2068,54,75,0
209.20946,209.31584,52,75,0
209.31584,209.635,62,75,0
209.635,209.74138,60,62,0
209.73871,209.8451,59,62,0
209.84776,209.95413,57,62,0
209.95413,210.06052,56,75,0
210.05786,210.16425,54,75,0
210.1669,210.27328,52,75,0
210.27328,210.59244,62,75,0
210.59244,210.69882,60,75,0
210.69617,210.80254,59,75,0
210.8052,210.91159,57,75,0
210.91159,211.01797,56,75,0
211.0153,211.12169,57,75,0
211.12434,211.23073,59,75,0
211.23073,211.33711,57,75,0
211.33446,211.44084,59,75,0
211.4435,211.54988,60,75,0
211.54988,211.65627,62,88,0
211.65361,211.76,58,88,0
211.76265,211.86903,53,88,0
211.86903,211.97542,50,88,0
211.97276,212.07913,46,88,0
212.0818,212.18819,41,88,0
212.18819,212.29457,38,88,0
212.2919,212.39828,34,88,0
212.40094,212.50732,29,88,0
212.50732,212.6669,26,88,0
212.82648,212.8584,52,114,0
212.82648,212.8584,40,102,0
212.82648,212.8584,45,106,0
212.82648,212.8584,48,110,0
213.14563,213.17754,52,114,0
213.14563,213.17754,40,102,0
213.14563,213.17754,44,106,0
213.14563,213.17754,47,110,0
213.46478,213.57117,62,88,0
213.5685,213.67488,58,88,0
213.67754,213.78392,53,88,0
213.78392,213.8903,50,88,0
213.88765,213.99403,46,88,0
213.99669,214.10307,41,88,0
214.10307,214.20946,38,88,0
214.2068,214.31319,34,88,0
214.31584,214.42223,29,88,0
214.42223,214.5818,26,88,0
214.74138,214.77328,62,114,0
214.74138,214.77328,58,109,0
214.74138,214.77328,53,104,0
215.06052,215.09244,60,114,0
215.06052,215.09244,57,109,0
215.06052,215.09244,53,104,0
215.37967,215.69882,43,101,0
215.37967,215.69882,31,101,0
215.69882,215.73073,63,127,0
215.69882,215.73073,60,122,0
215.69882,215.73073,55,117,0
216.01797,216.04988,62,127,0
216.01797,216.04988,59,122,0
216.01797,216.04988,55,117,0
216.33711,216.65627,45,101,0
216.33711,216.65627,33,101,0
216.65627,216.68819,65,127,0
216.65627,216.68819,62,122,0
216.65627,216.68819,57,117,0
216.97542,217.00732,64,127,0
216.97542,217.00732,61,122,0
216.97542,217.00732,57,117,0
217.29457,217.31052,58,101,0
217.29457,217.31052,55,101,0
217.45415,217.4701,58,101,0
217.45415,217.4701,55,101,0
217.61371,217.62967,58,101,0
217.61371,217.62967,55,101,0
217.61371,217.62967,52,101,0
217.77328,217.78925,58,101,0
217.77328,217.78925,55,101,0
217.77328,217.78925,52,101,0
217.93286,217.94882,58,101,0
217.93286,217.94882,49,101,0
217.93286,217.94882,52,101,0
217.93286,217.94882,55,101,0
218.09244,218.1084,58,101,0
218.09244,218.1084,49,101,0
218.09244,218.1084,52,101,0
218.09244,218.1084,55,101,0
218.25201,218.26797,55,101,0
218.25201,218.26797,46,101,0
218.25201,218.26797,49,101,0
218.25201,218.26797,52,101,0
218.41159,218.42755,55,101,0
218.41159,218.42755,46,101,0
218.41159,218.42755,49,101,0
218.41159,218.42755,52,101,0
218.57117,218.58711,52,101,0
218.57117,218.58711,43,101,0
218.57117,218.58711,46,101,0
218.57117,218.58711,49,101,0
218.73074,218.74669,52,101,0
218.73074,218.74669,43,101,0
218.73074,218.74669,46,101,0
218.73074,218.74669,49,101,0
218.8903,218.90627,49,101,0
218.8903,218.90627,40,101,0
218.8903,218.90627,43,101,0
218.8903,218.90627,46,101,0
219.04988,219.06584,49,101,0
219.04988,219.06584,40,101,0
219.04988,219.06584,43,101,0
219.04988,219.06584,46,101,0
219.20946,219.52861,50,88,0
219.20946,219.52861,45,88,0
219.20946,219.52861,41,88,0
220.1669,220.48605,50,88,0
220.1669,220.48605,38,88,0
220.1669,220.48605,41,88,0
220.1669,220.48605,45,88,0
221.12436,221.4435,60,36,0
221.12436,221.4435,52,36,0
222.0818,222.40096,59,36,0
222.0818,222.40096,52,36,0
223.03925,223.19882,45,36,0
223.19882,223.3584,52,36,0
223.3584,223.51797,57,36,0
223.51797,223.67755,52,36,0
223.67755,223.83711,61,36,0
223.99669,224.15627,44,36,0
224.15627,224.31584,52,36,0
224.31584,224.47542,59,36,0
224.47542,224.635,52,36,0
224.635,224.79457,62,36,0
224.95415,225.11371,45,36,0
225.11371,225.27328,52,36,0
225.27328,225.43286,61,36,0
225.43286,225.59244,52,36,0
225.59244,225.75201,57,36,0
225.91159,226.07117,44,36,0
226.07117,226.23074,52,36,0
226.23074,226.3903,56,36,0
226.3903,226.54988,52,36,0
226.54988,226.70946,59,36,0
226.86903,227.02861,45,36,0
227.02861,227.18819,52,36,0
227.18819,227.34776,57,36,0
227.34776,227.50734,52,36,0
227.50734,227.6669,61,36,0
227.82648,227.98605,44,36,0
227.98605,228.14563,52,36,0
228.14563,228.3052,59,36,0
228.3052,228.46478,52,36,0
228.46478,228.62436,62,36,0
228.78394,228.9435,45,36,0
228.9435,229.10307,52,36,0
229.10307,229.26265,61,36,0
229.26265,229.42223,52,36,0
229.42223,229.5818,57,36,0
229.74138,229.90096,44,36,0
229.90096,230.06053,52,36,0
230.06053,230.2201,56,36,0
230.2201,230.37967,52,36,0
230.37967,230.53925,59,36,0
230.69882,230.8584,44,49,0
230.8584,231.01797,53,49,0
231.01797,231.17755,56,49,0
231.17755,231.33713,53,49,0
231.33713,231.49669,59,49,0
231.65627,231.81584,45,62,0
231.81584,231.97542,54,62,0
231.97542,232.135,57,62,0
232.135,232.29457,54,62,0
232.29457,232.45415,62,62,0
232.61372,232.77328,45,62,0
232.77328,232.93286,57,62,0
232.93286,233.09244,64,62,0
233.09244,233.25201,57,62,0
233.25201,233.41159,64,62,0
233.57117,233.73074,50,62,0
233.73074,233.89032,57,62,0
233.89032,234.04988,62,62,0
234.04988,234.20946,57,62,0
234.20946,234.36903,66,62,0
234.52861,234.68819,42,62,0
234.68819,234.84776,54,62,0
234.84776,235.00734,61,62,0
235.00734,235.16692,54,62,0
235.16692,235.32648,58,62,0
235.48605,235.64563,47,49,0
235.64563,235.8052,54,49,0
235.8052,235.96478,59,49,0
235.96478,236.12436,54,49,0
236.12436,236.28394,62,49,0
236.44351,236.60307,44,36,0
236.60307,236.76265,52,36,0
236.76265,236.92223,62,36,0
236.92223,237.0818,52,36,0
237.0818,237.24138,59,36,0
237.40096,237.56053,45,36,0
237.56053,237.72011,52,36,0
237.72011,237.87967,61,36,0
237.87967,238.03925,52,36,0
238.03925,238.19882,57,36,0
238.3584,238.51797,40,36,0
238.51797,238.67755,52,36,0
238.67755,238.83713,59,36,0
238.83713,238.9967,52,36,0
238.9967,239.15627,56,36,0
239.31584,239.47542,45,36,0
239.47542,239.635,52,36,0
239.635,239.79457,61,36,0
239.79457,239.95415,52,36,0
239.95415,240.11372,57,36,0
240.2733,240.43286,45,36,0
240.43286,240.59244,57,36,0
240.59244,240.75201,64,36,0
240.75201,240.91159,57,36,0
240.91159,241.07117,64,36,0
241.23074,241.39032,50,36,0
241.39032,241.5499,57,36,0
241.5499,241.70946,62,36,0
241.70946,241.86903,57,36,0
241.86903,242.02861,66,36,0
242.18819,242.34776,42,36,0
242.34776,242.50734,54,36,0
242.50734,242.66692,61,36,0
242.66692,242.82649,54,36,0
242.82649,242.98605,58,36,0
243.14563,243.3052,47,49,0
243.3052,243.46478,54,49,0
243.46478,243.62436,59,49,0
243.62436,243.78394,54,49,0
243.78394,243.94351,62,49,0
244.10309,244.26265,44,36,0
244.26265,244.42223,52,36,0
244.42223,244.5818,62,36,0
244.5818,244.74138,52,36,0
244.74138,244.90096,59,36,0
245.06053,245.22011,45,36,0
245.22011,245.37968,52,36,0
245.37968,245.53925,61,36,0
245.53925,245.69882,52,36,0
245.69882,245.8584,57,36,0
246.01797,246.17755,40,36,0
246.17755,246.33713,52,36,0
246.33713,246.4967,59,36,0
246.4967,246.65628,52,36,0
246.65628,246.81584,56,36,0
246.97542,247.135,45,36,0
247.135,247.29457,52,36,0
247.29457,247.45415,57,36,0
247.45415,247.61372,52,36,0
247.61372,247.7733,61,36,0
247.93288,248.89032,57,88,0
247.93288,248.89032,45,88,0
247.93288,248.89032,48,88,0
247.93288,248.89032,52,88,0
248.89032,248.90628,56,88,0
248.89032,248.90628,52,88,0
249.0499,249.06584,57,88,0
249.0499,249.06584,53,88,0
249.20947,249.22542,56,88,0
249.20947,249.22542,52,88,0
249.36903,249.385,57,88,0
249.36903,249.385,53,88,0
249.52861,249.54457,56,88,0
249.52861,249.54457,52,88,0
249.84776,250.8052,55,88,0
249.84776,250.8052,43,88,0
249.84776,250.8052,47,88,0
249.84776,250.8052,50,88,0
250.8052,250.82117,54,88,0
250.8052,250.82117,50,88,0
250.96478,250.98074,55,88,0
250.96478,250.98074,52,88,0
251.12436,251.14032,54,88,0
251.12436,251.14032,50,88,0
251.28394,251.2999,55,88,0
251.28394,251.2999,52,88,0
251.44351,251.45947,54,88,0
251.44351,251.45947,50,88,0
251.76266,252.40096,53,88,0
251.76266,252.40096,41,88,0
251.76266,252.40096,45,88,0
251.76266,252.40096,48,88,0
252.40096,252.56053,57,88,0
252.40096,252.56053,45,88,0
252.40096,252.56053,48,88,0
252.40096,252.56053,52,88,0
252.72011,253.03926,58,88,0
252.72011,253.03926,46,88,0
252.72011,253.03926,50,88,0
252.72011,253.03926,53,88,0
253.03926,253.3584,59,88,0
253.03926,253.3584,47,88,0
253.03926,253.3584,50,88,0
253.03926,253.3584,56,88,0
253.3584,253.67755,60,88,0
253.3584,253.67755,48,88,0
253.3584,253.67755,52,88,0
253.3584,253.67755,57,88,0
253.67755,253.9967,62,88,0
253.67755,253.9967,50,88,0
253.67755,253.9967,53,88,0
253.67755,253.9967,59,88,0
253.9967,254.31586,64,88,0
253.9967,254.31586,52,88,0
253.9967,254.31586,57,88,0
253.9967,254.31586,60,88,0
254.31586,254.635,64,88,0
254.31586,254.635,52,88,0
254.31586,254.635,56,88,0
254.31586,254.635,59,88,0
254.635,254.95415,45,88,0
255.2733,255.37968,52,114,0
255.2733,255.37968,40,114,0
255.37701,255.4834,42,114,0
255.37701,255.4834,54,114,0
255.48607,255.59245,56,114,0
255.48607,255.59245,44,114,0
255.59245,255.69882,54,101,0
255.59245,255.69882,42,101,0
255.69617,255.80255,44,101,0
255.69617,255.80255,56,101,0
255.8052,255.91159,57,101,0
255.8052,255.91159,45,101,0
255.91159,256.23074,59,114,0
255.91159,256.23074,47,114,0
256.23074,256.33713,52,114,0
256.23074,256.33713,40,114,0
256.33447,256.44086,42,114,0
256.33447,256.44086,54,114,0
256.4435,256.5499,56,114,0
256.4435,256.5499,44,114,0
256.5499,256.65628,54,101,0
256.5499,256.65628,42,101,0
256.65363,256.76,44,101,0
256.65363,256.76,56,101,0
256.76266,256.86905,57,101,0
256.76266,256.86905,45,101,0
256.86905,257.1882,59,114,0
256.86905,257.1882,47,114,0
257.1882,257.2946,52,114,0
257.1882,257.2946,40,114,0
257.2919,257.3983,42,114,0
257.2919,257.3983,54,114,0
257.40097,257.50735,56,114,0
257.40097,257.50735,44,114,0
257.50735,257.6137,54,101,0
257.50735,257.6137,42,101,0
257.61105,257.71744,44,101,0
257.61105,257.71744,56,101,0
257.7201,257.82648,57,101,0
257.7201,257.82648,45,101,0
257.82648,258.14563,59,101,0
257.82648,258.14563,47,101,0
258.14563,258.252,52,114,0
258.14563,258.252,40,114,0
258.24936,258.35574,42,114,0
258.24936,258.35574,54,114,0
258.3584,258.46478,56,114,0
258.3584,258.46478,44,114,0
258.46478,258.57117,57,114,0
258.46478,258.57117,45,114,0
258.5685,258.6749,47,114,0
258.5685,258.6749,59,114,0
258.67755,258.78394,60,114,0
258.67755,258.78394,48,114,0
258.78394,258.89032,59,114,0
258.78394,258.89032,47,114,0
258.88766,258.99405,48,114,0
258.88766,258.99405,60,114,0
258.9967,259.1031,62,114,0
258.9967,259.1031,50,114,0
259.1031,259.42224,64,114,0
259.1031,259.42224,52,114,0
259.42224,259.52863,57,114,0
259.42224,259.52863,45,114,0
259.52597,259.63235,47,114,0
259.52597,259.63235,59,114,0
259.635,259.7414,60,114,0
259.635,259.7414,48,114,0
259.7414,259.84778,59,114,0
259.7414,259.84778,47,114,0
259.8451,259.95148,48,114,0
259.8451,259.95148,60,114,0
259.95416,260.06052,62,114,0
259.95416,260.06052,50,114,0
260.06052,260.37967,64,114,0
260.06052,260.37967,52,114,0
260.37967,260.48605,45,114,0
260.37967,260.48605,33,114,0
260.4834,260.58978,35,114,0
260.4834,260.58978,47,114,0
260.59244,260.69882,48,114,0
260.59244,260.69882,36,114,0
260.69882,260.8052,47,114,0
260.69882,260.8052,35,114,0
260.80255,260.90894,36,114,0
260.80255,260.90894,48,114,0
260.9116,261.01797,50,114,0
260.9116,261.01797,38,114,0
261.01797,261.33713,52,114,0
261.01797,261.33713,40,114,0
261.33713,261.65628,45,114,0
261.33713,261.65628,33,114,0
262.2946,262.69458,45,114,0
262.2946,262.69458,33,114,0
262.2946,262.69458,36,114,0
262.2946,262.69458,40,114,0
262.69458,263.09457,45,114,0
262.69458,263.09457,33,114,0
262.69458,263.09457,36,114,0
262.69458,263.09457,40,114,0
263.09457,263.49457,45,114,0
263.09457,263.49457,33,114,0
263.09457,263.49457,36,114,0
263.09457,263.49457,40,114,0
263.49457,264.69458,45,114,0
263.49457,264.69458,33,114,0
263.49457,264.69458,36,114,0
263.49457,264.69458,40,114,0
9.893619,10.212768,38,101,0
10.212768,10.531917,38,101,0
10.531917,10.851066,38,101,0
10.851066,11.170215,38,101,0
11.170215,11.489364,38,101,0
89.5117,89.83085,38,101,0
89.83085,90.15,38,101,0
90.15,90.46915,38,101,0
90.46915,90.7883,38,101,0
90.7883,91.107445,38,101,0
