start_time,end_time,note_value,velocity,instrument_program_number
2.7665226,3.219126,64,113,0
3.3296924,3.4170773,65,89,0
3.43866,3.5247867,67,93,0
3.5460632,3.6310694,68,101,0
3.6521962,3.7496612,70,106,0
3.7566056,3.8392727,72,111,0
3.8598208,3.9415035,74,117,0
3.9616377,4.0415497,76,123,0
4.061417,4.39475,65,127,0
4.505861,4.839194,77,94,0
4.505861,4.839194,72,94,0
4.505861,4.839194,65,94,0
5.2886176,5.389458,77,107,0
5.2886176,5.389458,72,107,0
5.2886176,5.389458,65,107,0
5.414668,5.748001,78,119,0
5.414668,5.748001,66,119,0
5.414668,5.748001,72,119,0
5.414668,5.748001,75,119,0
5.859112,6.192445,78,94,0
5.859112,6.192445,66,94,0
5.859112,6.192445,72,94,0
5.859112,6.192445,75,94,0
6.6453066,6.7543974,78,114,0
6.6453066,6.7543974,66,114,0
6.6453066,6.7543974,72,114,0
6.6453066,6.7543974,75,114,0
6.78167,7.141914,79,127,0
6.78167,7.141914,67,127,0
6.78167,7.141914,72,127,0
6.78167,7.141914,75,127,0
7.2538543,7.589675,79,97,0
7.2538543,7.589675,67,97,0
7.2538543,7.589675,72,97,0
7.2538543,7.589675,75,97,0
8.037436,8.126988,79,114,0
8.037436,8.126988,67,114,0
8.149376,8.644736,80,125,0
8.149376,8.644736,68,125,0
8.644736,8.81519,79,109,0
8.644736,8.81519,67,109,0
8.872008,9.042462,75,114,0
8.872008,9.042462,63,114,0
9.099281,9.269735,74,119,0
9.099281,9.269735,62,119,0
9.326553,9.507353,72,124,0
9.326553,9.507353,60,124,0
9.570378,9.911286,79,127,0
9.570378,9.911286,67,127,0
9.570378,9.911286,71,127,0
9.570378,9.911286,74,127,0
10.024923,10.365831,79,99,0
10.024923,10.365831,67,99,0
10.024923,10.365831,71,99,0
10.024923,10.365831,74,99,0
10.824871,10.926565,79,114,0
10.824871,10.926565,67,114,0
10.951989,11.292898,84,127,0
10.951989,11.292898,75,127,0
10.951989,11.292898,72,127,0
11.406534,11.747443,84,104,0
11.406534,11.747443,75,104,0
11.406534,11.747443,72,104,0
12.205776,12.305776,84,115,0
12.205776,12.305776,72,115,0
12.330776,12.669121,83,127,0
12.330776,12.669121,71,127,0
12.330776,12.669121,74,127,0
12.781903,13.120248,83,103,0
12.781903,13.120248,71,103,0
12.781903,13.120248,74,103,0
13.575448,13.675447,86,115,0
13.575448,13.675447,74,115,0
13.575448,13.675447,83,115,0
13.700448,14.046939,84,127,0
13.700448,14.046939,75,127,0
13.700448,14.046939,87,127,0
14.161189,14.516062,84,103,0
14.161189,14.516062,75,103,0
14.161189,14.516062,87,103,0
15.085931,15.232272,87,117,0
15.268858,15.989683,92,127,0
15.989683,16.059612,91,118,0
16.059612,16.129543,89,116,0
16.129543,16.199472,87,115,0
16.199472,16.269403,85,112,0
16.269403,16.339333,84,112,0
16.339333,16.409264,82,111,0
16.409264,16.479193,80,110,0
16.479193,16.55039,79,110,0
16.55039,16.622852,77,110,0
16.622852,16.695316,75,110,0
16.695316,16.76778,73,111,0
16.764158,16.83662,72,111,0
16.83662,16.909084,70,111,0
16.909084,16.985228,68,111,0
16.985228,17.061563,67,114,0
17.061563,17.1379,65,116,0
17.1379,17.214235,63,118,0
17.214235,17.290571,61,118,0
17.290571,17.368269,60,119,0
17.368269,17.447634,58,121,0
17.447634,17.526999,56,123,0
17.526999,17.606363,55,123,0
17.606363,17.688477,53,124,0
17.688477,17.773947,51,125,0
17.773947,17.859417,49,126,0
17.859417,17.944887,48,127,0
17.944887,18.03318,46,127,0
18.037767,18.863453,44,127,0
22.01493,22.131609,55,83,0
22.131609,22.24468,67,83,0
22.24468,22.358316,56,85,0
22.358316,22.471952,68,86,0
22.471952,22.585588,58,88,0
22.585588,22.699224,70,88,0
22.699224,22.81286,60,90,0
22.81286,22.926498,72,90,0
22.926498,23.040134,62,92,0
23.040134,23.15377,74,93,0
23.15377,23.267406,63,96,0
23.267406,23.381042,75,96,0
23.381042,23.494678,67,98,0
23.494678,23.604973,79,100,0
23.604973,23.715267,68,102,0
23.715267,23.825562,80,104,0
23.825562,23.935856,70,104,0
23.935856,24.0451,82,107,0
24.0451,24.15224,72,107,0
24.15224,24.259384,84,108,0
24.259384,24.366528,74,111,0
24.366528,24.47367,86,112,0
24.47367,24.580812,75,112,0
24.580812,24.689005,87,115,0
24.689005,24.7993,80,116,0
24.7993,24.909594,92,116,0
24.909594,25.023878,82,116,0
25.023878,25.145256,94,119,0
25.145256,25.286167,84,121,0
25.286167,25.462637,96,123,0
25.462637,25.911299,91,127,0
25.462637,25.911299,79,127,0
25.462637,25.911299,84,127,0
25.462637,25.911299,87,127,0
26.020004,26.129494,89,126,0
26.129494,26.238983,87,125,0
26.238983,26.348473,86,124,0
26.348473,26.462109,84,118,0
26.462109,26.575745,82,114,0
26.575745,26.68938,80,113,0
26.68938,26.806568,79,119,0
26.806568,26.923756,77,120,0
26.923756,27.040943,75,118,0
27.040943,27.15813,74,114,0
27.15813,27.275318,72,109,0
27.275318,27.392506,71,105,0
27.392506,27.509693,68,101,0
27.509693,27.62688,67,97,0
27.62688,27.744068,65,91,0
27.744068,27.861256,63,87,0
27.861256,27.978443,62,81,0
27.978443,28.09563,60,77,0
28.09563,28.212818,59,69,0
28.212818,28.915943,60,66,0
28.915943,29.03313,62,60,0
29.03313,29.12688,60,61,0
29.150318,29.267506,59,66,0
29.267506,29.361256,60,74,0
29.384693,29.50188,59,80,0
29.50188,29.59563,60,86,0
29.619068,30.087818,63,91,0
30.087818,30.322193,62,66,0
30.90813,31.00188,62,73,0
31.025318,31.494068,64,86,0
31.611256,31.728443,73,61,0
31.728443,31.84563,72,63,0
31.84563,31.962818,70,67,0
31.962818,32.080006,68,70,0
32.080006,32.197193,67,73,0
32.197193,32.31438,65,77,0
32.31438,32.43157,64,81,0
32.43157,32.90032,67,86,0
32.90032,33.134693,65,66,0
33.72063,33.81438,65,86,0
33.83782,34.30657,67,91,0
34.30657,34.48235,66,78,0
34.540943,34.65813,67,83,0
34.65813,34.736256,66,85,0
34.77532,34.892506,67,86,0
34.892506,34.97063,66,90,0
35.009693,35.12688,67,92,0
35.12688,35.205006,66,94,0
35.24407,35.71282,68,96,0
35.71282,35.947193,67,66,0
36.56351,36.71629,67,52,0
36.771847,37.329163,72,54,0
37.329163,37.574066,68,50,0
37.574066,37.81764,63,42,0
37.81764,38.05925,60,48,0
38.05925,38.297348,75,52,0
38.297348,38.65324,70,54,0
38.77104,39.12079,70,41,0
39.582325,39.66694,67,38,0
39.69771,39.92848,68,48,0
39.92848,40.15925,72,35,0
40.15925,40.390015,70,37,0
40.390015,40.620785,68,38,0
40.620785,40.851555,67,41,0
40.851555,41.084423,65,44,0
41.084423,41.557495,66,47,0
41.084423,41.557495,62,47,0
41.557495,41.920757,67,36,0
41.557495,41.920757,63,36,0
42.41156,42.53656,82,60,0
42.53656,43.093876,84,60,0
43.093876,43.33878,80,53,0
43.33878,43.58235,75,52,0
43.58235,43.823967,72,55,0
43.823967,44.06206,87,58,0
44.06206,44.417953,82,60,0
44.535755,44.8855,82,52,0
45.34704,45.43434,79,50,0
45.466087,45.70418,80,53,0
45.70418,45.942276,84,43,0
45.942276,46.18037,82,44,0
46.18037,46.41815,80,46,0
46.41815,46.654068,79,49,0
46.654068,46.886627,77,55,0
46.886627,47.117397,79,60,0
47.117397,47.3467,82,56,0
47.3467,47.575417,80,61,0
47.575417,47.802406,79,66,0
47.802406,48.02741,77,70,0
48.02741,48.25129,75,74,0
48.25129,48.47351,74,78,0
48.47351,48.69437,80,66,0
48.69437,48.913883,79,70,0
48.913883,49.13207,77,75,0
49.13207,49.348938,75,79,0
49.348938,49.56374,74,88,0
49.56374,49.67088,75,95,0
49.67088,49.777264,78,90,0
49.777264,49.883648,75,91,0
49.883648,49.961662,72,93,0
49.99003,50.09692,72,102,0
50.09692,50.204834,75,100,0
50.204834,50.312744,72,99,0
50.312744,50.391933,69,103,0
50.42092,50.529617,69,113,0
50.529617,50.639103,72,109,0
50.639103,50.748863,69,112,0
50.748863,50.859158,63,114,0
50.859158,50.969448,70,117,0
50.969448,51.079742,74,113,0
51.079742,51.190582,70,113,0
51.190582,51.272064,65,113,0
51.301693,51.413635,65,122,0
51.413635,51.525574,70,113,0
51.525574,51.637516,65,113,0
51.637516,51.719604,62,113,0
51.749454,51.861958,62,122,0
51.861958,51.97588,65,117,0
51.97588,52.090385,62,119,0
52.090385,52.174355,58,125,0
52.204887,52.433895,70,127,0
52.66437,53.1295,70,127,0
52.66437,53.1295,58,127,0
54.319786,54.578407,68,38,0
54.319786,54.578407,58,38,0
54.66461,54.930416,67,43,0
54.66461,54.930416,58,43,0
55.0371,55.383255,65,47,0
55.0371,55.383255,58,47,0
56.034355,56.43614,58,48,0
55.498642,56.57007,63,50,0
56.57007,56.971855,62,44,0
56.57007,56.971855,58,44,0
57.10578,57.38413,63,47,0
57.10578,57.38413,58,47,0
57.38413,57.674923,62,42,0
57.38413,57.674923,58,42,0
57.674923,57.973495,63,39,0
57.674923,57.973495,58,39,0
57.973495,58.28227,65,35,0
57.973495,58.28227,58,35,0
58.28227,58.75102,67,32,0
58.28227,58.75102,58,32,0
58.90727,60.15727,68,50,0
58.90727,60.15727,60,50,0
60.15727,60.62602,67,44,0
60.15727,60.62602,58,44,0
60.77648,61.05426,67,47,0
61.05426,61.338184,65,43,0
61.338184,61.630436,63,33,0
61.630436,61.934505,62,37,0
61.934505,62.24169,60,42,0
62.24169,62.479385,62,45,0
63.094887,63.496674,58,48,0
63.094887,63.496674,70,48,0
62.559174,63.6306,63,50,0
63.6306,64.03239,58,44,0
63.6306,64.03239,70,44,0
63.6306,64.03239,62,52,0
64.16631,64.44466,58,47,0
64.16631,64.44466,70,47,0
64.16631,64.44466,63,57,0
64.44466,64.73546,58,42,0
64.44466,64.73546,70,42,0
64.44466,64.73546,62,54,0
64.73546,65.03403,58,39,0
64.73546,65.03403,70,39,0
64.73546,65.03403,63,51,0
65.03403,65.342804,58,35,0
65.03403,65.342804,70,35,0
65.03403,65.342804,65,47,0
65.342804,65.811554,58,32,0
65.342804,65.811554,70,32,0
65.342804,65.811554,67,48,0
66.592804,67.061554,75,44,0
65.967804,67.217804,70,57,0
67.217804,67.686554,58,44,0
67.217804,67.686554,75,44,0
67.217804,67.686554,67,48,0
67.83701,68.059235,75,47,0
67.83701,68.11479,70,58,0
68.11479,68.341576,75,44,0
68.11479,68.39872,68,55,0
68.39872,68.63156,75,41,0
68.39872,68.69097,67,48,0
68.69097,68.933815,75,41,0
68.69097,68.99504,65,53,0
68.99504,69.23994,75,42,0
68.99504,69.30222,63,54,0
69.30222,69.53992,65,56,0
69.30222,69.53992,75,44,0
69.619705,69.97992,75,41,0
69.619705,69.97992,67,54,0
70.26487,71.228035,68,37,0
70.26487,71.228035,65,37,0
71.228035,71.54718,65,32,0
71.54718,71.87218,68,42,0
71.87218,72.21311,66,41,0
72.21311,72.545685,73,35,0
72.21311,72.56333,65,35,0
72.56333,72.84752,73,34,0
72.56333,72.91981,63,34,0
72.91981,73.21176,73,37,0
72.91981,73.28493,61,37,0
73.28493,73.56195,63,34,0
73.28493,73.56195,73,34,0
73.65455,74.06484,65,31,0
73.65455,74.06484,73,31,0
75.018234,78.144424,70,48,0
78.144424,78.76252,72,40,0
78.76252,79.3941,68,33,0
79.3941,80.185814,67,31,0
79.3941,80.185814,63,31,0
80.34538,80.604004,68,38,0
80.34538,80.604004,80,38,0
80.690216,80.95602,67,43,0
80.690216,80.95602,79,43,0
81.0627,81.52424,77,47,0
81.0627,81.52424,65,47,0
81.52424,82.853836,63,50,0
81.52424,82.853836,75,50,0
82.853836,83.46147,74,44,0
82.853836,83.46147,62,44,0
83.46147,83.75949,63,47,0
83.46147,83.75949,75,47,0
83.75949,84.05555,62,42,0
83.75949,84.05555,74,42,0
84.05555,84.34872,63,39,0
84.05555,84.34872,75,39,0
84.34872,84.65749,65,35,0
84.34872,84.65749,77,35,0
84.65749,85.12624,67,32,0
84.65749,85.12624,79,32,0
85.28249,86.53249,68,50,0
85.28249,86.53249,80,50,0
86.53249,87.10541,79,44,0
86.53249,87.10541,67,44,0
87.155914,87.45593,79,47,0
87.155914,87.45593,67,47,0
87.45593,87.74816,77,43,0
87.45593,87.74816,65,43,0
87.74816,88.03434,75,42,0
87.74816,88.03434,63,42,0
88.03434,88.325714,62,46,0
88.03434,88.325714,74,46,0
88.325714,88.63671,60,47,0
88.325714,88.63671,72,47,0
88.63671,88.87305,62,54,0
88.63671,88.87305,74,54,0
88.95036,90.13519,63,55,0
88.95036,90.13519,75,55,0
90.13519,90.69594,74,51,0
90.13519,90.69594,62,51,0
90.69594,90.97631,63,55,0
90.69594,90.97631,75,55,0
90.97631,91.25668,62,53,0
90.97631,91.25668,74,53,0
91.25668,91.537056,63,51,0
91.25668,91.537056,75,51,0
91.537056,91.823685,65,51,0
91.537056,91.823685,77,51,0
91.823685,92.268364,67,55,0
91.823685,92.268364,79,55,0
92.43516,93.597565,82,70,0
92.43516,93.597565,70,70,0
93.597565,94.1357,79,56,0
93.597565,94.1357,67,56,0
94.1357,94.40557,82,68,0
94.1357,94.40557,70,68,0
94.40557,94.68165,80,58,0
94.40557,94.68165,68,58,0
94.68165,94.97358,79,54,0
94.68165,94.97358,67,54,0
94.97358,95.2775,77,51,0
94.97358,95.2775,65,51,0
95.2775,95.58457,75,54,0
95.2775,95.58457,63,54,0
95.58457,95.82216,77,55,0
95.58457,95.82216,65,55,0
95.90252,96.439896,79,56,0
95.90252,96.439896,67,56,0
96.65116,97.57798,80,46,0
96.65116,97.57798,68,46,0
97.57798,97.88103,77,37,0
97.57798,97.88103,65,37,0
97.88103,98.18103,80,41,0
97.88103,98.18103,68,41,0
98.18103,98.47855,78,37,0
98.18103,98.47855,66,37,0
98.47855,98.78313,77,40,0
98.47855,98.78313,65,40,0
98.78313,99.09083,75,43,0
98.78313,99.09083,63,43,0
99.09083,99.4061,73,45,0
99.09083,99.4061,61,45,0
99.4061,99.72696,75,45,0
99.4061,99.72696,63,45,0
99.72696,100.207985,77,48,0
99.72696,100.207985,65,48,0
100.365875,101.583664,77,60,0
100.365875,101.583664,74,60,0
100.365875,101.583664,65,60,0
101.583664,102.1705,77,56,0
101.583664,102.1705,74,56,0
101.583664,102.1705,65,56,0
102.1705,102.45852,79,40,0
102.1705,102.45852,75,40,0
102.1705,102.45852,67,40,0
102.45852,102.74423,80,44,0
102.45852,102.74423,74,44,0
102.45852,102.74423,68,44,0
102.74423,103.027245,79,50,0
102.74423,103.027245,75,50,0
102.74423,103.027245,67,50,0
103.027245,103.31481,77,55,0
103.027245,103.31481,74,55,0
103.027245,103.31481,65,55,0
103.31481,103.9084,79,56,0
103.31481,103.9084,75,56,0
103.31481,103.9084,67,56,0
103.9084,104.503456,84,48,0
103.9084,104.503456,75,48,0
103.9084,104.503456,72,48,0
104.503456,105.11524,80,44,0
104.503456,105.11524,74,44,0
104.503456,105.11524,68,44,0
105.11524,105.91202,79,38,0
105.11524,105.91202,75,38,0
105.11524,105.91202,67,38,0
106.07629,106.24612,68,50,0
106.24612,106.37569,70,46,0
106.4233,106.61007,66,57,0
106.61007,106.75062,70,53,0
106.80325,107.00325,65,64,0
107.00325,107.15799,70,59,0
107.21354,107.41015,63,65,0
107.41015,107.57333,70,56,0
107.597725,107.7535,66,56,0
107.77703,107.925026,65,56,0
107.9475,108.11176,63,65,0
108.11176,108.249405,70,56,0
108.27024,108.402596,66,56,0
108.4228,108.550934,63,56,0
108.57035,108.713684,62,65,0
108.713684,108.83536,70,58,0
108.85388,108.973145,65,59,0
108.99149,109.10902,62,62,0
109.12704,109.25828,63,62,0
109.25828,109.369606,70,55,0
109.38685,109.501114,62,58,0
109.518814,109.63513,70,61,0
109.653145,109.77158,63,63,0
109.78993,109.91213,70,65,0
109.931,110.05537,65,66,0
110.07478,110.202835,70,67,0
110.22283,110.373856,66,69,0
110.373856,110.50682,75,64,0
110.52744,110.66232,70,63,0
110.68315,110.861465,66,58,0
110.88229,111.035355,68,64,0
111.035355,111.1677,75,56,0
111.187904,111.317604,71,56,0
111.33741,111.46486,70,56,0
111.48447,111.63152,68,63,0
111.63152,111.75869,75,56,0
111.77811,111.90311,71,56,0
111.92234,112.04615,68,56,0
112.06519,112.2067,66,64,0
112.2067,112.32864,75,53,0
112.34733,112.467705,70,57,0
112.48622,112.58807,66,60,0
112.62511,112.762726,66,65,0
112.762726,112.88066,70,56,0
112.898674,113.01579,65,57,0
113.03381,113.15069,70,59,0
113.16855,113.28438,63,61,0
113.30208,113.41689,70,61,0
113.43443,113.54886,62,63,0
113.5664,113.68144,70,65,0
113.69914,113.81546,63,67,0
113.83347,113.954094,70,66,0
113.9739,114.13192,65,64,0
114.1579,114.35193,73,55,0
114.381775,114.59127,66,50,0
114.59127,114.73371,73,42,0
114.75499,114.88756,70,42,0
114.907555,115.03444,68,42,0
115.05367,115.1926,66,51,0
115.1926,115.31053,73,42,0
115.328545,115.44438,70,42,0
115.46208,115.5765,66,49,0
115.59405,115.72486,65,40,0
115.72486,115.837685,73,41,0
115.85493,115.966995,68,43,0
115.98423,116.096306,65,46,0
116.11354,116.24285,66,50,0
116.24285,116.35492,73,56,0
116.37216,116.48423,65,45,0
116.50147,116.61354,73,46,0
116.63078,116.74285,66,49,0
116.76009,116.87216,73,51,0
116.889404,117.00147,68,53,0
117.018715,117.13078,73,54,0
117.148026,117.277336,70,55,0
117.277336,117.389404,78,56,0
117.40665,117.518715,73,57,0
117.53596,117.648026,70,59,0
117.66527,117.79458,71,61,0
117.79458,117.90665,78,51,0
117.92389,118.03596,75,51,0
118.0532,118.16527,73,51,0
118.18251,118.29458,71,61,0
118.31182,118.42389,78,52,0
118.44113,118.55417,75,52,0
118.57156,118.68622,71,53,0
118.70392,118.83666,70,54,0
118.83666,118.95298,78,55,0
118.971,119.08985,73,57,0
119.1082,119.209625,70,57,0
119.24666,119.38513,70,59,0
119.38513,119.50307,73,48,0
119.52109,119.63756,68,49,0
119.65542,119.77149,73,50,0
119.789345,119.90542,66,52,0
119.92327,120.03731,73,52,0
120.054855,120.168884,65,54,0
120.18643,120.30001,73,55,0
120.31725,120.42932,66,56,0
120.44656,120.55863,73,56,0
120.575874,120.70231,67,54,0
120.70231,120.81044,75,52,0
120.826965,120.949585,68,61,0
120.949585,121.05456,75,66,0
121.07056,121.17386,70,69,0
121.18961,121.29197,78,78,0
121.30772,121.40928,71,82,0
121.424904,121.525986,80,87,0
121.54149,121.64208,75,94,0
121.65747,121.75747,82,100,0
121.77286,121.87268,75,105,0
121.88795,121.98718,83,109,0
122.00245,122.10076,78,114,0
122.1158,122.19851,87,119,0
122.228584,122.34136,80,124,0
122.34136,122.43911,92,124,0
122.45415,122.55172,87,119,0
122.56665,122.6635,83,115,0
122.678314,122.774605,80,113,0
122.78942,122.88572,75,109,0
122.900536,122.996826,71,108,0
123.01164,123.10794,68,109,0
123.12276,123.21905,63,113,0
123.233864,123.33016,59,116,0
123.34498,123.44128,63,119,0
123.456085,123.55238,68,121,0
123.5672,123.75979,71,127,0
123.78942,123.956085,87,105,0
123.78942,123.956085,80,105,0
123.78942,123.956085,75,105,0
124.01164,124.17831,75,107,0
124.01164,124.17831,80,107,0
124.01164,124.17831,87,107,0
124.233864,124.40053,75,114,0
124.233864,124.40053,80,114,0
124.233864,124.40053,87,114,0
124.456085,124.67831,76,126,0
124.456085,124.67831,80,126,0
124.456085,124.67831,88,126,0
124.67831,124.78942,87,91,0
124.67831,124.78942,80,91,0
124.67831,124.78942,75,91,0
124.90053,125.02315,66,61,0
125.02315,125.12812,75,66,0
125.14412,125.24743,69,69,0
125.263176,125.36554,77,78,0
125.38129,125.48285,70,82,0
125.498474,125.59955,78,87,0
125.61505,125.71565,77,94,0
125.73103,125.83103,81,100,0
125.84642,125.94624,78,105,0
125.96151,126.060745,82,109,0
126.07601,126.174324,81,114,0
126.18936,126.27207,89,119,0
126.30215,126.414925,82,124,0
126.414925,126.51267,94,124,0
126.52771,126.62528,90,119,0
126.64021,126.73706,87,115,0
126.75188,126.848175,82,113,0
126.86298,126.95928,78,109,0
126.9741,127.0704,75,108,0
127.085205,127.1815,70,109,0
127.19632,127.29262,66,113,0
127.30743,127.403725,63,116,0
127.41854,127.51484,66,119,0
127.529655,127.625946,70,121,0
127.64076,127.83336,75,127,0
127.86298,128.02965,87,105,0
127.86298,128.02965,82,105,0
127.86298,128.02965,78,105,0
127.86298,128.02965,75,105,0
128.0852,128.25188,75,107,0
128.0852,128.25188,82,107,0
128.0852,128.25188,78,107,0
128.0852,128.25188,87,107,0
128.30743,128.47748,75,114,0
128.30743,128.47748,82,114,0
128.30743,128.47748,78,114,0
128.30743,128.47748,87,114,0
128.53473,128.7667,76,126,0
128.53473,128.7667,82,126,0
128.53473,128.7667,78,126,0
128.53473,128.7667,88,126,0
128.7667,128.88388,87,91,0
128.7667,128.88388,82,91,0
128.7667,128.88388,78,91,0
128.7667,128.88388,75,91,0
129.2373,129.41603,75,98,0
129.2373,129.41603,63,98,0
129.2373,129.41603,57,98,0
129.2373,129.41603,65,98,0
129.2373,129.41603,77,98,0
129.2373,129.41603,72,98,0
129.47603,129.65685,75,105,0
129.47603,129.65685,63,105,0
129.47603,129.65685,57,105,0
129.47603,129.65685,65,105,0
129.47603,129.65685,72,105,0
129.47603,129.65685,77,105,0
129.71732,129.89877,75,111,0
129.71732,129.89877,63,111,0
129.71732,129.89877,57,111,0
129.71732,129.89877,65,111,0
129.71732,129.89877,77,111,0
129.71732,129.89877,72,111,0
129.95958,130.20515,75,118,0
129.95958,130.20515,72,118,0
129.95958,130.20515,78,118,0
130.20515,130.32913,75,87,0
130.71162,130.90842,65,70,0
130.71162,130.90842,60,70,0
130.71162,130.90842,63,70,0
130.9748,131.1769,65,59,0
130.9748,131.1769,63,59,0
130.9748,131.1769,60,59,0
131.24507,131.4532,65,50,0
131.24507,131.4532,63,50,0
131.24507,131.4532,60,50,0
131.52328,131.80766,60,58,0
131.52328,131.80766,63,58,0
131.52328,131.80766,66,58,0
131.80766,131.95052,72,46,0
132.15053,133.39,55,53,0
132.15053,133.39,63,53,0
133.39,133.55128,56,40,0
133.55128,133.71259,58,49,0
133.71259,133.87387,60,54,0
133.39,133.95451,62,56,0
133.87387,134.03516,56,50,0
134.03516,134.6898,63,50,0
134.03516,134.6898,55,40,0
134.97285,135.19507,70,33,0
134.97285,135.19507,82,33,0
135.25063,135.47285,82,37,0
135.25063,135.47285,70,37,0
135.52841,135.75063,70,42,0
135.52841,135.75063,82,42,0
135.80618,136.3525,71,44,0
135.80618,136.3525,83,44,0
136.3525,137.14398,87,46,0
136.3525,137.14398,75,46,0
137.27257,137.40077,83,36,0
137.27257,137.40077,71,36,0
137.40077,137.91359,83,44,0
137.40077,137.91359,71,44,0
137.91359,138.55534,70,33,0
137.91359,138.55534,82,33,0
138.68466,138.94516,81,39,0
138.68466,138.94516,69,39,0
138.94516,139.47151,82,41,0
138.94516,139.47151,70,41,0
139.47151,139.737,80,35,0
139.47151,139.737,68,35,0
139.737,140.00726,79,35,0
139.737,140.00726,67,35,0
140.00726,140.55608,80,36,0
140.00726,140.55608,74,36,0
140.00726,140.55608,68,36,0
140.55608,141.2553,79,40,0
140.55608,141.2553,75,40,0
140.55608,141.2553,67,40,0
141.39726,141.61948,58,33,0
141.39726,141.61948,70,33,0
141.67503,141.89726,70,37,0
141.67503,141.89726,58,37,0
141.9528,142.17503,58,42,0
141.9528,142.17503,70,42,0
142.23059,142.77689,59,44,0
142.23059,142.77689,71,44,0
142.77689,143.04396,75,43,0
142.77689,143.04396,63,43,0
143.04396,143.30789,80,40,0
143.04396,143.30789,68,40,0
143.30789,143.56839,75,32,0
143.30789,143.56839,63,32,0
143.56839,143.82516,71,37,0
143.56839,143.82516,59,37,0
143.82516,144.338,71,42,0
143.82516,144.338,59,42,0
144.338,144.97975,58,33,0
144.338,144.97975,70,33,0
145.10796,145.36584,69,39,0
145.10796,145.36584,57,39,0
145.36584,145.88608,70,41,0
145.36584,145.88608,58,41,0
145.88608,146.14696,68,35,0
145.88608,146.14696,56,35,0
146.14696,146.40935,67,35,0
146.14696,146.40935,55,35,0
146.40935,146.93954,68,36,0
146.40935,146.93954,62,36,0
146.40935,146.93954,56,36,0
146.93954,147.60326,67,31,0
146.93954,147.60326,63,31,0
146.93954,147.60326,55,31,0
147.73601,148.00307,70,31,0
148.00307,148.27092,68,32,0
148.27092,148.53879,67,35,0
148.53879,149.07852,70,36,0
149.07852,149.34879,68,29,0
149.34879,149.61906,67,30,0
149.61906,150.1637,68,32,0
150.1637,150.57278,67,34,0
150.1637,150.57278,63,34,0
150.70915,151.25461,84,37,0
150.70915,151.25461,75,37,0
150.70915,151.25461,72,37,0
151.25461,151.80214,80,41,0
151.25461,151.80214,74,41,0
151.80214,152.21498,75,34,0
151.80214,152.21498,79,34,0
152.35303,152.90858,72,34,0
152.35303,152.90858,63,34,0
152.35303,152.90858,60,34,0
152.90858,153.46413,68,37,0
152.90858,153.46413,62,37,0
153.46413,153.8808,67,28,0
153.46413,153.8808,63,28,0
154.01968,154.60298,80,32,0
154.01968,154.60298,74,32,0
154.60298,155.05655,75,25,0
154.60298,155.05655,79,25,0
155.21118,155.84457,68,33,0
155.21118,155.84457,62,33,0
155.84457,156.34216,67,26,0
155.84457,156.34216,63,26,0
160.12509,160.5777,64,113,0
160.68826,160.77565,65,89,0
160.79723,160.88336,67,93,0
160.90463,160.98964,68,101,0
161.01077,161.10823,70,106,0
161.11517,161.19785,72,111,0
161.21838,161.30008,74,117,0
161.3202,161.40012,76,123,0
161.41998,161.75333,65,127,0
161.86443,162.19777,77,94,0
161.86443,162.19777,72,94,0
161.86443,162.19777,65,94,0
162.64719,162.74803,77,107,0
162.64719,162.74803,72,107,0
162.64719,162.74803,65,107,0
162.77324,163.10657,78,119,0
162.77324,163.10657,66,119,0
162.77324,163.10657,72,119,0
162.77324,163.10657,75,119,0
163.21768,163.55101,78,94,0
163.21768,163.55101,66,94,0
163.21768,163.55101,72,94,0
163.21768,163.55101,75,94,0
164.00388,164.11296,78,114,0
164.00388,164.11296,66,114,0
164.00388,164.11296,72,114,0
164.00388,164.11296,75,114,0
164.14024,164.50049,79,127,0
164.14024,164.50049,67,127,0
164.14024,164.50049,72,127,0
164.14024,164.50049,75,127,0
164.61243,164.94824,79,97,0
164.61243,164.94824,67,97,0
164.61243,164.94824,72,97,0
164.61243,164.94824,75,97,0
165.39601,165.48555,79,114,0
165.39601,165.48555,67,114,0
165.50795,166.00331,80,125,0
165.50795,166.00331,68,125,0
166.00331,166.17377,79,109,0
166.00331,166.17377,67,109,0
166.23058,166.40103,75,114,0
166.23058,166.40103,63,114,0
166.45786,166.62831,74,119,0
166.45786,166.62831,62,119,0
166.68512,166.86592,72,124,0
166.68512,166.86592,60,124,0
166.92894,167.26985,79,127,0
166.92894,167.26985,67,127,0
166.92894,167.26985,71,127,0
166.92894,167.26985,74,127,0
167.3835,167.7244,79,99,0
167.3835,167.7244,67,99,0
167.3835,167.7244,71,99,0
167.3835,167.7244,74,99,0
168.18344,168.28514,79,114,0
168.18344,168.28514,67,114,0
168.31056,168.65147,84,127,0
168.31056,168.65147,75,127,0
168.31056,168.65147,72,127,0
168.7651,169.10602,84,104,0
168.7651,169.10602,75,104,0
168.7651,169.10602,72,104,0
169.56435,169.66435,84,115,0
169.56435,169.66435,72,115,0
169.68935,170.0277,83,127,0
169.68935,170.0277,71,127,0
169.68935,170.0277,74,127,0
170.14047,170.47882,83,103,0
170.14047,170.47882,71,103,0
170.14047,170.47882,74,103,0
170.93402,171.03401,86,115,0
170.93402,171.03401,74,115,0
170.93402,171.03401,83,115,0
171.05902,171.4055,84,127,0
171.05902,171.4055,75,127,0
171.05902,171.4055,87,127,0
171.51976,171.87463,84,103,0
171.51976,171.87463,75,103,0
171.51976,171.87463,87,103,0
172.4445,172.59084,87,117,0
172.62743,173.34825,92,127,0
173.34825,173.41818,91,118,0
173.41818,173.48811,89,116,0
173.48811,173.55804,87,115,0
173.55804,173.62798,85,112,0
173.62798,173.6979,84,112,0
173.6979,173.76784,82,111,0
173.76784,173.83777,80,110,0
173.83777,173.90897,79,110,0
173.90897,173.98143,77,110,0
173.98143,174.05388,75,110,0
174.05388,174.12634,73,111,0
174.12273,174.19519,72,111,0
174.19519,174.26765,70,111,0
174.26765,174.3438,68,111,0
174.3438,174.42014,67,114,0
174.42014,174.49648,65,116,0
174.49648,174.5728,63,118,0
174.5728,174.64914,61,118,0
174.64914,174.72684,60,119,0
174.72684,174.8062,58,121,0
174.8062,174.88557,56,123,0
174.88557,174.96494,55,123,0
174.96494,175.04704,53,124,0
175.04704,175.13252,51,125,0
175.13252,175.21799,49,126,0
175.21799,175.30345,48,127,0
175.30345,175.39175,46,127,0
175.39633,176.22202,44,127,0
179.3735,179.49017,55,83,0
179.49017,179.60326,67,83,0
179.60326,179.71689,56,85,0
179.71689,179.83052,68,86,0
179.83052,179.94415,58,88,0
179.94415,180.0578,70,88,0
180.0578,180.17143,60,90,0
180.17143,180.28506,72,90,0
180.28506,180.3987,62,92,0
180.3987,180.51234,74,93,0
180.51234,180.62598,63,96,0
180.62598,180.73961,75,96,0
180.73961,180.85324,67,98,0
180.85324,180.96355,79,100,0
180.96355,181.07384,68,102,0
181.07384,181.18413,80,104,0
181.18413,181.29442,70,104,0
181.29442,181.40367,82,107,0
181.40367,181.5108,72,107,0
181.5108,181.61795,84,108,0
181.61795,181.7251,74,111,0
181.7251,181.83224,86,112,0
181.83224,181.93938,75,112,0
181.93938,182.04758,87,115,0
182.04758,182.15787,80,116,0
182.15787,182.26816,92,116,0
182.26816,182.38245,82,116,0
182.38245,182.50383,94,119,0
182.50383,182.64473,84,121,0
182.64473,182.82121,96,123,0
182.82121,183.26987,91,127,0
182.82121,183.26987,79,127,0
182.82121,183.26987,84,127,0
182.82121,183.26987,87,127,0
183.37857,183.48807,89,126,0
183.48807,183.59755,87,125,0
183.59755,183.70705,86,124,0
183.70705,183.82068,84,118,0
183.82068,183.93431,82,114,0
183.93431,184.04794,80,113,0
184.04794,184.16513,79,119,0
184.16513,184.28232,77,120,0
184.28232,184.3995,75,118,0
184.3995,184.5167,74,114,0
184.5167,184.63388,72,109,0
184.63388,184.75107,71,105,0
184.75107,184.86826,68,101,0
184.86826,184.98544,67,97,0
184.98544,185.10263,65,91,0
185.10263,185.21982,63,87,0
185.21982,185.337,62,81,0
185.337,185.4542,60,77,0
185.4542,185.57138,59,69,0
185.57138,186.2745,60,66,0
186.2745,186.3917,62,60,0
186.3917,186.48544,60,61,0
186.50888,186.62607,59,66,0
186.62607,186.71982,60,74,0
186.74326,186.86044,59,80,0
186.86044,186.9542,60,86,0
186.97763,187.44638,63,91,0
187.44638,187.68076,62,66,0
188.2667,188.36044,62,73,0
188.38388,188.85263,64,86,0
188.96982,189.087,73,61,0
189.087,189.2042,72,63,0
189.2042,189.32138,70,67,0
189.32138,189.43857,68,70,0
189.43857,189.55576,67,73,0
189.55576,189.67294,65,77,0
189.67294,189.79013,64,81,0
189.79013,190.25888,67,86,0
190.25888,190.49326,65,66,0
191.0792,191.17294,65,86,0
191.19638,191.66513,67,91,0
191.66513,191.84091,66,78,0
191.8995,192.0167,67,83,0
192.0167,192.09482,66,85,0
192.13388,192.25107,67,86,0
192.25107,192.3292,66,90,0
192.36826,192.48544,67,92,0
192.48544,192.56357,66,94,0
192.60263,193.07138,68,96,0
193.07138,193.30576,67,66,0
193.92209,194.07486,67,52,0
194.13042,194.68773,72,54,0
194.68773,194.93263,68,50,0
194.93263,195.17621,63,42,0
195.17621,195.41782,60,48,0
195.41782,195.65591,75,52,0
195.65591,196.01181,70,54,0
196.12961,196.47935,70,41,0
196.94089,197.02551,67,38,0
197.05627,197.28705,68,48,0
197.28705,197.51782,72,35,0
197.51782,197.74858,70,37,0
197.74858,197.97935,68,38,0
197.97935,198.21013,67,41,0
198.21013,198.443,65,44,0
198.443,198.91606,66,47,0
198.443,198.91606,62,47,0
198.91606,199.27933,67,36,0
198.91606,199.27933,63,36,0
199.77013,199.89513,82,60,0
199.89513,200.45245,84,60,0
200.45245,200.69734,80,53,0
200.69734,200.94092,75,52,0
200.94092,201.18254,72,55,0
201.18254,201.42062,87,58,0
201.42062,201.77652,82,60,0
201.89432,202.24406,82,52,0
202.70561,202.79291,79,50,0
202.82466,203.06274,80,53,0
203.06274,203.30084,84,43,0
203.30084,203.53894,82,44,0
203.53894,203.77672,80,46,0
203.77672,204.01263,79,49,0
204.01263,204.2452,77,55,0
204.2452,204.47597,79,60,0
204.47597,204.70526,82,56,0
204.70526,204.93399,80,61,0
204.93399,205.16098,79,66,0
205.16098,205.38597,77,70,0
205.38597,205.60986,75,74,0
205.60986,205.83208,74,78,0
205.83208,206.05293,80,66,0
206.05293,206.27246,79,70,0
206.27246,206.49065,77,75,0
206.49065,206.7075,75,79,0
206.7075,206.9223,74,88,0
206.9223,207.02945,75,95,0
207.02945,207.13583,78,90,0
207.13583,207.24222,75,91,0
207.24222,207.32024,72,93,0
207.3486,207.45549,72,102,0
207.45549,207.5634,75,100,0
207.5634,207.67131,72,99,0
207.67131,207.7505,69,103,0
207.7795,207.88818,69,113,0
207.88818,207.99768,72,109,0
207.99768,208.10744,69,112,0
208.10744,208.21773,63,114,0
208.21773,208.32802,70,117,0
208.32802,208.43831,74,113,0
208.43831,208.54915,70,113,0
208.54915,208.63063,65,113,0
208.66026,208.7722,65,122,0
208.7722,208.88414,70,113,0
208.88414,208.99608,65,113,0
208.99608,209.07817,62,113,0
209.10802,209.22052,62,122,0
209.22052,209.33446,65,117,0
209.33446,209.44896,62,119,0
209.44896,209.53293,58,125,0
209.56346,209.79247,70,127,0
210.02293,210.48807,70,127,0
210.02293,210.48807,58,127,0
211.67836,211.93698,68,38,0
211.67836,211.93698,58,38,0
212.02318,212.28899,67,43,0
212.02318,212.28899,58,43,0
212.39568,212.74182,65,47,0
212.39568,212.74182,58,47,0
213.39293,213.79471,58,48,0
212.85721,213.92863,63,50,0
213.92863,214.33043,62,44,0
213.92863,214.33043,58,44,0
214.46436,214.74269,63,47,0
214.46436,214.74269,58,47,0
214.74269,215.0335,62,42,0
214.74269,215.0335,58,42,0
215.0335,215.33206,63,39,0
215.0335,215.33206,58,39,0
215.33206,215.64084,65,35,0
215.33206,215.64084,58,35,0
215.64084,216.10959,67,32,0
215.64084,216.10959,58,32,0
216.26584,217.51584,68,50,0
216.26584,217.51584,60,50,0
217.51584,217.98459,67,44,0
217.51584,217.98459,58,44,0
218.13506,218.41283,67,47,0
218.41283,218.69676,65,43,0
218.69676,218.989,63,33,0
218.989,219.29308,62,37,0
219.29308,219.60027,60,42,0
219.60027,219.83795,62,45,0
220.45346,220.85524,58,48,0
220.45346,220.85524,70,48,0
219.91774,220.98917,63,50,0
220.98917,221.39096,58,44,0
220.98917,221.39096,70,44,0
220.98917,221.39096,62,52,0
221.52489,221.80322,58,47,0
221.52489,221.80322,70,47,0
221.52489,221.80322,63,57,0
221.80322,222.09402,58,42,0
221.80322,222.09402,70,42,0
221.80322,222.09402,62,54,0
222.09402,222.3926,58,39,0
222.09402,222.3926,70,39,0
222.09402,222.3926,63,51,0
222.3926,222.70137,58,35,0
222.3926,222.70137,70,35,0
222.3926,222.70137,65,47,0
222.70137,223.17012,58,32,0
222.70137,223.17012,70,32,0
222.70137,223.17012,67,48,0
223.95137,224.42012,75,44,0
223.32637,224.57637,70,57,0
224.57637,225.04512,58,44,0
224.57637,225.04512,75,44,0
224.57637,225.04512,67,48,0
225.19559,225.4178,75,47,0
225.19559,225.47336,70,58,0
225.47336,225.70015,75,44,0
225.47336,225.7573,68,55,0
225.7573,225.99013,75,41,0
225.7573,226.04955,67,48,0
226.04955,226.29239,75,41,0
226.04955,226.3536,65,53,0
226.3536,226.59851,75,42,0
226.3536,226.6608,63,54,0
226.6608,226.89821,65,56,0
226.6608,226.89821,75,44,0
226.97716,227.32979,75,41,0
226.97716,227.32979,67,54,0
227.60873,228.5561,68,42,0
227.60873,228.5561,65,42,0
228.5561,228.8764,65,34,0
228.8764,229.2067,68,43,0
229.2067,229.54572,66,35,0
229.54572,229.87761,73,31,0
229.54572,229.89526,65,31,0
229.89526,230.18227,73,34,0
229.89526,230.25528,63,34,0
230.25528,230.55008,73,37,0
230.25528,230.62415,61,37,0
230.62415,230.90463,63,34,0
230.62415,230.90463,73,34,0
230.99838,231.4166,65,31,0
230.99838,231.4166,73,31,0
232.38223,235.50844,70,48,0
235.50844,236.12653,72,40,0
236.12653,236.7581,68,33,0
236.7581,237.54982,67,31,0
236.7581,237.54982,63,31,0
237.7094,237.96802,68,38,0
237.7094,237.96802,80,38,0
238.05421,238.32002,67,43,0
238.05421,238.32002,79,43,0
238.42671,238.88824,77,47,0
238.42671,238.88824,65,47,0
238.88824,240.21785,63,50,0
238.88824,240.21785,75,50,0
240.21785,240.82549,74,44,0
240.21785,240.82549,62,44,0
240.82549,241.1235,63,47,0
240.82549,241.1235,75,47,0
241.1235,241.41956,62,42,0
241.1235,241.41956,74,42,0
241.41956,241.71272,63,39,0
241.41956,241.71272,75,39,0
241.71272,242.0215,65,35,0
241.71272,242.0215,77,35,0
242.0215,242.49025,67,32,0
242.0215,242.49025,79,32,0
242.6465,243.8965,68,50,0
242.6465,243.8965,80,50,0
243.8965,244.46942,79,44,0
243.8965,244.46942,67,44,0
244.51991,244.81995,79,47,0
244.51991,244.81995,67,47,0
244.81995,245.11217,77,43,0
244.81995,245.11217,65,43,0
245.11217,245.39835,75,42,0
245.11217,245.39835,63,42,0
245.39835,245.68971,62,46,0
245.39835,245.68971,74,46,0
245.68971,246.00072,60,47,0
245.68971,246.00072,72,47,0
246.00072,246.23706,62,54,0
246.00072,246.23706,74,54,0
246.31438,247.49919,63,55,0
246.31438,247.49919,75,55,0
247.49919,248.05995,74,51,0
247.49919,248.05995,62,51,0
248.05995,248.34032,63,55,0
248.05995,248.34032,75,55,0
248.34032,248.6207,62,53,0
248.34032,248.6207,74,53,0
248.6207,248.90106,63,51,0
248.6207,248.90106,75,51,0
248.90106,249.1877,65,51,0
248.90106,249.1877,77,51,0
249.1877,249.63237,67,55,0
249.1877,249.63237,79,55,0
249.79916,250.96158,82,70,0
249.79916,250.96158,70,70,0
250.96158,251.4997,79,56,0
250.96158,251.4997,67,56,0
251.4997,251.76958,82,68,0
251.4997,251.76958,70,68,0
251.76958,252.04565,80,58,0
251.76958,252.04565,68,58,0
252.04565,252.33759,79,54,0
252.04565,252.33759,67,54,0
252.33759,252.64151,77,51,0
252.33759,252.64151,65,51,0
252.64151,252.94858,75,54,0
252.64151,252.94858,63,54,0
252.94858,253.18617,77,55,0
252.94858,253.18617,65,55,0
253.26653,253.80391,79,56,0
253.26653,253.80391,67,56,0
254.01517,254.94199,80,46,0
254.01517,254.94199,68,46,0
254.94199,255.24504,77,37,0
254.94199,255.24504,65,37,0
255.24504,255.54504,80,41,0
255.24504,255.54504,68,41,0
255.54504,255.84256,78,37,0
255.54504,255.84256,66,37,0
255.84256,256.14713,77,40,0
255.84256,256.14713,65,40,0
256.14713,256.45483,75,43,0
256.14713,256.45483,63,43,0
256.45483,256.7701,73,45,0
256.45483,256.7701,61,45,0
256.7701,257.09097,75,45,0
256.7701,257.09097,63,45,0
257.09097,257.572,77,48,0
257.09097,257.572,65,48,0
257.7299,258.94766,77,60,0
257.7299,258.94766,74,60,0
257.7299,258.94766,65,60,0
258.94766,259.53452,77,56,0
258.94766,259.53452,74,56,0
258.94766,259.53452,65,56,0
259.53452,259.8225,79,40,0
259.53452,259.8225,75,40,0
259.53452,259.8225,67,40,0
259.8225,260.10825,80,44,0
259.8225,260.10825,74,44,0
259.8225,260.10825,68,44,0
260.10825,260.39127,79,50,0
260.10825,260.39127,75,50,0
260.10825,260.39127,67,50,0
260.39127,260.67883,77,55,0
260.39127,260.67883,74,55,0
260.39127,260.67883,65,55,0
260.67883,261.2724,79,56,0
260.67883,261.2724,75,56,0
260.67883,261.2724,67,56,0
261.2724,261.86746,84,48,0
261.2724,261.86746,75,48,0
261.2724,261.86746,72,48,0
261.86746,262.47925,80,44,0
261.86746,262.47925,74,44,0
261.86746,262.47925,68,44,0
262.47925,263.27603,79,38,0
262.47925,263.27603,75,38,0
262.47925,263.27603,67,38,0
263.4403,263.61014,68,50,0
263.61014,263.7397,70,46,0
263.78732,263.9741,66,57,0
263.9741,264.11462,70,53,0
264.16727,264.36725,65,64,0
264.36725,264.522,70,59,0
264.57755,264.77417,63,65,0
264.77417,264.93735,70,56,0
264.96173,265.11752,66,56,0
265.14105,265.28903,65,56,0
265.3115,265.47577,63,65,0
265.47577,265.6134,70,56,0
265.63425,265.7666,66,56,0
265.7868,265.91495,63,56,0
265.93436,266.0777,62,65,0
266.0777,266.19937,70,58,0
266.2179,266.33716,65,59,0
266.3555,266.47302,62,62,0
266.49106,266.62228,63,62,0
266.62228,266.7336,70,55,0
266.75085,266.8651,62,58,0
266.8828,266.99915,70,61,0
267.01715,267.1356,63,63,0
267.15393,267.27615,70,65,0
267.295,267.41937,65,66,0
267.43878,267.56683,70,67,0
267.58685,267.73785,66,69,0
267.73785,267.87082,75,64,0
267.89145,268.02634,70,63,0
268.04715,268.22546,66,58,0
268.2463,268.39935,68,64,0
268.39935,268.5317,75,56,0
268.5519,268.6816,71,56,0
268.70142,268.82886,70,56,0
268.84848,268.99554,68,63,0
268.99554,269.1227,75,56,0
269.14212,269.26712,71,56,0
269.28635,269.41016,68,56,0
269.4292,269.5707,66,64,0
269.5707,269.69266,75,53,0
269.71133,269.8317,70,57,0
269.85022,269.9521,66,60,0
269.9891,270.12674,66,65,0
270.12674,270.24466,70,56,0
270.2627,270.3798,65,57,0
270.39783,270.5147,70,59,0
270.53256,270.64838,63,61,0
270.66608,270.78088,70,61,0
270.79843,270.91287,62,63,0
270.93042,271.04544,70,65,0
271.06314,271.17947,63,67,0
271.19748,271.3181,70,66,0
271.3379,271.49594,65,64,0
271.5219,271.71594,73,55,0
271.7458,271.9553,66,50,0
271.9553,272.09772,73,42,0
272.119,272.25156,70,42,0
272.27158,272.39844,68,42,0
272.4177,272.5566,66,51,0
272.5566,272.67453,73,42,0
272.69257,272.80838,70,42,0
272.82608,272.94052,66,49,0
272.95807,273.08887,65,40,0
273.08887,273.2017,73,41,0
273.21893,273.331,68,43,0
273.34824,273.4603,65,46,0
273.47754,273.60687,66,50,0
273.60687,273.71893,73,56,0
273.73618,273.84824,65,45,0
273.86548,273.97754,73,46,0
273.99478,274.10687,66,49,0
274.1241,274.23618,73,51,0
274.25342,274.36548,68,53,0
274.38272,274.49478,73,54,0
274.51202,274.64136,70,55,0
274.64136,274.75342,78,56,0
274.77066,274.88272,73,57,0
274.89996,275.01202,70,59,0
275.02927,275.1586,71,61,0
275.1586,275.27066,78,51,0
275.2879,275.39996,75,51,0
275.4172,275.52927,73,51,0
275.5465,275.65857,71,61,0
275.6758,275.7879,78,52,0
275.80515,275.91818,75,52,0
275.93558,276.05023,71,53,0
276.06793,276.20068,70,54,0
276.20068,276.317,78,55,0
276.33502,276.45386,73,57,0
276.4722,276.57364,70,57,0
276.61066,276.74915,70,59,0
276.74915,276.86707,73,48,0
276.8851,277.00156,68,49,0
277.01944,277.1355,73,50,0
277.15335,277.26944,66,52,0
277.2873,277.4013,73,52,0
277.41885,277.5329,65,54,0
277.55045,277.66403,73,55,0
277.68127,277.79333,66,56,0
277.81058,277.92264,73,56,0
277.93988,278.0663,67,54,0
278.0663,278.17444,75,52,0
278.19098,278.3136,68,61,0
278.3136,278.41858,75,66,0
278.43457,278.53787,70,69,0
278.55362,278.65598,78,78,0
278.67172,278.7733,71,82,0
278.7889,278.88998,80,87,0
278.9055,279.0061,75,94,0
279.02148,279.1215,82,100,0
279.13687,279.2367,75,105,0
279.25195,279.3512,83,109,0
279.36646,279.46478,78,114,0
279.4798,279.5625,87,119,0
279.5926,279.70538,80,124,0
279.70538,279.80313,92,124,0
279.81815,279.91574,87,119,0
279.93066,280.0275,83,115,0
280.04233,280.1386,80,113,0
280.15344,280.24973,75,109,0
280.26453,280.36084,71,108,0
280.37564,280.47195,68,109,0
280.48676,280.58307,63,113,0
280.59787,280.69418,59,116,0
280.70898,280.80527,63,119,0
280.8201,280.91638,68,121,0
280.9312,281.1238,71,127,0
281.15344,281.3201,87,105,0
281.15344,281.3201,80,105,0
281.15344,281.3201,75,105,0
281.37564,281.54233,75,107,0
281.37564,281.54233,80,107,0
281.37564,281.54233,87,107,0
281.59787,281.76453,75,114,0
281.59787,281.76453,80,114,0
281.59787,281.76453,87,114,0
281.8201,282.04233,76,126,0
281.8201,282.04233,80,126,0
281.8201,282.04233,88,126,0
282.04233,282.15344,87,91,0
282.04233,282.15344,80,91,0
282.04233,282.15344,75,91,0
282.26453,282.38715,66,61,0
282.38715,282.49213,75,66,0
282.50812,282.61142,69,69,0
282.62717,282.72955,77,78,0
282.7453,282.84686,70,82,0
282.8625,282.96356,78,87,0
282.97906,283.07965,77,94,0
283.09503,283.19504,81,100,0
283.21042,283.31024,78,105,0
283.32553,283.42474,82,109,0
283.44003,283.53833,81,114,0
283.55338,283.63608,89,119,0
283.66617,283.77893,82,124,0
283.77893,283.87668,94,124,0
283.89172,283.9893,90,119,0
284.0042,284.10107,87,115,0
284.11588,284.2122,82,113,0
284.227,284.3233,78,109,0
284.3381,284.4344,75,108,0
284.44922,284.5455,70,109,0
284.56033,284.65662,66,113,0
284.67145,284.76773,63,116,0
284.78256,284.87885,66,119,0
284.89365,284.98996,70,121,0
285.00476,285.19736,75,127,0
285.227,285.39365,87,105,0
285.227,285.39365,82,105,0
285.227,285.39365,78,105,0
285.227,285.39365,75,105,0
285.44922,285.61588,75,107,0
285.44922,285.61588,82,107,0
285.44922,285.61588,78,107,0
285.44922,285.61588,87,107,0
285.67145,285.8415,75,114,0
285.67145,285.8415,82,114,0
285.67145,285.8415,78,114,0
285.67145,285.8415,87,114,0
285.89874,286.1307,76,126,0
285.89874,286.1307,82,126,0
285.89874,286.1307,78,126,0
285.89874,286.1307,88,126,0
286.1307,286.2479,87,91,0
286.1307,286.2479,82,91,0
286.1307,286.2479,78,91,0
286.1307,286.2479,75,91,0
286.60132,286.78003,75,98,0
286.60132,286.78003,63,98,0
286.60132,286.78003,57,98,0
286.60132,286.78003,65,98,0
286.60132,286.78003,77,98,0
286.60132,286.78003,72,98,0
286.84003,287.02084,75,105,0
286.84003,287.02084,63,105,0
286.84003,287.02084,57,105,0
286.84003,287.02084,65,105,0
286.84003,287.02084,72,105,0
286.84003,287.02084,77,105,0
287.08133,287.2628,75,111,0
287.08133,287.2628,63,111,0
287.08133,287.2628,57,111,0
287.08133,287.2628,65,111,0
287.08133,287.2628,77,111,0
287.08133,287.2628,72,111,0
287.3236,287.56915,75,118,0
287.3236,287.56915,72,118,0
287.3236,287.56915,78,118,0
287.56915,287.69315,75,87,0
288.07562,288.27243,65,70,0
288.07562,288.27243,60,70,0
288.07562,288.27243,63,70,0
288.3388,288.5409,65,59,0
288.3388,288.5409,63,59,0
288.3388,288.5409,60,59,0
288.60907,288.8172,65,50,0
288.60907,288.8172,63,50,0
288.60907,288.8172,60,50,0
288.8873,289.17166,60,58,0
288.8873,289.17166,63,58,0
288.8873,289.17166,66,58,0
289.17166,289.31454,72,46,0
289.51453,290.754,55,53,0
289.51453,290.754,63,53,0
290.754,290.91528,56,40,0
290.91528,291.0766,58,49,0
291.0766,291.23788,60,54,0
290.754,291.3185,62,56,0
291.23788,291.39917,56,50,0
291.39917,292.0538,63,50,0
291.39917,292.0538,55,40,0
292.33685,292.55908,70,33,0
292.33685,292.55908,82,33,0
292.61462,292.83685,82,37,0
292.61462,292.83685,70,37,0
292.89243,293.11462,70,42,0
292.89243,293.11462,82,42,0
293.1702,293.7165,71,44,0
293.1702,293.7165,83,44,0
293.7165,294.508,87,46,0
293.7165,294.508,75,46,0
294.63657,294.76477,83,36,0
294.63657,294.76477,71,36,0
294.76477,295.2776,83,44,0
294.76477,295.2776,71,44,0
295.2776,295.91934,70,33,0
295.2776,295.91934,82,33,0
296.04868,296.30917,81,39,0
296.04868,296.30917,69,39,0
296.30917,296.8355,82,41,0
296.30917,296.8355,70,41,0
296.8355,297.101,80,35,0
296.8355,297.101,68,35,0
297.101,297.37128,79,35,0
297.101,297.37128,67,35,0
297.37128,297.92007,80,36,0
297.37128,297.92007,74,36,0
297.37128,297.92007,68,36,0
297.92007,298.6193,79,40,0
297.92007,298.6193,75,40,0
297.92007,298.6193,67,40,0
298.76126,298.9835,58,33,0
298.76126,298.9835,70,33,0
299.03903,299.26126,70,37,0
299.03903,299.26126,58,37,0
299.31683,299.53903,58,42,0
299.31683,299.53903,70,42,0
299.5946,300.1409,59,44,0
299.5946,300.1409,71,44,0
300.1409,300.40796,75,43,0
300.1409,300.40796,63,43,0
300.40796,300.6719,80,40,0
300.40796,300.6719,68,40,0
300.6719,300.9324,75,32,0
300.6719,300.9324,63,32,0
300.9324,301.18918,71,37,0
300.9324,301.18918,59,37,0
301.18918,301.702,71,42,0
301.18918,301.702,59,42,0
301.702,302.34375,58,33,0
301.702,302.34375,70,33,0
302.47195,302.72986,69,39,0
302.47195,302.72986,57,39,0
302.72986,303.2501,70,41,0
302.72986,303.2501,58,41,0
303.2501,303.51096,68,35,0
303.2501,303.51096,56,35,0
303.51096,303.77335,67,35,0
303.51096,303.77335,55,35,0
303.77335,304.30356,68,36,0
303.77335,304.30356,62,36,0
303.77335,304.30356,56,36,0
304.30356,304.96725,67,31,0
304.30356,304.96725,63,31,0
304.30356,304.96725,55,31,0
305.1,305.36707,70,31,0
305.36707,305.63495,68,32,0
305.63495,305.9028,67,35,0
305.9028,306.44254,70,36,0
306.44254,306.7128,68,29,0
306.7128,306.98306,67,30,0
306.98306,307.5277,68,32,0
307.5277,307.9368,67,34,0
307.5277,307.9368,63,34,0
308.07315,308.61862,84,37,0
308.07315,308.61862,75,37,0
308.07315,308.61862,72,37,0
308.61862,309.16614,80,41,0
308.61862,309.16614,74,41,0
309.16614,309.57898,75,34,0
309.16614,309.57898,79,34,0
309.71704,310.27258,72,34,0
309.71704,310.27258,63,34,0
309.71704,310.27258,60,34,0
310.27258,310.82816,68,37,0
310.27258,310.82816,62,37,0
310.82816,311.2448,67,28,0
310.82816,311.2448,63,28,0
311.3837,311.9423,80,32,0
311.3837,311.9423,74,32,0
311.9423,312.38025,75,25,0
311.9423,312.38025,79,25,0
312.53128,313.15915,68,33,0
312.53128,313.15915,62,33,0
313.15915,313.65646,67,26,0
313.15915,313.65646,63,26,0
316.22238,316.4457,59,53,0
316.22238,316.4457,55,53,0
316.4457,316.6663,60,64,0
316.4457,316.6663,56,64,0
316.6663,316.8829,62,55,0
316.6663,316.8829,59,55,0
316.6663,316.8829,52,55,0
316.8829,317.09824,63,57,0
316.8829,317.09824,60,57,0
316.8829,317.09824,51,57,0
317.09824,317.3125,67,59,0
317.09824,317.3125,61,59,0
317.09824,317.3125,45,59,0
317.3125,317.47324,68,61,0
317.3125,317.47324,60,61,0
317.3125,317.47324,44,61,0
317.5479,317.70978,72,120,0
317.5479,317.70978,63,120,0
317.5479,317.70978,39,120,0
317.5479,317.70978,44,120,0
317.5479,317.70978,32,120,0
317.5479,317.70978,68,120,0
317.5479,317.70978,60,120,0
317.76373,318.71976,73,127,0
317.76373,318.71976,63,127,0
317.76373,318.71976,39,127,0
317.76373,318.71976,43,127,0
317.76373,318.71976,31,127,0
317.76373,318.71976,70,127,0
317.76373,318.71976,61,127,0
318.9281,319.1506,72,60,0
318.9281,319.1506,64,60,0
319.1506,319.3704,73,67,0
319.1506,319.3704,63,67,0
319.3704,319.58704,68,54,0
319.3704,319.58704,64,54,0
319.3704,319.58704,56,54,0
319.58704,319.79904,70,58,0
319.58704,319.79904,55,58,0
319.58704,319.79904,63,58,0
319.79904,320.0069,65,61,0
319.79904,320.0069,47,61,0
319.79904,320.0069,50,61,0
319.79904,320.0069,56,61,0
320.0069,320.16208,63,67,0
320.0069,320.16208,46,67,0
320.0069,320.16208,51,67,0
320.0069,320.16208,55,67,0
320.2361,320.3984,61,120,0
320.2361,320.3984,31,120,0
320.2361,320.3984,55,120,0
320.2361,320.3984,58,120,0
320.2361,320.3984,43,120,0
320.4567,320.57297,44,120,0
320.4567,320.63113,60,127,0
320.69473,320.89386,72,81,0
320.69473,320.89386,68,81,0
320.69473,320.89386,60,81,0
320.95416,321.52667,75,60,0
320.95416,321.52667,72,60,0
320.95416,321.52667,63,60,0
321.64117,321.81293,77,53,0
321.64117,321.81293,73,53,0
321.64117,321.81293,65,53,0
321.87018,322.04193,78,49,0
321.87018,322.04193,75,49,0
321.87018,322.04193,66,49,0
322.09918,322.2131,87,54,0
322.2131,322.32617,85,58,0
322.32617,322.4381,84,61,0
322.4381,322.55005,90,65,0
322.55005,322.66037,87,67,0
322.66037,322.77066,85,71,0
322.77066,322.8791,84,74,0
322.8791,322.98648,87,78,0
322.98648,323.09363,75,82,0
323.09363,323.20053,77,87,0
323.20053,323.3064,78,99,0
323.3064,323.41205,84,100,0
323.41205,323.51767,75,98,0
323.51767,323.62405,77,90,0
323.62405,323.73224,78,87,0
323.73224,323.84174,77,82,0
323.84174,323.95175,75,78,0
323.95175,324.06204,73,73,0
324.06204,324.1726,72,63,0
324.1726,324.28372,77,58,0
324.28372,324.39566,75,56,0
324.39566,324.5076,72,53,0
324.5076,324.6755,74,51,0
324.73148,324.93237,74,66,0
324.73148,324.93237,70,66,0
324.73148,324.93237,62,66,0
324.99228,325.55536,77,50,0
324.99228,325.55536,74,50,0
324.99228,325.55536,65,50,0
325.66702,325.83273,79,45,0
325.66702,325.83273,75,45,0
325.66702,325.83273,67,45,0
325.88788,326.0516,80,41,0
325.88788,326.0516,77,41,0
325.88788,326.0516,68,41,0
326.10556,326.21243,89,52,0
326.21243,326.31833,87,58,0
326.31833,326.42322,86,64,0
326.42322,326.52786,92,68,0
326.52786,326.63205,89,74,0
326.63205,326.73596,87,82,0
326.73596,326.83893,86,87,0
326.83893,326.94122,89,92,0
326.94122,327.04187,77,97,0
327.04187,327.14255,79,99,0
327.14255,327.24323,80,101,0
327.24323,327.34412,86,97,0
327.34412,327.4457,77,91,0
327.4457,327.54822,79,89,0
327.54822,327.65094,80,85,0
327.65094,327.75415,79,82,0
327.75415,327.8581,77,77,0
327.8581,327.96274,75,74,0
327.96274,328.06763,74,67,0
328.06763,328.17328,79,64,0
328.17328,328.28015,77,56,0
328.28015,328.3881,74,54,0
328.3881,328.54996,76,52,0
328.61218,328.8113,72,45,0
328.61218,328.8113,76,45,0
328.61218,328.8113,84,45,0
328.8722,329.45358,73,59,0
328.8722,329.45358,77,59,0
328.8722,329.45358,85,59,0
329.56985,329.74426,73,48,0
329.56985,329.74426,65,48,0
329.56985,329.74426,77,48,0
329.8024,329.97684,76,52,0
329.8024,329.97684,72,52,0
329.8024,329.97684,64,52,0
330.03497,330.23587,72,84,0
330.03497,330.23587,76,84,0
330.03497,330.23587,84,84,0
330.30283,330.88422,73,99,0
330.30283,330.88422,77,99,0
330.30283,330.88422,85,99,0
331.0005,331.17493,73,67,0
331.0005,331.17493,65,67,0
331.0005,331.17493,77,67,0
331.23306,331.40747,76,52,0
331.23306,331.40747,72,52,0
331.23306,331.40747,64,52,0
331.47357,331.68387,72,84,0
331.47357,331.68387,76,84,0
331.47357,331.68387,84,84,0
331.75397,332.31677,73,99,0
331.75397,332.31677,77,99,0
331.75397,332.31677,85,99,0
332.42496,332.58478,65,67,0
332.42496,332.58478,77,67,0
332.42496,332.58478,74,67,0
332.63797,332.79956,79,90,0
332.63797,332.79956,75,90,0
332.63797,332.79956,67,90,0
332.85956,333.032,84,106,0
332.85956,333.032,75,106,0
332.85956,333.032,79,106,0
333.08395,333.61707,85,115,0
333.08395,333.61707,80,115,0
333.08395,333.61707,76,115,0
333.7349,333.9205,77,67,0
333.7349,333.9205,80,67,0
333.7349,333.9205,68,67,0
333.98352,334.20804,82,62,0
333.98352,334.20804,78,62,0
333.98352,334.20804,70,62,0
334.3018,334.5756,82,46,0
334.3018,334.5756,90,46,0
334.3018,334.5756,78,46,0
334.65292,335.4248,91,55,0
334.65292,335.4248,83,55,0
334.65292,335.4248,79,55,0
335.58728,335.8398,79,49,0
335.58728,335.8398,71,49,0
335.58728,335.8398,67,49,0
335.9257,336.1705,79,61,0
335.9257,336.1705,67,61,0
335.9257,336.1705,71,61,0
336.24808,336.4685,78,78,0
336.24808,336.4685,66,78,0
336.24808,336.4685,71,78,0
336.53818,336.74295,78,85,0
336.53818,336.74295,66,85,0
336.53818,336.74295,71,85,0
336.80972,337.00388,76,98,0
336.80972,337.00388,64,98,0
336.80972,337.00388,71,98,0
337.06726,337.24832,76,108,0
337.06726,337.24832,64,108,0
337.06726,337.24832,71,108,0
337.30676,337.49542,74,118,0
337.30676,337.49542,62,118,0
337.30676,337.49542,71,118,0
337.563,338.42682,81,126,0
337.563,338.42682,69,126,0
337.563,338.42682,74,126,0
337.563,338.42682,78,126,0
338.69955,338.8855,69,107,0
338.69955,338.8855,57,107,0
338.69955,338.8855,62,107,0
338.69955,338.8855,66,107,0
338.94748,339.81705,69,126,0
338.94748,339.81705,57,126,0
338.94748,339.81705,64,126,0
338.94748,339.81705,67,126,0
340.08566,340.2716,61,111,0
340.08566,340.2716,52,111,0
340.08566,340.2716,55,111,0
340.08566,340.2716,57,111,0
340.3336,340.42944,50,114,0
340.46582,340.60217,62,104,0
340.60217,340.73453,57,94,0
340.73453,340.86386,54,89,0
340.86386,340.99063,50,85,0
340.99063,341.11426,62,78,0
341.11426,341.23557,57,73,0
341.23557,341.35492,54,69,0
341.35492,341.47272,50,64,0
341.47272,341.5893,62,61,0
341.5893,341.70468,57,58,0
341.70468,341.82007,54,54,0
341.82007,341.906,50,47,0
341.93726,342.056,62,44,0
342.056,342.17505,57,42,0
342.17505,342.2944,54,39,0
342.2944,342.4144,50,38,0
342.4144,342.53473,62,36,0
342.53473,342.65668,57,35,0
342.65668,342.77863,54,34,0
342.77863,342.90225,50,34,0
342.90225,343.02762,62,34,0
343.02762,343.15366,57,34,0
343.15366,343.28116,54,34,0
343.28116,343.37515,50,33,0
343.40936,343.53683,62,34,0
343.53683,343.66394,57,36,0
343.66394,343.79108,54,36,0
343.79108,343.91818,50,38,0
343.91818,344.04532,62,40,0
344.04532,344.17242,57,43,0
344.17242,344.29953,54,46,0
344.29953,344.42667,50,50,0
344.42667,344.55377,62,53,0
344.55377,344.6809,57,55,0
344.6809,344.808,54,59,0
344.808,344.93515,57,62,0
344.808,344.93515,55,62,0
344.808,344.93515,49,62,0
344.93515,345.06226,61,47,0
345.06226,345.18936,57,46,0
345.06226,345.18936,55,46,0
345.06226,345.18936,50,46,0
345.18936,345.3165,62,45,0
345.3165,345.4436,52,44,0
345.4436,345.57074,64,42,0
345.57074,345.69785,57,42,0
345.69785,345.82495,55,42,0
345.82495,345.9521,52,41,0
345.9521,346.0792,64,41,0
346.0792,346.20633,57,41,0
346.20633,346.33344,55,41,0
346.33344,346.42667,50,41,0
346.46057,346.58768,62,41,0
346.58768,346.71478,57,40,0
346.71478,346.84192,54,34,0
346.84192,346.96902,50,34,0
346.96902,347.09616,62,32,0
347.09616,347.22327,57,32,0
347.22327,347.3504,54,32,0
347.3504,347.4775,50,31,0
347.4775,347.6046,62,31,0
347.6046,347.73175,57,31,0
347.73175,347.85886,54,30,0
347.85886,347.95288,50,33,0
347.98706,348.11453,62,34,0
348.11453,348.24167,57,36,0
348.24167,348.36877,54,36,0
348.36877,348.4959,50,38,0
348.4959,348.62302,62,40,0
348.62302,348.75015,57,43,0
348.75015,348.87726,54,46,0
348.87726,349.00436,50,50,0
349.00436,349.1315,62,53,0
349.1315,349.2586,57,55,0
349.2586,349.38574,54,59,0
349.38574,349.51285,57,62,0
349.38574,349.51285,55,62,0
349.38574,349.51285,49,62,0
349.51285,349.63998,61,47,0
349.63998,349.7671,57,46,0
349.63998,349.7671,55,46,0
349.63998,349.7671,50,46,0
349.7671,349.8942,62,45,0
349.8942,350.02133,52,44,0
350.02133,350.14844,64,42,0
350.14844,350.27557,57,42,0
350.27557,350.40268,55,42,0
350.40268,350.5298,52,41,0
350.5298,350.65692,64,41,0
350.65692,350.78403,57,41,0
350.78403,350.91116,55,41,0
350.91116,351.00436,50,41,0
351.03827,351.1654,62,41,0
351.1654,351.2925,57,40,0
351.2925,351.41962,54,34,0
351.41962,351.54675,50,34,0
351.54675,351.67386,62,32,0
351.67386,351.801,57,32,0
351.801,351.9281,54,32,0
351.9281,352.0552,50,31,0
352.0552,352.18234,62,31,0
352.18234,352.30945,57,31,0
352.30945,352.43658,54,30,0
352.43658,352.5298,50,32,0
352.5637,352.69083,62,34,0
352.69083,352.8183,57,32,0
352.8183,352.9465,54,34,0
352.9465,353.0747,50,36,0
353.0747,353.2029,62,37,0
353.2029,353.33112,57,39,0
353.33112,353.45932,54,41,0
353.45932,353.58752,50,43,0
353.58752,353.7143,62,44,0
353.7143,353.84033,57,45,0
353.84033,353.9664,54,46,0
353.9664,354.05884,50,47,0
354.09244,354.21848,62,48,0
354.21848,354.34454,57,45,0
354.34454,354.47165,54,44,0
354.47165,354.6006,49,43,0
354.6006,354.7314,61,42,0
354.7314,354.86456,58,40,0
354.86456,355.00134,55,39,0
355.00134,355.14197,48,38,0
355.14197,355.28906,60,35,0
355.28906,355.4411,58,36,0
355.4411,355.60068,55,38,0
355.60068,355.71674,53,40,0
355.75757,355.90613,65,41,0
355.90613,356.04852,60,41,0
356.04852,356.18573,57,42,0
356.18573,356.3181,53,44,0
356.3181,356.44745,65,44,0
356.44745,356.57455,60,46,0
356.57455,356.70026,57,48,0
356.70026,356.82492,53,50,0
356.82492,356.94888,65,51,0
356.94888,357.07285,60,51,0
357.07285,357.19647,57,52,0
357.19647,357.28665,53,55,0
357.31943,357.44205,65,56,0
357.44205,357.56335,60,57,0
357.56335,357.6824,58,58,0
357.6824,357.80542,52,61,0
357.80542,357.93216,64,62,0
357.93216,358.06223,61,64,0
358.06223,358.19498,58,66,0
358.19498,358.32773,51,66,0
358.32773,358.4645,63,64,0
358.4645,358.6111,61,63,0
358.6111,358.76526,58,56,0
358.76526,358.88602,56,55,0
358.9295,359.0767,68,41,0
359.0767,359.21075,63,43,0
359.21075,359.33414,60,43,0
359.33414,359.45413,56,42,0
359.45413,359.57413,68,41,0
359.57413,359.6948,63,40,0
359.6948,359.81708,61,38,0
359.81708,359.94037,55,38,0
359.94037,360.06537,67,37,0
360.06537,360.19177,63,37,0
360.19177,360.33124,61,37,0
360.33124,360.4229,56,37,0
360.45624,360.58124,68,37,0
360.58124,360.70624,63,37,0
360.70624,360.83124,60,37,0
360.83124,360.95624,56,37,0
360.95624,361.08124,68,37,0
361.08124,361.20694,63,36,0
361.20694,361.3337,61,36,0
361.3337,361.4619,55,35,0
361.4619,361.59158,67,35,0
361.59158,361.72318,63,34,0
361.72318,361.85593,61,34,0
361.85593,361.98868,60,32,0
361.98868,362.11948,68,32,0
362.11948,362.24954,59,32,0
362.24954,362.37885,67,34,0
362.37885,362.50818,60,34,0
362.50818,362.63602,68,35,0
362.63602,362.76205,64,36,0
362.76205,362.88742,69,35,0
362.88742,363.01242,61,36,0
363.01242,363.13742,70,38,0
363.13742,363.26138,60,39,0
363.26138,363.385,69,39,0
363.385,363.50534,61,39,0
363.50534,363.6273,70,39,0
363.6273,363.75092,68,37,0
363.6273,363.75092,62,37,0
363.75092,363.87592,70,36,0
363.87592,364.00415,68,36,0
363.87592,364.00415,63,36,0
364.00415,364.1361,70,35,0
364.1361,364.27206,65,35,0
364.1361,364.27206,68,35,0
364.27206,364.41183,72,36,0
364.41183,364.55518,68,37,0
364.41183,364.55518,63,37,0
364.55518,364.7037,73,39,0
364.7037,364.85834,67,37,0
364.7037,364.85834,63,37,0
364.85834,365.01248,73,36,0
365.01248,365.16452,44,34,0
365.16452,365.31403,56,40,0
365.31403,365.46252,51,40,0
365.46252,365.60913,48,39,0
365.01248,365.60913,72,34,0
365.01248,365.60913,68,34,0
365.01248,365.60913,63,34,0
365.60913,365.75153,44,38,0
365.75153,365.89218,56,36,0
365.89218,366.0294,51,35,0
366.0294,366.16452,48,35,0
366.16452,366.29688,44,37,0
366.29688,366.42654,56,38,0
366.42654,366.55478,51,39,0
366.55478,366.68015,48,40,0
366.68015,366.77063,44,41,0
366.8034,366.92572,56,42,0
366.92572,367.04602,51,43,0
367.04602,367.16605,48,44,0
367.16605,367.2854,44,44,0
367.2854,367.4014,56,46,0
367.4014,367.51678,51,48,0
367.51678,367.63217,48,49,0
367.63217,367.74753,42,50,0
367.74753,367.8629,54,51,0
367.8629,367.9783,51,53,0
367.9783,368.0937,48,54,0
368.0937,368.1783,42,54,0
368.20908,368.32446,54,54,0
368.32446,368.43985,51,53,0
368.43985,368.55524,48,52,0
368.55524,368.67062,41,51,0
368.67062,368.786,53,49,0
368.786,368.9014,51,48,0
368.9014,369.01678,48,47,0
369.01678,369.13214,42,45,0
369.13214,369.24753,53,44,0
369.24753,369.3629,51,43,0
369.3629,369.48135,48,43,0
369.48135,369.56903,46,43,0
369.60104,369.72104,58,43,0
369.72104,369.84134,53,43,0
369.84134,369.96265,50,43,0
369.96265,370.08493,46,43,0
370.08493,370.21155,58,44,0
370.21155,370.34146,53,46,0
370.34146,370.47418,50,48,0
370.47418,370.60693,46,49,0
370.60693,370.74356,58,51,0
370.74356,370.88977,53,53,0
370.88977,371.0436,50,54,0
371.0436,371.1642,46,55,0
371.2077,371.3556,58,57,0
371.3556,371.4901,53,59,0
371.4901,371.61377,51,61,0
371.61377,371.73376,45,62,0
371.73376,371.85376,57,63,0
371.85376,371.97437,54,65,0
371.97437,372.0966,51,63,0
372.0966,372.21985,44,61,0
372.21985,372.34482,56,60,0
372.34482,372.47116,54,51,0
372.47116,372.61002,51,44,0
372.61002,372.70236,49,41,0
372.7357,372.8607,61,41,0
372.8607,372.9857,56,42,0
372.9857,373.1107,53,44,0
373.1107,373.2357,49,47,0
373.2357,373.3607,61,47,0
373.3607,373.48636,56,47,0
373.48636,373.6131,54,47,0
373.6131,373.7412,48,46,0
373.7412,373.87088,60,45,0
373.87088,374.0024,56,43,0
374.0024,374.13513,54,42,0
374.13513,374.23248,49,41,0
374.26788,374.39877,61,39,0
374.39877,374.52887,56,37,0
374.52887,374.65817,53,37,0
374.65817,374.78748,49,36,0
374.78748,374.9154,61,35,0
374.9154,375.04147,56,34,0
375.04147,375.16687,54,34,0
375.16687,375.29187,48,34,0
375.29187,375.41687,60,34,0
375.41687,375.54086,56,34,0
375.54086,375.66452,54,34,0
375.66452,375.78488,65,34,0
375.78488,375.90552,73,34,0
375.90552,376.0278,64,35,0
376.0278,376.15143,72,35,0
376.15143,376.27542,65,36,0
376.27542,376.4037,73,36,0
376.4037,376.53412,69,37,0
376.53412,376.6665,74,39,0
376.6665,376.8004,66,40,0
376.8004,376.93475,75,40,0
376.93475,377.0699,65,40,0
377.0699,377.20758,74,40,0
377.20758,377.3523,66,40,0
377.3523,377.5018,75,39,0
377.5018,377.6518,73,38,0
377.5018,377.6518,67,38,0
377.6518,377.80383,75,38,0
377.80383,377.96008,73,38,0
377.80383,377.96008,68,38,0
377.96008,378.1233,75,38,0
378.1233,378.28995,70,36,0
378.1233,378.28995,73,36,0
378.28995,378.46457,77,35,0
378.46457,378.6475,73,34,0
378.46457,378.6475,68,34,0
378.6475,378.835,78,33,0
378.835,379.0225,72,32,0
378.835,379.0225,68,32,0
379.0225,379.21646,78,31,0
379.21646,379.48917,77,38,0
379.21646,379.48917,73,38,0
379.21646,379.48917,68,38,0
379.57376,379.73685,85,38,0
379.73685,379.8931,84,36,0
379.8931,380.0392,83,33,0
380.0392,380.18344,82,32,0
380.18344,380.32452,81,34,0
380.32452,380.46255,80,35,0
380.46255,380.5981,79,36,0
380.5981,380.73203,78,38,0
380.73203,380.86478,77,39,0
380.86478,380.99637,78,40,0
380.99637,381.12717,79,40,0
381.12717,381.2576,78,39,0
381.2576,381.38803,77,38,0
381.38803,381.51736,76,35,0
381.51736,381.64594,75,33,0
381.64594,381.77377,73,33,0
381.77377,381.90088,72,32,0
381.90088,382.02695,69,32,0
382.02695,382.15298,68,33,0
382.15298,382.27905,69,37,0
382.27905,382.40475,68,39,0
382.40475,382.53046,66,40,0
382.53046,382.6583,65,38,0
382.6583,382.7876,64,39,0
382.7876,382.9173,65,37,0
382.9173,383.04773,66,35,0
383.04773,383.17892,67,34,0
383.17892,383.31128,66,33,0
383.31128,383.44522,67,33,0
383.44522,383.58075,68,35,0
383.58075,383.71878,67,38,0
383.71878,383.85986,71,40,0
383.85986,384.00458,74,41,0
384.00458,384.15613,77,42,0
384.15613,384.37772,76,38,0
384.15613,384.37772,72,38,0
384.15613,384.37772,67,38,0
384.4494,384.5896,84,38,0
384.5896,384.72556,83,36,0
384.72556,384.8587,82,33,0
384.8587,384.98837,81,32,0
384.98837,385.1177,80,34,0
385.1177,385.2459,79,35,0
385.2459,385.37268,78,36,0
385.37268,385.50018,77,38,0
385.50018,385.6306,76,39,0
385.6306,385.76105,77,40,0
385.76105,385.89148,78,40,0
385.89148,386.0219,77,39,0
386.0219,386.15125,76,38,0
386.15125,386.28055,75,36,0
386.28055,386.4095,74,35,0
386.4095,386.53732,72,34,0
386.53732,386.66443,71,33,0
386.66443,386.7905,68,33,0
386.7905,386.91653,67,32,0
386.91653,387.0426,68,31,0
387.0426,387.1683,67,31,0
387.1683,387.294,65,31,0
387.294,387.42184,64,31,0
387.42184,387.55115,60,31,0
387.55115,387.68085,59,31,0
387.68085,387.81128,60,31,0
387.81128,387.94247,61,31,0
387.94247,388.07483,62,31,0
388.07483,388.20758,63,31,0
388.20758,388.3407,64,31,0
388.3407,388.47464,65,31,0
388.47464,388.60938,64,31,0
388.60938,388.74698,65,31,0
388.74698,388.88907,66,32,0
388.88907,389.10214,67,33,0
389.17053,389.30408,79,28,0
389.30408,389.433,78,28,0
389.433,389.56122,77,28,0
389.56122,389.68942,76,28,0
389.68942,389.81763,75,30,0
389.81763,389.94583,74,30,0
389.94583,390.07404,73,30,0
390.07404,390.20224,72,32,0
390.20224,390.33044,71,34,0
390.33044,390.45868,72,36,0
390.45868,390.58688,73,36,0
390.58688,390.7151,72,34,0
390.7151,390.8433,71,33,0
390.8433,390.9715,70,31,0
390.9715,391.0997,69,31,0
391.0997,391.2279,67,30,0
391.2279,391.3561,66,29,0
391.3561,391.4843,63,29,0
391.4843,391.61252,62,29,0
391.61252,391.74072,63,29,0
391.74072,391.8708,62,29,0
391.8708,392.00516,60,29,0
392.00516,392.22083,59,30,0
392.29227,392.43115,91,28,0
392.43115,392.56793,90,27,0
392.56793,392.70267,89,27,0
392.70267,392.83463,88,27,0
392.83463,392.96545,87,27,0
392.96545,393.09515,86,27,0
393.09515,393.22446,85,27,0
393.22446,393.3534,84,27,0
393.3534,393.47806,83,27,0
393.47806,393.60168,84,29,0
393.60168,393.72397,85,28,0
393.72397,393.84592,84,29,0
393.84592,393.96753,83,30,0
393.96753,394.08948,82,30,0
394.08948,394.21143,81,30,0
394.21143,394.33337,79,31,0
394.33337,394.45633,78,32,0
394.45633,394.58032,75,33,0
394.58032,394.70602,74,34,0
394.70602,394.83206,75,36,0
394.83206,394.95917,74,37,0
394.95917,395.08667,72,39,0
395.08667,395.21487,71,40,0
395.21487,395.3438,70,40,0
395.3438,395.4731,69,39,0
395.4731,395.60355,68,38,0
395.60355,395.73398,67,37,0
395.73398,395.8644,66,36,0
395.8644,395.9941,65,35,0
395.9941,396.12305,64,35,0
396.12305,396.25125,63,34,0
396.25125,396.37946,62,34,0
396.37946,396.50693,61,32,0
396.50693,396.63406,60,32,0
396.63406,396.76117,59,34,0
396.76117,396.8883,60,34,0
396.8883,397.0147,61,34,0
397.0147,397.14075,62,34,0
397.14075,397.2668,63,34,0
397.2668,397.39285,64,35,0
397.39285,397.5182,65,36,0
397.5182,397.6432,66,39,0
397.6432,397.7682,67,40,0
397.7682,397.8932,68,43,0
397.8932,398.0182,69,43,0
398.0182,398.1432,70,46,0
398.1432,398.26752,71,48,0
398.26752,398.39148,72,48,0
398.39148,398.51544,73,48,0
398.51544,398.6394,74,47,0
398.6394,398.7627,75,46,0
398.7627,398.88565,76,45,0
398.88565,399.0086,77,45,0
399.0086,399.13055,78,43,0
399.13055,399.2525,79,41,0
399.2525,399.37445,80,40,0
399.37445,399.4964,81,39,0
399.4964,399.61835,82,38,0
399.61835,399.73965,83,37,0
399.73965,399.86063,82,37,0
399.86063,399.9816,81,37,0
399.9816,400.10223,80,37,0
400.10223,400.22223,79,37,0
400.22223,400.34222,78,37,0
400.34222,400.46222,77,37,0
400.46222,400.58496,76,37,0
400.58496,400.67044,75,37,0
400.67044,400.75592,74,37,0
400.75592,400.84137,73,37,0
400.84137,400.92685,72,38,0
400.92685,401.01233,71,40,0
401.0166,401.09802,70,41,0
401.09412,401.2113,69,44,0
401.2113,401.3282,70,47,0
401.3282,401.44446,71,49,0
401.44446,401.56076,72,52,0
401.56076,401.67703,73,55,0
401.67703,401.7933,74,56,0
401.7933,401.90958,75,58,0
401.90958,402.02557,76,60,0
402.02557,402.14096,77,61,0
402.14096,402.25635,78,63,0
402.25635,402.3717,79,64,0
402.3717,402.48624,80,66,0
402.48624,402.60074,81,66,0
402.60074,402.71524,80,68,0
402.71524,402.82974,79,67,0
402.82974,402.94424,78,68,0
402.94424,403.05875,77,68,0
403.05875,403.17294,76,68,0
403.17294,403.2866,75,72,0
403.2866,403.40024,74,74,0
403.40024,403.51385,73,75,0
403.51385,403.6275,72,77,0
403.6275,403.7075,71,79,0
403.7075,403.7875,70,79,0
403.7875,403.8675,69,79,0
403.8675,403.98563,68,81,0
403.98563,404.1028,69,81,0
404.1028,404.22,70,84,0
404.22,404.3372,71,86,0
404.3372,404.45377,72,88,0
404.45377,404.57004,73,90,0
404.57004,404.68515,74,93,0
404.68515,404.7985,75,93,0
404.7985,404.90988,76,94,0
404.90988,405.0199,77,98,0
405.0199,405.09238,78,101,0
405.09238,405.16483,79,102,0
405.16483,405.2373,80,103,0
405.2373,405.3152,79,105,0
405.3152,405.39853,89,107,0
405.39853,405.48187,87,107,0
405.48187,405.56485,86,107,0
405.56485,405.6458,84,110,0
405.64984,405.73007,83,111,0
405.73007,405.8081,80,113,0
405.8081,405.88467,79,115,0
405.88467,405.9595,77,117,0
405.9595,406.03323,75,119,0
406.03323,406.10538,74,121,0
406.10538,406.17648,72,122,0
406.17648,406.24615,71,123,0
406.24615,406.3153,68,125,0
406.3153,406.3838,67,127,0
406.38718,406.45493,65,127,0
406.45493,406.5225,63,127,0
406.5225,406.59045,62,127,0
409.29865,409.75125,64,113,0
409.86182,409.94922,65,89,0
409.9708,410.05692,67,93,0
410.0782,410.1632,68,101,0
410.18433,410.2818,70,106,0
410.28873,410.3714,72,111,0
410.39197,410.47363,74,117,0
410.49377,410.57367,76,123,0
410.59357,410.92688,65,127,0
411.038,411.37134,77,108,0
411.038,411.37134,72,108,0
411.038,411.37134,65,108,0
411.82074,411.9216,77,107,0
411.82074,411.9216,72,107,0
411.82074,411.9216,65,107,0
411.9468,412.28012,78,119,0
411.9468,412.28012,66,119,0
411.9468,412.28012,72,119,0
411.9468,412.28012,75,119,0
412.39124,412.72458,78,111,0
412.39124,412.72458,66,111,0
412.39124,412.72458,72,111,0
412.39124,412.72458,75,111,0
413.17743,413.28653,78,114,0
413.17743,413.28653,66,114,0
413.17743,413.28653,72,114,0
413.17743,413.28653,75,114,0
413.3138,413.67404,65,127,0
413.3138,413.67404,77,127,0
413.3138,413.67404,73,127,0
413.78598,414.1218,73,113,0
413.78598,414.1218,65,113,0
413.78598,414.1218,77,113,0
414.56958,414.6704,77,122,0
414.56958,414.6704,72,122,0
414.56958,414.6704,65,122,0
414.69562,415.02896,80,124,0
414.69562,415.02896,68,124,0
414.69562,415.02896,74,124,0
414.69562,415.02896,77,124,0
415.14008,415.4734,80,111,0
415.14008,415.4734,68,111,0
415.14008,415.4734,74,111,0
415.14008,415.4734,77,111,0
415.92627,416.03534,80,122,0
415.92627,416.03534,68,122,0
415.92627,416.03534,74,122,0
415.92627,416.03534,77,122,0
416.06262,416.42288,67,127,0
416.06262,416.42288,79,127,0
416.06262,416.42288,75,127,0
416.53482,416.87064,75,113,0
416.53482,416.87064,67,113,0
416.53482,416.87064,79,113,0
417.3221,417.41824,79,114,0
417.3221,417.41824,67,114,0
417.43927,417.92734,84,125,0
417.43927,417.92734,72,125,0
417.93112,418.10156,79,109,0
417.93112,418.10156,67,109,0
418.1584,418.32886,75,114,0
418.1584,418.32886,63,114,0
418.38565,418.55612,74,119,0
418.38565,418.55612,62,119,0
418.61707,418.79993,72,124,0
418.61707,418.79993,60,124,0
418.85675,419.19766,79,127,0
418.85675,419.19766,67,127,0
418.85675,419.19766,71,127,0
418.85675,419.19766,74,127,0
419.3113,419.65222,79,99,0
419.3113,419.65222,67,99,0
419.3113,419.65222,71,99,0
419.3113,419.65222,74,99,0
420.12473,420.21564,79,114,0
420.12473,420.21564,67,114,0
420.2346,420.5755,87,127,0
420.23837,420.57928,84,127,0
420.23837,420.57928,75,127,0
420.68912,421.03003,87,104,0
420.6929,421.0338,84,104,0
420.6929,421.0338,75,104,0
421.5035,421.6023,87,117,0
421.62485,422.076,92,127,0
422.12848,422.18445,94,127,0
422.18445,422.24042,96,127,0
422.24042,422.2964,94,127,0
422.2964,422.35236,92,127,0
422.35236,422.40833,91,127,0
422.40833,422.4643,89,127,0
422.4643,422.52026,87,127,0
422.524,422.59863,85,115,0
422.59863,422.67325,84,115,0
422.67325,422.74786,82,117,0
422.74786,422.8225,80,117,0
422.8225,422.89713,79,119,0
422.89713,422.97177,77,119,0
422.97177,423.04608,75,120,0
423.04608,423.11984,73,121,0
423.11618,423.19083,72,121,0
423.19083,423.26715,70,122,0
423.26715,423.3435,68,123,0
423.3435,423.41983,67,124,0
423.41983,423.4962,65,125,0
423.4962,423.5725,63,125,0
423.5725,423.65158,61,126,0
423.65158,423.73093,60,126,0
423.73093,423.8103,58,127,0
423.8103,423.88968,56,127,0
423.88968,423.97452,55,127,0
423.97452,424.06,53,127,0
424.06,424.14548,51,127,0
424.14548,424.23093,49,127,0
424.23093,424.32205,48,127,0
424.32205,424.4138,46,127,0
424.41837,425.24408,44,127,0
428.37546,428.48846,55,83,0
428.48846,428.6021,67,83,0
428.6021,428.71576,56,85,0
428.71576,428.82938,68,86,0
428.82938,428.94302,58,88,0
428.94302,429.05667,70,88,0
429.05667,429.1703,60,90,0
429.1703,429.28394,72,90,0
429.28394,429.39758,62,92,0
429.39758,429.5112,74,93,0
429.5112,429.62485,63,96,0
429.62485,429.73846,75,96,0
429.73846,429.84888,67,98,0
429.84888,429.95917,79,100,0
429.95917,430.06946,68,102,0
430.06946,430.17978,80,104,0
430.17978,430.28912,70,104,0
430.28912,430.39627,82,107,0
430.39627,430.5034,72,107,0
430.5034,430.61053,84,108,0
430.61053,430.71768,74,111,0
430.71768,430.8251,86,112,0
430.8251,430.93307,75,112,0
430.93307,431.04257,87,115,0
431.04257,431.15408,80,116,0
431.15408,431.26752,92,116,0
431.26752,431.38327,82,116,0
431.38327,431.5008,94,119,0
431.5008,431.61923,84,121,0
431.61923,431.76608,96,123,0
431.76248,432.19327,97,127,0
431.76248,432.19327,85,127,0
432.30276,432.41226,92,126,0
432.41226,432.52176,89,125,0
432.52176,432.6351,85,124,0
432.6351,432.74875,80,118,0
432.74875,432.86237,77,114,0
432.86237,432.97934,73,113,0
433.09714,433.57687,96,127,0
433.09714,433.57687,84,127,0
433.7005,433.82727,93,122,0
433.82727,433.95734,87,119,0
433.95734,434.0905,84,115,0
434.0905,434.22772,81,108,0
434.22772,434.37384,75,102,0
434.37384,434.52832,72,90,0
434.5973,434.8559,72,76,0
434.8559,435.2118,79,60,0
435.3296,435.67935,79,52,0
436.1409,436.22818,77,50,0
436.25992,436.49802,75,53,0
436.49802,436.7361,79,43,0
436.7361,436.9742,77,44,0
436.9742,437.212,75,46,0
437.212,437.4479,74,49,0
437.4479,437.6808,72,55,0
437.6808,438.03665,79,60,0
438.15448,438.5042,79,52,0
438.96576,439.05304,77,50,0
439.0848,439.3229,75,53,0
439.3229,439.56097,79,43,0
439.56097,439.79907,77,44,0
439.79907,440.03687,75,46,0
440.03687,440.27277,74,49,0
440.27277,440.50565,72,55,0
440.50565,440.7382,71,53,0
440.7382,440.97076,77,43,0
440.97076,441.2033,75,44,0
441.2033,441.4363,74,46,0
441.4363,441.6723,72,49,0
441.6723,441.90524,71,55,0
441.90524,442.0124,72,62,0
442.0124,442.11877,75,66,0
442.11877,442.22516,72,66,0
442.22516,442.3032,69,67,0
442.33154,442.43845,69,70,0
442.43845,442.54636,72,73,0
442.54636,442.65427,69,78,0
442.65427,442.73346,66,82,0
442.76245,442.87112,66,88,0
442.87112,442.98062,69,93,0
442.98062,443.0904,66,99,0
443.0904,443.20068,60,106,0
443.20068,443.31097,67,112,0
443.31097,443.42126,71,119,0
443.42126,443.5321,67,116,0
443.5321,443.6136,62,115,0
443.64322,443.75516,62,113,0
443.75516,443.8671,67,113,0
443.8671,443.97903,62,115,0
443.97903,444.06113,59,118,0
444.09097,444.20346,59,120,0
444.20346,444.3174,62,121,0
444.3174,444.43192,59,124,0
444.43192,444.51587,55,127,0
444.54642,444.77542,67,127,0
445.0059,445.471,67,116,0
445.0059,445.471,55,116,0
446.66132,446.91992,65,38,0
446.66132,446.91992,55,38,0
447.00613,447.27194,64,43,0
447.00613,447.27194,55,43,0
447.37863,447.72476,62,47,0
447.37863,447.72476,55,47,0
448.3759,448.77765,55,48,0
447.84015,448.9116,60,50,0
448.9116,449.3134,59,44,0
448.9116,449.3134,55,44,0
449.4473,449.72565,60,47,0
449.4473,449.72565,55,47,0
449.72565,450.01645,59,42,0
449.72565,450.01645,55,42,0
450.01645,450.315,60,39,0
450.01645,450.315,55,39,0
450.315,450.62378,62,35,0
450.315,450.62378,55,35,0
450.62378,451.09253,64,32,0
450.62378,451.09253,55,32,0
451.24878,452.49878,65,50,0
451.24878,452.49878,57,50,0
452.49878,452.96753,64,44,0
452.49878,452.96753,55,44,0
453.118,453.39578,64,47,0
453.39578,453.6797,62,43,0
453.6797,453.97195,60,33,0
453.97195,454.27603,59,37,0
454.27603,454.58322,57,42,0
454.58322,454.8209,59,45,0
455.4364,455.8382,55,48,0
455.4364,455.8382,67,48,0
454.9007,455.9721,60,50,0
455.9721,456.3739,55,44,0
455.9721,456.3739,67,44,0
455.9721,456.3739,59,52,0
456.50784,456.78616,55,47,0
456.50784,456.78616,67,47,0
456.50784,456.78616,60,57,0
456.78616,457.07697,55,42,0
456.78616,457.07697,67,42,0
456.78616,457.07697,59,54,0
457.07697,457.37555,55,39,0
457.07697,457.37555,67,39,0
457.07697,457.37555,60,51,0
457.37555,457.68433,55,35,0
457.37555,457.68433,67,35,0
457.37555,457.68433,62,47,0
457.68433,458.15308,55,32,0
457.68433,458.15308,67,32,0
457.68433,458.15308,64,48,0
458.93433,459.40308,72,44,0
458.30933,459.55933,67,57,0
459.55933,460.02808,55,44,0
459.55933,460.02808,72,44,0
459.55933,460.02808,64,48,0
460.17853,460.40076,72,47,0
460.17853,460.4563,67,58,0
460.4563,460.6831,72,44,0
460.4563,460.74023,65,55,0
460.74023,460.97308,72,41,0
460.74023,461.03247,64,48,0
461.03247,461.27533,72,41,0
461.03247,461.33655,62,53,0
461.33655,461.58145,72,42,0
461.33655,461.64374,60,54,0
461.64374,461.88144,62,56,0
461.64374,461.88144,72,44,0
461.9612,462.3176,72,41,0
461.9612,462.3176,64,54,0
462.59952,463.57327,65,38,0
462.59952,463.57327,62,38,0
463.57327,463.91037,62,36,0
463.91037,464.2559,65,44,0
464.2559,464.60678,63,39,0
464.60678,464.94516,70,36,0
464.60678,464.96323,62,36,0
464.96323,465.25446,70,40,0
464.96323,465.3276,60,40,0
465.3276,465.6203,70,40,0
465.3276,465.69275,58,40,0
465.69275,465.9545,60,35,0
465.69275,465.9545,70,35,0
466.03845,466.4026,62,34,0
466.03845,466.4026,70,34,0
467.3428,470.476,67,48,0
470.476,471.09412,69,40,0
471.09412,471.72568,65,33,0
471.72568,472.51913,64,31,0
471.72568,472.51913,60,31,0
472.68335,472.9343,65,38,0
472.68335,472.9343,77,38,0
473.01923,473.27988,64,45,0
473.01923,473.27988,76,45,0
473.3681,473.72882,74,43,0
473.3681,473.72882,62,43,0
473.72882,475.0584,60,40,0
473.72882,475.0584,72,40,0
475.0584,475.66605,71,44,0
475.0584,475.66605,59,44,0
475.66605,475.96408,60,47,0
475.66605,475.96408,72,47,0
475.96408,476.26013,59,42,0
475.96408,476.26013,71,42,0
476.26013,476.5533,60,39,0
476.26013,476.5533,72,39,0
476.5533,476.8621,62,35,0
476.5533,476.8621,74,35,0
476.8621,477.33084,64,32,0
476.8621,477.33084,76,32,0
477.4871,478.7371,65,50,0
477.4871,478.7371,77,50,0
478.7371,479.31,76,44,0
478.7371,479.31,64,44,0
479.3605,479.66052,76,47,0
479.3605,479.66052,64,47,0
479.66052,479.95276,74,43,0
479.66052,479.95276,62,43,0
479.95276,480.23892,72,42,0
479.95276,480.23892,60,42,0
480.23892,480.5303,59,46,0
480.23892,480.5303,71,46,0
480.5303,480.8413,57,47,0
480.5303,480.8413,69,47,0
480.8413,481.07764,59,54,0
480.8413,481.07764,71,54,0
481.15497,482.33978,60,55,0
481.15497,482.33978,72,55,0
482.33978,482.9005,71,51,0
482.33978,482.9005,59,51,0
482.9005,483.1809,60,55,0
482.9005,483.1809,72,55,0
483.1809,483.46127,59,53,0
483.1809,483.46127,71,53,0
483.46127,483.74164,60,51,0
483.46127,483.74164,72,51,0
483.74164,484.0283,62,51,0
483.74164,484.0283,74,51,0
484.0283,484.47296,64,55,0
484.0283,484.47296,76,55,0
484.63974,485.80215,79,70,0
484.63974,485.80215,67,70,0
485.80215,486.34027,76,56,0
485.80215,486.34027,64,56,0
486.34027,486.61017,79,68,0
486.34027,486.61017,67,68,0
486.61017,486.88623,77,58,0
486.61017,486.88623,65,58,0
486.88623,487.17816,76,54,0
486.88623,487.17816,64,54,0
487.17816,487.4821,74,51,0
487.17816,487.4821,62,51,0
487.4821,487.78915,72,54,0
487.4821,487.78915,60,54,0
487.78915,488.02673,74,55,0
487.78915,488.02673,62,55,0
488.10712,488.64447,76,56,0
488.10712,488.64447,64,56,0
488.85574,489.73196,77,46,0
488.85574,489.73196,65,46,0
489.73196,490.00717,74,37,0
489.73196,490.00717,62,37,0
490.00717,490.2787,77,41,0
490.00717,490.2787,65,41,0
490.2787,490.54895,75,37,0
490.2787,490.54895,63,37,0
490.54895,490.8192,74,40,0
490.54895,490.8192,62,40,0
490.8192,491.09195,72,43,0
490.8192,491.09195,60,43,0
491.09195,491.36975,70,45,0
491.09195,491.36975,58,45,0
491.36975,491.65503,72,45,0
491.36975,491.65503,60,45,0
491.65503,492.0948,74,48,0
491.65503,492.0948,62,48,0
492.24332,493.4469,74,60,0
492.24332,493.4469,71,60,0
492.24332,493.4469,62,60,0
493.4469,494.03375,74,56,0
493.4469,494.03375,71,56,0
493.4469,494.03375,62,56,0
494.03375,494.32175,76,40,0
494.03375,494.32175,72,40,0
494.03375,494.32175,64,40,0
494.32175,494.60748,77,44,0
494.32175,494.60748,71,44,0
494.32175,494.60748,65,44,0
494.60748,494.8905,76,50,0
494.60748,494.8905,72,50,0
494.60748,494.8905,64,50,0
494.8905,495.17807,74,55,0
494.8905,495.17807,71,55,0
494.8905,495.17807,62,55,0
495.17807,495.77164,76,56,0
495.17807,495.77164,72,56,0
495.17807,495.77164,64,56,0
495.77164,496.3667,81,48,0
495.77164,496.3667,72,48,0
495.77164,496.3667,69,48,0
496.3667,496.9785,77,44,0
496.3667,496.9785,71,44,0
496.3667,496.9785,65,44,0
496.9785,497.77527,76,38,0
496.9785,497.77527,72,38,0
496.9785,497.77527,64,38,0
497.93954,498.10938,77,50,0
498.10938,498.23892,79,46,0
498.28656,498.47333,75,57,0
498.47333,498.61386,79,53,0
498.6665,498.8665,74,64,0
498.8665,499.02124,79,59,0
499.07678,499.2734,72,65,0
499.2734,499.43658,79,56,0
499.46097,499.61676,75,56,0
499.6403,499.78827,74,56,0
499.81073,499.975,72,65,0
499.975,500.11264,79,56,0
500.13348,500.26584,75,56,0
500.28604,500.41418,72,56,0
500.4336,500.57693,71,65,0
500.57693,500.6986,79,58,0
500.71713,500.8364,74,59,0
500.85474,500.97226,71,62,0
500.9903,501.12152,72,62,0
501.12152,501.23285,79,55,0
501.2501,501.36435,71,58,0
501.38205,501.49838,79,61,0
501.5164,501.63483,72,63,0
501.65317,501.7754,79,65,0
501.79425,501.9186,74,66,0
501.93802,502.06607,79,67,0
502.0861,502.2371,75,69,0
502.2371,502.37006,84,64,0
502.3907,502.52557,79,63,0
502.5464,502.7247,75,58,0
502.74554,502.8986,77,64,0
502.8986,503.03094,84,56,0
503.05115,503.18085,80,56,0
503.20065,503.3281,79,56,0
503.34772,503.49478,77,63,0
503.49478,503.62195,84,56,0
503.64136,503.76636,80,56,0
503.78558,503.9094,77,56,0
503.92844,504.06995,75,64,0
504.06995,504.1919,84,53,0
504.21057,504.33093,79,57,0
504.34946,504.45132,75,60,0
504.48834,504.62598,75,65,0
504.62598,504.7439,79,56,0
504.76193,504.87903,74,57,0
504.89706,505.01395,79,59,0
505.0318,505.1476,72,61,0
505.1653,505.28012,79,61,0
505.29767,505.4121,71,63,0
505.42966,505.54468,79,65,0
505.56238,505.6787,72,67,0
505.69672,505.81735,79,66,0
505.83713,505.99518,74,64,0
506.02115,506.21518,82,55,0
506.24503,506.45453,75,50,0
506.45453,506.59695,82,42,0
506.61823,506.7508,79,42,0
506.7708,506.89767,77,42,0
506.91693,507.05585,75,51,0
507.05585,507.17377,82,42,0
507.1918,507.30762,79,42,0
507.32532,507.43976,75,49,0
507.4573,507.5881,74,40,0
507.5881,507.70093,82,41,0
507.71817,507.83023,77,43,0
507.84747,507.95953,74,46,0
507.97678,508.1061,75,50,0
508.1061,508.21817,82,56,0
508.2354,508.34747,74,45,0
508.36472,508.47678,82,46,0
508.49402,508.6061,75,49,0
508.62335,508.7354,82,51,0
508.75266,508.86472,77,53,0
508.88196,508.99402,82,54,0
509.01126,509.1406,79,55,0
509.1406,509.25266,87,56,0
509.2699,509.38196,82,57,0
509.3992,509.51126,79,59,0
509.5285,509.65784,80,61,0
509.65784,509.7699,87,51,0
509.78714,509.8992,84,51,0
509.91644,510.0285,82,51,0
510.04575,510.15784,80,61,0
510.17505,510.28714,87,52,0
510.30438,510.41742,84,52,0
510.4348,510.54947,80,53,0
510.56717,510.69992,79,54,0
510.69992,510.81622,87,55,0
510.83426,510.9531,82,57,0
510.97144,511.07288,79,57,0
511.1099,511.24838,79,59,0
511.24838,511.3663,82,48,0
511.38434,511.5008,77,49,0
511.51868,511.63474,82,50,0
511.6526,511.76868,75,52,0
511.78653,511.90054,82,52,0
511.9181,512.0321,74,54,0
512.0497,512.16327,82,55,0
512.1805,512.29254,75,56,0
512.3098,512.4219,82,56,0
512.43915,512.56555,76,54,0
512.56555,512.6737,84,52,0
512.6902,512.8128,77,61,0
512.8128,512.9178,84,66,0
512.9338,513.0371,67,69,0
513.05286,513.1552,76,78,0
513.17096,513.2725,68,82,0
513.28815,513.3892,77,87,0
513.4047,513.5053,72,94,0
513.5207,513.6207,79,100,0
513.6361,513.7359,72,105,0
513.7512,513.8504,80,109,0
513.8657,513.964,76,114,0
513.97906,514.06177,84,119,0
514.09186,514.2046,77,124,0
514.2046,514.30237,89,124,0
514.3174,514.415,84,119,0
514.4299,514.52673,80,115,0
514.54156,514.6379,77,113,0
514.65265,514.74896,72,109,0
514.7638,514.86005,68,108,0
514.8749,514.9712,65,109,0
514.986,515.0823,60,113,0
515.0971,515.1934,65,116,0
515.20825,515.3045,68,119,0
515.31934,515.41565,72,121,0
515.4304,515.62305,77,127,0
515.65265,515.81934,84,105,0
515.65265,515.81934,77,105,0
515.65265,515.81934,72,105,0
515.8749,516.04156,72,107,0
515.8749,516.04156,77,107,0
515.8749,516.04156,84,107,0
516.0971,516.2638,72,114,0
516.0971,516.2638,77,114,0
516.0971,516.2638,84,114,0
516.31934,516.54156,73,126,0
516.31934,516.54156,77,126,0
516.31934,516.54156,85,126,0
516.54156,516.65265,84,91,0
516.54156,516.65265,77,91,0
516.54156,516.65265,72,91,0
516.7638,516.8864,63,61,0
516.8864,516.9914,72,66,0
517.0074,517.11066,66,69,0
517.1264,517.22876,74,78,0
517.2445,517.34607,67,82,0
517.3617,517.46277,75,87,0
517.4783,517.5789,74,94,0
517.5943,517.6943,78,100,0
517.70966,517.8095,75,105,0
517.82477,517.924,79,109,0
517.9393,518.0376,78,114,0
518.0526,518.1353,86,119,0
518.1654,518.2782,79,124,0
518.2782,518.3759,91,124,0
518.3909,518.4885,87,119,0
518.5035,518.6003,84,115,0
518.6151,518.7114,79,113,0
518.72626,518.8225,75,109,0
518.83734,518.93365,72,108,0
518.9484,519.04474,67,109,0
519.0596,519.1559,63,113,0
519.17065,519.26697,60,116,0
519.2818,519.3781,63,119,0
519.3929,519.4892,67,121,0
519.504,519.6966,72,127,0
519.72626,519.8929,84,105,0
519.72626,519.8929,79,105,0
519.72626,519.8929,75,105,0
519.72626,519.8929,72,105,0
519.9484,520.1151,72,107,0
519.9484,520.1151,79,107,0
519.9484,520.1151,75,107,0
519.9484,520.1151,84,107,0
520.17065,520.3407,72,114,0
520.17065,520.3407,79,114,0
520.17065,520.3407,75,114,0
520.17065,520.3407,84,114,0
520.39795,520.62994,73,126,0
520.39795,520.62994,79,126,0
520.39795,520.62994,75,126,0
520.39795,520.62994,85,126,0
520.62994,520.74713,84,91,0
520.62994,520.74713,79,91,0
520.62994,520.74713,75,91,0
520.62994,520.74713,72,91,0
521.1005,521.2793,72,98,0
521.1005,521.2793,60,98,0
521.1005,521.2793,54,98,0
521.1005,521.2793,62,98,0
521.1005,521.2793,74,98,0
521.1005,521.2793,69,98,0
521.3393,521.5201,72,105,0
521.3393,521.5201,60,105,0
521.3393,521.5201,54,105,0
521.3393,521.5201,62,105,0
521.3393,521.5201,69,105,0
521.3393,521.5201,74,105,0
521.58057,521.762,72,111,0
521.58057,521.762,60,111,0
521.58057,521.762,54,111,0
521.58057,521.762,62,111,0
521.58057,521.762,74,111,0
521.58057,521.762,69,111,0
521.8228,522.0684,72,118,0
521.8228,522.0684,69,118,0
521.8228,522.0684,75,118,0
522.0684,522.1924,72,87,0
522.5749,522.77167,62,70,0
522.5749,522.77167,57,70,0
522.5749,522.77167,60,70,0
522.838,523.04016,62,59,0
522.838,523.04016,60,59,0
522.838,523.04016,57,59,0
523.10834,523.31647,62,50,0
523.10834,523.31647,60,50,0
523.10834,523.31647,57,50,0
523.38654,523.6709,57,58,0
523.38654,523.6709,60,58,0
523.38654,523.6709,63,58,0
523.6709,523.8138,69,46,0
524.0138,525.25323,52,53,0
524.0138,525.25323,60,53,0
525.25323,525.41455,53,40,0
525.41455,525.5758,55,49,0
525.5758,525.7371,57,54,0
525.25323,525.81775,59,56,0
525.7371,525.8984,53,50,0
525.8984,526.55304,60,50,0
525.8984,526.55304,52,40,0
526.8361,527.0583,67,33,0
526.8361,527.0583,79,33,0
527.1139,527.3361,79,37,0
527.1139,527.3361,67,37,0
527.39166,527.6139,67,42,0
527.39166,527.6139,79,42,0
527.66943,528.21576,68,44,0
527.66943,528.21576,80,44,0
528.21576,529.00726,84,46,0
528.21576,529.00726,72,46,0
529.1358,529.26404,80,36,0
529.1358,529.26404,68,36,0
529.26404,529.77686,80,44,0
529.26404,529.77686,68,44,0
529.77686,530.4186,67,33,0
529.77686,530.4186,79,33,0
530.5479,530.8084,78,39,0
530.5479,530.8084,66,39,0
530.8084,531.3348,79,41,0
530.8084,531.3348,67,41,0
531.3348,531.6002,77,35,0
531.3348,531.6002,65,35,0
531.6002,531.8705,76,35,0
531.6002,531.8705,64,35,0
531.8705,532.4193,77,36,0
531.8705,532.4193,71,36,0
531.8705,532.4193,65,36,0
532.4193,533.1185,76,40,0
532.4193,533.1185,72,40,0
532.4193,533.1185,64,40,0
533.2605,533.4827,55,33,0
533.2605,533.4827,67,33,0
533.53827,533.7605,67,37,0
533.53827,533.7605,55,37,0
533.81604,534.03827,55,42,0
533.81604,534.03827,67,42,0
534.0938,534.64014,56,44,0
534.0938,534.64014,68,44,0
534.64014,534.9072,72,43,0
534.64014,534.9072,60,43,0
534.9072,535.17114,77,40,0
534.9072,535.17114,65,40,0
535.17114,535.43164,72,32,0
535.17114,535.43164,60,32,0
535.43164,535.6884,68,37,0
535.43164,535.6884,56,37,0
535.6884,536.20123,68,42,0
535.6884,536.20123,56,42,0
536.20123,536.843,55,33,0
536.20123,536.843,67,33,0
536.9712,537.22906,66,39,0
536.9712,537.22906,54,39,0
537.22906,537.7493,67,41,0
537.22906,537.7493,55,41,0
537.7493,538.0102,65,35,0
537.7493,538.0102,53,35,0
538.0102,538.2726,64,35,0
538.0102,538.2726,52,35,0
538.2726,538.8028,65,36,0
538.2726,538.8028,59,36,0
538.2726,538.8028,53,36,0
538.8028,539.4665,64,31,0
538.8028,539.4665,60,31,0
538.8028,539.4665,52,31,0
539.59924,539.86633,67,31,0
539.86633,540.13416,65,32,0
540.13416,540.40204,64,35,0
540.40204,540.9418,67,36,0
540.9418,541.21204,65,29,0
541.21204,541.4823,64,30,0
541.4823,542.0269,65,32,0
542.0269,542.43604,64,34,0
542.0269,542.43604,60,34,0
542.5724,543.11786,81,37,0
542.5724,543.11786,72,37,0
542.5724,543.11786,69,37,0
543.11786,543.6654,77,41,0
543.11786,543.6654,71,41,0
543.6654,544.07825,72,34,0
543.6654,544.07825,76,34,0
544.21625,544.77185,69,34,0
544.21625,544.77185,60,34,0
544.21625,544.77185,57,34,0
544.77185,545.3274,65,37,0
544.77185,545.3274,59,37,0
545.3274,545.744,64,28,0
545.3274,545.744,60,28,0
545.88293,546.46625,77,32,0
545.88293,546.46625,71,32,0
546.46625,546.9198,72,25,0
546.46625,546.9198,76,25,0
547.0744,547.7078,65,33,0
547.0744,547.7078,59,33,0
547.7078,548.2054,64,26,0
547.7078,548.2054,60,26,0
551.7218,551.8679,48,22,0
551.8679,552.0077,60,23,0
552.0077,552.1436,55,24,0
552.1436,552.2788,51,25,0
552.2788,552.40857,48,26,0
552.40857,552.5343,60,27,0
552.5343,552.6553,55,28,0
552.6553,552.7762,51,29,0
552.7762,552.89716,48,29,0
552.89716,553.01715,60,29,0
553.01715,553.1372,55,29,0
553.1372,553.2556,51,30,0
553.2556,553.3731,48,30,0
553.3731,553.49,60,31,0
553.49,553.60626,55,32,0
553.60626,553.72253,51,32,0
553.72253,553.8388,48,33,0
553.8388,553.9551,60,33,0
553.9551,554.07135,55,33,0
554.07135,554.1877,51,33,0
554.1877,554.30396,46,33,0
554.30396,554.4202,58,33,0
554.4202,554.5371,55,33,0
554.5371,554.6555,52,33,0
554.6555,554.7752,46,33,0
554.7752,554.8959,58,33,0
554.8959,555.0181,55,33,0
555.0181,555.1414,52,33,0
555.1414,555.26605,48,34,0
555.26605,555.39215,60,34,0
555.39215,555.51886,55,34,0
555.51886,555.6471,52,34,0
555.6471,555.7753,48,34,0
555.7753,555.90424,60,34,0
555.90424,556.03357,58,34,0
556.03357,556.16284,52,34,0
556.16284,556.2933,48,34,0
556.2933,556.4237,60,33,0
556.4237,556.55414,56,32,0
556.55414,556.68463,53,31,0
556.68463,556.81506,48,31,0
556.81506,556.9455,60,29,0
556.9455,557.0759,56,27,0
557.0759,557.20636,53,26,0
557.20636,557.3368,48,25,0
557.3368,557.4672,60,25,0
557.4672,557.59766,56,25,0
557.59766,557.7277,53,27,0
557.7277,557.857,49,27,0
557.857,557.9852,61,28,0
557.9852,558.1127,56,28,0
558.1127,558.2384,53,29,0
558.2384,558.3634,49,30,0
558.3634,558.487,61,31,0
558.487,558.6096,56,33,0
558.6096,558.73157,53,33,0
558.73157,558.8529,50,35,0
558.8529,558.9739,62,36,0
558.9739,559.0942,56,37,0
559.0942,559.21387,53,37,0
559.21387,559.3326,50,37,0
559.3326,559.4507,62,37,0
559.4507,559.56885,56,36,0
559.56885,559.68726,53,35,0
559.68726,559.80725,51,34,0
559.80725,559.9289,63,32,0
559.9289,560.0522,60,31,0
560.0522,560.14355,55,30,0
560.1772,560.305,55,29,0
560.305,560.4362,67,28,0
560.4362,560.56934,65,27,0
560.56934,560.7049,59,26,0
560.7049,560.8224,36,37,0
560.8224,560.9393,48,39,0
560.9393,561.05554,43,42,0
561.05554,561.1718,39,44,0
561.1718,561.2881,36,44,0
561.2881,561.4044,48,46,0
561.4044,561.5207,43,47,0
561.5207,561.63696,39,47,0
561.63696,561.75323,34,47,0
561.75323,561.8695,46,47,0
561.8695,561.9864,43,47,0
561.9864,562.1048,40,47,0
562.1048,562.2245,34,47,0
562.2245,562.34515,46,47,0
562.34515,562.4674,43,47,0
562.4674,562.5907,40,47,0
562.5907,562.7154,36,47,0
562.7154,562.84143,48,47,0
562.84143,562.9682,43,47,0
562.9682,563.0964,40,47,0
563.0964,563.2246,36,47,0
563.2246,563.3535,48,46,0
563.3535,563.48285,46,45,0
563.48285,563.6122,40,43,0
563.6122,563.7426,36,42,0
563.7426,563.87305,48,40,0
563.87305,564.0035,44,38,0
564.0035,564.1339,41,38,0
564.1339,564.26434,36,37,0
564.26434,564.3948,48,37,0
564.3948,564.5252,44,37,0
564.5252,564.65564,41,37,0
564.65564,564.7861,36,37,0
564.7861,564.9165,48,37,0
564.9165,565.04694,44,37,0
565.04694,565.177,41,37,0
565.177,565.30634,37,39,0
565.30634,565.4345,49,40,0
565.4345,565.562,44,41,0
565.562,565.6877,41,43,0
565.6877,565.8127,37,45,0
565.8127,565.93634,49,46,0
565.93634,566.05896,44,48,0
566.05896,566.1809,41,48,0
566.1809,566.3022,38,49,0
566.3022,566.42316,50,50,0
566.42316,566.54346,44,50,0
566.54346,566.66315,41,50,0
566.66315,566.7819,38,50,0
566.7819,566.9,50,48,0
566.9,567.0181,44,48,0
567.0181,567.1344,41,46,0
567.1344,567.2507,39,45,0
567.2507,567.36694,51,44,0
567.36694,567.4832,48,43,0
567.4832,567.56915,43,42,0
567.6004,567.7176,43,41,0
567.7176,567.8351,55,41,0
567.8351,567.9532,53,39,0
567.9532,568.07166,47,39,0
568.07166,568.1907,36,39,0
568.1907,568.30975,48,42,0
568.30975,568.4288,43,43,0
568.4288,568.54785,39,46,0
568.54785,568.6675,36,47,0
568.6675,568.7875,47,47,0
568.7875,568.90753,41,47,0
568.90753,569.02844,38,45,0
569.02844,569.1501,36,42,0
569.1501,569.27203,47,41,0
569.27203,569.394,41,39,0
569.394,569.5159,38,39,0
569.5159,569.6379,36,39,0
569.6379,569.76086,47,39,0
569.76086,569.8838,41,41,0
569.8838,570.0071,38,43,0
570.0071,570.13104,36,45,0
570.13104,570.2554,48,48,0
570.2554,570.3804,43,50,0
570.3804,570.50574,39,50,0
570.50574,570.6318,36,53,0
570.6318,570.7578,47,53,0
570.7578,570.88385,41,54,0
570.88385,571.00995,38,55,0
571.00995,571.13666,36,57,0
571.13666,571.2638,47,57,0
571.2638,571.3913,41,59,0
571.3913,571.5195,38,59,0
571.5195,571.6477,36,60,0
571.6477,571.7759,47,61,0
571.7759,571.9041,41,63,0
571.9041,572.033,38,65,0
572.033,572.16235,36,66,0
572.16235,572.29395,48,69,0
572.29395,572.4263,43,70,0
572.4263,572.5598,39,70,0
572.5598,572.69495,36,71,0
572.69495,572.83215,47,74,0
572.83215,572.9715,41,75,0
572.9715,573.1117,38,77,0
573.1117,573.2523,36,78,0
573.2523,573.3947,47,81,0
573.3947,573.53986,41,80,0
573.53986,573.6855,38,78,0
573.6855,573.8326,36,77,0
573.8326,573.98206,47,76,0
573.98206,574.13837,41,74,0
574.13837,574.3228,38,73,0
574.3228,574.488,36,72,0
574.488,574.6252,43,71,0
574.6252,574.75793,41,71,0
574.75793,574.88727,38,70,0
574.88727,575.0137,36,68,0
575.0137,575.13794,43,67,0
575.13794,575.26025,41,67,0
575.26025,575.3822,38,66,0
575.3822,575.5035,36,65,0
575.5035,575.62384,43,63,0
575.62384,575.74316,41,63,0
575.74316,575.86096,38,62,0
575.86096,575.97815,36,61,0
575.97815,576.09534,43,60,0
576.09534,576.2122,41,59,0
576.2122,576.32855,38,58,0
576.32855,576.4436,36,56,0
576.4436,576.5581,43,55,0
576.5581,576.6726,41,54,0
576.6726,576.7871,38,53,0
576.7871,576.90314,36,52,0
576.90314,577.02094,43,51,0
577.02094,577.14056,41,51,0
577.14056,577.2612,38,50,0
577.2612,577.3825,36,49,0
577.3825,577.50446,43,48,0
577.50446,577.6268,41,47,0
577.6268,577.7497,38,46,0
577.7497,577.874,36,45,0
577.874,577.99976,43,45,0
577.99976,578.12616,41,44,0
578.12616,578.25433,38,43,0
578.25433,578.38403,36,42,0
578.38403,578.51447,43,41,0
578.51447,578.64606,41,40,0
578.64606,578.7788,38,39,0
578.7788,578.89233,36,38,0
579.9666,580.5666,65,48,0
579.9666,580.5666,68,48,0
579.9666,580.5666,59,48,0
579.9666,580.5666,62,48,0
580.5666,581.0098,67,40,0
580.5666,581.0098,63,40,0
580.5666,581.0098,60,40,0
581.8309,582.4636,56,41,0
581.8309,582.4636,65,41,0
581.8309,582.4636,62,41,0
581.8309,582.4636,59,41,0
582.4636,582.96136,60,33,0
582.4636,582.96136,55,33,0
582.4636,582.96136,63,33,0
584.0152,584.90204,53,35,0
584.0152,584.90204,62,35,0
584.0152,584.90204,59,35,0
584.0152,584.90204,55,35,0
584.90204,585.55115,51,26,0
584.90204,585.55115,55,26,0
584.90204,585.55115,60,26,0
585.8362,586.5822,51,30,0
585.8362,586.5822,55,30,0
585.8362,586.5822,60,30,0
586.94495,587.8791,51,34,0
586.94495,587.8791,55,34,0
586.94495,587.8791,60,34,0
588.32697,589.4625,60,36,0
588.32697,589.4625,48,36,0
588.32697,589.4625,51,36,0
588.32697,589.4625,55,36,0
589.9873,591.057,43,40,0
591.507,592.6804,39,44,0
593.26105,595.866,36,45,0
596.616,598.3607,36,36,0
599.3777,602.4285,36,30,0
0.0,0.895522,60,111,0
0.0,0.895522,51,111,0
0.0,0.895522,36,111,0
0.0,0.895522,48,111,0
0.0,0.895522,55,111,0
1.2360461,1.3242812,60,100,0
1.2360461,1.3242812,51,100,0
1.2360461,1.3242812,36,100,0
1.2360461,1.3242812,48,100,0
1.2360461,1.3242812,55,100,0
1.3620963,1.7026204,62,118,0
1.3620963,1.7026204,53,118,0
1.3620963,1.7026204,36,118,0
1.3620963,1.7026204,48,118,0
1.3620963,1.7026204,56,118,0
1.8145607,2.1503813,62,86,0
1.8145607,2.1503813,53,86,0
1.8145607,2.1503813,36,86,0
1.8145607,2.1503813,48,86,0
1.8145607,2.1503813,56,86,0
2.7665226,3.6521962,48,116,0
2.7665226,3.6521962,55,116,0
2.7665226,3.6521962,58,116,0
3.9616377,4.0415497,58,100,0
3.9616377,4.0415497,55,100,0
3.9616377,4.0415497,48,100,0
4.061417,4.39475,60,125,0
4.061417,4.39475,57,125,0
4.061417,4.39475,48,125,0
4.505861,4.839194,60,86,0
4.505861,4.839194,57,86,0
4.505861,4.839194,48,86,0
5.2886176,5.389458,60,110,0
5.2886176,5.389458,48,110,0
5.2886176,5.389458,57,110,0
5.414668,5.748001,60,119,0
5.414668,5.748001,56,119,0
5.414668,5.748001,48,119,0
5.859112,6.192445,60,86,0
5.859112,6.192445,56,86,0
5.859112,6.192445,48,86,0
6.6453066,6.7543974,60,116,0
6.6453066,6.7543974,56,116,0
6.6453066,6.7543974,48,116,0
6.78167,7.141914,60,126,0
6.78167,7.141914,55,126,0
6.78167,7.141914,48,126,0
7.2538543,7.589675,60,93,0
7.2538543,7.589675,55,93,0
7.2538543,7.589675,48,93,0
8.149376,8.81519,51,125,0
8.149376,8.81519,39,125,0
8.149376,8.81519,48,125,0
8.872008,9.042462,48,112,0
8.872008,9.042462,36,112,0
9.099281,9.269735,53,118,0
9.099281,9.269735,41,118,0
9.326553,9.507353,54,125,0
9.326553,9.507353,42,125,0
9.570378,9.911286,55,127,0
9.570378,9.911286,43,127,0
10.024923,10.365831,43,101,0
10.024923,10.365831,31,101,0
10.824871,10.926565,55,114,0
10.824871,10.926565,43,114,0
10.951989,11.406534,56,125,0
10.951989,11.406534,44,125,0
11.406534,11.576988,55,119,0
11.406534,11.576988,43,119,0
11.633807,11.804261,51,123,0
11.633807,11.804261,39,123,0
11.861079,12.031533,50,125,0
11.861079,12.031533,38,125,0
12.088352,12.268276,48,127,0
12.088352,12.268276,36,127,0
12.330776,12.669121,55,127,0
12.330776,12.669121,43,127,0
12.781903,13.120248,43,113,0
12.781903,13.120248,31,113,0
13.575448,13.675447,55,115,0
13.575448,13.675447,43,115,0
13.700448,14.161189,60,125,0
13.700448,14.161189,48,125,0
14.161189,14.33697,55,119,0
14.161189,14.33697,43,119,0
14.395564,14.579621,51,123,0
14.395564,14.579621,39,123,0
14.64318,14.851688,50,125,0
14.64318,14.851688,38,125,0
14.925945,15.177395,48,127,0
14.925945,15.177395,36,127,0
15.268858,15.653966,44,127,0
15.268858,15.653966,32,127,0
15.766748,18.863453,32,127,0
15.766748,18.863453,44,127,0
18.863453,19.069876,43,78,0
18.863453,19.069876,40,78,0
18.863453,19.069876,32,78,0
19.138683,19.345104,44,76,0
19.138683,19.345104,40,76,0
19.138683,19.345104,32,76,0
19.413912,19.620333,46,73,0
19.413912,19.620333,40,73,0
19.413912,19.620333,32,73,0
19.68914,20.101984,48,78,0
20.101984,20.2396,49,76,0
20.2396,20.377213,48,57,0
19.68914,20.377213,44,78,0
19.68914,20.377213,39,78,0
19.68914,20.377213,32,78,0
20.514828,20.712196,55,78,0
20.514828,20.712196,52,78,0
20.514828,20.712196,44,78,0
20.777985,20.974257,56,76,0
20.777985,20.974257,52,76,0
20.777985,20.974257,44,76,0
21.036757,21.224257,58,73,0
21.036757,21.224257,52,73,0
21.036757,21.224257,44,73,0
21.286757,21.65779,60,78,0
21.65779,21.776836,61,76,0
21.776836,21.895884,60,57,0
21.286757,21.895884,56,78,0
21.286757,21.895884,51,78,0
21.286757,21.895884,44,78,0
22.01493,22.131609,31,83,0
22.131609,22.24468,43,83,0
22.24468,22.358316,32,85,0
22.358316,22.471952,44,86,0
22.471952,22.585588,34,88,0
22.585588,22.699224,46,88,0
22.699224,22.81286,36,90,0
22.81286,22.926498,48,90,0
22.926498,23.040134,38,92,0
23.040134,23.15377,50,93,0
23.15377,23.267406,39,96,0
23.267406,23.381042,51,96,0
23.381042,23.494678,43,98,0
23.494678,23.604973,55,100,0
23.604973,23.715267,44,102,0
23.715267,23.825562,56,104,0
23.825562,23.935856,46,104,0
23.935856,24.0451,58,107,0
24.0451,24.15224,48,107,0
24.15224,24.259384,60,108,0
24.259384,24.366528,50,111,0
24.366528,24.47367,62,112,0
24.47367,24.580812,51,112,0
24.580812,24.689005,63,115,0
24.689005,24.7993,56,116,0
24.7993,24.909594,68,116,0
24.909594,25.023878,58,116,0
25.023878,25.145256,70,119,0
25.145256,25.286167,60,121,0
25.286167,25.462637,72,123,0
25.462637,25.804155,67,127,0
25.462637,25.804155,55,127,0
25.462637,25.804155,60,127,0
25.462637,25.804155,63,127,0
25.911299,26.238983,55,108,0
25.911299,26.238983,67,108,0
25.911299,26.238983,63,108,0
25.911299,26.238983,60,108,0
26.68938,26.78313,55,101,0
26.68938,26.78313,43,101,0
26.68938,26.78313,48,101,0
26.68938,26.78313,51,101,0
26.806568,27.15813,55,110,0
26.806568,27.15813,43,110,0
26.806568,27.15813,47,110,0
26.806568,27.15813,50,110,0
27.275318,27.62688,55,85,0
27.275318,27.62688,43,85,0
27.275318,27.62688,47,85,0
27.275318,27.62688,50,85,0
28.212818,28.330006,51,61,0
28.212818,28.330006,48,61,0
28.330006,28.447193,55,46,0
28.447193,28.56438,54,47,0
28.56438,28.681568,55,49,0
28.681568,28.798756,51,49,0
28.681568,28.798756,48,49,0
28.798756,28.915943,55,51,0
28.915943,29.03313,54,51,0
29.03313,29.150318,55,52,0
29.150318,29.267506,51,53,0
29.150318,29.267506,48,53,0
29.267506,29.384693,55,60,0
29.384693,29.50188,54,66,0
29.50188,29.619068,55,70,0
29.619068,29.736256,48,72,0
29.619068,29.736256,53,72,0
29.736256,29.853443,56,63,0
29.853443,29.97063,55,62,0
29.97063,30.087818,56,61,0
30.087818,30.205006,53,58,0
30.087818,30.205006,48,58,0
30.205006,30.322193,56,56,0
30.322193,30.43938,55,54,0
30.43938,30.556568,56,53,0
30.556568,30.673756,53,51,0
30.556568,30.673756,48,51,0
30.673756,30.790943,56,51,0
30.790943,30.90813,55,51,0
30.90813,31.025318,56,53,0
31.025318,31.142506,48,72,0
31.025318,31.142506,55,72,0
31.142506,31.259693,58,63,0
31.259693,31.37688,57,62,0
31.37688,31.494068,58,61,0
31.494068,31.611256,48,58,0
31.494068,31.611256,55,58,0
31.611256,31.728443,58,56,0
31.728443,31.84563,57,54,0
31.84563,31.962818,58,53,0
31.962818,32.080006,48,51,0
31.962818,32.080006,55,51,0
32.080006,32.197193,58,51,0
32.197193,32.31438,57,51,0
32.31438,32.43157,58,53,0
32.43157,32.548756,48,72,0
32.43157,32.548756,57,72,0
32.548756,32.665943,60,63,0
32.665943,32.78313,59,62,0
32.78313,32.90032,60,61,0
32.90032,33.017506,48,58,0
32.90032,33.017506,57,58,0
33.017506,33.134693,60,56,0
33.134693,33.25188,59,54,0
33.25188,33.36907,60,53,0
33.36907,33.486256,48,51,0
33.36907,33.486256,57,51,0
33.486256,33.603443,60,51,0
33.603443,33.72063,59,51,0
33.72063,33.83782,60,53,0
33.83782,33.955006,48,72,0
33.83782,33.955006,56,72,0
33.955006,34.072193,60,63,0
34.072193,34.18938,59,59,0
34.18938,34.30657,60,62,0
34.30657,34.423756,48,64,0
34.30657,34.423756,56,64,0
34.423756,34.540943,60,66,0
34.540943,34.65813,59,68,0
34.65813,34.77532,60,70,0
34.77532,34.892506,48,72,0
34.77532,34.892506,56,72,0
34.892506,35.009693,60,73,0
35.009693,35.12688,59,76,0
35.12688,35.24407,60,78,0
35.24407,35.361256,48,79,0
35.24407,35.361256,51,79,0
35.361256,35.478443,60,79,0
35.478443,35.59563,59,75,0
35.59563,35.71282,60,72,0
35.71282,35.830006,48,69,0
35.71282,35.830006,51,69,0
35.830006,35.947193,60,66,0
35.947193,36.06438,59,62,0
36.06438,36.18157,60,59,0
36.18157,36.298756,48,56,0
36.18157,36.298756,51,56,0
36.298756,36.415943,60,48,0
36.415943,36.56351,59,41,0
36.56351,36.771847,60,37,0
36.771847,36.95275,44,35,0
36.95275,37.0788,51,33,0
37.0788,37.204853,50,33,0
37.204853,37.30437,51,35,0
37.329163,37.452114,44,37,0
37.452114,37.574066,51,38,0
37.574066,37.696014,50,39,0
37.696014,37.793446,51,39,0
37.81764,37.938606,44,39,0
37.938606,38.05925,51,40,0
38.05925,38.1783,50,40,0
38.1783,38.297348,51,40,0
38.297348,38.416393,43,39,0
38.416393,38.53513,51,37,0
38.53513,38.65324,50,35,0
38.65324,38.747604,51,35,0
38.77104,38.88823,43,27,0
38.88823,39.00451,51,26,0
39.00451,39.12079,50,29,0
39.12079,39.213093,51,32,0
39.23617,39.351555,48,35,0
39.351555,39.46694,52,36,0
39.46694,39.582325,51,39,0
39.582325,39.69771,52,40,0
39.69771,39.813095,41,48,0
39.813095,39.92848,53,48,0
39.92848,40.04386,44,33,0
40.04386,40.15925,53,35,0
40.15925,40.27463,43,37,0
40.27463,40.390015,53,38,0
40.390015,40.5054,44,39,0
40.5054,40.620785,53,39,0
40.620785,40.73617,46,41,0
40.73617,40.851555,55,42,0
40.851555,40.967236,46,44,0
40.967236,41.084423,56,45,0
41.084423,41.20223,51,46,0
41.20223,41.320335,58,46,0
41.320335,41.438446,57,44,0
41.438446,41.533684,58,41,0
41.557495,41.67718,51,40,0
41.67718,41.798805,58,39,0
41.798805,41.920757,57,37,0
41.920757,42.01832,58,36,0
42.042706,42.165657,51,35,0
42.165657,42.28861,58,35,0
42.28861,42.41156,57,33,0
42.41156,42.51156,58,32,0
42.53656,42.717464,56,35,0
42.717464,42.843513,63,33,0
42.843513,42.969566,62,33,0
42.969566,43.069084,63,35,0
43.093876,43.216827,56,37,0
43.216827,43.33878,63,38,0
43.33878,43.460728,62,39,0
43.460728,43.55816,63,39,0
43.58235,43.70332,56,39,0
43.70332,43.823967,63,40,0
43.823967,43.943012,62,40,0
43.943012,44.06206,63,40,0
44.06206,44.181107,55,39,0
44.181107,44.299843,63,37,0
44.299843,44.417953,62,35,0
44.417953,44.512318,63,35,0
44.535755,44.652943,55,27,0
44.652943,44.769222,63,26,0
44.769222,44.8855,62,29,0
44.8855,44.97781,63,32,0
45.000885,45.11627,60,35,0
45.11627,45.231655,64,36,0
45.231655,45.34704,63,39,0
45.34704,45.466087,64,40,0
45.466087,45.585133,53,48,0
45.585133,45.70418,65,40,0
45.70418,45.823227,56,42,0
45.823227,45.942276,65,43,0
45.942276,46.061325,55,45,0
46.061325,46.18037,65,48,0
46.18037,46.29942,56,50,0
46.29942,46.41815,65,51,0
46.41815,46.536263,58,53,0
46.536263,46.654068,63,54,0
46.654068,46.77065,58,56,0
46.77065,46.886627,62,57,0
46.886627,47.002014,51,59,0
47.002014,47.117397,63,53,0
47.117397,47.232197,55,56,0
47.232197,47.3467,63,57,0
47.3467,47.461205,60,59,0
47.461205,47.575417,63,60,0
47.575417,47.689053,58,61,0
47.689053,47.802406,63,63,0
47.802406,47.915188,56,65,0
47.915188,48.02741,63,67,0
48.02741,48.139347,55,67,0
48.139347,48.25129,63,69,0
48.25129,48.3624,46,70,0
48.3624,48.47351,58,61,0
48.47351,48.584076,50,63,0
48.584076,48.69437,58,66,0
48.69437,48.804398,51,68,0
48.804398,48.913883,58,71,0
48.913883,49.023373,53,73,0
49.023373,49.13207,58,76,0
49.13207,49.240765,55,78,0
49.240765,49.348938,58,81,0
49.348938,49.456596,56,84,0
49.456596,49.56374,58,87,0
49.56374,49.67088,46,95,0
49.67088,49.777264,57,90,0
49.777264,49.883648,48,91,0
49.883648,49.961662,57,93,0
49.99003,50.09692,51,102,0
50.09692,50.204834,57,100,0
50.204834,50.312744,54,99,0
50.312744,50.391933,57,103,0
50.42092,50.529617,51,113,0
50.529617,50.639103,57,109,0
50.639103,50.748863,48,112,0
50.748863,50.859158,57,114,0
50.859158,51.079742,46,117,0
51.301693,51.413635,53,122,0
51.413635,51.525574,58,113,0
51.525574,51.637516,53,113,0
51.637516,51.719604,50,113,0
51.749454,51.861958,50,122,0
51.861958,51.97588,53,117,0
51.97588,52.090385,50,119,0
52.090385,52.174355,46,123,0
52.204887,52.433895,34,127,0
52.66437,53.1295,46,127,0
52.66437,53.1295,34,127,0
54.319786,54.578407,56,44,0
54.319786,54.578407,46,44,0
54.66461,54.930416,56,46,0
54.66461,54.930416,48,46,0
55.0371,55.383255,56,51,0
55.0371,55.383255,50,51,0
55.498642,56.57007,55,53,0
55.498642,56.57007,51,53,0
56.57007,56.971855,56,45,0
56.57007,56.971855,53,45,0
57.10578,57.38413,55,45,0
57.10578,57.38413,51,45,0
57.38413,57.674923,56,41,0
57.38413,57.674923,53,41,0
57.674923,57.973495,55,37,0
57.674923,57.973495,51,37,0
57.973495,58.28227,56,33,0
57.973495,58.28227,50,33,0
58.28227,58.75102,55,31,0
58.28227,58.75102,51,31,0
58.90727,60.15727,56,50,0
58.90727,60.15727,51,50,0
58.90727,60.15727,44,50,0
60.15727,60.62602,51,44,0
60.77648,60.998703,46,47,0
61.05426,61.281044,46,42,0
61.338184,61.57103,46,34,0
61.630436,61.873283,46,37,0
61.934505,62.179405,46,39,0
62.24169,62.479385,53,41,0
62.24169,62.479385,46,41,0
62.559174,63.6306,55,53,0
62.559174,63.6306,51,53,0
63.6306,64.03239,56,45,0
63.6306,64.03239,53,45,0
64.16631,64.44466,55,45,0
64.16631,64.44466,51,45,0
64.44466,64.73546,56,41,0
64.44466,64.73546,53,41,0
64.73546,65.03403,55,37,0
64.73546,65.03403,51,37,0
65.03403,65.342804,56,33,0
65.03403,65.342804,50,33,0
65.342804,65.811554,55,31,0
65.342804,65.811554,51,31,0
65.967804,67.217804,51,58,0
65.967804,67.217804,61,58,0
67.217804,67.686554,51,44,0
67.83701,68.059235,51,47,0
67.83701,68.059235,61,47,0
68.11479,68.341576,51,44,0
68.11479,68.341576,60,44,0
68.39872,68.63156,51,41,0
68.39872,68.63156,58,41,0
68.69097,68.933815,51,41,0
68.69097,68.933815,56,41,0
68.99504,69.23994,51,42,0
68.99504,69.23994,55,42,0
69.30222,69.53992,56,44,0
69.30222,69.53992,51,44,0
69.619705,69.97992,51,48,0
69.619705,69.97992,58,48,0
70.26487,71.228035,61,39,0
70.26487,71.228035,49,39,0
71.228035,71.54718,49,32,0
71.228035,71.54718,56,32,0
71.54718,71.80563,49,37,0
71.54718,71.80563,59,37,0
71.87218,72.14415,49,36,0
71.87218,72.14415,58,36,0
72.21311,72.492744,49,33,0
72.21311,72.492744,56,33,0
72.56333,72.84752,49,31,0
72.56333,72.84752,54,31,0
72.91981,73.21176,49,30,0
72.91981,73.21176,53,30,0
73.28493,73.56195,54,30,0
73.28493,73.56195,49,30,0
73.65455,74.06484,49,30,0
73.65455,74.06484,56,30,0
74.37189,75.66339,56,39,0
74.37189,75.66339,62,39,0
74.37189,75.66339,65,39,0
74.37189,75.66339,46,39,0
75.66339,76.3029,65,40,0
75.66339,76.3029,46,40,0
75.66339,76.3029,56,40,0
75.66339,76.3029,62,40,0
76.3029,76.58749,46,45,0
76.3029,76.58749,67,45,0
76.3029,76.58749,63,45,0
76.3029,76.58749,55,45,0
76.61326,76.89597,46,49,0
76.61326,76.89597,68,49,0
76.61326,76.89597,62,49,0
76.61326,76.89597,53,49,0
76.921486,77.202095,46,53,0
76.921486,77.202095,67,53,0
76.921486,77.202095,63,53,0
76.921486,77.202095,55,53,0
77.22761,77.50745,46,59,0
77.22761,77.50745,65,59,0
77.22761,77.50745,62,59,0
77.22761,77.50745,56,59,0
77.53269,78.144424,67,63,0
77.53269,78.144424,46,63,0
77.53269,78.144424,55,63,0
77.53269,78.144424,63,63,0
78.144424,78.76252,46,41,0
78.144424,78.76252,63,41,0
78.144424,78.76252,60,41,0
78.144424,78.76252,56,41,0
78.76252,79.3941,62,32,0
78.76252,79.3941,58,32,0
78.76252,79.3941,46,32,0
79.3941,80.185814,58,29,0
79.3941,80.185814,51,29,0
80.34538,80.604004,58,38,0
80.34538,80.604004,56,38,0
80.34538,80.604004,46,38,0
80.690216,80.95602,58,43,0
80.690216,80.95602,56,43,0
80.690216,80.95602,48,43,0
81.0627,81.52424,58,47,0
81.0627,81.52424,56,47,0
81.0627,81.52424,50,47,0
81.52424,81.7589,55,44,0
81.7589,81.9295,58,41,0
81.99285,82.21761,58,44,0
82.21761,82.43442,60,46,0
82.43442,82.58705,58,40,0
82.64494,82.853836,58,45,0
82.84868,82.997215,56,44,0
82.84868,82.997215,53,44,0
83.05334,83.19986,58,40,0
83.25541,83.456474,58,34,0
83.46147,83.660484,55,44,0
83.660484,83.80405,58,41,0
83.858505,84.05555,58,44,0
84.05555,84.25163,57,46,0
84.25163,84.39464,58,40,0
84.45076,84.65749,53,41,0
84.45076,84.65749,56,41,0
84.65749,84.80853,51,49,0
84.65749,84.80853,55,49,0
84.86062,85.01166,58,38,0
85.06895,85.27728,59,34,0
85.28249,85.49082,60,44,0
85.49082,85.64187,51,41,0
85.69916,85.90749,51,44,0
85.90749,86.11582,48,46,0
86.11582,86.26687,51,40,0
86.32416,86.53249,51,45,0
86.53249,86.68353,46,48,0
86.74082,86.89187,51,40,0
86.94916,87.155914,51,34,0
87.155914,87.356926,45,48,0
87.356926,87.50049,53,41,0
87.55446,87.74816,53,44,0
87.74816,87.9391,46,46,0
87.9391,88.077194,53,40,0
88.130035,88.325714,53,45,0
88.325714,88.47315,46,50,0
88.53089,88.6851,56,40,0
88.7431,88.95036,56,34,0
88.95036,89.15655,55,49,0
89.15655,89.30353,58,41,0
89.359085,89.5586,58,44,0
89.5586,89.75374,60,46,0
89.75374,89.89362,58,40,0
89.94605,90.13519,58,45,0
90.130516,90.26603,56,44,0
90.130516,90.26603,53,44,0
90.31744,90.45295,58,43,0
90.50435,90.69126,58,46,0
90.69594,90.88285,55,49,0
90.88285,91.018364,58,46,0
91.06977,91.25668,58,51,0
91.25668,91.443596,57,52,0
91.443596,91.57992,58,46,0
91.63229,91.823685,56,49,0
91.63229,91.823685,53,49,0
91.823685,91.964424,51,53,0
91.823685,91.964424,55,53,0
92.01344,92.15736,58,48,0
92.212814,92.42941,60,45,0
92.43516,92.64873,61,50,0
92.64873,92.795784,51,53,0
92.8498,93.04352,51,53,0
93.04352,93.23224,49,55,0
93.23224,93.36612,51,58,0
93.41616,93.597565,51,60,0
93.597565,93.728195,47,62,0
93.77775,93.90801,51,65,0
93.95712,94.1357,51,67,0
94.1357,94.31507,48,69,0
94.31507,94.44685,51,66,0
94.497314,94.68165,51,61,0
94.68165,94.874664,44,61,0
94.874664,95.018524,51,55,0
95.07398,95.2775,51,53,0
95.2775,95.42545,45,62,0
95.481575,95.63145,51,57,0
95.68923,95.90252,51,52,0
95.90252,96.06439,46,43,0
96.11874,96.36948,51,43,0
96.36948,96.5737,39,40,0
96.65116,96.85896,37,39,0
96.85896,97.06515,44,36,0
97.06515,97.27133,53,31,0
97.27133,97.47594,37,40,0
97.47594,97.68002,44,37,0
97.68002,97.88103,53,35,0
97.88103,98.08103,37,39,0
98.08103,98.28053,44,35,0
98.28053,98.47855,53,33,0
98.47855,98.68109,37,32,0
98.68109,98.88517,44,32,0
98.88517,99.09083,48,33,0
99.09083,99.29971,37,34,0
99.29971,99.512474,44,35,0
99.512474,99.72696,48,36,0
99.72696,99.94201,37,38,0
99.94201,100.15535,44,38,0
100.15535,100.365875,49,40,0
100.365875,100.50798,34,40,0
100.5764,100.782585,56,41,0
100.782585,100.98512,53,42,0
100.98512,101.18664,46,44,0
101.18664,101.38565,56,44,0
101.38565,101.583664,53,45,0
101.583664,101.781204,46,45,0
101.781204,101.976326,56,48,0
101.976326,102.1705,53,50,0
102.1705,102.36327,46,52,0
102.36327,102.55376,55,50,0
102.55376,102.74423,53,50,0
102.74423,102.93291,46,57,0
102.93291,103.12204,55,50,0
103.12204,103.31481,56,50,0
103.511375,103.71039,55,50,0
103.71039,103.9084,51,50,0
103.31481,103.9084,46,54,0
104.10642,104.30444,56,45,0
104.30444,104.503456,53,42,0
103.9084,104.503456,46,52,0
104.70497,104.90906,50,38,0
104.90906,105.11524,53,37,0
104.503456,105.11524,46,49,0
105.11524,105.325775,39,47,0
105.325775,105.538536,51,37,0
105.538536,105.751305,46,35,0
105.751305,105.96578,39,33,0
106.07629,106.4233,56,45,0
106.07629,106.4233,58,45,0
106.07629,106.4233,46,45,0
106.4233,106.80325,48,52,0
106.4233,106.80325,56,52,0
106.4233,106.80325,58,52,0
106.80325,107.21354,50,57,0
106.80325,107.21354,56,57,0
106.80325,107.21354,58,57,0
107.21354,107.54894,51,65,0
107.597725,107.86291,54,56,0
107.597725,107.86291,58,56,0
107.9475,108.22858,42,66,0
108.27024,108.497055,54,56,0
108.27024,108.497055,58,56,0
108.57035,108.81684,46,65,0
108.85388,109.05947,56,56,0
108.85388,109.05947,58,56,0
109.12704,109.35236,51,66,0
109.38685,109.58578,56,51,0
109.38685,109.58578,58,51,0
109.653145,109.860245,54,55,0
109.653145,109.860245,58,55,0
109.931,110.14808,53,58,0
109.931,110.14808,58,58,0
110.22283,110.450386,51,60,0
110.22283,110.450386,58,60,0
110.52744,110.79345,39,63,0
110.88229,111.111885,47,66,0
111.187904,111.410934,51,56,0
111.187904,111.410934,56,56,0
111.48447,111.705055,47,60,0
111.77811,111.99377,51,56,0
111.77811,111.99377,56,56,0
112.06519,112.27724,46,61,0
112.34733,112.555664,51,56,0
112.34733,112.555664,58,56,0
112.62511,112.8309,44,61,0
112.898674,113.10138,50,44,0
112.898674,113.10138,58,44,0
113.16855,113.368454,41,48,0
113.43443,113.632774,56,52,0
113.43443,113.632774,58,52,0
113.69914,113.90146,51,58,0
113.69914,113.90146,54,58,0
113.69914,113.90146,58,58,0
113.9739,114.322075,59,62,0
113.9739,114.322075,56,62,0
113.9739,114.322075,49,62,0
114.381775,114.71244,54,47,0
114.75499,114.98109,58,36,0
114.75499,114.98109,61,36,0
115.05367,115.29251,46,47,0
115.328545,115.52826,58,38,0
115.328545,115.52826,61,38,0
115.59405,115.82044,49,47,0
115.85493,116.04889,59,35,0
115.85493,116.04889,61,35,0
116.11354,116.337685,54,47,0
116.37216,116.56613,59,35,0
116.37216,116.56613,61,35,0
116.63078,116.82475,58,37,0
116.63078,116.82475,61,37,0
116.889404,117.083374,56,40,0
116.889404,117.083374,61,40,0
117.148026,117.34199,54,43,0
117.148026,117.34199,61,43,0
117.40665,117.60061,42,47,0
117.66527,117.85923,51,49,0
117.92389,118.11785,54,41,0
117.92389,118.11785,59,41,0
118.18251,118.37647,51,46,0
118.44113,118.63755,54,38,0
118.44113,118.63755,59,38,0
118.70392,118.903435,49,49,0
118.971,119.177216,54,41,0
118.971,119.177216,61,41,0
119.24666,119.453316,47,49,0
119.52109,119.72238,53,52,0
119.52109,119.72238,61,52,0
119.789345,119.98907,44,62,0
120.054855,120.25222,59,66,0
120.054855,120.25222,61,66,0
120.31725,120.51122,54,70,0
120.31725,120.51122,58,70,0
120.31725,120.51122,61,70,0
120.575874,120.79391,61,74,0
120.575874,120.79391,58,74,0
120.575874,120.79391,51,74,0
120.826965,121.0104,56,77,0
120.826965,121.0104,59,77,0
121.07056,121.248665,61,76,0
121.07056,121.248665,63,76,0
121.30772,121.48335,63,82,0
121.30772,121.48335,59,82,0
121.54149,121.715164,55,88,0
121.54149,121.715164,58,88,0
121.54149,121.715164,63,88,0
121.77286,121.9452,56,90,0
121.77286,121.9452,59,90,0
121.77286,121.9452,63,90,0
122.00245,122.172195,55,95,0
122.00245,122.172195,61,95,0
122.00245,122.172195,63,95,0
122.228584,122.678314,59,101,0
122.228584,122.678314,63,101,0
123.5672,123.67831,47,125,0
123.67831,123.78942,59,113,0
123.78942,123.900536,56,118,0
123.900536,124.01164,51,121,0
124.01164,124.12276,47,123,0
124.12276,124.233864,44,115,0
124.233864,124.34498,39,120,0
124.34498,124.456085,35,125,0
124.456085,124.67831,47,127,0
124.90053,125.08396,46,77,0
125.14412,125.32223,63,76,0
125.14412,125.32223,59,76,0
125.38129,125.556915,63,82,0
125.38129,125.556915,59,82,0
125.61505,125.78873,51,88,0
125.61505,125.78873,47,88,0
125.84642,126.01876,51,90,0
125.84642,126.01876,46,90,0
126.07601,126.24576,63,95,0
126.07601,126.24576,59,95,0
126.07601,126.24576,65,95,0
126.30215,126.75188,58,101,0
126.30215,126.75188,63,101,0
126.30215,126.75188,66,101,0
127.64076,127.75188,46,125,0
127.75188,127.86298,58,113,0
127.86298,127.9741,54,118,0
127.9741,128.0852,51,121,0
128.0852,128.19632,46,123,0
128.19632,128.30743,42,115,0
128.30743,128.42023,39,120,0
128.42023,128.53473,34,125,0
128.53473,128.7667,46,127,0
129.00107,129.17778,45,116,0
129.00107,129.17778,33,116,0
129.95958,130.32913,57,110,0
129.95958,130.32913,63,110,0
129.95958,130.32913,66,110,0
130.45483,130.64696,33,117,0
130.71162,130.90842,53,78,0
130.71162,130.90842,51,78,0
130.71162,130.90842,45,78,0
130.9748,131.1769,53,68,0
130.9748,131.1769,51,68,0
130.9748,131.1769,45,68,0
131.24507,131.4532,53,57,0
131.24507,131.4532,51,57,0
131.24507,131.4532,45,57,0
131.52328,131.95052,45,63,0
131.52328,131.95052,51,63,0
131.52328,131.95052,54,63,0
132.51637,132.75075,46,44,0
132.82396,133.03622,46,49,0
133.10698,133.31924,46,52,0
133.39,133.63194,46,57,0
133.71259,133.87387,34,36,0
134.03516,134.32349,39,31,0
134.39757,134.6898,50,39,0
134.6898,134.9172,51,36,0
134.97285,135.19507,51,30,0
134.97285,135.19507,46,30,0
135.25063,135.47285,51,30,0
135.25063,135.47285,44,30,0
135.52841,135.75063,51,32,0
135.52841,135.75063,43,32,0
135.80618,136.08058,51,39,0
135.80618,136.08058,44,39,0
136.08058,136.3525,51,33,0
136.08058,136.3525,43,33,0
136.3525,136.61955,51,43,0
136.3525,136.61955,44,43,0
136.61955,136.88348,51,38,0
136.61955,136.88348,46,38,0
136.88348,137.14398,51,37,0
136.88348,137.14398,47,37,0
137.14398,137.40077,51,33,0
137.14398,137.40077,50,33,0
137.40077,137.65718,51,39,0
137.65718,137.91359,53,35,0
137.65718,137.91359,51,35,0
137.91359,138.17,55,33,0
137.91359,138.17,51,33,0
138.17,138.4264,56,29,0
138.17,138.4264,51,29,0
138.4264,138.65018,55,36,0
138.4264,138.65018,51,36,0
138.68466,138.94516,59,46,0
138.68466,138.94516,51,46,0
138.94516,139.20602,50,31,0
139.20602,139.47151,52,34,0
139.47151,139.737,53,34,0
139.737,140.00726,45,39,0
138.94516,140.00726,58,31,0
140.00726,140.55608,46,39,0
140.55608,140.788,51,34,0
140.00726,140.83473,58,39,0
140.83473,141.1151,50,39,0
141.1151,141.34012,51,36,0
141.39726,141.61948,51,30,0
141.39726,141.61948,46,30,0
141.67503,141.89726,51,30,0
141.67503,141.89726,44,30,0
141.9528,142.17503,51,32,0
141.9528,142.17503,43,32,0
142.23059,142.50499,51,39,0
142.23059,142.50499,44,39,0
142.50499,142.77689,51,33,0
142.50499,142.77689,43,33,0
142.77689,143.04396,51,43,0
142.77689,143.04396,44,43,0
143.04396,143.30789,51,38,0
143.04396,143.30789,46,38,0
143.30789,143.56839,51,37,0
143.30789,143.56839,47,37,0
143.56839,143.82516,51,33,0
143.56839,143.82516,50,33,0
143.82516,144.08159,51,39,0
144.08159,144.338,39,35,0
144.338,144.5944,43,33,0
144.338,144.5944,39,33,0
144.5944,144.85081,44,29,0
144.5944,144.85081,39,29,0
144.85081,145.07378,43,36,0
144.85081,145.07378,39,36,0
145.10796,145.36584,47,46,0
145.10796,145.36584,39,46,0
145.36584,145.62521,38,31,0
145.62521,145.88608,40,34,0
145.88608,146.14696,41,34,0
146.14696,146.40935,33,39,0
145.36584,146.40935,46,31,0
146.40935,146.93954,34,39,0
146.40935,146.93954,46,39,0
146.93954,147.16078,39,34,0
147.20503,147.47052,45,39,0
147.47052,147.73601,46,39,0
147.73601,148.00307,50,39,0
148.00307,148.27092,51,39,0
148.80824,149.07852,52,39,0
149.07852,149.34879,53,39,0
149.34879,149.61906,45,39,0
149.61906,150.1637,58,39,0
149.61906,150.1637,46,39,0
150.1637,150.39096,51,34,0
150.1637,150.39096,58,34,0
150.43642,150.70915,45,39,0
150.70915,151.25461,46,39,0
151.25461,151.80214,58,34,0
151.25461,151.80214,46,34,0
151.80214,152.0315,51,34,0
151.80214,152.0315,58,34,0
152.07738,152.35303,45,39,0
152.35303,152.90858,46,39,0
152.90858,153.46413,58,34,0
152.90858,153.46413,46,34,0
153.46413,153.69562,51,34,0
153.46413,153.69562,58,34,0
153.74191,154.01968,45,39,0
154.01968,154.60298,46,34,0
154.01968,154.60298,58,34,0
154.60298,154.85298,58,34,0
154.60298,154.85298,51,34,0
154.90349,155.21118,45,39,0
155.21118,155.84457,46,44,0
155.21118,155.84457,58,44,0
155.84457,156.11931,58,45,0
155.84457,156.11931,51,45,0
156.17487,156.52524,42,77,0
156.52524,157.25441,59,93,0
156.52524,157.25441,53,93,0
156.52524,157.25441,43,93,0
156.52524,157.25441,50,93,0
156.52524,157.25441,55,93,0
157.35857,158.25409,60,111,0
157.35857,158.25409,51,111,0
157.35857,158.25409,36,111,0
157.35857,158.25409,48,111,0
157.35857,158.25409,55,111,0
158.59462,158.68285,60,100,0
158.59462,158.68285,51,100,0
158.59462,158.68285,36,100,0
158.59462,158.68285,48,100,0
158.59462,158.68285,55,100,0
158.72067,159.06119,62,118,0
158.72067,159.06119,53,118,0
158.72067,159.06119,36,118,0
158.72067,159.06119,48,118,0
158.72067,159.06119,56,118,0
159.17313,159.50896,62,86,0
159.17313,159.50896,53,86,0
159.17313,159.50896,36,86,0
159.17313,159.50896,48,86,0
159.17313,159.50896,56,86,0
160.12509,161.01077,48,116,0
160.12509,161.01077,55,116,0
160.12509,161.01077,58,116,0
161.3202,161.40012,58,100,0
161.3202,161.40012,55,100,0
161.3202,161.40012,48,100,0
161.41998,161.75333,60,125,0
161.41998,161.75333,57,125,0
161.41998,161.75333,48,125,0
161.86443,162.19777,60,86,0
161.86443,162.19777,57,86,0
161.86443,162.19777,48,86,0
162.64719,162.74803,60,110,0
162.64719,162.74803,48,110,0
162.64719,162.74803,57,110,0
162.77324,163.10657,60,119,0
162.77324,163.10657,56,119,0
162.77324,163.10657,48,119,0
163.21768,163.55101,60,86,0
163.21768,163.55101,56,86,0
163.21768,163.55101,48,86,0
164.00388,164.11296,60,116,0
164.00388,164.11296,56,116,0
164.00388,164.11296,48,116,0
164.14024,164.50049,60,126,0
164.14024,164.50049,55,126,0
164.14024,164.50049,48,126,0
164.61243,164.94824,60,93,0
164.61243,164.94824,55,93,0
164.61243,164.94824,48,93,0
165.50795,166.17377,51,125,0
165.50795,166.17377,39,125,0
165.50795,166.17377,48,125,0
166.23058,166.40103,48,112,0
166.23058,166.40103,36,112,0
166.45786,166.62831,53,118,0
166.45786,166.62831,41,118,0
166.68512,166.86592,54,125,0
166.68512,166.86592,42,125,0
166.92894,167.26985,55,127,0
166.92894,167.26985,43,127,0
167.3835,167.7244,43,101,0
167.3835,167.7244,31,101,0
168.18344,168.28514,55,114,0
168.18344,168.28514,43,114,0
168.31056,168.7651,56,125,0
168.31056,168.7651,44,125,0
168.7651,168.93556,55,119,0
168.7651,168.93556,43,119,0
168.99237,169.16283,51,123,0
168.99237,169.16283,39,123,0
169.21965,169.3901,50,125,0
169.21965,169.3901,38,125,0
169.44691,169.62685,48,127,0
169.44691,169.62685,36,127,0
169.68935,170.0277,55,127,0
169.68935,170.0277,43,127,0
170.14047,170.47882,43,113,0
170.14047,170.47882,31,113,0
170.93402,171.03401,55,115,0
170.93402,171.03401,43,115,0
171.05902,171.51976,60,125,0
171.05902,171.51976,48,125,0
171.51976,171.69554,55,119,0
171.51976,171.69554,43,119,0
171.75414,171.93819,51,123,0
171.75414,171.93819,39,123,0
172.00175,172.21025,50,125,0
172.00175,172.21025,38,125,0
172.28452,172.53596,48,127,0
172.28452,172.53596,36,127,0
172.62743,173.01254,44,127,0
172.62743,173.01254,32,127,0
173.12532,176.22202,32,127,0
173.12532,176.22202,44,127,0
176.22202,176.42845,43,78,0
176.22202,176.42845,40,78,0
176.22202,176.42845,32,78,0
176.49725,176.70367,44,76,0
176.49725,176.70367,40,76,0
176.49725,176.70367,32,76,0
176.77248,176.9789,46,73,0
176.77248,176.9789,40,73,0
176.77248,176.9789,32,73,0
177.04771,177.46056,48,78,0
177.46056,177.59818,49,76,0
177.59818,177.73578,48,57,0
177.04771,177.73578,44,78,0
177.04771,177.73578,39,78,0
177.04771,177.73578,32,78,0
177.8734,178.07077,55,78,0
177.8734,178.07077,52,78,0
177.8734,178.07077,44,78,0
178.13655,178.33282,56,76,0
178.13655,178.33282,52,76,0
178.13655,178.33282,44,76,0
178.39532,178.58282,58,73,0
178.39532,178.58282,52,73,0
178.39532,178.58282,44,73,0
178.64532,179.01636,60,78,0
179.01636,179.1354,61,76,0
179.1354,179.25446,60,57,0
178.64532,179.25446,56,78,0
178.64532,179.25446,51,78,0
178.64532,179.25446,44,78,0
179.3735,179.49017,31,83,0
179.49017,179.60326,43,83,0
179.60326,179.71689,32,85,0
179.71689,179.83052,44,86,0
179.83052,179.94415,34,88,0
179.94415,180.0578,46,88,0
180.0578,180.17143,36,90,0
180.17143,180.28506,48,90,0
180.28506,180.3987,38,92,0
180.3987,180.51234,50,93,0
180.51234,180.62598,39,96,0
180.62598,180.73961,51,96,0
180.73961,180.85324,43,98,0
180.85324,180.96355,55,100,0
180.96355,181.07384,44,102,0
181.07384,181.18413,56,104,0
181.18413,181.29442,46,104,0
181.29442,181.40367,58,107,0
181.40367,181.5108,48,107,0
181.5108,181.61795,60,108,0
181.61795,181.7251,50,111,0
181.7251,181.83224,62,112,0
181.83224,181.93938,51,112,0
181.93938,182.04758,63,115,0
182.04758,182.15787,56,116,0
182.15787,182.26816,68,116,0
182.26816,182.38245,58,116,0
182.38245,182.50383,70,119,0
182.50383,182.64473,60,121,0
182.64473,182.82121,72,123,0
182.82121,183.16272,67,127,0
182.82121,183.16272,55,127,0
182.82121,183.16272,60,127,0
182.82121,183.16272,63,127,0
183.26987,183.59755,55,108,0
183.26987,183.59755,67,108,0
183.26987,183.59755,63,108,0
183.26987,183.59755,60,108,0
184.04794,184.1417,55,101,0
184.04794,184.1417,43,101,0
184.04794,184.1417,48,101,0
184.04794,184.1417,51,101,0
184.16513,184.5167,55,110,0
184.16513,184.5167,43,110,0
184.16513,184.5167,47,110,0
184.16513,184.5167,50,110,0
184.63388,184.98544,55,85,0
184.63388,184.98544,43,85,0
184.63388,184.98544,47,85,0
184.63388,184.98544,50,85,0
185.57138,185.68857,51,61,0
185.57138,185.68857,48,61,0
185.68857,185.80576,55,46,0
185.80576,185.92294,54,47,0
185.92294,186.04013,55,49,0
186.04013,186.15732,51,49,0
186.04013,186.15732,48,49,0
186.15732,186.2745,55,51,0
186.2745,186.3917,54,51,0
186.3917,186.50888,55,52,0
186.50888,186.62607,51,53,0
186.50888,186.62607,48,53,0
186.62607,186.74326,55,60,0
186.74326,186.86044,54,66,0
186.86044,186.97763,55,70,0
186.97763,187.09482,48,72,0
186.97763,187.09482,53,72,0
187.09482,187.212,56,63,0
187.212,187.3292,55,62,0
187.3292,187.44638,56,61,0
187.44638,187.56357,53,58,0
187.44638,187.56357,48,58,0
187.56357,187.68076,56,56,0
187.68076,187.79794,55,54,0
187.79794,187.91513,56,53,0
187.91513,188.03232,53,51,0
187.91513,188.03232,48,51,0
188.03232,188.1495,56,51,0
188.1495,188.2667,55,51,0
188.2667,188.38388,56,53,0
188.38388,188.50107,48,72,0
188.38388,188.50107,55,72,0
188.50107,188.61826,58,63,0
188.61826,188.73544,57,62,0
188.73544,188.85263,58,61,0
188.85263,188.96982,48,58,0
188.85263,188.96982,55,58,0
188.96982,189.087,58,56,0
189.087,189.2042,57,54,0
189.2042,189.32138,58,53,0
189.32138,189.43857,48,51,0
189.32138,189.43857,55,51,0
189.43857,189.55576,58,51,0
189.55576,189.67294,57,51,0
189.67294,189.79013,58,53,0
189.79013,189.90732,48,72,0
189.79013,189.90732,57,72,0
189.90732,190.0245,60,63,0
190.0245,190.1417,59,62,0
190.1417,190.25888,60,61,0
190.25888,190.37607,48,58,0
190.25888,190.37607,57,58,0
190.37607,190.49326,60,56,0
190.49326,190.61044,59,54,0
190.61044,190.72763,60,53,0
190.72763,190.84482,48,51,0
190.72763,190.84482,57,51,0
190.84482,190.962,60,51,0
190.962,191.0792,59,51,0
191.0792,191.19638,60,53,0
191.19638,191.31357,48,72,0
191.19638,191.31357,56,72,0
191.31357,191.43076,60,63,0
191.43076,191.54794,59,59,0
191.54794,191.66513,60,62,0
191.66513,191.78232,48,64,0
191.66513,191.78232,56,64,0
191.78232,191.8995,60,66,0
191.8995,192.0167,59,68,0
192.0167,192.13388,60,70,0
192.13388,192.25107,48,72,0
192.13388,192.25107,56,72,0
192.25107,192.36826,60,73,0
192.36826,192.48544,59,76,0
192.48544,192.60263,60,78,0
192.60263,192.71982,48,79,0
192.60263,192.71982,51,79,0
192.71982,192.837,60,79,0
192.837,192.9542,59,75,0
192.9542,193.07138,60,72,0
193.07138,193.18857,48,69,0
193.07138,193.18857,51,69,0
193.18857,193.30576,60,66,0
193.30576,193.42294,59,62,0
193.42294,193.54013,60,59,0
193.54013,193.65732,48,56,0
193.54013,193.65732,51,56,0
193.65732,193.7745,60,48,0
193.7745,193.92209,59,41,0
193.92209,194.13042,60,37,0
194.13042,194.31133,44,35,0
194.31133,194.43738,51,33,0
194.43738,194.56342,50,33,0
194.56342,194.66293,51,35,0
194.68773,194.81068,44,37,0
194.81068,194.93263,51,38,0
194.93263,195.05458,50,39,0
195.05458,195.15201,51,39,0
195.17621,195.29718,44,39,0
195.29718,195.41782,51,40,0
195.41782,195.53687,50,40,0
195.53687,195.65591,51,40,0
195.65591,195.77496,43,39,0
195.77496,195.89369,51,37,0
195.89369,196.01181,50,35,0
196.01181,196.10617,51,35,0
196.12961,196.2468,43,27,0
196.2468,196.36308,51,26,0
196.36308,196.47935,50,29,0
196.47935,196.57167,51,32,0
196.59474,196.71013,48,35,0
196.71013,196.82552,52,36,0
196.82552,196.94089,51,39,0
196.94089,197.05627,52,40,0
197.05627,197.17166,41,48,0
197.17166,197.28705,53,48,0
197.28705,197.40244,44,33,0
197.40244,197.51782,53,35,0
197.51782,197.6332,43,37,0
197.6332,197.74858,53,38,0
197.74858,197.86397,44,39,0
197.86397,197.97935,53,39,0
197.97935,198.09474,46,41,0
198.09474,198.21013,55,42,0
198.21013,198.3258,46,44,0
198.3258,198.443,56,45,0
198.443,198.56079,51,46,0
198.56079,198.67891,58,46,0
198.67891,198.79701,57,44,0
198.79701,198.89226,58,41,0
198.91606,199.03575,51,40,0
199.03575,199.15738,58,39,0
199.15738,199.27933,57,37,0
199.27933,199.37689,58,36,0
199.40128,199.52423,51,35,0
199.52423,199.64717,58,35,0
199.64717,199.77013,57,33,0
199.77013,199.87013,58,32,0
199.89513,200.07603,56,35,0
200.07603,200.20209,63,33,0
200.20209,200.32814,62,33,0
200.32814,200.42766,63,35,0
200.45245,200.5754,56,37,0
200.5754,200.69734,63,38,0
200.69734,200.8193,62,39,0
200.8193,200.91673,63,39,0
200.94092,201.06189,56,39,0
201.06189,201.18254,63,40,0
201.18254,201.30157,62,40,0
201.30157,201.42062,63,40,0
201.42062,201.53967,55,39,0
201.53967,201.65842,63,37,0
201.65842,201.77652,62,35,0
201.77652,201.87088,63,35,0
201.89432,202.0115,55,27,0
202.0115,202.12779,63,26,0
202.12779,202.24406,62,29,0
202.24406,202.33638,63,32,0
202.35945,202.47484,60,35,0
202.47484,202.59023,64,36,0
202.59023,202.70561,63,39,0
202.70561,202.82466,64,40,0
202.82466,202.94371,53,48,0
202.94371,203.06274,65,40,0
203.06274,203.1818,56,42,0
203.1818,203.30084,65,43,0
203.30084,203.41989,55,45,0
203.41989,203.53894,65,48,0
203.53894,203.65799,56,50,0
203.65799,203.77672,65,51,0
203.77672,203.89484,58,53,0
203.89484,204.01263,63,54,0
204.01263,204.12921,58,56,0
204.12921,204.2452,62,57,0
204.2452,204.36058,51,59,0
204.36058,204.47597,63,53,0
204.47597,204.59076,55,56,0
204.59076,204.70526,63,57,0
204.70526,204.81978,60,59,0
204.81978,204.93399,63,60,0
204.93399,205.04762,58,61,0
205.04762,205.16098,63,63,0
205.16098,205.27376,56,65,0
205.27376,205.38597,63,67,0
205.38597,205.49791,55,67,0
205.49791,205.60986,63,69,0
205.60986,205.72096,46,70,0
205.72096,205.83208,58,61,0
205.83208,205.94264,50,63,0
205.94264,206.05293,58,66,0
206.05293,206.16296,51,68,0
206.16296,206.27246,58,71,0
206.27246,206.38194,53,73,0
206.38194,206.49065,58,76,0
206.49065,206.59933,55,78,0
206.59933,206.7075,58,81,0
206.7075,206.81517,56,84,0
206.81517,206.9223,58,87,0
206.9223,207.02945,46,95,0
207.02945,207.13583,57,90,0
207.13583,207.24222,48,91,0
207.24222,207.32024,57,93,0
207.3486,207.45549,51,102,0
207.45549,207.5634,57,100,0
207.5634,207.67131,54,99,0
207.67131,207.7505,57,103,0
207.7795,207.88818,51,113,0
207.88818,207.99768,57,109,0
207.99768,208.10744,48,112,0
208.10744,208.21773,57,114,0
208.21773,208.43831,46,117,0
208.66026,208.7722,53,122,0
208.7722,208.88414,58,113,0
208.88414,208.99608,53,113,0
208.99608,209.07817,50,113,0
209.10802,209.22052,50,122,0
209.22052,209.33446,53,117,0
209.33446,209.44896,50,119,0
209.44896,209.53293,46,123,0
209.56346,209.79247,34,127,0
210.02293,210.48807,46,127,0
210.02293,210.48807,34,127,0
211.67836,211.93698,56,44,0
211.67836,211.93698,46,44,0
212.02318,212.28899,56,46,0
212.02318,212.28899,48,46,0
212.39568,212.74182,56,51,0
212.39568,212.74182,50,51,0
212.85721,213.92863,55,53,0
212.85721,213.92863,51,53,0
213.92863,214.33043,56,45,0
213.92863,214.33043,53,45,0
214.46436,214.74269,55,45,0
214.46436,214.74269,51,45,0
214.74269,215.0335,56,41,0
214.74269,215.0335,53,41,0
215.0335,215.33206,55,37,0
215.0335,215.33206,51,37,0
215.33206,215.64084,56,33,0
215.33206,215.64084,50,33,0
215.64084,216.10959,55,31,0
215.64084,216.10959,51,31,0
216.26584,217.51584,56,50,0
216.26584,217.51584,51,50,0
216.26584,217.51584,44,50,0
217.51584,217.98459,51,44,0
218.13506,218.35727,46,47,0
218.41283,218.63962,46,42,0
218.69676,218.9296,46,34,0
218.989,219.23186,46,37,0
219.29308,219.53798,46,39,0
219.60027,219.83795,53,41,0
219.60027,219.83795,46,41,0
219.91774,220.98917,55,53,0
219.91774,220.98917,51,53,0
220.98917,221.39096,56,45,0
220.98917,221.39096,53,45,0
221.52489,221.80322,55,45,0
221.52489,221.80322,51,45,0
221.80322,222.09402,56,41,0
221.80322,222.09402,53,41,0
222.09402,222.3926,55,37,0
222.09402,222.3926,51,37,0
222.3926,222.70137,56,33,0
222.3926,222.70137,50,33,0
222.70137,223.17012,55,31,0
222.70137,223.17012,51,31,0
223.32637,224.57637,51,58,0
223.32637,224.57637,61,58,0
224.57637,225.04512,51,44,0
225.19559,225.4178,51,47,0
225.19559,225.4178,61,47,0
225.47336,225.70015,51,44,0
225.47336,225.70015,60,44,0
225.7573,225.99013,51,41,0
225.7573,225.99013,58,41,0
226.04955,226.29239,51,41,0
226.04955,226.29239,56,41,0
226.3536,226.59851,51,42,0
226.3536,226.59851,55,42,0
226.6608,226.89821,56,44,0
226.6608,226.89821,51,44,0
226.97716,227.32979,51,48,0
226.97716,227.32979,58,48,0
227.60873,228.5561,61,38,0
227.60873,228.5561,49,38,0
228.5561,228.8764,49,33,0
228.5561,228.8764,56,33,0
228.8764,229.14003,49,41,0
228.8764,229.14003,59,41,0
229.2067,229.47688,49,39,0
229.2067,229.47688,58,39,0
229.54572,229.82468,49,36,0
229.54572,229.82468,56,36,0
229.89526,230.18227,49,29,0
229.89526,230.18227,54,29,0
230.25528,230.55008,49,29,0
230.25528,230.55008,53,29,0
230.62415,230.90463,54,29,0
230.62415,230.90463,49,29,0
230.99838,231.4166,49,29,0
230.99838,231.4166,56,29,0
231.7329,233.0274,56,39,0
231.7329,233.0274,62,39,0
231.7329,233.0274,65,39,0
231.7329,233.0274,46,39,0
233.0274,233.66692,65,40,0
233.0274,233.66692,46,40,0
233.0274,233.66692,56,40,0
233.0274,233.66692,62,40,0
233.66692,233.95149,46,45,0
233.66692,233.95149,67,45,0
233.66692,233.95149,63,45,0
233.66692,233.95149,55,45,0
233.97726,234.25998,46,49,0
233.97726,234.25998,68,49,0
233.97726,234.25998,62,49,0
233.97726,234.25998,53,49,0
234.28549,234.5661,46,53,0
234.28549,234.5661,67,53,0
234.28549,234.5661,63,53,0
234.28549,234.5661,55,53,0
234.59161,234.87144,46,59,0
234.59161,234.87144,65,59,0
234.59161,234.87144,62,59,0
234.59161,234.87144,56,59,0
234.8967,235.50844,67,63,0
234.8967,235.50844,46,63,0
234.8967,235.50844,55,63,0
234.8967,235.50844,63,63,0
235.50844,236.12653,46,41,0
235.50844,236.12653,63,41,0
235.50844,236.12653,60,41,0
235.50844,236.12653,56,41,0
236.12653,236.7581,62,32,0
236.12653,236.7581,58,32,0
236.12653,236.7581,46,32,0
236.7581,237.54982,58,29,0
236.7581,237.54982,51,29,0
237.7094,237.96802,58,38,0
237.7094,237.96802,56,38,0
237.7094,237.96802,46,38,0
238.05421,238.32002,58,43,0
238.05421,238.32002,56,43,0
238.05421,238.32002,48,43,0
238.42671,238.88824,58,47,0
238.42671,238.88824,56,47,0
238.42671,238.88824,50,47,0
238.88824,239.12291,55,44,0
239.12291,239.2935,58,41,0
239.35686,239.58162,58,44,0
239.58162,239.79843,60,46,0
239.79843,239.95105,58,40,0
240.00896,240.21785,58,45,0
240.21269,240.36122,56,45,0
240.21269,240.36122,53,44,0
240.41734,240.56386,58,40,0
240.61942,240.82048,58,34,0
240.82549,241.02449,55,44,0
241.02449,241.16806,58,41,0
241.2225,241.41956,58,44,0
241.41956,241.61563,57,46,0
241.61563,241.75864,58,40,0
241.81476,242.0215,56,41,0
241.81476,242.0215,53,41,0
242.0215,242.17255,51,49,0
242.0215,242.17255,55,49,0
242.22462,242.37567,58,38,0
242.43295,242.6413,59,34,0
242.6465,242.85483,60,44,0
242.85483,243.00587,51,41,0
243.06317,243.2715,51,44,0
243.2715,243.47983,48,46,0
243.47983,243.63087,51,40,0
243.68817,243.8965,51,45,0
243.8965,244.04755,46,48,0
244.10483,244.25587,51,40,0
244.31317,244.51991,51,34,0
244.51991,244.72093,45,48,0
244.72093,244.8645,53,41,0
244.91846,245.11217,53,44,0
245.11217,245.3031,46,46,0
245.3031,245.44121,53,40,0
245.49403,245.68971,53,45,0
245.68971,245.83716,46,50,0
245.8949,246.0491,56,40,0
246.10712,246.31438,56,34,0
246.31438,246.52055,55,49,0
246.52055,246.66754,58,41,0
246.7231,246.9226,58,44,0
246.9226,247.11774,60,46,0
247.11774,247.25763,58,40,0
247.31006,247.49919,58,45,0
247.49452,247.63004,56,44,0
247.49452,247.63004,53,44,0
247.68144,247.81696,58,43,0
247.86836,248.05527,58,46,0
248.05995,248.24686,55,49,0
248.24686,248.38237,58,46,0
248.43378,248.6207,58,51,0
248.6207,248.8076,57,52,0
248.8076,248.94392,58,46,0
248.9963,249.1877,56,49,0
248.9963,249.1877,53,49,0
249.1877,249.32843,51,53,0
249.1877,249.32843,55,53,0
249.37746,249.52136,58,48,0
249.57681,249.79341,60,45,0
249.79916,250.01274,61,50,0
250.01274,250.15979,51,53,0
250.2138,250.40753,51,53,0
250.40753,250.59625,49,55,0
250.59625,250.73012,51,58,0
250.78017,250.96158,51,60,0
250.96158,251.09221,47,62,0
251.14175,251.27202,51,65,0
251.32114,251.4997,51,67,0
251.4997,251.67908,48,69,0
251.67908,251.81087,51,66,0
251.86131,252.04565,51,61,0
252.04565,252.23868,44,61,0
252.23868,252.38254,51,55,0
252.43799,252.64151,51,53,0
252.64151,252.78946,45,62,0
252.84558,252.99545,51,57,0
253.05324,253.26653,51,52,0
253.26653,253.4284,46,43,0
253.48274,253.73347,51,43,0
253.73347,253.93771,39,40,0
254.01517,254.22296,37,39,0
254.22296,254.42915,44,36,0
254.42915,254.63535,53,31,0
254.63535,254.83995,37,40,0
254.83995,255.04402,44,37,0
255.04402,255.24504,53,35,0
255.24504,255.44504,37,39,0
255.44504,255.64455,44,35,0
255.64455,255.84256,53,33,0
255.84256,256.0451,37,32,0
256.0451,256.24918,44,32,0
256.24918,256.45483,48,33,0
256.45483,256.66373,37,34,0
256.66373,256.8765,44,35,0
256.8765,257.09097,48,36,0
257.09097,257.30603,37,38,0
257.30603,257.51935,44,38,0
257.51935,257.7299,49,40,0
257.7299,257.87198,34,40,0
257.9404,258.1466,56,41,0
258.1466,258.34912,53,42,0
258.34912,258.55066,46,44,0
258.55066,258.74966,56,44,0
258.74966,258.94766,53,45,0
258.94766,259.1452,46,45,0
259.1452,259.34033,56,48,0
259.34033,259.53452,53,50,0
259.53452,259.7273,46,52,0
259.7273,259.91776,55,50,0
259.91776,260.10825,53,50,0
260.10825,260.2969,46,57,0
260.2969,260.48605,55,50,0
260.48605,260.67883,56,50,0
260.8754,261.0744,55,50,0
261.0744,261.2724,51,50,0
260.67883,261.2724,46,54,0
261.47043,261.66846,56,45,0
261.66846,261.86746,53,42,0
261.2724,261.86746,46,52,0
262.06897,262.27307,50,38,0
262.27307,262.47925,53,37,0
261.86746,262.47925,46,49,0
262.47925,262.6898,39,47,0
262.6898,262.90256,51,37,0
262.90256,263.11533,46,35,0
263.11533,263.3298,39,33,0
263.4403,263.78732,56,45,0
263.4403,263.78732,58,45,0
263.4403,263.78732,46,45,0
263.78732,264.16727,48,52,0
263.78732,264.16727,56,52,0
263.78732,264.16727,58,52,0
264.16727,264.57755,50,57,0
264.16727,264.57755,56,57,0
264.16727,264.57755,58,57,0
264.57755,264.91296,51,65,0
264.96173,265.22693,54,56,0
264.96173,265.22693,58,56,0
265.3115,265.5926,42,66,0
265.63425,265.86105,54,56,0
265.63425,265.86105,58,56,0
265.93436,266.18085,46,65,0
266.2179,266.4235,56,56,0
266.2179,266.4235,58,56,0
266.49106,266.71637,51,66,0
266.75085,266.9498,56,51,0
266.75085,266.9498,58,51,0
267.01715,267.22424,54,55,0
267.01715,267.22424,58,55,0
267.295,267.5121,53,58,0
267.295,267.5121,58,58,0
267.58685,267.8144,51,60,0
267.58685,267.8144,58,60,0
267.89145,268.15744,39,63,0
268.2463,268.4759,47,66,0
268.5519,268.77493,51,56,0
268.5519,268.77493,56,56,0
268.84848,269.06906,47,60,0
269.14212,269.3578,51,56,0
269.14212,269.3578,56,56,0
269.4292,269.64124,46,61,0
269.71133,269.91968,51,56,0
269.71133,269.91968,58,56,0
269.9891,270.19492,44,61,0
270.2627,270.4654,50,44,0
270.2627,270.4654,58,44,0
270.53256,270.73245,41,48,0
270.79843,270.9968,56,52,0
270.79843,270.9968,58,52,0
271.06314,271.26547,51,58,0
271.06314,271.26547,54,58,0
271.06314,271.26547,58,58,0
271.3379,271.6861,59,62,0
271.3379,271.6861,56,62,0
271.3379,271.6861,49,62,0
271.7458,272.07645,54,47,0
272.119,272.3451,58,36,0
272.119,272.3451,61,36,0
272.4177,272.65652,46,47,0
272.69257,272.89227,58,38,0
272.69257,272.89227,61,38,0
272.95807,273.18445,49,47,0
273.21893,273.4129,59,35,0
273.21893,273.4129,61,35,0
273.47754,273.7017,54,47,0
273.73618,273.93015,59,35,0
273.73618,273.93015,61,35,0
273.99478,274.18875,58,37,0
273.99478,274.18875,61,37,0
274.25342,274.4474,56,40,0
274.25342,274.4474,61,40,0
274.51202,274.706,54,43,0
274.51202,274.706,61,43,0
274.77066,274.96463,42,47,0
275.02927,275.22324,51,49,0
275.2879,275.48187,54,41,0
275.2879,275.48187,59,41,0
275.5465,275.74048,51,46,0
275.80515,276.00156,54,38,0
275.80515,276.00156,59,38,0
276.06793,276.26743,49,49,0
276.33502,276.54123,54,41,0
276.33502,276.54123,61,41,0
276.61066,276.81732,47,49,0
276.8851,277.0864,53,52,0
276.8851,277.0864,61,52,0
277.15335,277.35306,44,62,0
277.41885,277.61624,59,66,0
277.41885,277.61624,61,66,0
277.68127,277.8752,54,70,0
277.68127,277.8752,58,70,0
277.68127,277.8752,61,70,0
277.93988,278.15793,61,74,0
277.93988,278.15793,58,74,0
277.93988,278.15793,51,74,0
278.19098,278.3744,56,77,0
278.19098,278.3744,59,77,0
278.43457,278.61267,61,76,0
278.43457,278.61267,63,76,0
278.67172,278.84735,63,82,0
278.67172,278.84735,59,82,0
278.9055,279.07916,55,88,0
278.9055,279.07916,58,88,0
278.9055,279.07916,63,88,0
279.13687,279.3092,56,90,0
279.13687,279.3092,59,90,0
279.13687,279.3092,63,90,0
279.36646,279.5362,55,95,0
279.36646,279.5362,61,95,0
279.36646,279.5362,63,95,0
279.5926,280.04233,59,101,0
279.5926,280.04233,63,101,0
280.9312,281.04233,47,125,0
281.04233,281.15344,59,113,0
281.15344,281.26453,56,118,0
281.26453,281.37564,51,121,0
281.37564,281.48676,47,123,0
281.48676,281.59787,44,115,0
281.59787,281.70898,39,120,0
281.70898,281.8201,35,125,0
281.8201,282.04233,47,127,0
282.26453,282.44797,46,77,0
282.50812,282.68625,63,76,0
282.50812,282.68625,59,76,0
282.7453,282.92093,63,82,0
282.7453,282.92093,59,82,0
282.97906,283.15274,51,88,0
282.97906,283.15274,47,88,0
283.21042,283.38278,51,90,0
283.21042,283.38278,46,90,0
283.44003,283.60977,63,95,0
283.44003,283.60977,59,95,0
283.44003,283.60977,65,95,0
283.66617,284.11588,58,101,0
283.66617,284.11588,63,101,0
283.66617,284.11588,66,101,0
285.00476,285.11588,46,125,0
285.11588,285.227,58,113,0
285.227,285.3381,54,118,0
285.3381,285.44922,51,121,0
285.44922,285.56033,46,123,0
285.56033,285.67145,42,115,0
285.67145,285.78424,39,120,0
285.78424,285.89874,34,125,0
285.89874,286.1307,46,127,0
286.36508,286.54178,45,116,0
286.36508,286.54178,33,116,0
287.3236,287.69315,57,110,0
287.3236,287.69315,63,110,0
287.3236,287.69315,66,110,0
287.81885,288.01096,33,117,0
288.07562,288.27243,53,78,0
288.07562,288.27243,51,78,0
288.07562,288.27243,45,78,0
288.3388,288.5409,53,68,0
288.3388,288.5409,51,68,0
288.3388,288.5409,45,68,0
288.60907,288.8172,53,57,0
288.60907,288.8172,51,57,0
288.60907,288.8172,45,57,0
288.8873,289.31454,45,63,0
288.8873,289.31454,51,63,0
288.8873,289.31454,54,63,0
289.88037,290.11475,46,44,0
290.18796,290.40024,46,49,0
290.47098,290.68326,46,52,0
290.754,290.99594,46,57,0
291.0766,291.23788,34,36,0
291.39917,291.6875,39,31,0
291.76157,292.0538,50,39,0
292.0538,292.28122,51,36,0
292.33685,292.55908,51,30,0
292.33685,292.55908,46,30,0
292.61462,292.83685,51,30,0
292.61462,292.83685,44,30,0
292.89243,293.11462,51,32,0
292.89243,293.11462,43,32,0
293.1702,293.44458,51,39,0
293.1702,293.44458,44,39,0
293.44458,293.7165,51,33,0
293.44458,293.7165,43,33,0
293.7165,293.98355,51,43,0
293.7165,293.98355,44,43,0
293.98355,294.2475,51,38,0
293.98355,294.2475,46,38,0
294.2475,294.508,51,37,0
294.2475,294.508,47,37,0
294.508,294.76477,51,33,0
294.508,294.76477,50,33,0
294.76477,295.02118,51,39,0
295.02118,295.2776,53,35,0
295.02118,295.2776,51,35,0
295.2776,295.534,55,33,0
295.2776,295.534,51,33,0
295.534,295.7904,56,29,0
295.534,295.7904,51,29,0
295.7904,296.0142,55,36,0
295.7904,296.0142,51,36,0
296.04868,296.30917,59,46,0
296.04868,296.30917,51,46,0
296.30917,296.57004,50,31,0
296.57004,296.8355,52,34,0
296.8355,297.101,53,34,0
297.101,297.37128,45,39,0
296.30917,297.37128,58,31,0
297.37128,297.92007,46,39,0
297.92007,298.152,51,34,0
297.37128,298.19873,58,39,0
298.19873,298.4791,50,39,0
298.4791,298.70413,51,36,0
298.76126,298.9835,51,30,0
298.76126,298.9835,46,30,0
299.03903,299.26126,51,30,0
299.03903,299.26126,44,30,0
299.31683,299.53903,51,32,0
299.31683,299.53903,43,32,0
299.5946,299.869,51,39,0
299.5946,299.869,44,39,0
299.869,300.1409,51,33,0
299.869,300.1409,43,33,0
300.1409,300.40796,51,43,0
300.1409,300.40796,44,43,0
300.40796,300.6719,51,38,0
300.40796,300.6719,46,38,0
300.6719,300.9324,51,37,0
300.6719,300.9324,47,37,0
300.9324,301.18918,51,33,0
300.9324,301.18918,50,33,0
301.18918,301.4456,51,39,0
301.4456,301.702,39,35,0
301.702,301.9584,43,33,0
301.702,301.9584,39,33,0
301.9584,302.2148,44,29,0
301.9584,302.2148,39,29,0
302.2148,302.43777,43,36,0
302.2148,302.43777,39,36,0
302.47195,302.72986,47,46,0
302.47195,302.72986,39,46,0
302.72986,302.98923,38,31,0
302.98923,303.2501,40,34,0
303.2501,303.51096,41,34,0
303.51096,303.77335,33,39,0
302.72986,303.77335,46,31,0
303.77335,304.30356,34,39,0
303.77335,304.30356,46,39,0
304.30356,304.52478,39,34,0
304.56903,304.83453,45,39,0
304.83453,305.1,46,39,0
305.1,305.36707,50,39,0
305.36707,305.63495,51,39,0
306.17227,306.44254,52,39,0
306.44254,306.7128,53,39,0
306.7128,306.98306,45,39,0
306.98306,307.5277,58,39,0
306.98306,307.5277,46,39,0
307.5277,307.75497,51,34,0
307.5277,307.75497,58,34,0
307.8004,308.07315,45,39,0
308.07315,308.61862,46,39,0
308.61862,309.16614,58,34,0
308.61862,309.16614,46,34,0
309.16614,309.3955,51,34,0
309.16614,309.3955,58,34,0
309.44138,309.71704,45,39,0
309.71704,310.27258,46,39,0
310.27258,310.82816,58,34,0
310.27258,310.82816,46,34,0
310.82816,311.05963,51,34,0
310.82816,311.05963,58,34,0
311.10593,311.3837,45,39,0
311.3837,311.9423,46,34,0
311.3837,311.9423,58,34,0
311.9423,312.1827,58,34,0
311.9423,312.1827,51,34,0
312.23175,312.53128,45,39,0
312.53128,313.15915,46,44,0
312.53128,313.15915,58,44,0
313.15915,313.42917,58,37,0
313.15915,313.42917,51,37,0
313.48535,313.8289,42,79,0
313.8289,314.87744,43,107,0
313.8289,314.87744,55,107,0
313.8289,314.87744,50,107,0
313.8289,314.87744,53,107,0
313.8289,314.87744,59,107,0
314.87744,315.99738,60,124,0
314.87744,315.99738,32,124,0
314.87744,315.99738,44,124,0
314.87744,315.99738,39,124,0
314.87744,315.99738,56,124,0
314.87744,315.99738,51,124,0
320.57297,320.69473,51,64,0
320.69473,320.82748,48,63,0
320.82748,320.95416,46,61,0
320.95416,321.06866,44,59,0
321.06866,321.18317,51,58,0
321.18317,321.29767,48,57,0
321.29767,321.41217,46,55,0
321.41217,321.52667,44,54,0
321.52667,321.64117,51,53,0
321.64117,321.75568,48,53,0
321.75568,321.87018,46,50,0
321.87018,321.98468,45,50,0
321.98468,322.09918,51,47,0
322.09918,322.2131,48,49,0
322.2131,322.32617,46,52,0
322.32617,322.4381,45,57,0
322.4381,322.55005,51,63,0
322.55005,322.66037,48,68,0
322.66037,322.77066,46,70,0
322.77066,322.8791,45,73,0
322.8791,322.98648,51,77,0
322.98648,323.09363,48,81,0
323.09363,323.20053,46,86,0
323.20053,323.3064,45,89,0
323.3064,323.41205,51,88,0
323.41205,323.51767,48,88,0
323.51767,323.62405,46,84,0
323.62405,323.73224,45,81,0
323.73224,323.84174,51,79,0
323.84174,323.95175,48,75,0
323.95175,324.06204,46,72,0
324.06204,324.1726,45,68,0
324.1726,324.28372,51,67,0
324.28372,324.39566,48,65,0
324.39566,324.5076,45,63,0
324.5076,324.61954,46,59,0
324.61954,324.73148,53,58,0
324.73148,324.86542,50,57,0
324.86542,324.99228,48,56,0
324.99228,325.10507,46,54,0
325.10507,325.21786,53,52,0
325.21786,325.33063,50,50,0
325.33063,325.44342,48,48,0
325.44342,325.55536,46,45,0
325.55536,325.66702,53,45,0
325.66702,325.7776,50,45,0
325.7776,325.88788,48,45,0
325.88788,325.99738,47,43,0
325.99738,326.10556,53,45,0
326.10556,326.21243,50,49,0
326.21243,326.31833,48,51,0
326.31833,326.42322,47,55,0
326.42322,326.52786,53,58,0
326.52786,326.63205,50,63,0
326.63205,326.73596,48,65,0
326.73596,326.83893,47,69,0
326.83893,326.94122,53,75,0
326.94122,327.04187,50,77,0
327.04187,327.14255,48,83,0
327.14255,327.24323,47,88,0
327.24323,327.34412,53,85,0
327.34412,327.4457,50,83,0
327.4457,327.54822,48,79,0
327.54822,327.65094,47,76,0
327.65094,327.75415,53,74,0
327.75415,327.8581,50,70,0
327.8581,327.96274,48,68,0
327.96274,328.06763,47,64,0
328.06763,328.17328,53,62,0
328.17328,328.28015,50,60,0
328.28015,328.3881,47,57,0
328.3881,328.496,48,55,0
328.496,328.61218,60,53,0
328.61218,328.74493,55,51,0
328.74493,328.8722,52,49,0
328.8722,328.98846,48,57,0
328.98846,329.10474,60,55,0
329.10474,329.221,56,55,0
329.221,329.33728,53,53,0
329.33728,329.45358,48,51,0
329.45358,329.56985,60,50,0
329.56985,329.68613,56,49,0
329.68613,329.8024,53,47,0
329.8024,329.9187,48,53,0
329.9187,330.03497,60,73,0
330.03497,330.16888,55,102,0
330.16888,330.30283,52,94,0
330.30283,330.4191,48,99,0
330.4191,330.53537,60,98,0
330.53537,330.65167,56,95,0
330.65167,330.76794,53,91,0
330.76794,330.88422,48,86,0
330.88422,331.0005,60,83,0
331.0005,331.1168,56,79,0
331.1168,331.23306,53,76,0
331.23306,331.34933,48,63,0
331.34933,331.47357,55,60,0
331.47357,331.61377,52,69,0
331.61377,331.75397,48,102,0
331.75397,331.86993,47,92,0
331.86993,331.98474,56,102,0
331.98474,332.09723,53,94,0
332.09723,332.20728,47,91,0
332.20728,332.31677,46,85,0
332.31677,332.42496,58,81,0
332.42496,332.5316,56,78,0
332.5316,332.63797,53,72,0
332.63797,332.74435,51,68,0
332.74435,332.85956,58,65,0
332.85956,332.97955,55,103,0
332.97955,333.08395,51,95,0
333.08395,333.1874,50,104,0
333.1874,333.29086,59,97,0
333.29086,333.39578,56,89,0
333.39578,333.5045,50,85,0
333.5045,333.61707,49,80,0
333.61707,333.7349,61,77,0
333.7349,333.85785,59,72,0
333.85785,333.98352,56,68,0
333.98352,334.1143,54,64,0
334.1143,334.3018,61,61,0
334.3018,334.49826,58,57,0
334.49826,334.65292,54,54,0
334.65292,334.80704,52,52,0
334.80704,334.95853,64,52,0
334.95853,335.11005,59,51,0
335.11005,335.26523,55,50,0
335.26523,335.4248,52,48,0
335.4248,335.58728,47,47,0
335.58728,335.75458,43,46,0
335.75458,335.9257,47,45,0
335.9257,336.09128,40,44,0
336.09128,336.24808,52,50,0
336.24808,336.3966,42,56,0
336.3966,336.53818,54,61,0
336.53818,336.67538,42,68,0
336.67538,336.80972,54,79,0
336.80972,336.93976,43,91,0
336.93976,337.06726,55,97,0
337.06726,337.18927,43,101,0
337.18927,337.30676,55,106,0
337.30676,337.42786,44,112,0
337.42786,337.563,56,115,0
337.563,337.64267,45,120,0
337.67145,337.77936,57,110,0
337.77936,337.88727,54,110,0
337.88727,337.99518,50,112,0
337.99518,338.1031,45,111,0
338.1031,338.211,42,119,0
338.211,338.3189,38,123,0
338.3189,338.42682,42,126,0
338.42682,338.63138,33,127,0
338.94748,339.0272,45,126,0
339.05618,339.1649,33,110,0
339.1649,339.2736,37,112,0
339.2736,339.38226,40,115,0
339.38226,339.49097,45,118,0
339.49097,339.59967,49,121,0
339.59967,339.70837,52,124,0
339.70837,339.81705,49,127,0
339.81705,340.0216,57,127,0
340.3336,340.86386,38,126,0
343.28116,343.53683,38,66,0
343.53683,343.79108,37,65,0
343.79108,344.29953,38,64,0
344.29953,344.55377,39,75,0
344.55377,344.808,38,83,0
344.808,345.06226,39,89,0
345.06226,345.3165,38,80,0
345.3165,345.57074,37,68,0
345.57074,345.82495,38,67,0
345.82495,346.0792,37,65,0
346.0792,346.33344,33,69,0
346.33344,346.84192,38,73,0
347.85886,348.11453,74,51,0
348.11453,348.36877,73,47,0
348.36877,348.87726,74,42,0
348.87726,349.1315,75,48,0
349.1315,349.38574,74,52,0
349.38574,349.63998,75,54,0
349.63998,349.8942,74,52,0
349.8942,350.14844,73,49,0
350.14844,350.40268,74,47,0
350.40268,350.65692,73,46,0
350.65692,350.91116,69,44,0
350.91116,351.41962,74,41,0
352.43658,352.69083,38,55,0
352.69083,352.9465,37,56,0
352.9465,353.45932,38,59,0
353.45932,353.7143,39,64,0
353.7143,353.9664,38,66,0
353.9664,354.47165,39,77,0
354.47165,354.7314,40,72,0
354.7314,355.00134,41,67,0
355.00134,355.28906,40,64,0
355.28906,355.60068,36,64,0
355.60068,355.90613,41,74,0
355.90613,356.18573,40,79,0
356.18573,356.44745,41,85,0
356.44745,356.70026,29,108,0
356.70026,356.94888,30,112,0
356.94888,357.19647,29,115,0
357.19647,357.44205,30,117,0
357.44205,357.6824,42,101,0
357.6824,357.93216,43,95,0
357.93216,358.19498,44,94,0
358.19498,358.4645,43,94,0
358.4645,358.76526,39,98,0
358.76526,359.0767,44,61,0
359.0767,359.33414,45,59,0
359.33414,359.57413,46,66,0
359.57413,359.81708,45,56,0
359.81708,360.06537,46,55,0
360.06537,360.25842,51,53,0
360.33124,360.58124,32,51,0
360.58124,360.83124,33,50,0
360.83124,361.08124,34,58,0
361.08124,361.3337,33,46,0
361.3337,361.59158,34,43,0
361.59158,361.78937,39,41,0
361.85593,362.11948,44,54,0
362.11948,362.37885,51,52,0
362.37885,362.63602,56,53,0
362.63602,362.88742,54,51,0
362.88742,363.6273,53,48,0
363.6273,363.87592,52,46,0
363.87592,364.1361,51,43,0
364.1361,364.41183,50,40,0
364.41183,364.85834,51,37,0
366.68015,366.92572,80,38,0
366.68015,366.92572,68,38,0
366.92572,367.16605,79,40,0
366.92572,367.16605,67,40,0
367.16605,367.63217,80,42,0
367.16605,367.63217,68,42,0
367.63217,367.8629,81,44,0
367.63217,367.8629,69,44,0
367.8629,368.0937,80,47,0
367.8629,368.0937,68,47,0
368.0937,368.43985,81,49,0
368.0937,368.43985,69,49,0
368.55524,368.786,81,49,0
368.55524,368.786,69,49,0
368.786,369.01678,82,47,0
368.786,369.01678,70,47,0
369.01678,369.24753,81,45,0
369.01678,369.24753,69,45,0
369.24753,369.48135,77,44,0
369.24753,369.48135,65,44,0
369.48135,369.72104,82,43,0
369.48135,369.72104,70,43,0
369.72104,369.96265,81,50,0
369.72104,369.96265,69,50,0
369.96265,370.21155,82,55,0
369.96265,370.21155,70,55,0
370.21155,370.47418,82,63,0
370.21155,370.47418,94,63,0
370.47418,370.74356,83,71,0
370.47418,370.74356,95,71,0
370.74356,371.0436,82,81,0
370.74356,371.0436,94,81,0
371.0436,371.3556,83,87,0
371.0436,371.3556,95,87,0
371.3556,371.61377,83,85,0
371.3556,371.61377,71,85,0
371.61377,371.85376,84,83,0
371.61377,371.85376,72,83,0
371.85376,372.0966,85,77,0
371.85376,372.0966,73,77,0
372.0966,372.34482,84,70,0
372.0966,372.34482,72,70,0
372.34482,372.61002,80,65,0
372.34482,372.61002,68,65,0
372.61002,372.8607,85,43,0
372.61002,372.8607,73,43,0
372.8607,373.1107,86,49,0
372.8607,373.1107,74,49,0
373.1107,373.3607,87,54,0
373.1107,373.3607,75,54,0
373.3607,373.6131,86,50,0
373.3607,373.6131,74,50,0
373.6131,373.87088,87,47,0
373.6131,373.87088,75,47,0
373.87088,374.0685,92,44,0
373.87088,374.13513,80,44,0
374.13513,374.39877,73,41,0
374.39877,374.65817,74,44,0
374.65817,374.9154,75,44,0
374.65817,374.9154,63,44,0
374.9154,375.16687,74,41,0
374.9154,375.16687,62,41,0
375.16687,375.41687,75,40,0
375.16687,375.41687,63,40,0
375.41687,375.60284,80,36,0
375.41687,375.60284,68,36,0
375.66452,375.90552,49,48,0
375.90552,376.15143,56,47,0
376.15143,376.4037,61,51,0
376.4037,376.6665,59,49,0
376.6665,377.5018,58,47,0
377.5018,377.80383,57,47,0
377.80383,378.1233,56,45,0
378.1233,378.46457,55,42,0
378.46457,379.0225,56,39,0
379.21646,379.57376,49,31,0
379.57376,379.8931,48,38,0
379.8931,380.46255,49,41,0
380.46255,380.73203,50,32,0
380.73203,380.99637,49,40,0
380.99637,381.2576,50,44,0
381.2576,381.51736,49,38,0
381.51736,381.77377,48,35,0
381.77377,382.02695,49,34,0
382.02695,382.27905,48,36,0
382.27905,382.53046,44,40,0
382.53046,382.7876,49,44,0
382.7876,383.04773,48,45,0
383.04773,383.31128,47,41,0
383.31128,383.58075,48,38,0
383.58075,383.85986,47,35,0
383.85986,384.0796,43,32,0
384.15613,384.4494,48,31,0
384.4494,384.72556,47,38,0
384.72556,385.2459,48,41,0
385.2459,385.50018,49,43,0
385.50018,385.76105,48,46,0
385.76105,386.0219,49,48,0
386.0219,386.28055,48,48,0
386.28055,386.53732,47,45,0
386.53732,386.7905,48,43,0
386.7905,387.0426,47,36,0
387.0426,387.294,43,40,0
387.294,387.81128,48,44,0
387.81128,388.07483,47,41,0
388.07483,388.3407,46,38,0
388.3407,388.60938,45,37,0
388.60938,388.81644,44,41,0
388.88907,389.17053,43,31,0
389.17053,389.433,42,38,0
389.433,389.94583,43,41,0
389.94583,390.20224,44,41,0
390.20224,390.45868,43,43,0
390.45868,390.7151,44,46,0
390.7151,390.9715,43,44,0
390.9715,391.2279,42,40,0
391.2279,391.4843,43,36,0
391.4843,391.74072,42,36,0
391.74072,392.00516,38,35,0
392.00516,392.29227,31,35,0
392.29227,392.56793,30,43,0
392.56793,393.09515,31,45,0
393.09515,393.3534,32,51,0
393.3534,393.60168,31,54,0
393.60168,393.84592,32,56,0
393.84592,394.08948,31,55,0
394.08948,394.33337,30,53,0
394.33337,394.58032,31,51,0
394.58032,394.83206,30,49,0
394.83206,395.08667,26,48,0
395.08667,396.12305,31,46,0
396.50693,396.63406,31,56,0
396.63406,397.0147,31,60,0
397.14075,397.5182,31,49,0
398.1432,399.13055,44,41,0
398.1432,399.13055,50,41,0
398.1432,399.13055,53,41,0
399.4964,399.58585,44,53,0
399.4964,399.58585,50,53,0
399.4964,399.58585,53,53,0
399.61835,400.06223,44,59,0
399.61835,400.06223,50,59,0
399.61835,400.06223,53,59,0
400.10223,400.54224,44,52,0
400.10223,400.54224,50,52,0
400.10223,400.54224,53,52,0
401.09412,402.02557,50,68,0
401.09412,402.02557,53,68,0
401.09412,402.02557,45,68,0
402.3717,402.4557,45,80,0
402.3717,402.4557,50,80,0
402.3717,402.4557,53,80,0
402.48624,402.90607,50,82,0
402.48624,402.90607,53,82,0
402.48624,402.90607,45,82,0
402.94424,403.36234,50,68,0
402.94424,403.36234,53,68,0
402.94424,403.36234,45,68,0
403.7475,403.8355,45,104,0
403.7475,403.8355,50,104,0
403.7475,403.8355,53,104,0
403.8675,404.29813,46,104,0
403.8675,404.29813,50,104,0
403.8675,404.29813,53,104,0
404.3372,404.7609,46,89,0
404.3372,404.7609,50,89,0
404.3372,404.7609,53,89,0
405.1286,405.2083,46,111,0
405.1286,405.2083,50,111,0
405.1286,405.2083,53,111,0
405.2373,405.68616,47,112,0
405.2373,405.68616,55,112,0
405.2373,405.68616,53,112,0
405.2373,405.68616,50,112,0
405.72614,406.13754,47,95,0
405.72614,406.13754,55,95,0
405.72614,406.13754,53,95,0
405.72614,406.13754,50,95,0
406.48196,406.5833,43,124,0
406.61902,407.47617,60,127,0
406.61902,407.47617,51,127,0
406.61902,407.47617,36,127,0
406.61902,407.47617,48,127,0
406.61902,407.47617,55,127,0
407.7682,407.8564,60,100,0
407.7682,407.8564,51,100,0
407.7682,407.8564,36,100,0
407.7682,407.8564,48,100,0
407.7682,407.8564,55,100,0
407.89423,408.23474,62,118,0
407.89423,408.23474,53,118,0
407.89423,408.23474,36,118,0
407.89423,408.23474,48,118,0
407.89423,408.23474,56,118,0
408.3467,408.68253,62,86,0
408.3467,408.68253,53,86,0
408.3467,408.68253,36,86,0
408.3467,408.68253,48,86,0
408.3467,408.68253,56,86,0
409.29865,410.18433,48,116,0
409.29865,410.18433,55,116,0
409.29865,410.18433,46,116,0
410.49377,410.57367,55,100,0
410.49377,410.57367,48,100,0
410.49377,410.57367,46,100,0
410.59357,410.92688,48,125,0
410.59357,410.92688,53,125,0
410.59357,410.92688,45,125,0
411.038,411.37134,48,86,0
411.038,411.37134,45,86,0
411.038,411.37134,53,86,0
412.28012,412.36902,57,110,0
412.28012,412.36902,45,110,0
412.39124,412.72458,56,119,0
412.39124,412.72458,44,119,0
412.8357,413.17743,44,120,0
412.8357,413.17743,32,120,0
413.67404,413.7636,56,116,0
413.67404,413.7636,44,116,0
413.78598,414.1218,63,126,0
413.78598,414.1218,51,126,0
414.23376,414.56958,61,93,0
414.23376,414.56958,49,93,0
415.02896,415.11783,59,110,0
415.02896,415.11783,47,110,0
415.14008,415.4734,58,119,0
415.14008,415.4734,46,119,0
415.5845,415.92627,46,120,0
415.5845,415.92627,34,120,0
416.42288,416.51242,58,116,0
416.42288,416.51242,46,116,0
416.53482,416.87064,65,126,0
416.53482,416.87064,53,126,0
416.98257,417.3184,63,93,0
416.98257,417.3184,51,93,0
417.69138,417.92734,50,125,0
417.69138,417.92734,38,125,0
417.92734,418.09778,51,95,0
417.92734,418.09778,39,95,0
418.1584,418.32886,48,112,0
418.1584,418.32886,36,112,0
418.38565,418.55612,53,118,0
418.38565,418.55612,41,118,0
418.61707,418.79993,54,125,0
418.61707,418.79993,42,125,0
419.19388,419.30753,50,127,0
419.30753,419.64844,55,127,0
419.30753,419.64844,43,127,0
419.76205,420.12048,43,101,0
419.76205,420.12048,31,101,0
420.12473,420.21564,55,114,0
420.12473,420.21564,43,114,0
420.2346,420.68912,60,125,0
420.2346,420.68912,48,125,0
420.6929,420.86337,55,119,0
420.6929,420.86337,43,119,0
420.9202,421.09064,51,123,0
420.9202,421.09064,39,123,0
421.14746,421.3179,50,125,0
421.14746,421.3179,38,125,0
421.3785,421.566,48,127,0
421.3785,421.566,36,127,0
421.62485,421.9632,44,127,0
421.62485,421.9632,32,127,0
422.076,425.24408,32,127,0
422.076,425.24408,44,127,0
425.24408,425.4505,43,78,0
425.24408,425.4505,40,78,0
425.24408,425.4505,32,78,0
425.5193,425.7257,44,76,0
425.5193,425.7257,40,76,0
425.5193,425.7257,32,76,0
425.79453,426.00095,46,73,0
425.79453,426.00095,40,73,0
425.79453,426.00095,32,73,0
426.06976,426.4826,48,78,0
426.4826,426.6202,49,76,0
426.6202,426.7578,48,57,0
426.06976,426.7578,44,78,0
426.06976,426.7578,39,78,0
426.06976,426.7578,32,78,0
426.88962,427.08698,55,78,0
426.88962,427.08698,52,78,0
426.88962,427.08698,44,78,0
427.15277,427.34268,56,76,0
427.15277,427.34268,52,76,0
427.15277,427.34268,44,76,0
427.40518,427.59268,58,73,0
427.40518,427.59268,52,73,0
427.40518,427.59268,44,73,0
427.65518,428.02045,60,78,0
428.02045,428.1395,61,76,0
428.1395,428.25854,60,57,0
427.65518,428.25854,56,78,0
427.65518,428.25854,51,78,0
427.65518,428.25854,44,78,0
428.37546,428.48846,31,83,0
428.48846,428.6021,43,83,0
428.6021,428.71576,32,85,0
428.71576,428.82938,44,86,0
428.82938,428.94302,34,88,0
428.94302,429.05667,46,88,0
429.05667,429.1703,36,90,0
429.1703,429.28394,48,90,0
429.28394,429.39758,38,92,0
429.39758,429.5112,50,93,0
429.5112,429.62485,39,96,0
429.62485,429.73846,51,96,0
429.73846,429.84888,43,98,0
429.84888,429.95917,55,100,0
429.95917,430.06946,44,102,0
430.06946,430.17978,56,104,0
430.17978,430.28912,46,104,0
430.28912,430.39627,58,107,0
430.39627,430.5034,48,107,0
430.5034,430.61053,60,108,0
430.61053,430.71768,50,111,0
430.71768,430.8251,62,112,0
430.8251,430.93307,51,112,0
430.93307,431.04257,63,115,0
431.04257,431.15408,56,116,0
431.15408,431.26752,68,116,0
431.26752,431.38327,58,116,0
431.38327,431.5008,70,119,0
431.5008,431.61923,60,121,0
431.61923,431.76608,72,123,0
431.76248,432.08472,56,127,0
431.76248,432.08472,65,127,0
431.76248,432.08472,61,127,0
431.76248,432.08472,53,127,0
432.19327,432.52176,53,108,0
432.19327,432.52176,65,108,0
432.19327,432.52176,61,108,0
432.19327,432.52176,56,108,0
432.97934,433.07352,65,127,0
432.97934,433.07352,53,127,0
432.97934,433.07352,56,127,0
432.97934,433.07352,61,127,0
433.09714,433.45493,63,127,0
433.09714,433.45493,54,127,0
433.09714,433.45493,57,127,0
433.09714,433.45493,60,127,0
433.57687,433.95734,63,113,0
433.57687,433.95734,54,113,0
433.57687,433.95734,57,113,0
433.57687,433.95734,60,113,0
434.8559,434.97495,55,39,0
434.97495,435.0937,67,37,0
435.0937,435.2118,62,35,0
435.0937,435.2118,59,35,0
435.2118,435.30615,67,35,0
435.3296,435.44678,55,27,0
435.44678,435.56308,67,26,0
435.56308,435.67935,62,29,0
435.56308,435.67935,59,29,0
435.67935,435.77167,67,32,0
435.79474,435.91013,55,35,0
435.91013,436.0255,67,36,0
436.0255,436.1409,59,39,0
436.0255,436.1409,62,39,0
436.1409,436.25992,67,40,0
436.25992,436.37897,55,48,0
436.37897,436.49802,67,40,0
436.49802,436.61707,63,42,0
436.61707,436.7361,67,43,0
436.7361,436.85516,59,45,0
436.85516,436.9742,67,48,0
436.9742,437.09326,60,50,0
437.09326,437.212,67,51,0
437.212,437.3301,62,53,0
437.3301,437.4479,67,54,0
437.4479,437.56448,63,56,0
437.56448,437.6808,67,56,0
437.6808,437.79984,43,39,0
437.79984,437.91855,55,37,0
437.91855,438.03665,50,35,0
437.91855,438.03665,47,35,0
438.03665,438.13104,55,35,0
438.15448,438.27167,43,27,0
438.27167,438.38794,55,26,0
438.38794,438.5042,50,29,0
438.38794,438.5042,47,29,0
438.5042,438.59653,55,32,0
438.6196,438.735,43,35,0
438.735,438.85037,55,36,0
438.85037,438.96576,47,39,0
438.85037,438.96576,50,39,0
438.96576,439.0848,55,40,0
439.0848,439.20386,43,48,0
439.20386,439.3229,55,40,0
439.3229,439.44196,51,42,0
439.44196,439.56097,55,43,0
439.56097,439.68002,47,45,0
439.68002,439.79907,55,48,0
439.79907,439.91812,48,50,0
439.91812,440.03687,55,51,0
440.03687,440.15497,50,53,0
440.15497,440.27277,55,54,0
440.27277,440.38937,51,56,0
440.38937,440.50565,55,56,0
440.50952,440.6258,43,48,0
440.6258,440.74207,55,40,0
440.7382,440.85446,47,42,0
440.85837,440.97464,55,43,0
440.97076,441.08704,48,45,0
441.0909,441.20718,55,48,0
441.2033,441.31958,50,50,0
441.32346,441.44025,55,51,0
441.4363,441.5544,51,53,0
441.55835,441.6762,55,54,0
441.6723,441.78897,53,56,0
441.79285,441.9088,55,56,0
441.90524,442.0124,43,57,0
442.0124,442.11877,54,60,0
442.11877,442.22516,45,62,0
442.22516,442.3032,54,64,0
442.33154,442.43845,48,67,0
442.43845,442.54636,54,71,0
442.54636,442.65427,51,72,0
442.65427,442.73346,54,75,0
442.76245,442.87112,48,80,0
442.87112,442.98062,54,83,0
442.98062,443.0904,45,87,0
443.0904,443.20068,54,92,0
443.20068,443.42126,43,114,0
443.64322,443.75516,50,122,0
443.75516,443.8671,55,113,0
443.8671,443.97903,50,113,0
443.97903,444.06113,47,113,0
444.09097,444.20346,47,122,0
444.20346,444.3174,50,117,0
444.3174,444.43192,47,119,0
444.43192,444.51587,43,123,0
444.54642,444.77542,31,127,0
445.0059,445.471,43,127,0
445.0059,445.471,31,127,0
446.66132,446.91992,53,44,0
446.66132,446.91992,43,44,0
447.00613,447.27194,53,46,0
447.00613,447.27194,45,46,0
447.37863,447.72476,53,51,0
447.37863,447.72476,47,51,0
447.84015,448.9116,52,53,0
447.84015,448.9116,48,53,0
448.9116,449.3134,53,45,0
448.9116,449.3134,50,45,0
449.4473,449.72565,52,45,0
449.4473,449.72565,48,45,0
449.72565,450.01645,53,41,0
449.72565,450.01645,50,41,0
450.01645,450.315,52,37,0
450.01645,450.315,48,37,0
450.315,450.62378,53,33,0
450.315,450.62378,47,33,0
450.62378,451.09253,52,31,0
450.62378,451.09253,48,31,0
451.24878,452.49878,53,50,0
451.24878,452.49878,48,50,0
451.24878,452.49878,41,50,0
452.49878,452.96753,48,44,0
453.118,453.3402,43,47,0
453.39578,453.62256,43,42,0
453.6797,453.91254,43,34,0
453.97195,454.2148,43,37,0
454.27603,454.52094,43,39,0
454.58322,454.8209,50,41,0
454.58322,454.8209,43,41,0
454.9007,455.9721,52,53,0
454.9007,455.9721,48,53,0
455.9721,456.3739,53,45,0
455.9721,456.3739,50,45,0
456.50784,456.78616,52,45,0
456.50784,456.78616,48,45,0
456.78616,457.07697,53,41,0
456.78616,457.07697,50,41,0
457.07697,457.37555,52,37,0
457.07697,457.37555,48,37,0
457.37555,457.68433,53,33,0
457.37555,457.68433,47,33,0
457.68433,458.15308,52,31,0
457.68433,458.15308,48,31,0
458.30933,459.55933,48,58,0
458.30933,459.55933,58,58,0
459.55933,460.02808,48,44,0
460.17853,460.40076,48,47,0
460.17853,460.40076,58,47,0
460.4563,460.6831,48,44,0
460.4563,460.6831,57,44,0
460.74023,460.97308,48,41,0
460.74023,460.97308,55,41,0
461.03247,461.27533,48,41,0
461.03247,461.27533,53,41,0
461.33655,461.58145,48,42,0
461.33655,461.58145,52,42,0
461.64374,461.88144,53,44,0
461.64374,461.88144,48,44,0
461.9612,462.3176,48,48,0
461.9612,462.3176,55,48,0
462.59952,463.57327,58,37,0
462.59952,463.57327,46,37,0
463.57327,463.91037,46,34,0
463.57327,463.91037,53,34,0
463.91037,464.18613,46,38,0
463.91037,464.18613,56,38,0
464.2559,464.5362,46,36,0
464.2559,464.5362,55,36,0
464.60678,464.89108,46,33,0
464.60678,464.89108,53,33,0
464.96323,465.25446,46,31,0
464.96323,465.25446,51,31,0
465.3276,465.6203,46,31,0
465.3276,465.6203,50,31,0
465.69275,465.9545,51,30,0
465.69275,465.9545,46,30,0
466.03845,466.4026,46,30,0
466.03845,466.4026,53,30,0
466.69064,467.995,53,39,0
466.69064,467.995,59,39,0
466.69064,467.995,62,39,0
466.69064,467.995,43,39,0
467.995,468.6345,62,40,0
467.995,468.6345,43,40,0
467.995,468.6345,53,40,0
467.995,468.6345,59,40,0
468.6345,468.91907,43,45,0
468.6345,468.91907,64,45,0
468.6345,468.91907,60,45,0
468.6345,468.91907,52,45,0
468.94485,469.22757,43,49,0
468.94485,469.22757,65,49,0
468.94485,469.22757,59,49,0
468.94485,469.22757,50,49,0
469.25308,469.5337,43,53,0
469.25308,469.5337,64,53,0
469.25308,469.5337,60,53,0
469.25308,469.5337,52,53,0
469.5592,469.83905,43,59,0
469.5592,469.83905,62,59,0
469.5592,469.83905,59,59,0
469.5592,469.83905,53,59,0
469.8643,470.476,64,63,0
469.8643,470.476,43,63,0
469.8643,470.476,52,63,0
469.8643,470.476,60,63,0
470.476,471.09412,43,41,0
470.476,471.09412,60,41,0
470.476,471.09412,57,41,0
470.476,471.09412,53,41,0
471.09412,471.72568,59,32,0
471.09412,471.72568,55,32,0
471.09412,471.72568,43,32,0
471.72568,472.51913,55,29,0
471.72568,472.51913,48,29,0
472.68335,472.9343,55,48,0
472.68335,472.9343,53,48,0
472.68335,472.9343,43,48,0
473.01923,473.27988,55,45,0
473.01923,473.27988,53,45,0
473.01923,473.27988,45,45,0
473.3681,473.72882,55,42,0
473.3681,473.72882,53,42,0
473.3681,473.72882,47,42,0
473.72882,473.9635,52,44,0
473.9635,474.1341,55,41,0
474.19745,474.4222,55,44,0
474.4222,474.639,57,46,0
474.639,474.79163,55,40,0
474.84952,475.0584,55,45,0
475.05328,475.2018,53,44,0
475.05328,475.2018,50,44,0
475.25793,475.40445,55,40,0
475.46,475.66107,55,34,0
475.66605,475.86508,52,44,0
475.86508,476.00864,55,41,0
476.06308,476.26013,55,44,0
476.26013,476.4562,54,46,0
476.4562,476.5992,55,40,0
476.65533,476.8621,50,41,0
476.65533,476.8621,53,41,0
476.8621,477.01312,48,49,0
476.8621,477.01312,52,49,0
477.06522,477.21625,55,38,0
477.27353,477.48187,56,34,0
477.4871,477.6954,57,44,0
477.6954,477.84647,48,41,0
477.90375,478.1121,48,44,0
478.1121,478.3204,45,46,0
478.3204,478.47147,48,40,0
478.52875,478.7371,48,45,0
478.7371,478.88812,43,48,0
478.9454,479.09647,48,40,0
479.15375,479.3605,48,34,0
479.3605,479.56152,42,48,0
479.56152,479.70508,50,41,0
479.75903,479.95276,50,44,0
479.95276,480.14368,43,46,0
480.14368,480.28177,50,40,0
480.33463,480.5303,50,45,0
480.5303,480.67773,43,50,0
480.73547,480.88968,53,40,0
480.9477,481.15497,53,34,0
481.15497,481.36115,52,49,0
481.36115,481.50812,55,41,0
481.56366,481.76318,55,44,0
481.76318,481.9583,57,46,0
481.9583,482.0982,55,40,0
482.15063,482.33978,55,45,0
482.3351,482.4706,53,44,0
482.3351,482.4706,50,44,0
482.52203,482.65753,55,43,0
482.70892,482.89584,55,46,0
482.9005,483.08743,52,49,0
483.08743,483.22296,55,46,0
483.27435,483.46127,55,51,0
483.46127,483.6482,54,52,0
483.6482,483.78452,55,46,0
483.83688,484.0283,53,49,0
483.83688,484.0283,50,49,0
484.0283,484.169,48,53,0
484.0283,484.169,52,53,0
484.21802,484.36194,55,48,0
484.4174,484.634,57,45,0
484.63974,484.85333,58,50,0
484.85333,485.00037,48,53,0
485.05438,485.2481,48,53,0
485.2481,485.43683,46,55,0
485.43683,485.5707,48,58,0
485.62076,485.80215,48,60,0
485.80215,485.93277,44,62,0
485.98233,486.1126,48,65,0
486.1617,486.34027,48,67,0
486.34027,486.51965,45,69,0
486.51965,486.65143,48,66,0
486.7019,486.88623,48,61,0
486.88623,487.07925,41,61,0
487.07925,487.2231,48,55,0
487.27856,487.4821,48,53,0
487.4821,487.63004,42,62,0
487.68616,487.83603,48,57,0
487.89383,488.10712,48,52,0
488.10712,488.26898,43,43,0
488.32333,488.57407,48,43,0
488.57407,488.7783,48,40,0
488.85574,489.05933,46,39,0
489.05933,489.25833,53,36,0
489.25833,489.4511,62,31,0
489.4511,489.63934,46,40,0
489.63934,489.82413,53,37,0
489.82413,490.00717,62,35,0
490.00717,490.1886,46,39,0
490.1886,490.36877,53,35,0
490.36877,490.54895,62,33,0
490.54895,490.72913,46,32,0
490.72913,490.90973,53,32,0
490.90973,491.09195,57,33,0
491.09195,491.2763,46,34,0
491.2763,491.46408,53,35,0
491.46408,491.65503,57,36,0
491.65503,491.8492,46,38,0
491.8492,492.0453,53,38,0
492.0453,492.24332,58,40,0
492.44382,492.64584,53,41,0
492.24332,492.83322,43,40,0
492.64584,492.84836,50,42,0
493.0499,493.2489,53,44,0
493.2489,493.4469,50,45,0
492.84836,493.49643,43,44,0
493.4469,493.49643,43,45,0
493.64444,493.83957,53,48,0
493.83957,494.03375,50,50,0
494.03375,494.0823,43,52,0
494.22653,494.417,52,50,0
494.417,494.60748,50,50,0
494.60748,494.65463,43,57,0
494.79614,494.9853,52,50,0
494.9853,495.17807,53,50,0
495.17807,495.22708,43,54,0
495.37463,495.57364,52,50,0
495.57364,495.77164,48,50,0
495.96967,496.1677,53,45,0
496.1677,496.3667,50,42,0
495.77164,496.3667,43,52,0
496.5682,496.7723,47,38,0
496.7723,496.9785,50,37,0
496.3667,496.9785,43,49,0
496.9785,497.18903,36,47,0
497.18903,497.4018,48,37,0
497.4018,497.61456,43,35,0
497.61456,497.82904,36,33,0
497.93954,498.28656,65,45,0
497.93954,498.28656,67,45,0
497.93954,498.28656,55,45,0
498.28656,498.6665,57,52,0
498.28656,498.6665,65,52,0
498.28656,498.6665,67,52,0
498.6665,499.07678,59,57,0
498.6665,499.07678,65,57,0
498.6665,499.07678,67,57,0
499.07678,499.4122,60,65,0
499.46097,499.72617,63,56,0
499.46097,499.72617,67,56,0
499.81073,500.09183,51,66,0
500.13348,500.3603,63,56,0
500.13348,500.3603,67,56,0
500.4336,500.68008,55,65,0
500.71713,500.92273,65,56,0
500.71713,500.92273,67,56,0
500.9903,501.2156,60,66,0
501.2501,501.44904,65,51,0
501.2501,501.44904,67,51,0
501.5164,501.72348,63,55,0
501.5164,501.72348,67,55,0
501.79425,502.01132,62,58,0
501.79425,502.01132,67,58,0
502.0861,502.31363,60,60,0
502.0861,502.31363,67,60,0
502.3907,502.6567,48,63,0
502.74554,502.97513,56,66,0
503.05115,503.27417,60,56,0
503.05115,503.27417,65,56,0
503.34772,503.5683,56,60,0
503.64136,503.85703,60,56,0
503.64136,503.85703,65,56,0
503.92844,504.14047,55,61,0
504.21057,504.4189,60,56,0
504.21057,504.4189,67,56,0
504.48834,504.69415,53,61,0
504.76193,504.96463,59,44,0
504.76193,504.96463,67,44,0
505.0318,505.2317,50,48,0
505.29767,505.49603,65,52,0
505.29767,505.49603,67,52,0
505.56238,505.7647,60,58,0
505.56238,505.7647,63,58,0
505.56238,505.7647,67,58,0
505.83713,506.18533,68,62,0
505.83713,506.18533,65,62,0
505.83713,506.18533,58,62,0
506.24503,506.57568,63,47,0
506.61823,506.84433,67,36,0
506.61823,506.84433,70,36,0
506.91693,507.15576,55,47,0
507.1918,507.3915,67,38,0
507.1918,507.3915,70,38,0
507.4573,507.6837,58,47,0
507.71817,507.91214,68,35,0
507.71817,507.91214,70,35,0
507.97678,508.20093,63,47,0
508.2354,508.42938,68,35,0
508.2354,508.42938,70,35,0
508.49402,508.688,67,37,0
508.49402,508.688,70,37,0
508.75266,508.94662,65,40,0
508.75266,508.94662,70,40,0
509.01126,509.20523,63,43,0
509.01126,509.20523,70,43,0
509.2699,509.46387,51,47,0
509.5285,509.72247,60,49,0
509.78714,509.9811,63,41,0
509.78714,509.9811,68,41,0
510.04575,510.23972,60,46,0
510.30438,510.5008,63,38,0
510.30438,510.5008,68,38,0
510.56717,510.76666,58,49,0
510.83426,511.04047,63,41,0
510.83426,511.04047,70,41,0
511.1099,511.31656,56,49,0
511.38434,511.58563,62,52,0
511.38434,511.58563,70,52,0
511.6526,511.8523,53,62,0
511.9181,512.1155,68,66,0
511.9181,512.1155,70,66,0
512.1805,512.37445,63,70,0
512.1805,512.37445,67,70,0
512.1805,512.37445,70,70,0
512.43915,512.65717,70,74,0
512.43915,512.65717,67,74,0
512.43915,512.65717,60,74,0
512.6902,512.87366,65,77,0
512.6902,512.87366,68,77,0
512.9338,513.11194,58,76,0
512.9338,513.11194,60,76,0
513.17096,513.3466,60,82,0
513.17096,513.3466,56,82,0
513.4047,513.5784,52,88,0
513.4047,513.5784,55,88,0
513.4047,513.5784,60,88,0
513.6361,513.8085,53,90,0
513.6361,513.8085,56,90,0
513.6361,513.8085,60,90,0
513.8657,514.03546,52,95,0
513.8657,514.03546,58,95,0
513.8657,514.03546,60,95,0
514.09186,514.54156,56,101,0
514.09186,514.54156,60,101,0
515.4304,515.54156,44,125,0
515.54156,515.65265,48,113,0
515.65265,515.7638,53,118,0
515.7638,515.8749,56,121,0
515.8749,515.986,53,123,0
515.986,516.0971,48,115,0
516.0971,516.20825,44,120,0
516.20825,516.31934,41,125,0
516.31934,516.54156,44,127,0
516.7638,516.9472,43,77,0
517.0074,517.1855,60,76,0
517.0074,517.1855,56,76,0
517.2445,517.42017,60,82,0
517.2445,517.42017,55,82,0
517.4783,517.652,48,88,0
517.4783,517.652,44,88,0
517.70966,517.882,48,90,0
517.70966,517.882,43,90,0
517.9393,518.109,60,95,0
517.9393,518.109,56,95,0
517.9393,518.109,62,95,0
518.1654,518.6151,55,101,0
518.1654,518.6151,60,101,0
518.1654,518.6151,63,101,0
519.504,519.6151,43,125,0
519.6151,519.72626,55,113,0
519.72626,519.83734,51,118,0
519.83734,519.9484,48,121,0
519.9484,520.0596,43,123,0
520.0596,520.17065,39,115,0
520.17065,520.28345,36,120,0
520.28345,520.39795,31,125,0
520.39795,520.62994,43,127,0
520.8643,521.041,42,116,0
520.8643,521.041,30,116,0
521.8228,522.1924,54,110,0
521.8228,522.1924,60,110,0
521.8228,522.1924,63,110,0
522.31805,522.5102,30,117,0
522.5749,522.77167,50,78,0
522.5749,522.77167,48,78,0
522.5749,522.77167,42,78,0
522.838,523.04016,50,68,0
522.838,523.04016,48,68,0
522.838,523.04016,42,68,0
523.10834,523.31647,50,57,0
523.10834,523.31647,48,57,0
523.10834,523.31647,42,57,0
523.38654,523.8138,42,63,0
523.38654,523.8138,48,63,0
523.38654,523.8138,51,63,0
524.37964,524.614,43,44,0
524.6872,524.8995,43,49,0
524.9702,525.1825,43,52,0
525.25323,525.4952,43,57,0
525.5758,525.7371,31,36,0
525.8984,526.18677,36,43,0
526.2608,526.55304,47,39,0
526.55304,526.78046,48,36,0
526.8361,527.0583,48,36,0
526.8361,527.0583,43,36,0
527.1139,527.3361,48,38,0
527.1139,527.3361,41,38,0
527.39166,527.6139,48,42,0
527.39166,527.6139,40,42,0
527.66943,527.94385,48,44,0
527.66943,527.94385,41,44,0
527.94385,528.21576,48,44,0
527.94385,528.21576,40,44,0
528.21576,528.4828,48,48,0
528.21576,528.4828,41,48,0
528.4828,528.7467,48,45,0
528.4828,528.7467,43,45,0
528.7467,529.00726,48,42,0
528.7467,529.00726,44,42,0
529.00726,529.26404,48,40,0
529.00726,529.26404,47,40,0
529.26404,529.52045,48,46,0
529.52045,529.77686,50,43,0
529.52045,529.77686,48,43,0
529.77686,530.03326,52,40,0
529.77686,530.03326,48,40,0
530.03326,530.2897,53,38,0
530.03326,530.2897,48,38,0
530.2897,530.5134,52,49,0
530.2897,530.5134,48,49,0
530.5479,530.8084,56,54,0
530.5479,530.8084,48,54,0
530.8084,531.0693,47,54,0
531.0693,531.3348,49,42,0
531.3348,531.6002,50,44,0
531.6002,531.8705,42,48,0
530.8084,531.8705,55,54,0
531.8705,532.4193,43,50,0
532.4193,532.65125,48,34,0
531.8705,532.698,55,50,0
532.698,532.97833,47,39,0
532.97833,533.20337,48,36,0
533.2605,533.4827,48,30,0
533.2605,533.4827,43,30,0
533.53827,533.7605,48,30,0
533.53827,533.7605,41,30,0
533.81604,534.03827,48,32,0
533.81604,534.03827,40,32,0
534.0938,534.3682,48,39,0
534.0938,534.3682,41,39,0
534.3682,534.64014,48,33,0
534.3682,534.64014,43,33,0
534.64014,534.9072,48,43,0
534.64014,534.9072,44,43,0
534.9072,535.17114,48,38,0
534.9072,535.17114,43,38,0
535.17114,535.43164,48,37,0
535.17114,535.43164,44,37,0
535.43164,535.6884,48,33,0
535.43164,535.6884,47,33,0
535.6884,535.9448,48,39,0
535.9448,536.20123,36,44,0
536.20123,536.45764,40,46,0
536.20123,536.45764,36,46,0
536.45764,536.71405,41,50,0
536.45764,536.71405,36,50,0
536.71405,536.937,40,51,0
536.71405,536.937,36,51,0
536.9712,537.22906,44,54,0
536.9712,537.22906,36,54,0
537.22906,537.48846,35,52,0
537.48846,537.7493,37,61,0
537.7493,538.0102,38,50,0
538.0102,538.2726,30,67,0
537.22906,538.2726,43,52,0
538.2726,538.8028,31,55,0
538.2726,538.8028,43,55,0
538.8028,539.02405,36,35,0
539.0683,539.33374,42,38,0
539.33374,539.59924,43,41,0
539.59924,539.86633,47,43,0
539.86633,540.13416,48,44,0
540.6715,540.9418,49,36,0
540.9418,541.21204,50,36,0
541.21204,541.4823,42,38,0
541.4823,542.0269,55,39,0
541.4823,542.0269,43,39,0
542.0269,542.2542,48,36,0
542.0269,542.2542,55,36,0
542.2997,542.5724,42,39,0
542.5724,543.11786,43,41,0
543.11786,543.6654,55,43,0
543.11786,543.6654,43,43,0
543.6654,543.8947,48,35,0
543.6654,543.8947,55,35,0
543.9406,544.21625,42,36,0
544.21625,544.77185,43,41,0
544.77185,545.3274,55,45,0
544.77185,545.3274,43,45,0
545.3274,545.55884,48,39,0
545.3274,545.55884,55,39,0
545.60516,545.88293,42,39,0
545.88293,546.46625,43,34,0
545.88293,546.46625,55,34,0
546.46625,546.71625,55,34,0
546.46625,546.71625,48,34,0
546.7667,547.0744,42,39,0
547.0744,547.7078,43,44,0
547.0744,547.7078,55,44,0
547.7078,547.98254,55,36,0
547.7078,547.98254,48,36,0
548.0381,548.3885,42,74,0
548.3885,549.1177,50,93,0
548.3885,549.1177,53,93,0
548.3885,549.1177,59,93,0
548.3885,549.1177,55,93,0
548.3885,549.1177,43,93,0
553.2556,553.49,36,49,0
553.49,553.72253,35,51,0
553.72253,554.1877,36,54,0
554.1877,554.4202,37,57,0
554.4202,554.6555,36,58,0
554.6555,555.1414,37,59,0
555.1414,555.39215,36,56,0
555.39215,555.6471,34,52,0
555.6471,555.90424,32,50,0
556.03357,556.12836,31,51,0
556.16284,556.4237,31,58,0
556.4237,556.68463,32,49,0
556.68463,557.59766,29,37,0
557.7277,557.9852,41,39,0
557.9852,558.2384,40,42,0
558.2384,558.73157,41,38,0
558.73157,558.9739,44,46,0
558.9739,559.21387,43,49,0
559.21387,559.68726,44,52,0
559.68726,559.9289,43,47,0
559.9289,560.1772,41,43,0
560.1772,560.4362,39,38,0
560.4362,560.7049,38,33,0
560.7049,560.9393,60,32,0
560.7049,560.9393,72,32,0
560.9393,561.1718,59,33,0
560.9393,561.1718,71,33,0
561.1718,561.63696,60,35,0
561.1718,561.63696,72,35,0
561.63696,561.8695,61,39,0
561.63696,561.8695,73,39,0
561.8695,562.1048,60,39,0
561.8695,562.1048,72,39,0
562.1048,562.5907,61,40,0
562.1048,562.5907,73,40,0
562.5907,562.84143,60,38,0
562.5907,562.84143,72,38,0
562.84143,563.0964,58,34,0
562.84143,563.0964,70,34,0
563.0964,563.3535,56,34,0
563.0964,563.3535,68,34,0
563.48285,563.5777,55,34,0
563.48285,563.5777,67,34,0
563.6122,563.87305,55,36,0
563.6122,563.87305,67,36,0
563.87305,564.1339,56,32,0
563.87305,564.1339,68,32,0
564.1339,565.04694,53,29,0
564.1339,565.04694,65,29,0
565.177,565.4345,65,33,0
565.177,565.4345,77,33,0
565.4345,565.6877,64,36,0
565.4345,565.6877,76,36,0
565.6877,566.1809,65,38,0
565.6877,566.1809,77,38,0
566.1809,566.42316,68,40,0
566.1809,566.42316,80,40,0
566.42316,566.66315,67,40,0
566.42316,566.66315,79,40,0
566.66315,567.1344,68,42,0
566.66315,567.1344,80,42,0
567.1344,567.36694,67,45,0
567.1344,567.36694,79,45,0
567.36694,567.6004,65,50,0
567.36694,567.6004,77,50,0
567.6004,567.8351,63,46,0
567.6004,567.8351,75,46,0
567.8351,568.07166,62,41,0
567.8351,568.07166,74,41,0
568.07166,568.4288,72,38,0
568.07166,568.4288,60,38,0
568.54785,569.02844,68,43,0
568.54785,569.02844,56,43,0
569.02844,569.27203,67,41,0
569.02844,569.27203,55,41,0
569.27203,569.5159,65,39,0
569.27203,569.5159,53,39,0
569.5159,569.76086,63,38,0
569.5159,569.76086,51,38,0
569.76086,570.0071,62,36,0
569.76086,570.0071,50,36,0
570.0071,570.3804,60,35,0
570.0071,570.3804,48,35,0
570.50574,571.00995,80,67,0
570.50574,571.00995,68,67,0
571.00995,571.2638,79,61,0
571.00995,571.2638,67,61,0
571.2638,571.5195,77,54,0
571.2638,571.5195,65,54,0
571.5195,571.7759,75,54,0
571.5195,571.7759,63,54,0
571.7759,572.033,74,57,0
571.7759,572.033,62,57,0
572.033,572.4263,72,61,0
572.033,572.4263,60,61,0
572.5598,573.1117,92,103,0
572.5598,573.1117,80,103,0
573.1117,573.3947,91,95,0
573.1117,573.3947,79,95,0
573.3947,573.6855,89,92,0
573.3947,573.6855,77,92,0
573.6855,573.98206,87,85,0
573.6855,573.98206,75,85,0
573.98206,574.3228,86,81,0
573.98206,574.3228,74,81,0
574.3228,574.488,84,76,0
574.488,574.6252,72,79,0
574.6252,574.75793,83,78,0
574.75793,574.88727,71,76,0
574.88727,575.0137,80,75,0
575.0137,575.13794,68,74,0
575.13794,575.26025,79,71,0
575.26025,575.3822,67,69,0
575.3822,575.5035,77,68,0
575.5035,575.62384,65,67,0
575.62384,575.74316,75,65,0
575.74316,575.86096,63,64,0
575.86096,575.97815,74,63,0
575.97815,576.09534,62,62,0
576.09534,576.2122,72,61,0
576.2122,576.32855,60,61,0
576.32855,576.4436,71,60,0
576.4436,576.5581,59,59,0
576.5581,576.6726,68,59,0
576.6726,576.7871,56,59,0
576.7871,576.90314,67,57,0
576.90314,577.02094,55,55,0
577.02094,577.14056,66,54,0
577.14056,577.2612,54,53,0
577.2612,577.3825,65,53,0
577.3825,577.50446,53,51,0
577.50446,577.6268,63,49,0
577.6268,577.7497,51,48,0
577.7497,577.874,62,47,0
577.874,577.99976,50,45,0
577.99976,578.12616,60,44,0
578.12616,578.25433,48,43,0
578.25433,578.38403,59,42,0
578.38403,578.51447,47,41,0
578.51447,578.64606,62,40,0
578.64606,578.7788,50,40,0
578.92206,579.0409,38,47,0
579.07056,579.1894,39,49,0
578.7788,579.1894,60,45,0
578.7788,579.1894,48,45,0
579.21906,579.3676,41,52,0
579.3676,579.5916,43,55,0
579.6666,579.8916,42,51,0
579.9666,580.69403,43,67,0
580.72565,580.8519,36,42,0
580.88354,581.0098,39,44,0
581.0414,581.1677,41,46,0
581.1993,581.43616,43,48,0
581.5151,581.75195,42,40,0
581.8309,582.59796,43,61,0
582.6329,582.776,36,34,0
582.81213,582.96136,39,36,0
582.9989,583.15063,41,38,0
583.1896,583.48834,43,40,0
583.59064,583.90704,42,32,0
584.0152,585.08435,43,47,0
585.1305,585.3168,41,34,0
585.36365,585.55115,39,36,0
585.598,585.78784,38,38,0
585.8362,586.2187,36,39,0
586.35504,586.7919,35,39,0
586.94495,587.4309,36,36,0
587.6014,588.1362,35,33,0
588.32697,589.4625,36,31,0
589.9873,591.057,72,32,0
589.9873,591.057,63,32,0
589.9873,591.057,48,32,0
589.9873,591.057,60,32,0
589.9873,591.057,67,32,0
591.507,592.6804,72,37,0
591.507,592.6804,48,37,0
591.507,592.6804,60,37,0
591.507,592.6804,43,37,0
591.507,592.6804,67,37,0
591.507,592.6804,63,37,0
593.26105,595.866,72,39,0
593.26105,595.866,48,39,0
593.26105,595.866,60,39,0
593.26105,595.866,43,39,0
593.26105,595.866,67,39,0
593.26105,595.866,63,39,0
596.616,598.3607,72,34,0
596.616,598.3607,48,34,0
596.616,598.3607,60,34,0
596.616,598.3607,43,34,0
596.616,598.3607,67,34,0
596.616,598.3607,63,34,0
599.3777,602.4285,72,29,0
599.3777,602.4285,48,29,0
599.3777,602.4285,60,29,0
599.3777,602.4285,43,29,0
599.3777,602.4285,67,29,0
599.3777,602.4285,63,29,0
