start_time,end_time,note_value,velocity,instrument_program_number
0.0,1.640625,68,48,0
0.0,1.640625,60,48,0
1.875,2.34375,68,45,0
2.34375,2.8125,67,38,0
2.8125,3.28125,70,42,0
3.28125,3.75,67,38,0
1.875,3.75,61,45,0
3.75,5.158228,63,40,0
5.158228,5.269693,63,32,0
5.2856164,5.3973355,65,33,0
5.3973355,5.509259,67,35,0
5.509259,5.6214385,65,36,0
5.637464,6.486544,63,38,0
3.75,6.486544,68,40,0
6.618994,7.6053824,70,41,0
6.618994,7.6053824,63,41,0
7.6053824,8.56087,72,47,0
7.6053824,8.56087,63,47,0
8.56087,9.48735,72,40,0
8.56087,9.48735,70,40,0
8.56087,9.48735,60,40,0
9.48735,10.39784,72,35,0
9.48735,10.39784,68,35,0
9.48735,10.39784,60,35,0
10.39784,11.296042,73,43,0
10.39784,11.296042,70,43,0
10.39784,11.296042,65,43,0
11.296042,13.11299,72,49,0
11.296042,13.11299,68,49,0
11.296042,13.11299,63,49,0
13.11299,13.826328,70,32,0
13.11299,13.826328,67,32,0
13.11299,13.826328,63,32,0
14.068526,15.040491,71,43,0
15.040491,16.940777,72,39,0
15.040491,16.940777,64,39,0
16.940777,18.345095,68,37,0
16.940777,18.345095,65,37,0
18.345095,18.810452,67,33,0
18.345095,18.810452,63,33,0
18.810452,19.737333,67,41,0
18.810452,19.737333,63,41,0
19.737333,21.349665,62,36,0
19.737333,21.349665,65,36,0
21.578323,22.489258,65,35,0
21.578323,22.489258,62,35,0
22.489258,23.395603,63,43,0
22.489258,23.395603,67,43,0
23.395603,24.073088,68,47,0
24.073088,24.298313,72,53,0
23.395603,24.298313,63,47,0
24.298313,25.199213,63,53,0
24.298313,25.199213,70,53,0
25.199213,25.875114,74,44,0
25.875114,26.101473,77,34,0
25.199213,26.101473,68,44,0
26.101473,27.502377,75,33,0
27.502377,27.987823,74,35,0
26.101473,27.987823,67,33,0
27.987823,28.98676,73,36,0
28.98676,29.504663,72,32,0
29.504663,30.086472,70,31,0
27.987823,30.086472,67,36,0
30.086472,31.727097,68,29,0
30.086472,31.727097,63,29,0
31.961472,32.43022,68,32,0
32.43022,32.89897,67,27,0
32.89897,33.36772,70,34,0
33.36772,33.83647,67,27,0
31.961472,33.83647,63,32,0
33.83647,35.24272,63,35,0
35.24272,35.352097,63,26,0
35.36772,35.477097,65,26,0
35.477097,35.58647,67,26,0
35.58647,35.695847,65,27,0
35.71147,36.52397,63,28,0
33.83647,36.52397,68,35,0
36.64897,37.58647,70,32,0
36.64897,37.58647,63,32,0
37.58647,38.537678,72,38,0
37.58647,38.537678,63,38,0
38.537678,39.51628,72,51,0
38.537678,39.51628,70,51,0
38.537678,39.51628,60,51,0
39.51628,40.52436,72,60,0
39.51628,40.52436,68,60,0
39.51628,40.52436,60,60,0
40.52436,41.606102,72,70,0
40.52436,41.606102,68,70,0
40.52436,41.606102,66,70,0
41.606102,42.907906,73,78,0
41.606102,42.907906,68,78,0
41.606102,42.907906,65,78,0
42.907906,44.417572,73,64,0
42.907906,44.417572,69,64,0
42.907906,44.417572,66,64,0
44.417572,45.917572,73,56,0
44.417572,45.917572,68,56,0
44.417572,45.917572,65,56,0
46.717846,47.59913,72,34,0
46.717846,47.59913,68,34,0
46.717846,47.59913,63,34,0
47.59913,48.49534,72,36,0
48.49534,49.177166,70,35,0
49.177166,49.406994,69,31,0
49.406994,50.108204,72,38,0
50.108204,50.282303,70,38,0
47.59913,50.282303,61,36,0
47.59913,50.282303,67,36,0
50.345795,51.067234,70,35,0
50.345795,51.067234,67,35,0
50.345795,51.067234,61,35,0
51.067234,51.311005,68,31,0
51.067234,51.311005,60,31,0
51.311005,52.536648,68,29,0
51.311005,52.536648,60,29,0
52.77176,53.241978,63,33,0
52.77176,53.241978,75,33,0
53.241978,53.58597,77,28,0
53.241978,53.58597,65,28,0
53.71097,54.05472,79,32,0
53.71097,54.05472,67,32,0
54.17972,54.52347,80,38,0
54.17972,54.52347,68,38,0
54.64847,54.99222,82,41,0
54.64847,54.99222,75,41,0
54.64847,54.99222,67,41,0
54.64847,54.99222,70,41,0
55.11722,56.068428,84,45,0
55.11722,56.068428,75,45,0
55.11722,56.068428,72,45,0
56.068428,57.04703,84,47,0
56.068428,57.04703,76,47,0
56.068428,57.04703,72,47,0
56.068428,57.04703,82,47,0
57.04703,58.05511,84,60,0
57.04703,58.05511,77,60,0
57.04703,58.05511,72,60,0
57.04703,58.05511,80,60,0
58.05511,59.136852,84,78,0
58.05511,59.136852,72,78,0
58.05511,59.136852,78,78,0
58.05511,59.136852,80,78,0
59.136852,60.438656,85,96,0
59.136852,60.438656,73,96,0
59.136852,60.438656,77,96,0
59.136852,60.438656,80,96,0
60.438656,61.948322,85,76,0
60.438656,61.948322,73,76,0
60.438656,61.948322,78,76,0
60.438656,61.948322,81,76,0
61.948322,63.448322,85,47,0
61.948322,63.448322,73,47,0
61.948322,63.448322,77,47,0
61.948322,63.448322,80,47,0
64.2486,65.129875,72,43,0
64.2486,65.129875,68,43,0
64.2486,65.129875,63,43,0
65.129875,66.026085,72,36,0
66.026085,66.70792,70,35,0
66.70792,66.937744,69,31,0
66.937744,67.638954,72,38,0
67.638954,67.81306,70,38,0
65.129875,67.81306,61,36,0
65.129875,67.81306,67,36,0
67.87655,68.597984,70,35,0
67.87655,68.597984,67,35,0
67.87655,68.597984,61,35,0
68.597984,68.84176,68,31,0
68.597984,68.84176,60,31,0
68.84176,70.065414,68,29,0
68.84176,70.065414,60,29,0
71.74843,72.6926,56,45,0
72.6926,74.53414,64,52,0
74.53414,76.32664,63,47,0
76.32664,77.643524,68,59,0
77.860916,78.07831,69,49,0
78.07831,78.94204,68,48,0
78.94204,79.79316,64,52,0
78.94204,79.79316,76,52,0
79.79316,80.63291,75,60,0
79.79316,80.63291,63,60,0
80.63291,81.47227,72,48,0
80.63291,81.47227,60,48,0
81.47227,82.32477,68,55,0
81.47227,82.32477,56,55,0
82.32477,83.20208,63,59,0
82.32477,83.20208,51,59,0
83.20208,85.58065,64,53,0
83.20208,85.58065,52,53,0
86.07138,87.06698,64,40,0
86.07138,87.06698,52,40,0
87.06698,89.051025,57,32,0
87.06698,89.051025,69,32,0
89.051025,90.510284,56,36,0
89.051025,90.510284,68,36,0
90.75016,90.98851,57,44,0
90.75016,90.98851,69,44,0
90.98851,91.92969,56,44,0
90.98851,91.92969,68,44,0
91.92969,93.77452,54,37,0
91.92969,93.77452,66,37,0
93.77452,94.68224,55,51,0
93.77452,94.68224,67,51,0
94.68224,96.464966,52,62,0
94.68224,96.464966,64,62,0
96.464966,96.90399,63,57,0
97.12244,97.1949,64,62,0
97.1949,97.26716,63,64,0
97.26716,97.33941,61,64,0
97.33941,97.556175,63,64,0
96.464966,97.556175,51,57,0
97.77273,98.20294,59,68,0
97.77273,98.20294,71,68,0
98.20294,99.47742,59,74,0
98.20294,99.47742,71,74,0
99.75558,99.82483,71,92,0
99.82483,99.89408,73,96,0
99.89408,101.33041,62,100,0
99.89408,101.33041,74,100,0
101.535515,101.94912,62,62,0
101.535515,101.94912,74,62,0
101.94912,102.3695,61,56,0
101.94912,102.3695,73,56,0
102.3695,102.79584,57,50,0
102.3695,102.79584,69,50,0
102.79584,103.22525,56,45,0
102.79584,103.22525,68,45,0
103.22525,104.12156,54,40,0
103.22525,104.12156,66,40,0
104.12156,104.94095,59,37,0
104.12156,104.94095,71,37,0
105.088005,107.206474,64,34,0
108.15689,109.085014,52,39,0
108.15689,109.085014,64,39,0
109.085014,109.9962,66,52,0
109.085014,109.9962,54,52,0
110.67369,110.89847,67,56,0
110.67369,110.89847,55,56,0
110.89847,111.57101,66,63,0
110.89847,111.57101,54,63,0
111.794,112.46121,66,57,0
111.794,112.46121,54,57,0
112.683105,113.348785,66,59,0
112.683105,113.348785,54,59,0
113.348785,113.57068,67,58,0
113.348785,113.57068,55,58,0
113.57068,114.23636,69,61,0
113.57068,114.23636,57,61,0
114.23636,114.45825,71,66,0
114.23636,114.45825,59,66,0
114.45825,115.345825,72,70,0
114.45825,115.345825,60,70,0
115.345825,116.011505,66,69,0
115.345825,116.011505,54,69,0
116.23275,118.78043,66,84,0
116.23275,118.78043,54,84,0
118.78043,119.58746,71,104,0
118.78043,119.58746,59,104,0
119.58746,120.804474,64,120,0
119.58746,120.804474,76,120,0
121.005005,121.21978,52,79,0
121.005005,121.21978,64,79,0
122.90831,124.12532,64,119,0
122.90831,124.12532,76,119,0
124.32586,124.54063,52,79,0
124.32586,124.54063,64,79,0
126.22916,127.44617,66,119,0
126.22916,127.44617,78,119,0
127.646706,127.86148,54,79,0
127.646706,127.86148,66,79,0
159.28255,161.06206,44,47,0
159.28255,161.06206,68,48,0
159.28255,161.06206,60,48,0
161.30504,161.78555,68,45,0
161.78555,162.26251,67,38,0
162.26251,162.73769,70,42,0
162.73769,163.21187,67,38,0
161.30504,163.21187,44,37,0
161.30504,163.21187,61,45,0
163.21187,164.62256,48,39,0
163.21187,164.62256,63,40,0
164.62256,164.73402,63,32,0
164.74994,164.86166,65,33,0
164.86166,164.97359,67,35,0
164.97359,165.08577,65,36,0
164.62256,165.10179,49,38,0
165.10179,165.95087,48,34,0
165.10179,165.95087,63,38,0
163.21187,165.95087,68,40,0
166.08331,167.0697,70,41,0
166.08331,167.0697,63,41,0
166.08331,167.0697,43,47,0
167.0697,168.02519,72,47,0
167.0697,168.02519,63,47,0
167.0697,168.02519,44,51,0
168.02519,168.95168,72,34,0
168.02519,168.95168,43,42,0
168.02519,168.95168,60,34,0
168.02519,168.95168,70,34,0
168.95168,169.86217,72,36,0
168.95168,169.86217,41,47,0
168.95168,169.86217,60,36,0
168.95168,169.86217,68,36,0
169.86217,170.76036,73,43,0
169.86217,170.76036,49,56,0
169.86217,170.76036,65,43,0
169.86217,170.76036,70,43,0
170.76036,172.57732,72,49,0
170.76036,172.57732,68,49,0
170.76036,172.57732,63,49,0
170.76036,172.81268,51,60,0
172.57732,173.77715,63,32,0
172.57732,173.77715,67,32,0
172.57732,173.77715,70,32,0
174.02145,174.50482,71,43,0
174.50482,176.4051,55,44,0
174.50482,176.4051,72,39,0
174.50482,176.4051,64,39,0
176.4051,177.80942,68,37,0
176.4051,177.80942,65,37,0
177.80942,178.27478,67,33,0
177.80942,178.27478,63,33,0
176.4051,178.27478,56,39,0
178.27478,179.20166,67,41,0
178.27478,179.20166,63,41,0
178.27478,179.89491,56,54,0
179.20166,180.814,62,36,0
179.20166,180.814,65,36,0
181.04265,181.95358,65,35,0
181.04265,181.95358,62,35,0
180.12521,181.95358,46,38,0
181.95358,182.85992,46,45,0
181.95358,182.85992,63,43,0
181.95358,182.85992,67,43,0
182.85992,183.53741,68,47,0
183.53741,183.76263,72,53,0
182.85992,183.76263,46,47,0
182.85992,183.76263,63,47,0
183.76263,184.66354,46,52,0
183.76263,184.66354,63,53,0
183.76263,184.66354,70,53,0
184.66354,185.33945,74,44,0
185.33945,185.5658,77,34,0
184.66354,185.5658,46,40,0
184.66354,185.5658,68,44,0
185.5658,186.9667,75,33,0
187.20865,187.45215,74,35,0
185.5658,187.45215,39,32,0
185.5658,187.45215,67,33,0
187.45215,188.51596,73,36,0
188.51596,189.21124,72,32,0
189.21124,189.74193,70,31,0
187.45215,189.74193,67,36,0
190.24193,191.88255,80,29,0
190.24193,191.88255,75,29,0
190.24193,191.88255,68,31,0
192.11693,192.58568,80,32,0
192.11693,192.58568,68,32,0
192.58568,193.05443,79,27,0
192.58568,193.05443,67,27,0
193.05443,193.52318,82,34,0
193.05443,193.52318,70,34,0
193.52318,193.99193,79,27,0
193.52318,193.99193,67,27,0
192.11693,193.99193,75,32,0
193.99193,195.39818,75,35,0
195.39818,195.50755,75,26,0
195.52318,195.63255,77,26,0
195.63255,195.74193,79,26,0
195.74193,195.8513,77,27,0
195.86693,196.67943,75,28,0
193.99193,196.67943,80,35,0
193.99193,196.67943,68,35,0
193.99193,196.67943,63,35,0
196.80443,197.74193,82,32,0
196.80443,197.74193,75,32,0
196.80443,197.74193,70,32,0
197.74193,198.69313,84,38,0
197.74193,198.69313,75,38,0
197.74193,198.69313,72,38,0
198.69313,199.67174,84,51,0
198.69313,199.67174,76,51,0
198.69313,199.67174,72,51,0
198.69313,199.67174,82,51,0
199.67174,200.67982,84,60,0
199.67174,200.67982,77,60,0
199.67174,200.67982,72,60,0
199.67174,200.67982,80,60,0
200.67982,201.76157,84,70,0
200.67982,201.76157,72,70,0
200.67982,201.76157,78,70,0
200.67982,201.76157,80,70,0
201.76157,203.06337,85,78,0
201.76157,203.06337,73,78,0
201.76157,203.06337,77,78,0
201.76157,203.06337,80,78,0
203.06337,204.57303,85,64,0
203.06337,204.57303,73,64,0
203.06337,204.57303,78,64,0
203.06337,204.57303,81,64,0
204.57303,206.07303,85,56,0
204.57303,206.07303,73,56,0
204.57303,206.07303,77,56,0
204.57303,206.07303,80,56,0
206.8733,207.95088,57,36,0
206.8733,207.95088,54,36,0
206.8733,207.95088,61,36,0
207.95088,209.24106,62,42,0
207.95088,209.24106,57,42,0
207.95088,209.24106,54,42,0
209.24106,210.75504,62,36,0
209.24106,210.75504,58,36,0
209.24106,210.75504,55,36,0
210.75504,212.23122,62,31,0
210.75504,212.23122,57,31,0
210.75504,212.23122,54,31,0
213.06679,213.94798,73,34,0
213.06679,213.94798,69,34,0
213.06679,213.94798,64,34,0
213.94798,214.84396,73,36,0
214.84396,215.52557,71,35,0
215.52557,215.75526,70,31,0
215.75526,216.45609,73,38,0
216.45609,216.63008,71,38,0
213.94798,216.63008,62,36,0
213.94798,216.63008,68,36,0
216.69357,217.4147,71,35,0
216.69357,217.4147,68,35,0
216.69357,217.4147,62,35,0
217.4147,217.65837,69,31,0
217.4147,217.65837,61,31,0
217.65837,218.88463,69,29,0
217.65837,218.88463,61,29,0
219.11974,219.58995,64,33,0
219.11974,219.58995,76,33,0
219.58995,219.93399,78,28,0
219.58995,219.93399,66,28,0
220.05899,220.40274,80,32,0
220.05899,220.40274,68,32,0
220.52774,220.87149,81,38,0
220.52774,220.87149,69,38,0
220.99649,221.34024,83,41,0
220.99649,221.34024,76,41,0
220.99649,221.34024,68,41,0
220.99649,221.34024,71,41,0
221.46524,222.41595,85,40,0
221.46524,222.41595,76,40,0
221.46524,222.41595,73,40,0
222.41595,223.39412,85,47,0
222.41595,223.39412,77,47,0
222.41595,223.39412,73,47,0
222.41595,223.39412,83,47,0
223.39412,224.40152,85,55,0
223.39412,224.40152,78,55,0
223.39412,224.40152,73,55,0
223.39412,224.40152,81,55,0
224.40152,225.48163,85,64,0
224.40152,225.48163,73,64,0
224.40152,225.48163,79,64,0
224.40152,225.48163,81,64,0
225.48163,226.77182,86,71,0
225.48163,226.77182,74,71,0
225.48163,226.77182,78,71,0
225.48163,226.77182,81,71,0
226.77182,228.2858,86,64,0
226.77182,228.2858,74,64,0
226.77182,228.2858,79,64,0
226.77182,228.2858,82,64,0
228.2858,229.76198,86,52,0
228.2858,229.76198,74,52,0
228.2858,229.76198,78,52,0
228.2858,229.76198,81,52,0
230.59753,231.47873,73,42,0
230.59753,231.47873,69,42,0
230.59753,231.47873,64,42,0
231.47873,232.37473,73,36,0
232.37473,233.05632,71,35,0
233.05632,233.28601,70,31,0
233.28601,233.98683,73,38,0
233.98683,234.16083,71,38,0
231.47873,234.16083,62,36,0
231.47873,234.16083,68,36,0
234.22432,234.94545,71,35,0
234.22432,234.94545,68,35,0
234.22432,234.94545,62,35,0
234.94545,235.18912,69,31,0
234.94545,235.18912,61,31,0
235.18912,236.41289,69,29,0
235.18912,236.41289,61,29,0
238.0962,239.04062,57,53,0
239.04062,240.8826,65,68,0
240.8826,242.67554,64,60,0
242.67554,243.99263,69,62,0
244.21007,244.42746,70,50,0
244.42746,245.29137,69,48,0
245.29137,246.14276,65,50,0
245.29137,246.14276,77,50,0
246.14276,246.98259,76,58,0
246.14276,246.98259,64,58,0
246.98259,247.82117,73,53,0
246.98259,247.82117,61,53,0
247.82117,248.66844,69,47,0
247.82117,248.66844,57,47,0
248.66844,249.5183,64,55,0
248.66844,249.5183,52,55,0
249.5183,251.61961,65,61,0
249.5183,251.61961,53,61,0
252.0357,252.86519,70,81,0
252.0357,252.86519,68,81,0
252.0357,252.86519,62,81,0
252.86519,253.14201,70,96,0
252.86519,253.14201,66,96,0
252.86519,253.14201,63,96,0
253.14201,253.41864,75,84,0
253.14201,253.41864,87,84,0
253.41864,253.69412,73,86,0
253.41864,253.69412,85,86,0
253.69412,253.96884,84,91,0
253.69412,253.96884,72,91,0
253.96884,254.24358,70,95,0
253.96884,254.24358,82,95,0
254.24358,254.5183,81,98,0
254.24358,254.5183,69,98,0
254.5183,254.79301,70,98,0
254.5183,254.79301,82,98,0
254.79301,255.06699,84,98,0
254.79301,255.06699,72,98,0
255.06699,255.34023,82,95,0
255.06699,255.34023,70,95,0
255.34023,255.6127,68,92,0
255.34023,255.6127,80,92,0
255.6127,255.88463,78,93,0
255.6127,255.88463,66,93,0
255.88463,256.1562,77,96,0
255.88463,256.1562,65,96,0
256.1562,256.42682,78,102,0
256.1562,256.42682,66,102,0
256.42682,256.6969,80,96,0
256.42682,256.6969,68,96,0
256.6969,256.96643,78,88,0
256.6969,256.96643,66,88,0
256.96643,257.2358,77,80,0
256.96643,257.2358,65,80,0
257.2358,257.5046,78,75,0
257.2358,257.5046,66,75,0
257.5046,257.77344,80,72,0
257.5046,257.77344,68,72,0
257.77344,258.04153,78,71,0
257.77344,258.04153,66,71,0
258.04153,258.30927,77,72,0
258.04153,258.30927,65,72,0
258.30927,258.57666,75,73,0
258.30927,258.57666,63,73,0
258.57666,258.8435,61,76,0
258.57666,258.8435,73,76,0
258.8435,259.11017,71,78,0
258.8435,259.11017,59,78,0
259.11017,259.37646,70,81,0
259.11017,259.37646,58,81,0
259.37646,259.64243,69,84,0
259.37646,259.64243,57,84,0
259.64243,259.90698,68,85,0
259.64243,259.90698,56,85,0
259.90698,260.17014,69,89,0
259.90698,260.17014,57,89,0
260.17014,260.4314,70,91,0
260.17014,260.4314,58,91,0
260.4314,260.69116,69,95,0
260.4314,260.69116,57,95,0
260.69116,260.9497,70,97,0
260.69116,260.9497,58,97,0
260.9497,261.20694,71,99,0
260.9497,261.20694,59,99,0
261.20694,261.46304,60,103,0
261.20694,261.46304,72,103,0
261.46304,261.7183,73,105,0
261.46304,261.7183,61,105,0
261.7183,261.97324,74,108,0
261.7183,261.97324,62,108,0
261.97324,262.2269,75,109,0
261.97324,262.2269,63,109,0
262.2269,262.4794,74,111,0
262.2269,262.4794,62,111,0
262.4794,262.73035,75,112,0
262.4794,262.73035,63,112,0
262.73035,262.98004,77,108,0
262.73035,262.98004,65,108,0
262.98004,263.2288,78,105,0
262.98004,263.2288,66,105,0
263.2288,263.47772,77,104,0
263.2288,263.47772,65,104,0
263.47772,263.72754,75,104,0
263.47772,263.72754,63,104,0
263.72754,263.97882,62,104,0
263.72754,263.97882,74,104,0
263.97882,264.232,75,104,0
263.97882,264.232,63,104,0
264.232,264.49344,65,106,0
264.232,264.49344,77,106,0
264.49344,264.7578,78,108,0
264.49344,264.7578,66,108,0
264.7578,265.02484,67,111,0
264.7578,265.02484,79,111,0
265.02484,265.2942,68,112,0
265.02484,265.2942,80,112,0
265.2942,265.56558,82,118,0
265.2942,265.56558,70,118,0
265.56558,267.1833,80,127,0
265.56558,267.1833,68,127,0
265.56558,267.1833,72,127,0
265.56558,267.1833,77,127,0
267.1833,268.75717,79,112,0
267.1833,268.75717,67,112,0
267.1833,268.75717,72,112,0
267.1833,268.75717,76,112,0
268.75717,269.91205,84,124,0
268.75717,269.91205,77,124,0
268.75717,269.91205,72,124,0
270.10287,270.29324,85,121,0
270.10287,270.29324,77,121,0
270.10287,270.29324,73,121,0
270.29324,270.8616,84,118,0
270.29324,270.8616,77,118,0
270.29324,270.8616,72,118,0
271.05005,271.80005,80,124,0
271.05005,271.80005,84,124,0
271.05005,271.80005,92,124,0
271.80005,272.39722,79,126,0
271.80005,272.39722,86,126,0
271.80005,272.39722,91,126,0
272.54645,273.14697,76,120,0
272.54645,273.14697,84,120,0
272.54645,273.14697,88,120,0
273.29803,273.90482,72,124,0
273.29803,273.90482,77,124,0
273.29803,273.90482,84,124,0
274.05673,274.73886,79,127,0
274.05673,274.73886,72,127,0
274.05673,274.73886,67,127,0
275.02182,276.7285,82,58,0
275.02182,276.7285,50,50,0
275.02182,276.7285,70,58,0
275.02182,276.7285,77,58,0
276.7285,277.87012,81,42,0
276.7285,277.87012,77,42,0
276.7285,277.87012,69,42,0
278.05905,278.24796,70,50,0
278.05905,278.24796,82,50,0
276.7285,278.24796,48,42,0
278.24796,279.00363,81,51,0
278.24796,279.00363,69,51,0
278.24796,279.7593,46,46,0
278.24796,280.13715,77,51,0
279.00363,280.13715,79,46,0
279.00363,280.13715,67,46,0
279.7593,280.51578,46,45,0
280.51578,281.29437,80,46,0
280.51578,281.29437,47,46,0
280.51578,281.29437,68,46,0
280.51578,281.29437,77,46,0
281.29437,282.86505,77,50,0
281.29437,282.86505,48,47,0
281.29437,282.86505,65,50,0
281.29437,282.86505,72,50,0
282.86505,283.45404,76,50,0
283.45404,283.5195,77,49,0
283.5195,283.58493,76,50,0
283.58493,283.6504,74,51,0
283.6504,284.04306,76,52,0
282.86505,284.04306,64,50,0
282.86505,284.04306,72,50,0
284.04306,284.43573,84,63,0
284.04306,284.43573,72,63,0
282.86505,284.43573,46,47,0
284.43573,286.0064,77,66,0
284.43573,286.0064,72,76,0
284.43573,286.0064,84,76,0
284.43573,286.0064,45,56,0
286.0064,287.5771,45,70,0
286.0064,287.5771,78,84,0
286.0064,287.97412,87,90,0
286.0064,287.97412,75,90,0
287.97412,288.3876,86,58,0
287.97412,288.3876,74,58,0
287.5771,288.3876,79,61,0
288.3876,288.8148,82,53,0
288.3876,288.8148,70,53,0
288.8148,289.25455,81,51,0
288.8148,289.25455,69,51,0
289.25455,290.19278,79,49,0
289.25455,290.19278,67,49,0
290.19278,291.16287,72,46,0
290.19278,291.16287,84,46,0
291.16287,292.85382,77,46,0
291.16287,292.85382,65,46,0
293.63324,294.40842,65,49,0
294.40842,295.55652,67,42,0
294.40842,295.55652,55,42,0
295.74542,295.93436,68,46,0
295.74542,295.93436,56,46,0
295.93436,296.68375,67,46,0
295.93436,296.68375,55,46,0
296.68375,297.30563,67,47,0
296.68375,297.30563,55,47,0
297.43002,297.98972,67,51,0
297.43002,297.98972,55,51,0
297.98972,298.17627,68,48,0
297.98972,298.17627,56,48,0
298.17627,298.73294,70,47,0
298.17627,298.73294,58,47,0
298.73294,298.9172,72,46,0
298.73294,298.9172,60,46,0
298.9172,299.65207,73,46,0
298.9172,299.65207,61,46,0
299.65207,300.25815,67,41,0
299.65207,300.25815,55,41,0
300.37805,302.5026,67,56,0
300.37805,302.5026,55,56,0
302.5026,303.19702,72,82,0
302.5026,303.19702,60,82,0
303.19702,304.41403,65,123,0
303.19702,304.41403,77,123,0
304.61456,304.82935,53,79,0
304.61456,304.82935,65,79,0
306.51788,307.7349,65,120,0
306.51788,307.7349,77,120,0
307.93542,308.1502,53,79,0
307.93542,308.1502,65,79,0
309.8387,311.05573,67,124,0
309.8387,311.05573,79,124,0
311.25626,311.47104,55,79,0
311.25626,311.47104,67,79,0
342.50858,343.5392,68,39,0
343.5392,343.65286,70,37,0
343.65286,343.76398,68,37,0
343.76398,343.8751,67,40,0
343.8751,343.98376,68,41,0
343.98376,344.88416,72,43,0
343.98376,344.88416,60,43,0
344.88416,345.25558,70,43,0
344.88416,345.25558,58,43,0
345.25558,346.93195,68,43,0
345.25558,346.93195,56,43,0
346.93195,348.9514,67,34,0
346.93195,348.9514,55,34,0
346.93195,348.9514,61,34,0
346.93195,348.9514,63,34,0
349.2078,350.836,75,43,0
349.0796,350.836,68,48,0
348.9514,350.836,60,37,0
351.1971,351.67358,68,41,0
351.67358,352.18204,67,38,0
352.18204,352.69052,70,42,0
351.30823,352.94476,75,34,0
352.69052,353.199,67,38,0
351.086,353.199,61,34,0
353.199,354.71317,63,40,0
354.95227,355.19238,65,33,0
355.19238,356.04147,63,38,0
353.199,356.04147,75,40,0
353.199,356.04147,68,40,0
356.17392,357.1603,63,41,0
356.17392,357.1603,75,41,0
356.17392,357.1603,70,51,0
357.1603,358.11578,63,47,0
357.1603,358.11578,75,47,0
357.1603,358.11578,72,57,0
358.11578,359.04227,70,42,0
358.11578,359.04227,72,52,0
358.11578,359.04227,76,42,0
358.11578,359.04227,64,42,0
359.04227,359.95276,68,48,0
359.04227,359.95276,72,58,0
359.04227,359.95276,65,48,0
359.04227,359.95276,77,48,0
360.15686,360.93054,80,52,0
360.0548,360.93054,73,57,0
359.95276,360.93054,65,48,0
360.93054,362.74747,68,47,0
360.93054,362.74747,72,57,0
362.74747,363.94012,67,38,0
360.93054,363.94012,63,47,0
360.93054,363.94012,75,47,0
362.74747,363.94012,70,48,0
364.19156,364.7601,71,43,0
364.7601,366.60724,64,37,0
364.7601,366.60724,72,47,0
364.7601,366.60724,55,37,0
364.7601,366.60724,76,37,0
366.60724,367.9756,65,37,0
366.60724,367.9756,68,47,0
368.20853,368.44095,63,33,0
366.60724,368.44095,56,37,0
366.60724,368.44095,77,37,0
368.20853,368.44095,67,43,0
368.44095,369.36783,63,41,0
368.44095,369.36783,67,51,0
369.36783,370.98016,62,36,0
368.44095,370.98016,56,41,0
368.44095,370.98016,70,41,0
369.36783,370.98016,65,42,0
371.20883,372.13123,62,35,0
371.20883,372.13123,65,45,0
371.20883,372.13123,56,35,0
371.20883,372.13123,70,35,0
372.13123,373.08392,63,43,0
372.13123,373.08392,67,53,0
372.13123,373.08392,55,43,0
372.13123,373.08392,70,43,0
373.08392,373.7669,68,55,0
373.7669,373.98645,72,53,0
373.08392,373.98645,63,47,0
373.08392,373.98645,75,47,0
373.08392,373.98645,56,47,0
373.98645,374.83862,63,53,0
373.98645,374.83862,70,58,0
373.98645,374.83862,55,53,0
373.98645,374.83862,75,53,0
374.96362,375.62985,74,54,0
374.83862,375.62985,53,44,0
375.62985,375.84723,50,34,0
375.08862,375.84723,82,50,0
374.83862,375.84723,68,44,0
375.62985,375.84723,77,40,0
376.09723,377.32388,82,48,0
377.32388,377.8002,79,35,0
375.97223,377.8002,75,50,0
375.84723,377.8002,67,48,0
377.8002,378.13217,77,36,0
378.13217,378.46832,75,38,0
378.46832,378.8242,74,40,0
378.8242,379.23157,73,42,0
379.23157,379.72476,72,38,0
379.72476,380.5462,70,32,0
380.5462,382.32587,68,26,0
382.58185,383.11078,68,25,0
383.11078,383.66223,67,20,0
383.66223,384.2137,70,28,0
384.2137,384.7652,67,22,0
384.7652,386.4196,63,29,0
386.4196,386.56213,63,23,0
386.5828,386.72742,64,24,0
386.72742,386.87204,66,26,0
386.87204,387.01666,64,26,0
387.03735,387.91977,63,28,0
384.7652,387.91977,68,29,0
388.05676,389.08417,70,32,0
388.05676,389.08417,63,32,0
389.08417,390.11154,63,32,0
389.08417,390.11154,71,32,0
390.11154,391.13895,69,35,0
390.11154,391.13895,71,35,0
390.11154,391.13895,63,35,0
391.13895,392.19727,64,40,0
391.13895,392.19727,71,40,0
391.13895,392.19727,68,40,0
392.19727,393.31833,65,46,0
392.19727,393.31833,67,46,0
392.19727,393.31833,71,46,0
393.31833,394.62012,72,51,0
393.31833,394.62012,67,51,0
393.31833,394.62012,64,51,0
394.62012,396.1298,72,45,0
394.62012,396.1298,65,45,0
394.62012,396.1298,68,45,0
396.1298,398.65067,72,36,0
396.1298,398.65067,67,36,0
396.1298,398.65067,64,36,0
399.40695,400.48453,80,36,0
399.40695,400.48453,84,36,0
400.48453,401.77472,85,42,0
400.48453,401.77472,80,42,0
400.48453,401.77472,77,42,0
401.77472,403.2887,85,36,0
401.77472,403.2887,81,36,0
401.77472,403.2887,78,36,0
403.2887,405.83365,85,31,0
403.2887,405.83365,80,31,0
403.2887,405.83365,77,31,0
406.65933,407.59088,57,45,0
406.65933,407.59088,54,45,0
406.65933,407.59088,61,45,0
407.59088,408.7367,62,60,0
407.59088,408.7367,57,60,0
407.59088,408.7367,54,60,0
408.7367,410.05405,62,50,0
408.7367,410.05405,58,50,0
408.7367,410.05405,55,50,0
410.05405,413.264,62,42,0
410.05405,413.264,57,42,0
410.05405,413.264,54,42,0
414.14636,415.0218,73,36,0
414.14636,415.0218,69,36,0
414.14636,415.0218,64,36,0
415.15646,416.16403,73,42,0
416.16403,416.95697,71,33,0
416.95697,417.2365,70,33,0
417.2365,418.43796,73,33,0
418.43796,419.80103,71,26,0
415.15646,419.80103,62,42,0
415.15646,419.80103,68,42,0
421.93338,422.6981,72,65,0
421.93338,422.6981,68,65,0
421.93338,422.6981,63,65,0
422.81573,423.67426,72,90,0
423.67426,424.2892,70,81,0
424.2892,424.4993,69,73,0
424.4993,425.1596,72,82,0
425.1596,425.32922,70,74,0
422.81573,425.32922,61,90,0
422.81573,425.32922,67,90,0
425.39133,426.11517,70,69,0
425.39133,426.11517,67,69,0
425.39133,426.11517,61,69,0
426.11517,426.35947,68,61,0
426.11517,426.35947,60,61,0
426.35947,427.3954,68,69,0
426.35947,427.3954,60,69,0
428.01694,429.6744,68,84,0
428.01694,429.6744,61,84,0
429.6744,430.78717,68,50,0
429.6744,430.78717,60,50,0
431.45526,431.75375,67,63,0
431.75375,432.05453,70,71,0
432.05453,432.36462,68,77,0
432.36462,432.6821,67,80,0
431.45526,432.6821,51,63,0
432.6821,432.99954,70,85,0
432.6821,432.99954,55,85,0
432.99954,433.31213,75,90,0
432.99954,433.41467,58,90,0
433.41467,435.2882,67,94,0
433.41467,435.2882,75,94,0
435.2882,435.5764,73,67,0
435.5764,435.86456,72,61,0
435.86456,436.15698,73,55,0
436.15698,436.44937,70,51,0
436.44937,436.76987,67,45,0
436.76987,437.74734,68,40,0
436.76987,437.74734,60,40,0
438.81375,440.03064,72,49,0
438.81375,440.03064,63,49,0
441.35287,446.75827,68,37,0
441.35287,446.75827,60,37,0
0.0,1.640625,51,47,0
0.0,1.640625,44,47,0
1.875,3.75,51,37,0
1.875,3.75,44,37,0
3.75,5.158228,48,39,0
5.158228,5.637464,49,38,0
5.637464,6.486544,48,34,0
3.75,6.486544,51,39,0
6.618994,7.6053824,43,37,0
6.618994,7.6053824,51,37,0
7.6053824,8.56087,51,41,0
7.6053824,8.56087,44,41,0
8.56087,9.48735,52,39,0
8.56087,9.48735,43,39,0
9.48735,10.39784,53,37,0
9.48735,10.39784,41,37,0
10.39784,11.296042,49,42,0
10.39784,11.296042,37,42,0
11.296042,13.826328,51,50,0
11.296042,13.826328,39,50,0
15.040491,16.940777,55,44,0
15.040491,16.940777,48,44,0
16.940777,18.345095,41,39,0
18.345095,18.578014,43,53,0
18.578014,18.810452,44,53,0
16.940777,18.810452,56,39,0
18.810452,21.349665,46,54,0
18.810452,21.349665,56,54,0
21.578323,22.489258,56,38,0
21.578323,22.489258,46,38,0
22.489258,23.395603,46,45,0
22.489258,23.395603,55,45,0
23.395603,24.073088,60,47,0
24.073088,24.298313,56,52,0
23.395603,24.298313,46,47,0
24.298313,25.199213,46,52,0
24.298313,25.199213,55,52,0
25.199213,25.875114,53,40,0
25.875114,26.101473,50,36,0
25.199213,26.101473,46,40,0
26.101473,27.987823,51,32,0
26.101473,27.987823,39,32,0
27.987823,29.504663,63,44,0
29.504663,30.086472,61,32,0
30.086472,31.727097,60,31,0
30.086472,31.727097,56,31,0
31.961472,33.83647,61,33,0
31.961472,33.83647,58,33,0
33.83647,35.24272,60,35,0
35.24272,35.71147,61,31,0
35.71147,36.52397,60,31,0
36.64897,37.58647,55,31,0
37.58647,38.537678,56,36,0
38.537678,39.51628,55,46,0
39.51628,40.52436,53,56,0
40.52436,41.606102,51,60,0
41.606102,42.907906,49,77,0
42.907906,44.417572,42,69,0
44.417572,45.917572,49,49,0
46.717846,47.59913,44,29,0
47.59913,50.282303,51,33,0
50.345795,51.067234,39,35,0
51.067234,51.311005,44,31,0
50.345795,51.311005,51,35,0
51.311005,52.536648,51,28,0
51.311005,52.536648,44,28,0
55.11722,56.068428,68,40,0
56.068428,57.04703,67,50,0
56.068428,57.04703,70,50,0
57.04703,58.05511,65,64,0
57.04703,58.05511,68,64,0
58.05511,59.136852,63,80,0
58.05511,59.136852,66,80,0
59.136852,60.438656,61,89,0
59.136852,60.438656,65,89,0
59.136852,60.438656,68,89,0
60.438656,61.948322,54,76,0
60.438656,61.948322,61,76,0
60.438656,61.948322,66,76,0
61.948322,63.448322,61,43,0
61.948322,63.448322,65,43,0
61.948322,63.448322,68,43,0
64.2486,65.129875,44,35,0
65.129875,67.81306,51,33,0
67.87655,68.597984,39,35,0
68.597984,68.84176,44,31,0
67.87655,68.84176,51,35,0
68.84176,70.065414,51,28,0
68.84176,70.065414,44,28,0
70.308136,70.79097,45,32,0
70.79097,71.27071,44,38,0
71.27071,71.74843,42,42,0
71.74843,72.22262,40,47,0
72.22262,72.56745,39,54,0
72.6926,73.15796,37,56,0
73.15796,73.6195,44,48,0
73.6195,74.07822,49,45,0
74.07822,74.53414,44,45,0
74.53414,74.98686,37,50,0
74.98686,75.43619,44,47,0
75.43619,75.883064,48,47,0
75.883064,76.32664,44,47,0
76.32664,76.767815,40,51,0
76.767815,77.20663,44,47,0
77.20663,77.643524,52,43,0
77.643524,78.07831,44,44,0
78.07831,78.51142,40,53,0
78.51142,78.94204,44,47,0
78.94204,79.370415,37,46,0
79.370415,79.79316,44,45,0
79.79316,80.213715,36,54,0
80.213715,80.63291,44,48,0
80.63291,81.0519,51,43,0
81.0519,81.47227,44,45,0
81.47227,81.8964,36,52,0
81.8964,82.32477,44,45,0
82.32477,82.75915,48,43,0
82.75915,83.20208,44,45,0
83.20208,83.657135,37,53,0
83.657135,84.13312,44,48,0
84.13312,84.61236,49,46,0
84.61236,85.09442,44,44,0
85.09442,85.58065,37,44,0
85.58065,86.07138,44,40,0
86.07138,86.56725,49,36,0
86.56725,87.06698,44,32,0
87.06698,87.56532,37,25,0
87.56532,88.06201,45,29,0
88.06201,88.5576,52,32,0
88.5576,89.051025,45,34,0
89.051025,89.54016,35,36,0
89.54016,90.0277,47,36,0
90.0277,90.510284,52,38,0
90.510284,90.98851,47,38,0
90.98851,91.45996,37,38,0
91.45996,91.92969,46,40,0
91.92969,92.39553,52,41,0
92.39553,92.85778,46,42,0
92.85778,93.31744,36,42,0
93.31744,93.77452,46,43,0
93.77452,94.229065,52,44,0
94.229065,94.68224,46,46,0
94.68224,95.13224,35,46,0
95.13224,95.57957,44,50,0
95.57957,96.02335,47,53,0
96.02335,96.464966,44,57,0
96.464966,96.90399,33,59,0
96.90399,97.33941,42,61,0
97.33941,97.77273,47,65,0
97.77273,98.20294,42,67,0
98.20294,98.631714,32,72,0
98.631714,99.056656,40,75,0
99.056656,99.47742,47,84,0
99.47742,99.89408,40,97,0
99.89408,100.30712,32,109,0
100.30712,100.71733,41,90,0
100.71733,101.126045,47,78,0
101.126045,101.535515,41,65,0
101.535515,101.94912,33,60,0
101.94912,102.3695,45,49,0
102.3695,102.79584,42,43,0
102.79584,103.22525,49,38,0
103.22525,103.66648,35,36,0
103.66648,104.12156,45,34,0
104.12156,104.587204,42,33,0
104.587204,105.088005,51,31,0
105.088005,105.41628,52,38,0
105.088005,105.41628,40,38,0
105.473755,105.71841,52,30,0
105.473755,105.71841,40,30,0
105.84831,106.08155,40,31,0
105.84831,106.08155,52,31,0
106.20611,106.42939,52,32,0
106.20611,106.42939,42,32,0
106.54746,106.76293,52,34,0
106.54746,106.76293,42,34,0
106.87807,107.09188,42,35,0
106.87807,107.09188,52,35,0
107.206474,107.47835,52,36,0
107.206474,107.47835,43,36,0
107.52597,107.731514,52,37,0
107.52597,107.731514,43,37,0
107.84193,108.046974,43,38,0
107.84193,108.046974,52,38,0
108.15689,108.35938,52,39,0
108.15689,108.35938,44,39,0
108.468414,108.670616,52,39,0
108.468414,108.670616,44,39,0
108.7785,108.97798,44,40,0
108.7785,108.97798,52,40,0
109.085014,109.344955,52,41,0
109.085014,109.344955,45,41,0
109.39082,109.58803,52,41,0
109.39082,109.58803,45,41,0
109.694084,109.890465,45,41,0
109.694084,109.890465,52,41,0
109.9962,110.19257,52,42,0
109.9962,110.19257,47,42,0
110.29809,110.49351,52,43,0
110.29809,110.49351,47,43,0
110.59862,110.79368,47,43,0
110.59862,110.79368,52,43,0
110.89847,111.152954,52,44,0
110.89847,111.152954,48,44,0
111.19787,111.39234,52,45,0
111.19787,111.39234,48,45,0
111.4966,111.69005,48,46,0
111.4966,111.69005,52,46,0
111.794,111.98688,52,46,0
111.794,111.98688,45,46,0
112.09074,112.283615,52,48,0
112.09074,112.283615,45,48,0
112.38725,112.57956,47,48,0
112.38725,112.57956,52,48,0
112.683105,112.934586,52,47,0
112.683105,112.934586,48,47,0
112.978966,113.17127,52,48,0
112.978966,113.17127,48,48,0
113.274826,113.46713,48,50,0
113.274826,113.46713,52,50,0
113.57068,113.762985,52,53,0
113.57068,113.762985,47,53,0
113.86654,114.058846,52,55,0
113.86654,114.058846,47,55,0
114.1624,114.354706,47,56,0
114.1624,114.354706,52,56,0
114.45825,114.70973,52,58,0
114.45825,114.70973,45,58,0
114.75411,114.94642,52,64,0
114.75411,114.94642,45,64,0
115.04997,115.24228,45,72,0
115.04997,115.24228,52,72,0
115.345825,115.53814,52,81,0
115.345825,115.53814,46,81,0
115.641685,115.83399,52,84,0
115.641685,115.83399,46,84,0
115.937546,116.1295,46,86,0
115.937546,116.1295,52,86,0
116.23275,116.481926,47,91,0
116.23275,116.481926,51,91,0
116.52579,116.71483,47,78,0
116.52579,116.71483,51,78,0
116.81628,117.00368,47,77,0
116.81628,117.00368,51,77,0
117.104256,117.290054,51,79,0
117.104256,117.290054,48,79,0
117.38977,117.57419,51,84,0
117.38977,117.57419,48,84,0
117.67306,117.85552,51,92,0
117.67306,117.85552,48,92,0
117.95356,118.19006,51,97,0
117.95356,118.19006,47,97,0
118.23173,118.41098,51,102,0
118.23173,118.41098,47,102,0
118.50721,118.68499,51,104,0
118.50721,118.68499,47,104,0
118.78043,118.95685,51,108,0
118.78043,118.95685,45,108,0
119.05144,119.22636,51,110,0
119.05144,119.22636,45,110,0
119.32026,119.49406,51,112,0
119.32026,119.49406,45,112,0
119.58746,119.8419,43,116,0
119.58746,119.8419,31,116,0
119.868645,120.10928,47,89,0
119.868645,120.10928,43,89,0
120.136024,120.37666,47,78,0
120.136024,120.37666,43,78,0
120.403404,120.64404,47,68,0
120.403404,120.64404,43,68,0
120.670784,120.91142,47,61,0
120.670784,120.91142,43,61,0
120.95153,121.1754,43,56,0
120.95153,121.1754,47,56,0
121.23457,121.45482,43,68,0
121.23457,121.50891,64,68,0
121.23457,121.50891,52,68,0
121.23457,121.50891,47,68,0
121.50891,121.685356,42,58,0
121.50891,121.685356,45,58,0
121.50891,121.726456,63,58,0
121.50891,121.726456,51,58,0
121.7814,121.96081,45,54,0
121.7814,121.96081,42,54,0
121.7814,122.002594,51,54,0
121.7814,122.002594,63,54,0
122.05846,122.24033,45,49,0
122.05846,122.24033,42,49,0
122.05846,122.283035,51,49,0
122.05846,122.283035,63,49,0
122.34038,122.52733,45,45,0
122.34038,122.52733,42,45,0
122.34038,122.57089,51,45,0
122.34038,122.57089,63,45,0
122.62929,122.820076,45,40,0
122.62929,122.820076,42,40,0
122.62929,122.86419,51,40,0
122.62929,122.86419,63,40,0
122.90831,123.16275,43,109,0
122.90831,123.16275,31,109,0
123.18949,123.43013,47,89,0
123.18949,123.43013,43,89,0
123.45687,123.69751,47,78,0
123.45687,123.69751,43,78,0
123.72425,123.96489,47,68,0
123.72425,123.96489,43,68,0
123.99163,124.23227,47,61,0
123.99163,124.23227,43,61,0
124.27238,124.496254,43,56,0
124.27238,124.496254,47,56,0
124.55542,124.77567,43,68,0
124.54063,124.81621,55,68,0
124.54063,124.81621,67,68,0
124.55542,124.82976,47,68,0
124.82976,125.00621,45,58,0
124.82976,125.00621,48,58,0
124.82976,125.0473,66,58,0
124.82976,125.0473,54,58,0
125.10225,125.281654,48,54,0
125.10225,125.281654,45,54,0
125.10225,125.32344,54,54,0
125.10225,125.32344,66,54,0
125.3793,125.56119,48,49,0
125.3793,125.56119,45,49,0
125.3793,125.60388,54,49,0
125.3793,125.60388,66,49,0
125.66123,125.848175,48,45,0
125.66123,125.848175,45,45,0
125.66123,125.89174,54,45,0
125.66123,125.89174,66,45,0
125.950134,126.14092,48,40,0
125.950134,126.14092,45,40,0
125.950134,126.18504,54,40,0
125.950134,126.18504,66,40,0
126.22916,126.483604,45,109,0
126.22916,126.483604,33,109,0
126.51034,126.750984,49,89,0
126.51034,126.750984,45,89,0
126.77772,127.018364,49,78,0
126.77772,127.018364,45,78,0
127.0451,127.28574,49,68,0
127.0451,127.28574,45,68,0
127.31248,127.55312,49,61,0
127.31248,127.55312,45,61,0
127.59323,127.8171,45,56,0
127.59323,127.8171,49,56,0
127.876274,128.09651,45,68,0
127.876274,128.1506,66,68,0
127.876274,128.1506,54,68,0
127.876274,128.1506,49,68,0
128.1506,128.32706,44,58,0
128.1506,128.32706,47,58,0
128.1506,128.36815,65,58,0
128.1506,128.36815,53,58,0
128.4231,128.60251,47,54,0
128.4231,128.60251,44,54,0
128.4231,128.64429,53,54,0
128.4231,128.64429,65,54,0
128.70015,128.88203,47,49,0
128.70015,128.88203,44,49,0
128.70015,128.92473,53,49,0
128.70015,128.92473,65,49,0
128.98209,129.16902,47,45,0
128.98209,129.16902,44,45,0
128.98209,129.21259,53,45,0
128.98209,129.21259,65,45,0
129.27098,129.46178,47,40,0
129.27098,129.46178,44,40,0
129.27098,129.50589,53,40,0
129.27098,129.50589,65,40,0
129.55,129.80446,45,109,0
129.55,129.80446,33,109,0
129.83119,130.07184,49,89,0
129.83119,130.07184,45,89,0
130.09857,130.33922,49,78,0
130.09857,130.33922,45,78,0
130.36595,130.6066,49,68,0
130.36595,130.6066,45,68,0
129.55,130.76701,66,112,0
129.55,130.76701,78,112,0
130.63333,130.87398,45,61,0
130.63333,130.87398,49,61,0
130.91408,131.13795,45,56,0
130.91408,131.13795,49,56,0
130.96756,131.18233,66,79,0
130.96756,131.18233,54,79,0
131.18233,131.40385,45,68,0
131.18233,131.45792,57,68,0
131.18233,131.45792,69,68,0
131.18233,131.45792,49,68,0
131.45792,131.63428,47,58,0
131.45792,131.63428,50,58,0
131.45792,131.67526,67,58,0
131.45792,131.67526,55,58,0
131.73021,131.9095,50,54,0
131.73021,131.9095,47,54,0
131.73021,131.95117,55,54,0
131.73021,131.95117,67,54,0
132.00703,132.18884,50,49,0
132.00703,132.18884,47,49,0
132.00703,132.23125,55,49,0
132.00703,132.23125,67,49,0
132.28856,132.47546,50,45,0
132.28856,132.47546,47,45,0
132.28856,132.51886,67,45,0
132.28856,132.51886,55,45,0
132.57718,132.76791,50,40,0
132.57718,132.76791,47,40,0
132.57718,132.81212,67,40,0
132.57718,132.81212,55,40,0
132.87129,133.16649,46,40,0
132.87129,133.16649,55,40,0
132.87129,133.16649,67,40,0
132.87129,133.16649,50,40,0
133.16649,133.45975,46,40,0
133.16649,133.45975,55,40,0
133.16649,133.45975,67,40,0
133.16649,133.45975,50,40,0
133.45975,133.75174,46,42,0
133.45975,133.75174,55,42,0
133.45975,133.75174,67,42,0
133.45975,133.75174,50,42,0
133.75174,134.03848,46,43,0
133.75174,134.03848,58,43,0
133.75174,134.03848,70,43,0
133.75174,134.03848,50,43,0
134.03848,134.32237,46,46,0
134.03848,134.32237,58,46,0
134.03848,134.32237,70,46,0
134.03848,134.32237,50,46,0
134.33649,134.61897,46,52,0
134.33649,134.61897,58,52,0
134.33649,134.61897,70,52,0
134.33649,134.61897,50,52,0
134.61897,134.90059,46,63,0
134.61897,134.90059,62,63,0
134.61897,134.90059,74,63,0
134.61897,134.90059,50,63,0
134.90059,135.18141,46,77,0
134.90059,135.18141,62,77,0
134.90059,135.18141,74,77,0
134.90059,135.18141,50,77,0
135.18141,135.4595,46,100,0
135.18141,135.4595,62,100,0
135.18141,135.4595,74,100,0
135.18141,135.4595,50,100,0
135.4595,135.73727,46,125,0
135.4595,135.73727,54,125,0
135.4595,135.73727,66,125,0
135.4595,135.73727,78,125,0
135.4595,135.73727,50,125,0
135.73727,136.01295,46,119,0
135.73727,136.01295,54,119,0
135.73727,136.01295,66,119,0
135.73727,136.01295,78,119,0
135.73727,136.01295,50,119,0
136.01295,136.28589,46,107,0
136.01295,136.28589,54,107,0
136.01295,136.28589,66,107,0
136.01295,136.28589,78,107,0
136.01295,136.28589,50,107,0
136.28589,136.55602,46,115,0
136.28589,136.55602,55,115,0
136.28589,136.55602,67,115,0
136.28589,136.55602,79,115,0
136.28589,136.55602,50,115,0
136.55602,136.82483,46,101,0
136.55602,136.82483,55,101,0
136.55602,136.82483,67,101,0
136.55602,136.82483,79,101,0
136.55602,136.82483,50,101,0
136.82483,137.09883,46,87,0
136.82483,137.09883,55,87,0
136.82483,137.09883,67,87,0
136.82483,137.09883,79,87,0
136.82483,137.09883,50,87,0
137.11264,137.39146,46,84,0
137.11264,137.39146,62,84,0
137.11264,137.39146,74,84,0
137.11264,137.39146,50,84,0
137.39146,137.67448,46,81,0
137.39146,137.67448,62,81,0
137.39146,137.67448,74,81,0
137.39146,137.67448,50,81,0
137.67448,137.96326,46,72,0
137.67448,137.96326,62,72,0
137.67448,137.96326,74,72,0
137.67448,137.96326,50,72,0
137.96326,138.25943,46,64,0
137.96326,138.25943,58,64,0
137.96326,138.25943,70,64,0
137.96326,138.25943,50,64,0
138.25943,138.56288,46,59,0
138.25943,138.56288,58,59,0
138.25943,138.56288,70,59,0
138.25943,138.56288,50,59,0
138.56288,138.87262,46,55,0
138.56288,138.87262,58,55,0
138.56288,138.87262,70,55,0
138.56288,138.87262,50,55,0
138.87262,139.18556,46,51,0
138.87262,139.18556,55,51,0
138.87262,139.18556,67,51,0
138.87262,139.18556,50,51,0
139.18556,139.49998,46,47,0
139.18556,139.49998,55,47,0
139.18556,139.49998,67,47,0
139.18556,139.49998,50,47,0
139.49998,139.84045,46,43,0
139.49998,139.84045,50,43,0
139.49998,139.84045,55,43,0
139.80473,139.84045,55,41,0
139.49998,139.84045,67,43,0
139.80473,139.84045,67,41,0
139.80473,140.14319,51,41,0
139.80473,140.14319,48,41,0
140.14319,140.46298,48,43,0
140.14319,140.46298,55,43,0
140.14319,140.46298,67,43,0
140.14319,140.46298,51,43,0
140.46298,140.75769,48,43,0
140.46298,140.75769,55,43,0
140.46298,140.75769,67,43,0
140.46298,140.75769,51,43,0
140.75769,141.04442,48,45,0
140.75769,141.04442,72,45,0
140.75769,141.04442,60,45,0
140.75769,141.04442,51,45,0
141.04442,141.32831,48,48,0
141.04442,141.32831,72,48,0
141.04442,141.32831,60,48,0
141.04442,141.32831,51,48,0
141.32831,141.6108,60,54,0
141.32831,141.6108,51,54,0
141.32831,141.6108,48,54,0
141.32831,141.6108,72,54,0
141.6108,141.89249,48,69,0
141.6108,141.89249,63,69,0
141.6108,141.89249,75,69,0
141.6108,141.89249,51,69,0
141.89249,142.17339,48,89,0
141.89249,142.17339,63,89,0
141.89249,142.17339,75,89,0
141.89249,142.17339,51,89,0
142.17339,142.45155,75,101,0
142.17339,142.45155,51,101,0
142.17339,142.45155,48,101,0
142.17339,142.45155,63,101,0
142.45155,142.72934,48,125,0
142.45155,142.72934,54,125,0
142.45155,142.72934,66,125,0
142.45155,142.72934,78,125,0
142.45155,142.72934,51,125,0
142.72934,143.0052,48,119,0
142.72934,143.0052,54,119,0
142.72934,143.0052,66,119,0
142.72934,143.0052,78,119,0
142.72934,143.0052,51,119,0
143.0052,143.27824,48,107,0
143.0052,143.27824,54,107,0
143.0052,143.27824,66,107,0
143.0052,143.27824,78,107,0
143.0052,143.27824,51,107,0
143.27824,143.54852,48,115,0
143.27824,143.54852,55,115,0
143.27824,143.54852,67,115,0
143.27824,143.54852,79,115,0
143.27824,143.54852,51,115,0
143.54852,143.81734,48,94,0
143.54852,143.81734,55,94,0
143.54852,143.81734,67,94,0
143.54852,143.81734,79,94,0
143.54852,143.81734,51,94,0
143.81734,144.09096,48,81,0
143.81734,144.09096,55,81,0
143.81734,144.09096,67,81,0
143.81734,144.09096,79,81,0
143.81734,144.09096,51,81,0
144.09096,144.36932,48,74,0
144.09096,144.36932,63,74,0
144.09096,144.36932,75,74,0
144.09096,144.36932,51,74,0
144.36932,144.65201,48,66,0
144.36932,144.65201,63,66,0
144.36932,144.65201,75,66,0
144.36932,144.65201,51,66,0
144.65201,144.94022,75,61,0
144.65201,144.94022,51,61,0
144.65201,144.94022,48,61,0
144.65201,144.94022,63,61,0
144.94022,145.23524,48,55,0
144.94022,145.23524,60,55,0
144.94022,145.23524,72,55,0
144.94022,145.23524,51,55,0
145.23524,145.53806,48,48,0
145.23524,145.53806,60,48,0
145.23524,145.53806,72,48,0
145.23524,145.53806,51,48,0
145.53806,145.84741,72,46,0
145.53806,145.84741,51,46,0
145.53806,145.84741,48,46,0
145.53806,145.84741,60,46,0
145.84741,146.16017,48,44,0
145.84741,146.16017,55,44,0
145.84741,146.16017,67,44,0
145.84741,146.16017,51,44,0
146.16017,146.47438,48,42,0
146.16017,146.47438,55,42,0
146.16017,146.47438,67,42,0
146.16017,146.47438,51,42,0
146.47438,146.82207,48,42,0
146.47438,146.82207,55,42,0
146.47438,146.82207,67,42,0
146.47438,146.82207,51,42,0
146.82207,147.18048,48,56,0
146.82207,147.18048,51,56,0
146.82207,147.18048,55,56,0
146.82207,147.18048,67,56,0
147.18048,147.42383,68,51,0
147.18048,147.42383,56,51,0
147.18048,147.50027,51,51,0
147.18048,147.50027,48,51,0
147.50027,147.79498,56,43,0
147.50027,147.79498,51,43,0
147.50027,147.79498,48,43,0
147.50027,147.79498,68,43,0
147.79498,148.08173,48,45,0
147.79498,148.08173,72,45,0
147.79498,148.08173,60,45,0
147.79498,148.08173,51,45,0
148.08173,148.36562,48,48,0
148.08173,148.36562,72,48,0
148.08173,148.36562,60,48,0
148.08173,148.36562,51,48,0
148.36562,148.6481,60,54,0
148.36562,148.6481,51,54,0
148.36562,148.6481,48,54,0
148.36562,148.6481,72,54,0
148.6481,148.9298,48,69,0
148.6481,148.9298,63,69,0
148.6481,148.9298,75,69,0
148.6481,148.9298,51,69,0
148.9298,149.2107,48,89,0
148.9298,149.2107,63,89,0
148.9298,149.2107,75,89,0
148.9298,149.2107,51,89,0
149.2107,149.48886,75,101,0
149.2107,149.48886,51,101,0
149.2107,149.48886,48,101,0
149.2107,149.48886,63,101,0
149.48886,149.76663,48,125,0
149.48886,149.76663,67,125,0
149.48886,149.76663,55,125,0
149.48886,149.76663,79,125,0
149.48886,149.76663,51,125,0
149.76663,150.0425,48,119,0
149.76663,150.0425,79,119,0
149.76663,150.0425,55,119,0
149.76663,150.0425,67,119,0
149.76663,150.0425,51,119,0
150.0425,150.31554,55,107,0
150.0425,150.31554,67,107,0
150.0425,150.31554,51,107,0
150.0425,150.31554,48,107,0
150.0425,150.31554,79,107,0
150.31554,150.58582,48,115,0
150.31554,150.58582,80,115,0
150.31554,150.58582,56,115,0
150.31554,150.58582,68,115,0
150.31554,150.58582,51,115,0
150.58582,150.85463,48,101,0
150.58582,150.85463,68,101,0
150.58582,150.85463,56,101,0
150.58582,150.85463,80,101,0
150.58582,150.85463,51,101,0
150.85463,151.12825,56,92,0
150.85463,151.12825,68,92,0
150.85463,151.12825,51,92,0
150.85463,151.12825,48,92,0
150.85463,151.12825,80,92,0
151.12825,151.40662,49,79,0
151.12825,151.40662,64,79,0
151.12825,151.40662,56,79,0
151.12825,151.40662,52,79,0
151.12825,151.40662,76,79,0
151.40662,151.68932,49,71,0
151.40662,151.68932,64,71,0
151.40662,151.68932,56,71,0
151.40662,151.68932,76,71,0
151.40662,151.68932,52,71,0
151.68932,151.97751,76,64,0
151.68932,151.97751,56,64,0
151.68932,151.97751,52,64,0
151.68932,151.97751,49,64,0
151.68932,151.97751,64,64,0
151.97751,152.27255,49,58,0
151.97751,152.27255,61,58,0
151.97751,152.27255,52,58,0
151.97751,152.27255,56,58,0
151.97751,152.27255,73,58,0
152.27255,152.57535,49,55,0
152.27255,152.57535,73,55,0
152.27255,152.57535,56,55,0
152.27255,152.57535,61,55,0
152.27255,152.57535,52,55,0
152.57535,152.88472,73,51,0
152.57535,152.88472,56,51,0
152.57535,152.88472,52,51,0
152.57535,152.88472,49,51,0
152.57535,152.88472,61,51,0
152.88472,153.19746,68,48,0
152.88472,153.19746,51,48,0
152.88472,153.19746,47,48,0
153.19746,153.51292,68,48,0
153.19746,153.51292,51,48,0
153.19746,153.51292,47,48,0
153.51292,153.83795,68,48,0
153.51292,153.83795,47,48,0
153.51292,153.83795,44,48,0
153.51292,153.83795,51,48,0
153.83795,154.1702,68,53,0
153.83795,154.1702,51,53,0
153.83795,154.1702,39,53,0
153.83795,154.1702,47,53,0
153.83795,154.1702,56,53,0
154.1702,154.50577,68,58,0
154.1702,154.50577,39,58,0
154.1702,154.50577,47,58,0
154.1702,154.50577,51,58,0
154.1702,154.50577,56,58,0
154.50577,154.85802,68,64,0
154.50577,154.85802,39,64,0
154.50577,154.85802,47,64,0
154.50577,154.85802,51,64,0
154.50577,154.85802,56,64,0
154.85802,155.2277,71,71,0
154.85802,155.2277,49,71,0
154.85802,155.2277,52,71,0
154.85802,155.2277,59,71,0
155.2277,155.6169,71,65,0
155.2277,155.6169,49,65,0
155.2277,155.6169,52,65,0
155.2277,155.6169,59,65,0
155.6169,156.02686,70,61,0
155.6169,156.02686,49,61,0
155.6169,156.02686,52,61,0
155.6169,156.02686,58,61,0
156.02686,156.45515,68,60,0
156.02686,156.45515,51,60,0
156.02686,156.45515,39,60,0
156.02686,156.45515,47,60,0
156.02686,156.45515,56,60,0
156.45515,156.91342,68,54,0
156.45515,156.91342,51,54,0
156.45515,156.91342,39,54,0
156.45515,156.91342,47,54,0
156.45515,156.91342,56,54,0
156.91342,157.40569,68,48,0
156.91342,157.40569,51,48,0
156.91342,157.40569,39,48,0
156.91342,157.40569,47,48,0
156.91342,157.40569,56,48,0
157.40569,157.96902,67,43,0
157.40569,157.96902,61,43,0
157.40569,157.96902,46,43,0
157.40569,157.96902,51,43,0
157.40569,157.96902,39,43,0
157.40569,157.96902,55,43,0
157.40569,157.96902,63,43,0
157.96902,158.60329,67,39,0
157.96902,158.60329,61,39,0
157.96902,158.60329,46,39,0
157.96902,158.60329,51,39,0
157.96902,158.60329,39,39,0
157.96902,158.60329,55,39,0
157.96902,158.60329,63,39,0
158.60329,159.28255,67,35,0
158.60329,159.28255,61,35,0
158.60329,159.28255,46,35,0
158.60329,159.28255,51,35,0
158.60329,159.28255,39,35,0
158.60329,159.28255,55,35,0
158.60329,159.28255,63,35,0
159.645,159.92099,51,35,0
159.98924,160.25847,51,42,0
160.32513,160.65462,50,42,0
160.65462,160.91574,51,41,0
160.99712,161.2565,51,34,0
161.64178,161.89728,51,38,0
161.96092,162.21489,51,43,0
162.27838,162.59529,53,49,0
162.59529,162.84845,51,39,0
162.91174,163.16455,51,36,0
163.5256,163.77638,51,33,0
163.83908,164.08932,51,37,0
164.15182,164.46432,56,39,0
164.46432,164.7181,51,35,0
164.78178,165.03769,51,31,0
165.10179,165.42593,51,31,0
165.42593,165.68716,53,31,0
165.75275,165.98398,51,34,0
166.08331,166.41609,51,42,0
166.41609,166.6786,53,38,0
166.74397,167.00478,51,32,0
167.39125,167.64655,51,32,0
167.71024,167.9623,51,37,0
168.02519,168.33769,53,41,0
168.33769,168.58432,52,37,0
168.64586,168.8907,52,36,0
168.95168,169.25655,55,36,0
169.25655,169.49971,53,41,0
169.5605,169.7718,53,41,0
169.86217,170.16156,57,41,0
170.16156,170.4011,60,38,0
170.46097,170.70049,58,34,0
171.05754,171.29494,56,45,0
171.35428,171.65369,55,37,0
171.65369,171.9581,56,33,0
171.9581,172.20435,60,33,0
172.26627,172.51501,61,38,0
172.57732,172.81268,63,42,0
172.8918,173.14636,51,43,0
173.21027,173.53285,50,43,0
173.53285,173.85858,51,40,0
173.85858,174.11885,53,37,0
174.18379,174.44072,49,31,0
174.82379,175.07826,48,35,0
175.14177,175.39574,48,42,0
175.45923,175.77518,47,42,0
175.77518,176.02754,48,41,0
176.09064,176.34221,48,34,0
176.71858,176.96858,41,34,0
177.03108,177.28079,40,36,0
177.3431,177.65414,41,39,0
177.65414,177.90259,43,40,0
177.96469,178.21286,44,41,0
178.27478,178.5689,48,41,0
178.58438,178.87758,46,38,0
178.89302,179.18623,45,37,0
179.20166,179.49487,46,35,0
179.5103,179.80261,48,32,0
179.818,180.10988,45,29,0
180.43196,180.72247,56,37,0
180.73778,181.0274,58,41,0
181.04265,181.3314,59,42,0
181.3466,181.63536,60,37,0
181.65056,181.93843,56,33,0
182.25615,182.55827,55,41,0
182.55827,182.78462,58,30,0
183.16113,183.46234,60,47,0
183.46234,183.68756,56,37,0
184.06294,184.36324,56,44,0
184.36324,184.58847,55,35,0
184.96384,185.26414,56,37,0
185.26414,185.49026,50,29,0
185.8693,186.17746,51,38,0
186.17746,186.489,55,33,0
186.489,186.80696,58,33,0
186.80696,187.12747,60,37,0
187.12747,187.45215,62,43,0
187.45215,189.21124,63,44,0
189.21124,189.74193,61,32,0
190.24193,191.88255,63,31,0
190.24193,191.88255,60,31,0
190.24193,191.88255,56,31,0
192.11693,193.99193,58,33,0
192.11693,193.99193,61,33,0
192.11693,193.99193,63,33,0
193.99193,195.39818,60,35,0
195.39818,195.86693,61,31,0
195.86693,196.67943,60,31,0
196.80443,197.74193,63,31,0
196.80443,197.74193,58,31,0
196.80443,197.74193,55,31,0
197.74193,198.69313,63,36,0
197.74193,198.69313,60,36,0
197.74193,198.69313,56,36,0
198.69313,199.67174,64,46,0
198.69313,199.67174,60,46,0
198.69313,199.67174,55,46,0
199.67174,200.67982,65,56,0
199.67174,200.67982,60,56,0
199.67174,200.67982,53,56,0
200.67982,201.76157,63,60,0
200.67982,201.76157,56,60,0
200.67982,201.76157,51,60,0
201.76157,203.06337,61,77,0
201.76157,203.06337,56,77,0
201.76157,203.06337,49,77,0
203.06337,204.57303,54,69,0
203.06337,204.57303,49,69,0
203.06337,204.57303,42,69,0
204.57303,206.07303,61,49,0
204.57303,206.07303,56,49,0
204.57303,206.07303,49,49,0
206.8733,207.67259,42,35,0
207.67259,207.95088,40,40,0
207.95088,209.24106,38,44,0
209.24106,210.75504,31,38,0
210.75504,212.23122,38,30,0
213.06679,213.94798,45,29,0
213.94798,216.63008,52,33,0
216.69357,217.4147,40,35,0
217.4147,217.65837,45,31,0
216.69357,217.65837,52,35,0
217.65837,218.88463,52,28,0
217.65837,218.88463,45,28,0
221.46524,222.41595,69,39,0
222.41595,223.39412,68,47,0
222.41595,223.39412,71,47,0
223.39412,224.40152,66,52,0
223.39412,224.40152,69,52,0
224.40152,225.48163,64,60,0
224.40152,225.48163,67,60,0
225.48163,226.77182,62,68,0
225.48163,226.77182,66,68,0
225.48163,226.77182,69,68,0
226.77182,228.2858,55,54,0
226.77182,228.2858,62,54,0
226.77182,228.2858,67,54,0
228.2858,229.76198,62,38,0
228.2858,229.76198,66,38,0
228.2858,229.76198,69,38,0
230.59753,231.47873,45,35,0
231.47873,234.16083,52,33,0
234.22432,234.94545,40,35,0
234.94545,235.18912,45,31,0
234.22432,235.18912,52,35,0
235.18912,236.41289,52,28,0
235.18912,236.41289,45,28,0
236.65561,237.13853,46,39,0
237.13853,237.6184,45,40,0
237.6184,238.0962,43,44,0
238.0962,238.5706,41,48,0
238.5706,238.91542,40,51,0
239.04062,239.28964,38,61,0
239.35176,239.59853,62,46,0
239.66006,239.90622,60,43,0
239.96776,240.21251,58,43,0
240.27367,240.51785,57,44,0
240.57864,240.82181,56,50,0
240.8826,241.12483,57,53,0
241.18507,241.42558,58,49,0
241.48547,241.72499,57,48,0
241.78487,242.0235,55,48,0
242.08302,242.32112,53,49,0
242.3803,242.61653,52,52,0
242.67554,242.91153,53,55,0
242.97017,243.20477,55,51,0
243.26343,243.49739,53,48,0
243.5557,243.78894,52,47,0
243.84724,244.07964,53,47,0
244.1376,244.36949,55,50,0
244.42746,244.65894,53,56,0
244.71657,244.94711,52,49,0
245.00475,245.23405,50,45,0
245.29137,245.52039,48,43,0
245.57736,245.80528,46,43,0
245.86162,246.08658,45,49,0
246.14276,246.36728,44,53,0
246.42331,246.6474,43,51,0
246.70326,246.92673,44,48,0
246.98259,247.20583,45,45,0
247.26154,247.48483,44,45,0
247.54086,247.76498,45,41,0
247.82117,248.04613,46,45,0
248.10246,248.32849,47,41,0
248.38515,248.61179,48,40,0
248.66844,248.89507,49,40,0
248.95172,249.17834,50,40,0
249.23502,249.46164,49,41,0
249.5183,249.74428,50,40,0
249.77254,249.99852,52,40,0
250.05502,250.28029,53,41,0
250.33647,250.56104,52,44,0
250.61705,250.84059,50,46,0
250.89635,251.11919,49,50,0
251.1749,251.39738,50,57,0
251.45294,251.67517,51,64,0
251.73073,251.9526,52,71,0
252.008,252.22961,53,77,0
252.31271,252.5337,54,84,0
252.58896,252.80995,53,96,0
252.86519,254.5183,54,102,0
252.86519,254.5183,42,102,0
254.5183,256.1562,53,96,0
254.5183,256.1562,41,96,0
256.1562,257.3702,58,100,0
256.1562,257.3702,46,100,0
257.57184,257.77344,59,89,0
257.57184,257.77344,47,89,0
257.77344,258.37613,58,88,0
257.77344,258.37613,46,88,0
258.57666,259.37646,54,117,0
259.37646,260.17014,53,112,0
260.17014,260.9497,50,104,0
260.9497,261.7183,46,112,0
261.7183,262.4794,41,120,0
262.4794,263.6024,42,124,0
263.79022,263.97882,41,102,0
263.97882,264.7578,39,106,0
264.7578,265.56558,36,114,0
264.7578,265.56558,40,114,0
265.56558,265.83862,41,117,0
265.56558,265.83862,29,117,0
265.83862,266.05576,53,101,0
265.83862,266.05576,65,101,0
266.1098,266.32602,51,107,0
266.1098,266.32602,63,107,0
266.38007,266.59583,61,109,0
266.38007,266.59583,49,109,0
266.64944,266.8633,48,117,0
266.64944,266.8633,60,117,0
266.91663,267.12997,59,121,0
266.91663,267.12997,47,121,0
267.1833,267.39618,48,122,0
267.1833,267.39618,60,122,0
267.4491,267.66034,61,122,0
267.4491,267.66034,49,122,0
267.7131,267.92343,60,121,0
267.7131,267.92343,48,121,0
267.97592,268.1853,46,117,0
267.97592,268.1853,58,117,0
268.23752,268.44568,56,115,0
268.23752,268.44568,44,115,0
268.49762,268.70538,55,115,0
268.49762,268.70538,43,115,0
268.75717,268.96405,56,119,0
268.75717,268.96405,44,119,0
269.0156,269.22125,58,119,0
269.0156,269.22125,46,119,0
269.27264,269.47827,56,117,0
269.27264,269.47827,44,117,0
269.52957,269.73392,55,112,0
269.52957,269.73392,43,112,0
269.78482,269.98837,56,104,0
269.78482,269.98837,44,104,0
270.03928,270.2425,58,96,0
270.03928,270.2425,46,96,0
270.29324,270.49622,56,96,0
270.29324,270.49622,44,96,0
270.54672,270.7484,55,97,0
270.54672,270.7484,43,97,0
270.79877,270.9998,53,98,0
270.79877,270.9998,41,98,0
271.05005,271.25034,39,100,0
271.05005,271.25034,51,100,0
271.30035,271.50034,37,102,0
271.30035,271.50034,49,102,0
271.55035,271.75015,48,105,0
271.55035,271.75015,36,105,0
271.80005,272.04895,47,126,0
271.80005,272.04895,35,126,0
272.04895,272.24796,46,108,0
272.04895,272.24796,34,108,0
272.2977,272.4967,47,109,0
272.2977,272.4967,35,109,0
272.54645,272.79584,48,124,0
272.54645,272.79584,36,124,0
272.79584,272.99622,47,112,0
272.79584,272.99622,35,112,0
273.04648,273.24765,48,115,0
273.04648,273.24765,36,115,0
273.29803,273.5515,49,127,0
273.29803,273.5515,37,127,0
273.5515,273.75366,38,116,0
273.5515,273.75366,50,116,0
273.80405,274.00574,51,116,0
273.80405,274.00574,39,116,0
274.05673,274.316,52,127,0
274.05673,274.316,40,127,0
274.316,274.54123,53,115,0
274.316,274.54123,41,115,0
274.60147,274.77432,52,110,0
274.60147,274.77432,40,110,0
275.3461,275.6454,53,43,0
275.6454,275.92538,58,46,0
275.92538,276.19696,53,50,0
276.19696,276.4658,58,47,0
276.4658,276.7285,53,41,0
276.98688,277.24118,53,38,0
277.24118,277.49307,60,41,0
277.49307,277.74417,53,46,0
277.74417,277.99606,60,49,0
277.9835,278.23538,53,47,0
278.49985,278.75174,53,42,0
278.75174,279.00363,62,48,0
279.00363,279.25552,53,42,0
279.25552,279.50742,62,38,0
279.50742,279.7593,53,35,0
280.0112,280.26306,53,49,0
280.26306,280.51578,62,46,0
280.77335,281.0326,53,44,0
281.0195,281.28128,62,36,0
281.55615,281.81793,57,40,0
281.81793,282.0797,60,44,0
282.0797,282.3415,57,47,0
282.3415,282.60327,60,44,0
282.60327,282.86505,57,38,0
283.12683,283.3886,55,40,0
283.3886,283.6504,60,46,0
283.6504,283.91217,55,50,0
283.91217,284.17395,60,45,0
284.16086,284.42264,55,43,0
284.6975,284.9593,53,45,0
284.9593,285.22107,60,51,0
285.22107,285.48285,53,53,0
285.48285,285.74463,60,49,0
285.74463,286.0064,53,43,0
286.2682,286.52997,54,43,0
286.52997,286.79175,63,48,0
286.79175,287.05353,54,49,0
287.05353,287.3153,63,49,0
287.3153,287.5771,54,45,0
287.8406,288.11035,55,39,0
288.11035,288.3876,58,42,0
288.3876,288.6707,55,45,0
288.6707,288.95886,58,48,0
287.5771,289.10507,46,44,0
288.95886,289.25455,62,51,0
289.25455,289.55927,48,53,0
289.55927,289.87225,55,51,0
289.87225,290.19278,58,45,0
290.19278,290.5172,55,39,0
290.5172,290.84854,58,34,0
290.84854,291.16287,64,30,0
291.16287,291.3888,41,29,0
291.3888,291.61026,53,28,0
291.61026,291.82745,41,28,0
291.82745,292.04053,53,28,0
292.04053,292.24963,43,28,0
292.24963,292.4559,53,28,0
292.4559,292.65662,43,28,0
292.65662,292.85382,53,28,0
292.85382,293.05014,44,28,0
293.05014,293.24564,53,28,0
293.24564,293.43942,44,28,0
293.43942,293.63324,53,28,0
293.63324,293.82703,45,28,0
293.82703,294.02084,53,28,0
294.02084,294.21463,45,28,0
294.21463,294.40842,53,27,0
294.40842,294.60223,46,27,0
294.60223,294.79602,53,28,0
294.79602,294.98734,46,29,0
294.98734,295.17868,53,31,0
295.17868,295.36758,48,31,0
295.36758,295.55652,53,32,0
295.55652,295.74542,48,33,0
295.74542,295.93436,53,34,0
295.93436,296.12326,49,35,0
296.12326,296.3106,53,36,0
296.3106,296.4972,49,37,0
296.4972,296.68375,53,38,0
296.68375,296.8703,46,39,0
296.8703,297.0569,53,39,0
297.0569,297.24344,48,40,0
297.24344,297.43002,53,42,0
297.43002,297.61658,49,42,0
297.61658,297.80316,53,43,0
297.80316,297.98972,49,43,0
297.98972,298.17627,53,41,0
298.17627,298.36285,48,41,0
298.36285,298.54865,53,38,0
298.54865,298.73294,48,38,0
298.73294,298.9172,53,37,0
298.9172,299.10147,46,36,0
299.10147,299.28577,53,36,0
299.28577,299.47003,46,34,0
299.47003,299.65207,53,34,0
299.65207,299.8341,47,34,0
299.8341,300.01614,53,34,0
300.01614,300.19818,47,34,0
300.19818,300.37805,53,34,0
300.37805,300.5579,48,34,0
300.5579,300.73776,52,35,0
300.73776,300.9162,48,41,0
300.9162,301.0939,52,45,0
301.0939,301.27164,49,48,0
301.27164,301.44937,52,48,0
301.44937,301.6264,49,50,0
301.6264,301.80203,52,58,0
301.80203,301.9777,48,62,0
301.9777,302.15332,52,71,0
302.15332,302.32898,48,81,0
302.32898,302.5026,52,85,0
302.5026,302.67618,46,91,0
302.67618,302.8498,52,96,0
302.8498,303.0234,46,99,0
303.0234,303.19702,52,103,0
303.19702,303.45148,44,109,0
303.19702,303.45148,32,109,0
303.4782,303.71884,48,89,0
303.4782,303.71884,44,89,0
303.74557,303.98624,48,78,0
303.74557,303.98624,44,78,0
304.01297,304.2536,48,68,0
304.01297,304.2536,44,68,0
304.28033,304.521,48,61,0
304.28033,304.521,44,61,0
304.5611,304.78497,44,56,0
304.5611,304.78497,48,56,0
304.84415,305.0644,44,68,0
304.84415,305.11847,65,68,0
304.84415,305.11847,53,68,0
304.84415,305.11847,48,68,0
305.11847,305.29492,43,58,0
305.11847,305.29492,46,58,0
305.11847,305.33603,64,58,0
305.11847,305.33603,52,58,0
305.39096,305.57037,46,54,0
305.39096,305.57037,43,54,0
305.39096,305.61215,52,54,0
305.39096,305.61215,64,54,0
305.66803,305.84988,46,49,0
305.66803,305.84988,43,49,0
305.66803,305.8926,52,49,0
305.66803,305.8926,64,49,0
305.94995,306.1369,46,45,0
305.94995,306.1369,43,45,0
305.94995,306.18045,52,45,0
305.94995,306.18045,64,45,0
306.23886,306.42963,46,40,0
306.23886,306.42963,43,40,0
306.23886,306.47375,52,40,0
306.23886,306.47375,64,40,0
306.51788,306.7723,44,109,0
306.51788,306.7723,32,109,0
306.79904,307.0397,48,89,0
306.79904,307.0397,44,89,0
307.06644,307.30707,48,78,0
307.06644,307.30707,44,78,0
307.3338,307.57446,48,68,0
307.3338,307.57446,44,68,0
307.6012,307.84183,48,61,0
307.6012,307.84183,44,61,0
307.86856,308.09103,44,56,0
307.86856,308.09103,48,56,0
308.1502,308.37173,44,68,0
308.1502,308.42578,53,68,0
308.1502,308.42578,65,68,0
308.1502,308.42578,48,68,0
308.42578,308.60214,46,58,0
308.42578,308.60214,49,58,0
308.42578,308.64313,66,58,0
308.42578,308.64313,54,58,0
308.6981,308.87738,49,54,0
308.6981,308.87738,46,54,0
308.6981,308.91904,54,54,0
308.6981,308.91904,66,54,0
308.9749,309.1567,49,49,0
308.9749,309.1567,46,49,0
308.9749,309.19913,54,49,0
308.9749,309.19913,66,49,0
309.25644,309.44333,49,45,0
309.25644,309.44333,46,45,0
309.25644,309.48672,66,45,0
309.25644,309.48672,54,45,0
309.54504,309.73578,49,40,0
309.54504,309.73578,46,40,0
309.54504,309.7799,66,40,0
309.54504,309.7799,54,40,0
309.8387,310.09317,46,109,0
309.8387,310.09317,34,109,0
310.1199,310.36053,50,89,0
310.1199,310.36053,46,89,0
310.3873,310.62793,50,78,0
310.3873,310.62793,46,78,0
310.65466,310.8953,50,68,0
310.65466,310.8953,46,68,0
310.92206,311.1627,50,61,0
310.92206,311.1627,46,61,0
311.18942,311.41187,46,56,0
311.18942,311.41187,50,56,0
311.47104,311.69257,46,68,0
311.47104,311.7466,67,68,0
311.47104,311.7466,55,68,0
311.47104,311.7466,50,68,0
311.7466,311.923,45,58,0
311.7466,311.923,48,58,0
311.7466,311.964,66,58,0
311.7466,311.964,54,58,0
312.01892,312.1982,48,54,0
312.01892,312.1982,45,54,0
312.01892,312.2399,54,54,0
312.01892,312.2399,66,54,0
312.29575,312.47754,48,49,0
312.29575,312.47754,45,49,0
312.29575,312.51996,54,49,0
312.29575,312.51996,66,49,0
312.57727,312.7642,48,45,0
312.57727,312.7642,45,45,0
312.57727,312.8076,54,45,0
312.57727,312.8076,66,45,0
312.86588,313.05664,48,40,0
312.86588,313.05664,45,40,0
312.86588,313.10074,54,40,0
312.86588,313.10074,66,40,0
313.15958,313.414,46,121,0
313.15958,313.414,34,121,0
313.44077,313.6814,50,89,0
313.44077,313.6814,46,89,0
313.70813,313.94876,50,78,0
313.70813,313.94876,46,78,0
313.97552,314.21616,50,68,0
313.97552,314.21616,46,68,0
313.15958,314.3766,67,121,0
313.15958,314.3766,79,121,0
314.2429,314.48352,46,61,0
314.2429,314.48352,50,61,0
314.52365,314.74753,46,56,0
314.52365,314.74753,50,56,0
314.57712,314.7919,67,79,0
314.57712,314.7919,55,79,0
314.7919,315.01343,46,68,0
314.7919,315.06747,55,68,0
314.7919,315.06747,67,68,0
314.7919,315.06747,50,68,0
315.06747,315.24384,48,58,0
315.06747,315.24384,51,58,0
315.06747,315.28482,68,58,0
315.06747,315.28482,56,58,0
315.33978,315.51907,51,54,0
315.33978,315.51907,48,54,0
315.33978,315.56073,56,54,0
315.33978,315.56073,68,54,0
315.6166,315.7984,51,49,0
315.6166,315.7984,48,49,0
315.6166,315.84082,56,49,0
315.6166,315.84082,68,49,0
315.89813,316.08502,51,45,0
315.89813,316.08502,48,45,0
315.89813,316.12842,68,45,0
315.89813,316.12842,56,45,0
316.18674,316.37747,51,40,0
316.18674,316.37747,48,40,0
316.18674,316.4217,68,40,0
316.18674,316.4217,56,40,0
316.48087,316.77606,47,40,0
316.48087,316.77606,56,40,0
316.48087,316.77606,68,40,0
316.48087,316.77606,51,40,0
316.77606,317.0693,47,40,0
316.77606,317.0693,56,40,0
316.77606,317.0693,68,40,0
316.77606,317.0693,51,40,0
317.0693,317.3613,47,42,0
317.0693,317.3613,56,42,0
317.0693,317.3613,68,42,0
317.0693,317.3613,51,42,0
317.3613,317.64804,47,43,0
317.3613,317.64804,59,43,0
317.3613,317.64804,71,43,0
317.3613,317.64804,51,43,0
317.64804,317.93195,47,46,0
317.64804,317.93195,59,46,0
317.64804,317.93195,71,46,0
317.64804,317.93195,51,46,0
317.94604,318.22855,47,52,0
317.94604,318.22855,59,52,0
317.94604,318.22855,71,52,0
317.94604,318.22855,51,52,0
318.22855,318.51016,47,63,0
318.22855,318.51016,63,63,0
318.22855,318.51016,75,63,0
318.22855,318.51016,51,63,0
318.51016,318.791,47,77,0
318.51016,318.791,63,77,0
318.51016,318.791,75,77,0
318.51016,318.791,51,77,0
318.791,319.06906,47,100,0
318.791,319.06906,63,100,0
318.791,319.06906,75,100,0
318.791,319.06906,51,100,0
319.06906,319.34683,47,125,0
319.06906,319.34683,55,125,0
319.06906,319.34683,67,125,0
319.06906,319.34683,79,125,0
319.06906,319.34683,51,125,0
319.34683,319.62253,47,119,0
319.34683,319.62253,55,119,0
319.34683,319.62253,67,119,0
319.34683,319.62253,79,119,0
319.34683,319.62253,51,119,0
319.62253,319.89545,47,107,0
319.62253,319.89545,55,107,0
319.62253,319.89545,67,107,0
319.62253,319.89545,79,107,0
319.62253,319.89545,51,107,0
319.89545,320.1656,47,115,0
319.89545,320.1656,56,115,0
319.89545,320.1656,68,115,0
319.89545,320.1656,80,115,0
319.89545,320.1656,51,115,0
320.1656,320.4344,47,101,0
320.1656,320.4344,56,101,0
320.1656,320.4344,68,101,0
320.1656,320.4344,80,101,0
320.1656,320.4344,51,101,0
320.4344,320.7084,47,87,0
320.4344,320.7084,56,87,0
320.4344,320.7084,68,87,0
320.4344,320.7084,80,87,0
320.4344,320.7084,51,87,0
320.7222,321.00104,47,84,0
320.7222,321.00104,63,84,0
320.7222,321.00104,75,84,0
320.7222,321.00104,51,84,0
321.00104,321.28403,47,81,0
321.00104,321.28403,63,81,0
321.00104,321.28403,75,81,0
321.00104,321.28403,51,81,0
321.28403,321.5728,47,72,0
321.28403,321.5728,63,72,0
321.28403,321.5728,75,72,0
321.28403,321.5728,51,72,0
321.5728,321.869,47,64,0
321.5728,321.869,59,64,0
321.5728,321.869,71,64,0
321.5728,321.869,51,64,0
321.869,322.17245,47,59,0
321.869,322.17245,59,59,0
321.869,322.17245,71,59,0
321.869,322.17245,51,59,0
322.17245,322.48218,47,55,0
322.17245,322.48218,59,55,0
322.17245,322.48218,71,55,0
322.17245,322.48218,51,55,0
322.48218,322.79514,47,51,0
322.48218,322.79514,56,51,0
322.48218,322.79514,68,51,0
322.48218,322.79514,51,51,0
322.79514,323.10956,47,47,0
322.79514,323.10956,56,47,0
322.79514,323.10956,68,47,0
322.79514,323.10956,51,47,0
323.10956,323.45,47,43,0
323.10956,323.45,51,43,0
323.10956,323.45,56,43,0
323.4143,323.45,56,41,0
323.10956,323.45,68,43,0
323.4143,323.45,68,41,0
323.4143,323.75275,52,41,0
323.4143,323.75275,49,41,0
323.75275,324.07254,49,43,0
323.75275,324.07254,56,43,0
323.75275,324.07254,68,43,0
323.75275,324.07254,52,43,0
324.07254,324.36725,49,43,0
324.07254,324.36725,56,43,0
324.07254,324.36725,68,43,0
324.07254,324.36725,52,43,0
324.36725,324.654,49,45,0
324.36725,324.654,73,45,0
324.36725,324.654,61,45,0
324.36725,324.654,52,45,0
324.654,324.93787,49,48,0
324.654,324.93787,73,48,0
324.654,324.93787,61,48,0
324.654,324.93787,52,48,0
324.93787,325.22037,61,54,0
324.93787,325.22037,52,54,0
324.93787,325.22037,49,54,0
324.93787,325.22037,73,54,0
325.22037,325.50204,49,69,0
325.22037,325.50204,64,69,0
325.22037,325.50204,76,69,0
325.22037,325.50204,52,69,0
325.50204,325.78296,49,89,0
325.50204,325.78296,64,89,0
325.50204,325.78296,76,89,0
325.50204,325.78296,52,89,0
325.78296,326.06113,76,101,0
325.78296,326.06113,52,101,0
325.78296,326.06113,49,101,0
325.78296,326.06113,64,101,0
326.06113,326.3389,49,125,0
326.06113,326.3389,55,125,0
326.06113,326.3389,67,125,0
326.06113,326.3389,79,125,0
326.06113,326.3389,52,125,0
326.3389,326.61478,49,119,0
326.3389,326.61478,55,119,0
326.3389,326.61478,67,119,0
326.3389,326.61478,79,119,0
326.3389,326.61478,52,119,0
326.61478,326.88782,49,107,0
326.61478,326.88782,55,107,0
326.61478,326.88782,67,107,0
326.61478,326.88782,79,107,0
326.61478,326.88782,52,107,0
326.88782,327.15808,49,115,0
326.88782,327.15808,56,115,0
326.88782,327.15808,68,115,0
326.88782,327.15808,80,115,0
326.88782,327.15808,52,115,0
327.15808,327.4269,49,94,0
327.15808,327.4269,56,94,0
327.15808,327.4269,68,94,0
327.15808,327.4269,80,94,0
327.15808,327.4269,52,94,0
327.4269,327.70053,49,81,0
327.4269,327.70053,56,81,0
327.4269,327.70053,68,81,0
327.4269,327.70053,80,81,0
327.4269,327.70053,52,81,0
327.70053,327.97888,49,74,0
327.70053,327.97888,64,74,0
327.70053,327.97888,76,74,0
327.70053,327.97888,52,74,0
327.97888,328.26157,49,66,0
327.97888,328.26157,64,66,0
327.97888,328.26157,76,66,0
327.97888,328.26157,52,66,0
328.26157,328.54977,76,61,0
328.26157,328.54977,52,61,0
328.26157,328.54977,49,61,0
328.26157,328.54977,64,61,0
328.54977,328.84482,49,55,0
328.54977,328.84482,61,55,0
328.54977,328.84482,73,55,0
328.54977,328.84482,52,55,0
328.84482,329.1476,49,48,0
328.84482,329.1476,61,48,0
328.84482,329.1476,73,48,0
328.84482,329.1476,52,48,0
329.1476,329.45697,73,46,0
329.1476,329.45697,52,46,0
329.1476,329.45697,49,46,0
329.1476,329.45697,61,46,0
329.45697,329.7697,49,44,0
329.45697,329.7697,56,44,0
329.45697,329.7697,68,44,0
329.45697,329.7697,52,44,0
329.7697,330.08395,49,42,0
329.7697,330.08395,56,42,0
329.7697,330.08395,68,42,0
329.7697,330.08395,52,42,0
330.08395,330.43164,49,42,0
330.08395,330.43164,56,42,0
330.08395,330.43164,68,42,0
330.08395,330.43164,52,42,0
330.43164,330.79004,49,56,0
330.43164,330.79004,52,56,0
330.43164,330.79004,56,56,0
330.43164,330.79004,68,56,0
330.79004,331.0334,69,51,0
330.79004,331.0334,57,51,0
330.79004,331.10983,52,51,0
330.79004,331.10983,49,51,0
331.10983,331.40454,57,43,0
331.10983,331.40454,52,43,0
331.10983,331.40454,49,43,0
331.10983,331.40454,69,43,0
331.40454,331.69128,49,45,0
331.40454,331.69128,73,45,0
331.40454,331.69128,61,45,0
331.40454,331.69128,52,45,0
331.69128,331.9752,49,48,0
331.69128,331.9752,73,48,0
331.69128,331.9752,61,48,0
331.69128,331.9752,52,48,0
331.9752,332.25766,61,54,0
331.9752,332.25766,52,54,0
331.9752,332.25766,49,54,0
331.9752,332.25766,73,54,0
332.25766,332.53937,49,69,0
332.25766,332.53937,64,69,0
332.25766,332.53937,76,69,0
332.25766,332.53937,52,69,0
332.53937,332.82025,49,89,0
332.53937,332.82025,64,89,0
332.53937,332.82025,76,89,0
332.53937,332.82025,52,89,0
332.82025,333.09842,76,101,0
332.82025,333.09842,52,101,0
332.82025,333.09842,49,101,0
332.82025,333.09842,64,101,0
333.09842,333.3762,49,125,0
333.09842,333.3762,68,125,0
333.09842,333.3762,56,125,0
333.09842,333.3762,80,125,0
333.09842,333.3762,52,125,0
333.3762,333.65207,49,119,0
333.3762,333.65207,80,119,0
333.3762,333.65207,56,119,0
333.3762,333.65207,68,119,0
333.3762,333.65207,52,119,0
333.65207,333.9251,56,107,0
333.65207,333.9251,68,107,0
333.65207,333.9251,52,107,0
333.65207,333.9251,49,107,0
333.65207,333.9251,80,107,0
333.9251,334.19537,49,115,0
333.9251,334.19537,81,115,0
333.9251,334.19537,57,115,0
333.9251,334.19537,69,115,0
333.9251,334.19537,52,115,0
334.19537,334.4642,49,101,0
334.19537,334.4642,69,101,0
334.19537,334.4642,57,101,0
334.19537,334.4642,81,101,0
334.19537,334.4642,52,101,0
334.4642,334.73782,57,92,0
334.4642,334.73782,69,92,0
334.4642,334.73782,52,92,0
334.4642,334.73782,49,92,0
334.4642,334.73782,81,92,0
334.73782,335.01617,50,79,0
334.73782,335.01617,65,79,0
334.73782,335.01617,57,79,0
334.73782,335.01617,53,79,0
334.73782,335.01617,77,79,0
335.01617,335.29886,50,71,0
335.01617,335.29886,65,71,0
335.01617,335.29886,57,71,0
335.01617,335.29886,77,71,0
335.01617,335.29886,53,71,0
335.29886,335.58707,77,64,0
335.29886,335.58707,57,64,0
335.29886,335.58707,53,64,0
335.29886,335.58707,50,64,0
335.29886,335.58707,65,64,0
335.58707,335.8821,50,58,0
335.58707,335.8821,62,58,0
335.58707,335.8821,53,58,0
335.58707,335.8821,57,58,0
335.58707,335.8821,74,58,0
335.8821,336.1849,50,55,0
335.8821,336.1849,74,55,0
335.8821,336.1849,57,55,0
335.8821,336.1849,62,55,0
335.8821,336.1849,53,55,0
336.1849,336.49426,74,51,0
336.1849,336.49426,57,51,0
336.1849,336.49426,53,51,0
336.1849,336.49426,50,51,0
336.1849,336.49426,62,51,0
336.49426,336.80704,69,48,0
336.49426,336.80704,52,48,0
336.49426,336.80704,48,48,0
336.80704,337.1225,69,48,0
336.80704,337.1225,52,48,0
336.80704,337.1225,48,48,0
337.1225,337.4475,69,48,0
337.1225,337.4475,48,48,0
337.1225,337.4475,45,48,0
337.1225,337.4475,52,48,0
337.4475,337.77975,69,53,0
337.4475,337.77975,52,53,0
337.4475,337.77975,40,53,0
337.4475,337.77975,48,53,0
337.4475,337.77975,57,53,0
337.77975,338.11533,69,58,0
337.77975,338.11533,40,58,0
337.77975,338.11533,48,58,0
337.77975,338.11533,52,58,0
337.77975,338.11533,57,58,0
338.11533,338.4493,69,64,0
338.11533,338.4493,40,64,0
338.11533,338.4493,48,64,0
338.11533,338.4493,52,64,0
338.11533,338.4493,57,64,0
338.4493,338.78043,72,71,0
338.4493,338.78043,50,71,0
338.4493,338.78043,53,71,0
338.4493,338.78043,60,71,0
338.78043,339.1121,72,65,0
338.78043,339.1121,50,65,0
338.78043,339.1121,53,65,0
338.78043,339.1121,60,65,0
339.1121,339.44543,71,61,0
339.1121,339.44543,50,61,0
339.1121,339.44543,53,61,0
339.1121,339.44543,59,61,0
339.44543,339.82678,69,60,0
339.44543,339.82678,52,60,0
339.44543,339.82678,40,60,0
339.44543,339.82678,48,60,0
339.44543,339.82678,57,60,0
339.82678,340.23297,69,54,0
339.82678,340.23297,52,54,0
339.82678,340.23297,40,54,0
339.82678,340.23297,48,54,0
339.82678,340.23297,57,54,0
340.23297,340.66315,69,48,0
340.23297,340.66315,52,48,0
340.23297,340.66315,40,48,0
340.23297,340.66315,48,48,0
340.23297,340.66315,57,48,0
340.66315,341.11526,68,43,0
340.66315,341.11526,62,43,0
340.66315,341.11526,47,43,0
340.66315,341.11526,52,43,0
340.66315,341.11526,40,43,0
340.66315,341.11526,56,43,0
340.66315,341.11526,64,43,0
341.11526,341.59726,68,39,0
341.11526,341.59726,62,39,0
341.11526,341.59726,47,39,0
341.11526,341.59726,52,39,0
341.11526,341.59726,40,39,0
341.11526,341.59726,56,39,0
341.11526,341.59726,64,39,0
341.59726,342.50858,68,35,0
341.59726,342.50858,62,35,0
341.59726,342.50858,47,35,0
341.59726,342.50858,52,35,0
341.59726,342.50858,40,35,0
341.59726,342.50858,56,35,0
341.59726,342.50858,64,35,0
342.50858,343.8751,51,31,0
342.50858,343.8751,48,31,0
342.50858,343.8751,39,31,0
343.98376,345.25558,53,39,0
343.98376,345.25558,49,39,0
345.25558,346.93195,51,42,0
345.25558,346.93195,48,42,0
345.25558,346.93195,39,42,0
346.93195,348.9514,51,32,0
346.93195,348.9514,46,32,0
346.93195,348.9514,39,32,0
348.9514,349.46933,32,40,0
349.586,349.836,44,28,0
350.086,350.336,51,32,0
350.586,350.836,44,37,0
351.086,351.55493,34,43,0
351.67358,351.9278,46,30,0
352.18204,352.43628,51,32,0
352.69052,352.94476,46,35,0
353.199,353.58884,36,39,0
353.70746,353.9617,56,32,0
354.21594,354.47018,51,36,0
354.71317,354.95227,49,38,0
355.19238,355.5654,48,41,0
355.6794,355.92584,51,40,0
356.17392,356.42337,43,34,0
356.67117,356.91626,51,33,0
357.1603,357.5298,44,40,0
357.6416,357.8797,51,32,0
358.11578,358.35016,43,34,0
358.5826,358.81314,48,39,0
359.04227,359.39276,41,44,0
359.49915,359.72662,48,33,0
359.95276,360.25888,37,39,0
360.48276,360.70667,49,42,0
360.93054,361.27222,39,45,0
361.37607,361.59906,44,35,0
361.82385,362.05203,48,37,0
362.28165,362.51407,51,42,0
362.74747,363.1096,51,49,0
363.22067,363.45877,50,39,0
363.69687,363.94012,51,35,0
364.19156,364.4598,49,34,0
364.7601,365.14258,48,32,0
365.25244,365.48447,49,31,0
365.71173,365.9356,47,35,0
366.1595,366.38336,48,39,0
366.60724,366.95053,53,42,0
367.055,367.2789,41,39,0
367.50928,367.74268,43,37,0
367.9756,368.20853,44,36,0
368.44095,368.79684,46,39,0
368.90488,369.13635,45,39,0
369.36783,369.59933,46,41,0
369.83032,370.0611,48,46,0
370.29138,370.644,48,51,0
370.75104,370.98016,46,45,0
371.20883,371.4327,45,41,0
371.66116,371.89313,46,39,0
372.13123,372.5035,51,45,0
372.61514,372.85074,50,35,0
373.08392,373.31235,48,35,0
373.5396,373.7669,44,39,0
373.98645,374.3171,46,47,0
374.41608,374.62735,45,43,0
374.83862,375.21683,46,37,0
375.42328,375.62985,34,33,0
375.84723,376.65082,51,32,0
376.43652,376.87033,55,32,0
376.87033,377.32388,58,38,0
375.84723,377.32388,39,32,0
377.32388,377.8002,62,40,0
377.8002,378.55307,63,41,0
378.29883,378.8242,65,37,0
378.8242,379.46463,67,34,0
379.46463,380.5462,63,32,0
380.5462,382.32587,56,22,0
380.5462,382.32587,60,22,0
380.5462,382.32587,63,22,0
382.58185,384.7652,58,28,0
382.58185,384.7652,61,28,0
382.58185,384.7652,64,28,0
384.7652,386.4196,60,29,0
386.4196,387.03735,61,26,0
387.03735,387.7999,60,24,0
388.05676,389.08417,55,25,0
389.08417,390.11154,56,29,0
390.11154,391.13895,54,39,0
391.13895,392.19727,52,45,0
392.19727,393.31833,50,54,0
393.31833,394.62012,48,59,0
394.62012,396.1298,41,54,0
396.1298,398.65067,48,47,0
399.40695,400.20624,77,35,0
400.20624,400.48453,75,40,0
400.48453,401.77472,73,44,0
401.77472,403.2887,66,38,0
403.2887,405.83365,73,30,0
406.65933,407.35794,42,42,0
407.35794,407.59088,40,55,0
407.59088,408.7367,38,57,0
408.7367,410.05405,31,44,0
410.05405,413.264,38,37,0
414.14636,415.0218,45,36,0
415.15646,419.80103,52,39,0
421.93338,422.6981,44,67,0
422.81573,425.32922,51,100,0
425.39133,426.11517,39,73,0
426.11517,426.35947,44,58,0
425.39133,426.35947,51,73,0
426.35947,427.3954,51,61,0
426.35947,427.3954,44,61,0
428.01694,429.6744,53,84,0
428.01694,429.6744,44,84,0
429.6744,430.78717,51,50,0
429.6744,430.78717,44,50,0
431.45526,433.41467,44,61,0
431.45526,433.41467,61,61,0
433.41467,436.76987,44,92,0
433.41467,436.76987,63,92,0
433.41467,436.76987,58,92,0
433.41467,436.76987,51,92,0
436.76987,437.74734,56,47,0
436.76987,437.74734,51,47,0
436.76987,437.74734,44,47,0
438.81375,439.82404,60,56,0
438.72183,439.82404,51,55,0
438.62994,439.82404,44,49,0
441.35287,446.75827,44,37,0
441.35287,446.75827,48,37,0
441.35287,446.75827,56,37,0
