start_time,end_time,note_value,velocity,instrument_program_number
0.6818175,0.848484,67,45,0
0.848484,0.9848475,75,40,0
1.121211,1.2575746,75,32,0
1.2575746,1.393938,74,43,0
1.5303015,1.666665,74,36,0
1.666665,1.8030285,72,45,0
1.939392,2.0757556,72,43,0
2.0757556,2.212119,79,39,0
2.3484826,2.484846,79,41,0
2.484846,2.6212094,74,45,0
2.757573,2.8939364,74,41,0
2.8939364,3.0303,67,43,0
3.1666634,3.303027,67,45,0
3.303027,3.4393904,75,51,0
3.575754,3.7121174,75,42,0
3.7121174,3.848481,72,47,0
3.9848444,4.121208,72,50,0
4.121208,4.2575717,80,54,0
4.393935,4.5302987,80,64,0
4.5302987,4.666662,83,66,0
4.8030257,4.939389,83,71,0
4.939389,5.0757527,84,74,0
5.212116,5.3484793,84,71,0
5.3484793,5.484843,87,74,0
5.6212063,5.75757,87,80,0
5.75757,5.8939333,91,94,0
6.030297,6.1666603,91,93,0
6.1666603,6.303024,90,89,0
6.4393873,6.575751,90,79,0
6.575751,6.7121143,91,69,0
6.848478,6.9848413,67,86,0
6.9848413,7.121205,79,101,0
7.2575684,7.393932,67,86,0
7.393932,7.5302954,75,40,0
7.666659,7.8030224,75,32,0
7.8030224,7.939386,74,43,0
8.075749,8.212113,74,36,0
8.212113,8.348476,72,45,0
8.48484,8.621203,72,43,0
8.621203,8.757567,79,44,0
8.89393,9.030294,79,42,0
9.030294,9.166657,74,48,0
9.303021,9.439384,74,42,0
9.439384,9.575748,67,50,0
9.712111,9.848475,67,44,0
9.848475,9.9848385,75,50,0
10.121202,10.2575655,75,51,0
10.2575655,10.393929,72,57,0
10.5297785,10.6655245,72,58,0
10.6655245,10.801271,80,64,0
10.936712,11.071847,80,66,0
11.071847,11.206982,83,73,0
11.342117,11.477252,83,75,0
11.477252,11.612387,84,81,0
11.747522,11.881652,84,81,0
11.881652,12.01558,87,89,0
12.149508,12.283437,87,88,0
12.283437,12.417366,91,105,0
12.551294,12.685223,91,99,0
12.685223,12.819151,91,103,0
12.953079,13.086415,91,103,0
13.086415,13.219158,96,122,0
13.749354,13.880454,79,45,0
13.880454,14.011457,80,57,0
14.142462,14.273945,80,45,0
14.273945,14.405523,77,54,0
14.537295,14.670038,77,45,0
14.670038,14.802782,74,50,0
14.936016,15.069349,74,45,0
15.069349,15.2026825,83,55,0
15.337012,15.471541,83,51,0
15.471541,15.60607,84,61,0
15.740599,15.875331,84,52,0
15.875331,16.011078,72,56,0
16.147238,16.284224,72,40,0
16.284224,16.419323,79,52,0
16.552954,16.685308,90,60,0
16.685308,16.816504,91,71,0
16.816504,16.946941,90,82,0
16.946941,17.076674,91,93,0
17.076674,17.205153,92,99,0
17.33354,17.461746,92,87,0
17.461746,17.590408,89,84,0
17.719164,17.84792,89,75,0
17.84792,17.976675,86,70,0
18.105429,18.234184,86,57,0
18.234184,18.363405,83,60,0
18.493557,18.623945,83,67,0
18.623945,18.755524,84,70,0
18.887491,19.020233,84,64,0
19.020233,19.15432,78,62,0
19.289455,19.42459,78,52,0
19.42459,19.69739,79,48,0
20.12194,20.273472,67,61,0
20.273472,20.41258,75,50,0
20.551147,20.689716,75,51,0
20.689716,20.82855,74,50,0
20.966906,21.105154,74,49,0
21.105154,21.242874,72,49,0
21.38049,21.51758,72,52,0
21.51758,21.654255,79,54,0
21.790619,21.926468,79,55,0
21.926468,22.061909,74,56,0
22.197042,22.332178,74,58,0
22.332178,22.46691,67,59,0
22.601439,22.735567,67,62,0
22.735567,22.869495,75,64,0
23.003225,23.153225,68,92,0
23.153225,23.303225,80,111,0
23.452852,23.588346,68,68,0
23.588346,23.720993,77,65,0
23.853151,23.98531,77,60,0
23.98531,24.117468,75,58,0
24.249336,24.380915,75,58,0
24.380915,24.512493,73,58,0
24.643497,24.774502,73,58,0
24.774502,24.905506,80,58,0
25.036509,25.167038,80,60,0
25.167038,25.297474,75,60,0
25.42772,25.55759,75,63,0
25.55759,25.687366,68,66,0
25.816677,25.945986,68,71,0
25.945986,26.075296,77,76,0
26.204052,26.354052,70,100,0
26.354052,26.504051,82,122,0
26.65405,26.784641,70,63,0
26.784641,26.913395,78,55,0
27.041876,27.169718,78,59,0
27.169718,27.297377,77,62,0
27.425035,27.552334,77,73,0
27.552334,27.679363,75,84,0
27.810358,27.9666,72,106,0
27.9666,28.134146,84,127,0
28.311136,28.497763,72,102,0
28.497763,28.670412,84,111,0
28.819998,28.959892,84,103,0
28.959892,29.096685,80,101,0
29.231022,29.36416,80,93,0
29.36416,29.49584,77,87,0
29.626183,29.755913,77,81,0
29.755913,29.886631,72,79,0
30.01735,30.148067,72,76,0
30.148067,30.280518,68,83,0
30.412968,30.5469,68,75,0
30.5469,30.68219,65,79,0
30.817936,30.953682,65,77,0
30.953682,31.08974,60,87,0
31.227356,31.36497,60,99,0
31.36497,31.503277,56,105,0
31.64281,31.782347,53,120,0
31.782347,31.923748,49,127,0
32.061,32.19634,49,114,0
32.19634,32.330566,61,103,0
32.464794,32.599022,61,90,0
32.599022,32.733253,60,85,0
32.868237,33.003372,60,81,0
33.003372,33.13912,72,76,0
33.275227,33.413322,48,69,0
33.413322,33.552433,49,127,0
33.69052,33.82689,49,116,0
33.82689,33.961773,61,112,0
34.095703,34.229034,61,105,0
34.229034,34.362072,60,97,0
34.49462,34.62707,60,82,0
34.62707,34.75952,72,76,0
34.89197,35.025158,48,70,0
35.025158,35.15969,49,127,0
35.294827,35.429962,49,118,0
35.429962,35.565098,61,105,0
35.699627,35.833458,61,97,0
35.833458,35.96679,62,95,0
36.100124,36.232964,62,90,0
36.232964,36.365707,74,86,0
36.498158,36.630318,50,85,0
36.630318,36.762474,51,127,0
36.894634,37.02631,51,123,0
37.02631,37.157887,63,119,0
37.289467,37.420853,63,113,0
37.420853,37.551857,64,110,0
37.68286,37.813866,64,100,0
37.813866,37.944393,76,98,0
38.07483,38.204983,52,107,0
38.204983,38.33485,53,115,0
38.46472,38.594593,53,109,0
38.594593,38.724087,54,121,0
38.853397,38.983173,66,102,0
38.983173,39.113045,67,113,0
39.245327,39.382347,79,105,0
39.382347,39.5238,80,118,0
39.6768,39.859104,80,107,0
39.859104,40.03938,92,127,0
40.166218,40.29148,92,119,0
40.29148,40.41709,88,113,0
40.54323,40.669724,88,107,0
40.669724,40.796307,85,103,0
40.923428,41.051632,85,96,0
41.051632,41.179836,80,90,0
41.308598,41.43847,80,83,0
41.43847,41.568336,76,82,0
41.698772,41.8293,76,74,0
41.8293,41.960022,73,70,0
42.09074,42.224094,73,61,0
42.224094,42.36088,76,56,0
42.50133,42.64557,76,46,0
42.64557,42.794083,73,44,0
42.944836,43.09831,80,96,0
43.09831,43.25558,92,127,0
43.391106,43.515587,92,118,0
43.515587,43.640068,89,114,0
43.765327,43.89103,89,104,0
43.89103,44.017166,85,99,0
44.14366,44.2706,85,88,0
44.2706,44.39826,80,87,0
44.526283,44.65458,80,80,0
44.65458,44.783566,77,79,0
44.912827,45.04228,77,73,0
45.04228,45.172768,73,63,0
45.304394,45.43636,73,57,0
45.43636,45.568806,77,55,0
45.703243,45.838074,77,50,0
45.838074,45.972904,72,51,0
46.10959,46.248486,72,44,0
46.248486,46.389782,71,43,0
46.533794,46.642696,79,48,0
46.679554,46.79012,79,53,0
46.98001,47.135162,79,58,0
47.135162,47.276028,80,47,0
47.276028,47.41408,79,53,0
47.41408,47.550446,78,58,0
47.550446,47.684372,79,70,0
47.684372,47.818302,91,75,0
47.818302,47.952232,90,96,0
47.952232,48.08616,91,106,0
48.220642,48.322453,67,66,0
48.356388,48.458557,67,52,0
48.629013,48.765377,67,51,0
48.765377,48.90174,68,70,0
48.90174,49.038105,67,56,0
49.038105,49.17447,66,60,0
49.17447,49.31083,67,63,0
49.31083,49.447193,79,69,0
49.447193,49.583557,78,70,0
49.583557,49.718643,80,83,0
49.718643,49.853172,79,81,0
49.853172,49.987106,78,85,0
49.987106,50.119556,79,93,0
50.119556,50.25095,91,99,0
50.25095,50.381668,90,104,0
50.381668,50.512726,91,110,0
50.512726,50.64547,79,99,0
50.64547,50.7787,78,93,0
50.7787,50.912037,80,90,0
50.912037,51.045864,79,82,0
51.045864,51.179893,78,76,0
51.179893,51.31452,79,87,0
51.31452,51.449657,67,77,0
51.449657,51.58572,66,65,0
51.58572,51.722706,68,61,0
51.722706,51.859795,67,57,0
51.859795,51.99741,66,53,0
51.99741,52.13534,68,50,0
52.13534,52.273273,67,51,0
52.273273,52.41163,66,48,0
52.41163,52.55095,68,45,0
52.55095,52.6907,67,43,0
52.6907,52.83155,66,40,0
52.83155,52.97407,67,40,0
53.117268,53.260468,67,48,0
53.260468,53.407017,79,37,0
53.559982,53.724735,67,34,0
53.724735,53.90211,79,41,0
54.08507,54.27375,67,30,0
54.27375,54.47173,79,40,0
54.67934,54.881493,67,50,0
54.881493,55.057964,76,33,0
55.23396,55.395535,76,32,0
55.395535,55.543777,74,38,0
55.690727,55.83696,74,30,0
55.83696,55.9819,72,36,0
56.126606,56.270836,72,35,0
56.270836,56.41462,79,31,0
56.55816,56.699703,79,30,0
56.699703,56.841003,74,38,0
56.981846,57.122265,74,31,0
57.122265,57.262245,67,36,0
57.40178,57.540894,67,35,0
57.540894,57.679783,76,40,0
57.81867,57.95693,76,39,0
57.95693,58.095177,72,35,0
58.233013,58.37063,72,34,0
58.37063,58.508244,81,37,0
58.645344,58.78233,81,42,0
58.78233,58.919315,83,44,0
59.0563,59.193287,83,48,0
59.193287,59.330273,84,50,0
59.46726,59.604244,84,50,0
59.604244,59.741234,88,54,0
59.87822,60.015205,79,45,0
60.015205,60.154633,84,47,0
60.015205,60.154633,78,47,0
60.29515,60.438026,84,43,0
60.29515,60.438026,78,43,0
60.438026,60.58425,86,41,0
60.438026,60.58425,77,41,0
60.732407,60.884964,86,36,0
60.732407,60.884964,77,36,0
60.884964,61.037357,79,41,0
60.884964,61.037357,76,41,0
61.18514,61.329796,76,35,0
61.329796,61.471817,79,39,0
61.611572,61.74993,91,39,0
61.74993,61.88723,93,35,0
62.024452,62.1627,93,37,0
62.1627,62.301163,95,39,0
62.43973,62.578297,95,42,0
62.578297,62.716866,96,44,0
62.855434,62.994003,96,48,0
62.994003,63.13257,100,51,0
63.271137,63.409866,79,43,0
63.409866,63.55171,84,50,0
63.409866,63.55171,78,50,0
63.695206,63.841667,84,44,0
63.695206,63.841667,78,44,0
63.841667,63.989086,86,41,0
63.841667,63.989086,77,41,0
64.13871,64.29061,86,36,0
64.13871,64.29061,77,36,0
64.29061,64.44632,79,30,0
64.29061,64.44632,76,30,0
64.59916,64.74694,76,37,0
64.74694,64.891174,72,41,0
65.03336,65.1741,72,34,0
65.1741,65.31235,71,39,0
65.45013,65.58721,71,33,0
65.58721,65.72358,69,38,0
65.85984,65.99558,69,33,0
65.99558,66.13133,77,40,0
66.26708,66.402824,77,36,0
66.402824,66.538574,71,42,0
66.67432,66.810684,71,36,0
66.810684,66.94856,79,43,0
67.08734,67.226715,79,41,0
67.226715,67.37436,80,51,0
67.52214,67.66992,80,46,0
67.66992,67.80628,79,42,0
67.94153,68.07666,79,38,0
68.07666,68.2114,84,36,0
68.34593,68.48037,84,36,0
68.48037,68.6143,83,39,0
68.74823,68.88216,83,40,0
68.88216,69.01609,81,42,0
69.15002,69.283554,81,48,0
69.283554,69.41689,89,48,0
69.550224,69.683556,89,46,0
69.683556,69.81689,83,50,0
69.95022,70.08356,83,65,0
70.08356,70.21689,84,68,0
70.35022,70.48355,96,67,0
70.48355,70.61689,92,63,0
70.75022,70.88355,92,55,0
70.88355,71.016884,91,60,0
71.150215,71.283554,91,54,0
71.283554,71.416885,85,62,0
71.55022,71.68355,85,57,0
71.68355,71.81689,84,49,0
71.95022,72.08355,84,48,0
72.08355,72.21688,80,44,0
72.35021,72.48403,80,44,0
72.48403,72.617966,79,42,0
72.75189,72.88591,79,39,0
72.88591,73.02044,73,49,0
73.15516,73.2905,73,44,0
73.2905,73.42594,72,41,0
73.56138,73.696815,72,39,0
73.696815,73.83226,68,35,0
73.9677,74.10374,68,31,0
74.10374,74.24061,67,33,0
74.377914,74.515526,67,36,0
74.515526,74.65314,61,45,0
74.79076,74.92837,61,40,0
74.92837,75.06724,60,51,0
75.20665,75.34618,60,41,0
75.34618,75.48572,61,55,0
75.626114,75.76762,61,47,0
75.76762,75.910255,60,65,0
76.05483,76.200584,60,84,0
76.200584,76.31126,61,95,0
76.50048,76.640564,61,114,0
76.6909,78.31021,61,127,0
78.424034,78.5352,62,62,0
78.57168,78.68062,63,69,0
78.71685,78.82499,65,74,0
78.86088,78.968254,66,80,0
79.00387,79.11035,68,85,0
79.14573,79.251595,70,90,0
79.286705,79.39169,72,95,0
79.426575,79.53092,73,101,0
79.56549,79.668816,75,108,0
79.70322,79.80597,77,112,0
79.84012,79.94254,78,116,0
79.97669,80.078964,80,121,0
80.11305,80.33783,85,126,0
80.569756,81.35923,61,127,0
81.431,81.76745,54,124,0
81.431,81.76745,57,124,0
81.431,81.76745,61,124,0
81.81779,81.90168,61,101,0
81.81779,81.90168,57,101,0
81.81779,81.90168,54,101,0
81.91846,83.53777,56,119,0
81.91846,83.53777,53,119,0
81.945305,83.56698,61,119,0
83.651596,83.76276,62,61,0
83.79923,83.90818,63,86,0
83.94441,84.05255,65,89,0
84.08843,84.195816,66,92,0
84.23143,84.337906,68,96,0
84.37328,84.47915,70,99,0
84.51426,84.61925,72,102,0
84.65414,84.758484,73,106,0
84.793045,84.89637,75,110,0
84.93078,85.03352,77,114,0
85.06768,85.1701,78,120,0
85.20425,85.306526,80,126,0
85.340614,85.565384,85,126,0
85.340614,85.565384,89,126,0
85.79946,86.958916,61,127,0
87.02709,87.13669,68,62,0
87.173164,87.282104,70,71,0
87.31834,87.426476,72,77,0
87.462364,87.56974,73,82,0
87.605354,87.71183,75,87,0
87.74721,87.85308,77,94,0
87.88819,87.99318,78,99,0
88.02806,88.13241,80,105,0
88.16697,88.2703,82,109,0
88.3047,88.407455,84,115,0
88.441605,88.54402,85,119,0
88.57818,88.68045,87,125,0
88.71454,88.939316,97,127,0
88.71454,88.939316,89,127,0
89.17339,89.45936,61,127,0
89.60221,89.825905,89,126,0
89.60221,89.825905,80,126,0
89.60221,89.825905,92,126,0
89.60221,89.825905,85,126,0
90.0509,90.35091,61,127,0
90.50705,90.741425,85,126,0
90.50705,90.741425,77,126,0
90.50705,90.741425,80,126,0
90.50705,90.741425,89,126,0
90.9758,91.30896,61,127,0
92.29936,92.52414,85,126,0
92.29936,92.52414,73,126,0
92.29936,92.52414,77,126,0
92.29936,92.52414,80,126,0
92.74914,93.06645,61,127,0
94.86154,95.1528,68,52,0
95.300865,95.592125,61,46,0
95.73533,96.02659,44,59,0
96.17222,96.463486,37,60,0
96.61154,97.3397,73,60,0
97.48533,98.213486,66,54,0
98.359116,98.650375,68,52,0
98.796005,99.087265,61,55,0
99.23047,99.521736,44,59,0
99.667366,99.958626,37,71,0
100.10668,100.83484,75,77,0
100.10668,100.83484,63,77,0
100.98047,101.708626,68,60,0
100.98047,101.708626,56,60,0
101.854256,102.14552,68,52,0
102.29115,102.58241,61,51,0
102.72562,103.01688,44,59,0
103.162506,103.45377,37,62,0
103.60183,104.32999,73,65,0
104.47562,105.20377,66,59,0
105.34959,105.56869,68,47,0
105.7882,106.155136,71,66,0
106.22867,106.44963,66,81,0
106.6713,107.04188,71,89,0
107.116325,107.41457,40,104,0
107.566086,107.944916,44,117,0
108.02204,108.25377,39,104,0
108.488144,108.8928,44,121,0
109.02152,109.314705,80,52,0
109.46105,109.75373,73,46,0
109.90007,110.19276,56,54,0
110.339096,110.631775,49,62,0
110.778114,110.92446,85,78,0
110.92446,111.0708,84,72,0
111.0708,111.21714,83,67,0
111.21714,111.36348,82,62,0
111.36348,111.50982,81,57,0
111.50982,111.656166,80,52,0
111.656166,111.802505,79,46,0
111.802505,111.948845,78,43,0
111.948845,112.095184,77,41,0
112.095184,112.24153,78,45,0
112.24153,112.38787,80,50,0
112.38787,112.53421,81,54,0
112.53421,112.82689,80,57,0
112.973236,113.265915,73,55,0
113.412254,113.70494,56,57,0
113.85128,114.14396,49,58,0
114.2903,114.436646,87,78,0
114.436646,114.582985,86,71,0
114.582985,114.729324,85,63,0
114.729324,114.87566,84,57,0
114.87566,115.022,83,56,0
115.022,115.16835,82,48,0
115.16835,115.31469,81,42,0
115.31469,115.46103,80,38,0
115.46103,115.60737,79,36,0
115.60737,115.753716,80,41,0
115.753716,115.900055,81,47,0
115.900055,116.046394,78,54,0
116.046394,116.33907,80,57,0
116.48542,116.7781,73,56,0
116.92444,117.217125,56,57,0
117.363464,117.65614,49,61,0
117.80248,117.94883,85,69,0
117.94883,118.09517,84,64,0
118.09517,118.24151,85,64,0
118.24151,118.38785,86,62,0
118.38785,118.53419,85,65,0
118.53419,118.680534,84,70,0
118.680534,118.82687,83,74,0
118.82687,118.97321,82,70,0
118.97321,119.11955,81,65,0
119.11955,119.26589,82,61,0
119.26589,119.41224,83,57,0
119.41224,119.55905,84,54,0
119.55905,119.78018,85,51,0
120.00131,120.36986,88,56,0
120.44357,120.6647,83,71,0
120.88583,121.258385,88,89,0
121.33301,121.631516,48,94,0
121.781746,122.161934,52,89,0
122.23964,122.474625,47,104,0
122.71758,123.211174,52,92,0
123.42314,123.774765,60,40,0
123.42314,123.774765,57,40,0
123.774765,123.89999,57,27,0
123.774765,123.89999,60,27,0
123.774765,123.89999,64,27,0
123.94165,124.188965,57,35,0
123.94165,124.188965,60,35,0
123.94165,124.188965,64,35,0
124.27053,124.3915,57,32,0
124.27053,124.3915,60,32,0
124.27053,124.3915,64,32,0
124.43144,124.74749,57,42,0
124.43144,124.74749,60,42,0
124.43144,124.74749,64,42,0
124.74749,124.86408,57,34,0
124.74749,124.86408,60,34,0
124.74749,124.86408,65,34,0
124.90244,125.13262,57,43,0
124.90244,125.13262,60,43,0
124.90244,125.13262,65,43,0
125.20935,125.32444,57,40,0
125.20935,125.32444,60,40,0
125.20935,125.32444,66,40,0
125.3628,125.66812,59,52,0
125.3628,125.66812,62,52,0
125.3628,125.66812,69,52,0
125.66812,125.78147,59,44,0
125.66812,125.78147,62,44,0
125.66812,125.78147,67,44,0
125.81926,126.044914,67,42,0
125.81926,126.044914,63,42,0
125.81926,126.044914,60,42,0
126.11899,126.230095,60,50,0
126.11899,126.230095,63,50,0
126.11899,126.230095,67,50,0
126.267136,126.56343,61,57,0
126.267136,126.56343,64,57,0
126.267136,126.56343,67,57,0
126.56343,126.674545,61,52,0
126.56343,126.674545,64,52,0
126.56343,126.674545,67,52,0
126.71158,126.9338,62,46,0
126.71158,126.9338,65,46,0
126.71158,126.9338,67,46,0
127.00724,127.117,62,42,0
127.00724,127.117,65,42,0
127.00724,127.117,67,42,0
127.15359,127.444824,64,40,0
127.15359,127.444824,67,40,0
127.444824,127.55299,67,49,0
127.444824,127.55299,64,49,0
127.444824,127.55299,72,49,0
127.58905,127.8054,67,52,0
127.58905,127.8054,64,52,0
127.58905,127.8054,72,52,0
127.87752,127.98569,67,46,0
127.87752,127.98569,64,46,0
127.87752,127.98569,72,46,0
128.02174,128.31021,67,59,0
128.02174,128.31021,64,59,0
128.02174,128.31021,71,59,0
128.31021,128.41838,64,52,0
128.31021,128.41838,72,52,0
128.31021,128.41838,67,52,0
128.45444,128.67078,64,66,0
128.45444,128.67078,67,66,0
128.45444,128.67078,72,66,0
128.7429,128.85107,64,66,0
128.7429,128.85107,72,66,0
128.7429,128.85107,67,66,0
128.88713,129.17708,65,71,0
128.88713,129.17708,69,71,0
128.88713,129.17708,76,71,0
129.17708,129.2863,65,62,0
129.17708,129.2863,74,62,0
129.17708,129.2863,69,62,0
129.32271,129.54335,66,55,0
129.32271,129.54335,74,55,0
129.32271,129.54335,69,55,0
129.61742,129.72853,74,58,0
129.61742,129.72853,69,58,0
129.61742,129.72853,66,58,0
129.76556,130.06186,67,63,0
129.76556,130.06186,70,63,0
129.76556,130.06186,74,63,0
130.06186,130.17297,67,56,0
130.06186,130.17297,70,56,0
130.06186,130.17297,74,56,0
130.21004,130.43504,68,54,0
130.21004,130.43504,74,54,0
130.21004,130.43504,71,54,0
130.51004,130.62254,68,49,0
130.51004,130.62254,74,49,0
130.51004,130.62254,71,49,0
130.66005,130.95946,69,40,0
130.66005,130.95946,72,40,0
130.95946,131.07085,69,35,0
130.95946,131.07085,72,35,0
130.95946,131.07085,77,35,0
131.10797,131.32964,69,32,0
131.10797,131.32964,72,32,0
131.10797,131.32964,76,32,0
131.40332,131.51282,69,41,0
131.40332,131.51282,72,41,0
131.40332,131.51282,76,41,0
131.5493,131.84128,71,45,0
131.5493,131.84128,77,45,0
131.5493,131.84128,81,45,0
131.84128,131.95076,71,36,0
131.84128,131.95076,77,36,0
131.84128,131.95076,81,36,0
131.98726,132.20772,71,41,0
131.98726,132.20772,77,41,0
131.98726,132.20772,79,41,0
132.28178,132.39354,71,30,0
132.28178,132.39354,77,30,0
132.28178,132.39354,79,30,0
132.43095,132.7302,69,40,0
132.43095,132.7302,72,40,0
132.7277,132.83946,77,35,0
132.7302,132.84193,69,35,0
132.7302,132.84193,72,35,0
132.87888,133.09999,69,32,0
132.87888,133.09999,72,32,0
132.87888,133.09999,76,32,0
133.17334,133.28314,69,41,0
133.17334,133.28314,72,41,0
133.17334,133.28314,76,41,0
133.31973,133.61278,71,45,0
133.31973,133.61278,77,45,0
133.31973,133.61278,81,45,0
133.61278,133.7233,71,36,0
133.61278,133.7233,77,36,0
133.61278,133.7233,81,36,0
133.7606,133.98502,71,41,0
133.7606,133.98502,77,41,0
133.7606,133.98502,79,41,0
134.0604,134.17346,71,30,0
134.0604,134.17346,77,30,0
134.0604,134.17346,79,30,0
134.21115,134.51265,63,40,0
134.21115,134.51265,60,40,0
134.51265,134.62572,67,49,0
134.51265,134.62572,63,49,0
134.51265,134.62572,60,49,0
134.6634,134.88954,67,52,0
134.6634,134.88954,63,52,0
134.6634,134.88954,60,52,0
134.96492,135.07797,67,46,0
134.96492,135.07797,63,46,0
134.96492,135.07797,60,46,0
135.11566,135.4159,67,59,0
135.11566,135.4159,63,59,0
135.11566,135.4159,60,59,0
135.4159,135.52756,60,52,0
135.4159,135.52756,63,52,0
135.4159,135.52756,68,52,0
135.56477,135.7881,63,66,0
135.56477,135.7881,68,66,0
135.56477,135.7881,60,66,0
135.86255,135.97421,60,66,0
135.86255,135.97421,63,66,0
135.86255,135.97421,69,66,0
136.01138,136.30406,65,71,0
136.01138,136.30406,72,71,0
136.01138,136.30406,62,71,0
136.30406,136.41382,65,59,0
136.30406,136.41382,62,59,0
136.30406,136.41382,70,59,0
136.45041,136.66992,66,62,0
136.45041,136.66992,70,62,0
136.45041,136.66992,63,62,0
136.74309,136.85284,66,69,0
136.74309,136.85284,70,69,0
136.74309,136.85284,63,69,0
136.88943,137.1781,67,72,0
136.88943,137.1781,70,72,0
136.88943,137.1781,64,72,0
137.1781,137.28601,67,76,0
137.1781,137.28601,70,76,0
137.1781,137.28601,64,76,0
137.32198,137.53726,68,77,0
137.32198,137.53726,70,77,0
137.32198,137.53726,65,77,0
137.60835,137.715,68,84,0
137.60835,137.715,70,84,0
137.60835,137.715,65,84,0
137.75053,138.0349,67,92,0
137.75053,138.0349,70,92,0
138.0349,138.14153,70,70,0
138.0349,138.14153,67,70,0
138.0349,138.14153,75,70,0
138.17708,138.39035,70,80,0
138.17708,138.39035,67,80,0
138.17708,138.39035,75,80,0
138.46144,138.56807,70,86,0
138.46144,138.56807,67,86,0
138.46144,138.56807,75,86,0
138.60362,138.88797,70,90,0
138.60362,138.88797,67,90,0
138.60362,138.88797,74,90,0
138.88797,138.99461,67,86,0
138.88797,138.99461,75,86,0
138.88797,138.99461,70,86,0
139.03015,139.24342,67,94,0
139.03015,139.24342,70,94,0
139.03015,139.24342,75,94,0
139.31451,139.42116,67,86,0
139.31451,139.42116,75,86,0
139.31451,139.42116,70,86,0
139.4567,139.74106,68,95,0
139.4567,139.74106,72,95,0
139.4567,139.74106,79,95,0
139.74106,139.84769,68,77,0
139.74106,139.84769,77,77,0
139.74106,139.84769,72,77,0
139.88324,140.09853,69,83,0
139.88324,140.09853,77,83,0
139.88324,140.09853,72,83,0
140.17047,140.27838,77,81,0
140.17047,140.27838,72,81,0
140.17047,140.27838,69,81,0
140.31435,140.60666,70,78,0
140.31435,140.60666,73,78,0
140.31435,140.60666,77,78,0
140.60666,140.71776,70,63,0
140.60666,140.71776,73,63,0
140.60666,140.71776,77,63,0
140.75497,140.97958,71,68,0
140.75497,140.97958,77,68,0
140.75497,140.97958,74,68,0
141.05496,141.16803,71,56,0
141.05496,141.16803,77,56,0
141.05496,141.16803,74,56,0
141.20572,141.50626,72,56,0
141.20572,141.50626,75,56,0
141.50626,141.61803,72,48,0
141.50626,141.61803,75,48,0
141.50626,141.61803,80,48,0
141.65506,141.87695,72,46,0
141.65506,141.87695,75,46,0
141.65506,141.87695,79,46,0
141.95012,142.0597,72,41,0
141.95012,142.0597,75,41,0
141.95012,142.0597,79,41,0
142.0961,142.38736,74,45,0
142.0961,142.38736,80,45,0
142.0961,142.38736,84,45,0
142.38736,142.49677,74,36,0
142.38736,142.49677,80,36,0
142.38736,142.49677,84,36,0
142.53362,142.75589,74,41,0
142.53362,142.75589,80,41,0
142.53362,142.75589,82,41,0
142.8307,142.94292,74,30,0
142.8307,142.94292,80,30,0
142.8307,142.94292,82,30,0
142.9804,143.28186,72,40,0
142.9804,143.28186,75,40,0
143.27934,143.39268,80,35,0
143.28186,143.3952,72,35,0
143.28186,143.3952,75,35,0
143.433,143.6597,72,32,0
143.433,143.6597,75,32,0
143.433,143.6597,79,32,0
143.73526,143.85013,72,33,0
143.73526,143.85013,75,33,0
143.73526,143.85013,79,33,0
143.8888,144.20323,74,41,0
143.8888,144.20323,80,41,0
143.8888,144.20323,84,41,0
144.20323,144.32388,74,37,0
144.20323,144.32388,80,37,0
144.20323,144.32388,84,37,0
144.36453,144.61482,74,34,0
144.36453,144.61482,80,34,0
144.36453,144.61482,82,34,0
144.70178,144.83221,74,32,0
144.70178,144.83221,80,32,0
144.70178,144.83221,82,32,0
144.87584,145.21425,66,40,0
144.87584,145.21425,63,40,0
145.21425,145.32951,63,27,0
145.21425,145.32951,66,27,0
145.21425,145.32951,70,27,0
145.3674,145.59467,63,35,0
145.3674,145.59467,66,35,0
145.3674,145.59467,70,35,0
145.67007,145.78201,63,32,0
145.67007,145.78201,66,32,0
145.67007,145.78201,70,32,0
145.81934,146.11725,63,42,0
145.81934,146.11725,66,42,0
145.81934,146.11725,70,42,0
146.11725,146.22781,63,34,0
146.11725,146.22781,66,34,0
146.11725,146.22781,71,34,0
146.26466,146.48526,63,43,0
146.26466,146.48526,66,43,0
146.26466,146.48526,71,43,0
146.55879,146.66823,63,40,0
146.55879,146.66823,66,40,0
146.55879,146.66823,72,40,0
146.70464,146.9959,65,52,0
146.70464,146.9959,68,52,0
146.70464,146.9959,75,52,0
146.9959,147.10512,65,44,0
146.9959,147.10512,68,44,0
146.9959,147.10512,73,44,0
147.14153,147.3576,73,42,0
147.14153,147.3576,69,42,0
147.14153,147.3576,66,42,0
147.42955,147.53746,66,50,0
147.42955,147.53746,69,50,0
147.42955,147.53746,73,50,0
147.57344,147.85959,67,57,0
147.57344,147.85959,70,57,0
147.57344,147.85959,73,57,0
147.85959,147.96648,67,52,0
147.85959,147.96648,70,52,0
147.85959,147.96648,73,52,0
148.0021,148.2158,68,46,0
148.0021,148.2158,71,46,0
148.0021,148.2158,73,46,0
148.28639,148.39227,68,42,0
148.28639,148.39227,71,42,0
148.28639,148.39227,73,42,0
148.42767,148.71365,70,48,0
148.42767,148.71365,73,48,0
148.71365,148.81854,73,49,0
148.71365,148.81854,70,49,0
148.71365,148.81854,78,49,0
148.85352,149.06264,73,52,0
148.85352,149.06264,70,52,0
148.85352,149.06264,78,52,0
149.13208,149.23625,73,46,0
149.13208,149.23625,70,46,0
149.13208,149.23625,78,46,0
149.27097,149.54958,73,59,0
149.27097,149.54958,70,59,0
149.27097,149.54958,77,59,0
149.54958,149.6557,70,52,0
149.54958,149.6557,78,52,0
149.54958,149.6557,73,52,0
149.69109,149.90302,70,66,0
149.69109,149.90302,73,66,0
149.69109,149.90302,78,66,0
149.9736,150.08015,70,66,0
149.9736,150.08015,78,66,0
149.9736,150.08015,73,66,0
150.11586,150.40228,71,70,0
150.11586,150.40228,75,70,0
150.11586,150.40228,82,70,0
150.40228,150.51047,71,76,0
150.40228,150.51047,80,76,0
150.40228,150.51047,75,76,0
150.54652,150.76306,72,79,0
150.54652,150.76306,80,79,0
150.54652,150.76306,75,79,0
150.8357,150.94487,80,83,0
150.8357,150.94487,75,83,0
150.8357,150.94487,72,83,0
150.98172,151.27782,73,87,0
150.98172,151.27782,76,87,0
150.98172,151.27782,80,87,0
151.27782,151.39067,73,94,0
151.27782,151.39067,76,94,0
151.27782,151.39067,80,94,0
151.42883,151.66733,74,97,0
151.42883,151.66733,80,97,0
151.42883,151.66733,77,97,0
151.75192,151.8809,74,100,0
151.75192,151.8809,80,100,0
151.75192,151.8809,77,100,0
151.92429,152.21696,75,113,0
151.92429,152.21696,78,113,0
152.21696,152.32672,78,93,0
152.21696,152.32672,82,93,0
152.3633,152.65456,78,98,0
152.3633,152.65456,90,98,0
152.3633,152.65456,87,98,0
152.3633,152.65456,82,98,0
152.65456,152.76372,78,104,0
152.65456,152.76372,90,104,0
152.65456,152.76372,87,104,0
152.65456,152.76372,82,104,0
152.79994,153.08932,77,113,0
152.79994,153.08932,89,113,0
152.79994,153.08932,85,113,0
152.79994,153.08932,82,113,0
153.23354,153.52063,70,121,0
153.6637,153.94942,75,113,0
153.6637,153.94942,87,113,0
153.6637,153.94942,82,113,0
153.6637,153.94942,78,113,0
153.94942,154.05626,78,93,0
153.94942,154.05626,87,93,0
153.94942,154.05626,75,93,0
153.94942,154.05626,82,93,0
154.0918,154.37616,78,98,0
154.0918,154.37616,90,98,0
154.0918,154.37616,87,98,0
154.0918,154.37616,82,98,0
154.37616,154.4828,78,104,0
154.37616,154.4828,90,104,0
154.37616,154.4828,87,104,0
154.37616,154.4828,82,104,0
154.51833,154.80135,77,113,0
154.51833,154.80135,89,113,0
154.51833,154.80135,85,113,0
154.51833,154.80135,82,113,0
154.94218,155.22388,70,121,0
155.36449,155.64487,71,113,0
155.36449,155.64487,75,113,0
155.36449,155.64487,83,113,0
155.36449,155.64487,78,113,0
155.64487,155.75,78,93,0
155.64487,155.75,75,93,0
155.64487,155.75,83,93,0
155.64487,155.75,71,93,0
155.78505,156.06543,78,98,0
155.78505,156.06543,87,98,0
155.78505,156.06543,75,98,0
155.78505,156.06543,83,98,0
156.06543,156.17056,78,104,0
156.06543,156.17056,87,104,0
156.06543,156.17056,75,104,0
156.06543,156.17056,83,104,0
156.20561,156.48598,73,113,0
156.20561,156.48598,82,113,0
156.20561,156.48598,85,113,0
156.20561,156.48598,78,113,0
156.62617,156.90654,66,121,0
157.04672,157.32777,68,113,0
157.04672,157.32777,71,113,0
157.04672,157.32777,80,113,0
157.04672,157.32777,75,113,0
157.32777,157.43365,75,93,0
157.32777,157.43365,71,93,0
157.32777,157.43365,80,93,0
157.32777,157.43365,68,93,0
157.46895,157.75131,75,98,0
157.46895,157.75131,83,98,0
157.46895,157.75131,71,98,0
157.46895,157.75131,80,98,0
157.75131,157.8572,75,104,0
157.75131,157.8572,71,104,0
157.75131,157.8572,83,104,0
157.75131,157.8572,80,104,0
157.89249,158.17723,80,113,0
157.89249,158.17723,75,113,0
157.89249,158.17723,71,113,0
158.17723,158.28462,80,99,0
158.17723,158.28462,75,99,0
158.17723,158.28462,71,99,0
158.32042,158.60872,75,104,0
158.32042,158.60872,71,104,0
158.60872,158.71822,75,104,0
158.60872,158.71822,71,104,0
158.75471,159.0476,71,109,0
159.0476,159.15845,71,106,0
159.19539,159.49095,71,116,0
159.19539,159.49095,75,116,0
159.49095,159.60179,71,108,0
159.49095,159.60179,75,108,0
159.63873,159.93935,80,121,0
159.63873,159.93935,75,121,0
159.63873,159.93935,71,121,0
159.93935,160.05399,80,122,0
159.93935,160.05399,75,122,0
159.93935,160.05399,71,122,0
160.09245,160.40561,83,127,0
160.09245,160.40561,80,127,0
160.09245,160.40561,75,127,0
160.40561,160.52911,83,127,0
160.40561,160.52911,80,127,0
160.40561,160.52911,75,127,0
160.58403,160.77231,82,127,0
160.58403,160.77231,80,127,0
160.58403,160.77231,74,127,0
160.83383,161.00697,68,97,0
161.00697,161.16528,71,101,0
161.16528,161.3167,70,102,0
161.3167,161.46548,68,103,0
161.46548,161.6128,66,108,0
161.6128,161.75882,65,109,0
161.75882,161.90308,63,111,0
161.90308,162.04573,61,113,0
162.04573,162.18747,59,118,0
162.18747,162.32812,58,120,0
162.32812,162.4683,57,125,0
162.4683,162.58835,58,127,0
162.63,162.77588,68,97,0
162.77588,162.91946,71,101,0
162.91946,163.0621,70,102,0
163.0621,163.20418,68,103,0
163.20418,163.34569,66,108,0
163.34569,163.48666,65,109,0
163.48666,163.62741,63,111,0
163.62741,163.7675,61,113,0
163.7675,163.90703,59,118,0
163.90703,164.04593,58,120,0
164.04593,164.1843,57,125,0
164.1843,164.30399,58,127,0
164.34564,164.49014,56,97,0
164.49014,164.63347,59,101,0
164.63347,164.7759,58,102,0
164.7759,164.91753,56,103,0
164.91753,165.05882,54,108,0
165.05882,165.19934,53,109,0
165.19934,165.33911,51,111,0
165.33911,165.47833,49,113,0
165.47833,165.6167,47,118,0
165.6167,165.75453,46,120,0
165.75453,165.89195,45,125,0
165.89195,166.03883,46,127,0
166.03883,166.1752,48,126,0
166.1752,166.31157,50,126,0
166.31157,166.44907,51,124,0
166.44907,166.58769,53,122,0
166.58769,166.72942,54,121,0
166.72942,166.8729,56,120,0
166.8729,167.01857,58,117,0
167.01857,167.16492,60,115,0
167.16492,167.31375,62,115,0
167.31375,167.46513,63,113,0
167.46513,167.6178,65,107,0
167.6178,167.77264,66,107,0
167.77264,167.9298,68,97,0
167.9298,168.0912,70,96,0
168.0912,168.25604,72,90,0
168.25604,168.42102,74,85,0
168.42102,168.59435,75,78,0
168.59435,168.77007,77,76,0
168.77007,168.95021,78,66,0
168.95021,169.13478,80,59,0
169.13478,169.33287,82,55,0
169.33287,169.53577,84,55,0
169.53577,169.75005,86,65,0
169.74648,170.1358,87,68,0
169.74648,170.1358,94,68,0
170.29729,170.60953,87,58,0
170.76378,171.0699,70,63,0
171.2225,171.52325,63,56,0
171.67363,172.41734,87,59,0
171.67363,172.41734,75,59,0
172.5644,173.29317,80,59,0
172.5644,173.29317,68,59,0
173.43845,173.7269,78,46,0
173.87114,174.15817,82,50,0
173.87114,174.15817,70,50,0
174.30069,174.58488,65,47,0
174.7264,175.0094,70,56,0
175.15091,175.29242,94,68,0
175.29242,175.43393,93,58,0
175.43393,175.57544,94,56,0
175.57544,175.85846,87,53,0
175.99997,176.14148,70,68,0
176.14148,176.28299,69,58,0
176.28299,176.4245,70,56,0
176.4245,176.70752,63,56,0
176.84792,176.98811,87,45,0
176.98811,177.1283,86,51,0
177.1283,177.26848,85,56,0
177.26848,177.40866,84,60,0
177.40866,177.54886,83,64,0
177.54886,177.68904,82,66,0
177.68904,177.82922,81,66,0
177.82922,177.9694,80,66,0
177.9694,178.1096,79,63,0
178.1096,178.24979,80,61,0
178.24979,178.38997,82,57,0
178.38997,178.53017,83,55,0
178.53017,178.81021,82,51,0
178.94846,179.22496,78,44,0
178.94846,179.22496,66,44,0
179.3632,179.63892,65,51,0
179.3632,179.63892,77,51,0
179.77621,180.05081,70,51,0
179.77621,180.05081,82,51,0
180.18811,180.32541,66,33,0
180.32541,180.4627,65,37,0
180.4627,180.6,66,41,0
180.6,180.87721,70,43,0
181.01675,181.1587,65,30,0
181.1587,181.3026,64,33,0
181.3026,181.44861,65,36,0
181.44861,181.74393,70,40,0
181.8943,182.04533,54,28,0
182.04533,182.19957,53,33,0
182.19957,182.3538,54,37,0
182.3538,182.67105,58,39,0
182.83498,183.00693,53,26,0
183.00693,183.19342,52,30,0
183.19342,183.399,53,32,0
183.399,183.91562,58,37,0
185.30278,186.24408,79,46,0
185.30278,186.24408,67,46,0
186.24408,187.13976,75,40,0
186.24408,187.13976,63,40,0
187.13976,187.572,71,42,0
187.13976,187.572,59,42,0
187.572,187.99677,67,37,0
187.99677,188.76639,60,42,0
187.99677,188.76639,72,42,0
188.83566,189.66327,72,51,0
188.83566,189.66327,60,51,0
189.66327,190.41695,60,43,0
189.66327,190.41695,72,43,0
190.48544,190.89561,71,41,0
190.48544,190.89561,59,41,0
190.89561,191.30563,67,35,0
191.30563,192.05734,60,49,0
191.30563,192.05734,72,49,0
192.12569,192.5357,69,46,0
192.12569,192.5357,57,46,0
192.5357,192.94572,65,44,0
192.94572,193.70569,58,45,0
192.94572,193.70569,70,45,0
193.77579,194.6341,70,46,0
193.77579,194.6341,58,46,0
194.6341,195.44563,58,45,0
194.6341,195.44563,70,45,0
195.52275,195.99457,68,44,0
195.52275,195.99457,56,44,0
195.99457,196.48389,65,38,0
195.99457,196.48389,53,38,0
196.48389,196.95859,51,40,0
196.48389,196.95859,63,40,0
197.41295,198.27538,67,46,0
198.27538,199.1289,63,40,0
199.1289,199.55244,59,42,0
199.55244,199.97531,55,37,0
199.55244,199.97531,53,37,0
200.39294,200.74097,52,41,0
199.97531,200.74097,60,42,0
201.22821,201.64748,53,37,0
200.81058,201.64748,60,47,0
202.07101,202.42535,52,36,0
201.64748,202.42535,60,44,0
202.49678,202.92535,59,45,0
202.92535,203.35927,55,39,0
202.92535,203.35927,53,39,0
203.79405,204.15927,53,39,0
203.35927,204.15927,60,49,0
204.23299,204.68256,57,43,0
204.68256,205.13632,53,44,0
204.68256,205.13632,51,43,0
205.60025,205.99171,51,40,0
205.13632,205.99171,58,45,0
206.5616,207.06772,53,42,0
206.07108,207.06772,58,52,0
207.59459,208.0489,51,38,0
207.06772,208.0489,58,43,0
208.14178,208.73244,56,43,0
208.73244,209.37895,53,31,0
208.73244,209.37895,50,31,0
214.02135,214.45094,66,45,0
214.45094,215.26912,75,50,0
215.26912,215.68048,73,48,0
215.68048,216.10048,70,41,0
216.13318,216.2994,70,39,0
216.2994,216.43575,71,42,0
216.43575,216.57211,73,45,0
216.57211,216.71474,75,49,0
216.71474,216.85725,71,46,0
216.85725,216.99977,73,43,0
216.99977,217.28369,66,40,0
217.71008,217.8684,66,39,0
217.8684,218.70776,76,51,0
218.70776,219.12279,75,44,0
219.12279,219.53752,73,37,0
219.53752,220.35635,72,49,0
220.35635,220.76724,73,45,0
220.76724,221.11821,75,40,0
221.18852,221.34328,72,39,0
221.34328,221.48445,73,42,0
221.48445,221.6273,75,45,0
221.6273,221.77017,73,47,0
221.77017,221.91302,82,49,0
221.91302,222.0568,78,51,0
222.0568,222.20103,77,54,0
222.20103,222.34666,75,54,0
222.34666,222.4923,73,49,0
222.4923,222.63792,71,46,0
222.63792,222.78534,70,42,0
222.78534,222.93275,68,39,0
222.93275,223.59723,66,37,0
223.66953,223.81204,66,49,0
223.81204,223.95355,73,52,0
224.09363,224.23349,73,46,0
224.23349,224.37206,70,53,0
224.51004,224.64671,70,46,0
224.64671,224.78339,76,59,0
224.92006,225.05673,76,45,0
225.05673,225.19342,73,54,0
225.3301,225.46677,73,47,0
225.46677,225.60344,70,55,0
225.74089,225.87915,70,42,0
225.87915,226.0174,73,49,0
226.15698,226.29684,73,39,0
226.29684,226.57932,66,50,0
226.57932,226.65007,68,46,0
226.65007,226.72083,70,42,0
226.72083,226.8625,71,38,0
227.00435,227.14618,71,40,0
227.14618,227.28584,75,55,0
227.42426,227.56186,75,41,0
227.56186,227.69948,71,50,0
227.83684,227.97289,71,41,0
227.97289,228.10832,78,57,0
228.24347,228.3786,78,44,0
228.3786,228.51373,75,55,0
228.64886,228.784,75,46,0
228.784,228.91914,80,54,0
229.05428,229.1894,80,39,0
229.1894,229.32454,77,50,0
229.45967,229.59482,77,36,0
229.59482,230.20293,78,48,0
230.2705,230.40562,78,52,0
230.40562,230.5406,78,61,0
230.5406,230.65236,85,43,0
230.67468,230.78629,85,54,0
230.80861,230.94185,85,65,0
230.94185,231.05223,82,48,0
231.0743,231.18468,82,54,0
231.20665,231.33852,82,70,0
231.33852,231.44841,88,49,0
231.47038,231.5798,88,55,0
231.60168,231.73297,88,69,0
231.73297,231.84238,85,52,0
231.86426,231.97368,85,56,0
231.99556,232.12685,85,70,0
232.12685,232.23625,82,48,0
232.25829,232.36841,82,56,0
232.39044,232.52333,82,67,0
232.52333,232.6353,85,54,0
232.65787,232.77104,85,49,0
232.79393,233.07114,78,58,0
233.07114,233.14273,80,57,0
233.14273,233.21432,82,54,0
233.21432,233.35753,83,52,0
233.50073,233.64348,83,56,0
233.64348,233.78351,83,64,0
233.78351,233.89624,87,47,0
233.91866,234.02988,87,51,0
234.05199,234.18474,87,62,0
234.18474,234.29535,83,50,0
234.31747,234.4281,83,53,0
234.45023,234.58296,83,65,0
234.58296,234.69359,90,55,0
234.71616,234.82903,90,58,0
234.8516,234.98705,90,72,0
234.98705,235.10072,87,52,0
235.1235,235.2374,87,64,0
235.26161,235.40689,89,69,0
235.40689,235.52795,95,51,0
235.55217,235.67323,95,56,0
235.69745,235.84273,98,66,0
235.84273,235.96379,89,50,0
235.988,236.10907,89,54,0
236.13329,236.62836,90,62,0
236.7003,236.82137,88,43,0
236.846,236.96915,87,47,0
236.99402,237.1184,85,50,0
237.14328,237.26765,83,44,0
237.29253,237.4169,82,38,0
237.44179,237.56616,80,41,0
237.59103,237.71541,78,45,0
237.7403,237.86467,76,50,0
237.88954,238.70772,75,52,0
238.70772,239.11908,73,38,0
239.11908,239.5391,70,37,0
239.5718,239.73799,70,46,0
239.73799,239.87436,71,48,0
239.87436,240.01071,73,50,0
240.01071,240.15363,75,51,0
240.15363,240.2965,71,48,0
240.2965,240.43935,73,44,0
240.43935,240.72507,66,40,0
241.15363,241.2965,66,44,0
241.2965,242.14108,76,46,0
242.14108,242.5568,75,41,0
242.5568,242.96996,71,34,0
242.96996,243.79039,70,48,0
243.79039,244.2006,71,46,0
244.2006,244.5519,80,39,0
244.62221,244.77696,77,34,0
244.77696,244.91814,78,37,0
244.91814,245.06134,80,40,0
245.06134,245.20454,78,42,0
245.20454,245.34773,87,44,0
245.34773,245.49231,83,46,0
245.49231,245.63689,82,48,0
245.63689,245.78146,80,47,0
245.78146,245.92693,78,41,0
245.92693,246.07327,76,39,0
246.07327,246.21962,75,37,0
246.21962,246.36743,73,33,0
246.36743,247.03912,71,29,0
247.11107,247.25496,71,49,0
247.25496,247.39726,78,52,0
247.53876,247.67831,78,46,0
247.67831,247.81688,75,53,0
247.95544,248.09276,75,46,0
248.09276,248.22882,81,59,0
248.36487,248.50092,81,45,0
248.50092,248.63698,78,54,0
248.77303,248.90909,78,47,0
248.90909,249.04514,75,55,0
249.1812,249.31912,75,42,0
249.31912,249.45753,78,49,0
249.59642,249.73596,78,39,0
249.73596,250.01732,71,50,0
250.01732,250.08824,73,46,0
250.08824,250.15916,75,42,0
250.15916,250.30101,76,38,0
250.44286,250.58386,76,40,0
250.58386,250.72383,80,55,0
250.86273,251.00098,80,41,0
251.00098,251.1386,76,50,0
251.27557,251.41164,76,41,0
251.41164,251.54707,83,57,0
251.68251,251.81796,83,44,0
251.81796,251.9534,80,55,0
252.08884,252.22427,80,46,0
252.22427,252.35971,85,54,0
252.49516,252.6306,85,39,0
252.6306,252.76604,82,50,0
252.90147,253.03691,82,36,0
253.03691,253.44324,83,48,0
253.44324,253.57867,95,68,0
253.71411,253.84956,71,52,0
253.84956,253.985,71,61,0
253.985,254.09746,78,48,0
254.11963,254.2305,78,52,0
254.25267,254.38571,78,65,0
254.38571,254.49658,75,51,0
254.51875,254.62961,75,54,0
254.6516,254.78346,75,70,0
254.78346,254.89334,81,51,0
254.91533,255.02522,81,52,0
255.0472,255.17906,81,69,0
255.17906,255.28896,78,53,0
255.31093,255.4201,78,58,0
255.44185,255.57228,78,70,0
255.57228,255.68097,75,49,0
255.70271,255.8114,75,53,0
255.83315,255.96512,75,67,0
255.96512,256.07675,78,53,0
256.09937,256.21323,78,49,0
256.2362,256.51566,71,53,0
256.51566,256.5869,73,57,0
256.5869,256.6585,75,54,0
256.6585,256.8017,76,52,0
256.9449,257.0881,76,56,0
257.0881,257.22827,76,64,0
257.22827,257.34167,80,49,0
257.36383,257.4747,80,52,0
257.4969,257.6299,80,62,0
257.6299,257.74078,76,48,0
257.76294,257.8738,76,53,0
257.896,258.02902,76,65,0
258.02902,258.13998,83,54,0
258.16226,258.2748,83,58,0
258.2974,258.43362,83,72,0
258.43362,258.54776,80,57,0
258.5706,258.6883,80,63,0
258.7147,258.8716,82,69,0
258.8716,258.99667,88,52,0
259.02167,259.1452,88,58,0
259.1697,259.31677,91,66,0
259.31677,259.4379,82,49,0
259.46204,259.58282,82,54,0
259.60696,260.09692,83,62,0
260.16687,260.28342,81,44,0
260.30673,260.42328,80,46,0
260.4466,260.56314,78,49,0
260.58646,260.703,76,48,0
260.7263,260.84286,75,42,0
260.86615,260.9827,73,40,0
261.006,261.12256,71,38,0
261.14587,261.26242,70,36,0
261.28574,261.40228,68,40,0
261.4256,261.54214,66,38,0
261.56546,261.682,64,33,0
261.70532,261.82187,63,31,0
261.84518,261.96173,61,27,0
264.47226,264.60892,83,33,0
264.60892,264.7456,71,38,0
264.88226,265.01895,71,36,0
265.01895,265.15564,83,40,0
265.2923,265.429,83,41,0
265.429,265.56564,71,45,0
265.70233,265.839,71,41,0
265.839,265.97568,83,45,0
266.11234,266.24902,83,36,0
266.24902,266.3922,71,40,0
266.5354,266.67862,71,35,0
266.67862,266.8218,83,40,0
266.965,267.10822,83,37,0
267.10822,267.24597,71,43,0
267.38263,267.51932,71,40,0
267.51932,267.65598,83,44,0
267.79266,267.92932,83,44,0
267.92932,268.07254,71,50,0
268.21573,268.35892,71,33,0
268.35892,268.50214,83,32,0
268.64532,268.7885,83,32,0
268.7885,268.9247,71,32,0
269.05774,269.18942,71,32,0
269.18942,269.32043,83,32,0
269.4507,269.58032,83,32,0
269.58032,269.7099,71,33,0
269.84116,269.97333,71,36,0
269.97333,270.10715,83,37,0
270.24304,270.38147,71,40,0
270.38147,270.52133,72,44,0
270.6625,270.8018,84,50,0
270.8018,270.94003,86,55,0
271.07745,271.21365,74,59,0
271.21365,271.3497,73,61,0
271.48575,271.62183,73,56,0
271.62183,271.75787,85,54,0
271.89392,272.02997,76,50,0
272.02997,272.16602,88,48,0
272.3021,272.43814,81,43,0
272.43814,272.5742,93,40,0
272.71024,272.84628,81,40,0
272.84628,272.9895,69,51,0
273.1327,273.27588,69,34,0
273.27588,273.4191,81,34,0
273.5623,273.70547,81,34,0
273.70547,273.842,69,34,0
273.97516,274.10718,69,36,0
274.10718,274.23846,81,39,0
274.3689,274.49933,81,49,0
274.49933,274.64252,69,51,0
274.78574,274.92892,69,33,0
274.92892,275.0721,81,33,0
275.21533,275.35852,81,36,0
275.35852,275.4948,69,36,0
275.6276,275.76004,69,36,0
275.76004,275.8913,81,37,0
276.02173,276.15137,81,39,0
276.15137,276.28113,69,41,0
276.41187,276.5449,69,46,0
276.5449,276.67868,81,48,0
276.8132,276.95178,69,57,0
276.95178,277.09225,70,58,0
277.2331,277.37256,82,62,0
277.37256,277.51105,84,66,0
277.64804,277.78397,72,69,0
277.78397,277.91974,71,81,0
278.05548,278.19122,71,64,0
278.19122,278.32697,83,70,0
278.4627,278.59845,74,57,0
278.59845,278.7342,86,64,0
278.86996,279.0057,79,51,0
279.0057,279.14145,91,57,0
279.2772,279.54868,67,82,0
279.68442,279.8202,67,54,0
279.8202,279.95593,79,66,0
280.09167,280.22742,79,65,0
280.22742,280.36316,67,74,0
280.4989,280.63464,67,75,0
280.63464,280.77042,79,82,0
280.90616,281.0419,79,71,0
281.0419,281.17764,67,84,0
281.3134,281.44913,67,75,0
281.44913,281.58487,79,83,0
281.72064,281.85638,79,70,0
281.85638,281.99213,72,79,0
282.12787,282.2636,72,66,0
282.2636,282.39935,84,75,0
282.5351,282.67087,84,57,0
282.67087,282.8066,72,66,0
282.94235,283.0781,72,55,0
283.0781,283.21384,84,65,0
283.34958,283.48532,84,66,0
283.48532,283.6211,72,78,0
283.75684,283.90002,84,81,0
283.90002,284.0432,96,114,0
284.1799,284.31656,84,64,0
284.31656,284.45325,72,70,0
284.5899,284.7266,72,56,0
284.7266,284.86328,84,62,0
284.99994,285.13663,84,67,0
285.13663,285.2733,72,72,0
285.40997,285.55283,84,81,0
285.55283,285.69568,96,114,0
285.83853,285.98083,84,64,0
285.98083,286.11972,72,67,0
286.2586,286.3975,72,47,0
286.3975,286.53638,84,47,0
286.67526,286.81415,84,49,0
286.81415,286.95303,72,50,0
287.0901,287.22678,72,54,0
287.22678,287.36334,84,55,0
287.4997,287.63586,84,59,0
287.63586,287.7719,72,62,0
287.90735,288.0427,72,67,0
288.0427,288.17783,84,71,0
288.31265,288.4473,84,75,0
288.4473,288.5816,72,76,0
288.71555,288.84927,72,78,0
288.84927,288.9828,85,80,0
289.11612,289.24945,85,82,0
289.24945,289.3826,74,85,0
289.51535,289.6478,74,88,0
289.6478,289.78024,86,89,0
289.9126,290.04477,86,90,0
290.04477,290.17664,74,93,0
290.3084,290.43997,74,95,0
290.43997,290.57126,86,96,0
290.70236,290.83337,74,94,0
290.83337,290.9644,76,90,0
291.09537,291.22638,76,82,0
291.22638,291.3574,88,77,0
291.4884,291.6194,88,73,0
291.6194,291.7504,76,73,0
291.8814,292.0124,76,76,0
292.0124,292.1434,88,80,0
292.2744,292.40543,88,87,0
292.40543,292.5364,77,88,0
292.66742,292.79843,77,92,0
292.79843,292.92944,89,94,0
293.06042,293.19144,89,94,0
293.19144,293.32245,77,87,0
293.45346,293.58444,77,87,0
293.58444,293.71545,89,88,0
293.84647,293.97748,89,90,0
293.97748,294.10846,77,90,0
294.23947,294.37048,77,94,0
294.37048,294.5015,89,96,0
294.63248,294.7635,89,99,0
294.7635,294.8945,77,103,0
295.02548,295.1687,89,113,0
295.1687,295.3119,101,127,0
295.44858,295.58524,89,97,0
295.58524,295.72192,77,95,0
295.85858,295.99527,77,93,0
295.99527,296.13193,89,93,0
296.26862,296.40527,89,94,0
296.40527,296.54196,77,97,0
296.67862,296.8215,89,111,0
296.8215,296.96436,101,127,0
297.1072,297.25006,89,109,0
297.25006,297.38632,77,104,0
297.52206,297.65784,77,97,0
297.65784,297.79358,89,95,0
297.92932,298.06506,89,92,0
298.06506,298.2008,77,90,0
298.33655,298.4723,77,87,0
298.4723,298.60806,89,87,0
298.7438,298.87955,89,86,0
298.87955,299.0153,77,84,0
299.15103,299.28677,77,82,0
299.28677,299.42252,89,82,0
299.5583,299.69403,89,82,0
299.69403,299.82977,77,85,0
299.9655,300.10126,77,91,0
300.10126,300.237,90,96,0
300.37274,300.5085,90,99,0
300.5085,300.64426,79,103,0
300.78,300.91574,79,103,0
300.91574,301.05148,91,108,0
301.18723,301.32376,91,105,0
301.32376,301.46136,79,112,0
301.59982,301.7387,79,108,0
301.7387,301.8787,91,115,0
302.0189,302.16016,79,115,0
302.16016,302.30167,81,122,0
302.44263,302.5825,81,119,0
302.5825,302.72235,93,118,0
302.86124,303.00012,69,84,0
303.00012,303.13947,72,85,0
303.27963,303.41983,72,93,0
303.41983,303.562,75,96,0
303.70447,303.8486,75,103,0
303.8486,303.99387,77,107,0
304.13913,304.2871,77,113,0
304.2871,304.43564,81,115,0
304.58414,304.73236,81,120,0
304.73236,304.88486,82,121,0
304.88486,305.03232,80,113,0
305.03232,305.17148,78,104,0
305.17148,305.30804,77,94,0
305.30804,305.44382,75,89,0
305.44382,305.57956,73,85,0
305.57956,305.7153,72,82,0
305.7153,305.85104,73,76,0
305.85104,305.9868,74,77,0
305.9868,306.12253,75,83,0
306.12253,306.25827,76,85,0
306.25827,306.39322,77,91,0
306.39322,306.52655,78,98,0
306.52655,306.6586,80,100,0
306.6586,306.7893,82,102,0
306.7893,306.92,84,111,0
306.92,307.05075,85,118,0
307.05075,307.18146,87,125,0
307.18146,307.31216,89,127,0
307.31216,307.4429,85,113,0
307.4429,307.5746,80,100,0
307.5746,307.70718,77,88,0
307.70718,307.84036,73,81,0
307.84036,307.97412,77,70,0
307.97412,308.10867,80,101,0
308.10867,308.2432,77,98,0
308.2432,308.37848,68,89,0
308.37848,308.51486,77,81,0
308.51486,308.65216,73,73,0
308.65216,308.78946,68,66,0
308.78946,308.92834,78,80,0
308.92834,309.06757,75,74,0
309.06757,309.20874,68,63,0
309.20874,309.3516,75,51,0
309.3516,309.4976,72,45,0
309.4976,309.64795,68,43,0
309.64795,309.79282,89,126,0
309.79282,309.93106,85,118,0
309.93106,310.0678,80,99,0
310.0678,310.2037,77,80,0
310.2037,310.3389,73,74,0
310.3389,310.4728,77,65,0
310.4728,310.60675,80,83,0
310.60675,310.74188,77,79,0
310.74188,310.87762,68,74,0
310.87762,311.0151,77,67,0
311.0151,311.15497,73,62,0
311.15497,311.29514,68,59,0
311.29514,311.4373,78,68,0
311.4373,311.5808,75,61,0
311.5808,311.72437,68,53,0
311.72437,311.86884,75,43,0
311.86884,312.01517,72,40,0
312.01517,312.16333,68,43,0
312.16333,312.31183,76,51,0
312.31183,312.45944,73,46,0
312.45944,312.60614,68,52,0
312.60614,312.75214,76,66,0
312.75214,312.8974,74,64,0
312.8974,313.0427,68,68,0
313.0427,313.18652,76,80,0
313.18652,313.32864,72,74,0
313.32864,313.4694,69,82,0
313.4694,313.6099,76,94,0
313.6099,313.7504,72,90,0
313.7504,313.89093,70,94,0
313.89093,314.0306,77,107,0
314.0306,314.17017,72,101,0
314.17017,314.30872,68,106,0
314.30872,314.44635,80,119,0
314.44635,314.58292,77,114,0
314.58292,314.71902,72,116,0
314.71902,314.8602,84,127,0
315.00122,315.15158,84,125,0
315.15158,315.30197,96,127,0
315.44183,315.5817,64,65,0
315.5817,315.72153,67,71,0
315.8614,316.00357,67,81,0
316.00357,316.14575,70,86,0
316.28793,316.43213,71,99,0
316.43213,316.5767,72,105,0
316.72348,316.8727,72,117,0
316.8727,317.02197,76,127,0
317.17123,317.3205,76,122,0
317.3205,317.47418,77,119,0
317.47418,317.61722,75,111,0
317.61722,317.75528,73,104,0
317.75528,317.89194,72,94,0
317.89194,318.02734,70,89,0
318.02734,318.16248,68,85,0
318.16248,318.2976,67,75,0
318.2976,318.43274,68,71,0
318.43274,318.56787,69,78,0
318.56787,318.703,70,82,0
318.703,318.83817,71,90,0
318.83817,318.9733,72,95,0
318.9733,319.10632,73,99,0
319.10632,319.23935,75,103,0
319.23935,319.3695,77,110,0
319.3695,319.49966,79,114,0
319.49966,319.62982,80,118,0
319.62982,319.75998,82,120,0
319.75998,319.8901,84,126,0
319.8901,320.02014,80,117,0
320.02014,320.15073,75,100,0
320.15073,320.2827,72,88,0
320.2827,320.41547,68,78,0
320.41547,320.5488,72,66,0
320.5488,320.68304,75,84,0
320.68304,320.8188,72,74,0
320.8188,320.95453,63,70,0
320.95453,321.09027,72,57,0
321.09027,321.226,68,54,0
321.226,321.36334,63,51,0
321.36334,321.50253,73,68,0
321.50253,321.64252,70,56,0
321.64252,321.78336,63,50,0
321.78336,321.92703,70,48,0
321.92703,322.07285,67,39,0
322.07285,322.22314,63,38,0
322.22314,322.36615,84,126,0
322.36615,322.50504,80,115,0
322.50504,322.6418,75,108,0
322.6418,322.77786,72,92,0
322.77786,322.91238,68,85,0
322.91238,323.04617,72,69,0
323.04617,323.18073,75,79,0
323.18073,323.31635,72,75,0
323.31635,323.45303,63,67,0
323.45303,323.59076,72,62,0
323.59076,323.729,66,62,0
323.729,323.86887,63,54,0
323.86887,324.01105,73,68,0
324.01105,324.15408,70,61,0
324.15408,324.29797,63,54,0
324.29797,324.44397,70,48,0
324.44397,324.59024,67,45,0
324.59024,324.73804,63,39,0
324.73804,324.8858,71,51,0
324.8858,325.03287,68,46,0
325.03287,325.1792,63,52,0
325.1792,325.3252,71,66,0
325.3252,325.4712,69,64,0
325.4712,325.61682,63,68,0
325.61682,325.7607,71,80,0
325.7607,325.90402,67,74,0
325.90402,326.0462,64,82,0
326.0462,326.1884,71,94,0
326.1884,326.32944,67,90,0
326.32944,326.47028,65,94,0
326.47028,326.6102,72,107,0
326.6102,326.74908,67,101,0
326.74908,326.888,63,106,0
326.888,327.02634,75,119,0
327.02634,327.16364,72,114,0
327.16364,327.30093,67,116,0
327.30093,327.44205,79,122,0
327.58307,327.7327,79,126,0
327.7327,327.88232,91,127,0
328.02487,328.1646,71,91,0
328.1646,328.30414,74,95,0
328.44366,328.5846,74,100,0
328.5846,328.7261,77,103,0
328.86896,329.01318,77,110,0
329.01318,329.1574,79,113,0
329.3031,329.44943,79,118,0
329.44943,329.59576,83,118,0
329.7421,329.88846,83,122,0
329.88846,330.0348,84,119,0
330.0348,330.1761,82,111,0
330.1761,330.31412,80,104,0
330.31412,330.45135,79,94,0
330.45135,330.58774,77,89,0
330.58774,330.7241,75,85,0
330.7241,330.86044,74,85,0
330.86044,330.99683,75,90,0
330.99683,331.13318,76,97,0
331.13318,331.26953,77,100,0
331.26953,331.4059,78,106,0
331.4059,331.54227,79,108,0
331.54227,331.67636,80,111,0
331.67636,331.8093,82,115,0
331.8093,331.9409,84,117,0
331.9409,332.0722,86,122,0
332.0722,332.20236,87,122,0
332.20236,332.3325,89,123,0
332.3325,332.46265,91,117,0
332.46265,332.5932,87,109,0
332.5932,332.7245,82,94,0
332.7245,332.85577,79,86,0
332.85577,332.98813,75,77,0
332.98813,333.12146,79,68,0
333.12146,333.2548,82,82,0
333.2548,333.38977,79,82,0
333.38977,333.5255,70,77,0
333.5255,333.6613,79,69,0
333.6613,333.79703,75,64,0
333.79703,333.93448,70,59,0
333.93448,334.07346,80,72,0
334.07346,334.21365,77,64,0
334.21365,334.35522,70,57,0
334.35522,334.49823,77,46,0
334.49823,334.6439,74,41,0
334.6439,334.79388,70,43,0
334.79388,334.93878,91,126,0
334.93878,335.0812,87,116,0
335.0812,335.2185,82,91,0
335.2185,335.3558,79,84,0
335.3558,335.49213,75,73,0
335.49213,335.62665,79,66,0
335.62665,335.7612,82,77,0
335.7612,335.89618,79,73,0
335.89618,336.0323,70,68,0
336.0323,336.1696,79,63,0
336.1673,336.3046,73,56,0
336.3069,336.4457,70,51,0
336.4457,336.58682,80,60,0
336.58682,336.72925,77,51,0
336.72925,336.8739,70,46,0
336.8739,337.0206,77,42,0
337.0206,337.1746,74,39,0
337.1746,337.34335,70,39,0
337.3411,337.47745,71,106,0
337.3411,337.47745,74,106,0
337.3411,337.47745,79,106,0
337.6138,337.75668,79,112,0
337.75668,337.89954,91,126,0
338.0362,338.17288,66,82,0
338.17288,338.30954,67,80,0
338.30954,338.44623,69,77,0
338.44623,338.5829,70,76,0
338.5829,338.71957,71,75,0
338.71957,338.85623,72,79,0
338.85623,338.99292,73,83,0
338.99292,339.12958,74,84,0
339.12958,339.26627,75,92,0
339.26627,339.40295,77,100,0
339.40295,339.5396,79,102,0
339.5396,339.6763,81,108,0
339.6763,339.81296,83,115,0
339.81296,340.6454,84,120,0
339.81296,340.6454,72,120,0
340.6454,341.0554,80,114,0
340.6454,341.0554,68,114,0
341.0554,341.46542,75,105,0
341.0554,341.46542,63,105,0
341.46542,341.87543,72,91,0
341.46542,341.87543,60,91,0
341.87543,342.28546,68,98,0
341.87543,342.28546,56,98,0
342.28546,342.42215,79,106,0
342.28546,342.42215,74,106,0
342.28546,342.42215,71,106,0
342.5588,342.70166,79,115,0
342.70166,342.8445,91,127,0
342.9812,343.11786,66,93,0
343.11786,343.25455,67,91,0
343.25455,343.3912,69,91,0
343.3912,343.5279,71,91,0
343.5279,343.66458,72,91,0
343.66458,343.80124,74,92,0
343.80124,343.93793,75,94,0
343.93793,344.0746,77,98,0
344.0746,344.21127,79,104,0
344.21127,344.34793,81,109,0
344.34793,344.48462,83,114,0
344.48462,344.62128,84,118,0
344.62128,344.75797,86,120,0
344.75797,345.59036,87,122,0
344.75797,345.59036,75,122,0
345.59036,346.0004,84,112,0
345.59036,346.0004,72,112,0
346.0004,346.4104,80,104,0
346.0004,346.4104,68,104,0
346.4104,346.82043,75,102,0
346.4104,346.82043,63,102,0
346.82043,347.23047,72,97,0
346.82043,347.23047,60,97,0
347.23047,347.36713,67,103,0
347.5038,347.64908,79,110,0
347.64908,347.79437,91,112,0
347.93103,348.06772,66,95,0
348.06772,348.20438,67,98,0
348.20438,348.34106,71,102,0
348.34106,348.47772,72,103,0
348.47772,348.6144,74,104,0
348.6144,348.75107,76,107,0
348.75107,348.8882,78,109,0
348.8882,349.02744,79,111,0
349.02744,349.16772,83,114,0
349.16772,349.3105,84,116,0
349.3105,349.45425,86,119,0
349.45425,349.60135,90,123,0
349.60135,349.75516,91,127,0
349.75516,350.67056,92,127,0
349.75516,350.67056,80,127,0
350.67056,351.0744,87,126,0
350.67056,351.0744,75,126,0
351.0744,351.47528,84,113,0
351.0744,351.47528,72,113,0
351.47528,351.87616,80,114,0
351.47528,351.87616,68,114,0
351.87616,352.27966,78,122,0
351.87616,352.27966,66,122,0
352.27966,352.6931,67,122,0
352.27966,352.83136,79,122,0
352.83136,352.9696,78,111,0
352.9696,353.10785,76,100,0
353.10785,353.24652,74,93,0
353.24652,353.38608,72,85,0
353.38608,353.5256,71,81,0
353.5256,353.66595,69,75,0
353.66595,353.80713,67,71,0
353.80713,353.9483,66,68,0
353.9483,354.08948,64,65,0
354.08948,354.23065,62,62,0
354.23065,354.37262,60,61,0
356.37726,356.51395,55,49,0
356.51395,356.6506,67,52,0
356.7873,356.92395,67,48,0
356.92395,357.06064,55,52,0
357.1973,357.33398,55,52,0
357.33398,357.47064,67,55,0
358.01733,358.15402,55,45,0
358.15402,358.2907,67,49,0
358.4279,358.56775,67,44,0
358.56775,358.70822,55,49,0
358.85178,359.0001,55,41,0
359.0001,359.14178,68,60,0
359.28137,359.41806,68,53,0
359.41806,359.55472,56,59,0
359.6914,359.8284,56,49,0
359.8284,359.9657,68,58,0
360.103,360.2403,68,46,0
360.2403,360.3779,56,57,0
360.51572,360.65387,56,46,0
360.65387,360.79227,68,54,0
360.9312,361.07074,68,41,0
361.07074,361.21094,56,51,0
361.35144,361.49252,56,39,0
361.49252,361.63385,68,48,0
361.77542,361.91727,68,38,0
361.91727,362.0594,56,46,0
362.20215,362.34528,66,38,0
362.34528,362.48865,67,44,0
362.6323,362.77652,67,33,0
362.77652,362.92136,55,42,0
363.06805,363.21548,55,33,0
363.21548,363.36362,67,40,0
363.5136,363.66617,67,37,0
363.66617,363.82083,55,35,0
363.97748,364.13623,55,33,0
364.13623,364.29565,67,32,0
364.45767,364.62253,67,31,0
364.62253,364.78943,55,31,0
364.9608,365.1378,55,29,0
365.1378,365.3242,67,29,0
365.51807,365.75818,67,28,0
365.75818,366.21634,55,33,0
366.85126,367.01794,67,53,0
367.01794,367.1625,75,40,0
367.3071,367.44995,75,32,0
367.44995,367.5928,74,43,0
367.73453,367.87604,74,36,0
367.87604,368.01624,72,45,0
368.15512,368.2937,72,43,0
368.2937,368.43185,79,39,0
368.5694,368.70645,79,41,0
368.70645,368.8429,74,45,0
368.97928,369.11563,74,41,0
369.11563,369.252,67,43,0
369.38837,369.52472,67,45,0
369.52472,369.6611,75,51,0
369.79745,369.9338,75,42,0
369.9338,370.0702,72,47,0
370.20654,370.3429,72,50,0
370.3429,370.47928,80,54,0
370.61563,370.75198,80,64,0
370.75198,370.88837,83,66,0
371.02472,371.1611,83,71,0
371.1611,371.29745,84,74,0
371.4338,371.5702,84,71,0
371.5702,371.70654,87,74,0
371.8429,371.97928,87,80,0
371.97928,372.11563,91,94,0
372.25198,372.38837,91,101,0
372.38837,372.52472,90,107,0
372.6611,372.79745,90,117,0
372.79745,372.9338,91,121,0
373.0702,373.20654,67,99,0
373.20654,373.3429,79,115,0
373.47928,373.61563,67,86,0
373.61563,373.75198,75,40,0
373.88837,374.02472,75,32,0
374.02472,374.16107,74,43,0
374.29745,374.4338,74,36,0
374.4338,374.5702,72,45,0
374.70654,374.8429,72,43,0
374.8429,374.97928,79,44,0
375.11563,375.25198,79,42,0
375.25198,375.38837,74,48,0
375.52472,375.66107,74,42,0
375.66107,375.79745,67,50,0
375.9338,376.07016,67,44,0
376.07016,376.20654,75,50,0
376.3429,376.47928,75,51,0
376.47928,376.61563,72,57,0
376.75146,376.88724,72,58,0
376.88724,377.02298,80,64,0
377.15842,377.29355,80,66,0
377.29355,377.42868,83,73,0
377.5638,377.69864,83,75,0
377.69864,377.8332,84,81,0
377.9677,378.10175,84,81,0
378.10175,378.23566,87,89,0
378.3696,378.50323,87,88,0
378.50323,378.63657,91,105,0
378.7699,378.90292,91,99,0
378.90292,379.03568,91,103,0
379.16843,379.30115,91,103,0
379.30115,379.4338,96,122,0
379.96136,380.09247,79,45,0
380.09247,380.22348,80,57,0
380.3545,380.48596,80,45,0
380.48596,380.61783,77,54,0
380.7501,380.88284,77,45,0
380.88284,381.01556,74,50,0
381.1488,381.28244,74,45,0
381.28244,381.41638,83,55,0
381.55078,381.68533,83,51,0
381.68533,381.82016,84,61,0
381.955,382.09012,84,52,0
382.09012,382.22586,72,56,0
382.36188,382.49918,72,40,0
382.49918,382.6354,79,52,0
382.76892,382.9014,90,60,0
382.9014,383.03238,91,71,0
383.03238,383.1627,90,82,0
383.1627,383.29227,91,93,0
383.29227,383.42188,92,99,0
383.55035,383.67883,92,87,0
383.67883,383.8073,89,84,0
383.9358,384.06427,89,75,0
384.06427,384.19275,86,70,0
384.32123,384.4497,86,57,0
384.4497,384.57846,83,60,0
384.70776,384.83905,83,67,0
384.83905,384.97034,84,70,0
385.10242,385.23575,84,64,0
385.23575,385.36908,78,62,0
385.5024,385.63846,78,52,0
385.63846,385.91245,79,48,0
386.33975,386.4903,67,61,0
386.4903,386.7227,76,33,0
386.8737,387.02444,76,32,0
387.02444,387.1752,74,38,0
387.3257,387.47498,74,30,0
387.47498,387.6242,72,36,0
387.77316,387.9206,72,35,0
387.9206,388.06622,79,31,0
388.2115,388.3564,79,30,0
388.3564,388.501,74,38,0
388.6449,388.7881,74,31,0
388.7881,388.93094,67,36,0
389.07214,389.21298,67,35,0
389.21298,389.35382,76,40,0
389.4925,389.63074,76,39,0
389.63074,389.769,72,35,0
389.90594,390.0426,72,34,0
390.0426,390.1793,81,37,0
390.31595,390.45264,81,42,0
390.45264,390.5893,83,44,0
390.72598,390.86264,83,48,0
390.86264,390.99933,84,50,0
391.136,391.27267,84,50,0
391.27267,391.40936,88,54,0
391.54602,391.68338,79,45,0
391.68338,391.82205,84,47,0
391.68338,391.82205,78,47,0
391.96225,392.10522,84,43,0
391.96225,392.10522,78,43,0
392.10522,392.2491,86,41,0
392.10522,392.2491,77,41,0
392.399,392.5538,86,36,0
392.399,392.5538,77,36,0
392.5538,392.70776,79,41,0
392.5538,392.70776,76,41,0
392.8536,392.9959,76,35,0
392.9959,393.13626,79,39,0
393.2758,393.41507,91,39,0
393.41507,393.55298,93,35,0
393.69092,393.82886,93,37,0
393.82886,393.9668,95,39,0
394.10568,394.24457,95,42,0
394.24457,394.38345,96,44,0
394.52234,394.661,96,48,0
394.661,394.79926,100,51,0
394.9375,395.07574,79,43,0
395.07574,395.21536,84,50,0
395.07574,395.21536,78,50,0
395.35635,395.49908,84,44,0
395.35635,395.49908,78,44,0
395.49908,395.64597,86,41,0
395.49908,395.64597,77,41,0
395.79636,395.9517,86,36,0
395.79636,395.9517,77,36,0
395.9517,396.10916,79,30,0
395.9517,396.10916,76,30,0
396.263,396.41034,76,37,0
396.41034,396.55597,79,41,0
396.69928,396.83978,72,34,0
396.83978,396.97867,71,39,0
397.11624,397.25323,71,33,0
397.25323,397.3899,69,38,0
397.52658,397.66324,69,33,0
397.66324,397.79993,77,40,0
397.93658,398.07327,77,36,0
398.07327,398.20996,71,42,0
398.34662,398.48386,71,36,0
398.48386,398.6215,79,43,0
398.75967,398.90106,79,41,0
398.90106,399.0474,80,51,0
399.19373,399.34006,80,46,0
399.34006,399.4766,79,42,0
399.61298,399.74854,79,38,0
399.74854,399.88327,84,36,0
400.0178,400.15234,84,36,0
400.15234,400.28687,83,39,0
400.4214,400.5559,83,40,0
400.5559,400.69046,81,42,0
400.82498,400.95874,81,48,0
400.95874,401.09207,89,48,0
401.2254,401.35873,89,46,0
401.35873,401.49207,83,50,0
401.6254,401.75873,83,65,0
401.75873,401.89206,84,68,0
402.0254,402.15872,96,67,0
402.15872,402.29205,92,63,0
402.42538,402.55872,92,55,0
402.55872,402.69205,91,60,0
402.82538,402.9587,91,54,0
402.9587,403.09204,85,62,0
403.22537,403.35873,85,57,0
403.35873,403.49207,84,49,0
403.6254,403.75873,84,48,0
403.75873,403.89206,80,44,0
404.0254,404.15872,80,44,0
404.15872,404.29205,79,42,0
404.42538,404.5589,79,39,0
404.5589,404.69342,73,49,0
404.82816,404.9633,73,44,0
404.9633,405.09842,72,41,0
405.23355,405.36868,72,39,0
405.36868,405.5038,68,35,0
405.63895,405.7749,68,31,0
405.7749,405.91125,67,33,0
406.0476,406.18542,67,36,0
406.18542,406.32336,61,45,0
406.46127,406.5992,61,40,0
406.5992,406.73715,60,51,0
406.8764,407.01596,60,41,0
407.01596,407.1555,61,55,0
407.295,407.4362,61,47,0
407.4362,407.5777,60,65,0
407.72192,407.867,60,52,0
407.867,407.97806,61,96,0
408.18372,408.3235,61,116,0
408.3738,409.99313,61,127,0
410.10696,410.2181,62,62,0
410.2546,410.36353,63,66,0
410.39978,410.5079,65,72,0
410.5438,410.65118,66,75,0
410.6868,410.79327,68,83,0
410.82864,410.9345,70,85,0
410.96964,411.07462,72,93,0
411.1095,411.21384,73,99,0
411.2484,411.35175,75,107,0
411.38614,411.4889,77,111,0
411.52304,411.62546,78,119,0
411.6596,411.76187,80,124,0
411.79596,412.02075,85,127,0
412.2527,413.04214,61,127,0
413.11392,413.45038,54,124,0
413.11392,413.45038,57,124,0
413.11392,413.45038,61,124,0
413.5007,413.5846,61,101,0
413.5007,413.5846,57,101,0
413.5007,413.5846,54,101,0
413.60138,415.2207,56,119,0
413.60138,415.2207,53,119,0
413.62823,415.2499,61,119,0
415.3345,415.44568,62,62,0
415.48215,415.5911,63,66,0
415.62732,415.73547,65,71,0
415.77136,415.87872,66,75,0
415.91434,416.0208,68,80,0
416.0562,416.16208,70,83,0
416.19717,416.30215,72,89,0
416.33707,416.4414,73,94,0
416.47595,416.57928,75,102,0
416.6137,416.71643,77,106,0
416.7506,416.85303,78,113,0
416.88718,416.98944,80,118,0
417.02353,417.2483,85,126,0
417.02353,417.2483,89,126,0
417.4824,418.64185,61,127,0
418.71002,418.8196,65,65,0
418.85608,418.96503,67,69,0
419.00125,419.1094,69,72,0
419.1453,419.25266,70,77,0
419.28827,419.39474,72,83,0
419.4301,419.536,74,89,0
419.5711,419.6761,75,97,0
419.71097,419.81534,77,103,0
419.84988,419.95322,79,110,0
419.9876,420.09036,81,114,0
420.1245,420.22693,82,120,0
420.2611,420.36337,84,124,0
420.39746,420.62222,94,126,0
420.39746,420.62222,86,126,0
420.85632,421.14227,58,127,0
421.28513,421.50882,86,126,0
421.28513,421.50882,77,126,0
421.28513,421.50882,89,126,0
421.28513,421.50882,82,126,0
421.73383,422.0338,58,127,0
422.18997,422.42435,82,126,0
422.18997,422.42435,74,126,0
422.18997,422.42435,77,126,0
422.18997,422.42435,86,126,0
422.65872,422.99188,58,127,0
423.98227,424.20706,82,126,0
423.98227,424.20706,70,126,0
423.98227,424.20706,74,126,0
423.98227,424.20706,77,126,0
424.43207,424.74936,58,127,0
426.54446,426.83572,77,52,0
426.9838,427.27505,70,46,0
427.41824,427.7095,53,49,0
427.85513,428.1464,46,42,0
428.29202,429.0202,70,55,0
428.29446,429.0226,82,55,0
429.16824,429.8964,75,44,0
430.04202,430.33328,77,49,0
430.4789,430.77017,70,40,0
430.9134,431.20465,53,50,0
431.35028,431.64154,46,49,0
431.7896,432.51776,84,58,0
431.7896,432.51776,72,58,0
432.6634,433.39154,77,45,0
433.53717,433.82843,77,52,0
433.97406,434.26532,70,51,0
434.40854,434.6998,53,50,0
434.84543,435.1367,46,42,0
435.28232,436.01047,70,65,0
435.28476,436.0129,82,65,0
436.15854,436.88837,75,51,0
437.03543,437.256,77,47,0
437.47662,437.84427,80,66,0
437.9178,438.13837,75,52,0
438.3603,438.73434,80,76,0
438.80917,439.10843,49,81,0
439.25854,439.63925,53,86,0
439.7154,439.94595,48,85,0
440.18335,440.5934,53,88,0
440.72217,441.01535,77,52,0
441.1617,441.45438,70,46,0
441.60074,441.8934,53,54,0
442.03973,442.33243,46,51,0
442.47876,442.62512,82,78,0
442.62512,442.77145,81,72,0
442.77145,442.9178,80,67,0
442.9178,443.06415,79,62,0
443.06415,443.21048,78,57,0
443.21048,443.3568,77,52,0
443.3568,443.50314,76,46,0
443.50314,443.6495,75,43,0
443.6495,443.79584,74,41,0
443.79584,443.94217,75,45,0
443.94217,444.08853,77,50,0
444.08853,444.23486,78,54,0
444.23486,444.52756,77,57,0
444.6739,444.96655,70,55,0
445.1129,445.40558,53,53,0
445.55194,445.8446,46,47,0
445.99097,446.1373,84,78,0
446.1373,446.28363,83,71,0
446.28363,446.42996,82,63,0
446.42996,446.57632,81,57,0
446.57632,446.72266,80,56,0
446.72266,446.869,79,48,0
446.869,447.01535,78,42,0
447.01535,447.16168,77,38,0
447.16168,447.308,76,36,0
447.308,447.45438,77,41,0
447.45438,447.6007,78,47,0
447.6007,447.74704,75,54,0
447.74704,448.03973,77,57,0
448.18607,448.47876,70,56,0
448.6251,448.9178,53,49,0
449.06412,449.3568,46,53,0
449.50314,449.64948,82,69,0
449.64948,449.7958,81,64,0
449.7958,449.94217,82,64,0
449.94217,450.0885,83,62,0
450.0885,450.23483,82,65,0
450.23483,450.3812,81,70,0
450.3812,450.52753,80,74,0
450.52753,450.67386,79,70,0
450.67386,450.82022,78,65,0
450.82022,450.96655,79,61,0
450.96655,451.11288,80,57,0
451.11288,451.25983,81,54,0
451.25983,451.48044,82,51,0
451.70102,452.06866,85,60,0
452.14218,452.3628,80,58,0
452.5855,452.95773,85,74,0
453.03217,453.3322,45,83,0
453.48337,453.86404,49,77,0
453.94046,454.17667,44,93,0
454.42697,454.91516,49,84,0
455.1271,455.47873,57,40,0
455.1271,455.47873,54,40,0
455.47873,455.6045,54,27,0
455.47873,455.6045,57,27,0
455.47873,455.6045,61,27,0
455.6464,455.89417,54,35,0
455.6464,455.89417,57,35,0
455.6464,455.89417,61,35,0
455.97574,456.0967,54,32,0
455.97574,456.0967,57,32,0
455.97574,456.0967,61,32,0
456.13666,456.45316,54,42,0
456.13666,456.45316,57,42,0
456.13666,456.45316,61,42,0
456.45316,456.5702,54,34,0
456.45316,456.5702,57,34,0
456.45316,456.5702,62,34,0
456.60904,456.8417,54,43,0
456.60904,456.8417,57,43,0
456.60904,456.8417,62,43,0
456.91852,457.0333,54,40,0
456.91852,457.0333,57,40,0
456.91852,457.0333,63,40,0
457.07156,457.37717,56,52,0
457.07156,457.37717,59,52,0
457.07156,457.37717,66,52,0
457.37717,457.4912,56,44,0
457.37717,457.4912,59,44,0
457.37717,457.4912,64,44,0
457.52908,457.75586,64,42,0
457.52908,457.75586,60,42,0
457.52908,457.75586,57,42,0
457.83124,457.9443,57,50,0
457.83124,457.9443,60,50,0
457.83124,457.9443,64,50,0
457.982,458.28204,58,57,0
457.982,458.28204,61,57,0
457.982,458.28204,64,57,0
458.28204,458.39355,58,52,0
458.28204,458.39355,61,52,0
458.28204,458.39355,64,52,0
458.4307,458.65268,59,46,0
458.4307,458.65268,62,46,0
458.4307,458.65268,64,46,0
458.72552,458.8353,59,42,0
458.72552,458.8353,62,42,0
458.72552,458.8353,64,42,0
458.87186,459.16165,61,40,0
458.87186,459.16165,64,40,0
459.16165,459.26984,64,49,0
459.16165,459.26984,61,49,0
459.16165,459.26984,69,49,0
459.30588,459.52222,64,52,0
459.30588,459.52222,61,52,0
459.30588,459.52222,69,52,0
459.59433,459.7025,64,46,0
459.59433,459.7025,61,46,0
459.59433,459.7025,69,46,0
459.7386,460.02704,64,59,0
459.7386,460.02704,61,59,0
459.7386,460.02704,68,59,0
460.02704,460.13522,61,52,0
460.02704,460.13522,69,52,0
460.02704,460.13522,64,52,0
460.17126,460.3876,61,66,0
460.17126,460.3876,64,66,0
460.17126,460.3876,69,66,0
460.45972,460.5685,61,66,0
460.45972,460.5685,69,66,0
460.45972,460.5685,64,66,0
460.60492,460.89728,62,71,0
460.60492,460.89728,66,71,0
460.60492,460.89728,73,71,0
460.89728,461.00812,62,62,0
460.89728,461.00812,71,62,0
460.89728,461.00812,66,62,0
461.04507,461.26675,63,55,0
461.04507,461.26675,71,55,0
461.04507,461.26675,66,55,0
461.34064,461.45148,71,58,0
461.34064,461.45148,66,58,0
461.34064,461.45148,63,58,0
461.48843,461.784,64,63,0
461.48843,461.784,67,63,0
461.48843,461.784,71,63,0
461.784,461.89484,64,56,0
461.784,461.89484,67,56,0
461.784,461.89484,71,56,0
461.9318,462.1568,65,54,0
461.9318,462.1568,71,54,0
461.9318,462.1568,68,54,0
462.2318,462.3443,65,49,0
462.2318,462.3443,71,49,0
462.2318,462.3443,68,49,0
462.3818,462.68085,66,40,0
462.3818,462.68085,69,40,0
462.68085,462.79196,66,35,0
462.68085,462.79196,69,35,0
462.68085,462.79196,74,35,0
462.829,463.05072,66,32,0
462.829,463.05072,69,32,0
462.829,463.05072,73,32,0
463.12405,463.2338,66,41,0
463.12405,463.2338,69,41,0
463.12405,463.2338,73,41,0
463.2702,463.56146,68,45,0
463.2702,463.56146,74,45,0
463.2702,463.56146,78,45,0
463.56146,463.6707,68,36,0
463.56146,463.6707,74,36,0
463.56146,463.6707,78,36,0
463.70712,463.92804,68,41,0
463.70712,463.92804,74,41,0
463.70712,463.92804,76,41,0
464.0025,464.11417,68,30,0
464.0025,464.11417,74,30,0
464.0025,464.11417,76,30,0
464.15137,464.44913,66,40,0
464.15137,464.44913,69,40,0
464.44666,464.55832,74,35,0
464.44913,464.5608,66,35,0
464.44913,464.5608,69,35,0
464.59802,464.82004,66,32,0
464.59802,464.82004,69,32,0
464.59802,464.82004,73,32,0
464.89392,465.004,66,41,0
464.89392,465.004,69,41,0
464.89392,465.004,73,41,0
465.0405,465.33246,68,45,0
465.0405,465.33246,74,45,0
465.0405,465.33246,78,45,0
465.33246,465.4424,68,36,0
465.33246,465.4424,74,36,0
465.33246,465.4424,78,36,0
465.47937,465.70312,68,41,0
465.47937,465.70312,74,41,0
465.47937,465.70312,76,41,0
465.77832,465.89108,68,30,0
465.77832,465.89108,74,30,0
465.77832,465.89108,76,30,0
465.92868,466.23022,60,40,0
465.92868,466.23022,57,40,0
466.23022,466.34384,64,49,0
466.23022,466.34384,60,49,0
466.23022,466.34384,57,49,0
466.38174,466.609,64,52,0
466.38174,466.609,60,52,0
466.38174,466.609,57,52,0
466.68475,466.7984,64,46,0
466.68475,466.7984,60,46,0
466.68475,466.7984,57,46,0
466.83627,467.13864,64,59,0
466.83627,467.13864,60,59,0
466.83627,467.13864,57,59,0
467.13864,467.25085,57,52,0
467.13864,467.25085,60,52,0
467.13864,467.25085,65,52,0
467.28827,467.5127,60,66,0
467.28827,467.5127,65,66,0
467.28827,467.5127,57,66,0
467.587,467.69812,57,66,0
467.587,467.69812,60,66,0
467.587,467.69812,66,66,0
467.73517,468.03146,62,71,0
467.73517,468.03146,69,71,0
467.73517,468.03146,59,71,0
468.03146,468.14218,62,59,0
468.03146,468.14218,59,59,0
468.03146,468.14218,67,59,0
468.17886,468.3989,63,62,0
468.17886,468.3989,67,62,0
468.17886,468.3989,60,62,0
468.47226,468.58206,63,69,0
468.47226,468.58206,67,69,0
468.47226,468.58206,60,69,0
468.6182,468.90735,64,72,0
468.6182,468.90735,67,72,0
468.6182,468.90735,61,72,0
468.90735,469.0158,64,76,0
468.90735,469.0158,67,76,0
468.90735,469.0158,61,76,0
469.0519,469.2664,65,77,0
469.0519,469.2664,67,77,0
469.0519,469.2664,62,77,0
469.3375,469.44412,65,84,0
469.3375,469.44412,67,84,0
469.3375,469.44412,62,84,0
469.47964,469.764,64,92,0
469.47964,469.764,67,92,0
469.764,469.87067,67,70,0
469.764,469.87067,64,70,0
469.764,469.87067,72,70,0
469.9062,470.11948,67,80,0
469.9062,470.11948,64,80,0
469.9062,470.11948,72,80,0
470.19055,470.29718,67,86,0
470.19055,470.29718,64,86,0
470.19055,470.29718,72,86,0
470.33273,470.6171,67,90,0
470.33273,470.6171,64,90,0
470.33273,470.6171,71,90,0
470.6171,470.72372,64,86,0
470.6171,470.72372,72,86,0
470.6171,470.72372,67,86,0
470.75937,470.97366,64,94,0
470.75937,470.97366,67,94,0
470.75937,470.97366,72,94,0
471.0451,471.15225,64,86,0
471.0451,471.15225,72,86,0
471.0451,471.15225,67,86,0
471.18796,471.47366,65,95,0
471.18796,471.47366,69,95,0
471.18796,471.47366,76,95,0
471.47366,471.5808,65,77,0
471.47366,471.5808,74,77,0
471.47366,471.5808,69,77,0
471.61652,471.83356,66,83,0
471.61652,471.83356,74,83,0
471.61652,471.83356,69,83,0
471.9062,472.01517,74,81,0
471.9062,472.01517,69,81,0
471.9062,472.01517,66,81,0
472.05148,472.34445,67,78,0
472.05148,472.34445,70,78,0
472.05148,472.34445,74,78,0
472.34445,472.45557,67,63,0
472.34445,472.45557,70,63,0
472.34445,472.45557,74,63,0
472.49258,472.71732,68,68,0
472.49258,472.71732,74,68,0
472.49258,472.71732,71,68,0
472.79233,472.9054,68,56,0
472.79233,472.9054,74,56,0
472.79233,472.9054,71,56,0
472.94308,473.2441,69,56,0
472.94308,473.2441,72,56,0
473.2441,473.35577,69,48,0
473.2441,473.35577,72,48,0
473.2441,473.35577,77,48,0
473.393,473.61386,69,46,0
473.393,473.61386,72,46,0
473.393,473.61386,76,46,0
473.6874,473.7977,69,41,0
473.6874,473.7977,72,41,0
473.6874,473.7977,76,41,0
473.83444,474.12857,71,45,0
473.83444,474.12857,77,45,0
473.83444,474.12857,81,45,0
474.12857,474.23886,71,36,0
474.12857,474.23886,77,36,0
474.12857,474.23886,81,36,0
474.27563,474.49866,71,41,0
474.27563,474.49866,77,41,0
474.27563,474.49866,79,41,0
474.57385,474.6866,71,30,0
474.57385,474.6866,77,30,0
474.57385,474.6866,79,30,0
474.7242,475.02496,69,40,0
474.7242,475.02496,72,40,0
475.02246,475.13525,77,35,0
475.02496,475.13776,69,35,0
475.02496,475.13776,72,35,0
475.17563,475.40347,69,32,0
475.17563,475.40347,72,32,0
475.17563,475.40347,76,32,0
475.47943,475.59418,69,33,0
475.47943,475.59418,72,33,0
475.47943,475.59418,76,33,0
475.63293,475.94385,71,41,0
475.63293,475.94385,77,41,0
475.63293,475.94385,81,41,0
475.94385,476.06314,71,37,0
475.94385,476.06314,77,37,0
475.94385,476.06314,81,37,0
476.1038,476.35422,71,34,0
476.1038,476.35422,77,34,0
476.1038,476.35422,79,34,0
476.4397,476.56982,71,32,0
476.4397,476.56982,77,32,0
476.4397,476.56982,79,32,0
476.61374,476.94327,63,40,0
476.61374,476.94327,60,40,0
476.94327,477.05856,60,27,0
476.94327,477.05856,63,27,0
476.94327,477.05856,67,27,0
477.09674,477.32474,60,35,0
477.09674,477.32474,63,35,0
477.09674,477.32474,67,35,0
477.40012,477.5128,60,32,0
477.40012,477.5128,63,32,0
477.40012,477.5128,67,32,0
477.5501,477.8486,60,42,0
477.5501,477.8486,63,42,0
477.5501,477.8486,67,42,0
477.8486,477.95984,60,34,0
477.8486,477.95984,63,34,0
477.8486,477.95984,68,34,0
477.99643,478.21594,60,43,0
477.99643,478.21594,63,43,0
477.99643,478.21594,68,43,0
478.2891,478.39886,60,40,0
478.2891,478.39886,63,40,0
478.2891,478.39886,69,40,0
478.43546,478.72772,62,52,0
478.43546,478.72772,65,52,0
478.43546,478.72772,72,52,0
478.72772,478.8359,62,44,0
478.72772,478.8359,65,44,0
478.72772,478.8359,70,44,0
478.87198,479.08832,70,42,0
478.87198,479.08832,66,42,0
478.87198,479.08832,63,42,0
479.16043,479.26862,63,50,0
479.16043,479.26862,66,50,0
479.16043,479.26862,70,50,0
479.3044,479.59012,64,57,0
479.3044,479.59012,67,57,0
479.3044,479.59012,70,57,0
479.59012,479.69727,64,52,0
479.59012,479.69727,67,52,0
479.59012,479.69727,70,52,0
479.73297,479.94727,65,46,0
479.73297,479.94727,68,46,0
479.73297,479.94727,70,46,0
480.01865,480.1243,65,42,0
480.01865,480.1243,68,42,0
480.01865,480.1243,70,42,0
480.15952,480.4412,67,48,0
480.15952,480.4412,70,48,0
480.4412,480.5468,70,49,0
480.4412,480.5468,67,49,0
480.4412,480.5468,75,49,0
480.58203,480.79083,70,52,0
480.58203,480.79083,67,52,0
480.58203,480.79083,75,52,0
480.86026,480.96445,70,46,0
480.86026,480.96445,67,46,0
480.86026,480.96445,75,46,0
480.99915,481.27914,70,59,0
480.99915,481.27914,67,59,0
480.99915,481.27914,74,59,0
481.27914,481.38528,67,52,0
481.27914,481.38528,75,52,0
481.27914,481.38528,70,52,0
481.42065,481.6329,67,66,0
481.42065,481.6329,70,66,0
481.42065,481.6329,75,66,0
481.7037,481.81082,67,66,0
481.7037,481.81082,75,66,0
481.7037,481.81082,70,66,0
481.84656,482.1333,68,70,0
481.84656,482.1333,72,70,0
481.84656,482.1333,79,70,0
482.1333,482.2418,68,76,0
482.1333,482.2418,77,76,0
482.1333,482.2418,72,76,0
482.278,482.49542,69,79,0
482.278,482.49542,77,79,0
482.278,482.49542,72,79,0
482.56787,482.67657,77,83,0
482.56787,482.67657,72,83,0
482.56787,482.67657,69,83,0
482.71283,483.00977,70,87,0
482.71283,483.00977,73,87,0
482.71283,483.00977,77,87,0
483.00977,483.12283,70,94,0
483.00977,483.12283,73,94,0
483.00977,483.12283,77,94,0
483.1618,483.3999,71,97,0
483.1618,483.3999,77,97,0
483.1618,483.3999,74,97,0
483.48358,483.61377,71,100,0
483.48358,483.61377,77,100,0
483.48358,483.61377,74,100,0
483.65714,483.94983,72,113,0
483.65714,483.94983,75,113,0
483.94983,484.05957,75,93,0
483.94983,484.05957,79,93,0
484.09616,484.38742,75,98,0
484.09616,484.38742,87,98,0
484.09616,484.38742,84,98,0
484.09616,484.38742,79,98,0
484.38742,484.49658,75,104,0
484.38742,484.49658,87,104,0
484.38742,484.49658,84,104,0
484.38742,484.49658,79,104,0
484.5328,484.82217,74,113,0
484.5328,484.82217,86,113,0
484.5328,484.82217,82,113,0
484.5328,484.82217,79,113,0
484.9664,485.25348,67,121,0
485.39655,485.68228,72,113,0
485.39655,485.68228,84,113,0
485.39655,485.68228,79,113,0
485.39655,485.68228,75,113,0
485.68228,485.78912,75,93,0
485.68228,485.78912,84,93,0
485.68228,485.78912,72,93,0
485.68228,485.78912,79,93,0
485.82468,486.109,75,98,0
485.82468,486.109,87,98,0
485.82468,486.109,84,98,0
485.82468,486.109,79,98,0
486.109,486.21567,75,104,0
486.109,486.21567,87,104,0
486.109,486.21567,84,104,0
486.109,486.21567,79,104,0
486.2512,486.5342,74,113,0
486.2512,486.5342,86,113,0
486.2512,486.5342,82,113,0
486.2512,486.5342,79,113,0
486.67505,486.95673,67,121,0
487.09735,487.37772,68,113,0
487.09735,487.37772,72,113,0
487.09735,487.37772,80,113,0
487.09735,487.37772,75,113,0
487.37772,487.48285,75,93,0
487.37772,487.48285,72,93,0
487.37772,487.48285,80,93,0
487.37772,487.48285,68,93,0
487.5179,487.7976,75,98,0
487.5179,487.7976,84,98,0
487.5179,487.7976,72,98,0
487.5179,487.7976,80,98,0
487.7976,487.90228,75,104,0
487.7976,487.90228,84,104,0
487.7976,487.90228,72,104,0
487.7976,487.90228,80,104,0
487.93716,488.21622,70,113,0
487.93716,488.21622,79,113,0
487.93716,488.21622,82,113,0
487.93716,488.21622,75,113,0
488.35574,488.63483,63,121,0
488.77435,489.05536,65,113,0
488.77435,489.05536,68,113,0
488.77435,489.05536,77,113,0
488.77435,489.05536,72,113,0
489.05536,489.161,72,93,0
489.05536,489.161,68,93,0
489.05536,489.161,77,93,0
489.05536,489.161,65,93,0
489.19623,489.47867,72,98,0
489.19623,489.47867,80,98,0
489.19623,489.47867,68,98,0
489.19623,489.47867,77,98,0
489.47867,489.5848,72,104,0
489.47867,489.5848,68,104,0
489.47867,489.5848,80,104,0
489.47867,489.5848,77,104,0
489.62018,489.90503,77,113,0
489.62018,489.90503,72,113,0
489.62018,489.90503,68,113,0
489.90503,490.01218,77,99,0
489.90503,490.01218,72,99,0
489.90503,490.01218,68,99,0
490.04788,490.3364,72,104,0
490.04788,490.3364,68,104,0
490.3364,490.44507,72,104,0
490.3364,490.44507,68,104,0
490.48132,490.77582,68,109,0
490.77582,490.8886,68,106,0
490.9262,491.22696,68,116,0
490.9262,491.22696,72,116,0
491.22696,491.33972,68,108,0
491.22696,491.33972,72,108,0
491.37732,491.67807,77,121,0
491.37732,491.67807,72,121,0
491.37732,491.67807,68,121,0
491.67807,491.79108,77,122,0
491.67807,491.79108,72,122,0
491.67807,491.79108,68,122,0
491.82925,492.14114,80,127,0
491.82925,492.14114,77,127,0
491.82925,492.14114,72,127,0
492.14114,492.2654,80,127,0
492.14114,492.2654,77,127,0
492.14114,492.2654,72,127,0
492.3222,492.56223,79,127,0
492.3222,492.56223,77,127,0
492.3222,492.56223,71,127,0
492.62158,492.80243,65,107,0
492.80243,492.9637,68,101,0
492.9637,493.11847,67,102,0
493.11847,493.2677,65,103,0
493.2677,493.41476,63,108,0
493.41476,493.56018,62,109,0
493.56018,493.70407,60,111,0
493.70407,493.84482,58,113,0
493.84482,493.985,56,118,0
493.985,494.12518,55,120,0
494.12518,494.26538,54,125,0
494.26538,494.3854,55,127,0
494.42706,494.57294,65,97,0
494.57294,494.71652,68,101,0
494.71652,494.85916,67,102,0
494.85916,495.00125,65,103,0
495.00125,495.14276,63,108,0
495.14276,495.28372,62,109,0
495.28372,495.42447,60,111,0
495.42447,495.56454,58,113,0
495.56454,495.7041,56,118,0
495.7041,495.843,55,120,0
495.843,495.98135,54,125,0
495.98135,496.10104,55,127,0
496.1427,496.2872,53,97,0
496.2872,496.43054,56,101,0
496.43054,496.57297,55,102,0
496.57297,496.7146,53,103,0
496.7146,496.8559,51,108,0
496.8559,496.9964,50,109,0
496.9964,497.13617,48,111,0
497.13617,497.2754,46,113,0
497.2754,497.41376,44,118,0
497.41376,497.5516,43,120,0
497.5516,497.68903,42,125,0
497.68903,497.8359,43,127,0
497.8359,497.97226,45,126,0
497.97226,498.10928,47,126,0
498.10928,498.24658,48,124,0
498.24658,498.38596,50,122,0
498.38596,498.5278,51,121,0
498.5278,498.6714,53,120,0
498.6714,498.81735,55,117,0
498.81735,498.96512,57,115,0
498.96512,499.11346,59,115,0
499.11346,499.26517,60,113,0
499.26517,499.4186,62,107,0
499.4186,499.57343,63,107,0
499.57343,499.73428,65,97,0
499.73428,499.89514,67,96,0
499.89514,500.0583,69,90,0
500.0583,500.2247,71,85,0
500.2247,500.39612,72,78,0
500.39612,500.56985,74,76,0
500.56985,500.74933,75,66,0
500.74933,500.93518,77,59,0
500.93518,501.12888,79,55,0
501.12888,501.3297,81,55,0
501.3297,501.53506,83,65,0
501.53162,501.92072,84,68,0
501.53162,501.92072,91,68,0
502.07736,502.38834,84,58,0
502.54297,502.85028,67,63,0
503.00296,503.30573,60,56,0
503.45648,504.19952,84,59,0
503.45648,504.19952,72,59,0
504.3477,505.0781,77,59,0
504.3477,505.0781,65,59,0
505.22162,505.5087,75,53,0
505.65225,505.9373,79,50,0
505.65225,505.9373,67,50,0
506.0793,506.36234,62,52,0
506.5025,506.7829,67,56,0
506.92307,507.06326,91,68,0
507.06326,507.20346,90,58,0
507.20346,507.34363,91,56,0
507.34363,507.624,84,53,0
507.7642,507.9044,67,68,0
507.9044,508.04456,66,58,0
508.04456,508.18475,67,56,0
508.18475,508.46588,60,56,0
508.60675,508.7476,84,45,0
508.7476,508.8883,83,51,0
508.8883,509.0285,82,56,0
509.0285,509.1687,81,60,0
509.1687,509.30887,80,64,0
509.30887,509.44907,79,66,0
509.44907,509.58926,78,66,0
509.58926,509.72943,77,66,0
509.72943,509.86896,76,63,0
509.86896,510.0085,77,61,0
510.0085,510.14804,79,57,0
510.14804,510.28757,80,55,0
510.28757,510.566,79,51,0
510.7049,510.98254,75,38,0
510.7049,510.98254,63,38,0
511.12082,511.3973,62,41,0
511.12082,511.3973,74,41,0
511.53555,511.81152,67,49,0
511.53555,511.81152,79,49,0
511.94913,512.08673,63,33,0
512.08673,512.2248,62,37,0
512.2248,512.36304,63,41,0
512.36304,512.6407,67,43,0
512.7815,512.92285,62,30,0
512.92285,513.0668,61,33,0
513.0668,513.21063,62,36,0
513.21063,513.50366,67,40,0
513.6535,513.80475,51,28,0
513.80475,513.96014,50,33,0
513.96014,514.1156,51,37,0
514.1156,514.43134,55,39,0
514.5937,514.7632,50,26,0
514.7632,514.9501,49,30,0
514.9501,515.1424,50,32,0
515.1424,515.63947,55,37,0
517.009,517.9515,76,46,0
517.009,517.9515,64,46,0
517.9515,518.8471,72,40,0
517.9515,518.8471,60,40,0
518.8471,519.27936,68,42,0
518.8471,519.27936,56,42,0
519.27936,519.70416,64,37,0
519.70416,520.47375,57,42,0
519.70416,520.47375,69,42,0
520.543,521.3706,69,48,0
520.543,521.3706,57,48,0
521.3706,522.1258,57,42,0
521.3706,522.1258,69,42,0
522.19446,522.6063,68,37,0
522.19446,522.6063,56,37,0
522.6063,523.01984,64,43,0
523.01984,523.7923,57,49,0
523.01984,523.7923,69,49,0
523.8638,524.29486,66,53,0
523.8638,524.29486,54,53,0
524.29486,524.7297,62,44,0
524.7297,525.54553,55,45,0
524.7297,525.54553,67,45,0
525.6211,526.5502,67,52,0
525.6211,526.5502,55,52,0
526.5502,527.44806,55,45,0
526.5502,527.44806,67,45,0
527.53357,528.0539,65,43,0
527.53357,528.0539,53,43,0
528.0539,528.5954,62,37,0
528.0539,528.5954,50,37,0
528.5954,529.0772,48,40,0
528.5954,529.0772,60,40,0
529.51294,530.3769,64,46,0
530.3769,531.23193,60,40,0
531.23193,531.6565,56,42,0
531.6565,532.0794,52,37,0
531.6565,532.0794,50,37,0
532.49976,532.84875,49,42,0
532.0794,532.84875,57,42,0
533.33734,533.75885,50,46,0
532.9185,533.75885,57,48,0
534.1832,534.5389,49,39,0
533.75885,534.5389,57,43,0
534.6103,535.0398,56,55,0
535.0398,535.47205,52,48,0
535.0398,535.47205,50,45,0
535.90814,536.2748,50,39,0
535.47205,536.2748,57,49,0
536.34924,536.79834,54,43,0
536.79834,537.2556,50,44,0
536.79834,537.2556,48,43,0
537.71967,538.11316,48,40,0
537.2556,538.11316,55,45,0
538.6832,539.1894,50,42,0
538.19275,539.1894,55,52,0
539.71625,540.17053,48,41,0
539.1894,540.17053,55,45,0
540.2634,540.83093,53,51,0
540.83093,541.3203,50,36,0
540.83093,541.3203,47,36,0
541.56226,541.7197,48,40,0
541.8744,542.026,48,34,0
542.026,542.17566,60,34,0
542.32324,542.4678,60,36,0
542.4678,542.6096,48,37,0
542.7485,542.8867,48,38,0
542.8867,543.02374,60,38,0
543.16046,543.2968,60,40,0
543.2968,543.43317,48,40,0
543.5695,543.7059,48,41,0
543.7059,543.8423,60,41,0
543.97864,544.115,60,42,0
544.115,544.25134,48,42,0
544.3877,544.52405,48,43,0
544.52405,544.66046,60,44,0
544.7968,544.93317,60,46,0
544.93317,545.0695,48,47,0
545.2059,545.3423,48,49,0
545.3423,545.47864,51,50,0
545.615,545.75134,51,52,0
545.75134,545.8877,56,52,0
546.02405,546.16046,56,53,0
546.16046,546.2968,60,54,0
546.43317,546.5695,60,52,0
546.5695,546.7059,63,53,0
546.8423,546.97864,63,55,0
546.97864,547.115,68,56,0
547.25134,547.3877,68,60,0
547.3877,547.52405,72,59,0
547.66046,547.7968,72,64,0
547.7968,547.93317,75,65,0
548.0695,548.2059,75,69,0
548.2059,548.3423,73,66,0
548.47864,548.615,73,62,0
548.615,548.75134,61,59,0
548.8877,549.02405,61,57,0
549.02405,549.16046,73,57,0
549.2968,549.43317,73,56,0
549.43317,549.5695,61,56,0
549.7059,549.8422,61,54,0
549.8422,549.97864,73,54,0
550.115,550.25134,73,52,0
550.25134,550.3877,61,51,0
550.52405,550.66046,61,50,0
550.66046,550.7968,73,50,0
550.93317,551.0695,73,47,0
551.0695,551.2059,61,46,0
551.3422,551.47864,61,44,0
551.47864,551.615,73,43,0
551.75134,551.8877,73,43,0
551.8877,552.02405,70,42,0
552.16046,552.2968,70,41,0
552.2968,552.43317,67,40,0
552.5695,552.7059,67,39,0
552.7059,552.8422,63,39,0
552.97864,553.115,63,38,0
553.115,553.25134,61,36,0
553.3877,553.52405,61,36,0
553.52405,553.66046,58,36,0
553.7968,553.93317,58,38,0
553.93317,554.0695,51,40,0
554.2059,554.3422,51,43,0
554.3422,554.47864,49,45,0
554.615,554.75134,49,49,0
554.75134,554.8877,48,52,0
555.02405,555.1604,48,45,0
555.1604,555.2968,60,43,0
555.43317,555.5695,60,35,0
555.5695,555.7059,48,39,0
555.8422,555.97864,48,41,0
555.97864,556.115,60,42,0
556.25134,556.3877,60,43,0
556.3877,556.52405,48,44,0
556.6604,556.7968,48,46,0
556.7968,556.93317,60,47,0
557.0695,557.2059,60,47,0
557.2059,557.3422,48,48,0
557.47864,557.615,48,50,0
557.615,557.75134,60,50,0
557.8877,558.02405,60,51,0
558.02405,558.1604,48,52,0
558.2968,558.43317,48,54,0
558.43317,558.5695,51,55,0
558.7059,558.8422,51,56,0
558.8422,558.97864,56,56,0
559.115,559.25134,56,57,0
559.25134,559.3877,60,58,0
559.52405,559.6606,60,59,0
559.6606,559.79724,63,60,0
559.9339,560.0706,63,63,0
560.0706,560.2073,68,63,0
560.34393,560.48065,68,64,0
560.48065,560.6173,72,64,0
560.75397,560.8906,72,64,0
560.8906,561.02606,75,60,0
561.1612,561.2963,75,60,0
561.2963,561.43146,73,60,0
561.5666,561.7017,73,62,0
561.7017,561.8358,61,63,0
561.9695,562.1031,61,65,0
562.1031,562.23676,73,65,0
562.37036,562.50397,73,68,0
562.50397,562.63763,61,69,0
562.77094,562.90283,73,72,0
562.90283,563.03467,74,74,0
563.16656,563.29846,74,76,0
563.29846,563.4303,62,78,0
563.5622,563.6926,62,80,0
563.6926,563.82306,74,81,0
563.9535,564.0839,74,84,0
564.0839,564.21436,62,85,0
564.3448,564.4752,74,83,0
564.4752,564.6057,75,85,0
564.73676,564.86774,75,87,0
564.86774,564.9991,63,87,0
565.13214,565.26514,63,89,0
565.26514,565.4,75,89,0
565.53485,565.6724,75,92,0
565.6724,565.81067,63,93,0
565.9511,566.0933,63,96,0
566.0933,566.2369,75,99,0
566.0933,566.2369,67,99,0
566.0933,566.2369,72,99,0
566.38245,566.5313,75,93,0
566.38245,566.5313,72,93,0
566.38245,566.5313,67,93,0
566.5313,566.68066,63,87,0
566.8353,566.9916,63,82,0
566.9916,567.1478,75,80,0
566.9916,567.1478,72,80,0
566.9916,567.1478,67,80,0
567.3068,567.4673,75,75,0
567.3068,567.4673,72,75,0
567.3068,567.4673,67,75,0
567.4673,567.6277,63,72,0
567.79254,567.9574,62,87,0
567.9574,568.1247,72,64,0
567.9574,568.1247,67,64,0
567.9574,568.1247,74,64,0
568.2932,568.46436,72,60,0
568.2932,568.46436,67,60,0
568.2932,568.46436,74,60,0
568.46436,568.6367,62,58,0
568.81177,568.99097,62,56,0
568.99097,569.1881,67,53,0
568.99097,569.1881,74,53,0
568.99097,569.1881,71,53,0
569.4211,569.80084,67,48,0
569.4211,569.80084,74,48,0
569.4211,569.80084,71,48,0
569.80084,570.1806,62,46,0
571.502,571.7382,67,41,0
571.7382,571.8749,75,40,0
572.0116,572.14825,75,32,0
572.14825,572.2849,74,43,0
572.42163,572.5583,74,36,0
572.5583,572.69495,72,45,0
572.8316,572.9683,72,43,0
572.9683,573.105,79,39,0
573.24164,573.3783,79,41,0
573.3783,573.515,74,45,0
573.6517,573.7883,74,41,0
573.7883,573.925,67,43,0
574.0617,574.19836,67,45,0
574.19836,574.335,75,51,0
574.47174,574.6084,75,42,0
574.6084,574.74506,72,47,0
574.8817,575.01843,72,50,0
575.01843,575.1551,80,54,0
575.29175,575.4284,80,64,0
575.4284,575.5651,83,66,0
575.7018,575.83844,83,71,0
575.83844,575.9751,84,74,0
576.1118,576.2485,84,71,0
576.2485,576.38513,87,74,0
576.52185,576.6585,87,80,0
576.6585,576.79517,91,94,0
576.9318,577.06854,91,93,0
577.06854,577.2052,90,89,0
577.34186,577.4785,90,79,0
577.4785,577.61523,91,69,0
577.7519,577.88855,67,86,0
577.88855,578.0252,79,101,0
578.1619,578.2986,67,86,0
578.2986,578.438,75,50,0
578.5769,578.7158,75,51,0
578.7158,578.8547,74,50,0
578.99304,579.1313,74,49,0
579.1313,579.269,72,49,0
579.4066,579.5437,72,52,0
579.5437,579.68036,79,54,0
579.8168,579.9526,79,55,0
579.9526,580.088,74,56,0
580.22314,580.35834,74,58,0
580.35834,580.49304,67,59,0
580.62756,580.7617,67,62,0
580.7617,580.8956,75,64,0
581.02936,581.1794,68,92,0
581.1794,581.32935,80,111,0
581.479,581.6145,68,68,0
581.6145,581.74713,77,65,0
581.8793,582.0114,77,60,0
582.0114,582.1436,75,58,0
582.27545,582.40704,75,58,0
582.40704,582.53864,73,58,0
582.6696,582.80066,73,58,0
582.80066,582.93164,80,58,0
583.0626,583.1932,80,60,0
583.1932,583.3236,75,60,0
583.45386,583.58374,75,63,0
583.58374,583.7135,68,66,0
583.84283,583.9721,68,71,0
583.9721,584.10144,77,76,0
584.23016,584.3802,70,100,0
584.3802,584.53015,82,122,0
584.6802,584.8108,70,63,0
584.8108,584.9395,78,55,0
585.068,585.19586,78,59,0
585.19586,585.3235,77,62,0
585.4512,585.5785,77,73,0
585.5785,585.7055,75,84,0
585.8366,585.98987,72,106,0
585.98987,586.1558,84,127,0
586.3347,586.5209,72,102,0
586.5209,586.68823,84,111,0
586.8417,586.983,84,103,0
586.983,587.12085,80,101,0
587.25507,587.3878,80,93,0
587.3878,587.51953,77,87,0
587.65027,587.7796,77,81,0
587.7796,587.9086,72,79,0
588.0396,588.17145,72,76,0
588.17145,588.30334,68,83,0
588.4364,588.57074,68,75,0
588.57074,588.70557,65,79,0
588.8404,588.97614,65,77,0
588.97614,589.11285,60,87,0
589.2503,589.38855,60,99,0
589.38855,589.5268,56,105,0
589.66614,589.80597,53,120,0
589.80597,589.9466,49,127,0
590.0842,590.22,49,114,0
590.22,590.3548,61,103,0
590.4896,590.62445,61,90,0
590.62445,590.75934,60,85,0
590.89417,591.029,60,81,0
591.029,591.1638,72,76,0
591.2997,591.436,48,69,0
591.436,591.576,49,127,0
591.7134,591.8494,49,116,0
591.8494,591.98486,61,112,0
592.1189,592.2519,61,105,0
592.2519,592.38495,60,97,0
592.5177,592.64984,60,82,0
592.64984,592.78204,72,76,0
592.9142,593.0463,48,70,0
593.0463,593.1854,49,127,0
593.3228,593.45734,49,118,0
593.45734,593.59186,61,105,0
593.7264,593.8609,61,97,0
593.8609,593.9954,62,95,0
594.12897,594.2623,62,90,0
594.2623,594.3956,74,86,0
594.529,594.6623,50,85,0
594.6623,594.7987,51,127,0
594.9315,595.0637,51,123,0
595.0637,595.19586,63,119,0
595.328,595.46014,63,113,0
595.46014,595.59235,64,110,0
595.7245,595.8557,64,100,0
595.8557,595.9867,76,98,0
596.1177,596.2487,52,107,0
596.2487,596.3797,53,115,0
596.5107,596.6417,53,109,0
596.6417,596.7716,54,121,0
596.9009,597.0307,66,102,0
597.0307,597.1613,67,113,0
597.2934,597.4279,79,105,0
597.4279,597.567,80,118,0
597.71765,597.89264,80,107,0
597.89264,598.0729,92,127,0
598.1999,598.3254,92,120,0
598.3254,598.4516,88,118,0
598.5784,598.70636,88,111,0
598.70636,598.8343,85,102,0
598.9622,599.09106,85,89,0
599.09106,599.2204,80,82,0
599.3497,599.4805,80,70,0
599.4805,599.6121,76,66,0
599.74365,599.87524,76,58,0
599.87524,600.0089,73,55,0
600.1425,600.2761,73,51,0
600.2761,600.4122,76,49,0
600.5509,600.6917,76,43,0
600.6917,600.83386,73,43,0
600.9826,601.1339,80,73,0
601.1339,601.2854,92,127,0
601.4115,601.53735,92,116,0
601.53735,601.6644,89,111,0
601.79126,601.91815,89,101,0
601.91815,602.045,85,101,0
602.1718,602.30005,85,86,0
602.30005,602.4285,80,82,0
602.557,602.68616,80,75,0
602.68616,602.8166,77,72,0
602.947,603.0777,77,68,0
603.0777,603.20953,73,67,0
603.3422,603.4759,73,63,0
603.4759,603.6107,77,60,0
603.7474,603.88513,77,52,0
603.88513,604.0245,73,48,0
604.166,604.3075,80,72,0
604.3075,604.44904,92,120,0
604.5743,604.70026,92,103,0
604.70026,604.82764,89,98,0
604.9557,605.0845,89,87,0
605.0845,605.21436,86,85,0
605.3448,605.4761,86,67,0
605.4761,605.60736,80,65,0
605.7401,605.8728,80,61,0
605.8728,606.0071,79,61,0
606.1375,606.2676,79,63,0
606.2676,606.39685,86,67,0
606.5262,606.6557,86,75,0
606.6557,606.78644,91,82,0
606.9172,607.05273,91,93,0
607.05273,607.19385,95,99,0
607.34076,607.4945,95,110,0
607.4945,607.6585,96,124,0
607.8049,607.94775,96,119,0
607.94775,608.08856,91,116,0
608.2289,608.3681,91,113,0
608.3681,608.50635,87,113,0
608.644,608.78156,87,109,0
608.78156,608.9183,86,106,0
609.05493,609.1916,86,105,0
609.1916,609.32825,84,109,0
609.46497,609.6016,84,95,0
609.6016,609.7383,79,93,0
609.87494,610.01166,79,91,0
610.01166,610.1483,75,89,0
610.285,610.42163,75,82,0
610.42163,610.55835,74,76,0
610.695,610.83167,74,75,0
610.83167,610.9684,72,86,0
611.10504,611.2417,72,67,0
611.2417,611.37836,67,65,0
611.5151,611.65173,67,64,0
611.65173,611.7884,63,58,0
611.92505,612.06177,63,57,0
612.06177,612.1984,62,55,0
612.3351,612.47174,62,54,0
612.47174,612.60846,60,63,0
612.7451,612.8818,60,53,0
612.8818,613.0185,55,49,0
613.15515,613.2918,55,48,0
613.2918,613.42847,51,46,0
613.5652,613.70184,51,45,0
613.70184,613.8385,50,45,0
613.97516,614.1119,50,42,0
614.1119,614.24854,48,47,0
614.3852,614.52185,48,37,0
614.52185,614.65857,47,38,0
614.52185,614.65857,50,38,0
614.52185,614.65857,55,38,0
614.7952,614.9319,55,40,0
614.7952,614.9319,50,40,0
614.7952,614.9319,47,40,0
614.9319,615.0686,48,41,0
615.20526,615.3419,48,30,0
615.3419,615.4786,47,31,0
615.3419,615.4786,50,31,0
615.3419,615.4786,55,31,0
615.6153,615.75195,55,34,0
615.6153,615.75195,50,34,0
615.6153,615.75195,47,34,0
615.75195,616.02527,48,37,0
616.57196,616.90906,83,127,0
616.57196,616.90906,74,127,0
616.57196,616.90906,71,127,0
616.57196,616.90906,79,127,0
617.58325,618.00555,84,127,0
617.58325,618.00555,72,127,0
617.58325,618.00555,75,127,0
617.58325,618.00555,79,127,0
0.848484,0.9848475,48,44,0
0.9848475,1.121211,51,32,0
1.121211,1.2575746,55,34,0
1.2575746,1.393938,47,39,0
1.393938,1.5303015,50,32,0
1.5303015,1.666665,55,38,0
1.666665,1.8030285,48,42,0
1.8030285,1.939392,51,33,0
1.939392,2.0757556,55,38,0
2.0757556,2.212119,51,41,0
2.212119,2.3484826,55,31,0
2.3484826,2.484846,60,34,0
2.484846,2.6212094,53,40,0
2.6212094,2.757573,56,32,0
2.757573,2.8939364,62,36,0
2.8939364,3.0303,55,41,0
3.0303,3.1666634,59,34,0
3.1666634,3.303027,65,38,0
3.303027,3.4393904,48,42,0
3.4393904,3.575754,55,38,0
3.575754,3.7121174,60,35,0
3.7121174,3.848481,51,39,0
3.848481,3.9848444,55,35,0
3.9848444,4.121208,60,35,0
4.121208,4.2575717,53,45,0
4.2575717,4.393935,56,39,0
4.393935,4.5302987,60,41,0
4.5302987,4.666662,50,44,0
4.666662,4.8030257,53,49,0
4.8030257,4.939389,60,52,0
4.939389,5.0757527,51,68,0
5.0757527,5.212116,55,59,0
5.212116,5.3484793,60,59,0
5.3484793,5.484843,48,63,0
5.484843,5.6212063,51,65,0
5.6212063,5.75757,55,72,0
5.75757,5.8939333,45,79,0
5.8939333,6.030297,48,71,0
6.030297,6.1666603,55,68,0
6.1666603,6.303024,44,67,0
6.303024,6.4393873,48,59,0
6.4393873,6.575751,55,55,0
6.575751,6.7121143,43,60,0
6.7121143,6.848478,47,48,0
6.848478,6.9848413,55,72,0
6.9848413,7.121205,50,99,0
7.121205,7.2575684,53,64,0
7.2575684,7.393932,55,41,0
7.393932,7.5302954,48,44,0
7.5302954,7.666659,51,32,0
7.666659,7.8030224,55,34,0
7.8030224,7.939386,47,39,0
7.939386,8.075749,50,32,0
8.075749,8.212113,55,38,0
8.212113,8.348476,48,42,0
8.348476,8.48484,51,33,0
8.48484,8.621203,55,38,0
8.621203,8.757567,51,41,0
8.757567,8.89393,55,31,0
8.89393,9.030294,60,34,0
9.030294,9.166657,53,40,0
9.166657,9.303021,56,32,0
9.303021,9.439384,62,36,0
9.439384,9.575748,55,41,0
9.575748,9.712111,59,34,0
9.712111,9.848475,65,38,0
9.848475,9.9848385,48,42,0
9.9848385,10.121202,55,41,0
10.121202,10.2575655,60,43,0
10.2575655,10.393929,51,45,0
10.393929,10.5297785,55,46,0
10.5297785,10.6655245,60,49,0
10.6655245,10.801271,53,61,0
10.801271,10.936712,56,54,0
10.936712,11.071847,60,56,0
11.071847,11.206982,50,59,0
11.206982,11.342117,53,63,0
11.342117,11.477252,60,65,0
11.477252,11.612387,51,78,0
11.612387,11.747522,55,69,0
11.747522,11.881652,60,71,0
11.881652,12.01558,48,79,0
12.01558,12.149508,51,94,0
12.149508,12.283437,55,105,0
12.283437,12.417366,43,118,0
12.417366,12.551294,48,97,0
12.551294,12.685223,51,101,0
12.685223,12.819151,43,103,0
12.819151,12.953079,47,107,0
12.953079,13.086415,50,110,0
13.086415,13.219158,36,116,0
13.219158,13.351901,39,100,0
13.351901,13.484645,43,89,0
13.484645,13.617388,48,81,0
13.617388,13.749354,51,73,0
13.749354,13.880454,55,68,0
13.880454,14.011457,53,59,0
14.011457,14.142462,56,53,0
14.142462,14.273945,59,46,0
14.273945,14.405523,50,47,0
14.405523,14.537295,53,44,0
14.537295,14.670038,56,41,0
14.670038,14.802782,47,40,0
14.802782,14.936016,50,36,0
14.936016,15.069349,53,35,0
15.069349,15.2026825,43,36,0
15.2026825,15.337012,50,40,0
15.337012,15.471541,53,43,0
15.471541,15.60607,44,48,0
15.60607,15.740599,48,43,0
15.740599,15.875331,51,41,0
15.875331,16.011078,42,40,0
16.011078,16.147238,48,40,0
16.147238,16.284224,51,45,0
16.284224,16.419323,43,48,0
16.419323,16.552954,47,52,0
16.552954,16.685308,50,56,0
16.685308,16.816504,47,61,0
16.816504,16.946941,50,64,0
16.946941,17.076674,55,69,0
17.076674,17.205153,53,72,0
17.205153,17.33354,56,73,0
17.33354,17.461746,59,67,0
17.461746,17.590408,50,60,0
17.590408,17.719164,53,56,0
17.719164,17.84792,56,49,0
17.84792,17.976675,47,44,0
17.976675,18.105429,50,42,0
18.105429,18.234184,53,45,0
18.234184,18.363405,43,47,0
18.363405,18.493557,50,42,0
18.493557,18.623945,53,47,0
18.623945,18.755524,44,51,0
18.755524,18.887491,48,40,0
18.887491,19.020233,51,36,0
19.020233,19.15432,44,41,0
19.15432,19.289455,48,37,0
19.289455,19.42459,50,39,0
19.42459,19.559982,43,43,0
19.559982,19.69739,47,47,0
19.69739,19.835638,50,52,0
19.835638,19.975824,55,56,0
19.975824,20.12194,53,52,0
20.12194,20.273472,50,47,0
20.273472,20.41258,48,40,0
20.41258,20.551147,51,32,0
20.551147,20.689716,55,34,0
20.689716,20.82855,47,39,0
20.82855,20.966906,50,32,0
20.966906,21.105154,55,38,0
21.105154,21.242874,48,42,0
21.242874,21.38049,51,33,0
21.38049,21.51758,55,38,0
21.51758,21.654255,51,41,0
21.654255,21.790619,55,31,0
21.790619,21.926468,60,34,0
21.926468,22.061909,53,40,0
22.061909,22.197042,56,32,0
22.197042,22.332178,62,36,0
22.332178,22.46691,55,41,0
22.46691,22.601439,59,41,0
22.601439,22.735567,65,44,0
22.735567,22.869495,48,47,0
22.869495,23.003225,55,51,0
23.003225,23.153225,60,79,0
23.153225,23.303225,48,110,0
23.303225,23.452852,51,62,0
23.452852,23.588346,56,49,0
23.588346,23.720993,49,45,0
23.720993,23.853151,53,44,0
23.853151,23.98531,56,40,0
23.98531,24.117468,48,38,0
24.117468,24.249336,54,36,0
24.249336,24.380915,56,38,0
24.380915,24.512493,49,45,0
24.512493,24.643497,53,43,0
24.643497,24.774502,56,42,0
24.774502,24.905506,53,42,0
24.905506,25.036509,56,42,0
25.036509,25.167038,61,44,0
25.167038,25.297474,54,49,0
25.297474,25.42772,58,52,0
25.42772,25.55759,63,55,0
25.55759,25.687366,56,57,0
25.687366,25.816677,60,60,0
25.816677,25.945986,66,63,0
25.945986,26.075296,49,65,0
26.075296,26.204052,56,69,0
26.204052,26.354052,61,90,0
26.354052,26.504051,49,120,0
26.504051,26.65405,53,62,0
26.65405,26.784641,58,58,0
26.784641,26.913395,51,53,0
26.913395,27.041876,54,47,0
27.041876,27.169718,58,47,0
27.169718,27.297377,50,48,0
27.297377,27.425035,56,50,0
27.425035,27.552334,58,55,0
27.552334,27.679363,51,65,0
27.679363,27.810358,54,75,0
27.810358,27.9666,58,108,0
27.9666,28.134146,52,127,0
28.134146,28.311136,55,113,0
28.311136,28.497763,60,101,0
28.497763,28.670412,44,100,0
28.670412,28.819998,48,86,0
28.819998,28.959892,53,78,0
28.959892,29.096685,48,71,0
29.096685,29.231022,53,67,0
29.231022,29.36416,56,66,0
29.36416,29.49584,44,65,0
29.49584,29.626183,48,65,0
29.626183,29.755913,53,65,0
29.755913,29.886631,48,65,0
29.886631,30.01735,53,65,0
30.01735,30.148067,56,65,0
30.148067,30.280518,44,66,0
30.280518,30.412968,48,70,0
30.412968,30.5469,53,72,0
30.5469,30.68219,48,76,0
30.68219,30.817936,53,80,0
30.817936,30.953682,56,84,0
30.953682,31.08974,44,88,0
31.08974,31.227356,48,92,0
31.227356,31.36497,53,95,0
31.36497,31.503277,48,98,0
31.503277,31.64281,44,103,0
31.64281,31.782347,41,110,0
31.782347,31.923748,29,125,0
31.923748,32.061,32,121,0
32.061,32.19634,37,115,0
32.19634,32.330566,32,110,0
32.330566,32.464794,37,104,0
32.464794,32.599022,41,98,0
32.599022,32.733253,42,112,0
32.733253,32.868237,45,105,0
32.868237,33.003372,44,100,0
33.003372,33.13912,45,94,0
33.13912,33.275227,44,89,0
33.275227,33.413322,42,83,0
33.413322,33.552433,29,125,0
33.552433,33.69052,32,121,0
33.69052,33.82689,37,115,0
33.82689,33.961773,32,110,0
33.961773,34.095703,37,104,0
34.095703,34.229034,41,98,0
34.229034,34.362072,42,112,0
34.362072,34.49462,45,105,0
34.49462,34.62707,44,100,0
34.62707,34.75952,45,94,0
34.75952,34.89197,44,89,0
34.89197,35.025158,42,83,0
35.025158,35.15969,29,125,0
35.15969,35.294827,32,121,0
35.294827,35.429962,37,115,0
35.429962,35.565098,32,110,0
35.565098,35.699627,37,104,0
35.699627,35.833458,41,98,0
35.833458,35.96679,44,112,0
35.96679,36.100124,47,105,0
36.100124,36.232964,46,100,0
36.232964,36.365707,47,94,0
36.365707,36.498158,46,89,0
36.498158,36.630318,44,83,0
36.630318,36.762474,31,125,0
36.762474,36.894634,34,121,0
36.894634,37.02631,39,115,0
37.02631,37.157887,34,110,0
37.157887,37.289467,39,104,0
37.289467,37.420853,43,98,0
37.420853,37.551857,46,112,0
37.551857,37.68286,47,105,0
37.68286,37.813866,48,100,0
37.813866,37.944393,49,94,0
37.944393,38.07483,48,89,0
38.07483,38.204983,46,83,0
38.204983,38.33485,45,84,0
38.33485,38.46472,48,87,0
38.46472,38.594593,45,90,0
38.594593,38.724087,46,93,0
38.724087,38.853397,49,97,0
38.853397,38.983173,46,99,0
38.983173,39.113045,47,101,0
39.113045,39.245327,50,105,0
39.245327,39.382347,47,108,0
39.382347,39.5238,48,114,0
39.5238,39.6768,51,115,0
39.6768,39.859104,48,121,0
39.859104,40.03938,49,127,0
40.03938,40.166218,52,117,0
40.166218,40.29148,56,107,0
40.29148,40.41709,49,105,0
40.41709,40.54323,52,103,0
40.54323,40.669724,56,97,0
40.669724,40.796307,49,86,0
40.796307,40.923428,52,80,0
40.923428,41.051632,56,76,0
41.051632,41.179836,49,71,0
41.179836,41.308598,52,68,0
41.308598,41.43847,56,64,0
41.43847,41.568336,49,59,0
41.568336,41.698772,52,56,0
41.698772,41.8293,56,51,0
41.8293,41.960022,49,47,0
41.960022,42.09074,52,42,0
42.09074,42.224094,56,40,0
42.224094,42.36088,49,40,0
42.36088,42.50133,52,47,0
42.50133,42.64557,56,58,0
42.64557,42.794083,44,69,0
42.794083,42.944836,52,71,0
42.944836,43.09831,56,89,0
43.09831,43.25558,49,126,0
43.25558,43.391106,53,126,0
43.391106,43.515587,56,123,0
43.515587,43.640068,49,117,0
43.640068,43.765327,53,111,0
43.765327,43.89103,56,107,0
43.89103,44.017166,49,104,0
44.017166,44.14366,53,102,0
44.14366,44.2706,56,97,0
44.2706,44.39826,49,91,0
44.39826,44.526283,53,88,0
44.526283,44.65458,56,86,0
44.65458,44.783566,49,83,0
44.783566,44.912827,53,81,0
44.912827,45.04228,56,77,0
45.04228,45.172768,49,72,0
45.172768,45.304394,53,68,0
45.304394,45.43636,56,63,0
45.43636,45.568806,49,63,0
45.568806,45.703243,53,62,0
45.703243,45.838074,56,58,0
45.838074,45.972904,49,56,0
45.972904,46.10959,53,53,0
46.10959,46.248486,56,50,0
46.248486,46.389782,50,46,0
46.389782,46.533794,53,44,0
46.533794,46.679554,55,42,0
46.679554,46.82734,48,40,0
46.82734,46.98001,51,40,0
46.98001,47.135162,55,40,0
47.135162,47.276028,47,48,0
47.276028,47.41408,50,54,0
47.41408,47.550446,55,58,0
47.550446,47.684372,44,68,0
47.684372,47.818302,48,75,0
47.818302,47.952232,55,76,0
47.952232,48.08616,43,88,0
48.08616,48.220642,47,75,0
48.220642,48.356388,55,67,0
48.356388,48.49265,50,57,0
48.49265,48.629013,53,51,0
48.629013,48.765377,55,46,0
48.765377,48.90174,48,45,0
48.90174,49.038105,51,51,0
49.038105,49.17447,55,54,0
49.17447,49.31083,44,56,0
49.31083,49.447193,48,59,0
49.447193,49.583557,55,61,0
49.583557,49.718643,43,70,0
49.718643,49.853172,47,77,0
49.853172,49.987106,55,80,0
49.987106,50.119556,44,86,0
50.119556,50.25095,48,91,0
50.25095,50.381668,55,92,0
50.381668,50.512726,43,101,0
50.512726,50.64547,47,94,0
50.64547,50.7787,55,91,0
50.7787,50.912037,43,87,0
50.912037,51.045864,48,83,0
51.045864,51.179893,56,72,0
51.179893,51.31452,43,78,0
51.31452,51.449657,47,73,0
51.449657,51.58572,55,68,0
51.58572,51.722706,43,63,0
51.722706,51.859795,48,57,0
51.859795,51.99741,56,52,0
51.99741,52.13534,43,48,0
52.13534,52.273273,47,45,0
52.273273,52.41163,55,42,0
52.41163,52.55095,43,37,0
52.55095,52.6907,48,34,0
52.6907,52.83155,56,33,0
52.83155,52.97407,43,38,0
52.97407,53.117268,47,34,0
53.117268,53.260468,55,30,0
53.260468,53.407017,53,38,0
53.407017,53.559982,59,33,0
53.559982,53.724735,62,29,0
53.724735,53.90211,50,39,0
53.90211,54.08507,53,35,0
54.08507,54.27375,59,29,0
54.27375,54.47173,47,38,0
54.47173,54.67934,53,30,0
54.67934,54.881493,55,27,0
54.881493,55.057964,48,44,0
55.057964,55.23396,52,32,0
55.23396,55.395535,55,34,0
55.395535,55.543777,47,39,0
55.543777,55.690727,53,32,0
55.690727,55.83696,55,38,0
55.83696,55.9819,48,42,0
55.9819,56.126606,52,33,0
56.126606,56.270836,55,38,0
56.270836,56.41462,52,41,0
56.41462,56.55816,55,31,0
56.55816,56.699703,60,34,0
56.699703,56.841003,53,40,0
56.841003,56.981846,57,32,0
56.981846,57.122265,62,36,0
57.122265,57.262245,55,41,0
57.262245,57.40178,59,34,0
57.40178,57.540894,65,38,0
57.540894,57.679783,48,42,0
57.679783,57.81867,55,38,0
57.81867,57.95693,60,35,0
57.95693,58.095177,52,39,0
58.095177,58.233013,55,35,0
58.233013,58.37063,60,35,0
58.37063,58.508244,53,38,0
58.508244,58.645344,57,34,0
58.645344,58.78233,60,32,0
58.78233,58.919315,50,40,0
58.919315,59.0563,53,35,0
59.0563,59.193287,60,30,0
59.193287,59.330273,52,40,0
59.330273,59.46726,55,35,0
59.46726,59.604244,60,32,0
59.604244,59.741234,48,40,0
59.741234,59.87822,52,37,0
59.87822,60.015205,55,29,0
60.015205,60.154633,45,39,0
60.154633,60.29515,48,34,0
60.29515,60.438026,55,31,0
60.438026,60.58425,47,39,0
60.58425,60.732407,50,33,0
60.732407,60.884964,55,30,0
60.884964,61.037357,48,40,0
61.037357,61.18514,52,36,0
61.18514,61.329796,55,32,0
61.329796,61.471817,52,39,0
61.471817,61.611572,55,37,0
61.611572,61.74993,60,34,0
61.74993,61.88723,53,31,0
61.88723,62.024452,57,29,0
62.024452,62.1627,60,26,0
62.1627,62.301163,50,35,0
62.301163,62.43973,53,32,0
62.43973,62.578297,60,22,0
62.578297,62.716866,52,34,0
62.716866,62.855434,55,31,0
62.855434,62.994003,60,27,0
62.994003,63.13257,48,24,0
63.13257,63.271137,52,32,0
63.271137,63.409866,55,28,0
63.409866,63.55171,45,37,0
63.55171,63.695206,48,32,0
63.695206,63.841667,55,29,0
63.841667,63.989086,47,35,0
63.989086,64.13871,50,33,0
64.13871,64.29061,55,30,0
64.29061,64.44632,48,34,0
64.44632,64.59916,52,31,0
64.59916,64.74694,55,27,0
64.74694,64.891174,52,39,0
64.891174,65.03336,55,37,0
65.03336,65.1741,60,33,0
65.1741,65.31235,53,39,0
65.31235,65.45013,56,35,0
65.45013,65.58721,60,32,0
65.58721,65.72358,53,39,0
65.72358,65.85984,57,33,0
65.85984,65.99558,60,30,0
65.99558,66.13133,50,37,0
66.13133,66.26708,57,35,0
66.26708,66.402824,62,31,0
66.402824,66.538574,55,40,0
66.538574,66.67432,59,34,0
66.67432,66.810684,62,31,0
66.810684,66.94856,52,40,0
66.94856,67.08734,55,38,0
67.08734,67.226715,60,33,0
67.226715,67.37436,51,49,0
67.37436,67.52214,54,46,0
67.52214,67.66992,60,43,0
67.66992,67.80628,52,39,0
67.80628,67.94153,55,35,0
67.94153,68.07666,60,31,0
68.07666,68.2114,52,39,0
68.2114,68.34593,55,35,0
68.34593,68.48037,60,31,0
68.48037,68.6143,53,39,0
68.6143,68.74823,56,35,0
68.74823,68.88216,60,32,0
68.88216,69.01609,53,35,0
69.01609,69.15002,57,40,0
69.15002,69.283554,60,46,0
69.283554,69.41689,50,53,0
69.41689,69.550224,57,48,0
69.550224,69.683556,62,39,0
69.683556,69.81689,55,45,0
69.81689,69.95022,62,47,0
69.95022,70.08356,65,55,0
70.08356,70.21689,48,68,0
70.21689,70.35022,52,65,0
70.35022,70.48355,55,63,0
70.48355,70.61689,48,60,0
70.61689,70.75022,51,56,0
70.75022,70.88355,54,52,0
70.88355,71.016884,48,54,0
71.016884,71.150215,52,48,0
71.150215,71.283554,55,47,0
71.283554,71.416885,48,46,0
71.416885,71.55022,53,55,0
71.55022,71.68355,56,51,0
71.68355,71.81689,48,59,0
71.81689,71.95022,52,56,0
71.95022,72.08355,55,53,0
72.08355,72.21688,48,50,0
72.21688,72.35021,51,48,0
72.35021,72.48403,54,47,0
72.48403,72.617966,48,44,0
72.617966,72.75189,52,42,0
72.75189,72.88591,55,38,0
72.88591,73.02044,48,47,0
73.02044,73.15516,53,46,0
73.15516,73.2905,56,41,0
73.2905,73.42594,48,52,0
73.42594,73.56138,52,49,0
73.56138,73.696815,55,47,0
73.696815,73.83226,48,42,0
73.83226,73.9677,51,40,0
73.9677,74.10374,54,36,0
74.10374,74.24061,48,33,0
74.24061,74.377914,52,33,0
74.377914,74.515526,55,31,0
74.515526,74.65314,48,39,0
74.65314,74.79076,53,37,0
74.79076,74.92837,56,33,0
74.92837,75.06724,48,39,0
75.06724,75.20665,52,46,0
75.20665,75.34618,55,49,0
75.34618,75.48572,48,53,0
75.48572,75.626114,53,59,0
75.626114,75.76762,56,63,0
75.76762,75.910255,48,70,0
75.910255,76.05483,52,76,0
76.05483,76.200584,55,88,0
76.200584,76.31126,49,96,0
76.50048,76.640564,49,116,0
76.6909,78.24172,49,125,0
76.6909,78.424034,37,125,0
78.424034,78.5352,49,61,0
78.424034,78.5352,60,61,0
78.424034,78.5352,56,61,0
78.424034,78.5352,54,61,0
78.57168,78.68062,49,66,0
78.57168,78.68062,60,66,0
78.57168,78.68062,56,66,0
78.57168,78.68062,54,66,0
78.71685,78.82499,49,71,0
78.71685,78.82499,60,71,0
78.71685,78.82499,56,71,0
78.71685,78.82499,54,71,0
78.86088,78.968254,49,75,0
78.86088,78.968254,60,75,0
78.86088,78.968254,56,75,0
78.86088,78.968254,54,75,0
79.00387,79.11035,49,79,0
79.00387,79.11035,60,79,0
79.00387,79.11035,56,79,0
79.00387,79.11035,54,79,0
79.14573,79.251595,49,85,0
79.14573,79.251595,60,85,0
79.14573,79.251595,56,85,0
79.14573,79.251595,54,85,0
79.286705,79.39169,49,89,0
79.286705,79.39169,60,89,0
79.286705,79.39169,56,89,0
79.286705,79.39169,54,89,0
79.426575,79.53092,49,95,0
79.426575,79.53092,60,95,0
79.426575,79.53092,56,95,0
79.426575,79.53092,54,95,0
79.56549,79.668816,49,99,0
79.56549,79.668816,60,99,0
79.56549,79.668816,56,99,0
79.56549,79.668816,54,99,0
79.70322,79.80597,49,105,0
79.70322,79.80597,60,105,0
79.70322,79.80597,56,105,0
79.70322,79.80597,54,105,0
79.84012,79.94254,49,109,0
79.84012,79.94254,60,109,0
79.84012,79.94254,56,109,0
79.84012,79.94254,54,109,0
79.97669,80.078964,49,114,0
79.97669,80.078964,60,114,0
79.97669,80.078964,56,114,0
79.97669,80.078964,54,114,0
80.11305,80.33783,61,125,0
80.11305,80.33783,49,125,0
80.11305,80.33783,53,125,0
80.11305,80.33783,56,125,0
80.569756,81.35923,49,126,0
80.569756,81.35923,37,126,0
81.431,81.76745,49,127,0
81.431,81.76745,42,127,0
81.81779,81.90168,49,100,0
81.81779,81.90168,42,100,0
81.945305,83.48754,49,117,0
81.945305,83.672516,37,117,0
83.651596,83.76276,54,62,0
83.651596,83.76276,60,62,0
83.651596,83.76276,56,62,0
83.651596,83.76276,49,62,0
83.79923,83.90818,49,68,0
83.79923,83.90818,60,68,0
83.79923,83.90818,56,68,0
83.79923,83.90818,54,68,0
83.94441,84.05255,49,74,0
83.94441,84.05255,60,74,0
83.94441,84.05255,56,74,0
83.94441,84.05255,54,74,0
84.08843,84.195816,49,80,0
84.08843,84.195816,60,80,0
84.08843,84.195816,56,80,0
84.08843,84.195816,54,80,0
84.23143,84.337906,49,86,0
84.23143,84.337906,60,86,0
84.23143,84.337906,56,86,0
84.23143,84.337906,54,86,0
84.37328,84.47915,49,93,0
84.37328,84.47915,60,93,0
84.37328,84.47915,56,93,0
84.37328,84.47915,54,93,0
84.51426,84.61925,49,97,0
84.51426,84.61925,60,97,0
84.51426,84.61925,56,97,0
84.51426,84.61925,54,97,0
84.65414,84.758484,49,102,0
84.65414,84.758484,60,102,0
84.65414,84.758484,56,102,0
84.65414,84.758484,54,102,0
84.793045,84.89637,49,105,0
84.793045,84.89637,60,105,0
84.793045,84.89637,56,105,0
84.793045,84.89637,54,105,0
84.93078,85.03352,49,110,0
84.93078,85.03352,60,110,0
84.93078,85.03352,56,110,0
84.93078,85.03352,54,110,0
85.06768,85.1701,49,115,0
85.06768,85.1701,60,115,0
85.06768,85.1701,56,115,0
85.06768,85.1701,54,115,0
85.20425,85.306526,49,123,0
85.20425,85.306526,60,123,0
85.20425,85.306526,56,123,0
85.20425,85.306526,54,123,0
85.340614,85.565384,61,126,0
85.340614,85.565384,49,126,0
85.340614,85.565384,53,126,0
85.340614,85.565384,56,126,0
85.79946,86.958916,49,126,0
85.79946,86.958916,37,126,0
87.02709,87.13669,49,63,0
87.02709,87.13669,60,63,0
87.02709,87.13669,56,63,0
87.02709,87.13669,54,63,0
87.173164,87.282104,49,64,0
87.173164,87.282104,60,64,0
87.173164,87.282104,56,64,0
87.173164,87.282104,54,64,0
87.31834,87.426476,49,69,0
87.31834,87.426476,60,69,0
87.31834,87.426476,56,69,0
87.31834,87.426476,54,69,0
87.462364,87.56974,49,73,0
87.462364,87.56974,60,73,0
87.462364,87.56974,56,73,0
87.462364,87.56974,54,73,0
87.605354,87.71183,49,81,0
87.605354,87.71183,60,81,0
87.605354,87.71183,56,81,0
87.605354,87.71183,54,81,0
87.74721,87.85308,49,86,0
87.74721,87.85308,60,86,0
87.74721,87.85308,56,86,0
87.74721,87.85308,54,86,0
87.88819,87.99318,49,96,0
87.88819,87.99318,60,96,0
87.88819,87.99318,56,96,0
87.88819,87.99318,54,96,0
88.02806,88.13241,49,103,0
88.02806,88.13241,60,103,0
88.02806,88.13241,56,103,0
88.02806,88.13241,54,103,0
88.16697,88.2703,49,105,0
88.16697,88.2703,60,105,0
88.16697,88.2703,56,105,0
88.16697,88.2703,54,105,0
88.3047,88.407455,49,112,0
88.3047,88.407455,60,112,0
88.3047,88.407455,56,112,0
88.3047,88.407455,54,112,0
88.441605,88.54402,49,116,0
88.441605,88.54402,60,116,0
88.441605,88.54402,56,116,0
88.441605,88.54402,54,116,0
88.57818,88.68045,49,124,0
88.57818,88.68045,60,124,0
88.57818,88.68045,56,124,0
88.57818,88.68045,54,124,0
88.71454,88.939316,61,127,0
88.71454,88.939316,49,127,0
88.71454,88.939316,53,127,0
88.71454,88.939316,56,127,0
89.17339,89.45936,49,126,0
89.17339,89.45936,37,126,0
89.60221,89.825905,61,126,0
89.60221,89.825905,49,126,0
89.60221,89.825905,53,126,0
89.60221,89.825905,56,126,0
90.0509,90.35091,49,126,0
90.0509,90.35091,37,126,0
90.50705,90.741425,61,126,0
90.50705,90.741425,49,126,0
90.50705,90.741425,53,126,0
90.50705,90.741425,56,126,0
90.9758,91.30896,49,126,0
90.9758,91.30896,37,126,0
92.29936,92.52414,61,126,0
92.29936,92.52414,49,126,0
92.29936,92.52414,53,126,0
92.29936,92.52414,56,126,0
92.74914,93.06645,49,126,0
92.74914,93.06645,37,126,0
94.86154,95.1528,37,36,0
95.155235,95.26446,56,31,0
95.155235,95.26446,52,31,0
95.155235,95.26446,49,31,0
95.300865,95.51931,56,29,0
95.300865,95.51931,52,29,0
95.300865,95.51931,49,29,0
95.592125,95.70135,56,26,0
95.592125,95.70135,52,26,0
95.592125,95.70135,49,26,0
95.737755,95.9562,52,36,0
95.737755,95.9562,49,36,0
96.029015,96.13824,56,31,0
96.029015,96.13824,52,31,0
96.029015,96.13824,49,31,0
96.17465,96.3931,56,32,0
96.17465,96.3931,52,32,0
96.46591,96.575134,56,29,0
96.46591,96.575134,52,29,0
96.46591,96.575134,49,29,0
96.61154,96.9028,42,41,0
96.9028,97.012024,57,38,0
96.9028,97.012024,54,38,0
96.9028,97.012024,49,38,0
97.04843,97.266884,57,34,0
97.04843,97.266884,54,34,0
97.04843,97.266884,49,34,0
97.3397,97.44892,57,30,0
97.3397,97.44892,54,30,0
97.3397,97.44892,49,30,0
97.48533,97.70377,57,37,0
97.48533,97.70377,54,37,0
97.48533,97.70377,49,37,0
97.77659,97.88581,57,34,0
97.77659,97.88581,54,34,0
97.77659,97.88581,49,34,0
97.92222,98.14067,57,29,0
97.92222,98.14067,54,29,0
97.92222,98.14067,49,29,0
98.213486,98.32271,57,27,0
98.213486,98.32271,54,27,0
98.213486,98.32271,49,27,0
98.359116,98.650375,37,36,0
98.650375,98.7596,56,31,0
98.650375,98.7596,52,31,0
98.650375,98.7596,49,31,0
98.796005,99.01445,56,27,0
98.796005,99.01445,52,27,0
98.796005,99.01445,49,27,0
99.087265,99.196495,56,25,0
99.087265,99.196495,52,25,0
99.087265,99.196495,49,25,0
99.2329,99.45135,52,36,0
99.2329,99.45135,49,36,0
99.521736,99.63096,49,31,0
99.521736,99.63096,52,31,0
99.521736,99.63096,56,31,0
99.667366,99.88581,49,27,0
99.667366,99.88581,52,27,0
99.958626,100.06785,49,25,0
99.958626,100.06785,52,25,0
99.958626,100.06785,56,25,0
100.104256,100.39552,44,57,0
100.10668,100.39795,32,57,0
100.39795,100.50717,48,47,0
100.39795,100.50717,51,47,0
100.39795,100.50717,56,47,0
100.54358,100.762024,48,44,0
100.54358,100.762024,51,44,0
100.54358,100.762024,56,44,0
100.83484,100.94406,48,44,0
100.83484,100.94406,51,44,0
100.83484,100.94406,56,44,0
100.98047,101.19892,48,51,0
100.98047,101.19892,51,51,0
100.98047,101.19892,56,51,0
101.271736,101.38096,48,42,0
101.271736,101.38096,51,42,0
101.271736,101.38096,56,42,0
101.417366,101.63581,48,36,0
101.417366,101.63581,51,36,0
101.417366,101.63581,56,36,0
101.708626,101.81785,48,32,0
101.708626,101.81785,51,32,0
101.708626,101.81785,56,32,0
101.854256,102.14552,37,36,0
102.14552,102.254745,56,24,0
102.14552,102.254745,52,24,0
102.14552,102.254745,49,24,0
102.29115,102.5096,56,27,0
102.29115,102.5096,52,27,0
102.29115,102.5096,49,27,0
102.58241,102.691635,56,25,0
102.58241,102.691635,52,25,0
102.58241,102.691635,49,25,0
102.72804,102.94649,52,36,0
102.72804,102.94649,49,36,0
103.0193,103.12853,56,27,0
103.0193,103.12853,52,27,0
103.0193,103.12853,49,27,0
103.16494,103.383385,56,32,0
103.16494,103.383385,52,32,0
103.4562,103.56542,56,27,0
103.4562,103.56542,52,27,0
103.4562,103.56542,49,27,0
103.60183,103.89309,42,41,0
103.89309,104.00231,57,29,0
103.89309,104.00231,54,29,0
103.89309,104.00231,49,29,0
104.03872,104.25717,57,34,0
104.03872,104.25717,54,34,0
104.03872,104.25717,49,34,0
104.32999,104.43921,57,30,0
104.32999,104.43921,54,30,0
104.32999,104.43921,49,30,0
104.47562,104.69406,57,37,0
104.47562,104.69406,54,37,0
104.47562,104.69406,49,37,0
104.76688,104.8761,57,27,0
104.76688,104.8761,54,27,0
104.76688,104.8761,49,27,0
104.912506,105.13096,57,29,0
104.912506,105.13096,54,29,0
104.912506,105.13096,49,29,0
105.20377,105.31309,57,27,0
105.20377,105.31309,54,27,0
105.20377,105.31309,49,27,0
105.34959,105.64185,47,41,0
105.64185,105.75161,52,37,0
105.64185,105.75161,56,37,0
105.64185,105.75161,59,37,0
105.7882,106.00808,52,39,0
105.7882,106.00808,56,39,0
105.7882,106.00808,59,39,0
106.08161,106.1919,52,47,0
106.08161,106.1919,56,47,0
106.08161,106.1919,59,47,0
106.22867,106.52352,47,49,0
106.52352,106.63436,51,55,0
106.52352,106.63436,57,55,0
106.52352,106.63436,59,55,0
106.6713,106.893,51,59,0
106.6713,106.893,57,59,0
106.6713,106.893,59,59,0
106.96744,107.0791,51,62,0
106.96744,107.0791,57,62,0
106.96744,107.0791,59,62,0
107.116325,107.41457,44,64,0
107.41457,107.528206,49,71,0
107.41457,107.528206,56,71,0
107.41457,107.528206,52,71,0
107.566086,107.79336,49,76,0
107.566086,107.79336,56,76,0
107.566086,107.79336,52,76,0
107.86912,107.98348,49,83,0
107.86912,107.98348,56,83,0
107.86912,107.98348,52,83,0
108.02204,108.331894,44,85,0
108.331894,108.44908,48,76,0
108.331894,108.44908,54,76,0
108.331894,108.44908,56,76,0
108.488144,108.72705,48,73,0
108.488144,108.72705,54,73,0
108.488144,108.72705,56,73,0
108.80993,108.9528,54,59,0
108.80993,108.9528,56,59,0
108.80993,108.9528,48,59,0
109.02152,109.314705,49,36,0
109.314705,109.42446,68,31,0
109.314705,109.42446,64,31,0
109.314705,109.42446,61,31,0
109.46105,109.68056,68,27,0
109.46105,109.68056,64,27,0
109.46105,109.68056,61,27,0
109.75373,109.86349,68,24,0
109.75373,109.86349,64,24,0
109.75373,109.86349,61,24,0
109.90007,110.11958,64,36,0
109.90007,110.11958,61,36,0
110.19276,110.30251,68,25,0
110.19276,110.30251,64,25,0
110.19276,110.30251,61,25,0
110.339096,110.55861,68,32,0
110.339096,110.55861,64,32,0
110.631775,110.74153,68,27,0
110.631775,110.74153,64,27,0
110.631775,110.74153,61,27,0
110.778114,111.0708,54,41,0
111.0708,111.18056,69,38,0
111.0708,111.18056,66,38,0
111.0708,111.18056,61,38,0
111.21714,111.43665,69,34,0
111.21714,111.43665,66,34,0
111.21714,111.43665,61,34,0
111.50982,111.619576,69,30,0
111.50982,111.619576,66,30,0
111.50982,111.619576,61,30,0
111.656166,111.87568,69,37,0
111.656166,111.87568,66,37,0
111.656166,111.87568,61,37,0
111.948845,112.0586,69,34,0
111.948845,112.0586,66,34,0
111.948845,112.0586,61,34,0
112.095184,112.3147,69,29,0
112.095184,112.3147,66,29,0
112.095184,112.3147,61,29,0
112.38787,112.49763,69,27,0
112.38787,112.49763,66,27,0
112.38787,112.49763,61,27,0
112.53421,112.82689,49,36,0
112.82689,112.936646,68,31,0
112.82689,112.936646,64,31,0
112.82689,112.936646,61,31,0
112.973236,113.19274,68,27,0
112.973236,113.19274,64,27,0
112.973236,113.19274,61,27,0
113.265915,113.37567,68,25,0
113.265915,113.37567,64,25,0
113.265915,113.37567,61,25,0
113.412254,113.63177,64,36,0
113.412254,113.63177,61,36,0
113.70494,113.8147,68,31,0
113.70494,113.8147,64,31,0
113.70494,113.8147,61,31,0
113.85128,114.07079,68,38,0
113.85128,114.07079,64,38,0
114.14396,114.253716,68,36,0
114.14396,114.253716,64,36,0
114.14396,114.253716,61,36,0
114.2903,114.582985,56,57,0
114.2903,114.582985,44,57,0
114.582985,114.69274,60,47,0
114.582985,114.69274,63,47,0
114.582985,114.69274,68,47,0
114.729324,114.94884,60,44,0
114.729324,114.94884,63,44,0
114.729324,114.94884,68,44,0
115.022,115.13176,60,44,0
115.022,115.13176,63,44,0
115.022,115.13176,68,44,0
115.16835,115.387856,60,51,0
115.16835,115.387856,63,51,0
115.16835,115.387856,68,51,0
115.46103,115.570786,60,32,0
115.46103,115.570786,63,32,0
115.46103,115.570786,68,32,0
115.60737,115.82688,60,36,0
115.60737,115.82688,63,36,0
115.60737,115.82688,68,36,0
115.900055,116.00981,60,32,0
115.900055,116.00981,63,32,0
115.900055,116.00981,68,32,0
116.046394,116.33907,49,36,0
116.33907,116.44883,68,31,0
116.33907,116.44883,64,31,0
116.33907,116.44883,61,31,0
116.48542,116.704926,68,27,0
116.48542,116.704926,64,27,0
116.48542,116.704926,61,27,0
116.7781,116.887856,68,25,0
116.7781,116.887856,64,25,0
116.7781,116.887856,61,25,0
116.92444,117.14395,64,36,0
116.92444,117.14395,61,36,0
117.217125,117.32687,68,25,0
117.217125,117.32687,64,25,0
117.217125,117.32687,61,25,0
117.363464,117.58298,68,32,0
117.363464,117.58298,64,32,0
117.65614,117.7659,68,28,0
117.65614,117.7659,64,28,0
117.65614,117.7659,61,28,0
117.80248,118.09517,54,41,0
118.09517,118.204926,69,29,0
118.09517,118.204926,66,29,0
118.09517,118.204926,61,29,0
118.24151,118.46102,69,34,0
118.24151,118.46102,66,34,0
118.24151,118.46102,61,34,0
118.53419,118.64394,69,30,0
118.53419,118.64394,66,30,0
118.53419,118.64394,61,30,0
118.680534,118.90004,69,37,0
118.680534,118.90004,66,37,0
118.680534,118.90004,61,37,0
118.97321,119.08297,69,26,0
118.97321,119.08297,66,26,0
118.97321,119.08297,61,26,0
119.11955,119.339066,69,29,0
119.11955,119.339066,66,29,0
119.11955,119.339066,61,29,0
119.41224,119.522194,69,27,0
119.41224,119.522194,66,27,0
119.41224,119.522194,61,27,0
119.55905,119.85389,52,41,0
119.85389,119.964455,57,38,0
119.85389,119.964455,61,38,0
119.85389,119.964455,64,38,0
120.00131,120.22244,57,41,0
120.00131,120.22244,61,41,0
120.00131,120.22244,64,41,0
120.29615,120.406715,57,44,0
120.29615,120.406715,61,44,0
120.29615,120.406715,64,44,0
120.44357,120.73841,52,48,0
120.73841,120.848976,56,53,0
120.73841,120.848976,62,53,0
120.73841,120.848976,64,53,0
120.88583,121.10913,56,55,0
120.88583,121.10913,62,55,0
120.88583,121.10913,64,55,0
121.183754,121.2957,56,57,0
121.183754,121.2957,62,57,0
121.183754,121.2957,64,57,0
121.33301,121.631516,52,61,0
121.631516,121.74396,57,65,0
121.631516,121.74396,64,65,0
121.631516,121.74396,60,65,0
121.781746,122.008484,57,69,0
121.781746,122.008484,64,69,0
121.781746,122.008484,60,69,0
122.085205,122.20058,57,77,0
122.085205,122.20058,64,77,0
122.085205,122.20058,60,77,0
122.23964,122.55441,52,89,0
122.55441,122.67622,56,64,0
122.55441,122.67622,62,64,0
122.55441,122.67622,64,64,0
122.71758,122.99277,56,73,0
122.71758,122.99277,62,73,0
122.71758,122.99277,64,73,0
123.09844,123.315994,56,65,0
123.09844,123.315994,62,65,0
123.09844,123.315994,64,65,0
123.42314,123.774765,40,70,0
123.94165,124.188965,33,52,0
124.5896,124.74749,48,54,0
124.74749,124.90244,47,56,0
124.90244,125.0559,48,61,0
125.0559,125.20935,47,63,0
125.20935,125.3628,45,66,0
125.3628,125.66812,43,68,0
125.81926,126.044914,31,56,0
126.267136,126.56343,69,69,0
126.71158,126.9338,71,61,0
126.71158,126.9338,79,61,0
127.15359,127.444824,43,85,0
127.58905,127.8054,36,69,0
128.16597,128.31021,52,76,0
128.31021,128.45444,51,81,0
128.45444,128.59866,52,86,0
128.59866,128.7429,50,89,0
128.7429,128.88713,48,95,0
128.88713,129.17708,47,99,0
129.32271,129.54335,40,81,0
129.76556,130.06186,64,86,0
130.21004,130.43504,76,68,0
130.66005,130.95946,57,49,0
131.10797,131.25592,81,50,0
131.25592,131.40332,83,54,0
131.40332,131.5493,84,56,0
131.5493,131.84128,86,62,0
131.98726,132.28178,55,46,0
132.43095,132.7302,57,49,0
132.87888,133.02664,81,50,0
133.02664,133.17334,83,54,0
133.17334,133.31973,84,56,0
133.31973,133.61278,86,62,0
133.7606,134.0604,55,46,0
134.21115,134.51265,43,85,0
134.6634,134.88954,36,69,0
135.26642,135.4159,51,76,0
135.4159,135.56477,50,81,0
135.56477,135.71367,51,86,0
135.71367,135.86255,50,89,0
135.86255,136.01138,48,95,0
136.01138,136.30406,46,99,0
136.45041,136.66992,34,89,0
136.88943,137.1781,72,95,0
137.32198,137.53726,82,102,0
137.32198,137.53726,74,102,0
137.75053,138.0349,46,105,0
138.17708,138.39035,39,95,0
138.74579,138.88797,55,93,0
138.88797,139.03015,54,96,0
139.03015,139.17233,55,98,0
139.17233,139.31451,53,100,0
139.31451,139.4567,51,102,0
139.4567,139.74106,50,105,0
139.88324,140.09853,43,88,0
140.31435,140.60666,67,86,0
140.75497,140.97958,79,68,0
141.20572,141.50626,39,60,0
141.65506,141.8032,63,50,0
141.8032,141.95012,65,54,0
141.95012,142.0961,67,56,0
142.0961,142.38736,68,62,0
142.53362,142.8307,38,56,0
142.9804,143.28186,39,59,0
143.433,143.58412,63,44,0
143.58412,143.73526,65,47,0
143.73526,143.8888,67,51,0
143.8888,144.20323,68,52,0
144.36453,144.70178,58,51,0
144.87584,145.21425,46,63,0
145.3674,145.59467,39,52,0
145.96858,146.11725,54,54,0
146.11725,146.26466,53,56,0
146.26466,146.41173,54,61,0
146.41173,146.55879,53,63,0
146.55879,146.70464,51,66,0
146.70464,146.9959,49,68,0
147.14153,147.3576,37,56,0
147.57344,147.85959,75,69,0
148.0021,148.2158,77,61,0
148.0021,148.2158,85,61,0
148.42767,148.71365,49,85,0
148.85352,149.06264,42,69,0
149.40985,149.54958,58,76,0
149.54958,149.69109,57,81,0
149.69109,149.83243,58,86,0
149.83243,149.9736,56,89,0
149.9736,150.11586,54,95,0
150.11586,150.40228,53,99,0
150.54652,150.76306,46,81,0
150.98172,151.27782,70,86,0
151.42883,151.66733,82,105,0
151.92429,152.21696,46,113,0
152.3633,152.65456,39,100,0
152.79994,153.08932,46,114,0
152.79994,153.08932,58,114,0
152.79994,153.08932,53,114,0
152.79994,153.08932,49,114,0
153.08932,153.1975,46,114,0
153.08932,153.1975,58,114,0
153.08932,153.1975,53,114,0
153.08932,153.1975,49,114,0
153.23354,153.52063,49,107,0
153.23354,153.52063,61,107,0
153.23354,153.52063,58,107,0
153.23354,153.52063,53,107,0
153.52063,153.62798,49,114,0
153.52063,153.62798,61,114,0
153.52063,153.62798,58,114,0
153.52063,153.62798,53,114,0
153.6637,153.94942,51,113,0
153.6637,153.94942,63,113,0
153.6637,153.94942,58,113,0
153.6637,153.94942,54,113,0
154.0918,154.37616,39,100,0
154.51833,154.80135,46,114,0
154.51833,154.80135,58,114,0
154.51833,154.80135,53,114,0
154.51833,154.80135,49,114,0
154.80135,154.90697,46,114,0
154.80135,154.90697,58,114,0
154.80135,154.90697,53,114,0
154.80135,154.90697,49,114,0
154.94218,155.22388,49,107,0
154.94218,155.22388,61,107,0
154.94218,155.22388,58,107,0
154.94218,155.22388,53,107,0
155.22388,155.32944,49,114,0
155.22388,155.32944,61,114,0
155.22388,155.32944,58,114,0
155.22388,155.32944,53,114,0
155.36449,155.64487,54,113,0
155.36449,155.64487,63,113,0
155.36449,155.64487,51,113,0
155.36449,155.64487,59,113,0
155.78505,156.06543,47,100,0
156.20561,156.48598,42,114,0
156.20561,156.48598,46,114,0
156.20561,156.48598,54,114,0
156.20561,156.48598,49,114,0
156.48598,156.59113,42,114,0
156.48598,156.59113,46,114,0
156.48598,156.59113,54,114,0
156.48598,156.59113,49,114,0
156.62617,156.90654,49,107,0
156.62617,156.90654,58,107,0
156.62617,156.90654,46,107,0
156.62617,156.90654,54,107,0
156.90654,157.01169,49,114,0
156.90654,157.01169,58,114,0
156.90654,157.01169,46,114,0
156.90654,157.01169,54,114,0
157.04672,157.32777,51,113,0
157.04672,157.32777,59,113,0
157.04672,157.32777,47,113,0
157.04672,157.32777,56,113,0
157.46895,157.75131,44,100,0
157.89249,158.17723,56,113,0
157.89249,158.17723,44,113,0
158.17723,158.28462,56,101,0
158.17723,158.28462,44,101,0
158.32042,158.60872,59,102,0
158.32042,158.60872,47,102,0
158.60872,158.71822,59,101,0
158.60872,158.71822,47,101,0
158.75471,159.0476,56,114,0
158.75471,159.0476,44,114,0
159.0476,159.15845,56,108,0
159.0476,159.15845,44,108,0
159.19539,159.49095,51,120,0
159.19539,159.49095,39,120,0
159.49095,159.60179,39,114,0
159.49095,159.60179,51,114,0
159.63873,159.93935,47,124,0
159.63873,159.93935,35,124,0
159.93935,160.05399,47,117,0
159.93935,160.05399,35,117,0
160.09245,160.40561,44,127,0
160.09245,160.40561,32,127,0
160.40561,160.52911,44,120,0
160.40561,160.52911,32,120,0
160.58403,160.77231,46,127,0
160.58403,160.77231,34,127,0
160.83383,161.00697,56,100,0
161.00697,161.16528,59,104,0
161.16528,161.3167,58,106,0
161.3167,161.46548,56,108,0
161.46548,161.6128,54,110,0
161.6128,161.75882,53,112,0
161.75882,161.90308,51,114,0
161.90308,162.04573,49,115,0
162.04573,162.18747,47,118,0
162.18747,162.32812,46,121,0
162.32812,162.4683,45,121,0
162.4683,162.58835,46,127,0
162.4683,162.58835,34,127,0
162.63,162.77588,56,100,0
162.77588,162.91946,59,104,0
162.91946,163.0621,58,106,0
163.0621,163.20418,56,108,0
163.20418,163.34569,54,110,0
163.34569,163.48666,53,112,0
163.48666,163.62741,51,114,0
163.62741,163.7675,49,115,0
163.7675,163.90703,47,118,0
163.90703,164.04593,46,121,0
164.04593,164.1843,45,121,0
164.1843,164.30399,34,127,0
164.1843,164.30399,46,127,0
164.34564,164.49014,44,100,0
164.49014,164.63347,47,104,0
164.63347,164.7759,46,106,0
164.7759,164.91753,44,108,0
164.91753,165.05882,42,110,0
165.05882,165.19934,41,112,0
165.19934,165.33911,39,114,0
165.33911,165.47833,37,115,0
165.47833,165.6167,35,118,0
165.6167,165.75453,34,121,0
165.75453,165.89195,33,121,0
165.89195,166.03883,34,127,0
166.03883,166.1752,36,126,0
166.1752,166.31157,38,126,0
166.31157,166.44907,39,124,0
166.44907,166.58769,41,122,0
166.58769,166.72942,42,121,0
166.72942,166.8729,44,120,0
166.8729,167.01857,46,117,0
167.01857,167.16492,48,115,0
167.16492,167.31375,50,115,0
167.31375,167.46513,51,113,0
167.46513,167.6178,53,107,0
167.6178,167.77264,54,107,0
167.77264,167.9298,56,97,0
167.9298,168.0912,58,96,0
168.0912,168.25604,60,90,0
168.25604,168.42102,62,85,0
168.42102,168.59435,63,78,0
168.59435,168.95021,65,76,0
169.13478,169.33287,46,37,0
169.33287,169.53577,45,40,0
169.53577,169.75005,44,46,0
169.74648,169.95517,42,52,0
169.95517,170.1358,41,44,0
170.1358,170.29729,42,39,0
170.29729,170.45409,46,36,0
170.45409,170.60953,45,41,0
170.60953,170.76378,46,45,0
170.76378,170.91684,42,50,0
170.91684,171.0699,41,47,0
171.0699,171.2225,42,45,0
171.2225,171.37288,46,41,0
171.37288,171.52325,45,44,0
171.52325,171.67363,46,48,0
171.67363,171.82289,44,54,0
171.82289,171.97214,43,46,0
171.97214,172.1214,44,43,0
172.1214,172.27028,47,39,0
172.27028,172.41734,46,39,0
172.41734,172.5644,47,45,0
172.5644,172.71146,44,49,0
172.71146,172.85733,43,44,0
172.85733,173.00261,44,43,0
173.00261,173.14789,47,40,0
173.14789,173.29317,46,39,0
173.29317,173.43845,47,36,0
173.43845,173.58267,46,41,0
173.58267,173.7269,45,38,0
173.7269,173.87114,46,36,0
173.87114,174.01537,51,38,0
174.01537,174.15817,50,36,0
174.15817,174.30069,51,33,0
174.30069,174.4432,46,40,0
174.4432,174.58488,45,39,0
174.58488,174.7264,46,34,0
174.7264,174.8679,50,40,0
174.8679,175.0094,49,35,0
175.0094,175.15091,50,32,0
175.15091,175.29242,42,52,0
175.29242,175.43393,41,44,0
175.43393,175.57544,42,39,0
175.57544,175.71695,46,36,0
175.71695,175.85846,45,41,0
175.85846,175.99997,46,45,0
175.99997,176.14148,42,50,0
176.14148,176.28299,41,47,0
176.28299,176.4245,42,45,0
176.4245,176.56601,46,41,0
176.56601,176.70752,45,44,0
176.70752,176.84792,46,48,0
176.84792,176.98811,43,43,0
176.98811,177.1283,42,46,0
177.1283,177.26848,43,48,0
177.26848,177.40866,46,50,0
177.40866,177.54886,43,53,0
177.54886,177.68904,46,54,0
177.68904,177.82922,44,56,0
177.82922,177.9694,43,56,0
177.9694,178.1096,44,52,0
178.1096,178.24979,51,48,0
178.24979,178.38997,44,47,0
178.38997,178.53017,51,44,0
178.53017,178.67035,46,42,0
178.67035,178.81021,45,38,0
178.81021,178.94846,46,36,0
178.94846,179.0867,51,38,0
179.0867,179.22496,46,36,0
179.22496,179.3632,51,33,0
179.3632,179.50145,46,40,0
179.50145,179.63892,45,39,0
179.63892,179.77621,46,34,0
179.77621,179.91351,50,40,0
179.91351,180.05081,49,35,0
180.05081,180.18811,50,32,0
180.18811,180.32541,46,41,0
180.32541,180.4627,45,38,0
180.4627,180.6,46,36,0
180.6,180.73767,51,38,0
180.73767,180.87721,46,36,0
180.87721,181.01675,51,33,0
181.01675,181.1587,46,36,0
181.1587,181.3026,45,34,0
181.3026,181.44861,46,33,0
181.44861,181.59602,50,32,0
181.59602,181.74393,49,32,0
181.74393,181.8943,50,30,0
181.8943,182.04533,46,34,0
182.04533,182.19957,45,32,0
182.19957,182.3538,46,30,0
182.3538,182.51076,51,29,0
182.51076,182.67105,46,28,0
182.67105,182.83498,51,28,0
182.83498,183.00693,46,28,0
183.00693,183.19342,45,31,0
183.19342,183.399,46,28,0
183.399,183.64297,50,27,0
183.64297,183.91562,49,25,0
183.91562,184.20195,50,24,0
184.20195,184.43083,51,38,0
184.43083,184.62813,50,32,0
184.62813,184.8049,51,35,0
184.8049,185.30278,55,38,0
184.8049,185.30278,58,38,0
185.30278,185.46567,51,29,0
185.46567,185.62454,50,31,0
185.62454,185.78203,51,34,0
185.78203,186.24408,55,38,0
185.78203,186.24408,58,38,0
186.24408,186.3961,51,31,0
186.3961,186.548,50,33,0
186.548,186.698,51,37,0
186.698,187.13976,55,40,0
186.698,187.13976,58,40,0
187.13976,187.28458,49,31,0
187.28458,187.4288,48,33,0
187.4288,187.572,49,37,0
187.572,187.99677,55,40,0
187.572,187.99677,53,40,0
187.99677,188.1376,48,31,0
188.1376,188.27791,47,31,0
188.27791,188.41782,48,31,0
188.41782,188.83566,52,40,0
188.41782,188.83566,55,40,0
188.83566,188.97418,48,40,0
188.97418,189.11243,47,43,0
189.11243,189.25069,48,44,0
189.25069,189.66327,53,45,0
189.25069,189.66327,56,45,0
189.66327,189.8005,48,43,0
189.8005,189.9375,47,42,0
189.9375,190.07448,48,38,0
190.07448,190.48544,52,34,0
190.07448,190.48544,55,34,0
190.48544,190.62227,49,45,0
190.62227,190.75894,48,33,0
190.75894,190.89561,49,37,0
190.89561,191.30563,55,40,0
190.89561,191.30563,53,40,0
191.30563,191.44232,48,31,0
191.44232,191.579,47,31,0
191.579,191.71567,48,31,0
191.71567,192.12569,57,40,0
191.71567,192.12569,53,40,0
192.12569,192.26236,47,31,0
192.26236,192.39903,46,33,0
192.39903,192.5357,47,37,0
192.5357,192.94572,53,40,0
192.5357,192.94572,51,40,0
192.94572,193.08293,46,31,0
193.08293,193.22118,45,31,0
193.22118,193.35942,46,31,0
193.35942,193.77579,55,40,0
193.35942,193.77579,51,40,0
193.77579,193.91597,46,39,0
193.91597,194.0575,45,40,0
194.0575,194.20035,46,43,0
194.20035,194.6341,56,48,0
194.20035,194.6341,53,48,0
194.6341,194.7811,46,47,0
194.7811,194.92853,45,44,0
194.92853,195.07594,46,40,0
195.07594,195.52275,51,37,0
195.07594,195.52275,55,37,0
195.52275,195.67793,46,43,0
195.67793,195.835,45,40,0
195.835,195.99457,46,36,0
195.99457,196.48389,50,32,0
196.48389,196.64426,39,27,0
196.64426,196.80315,38,32,0
196.80315,196.95859,39,35,0
196.95859,197.41295,43,38,0
196.95859,197.41295,51,38,0
197.41295,197.55823,39,29,0
197.55823,197.70235,38,31,0
197.70235,197.84622,39,34,0
197.84622,198.27538,43,38,0
197.84622,198.27538,51,38,0
198.27538,198.4179,39,31,0
198.4179,198.56041,38,33,0
198.56041,198.70293,39,37,0
198.70293,199.1289,43,40,0
198.70293,199.1289,51,40,0
199.1289,199.27008,37,31,0
199.27008,199.41127,36,33,0
199.41127,199.55244,37,37,0
199.55244,199.97531,43,40,0
199.97531,200.11452,36,31,0
200.11452,200.25374,35,31,0
200.25374,200.39294,36,31,0
200.39294,200.81058,43,40,0
200.81058,200.94978,36,40,0
200.94978,201.089,35,43,0
201.089,201.22821,36,44,0
201.22821,201.64748,44,45,0
201.64748,201.78865,36,46,0
201.78865,201.92984,35,43,0
201.92984,202.07101,36,39,0
202.07101,202.49678,43,37,0
202.49678,202.63963,37,45,0
202.63963,202.78249,36,33,0
202.78249,202.92535,37,37,0
202.92535,203.35927,43,40,0
203.35927,203.5042,36,31,0
203.5042,203.64912,35,31,0
203.64912,203.79405,36,31,0
203.79405,204.23299,45,40,0
204.23299,204.38255,35,31,0
204.38255,204.53256,34,33,0
204.53256,204.68256,35,37,0
204.68256,205.13632,41,40,0
205.13632,205.29016,34,31,0
205.29016,205.444,33,31,0
205.444,205.60025,34,31,0
205.60025,206.07108,43,40,0
206.07108,206.2328,34,39,0
206.2328,206.3963,33,40,0
206.3963,206.5616,34,43,0
206.5616,207.06772,44,48,0
207.06772,207.24164,34,46,0
207.24164,207.4176,33,43,0
207.4176,207.59459,34,40,0
207.59459,208.14178,43,37,0
208.14178,208.33311,34,40,0
208.33311,208.5286,33,34,0
208.5286,208.73244,34,31,0
208.73244,209.37895,46,30,0
211.09454,211.2374,47,23,0
211.2374,211.38026,51,25,0
211.38026,211.52312,54,27,0
211.52312,211.66553,59,29,0
211.66553,211.80765,51,29,0
211.80765,211.92113,54,31,0
211.9495,212.09016,47,33,0
212.09016,212.23068,51,35,0
212.23068,212.3712,54,37,0
212.3712,212.5109,59,36,0
212.5109,212.65001,51,33,0
212.65001,212.7606,54,30,0
212.78825,212.92628,47,37,0
212.92628,213.06328,51,26,0
213.06328,213.20021,54,29,0
213.20021,213.33688,59,33,0
213.33688,213.47356,51,29,0
213.47356,213.5829,54,33,0
213.61023,213.7469,47,37,0
213.7469,213.88358,51,31,0
213.88358,214.02135,54,35,0
214.02135,214.16454,59,37,0
214.16454,214.30774,51,31,0
214.30774,214.4223,54,27,0
214.45094,214.5873,47,37,0
214.5873,214.72366,51,31,0
214.72366,214.86003,54,35,0
214.86003,214.99638,59,37,0
214.99638,215.13275,51,31,0
215.13275,215.24185,54,27,0
215.26912,215.40549,47,36,0
215.40549,215.54184,52,39,0
215.54184,215.68048,55,42,0
215.68048,215.83047,61,43,0
215.83047,215.98048,52,42,0
215.98048,216.10048,55,37,0
216.13318,216.2994,47,37,0
216.2994,216.43575,51,31,0
216.43575,216.57211,54,35,0
216.57211,216.71474,59,37,0
216.71474,216.85725,51,31,0
216.85725,216.97127,54,27,0
216.99977,217.1423,47,34,0
217.1423,217.28369,51,31,0
217.28369,217.42487,54,32,0
217.42487,217.56606,59,38,0
217.56606,217.71008,51,34,0
217.71008,217.83673,54,32,0
217.8684,218.00847,46,39,0
218.00847,218.14833,49,31,0
218.14833,218.2882,54,34,0
218.2882,218.42805,61,39,0
218.42805,218.5679,49,38,0
218.5679,218.70776,54,34,0
218.70776,218.84628,47,39,0
218.84628,218.98453,54,30,0
218.98453,219.12279,59,35,0
219.12279,219.26103,49,39,0
219.26103,219.39928,54,37,0
219.39928,219.53752,58,33,0
219.53752,219.67451,50,39,0
219.67451,219.8115,53,32,0
219.8115,219.94849,54,33,0
219.94849,220.08546,57,40,0
220.08546,220.22092,53,35,0
220.22092,220.35635,54,38,0
220.35635,220.492,49,44,0
220.492,220.62868,58,35,0
220.62868,220.76724,54,42,0
220.76724,220.90742,48,37,0
220.90742,221.04794,56,33,0
221.04794,221.18852,54,33,0
221.18852,221.34328,49,44,0
221.34328,221.48445,54,34,0
221.48445,221.6273,58,41,0
221.6273,221.77017,61,45,0
221.77017,221.91302,54,47,0
221.91302,222.0568,58,44,0
222.0568,222.20103,49,42,0
222.20103,222.34666,56,42,0
222.34666,222.4923,59,37,0
222.4923,222.63792,61,36,0
222.63792,222.78534,56,35,0
222.78534,222.93275,59,33,0
222.93275,223.0814,54,37,0
223.0814,223.23029,58,42,0
223.23029,223.37772,59,45,0
223.37772,223.52441,61,43,0
223.52441,223.66953,58,40,0
223.66953,223.81204,61,36,0
223.81204,223.95355,54,49,0
223.95355,224.09363,58,42,0
224.09363,224.23349,61,45,0
224.23349,224.37206,64,48,0
224.37206,224.51004,58,44,0
224.51004,224.64671,61,41,0
224.64671,224.78339,54,49,0
224.78339,224.92006,58,40,0
224.92006,225.05673,61,44,0
225.05673,225.19342,64,48,0
225.19342,225.3301,58,44,0
225.3301,225.46677,61,39,0
225.46677,225.60344,54,50,0
225.60344,225.74089,58,40,0
225.74089,225.87915,61,44,0
225.87915,226.0174,64,48,0
226.0174,226.15698,58,43,0
226.15698,226.29684,61,41,0
226.29684,226.4378,54,52,0
226.4378,226.57932,59,43,0
226.57932,226.72083,63,47,0
226.72083,226.8625,66,50,0
226.8625,227.00435,59,46,0
227.00435,227.14618,63,42,0
227.14618,227.28584,54,53,0
227.28584,227.42426,59,42,0
227.42426,227.56186,63,44,0
227.56186,227.69948,66,53,0
227.69948,227.83684,59,50,0
227.83684,227.97289,63,44,0
227.97289,228.10832,54,52,0
228.10832,228.24347,59,45,0
228.24347,228.3786,63,50,0
228.3786,228.51373,66,51,0
228.51373,228.64886,59,49,0
228.64886,228.784,63,44,0
228.784,228.91914,54,53,0
228.91914,229.05428,59,43,0
229.05428,229.1894,62,46,0
229.1894,229.32454,68,42,0
229.32454,229.45967,59,39,0
229.45967,229.59482,62,36,0
229.59482,229.72995,54,54,0
229.72995,229.86508,58,49,0
229.86508,230.00021,61,46,0
230.00021,230.13535,66,40,0
230.13535,230.2705,58,37,0
230.2705,230.40562,61,40,0
230.40562,230.5406,54,49,0
230.5406,230.67468,58,42,0
230.67468,230.80861,61,45,0
230.80861,230.94185,64,48,0
230.94185,231.0743,58,44,0
231.0743,231.20665,61,41,0
231.20665,231.33852,54,49,0
231.33852,231.47038,58,40,0
231.47038,231.60168,61,44,0
231.60168,231.73297,64,48,0
231.73297,231.86426,58,44,0
231.86426,231.99556,61,39,0
231.99556,232.12685,54,50,0
232.12685,232.25829,58,40,0
232.25829,232.39044,61,44,0
232.39044,232.52333,64,48,0
232.52333,232.65787,58,43,0
232.65787,232.79393,61,41,0
232.79393,232.9316,54,52,0
232.9316,233.07114,59,43,0
233.07114,233.21432,63,47,0
233.21432,233.35753,66,50,0
233.35753,233.50073,59,46,0
233.50073,233.64348,63,42,0
233.64348,233.78351,54,53,0
233.78351,233.91866,59,42,0
233.91866,234.05199,63,44,0
234.05199,234.18474,66,53,0
234.18474,234.31747,59,50,0
234.31747,234.45023,63,44,0
234.45023,234.58296,54,52,0
234.58296,234.71616,59,45,0
234.71616,234.8516,63,50,0
234.8516,234.98705,66,51,0
234.98705,235.1235,59,49,0
235.1235,235.26161,63,44,0
235.26161,235.40689,54,53,0
235.40689,235.55217,59,43,0
235.55217,235.69745,62,46,0
235.69745,235.84273,68,42,0
235.84273,235.988,59,39,0
235.988,236.13329,62,36,0
236.13329,236.27432,54,54,0
236.27432,236.4145,58,49,0
236.4145,236.55675,61,46,0
236.55675,236.7003,66,40,0
236.7003,236.846,58,37,0
236.846,236.99402,61,40,0
237.29253,237.4169,41,35,0
237.44179,237.56616,42,39,0
237.59103,237.71541,44,45,0
237.7403,237.86467,46,49,0
237.88954,238.02591,47,37,0
238.02591,238.16226,51,31,0
238.16226,238.29863,54,35,0
238.29863,238.435,59,37,0
238.435,238.57137,51,31,0
238.57137,238.68045,54,27,0
238.70772,238.84409,47,36,0
238.84409,238.98045,52,39,0
238.98045,239.11908,55,42,0
239.11908,239.26909,61,43,0
239.26909,239.41908,52,42,0
239.41908,239.5391,55,37,0
239.5718,239.73799,47,37,0
239.73799,239.87436,51,31,0
239.87436,240.01071,54,35,0
240.01071,240.15363,59,37,0
240.15363,240.2965,51,31,0
240.2965,240.41078,54,27,0
240.43935,240.5822,47,34,0
240.5822,240.72507,51,31,0
240.72507,240.86792,54,32,0
240.86792,241.01077,59,38,0
241.01077,241.15363,51,34,0
241.15363,241.26791,54,32,0
241.2965,241.43935,46,39,0
241.43935,241.5822,49,31,0
241.5822,241.72311,54,34,0
241.72311,241.86362,61,39,0
241.86362,242.00252,49,38,0
242.00252,242.14108,54,34,0
242.14108,242.27965,47,39,0
242.27965,242.41821,51,30,0
242.41821,242.5568,54,35,0
242.5568,242.69536,51,39,0
242.69536,242.83266,54,37,0
242.83266,242.96996,59,33,0
242.96996,243.10725,52,39,0
243.10725,243.24455,54,32,0
243.24455,243.38185,55,33,0
243.38185,243.51889,61,40,0
243.51889,243.65463,54,35,0
243.65463,243.79039,55,38,0
243.79039,243.92613,51,44,0
243.92613,244.06224,54,35,0
244.06224,244.2006,59,42,0
244.2006,244.34113,53,37,0
244.34113,244.48163,59,33,0
244.48163,244.62221,62,33,0
244.62221,244.77696,54,44,0
244.77696,244.91814,59,34,0
244.91814,245.06134,63,41,0
245.06134,245.20454,66,45,0
245.20454,245.34773,59,47,0
245.34773,245.49231,63,44,0
245.49231,245.63689,54,42,0
245.63689,245.78146,61,42,0
245.78146,245.92693,64,37,0
245.92693,246.07327,66,36,0
246.07327,246.21962,61,35,0
246.21962,246.36743,64,33,0
246.36743,246.51817,47,37,0
246.51817,246.66893,51,42,0
246.66893,246.81908,54,45,0
246.81908,246.96613,59,43,0
246.96613,247.11107,51,40,0
247.11107,247.25496,54,36,0
247.25496,247.39726,47,49,0
247.39726,247.53876,51,42,0
247.53876,247.67831,54,45,0
247.67831,247.81688,57,48,0
247.81688,247.95544,51,44,0
247.95544,248.09276,54,41,0
248.09276,248.22882,47,49,0
248.22882,248.36487,51,40,0
248.36487,248.50092,54,44,0
248.50092,248.63698,57,48,0
248.63698,248.77303,51,44,0
248.77303,248.90909,54,39,0
248.90909,249.04514,47,50,0
249.04514,249.1812,51,40,0
249.1812,249.31912,54,44,0
249.31912,249.45753,57,48,0
249.45753,249.59642,51,43,0
249.59642,249.73596,54,41,0
249.73596,249.87631,47,52,0
249.87631,250.01732,52,43,0
250.01732,250.15916,56,47,0
250.15916,250.30101,59,50,0
250.30101,250.44286,52,46,0
250.44286,250.58386,56,42,0
250.58386,250.72383,47,53,0
250.72383,250.86273,52,42,0
250.86273,251.00098,56,44,0
251.00098,251.1386,59,53,0
251.1386,251.27557,52,50,0
251.27557,251.41164,56,44,0
251.41164,251.54707,47,52,0
251.54707,251.68251,52,45,0
251.68251,251.81796,56,50,0
251.81796,251.9534,59,51,0
251.9534,252.08884,52,49,0
252.08884,252.22427,56,44,0
252.22427,252.35971,47,53,0
252.35971,252.49516,52,43,0
252.49516,252.6306,55,46,0
252.6306,252.76604,61,42,0
252.76604,252.90147,52,39,0
252.90147,253.03691,55,36,0
253.03691,253.17236,47,54,0
253.17236,253.3078,51,49,0
253.3078,253.44324,54,46,0
253.44324,253.57867,59,40,0
253.57867,253.71411,51,37,0
253.71411,253.84956,54,40,0
253.84956,253.985,47,49,0
253.985,254.11963,51,42,0
254.11963,254.25267,54,45,0
254.25267,254.38571,57,48,0
254.38571,254.51875,51,44,0
254.51875,254.6516,54,41,0
254.6516,254.78346,47,49,0
254.78346,254.91533,51,40,0
254.91533,255.0472,54,44,0
255.0472,255.17906,57,48,0
255.17906,255.31093,51,44,0
255.31093,255.44185,54,39,0
255.44185,255.57228,47,50,0
255.57228,255.70271,51,40,0
255.70271,255.83315,54,44,0
255.83315,255.96512,57,48,0
255.96512,256.09937,51,43,0
256.09937,256.2362,54,41,0
256.2362,256.37415,47,52,0
256.37415,256.51566,52,43,0
256.51566,256.6585,56,47,0
256.6585,256.8017,59,50,0
256.8017,256.9449,52,46,0
256.9449,257.0881,56,42,0
257.0881,257.22827,47,53,0
257.22827,257.36383,52,42,0
257.36383,257.4969,56,44,0
257.4969,257.6299,59,53,0
257.6299,257.76294,52,50,0
257.76294,257.896,56,44,0
257.896,258.02902,47,52,0
258.02902,258.16226,52,45,0
258.16226,258.2974,56,50,0
258.2974,258.43362,59,51,0
258.43362,258.5706,52,49,0
258.5706,258.7147,56,44,0
258.7147,258.8716,47,53,0
258.8716,259.02167,52,43,0
259.02167,259.1697,55,46,0
259.1697,259.31677,61,42,0
259.31677,259.46204,52,39,0
259.46204,259.60696,55,36,0
259.60696,259.74728,47,54,0
259.74728,259.88715,51,49,0
259.88715,260.027,54,46,0
260.027,260.16687,59,40,0
260.16687,260.30673,51,37,0
260.30673,260.4466,54,40,0
261.98505,262.1016,59,36,0
262.1249,262.24146,58,38,0
262.26477,262.38132,56,38,0
262.40463,262.52118,54,38,0
262.5445,262.66104,52,35,0
262.68436,262.8009,51,32,0
262.8242,262.94077,49,32,0
262.96405,263.0806,47,32,0
263.2422,263.37888,47,32,0
263.37888,263.51553,35,35,0
263.65222,263.78888,35,32,0
263.78888,263.92557,47,39,0
264.06223,264.1989,47,38,0
264.1989,264.33557,35,40,0
264.47226,264.60892,35,36,0
264.60892,264.7456,47,37,0
264.88226,265.01895,47,44,0
265.01895,265.15564,35,44,0
265.2923,265.429,35,45,0
265.429,265.56564,47,46,0
265.70233,265.839,47,50,0
265.839,265.97568,35,50,0
266.24902,267.10822,59,53,0
267.10822,267.51932,57,47,0
267.51932,267.861,54,43,0
267.92932,268.7885,59,49,0
267.92932,268.7885,55,49,0
268.7885,269.18942,57,39,0
268.7885,269.18942,54,39,0
269.18942,269.51553,54,35,0
269.18942,269.51553,51,35,0
269.58032,269.97333,55,35,0
269.58032,269.97333,52,35,0
269.97333,270.38147,53,39,0
269.97333,270.38147,50,39,0
270.38147,270.8018,52,43,0
270.38147,270.8018,48,43,0
270.8018,271.21365,50,45,0
270.8018,271.21365,46,45,0
271.21365,272.3021,52,46,0
271.21365,272.3021,45,46,0
272.84628,273.70547,57,51,0
273.70547,274.10718,55,40,0
274.10718,274.4341,52,36,0
274.49933,275.35852,57,49,0
274.49933,275.35852,53,49,0
275.35852,275.76004,55,41,0
275.35852,275.76004,52,41,0
275.76004,276.08658,52,43,0
275.76004,276.08658,49,43,0
276.15137,276.5449,53,50,0
276.15137,276.5449,50,50,0
276.5449,276.95178,51,55,0
276.5449,276.95178,48,55,0
276.95178,277.37256,50,61,0
276.95178,277.37256,46,61,0
277.37256,277.78397,48,68,0
277.37256,277.78397,44,68,0
277.78397,278.86996,50,77,0
277.78397,278.86996,43,77,0
279.41293,280.22742,55,78,0
280.22742,280.63464,53,64,0
280.63464,280.97403,50,59,0
281.0419,281.85638,51,47,0
281.0419,281.85638,48,47,0
281.85638,282.2636,46,65,0
282.2636,282.60297,43,54,0
281.85638,282.60297,52,65,0
282.67087,283.0781,53,59,0
282.67087,283.0781,44,59,0
283.0781,283.48532,51,63,0
283.0781,283.48532,43,63,0
283.48532,283.90002,50,66,0
283.48532,283.90002,41,66,0
283.90002,284.24823,52,101,0
283.90002,284.24823,43,101,0
284.31656,284.7266,53,74,0
284.31656,284.7266,44,74,0
284.7266,285.13663,51,63,0
284.7266,285.13663,43,63,0
285.13663,285.55283,50,66,0
285.13663,285.55283,41,66,0
285.55283,285.90973,51,101,0
285.55283,285.90973,43,101,0
285.98083,286.36276,41,64,0
285.98083,286.36276,50,64,0
286.3975,286.77945,50,52,0
286.3975,286.77945,42,52,0
286.81415,287.1926,50,58,0
286.81415,287.1926,43,58,0
287.22678,287.60184,50,68,0
287.22678,287.60184,44,68,0
287.63586,288.78244,50,76,0
288.84927,289.24945,49,99,0
289.24945,290.04477,48,95,0
287.63586,290.04477,44,76,0
290.04477,290.83337,47,99,0
290.04477,290.83337,43,99,0
290.83337,291.6194,60,99,0
290.83337,291.6194,48,99,0
291.6194,292.0124,58,87,0
292.0124,292.3399,55,73,0
292.40543,293.19144,56,83,0
292.40543,293.19144,53,83,0
293.19144,293.58444,51,96,0
293.58444,293.91196,48,84,0
293.19144,293.91196,57,96,0
293.97748,294.37048,58,93,0
293.97748,294.37048,49,93,0
294.37048,294.7635,56,75,0
294.37048,294.7635,48,75,0
294.7635,295.1687,55,83,0
294.7635,295.1687,46,83,0
295.1687,295.5169,57,98,0
295.1687,295.5169,48,98,0
295.58524,295.99527,58,94,0
295.58524,295.99527,49,94,0
295.99527,296.40527,56,90,0
295.99527,296.40527,48,90,0
296.40527,296.8215,55,84,0
296.40527,296.8215,46,84,0
296.8215,297.17862,56,99,0
296.8215,297.17862,48,99,0
297.25006,297.6239,46,92,0
297.25006,297.6239,55,92,0
297.65784,298.03113,55,85,0
297.65784,298.03113,47,85,0
298.06506,298.43835,55,80,0
298.06506,298.43835,48,80,0
298.4723,298.8456,55,76,0
298.4723,298.8456,49,76,0
298.87955,300.0334,55,73,0
300.10126,300.5085,54,88,0
300.5085,301.32376,53,95,0
298.87955,301.32376,49,73,0
301.32376,302.16016,52,88,0
301.32376,302.16016,48,88,0
302.16016,303.00012,65,109,0
302.16016,303.00012,53,109,0
303.00012,303.41983,63,120,0
303.41983,303.8486,60,106,0
303.8486,304.2871,57,106,0
304.2871,304.6583,53,95,0
304.73236,305.57956,58,114,0
304.73236,305.57956,54,114,0
305.57956,305.9868,51,93,0
305.9868,306.39322,48,86,0
305.57956,306.39322,57,93,0
306.39322,306.6586,56,87,0
306.39322,306.6586,44,87,0
306.7893,307.05075,32,105,0
307.18146,307.4429,61,122,0
307.5746,307.84036,49,91,0
307.97412,308.2432,44,84,0
308.37848,308.78946,61,60,0
308.37848,308.78946,65,60,0
308.78946,309.20874,63,67,0
308.78946,309.20874,66,67,0
309.20874,309.572,63,53,0
309.20874,309.572,56,53,0
309.64795,309.93106,61,126,0
310.0678,310.3389,49,91,0
310.4728,310.74188,44,84,0
310.87762,311.29514,61,60,0
310.87762,311.29514,65,60,0
311.29514,311.72437,63,67,0
311.29514,311.72437,66,67,0
311.72437,312.08905,63,53,0
311.72437,312.08905,56,53,0
312.16333,312.523,64,48,0
312.16333,312.523,61,48,0
312.60614,312.96036,64,59,0
312.60614,312.96036,62,59,0
312.60614,312.96036,59,59,0
313.0427,313.38974,64,69,0
313.0427,313.38974,60,69,0
313.0427,313.38974,57,69,0
313.4694,313.8113,64,83,0
313.4694,313.8113,55,83,0
313.4694,313.8113,58,83,0
313.4694,313.8113,60,83,0
313.89093,314.23062,65,91,0
313.89093,314.23062,60,91,0
313.89093,314.23062,56,91,0
314.30872,314.64188,65,112,0
314.30872,314.64188,60,112,0
314.30872,314.64188,53,112,0
314.71902,315.5817,60,127,0
315.5817,316.00357,58,76,0
316.00357,316.43213,55,80,0
316.43213,316.8727,52,90,0
316.8727,317.24585,48,97,0
317.3205,318.16248,53,115,0
317.3205,318.16248,49,115,0
318.16248,318.56787,46,82,0
318.56787,318.9733,43,75,0
318.16248,318.9733,52,82,0
318.9733,319.23935,51,87,0
318.9733,319.23935,39,87,0
319.3695,319.62982,51,107,0
319.75998,320.02014,56,122,0
320.15073,320.41547,44,91,0
320.5488,320.8188,39,84,0
320.95453,321.36334,56,60,0
320.95453,321.36334,60,60,0
321.36334,321.78336,58,67,0
321.36334,321.78336,61,67,0
321.78336,322.1472,58,53,0
321.78336,322.1472,51,53,0
322.22314,322.50504,56,121,0
322.6418,322.91238,44,91,0
323.04617,323.31635,39,84,0
323.45303,323.86887,60,60,0
323.45303,323.86887,57,60,0
323.86887,324.29797,58,67,0
323.86887,324.29797,61,67,0
324.29797,324.66412,58,53,0
324.29797,324.66412,51,53,0
324.73804,325.09628,59,48,0
324.73804,325.09628,56,48,0
325.1792,325.53445,59,59,0
325.1792,325.53445,57,59,0
325.1792,325.53445,54,59,0
325.61682,325.96564,59,69,0
325.61682,325.96564,55,69,0
325.61682,325.96564,52,69,0
326.0462,326.39047,59,83,0
326.0462,326.39047,50,83,0
326.0462,326.39047,53,83,0
326.0462,326.39047,55,83,0
326.47028,326.8093,60,91,0
326.47028,326.8093,55,91,0
326.47028,326.8093,51,91,0
326.888,327.22314,60,112,0
326.888,327.22314,55,112,0
326.888,327.22314,48,112,0
327.30322,328.1646,67,127,0
328.1646,328.5846,65,120,0
328.5846,329.01318,62,106,0
329.01318,329.44943,59,106,0
329.44943,329.81528,55,95,0
329.88846,330.7241,60,121,0
329.88846,330.7241,56,121,0
330.7241,331.13318,53,109,0
331.13318,331.54227,50,98,0
330.7241,331.54227,59,109,0
331.54227,331.8093,58,109,0
331.54227,331.8093,46,109,0
331.9409,332.20236,34,116,0
332.3325,332.5932,63,122,0
332.7245,332.98813,51,91,0
333.12146,333.38977,46,84,0
333.5255,333.93448,63,60,0
333.5255,333.93448,67,60,0
333.93448,334.35522,65,67,0
333.93448,334.35522,68,67,0
334.35522,334.71796,65,53,0
334.35522,334.71796,58,53,0
334.79388,335.0812,63,126,0
335.2185,335.49213,51,91,0
335.62665,335.89618,46,84,0
336.03,336.4434,64,60,0
336.0323,336.4457,67,60,0
336.4457,336.8739,65,67,0
336.4457,336.8739,68,67,0
336.8739,337.25558,65,53,0
336.8739,337.25558,58,53,0
337.3411,338.17288,55,111,0
337.3411,338.17288,43,111,0
338.17288,338.5829,53,105,0
338.17288,338.5829,41,105,0
338.5829,338.99292,50,99,0
338.5829,338.99292,38,99,0
338.99292,339.40295,47,90,0
338.99292,339.40295,35,90,0
339.40295,339.81296,43,96,0
339.40295,339.81296,31,96,0
339.81296,339.94965,44,99,0
339.81296,339.94965,32,99,0
340.0863,340.22916,44,93,0
340.22916,340.37204,56,114,0
340.5087,340.6454,43,75,0
340.6454,340.78204,44,85,0
340.78204,340.91873,46,89,0
340.91873,341.0554,47,93,0
341.0554,341.19208,48,95,0
341.19208,341.32874,49,98,0
341.32874,341.46542,50,99,0
341.46542,341.60208,51,101,0
341.60208,341.73877,52,104,0
341.73877,341.87543,53,104,0
341.87543,342.01212,54,105,0
342.01212,342.14877,55,107,0
342.14877,342.28546,54,109,0
342.28546,343.11786,55,116,0
342.28546,343.11786,43,116,0
343.11786,343.5279,53,105,0
343.11786,343.5279,41,105,0
343.5279,343.93793,50,99,0
343.5279,343.93793,38,99,0
343.93793,344.34793,47,90,0
343.93793,344.34793,35,90,0
344.34793,344.75797,43,96,0
344.34793,344.75797,31,96,0
344.75797,344.89462,42,99,0
344.75797,344.89462,30,99,0
345.0313,345.17416,42,93,0
345.17416,345.31702,54,114,0
345.4537,345.59036,43,75,0
345.59036,345.72705,42,85,0
345.72705,345.8637,43,89,0
345.8637,346.0004,44,93,0
346.0004,346.13705,45,95,0
346.13705,346.27374,46,98,0
346.27374,346.4104,47,99,0
346.4104,346.5471,48,101,0
346.5471,346.68375,50,101,0
346.68375,346.82043,51,97,0
346.82043,346.95712,52,93,0
346.95712,347.09378,53,90,0
347.09378,347.23047,54,86,0
347.23047,348.06772,55,111,0
347.23047,348.06772,43,111,0
348.06772,348.47772,53,110,0
348.06772,348.47772,41,110,0
348.47772,348.8882,50,107,0
348.47772,348.8882,38,107,0
348.8882,349.3105,47,112,0
348.8882,349.3105,35,112,0
349.3105,349.75516,43,118,0
349.3105,349.75516,31,118,0
349.75516,349.91446,44,127,0
349.75516,349.91446,32,127,0
350.07446,350.23444,44,124,0
350.23444,350.39444,56,127,0
350.5345,350.67056,43,120,0
350.67056,350.80533,44,120,0
350.80533,350.93985,46,119,0
350.93985,351.0744,47,117,0
351.0744,351.208,48,114,0
351.208,351.34164,49,112,0
351.34164,351.47528,50,111,0
351.47528,351.60892,51,109,0
351.60892,351.74255,52,104,0
351.74255,351.87616,53,103,0
351.87616,352.0098,54,103,0
352.0098,352.14423,55,109,0
352.14423,352.27966,56,115,0
352.27966,352.41663,55,114,0
352.41663,352.55487,59,102,0
352.55487,352.6931,62,96,0
352.6931,352.83136,67,85,0
354.37262,354.51617,59,61,0
354.51617,354.6597,57,59,0
354.6597,354.80325,55,56,0
354.80325,354.94678,54,53,0
354.94678,355.09033,52,48,0
355.09033,355.23428,50,45,0
355.23428,355.38025,48,41,0
355.38025,355.5268,47,39,0
355.5268,355.67383,45,36,0
355.67383,355.82053,43,33,0
355.96722,356.1039,43,45,0
356.1039,356.2406,31,54,0
357.60733,357.744,43,71,0
357.744,357.88068,31,81,0
359.0001,360.65387,49,55,0
359.0001,360.65387,52,55,0
359.0001,360.65387,44,55,0
360.65387,361.49252,51,46,0
360.65387,361.49252,49,46,0
360.65387,361.49252,44,46,0
361.49252,362.34528,51,43,0
361.49252,362.34528,48,43,0
361.49252,362.34528,44,43,0
362.34528,364.13623,51,41,0
362.34528,364.13623,48,41,0
362.34528,364.13623,43,41,0
364.13623,365.1378,50,36,0
364.13623,365.1378,48,36,0
364.13623,365.1378,43,36,0
365.1378,366.21634,50,35,0
365.1378,366.21634,47,35,0
365.1378,366.21634,43,35,0
367.01794,367.1625,48,44,0
367.1625,367.3071,51,32,0
367.3071,367.44995,55,34,0
367.44995,367.5928,47,39,0
367.5928,367.73453,50,32,0
367.73453,367.87604,55,38,0
367.87604,368.01624,48,42,0
368.01624,368.15512,51,33,0
368.15512,368.2937,55,38,0
368.2937,368.43185,51,41,0
368.43185,368.5694,55,31,0
368.5694,368.70645,60,34,0
368.70645,368.8429,53,40,0
368.8429,368.97928,56,32,0
368.97928,369.11563,62,36,0
369.11563,369.252,55,41,0
369.252,369.38837,59,34,0
369.38837,369.52472,65,38,0
369.52472,369.6611,48,42,0
369.6611,369.79745,55,38,0
369.79745,369.9338,60,35,0
369.9338,370.0702,51,39,0
370.0702,370.20654,55,35,0
370.20654,370.3429,60,35,0
370.3429,370.47928,53,45,0
370.47928,370.61563,56,39,0
370.61563,370.75198,60,41,0
370.75198,370.88837,50,44,0
370.88837,371.02472,53,49,0
371.02472,371.1611,60,48,0
371.1611,371.29745,51,56,0
371.29745,371.4338,55,63,0
371.4338,371.5702,60,69,0
371.5702,371.70654,48,74,0
371.70654,371.8429,51,79,0
371.8429,371.97928,55,87,0
371.97928,372.11563,45,92,0
372.11563,372.25198,48,99,0
372.25198,372.38837,55,102,0
372.38837,372.52472,44,105,0
372.52472,372.6611,48,109,0
372.6611,372.79745,55,115,0
372.79745,372.9338,43,118,0
372.9338,373.0702,47,94,0
373.0702,373.20654,55,110,0
373.20654,373.3429,50,123,0
373.3429,373.47928,53,91,0
373.47928,373.61563,55,64,0
373.61563,373.75198,48,59,0
373.75198,373.88837,51,58,0
373.88837,374.02472,55,34,0
374.02472,374.16107,47,39,0
374.16107,374.29745,50,32,0
374.29745,374.4338,55,38,0
374.4338,374.5702,48,42,0
374.5702,374.70654,51,33,0
374.70654,374.8429,55,38,0
374.8429,374.97928,51,41,0
374.97928,375.11563,55,31,0
375.11563,375.25198,60,34,0
375.25198,375.38837,53,40,0
375.38837,375.52472,56,32,0
375.52472,375.66107,62,36,0
375.66107,375.79745,55,41,0
375.79745,375.9338,59,34,0
375.9338,376.07016,65,38,0
376.07016,376.20654,48,42,0
376.20654,376.3429,55,41,0
376.3429,376.47928,60,43,0
376.47928,376.61563,51,45,0
376.61563,376.75146,55,46,0
376.75146,376.88724,60,49,0
376.88724,377.02298,53,61,0
377.02298,377.15842,56,54,0
377.15842,377.29355,60,56,0
377.29355,377.42868,50,59,0
377.42868,377.5638,53,63,0
377.5638,377.69864,60,65,0
377.69864,377.8332,51,78,0
377.8332,377.9677,55,69,0
377.9677,378.10175,60,71,0
378.10175,378.23566,48,79,0
378.23566,378.3696,51,94,0
378.3696,378.50323,55,105,0
378.50323,378.63657,43,118,0
378.63657,378.7699,48,97,0
378.7699,378.90292,51,101,0
378.90292,379.03568,43,103,0
379.03568,379.16843,47,107,0
379.16843,379.30115,50,110,0
379.30115,379.4338,36,116,0
379.4338,379.56595,39,100,0
379.56595,379.69812,43,89,0
379.69812,379.8298,48,81,0
379.8298,379.96136,51,73,0
379.96136,380.09247,55,68,0
380.09247,380.22348,53,59,0
380.22348,380.3545,56,53,0
380.3545,380.48596,59,46,0
380.48596,380.61783,50,47,0
380.61783,380.7501,53,44,0
380.7501,380.88284,56,41,0
380.88284,381.01556,47,40,0
381.01556,381.1488,50,36,0
381.1488,381.28244,53,35,0
381.28244,381.41638,43,36,0
381.41638,381.55078,50,40,0
381.55078,381.68533,53,43,0
381.68533,381.82016,44,48,0
381.82016,381.955,48,43,0
381.955,382.09012,51,41,0
382.09012,382.22586,42,40,0
382.22586,382.36188,48,40,0
382.36188,382.49918,51,45,0
382.49918,382.6354,43,48,0
382.6354,382.76892,47,52,0
382.76892,382.9014,50,56,0
382.9014,383.03238,47,61,0
383.03238,383.1627,50,64,0
383.1627,383.29227,55,69,0
383.29227,383.42188,53,72,0
383.42188,383.55035,56,73,0
383.55035,383.67883,59,67,0
383.67883,383.8073,50,60,0
383.8073,383.9358,53,56,0
383.9358,384.06427,56,49,0
384.06427,384.19275,47,44,0
384.19275,384.32123,50,42,0
384.32123,384.4497,53,45,0
384.4497,384.57846,43,47,0
384.57846,384.70776,50,42,0
384.70776,384.83905,53,47,0
384.83905,384.97034,44,51,0
384.97034,385.10242,48,40,0
385.10242,385.23575,51,36,0
385.23575,385.36908,44,41,0
385.36908,385.5024,48,37,0
385.5024,385.63846,50,39,0
385.63846,385.77515,43,43,0
385.77515,385.91245,47,47,0
385.91245,386.05048,50,52,0
386.05048,386.1927,55,56,0
386.1927,386.33975,53,52,0
386.33975,386.4903,50,47,0
386.4903,386.7227,48,54,0
386.7227,386.8737,52,32,0
386.8737,387.02444,55,34,0
387.02444,387.1752,47,39,0
387.1752,387.3257,53,32,0
387.3257,387.47498,55,38,0
387.47498,387.6242,48,42,0
387.6242,387.77316,52,33,0
387.77316,387.9206,55,38,0
387.9206,388.06622,52,41,0
388.06622,388.2115,55,31,0
388.2115,388.3564,60,34,0
388.3564,388.501,53,40,0
388.501,388.6449,57,32,0
388.6449,388.7881,62,36,0
388.7881,388.93094,55,41,0
388.93094,389.07214,59,34,0
389.07214,389.21298,65,38,0
389.21298,389.35382,48,42,0
389.35382,389.4925,55,38,0
389.4925,389.63074,60,35,0
389.63074,389.769,52,39,0
389.769,389.90594,55,35,0
389.90594,390.0426,60,35,0
390.0426,390.1793,53,38,0
390.1793,390.31595,57,34,0
390.31595,390.45264,60,32,0
390.45264,390.5893,50,40,0
390.5893,390.72598,53,35,0
390.72598,390.86264,60,30,0
390.86264,390.99933,52,40,0
390.99933,391.136,55,35,0
391.136,391.27267,60,32,0
391.27267,391.40936,48,40,0
391.40936,391.54602,52,37,0
391.54602,391.68338,55,29,0
391.68338,391.82205,45,39,0
391.82205,391.96225,48,34,0
391.96225,392.10522,55,31,0
392.10522,392.2491,47,39,0
392.2491,392.399,50,33,0
392.399,392.5538,55,30,0
392.5538,392.70776,48,40,0
392.70776,392.8536,52,36,0
392.8536,392.9959,55,32,0
392.9959,393.13626,52,39,0
393.13626,393.2758,55,37,0
393.2758,393.41507,60,34,0
393.41507,393.55298,53,31,0
393.55298,393.69092,57,29,0
393.69092,393.82886,60,26,0
393.82886,393.9668,50,35,0
393.9668,394.10568,53,32,0
394.10568,394.24457,60,22,0
394.24457,394.38345,52,34,0
394.38345,394.52234,55,31,0
394.52234,394.661,60,27,0
394.661,394.79926,48,24,0
394.79926,394.9375,52,32,0
394.9375,395.07574,55,28,0
395.07574,395.21536,45,37,0
395.21536,395.35635,48,32,0
395.35635,395.49908,55,29,0
395.49908,395.64597,47,35,0
395.64597,395.79636,50,33,0
395.79636,395.9517,55,30,0
395.9517,396.10916,48,34,0
396.10916,396.263,52,31,0
396.263,396.41034,55,27,0
396.41034,396.55597,52,39,0
396.55597,396.69928,55,37,0
396.69928,396.83978,60,33,0
396.83978,396.97867,53,39,0
396.97867,397.11624,56,35,0
397.11624,397.25323,60,32,0
397.25323,397.3899,53,39,0
397.3899,397.52658,57,33,0
397.52658,397.66324,60,30,0
397.66324,397.79993,50,37,0
397.79993,397.93658,57,35,0
397.93658,398.07327,62,31,0
398.07327,398.20996,55,40,0
398.20996,398.34662,59,34,0
398.34662,398.48386,62,31,0
398.48386,398.6215,52,40,0
398.6215,398.75967,55,38,0
398.75967,398.90106,60,33,0
398.90106,399.0474,51,49,0
399.0474,399.19373,54,46,0
399.19373,399.34006,60,43,0
399.34006,399.4766,52,39,0
399.4766,399.61298,55,35,0
399.61298,399.74854,60,31,0
399.74854,399.88327,52,39,0
399.88327,400.0178,55,35,0
400.0178,400.15234,60,31,0
400.15234,400.28687,53,39,0
400.28687,400.4214,56,35,0
400.4214,400.5559,60,32,0
400.5559,400.69046,53,35,0
400.69046,400.82498,57,40,0
400.82498,400.95874,60,46,0
400.95874,401.09207,50,53,0
401.09207,401.2254,57,48,0
401.2254,401.35873,62,39,0
401.35873,401.49207,55,45,0
401.49207,401.6254,62,47,0
401.6254,401.75873,65,55,0
401.75873,401.89206,48,68,0
401.89206,402.0254,52,65,0
402.0254,402.15872,55,63,0
402.15872,402.29205,48,60,0
402.29205,402.42538,51,56,0
402.42538,402.55872,54,52,0
402.55872,402.69205,48,54,0
402.69205,402.82538,52,48,0
402.82538,402.9587,55,47,0
402.9587,403.09204,48,46,0
403.09204,403.22537,53,55,0
403.22537,403.35873,56,51,0
403.35873,403.49207,48,59,0
403.49207,403.6254,52,56,0
403.6254,403.75873,55,53,0
403.75873,403.89206,48,50,0
403.89206,404.0254,51,48,0
404.0254,404.15872,54,47,0
404.15872,404.29205,48,44,0
404.29205,404.42538,52,42,0
404.42538,404.5589,55,38,0
404.5589,404.69342,48,47,0
404.69342,404.82816,53,46,0
404.82816,404.9633,56,41,0
404.9633,405.09842,48,52,0
405.09842,405.23355,52,49,0
405.23355,405.36868,55,47,0
405.36868,405.5038,48,42,0
405.5038,405.63895,51,40,0
405.63895,405.7749,54,36,0
405.7749,405.91125,48,33,0
405.91125,406.0476,52,33,0
406.0476,406.18542,55,31,0
406.18542,406.32336,48,39,0
406.32336,406.46127,53,37,0
406.46127,406.5992,56,33,0
406.5992,406.73715,48,39,0
406.73715,406.8764,52,46,0
406.8764,407.01596,55,49,0
407.01596,407.1555,48,53,0
407.1555,407.295,53,59,0
407.295,407.4362,56,63,0
407.4362,407.5777,48,66,0
407.5777,407.72192,52,69,0
407.72192,407.867,55,74,0
407.867,407.97806,49,95,0
408.18372,408.3235,49,113,0
408.3738,409.92465,49,127,0
408.3738,410.10696,37,127,0
410.10696,410.2181,49,61,0
410.10696,410.2181,60,61,0
410.10696,410.2181,56,61,0
410.10696,410.2181,54,61,0
410.2546,410.36353,49,66,0
410.2546,410.36353,60,66,0
410.2546,410.36353,56,66,0
410.2546,410.36353,54,66,0
410.39978,410.5079,49,72,0
410.39978,410.5079,60,72,0
410.39978,410.5079,56,72,0
410.39978,410.5079,54,72,0
410.5438,410.65118,49,76,0
410.5438,410.65118,60,76,0
410.5438,410.65118,56,76,0
410.5438,410.65118,54,76,0
410.6868,410.79327,49,81,0
410.6868,410.79327,60,81,0
410.6868,410.79327,56,81,0
410.6868,410.79327,54,81,0
410.82864,410.9345,49,87,0
410.82864,410.9345,60,87,0
410.82864,410.9345,56,87,0
410.82864,410.9345,54,87,0
410.96964,411.07462,49,92,0
410.96964,411.07462,60,92,0
410.96964,411.07462,56,92,0
410.96964,411.07462,54,92,0
411.1095,411.21384,49,95,0
411.1095,411.21384,60,95,0
411.1095,411.21384,56,95,0
411.1095,411.21384,54,95,0
411.2484,411.35175,49,99,0
411.2484,411.35175,60,99,0
411.2484,411.35175,56,99,0
411.2484,411.35175,54,99,0
411.38614,411.4889,49,104,0
411.38614,411.4889,60,104,0
411.38614,411.4889,56,104,0
411.38614,411.4889,54,104,0
411.52304,411.62546,49,109,0
411.52304,411.62546,60,109,0
411.52304,411.62546,56,109,0
411.52304,411.62546,54,109,0
411.6596,411.76187,49,118,0
411.6596,411.76187,60,118,0
411.6596,411.76187,56,118,0
411.6596,411.76187,54,118,0
411.79596,412.02075,61,126,0
411.79596,412.02075,49,126,0
411.79596,412.02075,53,126,0
411.79596,412.02075,56,126,0
412.2527,413.04214,49,126,0
412.2527,413.04214,37,126,0
413.11392,413.45038,49,127,0
413.11392,413.45038,42,127,0
413.5007,413.5846,49,100,0
413.5007,413.5846,42,100,0
413.62823,415.17047,49,117,0
413.62823,415.35544,37,117,0
415.3345,415.44568,54,64,0
415.3345,415.44568,60,64,0
415.3345,415.44568,56,64,0
415.3345,415.44568,49,64,0
415.48215,415.5911,49,67,0
415.48215,415.5911,60,67,0
415.48215,415.5911,56,67,0
415.48215,415.5911,54,67,0
415.62732,415.73547,49,72,0
415.62732,415.73547,60,72,0
415.62732,415.73547,56,72,0
415.62732,415.73547,54,72,0
415.77136,415.87872,49,77,0
415.77136,415.87872,60,77,0
415.77136,415.87872,56,77,0
415.77136,415.87872,54,77,0
415.91434,416.0208,49,83,0
415.91434,416.0208,60,83,0
415.91434,416.0208,56,83,0
415.91434,416.0208,54,83,0
416.0562,416.16208,49,85,0
416.0562,416.16208,60,85,0
416.0562,416.16208,56,85,0
416.0562,416.16208,54,85,0
416.19717,416.30215,49,91,0
416.19717,416.30215,60,91,0
416.19717,416.30215,56,91,0
416.19717,416.30215,54,91,0
416.33707,416.4414,49,97,0
416.33707,416.4414,60,97,0
416.33707,416.4414,56,97,0
416.33707,416.4414,54,97,0
416.47595,416.57928,49,99,0
416.47595,416.57928,60,99,0
416.47595,416.57928,56,99,0
416.47595,416.57928,54,99,0
416.6137,416.71643,49,105,0
416.6137,416.71643,60,105,0
416.6137,416.71643,56,105,0
416.6137,416.71643,54,105,0
416.7506,416.85303,49,110,0
416.7506,416.85303,60,110,0
416.7506,416.85303,56,110,0
416.7506,416.85303,54,110,0
416.88718,416.98944,49,120,0
416.88718,416.98944,60,120,0
416.88718,416.98944,56,120,0
416.88718,416.98944,54,120,0
417.02353,417.2483,61,126,0
417.02353,417.2483,49,126,0
417.02353,417.2483,53,126,0
417.02353,417.2483,56,126,0
417.4824,418.64185,49,126,0
417.4824,418.64185,37,126,0
418.71002,418.8196,51,61,0
418.71002,418.8196,48,61,0
418.71002,418.8196,57,61,0
418.71002,418.8196,53,61,0
418.85608,418.96503,51,65,0
418.85608,418.96503,48,65,0
418.85608,418.96503,57,65,0
418.85608,418.96503,53,65,0
419.00125,419.1094,51,70,0
419.00125,419.1094,48,70,0
419.00125,419.1094,57,70,0
419.00125,419.1094,53,70,0
419.1453,419.25266,51,75,0
419.1453,419.25266,48,75,0
419.1453,419.25266,57,75,0
419.1453,419.25266,53,75,0
419.28827,419.39474,51,80,0
419.28827,419.39474,48,80,0
419.28827,419.39474,57,80,0
419.28827,419.39474,53,80,0
419.4301,419.536,51,86,0
419.4301,419.536,48,86,0
419.4301,419.536,57,86,0
419.4301,419.536,53,86,0
419.5711,419.6761,51,92,0
419.5711,419.6761,48,92,0
419.5711,419.6761,57,92,0
419.5711,419.6761,53,92,0
419.71097,419.81534,51,99,0
419.71097,419.81534,48,99,0
419.71097,419.81534,57,99,0
419.71097,419.81534,53,99,0
419.84988,419.95322,51,105,0
419.84988,419.95322,48,105,0
419.84988,419.95322,57,105,0
419.84988,419.95322,53,105,0
419.9876,420.09036,51,111,0
419.9876,420.09036,48,111,0
419.9876,420.09036,57,111,0
419.9876,420.09036,53,111,0
420.1245,420.22693,51,117,0
420.1245,420.22693,48,117,0
420.1245,420.22693,57,117,0
420.1245,420.22693,53,117,0
420.2611,420.36337,51,125,0
420.2611,420.36337,48,125,0
420.2611,420.36337,57,125,0
420.2611,420.36337,53,125,0
420.39746,420.62222,58,127,0
420.39746,420.62222,46,127,0
420.39746,420.62222,50,127,0
420.39746,420.62222,53,127,0
420.85632,421.14227,46,126,0
420.85632,421.14227,34,126,0
421.28513,421.50882,58,126,0
421.28513,421.50882,46,126,0
421.28513,421.50882,50,126,0
421.28513,421.50882,53,126,0
421.73383,422.0338,46,126,0
421.73383,422.0338,34,126,0
422.18997,422.42435,58,126,0
422.18997,422.42435,46,126,0
422.18997,422.42435,50,126,0
422.18997,422.42435,53,126,0
422.65872,422.99188,46,126,0
422.65872,422.99188,34,126,0
423.98227,424.20706,58,126,0
423.98227,424.20706,46,126,0
423.98227,424.20706,50,126,0
423.98227,424.20706,53,126,0
424.43207,424.74936,46,126,0
424.43207,424.74936,34,126,0
426.54446,426.83572,46,36,0
426.83817,426.9474,65,31,0
426.83817,426.9474,61,31,0
426.83817,426.9474,58,31,0
426.9838,427.20224,65,29,0
426.9838,427.20224,61,29,0
426.9838,427.20224,58,29,0
427.2726,427.38184,58,26,0
427.2726,427.38184,61,26,0
427.2726,427.38184,65,26,0
427.41824,427.6367,61,36,0
427.41824,427.6367,65,36,0
427.41824,427.6367,58,36,0
427.71194,427.82117,58,31,0
427.71194,427.82117,61,31,0
427.71194,427.82117,65,31,0
427.85757,428.07602,65,32,0
427.85757,428.07602,61,32,0
428.14883,428.25806,65,29,0
428.14883,428.25806,61,29,0
428.14883,428.25806,58,29,0
428.29446,428.58572,51,41,0
428.58572,428.69495,66,38,0
428.58572,428.69495,63,38,0
428.58572,428.69495,58,38,0
428.73135,428.9498,66,34,0
428.73135,428.9498,63,34,0
428.73135,428.9498,58,34,0
429.0226,429.13184,66,30,0
429.0226,429.13184,63,30,0
429.0226,429.13184,58,30,0
429.16824,429.3867,66,37,0
429.16824,429.3867,63,37,0
429.16824,429.3867,58,37,0
429.4595,429.56873,66,34,0
429.4595,429.56873,63,34,0
429.4595,429.56873,58,34,0
429.60513,429.82358,66,29,0
429.60513,429.82358,63,29,0
429.60513,429.82358,58,29,0
429.8964,430.0056,66,27,0
429.8964,430.0056,63,27,0
429.8964,430.0056,58,27,0
430.04202,430.33328,46,36,0
430.33328,430.4425,65,31,0
430.33328,430.4425,61,31,0
430.33328,430.4425,58,31,0
430.4789,430.69736,65,27,0
430.4789,430.69736,61,27,0
430.4789,430.69736,58,27,0
430.77017,430.87943,65,25,0
430.77017,430.87943,61,25,0
430.77017,430.87943,58,25,0
430.91583,431.13428,61,36,0
430.91583,431.13428,58,36,0
431.20465,431.31387,58,31,0
431.20465,431.31387,61,31,0
431.20465,431.31387,65,31,0
431.35028,431.56873,58,27,0
431.35028,431.56873,61,27,0
431.64154,431.75076,58,25,0
431.64154,431.75076,61,25,0
431.64154,431.75076,65,25,0
431.78717,432.07843,53,51,0
431.7896,432.08087,41,51,0
432.08087,432.1901,57,36,0
432.08087,432.1901,60,36,0
432.08087,432.1901,65,36,0
432.2265,432.44495,57,33,0
432.2265,432.44495,60,33,0
432.2265,432.44495,65,33,0
432.51776,432.62698,57,35,0
432.51776,432.62698,60,35,0
432.51776,432.62698,65,35,0
432.6634,432.88184,57,43,0
432.6634,432.88184,60,43,0
432.6634,432.88184,65,43,0
432.95465,433.06387,57,34,0
432.95465,433.06387,60,34,0
432.95465,433.06387,65,34,0
433.10028,433.31873,57,32,0
433.10028,433.31873,60,32,0
433.10028,433.31873,65,32,0
433.39154,433.50076,57,32,0
433.39154,433.50076,60,32,0
433.39154,433.50076,65,32,0
433.53717,433.82843,46,36,0
433.82843,433.93765,65,24,0
433.82843,433.93765,61,24,0
433.82843,433.93765,58,24,0
433.97406,434.1925,65,27,0
433.97406,434.1925,61,27,0
433.97406,434.1925,58,27,0
434.26532,434.37454,65,25,0
434.26532,434.37454,61,25,0
434.26532,434.37454,58,25,0
434.41095,434.6294,61,36,0
434.41095,434.6294,58,36,0
434.7022,434.81146,65,27,0
434.7022,434.81146,61,27,0
434.7022,434.81146,58,27,0
434.84787,435.0663,65,32,0
434.84787,435.0663,61,32,0
435.13913,435.24835,65,27,0
435.13913,435.24835,61,27,0
435.13913,435.24835,58,27,0
435.28476,435.57602,51,41,0
435.57602,435.68524,66,29,0
435.57602,435.68524,63,29,0
435.57602,435.68524,58,29,0
435.72165,435.9401,66,34,0
435.72165,435.9401,63,34,0
435.72165,435.9401,58,34,0
436.0129,436.12213,66,30,0
436.0129,436.12213,63,30,0
436.0129,436.12213,58,30,0
436.15854,436.37698,66,37,0
436.15854,436.37698,63,37,0
436.15854,436.37698,58,37,0
436.4498,436.55902,66,27,0
436.4498,436.55902,63,27,0
436.4498,436.55902,58,27,0
436.59543,436.81485,66,29,0
436.59543,436.81485,63,29,0
436.59543,436.81485,58,29,0
436.88837,436.99866,66,27,0
436.88837,436.99866,63,27,0
436.88837,436.99866,58,27,0
437.03543,437.32956,44,41,0
437.32956,437.43985,49,38,0
437.32956,437.43985,53,38,0
437.32956,437.43985,56,38,0
437.47662,437.6972,49,34,0
437.47662,437.6972,53,34,0
437.47662,437.6972,56,34,0
437.77072,437.881,49,37,0
437.77072,437.881,53,37,0
437.77072,437.881,56,37,0
437.9178,438.2119,44,46,0
438.2119,438.32288,48,36,0
438.2119,438.32288,54,36,0
438.2119,438.32288,56,36,0
438.3603,438.58472,48,43,0
438.3603,438.58472,54,43,0
438.3603,438.58472,56,43,0
438.65955,438.77176,48,38,0
438.65955,438.77176,54,38,0
438.65955,438.77176,56,38,0
438.80917,439.10843,53,54,0
439.10593,439.21814,56,62,0
439.10843,439.22064,65,62,0
439.10843,439.22064,61,62,0
439.25598,439.4844,56,67,0
439.25854,439.48697,65,67,0
439.25854,439.48697,61,67,0
439.56055,439.67477,56,78,0
439.5631,439.6773,65,78,0
439.5631,439.6773,61,78,0
439.7154,440.02368,53,85,0
440.0211,440.1406,57,76,0
440.02368,440.14325,63,76,0
440.02368,440.14325,65,76,0
440.18335,440.4267,57,73,0
440.18335,440.4267,63,73,0
440.18335,440.4267,65,73,0
440.50986,440.65344,63,59,0
440.50986,440.65344,65,59,0
440.50986,440.65344,57,59,0
440.72217,441.01535,46,36,0
441.01535,441.12512,65,31,0
441.01535,441.12512,61,31,0
441.01535,441.12512,58,31,0
441.1617,441.38123,65,27,0
441.1617,441.38123,61,27,0
441.1617,441.38123,58,27,0
441.45438,441.56415,65,24,0
441.45438,441.56415,61,24,0
441.45438,441.56415,58,24,0
441.60074,441.82022,61,36,0
441.60074,441.82022,58,36,0
441.8934,442.00317,65,25,0
441.8934,442.00317,61,25,0
441.8934,442.00317,58,25,0
442.03973,442.25925,65,32,0
442.03973,442.25925,61,32,0
442.33243,442.44217,65,27,0
442.33243,442.44217,61,27,0
442.33243,442.44217,58,27,0
442.47876,442.77145,51,41,0
442.77145,442.8812,66,38,0
442.77145,442.8812,63,38,0
442.77145,442.8812,58,38,0
442.9178,443.1373,66,34,0
442.9178,443.1373,63,34,0
442.9178,443.1373,58,34,0
443.21048,443.32022,66,30,0
443.21048,443.32022,63,30,0
443.21048,443.32022,58,30,0
443.3568,443.57632,66,37,0
443.3568,443.57632,63,37,0
443.3568,443.57632,58,37,0
443.6495,443.75925,66,34,0
443.6495,443.75925,63,34,0
443.6495,443.75925,58,34,0
443.79584,444.01535,66,29,0
443.79584,444.01535,63,29,0
443.79584,444.01535,58,29,0
444.08853,444.19827,66,27,0
444.08853,444.19827,63,27,0
444.08853,444.19827,58,27,0
444.23486,444.52756,46,36,0
444.52756,444.6373,65,31,0
444.52756,444.6373,61,31,0
444.52756,444.6373,58,31,0
444.6739,444.8934,65,27,0
444.6739,444.8934,61,27,0
444.6739,444.8934,58,27,0
444.96655,445.07632,65,25,0
444.96655,445.07632,61,25,0
444.96655,445.07632,58,25,0
445.1129,445.33243,61,36,0
445.1129,445.33243,58,36,0
445.40558,445.51535,65,31,0
445.40558,445.51535,61,31,0
445.40558,445.51535,58,31,0
445.55194,445.77145,65,38,0
445.55194,445.77145,61,38,0
445.8446,445.95438,65,36,0
445.8446,445.95438,61,36,0
445.8446,445.95438,58,36,0
445.99097,446.28363,53,57,0
445.99097,446.28363,41,57,0
446.28363,446.3934,57,47,0
446.28363,446.3934,60,47,0
446.28363,446.3934,65,47,0
446.42996,446.64948,57,44,0
446.42996,446.64948,60,44,0
446.42996,446.64948,65,44,0
446.72266,446.83243,57,44,0
446.72266,446.83243,60,44,0
446.72266,446.83243,65,44,0
446.869,447.0885,57,51,0
446.869,447.0885,60,51,0
446.869,447.0885,65,51,0
447.16168,447.27142,57,32,0
447.16168,447.27142,60,32,0
447.16168,447.27142,65,32,0
447.308,447.52753,57,36,0
447.308,447.52753,60,36,0
447.308,447.52753,65,36,0
447.6007,447.71045,57,32,0
447.6007,447.71045,60,32,0
447.6007,447.71045,65,32,0
447.74704,448.03973,46,36,0
448.03973,448.14948,65,31,0
448.03973,448.14948,61,31,0
448.03973,448.14948,58,31,0
448.18607,448.40558,65,27,0
448.18607,448.40558,61,27,0
448.18607,448.40558,58,27,0
448.47876,448.5885,65,25,0
448.47876,448.5885,61,25,0
448.47876,448.5885,58,25,0
448.6251,448.8446,61,36,0
448.6251,448.8446,58,36,0
448.9178,449.02753,65,25,0
448.9178,449.02753,61,25,0
448.9178,449.02753,58,25,0
449.06412,449.28363,65,32,0
449.06412,449.28363,61,32,0
449.3568,449.46655,65,28,0
449.3568,449.46655,61,28,0
449.3568,449.46655,58,28,0
449.50314,449.7958,51,41,0
449.7958,449.90558,66,29,0
449.7958,449.90558,63,29,0
449.7958,449.90558,58,29,0
449.94217,450.16168,66,34,0
449.94217,450.16168,63,34,0
449.94217,450.16168,58,34,0
450.23483,450.3446,66,30,0
450.23483,450.3446,63,30,0
450.23483,450.3446,58,30,0
450.3812,450.6007,66,37,0
450.3812,450.6007,63,37,0
450.3812,450.6007,58,37,0
450.67386,450.78363,66,26,0
450.67386,450.78363,63,26,0
450.67386,450.78363,58,26,0
450.82022,451.0397,66,29,0
450.82022,451.0397,63,29,0
450.82022,451.0397,58,29,0
451.11288,451.22308,66,27,0
451.11288,451.22308,63,27,0
451.11288,451.22308,58,27,0
451.25983,451.55396,49,41,0
451.55396,451.66425,54,29,0
451.55396,451.66425,58,29,0
451.55396,451.66425,61,29,0
451.70102,451.9216,54,34,0
451.70102,451.9216,58,34,0
451.70102,451.9216,61,34,0
451.99512,452.10544,54,33,0
451.99512,452.10544,58,33,0
451.99512,452.10544,61,33,0
452.14218,452.43665,49,50,0
452.43665,452.5483,53,35,0
452.43665,452.5483,59,35,0
452.43665,452.5483,61,35,0
452.5855,452.80884,53,43,0
452.5855,452.80884,59,43,0
452.5855,452.80884,61,43,0
452.8833,452.99496,53,38,0
452.8833,452.99496,59,38,0
452.8833,452.99496,61,38,0
453.03217,453.3322,49,54,0
453.3322,453.4456,54,62,0
453.3322,453.4456,61,62,0
453.3322,453.4456,57,62,0
453.48337,453.71136,54,67,0
453.48337,453.71136,61,67,0
453.48337,453.71136,57,67,0
453.78772,453.90222,54,62,0
453.78772,453.90222,61,62,0
453.78772,453.90222,57,62,0
453.94046,454.2588,49,85,0
454.2588,454.38437,53,64,0
454.2588,454.38437,59,64,0
454.2588,454.38437,61,64,0
454.42697,454.70587,53,73,0
454.42697,454.70587,59,73,0
454.42697,454.70587,61,73,0
454.80655,455.01996,53,65,0
454.80655,455.01996,59,65,0
454.80655,455.01996,61,65,0
455.1271,455.47873,37,70,0
455.6436,455.89145,30,52,0
456.29526,456.45316,45,54,0
456.45316,456.60904,44,56,0
456.60904,456.7645,45,61,0
456.7645,456.91852,44,63,0
456.91852,457.07156,42,66,0
457.07156,457.37717,40,68,0
457.52658,457.75336,52,56,0
457.982,458.28204,66,69,0
458.4307,458.65268,68,61,0
458.4307,458.65268,76,61,0
458.87186,459.16165,40,85,0
459.30588,459.52222,33,69,0
459.8828,460.02704,49,76,0
460.02704,460.17126,48,81,0
460.17126,460.3155,49,86,0
460.3155,460.45972,47,89,0
460.45972,460.60492,45,95,0
460.60492,460.89728,44,99,0
461.04507,461.26675,37,81,0
461.48843,461.784,61,86,0
461.9318,462.1568,73,68,0
462.3818,462.68085,54,49,0
462.829,462.97714,78,50,0
462.97714,463.12405,80,54,0
463.12405,463.2702,81,56,0
463.2702,463.56146,83,62,0
463.70712,464.0025,52,46,0
464.15137,464.44913,54,49,0
464.59802,464.74615,78,50,0
464.74615,464.89392,80,54,0
464.89392,465.0405,81,56,0
465.0405,465.33246,83,62,0
465.47937,465.77832,52,46,0
465.92868,466.23022,40,72,0
466.38174,466.609,33,59,0
466.9878,467.13864,48,76,0
467.13864,467.28827,47,81,0
467.28827,467.4379,48,86,0
467.4379,467.587,47,89,0
467.587,467.73517,45,95,0
467.73517,468.03146,43,99,0
468.17886,468.3989,31,89,0
468.6182,468.90735,69,95,0
469.0519,469.2664,79,102,0
469.0519,469.2664,71,102,0
469.47964,469.764,43,105,0
469.9062,470.11948,36,95,0
470.4749,470.6171,52,93,0
470.6171,470.75937,51,96,0
470.75937,470.90225,52,98,0
470.90225,471.0451,50,100,0
471.0451,471.18796,48,102,0
471.18796,471.47366,47,105,0
471.61652,471.83356,40,81,0
472.05148,472.34445,64,86,0
472.49258,472.71732,76,68,0
472.94308,473.2441,36,60,0
473.393,473.54034,60,50,0
473.54034,473.6874,62,54,0
473.6874,473.83444,64,56,0
473.83444,474.12857,65,62,0
474.27563,474.57385,35,56,0
474.7242,475.02496,36,59,0
475.17563,475.3275,60,44,0
475.3275,475.47943,62,47,0
475.47943,475.63293,64,51,0
475.63293,475.94385,65,52,0
476.1038,476.4397,55,51,0
476.61374,476.94327,43,70,0
477.09674,477.32474,36,52,0
477.69937,477.8486,51,54,0
477.8486,477.99643,50,56,0
477.99643,478.14276,51,61,0
478.14276,478.2891,50,63,0
478.2891,478.43546,48,66,0
478.43546,478.72772,46,68,0
478.87198,479.08832,34,56,0
479.3044,479.59012,72,69,0
479.73297,479.94727,74,61,0
479.73297,479.94727,82,61,0
480.15952,480.4412,46,85,0
480.58203,480.79083,39,69,0
481.13895,481.27914,55,76,0
481.27914,481.42065,54,81,0
481.42065,481.56216,55,86,0
481.56216,481.7037,53,89,0
481.7037,481.84656,51,95,0
481.84656,482.1333,50,99,0
482.278,482.49542,43,81,0
482.71283,483.00977,67,86,0
483.1618,483.3999,79,105,0
483.65714,483.94983,43,113,0
484.09616,484.38742,36,100,0
484.5328,484.82217,43,114,0
484.5328,484.82217,55,114,0
484.5328,484.82217,50,114,0
484.5328,484.82217,46,114,0
484.82217,484.93036,43,114,0
484.82217,484.93036,55,114,0
484.82217,484.93036,50,114,0
484.82217,484.93036,46,114,0
484.9664,485.25348,46,107,0
484.9664,485.25348,58,107,0
484.9664,485.25348,55,107,0
484.9664,485.25348,50,107,0
485.25348,485.36084,46,114,0
485.25348,485.36084,58,114,0
485.25348,485.36084,55,114,0
485.25348,485.36084,50,114,0
485.39655,485.68228,48,113,0
485.39655,485.68228,60,113,0
485.39655,485.68228,55,113,0
485.39655,485.68228,51,113,0
485.82468,486.109,36,100,0
486.2512,486.5342,43,114,0
486.2512,486.5342,55,114,0
486.2512,486.5342,50,114,0
486.2512,486.5342,46,114,0
486.5342,486.63983,43,114,0
486.5342,486.63983,55,114,0
486.5342,486.63983,50,114,0
486.5342,486.63983,46,114,0
486.67505,486.95673,46,107,0
486.67505,486.95673,58,107,0
486.67505,486.95673,55,107,0
486.67505,486.95673,50,107,0
486.95673,487.06232,46,114,0
486.95673,487.06232,58,114,0
486.95673,487.06232,55,114,0
486.95673,487.06232,50,114,0
487.09735,487.37772,51,113,0
487.09735,487.37772,60,113,0
487.09735,487.37772,48,113,0
487.09735,487.37772,56,113,0
487.5179,487.7976,44,100,0
487.93716,488.21622,39,114,0
487.93716,488.21622,43,114,0
487.93716,488.21622,51,114,0
487.93716,488.21622,46,114,0
488.21622,488.32086,39,114,0
488.21622,488.32086,43,114,0
488.21622,488.32086,51,114,0
488.21622,488.32086,46,114,0
488.35574,488.63483,46,107,0
488.35574,488.63483,55,107,0
488.35574,488.63483,43,107,0
488.35574,488.63483,51,107,0
488.63483,488.73947,46,114,0
488.63483,488.73947,55,114,0
488.63483,488.73947,43,114,0
488.63483,488.73947,51,114,0
488.77435,489.05536,48,113,0
488.77435,489.05536,56,113,0
488.77435,489.05536,44,113,0
488.77435,489.05536,53,113,0
489.19623,489.47867,41,100,0
489.62018,489.90503,53,113,0
489.62018,489.90503,41,113,0
489.90503,490.01218,53,101,0
489.90503,490.01218,41,101,0
490.04788,490.3364,56,102,0
490.04788,490.3364,44,102,0
490.3364,490.44507,56,101,0
490.3364,490.44507,44,101,0
490.48132,490.77582,53,114,0
490.48132,490.77582,41,114,0
490.77582,490.8886,53,108,0
490.77582,490.8886,41,108,0
490.9262,491.22696,48,120,0
490.9262,491.22696,36,120,0
491.22696,491.33972,36,114,0
491.22696,491.33972,48,114,0
491.37732,491.67807,44,124,0
491.37732,491.67807,32,124,0
491.67807,491.79108,44,117,0
491.67807,491.79108,32,117,0
491.82925,492.14114,41,127,0
491.82925,492.14114,29,127,0
492.14114,492.2654,41,120,0
492.14114,492.2654,29,120,0
492.3222,492.56223,43,127,0
492.3222,492.56223,31,127,0
492.62158,492.80243,53,110,0
492.80243,492.9637,56,104,0
492.9637,493.11847,55,106,0
493.11847,493.2677,53,108,0
493.2677,493.41476,51,110,0
493.41476,493.56018,50,112,0
493.56018,493.70407,48,114,0
493.70407,493.84482,46,115,0
493.84482,493.985,44,118,0
493.985,494.12518,43,121,0
494.12518,494.26538,42,121,0
494.26538,494.3854,43,127,0
494.26538,494.3854,31,127,0
494.42706,494.57294,53,100,0
494.57294,494.71652,56,104,0
494.71652,494.85916,55,106,0
494.85916,495.00125,53,108,0
495.00125,495.14276,51,110,0
495.14276,495.28372,50,112,0
495.28372,495.42447,48,114,0
495.42447,495.56454,46,115,0
495.56454,495.7041,44,118,0
495.7041,495.843,43,121,0
495.843,495.98135,42,121,0
495.98135,496.10104,31,127,0
495.98135,496.10104,43,127,0
496.1427,496.2872,41,100,0
496.2872,496.43054,44,104,0
496.43054,496.57297,43,106,0
496.57297,496.7146,41,108,0
496.7146,496.8559,39,110,0
496.8559,496.9964,38,112,0
496.9964,497.13617,36,114,0
497.13617,497.2754,34,115,0
497.2754,497.41376,32,118,0
497.41376,497.5516,31,121,0
497.5516,497.68903,30,121,0
497.68903,497.8359,31,127,0
497.8359,497.97226,33,126,0
497.97226,498.10928,35,126,0
498.10928,498.24658,36,124,0
498.24658,498.38596,38,122,0
498.38596,498.5278,39,121,0
498.5278,498.6714,41,120,0
498.6714,498.81735,43,117,0
498.81735,498.96512,45,115,0
498.96512,499.11346,47,115,0
499.11346,499.26517,48,113,0
499.26517,499.4186,50,107,0
499.4186,499.57343,51,107,0
499.57343,499.73428,53,97,0
499.73428,499.89514,55,96,0
499.89514,500.0583,57,90,0
500.0583,500.2247,59,85,0
500.2247,500.39612,60,78,0
500.39612,500.74933,62,76,0
500.93518,501.12888,43,37,0
501.12888,501.3297,42,40,0
501.3297,501.53506,41,46,0
501.53162,501.73853,39,52,0
501.73853,501.92072,38,44,0
501.92072,502.07736,39,39,0
502.07736,502.2337,43,36,0
502.2337,502.38834,42,41,0
502.38834,502.54297,43,45,0
502.54297,502.6976,39,50,0
502.6976,502.85028,38,47,0
502.85028,503.00296,39,45,0
503.00296,503.155,43,41,0
503.155,503.30573,42,44,0
503.30573,503.45648,43,48,0
503.45648,503.60693,41,54,0
503.60693,503.7551,40,46,0
503.7551,503.90323,41,43,0
503.90323,504.0514,44,39,0
504.0514,504.19952,43,39,0
504.19952,504.3477,44,45,0
504.3477,504.49582,41,49,0
504.49582,504.64264,40,44,0
504.64264,504.78827,41,43,0
504.78827,504.9339,44,40,0
504.9339,505.0781,43,39,0
505.0781,505.22162,44,36,0
505.22162,505.36517,43,41,0
505.36517,505.5087,42,38,0
505.5087,505.65225,43,36,0
505.65225,505.7951,48,38,0
505.7951,505.9373,47,36,0
505.9373,506.0793,48,33,0
506.0793,506.22116,43,40,0
506.22116,506.36234,42,39,0
506.36234,506.5025,43,34,0
506.5025,506.6427,47,40,0
506.6427,506.7829,46,35,0
506.7829,506.92307,47,32,0
506.92307,507.06326,39,52,0
507.06326,507.20346,38,44,0
507.20346,507.34363,39,39,0
507.34363,507.48383,43,36,0
507.48383,507.624,42,41,0
507.624,507.7642,43,45,0
507.7642,507.9044,39,50,0
507.9044,508.04456,38,47,0
508.04456,508.18475,39,45,0
508.18475,508.32504,43,41,0
508.32504,508.46588,42,44,0
508.46588,508.60675,43,48,0
508.60675,508.7476,40,43,0
508.7476,508.8883,39,46,0
508.8883,509.0285,40,48,0
509.0285,509.1687,43,50,0
509.1687,509.30887,40,53,0
509.30887,509.44907,43,54,0
509.44907,509.58926,41,56,0
509.58926,509.72943,40,56,0
509.72943,509.86896,41,52,0
509.86896,510.0085,48,48,0
510.0085,510.14804,41,47,0
510.14804,510.28757,48,44,0
510.28757,510.42712,43,42,0
510.42712,510.566,42,38,0
510.566,510.7049,43,36,0
510.7049,510.84378,48,38,0
510.84378,510.98254,43,36,0
510.98254,511.12082,48,33,0
511.12082,511.25906,43,40,0
511.25906,511.3973,42,39,0
511.3973,511.53555,43,34,0
511.53555,511.6738,47,40,0
511.6738,511.81152,46,35,0
511.81152,511.94913,47,32,0
511.94913,512.08673,43,41,0
512.08673,512.2248,42,38,0
512.2248,512.36304,43,36,0
512.36304,512.5013,48,38,0
512.5013,512.6407,43,36,0
512.6407,512.7815,48,33,0
512.7815,512.92285,43,36,0
512.92285,513.0668,42,34,0
513.0668,513.21063,43,33,0
513.21063,513.3566,47,32,0
513.3566,513.50366,46,32,0
513.50366,513.6535,47,30,0
513.6535,513.80475,43,34,0
513.80475,513.96014,42,32,0
513.96014,514.1156,43,30,0
514.1156,514.2717,48,29,0
514.2717,514.43134,43,28,0
514.43134,514.5937,48,28,0
514.5937,514.7632,43,28,0
514.7632,514.9501,42,31,0
514.9501,515.1424,43,28,0
515.1424,515.37506,47,27,0
515.37506,515.63947,46,25,0
515.63947,515.9237,47,24,0
515.9237,516.1384,48,27,0
516.1384,516.33344,47,32,0
516.33344,516.51166,48,35,0
516.51166,517.009,52,38,0
516.51166,517.009,55,38,0
517.009,517.1715,48,29,0
517.1715,517.3311,47,31,0
517.3311,517.48914,48,34,0
517.48914,517.9515,52,38,0
517.48914,517.9515,55,38,0
517.9515,518.10345,48,31,0
518.10345,518.2554,47,33,0
518.2554,518.4054,48,37,0
518.4054,518.8471,52,40,0
518.4054,518.8471,55,40,0
518.8471,518.99194,46,31,0
518.99194,519.13617,45,33,0
519.13617,519.27936,46,37,0
519.27936,519.70416,52,40,0
519.27936,519.70416,50,40,0
519.70416,519.845,45,31,0
519.845,519.9853,44,31,0
519.9853,520.1252,45,31,0
520.1252,520.543,49,40,0
520.1252,520.543,52,40,0
520.543,520.6816,45,40,0
520.6816,520.8198,44,43,0
520.8198,520.95807,45,44,0
520.95807,521.3706,50,45,0
520.95807,521.3706,53,45,0
521.3706,521.50793,45,42,0
521.50793,521.64526,44,38,0
521.64526,521.78253,45,35,0
521.78253,522.19446,49,33,0
521.78253,522.19446,52,33,0
522.19446,522.3317,46,45,0
522.3317,522.46906,45,33,0
522.46906,522.6063,46,37,0
522.6063,523.01984,52,40,0
522.6063,523.01984,50,40,0
523.01984,523.15906,45,31,0
523.15906,523.2982,44,31,0
523.2982,523.43744,45,31,0
523.43744,523.8638,54,40,0
523.43744,523.8638,50,40,0
523.8638,524.0072,44,31,0
524.0072,524.1509,43,33,0
524.1509,524.29486,44,37,0
524.29486,524.7297,50,40,0
524.29486,524.7297,48,40,0
524.7297,524.87604,43,31,0
524.87604,525.02344,42,31,0
525.02344,525.17145,43,31,0
525.17145,525.6211,52,40,0
525.17145,525.6211,48,40,0
525.6211,525.7738,43,39,0
525.7738,525.9266,42,40,0
525.9266,526.0801,43,43,0
526.0801,526.5502,53,48,0
526.0801,526.5502,50,48,0
526.5502,526.7098,43,45,0
526.7098,526.8715,42,42,0
526.8715,527.0332,43,38,0
527.0332,527.53357,48,36,0
527.0332,527.53357,52,36,0
527.53357,527.70447,43,39,0
527.70447,527.8779,42,36,0
527.8779,528.0539,43,34,0
528.0539,528.5954,47,32,0
528.5954,528.7795,36,27,0
528.7795,528.9316,35,32,0
528.9316,529.0772,36,35,0
529.0772,529.51294,40,38,0
529.0772,529.51294,48,38,0
529.51294,529.6576,36,29,0
529.6576,529.8019,35,31,0
529.8019,529.94604,36,34,0
529.94604,530.3769,40,38,0
529.94604,530.3769,48,38,0
530.3769,530.5201,36,31,0
530.5201,530.663,35,33,0
530.663,530.8056,36,37,0
530.8056,531.23193,40,40,0
530.8056,531.23193,48,40,0
531.23193,531.3735,34,31,0
531.3735,531.51495,33,33,0
531.51495,531.6565,34,37,0
531.6565,532.0794,40,40,0
532.0794,532.2198,33,31,0
532.2198,532.3599,32,31,0
532.3599,532.49976,33,31,0
532.49976,532.9185,40,40,0
532.9185,533.05804,33,40,0
533.05804,533.1976,32,43,0
533.1976,533.33734,33,44,0
533.33734,533.75885,41,45,0
533.75885,533.9,33,42,0
533.9,534.04144,32,42,0
534.04144,534.1832,33,37,0
534.1832,534.6103,40,35,0
534.6103,534.75336,34,45,0
534.75336,534.89655,33,33,0
534.89655,535.0398,34,37,0
535.0398,535.47205,40,40,0
535.47205,535.6169,33,31,0
535.6169,535.76215,32,31,0
535.76215,535.90814,33,31,0
535.90814,536.34924,42,40,0
536.34924,536.49835,32,31,0
536.49835,536.64795,31,33,0
536.64795,536.79834,32,37,0
536.79834,537.2556,38,40,0
537.2556,537.4096,31,31,0
537.4096,537.5644,30,31,0
537.5644,537.71967,31,31,0
537.71967,538.19275,40,40,0
538.19275,538.35443,31,39,0
538.35443,538.51794,30,40,0
538.51794,538.6832,31,43,0
538.6832,539.1894,41,48,0
539.1894,539.3633,31,47,0
539.3633,539.53925,30,43,0
539.53925,539.71625,31,41,0
539.71625,540.2634,40,38,0
540.2634,540.4503,31,41,0
540.4503,540.63965,30,37,0
540.63965,540.83093,31,34,0
540.83093,541.3203,43,33,0
542.026,542.4678,39,37,0
542.026,542.4678,32,37,0
542.8867,543.2968,39,42,0
542.8867,543.2968,32,42,0
543.7059,544.115,39,45,0
543.7059,544.115,32,45,0
544.52405,544.93317,39,48,0
544.52405,544.93317,32,48,0
545.3423,545.75134,39,50,0
545.3423,545.75134,32,50,0
546.16046,546.5695,39,53,0
546.16046,546.5695,32,53,0
546.97864,547.25134,39,54,0
546.97864,547.25134,32,54,0
547.3877,547.66046,39,61,0
547.3877,547.66046,32,61,0
547.7968,548.0695,39,66,0
547.7968,548.0695,32,66,0
548.615,549.02405,31,63,0
548.615,549.02405,39,63,0
549.43317,549.8422,31,62,0
549.43317,549.8422,39,62,0
550.25134,550.66046,31,60,0
550.25134,550.66046,39,60,0
551.0695,551.47864,31,57,0
551.0695,551.47864,39,57,0
551.8877,552.2968,31,53,0
551.8877,552.2968,39,53,0
552.7059,553.115,31,48,0
552.7059,553.115,39,48,0
553.52405,553.7968,39,45,0
553.52405,553.7968,31,45,0
553.93317,554.2059,39,50,0
553.93317,554.2059,31,50,0
554.3422,554.615,39,54,0
554.3422,554.615,31,54,0
555.1604,555.5695,39,39,0
555.1604,555.5695,32,39,0
555.97864,556.3877,39,42,0
555.97864,556.3877,32,42,0
556.7968,557.2059,39,44,0
556.7968,557.2059,32,44,0
557.615,558.02405,39,46,0
557.615,558.02405,32,46,0
558.43317,558.8422,39,50,0
558.43317,558.8422,32,50,0
559.25134,559.6606,39,55,0
559.25134,559.6606,32,55,0
560.0706,560.34393,51,55,0
560.0706,560.34393,44,55,0
560.48065,560.75397,51,58,0
560.48065,560.75397,44,58,0
560.8906,561.1612,51,62,0
560.8906,561.1612,44,62,0
561.7017,562.1031,44,56,0
561.7017,562.1031,52,56,0
562.50397,562.90283,44,64,0
562.50397,562.90283,52,64,0
563.29846,563.6926,44,71,0
563.29846,563.6926,53,71,0
564.0839,564.4752,44,76,0
564.0839,564.4752,53,76,0
564.86774,565.26514,44,83,0
564.86774,565.26514,54,83,0
565.6724,566.0933,44,93,0
565.6724,566.0933,54,93,0
566.5313,566.9916,43,90,0
566.5313,566.9916,55,90,0
567.4673,567.9574,55,67,0
567.4673,567.9574,43,67,0
568.46436,568.99097,55,52,0
568.46436,568.99097,43,52,0
569.80084,571.7382,55,40,0
569.80084,571.7382,43,40,0
571.7382,571.8749,48,44,0
571.8749,572.0116,51,32,0
572.0116,572.14825,55,34,0
572.14825,572.2849,47,39,0
572.2849,572.42163,50,32,0
572.42163,572.5583,55,38,0
572.5583,572.69495,48,42,0
572.69495,572.8316,51,33,0
572.8316,572.9683,55,38,0
572.9683,573.105,51,41,0
573.105,573.24164,55,31,0
573.24164,573.3783,60,34,0
573.3783,573.515,53,40,0
573.515,573.6517,56,32,0
573.6517,573.7883,62,36,0
573.7883,573.925,55,41,0
573.925,574.0617,59,34,0
574.0617,574.19836,65,38,0
574.19836,574.335,48,42,0
574.335,574.47174,55,38,0
574.47174,574.6084,60,35,0
574.6084,574.74506,51,39,0
574.74506,574.8817,55,35,0
574.8817,575.01843,60,35,0
575.01843,575.1551,53,45,0
575.1551,575.29175,56,39,0
575.29175,575.4284,60,41,0
575.4284,575.5651,50,44,0
575.5651,575.7018,53,49,0
575.7018,575.83844,60,52,0
575.83844,575.9751,51,68,0
575.9751,576.1118,55,59,0
576.1118,576.2485,60,59,0
576.2485,576.38513,48,63,0
576.38513,576.52185,51,65,0
576.52185,576.6585,55,72,0
576.6585,576.79517,45,79,0
576.79517,576.9318,48,71,0
576.9318,577.06854,55,68,0
577.06854,577.2052,44,67,0
577.2052,577.34186,48,59,0
577.34186,577.4785,55,55,0
577.4785,577.61523,43,60,0
577.61523,577.7519,47,48,0
577.7519,577.88855,55,72,0
577.88855,578.0252,50,99,0
578.0252,578.1619,53,64,0
578.1619,578.2986,55,41,0
578.2986,578.438,48,40,0
578.438,578.5769,51,32,0
578.5769,578.7158,55,34,0
578.7158,578.8547,47,39,0
578.8547,578.99304,50,32,0
578.99304,579.1313,55,38,0
579.1313,579.269,48,42,0
579.269,579.4066,51,33,0
579.4066,579.5437,55,38,0
579.5437,579.68036,51,41,0
579.68036,579.8168,55,31,0
579.8168,579.9526,60,34,0
579.9526,580.088,53,40,0
580.088,580.22314,56,32,0
580.22314,580.35834,62,36,0
580.35834,580.49304,55,41,0
580.49304,580.62756,59,41,0
580.62756,580.7617,65,44,0
580.7617,580.8956,48,47,0
580.8956,581.02936,55,51,0
581.02936,581.1794,60,79,0
581.1794,581.32935,48,110,0
581.32935,581.479,51,62,0
581.479,581.6145,56,49,0
581.6145,581.74713,49,45,0
581.74713,581.8793,53,44,0
581.8793,582.0114,56,40,0
582.0114,582.1436,48,38,0
582.1436,582.27545,54,36,0
582.27545,582.40704,56,38,0
582.40704,582.53864,49,45,0
582.53864,582.6696,53,43,0
582.6696,582.80066,56,42,0
582.80066,582.93164,53,42,0
582.93164,583.0626,56,42,0
583.0626,583.1932,61,44,0
583.1932,583.3236,54,49,0
583.3236,583.45386,58,52,0
583.45386,583.58374,63,55,0
583.58374,583.7135,56,57,0
583.7135,583.84283,60,60,0
583.84283,583.9721,66,63,0
583.9721,584.10144,49,65,0
584.10144,584.23016,56,69,0
584.23016,584.3802,61,90,0
584.3802,584.53015,49,120,0
584.53015,584.6802,53,62,0
584.6802,584.8108,58,58,0
584.8108,584.9395,51,53,0
584.9395,585.068,54,47,0
585.068,585.19586,58,47,0
585.19586,585.3235,50,48,0
585.3235,585.4512,56,50,0
585.4512,585.5785,58,55,0
585.5785,585.7055,51,65,0
585.7055,585.8366,54,75,0
585.8366,585.98987,58,108,0
585.98987,586.1558,52,127,0
586.1558,586.3347,55,113,0
586.3347,586.5209,60,101,0
586.5209,586.68823,44,100,0
586.68823,586.8417,48,86,0
586.8417,586.983,53,78,0
586.983,587.12085,48,71,0
587.12085,587.25507,53,67,0
587.25507,587.3878,56,66,0
587.3878,587.51953,44,65,0
587.51953,587.65027,48,65,0
587.65027,587.7796,53,65,0
587.7796,587.9086,48,65,0
587.9086,588.0396,53,65,0
588.0396,588.17145,56,65,0
588.17145,588.30334,44,66,0
588.30334,588.4364,48,70,0
588.4364,588.57074,53,72,0
588.57074,588.70557,48,76,0
588.70557,588.8404,53,80,0
588.8404,588.97614,56,84,0
588.97614,589.11285,44,88,0
589.11285,589.2503,48,92,0
589.2503,589.38855,53,95,0
589.38855,589.5268,48,98,0
589.5268,589.66614,44,103,0
589.66614,589.80597,41,110,0
589.80597,589.9466,29,125,0
589.9466,590.0842,32,121,0
590.0842,590.22,37,115,0
590.22,590.3548,32,110,0
590.3548,590.4896,37,104,0
590.4896,590.62445,41,98,0
590.62445,590.75934,42,112,0
590.75934,590.89417,45,105,0
590.89417,591.029,44,100,0
591.029,591.1638,45,94,0
591.1638,591.2997,44,89,0
591.2997,591.436,42,83,0
591.436,591.576,29,125,0
591.576,591.7134,32,121,0
591.7134,591.8494,37,115,0
591.8494,591.98486,32,110,0
591.98486,592.1189,37,104,0
592.1189,592.2519,41,98,0
592.2519,592.38495,42,112,0
592.38495,592.5177,45,105,0
592.5177,592.64984,44,100,0
592.64984,592.78204,45,94,0
592.78204,592.9142,44,89,0
592.9142,593.0463,42,83,0
593.0463,593.1854,29,125,0
593.1854,593.3228,32,121,0
593.3228,593.45734,37,115,0
593.45734,593.59186,32,110,0
593.59186,593.7264,37,104,0
593.7264,593.8609,41,98,0
593.8609,593.9954,44,112,0
593.9954,594.12897,47,105,0
594.12897,594.2623,46,100,0
594.2623,594.3956,47,94,0
594.3956,594.529,46,89,0
594.529,594.6623,44,83,0
594.6623,594.7987,31,125,0
594.7987,594.9315,34,121,0
594.9315,595.0637,39,115,0
595.0637,595.19586,34,110,0
595.19586,595.328,39,104,0
595.328,595.46014,43,98,0
595.46014,595.59235,46,112,0
595.59235,595.7245,47,105,0
595.7245,595.8557,48,100,0
595.8557,595.9867,49,94,0
595.9867,596.1177,48,89,0
596.1177,596.2487,46,83,0
596.2487,596.3797,45,84,0
596.3797,596.5107,48,87,0
596.5107,596.6417,45,90,0
596.6417,596.7716,46,93,0
596.7716,596.9009,49,97,0
596.9009,597.0307,46,99,0
597.0307,597.1613,47,101,0
597.1613,597.2934,50,105,0
597.2934,597.4279,47,108,0
597.4279,597.567,48,114,0
597.567,597.71765,51,115,0
597.71765,597.89264,48,121,0
597.89264,598.0729,49,124,0
598.0729,598.1999,52,115,0
598.1999,598.3254,56,106,0
598.3254,598.4516,49,103,0
598.4516,598.5784,52,96,0
598.5784,598.70636,56,94,0
598.70636,598.8343,49,87,0
598.8343,598.9622,52,82,0
598.9622,599.09106,56,77,0
599.09106,599.2204,49,75,0
599.2204,599.3497,52,71,0
599.3497,599.4805,56,69,0
599.4805,599.6121,49,65,0
599.6121,599.74365,52,63,0
599.74365,599.87524,56,57,0
599.87524,600.0089,49,57,0
600.0089,600.1425,52,51,0
600.1425,600.2761,56,44,0
600.2761,600.4122,49,42,0
600.4122,600.5509,52,48,0
600.5509,600.6917,56,62,0
600.6917,600.83386,44,70,0
600.83386,600.9826,52,85,0
600.9826,601.1339,56,98,0
601.1339,601.2854,49,123,0
601.2854,601.4115,53,121,0
601.4115,601.53735,56,115,0
601.53735,601.6644,49,105,0
601.6644,601.79126,53,102,0
601.79126,601.91815,56,98,0
601.91815,602.045,49,90,0
602.045,602.1718,53,88,0
602.1718,602.30005,56,82,0
602.30005,602.4285,49,75,0
602.4285,602.557,53,70,0
602.557,602.68616,56,64,0
602.68616,602.8166,49,60,0
602.8166,602.947,53,53,0
602.947,603.0777,56,49,0
603.0777,603.20953,49,46,0
603.20953,603.3422,53,43,0
603.3422,603.4759,56,41,0
603.4759,603.6107,49,41,0
603.6107,603.7474,53,42,0
603.7474,603.88513,56,52,0
603.88513,604.0245,49,62,0
604.0245,604.166,53,77,0
604.166,604.3075,56,99,0
604.3075,604.44904,50,126,0
604.44904,604.5743,53,121,0
604.5743,604.70026,56,106,0
604.70026,604.82764,50,102,0
604.82764,604.9557,53,97,0
604.9557,605.0845,56,91,0
605.0845,605.21436,50,85,0
605.21436,605.3448,53,80,0
605.3448,605.4761,56,73,0
605.4761,605.60736,50,70,0
605.60736,605.7401,53,66,0
605.7401,605.8728,56,66,0
605.8728,606.0071,47,64,0
606.0071,606.1375,53,64,0
606.1375,606.2676,55,64,0
606.2676,606.39685,47,70,0
606.39685,606.5262,53,74,0
606.5262,606.6557,55,79,0
606.6557,606.78644,43,82,0
606.78644,606.9172,50,86,0
606.9172,607.05273,53,92,0
607.05273,607.19385,43,97,0
607.19385,607.34076,50,105,0
607.34076,607.4945,53,118,0
607.4945,607.6585,36,127,0
607.6585,607.8049,43,123,0
607.8049,607.94775,48,122,0
607.94775,608.08856,36,121,0
608.08856,608.2289,43,118,0
608.2289,608.3681,48,116,0
608.3681,608.50635,36,114,0
608.50635,608.644,43,111,0
608.644,608.78156,48,110,0
608.78156,608.9183,36,108,0
608.9183,609.05493,43,103,0
609.05493,609.1916,47,100,0
609.1916,609.32825,36,110,0
609.32825,609.46497,43,94,0
609.46497,609.6016,48,91,0
609.6016,609.7383,36,89,0
609.7383,609.87494,43,87,0
609.87494,610.01166,48,86,0
610.01166,610.1483,36,84,0
610.1483,610.285,43,83,0
610.285,610.42163,48,82,0
610.42163,610.55835,36,81,0
610.55835,610.695,43,80,0
610.695,610.83167,47,78,0
610.83167,610.9684,36,90,0
610.9684,611.10504,43,74,0
611.10504,611.2417,48,74,0
611.2417,611.37836,36,73,0
611.37836,611.5151,43,71,0
611.5151,611.65173,48,69,0
611.65173,611.7884,36,67,0
611.7884,611.92505,43,67,0
611.92505,612.06177,48,65,0
612.06177,612.1984,36,63,0
612.1984,612.3351,43,60,0
612.3351,612.47174,47,58,0
612.47174,612.60846,36,69,0
612.60846,612.7451,43,54,0
612.7451,612.8818,48,51,0
612.8818,613.0185,36,49,0
613.0185,613.15515,43,48,0
613.15515,613.2918,48,46,0
613.2918,613.42847,36,42,0
613.42847,613.5652,43,40,0
613.5652,613.70184,48,38,0
613.70184,613.8385,36,36,0
613.8385,613.97516,43,33,0
613.97516,614.1119,47,32,0
614.1119,614.24854,36,38,0
614.3852,614.52185,36,35,0
614.52185,614.65857,31,37,0
614.7952,614.9319,31,42,0
614.9319,615.0686,36,43,0
615.20526,615.3419,36,30,0
615.3419,615.4786,31,31,0
615.6153,615.75195,31,35,0
615.75195,616.02527,36,36,0
616.57196,616.90906,55,127,0
616.57196,616.90906,43,127,0
616.57196,616.90906,47,127,0
616.57196,616.90906,50,127,0
617.58325,618.00555,60,127,0
617.58325,618.00555,48,127,0
617.58325,618.00555,51,127,0
617.58325,618.00555,55,127,0
