start_time,end_time,note_value,velocity,instrument_program_number
1.8125,1.875,60,100,0
1.875,1.9375,65,100,0
1.9375,2.0,68,100,0
2.0,2.875,72,100,0
2.875,3.0,70,60,0
3.0,3.375,68,60,0
3.375,3.5,70,60,0
3.5,3.875,67,60,0
3.875,4.0,68,60,0
4.0,4.375,65,60,0
4.375,4.5,66,60,0
4.5,4.875,63,60,0
4.875,5.0,65,60,0
5.0,5.375,61,60,0
5.375,5.5,63,60,0
5.5,5.875,60,60,0
5.875,6.0,61,60,0
8.5,8.625,67,110,0
8.5,8.625,70,110,0
8.5,8.625,73,110,0
9.3125,9.375,72,60,0
9.375,9.4375,73,60,0
9.4375,9.5,75,60,0
9.5,9.875,73,60,0
9.875,10.0,72,60,0
10.0,10.505471,72,60,0
10.505471,11.199707,77,70,0
11.199707,11.377052,67,60,0
11.377052,11.556029,70,60,0
11.556029,11.736606,73,60,0
11.736606,11.9187975,70,60,0
11.9187975,12.102712,67,60,0
12.102712,13.242679,65,70,0
13.242679,13.389811,64,70,0
13.538076,13.68739,78,71,0
13.68739,13.837889,79,77,0
13.837889,13.98945,80,83,0
13.98945,14.14217,81,89,0
14.14217,14.29608,82,95,0
14.29608,14.451248,83,100,0
14.451248,14.513748,72,100,0
14.513748,14.576248,77,100,0
14.576248,14.638748,80,100,0
14.638748,15.326248,84,100,0
15.326248,15.451248,82,60,0
15.451248,15.501248,80,60,0
15.501248,15.551249,82,60,0
15.551249,15.601249,80,60,0
15.601249,15.651248,79,60,0
15.651248,15.826248,80,60,0
15.826248,15.951248,82,60,0
15.951248,16.001247,79,60,0
16.001247,16.051249,80,60,0
16.051249,16.101248,79,60,0
16.101248,16.151249,77,60,0
16.151249,16.326248,79,60,0
16.326248,16.451248,80,60,0
16.451248,16.501247,77,60,0
16.501247,16.551249,79,60,0
16.551249,16.601248,77,60,0
16.601248,16.651249,76,60,0
16.651249,16.826248,77,60,0
16.826248,16.951248,78,60,0
16.951248,17.001247,75,60,0
17.001247,17.051249,77,60,0
17.051249,17.101248,75,60,0
17.101248,17.151249,74,60,0
17.151249,17.326248,75,60,0
17.326248,17.451248,77,60,0
17.451248,17.501247,73,60,0
17.501247,17.551249,75,60,0
17.551249,17.601248,73,60,0
17.601248,17.651249,72,60,0
17.651249,17.826248,73,60,0
17.826248,17.951248,75,60,0
17.951248,18.001247,72,60,0
18.001247,18.051249,73,60,0
18.051249,18.101248,72,60,0
18.101248,18.151249,71,60,0
18.151249,18.326248,72,60,0
18.326248,18.451248,73,60,0
18.451248,18.576248,70,60,0
18.576248,18.701248,73,62,0
18.701248,18.826248,70,65,0
18.826248,18.951248,73,68,0
18.951248,19.076248,68,70,0
19.076248,19.201248,73,73,0
19.201248,19.326248,68,76,0
19.326248,19.451248,73,79,0
19.451248,19.576248,66,81,0
19.576248,19.701248,73,84,0
19.701248,19.826248,66,87,0
19.826248,19.951248,73,89,0
19.951248,20.076248,65,92,0
20.076248,20.201248,73,95,0
20.201248,20.326248,65,98,0
20.326248,20.451248,73,100,0
20.451248,20.576248,64,100,0
20.951248,21.076248,79,110,0
20.951248,21.076248,82,110,0
20.951248,21.076248,85,110,0
21.763748,21.826248,72,60,0
21.826248,21.888748,73,60,0
21.888748,21.951248,75,60,0
21.951248,22.326248,73,60,0
22.326248,22.451248,72,60,0
22.451248,22.618326,72,60,0
22.618326,22.786787,80,70,0
22.786787,22.956718,79,60,0
22.956718,23.128016,77,60,0
23.128016,23.300844,72,60,0
23.300844,23.475142,68,60,0
23.475142,23.650955,67,60,0
23.650955,23.8283,75,70,0
23.8283,24.007278,72,60,0
24.007278,24.187853,73,60,0
24.187853,24.370047,70,60,0
24.370047,24.55396,67,60,0
24.55396,24.739473,65,60,0
24.739473,24.926785,60,63,0
24.926785,25.115822,65,67,0
25.115822,25.306646,68,70,0
25.306646,25.499372,65,74,0
25.499372,25.693928,73,78,0
25.693928,25.841059,72,81,0
26.289137,26.440699,67,102,0
26.289137,26.440699,72,102,0
26.289137,26.440699,76,102,0
26.902496,27.027496,68,110,0
26.902496,27.027496,72,110,0
26.902496,27.027496,77,110,0
27.152496,27.277496,68,40,0
27.277496,27.402496,72,40,0
27.402496,27.527496,68,40,0
27.527496,27.652496,72,40,0
27.652496,27.777496,68,40,0
27.777496,27.902496,72,40,0
27.902496,28.027496,67,40,0
28.027496,28.152496,71,40,0
28.152496,28.277496,68,40,0
28.277496,28.402496,72,40,0
28.402496,28.527496,68,40,0
28.527496,28.652496,72,40,0
28.652496,28.777496,68,40,0
28.777496,28.902496,72,40,0
28.902496,29.027496,69,40,0
29.027496,29.152496,75,40,0
29.152496,29.277496,70,40,0
29.277496,29.402496,73,40,0
29.402496,29.527496,70,40,0
29.527496,29.652496,73,40,0
29.652496,29.777496,70,40,0
29.777496,29.902496,73,40,0
29.902496,30.027496,73,40,0
30.027496,30.152496,77,40,0
30.152496,30.277496,70,40,0
30.277496,30.402496,73,40,0
30.402496,30.527496,68,40,0
30.527496,30.652496,73,40,0
30.652496,30.777496,67,40,0
30.777496,30.902496,73,40,0
30.902496,31.027496,68,40,0
31.027496,31.152496,73,40,0
31.152496,31.277496,68,40,0
31.277496,31.402496,72,40,0
31.402496,31.527496,68,40,0
31.527496,31.652496,72,40,0
31.652496,31.777496,68,40,0
31.777496,31.902496,72,40,0
31.902496,32.027496,68,40,0
32.027496,32.152496,72,40,0
32.152496,32.277496,66,40,0
32.277496,32.402496,70,40,0
32.402496,32.527496,66,40,0
32.527496,32.652496,70,40,0
32.652496,32.777496,66,40,0
32.777496,32.902496,70,40,0
32.902496,33.027496,66,40,0
33.027496,33.152496,70,40,0
33.152496,33.277496,65,40,0
33.277496,33.402496,68,40,0
33.402496,33.527496,65,40,0
33.527496,33.652496,68,40,0
33.652496,33.777496,65,40,0
33.777496,33.902496,68,40,0
33.902496,34.027496,65,40,0
34.027496,34.152496,68,40,0
34.152496,34.277496,64,40,0
34.277496,34.402496,67,40,0
34.402496,34.527496,64,40,0
34.527496,34.652496,67,40,0
34.652496,34.777496,64,40,0
34.777496,34.902496,67,40,0
34.902496,35.027496,65,40,0
35.152496,35.277496,68,40,0
35.277496,35.402496,72,40,0
35.402496,35.527496,68,40,0
35.527496,35.652496,72,40,0
35.652496,35.777496,68,40,0
35.777496,35.902496,72,40,0
35.902496,36.027496,67,40,0
36.027496,36.152496,71,40,0
36.152496,36.277496,68,40,0
36.277496,36.402496,72,40,0
36.402496,36.527496,68,40,0
36.527496,36.652496,72,40,0
36.652496,36.777496,68,40,0
36.777496,36.902496,72,40,0
36.902496,37.027496,69,40,0
37.027496,37.152496,75,40,0
37.152496,37.277496,70,40,0
37.277496,37.402496,73,40,0
37.402496,37.527496,70,40,0
37.527496,37.652496,73,40,0
37.652496,37.777496,70,40,0
37.777496,37.902496,73,40,0
37.902496,38.027496,73,40,0
38.027496,38.152496,77,40,0
38.152496,38.277496,70,40,0
38.277496,38.402496,73,40,0
38.402496,38.527496,68,40,0
38.527496,38.652496,73,40,0
38.652496,38.777496,67,40,0
38.777496,38.902496,73,40,0
38.902496,39.027496,68,40,0
39.027496,39.152496,73,40,0
39.152496,39.277496,68,40,0
39.277496,39.402496,72,40,0
39.402496,39.527496,68,40,0
39.527496,39.652496,72,40,0
39.652496,39.777496,68,40,0
39.777496,39.902496,72,40,0
39.902496,40.027496,72,40,0
40.027496,40.152496,75,40,0
40.152496,40.277496,65,40,0
40.277496,40.402496,70,40,0
40.402496,40.527496,73,40,0
40.527496,40.652496,77,40,0
40.652496,40.777496,75,40,0
40.777496,40.902496,73,40,0
40.902496,41.027496,70,40,0
41.027496,41.152496,73,40,0
41.152496,41.277496,63,40,0
41.277496,41.402496,68,40,0
41.402496,41.527496,72,40,0
41.527496,41.652496,75,40,0
41.652496,41.777496,73,40,0
41.777496,41.902496,72,40,0
41.902496,42.027496,69,40,0
42.027496,42.152496,72,40,0
42.152496,42.277496,63,40,0
42.277496,42.402496,67,40,0
42.402496,42.527496,70,40,0
42.527496,42.652496,73,40,0
42.652496,42.777496,72,40,0
42.777496,42.902496,70,40,0
42.902496,43.027496,68,40,0
43.152496,43.277496,72,40,0
43.277496,43.402496,75,40,0
43.402496,43.527496,72,40,0
43.527496,43.652496,75,40,0
43.652496,43.777496,72,40,0
43.777496,43.902496,75,40,0
43.902496,44.027496,71,40,0
44.027496,44.152496,74,40,0
44.152496,44.277496,72,40,0
44.277496,44.402496,75,40,0
44.402496,44.527496,72,40,0
44.527496,44.652496,75,40,0
44.652496,44.777496,72,40,0
44.777496,44.902496,75,40,0
44.902496,45.027496,72,40,0
45.027496,45.152496,75,40,0
45.152496,45.277496,73,40,0
45.277496,45.402496,76,40,0
45.402496,45.527496,79,40,0
45.527496,45.652496,82,40,0
45.652496,45.777496,72,40,0
45.777496,45.902496,75,40,0
45.902496,46.027496,73,40,0
46.027496,46.152496,76,40,0
46.152496,46.277496,79,40,0
46.277496,46.402496,82,40,0
46.402496,46.527496,80,40,0
46.527496,46.652496,79,40,0
46.652496,46.777496,77,40,0
46.777496,46.902496,79,40,0
46.902496,47.15145,80,40,0
47.15145,47.2754,72,40,0
47.2754,47.398945,75,40,0
47.398945,47.52216,72,40,0
47.52216,47.644978,75,40,0
47.644978,47.767406,72,40,0
47.767406,47.88945,75,40,0
47.88945,48.01116,71,40,0
48.01116,48.132492,74,40,0
48.132492,48.25344,72,40,0
48.25344,48.374077,75,40,0
48.374077,48.494347,72,40,0
48.494347,48.61427,75,40,0
48.61427,48.733772,72,40,0
48.733772,48.852974,75,40,0
48.852974,48.971813,73,40,0
48.971813,49.090317,77,40,0
49.090317,49.208473,75,40,0
49.208473,49.326267,78,40,0
49.326267,49.443775,81,40,0
49.443775,49.56089,84,40,0
49.56089,49.67767,73,40,0
49.67767,49.79409,77,40,0
49.79409,49.910236,75,40,0
49.910236,50.02603,78,40,0
50.02603,50.141487,81,40,0
50.141487,50.25657,84,40,0
50.25657,50.37138,82,40,0
50.37138,50.48585,80,40,0
50.48585,50.599987,79,40,0
50.599987,50.71382,80,40,0
50.71382,50.82733,82,40,0
50.940563,51.053413,73,40,0
51.053413,51.165966,77,40,0
51.165966,51.278202,73,40,0
51.278202,51.390167,77,40,0
51.390167,51.50181,73,40,0
51.50181,51.613117,77,40,0
51.613117,51.72416,72,40,0
51.72416,51.83489,76,40,0
51.83489,51.945293,73,40,0
51.945293,52.055378,77,40,0
52.055378,52.165203,73,40,0
52.165203,52.27472,77,40,0
52.27472,52.383976,73,40,0
52.383976,52.49286,77,40,0
52.49286,52.601555,82,40,0
52.601555,52.71025,73,40,0
52.71025,52.818947,76,40,0
52.818947,52.927643,73,40,0
52.927643,53.03634,75,40,0
53.03634,53.145035,73,40,0
53.145035,53.25373,76,40,0
53.25373,53.362427,73,40,0
53.362427,53.471123,80,40,0
53.471123,53.57982,72,40,0
53.57982,53.688515,77,40,0
53.688515,53.79721,72,40,0
53.79721,53.905907,75,40,0
53.905907,54.014603,72,40,0
54.014603,54.1233,80,40,0
54.1233,54.23199,72,40,0
54.23199,54.340687,82,40,0
54.23199,54.340687,85,40,0
54.340687,54.449383,73,40,0
54.449383,54.55808,76,40,0
54.55808,54.666775,73,40,0
54.666775,54.77547,75,40,0
54.77547,54.884167,73,40,0
54.884167,54.992863,76,40,0
54.992863,55.10156,73,40,0
55.10156,55.210255,80,40,0
55.10156,55.210255,84,40,0
55.210255,55.31895,72,40,0
55.31895,55.427647,77,40,0
55.427647,55.536343,72,40,0
55.536343,55.64504,75,40,0
55.64504,55.753735,72,40,0
55.753735,55.86243,80,40,0
55.86243,55.971123,72,40,0
55.971123,56.07982,84,40,0
56.07982,56.188515,87,40,0
56.188515,56.29721,77,40,0
56.29721,56.405907,82,40,0
56.405907,56.514603,85,40,0
56.514603,56.6233,89,40,0
56.6233,56.731995,87,40,0
56.731995,56.84069,85,40,0
56.84069,56.949387,82,40,0
56.949387,57.058083,85,40,0
57.058083,57.16678,75,40,0
57.16678,57.275475,80,40,0
57.275475,57.38417,84,40,0
57.38417,57.492867,87,40,0
57.492867,57.601562,85,40,0
57.601562,57.71026,84,40,0
57.71026,57.81895,81,40,0
57.81895,57.927647,84,44,0
57.927647,58.036343,75,48,0
58.036343,58.14504,79,52,0
58.14504,58.253735,82,57,0
58.253735,58.36243,85,61,0
58.36243,58.471127,84,65,0
58.471127,58.579823,82,69,0
58.579823,58.68852,80,74,0
58.68852,58.797215,79,78,0
58.797215,58.90591,77,82,0
58.90591,59.014606,76,87,0
59.014606,59.123302,75,91,0
59.123302,59.232,73,95,0
59.232,59.340694,72,99,0
59.340694,59.44939,70,100,0
59.44939,59.57439,68,110,0
59.69939,59.82439,56,100,0
59.94939,60.07439,56,100,0
60.19939,60.32439,56,100,0
60.44939,60.69939,55,120,0
60.69939,60.82439,56,100,0
60.94939,61.07439,56,100,0
61.19939,61.32439,56,100,0
61.44939,61.82439,57,120,0
61.82439,61.88689,58,100,0
61.88689,61.94939,60,100,0
61.94939,62.32439,58,120,0
62.32439,62.38689,60,100,0
62.38689,62.44939,61,100,0
62.44939,62.57439,63,100,0
62.69939,62.82439,67,100,0
62.82439,62.94939,70,100,0
62.94939,63.07439,75,100,0
63.07439,63.19939,79,100,0
63.19939,63.32439,82,100,0
63.32439,63.44939,87,100,0
63.44939,63.57439,80,100,0
63.69939,63.82439,56,100,0
63.94939,64.07439,56,100,0
64.19939,64.32439,56,100,0
64.44939,64.69939,55,120,0
64.69939,64.82439,56,100,0
64.94939,65.07439,56,100,0
65.19939,65.32439,56,100,0
65.44939,65.82439,57,120,0
65.82439,65.88689,58,100,0
65.88689,65.94939,60,100,0
65.94939,66.32439,58,120,0
66.32439,66.38689,60,100,0
66.38689,66.44939,61,100,0
66.44939,66.57439,63,100,0
66.69939,66.82439,64,100,0
66.82439,66.94939,67,100,0
66.94939,67.07439,72,100,0
67.07439,67.19939,76,100,0
67.19939,67.32439,79,100,0
67.32439,67.44939,84,100,0
67.44939,67.57439,77,100,0
67.69939,67.82439,65,100,0
67.69939,67.82439,56,100,0
67.94939,68.07439,65,100,0
67.94939,68.07439,56,100,0
68.19939,68.32439,65,100,0
68.19939,68.32439,56,100,0
68.44939,68.69939,64,120,0
68.69939,68.82439,65,100,0
68.44939,68.94939,56,120,0
68.94939,69.07439,65,100,0
68.94939,69.07439,56,100,0
69.19939,69.32439,65,100,0
69.19939,69.32439,56,100,0
69.44939,69.82439,65,120,0
69.82439,69.88689,66,100,0
69.88689,69.94939,68,100,0
69.44939,69.94939,59,120,0
69.94939,70.32439,66,120,0
70.32439,70.38689,68,100,0
70.38689,70.44939,69,100,0
69.94939,70.44939,58,120,0
70.44939,70.57439,66,100,0
70.44939,70.57439,68,100,0
70.44939,70.69939,60,100,0
70.69939,70.82439,72,100,0
70.82439,70.94939,75,100,0
70.94939,71.07439,80,100,0
71.07439,71.19939,84,100,0
71.19939,71.32439,87,100,0
71.32439,71.44939,92,100,0
71.44939,71.57439,85,100,0
71.69939,71.82439,65,100,0
71.69939,71.82439,56,100,0
71.94939,72.07439,65,100,0
71.94939,72.07439,56,100,0
72.19939,72.32439,65,100,0
72.19939,72.32439,56,100,0
72.44939,72.69939,64,120,0
72.69939,72.82439,65,100,0
72.44939,72.94939,56,120,0
72.94939,73.07439,65,100,0
72.94939,73.07439,56,100,0
73.19939,73.32439,65,100,0
73.19939,73.32439,56,100,0
73.44939,73.69939,62,120,0
73.44939,73.69939,65,120,0
73.44939,73.69939,71,120,0
73.69939,73.82439,62,100,0
73.69939,73.82439,65,100,0
73.69939,73.82439,70,100,0
73.94939,74.07439,62,100,0
73.94939,74.07439,65,100,0
73.94939,74.07439,70,100,0
74.19939,74.32439,62,100,0
74.19939,74.32439,65,100,0
74.19939,74.32439,70,100,0
74.44939,74.57439,67,100,0
74.44939,74.57439,63,100,0
74.69939,74.82439,67,100,0
74.82439,74.94939,70,100,0
74.94939,75.07439,75,100,0
75.07439,75.19939,79,100,0
75.19939,75.32439,82,100,0
75.32439,75.44939,87,100,0
75.44939,75.69939,64,120,0
75.44939,75.69939,67,120,0
75.44939,75.69939,73,120,0
75.69939,75.82439,64,100,0
75.69939,75.82439,67,100,0
75.69939,75.82439,72,100,0
75.94939,76.07439,64,100,0
75.94939,76.07439,67,100,0
75.94939,76.07439,72,100,0
76.19939,76.32439,64,100,0
76.19939,76.32439,67,100,0
76.19939,76.32439,72,100,0
76.44939,76.57439,65,100,0
76.44939,76.57439,69,100,0
76.69939,76.82439,69,100,0
76.82439,76.94939,72,100,0
76.94939,77.07439,77,100,0
77.07439,77.19939,81,100,0
77.19939,77.32439,84,100,0
77.32439,77.44939,89,100,0
77.44939,77.69939,90,110,0
77.44939,77.69939,78,110,0
77.69939,77.82439,89,109,0
77.69939,77.82439,77,109,0
77.94939,78.19939,89,107,0
77.94939,78.19939,77,107,0
78.19939,78.32439,88,106,0
78.19939,78.32439,76,106,0
78.44939,78.69939,88,104,0
78.44939,78.69939,76,104,0
78.69939,78.82439,89,102,0
78.69939,78.82439,77,102,0
78.94939,79.19939,89,101,0
78.94939,79.19939,77,101,0
79.19939,79.32439,84,99,0
79.19939,79.32439,72,99,0
79.44939,79.69939,82,98,0
79.44939,79.69939,70,98,0
79.69939,79.82439,81,96,0
79.69939,79.82439,69,96,0
79.94939,80.19939,81,94,0
79.94939,80.19939,69,94,0
80.19939,80.32439,79,93,0
80.19939,80.32439,67,93,0
80.44939,80.69939,79,91,0
80.44939,80.69939,67,91,0
80.69939,80.82439,77,89,0
80.69939,80.82439,65,89,0
80.94939,81.07439,77,88,0
80.94939,81.07439,65,88,0
81.19939,81.32439,77,86,0
81.19939,81.32439,65,86,0
81.44939,81.69939,78,85,0
81.44939,81.69939,66,85,0
81.69939,81.82439,77,83,0
81.69939,81.82439,65,83,0
81.94939,82.19939,77,81,0
81.94939,82.19939,65,81,0
82.19939,82.32439,76,80,0
82.19939,82.32439,64,80,0
82.44939,82.69939,76,78,0
82.44939,82.69939,64,78,0
82.69939,82.82439,77,76,0
82.69939,82.82439,65,76,0
82.94939,83.19939,77,75,0
82.94939,83.19939,65,75,0
83.19939,83.32439,72,73,0
83.19939,83.32439,60,73,0
83.44939,83.69939,70,72,0
83.44939,83.69939,58,72,0
83.69939,83.82439,69,70,0
83.69939,83.82439,57,70,0
83.94939,84.19939,69,68,0
83.94939,84.19939,57,68,0
84.19939,84.32439,67,67,0
84.19939,84.32439,55,67,0
84.44939,84.69939,67,65,0
84.44939,84.69939,55,65,0
84.69939,84.82439,65,63,0
84.69939,84.82439,53,63,0
84.94939,85.07439,65,62,0
84.94939,85.07439,53,62,0
85.19939,85.32439,65,60,0
85.19939,85.32439,53,60,0
85.44939,85.69939,53,60,0
85.44939,85.69939,65,60,0
85.69939,85.94939,53,60,0
85.69939,85.94939,65,60,0
85.94939,86.19939,53,60,0
85.94939,86.19939,65,60,0
86.19939,86.44939,53,60,0
86.19939,86.44939,65,60,0
86.44939,86.69939,53,60,0
86.44939,86.69939,65,60,0
86.69939,86.94939,53,60,0
86.69939,86.94939,65,60,0
86.94939,87.19939,53,60,0
86.94939,87.19939,65,60,0
87.19939,87.44939,53,60,0
87.19939,87.44939,65,60,0
87.44939,87.69939,64,60,0
87.44939,87.69939,55,60,0
87.44939,87.69939,58,60,0
87.44939,87.69939,61,60,0
87.69939,87.82439,63,40,0
87.94939,88.19939,63,40,0
87.94939,88.19939,55,40,0
87.94939,88.19939,58,40,0
87.94939,88.19939,61,40,0
88.19939,88.44939,63,40,0
88.19939,88.44939,58,40,0
88.19939,88.44939,55,40,0
88.19939,88.44939,61,40,0
88.44939,88.69939,63,40,0
88.44939,88.69939,55,40,0
88.44939,88.69939,58,40,0
88.44939,88.69939,61,40,0
88.69939,88.94939,63,40,0
88.69939,88.94939,58,40,0
88.69939,88.94939,55,40,0
88.69939,88.94939,61,40,0
88.94939,89.19939,63,40,0
88.94939,89.19939,55,40,0
88.94939,89.19939,58,40,0
88.94939,89.19939,61,40,0
89.19939,89.44939,63,40,0
89.19939,89.44939,58,40,0
89.19939,89.44939,55,40,0
89.19939,89.44939,61,40,0
89.44939,89.69939,63,40,0
89.44939,89.69939,60,40,0
89.44939,89.69939,56,40,0
89.69939,89.82439,63,40,0
89.69939,89.82439,68,40,0
89.69939,89.82439,72,40,0
89.94939,90.19939,72,40,0
89.94939,90.19939,68,40,0
89.94939,90.19939,63,40,0
90.19939,90.44939,72,40,0
90.19939,90.44939,68,40,0
90.19939,90.44939,63,40,0
90.44939,90.69939,62,40,0
90.44939,90.69939,68,40,0
90.44939,90.69939,71,40,0
90.69939,90.82439,72,40,0
90.69939,90.82439,68,40,0
90.69939,90.82439,63,40,0
90.94939,91.19939,72,40,0
90.94939,91.19939,68,40,0
90.94939,91.19939,63,40,0
91.19939,91.44939,72,40,0
91.19939,91.44939,68,40,0
91.19939,91.44939,63,40,0
91.44939,91.69939,68,40,0
91.44939,91.69939,66,40,0
91.44939,91.69939,75,40,0
91.69939,91.82439,73,40,0
91.69939,91.82439,68,40,0
91.69939,91.82439,65,40,0
91.94939,92.19939,73,40,0
91.94939,92.19939,68,40,0
91.94939,92.19939,65,40,0
92.19939,92.44939,73,40,0
92.19939,92.44939,65,40,0
92.19939,92.44939,68,40,0
92.44939,92.69939,65,40,0
92.44939,92.69939,68,40,0
92.44939,92.69939,73,40,0
92.69939,92.94939,72,40,0
92.69939,92.94939,65,40,0
92.69939,92.94939,63,40,0
92.94939,93.19939,70,40,0
92.94939,93.19939,65,40,0
92.94939,93.19939,61,40,0
93.19939,93.44939,60,40,0
93.19939,93.44939,65,40,0
93.19939,93.44939,68,40,0
93.44939,93.69939,68,40,0
93.44939,93.69939,63,40,0
93.44939,93.69939,60,40,0
93.69939,93.82439,58,40,0
93.69939,93.82439,63,40,0
93.69939,93.82439,67,40,0
93.94939,94.19939,58,40,0
93.94939,94.19939,67,40,0
93.94939,94.19939,63,40,0
94.19939,94.44939,58,40,0
94.19939,94.44939,67,40,0
94.19939,94.44939,63,40,0
94.44939,94.69939,67,40,0
94.44939,94.69939,63,40,0
94.44939,94.69939,58,40,0
94.69939,94.94939,67,40,0
94.69939,94.94939,63,40,0
94.69939,94.94939,58,40,0
94.94939,95.19939,60,40,0
94.94939,95.19939,63,40,0
94.94939,95.19939,68,40,0
95.19939,95.44939,61,40,0
95.19939,95.44939,63,40,0
95.19939,95.44939,70,40,0
95.44939,95.69939,63,40,0
95.44939,95.69939,61,40,0
95.69939,95.82439,60,40,0
95.69939,95.82439,63,40,0
95.69939,95.82439,68,40,0
95.94939,96.19939,68,40,0
95.94939,96.19939,63,40,0
95.94939,96.19939,60,40,0
96.19939,96.44939,68,40,0
96.19939,96.44939,60,40,0
96.19939,96.44939,63,40,0
96.44939,96.69939,60,40,0
96.44939,96.69939,63,40,0
96.44939,96.69939,68,40,0
96.69939,96.94939,60,40,0
96.69939,96.94939,68,40,0
96.88689,96.94939,68,40,0
96.69939,96.94939,63,40,0
96.94939,97.32439,63,40,0
96.94939,97.32439,72,40,0
97.32439,97.44939,60,40,0
97.32439,97.44939,63,40,0
97.32439,97.44939,68,40,0
97.44939,97.69939,60,40,0
97.44939,97.69939,63,40,0
97.44939,97.69939,68,40,0
97.69939,97.82439,67,40,0
97.69939,97.82439,63,40,0
97.69939,97.82439,58,40,0
97.94939,98.19939,67,40,0
97.94939,98.19939,63,40,0
97.94939,98.19939,58,40,0
98.19939,98.44939,67,40,0
98.19939,98.44939,63,40,0
98.19939,98.44939,58,40,0
98.44939,98.69939,58,40,0
98.44939,98.69939,63,40,0
98.44939,98.69939,67,40,0
98.69939,98.94939,58,40,0
98.69939,98.94939,67,40,0
98.69939,98.94939,63,40,0
98.94939,99.19939,60,40,0
98.94939,99.19939,63,40,0
98.94939,99.19939,68,40,0
99.19939,99.44939,61,40,0
99.19939,99.44939,63,40,0
99.19939,99.44939,70,40,0
99.44939,99.69939,63,40,0
99.44939,99.69939,61,40,0
99.69939,99.82439,60,40,0
99.69939,99.82439,63,40,0
99.69939,99.82439,68,40,0
99.94939,100.19939,60,40,0
99.94939,100.19939,63,40,0
99.94939,100.19939,68,40,0
100.19939,100.44939,60,40,0
100.19939,100.44939,63,40,0
100.19939,100.44939,68,40,0
100.44939,100.57439,60,40,0
100.44939,100.57439,63,40,0
100.44939,100.57439,68,40,0
100.69939,100.94939,72,45,0
100.69939,100.94939,75,45,0
100.94939,101.19939,72,50,0
100.94939,101.19939,75,50,0
100.94939,101.19939,80,50,0
101.19939,101.44939,75,56,0
101.19939,101.44939,79,56,0
101.19939,101.44939,82,56,0
101.69939,101.94939,75,60,0
101.69939,101.94939,80,60,0
101.69939,101.94939,84,60,0
101.94939,102.19939,75,60,0
101.94939,102.19939,80,60,0
101.94939,102.19939,84,60,0
102.19939,102.44939,75,60,0
102.19939,102.44939,80,60,0
102.19939,102.44939,84,60,0
102.44939,102.69939,74,60,0
102.44939,102.69939,80,60,0
102.44939,102.69939,83,60,0
102.69939,102.82439,75,60,0
102.69939,102.82439,80,60,0
102.69939,102.82439,84,60,0
102.94939,103.19939,75,60,0
102.94939,103.19939,80,60,0
102.94939,103.19939,84,60,0
103.19939,103.44939,75,60,0
103.19939,103.44939,80,60,0
103.19939,103.44939,84,60,0
103.44939,103.69939,78,60,0
103.44939,103.69939,80,60,0
103.44939,103.69939,87,60,0
103.69939,103.82439,77,60,0
103.69939,103.82439,80,60,0
103.69939,103.82439,85,60,0
103.94939,104.19939,77,60,0
103.94939,104.19939,80,60,0
103.94939,104.19939,85,60,0
104.19939,104.44939,77,60,0
104.19939,104.44939,80,60,0
104.19939,104.44939,85,60,0
104.44939,104.69939,77,60,0
104.44939,104.69939,80,60,0
104.44939,104.69939,85,60,0
104.69939,104.94939,75,60,0
104.69939,104.94939,77,60,0
104.69939,104.94939,84,60,0
104.94939,105.19939,73,60,0
104.94939,105.19939,77,60,0
104.94939,105.19939,82,60,0
105.19939,105.44939,72,60,0
105.19939,105.44939,77,60,0
105.19939,105.44939,80,60,0
105.44939,105.69939,72,60,0
105.44939,105.69939,75,60,0
105.44939,105.69939,80,60,0
105.69939,105.82439,70,60,0
105.69939,105.82439,75,60,0
105.69939,105.82439,79,60,0
105.94939,106.19939,70,60,0
105.94939,106.19939,75,60,0
105.94939,106.19939,79,60,0
106.19939,106.44939,70,60,0
106.19939,106.44939,75,60,0
106.19939,106.44939,79,60,0
106.44939,106.69939,70,60,0
106.44939,106.69939,75,60,0
106.44939,106.69939,79,60,0
106.69939,106.94939,70,60,0
106.69939,106.94939,75,60,0
106.69939,106.94939,79,60,0
106.94939,107.19939,72,60,0
106.94939,107.19939,75,60,0
106.94939,107.19939,80,60,0
107.19939,107.44939,73,60,0
107.19939,107.44939,75,60,0
107.19939,107.44939,82,60,0
107.44939,107.69939,73,60,0
107.44939,107.69939,75,60,0
107.69939,107.82439,72,60,0
107.69939,107.82439,75,60,0
107.69939,107.82439,80,60,0
107.94939,108.19939,72,60,0
107.94939,108.19939,75,60,0
107.94939,108.19939,80,60,0
108.19939,108.44939,72,60,0
108.19939,108.44939,75,60,0
108.19939,108.44939,80,60,0
108.44939,108.69939,72,60,0
108.44939,108.69939,75,60,0
108.44939,108.69939,80,60,0
108.69939,108.94939,72,60,0
108.69939,108.94939,80,60,0
108.88689,108.94939,80,60,0
108.69939,108.94939,75,60,0
108.94939,109.32439,75,60,0
108.94939,109.32439,84,60,0
109.32439,109.44939,72,60,0
109.32439,109.44939,75,60,0
109.32439,109.44939,80,60,0
109.44939,109.69939,72,60,0
109.44939,109.69939,75,60,0
109.44939,109.69939,80,60,0
109.69939,109.82439,70,60,0
109.69939,109.82439,75,60,0
109.69939,109.82439,79,60,0
109.94939,110.19939,70,60,0
109.94939,110.19939,75,60,0
109.94939,110.19939,79,60,0
110.19939,110.44939,70,60,0
110.19939,110.44939,75,60,0
110.19939,110.44939,79,60,0
110.44939,110.69939,70,60,0
110.44939,110.69939,75,60,0
110.44939,110.69939,79,60,0
110.69939,110.94939,70,60,0
110.69939,110.94939,75,60,0
110.69939,110.94939,79,60,0
110.94939,111.19939,72,60,0
110.94939,111.19939,75,60,0
110.94939,111.19939,80,60,0
111.19939,111.44939,73,60,0
111.19939,111.44939,75,60,0
111.19939,111.44939,82,60,0
111.44939,111.69939,73,60,0
111.44939,111.69939,75,60,0
111.69939,111.82439,72,60,0
111.69939,111.82439,75,60,0
111.69939,111.82439,80,60,0
111.94939,112.19939,72,60,0
111.94939,112.19939,75,60,0
111.94939,112.19939,80,60,0
112.19939,112.44939,72,60,0
112.19939,112.44939,75,60,0
112.19939,112.44939,80,60,0
112.44939,112.69939,72,60,0
112.44939,112.69939,75,60,0
112.44939,112.69939,80,60,0
112.69939,112.82439,75,60,0
112.82439,112.94939,87,60,0
112.94939,113.07439,80,60,0
113.07439,113.19939,87,60,0
113.19939,113.32439,82,60,0
113.32439,113.44939,87,60,0
113.44939,113.57439,75,60,0
113.57439,113.69939,87,60,0
113.69939,113.82439,84,60,0
113.82439,113.94939,75,60,0
113.94939,114.07439,75,60,0
114.07439,114.19939,87,60,0
114.19939,114.32439,84,60,0
114.32439,114.44939,75,60,0
114.44939,114.57439,75,60,0
114.57439,114.69939,87,60,0
114.69939,114.82439,84,60,0
114.82439,114.94939,75,60,0
114.94939,115.07439,75,60,0
115.07439,115.19939,87,60,0
115.19939,115.32439,80,60,0
115.32439,115.44939,92,60,0
115.44939,115.57439,80,60,0
115.57439,115.69939,92,60,0
115.69939,115.82439,89,60,0
115.82439,115.94939,80,60,0
115.94939,116.07439,80,60,0
116.07439,116.19939,92,60,0
116.19939,116.32439,89,60,0
116.32439,116.44939,80,60,0
116.44939,116.57439,80,60,0
116.57439,116.69939,92,60,0
116.69939,116.82439,81,60,0
116.82439,116.94939,93,60,0
116.94939,117.07439,82,60,0
117.07439,117.19939,94,60,0
117.19939,117.32439,84,60,0
117.19939,117.32439,96,60,0
117.32439,117.44939,85,60,0
117.32439,117.44939,97,60,0
117.44939,117.57439,87,60,0
117.57439,117.69939,99,60,0
117.69939,117.82439,97,60,0
117.82439,117.94939,87,60,0
117.94939,118.07439,87,60,0
118.07439,118.19939,99,60,0
118.19939,118.32439,97,60,0
118.32439,118.44939,87,60,0
118.44939,118.57439,87,60,0
118.57439,118.69939,99,60,0
118.69939,118.82439,97,60,0
118.82439,118.94939,87,60,0
118.94939,119.07439,96,60,0
119.07439,119.19939,99,60,0
119.19939,119.32439,94,60,0
119.32439,119.44939,99,60,0
119.44939,119.57439,87,60,0
119.57439,119.69939,99,60,0
119.69939,119.82439,96,60,0
119.82439,119.94939,87,60,0
119.94939,120.07439,87,60,0
120.07439,120.19939,99,60,0
120.19939,120.32439,96,60,0
120.32439,120.44939,87,60,0
120.44939,120.57439,87,60,0
120.57439,120.69939,99,60,0
120.69939,120.82439,96,60,0
120.82439,120.94939,87,60,0
120.94939,121.07439,92,60,0
121.07439,121.19939,104,60,0
121.19939,121.32439,87,60,0
121.32439,121.44939,99,60,0
121.44939,121.57439,87,60,0
121.57439,121.69939,99,60,0
121.69939,121.82439,97,60,0
121.82439,121.94939,87,60,0
121.94939,122.07439,87,60,0
122.07439,122.19939,99,60,0
122.19939,122.32439,97,60,0
122.32439,122.44939,87,60,0
122.44939,122.57439,87,60,0
122.57439,122.69939,99,60,0
122.69939,122.82439,97,60,0
122.82439,122.94939,87,60,0
122.94939,123.07439,96,60,0
123.07439,123.19939,99,60,0
123.19939,123.32439,94,60,0
123.32439,123.44939,99,60,0
123.44939,123.57439,87,60,0
123.57439,123.69939,99,60,0
123.69939,123.82439,96,60,0
123.82439,123.94939,87,60,0
123.94939,124.07439,87,60,0
124.07439,124.19939,99,60,0
124.19939,124.32439,96,60,0
124.32439,124.44939,87,60,0
124.44939,124.57439,87,60,0
124.57439,124.69939,99,60,0
124.69939,124.82439,96,60,0
124.82439,124.94939,87,60,0
124.94939,125.07439,92,60,0
125.07439,125.19939,104,60,0
125.19939,125.32439,87,60,0
125.32439,125.44939,99,60,0
125.44939,125.57502,87,60,0
125.57502,125.70248,99,60,0
125.70248,125.8319,97,60,0
125.8319,125.96339,87,60,0
125.96339,126.09683,87,60,0
126.09683,126.23246,99,60,0
126.23246,126.37033,97,60,0
126.37033,126.51048,87,60,0
126.51048,126.65293,87,60,0
126.65293,126.79784,99,60,0
126.79784,126.94529,97,60,0
126.94529,127.09543,87,60,0
127.09543,127.24812,96,60,0
127.24812,127.40368,99,60,0
127.40368,127.562195,94,60,0
127.562195,127.723755,99,60,0
127.723755,129.35419,94,60,0
129.35419,129.68028,96,60,0
129.68028,130.00636,97,60,0
130.00636,130.33244,98,60,0
130.33244,132.28897,99,60,0
132.28897,132.94115,91,60,0
132.94115,133.06615,96,60,0
133.06615,133.19115,99,60,0
133.19115,133.31615,92,60,0
133.31615,133.44115,96,60,0
133.44115,133.56615,87,60,0
133.56615,133.69115,92,60,0
133.69115,133.81615,84,60,0
133.81615,133.94115,87,60,0
133.94115,134.06615,80,60,0
134.06615,134.19115,84,60,0
134.19115,134.31615,75,60,0
134.31615,134.44115,80,60,0
134.44115,134.56615,72,60,0
134.56615,134.69115,75,60,0
134.69115,134.81615,68,60,0
134.81615,134.94115,72,60,0
134.94115,135.06615,63,60,0
135.06615,135.19115,68,60,0
135.19115,135.31615,60,60,0
135.31615,135.44115,63,60,0
140.44115,140.69115,68,60,0
140.44115,140.69115,71,60,0
140.69115,140.94115,70,60,0
140.69115,140.94115,73,60,0
140.94115,141.44115,71,60,0
140.94115,141.44115,75,60,0
144.44115,144.69115,70,60,0
144.44115,144.69115,73,60,0
144.69115,144.94115,73,60,0
144.69115,144.94115,76,60,0
144.94115,145.44115,71,60,0
144.94115,145.44115,75,60,0
148.44115,148.56615,59,55,0
148.56615,148.69115,63,56,0
148.44115,148.69115,68,75,0
148.44115,148.69115,71,75,0
148.69115,148.81615,61,58,0
148.69115,148.81615,54,58,0
148.81615,148.94115,66,59,0
148.69115,148.94115,73,78,0
148.69115,148.94115,70,78,0
148.94115,149.06615,63,60,0
148.94115,149.06615,59,60,0
149.06615,149.19115,66,62,0
149.19115,149.31615,54,63,0
149.31615,149.44115,59,64,0
148.94115,149.44115,75,80,0
148.94115,149.44115,71,80,0
149.44115,149.56615,63,66,0
149.56615,149.69115,66,67,0
149.69115,149.81615,54,68,0
149.81615,149.94115,59,69,0
149.94115,150.06615,63,71,0
150.06615,150.19115,66,72,0
150.19115,150.31615,63,73,0
150.19115,150.31615,59,73,0
150.31615,150.44115,66,75,0
150.44115,150.56615,64,76,0
150.44115,150.56615,58,76,0
150.56615,150.69115,66,77,0
150.69115,150.81615,63,79,0
150.69115,150.81615,59,79,0
150.81615,150.94115,66,80,0
150.94115,151.06615,61,80,0
150.94115,151.06615,58,80,0
151.06615,151.19115,66,80,0
151.19115,151.31615,54,79,0
151.31615,151.44115,58,78,0
151.44115,151.56615,61,77,0
151.56615,151.69115,66,76,0
151.69115,151.81615,54,75,0
151.81615,151.94115,58,75,0
151.94115,152.06615,61,74,0
152.06615,152.19115,66,73,0
152.19115,152.31615,54,72,0
152.31615,152.44115,58,71,0
152.44115,152.56615,61,70,0
152.56615,152.69115,66,69,0
152.44115,152.69115,73,90,0
152.44115,152.69115,76,90,0
152.69115,152.81615,64,69,0
152.81615,152.94115,66,68,0
152.69115,152.94115,76,89,0
152.69115,152.94115,80,89,0
152.94115,153.06615,63,67,0
153.06615,153.19115,66,66,0
153.19115,153.31615,54,65,0
153.31615,153.44115,59,64,0
152.94115,153.44115,75,87,0
152.94115,153.44115,78,87,0
153.44115,153.56615,63,63,0
153.56615,153.69115,66,63,0
153.69115,153.81615,54,62,0
153.81615,153.94115,59,61,0
153.94115,154.06615,63,60,0
154.06615,154.19115,66,59,0
154.19115,154.31615,54,58,0
154.31615,154.44115,59,57,0
154.44115,154.56615,63,57,0
154.44115,154.56615,59,57,0
154.56615,154.69115,66,56,0
154.69115,154.81615,64,55,0
154.69115,154.81615,58,55,0
154.81615,154.94115,66,54,0
154.94115,155.06615,63,53,0
154.94115,155.06615,59,53,0
155.06615,155.19115,66,52,0
155.19115,155.31615,54,51,0
155.31615,155.44115,59,51,0
155.44115,155.56615,63,50,0
155.56615,155.69115,66,49,0
155.69115,155.81615,54,48,0
155.81615,155.94115,59,47,0
155.94115,156.06615,63,46,0
156.06615,156.19115,66,45,0
156.19115,156.31615,54,45,0
156.31615,156.44115,59,44,0
156.19115,156.44115,75,65,0
156.44115,156.56615,63,43,0
156.56615,156.69115,66,42,0
156.44115,156.69115,73,63,0
156.69115,156.81615,54,41,0
156.81615,156.94115,59,40,0
156.69115,156.94115,71,61,0
156.94115,157.06615,64,40,0
157.06615,157.19115,59,40,0
157.19115,157.31615,56,40,0
157.31615,157.44115,59,40,0
156.94115,157.44115,68,60,0
157.44115,157.56615,64,40,0
157.56615,157.69115,68,40,0
157.69115,157.81615,56,40,0
157.81615,157.94115,59,40,0
157.94115,158.06615,64,40,0
158.06615,158.19115,68,40,0
158.19115,158.31615,56,40,0
158.31615,158.44115,61,40,0
158.44115,158.56615,64,40,0
158.56615,158.69115,68,40,0
158.69115,158.81615,56,40,0
158.81615,158.94115,61,40,0
158.94115,159.06615,64,40,0
159.06615,159.19115,66,40,0
159.19115,159.31615,54,40,0
159.31615,159.44115,61,40,0
159.44115,159.56615,64,40,0
159.56615,159.69115,66,40,0
159.69115,159.81615,54,40,0
159.81615,159.94115,61,40,0
159.94115,160.06615,63,40,0
160.06615,160.19115,66,40,0
160.19115,160.31615,54,40,0
160.31615,160.44115,59,40,0
160.19115,160.44115,75,60,0
160.44115,160.56615,63,40,0
160.56615,160.69115,67,40,0
160.44115,160.69115,76,60,0
160.69115,160.81615,54,40,0
160.81615,160.94115,59,40,0
160.69115,160.94115,77,60,0
160.94115,161.06615,61,40,0
161.06615,161.19115,66,40,0
161.19115,161.31615,54,40,0
161.31615,161.44115,59,40,0
161.44115,161.56615,61,40,0
161.56615,161.69115,66,40,0
161.69115,161.81615,54,40,0
161.81615,161.94115,59,40,0
161.94115,162.06615,61,40,0
162.06615,162.19115,66,40,0
162.19115,162.31615,54,40,0
162.31615,162.44115,58,40,0
162.44115,162.56615,61,40,0
162.56615,162.69115,66,40,0
162.69115,162.81615,54,40,0
162.81615,162.94115,58,40,0
160.94115,162.94115,78,60,0
162.94115,163.06615,63,40,0
163.06615,163.19115,66,40,0
163.19115,163.31615,54,40,0
163.31615,163.44115,59,40,0
162.94115,163.44115,75,60,0
163.44115,163.56615,63,40,0
163.56615,163.69115,66,40,0
163.69115,163.81615,54,40,0
163.81615,163.94115,59,40,0
163.94115,164.06615,62,40,0
164.06615,164.19115,66,40,0
164.19115,164.31615,54,40,0
164.31615,164.44115,59,40,0
164.44115,164.56615,62,40,0
164.56615,164.69115,66,40,0
164.69115,164.81615,54,40,0
164.81615,164.94115,59,40,0
164.94115,165.06615,61,40,0
165.06615,165.19115,66,40,0
165.19115,165.31615,54,40,0
165.31615,165.44115,59,40,0
165.44115,165.56615,61,40,0
165.56615,165.69115,66,40,0
165.69115,165.81615,54,40,0
165.81615,165.94115,59,40,0
165.94115,166.06615,61,40,0
166.06615,166.19115,66,40,0
166.19115,166.31615,54,40,0
166.31615,166.44115,58,40,0
166.44115,166.56615,61,40,0
166.56615,166.69115,66,40,0
166.69115,166.81615,54,40,0
166.81615,166.94115,58,40,0
170.44115,170.69115,68,60,0
170.44115,170.69115,71,60,0
170.69115,170.94115,70,60,0
170.69115,170.94115,73,60,0
170.94115,171.44115,71,60,0
170.94115,171.44115,75,60,0
174.44115,174.69115,70,60,0
174.44115,174.69115,73,60,0
174.69115,174.94115,73,60,0
174.69115,174.94115,76,60,0
174.94115,175.44115,71,60,0
174.94115,175.44115,75,60,0
178.44115,178.56615,59,50,0
178.56615,178.69115,63,51,0
178.44115,178.69115,68,70,0
178.44115,178.69115,71,70,0
178.69115,178.81615,61,51,0
178.69115,178.81615,54,51,0
178.81615,178.94115,66,52,0
178.69115,178.94115,73,71,0
178.69115,178.94115,70,71,0
178.94115,179.06615,63,53,0
178.94115,179.06615,59,53,0
179.06615,179.19115,66,54,0
179.19115,179.31615,54,55,0
179.31615,179.44115,59,56,0
178.94115,179.44115,75,73,0
178.94115,179.44115,71,73,0
179.44115,179.56615,63,57,0
179.56615,179.69115,66,57,0
179.69115,179.81615,54,58,0
179.81615,179.94115,59,59,0
179.94115,180.06615,63,60,0
180.06615,180.19115,66,61,0
180.19115,180.31615,63,62,0
180.19115,180.31615,59,62,0
180.31615,180.44115,66,63,0
180.44115,180.56615,64,63,0
180.44115,180.56615,58,63,0
180.56615,180.69115,66,64,0
180.69115,180.81615,63,65,0
180.69115,180.81615,59,65,0
180.81615,180.94115,66,66,0
180.94115,181.06615,61,67,0
180.94115,181.06615,58,67,0
181.06615,181.19115,66,68,0
181.19115,181.31615,54,69,0
181.31615,181.44115,58,69,0
181.44115,181.56615,61,70,0
181.56615,181.69115,66,71,0
181.69115,181.81615,54,72,0
181.81615,181.94115,58,73,0
181.94115,182.06615,61,74,0
182.06615,182.19115,66,75,0
182.19115,182.31615,54,75,0
182.31615,182.44115,58,76,0
182.44115,182.56615,61,77,0
182.56615,182.69115,66,78,0
182.44115,182.69115,73,97,0
182.44115,182.69115,76,97,0
182.69115,182.81615,64,79,0
182.81615,182.94115,66,80,0
182.69115,182.94115,76,99,0
182.69115,182.94115,80,99,0
182.94115,183.06615,63,80,0
183.06615,183.19115,66,79,0
183.19115,183.31615,54,78,0
183.31615,183.44115,59,77,0
182.94115,183.44115,75,100,0
182.94115,183.44115,78,100,0
183.44115,183.56615,63,75,0
183.56615,183.69115,66,74,0
183.69115,183.81615,54,73,0
183.81615,183.94115,59,71,0
183.94115,184.06615,63,70,0
184.06615,184.19115,66,69,0
184.19115,184.31615,54,67,0
184.31615,184.44115,59,66,0
184.44115,184.56615,63,65,0
184.44115,184.56615,59,65,0
184.56615,184.69115,66,64,0
184.69115,184.81615,64,62,0
184.69115,184.81615,58,62,0
184.81615,184.94115,66,61,0
184.94115,185.06615,63,60,0
184.94115,185.06615,59,60,0
185.06615,185.19115,66,58,0
185.19115,185.31615,54,57,0
185.31615,185.44115,59,56,0
185.44115,185.56615,63,54,0
185.56615,185.69115,66,53,0
185.69115,185.81615,54,52,0
185.81615,185.94115,59,51,0
185.94115,186.06615,63,49,0
186.06615,186.19115,66,48,0
186.19115,186.31615,54,47,0
186.31615,186.44115,59,45,0
186.19115,186.44115,75,67,0
186.44115,186.56615,63,44,0
186.56615,186.69115,66,43,0
186.44115,186.69115,73,64,0
186.69115,186.81615,54,41,0
186.81615,186.94115,59,40,0
186.69115,186.94115,71,61,0
186.94115,187.06615,64,40,0
187.06615,187.19115,59,40,0
187.19115,187.31615,56,40,0
187.31615,187.44115,59,40,0
186.94115,187.44115,68,60,0
187.44115,187.56615,64,40,0
187.56615,187.69115,68,40,0
187.69115,187.81615,56,40,0
187.81615,187.94115,59,40,0
187.94115,188.06615,64,40,0
188.06615,188.19115,68,40,0
188.19115,188.31615,56,40,0
188.31615,188.44115,61,40,0
188.44115,188.56615,64,40,0
188.56615,188.69115,68,40,0
188.69115,188.81615,56,40,0
188.81615,188.94115,61,40,0
188.94115,189.06615,64,40,0
189.06615,189.19115,66,40,0
189.19115,189.31615,54,40,0
189.31615,189.44115,61,40,0
189.44115,189.56615,64,40,0
189.56615,189.69115,66,40,0
189.69115,189.81615,54,40,0
189.81615,189.94115,61,40,0
189.94115,190.06615,63,40,0
190.06615,190.19115,66,40,0
190.19115,190.31615,54,40,0
190.31615,190.44115,59,40,0
190.19115,190.44115,75,60,0
190.44115,190.56615,63,40,0
190.56615,190.69115,67,40,0
190.44115,190.69115,76,60,0
190.69115,190.81615,54,40,0
190.81615,190.94115,59,40,0
190.69115,190.94115,77,60,0
190.94115,191.06615,61,40,0
191.06615,191.19115,66,40,0
191.19115,191.31615,54,40,0
191.31615,191.44115,59,40,0
191.44115,191.56615,61,40,0
191.56615,191.69115,66,40,0
191.69115,191.81615,54,40,0
191.81615,191.94115,59,40,0
191.94115,192.06615,61,40,0
192.06615,192.19115,66,40,0
192.19115,192.31615,54,40,0
192.31615,192.44115,58,40,0
192.44115,192.56615,61,40,0
192.56615,192.69115,66,40,0
192.69115,192.81615,54,40,0
192.81615,192.94115,58,40,0
190.94115,192.94115,78,60,0
192.94115,193.06615,63,40,0
193.06615,193.19115,66,40,0
193.19115,193.31615,54,40,0
193.31615,193.44115,59,40,0
192.94115,193.44115,75,60,0
193.44115,193.56615,63,40,0
193.56615,193.69115,66,40,0
193.69115,193.81615,54,40,0
193.81615,193.94115,59,40,0
193.94115,194.06615,62,40,0
194.06615,194.19115,66,40,0
194.19115,194.31615,54,40,0
194.31615,194.44115,59,40,0
194.44115,194.56615,62,40,0
194.56615,194.69115,66,40,0
194.69115,194.81615,54,40,0
194.81615,194.94115,59,40,0
194.94115,195.06615,61,40,0
195.06615,195.19115,66,40,0
195.19115,195.31615,54,40,0
195.31615,195.44115,59,40,0
195.44115,195.56615,61,40,0
195.56615,195.69115,66,40,0
195.69115,195.81615,54,40,0
195.81615,195.94115,59,40,0
195.94115,196.06615,61,40,0
196.06615,196.19115,66,40,0
196.19115,196.31615,54,40,0
196.31615,196.44115,58,40,0
196.44115,196.56615,61,40,0
196.56615,196.69115,66,40,0
196.69115,196.81615,54,40,0
196.81615,196.94115,58,40,0
196.94115,197.06615,63,40,0
197.06615,197.19115,66,42,0
197.19115,197.31615,54,45,0
197.31615,197.44115,59,48,0
197.44115,197.56615,63,50,0
197.56615,197.69115,66,53,0
197.69115,197.81615,54,56,0
197.81615,197.94115,59,59,0
197.94115,198.06615,63,61,0
198.06615,198.19115,66,64,0
198.19115,198.31615,54,67,0
198.31615,198.44115,59,69,0
198.19115,198.44115,71,87,0
198.19115,198.44115,75,87,0
198.44115,198.56615,63,72,0
198.56615,198.69115,66,75,0
198.44115,198.69115,71,92,0
198.44115,198.69115,75,92,0
198.69115,198.81615,54,78,0
198.81615,198.94115,59,80,0
198.69115,198.94115,71,98,0
198.69115,198.94115,76,98,0
198.94115,199.06615,63,80,0
199.06615,199.19115,67,80,0
199.19115,199.31615,55,80,0
199.31615,199.44115,58,80,0
198.94115,199.44115,75,100,0
198.94115,199.44115,73,100,0
198.94115,199.44115,70,100,0
199.44115,199.56615,63,80,0
199.56615,199.69115,67,80,0
199.44115,199.69115,70,100,0
199.69115,199.81615,55,80,0
199.81615,199.94115,58,80,0
199.94115,200.06615,63,80,0
200.06615,200.19115,67,80,0
200.19115,200.31615,55,80,0
200.31615,200.44115,58,80,0
200.44115,200.56615,63,80,0
200.56615,200.69115,67,80,0
200.69115,200.81615,55,80,0
200.81615,200.94115,58,80,0
200.94115,201.06615,63,80,0
201.06615,201.19115,68,80,0
201.19115,201.31615,56,80,0
201.31615,201.44115,59,80,0
201.44115,201.56615,63,80,0
201.56615,201.69115,68,80,0
201.69115,201.81615,56,80,0
201.81615,201.94115,59,80,0
201.94115,202.06615,63,80,0
202.06615,202.19115,68,80,0
202.19115,202.31615,56,80,0
202.31615,202.44115,59,80,0
202.19115,202.44115,71,100,0
202.19115,202.44115,75,100,0
202.44115,202.56615,63,80,0
202.56615,202.69115,68,80,0
202.44115,202.69115,71,100,0
202.44115,202.69115,75,100,0
202.69115,202.81615,56,80,0
202.81615,202.94115,59,80,0
202.69115,202.94115,71,100,0
202.69115,202.94115,76,100,0
202.94115,203.06615,63,80,0
203.06615,203.19115,67,80,0
203.19115,203.31615,55,80,0
203.31615,203.44115,58,80,0
202.94115,203.44115,75,100,0
202.94115,203.44115,73,100,0
202.94115,203.44115,70,100,0
203.44115,203.56615,63,80,0
203.56615,203.69115,67,80,0
203.44115,203.69115,70,100,0
203.69115,203.81615,55,80,0
203.81615,203.94115,58,80,0
203.94115,204.06615,63,80,0
204.06615,204.19115,67,80,0
204.19115,204.31615,55,80,0
204.31615,204.44115,58,80,0
204.44115,204.56615,63,80,0
204.56615,204.69115,67,80,0
204.69115,204.81615,55,80,0
204.81615,204.94115,58,80,0
204.94115,205.06615,63,80,0
205.06615,205.19115,68,81,0
205.19115,205.31615,56,82,0
205.31615,205.44115,59,84,0
205.44115,205.56615,63,85,0
205.56615,205.69115,68,86,0
205.69115,205.81615,56,88,0
205.81615,205.94115,59,89,0
205.94115,206.06615,63,90,0
206.06615,206.19115,68,92,0
206.19115,206.31615,56,93,0
206.31615,206.44115,59,94,0
206.19115,206.44115,75,113,0
206.44115,206.56615,63,96,0
206.56615,206.69115,68,97,0
206.44115,206.69115,75,116,0
206.69115,206.81615,56,99,0
206.81615,206.94115,59,100,0
206.69115,206.94115,75,119,0
206.94115,207.06615,64,100,0
207.06615,207.19115,68,100,0
206.94115,207.19115,76,120,0
207.19115,207.31615,56,100,0
207.31615,207.44115,59,100,0
207.44115,207.56615,64,100,0
207.56615,207.69115,68,100,0
207.69115,207.81615,56,100,0
207.81615,207.94115,59,100,0
207.94115,208.06615,64,100,0
208.06615,208.19115,69,100,0
208.19115,208.31615,57,100,0
208.31615,208.44115,60,100,0
208.44115,208.56615,64,100,0
208.56615,208.69115,69,100,0
208.69115,208.81615,57,100,0
208.44115,208.81615,72,120,0
208.81615,208.94115,74,120,0
208.81615,208.94115,60,100,0
208.94115,209.06615,64,100,0
209.06615,209.19115,68,100,0
208.94115,209.19115,76,120,0
209.19115,209.31615,56,100,0
209.31615,209.44115,59,100,0
209.44115,209.56615,64,100,0
209.56615,209.69115,68,100,0
209.69115,209.81615,56,100,0
209.81615,209.94115,59,100,0
209.94115,210.06615,64,100,0
210.06615,210.19115,69,100,0
210.19115,210.31615,57,100,0
210.31615,210.44115,60,100,0
210.44115,210.56615,64,100,0
210.56615,210.69115,69,100,0
210.69115,210.81615,57,100,0
210.44115,210.81615,72,120,0
210.81615,210.94115,74,120,0
210.81615,210.94115,60,100,0
210.94115,211.06615,64,100,0
211.06615,211.19115,68,98,0
210.94115,211.19115,76,120,0
211.19115,211.31615,56,95,0
211.31615,211.44115,59,92,0
211.44115,211.56615,64,90,0
211.56615,211.69115,68,87,0
211.69115,211.81615,56,84,0
211.81615,211.94115,59,81,0
211.94115,212.06615,64,79,0
212.06615,212.19115,68,76,0
212.19115,212.31615,56,73,0
212.31615,212.44115,59,71,0
212.44115,212.56615,63,68,0
212.56615,212.69115,68,65,0
212.69115,212.81615,56,62,0
212.81615,212.94115,59,60,0
212.94115,213.06615,65,60,0
213.06615,213.19115,68,60,0
213.19115,213.31615,56,59,0
213.31615,213.44115,58,59,0
213.44115,213.56615,65,58,0
213.56615,213.69115,68,57,0
213.69115,213.81615,56,57,0
213.81615,213.94115,58,56,0
213.94115,214.06615,65,55,0
214.06615,214.19115,68,55,0
213.44115,214.19115,77,78,0
214.19115,214.31615,56,54,0
214.31615,214.44115,58,53,0
214.19115,214.44115,77,74,0
214.44115,214.56615,65,53,0
214.56615,214.69115,68,52,0
214.44115,214.69115,79,73,0
214.69115,214.81615,56,51,0
214.81615,214.94115,58,51,0
214.69115,214.94115,80,71,0
214.94115,215.06615,63,50,0
215.06615,215.19115,67,49,0
214.94115,215.19115,79,70,0
215.19115,215.31615,55,49,0
215.31615,215.44115,58,48,0
215.44115,215.56615,63,47,0
215.56615,215.69115,67,47,0
215.69115,215.81615,55,46,0
215.81615,215.94115,58,45,0
215.94115,216.06615,63,45,0
216.06615,216.19115,67,44,0
216.19115,216.31615,55,43,0
216.31615,216.44115,58,43,0
216.19115,216.44115,77,63,0
216.44115,216.56615,63,42,0
216.56615,216.69115,67,41,0
216.44115,216.69115,75,62,0
216.69115,216.81615,55,41,0
216.81615,216.94115,58,40,0
216.69115,216.94115,74,61,0
216.94115,217.06615,63,40,0
217.06615,217.19115,68,40,0
216.94115,217.19115,72,60,0
217.19115,217.31615,56,40,0
217.31615,217.44115,60,40,0
217.44115,217.56615,63,40,0
217.56615,217.69115,68,40,0
217.69115,217.81615,56,40,0
217.81615,217.94115,60,40,0
217.94115,218.06615,65,40,0
218.06615,218.19115,68,40,0
218.19115,218.31615,56,40,0
218.31615,218.44115,60,40,0
218.44115,218.56615,65,40,0
218.56615,218.69115,68,40,0
218.69115,218.81615,56,40,0
218.81615,218.94115,60,40,0
218.44115,218.94115,72,60,0
218.94115,219.06615,65,40,0
219.06615,219.19115,68,40,0
218.94115,219.19115,74,60,0
219.19115,219.31615,56,40,0
219.31615,219.44115,62,40,0
219.44115,219.56615,65,40,0
219.56615,219.69115,68,40,0
219.69115,219.81615,56,40,0
219.81615,219.94115,62,40,0
219.94115,220.06615,65,40,0
220.06615,220.19115,68,40,0
220.19115,220.31615,56,40,0
220.31615,220.44115,62,40,0
220.44115,220.56615,65,40,0
220.56615,220.69115,68,40,0
220.69115,220.81615,56,40,0
220.81615,220.94115,62,40,0
220.94115,221.06615,63,40,0
221.06615,221.19115,67,40,0
221.19115,221.31615,55,40,0
221.31615,221.44115,58,40,0
220.94115,221.44115,75,60,0
221.44115,221.56615,63,40,0
221.56615,221.69115,67,40,0
221.69115,221.81615,55,40,0
221.81615,221.94115,58,40,0
221.94115,222.06615,63,40,0
222.06615,222.19115,67,40,0
222.19115,222.31615,55,40,0
222.31615,222.44115,58,40,0
222.44115,222.56615,63,40,0
222.56615,222.69115,67,40,0
222.69115,222.81615,55,40,0
222.81615,222.94115,58,40,0
222.94115,223.06615,62,40,0
223.06615,223.19115,68,40,0
223.19115,223.31615,56,40,0
223.31615,223.44115,58,40,0
223.44115,223.56615,62,40,0
223.56615,223.69115,68,40,0
223.69115,223.81615,56,40,0
223.81615,223.94115,58,40,0
226.44115,226.69115,68,60,0
226.69115,226.94115,67,60,0
226.69115,226.94115,70,60,0
226.94115,227.44115,68,60,0
226.94115,227.44115,72,60,0
230.44115,230.69115,73,60,0
230.44115,230.69115,70,60,0
230.69115,230.94115,73,60,0
230.69115,230.94115,77,60,0
230.94115,231.44115,72,60,0
230.94115,231.44115,75,60,0
234.44115,234.69115,68,74,0
234.44115,234.69115,72,74,0
234.69115,234.94115,70,77,0
234.69115,234.94115,73,77,0
234.94115,235.44115,72,79,0
234.94115,235.44115,75,79,0
235.94115,236.06615,60,69,0
236.06615,236.19115,63,71,0
236.19115,236.31615,60,72,0
236.31615,236.44115,63,73,0
236.44115,236.56615,61,74,0
236.56615,236.69115,65,76,0
236.69115,236.81615,58,77,0
236.81615,236.94115,67,78,0
236.94115,237.06615,60,80,0
237.06615,237.19115,68,80,0
237.19115,237.31615,56,79,0
237.31615,237.44115,60,78,0
237.44115,237.56615,63,77,0
237.56615,237.69115,68,76,0
237.69115,237.81615,56,75,0
237.81615,237.94115,60,75,0
237.94115,238.06615,63,74,0
238.06615,238.19115,68,73,0
238.19115,238.31615,60,72,0
238.31615,238.44115,68,71,0
238.19115,238.44115,72,92,0
238.19115,238.44115,80,92,0
238.44115,238.56615,63,70,0
238.56615,238.69115,67,69,0
238.44115,238.69115,79,90,0
238.44115,238.69115,75,90,0
238.69115,238.81615,61,69,0
238.81615,238.94115,65,68,0
238.69115,238.94115,77,89,0
238.69115,238.94115,73,89,0
238.94115,239.44115,72,87,0
238.94115,239.44115,75,87,0
242.44115,242.69115,68,63,0
242.44115,242.69115,72,63,0
242.69115,242.94115,70,61,0
242.69115,242.94115,73,61,0
242.94115,243.44115,72,60,0
242.94115,243.44115,75,60,0
243.94115,244.06615,60,40,0
244.06615,244.19115,63,40,0
244.19115,244.31615,60,40,0
244.31615,244.44115,63,40,0
244.44115,244.56615,61,40,0
244.56615,244.69115,65,40,0
244.69115,244.81615,58,40,0
244.81615,244.94115,67,40,0
244.94115,245.06615,60,40,0
245.06615,245.19115,68,40,0
245.19115,245.31615,56,40,0
245.31615,245.44115,60,40,0
245.44115,245.56615,63,40,0
245.56615,245.69115,68,40,0
245.69115,245.81615,56,40,0
245.81615,245.94115,60,40,0
245.94115,246.06615,63,40,0
246.06615,246.19115,68,40,0
246.19115,246.31615,60,40,0
246.31615,246.44115,68,40,0
246.19115,246.44115,72,60,0
246.19115,246.44115,80,60,0
246.44115,246.56615,63,40,0
246.56615,246.69115,67,40,0
246.44115,246.69115,79,60,0
246.44115,246.69115,75,60,0
246.69115,246.81615,61,40,0
246.81615,246.94115,65,40,0
246.69115,246.94115,77,60,0
246.69115,246.94115,73,60,0
246.94115,247.44115,72,60,0
246.94115,247.44115,75,60,0
257.94113,258.06613,60,55,0
258.06613,258.19113,64,57,0
258.19113,258.31613,58,59,0
258.31613,258.44113,60,61,0
258.44113,258.56613,64,63,0
258.56613,258.69113,70,65,0
258.69113,258.81613,60,67,0
258.81613,258.94113,64,69,0
258.94113,259.06613,70,71,0
259.06613,259.19113,72,73,0
259.19113,259.31613,60,75,0
259.31613,259.44113,64,77,0
259.44113,259.56613,70,79,0
259.56613,259.69113,72,81,0
259.69113,259.81613,60,83,0
259.81613,259.94113,64,85,0
259.94113,260.06613,70,87,0
260.06613,260.19113,72,89,0
260.19113,260.31613,60,91,0
260.31613,260.44113,64,93,0
260.44113,260.56613,70,95,0
260.56613,260.69113,72,97,0
260.69113,260.81613,60,99,0
260.81613,260.94113,64,100,0
260.94113,261.00363,72,100,0
261.00363,261.06613,77,100,0
261.06613,261.12863,80,100,0
261.12863,261.81613,84,100,0
261.81613,261.94113,82,60,0
261.94113,262.31613,68,60,0
262.31613,262.44113,70,60,0
262.44113,262.81613,67,60,0
262.81613,262.94113,68,60,0
262.94113,263.31613,65,60,0
263.31613,263.44113,66,60,0
263.44113,263.81613,63,60,0
263.81613,263.94113,65,60,0
263.94113,264.31613,61,60,0
264.31613,264.44113,63,60,0
264.44113,264.81613,60,60,0
264.81613,264.94113,61,60,0
267.44113,267.56613,67,110,0
267.44113,267.56613,70,110,0
267.44113,267.56613,73,110,0
268.25363,268.31613,72,60,0
268.31613,268.37863,73,60,0
268.37863,268.44113,75,60,0
268.44113,268.81613,73,60,0
268.81613,268.94113,72,60,0
268.94113,269.44662,72,60,0
269.44662,270.14084,77,70,0
270.14084,270.3182,67,60,0
270.3182,270.49716,70,60,0
270.49716,270.67776,73,60,0
270.67776,270.85995,70,60,0
270.85995,271.04385,67,60,0
271.04385,272.18384,65,70,0
272.18384,272.33096,64,70,0
272.47922,272.62854,78,71,0
272.62854,272.77902,79,77,0
272.77902,272.9306,80,83,0
272.9306,273.0833,81,89,0
273.0833,273.2372,82,95,0
273.2372,273.3924,83,100,0
273.3924,273.4549,72,100,0
273.4549,273.5174,77,100,0
273.5174,273.5799,80,100,0
273.5799,274.2674,84,100,0
274.2674,274.3924,82,60,0
274.3924,274.7674,80,60,0
274.7674,274.8924,92,60,0
274.8924,275.2674,79,60,0
275.2674,275.3924,91,60,0
275.3924,275.7674,77,60,0
275.7674,275.8924,89,60,0
275.8924,276.2674,75,60,0
276.2674,276.3924,87,60,0
276.3924,276.7674,73,60,0
276.7674,276.8924,85,60,0
276.8924,277.2674,72,60,0
277.2674,277.3924,84,60,0
277.3924,277.5174,70,60,0
277.5174,277.6424,82,62,0
277.6424,277.7674,70,65,0
277.7674,277.8924,82,68,0
277.8924,278.0174,68,70,0
278.0174,278.1424,80,73,0
278.1424,278.2674,68,76,0
278.2674,278.3924,80,79,0
278.3924,278.5174,66,81,0
278.5174,278.6424,78,84,0
278.6424,278.7674,66,87,0
278.7674,278.8924,78,89,0
278.8924,279.0174,65,92,0
279.0174,279.1424,77,95,0
279.1424,279.2674,65,98,0
279.2674,279.3924,77,100,0
279.3924,279.5174,64,100,0
279.3924,279.5174,76,100,0
279.8924,280.0174,79,110,0
279.8924,280.0174,82,110,0
279.8924,280.0174,85,110,0
280.7049,280.7674,72,60,0
280.7674,280.8299,73,60,0
280.8299,280.8924,75,60,0
280.8924,281.2674,73,60,0
281.2674,281.3924,72,60,0
281.3924,281.55948,72,60,0
281.55948,281.72794,80,70,0
281.72794,281.89786,79,60,0
281.89786,282.06915,77,60,0
282.06915,282.242,72,60,0
282.242,282.4163,68,60,0
282.4163,282.5921,67,60,0
282.5921,282.76944,75,70,0
282.76944,282.94843,72,60,0
282.94843,283.129,73,60,0
283.129,283.3112,70,60,0
283.3112,283.49512,67,60,0
283.49512,283.68063,65,60,0
283.68063,283.86792,60,63,0
283.86792,284.05698,65,67,0
284.05698,284.2478,68,70,0
284.2478,284.44052,65,74,0
284.44052,284.63507,73,78,0
284.63507,284.7822,72,81,0
285.2303,285.38184,67,102,0
285.2303,285.38184,72,102,0
285.2303,285.38184,76,102,0
285.84363,285.96863,68,110,0
285.84363,285.96863,72,110,0
285.84363,285.96863,77,110,0
286.09363,286.21863,68,40,0
286.21863,286.34363,72,40,0
286.34363,286.46863,68,40,0
286.46863,286.59363,72,40,0
286.59363,286.71863,68,40,0
286.71863,286.84363,72,40,0
286.84363,286.96863,67,40,0
286.96863,287.09363,71,40,0
287.09363,287.21863,68,40,0
287.21863,287.34363,72,40,0
287.34363,287.46863,68,40,0
287.46863,287.59363,72,40,0
287.59363,287.71863,68,40,0
287.71863,287.84363,72,40,0
287.84363,287.96863,69,40,0
287.96863,288.09363,75,40,0
288.09363,288.21863,70,40,0
288.21863,288.34363,73,40,0
288.34363,288.46863,70,40,0
288.46863,288.59363,73,40,0
288.59363,288.71863,70,40,0
288.71863,288.84363,73,40,0
288.84363,288.96863,73,40,0
288.96863,289.09363,77,40,0
289.09363,289.21863,70,40,0
289.21863,289.34363,73,40,0
289.34363,289.46863,68,40,0
289.46863,289.59363,73,40,0
289.59363,289.71863,67,40,0
289.71863,289.84363,73,40,0
289.84363,289.96863,68,40,0
289.96863,290.09363,73,40,0
290.09363,290.21863,68,40,0
290.21863,290.34363,72,40,0
290.34363,290.46863,68,40,0
290.46863,290.59363,72,40,0
290.59363,290.71863,68,40,0
290.71863,290.84363,72,40,0
290.84363,290.96863,68,40,0
290.96863,291.09363,72,40,0
291.09363,291.21863,66,40,0
291.21863,291.34363,70,40,0
291.34363,291.46863,66,40,0
291.46863,291.59363,70,40,0
291.59363,291.71863,66,40,0
291.71863,291.84363,70,40,0
291.84363,291.96863,66,40,0
291.96863,292.09363,70,40,0
292.09363,292.21863,65,40,0
292.21863,292.34363,68,40,0
292.34363,292.46863,65,40,0
292.46863,292.59363,68,40,0
292.59363,292.71863,65,40,0
292.71863,292.84363,68,40,0
292.84363,292.96863,65,40,0
292.96863,293.09363,68,40,0
293.09363,293.21863,64,40,0
293.21863,293.34363,67,40,0
293.34363,293.46863,64,40,0
293.46863,293.59363,67,40,0
293.59363,293.71863,64,40,0
293.71863,293.84363,67,40,0
293.84363,293.96863,65,40,0
294.09363,294.21863,69,40,0
294.21863,294.34363,72,40,0
294.34363,294.46863,69,40,0
294.46863,294.59363,72,40,0
294.59363,294.71863,69,40,0
294.71863,294.84363,72,40,0
294.84363,294.96863,68,40,0
294.96863,295.09363,71,40,0
295.09363,295.21863,69,40,0
295.21863,295.34363,72,40,0
295.34363,295.46863,69,40,0
295.46863,295.59363,72,40,0
295.59363,295.71863,69,40,0
295.71863,295.84363,72,40,0
295.84363,295.96863,69,40,0
295.96863,296.09363,75,40,0
296.09363,296.21863,70,40,0
296.21863,296.34363,74,40,0
296.34363,296.46863,70,40,0
296.46863,296.59363,74,40,0
296.59363,296.71863,70,40,0
296.71863,296.84363,74,40,0
296.84363,296.96863,74,40,0
296.96863,297.09363,77,40,0
297.09363,297.21863,70,40,0
297.21863,297.34363,74,40,0
297.34363,297.46863,69,40,0
297.46863,297.59363,74,40,0
297.59363,297.71863,68,40,0
297.71863,297.84363,74,40,0
297.84363,297.96863,69,40,0
297.96863,298.09363,74,40,0
298.09363,298.21863,69,40,0
298.21863,298.34363,72,40,0
298.34363,298.46863,69,40,0
298.46863,298.59363,72,40,0
298.59363,298.71863,69,40,0
298.71863,298.84363,72,40,0
298.84363,298.96863,69,40,0
298.96863,299.09363,72,40,0
299.09363,299.21863,62,40,0
299.21863,299.34363,67,40,0
299.34363,299.46863,70,40,0
299.46863,299.59363,74,40,0
299.59363,299.71863,72,40,0
299.71863,299.84363,70,40,0
299.84363,299.96863,67,40,0
299.96863,300.09363,70,40,0
300.09363,300.21863,60,40,0
300.21863,300.34363,65,40,0
300.34363,300.46863,69,40,0
300.46863,300.59363,72,40,0
300.59363,300.71863,70,40,0
300.71863,300.84363,69,40,0
300.84363,300.96863,66,40,0
300.96863,301.09363,69,40,0
301.09363,301.21863,60,40,0
301.21863,301.34363,64,40,0
301.34363,301.46863,67,40,0
301.46863,301.59363,70,40,0
301.59363,301.71863,69,40,0
301.71863,301.84363,67,40,0
301.84363,301.96863,65,40,0
302.09363,302.21863,69,40,0
302.21863,302.34363,72,40,0
302.34363,302.46863,69,40,0
302.46863,302.59363,72,40,0
302.59363,302.71863,69,40,0
302.71863,302.84363,72,40,0
302.84363,302.96863,68,40,0
302.96863,303.09363,71,40,0
303.09363,303.21863,69,40,0
303.21863,303.34363,72,40,0
303.34363,303.46863,69,40,0
303.46863,303.59363,72,40,0
303.59363,303.71863,69,40,0
303.71863,303.84363,72,40,0
303.84363,303.96863,69,40,0
303.96863,304.09363,72,40,0
304.09363,304.21863,70,40,0
304.21863,304.34363,73,40,0
304.34363,304.46863,76,40,0
304.46863,304.59363,79,40,0
304.59363,304.71863,69,40,0
304.71863,304.84363,72,40,0
304.84363,304.96863,70,40,0
304.96863,305.09363,73,40,0
305.09363,305.21863,76,40,0
305.21863,305.34363,79,40,0
305.34363,305.46863,77,40,0
305.46863,305.59363,76,40,0
305.59363,305.71863,74,40,0
305.71863,305.84363,76,40,0
305.84363,306.0926,77,40,0
306.0926,306.21655,69,40,0
306.21655,306.3401,72,40,0
306.3401,306.46332,69,40,0
306.46332,306.58612,72,40,0
306.58612,306.70856,69,40,0
306.70856,306.8306,72,40,0
306.8306,306.9523,68,40,0
306.9523,307.07364,71,40,0
307.07364,307.19458,69,40,0
307.19458,307.31522,72,40,0
307.31522,307.4355,69,40,0
307.4355,307.55542,72,40,0
307.55542,307.67493,69,40,0
307.67493,307.79413,72,40,0
307.79413,307.91296,70,40,0
307.91296,308.03146,74,40,0
308.03146,308.14963,72,40,0
308.14963,308.26743,75,40,0
308.26743,308.38492,78,40,0
308.38492,308.50204,81,40,0
308.50204,308.6188,70,40,0
308.6188,308.73523,74,40,0
308.73523,308.85138,72,40,0
308.85138,308.96716,75,40,0
308.96716,309.08264,78,40,0
309.08264,309.19772,81,40,0
309.19772,309.31253,79,40,0
309.31253,309.427,77,40,0
309.427,309.54114,76,40,0
309.54114,309.65497,77,40,0
309.65497,309.76846,79,40,0
309.8817,309.99457,70,40,0
309.99457,310.10712,74,40,0
310.10712,310.21936,70,40,0
310.21936,310.3313,74,40,0
310.3313,310.44296,70,40,0
310.44296,310.55426,74,40,0
310.55426,310.6653,69,40,0
310.6653,310.77603,73,40,0
310.77603,310.88644,70,40,0
310.88644,310.99652,74,40,0
310.99652,311.10635,70,40,0
311.10635,311.21585,74,40,0
311.21585,311.32513,70,40,0
311.32513,311.43402,74,40,0
311.43402,311.5427,79,40,0
311.5427,311.6514,70,40,0
311.6514,311.7601,73,40,0
311.7601,311.86877,70,40,0
311.86877,311.97748,72,40,0
311.97748,312.08618,70,40,0
312.08618,312.1949,73,40,0
312.1949,312.30356,70,40,0
312.30356,312.41226,77,40,0
312.41226,312.52097,69,40,0
312.52097,312.62967,74,40,0
312.62967,312.73834,69,40,0
312.73834,312.84705,72,40,0
312.84705,312.95575,69,40,0
312.95575,313.06445,77,40,0
313.06445,313.17313,69,40,0
313.17313,313.28183,79,40,0
313.17313,313.28183,82,40,0
313.28183,313.39053,70,40,0
313.39053,313.49924,73,40,0
313.49924,313.6079,70,40,0
313.6079,313.7166,72,40,0
313.7166,313.82532,70,40,0
313.82532,313.93402,73,40,0
313.93402,314.0427,70,40,0
314.0427,314.1514,77,40,0
314.0427,314.1514,81,40,0
314.1514,314.2601,69,40,0
314.2601,314.3688,74,40,0
314.3688,314.47748,69,40,0
314.47748,314.58618,72,40,0
314.58618,314.6949,69,40,0
314.6949,314.8036,77,40,0
314.8036,314.91226,69,40,0
314.91226,315.02097,81,40,0
315.02097,315.12967,84,40,0
315.12967,315.23834,74,40,0
315.23834,315.34705,79,40,0
315.34705,315.45575,82,40,0
315.45575,315.56445,86,40,0
315.56445,315.67313,84,40,0
315.67313,315.78183,82,40,0
315.78183,315.89053,79,40,0
315.89053,315.99924,82,40,0
315.99924,316.1079,72,40,0
316.1079,316.2166,77,40,0
316.2166,316.32532,81,40,0
316.32532,316.43402,84,40,0
316.43402,316.5427,82,40,0
316.5427,316.6514,81,40,0
316.6514,316.7601,78,40,0
316.7601,316.8688,81,44,0
316.8688,316.97748,72,48,0
316.97748,317.08618,76,52,0
317.08618,317.1949,79,57,0
317.1949,317.3036,82,61,0
317.3036,317.41226,81,65,0
317.41226,317.52097,79,69,0
317.52097,317.62967,77,74,0
317.62967,317.73837,76,78,0
317.73837,317.84705,74,82,0
317.84705,317.95575,73,87,0
317.95575,318.06445,72,91,0
318.06445,318.17316,70,95,0
318.17316,318.28183,69,99,0
318.28183,318.39053,67,100,0
318.39053,318.51553,65,110,0
321.64053,321.76553,64,100,0
321.76553,321.89053,67,100,0
321.89053,322.01553,72,100,0
322.01553,322.14053,76,100,0
322.14053,322.26553,79,100,0
322.26553,322.39053,84,100,0
322.39053,322.51553,77,100,0
325.64053,325.76553,61,100,0
325.76553,325.89053,64,100,0
325.89053,326.01553,69,100,0
326.01553,326.14053,73,100,0
326.14053,326.26553,76,100,0
326.26553,326.39053,81,100,0
326.39053,326.51553,74,100,0
328.39053,328.76553,62,110,0
328.76553,328.82803,63,100,0
328.82803,328.89053,65,100,0
328.39053,328.89053,56,110,0
328.89053,329.26553,63,110,0
329.26553,329.32803,65,100,0
329.32803,329.39053,66,100,0
328.89053,329.39053,55,110,0
329.39053,329.51553,63,100,0
329.39053,329.51553,65,100,0
329.39053,329.64053,57,100,0
329.64053,329.76553,69,100,0
329.76553,329.89053,72,100,0
329.89053,330.01553,77,100,0
330.01553,330.14053,81,100,0
330.14053,330.26553,84,100,0
330.26553,330.39053,89,100,0
330.39053,330.51553,82,100,0
332.39053,332.64053,59,110,0
332.39053,332.64053,62,110,0
332.39053,332.64053,68,110,0
332.64053,332.76553,59,100,0
332.64053,332.76553,62,100,0
332.64053,332.76553,67,100,0
332.89053,333.01553,59,100,0
332.89053,333.01553,62,100,0
332.89053,333.01553,67,100,0
333.14053,333.26553,59,100,0
333.14053,333.26553,62,100,0
333.14053,333.26553,67,100,0
333.39053,333.51553,64,100,0
333.39053,333.51553,60,100,0
333.64053,333.76553,64,100,0
333.76553,333.89053,67,100,0
333.89053,334.01553,72,100,0
334.01553,334.14053,76,100,0
334.14053,334.26553,79,100,0
334.26553,334.39053,84,100,0
334.39053,334.64053,61,110,0
334.39053,334.64053,64,110,0
334.39053,334.64053,70,110,0
334.64053,334.76553,61,100,0
334.64053,334.76553,64,100,0
334.64053,334.76553,69,100,0
334.89053,335.01553,61,100,0
334.89053,335.01553,64,100,0
334.89053,335.01553,69,100,0
335.14053,335.26553,61,100,0
335.14053,335.26553,64,100,0
335.14053,335.26553,69,100,0
335.39053,335.51553,62,100,0
335.39053,335.51553,66,100,0
335.64053,335.76553,66,100,0
335.76553,335.89053,69,100,0
335.89053,336.01553,74,100,0
336.01553,336.14053,78,100,0
336.14053,336.26553,81,100,0
336.26553,336.39053,86,100,0
336.39053,336.64053,87,110,0
336.39053,336.64053,75,110,0
336.64053,336.76553,86,109,0
336.64053,336.76553,74,109,0
336.89053,337.14053,86,107,0
336.89053,337.14053,74,107,0
337.14053,337.26553,85,106,0
337.14053,337.26553,73,106,0
337.39053,337.64053,85,104,0
337.39053,337.64053,73,104,0
337.64053,337.76553,86,102,0
337.64053,337.76553,74,102,0
337.89053,338.14053,86,101,0
337.89053,338.14053,74,101,0
338.14053,338.26553,81,99,0
338.14053,338.26553,69,99,0
338.39053,338.64053,79,98,0
338.39053,338.64053,67,98,0
338.64053,338.76553,78,96,0
338.64053,338.76553,66,96,0
338.89053,339.14053,78,94,0
338.89053,339.14053,66,94,0
339.14053,339.26553,76,93,0
339.14053,339.26553,64,93,0
339.39053,339.64053,76,91,0
339.39053,339.64053,64,91,0
339.64053,339.76553,74,89,0
339.64053,339.76553,62,89,0
339.89053,340.01553,74,88,0
339.89053,340.01553,62,88,0
340.14053,340.26553,74,86,0
340.14053,340.26553,62,86,0
340.39053,340.64053,75,85,0
340.39053,340.64053,63,85,0
340.64053,340.76553,74,83,0
340.64053,340.76553,62,83,0
340.89053,341.14053,74,81,0
340.89053,341.14053,62,81,0
341.14053,341.26553,73,80,0
341.14053,341.26553,61,80,0
341.39053,341.64053,73,78,0
341.39053,341.64053,61,78,0
341.64053,341.76553,74,76,0
341.64053,341.76553,62,76,0
341.89053,342.14053,74,75,0
341.89053,342.14053,62,75,0
342.14053,342.26553,69,73,0
342.14053,342.26553,57,73,0
348.64053,348.76553,60,40,0
348.64053,348.76553,65,40,0
348.64053,348.76553,69,40,0
348.89053,349.14053,69,40,0
348.89053,349.14053,65,40,0
348.89053,349.14053,60,40,0
349.14053,349.39053,69,40,0
349.14053,349.39053,65,40,0
349.14053,349.39053,60,40,0
349.39053,349.64053,59,40,0
349.39053,349.64053,65,40,0
349.39053,349.64053,68,40,0
349.64053,349.76553,69,40,0
349.64053,349.76553,65,40,0
349.64053,349.76553,60,40,0
349.89053,350.14053,69,40,0
349.89053,350.14053,65,40,0
349.89053,350.14053,60,40,0
350.14053,350.39053,69,40,0
350.14053,350.39053,65,40,0
350.14053,350.39053,60,40,0
350.39053,350.64053,65,40,0
350.39053,350.64053,63,40,0
350.39053,350.64053,72,40,0
350.64053,350.76553,70,40,0
350.64053,350.76553,65,40,0
350.64053,350.76553,62,40,0
350.89053,351.14053,70,40,0
350.89053,351.14053,65,40,0
350.89053,351.14053,62,40,0
351.14053,351.39053,70,40,0
351.14053,351.39053,62,40,0
351.14053,351.39053,65,40,0
351.39053,351.64053,62,40,0
351.39053,351.64053,65,40,0
351.39053,351.64053,70,40,0
351.64053,351.89053,69,40,0
351.64053,351.89053,62,40,0
351.64053,351.89053,60,40,0
351.89053,352.14053,67,40,0
351.89053,352.14053,62,40,0
351.89053,352.14053,58,40,0
352.14053,352.39053,57,40,0
352.14053,352.39053,62,40,0
352.14053,352.39053,65,40,0
352.39053,352.64053,65,40,0
352.39053,352.64053,60,40,0
352.39053,352.64053,57,40,0
352.64053,352.76553,55,40,0
352.64053,352.76553,60,40,0
352.64053,352.76553,64,40,0
352.89053,353.14053,55,40,0
352.89053,353.14053,64,40,0
352.89053,353.14053,60,40,0
353.14053,353.39053,55,40,0
353.14053,353.39053,64,40,0
353.14053,353.39053,60,40,0
353.39053,353.64053,64,40,0
353.39053,353.64053,60,40,0
353.39053,353.64053,55,40,0
353.64053,353.89053,64,40,0
353.64053,353.89053,60,40,0
353.64053,353.89053,55,40,0
353.89053,354.14053,57,40,0
353.89053,354.14053,60,40,0
353.89053,354.14053,65,40,0
354.14053,354.39053,58,40,0
354.14053,354.39053,60,40,0
354.14053,354.39053,67,40,0
354.39053,354.64053,60,40,0
354.39053,354.64053,58,40,0
354.64053,354.76553,57,40,0
354.64053,354.76553,60,40,0
354.64053,354.76553,65,40,0
354.89053,355.14053,65,40,0
354.89053,355.14053,60,40,0
354.89053,355.14053,57,40,0
355.14053,355.39053,65,40,0
355.14053,355.39053,57,40,0
355.14053,355.39053,60,40,0
355.39053,355.64053,57,40,0
355.39053,355.64053,60,40,0
355.39053,355.64053,65,40,0
355.64053,355.89053,57,40,0
355.64053,355.89053,65,40,0
355.82803,355.89053,65,40,0
355.64053,355.89053,60,40,0
355.89053,356.26553,60,40,0
355.89053,356.26553,69,40,0
356.26553,356.39053,57,40,0
356.26553,356.39053,60,40,0
356.26553,356.39053,65,40,0
356.39053,356.64053,57,40,0
356.39053,356.64053,60,40,0
356.39053,356.64053,65,40,0
356.64053,356.76553,64,40,0
356.64053,356.76553,60,40,0
356.64053,356.76553,55,40,0
356.89053,357.14053,64,40,0
356.89053,357.14053,60,40,0
356.89053,357.14053,55,40,0
357.14053,357.39053,64,40,0
357.14053,357.39053,60,40,0
357.14053,357.39053,55,40,0
357.39053,357.64053,55,40,0
357.39053,357.64053,60,40,0
357.39053,357.64053,64,40,0
357.64053,357.89053,55,40,0
357.64053,357.89053,64,40,0
357.64053,357.89053,60,40,0
357.89053,358.14053,57,40,0
357.89053,358.14053,60,40,0
357.89053,358.14053,65,40,0
358.14053,358.39053,58,40,0
358.14053,358.39053,60,40,0
358.14053,358.39053,67,40,0
358.39053,358.64053,60,40,0
358.39053,358.64053,58,40,0
358.64053,358.76553,57,40,0
358.64053,358.76553,60,40,0
358.64053,358.76553,65,40,0
358.89053,359.14053,57,40,0
358.89053,359.14053,60,40,0
358.89053,359.14053,65,40,0
359.14053,359.39053,57,40,0
359.14053,359.39053,60,40,0
359.14053,359.39053,65,40,0
359.39053,359.51553,57,40,0
359.39053,359.51553,60,40,0
359.39053,359.51553,65,40,0
359.64053,359.89053,60,45,0
359.64053,359.89053,72,45,0
359.64053,359.89053,69,45,0
359.64053,359.89053,57,45,0
359.89053,360.14053,57,50,0
359.89053,360.14053,72,50,0
359.89053,360.14053,69,50,0
359.89053,360.14053,77,50,0
359.89053,360.14053,60,50,0
359.89053,360.14053,65,50,0
360.14053,360.39053,60,56,0
360.14053,360.39053,76,56,0
360.14053,360.39053,72,56,0
360.14053,360.39053,79,56,0
360.14053,360.39053,64,56,0
360.14053,360.39053,67,56,0
360.64053,360.89053,72,60,0
360.64053,360.89053,77,60,0
360.64053,360.89053,81,60,0
360.89053,361.14053,72,60,0
360.89053,361.14053,77,60,0
360.89053,361.14053,81,60,0
361.14053,361.39053,72,60,0
361.14053,361.39053,77,60,0
361.14053,361.39053,81,60,0
361.39053,361.64053,71,60,0
361.39053,361.64053,77,60,0
361.39053,361.64053,80,60,0
361.64053,361.76553,72,60,0
361.64053,361.76553,77,60,0
361.64053,361.76553,81,60,0
361.89053,362.14053,72,60,0
361.89053,362.14053,77,60,0
361.89053,362.14053,81,60,0
362.14053,362.39053,72,60,0
362.14053,362.39053,77,60,0
362.14053,362.39053,81,60,0
362.39053,362.64053,75,60,0
362.39053,362.64053,77,60,0
362.39053,362.64053,84,60,0
362.64053,362.76553,74,60,0
362.64053,362.76553,77,60,0
362.64053,362.76553,82,60,0
362.89053,363.14053,74,60,0
362.89053,363.14053,77,60,0
362.89053,363.14053,82,60,0
363.14053,363.39053,74,60,0
363.14053,363.39053,77,60,0
363.14053,363.39053,82,60,0
363.39053,363.64053,74,60,0
363.39053,363.64053,77,60,0
363.39053,363.64053,82,60,0
363.64053,363.89053,72,60,0
363.64053,363.89053,74,60,0
363.64053,363.89053,81,60,0
363.89053,364.14053,70,60,0
363.89053,364.14053,74,60,0
363.89053,364.14053,79,60,0
364.14053,364.39053,69,60,0
364.14053,364.39053,74,60,0
364.14053,364.39053,77,60,0
364.39053,364.64053,69,60,0
364.39053,364.64053,72,60,0
364.39053,364.64053,77,60,0
364.64053,364.76553,67,60,0
364.64053,364.76553,72,60,0
364.64053,364.76553,76,60,0
364.89053,365.14053,67,60,0
364.89053,365.14053,72,60,0
364.89053,365.14053,76,60,0
365.14053,365.39053,67,60,0
365.14053,365.39053,72,60,0
365.14053,365.39053,76,60,0
365.39053,365.64053,67,60,0
365.39053,365.64053,72,60,0
365.39053,365.64053,76,60,0
365.64053,365.89053,67,60,0
365.64053,365.89053,72,60,0
365.64053,365.89053,76,60,0
365.89053,366.14053,69,60,0
365.89053,366.14053,72,60,0
365.89053,366.14053,77,60,0
366.14053,366.39053,70,60,0
366.14053,366.39053,72,60,0
366.14053,366.39053,79,60,0
366.39053,366.64053,70,60,0
366.39053,366.64053,72,60,0
366.64053,366.76553,69,60,0
366.64053,366.76553,72,60,0
366.64053,366.76553,77,60,0
366.89053,367.14053,69,60,0
366.89053,367.14053,72,60,0
366.89053,367.14053,77,60,0
367.14053,367.39053,69,60,0
367.14053,367.39053,72,60,0
367.14053,367.39053,77,60,0
367.39053,367.64053,69,60,0
367.39053,367.64053,72,60,0
367.39053,367.64053,77,60,0
367.64053,367.89053,69,60,0
367.64053,367.89053,77,60,0
367.82803,367.89053,77,60,0
367.64053,367.89053,72,60,0
367.89053,368.26553,72,60,0
367.89053,368.26553,81,60,0
368.26553,368.39053,69,60,0
368.26553,368.39053,72,60,0
368.26553,368.39053,77,60,0
368.39053,368.64053,69,60,0
368.39053,368.64053,72,60,0
368.39053,368.64053,77,60,0
368.64053,368.76553,67,60,0
368.64053,368.76553,72,60,0
368.64053,368.76553,76,60,0
368.89053,369.14053,67,60,0
368.89053,369.14053,72,60,0
368.89053,369.14053,76,60,0
369.14053,369.39053,67,60,0
369.14053,369.39053,72,60,0
369.14053,369.39053,76,60,0
369.39053,369.64053,67,60,0
369.39053,369.64053,72,60,0
369.39053,369.64053,76,60,0
369.64053,369.89053,67,60,0
369.64053,369.89053,72,60,0
369.64053,369.89053,76,60,0
369.89053,370.14053,69,60,0
369.89053,370.14053,72,60,0
369.89053,370.14053,77,60,0
370.14053,370.39053,70,60,0
370.14053,370.39053,72,60,0
370.14053,370.39053,79,60,0
370.39053,370.64053,70,60,0
370.39053,370.64053,72,60,0
370.64053,370.76553,69,60,0
370.64053,370.76553,72,60,0
370.64053,370.76553,77,60,0
370.89053,371.14053,69,60,0
370.89053,371.14053,72,60,0
370.89053,371.14053,77,60,0
371.14053,371.39053,69,60,0
371.14053,371.39053,72,60,0
371.14053,371.39053,77,60,0
371.39053,371.64053,69,60,0
371.39053,371.64053,72,60,0
371.39053,371.64053,77,60,0
371.64053,371.76553,72,60,0
371.76553,371.89053,84,60,0
371.89053,372.01553,77,60,0
372.01553,372.14053,84,60,0
372.14053,372.26553,79,60,0
372.26553,372.39053,84,60,0
372.39053,372.51553,72,60,0
372.51553,372.64053,84,60,0
372.64053,372.76553,81,60,0
372.76553,372.89053,72,60,0
372.89053,373.01553,72,60,0
373.01553,373.14053,84,60,0
373.14053,373.26553,81,60,0
373.26553,373.39053,72,60,0
373.39053,373.51553,72,60,0
373.51553,373.64053,84,60,0
373.64053,373.76553,81,60,0
373.76553,373.89053,72,60,0
373.89053,374.01553,72,60,0
374.01553,374.14053,84,60,0
374.14053,374.26553,77,60,0
374.26553,374.39053,89,60,0
374.39053,374.51553,77,60,0
374.51553,374.64053,89,60,0
374.64053,374.76553,86,60,0
374.76553,374.89053,77,60,0
374.89053,375.01553,77,60,0
375.01553,375.14053,89,60,0
375.14053,375.26553,86,60,0
375.26553,375.39053,77,60,0
375.39053,375.51553,77,60,0
375.51553,375.64053,89,60,0
375.64053,375.76553,78,60,0
375.76553,375.89053,90,60,0
375.89053,376.01553,79,60,0
376.01553,376.14053,91,60,0
376.14053,376.26553,81,60,0
376.14053,376.26553,93,60,0
376.26553,376.39053,82,60,0
376.26553,376.39053,94,60,0
376.39053,376.51553,84,60,0
376.51553,376.64053,96,60,0
376.64053,376.76553,94,60,0
376.76553,376.89053,84,60,0
376.89053,377.01553,84,60,0
377.01553,377.14053,96,60,0
377.14053,377.26553,94,60,0
377.26553,377.39053,84,60,0
377.39053,377.51553,84,60,0
377.51553,377.64053,96,60,0
377.64053,377.76553,94,60,0
377.76553,377.89053,84,60,0
377.89053,378.01553,93,60,0
378.01553,378.14053,96,60,0
378.14053,378.26553,91,60,0
378.26553,378.39053,96,60,0
378.39053,378.51553,84,60,0
378.51553,378.64053,96,60,0
378.64053,378.76553,93,60,0
378.76553,378.89053,84,60,0
378.89053,379.01553,84,60,0
379.01553,379.14053,96,60,0
379.14053,379.26553,93,60,0
379.26553,379.39053,84,60,0
379.39053,379.51553,84,60,0
379.51553,379.64053,96,60,0
379.64053,379.76553,93,60,0
379.76553,379.89053,84,60,0
379.89053,380.01553,89,60,0
380.01553,380.14053,101,60,0
380.14053,380.26553,84,60,0
380.26553,380.39053,96,60,0
380.39053,380.51553,84,60,0
380.51553,380.64053,96,60,0
380.64053,380.76553,94,60,0
380.76553,380.89053,84,60,0
380.89053,381.01553,84,60,0
381.01553,381.14053,96,60,0
381.14053,381.26553,94,60,0
381.26553,381.39053,84,60,0
381.39053,381.51553,84,60,0
381.51553,381.64053,96,60,0
381.64053,381.76553,94,60,0
381.76553,381.89053,84,60,0
381.89053,382.01553,93,60,0
382.01553,382.14053,96,60,0
382.14053,382.26553,91,60,0
382.26553,382.39053,96,60,0
382.39053,382.51553,84,60,0
382.51553,382.64053,96,60,0
382.64053,382.76553,93,60,0
382.76553,382.89053,84,60,0
382.89053,383.01553,84,60,0
383.01553,383.14053,96,60,0
383.14053,383.26553,93,60,0
383.26553,383.39053,84,60,0
383.39053,383.51553,84,60,0
383.51553,383.64053,96,60,0
383.64053,383.76553,93,60,0
383.76553,383.89053,84,60,0
383.89053,384.01553,89,60,0
384.01553,384.14053,101,60,0
384.14053,384.26553,84,60,0
384.26553,384.39053,96,60,0
384.39053,384.51617,84,60,0
384.51617,384.64362,96,60,0
384.64362,384.77304,94,60,0
384.77304,384.90454,84,60,0
384.90454,385.03796,84,60,0
385.03796,385.1736,96,60,0
385.1736,385.31146,94,60,0
385.31146,385.45163,84,60,0
385.45163,385.5941,84,60,0
385.5941,385.73898,96,60,0
385.73898,385.88644,94,60,0
385.88644,386.03656,84,60,0
386.03656,386.18927,93,60,0
386.18927,386.34482,96,60,0
386.34482,386.50333,91,60,0
386.50333,386.6649,96,60,0
386.6649,388.29532,91,60,0
388.29532,388.62143,93,60,0
388.62143,388.9475,94,60,0
388.9475,389.2736,95,60,0
389.2736,391.2301,96,60,0
391.2301,391.8823,88,60,0
391.8823,392.0073,89,60,0
392.0073,392.1323,93,60,0
392.1323,392.2573,84,60,0
392.2573,392.3823,89,60,0
392.3823,392.5073,81,60,0
392.5073,392.6323,84,60,0
392.6323,392.7573,77,60,0
392.7573,392.8823,81,60,0
392.8823,393.0073,72,60,0
393.0073,393.1323,77,60,0
393.1323,393.2573,69,60,0
393.2573,393.3823,72,60,0
393.3823,393.5073,65,60,0
393.5073,393.6323,69,60,0
393.6323,393.7573,60,60,0
393.7573,393.8823,65,60,0
393.8823,394.0073,69,60,0
394.0073,394.1323,72,59,0
394.1323,394.2573,60,58,0
394.2573,394.3823,65,56,0
394.3823,394.5073,69,55,0
394.5073,394.6323,72,54,0
394.6323,394.7573,60,52,0
394.7573,394.8823,65,51,0
394.8823,395.0073,69,50,0
395.0073,395.1323,72,48,0
395.1323,395.2573,60,47,0
395.2573,395.3823,65,46,0
395.3823,395.5073,69,44,0
395.5073,395.6323,72,43,0
395.6323,395.7573,60,41,0
395.7573,395.8823,65,40,0
395.8823,396.0073,68,40,0
396.0073,396.1323,72,40,0
396.1323,396.2573,60,40,0
396.2573,396.3823,65,40,0
396.3823,396.5073,68,40,0
396.5073,396.6323,72,40,0
396.6323,396.7573,60,40,0
396.7573,396.8823,65,40,0
396.8823,397.0073,68,40,0
397.0073,397.1323,72,40,0
397.1323,397.2573,60,40,0
397.2573,397.3823,65,40,0
397.3823,397.5073,68,40,0
397.5073,397.6323,72,40,0
397.3823,397.6323,77,60,0
397.3823,397.6323,80,60,0
397.6323,397.7573,70,40,0
397.7573,397.8823,72,40,0
397.6323,397.8823,79,60,0
397.6323,397.8823,82,60,0
397.8823,398.0073,68,40,0
398.0073,398.1323,72,40,0
398.1323,398.2573,60,40,0
398.2573,398.3823,65,40,0
397.8823,398.3823,80,60,0
397.8823,398.3823,84,60,0
398.3823,398.5073,68,40,0
398.5073,398.6323,72,40,0
398.6323,398.7573,60,40,0
398.7573,398.8823,65,40,0
398.8823,399.0073,68,40,0
399.0073,399.1323,72,40,0
399.1323,399.2573,68,40,0
399.1323,399.2573,65,40,0
399.2573,399.3823,72,40,0
399.3823,399.5073,70,40,0
399.3823,399.5073,64,40,0
399.5073,399.6323,72,40,0
399.6323,399.7573,68,40,0
399.6323,399.7573,65,40,0
399.7573,399.8823,72,40,0
399.8823,400.0073,67,40,0
399.8823,400.0073,64,40,0
400.0073,400.1323,72,40,0
400.1323,400.2573,60,40,0
400.2573,400.3823,64,40,0
400.3823,400.5073,67,40,0
400.5073,400.6323,72,40,0
400.6323,400.7573,60,40,0
400.7573,400.8823,64,40,0
400.8823,401.0073,67,40,0
401.0073,401.1323,72,40,0
401.1323,401.2573,60,40,0
401.2573,401.3823,64,40,0
401.3823,401.5073,67,40,0
401.5073,401.6323,72,40,0
401.3823,401.6323,79,60,0
401.3823,401.6323,82,60,0
401.6323,401.7573,70,40,0
401.7573,401.8823,72,40,0
401.6323,401.8823,82,60,0
401.6323,401.8823,85,60,0
401.8823,402.0073,68,40,0
402.0073,402.1323,72,40,0
402.1323,402.2573,60,40,0
402.2573,402.3823,65,40,0
401.8823,402.3823,80,60,0
401.8823,402.3823,84,60,0
402.3823,402.5073,68,40,0
402.5073,402.6323,72,40,0
402.6323,402.7573,60,40,0
402.7573,402.8823,65,40,0
402.8823,403.0073,68,40,0
403.0073,403.1323,72,40,0
403.1323,403.2573,60,40,0
403.2573,403.3823,65,40,0
403.3823,403.5073,68,40,0
403.5073,403.6323,72,40,0
403.6323,403.7573,70,40,0
403.6323,403.7573,64,40,0
403.7573,403.8823,72,40,0
403.8823,404.0073,68,40,0
403.8823,404.0073,65,40,0
404.0073,404.1323,72,40,0
404.1323,404.2573,60,41,0
404.2573,404.3823,65,42,0
404.3823,404.5073,68,43,0
404.5073,404.6323,72,44,0
404.6323,404.7573,60,45,0
404.7573,404.8823,65,45,0
404.8823,405.0073,68,46,0
405.0073,405.1323,72,47,0
405.1323,405.2573,60,48,0
405.2573,405.3823,65,49,0
405.3823,405.5073,68,50,0
405.5073,405.6323,72,51,0
405.3823,405.6323,77,70,0
405.3823,405.6323,80,70,0
405.6323,405.7573,70,51,0
405.6323,405.7573,63,51,0
405.7573,405.8823,75,52,0
405.6323,405.8823,82,71,0
405.6323,405.8823,79,71,0
405.8823,406.0073,72,53,0
405.8823,406.0073,68,53,0
406.0073,406.1323,75,54,0
406.1323,406.2573,63,55,0
406.2573,406.3823,68,56,0
405.8823,406.3823,84,73,0
405.8823,406.3823,80,73,0
406.3823,406.5073,72,57,0
406.5073,406.6323,75,57,0
406.6323,406.7573,63,58,0
406.7573,406.8823,68,59,0
406.8823,407.0073,72,60,0
407.0073,407.1323,75,61,0
407.1323,407.2573,72,62,0
407.1323,407.2573,68,62,0
407.2573,407.3823,75,63,0
407.3823,407.5073,73,63,0
407.3823,407.5073,67,63,0
407.5073,407.6323,75,64,0
407.6323,407.7573,72,65,0
407.6323,407.7573,68,65,0
407.7573,407.8823,75,66,0
407.8823,408.0073,70,67,0
407.8823,408.0073,67,67,0
408.0073,408.1323,75,68,0
408.1323,408.2573,63,69,0
408.2573,408.3823,67,69,0
408.3823,408.5073,70,70,0
408.5073,408.6323,75,71,0
408.6323,408.7573,63,72,0
408.7573,408.8823,67,73,0
408.8823,409.0073,70,74,0
409.0073,409.1323,75,75,0
409.1323,409.2573,63,75,0
409.2573,409.3823,67,76,0
409.3823,409.5073,70,77,0
409.5073,409.6323,75,78,0
409.3823,409.6323,82,97,0
409.3823,409.6323,85,97,0
409.6323,409.7573,73,79,0
409.7573,409.8823,75,80,0
409.6323,409.8823,85,99,0
409.6323,409.8823,89,99,0
409.8823,410.0073,72,80,0
410.0073,410.1323,75,80,0
410.1323,410.2573,63,79,0
410.2573,410.3823,68,78,0
409.8823,410.3823,84,100,0
409.8823,410.3823,87,100,0
410.3823,410.5073,72,77,0
410.5073,410.6323,75,76,0
410.6323,410.7573,63,75,0
410.7573,410.8823,68,75,0
410.8823,411.0073,72,74,0
411.0073,411.1323,75,73,0
411.1323,411.2573,63,72,0
411.2573,411.3823,68,71,0
411.3823,411.5073,72,70,0
411.3823,411.5073,68,70,0
411.5073,411.6323,75,69,0
411.6323,411.7573,73,69,0
411.6323,411.7573,67,69,0
411.7573,411.8823,75,68,0
411.8823,412.0073,72,67,0
411.8823,412.0073,68,67,0
412.0073,412.1323,75,66,0
412.1323,412.2573,63,65,0
412.2573,412.3823,68,64,0
412.3823,412.5073,72,63,0
412.5073,412.6323,75,63,0
412.6323,412.7573,63,62,0
412.7573,412.8823,68,61,0
412.8823,413.0073,72,60,0
413.0073,413.1323,75,59,0
413.1323,413.2573,63,58,0
413.2573,413.3823,68,57,0
413.1323,413.3823,84,78,0
413.3823,413.5073,72,57,0
413.5073,413.6323,75,56,0
413.3823,413.6323,82,77,0
413.6323,413.7573,63,55,0
413.7573,413.8823,68,54,0
413.6323,413.8823,80,75,0
413.8823,414.0073,73,53,0
414.0073,414.1323,68,52,0
414.1323,414.2573,65,51,0
414.2573,414.3823,68,51,0
413.8823,414.3823,77,73,0
414.3823,414.5073,73,50,0
414.5073,414.6323,77,49,0
414.6323,414.7573,65,48,0
414.7573,414.8823,68,47,0
414.8823,415.0073,73,46,0
415.0073,415.1323,77,45,0
415.1323,415.2573,65,45,0
415.2573,415.3823,70,44,0
415.3823,415.5073,73,43,0
415.5073,415.6323,77,42,0
415.6323,415.7573,65,41,0
415.7573,415.8823,70,40,0
415.8823,416.0073,73,40,0
416.0073,416.1323,75,40,0
416.1323,416.2573,63,40,0
416.2573,416.3823,70,40,0
416.3823,416.5073,73,40,0
416.5073,416.6323,75,40,0
416.6323,416.7573,63,40,0
416.7573,416.8823,70,40,0
416.8823,417.0073,72,40,0
417.0073,417.1323,75,40,0
417.1323,417.2573,63,40,0
417.2573,417.3823,68,40,0
417.1323,417.3823,84,60,0
417.3823,417.5073,72,40,0
417.5073,417.6323,76,40,0
417.3823,417.6323,85,60,0
417.6323,417.7573,63,40,0
417.7573,417.8823,68,40,0
417.6323,417.8823,86,60,0
417.8823,418.0073,70,40,0
418.0073,418.1323,75,40,0
418.1323,418.2573,63,40,0
418.2573,418.3823,68,40,0
418.3823,418.5073,70,40,0
418.5073,418.6323,75,40,0
418.6323,418.7573,63,40,0
418.7573,418.8823,68,40,0
418.8823,419.0073,70,40,0
419.0073,419.1323,75,40,0
419.1323,419.2573,63,40,0
419.2573,419.3823,67,40,0
419.3823,419.5073,70,40,0
419.5073,419.6323,75,40,0
419.6323,419.7573,63,40,0
419.7573,419.8823,67,40,0
417.8823,419.8823,87,60,0
419.8823,420.0073,72,40,0
420.0073,420.1323,75,40,0
420.1323,420.2573,63,40,0
420.2573,420.3823,68,40,0
419.8823,420.3823,84,60,0
420.3823,420.5073,72,40,0
420.5073,420.6323,75,40,0
420.6323,420.7573,63,40,0
420.7573,420.8823,68,40,0
420.8823,421.0073,71,40,0
421.0073,421.1323,75,40,0
421.1323,421.2573,63,40,0
421.2573,421.3823,68,40,0
421.3823,421.5073,71,40,0
421.5073,421.6323,75,40,0
421.6323,421.7573,63,40,0
421.7573,421.8823,68,40,0
421.8823,422.0073,70,40,0
422.0073,422.1323,75,40,0
422.1323,422.2573,63,40,0
422.2573,422.3823,68,40,0
422.3823,422.5073,70,40,0
422.5073,422.6323,75,40,0
422.6323,422.7573,63,40,0
422.7573,422.8823,68,40,0
422.8823,423.0073,70,40,0
423.0073,423.1323,75,40,0
423.1323,423.2573,63,40,0
423.2573,423.3823,67,40,0
423.3823,423.5073,70,40,0
423.5073,423.6323,75,40,0
423.6323,423.7573,63,40,0
423.7573,423.8823,67,40,0
423.8823,424.0073,72,40,0
424.0073,424.1323,75,42,0
424.1323,424.2573,63,45,0
424.2573,424.3823,68,48,0
424.3823,424.5073,72,50,0
424.5073,424.6323,75,53,0
424.6323,424.7573,63,56,0
424.7573,424.8823,68,59,0
424.8823,425.0073,72,61,0
425.0073,425.1323,75,64,0
425.1323,425.2573,63,67,0
425.2573,425.3823,68,69,0
425.1323,425.3823,80,87,0
425.1323,425.3823,84,87,0
425.3823,425.5073,72,72,0
425.5073,425.6323,75,75,0
425.3823,425.6323,80,92,0
425.3823,425.6323,84,92,0
425.6323,425.7573,63,78,0
425.7573,425.8823,68,80,0
425.6323,425.8823,80,98,0
425.6323,425.8823,85,98,0
425.8823,426.0073,72,80,0
426.0073,426.1323,76,80,0
426.1323,426.2573,64,80,0
426.2573,426.3823,67,80,0
425.8823,426.3823,84,100,0
425.8823,426.3823,82,100,0
425.8823,426.3823,79,100,0
426.3823,426.5073,72,80,0
426.5073,426.6323,76,80,0
426.3823,426.6323,79,100,0
426.6323,426.7573,64,80,0
426.7573,426.8823,67,80,0
426.8823,427.0073,72,80,0
427.0073,427.1323,76,80,0
427.1323,427.2573,64,80,0
427.2573,427.3823,67,80,0
427.3823,427.5073,72,80,0
427.5073,427.6323,76,80,0
427.6323,427.7573,64,80,0
427.7573,427.8823,67,80,0
427.8823,428.0073,72,80,0
428.0073,428.1323,77,80,0
428.1323,428.2573,65,80,0
428.2573,428.3823,68,80,0
428.3823,428.5073,72,80,0
428.5073,428.6323,77,80,0
428.6323,428.7573,65,80,0
428.7573,428.8823,68,80,0
428.8823,429.0073,72,80,0
429.0073,429.1323,77,80,0
429.1323,429.2573,65,80,0
429.2573,429.3823,68,80,0
429.1323,429.3823,80,100,0
429.1323,429.3823,84,100,0
429.3823,429.5073,72,80,0
429.5073,429.6323,77,80,0
429.3823,429.6323,80,100,0
429.3823,429.6323,84,100,0
429.6323,429.7573,65,80,0
429.7573,429.8823,68,80,0
429.6323,429.8823,80,100,0
429.6323,429.8823,85,100,0
429.8823,430.0073,72,80,0
430.0073,430.1323,76,80,0
430.1323,430.2573,64,80,0
430.2573,430.3823,67,80,0
429.8823,430.3823,84,100,0
429.8823,430.3823,82,100,0
429.8823,430.3823,79,100,0
430.3823,430.5073,72,80,0
430.5073,430.6323,76,80,0
430.3823,430.6323,79,100,0
430.6323,430.7573,64,80,0
430.7573,430.8823,67,80,0
430.8823,431.0073,72,80,0
431.0073,431.1323,76,80,0
431.1323,431.2573,64,80,0
431.2573,431.3823,67,80,0
431.3823,431.5073,72,80,0
431.5073,431.6323,76,80,0
431.6323,431.7573,64,80,0
431.7573,431.8823,67,80,0
431.8823,432.0073,72,80,0
432.0073,432.1323,77,81,0
432.1323,432.2573,65,82,0
432.2573,432.3823,68,84,0
432.3823,432.5073,72,85,0
432.5073,432.6323,77,86,0
432.6323,432.7573,65,88,0
432.7573,432.8823,68,89,0
432.8823,433.0073,72,90,0
433.0073,433.1323,77,92,0
433.1323,433.2573,65,93,0
433.2573,433.3823,68,94,0
433.1323,433.3823,84,113,0
433.3823,433.5073,72,96,0
433.5073,433.6323,77,97,0
433.3823,433.6323,84,116,0
433.6323,433.7573,65,99,0
433.7573,433.8823,68,100,0
433.6323,433.8823,84,119,0
433.8823,434.0073,73,100,0
434.0073,434.1323,77,100,0
433.8823,434.1323,85,120,0
434.1323,434.2573,65,100,0
434.2573,434.3823,68,100,0
434.3823,434.5073,73,100,0
434.5073,434.6323,77,100,0
434.6323,434.7573,65,100,0
434.7573,434.8823,68,100,0
434.8823,435.0073,73,100,0
435.0073,435.1323,78,100,0
435.1323,435.2573,66,100,0
435.2573,435.3823,69,100,0
435.3823,435.5073,73,100,0
435.5073,435.6323,78,100,0
435.6323,435.7573,66,100,0
435.3823,435.7573,81,100,0
435.7573,435.8823,83,120,0
435.7573,435.8823,69,100,0
435.8823,436.0073,73,100,0
436.0073,436.1323,77,100,0
435.8823,436.1323,85,120,0
436.1323,436.2573,65,100,0
436.2573,436.3823,68,100,0
436.3823,436.5073,73,100,0
436.5073,436.6323,77,100,0
436.6323,436.7573,65,100,0
436.7573,436.8823,68,100,0
436.8823,437.0073,73,100,0
437.0073,437.1323,78,100,0
437.1323,437.2573,66,100,0
437.2573,437.3823,69,100,0
437.3823,437.5073,73,100,0
437.5073,437.6323,78,100,0
437.6323,437.7573,66,100,0
437.3823,437.7573,81,100,0
437.7573,437.8823,83,120,0
437.7573,437.8823,69,100,0
437.8823,438.0073,73,100,0
438.0073,438.1323,77,98,0
437.8823,438.1323,85,120,0
438.1323,438.2573,65,95,0
438.2573,438.3823,68,92,0
438.3823,438.5073,73,90,0
438.5073,438.6323,77,87,0
438.6323,438.7573,65,84,0
438.7573,438.8823,68,81,0
438.8823,439.0073,73,79,0
439.0073,439.1323,77,76,0
439.1323,439.2573,65,73,0
439.2573,439.3823,68,71,0
439.3823,439.5073,72,68,0
439.5073,439.6323,77,65,0
439.6323,439.7573,65,62,0
439.7573,439.8823,68,60,0
439.8823,440.0073,74,60,0
440.0073,440.1323,77,60,0
440.1323,440.2573,65,60,0
440.2573,440.3823,67,60,0
440.3823,440.5073,74,60,0
440.5073,440.6323,77,60,0
440.6323,440.7573,65,60,0
440.7573,440.8823,67,60,0
440.8823,441.0073,74,60,0
441.0073,441.1323,77,60,0
440.3823,441.1323,86,80,0
441.1323,441.2573,65,60,0
441.2573,441.3823,67,60,0
441.1323,441.3823,86,80,0
441.3823,441.5073,74,60,0
441.5073,441.6323,77,60,0
441.3823,441.6323,88,80,0
441.6323,441.7573,65,60,0
441.7573,441.8823,67,60,0
441.6323,441.8823,89,80,0
441.8823,442.0073,72,60,0
442.0073,442.1323,76,59,0
441.8823,442.1323,88,80,0
442.1323,442.2573,64,58,0
442.2573,442.3823,67,56,0
442.3823,442.5073,72,55,0
442.5073,442.6323,76,54,0
442.6323,442.7573,64,52,0
442.7573,442.8823,67,51,0
442.8823,443.0073,72,50,0
443.0073,443.1323,76,48,0
443.1323,443.2573,64,47,0
443.2573,443.3823,67,46,0
443.1323,443.3823,86,67,0
443.3823,443.5073,72,44,0
443.5073,443.6323,76,43,0
443.3823,443.6323,84,64,0
443.6323,443.7573,64,41,0
443.7573,443.8823,67,40,0
443.6323,443.8823,83,61,0
443.8823,444.0073,72,40,0
444.0073,444.1323,77,40,0
443.8823,444.1323,81,60,0
444.1323,444.2573,65,40,0
444.2573,444.3823,69,40,0
444.3823,444.5073,72,40,0
444.5073,444.6323,77,40,0
444.6323,444.7573,65,40,0
444.7573,444.8823,69,40,0
444.8823,445.0073,74,40,0
445.0073,445.1323,77,40,0
445.1323,445.2573,65,40,0
445.2573,445.3823,69,40,0
445.3823,445.5073,74,40,0
445.5073,445.6323,77,40,0
445.6323,445.7573,65,40,0
445.7573,445.8823,69,40,0
445.3823,445.8823,81,60,0
445.8823,446.0073,74,40,0
446.0073,446.1323,77,40,0
445.8823,446.1323,83,60,0
446.1323,446.2573,65,40,0
446.2573,446.3823,71,40,0
446.3823,446.5073,74,40,0
446.5073,446.6323,77,40,0
446.6323,446.7573,65,40,0
446.7573,446.8823,71,40,0
446.8823,447.0073,74,40,0
447.0073,447.1323,77,40,0
447.1323,447.2573,65,40,0
447.2573,447.3823,71,40,0
447.3823,447.5073,74,40,0
447.5073,447.6323,77,40,0
447.6323,447.7573,65,40,0
447.7573,447.8823,71,40,0
447.8823,448.0073,72,40,0
448.0073,448.1323,76,40,0
448.1323,448.2573,64,40,0
448.2573,448.3823,67,40,0
447.8823,448.3823,84,60,0
448.3823,448.5073,72,40,0
448.5073,448.6323,76,40,0
448.6323,448.7573,64,40,0
448.7573,448.8823,67,40,0
448.8823,449.0073,72,40,0
449.0073,449.1323,76,40,0
449.1323,449.2573,64,40,0
449.2573,449.3823,67,40,0
449.3823,449.5073,72,40,0
449.5073,449.6323,76,40,0
449.6323,449.7573,64,40,0
449.7573,449.8823,67,40,0
449.8823,450.0073,71,40,0
450.0073,450.1323,77,40,0
450.1323,450.2573,65,40,0
450.2573,450.3823,67,40,0
450.3823,450.5073,71,40,0
450.5073,450.6323,77,40,0
450.6323,450.7573,65,40,0
450.7573,450.8823,67,40,0
450.8823,451.0073,70,40,0
451.0073,451.1323,72,40,0
451.1323,451.2573,60,40,0
451.2573,451.3823,67,40,0
451.3823,451.5073,70,40,0
451.5073,451.6323,72,40,0
451.6323,451.7573,60,40,0
451.7573,451.8823,67,40,0
451.8823,452.0073,69,40,0
452.0073,452.1323,72,40,0
452.1323,452.2573,60,40,0
452.2573,452.3823,65,40,0
452.3823,452.5073,69,40,0
452.5073,452.6323,72,40,0
452.6323,452.7573,60,40,0
452.7573,452.8823,65,40,0
452.8823,453.0073,69,40,0
453.0073,453.1323,72,40,0
453.1323,453.2573,60,40,0
453.2573,453.3823,65,40,0
453.3823,453.5073,69,40,0
453.5073,453.6323,72,40,0
453.3823,453.6323,77,60,0
453.6323,453.7573,67,40,0
453.7573,453.8823,72,40,0
453.6323,453.8823,76,60,0
453.6323,453.8823,79,60,0
453.8823,454.0073,69,40,0
454.0073,454.1323,72,40,0
454.1323,454.2573,60,40,0
454.2573,454.3823,65,40,0
453.8823,454.3823,77,60,0
453.8823,454.3823,81,60,0
454.3823,454.5073,69,40,0
454.5073,454.6323,72,40,0
454.6323,454.7573,60,40,0
454.7573,454.8823,65,40,0
454.8823,455.0073,69,40,0
455.0073,455.1323,72,40,0
455.1323,455.2573,69,40,0
455.1323,455.2573,65,40,0
455.2573,455.3823,72,40,0
455.3823,455.5073,70,40,0
455.3823,455.5073,64,40,0
455.5073,455.6323,72,40,0
455.6323,455.7573,69,40,0
455.6323,455.7573,65,40,0
455.7573,455.8823,72,40,0
455.8823,456.0073,64,40,0
455.8823,456.0073,67,40,0
456.0073,456.1323,72,40,0
456.1323,456.2573,60,40,0
456.2573,456.3823,64,40,0
456.3823,456.5073,67,40,0
456.5073,456.6323,72,40,0
456.6323,456.7573,60,40,0
456.7573,456.8823,64,40,0
456.8823,457.0073,67,40,0
457.0073,457.1323,72,40,0
457.1323,457.2573,60,40,0
457.2573,457.3823,64,40,0
457.3823,457.5073,67,40,0
457.5073,457.6323,72,40,0
457.3823,457.6323,82,60,0
457.3823,457.6323,79,60,0
457.6323,457.7573,70,40,0
457.7573,457.8823,72,40,0
457.6323,457.8823,82,60,0
457.6323,457.8823,86,60,0
457.8823,458.0073,69,40,0
458.0073,458.1323,72,40,0
458.1323,458.2573,60,40,0
458.2573,458.3823,65,40,0
457.8823,458.3823,81,60,0
457.8823,458.3823,84,60,0
458.3823,458.5073,69,40,0
458.5073,458.6323,72,40,0
458.6323,458.7573,60,40,0
458.7573,458.8823,65,40,0
458.8823,459.0073,69,40,0
459.0073,459.1323,72,40,0
459.1323,459.2573,60,40,0
459.2573,459.3823,65,40,0
459.3823,459.5073,69,40,0
459.5073,459.6323,72,40,0
459.6323,459.7573,70,40,0
459.6323,459.7573,64,40,0
459.7573,459.8823,72,40,0
459.8823,460.0073,69,40,0
459.8823,460.0073,65,40,0
460.0073,460.1323,72,41,0
460.1323,460.2573,60,42,0
460.2573,460.3823,65,43,0
460.3823,460.5073,69,45,0
460.5073,460.6323,72,46,0
460.6323,460.7573,60,47,0
460.7573,460.8823,65,49,0
460.8823,461.0073,69,50,0
461.0073,461.1323,72,51,0
461.1323,461.2573,60,53,0
461.2573,461.3823,65,54,0
461.3823,461.5073,69,55,0
461.5073,461.6323,72,56,0
461.3823,461.6323,77,75,0
461.3823,461.6323,81,75,0
461.6323,461.7573,70,58,0
461.7573,461.8823,72,59,0
461.6323,461.8823,79,78,0
461.6323,461.8823,82,78,0
461.8823,462.0073,69,60,0
462.0073,462.1323,72,62,0
462.1323,462.2573,60,63,0
462.2573,462.3823,65,64,0
461.8823,462.3823,81,80,0
461.8823,462.3823,84,80,0
462.3823,462.5073,69,66,0
462.5073,462.6323,72,67,0
462.6323,462.7573,60,68,0
462.7573,462.8823,65,69,0
462.8823,463.0073,69,71,0
463.0073,463.1323,72,72,0
463.1323,463.2573,69,73,0
463.2573,463.3823,72,75,0
463.3823,463.5073,70,76,0
463.5073,463.6323,74,77,0
463.6323,463.7573,67,79,0
463.7573,463.8823,76,80,0
463.8823,464.0073,69,80,0
464.0073,464.1323,77,80,0
464.1323,464.2573,65,79,0
464.2573,464.3823,69,78,0
464.3823,464.5073,72,77,0
464.5073,464.6323,77,76,0
464.6323,464.7573,65,75,0
464.7573,464.8823,69,75,0
464.8823,465.0073,72,74,0
465.0073,465.1323,77,73,0
465.1323,465.2573,69,72,0
465.2573,465.3823,77,71,0
465.1323,465.3823,81,92,0
465.1323,465.3823,89,92,0
465.3823,465.5073,72,70,0
465.5073,465.6323,76,69,0
465.3823,465.6323,88,90,0
465.3823,465.6323,84,90,0
465.6323,465.7573,70,69,0
465.7573,465.8823,74,68,0
465.6323,465.8823,86,89,0
465.6323,465.8823,82,89,0
465.8823,466.0073,69,67,0
466.0073,466.1323,72,66,0
466.1323,466.2573,60,65,0
466.2573,466.3823,65,64,0
465.8823,466.3823,81,87,0
465.8823,466.3823,84,87,0
466.3823,466.5073,69,63,0
466.5073,466.6323,72,63,0
466.6323,466.7573,60,62,0
466.7573,466.8823,65,61,0
466.8823,467.0073,69,60,0
467.0073,467.1323,72,59,0
467.1323,467.2573,69,58,0
467.1323,467.2573,65,58,0
467.2573,467.3823,72,57,0
467.3823,467.5073,70,57,0
467.3823,467.5073,64,57,0
467.5073,467.6323,72,56,0
467.6323,467.7573,67,55,0
467.6323,467.7573,64,55,0
467.7573,467.8823,72,54,0
467.8823,468.0073,69,53,0
467.8823,468.0073,65,53,0
468.0073,468.1323,72,52,0
468.1323,468.2573,60,51,0
468.2573,468.3823,65,51,0
468.3823,468.5073,69,50,0
468.5073,468.6323,72,49,0
468.6323,468.7573,60,48,0
468.7573,468.8823,65,47,0
468.8823,469.0073,69,46,0
469.0073,469.1323,72,45,0
469.1323,469.2573,60,45,0
469.2573,469.3823,65,44,0
469.3823,469.5073,69,43,0
469.5073,469.6323,72,42,0
469.3823,469.6323,77,63,0
469.3823,469.6323,81,63,0
469.6323,469.7573,70,41,0
469.7573,469.8823,72,40,0
469.6323,469.8823,79,61,0
469.6323,469.8823,82,61,0
469.8823,470.0073,69,40,0
470.0073,470.1323,72,40,0
470.1323,470.2573,60,40,0
470.2573,470.3823,65,40,0
469.8823,470.3823,81,60,0
469.8823,470.3823,84,60,0
470.3823,470.5073,69,40,0
470.5073,470.6323,72,40,0
470.6323,470.7573,60,40,0
470.7573,470.8823,65,40,0
470.8823,471.0073,69,40,0
471.0073,471.1323,72,40,0
471.1323,471.2573,69,40,0
471.2573,471.3823,72,40,0
471.3823,471.5073,70,40,0
471.5073,471.6323,74,40,0
471.6323,471.7573,67,40,0
471.7573,471.8823,76,40,0
471.8823,472.0073,69,40,0
472.0073,472.1323,77,40,0
472.1323,472.2573,65,40,0
472.2573,472.3823,69,40,0
472.3823,472.5073,72,40,0
472.5073,472.6323,77,40,0
472.6323,472.7573,65,40,0
472.7573,472.8823,69,40,0
472.8823,473.0073,72,40,0
473.0073,473.1323,77,40,0
473.1323,473.2573,69,40,0
473.2573,473.3823,77,40,0
473.1323,473.3823,81,60,0
473.1323,473.3823,89,60,0
473.3823,473.5073,72,40,0
473.5073,473.6323,76,40,0
473.3823,473.6323,88,60,0
473.3823,473.6323,84,60,0
473.6323,473.7573,70,40,0
473.7573,473.8823,74,40,0
473.6323,473.8823,86,60,0
473.6323,473.8823,82,60,0
473.8823,474.0073,69,40,0
474.0073,474.1323,72,40,0
474.1323,474.2573,60,40,0
474.2573,474.3823,65,40,0
473.8823,474.3823,81,60,0
473.8823,474.3823,84,60,0
474.3823,474.5073,69,40,0
474.5073,474.6323,72,40,0
474.6323,474.7573,60,40,0
474.7573,474.8823,65,40,0
474.8823,475.0073,69,40,0
475.0073,475.1323,72,40,0
475.1323,475.2573,69,40,0
475.1323,475.2573,65,40,0
475.2573,475.3823,72,40,0
475.3823,475.5073,70,40,0
475.3823,475.5073,64,40,0
475.5073,475.6323,72,40,0
475.6323,475.7573,67,40,0
475.6323,475.7573,64,40,0
475.7573,475.8823,72,40,0
475.8823,476.0073,69,40,0
475.8823,476.0073,65,40,0
476.0073,476.1323,72,40,0
476.1323,476.2573,60,40,0
476.2573,476.3823,65,40,0
476.3823,476.5073,69,40,0
476.5073,476.6323,72,40,0
476.6323,476.7573,60,40,0
476.7573,476.8823,65,40,0
476.8823,477.0073,69,40,0
477.0073,477.1323,72,40,0
477.1323,477.2573,69,40,0
477.1323,477.2573,65,40,0
477.2573,477.3823,72,40,0
477.3823,477.5073,70,40,0
477.3823,477.5073,64,40,0
477.5073,477.6323,72,40,0
477.6323,477.7573,67,40,0
477.6323,477.7573,64,40,0
477.7573,477.8823,72,40,0
477.8823,478.0073,69,40,0
477.8823,478.0073,65,40,0
478.0073,478.1323,72,40,0
478.1323,478.2573,60,40,0
478.2573,478.3823,65,40,0
478.3823,478.5073,69,40,0
478.5073,478.6323,72,40,0
478.6323,478.7573,60,40,0
478.7573,478.8823,65,40,0
478.8823,479.0073,69,40,0
479.0073,479.1323,72,40,0
479.1323,479.2573,69,40,0
479.1323,479.2573,65,40,0
479.2573,479.3823,72,40,0
479.3823,479.5073,70,40,0
479.3823,479.5073,64,40,0
479.5073,479.6323,72,40,0
479.6323,479.7573,67,40,0
479.6323,479.7573,64,40,0
479.7573,479.8823,72,40,0
479.8823,480.0073,65,40,0
480.0073,480.1323,69,40,0
480.1323,480.2573,57,40,0
480.2573,480.3823,60,40,0
480.3823,480.5073,65,40,0
480.5073,480.6323,69,40,0
480.6323,480.7573,57,40,0
480.7573,480.8823,60,40,0
480.8823,481.0073,65,40,0
481.0073,481.1323,69,40,0
481.1323,481.2573,57,40,0
481.2573,481.3823,60,40,0
481.3823,481.5073,65,40,0
481.5073,481.6323,69,40,0
481.6323,481.7573,57,40,0
481.7573,481.8823,60,40,0
481.8823,482.0073,65,40,0
482.0073,482.1323,68,44,0
482.1323,482.2573,56,48,0
482.2573,482.3823,60,52,0
482.3823,482.5073,65,57,0
482.5073,482.6323,68,61,0
482.6323,482.7573,56,65,0
482.7573,482.8823,60,69,0
482.8823,483.0073,65,74,0
483.0073,483.1323,68,78,0
483.1323,483.2573,60,82,0
483.2573,483.3823,65,87,0
483.3823,483.5073,68,91,0
483.5073,483.6323,72,95,0
483.6323,483.7573,60,99,0
483.7573,483.8823,65,100,0
483.8823,483.9448,72,100,0
483.9448,484.0073,77,100,0
484.0073,484.0698,80,100,0
484.0698,484.7573,84,100,0
484.7573,484.8823,82,60,0
484.8823,485.2573,68,60,0
485.2573,485.3823,70,60,0
485.3823,485.7573,67,60,0
485.7573,485.8823,68,60,0
485.8823,485.93228,65,60,0
485.93228,485.9823,67,60,0
485.9823,486.0323,65,60,0
486.0323,486.08228,64,60,0
486.08228,486.2573,65,60,0
486.2573,486.3823,66,60,0
486.3823,486.43228,63,60,0
486.43228,486.4823,65,60,0
486.4823,486.5323,63,60,0
486.5323,486.58228,62,60,0
486.58228,486.7573,63,60,0
486.7573,486.8823,65,60,0
486.8823,486.93228,61,60,0
486.93228,486.9823,63,60,0
486.9823,487.0323,61,60,0
487.0323,487.08228,60,60,0
487.08228,487.2573,61,60,0
487.2573,487.3823,63,60,0
487.3823,487.43228,60,60,0
487.43228,487.4823,61,60,0
487.4823,487.5323,60,60,0
487.5323,487.58228,59,60,0
487.58228,487.7573,60,60,0
487.7573,487.8823,61,60,0
490.3823,490.5073,67,110,0
490.3823,490.5073,70,110,0
490.3823,490.5073,73,110,0
491.1948,491.2573,72,60,0
491.2573,491.3198,73,60,0
491.3198,491.3823,75,60,0
491.3823,491.7573,73,60,0
491.7573,491.8823,72,60,0
491.8823,492.04895,72,60,0
492.04895,492.21564,80,70,0
492.21564,492.3823,79,60,0
492.3823,492.54895,77,60,0
492.54895,492.71564,72,60,0
492.71564,492.8823,68,60,0
492.8823,493.04895,67,60,0
493.04895,493.21564,75,70,0
493.21564,493.3823,72,60,0
493.3823,493.54895,73,60,0
493.54895,493.71564,70,60,0
493.71564,493.8823,67,60,0
494.04895,494.21564,56,60,0
494.21564,494.3823,58,60,0
494.3823,494.54895,60,60,0
494.54895,494.71564,58,60,0
494.71564,494.8823,56,60,0
493.8823,494.8823,65,70,0
494.8823,495.3823,61,60,0
495.3823,495.6323,60,60,0
495.6323,495.8823,58,60,0
494.8823,495.8823,64,70,0
496.04895,496.21564,56,40,0
496.21564,496.3823,58,40,0
496.3823,496.54895,60,40,0
496.54895,496.71564,58,40,0
496.71564,496.8823,56,40,0
495.8823,496.8823,65,50,0
496.8823,497.3823,61,40,0
497.3823,497.6323,60,40,0
497.6323,497.8823,58,40,0
496.8823,497.8823,64,50,0
497.8823,498.3823,56,40,0
497.8823,498.3823,65,40,0
498.8823,499.3823,65,40,0
498.8823,499.3823,60,40,0
498.8823,499.3823,56,40,0
499.8823,500.8823,56,50,0
499.8823,500.8823,60,50,0
499.8823,500.8823,65,50,0
6.0,6.375,58,60,0
6.375,6.5,60,68,0
6.5,6.875,56,70,0
6.875,7.0,58,79,0
7.0,7.375,54,81,0
7.375,7.5,56,89,0
7.5,7.875,53,92,0
7.875,8.0,55,100,0
8.0,8.125,52,100,0
264.94113,265.31613,58,60,0
265.31613,265.44113,60,68,0
265.44113,265.81613,56,70,0
265.81613,265.94113,58,79,0
265.94113,266.31613,54,81,0
266.31613,266.44113,56,89,0
266.44113,266.81613,53,92,0
266.81613,266.94113,55,100,0
266.94113,267.06613,52,100,0
318.64053,318.76553,53,100,0
318.89053,319.01553,53,100,0
319.14053,319.26553,53,100,0
319.39053,319.64053,52,110,0
319.64053,319.76553,53,100,0
319.89053,320.01553,53,100,0
320.14053,320.26553,53,100,0
320.39053,320.76553,54,110,0
320.76553,320.82803,55,100,0
320.82803,320.89053,57,100,0
320.89053,321.26553,55,110,0
321.26553,321.32803,57,100,0
321.32803,321.39053,58,100,0
321.39053,321.51553,60,100,0
322.64053,322.76553,53,100,0
322.89053,323.01553,53,100,0
323.14053,323.26553,53,100,0
323.39053,323.64053,52,110,0
323.64053,323.76553,53,100,0
323.89053,324.01553,53,100,0
324.14053,324.26553,53,100,0
324.39053,324.76553,54,110,0
324.76553,324.82803,55,100,0
324.82803,324.89053,57,100,0
324.89053,325.26553,55,110,0
325.26553,325.32803,57,100,0
325.32803,325.39053,58,100,0
325.39053,325.51553,60,100,0
326.64053,326.76553,62,100,0
326.64053,326.76553,53,100,0
326.89053,327.01553,62,100,0
326.89053,327.01553,53,100,0
327.14053,327.26553,62,100,0
327.14053,327.26553,53,100,0
327.39053,327.64053,61,110,0
327.39053,327.64053,53,110,0
327.64053,327.76553,62,100,0
327.64053,327.76553,53,100,0
327.89053,328.01553,62,100,0
327.89053,328.01553,53,100,0
328.14053,328.26553,62,100,0
328.14053,328.26553,53,100,0
330.64053,330.76553,62,100,0
330.64053,330.76553,53,100,0
330.89053,331.01553,62,100,0
330.89053,331.01553,53,100,0
331.14053,331.26553,62,100,0
331.14053,331.26553,53,100,0
331.39053,331.64053,61,110,0
331.39053,331.64053,53,110,0
331.64053,331.76553,62,100,0
331.64053,331.76553,53,100,0
331.89053,332.01553,62,100,0
331.89053,332.01553,53,100,0
332.14053,332.26553,62,100,0
332.14053,332.26553,53,100,0
342.39053,342.64053,67,72,0
342.39053,342.64053,55,72,0
342.64053,342.76553,66,70,0
342.64053,342.76553,54,70,0
342.89053,343.14053,66,68,0
342.89053,343.14053,54,68,0
343.14053,343.26553,64,67,0
343.14053,343.26553,52,67,0
343.39053,343.64053,64,65,0
343.39053,343.64053,52,65,0
343.64053,343.76553,62,63,0
343.64053,343.76553,50,63,0
343.89053,344.01553,62,62,0
343.89053,344.01553,50,62,0
344.14053,344.26553,62,60,0
344.14053,344.26553,50,60,0
344.39053,344.64053,50,60,0
344.39053,344.64053,62,60,0
344.64053,344.89053,50,60,0
344.64053,344.89053,62,60,0
344.89053,345.14053,50,60,0
344.89053,345.14053,62,60,0
345.14053,345.39053,50,60,0
345.14053,345.39053,62,60,0
345.39053,345.64053,50,60,0
345.39053,345.64053,62,60,0
345.64053,345.89053,50,60,0
345.64053,345.89053,62,60,0
345.89053,346.14053,50,60,0
345.89053,346.14053,62,60,0
346.14053,346.39053,50,60,0
346.14053,346.39053,62,60,0
346.39053,346.64053,61,50,0
346.39053,346.64053,52,50,0
346.39053,346.64053,55,50,0
346.39053,346.64053,58,50,0
346.64053,346.76553,60,40,0
346.64053,346.76553,52,40,0
346.64053,346.76553,55,40,0
346.64053,346.76553,58,40,0
346.89053,347.14053,60,40,0
346.89053,347.14053,52,40,0
346.89053,347.14053,55,40,0
346.89053,347.14053,58,40,0
347.14053,347.39053,60,40,0
347.14053,347.39053,55,40,0
347.14053,347.39053,52,40,0
347.14053,347.39053,58,40,0
347.39053,347.64053,60,40,0
347.39053,347.64053,52,40,0
347.39053,347.64053,55,40,0
347.39053,347.64053,58,40,0
347.64053,347.89053,60,40,0
347.64053,347.89053,55,40,0
347.64053,347.89053,52,40,0
347.64053,347.89053,58,40,0
347.89053,348.14053,60,40,0
347.89053,348.14053,52,40,0
347.89053,348.14053,55,40,0
347.89053,348.14053,58,40,0
348.14053,348.39053,60,40,0
348.14053,348.39053,55,40,0
348.14053,348.39053,52,40,0
348.14053,348.39053,58,40,0
348.39053,348.64053,60,40,0
348.39053,348.64053,57,40,0
348.39053,348.64053,53,40,0
487.8823,488.0073,58,60,0
488.0073,488.1323,61,62,0
488.1323,488.2573,58,65,0
488.2573,488.3823,61,68,0
488.3823,488.5073,56,70,0
488.5073,488.6323,61,73,0
488.6323,488.7573,56,76,0
488.7573,488.8823,61,79,0
488.8823,489.0073,54,81,0
489.0073,489.1323,61,84,0
489.1323,489.2573,54,87,0
489.2573,489.3823,61,89,0
489.3823,489.5073,53,92,0
489.5073,489.6323,61,95,0
489.6323,489.7573,53,98,0
489.7573,489.8823,61,100,0
489.8823,490.0073,52,100,0
52.71025,52.927643,64,50,0
52.927643,53.145035,63,50,0
53.145035,53.362427,64,50,0
52.71025,53.362427,61,40,0
52.49286,53.362427,55,60,0
53.57982,53.79721,65,50,0
53.79721,54.014603,63,50,0
54.014603,54.23199,68,50,0
53.57982,54.23199,60,40,0
53.362427,54.23199,56,60,0
54.449383,54.666775,64,50,0
54.666775,54.884167,63,50,0
54.884167,55.10156,64,50,0
54.449383,55.10156,61,40,0
54.23199,55.10156,55,60,0
55.31895,55.536343,65,50,0
55.536343,55.753735,63,50,0
55.753735,55.971123,68,50,0
55.31895,55.971123,60,40,0
55.10156,55.971123,56,60,0
74.69939,74.82439,63,100,0
74.69939,74.82439,67,100,0
74.94939,75.07439,67,100,0
74.94939,75.07439,63,100,0
75.19939,75.32439,67,100,0
75.19939,75.32439,63,100,0
76.69939,76.82439,65,100,0
76.69939,76.82439,69,100,0
76.94939,77.07439,65,100,0
76.94939,77.07439,69,100,0
77.19939,77.32439,69,100,0
77.19939,77.32439,65,100,0
100.69939,100.94939,63,45,0
100.69939,100.94939,60,45,0
100.94939,101.19939,60,50,0
100.94939,101.19939,63,50,0
100.94939,101.19939,68,50,0
101.19939,101.44939,63,56,0
101.19939,101.44939,67,56,0
101.19939,101.44939,70,56,0
101.44939,101.57439,56,80,0
101.69939,101.94939,63,60,0
101.69939,101.94939,68,60,0
101.69939,101.94939,72,60,0
101.94939,102.19939,63,60,0
101.94939,102.19939,72,60,0
101.94939,102.19939,68,60,0
102.19939,102.44939,63,60,0
102.19939,102.44939,68,60,0
102.19939,102.44939,72,60,0
102.44939,102.69939,62,60,0
102.44939,102.69939,68,60,0
102.44939,102.69939,71,60,0
102.69939,102.82439,72,60,0
102.69939,102.82439,68,60,0
102.69939,102.82439,63,60,0
102.94939,103.19939,72,60,0
102.94939,103.19939,68,60,0
102.94939,103.19939,63,60,0
103.19939,103.44939,72,60,0
103.19939,103.44939,68,60,0
103.19939,103.44939,63,60,0
103.69939,103.94939,65,60,0
103.69939,103.94939,68,60,0
103.69939,103.94939,73,60,0
103.94939,104.19939,65,60,0
103.94939,104.19939,68,60,0
103.94939,104.19939,73,60,0
104.19939,104.44939,65,60,0
104.19939,104.44939,68,60,0
104.19939,104.44939,73,60,0
104.44939,104.69939,65,60,0
104.44939,104.69939,68,60,0
104.44939,104.69939,73,60,0
104.69939,104.94939,65,60,0
104.69939,104.94939,69,60,0
104.69939,104.94939,72,60,0
104.94939,105.19939,65,60,0
104.94939,105.19939,70,60,0
103.44939,105.19939,61,80,0
105.19939,105.44939,61,80,0
105.19939,105.44939,65,60,0
105.19939,105.44939,68,60,0
105.44939,105.57439,51,80,0
105.69939,105.94939,58,60,0
105.69939,105.94939,63,60,0
105.69939,105.94939,67,60,0
105.94939,106.19939,58,60,0
105.94939,106.19939,63,60,0
105.94939,106.19939,67,60,0
106.19939,106.44939,58,60,0
106.19939,106.44939,63,60,0
106.19939,106.44939,67,60,0
106.44939,106.69939,58,60,0
106.44939,106.69939,63,60,0
106.44939,106.69939,67,60,0
106.69939,106.94939,58,60,0
106.69939,106.94939,63,60,0
106.69939,106.94939,67,60,0
106.94939,107.19939,60,60,0
106.94939,107.19939,63,60,0
106.94939,107.19939,68,60,0
107.19939,107.44939,61,60,0
107.19939,107.44939,63,60,0
107.19939,107.44939,70,60,0
107.69939,107.94939,60,60,0
107.69939,107.94939,63,60,0
107.69939,107.94939,68,60,0
107.94939,108.19939,60,60,0
107.94939,108.19939,63,60,0
107.94939,108.19939,68,60,0
108.19939,108.44939,60,60,0
108.19939,108.44939,63,60,0
108.19939,108.44939,68,60,0
108.44939,108.69939,60,60,0
107.44939,108.69939,56,80,0
108.44939,108.69939,68,60,0
108.44939,108.69939,63,60,0
108.69939,108.94939,60,60,0
108.69939,108.94939,63,60,0
108.69939,108.94939,68,60,0
108.94939,109.19939,63,60,0
108.94939,109.19939,68,60,0
108.94939,109.19939,72,60,0
109.19939,109.44939,60,60,0
109.19939,109.44939,63,60,0
109.19939,109.44939,68,60,0
109.44939,109.57439,51,80,0
109.69939,109.94939,58,60,0
109.69939,109.94939,63,60,0
109.69939,109.94939,67,60,0
109.94939,110.19939,58,60,0
109.94939,110.19939,63,60,0
109.94939,110.19939,67,60,0
110.19939,110.44939,58,60,0
110.19939,110.44939,63,60,0
110.19939,110.44939,67,60,0
110.44939,110.69939,58,60,0
110.44939,110.69939,63,60,0
110.44939,110.69939,67,60,0
110.69939,110.94939,58,60,0
110.69939,110.94939,63,60,0
110.69939,110.94939,67,60,0
110.94939,111.19939,60,60,0
110.94939,111.19939,63,60,0
110.94939,111.19939,68,60,0
111.19939,111.44939,61,60,0
111.19939,111.44939,63,60,0
111.19939,111.44939,70,60,0
111.69939,111.94939,60,60,0
111.69939,111.94939,63,60,0
111.69939,111.94939,68,60,0
111.94939,112.19939,60,60,0
111.94939,112.19939,63,60,0
111.94939,112.19939,68,60,0
112.19939,112.44939,60,60,0
112.19939,112.44939,63,60,0
112.19939,112.44939,68,60,0
112.44939,112.69939,60,60,0
111.44939,112.69939,56,80,0
112.44939,112.69939,68,60,0
112.44939,112.69939,63,60,0
112.69939,112.94939,60,60,0
112.69939,112.94939,63,60,0
112.94939,113.19939,60,60,0
112.94939,113.19939,63,60,0
112.94939,113.19939,68,60,0
113.19939,113.44939,63,60,0
113.19939,113.44939,67,60,0
113.19939,113.44939,70,60,0
113.44939,113.57439,56,80,0
113.69939,113.94939,63,60,0
113.69939,113.94939,68,60,0
113.69939,113.94939,72,60,0
113.94939,114.19939,63,60,0
113.94939,114.19939,68,60,0
113.94939,114.19939,72,60,0
114.19939,114.44939,63,60,0
114.19939,114.44939,68,60,0
114.19939,114.44939,72,60,0
114.44939,114.69939,62,60,0
114.44939,114.69939,68,60,0
114.44939,114.69939,71,60,0
114.69939,114.82439,63,60,0
114.69939,114.82439,68,60,0
114.69939,114.82439,72,60,0
114.94939,115.19939,63,60,0
114.94939,115.19939,68,60,0
114.94939,115.19939,72,60,0
115.19939,115.44939,63,60,0
115.19939,115.44939,68,60,0
115.19939,115.44939,72,60,0
115.44939,115.69939,66,60,0
115.44939,115.69939,75,60,0
115.44939,115.69939,68,60,0
115.69939,115.82439,65,60,0
115.69939,115.82439,68,60,0
115.69939,115.82439,73,60,0
115.94939,116.19939,65,60,0
115.94939,116.19939,68,60,0
115.94939,116.19939,73,60,0
116.19939,116.44939,65,60,0
116.19939,116.44939,68,60,0
116.19939,116.44939,73,60,0
116.44939,116.69939,65,60,0
115.44939,116.69939,61,80,0
116.44939,116.69939,73,60,0
116.44939,116.69939,68,60,0
116.69939,116.94939,63,60,0
116.69939,116.94939,65,60,0
116.69939,116.94939,72,60,0
116.94939,117.19939,61,60,0
116.94939,117.19939,65,60,0
116.94939,117.19939,70,60,0
117.19939,117.44939,60,60,0
117.19939,117.44939,65,60,0
117.19939,117.44939,68,60,0
117.44939,117.57439,51,80,0
117.69939,117.94939,58,60,0
117.69939,117.94939,63,60,0
117.69939,117.94939,67,60,0
117.94939,118.19939,58,60,0
117.94939,118.19939,63,60,0
117.94939,118.19939,67,60,0
118.19939,118.44939,58,60,0
118.19939,118.44939,63,60,0
118.19939,118.44939,67,60,0
118.44939,118.69939,58,60,0
118.44939,118.69939,63,60,0
118.44939,118.69939,67,60,0
118.69939,118.94939,58,60,0
118.69939,118.94939,63,60,0
118.69939,118.94939,67,60,0
118.94939,119.19939,60,60,0
118.94939,119.19939,63,60,0
118.94939,119.19939,68,60,0
119.19939,119.44939,61,60,0
119.19939,119.44939,63,60,0
119.19939,119.44939,70,60,0
119.44939,119.69939,61,60,0
119.44939,119.69939,63,60,0
119.69939,119.82439,60,60,0
119.69939,119.82439,63,60,0
119.69939,119.82439,68,60,0
119.94939,120.19939,60,60,0
119.94939,120.19939,63,60,0
119.94939,120.19939,68,60,0
120.19939,120.44939,60,60,0
120.19939,120.44939,63,60,0
119.44939,120.44939,56,80,0
120.19939,120.44939,68,60,0
120.38689,120.44939,68,60,0
120.44939,120.69939,63,60,0
120.44939,120.69939,72,60,0
120.69939,120.82439,60,60,0
120.69939,120.82439,63,60,0
120.69939,120.82439,68,60,0
120.94939,121.19939,60,60,0
120.94939,121.19939,63,60,0
120.94939,121.19939,68,60,0
121.19939,121.44939,60,60,0
121.19939,121.44939,63,60,0
121.19939,121.44939,68,60,0
121.44939,121.57439,51,80,0
121.69939,121.94939,58,60,0
121.69939,121.94939,63,60,0
121.69939,121.94939,67,60,0
121.94939,122.19939,58,60,0
121.94939,122.19939,63,60,0
121.94939,122.19939,67,60,0
122.19939,122.44939,58,60,0
122.19939,122.44939,63,60,0
122.19939,122.44939,67,60,0
122.44939,122.69939,58,60,0
122.44939,122.69939,63,60,0
122.44939,122.69939,67,60,0
122.69939,122.94939,58,60,0
122.69939,122.94939,63,60,0
122.69939,122.94939,67,60,0
122.94939,123.19939,60,60,0
122.94939,123.19939,63,60,0
122.94939,123.19939,68,60,0
123.19939,123.44939,61,60,0
123.19939,123.44939,63,60,0
123.19939,123.44939,70,60,0
123.44939,123.69939,61,60,0
123.44939,123.69939,63,60,0
123.69939,123.82439,60,60,0
123.69939,123.82439,63,60,0
123.69939,123.82439,68,60,0
123.94939,124.19939,60,60,0
123.94939,124.19939,63,60,0
123.94939,124.19939,68,60,0
124.19939,124.44939,60,60,0
124.19939,124.44939,63,60,0
123.44939,124.44939,56,80,0
124.19939,124.44939,68,60,0
124.38689,124.44939,68,60,0
124.44939,124.69939,63,60,0
124.44939,124.69939,72,60,0
124.69939,124.82439,60,60,0
124.69939,124.82439,63,60,0
124.69939,124.82439,68,60,0
124.94939,125.19939,60,60,0
124.94939,125.19939,63,60,0
124.94939,125.19939,68,60,0
125.19939,125.44939,60,60,0
125.19939,125.44939,63,60,0
125.19939,125.44939,68,60,0
125.44939,125.57502,51,80,0
125.70248,125.96339,58,60,0
125.70248,125.96339,63,60,0
125.70248,125.96339,67,60,0
125.96339,126.23246,58,60,0
125.96339,126.23246,63,60,0
125.96339,126.23246,67,60,0
126.23246,126.51048,58,60,0
126.23246,126.51048,63,60,0
126.23246,126.51048,67,60,0
126.51048,126.79784,58,60,0
126.51048,126.79784,63,60,0
126.51048,126.79784,67,60,0
126.79784,127.09543,58,60,0
126.79784,127.09543,63,60,0
126.79784,127.09543,67,60,0
127.09543,127.40368,60,60,0
127.09543,127.40368,63,60,0
127.09543,127.40368,68,60,0
127.40368,127.723755,61,60,0
127.40368,127.723755,63,60,0
127.40368,127.723755,70,60,0
127.723755,127.886795,51,80,0
128.37593,132.94115,70,60,0
128.37593,132.94115,63,60,0
128.37593,132.94115,61,60,0
132.94115,134.44115,68,60,0
132.94115,134.44115,56,60,0
132.94115,134.44115,60,60,0
132.94115,134.44115,63,60,0
360.64053,360.89053,60,60,0
360.64053,360.89053,65,60,0
360.64053,360.89053,69,60,0
360.89053,361.14053,60,60,0
360.89053,361.14053,69,60,0
360.89053,361.14053,65,60,0
361.14053,361.39053,60,60,0
361.14053,361.39053,65,60,0
361.14053,361.39053,69,60,0
361.39053,361.64053,59,60,0
361.39053,361.64053,65,60,0
361.39053,361.64053,68,60,0
361.64053,361.76553,69,60,0
361.64053,361.76553,65,60,0
361.64053,361.76553,60,60,0
361.89053,362.14053,69,60,0
361.89053,362.14053,65,60,0
361.89053,362.14053,60,60,0
362.14053,362.39053,69,60,0
362.14053,362.39053,65,60,0
362.14053,362.39053,60,60,0
362.64053,362.89053,62,60,0
362.64053,362.89053,65,60,0
362.64053,362.89053,70,60,0
362.89053,363.14053,62,60,0
362.89053,363.14053,65,60,0
362.89053,363.14053,70,60,0
363.14053,363.39053,62,60,0
363.14053,363.39053,65,60,0
363.14053,363.39053,70,60,0
363.39053,363.64053,62,60,0
363.39053,363.64053,65,60,0
363.39053,363.64053,70,60,0
363.64053,363.89053,62,60,0
363.64053,363.89053,66,60,0
363.64053,363.89053,69,60,0
363.89053,364.14053,62,60,0
363.89053,364.14053,67,60,0
362.39053,364.14053,58,80,0
364.14053,364.39053,58,80,0
364.14053,364.39053,62,60,0
364.14053,364.39053,65,60,0
364.64053,364.89053,55,60,0
364.64053,364.89053,60,60,0
364.64053,364.89053,64,60,0
364.89053,365.14053,55,60,0
364.89053,365.14053,60,60,0
364.89053,365.14053,64,60,0
365.14053,365.39053,55,60,0
365.14053,365.39053,60,60,0
365.14053,365.39053,64,60,0
365.39053,365.64053,55,60,0
365.39053,365.64053,60,60,0
365.39053,365.64053,64,60,0
365.64053,365.89053,55,60,0
365.64053,365.89053,60,60,0
365.64053,365.89053,64,60,0
365.89053,366.14053,57,60,0
365.89053,366.14053,60,60,0
365.89053,366.14053,65,60,0
366.14053,366.39053,58,60,0
366.14053,366.39053,60,60,0
366.14053,366.39053,67,60,0
366.64053,366.89053,57,60,0
366.64053,366.89053,60,60,0
366.64053,366.89053,65,60,0
366.89053,367.14053,57,60,0
366.89053,367.14053,60,60,0
366.89053,367.14053,65,60,0
367.14053,367.39053,57,60,0
367.14053,367.39053,60,60,0
367.14053,367.39053,65,60,0
367.39053,367.64053,57,60,0
366.39053,367.64053,53,80,0
367.39053,367.64053,65,60,0
367.39053,367.64053,60,60,0
367.64053,367.89053,57,60,0
367.64053,367.89053,60,60,0
367.64053,367.89053,65,60,0
367.89053,368.14053,60,60,0
367.89053,368.14053,65,60,0
367.89053,368.14053,69,60,0
368.14053,368.39053,57,60,0
368.14053,368.39053,60,60,0
368.14053,368.39053,65,60,0
368.64053,368.89053,55,60,0
368.64053,368.89053,60,60,0
368.64053,368.89053,64,60,0
368.89053,369.14053,55,60,0
368.89053,369.14053,60,60,0
368.89053,369.14053,64,60,0
369.14053,369.39053,55,60,0
369.14053,369.39053,60,60,0
369.14053,369.39053,64,60,0
369.39053,369.64053,55,60,0
369.39053,369.64053,60,60,0
369.39053,369.64053,64,60,0
369.64053,369.89053,55,60,0
369.64053,369.89053,60,60,0
369.64053,369.89053,64,60,0
369.89053,370.14053,57,60,0
369.89053,370.14053,60,60,0
369.89053,370.14053,65,60,0
370.14053,370.39053,58,60,0
370.14053,370.39053,60,60,0
370.14053,370.39053,67,60,0
370.64053,370.89053,57,60,0
370.64053,370.89053,60,60,0
370.64053,370.89053,65,60,0
370.89053,371.14053,57,60,0
370.89053,371.14053,60,60,0
370.89053,371.14053,65,60,0
371.14053,371.39053,57,60,0
371.14053,371.39053,60,60,0
371.14053,371.39053,65,60,0
371.39053,371.64053,57,60,0
370.39053,371.64053,53,80,0
371.39053,371.64053,65,60,0
371.39053,371.64053,60,60,0
371.64053,371.89053,57,60,0
371.64053,371.89053,60,60,0
371.89053,372.14053,57,60,0
371.89053,372.14053,60,60,0
371.89053,372.14053,65,60,0
372.14053,372.39053,60,60,0
372.14053,372.39053,64,60,0
372.14053,372.39053,67,60,0
372.39053,372.51553,53,80,0
372.64053,372.89053,60,60,0
372.64053,372.89053,65,60,0
372.64053,372.89053,69,60,0
372.89053,373.14053,60,60,0
372.89053,373.14053,65,60,0
372.89053,373.14053,69,60,0
373.14053,373.39053,60,60,0
373.14053,373.39053,65,60,0
373.14053,373.39053,69,60,0
373.39053,373.64053,59,60,0
373.39053,373.64053,65,60,0
373.39053,373.64053,68,60,0
373.64053,373.76553,60,60,0
373.64053,373.76553,65,60,0
373.64053,373.76553,69,60,0
373.89053,374.14053,60,60,0
373.89053,374.14053,65,60,0
373.89053,374.14053,69,60,0
374.14053,374.39053,60,60,0
374.14053,374.39053,65,60,0
374.14053,374.39053,69,60,0
374.39053,374.64053,63,60,0
374.39053,374.64053,72,60,0
374.39053,374.64053,65,60,0
374.64053,374.76553,62,60,0
374.64053,374.76553,65,60,0
374.64053,374.76553,70,60,0
374.89053,375.14053,62,60,0
374.89053,375.14053,65,60,0
374.89053,375.14053,70,60,0
375.14053,375.39053,62,60,0
375.14053,375.39053,65,60,0
375.14053,375.39053,70,60,0
375.39053,375.64053,62,60,0
374.39053,375.64053,58,80,0
375.39053,375.64053,70,60,0
375.39053,375.64053,65,60,0
375.64053,375.89053,60,60,0
375.64053,375.89053,62,60,0
375.64053,375.89053,69,60,0
375.89053,376.14053,58,60,0
375.89053,376.14053,62,60,0
375.89053,376.14053,67,60,0
376.14053,376.39053,57,60,0
376.14053,376.39053,62,60,0
376.14053,376.39053,65,60,0
376.64053,376.89053,55,60,0
376.64053,376.89053,60,60,0
376.64053,376.89053,64,60,0
376.89053,377.14053,55,60,0
376.89053,377.14053,60,60,0
376.89053,377.14053,64,60,0
377.14053,377.39053,55,60,0
377.14053,377.39053,60,60,0
377.14053,377.39053,64,60,0
377.39053,377.64053,55,60,0
377.39053,377.64053,60,60,0
377.39053,377.64053,64,60,0
377.64053,377.89053,55,60,0
377.64053,377.89053,60,60,0
377.64053,377.89053,64,60,0
377.89053,378.14053,57,60,0
377.89053,378.14053,60,60,0
377.89053,378.14053,65,60,0
378.14053,378.39053,58,60,0
378.14053,378.39053,60,60,0
378.14053,378.39053,67,60,0
378.39053,378.64053,58,60,0
378.39053,378.64053,60,60,0
378.64053,378.76553,57,60,0
378.64053,378.76553,60,60,0
378.64053,378.76553,65,60,0
378.89053,379.14053,57,60,0
378.89053,379.14053,60,60,0
378.89053,379.14053,65,60,0
379.14053,379.39053,57,60,0
379.14053,379.39053,60,60,0
378.39053,379.39053,53,80,0
379.14053,379.39053,65,60,0
379.32803,379.39053,65,60,0
379.39053,379.64053,60,60,0
379.39053,379.64053,69,60,0
379.64053,379.76553,57,60,0
379.64053,379.76553,60,60,0
379.64053,379.76553,65,60,0
379.89053,380.14053,57,60,0
379.89053,380.14053,60,60,0
379.89053,380.14053,65,60,0
380.14053,380.39053,57,60,0
380.14053,380.39053,60,60,0
380.14053,380.39053,65,60,0
380.64053,380.89053,55,60,0
380.64053,380.89053,60,60,0
380.64053,380.89053,64,60,0
380.89053,381.14053,55,60,0
380.89053,381.14053,60,60,0
380.89053,381.14053,64,60,0
381.14053,381.39053,55,60,0
381.14053,381.39053,60,60,0
381.14053,381.39053,64,60,0
381.39053,381.64053,55,60,0
381.39053,381.64053,60,60,0
381.39053,381.64053,64,60,0
381.64053,381.89053,55,60,0
381.64053,381.89053,60,60,0
381.64053,381.89053,64,60,0
381.89053,382.14053,57,60,0
381.89053,382.14053,60,60,0
381.89053,382.14053,65,60,0
382.14053,382.39053,58,60,0
382.14053,382.39053,60,60,0
382.14053,382.39053,67,60,0
382.39053,382.64053,58,60,0
382.39053,382.64053,60,60,0
382.64053,382.76553,57,60,0
382.64053,382.76553,60,60,0
382.64053,382.76553,65,60,0
382.89053,383.14053,57,60,0
382.89053,383.14053,60,60,0
382.89053,383.14053,65,60,0
383.14053,383.39053,57,60,0
383.14053,383.39053,60,60,0
382.39053,383.39053,53,80,0
383.14053,383.39053,65,60,0
383.32803,383.39053,65,60,0
383.39053,383.64053,60,60,0
383.39053,383.64053,69,60,0
383.64053,383.76553,57,60,0
383.64053,383.76553,60,60,0
383.64053,383.76553,65,60,0
383.89053,384.14053,57,60,0
383.89053,384.14053,60,60,0
383.89053,384.14053,65,60,0
384.14053,384.39053,57,60,0
384.14053,384.39053,60,60,0
384.14053,384.39053,65,60,0
384.64362,384.90454,55,60,0
384.64362,384.90454,60,60,0
384.64362,384.90454,64,60,0
384.90454,385.1736,55,60,0
384.90454,385.1736,60,60,0
384.90454,385.1736,64,60,0
385.1736,385.45163,55,60,0
385.1736,385.45163,60,60,0
385.1736,385.45163,64,60,0
385.45163,385.73898,55,60,0
385.45163,385.73898,60,60,0
385.45163,385.73898,64,60,0
385.73898,386.03656,55,60,0
385.73898,386.03656,60,60,0
385.73898,386.03656,64,60,0
386.03656,386.34482,57,60,0
386.03656,386.34482,60,60,0
386.03656,386.34482,65,60,0
386.34482,386.6649,58,60,0
386.34482,386.6649,60,60,0
386.34482,386.6649,67,60,0
387.31708,391.8823,67,60,0
387.31708,391.8823,60,60,0
387.31708,391.8823,58,60,0
2.0,3.5,56,100,0
3.5,4.0,43,60,0
3.5,4.0,52,60,0
2.0,4.0,48,100,0
4.0,4.5,44,60,0
4.5,5.0,45,60,0
5.0,5.5,46,60,0
5.5,6.0,48,60,0
4.0,6.0,53,60,0
6.0,6.5,49,60,0
6.5,7.0,48,70,0
6.0,7.0,53,60,0
2.0,7.0,41,100,0
7.0,7.5,46,81,0
7.0,7.5,49,81,0
7.5,8.0,44,92,0
7.5,8.0,48,92,0
8.0,8.125,43,100,0
8.0,8.125,46,100,0
8.5,8.625,52,110,0
8.5,8.625,61,110,0
8.5,8.625,58,110,0
8.5,8.625,55,110,0
10.0,10.505471,53,60,0
10.0,10.505471,56,60,0
11.023893,11.556029,55,60,0
11.023893,11.556029,49,60,0
11.023893,11.556029,46,60,0
12.288225,12.475536,53,60,0
12.475536,12.664575,56,60,0
12.664575,12.855397,60,60,0
12.855397,13.048124,58,60,0
13.048124,13.242679,56,60,0
13.242679,13.389811,55,60,0
12.102712,13.538076,48,70,0
14.451248,15.951248,56,100,0
15.951248,16.451248,43,60,0
15.951248,16.451248,52,60,0
14.451248,16.451248,48,100,0
16.451248,16.951248,44,60,0
16.951248,17.451248,45,60,0
17.451248,17.951248,46,60,0
17.951248,18.451248,48,60,0
18.451248,18.701248,49,60,0
16.451248,18.701248,53,60,0
14.451248,18.701248,41,100,0
18.701248,18.826248,49,65,0
18.701248,18.826248,53,65,0
18.951248,19.076248,51,70,0
18.951248,19.076248,48,70,0
19.201248,19.326248,48,76,0
19.201248,19.326248,51,76,0
19.451248,19.576248,49,81,0
19.451248,19.576248,46,81,0
19.701248,19.826248,46,87,0
19.701248,19.826248,49,87,0
19.951248,20.076248,48,92,0
19.951248,20.076248,44,92,0
20.201248,20.326248,44,98,0
20.201248,20.326248,48,98,0
20.451248,20.576248,46,100,0
20.451248,20.576248,43,100,0
20.951248,21.076248,52,110,0
20.951248,21.076248,61,110,0
20.951248,21.076248,58,110,0
20.951248,21.076248,55,110,0
22.451248,22.956718,53,60,0
22.451248,22.956718,56,60,0
23.475142,24.007278,46,60,0
23.475142,24.007278,49,60,0
23.475142,24.007278,55,60,0
24.55396,24.692915,48,60,0
24.55396,24.692915,53,60,0
24.55396,24.692915,56,60,0
25.115822,25.306646,56,70,0
25.306646,25.499372,53,74,0
25.499372,25.693928,61,78,0
25.693928,25.841059,60,81,0
26.289137,26.440699,60,102,0
26.289137,26.440699,48,102,0
26.902496,27.027496,53,110,0
26.902496,27.027496,41,110,0
27.402496,27.902496,53,50,0
27.402496,27.902496,65,50,0
28.402496,28.902496,65,50,0
28.402496,28.902496,53,50,0
29.402496,29.902496,53,50,0
29.402496,29.902496,65,50,0
30.402496,30.902496,65,50,0
30.402496,30.902496,53,50,0
31.402496,31.902496,53,50,0
31.402496,31.902496,65,50,0
31.902496,32.027496,46,50,0
32.402496,32.527496,54,50,0
32.402496,32.527496,58,50,0
32.902496,33.027496,48,50,0
33.402496,33.527496,53,50,0
33.402496,33.527496,56,50,0
33.902496,34.027496,48,50,0
34.402496,34.527496,52,50,0
34.402496,34.527496,55,50,0
34.902496,35.027496,41,50,0
35.402496,35.902496,53,50,0
35.402496,35.902496,65,50,0
36.402496,36.902496,53,50,0
36.402496,36.902496,65,50,0
37.402496,37.902496,58,50,0
37.402496,37.902496,65,50,0
38.402496,38.902496,51,50,0
38.402496,38.902496,63,50,0
39.402496,39.902496,56,50,0
39.402496,39.902496,63,50,0
39.902496,40.027496,49,50,0
40.402496,40.527496,61,50,0
40.402496,40.527496,65,50,0
40.902496,41.027496,51,50,0
41.402496,41.527496,60,50,0
41.402496,41.527496,63,50,0
41.902496,42.027496,51,50,0
42.402496,42.527496,55,50,0
42.402496,42.527496,61,50,0
42.902496,43.027496,56,50,0
42.902496,43.027496,60,50,0
43.152496,43.277496,63,50,0
43.402496,43.527496,63,50,0
43.652496,43.777496,63,50,0
43.902496,44.152496,64,60,0
44.152496,44.277496,63,50,0
44.402496,44.527496,63,50,0
44.652496,44.777496,63,50,0
44.902496,45.027496,51,50,0
45.152496,45.277496,63,50,0
45.402496,45.527496,63,50,0
45.652496,45.777496,63,50,0
45.902496,46.027496,51,50,0
46.152496,46.277496,63,50,0
46.402496,46.527496,63,50,0
46.652496,46.777496,63,60,0
46.652496,46.777496,61,60,0
46.652496,46.777496,51,60,0
46.902496,47.027176,56,60,0
46.902496,47.027176,60,60,0
46.902496,47.027176,63,60,0
47.15145,47.2754,63,50,0
47.398945,47.52216,63,50,0
47.644978,47.767406,63,50,0
47.88945,48.132492,64,60,0
48.132492,48.25344,63,50,0
48.374077,48.61427,63,60,0
48.61427,48.733772,66,50,0
48.852974,48.971813,53,50,0
49.090317,49.208473,65,50,0
49.326267,49.443775,65,50,0
49.56089,49.67767,65,50,0
49.79409,49.910236,53,50,0
50.02603,50.141487,65,50,0
50.25657,50.37138,65,50,0
50.48585,50.599987,65,60,0
50.48585,50.599987,63,60,0
50.48585,50.599987,53,60,0
50.71382,50.82733,58,60,0
50.71382,50.82733,61,60,0
50.71382,50.82733,65,60,0
50.940563,51.053413,65,50,0
51.165966,51.278202,65,50,0
51.390167,51.50181,65,50,0
51.613117,51.83489,66,60,0
51.83489,51.945293,65,50,0
52.055378,52.165203,65,50,0
52.27472,52.383976,65,50,0
55.971123,56.07982,49,50,0
56.188515,56.6233,61,50,0
56.188515,56.6233,65,50,0
56.6233,56.84069,61,50,0
56.6233,56.84069,65,50,0
56.84069,56.949387,51,50,0
57.058083,57.492867,60,50,0
57.058083,57.492867,63,50,0
57.492867,57.71026,60,50,0
57.492867,57.71026,63,50,0
57.71026,57.81895,51,50,0
57.927647,58.36243,55,58,0
58.36243,58.579823,56,75,0
58.579823,58.68852,58,84,0
57.927647,58.797215,61,58,0
57.927647,58.797215,63,58,0
58.797215,59.014606,56,92,0
58.797215,59.014606,61,92,0
58.797215,59.014606,63,92,0
59.014606,59.232,55,101,0
59.014606,59.232,63,101,0
59.014606,59.232,61,101,0
59.232,59.44939,51,109,0
59.232,59.44939,63,109,0
59.232,59.44939,61,109,0
59.44939,59.57439,56,110,0
59.44939,59.57439,60,110,0
59.44939,59.57439,63,110,0
59.69939,59.82439,44,100,0
59.94939,60.07439,44,100,0
60.19939,60.32439,44,100,0
60.44939,60.69939,43,120,0
60.69939,60.82439,44,100,0
60.94939,61.07439,44,100,0
61.19939,61.32439,44,100,0
61.44939,61.82439,45,120,0
61.82439,61.88689,46,100,0
61.88689,61.94939,48,100,0
61.94939,62.32439,46,120,0
62.32439,62.38689,48,100,0
62.38689,62.44939,49,100,0
62.44939,62.57439,51,100,0
62.69939,62.82439,51,100,0
62.69939,62.82439,58,100,0
62.69939,62.82439,61,100,0
62.94939,63.07439,51,100,0
62.94939,63.07439,58,100,0
62.94939,63.07439,61,100,0
63.19939,63.32439,51,100,0
63.19939,63.32439,58,100,0
63.19939,63.32439,61,100,0
63.44939,63.57439,56,100,0
63.44939,63.57439,60,100,0
63.69939,63.82439,44,100,0
63.94939,64.07439,44,100,0
64.19939,64.32439,44,100,0
64.44939,64.69939,43,120,0
64.69939,64.82439,44,100,0
64.94939,65.07439,44,100,0
65.19939,65.32439,44,100,0
65.44939,65.82439,45,120,0
65.82439,65.88689,46,100,0
65.88689,65.94939,48,100,0
65.94939,66.32439,46,120,0
66.32439,66.38689,48,100,0
66.38689,66.44939,49,100,0
66.44939,66.57439,51,100,0
66.69939,66.82439,48,100,0
66.69939,66.82439,55,100,0
66.69939,66.82439,58,100,0
66.94939,67.07439,48,100,0
66.94939,67.07439,55,100,0
66.94939,67.07439,58,100,0
67.19939,67.32439,48,100,0
67.19939,67.32439,55,100,0
67.19939,67.32439,58,100,0
67.44939,67.57439,53,100,0
67.44939,67.57439,56,100,0
67.69939,67.82439,53,100,0
67.69939,67.82439,49,100,0
67.94939,68.07439,53,100,0
67.94939,68.07439,49,100,0
68.19939,68.32439,53,100,0
68.19939,68.32439,49,100,0
68.44939,68.69939,52,120,0
68.44939,68.69939,48,120,0
68.69939,68.82439,53,100,0
68.69939,68.82439,49,100,0
68.94939,69.07439,53,100,0
68.94939,69.07439,49,100,0
69.19939,69.32439,53,100,0
69.19939,69.32439,49,100,0
69.44939,69.82439,53,120,0
69.82439,69.88689,54,100,0
69.88689,69.94939,56,100,0
69.44939,69.94939,50,120,0
69.94939,70.32439,54,120,0
70.32439,70.38689,56,100,0
70.38689,70.44939,57,100,0
69.94939,70.44939,51,120,0
70.44939,70.57439,51,100,0
70.44939,70.57439,44,100,0
70.69939,70.82439,56,100,0
70.69939,70.82439,63,100,0
70.69939,70.82439,66,100,0
70.94939,71.07439,56,100,0
70.94939,71.07439,63,100,0
70.94939,71.07439,66,100,0
71.19939,71.32439,56,100,0
71.19939,71.32439,63,100,0
71.19939,71.32439,66,100,0
71.44939,71.57439,61,100,0
71.44939,71.57439,65,100,0
71.69939,71.82439,53,100,0
71.69939,71.82439,49,100,0
71.94939,72.07439,53,100,0
71.94939,72.07439,49,100,0
72.19939,72.32439,53,100,0
72.19939,72.32439,49,100,0
72.44939,72.69939,48,120,0
72.44939,72.69939,52,120,0
72.69939,72.82439,49,100,0
72.69939,72.82439,53,100,0
72.94939,73.07439,49,100,0
72.94939,73.07439,53,100,0
73.19939,73.32439,49,100,0
73.19939,73.32439,53,100,0
73.44939,73.69939,47,120,0
73.44939,73.69939,53,120,0
73.44939,73.69939,56,120,0
73.69939,73.82439,56,100,0
73.69939,73.82439,53,100,0
73.69939,73.82439,46,100,0
73.94939,74.07439,56,100,0
73.94939,74.07439,53,100,0
73.94939,74.07439,46,100,0
74.19939,74.32439,56,100,0
74.19939,74.32439,53,100,0
74.19939,74.32439,46,100,0
74.44939,74.57439,51,100,0
74.44939,74.57439,55,100,0
75.44939,75.69939,49,120,0
75.44939,75.69939,55,120,0
75.44939,75.69939,58,120,0
75.69939,75.82439,58,100,0
75.69939,75.82439,55,100,0
75.69939,75.82439,48,100,0
75.94939,76.07439,58,100,0
75.94939,76.07439,55,100,0
75.94939,76.07439,48,100,0
76.19939,76.32439,58,100,0
76.19939,76.32439,55,100,0
76.19939,76.32439,48,100,0
76.44939,76.57439,53,100,0
76.44939,76.57439,57,100,0
77.44939,77.69939,66,110,0
77.44939,77.69939,54,110,0
77.69939,77.82439,65,109,0
77.69939,77.82439,53,109,0
77.94939,78.19939,65,107,0
77.94939,78.19939,53,107,0
78.19939,78.32439,64,106,0
78.19939,78.32439,52,106,0
78.44939,78.69939,64,104,0
78.44939,78.69939,52,104,0
78.69939,78.82439,65,102,0
78.69939,78.82439,53,102,0
78.94939,79.19939,65,101,0
78.94939,79.19939,53,101,0
79.19939,79.32439,60,99,0
79.19939,79.32439,48,99,0
79.44939,79.69939,58,98,0
79.44939,79.69939,46,98,0
79.69939,79.82439,57,96,0
79.69939,79.82439,45,96,0
79.94939,80.19939,57,94,0
79.94939,80.19939,45,94,0
80.19939,80.32439,55,93,0
80.19939,80.32439,43,93,0
80.44939,80.69939,55,91,0
80.44939,80.69939,43,91,0
80.69939,80.82439,53,89,0
80.69939,80.82439,41,89,0
80.94939,81.07439,53,88,0
80.94939,81.07439,41,88,0
81.19939,81.32439,53,86,0
81.19939,81.32439,41,86,0
81.44939,81.69939,54,85,0
81.44939,81.69939,42,85,0
81.69939,81.82439,53,83,0
81.69939,81.82439,41,83,0
81.94939,82.19939,53,81,0
81.94939,82.19939,41,81,0
82.19939,82.32439,52,80,0
82.19939,82.32439,40,80,0
82.44939,82.69939,52,78,0
82.44939,82.69939,40,78,0
82.69939,82.82439,53,76,0
82.69939,82.82439,41,76,0
82.94939,83.19939,53,75,0
82.94939,83.19939,41,75,0
83.19939,83.32439,48,73,0
83.19939,83.32439,36,73,0
83.44939,83.69939,46,72,0
83.44939,83.69939,34,72,0
83.69939,83.82439,45,70,0
83.69939,83.82439,33,70,0
83.94939,84.19939,45,68,0
83.94939,84.19939,33,68,0
84.19939,84.32439,43,67,0
84.19939,84.32439,31,67,0
84.44939,84.69939,43,65,0
84.44939,84.69939,31,65,0
84.69939,84.82439,41,63,0
84.69939,84.82439,29,63,0
84.94939,85.07439,41,62,0
84.94939,85.07439,29,62,0
85.19939,85.32439,41,60,0
85.19939,85.32439,29,60,0
85.44939,85.69939,41,60,0
85.69939,85.94939,41,60,0
85.94939,86.19939,41,60,0
86.19939,86.44939,41,60,0
86.44939,86.69939,41,60,0
86.69939,86.94939,41,60,0
86.94939,87.19939,41,60,0
87.19939,87.44939,41,60,0
87.44939,87.69939,52,60,0
87.69939,87.82439,51,40,0
87.94939,88.19939,51,40,0
88.19939,88.44939,51,40,0
88.44939,88.69939,51,40,0
88.69939,88.94939,51,40,0
88.94939,89.19939,51,40,0
89.19939,89.44939,51,40,0
89.69939,89.94939,51,40,0
89.94939,90.19939,51,40,0
90.19939,90.44939,51,40,0
90.44939,90.69939,51,40,0
90.69939,90.82439,56,40,0
90.94939,91.19939,56,40,0
91.19939,91.44939,56,40,0
89.44939,91.44939,44,60,0
91.69939,91.94939,56,40,0
91.94939,92.19939,56,40,0
92.19939,92.44939,56,40,0
92.44939,92.69939,56,40,0
92.69939,92.94939,57,40,0
92.94939,93.19939,58,40,0
91.44939,93.19939,49,60,0
93.19939,93.44939,50,60,0
93.19939,93.44939,53,40,0
93.69939,93.94939,51,40,0
93.94939,94.19939,51,40,0
94.19939,94.44939,51,40,0
94.44939,94.69939,51,40,0
94.69939,94.94939,51,40,0
94.94939,95.19939,51,40,0
95.19939,95.44939,51,40,0
93.44939,95.44939,39,60,0
95.69939,95.94939,51,40,0
95.94939,96.19939,51,40,0
96.19939,96.44939,51,40,0
96.44939,96.69939,51,40,0
96.69939,96.94939,51,40,0
95.44939,96.94939,44,60,0
96.94939,97.19939,44,60,0
96.94939,97.19939,51,40,0
97.19939,97.44939,48,60,0
97.19939,97.44939,51,40,0
97.69939,97.94939,51,40,0
97.94939,98.19939,51,40,0
98.19939,98.44939,51,40,0
98.44939,98.69939,51,40,0
98.69939,98.94939,51,40,0
98.94939,99.19939,51,40,0
99.19939,99.44939,51,40,0
97.44939,99.44939,39,60,0
99.69939,99.94939,51,40,0
99.94939,100.19939,48,40,0
100.19939,100.44939,51,40,0
100.44939,100.57439,56,40,0
99.44939,100.69939,44,60,0
135.44115,135.56615,56,60,0
135.56615,135.69115,60,60,0
135.69115,135.81615,51,60,0
135.81615,135.94115,56,60,0
135.94115,136.06615,60,60,0
136.06615,136.19115,63,60,0
136.19115,136.31615,51,60,0
136.31615,136.44115,56,60,0
136.44115,136.56615,60,60,0
136.56615,136.69115,63,60,0
136.69115,136.81615,51,60,0
136.81615,136.94115,56,60,0
136.94115,137.06615,60,60,0
137.06615,137.19115,63,59,0
137.19115,137.31615,51,58,0
137.31615,137.44115,56,56,0
137.44115,137.56615,60,55,0
137.56615,137.69115,63,54,0
137.69115,137.81615,51,52,0
137.81615,137.94115,56,51,0
137.94115,138.06615,60,50,0
138.06615,138.19115,63,48,0
138.19115,138.31615,51,47,0
138.31615,138.44115,56,46,0
138.44115,138.56615,60,44,0
138.56615,138.69115,63,43,0
138.69115,138.81615,51,41,0
138.81615,138.94115,56,40,0
138.94115,139.06615,59,40,0
139.06615,139.19115,63,40,0
139.19115,139.31615,51,40,0
139.31615,139.44115,56,40,0
138.94115,139.44115,44,60,0
138.94115,139.44115,32,60,0
139.44115,139.56615,59,40,0
139.56615,139.69115,63,40,0
139.69115,139.81615,51,40,0
139.81615,139.94115,56,40,0
139.94115,140.06615,59,40,0
140.06615,140.19115,63,40,0
140.19115,140.31615,51,40,0
140.31615,140.44115,56,40,0
140.44115,140.56615,59,40,0
140.56615,140.69115,63,40,0
140.69115,140.81615,61,40,0
140.81615,140.94115,63,40,0
140.94115,141.06615,59,40,0
141.06615,141.19115,63,40,0
141.19115,141.31615,51,40,0
141.31615,141.44115,56,40,0
141.44115,141.56615,59,40,0
141.56615,141.69115,63,40,0
141.69115,141.81615,51,40,0
141.81615,141.94115,56,40,0
141.94115,142.06615,59,40,0
142.06615,142.19115,63,40,0
142.19115,142.31615,59,40,0
142.19115,142.31615,56,40,0
142.31615,142.44115,63,40,0
142.19115,142.44115,51,60,0
142.19115,142.44115,47,60,0
142.44115,142.56615,61,40,0
142.44115,142.56615,55,40,0
142.56615,142.69115,63,40,0
142.44115,142.69115,46,60,0
142.44115,142.69115,51,60,0
142.69115,142.81615,59,40,0
142.69115,142.81615,56,40,0
142.81615,142.94115,63,40,0
142.69115,142.94115,44,60,0
142.69115,142.94115,51,60,0
142.94115,143.06615,58,40,0
142.94115,143.06615,55,40,0
143.06615,143.19115,63,40,0
142.94115,143.19115,51,60,0
142.94115,143.19115,39,60,0
143.19115,143.31615,51,40,0
143.31615,143.44115,55,40,0
143.44115,143.56615,58,40,0
143.56615,143.69115,63,40,0
143.69115,143.81615,51,40,0
143.81615,143.94115,55,40,0
143.94115,144.06615,58,40,0
144.06615,144.19115,63,40,0
144.19115,144.31615,51,40,0
144.31615,144.44115,55,40,0
144.44115,144.56615,58,40,0
144.56615,144.69115,63,40,0
144.69115,144.81615,61,40,0
144.81615,144.94115,63,40,0
144.94115,145.06615,59,40,0
145.06615,145.19115,63,40,0
145.19115,145.31615,51,40,0
145.31615,145.44115,56,40,0
145.44115,145.56615,59,40,0
145.56615,145.69115,63,40,0
145.69115,145.81615,51,40,0
145.81615,145.94115,56,40,0
145.94115,146.06615,59,40,0
146.06615,146.19115,63,40,0
146.19115,146.31615,51,40,0
146.31615,146.44115,56,40,0
146.44115,146.56615,59,40,0
146.56615,146.69115,63,40,0
146.44115,146.69115,47,60,0
146.44115,146.69115,51,60,0
146.69115,146.81615,61,40,0
146.69115,146.81615,55,40,0
146.81615,146.94115,63,40,0
146.69115,146.94115,46,60,0
146.69115,146.94115,51,60,0
146.94115,147.06615,59,40,0
146.94115,147.06615,56,40,0
147.06615,147.19115,63,41,0
146.94115,147.19115,51,60,0
146.94115,147.19115,44,60,0
147.19115,147.31615,51,42,0
147.31615,147.44115,56,43,0
147.44115,147.56615,59,45,0
147.56615,147.69115,63,46,0
147.69115,147.81615,51,47,0
147.81615,147.94115,56,49,0
147.94115,148.06615,59,50,0
148.06615,148.19115,63,51,0
148.19115,148.31615,51,53,0
148.31615,148.44115,56,54,0
150.19115,150.44115,54,93,0
150.19115,150.44115,51,93,0
150.44115,150.69115,54,96,0
150.44115,150.69115,49,96,0
150.69115,150.94115,54,99,0
150.69115,150.94115,47,99,0
150.94115,151.19115,54,100,0
150.94115,151.19115,42,100,0
154.44115,154.69115,54,77,0
154.44115,154.69115,51,77,0
154.69115,154.94115,54,75,0
154.69115,154.94115,49,75,0
154.94115,155.19115,47,73,0
154.94115,155.19115,54,73,0
158.19115,158.44115,52,60,0
158.44115,158.69115,51,60,0
158.69115,158.94115,49,60,0
158.94115,159.94115,46,60,0
159.94115,160.19115,47,60,0
164.19115,164.44115,47,60,0
164.44115,164.69115,49,60,0
164.69115,164.94115,50,60,0
164.94115,166.94115,42,60,0
166.94115,167.06615,59,40,0
167.06615,167.19115,63,40,0
167.19115,167.31615,51,40,0
167.31615,167.44115,54,40,0
166.94115,167.44115,35,60,0
167.44115,167.56615,59,40,0
167.56615,167.69115,63,40,0
167.69115,167.81615,51,40,0
167.81615,167.94115,54,40,0
167.94115,168.06615,61,40,0
168.06615,168.19115,63,40,0
168.19115,168.31615,51,40,0
168.31615,168.44115,55,40,0
168.44115,168.56615,61,40,0
168.56615,168.69115,63,40,0
167.94115,168.69115,39,60,0
168.69115,168.77448,37,60,0
168.69115,168.81615,51,40,0
168.77448,168.85782,35,60,0
168.85782,168.94115,34,60,0
168.81615,168.94115,55,40,0
168.94115,169.06615,59,40,0
169.06615,169.19115,63,40,0
169.19115,169.31615,51,40,0
169.31615,169.44115,56,40,0
168.94115,169.44115,44,60,0
168.94115,169.44115,32,60,0
169.44115,169.56615,59,40,0
169.56615,169.69115,63,40,0
169.69115,169.81615,51,40,0
169.81615,169.94115,56,40,0
169.94115,170.06615,59,40,0
170.06615,170.19115,63,40,0
170.19115,170.31615,51,40,0
170.31615,170.44115,56,40,0
170.44115,170.56615,59,40,0
170.56615,170.69115,63,40,0
170.69115,170.81615,61,40,0
170.81615,170.94115,63,40,0
170.94115,171.06615,59,40,0
171.06615,171.19115,63,40,0
171.19115,171.31615,51,40,0
171.31615,171.44115,56,40,0
171.44115,171.56615,59,40,0
171.56615,171.69115,63,40,0
171.69115,171.81615,51,40,0
171.81615,171.94115,56,40,0
171.94115,172.06615,59,40,0
172.06615,172.19115,63,40,0
172.19115,172.31615,59,40,0
172.19115,172.31615,56,40,0
172.31615,172.44115,63,40,0
172.19115,172.44115,51,60,0
172.19115,172.44115,47,60,0
172.44115,172.56615,61,40,0
172.44115,172.56615,55,40,0
172.56615,172.69115,63,40,0
172.44115,172.69115,46,60,0
172.44115,172.69115,51,60,0
172.69115,172.81615,59,40,0
172.69115,172.81615,56,40,0
172.81615,172.94115,63,40,0
172.69115,172.94115,44,60,0
172.69115,172.94115,51,60,0
172.94115,173.06615,58,40,0
172.94115,173.06615,55,40,0
173.06615,173.19115,63,40,0
172.94115,173.19115,51,60,0
172.94115,173.19115,39,60,0
173.19115,173.31615,51,40,0
173.31615,173.44115,55,40,0
173.44115,173.56615,58,40,0
173.56615,173.69115,63,40,0
173.69115,173.81615,51,40,0
173.81615,173.94115,55,40,0
173.94115,174.06615,58,40,0
174.06615,174.19115,63,40,0
174.19115,174.31615,51,40,0
174.31615,174.44115,55,40,0
174.44115,174.56615,58,40,0
174.56615,174.69115,63,40,0
174.69115,174.81615,61,40,0
174.81615,174.94115,63,40,0
174.94115,175.06615,59,40,0
175.06615,175.19115,63,40,0
175.19115,175.31615,51,40,0
175.31615,175.44115,56,40,0
175.44115,175.56615,59,40,0
175.56615,175.69115,63,40,0
175.69115,175.81615,51,40,0
175.81615,175.94115,56,40,0
175.94115,176.06615,59,40,0
176.06615,176.19115,63,40,0
176.19115,176.31615,51,40,0
176.31615,176.44115,56,40,0
176.44115,176.56615,59,40,0
176.56615,176.69115,63,40,0
176.44115,176.69115,47,60,0
176.44115,176.69115,51,60,0
176.69115,176.81615,61,40,0
176.69115,176.81615,55,40,0
176.81615,176.94115,63,40,0
176.69115,176.94115,46,60,0
176.69115,176.94115,51,60,0
176.94115,177.06615,59,40,0
176.94115,177.06615,56,40,0
177.06615,177.19115,63,40,0
176.94115,177.19115,51,60,0
176.94115,177.19115,44,60,0
177.19115,177.31615,51,41,0
177.31615,177.44115,56,42,0
177.44115,177.56615,59,43,0
177.56615,177.69115,63,44,0
177.69115,177.81615,51,45,0
177.81615,177.94115,56,45,0
177.94115,178.06615,59,46,0
178.06615,178.19115,63,47,0
178.19115,178.31615,51,48,0
178.31615,178.44115,56,49,0
180.19115,180.44115,54,82,0
180.19115,180.44115,51,82,0
180.44115,180.69115,54,83,0
180.44115,180.69115,49,83,0
180.69115,180.94115,54,85,0
180.69115,180.94115,47,85,0
180.94115,181.19115,54,87,0
180.94115,181.19115,42,87,0
184.44115,184.69115,54,85,0
184.44115,184.69115,51,85,0
184.69115,184.94115,54,82,0
184.69115,184.94115,49,82,0
184.94115,185.19115,47,80,0
184.94115,185.19115,54,80,0
188.19115,188.44115,52,60,0
188.44115,188.69115,51,60,0
188.69115,188.94115,49,60,0
188.94115,189.94115,46,60,0
189.94115,190.19115,47,60,0
194.19115,194.44115,47,60,0
194.44115,194.69115,49,60,0
194.69115,194.94115,50,60,0
194.94115,196.94115,42,60,0
196.94115,197.06615,35,60,0
200.19115,200.31615,51,100,0
200.19115,200.31615,39,100,0
200.44115,200.69115,51,100,0
200.44115,200.69115,39,100,0
200.69115,200.94115,46,100,0
200.69115,200.94115,34,100,0
200.94115,201.44115,47,100,0
200.94115,201.44115,35,100,0
201.44115,201.69115,44,100,0
201.44115,201.69115,32,100,0
204.19115,204.31615,51,100,0
204.19115,204.31615,39,100,0
204.44115,204.69115,51,100,0
204.44115,204.69115,39,100,0
204.69115,204.94115,46,100,0
204.69115,204.94115,34,100,0
204.94115,205.44115,47,100,0
204.94115,205.44115,35,100,0
205.44115,205.69115,44,105,0
205.44115,205.69115,32,105,0
207.44115,208.44115,40,120,0
209.44115,210.44115,40,120,0
211.44115,212.44115,40,110,0
212.44115,212.94115,39,88,0
212.94115,213.19115,38,80,0
215.44115,215.94115,39,67,0
217.44115,217.94115,44,60,0
217.94115,218.19115,41,60,0
219.44115,219.94115,46,60,0
219.94115,220.44115,47,60,0
220.44115,220.94115,46,60,0
221.94115,222.94115,39,60,0
222.94115,223.94115,41,60,0
223.94115,224.06615,61,40,0
224.06615,224.19115,63,40,0
224.19115,224.31615,51,40,0
224.31615,224.44115,58,40,0
224.44115,224.56615,61,40,0
224.56615,224.69115,63,40,0
224.69115,224.81615,51,40,0
224.81615,224.94115,58,40,0
223.94115,224.94115,43,60,0
224.94115,225.06615,60,40,0
225.06615,225.19115,63,40,0
225.19115,225.31615,51,40,0
225.31615,225.44115,56,40,0
224.94115,225.44115,44,60,0
225.44115,225.56615,60,40,0
225.56615,225.69115,63,40,0
225.69115,225.81615,51,40,0
225.81615,225.94115,56,40,0
225.94115,226.06615,60,40,0
226.06615,226.19115,63,40,0
226.19115,226.31615,51,40,0
226.31615,226.44115,56,40,0
226.44115,226.56615,60,40,0
226.56615,226.69115,63,40,0
226.69115,226.81615,58,40,0
226.81615,226.94115,63,40,0
226.94115,227.06615,60,40,0
227.06615,227.19115,63,40,0
227.19115,227.31615,51,40,0
227.31615,227.44115,56,40,0
227.44115,227.56615,60,40,0
227.56615,227.69115,63,40,0
227.69115,227.81615,51,40,0
227.81615,227.94115,56,40,0
227.94115,228.06615,60,40,0
228.06615,228.19115,63,40,0
228.19115,228.31615,60,40,0
228.19115,228.31615,56,40,0
228.31615,228.44115,63,40,0
228.19115,228.44115,51,60,0
228.19115,228.44115,48,60,0
228.44115,228.56615,61,40,0
228.44115,228.56615,55,40,0
228.56615,228.69115,63,40,0
228.44115,228.69115,46,60,0
228.44115,228.69115,51,60,0
228.69115,228.81615,60,40,0
228.69115,228.81615,56,40,0
228.81615,228.94115,63,40,0
228.69115,228.94115,44,60,0
228.69115,228.94115,51,60,0
228.94115,229.06615,55,40,0
228.94115,229.06615,58,40,0
229.06615,229.19115,63,40,0
228.94115,229.19115,39,60,0
228.94115,229.19115,51,60,0
229.19115,229.31615,51,40,0
229.31615,229.44115,55,40,0
229.44115,229.56615,58,40,0
229.56615,229.69115,63,40,0
229.69115,229.81615,51,40,0
229.81615,229.94115,55,40,0
229.94115,230.06615,58,40,0
230.06615,230.19115,63,40,0
230.19115,230.31615,51,40,0
230.31615,230.44115,55,40,0
230.44115,230.56615,58,40,0
230.56615,230.69115,63,40,0
230.69115,230.81615,61,40,0
230.81615,230.94115,63,40,0
230.94115,231.06615,60,40,0
231.06615,231.19115,63,40,0
231.19115,231.31615,51,40,0
231.31615,231.44115,56,40,0
231.44115,231.56615,60,40,0
231.56615,231.69115,63,40,0
231.69115,231.81615,51,40,0
231.81615,231.94115,56,40,0
231.94115,232.06615,60,40,0
232.06615,232.19115,63,40,0
232.19115,232.31615,51,40,0
232.31615,232.44115,56,40,0
232.44115,232.56615,60,40,0
232.56615,232.69115,63,40,0
232.44115,232.69115,51,60,0
232.44115,232.69115,48,60,0
232.69115,232.81615,61,40,0
232.69115,232.81615,55,40,0
232.81615,232.94115,63,40,0
232.69115,232.94115,51,60,0
232.69115,232.94115,46,60,0
232.94115,233.06615,60,40,0
232.94115,233.06615,56,40,0
233.06615,233.19115,63,41,0
232.94115,233.19115,44,60,0
232.94115,233.19115,51,60,0
233.19115,233.31615,51,42,0
233.31615,233.44115,56,43,0
233.44115,233.56615,60,44,0
233.56615,233.69115,63,46,0
233.69115,233.81615,51,47,0
233.81615,233.94115,56,48,0
233.94115,234.06615,60,49,0
234.06615,234.19115,63,51,0
234.19115,234.31615,51,52,0
234.31615,234.44115,56,53,0
234.44115,234.56615,60,54,0
234.56615,234.69115,63,56,0
234.69115,234.81615,61,57,0
234.81615,234.94115,63,58,0
234.94115,235.06615,60,59,0
235.06615,235.19115,63,61,0
235.19115,235.31615,51,62,0
235.31615,235.44115,56,63,0
235.44115,235.56615,60,64,0
235.56615,235.69115,63,66,0
235.69115,235.81615,51,67,0
235.81615,235.94115,56,68,0
236.19115,236.44115,48,92,0
236.19115,236.44115,51,92,0
236.44115,236.69115,49,94,0
236.44115,236.69115,53,94,0
236.69115,236.94115,55,97,0
236.69115,236.94115,46,97,0
236.94115,237.19115,48,100,0
236.94115,237.19115,56,100,0
236.19115,237.19115,44,92,0
238.94115,239.06615,60,67,0
239.06615,239.19115,63,66,0
239.19115,239.31615,51,65,0
239.31615,239.44115,56,64,0
239.44115,239.56615,60,63,0
239.56615,239.69115,63,63,0
239.69115,239.81615,51,62,0
239.81615,239.94115,56,61,0
239.94115,240.06615,60,60,0
240.06615,240.19115,63,59,0
240.19115,240.31615,60,58,0
240.19115,240.31615,56,58,0
240.31615,240.44115,63,57,0
240.19115,240.44115,51,78,0
240.19115,240.44115,48,78,0
240.44115,240.56615,61,57,0
240.44115,240.56615,55,57,0
240.56615,240.69115,63,56,0
240.44115,240.69115,46,77,0
240.44115,240.69115,49,77,0
240.69115,240.81615,58,55,0
240.69115,240.81615,55,55,0
240.81615,240.94115,63,54,0
240.69115,240.94115,39,75,0
240.69115,240.94115,46,75,0
240.94115,241.06615,60,53,0
240.94115,241.06615,56,53,0
241.06615,241.19115,63,52,0
240.94115,241.19115,44,73,0
240.94115,241.19115,48,73,0
241.19115,241.31615,51,51,0
241.31615,241.44115,56,51,0
241.44115,241.56615,60,50,0
241.56615,241.69115,63,49,0
241.69115,241.81615,51,48,0
241.81615,241.94115,56,47,0
241.94115,242.06615,60,46,0
242.06615,242.19115,63,45,0
242.19115,242.31615,51,45,0
242.31615,242.44115,56,44,0
242.44115,242.56615,60,43,0
242.56615,242.69115,63,42,0
242.69115,242.81615,61,41,0
242.81615,242.94115,63,40,0
242.94115,243.06615,60,40,0
243.06615,243.19115,63,40,0
243.19115,243.31615,51,40,0
243.31615,243.44115,56,40,0
243.44115,243.56615,60,40,0
243.56615,243.69115,63,40,0
243.69115,243.81615,51,40,0
243.81615,243.94115,56,40,0
244.19115,244.44115,48,60,0
244.19115,244.44115,51,60,0
244.44115,244.69115,49,60,0
244.44115,244.69115,53,60,0
244.69115,244.94115,55,60,0
244.69115,244.94115,46,60,0
244.94115,245.19115,48,60,0
244.94115,245.19115,56,60,0
244.19115,245.19115,44,60,0
246.94115,247.06615,60,40,0
247.06615,247.19115,63,40,0
247.19115,247.31615,51,40,0
247.31615,247.44115,56,40,0
247.44115,247.56615,60,40,0
247.56615,247.69115,63,40,0
247.69115,247.81615,51,40,0
247.81615,247.94115,56,40,0
247.94115,248.06615,60,40,0
248.06615,248.19115,63,40,0
248.19115,248.31615,60,40,0
248.19115,248.31615,56,40,0
248.31615,248.44115,63,40,0
248.19115,248.44115,51,60,0
248.19115,248.44115,48,60,0
248.44115,248.56615,61,40,0
248.44115,248.56615,55,40,0
248.56615,248.69115,63,40,0
248.44115,248.69115,46,60,0
248.44115,248.69115,49,60,0
248.69115,248.81615,58,40,0
248.69115,248.81615,55,40,0
248.81615,248.94115,63,40,0
248.69115,248.94115,39,60,0
248.69115,248.94115,46,60,0
248.94115,249.06615,60,40,0
248.94115,249.06615,56,40,0
249.06615,249.19115,63,40,0
249.19115,249.31615,51,40,0
249.31615,249.44115,56,40,0
248.94115,249.44115,48,60,0
248.94115,249.44115,44,60,0
249.44115,249.56615,60,40,0
249.56615,249.69115,63,40,0
249.69115,249.81615,51,40,0
249.81615,249.94115,56,40,0
249.94115,250.06615,60,40,0
250.06615,250.19115,63,40,0
250.19115,250.31615,60,40,0
250.19115,250.31615,56,40,0
250.31615,250.44115,63,40,0
250.19115,250.44115,51,60,0
250.19115,250.44115,48,60,0
250.44115,250.56615,61,40,0
250.44115,250.56615,55,40,0
250.56615,250.69115,63,40,0
250.44115,250.69115,46,60,0
250.44115,250.69115,49,60,0
250.69115,250.81615,58,40,0
250.69115,250.81615,55,40,0
250.81615,250.94115,63,40,0
250.69115,250.94115,39,60,0
250.69115,250.94115,46,60,0
250.94115,251.06615,60,40,0
250.94115,251.06615,56,40,0
251.06615,251.19115,63,40,0
251.19115,251.31615,51,40,0
251.31615,251.44115,56,40,0
250.94115,251.44115,48,60,0
250.94115,251.44115,44,60,0
251.44115,251.56615,60,40,0
251.56615,251.69115,63,40,0
251.69115,251.81615,51,40,0
251.81615,251.94115,56,40,0
251.94115,252.06615,60,40,0
252.06615,252.19115,63,40,0
252.19115,252.31615,60,40,0
252.19115,252.31615,56,40,0
252.31615,252.44115,63,40,0
252.19115,252.44115,51,60,0
252.19115,252.44115,48,60,0
252.44115,252.56615,61,40,0
252.44115,252.56615,55,40,0
252.56615,252.69115,63,40,0
252.44115,252.69115,46,60,0
252.44115,252.69115,49,60,0
252.69115,252.81615,58,40,0
252.69115,252.81615,55,40,0
252.81615,252.94115,63,40,0
252.69115,252.94115,39,60,0
252.69115,252.94115,46,60,0
252.94115,253.06615,56,40,0
253.06615,253.19115,60,40,0
253.19115,253.31615,48,40,0
253.31615,253.44115,51,40,0
252.94115,253.44115,44,60,0
252.94115,253.44115,36,60,0
252.94115,253.44115,32,60,0
253.44115,253.56615,56,40,0
253.56615,253.69115,60,40,0
253.69115,253.81615,48,40,0
253.81615,253.94115,51,40,0
253.94115,254.06615,56,40,0
254.06615,254.19115,60,40,0
254.19115,254.31615,48,40,0
254.31615,254.44115,51,40,0
254.44115,254.56615,56,40,0
254.56615,254.69115,60,40,0
254.69115,254.81615,48,40,0
254.81615,254.94115,51,40,0
254.94115,255.06615,56,40,0
255.06615,255.19115,60,40,0
255.19115,255.31615,48,40,0
255.31615,255.44115,51,40,0
255.44115,255.56615,56,40,0
255.56615,255.69115,60,40,0
255.69115,255.81615,48,40,0
255.81615,255.94115,51,40,0
255.44115,255.94115,32,60,0
255.94115,256.06613,56,40,0
256.06613,256.19113,60,40,0
256.19113,256.31613,48,40,0
256.31613,256.44113,51,40,0
255.94115,256.44113,32,60,0
256.44113,256.56613,56,40,0
256.56613,256.69113,60,40,0
256.69113,256.81613,48,40,0
256.81613,256.94113,51,40,0
256.44113,256.94113,32,60,0
256.94113,257.06613,58,40,0
257.06613,257.19113,60,41,0
257.19113,257.31613,48,43,0
257.31613,257.44113,52,45,0
257.44113,257.56613,58,47,0
257.56613,257.69113,60,49,0
257.69113,257.81613,52,51,0
257.81613,257.94113,58,53,0
256.94113,259.44113,43,60,0
256.94113,259.44113,36,60,0
256.94113,259.44113,31,60,0
259.44113,259.94113,55,99,0
259.44113,259.94113,48,99,0
259.44113,259.94113,43,99,0
259.94113,260.44113,55,107,0
259.94113,260.44113,48,107,0
259.94113,260.44113,43,107,0
260.44113,260.94113,55,115,0
260.44113,260.94113,48,115,0
260.44113,260.94113,43,115,0
260.94113,262.44113,56,100,0
262.44113,262.94113,43,60,0
262.44113,262.94113,52,60,0
260.94113,262.94113,48,100,0
262.94113,263.44113,44,60,0
263.44113,263.94113,45,60,0
263.94113,264.44113,46,60,0
264.44113,264.94113,48,60,0
262.94113,264.94113,53,60,0
264.94113,265.44113,49,60,0
265.44113,265.94113,48,70,0
264.94113,265.94113,53,60,0
260.94113,265.94113,41,100,0
265.94113,266.44113,46,81,0
265.94113,266.44113,49,81,0
266.44113,266.94113,44,92,0
266.44113,266.94113,48,92,0
266.94113,267.06613,43,100,0
266.94113,267.06613,46,100,0
267.44113,267.56613,52,110,0
267.44113,267.56613,61,110,0
267.44113,267.56613,58,110,0
267.44113,267.56613,55,110,0
268.94113,269.44662,53,60,0
268.94113,269.44662,56,60,0
269.96503,270.49716,55,60,0
269.96503,270.49716,49,60,0
269.96503,270.49716,46,60,0
271.22937,271.4167,53,60,0
271.4167,271.6057,56,60,0
271.6057,271.79654,60,60,0
271.79654,271.98926,58,60,0
271.98926,272.18384,56,60,0
272.18384,272.33096,55,60,0
271.04385,272.47922,48,70,0
273.3924,274.8924,56,100,0
274.8924,275.3924,43,60,0
274.8924,275.3924,52,60,0
273.3924,275.3924,48,100,0
275.3924,275.8924,44,60,0
275.8924,276.3924,45,60,0
276.3924,276.8924,46,60,0
276.8924,277.3924,48,60,0
277.3924,277.6424,49,60,0
275.3924,277.6424,53,60,0
273.3924,277.6424,41,100,0
277.6424,277.7674,49,65,0
277.6424,277.7674,53,65,0
277.8924,278.0174,51,70,0
277.8924,278.0174,48,70,0
278.1424,278.2674,48,76,0
278.1424,278.2674,51,76,0
278.3924,278.5174,49,81,0
278.3924,278.5174,46,81,0
278.6424,278.7674,46,87,0
278.6424,278.7674,49,87,0
278.8924,279.0174,48,92,0
278.8924,279.0174,44,92,0
278.8924,279.0174,49,92,0
279.1424,279.2674,44,98,0
279.1424,279.2674,48,98,0
279.1424,279.2674,49,98,0
279.3924,279.5174,46,100,0
279.3924,279.5174,43,100,0
279.3924,279.5174,49,100,0
279.8924,280.0174,52,110,0
279.8924,280.0174,61,110,0
279.8924,280.0174,58,110,0
279.8924,280.0174,55,110,0
281.3924,281.89786,53,60,0
281.3924,281.89786,56,60,0
282.4163,282.94843,46,60,0
282.4163,282.94843,49,60,0
282.4163,282.94843,55,60,0
283.49512,283.63406,48,60,0
283.49512,283.63406,53,60,0
283.49512,283.63406,56,60,0
284.05698,284.2478,56,70,0
284.2478,284.44052,53,74,0
284.44052,284.63507,61,78,0
284.63507,284.7822,60,81,0
285.2303,285.38184,60,102,0
285.2303,285.38184,48,102,0
285.84363,285.96863,53,110,0
285.84363,285.96863,41,110,0
286.34363,286.84363,53,50,0
286.34363,286.84363,65,50,0
287.34363,287.84363,65,50,0
287.34363,287.84363,53,50,0
288.34363,288.84363,53,50,0
288.34363,288.84363,65,50,0
289.34363,289.84363,53,50,0
289.34363,289.84363,65,50,0
290.34363,290.84363,53,50,0
290.34363,290.84363,65,50,0
290.84363,290.96863,46,50,0
291.34363,291.46863,54,50,0
291.34363,291.46863,58,50,0
291.84363,291.96863,48,50,0
292.34363,292.46863,53,50,0
292.34363,292.46863,56,50,0
292.84363,292.96863,48,50,0
293.34363,293.46863,52,50,0
293.34363,293.46863,55,50,0
293.84363,293.96863,41,50,0
294.34363,294.84363,53,50,0
294.34363,294.84363,65,50,0
295.34363,295.84363,65,50,0
295.34363,295.84363,53,50,0
296.34363,296.84363,53,50,0
296.34363,296.84363,65,50,0
297.34363,297.84363,53,50,0
297.34363,297.84363,65,50,0
298.34363,298.84363,53,50,0
298.34363,298.84363,65,50,0
298.84363,298.96863,46,50,0
299.34363,299.46863,55,50,0
299.34363,299.46863,58,50,0
299.84363,299.96863,48,50,0
300.34363,300.46863,53,50,0
300.34363,300.46863,57,50,0
300.84363,300.96863,48,50,0
301.34363,301.46863,52,50,0
301.34363,301.46863,58,50,0
301.84363,301.96863,53,50,0
301.84363,301.96863,57,50,0
302.09363,302.21863,60,50,0
302.34363,302.46863,60,50,0
302.59363,302.71863,60,50,0
302.84363,303.09363,61,60,0
303.09363,303.21863,60,50,0
303.34363,303.46863,60,50,0
303.59363,303.71863,60,50,0
303.84363,303.96863,48,50,0
304.09363,304.21863,60,50,0
304.34363,304.46863,60,50,0
304.59363,304.71863,60,50,0
304.84363,304.96863,48,50,0
305.09363,305.21863,60,50,0
305.34363,305.46863,60,50,0
305.59363,305.71863,60,60,0
305.59363,305.71863,58,60,0
305.59363,305.71863,48,60,0
305.84363,305.96832,53,60,0
305.84363,305.96832,57,60,0
305.84363,305.96832,60,60,0
306.0926,306.21655,60,50,0
306.3401,306.46332,60,50,0
306.58612,306.70856,60,50,0
306.8306,307.07364,61,60,0
307.07364,307.19458,60,50,0
307.31522,307.55542,60,60,0
307.55542,307.67493,63,50,0
307.79413,307.91296,50,50,0
308.03146,308.14963,62,50,0
308.26743,308.38492,62,50,0
308.50204,308.6188,62,50,0
308.73523,308.85138,50,50,0
308.96716,309.08264,62,50,0
309.19772,309.31253,62,50,0
309.427,309.54114,62,60,0
309.427,309.54114,60,60,0
309.427,309.54114,50,60,0
309.65497,309.76846,55,60,0
309.65497,309.76846,58,60,0
309.65497,309.76846,62,60,0
309.8817,309.99457,62,50,0
310.10712,310.21936,62,50,0
310.3313,310.44296,62,50,0
310.55426,310.77603,63,60,0
310.77603,310.88644,62,50,0
310.99652,311.10635,62,50,0
311.21585,311.32513,62,50,0
311.6514,311.86877,61,50,0
311.86877,312.08618,60,50,0
312.08618,312.30356,61,50,0
311.6514,312.30356,58,40,0
311.43402,312.30356,52,60,0
312.52097,312.73834,62,50,0
312.73834,312.95575,60,50,0
312.95575,313.17313,65,50,0
312.52097,313.17313,57,40,0
312.30356,313.17313,53,60,0
313.39053,313.6079,61,50,0
313.6079,313.82532,60,50,0
313.82532,314.0427,61,50,0
313.39053,314.0427,58,40,0
313.17313,314.0427,52,60,0
314.2601,314.47748,62,50,0
314.47748,314.6949,60,50,0
314.6949,314.91226,65,50,0
314.2601,314.91226,57,40,0
314.0427,314.91226,53,60,0
314.91226,315.02097,46,50,0
315.12967,315.56445,58,50,0
315.12967,315.56445,62,50,0
315.56445,315.78183,58,50,0
315.56445,315.78183,62,50,0
315.78183,315.89053,48,50,0
315.99924,316.43402,57,50,0
315.99924,316.43402,60,50,0
316.43402,316.6514,57,50,0
316.43402,316.6514,60,50,0
316.6514,316.7601,48,50,0
316.8688,317.3036,52,58,0
317.3036,317.52097,53,75,0
317.52097,317.62967,55,84,0
316.8688,317.73837,58,58,0
316.8688,317.73837,60,58,0
317.73837,317.95575,53,92,0
317.73837,317.95575,58,92,0
317.73837,317.95575,60,92,0
317.95575,318.17316,52,101,0
317.95575,318.17316,60,101,0
317.95575,318.17316,58,101,0
318.17316,318.39053,48,109,0
318.17316,318.39053,60,109,0
318.17316,318.39053,58,109,0
318.39053,318.51553,53,110,0
318.39053,318.51553,57,110,0
318.39053,318.51553,60,110,0
318.64053,318.76553,41,100,0
318.89053,319.01553,41,100,0
319.14053,319.26553,41,100,0
319.39053,319.64053,40,110,0
319.64053,319.76553,41,100,0
319.89053,320.01553,41,100,0
320.14053,320.26553,41,100,0
320.39053,320.76553,42,110,0
320.76553,320.82803,43,100,0
320.82803,320.89053,45,100,0
320.89053,321.26553,43,110,0
321.26553,321.32803,45,100,0
321.32803,321.39053,46,100,0
321.39053,321.51553,48,100,0
321.64053,321.76553,48,100,0
321.64053,321.76553,55,100,0
321.64053,321.76553,58,100,0
321.89053,322.01553,48,100,0
321.89053,322.01553,55,100,0
321.89053,322.01553,58,100,0
322.14053,322.26553,48,100,0
322.14053,322.26553,55,100,0
322.14053,322.26553,58,100,0
322.39053,322.51553,53,100,0
322.39053,322.51553,57,100,0
322.64053,322.76553,41,100,0
322.89053,323.01553,41,100,0
323.14053,323.26553,41,100,0
323.39053,323.64053,40,110,0
323.64053,323.76553,41,100,0
323.89053,324.01553,41,100,0
324.14053,324.26553,41,100,0
324.39053,324.76553,42,110,0
324.76553,324.82803,43,100,0
324.82803,324.89053,45,100,0
324.89053,325.26553,43,110,0
325.26553,325.32803,45,100,0
325.32803,325.39053,46,100,0
325.39053,325.51553,48,100,0
325.64053,325.76553,45,100,0
325.64053,325.76553,52,100,0
325.64053,325.76553,55,100,0
325.89053,326.01553,45,100,0
325.89053,326.01553,52,100,0
325.89053,326.01553,55,100,0
326.14053,326.26553,45,100,0
326.14053,326.26553,52,100,0
326.14053,326.26553,55,100,0
326.39053,326.51553,50,100,0
326.39053,326.51553,53,100,0
326.64053,326.76553,50,100,0
326.64053,326.76553,46,100,0
326.89053,327.01553,50,100,0
326.89053,327.01553,46,100,0
327.14053,327.26553,50,100,0
327.14053,327.26553,46,100,0
327.39053,327.64053,49,110,0
327.39053,327.64053,45,110,0
327.64053,327.76553,50,100,0
327.64053,327.76553,46,100,0
327.89053,328.01553,50,100,0
327.89053,328.01553,46,100,0
328.14053,328.26553,50,100,0
328.14053,328.26553,46,100,0
328.39053,328.76553,50,110,0
328.76553,328.82803,51,100,0
328.82803,328.89053,53,100,0
328.39053,328.89053,47,110,0
328.89053,329.26553,51,110,0
329.26553,329.32803,53,100,0
329.32803,329.39053,54,100,0
328.89053,329.39053,48,110,0
329.39053,329.51553,48,100,0
329.39053,329.51553,41,100,0
329.64053,329.76553,53,100,0
329.64053,329.76553,60,100,0
329.64053,329.76553,63,100,0
329.89053,330.01553,53,100,0
329.89053,330.01553,60,100,0
329.89053,330.01553,63,100,0
330.14053,330.26553,53,100,0
330.14053,330.26553,60,100,0
330.14053,330.26553,63,100,0
330.39053,330.51553,58,100,0
330.39053,330.51553,62,100,0
330.64053,330.76553,50,100,0
330.64053,330.76553,46,100,0
330.89053,331.01553,50,100,0
330.89053,331.01553,46,100,0
331.14053,331.26553,50,100,0
331.14053,331.26553,46,100,0
331.39053,331.64053,45,110,0
331.39053,331.64053,49,110,0
331.64053,331.76553,46,100,0
331.64053,331.76553,50,100,0
331.89053,332.01553,46,100,0
331.89053,332.01553,50,100,0
332.14053,332.26553,46,100,0
332.14053,332.26553,50,100,0
332.39053,332.64053,44,110,0
332.39053,332.64053,50,110,0
332.39053,332.64053,53,110,0
332.64053,332.76553,53,100,0
332.64053,332.76553,50,100,0
332.64053,332.76553,43,100,0
332.89053,333.01553,53,100,0
332.89053,333.01553,50,100,0
332.89053,333.01553,43,100,0
333.14053,333.26553,53,100,0
333.14053,333.26553,50,100,0
333.14053,333.26553,43,100,0
333.39053,333.51553,48,100,0
333.39053,333.51553,52,100,0
333.64053,333.76553,60,100,0
333.64053,333.76553,64,100,0
333.89053,334.01553,64,100,0
333.89053,334.01553,60,100,0
334.14053,334.26553,64,100,0
334.14053,334.26553,60,100,0
334.39053,334.64053,46,110,0
334.39053,334.64053,52,110,0
334.39053,334.64053,55,110,0
334.64053,334.76553,55,100,0
334.64053,334.76553,52,100,0
334.64053,334.76553,45,100,0
334.89053,335.01553,55,100,0
334.89053,335.01553,52,100,0
334.89053,335.01553,45,100,0
335.14053,335.26553,55,100,0
335.14053,335.26553,52,100,0
335.14053,335.26553,45,100,0
335.39053,335.51553,54,100,0
335.39053,335.51553,50,100,0
335.64053,335.76553,62,100,0
335.64053,335.76553,66,100,0
335.89053,336.01553,62,100,0
335.89053,336.01553,66,100,0
336.14053,336.26553,66,100,0
336.14053,336.26553,62,100,0
336.39053,336.64053,63,110,0
336.39053,336.64053,51,110,0
336.64053,336.76553,62,109,0
336.64053,336.76553,50,109,0
336.89053,337.14053,62,107,0
336.89053,337.14053,50,107,0
337.14053,337.26553,61,106,0
337.14053,337.26553,49,106,0
337.39053,337.64053,61,104,0
337.39053,337.64053,49,104,0
337.64053,337.76553,62,102,0
337.64053,337.76553,50,102,0
337.89053,338.14053,62,101,0
337.89053,338.14053,50,101,0
338.14053,338.26553,57,99,0
338.14053,338.26553,45,99,0
338.39053,338.64053,55,98,0
338.39053,338.64053,43,98,0
338.64053,338.76553,54,96,0
338.64053,338.76553,42,96,0
338.89053,339.14053,54,94,0
338.89053,339.14053,42,94,0
339.14053,339.26553,52,93,0
339.14053,339.26553,40,93,0
339.39053,339.64053,52,91,0
339.39053,339.64053,40,91,0
339.64053,339.76553,50,89,0
339.64053,339.76553,38,89,0
339.89053,340.01553,50,88,0
339.89053,340.01553,38,88,0
340.14053,340.26553,50,86,0
340.14053,340.26553,38,86,0
340.39053,340.64053,51,85,0
340.39053,340.64053,39,85,0
340.64053,340.76553,50,83,0
340.64053,340.76553,38,83,0
340.89053,341.14053,50,81,0
340.89053,341.14053,38,81,0
341.14053,341.26553,49,80,0
341.14053,341.26553,37,80,0
341.39053,341.64053,49,78,0
341.39053,341.64053,37,78,0
341.64053,341.76553,50,76,0
341.64053,341.76553,38,76,0
341.89053,342.14053,50,75,0
341.89053,342.14053,38,75,0
342.14053,342.26553,45,73,0
342.14053,342.26553,33,73,0
342.39053,342.64053,43,72,0
342.64053,342.76553,42,70,0
342.89053,343.14053,42,68,0
343.14053,343.26553,40,67,0
343.39053,343.64053,40,65,0
343.64053,343.76553,38,63,0
343.89053,344.01553,38,62,0
344.14053,344.26553,38,60,0
344.39053,344.64053,38,60,0
344.64053,344.89053,38,60,0
344.89053,345.14053,38,60,0
345.14053,345.39053,38,60,0
345.39053,345.64053,38,60,0
345.64053,345.89053,38,60,0
345.89053,346.14053,38,60,0
346.14053,346.39053,38,60,0
346.39053,346.64053,49,50,0
346.64053,346.76553,48,40,0
346.89053,347.14053,48,40,0
347.14053,347.39053,48,40,0
347.39053,347.64053,48,40,0
347.64053,347.89053,48,40,0
347.89053,348.14053,48,40,0
348.14053,348.39053,48,40,0
348.64053,348.89053,48,40,0
348.89053,349.14053,48,40,0
349.14053,349.39053,48,40,0
349.39053,349.64053,48,40,0
349.64053,349.76553,53,40,0
349.89053,350.14053,53,40,0
350.14053,350.39053,53,40,0
348.39053,350.39053,41,60,0
350.64053,350.89053,53,40,0
350.89053,351.14053,53,40,0
351.14053,351.39053,53,40,0
351.39053,351.64053,53,40,0
351.64053,351.89053,54,40,0
351.89053,352.14053,55,40,0
350.39053,352.14053,46,60,0
352.14053,352.39053,47,60,0
352.14053,352.39053,50,40,0
352.64053,352.89053,48,40,0
352.89053,353.14053,48,40,0
353.14053,353.39053,48,40,0
353.39053,353.64053,48,40,0
353.64053,353.89053,48,40,0
353.89053,354.14053,48,40,0
354.14053,354.39053,48,40,0
352.39053,354.39053,36,60,0
354.64053,354.89053,48,40,0
354.89053,355.14053,48,40,0
355.14053,355.39053,48,40,0
355.39053,355.64053,48,40,0
355.64053,355.89053,48,40,0
354.39053,355.89053,41,60,0
355.89053,356.14053,41,60,0
355.89053,356.14053,48,40,0
356.14053,356.39053,45,60,0
356.14053,356.39053,48,40,0
356.64053,356.89053,48,40,0
356.89053,357.14053,48,40,0
357.14053,357.39053,48,40,0
357.39053,357.64053,48,40,0
357.64053,357.89053,48,40,0
357.89053,358.14053,48,40,0
358.14053,358.39053,48,40,0
356.39053,358.39053,36,60,0
358.64053,358.89053,48,40,0
358.89053,359.14053,45,40,0
359.14053,359.39053,48,40,0
359.39053,359.51553,53,40,0
358.39053,359.64053,41,60,0
360.39053,360.51553,53,80,0
364.39053,364.51553,48,80,0
368.39053,368.51553,48,80,0
376.39053,376.51553,48,80,0
380.39053,380.51553,48,80,0
384.39053,384.51617,48,80,0
386.6649,386.82794,48,80,0
391.8823,393.3823,53,60,0
391.8823,393.3823,65,60,0
391.8823,393.3823,60,60,0
391.8823,393.3823,57,60,0
395.8823,396.3823,41,60,0
399.1323,399.3823,56,60,0
399.1323,399.3823,60,60,0
399.3823,399.6323,60,60,0
399.3823,399.6323,55,60,0
399.6323,399.8823,60,60,0
399.6323,399.8823,53,60,0
399.8823,400.1323,48,60,0
399.8823,400.1323,60,60,0
403.3823,403.6323,56,60,0
403.3823,403.6323,60,60,0
403.6323,403.8823,60,60,0
403.6323,403.8823,55,60,0
403.8823,404.1323,53,60,0
403.8823,404.1323,60,60,0
407.1323,407.3823,63,82,0
407.1323,407.3823,60,82,0
407.3823,407.6323,63,83,0
407.3823,407.6323,58,83,0
407.6323,407.8823,63,85,0
407.6323,407.8823,56,85,0
407.8823,408.1323,63,87,0
407.8823,408.1323,51,87,0
411.3823,411.6323,63,90,0
411.3823,411.6323,60,90,0
411.6323,411.8823,63,89,0
411.6323,411.8823,58,89,0
411.8823,412.1323,56,87,0
411.8823,412.1323,63,87,0
415.1323,415.3823,61,65,0
415.3823,415.6323,60,63,0
415.6323,415.8823,58,61,0
415.8823,416.8823,55,60,0
416.8823,417.1323,56,60,0
421.1323,421.3823,44,60,0
421.3823,421.6323,46,60,0
421.6323,421.8823,47,60,0
421.8823,423.8823,39,60,0
423.8823,424.0073,32,60,0
427.1323,427.2573,60,100,0
427.1323,427.2573,48,100,0
427.3823,427.6323,60,100,0
427.3823,427.6323,48,100,0
427.6323,427.8823,55,100,0
427.6323,427.8823,43,100,0
427.8823,428.3823,56,100,0
427.8823,428.3823,44,100,0
428.3823,428.6323,53,100,0
428.3823,428.6323,41,100,0
431.1323,431.2573,60,100,0
431.1323,431.2573,48,100,0
431.3823,431.6323,60,100,0
431.3823,431.6323,48,100,0
431.6323,431.8823,55,100,0
431.6323,431.8823,43,100,0
431.8823,432.3823,56,100,0
431.8823,432.3823,44,100,0
432.3823,432.6323,53,105,0
432.3823,432.6323,41,105,0
434.3823,435.3823,49,100,0
436.3823,437.3823,49,120,0
438.3823,439.3823,49,110,0
439.3823,439.8823,48,88,0
439.8823,440.1323,47,80,0
442.3823,442.8823,48,75,0
444.3823,444.8823,53,60,0
444.8823,445.1323,50,60,0
446.3823,446.8823,55,60,0
446.8823,447.3823,56,60,0
447.3823,447.8823,55,60,0
448.8823,449.8823,48,60,0
449.8823,450.8823,50,60,0
450.8823,451.8823,52,60,0
451.8823,452.3823,53,60,0
455.1323,455.3823,57,60,0
455.1323,455.3823,60,60,0
455.3823,455.6323,60,60,0
455.3823,455.6323,55,60,0
455.6323,455.8823,60,60,0
455.6323,455.8823,53,60,0
455.8823,456.1323,60,60,0
455.8823,456.1323,48,60,0
459.3823,459.6323,60,60,0
459.3823,459.6323,57,60,0
459.6323,459.8823,55,60,0
459.6323,459.8823,60,60,0
459.8823,460.1323,60,60,0
459.8823,460.1323,53,60,0
463.1323,463.3823,57,93,0
463.1323,463.3823,60,93,0
463.3823,463.6323,58,96,0
463.3823,463.6323,62,96,0
463.6323,463.8823,64,99,0
463.6323,463.8823,55,99,0
463.8823,464.1323,57,100,0
463.8823,464.1323,65,100,0
463.1323,464.1323,53,93,0
467.1323,467.3823,57,78,0
467.1323,467.3823,60,78,0
467.3823,467.6323,58,77,0
467.3823,467.6323,55,77,0
467.6323,467.8823,55,75,0
467.6323,467.8823,48,75,0
467.8823,468.1323,57,73,0
467.8823,468.1323,53,73,0
471.1323,471.3823,57,60,0
471.1323,471.3823,60,60,0
471.3823,471.6323,58,60,0
471.3823,471.6323,62,60,0
471.6323,471.8823,64,60,0
471.6323,471.8823,55,60,0
471.8823,472.1323,57,60,0
471.8823,472.1323,65,60,0
471.1323,472.1323,53,60,0
475.1323,475.3823,57,60,0
475.1323,475.3823,60,60,0
475.3823,475.6323,58,60,0
475.3823,475.6323,55,60,0
475.6323,475.8823,55,60,0
475.6323,475.8823,48,60,0
475.8823,476.3823,53,60,0
475.8823,476.3823,57,60,0
477.1323,477.3823,57,60,0
477.1323,477.3823,60,60,0
477.3823,477.6323,58,60,0
477.3823,477.6323,55,60,0
477.6323,477.8823,55,60,0
477.6323,477.8823,48,60,0
477.8823,478.3823,53,60,0
477.8823,478.3823,57,60,0
479.1323,479.3823,57,60,0
479.1323,479.3823,60,60,0
479.3823,479.6323,58,60,0
479.3823,479.6323,55,60,0
479.6323,479.8823,55,60,0
479.6323,479.8823,48,60,0
479.8823,480.3823,53,60,0
479.8823,480.3823,45,60,0
479.8823,480.3823,41,60,0
482.1323,482.3823,40,68,0
482.3823,482.6323,41,77,0
482.6323,482.8823,44,85,0
482.8823,483.1323,47,94,0
483.1323,483.3823,48,102,0
483.3823,483.6323,53,111,0
483.6323,483.8823,55,119,0
483.8823,485.3823,56,100,0
485.3823,485.8823,43,60,0
485.3823,485.8823,52,60,0
483.8823,485.8823,48,100,0
485.8823,486.3823,44,60,0
486.3823,486.8823,45,60,0
486.8823,487.3823,46,60,0
487.3823,487.8823,48,60,0
487.8823,488.1323,49,60,0
485.8823,488.1323,53,60,0
483.8823,488.1323,41,100,0
488.1323,488.2573,49,65,0
488.1323,488.2573,53,65,0
488.3823,488.5073,51,70,0
488.3823,488.5073,48,70,0
488.6323,488.7573,51,76,0
488.6323,488.7573,48,76,0
488.8823,489.0073,49,81,0
488.8823,489.0073,46,81,0
489.1323,489.2573,49,87,0
489.1323,489.2573,46,87,0
489.3823,489.5073,48,92,0
489.3823,489.5073,44,92,0
489.6323,489.7573,48,98,0
489.6323,489.7573,44,98,0
489.8823,490.0073,46,100,0
489.8823,490.0073,43,100,0
490.3823,490.5073,52,110,0
490.3823,490.5073,61,110,0
490.3823,490.5073,58,110,0
490.3823,490.5073,55,110,0
491.8823,492.3823,53,60,0
491.8823,492.3823,56,60,0
492.8823,493.3823,46,60,0
492.8823,493.3823,49,60,0
492.8823,493.3823,55,60,0
494.04895,494.21564,53,60,0
494.21564,494.3823,55,60,0
494.3823,494.54895,56,60,0
494.54895,494.71564,55,60,0
494.71564,494.8823,53,60,0
493.8823,494.8823,48,70,0
494.8823,495.3823,58,60,0
495.3823,495.6323,56,60,0
495.6323,495.8823,55,60,0
494.8823,495.8823,48,70,0
496.04895,496.21564,53,40,0
496.21564,496.3823,55,40,0
496.3823,496.54895,56,40,0
496.54895,496.71564,55,40,0
496.71564,496.8823,53,40,0
495.8823,496.8823,48,50,0
496.8823,497.3823,58,40,0
497.3823,497.6323,56,40,0
497.6323,497.8823,55,40,0
496.8823,497.8823,48,50,0
497.8823,498.3823,53,40,0
497.8823,498.3823,41,40,0
498.8823,499.3823,41,40,0
498.8823,499.3823,48,40,0
498.8823,499.3823,53,40,0
499.8823,500.8823,41,50,0
499.8823,500.8823,48,50,0
499.8823,500.8823,53,50,0
