start_time,end_time,note_value,velocity,instrument_program_number
0.90909,1.363635,63,50,0
1.363635,1.81818,68,52,0
1.363635,1.81818,63,42,0
1.363635,1.81818,60,42,0
1.81818,2.4999976,68,54,0
2.4999976,2.72727,70,57,0
1.81818,2.72727,63,44,0
1.81818,2.72727,60,44,0
2.72727,3.181815,68,58,0
2.72727,3.181815,63,48,0
2.72727,3.181815,61,48,0
3.181815,3.8636324,67,60,0
3.8636324,4.090905,70,64,0
3.181815,4.090905,63,50,0
3.181815,4.090905,61,50,0
4.090905,4.54545,70,65,0
4.54545,4.999995,68,67,0
4.54545,4.999995,63,57,0
4.999995,5.45454,70,69,0
4.999995,5.45454,63,59,0
4.999995,5.45454,61,59,0
5.45454,6.36363,72,71,0
5.45454,6.36363,63,61,0
5.45454,6.36363,60,61,0
6.36363,6.818175,63,76,0
6.818175,7.27272,72,78,0
6.818175,7.27272,60,68,0
6.818175,7.27272,63,68,0
7.27272,7.9545374,72,80,0
7.27272,7.9545374,60,70,0
7.27272,7.9545374,63,70,0
7.9545374,8.18181,73,83,0
7.9545374,8.18181,63,73,0
7.9545374,8.18181,61,73,0
8.18181,8.636355,72,84,0
8.18181,8.636355,60,74,0
8.18181,8.636355,63,74,0
8.636355,9.318172,70,87,0
8.636355,9.318172,58,77,0
8.636355,9.318172,63,77,0
9.318172,9.545445,72,90,0
9.318172,9.545445,60,80,0
9.318172,9.545445,63,80,0
9.545445,9.99999,70,90,0
9.545445,9.99999,58,80,0
9.545445,9.99999,63,80,0
9.99999,10.454535,68,76,0
9.99999,10.454535,63,66,0
9.99999,10.454535,56,66,0
10.454535,10.795444,75,61,0
10.795444,10.90908,73,50,0
10.454535,10.90908,63,51,0
10.454535,10.90908,70,51,0
10.90908,11.81817,72,50,0
10.90908,11.81817,63,40,0
10.90908,11.81817,68,40,0
11.81817,12.272715,75,50,0
12.272715,12.72726,80,52,0
12.272715,12.72726,75,42,0
12.272715,12.72726,72,42,0
12.72726,13.409078,80,54,0
13.409078,13.63635,82,57,0
12.72726,13.63635,72,44,0
12.72726,13.63635,75,44,0
13.63635,14.090895,80,58,0
13.63635,14.090895,75,48,0
13.63635,14.090895,73,48,0
14.090895,14.772713,79,60,0
14.772713,14.999985,82,64,0
14.090895,14.999985,75,50,0
14.090895,14.999985,73,50,0
14.999985,15.45453,82,65,0
15.45453,15.909075,80,67,0
15.45453,15.909075,75,57,0
15.909075,16.36362,82,69,0
15.909075,16.36362,75,59,0
15.909075,16.36362,73,59,0
16.36362,17.27271,84,71,0
16.36362,17.27271,72,61,0
16.36362,17.27271,75,61,0
17.27271,17.727255,75,76,0
17.727255,18.1818,84,78,0
17.727255,18.1818,75,68,0
17.727255,18.1818,72,68,0
18.1818,18.863617,84,80,0
18.863617,19.09089,85,83,0
18.1818,19.09089,72,70,0
18.1818,19.09089,75,70,0
19.09089,19.545435,84,84,0
19.09089,19.545435,76,74,0
19.09089,19.545435,72,74,0
19.545435,20.227253,82,87,0
20.227253,20.454525,84,90,0
19.545435,20.454525,72,77,0
19.545435,20.454525,76,77,0
20.454525,20.90907,82,90,0
20.454525,20.90907,77,80,0
20.454525,20.90907,72,80,0
20.90907,21.136343,80,76,0
21.136343,21.193161,82,68,0
21.193161,21.249979,80,66,0
21.249979,21.306797,79,64,0
21.306797,21.363615,80,62,0
20.90907,21.363615,72,66,0
20.90907,21.363615,77,66,0
21.363615,21.704523,84,61,0
21.704523,21.81816,82,50,0
21.363615,21.81816,79,51,0
21.363615,21.81816,73,51,0
21.81816,22.72725,80,50,0
21.81816,22.72725,72,40,0
22.72725,23.181795,63,50,0
23.181795,23.63634,68,52,0
23.181795,23.63634,63,42,0
23.181795,23.63634,60,42,0
23.63634,24.318157,68,54,0
24.318157,24.54543,70,57,0
23.63634,24.54543,63,44,0
23.63634,24.54543,60,44,0
24.54543,24.999975,68,58,0
24.54543,24.999975,63,48,0
24.54543,24.999975,61,48,0
24.999975,25.681793,67,60,0
25.681793,25.909065,70,64,0
24.999975,25.909065,63,50,0
24.999975,25.909065,61,50,0
25.909065,26.36361,70,65,0
26.36361,26.818155,68,67,0
26.36361,26.818155,63,57,0
26.818155,27.2727,70,69,0
26.818155,27.2727,63,59,0
26.818155,27.2727,61,59,0
27.2727,28.18179,72,71,0
27.2727,28.18179,63,61,0
27.2727,28.18179,60,61,0
28.18179,28.636335,63,76,0
28.636335,29.09088,72,78,0
28.636335,29.09088,60,68,0
28.636335,29.09088,63,68,0
29.09088,29.772697,72,80,0
29.09088,29.772697,60,70,0
29.09088,29.772697,63,70,0
29.772697,29.99997,73,83,0
29.772697,29.99997,63,73,0
29.772697,29.99997,61,73,0
29.99997,30.454515,72,84,0
29.99997,30.454515,60,74,0
29.99997,30.454515,63,74,0
30.454515,31.136332,70,87,0
30.454515,31.136332,58,77,0
30.454515,31.136332,63,77,0
31.136332,31.363605,72,90,0
31.136332,31.363605,60,80,0
31.136332,31.363605,63,80,0
31.363605,31.81815,70,90,0
31.363605,31.81815,58,80,0
31.363605,31.81815,63,80,0
31.81815,32.272694,68,76,0
31.81815,32.272694,63,66,0
31.81815,32.272694,56,66,0
32.272694,32.613605,75,61,0
32.613605,32.72724,73,50,0
32.272694,32.72724,63,51,0
32.272694,32.72724,70,51,0
32.72724,33.63633,72,50,0
32.72724,33.63633,63,40,0
32.72724,33.63633,68,40,0
33.63633,34.090874,75,50,0
34.090874,34.54542,80,52,0
34.090874,34.54542,75,42,0
34.090874,34.54542,72,42,0
34.54542,35.227238,80,54,0
35.227238,35.45451,82,57,0
34.54542,35.45451,72,44,0
34.54542,35.45451,75,44,0
35.45451,35.909054,80,58,0
35.45451,35.909054,75,48,0
35.45451,35.909054,73,48,0
35.909054,36.590874,79,60,0
36.590874,36.818146,82,64,0
35.909054,36.818146,75,50,0
35.909054,36.818146,73,50,0
36.818146,37.27269,82,65,0
37.27269,37.727234,80,67,0
37.27269,37.727234,75,57,0
37.727234,38.18178,82,69,0
37.727234,38.18178,75,59,0
37.727234,38.18178,73,59,0
38.18178,39.09087,84,71,0
38.18178,39.09087,72,61,0
38.18178,39.09087,75,61,0
39.09087,39.545414,75,76,0
39.545414,39.99996,84,78,0
39.545414,39.99996,75,68,0
39.545414,39.99996,72,68,0
39.99996,40.681778,84,80,0
40.681778,40.90905,85,83,0
39.99996,40.90905,72,70,0
39.99996,40.90905,75,70,0
40.90905,41.363594,84,84,0
40.90905,41.363594,76,74,0
40.90905,41.363594,72,74,0
41.363594,42.045414,82,87,0
42.045414,42.272686,84,90,0
41.363594,42.272686,72,77,0
41.363594,42.272686,76,77,0
42.272686,42.72723,82,90,0
42.272686,42.72723,77,80,0
42.272686,42.72723,72,80,0
42.72723,42.954502,80,76,0
42.954502,43.011322,82,68,0
43.011322,43.06814,80,66,0
43.06814,43.124958,79,64,0
43.124958,43.181774,80,62,0
42.72723,43.181774,72,66,0
42.72723,43.181774,77,66,0
43.181774,43.522682,84,61,0
43.522682,43.63632,82,50,0
43.181774,43.63632,79,51,0
43.181774,43.63632,73,51,0
43.63632,44.54541,80,50,0
43.63632,44.54541,72,40,0
44.772682,44.999954,75,100,0
44.772682,44.999954,68,100,0
44.772682,44.999954,63,100,0
44.999954,45.4545,75,100,0
44.999954,45.4545,68,100,0
44.999954,45.4545,63,100,0
45.4545,46.13632,75,100,0
45.4545,46.13632,68,100,0
45.4545,46.13632,63,100,0
46.13632,46.36359,60,100,0
46.13632,46.36359,63,100,0
46.13632,46.36359,72,100,0
46.36359,46.818134,60,100,0
46.36359,46.818134,63,100,0
46.36359,46.818134,72,100,0
46.818134,47.499954,60,100,0
46.818134,47.499954,63,100,0
46.818134,47.499954,72,100,0
47.499954,47.727226,60,100,0
47.499954,47.727226,65,100,0
47.499954,47.727226,68,100,0
47.727226,47.840862,60,100,0
47.727226,47.840862,65,100,0
47.727226,47.840862,68,100,0
48.18177,48.295406,61,100,0
48.18177,48.295406,63,100,0
48.18177,48.295406,70,100,0
48.636314,48.74995,61,100,0
48.636314,48.74995,67,100,0
48.636314,48.74995,73,100,0
48.636314,48.74995,70,100,0
48.636314,48.74995,63,100,0
49.09086,50.227222,60,100,0
49.09086,50.227222,72,100,0
49.09086,50.227222,68,100,0
49.09086,50.227222,63,100,0
50.227222,50.454494,65,110,0
50.227222,50.454494,68,110,0
50.227222,50.454494,77,110,0
50.454494,50.90904,65,110,0
50.454494,50.90904,68,110,0
50.454494,50.90904,77,110,0
50.90904,51.59086,65,110,0
50.90904,51.59086,68,110,0
50.90904,51.59086,77,110,0
51.59086,51.81813,65,110,0
51.59086,51.81813,68,110,0
51.59086,51.81813,73,110,0
51.81813,52.272675,65,110,0
51.81813,52.272675,68,110,0
51.81813,52.272675,73,110,0
52.272675,52.95449,65,110,0
52.272675,52.95449,68,110,0
52.272675,52.95449,73,110,0
52.95449,53.181767,65,110,0
52.95449,53.181767,68,110,0
53.181767,53.295403,65,110,0
53.181767,53.295403,68,110,0
53.63631,53.749947,66,110,0
53.63631,53.749947,69,110,0
53.63631,53.749947,73,110,0
54.090855,54.20449,66,110,0
54.090855,54.20449,78,110,0
54.090855,54.20449,73,110,0
54.090855,54.20449,69,110,0
54.5454,55.681763,65,110,0
54.5454,55.681763,77,110,0
54.5454,55.681763,73,110,0
54.5454,55.681763,68,110,0
55.681763,55.909035,66,110,0
55.681763,55.909035,73,110,0
55.681763,55.909035,78,110,0
55.909035,57.27267,66,110,0
55.909035,57.27267,73,110,0
55.909035,57.27267,78,110,0
57.27267,57.73479,76,60,0
57.73479,58.215744,75,60,0
57.27267,58.215744,73,60,0
58.215744,58.463787,73,60,0
57.27267,58.463787,67,60,0
58.463787,58.58981,68,60,0
58.463787,58.58981,61,60,0
58.717197,59.239616,68,110,0
59.239616,59.509777,70,93,0
59.509777,59.786312,68,85,0
59.786312,60.069477,67,76,0
60.069477,60.359657,68,68,0
60.286434,60.359657,68,61,0
58.717197,60.359657,61,110,0
60.359657,60.96057,72,60,0
60.96057,61.593834,70,58,0
61.593834,62.263138,68,55,0
60.359657,62.263138,62,60,0
62.263138,62.970318,63,53,0
62.970318,64.52659,63,50,0
62.263138,64.52659,60,53,0
62.263138,64.52659,56,53,0
64.52659,65.359924,63,45,0
65.359924,66.609924,63,42,0
64.52659,66.609924,61,45,0
64.52659,66.609924,58,45,0
64.52659,66.609924,55,45,0
66.609924,67.06447,63,50,0
67.06447,67.51901,68,52,0
67.06447,67.51901,60,42,0
67.06447,67.51901,63,42,0
67.51901,68.20083,68,54,0
68.20083,68.4281,70,57,0
67.51901,68.4281,60,44,0
67.51901,68.4281,63,44,0
68.4281,68.882645,68,58,0
68.4281,68.882645,63,48,0
68.4281,68.882645,61,48,0
68.882645,69.56447,67,60,0
69.56447,69.79174,70,64,0
68.882645,69.79174,63,50,0
68.882645,69.79174,61,50,0
69.79174,70.246284,70,65,0
70.246284,70.70083,68,67,0
70.246284,70.70083,63,57,0
70.70083,71.15537,70,69,0
70.70083,71.15537,63,59,0
70.70083,71.15537,61,59,0
71.15537,72.06446,72,71,0
71.15537,72.06446,60,61,0
71.15537,72.06446,63,61,0
72.06446,72.519005,63,76,0
72.519005,72.97355,72,78,0
72.519005,72.97355,60,68,0
72.519005,72.97355,63,68,0
72.97355,73.65537,72,80,0
72.97355,73.65537,60,70,0
72.97355,73.65537,63,70,0
73.65537,73.882645,70,83,0
73.65537,73.882645,61,73,0
73.65537,73.882645,58,73,0
73.882645,74.33719,70,84,0
73.882645,74.33719,58,74,0
73.882645,74.33719,61,74,0
74.33719,75.019005,69,87,0
74.33719,75.019005,57,77,0
74.33719,75.019005,60,77,0
75.019005,75.24628,70,90,0
75.019005,75.24628,58,80,0
75.019005,75.24628,61,80,0
75.24628,75.70082,70,90,0
75.24628,75.70082,58,80,0
75.24628,75.70082,61,80,0
75.70082,76.155365,68,76,0
75.70082,76.155365,60,66,0
75.70082,76.155365,56,66,0
76.155365,76.269005,67,61,0
76.155365,76.269005,55,51,0
76.155365,76.269005,58,51,0
76.60991,77.519005,68,50,0
76.60991,77.519005,56,40,0
76.60991,77.519005,60,40,0
77.519005,77.97355,75,50,0
77.97355,78.42809,80,52,0
77.97355,78.42809,72,42,0
77.97355,78.42809,75,42,0
78.42809,79.10991,80,54,0
79.10991,79.33718,82,57,0
78.42809,79.33718,72,44,0
78.42809,79.33718,75,44,0
79.33718,79.791725,80,58,0
79.33718,79.791725,75,48,0
79.33718,79.791725,73,48,0
79.791725,80.47354,79,60,0
80.47354,80.70082,82,64,0
79.791725,80.70082,75,50,0
79.791725,80.70082,73,50,0
80.70082,81.155365,82,65,0
81.155365,81.60991,80,67,0
81.155365,81.60991,75,57,0
81.60991,82.06445,82,69,0
81.60991,82.06445,75,59,0
81.60991,82.06445,73,59,0
82.06445,82.97354,84,71,0
82.06445,82.97354,72,61,0
82.06445,82.97354,75,61,0
82.97354,83.428085,75,76,0
83.428085,83.88263,84,78,0
83.428085,83.88263,75,68,0
83.428085,83.88263,72,68,0
83.88263,84.56445,84,80,0
83.88263,84.56445,72,70,0
83.88263,84.56445,75,70,0
84.56445,84.791725,82,83,0
84.56445,84.791725,70,73,0
84.56445,84.791725,73,73,0
84.791725,85.24627,82,84,0
84.791725,85.24627,70,74,0
84.791725,85.24627,73,74,0
85.24627,85.928085,81,87,0
85.24627,85.928085,69,77,0
85.24627,85.928085,72,77,0
85.928085,86.15536,82,90,0
85.928085,86.15536,70,80,0
85.928085,86.15536,73,80,0
86.15536,86.6099,82,90,0
86.15536,86.6099,70,80,0
86.15536,86.6099,73,80,0
86.6099,87.064445,80,76,0
86.6099,87.064445,68,66,0
86.6099,87.064445,72,66,0
87.064445,87.178085,79,61,0
87.064445,87.178085,67,51,0
87.064445,87.178085,70,51,0
87.51899,88.428085,80,50,0
87.51899,88.428085,68,40,0
87.51899,88.428085,72,40,0
88.65536,88.88263,75,100,0
88.65536,88.88263,68,100,0
88.65536,88.88263,63,100,0
88.88263,89.33717,75,100,0
88.88263,89.33717,68,100,0
88.88263,89.33717,63,100,0
89.33717,90.01899,75,100,0
89.33717,90.01899,68,100,0
89.33717,90.01899,63,100,0
90.01899,90.24626,60,100,0
90.01899,90.24626,63,100,0
90.01899,90.24626,72,100,0
90.24626,90.700806,60,100,0
90.24626,90.700806,63,100,0
90.24626,90.700806,72,100,0
90.700806,91.38262,60,100,0
90.700806,91.38262,63,100,0
90.700806,91.38262,72,100,0
91.38262,91.60989,60,100,0
91.38262,91.60989,65,100,0
91.38262,91.60989,68,100,0
91.60989,91.72353,60,100,0
91.60989,91.72353,65,100,0
91.60989,91.72353,68,100,0
92.064445,92.17808,61,100,0
92.064445,92.17808,63,100,0
92.064445,92.17808,70,100,0
92.51899,92.63262,61,100,0
92.51899,92.63262,67,100,0
92.51899,92.63262,73,100,0
92.51899,92.63262,70,100,0
92.51899,92.63262,63,100,0
92.97353,94.10989,60,100,0
92.97353,94.10989,72,100,0
92.97353,94.10989,68,100,0
92.97353,94.10989,63,100,0
94.10989,94.337166,65,110,0
94.10989,94.337166,68,110,0
94.10989,94.337166,77,110,0
94.337166,94.79171,65,110,0
94.337166,94.79171,68,110,0
94.337166,94.79171,77,110,0
94.79171,95.47353,65,110,0
94.79171,95.47353,68,110,0
94.79171,95.47353,77,110,0
95.47353,95.700806,65,110,0
95.47353,95.700806,68,110,0
95.47353,95.700806,73,110,0
95.700806,96.15535,65,110,0
95.700806,96.15535,68,110,0
95.700806,96.15535,73,110,0
96.15535,96.837166,65,110,0
96.15535,96.837166,68,110,0
96.15535,96.837166,73,110,0
96.837166,97.06444,65,110,0
96.837166,97.06444,68,110,0
97.06444,97.17807,65,110,0
97.06444,97.17807,68,110,0
97.51898,97.63262,66,110,0
97.51898,97.63262,69,110,0
97.51898,97.63262,73,110,0
97.973526,98.087166,66,110,0
97.973526,98.087166,78,110,0
97.973526,98.087166,73,110,0
97.973526,98.087166,69,110,0
98.42807,99.56444,65,110,0
98.42807,99.56444,77,110,0
98.42807,99.56444,73,110,0
98.42807,99.56444,68,110,0
99.56444,99.79171,66,110,0
99.56444,99.79171,73,110,0
99.56444,99.79171,78,110,0
99.79171,101.15534,66,110,0
99.79171,101.15534,73,110,0
99.79171,101.15534,78,110,0
101.15534,101.61746,76,60,0
101.61746,102.09842,75,60,0
101.15534,102.09842,73,60,0
102.09842,102.34646,73,60,0
101.15534,102.34646,67,60,0
102.34646,102.47248,68,60,0
102.34646,102.47248,61,60,0
102.59987,103.122284,68,110,0
103.122284,103.39245,70,93,0
103.39245,103.66898,68,85,0
103.66898,103.95215,67,76,0
103.95215,104.24233,68,68,0
104.169106,104.24233,68,61,0
102.59987,104.24233,61,110,0
104.24233,104.84324,72,60,0
104.84324,105.47651,70,58,0
105.47651,106.14581,68,55,0
104.24233,106.14581,62,60,0
106.14581,106.85299,63,53,0
106.85299,108.40926,63,50,0
106.14581,108.40926,60,53,0
106.14581,108.40926,56,53,0
108.40926,109.24259,63,45,0
109.24259,110.49259,63,42,0
108.40926,110.49259,61,45,0
108.40926,110.49259,58,45,0
108.40926,110.49259,55,45,0
110.49259,110.947136,63,50,0
110.947136,111.40169,68,52,0
110.947136,111.40169,60,42,0
110.947136,111.40169,63,42,0
111.40169,112.0835,68,54,0
112.0835,112.310776,70,57,0
111.40169,112.310776,60,44,0
111.40169,112.310776,63,44,0
112.310776,112.76532,68,58,0
112.310776,112.76532,63,48,0
112.310776,112.76532,61,48,0
112.76532,113.447136,67,60,0
113.447136,113.67441,70,64,0
112.76532,113.67441,63,50,0
112.76532,113.67441,61,50,0
113.67441,114.12895,70,65,0
114.12895,114.583496,68,67,0
114.12895,114.583496,63,57,0
114.583496,115.03805,70,69,0
114.583496,115.03805,63,59,0
114.583496,115.03805,61,59,0
115.03805,115.947136,72,71,0
115.03805,115.947136,60,61,0
115.03805,115.947136,63,61,0
115.947136,116.40168,63,76,0
116.40168,116.856224,72,78,0
116.40168,116.856224,60,68,0
116.40168,116.856224,63,68,0
116.856224,117.53804,72,80,0
116.856224,117.53804,60,70,0
116.856224,117.53804,63,70,0
117.53804,117.76531,70,83,0
117.53804,117.76531,61,73,0
117.53804,117.76531,58,73,0
117.76531,118.21986,70,84,0
117.76531,118.21986,58,74,0
117.76531,118.21986,61,74,0
118.21986,118.90168,69,87,0
118.21986,118.90168,57,77,0
118.21986,118.90168,60,77,0
118.90168,119.12895,70,90,0
118.90168,119.12895,58,80,0
118.90168,119.12895,61,80,0
119.12895,119.583496,70,90,0
119.12895,119.583496,58,80,0
119.12895,119.583496,61,80,0
119.583496,120.03804,68,76,0
119.583496,120.03804,60,66,0
119.583496,120.03804,56,66,0
120.03804,120.15167,67,61,0
120.03804,120.15167,55,51,0
120.03804,120.15167,58,51,0
120.492584,121.40167,68,50,0
120.492584,121.40167,56,40,0
120.492584,121.40167,60,40,0
121.40167,121.85622,75,50,0
121.85622,122.31077,80,52,0
121.85622,122.31077,72,42,0
121.85622,122.31077,75,42,0
122.31077,122.992584,80,54,0
122.992584,123.21986,82,57,0
122.31077,123.21986,72,44,0
122.31077,123.21986,75,44,0
123.21986,123.6744,80,58,0
123.21986,123.6744,75,48,0
123.21986,123.6744,73,48,0
123.6744,124.35622,79,60,0
124.35622,124.58349,82,64,0
123.6744,124.58349,75,50,0
123.6744,124.58349,73,50,0
124.58349,125.03803,82,65,0
125.03803,125.49258,80,67,0
125.03803,125.49258,75,57,0
125.49258,125.94713,82,69,0
125.49258,125.94713,75,59,0
125.49258,125.94713,73,59,0
125.94713,126.85622,84,71,0
125.94713,126.85622,72,61,0
125.94713,126.85622,75,61,0
126.85622,127.31076,75,76,0
127.31076,127.765305,84,78,0
127.31076,127.765305,75,68,0
127.31076,127.765305,72,68,0
127.765305,128.44713,84,80,0
127.765305,128.44713,72,70,0
127.765305,128.44713,75,70,0
128.44713,128.6744,82,83,0
128.44713,128.6744,70,73,0
128.44713,128.6744,73,73,0
128.6744,129.12894,82,84,0
128.6744,129.12894,70,74,0
128.6744,129.12894,73,74,0
129.12894,129.81076,81,87,0
129.12894,129.81076,69,77,0
129.12894,129.81076,72,77,0
129.81076,130.03802,82,90,0
129.81076,130.03802,70,80,0
129.81076,130.03802,73,80,0
130.03802,130.49257,82,90,0
130.03802,130.49257,70,80,0
130.03802,130.49257,73,80,0
130.49257,130.94711,80,76,0
130.49257,130.94711,68,66,0
130.49257,130.94711,72,66,0
130.94711,131.06076,79,61,0
130.94711,131.06076,67,51,0
130.94711,131.06076,70,51,0
131.40166,132.31076,80,50,0
131.40166,132.31076,68,40,0
131.40166,132.31076,72,40,0
132.31076,132.7653,56,60,0
132.7653,132.91681,53,60,0
132.91681,133.06833,56,60,0
133.06833,133.21985,61,60,0
133.21985,133.37135,65,60,0
133.37135,133.52287,61,60,0
133.52287,133.6744,56,60,0
133.6744,133.8259,53,60,0
133.8259,133.97742,56,60,0
133.97742,134.12894,61,60,0
134.12894,134.28046,56,60,0
134.28046,134.43196,61,60,0
134.43196,134.58348,65,60,0
134.58348,134.735,68,60,0
134.735,134.8865,65,60,0
134.8865,135.03802,61,60,0
135.03802,135.18954,56,60,0
135.18954,135.34105,61,60,0
135.34105,135.49257,65,60,0
135.49257,135.64409,62,60,0
135.64409,135.7956,65,60,0
135.7956,135.94711,68,60,0
135.94711,136.09863,63,60,0
136.09863,136.25014,66,60,0
136.25014,136.40166,68,60,0
136.40166,136.55318,63,60,0
136.55318,136.7047,66,60,0
136.7047,136.8562,69,60,0
136.8562,137.00772,60,60,0
137.00772,137.15924,66,60,0
137.15924,137.31075,70,61,0
137.31075,137.46227,60,61,0
137.46227,137.61378,65,62,0
137.61378,137.76529,68,62,0
137.76529,137.91681,60,63,0
137.91681,138.06833,63,64,0
138.06833,138.21983,66,64,0
138.21983,138.37135,65,65,0
138.37135,138.52287,68,65,0
138.52287,138.67438,73,66,0
138.67438,138.8259,77,67,0
138.8259,138.97742,73,67,0
138.97742,139.12894,68,68,0
139.12894,139.28044,65,68,0
139.28044,139.43196,68,69,0
139.43196,139.58348,73,69,0
139.58348,139.73499,68,70,0
139.73499,139.8865,73,71,0
139.8865,140.03802,77,71,0
140.03802,140.18953,80,72,0
140.18953,140.34105,77,72,0
140.34105,140.49257,73,73,0
140.49257,140.64407,68,74,0
140.64407,140.7956,73,74,0
140.7956,140.94711,77,75,0
140.94711,141.09862,73,75,0
141.09862,141.25014,77,76,0
141.25014,141.40166,80,77,0
141.40166,141.55318,75,77,0
141.55318,141.70468,78,78,0
141.70468,141.8562,80,78,0
141.8562,142.00772,75,79,0
142.00772,142.15923,78,79,0
142.15923,142.31075,81,80,0
142.31075,142.46227,72,80,0
142.46227,142.61377,78,79,0
142.61377,142.76529,82,77,0
142.76529,142.91681,72,76,0
142.91681,143.06831,77,74,0
143.06831,143.21983,80,73,0
143.21983,143.37135,72,71,0
143.37135,143.52286,75,70,0
143.52286,143.67438,78,68,0
143.67438,143.8259,72,67,0
143.8259,143.97742,75,65,0
143.97742,144.12892,77,64,0
144.12892,144.28044,70,62,0
144.28044,144.43196,73,61,0
144.43196,144.58347,77,59,0
144.58347,144.73499,68,57,0
144.73499,144.8865,72,56,0
144.8865,145.03801,77,54,0
145.03801,145.18953,68,53,0
145.18953,145.34105,70,51,0
145.34105,145.49255,77,50,0
145.49255,145.64407,66,48,0
145.64407,145.7956,70,47,0
145.7956,145.9471,75,45,0
145.9471,146.09862,65,44,0
146.09862,146.25014,70,42,0
146.25014,146.40166,73,41,0
146.40166,146.55316,63,40,0
146.55316,146.70468,68,40,0
146.70468,146.8562,72,40,0
146.8562,147.0077,65,40,0
147.0077,147.15923,68,40,0
147.15923,147.31075,73,40,0
147.31075,147.46225,66,40,0
147.46225,147.61377,68,40,0
147.61377,147.76529,75,40,0
147.76529,147.9168,65,40,0
147.9168,148.06831,68,40,0
148.06831,148.21983,73,40,0
148.21983,148.37134,68,40,0
148.37134,148.52286,65,40,0
148.52286,148.67438,61,40,0
148.67438,148.8259,65,40,0
148.8259,148.9774,61,40,0
148.9774,149.12892,56,40,0
149.12892,149.28044,53,60,0
149.28044,149.43195,56,60,0
149.43195,149.58347,61,60,0
149.58347,149.73499,65,60,0
149.73499,149.88649,61,60,0
149.88649,150.03801,56,60,0
150.03801,150.18953,53,60,0
150.18953,150.34103,56,60,0
150.34103,150.49255,61,60,0
150.49255,150.64407,56,60,0
150.64407,150.79558,61,60,0
150.79558,150.9471,65,60,0
150.9471,151.09862,68,60,0
151.09862,151.25012,65,60,0
151.25012,151.40164,61,60,0
151.40164,151.55316,56,60,0
151.55316,151.70468,61,60,0
151.70468,151.85619,65,60,0
151.85619,152.0077,62,60,0
152.0077,152.15923,65,60,0
152.15923,152.31073,68,60,0
152.31073,152.46225,63,60,0
152.46225,152.61377,66,60,0
152.61377,152.76527,68,60,0
152.76527,152.9168,63,60,0
152.9168,153.06831,66,60,0
153.06831,153.21982,69,60,0
153.21982,153.37134,60,60,0
153.37134,153.52286,66,60,0
153.52286,153.67436,70,61,0
153.67436,153.82588,60,61,0
153.82588,153.9774,65,62,0
153.9774,154.12892,68,62,0
154.12892,154.28043,60,63,0
154.28043,154.43195,63,64,0
154.43195,154.58347,66,64,0
154.58347,154.73497,65,65,0
154.73497,154.88649,68,65,0
154.88649,155.03801,73,66,0
155.03801,155.18951,77,67,0
155.18951,155.34103,73,67,0
155.34103,155.49255,68,68,0
155.49255,155.64406,65,68,0
155.64406,155.79558,68,69,0
155.79558,155.9471,73,69,0
155.9471,156.0986,68,70,0
156.0986,156.25012,73,71,0
156.25012,156.40164,77,71,0
156.40164,156.55316,80,72,0
156.55316,156.70467,77,72,0
156.70467,156.85619,73,73,0
156.85619,157.0077,68,74,0
157.0077,157.15921,73,74,0
157.15921,157.31073,77,75,0
157.31073,157.46225,73,75,0
157.46225,157.61375,77,76,0
157.61375,157.76527,80,77,0
157.76527,157.9168,75,77,0
157.9168,158.0683,78,78,0
158.0683,158.21982,80,78,0
158.21982,158.37134,75,79,0
158.37134,158.52284,78,79,0
158.52284,158.67436,81,80,0
158.67436,158.82588,72,80,0
158.82588,158.9774,78,79,0
158.9774,159.1289,82,77,0
159.1289,159.28043,72,76,0
159.28043,159.43195,77,74,0
159.43195,159.58345,80,73,0
159.58345,159.73497,72,71,0
159.73497,159.88649,75,70,0
159.88649,160.038,78,68,0
160.038,160.18951,72,67,0
160.18951,160.34103,75,65,0
160.34103,160.49254,77,64,0
160.49254,160.64406,70,62,0
160.64406,160.79558,73,61,0
160.79558,160.94708,77,59,0
160.94708,161.0986,68,57,0
161.0986,161.25012,72,56,0
161.25012,161.40164,77,54,0
161.40164,161.55315,68,53,0
161.55315,161.70467,70,51,0
161.70467,161.85619,77,50,0
161.85619,162.00769,66,48,0
162.00769,162.15921,70,47,0
162.15921,162.31073,75,45,0
162.31073,162.46223,65,44,0
162.46223,162.61375,70,42,0
162.61375,162.76527,73,41,0
162.76527,162.91678,63,40,0
162.91678,163.0683,68,40,0
163.0683,163.21982,72,40,0
163.21982,163.37132,65,40,0
163.37132,163.52284,68,40,0
163.52284,163.67436,73,40,0
163.67436,163.82588,66,40,0
163.82588,163.97739,68,40,0
163.97739,164.1289,75,40,0
164.1289,164.28043,65,40,0
164.28043,164.43193,68,40,0
164.43193,164.58345,73,40,0
164.58345,164.73497,68,40,0
164.73497,164.88647,65,40,0
164.88647,165.038,61,40,0
165.038,165.18951,65,40,0
165.18951,165.34102,61,40,0
165.34102,165.49254,56,40,0
165.49254,165.64406,52,100,0
165.64406,165.79556,56,100,0
165.79556,165.94708,61,100,0
165.94708,166.0986,64,100,0
166.0986,166.25012,61,100,0
166.25012,166.40163,56,100,0
166.40163,166.55315,52,100,0
166.55315,166.70467,56,100,0
166.70467,166.85617,61,100,0
166.85617,167.00769,56,100,0
167.00769,167.15921,61,100,0
167.15921,167.31071,64,100,0
167.31071,167.46223,68,100,0
167.46223,167.61375,64,100,0
167.61375,167.76526,61,100,0
167.76526,167.91678,56,100,0
167.91678,168.0683,61,100,0
168.0683,168.2198,64,100,0
168.2198,168.37132,62,100,0
168.37132,168.52284,65,100,0
168.52284,168.67436,68,100,0
168.67436,168.82587,63,100,0
168.82587,168.97739,66,100,0
168.97739,169.1289,68,100,0
169.1289,169.28041,61,100,0
169.28041,169.43193,65,100,0
169.43193,169.58345,68,100,0
169.58345,169.73495,63,100,0
169.73495,169.88647,66,100,0
169.88647,170.038,69,100,0
170.038,170.1895,60,100,0
170.1895,170.34102,64,100,0
170.34102,170.49254,68,100,0
170.49254,170.64404,60,100,0
170.64404,170.79556,63,100,0
170.79556,170.94708,66,100,0
170.94708,171.0986,64,100,0
171.0986,171.2501,68,100,0
171.2501,171.40163,73,100,0
171.40163,171.55315,76,100,0
171.55315,171.70465,73,100,0
171.70465,171.85617,68,100,0
171.85617,172.00769,64,100,0
172.00769,172.1592,68,100,0
172.1592,172.31071,73,100,0
172.31071,172.46223,68,100,0
172.46223,172.61374,73,100,0
172.61374,172.76526,76,100,0
172.76526,172.91678,80,100,0
172.91678,173.06828,76,100,0
173.06828,173.2198,73,100,0
173.2198,173.37132,68,100,0
173.37132,173.52283,73,100,0
173.52283,173.67435,76,100,0
173.67435,173.82587,75,100,0
173.82587,173.97739,78,100,0
173.97739,174.12889,80,100,0
174.12889,174.28041,75,100,0
174.28041,174.43193,78,101,0
174.43193,174.58344,82,101,0
174.58344,174.73495,75,101,0
174.73495,174.88647,78,102,0
174.88647,175.03798,84,102,0
175.03798,175.1895,73,102,0
175.1895,175.34102,76,103,0
175.34102,175.49252,85,103,0
175.49252,175.64404,75,103,0
175.64404,175.79556,78,103,0
175.79556,175.94707,87,104,0
175.94707,176.09859,76,104,0
176.09859,176.2501,80,104,0
176.2501,176.40163,88,105,0
176.40163,176.55313,78,105,0
176.55313,176.70465,81,105,0
176.70465,176.85617,90,106,0
176.85617,177.00768,80,106,0
177.00768,177.1592,83,106,0
177.1592,177.31071,92,107,0
177.31071,177.46222,81,107,0
177.46222,177.61374,85,107,0
177.61374,177.76526,93,107,0
177.76526,177.91676,80,108,0
177.91676,178.06828,88,108,0
178.06828,178.2198,92,108,0
178.2198,178.3713,81,109,0
178.3713,178.52283,90,109,0
178.52283,178.67435,93,109,0
178.67435,178.82587,83,110,0
178.82587,178.97737,91,110,0
178.97737,179.12889,95,110,0
179.12889,179.28041,85,110,0
179.28041,179.43192,88,110,0
179.43192,179.58344,93,110,0
179.58344,179.73495,97,110,0
179.73495,179.88646,93,110,0
179.88646,180.03798,88,110,0
180.03798,180.1895,93,110,0
180.1895,180.341,88,110,0
180.341,180.49252,85,110,0
180.49252,180.64404,81,110,0
180.64404,180.79555,85,110,0
180.79555,180.94707,88,110,0
180.94707,181.09859,93,110,0
181.09859,181.2501,88,110,0
181.2501,181.40161,85,110,0
181.40161,181.55313,88,110,0
181.55313,181.70465,85,110,0
181.70465,181.85616,81,110,0
181.85616,182.00768,73,110,0
182.00768,182.1592,76,110,0
182.1592,182.3107,81,110,0
182.3107,182.46222,85,110,0
182.46222,182.61374,81,110,0
182.61374,182.76524,76,110,0
182.76524,182.91676,81,110,0
182.91676,183.06828,76,110,0
183.06828,183.21979,73,110,0
183.21979,183.3713,69,110,0
183.3713,183.52283,73,110,0
183.52283,183.67435,76,110,0
183.67435,183.82585,81,110,0
183.82585,183.97737,76,110,0
183.97737,184.12889,73,110,0
184.12889,184.2804,76,110,0
184.2804,184.43192,73,110,0
184.43192,184.58344,69,110,0
184.58344,184.73494,76,110,0
184.73494,184.88646,73,108,0
184.88646,185.03798,69,105,0
185.03798,185.18948,73,102,0
185.18948,185.341,69,99,0
185.341,185.49252,64,96,0
185.49252,185.64403,69,93,0
185.64403,185.79555,64,91,0
185.79555,185.94707,61,88,0
185.94707,186.09859,69,85,0
186.09859,186.25009,64,82,0
186.25009,186.40161,61,79,0
186.40161,186.55313,64,76,0
186.55313,186.70464,61,73,0
186.70464,186.85616,57,71,0
193.97736,194.12888,61,60,0
194.12888,194.2804,56,60,0
194.2804,194.4319,61,60,0
194.4319,194.58342,65,60,0
194.58342,194.73494,68,60,0
194.73494,194.88644,65,60,0
194.88644,195.03796,61,60,0
195.03796,195.18948,56,60,0
195.18948,195.34099,61,60,0
195.34099,195.49251,65,60,0
195.49251,195.64403,62,60,0
195.64403,195.79553,65,60,0
195.79553,195.94705,68,60,0
195.94705,196.09857,63,60,0
196.09857,196.25009,66,60,0
196.25009,196.4016,68,60,0
196.4016,196.55312,63,60,0
196.55312,196.70464,66,60,0
196.70464,196.85614,69,60,0
196.85614,197.00766,60,60,0
197.00766,197.15918,66,60,0
197.15918,197.31068,70,61,0
197.31068,197.4622,60,61,0
197.4622,197.61372,65,62,0
197.61372,197.76523,68,62,0
197.76523,197.91675,60,63,0
197.91675,198.06827,63,64,0
198.06827,198.21977,66,64,0
198.21977,198.37129,65,65,0
198.37129,198.52281,68,65,0
198.52281,198.67433,73,66,0
198.67433,198.82584,77,67,0
198.82584,198.97736,73,67,0
198.97736,199.12888,68,68,0
199.12888,199.28038,65,68,0
199.28038,199.4319,68,69,0
199.4319,199.58342,73,69,0
199.58342,199.73492,68,70,0
199.73492,199.88644,73,71,0
199.88644,200.03796,77,71,0
200.03796,200.18947,80,72,0
200.18947,200.34099,77,72,0
200.34099,200.49251,73,73,0
200.49251,200.64401,68,74,0
200.64401,200.79553,73,74,0
200.79553,200.94705,77,75,0
200.94705,201.09857,73,75,0
201.09857,201.25008,77,76,0
201.25008,201.4016,80,77,0
201.4016,201.55312,75,77,0
201.55312,201.70462,78,78,0
201.70462,201.85614,80,78,0
201.85614,202.00766,75,79,0
202.00766,202.15916,78,79,0
202.15916,202.31068,81,80,0
202.31068,202.4622,72,80,0
202.4622,202.61371,78,79,0
202.61371,202.76523,82,77,0
202.76523,202.91675,72,76,0
202.91675,203.06825,77,74,0
203.06825,203.21977,80,73,0
203.21977,203.37129,72,71,0
203.37129,203.52281,75,70,0
203.52281,203.67432,78,68,0
203.67432,203.82584,72,67,0
203.82584,203.97736,75,65,0
203.97736,204.12886,77,64,0
204.12886,204.28038,70,62,0
204.28038,204.4319,73,61,0
204.4319,204.5834,77,59,0
204.5834,204.73492,68,57,0
204.73492,204.88644,72,56,0
204.88644,205.03795,77,54,0
205.03795,205.18947,68,53,0
205.18947,205.34099,70,51,0
205.34099,205.4925,77,50,0
205.4925,205.64401,66,48,0
205.64401,205.79553,70,47,0
205.79553,205.94705,75,45,0
205.94705,206.09856,65,44,0
206.09856,206.25008,70,42,0
206.25008,206.4016,73,41,0
206.4016,206.5531,63,40,0
206.5531,206.70462,68,40,0
206.70462,206.85614,72,40,0
206.85614,207.00764,65,40,0
207.00764,207.15916,68,40,0
207.15916,207.31068,73,40,0
207.31068,207.46219,66,40,0
207.46219,207.61371,68,40,0
207.61371,207.76523,75,40,0
207.76523,207.91673,65,40,0
207.91673,208.06825,68,40,0
208.06825,208.21977,73,40,0
208.21977,208.37129,68,40,0
208.37129,208.5228,65,40,0
208.5228,208.67432,61,40,0
208.67432,208.82584,65,40,0
208.82584,208.97734,61,40,0
209.12886,209.28038,52,100,0
209.28038,209.43188,56,100,0
209.43188,209.5834,61,100,0
209.5834,209.73492,64,100,0
209.73492,209.88643,61,100,0
209.88643,210.03795,56,100,0
210.03795,210.18947,52,100,0
210.18947,210.34097,56,100,0
210.34097,210.4925,61,100,0
210.4925,210.64401,56,100,0
210.64401,210.79553,61,100,0
210.79553,210.94704,64,100,0
210.94704,211.09856,68,100,0
211.09856,211.25008,64,100,0
211.25008,211.40158,61,100,0
211.40158,211.5531,56,100,0
211.5531,211.70462,61,100,0
211.70462,211.85612,64,100,0
211.85612,212.00764,62,100,0
212.00764,212.15916,65,100,0
212.15916,212.31067,68,100,0
212.31067,212.46219,63,100,0
212.46219,212.61371,66,100,0
212.61371,212.76521,68,100,0
212.76521,212.91673,61,100,0
212.91673,213.06825,65,100,0
213.06825,213.21976,68,100,0
213.21976,213.37128,63,100,0
213.37128,213.5228,66,100,0
213.5228,213.67432,69,100,0
213.67432,213.82582,60,100,0
213.82582,213.97734,64,100,0
213.97734,214.12886,68,100,0
214.12886,214.28036,60,100,0
214.28036,214.43188,63,100,0
214.43188,214.5834,66,100,0
214.5834,214.73491,64,100,0
214.73491,214.88643,68,100,0
214.88643,215.03795,73,100,0
215.03795,215.18945,76,100,0
215.18945,215.34097,73,100,0
215.34097,215.4925,68,100,0
215.4925,215.644,64,100,0
215.644,215.79552,68,100,0
215.79552,215.94704,73,100,0
215.94704,216.09856,68,100,0
216.09856,216.25006,73,100,0
216.25006,216.40158,76,100,0
216.40158,216.5531,80,100,0
216.5531,216.7046,76,100,0
216.7046,216.85612,73,100,0
216.85612,217.00764,68,100,0
217.00764,217.15915,73,100,0
217.15915,217.31067,76,100,0
217.31067,217.46219,75,100,0
217.46219,217.6137,78,100,0
217.6137,217.76521,80,100,0
217.76521,217.91673,75,100,0
217.91673,218.06824,78,101,0
218.06824,218.21976,82,101,0
218.21976,218.37128,75,101,0
218.37128,218.5228,78,102,0
218.5228,218.6743,84,102,0
218.6743,218.82582,73,102,0
218.82582,218.97734,76,103,0
218.97734,219.12885,85,103,0
219.12885,219.28036,75,103,0
219.28036,219.43188,78,103,0
219.43188,219.58339,87,104,0
219.58339,219.73491,76,104,0
219.73491,219.88643,80,104,0
219.88643,220.03793,88,105,0
220.03793,220.18945,78,105,0
220.18945,220.34097,81,105,0
220.34097,220.49248,90,106,0
220.49248,220.644,80,106,0
220.644,220.79552,83,106,0
220.79552,220.94704,92,107,0
220.94704,221.09854,81,107,0
221.09854,221.25006,85,107,0
221.25006,221.40158,93,107,0
221.40158,221.55309,80,108,0
221.55309,221.7046,88,108,0
221.7046,221.85612,92,108,0
221.85612,222.00763,81,109,0
222.00763,222.15915,90,109,0
222.15915,222.31067,93,109,0
222.31067,222.46217,83,110,0
222.46217,222.6137,91,110,0
222.6137,222.76521,95,110,0
222.76521,222.91672,85,110,0
222.91672,223.06824,88,110,0
223.06824,223.21976,93,110,0
223.21976,223.37128,97,110,0
223.37128,223.52278,93,110,0
223.52278,223.6743,88,110,0
223.6743,223.82582,93,110,0
223.82582,223.97733,88,110,0
223.97733,224.12885,85,110,0
224.12885,224.28036,81,110,0
224.28036,224.43187,85,110,0
224.43187,224.58339,88,110,0
224.58339,224.73491,93,110,0
224.73491,224.88641,88,110,0
224.88641,225.03793,85,110,0
225.03793,225.18945,88,110,0
225.18945,225.34096,85,110,0
225.34096,225.49248,81,110,0
225.49248,225.644,73,110,0
225.644,225.79552,76,110,0
225.79552,225.94702,81,110,0
225.94702,226.09854,85,110,0
226.09854,226.25006,81,110,0
226.25006,226.40157,76,110,0
226.40157,226.55309,81,110,0
226.55309,226.7046,76,110,0
226.7046,226.85611,73,110,0
226.85611,227.00763,69,110,0
227.00763,227.15915,73,110,0
227.15915,227.31065,76,110,0
227.31065,227.46217,81,110,0
227.46217,227.6137,76,110,0
227.6137,227.7652,73,110,0
227.7652,227.91672,76,110,0
227.91672,228.06824,73,110,0
228.06824,228.21976,69,110,0
228.21976,228.37126,76,110,0
228.37126,228.52278,73,108,0
228.52278,228.6743,69,105,0
228.6743,228.8258,73,102,0
228.8258,228.97733,69,99,0
228.97733,229.12885,64,96,0
229.12885,229.28035,69,93,0
229.28035,229.43187,64,91,0
229.43187,229.58339,61,88,0
229.58339,229.7349,69,85,0
229.7349,229.88641,64,82,0
229.88641,230.03793,61,79,0
230.03793,230.18944,64,76,0
230.18944,230.34096,61,73,0
230.34096,230.49248,57,71,0
237.61368,237.7652,61,60,0
237.7652,237.9167,56,60,0
237.9167,238.06822,61,60,0
238.06822,238.21974,65,60,0
238.21974,238.37126,68,60,0
238.37126,238.52277,65,60,0
238.52277,238.67429,61,60,0
238.67429,238.8258,56,60,0
238.8258,238.97731,61,60,0
238.97731,239.12883,65,60,0
239.12883,239.28035,62,60,0
239.28035,239.43185,65,60,0
239.43185,239.58337,68,60,0
239.58337,239.7349,63,60,0
239.7349,239.8864,66,60,0
239.8864,240.03792,68,60,0
240.03792,240.18944,63,60,0
240.18944,240.34094,66,60,0
240.34094,240.49246,69,60,0
240.49246,240.64398,60,60,0
240.64398,240.7955,66,60,0
240.7955,240.947,70,61,0
240.947,241.09853,60,61,0
241.09853,241.25005,65,62,0
241.25005,241.40155,68,62,0
241.40155,241.55307,60,63,0
241.55307,241.70459,63,64,0
241.70459,241.8561,66,64,0
241.8561,242.00761,65,65,0
242.00761,242.15913,68,65,0
242.15913,242.31064,73,66,0
242.31064,242.46216,77,67,0
242.46216,242.61368,73,67,0
242.61368,242.76518,68,68,0
242.76518,242.9167,65,68,0
242.9167,243.06822,68,69,0
243.06822,243.21974,73,69,0
243.21974,243.37125,68,70,0
243.37125,243.52277,73,71,0
243.52277,243.67429,77,71,0
243.67429,243.82579,80,72,0
243.82579,243.97731,77,72,0
243.97731,244.12883,73,73,0
244.12883,244.28033,68,74,0
244.28033,244.43185,73,74,0
244.43185,244.58337,77,75,0
244.58337,244.73488,73,75,0
244.73488,244.8864,77,76,0
244.8864,245.03792,80,77,0
245.03792,245.18942,75,77,0
245.18942,245.34094,78,78,0
245.34094,245.49246,80,78,0
245.49246,245.64398,75,79,0
245.64398,245.79549,78,79,0
245.79549,245.947,81,80,0
245.947,246.09853,72,80,0
246.09853,246.25003,78,79,0
246.25003,246.40155,82,77,0
246.40155,246.55307,72,76,0
246.55307,246.70457,77,74,0
246.70457,246.8561,80,73,0
246.8561,247.00761,72,71,0
247.00761,247.15912,75,70,0
247.15912,247.31064,78,68,0
247.31064,247.46216,72,67,0
247.46216,247.61366,75,65,0
247.61366,247.76518,77,64,0
247.76518,247.9167,70,62,0
247.9167,248.06822,73,61,0
248.06822,248.21973,77,59,0
248.21973,248.37125,68,57,0
248.37125,248.52277,72,56,0
248.52277,248.67427,77,54,0
248.67427,248.82579,68,53,0
248.82579,248.97731,70,51,0
248.97731,249.12881,77,50,0
249.12881,249.28033,66,48,0
249.28033,249.43185,70,47,0
249.43185,249.58336,75,45,0
249.58336,249.73488,65,44,0
249.73488,249.8864,70,42,0
249.8864,250.0379,73,41,0
250.0379,250.18942,63,40,0
250.18942,250.34094,68,40,0
250.34094,250.49246,72,40,0
250.49246,250.64397,65,40,0
250.64397,250.79549,68,40,0
250.79549,250.947,73,40,0
250.947,251.09851,66,40,0
251.09851,251.25003,68,40,0
251.25003,251.40155,75,40,0
251.40155,251.55305,65,40,0
251.55305,251.70457,68,40,0
251.70457,251.8561,73,40,0
251.8561,252.0076,68,40,0
252.0076,252.15912,65,40,0
252.15912,252.31064,61,40,0
252.31064,252.46214,65,40,0
252.46214,252.61366,61,40,0
260.947,261.41486,63,40,0
261.41486,261.91412,63,40,0
261.91412,262.4494,63,40,0
262.4494,263.02618,63,40,0
263.02618,263.6516,63,40,0
263.6516,264.10617,63,50,0
264.10617,264.5607,68,52,0
264.10617,264.5607,63,42,0
264.10617,264.5607,60,42,0
264.5607,265.24252,68,54,0
265.24252,265.46982,70,57,0
264.5607,265.46982,63,44,0
264.5607,265.46982,60,44,0
265.46982,265.92435,68,58,0
265.46982,265.92435,63,48,0
265.46982,265.92435,61,48,0
265.92435,266.60617,67,60,0
266.60617,266.83344,70,64,0
265.92435,266.83344,63,50,0
265.92435,266.83344,61,50,0
266.83344,267.288,70,65,0
267.288,267.74252,68,67,0
267.288,267.74252,63,57,0
267.74252,268.19708,70,69,0
267.74252,268.19708,63,59,0
267.74252,268.19708,61,59,0
268.19708,269.10617,72,71,0
268.19708,269.10617,63,61,0
268.19708,269.10617,60,61,0
269.10617,269.5607,63,76,0
269.5607,270.01526,72,78,0
269.5607,270.01526,60,68,0
269.5607,270.01526,63,68,0
270.01526,270.69708,72,80,0
270.01526,270.69708,60,70,0
270.01526,270.69708,63,70,0
270.69708,270.92435,73,83,0
270.69708,270.92435,63,73,0
270.69708,270.92435,61,73,0
270.92435,271.37888,72,84,0
270.92435,271.37888,60,74,0
270.92435,271.37888,63,74,0
271.37888,272.0607,70,87,0
271.37888,272.0607,58,77,0
271.37888,272.0607,63,77,0
272.0607,272.288,72,90,0
272.0607,272.288,60,80,0
272.0607,272.288,63,80,0
272.288,272.74252,70,90,0
272.288,272.74252,58,80,0
272.288,272.74252,63,80,0
272.74252,273.19708,68,76,0
272.74252,273.19708,63,66,0
272.74252,273.19708,56,66,0
273.19708,273.53796,75,61,0
273.53796,273.6516,73,50,0
273.19708,273.6516,63,51,0
273.19708,273.6516,70,51,0
273.6516,274.5607,72,50,0
273.6516,274.5607,63,40,0
273.6516,274.5607,68,40,0
274.5607,275.01526,75,50,0
275.01526,275.4698,80,52,0
275.01526,275.4698,75,42,0
275.01526,275.4698,72,42,0
275.4698,276.1516,80,54,0
276.1516,276.37888,82,57,0
275.4698,276.37888,72,44,0
275.4698,276.37888,75,44,0
276.37888,276.83344,80,58,0
276.37888,276.83344,75,48,0
276.37888,276.83344,73,48,0
276.83344,277.51526,79,60,0
277.51526,277.74252,82,64,0
276.83344,277.74252,75,50,0
276.83344,277.74252,73,50,0
277.74252,278.19705,82,65,0
278.19705,278.6516,80,67,0
278.19705,278.6516,75,57,0
278.6516,279.10614,82,69,0
278.6516,279.10614,75,59,0
278.6516,279.10614,73,59,0
279.10614,280.01526,84,71,0
279.10614,280.01526,72,61,0
279.10614,280.01526,75,61,0
280.01526,280.4698,75,66,0
280.4698,280.92435,84,78,0
280.4698,280.92435,75,68,0
280.4698,280.92435,72,68,0
280.92435,281.60614,84,80,0
281.60614,281.83344,85,83,0
280.92435,281.83344,72,70,0
280.92435,281.83344,75,70,0
281.83344,282.28796,84,84,0
281.83344,282.28796,76,74,0
281.83344,282.28796,72,74,0
282.28796,282.9698,82,87,0
282.9698,283.19705,84,90,0
282.28796,283.19705,72,77,0
282.28796,283.19705,76,77,0
283.19705,283.6516,82,90,0
283.19705,283.6516,77,80,0
283.19705,283.6516,72,80,0
283.6516,283.87888,80,76,0
283.87888,283.9357,82,68,0
283.9357,283.99252,80,66,0
283.99252,284.04932,79,64,0
284.04932,284.10614,80,62,0
283.6516,284.10614,72,66,0
283.6516,284.10614,77,66,0
284.10614,284.44705,84,61,0
284.44705,284.5607,82,50,0
284.10614,284.5607,79,51,0
284.10614,284.5607,73,51,0
284.5607,285.4698,80,50,0
284.5607,285.4698,72,40,0
285.69705,285.92432,75,100,0
285.69705,285.92432,68,100,0
285.69705,285.92432,63,100,0
285.92432,286.37888,75,100,0
285.92432,286.37888,68,100,0
285.92432,286.37888,63,100,0
286.37888,287.0607,75,100,0
286.37888,287.0607,68,100,0
286.37888,287.0607,63,100,0
287.0607,287.28796,60,100,0
287.0607,287.28796,63,100,0
287.0607,287.28796,72,100,0
287.28796,287.74252,60,100,0
287.28796,287.74252,63,100,0
287.28796,287.74252,72,100,0
287.74252,288.42432,60,100,0
287.74252,288.42432,63,100,0
287.74252,288.42432,72,100,0
288.42432,288.6516,60,100,0
288.42432,288.6516,65,100,0
288.42432,288.6516,68,100,0
288.6516,288.76523,60,100,0
288.6516,288.76523,65,100,0
288.6516,288.76523,68,100,0
289.10614,289.2198,61,100,0
289.10614,289.2198,63,100,0
289.10614,289.2198,70,100,0
289.5607,289.67432,61,100,0
289.5607,289.67432,67,100,0
289.5607,289.67432,73,100,0
289.5607,289.67432,70,100,0
289.5607,289.67432,63,100,0
290.01523,291.1516,60,100,0
290.01523,291.1516,72,100,0
290.01523,291.1516,68,100,0
290.01523,291.1516,63,100,0
291.1516,291.37888,65,110,0
291.1516,291.37888,68,110,0
291.1516,291.37888,77,110,0
291.37888,291.8334,65,110,0
291.37888,291.8334,68,110,0
291.37888,291.8334,77,110,0
291.8334,292.51523,65,110,0
291.8334,292.51523,68,110,0
291.8334,292.51523,77,110,0
292.51523,292.7425,65,110,0
292.51523,292.7425,68,110,0
292.51523,292.7425,73,110,0
292.7425,293.19705,65,110,0
292.7425,293.19705,68,110,0
292.7425,293.19705,73,110,0
293.19705,293.87888,65,110,0
293.19705,293.87888,68,110,0
293.19705,293.87888,73,110,0
293.87888,294.10614,65,110,0
293.87888,294.10614,68,110,0
294.10614,294.2198,65,110,0
294.10614,294.2198,68,110,0
294.5607,294.67432,66,110,0
294.5607,294.67432,69,110,0
294.5607,294.67432,73,110,0
295.01523,295.12888,66,110,0
295.01523,295.12888,78,110,0
295.01523,295.12888,73,110,0
295.01523,295.12888,69,110,0
295.4698,296.60614,65,110,0
295.4698,296.60614,77,110,0
295.4698,296.60614,73,110,0
295.4698,296.60614,68,110,0
296.60614,296.8334,66,110,0
296.60614,296.8334,73,110,0
296.60614,296.8334,78,110,0
296.8334,298.19705,66,110,0
296.8334,298.19705,73,110,0
296.8334,298.19705,78,110,0
298.19705,298.65918,76,60,0
298.65918,299.1401,75,60,0
298.19705,299.1401,73,60,0
299.1401,299.38815,73,60,0
298.19705,299.38815,67,60,0
299.38815,299.5142,68,60,0
299.38815,299.5142,61,60,0
299.64157,300.164,68,110,0
300.164,300.43414,70,93,0
300.43414,300.7107,68,85,0
300.7107,300.99387,67,76,0
300.99387,301.28403,68,68,0
301.21082,301.28403,68,61,0
299.64157,301.28403,61,110,0
301.28403,301.88495,72,60,0
301.88495,302.51822,70,58,0
302.51822,303.1875,68,55,0
301.28403,303.1875,62,60,0
303.1875,303.89468,63,53,0
303.89468,305.45096,63,50,0
303.1875,305.45096,60,53,0
303.1875,305.45096,56,53,0
305.45096,306.2843,63,45,0
306.2843,307.5343,63,42,0
305.45096,307.5343,61,45,0
305.45096,307.5343,58,45,0
305.45096,307.5343,55,45,0
307.5343,307.98883,63,50,0
307.98883,308.4434,68,52,0
307.98883,308.4434,60,42,0
307.98883,308.4434,63,42,0
308.4434,309.1252,68,54,0
309.1252,309.35248,70,57,0
308.4434,309.35248,60,44,0
308.4434,309.35248,63,44,0
309.35248,309.807,68,58,0
309.35248,309.807,63,48,0
309.35248,309.807,61,48,0
309.807,310.48883,67,60,0
310.48883,310.71613,70,64,0
309.807,310.71613,63,50,0
309.807,310.71613,61,50,0
310.71613,311.17065,70,65,0
311.17065,311.6252,68,67,0
311.17065,311.6252,63,57,0
311.6252,312.07974,70,69,0
311.6252,312.07974,63,59,0
311.6252,312.07974,61,59,0
312.07974,312.98883,72,71,0
312.07974,312.98883,60,61,0
312.07974,312.98883,63,61,0
312.98883,313.4434,63,76,0
313.4434,313.89792,72,78,0
313.4434,313.89792,60,68,0
313.4434,313.89792,63,68,0
313.89792,314.57974,72,80,0
313.89792,314.57974,60,70,0
313.89792,314.57974,63,70,0
314.57974,314.807,70,83,0
314.57974,314.807,61,73,0
314.57974,314.807,58,73,0
314.807,315.26157,70,84,0
314.807,315.26157,58,74,0
314.807,315.26157,61,74,0
315.26157,315.9434,69,87,0
315.26157,315.9434,57,77,0
315.26157,315.9434,60,77,0
315.9434,316.17065,70,90,0
315.9434,316.17065,58,80,0
315.9434,316.17065,61,80,0
316.17065,316.62518,70,90,0
316.17065,316.62518,58,80,0
316.17065,316.62518,61,80,0
316.62518,317.07974,68,76,0
316.62518,317.07974,60,66,0
316.62518,317.07974,56,66,0
317.07974,317.1934,67,61,0
317.07974,317.1934,55,51,0
317.07974,317.1934,58,51,0
317.5343,318.4434,68,50,0
317.5343,318.4434,56,40,0
317.5343,318.4434,60,40,0
318.4434,318.89792,75,50,0
318.89792,319.35248,80,52,0
318.89792,319.35248,72,42,0
318.89792,319.35248,75,42,0
319.35248,320.03427,80,54,0
320.03427,320.26157,82,57,0
319.35248,320.26157,72,44,0
319.35248,320.26157,75,44,0
320.26157,320.7161,80,58,0
320.26157,320.7161,75,48,0
320.26157,320.7161,73,48,0
320.7161,321.39792,79,60,0
321.39792,321.62518,82,64,0
320.7161,321.62518,75,50,0
320.7161,321.62518,73,50,0
321.62518,322.07974,82,65,0
322.07974,322.53427,80,67,0
322.07974,322.53427,75,57,0
322.53427,322.98883,82,69,0
322.53427,322.98883,75,59,0
322.53427,322.98883,73,59,0
322.98883,323.89792,84,71,0
322.98883,323.89792,72,61,0
322.98883,323.89792,75,61,0
323.89792,324.35245,75,76,0
324.35245,324.807,84,78,0
324.35245,324.807,75,68,0
324.35245,324.807,72,68,0
324.807,325.48883,84,80,0
324.807,325.48883,72,70,0
324.807,325.48883,75,70,0
325.48883,325.7161,82,83,0
325.48883,325.7161,70,73,0
325.48883,325.7161,73,73,0
325.7161,326.17065,82,84,0
325.7161,326.17065,70,74,0
325.7161,326.17065,73,74,0
326.17065,326.85245,81,87,0
326.17065,326.85245,69,77,0
326.17065,326.85245,72,77,0
326.85245,327.07974,82,90,0
326.85245,327.07974,70,80,0
326.85245,327.07974,73,80,0
327.07974,327.53427,82,90,0
327.07974,327.53427,70,80,0
327.07974,327.53427,73,80,0
327.53427,327.98883,80,76,0
327.53427,327.98883,68,66,0
327.53427,327.98883,72,66,0
327.98883,328.10245,79,61,0
327.98883,328.10245,67,51,0
327.98883,328.10245,70,51,0
328.44336,329.35245,80,50,0
328.44336,329.35245,68,40,0
328.44336,329.35245,72,40,0
329.57974,329.807,70,50,0
329.57974,329.807,61,40,0
329.57974,329.807,58,40,0
329.807,330.26862,70,50,0
329.807,330.26862,61,40,0
329.807,330.26862,58,40,0
330.26862,330.74655,68,50,0
330.26862,330.74655,60,40,0
330.26862,330.74655,56,40,0
330.74655,330.8687,67,50,0
330.74655,330.8687,58,40,0
330.74655,330.8687,55,40,0
331.24213,332.56744,68,50,0
331.24213,332.56744,60,40,0
331.24213,332.56744,56,40,0
332.56744,332.84897,73,50,0
332.56744,332.84897,61,40,0
332.56744,332.84897,70,40,0
332.84897,333.4303,73,50,0
332.84897,333.4303,61,40,0
332.84897,333.4303,70,40,0
333.4303,334.03793,72,50,0
333.4303,334.03793,60,40,0
333.4303,334.03793,68,40,0
334.03793,334.19415,70,50,0
334.03793,334.19415,58,40,0
334.03793,334.19415,67,40,0
334.67438,335.97873,68,50,0
334.67438,335.97873,56,40,0
0.90909,1.363635,51,50,0
1.363635,1.81818,51,42,0
1.81818,2.72727,51,44,0
1.363635,2.72727,44,52,0
2.72727,3.181815,51,48,0
3.181815,4.090905,51,50,0
2.72727,4.090905,46,58,0
4.090905,4.54545,51,55,0
4.54545,4.999995,51,57,0
4.090905,4.999995,48,65,0
4.999995,5.45454,43,69,0
4.999995,5.45454,51,59,0
5.45454,6.36363,44,71,0
5.45454,6.36363,51,61,0
6.36363,6.818175,51,76,0
6.818175,7.27272,51,68,0
7.27272,8.18181,51,70,0
6.818175,8.18181,44,78,0
8.18181,8.636355,51,74,0
8.636355,9.545445,51,77,0
8.18181,9.545445,49,84,0
9.545445,9.99999,51,80,0
9.99999,10.454535,51,66,0
9.545445,10.454535,48,90,0
10.454535,10.90908,43,61,0
10.454535,10.90908,51,51,0
10.90908,11.81817,44,50,0
10.90908,11.81817,51,40,0
11.81817,12.272715,51,50,0
12.272715,12.72726,51,42,0
12.72726,13.63635,51,44,0
12.272715,13.63635,44,52,0
13.63635,14.090895,51,48,0
14.090895,14.999985,51,50,0
13.63635,14.999985,46,58,0
14.999985,15.45453,51,55,0
15.45453,15.909075,51,57,0
14.999985,15.909075,48,65,0
15.909075,16.36362,43,69,0
15.909075,16.36362,51,59,0
16.36362,17.27271,44,71,0
16.36362,17.27271,51,61,0
17.27271,17.727255,51,76,0
17.727255,18.1818,51,68,0
18.1818,19.09089,51,70,0
17.727255,19.09089,44,78,0
19.09089,19.545435,48,74,0
19.545435,20.454525,48,77,0
19.09089,20.454525,43,84,0
20.454525,20.90907,48,80,0
20.90907,21.363615,48,66,0
20.454525,21.363615,41,90,0
21.363615,21.81816,39,61,0
21.363615,21.81816,51,51,0
21.81816,22.72725,44,50,0
21.81816,22.72725,51,40,0
22.72725,23.181795,51,50,0
23.181795,23.63634,51,42,0
23.63634,24.54543,51,44,0
23.181795,24.54543,44,52,0
24.54543,24.999975,51,48,0
24.999975,25.909065,51,50,0
24.54543,25.909065,46,58,0
25.909065,26.36361,51,55,0
26.36361,26.818155,51,57,0
25.909065,26.818155,48,65,0
26.818155,27.2727,43,69,0
26.818155,27.2727,51,59,0
27.2727,28.18179,44,71,0
27.2727,28.18179,51,61,0
28.18179,28.636335,51,76,0
28.636335,29.09088,51,68,0
29.09088,29.99997,51,70,0
28.636335,29.99997,44,78,0
29.99997,30.454515,51,74,0
30.454515,31.363605,51,77,0
29.99997,31.363605,49,84,0
31.363605,31.81815,51,80,0
31.81815,32.272694,51,66,0
31.363605,32.272694,48,90,0
32.272694,32.72724,43,61,0
32.272694,32.72724,51,51,0
32.72724,33.63633,44,50,0
32.72724,33.63633,51,40,0
33.63633,34.090874,51,50,0
34.090874,34.54542,51,42,0
34.54542,35.45451,51,44,0
34.090874,35.45451,44,52,0
35.45451,35.909054,51,48,0
35.909054,36.818146,51,50,0
35.45451,36.818146,46,58,0
36.818146,37.27269,51,55,0
37.27269,37.727234,51,57,0
36.818146,37.727234,48,65,0
37.727234,38.18178,43,69,0
37.727234,38.18178,51,59,0
38.18178,39.09087,44,71,0
38.18178,39.09087,51,61,0
39.09087,39.545414,51,76,0
39.545414,39.99996,51,68,0
39.99996,40.90905,51,70,0
39.545414,40.90905,44,78,0
40.90905,41.363594,48,74,0
41.363594,42.272686,48,77,0
40.90905,42.272686,43,84,0
42.272686,42.72723,48,80,0
42.72723,43.181774,48,66,0
42.272686,43.181774,41,90,0
43.181774,43.63632,39,61,0
43.181774,43.63632,51,51,0
43.63632,44.54541,44,50,0
43.63632,44.54541,51,40,0
44.772682,44.999954,60,100,0
44.772682,44.999954,56,100,0
44.772682,44.999954,48,100,0
44.999954,45.4545,60,100,0
44.999954,45.4545,56,100,0
44.999954,45.4545,48,100,0
45.4545,46.13632,60,100,0
45.4545,46.13632,56,100,0
45.4545,46.13632,48,100,0
46.13632,46.36359,44,100,0
46.13632,46.36359,51,100,0
46.13632,46.36359,56,100,0
46.36359,46.818134,44,100,0
46.36359,46.818134,51,100,0
46.36359,46.818134,56,100,0
46.818134,47.499954,44,100,0
46.818134,47.499954,51,100,0
46.818134,47.499954,56,100,0
47.499954,47.727226,53,100,0
47.499954,47.727226,41,100,0
47.727226,47.840862,53,100,0
47.727226,47.840862,41,100,0
48.18177,48.295406,55,100,0
48.18177,48.295406,43,100,0
48.636314,48.74995,51,100,0
48.636314,48.74995,39,100,0
49.09086,50.227222,56,100,0
49.09086,50.227222,51,100,0
49.09086,50.227222,44,100,0
50.227222,50.454494,37,110,0
50.227222,50.454494,44,110,0
50.227222,50.454494,49,110,0
50.454494,50.90904,37,110,0
50.454494,50.90904,44,110,0
50.454494,50.90904,49,110,0
50.90904,51.59086,49,110,0
50.90904,51.59086,44,110,0
50.90904,51.59086,37,110,0
51.59086,51.81813,37,110,0
51.59086,51.81813,44,110,0
51.59086,51.81813,49,110,0
51.81813,52.272675,49,110,0
51.81813,52.272675,44,110,0
51.81813,52.272675,37,110,0
52.272675,52.95449,49,110,0
52.272675,52.95449,44,110,0
52.272675,52.95449,37,110,0
52.95449,53.181767,37,110,0
52.95449,53.181767,49,110,0
53.181767,53.295403,37,110,0
53.181767,53.295403,49,110,0
53.63631,53.749947,33,110,0
53.63631,53.749947,45,110,0
54.090855,54.20449,30,110,0
54.090855,54.20449,42,110,0
54.5454,55.681763,49,110,0
54.5454,55.681763,37,110,0
55.681763,55.909035,45,110,0
55.681763,55.909035,33,110,0
55.909035,58.463787,45,110,0
55.909035,58.463787,33,110,0
58.463787,58.58981,52,60,0
58.463787,58.58981,40,60,0
58.717197,62.263138,52,110,0
58.717197,62.263138,40,110,0
62.263138,62.970318,51,53,0
62.970318,64.52659,51,50,0
62.263138,64.52659,39,63,0
64.52659,65.359924,51,45,0
65.359924,66.609924,51,42,0
64.52659,66.609924,39,55,0
66.609924,67.06447,51,50,0
67.06447,67.51901,51,42,0
67.51901,68.4281,51,44,0
67.06447,68.4281,44,52,0
68.4281,68.882645,51,48,0
68.882645,69.79174,51,50,0
68.4281,69.79174,46,58,0
69.79174,70.246284,51,55,0
70.246284,70.70083,51,57,0
69.79174,70.70083,48,65,0
70.70083,71.15537,43,69,0
70.70083,71.15537,51,59,0
71.15537,72.06446,44,71,0
71.15537,72.06446,51,61,0
72.06446,72.519005,51,76,0
72.519005,72.97355,51,68,0
72.97355,73.882645,51,70,0
72.519005,73.882645,42,78,0
73.882645,74.33719,51,74,0
74.33719,75.019005,51,77,0
73.882645,75.019005,41,84,0
75.019005,75.24628,40,90,0
75.019005,75.24628,49,80,0
75.24628,75.70082,40,90,0
75.24628,75.70082,49,80,0
75.70082,76.155365,39,76,0
75.70082,76.155365,51,66,0
76.155365,76.269005,39,61,0
76.155365,76.269005,51,51,0
76.155365,76.269005,49,51,0
76.60991,77.519005,44,50,0
76.60991,77.519005,51,40,0
76.60991,77.519005,48,40,0
77.519005,77.97355,51,50,0
77.97355,78.42809,51,42,0
78.42809,79.33718,51,44,0
77.97355,79.33718,44,52,0
79.33718,79.791725,51,48,0
79.791725,80.70082,51,50,0
79.33718,80.70082,46,58,0
80.70082,81.155365,51,55,0
81.155365,81.60991,51,57,0
80.70082,81.60991,48,65,0
81.60991,82.06445,43,69,0
81.60991,82.06445,51,59,0
82.06445,82.97354,44,71,0
82.06445,82.97354,51,61,0
82.97354,83.428085,51,66,0
83.428085,83.88263,51,68,0
83.88263,84.791725,51,70,0
83.428085,84.791725,42,78,0
84.791725,85.24627,51,74,0
85.24627,85.928085,51,77,0
84.791725,85.928085,41,84,0
85.928085,86.15536,40,90,0
85.928085,86.15536,49,80,0
86.15536,86.6099,40,90,0
86.15536,86.6099,49,80,0
86.6099,87.064445,39,76,0
86.6099,87.064445,51,66,0
87.064445,87.178085,39,61,0
87.064445,87.178085,51,51,0
87.064445,87.178085,49,51,0
87.51899,88.428085,44,50,0
87.51899,88.428085,48,40,0
87.51899,88.428085,51,40,0
88.65536,88.88263,60,100,0
88.65536,88.88263,56,100,0
88.65536,88.88263,48,100,0
88.88263,89.33717,60,100,0
88.88263,89.33717,56,100,0
88.88263,89.33717,48,100,0
89.33717,90.01899,60,100,0
89.33717,90.01899,56,100,0
89.33717,90.01899,48,100,0
90.01899,90.24626,44,100,0
90.01899,90.24626,51,100,0
90.01899,90.24626,56,100,0
90.24626,90.700806,44,100,0
90.24626,90.700806,51,100,0
90.24626,90.700806,56,100,0
90.700806,91.38262,44,100,0
90.700806,91.38262,51,100,0
90.700806,91.38262,56,100,0
91.38262,91.60989,53,100,0
91.38262,91.60989,41,100,0
91.60989,91.72353,53,100,0
91.60989,91.72353,41,100,0
92.064445,92.17808,55,100,0
92.064445,92.17808,43,100,0
92.51899,92.63262,51,100,0
92.51899,92.63262,39,100,0
92.97353,94.10989,56,100,0
92.97353,94.10989,51,100,0
92.97353,94.10989,44,100,0
94.10989,94.337166,37,110,0
94.10989,94.337166,44,110,0
94.10989,94.337166,49,110,0
94.337166,94.79171,37,110,0
94.337166,94.79171,44,110,0
94.337166,94.79171,49,110,0
94.79171,95.47353,49,110,0
94.79171,95.47353,44,110,0
94.79171,95.47353,37,110,0
95.47353,95.700806,37,110,0
95.47353,95.700806,44,110,0
95.47353,95.700806,49,110,0
95.700806,96.15535,49,110,0
95.700806,96.15535,44,110,0
95.700806,96.15535,37,110,0
96.15535,96.837166,49,110,0
96.15535,96.837166,44,110,0
96.15535,96.837166,37,110,0
96.837166,97.06444,37,110,0
96.837166,97.06444,49,110,0
97.06444,97.17807,37,110,0
97.06444,97.17807,49,110,0
97.51898,97.63262,33,110,0
97.51898,97.63262,45,110,0
97.973526,98.087166,30,110,0
97.973526,98.087166,42,110,0
98.42807,99.56444,49,110,0
98.42807,99.56444,37,110,0
99.56444,99.79171,45,110,0
99.56444,99.79171,33,110,0
99.79171,102.34646,45,110,0
99.79171,102.34646,33,110,0
102.34646,102.47248,52,60,0
102.34646,102.47248,40,60,0
102.59987,106.14581,52,110,0
102.59987,106.14581,40,110,0
106.14581,106.85299,51,53,0
106.85299,108.40926,51,50,0
106.14581,108.40926,39,63,0
108.40926,109.24259,51,45,0
109.24259,110.49259,51,42,0
108.40926,110.49259,39,55,0
110.49259,110.947136,51,50,0
110.947136,111.40169,51,42,0
111.40169,112.310776,51,44,0
110.947136,112.310776,44,52,0
112.310776,112.76532,51,48,0
112.76532,113.67441,51,50,0
112.310776,113.67441,46,58,0
113.67441,114.12895,51,55,0
114.12895,114.583496,51,57,0
113.67441,114.583496,48,65,0
114.583496,115.03805,43,69,0
114.583496,115.03805,51,59,0
115.03805,115.947136,44,71,0
115.03805,115.947136,51,61,0
115.947136,116.40168,51,76,0
116.40168,116.856224,51,68,0
116.856224,117.76531,51,70,0
116.40168,117.76531,42,78,0
117.76531,118.21986,51,74,0
118.21986,118.90168,51,77,0
117.76531,118.90168,41,84,0
118.90168,119.12895,40,90,0
118.90168,119.12895,49,80,0
119.12895,119.583496,40,90,0
119.12895,119.583496,49,80,0
119.583496,120.03804,39,76,0
119.583496,120.03804,51,66,0
120.03804,120.15167,39,61,0
120.03804,120.15167,51,51,0
120.03804,120.15167,49,51,0
120.492584,121.40167,44,50,0
120.492584,121.40167,51,40,0
120.492584,121.40167,48,40,0
121.40167,121.85622,51,50,0
121.85622,122.31077,51,42,0
122.31077,123.21986,51,44,0
121.85622,123.21986,44,52,0
123.21986,123.6744,51,48,0
123.6744,124.58349,51,50,0
123.21986,124.58349,46,58,0
124.58349,125.03803,51,55,0
125.03803,125.49258,51,57,0
124.58349,125.49258,48,65,0
125.49258,125.94713,43,69,0
125.49258,125.94713,51,59,0
125.94713,126.85622,44,71,0
125.94713,126.85622,51,61,0
126.85622,127.31076,51,66,0
127.31076,127.765305,51,68,0
127.765305,128.6744,51,70,0
127.31076,128.6744,42,78,0
128.6744,129.12894,51,74,0
129.12894,129.81076,51,77,0
128.6744,129.81076,41,84,0
129.81076,130.03802,40,90,0
129.81076,130.03802,49,80,0
130.03802,130.49257,40,90,0
130.03802,130.49257,49,80,0
130.49257,130.94711,39,76,0
130.49257,130.94711,51,66,0
130.94711,131.06076,39,61,0
130.94711,131.06076,51,51,0
130.94711,131.06076,49,51,0
131.40166,132.31076,44,50,0
131.40166,132.31076,48,40,0
131.40166,132.31076,51,40,0
132.31076,132.7653,44,60,0
132.7653,134.12894,37,70,0
133.21985,134.58348,44,80,0
134.12894,135.49257,41,70,0
134.58348,135.94711,44,80,0
135.49257,136.8562,36,70,0
135.94711,137.31075,44,80,0
136.8562,138.21983,32,70,0
137.31075,138.67438,44,81,0
138.21983,139.58348,37,75,0
138.67438,140.03802,44,87,0
139.58348,140.94711,41,80,0
140.03802,141.40166,44,92,0
140.94711,142.31075,36,85,0
141.40166,142.76529,44,97,0
142.76529,143.67438,44,96,0
142.31075,143.67438,32,90,0
144.12892,145.03801,46,72,0
143.67438,145.03801,34,77,0
145.49255,145.9471,51,58,0
145.03801,145.9471,39,63,0
145.9471,146.40166,54,54,0
145.9471,146.40166,42,54,0
146.40166,147.76529,44,50,0
147.76529,148.67438,49,50,0
146.8562,148.67438,56,50,0
149.12892,150.49255,37,70,0
149.58347,150.9471,44,80,0
150.49255,151.85619,41,70,0
150.9471,152.31073,44,80,0
151.85619,153.21982,36,70,0
152.31073,153.67436,44,80,0
153.21982,154.58347,32,70,0
153.67436,155.03801,44,81,0
154.58347,155.9471,37,75,0
155.03801,156.40164,44,87,0
155.9471,157.31073,41,80,0
156.40164,157.76527,44,92,0
157.31073,158.67436,36,85,0
157.76527,159.1289,44,97,0
159.1289,160.038,44,96,0
158.67436,160.038,32,90,0
160.49254,161.40164,46,72,0
160.038,161.40164,34,77,0
161.85619,162.31073,51,58,0
161.40164,162.31073,39,63,0
162.31073,162.76527,54,54,0
162.31073,162.76527,42,54,0
162.76527,164.1289,44,50,0
164.1289,165.038,49,50,0
163.21982,165.038,56,50,0
165.49254,166.85617,37,110,0
165.94708,167.31071,44,120,0
166.85617,168.2198,40,110,0
167.31071,168.67436,44,120,0
168.2198,169.58345,36,110,0
168.67436,170.038,44,120,0
169.58345,170.94708,32,110,0
170.038,171.40163,44,120,0
170.94708,172.31071,37,110,0
171.40163,172.76526,44,120,0
172.31071,173.67435,40,110,0
172.76526,174.12889,44,120,0
173.67435,175.03798,32,110,0
174.12889,175.49252,44,120,0
175.49252,176.40163,44,123,0
175.03798,176.40163,37,112,0
176.85617,177.76526,42,126,0
176.40163,177.76526,30,115,0
178.2198,179.12889,52,127,0
177.76526,179.12889,40,118,0
179.12889,179.24252,45,120,0
179.12889,179.24252,40,120,0
179.12889,179.24252,33,120,0
179.58344,180.49252,45,127,0
179.58344,180.49252,40,127,0
179.58344,180.49252,33,127,0
180.49252,180.60616,45,120,0
180.49252,180.60616,40,120,0
180.49252,180.60616,33,120,0
180.94707,181.85616,45,127,0
180.94707,181.85616,40,127,0
180.94707,181.85616,33,127,0
181.85616,181.9698,45,120,0
181.85616,181.9698,40,120,0
181.85616,181.9698,33,120,0
182.3107,183.21979,45,127,0
182.3107,183.21979,40,127,0
182.3107,183.21979,33,127,0
183.21979,183.33344,45,120,0
183.21979,183.33344,40,120,0
183.21979,183.33344,33,120,0
183.67435,185.03798,45,127,0
183.67435,185.03798,40,127,0
183.67435,185.03798,33,127,0
185.03798,185.49252,45,112,0
185.03798,185.49252,40,112,0
185.03798,185.49252,33,112,0
185.49252,185.94707,45,103,0
185.49252,185.94707,40,103,0
185.49252,185.94707,33,103,0
185.94707,186.40161,45,95,0
185.94707,186.40161,40,95,0
185.94707,186.40161,33,95,0
186.40161,186.85616,45,86,0
186.40161,186.85616,40,86,0
186.40161,186.85616,33,86,0
186.85616,187.00768,61,68,0
187.00768,187.15918,57,65,0
187.15918,187.3107,52,62,0
186.85616,187.3107,33,78,0
186.85616,187.3107,40,78,0
186.85616,187.3107,45,78,0
187.3107,187.46222,49,60,0
187.46222,187.61372,52,60,0
187.61372,187.76524,57,60,0
187.76524,187.91676,61,60,0
187.91676,188.06827,57,60,0
188.06827,188.21979,52,60,0
188.21979,188.3713,49,60,0
188.3713,188.52283,52,60,0
188.52283,188.67433,57,60,0
187.3107,188.67433,33,70,0
188.67433,188.78796,32,70,0
188.67433,188.82585,49,60,0
188.78796,188.90161,30,70,0
188.90161,188.97737,32,70,0
188.82585,188.97737,54,60,0
188.97737,189.05312,30,70,0
189.05312,189.12888,32,70,0
188.97737,189.12888,57,60,0
189.12888,189.20464,30,70,0
189.20464,189.2804,32,70,0
189.12888,189.2804,61,60,0
189.2804,189.35616,30,70,0
189.35616,189.43192,32,70,0
189.2804,189.43192,57,60,0
189.43192,189.50766,30,70,0
189.50766,189.58342,32,70,0
189.43192,189.58342,54,60,0
189.58342,189.65918,30,70,0
189.65918,189.73494,32,70,0
189.58342,189.73494,49,60,0
189.73494,189.8107,30,70,0
189.73494,189.88646,54,60,0
189.8107,189.92433,29,70,0
189.92433,190.03796,30,70,0
189.88646,190.03796,57,60,0
190.03796,190.18948,49,60,0
190.18948,190.341,53,60,0
190.341,190.49251,56,60,0
190.49251,190.64403,61,60,0
190.64403,190.79555,56,60,0
190.79555,190.94707,53,60,0
190.94707,191.09857,49,60,0
191.09857,191.25009,53,60,0
191.25009,191.40161,56,60,0
191.40161,191.55312,51,60,0
191.55312,191.70464,54,60,0
191.70464,191.85616,56,60,0
191.85616,192.00766,60,60,0
192.00766,192.15918,56,60,0
192.15918,192.3107,54,60,0
192.3107,192.4622,51,60,0
192.4622,192.61372,54,60,0
192.61372,192.76524,56,60,0
190.03796,192.76524,32,70,0
192.76524,192.91675,53,60,0
192.91675,193.06827,56,60,0
193.06827,193.21979,61,60,0
193.21979,193.37129,65,60,0
193.37129,193.52281,61,60,0
193.52281,193.67433,56,60,0
193.67433,193.82585,53,60,0
193.82585,193.97736,56,60,0
192.76524,194.12888,37,70,0
193.21979,194.58342,44,80,0
194.12888,195.49251,41,70,0
194.58342,195.94705,44,80,0
195.49251,196.85614,36,70,0
195.94705,197.31068,44,80,0
196.85614,198.21977,32,70,0
197.31068,198.67433,44,81,0
198.21977,199.58342,37,75,0
198.67433,200.03796,44,87,0
199.58342,200.94705,41,80,0
200.03796,201.4016,44,92,0
200.94705,202.31068,36,85,0
201.4016,202.76523,44,97,0
202.76523,203.67432,44,96,0
202.31068,203.67432,32,90,0
204.12886,205.03795,46,72,0
203.67432,205.03795,34,77,0
205.4925,205.94705,51,58,0
205.03795,205.94705,39,63,0
205.94705,206.4016,54,54,0
205.94705,206.4016,42,54,0
206.4016,207.76523,44,50,0
207.76523,208.67432,49,50,0
206.85614,208.67432,56,50,0
208.97734,209.12886,56,40,0
209.12886,210.4925,37,110,0
209.5834,210.94704,44,120,0
210.4925,211.85612,40,110,0
210.94704,212.31067,44,120,0
211.85612,213.21976,36,110,0
212.31067,213.67432,44,120,0
213.21976,214.5834,32,110,0
213.67432,215.03795,44,120,0
214.5834,215.94704,37,110,0
215.03795,216.40158,44,120,0
215.94704,217.31067,40,110,0
216.40158,217.76521,44,120,0
217.31067,218.6743,32,110,0
217.76521,219.12885,44,120,0
219.12885,220.03793,44,123,0
218.6743,220.03793,37,112,0
220.49248,221.40158,42,126,0
220.03793,221.40158,30,115,0
221.85612,222.76521,52,127,0
221.40158,222.76521,40,118,0
222.76521,222.87885,45,120,0
222.76521,222.87885,40,120,0
222.76521,222.87885,33,120,0
223.21976,224.12885,45,127,0
223.21976,224.12885,40,127,0
223.21976,224.12885,33,127,0
224.12885,224.24248,45,120,0
224.12885,224.24248,40,120,0
224.12885,224.24248,33,120,0
224.58339,225.49248,45,127,0
224.58339,225.49248,40,127,0
224.58339,225.49248,33,127,0
225.49248,225.60611,45,120,0
225.49248,225.60611,40,120,0
225.49248,225.60611,33,120,0
225.94702,226.85611,45,127,0
225.94702,226.85611,40,127,0
225.94702,226.85611,33,127,0
226.85611,226.96976,45,120,0
226.85611,226.96976,40,120,0
226.85611,226.96976,33,120,0
227.31065,228.6743,45,127,0
227.31065,228.6743,40,127,0
227.31065,228.6743,33,127,0
228.6743,229.12885,45,112,0
228.6743,229.12885,40,112,0
228.6743,229.12885,33,112,0
229.12885,229.58339,45,103,0
229.12885,229.58339,40,103,0
229.12885,229.58339,33,103,0
229.58339,230.03793,45,95,0
229.58339,230.03793,40,95,0
229.58339,230.03793,33,95,0
230.03793,230.49248,45,86,0
230.03793,230.49248,40,86,0
230.03793,230.49248,33,86,0
230.49248,230.644,61,68,0
230.644,230.7955,57,65,0
230.7955,230.94702,52,62,0
230.49248,230.94702,33,78,0
230.49248,230.94702,40,78,0
230.49248,230.94702,45,78,0
230.94702,231.09854,49,60,0
231.09854,231.25005,52,60,0
231.25005,231.40157,57,60,0
231.40157,231.55309,61,60,0
231.55309,231.70459,57,60,0
231.70459,231.85611,52,60,0
231.85611,232.00763,49,60,0
232.00763,232.15913,52,60,0
232.15913,232.31065,57,60,0
230.94702,232.31065,33,70,0
232.31065,232.42429,32,70,0
232.31065,232.46217,49,60,0
232.42429,232.53793,30,70,0
232.53793,232.61368,32,70,0
232.46217,232.61368,54,60,0
232.61368,232.68944,30,70,0
232.68944,232.7652,32,70,0
232.61368,232.7652,57,60,0
232.7652,232.84096,30,70,0
232.84096,232.91672,32,70,0
232.7652,232.91672,61,60,0
232.91672,232.99248,30,70,0
232.99248,233.06822,32,70,0
232.91672,233.06822,57,60,0
233.06822,233.14398,30,70,0
233.14398,233.21974,32,70,0
233.06822,233.21974,54,60,0
233.21974,233.2955,30,70,0
233.2955,233.37126,32,70,0
233.21974,233.37126,49,60,0
233.37126,233.44702,30,70,0
233.37126,233.52278,54,60,0
233.44702,233.56065,29,70,0
233.56065,233.67429,30,70,0
233.52278,233.67429,57,60,0
233.67429,233.8258,49,60,0
233.8258,233.97733,53,60,0
233.97733,234.12883,56,60,0
234.12883,234.28035,61,60,0
234.28035,234.43187,56,60,0
234.43187,234.58337,53,60,0
234.58337,234.7349,49,60,0
234.7349,234.88641,53,60,0
234.88641,235.03792,56,60,0
235.03792,235.18944,51,60,0
235.18944,235.34096,54,60,0
235.34096,235.49246,56,60,0
235.49246,235.64398,60,60,0
235.64398,235.7955,56,60,0
235.7955,235.94702,54,60,0
235.94702,236.09853,51,60,0
236.09853,236.25005,54,60,0
236.25005,236.40157,56,60,0
233.67429,236.40157,32,70,0
236.40157,236.55307,53,60,0
236.55307,236.70459,56,60,0
236.70459,236.85611,61,60,0
236.85611,237.00761,65,60,0
237.00761,237.15913,61,60,0
237.15913,237.31065,56,60,0
237.31065,237.46216,53,60,0
237.46216,237.61368,56,60,0
236.40157,237.7652,37,70,0
236.85611,238.21974,44,80,0
237.7652,239.12883,41,70,0
238.21974,239.58337,44,80,0
239.12883,240.49246,36,70,0
239.58337,240.947,44,80,0
240.49246,241.8561,32,70,0
240.947,242.31064,44,81,0
241.8561,243.21974,37,75,0
242.31064,243.67429,44,87,0
243.21974,244.58337,41,80,0
243.67429,245.03792,44,92,0
244.58337,245.947,36,85,0
245.03792,246.40155,44,97,0
246.40155,247.31064,44,96,0
245.947,247.31064,32,90,0
247.76518,248.67427,46,72,0
247.31064,248.67427,34,77,0
249.12881,249.58336,51,58,0
248.67427,249.58336,39,63,0
249.58336,250.0379,54,54,0
249.58336,250.0379,42,54,0
250.0379,251.40155,44,50,0
251.40155,252.31064,49,50,0
250.49246,252.31064,56,50,0
252.61366,252.76518,56,40,0
252.76518,252.9167,53,40,0
252.9167,253.0682,56,40,0
253.0682,253.21973,61,40,0
253.21973,253.37125,65,40,0
253.37125,253.52275,61,40,0
253.52275,253.67427,56,40,0
253.67427,253.82579,53,40,0
253.82579,253.9773,56,40,0
253.9773,254.12881,61,40,0
254.12881,254.28033,53,40,0
254.28033,254.43184,56,40,0
254.43184,254.58336,61,40,0
254.58336,254.73488,65,40,0
254.73488,254.88638,61,40,0
254.88638,255.0379,56,40,0
255.0379,255.18942,53,40,0
255.18942,255.34093,56,40,0
255.34093,255.49245,61,40,0
252.76518,255.49245,49,50,0
252.76518,255.49245,44,50,0
252.76518,255.49245,37,50,0
255.49245,255.64397,52,40,0
255.64397,255.79549,56,40,0
255.79549,255.94699,61,40,0
255.94699,256.0985,64,40,0
256.0985,256.25003,61,40,0
256.25003,256.40155,56,40,0
256.40155,256.55304,52,40,0
256.55304,256.70456,56,40,0
256.70456,256.85608,61,40,0
255.49245,256.85608,49,50,0
255.49245,256.85608,37,50,0
256.85608,257.0076,52,40,0
257.0076,257.15912,58,40,0
257.15912,257.31064,61,40,0
257.31064,257.46216,64,40,0
257.46216,257.61365,61,40,0
257.61365,257.76517,58,40,0
257.76517,257.9167,52,40,0
257.9167,258.0682,58,40,0
258.0682,258.21973,61,40,0
256.85608,258.21973,46,50,0
256.85608,258.21973,34,50,0
258.21973,258.37125,51,40,0
258.37125,258.52274,58,40,0
258.52274,258.67426,61,40,0
258.67426,258.82578,63,40,0
258.82578,258.9773,61,40,0
258.9773,259.1288,58,40,0
259.1288,259.28033,51,40,0
259.28033,259.43185,58,40,0
259.43185,259.58334,61,40,0
259.58334,259.73486,51,40,0
259.73486,259.88638,58,40,0
259.88638,260.0379,61,40,0
260.0379,260.18942,63,40,0
260.18942,260.34094,61,40,0
260.34094,260.49243,58,40,0
260.49243,260.64395,51,40,0
260.64395,260.79547,58,40,0
260.79547,260.947,61,40,0
258.21973,260.947,43,50,0
258.21973,260.947,39,50,0
258.21973,260.947,31,50,0
260.947,261.91412,43,50,0
260.947,261.91412,58,40,0
260.947,261.91412,51,40,0
260.947,261.91412,61,40,0
260.947,261.91412,39,50,0
260.947,261.91412,31,50,0
261.91412,262.4494,51,40,0
262.4494,263.02618,51,40,0
263.02618,263.6516,51,40,0
263.6516,264.10617,51,50,0
264.10617,264.5607,51,42,0
264.5607,265.46982,51,44,0
264.10617,265.46982,44,52,0
265.46982,265.92435,51,48,0
265.92435,266.83344,51,50,0
265.46982,266.83344,46,58,0
266.83344,267.288,51,55,0
267.288,267.74252,51,57,0
266.83344,267.74252,48,65,0
267.74252,268.19708,43,69,0
267.74252,268.19708,51,59,0
268.19708,269.10617,44,71,0
268.19708,269.10617,51,61,0
269.10617,269.5607,51,76,0
269.5607,270.01526,51,68,0
270.01526,270.92435,51,70,0
269.5607,270.92435,44,78,0
270.92435,271.37888,51,74,0
271.37888,272.288,51,77,0
270.92435,272.288,49,84,0
272.288,272.74252,51,80,0
272.74252,273.19708,51,66,0
272.288,273.19708,48,90,0
273.19708,273.6516,43,61,0
273.19708,273.6516,51,51,0
273.6516,274.5607,44,50,0
273.6516,274.5607,51,40,0
274.5607,275.01526,51,50,0
275.01526,275.4698,51,42,0
275.4698,276.37888,51,44,0
275.01526,276.37888,44,52,0
276.37888,276.83344,51,48,0
276.83344,277.74252,51,50,0
276.37888,277.74252,46,58,0
277.74252,278.19705,51,55,0
278.19705,278.6516,51,57,0
277.74252,278.6516,48,65,0
278.6516,279.10614,43,69,0
278.6516,279.10614,51,59,0
279.10614,280.01526,44,71,0
279.10614,280.01526,51,61,0
280.01526,280.4698,51,76,0
280.4698,280.92435,51,68,0
280.92435,281.83344,51,70,0
280.4698,281.83344,44,78,0
281.83344,282.28796,48,74,0
282.28796,283.19705,48,77,0
281.83344,283.19705,43,84,0
283.19705,283.6516,48,80,0
283.6516,284.10614,48,66,0
283.19705,284.10614,41,90,0
284.10614,284.5607,39,61,0
284.10614,284.5607,51,51,0
284.5607,285.4698,44,50,0
284.5607,285.4698,51,40,0
285.69705,285.92432,60,100,0
285.69705,285.92432,56,100,0
285.69705,285.92432,48,100,0
285.92432,286.37888,60,100,0
285.92432,286.37888,56,100,0
285.92432,286.37888,48,100,0
286.37888,287.0607,60,100,0
286.37888,287.0607,56,100,0
286.37888,287.0607,48,100,0
287.0607,287.28796,44,100,0
287.0607,287.28796,51,100,0
287.0607,287.28796,56,100,0
287.28796,287.74252,44,100,0
287.28796,287.74252,51,100,0
287.28796,287.74252,56,100,0
287.74252,288.42432,44,100,0
287.74252,288.42432,51,100,0
287.74252,288.42432,56,100,0
288.42432,288.6516,53,100,0
288.42432,288.6516,41,100,0
288.6516,288.76523,53,100,0
288.6516,288.76523,41,100,0
289.10614,289.2198,55,100,0
289.10614,289.2198,43,100,0
289.5607,289.67432,51,100,0
289.5607,289.67432,39,100,0
290.01523,291.1516,56,100,0
290.01523,291.1516,51,100,0
290.01523,291.1516,44,100,0
291.1516,291.37888,37,110,0
291.1516,291.37888,44,110,0
291.1516,291.37888,49,110,0
291.37888,291.8334,37,110,0
291.37888,291.8334,44,110,0
291.37888,291.8334,49,110,0
291.8334,292.51523,49,110,0
291.8334,292.51523,44,110,0
291.8334,292.51523,37,110,0
292.51523,292.7425,37,110,0
292.51523,292.7425,44,110,0
292.51523,292.7425,49,110,0
292.7425,293.19705,49,110,0
292.7425,293.19705,44,110,0
292.7425,293.19705,37,110,0
293.19705,293.87888,49,110,0
293.19705,293.87888,44,110,0
293.19705,293.87888,37,110,0
293.87888,294.10614,37,110,0
293.87888,294.10614,49,110,0
294.10614,294.2198,37,110,0
294.10614,294.2198,49,110,0
294.5607,294.67432,33,110,0
294.5607,294.67432,45,110,0
295.01523,295.12888,30,110,0
295.01523,295.12888,42,110,0
295.4698,296.60614,49,110,0
295.4698,296.60614,37,110,0
296.60614,296.8334,45,110,0
296.60614,296.8334,33,110,0
296.8334,299.38815,45,110,0
296.8334,299.38815,33,110,0
299.38815,299.5142,52,60,0
299.38815,299.5142,40,60,0
299.64157,303.1875,52,110,0
299.64157,303.1875,40,110,0
303.1875,303.89468,51,53,0
303.89468,305.45096,51,50,0
303.1875,305.45096,39,63,0
305.45096,306.2843,51,45,0
306.2843,307.5343,51,42,0
305.45096,307.5343,39,55,0
307.5343,307.98883,51,50,0
307.98883,308.4434,51,42,0
308.4434,309.35248,51,44,0
307.98883,309.35248,44,52,0
309.35248,309.807,51,48,0
309.807,310.71613,51,50,0
309.35248,310.71613,46,58,0
310.71613,311.17065,51,55,0
311.17065,311.6252,51,57,0
310.71613,311.6252,48,65,0
311.6252,312.07974,43,69,0
311.6252,312.07974,51,59,0
312.07974,312.98883,44,71,0
312.07974,312.98883,51,61,0
312.98883,313.4434,51,76,0
313.4434,313.89792,51,68,0
313.89792,314.807,51,70,0
313.4434,314.807,42,78,0
314.807,315.26157,51,74,0
315.26157,315.9434,51,77,0
314.807,315.9434,41,84,0
315.9434,316.17065,40,90,0
315.9434,316.17065,49,80,0
316.17065,316.62518,40,90,0
316.17065,316.62518,49,80,0
316.62518,317.07974,39,76,0
316.62518,317.07974,51,66,0
317.07974,317.1934,39,61,0
317.07974,317.1934,51,51,0
317.07974,317.1934,49,51,0
317.5343,318.4434,44,50,0
317.5343,318.4434,51,40,0
317.5343,318.4434,48,40,0
318.4434,318.89792,51,50,0
318.89792,319.35248,51,42,0
319.35248,320.26157,51,44,0
318.89792,320.26157,44,52,0
320.26157,320.7161,51,48,0
320.7161,321.62518,51,50,0
320.26157,321.62518,46,58,0
321.62518,322.07974,51,55,0
322.07974,322.53427,51,57,0
321.62518,322.53427,48,65,0
322.53427,322.98883,43,69,0
322.53427,322.98883,51,59,0
322.98883,323.89792,44,71,0
322.98883,323.89792,51,61,0
323.89792,324.35245,51,76,0
324.35245,324.807,51,68,0
324.807,325.7161,51,70,0
324.35245,325.7161,42,78,0
325.7161,326.17065,51,74,0
326.17065,326.85245,51,77,0
325.7161,326.85245,41,84,0
326.85245,327.07974,40,90,0
326.85245,327.07974,49,80,0
327.07974,327.53427,40,90,0
327.07974,327.53427,49,80,0
327.53427,327.98883,39,76,0
327.53427,327.98883,51,66,0
327.98883,328.10245,39,61,0
327.98883,328.10245,51,51,0
327.98883,328.10245,49,51,0
328.44336,329.35245,44,50,0
328.44336,329.35245,48,40,0
328.44336,329.35245,51,40,0
329.57974,329.807,40,50,0
329.57974,329.807,49,40,0
329.807,330.26862,40,50,0
329.807,330.26862,49,40,0
330.26862,330.74655,39,50,0
330.26862,330.74655,51,40,0
330.74655,330.8687,39,50,0
330.74655,330.8687,51,40,0
330.74655,330.8687,49,40,0
331.24213,332.56744,44,50,0
331.24213,332.56744,51,40,0
331.24213,332.56744,48,40,0
332.56744,332.84897,40,50,0
332.56744,332.84897,49,40,0
332.56744,332.84897,46,40,0
332.84897,333.4303,40,50,0
332.84897,333.4303,49,40,0
332.84897,333.4303,46,40,0
333.4303,334.03793,39,50,0
333.4303,334.03793,48,40,0
333.4303,334.03793,51,40,0
334.03793,334.19415,39,50,0
334.03793,334.19415,51,40,0
334.03793,334.19415,49,40,0
334.67438,335.97873,44,50,0
334.67438,335.97873,48,40,0
334.67438,335.97873,51,40,0
