start_time,end_time,note_value,velocity,instrument_program_number
0.0,0.652174,74,70,0
0.652174,0.978261,74,70,0
0.978261,1.304348,74,70,0
1.304348,1.956522,70,70,0
1.956522,2.608696,70,70,0
2.608696,3.26087,69,70,0
3.26087,3.586957,69,70,0
3.586957,3.913044,69,70,0
3.913044,3.9945657,69,60,0
3.9945657,5.217392,75,70,0
5.217392,5.869566,74,70,0
5.869566,6.195653,74,70,0
6.195653,6.52174,74,70,0
6.52174,6.847827,74,70,0
6.847827,7.0108705,67,70,0
7.173914,7.826088,67,70,0
7.826088,8.152175,72,70,0
8.152175,8.315219,71,70,0
8.315219,8.478262,72,70,0
8.478262,8.641306,71,70,0
8.641306,8.804349,72,70,0
8.804349,8.967393,74,70,0
8.967393,9.130436,72,70,0
9.456523,9.78261,60,60,0
9.78261,10.108697,62,60,0
10.108697,10.434784,63,60,0
9.130436,10.434784,65,70,0
10.434784,11.086958,74,70,0
10.434784,11.086958,86,70,0
11.086958,11.413045,74,70,0
11.086958,11.413045,86,70,0
11.413045,11.739132,74,70,0
11.413045,11.739132,86,70,0
11.739132,12.391306,70,70,0
11.739132,12.391306,82,70,0
12.391306,13.04348,70,70,0
12.391306,13.04348,82,70,0
13.04348,13.695654,69,70,0
13.04348,13.695654,81,70,0
13.695654,14.021741,69,70,0
13.695654,14.021741,81,70,0
14.021741,14.347828,69,70,0
14.021741,14.347828,81,70,0
14.347828,14.42935,81,60,0
14.42935,15.652176,87,70,0
14.347828,15.652176,75,70,0
15.652176,16.30435,74,70,0
15.652176,16.30435,86,70,0
16.30435,16.630438,74,80,0
16.30435,16.630438,86,80,0
16.630438,16.956524,74,86,0
16.630438,16.956524,86,86,0
16.956524,17.608698,79,90,0
16.956524,17.608698,91,90,0
17.608698,17.934786,79,70,0
17.934786,18.260872,82,64,0
17.608698,18.260872,91,80,0
18.260872,18.58696,82,60,0
18.58696,18.750002,81,60,0
18.750002,18.913046,79,60,0
18.913046,19.239134,81,60,0
18.260872,19.239134,84,70,0
19.239134,19.56522,89,70,0
19.239134,19.56522,81,60,0
19.239134,19.56522,75,60,0
19.56522,20.869568,74,70,0
19.56522,20.869568,82,70,0
20.869568,21.521742,74,70,0
21.521742,21.84783,74,70,0
21.84783,22.173916,74,70,0
22.173916,22.82609,70,70,0
22.82609,23.478264,70,70,0
23.478264,24.130438,69,70,0
24.130438,24.456526,69,70,0
24.456526,24.782612,69,70,0
24.782612,24.864134,69,60,0
24.864134,26.08696,75,70,0
26.08696,26.739134,74,70,0
26.739134,27.065222,74,70,0
27.065222,27.391308,74,70,0
27.391308,27.717396,74,70,0
27.717396,27.880438,67,70,0
28.043482,28.695656,67,70,0
28.695656,29.021744,72,70,0
29.021744,29.184786,71,70,0
29.184786,29.34783,72,70,0
29.34783,29.510874,71,70,0
29.510874,29.673918,72,70,0
29.673918,29.83696,74,70,0
29.83696,30.000004,72,70,0
30.326092,30.652178,60,60,0
30.652178,30.978266,62,60,0
30.978266,31.304352,63,60,0
30.000004,31.304352,65,70,0
31.304352,31.956526,74,70,0
31.304352,31.956526,86,70,0
31.956526,32.28261,74,70,0
31.956526,32.28261,86,70,0
32.28261,32.6087,74,70,0
32.28261,32.6087,86,70,0
32.6087,33.260876,70,70,0
32.6087,33.260876,82,70,0
33.260876,33.913048,70,70,0
33.260876,33.913048,82,70,0
33.913048,34.565224,69,70,0
33.913048,34.565224,81,70,0
34.565224,34.891308,69,70,0
34.565224,34.891308,81,70,0
34.891308,35.217396,69,70,0
34.891308,35.217396,81,70,0
35.217396,35.298916,81,60,0
35.298916,36.521744,87,70,0
35.217396,36.521744,75,70,0
36.521744,37.17392,74,70,0
36.521744,37.17392,86,70,0
37.17392,37.500004,74,80,0
37.17392,37.500004,86,80,0
37.500004,37.82609,74,86,0
37.500004,37.82609,86,86,0
37.82609,38.478268,79,90,0
37.82609,38.478268,91,90,0
38.478268,38.80435,79,70,0
38.80435,39.13044,82,64,0
38.478268,39.13044,91,80,0
39.13044,39.456528,82,60,0
39.456528,39.61957,81,60,0
39.61957,39.782616,79,60,0
39.782616,40.1087,81,60,0
39.13044,40.1087,84,70,0
40.1087,40.434788,89,70,0
40.1087,40.434788,81,60,0
40.1087,40.434788,75,60,0
40.434788,41.739136,74,70,0
40.434788,41.739136,82,70,0
41.739136,42.39131,66,90,0
41.739136,42.39131,69,90,0
41.739136,42.39131,74,90,0
42.39131,42.717396,66,90,0
42.39131,42.717396,69,90,0
42.39131,42.717396,74,90,0
42.717396,43.043484,74,90,0
42.717396,43.043484,69,90,0
42.717396,43.043484,66,90,0
43.043484,43.69566,62,90,0
43.043484,43.69566,67,90,0
43.043484,43.69566,70,90,0
43.69566,44.34783,62,90,0
43.69566,44.34783,70,90,0
43.69566,44.34783,67,90,0
44.836964,44.918484,72,80,0
44.34783,45.000008,70,90,0
44.918484,45.000008,70,80,0
44.34783,45.000008,62,90,0
44.34783,45.000008,67,90,0
45.000008,45.32609,62,90,0
45.000008,45.32609,69,90,0
45.32609,45.65218,62,90,0
45.32609,45.65218,67,90,0
45.65218,46.63044,72,90,0
46.63044,46.956528,70,90,0
45.65218,46.956528,64,80,0
45.65218,46.956528,67,80,0
46.956528,47.608704,60,90,0
46.956528,47.608704,65,90,0
46.956528,47.608704,69,90,0
47.608704,47.934788,60,85,0
47.608704,47.934788,65,85,0
47.608704,47.934788,69,85,0
47.934788,48.260876,60,82,0
47.934788,48.260876,69,82,0
47.934788,48.260876,65,82,0
48.260876,48.91305,62,80,0
48.260876,48.91305,65,80,0
48.260876,48.91305,67,80,0
48.91305,49.565224,62,74,0
48.91305,49.565224,65,74,0
48.91305,49.565224,67,74,0
49.565224,49.89131,67,70,0
49.89131,50.054356,69,70,0
50.054356,50.2174,70,70,0
49.565224,50.2174,64,60,0
50.2174,50.543484,69,70,0
50.2174,50.543484,65,60,0
50.543484,50.86957,67,70,0
50.543484,50.86957,64,60,0
49.565224,50.86957,60,60,0
51.19566,51.521748,60,60,0
51.521748,51.84783,62,60,0
51.84783,52.17392,63,60,0
50.86957,52.17392,65,70,0
52.17392,52.826096,74,70,0
52.17392,52.826096,86,70,0
52.826096,53.15218,74,70,0
52.826096,53.15218,86,70,0
53.15218,53.478268,74,70,0
53.15218,53.478268,86,70,0
53.478268,54.130444,70,70,0
53.478268,54.130444,82,70,0
54.130444,54.782616,70,70,0
54.130444,54.782616,82,70,0
54.782616,55.271748,82,70,0
55.271748,55.353268,84,70,0
55.353268,55.43479,82,70,0
55.43479,55.59783,81,70,0
55.679356,55.72283,84,70,0
55.7174,55.760876,86,70,0
55.59783,55.760876,82,70,0
55.760876,55.92392,84,70,0
55.92392,56.086964,82,70,0
56.086964,57.39131,79,70,0
56.086964,57.39131,91,70,0
57.39131,58.043488,64,70,0
57.39131,58.043488,70,70,0
57.39131,58.043488,72,70,0
58.043488,58.36957,64,75,0
58.043488,58.36957,70,75,0
58.043488,58.36957,72,75,0
58.36957,58.69566,64,78,0
58.36957,58.69566,70,78,0
58.36957,58.69566,72,78,0
58.69566,59.347836,65,80,0
58.69566,59.347836,77,80,0
58.69566,59.347836,74,80,0
58.69566,59.347836,70,80,0
59.347836,60.000008,65,86,0
59.347836,60.000008,77,86,0
59.347836,60.000008,74,86,0
59.347836,60.000008,70,86,0
60.000008,60.326096,70,80,0
60.326096,60.48914,69,75,0
60.48914,60.652184,67,72,0
60.652184,60.978268,69,70,0
60.000008,60.978268,72,90,0
60.978268,61.304356,77,74,0
60.978268,61.304356,69,64,0
60.978268,61.304356,63,64,0
61.304356,62.608704,70,70,0
61.304356,62.608704,62,70,0
62.608704,63.26088,66,90,0
62.608704,63.26088,69,90,0
62.608704,63.26088,74,90,0
63.26088,63.586964,66,90,0
63.26088,63.586964,69,90,0
63.26088,63.586964,74,90,0
63.586964,63.91305,74,90,0
63.586964,63.91305,69,90,0
63.586964,63.91305,66,90,0
63.91305,64.56522,62,90,0
63.91305,64.56522,67,90,0
63.91305,64.56522,70,90,0
64.56522,65.2174,62,90,0
64.56522,65.2174,70,90,0
64.56522,65.2174,67,90,0
65.70653,65.788055,72,80,0
65.2174,65.869576,70,90,0
65.788055,65.869576,70,80,0
65.2174,65.869576,62,90,0
65.2174,65.869576,67,90,0
65.869576,66.19566,62,90,0
65.869576,66.19566,69,90,0
66.19566,66.52175,62,90,0
66.19566,66.52175,67,90,0
66.52175,67.50001,72,90,0
67.50001,67.826096,70,90,0
66.52175,67.826096,64,80,0
66.52175,67.826096,67,80,0
67.826096,68.47827,60,90,0
67.826096,68.47827,65,90,0
67.826096,68.47827,69,90,0
68.47827,68.80436,60,85,0
68.47827,68.80436,65,85,0
68.47827,68.80436,69,85,0
68.80436,69.13045,60,82,0
68.80436,69.13045,69,82,0
68.80436,69.13045,65,82,0
69.13045,69.782616,62,80,0
69.13045,69.782616,65,80,0
69.13045,69.782616,67,80,0
69.782616,70.43479,62,74,0
69.782616,70.43479,65,74,0
69.782616,70.43479,67,74,0
70.43479,70.76088,67,70,0
70.76088,70.92392,69,70,0
70.92392,71.08697,70,70,0
70.43479,71.08697,64,60,0
71.08697,71.413055,69,70,0
71.08697,71.413055,65,60,0
71.413055,71.73914,67,70,0
71.413055,71.73914,64,60,0
70.43479,71.73914,60,60,0
72.06522,72.39131,60,60,0
72.39131,72.7174,62,60,0
72.7174,73.04349,63,60,0
71.73914,73.04349,65,70,0
73.04349,73.69566,74,70,0
73.04349,73.69566,86,70,0
73.69566,74.02175,74,70,0
73.69566,74.02175,86,70,0
74.02175,74.34784,74,70,0
74.02175,74.34784,86,70,0
74.34784,75.00001,70,70,0
74.34784,75.00001,82,70,0
75.00001,75.65218,70,70,0
75.00001,75.65218,82,70,0
75.65218,76.14131,82,70,0
76.14131,76.22284,84,70,0
76.22284,76.30436,82,70,0
76.30436,76.4674,81,70,0
76.54892,76.5924,84,70,0
76.58697,76.63045,86,70,0
76.4674,76.63045,82,70,0
76.63045,76.79349,84,70,0
76.79349,76.956535,82,70,0
76.956535,78.26088,79,70,0
76.956535,78.26088,91,70,0
78.26088,78.913055,64,70,0
78.26088,78.913055,70,70,0
78.26088,78.913055,72,70,0
78.913055,79.23914,64,75,0
78.913055,79.23914,70,75,0
78.913055,79.23914,72,75,0
79.23914,79.56523,64,78,0
79.23914,79.56523,70,78,0
79.23914,79.56523,72,78,0
79.56523,80.2174,65,80,0
79.56523,80.2174,77,80,0
79.56523,80.2174,74,80,0
79.56523,80.2174,70,80,0
80.2174,80.869576,65,86,0
80.2174,80.869576,77,86,0
80.2174,80.869576,74,86,0
80.2174,80.869576,70,86,0
80.869576,81.19566,70,80,0
81.19566,81.3587,69,75,0
81.3587,81.52175,67,72,0
81.52175,81.84784,69,70,0
80.869576,81.84784,72,90,0
81.84784,82.17393,77,74,0
81.84784,82.17393,69,64,0
81.84784,82.17393,63,64,0
82.17393,83.47827,70,70,0
82.17393,83.47827,62,70,0
83.47827,83.80436,70,40,0
83.80436,83.9674,69,40,0
83.9674,84.13045,67,40,0
84.13045,84.456535,69,40,0
83.47827,84.456535,72,50,0
84.456535,84.78262,77,50,0
84.456535,84.78262,69,40,0
84.456535,84.78262,63,40,0
84.78262,85.76088,70,50,0
84.78262,85.76088,62,50,0
88.85871,89.02175,62,41,0
89.02175,89.18479,65,42,0
88.69566,89.18479,74,50,0
89.18479,89.34784,74,53,0
89.51088,89.67393,62,46,0
89.67393,89.83697,65,47,0
89.34784,89.83697,74,55,0
89.83697,90.000015,74,59,0
90.163055,90.326096,62,51,0
90.326096,90.48914,65,53,0
90.000015,90.48914,72,60,0
90.48914,90.65218,70,64,0
90.81523,90.97827,62,56,0
90.97827,91.14132,65,58,0
90.65218,91.14132,70,65,0
91.14132,91.30436,72,69,0
91.46741,91.63045,63,62,0
91.63045,91.79349,65,63,0
91.30436,91.79349,70,70,0
91.79349,91.956535,69,74,0
92.119576,92.28262,65,67,0
92.28262,92.44566,69,68,0
91.956535,92.44566,72,76,0
92.44566,92.60871,74,79,0
92.77175,92.93479,69,72,0
92.93479,93.09784,72,73,0
92.60871,93.09784,75,81,0
93.09784,93.26088,78,85,0
93.42393,93.58697,69,77,0
93.58697,93.750015,72,79,0
93.26088,93.750015,79,86,0
93.750015,93.913055,75,90,0
94.0761,94.23914,66,79,0
94.23914,94.40218,69,78,0
93.913055,94.40218,74,90,0
94.40218,94.56523,75,87,0
94.72827,94.89132,66,74,0
94.89132,95.05436,69,73,0
94.56523,95.05436,74,85,0
95.05436,95.21741,72,81,0
95.38045,95.54349,65,69,0
95.54349,95.706535,68,67,0
95.21741,95.706535,72,80,0
95.706535,95.869576,72,76,0
96.03262,96.19566,65,64,0
96.19566,96.35871,68,62,0
95.869576,96.35871,71,75,0
96.35871,96.52175,71,71,0
96.6848,96.84784,63,58,0
96.84784,97.01088,67,57,0
96.52175,97.01088,71,70,0
97.01088,97.17393,72,66,0
97.33697,97.500015,63,53,0
97.500015,97.663055,66,52,0
97.17393,97.663055,75,64,0
97.663055,97.8261,72,61,0
97.98914,98.15218,62,48,0
98.15218,98.31523,65,47,0
97.8261,98.31523,70,59,0
98.31523,98.47827,70,55,0
98.64132,98.80436,60,43,0
98.80436,98.96741,65,41,0
98.47827,98.96741,69,54,0
98.96741,99.13045,69,50,0
99.293495,99.456535,62,41,0
99.456535,99.619576,65,42,0
99.13045,99.619576,74,50,0
99.619576,99.78262,74,53,0
99.94566,100.10871,62,46,0
100.10871,100.27175,65,47,0
99.78262,100.27175,74,55,0
100.27175,100.4348,74,59,0
100.59784,100.76088,62,51,0
100.76088,100.92393,65,53,0
100.4348,100.92393,72,60,0
100.92393,101.08697,70,64,0
101.250015,101.413055,62,56,0
101.413055,101.5761,65,58,0
101.08697,101.5761,70,65,0
101.5761,101.73914,72,69,0
101.90219,102.06523,63,62,0
102.06523,102.22827,65,63,0
101.73914,102.22827,70,70,0
102.22827,102.39132,69,74,0
102.55436,102.71741,65,67,0
102.71741,102.88045,69,68,0
102.39132,102.88045,72,76,0
102.88045,103.043495,74,79,0
103.206535,103.369576,69,72,0
103.369576,103.53262,72,73,0
103.043495,103.53262,75,81,0
103.53262,103.69566,78,85,0
103.85871,104.02175,69,77,0
104.02175,104.1848,72,79,0
103.69566,104.1848,79,86,0
104.1848,104.34784,75,90,0
104.51089,104.67393,62,79,0
104.67393,104.83697,65,78,0
104.34784,104.83697,74,90,0
104.83697,105.000015,69,86,0
105.163055,105.3261,62,74,0
105.3261,105.48914,65,72,0
105.000015,105.48914,70,85,0
105.48914,105.65219,72,81,0
105.81523,105.97827,67,68,0
105.97827,106.14132,70,67,0
105.65219,106.14132,73,80,0
106.14132,106.30436,79,76,0
106.46741,106.63045,70,63,0
106.63045,106.793495,73,61,0
106.30436,106.793495,81,74,0
106.793495,106.956535,82,70,0
107.11958,107.28262,65,57,0
107.28262,107.44566,70,56,0
106.956535,107.44566,72,69,0
107.44566,107.60871,74,65,0
107.77175,107.9348,65,52,0
107.9348,108.09784,69,51,0
107.60871,108.09784,75,63,0
108.09784,108.26089,77,59,0
108.42393,108.58697,62,46,0
108.58697,108.750015,65,45,0
108.26089,108.750015,70,58,0
108.750015,108.913055,69,54,0
109.0761,109.23914,62,41,0
109.23914,109.40219,65,40,0
108.913055,109.40219,70,52,0
109.40219,109.56523,72,50,0
109.72828,109.89132,62,41,0
109.89132,110.05436,65,42,0
109.56523,110.05436,74,50,0
110.05436,110.21741,74,53,0
110.38045,110.543495,62,46,0
110.543495,110.706535,65,47,0
110.21741,110.706535,74,55,0
110.706535,110.86958,74,59,0
111.03262,111.19566,62,51,0
111.19566,111.35871,65,53,0
110.86958,111.35871,72,60,0
111.35871,111.52175,70,64,0
111.6848,111.84784,62,56,0
111.84784,112.01089,65,58,0
111.52175,112.01089,70,65,0
112.01089,112.17393,72,69,0
112.336975,112.500015,63,62,0
112.500015,112.663055,65,63,0
112.17393,112.663055,70,70,0
112.663055,112.8261,69,74,0
112.98914,113.15219,65,67,0
113.15219,113.31523,69,68,0
112.8261,113.31523,72,76,0
113.31523,113.47828,74,79,0
113.64132,113.80436,69,72,0
113.80436,113.96741,72,73,0
113.47828,113.96741,75,81,0
113.96741,114.13045,78,85,0
114.293495,114.456535,69,77,0
114.456535,114.61958,72,79,0
114.13045,114.61958,79,86,0
114.61958,114.78262,75,90,0
114.94567,115.10871,66,79,0
115.10871,115.27175,69,78,0
114.78262,115.27175,74,90,0
115.27175,115.4348,75,87,0
115.59784,115.76089,66,74,0
115.76089,115.92393,69,73,0
115.4348,115.92393,74,85,0
115.92393,116.086975,72,81,0
116.250015,116.413055,65,69,0
116.413055,116.5761,68,67,0
116.086975,116.5761,72,80,0
116.5761,116.73914,72,76,0
116.90219,117.06523,65,64,0
117.06523,117.22828,68,62,0
116.73914,117.22828,71,75,0
117.22828,117.39132,71,71,0
117.55437,117.71741,63,58,0
117.71741,117.88045,67,57,0
117.39132,117.88045,71,70,0
117.88045,118.043495,72,66,0
118.206535,118.36958,63,53,0
118.36958,118.53262,66,52,0
118.043495,118.53262,75,64,0
118.53262,118.69567,72,61,0
118.85871,119.02175,62,48,0
119.02175,119.1848,65,47,0
118.69567,119.1848,70,59,0
119.1848,119.34784,70,55,0
119.51089,119.67393,60,43,0
119.67393,119.836975,65,41,0
119.34784,119.836975,69,54,0
119.836975,120.000015,69,50,0
120.16306,120.3261,62,41,0
120.3261,120.48914,65,42,0
120.000015,120.48914,74,50,0
120.48914,120.65219,74,53,0
120.81523,120.97828,62,46,0
120.97828,121.14132,65,47,0
120.65219,121.14132,74,55,0
121.14132,121.30437,74,59,0
121.46741,121.63045,62,51,0
121.63045,121.793495,65,53,0
121.30437,121.793495,72,60,0
121.793495,121.956535,70,64,0
122.11958,122.28262,62,56,0
122.28262,122.44567,65,58,0
121.956535,122.44567,70,65,0
122.44567,122.60871,72,69,0
122.77176,122.9348,63,62,0
122.9348,123.09784,65,63,0
122.60871,123.09784,70,70,0
123.09784,123.26089,69,74,0
123.42393,123.586975,65,67,0
123.586975,123.750015,69,68,0
123.26089,123.750015,72,76,0
123.750015,123.91306,74,79,0
124.0761,124.23914,69,72,0
124.23914,124.40219,72,73,0
123.91306,124.40219,75,81,0
124.40219,124.56523,78,85,0
124.72828,124.89132,69,77,0
124.89132,125.05437,72,79,0
124.56523,125.05437,79,86,0
125.05437,125.21741,75,90,0
125.380455,125.543495,62,79,0
125.543495,125.706535,65,78,0
125.21741,125.706535,74,90,0
125.706535,125.86958,69,86,0
126.03262,126.19567,62,74,0
126.19567,126.35871,65,72,0
125.86958,126.35871,70,85,0
126.35871,126.52176,72,81,0
126.6848,126.84784,67,68,0
126.84784,127.01089,70,67,0
126.52176,127.01089,73,80,0
127.01089,127.17393,79,76,0
127.336975,127.500015,70,63,0
127.500015,127.66306,73,61,0
127.17393,127.66306,81,74,0
127.66306,127.8261,82,70,0
127.98915,128.15219,65,57,0
128.15219,128.31523,70,56,0
127.8261,128.31523,72,69,0
128.31523,128.47827,74,65,0
128.64133,128.80437,65,52,0
128.80437,128.9674,69,51,0
128.47827,128.9674,75,63,0
128.9674,129.13045,77,59,0
129.2935,129.45654,62,46,0
129.45654,129.61958,65,45,0
129.13045,129.61958,70,58,0
129.61958,129.78262,69,54,0
129.94566,130.10872,62,41,0
130.10872,130.27176,65,40,0
129.78262,130.27176,70,52,0
130.27176,130.4348,72,50,0
130.59784,130.76088,66,40,0
130.76088,130.92393,69,40,0
130.4348,130.92393,74,50,0
130.92393,131.08698,75,50,0
131.25002,131.41306,66,40,0
131.41306,131.57611,69,40,0
131.08698,131.57611,74,50,0
131.57611,131.73915,72,50,0
131.90219,132.06523,65,40,0
132.06523,132.22827,67,40,0
131.73915,132.22827,72,50,0
132.22827,132.39133,71,50,0
132.55437,132.7174,65,40,0
132.7174,132.88045,67,40,0
132.39133,132.88045,72,50,0
132.88045,133.0435,74,50,0
133.20654,133.36958,71,40,0
133.36958,133.53262,74,41,0
133.0435,133.53262,79,50,0
133.53262,133.69566,80,51,0
133.85872,134.02176,71,43,0
134.02176,134.1848,74,43,0
133.69566,134.1848,79,52,0
134.1848,134.34784,77,54,0
134.5109,134.67393,67,45,0
134.67393,134.83698,70,46,0
134.34784,134.83698,77,55,0
134.83698,135.00002,76,57,0
135.16306,135.32611,64,48,0
135.32611,135.48915,70,49,0
135.00002,135.48915,74,57,0
135.48915,135.65219,72,59,0
135.81523,135.97827,65,51,0
135.97827,136.14133,69,51,0
135.65219,136.14133,72,60,0
136.14133,136.30437,74,62,0
136.4674,136.63045,69,53,0
136.63045,136.7935,72,54,0
136.30437,136.7935,76,63,0
136.7935,136.95654,77,65,0
137.11958,137.28262,65,56,0
137.28262,137.44566,70,57,0
136.95654,137.44566,77,65,0
137.44566,137.60872,74,67,0
137.77176,137.9348,66,59,0
137.9348,138.09784,67,59,0
137.60872,138.09784,72,68,0
138.09784,138.2609,70,70,0
138.42393,138.58698,60,60,0
138.58698,138.75002,65,60,0
138.2609,138.75002,69,70,0
138.75002,138.91306,70,70,0
139.07611,139.23915,60,60,0
139.23915,139.40219,64,60,0
138.91306,139.40219,67,70,0
139.40219,139.56523,72,70,0
139.72829,139.89133,60,60,0
139.56523,140.05437,65,70,0
139.89133,140.05437,65,60,0
140.05437,140.2174,69,70,0
140.38045,140.5435,65,60,0
140.2174,140.5435,72,70,0
140.70654,140.86958,65,60,0
140.5435,140.86958,73,70,0
141.03262,141.19566,62,60,0
141.19566,141.35872,65,60,0
140.86958,141.35872,74,70,0
141.35872,141.52176,74,70,0
141.6848,141.84784,62,60,0
141.84784,142.0109,65,60,0
141.52176,142.0109,74,70,0
142.0109,142.17393,74,70,0
142.33698,142.50002,65,60,0
142.50002,142.66306,68,60,0
142.17393,142.66306,72,70,0
142.66306,142.82611,70,70,0
142.98915,143.15219,65,60,0
143.15219,143.31523,68,60,0
142.82611,143.31523,70,70,0
143.31523,143.47829,72,70,0
143.64133,143.80437,66,59,0
143.80437,143.9674,67,58,0
143.47829,143.9674,70,70,0
143.9674,144.13045,72,66,0
144.2935,144.45654,67,54,0
144.45654,144.61958,70,52,0
144.13045,144.61958,74,65,0
144.61958,144.78262,75,61,0
144.94568,145.10872,70,48,0
145.10872,145.27176,73,47,0
144.78262,145.27176,78,60,0
145.27176,145.4348,79,56,0
145.59784,145.7609,70,43,0
145.7609,145.92393,73,41,0
145.4348,145.92393,81,54,0
145.92393,146.08698,82,50,0
146.25002,146.41306,64,40,0
146.41306,146.57611,70,40,0
146.08698,146.57611,72,50,0
146.57611,146.73915,74,50,0
146.90219,147.06523,64,40,0
147.06523,147.22829,70,40,0
146.73915,147.22829,72,50,0
147.22829,147.39133,73,50,0
147.55437,147.7174,65,40,0
147.7174,147.88045,70,40,0
147.39133,147.88045,74,50,0
147.88045,148.0435,74,50,0
148.20654,148.36958,65,40,0
148.0435,148.36958,75,50,0
148.36958,148.53262,74,50,0
148.53262,148.69568,77,50,0
148.85872,149.02176,65,40,0
149.02176,149.1848,72,40,0
148.69568,149.1848,77,50,0
149.1848,149.34784,75,50,0
149.5109,149.67393,65,40,0
149.67393,149.83698,69,40,0
149.34784,149.83698,74,50,0
149.83698,150.00002,72,50,0
150.16307,150.32611,62,40,0
150.32611,150.48915,65,40,0
150.00002,150.48915,70,50,0
150.48915,150.65219,69,50,0
150.81523,150.97829,62,40,0
150.97829,151.14133,65,40,0
150.65219,151.14133,70,50,0
151.14133,151.30437,72,50,0
151.4674,151.63045,66,40,0
151.63045,151.7935,69,40,0
151.30437,151.7935,74,50,0
151.7935,151.95654,75,50,0
152.11958,152.28262,66,40,0
152.28262,152.44568,69,40,0
151.95654,152.44568,74,50,0
152.44568,152.60872,72,50,0
152.77176,152.9348,65,40,0
152.9348,153.09784,67,40,0
152.60872,153.09784,72,50,0
153.09784,153.2609,71,50,0
153.42393,153.58698,65,40,0
153.58698,153.75002,67,40,0
153.2609,153.75002,72,50,0
153.75002,153.91307,74,50,0
154.07611,154.23915,71,40,0
154.23915,154.40219,74,41,0
153.91307,154.40219,79,50,0
154.40219,154.56523,80,51,0
154.72829,154.89133,71,43,0
154.89133,155.05437,74,43,0
154.56523,155.05437,79,52,0
155.05437,155.2174,77,54,0
155.38046,155.5435,67,45,0
155.5435,155.70654,70,46,0
155.2174,155.70654,77,55,0
155.70654,155.86958,76,57,0
156.03262,156.19568,64,48,0
156.19568,156.35872,70,49,0
155.86958,156.35872,74,57,0
156.35872,156.52176,72,59,0
156.6848,156.84785,65,51,0
156.84785,157.0109,69,51,0
156.52176,157.0109,72,60,0
157.0109,157.17393,74,62,0
157.33698,157.50002,69,53,0
157.50002,157.66307,72,54,0
157.17393,157.66307,76,63,0
157.66307,157.82611,77,65,0
157.98915,158.15219,65,56,0
158.15219,158.31523,70,57,0
157.82611,158.31523,77,65,0
158.31523,158.47829,74,67,0
158.64133,158.80437,66,59,0
158.80437,158.9674,67,59,0
158.47829,158.9674,72,68,0
158.9674,159.13046,70,70,0
159.2935,159.45654,60,60,0
159.45654,159.61958,65,60,0
159.13046,159.61958,69,70,0
159.61958,159.78262,70,70,0
159.94568,160.10872,60,60,0
160.10872,160.27176,64,60,0
159.78262,160.27176,67,70,0
160.27176,160.4348,72,70,0
160.59785,160.7609,60,60,0
160.4348,160.92393,65,70,0
160.7609,160.92393,65,60,0
160.92393,161.08698,69,70,0
161.25002,161.41307,65,60,0
161.08698,161.41307,72,70,0
161.57611,161.73915,65,60,0
161.41307,161.73915,73,70,0
161.90219,162.06525,62,60,0
162.06525,162.22829,65,60,0
161.73915,162.22829,74,70,0
162.22829,162.39133,74,70,0
162.55437,162.7174,62,60,0
162.7174,162.88046,65,60,0
162.39133,162.88046,74,70,0
162.88046,163.0435,74,70,0
163.20654,163.36958,65,60,0
163.36958,163.53262,68,60,0
163.0435,163.53262,72,70,0
163.53262,163.69568,70,70,0
163.85872,164.02176,65,60,0
164.02176,164.1848,68,60,0
163.69568,164.1848,70,70,0
164.1848,164.34785,72,70,0
164.5109,164.67393,66,59,0
164.67393,164.83698,67,58,0
164.34785,164.83698,70,70,0
164.83698,165.00002,72,66,0
165.16307,165.32611,67,54,0
165.32611,165.48915,70,52,0
165.00002,165.48915,74,65,0
165.48915,165.65219,75,61,0
165.81525,165.97829,70,48,0
165.97829,166.14133,73,47,0
165.65219,166.14133,78,60,0
166.14133,166.30437,79,56,0
166.4674,166.63046,70,43,0
166.63046,166.7935,73,41,0
166.30437,166.7935,81,54,0
166.7935,166.95654,82,50,0
167.11958,167.28264,64,40,0
167.28264,167.44568,70,40,0
166.95654,167.44568,72,50,0
167.44568,167.60872,74,50,0
167.77176,167.9348,64,40,0
167.9348,168.09785,70,40,0
167.60872,168.09785,72,50,0
168.09785,168.2609,73,50,0
168.42393,168.58698,65,40,0
168.58698,168.75002,70,40,0
168.2609,168.75002,74,50,0
168.75002,168.91307,74,50,0
169.07611,169.23915,65,40,0
168.91307,169.23915,75,50,0
169.23915,169.40219,74,50,0
169.40219,169.56525,77,50,0
169.72829,169.89133,65,40,0
169.89133,170.05437,72,40,0
169.56525,170.05437,77,50,0
170.05437,170.2174,75,50,0
170.38046,170.5435,65,40,0
170.5435,170.70654,69,40,0
170.2174,170.70654,74,50,0
170.70654,170.86958,72,50,0
171.03264,171.19568,62,40,0
171.19568,171.35872,65,40,0
170.86958,171.35872,70,50,0
171.35872,171.52176,72,50,0
171.6848,171.84785,62,40,0
171.84785,172.0109,65,40,0
171.52176,172.0109,70,50,0
172.0109,172.17393,74,50,0
172.3378,172.50328,65,40,0
172.50328,172.6704,72,40,0
172.17393,172.6704,77,50,0
172.6704,172.83931,75,50,0
173.00992,173.18242,65,40,0
173.18242,173.35672,69,40,0
172.83931,173.35672,74,50,0
173.35672,173.53291,72,50,0
173.71095,173.89105,62,40,0
173.89105,174.07309,65,40,0
173.53291,174.07309,70,50,0
174.07309,174.25728,74,50,0
174.44344,174.63184,62,40,0
174.63184,174.82236,65,40,0
174.25728,174.82236,70,50,0
174.82236,175.01524,67,50,0
178.77618,179.10228,74,60,0
179.10228,179.26532,73,60,0
179.26532,179.42836,74,60,0
179.42836,179.5914,73,60,0
179.5914,179.75446,74,60,0
179.75446,179.9175,70,60,0
179.9175,180.08054,67,60,0
180.08054,180.73271,67,80,0
180.73271,181.05879,65,60,0
181.30336,181.38489,70,60,0
181.38489,181.54793,69,60,0
181.54793,181.60228,70,60,0
181.60228,181.65662,69,60,0
181.65662,181.71097,67,60,0
181.71097,181.87401,69,60,0
181.87401,182.03706,70,60,0
182.03706,182.2001,71,60,0
182.2001,182.36314,72,60,0
182.36314,182.52618,73,60,0
182.52618,182.68922,74,60,0
182.68922,183.3414,77,80,0
183.3414,183.6675,75,60,0
183.99358,184.31967,74,60,0
184.31967,184.48271,76,60,0
184.48271,184.64575,77,60,0
184.64575,184.80879,81,80,0
184.80879,184.97185,82,60,0
184.97185,185.13489,77,60,0
185.13489,185.29793,74,60,0
185.29793,185.62401,72,60,0
185.62401,185.78706,78,60,0
185.78706,185.9501,79,60,0
185.9501,186.11314,81,80,0
186.11314,186.27618,82,60,0
186.27618,186.43924,79,60,0
186.43924,186.60228,72,60,0
186.60228,186.76532,72,60,0
186.76532,186.92836,84,60,0
186.92836,187.0914,83,60,0
187.0914,187.25446,82,60,0
187.25446,187.4175,81,60,0
187.4175,187.58054,72,60,0
187.58054,187.74358,70,60,0
187.74358,187.90662,79,60,0
187.90662,188.06967,69,60,0
188.06967,188.23271,77,60,0
188.23271,188.39575,72,60,0
188.39575,188.55879,75,60,0
188.55879,188.72185,70,60,0
188.72185,188.88489,74,60,0
188.88489,189.04793,69,60,0
189.04793,189.21097,72,60,0
189.21097,189.2925,70,60,0
189.37401,189.53706,86,60,0
189.53706,189.7001,85,60,0
189.7001,189.86314,86,60,0
189.86314,190.02618,85,60,0
190.02618,190.18924,86,60,0
190.18924,190.35228,82,60,0
190.35228,190.51532,79,60,0
190.51532,191.1675,79,80,0
191.1675,191.49358,77,60,0
191.73814,191.81967,82,60,0
191.81967,191.98271,81,60,0
191.98271,192.03706,82,60,0
192.03706,192.0914,81,60,0
192.0914,192.14575,79,60,0
192.14575,192.30879,81,60,0
192.30879,192.47185,82,60,0
192.47185,192.63489,83,60,0
192.63489,192.79793,84,60,0
192.79793,192.96097,85,60,0
192.96097,193.12401,86,60,0
193.12401,193.61314,89,60,0
193.61314,193.77618,88,60,0
193.77618,194.10228,87,60,0
194.42836,194.75446,86,60,0
194.75446,194.9175,88,62,0
194.9175,195.08054,89,64,0
195.08054,195.24358,93,85,0
195.24358,195.40663,94,66,0
195.40663,195.56967,89,68,0
195.56967,195.73271,86,69,0
195.73271,196.05879,85,70,0
196.05879,196.22185,91,73,0
196.22185,196.38489,94,74,0
196.38489,196.54793,96,96,0
196.54793,196.71097,97,77,0
196.71097,196.87402,94,79,0
196.87402,197.03706,85,80,0
197.03706,197.2001,84,80,0
197.2001,197.36314,86,79,0
197.36314,197.52618,87,78,0
197.52618,197.68924,88,76,0
197.68924,197.85228,89,75,0
197.85228,198.01532,91,73,0
198.01532,198.17836,87,72,0
198.17836,198.3414,84,71,0
198.3414,198.50446,82,69,0
198.50446,198.6675,77,68,0
198.6675,198.83054,74,66,0
198.83054,198.99358,70,65,0
198.99358,199.15663,69,63,0
199.15663,199.31967,70,62,0
199.31967,199.48271,72,61,0
199.48271,199.64575,73,60,0
199.64575,199.97185,74,60,0
199.97185,200.13489,73,60,0
200.13489,200.29793,74,60,0
200.29793,200.46097,73,60,0
200.46097,200.62402,74,60,0
200.62402,200.78706,70,60,0
200.78706,200.9501,67,60,0
200.9501,201.60228,67,80,0
201.60228,201.92836,65,60,0
202.17293,202.25446,70,60,0
202.25446,202.4175,69,60,0
202.4175,202.47185,70,60,0
202.47185,202.52618,69,60,0
202.52618,202.58054,67,60,0
202.58054,202.74358,69,60,0
202.74358,202.90663,70,60,0
202.90663,203.06967,71,60,0
203.06967,203.23271,72,60,0
203.23271,203.39575,73,60,0
203.39575,203.55879,74,60,0
203.55879,204.21097,77,80,0
204.21097,204.53706,75,60,0
204.86314,205.18924,74,60,0
205.18924,205.35228,76,60,0
205.35228,205.51532,77,60,0
205.51532,205.67836,81,80,0
205.67836,205.84142,82,60,0
205.84142,206.00446,77,60,0
206.00446,206.1675,74,60,0
206.1675,206.49358,72,60,0
206.49358,206.65663,78,60,0
206.65663,206.81967,79,60,0
206.81967,206.98271,81,80,0
206.98271,207.14575,82,60,0
207.14575,207.3088,79,60,0
207.3088,207.47185,72,60,0
207.47185,207.63489,72,60,0
207.63489,207.79793,84,60,0
207.79793,207.96097,83,60,0
207.96097,208.12402,82,60,0
208.12402,208.28706,81,60,0
208.28706,208.4501,72,60,0
208.4501,208.61314,70,60,0
208.61314,208.7762,79,60,0
208.7762,208.93924,69,60,0
208.93924,209.10228,77,60,0
209.10228,209.26532,72,60,0
209.26532,209.42836,75,60,0
209.42836,209.59142,70,60,0
209.59142,209.75446,74,60,0
209.75446,209.9175,69,60,0
209.9175,210.08054,72,60,0
210.08054,210.16206,70,60,0
210.24358,210.40663,86,60,0
210.40663,210.56967,85,60,0
210.56967,210.73271,86,60,0
210.73271,210.89575,85,60,0
210.89575,211.0588,86,60,0
211.0588,211.22185,82,60,0
211.22185,211.38489,79,60,0
211.38489,212.03706,79,80,0
212.03706,212.36314,77,60,0
212.60771,212.68924,82,60,0
212.68924,212.85228,81,60,0
212.85228,212.90663,82,60,0
212.90663,212.96097,81,60,0
212.96097,213.01532,79,60,0
213.01532,213.17836,81,60,0
213.17836,213.34142,82,60,0
213.34142,213.50446,83,60,0
213.50446,213.6675,84,60,0
213.6675,213.83054,85,60,0
213.83054,213.99359,86,60,0
213.99359,214.48271,89,60,0
214.48271,214.64575,88,60,0
214.64575,214.97185,87,60,0
215.29793,215.62402,86,60,0
215.62402,215.78706,88,62,0
215.78706,215.9501,89,64,0
215.9501,216.11314,93,85,0
216.11314,216.2762,94,66,0
216.2762,216.43924,89,68,0
216.43924,216.60228,86,69,0
216.60228,216.92836,85,70,0
216.92836,217.09142,91,73,0
217.09142,217.25446,94,74,0
217.25446,217.4175,96,96,0
217.4175,217.58054,97,77,0
217.58054,217.74359,94,79,0
217.74359,217.90663,85,80,0
217.90663,218.06967,84,80,0
218.06967,218.23271,86,79,0
218.23271,218.39575,87,78,0
218.39575,218.5588,88,76,0
218.5588,218.72185,89,75,0
218.72185,218.88489,91,73,0
218.88489,219.04793,87,72,0
219.04793,219.21098,84,71,0
219.21098,219.37402,82,69,0
219.37402,219.53706,77,68,0
219.53706,219.7001,74,66,0
219.7001,219.86314,70,65,0
219.86314,220.0262,69,63,0
220.0262,220.18924,70,62,0
220.18924,220.35228,72,61,0
220.35228,220.51532,73,60,0
220.51532,220.67836,74,100,0
220.84142,221.49359,66,100,0
220.84142,221.49359,74,100,0
220.84142,221.49359,72,100,0
220.84142,221.49359,69,100,0
221.49359,221.65663,66,100,0
221.49359,221.65663,74,100,0
221.49359,221.65663,72,100,0
221.49359,221.65663,69,100,0
222.14575,222.79793,67,100,0
222.14575,222.79793,79,100,0
222.14575,222.79793,74,100,0
222.14575,222.79793,70,100,0
222.79793,222.96098,67,100,0
222.79793,222.96098,79,100,0
222.79793,222.96098,74,100,0
222.79793,222.96098,70,100,0
223.4501,223.7762,66,100,0
223.7762,224.10228,67,100,0
223.4501,224.10228,74,100,0
224.10228,224.26532,74,100,0
224.10228,224.26532,77,100,0
224.10228,224.42838,67,100,0
224.10228,224.42838,65,100,0
224.42838,225.40663,72,100,0
225.40663,225.73271,70,100,0
224.42838,225.73271,76,100,0
224.42838,225.73271,67,100,0
224.42838,225.73271,64,100,0
226.0588,226.71098,69,100,0
226.0588,226.71098,81,100,0
226.0588,226.71098,77,100,0
226.0588,226.71098,72,100,0
226.71098,226.87402,69,100,0
226.71098,226.87402,81,100,0
226.71098,226.87402,77,100,0
226.71098,226.87402,72,100,0
227.03706,227.36314,74,110,0
227.36314,227.5262,79,110,0
227.5262,227.68924,82,110,0
227.68924,227.85228,85,110,0
227.85228,228.01532,86,110,0
228.01532,228.17838,91,110,0
228.17838,228.34142,94,110,0
228.34142,228.50446,88,110,0
228.50446,228.6675,96,108,0
228.6675,228.74902,94,105,0
228.83054,228.91206,91,102,0
228.99359,229.0751,88,100,0
229.15663,229.23814,84,97,0
229.31967,229.4012,82,94,0
229.48271,229.56424,79,91,0
229.64577,229.8088,77,79,0
229.97185,230.9501,69,73,0
229.97185,230.9501,77,73,0
229.97185,230.9501,75,73,0
229.97185,230.9501,72,73,0
230.9501,231.2762,86,60,0
231.2762,231.43924,85,60,0
231.43924,231.60228,86,60,0
231.60228,231.76532,85,60,0
231.76532,231.92838,86,60,0
231.92838,232.09142,89,60,0
232.09142,232.25446,86,60,0
232.25446,232.90663,84,80,0
232.90663,233.23271,82,60,0
233.47728,233.5588,82,60,0
233.5588,233.72185,81,60,0
233.72185,233.88489,82,60,0
233.88489,234.04793,84,60,0
234.04793,234.21098,86,60,0
234.21098,234.37402,87,60,0
234.37402,234.53706,88,60,0
234.53706,234.7001,89,60,0
234.7001,234.86316,90,60,0
234.86316,234.92838,91,60,0
234.92838,234.99359,93,60,0
234.99359,235.0588,91,60,0
235.0588,235.12402,90,60,0
235.12402,235.35228,91,60,0
235.35228,235.51532,93,60,0
235.51532,235.67838,94,60,0
236.1675,236.24902,72,40,0
236.24902,236.33054,74,40,0
236.33054,236.49359,72,40,0
236.49359,236.65663,71,40,0
236.65663,236.81967,72,40,0
236.81967,236.98271,76,40,0
236.98271,237.14577,82,40,0
237.14577,237.3088,79,40,0
237.3088,237.47185,76,40,0
237.47185,237.55338,77,40,0
237.55338,237.63489,79,40,0
237.63489,237.79793,77,40,0
237.79793,237.96098,76,40,0
237.96098,238.12402,77,40,0
238.12402,238.28706,82,40,0
238.28706,238.4501,89,40,0
238.4501,238.61316,86,40,0
238.61316,238.7762,82,40,0
238.7762,238.85771,81,40,0
238.93924,239.02077,82,40,0
239.10228,239.1838,84,40,0
239.26532,239.34685,86,40,0
239.42838,239.50989,87,40,0
239.59142,239.67293,89,40,0
239.75446,239.83598,91,40,0
239.9175,239.99902,93,40,0
239.99902,240.08055,96,40,0
240.08055,240.16206,94,40,0
240.24359,240.3251,89,40,0
240.40663,240.48816,86,40,0
240.56967,240.6512,82,40,0
240.73271,240.81424,77,40,0
240.89577,240.97728,74,40,0
241.0588,241.14032,70,40,0
241.22185,241.30338,72,40,0
241.38489,241.54793,74,100,0
241.71098,242.36316,66,100,0
241.71098,242.36316,74,100,0
241.71098,242.36316,72,100,0
241.71098,242.36316,69,100,0
242.36316,242.5262,66,100,0
242.36316,242.5262,74,100,0
242.36316,242.5262,72,100,0
242.36316,242.5262,69,100,0
243.01532,243.6675,67,100,0
243.01532,243.6675,79,100,0
243.01532,243.6675,74,100,0
243.01532,243.6675,70,100,0
243.6675,243.83055,67,100,0
243.6675,243.83055,79,100,0
243.6675,243.83055,74,100,0
243.6675,243.83055,70,100,0
244.31967,244.64577,66,100,0
244.64577,244.97185,67,100,0
244.31967,244.97185,74,100,0
244.97185,245.13489,74,100,0
244.97185,245.13489,77,100,0
244.97185,245.29794,67,100,0
244.97185,245.29794,65,100,0
245.29794,246.2762,72,100,0
246.2762,246.60228,70,100,0
245.29794,246.60228,76,100,0
245.29794,246.60228,67,100,0
245.29794,246.60228,64,100,0
246.92838,247.58055,69,100,0
246.92838,247.58055,81,100,0
246.92838,247.58055,77,100,0
246.92838,247.58055,72,100,0
247.58055,247.74359,69,100,0
247.58055,247.74359,81,100,0
247.58055,247.74359,77,100,0
247.58055,247.74359,72,100,0
247.90663,248.23271,74,110,0
248.23271,248.39577,79,110,0
248.39577,248.5588,82,110,0
248.5588,248.72185,85,110,0
248.72185,248.88489,86,110,0
248.88489,249.04794,91,110,0
249.04794,249.21098,94,110,0
249.21098,249.37402,88,110,0
249.37402,249.53706,96,108,0
249.53706,249.61859,94,105,0
249.7001,249.78163,91,102,0
249.86316,249.94467,88,100,0
250.0262,250.10771,84,97,0
250.18924,250.27077,82,94,0
250.35228,250.4338,79,91,0
250.51534,250.67838,77,79,0
250.84142,251.81967,69,73,0
250.84142,251.81967,77,73,0
250.84142,251.81967,75,73,0
250.84142,251.81967,72,73,0
251.81967,252.14577,86,60,0
252.14577,252.3088,85,60,0
252.3088,252.47185,86,60,0
252.47185,252.63489,85,60,0
252.63489,252.79794,86,60,0
252.79794,252.96098,89,60,0
252.96098,253.12402,86,60,0
253.12402,253.7762,84,80,0
253.7762,254.10228,82,60,0
254.34685,254.42838,82,60,0
254.42838,254.59142,81,60,0
254.59142,254.75446,82,60,0
254.75446,254.9175,84,60,0
254.9175,255.08055,86,60,0
255.08055,255.24359,87,60,0
255.24359,255.40663,88,60,0
255.40663,255.56967,89,60,0
255.56967,255.73273,90,60,0
255.73273,255.79794,91,60,0
255.79794,255.86316,93,60,0
255.86316,255.92838,91,60,0
255.92838,255.99359,90,60,0
255.99359,256.22186,91,60,0
256.22186,256.3849,93,60,0
256.3849,256.54794,94,60,0
257.03708,257.1186,72,40,0
257.1186,257.2001,74,40,0
257.2001,257.36316,72,40,0
257.36316,257.52618,71,40,0
257.52618,257.68924,72,40,0
257.68924,257.8523,76,40,0
257.8523,258.01532,82,40,0
258.01532,258.17838,79,40,0
258.17838,258.34143,76,40,0
258.34143,258.42294,77,40,0
258.42294,258.50446,79,40,0
258.50446,258.6675,77,40,0
258.6675,258.83054,76,40,0
258.83054,258.9936,77,40,0
258.9936,259.15665,82,40,0
259.15665,259.31967,89,40,0
259.31967,259.48273,86,40,0
259.48273,259.64575,82,40,0
259.64575,259.7273,81,40,0
259.8088,259.89032,82,40,0
259.97186,260.05338,84,40,0
260.1349,260.21643,86,40,0
260.29794,260.37946,87,40,0
260.46097,260.5425,89,40,0
260.62402,260.70554,91,40,0
260.78708,260.8686,93,40,0
260.8686,260.9501,96,40,0
260.9501,261.03165,94,40,0
261.11316,261.19467,93,40,0
261.27618,261.35773,91,40,0
261.43924,261.52075,89,40,0
261.6023,261.6838,87,40,0
261.76532,261.84686,86,40,0
261.92838,262.0099,84,40,0
262.09143,262.17294,83,40,0
262.17294,262.25446,86,40,0
262.25446,262.33618,84,40,0
262.41833,262.5008,82,40,0
262.5838,262.66718,81,40,0
262.75092,262.8352,79,40,0
262.91983,263.00488,77,40,0
263.09045,263.17642,75,40,0
263.26294,263.34985,74,40,0
263.43723,263.5251,73,40,0
263.5251,263.61343,84,40,0
263.61343,263.70227,82,40,0
263.61343,263.70227,74,40,0
263.79147,263.88132,81,40,0
263.9716,264.0623,79,40,0
264.15363,264.24536,77,40,0
264.3378,264.43063,75,40,0
264.52396,264.61792,74,40,0
264.71237,264.80734,72,40,0
264.9029,264.99902,71,40,0
264.99902,265.09576,74,40,0
265.09576,265.1929,72,40,0
265.2908,265.3892,70,40,0
265.4883,265.58798,69,40,0
265.68814,265.78912,67,40,0
265.89056,265.99265,65,40,0
266.09543,266.19885,63,40,0
266.30292,266.4076,62,40,0
266.51303,266.61917,60,40,0
268.54422,269.07993,65,60,0
269.07993,270.0582,61,60,0
269.07993,270.0582,65,60,0
269.07993,270.0582,73,60,0
270.0582,270.38428,61,60,0
270.0582,270.38428,65,60,0
270.0582,270.38428,73,60,0
270.38428,271.03644,72,60,0
270.38428,271.03644,60,60,0
271.03644,271.36255,70,60,0
271.03644,271.36255,58,60,0
270.38428,271.36255,65,60,0
271.36255,271.68863,70,60,0
271.36255,271.68863,65,60,0
271.36255,271.68863,58,60,0
271.68863,272.17776,70,60,0
271.68863,272.17776,58,60,0
272.17776,272.3408,69,77,0
272.17776,272.3408,57,77,0
271.68863,272.3408,65,60,0
272.3408,272.5582,72,83,0
272.3408,272.5582,60,83,0
272.5582,272.77557,75,91,0
272.5582,272.77557,63,91,0
272.77557,272.99298,75,99,0
272.77557,272.99298,78,99,0
272.77557,272.99298,72,99,0
272.77557,272.99298,66,99,0
272.99298,273.97122,65,100,0
272.99298,273.97122,77,100,0
272.99298,273.97122,75,100,0
272.99298,273.97122,72,100,0
273.97122,274.29733,75,60,0
273.97122,274.29733,63,60,0
274.29733,274.78644,75,60,0
274.29733,274.78644,63,60,0
274.78644,274.9495,73,77,0
274.78644,274.9495,61,77,0
274.9495,275.16687,70,83,0
274.9495,275.16687,58,83,0
275.16687,275.38428,72,91,0
275.16687,275.38428,60,91,0
275.38428,275.60165,73,99,0
275.38428,275.60165,61,99,0
275.60165,276.0908,77,100,0
275.60165,276.0908,65,100,0
276.0908,276.25385,75,83,0
276.0908,276.25385,63,83,0
276.25385,276.47122,75,77,0
276.25385,276.47122,63,77,0
276.47122,276.68863,73,69,0
276.47122,276.68863,61,69,0
276.68863,276.906,72,61,0
276.68863,276.906,60,61,0
276.906,277.39514,70,60,0
276.906,277.39514,58,60,0
277.39514,277.5582,69,60,0
277.39514,277.5582,57,60,0
277.5582,277.77557,70,60,0
277.5582,277.77557,58,60,0
277.77557,277.99298,73,60,0
277.77557,277.99298,61,60,0
277.99298,278.21036,72,60,0
277.99298,278.21036,60,60,0
278.21036,279.18863,72,60,0
278.21036,279.18863,60,60,0
279.18863,279.5147,65,60,0
279.5147,280.49298,61,60,0
279.5147,280.49298,65,60,0
279.5147,280.49298,73,60,0
280.49298,280.81906,61,60,0
280.49298,280.81906,65,60,0
280.49298,280.81906,73,60,0
280.81906,281.47122,72,60,0
280.81906,281.47122,60,60,0
281.47122,281.79733,70,60,0
281.47122,281.79733,58,60,0
280.81906,281.79733,65,60,0
281.79733,282.1234,70,60,0
281.79733,282.1234,65,60,0
281.79733,282.1234,58,60,0
282.1234,282.61255,70,60,0
282.1234,282.61255,58,60,0
282.61255,282.77557,69,77,0
282.61255,282.77557,57,77,0
282.1234,282.77557,65,60,0
282.77557,282.99298,72,83,0
282.77557,282.99298,60,83,0
282.99298,283.21036,75,91,0
282.99298,283.21036,63,91,0
283.21036,283.42776,75,99,0
283.21036,283.42776,78,99,0
283.21036,283.42776,72,99,0
283.21036,283.42776,66,99,0
283.42776,284.406,65,100,0
283.42776,284.406,77,100,0
283.42776,284.406,75,100,0
283.42776,284.406,72,100,0
284.406,284.73212,75,60,0
284.406,284.73212,63,60,0
284.73212,285.22122,75,60,0
284.73212,285.22122,63,60,0
285.22122,285.38428,73,77,0
285.22122,285.38428,61,77,0
285.38428,285.60165,70,83,0
285.38428,285.60165,58,83,0
285.60165,285.81906,72,91,0
285.60165,285.81906,60,91,0
285.81906,286.03644,73,99,0
285.81906,286.03644,61,99,0
286.03644,286.52557,72,100,0
286.03644,286.52557,60,100,0
286.52557,286.68863,70,83,0
286.52557,286.68863,58,83,0
286.68863,286.906,73,77,0
286.68863,286.906,61,77,0
286.906,287.1234,72,69,0
286.906,287.1234,60,69,0
287.1234,287.3408,70,61,0
287.1234,287.3408,58,61,0
287.3408,287.82993,66,60,0
287.3408,287.82993,54,60,0
287.82993,287.99298,65,60,0
287.82993,287.99298,53,60,0
287.99298,288.21036,65,60,0
287.99298,288.21036,53,60,0
288.21036,288.42776,66,60,0
288.21036,288.42776,54,60,0
288.42776,288.64514,65,60,0
288.42776,288.64514,53,60,0
288.64514,289.6234,58,60,0
289.6234,289.9495,77,60,0
289.9495,290.92776,73,60,0
289.9495,290.92776,77,60,0
289.9495,290.92776,85,60,0
290.92776,291.25385,73,60,0
290.92776,291.25385,77,60,0
290.92776,291.25385,85,60,0
291.25385,291.906,84,60,0
291.25385,291.906,72,60,0
291.906,292.23212,82,60,0
291.906,292.23212,70,60,0
291.25385,292.23212,77,60,0
292.23212,292.5582,82,60,0
292.23212,292.5582,77,60,0
292.23212,292.5582,70,60,0
292.77557,292.99298,65,87,0
292.5582,293.04733,70,60,0
292.5582,293.04733,82,60,0
293.04733,293.21036,81,77,0
292.99298,293.21036,64,75,0
292.5582,293.21036,77,60,0
293.04733,293.21036,69,77,0
293.21036,293.42776,65,83,0
293.21036,293.42776,84,83,0
293.21036,293.42776,72,83,0
293.42776,293.64514,63,91,0
293.42776,293.64514,87,91,0
293.42776,293.64514,75,91,0
293.64514,293.86255,66,99,0
293.64514,293.86255,78,99,0
293.64514,293.86255,90,99,0
293.64514,293.86255,84,99,0
293.64514,293.86255,87,99,0
293.86255,294.8408,77,100,0
293.86255,294.8408,89,100,0
293.86255,294.8408,87,100,0
293.86255,294.8408,84,100,0
294.8408,295.1669,87,60,0
294.8408,295.1669,75,60,0
295.1669,295.656,87,60,0
295.1669,295.656,75,60,0
295.656,295.81906,85,77,0
295.656,295.81906,73,77,0
295.81906,296.03644,82,83,0
295.81906,296.03644,70,83,0
296.03644,296.25385,84,91,0
296.03644,296.25385,72,91,0
296.25385,296.47122,85,99,0
296.3897,296.47122,85,100,0
296.25385,296.47122,73,99,0
296.47122,296.96036,89,100,0
296.47122,296.96036,77,100,0
296.96036,297.1234,87,83,0
296.96036,297.1234,75,83,0
297.1234,297.3408,87,77,0
297.1234,297.3408,75,77,0
297.3408,297.5582,85,69,0
297.3408,297.5582,73,69,0
297.5582,297.77557,84,61,0
297.5582,297.77557,72,61,0
297.77557,298.2647,82,60,0
297.77557,298.2647,70,60,0
298.2647,298.42776,81,60,0
298.2647,298.42776,69,60,0
298.42776,298.64514,82,60,0
298.42776,298.64514,70,60,0
298.64514,298.86255,85,60,0
298.64514,298.86255,73,60,0
298.86255,299.07993,84,60,0
298.86255,299.07993,72,60,0
299.07993,300.0582,84,60,0
299.07993,300.0582,72,60,0
300.0582,300.38428,77,60,0
300.38428,301.36255,73,60,0
300.38428,301.36255,77,60,0
300.38428,301.36255,85,60,0
301.36255,301.68863,73,60,0
301.36255,301.68863,77,60,0
301.36255,301.68863,85,60,0
301.68863,302.3408,84,60,0
301.68863,302.3408,72,60,0
302.3408,302.6669,82,60,0
302.3408,302.6669,70,60,0
301.68863,302.6669,77,60,0
302.6669,302.99298,82,60,0
302.6669,302.99298,77,60,0
302.6669,302.99298,70,60,0
303.21036,303.42776,65,87,0
302.99298,303.48212,70,60,0
302.99298,303.48212,82,60,0
303.48212,303.64514,81,77,0
303.42776,303.64514,64,75,0
302.99298,303.64514,77,60,0
303.48212,303.64514,69,77,0
303.64514,303.86255,65,83,0
303.64514,303.86255,84,83,0
303.64514,303.86255,72,83,0
303.86255,304.07993,63,91,0
303.86255,304.07993,87,91,0
303.86255,304.07993,75,91,0
304.07993,304.29733,66,99,0
304.07993,304.29733,78,99,0
304.07993,304.29733,90,99,0
304.07993,304.29733,84,99,0
304.07993,304.29733,87,99,0
304.29733,305.27557,77,100,0
304.29733,305.27557,89,100,0
304.29733,305.27557,87,100,0
304.29733,305.27557,84,100,0
305.27557,305.60168,87,60,0
305.27557,305.60168,75,60,0
305.60168,306.0908,87,60,0
305.60168,306.0908,75,60,0
306.0908,306.25385,85,77,0
306.0908,306.25385,73,77,0
306.25385,306.47122,82,83,0
306.25385,306.47122,70,83,0
306.47122,306.68863,84,91,0
306.47122,306.68863,72,91,0
306.68863,306.906,85,99,0
306.68863,306.906,73,99,0
306.906,307.39514,84,100,0
306.906,307.39514,72,100,0
307.39514,307.5582,82,83,0
307.39514,307.5582,70,83,0
307.5582,307.77557,85,77,0
307.5582,307.77557,73,77,0
307.77557,307.99298,84,69,0
307.77557,307.99298,72,69,0
307.99298,308.21036,82,61,0
307.99298,308.21036,70,61,0
308.21036,308.6995,78,60,0
308.21036,308.6995,66,60,0
308.6995,308.86255,77,60,0
308.6995,308.86255,65,60,0
308.86255,309.07993,77,60,0
308.86255,309.07993,65,60,0
309.07993,309.29733,78,60,0
309.07993,309.29733,66,60,0
309.29733,309.5147,77,60,0
309.29733,309.5147,65,60,0
309.5147,310.49298,70,60,0
309.5147,310.49298,58,60,0
310.49298,310.81906,61,100,0
310.49298,310.81906,73,100,0
310.81906,311.47122,73,100,0
310.81906,311.47122,61,100,0
311.47122,311.68863,73,100,0
311.47122,311.68863,61,100,0
311.68863,311.906,75,100,0
311.68863,311.906,63,100,0
311.906,312.1234,73,100,0
311.906,312.1234,61,100,0
312.1234,312.77557,73,100,0
312.1234,312.77557,61,100,0
312.77557,313.2647,70,100,0
312.77557,313.2647,58,100,0
313.2647,313.42776,82,100,0
313.2647,313.42776,70,100,0
313.42776,313.9169,82,100,0
313.42776,313.9169,70,100,0
313.9169,314.29733,83,100,0
313.9169,314.29733,71,100,0
314.29733,314.5147,84,100,0
314.29733,314.5147,72,100,0
314.5147,314.73212,85,100,0
314.65057,314.73212,85,100,0
314.5147,314.73212,73,100,0
314.73212,315.22122,89,100,0
314.73212,315.22122,77,100,0
315.22122,315.38428,85,71,0
315.22122,315.38428,73,71,0
315.38428,315.71036,84,61,0
315.38428,315.71036,72,61,0
316.03647,316.36255,72,40,0
316.03647,316.36255,60,40,0
316.36255,316.68863,77,40,0
316.36255,316.68863,65,40,0
316.68863,317.0147,81,40,0
316.68863,317.0147,69,40,0
317.0147,317.3408,84,40,0
317.0147,317.3408,72,40,0
317.3408,317.99298,84,40,0
317.3408,317.99298,72,40,0
317.99298,318.21036,82,40,0
317.99298,318.21036,70,40,0
318.21036,318.42776,81,40,0
318.21036,318.42776,69,40,0
318.42776,318.64514,79,40,0
318.42776,318.64514,67,40,0
318.64514,318.86255,78,40,0
318.64514,318.86255,66,40,0
318.86255,319.07993,81,40,0
318.86255,319.07993,69,40,0
319.07993,319.29733,77,40,0
319.07993,319.29733,65,40,0
319.29733,319.5147,77,40,0
319.29733,319.5147,65,40,0
319.5147,319.73212,78,40,0
319.5147,319.73212,66,40,0
319.73212,319.9495,76,40,0
319.73212,319.9495,64,40,0
319.9495,320.60168,77,40,0
319.9495,320.60168,65,40,0
320.60168,320.81906,75,40,0
320.60168,320.81906,63,40,0
320.81906,321.03647,73,79,0
320.81906,321.03647,61,79,0
321.03647,321.25385,72,100,0
321.03647,321.25385,60,100,0
321.25385,321.906,72,100,0
321.25385,321.906,60,100,0
321.906,322.23212,70,100,0
321.906,322.23212,58,100,0
322.23212,322.5582,70,100,0
322.23212,322.5582,58,100,0
322.5582,323.21036,72,100,0
322.5582,323.21036,60,100,0
323.21036,323.53647,70,100,0
323.21036,323.53647,58,100,0
323.53647,323.86255,70,100,0
323.53647,323.86255,58,100,0
323.86255,324.07993,71,100,0
323.86255,324.07993,59,100,0
324.07993,324.29733,70,100,0
324.07993,324.29733,58,100,0
324.29733,324.5147,74,100,0
324.29733,324.5147,62,100,0
324.5147,324.73212,65,100,0
324.5147,324.73212,77,100,0
324.73212,324.9495,68,100,0
324.73212,324.9495,80,100,0
324.9495,325.1669,71,100,0
324.9495,325.1669,83,100,0
324.9495,325.1669,80,100,0
324.9495,325.1669,77,100,0
325.1669,325.81906,80,100,0
325.1669,325.81906,77,100,0
325.81906,326.14514,75,77,0
325.1669,326.14514,70,100,0
325.1669,326.14514,82,100,0
325.81906,326.14514,78,77,0
326.14514,326.47125,75,65,0
326.14514,326.47125,63,65,0
326.47125,326.96036,73,60,0
326.47125,326.96036,61,60,0
326.96036,327.1234,72,60,0
326.96036,327.1234,60,60,0
327.1234,327.3408,72,60,0
327.1234,327.3408,60,60,0
327.3408,327.5582,73,60,0
327.3408,327.5582,61,60,0
327.5582,327.77557,75,60,0
327.69406,327.77557,75,60,0
327.5582,327.77557,63,60,0
327.77557,328.2647,78,60,0
327.77557,328.2647,66,60,0
328.2647,328.42776,77,60,0
328.2647,328.42776,65,60,0
328.42776,328.64514,77,60,0
328.42776,328.64514,65,60,0
328.64514,328.86255,82,60,0
328.64514,328.86255,70,60,0
328.86255,329.07993,85,60,0
328.86255,329.07993,73,60,0
329.07993,329.56906,73,60,0
329.07993,329.56906,85,60,0
329.56906,329.73212,84,60,0
329.56906,329.73212,72,60,0
329.73212,329.9495,72,60,0
329.73212,329.9495,84,60,0
329.9495,330.1669,75,60,0
329.9495,330.1669,87,60,0
330.1669,330.38428,69,60,0
330.1669,330.38428,81,60,0
330.38428,331.36255,70,60,0
330.38428,331.36255,82,60,0
331.36255,331.68863,61,100,0
331.36255,331.68863,73,100,0
331.68863,332.3408,73,100,0
331.68863,332.3408,61,100,0
332.3408,332.5582,73,100,0
332.3408,332.5582,61,100,0
332.5582,332.77557,75,100,0
332.5582,332.77557,63,100,0
332.77557,332.99298,73,100,0
332.77557,332.99298,61,100,0
332.99298,333.64514,73,100,0
332.99298,333.64514,61,100,0
333.64514,334.13428,70,100,0
333.64514,334.13428,58,100,0
334.13428,334.29733,82,100,0
334.13428,334.29733,70,100,0
334.29733,334.78647,82,100,0
334.29733,334.78647,70,100,0
334.78647,335.1669,83,100,0
334.78647,335.1669,71,100,0
335.1669,335.38428,84,100,0
335.1669,335.38428,72,100,0
335.38428,335.60168,85,100,0
335.52014,335.60168,85,100,0
335.38428,335.60168,73,100,0
335.60168,336.0908,89,100,0
335.60168,336.0908,77,100,0
336.0908,336.25385,85,71,0
336.0908,336.25385,73,71,0
336.25385,336.57993,84,61,0
336.25385,336.57993,72,61,0
336.90604,337.23212,72,40,0
336.90604,337.23212,60,40,0
337.23212,337.5582,77,40,0
337.23212,337.5582,65,40,0
337.5582,337.88428,81,40,0
337.5582,337.88428,69,40,0
337.88428,338.21036,84,40,0
337.88428,338.21036,72,40,0
338.21036,338.86255,84,40,0
338.21036,338.86255,72,40,0
338.86255,339.07993,82,40,0
338.86255,339.07993,70,40,0
339.07993,339.29733,81,40,0
339.07993,339.29733,69,40,0
339.29733,339.5147,79,40,0
339.29733,339.5147,67,40,0
339.5147,339.73212,78,40,0
339.5147,339.73212,66,40,0
339.73212,339.9495,81,40,0
339.73212,339.9495,69,40,0
339.9495,340.1669,77,40,0
339.9495,340.1669,65,40,0
340.1669,340.38428,77,40,0
340.1669,340.38428,65,40,0
340.38428,340.60168,78,40,0
340.38428,340.60168,66,40,0
340.60168,340.81906,76,40,0
340.60168,340.81906,64,40,0
340.81906,341.47125,77,40,0
340.81906,341.47125,65,40,0
341.47125,341.68863,75,40,0
341.47125,341.68863,63,40,0
341.68863,341.90604,73,79,0
341.68863,341.90604,61,79,0
341.90604,342.1234,72,100,0
341.90604,342.1234,60,100,0
342.1234,342.77557,72,100,0
342.1234,342.77557,60,100,0
342.77557,343.10168,70,100,0
342.77557,343.10168,58,100,0
343.10168,343.42776,70,100,0
343.10168,343.42776,58,100,0
343.42776,344.07993,72,100,0
343.42776,344.07993,60,100,0
344.07993,344.40604,70,100,0
344.07993,344.40604,58,100,0
344.40604,344.73212,70,100,0
344.40604,344.73212,58,100,0
344.73212,344.9495,71,100,0
344.73212,344.9495,59,100,0
344.9495,345.1669,70,100,0
344.9495,345.1669,58,100,0
345.1669,345.38428,74,100,0
345.1669,345.38428,62,100,0
345.38428,345.60168,65,100,0
345.38428,345.60168,77,100,0
345.60168,345.81906,68,100,0
345.60168,345.81906,80,100,0
345.81906,346.03647,71,100,0
345.81906,346.03647,83,100,0
345.81906,346.03647,80,100,0
345.81906,346.03647,77,100,0
346.03647,346.68863,80,100,0
346.03647,346.68863,77,100,0
346.68863,347.0147,75,77,0
346.03647,347.0147,70,100,0
346.03647,347.0147,82,100,0
346.68863,347.0147,78,77,0
347.0147,347.34082,75,65,0
347.0147,347.34082,63,65,0
347.34082,347.82993,73,60,0
347.34082,347.82993,61,60,0
347.82993,347.99298,72,60,0
347.82993,347.99298,60,60,0
347.99298,348.21036,72,60,0
347.99298,348.21036,60,60,0
348.21036,348.42776,73,60,0
348.21036,348.42776,61,60,0
348.42776,348.64514,75,60,0
348.56363,348.64514,75,60,0
348.42776,348.64514,63,60,0
348.64514,349.13428,78,60,0
348.64514,349.13428,66,60,0
349.13428,349.29733,77,60,0
349.13428,349.29733,65,60,0
349.29733,349.5147,77,60,0
349.29733,349.5147,65,60,0
349.5147,349.73212,82,60,0
349.5147,349.73212,70,60,0
349.73212,349.9495,85,60,0
349.73212,349.9495,73,60,0
349.9495,350.43863,73,60,0
349.9495,350.43863,85,60,0
350.43863,350.60168,84,60,0
350.43863,350.60168,72,60,0
350.60168,350.81906,72,60,0
350.60168,350.81906,84,60,0
350.81906,351.03647,75,60,0
350.81906,351.03647,87,60,0
351.03647,351.25385,69,60,0
351.03647,351.25385,81,60,0
351.25385,351.90604,70,60,0
351.25385,351.90604,82,60,0
352.23212,352.5582,73,60,0
352.5582,353.05466,73,60,0
353.05466,353.22357,72,56,0
353.22357,353.45145,72,55,0
353.45145,353.6827,75,53,0
353.6827,353.91718,69,51,0
353.6827,353.91718,65,51,0
353.91718,354.64154,65,50,0
353.91718,354.64154,70,50,0
354.64154,354.89026,70,44,0
354.89026,355.14285,73,42,0
355.14285,355.3995,77,41,0
355.3995,355.99188,73,40,0
355.3995,355.99188,77,40,0
355.99188,356.1943,72,40,0
355.99188,356.1943,75,40,0
356.1943,356.46805,75,40,0
356.1943,356.46805,72,40,0
356.46805,356.74643,75,40,0
356.46805,356.74643,78,40,0
356.74643,357.02975,69,40,0
356.74643,357.02975,81,40,0
356.74643,357.02975,77,40,0
356.74643,357.02975,72,40,0
357.02975,358.84796,70,40,0
357.02975,358.84796,82,40,0
357.02975,358.84796,77,40,0
357.02975,358.84796,73,40,0
358.84796,359.38367,73,60,0
359.38367,359.54672,61,60,0
359.54672,359.70975,73,60,0
359.70975,359.8728,70,60,0
359.70975,359.8728,66,60,0
359.8728,360.03583,73,60,0
360.03583,360.19888,61,60,0
360.19888,360.36194,73,60,0
360.36194,360.52496,70,60,0
360.36194,360.52496,66,60,0
360.52496,360.68802,73,60,0
360.68802,360.85104,61,60,0
360.85104,361.0141,73,60,0
361.0141,361.17715,70,60,0
361.0141,361.17715,66,60,0
361.17715,361.34018,73,60,0
361.34018,361.50323,61,60,0
361.50323,361.66626,73,60,0
361.66626,361.8293,70,60,0
361.66626,361.8293,66,60,0
361.8293,361.99237,73,60,0
361.99237,362.1554,61,60,0
362.1554,362.31845,73,60,0
362.31845,362.48148,71,60,0
362.31845,362.48148,68,60,0
362.48148,362.64453,73,60,0
362.64453,362.8076,61,60,0
362.8076,362.9706,73,60,0
362.9706,363.13367,71,60,0
362.9706,363.13367,68,60,0
363.13367,363.29672,73,60,0
363.29672,363.45975,61,60,0
363.45975,363.6228,73,60,0
363.6228,363.78583,71,60,0
363.6228,363.78583,68,60,0
363.78583,363.94888,73,60,0
363.94888,364.11194,61,60,0
364.11194,364.27496,73,60,0
364.27496,364.43802,71,60,0
364.27496,364.43802,68,60,0
364.43802,364.60104,73,60,0
364.60104,364.7641,61,60,0
364.7641,364.92715,73,60,0
364.92715,365.09018,70,60,0
364.92715,365.09018,66,60,0
365.09018,365.25323,73,60,0
365.25323,365.41626,61,60,0
365.41626,365.5793,73,60,0
365.5793,365.74237,70,60,0
365.5793,365.74237,66,60,0
365.74237,365.9054,73,60,0
365.9054,366.06845,63,60,0
366.06845,366.2315,75,60,0
366.2315,366.39453,71,60,0
366.2315,366.39453,68,60,0
366.39453,366.5576,75,60,0
366.5576,366.7206,63,60,0
366.7206,366.88367,75,60,0
366.88367,367.04672,71,60,0
366.88367,367.04672,68,60,0
367.04672,367.20975,75,60,0
367.20975,367.3728,68,60,0
367.3728,367.53583,80,62,0
367.53583,367.69888,78,65,0
367.53583,367.69888,75,65,0
367.69888,367.86194,80,68,0
367.53583,367.86194,60,75,0
367.86194,368.02496,78,70,0
367.86194,368.02496,72,70,0
368.02496,368.18802,80,73,0
367.86194,368.18802,63,80,0
368.18802,368.35104,75,76,0
368.18802,368.35104,72,76,0
368.35104,368.5141,80,79,0
368.18802,368.5141,66,86,0
368.5141,368.67715,77,81,0
368.5141,368.67715,73,81,0
368.67715,368.84018,80,84,0
368.5141,368.84018,65,91,0
368.84018,369.00323,83,87,0
368.84018,369.00323,77,87,0
369.00323,369.16626,85,89,0
368.84018,369.16626,68,97,0
369.16626,369.3293,82,92,0
369.16626,369.3293,78,92,0
369.3293,369.49237,85,95,0
369.16626,369.49237,70,102,0
369.49237,369.6554,80,98,0
369.49237,369.6554,77,98,0
369.6554,369.81845,85,100,0
369.49237,369.81845,71,108,0
369.81845,370.06302,90,110,0
370.06302,370.14453,85,110,0
370.14453,370.71518,94,120,0
370.14453,370.71518,82,120,0
370.71518,370.79672,90,110,0
370.79672,371.44888,94,120,0
370.79672,371.44888,82,120,0
371.44888,371.77496,78,110,0
371.44888,371.77496,90,110,0
371.77496,372.10104,73,110,0
371.77496,372.10104,85,110,0
372.10104,372.42715,70,110,0
372.10104,372.42715,82,110,0
372.67172,372.75323,85,110,0
372.75323,373.32388,83,120,0
372.75323,373.32388,95,120,0
373.32388,373.4054,92,110,0
373.4054,374.0576,83,120,0
373.4054,374.0576,95,120,0
374.0576,374.38367,80,110,0
374.0576,374.38367,92,110,0
374.38367,374.70975,77,110,0
374.38367,374.70975,89,110,0
374.70975,375.03583,71,110,0
374.70975,375.03583,83,110,0
375.2804,375.36194,73,106,0
375.36194,375.9326,70,115,0
375.36194,375.9326,82,115,0
375.9326,376.0141,78,96,0
376.0141,376.6663,70,104,0
376.0141,376.6663,82,104,0
376.6663,376.99237,81,83,0
376.6663,376.99237,69,83,0
376.99237,377.31845,80,78,0
376.99237,377.31845,68,78,0
377.31845,377.64453,78,72,0
377.31845,377.64453,66,72,0
377.64453,377.9706,65,70,0
377.64453,377.9706,77,70,0
377.9706,378.29672,73,70,0
377.9706,378.29672,85,70,0
378.29672,378.6228,71,70,0
378.29672,378.6228,83,70,0
378.6228,378.94888,68,70,0
378.6228,378.94888,80,70,0
378.94888,380.25323,66,70,0
378.94888,380.25323,78,70,0
380.25323,380.4163,61,60,0
380.4163,380.5793,73,60,0
380.5793,380.74237,70,60,0
380.5793,380.74237,66,60,0
380.74237,380.9054,73,60,0
380.9054,381.06845,61,60,0
381.06845,381.2315,73,60,0
381.2315,381.39453,70,60,0
381.2315,381.39453,66,60,0
381.39453,381.5576,73,60,0
381.5576,381.7206,61,60,0
381.7206,381.88367,73,60,0
381.88367,382.04672,70,60,0
381.88367,382.04672,66,60,0
382.04672,382.20975,73,60,0
382.20975,382.3728,61,60,0
382.3728,382.53583,73,60,0
382.53583,382.69888,70,60,0
382.53583,382.69888,66,60,0
382.69888,382.86194,73,60,0
382.86194,383.02496,61,60,0
383.02496,383.18802,73,60,0
383.18802,383.35104,71,60,0
383.18802,383.35104,68,60,0
383.35104,383.5141,73,60,0
383.5141,383.67715,61,60,0
383.67715,383.84018,73,60,0
383.84018,384.00323,71,60,0
383.84018,384.00323,68,60,0
384.00323,384.1663,73,60,0
384.1663,384.3293,61,60,0
384.3293,384.49237,73,60,0
384.49237,384.6554,71,60,0
384.49237,384.6554,68,60,0
384.6554,384.81845,73,60,0
384.81845,384.9815,61,60,0
384.9815,385.14453,73,60,0
385.14453,385.3076,71,60,0
385.14453,385.3076,68,60,0
385.3076,385.4706,73,60,0
385.4706,385.63367,61,60,0
385.63367,385.79672,73,60,0
385.79672,385.95975,70,60,0
385.79672,385.95975,66,60,0
385.95975,386.1228,73,60,0
386.1228,386.28583,61,60,0
386.28583,386.44888,73,60,0
386.44888,386.61194,70,60,0
386.44888,386.61194,66,60,0
386.61194,386.77496,73,60,0
386.77496,386.93802,63,60,0
386.93802,387.10107,75,60,0
387.10107,387.2641,71,60,0
387.10107,387.2641,68,60,0
387.2641,387.42715,75,60,0
387.42715,387.59018,63,60,0
387.59018,387.75323,75,60,0
387.75323,387.9163,71,60,0
387.75323,387.9163,68,60,0
387.9163,388.0793,75,60,0
388.0793,388.24237,68,60,0
388.24237,388.4054,80,62,0
388.4054,388.56845,78,65,0
388.4054,388.56845,75,65,0
388.56845,388.7315,80,68,0
388.4054,388.7315,60,75,0
388.7315,388.89453,78,70,0
388.7315,388.89453,72,70,0
388.89453,389.0576,80,73,0
388.7315,389.0576,63,80,0
389.0576,389.2206,75,76,0
389.0576,389.2206,72,76,0
389.2206,389.38367,80,79,0
389.0576,389.38367,66,86,0
389.38367,389.54672,77,81,0
389.38367,389.54672,73,81,0
389.54672,389.70975,80,84,0
389.38367,389.70975,65,91,0
389.70975,389.8728,83,87,0
389.70975,389.8728,77,87,0
389.8728,390.03583,85,89,0
389.70975,390.03583,68,97,0
390.03583,390.19888,82,92,0
390.03583,390.19888,78,92,0
390.19888,390.36194,85,95,0
390.03583,390.36194,70,102,0
390.36194,390.52496,80,98,0
390.36194,390.52496,77,98,0
390.52496,390.68802,85,100,0
390.36194,390.68802,71,108,0
390.68802,390.9326,90,110,0
390.9326,391.0141,85,110,0
391.0141,391.58475,94,120,0
391.0141,391.58475,82,120,0
391.58475,391.6663,90,110,0
391.6663,392.31845,94,120,0
391.6663,392.31845,82,120,0
392.31845,392.64453,78,110,0
392.31845,392.64453,90,110,0
392.64453,392.9706,73,110,0
392.64453,392.9706,85,110,0
392.9706,393.29672,70,110,0
392.9706,393.29672,82,110,0
393.5413,393.6228,85,110,0
393.6228,394.19345,83,120,0
393.6228,394.19345,95,120,0
394.19345,394.27496,92,110,0
394.27496,394.92715,83,120,0
394.27496,394.92715,95,120,0
394.92715,395.25323,80,110,0
394.92715,395.25323,92,110,0
395.25323,395.5793,77,110,0
395.25323,395.5793,89,110,0
395.5793,395.9054,71,110,0
395.5793,395.9054,83,110,0
396.14996,396.2315,73,106,0
396.2315,396.80215,70,115,0
396.2315,396.80215,82,115,0
396.80215,396.88367,78,96,0
396.88367,397.53586,70,104,0
396.88367,397.53586,82,104,0
397.53586,397.86194,81,83,0
397.53586,397.86194,69,83,0
397.86194,398.18802,80,78,0
397.86194,398.18802,68,78,0
398.18802,398.5141,78,72,0
398.18802,398.5141,66,72,0
398.5141,398.84018,65,70,0
398.5141,398.84018,77,70,0
398.84018,399.1663,73,70,0
398.84018,399.1663,85,70,0
399.1663,399.49237,71,70,0
399.1663,399.49237,83,70,0
399.49237,399.81845,68,70,0
399.49237,399.81845,80,70,0
399.81845,401.1228,66,70,0
399.81845,401.1228,78,70,0
401.1228,401.28586,62,100,0
401.28586,401.44888,74,100,0
401.44888,401.61194,70,100,0
401.44888,401.61194,65,100,0
401.61194,401.77496,74,100,0
401.77496,401.93802,62,100,0
401.93802,402.10107,74,100,0
402.10107,402.2641,70,100,0
402.10107,402.2641,65,100,0
402.2641,402.42715,74,100,0
402.42715,402.59018,63,100,0
402.59018,402.75323,75,100,0
402.75323,402.9163,70,100,0
402.75323,402.9163,66,100,0
402.9163,403.0793,75,100,0
403.0793,403.24237,70,100,0
403.24237,403.4054,82,100,0
403.4054,403.56845,78,100,0
403.4054,403.56845,75,100,0
403.56845,403.7315,82,100,0
403.7315,403.89453,63,100,0
403.89453,404.0576,75,100,0
404.0576,404.2206,70,100,0
404.0576,404.2206,66,100,0
404.2206,404.38367,75,100,0
404.38367,404.54672,63,100,0
404.54672,404.70975,75,100,0
404.70975,404.8728,73,100,0
404.70975,404.8728,67,100,0
404.8728,405.03586,75,100,0
405.03586,405.19888,63,100,0
405.19888,405.36194,75,100,0
405.36194,405.52496,72,100,0
405.36194,405.52496,68,100,0
405.52496,405.68802,75,100,0
405.68802,405.85107,72,100,0
405.85107,406.0141,84,100,0
406.0141,406.17715,80,100,0
406.0141,406.17715,75,100,0
406.17715,406.34018,84,100,0
406.6663,407.23694,85,80,0
406.58475,407.23694,73,70,0
407.31845,407.97064,85,80,0
407.23694,407.97064,73,70,0
407.97064,408.29672,82,70,0
407.97064,408.29672,70,70,0
408.29672,408.6228,78,70,0
408.29672,408.6228,66,70,0
408.6228,408.94888,82,70,0
408.6228,408.94888,70,70,0
408.94888,409.27496,73,70,0
408.94888,409.27496,61,70,0
409.27496,409.60107,80,70,0
409.27496,409.60107,68,70,0
409.60107,409.92715,78,70,0
409.60107,409.92715,66,70,0
409.92715,410.25323,75,70,0
409.92715,410.25323,63,70,0
410.25323,410.5793,61,70,0
410.5793,410.9054,68,70,0
410.5793,410.9054,71,70,0
410.9054,411.2315,70,70,0
410.9054,411.2315,66,70,0
411.2315,411.5576,68,70,0
411.2315,411.5576,65,70,0
410.25323,411.5576,73,80,0
411.5576,411.72064,61,60,0
411.72064,411.88367,73,62,0
411.88367,412.04672,70,65,0
411.88367,412.04672,66,65,0
412.04672,412.20975,73,68,0
412.20975,412.3728,61,70,0
412.3728,412.53586,73,73,0
412.53586,412.69888,70,76,0
412.53586,412.69888,66,76,0
412.69888,412.86194,73,79,0
412.86194,413.02496,64,81,0
413.02496,413.18802,76,84,0
413.18802,413.35107,73,87,0
413.18802,413.35107,66,87,0
413.35107,413.5141,76,89,0
413.5141,413.67715,64,92,0
413.67715,413.84018,76,95,0
413.84018,414.00323,73,98,0
413.84018,414.00323,66,98,0
414.00323,414.1663,76,100,0
414.1663,414.3293,63,100,0
414.3293,414.49237,75,100,0
414.49237,414.6554,71,100,0
414.49237,414.6554,66,100,0
414.6554,414.81845,75,100,0
414.81845,414.9815,63,100,0
414.9815,415.14453,75,100,0
415.14453,415.3076,71,100,0
415.14453,415.3076,66,100,0
415.3076,415.47064,75,100,0
415.47064,415.63367,69,100,0
415.63367,415.79672,81,100,0
415.79672,415.95975,78,100,0
415.79672,415.95975,75,100,0
415.95975,416.1228,81,100,0
416.1228,416.28586,69,100,0
416.28586,416.44888,81,86,0
416.44888,416.61194,78,71,0
416.44888,416.61194,75,71,0
416.61194,416.77496,81,60,0
417.10107,417.67172,96,80,0
417.01953,417.67172,84,70,0
417.75323,418.0793,96,80,0
417.67172,418.0793,84,70,0
418.0793,418.40543,87,70,0
418.0793,418.40543,99,70,0
418.40543,418.7315,85,70,0
418.40543,418.7315,97,70,0
418.7315,419.0576,82,70,0
418.7315,419.0576,94,70,0
419.0576,419.38367,78,70,0
419.0576,419.38367,90,70,0
419.38367,419.70975,77,70,0
419.38367,419.70975,89,70,0
419.70975,420.03586,85,70,0
419.70975,420.03586,97,70,0
420.03586,420.36194,83,70,0
420.03586,420.36194,95,70,0
420.36194,420.68802,80,70,0
420.36194,420.68802,92,70,0
420.68802,421.99237,90,70,0
420.68802,421.99237,78,70,0
421.99237,422.15543,62,100,0
422.15543,422.31845,74,100,0
422.31845,422.4815,70,100,0
422.31845,422.4815,65,100,0
422.4815,422.64453,74,100,0
422.64453,422.8076,62,100,0
422.8076,422.97064,74,100,0
422.97064,423.13367,70,100,0
422.97064,423.13367,65,100,0
423.13367,423.29672,74,100,0
423.29672,423.45975,63,100,0
423.45975,423.6228,75,100,0
423.6228,423.78586,70,100,0
423.6228,423.78586,66,100,0
423.78586,423.94888,75,100,0
423.94888,424.11194,70,100,0
424.11194,424.27496,82,100,0
424.27496,424.43802,78,100,0
424.27496,424.43802,75,100,0
424.43802,424.60107,82,100,0
424.60107,424.7641,63,100,0
424.7641,424.92715,75,100,0
424.92715,425.0902,70,100,0
424.92715,425.0902,66,100,0
425.0902,425.25323,75,100,0
425.25323,425.4163,63,100,0
425.4163,425.5793,75,100,0
425.5793,425.74237,73,100,0
425.5793,425.74237,67,100,0
425.74237,425.90543,75,100,0
425.90543,426.06845,63,100,0
426.06845,426.2315,75,100,0
426.2315,426.39453,72,100,0
426.2315,426.39453,68,100,0
426.39453,426.5576,75,100,0
426.5576,426.72064,72,100,0
426.72064,426.88367,84,100,0
426.88367,427.04672,80,100,0
426.88367,427.04672,75,100,0
427.04672,427.20975,84,100,0
427.53586,428.1065,85,80,0
427.4543,428.1065,73,70,0
428.18802,428.8402,85,80,0
428.1065,428.8402,73,70,0
428.8402,429.1663,82,70,0
428.8402,429.1663,70,70,0
429.1663,429.49237,78,70,0
429.1663,429.49237,66,70,0
429.49237,429.81845,82,70,0
429.49237,429.81845,70,70,0
429.81845,430.14453,73,70,0
429.81845,430.14453,61,70,0
430.14453,430.47064,80,70,0
430.14453,430.47064,68,70,0
430.47064,430.79672,78,70,0
430.47064,430.79672,66,70,0
430.79672,431.1228,75,70,0
430.79672,431.1228,63,70,0
431.1228,431.44888,61,70,0
431.44888,431.77496,68,70,0
431.44888,431.77496,71,70,0
431.77496,432.10107,70,70,0
431.77496,432.10107,66,70,0
432.10107,432.42715,68,70,0
432.10107,432.42715,65,70,0
431.1228,432.42715,73,80,0
432.42715,432.5902,61,60,0
432.5902,432.75323,73,62,0
432.75323,432.9163,70,65,0
432.75323,432.9163,66,65,0
432.9163,433.0793,73,68,0
433.0793,433.24237,61,70,0
433.24237,433.40543,73,73,0
433.40543,433.56845,70,76,0
433.40543,433.56845,66,76,0
433.56845,433.7315,73,79,0
433.7315,433.89453,64,81,0
433.89453,434.0576,76,84,0
434.0576,434.22064,73,87,0
434.0576,434.22064,66,87,0
434.22064,434.38367,76,89,0
434.38367,434.54672,64,92,0
434.54672,434.70975,76,95,0
434.70975,434.8728,73,98,0
434.70975,434.8728,66,98,0
434.8728,435.03586,76,100,0
435.03586,435.19888,63,100,0
435.19888,435.36194,75,100,0
435.36194,435.525,71,100,0
435.36194,435.525,66,100,0
435.525,435.68802,75,100,0
435.68802,435.85107,63,100,0
435.85107,436.0141,75,100,0
436.0141,436.17715,71,100,0
436.0141,436.17715,66,100,0
436.17715,436.3402,75,100,0
436.3402,436.50323,69,100,0
436.50323,436.6663,81,100,0
436.6663,436.8293,78,100,0
436.6663,436.8293,75,100,0
436.8293,436.99237,81,100,0
436.99237,437.15543,69,100,0
437.15543,437.31845,81,86,0
437.31845,437.4815,78,71,0
437.31845,437.4815,75,71,0
437.4815,437.64453,81,60,0
437.97064,438.5413,96,80,0
437.8891,438.5413,84,70,0
438.6228,438.94888,96,80,0
438.5413,438.94888,84,70,0
438.94888,439.275,87,70,0
438.94888,439.275,99,70,0
439.275,439.60107,85,70,0
439.275,439.60107,97,70,0
439.60107,439.92715,82,70,0
439.60107,439.92715,94,70,0
439.92715,440.25323,78,70,0
439.92715,440.25323,90,70,0
440.25323,440.5793,89,70,0
440.25323,440.5793,77,70,0
440.5793,440.90543,85,70,0
440.5793,440.90543,97,70,0
440.90543,441.2315,83,70,0
440.90543,441.2315,95,70,0
441.2315,441.5576,80,70,0
441.2315,441.5576,92,70,0
441.5576,442.53586,90,70,0
441.5576,442.53586,78,70,0
442.53586,442.86194,78,70,0
442.53586,442.86194,66,70,0
442.86194,443.18802,65,70,0
442.86194,443.18802,77,70,0
443.18802,443.5141,73,68,0
443.18802,443.5141,85,68,0
443.5141,443.8402,71,65,0
443.5141,443.8402,83,65,0
443.8402,444.1663,68,62,0
443.8402,444.1663,80,62,0
444.1663,445.14453,78,60,0
444.1663,445.14453,66,60,0
445.14453,445.47064,66,51,0
445.47064,445.79672,65,50,0
445.79672,446.1228,73,50,0
446.1228,446.44888,71,50,0
446.44888,446.775,68,50,0
446.775,448.0793,66,50,0
448.0793,448.7315,66,50,0
448.7315,449.70978,66,50,0
449.70978,450.03586,66,50,0
450.03586,450.36194,65,50,0
450.36194,450.68802,64,50,0
450.68802,452.77136,65,50,0
452.77136,453.52933,70,50,0
453.52933,454.32413,69,50,0
454.32413,455.15958,77,50,0
455.15958,456.04028,75,50,0
456.04028,458.22778,72,50,0
458.22778,458.49564,89,40,0
458.49564,458.60434,88,40,0
458.60434,458.713,91,40,0
458.713,458.82172,89,40,0
458.82172,458.93042,87,40,0
458.93042,459.03912,86,40,0
459.03912,459.1478,84,40,0
459.1478,459.2565,82,40,0
459.2565,459.3652,81,40,0
459.3652,459.4739,79,40,0
459.4739,459.58258,77,40,0
459.58258,459.69128,75,40,0
459.69128,459.8,74,40,0
459.8,460.45215,72,40,0
460.45215,460.6152,70,40,0
460.94128,461.10434,70,40,0
461.10434,461.213,69,40,0
461.213,461.32172,70,40,0
461.32172,461.43042,72,40,0
461.43042,461.53912,74,40,0
461.53912,461.6478,75,40,0
461.6478,461.7565,77,40,0
461.7565,461.8652,79,40,0
461.8652,461.9739,81,40,0
461.9739,462.08258,82,40,0
462.08258,462.19128,83,40,0
462.19128,462.3,84,40,0
462.3,462.4087,86,40,0
462.4087,463.06085,89,40,0
463.06085,463.2239,87,40,0
463.55,463.713,87,40,0
463.713,463.82172,86,40,0
463.82172,463.93042,98,42,0
463.93042,464.03912,96,45,0
464.03912,464.1478,94,48,0
464.1478,464.2565,93,51,0
464.2565,464.3652,91,54,0
464.3652,464.4739,89,57,0
464.4739,464.58258,87,59,0
464.58258,464.69128,86,62,0
464.69128,464.8,84,65,0
464.8,464.9087,82,68,0
464.9087,465.01736,81,71,0
465.01736,465.12607,79,74,0
465.12607,465.23477,91,77,0
465.23477,465.34348,89,79,0
465.34348,465.45215,87,82,0
465.45215,465.56085,86,85,0
465.56085,465.66956,84,88,0
465.66956,465.77823,82,91,0
465.77823,465.88693,81,94,0
465.88693,465.99564,79,97,0
465.99564,466.10434,77,99,0
466.10434,466.213,75,100,0
466.213,466.32172,74,100,0
466.32172,466.43042,72,100,0
466.43042,466.53912,76,98,0
466.53912,466.6478,79,95,0
466.6478,466.7565,82,92,0
466.7565,466.8652,79,89,0
466.8652,466.9739,82,86,0
466.9739,467.08258,84,83,0
467.08258,467.19128,88,81,0
467.19128,467.3,91,78,0
467.3,467.4087,94,75,0
467.4087,467.51736,91,72,0
467.51736,467.62607,88,69,0
467.62607,467.95215,89,66,0
467.95215,468.06085,89,58,0
468.06085,468.16956,91,55,0
468.16956,468.27823,89,52,0
468.27823,468.38693,88,49,0
468.38693,468.49564,91,46,0
468.49564,468.60434,89,43,0
468.60434,468.713,87,41,0
468.713,468.82172,91,40,0
468.82172,468.93042,89,40,0
468.93042,469.03912,88,40,0
469.03912,469.1478,91,40,0
469.1478,469.2565,89,40,0
469.2565,469.3652,87,40,0
469.3652,469.4739,86,40,0
469.4739,469.58258,84,40,0
469.58258,469.69128,82,40,0
469.69128,469.8,81,40,0
469.8,469.9087,79,40,0
469.9087,470.01736,77,40,0
470.01736,470.12607,75,40,0
470.12607,470.23477,74,40,0
470.23477,470.88693,72,40,0
470.88693,471.05,70,40,0
471.37607,471.53912,70,40,0
471.53912,471.6478,69,40,0
471.6478,471.7565,70,40,0
471.7565,471.8652,72,40,0
471.8652,471.9739,74,40,0
471.9739,472.08258,75,40,0
472.08258,472.19128,77,40,0
472.19128,472.3,79,40,0
472.3,472.4087,81,40,0
472.4087,472.51736,82,40,0
472.51736,472.62607,83,40,0
472.62607,472.73477,84,40,0
472.73477,472.84348,86,40,0
472.84348,473.33258,89,40,0
473.33258,473.49564,88,40,0
473.49564,473.6587,87,40,0
473.98477,474.1478,87,40,0
474.1478,474.2565,86,40,0
474.2565,474.3652,98,46,0
474.3652,474.4739,96,53,0
474.4739,474.58258,94,59,0
474.58258,474.69128,93,66,0
474.69128,474.8,91,73,0
474.8,474.9087,89,79,0
474.9087,475.01736,87,86,0
475.01736,475.12607,86,93,0
475.12607,475.23477,84,99,0
475.23477,475.34348,82,100,0
475.34348,475.45215,81,100,0
475.45215,475.56085,79,100,0
475.56085,475.66956,94,97,0
475.66956,475.77826,91,93,0
475.77826,475.88693,88,89,0
475.88693,475.99564,85,85,0
475.99564,476.10434,82,81,0
476.10434,476.213,79,77,0
476.213,476.32172,76,73,0
476.32172,476.43042,73,69,0
476.43042,476.53912,70,65,0
476.53912,476.6478,67,61,0
476.6478,476.7565,64,60,0
476.7565,476.8652,65,60,0
476.8652,476.9739,64,60,0
476.9739,477.08258,65,59,0
477.08258,477.19128,67,58,0
477.19128,477.3,69,57,0
477.3,477.4087,70,56,0
477.4087,477.51736,72,55,0
477.51736,477.62607,74,54,0
477.62607,477.73477,75,53,0
477.73477,477.84348,77,52,0
477.84348,477.95215,79,51,0
477.95215,478.06085,81,50,0
478.06085,478.16956,82,49,0
478.16956,478.27826,86,48,0
478.27826,478.38693,89,47,0
478.38693,478.49564,94,46,0
478.49564,478.60434,98,45,0
478.60434,478.713,96,44,0
478.713,478.82172,94,43,0
478.82172,478.93042,89,42,0
478.93042,479.03912,86,41,0
479.03912,479.1478,82,41,0
479.1478,479.2565,86,40,0
479.2565,479.3652,89,40,0
479.3652,479.4739,88,40,0
479.4739,479.58258,91,40,0
479.58258,479.69128,89,40,0
479.69128,479.8,87,40,0
479.8,479.9087,86,40,0
479.9087,480.01736,84,40,0
480.01736,480.12607,82,40,0
480.12607,480.23477,81,40,0
480.23477,480.34348,79,40,0
480.34348,480.45215,77,40,0
480.45215,480.56085,75,40,0
480.56085,480.66956,74,40,0
480.66956,481.32172,72,40,0
481.32172,481.48477,70,40,0
481.81085,481.9739,70,40,0
481.9739,482.08258,69,40,0
482.08258,482.19128,70,40,0
482.19128,482.3,72,40,0
482.3,482.4087,74,40,0
482.4087,482.51736,75,40,0
482.51736,482.62607,77,40,0
482.62607,482.73477,79,40,0
482.73477,482.84348,81,40,0
482.84348,482.95215,82,40,0
482.95215,483.06085,83,40,0
483.06085,483.16956,84,40,0
483.16956,483.27826,86,40,0
483.27826,483.93042,89,40,0
483.93042,484.09348,87,40,0
484.41956,484.58258,87,40,0
484.58258,484.69128,86,40,0
484.69128,484.8,98,42,0
484.8,484.9087,96,45,0
484.9087,485.01736,94,48,0
485.01736,485.12607,93,51,0
485.12607,485.23477,91,54,0
485.23477,485.34348,89,57,0
485.34348,485.45215,87,59,0
485.45215,485.56085,86,62,0
485.56085,485.66956,84,65,0
485.66956,485.77826,82,68,0
485.77826,485.88693,81,71,0
485.88693,485.99564,79,74,0
485.99564,486.10434,91,77,0
486.10434,486.21304,89,79,0
486.21304,486.32172,87,82,0
486.32172,486.43042,86,85,0
486.43042,486.53912,84,88,0
486.53912,486.6478,82,91,0
486.6478,486.7565,81,94,0
486.7565,486.8652,79,97,0
486.8652,486.9739,77,99,0
486.9739,487.08258,75,100,0
487.08258,487.19128,74,100,0
487.19128,487.3,72,100,0
487.3,487.4087,76,98,0
487.4087,487.51736,79,95,0
487.51736,487.62607,82,92,0
487.62607,487.73477,79,89,0
487.73477,487.84348,82,86,0
487.84348,487.95215,84,83,0
487.95215,488.06085,88,81,0
488.06085,488.16956,91,78,0
488.16956,488.27826,94,75,0
488.27826,488.38693,91,72,0
488.38693,488.49564,88,69,0
488.49564,488.82172,89,66,0
488.82172,488.93042,89,58,0
488.93042,489.03912,91,55,0
489.03912,489.1478,89,52,0
489.1478,489.2565,88,49,0
489.2565,489.3652,91,46,0
489.3652,489.4739,89,43,0
489.4739,489.58258,87,41,0
489.58258,489.69128,91,40,0
489.69128,489.8,89,40,0
489.8,489.9087,88,40,0
489.9087,490.01736,91,40,0
490.01736,490.12607,89,40,0
490.12607,490.23477,87,40,0
490.23477,490.34348,86,40,0
490.34348,490.45215,84,40,0
490.45215,490.56085,82,40,0
490.56085,490.66956,81,40,0
490.66956,490.77826,79,40,0
490.77826,490.88693,77,40,0
490.88693,490.99564,75,40,0
490.99564,491.10434,74,40,0
491.10434,491.7565,72,40,0
491.7565,491.91956,70,40,0
492.24564,492.4087,70,40,0
492.4087,492.51736,69,40,0
492.51736,492.62607,70,40,0
492.62607,492.73477,72,40,0
492.73477,492.84348,74,40,0
492.84348,492.95215,75,40,0
492.95215,493.06085,77,40,0
493.06085,493.16956,79,40,0
493.16956,493.27826,81,40,0
493.27826,493.38693,82,40,0
493.38693,493.49564,83,40,0
493.49564,493.60434,84,40,0
493.60434,493.71304,86,40,0
493.71304,494.20215,89,40,0
494.20215,494.3652,88,40,0
494.3652,494.52826,87,40,0
494.85434,495.01736,87,40,0
495.01736,495.12607,86,40,0
495.12607,495.23477,98,46,0
495.23477,495.34348,96,53,0
495.34348,495.45215,94,59,0
495.45215,495.56085,93,66,0
495.56085,495.66956,91,73,0
495.66956,495.77826,89,79,0
495.77826,495.88693,87,86,0
495.88693,495.99564,86,93,0
495.99564,496.10434,84,99,0
496.10434,496.21304,82,100,0
496.21304,496.32172,81,100,0
496.32172,496.43042,79,100,0
496.43042,496.53912,94,97,0
496.53912,496.64783,91,93,0
496.64783,496.7565,88,89,0
496.7565,496.8652,85,85,0
496.8652,496.9739,82,81,0
496.9739,497.08258,79,77,0
497.08258,497.19128,76,73,0
497.19128,497.3,73,69,0
497.3,497.4087,70,65,0
497.4087,497.51736,67,61,0
497.51736,497.62607,64,60,0
497.62607,497.73477,65,60,0
497.73477,497.84348,64,61,0
497.84348,497.95215,65,63,0
497.95215,498.06085,67,65,0
498.06085,498.16956,69,67,0
498.16956,498.27826,70,69,0
498.27826,498.38693,72,70,0
498.38693,498.49564,74,72,0
498.49564,498.60434,75,74,0
498.60434,498.71304,77,76,0
498.71304,498.82172,79,78,0
498.82172,498.93042,81,79,0
498.93042,499.03912,82,81,0
499.03912,499.14783,86,83,0
499.14783,499.2565,89,85,0
499.2565,499.3652,94,87,0
499.3652,499.4739,98,89,0
499.4739,499.58258,96,90,0
499.58258,499.69128,94,92,0
499.69128,499.8,89,94,0
499.8,499.9087,86,96,0
499.9087,500.01736,82,98,0
500.01736,500.12607,84,99,0
500.12607,500.23477,85,100,0
500.23477,500.56085,86,100,0
500.56085,501.21304,74,100,0
500.56085,501.21304,86,100,0
500.56085,501.21304,84,100,0
500.56085,501.21304,78,100,0
501.21304,501.53912,74,100,0
501.21304,501.53912,86,100,0
501.21304,501.53912,84,100,0
501.21304,501.53912,78,100,0
501.8652,502.51736,74,100,0
501.8652,502.51736,86,100,0
501.8652,502.51736,82,100,0
501.8652,502.51736,79,100,0
502.51736,502.84348,79,100,0
502.51736,502.84348,91,100,0
502.51736,502.84348,86,100,0
502.51736,502.84348,82,100,0
503.16956,503.82172,82,100,0
503.16956,503.82172,86,100,0
503.16956,503.82172,94,100,0
503.82172,504.14783,91,100,0
503.82172,504.14783,86,100,0
503.82172,504.14783,79,100,0
504.14783,505.45215,76,100,0
504.14783,505.45215,88,100,0
504.14783,505.45215,84,100,0
504.14783,505.45215,79,100,0
505.99564,506.10434,65,100,0
505.77826,506.10434,77,110,0
505.77826,506.10434,84,110,0
505.77826,506.21304,89,110,0
506.10434,506.26736,69,100,0
506.21304,506.32172,84,100,0
506.32172,506.43042,81,100,0
506.43042,506.53912,77,100,0
506.53912,506.64783,72,100,0
506.64783,506.7565,69,100,0
506.7565,506.91956,67,100,0
507.19128,507.3,62,100,0
507.3,507.4087,67,100,0
507.0826,507.4087,77,110,0
507.0826,507.4087,86,110,0
507.0826,507.51736,89,110,0
507.4087,507.57172,70,100,0
507.51736,507.62607,86,100,0
507.62607,507.73477,82,100,0
507.73477,507.84348,77,100,0
507.84348,507.95215,74,100,0
507.95215,508.06085,70,100,0
508.06085,508.16956,69,100,0
508.16956,508.27826,84,98,0
508.27826,508.38693,82,95,0
508.38693,508.49564,81,92,0
508.49564,508.60434,79,89,0
508.60434,508.71304,77,86,0
508.71304,508.82172,76,83,0
508.82172,508.93042,74,81,0
508.93042,509.03912,72,78,0
509.03912,509.14783,70,75,0
509.14783,509.2565,69,72,0
509.2565,509.3652,67,69,0
509.3652,509.52826,65,66,0
509.69128,509.8,77,58,0
509.8,509.9087,79,55,0
509.9087,510.01736,77,52,0
510.01736,510.12607,76,49,0
510.12607,510.23477,79,46,0
510.23477,510.34348,77,43,0
510.34348,510.45215,76,41,0
510.45215,510.56085,91,40,0
510.56085,510.66956,89,40,0
510.66956,510.77826,88,40,0
510.77826,510.88693,91,40,0
510.88693,510.99564,89,40,0
510.99564,511.10434,87,40,0
511.10434,511.21304,86,40,0
511.21304,511.32172,84,40,0
511.32172,511.43042,82,40,0
511.43042,511.53912,81,40,0
511.53912,511.64783,79,40,0
511.64783,511.7565,77,40,0
511.7565,511.8652,75,40,0
511.8652,511.9739,74,40,0
511.9739,512.6261,72,40,0
512.6261,512.7891,70,40,0
513.11523,513.27826,69,40,0
513.27826,513.38696,70,40,0
513.38696,513.49567,72,41,0
513.49567,513.6043,74,43,0
513.6043,513.713,75,45,0
513.713,513.8217,77,47,0
513.8217,513.9304,79,49,0
513.9304,514.0391,81,50,0
514.0391,514.1478,82,52,0
514.1478,514.25653,84,54,0
514.25653,514.36523,86,56,0
514.36523,514.4739,87,58,0
514.4739,514.5826,89,59,0
514.5826,514.6478,91,61,0
514.6478,514.713,93,62,0
514.713,514.77826,91,63,0
514.77826,514.84344,89,65,0
514.84344,515.0717,91,66,0
515.0717,515.23474,94,69,0
515.23474,515.56085,97,72,0
515.7239,515.88696,72,80,0
515.88696,515.99567,71,83,0
515.99567,516.1043,72,85,0
516.1043,516.213,74,87,0
516.213,516.3217,76,89,0
516.3217,516.4304,77,90,0
516.4304,516.5391,79,92,0
516.5391,516.6478,81,94,0
516.6478,516.75653,82,96,0
516.75653,516.86523,84,98,0
516.86523,516.9739,86,99,0
516.9739,517.0826,87,100,0
517.0826,517.1913,88,100,0
517.1913,517.3,89,100,0
517.3,517.4087,101,97,0
517.4087,517.5174,100,93,0
517.5174,517.6261,99,89,0
517.6261,517.73474,98,85,0
517.73474,517.84344,96,81,0
517.84344,517.95215,94,77,0
517.95215,518.06085,93,73,0
518.06085,518.16956,91,69,0
518.16956,518.27826,89,65,0
518.27826,518.38696,87,61,0
518.38696,518.49567,86,60,0
518.49567,518.6043,84,60,0
518.6043,518.713,93,61,0
518.713,518.8217,91,63,0
518.8217,518.9304,87,65,0
518.9304,519.0391,84,67,0
519.0391,519.1478,82,69,0
519.1478,519.25653,81,70,0
519.25653,519.36523,79,72,0
519.36523,519.4739,77,74,0
519.4739,519.5826,75,76,0
519.5826,519.6913,74,78,0
519.6913,519.8,72,79,0
519.8,519.9087,70,81,0
519.9087,520.0174,74,83,0
520.0174,520.1261,77,85,0
520.1261,520.2348,82,87,0
520.2348,520.34344,86,89,0
520.34344,520.45215,84,90,0
520.45215,520.56085,82,92,0
520.56085,520.66956,81,94,0
520.66956,520.77826,82,96,0
520.77826,520.88696,83,98,0
520.88696,520.99567,84,99,0
520.99567,521.1043,85,100,0
521.1043,521.4304,86,100,0
521.4304,522.0826,74,100,0
521.4304,522.0826,86,100,0
521.4304,522.0826,84,100,0
521.4304,522.0826,78,100,0
522.0826,522.4087,74,100,0
522.0826,522.4087,86,100,0
522.0826,522.4087,84,100,0
522.0826,522.4087,78,100,0
522.7348,523.38696,74,100,0
522.7348,523.38696,86,100,0
522.7348,523.38696,82,100,0
522.7348,523.38696,79,100,0
523.38696,523.713,79,100,0
523.38696,523.713,91,100,0
523.38696,523.713,86,100,0
523.38696,523.713,82,100,0
524.0391,524.6913,82,100,0
524.0391,524.6913,86,100,0
524.0391,524.6913,94,100,0
524.6913,525.0174,91,100,0
524.6913,525.0174,86,100,0
524.6913,525.0174,79,100,0
525.0174,526.3217,76,100,0
525.0174,526.3217,88,100,0
525.0174,526.3217,84,100,0
525.0174,526.3217,79,100,0
526.86523,526.9739,65,100,0
526.6478,526.9739,77,110,0
526.6478,526.9739,84,110,0
526.6478,527.0826,89,110,0
526.9739,527.13696,69,100,0
527.0826,527.1913,84,100,0
527.1913,527.3,81,100,0
527.3,527.4087,77,100,0
527.4087,527.5174,72,100,0
527.5174,527.6261,69,100,0
527.6261,527.7891,67,100,0
528.06085,528.16956,62,100,0
528.16956,528.27826,67,100,0
527.95215,528.27826,77,110,0
527.95215,528.27826,86,110,0
527.95215,528.38696,89,110,0
528.27826,528.4413,70,100,0
528.38696,528.49567,86,100,0
528.49567,528.6043,82,100,0
528.6043,528.713,77,100,0
528.713,528.8217,74,100,0
528.8217,528.9304,70,100,0
528.9304,529.0391,69,100,0
529.0391,529.1478,84,98,0
529.1478,529.25653,82,95,0
529.25653,529.36523,81,92,0
529.36523,529.4739,79,89,0
529.4739,529.5826,77,86,0
529.5826,529.6913,76,83,0
529.6913,529.8,74,81,0
529.8,529.9087,72,78,0
529.9087,530.0174,70,75,0
530.0174,530.1261,69,72,0
530.1261,530.2348,67,69,0
530.2348,530.3978,65,66,0
530.56085,530.66956,77,58,0
530.66956,530.77826,79,55,0
530.77826,530.88696,77,52,0
530.88696,530.99567,76,49,0
530.99567,531.1043,79,46,0
531.1043,531.213,77,43,0
531.213,531.3217,76,41,0
531.3217,531.4304,91,40,0
531.4304,531.5391,89,40,0
531.5391,531.6478,88,40,0
531.6478,531.75653,91,40,0
531.75653,531.86523,89,40,0
531.86523,531.9739,87,40,0
531.9739,532.0826,86,40,0
532.0826,532.1913,84,40,0
532.1913,532.3,82,40,0
532.3,532.4087,81,40,0
532.4087,532.5174,79,40,0
532.5174,532.6261,77,40,0
532.6261,532.7348,75,40,0
532.7348,532.84344,74,40,0
532.84344,533.49567,72,40,0
533.49567,533.6587,70,40,0
533.9848,534.1478,69,40,0
534.1478,534.25653,70,40,0
534.25653,534.36523,72,41,0
534.36523,534.4739,74,43,0
534.4739,534.5826,75,45,0
534.5826,534.6913,77,47,0
534.6913,534.8,79,49,0
534.8,534.9087,81,50,0
534.9087,535.0174,82,52,0
535.0174,535.1261,84,54,0
535.1261,535.2348,86,56,0
535.2348,535.34344,87,58,0
535.34344,535.45215,89,59,0
535.45215,535.5174,91,61,0
535.5174,535.5826,93,62,0
535.5826,535.6478,91,63,0
535.6478,535.713,89,65,0
535.713,535.9413,91,66,0
535.9413,536.1043,94,69,0
536.1043,536.4304,97,72,0
536.59344,536.75653,72,80,0
536.75653,536.86523,71,83,0
536.86523,536.9739,72,85,0
536.9739,537.0826,74,87,0
537.0826,537.1913,76,89,0
537.1913,537.3,77,90,0
537.3,537.4087,79,92,0
537.4087,537.5174,81,94,0
537.5174,537.6261,82,96,0
537.6261,537.7348,84,98,0
537.7348,537.84344,86,99,0
537.84344,537.95215,87,100,0
537.95215,538.06085,88,100,0
538.06085,538.16956,89,100,0
538.16956,538.27826,101,97,0
538.27826,538.38696,100,93,0
538.38696,538.49567,99,89,0
538.49567,538.6043,98,85,0
538.6043,538.713,96,81,0
538.713,538.8217,94,77,0
538.8217,538.9304,93,73,0
538.9304,539.0391,91,69,0
539.0391,539.1478,89,65,0
539.1478,539.25653,87,61,0
539.25653,539.36523,86,60,0
539.36523,539.4739,84,60,0
539.4739,539.5826,93,60,0
539.5826,539.6913,91,60,0
539.6913,539.8,87,60,0
539.8,539.9087,84,60,0
539.9087,540.0174,82,60,0
540.0174,540.1261,81,60,0
540.1261,540.2348,79,60,0
540.2348,540.34344,77,60,0
540.34344,540.45215,75,60,0
540.45215,540.56085,74,60,0
540.56085,540.66956,72,60,0
540.66956,540.77826,70,60,0
540.77826,540.88696,74,60,0
540.88696,540.99567,77,60,0
540.99567,541.1044,82,60,0
541.1044,541.213,86,60,0
541.213,541.3217,84,60,0
541.3217,541.4304,82,60,0
541.4304,541.5391,81,60,0
541.5391,541.6478,79,60,0
541.6478,541.75653,77,60,0
541.75653,541.86523,75,60,0
541.86523,541.9739,74,60,0
541.9739,542.08295,72,60,0
542.08295,542.19293,81,60,0
542.19293,542.3039,79,60,0
542.3039,542.41595,75,60,0
542.41595,542.5291,72,60,0
542.5291,542.6433,70,60,0
542.6433,542.75867,69,60,0
542.75867,542.87476,67,60,0
542.87476,542.992,65,60,0
542.992,543.1104,63,60,0
543.1104,543.2301,62,60,0
543.2301,543.35095,60,60,0
543.35095,543.473,58,60,0
543.473,543.5964,62,60,0
543.5964,543.7207,65,60,0
543.7207,543.84625,70,60,0
543.84625,543.9732,74,60,0
543.9732,544.1015,72,60,0
544.1015,544.23114,70,60,0
544.23114,544.3623,69,60,0
544.3623,544.49493,67,60,0
544.49493,544.62866,65,60,0
544.62866,544.7638,63,60,0
544.7638,544.9005,62,60,0
544.9005,545.0388,60,60,0
545.0388,545.1788,69,60,0
545.1788,545.32043,67,60,0
545.32043,545.46375,63,60,0
545.46375,545.6083,60,60,0
545.6083,545.75464,58,60,0
567.30615,568.37756,74,50,0
567.30615,568.37756,62,40,0
567.30615,568.37756,65,40,0
567.30615,568.37756,70,40,0
568.37756,568.9133,74,50,0
568.37756,568.9133,65,40,0
568.37756,568.9133,67,40,0
568.37756,568.9133,71,40,0
568.9133,569.44904,74,50,0
568.9133,569.44904,71,40,0
568.9133,569.44904,67,40,0
568.9133,569.44904,65,40,0
569.44904,570.52045,74,50,0
569.44904,571.59186,67,40,0
570.52045,571.59186,67,50,0
569.44904,571.59186,63,40,0
571.59186,572.12756,72,50,0
572.12756,572.39545,71,50,0
572.39545,572.6633,72,50,0
572.6633,572.93115,71,50,0
572.93115,573.19904,72,50,0
573.19904,573.6008,74,50,0
573.6008,573.73474,72,50,0
571.59186,573.73474,69,40,0
571.59186,573.73474,63,40,0
573.73474,575.8776,70,50,0
573.73474,575.8776,62,40,0
575.8776,578.55615,84,50,0
575.8776,578.55615,75,40,0
575.8776,578.55615,81,40,0
578.55615,578.82404,83,50,0
578.82404,579.09186,84,50,0
579.09186,579.35974,83,50,0
579.35974,579.6276,84,50,0
579.6276,580.02936,87,50,0
580.02936,580.1633,81,50,0
580.1633,581.23474,82,50,0
580.1633,581.23474,74,40,0
582.30615,583.3776,62,50,0
582.30615,583.3776,74,50,0
582.30615,583.3776,70,50,0
582.30615,583.3776,65,50,0
584.44904,588.73474,62,50,0
584.44904,588.73474,65,50,0
584.44904,588.73474,70,50,0
85.76088,86.08697,58,50,0
86.08697,86.413055,58,40,0
86.413055,86.576096,57,40,0
86.576096,86.73914,55,40,0
86.73914,87.06523,57,40,0
86.08697,87.06523,60,50,0
87.06523,87.39132,65,50,0
87.06523,87.39132,57,40,0
87.06523,87.39132,51,40,0
87.39132,88.69566,50,50,0
87.39132,88.69566,58,50,0
175.21028,175.40778,53,40,0
175.40778,175.60762,60,40,0
175.01524,175.60762,65,50,0
175.60762,175.81006,63,50,0
176.01492,176.2224,53,40,0
176.2224,176.43251,57,40,0
175.81006,176.43251,62,50,0
176.43251,176.6455,60,50,0
176.6455,176.86116,58,50,0
177.30142,177.52618,57,50,0
177.52618,178.77618,58,50,0
177.07986,178.77618,53,50,0
176.86116,178.77618,50,50,0
267.16037,268.54422,50,50,0
266.94168,268.54422,53,50,0
266.726,268.54422,58,50,0
545.75464,545.8285,57,60,0
545.9028,545.97754,55,60,0
546.0528,546.12854,53,60,0
546.2048,546.2815,51,60,0
546.35876,546.4365,50,60,0
546.5148,546.5932,48,60,0
548.91327,550.16327,53,40,0
550.16327,551.23474,62,50,0
550.16327,551.23474,53,40,0
550.16327,551.23474,50,40,0
551.23474,551.77045,62,50,0
551.23474,551.77045,53,40,0
551.23474,551.77045,50,40,0
551.77045,552.30615,62,50,0
551.77045,552.30615,53,40,0
551.77045,552.30615,50,40,0
552.30615,553.37756,58,50,0
552.30615,553.37756,50,40,0
552.30615,553.37756,53,40,0
553.37756,554.44904,58,50,0
553.37756,554.44904,53,40,0
553.37756,554.44904,50,40,0
554.44904,555.52045,57,50,0
554.44904,555.52045,51,40,0
554.44904,555.52045,53,40,0
555.52045,556.05615,57,50,0
555.52045,556.05615,53,40,0
555.52045,556.05615,51,40,0
556.05615,556.59186,57,50,0
556.05615,556.59186,51,40,0
556.05615,556.59186,53,40,0
556.59186,557.6633,54,50,0
557.6633,558.73474,53,50,0
556.59186,558.73474,60,40,0
556.59186,558.73474,63,40,0
558.73474,559.80615,62,50,0
558.73474,559.80615,58,40,0
558.73474,559.80615,53,40,0
558.73474,559.80615,50,40,0
559.80615,560.34186,62,50,0
559.80615,560.34186,59,40,0
559.80615,560.34186,55,40,0
559.80615,560.34186,53,40,0
560.34186,560.87756,62,50,0
560.34186,560.87756,53,40,0
560.34186,560.87756,55,40,0
560.34186,560.87756,59,40,0
560.87756,561.94904,62,50,0
560.87756,563.02045,55,40,0
561.94904,563.02045,55,50,0
560.87756,563.02045,51,40,0
563.02045,563.55615,60,50,0
563.55615,563.82404,59,50,0
563.82404,564.09186,60,50,0
564.09186,564.35974,59,50,0
564.35974,564.62756,60,50,0
564.62756,565.02936,62,50,0
565.02936,565.1633,60,50,0
563.02045,565.1633,57,40,0
563.02045,565.1633,51,40,0
565.1633,567.30615,58,50,0
565.1633,567.30615,50,40,0
0.0,0.1630435,46,70,0
0.326087,0.652174,62,60,0
0.652174,0.978261,58,60,0
0.652174,0.978261,53,60,0
0.978261,1.304348,62,60,0
1.304348,1.4673915,50,70,0
1.630435,1.956522,65,60,0
1.956522,2.282609,58,60,0
1.956522,2.282609,53,60,0
2.282609,2.608696,65,60,0
2.608696,2.7717395,48,70,0
2.934783,3.26087,63,60,0
3.26087,3.586957,57,60,0
3.26087,3.586957,53,60,0
3.586957,3.913044,63,60,0
3.913044,4.0760875,41,70,0
4.239131,4.565218,60,60,0
4.565218,4.891305,57,60,0
4.565218,4.891305,53,60,0
4.891305,5.217392,60,60,0
5.217392,5.3804355,46,70,0
5.543479,5.869566,62,60,0
5.869566,6.195653,58,60,0
5.869566,6.195653,53,60,0
6.195653,6.52174,62,60,0
6.52174,6.6847835,39,70,0
6.847827,7.173914,60,60,0
7.173914,7.500001,58,60,0
7.173914,7.500001,55,60,0
7.173914,7.500001,51,60,0
7.500001,7.826088,60,60,0
7.826088,7.9891315,40,70,0
8.152175,8.478262,60,60,0
8.478262,8.804349,58,60,0
8.478262,8.804349,55,60,0
8.478262,8.804349,52,60,0
8.804349,9.130436,60,60,0
9.130436,9.29348,41,70,0
9.456523,9.78261,57,60,0
9.78261,10.108697,58,60,0
10.108697,10.434784,60,60,0
9.456523,10.434784,53,60,0
10.434784,10.597828,46,70,0
10.760871,11.086958,62,60,0
11.086958,11.413045,53,70,0
11.086958,11.413045,58,60,0
11.413045,11.739132,62,60,0
11.739132,11.902176,50,70,0
12.065219,12.391306,65,60,0
12.391306,12.717393,58,60,0
12.391306,12.717393,53,60,0
12.717393,13.04348,65,60,0
13.04348,13.206524,48,70,0
13.369567,13.695654,63,60,0
13.695654,14.021741,57,60,0
13.695654,14.021741,53,60,0
14.021741,14.347828,63,60,0
14.347828,14.510872,41,70,0
14.673915,15.000002,60,60,0
15.000002,15.326089,57,60,0
15.000002,15.326089,53,60,0
15.326089,15.652176,60,60,0
15.652176,15.81522,46,70,0
15.978263,16.30435,62,65,0
16.30435,16.630438,58,70,0
16.30435,16.630438,53,70,0
16.630438,16.956524,62,76,0
16.956524,17.119568,40,90,0
17.282612,17.608698,61,75,0
17.608698,17.934786,58,70,0
17.608698,17.934786,55,70,0
17.608698,17.934786,52,70,0
17.934786,18.260872,61,64,0
18.260872,18.58696,58,60,0
18.58696,18.750002,57,60,0
18.750002,18.913046,55,60,0
18.913046,19.239134,57,60,0
18.260872,19.239134,53,70,0
18.260872,19.239134,60,60,0
19.239134,19.56522,53,70,0
19.239134,19.56522,60,60,0
19.56522,19.728264,46,70,0
19.891308,20.217394,58,60,0
20.217394,20.543482,53,60,0
20.217394,20.543482,50,60,0
20.543482,20.869568,58,60,0
20.869568,21.032612,46,70,0
21.195656,21.521742,62,60,0
21.521742,21.84783,58,60,0
21.521742,21.84783,53,60,0
21.84783,22.173916,62,60,0
22.173916,22.33696,50,70,0
22.500004,22.82609,65,60,0
22.82609,23.152178,58,60,0
22.82609,23.152178,53,60,0
23.152178,23.478264,65,60,0
23.478264,23.641308,48,70,0
23.804352,24.130438,63,60,0
24.130438,24.456526,57,60,0
24.130438,24.456526,53,60,0
24.456526,24.782612,63,60,0
24.782612,24.945656,41,70,0
25.1087,25.434786,60,60,0
25.434786,25.760874,57,60,0
25.434786,25.760874,53,60,0
25.760874,26.08696,60,60,0
26.08696,26.250004,46,70,0
26.413048,26.739134,62,60,0
26.739134,27.065222,58,60,0
26.739134,27.065222,53,60,0
27.065222,27.391308,62,60,0
27.391308,27.554352,39,70,0
27.717396,28.043482,60,60,0
28.043482,28.36957,58,60,0
28.043482,28.36957,55,60,0
28.043482,28.36957,51,60,0
28.36957,28.695656,60,60,0
28.695656,28.8587,40,70,0
29.021744,29.34783,60,60,0
29.34783,29.673918,58,60,0
29.34783,29.673918,55,60,0
29.34783,29.673918,52,60,0
29.673918,30.000004,60,60,0
30.000004,30.163048,41,70,0
30.326092,30.652178,57,60,0
30.652178,30.978266,58,60,0
30.978266,31.304352,60,60,0
30.326092,31.304352,53,60,0
31.304352,31.467396,46,70,0
31.63044,31.956526,62,60,0
31.956526,32.28261,53,70,0
31.956526,32.28261,58,60,0
32.28261,32.6087,62,60,0
32.6087,32.771744,50,70,0
32.934788,33.260876,65,60,0
33.260876,33.58696,58,60,0
33.260876,33.58696,53,60,0
33.58696,33.913048,65,60,0
33.913048,34.07609,48,70,0
34.239136,34.565224,63,60,0
34.565224,34.891308,57,60,0
34.565224,34.891308,53,60,0
34.891308,35.217396,63,60,0
35.217396,35.38044,41,70,0
35.543484,35.86957,60,60,0
35.86957,36.195656,57,60,0
35.86957,36.195656,53,60,0
36.195656,36.521744,60,60,0
36.521744,36.684788,46,70,0
36.84783,37.17392,62,65,0
37.17392,37.500004,58,70,0
37.17392,37.500004,53,70,0
37.500004,37.82609,62,76,0
37.82609,37.989136,40,90,0
38.15218,38.478268,61,75,0
38.478268,38.80435,58,70,0
38.478268,38.80435,55,70,0
38.478268,38.80435,52,70,0
38.80435,39.13044,61,64,0
39.13044,39.456528,58,60,0
39.456528,39.61957,57,60,0
39.61957,39.782616,55,60,0
39.782616,40.1087,57,60,0
39.13044,40.1087,53,70,0
39.13044,40.1087,60,60,0
40.1087,40.434788,53,70,0
40.1087,40.434788,60,60,0
40.434788,40.59783,46,70,0
40.760876,41.086964,58,60,0
41.086964,41.413048,53,60,0
41.086964,41.413048,50,60,0
41.413048,41.739136,58,60,0
41.739136,41.90218,50,90,0
41.739136,41.90218,38,90,0
42.065224,42.39131,62,80,0
42.39131,42.717396,57,80,0
42.39131,42.717396,54,80,0
42.717396,43.043484,62,80,0
43.043484,43.206528,43,90,0
43.36957,43.69566,58,80,0
43.69566,44.021744,55,80,0
43.69566,44.021744,50,80,0
44.021744,44.34783,58,80,0
44.34783,44.510876,43,90,0
44.67392,45.000008,58,80,0
45.000008,45.32609,55,80,0
45.000008,45.32609,50,80,0
45.32609,45.65218,58,80,0
45.65218,45.815224,36,90,0
45.978268,46.304356,55,80,0
46.304356,46.63044,52,80,0
46.304356,46.63044,48,80,0
46.63044,46.956528,55,80,0
46.956528,47.11957,41,90,0
47.282616,47.608704,57,78,0
47.608704,47.934788,53,75,0
47.608704,47.934788,48,75,0
47.934788,48.260876,57,72,0
48.260876,48.42392,34,80,0
48.586964,48.91305,55,67,0
48.91305,49.239136,53,64,0
48.91305,49.239136,50,64,0
49.239136,49.565224,55,61,0
49.565224,49.728268,36,70,0
49.89131,50.2174,55,60,0
50.2174,50.543484,57,60,0
50.543484,50.86957,58,60,0
49.89131,50.86957,48,60,0
50.86957,51.032616,41,70,0
51.19566,51.521748,57,60,0
51.521748,51.84783,58,60,0
51.84783,52.17392,60,60,0
51.19566,52.17392,53,60,0
52.17392,52.336964,46,70,0
52.500008,52.826096,62,60,0
52.826096,53.15218,58,60,0
52.826096,53.15218,53,60,0
53.15218,53.478268,62,60,0
53.478268,53.64131,50,70,0
53.804356,54.130444,65,60,0
54.130444,54.456528,58,60,0
54.130444,54.456528,56,60,0
54.456528,54.782616,65,60,0
54.782616,54.94566,51,70,0
55.108704,55.43479,63,60,0
55.43479,55.760876,58,60,0
55.43479,55.760876,55,60,0
55.760876,56.086964,63,60,0
56.086964,56.250008,52,70,0
56.41305,56.73914,67,60,0
56.73914,57.065224,58,60,0
56.73914,57.065224,61,60,0
57.065224,57.39131,67,60,0
57.39131,57.554356,43,70,0
57.7174,58.043488,60,62,0
58.043488,58.36957,58,65,0
58.043488,58.36957,55,65,0
58.36957,58.69566,60,68,0
58.69566,58.858704,41,80,0
59.021748,59.347836,62,73,0
59.347836,59.67392,58,76,0
59.347836,59.67392,53,76,0
59.67392,60.000008,62,79,0
60.000008,60.16305,41,90,0
60.326096,60.652184,60,75,0
60.652184,60.978268,53,70,0
60.978268,61.304356,60,64,0
61.304356,61.4674,46,70,0
61.630444,61.95653,58,60,0
61.95653,62.282616,53,60,0
61.95653,62.282616,50,60,0
62.282616,62.608704,58,60,0
62.608704,62.771748,50,90,0
62.608704,62.771748,38,90,0
62.93479,63.26088,62,80,0
63.26088,63.586964,57,80,0
63.26088,63.586964,54,80,0
63.586964,63.91305,62,80,0
63.91305,64.076096,43,90,0
64.239136,64.56522,58,80,0
64.56522,64.89131,55,80,0
64.56522,64.89131,50,80,0
64.89131,65.2174,58,80,0
65.2174,65.38044,43,90,0
65.54349,65.869576,58,80,0
65.869576,66.19566,55,80,0
65.869576,66.19566,50,80,0
66.19566,66.52175,58,80,0
66.52175,66.68479,36,90,0
66.84783,67.17392,55,80,0
67.17392,67.50001,52,80,0
67.17392,67.50001,48,80,0
67.50001,67.826096,55,80,0
67.826096,67.989136,41,90,0
68.15218,68.47827,57,78,0
68.47827,68.80436,53,75,0
68.47827,68.80436,48,75,0
68.80436,69.13045,57,72,0
69.13045,69.29349,34,80,0
69.45653,69.782616,55,67,0
69.782616,70.1087,53,64,0
69.782616,70.1087,50,64,0
70.1087,70.43479,55,61,0
70.43479,70.59783,36,70,0
70.76088,71.08697,55,60,0
71.08697,71.413055,57,60,0
71.413055,71.73914,58,60,0
70.76088,71.73914,48,60,0
71.73914,71.90218,41,70,0
72.06522,72.39131,57,60,0
72.39131,72.7174,58,60,0
72.7174,73.04349,60,60,0
72.06522,73.04349,53,60,0
73.04349,73.20653,46,70,0
73.369576,73.69566,62,60,0
73.69566,74.02175,58,60,0
73.69566,74.02175,53,60,0
74.02175,74.34784,62,60,0
74.34784,74.51088,50,70,0
74.67392,75.00001,65,60,0
75.00001,75.326096,58,60,0
75.00001,75.326096,56,60,0
75.326096,75.65218,65,60,0
75.65218,75.81522,51,70,0
75.97827,76.30436,63,60,0
76.30436,76.63045,58,60,0
76.30436,76.63045,55,60,0
76.63045,76.956535,63,60,0
76.956535,77.119576,52,70,0
77.282616,77.6087,67,60,0
77.6087,77.93479,58,60,0
77.6087,77.93479,61,60,0
77.93479,78.26088,67,60,0
78.26088,78.42393,43,70,0
78.58697,78.913055,60,62,0
78.913055,79.23914,58,65,0
78.913055,79.23914,55,65,0
79.23914,79.56523,60,68,0
79.56523,79.72827,41,80,0
79.89131,80.2174,62,73,0
80.2174,80.54349,58,76,0
80.2174,80.54349,53,76,0
80.54349,80.869576,62,79,0
80.869576,81.03262,41,90,0
81.19566,81.52175,60,75,0
81.52175,81.84784,53,70,0
81.84784,82.17393,60,64,0
82.17393,82.33697,46,70,0
82.50001,82.826096,58,60,0
82.826096,83.15218,53,60,0
82.826096,83.15218,50,60,0
83.15218,83.47827,58,60,0
83.47827,83.64132,41,50,0
83.80436,84.13045,60,40,0
84.13045,84.456535,53,40,0
84.456535,84.78262,60,40,0
84.78262,84.94566,46,50,0
85.1087,85.43479,58,40,0
85.43479,85.76088,53,40,0
85.76088,85.92393,50,40,0
86.08697,86.250015,29,50,0
86.413055,86.73914,48,40,0
86.73914,87.06523,41,40,0
87.06523,87.39132,48,40,0
87.39132,88.69566,46,50,0
87.39132,88.69566,41,50,0
87.39132,88.69566,34,50,0
89.02175,89.67393,53,42,0
89.67393,90.000015,53,47,0
88.69566,90.000015,46,60,0
90.326096,90.97827,53,53,0
90.97827,91.30436,53,58,0
90.000015,91.30436,50,70,0
91.63045,92.28262,53,63,0
92.28262,92.60871,53,68,0
91.30436,92.60871,48,80,0
92.93479,93.58697,53,73,0
93.58697,93.913055,53,79,0
92.60871,93.913055,41,91,0
94.23914,94.89132,57,78,0
94.89132,95.21741,57,73,0
93.913055,95.21741,50,100,0
95.54349,96.19566,56,67,0
96.19566,96.52175,56,62,0
95.21741,96.52175,50,90,0
96.84784,97.500015,55,57,0
97.500015,97.8261,54,52,0
96.52175,97.8261,51,80,0
98.15218,98.80436,53,47,0
98.80436,99.13045,53,41,0
97.8261,99.13045,41,69,0
99.456535,100.10871,53,42,0
100.10871,100.4348,53,47,0
99.13045,100.4348,46,60,0
100.76088,101.413055,53,53,0
101.413055,101.73914,53,58,0
100.4348,101.73914,50,70,0
102.06523,102.71741,53,63,0
102.71741,103.043495,53,68,0
101.73914,103.043495,48,80,0
103.369576,104.02175,53,73,0
104.02175,104.34784,53,79,0
103.043495,104.34784,41,91,0
104.67393,105.3261,53,78,0
105.3261,105.65219,58,72,0
104.34784,105.65219,46,100,0
105.97827,106.63045,58,67,0
105.97827,106.63045,61,67,0
106.63045,106.956535,58,61,0
106.63045,106.956535,61,61,0
105.65219,106.956535,52,90,0
107.28262,107.9348,60,56,0
107.9348,108.26089,63,51,0
106.956535,108.26089,53,79,0
108.26089,108.913055,58,68,0
108.26089,108.913055,62,68,0
109.89132,110.543495,53,42,0
110.543495,110.86958,53,47,0
109.56523,110.86958,46,60,0
111.19566,111.84784,53,53,0
111.84784,112.17393,53,58,0
110.86958,112.17393,50,70,0
112.500015,113.15219,53,63,0
113.15219,113.47828,53,68,0
112.17393,113.47828,48,80,0
113.80436,114.456535,53,73,0
114.456535,114.78262,53,79,0
113.47828,114.78262,41,91,0
115.10871,115.76089,57,78,0
115.76089,116.086975,57,73,0
114.78262,116.086975,50,100,0
116.413055,117.06523,56,67,0
117.06523,117.39132,56,62,0
116.086975,117.39132,50,90,0
117.71741,118.36958,55,57,0
118.36958,118.69567,54,52,0
117.39132,118.69567,51,80,0
119.02175,119.67393,53,47,0
119.67393,120.000015,53,41,0
118.69567,120.000015,41,69,0
120.3261,120.97828,53,42,0
120.97828,121.30437,53,47,0
120.000015,121.30437,46,60,0
121.63045,122.28262,53,53,0
122.28262,122.60871,53,58,0
121.30437,122.60871,50,70,0
122.9348,123.586975,53,63,0
123.586975,123.91306,53,68,0
122.60871,123.91306,48,80,0
124.23914,124.89132,53,73,0
124.89132,125.21741,53,79,0
123.91306,125.21741,41,91,0
125.543495,126.19567,53,78,0
126.19567,126.52176,58,72,0
125.21741,126.52176,46,100,0
126.84784,127.500015,58,67,0
126.84784,127.500015,61,67,0
127.500015,127.8261,58,61,0
127.500015,127.8261,61,61,0
126.52176,127.8261,52,90,0
128.15219,128.80437,60,56,0
128.80437,129.13045,63,51,0
127.8261,129.13045,53,79,0
129.13045,129.78262,58,68,0
129.13045,129.78262,62,68,0
130.76088,131.41306,60,40,0
131.41306,131.73915,57,40,0
130.4348,131.73915,50,60,0
131.73915,132.06523,43,60,0
132.06523,132.39133,55,40,0
132.06523,132.39133,62,40,0
132.39133,132.7174,56,40,0
132.39133,132.7174,60,40,0
132.7174,133.0435,59,40,0
132.7174,133.0435,55,40,0
133.0435,133.36958,43,60,0
133.36958,134.02176,65,41,0
134.02176,134.34784,62,43,0
133.36958,134.34784,55,41,0
134.34784,135.32611,48,65,0
135.32611,135.65219,55,69,0
134.67393,135.65219,60,46,0
135.65219,136.30437,57,70,0
135.97827,136.63045,60,51,0
136.63045,136.95654,60,54,0
136.30437,136.95654,53,73,0
136.95654,137.28262,46,75,0
137.28262,137.60872,58,57,0
137.28262,137.60872,62,57,0
137.60872,137.9348,60,58,0
137.60872,137.9348,57,58,0
137.9348,138.2609,55,59,0
137.9348,138.2609,58,59,0
138.58698,138.91306,57,60,0
138.2609,138.91306,48,80,0
139.23915,139.56523,58,60,0
138.91306,139.56523,48,80,0
139.56523,140.86958,53,80,0
139.56523,140.86958,57,60,0
141.19566,141.84784,53,60,0
141.84784,142.17393,53,60,0
140.86958,142.17393,46,80,0
142.50002,143.15219,58,60,0
143.15219,143.47829,58,60,0
142.17393,143.47829,50,80,0
143.80437,144.45654,58,58,0
144.45654,144.78262,58,52,0
143.47829,144.78262,51,80,0
145.10872,145.7609,58,47,0
145.10872,145.7609,61,47,0
145.7609,146.08698,58,41,0
145.7609,146.08698,61,41,0
144.78262,146.08698,52,70,0
146.41306,147.06523,58,40,0
146.41306,147.06523,60,40,0
147.06523,147.39133,58,40,0
147.06523,147.39133,61,40,0
146.08698,147.39133,55,60,0
147.7174,148.0435,58,40,0
147.7174,148.0435,62,40,0
148.0435,148.36958,61,40,0
148.0435,148.36958,63,40,0
148.36958,148.69568,62,40,0
148.36958,148.69568,65,40,0
147.39133,148.69568,53,60,0
149.02176,149.34784,60,40,0
149.02176,149.34784,63,40,0
149.34784,149.67393,58,40,0
149.34784,149.67393,62,40,0
149.67393,150.00002,60,40,0
148.69568,150.00002,53,60,0
149.67393,150.00002,53,40,0
150.00002,150.65219,46,60,0
150.00002,150.65219,50,40,0
150.00002,150.65219,58,40,0
150.97829,151.30437,50,40,0
151.63045,152.28262,60,40,0
152.28262,152.60872,57,40,0
151.30437,152.60872,50,60,0
152.60872,152.9348,43,60,0
152.9348,153.2609,55,40,0
152.9348,153.2609,62,40,0
153.2609,153.58698,56,40,0
153.2609,153.58698,60,40,0
153.58698,153.91307,59,40,0
153.58698,153.91307,55,40,0
153.91307,154.23915,43,60,0
154.23915,154.89133,65,41,0
154.89133,155.2174,62,43,0
154.23915,155.2174,55,41,0
155.2174,156.19568,48,65,0
156.19568,156.52176,55,69,0
155.5435,156.52176,60,46,0
156.52176,157.17393,57,70,0
156.84785,157.50002,60,51,0
157.50002,157.82611,60,54,0
157.17393,157.82611,53,73,0
157.82611,158.15219,46,75,0
158.15219,158.47829,58,57,0
158.15219,158.47829,62,57,0
158.47829,158.80437,60,58,0
158.47829,158.80437,57,58,0
158.80437,159.13046,55,59,0
158.80437,159.13046,58,59,0
159.45654,159.78262,57,60,0
159.13046,159.78262,48,80,0
160.10872,160.4348,58,60,0
159.78262,160.4348,48,80,0
160.4348,161.73915,53,80,0
160.4348,161.73915,57,60,0
162.06525,162.7174,53,60,0
162.7174,163.0435,53,60,0
161.73915,163.0435,46,80,0
163.36958,164.02176,58,60,0
164.02176,164.34785,58,60,0
163.0435,164.34785,50,80,0
164.67393,165.32611,58,58,0
165.32611,165.65219,58,52,0
164.34785,165.65219,51,80,0
165.97829,166.63046,58,47,0
165.97829,166.63046,61,47,0
166.63046,166.95654,58,41,0
166.63046,166.95654,61,41,0
165.65219,166.95654,52,70,0
167.28264,167.9348,58,40,0
167.28264,167.9348,60,40,0
167.9348,168.2609,58,40,0
167.9348,168.2609,61,40,0
166.95654,168.2609,55,60,0
168.58698,168.91307,58,40,0
168.58698,168.91307,62,40,0
168.91307,169.23915,61,40,0
168.91307,169.23915,63,40,0
169.23915,169.56525,62,40,0
169.23915,169.56525,65,40,0
168.2609,169.56525,53,60,0
169.89133,170.2174,60,40,0
169.89133,170.2174,63,40,0
170.2174,170.5435,58,40,0
170.2174,170.5435,62,40,0
170.5435,170.86958,60,40,0
169.56525,170.86958,53,60,0
170.5435,170.86958,53,40,0
170.86958,171.52176,46,60,0
170.86958,171.52176,50,40,0
170.86958,171.52176,58,40,0
171.84785,172.17393,58,40,0
172.17393,172.50328,62,40,0
172.50328,172.83931,60,40,0
172.50328,172.83931,63,40,0
172.83931,173.18242,58,40,0
172.83931,173.18242,62,40,0
173.18242,173.53291,60,40,0
172.17393,173.53291,53,60,0
173.18242,173.53291,53,40,0
173.53291,174.25728,46,60,0
173.53291,174.25728,50,40,0
173.53291,174.25728,58,40,0
174.63184,175.01524,50,40,0
174.63184,175.01524,53,40,0
175.40778,175.81006,48,40,0
175.40778,175.81006,51,40,0
175.81006,176.2224,50,40,0
175.81006,176.2224,46,40,0
176.2224,176.6455,48,40,0
175.01524,176.6455,41,60,0
176.2224,176.6455,41,40,0
176.6455,178.77618,34,50,0
176.6455,178.77618,41,50,0
176.6455,178.77618,46,50,0
178.77618,178.93922,46,70,0
179.10228,179.75446,53,60,0
179.10228,179.75446,58,60,0
179.10228,179.75446,62,60,0
179.75446,180.08054,53,60,0
179.75446,180.08054,58,60,0
179.75446,180.08054,62,60,0
180.08054,180.24358,50,70,0
180.40662,181.05879,53,60,0
180.40662,181.05879,58,60,0
180.40662,181.05879,62,60,0
181.05879,181.38489,53,60,0
181.05879,181.38489,58,60,0
181.05879,181.38489,62,60,0
181.38489,181.54793,48,70,0
181.71097,182.36314,53,60,0
181.71097,182.36314,57,60,0
181.71097,182.36314,63,60,0
182.36314,182.68922,53,60,0
182.36314,182.68922,57,60,0
182.36314,182.68922,63,60,0
182.68922,182.85228,41,70,0
183.01532,183.6675,53,60,0
183.01532,183.6675,57,60,0
183.01532,183.6675,60,60,0
183.6675,183.99358,53,60,0
183.6675,183.99358,57,60,0
183.6675,183.99358,60,60,0
183.99358,184.15662,46,70,0
184.31967,184.97185,53,60,0
184.31967,184.97185,58,60,0
184.31967,184.97185,62,60,0
184.97185,185.29793,53,60,0
184.97185,185.29793,58,60,0
184.97185,185.29793,62,60,0
185.29793,185.46097,39,70,0
185.62401,186.27618,51,60,0
185.62401,186.27618,60,60,0
185.62401,186.27618,58,60,0
185.62401,186.27618,55,60,0
186.27618,186.60228,51,60,0
186.27618,186.60228,60,60,0
186.27618,186.60228,58,60,0
186.27618,186.60228,55,60,0
186.60228,186.76532,40,70,0
186.92836,187.25446,55,60,0
187.25446,187.58054,57,60,0
186.92836,187.58054,52,60,0
187.58054,187.90662,58,60,0
187.58054,187.90662,52,60,0
186.92836,187.90662,60,60,0
187.90662,188.06967,41,70,0
188.23271,188.55879,57,60,0
188.23271,188.55879,60,60,0
188.55879,188.88489,58,60,0
188.55879,188.88489,62,60,0
188.88489,189.21097,60,60,0
188.88489,189.21097,63,60,0
188.23271,189.21097,53,60,0
189.21097,189.37401,46,70,0
189.53706,190.18924,53,60,0
189.53706,190.18924,58,60,0
189.53706,190.18924,62,60,0
190.18924,190.51532,53,60,0
190.18924,190.51532,58,60,0
190.18924,190.51532,62,60,0
190.51532,190.67836,50,70,0
190.8414,191.49358,53,60,0
190.8414,191.49358,58,60,0
190.8414,191.49358,65,60,0
191.49358,191.81967,53,60,0
191.49358,191.81967,58,60,0
191.49358,191.81967,65,60,0
191.81967,191.98271,48,70,0
192.14575,192.79793,53,60,0
192.14575,192.79793,57,60,0
192.14575,192.79793,63,60,0
192.79793,193.12401,53,60,0
192.79793,193.12401,57,60,0
192.79793,193.12401,63,60,0
193.12401,193.28706,41,70,0
193.4501,194.10228,53,60,0
193.4501,194.10228,57,60,0
193.4501,194.10228,60,60,0
194.10228,194.42836,53,60,0
194.10228,194.42836,57,60,0
194.10228,194.42836,60,60,0
194.42836,194.5914,46,70,0
194.75446,195.40663,53,62,0
194.75446,195.40663,58,62,0
194.75446,195.40663,62,62,0
195.40663,195.73271,53,68,0
195.40663,195.73271,58,68,0
195.40663,195.73271,62,68,0
195.73271,195.89575,40,80,0
196.05879,196.71097,52,73,0
196.05879,196.71097,61,73,0
196.05879,196.71097,58,73,0
196.05879,196.71097,55,73,0
196.71097,197.03706,52,79,0
196.71097,197.03706,61,79,0
196.71097,197.03706,58,79,0
196.71097,197.03706,55,79,0
197.03706,197.36314,58,80,0
197.36314,197.52618,57,78,0
197.52618,197.68924,55,76,0
197.03706,198.01532,60,80,0
198.01532,198.3414,60,72,0
197.03706,198.3414,53,90,0
197.68924,198.3414,57,75,0
198.01532,198.3414,63,72,0
198.3414,199.64575,58,79,0
198.3414,199.64575,62,79,0
199.64575,199.80879,46,70,0
199.97185,200.62402,53,60,0
199.97185,200.62402,58,60,0
199.97185,200.62402,62,60,0
200.62402,200.9501,53,60,0
200.62402,200.9501,58,60,0
200.62402,200.9501,62,60,0
200.9501,201.11314,50,70,0
201.27618,201.92836,53,60,0
201.27618,201.92836,58,60,0
201.27618,201.92836,62,60,0
201.92836,202.25446,53,60,0
201.92836,202.25446,58,60,0
201.92836,202.25446,62,60,0
202.25446,202.4175,48,70,0
202.58054,203.23271,53,60,0
202.58054,203.23271,57,60,0
202.58054,203.23271,63,60,0
203.23271,203.55879,53,60,0
203.23271,203.55879,57,60,0
203.23271,203.55879,63,60,0
203.55879,203.72185,41,70,0
203.88489,204.53706,53,60,0
203.88489,204.53706,57,60,0
203.88489,204.53706,60,60,0
204.53706,204.86314,53,60,0
204.53706,204.86314,57,60,0
204.53706,204.86314,60,60,0
204.86314,205.02618,46,70,0
205.18924,205.84142,53,60,0
205.18924,205.84142,58,60,0
205.18924,205.84142,62,60,0
205.84142,206.1675,53,60,0
205.84142,206.1675,58,60,0
205.84142,206.1675,62,60,0
206.1675,206.33054,39,70,0
206.49358,207.14575,51,60,0
206.49358,207.14575,60,60,0
206.49358,207.14575,58,60,0
206.49358,207.14575,55,60,0
207.14575,207.47185,51,60,0
207.14575,207.47185,60,60,0
207.14575,207.47185,58,60,0
207.14575,207.47185,55,60,0
207.47185,207.63489,40,70,0
207.79793,208.12402,55,60,0
208.12402,208.4501,57,60,0
207.79793,208.4501,52,60,0
208.4501,208.7762,58,60,0
208.4501,208.7762,52,60,0
207.79793,208.7762,60,60,0
208.7762,208.93924,41,70,0
209.10228,209.42836,57,60,0
209.10228,209.42836,60,60,0
209.42836,209.75446,58,60,0
209.42836,209.75446,62,60,0
209.75446,210.08054,60,60,0
209.75446,210.08054,63,60,0
209.10228,210.08054,53,60,0
210.08054,210.24358,46,70,0
210.40663,211.0588,53,60,0
210.40663,211.0588,58,60,0
210.40663,211.0588,62,60,0
211.0588,211.38489,53,60,0
211.0588,211.38489,58,60,0
211.0588,211.38489,62,60,0
211.38489,211.54793,50,70,0
211.71097,212.36314,53,60,0
211.71097,212.36314,58,60,0
211.71097,212.36314,65,60,0
212.36314,212.68924,53,60,0
212.36314,212.68924,58,60,0
212.36314,212.68924,65,60,0
212.68924,212.85228,48,70,0
213.01532,213.6675,53,60,0
213.01532,213.6675,57,60,0
213.01532,213.6675,63,60,0
213.6675,213.99359,53,60,0
213.6675,213.99359,57,60,0
213.6675,213.99359,63,60,0
213.99359,214.15663,41,70,0
214.31967,214.97185,53,60,0
214.31967,214.97185,57,60,0
214.31967,214.97185,60,60,0
214.97185,215.29793,53,60,0
214.97185,215.29793,57,60,0
214.97185,215.29793,60,60,0
215.29793,215.46097,46,70,0
215.62402,216.2762,53,62,0
215.62402,216.2762,58,62,0
215.62402,216.2762,62,62,0
216.2762,216.60228,53,68,0
216.2762,216.60228,58,68,0
216.2762,216.60228,62,68,0
216.60228,216.76532,40,80,0
216.92836,217.58054,52,73,0
216.92836,217.58054,61,73,0
216.92836,217.58054,58,73,0
216.92836,217.58054,55,73,0
217.58054,217.90663,52,79,0
217.58054,217.90663,61,79,0
217.58054,217.90663,58,79,0
217.58054,217.90663,55,79,0
217.90663,218.23271,58,80,0
218.23271,218.39575,57,78,0
218.39575,218.5588,55,76,0
217.90663,218.88489,60,80,0
218.88489,219.21098,60,72,0
217.90663,219.21098,53,90,0
218.5588,219.21098,57,75,0
218.88489,219.21098,63,72,0
219.21098,220.51532,58,79,0
219.21098,220.51532,62,79,0
220.51532,220.84142,50,110,0
220.84142,221.00446,54,110,0
221.00446,221.1675,57,110,0
221.1675,221.33054,61,110,0
221.33054,221.49359,62,110,0
221.49359,221.65663,50,110,0
221.65663,221.81967,62,110,0
221.81967,221.98271,46,110,0
221.98271,222.14575,58,110,0
222.14575,222.3088,45,110,0
222.3088,222.47185,57,110,0
222.47185,222.63489,43,110,0
222.63489,222.79793,55,110,0
222.79793,222.96098,42,110,0
222.96098,223.12402,54,110,0
223.12402,223.28706,43,110,0
223.28706,223.4501,55,110,0
223.4501,223.61314,45,110,0
223.61314,223.7762,57,110,0
223.7762,223.93924,46,110,0
223.93924,224.10228,58,110,0
224.10228,224.26532,47,110,0
224.26532,224.42838,59,110,0
224.42838,224.75446,48,110,0
224.75446,224.9175,52,110,0
224.9175,225.08054,55,110,0
225.08054,225.24359,59,110,0
225.24359,225.40663,60,110,0
225.40663,225.56967,48,110,0
225.56967,225.73271,60,110,0
225.73271,226.0588,41,110,0
226.0588,226.22185,45,110,0
226.22185,226.38489,48,110,0
226.38489,226.54793,52,110,0
226.54793,226.71098,53,110,0
226.71098,226.87402,57,110,0
226.87402,227.03706,60,110,0
227.03706,227.36314,46,100,0
227.36314,228.01532,55,100,0
227.36314,228.01532,62,100,0
227.36314,228.01532,65,100,0
228.01532,228.17838,55,100,0
228.01532,228.17838,62,100,0
228.01532,228.17838,65,100,0
228.34142,228.50446,48,100,0
228.6675,229.31967,55,95,0
228.6675,229.31967,64,95,0
228.6675,229.31967,60,95,0
228.6675,229.31967,58,95,0
229.31967,229.64577,60,84,0
229.31967,229.64577,64,84,0
229.64577,229.8088,53,89,0
229.8088,229.97185,63,86,0
229.97185,230.05338,60,83,0
230.13489,230.21642,57,81,0
230.29793,230.37946,53,78,0
230.46098,230.5425,51,75,0
230.62402,230.70554,48,72,0
230.78706,230.86859,53,70,0
230.9501,231.11314,46,70,0
231.2762,231.92838,53,60,0
231.2762,231.92838,58,60,0
231.2762,231.92838,62,60,0
231.92838,232.25446,53,60,0
231.92838,232.25446,58,60,0
231.92838,232.25446,62,60,0
232.25446,232.4175,50,70,0
232.58054,233.23271,56,60,0
232.58054,233.23271,58,60,0
232.58054,233.23271,65,60,0
233.23271,233.5588,56,60,0
233.23271,233.5588,58,60,0
233.23271,233.5588,65,60,0
233.5588,233.72185,51,70,0
233.88489,234.53706,55,60,0
233.88489,234.53706,58,60,0
233.88489,234.53706,63,60,0
234.53706,234.86316,55,60,0
234.53706,234.86316,58,60,0
234.53706,234.86316,63,60,0
234.86316,235.0262,52,70,0
235.18924,235.84142,58,60,0
235.18924,235.84142,61,60,0
235.18924,235.84142,67,60,0
235.84142,236.1675,58,60,0
235.84142,236.1675,61,60,0
235.84142,236.1675,67,60,0
236.1675,236.33054,55,50,0
236.49359,237.14577,58,40,0
236.49359,237.14577,60,40,0
236.49359,237.14577,64,40,0
237.14577,237.47185,58,40,0
237.14577,237.47185,60,40,0
237.14577,237.47185,64,40,0
237.47185,237.63489,53,50,0
237.79793,238.4501,58,40,0
237.79793,238.4501,62,40,0
237.79793,238.4501,65,40,0
238.4501,238.7762,58,40,0
238.4501,238.7762,62,40,0
238.4501,238.7762,65,40,0
238.7762,238.93924,53,50,0
239.10228,239.75446,60,40,0
239.10228,239.75446,63,40,0
239.10228,239.75446,65,40,0
239.75446,240.08055,60,40,0
239.75446,240.08055,63,40,0
239.75446,240.08055,65,40,0
240.08055,240.24359,46,50,0
240.40663,241.38489,58,40,0
240.40663,241.38489,62,40,0
240.40663,241.38489,65,40,0
241.38489,241.71098,50,110,0
241.71098,241.87402,54,110,0
241.87402,242.03706,57,110,0
242.03706,242.2001,61,110,0
242.2001,242.36316,62,110,0
242.36316,242.5262,50,110,0
242.5262,242.68924,62,110,0
242.68924,242.85228,46,110,0
242.85228,243.01532,58,110,0
243.01532,243.17838,45,110,0
243.17838,243.34142,57,110,0
243.34142,243.50446,43,110,0
243.50446,243.6675,55,110,0
243.6675,243.83055,42,110,0
243.83055,243.99359,54,110,0
243.99359,244.15663,43,110,0
244.15663,244.31967,55,110,0
244.31967,244.48271,45,110,0
244.48271,244.64577,57,110,0
244.64577,244.8088,46,110,0
244.8088,244.97185,58,110,0
244.97185,245.13489,47,110,0
245.13489,245.29794,59,110,0
245.29794,245.62402,48,110,0
245.62402,245.78706,52,110,0
245.78706,245.9501,55,110,0
245.9501,246.11316,59,110,0
246.11316,246.2762,60,110,0
246.2762,246.43924,48,110,0
246.43924,246.60228,60,110,0
246.60228,246.92838,41,110,0
246.92838,247.09142,45,110,0
247.09142,247.25446,48,110,0
247.25446,247.4175,52,110,0
247.4175,247.58055,53,110,0
247.58055,247.74359,57,110,0
247.74359,247.90663,60,110,0
247.90663,248.23271,46,100,0
248.23271,248.88489,55,100,0
248.23271,248.88489,62,100,0
248.23271,248.88489,65,100,0
248.88489,249.04794,55,100,0
248.88489,249.04794,62,100,0
248.88489,249.04794,65,100,0
249.21098,249.37402,48,100,0
249.53706,250.18924,55,95,0
249.53706,250.18924,64,95,0
249.53706,250.18924,60,95,0
249.53706,250.18924,58,95,0
250.18924,250.51534,60,84,0
250.18924,250.51534,64,84,0
250.51534,250.67838,53,89,0
250.67838,250.84142,63,86,0
250.84142,250.92294,60,83,0
251.00446,251.08598,57,81,0
251.1675,251.24902,53,78,0
251.33055,251.41206,51,75,0
251.49359,251.5751,48,72,0
251.65663,251.73816,53,70,0
251.81967,251.98271,46,70,0
252.14577,252.79794,53,60,0
252.14577,252.79794,58,60,0
252.14577,252.79794,62,60,0
252.79794,253.12402,53,60,0
252.79794,253.12402,58,60,0
252.79794,253.12402,62,60,0
253.12402,253.28706,50,70,0
253.4501,254.10228,56,60,0
253.4501,254.10228,58,60,0
253.4501,254.10228,65,60,0
254.10228,254.42838,56,60,0
254.10228,254.42838,58,60,0
254.10228,254.42838,65,60,0
254.42838,254.59142,51,70,0
254.75446,255.40663,55,60,0
254.75446,255.40663,58,60,0
254.75446,255.40663,63,60,0
255.40663,255.73273,55,60,0
255.40663,255.73273,58,60,0
255.40663,255.73273,63,60,0
255.73273,255.89577,52,70,0
256.0588,256.71097,58,60,0
256.0588,256.71097,61,60,0
256.0588,256.71097,67,60,0
256.71097,257.03708,58,60,0
256.71097,257.03708,61,60,0
256.71097,257.03708,67,60,0
257.03708,257.2001,55,50,0
257.36316,258.01532,58,40,0
257.36316,258.01532,60,40,0
257.36316,258.01532,64,40,0
258.01532,258.34143,58,40,0
258.01532,258.34143,60,40,0
258.01532,258.34143,64,40,0
258.34143,258.50446,53,50,0
258.6675,259.31967,58,40,0
258.6675,259.31967,62,40,0
258.6675,259.31967,65,40,0
259.31967,259.64575,58,40,0
259.31967,259.64575,62,40,0
259.31967,259.64575,65,40,0
259.64575,259.8088,53,50,0
259.97186,260.62402,60,40,0
259.97186,260.62402,63,40,0
259.97186,260.62402,65,40,0
260.62402,260.9501,60,40,0
260.62402,260.9501,63,40,0
260.62402,260.9501,65,40,0
260.9501,261.11316,53,50,0
261.27618,261.92838,58,40,0
261.27618,261.92838,62,40,0
261.27618,261.92838,65,40,0
261.92838,262.25446,58,40,0
261.92838,262.25446,62,40,0
261.92838,262.25446,65,40,0
262.25446,262.41833,41,50,0
262.5838,263.26294,53,40,0
262.5838,263.26294,60,40,0
262.5838,263.26294,63,40,0
263.26294,263.61343,53,40,0
263.26294,263.61343,57,40,0
263.26294,263.61343,63,40,0
263.61343,263.79147,41,50,0
263.9716,264.71237,53,40,0
263.9716,264.71237,58,40,0
263.9716,264.71237,62,40,0
264.71237,265.09576,53,40,0
264.71237,265.09576,58,40,0
264.71237,265.09576,62,40,0
265.09576,265.2908,41,50,0
265.4883,266.30292,51,40,0
265.4883,266.30292,53,40,0
265.4883,266.30292,60,40,0
266.30292,266.726,51,40,0
266.30292,266.726,53,40,0
266.30292,266.726,57,40,0
267.60672,268.54422,34,50,0
267.38196,268.54422,46,50,0
269.07993,269.2973,46,70,0
269.07993,269.2973,34,70,0
269.2973,269.5147,46,80,0
269.2973,269.5147,49,80,0
269.2973,269.5147,53,80,0
269.5147,269.7321,46,60,0
269.5147,269.7321,49,60,0
269.5147,269.7321,52,60,0
269.7321,269.9495,46,60,0
269.7321,269.9495,49,60,0
269.7321,269.9495,53,60,0
269.9495,270.16687,46,60,0
269.9495,270.16687,49,60,0
269.9495,270.16687,54,60,0
270.16687,270.38428,46,60,0
270.16687,270.38428,49,60,0
270.16687,270.38428,53,60,0
270.38428,270.60165,49,70,0
270.38428,270.60165,37,70,0
270.60165,270.81906,49,80,0
270.60165,270.81906,53,80,0
270.81906,271.03644,49,60,0
270.81906,271.03644,52,60,0
271.03644,271.25385,49,60,0
271.03644,271.25385,53,60,0
271.25385,271.47122,49,60,0
271.25385,271.47122,54,60,0
271.47122,271.68863,49,60,0
271.47122,271.68863,53,60,0
271.68863,271.906,36,70,0
271.906,272.1234,48,87,0
271.906,272.1234,51,87,0
271.906,272.1234,53,87,0
272.1234,272.3408,48,75,0
272.1234,272.3408,52,75,0
272.1234,272.3408,51,75,0
272.3408,272.5582,48,83,0
272.3408,272.5582,51,83,0
272.3408,272.5582,53,83,0
272.5582,272.77557,48,91,0
272.5582,272.77557,51,91,0
272.77557,272.99298,48,99,0
272.77557,272.99298,51,99,0
272.77557,272.99298,54,99,0
272.99298,273.21036,33,110,0
273.21036,273.42776,45,80,0
273.21036,273.42776,48,80,0
273.21036,273.42776,53,80,0
273.42776,273.64514,45,60,0
273.42776,273.64514,48,60,0
273.42776,273.64514,52,60,0
273.64514,273.86255,45,60,0
273.64514,273.86255,48,60,0
273.64514,273.86255,53,60,0
273.86255,274.07993,45,60,0
273.86255,274.07993,48,60,0
273.86255,274.07993,54,60,0
274.07993,274.29733,45,60,0
274.07993,274.29733,48,60,0
274.07993,274.29733,53,60,0
274.29733,274.5147,34,70,0
274.5147,274.7321,46,87,0
274.5147,274.7321,49,87,0
274.5147,274.7321,53,87,0
274.7321,274.9495,46,75,0
274.7321,274.9495,49,75,0
274.7321,274.9495,52,75,0
274.9495,275.16687,46,83,0
274.9495,275.16687,49,83,0
274.9495,275.16687,53,83,0
275.16687,275.38428,46,91,0
275.16687,275.38428,49,91,0
275.16687,275.38428,54,91,0
275.38428,275.60165,46,99,0
275.38428,275.60165,49,99,0
275.38428,275.60165,53,99,0
275.60165,275.81906,30,110,0
275.81906,276.03644,42,113,0
275.81906,276.03644,46,113,0
275.81906,276.03644,51,113,0
276.03644,276.25385,42,85,0
276.03644,276.25385,51,85,0
276.03644,276.25385,45,85,0
276.25385,276.47122,42,77,0
276.25385,276.47122,46,77,0
276.25385,276.47122,51,77,0
276.47122,276.68863,42,69,0
276.47122,276.68863,46,69,0
276.47122,276.68863,53,69,0
276.68863,276.906,42,61,0
276.68863,276.906,46,61,0
276.68863,276.906,51,61,0
276.906,277.1234,41,70,0
276.906,277.1234,29,70,0
277.1234,277.3408,41,80,0
277.1234,277.3408,46,80,0
277.1234,277.3408,49,80,0
277.3408,277.5582,41,60,0
277.3408,277.5582,46,60,0
277.3408,277.5582,48,60,0
277.5582,277.77557,41,60,0
277.5582,277.77557,46,60,0
277.5582,277.77557,49,60,0
277.77557,277.99298,41,60,0
277.77557,277.99298,46,60,0
277.77557,277.99298,51,60,0
277.99298,278.21036,41,60,0
277.99298,278.21036,46,60,0
277.99298,278.21036,52,60,0
278.21036,278.42776,41,70,0
278.21036,278.42776,29,70,0
278.42776,278.64514,41,80,0
278.42776,278.64514,45,80,0
278.42776,278.64514,53,80,0
278.64514,278.86255,41,60,0
278.64514,278.86255,45,60,0
278.64514,278.86255,52,60,0
278.86255,279.07993,41,60,0
278.86255,279.07993,45,60,0
278.86255,279.07993,53,60,0
279.07993,279.29733,41,60,0
279.07993,279.29733,45,60,0
279.07993,279.29733,54,60,0
279.29733,279.5147,41,60,0
279.29733,279.5147,45,60,0
279.29733,279.5147,53,60,0
279.5147,279.7321,46,70,0
279.5147,279.7321,34,70,0
279.7321,279.9495,46,80,0
279.7321,279.9495,49,80,0
279.7321,279.9495,53,80,0
279.9495,280.16687,46,60,0
279.9495,280.16687,49,60,0
279.9495,280.16687,52,60,0
280.16687,280.38428,46,60,0
280.16687,280.38428,49,60,0
280.16687,280.38428,53,60,0
280.38428,280.60165,46,60,0
280.38428,280.60165,49,60,0
280.38428,280.60165,54,60,0
280.60165,280.81906,46,60,0
280.60165,280.81906,49,60,0
280.60165,280.81906,53,60,0
280.81906,281.03644,49,70,0
280.81906,281.03644,37,70,0
281.03644,281.25385,49,80,0
281.03644,281.25385,53,80,0
281.25385,281.47122,49,60,0
281.25385,281.47122,52,60,0
281.47122,281.68863,49,60,0
281.47122,281.68863,53,60,0
281.68863,281.906,49,60,0
281.68863,281.906,54,60,0
281.906,282.1234,49,60,0
281.906,282.1234,53,60,0
282.1234,282.3408,36,70,0
282.3408,282.5582,48,87,0
282.3408,282.5582,51,87,0
282.3408,282.5582,53,87,0
282.5582,282.77557,48,75,0
282.5582,282.77557,52,75,0
282.5582,282.77557,51,75,0
282.77557,282.99298,48,83,0
282.77557,282.99298,51,83,0
282.77557,282.99298,53,83,0
282.99298,283.21036,48,91,0
282.99298,283.21036,51,91,0
283.21036,283.42776,48,99,0
283.21036,283.42776,51,99,0
283.21036,283.42776,54,99,0
283.42776,283.64514,33,110,0
283.64514,283.86255,45,80,0
283.64514,283.86255,48,80,0
283.64514,283.86255,53,80,0
283.86255,284.07993,45,60,0
283.86255,284.07993,48,60,0
283.86255,284.07993,52,60,0
284.07993,284.29733,45,60,0
284.07993,284.29733,48,60,0
284.07993,284.29733,53,60,0
284.29733,284.5147,45,60,0
284.29733,284.5147,48,60,0
284.29733,284.5147,54,60,0
284.5147,284.73212,45,60,0
284.5147,284.73212,48,60,0
284.5147,284.73212,53,60,0
284.73212,284.9495,34,70,0
284.9495,285.16687,46,87,0
284.9495,285.16687,49,87,0
284.9495,285.16687,53,87,0
285.16687,285.38428,46,75,0
285.16687,285.38428,49,75,0
285.16687,285.38428,52,75,0
285.38428,285.60165,46,83,0
285.38428,285.60165,49,83,0
285.38428,285.60165,53,83,0
285.60165,285.81906,46,91,0
285.60165,285.81906,49,91,0
285.60165,285.81906,54,91,0
285.81906,286.03644,46,99,0
285.81906,286.03644,49,99,0
285.81906,286.03644,53,99,0
286.03644,286.25385,40,110,0
286.25385,286.47122,46,113,0
286.25385,286.47122,48,113,0
286.25385,286.47122,55,113,0
286.47122,286.68863,46,85,0
286.47122,286.68863,49,85,0
286.47122,286.68863,55,85,0
286.68863,286.906,46,77,0
286.68863,286.906,55,77,0
286.906,287.1234,46,69,0
286.906,287.1234,55,69,0
286.906,287.1234,48,69,0
287.1234,287.3408,46,61,0
287.1234,287.3408,55,61,0
287.1234,287.3408,49,61,0
287.3408,287.5582,41,70,0
287.5582,287.77557,46,80,0
287.5582,287.77557,49,80,0
287.77557,287.99298,46,60,0
287.77557,287.99298,49,60,0
287.99298,288.21036,41,70,0
288.21036,288.42776,45,80,0
288.21036,288.42776,48,80,0
288.42776,288.64514,45,60,0
288.42776,288.64514,48,60,0
288.64514,288.86255,34,70,0
288.86255,289.07993,46,80,0
288.86255,289.07993,49,80,0
288.86255,289.07993,53,80,0
289.07993,289.29733,46,60,0
289.07993,289.29733,48,60,0
289.07993,289.29733,51,60,0
289.29733,289.9495,46,70,0
289.29733,289.9495,49,70,0
289.9495,290.16687,46,70,0
290.16687,290.38428,58,80,0
290.16687,290.38428,61,80,0
290.16687,290.38428,65,80,0
290.38428,290.60165,58,60,0
290.38428,290.60165,61,60,0
290.38428,290.60165,64,60,0
290.60165,290.81906,58,60,0
290.60165,290.81906,61,60,0
290.60165,290.81906,65,60,0
290.81906,291.03644,58,60,0
290.81906,291.03644,61,60,0
290.81906,291.03644,66,60,0
291.03644,291.25385,58,60,0
291.03644,291.25385,61,60,0
291.03644,291.25385,65,60,0
291.25385,291.47122,49,70,0
291.47122,291.68863,61,80,0
291.47122,291.68863,65,80,0
291.68863,291.906,61,60,0
291.68863,291.906,64,60,0
291.906,292.1234,61,60,0
291.906,292.1234,65,60,0
292.1234,292.3408,61,60,0
292.1234,292.3408,66,60,0
292.3408,292.5582,61,60,0
292.3408,292.5582,65,60,0
292.5582,292.77557,48,70,0
292.77557,292.99298,60,87,0
292.77557,292.99298,63,87,0
292.99298,293.21036,60,75,0
292.99298,293.21036,63,75,0
293.21036,293.42776,60,83,0
293.21036,293.42776,63,83,0
293.42776,293.64514,60,91,0
293.42776,293.64514,63,91,0
293.64514,293.86255,60,99,0
293.64514,293.86255,63,99,0
293.86255,294.07993,45,110,0
294.07993,294.29733,57,80,0
294.07993,294.29733,60,80,0
294.07993,294.29733,65,80,0
294.29733,294.5147,57,60,0
294.29733,294.5147,60,60,0
294.29733,294.5147,64,60,0
294.5147,294.73212,57,60,0
294.5147,294.73212,60,60,0
294.5147,294.73212,65,60,0
294.73212,294.9495,57,60,0
294.73212,294.9495,60,60,0
294.73212,294.9495,66,60,0
294.9495,295.1669,57,60,0
294.9495,295.1669,60,60,0
294.9495,295.1669,65,60,0
295.1669,295.38428,46,70,0
295.38428,295.60165,58,87,0
295.38428,295.60165,61,87,0
295.38428,295.60165,65,87,0
295.60165,295.81906,58,75,0
295.60165,295.81906,61,75,0
295.60165,295.81906,64,75,0
295.81906,296.03644,58,83,0
295.81906,296.03644,61,83,0
295.81906,296.03644,65,83,0
296.03644,296.25385,58,91,0
296.03644,296.25385,61,91,0
296.03644,296.25385,66,91,0
296.25385,296.47122,58,99,0
296.25385,296.47122,61,99,0
296.25385,296.47122,65,99,0
296.47122,296.68863,42,110,0
296.68863,296.906,54,113,0
296.68863,296.906,58,113,0
296.68863,296.906,63,113,0
296.906,297.1234,54,85,0
296.906,297.1234,63,85,0
296.906,297.1234,57,85,0
297.1234,297.3408,54,77,0
297.1234,297.3408,58,77,0
297.1234,297.3408,63,77,0
297.3408,297.5582,54,69,0
297.3408,297.5582,58,69,0
297.3408,297.5582,65,69,0
297.5582,297.77557,54,61,0
297.5582,297.77557,58,61,0
297.5582,297.77557,63,61,0
297.77557,297.99298,41,70,0
297.99298,298.21036,53,80,0
297.99298,298.21036,58,80,0
297.99298,298.21036,61,80,0
298.21036,298.42776,53,60,0
298.21036,298.42776,58,60,0
298.21036,298.42776,60,60,0
298.42776,298.64514,53,60,0
298.42776,298.64514,58,60,0
298.42776,298.64514,61,60,0
298.64514,298.86255,53,60,0
298.64514,298.86255,58,60,0
298.64514,298.86255,63,60,0
298.86255,299.07993,53,60,0
298.86255,299.07993,58,60,0
298.86255,299.07993,64,60,0
299.07993,299.29733,41,70,0
299.29733,299.5147,53,80,0
299.29733,299.5147,57,80,0
299.29733,299.5147,65,80,0
299.5147,299.73212,53,60,0
299.5147,299.73212,57,60,0
299.5147,299.73212,64,60,0
299.73212,299.9495,53,60,0
299.73212,299.9495,57,60,0
299.73212,299.9495,65,60,0
299.9495,300.1669,53,60,0
299.9495,300.1669,57,60,0
299.9495,300.1669,66,60,0
300.1669,300.38428,53,60,0
300.1669,300.38428,57,60,0
300.1669,300.38428,65,60,0
300.38428,300.60168,46,70,0
300.60168,300.81906,58,80,0
300.60168,300.81906,61,80,0
300.60168,300.81906,65,80,0
300.81906,301.03644,58,60,0
300.81906,301.03644,61,60,0
300.81906,301.03644,64,60,0
301.03644,301.25385,58,60,0
301.03644,301.25385,61,60,0
301.03644,301.25385,65,60,0
301.25385,301.47122,58,60,0
301.25385,301.47122,61,60,0
301.25385,301.47122,66,60,0
301.47122,301.68863,58,60,0
301.47122,301.68863,61,60,0
301.47122,301.68863,65,60,0
301.68863,301.906,49,70,0
301.906,302.1234,61,80,0
301.906,302.1234,65,80,0
302.1234,302.3408,61,60,0
302.1234,302.3408,64,60,0
302.3408,302.5582,61,60,0
302.3408,302.5582,65,60,0
302.5582,302.77557,61,60,0
302.5582,302.77557,66,60,0
302.77557,302.99298,61,60,0
302.77557,302.99298,65,60,0
302.99298,303.21036,48,70,0
303.21036,303.42776,60,87,0
303.21036,303.42776,63,87,0
303.42776,303.64514,60,75,0
303.42776,303.64514,63,75,0
303.64514,303.86255,60,83,0
303.64514,303.86255,63,83,0
303.86255,304.07993,60,91,0
303.86255,304.07993,63,91,0
304.07993,304.29733,60,99,0
304.07993,304.29733,63,99,0
304.29733,304.5147,45,110,0
304.5147,304.73212,57,80,0
304.5147,304.73212,60,80,0
304.5147,304.73212,65,80,0
304.73212,304.9495,57,60,0
304.73212,304.9495,60,60,0
304.73212,304.9495,64,60,0
304.9495,305.1669,57,60,0
304.9495,305.1669,60,60,0
304.9495,305.1669,65,60,0
305.1669,305.38428,57,60,0
305.1669,305.38428,60,60,0
305.1669,305.38428,66,60,0
305.38428,305.60168,57,60,0
305.38428,305.60168,60,60,0
305.38428,305.60168,65,60,0
305.60168,305.81906,46,70,0
305.81906,306.03644,58,87,0
305.81906,306.03644,61,87,0
305.81906,306.03644,65,87,0
306.03644,306.25385,58,75,0
306.03644,306.25385,61,75,0
306.03644,306.25385,64,75,0
306.25385,306.47122,58,83,0
306.25385,306.47122,61,83,0
306.25385,306.47122,65,83,0
306.47122,306.68863,58,91,0
306.47122,306.68863,61,91,0
306.47122,306.68863,66,91,0
306.68863,306.906,58,99,0
306.68863,306.906,61,99,0
306.68863,306.906,65,99,0
306.906,307.1234,52,110,0
307.1234,307.3408,58,113,0
307.1234,307.3408,60,113,0
307.1234,307.3408,67,113,0
307.3408,307.5582,58,85,0
307.3408,307.5582,61,85,0
307.3408,307.5582,67,85,0
307.5582,307.77557,58,77,0
307.5582,307.77557,67,77,0
307.77557,307.99298,58,69,0
307.77557,307.99298,67,69,0
307.77557,307.99298,60,69,0
307.99298,308.21036,58,61,0
307.99298,308.21036,67,61,0
307.99298,308.21036,61,61,0
308.21036,308.42776,53,70,0
308.42776,308.64514,58,80,0
308.42776,308.64514,61,80,0
308.64514,308.86255,58,60,0
308.64514,308.86255,61,60,0
308.86255,309.07993,53,60,0
309.07993,309.29733,57,80,0
309.07993,309.29733,60,80,0
309.29733,309.5147,57,60,0
309.29733,309.5147,60,60,0
309.5147,309.73212,46,70,0
309.73212,309.9495,49,80,0
309.73212,309.9495,53,80,0
309.9495,310.1669,48,60,0
309.9495,310.1669,51,60,0
310.1669,310.49298,46,70,0
310.1669,310.49298,49,70,0
310.81906,311.03647,37,110,0
311.03647,311.25385,49,120,0
311.03647,311.25385,53,120,0
311.03647,311.25385,56,120,0
311.25385,311.47122,49,100,0
311.25385,311.47122,53,100,0
311.25385,311.47122,56,100,0
311.47122,311.68863,49,100,0
311.47122,311.68863,53,100,0
311.47122,311.68863,57,100,0
311.68863,311.906,49,100,0
311.68863,311.906,53,100,0
311.68863,311.906,57,100,0
311.906,312.1234,49,100,0
311.906,312.1234,53,100,0
311.906,312.1234,57,100,0
312.1234,312.3408,42,110,0
312.3408,312.5582,49,120,0
312.3408,312.5582,54,120,0
312.3408,312.5582,58,120,0
312.5582,312.77557,49,100,0
312.5582,312.77557,54,100,0
312.5582,312.77557,58,100,0
312.77557,312.99298,38,110,0
312.99298,313.21036,50,120,0
312.99298,313.21036,58,120,0
312.99298,313.21036,56,120,0
312.99298,313.21036,53,120,0
313.21036,313.42776,50,100,0
313.21036,313.42776,58,100,0
313.21036,313.42776,56,100,0
313.21036,313.42776,53,100,0
313.42776,313.64514,39,110,0
313.64514,313.86255,51,120,0
313.64514,313.86255,54,120,0
313.64514,313.86255,58,120,0
313.86255,314.07993,51,100,0
313.86255,314.07993,54,100,0
313.86255,314.07993,59,100,0
314.07993,314.29733,40,110,0
314.29733,314.5147,52,120,0
314.29733,314.5147,60,120,0
314.29733,314.5147,58,120,0
314.29733,314.5147,55,120,0
314.5147,314.73212,52,100,0
314.5147,314.73212,61,100,0
314.5147,314.73212,58,100,0
314.5147,314.73212,55,100,0
314.73212,314.9495,41,110,0
314.9495,315.1669,53,107,0
314.9495,315.1669,58,107,0
314.9495,315.1669,61,107,0
315.1669,315.38428,53,74,0
315.1669,315.38428,58,74,0
315.1669,315.38428,61,74,0
315.38428,315.60168,53,61,0
315.38428,315.60168,57,61,0
315.38428,315.60168,60,61,0
315.60168,315.81906,53,47,0
315.60168,315.81906,57,47,0
315.60168,315.81906,60,47,0
315.81906,316.03647,53,40,0
315.81906,316.03647,57,40,0
315.81906,316.03647,60,40,0
316.03647,316.25385,45,50,0
316.25385,316.47122,57,60,0
316.25385,316.47122,53,60,0
316.25385,316.47122,60,60,0
316.47122,316.68863,57,40,0
316.47122,316.68863,60,40,0
316.47122,316.68863,52,40,0
316.68863,316.906,53,40,0
316.68863,316.906,57,40,0
316.68863,316.906,60,40,0
316.906,317.1234,53,40,0
316.906,317.1234,57,40,0
316.906,317.1234,62,40,0
317.1234,317.3408,53,40,0
317.1234,317.3408,57,40,0
317.1234,317.3408,60,40,0
317.3408,317.5582,46,50,0
317.5582,317.77557,54,60,0
317.5582,317.77557,57,60,0
317.5582,317.77557,63,60,0
317.77557,317.99298,54,40,0
317.77557,317.99298,57,40,0
317.77557,317.99298,62,40,0
317.99298,318.21036,62,40,0
317.99298,318.21036,58,40,0
317.99298,318.21036,55,40,0
318.21036,318.42776,62,40,0
318.21036,318.42776,60,40,0
318.21036,318.42776,57,40,0
318.42776,318.64514,62,40,0
318.42776,318.64514,58,40,0
318.64514,318.86255,48,50,0
318.86255,319.07993,57,60,0
318.86255,319.07993,60,60,0
319.07993,319.29733,57,40,0
319.07993,319.29733,60,40,0
319.29733,319.5147,48,50,0
319.5147,319.73212,55,60,0
319.5147,319.73212,58,60,0
319.5147,319.73212,60,60,0
319.73212,319.9495,55,40,0
319.73212,319.9495,58,40,0
319.73212,319.9495,60,40,0
319.9495,320.1669,41,50,0
320.1669,320.38428,53,60,0
320.1669,320.38428,57,60,0
320.1669,320.38428,60,60,0
320.38428,320.60168,53,40,0
320.60168,320.81906,53,40,0
320.60168,320.81906,51,40,0
320.81906,321.03647,53,79,0
320.81906,321.03647,49,79,0
321.03647,321.25385,53,100,0
321.03647,321.25385,48,100,0
321.25385,321.47125,30,110,0
321.25385,321.47125,42,110,0
321.47125,321.68863,42,120,0
321.47125,321.68863,46,120,0
321.47125,321.68863,49,120,0
321.68863,321.906,42,100,0
321.68863,321.906,46,100,0
321.68863,321.906,48,100,0
321.906,322.1234,42,100,0
321.906,322.1234,46,100,0
321.906,322.1234,49,100,0
322.1234,322.3408,42,100,0
322.1234,322.3408,46,100,0
322.1234,322.3408,51,100,0
322.3408,322.5582,42,100,0
322.3408,322.5582,46,100,0
322.3408,322.5582,49,100,0
322.5582,322.77557,41,110,0
322.5582,322.77557,29,110,0
322.77557,322.99298,41,120,0
322.77557,322.99298,46,120,0
322.77557,322.99298,49,120,0
322.99298,323.21036,41,100,0
322.99298,323.21036,46,100,0
322.99298,323.21036,48,100,0
323.21036,323.42776,41,100,0
323.21036,323.42776,46,100,0
323.21036,323.42776,49,100,0
323.42776,323.64514,41,100,0
323.42776,323.64514,46,100,0
323.42776,323.64514,51,100,0
323.64514,323.86255,41,100,0
323.64514,323.86255,46,100,0
323.64514,323.86255,49,100,0
323.86255,324.07993,38,110,0
324.07993,324.29733,50,120,0
324.07993,324.29733,53,120,0
324.07993,324.29733,56,120,0
324.29733,324.5147,50,100,0
324.29733,324.5147,53,100,0
324.29733,324.5147,57,100,0
324.5147,324.73212,50,100,0
324.5147,324.73212,53,100,0
324.5147,324.73212,58,100,0
324.73212,324.9495,50,100,0
324.73212,324.9495,53,100,0
324.73212,324.9495,56,100,0
324.9495,325.1669,50,100,0
324.9495,325.1669,59,100,0
324.9495,325.1669,56,100,0
324.9495,325.1669,53,100,0
325.1669,325.38428,39,110,0
325.38428,325.60168,51,113,0
325.38428,325.60168,54,113,0
325.38428,325.60168,58,113,0
325.60168,325.81906,51,85,0
325.60168,325.81906,54,85,0
325.60168,325.81906,57,85,0
325.81906,326.03647,51,77,0
325.81906,326.03647,54,77,0
325.81906,326.03647,58,77,0
326.03647,326.25385,51,69,0
326.03647,326.25385,54,69,0
326.03647,326.25385,60,69,0
326.25385,326.47125,51,61,0
326.25385,326.47125,54,61,0
326.25385,326.47125,58,61,0
326.47125,326.68863,42,70,0
326.68863,326.906,54,80,0
326.68863,326.906,58,80,0
326.906,327.1234,54,60,0
326.906,327.1234,58,60,0
327.1234,327.3408,54,60,0
327.1234,327.3408,58,60,0
327.3408,327.5582,54,60,0
327.3408,327.5582,58,60,0
327.5582,327.77557,54,60,0
327.5582,327.77557,58,60,0
327.5582,327.77557,60,60,0
327.77557,327.99298,41,70,0
327.99298,328.21036,53,80,0
327.99298,328.21036,58,80,0
327.99298,328.21036,61,80,0
328.21036,328.42776,53,60,0
328.21036,328.42776,58,60,0
328.21036,328.42776,61,60,0
328.42776,328.64514,53,60,0
328.42776,328.64514,58,60,0
328.42776,328.64514,61,60,0
328.64514,328.86255,52,60,0
328.64514,328.86255,58,60,0
328.64514,328.86255,61,60,0
328.86255,329.07993,53,60,0
328.86255,329.07993,58,60,0
328.86255,329.07993,61,60,0
329.07993,329.29733,40,70,0
329.29733,329.5147,52,80,0
329.29733,329.5147,61,80,0
329.29733,329.5147,58,80,0
329.29733,329.5147,55,80,0
329.5147,329.73212,52,60,0
329.5147,329.73212,60,60,0
329.5147,329.73212,58,60,0
329.5147,329.73212,55,60,0
329.73212,329.9495,41,70,0
329.9495,330.1669,53,80,0
329.9495,330.1669,66,80,0
329.9495,330.1669,60,80,0
329.9495,330.1669,57,80,0
330.1669,330.38428,53,60,0
330.1669,330.38428,65,60,0
330.1669,330.38428,63,60,0
330.1669,330.38428,60,60,0
330.38428,330.60168,46,70,0
330.60168,330.81906,53,80,0
330.60168,330.81906,61,80,0
330.60168,330.81906,65,80,0
330.81906,331.03647,53,60,0
330.81906,331.03647,60,60,0
330.81906,331.03647,63,60,0
331.03647,331.36255,53,60,0
331.03647,331.36255,58,60,0
331.03647,331.36255,61,60,0
331.68863,331.90604,37,110,0
331.90604,332.1234,49,120,0
331.90604,332.1234,53,120,0
331.90604,332.1234,56,120,0
332.1234,332.3408,49,100,0
332.1234,332.3408,53,100,0
332.1234,332.3408,56,100,0
332.3408,332.5582,49,100,0
332.3408,332.5582,53,100,0
332.3408,332.5582,57,100,0
332.5582,332.77557,49,100,0
332.5582,332.77557,53,100,0
332.5582,332.77557,57,100,0
332.77557,332.99298,49,100,0
332.77557,332.99298,53,100,0
332.77557,332.99298,57,100,0
332.99298,333.21036,42,110,0
333.21036,333.42776,49,120,0
333.21036,333.42776,54,120,0
333.21036,333.42776,58,120,0
333.42776,333.64514,49,100,0
333.42776,333.64514,54,100,0
333.42776,333.64514,58,100,0
333.64514,333.86255,38,110,0
333.86255,334.07993,50,120,0
333.86255,334.07993,58,120,0
333.86255,334.07993,56,120,0
333.86255,334.07993,53,120,0
334.07993,334.29733,50,100,0
334.07993,334.29733,58,100,0
334.07993,334.29733,56,100,0
334.07993,334.29733,53,100,0
334.29733,334.5147,39,110,0
334.5147,334.73212,51,120,0
334.5147,334.73212,54,120,0
334.5147,334.73212,58,120,0
334.73212,334.9495,51,100,0
334.73212,334.9495,54,100,0
334.73212,334.9495,59,100,0
334.9495,335.1669,40,110,0
335.1669,335.38428,52,120,0
335.1669,335.38428,60,120,0
335.1669,335.38428,58,120,0
335.1669,335.38428,55,120,0
335.38428,335.60168,52,100,0
335.38428,335.60168,61,100,0
335.38428,335.60168,58,100,0
335.38428,335.60168,55,100,0
335.60168,335.81906,41,110,0
335.81906,336.03647,53,107,0
335.81906,336.03647,58,107,0
335.81906,336.03647,61,107,0
336.03647,336.25385,53,74,0
336.03647,336.25385,58,74,0
336.03647,336.25385,61,74,0
336.25385,336.47125,53,61,0
336.25385,336.47125,57,61,0
336.25385,336.47125,60,61,0
336.47125,336.68863,53,47,0
336.47125,336.68863,57,47,0
336.47125,336.68863,60,47,0
336.68863,336.90604,53,40,0
336.68863,336.90604,57,40,0
336.68863,336.90604,60,40,0
336.90604,337.1234,45,50,0
337.1234,337.3408,57,60,0
337.1234,337.3408,53,60,0
337.1234,337.3408,60,60,0
337.3408,337.5582,57,40,0
337.3408,337.5582,60,40,0
337.3408,337.5582,52,40,0
337.5582,337.77557,53,40,0
337.5582,337.77557,57,40,0
337.5582,337.77557,60,40,0
337.77557,337.99298,53,40,0
337.77557,337.99298,57,40,0
337.77557,337.99298,62,40,0
337.99298,338.21036,53,40,0
337.99298,338.21036,57,40,0
337.99298,338.21036,60,40,0
338.21036,338.42776,46,50,0
338.42776,338.64514,54,60,0
338.42776,338.64514,57,60,0
338.42776,338.64514,63,60,0
338.64514,338.86255,54,40,0
338.64514,338.86255,57,40,0
338.64514,338.86255,62,40,0
338.86255,339.07993,62,40,0
338.86255,339.07993,58,40,0
338.86255,339.07993,55,40,0
339.07993,339.29733,62,40,0
339.07993,339.29733,60,40,0
339.07993,339.29733,57,40,0
339.29733,339.5147,62,40,0
339.29733,339.5147,58,40,0
339.5147,339.73212,48,50,0
339.73212,339.9495,57,60,0
339.73212,339.9495,60,60,0
339.9495,340.1669,57,40,0
339.9495,340.1669,60,40,0
340.1669,340.38428,48,50,0
340.38428,340.60168,55,60,0
340.38428,340.60168,58,60,0
340.38428,340.60168,60,60,0
340.60168,340.81906,55,40,0
340.60168,340.81906,58,40,0
340.60168,340.81906,60,40,0
340.81906,341.03647,41,50,0
341.03647,341.25385,53,60,0
341.03647,341.25385,57,60,0
341.03647,341.25385,60,60,0
341.25385,341.47125,53,40,0
341.47125,341.68863,53,40,0
341.47125,341.68863,51,40,0
341.68863,341.90604,53,79,0
341.68863,341.90604,49,79,0
341.90604,342.1234,53,100,0
341.90604,342.1234,48,100,0
342.1234,342.34082,30,110,0
342.1234,342.34082,42,110,0
342.34082,342.5582,42,120,0
342.34082,342.5582,46,120,0
342.34082,342.5582,49,120,0
342.5582,342.77557,42,100,0
342.5582,342.77557,46,100,0
342.5582,342.77557,48,100,0
342.77557,342.99298,42,100,0
342.77557,342.99298,46,100,0
342.77557,342.99298,49,100,0
342.99298,343.21036,42,100,0
342.99298,343.21036,46,100,0
342.99298,343.21036,51,100,0
343.21036,343.42776,42,100,0
343.21036,343.42776,46,100,0
343.21036,343.42776,49,100,0
343.42776,343.64514,41,110,0
343.42776,343.64514,29,110,0
343.64514,343.86255,41,120,0
343.64514,343.86255,46,120,0
343.64514,343.86255,49,120,0
343.86255,344.07993,41,100,0
343.86255,344.07993,46,100,0
343.86255,344.07993,48,100,0
344.07993,344.29733,41,100,0
344.07993,344.29733,46,100,0
344.07993,344.29733,49,100,0
344.29733,344.5147,41,100,0
344.29733,344.5147,46,100,0
344.29733,344.5147,51,100,0
344.5147,344.73212,41,100,0
344.5147,344.73212,46,100,0
344.5147,344.73212,49,100,0
344.73212,344.9495,38,110,0
344.9495,345.1669,50,120,0
344.9495,345.1669,53,120,0
344.9495,345.1669,56,120,0
345.1669,345.38428,50,100,0
345.1669,345.38428,53,100,0
345.1669,345.38428,57,100,0
345.38428,345.60168,50,100,0
345.38428,345.60168,53,100,0
345.38428,345.60168,58,100,0
345.60168,345.81906,50,100,0
345.60168,345.81906,53,100,0
345.60168,345.81906,56,100,0
345.81906,346.03647,50,100,0
345.81906,346.03647,59,100,0
345.81906,346.03647,56,100,0
345.81906,346.03647,53,100,0
346.03647,346.25385,39,110,0
346.25385,346.47125,51,113,0
346.25385,346.47125,54,113,0
346.25385,346.47125,58,113,0
346.47125,346.68863,51,85,0
346.47125,346.68863,54,85,0
346.47125,346.68863,57,85,0
346.68863,346.90604,51,77,0
346.68863,346.90604,54,77,0
346.68863,346.90604,58,77,0
346.90604,347.1234,51,69,0
346.90604,347.1234,54,69,0
346.90604,347.1234,60,69,0
347.1234,347.34082,51,61,0
347.1234,347.34082,54,61,0
347.1234,347.34082,58,61,0
347.34082,347.5582,42,70,0
347.5582,347.77557,54,80,0
347.5582,347.77557,58,80,0
347.77557,347.99298,54,60,0
347.77557,347.99298,58,60,0
347.99298,348.21036,54,60,0
347.99298,348.21036,58,60,0
348.21036,348.42776,54,60,0
348.21036,348.42776,58,60,0
348.42776,348.64514,54,60,0
348.42776,348.64514,58,60,0
348.42776,348.64514,60,60,0
348.64514,348.86255,41,70,0
348.86255,349.07993,53,80,0
348.86255,349.07993,58,80,0
348.86255,349.07993,61,80,0
349.07993,349.29733,53,60,0
349.07993,349.29733,58,60,0
349.07993,349.29733,61,60,0
349.29733,349.5147,53,60,0
349.29733,349.5147,58,60,0
349.29733,349.5147,61,60,0
349.5147,349.73212,52,60,0
349.5147,349.73212,58,60,0
349.5147,349.73212,61,60,0
349.73212,349.9495,53,60,0
349.73212,349.9495,58,60,0
349.73212,349.9495,61,60,0
349.9495,350.1669,40,70,0
350.1669,350.38428,52,80,0
350.1669,350.38428,61,80,0
350.1669,350.38428,58,80,0
350.1669,350.38428,55,80,0
350.38428,350.60168,52,60,0
350.38428,350.60168,60,60,0
350.38428,350.60168,58,60,0
350.38428,350.60168,55,60,0
350.60168,350.81906,41,70,0
350.81906,351.03647,53,80,0
350.81906,351.03647,66,80,0
350.81906,351.03647,60,80,0
350.81906,351.03647,57,80,0
351.03647,351.25385,53,60,0
351.03647,351.25385,65,60,0
351.03647,351.25385,63,60,0
351.03647,351.25385,60,60,0
351.25385,351.47125,46,70,0
351.47125,351.68863,53,80,0
351.47125,351.68863,58,80,0
351.47125,351.68863,61,80,0
351.68863,351.90604,53,60,0
351.68863,351.90604,57,60,0
351.68863,351.90604,60,60,0
351.90604,352.1234,53,60,0
351.90604,352.1234,58,60,0
351.90604,352.1234,61,60,0
352.1234,352.34082,53,60,0
352.1234,352.34082,65,60,0
352.1234,352.34082,61,60,0
352.34082,352.5582,53,60,0
352.34082,352.5582,58,60,0
352.34082,352.5582,61,60,0
352.5582,352.77698,40,70,0
352.77698,352.99878,52,79,0
352.77698,352.99878,61,79,0
352.77698,352.99878,58,79,0
352.77698,352.99878,55,79,0
352.99878,353.22357,52,57,0
352.99878,353.22357,60,57,0
352.99878,353.22357,58,57,0
352.99878,353.22357,55,57,0
353.22357,353.45145,41,65,0
353.45145,353.6827,53,73,0
353.45145,353.6827,57,73,0
353.45145,353.6827,60,73,0
353.6827,353.91718,53,51,0
353.6827,353.91718,60,51,0
353.6827,353.91718,63,51,0
353.91718,354.15506,46,60,0
354.15506,354.3964,53,68,0
354.15506,354.3964,58,68,0
354.15506,354.3964,61,68,0
354.3964,354.64154,53,46,0
354.3964,354.64154,57,46,0
354.3964,354.64154,60,46,0
354.64154,354.89026,53,44,0
354.64154,354.89026,58,44,0
354.64154,354.89026,61,44,0
354.89026,355.14285,53,42,0
354.89026,355.14285,65,42,0
354.89026,355.14285,61,42,0
355.14285,355.3995,53,41,0
355.14285,355.3995,58,41,0
355.14285,355.3995,61,41,0
355.3995,355.66003,42,50,0
355.66003,355.92505,54,60,0
355.66003,355.92505,58,60,0
355.92505,356.1943,54,40,0
355.92505,356.1943,58,40,0
355.92505,356.1943,60,40,0
356.1943,356.46805,41,50,0
356.46805,356.74643,53,60,0
356.46805,356.74643,57,60,0
356.46805,356.74643,60,60,0
356.74643,357.02975,53,40,0
356.74643,357.02975,60,40,0
356.74643,357.02975,63,40,0
357.02975,357.31805,34,50,0
357.31805,357.61142,53,60,0
357.31805,357.61142,58,60,0
357.31805,357.61142,61,60,0
357.61142,357.91046,53,40,0
357.61142,357.91046,61,40,0
357.61142,357.91046,65,40,0
357.91046,358.84796,53,40,0
357.91046,358.84796,58,40,0
357.91046,358.84796,61,40,0
359.38367,359.62823,42,70,0
359.62823,359.70975,49,70,0
359.70975,360.2804,58,80,0
360.2804,360.36194,54,70,0
360.36194,361.0141,58,80,0
361.0141,361.34018,54,70,0
361.34018,361.66626,49,70,0
361.66626,361.99237,46,70,0
361.99237,362.23694,41,70,0
362.23694,362.31845,49,70,0
362.31845,362.8891,59,80,0
362.8891,362.9706,56,70,0
362.9706,363.6228,59,80,0
363.6228,363.94888,56,70,0
363.94888,364.27496,53,70,0
364.27496,364.60104,49,70,0
364.60104,364.8456,42,70,0
364.8456,364.92715,49,70,0
364.92715,365.4978,58,80,0
365.4978,365.5793,54,70,0
365.5793,366.2315,58,80,0
366.2315,366.5576,56,70,0
366.5576,366.88367,51,70,0
366.88367,367.20975,56,70,0
365.9054,367.20975,47,80,0
367.20975,367.53583,56,70,0
367.20975,367.86194,48,80,0
367.86194,368.5141,56,90,0
368.5141,369.81845,61,101,0
369.81845,369.89996,42,100,0
369.9815,370.14453,58,100,0
370.14453,370.3076,49,100,0
370.3076,370.4706,58,100,0
370.4706,370.63367,54,100,0
370.63367,370.79672,58,100,0
370.79672,370.95975,49,100,0
370.95975,371.1228,58,100,0
371.1228,371.2043,42,100,0
371.28583,371.44888,58,100,0
371.44888,371.61194,49,100,0
371.61194,371.77496,58,100,0
371.77496,371.93802,54,100,0
371.93802,372.10104,58,100,0
372.10104,372.2641,49,100,0
372.2641,372.42715,58,100,0
372.42715,372.50867,41,100,0
372.59018,372.75323,59,100,0
372.75323,372.91626,49,100,0
372.91626,373.0793,59,100,0
373.0793,373.24237,56,100,0
373.24237,373.4054,59,100,0
373.4054,373.56845,49,100,0
373.56845,373.7315,59,100,0
373.7315,373.81302,41,100,0
373.89453,374.0576,59,100,0
374.0576,374.2206,49,100,0
374.2206,374.38367,59,100,0
374.38367,374.54672,56,100,0
374.54672,374.70975,59,100,0
374.70975,374.8728,49,100,0
374.8728,375.03583,59,100,0
375.03583,375.11737,42,100,0
375.19888,375.36194,58,98,0
375.36194,375.52496,49,95,0
375.52496,375.68802,58,92,0
375.68802,375.85104,54,90,0
375.85104,376.0141,58,87,0
376.0141,376.17715,49,84,0
376.17715,376.34018,58,81,0
376.34018,376.42172,36,79,0
376.50323,376.6663,48,76,0
376.6663,376.8293,51,73,0
376.8293,376.99237,48,71,0
376.99237,377.1554,56,68,0
377.1554,377.31845,48,65,0
377.31845,377.4815,57,62,0
377.4815,377.64453,48,60,0
377.64453,377.72604,37,60,0
377.8076,377.9706,49,60,0
377.9706,378.13367,53,60,0
378.13367,378.29672,49,60,0
378.29672,378.45975,56,60,0
378.45975,378.6228,49,60,0
378.6228,378.78583,59,60,0
378.78583,378.94888,49,60,0
378.94888,379.0304,42,60,0
379.11194,379.27496,49,60,0
379.27496,379.43802,58,60,0
379.43802,379.60104,54,60,0
379.60104,379.7641,49,60,0
379.7641,379.92715,54,60,0
379.92715,380.09018,49,60,0
380.09018,380.25323,46,60,0
380.25323,380.4978,42,70,0
380.4978,380.5793,49,70,0
380.5793,381.14996,58,80,0
381.14996,381.2315,54,70,0
381.2315,381.88367,58,80,0
381.88367,382.20975,54,70,0
382.20975,382.53583,49,70,0
382.53583,382.86194,46,70,0
382.86194,383.1065,41,70,0
383.1065,383.18802,49,70,0
383.18802,383.75867,59,80,0
383.75867,383.84018,56,70,0
383.84018,384.49237,59,80,0
384.49237,384.81845,56,70,0
384.81845,385.14453,53,70,0
385.14453,385.4706,49,70,0
385.4706,385.71518,42,70,0
385.71518,385.79672,49,70,0
385.79672,386.36737,58,80,0
386.36737,386.44888,54,70,0
386.44888,387.10107,58,80,0
387.10107,387.42715,56,70,0
387.42715,387.75323,51,70,0
387.75323,388.0793,56,70,0
386.77496,388.0793,47,80,0
388.0793,388.4054,56,70,0
388.0793,388.7315,48,80,0
388.7315,389.38367,56,90,0
389.38367,390.68802,61,101,0
390.68802,390.76953,42,100,0
390.85107,391.0141,58,100,0
391.0141,391.17715,49,100,0
391.17715,391.34018,58,100,0
391.34018,391.50323,54,100,0
391.50323,391.6663,58,100,0
391.6663,391.8293,49,100,0
391.8293,391.99237,58,100,0
391.99237,392.07388,42,100,0
392.1554,392.31845,58,100,0
392.31845,392.4815,49,100,0
392.4815,392.64453,58,100,0
392.64453,392.8076,54,100,0
392.8076,392.9706,58,100,0
392.9706,393.13367,49,100,0
393.13367,393.29672,58,100,0
393.29672,393.37823,41,100,0
393.45975,393.6228,59,100,0
393.6228,393.78583,49,100,0
393.78583,393.94888,59,100,0
393.94888,394.11194,56,100,0
394.11194,394.27496,59,100,0
394.27496,394.43802,49,100,0
394.43802,394.60107,59,100,0
394.60107,394.6826,41,100,0
394.7641,394.92715,59,100,0
394.92715,395.09018,49,100,0
395.09018,395.25323,59,100,0
395.25323,395.4163,56,100,0
395.4163,395.5793,59,100,0
395.5793,395.74237,49,100,0
395.74237,395.9054,59,100,0
395.9054,395.98694,42,100,0
396.06845,396.2315,58,98,0
396.2315,396.39453,49,95,0
396.39453,396.5576,58,92,0
396.5576,396.7206,54,90,0
396.7206,396.88367,58,87,0
396.88367,397.04672,49,84,0
397.04672,397.20975,58,81,0
397.20975,397.2913,36,79,0
397.3728,397.53586,48,76,0
397.53586,397.69888,51,73,0
397.69888,397.86194,48,71,0
397.86194,398.02496,56,68,0
398.02496,398.18802,48,65,0
398.18802,398.35107,57,62,0
398.35107,398.5141,48,60,0
398.5141,398.5956,37,60,0
398.67715,398.84018,49,60,0
398.84018,399.00323,53,60,0
399.00323,399.1663,49,60,0
399.1663,399.3293,56,60,0
399.3293,399.49237,49,60,0
399.49237,399.6554,59,60,0
399.6554,399.81845,49,60,0
399.81845,399.89996,42,60,0
399.9815,400.14453,49,60,0
400.14453,400.3076,58,60,0
400.3076,400.4706,54,60,0
400.4706,400.63367,49,60,0
400.63367,400.79672,54,60,0
400.79672,400.95975,49,60,0
400.95975,401.1228,46,60,0
401.44888,402.01953,58,120,0
401.36737,402.01953,46,110,0
402.10107,402.75323,58,120,0
402.01953,402.75323,46,110,0
402.75323,402.9163,54,110,0
402.75323,402.9163,42,110,0
403.0793,403.24237,51,110,0
403.0793,403.24237,39,110,0
403.4054,403.56845,46,110,0
403.4054,403.56845,34,110,0
404.0576,404.62823,58,120,0
403.97607,404.62823,46,110,0
404.70975,405.36194,57,120,0
404.62823,405.36194,45,110,0
405.36194,405.52496,51,110,0
405.36194,405.52496,39,110,0
405.68802,405.85107,48,110,0
405.68802,405.85107,36,110,0
406.0141,406.17715,42,110,0
406.0141,406.17715,30,110,0
406.34018,406.50323,41,60,0
406.50323,406.6663,53,60,0
406.6663,406.8293,49,60,0
406.6663,406.8293,44,60,0
406.8293,406.99237,53,60,0
406.99237,407.1554,43,60,0
407.1554,407.31845,53,60,0
407.31845,407.4815,49,60,0
407.31845,407.4815,44,60,0
407.4815,407.64453,53,60,0
407.64453,407.8076,42,60,0
407.8076,407.97064,51,60,0
407.97064,408.13367,49,60,0
407.97064,408.13367,46,60,0
408.13367,408.29672,51,60,0
408.29672,408.45975,45,60,0
408.45975,408.6228,54,60,0
408.6228,408.78586,49,60,0
408.6228,408.78586,46,60,0
408.78586,408.94888,54,60,0
408.94888,409.11194,44,60,0
409.11194,409.27496,56,60,0
409.27496,409.43802,53,60,0
409.27496,409.43802,49,60,0
409.43802,409.60107,56,60,0
409.60107,409.7641,44,60,0
409.7641,409.92715,56,60,0
409.92715,410.09018,54,60,0
409.92715,410.09018,48,60,0
410.09018,410.25323,56,60,0
410.25323,410.33475,37,60,0
410.4163,410.5793,49,60,0
410.5793,410.74237,53,60,0
410.5793,410.74237,56,60,0
410.74237,410.9054,49,60,0
410.9054,411.06845,54,60,0
410.9054,411.06845,58,60,0
411.06845,411.2315,49,60,0
411.2315,411.39453,56,60,0
411.2315,411.39453,59,60,0
411.39453,411.5576,49,60,0
411.5576,411.80215,42,70,0
411.80215,411.88367,49,74,0
411.88367,412.4543,58,85,0
412.4543,412.53586,54,84,0
412.53586,413.18802,58,96,0
413.18802,413.5141,54,97,0
413.5141,413.84018,49,102,0
413.84018,414.1663,46,108,0
414.1663,414.41086,35,110,0
414.41086,414.49237,47,110,0
414.49237,415.06302,51,120,0
415.06302,415.14453,47,110,0
415.14453,415.79672,51,120,0
415.79672,415.95975,48,110,0
416.1228,416.28586,45,110,0
416.44888,416.61194,36,81,0
416.77496,416.8565,51,60,0
416.93802,417.10107,60,60,0
417.10107,417.2641,57,60,0
417.10107,417.2641,54,60,0
417.2641,417.42715,60,60,0
417.42715,417.59018,53,60,0
417.59018,417.75323,60,60,0
417.75323,417.9163,57,60,0
417.75323,417.9163,54,60,0
417.9163,418.0793,60,60,0
418.0793,418.24237,49,60,0
418.24237,418.40543,61,60,0
418.40543,418.56845,58,60,0
418.40543,418.56845,54,60,0
418.56845,418.7315,61,60,0
418.7315,418.89453,53,60,0
418.89453,419.0576,61,60,0
419.0576,419.22064,58,60,0
419.0576,419.22064,54,60,0
419.22064,419.38367,61,60,0
419.38367,419.46518,37,60,0
419.54672,419.70975,49,60,0
419.70975,419.8728,53,60,0
419.8728,420.03586,49,60,0
420.03586,420.19888,56,60,0
420.19888,420.36194,49,60,0
420.36194,420.52496,59,60,0
420.52496,420.68802,49,60,0
420.68802,420.76953,42,60,0
420.85107,421.0141,49,60,0
421.0141,421.17715,58,60,0
421.17715,421.34018,54,60,0
421.34018,421.50323,49,60,0
421.50323,421.6663,54,60,0
421.6663,421.8293,49,60,0
421.8293,421.99237,46,60,0
422.31845,422.8891,58,120,0
422.23694,422.8891,46,110,0
422.97064,423.6228,58,120,0
422.8891,423.6228,46,110,0
423.6228,423.78586,54,110,0
423.6228,423.78586,42,110,0
423.94888,424.11194,51,110,0
423.94888,424.11194,39,110,0
424.27496,424.43802,46,110,0
424.27496,424.43802,34,110,0
424.92715,425.4978,58,120,0
424.84564,425.4978,46,110,0
425.5793,426.2315,57,120,0
425.4978,426.2315,45,110,0
426.2315,426.39453,51,110,0
426.2315,426.39453,39,110,0
426.5576,426.72064,48,110,0
426.5576,426.72064,36,110,0
426.88367,427.04672,42,110,0
426.88367,427.04672,30,110,0
427.20975,427.3728,41,60,0
427.3728,427.53586,53,60,0
427.53586,427.69888,49,60,0
427.53586,427.69888,44,60,0
427.69888,427.86194,53,60,0
427.86194,428.02496,43,60,0
428.02496,428.18802,53,60,0
428.18802,428.35107,49,60,0
428.18802,428.35107,44,60,0
428.35107,428.5141,53,60,0
428.5141,428.67715,42,60,0
428.67715,428.8402,51,60,0
428.8402,429.00323,49,60,0
428.8402,429.00323,46,60,0
429.00323,429.1663,51,60,0
429.1663,429.3293,45,60,0
429.3293,429.49237,54,60,0
429.49237,429.65543,49,60,0
429.49237,429.65543,46,60,0
429.65543,429.81845,54,60,0
429.81845,429.9815,44,60,0
429.9815,430.14453,56,60,0
430.14453,430.3076,53,60,0
430.14453,430.3076,49,60,0
430.3076,430.47064,56,60,0
430.47064,430.63367,44,60,0
430.63367,430.79672,56,60,0
430.79672,430.95975,54,60,0
430.79672,430.95975,48,60,0
430.95975,431.1228,56,60,0
431.1228,431.2043,37,60,0
431.28586,431.44888,49,60,0
431.44888,431.61194,53,60,0
431.44888,431.61194,56,60,0
431.61194,431.77496,49,60,0
431.77496,431.93802,54,60,0
431.77496,431.93802,58,60,0
431.93802,432.10107,49,60,0
432.10107,432.2641,56,60,0
432.10107,432.2641,59,60,0
432.2641,432.42715,49,60,0
432.42715,432.67172,42,70,0
432.67172,432.75323,49,74,0
432.75323,433.32388,58,85,0
433.32388,433.40543,54,84,0
433.40543,434.0576,58,96,0
434.0576,434.38367,54,97,0
434.38367,434.70975,49,102,0
434.70975,435.03586,46,108,0
435.03586,435.28043,35,110,0
435.28043,435.36194,47,110,0
435.36194,435.9326,51,120,0
435.9326,436.0141,47,110,0
436.0141,436.6663,51,120,0
436.6663,436.8293,48,110,0
436.99237,437.15543,45,110,0
437.31845,437.4815,36,81,0
437.64453,437.72607,51,60,0
437.8076,437.97064,60,60,0
437.97064,438.13367,57,60,0
437.97064,438.13367,54,60,0
438.13367,438.29672,60,60,0
438.29672,438.45975,53,60,0
438.45975,438.6228,60,60,0
438.6228,438.78586,57,60,0
438.6228,438.78586,54,60,0
438.78586,438.94888,60,60,0
438.94888,439.11194,49,60,0
439.11194,439.275,61,60,0
439.275,439.43802,58,60,0
439.275,439.43802,54,60,0
439.43802,439.60107,61,60,0
439.60107,439.7641,53,60,0
439.7641,439.92715,61,60,0
439.92715,440.0902,58,60,0
439.92715,440.0902,54,60,0
440.0902,440.25323,61,60,0
440.25323,440.33475,37,60,0
440.4163,440.5793,49,60,0
440.5793,440.74237,53,60,0
440.74237,440.90543,49,60,0
440.90543,441.06845,56,60,0
441.06845,441.2315,49,60,0
441.2315,441.39453,59,60,0
441.39453,441.5576,49,60,0
441.5576,441.6391,42,60,0
441.72064,441.88367,58,60,0
441.88367,442.04672,49,60,0
442.04672,442.20975,58,60,0
442.20975,442.3728,54,60,0
442.3728,442.53586,58,60,0
442.53586,442.69888,49,60,0
442.69888,442.86194,58,60,0
442.86194,442.94345,37,60,0
443.025,443.18802,59,59,0
443.18802,443.35107,53,58,0
443.18802,443.35107,49,58,0
443.35107,443.5141,59,56,0
443.5141,443.67715,53,55,0
443.5141,443.67715,50,55,0
443.67715,443.8402,59,54,0
443.8402,444.00323,53,52,0
443.8402,444.00323,49,52,0
444.00323,444.1663,59,51,0
444.1663,444.2478,42,50,0
444.3293,444.49237,58,48,0
444.49237,444.65543,49,47,0
444.65543,444.81845,58,46,0
444.81845,444.9815,54,44,0
444.9815,445.14453,58,43,0
445.14453,445.3076,49,41,0
445.3076,445.47064,58,40,0
445.47064,445.55215,37,40,0
445.63367,445.79672,59,40,0
445.79672,445.95978,53,40,0
445.79672,445.95978,49,40,0
445.95978,446.1228,59,40,0
446.1228,446.28586,53,40,0
446.1228,446.28586,50,40,0
446.28586,446.44888,59,40,0
446.44888,446.61194,53,40,0
446.44888,446.61194,49,40,0
446.61194,446.775,59,40,0
446.775,446.8565,42,40,0
446.93802,447.10107,58,40,0
447.10107,447.2641,49,40,0
447.2641,447.42715,58,40,0
447.42715,447.5902,54,40,0
447.5902,447.75323,58,40,0
447.75323,447.9163,49,40,0
447.9163,448.0793,58,40,0
448.0793,448.16086,42,40,0
448.24237,448.40543,58,40,0
448.40543,448.56845,49,40,0
448.56845,448.7315,58,40,0
448.7315,448.89453,54,40,0
448.89453,449.0576,58,40,0
449.0576,449.22064,49,40,0
449.22064,449.38367,58,40,0
449.38367,449.4652,42,40,0
449.54672,449.70978,58,40,0
449.70978,449.8728,49,40,0
449.8728,450.03586,58,40,0
450.03586,450.19888,54,40,0
450.19888,450.36194,58,40,0
450.36194,450.525,49,40,0
450.525,450.68802,58,40,0
450.68802,450.76974,41,40,0
450.8519,451.01736,58,40,0
451.01736,451.18448,50,40,0
451.18448,451.3534,58,40,0
451.3534,451.52402,53,40,0
451.52402,451.6965,58,40,0
451.6965,451.8708,50,40,0
451.8708,452.047,58,40,0
452.047,452.13583,41,40,0
452.22504,452.40515,58,40,0
452.40515,452.5872,50,40,0
452.5872,452.77136,58,40,0
452.77136,452.95752,53,40,0
452.95752,453.14594,58,40,0
453.14594,453.33646,50,40,0
453.33646,453.52933,58,40,0
453.52933,453.62646,41,40,0
453.72437,453.92188,57,40,0
453.92188,454.1217,51,40,0
454.1217,454.32413,57,40,0
454.32413,454.529,53,40,0
454.529,454.73648,57,40,0
454.73648,454.9466,51,40,0
454.9466,455.15958,57,40,0
455.15958,455.26712,41,40,0
455.37524,455.59393,57,40,0
455.59393,455.81552,51,40,0
455.81552,456.04028,57,40,0
456.97778,458.22778,51,40,0
456.50903,458.22778,57,40,0
456.04028,458.22778,53,40,0
458.49564,458.6587,46,50,0
458.82172,459.4739,53,40,0
458.82172,459.4739,58,40,0
458.82172,459.4739,62,40,0
459.4739,459.8,53,40,0
459.4739,459.8,58,40,0
459.4739,459.8,62,40,0
459.8,459.963,50,50,0
460.12607,460.77823,53,40,0
460.12607,460.77823,58,40,0
460.12607,460.77823,65,40,0
460.77823,461.10434,53,40,0
460.77823,461.10434,58,40,0
460.77823,461.10434,65,40,0
461.10434,461.26736,48,50,0
461.43042,462.08258,53,40,0
461.43042,462.08258,57,40,0
461.43042,462.08258,63,40,0
462.08258,462.4087,53,40,0
462.08258,462.4087,57,40,0
462.08258,462.4087,63,40,0
462.4087,462.57172,41,50,0
462.73477,463.38693,53,40,0
462.73477,463.38693,57,40,0
462.73477,463.38693,60,40,0
463.38693,463.713,53,40,0
463.38693,463.713,57,40,0
463.38693,463.713,60,40,0
463.713,463.87607,46,50,0
464.03912,464.69128,53,48,0
464.03912,464.69128,58,48,0
464.03912,464.69128,62,48,0
464.69128,465.01736,53,65,0
464.69128,465.01736,58,65,0
464.69128,465.01736,62,65,0
465.01736,465.18042,39,84,0
465.34348,465.99564,51,82,0
465.34348,465.99564,60,82,0
465.34348,465.99564,58,82,0
465.34348,465.99564,55,82,0
465.99564,466.32172,51,99,0
465.99564,466.32172,60,99,0
465.99564,466.32172,58,99,0
465.99564,466.32172,55,99,0
466.32172,466.48477,40,110,0
466.6478,467.3,52,92,0
466.6478,467.3,60,92,0
466.6478,467.3,58,92,0
466.6478,467.3,55,92,0
467.3,467.62607,48,75,0
467.62607,467.78912,41,76,0
467.95215,468.27823,57,58,0
467.95215,468.27823,60,58,0
468.27823,468.60434,58,49,0
468.27823,468.60434,62,49,0
468.60434,468.93042,57,41,0
468.60434,468.93042,63,41,0
467.95215,468.93042,53,58,0
468.93042,469.09348,46,50,0
469.2565,469.9087,53,40,0
469.2565,469.9087,58,40,0
469.2565,469.9087,62,40,0
469.9087,470.23477,53,40,0
469.9087,470.23477,58,40,0
469.9087,470.23477,62,40,0
470.23477,470.3978,50,50,0
470.56085,471.213,53,40,0
470.56085,471.213,58,40,0
470.56085,471.213,65,40,0
471.213,471.53912,53,40,0
471.213,471.53912,58,40,0
471.213,471.53912,65,40,0
471.53912,471.70215,48,50,0
471.8652,472.51736,53,40,0
471.8652,472.51736,57,40,0
471.8652,472.51736,63,40,0
472.51736,472.84348,53,40,0
472.51736,472.84348,57,40,0
472.51736,472.84348,63,40,0
472.84348,473.0065,41,50,0
473.16956,473.82172,53,40,0
473.16956,473.82172,57,40,0
473.16956,473.82172,60,40,0
473.82172,474.1478,53,40,0
473.82172,474.1478,57,40,0
473.82172,474.1478,60,40,0
474.1478,474.31085,46,50,0
474.4739,475.12607,53,59,0
474.4739,475.12607,58,59,0
474.4739,475.12607,62,59,0
475.12607,475.45215,53,99,0
475.12607,475.45215,58,99,0
475.12607,475.45215,62,99,0
475.45215,475.6152,52,110,0
475.77826,476.43042,58,89,0
475.77826,476.43042,61,89,0
475.77826,476.43042,67,89,0
476.43042,476.7565,55,65,0
476.43042,476.7565,58,65,0
476.43042,476.7565,61,65,0
476.7565,476.91956,41,70,0
477.08258,477.4087,58,58,0
477.4087,477.73477,57,55,0
477.08258,477.73477,60,58,0
477.73477,478.06085,60,52,0
477.73477,478.06085,63,52,0
477.08258,478.06085,53,68,0
478.06085,478.2239,46,59,0
478.38693,479.3652,58,46,0
478.38693,479.3652,62,46,0
479.3652,479.52826,46,50,0
479.69128,480.34348,53,40,0
479.69128,480.34348,58,40,0
479.69128,480.34348,62,40,0
480.34348,480.66956,53,40,0
480.34348,480.66956,58,40,0
480.34348,480.66956,62,40,0
480.66956,480.83258,50,50,0
480.99564,481.6478,53,40,0
480.99564,481.6478,58,40,0
480.99564,481.6478,65,40,0
481.6478,481.9739,53,40,0
481.6478,481.9739,58,40,0
481.6478,481.9739,65,40,0
481.9739,482.13693,48,50,0
482.3,482.95215,53,40,0
482.3,482.95215,57,40,0
482.3,482.95215,63,40,0
482.95215,483.27826,53,40,0
482.95215,483.27826,57,40,0
482.95215,483.27826,63,40,0
483.27826,483.44128,41,50,0
483.60434,484.2565,53,40,0
483.60434,484.2565,57,40,0
483.60434,484.2565,60,40,0
484.2565,484.58258,53,40,0
484.2565,484.58258,57,40,0
484.2565,484.58258,60,40,0
484.58258,484.74564,46,50,0
484.9087,485.56085,53,48,0
484.9087,485.56085,58,48,0
484.9087,485.56085,62,48,0
485.56085,485.88693,53,65,0
485.56085,485.88693,58,65,0
485.56085,485.88693,62,65,0
485.88693,486.05,39,84,0
486.21304,486.8652,51,82,0
486.21304,486.8652,60,82,0
486.21304,486.8652,58,82,0
486.21304,486.8652,55,82,0
486.8652,487.19128,51,99,0
486.8652,487.19128,60,99,0
486.8652,487.19128,58,99,0
486.8652,487.19128,55,99,0
487.19128,487.35434,40,110,0
487.51736,488.16956,52,92,0
487.51736,488.16956,60,92,0
487.51736,488.16956,58,92,0
487.51736,488.16956,55,92,0
488.16956,488.49564,48,75,0
488.49564,488.6587,41,76,0
488.82172,489.1478,57,58,0
488.82172,489.1478,60,58,0
489.1478,489.4739,58,49,0
489.1478,489.4739,62,49,0
489.4739,489.8,57,41,0
489.4739,489.8,63,41,0
488.82172,489.8,53,58,0
489.8,489.96304,46,50,0
490.12607,490.77826,53,40,0
490.12607,490.77826,58,40,0
490.12607,490.77826,62,40,0
490.77826,491.10434,53,40,0
490.77826,491.10434,58,40,0
490.77826,491.10434,62,40,0
491.10434,491.26736,50,50,0
491.43042,492.08258,53,40,0
491.43042,492.08258,58,40,0
491.43042,492.08258,65,40,0
492.08258,492.4087,53,40,0
492.08258,492.4087,58,40,0
492.08258,492.4087,65,40,0
492.4087,492.57172,48,50,0
492.73477,493.38693,53,40,0
492.73477,493.38693,57,40,0
492.73477,493.38693,63,40,0
493.38693,493.71304,53,40,0
493.38693,493.71304,57,40,0
493.38693,493.71304,63,40,0
493.71304,493.87607,41,50,0
494.03912,494.69128,53,40,0
494.03912,494.69128,57,40,0
494.03912,494.69128,60,40,0
494.69128,495.01736,53,40,0
494.69128,495.01736,57,40,0
494.69128,495.01736,60,40,0
495.01736,495.18042,46,50,0
495.34348,495.99564,53,59,0
495.34348,495.99564,58,59,0
495.34348,495.99564,62,59,0
495.99564,496.32172,53,99,0
495.99564,496.32172,58,99,0
495.99564,496.32172,62,99,0
496.32172,496.48477,52,110,0
496.64783,497.3,58,89,0
496.64783,497.3,61,89,0
496.64783,497.3,67,89,0
497.3,497.62607,55,65,0
497.3,497.62607,58,65,0
497.3,497.62607,61,65,0
497.62607,497.78912,41,70,0
497.95215,498.27826,58,65,0
498.27826,498.60434,57,70,0
497.95215,498.60434,60,65,0
498.60434,498.93042,60,76,0
498.60434,498.93042,63,76,0
497.95215,498.93042,53,65,0
498.93042,499.09348,46,91,0
499.2565,500.23477,58,87,0
499.2565,500.23477,62,87,0
500.23477,500.34348,38,100,0
500.34348,500.45215,40,100,0
500.45215,500.56085,42,100,0
500.56085,500.66956,43,100,0
500.66956,500.77826,45,100,0
500.77826,500.88693,46,100,0
500.88693,500.99564,48,100,0
500.99564,501.10434,50,100,0
501.10434,501.21304,52,100,0
501.21304,501.32172,54,100,0
501.32172,501.43042,55,100,0
501.43042,501.53912,57,100,0
501.53912,501.64783,58,100,0
501.64783,501.7565,62,100,0
501.7565,501.8652,58,100,0
501.8652,501.9739,55,100,0
501.9739,502.08258,58,100,0
502.08258,502.19128,55,100,0
502.19128,502.3,50,100,0
502.3,502.4087,55,100,0
502.4087,502.51736,50,100,0
502.51736,502.62607,46,100,0
502.62607,502.73477,50,100,0
502.73477,502.84348,46,100,0
502.84348,502.95215,43,100,0
502.95215,503.06085,45,100,0
503.06085,503.16956,46,100,0
503.16956,503.27826,48,100,0
503.27826,503.38693,50,100,0
503.38693,503.49564,52,100,0
503.49564,503.60434,54,100,0
503.60434,503.71304,55,100,0
503.71304,503.82172,56,100,0
503.82172,503.93042,57,100,0
503.93042,504.03912,58,100,0
504.03912,504.14783,59,100,0
504.14783,504.2565,60,100,0
504.2565,504.3652,64,100,0
504.3652,504.4739,60,100,0
504.4739,504.5826,55,100,0
504.5826,504.69128,60,100,0
504.69128,504.8,55,100,0
504.8,504.9087,52,100,0
504.9087,505.01736,55,100,0
505.01736,505.12607,52,100,0
505.12607,505.45215,48,100,0
505.45215,505.56085,45,100,0
505.56085,505.66956,48,100,0
505.66956,505.77826,53,100,0
505.77826,505.88693,57,100,0
505.88693,505.99564,60,100,0
506.7565,506.8652,46,100,0
506.8652,506.9739,50,100,0
506.9739,507.0826,55,100,0
507.0826,507.19128,58,100,0
508.06085,508.2239,48,110,0
508.38693,508.55,57,92,0
508.38693,508.55,60,92,0
508.38693,508.55,65,92,0
508.71304,508.87607,48,93,0
509.03912,509.20215,58,75,0
509.03912,509.20215,60,75,0
509.03912,509.20215,64,75,0
509.3652,509.52826,41,76,0
509.69128,510.01736,57,58,0
509.69128,510.01736,60,58,0
510.01736,510.34348,58,49,0
510.01736,510.34348,62,49,0
510.34348,510.66956,57,41,0
510.34348,510.66956,63,41,0
509.69128,510.66956,53,68,0
510.66956,510.8326,46,50,0
510.99564,511.64783,53,40,0
510.99564,511.64783,58,40,0
510.99564,511.64783,62,40,0
511.64783,511.9739,53,40,0
511.64783,511.9739,58,40,0
511.64783,511.9739,62,40,0
511.9739,512.13696,50,50,0
512.3,512.95215,56,40,0
512.3,512.95215,58,40,0
512.3,512.95215,65,40,0
512.95215,513.27826,56,40,0
512.95215,513.27826,58,40,0
512.95215,513.27826,65,40,0
513.27826,513.4413,51,50,0
513.6043,514.25653,55,45,0
513.6043,514.25653,58,45,0
513.6043,514.25653,63,45,0
514.25653,514.5826,55,56,0
514.25653,514.5826,58,56,0
514.25653,514.5826,63,56,0
514.5826,514.74567,52,71,0
514.9087,515.56085,58,67,0
514.9087,515.56085,61,67,0
514.9087,515.56085,67,67,0
515.56085,515.88696,58,78,0
515.56085,515.88696,61,78,0
515.56085,515.88696,67,78,0
515.88696,516.05,55,93,0
516.213,516.86523,58,89,0
516.213,516.86523,60,89,0
516.213,516.86523,64,89,0
516.86523,517.1913,58,99,0
516.86523,517.1913,60,99,0
516.86523,517.1913,64,99,0
517.1913,517.3543,53,110,0
517.5174,518.16956,58,89,0
517.5174,518.16956,62,89,0
517.5174,518.16956,65,89,0
518.16956,518.49567,58,65,0
518.16956,518.49567,62,65,0
518.16956,518.49567,65,65,0
518.49567,518.6587,41,70,0
518.8217,519.4739,53,65,0
518.8217,519.4739,57,65,0
518.8217,519.4739,63,65,0
519.4739,519.8,53,76,0
519.4739,519.8,57,76,0
519.4739,519.8,63,76,0
519.8,519.963,46,91,0
520.1261,521.1043,58,87,0
520.1261,521.1043,62,87,0
521.1043,521.213,38,100,0
521.213,521.3217,40,100,0
521.3217,521.4304,42,100,0
521.4304,521.5391,43,100,0
521.5391,521.6478,45,100,0
521.6478,521.75653,46,100,0
521.75653,521.86523,48,100,0
521.86523,521.9739,50,100,0
521.9739,522.0826,52,100,0
522.0826,522.1913,54,100,0
522.1913,522.3,55,100,0
522.3,522.4087,57,100,0
522.4087,522.5174,58,100,0
522.5174,522.6261,62,100,0
522.6261,522.7348,58,100,0
522.7348,522.84344,55,100,0
522.84344,522.95215,58,100,0
522.95215,523.06085,55,100,0
523.06085,523.16956,50,100,0
523.16956,523.27826,55,100,0
523.27826,523.38696,50,100,0
523.38696,523.49567,46,100,0
523.49567,523.6043,50,100,0
523.6043,523.713,46,100,0
523.713,523.8217,43,100,0
523.8217,523.9304,45,100,0
523.9304,524.0391,46,100,0
524.0391,524.1478,48,100,0
524.1478,524.25653,50,100,0
524.25653,524.36523,52,100,0
524.36523,524.4739,54,100,0
524.4739,524.5826,55,100,0
524.5826,524.6913,56,100,0
524.6913,524.8,57,100,0
524.8,524.9087,58,100,0
524.9087,525.0174,59,100,0
525.0174,525.1261,60,100,0
525.1261,525.2348,64,100,0
525.2348,525.34344,60,100,0
525.34344,525.45215,55,100,0
525.45215,525.56085,60,100,0
525.56085,525.66956,55,100,0
525.66956,525.77826,52,100,0
525.77826,525.88696,55,100,0
525.88696,525.99567,52,100,0
525.99567,526.3217,48,100,0
526.3217,526.4304,45,100,0
526.4304,526.5391,48,100,0
526.5391,526.6478,53,100,0
526.6478,526.75653,57,100,0
526.75653,526.86523,60,100,0
527.6261,527.7348,46,100,0
527.7348,527.84344,50,100,0
527.84344,527.95215,55,100,0
527.95215,528.06085,58,100,0
528.9304,529.09344,48,110,0
529.25653,529.41956,57,92,0
529.25653,529.41956,60,92,0
529.25653,529.41956,65,92,0
529.5826,529.74567,48,93,0
529.9087,530.0717,58,75,0
529.9087,530.0717,60,75,0
529.9087,530.0717,64,75,0
530.2348,530.3978,41,76,0
530.56085,530.88696,57,58,0
530.56085,530.88696,60,58,0
530.88696,531.213,58,49,0
530.88696,531.213,62,49,0
531.213,531.5391,57,41,0
531.213,531.5391,63,41,0
530.56085,531.5391,53,68,0
531.5391,531.70215,46,50,0
531.86523,532.5174,53,40,0
531.86523,532.5174,58,40,0
531.86523,532.5174,62,40,0
532.5174,532.84344,53,40,0
532.5174,532.84344,58,40,0
532.5174,532.84344,62,40,0
532.84344,533.00653,50,50,0
533.16956,533.8217,56,40,0
533.16956,533.8217,58,40,0
533.16956,533.8217,65,40,0
533.8217,534.1478,56,40,0
533.8217,534.1478,58,40,0
533.8217,534.1478,65,40,0
534.1478,534.31085,51,50,0
534.4739,535.1261,55,45,0
534.4739,535.1261,58,45,0
534.4739,535.1261,63,45,0
535.1261,535.45215,55,56,0
535.1261,535.45215,58,56,0
535.1261,535.45215,63,56,0
535.45215,535.61523,52,71,0
535.77826,536.4304,58,67,0
535.77826,536.4304,61,67,0
535.77826,536.4304,67,67,0
536.4304,536.75653,58,78,0
536.4304,536.75653,61,78,0
536.4304,536.75653,67,78,0
536.75653,536.91956,55,93,0
537.0826,537.7348,58,89,0
537.0826,537.7348,60,89,0
537.0826,537.7348,64,89,0
537.7348,538.06085,58,99,0
537.7348,538.06085,60,99,0
537.7348,538.06085,64,99,0
538.06085,538.2239,53,110,0
538.38696,539.0391,58,89,0
538.38696,539.0391,62,89,0
538.38696,539.0391,65,89,0
539.0391,539.36523,58,65,0
539.0391,539.36523,62,65,0
539.0391,539.36523,65,65,0
539.36523,539.52826,41,70,0
539.6913,540.34344,53,60,0
539.6913,540.34344,57,60,0
539.6913,540.34344,63,60,0
540.34344,540.66956,53,60,0
540.34344,540.66956,57,60,0
540.34344,540.66956,63,60,0
540.66956,540.8326,41,70,0
540.99567,541.6478,53,60,0
540.99567,541.6478,58,60,0
540.99567,541.6478,62,60,0
541.6478,541.9739,53,60,0
541.6478,541.9739,58,60,0
541.6478,541.9739,62,60,0
541.9739,542.1378,41,70,0
542.3039,542.992,51,60,0
542.3039,542.992,53,60,0
542.3039,542.992,57,60,0
542.992,543.35095,51,60,0
542.992,543.35095,53,60,0
542.992,543.35095,57,60,0
543.35095,543.53455,41,70,0
543.7207,544.49493,50,60,0
543.7207,544.49493,53,60,0
543.7207,544.49493,58,60,0
544.49493,544.9005,50,60,0
544.49493,544.9005,53,60,0
544.49493,544.9005,58,60,0
544.9005,545.10864,29,70,0
545.32043,546.2048,41,60,0
545.32043,546.2048,48,60,0
545.32043,546.2048,51,60,0
548.91327,550.16327,41,40,0
550.16327,551.23474,46,40,0
550.16327,551.23474,41,40,0
550.16327,551.23474,34,40,0
551.23474,551.77045,46,40,0
551.23474,551.77045,41,40,0
551.23474,551.77045,34,40,0
551.77045,552.30615,46,40,0
551.77045,552.30615,41,40,0
551.77045,552.30615,34,40,0
552.30615,553.37756,41,40,0
552.30615,553.37756,38,40,0
553.37756,554.44904,38,40,0
553.37756,554.44904,41,40,0
554.44904,555.52045,48,40,0
554.44904,555.52045,41,40,0
554.44904,555.52045,36,40,0
555.52045,556.05615,36,40,0
555.52045,556.05615,41,40,0
555.52045,556.05615,48,40,0
556.05615,556.59186,36,40,0
556.05615,556.59186,48,40,0
556.05615,556.59186,41,40,0
556.59186,557.6633,42,40,0
557.6633,558.73474,41,40,0
556.59186,558.73474,45,40,0
556.59186,558.73474,33,40,0
558.73474,559.80615,46,40,0
558.73474,559.80615,41,40,0
558.73474,559.80615,34,40,0
559.80615,560.34186,43,40,0
559.80615,560.34186,31,40,0
560.34186,560.87756,43,40,0
560.34186,560.87756,31,40,0
560.87756,563.02045,48,40,0
560.87756,563.02045,43,40,0
560.87756,563.02045,36,40,0
563.02045,565.1633,41,40,0
563.02045,565.1633,29,40,0
565.1633,567.30615,34,40,0
565.1633,567.30615,41,40,0
565.1633,567.30615,46,40,0
567.30615,568.37756,58,40,0
567.30615,568.37756,53,40,0
567.30615,568.37756,46,40,0
568.37756,568.9133,55,40,0
568.37756,568.9133,43,40,0
568.9133,569.44904,55,40,0
568.9133,569.44904,43,40,0
569.44904,571.59186,48,40,0
569.44904,571.59186,55,40,0
569.44904,571.59186,60,40,0
571.59186,573.73474,53,40,0
571.59186,573.73474,41,40,0
573.73474,575.8776,46,40,0
573.73474,575.8776,53,40,0
573.73474,575.8776,58,40,0
575.8776,580.1633,63,40,0
575.8776,580.1633,53,40,0
575.8776,580.1633,60,40,0
580.1633,581.23474,62,40,0
580.1633,581.23474,58,40,0
575.8776,581.23474,65,40,0
582.30615,583.3776,58,50,0
582.30615,583.3776,53,50,0
582.30615,583.3776,46,50,0
584.44904,588.73474,58,50,0
584.44904,588.73474,53,50,0
584.44904,588.73474,46,50,0
