start_time,end_time,note_value,velocity,instrument_program_number
0.65476125,0.714285,73,60,0
0.714285,0.8333325,72,60,0
0.95238,1.0714275,72,60,0
1.0714275,1.190475,73,60,0
1.190475,1.3095225,72,60,0
1.3690462,1.42857,73,60,0
1.42857,1.5476176,72,60,0
1.666665,1.7857125,72,60,0
1.7857125,1.90476,73,60,0
1.90476,2.0238075,72,60,0
2.0833313,2.142855,72,60,0
2.142855,2.38095,71,60,0
2.38095,2.4999976,71,60,0
2.4999976,2.619045,74,60,0
2.619045,2.7380924,72,60,0
2.7380924,2.85714,70,60,0
2.85714,2.9761875,72,60,0
3.095235,3.571425,67,80,0
3.571425,3.6904726,72,60,0
3.80952,3.9285674,67,60,0
4.047615,4.1666627,72,60,0
4.28571,4.523805,70,80,0
4.523805,4.6428523,68,60,0
4.6428523,4.7619,67,60,0
4.7619,4.8809476,65,60,0
4.999995,5.1190424,67,60,0
5.1190424,5.23809,70,60,0
5.23809,5.3571377,67,60,0
5.3571377,5.476185,70,60,0
5.476185,5.5952325,64,60,0
5.5952325,5.71428,67,60,0
5.71428,5.8333273,65,60,0
5.8333273,5.952375,68,60,0
5.952375,6.0714226,72,60,0
6.0714226,6.19047,77,60,0
6.19047,6.3095174,80,60,0
6.3095174,6.428565,82,60,0
6.428565,6.5476127,84,60,0
6.66666,6.7857075,84,60,0
6.7857075,6.904755,85,60,0
6.904755,7.0238023,84,60,0
7.0833263,7.14285,85,60,0
7.14285,7.2618976,84,60,0
7.380945,7.4999924,84,60,0
7.4999924,7.61904,85,60,0
7.61904,7.7380877,84,60,0
7.857135,7.9761825,84,60,0
7.9761825,8.09523,83,60,0
8.09523,8.214277,89,60,0
8.214277,8.333325,83,60,0
8.333325,8.452373,89,60,0
8.452373,8.57142,83,60,0
8.57142,8.690468,84,60,0
8.809515,9.285705,79,80,0
9.285705,9.404753,84,60,0
9.5238,9.642847,79,60,0
9.761895,9.880942,84,60,0
9.99999,10.238085,82,80,0
10.238085,10.357133,80,60,0
10.357133,10.47618,79,60,0
10.47618,10.595227,77,60,0
10.714275,10.833323,79,60,0
10.833323,10.95237,82,60,0
10.95237,11.071418,79,60,0
11.071418,11.190465,82,60,0
11.190465,11.309512,76,60,0
11.309512,11.42856,79,60,0
11.42856,11.547607,77,60,0
11.666655,11.785703,65,100,0
11.785703,11.90475,67,100,0
11.90475,12.023797,68,100,0
12.023797,12.142845,70,100,0
12.142845,12.261892,72,120,0
12.38094,12.499988,60,100,0
12.619035,12.738083,72,120,0
12.85713,12.976177,60,100,0
13.095225,13.2142725,72,120,0
13.33332,13.452368,60,100,0
13.571415,13.690462,67,60,0
13.571415,13.690462,70,60,0
13.80951,13.928557,65,60,0
13.80951,13.928557,68,60,0
13.928557,14.047605,64,60,0
13.928557,14.047605,67,60,0
14.047605,14.166653,65,60,0
14.047605,14.166653,68,60,0
14.166653,14.2857,67,60,0
14.166653,14.2857,70,60,0
14.2857,14.999985,64,60,0
14.2857,14.999985,67,60,0
14.999985,15.119033,72,100,0
15.23808,15.357127,60,100,0
15.476175,15.71427,72,100,0
15.71427,15.833318,73,120,0
15.952365,16.071413,61,100,0
16.19046,16.309507,73,100,0
16.428555,16.547602,68,60,0
16.428555,16.547602,72,60,0
16.547602,16.66665,67,60,0
16.547602,16.66665,70,60,0
16.66665,16.785698,65,60,0
16.66665,16.785698,68,60,0
16.785698,16.904745,67,60,0
16.785698,16.904745,70,60,0
16.904745,17.023792,65,60,0
16.904745,17.023792,68,60,0
17.023792,17.14284,64,60,0
17.023792,17.14284,67,60,0
17.14284,17.261887,65,60,0
17.380936,17.499983,77,100,0
17.499983,17.61903,79,100,0
17.61903,17.738077,80,100,0
17.738077,17.857124,82,100,0
17.857124,17.976173,84,120,0
18.09522,18.214268,72,100,0
18.333315,18.452362,84,120,0
18.57141,18.690458,72,100,0
18.809505,18.928553,84,120,0
19.0476,19.166647,72,100,0
19.285694,19.404743,79,60,0
19.285694,19.404743,82,60,0
19.52379,19.642838,77,60,0
19.52379,19.642838,80,60,0
19.642838,19.761885,76,60,0
19.642838,19.761885,79,60,0
19.761885,19.880932,77,60,0
19.761885,19.880932,80,60,0
19.880932,19.99998,79,60,0
19.880932,19.99998,82,60,0
19.99998,20.714266,76,60,0
19.99998,20.714266,79,60,0
20.714266,20.833313,84,100,0
20.95236,21.071407,72,100,0
21.190454,21.42855,84,100,0
21.42855,21.547598,85,120,0
21.666645,21.785692,73,100,0
21.90474,22.023788,85,100,0
22.142836,22.261883,70,60,0
22.142836,22.261883,73,60,0
22.261883,22.38093,68,60,0
22.261883,22.38093,71,60,0
22.38093,22.499977,66,60,0
22.38093,22.499977,70,60,0
22.499977,22.619024,68,60,0
22.499977,22.619024,71,60,0
22.619024,22.738073,66,60,0
22.619024,22.738073,70,60,0
22.738073,22.85712,65,60,0
22.738073,22.85712,68,60,0
22.85712,22.976168,66,60,0
22.85712,22.976168,70,60,0
23.095215,23.214262,70,60,0
23.095215,23.214262,66,60,0
23.33331,23.452358,70,60,0
23.33331,23.452358,66,60,0
23.571405,23.690453,65,60,0
23.571405,23.690453,68,60,0
23.571405,23.690453,71,60,0
23.8095,23.928547,65,67,0
23.8095,23.928547,68,67,0
23.8095,23.928547,71,67,0
24.047594,24.166643,65,74,0
24.047594,24.166643,68,74,0
24.047594,24.166643,71,74,0
24.28569,24.404737,77,82,0
24.28569,24.404737,80,82,0
24.28569,24.404737,83,82,0
24.523785,24.642832,77,89,0
24.523785,24.642832,80,89,0
24.523785,24.642832,83,89,0
24.76188,24.880928,77,97,0
24.76188,24.880928,80,97,0
24.76188,24.880928,83,97,0
24.999975,25.119022,92,100,0
24.999975,25.119022,96,100,0
25.119022,25.23807,91,100,0
25.119022,25.23807,94,100,0
25.23807,25.357117,89,100,0
25.23807,25.357117,92,100,0
25.357117,25.476166,91,100,0
25.357117,25.476166,94,100,0
25.476166,25.595213,89,100,0
25.476166,25.595213,92,100,0
25.595213,25.71426,88,100,0
25.595213,25.71426,91,100,0
25.71426,25.833307,89,100,0
25.952354,26.071402,65,100,0
26.071402,26.19045,67,100,0
26.19045,26.309498,68,100,0
26.309498,26.428545,70,100,0
26.428545,26.547592,72,120,0
26.66664,26.785688,60,100,0
26.904736,27.023783,72,120,0
27.14283,27.261877,60,100,0
27.380924,27.499973,72,120,0
27.61902,27.738068,60,100,0
27.857115,27.976162,67,60,0
27.857115,27.976162,70,60,0
28.09521,28.214258,65,60,0
28.09521,28.214258,68,60,0
28.214258,28.333305,64,60,0
28.214258,28.333305,67,60,0
28.333305,28.452353,65,60,0
28.333305,28.452353,68,60,0
28.452353,28.5714,67,60,0
28.452353,28.5714,70,60,0
28.5714,29.285685,64,60,0
28.5714,29.285685,67,60,0
29.285685,29.404732,72,100,0
29.52378,29.642828,60,100,0
29.761875,29.99997,72,100,0
29.99997,30.119017,73,120,0
30.238066,30.357113,61,100,0
30.47616,30.595207,73,100,0
30.714254,30.833303,68,60,0
30.714254,30.833303,72,60,0
30.833303,30.95235,67,60,0
30.833303,30.95235,70,60,0
30.95235,31.071398,65,60,0
30.95235,31.071398,68,60,0
31.071398,31.190445,67,60,0
31.071398,31.190445,70,60,0
31.190445,31.309492,65,60,0
31.190445,31.309492,68,60,0
31.309492,31.42854,64,60,0
31.309492,31.42854,67,60,0
31.42854,31.547588,65,60,0
31.666636,31.785683,77,100,0
31.785683,31.90473,79,100,0
31.90473,32.023777,80,100,0
32.023777,32.142826,82,100,0
32.142826,32.26187,84,120,0
32.38092,32.499966,72,100,0
32.619015,32.738064,84,120,0
32.85711,32.97616,72,100,0
33.095203,33.214252,84,120,0
33.3333,33.452347,72,100,0
33.571396,33.69044,79,60,0
33.571396,33.69044,82,60,0
33.80949,33.92854,77,60,0
33.80949,33.92854,80,60,0
33.92854,34.047585,76,60,0
33.92854,34.047585,79,60,0
34.047585,34.166634,77,60,0
34.047585,34.166634,80,60,0
34.166634,34.28568,79,60,0
34.166634,34.28568,82,60,0
34.28568,34.999966,76,60,0
34.28568,34.999966,79,60,0
34.999966,35.11901,84,100,0
35.23806,35.35711,72,100,0
35.476154,35.71425,84,100,0
35.71425,35.833298,85,120,0
35.952347,36.071392,73,100,0
36.19044,36.309486,85,100,0
36.428535,36.54758,70,60,0
36.428535,36.54758,73,60,0
36.54758,36.66663,68,60,0
36.54758,36.66663,71,60,0
36.66663,36.78568,66,60,0
36.66663,36.78568,70,60,0
36.78568,36.904724,68,60,0
36.78568,36.904724,71,60,0
36.904724,37.023773,66,60,0
36.904724,37.023773,70,60,0
37.023773,37.14282,65,60,0
37.023773,37.14282,68,60,0
37.14282,37.261868,66,60,0
37.14282,37.261868,70,60,0
37.380917,37.49996,70,60,0
37.380917,37.49996,66,60,0
37.61901,37.738056,70,60,0
37.61901,37.738056,66,60,0
37.857105,37.976154,65,60,0
37.857105,37.976154,68,60,0
37.857105,37.976154,71,60,0
38.0952,38.21425,65,67,0
38.0952,38.21425,68,67,0
38.0952,38.21425,71,67,0
38.333294,38.452343,65,74,0
38.333294,38.452343,68,74,0
38.333294,38.452343,71,74,0
38.57139,38.690437,77,82,0
38.57139,38.690437,80,82,0
38.57139,38.690437,83,82,0
38.809486,38.92853,77,89,0
38.809486,38.92853,80,89,0
38.809486,38.92853,83,89,0
39.04758,39.166626,77,97,0
39.04758,39.166626,80,97,0
39.04758,39.166626,83,97,0
39.285675,39.404724,92,100,0
39.285675,39.404724,96,100,0
39.404724,39.52377,91,100,0
39.404724,39.52377,94,100,0
39.52377,39.64282,89,100,0
39.52377,39.64282,92,100,0
39.64282,39.761864,91,100,0
39.64282,39.761864,94,100,0
39.761864,39.880913,89,100,0
39.761864,39.880913,92,100,0
39.880913,39.99996,88,100,0
39.880913,39.99996,91,100,0
39.99996,40.119007,89,100,0
40.238056,40.31742,91,100,0
40.31742,40.396786,92,100,0
40.396786,40.47615,91,100,0
40.47615,40.535675,92,100,0
40.535675,40.595196,91,100,0
40.595196,40.65472,92,100,0
40.65472,40.714245,91,100,0
40.714245,40.77377,92,100,0
40.77377,40.833294,91,100,0
40.833294,40.892815,92,100,0
40.892815,40.95234,91,100,0
40.95234,41.011864,92,100,0
41.011864,41.07139,91,100,0
41.07139,41.130913,90,100,0
41.130913,41.190434,91,100,0
41.190434,41.309483,92,100,0
41.309483,41.42853,91,100,0
41.42853,41.547577,89,100,0
41.666626,41.74599,79,100,0
41.74599,41.825356,80,100,0
41.825356,41.90472,79,100,0
41.90472,41.964245,80,100,0
41.964245,42.02377,79,100,0
42.02377,42.08329,80,100,0
42.08329,42.142815,79,100,0
42.142815,42.20234,80,100,0
42.20234,42.261864,79,100,0
42.261864,42.321384,80,100,0
42.321384,42.38091,79,100,0
42.38091,42.440434,80,100,0
42.440434,42.499958,79,100,0
42.499958,42.559483,78,100,0
42.559483,42.619003,79,100,0
42.619003,42.738052,80,100,0
42.738052,42.8571,79,100,0
42.8571,42.976147,77,100,0
43.095196,43.17456,91,100,0
43.17456,43.253925,92,100,0
43.253925,43.33329,91,100,0
43.33329,43.392815,92,100,0
43.392815,43.45234,91,100,0
43.45234,43.51186,92,100,0
43.51186,43.571384,91,100,0
43.571384,43.63091,90,100,0
43.63091,43.690434,91,100,0
43.690434,43.749958,92,100,0
43.749958,43.80948,94,100,0
43.80948,43.869003,96,100,0
43.869003,43.928528,97,100,0
43.928528,43.988052,100,100,0
43.988052,44.047577,101,100,0
44.047577,44.087257,100,100,0
44.087257,44.12694,97,100,0
44.12694,44.166622,96,100,0
44.166622,44.206306,94,100,0
44.206306,44.245987,92,100,0
44.245987,44.28567,91,100,0
44.28567,44.404716,89,100,0
44.523766,44.60313,79,100,0
44.60313,44.682495,80,100,0
44.682495,44.76186,79,100,0
44.76186,44.821384,80,100,0
44.821384,44.88091,79,100,0
44.88091,44.94043,80,100,0
44.94043,44.999954,79,100,0
44.999954,45.047573,77,100,0
45.047573,45.095192,79,100,0
45.095192,45.14281,80,100,0
45.14281,45.19043,82,100,0
45.19043,45.23805,84,100,0
45.23805,45.285667,85,100,0
45.285667,45.333286,88,99,0
45.333286,45.380905,89,97,0
45.380905,45.428528,91,95,0
45.428528,45.476147,89,94,0
45.476147,45.519794,88,92,0
45.495987,45.53964,85,91,0
45.535667,45.57932,84,90,0
45.567413,45.611065,82,89,0
45.607098,45.65075,80,87,0
45.630905,45.674557,79,86,0
45.674557,45.71424,77,85,0
45.71424,45.774376,76,83,0
45.774376,45.836754,73,81,0
45.836754,45.90155,72,79,0
45.90155,45.96909,70,77,0
45.96909,46.03952,68,75,0
46.03952,46.11304,67,73,0
46.11304,46.190163,66,71,0
46.190163,46.271015,67,68,0
46.271015,46.327164,68,66,0
46.327164,46.385216,69,65,0
46.385216,46.445553,70,63,0
46.445553,46.50811,71,62,0
46.50811,46.57306,72,61,0
46.57306,46.640892,73,60,0
46.640892,46.75994,72,60,0
46.878986,46.998035,72,60,0
46.998035,47.11708,73,60,0
47.11708,47.23613,72,60,0
47.295654,47.35518,73,60,0
47.35518,47.474224,72,60,0
47.593273,47.71232,72,60,0
47.71232,47.831367,73,60,0
47.831367,47.950417,72,60,0
48.06946,48.18851,72,60,0
48.18851,48.307556,71,60,0
48.307556,48.426605,71,60,0
48.426605,48.545654,74,60,0
48.545654,48.6647,72,60,0
48.6647,48.78375,70,60,0
48.78375,48.902794,72,60,0
49.021843,49.49803,67,80,0
49.49803,49.61708,72,60,0
49.736126,49.855175,67,60,0
49.974224,50.09327,72,60,0
50.21232,50.450413,70,80,0
50.450413,50.56946,68,60,0
50.56946,50.688507,67,60,0
50.688507,50.807556,65,60,0
50.9266,51.04565,67,60,0
51.04565,51.164696,70,60,0
51.164696,51.283745,67,60,0
51.283745,51.402794,70,60,0
51.402794,51.52184,64,60,0
51.52184,51.64089,67,60,0
51.64089,51.759933,65,60,0
51.759933,51.878983,68,60,0
51.878983,51.99803,72,60,0
51.99803,52.117077,77,60,0
52.117077,52.236126,80,60,0
52.236126,52.35517,82,60,0
52.35517,52.47422,84,60,0
52.59327,52.712315,84,60,0
52.712315,52.831364,85,60,0
52.831364,52.95041,84,60,0
53.009933,53.069458,85,60,0
53.069458,53.188503,84,60,0
53.307552,53.4266,84,60,0
53.4266,53.545647,85,60,0
53.545647,53.664696,84,60,0
53.78374,53.90279,84,60,0
53.90279,54.02184,83,60,0
54.02184,54.140884,89,60,0
54.140884,54.259933,83,60,0
54.259933,54.37898,89,60,0
54.37898,54.498028,83,60,0
54.498028,54.617077,84,60,0
54.736122,55.21231,79,80,0
55.21231,55.33136,84,60,0
55.45041,55.569454,79,60,0
55.688503,55.80755,84,60,0
55.926598,56.164692,82,80,0
56.164692,56.28374,80,60,0
56.28374,56.402786,79,60,0
56.402786,56.521835,77,60,0
56.640884,56.75993,82,60,0
56.87898,56.998024,77,63,0
57.117073,57.23612,82,67,0
57.355167,57.59326,80,90,0
57.59326,57.71231,79,74,0
57.71231,57.831356,77,75,0
57.831356,57.950405,75,77,0
58.069454,58.1885,80,81,0
58.30755,58.426594,75,84,0
58.545643,58.664692,80,88,0
58.783737,58.902786,81,91,0
59.02183,59.14088,75,95,0
59.259926,59.378975,81,98,0
59.498024,59.61707,82,120,0
59.73612,59.855164,77,100,0
59.73612,59.855164,74,100,0
59.974213,60.09326,86,120,0
60.212307,60.331356,82,100,0
60.212307,60.331356,77,100,0
60.4504,60.56945,89,120,0
60.688496,60.807545,86,100,0
60.688496,60.807545,82,100,0
60.926594,61.04564,92,120,0
61.04564,61.16469,90,100,0
61.16469,61.283733,89,100,0
61.283733,61.402782,90,100,0
61.402782,61.52183,87,100,0
61.640877,61.759926,84,100,0
61.87897,61.99802,81,100,0
62.11707,62.236115,78,100,0
62.355164,62.47421,82,120,0
62.593258,62.712303,77,100,0
62.593258,62.712303,74,100,0
62.831352,62.9504,86,120,0
63.069447,63.188496,82,100,0
63.069447,63.188496,77,100,0
63.30754,63.42659,89,120,0
63.54564,63.664684,86,100,0
63.54564,63.664684,82,100,0
63.783733,63.90278,92,120,0
63.90278,64.02183,90,100,0
64.02183,64.14088,89,100,0
64.14088,64.259926,90,100,0
64.259926,64.37897,87,100,0
64.49802,64.617065,84,100,0
64.736115,64.85516,81,100,0
64.974205,65.093254,78,100,0
65.2123,65.33135,82,120,0
65.4504,65.56944,77,100,0
65.4504,65.56944,74,100,0
65.68849,65.80754,83,120,0
65.92659,66.04563,77,100,0
65.92659,66.04563,74,100,0
66.16468,66.28373,86,120,0
66.40278,66.52183,83,100,0
66.40278,66.52183,77,100,0
66.64087,66.75992,84,120,0
66.87897,66.99802,79,100,0
66.87897,66.99802,76,100,0
67.117065,67.23611,88,120,0
67.355156,67.474205,79,100,0
67.355156,67.474205,85,100,0
67.593254,67.7123,91,120,0
67.831345,67.95039,82,100,0
67.831345,67.95039,85,100,0
67.831345,67.95039,88,100,0
68.06944,68.18849,89,120,0
68.30754,68.42658,84,100,0
68.30754,68.42658,77,100,0
68.54563,68.66468,94,120,0
68.78373,68.90278,82,100,0
69.02182,69.14087,96,120,0
69.25992,69.37897,84,100,0
69.49801,69.61706,89,100,0
69.49801,69.61706,101,100,0
69.73611,69.815475,91,100,0
69.815475,69.89484,92,100,0
69.89484,69.974205,91,100,0
69.974205,70.03373,92,100,0
70.03373,70.09325,91,100,0
70.09325,70.15277,92,100,0
70.15277,70.212296,91,100,0
70.212296,70.27182,92,100,0
70.27182,70.331345,91,100,0
70.331345,70.39087,92,100,0
70.39087,70.45039,91,100,0
70.45039,70.50992,92,100,0
70.50992,70.56944,91,100,0
70.56944,70.62897,90,100,0
70.62897,70.688484,91,100,0
70.688484,70.80753,92,100,0
70.80753,70.92658,91,100,0
70.92658,71.04563,89,100,0
71.16468,71.24404,79,100,0
71.24404,71.32341,80,100,0
71.32341,71.40277,79,100,0
71.40277,71.462296,80,100,0
71.462296,71.52182,79,100,0
71.52182,71.581345,80,100,0
71.581345,71.64087,79,100,0
71.64087,71.70039,80,100,0
71.70039,71.75992,79,100,0
71.75992,71.819435,80,100,0
71.819435,71.87896,79,100,0
71.87896,71.938484,80,100,0
71.938484,71.99801,79,100,0
71.99801,72.05753,78,100,0
72.05753,72.11706,79,100,0
72.11706,72.23611,80,100,0
72.23611,72.355156,79,100,0
72.355156,72.4742,77,100,0
72.59325,72.672615,91,100,0
72.672615,72.751976,92,100,0
72.751976,72.831345,91,100,0
72.831345,72.89087,92,100,0
72.89087,72.95039,91,100,0
72.95039,73.00991,92,100,0
73.00991,73.069435,91,100,0
73.069435,73.12896,90,100,0
73.12896,73.188484,91,100,0
73.188484,73.24801,92,100,0
73.24801,73.30753,94,100,0
73.30753,73.36706,96,100,0
73.36706,73.42658,97,100,0
73.42658,73.48611,100,100,0
73.48611,73.54562,101,100,0
73.54562,73.58531,100,100,0
73.58531,73.62499,97,100,0
73.62499,73.66467,96,100,0
73.66467,73.70436,94,100,0
73.70436,73.74404,92,100,0
73.74404,73.78372,91,100,0
73.78372,73.90277,89,100,0
74.02182,74.10118,79,100,0
74.10118,74.18055,80,100,0
74.18055,74.25991,79,100,0
74.25991,74.319435,80,100,0
74.319435,74.37896,79,100,0
74.37896,74.438484,80,100,0
74.438484,74.49801,79,100,0
74.49801,74.54597,77,100,0
74.54597,74.59531,79,100,0
74.59531,74.64611,80,100,0
74.64611,74.69855,82,100,0
74.69855,74.75285,84,100,0
74.75285,74.80896,85,100,0
74.80896,74.86696,88,100,0
74.86696,74.92727,89,100,0
74.92727,74.98991,91,100,0
74.98991,75.05479,89,100,0
75.05479,75.08266,88,100,0
75.07151,75.09952,85,100,0
75.09952,75.12806,84,100,0
75.11664,75.14551,82,100,0
75.14551,75.17485,80,100,0
75.16311,75.1929,79,100,0
75.20494,75.2355,77,100,0
75.223145,75.25401,76,100,0
75.25401,75.28554,73,100,0
75.28554,75.31757,72,100,0
75.31757,75.350136,70,100,0
75.34362,75.37691,68,100,0
75.3903,75.42466,67,100,0
75.42466,75.54371,65,100,0
76.13895,76.257996,67,120,0
76.13895,76.257996,73,120,0
76.13895,76.257996,79,120,0
76.13895,76.257996,75,120,0
76.13895,76.257996,70,120,0
77.37704,77.496086,80,40,0
77.496086,77.615135,82,40,0
77.615135,77.734184,84,40,0
77.734184,77.85323,85,40,0
77.85323,77.972275,87,40,0
77.972275,78.091324,85,40,0
78.091324,78.21037,84,40,0
78.21037,78.32942,82,40,0
78.32942,78.44847,80,40,0
78.44847,78.56751,79,40,0
78.56751,78.68656,77,40,0
78.68656,78.80561,75,40,0
78.80561,78.92466,73,40,0
78.92466,79.04371,72,40,0
79.04371,79.16275,70,40,0
79.16275,79.2818,68,40,0
79.2818,79.40085,67,40,0
79.40085,79.5199,68,40,0
79.5199,79.63894,70,40,0
79.63894,79.75799,72,40,0
79.75799,79.87704,73,40,0
79.87704,79.996086,75,40,0
79.996086,80.115135,77,40,0
80.115135,80.23418,79,40,0
80.23418,80.353226,80,40,0
80.353226,80.472275,82,40,0
80.472275,80.591324,84,40,0
80.591324,80.71037,85,40,0
80.71037,80.829414,89,40,0
80.829414,80.94846,87,40,0
80.94846,81.06751,85,40,0
81.06751,81.18656,84,40,0
81.18656,81.30561,82,40,0
81.30561,81.42465,80,40,0
81.42465,81.5437,79,40,0
81.5437,81.66275,77,40,0
81.66275,81.7818,75,40,0
81.7818,81.90085,77,40,0
81.90085,82.01989,73,40,0
82.01989,82.13894,75,40,0
82.13894,82.25799,72,40,0
82.25799,82.37704,75,40,0
82.37704,82.496086,70,40,0
82.496086,82.61513,75,40,0
82.61513,82.73418,68,40,0
82.73418,82.853226,75,40,0
82.853226,82.972275,67,40,0
82.972275,83.091324,75,40,0
83.091324,83.210365,80,40,0
83.210365,83.329414,82,40,0
83.329414,83.44846,83,40,0
83.44846,83.56751,85,40,0
83.56751,83.686554,87,40,0
83.686554,83.8056,85,40,0
83.8056,83.92465,83,40,0
83.92465,84.0437,82,40,0
84.0437,84.16275,80,40,0
84.16275,84.28179,78,40,0
84.28179,84.40084,76,40,0
84.40084,84.51989,75,40,0
84.51989,84.63894,73,40,0
84.63894,84.75799,71,40,0
84.75799,84.87703,70,40,0
84.87703,84.99608,68,40,0
84.99608,85.11513,67,40,0
85.11513,85.23418,68,40,0
85.23418,85.353226,70,40,0
85.353226,85.47227,71,40,0
85.47227,85.59132,73,40,0
85.59132,85.710365,75,40,0
85.710365,85.829414,76,40,0
85.829414,85.94846,79,40,0
85.94846,86.067505,80,40,0
86.067505,86.186554,82,40,0
86.186554,86.3056,83,40,0
86.3056,86.42465,85,40,0
86.42465,86.5437,88,40,0
86.5437,86.66274,87,40,0
86.66274,86.78179,85,40,0
86.78179,86.90084,83,40,0
86.90084,87.01989,82,40,0
87.01989,87.13893,80,40,0
87.13893,87.25798,78,40,0
87.25798,87.37703,76,40,0
87.37703,87.49608,75,40,0
87.61513,87.73417,73,40,0
87.73417,87.85322,75,40,0
87.85322,87.97227,71,40,0
87.97227,88.09132,75,40,0
88.09132,88.210365,70,40,0
88.210365,88.32941,75,40,0
88.32941,88.448456,68,40,0
88.448456,88.567505,75,40,0
88.567505,88.686554,67,40,0
88.8056,88.924644,80,40,0
88.924644,89.04369,82,41,0
89.04369,89.16274,84,42,0
89.16274,89.28179,85,43,0
89.28179,89.40084,87,45,0
89.40084,89.51988,85,46,0
89.51988,89.63893,84,47,0
89.63893,89.75798,82,49,0
89.75798,89.87703,80,50,0
89.87703,89.99608,79,51,0
89.99608,90.11512,77,53,0
90.11512,90.23417,75,54,0
90.23417,90.35322,73,55,0
90.35322,90.47227,72,56,0
90.47227,90.59132,70,58,0
90.59132,90.71036,68,59,0
90.71036,90.82941,67,60,0
90.82941,90.948456,68,62,0
90.948456,91.067505,70,63,0
91.067505,91.18655,72,64,0
91.18655,91.305595,73,66,0
91.305595,91.424644,75,67,0
91.424644,91.54369,77,68,0
91.54369,91.66274,79,69,0
91.66274,91.781784,80,71,0
91.781784,91.90083,82,72,0
91.90083,92.01988,84,73,0
92.01988,92.13893,85,75,0
92.13893,92.25798,87,76,0
92.25798,92.37702,89,77,0
92.37702,92.49607,91,79,0
92.49607,92.61512,92,80,0
92.61512,92.73417,94,81,0
92.73417,92.85322,96,83,0
92.85322,92.97226,97,84,0
92.97226,93.09131,99,85,0
93.09131,93.21036,101,86,0
93.21036,93.32941,99,88,0
93.32941,93.448456,97,89,0
93.448456,93.5675,96,90,0
93.5675,93.68655,94,92,0
93.68655,93.805595,92,93,0
93.805595,93.924644,91,94,0
93.924644,94.04369,89,96,0
94.04369,94.162735,87,97,0
94.162735,94.281784,85,98,0
94.281784,94.40083,84,99,0
94.40083,94.51988,82,100,0
94.51988,94.63893,80,100,0
94.63893,94.75797,82,100,0
94.75797,94.87702,83,100,0
94.87702,94.99607,85,100,0
94.99607,95.11512,87,100,0
95.11512,95.23416,85,100,0
95.23416,95.35321,83,100,0
95.35321,95.47226,82,100,0
95.47226,95.59131,80,100,0
95.59131,95.71036,78,100,0
95.71036,95.8294,76,100,0
95.8294,95.94845,75,100,0
95.94845,96.0675,73,100,0
96.0675,96.18655,71,100,0
96.18655,96.305595,70,100,0
96.305595,96.42464,68,100,0
96.42464,96.543686,67,100,0
96.543686,96.662735,68,100,0
96.662735,96.781784,70,100,0
96.781784,96.90083,71,100,0
96.90083,97.019875,73,100,0
97.019875,97.13892,75,100,0
97.13892,97.25797,76,100,0
97.25797,97.37702,79,100,0
97.37702,97.49607,80,100,0
97.49607,97.61511,82,100,0
97.61511,97.73416,83,100,0
97.73416,97.85321,85,100,0
97.85321,97.97226,87,100,0
97.97226,98.09131,89,100,0
98.09131,98.21035,91,100,0
98.21035,98.3294,92,100,0
98.3294,98.44845,94,100,0
98.44845,98.5675,95,100,0
98.5675,98.68655,97,100,0
98.68655,98.80559,99,100,0
98.80559,98.92464,100,100,0
98.92464,99.043686,99,100,0
99.043686,99.162735,97,100,0
99.162735,99.28178,95,100,0
99.28178,99.400826,94,100,0
99.400826,99.519875,92,100,0
99.519875,99.63892,91,100,0
99.63892,99.75797,88,100,0
99.75797,99.877014,87,100,0
99.877014,99.99606,85,100,0
99.99606,100.11511,83,100,0
100.11511,100.23416,82,100,0
100.23416,100.35321,87,100,0
100.35321,100.47225,85,97,0
100.47225,100.5913,83,93,0
100.5913,100.71035,82,89,0
100.71035,100.8294,80,86,0
100.8294,100.94845,78,82,0
100.94845,101.06749,76,78,0
101.06749,101.18654,75,74,0
101.18654,101.30559,73,71,0
101.30559,101.42464,71,67,0
101.42464,101.543686,70,63,0
101.543686,101.66273,68,60,0
101.66273,101.78178,69,60,0
101.78178,101.900826,73,60,0
101.900826,102.019875,69,60,0
102.019875,102.13892,73,60,0
102.13892,102.257965,76,60,0
102.377014,102.49606,67,60,0
102.49606,102.61511,70,60,0
102.61511,102.73415,67,60,0
102.73415,102.8532,70,60,0
102.8532,102.97225,75,60,0
103.0913,103.21035,99,100,0
103.21035,103.32939,97,97,0
103.32939,103.44844,95,93,0
103.44844,103.56749,94,89,0
103.56749,103.68654,92,86,0
103.68654,103.80559,90,82,0
103.80559,103.92463,88,78,0
103.92463,104.04368,87,74,0
104.04368,104.16273,85,71,0
104.16273,104.28178,83,67,0
104.28178,104.400826,82,63,0
104.400826,104.51987,80,60,0
104.51987,104.638916,81,60,0
104.638916,104.757965,85,60,0
104.757965,104.877014,81,60,0
104.877014,104.99606,85,60,0
104.99606,105.115105,88,60,0
105.23415,105.3532,79,60,0
105.3532,105.47225,82,60,0
105.47225,105.5913,79,60,0
105.5913,105.71034,82,60,0
105.71034,105.82939,87,60,0
105.94844,106.06749,92,100,0
106.06749,106.18654,87,97,0
106.18654,106.30558,85,93,0
106.30558,106.42463,83,89,0
106.42463,106.504,82,86,0
106.504,106.58336,80,83,0
106.58336,106.66273,78,81,0
106.66273,106.78177,76,78,0
106.78177,106.90082,75,74,0
106.90082,107.01987,73,71,0
107.01987,107.138916,71,67,0
107.138916,107.257965,70,63,0
107.257965,107.37701,68,60,0
107.37701,107.49956,69,60,0
107.49956,107.63452,73,60,0
107.63452,107.78532,69,60,0
107.78532,107.95599,73,60,0
107.95599,108.88576,76,60,0
108.88576,109.38576,75,60,0
109.38576,110.06757,67,60,0
110.06757,110.18662,68,40,0
110.18662,110.30567,71,40,0
110.30567,110.42471,68,40,0
110.42471,110.54376,71,40,0
110.54376,110.66281,80,40,0
110.78186,110.90091,70,40,0
110.90091,111.01995,73,40,0
111.01995,111.139,70,40,0
111.139,111.25805,73,40,0
111.25805,111.3771,82,40,0
111.49615,111.61519,71,40,0
111.61519,111.73424,75,40,0
111.73424,111.85329,71,40,0
111.85329,111.972336,75,40,0
111.972336,112.091385,83,40,0
112.21043,112.329475,70,50,0
112.21043,112.329475,73,50,0
112.21043,112.329475,82,50,0
112.448524,112.56757,82,50,0
112.448524,112.56757,70,50,0
112.448524,112.56757,73,50,0
112.68662,112.805664,80,50,0
112.68662,112.805664,68,50,0
112.68662,112.805664,71,50,0
112.92471,113.04376,67,40,0
113.04376,113.16281,70,40,0
113.16281,113.28185,67,40,0
113.28185,113.4009,70,40,0
113.4009,113.51995,79,40,0
113.639,113.75805,68,40,0
113.75805,113.87709,71,40,0
113.87709,113.99614,68,40,0
113.99614,114.11519,71,40,0
114.11519,114.23424,80,40,0
114.35329,114.47233,70,40,0
114.47233,114.59138,73,40,0
114.59138,114.71043,70,40,0
114.71043,114.829475,73,40,0
114.829475,114.948524,82,40,0
115.067566,115.186615,80,50,0
115.067566,115.186615,68,50,0
115.067566,115.186615,71,50,0
115.305664,115.42471,80,50,0
115.305664,115.42471,68,50,0
115.305664,115.42471,71,50,0
115.54376,115.6628,79,50,0
115.54376,115.6628,70,50,0
115.54376,115.6628,67,50,0
115.78185,115.9009,68,40,0
115.9009,116.01995,71,40,0
116.01995,116.139,68,40,0
116.139,116.25804,71,40,0
116.25804,116.37709,80,40,0
116.49614,116.61519,70,40,0
116.61519,116.73424,73,40,0
116.73424,116.85328,70,40,0
116.85328,116.97233,73,40,0
116.97233,117.09138,82,40,0
117.21043,117.32947,71,40,0
117.32947,117.44852,75,40,0
117.44852,117.567566,71,40,0
117.567566,117.686615,75,40,0
117.686615,117.805664,83,40,0
117.924706,118.1628,73,50,0
117.924706,118.1628,76,50,0
117.924706,118.1628,85,50,0
118.1628,118.4009,73,50,0
118.1628,118.4009,76,50,0
118.1628,118.4009,85,50,0
118.4009,118.63899,75,50,0
118.4009,118.63899,78,50,0
118.4009,118.63899,87,50,0
118.63899,118.75804,71,40,0
118.75804,118.87709,75,40,0
118.87709,118.99614,71,40,0
118.99614,119.11518,75,40,0
119.11518,119.23423,83,40,0
119.35328,119.59138,73,50,0
119.35328,119.59138,76,50,0
119.35328,119.59138,85,50,0
119.59138,119.82947,73,50,0
119.59138,119.82947,76,50,0
119.59138,119.82947,85,50,0
119.82947,120.067566,75,50,0
119.82947,120.067566,78,50,0
119.82947,120.067566,87,50,0
120.067566,120.186615,70,40,0
120.186615,120.30566,75,40,0
120.30566,120.424706,70,40,0
120.424706,120.543755,75,40,0
120.543755,120.6628,82,40,0
120.78185,120.900894,71,40,0
120.900894,121.01994,75,40,0
121.01994,121.13899,71,40,0
121.13899,121.25804,75,40,0
121.25804,121.37708,83,40,0
121.49613,121.61518,73,40,0
121.61518,121.73423,76,40,0
121.73423,121.85328,73,40,0
121.85328,121.97232,76,40,0
121.97232,122.09137,85,40,0
122.21042,122.44852,71,50,0
122.21042,122.44852,83,50,0
122.21042,122.44852,80,50,0
122.21042,122.44852,75,50,0
122.44852,122.68661,83,50,0
122.44852,122.68661,71,50,0
122.44852,122.68661,75,50,0
122.44852,122.68661,80,50,0
122.68661,122.924706,70,50,0
122.68661,122.924706,82,50,0
122.68661,122.924706,79,50,0
122.68661,122.924706,75,50,0
122.924706,123.043755,70,40,0
123.043755,123.162796,75,40,0
123.162796,123.281845,70,40,0
123.281845,123.400894,75,40,0
123.400894,123.51994,82,40,0
123.63899,123.75803,71,40,0
123.75803,123.87708,75,40,0
123.87708,123.99613,71,40,0
123.99613,124.11518,75,40,0
124.11518,124.23423,83,40,0
124.35327,124.47232,73,40,0
124.47232,124.59137,76,40,0
124.59137,124.71042,72,40,0
124.71042,124.82946,76,40,0
124.82946,124.94851,85,40,0
125.06756,125.30566,71,50,0
125.06756,125.30566,83,50,0
125.06756,125.30566,80,50,0
125.06756,125.30566,75,50,0
125.30566,125.54375,71,50,0
125.30566,125.54375,83,50,0
125.30566,125.54375,80,50,0
125.30566,125.54375,75,50,0
125.54375,125.781845,70,50,0
125.54375,125.781845,82,50,0
125.54375,125.781845,79,50,0
125.54375,125.781845,75,50,0
125.781845,125.900894,73,40,0
125.900894,126.019936,82,40,0
126.019936,126.138985,73,40,0
126.138985,126.25803,82,40,0
126.25803,126.37708,85,40,0
126.49613,126.61517,75,40,0
126.61517,126.73422,83,40,0
126.73422,126.85327,75,40,0
126.85327,126.97232,83,40,0
126.97232,127.09137,87,40,0
127.21041,127.32946,76,40,0
127.32946,127.44851,85,40,0
127.44851,127.56756,76,40,0
127.56756,127.68661,85,40,0
127.68661,127.80565,88,40,0
127.9247,128.1628,73,50,0
127.9247,128.1628,82,50,0
127.9247,128.1628,85,50,0
128.1628,128.4009,73,50,0
128.1628,128.4009,82,50,0
128.1628,128.4009,85,50,0
128.4009,128.63898,70,50,0
128.4009,128.63898,79,50,0
128.4009,128.63898,82,50,0
128.63898,128.75803,76,40,0
128.75803,128.87708,85,40,0
128.87708,128.99612,76,40,0
128.99612,129.11517,85,40,0
129.11517,129.23422,88,40,0
129.35327,129.59137,73,50,0
129.35327,129.59137,82,50,0
129.35327,129.59137,85,50,0
129.59137,129.82945,73,50,0
129.59137,129.82945,82,50,0
129.59137,129.82945,85,50,0
129.82945,130.06755,70,50,0
129.82945,130.06755,79,50,0
129.82945,130.06755,82,50,0
130.06755,130.1866,76,40,0
130.1866,130.30565,85,40,0
130.30565,130.4247,76,40,0
130.4247,130.54375,85,40,0
130.54375,130.6628,88,40,0
130.78185,130.90088,79,40,0
130.90088,131.01993,88,43,0
131.01993,131.13898,79,46,0
131.13898,131.25803,88,49,0
131.25803,131.37708,91,53,0
131.49612,131.61517,82,59,0
131.61517,131.73422,91,63,0
131.73422,131.85327,82,66,0
131.85327,131.97232,91,69,0
131.97232,132.09135,94,73,0
132.2104,132.32945,85,79,0
132.32945,132.4485,94,83,0
132.4485,132.56755,85,86,0
132.56755,132.6866,94,89,0
132.6866,132.80565,97,93,0
132.9247,133.04375,88,99,0
133.04375,133.1628,97,103,0
133.1628,133.28183,88,106,0
133.28183,133.40088,97,109,0
133.40088,133.51993,100,110,0
135.13898,135.25803,76,40,0
135.25803,135.37708,85,40,0
135.37708,135.49612,76,40,0
135.49612,135.61517,85,40,0
135.61517,135.73422,88,40,0
135.85327,135.9723,76,40,0
135.9723,136.09135,85,40,0
136.09135,136.2104,76,40,0
136.2104,136.32945,85,40,0
136.32945,136.4485,88,40,0
136.56755,136.6866,76,40,0
136.6866,136.80565,85,40,0
136.80565,136.9247,76,40,0
136.9247,137.04373,85,40,0
137.04373,137.16278,88,40,0
137.28183,137.40088,74,50,0
137.28183,137.40088,86,50,0
137.28183,137.40088,83,50,0
137.51993,137.63898,74,50,0
137.51993,137.63898,86,50,0
137.51993,137.63898,83,50,0
137.75803,137.87708,73,50,0
137.75803,137.87708,85,50,0
137.75803,137.87708,81,50,0
137.99612,138.11517,74,40,0
138.11517,138.2342,83,40,0
138.2342,138.35326,74,40,0
138.35326,138.4723,83,40,0
138.4723,138.59135,86,40,0
138.7104,138.82945,74,40,0
138.82945,138.9485,83,40,0
138.9485,139.06755,74,40,0
139.06755,139.1866,83,40,0
139.1866,139.30565,86,40,0
139.42468,139.54373,74,40,0
139.54373,139.66278,83,40,0
139.66278,139.78183,74,40,0
139.78183,139.90088,83,40,0
139.90088,140.01993,86,40,0
140.13898,140.25803,85,50,0
140.13898,140.25803,81,50,0
140.13898,140.25803,73,50,0
140.37708,140.49611,85,50,0
140.37708,140.49611,81,50,0
140.37708,140.49611,73,50,0
140.61516,140.7342,83,50,0
140.61516,140.7342,80,50,0
140.61516,140.7342,71,50,0
140.85326,140.9723,76,40,0
140.9723,141.09135,85,40,0
141.09135,141.2104,76,40,0
141.2104,141.32945,85,40,0
141.32945,141.4485,88,40,0
141.56755,141.68658,76,40,0
141.68658,141.80563,85,40,0
141.80563,141.92468,76,40,0
141.92468,142.04373,85,40,0
142.04373,142.16278,88,40,0
142.28183,142.40088,76,40,0
142.40088,142.51993,85,40,0
142.51993,142.63898,76,40,0
142.63898,142.75803,85,40,0
142.75803,142.87706,88,40,0
142.99611,143.11516,80,50,0
142.99611,143.11516,88,50,0
142.99611,143.11516,92,50,0
143.2342,143.35326,80,50,0
143.2342,143.35326,88,50,0
143.2342,143.35326,92,50,0
143.4723,143.59135,81,50,0
143.4723,143.59135,88,50,0
143.4723,143.59135,93,50,0
143.7104,143.82945,74,40,0
143.82945,143.94849,83,40,0
143.94849,144.06754,74,40,0
144.06754,144.18658,83,40,0
144.18658,144.30563,86,40,0
144.42468,144.54373,74,40,0
144.54373,144.66278,83,40,0
144.66278,144.78183,74,40,0
144.78183,144.90088,83,40,0
144.90088,145.01993,86,40,0
145.13896,145.25801,74,40,0
145.25801,145.37706,83,40,0
145.37706,145.49611,74,40,0
145.49611,145.61516,83,40,0
145.61516,145.7342,86,40,0
145.85326,145.9723,93,50,0
145.85326,145.9723,81,50,0
145.85326,145.9723,85,50,0
146.09135,146.2104,93,50,0
146.09135,146.2104,85,50,0
146.09135,146.2104,81,50,0
146.32944,146.44849,95,50,0
146.32944,146.44849,83,50,0
146.32944,146.44849,86,50,0
146.56754,146.68658,73,40,0
146.68658,146.80563,81,40,0
146.80563,146.92468,73,40,0
146.92468,147.04373,81,40,0
147.04373,147.16278,85,40,0
147.28183,147.40088,71,40,0
147.40088,147.51991,80,43,0
147.51991,147.63896,71,47,0
147.63896,147.75801,80,51,0
147.75801,147.87706,83,54,0
147.99611,148.11516,73,62,0
148.11516,148.2342,81,66,0
148.2342,148.35326,73,69,0
148.35326,148.4723,81,73,0
148.4723,148.59134,85,77,0
148.71039,148.82944,74,84,0
148.82944,148.94849,83,88,0
148.94849,149.06754,74,92,0
149.06754,149.18658,83,96,0
149.18658,149.30563,86,99,0
149.42468,149.54373,84,100,0
149.54373,149.66278,87,60,0
149.66278,149.78181,84,60,0
149.78181,149.90086,87,60,0
149.90086,150.01991,92,60,0
150.01991,150.13896,91,60,0
150.13896,150.25801,89,60,0
150.25801,150.37706,87,60,0
150.37706,150.49611,85,60,0
150.49611,150.61516,84,60,0
150.61516,150.7342,82,60,0
150.7342,150.85326,80,60,0
150.85326,150.97229,79,60,0
150.97229,151.09134,77,60,0
151.09134,151.21039,75,60,0
151.21039,151.32944,73,60,0
151.32944,151.44849,72,60,0
151.44849,151.56754,70,60,0
151.56754,151.68658,68,60,0
151.68658,151.80563,67,60,0
151.80563,151.92468,65,60,0
151.92468,152.04372,64,60,0
152.04372,152.16277,63,60,0
152.28181,152.40086,87,100,0
152.40086,152.51991,92,60,0
152.51991,152.63896,87,60,0
152.63896,152.75801,92,60,0
152.75801,152.87706,96,60,0
152.87706,152.99611,94,60,0
152.99611,153.11516,92,60,0
153.11516,153.23419,91,60,0
153.23419,153.35324,89,60,0
153.35324,153.47229,87,60,0
153.47229,153.59134,85,60,0
153.59134,153.71039,84,60,0
153.71039,153.82944,82,60,0
153.82944,153.94849,80,60,0
153.94849,154.06754,79,60,0
154.06754,154.18658,77,60,0
154.18658,154.30563,75,60,0
154.30563,154.42467,73,60,0
154.42467,154.54372,72,60,0
154.54372,154.66277,70,60,0
154.66277,154.78181,68,60,0
154.78181,154.90086,67,60,0
154.90086,155.01991,65,60,0
155.01991,155.13896,63,60,0
155.13896,155.25801,92,60,0
155.25801,155.37706,96,60,0
155.37706,155.49611,92,60,0
155.49611,155.61514,96,60,0
155.61514,155.73419,99,60,0
155.73419,155.85324,97,60,0
155.85324,155.97229,96,60,0
155.97229,156.09134,94,62,0
156.09134,156.21039,92,64,0
156.21039,156.32944,91,66,0
156.32944,156.44849,89,68,0
156.44849,156.56754,87,70,0
156.56754,156.68657,85,72,0
156.68657,156.80562,84,74,0
156.80562,156.92467,82,77,0
156.92467,157.04372,80,79,0
157.04372,157.16277,79,81,0
157.16277,157.28181,77,83,0
157.28181,157.36118,75,85,0
157.36118,157.44054,73,87,0
157.44054,157.51991,72,88,0
157.51991,157.57944,70,89,0
157.57944,157.63896,68,91,0
157.63896,157.69849,67,92,0
157.69849,157.75801,65,93,0
157.75801,157.81752,63,94,0
157.81752,157.87704,61,95,0
157.87704,157.93657,60,96,0
157.93657,157.9961,58,97,0
157.9961,158.23419,56,98,0
158.23419,158.35324,56,100,0
158.35324,158.47229,60,100,0
158.47229,158.59134,63,100,0
158.59134,158.71039,61,100,0
160.85324,160.97229,56,100,0
160.97229,161.09134,58,100,0
161.09134,161.21039,60,101,0
161.21039,161.32942,61,102,0
161.32942,161.44847,63,103,0
161.44847,161.56752,65,104,0
161.56752,161.68657,67,105,0
161.68657,161.80562,68,106,0
161.80562,161.92467,70,107,0
161.92467,162.04372,72,108,0
162.04372,162.16277,73,109,0
162.16277,162.28181,75,110,0
162.28181,162.40086,77,110,0
162.40086,162.5199,75,106,0
162.5199,162.63895,73,102,0
162.63895,162.758,72,98,0
162.758,162.87704,70,93,0
162.87704,162.9961,68,89,0
162.9961,163.11514,67,85,0
163.11514,163.23419,65,81,0
163.23419,163.35324,63,76,0
163.35324,163.47229,61,72,0
163.47229,163.59132,60,68,0
163.59132,163.71037,58,63,0
163.71037,163.94847,56,60,0
163.94847,164.06752,68,60,0
164.06752,164.18657,72,60,0
164.18657,164.30562,75,60,0
164.30562,164.42467,73,60,0
164.42467,164.54372,72,60,0
164.54372,164.66277,70,60,0
164.66277,164.7818,68,60,0
164.7818,164.90085,67,60,0
164.90085,165.0199,65,60,0
165.0199,165.13895,63,60,0
165.13895,165.258,61,60,0
165.258,165.37704,60,60,0
165.37704,165.4961,58,60,0
165.4961,165.61514,56,60,0
165.61514,165.73419,55,60,0
165.73419,165.85324,56,60,0
165.85324,165.97227,58,60,0
165.97227,166.09132,60,60,0
166.09132,166.21037,61,60,0
166.21037,166.32942,63,60,0
166.32942,166.44847,65,60,0
166.44847,166.56752,67,60,0
166.56752,166.68657,68,60,0
166.68657,166.80562,70,61,0
166.80562,166.92467,72,63,0
166.92467,167.04372,73,65,0
167.04372,167.16275,75,67,0
167.16275,167.2818,77,68,0
167.2818,167.40085,79,70,0
167.40085,167.5199,80,72,0
167.5199,167.63895,82,74,0
167.63895,167.758,84,75,0
167.758,167.87704,85,77,0
167.87704,167.9961,87,79,0
167.9961,168.11514,89,80,0
168.11514,168.23418,87,79,0
168.23418,168.35323,85,77,0
168.35323,168.47227,84,75,0
168.47227,168.59132,82,73,0
168.59132,168.71037,80,72,0
168.71037,168.82942,79,70,0
168.82942,168.94847,77,68,0
168.94847,169.06752,75,66,0
169.06752,169.18657,73,65,0
169.18657,169.30562,72,63,0
169.30562,169.42465,70,61,0
169.42465,169.66275,68,60,0
169.66275,169.7818,68,100,0
169.7818,169.90085,71,100,0
169.90085,170.0199,75,100,0
170.0199,170.13895,73,100,0
170.13895,170.258,71,100,0
170.258,170.37704,70,100,0
170.37704,170.4961,68,100,0
170.4961,170.61513,66,100,0
170.61513,170.73418,64,100,0
170.73418,170.85323,63,100,0
170.85323,170.97227,61,100,0
170.97227,171.09132,59,100,0
171.09132,171.21037,58,100,0
171.21037,171.32942,56,100,0
171.32942,171.44847,55,100,0
171.44847,171.56752,56,100,0
171.56752,171.68655,58,100,0
171.68655,171.8056,59,100,0
171.8056,171.92465,61,100,0
171.92465,172.0437,63,100,0
172.0437,172.16275,65,100,0
172.16275,172.2818,67,100,0
172.2818,172.40085,68,100,0
172.40085,172.5199,70,100,0
172.5199,172.63895,71,101,0
172.63895,172.758,73,102,0
172.758,172.87703,75,103,0
172.87703,172.99608,77,104,0
172.99608,173.11513,79,105,0
173.11513,173.23418,80,106,0
173.23418,173.35323,82,107,0
173.35323,173.47227,83,108,0
173.47227,173.59132,85,109,0
173.59132,173.71037,87,110,0
173.71037,173.82942,88,110,0
173.82942,173.94847,86,109,0
173.94847,174.0675,85,107,0
174.0675,174.18655,83,105,0
174.18655,174.3056,81,103,0
174.3056,174.42465,80,101,0
174.42465,174.5437,78,100,0
174.5437,174.66275,76,100,0
174.66275,174.7818,74,100,0
174.7818,174.90085,73,100,0
174.90085,175.0199,71,100,0
175.0199,175.13895,69,100,0
175.13895,175.25798,68,100,0
175.25798,175.37703,66,100,0
175.37703,175.49608,64,100,0
175.49608,175.61513,62,100,0
175.61513,175.73418,61,100,0
175.73418,175.85323,59,100,0
179.42465,179.5437,61,100,0
179.5437,179.66275,64,100,0
179.66275,179.78178,61,100,0
179.78178,179.90083,64,100,0
179.90083,180.01988,69,100,0
180.13893,180.25798,64,100,0
180.25798,180.37703,69,98,0
180.37703,180.49608,64,96,0
180.49608,180.61513,69,94,0
180.61513,180.73418,73,91,0
180.85323,180.97226,69,87,0
180.97226,181.09131,73,84,0
181.09131,181.21036,69,82,0
181.21036,181.3294,73,80,0
181.3294,181.44846,76,77,0
181.5675,181.68655,71,73,0
181.68655,181.8056,74,71,0
181.8056,181.92465,71,68,0
181.92465,182.0437,74,66,0
182.0437,182.16273,83,64,0
182.28178,182.40083,72,60,0
182.40083,182.51988,75,60,0
182.51988,182.63893,72,60,0
182.63893,182.75798,75,60,0
182.75798,182.87703,84,60,0
182.99608,183.11513,75,60,0
183.11513,183.23416,84,60,0
183.23416,183.35321,75,60,0
183.35321,183.47226,84,60,0
183.47226,183.59131,87,60,0
183.71036,183.8294,73,60,0
183.8294,183.94846,82,60,0
183.94846,184.0675,73,60,0
184.0675,184.18655,82,60,0
184.18655,184.3056,85,60,0
184.42464,184.54369,70,60,0
184.54369,184.66273,79,60,0
184.66273,184.78178,70,60,0
184.78178,184.90083,79,60,0
184.90083,185.01988,82,60,0
185.13893,185.25798,72,60,0
185.25798,185.37703,75,60,0
185.37703,185.49608,72,60,0
185.49608,185.61511,75,60,0
185.61511,185.73416,84,60,0
185.85321,185.97226,80,60,0
185.97226,186.09131,87,61,0
186.09131,186.21036,80,63,0
186.21036,186.3294,87,65,0
186.3294,186.44846,92,67,0
186.5675,186.68655,79,70,0
186.68655,186.80559,85,72,0
186.80559,186.92464,79,74,0
186.92464,187.04369,85,75,0
187.04369,187.16273,91,77,0
187.28178,187.40083,73,81,0
187.40083,187.51988,79,82,0
187.51988,187.63893,73,84,0
187.63893,187.75798,79,86,0
187.75798,187.87701,85,88,0
187.99606,188.11511,72,91,0
188.11511,188.23416,80,93,0
188.23416,188.35321,72,95,0
188.35321,188.47226,80,97,0
188.47226,188.59131,84,98,0
188.71036,188.8294,87,100,0
188.8294,188.94846,96,98,0
188.94846,189.06749,87,96,0
189.06749,189.18654,96,94,0
189.18654,189.30559,99,91,0
189.42464,189.54369,85,87,0
189.54369,189.66273,94,84,0
189.66273,189.78178,85,82,0
189.78178,189.90083,94,80,0
189.90083,190.01988,97,77,0
190.13893,190.25797,82,73,0
190.25797,190.37701,91,71,0
190.37701,190.49606,82,68,0
190.49606,190.61511,91,66,0
190.61511,190.73416,94,64,0
190.85321,190.97226,72,60,0
190.97226,191.09131,79,60,0
191.09131,191.21036,72,60,0
191.21036,191.32939,79,60,0
191.32939,191.44844,84,60,0
191.56749,191.68654,72,60,0
191.68654,191.80559,79,60,0
191.80559,191.92464,72,60,0
191.92464,192.04369,79,60,0
192.04369,192.16273,84,60,0
192.28178,192.40083,79,60,0
192.40083,192.51987,84,67,0
192.51987,192.63892,79,74,0
192.63892,192.75797,84,82,0
192.75797,192.87701,91,89,0
192.99606,193.11511,84,100,0
193.11511,193.23416,91,93,0
193.23416,193.35321,84,86,0
193.35321,193.47226,91,78,0
193.47226,193.59131,96,71,0
193.71034,193.82939,84,60,0
193.82939,193.94844,87,60,0
193.94844,194.06749,84,60,0
194.06749,194.18654,87,60,0
194.18654,194.30559,92,60,0
194.30559,194.42464,91,60,0
194.42464,194.54369,89,60,0
194.54369,194.66273,87,60,0
194.66273,194.78178,85,60,0
194.78178,194.90082,84,60,0
194.90082,195.01987,82,60,0
195.01987,195.13892,80,60,0
195.13892,195.25797,79,60,0
195.25797,195.37701,77,60,0
195.37701,195.49606,75,60,0
195.49606,195.61511,73,60,0
195.61511,195.73416,72,60,0
195.73416,195.85321,70,60,0
195.85321,195.97224,68,60,0
195.97224,196.0913,67,60,0
196.0913,196.21034,65,60,0
196.21034,196.32939,64,60,0
196.32939,196.44844,63,60,0
196.56749,196.68654,72,60,0
196.68654,196.80559,79,60,0
196.80559,196.92464,72,60,0
196.92464,197.04369,79,60,0
197.04369,197.16272,84,60,0
197.28177,197.40082,72,60,0
197.40082,197.51987,79,60,0
197.51987,197.63892,72,60,0
197.63892,197.75797,79,60,0
197.75797,197.87701,84,60,0
197.99606,198.11511,79,60,0
198.11511,198.23416,84,67,0
198.23416,198.3532,79,74,0
198.3532,198.47224,84,82,0
198.47224,198.5913,91,89,0
198.71034,198.82939,84,100,0
198.82939,198.94844,91,93,0
198.94844,199.06749,84,86,0
199.06749,199.18654,91,78,0
199.18654,199.30559,96,71,0
199.42462,199.54367,87,60,0
199.54367,199.66272,92,60,0
199.66272,199.78177,87,60,0
199.78177,199.90082,92,60,0
199.90082,200.01987,96,60,0
200.01987,200.13892,94,60,0
200.13892,200.25797,92,60,0
200.25797,200.37701,91,60,0
200.37701,200.49606,89,60,0
200.49606,200.6151,87,60,0
200.6151,200.73415,85,60,0
200.73415,200.8532,84,60,0
200.8532,200.97224,82,60,0
200.97224,201.0913,80,60,0
201.0913,201.21034,79,60,0
201.21034,201.32939,77,60,0
201.32939,201.44844,75,60,0
201.44844,201.56749,73,60,0
201.56749,201.68654,72,60,0
201.68654,201.80557,70,60,0
201.80557,201.88495,68,60,0
201.88495,201.96431,67,60,0
201.96431,202.04367,65,60,0
202.04367,202.16272,63,60,0
202.28177,202.40082,72,60,0
202.40082,202.51987,79,60,0
202.51987,202.63892,72,60,0
202.63892,202.75797,79,60,0
202.75797,202.877,84,60,0
202.99605,203.1151,72,60,0
203.1151,203.23415,79,60,0
203.23415,203.3532,72,60,0
203.3532,203.47224,79,60,0
203.47224,203.5913,84,60,0
203.71034,203.82939,79,60,0
203.82939,203.94844,84,60,0
203.94844,204.06747,79,60,0
204.06747,204.18652,84,60,0
204.18652,204.30557,91,60,0
204.42462,204.54367,84,60,0
204.54367,204.66272,91,60,0
204.66272,204.78177,84,60,0
204.78177,204.90082,91,60,0
204.90082,205.01987,96,60,0
205.13892,205.25795,91,60,0
205.25795,205.377,96,60,0
205.377,205.49605,91,60,0
205.49605,205.6151,96,60,0
205.6151,205.73415,100,60,0
205.73415,205.8532,98,60,0
205.8532,205.97224,96,60,0
205.97224,206.0913,95,60,0
206.0913,206.21034,93,60,0
206.21034,206.32939,91,60,0
206.32939,206.44843,89,60,0
206.44843,206.56747,88,60,0
206.56747,206.68652,86,60,0
206.68652,206.80557,84,60,0
206.80557,206.92462,83,60,0
206.92462,207.04367,81,60,0
207.04367,207.12303,79,60,0
207.12303,207.2024,77,60,0
207.2024,207.28177,76,60,0
207.28177,207.40082,74,60,0
207.40082,207.51985,72,60,0
207.51985,207.6389,71,60,0
207.6389,207.75795,69,60,0
207.75795,207.877,67,60,0
207.99605,208.1151,92,100,0
208.1151,208.23415,96,100,0
208.23415,208.3532,92,100,0
208.3532,208.47224,96,100,0
208.47224,208.5913,99,100,0
208.5913,208.71033,97,100,0
208.71033,208.82938,96,100,0
208.82938,208.94843,94,100,0
208.94843,209.06747,92,100,0
209.06747,209.18652,91,100,0
209.18652,209.30557,89,100,0
209.30557,209.42462,87,100,0
209.42462,209.54367,85,100,0
209.54367,209.66272,84,100,0
209.66272,209.78177,82,100,0
209.78177,209.9008,80,100,0
209.9008,210.01985,79,100,0
210.01985,210.1389,77,100,0
210.1389,210.21826,75,100,0
210.21826,210.29764,73,101,0
210.29764,210.377,72,102,0
210.377,210.45636,70,103,0
210.45636,210.53574,68,104,0
210.53574,210.6151,67,106,0
210.6151,210.66272,65,107,0
210.66272,210.71033,63,108,0
210.71033,210.75795,61,108,0
210.75795,210.80557,60,109,0
210.80557,210.8532,58,110,0
210.8532,210.97223,56,110,0
211.09128,211.21033,68,110,0
211.21033,211.32938,72,110,0
211.32938,211.44843,75,110,0
211.44843,211.56747,73,110,0
211.56747,211.68652,72,110,0
211.68652,211.80557,70,110,0
211.80557,211.92462,68,110,0
211.92462,212.04367,67,110,0
212.04367,212.1627,65,110,0
212.1627,212.28175,63,110,0
218.71033,218.82938,56,75,0
218.82938,218.94843,60,72,0
218.94843,219.06746,56,69,0
219.06746,219.18651,60,66,0
219.18651,219.30556,63,63,0
219.4246,219.54366,56,60,0
219.54366,219.6627,60,60,0
219.6627,219.78175,56,60,0
219.78175,219.9008,60,60,0
219.9008,220.01985,63,60,0
220.01985,220.1389,61,60,0
220.1389,220.25793,60,60,0
222.51984,222.63889,60,60,0
222.63889,222.75793,61,60,0
222.75793,222.87698,63,60,0
222.87698,222.99603,64,60,0
222.99603,225.85318,64,60,0
222.99603,225.85318,61,60,0
222.99603,225.85318,58,60,0
227.35318,227.47223,68,60,0
227.47223,227.59126,72,60,0
227.59126,227.71031,68,60,0
227.71031,227.82936,72,60,0
227.82936,227.94841,75,60,0
227.94841,228.06746,73,60,0
228.06746,228.18651,72,60,0
228.18651,228.30556,70,60,0
228.30556,228.4246,68,60,0
228.4246,228.54366,67,60,0
228.54366,228.66269,65,60,0
228.66269,228.78174,63,60,0
228.78174,228.90079,61,60,0
228.90079,229.01984,60,60,0
229.01984,229.13889,58,60,0
229.13889,229.25793,56,60,0
229.25793,229.37698,55,60,0
229.37698,229.49603,56,60,0
229.49603,229.61508,58,60,0
229.61508,229.73413,60,60,0
229.73413,229.85316,61,60,0
229.85316,229.97221,63,60,0
229.97221,230.09126,65,60,0
230.09126,230.21031,67,60,0
230.21031,230.32936,68,60,0
230.32936,230.44841,70,60,0
230.44841,230.56746,72,60,0
230.56746,230.68651,73,60,0
230.68651,230.80556,75,60,0
230.80556,230.9246,76,60,0
230.9246,233.78174,70,60,0
230.9246,233.78174,73,60,0
230.9246,233.78174,76,60,0
235.28174,235.40079,79,40,0
235.40079,235.51984,82,40,0
235.51984,235.63889,85,40,0
235.63889,235.75793,84,40,0
235.75793,235.87698,82,40,0
235.87698,235.99602,80,40,0
235.99602,236.11507,79,40,0
236.11507,236.23412,77,40,0
236.23412,236.35316,76,40,0
236.35316,236.47221,73,40,0
236.47221,236.59126,72,40,0
236.59126,236.71031,73,40,0
236.71031,236.82936,76,40,0
236.82936,236.94841,77,40,0
236.94841,237.06744,79,40,0
237.06744,237.1865,80,40,0
237.1865,237.30554,82,40,0
237.30554,237.42459,84,40,0
237.42459,239.56744,79,40,0
237.42459,239.56744,82,40,0
237.42459,239.56744,85,40,0
241.06744,241.1865,88,40,0
241.1865,241.30554,91,40,0
241.30554,241.42459,94,40,0
241.42459,241.54364,92,40,0
241.54364,241.66269,91,40,0
241.66269,241.78174,89,40,0
241.78174,241.90079,88,40,0
241.90079,242.01984,85,40,0
242.01984,242.13887,84,40,0
242.13887,242.25792,82,40,0
242.25792,242.37697,81,40,0
242.37697,242.49602,82,40,0
242.49602,242.61507,84,40,0
242.61507,242.73412,85,40,0
242.73412,242.85316,88,40,0
242.85316,242.97221,89,40,0
242.97221,243.09126,91,40,0
243.09126,243.2103,92,40,0
243.2103,245.35316,88,40,0
243.2103,245.35316,91,40,0
243.2103,245.35316,94,40,0
246.06744,248.2103,77,40,0
246.06744,248.2103,80,40,0
246.06744,248.2103,83,40,0
248.92459,252.07935,64,40,0
248.92459,252.07935,67,40,0
248.92459,252.07935,72,40,0
252.07935,252.1984,72,40,0
252.31744,252.4365,60,40,0
252.55553,252.67458,72,40,0
252.79362,252.91267,60,40,0
253.03172,253.15077,72,40,0
253.26982,253.38887,60,40,0
254.87695,254.93648,73,40,0
254.93648,255.05553,72,60,0
255.17458,255.29362,72,40,0
255.29362,255.41267,73,40,0
255.41267,255.53172,72,40,0
255.65077,255.76982,72,40,0
255.88887,256.0079,72,40,0
256.12695,256.246,72,40,0
256.30554,256.36505,73,40,0
256.36505,256.4841,72,60,0
256.60315,256.7222,72,40,0
256.7222,256.84125,73,40,0
256.84125,256.9603,72,40,0
257.07935,257.1984,72,40,0
257.31744,257.4365,72,40,0
257.55554,257.6746,72,40,0
257.7341,257.7936,73,40,0
257.7936,257.91266,72,60,0
258.0317,258.15076,72,42,0
258.15076,258.2698,73,42,0
258.2698,258.38885,72,43,0
258.4484,258.5079,73,45,0
258.5079,258.62695,72,65,0
258.746,258.86505,72,47,0
258.86505,258.9841,73,48,0
258.9841,259.10315,72,48,0
259.2222,259.4603,72,50,0
259.4603,259.6984,72,52,0
259.6984,259.9365,72,54,0
259.9365,260.17456,72,55,0
260.17456,260.41266,72,57,0
260.59125,260.65076,73,60,0
260.41266,260.65076,72,59,0
260.65076,260.7698,72,60,0
260.88885,261.0079,72,60,0
261.0079,261.12695,73,60,0
261.12695,261.246,72,60,0
261.3055,261.36505,73,60,0
261.36505,261.4841,72,60,0
261.60315,261.7222,72,60,0
261.7222,261.84125,73,60,0
261.84125,261.9603,72,60,0
262.07935,262.1984,72,60,0
262.1984,262.31744,71,60,0
262.31744,262.43646,71,60,0
262.43646,262.5555,74,60,0
262.5555,262.67456,72,60,0
262.67456,262.7936,70,60,0
262.7936,262.91266,72,60,0
263.0317,263.5079,67,80,0
263.5079,263.62695,72,60,0
263.746,263.86505,67,60,0
263.9841,264.10315,72,60,0
264.2222,264.4603,70,80,0
264.4603,264.57935,68,60,0
264.57935,264.69836,67,60,0
264.69836,264.8174,65,60,0
264.93646,265.0555,67,60,0
265.0555,265.17456,70,60,0
265.17456,265.2936,67,60,0
265.2936,265.41266,70,60,0
265.41266,265.5317,64,60,0
265.5317,265.65076,67,60,0
265.65076,265.7698,65,60,0
265.7698,265.88885,68,60,0
265.88885,266.0079,72,60,0
266.0079,266.12695,77,60,0
266.12695,266.246,80,60,0
266.246,266.36505,82,60,0
266.36505,266.4841,84,60,0
266.60315,266.7222,84,60,0
266.7222,266.84125,85,60,0
266.84125,266.9603,84,60,0
267.0198,267.0793,85,60,0
267.0793,267.19836,84,60,0
267.3174,267.43646,84,60,0
267.43646,267.5555,85,60,0
267.5555,267.67456,84,60,0
267.7936,267.91266,84,60,0
267.91266,268.0317,83,60,0
268.0317,268.15076,89,60,0
268.15076,268.2698,83,60,0
268.2698,268.38885,89,60,0
268.38885,268.5079,83,60,0
268.5079,268.62695,84,60,0
268.746,269.2222,79,80,0
269.2222,269.34122,84,60,0
269.46027,269.5793,79,60,0
269.69836,269.8174,84,60,0
269.93646,270.17456,82,80,0
270.17456,270.2936,80,60,0
270.2936,270.41266,79,60,0
270.41266,270.5317,77,60,0
270.65076,270.7698,79,60,0
270.7698,270.88885,82,60,0
270.88885,271.0079,79,60,0
271.0079,271.12695,82,60,0
271.12695,271.246,76,60,0
271.246,271.36505,79,60,0
271.36505,271.4841,77,60,0
271.60312,271.72217,65,100,0
271.72217,271.84122,67,100,0
271.84122,271.96027,68,100,0
271.96027,272.0793,70,100,0
272.0793,272.19836,72,120,0
272.3174,272.43646,60,100,0
272.5555,272.67456,72,120,0
272.7936,272.91266,60,100,0
273.0317,273.15076,72,120,0
273.2698,273.38885,60,100,0
273.5079,273.62695,67,60,0
273.5079,273.62695,70,60,0
273.746,273.86505,65,60,0
273.746,273.86505,68,60,0
273.86505,273.98407,64,60,0
273.86505,273.98407,67,60,0
273.98407,274.10312,65,60,0
273.98407,274.10312,68,60,0
274.10312,274.22217,67,60,0
274.10312,274.22217,70,60,0
274.22217,274.93646,64,60,0
274.22217,274.93646,67,60,0
274.93646,275.0555,72,100,0
275.17456,275.2936,60,100,0
275.41266,275.65076,72,100,0
275.65076,275.7698,73,120,0
275.88885,276.0079,61,100,0
276.12695,276.24597,73,100,0
276.36502,276.48407,68,60,0
276.36502,276.48407,72,60,0
276.48407,276.60312,67,60,0
276.48407,276.60312,70,60,0
276.60312,276.72217,65,60,0
276.60312,276.72217,68,60,0
276.72217,276.84122,67,60,0
276.72217,276.84122,70,60,0
276.84122,276.96027,65,60,0
276.84122,276.96027,68,60,0
276.96027,277.0793,64,60,0
276.96027,277.0793,67,60,0
277.0793,277.19836,65,60,0
277.3174,277.43646,77,100,0
277.43646,277.5555,79,100,0
277.5555,277.67456,80,100,0
277.67456,277.7936,82,100,0
277.7936,277.91266,84,120,0
278.0317,278.15076,72,100,0
278.2698,278.38885,84,120,0
278.5079,278.62692,72,100,0
278.74597,278.86502,84,120,0
278.98407,279.10312,72,100,0
279.22217,279.34122,79,60,0
279.22217,279.34122,82,60,0
279.46027,279.5793,77,60,0
279.46027,279.5793,80,60,0
279.5793,279.69836,76,60,0
279.5793,279.69836,79,60,0
279.69836,279.8174,77,60,0
279.69836,279.8174,80,60,0
279.8174,279.93646,79,60,0
279.8174,279.93646,82,60,0
279.93646,280.65076,76,60,0
279.93646,280.65076,79,60,0
280.65076,280.7698,84,100,0
280.88882,281.00787,72,100,0
281.12692,281.36502,84,100,0
281.36502,281.48407,85,120,0
281.60312,281.72217,73,100,0
281.84122,281.96027,85,100,0
282.0793,282.19836,70,60,0
282.0793,282.19836,73,60,0
282.19836,282.3174,68,60,0
282.19836,282.3174,71,60,0
282.3174,282.43646,66,60,0
282.3174,282.43646,70,60,0
282.43646,282.5555,68,60,0
282.43646,282.5555,71,60,0
282.5555,282.67456,66,60,0
282.5555,282.67456,70,60,0
282.67456,282.7936,65,60,0
282.67456,282.7936,68,60,0
282.7936,282.91266,66,60,0
282.7936,282.91266,70,60,0
283.0317,283.15073,70,60,0
283.0317,283.15073,66,60,0
283.26978,283.38882,70,60,0
283.26978,283.38882,66,60,0
283.50787,283.62692,65,60,0
283.50787,283.62692,68,60,0
283.50787,283.62692,71,60,0
283.74597,283.86502,65,67,0
283.74597,283.86502,68,67,0
283.74597,283.86502,71,67,0
283.98407,284.10312,65,74,0
283.98407,284.10312,68,74,0
283.98407,284.10312,71,74,0
284.22217,284.34122,77,82,0
284.22217,284.34122,80,82,0
284.22217,284.34122,83,82,0
284.46027,284.5793,77,89,0
284.46027,284.5793,80,89,0
284.46027,284.5793,83,89,0
284.69836,284.8174,77,97,0
284.69836,284.8174,80,97,0
284.69836,284.8174,83,97,0
284.93646,285.0555,92,100,0
284.93646,285.0555,96,100,0
285.0555,285.17456,91,100,0
285.0555,285.17456,94,100,0
285.17456,285.2936,89,100,0
285.17456,285.2936,92,100,0
285.2936,285.41266,91,100,0
285.2936,285.41266,94,100,0
285.41266,285.53168,89,100,0
285.41266,285.53168,92,100,0
285.53168,285.65073,88,100,0
285.53168,285.65073,91,100,0
285.65073,285.76978,89,100,0
285.88882,285.9682,91,100,0
285.9682,286.04758,92,100,0
286.04758,286.12692,91,100,0
286.12692,286.18646,92,100,0
286.18646,286.24597,91,100,0
286.24597,286.3055,92,100,0
286.3055,286.36502,91,100,0
286.36502,286.42456,92,100,0
286.42456,286.48407,91,100,0
286.48407,286.5436,92,100,0
286.5436,286.60312,91,100,0
286.60312,286.66263,92,100,0
286.66263,286.72217,91,100,0
286.72217,286.78168,90,100,0
286.78168,286.84122,91,100,0
286.84122,286.96027,92,100,0
286.96027,287.0793,91,100,0
287.0793,287.19836,89,100,0
287.3174,287.39676,79,100,0
287.39676,287.47614,80,100,0
287.47614,287.5555,79,100,0
287.5555,287.61502,80,100,0
287.61502,287.67456,79,100,0
287.67456,287.73407,80,100,0
287.73407,287.79358,79,100,0
287.79358,287.85312,80,100,0
287.85312,287.91263,79,100,0
287.91263,287.97217,80,100,0
287.97217,288.03168,79,100,0
288.03168,288.09122,80,100,0
288.09122,288.15073,79,100,0
288.15073,288.21027,78,100,0
288.21027,288.26978,79,100,0
288.26978,288.38882,80,100,0
288.38882,288.50787,79,100,0
288.50787,288.62692,77,100,0
288.74597,288.82535,91,100,0
288.82535,288.9047,92,100,0
288.9047,288.98407,91,100,0
288.98407,289.04358,92,100,0
289.04358,289.10312,91,100,0
289.10312,289.16263,92,100,0
289.16263,289.22217,91,100,0
289.22217,289.28168,90,100,0
289.28168,289.34122,91,100,0
289.34122,289.40073,92,100,0
289.40073,289.46027,94,100,0
289.46027,289.51978,96,100,0
289.51978,289.5793,97,100,0
289.5793,289.63882,100,100,0
289.63882,289.69836,101,100,0
289.69836,289.73804,100,100,0
289.73804,289.7777,97,100,0
289.7777,289.8174,96,100,0
289.8174,289.8571,94,100,0
289.8571,289.89676,92,100,0
289.89676,289.93646,91,100,0
289.93646,290.0555,89,100,0
290.17453,290.2539,79,100,0
290.2539,290.33328,80,100,0
290.33328,290.41263,79,100,0
290.41263,290.47217,80,100,0
290.47217,290.53168,79,100,0
290.53168,290.59122,80,100,0
290.59122,290.65073,79,100,0
290.65073,290.69836,77,100,0
290.69836,290.74597,79,100,0
290.74597,290.79358,80,100,0
290.79358,290.84122,82,100,0
290.84122,290.88882,84,100,0
290.88882,290.93646,85,100,0
290.93646,290.98407,88,99,0
290.98407,291.03168,89,97,0
291.03168,291.0793,91,95,0
291.0793,291.12692,89,94,0
291.12692,291.17056,88,92,0
291.14676,291.19043,85,91,0
291.18646,291.2301,84,90,0
291.2182,291.26184,82,89,0
291.25787,291.3015,80,87,0
291.28168,291.32535,79,86,0
291.32535,291.36502,77,85,0
291.36502,291.42514,76,83,0
291.42514,291.48755,73,81,0
291.48755,291.55234,72,79,0
291.55234,291.61987,70,77,0
291.61987,291.6903,68,75,0
291.6903,291.76382,67,73,0
291.76382,291.84094,66,71,0
291.84094,291.92178,67,68,0
291.92178,291.97794,68,66,0
291.97794,292.03598,69,65,0
292.03598,292.09634,70,63,0
292.09634,292.1589,71,62,0
292.1589,292.22385,72,61,0
292.22385,292.29166,73,60,0
292.29166,292.4107,72,60,0
292.52975,292.6488,72,60,0
292.6488,292.76785,73,60,0
292.76785,292.8869,72,60,0
292.94644,293.00595,73,60,0
293.00595,293.125,72,60,0
293.24405,293.3631,72,60,0
293.3631,293.48215,73,60,0
293.48215,293.6012,72,60,0
293.72025,293.8393,72,60,0
293.8393,293.95834,71,60,0
293.95834,294.0774,71,60,0
294.0774,294.19644,74,60,0
294.19644,294.3155,72,60,0
294.3155,294.43454,70,60,0
294.43454,294.5536,72,60,0
294.6726,295.1488,67,80,0
295.1488,295.26785,72,60,0
295.3869,295.50595,67,60,0
295.625,295.74405,72,60,0
295.8631,296.1012,70,80,0
296.1012,296.22025,68,60,0
296.22025,296.3393,67,60,0
296.3393,296.45834,65,60,0
296.5774,296.69644,67,60,0
296.69644,296.8155,70,60,0
296.8155,296.9345,67,60,0
296.9345,297.05356,70,60,0
297.05356,297.1726,64,60,0
297.1726,297.29166,67,60,0
297.29166,297.4107,65,60,0
297.4107,297.52975,68,60,0
297.52975,297.6488,72,60,0
297.6488,297.76785,77,60,0
297.76785,297.8869,80,60,0
297.8869,298.00595,82,60,0
298.00595,298.125,84,60,0
298.24405,298.3631,84,60,0
298.3631,298.48215,85,60,0
298.48215,298.6012,84,60,0
298.6607,298.72025,85,60,0
298.72025,298.8393,84,60,0
298.95834,299.0774,84,60,0
299.0774,299.19644,85,60,0
299.19644,299.31546,84,60,0
299.4345,299.55356,84,60,0
299.55356,299.6726,83,60,0
299.6726,299.79166,89,60,0
299.79166,299.9107,83,60,0
299.9107,300.02975,89,60,0
300.02975,300.1488,83,60,0
300.1488,300.26785,84,60,0
300.3869,300.8631,79,80,0
300.8631,300.98215,84,60,0
301.1012,301.22025,79,60,0
301.3393,301.45834,84,60,0
301.57736,301.81546,82,80,0
301.81546,301.9345,80,60,0
301.9345,302.05356,79,60,0
302.05356,302.1726,77,60,0
302.29166,302.4107,82,60,0
302.52975,302.6488,77,63,0
302.76785,302.8869,82,67,0
303.00595,303.24405,80,90,0
303.24405,303.3631,79,74,0
303.3631,303.48215,77,75,0
303.48215,303.6012,75,77,0
303.72025,303.83926,80,81,0
303.9583,304.07736,75,84,0
304.1964,304.31546,80,88,0
304.4345,304.55356,81,91,0
304.6726,304.79166,75,95,0
304.9107,305.02975,81,98,0
305.1488,305.26785,82,120,0
305.3869,305.50595,77,100,0
305.3869,305.50595,74,100,0
305.625,305.74405,86,120,0
305.8631,305.98215,82,100,0
305.8631,305.98215,77,100,0
306.1012,306.2202,89,120,0
306.33926,306.4583,86,100,0
306.33926,306.4583,82,100,0
306.57736,306.6964,92,120,0
306.6964,306.81546,90,100,0
306.81546,306.9345,89,100,0
306.9345,307.05356,90,100,0
307.05356,307.1726,87,100,0
307.29166,307.4107,84,100,0
307.52975,307.6488,81,100,0
307.76785,307.8869,78,100,0
308.00595,308.125,82,120,0
308.24405,308.3631,77,100,0
308.24405,308.3631,74,100,0
308.48212,308.60117,86,120,0
308.7202,308.83926,82,100,0
308.7202,308.83926,77,100,0
308.9583,309.07736,89,120,0
309.1964,309.31546,86,100,0
309.1964,309.31546,82,100,0
309.4345,309.55356,92,120,0
309.55356,309.6726,90,100,0
309.6726,309.79166,89,100,0
309.79166,309.9107,90,100,0
309.9107,310.02975,87,100,0
310.1488,310.26785,84,100,0
310.3869,310.50595,81,100,0
310.625,310.74405,78,100,0
310.86307,310.98212,82,120,0
311.10117,311.2202,77,100,0
311.10117,311.2202,74,100,0
311.33926,311.4583,83,120,0
311.57736,311.6964,77,100,0
311.57736,311.6964,74,100,0
311.81546,311.9345,86,120,0
312.05356,312.1726,83,100,0
312.05356,312.1726,77,100,0
312.29166,312.4107,84,120,0
312.52975,312.6488,79,100,0
312.52975,312.6488,76,100,0
312.76785,312.8869,88,120,0
313.00595,313.12497,79,100,0
313.00595,313.12497,85,100,0
313.24402,313.36307,91,120,0
313.48212,313.60117,82,100,0
313.48212,313.60117,85,100,0
313.48212,313.60117,88,100,0
313.7202,313.83926,89,120,0
313.9583,314.07736,84,100,0
313.9583,314.07736,77,100,0
314.1964,314.31546,94,120,0
314.4345,314.55356,82,100,0
314.6726,314.79166,96,120,0
314.9107,315.02975,84,100,0
315.1488,315.26785,89,100,0
315.1488,315.26785,101,100,0
315.38687,315.46625,91,100,0
315.46625,315.54562,92,100,0
315.54562,315.62497,91,100,0
315.62497,315.6845,92,100,0
315.6845,315.74402,91,100,0
315.74402,315.80356,92,100,0
315.80356,315.86307,91,100,0
315.86307,315.9226,92,100,0
315.9226,315.98212,91,100,0
315.98212,316.04166,92,100,0
316.04166,316.10117,91,100,0
316.10117,316.1607,92,100,0
316.1607,316.2202,91,100,0
316.2202,316.27975,90,100,0
316.27975,316.33926,91,100,0
316.33926,316.4583,92,100,0
316.4583,316.57736,91,100,0
316.57736,316.6964,89,100,0
316.81546,316.89484,79,100,0
316.89484,316.97418,80,100,0
316.97418,317.05356,79,100,0
317.05356,317.11307,80,100,0
317.11307,317.1726,79,100,0
317.1726,317.23212,80,100,0
317.23212,317.29166,79,100,0
317.29166,317.35117,80,100,0
317.35117,317.4107,79,100,0
317.4107,317.4702,80,100,0
317.4702,317.52975,79,100,0
317.52975,317.58926,80,100,0
317.58926,317.6488,79,100,0
317.6488,317.7083,78,100,0
317.7083,317.76782,79,100,0
317.76782,317.88687,80,100,0
317.88687,318.00592,79,100,0
318.00592,318.12497,77,100,0
318.24402,318.3234,91,100,0
318.3234,318.40277,92,100,0
318.40277,318.48212,91,100,0
318.48212,318.54166,92,100,0
318.54166,318.60117,91,100,0
318.60117,318.6607,92,100,0
318.6607,318.7202,91,100,0
318.7202,318.77975,90,100,0
318.77975,318.83926,91,100,0
318.83926,318.89877,92,100,0
318.89877,318.9583,94,100,0
318.9583,319.01782,96,100,0
319.01782,319.07736,97,100,0
319.07736,319.13687,100,100,0
319.13687,319.1964,101,100,0
319.1964,319.23608,100,100,0
319.23608,319.27576,97,100,0
319.27576,319.31546,96,100,0
319.31546,319.35513,94,100,0
319.35513,319.3948,92,100,0
319.3948,319.4345,91,100,0
319.4345,319.55356,89,100,0
319.6726,319.75195,79,100,0
319.75195,319.83133,80,100,0
319.83133,319.9107,79,100,0
319.9107,319.9702,80,100,0
319.9702,320.02972,79,100,0
320.02972,320.08926,80,100,0
320.08926,320.14877,79,100,0
320.14877,320.17657,78,100,0
320.1726,320.20078,79,100,0
320.20078,320.22946,80,100,0
320.23355,320.2628,82,100,0
320.26706,320.2969,84,100,0
320.2969,320.32727,85,100,0
320.3361,320.36725,88,100,0
320.37177,320.40363,89,100,0
320.40823,320.44083,91,100,0
320.4455,320.47885,89,100,0
320.47885,320.51285,88,100,0
320.5227,320.55765,85,100,0
320.56274,320.59866,84,100,0
320.60388,320.6407,82,100,0
320.65134,320.6892,80,100,0
320.6892,320.72787,79,100,0
320.73343,320.77313,77,100,0
320.78455,320.82562,76,100,0
320.81976,320.86172,73,100,0
320.87393,320.9173,72,100,0
320.92365,320.96835,70,100,0
320.97485,321.021,68,100,0
321.02768,321.07544,67,100,0
321.07544,321.1945,65,100,0
321.31354,321.4326,60,60,0
321.55164,321.6707,65,60,0
321.78973,321.90878,60,60,0
322.02783,322.14688,65,60,0
322.2659,322.38495,60,60,0
322.504,322.62305,65,60,0
322.7421,322.86115,60,60,0
322.9802,323.09924,65,60,0
323.2183,323.33734,60,60,0
323.4564,323.57544,65,59,0
323.6945,323.81354,60,58,0
323.9326,324.05164,65,56,0
323.9326,324.05164,68,56,0
324.1707,324.28973,65,55,0
324.1707,324.28973,60,55,0
324.40878,324.5278,65,53,0
324.40878,324.5278,68,53,0
324.64685,324.7659,65,52,0
324.64685,324.7659,60,52,0
324.88495,325.004,65,51,0
324.88495,325.004,68,51,0
325.12305,325.2421,65,49,0
325.12305,325.2421,60,49,0
325.36115,325.4802,65,48,0
325.36115,325.4802,68,48,0
325.59924,325.7183,65,46,0
325.59924,325.7183,60,46,0
325.83734,325.9564,65,45,0
325.83734,325.9564,68,45,0
326.07544,326.1945,65,43,0
326.07544,326.1945,60,43,0
326.31354,326.4326,65,42,0
326.31354,326.4326,68,42,0
326.55164,326.6707,65,41,0
326.55164,326.6707,60,41,0
326.78973,326.90875,65,40,0
326.78973,326.90875,68,40,0
327.0278,327.14685,65,40,0
327.0278,327.14685,61,40,0
327.2659,327.38495,65,40,0
327.2659,327.38495,68,40,0
327.504,327.62305,65,40,0
327.504,327.62305,61,40,0
327.7421,327.86115,65,40,0
327.7421,327.86115,68,40,0
327.9802,328.09924,65,40,0
327.9802,328.09924,61,40,0
328.2183,328.33734,65,40,0
328.2183,328.33734,68,40,0
328.4564,328.57544,65,40,0
328.4564,328.57544,61,40,0
328.6945,328.81354,65,40,0
328.6945,328.81354,68,40,0
328.9326,329.05164,65,40,0
328.9326,329.05164,61,40,0
329.17065,329.2897,65,40,0
329.17065,329.2897,68,40,0
329.40875,329.5278,65,40,0
329.40875,329.5278,61,40,0
329.64685,329.7659,68,40,0
329.64685,329.7659,66,40,0
329.88495,330.004,66,40,0
329.88495,330.004,63,40,0
330.12305,330.2421,68,40,0
330.12305,330.2421,66,40,0
330.36115,330.4802,66,40,0
330.36115,330.4802,63,40,0
330.59924,330.7183,68,40,0
330.59924,330.7183,66,40,0
330.83734,330.9564,66,40,0
330.83734,330.9564,63,40,0
331.07544,331.1945,68,40,0
331.07544,331.1945,66,40,0
331.31354,331.4326,68,40,0
331.31354,331.4326,75,40,0
331.5516,331.67065,75,40,0
331.5516,331.67065,78,40,0
331.7897,331.90875,80,40,0
331.7897,331.90875,78,40,0
332.0278,332.14685,80,40,0
332.0278,332.14685,87,40,0
332.2659,332.38495,87,40,0
332.2659,332.38495,90,40,0
332.504,332.62305,85,40,0
332.504,332.62305,89,40,0
332.7421,332.86115,80,40,0
332.7421,332.86115,77,40,0
332.9802,333.09924,85,40,0
332.9802,333.09924,89,40,0
333.2183,333.33734,80,40,0
333.2183,333.33734,77,40,0
333.4564,333.57544,85,40,0
333.4564,333.57544,89,40,0
333.6945,333.8135,80,40,0
333.6945,333.8135,77,40,0
333.93256,334.0516,85,40,0
333.93256,334.0516,89,40,0
334.17065,334.2897,85,40,0
334.17065,334.2897,80,40,0
334.40875,334.5278,80,40,0
334.40875,334.5278,77,40,0
334.64685,334.7659,77,40,0
334.64685,334.7659,73,40,0
334.88495,335.004,73,40,0
334.88495,335.004,68,40,0
335.12305,335.2421,68,40,0
335.12305,335.2421,65,40,0
335.36115,335.4802,68,40,0
335.36115,335.4802,66,40,0
335.59924,335.7183,66,40,0
335.59924,335.7183,63,40,0
335.83734,335.9564,68,40,0
335.83734,335.9564,66,40,0
336.0754,336.19446,66,40,0
336.0754,336.19446,69,40,0
336.3135,336.43256,63,40,0
336.3135,336.43256,66,40,0
336.5516,336.67065,66,40,0
336.5516,336.67065,69,40,0
336.7897,336.90875,68,40,0
336.7897,336.90875,66,40,0
337.0278,337.14685,68,40,0
337.0278,337.14685,75,40,0
337.2659,337.38495,75,40,0
337.2659,337.38495,78,40,0
337.504,337.62305,80,40,0
337.504,337.62305,78,40,0
337.7421,337.86115,80,40,0
337.7421,337.86115,87,40,0
337.9802,338.09924,87,40,0
337.9802,338.09924,90,40,0
338.2183,338.33734,85,40,0
338.2183,338.33734,89,40,0
338.45636,338.5754,80,40,0
338.45636,338.5754,77,40,0
338.69446,338.8135,85,40,0
338.69446,338.8135,89,40,0
338.93256,339.0516,82,40,0
338.93256,339.0516,77,40,0
339.17065,339.2897,85,40,0
339.17065,339.2897,89,40,0
339.40875,339.5278,82,40,0
339.40875,339.5278,77,40,0
339.64685,339.7659,85,40,0
339.64685,339.7659,89,40,0
339.88495,340.004,85,40,0
339.88495,340.004,80,40,0
340.12305,340.2421,80,40,0
340.12305,340.2421,77,40,0
340.36115,340.4802,77,40,0
340.36115,340.4802,73,40,0
340.59924,340.71826,73,40,0
340.59924,340.71826,68,40,0
340.8373,340.95636,68,40,0
340.8373,340.95636,65,40,0
341.0754,341.19446,75,40,0
341.0754,341.19446,77,40,0
341.3135,341.43256,65,40,0
341.3135,341.43256,69,40,0
341.5516,341.67065,77,40,0
341.5516,341.67065,75,40,0
341.7897,341.90875,69,40,0
341.7897,341.90875,66,40,0
342.0278,342.14685,75,40,0
342.0278,342.14685,78,40,0
342.2659,342.38495,69,40,0
342.2659,342.38495,66,40,0
342.504,342.62305,77,40,0
342.504,342.62305,75,40,0
342.7421,342.86115,69,40,0
342.7421,342.86115,65,40,0
342.9802,343.0992,77,40,0
342.9802,343.0992,75,40,0
343.21826,343.3373,81,40,0
343.21826,343.3373,77,40,0
343.45636,343.5754,81,40,0
343.45636,343.5754,87,40,0
343.69446,343.8135,87,40,0
343.69446,343.8135,89,40,0
343.93256,344.0516,89,40,0
343.93256,344.0516,85,40,0
344.17065,344.2897,82,40,0
344.17065,344.2897,77,40,0
344.40875,344.5278,85,40,0
344.40875,344.5278,89,40,0
344.64685,344.7659,82,40,0
344.64685,344.7659,78,40,0
344.88495,345.004,85,40,0
344.88495,345.004,90,40,0
345.12305,345.2421,82,40,0
345.12305,345.2421,78,40,0
345.3611,345.48016,85,40,0
345.3611,345.48016,89,40,0
345.5992,345.71826,85,40,0
345.5992,345.71826,82,40,0
345.8373,345.95636,82,40,0
345.8373,345.95636,77,40,0
346.0754,346.19446,77,40,0
346.0754,346.19446,73,40,0
346.3135,346.43256,73,40,0
346.3135,346.43256,70,40,0
346.5516,346.67065,70,40,0
346.5516,346.67065,65,40,0
346.7897,346.90875,65,40,0
346.7897,346.90875,73,40,0
347.0278,347.14685,61,40,0
347.0278,347.14685,65,40,0
347.2659,347.38495,65,40,0
347.2659,347.38495,73,40,0
347.504,347.62302,61,40,0
347.504,347.62302,65,40,0
347.74207,347.8611,65,40,0
347.74207,347.8611,73,40,0
347.98016,348.0992,61,40,0
347.98016,348.0992,65,40,0
348.21826,348.3373,65,40,0
348.21826,348.3373,72,40,0
348.45636,348.5754,60,40,0
348.45636,348.5754,65,40,0
348.69446,348.8135,65,40,0
348.69446,348.8135,72,40,0
348.93256,349.0516,60,40,0
348.93256,349.0516,65,40,0
349.17065,349.2897,65,40,0
349.17065,349.2897,72,40,0
349.40875,349.5278,60,40,0
349.40875,349.5278,65,40,0
349.64685,349.7659,71,40,0
349.64685,349.7659,68,40,0
349.88495,350.00397,65,40,0
349.88495,350.00397,68,40,0
350.12302,350.24207,68,40,0
350.12302,350.24207,71,40,0
350.3611,350.48016,65,40,0
350.3611,350.48016,68,40,0
350.5992,350.71826,68,40,0
350.5992,350.71826,71,40,0
350.8373,350.95636,71,40,0
350.8373,350.95636,77,40,0
351.0754,351.19446,77,40,0
351.0754,351.19446,80,40,0
351.3135,351.43256,80,40,0
351.3135,351.43256,83,40,0
351.5516,351.67065,77,40,0
351.5516,351.67065,80,40,0
351.7897,351.90875,71,40,0
351.7897,351.90875,77,40,0
352.0278,352.14685,68,40,0
352.0278,352.14685,71,40,0
352.26587,352.38492,65,40,0
352.26587,352.38492,68,40,0
352.50397,352.62302,67,40,0
352.50397,352.62302,70,40,0
352.74207,352.8611,61,40,0
352.74207,352.8611,67,40,0
352.98016,353.0992,67,40,0
352.98016,353.0992,70,40,0
353.21826,353.3373,61,40,0
353.21826,353.3373,67,40,0
353.45636,353.5754,67,40,0
353.45636,353.5754,70,40,0
353.69446,353.8135,61,40,0
353.69446,353.8135,67,40,0
353.93256,354.0516,65,40,0
353.93256,354.0516,69,40,0
354.17065,354.2897,60,40,0
354.17065,354.2897,65,40,0
354.40875,354.5278,65,40,0
354.40875,354.5278,69,40,0
354.64682,354.76587,60,40,0
354.64682,354.76587,65,40,0
354.88492,355.00397,65,40,0
354.88492,355.00397,69,40,0
355.12302,355.24207,60,40,0
355.12302,355.24207,65,40,0
355.3611,355.48016,65,40,0
355.3611,355.48016,68,40,0
355.5992,355.71826,62,40,0
355.5992,355.71826,65,40,0
355.8373,355.95636,65,40,0
355.8373,355.95636,68,40,0
356.0754,356.19446,62,40,0
356.0754,356.19446,65,40,0
356.3135,356.43256,65,40,0
356.3135,356.43256,68,40,0
356.5516,356.67065,62,40,0
356.5516,356.67065,65,40,0
356.7897,356.90872,62,40,0
356.7897,356.90872,67,40,0
357.02777,357.14682,62,40,0
357.02777,357.14682,55,40,0
357.26587,357.38492,62,40,0
357.26587,357.38492,67,40,0
357.50397,357.62302,62,40,0
357.50397,357.62302,65,40,0
357.74207,357.8611,56,40,0
357.74207,357.8611,62,40,0
357.98016,358.0992,62,40,0
357.98016,358.0992,65,40,0
358.21826,358.3373,65,40,0
358.21826,358.3373,60,40,0
358.45636,358.5754,60,40,0
358.45636,358.5754,56,40,0
358.69446,358.8135,60,40,0
358.69446,358.8135,65,40,0
358.93256,359.0516,60,40,0
358.93256,359.0516,56,40,0
359.17062,359.28967,60,40,0
359.17062,359.28967,65,40,0
359.40872,359.52777,60,40,0
359.40872,359.52777,56,40,0
359.64682,359.76587,60,40,0
359.64682,359.76587,65,40,0
359.88492,360.00397,60,40,0
359.88492,360.00397,55,40,0
360.12302,360.24207,60,40,0
360.12302,360.24207,65,40,0
360.3611,360.48016,60,40,0
360.3611,360.48016,55,40,0
360.5992,360.71826,60,40,0
360.5992,360.71826,64,40,0
360.8373,360.95636,64,40,0
360.8373,360.95636,68,40,0
361.0754,361.19446,65,40,0
361.0754,361.19446,68,40,0
361.3135,361.43256,65,40,0
361.3135,361.43256,61,40,0
361.55157,361.67062,65,40,0
361.55157,361.67062,68,40,0
361.78967,361.90872,65,40,0
361.78967,361.90872,61,40,0
362.02777,362.14682,65,40,0
362.02777,362.14682,68,40,0
362.26587,362.38492,65,40,0
362.26587,362.38492,61,40,0
362.50397,362.62302,65,40,0
362.50397,362.62302,67,40,0
362.74207,362.8611,65,40,0
362.74207,362.8611,61,40,0
362.98016,363.0992,65,40,0
362.98016,363.0992,67,40,0
363.21826,363.3373,65,40,0
363.21826,363.3373,62,40,0
363.45636,363.5754,62,40,0
363.45636,363.5754,55,40,0
363.69446,363.81348,62,40,0
363.69446,363.81348,65,40,0
363.93253,364.05157,65,40,0
363.93253,364.05157,60,40,0
364.17062,364.28967,60,40,0
364.17062,364.28967,56,40,0
364.40872,364.52777,60,40,0
364.40872,364.52777,65,40,0
364.64682,364.76587,60,40,0
364.64682,364.76587,56,40,0
364.88492,365.00397,60,40,0
364.88492,365.00397,65,40,0
365.12302,365.24207,60,40,0
365.12302,365.24207,56,40,0
365.3611,365.48016,65,40,0
365.3611,365.48016,60,40,0
365.5992,365.71826,60,40,0
365.5992,365.71826,56,40,0
365.8373,365.95636,60,40,0
365.8373,365.95636,65,40,0
366.0754,366.19443,60,40,0
366.0754,366.19443,56,40,0
366.31348,366.43253,60,40,0
366.31348,366.43253,65,40,0
366.55157,366.67062,60,40,0
366.55157,366.67062,56,40,0
366.78967,366.90872,60,40,0
366.78967,366.90872,65,40,0
367.02777,367.14682,60,40,0
367.02777,367.14682,55,40,0
367.26587,367.38492,60,40,0
367.26587,367.38492,65,40,0
367.50397,367.62302,60,40,0
367.50397,367.62302,55,40,0
367.74207,367.8611,60,40,0
367.74207,367.8611,65,40,0
367.98016,368.0992,60,40,0
367.98016,368.0992,55,40,0
368.21826,368.3373,60,40,0
368.21826,368.3373,64,40,0
368.45633,368.57538,60,40,0
368.45633,368.57538,55,40,0
368.69443,368.81348,60,40,0
368.69443,368.81348,64,40,0
368.93253,369.05157,60,40,0
368.93253,369.05157,55,40,0
369.17062,369.28967,60,40,0
369.17062,369.28967,64,40,0
369.40872,369.52777,60,40,0
369.40872,369.52777,55,40,0
371.07538,371.17538,77,127,0
371.2754,371.3754,65,110,0
371.4754,371.57538,77,110,0
371.67538,371.7754,80,127,0
371.8754,371.9754,68,110,0
372.07538,372.17538,80,110,0
372.2754,372.3754,84,127,0
372.4754,372.57538,72,110,0
372.67538,372.7754,84,110,0
372.8754,372.9754,79,127,0
373.07538,373.17538,67,110,0
373.2754,373.3754,79,110,0
373.4754,373.57538,82,127,0
373.67538,373.7754,70,110,0
373.8754,373.9754,82,110,0
374.07538,374.17538,77,127,0
374.2754,374.3754,65,110,0
374.4754,374.57538,77,110,0
374.67538,374.7754,77,127,0
374.67538,374.7754,80,127,0
374.8754,374.9754,68,110,0
375.07538,375.17538,77,110,0
375.07538,375.17538,80,110,0
375.2754,375.3754,76,127,0
375.2754,375.3754,79,127,0
375.4754,375.57538,67,110,0
375.67538,375.7754,76,110,0
375.67538,375.7754,79,110,0
375.8754,375.9754,77,127,0
376.07538,376.17538,65,110,0
376.2754,376.3754,77,110,0
376.4754,376.57538,77,127,0
376.4754,376.57538,80,127,0
376.67538,376.7754,68,110,0
376.8754,376.9754,77,110,0
376.8754,376.9754,80,110,0
377.07538,377.17538,75,127,0
377.07538,377.17538,84,127,0
377.2754,377.3754,72,110,0
377.4754,377.57538,75,110,0
377.4754,377.57538,84,110,0
377.67538,377.7754,75,127,0
377.67538,377.7754,79,127,0
377.8754,377.9754,70,110,0
378.07538,378.17538,75,110,0
378.07538,378.17538,79,110,0
378.2754,378.3754,73,127,0
378.2754,378.3754,77,127,0
378.2754,378.3754,82,127,0
378.4754,378.57538,70,110,0
378.67538,378.7754,73,110,0
378.67538,378.7754,77,110,0
378.67538,378.7754,82,110,0
378.8754,378.9754,68,127,0
378.8754,378.9754,77,127,0
379.07538,379.17538,65,110,0
379.2754,379.3754,68,110,0
379.2754,379.3754,77,110,0
379.4754,379.57538,77,127,0
379.4754,379.57538,80,127,0
379.67538,379.7754,68,110,0
379.8754,379.9754,77,110,0
379.8754,379.9754,80,110,0
380.07538,380.17538,76,127,0
380.07538,380.17538,79,127,0
380.2754,380.3754,67,110,0
380.4754,380.57538,76,110,0
380.4754,380.57538,79,110,0
380.67538,380.7754,89,127,0
380.8754,380.9754,77,110,0
380.9754,381.07538,89,110,0
381.07538,381.17538,77,110,0
381.2754,381.3754,89,127,0
381.2754,381.3754,92,127,0
381.4754,381.57538,80,110,0
381.57538,381.67538,89,110,0
381.57538,381.67538,92,110,0
381.67538,381.7754,80,110,0
381.8754,381.9754,87,127,0
381.8754,381.9754,96,127,0
382.07538,382.17538,84,110,0
382.17538,382.2754,87,110,0
382.17538,382.2754,96,110,0
382.2754,382.3754,84,110,0
382.4754,382.57538,87,127,0
382.4754,382.57538,91,127,0
382.67538,382.7754,82,110,0
382.7754,382.8754,87,110,0
382.7754,382.8754,91,110,0
382.8754,382.9754,82,110,0
383.07538,383.17538,85,127,0
383.07538,383.17538,89,127,0
383.07538,383.17538,94,127,0
383.2754,383.3754,82,110,0
383.3754,383.4754,85,110,0
383.3754,383.4754,89,110,0
383.3754,383.4754,94,110,0
383.4754,383.57538,82,110,0
383.67538,383.7754,80,127,0
383.67538,383.7754,89,127,0
383.8754,383.9754,77,110,0
383.9754,384.07538,80,110,0
383.9754,384.07538,89,110,0
384.07538,384.17538,77,110,0
384.2754,384.3754,89,127,0
384.2754,384.3754,92,127,0
384.4754,384.57538,80,110,0
384.57538,384.67538,89,110,0
384.57538,384.67538,92,110,0
384.67538,384.7754,80,110,0
384.8754,384.9754,88,127,0
384.8754,384.9754,91,127,0
385.07538,385.17538,79,110,0
385.17538,385.2754,88,110,0
385.17538,385.2754,91,110,0
385.2754,385.3754,79,110,0
385.4754,385.57538,89,127,0
385.4754,385.57538,92,127,0
385.67538,385.7754,80,110,0
385.7754,385.8754,89,110,0
385.7754,385.8754,92,110,0
385.8754,385.9754,80,110,0
386.07538,386.17538,88,127,0
386.07538,386.17538,91,127,0
386.07538,386.17538,96,127,0
386.2754,386.3754,84,110,0
386.3754,386.4754,88,110,0
386.3754,386.4754,91,110,0
386.3754,386.4754,96,110,0
386.4754,386.57538,84,110,0
386.67538,386.7754,89,127,0
386.67538,386.7754,92,127,0
386.67538,386.7754,96,127,0
386.8754,386.9754,84,110,0
386.9754,387.07538,89,110,0
386.9754,387.07538,92,110,0
386.9754,387.07538,96,110,0
387.07538,387.17538,84,110,0
387.2754,387.3754,91,127,0
387.2754,387.3754,96,127,0
387.2754,387.3754,100,127,0
387.4754,387.57538,88,110,0
387.57538,387.67538,91,110,0
387.57538,387.67538,96,110,0
387.57538,387.67538,100,110,0
387.67538,387.7754,88,110,0
387.7754,387.80872,89,110,0
387.80872,387.84204,92,110,0
387.84204,387.8754,96,110,0
387.8754,387.9754,101,110,0
387.9754,388.07538,99,110,0
388.07538,388.17538,97,110,0
388.17538,388.2754,96,110,0
388.2754,388.3754,94,110,0
388.3754,388.4754,92,110,0
388.4754,388.57538,91,110,0
388.57538,388.67538,89,110,0
388.67538,388.7754,87,110,0
388.7754,388.8754,85,110,0
388.8754,388.9754,84,110,0
388.9754,389.07538,82,110,0
389.07538,389.17538,80,110,0
389.17538,389.2754,79,110,0
389.2754,389.3754,77,110,0
389.3754,389.4754,75,110,0
389.4754,389.57538,73,110,0
389.57538,389.67538,72,110,0
389.67538,389.7754,70,110,0
389.7754,389.8754,68,110,0
389.8754,389.9754,67,110,0
389.9754,390.07538,65,110,0
390.07538,390.17538,63,110,0
390.17538,390.2754,61,110,0
158.71039,158.82944,60,100,0
158.82944,158.94849,58,100,0
158.94849,159.06752,56,100,0
159.06752,159.18657,55,100,0
159.18657,159.30562,53,100,0
159.30562,159.42467,51,100,0
159.42467,159.54372,49,100,0
159.54372,159.66277,48,100,0
159.66277,159.78181,46,100,0
159.78181,159.90086,44,100,0
159.90086,160.01991,43,100,0
160.01991,160.13895,44,100,0
160.13895,160.258,46,100,0
160.258,160.37704,48,100,0
160.37704,160.4961,49,100,0
160.4961,160.61514,51,100,0
160.61514,160.73419,53,100,0
160.73419,160.85324,55,100,0
175.85323,175.97227,57,100,0
175.97227,176.09132,56,100,0
176.09132,176.21037,54,100,0
176.21037,176.3294,52,100,0
176.3294,176.40878,50,100,0
176.40878,176.48814,49,100,0
176.48814,176.5675,47,100,0
176.5675,176.68655,45,100,0
176.68655,176.8056,49,100,0
176.8056,176.92465,45,100,0
176.92465,177.0437,49,100,0
177.0437,177.16275,52,100,0
177.2818,177.40085,49,100,0
177.40085,177.51988,52,100,0
177.51988,177.63893,49,100,0
177.63893,177.75798,52,100,0
177.75798,177.87703,57,100,0
177.99608,178.11513,52,100,0
178.11513,178.23418,57,100,0
178.23418,178.35323,52,100,0
178.35323,178.47227,57,100,0
178.47227,178.59132,61,100,0
178.71036,178.8294,57,100,0
178.8294,178.94846,61,100,0
178.94846,179.0675,57,100,0
179.0675,179.18655,61,100,0
179.18655,179.3056,64,100,0
212.28175,212.4008,61,110,0
212.4008,212.51985,60,110,0
212.51985,212.6389,58,110,0
212.6389,212.75795,56,110,0
212.75795,212.877,55,110,0
212.877,212.99605,53,110,0
212.99605,213.1151,51,110,0
213.1151,213.23415,53,110,0
213.23415,213.35318,51,110,0
213.35318,213.47223,49,110,0
213.47223,213.59128,48,110,0
213.59128,213.71033,46,110,0
213.71033,213.82938,44,110,0
213.82938,213.94843,48,110,0
213.94843,214.06747,44,110,0
214.06747,214.18652,48,110,0
214.18652,214.30557,51,110,0
214.4246,214.54366,44,110,0
214.54366,214.6627,48,110,0
214.6627,214.78175,44,110,0
214.78175,214.9008,48,110,0
214.9008,215.01985,51,110,0
215.1389,215.25795,44,110,0
215.25795,215.377,48,110,0
215.377,215.49605,44,110,0
215.49605,215.61508,48,110,0
215.61508,215.73413,51,110,0
215.85318,215.97223,44,110,0
215.97223,216.09128,48,110,0
216.09128,216.21033,44,110,0
216.21033,216.32938,48,110,0
216.32938,216.44843,51,110,0
216.56747,216.68652,44,110,0
216.68652,216.80556,48,110,0
216.80556,216.9246,44,110,0
216.9246,217.04366,48,110,0
217.04366,217.1627,51,110,0
217.28175,217.4008,48,110,0
217.4008,217.51985,51,108,0
217.51985,217.6389,48,105,0
217.6389,217.75795,51,102,0
217.75795,217.877,56,99,0
217.99603,218.11508,51,93,0
218.11508,218.23413,56,90,0
218.23413,218.35318,51,87,0
218.35318,218.47223,56,84,0
218.47223,218.59128,60,81,0
167.2818,167.40085,67,70,0
167.40085,167.5199,68,72,0
167.5199,167.63895,70,74,0
167.63895,167.758,72,75,0
167.758,167.87704,73,77,0
167.87704,167.9961,75,79,0
167.9961,168.11514,77,80,0
168.11514,168.23418,75,79,0
168.23418,168.35323,73,77,0
168.35323,168.47227,72,75,0
168.47227,168.59132,70,73,0
168.59132,168.71037,68,72,0
168.71037,168.82942,67,70,0
168.82942,168.94847,65,68,0
168.94847,169.06752,63,66,0
169.06752,169.18657,61,65,0
169.18657,169.30562,60,63,0
169.30562,169.42465,58,61,0
169.42465,169.66275,56,60,0
172.99608,173.11513,67,105,0
173.11513,173.23418,68,106,0
173.23418,173.35323,70,107,0
173.35323,173.47227,71,108,0
173.47227,173.59132,73,109,0
173.59132,173.71037,75,110,0
173.71037,173.82942,76,110,0
173.82942,173.94847,74,109,0
173.94847,174.0675,73,107,0
174.0675,174.18655,71,105,0
174.18655,174.3056,69,103,0
174.3056,174.42465,68,101,0
238.13889,238.25792,64,40,0
238.25792,238.37697,67,40,0
238.37697,238.49602,64,40,0
238.49602,238.61507,67,40,0
238.61507,238.73412,70,40,0
238.85316,238.97221,64,40,0
238.97221,239.09126,67,40,0
239.09126,239.21031,64,40,0
239.21031,239.32936,67,40,0
239.32936,239.4484,70,40,0
243.92459,244.04364,72,40,0
244.04364,244.16269,79,40,0
244.16269,244.28174,72,40,0
244.28174,244.40077,79,40,0
244.40077,244.51982,82,40,0
244.63887,244.75792,72,40,0
244.75792,244.87697,79,40,0
244.87697,244.99602,72,40,0
244.99602,245.11507,79,40,0
245.11507,245.23412,82,40,0
246.78172,246.90077,60,40,0
246.90077,247.01982,68,40,0
247.01982,247.13887,60,40,0
247.13887,247.25792,68,40,0
247.25792,247.37697,71,40,0
247.49602,247.61507,60,40,0
247.61507,247.73412,68,40,0
247.73412,247.85315,60,40,0
247.85315,247.9722,68,40,0
247.9722,248.09125,71,40,0
0.714285,0.8333325,53,60,0
0.95238,1.0714275,56,60,0
0.95238,1.0714275,60,60,0
0.95238,1.0714275,65,60,0
1.190475,1.3095225,53,60,0
1.42857,1.5476176,56,60,0
1.42857,1.5476176,60,60,0
1.42857,1.5476176,65,60,0
1.666665,1.7857125,53,60,0
1.90476,2.0238075,56,60,0
1.90476,2.0238075,60,60,0
1.90476,2.0238075,65,60,0
2.142855,2.2619026,53,60,0
2.38095,2.4999976,56,60,0
2.38095,2.4999976,59,60,0
2.38095,2.4999976,62,60,0
2.619045,2.7380924,53,60,0
2.85714,2.9761875,48,60,0
3.095235,3.2142825,52,60,0
3.095235,3.2142825,55,60,0
3.095235,3.2142825,60,60,0
3.33333,3.4523776,48,60,0
3.571425,3.6904726,52,60,0
3.571425,3.6904726,55,60,0
3.571425,3.6904726,60,60,0
3.80952,3.9285674,48,60,0
4.047615,4.1666627,52,60,0
4.047615,4.1666627,55,60,0
4.047615,4.1666627,60,60,0
4.28571,4.4047575,49,60,0
4.523805,4.6428523,53,60,0
4.523805,4.6428523,61,60,0
4.7619,4.8809476,49,60,0
4.999995,5.23809,46,60,0
5.23809,5.3571377,55,60,0
5.23809,5.3571377,58,60,0
5.476185,5.5952325,48,60,0
5.476185,5.5952325,55,60,0
5.476185,5.5952325,58,60,0
5.71428,6.19047,53,60,0
5.71428,6.19047,56,60,0
6.428565,6.5476127,53,60,0
6.66666,6.7857075,56,60,0
6.66666,6.7857075,60,60,0
6.66666,6.7857075,65,60,0
6.904755,7.0238023,53,60,0
7.14285,7.2618976,56,60,0
7.14285,7.2618976,60,60,0
7.14285,7.2618976,65,60,0
7.380945,7.4999924,53,60,0
7.61904,7.7380877,56,60,0
7.61904,7.7380877,60,60,0
7.61904,7.7380877,65,60,0
7.857135,7.9761825,53,60,0
8.09523,8.214277,56,60,0
8.09523,8.214277,59,60,0
8.09523,8.214277,62,60,0
8.333325,8.452373,53,60,0
8.57142,8.690468,48,60,0
8.809515,8.928562,52,60,0
8.809515,8.928562,55,60,0
8.809515,8.928562,60,60,0
9.04761,9.166657,48,60,0
9.285705,9.404753,52,60,0
9.285705,9.404753,55,60,0
9.285705,9.404753,60,60,0
9.5238,9.642847,48,60,0
9.761895,9.880942,52,60,0
9.761895,9.880942,55,60,0
9.761895,9.880942,60,60,0
9.99999,10.119038,49,60,0
10.238085,10.357133,53,60,0
10.238085,10.357133,61,60,0
10.47618,10.595227,49,60,0
10.714275,10.95237,46,60,0
10.95237,11.071418,55,60,0
10.95237,11.071418,58,60,0
11.190465,11.309512,58,60,0
11.190465,11.309512,55,60,0
11.190465,11.309512,48,60,0
11.42856,11.547607,53,60,0
11.42856,11.547607,56,60,0
12.142845,12.261892,36,120,0
12.38094,12.499988,48,100,0
12.619035,12.738083,36,120,0
12.85713,12.976177,48,100,0
13.095225,13.2142725,36,120,0
13.33332,13.452368,48,100,0
13.571415,13.690462,36,60,0
13.80951,13.928557,48,60,0
14.047605,14.166653,36,60,0
14.2857,14.404748,48,60,0
14.523795,14.642842,36,60,0
14.76189,14.880938,48,60,0
14.999985,15.119033,36,100,0
15.23808,15.357127,48,100,0
15.476175,15.71427,36,100,0
15.71427,15.833318,37,120,0
15.952365,16.071413,49,100,0
16.19046,16.309507,37,100,0
16.428555,16.547602,36,60,0
16.66665,16.785698,48,60,0
16.904745,17.023792,36,60,0
17.14284,17.261887,41,60,0
17.857124,17.976173,48,120,0
18.09522,18.214268,60,100,0
18.333315,18.452362,48,120,0
18.57141,18.690458,60,100,0
18.809505,18.928553,48,120,0
19.0476,19.166647,60,100,0
19.285694,19.404743,48,60,0
19.52379,19.642838,60,60,0
19.761885,19.880932,48,60,0
19.99998,20.119028,60,60,0
20.238075,20.357122,48,60,0
20.47617,20.595217,60,60,0
20.714266,20.833313,48,100,0
20.95236,21.071407,60,100,0
21.190454,21.42855,48,100,0
21.42855,21.547598,49,120,0
21.666645,21.785692,61,100,0
21.90474,22.023788,49,100,0
22.142836,22.261883,49,60,0
22.38093,22.499977,61,60,0
22.619024,22.738073,49,60,0
22.85712,22.976168,61,60,0
23.095215,23.214262,49,60,0
23.33331,23.452358,61,60,0
23.571405,23.690453,49,60,0
23.8095,23.928547,61,67,0
24.047594,24.166643,49,74,0
24.28569,24.404737,61,82,0
24.523785,24.642832,49,89,0
24.76188,24.880928,61,97,0
24.999975,25.119022,48,100,0
25.23807,25.357117,60,100,0
25.476166,25.595213,48,100,0
25.71426,25.833307,53,100,0
26.428545,26.547592,36,120,0
26.66664,26.785688,48,100,0
26.904736,27.023783,36,120,0
27.14283,27.261877,48,100,0
27.380924,27.499973,36,120,0
27.61902,27.738068,48,100,0
27.857115,27.976162,36,60,0
28.09521,28.214258,48,60,0
28.333305,28.452353,36,60,0
28.5714,28.690447,48,60,0
28.809496,28.928543,36,60,0
29.04759,29.166637,48,60,0
29.285685,29.404732,36,100,0
29.52378,29.642828,48,100,0
29.761875,29.99997,36,100,0
29.99997,30.119017,37,120,0
30.238066,30.357113,49,100,0
30.47616,30.595207,37,100,0
30.714254,30.833303,36,60,0
30.95235,31.071398,48,60,0
31.190445,31.309492,36,60,0
31.42854,31.547588,41,60,0
32.142826,32.26187,48,120,0
32.38092,32.499966,60,100,0
32.619015,32.738064,48,120,0
32.85711,32.97616,60,100,0
33.095203,33.214252,48,120,0
33.3333,33.452347,60,100,0
33.571396,33.69044,48,60,0
33.80949,33.92854,60,60,0
34.047585,34.166634,48,60,0
34.28568,34.404728,60,60,0
34.523773,34.642822,48,60,0
34.76187,34.880917,60,60,0
34.999966,35.11901,48,100,0
35.23806,35.35711,60,100,0
35.476154,35.71425,48,100,0
35.71425,35.833298,49,120,0
35.952347,36.071392,61,100,0
36.19044,36.309486,49,100,0
36.428535,36.54758,49,60,0
36.66663,36.78568,61,60,0
36.904724,37.023773,49,60,0
37.14282,37.261868,61,60,0
37.380917,37.49996,49,60,0
37.61901,37.738056,61,60,0
37.857105,37.976154,49,60,0
38.0952,38.21425,61,67,0
38.333294,38.452343,49,74,0
38.57139,38.690437,61,82,0
38.809486,38.92853,49,89,0
39.04758,39.166626,61,97,0
39.285675,39.404724,48,100,0
39.52377,39.64282,60,100,0
39.761864,39.880913,48,100,0
39.99996,40.119007,53,100,0
40.238056,41.42853,53,120,0
40.238056,41.42853,64,120,0
40.238056,41.42853,61,120,0
40.238056,41.42853,58,120,0
41.42853,41.547577,53,100,0
41.42853,41.547577,65,100,0
41.42853,41.547577,60,100,0
41.42853,41.547577,56,100,0
41.666626,42.8571,53,120,0
41.666626,42.8571,64,120,0
41.666626,42.8571,61,120,0
41.666626,42.8571,58,120,0
42.8571,42.976147,53,100,0
42.8571,42.976147,65,100,0
42.8571,42.976147,60,100,0
42.8571,42.976147,56,100,0
43.095196,44.28567,53,120,0
43.095196,44.28567,64,120,0
43.095196,44.28567,61,120,0
43.095196,44.28567,58,120,0
44.28567,44.404716,53,100,0
44.28567,44.404716,65,100,0
44.28567,44.404716,60,100,0
44.28567,44.404716,56,100,0
44.523766,46.640892,53,120,0
44.523766,46.640892,64,120,0
44.523766,46.640892,61,120,0
44.523766,46.640892,58,120,0
46.640892,46.75994,53,60,0
46.878986,46.998035,56,60,0
46.878986,46.998035,60,60,0
46.878986,46.998035,65,60,0
47.11708,47.23613,53,60,0
47.35518,47.474224,56,60,0
47.35518,47.474224,60,60,0
47.35518,47.474224,65,60,0
47.593273,47.71232,53,60,0
47.831367,47.950417,56,60,0
47.831367,47.950417,60,60,0
47.831367,47.950417,65,60,0
48.06946,48.18851,53,60,0
48.307556,48.426605,56,60,0
48.307556,48.426605,59,60,0
48.307556,48.426605,62,60,0
48.545654,48.6647,53,60,0
48.78375,48.902794,48,60,0
49.021843,49.14089,52,60,0
49.021843,49.14089,55,60,0
49.021843,49.14089,60,60,0
49.259937,49.378986,48,60,0
49.49803,49.61708,52,60,0
49.49803,49.61708,55,60,0
49.49803,49.61708,60,60,0
49.736126,49.855175,48,60,0
49.974224,50.09327,52,60,0
49.974224,50.09327,55,60,0
49.974224,50.09327,60,60,0
50.21232,50.331364,49,60,0
50.450413,50.56946,53,60,0
50.450413,50.56946,61,60,0
50.688507,50.807556,49,60,0
50.9266,51.164696,46,60,0
51.164696,51.283745,55,60,0
51.164696,51.283745,58,60,0
51.402794,51.52184,48,60,0
51.402794,51.52184,55,60,0
51.402794,51.52184,58,60,0
51.64089,52.117077,53,60,0
51.64089,52.117077,56,60,0
52.35517,52.47422,53,60,0
52.59327,52.712315,56,60,0
52.59327,52.712315,60,60,0
52.59327,52.712315,65,60,0
52.831364,52.95041,53,60,0
53.069458,53.188503,56,60,0
53.069458,53.188503,60,60,0
53.069458,53.188503,65,60,0
53.307552,53.4266,53,60,0
53.545647,53.664696,56,60,0
53.545647,53.664696,60,60,0
53.545647,53.664696,65,60,0
53.78374,53.90279,53,60,0
54.02184,54.140884,56,60,0
54.02184,54.140884,59,60,0
54.02184,54.140884,62,60,0
54.259933,54.37898,53,60,0
54.498028,54.617077,48,60,0
54.736122,54.85517,52,60,0
54.736122,54.85517,55,60,0
54.736122,54.85517,60,60,0
54.974216,55.093266,48,60,0
55.21231,55.33136,52,60,0
55.21231,55.33136,55,60,0
55.21231,55.33136,60,60,0
55.45041,55.569454,48,60,0
55.688503,55.80755,52,60,0
55.688503,55.80755,55,60,0
55.688503,55.80755,60,60,0
55.926598,56.045647,49,60,0
56.164692,56.28374,53,60,0
56.164692,56.28374,61,60,0
56.402786,56.521835,49,60,0
56.640884,56.75993,50,60,0
56.87898,56.998024,58,63,0
56.87898,56.998024,62,63,0
57.117073,57.23612,50,67,0
57.355167,57.474216,51,70,0
57.59326,57.71231,58,74,0
57.59326,57.71231,63,74,0
57.831356,57.950405,51,77,0
58.069454,58.1885,48,81,0
58.30755,58.426594,60,84,0
58.545643,58.664692,48,88,0
58.783737,58.902786,47,91,0
59.02183,59.14088,59,95,0
59.259926,59.378975,47,98,0
59.498024,59.61707,46,120,0
59.73612,59.855164,53,100,0
59.73612,59.855164,58,100,0
59.73612,59.855164,62,100,0
59.974213,60.09326,46,120,0
60.212307,60.331356,53,100,0
60.212307,60.331356,58,100,0
60.212307,60.331356,62,100,0
60.4504,60.56945,46,120,0
60.688496,60.807545,53,100,0
60.688496,60.807545,58,100,0
60.688496,60.807545,62,100,0
60.926594,61.04564,46,120,0
61.16469,61.283733,54,100,0
61.16469,61.283733,57,100,0
61.16469,61.283733,63,100,0
61.402782,61.52183,46,100,0
61.640877,61.759926,54,100,0
61.640877,61.759926,57,100,0
61.640877,61.759926,63,100,0
61.87897,61.99802,46,100,0
62.11707,62.236115,54,100,0
62.11707,62.236115,57,100,0
62.11707,62.236115,63,100,0
62.355164,62.47421,46,120,0
62.593258,62.712303,53,100,0
62.593258,62.712303,58,100,0
62.593258,62.712303,62,100,0
62.831352,62.9504,46,120,0
63.069447,63.188496,53,100,0
63.069447,63.188496,58,100,0
63.069447,63.188496,62,100,0
63.30754,63.42659,46,120,0
63.54564,63.664684,53,100,0
63.54564,63.664684,58,100,0
63.54564,63.664684,62,100,0
63.783733,63.90278,46,120,0
64.02183,64.14088,54,100,0
64.02183,64.14088,57,100,0
64.02183,64.14088,63,100,0
64.259926,64.37897,46,100,0
64.49802,64.617065,54,100,0
64.49802,64.617065,57,100,0
64.49802,64.617065,63,100,0
64.736115,64.85516,46,100,0
64.974205,65.093254,54,100,0
64.974205,65.093254,57,100,0
64.974205,65.093254,63,100,0
65.2123,65.33135,46,120,0
65.4504,65.56944,53,100,0
65.4504,65.56944,58,100,0
65.4504,65.56944,62,100,0
65.68849,65.80754,44,120,0
65.92659,66.04563,56,100,0
66.16468,66.28373,43,120,0
66.40278,66.52183,55,100,0
66.64087,66.75992,48,120,0
66.87897,66.99802,60,100,0
67.117065,67.23611,46,120,0
67.355156,67.474205,58,100,0
67.593254,67.7123,43,120,0
67.831345,67.95039,55,100,0
68.06944,68.18849,44,120,0
68.30754,68.42658,56,100,0
68.54563,68.66468,34,120,0
68.78373,68.90278,46,100,0
69.02182,69.14087,36,120,0
69.25992,69.37897,48,100,0
69.49801,69.61706,41,100,0
69.49801,69.61706,29,100,0
69.73611,70.92658,53,120,0
69.73611,70.92658,64,120,0
69.73611,70.92658,61,120,0
69.73611,70.92658,58,120,0
70.92658,71.04563,53,100,0
70.92658,71.04563,65,100,0
70.92658,71.04563,60,100,0
70.92658,71.04563,56,100,0
71.16468,72.355156,53,120,0
71.16468,72.355156,64,120,0
71.16468,72.355156,61,120,0
71.16468,72.355156,58,120,0
72.355156,72.4742,53,100,0
72.355156,72.4742,65,100,0
72.355156,72.4742,60,100,0
72.355156,72.4742,56,100,0
72.59325,73.78372,53,120,0
72.59325,73.78372,64,120,0
72.59325,73.78372,61,120,0
72.59325,73.78372,58,120,0
73.78372,73.90277,53,100,0
73.78372,73.90277,65,100,0
73.78372,73.90277,60,100,0
73.78372,73.90277,56,100,0
74.02182,75.42466,53,120,0
74.02182,75.42466,64,120,0
74.02182,75.42466,61,120,0
74.02182,75.42466,58,120,0
75.42466,75.54371,53,100,0
75.42466,75.54371,56,100,0
75.42466,75.54371,60,100,0
76.13895,76.257996,51,120,0
76.13895,76.257996,63,120,0
76.13895,76.257996,61,120,0
76.13895,76.257996,58,120,0
77.37704,77.615135,56,40,0
77.37704,77.615135,60,40,0
77.37704,77.615135,63,40,0
77.615135,77.85323,56,40,0
77.615135,77.85323,60,40,0
77.615135,77.85323,63,40,0
77.85323,78.80561,60,40,0
77.85323,78.80561,63,40,0
78.80561,80.23418,61,40,0
78.80561,80.23418,65,40,0
77.85323,80.23418,56,40,0
80.23418,80.472275,56,40,0
80.23418,80.472275,60,40,0
80.23418,80.472275,63,40,0
80.472275,80.71037,56,40,0
80.472275,80.71037,60,40,0
80.472275,80.71037,63,40,0
80.71037,81.66275,60,40,0
81.66275,81.90085,61,40,0
81.90085,82.13894,58,40,0
82.13894,82.37704,60,40,0
82.37704,82.61513,61,40,0
82.61513,82.853226,60,40,0
82.853226,83.091324,58,40,0
80.71037,83.091324,56,40,0
80.71037,83.091324,63,40,0
83.091324,83.329414,56,40,0
83.091324,83.329414,59,40,0
83.091324,83.329414,63,40,0
83.329414,83.56751,56,40,0
83.329414,83.56751,59,40,0
83.329414,83.56751,63,40,0
83.56751,84.51989,59,40,0
83.56751,84.51989,63,40,0
84.51989,85.94846,61,40,0
84.51989,85.94846,64,40,0
83.56751,85.94846,56,40,0
85.94846,86.186554,56,40,0
85.94846,86.186554,59,40,0
85.94846,86.186554,63,40,0
86.186554,86.42465,56,40,0
86.186554,86.42465,59,40,0
86.186554,86.42465,63,40,0
86.42465,87.37703,59,40,0
87.37703,87.61513,61,40,0
87.61513,87.85322,58,40,0
87.85322,88.09132,59,40,0
88.09132,88.32941,61,40,0
88.32941,88.567505,59,40,0
88.567505,88.8056,58,40,0
86.42465,88.8056,56,40,0
86.42465,88.8056,63,40,0
88.8056,89.04369,56,40,0
88.8056,89.04369,60,40,0
88.8056,89.04369,63,40,0
89.04369,89.28179,56,42,0
89.04369,89.28179,60,42,0
89.04369,89.28179,63,42,0
89.28179,90.23417,63,45,0
89.28179,90.23417,60,45,0
90.23417,91.66274,65,55,0
90.23417,91.66274,61,55,0
89.28179,91.66274,56,45,0
91.66274,91.90083,56,71,0
91.66274,91.90083,60,71,0
91.66274,91.90083,63,71,0
91.90083,92.13893,56,73,0
91.90083,92.13893,60,73,0
91.90083,92.13893,63,73,0
92.13893,93.09131,56,76,0
92.13893,93.09131,60,76,0
93.09131,94.51988,61,86,0
92.13893,94.51988,63,76,0
93.09131,94.51988,55,86,0
93.09131,94.51988,58,86,0
94.51988,94.75797,56,100,0
94.51988,94.75797,59,100,0
94.51988,94.75797,63,100,0
94.75797,94.99607,56,100,0
94.75797,94.99607,59,100,0
94.75797,94.99607,63,100,0
94.99607,95.94845,59,100,0
94.99607,95.94845,63,100,0
95.94845,97.37702,61,100,0
95.94845,97.37702,64,100,0
94.99607,97.37702,56,100,0
97.37702,97.61511,56,100,0
97.37702,97.61511,59,100,0
97.37702,97.61511,63,100,0
97.61511,97.85321,56,100,0
97.61511,97.85321,59,100,0
97.61511,97.85321,63,100,0
97.85321,98.80559,56,100,0
97.85321,98.80559,59,100,0
97.85321,98.80559,63,100,0
98.80559,99.519875,64,100,0
99.519875,100.23416,63,100,0
98.80559,100.23416,61,100,0
98.80559,100.23416,55,100,0
98.80559,100.23416,58,100,0
100.23416,100.94845,56,100,0
100.23416,100.94845,59,100,0
100.23416,100.94845,63,100,0
100.94845,101.66273,47,78,0
100.94845,101.66273,51,78,0
100.94845,101.66273,56,78,0
102.13892,102.257965,57,60,0
102.13892,102.257965,61,60,0
101.66273,102.377014,49,70,0
102.8532,102.97225,58,60,0
102.8532,102.97225,61,60,0
102.377014,103.0913,51,70,0
103.56749,104.51987,51,86,0
103.0913,104.51987,47,110,0
103.56749,104.51987,59,86,0
103.56749,104.51987,56,86,0
104.99606,105.115105,57,60,0
104.99606,105.115105,61,60,0
104.51987,105.23415,49,70,0
105.71034,105.82939,58,60,0
105.71034,105.82939,61,60,0
105.23415,105.94844,51,70,0
106.42463,107.37701,51,86,0
105.94844,107.37701,47,110,0
106.42463,107.37701,59,86,0
106.42463,107.37701,56,86,0
107.95599,108.38576,57,60,0
107.95599,108.38576,61,60,0
107.37701,108.38576,49,70,0
109.38576,110.06757,58,60,0
109.38576,110.06757,61,60,0
108.38576,110.06757,51,70,0
110.06757,110.30567,44,50,0
110.54376,110.66281,56,40,0
110.54376,110.66281,59,40,0
110.78186,111.01995,44,50,0
111.25805,111.3771,58,40,0
111.25805,111.3771,61,40,0
111.49615,111.73424,44,50,0
111.972336,112.091385,59,40,0
111.972336,112.091385,63,40,0
112.21043,112.329475,58,50,0
112.21043,112.329475,61,50,0
112.21043,112.329475,63,50,0
112.448524,112.56757,61,50,0
112.448524,112.56757,58,50,0
112.448524,112.56757,63,50,0
112.68662,112.805664,56,50,0
112.68662,112.805664,59,50,0
112.68662,112.805664,63,50,0
112.92471,113.4009,51,50,0
113.4009,113.51995,55,40,0
113.4009,113.51995,58,40,0
113.639,114.11519,51,50,0
114.11519,114.23424,56,40,0
114.11519,114.23424,59,40,0
114.35329,114.829475,51,50,0
114.829475,114.948524,58,40,0
114.829475,114.948524,61,40,0
115.067566,115.186615,51,50,0
115.067566,115.186615,56,50,0
115.067566,115.186615,59,50,0
115.305664,115.42471,51,50,0
115.305664,115.42471,56,50,0
115.305664,115.42471,59,50,0
115.54376,115.6628,51,50,0
115.54376,115.6628,55,50,0
115.54376,115.6628,58,50,0
115.78185,116.01995,44,50,0
116.25804,116.37709,56,40,0
116.25804,116.37709,59,40,0
116.49614,116.73424,44,50,0
116.97233,117.09138,58,40,0
116.97233,117.09138,61,40,0
117.21043,117.44852,44,50,0
117.686615,117.805664,59,40,0
117.686615,117.805664,63,40,0
117.924706,118.1628,54,50,0
117.924706,118.1628,61,50,0
117.924706,118.1628,64,50,0
118.1628,118.4009,54,50,0
118.1628,118.4009,61,50,0
118.1628,118.4009,64,50,0
118.4009,118.63899,54,50,0
118.4009,118.63899,58,50,0
118.4009,118.63899,66,50,0
119.11518,119.23423,59,40,0
119.11518,119.23423,63,40,0
118.63899,119.35328,54,50,0
119.35328,119.59138,54,50,0
119.35328,119.59138,61,50,0
119.35328,119.59138,64,50,0
119.59138,119.82947,54,50,0
119.59138,119.82947,61,50,0
119.59138,119.82947,64,50,0
119.82947,120.067566,54,50,0
119.82947,120.067566,58,50,0
119.82947,120.067566,66,50,0
120.543755,120.6628,58,40,0
120.543755,120.6628,63,40,0
120.067566,120.78185,55,50,0
121.25804,121.37708,59,40,0
121.25804,121.37708,63,40,0
120.78185,121.49613,56,50,0
121.49613,121.73423,49,50,0
121.97232,122.09137,61,40,0
121.97232,122.09137,64,40,0
122.21042,122.44852,51,50,0
122.21042,122.44852,59,50,0
122.21042,122.44852,63,50,0
122.44852,122.68661,51,50,0
122.44852,122.68661,59,50,0
122.44852,122.68661,63,50,0
122.68661,122.924706,51,50,0
122.68661,122.924706,58,50,0
122.68661,122.924706,63,50,0
123.400894,123.51994,58,40,0
123.400894,123.51994,63,40,0
122.924706,123.63899,55,50,0
124.11518,124.23423,59,40,0
124.11518,124.23423,63,40,0
123.63899,124.35327,56,50,0
124.35327,124.59137,49,50,0
124.82946,124.94851,61,40,0
124.82946,124.94851,64,40,0
125.06756,125.30566,51,50,0
125.06756,125.30566,59,50,0
125.06756,125.30566,63,50,0
125.30566,125.54375,51,50,0
125.30566,125.54375,59,50,0
125.30566,125.54375,63,50,0
125.54375,125.781845,51,50,0
125.54375,125.781845,58,50,0
125.54375,125.781845,63,50,0
125.781845,126.25803,51,50,0
126.25803,126.37708,58,40,0
126.25803,126.37708,61,40,0
126.49613,126.97232,51,50,0
126.97232,127.09137,59,40,0
126.97232,127.09137,63,40,0
127.21041,127.68661,51,50,0
127.68661,127.80565,61,40,0
127.68661,127.80565,64,40,0
127.9247,128.1628,51,50,0
127.9247,128.1628,58,50,0
127.9247,128.1628,61,50,0
128.1628,128.4009,51,50,0
128.1628,128.4009,58,50,0
128.1628,128.4009,61,50,0
128.4009,128.63898,51,50,0
128.4009,128.63898,55,50,0
128.4009,128.63898,58,50,0
128.63898,128.87708,51,50,0
129.11517,129.23422,61,40,0
129.11517,129.23422,64,40,0
129.35327,129.59137,51,50,0
129.35327,129.59137,58,50,0
129.35327,129.59137,61,50,0
129.59137,129.82945,51,50,0
129.59137,129.82945,58,50,0
129.59137,129.82945,61,50,0
129.82945,130.06755,51,50,0
129.82945,130.06755,55,50,0
129.82945,130.06755,58,50,0
130.06755,130.54375,51,50,0
130.54375,130.6628,61,40,0
130.54375,130.6628,64,40,0
130.78185,131.25803,51,50,0
131.25803,131.37708,61,53,0
131.25803,131.37708,64,53,0
131.49612,131.97232,51,69,0
131.97232,132.09135,61,73,0
131.97232,132.09135,64,73,0
132.2104,132.6866,51,89,0
132.6866,132.80565,61,93,0
132.6866,132.80565,64,93,0
132.9247,133.40088,51,109,0
133.40088,133.51993,61,110,0
133.40088,133.51993,64,110,0
135.13898,135.61517,52,50,0
135.61517,135.73422,61,40,0
135.61517,135.73422,64,40,0
135.85327,136.32945,52,50,0
136.32945,136.4485,61,40,0
136.32945,136.4485,64,40,0
136.56755,137.04373,52,50,0
137.04373,137.16278,61,40,0
137.04373,137.16278,64,40,0
137.28183,137.40088,52,50,0
137.28183,137.40088,59,50,0
137.28183,137.40088,62,50,0
137.51993,137.63898,52,50,0
137.51993,137.63898,59,50,0
137.51993,137.63898,62,50,0
137.75803,137.87708,52,50,0
137.75803,137.87708,57,50,0
137.75803,137.87708,61,50,0
137.99612,138.4723,52,50,0
138.4723,138.59135,59,40,0
138.4723,138.59135,62,40,0
138.7104,139.1866,52,50,0
139.1866,139.30565,59,40,0
139.1866,139.30565,62,40,0
139.42468,139.90088,52,50,0
139.90088,140.01993,59,40,0
139.90088,140.01993,62,40,0
140.13898,140.25803,52,50,0
140.13898,140.25803,57,50,0
140.13898,140.25803,61,50,0
140.37708,140.49611,52,50,0
140.37708,140.49611,57,50,0
140.37708,140.49611,61,50,0
140.61516,140.7342,52,50,0
140.61516,140.7342,56,50,0
140.61516,140.7342,59,50,0
140.85326,141.32945,52,50,0
141.32945,141.4485,61,40,0
141.32945,141.4485,64,40,0
141.56755,142.04373,52,50,0
142.04373,142.16278,61,40,0
142.04373,142.16278,64,40,0
142.28183,142.75803,52,50,0
142.75803,142.87706,61,40,0
142.75803,142.87706,64,40,0
142.99611,143.11516,52,50,0
142.99611,143.11516,59,50,0
142.99611,143.11516,62,50,0
143.2342,143.35326,52,50,0
143.2342,143.35326,59,50,0
143.2342,143.35326,62,50,0
143.4723,143.59135,52,50,0
143.4723,143.59135,57,50,0
143.4723,143.59135,61,50,0
143.7104,144.18658,52,50,0
144.18658,144.30563,59,40,0
144.18658,144.30563,62,40,0
144.42468,144.90088,52,50,0
144.90088,145.01993,59,40,0
144.90088,145.01993,62,40,0
145.13896,145.61516,52,50,0
145.61516,145.7342,59,40,0
145.61516,145.7342,62,40,0
145.85326,145.9723,52,50,0
145.85326,145.9723,57,50,0
145.85326,145.9723,61,50,0
146.09135,146.2104,52,50,0
146.09135,146.2104,57,50,0
146.09135,146.2104,61,50,0
146.32944,146.44849,52,50,0
146.32944,146.44849,56,50,0
146.32944,146.44849,59,50,0
147.04373,147.16278,57,40,0
147.04373,147.16278,61,40,0
146.56754,147.28183,52,50,0
147.75801,147.87706,56,54,0
147.75801,147.87706,59,54,0
147.28183,147.99611,52,50,0
148.4723,148.59134,57,77,0
148.4723,148.59134,61,77,0
147.99611,148.71039,52,72,0
149.18658,149.30563,59,99,0
149.18658,149.30563,62,99,0
148.71039,149.42468,52,94,0
149.42468,149.66278,51,100,0
149.42468,149.66278,63,100,0
149.42468,149.66278,60,100,0
149.42468,149.66278,56,100,0
149.66278,149.90086,51,60,0
149.66278,149.90086,63,60,0
149.66278,149.90086,60,60,0
149.66278,149.90086,56,60,0
149.90086,150.85326,56,60,0
149.90086,150.85326,60,60,0
150.85326,152.28181,58,60,0
149.90086,152.28181,51,60,0
149.90086,152.28181,63,60,0
150.85326,152.28181,61,60,0
152.28181,152.51991,51,100,0
152.28181,152.51991,63,100,0
152.28181,152.51991,60,100,0
152.28181,152.51991,56,100,0
152.51991,152.75801,51,60,0
152.51991,152.75801,63,60,0
152.51991,152.75801,60,60,0
152.51991,152.75801,56,60,0
152.75801,153.71039,56,60,0
152.75801,153.71039,60,60,0
153.71039,155.13896,55,60,0
152.75801,155.13896,51,60,0
152.75801,155.13896,63,60,0
153.71039,155.13896,61,60,0
155.13896,155.37706,51,60,0
155.13896,155.37706,63,60,0
155.13896,155.37706,60,60,0
155.13896,155.37706,56,60,0
155.37706,155.61514,51,60,0
155.37706,155.61514,63,60,0
155.37706,155.61514,60,60,0
155.37706,155.61514,56,60,0
155.61514,156.56754,56,60,0
155.61514,156.56754,60,60,0
156.56754,157.51991,55,72,0
155.61514,157.51991,51,60,0
155.61514,157.51991,63,60,0
156.56754,157.51991,61,72,0
158.23419,158.35324,44,100,0
158.35324,158.47229,48,100,0
158.47229,158.59134,51,100,0
158.59134,158.71039,49,100,0
158.71039,158.82944,48,100,0
158.82944,158.94849,46,100,0
158.94849,159.06752,44,100,0
159.06752,159.18657,43,100,0
159.18657,159.30562,41,100,0
159.30562,159.42467,39,100,0
159.42467,159.54372,37,100,0
159.54372,159.66277,36,100,0
159.66277,159.78181,34,100,0
159.78181,159.90086,32,100,0
159.90086,160.01991,31,100,0
160.01991,160.13895,32,100,0
160.13895,160.258,34,100,0
160.258,160.37704,36,100,0
160.37704,160.4961,37,100,0
160.4961,160.61514,39,100,0
160.61514,160.73419,41,100,0
160.73419,160.85324,43,100,0
160.85324,160.97229,44,100,0
160.97229,161.09134,46,100,0
161.09134,161.21039,48,101,0
161.21039,161.32942,49,102,0
161.32942,161.44847,51,103,0
161.44847,161.56752,53,104,0
161.56752,161.68657,55,105,0
161.68657,161.80562,56,106,0
161.80562,161.92467,58,107,0
161.92467,162.04372,60,108,0
162.04372,162.16277,61,109,0
162.16277,162.28181,63,110,0
162.28181,162.40086,65,110,0
162.40086,162.5199,63,106,0
162.5199,162.63895,61,102,0
162.63895,162.758,60,98,0
162.758,162.87704,58,93,0
162.87704,162.9961,56,89,0
162.9961,163.11514,55,85,0
163.11514,163.23419,53,81,0
163.23419,163.35324,51,76,0
163.35324,163.47229,49,72,0
163.47229,163.59132,48,68,0
163.59132,163.71037,46,63,0
163.71037,163.94847,44,60,0
163.94847,164.06752,56,60,0
164.06752,164.18657,60,60,0
164.18657,164.30562,63,60,0
164.30562,164.42467,61,60,0
164.42467,164.54372,60,60,0
164.54372,164.66277,58,60,0
164.66277,164.7818,56,60,0
164.7818,164.90085,55,60,0
164.90085,165.0199,53,60,0
165.0199,165.13895,51,60,0
165.13895,165.258,49,60,0
165.258,165.37704,48,60,0
165.37704,165.4961,46,60,0
165.4961,165.61514,44,60,0
165.61514,165.73419,43,60,0
165.73419,165.85324,44,60,0
165.85324,165.97227,46,60,0
165.97227,166.09132,48,60,0
166.09132,166.21037,49,60,0
166.21037,166.32942,51,60,0
166.32942,166.44847,53,60,0
166.44847,166.56752,55,60,0
166.56752,166.68657,56,60,0
166.68657,166.80562,58,61,0
166.80562,166.92467,60,63,0
166.92467,167.04372,61,65,0
167.04372,167.16275,63,67,0
167.16275,167.2818,65,68,0
169.66275,169.7818,56,100,0
169.7818,169.90085,59,100,0
169.90085,170.0199,63,100,0
170.0199,170.13895,61,100,0
170.13895,170.258,59,100,0
170.258,170.37704,58,100,0
170.37704,170.4961,56,100,0
170.4961,170.61513,54,100,0
170.61513,170.73418,52,100,0
170.73418,170.85323,51,100,0
170.85323,170.97227,49,100,0
170.97227,171.09132,47,100,0
171.09132,171.21037,46,100,0
171.21037,171.32942,44,100,0
171.32942,171.44847,43,100,0
171.44847,171.56752,44,100,0
171.56752,171.68655,46,100,0
171.68655,171.8056,47,100,0
171.8056,171.92465,49,100,0
171.92465,172.0437,51,100,0
172.0437,172.16275,53,100,0
172.16275,172.2818,55,100,0
172.2818,172.40085,56,100,0
172.40085,172.5199,58,100,0
172.5199,172.63895,59,101,0
172.63895,172.758,61,102,0
172.758,172.87703,63,103,0
172.87703,172.99608,65,104,0
174.42465,174.5437,66,100,0
174.5437,174.66275,64,100,0
174.66275,174.7818,62,100,0
174.7818,174.90085,61,100,0
174.90085,175.0199,59,100,0
175.0199,175.13895,57,100,0
175.13895,175.25798,56,100,0
175.25798,175.37703,54,100,0
175.37703,175.49608,52,100,0
175.49608,175.61513,50,100,0
175.61513,175.73418,49,100,0
175.73418,175.85323,47,100,0
175.85323,175.97227,45,100,0
175.97227,176.09132,44,100,0
176.09132,176.21037,42,100,0
176.21037,176.3294,40,100,0
176.3294,176.40878,38,100,0
176.40878,176.48814,37,100,0
176.48814,176.5675,35,100,0
176.5675,177.2818,33,110,0
177.2818,177.99608,33,110,0
177.2818,177.99608,45,110,0
177.99608,178.71036,45,110,0
177.99608,178.71036,33,110,0
178.71036,179.42465,45,110,0
178.71036,179.42465,33,110,0
179.42465,180.13893,33,110,0
179.42465,180.13893,45,110,0
180.13893,180.85323,45,110,0
180.13893,180.85323,49,110,0
180.13893,180.85323,52,110,0
180.85323,181.5675,45,97,0
180.85323,181.5675,57,97,0
180.85323,181.5675,52,97,0
180.85323,181.5675,49,97,0
181.5675,182.28178,52,83,0
181.5675,182.28178,56,83,0
181.5675,182.28178,59,83,0
182.75798,182.87703,56,60,0
182.75798,182.87703,60,60,0
182.28178,182.99608,51,70,0
183.47226,183.59131,60,60,0
183.47226,183.59131,63,60,0
182.99608,183.71036,51,70,0
184.18655,184.3056,58,60,0
184.18655,184.3056,61,60,0
183.71036,184.42464,51,70,0
184.90083,185.01988,55,60,0
184.90083,185.01988,58,60,0
184.42464,185.13893,51,70,0
185.61511,185.73416,56,60,0
185.61511,185.73416,60,60,0
185.13893,185.85321,51,70,0
186.3294,186.44846,60,67,0
186.3294,186.44846,63,67,0
185.85321,186.5675,51,70,0
187.04369,187.16273,58,77,0
187.04369,187.16273,61,77,0
186.5675,187.28178,51,80,0
187.75798,187.87701,55,88,0
187.75798,187.87701,58,88,0
187.28178,187.99606,51,91,0
188.47226,188.59131,56,98,0
188.47226,188.59131,60,98,0
187.99606,188.71036,51,101,0
189.18654,189.30559,51,91,0
189.18654,189.30559,57,91,0
189.18654,189.30559,54,91,0
189.18654,189.30559,60,91,0
188.71036,189.42464,48,110,0
189.90083,190.01988,53,77,0
189.90083,190.01988,58,77,0
189.90083,190.01988,61,77,0
189.42464,190.13893,49,97,0
190.61511,190.73416,55,64,0
190.61511,190.73416,58,64,0
190.13893,190.85321,51,83,0
190.85321,191.32939,40,70,0
191.32939,191.44844,52,60,0
191.32939,191.44844,55,60,0
191.32939,191.44844,60,60,0
191.56749,192.04369,40,70,0
192.04369,192.16273,52,60,0
192.04369,192.16273,55,60,0
192.04369,192.16273,60,60,0
192.28178,192.75797,40,70,0
192.75797,192.87701,52,89,0
192.75797,192.87701,55,89,0
192.75797,192.87701,60,89,0
192.99606,193.47226,40,110,0
193.47226,193.59131,52,71,0
193.47226,193.59131,55,71,0
193.47226,193.59131,60,71,0
193.71034,194.18654,39,70,0
194.18654,195.13892,56,60,0
194.18654,195.13892,60,60,0
195.13892,196.56749,58,60,0
195.13892,196.56749,61,60,0
194.18654,196.56749,51,60,0
196.56749,196.68654,40,70,0
197.04369,197.16272,52,60,0
197.04369,197.16272,55,60,0
197.04369,197.16272,60,60,0
197.28177,197.40082,40,70,0
197.75797,197.87701,52,60,0
197.75797,197.87701,55,60,0
197.75797,197.87701,60,60,0
197.99606,198.11511,40,70,0
198.47224,198.5913,52,89,0
198.47224,198.5913,55,89,0
198.47224,198.5913,60,89,0
198.71034,198.82939,40,110,0
199.18654,199.30559,52,71,0
199.18654,199.30559,55,71,0
199.18654,199.30559,60,71,0
199.42462,199.54367,39,70,0
199.90082,200.8532,56,60,0
199.90082,200.8532,60,60,0
200.8532,202.28177,55,60,0
200.8532,202.28177,61,60,0
199.90082,202.28177,51,60,0
202.28177,202.75797,40,70,0
202.75797,202.877,52,60,0
202.75797,202.877,55,60,0
202.75797,202.877,60,60,0
202.99605,203.47224,40,70,0
203.47224,203.5913,52,60,0
203.47224,203.5913,55,60,0
203.47224,203.5913,60,60,0
203.71034,204.18652,40,70,0
204.18652,204.30557,52,60,0
204.18652,204.30557,55,60,0
204.18652,204.30557,60,60,0
204.42462,204.90082,40,70,0
204.90082,205.01987,52,60,0
204.90082,205.01987,55,60,0
204.90082,205.01987,60,60,0
205.13892,205.6151,43,70,0
205.6151,206.56747,52,60,0
205.6151,206.56747,55,60,0
205.6151,206.56747,60,60,0
206.56747,207.99605,53,60,0
206.56747,207.99605,55,60,0
206.56747,207.99605,59,60,0
207.99605,208.1151,39,110,0
208.47224,209.42462,56,100,0
208.47224,209.42462,60,100,0
209.42462,210.6151,58,100,0
208.47224,210.6151,51,100,0
209.42462,210.6151,55,100,0
209.42462,210.6151,61,100,0
210.8532,210.97223,44,110,0
211.09128,211.21033,56,110,0
211.21033,211.32938,60,110,0
211.32938,211.44843,63,110,0
211.44843,211.56747,61,110,0
211.56747,211.68652,60,110,0
211.68652,211.80557,58,110,0
211.80557,211.92462,56,110,0
211.92462,212.04367,55,110,0
212.04367,212.1627,53,110,0
212.1627,212.28175,51,110,0
212.28175,212.4008,49,110,0
212.4008,212.51985,48,110,0
212.51985,212.6389,46,110,0
212.6389,212.75795,44,110,0
212.75795,212.877,43,110,0
212.877,212.99605,41,110,0
212.99605,213.1151,39,110,0
213.1151,213.23415,41,110,0
213.23415,213.35318,39,110,0
213.35318,213.47223,37,110,0
213.47223,213.59128,36,110,0
213.59128,213.71033,34,110,0
213.71033,213.82938,32,110,0
213.82938,213.94843,36,110,0
213.94843,214.06747,32,110,0
214.06747,214.18652,36,110,0
214.18652,214.30557,39,110,0
214.4246,214.54366,32,110,0
214.54366,214.6627,36,110,0
214.6627,214.78175,32,110,0
214.78175,214.9008,36,110,0
214.9008,215.01985,39,110,0
215.1389,215.25795,32,110,0
215.25795,215.377,36,110,0
215.377,215.49605,32,110,0
215.49605,215.61508,36,110,0
215.61508,215.73413,39,110,0
215.85318,215.97223,32,110,0
215.97223,216.09128,36,110,0
216.09128,216.21033,32,110,0
216.21033,216.32938,36,110,0
216.32938,216.44843,39,110,0
216.56747,217.04366,32,110,0
220.25793,220.37698,58,60,0
220.37698,220.49603,56,60,0
220.49603,220.61508,55,60,0
220.61508,220.73413,53,60,0
220.73413,220.85318,51,60,0
220.85318,220.97223,49,60,0
220.97223,221.09128,48,60,0
221.09128,221.21033,46,60,0
221.21033,221.32938,44,60,0
221.32938,221.44841,43,60,0
221.44841,221.56746,44,60,0
221.56746,221.68651,46,60,0
221.68651,221.80556,48,60,0
221.80556,221.9246,49,60,0
221.9246,222.04366,51,60,0
222.04366,222.1627,53,60,0
222.1627,222.28175,55,60,0
222.28175,222.4008,56,60,0
222.4008,222.51984,58,60,0
223.71031,223.82936,43,60,0
223.82936,223.94841,46,60,0
223.94841,224.06746,43,60,0
224.06746,224.18651,46,60,0
224.18651,224.30556,49,60,0
224.4246,224.54366,43,60,0
224.54366,224.6627,46,60,0
224.6627,224.78175,43,60,0
224.78175,224.90079,46,60,0
224.90079,225.01984,49,60,0
225.13889,225.25793,43,60,0
225.25793,225.37698,46,60,0
225.37698,225.49603,43,60,0
225.49603,225.61508,46,60,0
225.61508,225.73413,49,60,0
231.63889,231.75793,55,60,0
231.75793,231.87698,58,60,0
231.87698,231.99603,55,60,0
231.99603,232.11507,58,60,0
232.11507,232.23412,61,60,0
232.35316,232.47221,55,60,0
232.47221,232.59126,58,60,0
232.59126,232.71031,55,60,0
232.71031,232.82936,58,60,0
232.82936,232.94841,61,60,0
233.06746,233.18651,55,60,0
233.18651,233.30554,58,60,0
233.30554,233.42459,55,60,0
233.42459,233.54364,58,60,0
233.54364,233.66269,61,60,0
249.63887,249.75792,48,40,0
249.75792,249.87697,55,40,0
249.87697,249.99602,48,40,0
249.99602,250.11507,55,40,0
250.11507,250.2341,60,40,0
250.35315,250.4722,48,40,0
250.4722,250.59125,55,40,0
250.59125,250.7103,48,40,0
250.7103,250.82935,55,40,0
250.82935,252.07935,60,40,0
253.50792,253.62697,48,40,0
253.746,253.86505,60,40,0
253.9841,254.10315,48,40,0
254.2222,254.34125,60,40,0
254.4603,254.57935,48,40,0
254.6984,254.81744,60,40,0
254.93648,255.05553,48,40,0
254.93648,255.05553,52,40,0
255.17458,255.29362,60,40,0
255.41267,255.53172,52,40,0
255.41267,255.53172,48,40,0
255.65077,255.76982,60,40,0
255.88887,256.0079,52,40,0
255.88887,256.0079,48,40,0
256.12695,256.246,60,40,0
256.36505,256.4841,49,40,0
256.36505,256.4841,53,40,0
256.60315,256.7222,60,40,0
256.84125,256.9603,53,40,0
256.84125,256.9603,49,40,0
257.07935,257.1984,60,40,0
257.31744,257.4365,53,40,0
257.31744,257.4365,49,40,0
257.55554,257.6746,60,40,0
257.7936,257.91266,52,40,0
257.7936,257.91266,55,40,0
258.0317,258.15076,60,42,0
258.2698,258.38885,55,43,0
258.2698,258.38885,52,43,0
258.5079,258.62695,53,45,0
258.5079,258.62695,56,45,0
258.746,258.86505,60,47,0
258.9841,259.10315,56,48,0
258.9841,259.10315,53,48,0
259.2222,259.4603,55,50,0
259.2222,259.4603,58,50,0
259.4603,259.6984,55,52,0
259.4603,259.6984,58,52,0
259.4603,259.6984,60,52,0
259.6984,259.9365,55,54,0
259.6984,259.9365,58,54,0
259.6984,259.9365,61,54,0
259.9365,260.17456,55,55,0
259.9365,260.17456,58,55,0
259.9365,260.17456,62,55,0
260.17456,260.41266,55,57,0
260.17456,260.41266,58,57,0
260.17456,260.41266,63,57,0
260.41266,260.65076,55,59,0
260.41266,260.65076,58,59,0
260.41266,260.65076,64,59,0
260.65076,260.7698,53,60,0
260.88885,261.0079,56,60,0
260.88885,261.0079,60,60,0
260.88885,261.0079,65,60,0
261.12695,261.246,53,60,0
261.36505,261.4841,56,60,0
261.36505,261.4841,60,60,0
261.36505,261.4841,65,60,0
261.60315,261.7222,53,60,0
261.84125,261.9603,56,60,0
261.84125,261.9603,60,60,0
261.84125,261.9603,65,60,0
262.07935,262.1984,53,60,0
262.31744,262.43646,56,60,0
262.31744,262.43646,59,60,0
262.31744,262.43646,62,60,0
262.5555,262.67456,53,60,0
262.7936,262.91266,48,60,0
263.0317,263.15076,52,60,0
263.0317,263.15076,55,60,0
263.0317,263.15076,60,60,0
263.2698,263.38885,48,60,0
263.5079,263.62695,52,60,0
263.5079,263.62695,55,60,0
263.5079,263.62695,60,60,0
263.746,263.86505,48,60,0
263.9841,264.10315,52,60,0
263.9841,264.10315,55,60,0
263.9841,264.10315,60,60,0
264.2222,264.34125,49,60,0
264.4603,264.57935,53,60,0
264.4603,264.57935,61,60,0
264.69836,264.8174,49,60,0
264.93646,265.17456,46,60,0
265.17456,265.2936,55,60,0
265.17456,265.2936,58,60,0
265.41266,265.5317,48,60,0
265.41266,265.5317,55,60,0
265.41266,265.5317,58,60,0
265.65076,266.12695,53,60,0
265.65076,266.12695,56,60,0
266.36505,266.4841,53,60,0
266.60315,266.7222,56,60,0
266.60315,266.7222,60,60,0
266.60315,266.7222,65,60,0
266.84125,266.9603,53,60,0
267.0793,267.19836,56,60,0
267.0793,267.19836,60,60,0
267.0793,267.19836,65,60,0
267.3174,267.43646,53,60,0
267.5555,267.67456,56,60,0
267.5555,267.67456,60,60,0
267.5555,267.67456,65,60,0
267.7936,267.91266,53,60,0
268.0317,268.15076,56,60,0
268.0317,268.15076,59,60,0
268.0317,268.15076,62,60,0
268.2698,268.38885,53,60,0
268.5079,268.62695,48,60,0
268.746,268.86505,52,60,0
268.746,268.86505,55,60,0
268.746,268.86505,60,60,0
268.9841,269.10315,48,60,0
269.2222,269.34122,52,60,0
269.2222,269.34122,55,60,0
269.2222,269.34122,60,60,0
269.46027,269.5793,48,60,0
269.69836,269.8174,52,60,0
269.69836,269.8174,55,60,0
269.69836,269.8174,60,60,0
269.93646,270.0555,49,60,0
270.17456,270.2936,53,60,0
270.17456,270.2936,61,60,0
270.41266,270.5317,49,60,0
270.65076,270.88885,46,60,0
270.88885,271.0079,55,60,0
270.88885,271.0079,58,60,0
271.12695,271.246,58,60,0
271.12695,271.246,55,60,0
271.12695,271.246,48,60,0
271.36505,271.4841,53,60,0
271.36505,271.4841,56,60,0
272.0793,272.19836,36,120,0
272.3174,272.43646,48,100,0
272.5555,272.67456,36,120,0
272.7936,272.91266,48,100,0
273.0317,273.15076,36,120,0
273.2698,273.38885,48,100,0
273.5079,273.62695,36,60,0
273.746,273.86505,48,60,0
273.98407,274.10312,36,60,0
274.22217,274.34122,48,60,0
274.46027,274.5793,36,60,0
274.69836,274.8174,48,60,0
274.93646,275.0555,36,100,0
275.17456,275.2936,48,100,0
275.41266,275.65076,36,100,0
275.65076,275.7698,37,120,0
275.88885,276.0079,49,100,0
276.12695,276.24597,37,100,0
276.36502,276.48407,36,60,0
276.60312,276.72217,48,60,0
276.84122,276.96027,36,60,0
277.0793,277.19836,41,60,0
277.7936,277.91266,48,120,0
278.0317,278.15076,60,100,0
278.2698,278.38885,48,120,0
278.5079,278.62692,60,100,0
278.74597,278.86502,48,120,0
278.98407,279.10312,60,100,0
279.22217,279.34122,48,60,0
279.46027,279.5793,60,60,0
279.69836,279.8174,48,60,0
279.93646,280.0555,60,60,0
280.17456,280.2936,48,60,0
280.41266,280.5317,60,60,0
280.65076,280.7698,48,100,0
280.88882,281.00787,60,100,0
281.12692,281.36502,48,100,0
281.36502,281.48407,49,120,0
281.60312,281.72217,61,100,0
281.84122,281.96027,49,100,0
282.0793,282.19836,49,60,0
282.3174,282.43646,61,60,0
282.5555,282.67456,49,60,0
282.7936,282.91266,61,60,0
283.0317,283.15073,49,60,0
283.26978,283.38882,61,60,0
283.50787,283.62692,49,60,0
283.74597,283.86502,61,67,0
283.98407,284.10312,49,74,0
284.22217,284.34122,61,82,0
284.46027,284.5793,49,89,0
284.69836,284.8174,61,97,0
284.93646,285.0555,48,100,0
285.17456,285.2936,60,100,0
285.41266,285.53168,48,100,0
285.65073,285.76978,53,100,0
285.88882,287.0793,53,120,0
285.88882,287.0793,64,120,0
285.88882,287.0793,61,120,0
285.88882,287.0793,58,120,0
287.0793,287.19836,53,100,0
287.0793,287.19836,65,100,0
287.0793,287.19836,60,100,0
287.0793,287.19836,56,100,0
287.3174,288.50787,53,120,0
287.3174,288.50787,64,120,0
287.3174,288.50787,61,120,0
287.3174,288.50787,58,120,0
288.50787,288.62692,53,100,0
288.50787,288.62692,65,100,0
288.50787,288.62692,60,100,0
288.50787,288.62692,56,100,0
288.74597,289.93646,53,120,0
288.74597,289.93646,64,120,0
288.74597,289.93646,61,120,0
288.74597,289.93646,58,120,0
289.93646,290.0555,53,100,0
289.93646,290.0555,65,100,0
289.93646,290.0555,60,100,0
289.93646,290.0555,56,100,0
290.17453,292.29166,53,120,0
290.17453,292.29166,64,120,0
290.17453,292.29166,61,120,0
290.17453,292.29166,58,120,0
292.29166,292.4107,53,60,0
292.52975,292.6488,56,60,0
292.52975,292.6488,60,60,0
292.52975,292.6488,65,60,0
292.76785,292.8869,53,60,0
293.00595,293.125,56,60,0
293.00595,293.125,60,60,0
293.00595,293.125,65,60,0
293.24405,293.3631,53,60,0
293.48215,293.6012,56,60,0
293.48215,293.6012,60,60,0
293.48215,293.6012,65,60,0
293.72025,293.8393,53,60,0
293.95834,294.0774,56,60,0
293.95834,294.0774,59,60,0
293.95834,294.0774,62,60,0
294.19644,294.3155,53,60,0
294.43454,294.5536,48,60,0
294.6726,294.79166,52,60,0
294.6726,294.79166,55,60,0
294.6726,294.79166,60,60,0
294.9107,295.02975,48,60,0
295.1488,295.26785,52,60,0
295.1488,295.26785,55,60,0
295.1488,295.26785,60,60,0
295.3869,295.50595,48,60,0
295.625,295.74405,52,60,0
295.625,295.74405,55,60,0
295.625,295.74405,60,60,0
295.8631,295.98215,49,60,0
296.1012,296.22025,53,60,0
296.1012,296.22025,61,60,0
296.3393,296.45834,49,60,0
296.5774,296.8155,46,60,0
296.8155,296.9345,55,60,0
296.8155,296.9345,58,60,0
297.05356,297.1726,48,60,0
297.05356,297.1726,55,60,0
297.05356,297.1726,58,60,0
297.29166,297.76785,53,60,0
297.29166,297.76785,56,60,0
298.00595,298.125,53,60,0
298.24405,298.3631,56,60,0
298.24405,298.3631,60,60,0
298.24405,298.3631,65,60,0
298.48215,298.6012,53,60,0
298.72025,298.8393,56,60,0
298.72025,298.8393,60,60,0
298.72025,298.8393,65,60,0
298.95834,299.0774,53,60,0
299.19644,299.31546,56,60,0
299.19644,299.31546,60,60,0
299.19644,299.31546,65,60,0
299.4345,299.55356,53,60,0
299.6726,299.79166,56,60,0
299.6726,299.79166,59,60,0
299.6726,299.79166,62,60,0
299.9107,300.02975,53,60,0
300.1488,300.26785,48,60,0
300.3869,300.50595,52,60,0
300.3869,300.50595,55,60,0
300.3869,300.50595,60,60,0
300.625,300.74405,48,60,0
300.8631,300.98215,52,60,0
300.8631,300.98215,55,60,0
300.8631,300.98215,60,60,0
301.1012,301.22025,48,60,0
301.3393,301.45834,52,60,0
301.3393,301.45834,55,60,0
301.3393,301.45834,60,60,0
301.57736,301.6964,49,60,0
301.81546,301.9345,53,60,0
301.81546,301.9345,61,60,0
302.05356,302.1726,49,60,0
302.29166,302.4107,50,60,0
302.52975,302.6488,58,63,0
302.52975,302.6488,62,63,0
302.76785,302.8869,50,67,0
303.00595,303.125,51,70,0
303.24405,303.3631,58,74,0
303.24405,303.3631,63,74,0
303.48215,303.6012,51,77,0
303.72025,303.83926,48,81,0
303.9583,304.07736,60,84,0
304.1964,304.31546,48,88,0
304.4345,304.55356,47,91,0
304.6726,304.79166,59,95,0
304.9107,305.02975,47,98,0
305.1488,305.26785,46,120,0
305.3869,305.50595,53,100,0
305.3869,305.50595,58,100,0
305.3869,305.50595,62,100,0
305.625,305.74405,46,120,0
305.8631,305.98215,53,100,0
305.8631,305.98215,58,100,0
305.8631,305.98215,62,100,0
306.1012,306.2202,46,120,0
306.33926,306.4583,53,100,0
306.33926,306.4583,58,100,0
306.33926,306.4583,62,100,0
306.57736,306.6964,46,120,0
306.81546,306.9345,54,100,0
306.81546,306.9345,57,100,0
306.81546,306.9345,63,100,0
307.05356,307.1726,46,100,0
307.29166,307.4107,54,100,0
307.29166,307.4107,57,100,0
307.29166,307.4107,63,100,0
307.52975,307.6488,46,100,0
307.76785,307.8869,54,100,0
307.76785,307.8869,57,100,0
307.76785,307.8869,63,100,0
308.00595,308.125,46,120,0
308.24405,308.3631,53,100,0
308.24405,308.3631,58,100,0
308.24405,308.3631,62,100,0
308.48212,308.60117,46,120,0
308.7202,308.83926,53,100,0
308.7202,308.83926,58,100,0
308.7202,308.83926,62,100,0
308.9583,309.07736,46,120,0
309.1964,309.31546,53,100,0
309.1964,309.31546,58,100,0
309.1964,309.31546,62,100,0
309.4345,309.55356,46,120,0
309.6726,309.79166,54,100,0
309.6726,309.79166,57,100,0
309.6726,309.79166,63,100,0
309.9107,310.02975,46,100,0
310.1488,310.26785,54,100,0
310.1488,310.26785,57,100,0
310.1488,310.26785,63,100,0
310.3869,310.50595,46,100,0
310.625,310.74405,54,100,0
310.625,310.74405,57,100,0
310.625,310.74405,63,100,0
310.86307,310.98212,46,120,0
311.10117,311.2202,53,100,0
311.10117,311.2202,58,100,0
311.10117,311.2202,62,100,0
311.33926,311.4583,44,120,0
311.57736,311.6964,56,100,0
311.81546,311.9345,43,120,0
312.05356,312.1726,55,100,0
312.29166,312.4107,48,120,0
312.52975,312.6488,60,100,0
312.76785,312.8869,46,120,0
313.00595,313.12497,58,100,0
313.24402,313.36307,43,120,0
313.48212,313.60117,55,100,0
313.7202,313.83926,44,120,0
313.9583,314.07736,56,100,0
314.1964,314.31546,34,120,0
314.4345,314.55356,46,100,0
314.6726,314.79166,36,120,0
314.9107,315.02975,48,100,0
315.1488,315.26785,41,100,0
315.1488,315.26785,29,100,0
315.38687,316.57736,53,120,0
315.38687,316.57736,64,120,0
315.38687,316.57736,61,120,0
315.38687,316.57736,58,120,0
316.57736,316.6964,53,100,0
316.57736,316.6964,65,100,0
316.57736,316.6964,60,100,0
316.57736,316.6964,56,100,0
316.81546,318.00592,53,120,0
316.81546,318.00592,64,120,0
316.81546,318.00592,61,120,0
316.81546,318.00592,58,120,0
318.00592,318.12497,53,100,0
318.00592,318.12497,65,100,0
318.00592,318.12497,60,100,0
318.00592,318.12497,56,100,0
318.24402,319.4345,53,120,0
318.24402,319.4345,64,120,0
318.24402,319.4345,61,120,0
318.24402,319.4345,58,120,0
319.4345,319.55356,53,100,0
319.4345,319.55356,65,100,0
319.4345,319.55356,60,100,0
319.4345,319.55356,56,100,0
319.6726,321.07544,53,120,0
319.6726,321.07544,64,120,0
319.6726,321.07544,61,120,0
319.6726,321.07544,58,120,0
321.07544,321.1945,53,100,0
321.07544,321.1945,56,100,0
321.07544,321.1945,60,100,0
326.78973,329.64685,49,40,0
326.78973,329.64685,44,40,0
326.78973,329.64685,37,40,0
329.64685,332.504,48,40,0
329.64685,332.504,44,40,0
329.64685,332.504,36,40,0
332.504,335.36115,49,40,0
332.504,335.36115,44,40,0
332.504,335.36115,37,40,0
335.36115,336.0754,44,40,0
336.0754,336.7897,45,40,0
336.7897,338.2183,44,40,0
335.36115,338.2183,48,40,0
335.36115,338.2183,36,40,0
338.2183,338.93256,44,40,0
338.93256,339.64685,46,40,0
339.64685,341.0754,44,40,0
338.2183,341.0754,49,40,0
338.2183,341.0754,37,40,0
341.0754,341.7897,41,40,0
341.7897,342.504,42,40,0
342.504,343.93256,41,40,0
341.0754,343.93256,48,40,0
341.0754,343.93256,36,40,0
343.93256,344.64685,41,40,0
344.64685,345.3611,42,40,0
345.3611,346.7897,41,40,0
343.93256,346.7897,46,40,0
343.93256,346.7897,34,40,0
346.7897,348.21826,58,40,0
346.7897,348.21826,46,40,0
348.21826,349.64685,44,40,0
348.21826,349.64685,56,40,0
349.64685,352.50397,50,100,0
349.64685,352.50397,38,100,0
352.50397,353.93256,52,40,0
352.50397,353.93256,40,40,0
353.93256,355.3611,53,40,0
353.93256,355.3611,41,40,0
355.3611,358.21826,47,100,0
355.3611,358.21826,35,100,0
358.21826,361.0754,48,40,0
358.21826,361.0754,36,40,0
361.0754,363.21826,46,100,0
361.0754,363.21826,34,100,0
363.21826,363.93253,47,40,0
363.21826,363.93253,35,40,0
363.93253,366.78967,48,40,0
363.93253,366.78967,36,40,0
366.78967,369.64682,48,40,0
366.78967,369.64682,36,40,0
371.07538,371.17538,41,127,0
371.2754,371.3754,53,110,0
371.4754,371.57538,41,110,0
371.67538,371.7754,44,127,0
371.8754,371.9754,56,110,0
372.07538,372.17538,44,110,0
372.2754,372.3754,48,127,0
372.4754,372.57538,60,110,0
372.67538,372.7754,48,110,0
372.8754,372.9754,43,127,0
373.07538,373.17538,55,110,0
373.2754,373.3754,43,110,0
373.4754,373.57538,46,127,0
373.67538,373.7754,58,110,0
373.8754,373.9754,46,110,0
374.07538,374.17538,41,127,0
374.2754,374.3754,53,110,0
374.4754,374.57538,41,110,0
374.67538,374.7754,36,127,0
374.8754,374.9754,48,110,0
375.07538,375.17538,36,110,0
375.2754,375.3754,36,127,0
375.4754,375.57538,48,110,0
375.67538,375.7754,36,110,0
375.8754,375.9754,41,127,0
376.07538,376.17538,53,110,0
376.2754,376.3754,41,110,0
376.4754,376.57538,37,127,0
376.67538,376.7754,49,110,0
376.8754,376.9754,37,110,0
377.07538,377.17538,32,127,0
377.2754,377.3754,44,110,0
377.4754,377.57538,32,110,0
377.67538,377.7754,39,127,0
377.8754,377.9754,51,110,0
378.07538,378.17538,39,110,0
378.2754,378.3754,34,127,0
378.4754,378.57538,46,110,0
378.67538,378.7754,34,110,0
378.8754,378.9754,37,127,0
379.07538,379.17538,49,110,0
379.2754,379.3754,37,110,0
379.4754,379.57538,36,127,0
379.67538,379.7754,48,110,0
379.8754,379.9754,36,110,0
380.07538,380.17538,36,127,0
380.2754,380.3754,48,110,0
380.4754,380.57538,36,110,0
380.67538,380.7754,53,127,0
380.8754,380.9754,65,110,0
380.9754,381.07538,53,110,0
381.07538,381.17538,65,110,0
381.2754,381.3754,49,127,0
381.4754,381.57538,61,110,0
381.57538,381.67538,49,110,0
381.67538,381.7754,61,110,0
381.8754,381.9754,44,127,0
382.07538,382.17538,56,110,0
382.17538,382.2754,44,110,0
382.2754,382.3754,56,110,0
382.4754,382.57538,51,127,0
382.67538,382.7754,63,110,0
382.7754,382.8754,51,110,0
382.8754,382.9754,63,110,0
383.07538,383.17538,46,127,0
383.2754,383.3754,58,110,0
383.3754,383.4754,46,110,0
383.4754,383.57538,58,110,0
383.67538,383.7754,49,127,0
383.8754,383.9754,61,110,0
383.9754,384.07538,49,110,0
384.07538,384.17538,61,110,0
384.2754,384.3754,48,127,0
384.4754,384.57538,60,110,0
384.57538,384.67538,48,110,0
384.67538,384.7754,60,110,0
384.8754,384.9754,48,127,0
385.07538,385.17538,60,110,0
385.17538,385.2754,48,110,0
385.2754,385.3754,60,110,0
385.4754,385.57538,48,127,0
385.67538,385.7754,60,110,0
385.7754,385.8754,48,110,0
385.8754,385.9754,60,110,0
386.07538,386.17538,48,127,0
386.2754,386.3754,60,110,0
386.3754,386.4754,48,110,0
386.4754,386.57538,60,110,0
386.67538,386.7754,48,127,0
386.8754,386.9754,60,110,0
386.9754,387.07538,48,110,0
387.07538,387.17538,60,110,0
387.2754,387.3754,48,127,0
387.4754,387.57538,60,110,0
387.57538,387.67538,48,110,0
387.67538,387.7754,60,110,0
387.8754,388.07538,53,110,0
387.8754,388.07538,65,110,0
387.8754,388.07538,60,110,0
387.8754,388.07538,56,110,0
388.07538,388.2754,53,110,0
388.07538,388.2754,65,110,0
388.07538,388.2754,60,110,0
388.07538,388.2754,56,110,0
388.2754,389.8754,53,127,0
388.2754,389.8754,65,127,0
388.2754,389.8754,60,127,0
388.2754,389.8754,56,127,0
390.2754,390.3754,60,110,0
390.3754,390.4754,58,110,0
390.4754,390.57538,56,110,0
390.57538,390.67538,55,110,0
390.67538,390.7754,53,110,0
390.7754,390.8754,51,110,0
390.8754,390.9754,49,110,0
390.9754,391.07538,48,110,0
391.07538,391.17538,46,110,0
391.17538,391.2754,44,110,0
391.2754,391.3754,43,110,0
391.3754,391.4754,41,110,0
391.4754,391.57538,39,110,0
391.57538,391.67538,37,110,0
391.67538,391.7754,36,110,0
391.7754,391.8754,34,110,0
391.8754,391.9754,32,110,0
391.9754,392.07538,31,110,0
392.07538,392.2754,29,127,0
