start_time,end_time,note_value,velocity,instrument_program_number
0.0,0.416667,58,49,0
0.416667,0.833334,55,49,0
0.833334,1.250001,58,49,0
1.250001,1.666668,63,49,0
1.666668,2.500002,67,49,0
2.4479187,2.500002,67,49,0
2.500002,2.916669,70,49,0
2.916669,3.2291694,70,49,0
3.2291694,3.333336,62,49,0
3.333336,3.3750026,62,49,0
3.750003,3.7916696,62,49,0
4.16667,4.583337,62,49,0
5.000004,5.416671,62,49,0
5.416671,5.833338,63,49,0
5.833338,6.250005,67,49,0
6.250005,6.666672,59,49,0
6.666672,7.083339,60,49,0
7.0312557,7.083339,60,49,0
7.083339,7.2916727,70,75,0
7.2916727,7.500006,68,49,0
7.500006,7.7083397,67,49,0
7.7083397,7.916673,65,49,0
7.916673,8.33334,63,49,0
8.33334,8.750007,67,49,0
8.750007,9.166674,72,49,0
8.750007,9.166674,66,49,0
8.750007,9.166674,63,49,0
9.166674,9.583341,70,49,0
9.166674,9.583341,65,49,0
9.166674,9.583341,62,49,0
10.000008,10.416675,70,49,0
10.416675,10.833342,67,49,0
10.833342,11.250009,70,49,0
11.250009,11.666676,75,49,0
11.666676,12.50001,79,49,0
12.4479265,12.50001,79,49,0
12.50001,12.916677,82,75,0
12.916677,13.229177,82,49,0
13.229177,13.333344,74,49,0
13.333344,13.3750105,74,49,0
13.750011,13.791677,74,49,0
14.166678,14.583345,74,49,0
15.000012,15.416679,74,49,0
15.416679,15.833346,75,49,0
15.833346,16.250013,79,49,0
16.250013,16.66668,71,49,0
16.66668,17.083347,72,49,0
17.031263,17.083347,72,49,0
17.083347,17.291681,82,75,0
17.291681,17.500013,80,49,0
17.500013,17.708347,79,49,0
17.708347,17.916681,77,49,0
17.916681,18.333347,75,49,0
18.333347,18.750015,79,49,0
18.750015,19.166681,82,75,0
18.750015,19.166681,74,67,0
19.166681,19.58335,79,49,0
19.166681,19.58335,75,49,0
19.687515,19.7396,87,49,0
19.7396,19.791683,89,49,0
19.791683,20.000015,87,62,0
20.000015,20.20835,86,62,0
20.20835,20.416683,87,62,0
20.3646,20.416683,87,62,0
20.416683,20.625017,91,62,0
20.625017,20.83335,89,62,0
20.83335,21.041683,89,62,0
21.041683,21.250017,87,62,0
21.250017,21.458351,87,62,0
21.458351,21.666683,86,62,0
21.666683,21.875017,86,49,0
21.875017,22.083351,84,49,0
22.083351,22.291685,84,49,0
22.291685,22.500017,82,49,0
22.500017,22.708351,82,49,0
22.708351,22.916685,81,49,0
22.916685,23.75002,81,49,0
23.75002,23.958353,89,49,0
24.166685,24.791687,80,75,0
24.791687,25.00002,89,49,0
25.00002,25.208353,86,49,0
25.208353,25.416687,80,49,0
25.416687,25.729187,79,49,0
25.729187,25.833355,87,49,0
25.833355,26.250021,82,49,0
26.250021,26.666689,74,49,0
26.666689,27.083355,75,49,0
27.187521,27.239605,75,49,0
27.239605,27.291689,77,49,0
27.291689,27.500023,75,49,0
27.500023,27.708355,74,49,0
27.708355,27.916689,75,49,0
27.864605,27.916689,75,49,0
27.916689,28.125023,79,62,0
28.125023,28.333357,77,62,0
28.333357,28.541689,77,62,0
28.541689,28.750023,75,62,0
28.750023,28.958357,75,62,0
28.958357,29.16669,74,62,0
29.16669,29.375023,74,49,0
29.375023,29.583357,72,49,0
29.583357,29.79169,72,49,0
29.79169,30.000025,70,49,0
30.000025,30.208357,70,49,0
30.208357,30.41669,69,49,0
30.41669,31.250025,69,49,0
31.250025,31.458359,77,49,0
31.666693,32.29169,68,49,0
32.29169,32.500027,77,49,0
32.500027,32.70836,74,49,0
32.70836,32.916695,68,49,0
32.916695,33.229195,67,49,0
33.229195,33.33336,75,49,0
33.33336,33.750027,70,49,0
33.750027,34.166695,62,49,0
34.166695,34.208363,75,49,0
34.166695,34.208363,63,49,0
34.583363,34.625027,78,49,0
34.583363,34.625027,66,49,0
35.000027,35.041695,82,62,0
35.000027,35.041695,70,62,0
35.416695,36.25003,87,88,0
35.416695,36.25003,75,80,0
36.25003,36.291695,90,62,0
36.25003,36.291695,78,62,0
36.666695,36.708363,78,75,0
36.666695,36.708363,66,75,0
37.083363,37.12503,82,75,0
37.083363,37.12503,70,75,0
37.50003,37.5417,87,75,0
37.50003,37.5417,75,75,0
37.9167,38.75003,90,101,0
37.9167,38.75003,78,93,0
38.75003,38.7917,94,75,0
38.75003,38.7917,82,75,0
39.1667,39.208366,71,88,0
39.1667,39.208366,59,88,0
39.583366,39.62503,75,88,0
39.583366,39.62503,63,88,0
40.00003,40.0417,78,88,0
40.00003,40.0417,66,88,0
40.4167,41.250034,95,114,0
40.4167,41.250034,83,106,0
41.250034,41.2917,87,88,0
41.250034,41.2917,75,88,0
41.6667,41.708366,90,101,0
41.6667,41.708366,87,101,0
41.6667,41.708366,78,101,0
42.083366,42.125034,90,101,0
42.083366,42.125034,87,101,0
42.083366,42.125034,78,101,0
42.500034,42.541702,90,88,0
42.500034,42.541702,87,88,0
42.500034,42.541702,78,88,0
42.916702,42.958366,89,88,0
42.916702,42.958366,86,88,0
42.916702,42.958366,77,88,0
44.166702,44.27087,69,88,0
44.27087,44.375034,81,88,0
44.375034,44.479202,80,88,0
44.479202,44.58337,81,88,0
44.58337,44.687534,69,88,0
44.687534,44.791702,81,88,0
44.791702,44.89587,80,88,0
44.89587,45.000034,81,88,0
45.000034,45.104202,69,88,0
45.104202,45.20837,81,88,0
45.20837,45.31254,80,88,0
45.31254,45.416702,81,88,0
45.416702,45.62504,82,88,0
45.416702,45.62504,70,88,0
45.62504,45.729202,81,88,0
45.729202,45.83337,79,88,0
45.83337,45.93754,77,88,0
45.93754,46.041702,75,88,0
46.041702,46.14587,74,88,0
46.14587,46.25004,72,88,0
46.25004,46.27087,70,88,0
46.45837,46.479202,69,114,0
46.666702,46.87504,70,88,0
46.87504,46.979206,69,88,0
46.979206,47.08337,67,88,0
47.08337,47.18754,65,88,0
47.18754,47.291706,63,88,0
47.291706,47.39587,62,88,0
47.39587,47.50004,60,88,0
47.50004,47.52087,58,88,0
47.70837,47.729206,57,114,0
47.916706,48.12504,58,88,0
48.12504,48.229206,60,88,0
48.229206,48.33337,62,88,0
48.33337,48.43754,63,88,0
48.43754,48.541706,65,88,0
48.541706,48.645874,67,88,0
48.645874,48.75004,69,88,0
48.75004,48.770874,70,49,0
48.958374,48.979206,69,49,0
49.166706,49.18754,70,49,0
49.37504,49.3971,69,49,0
49.595627,49.619064,70,49,0
49.83,49.855003,71,49,0
50.08,50.10679,72,49,0
50.34786,50.376705,73,49,0
50.636322,51.278786,74,36,0
51.216286,51.278786,74,36,0
51.278786,51.341286,75,36,0
51.341286,51.591286,74,36,0
51.591286,51.841286,72,36,0
51.841286,52.091286,70,36,0
52.028786,52.091286,70,36,0
52.091286,52.299618,77,36,0
52.299618,52.50795,76,36,0
52.50795,52.924618,75,36,0
53.341286,53.914204,75,36,0
53.862118,53.914204,75,36,0
53.914204,53.966286,77,36,0
53.966286,54.174618,75,36,0
54.174618,54.382954,74,36,0
54.382954,54.591286,72,36,0
54.539204,54.591286,72,36,0
54.591286,54.799618,79,36,0
54.799618,55.007954,78,36,0
55.007954,55.42462,77,36,0
55.841286,56.466286,82,49,0
56.466286,56.570454,84,49,0
56.570454,56.67462,82,49,0
56.67462,56.882954,81,49,0
56.882954,57.09129,80,49,0
57.09129,57.40379,78,49,0
57.40379,57.507954,79,49,0
57.507954,57.820454,81,49,0
57.820454,57.92462,79,49,0
57.92462,58.02879,77,36,0
58.02879,58.132954,75,36,0
58.132954,58.23712,74,36,0
58.23712,58.34129,72,36,0
58.34129,58.65379,70,36,0
58.65379,58.757957,72,36,0
58.757957,59.070457,74,36,0
59.070457,59.17462,75,36,0
59.17462,59.48712,76,36,0
59.48712,59.59129,77,36,0
59.59129,60.007957,74,36,0
60.21629,60.320457,77,36,0
60.320457,60.424625,76,36,0
60.424625,60.52879,79,36,0
60.52879,60.632957,77,36,0
60.632957,60.737125,76,36,0
60.737125,60.84129,75,36,0
60.84129,61.414207,74,36,0
61.362125,61.414207,74,36,0
61.414207,61.466293,75,36,0
61.466293,61.674625,74,36,0
61.674625,61.882957,72,36,0
61.882957,62.091293,70,36,0
62.039207,62.091293,70,36,0
62.091293,62.299625,77,36,0
62.299625,62.507957,76,36,0
62.507957,62.924625,75,36,0
63.341293,63.91421,75,36,0
63.862125,63.91421,75,36,0
63.91421,63.966293,77,36,0
63.966293,64.17463,75,36,0
64.17463,64.38296,74,36,0
64.38296,64.59129,72,36,0
64.53921,64.59129,72,36,0
64.59129,64.79963,79,36,0
64.79963,65.00796,78,36,0
65.00796,65.42463,77,36,0
65.84129,66.46629,82,49,0
66.46629,66.570465,84,49,0
66.570465,66.67463,82,49,0
66.67463,66.882965,81,49,0
66.882965,67.09129,80,49,0
67.09129,67.40379,78,49,0
67.40379,67.507965,79,49,0
67.507965,67.820465,81,49,0
67.820465,67.92463,79,49,0
67.92463,68.02879,77,36,0
68.02879,68.132965,75,36,0
68.132965,68.23713,74,36,0
68.23713,68.34129,72,36,0
68.34129,68.6538,70,36,0
68.6538,68.757965,72,36,0
68.757965,69.070465,74,36,0
69.070465,69.17463,75,36,0
69.17463,69.2788,76,62,0
69.2788,69.382965,77,36,0
69.382965,69.48713,79,36,0
69.48713,69.5913,77,36,0
69.5913,69.79963,70,36,0
69.79963,69.9038,82,88,0
69.9038,70.007965,84,88,0
70.007965,70.11213,86,88,0
70.11213,70.2163,84,88,0
70.2163,70.320465,82,88,0
70.320465,70.42463,81,88,0
70.42463,70.5288,79,88,0
70.5288,70.632965,77,88,0
70.632965,70.73713,75,88,0
70.73713,70.8413,74,88,0
70.8413,70.945465,72,88,0
70.945465,71.04963,70,88,0
71.04963,71.1538,69,88,0
71.1538,71.257965,67,88,0
71.257965,71.36213,65,88,0
71.36213,71.4663,63,88,0
71.4663,71.570465,62,88,0
71.570465,71.67463,60,88,0
71.67463,71.7788,58,88,0
71.7788,71.882965,57,88,0
71.882965,71.98714,55,88,0
71.98714,72.0913,53,88,0
72.0913,72.29964,52,88,0
72.507965,72.92464,84,114,0
72.507965,72.92464,72,114,0
72.507965,72.92464,79,114,0
72.507965,72.92464,82,114,0
73.70589,73.757965,75,49,0
73.54964,73.757965,72,49,0
73.757965,73.9663,73,49,0
74.12255,74.17464,75,49,0
73.9663,74.17464,72,49,0
74.17464,74.382965,73,49,0
74.382965,74.5913,72,49,0
74.5913,74.79964,73,49,0
74.79964,74.820465,77,49,0
75.37255,75.42464,80,49,0
75.2163,75.42464,77,49,0
75.42464,75.63297,78,49,0
75.63297,75.8413,77,49,0
75.8413,76.04964,82,62,0
76.04964,76.07047,76,62,0
76.62255,76.67464,78,49,0
76.4663,76.67464,76,49,0
76.67464,76.88297,77,49,0
76.88297,77.0913,76,49,0
77.0913,77.29964,77,49,0
77.29964,77.32047,80,49,0
77.87255,77.92464,84,49,0
77.7163,77.92464,80,49,0
77.92464,78.13297,82,49,0
78.13297,78.34131,80,49,0
78.34131,78.44547,77,62,0
78.34131,78.44547,73,62,0
78.44547,78.54964,80,62,0
78.54964,78.65381,68,62,0
78.65381,78.75797,80,62,0
78.75797,78.86214,77,62,0
78.75797,78.86214,73,62,0
78.86214,78.96631,80,62,0
78.96631,79.07047,68,62,0
79.07047,79.17464,80,62,0
79.17464,79.27881,77,62,0
79.17464,79.27881,73,62,0
79.27881,79.38297,80,62,0
79.38297,79.48714,68,62,0
79.48714,79.59131,80,62,0
79.59131,79.69547,78,62,0
79.59131,79.69547,75,62,0
79.69547,79.79964,80,62,0
79.79964,79.90381,68,62,0
79.90381,80.00797,80,62,0
80.00797,80.11214,78,62,0
80.00797,80.11214,75,62,0
80.11214,80.21631,80,62,0
80.21631,80.32047,68,62,0
80.32047,80.42464,80,62,0
80.42464,80.52881,77,62,0
80.42464,80.52881,73,62,0
80.52881,80.63297,80,62,0
80.63297,80.73714,78,62,0
80.63297,80.73714,72,62,0
80.73714,80.84131,80,62,0
80.84131,80.94547,77,62,0
80.84131,80.94547,73,62,0
80.94547,81.04964,80,62,0
81.04964,81.15381,68,62,0
81.15381,81.25797,80,62,0
81.25797,81.362144,77,62,0
81.25797,81.362144,73,62,0
81.362144,81.46631,80,62,0
81.46631,81.57047,68,62,0
81.57047,81.674644,80,62,0
81.674644,81.77881,77,62,0
81.674644,81.77881,73,62,0
81.77881,81.88297,80,62,0
81.88297,81.987144,68,62,0
81.987144,82.09131,80,62,0
82.09131,82.19547,78,62,0
82.09131,82.19547,75,62,0
82.19547,82.299644,80,62,0
82.299644,82.40381,68,62,0
82.40381,82.50797,80,62,0
82.50797,82.612144,78,62,0
82.50797,82.612144,75,62,0
82.612144,82.71631,80,62,0
82.71631,82.82047,68,62,0
82.82047,82.924644,80,62,0
82.924644,83.02881,77,62,0
82.924644,83.02881,73,62,0
83.02881,83.13297,80,62,0
83.13297,83.237144,78,62,0
83.13297,83.237144,72,62,0
83.237144,83.34131,80,62,0
83.34131,83.44547,77,62,0
83.34131,83.44547,73,62,0
83.44547,83.549644,80,62,0
83.549644,83.65381,68,62,0
83.65381,83.75797,80,62,0
83.75797,83.862144,77,62,0
83.75797,83.862144,73,62,0
83.862144,83.96631,80,62,0
83.96631,84.07047,68,62,0
84.07047,84.174644,80,62,0
84.174644,84.27881,77,62,0
84.174644,84.27881,73,62,0
84.27881,84.38297,80,62,0
84.38297,84.487144,68,62,0
84.487144,84.59131,80,62,0
84.59131,84.69548,80,75,0
84.59131,84.69548,77,75,0
84.69548,84.799644,83,75,0
84.799644,84.90381,71,75,0
84.90381,85.00798,83,75,0
85.00798,85.112144,80,75,0
85.00798,85.112144,77,75,0
85.112144,85.21631,83,75,0
85.21631,85.32048,71,75,0
85.32048,85.424644,83,75,0
85.424644,85.52881,80,75,0
85.424644,85.52881,77,75,0
85.52881,85.63298,83,75,0
85.63298,85.737144,71,75,0
85.737144,85.84131,83,75,0
85.84131,85.94548,79,75,0
85.94548,86.049644,84,75,0
86.049644,86.15381,72,75,0
86.15381,86.25798,84,75,0
86.25798,86.362144,79,62,0
86.362144,86.46631,82,62,0
86.46631,86.57048,73,62,0
86.57048,86.674644,82,62,0
86.674644,86.77881,77,62,0
86.77881,86.88298,80,62,0
86.88298,86.987144,72,62,0
86.987144,87.09131,80,62,0
87.09131,87.19548,75,36,0
87.09131,87.19548,72,36,0
87.19548,87.299644,79,36,0
87.299644,87.40381,67,36,0
87.40381,87.50798,79,36,0
87.50798,87.612144,75,36,0
87.50798,87.612144,69,36,0
87.612144,87.71632,78,36,0
87.71632,87.82048,67,36,0
87.82048,87.924644,78,36,0
87.924644,88.02882,74,36,0
87.924644,88.02882,71,36,0
88.02882,88.13298,77,36,0
88.13298,88.237144,67,36,0
88.237144,88.34132,77,36,0
88.34132,88.75798,75,75,0
88.34132,88.75798,72,75,0
89.12257,89.174644,75,75,0
88.96632,89.174644,72,75,0
89.174644,89.38298,74,75,0
89.38298,89.59132,72,75,0
89.59132,89.799644,71,75,0
89.799644,90.21632,79,101,0
90.21632,90.424644,77,75,0
90.424644,90.63298,75,75,0
90.63298,90.84132,74,75,0
90.84132,91.04965,72,75,0
91.04965,91.07048,84,75,0
91.62257,91.67465,75,75,0
91.46632,91.67465,72,75,0
91.67465,91.88298,74,75,0
91.88298,92.09132,72,75,0
92.09132,92.29965,71,75,0
92.29965,92.71632,79,101,0
92.71632,92.92465,77,75,0
92.92465,93.13298,75,75,0
93.13298,93.34132,74,75,0
93.34132,93.54965,72,75,0
93.54965,93.96632,87,101,0
93.96632,94.17465,86,75,0
94.17465,94.38299,84,75,0
94.38299,94.59132,82,75,0
94.59132,94.79965,80,62,0
94.79965,95.21632,84,88,0
95.21632,95.42465,82,62,0
95.42465,95.63299,80,62,0
95.63299,95.84132,79,62,0
95.84132,97.09132,78,36,0
97.09132,97.1434,79,49,0
97.1434,97.19549,77,49,0
97.19549,97.247574,79,49,0
97.247574,97.29965,77,49,0
97.29965,97.35174,79,49,0
97.35174,97.403824,77,49,0
97.403824,97.4559,79,49,0
97.4559,97.50799,77,49,0
97.50799,97.560074,79,62,0
97.560074,97.61215,77,62,0
97.61215,97.66424,79,62,0
97.66424,97.716324,77,62,0
97.716324,97.7684,79,62,0
97.7684,97.82049,77,62,0
97.82049,97.872574,79,62,0
97.872574,97.92465,77,62,0
97.92465,97.97674,79,75,0
97.97674,98.028824,77,75,0
98.028824,98.0809,79,75,0
98.0809,98.13299,77,75,0
98.13299,98.20243,76,75,0
98.20243,98.27187,77,75,0
98.2684,98.33785,79,75,0
98.341324,98.36215,77,88,0
98.54965,98.966324,86,114,0
98.54965,98.966324,74,106,0
98.966324,99.17465,84,88,0
98.966324,99.17465,72,88,0
99.17465,99.38299,82,88,0
99.17465,99.38299,70,88,0
99.38299,99.591324,81,88,0
99.38299,99.591324,69,88,0
99.591324,99.69549,82,88,0
99.591324,99.69549,70,88,0
99.69549,99.79965,77,88,0
99.79965,100.216324,86,75,0
99.79965,100.216324,74,67,0
100.216324,100.42466,84,49,0
100.216324,100.42466,72,49,0
100.42466,100.63299,82,49,0
100.42466,100.63299,70,49,0
100.63299,100.841324,81,49,0
100.63299,100.841324,69,49,0
100.841324,100.94549,82,49,0
100.841324,100.94549,70,49,0
100.94549,101.04966,77,49,0
101.04966,101.466324,86,114,0
101.04966,101.466324,74,106,0
101.466324,101.67466,84,88,0
101.466324,101.67466,72,88,0
101.67466,101.88299,82,88,0
101.67466,101.88299,70,88,0
101.88299,102.091324,81,88,0
101.88299,102.091324,69,88,0
102.091324,102.19549,82,88,0
102.091324,102.19549,70,88,0
102.19549,102.29966,77,88,0
102.29966,102.716324,86,75,0
102.29966,102.716324,74,67,0
102.716324,102.92466,84,49,0
102.716324,102.92466,72,49,0
102.92466,103.13299,82,49,0
102.92466,103.13299,70,49,0
103.13299,103.341324,81,49,0
103.13299,103.341324,69,49,0
103.341324,103.44549,82,49,0
103.44549,103.54966,86,49,0
103.54966,103.653824,85,49,0
103.653824,103.757996,86,49,0
103.757996,103.86216,91,49,0
103.86216,103.966324,89,49,0
103.966324,104.070496,81,49,0
104.070496,104.17466,82,49,0
104.17466,104.278824,87,62,0
104.278824,104.382996,86,62,0
104.382996,104.48716,76,62,0
104.48716,104.591324,77,62,0
104.591324,104.695496,84,62,0
104.695496,104.79966,82,62,0
104.79966,104.903824,73,62,0
104.903824,105.007996,74,62,0
105.007996,105.11216,79,75,0
105.11216,105.216324,77,75,0
105.216324,105.320496,69,75,0
105.320496,105.42466,70,75,0
105.42466,105.528824,75,75,0
105.528824,105.632996,74,75,0
105.632996,105.73716,64,75,0
105.73716,105.841324,65,75,0
105.841324,105.945496,73,88,0
105.945496,106.04966,64,88,0
106.04966,106.153824,67,88,0
106.153824,106.257996,70,88,0
106.257996,106.36216,73,88,0
106.36216,106.466324,76,88,0
106.466324,106.570496,79,88,0
106.570496,106.67466,82,88,0
106.67466,106.695496,85,88,0
107.09133,108.132996,89,127,0
107.09133,108.132996,77,115,0
107.09133,108.132996,84,119,0
107.09133,108.132996,87,123,0
108.34133,108.445496,86,49,0
108.445496,108.54966,82,49,0
108.54966,108.65383,79,49,0
108.65383,108.757996,75,49,0
108.757996,109.17466,74,49,0
109.17466,109.59133,77,75,0
109.17466,109.59133,69,67,0
109.59133,110.007996,70,49,0
110.007996,110.42467,74,49,0
110.007996,110.42467,62,49,0
110.42467,110.84133,77,49,0
110.42467,110.84133,65,49,0
110.84133,111.257996,82,75,0
110.84133,111.257996,70,67,0
111.257996,111.67467,86,49,0
111.257996,111.67467,74,49,0
112.09133,112.507996,70,49,0
112.507996,112.92467,75,49,0
112.507996,112.92467,63,49,0
112.92467,113.34133,79,49,0
112.92467,113.34133,67,49,0
113.34133,113.758,82,75,0
113.34133,113.758,70,67,0
113.758,114.17467,87,49,0
113.758,114.17467,75,49,0
114.59133,115.008,78,88,0
114.59133,115.11217,90,88,0
115.11217,115.21633,87,49,0
115.21633,115.3205,84,49,0
115.3205,115.42467,81,49,0
115.42467,115.52883,78,49,0
115.52883,115.633,75,49,0
115.633,115.73717,72,49,0
115.73717,115.84133,69,49,0
115.84133,116.04967,70,49,0
117.09134,117.1955,58,36,0
117.1955,117.29967,70,36,0
117.29967,117.40384,62,36,0
117.40384,117.508,70,36,0
117.508,117.61217,65,36,0
117.61217,117.71634,70,36,0
117.71634,117.8205,68,36,0
117.8205,117.92467,70,36,0
117.92467,118.02884,65,36,0
118.02884,118.133,70,36,0
118.133,118.23717,62,36,0
118.23717,118.34134,70,36,0
118.34134,118.4455,58,36,0
118.4455,118.54967,70,36,0
118.54967,118.65384,62,36,0
118.65384,118.758,70,36,0
118.758,118.86217,65,36,0
118.86217,118.96634,70,36,0
118.96634,119.0705,68,36,0
119.0705,119.17467,70,36,0
119.17467,119.27884,65,36,0
119.27884,119.383,70,36,0
119.383,119.487175,62,36,0
119.487175,119.59134,70,36,0
119.59134,119.6955,58,36,0
119.6955,119.799675,70,36,0
119.799675,119.90384,63,36,0
119.90384,120.008,70,36,0
120.008,120.112175,67,36,0
120.112175,120.21634,70,36,0
120.21634,120.3205,69,36,0
120.3205,120.424675,70,36,0
120.424675,120.52884,67,36,0
120.52884,120.633,70,36,0
120.633,120.737175,63,36,0
120.737175,120.84134,70,36,0
120.84134,120.9455,58,36,0
120.9455,121.049675,70,36,0
121.049675,121.15384,63,36,0
121.15384,121.258,70,36,0
121.258,121.362175,67,36,0
121.362175,121.46634,70,36,0
121.46634,121.5705,69,36,0
121.5705,121.674675,70,36,0
121.674675,121.77884,67,36,0
121.77884,121.883,70,36,0
121.883,121.987175,63,36,0
121.987175,122.09134,70,36,0
122.09134,122.1955,58,36,0
122.1955,122.299675,69,36,0
122.299675,122.40384,60,36,0
122.40384,122.508,69,36,0
122.508,122.612175,63,36,0
122.612175,122.71634,69,36,0
122.71634,122.82051,66,36,0
122.82051,122.924675,69,36,0
122.924675,123.02884,63,36,0
123.02884,123.13301,69,36,0
123.13301,123.237175,60,36,0
123.237175,123.34134,69,36,0
123.34134,123.44551,58,36,0
123.44551,123.549675,70,36,0
123.549675,123.65384,62,36,0
123.65384,123.75801,70,36,0
123.75801,123.862175,65,36,0
123.862175,123.96634,70,36,0
123.96634,124.07051,69,36,0
124.07051,124.174675,70,36,0
124.174675,124.27884,68,36,0
124.27884,124.38301,70,36,0
124.38301,124.487175,65,36,0
124.487175,124.59134,70,36,0
124.59134,124.69551,58,36,0
124.69551,124.799675,70,36,0
124.799675,124.90384,63,36,0
124.90384,125.00801,70,36,0
125.00801,125.112175,65,36,0
125.112175,125.21634,70,36,0
125.21634,125.32051,66,62,0
125.32051,125.424675,70,36,0
125.424675,125.52884,65,36,0
125.52884,125.63301,70,36,0
125.63301,125.737175,63,36,0
125.737175,125.84135,70,36,0
125.84135,126.049675,69,49,0
126.049675,126.25801,70,49,0
126.25801,126.46635,69,49,0
126.46635,126.674675,66,49,0
126.674675,126.88301,65,49,0
126.88301,127.09135,69,49,0
127.09135,127.19551,70,36,0
127.19551,127.299675,82,36,0
127.299675,127.40385,74,36,0
127.40385,127.50801,82,36,0
127.50801,127.612175,77,36,0
127.612175,127.71635,82,36,0
127.71635,127.82051,80,36,0
127.82051,127.924675,82,36,0
127.924675,128.02884,77,36,0
128.02884,128.13301,82,36,0
128.13301,128.23718,74,36,0
128.23718,128.34134,82,36,0
128.34134,128.44551,70,36,0
128.44551,128.54968,82,36,0
128.54968,128.65384,75,36,0
128.65384,128.75801,82,36,0
128.75801,128.86218,77,75,0
128.86218,128.96634,82,75,0
128.96634,129.07051,78,101,0
129.07051,129.17468,82,75,0
129.17468,129.27884,77,75,0
129.27884,129.38301,82,75,0
129.38301,129.48718,75,75,0
129.48718,129.59134,82,75,0
129.59134,129.79968,81,75,0
129.79968,130.01245,82,75,0
130.01245,130.22984,81,75,0
130.22984,130.45206,78,75,0
130.45206,130.68106,77,75,0
130.68106,130.91544,81,75,0
130.91544,131.15544,82,75,0
131.15544,131.40134,85,75,0
131.40134,131.65558,86,75,0
131.65558,131.90982,85,75,0
131.90982,132.16406,86,75,0
132.16406,132.41829,82,75,0
132.41829,132.67253,81,49,0
132.67253,132.92677,82,49,0
132.92677,133.181,81,49,0
133.181,133.43524,78,49,0
133.43524,133.68948,77,49,0
133.68948,133.94373,81,49,0
133.94373,134.19795,82,49,0
134.19795,134.4522,73,49,0
134.4522,134.70644,74,49,0
134.70644,134.96066,73,49,0
134.96066,135.2149,74,49,0
135.2149,135.46915,70,49,0
135.46915,135.72337,69,49,0
135.72337,135.97762,70,49,0
135.97762,136.23186,69,49,0
136.23186,136.4861,66,49,0
136.4861,136.74033,65,49,0
136.74033,136.99457,69,49,0
136.99457,137.12169,70,36,0
136.99457,137.12169,62,36,0
137.12169,137.24881,58,36,0
137.24881,137.37593,70,36,0
137.24881,137.37593,65,36,0
137.24881,137.37593,62,36,0
137.37593,137.50304,58,36,0
137.50304,137.63016,70,36,0
137.50304,137.63016,65,36,0
137.50304,137.63016,62,36,0
137.63016,137.75728,58,36,0
137.75728,137.8844,70,36,0
137.75728,137.8844,65,36,0
137.75728,137.8844,62,36,0
137.8844,138.01152,58,36,0
138.01152,138.13864,70,36,0
138.01152,138.13864,65,36,0
138.01152,138.13864,62,36,0
138.13864,138.26576,58,36,0
138.26576,138.39287,70,36,0
138.26576,138.39287,65,36,0
138.26576,138.39287,62,36,0
138.39287,138.51999,58,36,0
138.51999,138.64711,70,36,0
138.51999,138.64711,65,36,0
138.51999,138.64711,62,36,0
138.64711,138.77423,58,36,0
138.77423,138.90135,70,36,0
138.77423,138.90135,65,36,0
138.77423,138.90135,62,36,0
138.90135,139.02847,58,36,0
139.02847,139.1556,70,36,0
139.02847,139.1556,65,36,0
139.02847,139.1556,62,36,0
139.1556,139.2827,58,36,0
139.2827,139.40982,70,36,0
139.2827,139.40982,65,36,0
139.2827,139.40982,62,36,0
139.40982,139.53694,58,36,0
139.53694,139.66406,70,36,0
139.53694,139.66406,65,36,0
139.53694,139.66406,62,36,0
139.66406,139.79118,58,36,0
139.79118,139.9183,70,36,0
139.79118,139.9183,65,36,0
139.79118,139.9183,62,36,0
139.9183,140.04543,58,36,0
140.04543,140.17253,70,36,0
140.04543,140.17253,62,36,0
140.04543,140.17253,65,36,0
140.04543,140.17253,68,36,0
140.17253,140.29965,58,36,0
140.29965,140.42677,70,36,0
140.29965,140.42677,62,36,0
140.29965,140.42677,65,36,0
140.29965,140.42677,68,36,0
140.42677,140.5539,58,36,0
140.5539,140.68102,70,36,0
140.5539,140.68102,62,36,0
140.5539,140.68102,65,36,0
140.5539,140.68102,68,36,0
140.68102,140.80814,58,36,0
140.80814,140.93524,70,36,0
140.80814,140.93524,62,36,0
140.80814,140.93524,65,36,0
140.80814,140.93524,68,36,0
140.93524,141.06236,58,36,0
141.06236,141.18948,70,36,0
141.06236,141.18948,62,36,0
141.06236,141.18948,65,36,0
141.06236,141.18948,68,36,0
141.18948,141.3166,58,36,0
141.3166,141.44373,70,36,0
141.3166,141.44373,62,36,0
141.3166,141.44373,65,36,0
141.3166,141.44373,68,36,0
141.44373,141.57085,58,36,0
141.57085,142.07932,70,36,0
141.57085,142.07932,62,36,0
141.57085,142.07932,65,36,0
141.57085,142.07932,68,36,0
142.5878,143.09627,58,36,0
143.09627,143.51294,55,36,0
143.51294,143.9296,58,36,0
143.9296,144.34627,63,36,0
144.34627,145.1796,67,36,0
145.12752,145.1796,67,36,0
145.1796,145.59627,70,36,0
145.59627,145.90877,70,36,0
145.90877,146.01294,62,36,0
146.01294,146.05461,62,36,0
146.42961,146.47127,62,36,0
146.84627,147.26294,62,36,0
147.67961,148.09627,62,36,0
148.09627,148.51294,63,36,0
148.51294,148.92961,67,36,0
148.92961,149.34627,59,36,0
149.34627,149.76294,60,36,0
149.71086,149.76294,60,36,0
149.76294,149.97127,70,62,0
149.97127,150.17961,68,36,0
150.17961,150.38794,67,36,0
150.38794,150.59627,65,36,0
150.59627,151.01294,63,36,0
151.01294,151.42961,67,36,0
151.42961,151.84627,72,36,0
151.42961,151.84627,66,36,0
151.42961,151.84627,63,36,0
151.84627,152.26294,70,36,0
151.84627,152.26294,65,36,0
151.84627,152.26294,62,36,0
152.67961,153.09628,70,36,0
153.09628,153.51294,67,36,0
153.51294,153.92961,70,36,0
153.92961,154.34628,75,36,0
154.34628,155.17961,79,36,0
155.12753,155.17961,79,36,0
155.17961,155.59628,82,62,0
155.59628,155.90878,82,36,0
155.90878,156.01294,74,36,0
156.01294,156.05461,74,36,0
156.42961,156.47128,74,36,0
156.84628,157.26294,74,36,0
157.67961,158.09628,74,36,0
158.09628,158.51294,75,36,0
158.51294,158.92961,79,36,0
158.92961,159.34628,71,36,0
159.34628,159.76295,72,36,0
159.71086,159.76295,72,36,0
159.76295,159.97128,82,62,0
159.97128,160.17961,80,36,0
160.17961,160.38795,79,36,0
160.38795,160.59628,77,36,0
160.59628,161.01295,75,36,0
161.01295,161.42961,79,36,0
161.42961,161.84628,82,62,0
161.42961,161.84628,74,54,0
161.84628,162.26295,79,36,0
161.84628,162.26295,75,36,0
162.36711,162.4192,87,36,0
162.4192,162.47128,89,36,0
162.47128,162.67961,87,62,0
162.67961,162.88795,86,62,0
162.88795,163.09628,87,62,0
163.0442,163.09628,87,62,0
163.09628,163.30461,91,62,0
163.30461,163.51295,89,62,0
163.51295,163.72128,89,62,0
163.72128,163.92961,87,62,0
163.92961,164.13795,87,62,0
164.13795,164.34628,86,62,0
164.34628,164.55461,86,49,0
164.55461,164.76295,84,49,0
164.76295,164.97128,84,49,0
164.97128,165.17963,82,49,0
165.17963,165.38795,82,49,0
165.38795,165.59628,81,49,0
165.59628,166.42963,81,49,0
166.42963,166.63795,89,49,0
166.84628,167.47128,80,75,0
167.47128,167.67963,89,49,0
167.67963,167.88795,86,49,0
167.88795,168.09628,80,49,0
168.09628,168.40878,79,49,0
168.40878,168.51295,87,49,0
168.51295,168.92963,82,49,0
168.92963,169.34628,74,49,0
169.34628,169.76295,75,49,0
169.86713,169.9192,75,49,0
169.9192,169.97128,77,49,0
169.97128,170.17963,75,49,0
170.17963,170.38795,74,49,0
170.38795,170.59628,75,49,0
170.5442,170.59628,75,49,0
170.59628,170.80463,79,62,0
170.80463,171.01295,77,62,0
171.01295,171.22128,77,62,0
171.22128,171.42963,75,62,0
171.42963,171.63795,75,62,0
171.63795,171.8463,74,62,0
171.8463,172.05463,74,49,0
172.05463,172.26295,72,49,0
172.26295,172.4713,72,49,0
172.4713,172.67963,70,49,0
172.67963,172.88795,70,49,0
172.88795,173.0963,69,49,0
173.0963,173.92963,69,49,0
173.92963,174.13795,77,49,0
174.3463,174.9713,68,49,0
174.9713,175.17963,77,49,0
175.17963,175.38795,74,49,0
175.38795,175.5963,68,49,0
175.5963,175.9088,67,49,0
175.9088,176.01295,75,49,0
176.01295,176.42963,70,49,0
176.42963,176.8463,62,49,0
176.8463,176.88795,75,49,0
176.8463,176.88795,63,49,0
177.26295,177.30463,78,49,0
177.26295,177.30463,66,49,0
177.67963,177.7213,82,62,0
177.67963,177.7213,70,62,0
178.0963,178.92963,87,88,0
178.0963,178.92963,75,80,0
178.92963,178.9713,90,62,0
178.92963,178.9713,78,62,0
179.3463,179.38797,78,75,0
179.3463,179.38797,66,75,0
179.76297,179.80463,82,75,0
179.76297,179.80463,70,75,0
180.17963,180.2213,87,75,0
180.17963,180.2213,75,75,0
180.5963,181.42963,90,101,0
180.5963,181.42963,78,93,0
181.42963,181.4713,94,75,0
181.42963,181.4713,82,75,0
181.8463,181.88797,71,88,0
181.8463,181.88797,59,88,0
182.26297,182.30463,75,88,0
182.26297,182.30463,63,88,0
182.67963,182.7213,78,88,0
182.67963,182.7213,66,88,0
183.0963,183.92963,95,114,0
183.0963,183.92963,83,106,0
183.92963,183.9713,87,88,0
183.92963,183.9713,75,88,0
184.3463,184.38797,90,101,0
184.3463,184.38797,87,101,0
184.3463,184.38797,78,101,0
184.76297,184.80464,90,101,0
184.76297,184.80464,87,101,0
184.76297,184.80464,78,101,0
185.17964,185.2213,90,88,0
185.17964,185.2213,87,88,0
185.17964,185.2213,78,88,0
185.5963,185.63797,89,88,0
185.5963,185.63797,86,88,0
185.5963,185.63797,77,88,0
186.8463,186.95047,69,88,0
186.95047,187.05464,81,88,0
187.05464,187.1588,80,88,0
187.1588,187.26297,81,88,0
187.26297,187.36714,69,88,0
187.36714,187.4713,81,88,0
187.4713,187.57547,80,88,0
187.57547,187.67964,81,88,0
187.67964,187.7838,69,88,0
187.7838,187.88797,81,88,0
187.88797,187.99214,80,88,0
187.99214,188.0963,81,88,0
188.0963,188.30464,82,88,0
188.0963,188.30464,70,88,0
188.30464,188.4088,81,88,0
188.4088,188.51297,79,88,0
188.51297,188.61714,77,88,0
188.61714,188.7213,75,88,0
188.7213,188.82547,74,88,0
188.82547,188.92964,72,88,0
188.92964,188.95047,70,88,0
189.13797,189.1588,69,114,0
189.3463,189.55464,70,88,0
189.55464,189.6588,69,88,0
189.6588,189.76297,67,88,0
189.76297,189.86714,65,88,0
189.86714,189.9713,63,88,0
189.9713,190.07547,62,88,0
190.07547,190.17964,60,88,0
190.17964,190.20047,58,88,0
190.38797,190.40881,57,114,0
190.59631,190.80464,58,88,0
190.80464,190.90881,60,88,0
190.90881,191.01297,62,88,0
191.01297,191.11714,63,88,0
191.11714,191.22131,65,88,0
191.22131,191.32547,67,88,0
191.32547,191.42964,69,88,0
191.42964,191.45047,70,49,0
191.63797,191.65881,69,49,0
191.84631,191.86714,70,49,0
192.05464,192.0767,69,49,0
192.27522,192.29866,70,49,0
192.5096,192.5346,71,49,0
192.7596,192.78639,72,49,0
193.02747,193.0563,73,49,0
193.31592,193.95839,74,36,0
193.89589,193.95839,74,36,0
193.95839,194.02089,75,36,0
194.02089,194.27089,74,36,0
194.27089,194.52089,72,36,0
194.52089,194.77089,70,36,0
194.70839,194.77089,70,36,0
194.77089,194.97922,77,36,0
194.97922,195.18755,76,36,0
195.18755,195.60422,75,36,0
196.02089,196.5938,75,36,0
196.54172,196.5938,75,36,0
196.5938,196.64589,77,36,0
196.64589,196.85422,75,36,0
196.85422,197.06256,74,36,0
197.06256,197.27089,72,36,0
197.21881,197.27089,72,36,0
197.27089,197.47922,79,36,0
197.47922,197.68756,78,36,0
197.68756,198.10422,77,36,0
198.52089,199.14589,82,49,0
199.14589,199.25006,84,49,0
199.25006,199.35422,82,49,0
199.35422,199.56256,81,49,0
199.56256,199.77089,80,49,0
199.77089,200.08339,78,49,0
200.08339,200.18756,79,49,0
200.18756,200.50006,81,49,0
200.50006,200.60422,79,49,0
200.60422,200.70839,77,36,0
200.70839,200.81256,75,36,0
200.81256,200.91672,74,36,0
200.91672,201.02089,72,36,0
201.02089,201.33339,70,36,0
201.33339,201.43756,72,36,0
201.43756,201.75006,74,36,0
201.75006,201.85422,75,36,0
201.85422,202.16672,76,36,0
202.16672,202.27089,77,36,0
202.27089,202.68756,74,36,0
202.89589,203.00006,77,36,0
203.00006,203.10422,76,36,0
203.10422,203.20839,79,36,0
203.20839,203.31256,77,36,0
203.31256,203.41673,76,36,0
203.41673,203.52089,75,36,0
203.52089,204.09381,74,36,0
204.04173,204.09381,74,36,0
204.09381,204.14589,75,36,0
204.14589,204.35423,74,36,0
204.35423,204.56256,72,36,0
204.56256,204.77089,70,36,0
204.71881,204.77089,70,36,0
204.77089,204.97923,77,36,0
204.97923,205.18756,76,36,0
205.18756,205.60423,75,36,0
206.02089,206.59381,75,36,0
206.54173,206.59381,75,36,0
206.59381,206.64589,77,36,0
206.64589,206.85423,75,36,0
206.85423,207.06256,74,36,0
207.06256,207.27089,72,36,0
207.21881,207.27089,72,36,0
207.27089,207.47923,79,36,0
207.47923,207.68756,78,36,0
207.68756,208.10423,77,36,0
208.52089,209.14589,82,49,0
209.14589,209.25006,84,49,0
209.25006,209.35423,82,49,0
209.35423,209.56256,81,49,0
209.56256,209.7709,80,49,0
209.7709,210.0834,78,49,0
210.0834,210.18756,79,49,0
210.18756,210.50006,81,49,0
210.50006,210.60423,79,49,0
210.60423,210.7084,77,36,0
210.7084,210.81256,75,36,0
210.81256,210.91673,74,36,0
210.91673,211.0209,72,36,0
211.0209,211.3334,70,36,0
211.3334,211.43756,72,36,0
211.43756,211.75006,74,36,0
211.75006,211.85423,75,36,0
211.85423,211.9584,76,62,0
211.9584,212.06256,77,36,0
212.06256,212.16673,79,36,0
212.16673,212.2709,77,36,0
212.2709,212.47923,70,36,0
212.47923,212.5834,82,88,0
212.5834,212.68756,84,88,0
212.68756,212.79173,86,88,0
212.79173,212.8959,84,88,0
212.8959,213.00006,82,88,0
213.00006,213.10423,81,88,0
213.10423,213.2084,79,88,0
213.2084,213.31256,77,88,0
213.31256,213.41673,75,88,0
213.41673,213.5209,74,88,0
213.5209,213.62506,72,88,0
213.62506,213.72923,70,88,0
213.72923,213.8334,69,88,0
213.8334,213.93756,67,88,0
213.93756,214.04173,65,88,0
214.04173,214.1459,63,88,0
214.1459,214.25006,62,88,0
214.25006,214.35423,60,88,0
214.35423,214.4584,58,88,0
214.4584,214.56256,57,88,0
214.56256,214.66673,55,88,0
214.66673,214.7709,53,88,0
214.7709,214.97923,52,88,0
215.18756,215.60423,84,114,0
215.18756,215.60423,72,114,0
215.18756,215.60423,79,114,0
215.18756,215.60423,82,114,0
216.38548,216.43758,75,49,0
216.22923,216.43758,72,49,0
216.43758,216.6459,73,49,0
216.80215,216.85423,75,49,0
216.6459,216.85423,72,49,0
216.85423,217.06258,73,49,0
217.06258,217.2709,72,49,0
217.2709,217.47923,73,49,0
217.47923,217.50008,77,49,0
218.05215,218.10423,80,49,0
217.8959,218.10423,77,49,0
218.10423,218.31258,78,49,0
218.31258,218.5209,77,49,0
218.5209,218.72923,82,62,0
218.72923,218.75008,76,62,0
219.30215,219.35423,78,49,0
219.1459,219.35423,76,49,0
219.35423,219.56258,77,49,0
219.56258,219.7709,76,49,0
219.7709,219.97923,77,49,0
219.97923,220.00008,80,49,0
220.55215,220.60423,84,49,0
220.3959,220.60423,80,49,0
220.60423,220.81258,82,49,0
220.81258,221.0209,80,49,0
221.0209,221.12508,77,62,0
221.0209,221.12508,73,62,0
221.12508,221.22923,80,62,0
221.22923,221.3334,68,62,0
221.3334,221.43758,80,62,0
221.43758,221.54173,77,62,0
221.43758,221.54173,73,62,0
221.54173,221.6459,80,62,0
221.6459,221.75008,68,62,0
221.75008,221.85423,80,62,0
221.85423,221.9584,77,62,0
221.85423,221.9584,73,62,0
221.9584,222.06258,80,62,0
222.06258,222.16673,68,62,0
222.16673,222.2709,80,62,0
222.2709,222.37508,78,62,0
222.2709,222.37508,75,62,0
222.37508,222.47925,80,62,0
222.47925,222.5834,68,62,0
222.5834,222.68758,80,62,0
222.68758,222.79175,78,62,0
222.68758,222.79175,75,62,0
222.79175,222.8959,80,62,0
222.8959,223.00008,68,62,0
223.00008,223.10425,80,62,0
223.10425,223.2084,77,62,0
223.10425,223.2084,73,62,0
223.2084,223.31258,80,62,0
223.31258,223.41675,78,62,0
223.31258,223.41675,72,62,0
223.41675,223.5209,80,62,0
223.5209,223.62508,77,62,0
223.5209,223.62508,73,62,0
223.62508,223.72925,80,62,0
223.72925,223.8334,68,62,0
223.8334,223.93758,80,62,0
223.93758,224.04175,77,62,0
223.93758,224.04175,73,62,0
224.04175,224.1459,80,62,0
224.1459,224.25008,68,62,0
224.25008,224.35425,80,62,0
224.35425,224.4584,77,62,0
224.35425,224.4584,73,62,0
224.4584,224.56258,80,62,0
224.56258,224.66675,68,62,0
224.66675,224.7709,80,62,0
224.7709,224.87508,78,62,0
224.7709,224.87508,75,62,0
224.87508,224.97925,80,62,0
224.97925,225.0834,68,62,0
225.0834,225.18758,80,62,0
225.18758,225.29175,78,62,0
225.18758,225.29175,75,62,0
225.29175,225.3959,80,62,0
225.3959,225.50008,68,62,0
225.50008,225.60425,80,62,0
225.60425,225.7084,77,62,0
225.60425,225.7084,73,62,0
225.7084,225.81258,80,62,0
225.81258,225.91675,78,62,0
225.81258,225.91675,72,62,0
225.91675,226.0209,80,62,0
226.0209,226.12508,77,62,0
226.0209,226.12508,73,62,0
226.12508,226.22925,80,62,0
226.22925,226.3334,68,62,0
226.3334,226.43758,80,62,0
226.43758,226.54175,77,62,0
226.43758,226.54175,73,62,0
226.54175,226.6459,80,62,0
226.6459,226.75008,68,62,0
226.75008,226.85425,80,62,0
226.85425,226.9584,77,62,0
226.85425,226.9584,73,62,0
226.9584,227.06258,80,62,0
227.06258,227.16675,68,62,0
227.16675,227.2709,80,62,0
227.2709,227.37508,80,75,0
227.2709,227.37508,77,75,0
227.37508,227.47925,83,75,0
227.47925,227.5834,71,75,0
227.5834,227.68758,83,75,0
227.68758,227.79175,80,75,0
227.68758,227.79175,77,75,0
227.79175,227.8959,83,75,0
227.8959,228.00008,71,75,0
228.00008,228.10425,83,75,0
228.10425,228.2084,80,75,0
228.10425,228.2084,77,75,0
228.2084,228.31258,83,75,0
228.31258,228.41675,71,75,0
228.41675,228.5209,83,75,0
228.5209,228.62508,79,75,0
228.62508,228.72925,84,75,0
228.72925,228.83342,72,75,0
228.83342,228.93758,84,75,0
228.93758,229.04175,79,62,0
229.04175,229.14592,82,62,0
229.14592,229.25008,73,62,0
229.25008,229.35425,82,62,0
229.35425,229.45842,77,62,0
229.45842,229.56258,80,62,0
229.56258,229.66675,72,62,0
229.66675,229.77092,80,62,0
229.77092,229.87508,75,36,0
229.77092,229.87508,72,36,0
229.87508,229.97925,79,36,0
229.97925,230.08342,67,36,0
230.08342,230.18758,79,36,0
230.18758,230.29175,75,36,0
230.18758,230.29175,69,36,0
230.29175,230.39592,78,36,0
230.39592,230.50008,67,36,0
230.50008,230.60425,78,36,0
230.60425,230.70842,74,36,0
230.60425,230.70842,71,36,0
230.70842,230.81258,77,36,0
230.81258,230.91675,67,36,0
230.91675,231.02092,77,36,0
231.02092,231.43758,75,75,0
231.02092,231.43758,72,75,0
231.80217,231.85425,75,75,0
231.64592,231.85425,72,75,0
231.85425,232.06258,74,75,0
232.06258,232.27092,72,75,0
232.27092,232.47925,71,75,0
232.47925,232.89592,79,101,0
232.89592,233.10425,77,75,0
233.10425,233.31258,75,75,0
233.31258,233.52092,74,75,0
233.52092,233.72925,72,75,0
233.72925,233.75008,84,75,0
234.30217,234.35425,75,75,0
234.14592,234.35425,72,75,0
234.35425,234.56258,74,75,0
234.56258,234.77092,72,75,0
234.77092,234.97925,71,75,0
234.97925,235.39592,79,101,0
235.39592,235.60425,77,75,0
235.60425,235.81259,75,75,0
235.81259,236.02092,74,75,0
236.02092,236.22925,72,75,0
236.22925,236.64592,87,101,0
236.64592,236.85425,86,75,0
236.85425,237.06259,84,75,0
237.06259,237.27092,82,75,0
237.27092,237.47925,80,62,0
237.47925,237.89592,84,88,0
237.89592,238.10425,82,62,0
238.10425,238.31259,80,62,0
238.31259,238.52092,79,62,0
238.52092,239.77092,78,36,0
239.77092,239.823,79,49,0
239.823,239.87509,77,49,0
239.87509,239.92717,79,49,0
239.92717,239.97925,77,49,0
239.97925,240.03134,79,49,0
240.03134,240.08342,77,49,0
240.08342,240.1355,79,49,0
240.1355,240.18759,77,49,0
240.18759,240.23967,79,62,0
240.23967,240.29175,77,62,0
240.29175,240.34384,79,62,0
240.34384,240.39592,77,62,0
240.39592,240.448,79,62,0
240.448,240.50009,77,62,0
240.50009,240.55217,79,62,0
240.55217,240.60425,77,62,0
240.60425,240.65634,79,75,0
240.65634,240.70842,77,75,0
240.70842,240.7605,79,75,0
240.7605,240.81259,77,75,0
240.81259,240.88203,76,75,0
240.88203,240.95148,77,75,0
240.948,241.01746,79,75,0
241.02092,241.04175,77,88,0
241.22925,241.64592,86,114,0
241.22925,241.64592,74,106,0
241.64592,241.85426,84,88,0
241.64592,241.85426,72,88,0
241.85426,242.06259,82,88,0
241.85426,242.06259,70,88,0
242.06259,242.27092,81,88,0
242.06259,242.27092,69,88,0
242.27092,242.37509,82,88,0
242.27092,242.37509,70,88,0
242.37509,242.47926,77,88,0
242.47926,242.89592,86,75,0
242.47926,242.89592,74,67,0
242.89592,243.10426,84,49,0
242.89592,243.10426,72,49,0
243.10426,243.31259,82,49,0
243.10426,243.31259,70,49,0
243.31259,243.52092,81,49,0
243.31259,243.52092,69,49,0
243.52092,243.62509,82,49,0
243.52092,243.62509,70,49,0
243.62509,243.72926,77,49,0
243.72926,244.14592,86,114,0
243.72926,244.14592,74,106,0
244.14592,244.35426,84,88,0
244.14592,244.35426,72,88,0
244.35426,244.56259,82,88,0
244.35426,244.56259,70,88,0
244.56259,244.77092,81,88,0
244.56259,244.77092,69,88,0
244.77092,244.87509,82,88,0
244.77092,244.87509,70,88,0
244.87509,244.97926,77,88,0
244.97926,245.39592,86,75,0
244.97926,245.39592,74,67,0
245.39592,245.60426,84,49,0
245.39592,245.60426,72,49,0
245.60426,245.81259,82,49,0
245.60426,245.81259,70,49,0
245.81259,246.02092,81,49,0
245.81259,246.02092,69,49,0
246.02092,246.12509,82,49,0
246.12509,246.22926,86,49,0
246.22926,246.33342,85,49,0
246.33342,246.43759,86,49,0
246.43759,246.54176,91,49,0
246.54176,246.64592,89,49,0
246.64592,246.75009,81,49,0
246.75009,246.85426,82,49,0
246.85426,246.95842,87,62,0
246.95842,247.06259,86,62,0
247.06259,247.16676,76,62,0
247.16676,247.27092,77,62,0
247.27092,247.37509,84,62,0
247.37509,247.47926,82,62,0
247.47926,247.58342,73,62,0
247.58342,247.68759,74,62,0
247.68759,247.79176,79,75,0
247.79176,247.89594,77,75,0
247.89594,248.00009,69,75,0
248.00009,248.10426,70,75,0
248.10426,248.20844,75,75,0
248.20844,248.31259,74,75,0
248.31259,248.41676,64,75,0
248.41676,248.52094,65,75,0
248.52094,248.62509,73,88,0
248.62509,248.72926,64,88,0
248.72926,248.83344,67,88,0
248.83344,248.93759,70,88,0
248.93759,249.04176,73,88,0
249.04176,249.14594,76,88,0
249.14594,249.25009,79,88,0
249.25009,249.35426,82,88,0
249.35426,249.37509,85,88,0
249.77094,250.81259,89,127,0
249.77094,250.81259,77,115,0
249.77094,250.81259,84,119,0
249.77094,250.81259,87,123,0
251.02094,251.12509,86,49,0
251.12509,251.22926,82,49,0
251.22926,251.33344,79,49,0
251.33344,251.43759,75,49,0
251.43759,251.85426,74,49,0
251.85426,252.27094,77,75,0
251.85426,252.27094,69,67,0
252.27094,252.68759,70,49,0
252.68759,253.10426,74,49,0
252.68759,253.10426,62,49,0
253.10426,253.52094,77,49,0
253.10426,253.52094,65,49,0
253.52094,253.93759,82,75,0
253.52094,253.93759,70,67,0
253.93759,254.35426,86,49,0
253.93759,254.35426,74,49,0
254.77094,255.1876,70,49,0
255.1876,255.60426,75,49,0
255.1876,255.60426,63,49,0
255.60426,256.02094,79,49,0
255.60426,256.02094,67,49,0
256.02094,256.4376,82,75,0
256.02094,256.4376,70,67,0
256.4376,256.85428,87,49,0
256.4376,256.85428,75,49,0
257.27094,257.6876,78,88,0
257.27094,257.79178,90,88,0
257.79178,257.89594,87,49,0
257.89594,258.0001,84,49,0
258.0001,258.10428,81,49,0
258.10428,258.20844,78,49,0
258.20844,258.3126,75,49,0
258.3126,258.41678,72,49,0
258.41678,258.52094,69,49,0
258.52094,258.72928,70,49,0
259.77094,259.8751,58,36,0
259.8751,259.97928,70,36,0
259.97928,260.08344,62,36,0
260.08344,260.1876,70,36,0
260.1876,260.29178,65,36,0
260.29178,260.39594,70,36,0
260.39594,260.5001,68,36,0
260.5001,260.60428,70,36,0
260.60428,260.70844,65,36,0
260.70844,260.8126,70,36,0
260.8126,260.91678,62,36,0
260.91678,261.02094,70,36,0
261.02094,261.1251,58,36,0
261.1251,261.22928,70,36,0
261.22928,261.33344,62,36,0
261.33344,261.4376,70,36,0
261.4376,261.54178,65,36,0
261.54178,261.64594,70,36,0
261.64594,261.7501,68,36,0
261.7501,261.85428,70,36,0
261.85428,261.95844,65,36,0
261.95844,262.0626,70,36,0
262.0626,262.16678,62,36,0
262.16678,262.27094,70,36,0
262.27094,262.3751,58,36,0
262.3751,262.47928,70,36,0
262.47928,262.58344,63,36,0
262.58344,262.6876,70,36,0
262.6876,262.79178,67,36,0
262.79178,262.89594,70,36,0
262.89594,263.0001,69,36,0
263.0001,263.10428,70,36,0
263.10428,263.20844,67,36,0
263.20844,263.3126,70,36,0
263.3126,263.41678,63,36,0
263.41678,263.52094,70,36,0
263.52094,263.6251,58,36,0
263.6251,263.72928,70,36,0
263.72928,263.83344,63,36,0
263.83344,263.93762,70,36,0
263.93762,264.04178,67,36,0
264.04178,264.14594,70,36,0
264.14594,264.25012,69,36,0
264.25012,264.35428,70,36,0
264.35428,264.45844,67,36,0
264.45844,264.56262,70,36,0
264.56262,264.66678,63,36,0
264.66678,264.77094,70,36,0
264.77094,264.87512,58,36,0
264.87512,264.97928,69,36,0
264.97928,265.08344,60,36,0
265.08344,265.18762,69,36,0
265.18762,265.29178,63,36,0
265.29178,265.39594,69,36,0
265.39594,265.50012,66,36,0
265.50012,265.60428,69,36,0
265.60428,265.70844,63,36,0
265.70844,265.81262,69,36,0
265.81262,265.91678,60,36,0
265.91678,266.02094,69,36,0
266.02094,266.12512,58,36,0
266.12512,266.22928,70,36,0
266.22928,266.33344,62,36,0
266.33344,266.43762,70,36,0
266.43762,266.54178,65,36,0
266.54178,266.64594,70,36,0
266.64594,266.75012,69,36,0
266.75012,266.85428,70,36,0
266.85428,266.95844,68,36,0
266.95844,267.06262,70,36,0
267.06262,267.16678,65,36,0
267.16678,267.27094,70,36,0
267.27094,267.37512,58,36,0
267.37512,267.47928,70,36,0
267.47928,267.58344,63,36,0
267.58344,267.68762,70,36,0
267.68762,267.79178,65,36,0
267.79178,267.89594,70,36,0
267.89594,268.00012,66,62,0
268.00012,268.10428,70,36,0
268.10428,268.20844,65,36,0
268.20844,268.31262,70,36,0
268.31262,268.41678,63,36,0
268.41678,268.52094,70,36,0
268.52094,268.72928,69,49,0
268.72928,268.93762,70,49,0
268.93762,269.14594,69,49,0
269.14594,269.35428,66,49,0
269.35428,269.56262,65,49,0
269.56262,269.77094,69,49,0
269.77094,269.87512,70,36,0
269.87512,269.97928,82,36,0
269.97928,270.08344,74,36,0
270.08344,270.18762,82,36,0
270.18762,270.29178,77,36,0
270.29178,270.39594,82,36,0
270.39594,270.50012,80,36,0
270.50012,270.60428,82,36,0
270.60428,270.70844,77,36,0
270.70844,270.81262,82,36,0
270.81262,270.91678,74,36,0
270.91678,271.02094,82,36,0
271.02094,271.12512,70,36,0
271.12512,271.22928,82,36,0
271.22928,271.33344,75,36,0
271.33344,271.43762,82,36,0
271.43762,271.54178,77,75,0
271.54178,271.64594,82,75,0
271.64594,271.75012,78,101,0
271.75012,271.85428,82,75,0
271.85428,271.95844,77,75,0
271.95844,272.06262,82,75,0
272.06262,272.16678,75,75,0
272.16678,272.27094,82,75,0
272.27094,272.47928,81,75,0
272.47928,272.69205,82,75,0
272.69205,272.90942,81,75,0
272.90942,273.13165,78,75,0
273.13165,273.36066,77,75,0
273.36066,273.59503,81,75,0
273.59503,273.83505,82,75,0
273.83505,274.08093,85,75,0
274.08093,274.33517,86,75,0
274.33517,274.58942,85,75,0
274.58942,274.84366,86,75,0
274.84366,275.0979,82,75,0
275.0979,275.35214,81,49,0
275.35214,275.60635,82,49,0
275.60635,275.8606,81,49,0
275.8606,276.11484,78,49,0
276.11484,276.36908,77,49,0
276.36908,276.62332,81,49,0
276.62332,276.87756,82,49,0
276.87756,277.1318,73,49,0
277.1318,277.38602,74,49,0
277.38602,277.64026,73,49,0
277.64026,277.8945,74,49,0
277.8945,278.14874,70,49,0
278.14874,278.40298,69,49,0
278.40298,278.65723,70,49,0
278.65723,278.91147,69,49,0
278.91147,279.16568,66,49,0
279.16568,279.41992,65,49,0
279.41992,279.67416,69,49,0
279.67416,279.8013,70,36,0
279.67416,279.8013,62,36,0
279.8013,279.9284,58,36,0
279.9284,280.0555,70,36,0
279.9284,280.0555,65,36,0
279.9284,280.0555,62,36,0
280.0555,280.18265,58,36,0
280.18265,280.30975,70,36,0
280.18265,280.30975,65,36,0
280.18265,280.30975,62,36,0
280.30975,280.4369,58,36,0
280.4369,280.564,70,36,0
280.4369,280.564,65,36,0
280.4369,280.564,62,36,0
280.564,280.69113,58,36,0
280.69113,280.81824,70,36,0
280.69113,280.81824,65,36,0
280.69113,280.81824,62,36,0
280.81824,280.94534,58,36,0
280.94534,281.07248,70,36,0
280.94534,281.07248,65,36,0
280.94534,281.07248,62,36,0
281.07248,281.1996,58,36,0
281.1996,281.32672,70,36,0
281.1996,281.32672,65,36,0
281.1996,281.32672,62,36,0
281.32672,281.45383,58,36,0
281.45383,281.58096,70,36,0
281.45383,281.58096,65,36,0
281.45383,281.58096,62,36,0
281.58096,281.70807,58,36,0
281.70807,281.83517,70,36,0
281.70807,281.83517,65,36,0
281.70807,281.83517,62,36,0
281.83517,281.9623,58,36,0
281.9623,282.08942,70,36,0
281.9623,282.08942,65,36,0
281.9623,282.08942,62,36,0
282.08942,282.21655,58,36,0
282.21655,282.34366,70,36,0
282.21655,282.34366,65,36,0
282.21655,282.34366,62,36,0
282.34366,282.4708,58,36,0
282.4708,282.5979,70,36,0
282.4708,282.5979,65,36,0
282.4708,282.5979,62,36,0
282.5979,282.725,58,36,0
282.725,282.85214,70,36,0
282.725,282.85214,62,36,0
282.725,282.85214,65,36,0
282.725,282.85214,68,36,0
282.85214,282.97925,58,36,0
282.97925,283.10638,70,36,0
282.97925,283.10638,62,36,0
282.97925,283.10638,65,36,0
282.97925,283.10638,68,36,0
283.10638,283.2335,58,36,0
283.2335,283.36063,70,36,0
283.2335,283.36063,62,36,0
283.2335,283.36063,65,36,0
283.2335,283.36063,68,36,0
283.36063,283.48773,58,36,0
283.48773,283.61484,70,36,0
283.48773,283.61484,62,36,0
283.48773,283.61484,65,36,0
283.48773,283.61484,68,36,0
283.61484,283.74197,58,36,0
283.74197,283.86908,70,36,0
283.74197,283.86908,62,36,0
283.74197,283.86908,65,36,0
283.74197,283.86908,68,36,0
283.86908,283.99622,58,36,0
283.99622,284.12332,70,36,0
283.99622,284.12332,62,36,0
283.99622,284.12332,65,36,0
283.99622,284.12332,68,36,0
284.12332,284.25046,58,36,0
284.25046,284.6671,70,36,0
284.25046,284.6671,62,36,0
284.25046,284.6671,65,36,0
284.25046,284.6671,68,36,0
285.50046,285.6309,71,36,0
285.50046,285.6309,62,36,0
285.50046,285.6309,65,36,0
285.50046,285.6309,67,36,0
285.6309,285.76132,59,36,0
285.76132,285.89175,71,36,0
285.76132,285.89175,62,36,0
285.76132,285.89175,65,36,0
285.76132,285.89175,67,36,0
285.89175,286.0222,59,36,0
286.0222,286.15262,71,36,0
286.0222,286.15262,62,36,0
286.0222,286.15262,65,36,0
286.0222,286.15262,67,36,0
286.15262,286.28305,59,36,0
286.28305,286.41348,71,36,0
286.28305,286.41348,62,36,0
286.28305,286.41348,65,36,0
286.28305,286.41348,67,36,0
286.41348,286.5439,59,36,0
286.5439,286.67435,71,36,0
286.5439,286.67435,62,36,0
286.5439,286.67435,65,36,0
286.5439,286.67435,67,36,0
286.67435,286.80478,59,36,0
286.80478,286.93524,71,36,0
286.80478,286.93524,62,36,0
286.80478,286.93524,65,36,0
286.80478,286.93524,67,36,0
286.93524,287.06567,59,36,0
287.06567,287.48233,71,36,0
287.06567,287.48233,62,36,0
287.06567,287.48233,65,36,0
287.06567,287.48233,67,36,0
287.5865,287.69067,62,36,0
287.69067,287.79483,65,36,0
287.79483,287.899,68,36,0
287.899,288.00317,71,36,0
288.00317,288.10733,74,36,0
288.10733,288.2115,77,36,0
288.2115,288.31567,80,36,0
288.31567,288.73233,78,62,0
288.73233,288.94067,79,36,0
289.149,289.25317,67,36,0
289.25317,289.35733,71,36,0
289.35733,289.4615,74,36,0
289.4615,289.56567,77,36,0
289.56567,289.98233,74,62,0
289.98233,290.0865,75,36,0
290.0865,290.19067,60,36,0
290.19067,290.29483,63,36,0
290.29483,290.399,67,36,0
290.399,290.50317,69,36,0
290.50317,290.60733,72,36,0
290.60733,290.7115,75,36,0
290.7115,290.81567,79,36,0
290.81567,291.23233,76,62,0
291.23233,291.44067,77,36,0
291.649,291.75317,65,36,0
291.75317,291.85733,69,36,0
291.85733,291.9615,72,36,0
291.9615,292.06567,75,36,0
292.06567,292.48233,73,36,0
292.48233,292.69067,74,36,0
292.69067,292.79483,62,49,0
292.79483,292.899,65,49,0
292.899,293.00317,70,62,0
293.00317,293.10733,74,62,0
293.10733,293.2115,77,75,0
293.2115,293.31567,82,75,0
293.31567,293.524,82,88,0
293.524,293.73233,72,88,0
293.524,293.73233,70,88,0
293.524,293.73233,67,88,0
293.73233,293.75317,72,88,0
293.73233,293.75317,70,88,0
293.73233,293.75317,67,88,0
293.94067,293.9615,72,101,0
293.94067,293.9615,70,101,0
293.94067,293.9615,67,101,0
294.149,294.16983,72,101,0
294.149,294.16983,70,101,0
294.149,294.16983,67,101,0
294.35733,294.37817,72,101,0
294.35733,294.37817,70,101,0
294.35733,294.37817,67,101,0
294.56567,295.399,73,114,0
294.56567,295.399,70,114,0
294.56567,295.399,67,114,0
295.399,295.50317,75,49,0
295.50317,295.60733,73,49,0
295.60733,295.71152,72,49,0
295.71152,295.81567,70,49,0
295.81567,296.02402,77,49,0
296.02402,296.23233,77,49,0
296.02402,296.23233,65,49,0
296.23233,296.44067,77,49,0
296.23233,296.44067,65,49,0
296.44067,296.64902,77,49,0
296.44067,296.64902,65,49,0
296.64902,296.85733,77,49,0
296.64902,296.85733,69,49,0
296.85733,297.06567,77,49,0
296.85733,297.06567,75,49,0
296.85733,297.06567,69,49,0
297.06567,297.27402,77,49,0
297.06567,297.27402,73,49,0
297.06567,297.27402,69,49,0
297.27402,297.48233,77,49,0
297.27402,297.48233,73,49,0
297.27402,297.48233,69,49,0
297.48233,297.69067,77,49,0
297.48233,297.69067,73,49,0
297.48233,297.69067,70,49,0
297.69067,297.89902,77,49,0
297.69067,297.89902,73,49,0
297.69067,297.89902,70,49,0
297.89902,298.10733,77,49,0
297.89902,298.10733,73,49,0
297.89902,298.10733,70,49,0
298.10733,298.31567,77,49,0
298.10733,298.31567,73,49,0
298.10733,298.31567,70,49,0
298.31567,298.52402,82,49,0
298.31567,298.52402,77,49,0
298.31567,298.52402,70,49,0
298.52402,298.73233,82,49,0
298.52402,298.73233,77,49,0
298.52402,298.73233,70,49,0
298.73233,298.94067,82,49,0
298.73233,298.94067,75,49,0
298.73233,298.94067,70,49,0
298.94067,299.14902,82,49,0
298.94067,299.14902,75,49,0
298.94067,299.14902,70,49,0
299.14902,299.35733,82,49,0
299.14902,299.35733,75,49,0
299.14902,299.35733,70,49,0
299.35733,299.56567,82,49,0
299.35733,299.56567,75,49,0
299.35733,299.56567,70,49,0
299.56567,299.77402,80,49,0
299.56567,299.77402,75,49,0
299.56567,299.77402,68,49,0
299.77402,299.98233,80,49,0
299.77402,299.98233,75,49,0
299.77402,299.98233,68,49,0
299.98233,300.19067,80,49,0
299.98233,300.19067,73,49,0
299.98233,300.19067,68,49,0
300.19067,300.39902,80,49,0
300.19067,300.39902,73,49,0
300.19067,300.39902,68,49,0
300.39902,300.60733,80,49,0
300.39902,300.60733,73,49,0
300.39902,300.60733,68,49,0
300.60733,300.81567,80,49,0
300.60733,300.81567,73,49,0
300.60733,300.81567,68,49,0
300.81567,301.02402,78,49,0
300.81567,301.02402,72,49,0
300.81567,301.02402,68,49,0
301.02402,301.23233,78,49,0
301.02402,301.23233,72,49,0
301.02402,301.23233,68,49,0
301.23233,301.44067,78,49,0
301.23233,301.44067,75,49,0
301.23233,301.44067,68,49,0
301.44067,301.64902,78,49,0
301.44067,301.64902,75,49,0
301.44067,301.64902,68,49,0
301.64902,301.85733,77,49,0
301.64902,301.85733,73,49,0
301.64902,301.85733,68,49,0
301.85733,302.06567,77,49,0
301.85733,302.06567,73,49,0
301.85733,302.06567,68,49,0
302.06567,302.89902,75,49,0
302.89902,303.00317,75,49,0
303.00317,303.10733,80,49,0
303.10733,303.21152,84,49,0
303.21152,303.31567,87,49,0
303.31567,303.73233,87,49,0
303.73233,303.94067,79,49,0
304.14902,304.25317,75,49,0
304.25317,304.35733,79,49,0
304.35733,304.46152,82,49,0
304.46152,304.56567,87,49,0
304.56567,304.98233,87,49,0
304.98233,305.19067,80,49,0
305.39902,305.50317,80,49,0
305.50317,305.60733,79,49,0
305.60733,305.71152,77,49,0
305.71152,305.81567,76,49,0
305.81567,306.23233,76,49,0
306.23233,306.44067,77,49,0
306.44067,306.54483,84,49,0
306.54483,306.64902,85,49,0
306.64902,306.75317,89,49,0
306.75317,306.85733,87,49,0
306.85733,306.96152,85,49,0
306.96152,307.06567,84,49,0
307.06567,307.48233,87,49,0
307.48233,307.69067,85,49,0
307.69067,307.79483,89,49,0
307.79483,307.89902,87,49,0
307.89902,308.00317,85,49,0
308.00317,308.10733,84,49,0
308.10733,308.21152,82,49,0
308.21152,308.31567,80,49,0
308.31567,308.62817,79,114,0
308.62817,308.73236,79,49,0
308.73236,309.14902,80,49,0
309.56567,309.87817,75,36,0
309.87817,309.98236,73,36,0
309.98236,310.19067,72,36,0
309.98236,310.19067,68,36,0
310.19067,310.29486,60,88,0
310.29486,310.39902,63,88,0
310.39902,310.50317,68,88,0
310.50317,310.60736,72,88,0
310.60736,310.71152,75,88,0
310.71152,310.81567,80,88,0
310.81567,311.02402,80,101,0
311.02402,311.23236,70,101,0
311.02402,311.23236,68,101,0
311.02402,311.23236,65,101,0
311.23236,311.25317,70,101,0
311.23236,311.25317,68,101,0
311.23236,311.25317,65,101,0
311.44067,311.46152,70,101,0
311.44067,311.46152,68,101,0
311.44067,311.46152,65,101,0
311.64902,311.66986,70,101,0
311.64902,311.66986,68,101,0
311.64902,311.66986,65,101,0
311.85736,311.87817,70,101,0
311.85736,311.87817,68,101,0
311.85736,311.87817,65,101,0
312.06567,312.89902,71,114,0
312.06567,312.89902,68,114,0
312.06567,312.89902,65,114,0
312.89902,313.00317,73,114,0
313.00317,313.10736,71,114,0
313.10736,313.21152,70,114,0
313.21152,313.31567,68,114,0
313.31567,313.52402,75,75,0
313.52402,313.73236,75,75,0
313.52402,313.73236,63,75,0
313.73236,313.94067,75,75,0
313.73236,313.94067,63,75,0
313.94067,314.14902,75,75,0
313.94067,314.14902,63,75,0
314.14902,314.35736,75,75,0
314.14902,314.35736,73,75,0
314.14902,314.35736,67,75,0
314.35736,314.56567,75,75,0
314.35736,314.56567,73,75,0
314.35736,314.56567,67,75,0
314.56567,314.77402,75,75,0
314.56567,314.77402,71,75,0
314.56567,314.77402,67,75,0
314.77402,314.98236,75,75,0
314.77402,314.98236,71,75,0
314.77402,314.98236,67,75,0
314.98236,315.19067,75,75,0
314.98236,315.19067,71,75,0
314.98236,315.19067,68,75,0
315.19067,315.39902,75,75,0
315.19067,315.39902,71,75,0
315.19067,315.39902,68,75,0
315.39902,315.60736,75,75,0
315.39902,315.60736,71,75,0
315.39902,315.60736,68,75,0
315.60736,315.81567,75,75,0
315.60736,315.81567,71,75,0
315.60736,315.81567,68,75,0
315.81567,316.02402,80,75,0
315.81567,316.02402,75,75,0
315.81567,316.02402,68,75,0
316.02402,316.23236,80,75,0
316.02402,316.23236,75,75,0
316.02402,316.23236,68,75,0
316.23236,316.44067,80,75,0
316.23236,316.44067,73,75,0
316.23236,316.44067,68,75,0
316.44067,316.64902,80,75,0
316.44067,316.64902,73,75,0
316.44067,316.64902,68,75,0
316.64902,316.85736,80,75,0
316.64902,316.85736,73,75,0
316.64902,316.85736,68,75,0
316.85736,317.06567,80,75,0
316.85736,317.06567,73,75,0
316.85736,317.06567,68,75,0
317.06567,317.27402,78,75,0
317.06567,317.27402,73,75,0
317.06567,317.27402,66,75,0
317.27402,317.48236,78,75,0
317.27402,317.48236,73,75,0
317.27402,317.48236,66,75,0
317.48236,317.69067,78,75,0
317.48236,317.69067,71,75,0
317.48236,317.69067,66,75,0
317.69067,317.89902,78,75,0
317.69067,317.89902,71,75,0
317.69067,317.89902,66,75,0
317.89902,318.10736,78,75,0
317.89902,318.10736,71,75,0
317.89902,318.10736,66,75,0
318.10736,318.31567,78,75,0
318.10736,318.31567,71,75,0
318.10736,318.31567,66,75,0
318.31567,318.52402,76,75,0
318.31567,318.52402,70,75,0
318.31567,318.52402,66,75,0
318.52402,318.73236,76,75,0
318.52402,318.73236,70,75,0
318.52402,318.73236,66,75,0
318.73236,318.94067,76,75,0
318.73236,318.94067,73,75,0
318.73236,318.94067,66,75,0
318.94067,319.14902,76,75,0
318.94067,319.14902,73,75,0
318.94067,319.14902,66,75,0
319.14902,319.35736,75,75,0
319.14902,319.35736,71,75,0
319.14902,319.35736,66,75,0
319.35736,319.56567,75,75,0
319.35736,319.56567,71,75,0
319.35736,319.56567,66,75,0
319.56567,320.39902,73,75,0
320.39902,320.50317,73,49,0
320.50317,320.60736,78,49,0
320.60736,320.71152,82,49,0
320.71152,320.81567,85,49,0
320.81567,321.23236,85,75,0
321.23236,321.4407,77,49,0
321.64902,321.7532,73,49,0
321.7532,321.85736,77,49,0
321.85736,321.96152,80,49,0
321.96152,322.0657,85,49,0
322.0657,322.48236,85,75,0
322.48236,322.6907,78,49,0
322.89902,323.0032,78,49,0
323.0032,323.10736,77,49,0
323.10736,323.21152,75,49,0
323.21152,323.3157,74,49,0
323.3157,323.73236,74,49,0
323.73236,323.9407,75,49,0
323.9407,324.04486,82,49,0
324.04486,324.14902,83,49,0
324.14902,324.2532,87,49,0
324.2532,324.35736,85,49,0
324.35736,324.46152,83,49,0
324.46152,324.5657,82,49,0
324.5657,324.98236,85,49,0
324.98236,325.1907,83,49,0
325.1907,325.29486,87,49,0
325.29486,325.39902,85,49,0
325.39902,325.5032,83,49,0
325.5032,325.60736,82,49,0
325.60736,325.71152,80,49,0
325.71152,325.8157,78,49,0
325.8157,326.1282,77,114,0
326.1282,326.23236,77,49,0
326.23236,326.64902,78,49,0
327.0657,327.3782,73,36,0
327.3782,327.48236,71,36,0
327.48236,327.6907,70,36,0
327.84695,327.89902,73,36,0
327.6907,327.89902,70,36,0
327.89902,328.10736,71,36,0
328.10736,328.3157,70,36,0
328.3157,328.52402,70,49,0
328.52402,328.9407,77,75,0
328.9407,329.14902,74,49,0
329.14902,329.35736,71,49,0
329.35736,329.5657,70,49,0
329.5657,329.77402,70,62,0
329.77402,330.1907,78,88,0
330.34695,330.39902,73,62,0
330.1907,330.39902,70,62,0
330.39902,330.60736,71,62,0
330.60736,330.8157,70,62,0
330.8157,331.02402,69,62,0
331.02402,331.4407,75,88,0
331.4407,331.64902,71,62,0
331.64902,331.85736,70,62,0
331.85736,332.0657,69,62,0
332.0657,332.27402,70,75,0
332.27402,332.6907,82,101,0
332.6907,332.71152,82,75,0
332.6907,332.71152,70,75,0
332.89902,332.91986,82,75,0
332.89902,332.91986,70,75,0
333.10736,333.1282,82,75,0
333.10736,333.1282,70,75,0
333.3157,333.33652,81,75,0
333.3157,333.33652,69,75,0
333.52402,333.9407,90,101,0
333.52402,333.9407,78,93,0
333.9407,334.14905,87,75,0
333.9407,334.14905,75,75,0
334.14905,334.35736,84,75,0
334.14905,334.35736,72,75,0
334.35736,334.5657,81,75,0
334.35736,334.5657,69,75,0
334.5657,334.77405,82,75,0
334.5657,334.77405,70,75,0
334.77405,335.1907,94,101,0
334.77405,335.1907,82,93,0
335.1907,335.39905,92,75,0
335.1907,335.39905,80,75,0
335.39905,335.60736,90,75,0
335.39905,335.60736,78,75,0
335.60736,335.8157,89,75,0
335.60736,335.8157,77,75,0
335.8157,336.02405,87,75,0
335.8157,336.02405,75,75,0
336.02405,336.4407,90,101,0
336.02405,336.4407,78,93,0
336.4407,336.64905,87,75,0
336.4407,336.64905,75,75,0
336.64905,336.85736,83,75,0
336.64905,336.85736,71,75,0
336.85736,337.0657,81,75,0
336.85736,337.0657,69,75,0
337.0657,337.27405,82,88,0
337.0657,337.27405,70,88,0
337.27405,337.48236,82,88,0
337.27405,337.48236,70,88,0
337.48236,337.6907,82,88,0
337.48236,337.6907,70,88,0
337.6907,337.89905,82,88,0
337.6907,337.89905,70,88,0
337.6907,337.89905,77,88,0
337.6907,337.89905,80,88,0
337.89905,338.10736,82,88,0
337.89905,338.10736,70,88,0
337.89905,338.10736,75,88,0
337.89905,338.10736,78,88,0
338.10736,338.3157,82,88,0
338.10736,338.3157,70,88,0
338.10736,338.3157,75,88,0
338.10736,338.3157,78,88,0
338.3157,338.52405,82,88,0
338.3157,338.52405,70,88,0
338.52405,338.73236,70,88,0
338.52405,338.73236,58,88,0
338.73236,338.9407,70,88,0
338.73236,338.9407,58,88,0
338.9407,339.14905,70,88,0
338.9407,339.14905,58,88,0
338.9407,339.14905,65,88,0
338.9407,339.14905,68,88,0
339.14905,339.35736,70,88,0
339.14905,339.35736,58,88,0
339.14905,339.35736,63,88,0
339.14905,339.35736,66,88,0
339.35736,339.5657,70,88,0
339.35736,339.5657,58,88,0
339.35736,339.5657,63,88,0
339.35736,339.5657,66,88,0
339.5657,339.77405,70,88,0
339.5657,339.77405,58,88,0
339.5657,339.77405,62,88,0
339.5657,339.77405,65,88,0
339.98236,340.39905,82,88,0
339.98236,340.39905,70,88,0
339.98236,340.39905,74,88,0
339.98236,340.39905,77,88,0
341.02405,341.23236,70,49,0
341.23236,341.4407,69,49,0
341.4407,341.64905,70,49,0
341.64905,341.85736,71,49,0
341.85736,342.0657,72,49,0
342.0657,342.27405,68,49,0
342.27405,342.48236,65,49,0
342.48236,342.6907,62,49,0
342.6907,342.89905,58,49,0
342.89905,343.10736,57,49,0
343.10736,343.3157,56,49,0
343.52405,343.9407,55,49,0
343.9407,344.35736,58,49,0
344.35736,344.77405,63,49,0
344.77405,345.1907,67,49,0
345.1907,345.39905,68,49,0
345.39905,345.71155,69,49,0
345.71155,345.8157,70,49,0
345.8157,346.02405,70,49,0
346.02405,346.04486,62,49,0
346.23236,346.2532,62,49,0
346.4407,346.46155,62,49,0
346.64905,346.6699,62,49,0
346.8574,346.8782,62,49,0
347.0657,347.4824,62,49,0
347.89905,347.95114,62,49,0
347.95114,348.0032,63,49,0
348.0032,348.0553,62,49,0
348.0553,348.1074,63,49,0
348.1074,348.15945,62,49,0
348.15945,348.21155,63,49,0
348.21155,348.26364,62,49,0
348.21155,348.26364,60,49,0
348.3157,348.7324,63,49,0
348.7324,349.14905,67,49,0
349.14905,349.20114,59,49,0
349.20114,349.2532,60,49,0
349.2532,349.3053,59,49,0
349.3053,349.3574,60,49,0
349.3574,349.40945,59,49,0
349.40945,349.46155,60,49,0
349.46155,349.51364,57,49,0
349.51364,349.5657,59,49,0
349.5657,349.9824,60,49,0
349.9303,349.9824,60,49,0
349.9824,350.1907,70,75,0
350.1907,350.39905,68,49,0
350.39905,350.53793,67,49,0
350.53445,350.67334,68,49,0
350.67682,350.8157,65,49,0
351.2324,351.64905,67,49,0
350.8157,351.64905,63,49,0
351.64905,352.0657,72,75,0
351.64905,352.0657,66,70,0
351.64905,352.0657,63,65,0
352.0657,352.4824,70,49,0
352.0657,352.4824,65,49,0
352.0657,352.4824,62,49,0
352.6907,352.89905,70,49,0
352.89905,353.1074,69,49,0
353.1074,353.3157,68,49,0
353.52405,353.9407,67,49,0
353.9407,354.3574,70,49,0
354.3574,354.77405,75,49,0
354.77405,355.1907,79,49,0
355.1907,355.39905,80,49,0
355.39905,355.5032,81,75,0
355.5032,355.6074,82,49,0
355.6074,355.71155,84,49,0
355.71155,355.8157,82,49,0
355.8157,356.02405,82,49,0
356.02405,356.0449,74,49,0
356.2324,356.2532,74,49,0
356.4407,356.46155,74,49,0
356.64905,356.6699,74,49,0
356.8574,356.8782,74,49,0
357.0657,357.4824,74,49,0
357.89905,357.95114,74,49,0
357.95114,358.0032,75,49,0
358.0032,358.0553,74,49,0
358.0553,358.1074,75,49,0
358.1074,358.15945,74,49,0
358.15945,358.21155,75,49,0
358.21155,358.26364,74,49,0
358.21155,358.26364,72,49,0
358.3157,358.7324,75,49,0
358.7324,359.14905,79,49,0
359.14905,359.20114,71,49,0
359.20114,359.25323,72,49,0
359.25323,359.3053,71,49,0
359.3053,359.3574,72,49,0
359.3574,359.4095,71,49,0
359.4095,359.46155,72,49,0
359.46155,359.51364,69,49,0
359.51364,359.56573,71,49,0
359.56573,359.9824,72,49,0
359.9303,359.9824,72,49,0
359.9824,360.19073,82,75,0
360.19073,360.39905,80,49,0
360.39905,360.53793,79,49,0
360.5345,360.67337,80,49,0
360.67682,360.81573,77,49,0
360.81573,361.2324,75,49,0
361.2324,361.64905,79,49,0
361.64905,362.06573,82,75,0
361.64905,362.06573,74,67,0
362.06573,362.4824,79,49,0
362.06573,362.4824,75,49,0
362.58655,362.63864,87,49,0
362.63864,362.69073,89,49,0
362.69073,362.89905,87,62,0
362.89905,363.1074,86,62,0
363.1074,363.31573,87,62,0
363.26364,363.31573,87,62,0
363.31573,363.52405,91,62,0
363.52405,363.6803,89,62,0
363.62823,363.6803,89,62,0
363.6803,363.7324,91,62,0
363.7324,363.94073,89,62,0
363.94073,364.097,87,62,0
364.0449,364.097,87,62,0
364.097,364.14905,89,62,0
364.14905,364.3574,87,62,0
364.3574,364.51364,86,62,0
364.46155,364.51364,86,62,0
364.51364,364.56573,87,62,0
364.56573,364.77405,86,62,0
364.77405,364.9303,84,62,0
364.87823,364.9303,84,62,0
364.9303,364.9824,87,62,0
364.9824,365.19073,84,62,0
365.19073,365.347,82,62,0
365.2949,365.347,82,62,0
365.347,365.39905,84,62,0
365.39905,365.6074,82,62,0
365.6074,365.81573,81,62,0
365.81573,366.33655,81,88,0
366.33655,366.44073,84,62,0
366.44073,366.5449,87,62,0
366.5449,366.64905,88,62,0
366.64905,366.8574,89,62,0
367.06573,367.69073,80,62,0
367.63864,367.69073,80,62,0
367.69073,367.7949,91,62,0
367.7949,367.89905,89,62,0
367.89905,368.1074,86,62,0
368.1074,368.31573,80,62,0
368.31573,368.4199,79,62,0
368.4199,368.52405,82,62,0
368.52405,368.62823,86,62,0
368.62823,368.7324,87,62,0
368.7324,369.14905,82,62,0
369.14905,369.56573,74,62,0
369.56573,369.9824,75,62,0
370.08655,370.13864,75,62,0
370.13864,370.19073,77,62,0
370.19073,370.39905,75,62,0
370.39905,370.6074,74,62,0
370.6074,370.81573,75,62,0
370.76364,370.81573,75,62,0
370.81573,371.02405,79,62,0
371.02405,371.1803,77,62,0
371.12823,371.1803,77,62,0
371.1803,371.2324,79,62,0
371.2324,371.44073,77,62,0
371.44073,371.597,75,62,0
371.5449,371.597,75,62,0
371.597,371.64905,77,62,0
371.64905,371.8574,75,62,0
371.8574,372.01364,74,62,0
371.96158,372.01364,74,62,0
372.01364,372.06573,75,62,0
372.06573,372.27408,74,62,0
372.27408,372.43033,72,62,0
372.37823,372.43033,72,62,0
372.43033,372.4824,75,62,0
372.4824,372.69073,72,62,0
372.69073,372.847,70,62,0
372.7949,372.847,70,62,0
372.847,372.89908,72,62,0
372.89908,373.1074,70,62,0
373.1074,373.31573,69,62,0
373.31573,373.83658,69,62,0
373.83658,373.94073,72,62,0
373.94073,374.0449,75,62,0
374.0449,374.14908,76,62,0
374.14908,374.3574,77,62,0
374.56573,375.19073,68,62,0
375.13864,375.19073,68,62,0
375.19073,375.2949,79,62,0
375.2949,375.39908,77,62,0
375.39908,375.6074,74,62,0
375.6074,375.81573,68,62,0
375.81573,375.9199,67,49,0
375.9199,376.02408,70,49,0
376.02408,376.12823,74,49,0
376.12823,376.2324,75,49,0
376.2324,376.64908,70,49,0
376.64908,377.06573,62,49,0
377.06573,377.63864,79,36,0
377.58658,377.63864,79,36,0
377.63864,377.69073,80,36,0
377.69073,377.89908,79,36,0
377.89908,378.1074,77,36,0
378.1074,378.31573,75,36,0
378.26364,378.31573,75,36,0
378.31573,378.52408,82,36,0
378.52408,378.7324,81,36,0
378.7324,379.14908,80,36,0
379.56573,380.13864,80,36,0
380.08658,380.13864,80,36,0
380.13864,380.19073,82,36,0
380.19073,380.39908,80,36,0
380.39908,380.6074,79,36,0
380.6074,380.81573,77,36,0
380.76364,380.81573,77,36,0
380.81573,381.02408,84,36,0
381.02408,381.2324,83,36,0
381.2324,381.64908,82,36,0
382.06573,382.69073,87,49,0
382.69073,382.7949,89,49,0
382.7949,382.89908,87,49,0
382.89908,383.1074,86,49,0
383.1074,383.31573,85,49,0
383.31573,383.62823,83,49,0
383.62823,383.7324,84,49,0
383.7324,384.0449,86,49,0
384.0449,384.14908,84,49,0
384.14908,384.25323,82,36,0
384.25323,384.3574,80,36,0
384.3574,384.46158,79,36,0
384.46158,384.56573,77,36,0
384.56573,384.87823,75,36,0
384.87823,384.98242,77,36,0
384.98242,385.29492,79,36,0
385.29492,385.39908,80,36,0
385.39908,385.71158,81,36,0
385.71158,385.81573,82,36,0
385.81573,386.23242,79,36,0
386.44073,386.54492,82,36,0
386.54492,386.64908,81,36,0
386.64908,386.75323,84,36,0
386.75323,386.85742,82,36,0
386.85742,386.96158,81,36,0
386.96158,387.06573,80,36,0
387.06573,387.63867,79,36,0
387.58658,387.63867,79,36,0
387.63867,387.69073,80,36,0
387.69073,387.89908,79,36,0
387.89908,388.10742,77,36,0
388.10742,388.31573,75,36,0
388.26367,388.31573,75,36,0
388.31573,388.52408,82,36,0
388.52408,388.73242,81,36,0
388.73242,389.14908,80,36,0
389.56573,390.13867,80,36,0
390.08658,390.13867,80,36,0
390.13867,390.19073,82,36,0
390.19073,390.39908,80,36,0
390.39908,390.60742,79,36,0
390.60742,390.81573,77,36,0
390.76367,390.81573,77,36,0
390.81573,391.02408,84,36,0
391.02408,391.23242,83,36,0
391.23242,391.64908,82,36,0
392.06573,392.69073,87,49,0
392.69073,392.79492,89,49,0
392.79492,392.89908,87,49,0
392.89908,393.10742,86,49,0
393.10742,393.31573,85,49,0
393.31573,393.62823,83,49,0
393.62823,393.73242,84,49,0
393.73242,394.04492,86,49,0
394.04492,394.14908,84,49,0
394.14908,394.25323,82,36,0
394.25323,394.35742,80,36,0
394.35742,394.46158,79,36,0
394.46158,394.56573,77,36,0
394.56573,394.87823,75,36,0
394.87823,394.98242,77,36,0
394.98242,395.29492,79,36,0
395.29492,395.39908,80,36,0
395.39908,395.50323,81,62,0
395.50323,395.60742,82,36,0
395.60742,395.71158,84,36,0
395.71158,395.81573,82,36,0
395.81573,395.83658,75,36,0
396.02408,396.12823,87,88,0
396.12823,396.23242,89,88,0
396.23242,396.33658,91,88,0
396.33658,396.44073,89,88,0
396.44073,396.54492,87,88,0
396.54492,396.64908,86,88,0
396.64908,396.75323,84,101,0
396.75323,396.85742,82,101,0
396.85742,396.96158,80,101,0
396.96158,397.06573,79,101,0
397.06573,397.16992,77,101,0
397.16992,397.27408,75,101,0
397.27408,397.37827,74,101,0
397.37827,397.48242,72,101,0
397.48242,397.58658,70,88,0
397.58658,397.69077,68,88,0
397.69077,397.79492,67,88,0
397.79492,397.89908,65,88,0
397.89908,398.00327,63,88,0
398.00327,398.10742,62,88,0
398.10742,398.21158,60,88,0
398.21158,398.31577,58,88,0
398.31577,398.52408,57,88,0
398.73242,399.14908,77,114,0
398.73242,399.14908,65,114,0
398.73242,399.14908,72,114,0
398.73242,399.14908,75,114,0
399.93033,399.98242,80,49,0
399.77408,399.98242,77,49,0
399.98242,400.19077,78,49,0
400.34702,400.39908,80,49,0
400.19077,400.39908,77,49,0
400.39908,400.60742,78,49,0
400.60742,400.81577,77,49,0
400.81577,401.02408,78,75,0
401.02408,401.23242,82,49,0
401.59702,401.64908,85,62,0
401.44077,401.64908,82,62,0
401.64908,401.85742,83,62,0
401.85742,402.06577,82,62,0
402.06577,402.27408,87,62,0
402.27408,402.48242,81,62,0
402.84702,402.89908,83,49,0
402.69077,402.89908,81,49,0
402.89908,403.10742,82,49,0
403.10742,403.31577,81,49,0
403.31577,403.52408,82,49,0
403.52408,403.54492,85,49,0
404.09702,404.14908,89,49,0
403.94077,404.14908,85,49,0
404.14908,404.35742,87,49,0
404.35742,404.56577,85,49,0
404.56577,404.66992,82,62,0
404.56577,404.66992,78,62,0
404.66992,404.77408,85,62,0
404.77408,404.87827,73,62,0
404.87827,404.98242,85,62,0
404.98242,405.08658,82,62,0
404.98242,405.08658,78,62,0
405.08658,405.19077,85,62,0
405.19077,405.29492,73,62,0
405.29492,405.39908,85,62,0
405.39908,405.50327,82,62,0
405.39908,405.50327,78,62,0
405.50327,405.60742,85,62,0
405.60742,405.71158,73,62,0
405.71158,405.81577,85,62,0
405.81577,405.91992,83,62,0
405.81577,405.91992,80,62,0
405.91992,406.02408,85,62,0
406.02408,406.12827,73,62,0
406.12827,406.23242,85,62,0
406.23242,406.33658,83,62,0
406.23242,406.33658,80,62,0
406.33658,406.44077,85,62,0
406.44077,406.54492,80,62,0
406.44077,406.54492,77,62,0
406.54492,406.64908,85,62,0
406.64908,406.75327,82,62,0
406.64908,406.75327,78,62,0
406.75327,406.85742,85,62,0
406.85742,406.96158,80,62,0
406.85742,406.96158,73,62,0
406.96158,407.06577,85,62,0
407.06577,407.16992,82,62,0
407.06577,407.16992,78,62,0
407.16992,407.27408,85,62,0
407.27408,407.37827,73,62,0
407.37827,407.48242,85,62,0
407.48242,407.58658,82,62,0
407.48242,407.58658,78,62,0
407.58658,407.69077,85,62,0
407.69077,407.79492,73,62,0
407.79492,407.89908,85,62,0
407.89908,408.00327,82,62,0
407.89908,408.00327,78,62,0
408.00327,408.10742,85,62,0
408.10742,408.21158,73,62,0
408.21158,408.31577,85,62,0
408.31577,408.41992,83,62,0
408.31577,408.41992,80,62,0
408.41992,408.52408,85,62,0
408.52408,408.62827,73,62,0
408.62827,408.73242,85,62,0
408.73242,408.83658,83,62,0
408.73242,408.83658,80,62,0
408.83658,408.94077,85,62,0
408.94077,409.04492,80,62,0
408.94077,409.04492,77,62,0
409.04492,409.14908,85,62,0
409.14908,409.25327,82,62,0
409.14908,409.25327,78,62,0
409.25327,409.35742,85,62,0
409.35742,409.46158,80,62,0
409.35742,409.46158,73,62,0
409.46158,409.56577,85,62,0
409.56577,409.66992,82,62,0
409.56577,409.66992,78,62,0
409.66992,409.77408,85,62,0
409.77408,409.87827,73,62,0
409.87827,409.98242,85,62,0
409.98242,410.0866,82,62,0
409.98242,410.0866,78,62,0
410.0866,410.19077,85,62,0
410.19077,410.29492,73,62,0
410.29492,410.3991,85,62,0
410.3991,410.50327,82,62,0
410.3991,410.50327,78,62,0
410.50327,410.60742,85,62,0
410.60742,410.7116,73,62,0
410.7116,410.81577,85,62,0
410.81577,410.91992,85,62,0
410.81577,410.91992,82,62,0
410.91992,411.0241,88,62,0
411.0241,411.12827,76,62,0
411.12827,411.23242,88,62,0
411.23242,411.3366,85,62,0
411.23242,411.3366,82,62,0
411.3366,411.44077,88,62,0
411.44077,411.54492,76,62,0
411.54492,411.6491,88,62,0
411.6491,411.75327,85,75,0
411.6491,411.75327,82,75,0
411.75327,411.85742,88,75,0
411.85742,411.9616,76,75,0
411.9616,412.06577,88,75,0
412.06577,412.16992,84,75,0
412.16992,412.2741,89,75,0
412.2741,412.37827,77,75,0
412.37827,412.48242,89,75,0
412.48242,412.5866,84,62,0
412.5866,412.69077,87,62,0
412.69077,412.79492,78,62,0
412.79492,412.8991,87,62,0
412.8991,413.00327,82,62,0
413.00327,413.10742,85,62,0
413.10742,413.2116,77,62,0
413.2116,413.31577,85,62,0
413.31577,413.41992,80,36,0
413.31577,413.41992,77,36,0
413.41992,413.5241,84,36,0
413.5241,413.62827,72,36,0
413.62827,413.73242,84,36,0
413.73242,413.8366,80,36,0
413.73242,413.8366,74,36,0
413.8366,413.94077,83,36,0
413.94077,414.04492,72,36,0
414.04492,414.1491,83,36,0
414.1491,414.25327,79,36,0
414.1491,414.25327,76,36,0
414.25327,414.35742,82,36,0
414.35742,414.4616,72,36,0
414.4616,414.56577,82,36,0
414.56577,414.98242,80,36,0
414.56577,414.98242,77,36,0
415.34702,415.3991,80,75,0
415.19077,415.3991,77,75,0
415.3991,415.60742,79,75,0
415.60742,415.81577,77,75,0
415.81577,416.0241,76,75,0
416.0241,416.44077,84,101,0
416.44077,416.6491,82,75,0
416.6491,416.85742,80,75,0
416.85742,417.06577,79,75,0
417.06577,417.2741,77,75,0
417.2741,417.48242,89,75,0
417.84702,417.8991,80,75,0
417.69077,417.8991,77,75,0
417.8991,418.10742,79,75,0
418.10742,418.31577,77,75,0
418.31577,418.5241,76,75,0
418.5241,418.94077,84,101,0
418.94077,419.1491,82,75,0
419.1491,419.35742,80,75,0
419.35742,419.56577,79,75,0
419.56577,419.7741,77,75,0
419.7741,420.19077,92,101,0
420.19077,420.3991,91,75,0
420.3991,420.60742,89,75,0
420.60742,420.81577,87,75,0
420.81577,421.0241,85,62,0
421.0241,421.44077,89,62,0
421.44077,421.6491,87,49,0
421.6491,421.85742,85,49,0
421.85742,422.06577,84,49,0
422.06577,423.31577,83,36,0
423.31577,423.36786,84,49,0
423.36786,423.41995,82,49,0
423.41995,423.47202,84,49,0
423.47202,423.5241,82,49,0
423.5241,423.5762,84,49,0
423.5762,423.62827,82,49,0
423.62827,423.68036,84,49,0
423.68036,423.73245,82,49,0
423.73245,423.78452,84,62,0
423.78452,423.8366,82,62,0
423.8366,423.8887,84,62,0
423.8887,423.94077,82,62,0
423.94077,423.99286,84,62,0
423.99286,424.04495,82,62,0
424.04495,424.09702,84,62,0
424.09702,424.1491,82,75,0
424.1491,424.2012,84,75,0
424.2012,424.25327,82,75,0
424.25327,424.30536,84,75,0
424.30536,424.35745,82,75,0
424.35745,424.42688,81,75,0
424.42688,424.49634,82,75,0
424.49286,424.5623,84,75,0
424.56577,424.5866,82,114,0
424.7741,425.19077,91,114,0
424.7741,425.19077,79,106,0
425.19077,425.3991,89,88,0
425.19077,425.3991,77,88,0
425.3991,425.60745,87,88,0
425.3991,425.60745,75,88,0
425.60745,425.81577,86,88,0
425.60745,425.81577,74,88,0
425.81577,425.91995,87,49,0
425.81577,425.91995,75,49,0
425.91995,426.0241,82,49,0
426.0241,426.44077,91,75,0
426.0241,426.44077,79,67,0
426.44077,426.6491,89,49,0
426.44077,426.6491,77,49,0
426.6491,426.85745,87,49,0
426.6491,426.85745,75,49,0
426.85745,427.06577,86,49,0
426.85745,427.06577,74,49,0
427.06577,427.16995,87,88,0
427.06577,427.16995,75,88,0
427.16995,427.2741,82,88,0
427.2741,427.69077,91,114,0
427.2741,427.69077,79,106,0
427.69077,427.8991,89,88,0
427.69077,427.8991,77,88,0
427.8991,428.10745,87,88,0
427.8991,428.10745,75,88,0
428.10745,428.31577,86,88,0
428.10745,428.31577,74,88,0
428.31577,428.41995,87,49,0
428.31577,428.41995,75,49,0
428.41995,428.5241,82,49,0
428.5241,428.94077,91,75,0
428.5241,428.94077,79,67,0
428.94077,429.1491,89,49,0
428.94077,429.1491,77,49,0
429.1491,429.35745,87,49,0
429.1491,429.35745,75,49,0
429.35745,429.56577,86,49,0
429.35745,429.56577,74,49,0
429.56577,429.66995,87,49,0
429.66995,429.7741,91,49,0
429.7741,429.87827,81,49,0
429.87827,429.98245,82,49,0
429.98245,430.0866,84,49,0
430.0866,430.19077,82,49,0
430.19077,430.29495,74,49,0
430.29495,430.3991,75,49,0
430.3991,430.50327,80,62,0
430.50327,430.60745,79,62,0
430.60745,430.7116,69,62,0
430.7116,430.81577,70,62,0
430.81577,430.91995,77,62,0
430.91995,431.0241,75,62,0
431.0241,431.12827,66,62,0
431.12827,431.23245,67,62,0
431.23245,431.3366,72,75,0
431.3366,431.44077,70,75,0
431.44077,431.54495,62,75,0
431.54495,431.6491,63,75,0
431.6491,431.75327,68,75,0
431.75327,431.85745,67,75,0
431.85745,431.9616,57,75,0
431.9616,432.06577,58,75,0
432.06577,432.16995,67,88,0
432.16995,432.2741,57,88,0
432.2741,432.37827,60,88,0
432.37827,432.48245,63,88,0
432.48245,432.5866,67,75,0
432.5866,432.69077,69,75,0
432.69077,432.79495,72,75,0
432.79495,432.8991,75,75,0
432.8991,432.91995,78,75,0
433.31577,434.35745,82,114,0
433.31577,434.35745,70,114,0
433.31577,434.35745,77,114,0
433.31577,434.35745,80,114,0
434.56577,434.66995,79,49,0
434.66995,434.7741,75,49,0
434.7741,434.87827,72,49,0
434.87827,434.98245,68,49,0
434.98245,435.3991,67,49,0
435.3991,435.8158,70,49,0
435.3991,435.8158,62,49,0
435.8158,436.23245,63,36,0
436.23245,436.6491,67,36,0
436.23245,436.6491,55,36,0
436.6491,437.0658,70,36,0
436.6491,437.0658,58,36,0
437.0658,437.48245,75,62,0
437.0658,437.48245,63,54,0
437.48245,437.8991,79,36,0
437.48245,437.8991,67,36,0
438.3158,438.73245,63,36,0
438.73245,439.1491,68,36,0
438.73245,439.1491,56,36,0
439.1491,439.5658,72,36,0
439.1491,439.5658,60,36,0
439.5658,439.98245,75,62,0
439.5658,439.98245,63,54,0
439.98245,440.3991,80,36,0
439.98245,440.3991,68,36,0
440.8158,441.23245,71,88,0
440.8158,441.3366,83,88,0
441.3366,441.4408,80,75,0
441.4408,441.54495,77,62,0
441.54495,441.6491,74,62,0
441.6491,441.7533,71,49,0
441.7533,441.85745,68,49,0
441.85745,441.9616,65,49,0
441.9616,442.0658,62,49,0
442.0658,442.48245,63,49,0
443.41995,443.5241,63,36,0
443.5241,443.6283,55,36,0
443.6283,443.73245,63,36,0
443.73245,443.8366,58,36,0
443.8366,443.9408,63,36,0
443.9408,444.04495,61,36,0
444.04495,444.1491,63,36,0
444.1491,444.2533,58,36,0
444.2533,444.35745,63,36,0
444.35745,444.4616,55,36,0
444.4616,444.5658,63,36,0
444.66995,444.7741,63,36,0
444.7741,444.8783,55,36,0
444.8783,444.98245,63,36,0
444.98245,445.0866,58,36,0
445.0866,445.1908,63,36,0
445.1908,445.29495,61,36,0
445.29495,445.3991,63,36,0
445.3991,445.5033,58,36,0
445.5033,445.60745,63,36,0
445.60745,445.7116,55,36,0
445.7116,445.8158,63,36,0
445.91995,446.0241,63,36,0
446.0241,446.1283,56,36,0
446.1283,446.23245,63,36,0
446.23245,446.3366,60,36,0
446.3366,446.4408,63,36,0
446.4408,446.54495,62,36,0
446.54495,446.6491,63,36,0
446.6491,446.7533,60,36,0
446.7533,446.85745,63,36,0
446.85745,446.9616,56,36,0
446.9616,447.0658,63,36,0
447.16995,447.2741,63,36,0
447.2741,447.3783,56,36,0
447.3783,447.48245,63,36,0
447.48245,447.5866,60,36,0
447.5866,447.6908,63,36,0
447.6908,447.79495,62,36,0
447.79495,447.8991,63,36,0
447.8991,448.0033,60,36,0
448.0033,448.10745,63,36,0
448.10745,448.21164,56,36,0
448.21164,448.3158,63,36,0
448.41995,448.52414,62,36,0
448.52414,448.6283,53,36,0
448.6283,448.73245,62,36,0
448.73245,448.83664,56,36,0
448.83664,448.9408,62,36,0
448.9408,449.04495,59,36,0
449.04495,449.14914,62,36,0
449.14914,449.2533,56,36,0
449.2533,449.35745,62,36,0
449.35745,449.46164,53,36,0
449.46164,449.5658,62,36,0
449.66995,449.77414,63,36,0
449.77414,449.8783,55,36,0
449.8783,449.98245,63,36,0
449.98245,450.08664,58,36,0
450.08664,450.1908,63,36,0
450.1908,450.29495,62,36,0
450.29495,450.39914,63,36,0
450.39914,450.5033,61,36,0
450.5033,450.60745,63,36,0
450.60745,450.71164,58,36,0
450.71164,450.8158,63,36,0
450.91995,451.02414,63,36,0
451.02414,451.1283,56,36,0
451.1283,451.23245,63,36,0
451.23245,451.33664,58,36,0
451.33664,451.4408,63,36,0
451.4408,451.54495,59,36,0
451.54495,451.64914,63,36,0
451.64914,451.7533,58,36,0
451.7533,451.85745,63,36,0
451.85745,451.96164,56,36,0
451.96164,452.0658,63,36,0
452.0658,452.27414,62,49,0
452.27414,452.48245,63,49,0
452.48245,452.6908,62,49,0
452.6908,452.89914,59,49,0
452.89914,453.10745,58,49,0
453.10745,453.3158,62,49,0
453.41995,453.52414,75,36,0
453.52414,453.63052,67,36,0
453.63052,453.7369,75,36,0
453.7369,453.84558,70,36,0
453.84558,453.95428,75,36,0
453.95428,454.0654,73,36,0
454.0654,454.1765,75,36,0
454.1765,454.29102,70,36,0
454.29102,454.40552,75,36,0
454.40552,454.5227,67,36,0
454.5227,454.6399,75,36,0
454.7599,454.87988,75,36,0
454.87988,455.00284,68,36,0
455.00284,455.1258,75,36,0
455.1258,455.2529,70,36,0
455.2529,455.38004,75,36,0
455.38004,455.50714,71,36,0
455.50714,455.63428,75,36,0
455.63428,455.76138,70,36,0
455.76138,455.88852,75,36,0
455.88852,456.01562,68,36,0
456.01562,456.14273,75,36,0
456.14273,456.39697,74,49,0
456.39697,456.6512,75,49,0
456.6512,456.90546,74,49,0
456.90546,457.1597,71,49,0
457.1597,457.41394,70,49,0
457.41394,457.66815,74,49,0
457.66815,457.9224,75,49,0
457.9224,458.17664,78,49,0
458.17664,458.43088,79,49,0
458.43088,458.68512,78,49,0
458.68512,458.93936,79,49,0
458.93936,459.1936,75,49,0
459.1936,459.4478,74,49,0
459.4478,459.70206,75,49,0
459.70206,459.9563,74,49,0
459.9563,460.21054,71,49,0
460.21054,460.46478,70,49,0
460.46478,460.71902,74,49,0
460.71902,460.97327,75,49,0
460.97327,461.22748,66,49,0
461.22748,461.48172,67,49,0
461.48172,461.73596,66,49,0
461.73596,461.9902,67,49,0
461.9902,462.24445,63,49,0
462.24445,462.4987,62,49,0
462.4987,462.75293,63,49,0
462.75293,463.00714,62,49,0
463.00714,463.26138,59,49,0
463.26138,463.51562,58,49,0
463.51562,463.76987,62,49,0
463.76987,463.89697,63,49,0
463.76987,463.89697,55,49,0
463.89697,464.0241,51,49,0
464.0241,464.1512,63,49,0
464.0241,464.1512,58,49,0
464.0241,464.1512,55,49,0
464.1512,464.27835,51,49,0
464.27835,464.40546,63,49,0
464.27835,464.40546,58,49,0
464.27835,464.40546,55,49,0
464.40546,464.5326,51,49,0
464.5326,464.6597,63,49,0
464.5326,464.6597,58,49,0
464.5326,464.6597,55,49,0
464.6597,464.7868,51,49,0
464.7868,464.91394,63,49,0
464.7868,464.91394,58,49,0
464.7868,464.91394,55,49,0
464.91394,465.04105,51,49,0
465.04105,465.16818,63,49,0
465.04105,465.16818,58,49,0
465.04105,465.16818,55,49,0
465.16818,465.2953,51,49,0
465.2953,465.42242,63,49,0
465.2953,465.42242,58,49,0
465.2953,465.42242,55,49,0
465.42242,465.54953,51,49,0
465.54953,465.67664,63,49,0
465.54953,465.67664,58,49,0
465.54953,465.67664,55,49,0
465.67664,465.80377,51,49,0
465.80377,465.93088,63,49,0
465.80377,465.93088,58,49,0
465.80377,465.93088,55,49,0
465.93088,466.058,51,49,0
466.058,466.18512,63,49,0
466.058,466.18512,58,49,0
466.058,466.18512,55,49,0
466.18512,466.31226,51,49,0
466.31226,466.43936,63,49,0
466.31226,466.43936,58,49,0
466.31226,466.43936,55,49,0
466.43936,466.56647,51,49,0
466.56647,466.6936,63,49,0
466.56647,466.6936,58,49,0
466.56647,466.6936,55,49,0
466.6936,466.8207,51,49,0
466.8207,467.3292,63,49,0
466.8207,467.3292,58,49,0
466.8207,467.3292,55,49,0
468.34613,468.8546,79,49,0
468.2487,468.8546,67,49,0
468.2826,468.8546,70,49,0
468.31226,468.8546,75,49,0
469.87158,471.397,63,49,0
469.87158,471.397,58,49,0
469.87158,471.397,55,49,0
117.09134,118.34134,58,36,0
118.34134,119.59134,58,36,0
119.59134,120.84134,58,36,0
120.84134,122.09134,58,36,0
122.09134,123.34134,58,36,0
123.34134,124.59134,58,36,0
124.59134,125.84135,58,36,0
125.84135,125.94551,63,36,0
125.94551,126.049675,60,36,0
126.049675,126.15385,63,36,0
126.15385,126.25801,60,36,0
126.25801,126.362175,63,36,0
126.362175,126.46635,60,36,0
126.46635,126.57051,63,36,0
126.57051,126.674675,60,36,0
126.674675,126.77885,63,36,0
126.77885,126.88301,60,36,0
126.88301,126.987175,63,36,0
126.987175,127.09135,60,36,0
127.09135,128.34134,70,36,0
128.34134,129.59134,70,36,0
129.59134,129.69551,75,36,0
129.69551,129.79968,72,36,0
129.79968,129.90607,75,36,0
129.90607,130.01245,72,36,0
130.01245,130.12114,75,36,0
130.12114,130.22984,72,36,0
130.22984,130.34094,75,36,0
130.34094,130.45206,72,36,0
130.45206,130.56656,75,36,0
130.56656,130.68106,72,36,0
130.68106,130.79825,75,36,0
130.79825,130.91544,72,36,0
130.91544,131.03545,74,36,0
131.03545,131.15544,77,36,0
131.15544,131.2784,81,36,0
131.2784,131.40134,77,36,0
131.40134,131.52846,82,36,0
131.52846,131.65558,77,36,0
131.65558,131.7827,81,36,0
131.7827,131.90982,77,36,0
131.90982,132.03694,82,36,0
132.03694,132.16406,77,36,0
132.16406,132.29117,74,36,0
132.29117,132.41829,77,36,0
132.41829,132.54541,75,36,0
132.54541,132.67253,72,36,0
132.67253,132.79965,75,36,0
132.79965,132.92677,72,36,0
132.92677,133.0539,75,36,0
133.0539,133.181,72,36,0
133.181,133.30812,75,36,0
133.30812,133.43524,72,36,0
133.43524,133.56236,75,36,0
133.56236,133.68948,72,36,0
133.68948,133.8166,75,36,0
133.8166,133.94373,72,36,0
133.94373,134.07083,74,36,0
134.07083,134.19795,77,36,0
134.19795,134.32507,69,36,0
134.32507,134.4522,65,36,0
134.4522,134.57932,70,36,0
134.57932,134.70644,65,36,0
134.70644,134.83354,69,36,0
134.83354,134.96066,65,36,0
134.96066,135.08778,70,36,0
135.08778,135.2149,65,36,0
135.2149,135.34203,62,36,0
135.34203,135.46915,65,36,0
135.46915,135.59627,63,36,0
135.59627,135.72337,60,36,0
135.72337,135.8505,63,36,0
135.8505,135.97762,60,36,0
135.97762,136.10474,63,36,0
136.10474,136.23186,60,36,0
136.23186,136.35898,63,36,0
136.35898,136.4861,60,36,0
136.4861,136.6132,63,36,0
136.6132,136.74033,60,36,0
136.74033,136.86745,63,36,0
136.86745,136.99457,60,36,0
259.77094,261.02094,58,36,0
261.02094,262.27094,58,36,0
262.27094,263.52094,58,36,0
263.52094,264.77094,58,36,0
264.77094,266.02094,58,36,0
266.02094,267.27094,58,36,0
267.27094,268.52094,58,36,0
268.52094,268.62512,63,36,0
268.62512,268.72928,60,36,0
268.72928,268.83344,63,36,0
268.83344,268.93762,60,36,0
268.93762,269.04178,63,36,0
269.04178,269.14594,60,36,0
269.14594,269.25012,63,36,0
269.25012,269.35428,60,36,0
269.35428,269.45844,63,36,0
269.45844,269.56262,60,36,0
269.56262,269.66678,63,36,0
269.66678,269.77094,60,36,0
269.77094,271.02094,70,36,0
271.02094,272.27094,70,36,0
272.27094,272.37512,75,36,0
272.37512,272.47928,72,36,0
272.47928,272.58566,75,36,0
272.58566,272.69205,72,36,0
272.69205,272.80075,75,36,0
272.80075,272.90942,72,36,0
272.90942,273.02054,75,36,0
273.02054,273.13165,72,36,0
273.13165,273.24615,75,36,0
273.24615,273.36066,72,36,0
273.36066,273.47784,75,36,0
273.47784,273.59503,72,36,0
273.59503,273.71506,74,36,0
273.71506,273.83505,77,36,0
273.83505,273.958,81,36,0
273.958,274.08093,77,36,0
274.08093,274.20807,82,36,0
274.20807,274.33517,77,36,0
274.33517,274.4623,81,36,0
274.4623,274.58942,77,36,0
274.58942,274.71655,82,36,0
274.71655,274.84366,77,36,0
274.84366,274.97076,74,36,0
274.97076,275.0979,77,36,0
275.0979,275.225,75,36,0
275.225,275.35214,72,36,0
275.35214,275.47925,75,36,0
275.47925,275.60635,72,36,0
275.60635,275.7335,75,36,0
275.7335,275.8606,72,36,0
275.8606,275.98773,75,36,0
275.98773,276.11484,72,36,0
276.11484,276.24197,75,36,0
276.24197,276.36908,72,36,0
276.36908,276.4962,75,36,0
276.4962,276.62332,72,36,0
276.62332,276.75043,74,36,0
276.75043,276.87756,77,36,0
276.87756,277.00467,69,36,0
277.00467,277.1318,65,36,0
277.1318,277.2589,70,36,0
277.2589,277.38602,65,36,0
277.38602,277.51315,69,36,0
277.51315,277.64026,65,36,0
277.64026,277.7674,70,36,0
277.7674,277.8945,65,36,0
277.8945,278.02164,62,36,0
278.02164,278.14874,65,36,0
278.14874,278.27585,63,36,0
278.27585,278.40298,60,36,0
278.40298,278.5301,63,36,0
278.5301,278.65723,60,36,0
278.65723,278.78433,63,36,0
278.78433,278.91147,60,36,0
278.91147,279.03857,63,36,0
279.03857,279.16568,60,36,0
279.16568,279.29282,63,36,0
279.29282,279.41992,60,36,0
279.41992,279.54706,63,36,0
279.54706,279.67416,60,36,0
302.06567,302.27402,72,36,0
302.06567,302.27402,68,36,0
309.56567,309.98236,70,36,0
319.56567,319.77402,70,36,0
319.56567,319.77402,66,36,0
327.0657,327.48236,68,36,0
327.48236,327.6907,66,36,0
443.3158,444.5658,51,36,0
444.5658,445.8158,51,36,0
445.8158,447.0658,51,36,0
447.0658,448.3158,51,36,0
448.3158,449.5658,51,36,0
449.5658,450.8158,51,36,0
450.8158,452.0658,51,36,0
452.0658,452.16995,56,36,0
452.16995,452.27414,53,36,0
452.27414,452.3783,56,36,0
452.3783,452.48245,53,36,0
452.48245,452.58664,56,36,0
452.58664,452.6908,53,36,0
452.6908,452.79495,56,36,0
452.79495,452.89914,53,36,0
452.89914,453.0033,56,36,0
453.0033,453.10745,53,36,0
453.10745,453.21164,56,36,0
453.21164,453.3158,53,36,0
453.3158,454.6399,63,36,0
454.6399,456.14273,63,36,0
456.14273,456.26987,68,36,0
456.26987,456.39697,65,36,0
456.39697,456.5241,68,36,0
456.5241,456.6512,65,36,0
456.6512,456.77835,68,36,0
456.77835,456.90546,65,36,0
456.90546,457.03256,68,36,0
457.03256,457.1597,65,36,0
457.1597,457.2868,68,36,0
457.2868,457.41394,65,36,0
457.41394,457.54105,68,36,0
457.54105,457.66815,65,36,0
457.66815,457.7953,67,36,0
457.7953,457.9224,70,36,0
457.9224,458.04953,74,36,0
458.04953,458.17664,70,36,0
458.17664,458.30377,75,36,0
458.30377,458.43088,70,36,0
458.43088,458.55798,74,36,0
458.55798,458.68512,70,36,0
458.68512,458.81223,75,36,0
458.81223,458.93936,70,36,0
458.93936,459.06647,67,36,0
459.06647,459.1936,70,36,0
459.1936,459.3207,68,36,0
459.3207,459.4478,65,36,0
459.4478,459.57495,68,36,0
459.57495,459.70206,65,36,0
459.70206,459.8292,68,36,0
459.8292,459.9563,65,36,0
459.9563,460.08344,68,36,0
460.08344,460.21054,65,36,0
460.21054,460.33765,68,36,0
460.33765,460.46478,65,36,0
460.46478,460.5919,68,36,0
460.5919,460.71902,65,36,0
460.71902,460.84613,67,36,0
460.84613,460.97327,70,36,0
460.97327,461.10037,62,36,0
461.10037,461.22748,58,36,0
461.22748,461.3546,63,36,0
461.3546,461.48172,58,36,0
461.48172,461.60886,62,36,0
461.60886,461.73596,58,36,0
461.73596,461.8631,63,36,0
461.8631,461.9902,58,36,0
461.9902,462.1173,55,36,0
462.1173,462.24445,58,36,0
462.24445,462.37155,56,36,0
462.37155,462.4987,53,36,0
462.4987,462.6258,56,36,0
462.6258,462.75293,53,36,0
462.75293,462.88004,56,36,0
462.88004,463.00714,53,36,0
463.00714,463.13428,56,36,0
463.13428,463.26138,53,36,0
463.26138,463.38852,56,36,0
463.38852,463.51562,53,36,0
463.51562,463.64276,56,36,0
463.64276,463.76987,53,36,0
0.0,0.416667,46,36,0
0.416667,0.833334,43,36,0
0.833334,1.250001,46,36,0
1.250001,1.666668,51,36,0
1.666668,2.500002,55,36,0
2.4479187,2.500002,55,36,0
2.500002,2.916669,58,36,0
3.333336,3.3750026,56,36,0
3.333336,3.3750026,53,36,0
3.333336,3.3750026,46,36,0
3.750003,3.7916696,56,36,0
3.750003,3.7916696,53,36,0
3.750003,3.7916696,46,36,0
4.16667,4.583337,56,36,0
4.16667,4.583337,53,36,0
4.16667,4.583337,46,36,0
5.416671,6.666672,51,36,0
5.416671,6.666672,43,36,0
6.666672,7.083339,51,36,0
7.083339,7.7083397,52,62,0
7.7083397,7.916673,53,36,0
7.916673,8.750007,55,36,0
7.916673,8.750007,46,36,0
8.750007,9.166674,57,62,0
9.166674,9.583341,58,36,0
8.750007,9.583341,46,54,0
10.000008,10.416675,58,36,0
10.416675,10.833342,55,36,0
10.833342,11.250009,58,36,0
11.250009,11.666676,63,36,0
11.666676,12.50001,67,36,0
12.4479265,12.50001,67,36,0
12.50001,12.916677,70,62,0
13.333344,13.3750105,68,36,0
13.333344,13.3750105,65,36,0
13.333344,13.3750105,58,36,0
13.750011,13.791677,68,36,0
13.750011,13.791677,65,36,0
13.750011,13.791677,58,36,0
14.166678,14.583345,68,36,0
14.166678,14.583345,65,36,0
14.166678,14.583345,58,36,0
15.416679,16.66668,63,36,0
15.416679,16.66668,55,36,0
16.66668,17.083347,63,36,0
17.083347,17.708347,64,62,0
17.708347,17.916681,65,36,0
17.916681,18.750015,67,36,0
17.916681,18.750015,58,36,0
18.750015,19.166681,68,62,0
18.750015,19.166681,58,54,0
19.166681,19.58335,67,36,0
19.166681,19.58335,63,36,0
19.687515,19.7396,75,36,0
19.7396,19.791683,77,36,0
19.791683,20.000015,75,49,0
20.000015,20.20835,74,49,0
20.20835,20.416683,75,49,0
20.3646,20.416683,75,49,0
20.416683,20.625017,79,49,0
20.625017,20.83335,77,49,0
20.83335,21.041683,77,49,0
21.041683,21.250017,75,49,0
21.250017,21.458351,75,49,0
21.458351,21.666683,74,49,0
21.666683,21.875017,74,36,0
21.875017,22.083351,72,36,0
22.083351,22.291685,72,36,0
22.291685,22.500017,70,36,0
22.500017,22.708351,70,36,0
22.708351,22.916685,69,36,0
22.916685,24.166685,75,36,0
22.916685,24.166685,72,36,0
22.916685,24.166685,65,36,0
24.166685,25.416687,74,62,0
24.166685,25.416687,70,54,0
25.416687,25.625021,75,36,0
25.416687,25.625021,63,36,0
25.833355,26.250021,67,36,0
25.833355,26.250021,58,36,0
26.250021,26.666689,68,36,0
26.250021,26.666689,59,36,0
26.666689,27.083355,67,36,0
26.666689,27.083355,60,36,0
27.187521,27.239605,63,36,0
27.239605,27.291689,65,36,0
27.291689,27.500023,63,49,0
27.500023,27.708355,62,49,0
27.708355,27.916689,63,49,0
27.864605,27.916689,63,49,0
27.916689,28.125023,67,49,0
28.125023,28.333357,65,49,0
28.333357,28.541689,65,49,0
28.541689,28.750023,63,49,0
28.750023,28.958357,63,49,0
28.958357,29.16669,62,49,0
29.16669,29.375023,62,36,0
29.375023,29.583357,60,36,0
29.583357,29.79169,60,36,0
29.79169,30.000025,58,36,0
30.000025,30.208357,58,36,0
30.208357,30.41669,57,36,0
30.41669,31.666693,63,36,0
30.41669,31.666693,60,36,0
30.41669,31.666693,53,36,0
31.666693,32.916695,62,36,0
31.666693,32.916695,58,36,0
32.916695,33.125027,63,36,0
32.916695,33.125027,51,36,0
33.33336,33.750027,55,36,0
33.750027,34.166695,56,36,0
34.166695,34.270863,51,36,0
34.270863,34.375027,58,36,0
34.375027,34.479195,54,36,0
34.479195,34.583363,58,36,0
34.583363,34.687527,51,36,0
34.687527,34.791695,58,36,0
34.791695,34.895863,54,36,0
34.895863,35.000027,58,36,0
35.000027,35.104195,51,49,0
35.104195,35.208363,58,49,0
35.208363,35.312527,54,49,0
35.312527,35.416695,58,49,0
35.416695,35.520863,51,75,0
35.520863,35.625027,58,49,0
35.625027,35.729195,54,49,0
35.729195,35.833363,58,49,0
35.833363,35.93753,51,49,0
35.93753,36.041695,58,49,0
36.041695,36.145863,54,49,0
36.145863,36.25003,58,49,0
36.25003,36.354195,51,49,0
36.354195,36.458363,58,49,0
36.458363,36.56253,54,49,0
36.56253,36.666695,58,49,0
36.666695,36.770863,49,62,0
36.770863,36.87503,58,62,0
36.87503,36.979195,54,62,0
36.87503,36.979195,51,62,0
36.979195,37.083363,58,62,0
37.083363,37.18753,49,62,0
37.18753,37.291695,58,62,0
37.291695,37.395863,54,62,0
37.291695,37.395863,51,62,0
37.395863,37.50003,58,62,0
37.50003,37.6042,49,62,0
37.6042,37.708363,58,62,0
37.708363,37.81253,54,62,0
37.708363,37.81253,51,62,0
37.81253,37.9167,58,62,0
37.9167,38.020863,49,62,0
38.020863,38.12503,58,62,0
38.12503,38.2292,54,62,0
38.12503,38.2292,51,62,0
38.2292,38.333363,58,62,0
38.333363,38.43753,49,62,0
38.43753,38.5417,58,62,0
38.5417,38.645863,54,62,0
38.5417,38.645863,51,62,0
38.645863,38.75003,58,62,0
38.75003,38.8542,49,62,0
38.8542,38.958366,58,62,0
38.958366,39.06253,54,62,0
38.958366,39.06253,51,62,0
39.06253,39.1667,58,62,0
39.1667,39.270866,47,75,0
39.270866,39.37503,59,75,0
39.37503,39.4792,54,75,0
39.37503,39.4792,51,75,0
39.4792,39.583366,59,75,0
39.583366,39.68753,47,75,0
39.68753,39.7917,59,75,0
39.7917,39.895866,54,75,0
39.7917,39.895866,51,75,0
39.895866,40.00003,59,75,0
40.00003,40.1042,47,75,0
40.1042,40.208366,59,75,0
40.208366,40.31253,54,75,0
40.208366,40.31253,51,75,0
40.31253,40.4167,59,75,0
40.4167,40.520866,47,75,0
40.520866,40.625034,59,75,0
40.625034,40.7292,54,75,0
40.625034,40.7292,51,75,0
40.7292,40.833366,59,75,0
40.833366,40.937534,47,75,0
40.937534,41.0417,59,75,0
41.0417,41.145866,54,75,0
41.0417,41.145866,51,75,0
41.145866,41.250034,59,75,0
41.250034,41.3542,46,75,0
41.3542,41.458366,58,75,0
41.458366,41.562534,54,75,0
41.458366,41.562534,51,75,0
41.562534,41.6667,58,75,0
41.6667,41.770866,45,88,0
41.770866,41.875034,57,88,0
41.875034,41.9792,54,88,0
41.875034,41.9792,51,88,0
41.9792,42.083366,57,88,0
42.083366,42.187534,45,88,0
42.187534,42.291702,57,88,0
42.291702,42.395866,54,88,0
42.291702,42.395866,51,88,0
42.395866,42.500034,57,88,0
42.500034,42.604202,45,75,0
42.604202,42.708366,57,75,0
42.708366,42.812534,54,75,0
42.708366,42.812534,51,75,0
42.812534,42.916702,57,75,0
42.916702,43.020866,46,75,0
43.020866,43.125034,48,75,0
43.125034,43.229202,50,75,0
43.229202,43.333366,51,75,0
43.333366,43.437534,53,75,0
43.437534,43.541702,55,75,0
43.541702,43.645866,57,75,0
43.645866,43.750034,58,75,0
43.750034,43.854202,60,75,0
43.854202,43.95837,62,75,0
43.95837,44.062534,63,75,0
44.062534,44.166702,65,75,0
44.166702,44.58337,66,75,0
44.166702,44.58337,58,75,0
44.58337,45.000034,65,75,0
44.58337,45.000034,58,75,0
45.000034,45.416702,63,75,0
45.000034,45.416702,58,75,0
45.416702,45.83337,62,75,0
45.416702,45.83337,58,75,0
46.45837,46.479202,57,101,0
46.666702,46.87504,58,75,0
46.87504,46.979206,57,75,0
46.979206,47.08337,55,75,0
47.08337,47.18754,53,75,0
47.18754,47.291706,51,75,0
47.291706,47.39587,50,75,0
47.39587,47.50004,48,75,0
47.50004,47.52087,46,75,0
47.70837,47.729206,45,101,0
47.916706,48.33337,46,101,0
50.636322,50.65838,46,36,0
50.85691,50.88035,62,36,0
50.85691,50.88035,53,36,0
51.091286,51.116283,62,36,0
51.091286,51.116283,58,36,0
51.341286,51.366283,62,36,0
51.341286,51.366283,53,36,0
51.591286,51.616283,62,36,0
51.591286,51.616283,58,36,0
51.841286,51.866283,62,36,0
51.841286,51.866283,53,36,0
52.091286,52.112118,41,36,0
52.299618,52.32045,60,36,0
52.299618,52.32045,53,36,0
52.50795,52.528786,60,36,0
52.50795,52.528786,57,36,0
52.716286,52.737118,60,36,0
52.716286,52.737118,53,36,0
52.924618,52.94545,60,36,0
52.924618,52.94545,57,36,0
53.13295,53.153786,60,36,0
53.13295,53.153786,53,36,0
53.341286,53.362118,41,36,0
53.549618,53.570454,60,36,0
53.549618,53.570454,53,36,0
53.757954,53.778786,60,36,0
53.757954,53.778786,57,36,0
53.966286,53.987118,60,36,0
53.966286,53.987118,53,36,0
54.174618,54.195454,62,36,0
54.174618,54.195454,57,36,0
54.382954,54.403786,63,36,0
54.382954,54.403786,53,36,0
54.591286,54.612118,46,36,0
54.799618,54.820454,62,36,0
54.799618,54.820454,57,36,0
55.007954,55.028786,62,36,0
55.007954,55.028786,58,36,0
55.216286,55.23712,62,36,0
55.216286,55.23712,53,36,0
55.42462,55.445454,62,36,0
55.42462,55.445454,58,36,0
55.632954,55.653786,62,36,0
55.632954,55.653786,53,36,0
55.841286,56.04962,50,36,0
56.04962,56.257954,65,36,0
56.04962,56.257954,58,36,0
56.257954,56.466286,68,36,0
56.257954,56.466286,65,36,0
56.466286,56.67462,65,36,0
56.466286,56.67462,58,36,0
56.67462,56.882954,68,36,0
56.67462,56.882954,65,36,0
56.882954,57.09129,65,36,0
56.882954,57.09129,58,36,0
57.09129,57.29962,51,36,0
57.29962,57.507954,63,36,0
57.29962,57.507954,58,36,0
57.507954,57.71629,67,36,0
57.507954,57.71629,63,36,0
57.71629,57.92462,63,36,0
57.71629,57.92462,59,36,0
57.92462,58.132954,63,36,0
57.92462,58.132954,60,36,0
58.132954,58.34129,67,36,0
58.132954,58.34129,63,36,0
58.34129,58.54962,53,36,0
58.54962,58.757957,62,36,0
58.54962,58.757957,58,36,0
58.757957,58.96629,65,36,0
58.757957,58.96629,62,36,0
58.96629,59.17462,62,36,0
58.96629,59.17462,58,36,0
59.17462,59.382957,65,36,0
59.17462,59.382957,63,36,0
59.382957,59.59129,63,36,0
59.382957,59.59129,57,36,0
59.59129,59.799625,46,36,0
59.799625,60.007957,62,36,0
59.799625,60.007957,58,36,0
60.007957,60.21629,65,36,0
60.007957,60.21629,62,36,0
60.21629,60.424625,62,36,0
60.21629,60.424625,53,36,0
60.424625,60.632957,61,36,0
60.424625,60.632957,55,36,0
60.632957,60.84129,60,36,0
60.632957,60.84129,57,36,0
60.84129,60.862125,46,36,0
61.049625,61.070457,62,36,0
61.049625,61.070457,53,36,0
61.257957,61.27879,62,36,0
61.257957,61.27879,58,36,0
61.466293,61.487125,62,36,0
61.466293,61.487125,53,36,0
61.674625,61.695457,62,36,0
61.674625,61.695457,58,36,0
61.882957,61.903793,62,36,0
61.882957,61.903793,53,36,0
62.091293,62.112125,41,36,0
62.299625,62.320457,60,36,0
62.299625,62.320457,53,36,0
62.507957,62.528793,60,36,0
62.507957,62.528793,57,36,0
62.716293,62.737125,60,36,0
62.716293,62.737125,53,36,0
62.924625,62.945457,60,36,0
62.924625,62.945457,57,36,0
63.13296,63.153793,60,36,0
63.13296,63.153793,53,36,0
63.341293,63.362125,41,36,0
63.549625,63.57046,60,36,0
63.549625,63.57046,53,36,0
63.75796,63.778793,60,36,0
63.75796,63.778793,57,36,0
63.966293,63.987125,60,36,0
63.966293,63.987125,53,36,0
64.17463,64.19546,62,36,0
64.17463,64.19546,57,36,0
64.38296,64.40379,63,36,0
64.38296,64.40379,53,36,0
64.59129,64.61213,46,36,0
64.79963,64.82046,62,36,0
64.79963,64.82046,57,36,0
65.00796,65.02879,62,36,0
65.00796,65.02879,58,36,0
65.21629,65.23713,62,36,0
65.21629,65.23713,53,36,0
65.42463,65.445465,62,36,0
65.42463,65.445465,58,36,0
65.632965,65.65379,62,36,0
65.632965,65.65379,53,36,0
65.84129,66.04963,50,36,0
66.04963,66.257965,65,36,0
66.04963,66.257965,58,36,0
66.257965,66.46629,68,36,0
66.257965,66.46629,65,36,0
66.46629,66.67463,65,36,0
66.46629,66.67463,58,36,0
66.67463,66.882965,68,36,0
66.67463,66.882965,65,36,0
66.882965,67.09129,65,36,0
66.882965,67.09129,58,36,0
67.09129,67.29963,51,36,0
67.29963,67.507965,63,36,0
67.29963,67.507965,58,36,0
67.507965,67.71629,67,36,0
67.507965,67.71629,63,36,0
67.71629,67.92463,63,36,0
67.71629,67.92463,59,36,0
67.92463,68.132965,63,36,0
67.92463,68.132965,60,36,0
68.132965,68.34129,67,36,0
68.132965,68.34129,63,36,0
68.34129,68.54963,53,36,0
68.54963,68.757965,62,36,0
68.54963,68.757965,58,36,0
68.757965,68.9663,65,36,0
68.757965,68.9663,62,36,0
68.9663,69.17463,62,36,0
68.9663,69.17463,58,36,0
69.17463,69.382965,65,36,0
69.17463,69.382965,63,36,0
69.382965,69.5913,63,36,0
69.382965,69.5913,57,36,0
69.5913,69.79963,62,36,0
69.5913,69.79963,58,36,0
69.79963,69.9038,70,75,0
69.9038,70.007965,72,75,0
70.007965,70.11213,74,75,0
70.11213,70.2163,72,75,0
70.2163,70.320465,70,75,0
70.320465,70.42463,69,75,0
70.42463,70.5288,67,75,0
70.5288,70.632965,65,75,0
70.632965,70.73713,63,75,0
70.73713,70.8413,62,75,0
70.8413,70.945465,60,75,0
70.945465,71.04963,58,75,0
71.04963,71.1538,57,75,0
71.1538,71.257965,55,75,0
71.257965,71.36213,53,75,0
71.36213,71.4663,51,75,0
71.4663,71.570465,50,75,0
71.570465,71.67463,48,75,0
71.67463,71.7788,46,75,0
71.7788,71.882965,45,75,0
71.882965,71.98714,43,75,0
71.98714,72.0913,41,75,0
72.0913,72.29964,40,75,0
72.507965,72.92464,64,101,0
72.507965,72.92464,60,101,0
72.507965,72.92464,52,101,0
73.3413,73.54964,60,36,0
73.3413,73.54964,52,36,0
73.3413,73.54964,55,36,0
73.3413,73.54964,58,36,0
73.757965,73.9663,60,36,0
73.757965,73.9663,52,36,0
73.757965,73.9663,55,36,0
73.757965,73.9663,58,36,0
74.17464,74.382965,60,36,0
74.17464,74.382965,52,36,0
74.17464,74.382965,55,36,0
74.17464,74.382965,58,36,0
74.5913,74.79964,61,36,0
74.5913,74.79964,58,36,0
74.5913,74.79964,53,36,0
75.00797,75.2163,61,36,0
75.00797,75.2163,58,36,0
75.00797,75.2163,53,36,0
75.42464,75.63297,61,36,0
75.42464,75.63297,58,36,0
75.42464,75.63297,53,36,0
75.8413,76.04964,61,49,0
75.8413,76.04964,58,49,0
75.8413,76.04964,54,49,0
76.25797,76.4663,61,49,0
76.25797,76.4663,58,49,0
76.25797,76.4663,54,49,0
76.67464,76.88297,61,36,0
76.67464,76.88297,58,36,0
76.67464,76.88297,55,36,0
77.0913,77.29964,65,36,0
77.0913,77.29964,61,36,0
77.0913,77.29964,56,36,0
77.50797,77.7163,65,36,0
77.50797,77.7163,61,36,0
77.50797,77.7163,56,36,0
77.92464,78.13297,66,36,0
77.92464,78.13297,60,36,0
77.92464,78.13297,56,36,0
78.34131,78.75797,65,75,0
78.34131,78.75797,61,75,0
79.12256,79.17464,53,75,0
78.96631,79.17464,49,75,0
79.17464,79.38297,51,75,0
79.38297,79.59131,49,75,0
79.59131,79.79964,48,75,0
79.79964,80.21631,56,101,0
80.21631,80.42464,54,75,0
80.42464,80.63297,53,75,0
80.63297,80.84131,51,75,0
80.84131,81.04964,49,75,0
81.04964,81.07047,37,75,0
81.62256,81.674644,53,75,0
81.46631,81.674644,49,75,0
81.674644,81.88297,51,75,0
81.88297,82.09131,49,75,0
82.09131,82.299644,48,75,0
82.299644,82.71631,56,101,0
82.71631,82.924644,54,75,0
82.924644,83.13297,53,75,0
83.13297,83.34131,51,75,0
83.34131,83.549644,49,75,0
83.549644,83.57047,37,75,0
84.12256,84.174644,53,75,0
83.96631,84.174644,49,75,0
84.174644,84.38297,51,75,0
84.38297,84.59131,49,75,0
84.59131,84.799644,50,88,0
84.799644,85.21631,59,114,0
85.21631,85.424644,56,88,0
85.424644,85.63298,53,88,0
85.63298,85.84131,51,88,0
85.84131,86.25798,51,88,0
86.25798,86.674644,52,75,0
86.674644,87.09131,53,75,0
87.09131,88.34132,55,49,0
88.34132,88.44548,63,62,0
88.34132,88.44548,60,62,0
88.44548,88.549644,67,62,0
88.549644,88.65382,55,62,0
88.65382,88.75798,67,62,0
88.75798,88.862144,63,62,0
88.75798,88.862144,60,62,0
88.862144,88.96632,67,62,0
88.96632,89.07048,55,62,0
89.07048,89.174644,67,62,0
89.174644,89.27882,63,62,0
89.174644,89.27882,60,62,0
89.27882,89.38298,67,62,0
89.38298,89.487144,55,62,0
89.487144,89.59132,67,62,0
89.59132,89.69548,65,62,0
89.59132,89.69548,62,62,0
89.69548,89.799644,67,62,0
89.799644,89.90382,55,62,0
89.90382,90.00798,67,62,0
90.00798,90.112144,65,62,0
90.00798,90.112144,62,62,0
90.112144,90.21632,67,62,0
90.21632,90.32048,62,62,0
90.21632,90.32048,59,62,0
90.32048,90.424644,67,62,0
90.424644,90.52882,63,62,0
90.424644,90.52882,60,62,0
90.52882,90.63298,67,62,0
90.63298,90.737144,65,62,0
90.63298,90.737144,59,62,0
90.737144,90.84132,67,62,0
90.84132,90.94548,63,62,0
90.84132,90.94548,60,62,0
90.94548,91.04965,67,62,0
91.04965,91.15382,55,62,0
91.15382,91.25798,67,62,0
91.25798,91.36215,63,62,0
91.25798,91.36215,60,62,0
91.36215,91.46632,67,62,0
91.46632,91.57048,55,62,0
91.57048,91.67465,67,62,0
91.67465,91.77882,63,62,0
91.67465,91.77882,60,62,0
91.77882,91.88298,67,62,0
91.88298,91.98715,55,62,0
91.98715,92.09132,67,62,0
92.09132,92.19548,65,62,0
92.09132,92.19548,62,62,0
92.19548,92.29965,67,62,0
92.29965,92.40382,55,62,0
92.40382,92.50798,67,62,0
92.50798,92.61215,65,62,0
92.50798,92.61215,62,62,0
92.61215,92.71632,67,62,0
92.71632,92.82048,62,62,0
92.71632,92.82048,59,62,0
92.82048,92.92465,67,62,0
92.92465,93.02882,63,62,0
92.92465,93.02882,60,62,0
93.02882,93.13298,67,62,0
93.13298,93.23715,65,62,0
93.13298,93.23715,59,62,0
93.23715,93.34132,67,62,0
93.34132,93.44548,63,62,0
93.34132,93.44548,60,62,0
93.44548,93.54965,67,62,0
93.54965,93.65382,55,62,0
93.65382,93.75798,67,62,0
93.75798,93.86215,63,62,0
93.75798,93.86215,60,62,0
93.86215,93.96632,67,62,0
93.96632,94.07049,55,62,0
94.07049,94.17465,67,62,0
94.17465,94.27882,63,62,0
94.17465,94.27882,60,62,0
94.27882,94.38299,67,62,0
94.38299,94.48715,55,62,0
94.48715,94.59132,67,62,0
94.59132,94.69549,63,49,0
94.59132,94.69549,60,49,0
94.69549,94.79965,68,49,0
94.79965,94.90382,56,49,0
94.90382,95.00799,68,49,0
95.00799,95.11215,63,49,0
95.00799,95.11215,60,49,0
95.11215,95.21632,68,49,0
95.21632,95.32049,56,49,0
95.32049,95.42465,68,49,0
95.42465,95.52882,63,49,0
95.42465,95.52882,60,49,0
95.52882,95.63299,68,49,0
95.63299,95.73715,56,49,0
95.73715,95.84132,68,49,0
95.84132,95.94549,63,36,0
95.84132,95.94549,60,36,0
95.94549,96.04965,69,36,0
96.04965,96.15382,57,36,0
96.15382,96.25799,69,36,0
96.25799,96.36215,63,36,0
96.25799,96.36215,60,36,0
96.36215,96.46632,69,36,0
96.46632,96.57049,57,36,0
96.57049,96.67465,69,36,0
96.67465,96.77882,63,36,0
96.67465,96.77882,60,36,0
96.77882,96.88299,69,36,0
96.88299,96.98715,57,36,0
96.98715,97.09132,69,36,0
97.09132,97.19549,63,36,0
97.09132,97.19549,60,36,0
97.19549,97.29965,69,36,0
97.29965,97.403824,57,36,0
97.403824,97.50799,69,36,0
97.50799,97.61215,63,49,0
97.50799,97.61215,60,49,0
97.61215,97.716324,69,49,0
97.716324,97.82049,57,49,0
97.82049,97.92465,69,49,0
97.92465,98.028824,63,62,0
97.92465,98.028824,60,62,0
98.028824,98.13299,69,62,0
98.13299,98.23715,57,62,0
98.23715,98.341324,69,62,0
98.341324,98.44549,62,75,0
98.341324,98.44549,58,75,0
98.44549,98.54965,70,75,0
98.54965,98.653824,53,75,0
98.653824,98.75799,65,75,0
98.75799,98.86215,58,75,0
98.86215,98.966324,65,75,0
98.966324,99.07049,60,75,0
99.07049,99.17465,65,75,0
99.17465,99.278824,62,75,0
99.278824,99.38299,65,75,0
99.38299,99.48715,63,75,0
99.48715,99.591324,65,75,0
99.591324,99.69549,62,75,0
99.69549,99.79965,65,75,0
99.79965,99.903824,53,36,0
99.903824,100.00799,65,36,0
100.00799,100.11215,58,36,0
100.11215,100.216324,65,36,0
100.216324,100.32049,60,36,0
100.32049,100.42466,65,36,0
100.42466,100.528824,62,36,0
100.528824,100.63299,65,36,0
100.63299,100.73716,63,36,0
100.73716,100.841324,65,36,0
100.841324,100.94549,62,36,0
100.94549,101.04966,65,36,0
101.04966,101.153824,53,75,0
101.153824,101.25799,65,75,0
101.25799,101.36216,58,75,0
101.36216,101.466324,65,75,0
101.466324,101.57049,60,75,0
101.57049,101.67466,65,75,0
101.67466,101.778824,62,75,0
101.778824,101.88299,65,75,0
101.88299,101.98716,63,75,0
101.98716,102.091324,65,75,0
102.091324,102.19549,62,75,0
102.19549,102.29966,65,75,0
102.29966,102.403824,53,36,0
102.403824,102.50799,65,36,0
102.50799,102.61216,58,36,0
102.61216,102.716324,65,36,0
102.716324,102.82049,60,36,0
102.82049,102.92466,65,36,0
102.92466,103.028824,62,36,0
103.028824,103.13299,65,36,0
103.13299,103.23716,63,36,0
103.23716,103.341324,65,36,0
103.341324,103.757996,62,36,0
103.341324,103.757996,58,36,0
105.841324,106.882996,52,75,0
105.841324,106.882996,43,75,0
105.841324,106.882996,46,75,0
105.841324,106.882996,49,75,0
107.09133,107.195496,57,114,0
107.195496,107.29966,45,114,0
107.29966,107.40383,48,114,0
107.40383,107.507996,51,114,0
107.507996,107.61216,53,114,0
107.61216,107.71633,57,114,0
107.71633,107.820496,60,114,0
107.820496,107.92466,65,114,0
107.92466,107.945496,69,114,0
108.34133,108.54966,70,49,0
108.54966,108.757996,63,49,0
108.757996,109.17466,65,49,0
109.17466,109.59133,63,49,0
109.17466,109.59133,53,49,0
109.59133,109.695496,46,36,0
109.695496,109.79966,58,36,0
109.79966,109.90383,50,36,0
109.90383,110.007996,58,36,0
110.007996,110.11217,53,36,0
110.11217,110.21633,58,36,0
110.21633,110.320496,56,36,0
110.320496,110.42467,58,36,0
110.42467,110.52883,53,36,0
110.52883,110.632996,58,36,0
110.632996,110.73717,50,36,0
110.73717,110.84133,58,36,0
110.84133,110.945496,46,36,0
110.945496,111.04967,58,36,0
111.04967,111.15383,50,36,0
111.15383,111.257996,58,36,0
111.257996,111.36217,53,36,0
111.36217,111.46633,58,36,0
111.46633,111.570496,56,36,0
111.570496,111.67467,58,36,0
111.67467,111.77883,53,36,0
111.77883,111.882996,58,36,0
111.882996,111.98717,50,36,0
111.98717,112.09133,58,36,0
112.09133,112.195496,46,36,0
112.195496,112.29967,58,36,0
112.29967,112.40383,51,36,0
112.40383,112.507996,58,36,0
112.507996,112.61217,55,36,0
112.61217,112.71633,58,36,0
112.71633,112.820496,57,36,0
112.820496,112.92467,58,36,0
112.92467,113.02883,55,36,0
113.02883,113.133,58,36,0
113.133,113.23717,51,36,0
113.23717,113.34133,58,36,0
113.34133,113.4455,46,36,0
113.4455,113.54967,58,36,0
113.54967,113.65383,51,36,0
113.65383,113.758,58,36,0
113.758,113.86217,55,36,0
113.86217,113.96633,58,36,0
113.96633,114.0705,57,36,0
114.0705,114.17467,58,36,0
114.17467,114.27883,55,36,0
114.27883,114.383,58,36,0
114.383,114.48717,51,36,0
114.48717,114.59133,58,36,0
114.59133,114.6955,46,36,0
114.6955,114.79967,57,36,0
114.79967,114.90383,48,36,0
114.90383,115.008,57,36,0
115.008,115.11217,51,36,0
115.11217,115.21633,57,36,0
115.21633,115.3205,54,36,0
115.3205,115.42467,57,36,0
115.42467,115.52883,51,36,0
115.52883,115.633,57,36,0
115.633,115.73717,48,36,0
115.73717,115.84133,57,36,0
115.84133,115.9455,46,36,0
115.9455,116.04967,58,36,0
116.04967,116.15383,50,36,0
116.15383,116.258,58,36,0
116.258,116.36217,53,36,0
116.36217,116.46634,58,36,0
116.46634,116.5705,57,36,0
116.5705,116.67467,58,36,0
116.67467,116.77884,53,36,0
116.77884,116.883,58,36,0
116.883,116.98717,50,36,0
116.98717,117.09134,58,36,0
117.09134,117.508,46,36,0
117.09134,117.508,34,36,0
117.508,117.92467,38,36,0
117.92467,118.34134,41,36,0
118.34134,118.758,46,62,0
118.758,119.17467,50,36,0
119.59134,120.008,34,36,0
120.008,120.424675,39,36,0
120.424675,120.84134,43,36,0
120.84134,121.258,46,62,0
121.258,121.674675,51,36,0
122.09134,122.612175,54,88,0
122.612175,122.71634,51,36,0
122.71634,122.82051,48,36,0
122.82051,122.924675,45,36,0
122.924675,123.02884,42,36,0
123.02884,123.13301,39,36,0
123.13301,123.237175,36,36,0
123.237175,123.34134,33,36,0
123.34134,123.75801,34,36,0
123.96634,123.987175,34,62,0
124.174675,124.19551,36,36,0
124.38301,124.40384,38,36,0
124.59134,125.00801,39,36,0
125.21634,125.237175,39,62,0
125.424675,125.44551,41,36,0
125.63301,125.65384,42,36,0
125.84135,126.25801,41,49,0
126.46635,126.487175,51,75,0
126.674675,126.69551,53,49,0
126.88301,126.90385,41,49,0
127.09135,127.50801,46,62,0
127.71635,127.737175,46,101,0
127.924675,127.94551,48,75,0
128.13301,128.15384,50,75,0
128.34134,128.75801,51,75,0
128.96634,128.98718,51,101,0
129.17468,129.19551,53,75,0
129.38301,129.40384,54,75,0
129.59134,130.01245,53,75,0
130.22984,130.25206,63,101,0
130.45206,130.47496,65,75,0
130.68106,130.7045,53,75,0
130.91544,131.40134,58,75,0
131.40134,132.41829,89,101,0
132.41829,132.92677,53,36,0
133.181,133.20644,63,62,0
133.43524,133.46066,65,36,0
133.68948,133.7149,53,36,0
133.94373,134.4522,58,36,0
134.4522,135.46915,77,62,0
135.46915,135.97762,53,36,0
136.23186,136.25728,51,62,0
136.4861,136.51152,53,36,0
136.74033,136.76575,41,36,0
136.99457,137.24881,46,36,0
137.50304,137.75728,53,36,0
138.01152,138.26576,50,36,0
138.51999,138.77423,46,36,0
139.02847,139.2827,41,36,0
139.53694,139.79118,38,36,0
140.04543,142.07932,34,36,0
142.5878,143.09627,46,36,0
143.09627,143.51294,43,36,0
143.51294,143.9296,46,36,0
143.9296,144.34627,51,36,0
144.34627,145.1796,55,36,0
145.12752,145.1796,55,36,0
145.1796,145.59627,58,36,0
146.01294,146.05461,56,36,0
146.01294,146.05461,53,36,0
146.01294,146.05461,46,36,0
146.42961,146.47127,56,36,0
146.42961,146.47127,53,36,0
146.42961,146.47127,46,36,0
146.84627,147.26294,56,36,0
146.84627,147.26294,53,36,0
146.84627,147.26294,46,36,0
148.09627,149.34627,51,36,0
148.09627,149.34627,43,36,0
149.34627,149.76294,51,36,0
149.76294,150.38794,52,62,0
150.38794,150.59627,53,36,0
150.59627,151.42961,55,36,0
150.59627,151.42961,46,36,0
151.42961,151.84627,57,62,0
151.84627,152.26294,58,36,0
151.42961,152.26294,46,54,0
152.67961,153.09628,58,36,0
153.09628,153.51294,55,36,0
153.51294,153.92961,58,36,0
153.92961,154.34628,63,36,0
154.34628,155.17961,67,36,0
155.12753,155.17961,67,36,0
155.17961,155.59628,70,62,0
156.01294,156.05461,68,36,0
156.01294,156.05461,65,36,0
156.01294,156.05461,58,36,0
156.42961,156.47128,68,36,0
156.42961,156.47128,65,36,0
156.42961,156.47128,58,36,0
156.84628,157.26294,68,36,0
156.84628,157.26294,65,36,0
156.84628,157.26294,58,36,0
158.09628,159.34628,63,36,0
158.09628,159.34628,55,36,0
159.34628,159.76295,63,36,0
159.76295,160.38795,64,62,0
160.38795,160.59628,65,36,0
160.59628,161.42961,67,36,0
160.59628,161.42961,58,36,0
161.42961,161.84628,68,62,0
161.42961,161.84628,58,54,0
161.84628,162.26295,67,36,0
161.84628,162.26295,63,36,0
162.36711,162.4192,75,36,0
162.4192,162.47128,77,36,0
162.47128,162.67961,75,49,0
162.67961,162.88795,74,49,0
162.88795,163.09628,75,49,0
163.0442,163.09628,75,49,0
163.09628,163.30461,79,49,0
163.30461,163.51295,77,49,0
163.51295,163.72128,77,49,0
163.72128,163.92961,75,49,0
163.92961,164.13795,75,49,0
164.13795,164.34628,74,49,0
164.34628,164.55461,74,36,0
164.55461,164.76295,72,36,0
164.76295,164.97128,72,36,0
164.97128,165.17963,70,36,0
165.17963,165.38795,70,36,0
165.38795,165.59628,69,36,0
165.59628,166.84628,75,36,0
165.59628,166.84628,72,36,0
165.59628,166.84628,65,36,0
166.84628,168.09628,74,62,0
166.84628,168.09628,70,54,0
168.09628,168.30463,75,36,0
168.09628,168.30463,63,36,0
168.51295,168.92963,67,36,0
168.51295,168.92963,58,36,0
168.92963,169.34628,68,36,0
168.92963,169.34628,59,36,0
169.34628,169.76295,67,36,0
169.34628,169.76295,60,36,0
169.86713,169.9192,63,36,0
169.9192,169.97128,65,36,0
169.97128,170.17963,63,49,0
170.17963,170.38795,62,49,0
170.38795,170.59628,63,49,0
170.5442,170.59628,63,49,0
170.59628,170.80463,67,49,0
170.80463,171.01295,65,49,0
171.01295,171.22128,65,49,0
171.22128,171.42963,63,49,0
171.42963,171.63795,63,49,0
171.63795,171.8463,62,49,0
171.8463,172.05463,62,36,0
172.05463,172.26295,60,36,0
172.26295,172.4713,60,36,0
172.4713,172.67963,58,36,0
172.67963,172.88795,58,36,0
172.88795,173.0963,57,36,0
173.0963,174.3463,63,36,0
173.0963,174.3463,60,36,0
173.0963,174.3463,53,36,0
174.3463,175.5963,62,36,0
174.3463,175.5963,58,36,0
175.5963,175.80463,63,36,0
175.5963,175.80463,51,36,0
176.01295,176.42963,55,36,0
176.42963,176.8463,56,36,0
176.8463,176.95045,51,36,0
176.95045,177.05463,58,36,0
177.05463,177.1588,54,36,0
177.1588,177.26295,58,36,0
177.26295,177.36713,51,36,0
177.36713,177.4713,58,36,0
177.4713,177.57545,54,36,0
177.57545,177.67963,58,36,0
177.67963,177.7838,51,49,0
177.7838,177.88797,58,49,0
177.88797,177.99213,54,49,0
177.99213,178.0963,58,49,0
178.0963,178.20047,51,75,0
178.20047,178.30463,58,49,0
178.30463,178.4088,54,49,0
178.4088,178.51297,58,49,0
178.51297,178.61713,51,49,0
178.61713,178.7213,58,49,0
178.7213,178.82547,54,49,0
178.82547,178.92963,58,49,0
178.92963,179.0338,51,49,0
179.0338,179.13797,58,49,0
179.13797,179.24213,54,49,0
179.24213,179.3463,58,49,0
179.3463,179.45047,49,62,0
179.45047,179.55463,58,62,0
179.55463,179.6588,54,62,0
179.55463,179.6588,51,62,0
179.6588,179.76297,58,62,0
179.76297,179.86713,49,62,0
179.86713,179.9713,58,62,0
179.9713,180.07547,54,62,0
179.9713,180.07547,51,62,0
180.07547,180.17963,58,62,0
180.17963,180.2838,49,62,0
180.2838,180.38797,58,62,0
180.38797,180.49213,54,62,0
180.38797,180.49213,51,62,0
180.49213,180.5963,58,62,0
180.5963,180.70047,49,62,0
180.70047,180.80463,58,62,0
180.80463,180.9088,54,62,0
180.80463,180.9088,51,62,0
180.9088,181.01297,58,62,0
181.01297,181.11713,49,62,0
181.11713,181.2213,58,62,0
181.2213,181.32547,54,62,0
181.2213,181.32547,51,62,0
181.32547,181.42963,58,62,0
181.42963,181.5338,49,62,0
181.5338,181.63797,58,62,0
181.63797,181.74213,54,62,0
181.63797,181.74213,51,62,0
181.74213,181.8463,58,62,0
181.8463,181.95047,47,75,0
181.95047,182.05463,59,75,0
182.05463,182.1588,54,75,0
182.05463,182.1588,51,75,0
182.1588,182.26297,59,75,0
182.26297,182.36713,47,75,0
182.36713,182.4713,59,75,0
182.4713,182.57547,54,75,0
182.4713,182.57547,51,75,0
182.57547,182.67963,59,75,0
182.67963,182.7838,47,75,0
182.7838,182.88797,59,75,0
182.88797,182.99213,54,75,0
182.88797,182.99213,51,75,0
182.99213,183.0963,59,75,0
183.0963,183.20047,47,75,0
183.20047,183.30463,59,75,0
183.30463,183.4088,54,75,0
183.30463,183.4088,51,75,0
183.4088,183.51297,59,75,0
183.51297,183.61713,47,75,0
183.61713,183.7213,59,75,0
183.7213,183.82547,54,75,0
183.7213,183.82547,51,75,0
183.82547,183.92963,59,75,0
183.92963,184.0338,46,75,0
184.0338,184.13797,58,75,0
184.13797,184.24214,54,75,0
184.13797,184.24214,51,75,0
184.24214,184.3463,58,75,0
184.3463,184.45047,45,88,0
184.45047,184.55464,57,88,0
184.55464,184.6588,54,88,0
184.55464,184.6588,51,88,0
184.6588,184.76297,57,88,0
184.76297,184.86714,45,88,0
184.86714,184.9713,57,88,0
184.9713,185.07547,54,88,0
184.9713,185.07547,51,88,0
185.07547,185.17964,57,88,0
185.17964,185.2838,45,75,0
185.2838,185.38797,57,75,0
185.38797,185.49214,54,75,0
185.38797,185.49214,51,75,0
185.49214,185.5963,57,75,0
185.5963,185.70047,46,75,0
185.70047,185.80464,48,75,0
185.80464,185.9088,50,75,0
185.9088,186.01297,51,75,0
186.01297,186.11714,53,75,0
186.11714,186.2213,55,75,0
186.2213,186.32547,57,75,0
186.32547,186.42964,58,75,0
186.42964,186.5338,60,75,0
186.5338,186.63797,62,75,0
186.63797,186.74214,63,75,0
186.74214,186.8463,65,75,0
186.8463,187.26297,66,75,0
186.8463,187.26297,58,75,0
187.26297,187.67964,65,75,0
187.26297,187.67964,58,75,0
187.67964,188.0963,63,75,0
187.67964,188.0963,58,75,0
188.0963,188.51297,62,75,0
188.0963,188.51297,58,75,0
189.13797,189.1588,57,101,0
189.3463,189.55464,58,75,0
189.55464,189.6588,57,75,0
189.6588,189.76297,55,75,0
189.76297,189.86714,53,75,0
189.86714,189.9713,51,75,0
189.9713,190.07547,50,75,0
190.07547,190.17964,48,75,0
190.17964,190.20047,46,75,0
190.38797,190.40881,45,101,0
190.59631,191.01297,46,101,0
193.31592,193.33798,46,36,0
193.53651,193.55995,62,36,0
193.53651,193.55995,53,36,0
193.77089,193.79588,62,36,0
193.77089,193.79588,58,36,0
194.02089,194.04588,62,36,0
194.02089,194.04588,53,36,0
194.27089,194.29588,62,36,0
194.27089,194.29588,58,36,0
194.52089,194.54588,62,36,0
194.52089,194.54588,53,36,0
194.77089,194.79172,41,36,0
194.97922,195.00005,60,36,0
194.97922,195.00005,53,36,0
195.18755,195.20839,60,36,0
195.18755,195.20839,57,36,0
195.39589,195.41672,60,36,0
195.39589,195.41672,53,36,0
195.60422,195.62505,60,36,0
195.60422,195.62505,57,36,0
195.81255,195.83339,60,36,0
195.81255,195.83339,53,36,0
196.02089,196.04172,41,36,0
196.22922,196.25005,60,36,0
196.22922,196.25005,53,36,0
196.43755,196.45839,60,36,0
196.43755,196.45839,57,36,0
196.64589,196.66672,60,36,0
196.64589,196.66672,53,36,0
196.85422,196.87505,62,36,0
196.85422,196.87505,57,36,0
197.06256,197.08339,63,36,0
197.06256,197.08339,53,36,0
197.27089,197.29172,46,36,0
197.47922,197.50006,62,36,0
197.47922,197.50006,57,36,0
197.68756,197.70839,62,36,0
197.68756,197.70839,58,36,0
197.89589,197.91672,62,36,0
197.89589,197.91672,53,36,0
198.10422,198.12506,62,36,0
198.10422,198.12506,58,36,0
198.31256,198.33339,62,36,0
198.31256,198.33339,53,36,0
198.52089,198.72922,50,36,0
198.72922,198.93756,65,36,0
198.72922,198.93756,58,36,0
198.93756,199.14589,68,36,0
198.93756,199.14589,65,36,0
199.14589,199.35422,65,36,0
199.14589,199.35422,58,36,0
199.35422,199.56256,68,36,0
199.35422,199.56256,65,36,0
199.56256,199.77089,65,36,0
199.56256,199.77089,58,36,0
199.77089,199.97922,51,36,0
199.97922,200.18756,63,36,0
199.97922,200.18756,58,36,0
200.18756,200.39589,67,36,0
200.18756,200.39589,63,36,0
200.39589,200.60422,63,36,0
200.39589,200.60422,59,36,0
200.60422,200.81256,63,36,0
200.60422,200.81256,60,36,0
200.81256,201.02089,67,36,0
200.81256,201.02089,63,36,0
201.02089,201.22922,53,36,0
201.22922,201.43756,62,36,0
201.22922,201.43756,58,36,0
201.43756,201.64589,65,36,0
201.43756,201.64589,62,36,0
201.64589,201.85422,62,36,0
201.64589,201.85422,58,36,0
201.85422,202.06256,65,36,0
201.85422,202.06256,63,36,0
202.06256,202.27089,63,36,0
202.06256,202.27089,57,36,0
202.27089,202.47922,46,36,0
202.47922,202.68756,62,36,0
202.47922,202.68756,58,36,0
202.68756,202.89589,65,36,0
202.68756,202.89589,62,36,0
202.89589,203.10422,62,36,0
202.89589,203.10422,53,36,0
203.10422,203.31256,61,36,0
203.10422,203.31256,55,36,0
203.31256,203.52089,60,36,0
203.31256,203.52089,57,36,0
203.52089,203.54173,46,36,0
203.72923,203.75006,62,36,0
203.72923,203.75006,53,36,0
203.93756,203.95839,62,36,0
203.93756,203.95839,58,36,0
204.14589,204.16673,62,36,0
204.14589,204.16673,53,36,0
204.35423,204.37506,62,36,0
204.35423,204.37506,58,36,0
204.56256,204.58339,62,36,0
204.56256,204.58339,53,36,0
204.77089,204.79173,41,36,0
204.97923,205.00006,60,36,0
204.97923,205.00006,53,36,0
205.18756,205.20839,60,36,0
205.18756,205.20839,57,36,0
205.39589,205.41673,60,36,0
205.39589,205.41673,53,36,0
205.60423,205.62506,60,36,0
205.60423,205.62506,57,36,0
205.81256,205.83339,60,36,0
205.81256,205.83339,53,36,0
206.02089,206.04173,41,36,0
206.22923,206.25006,60,36,0
206.22923,206.25006,53,36,0
206.43756,206.45839,60,36,0
206.43756,206.45839,57,36,0
206.64589,206.66673,60,36,0
206.64589,206.66673,53,36,0
206.85423,206.87506,62,36,0
206.85423,206.87506,57,36,0
207.06256,207.08339,63,36,0
207.06256,207.08339,53,36,0
207.27089,207.29173,46,36,0
207.47923,207.50006,62,36,0
207.47923,207.50006,57,36,0
207.68756,207.70839,62,36,0
207.68756,207.70839,58,36,0
207.89589,207.91673,62,36,0
207.89589,207.91673,53,36,0
208.10423,208.12506,62,36,0
208.10423,208.12506,58,36,0
208.31256,208.33339,62,36,0
208.31256,208.33339,53,36,0
208.52089,208.72923,50,36,0
208.72923,208.93756,65,36,0
208.72923,208.93756,58,36,0
208.93756,209.14589,68,36,0
208.93756,209.14589,65,36,0
209.14589,209.35423,65,36,0
209.14589,209.35423,58,36,0
209.35423,209.56256,68,36,0
209.35423,209.56256,65,36,0
209.56256,209.7709,65,36,0
209.56256,209.7709,58,36,0
209.7709,209.97923,51,36,0
209.97923,210.18756,63,36,0
209.97923,210.18756,58,36,0
210.18756,210.3959,67,36,0
210.18756,210.3959,63,36,0
210.3959,210.60423,63,36,0
210.3959,210.60423,59,36,0
210.60423,210.81256,63,36,0
210.60423,210.81256,60,36,0
210.81256,211.0209,67,36,0
210.81256,211.0209,63,36,0
211.0209,211.22923,53,36,0
211.22923,211.43756,62,36,0
211.22923,211.43756,58,36,0
211.43756,211.6459,65,36,0
211.43756,211.6459,62,36,0
211.6459,211.85423,62,36,0
211.6459,211.85423,58,36,0
211.85423,212.06256,65,36,0
211.85423,212.06256,63,36,0
212.06256,212.2709,63,36,0
212.06256,212.2709,57,36,0
212.2709,212.47923,62,36,0
212.2709,212.47923,58,36,0
212.47923,212.5834,70,75,0
212.5834,212.68756,72,75,0
212.68756,212.79173,74,75,0
212.79173,212.8959,72,75,0
212.8959,213.00006,70,75,0
213.00006,213.10423,69,75,0
213.10423,213.2084,67,75,0
213.2084,213.31256,65,75,0
213.31256,213.41673,63,75,0
213.41673,213.5209,62,75,0
213.5209,213.62506,60,75,0
213.62506,213.72923,58,75,0
213.72923,213.8334,57,75,0
213.8334,213.93756,55,75,0
213.93756,214.04173,53,75,0
214.04173,214.1459,51,75,0
214.1459,214.25006,50,75,0
214.25006,214.35423,48,75,0
214.35423,214.4584,46,75,0
214.4584,214.56256,45,75,0
214.56256,214.66673,43,75,0
214.66673,214.7709,41,75,0
214.7709,214.97923,40,75,0
215.18756,215.60423,64,101,0
215.18756,215.60423,60,101,0
215.18756,215.60423,52,101,0
216.0209,216.22923,60,36,0
216.0209,216.22923,52,36,0
216.0209,216.22923,55,36,0
216.0209,216.22923,58,36,0
216.43758,216.6459,60,36,0
216.43758,216.6459,52,36,0
216.43758,216.6459,55,36,0
216.43758,216.6459,58,36,0
216.85423,217.06258,60,36,0
216.85423,217.06258,52,36,0
216.85423,217.06258,55,36,0
216.85423,217.06258,58,36,0
217.2709,217.47923,61,36,0
217.2709,217.47923,58,36,0
217.2709,217.47923,53,36,0
217.68758,217.8959,61,36,0
217.68758,217.8959,58,36,0
217.68758,217.8959,53,36,0
218.10423,218.31258,61,36,0
218.10423,218.31258,58,36,0
218.10423,218.31258,53,36,0
218.5209,218.72923,61,49,0
218.5209,218.72923,58,49,0
218.5209,218.72923,54,49,0
218.93758,219.1459,61,49,0
218.93758,219.1459,58,49,0
218.93758,219.1459,54,49,0
219.35423,219.56258,61,36,0
219.35423,219.56258,58,36,0
219.35423,219.56258,55,36,0
219.7709,219.97923,65,36,0
219.7709,219.97923,61,36,0
219.7709,219.97923,56,36,0
220.18758,220.3959,65,36,0
220.18758,220.3959,61,36,0
220.18758,220.3959,56,36,0
220.60423,220.81258,66,36,0
220.60423,220.81258,60,36,0
220.60423,220.81258,56,36,0
221.0209,221.43758,65,75,0
221.0209,221.43758,61,75,0
221.80215,221.85423,53,75,0
221.6459,221.85423,49,75,0
221.85423,222.06258,51,75,0
222.06258,222.2709,49,75,0
222.2709,222.47925,48,75,0
222.47925,222.8959,56,101,0
222.8959,223.10425,54,75,0
223.10425,223.31258,53,75,0
223.31258,223.5209,51,75,0
223.5209,223.72925,49,75,0
223.72925,223.75008,37,75,0
224.30215,224.35425,53,75,0
224.1459,224.35425,49,75,0
224.35425,224.56258,51,75,0
224.56258,224.7709,49,75,0
224.7709,224.97925,48,75,0
224.97925,225.3959,56,101,0
225.3959,225.60425,54,75,0
225.60425,225.81258,53,75,0
225.81258,226.0209,51,75,0
226.0209,226.22925,49,75,0
226.22925,226.25008,37,75,0
226.80215,226.85425,53,75,0
226.6459,226.85425,49,75,0
226.85425,227.06258,51,75,0
227.06258,227.2709,49,75,0
227.2709,227.47925,50,88,0
227.47925,227.8959,59,114,0
227.8959,228.10425,56,88,0
228.10425,228.31258,53,88,0
228.31258,228.5209,51,88,0
228.5209,228.93758,51,88,0
228.93758,229.35425,52,75,0
229.35425,229.77092,53,75,0
229.77092,231.02092,55,49,0
231.02092,231.12508,63,62,0
231.02092,231.12508,60,62,0
231.12508,231.22925,67,62,0
231.22925,231.33342,55,62,0
231.33342,231.43758,67,62,0
231.43758,231.54175,63,62,0
231.43758,231.54175,60,62,0
231.54175,231.64592,67,62,0
231.64592,231.75008,55,62,0
231.75008,231.85425,67,62,0
231.85425,231.95842,63,62,0
231.85425,231.95842,60,62,0
231.95842,232.06258,67,62,0
232.06258,232.16675,55,62,0
232.16675,232.27092,67,62,0
232.27092,232.37508,65,62,0
232.27092,232.37508,62,62,0
232.37508,232.47925,67,62,0
232.47925,232.58342,55,62,0
232.58342,232.68758,67,62,0
232.68758,232.79175,65,62,0
232.68758,232.79175,62,62,0
232.79175,232.89592,67,62,0
232.89592,233.00008,62,62,0
232.89592,233.00008,59,62,0
233.00008,233.10425,67,62,0
233.10425,233.20842,63,62,0
233.10425,233.20842,60,62,0
233.20842,233.31258,67,62,0
233.31258,233.41675,65,62,0
233.31258,233.41675,59,62,0
233.41675,233.52092,67,62,0
233.52092,233.62508,63,62,0
233.52092,233.62508,60,62,0
233.62508,233.72925,67,62,0
233.72925,233.83342,55,62,0
233.83342,233.93758,67,62,0
233.93758,234.04175,63,62,0
233.93758,234.04175,60,62,0
234.04175,234.14592,67,62,0
234.14592,234.25008,55,62,0
234.25008,234.35425,67,62,0
234.35425,234.45842,63,62,0
234.35425,234.45842,60,62,0
234.45842,234.56258,67,62,0
234.56258,234.66675,55,62,0
234.66675,234.77092,67,62,0
234.77092,234.87508,65,62,0
234.77092,234.87508,62,62,0
234.87508,234.97925,67,62,0
234.97925,235.08342,55,62,0
235.08342,235.18759,67,62,0
235.18759,235.29175,65,62,0
235.18759,235.29175,62,62,0
235.29175,235.39592,67,62,0
235.39592,235.50009,62,62,0
235.39592,235.50009,59,62,0
235.50009,235.60425,67,62,0
235.60425,235.70842,63,62,0
235.60425,235.70842,60,62,0
235.70842,235.81259,67,62,0
235.81259,235.91675,65,62,0
235.81259,235.91675,59,62,0
235.91675,236.02092,67,62,0
236.02092,236.12509,63,62,0
236.02092,236.12509,60,62,0
236.12509,236.22925,67,62,0
236.22925,236.33342,55,62,0
236.33342,236.43759,67,62,0
236.43759,236.54175,63,62,0
236.43759,236.54175,60,62,0
236.54175,236.64592,67,62,0
236.64592,236.75009,55,62,0
236.75009,236.85425,67,62,0
236.85425,236.95842,63,62,0
236.85425,236.95842,60,62,0
236.95842,237.06259,67,62,0
237.06259,237.16675,55,62,0
237.16675,237.27092,67,62,0
237.27092,237.37509,63,49,0
237.27092,237.37509,60,49,0
237.37509,237.47925,68,49,0
237.47925,237.58342,56,49,0
237.58342,237.68759,68,49,0
237.68759,237.79175,63,49,0
237.68759,237.79175,60,49,0
237.79175,237.89592,68,49,0
237.89592,238.00009,56,49,0
238.00009,238.10425,68,49,0
238.10425,238.20842,63,49,0
238.10425,238.20842,60,49,0
238.20842,238.31259,68,49,0
238.31259,238.41675,56,49,0
238.41675,238.52092,68,49,0
238.52092,238.62509,63,36,0
238.52092,238.62509,60,36,0
238.62509,238.72925,69,36,0
238.72925,238.83342,57,36,0
238.83342,238.93759,69,36,0
238.93759,239.04175,63,36,0
238.93759,239.04175,60,36,0
239.04175,239.14592,69,36,0
239.14592,239.25009,57,36,0
239.25009,239.35425,69,36,0
239.35425,239.45842,63,36,0
239.35425,239.45842,60,36,0
239.45842,239.56259,69,36,0
239.56259,239.66675,57,36,0
239.66675,239.77092,69,36,0
239.77092,239.87509,63,36,0
239.77092,239.87509,60,36,0
239.87509,239.97925,69,36,0
239.97925,240.08342,57,36,0
240.08342,240.18759,69,36,0
240.18759,240.29175,63,49,0
240.18759,240.29175,60,49,0
240.29175,240.39592,69,49,0
240.39592,240.50009,57,49,0
240.50009,240.60425,69,49,0
240.60425,240.70842,63,62,0
240.60425,240.70842,60,62,0
240.70842,240.81259,69,62,0
240.81259,240.91675,57,62,0
240.91675,241.02092,69,62,0
241.02092,241.12509,62,75,0
241.02092,241.12509,58,75,0
241.12509,241.22925,70,75,0
241.22925,241.33342,53,75,0
241.33342,241.43759,65,75,0
241.43759,241.54176,58,75,0
241.54176,241.64592,65,75,0
241.64592,241.75009,60,75,0
241.75009,241.85426,65,75,0
241.85426,241.95842,62,75,0
241.95842,242.06259,65,75,0
242.06259,242.16676,63,75,0
242.16676,242.27092,65,75,0
242.27092,242.37509,62,75,0
242.37509,242.47926,65,75,0
242.47926,242.58342,53,36,0
242.58342,242.68759,65,36,0
242.68759,242.79176,58,36,0
242.79176,242.89592,65,36,0
242.89592,243.00009,60,36,0
243.00009,243.10426,65,36,0
243.10426,243.20842,62,36,0
243.20842,243.31259,65,36,0
243.31259,243.41676,63,36,0
243.41676,243.52092,65,36,0
243.52092,243.62509,62,36,0
243.62509,243.72926,65,36,0
243.72926,243.83342,53,75,0
243.83342,243.93759,65,75,0
243.93759,244.04176,58,75,0
244.04176,244.14592,65,75,0
244.14592,244.25009,60,75,0
244.25009,244.35426,65,75,0
244.35426,244.45842,62,75,0
244.45842,244.56259,65,75,0
244.56259,244.66676,63,75,0
244.66676,244.77092,65,75,0
244.77092,244.87509,62,75,0
244.87509,244.97926,65,75,0
244.97926,245.08342,53,36,0
245.08342,245.18759,65,36,0
245.18759,245.29176,58,36,0
245.29176,245.39592,65,36,0
245.39592,245.50009,60,36,0
245.50009,245.60426,65,36,0
245.60426,245.70842,62,36,0
245.70842,245.81259,65,36,0
245.81259,245.91676,63,36,0
245.91676,246.02092,65,36,0
246.02092,246.43759,62,36,0
246.02092,246.43759,58,36,0
248.52094,249.56259,52,75,0
248.52094,249.56259,43,75,0
248.52094,249.56259,46,75,0
248.52094,249.56259,49,75,0
249.77094,249.87509,57,114,0
249.87509,249.97926,45,114,0
249.97926,250.08344,48,114,0
250.08344,250.18759,51,114,0
250.18759,250.29176,53,114,0
250.29176,250.39594,57,114,0
250.39594,250.50009,60,114,0
250.50009,250.60426,65,114,0
250.60426,250.62509,69,114,0
251.02094,251.22926,70,49,0
251.22926,251.43759,63,49,0
251.43759,251.85426,65,49,0
251.85426,252.27094,63,49,0
251.85426,252.27094,53,49,0
252.27094,252.37509,46,36,0
252.37509,252.47926,58,36,0
252.47926,252.58344,50,36,0
252.58344,252.68759,58,36,0
252.68759,252.79176,53,36,0
252.79176,252.89594,58,36,0
252.89594,253.00009,56,36,0
253.00009,253.10426,58,36,0
253.10426,253.20844,53,36,0
253.20844,253.31259,58,36,0
253.31259,253.41676,50,36,0
253.41676,253.52094,58,36,0
253.52094,253.62509,46,36,0
253.62509,253.72926,58,36,0
253.72926,253.83344,50,36,0
253.83344,253.93759,58,36,0
253.93759,254.04176,53,36,0
254.04176,254.14594,58,36,0
254.14594,254.2501,56,36,0
254.2501,254.35426,58,36,0
254.35426,254.45844,53,36,0
254.45844,254.5626,58,36,0
254.5626,254.66676,50,36,0
254.66676,254.77094,58,36,0
254.77094,254.8751,46,36,0
254.8751,254.97926,58,36,0
254.97926,255.08344,51,36,0
255.08344,255.1876,58,36,0
255.1876,255.29176,55,36,0
255.29176,255.39594,58,36,0
255.39594,255.5001,57,36,0
255.5001,255.60426,58,36,0
255.60426,255.70844,55,36,0
255.70844,255.8126,58,36,0
255.8126,255.91676,51,36,0
255.91676,256.02094,58,36,0
256.02094,256.1251,46,36,0
256.1251,256.22928,58,36,0
256.22928,256.33344,51,36,0
256.33344,256.4376,58,36,0
256.4376,256.54178,55,36,0
256.54178,256.64594,58,36,0
256.64594,256.7501,57,36,0
256.7501,256.85428,58,36,0
256.85428,256.95844,55,36,0
256.95844,257.0626,58,36,0
257.0626,257.16678,51,36,0
257.16678,257.27094,58,36,0
257.27094,257.3751,46,36,0
257.3751,257.47928,57,36,0
257.47928,257.58344,48,36,0
257.58344,257.6876,57,36,0
257.6876,257.79178,51,36,0
257.79178,257.89594,57,36,0
257.89594,258.0001,54,36,0
258.0001,258.10428,57,36,0
258.10428,258.20844,51,36,0
258.20844,258.3126,57,36,0
258.3126,258.41678,48,36,0
258.41678,258.52094,57,36,0
258.52094,258.6251,46,36,0
258.6251,258.72928,58,36,0
258.72928,258.83344,50,36,0
258.83344,258.9376,58,36,0
258.9376,259.04178,53,36,0
259.04178,259.14594,58,36,0
259.14594,259.2501,57,36,0
259.2501,259.35428,58,36,0
259.35428,259.45844,53,36,0
259.45844,259.5626,58,36,0
259.5626,259.66678,50,36,0
259.66678,259.77094,58,36,0
259.77094,260.1876,46,36,0
259.77094,260.1876,34,36,0
260.1876,260.60428,38,36,0
260.60428,261.02094,41,36,0
261.02094,261.4376,46,62,0
261.4376,261.85428,50,36,0
262.27094,262.6876,34,36,0
262.6876,263.10428,39,36,0
263.10428,263.52094,43,36,0
263.52094,263.93762,46,62,0
263.93762,264.35428,51,36,0
264.77094,265.29178,54,88,0
265.29178,265.39594,51,36,0
265.39594,265.50012,48,36,0
265.50012,265.60428,45,36,0
265.60428,265.70844,42,36,0
265.70844,265.81262,39,36,0
265.81262,265.91678,36,36,0
265.91678,266.02094,33,36,0
266.02094,266.43762,34,36,0
266.64594,266.66678,34,62,0
266.85428,266.87512,36,36,0
267.06262,267.08344,38,36,0
267.27094,267.68762,39,36,0
267.89594,267.91678,39,62,0
268.10428,268.12512,41,36,0
268.31262,268.33344,42,36,0
268.52094,268.93762,41,49,0
269.14594,269.16678,51,75,0
269.35428,269.37512,53,49,0
269.56262,269.58344,41,49,0
269.77094,270.18762,46,62,0
270.39594,270.41678,46,101,0
270.60428,270.62512,48,75,0
270.81262,270.83344,50,75,0
271.02094,271.43762,51,75,0
271.64594,271.66678,51,101,0
271.85428,271.87512,53,75,0
272.06262,272.08344,54,75,0
272.27094,272.69205,53,75,0
272.90942,272.93167,63,101,0
273.13165,273.15457,65,75,0
273.36066,273.3841,53,75,0
273.59503,274.08093,58,75,0
274.08093,275.0979,89,101,0
275.0979,275.60635,53,36,0
275.8606,275.88602,63,62,0
276.11484,276.14026,65,36,0
276.36908,276.3945,53,36,0
276.62332,277.1318,58,36,0
277.1318,278.14874,77,62,0
278.14874,278.65723,53,36,0
278.91147,278.9369,51,62,0
279.16568,279.19113,53,36,0
279.41992,279.44534,41,36,0
279.67416,279.9284,46,36,0
280.18265,280.4369,53,36,0
280.69113,280.94534,50,36,0
281.1996,281.45383,46,36,0
281.70807,281.9623,41,36,0
282.21655,282.4708,38,36,0
282.725,284.25046,34,36,0
284.25046,284.6671,34,36,0
285.50046,287.48233,43,36,0
285.50046,287.48233,31,36,0
287.899,288.10733,56,36,0
288.10733,288.31567,59,36,0
288.31567,288.73233,60,62,0
288.31567,288.73233,51,54,0
289.149,289.56567,55,36,0
289.149,289.56567,47,36,0
289.56567,289.98233,55,62,0
289.56567,289.98233,48,54,0
290.399,290.60733,53,36,0
290.60733,290.81567,57,36,0
290.81567,291.23233,58,62,0
290.81567,291.23233,50,54,0
291.649,292.06567,53,36,0
291.649,292.06567,45,36,0
292.06567,292.48233,53,36,0
292.06567,292.48233,46,36,0
293.524,293.54483,60,75,0
293.524,293.54483,58,75,0
293.524,293.54483,51,75,0
293.73233,293.75317,60,75,0
293.73233,293.75317,58,75,0
293.73233,293.75317,51,75,0
293.94067,293.9615,60,88,0
293.94067,293.9615,58,88,0
293.94067,293.9615,51,88,0
294.149,294.16983,60,88,0
294.149,294.16983,58,88,0
294.149,294.16983,51,88,0
294.35733,294.37817,60,88,0
294.35733,294.37817,58,88,0
294.35733,294.37817,51,88,0
294.56567,295.399,61,101,0
294.56567,295.399,58,101,0
294.56567,295.399,51,101,0
295.81567,296.23233,60,49,0
295.81567,296.23233,57,49,0
295.81567,296.23233,53,49,0
296.33652,296.44067,41,62,0
296.44067,296.54483,45,62,0
296.54483,296.64902,48,62,0
296.64902,296.75317,53,62,0
296.75317,296.85733,57,62,0
296.85733,296.96152,60,62,0
296.96152,297.06567,65,62,0
297.06567,297.48233,61,88,0
297.58652,297.69067,37,62,0
297.69067,297.79483,41,62,0
297.79483,297.89902,46,62,0
297.89902,298.00317,49,62,0
298.00317,298.10733,53,62,0
298.10733,298.21152,58,62,0
298.21152,298.31567,61,62,0
298.31567,298.73233,66,88,0
298.83652,298.94067,42,62,0
298.94067,299.04483,46,62,0
299.04483,299.14902,51,62,0
299.14902,299.25317,54,62,0
299.25317,299.35733,58,62,0
299.35733,299.46152,63,62,0
299.46152,299.56567,66,62,0
299.56567,299.98233,65,88,0
300.08652,300.19067,41,62,0
300.19067,300.29483,44,62,0
300.29483,300.39902,49,62,0
300.39902,300.50317,53,62,0
300.50317,300.60733,56,62,0
300.60733,300.71152,61,62,0
300.71152,300.81567,65,62,0
300.81567,301.23233,63,88,0
301.23233,301.33652,48,62,0
301.33652,301.44067,51,62,0
301.44067,301.54483,56,62,0
301.54483,301.64902,60,62,0
301.64902,301.75317,61,62,0
301.75317,301.85733,56,62,0
301.85733,301.96152,53,62,0
301.96152,302.06567,49,62,0
302.06567,302.27402,56,62,0
302.27402,302.48233,72,36,0
302.27402,302.48233,68,36,0
302.48233,302.69067,72,36,0
302.48233,302.69067,68,36,0
302.69067,302.89902,72,36,0
302.69067,302.89902,68,36,0
302.89902,303.10733,72,36,0
302.89902,303.10733,68,36,0
303.10733,303.31567,72,36,0
303.10733,303.31567,68,36,0
303.31567,303.52402,73,36,0
303.31567,303.52402,70,36,0
303.52402,303.73233,73,36,0
303.52402,303.73233,70,36,0
303.73233,303.94067,73,36,0
303.73233,303.94067,70,36,0
303.94067,304.14902,73,36,0
303.94067,304.14902,70,36,0
304.14902,304.35733,73,36,0
304.14902,304.35733,70,36,0
304.35733,304.56567,73,36,0
304.35733,304.56567,70,36,0
304.56567,304.77402,75,36,0
304.56567,304.77402,72,36,0
304.77402,304.98233,75,36,0
304.77402,304.98233,72,36,0
304.98233,305.19067,75,36,0
304.98233,305.19067,72,36,0
305.19067,305.39902,75,36,0
305.19067,305.39902,72,36,0
305.60733,305.81567,68,36,0
305.60733,305.81567,60,36,0
305.81567,306.23233,68,36,0
305.81567,306.23233,61,36,0
306.44067,306.64902,68,36,0
306.64902,307.06567,69,36,0
307.06567,307.48233,69,36,0
307.06567,307.48233,65,36,0
307.48233,307.69067,70,36,0
307.48233,307.69067,58,36,0
308.31567,308.62817,73,75,0
308.31567,308.62817,70,75,0
308.31567,308.62817,63,75,0
308.62817,308.73236,73,36,0
308.62817,308.73236,70,36,0
308.62817,308.73236,64,36,0
308.73236,309.14902,72,36,0
308.73236,309.14902,68,36,0
308.73236,309.14902,65,36,0
309.56567,309.98236,55,36,0
309.98236,310.19067,56,36,0
309.56567,310.19067,63,36,0
311.02402,311.04486,58,88,0
311.02402,311.04486,56,88,0
311.02402,311.04486,49,88,0
311.23236,311.25317,58,88,0
311.23236,311.25317,56,88,0
311.23236,311.25317,49,88,0
311.44067,311.46152,58,88,0
311.44067,311.46152,56,88,0
311.44067,311.46152,49,88,0
311.64902,311.66986,58,88,0
311.64902,311.66986,56,88,0
311.64902,311.66986,49,88,0
311.85736,311.87817,58,88,0
311.85736,311.87817,56,88,0
311.85736,311.87817,49,88,0
312.06567,312.89902,59,101,0
312.06567,312.89902,56,101,0
312.06567,312.89902,50,101,0
313.31567,313.73236,58,88,0
313.31567,313.73236,55,88,0
313.31567,313.73236,51,88,0
313.83652,313.94067,39,88,0
313.94067,314.04486,43,88,0
314.04486,314.14902,46,88,0
314.14902,314.25317,51,88,0
314.25317,314.35736,55,88,0
314.35736,314.46152,58,88,0
314.46152,314.56567,63,88,0
314.56567,314.98236,59,114,0
315.08652,315.19067,35,88,0
315.19067,315.29486,39,88,0
315.29486,315.39902,44,88,0
315.39902,315.50317,47,88,0
315.50317,315.60736,51,88,0
315.60736,315.71152,56,88,0
315.71152,315.81567,59,88,0
315.81567,316.23236,64,114,0
316.33652,316.44067,40,88,0
316.44067,316.54486,44,88,0
316.54486,316.64902,49,88,0
316.64902,316.75317,52,88,0
316.75317,316.85736,56,88,0
316.85736,316.96152,61,88,0
316.96152,317.06567,64,88,0
317.06567,317.48236,63,114,0
317.58652,317.69067,39,88,0
317.69067,317.79486,42,88,0
317.79486,317.89902,47,88,0
317.89902,318.00317,51,88,0
318.00317,318.10736,54,88,0
318.10736,318.21152,59,88,0
318.21152,318.31567,63,88,0
318.31567,318.73236,61,88,0
318.73236,318.83652,46,88,0
318.83652,318.94067,49,88,0
318.94067,319.04486,54,88,0
319.04486,319.14902,58,88,0
319.14902,319.25317,59,88,0
319.25317,319.35736,54,88,0
319.35736,319.46152,51,88,0
319.46152,319.56567,47,88,0
319.56567,319.77402,54,88,0
319.77402,319.79486,70,88,0
319.77402,319.79486,66,88,0
319.98236,320.00317,70,88,0
319.98236,320.00317,66,88,0
320.19067,320.21152,70,88,0
320.19067,320.21152,66,88,0
320.39902,320.41986,70,36,0
320.39902,320.41986,66,36,0
320.60736,320.62817,70,36,0
320.60736,320.62817,66,36,0
320.81567,320.83652,71,36,0
320.81567,320.83652,68,36,0
321.02402,321.04486,71,36,0
321.02402,321.04486,68,36,0
321.23236,321.2532,71,36,0
321.23236,321.2532,68,36,0
321.4407,321.46152,71,36,0
321.4407,321.46152,68,36,0
321.64902,321.66986,71,36,0
321.64902,321.66986,68,36,0
321.85736,321.8782,71,36,0
321.85736,321.8782,68,36,0
322.0657,322.08652,73,36,0
322.0657,322.08652,70,36,0
322.27402,322.29486,73,36,0
322.27402,322.29486,70,36,0
322.48236,322.5032,73,36,0
322.48236,322.5032,70,36,0
322.6907,322.71152,73,36,0
322.6907,322.71152,70,36,0
323.10736,323.3157,66,36,0
323.10736,323.3157,58,36,0
323.3157,323.73236,66,36,0
323.3157,323.73236,59,36,0
323.9407,324.14902,66,36,0
323.9407,324.14902,63,36,0
324.14902,324.5657,67,36,0
324.5657,324.98236,67,36,0
324.5657,324.98236,63,36,0
324.98236,325.1907,68,36,0
324.98236,325.1907,56,36,0
325.8157,326.1282,71,75,0
325.8157,326.1282,68,75,0
325.8157,326.1282,61,75,0
326.1282,326.23236,71,36,0
326.1282,326.23236,68,36,0
326.1282,326.23236,62,36,0
326.23236,326.64902,70,36,0
326.23236,326.64902,66,36,0
326.23236,326.64902,63,36,0
327.0657,327.48236,53,36,0
327.48236,327.6907,54,36,0
327.0657,327.6907,61,36,0
328.3157,328.52402,68,36,0
328.3157,328.52402,62,36,0
328.73236,328.9407,68,36,0
328.73236,328.9407,62,36,0
329.14902,329.35736,68,36,0
329.14902,329.35736,62,36,0
329.5657,329.77402,66,49,0
329.5657,329.77402,63,49,0
329.98236,330.1907,66,49,0
329.98236,330.1907,63,49,0
330.39902,330.60736,66,49,0
330.39902,330.60736,63,49,0
330.8157,331.02402,63,49,0
330.8157,331.02402,59,49,0
331.23236,331.4407,63,49,0
331.23236,331.4407,59,49,0
331.64902,331.85736,63,49,0
331.64902,331.85736,59,49,0
332.0657,332.16986,58,62,0
332.16986,332.27402,65,62,0
332.27402,332.3782,62,62,0
332.3782,332.48236,65,62,0
332.48236,332.58652,58,62,0
332.58652,332.6907,65,62,0
332.6907,332.79486,62,62,0
332.6907,332.79486,58,62,0
332.79486,332.89902,65,62,0
332.89902,333.0032,63,62,0
332.89902,333.0032,58,62,0
333.0032,333.10736,66,62,0
333.10736,333.21152,65,62,0
333.10736,333.21152,58,62,0
333.21152,333.3157,68,62,0
333.3157,333.41986,58,62,0
333.41986,333.52402,66,62,0
333.52402,333.6282,63,62,0
333.6282,333.73236,66,62,0
333.73236,333.83655,58,62,0
333.83655,333.9407,66,62,0
333.9407,334.04486,63,62,0
334.04486,334.14905,66,62,0
334.14905,334.2532,58,62,0
334.2532,334.35736,66,62,0
334.35736,334.46155,63,62,0
334.46155,334.5657,66,62,0
334.5657,334.66986,58,62,0
334.66986,334.77405,65,62,0
334.77405,334.8782,62,62,0
334.8782,334.98236,65,62,0
334.98236,335.08655,58,62,0
335.08655,335.1907,65,62,0
335.1907,335.29486,62,62,0
335.1907,335.29486,58,62,0
335.29486,335.39905,65,62,0
335.39905,335.5032,63,62,0
335.39905,335.5032,58,62,0
335.5032,335.60736,66,62,0
335.60736,335.71155,65,62,0
335.60736,335.71155,58,62,0
335.71155,335.8157,68,62,0
335.8157,335.91986,59,62,0
335.91986,336.02405,66,62,0
336.02405,336.1282,63,62,0
336.1282,336.23236,66,62,0
336.23236,336.33655,59,62,0
336.33655,336.4407,66,62,0
336.4407,336.54486,63,62,0
336.54486,336.64905,66,62,0
336.64905,336.7532,59,62,0
336.7532,336.85736,65,62,0
336.85736,336.96155,63,62,0
336.96155,337.0657,65,62,0
337.0657,337.48236,62,75,0
337.0657,337.48236,58,75,0
337.6907,337.89905,62,114,0
337.89905,338.0032,63,88,0
338.0032,338.10736,58,88,0
338.10736,338.21155,54,88,0
338.21155,338.3157,51,88,0
338.3157,338.52405,58,75,0
338.9407,339.14905,50,114,0
339.14905,339.2532,51,88,0
339.2532,339.35736,46,88,0
339.35736,339.46155,42,88,0
339.46155,339.5657,39,88,0
339.5657,339.77405,46,88,0
339.98236,340.39905,46,88,0
339.98236,340.39905,34,88,0
342.6907,342.89905,46,36,0
342.89905,343.10736,45,36,0
343.10736,343.3157,44,36,0
343.3157,343.73236,43,36,0
343.73236,344.14905,46,36,0
344.14905,344.5657,51,36,0
344.5657,345.1907,55,36,0
345.1907,345.39905,56,36,0
345.39905,345.71155,57,36,0
345.71155,345.8157,58,36,0
346.02405,346.04486,56,36,0
346.02405,346.04486,53,36,0
346.02405,346.04486,46,36,0
346.23236,346.2532,56,36,0
346.23236,346.2532,53,36,0
346.23236,346.2532,46,36,0
346.4407,346.46155,56,36,0
346.4407,346.46155,53,36,0
346.4407,346.46155,46,36,0
346.64905,346.6699,56,36,0
346.64905,346.6699,53,36,0
346.64905,346.6699,46,36,0
346.8574,346.8782,56,36,0
346.8574,346.8782,53,36,0
346.8574,346.8782,46,36,0
347.0657,347.4824,56,36,0
347.0657,347.4824,53,36,0
347.0657,347.4824,46,36,0
348.3157,349.5657,51,36,0
348.3157,349.5657,43,36,0
349.5657,349.9824,51,36,0
349.9824,350.6074,52,62,0
350.6074,350.8157,53,36,0
350.8157,351.64905,55,36,0
350.8157,351.64905,46,36,0
351.64905,352.0657,57,62,0
352.0657,352.4824,58,36,0
351.64905,352.4824,46,54,0
352.6907,352.89905,58,36,0
352.89905,353.1074,57,36,0
353.1074,353.3157,56,36,0
353.3157,353.7324,55,36,0
353.7324,354.14905,58,36,0
354.14905,354.5657,63,36,0
354.5657,355.1907,67,36,0
355.1907,355.39905,68,36,0
355.39905,355.5032,69,62,0
355.5032,355.6074,70,36,0
355.6074,355.71155,72,36,0
355.71155,355.8157,70,36,0
356.02405,356.0449,68,36,0
356.02405,356.0449,65,36,0
356.02405,356.0449,58,36,0
356.2324,356.2532,68,36,0
356.2324,356.2532,65,36,0
356.2324,356.2532,58,36,0
356.4407,356.46155,68,36,0
356.4407,356.46155,65,36,0
356.4407,356.46155,58,36,0
356.64905,356.6699,68,36,0
356.64905,356.6699,65,36,0
356.64905,356.6699,58,36,0
356.8574,356.8782,68,36,0
356.8574,356.8782,65,36,0
356.8574,356.8782,58,36,0
357.0657,357.4824,68,36,0
357.0657,357.4824,65,36,0
357.0657,357.4824,58,36,0
358.3157,359.56573,63,36,0
358.3157,359.56573,55,36,0
359.56573,359.9824,63,36,0
359.9824,360.6074,64,62,0
360.6074,360.81573,65,36,0
360.81573,361.64905,67,36,0
360.81573,361.64905,58,36,0
361.64905,362.06573,68,62,0
361.64905,362.06573,58,54,0
362.06573,362.4824,67,36,0
362.06573,362.4824,63,36,0
362.58655,362.63864,75,36,0
362.63864,362.69073,77,36,0
362.69073,362.89905,75,49,0
362.89905,363.1074,74,49,0
363.1074,363.31573,75,49,0
363.26364,363.31573,75,49,0
363.31573,363.52405,79,49,0
363.52405,363.6803,77,49,0
363.62823,363.6803,77,49,0
363.6803,363.7324,79,49,0
363.7324,363.94073,77,49,0
363.94073,364.097,75,49,0
364.0449,364.097,75,49,0
364.097,364.14905,77,49,0
364.14905,364.3574,75,49,0
364.3574,364.51364,74,49,0
364.46155,364.51364,74,49,0
364.51364,364.56573,75,49,0
364.56573,364.77405,74,49,0
364.77405,364.9303,72,49,0
364.87823,364.9303,72,49,0
364.9303,364.9824,75,49,0
364.9824,365.19073,72,49,0
365.19073,365.347,70,49,0
365.2949,365.347,70,49,0
365.347,365.39905,72,49,0
365.39905,365.6074,70,49,0
365.6074,365.81573,69,49,0
365.81573,367.06573,75,49,0
365.81573,367.06573,72,49,0
365.81573,367.06573,65,49,0
367.06573,368.31573,74,49,0
367.06573,368.31573,70,49,0
368.31573,368.52405,75,49,0
368.31573,368.52405,63,49,0
368.7324,369.14905,67,49,0
368.7324,369.14905,58,49,0
369.14905,369.56573,68,49,0
369.14905,369.56573,59,49,0
369.56573,369.9824,67,49,0
369.56573,369.9824,60,49,0
370.08655,370.13864,63,49,0
370.13864,370.19073,65,49,0
370.19073,370.39905,63,49,0
370.39905,370.6074,62,49,0
370.6074,370.81573,63,49,0
370.76364,370.81573,63,49,0
370.81573,371.02405,67,49,0
371.02405,371.1803,65,49,0
371.12823,371.1803,65,49,0
371.1803,371.2324,67,49,0
371.2324,371.44073,65,49,0
371.44073,371.597,63,49,0
371.5449,371.597,63,49,0
371.597,371.64905,65,49,0
371.64905,371.8574,63,49,0
371.8574,372.01364,62,49,0
371.96158,372.01364,62,49,0
372.01364,372.06573,63,49,0
372.06573,372.27408,62,49,0
372.27408,372.43033,60,49,0
372.37823,372.43033,60,49,0
372.43033,372.4824,63,49,0
372.4824,372.69073,60,49,0
372.69073,372.847,58,49,0
372.7949,372.847,58,49,0
372.847,372.89908,60,49,0
372.89908,373.1074,58,49,0
373.1074,373.31573,57,49,0
373.31573,374.56573,63,75,0
373.31573,374.56573,60,70,0
373.31573,374.56573,53,65,0
374.56573,375.81573,62,49,0
374.56573,375.81573,58,49,0
375.81573,376.02408,63,36,0
375.81573,376.02408,51,36,0
376.2324,376.64908,55,36,0
376.64908,377.06573,56,36,0
376.2324,377.06573,46,36,0
377.06573,377.08658,51,36,0
377.27408,377.2949,67,36,0
377.27408,377.2949,58,36,0
377.4824,377.50323,67,36,0
377.4824,377.50323,63,36,0
377.69073,377.71158,67,36,0
377.69073,377.71158,58,36,0
377.89908,377.9199,67,36,0
377.89908,377.9199,63,36,0
378.1074,378.12823,67,36,0
378.1074,378.12823,58,36,0
378.31573,378.33658,46,36,0
378.52408,378.5449,65,36,0
378.52408,378.5449,58,36,0
378.7324,378.75323,65,36,0
378.7324,378.75323,62,36,0
378.94073,378.96158,65,36,0
378.94073,378.96158,58,36,0
379.14908,379.1699,65,36,0
379.14908,379.1699,62,36,0
379.3574,379.37823,65,36,0
379.3574,379.37823,58,36,0
379.56573,379.58658,46,36,0
379.77408,379.7949,65,36,0
379.77408,379.7949,58,36,0
379.9824,380.00323,65,36,0
379.9824,380.00323,62,36,0
380.19073,380.21158,65,36,0
380.19073,380.21158,58,36,0
380.39908,380.4199,67,36,0
380.39908,380.4199,62,36,0
380.6074,380.62823,68,36,0
380.6074,380.62823,58,36,0
380.81573,380.83658,51,36,0
381.02408,381.0449,67,36,0
381.02408,381.0449,62,36,0
381.2324,381.25323,67,36,0
381.2324,381.25323,63,36,0
381.44073,381.46158,67,36,0
381.44073,381.46158,58,36,0
381.64908,381.6699,67,36,0
381.64908,381.6699,63,36,0
381.8574,381.87823,67,36,0
381.8574,381.87823,58,36,0
382.06573,382.08658,55,36,0
382.27408,382.2949,70,36,0
382.27408,382.2949,63,36,0
382.4824,382.50323,73,36,0
382.4824,382.50323,70,36,0
382.69073,382.71158,70,36,0
382.69073,382.71158,63,36,0
382.89908,382.9199,73,36,0
382.89908,382.9199,70,36,0
383.1074,383.12823,70,36,0
383.1074,383.12823,63,36,0
383.31573,383.33658,56,36,0
383.52408,383.5449,68,36,0
383.52408,383.5449,63,36,0
383.7324,383.75323,72,36,0
383.7324,383.75323,68,36,0
383.94073,383.96158,68,36,0
383.94073,383.96158,64,36,0
384.14908,384.1699,68,36,0
384.14908,384.1699,65,36,0
384.3574,384.37823,72,36,0
384.3574,384.37823,68,36,0
384.56573,384.58658,58,36,0
384.77408,384.79492,67,36,0
384.77408,384.79492,63,36,0
384.98242,385.00323,70,36,0
384.98242,385.00323,67,36,0
385.19073,385.21158,67,36,0
385.19073,385.21158,63,36,0
385.39908,385.41992,70,36,0
385.39908,385.41992,68,36,0
385.60742,385.62823,68,36,0
385.60742,385.62823,62,36,0
385.81573,385.83658,51,36,0
386.02408,386.04492,67,36,0
386.02408,386.04492,63,36,0
386.23242,386.25323,70,36,0
386.23242,386.25323,67,36,0
386.44073,386.46158,67,36,0
386.44073,386.46158,58,36,0
386.64908,386.66992,66,36,0
386.64908,386.66992,60,36,0
386.85742,386.87823,65,36,0
386.85742,386.87823,62,36,0
387.06573,387.08658,51,36,0
387.27408,387.29492,67,36,0
387.27408,387.29492,58,36,0
387.48242,387.50323,67,36,0
387.48242,387.50323,63,36,0
387.69073,387.71158,67,36,0
387.69073,387.71158,58,36,0
387.89908,387.91992,67,36,0
387.89908,387.91992,63,36,0
388.10742,388.12823,67,36,0
388.10742,388.12823,58,36,0
388.31573,388.33658,46,36,0
388.52408,388.54492,65,36,0
388.52408,388.54492,58,36,0
388.73242,388.75323,65,36,0
388.73242,388.75323,62,36,0
388.94073,388.96158,65,36,0
388.94073,388.96158,58,36,0
389.14908,389.16992,65,36,0
389.14908,389.16992,62,36,0
389.35742,389.37823,65,36,0
389.35742,389.37823,58,36,0
389.56573,389.58658,46,36,0
389.77408,389.79492,65,36,0
389.77408,389.79492,58,36,0
389.98242,390.00323,65,36,0
389.98242,390.00323,62,36,0
390.19073,390.21158,65,36,0
390.19073,390.21158,58,36,0
390.39908,390.41992,67,36,0
390.39908,390.41992,62,36,0
390.60742,390.62823,68,36,0
390.60742,390.62823,58,36,0
390.81573,390.83658,51,36,0
391.02408,391.04492,67,36,0
391.02408,391.04492,62,36,0
391.23242,391.25323,67,36,0
391.23242,391.25323,63,36,0
391.44073,391.46158,67,36,0
391.44073,391.46158,58,36,0
391.64908,391.66992,67,36,0
391.64908,391.66992,63,36,0
391.85742,391.87823,67,36,0
391.85742,391.87823,58,36,0
392.06573,392.08658,55,36,0
392.27408,392.29492,70,36,0
392.27408,392.29492,63,36,0
392.48242,392.50323,73,36,0
392.48242,392.50323,70,36,0
392.69073,392.71158,70,36,0
392.69073,392.71158,63,36,0
392.89908,392.91992,73,36,0
392.89908,392.91992,70,36,0
393.10742,393.12823,70,36,0
393.10742,393.12823,63,36,0
393.31573,393.33658,56,36,0
393.52408,393.54492,68,36,0
393.52408,393.54492,63,36,0
393.73242,393.75323,72,36,0
393.73242,393.75323,68,36,0
393.94073,393.96158,68,36,0
393.94073,393.96158,64,36,0
394.14908,394.16992,68,36,0
394.14908,394.16992,65,36,0
394.35742,394.37823,72,36,0
394.35742,394.37823,68,36,0
394.56573,394.58658,58,36,0
394.77408,394.79492,67,36,0
394.77408,394.79492,63,36,0
394.98242,395.00323,70,36,0
394.98242,395.00323,67,36,0
395.19073,395.21158,67,36,0
395.19073,395.21158,63,36,0
395.39908,395.41992,70,36,0
395.39908,395.41992,68,36,0
395.60742,395.62823,68,36,0
395.60742,395.62823,62,36,0
395.81573,395.83658,67,36,0
395.81573,395.83658,63,36,0
396.02408,396.12823,75,75,0
396.12823,396.23242,77,75,0
396.23242,396.33658,79,75,0
396.33658,396.44073,77,75,0
396.44073,396.54492,75,75,0
396.54492,396.64908,74,75,0
396.64908,396.75323,72,88,0
396.75323,396.85742,70,88,0
396.85742,396.96158,68,88,0
396.96158,397.06573,67,88,0
397.06573,397.16992,65,88,0
397.16992,397.27408,63,88,0
397.27408,397.37827,62,88,0
397.37827,397.48242,60,88,0
397.48242,397.58658,58,75,0
397.58658,397.69077,56,75,0
397.69077,397.79492,55,75,0
397.79492,397.89908,53,75,0
397.89908,398.00327,51,75,0
398.00327,398.10742,50,75,0
398.10742,398.21158,48,75,0
398.21158,398.31577,46,75,0
398.31577,398.52408,45,75,0
398.73242,399.14908,57,101,0
398.73242,399.14908,45,101,0
398.73242,399.14908,48,101,0
398.73242,399.14908,53,101,0
399.56577,399.77408,65,36,0
399.56577,399.77408,57,36,0
399.56577,399.77408,60,36,0
399.56577,399.77408,63,36,0
399.98242,400.19077,65,36,0
399.98242,400.19077,57,36,0
399.98242,400.19077,60,36,0
399.98242,400.19077,63,36,0
400.39908,400.60742,65,36,0
400.39908,400.60742,57,36,0
400.39908,400.60742,60,36,0
400.39908,400.60742,63,36,0
400.81577,401.02408,66,36,0
400.81577,401.02408,63,36,0
400.81577,401.02408,58,36,0
401.23242,401.44077,66,36,0
401.23242,401.44077,63,36,0
401.23242,401.44077,58,36,0
401.64908,401.85742,66,49,0
401.64908,401.85742,63,49,0
401.64908,401.85742,58,49,0
402.06577,402.27408,66,49,0
402.06577,402.27408,63,49,0
402.06577,402.27408,59,49,0
402.48242,402.69077,66,36,0
402.48242,402.69077,63,36,0
402.48242,402.69077,59,36,0
402.89908,403.10742,66,36,0
402.89908,403.10742,63,36,0
402.89908,403.10742,60,36,0
403.31577,403.52408,70,36,0
403.31577,403.52408,66,36,0
403.31577,403.52408,61,36,0
403.73242,403.94077,70,36,0
403.73242,403.94077,66,36,0
403.73242,403.94077,61,36,0
404.14908,404.35742,71,36,0
404.14908,404.35742,65,36,0
404.14908,404.35742,61,36,0
404.56577,404.98242,70,36,0
404.56577,404.98242,66,36,0
405.34702,405.39908,58,75,0
405.19077,405.39908,54,75,0
405.39908,405.60742,56,75,0
405.60742,405.81577,54,75,0
405.81577,406.02408,53,75,0
406.02408,406.44077,61,101,0
406.44077,406.64908,59,75,0
406.64908,406.85742,58,75,0
406.85742,407.06577,56,75,0
407.06577,407.27408,54,75,0
407.27408,407.29492,42,75,0
407.84702,407.89908,58,75,0
407.69077,407.89908,54,75,0
407.89908,408.10742,56,75,0
408.10742,408.31577,54,75,0
408.31577,408.52408,53,75,0
408.52408,408.94077,61,101,0
408.94077,409.14908,59,75,0
409.14908,409.35742,58,75,0
409.35742,409.56577,56,75,0
409.56577,409.77408,54,75,0
409.77408,409.79492,42,75,0
410.34702,410.3991,58,75,0
410.19077,410.3991,54,75,0
410.3991,410.60742,56,75,0
410.60742,410.81577,54,75,0
410.81577,411.0241,55,75,0
411.0241,411.44077,64,75,0
411.44077,411.6491,61,75,0
411.6491,411.85742,58,88,0
411.85742,412.06577,55,88,0
412.06577,412.48242,56,88,0
412.48242,412.8991,57,75,0
412.8991,413.31577,58,75,0
413.31577,414.56577,60,49,0
414.56577,414.66992,68,49,0
414.56577,414.66992,65,49,0
414.66992,414.7741,72,49,0
414.7741,414.87827,60,49,0
414.87827,414.98242,72,49,0
414.98242,415.0866,68,62,0
414.98242,415.0866,65,62,0
415.0866,415.19077,72,62,0
415.19077,415.29492,60,62,0
415.29492,415.3991,72,62,0
415.3991,415.50327,68,62,0
415.3991,415.50327,65,62,0
415.50327,415.60742,72,62,0
415.60742,415.7116,60,62,0
415.7116,415.81577,72,62,0
415.81577,415.91992,70,62,0
415.81577,415.91992,67,62,0
415.91992,416.0241,72,62,0
416.0241,416.12827,60,62,0
416.12827,416.23242,72,62,0
416.23242,416.3366,70,62,0
416.23242,416.3366,67,62,0
416.3366,416.44077,72,62,0
416.44077,416.54492,67,62,0
416.44077,416.54492,64,62,0
416.54492,416.6491,72,62,0
416.6491,416.75327,68,62,0
416.6491,416.75327,65,62,0
416.75327,416.85742,72,62,0
416.85742,416.9616,70,62,0
416.85742,416.9616,64,62,0
416.9616,417.06577,72,62,0
417.06577,417.16992,68,49,0
417.06577,417.16992,65,49,0
417.16992,417.2741,72,49,0
417.2741,417.37827,60,49,0
417.37827,417.48242,72,49,0
417.48242,417.5866,68,62,0
417.48242,417.5866,65,62,0
417.5866,417.69077,72,62,0
417.69077,417.79492,60,62,0
417.79492,417.8991,72,62,0
417.8991,418.00327,68,62,0
417.8991,418.00327,65,62,0
418.00327,418.10742,72,62,0
418.10742,418.2116,60,62,0
418.2116,418.31577,72,62,0
418.31577,418.41992,70,62,0
418.31577,418.41992,67,62,0
418.41992,418.5241,72,62,0
418.5241,418.62827,60,62,0
418.62827,418.73242,72,62,0
418.73242,418.8366,70,62,0
418.73242,418.8366,67,62,0
418.8366,418.94077,72,62,0
418.94077,419.04492,67,62,0
418.94077,419.04492,64,62,0
419.04492,419.1491,72,62,0
419.1491,419.25327,68,62,0
419.1491,419.25327,65,62,0
419.25327,419.35742,72,62,0
419.35742,419.4616,70,62,0
419.35742,419.4616,64,62,0
419.4616,419.56577,72,62,0
419.56577,419.66992,68,49,0
419.56577,419.66992,65,49,0
419.66992,419.7741,72,49,0
419.7741,419.87827,60,49,0
419.87827,419.98242,72,49,0
419.98242,420.0866,68,62,0
419.98242,420.0866,65,62,0
420.0866,420.19077,72,62,0
420.19077,420.29492,60,62,0
420.29492,420.3991,72,62,0
420.3991,420.50327,68,62,0
420.3991,420.50327,65,62,0
420.50327,420.60742,72,62,0
420.60742,420.7116,60,62,0
420.7116,420.81577,72,62,0
420.81577,420.91992,68,49,0
420.81577,420.91992,65,49,0
420.91992,421.0241,73,49,0
421.0241,421.12827,61,49,0
421.12827,421.23242,73,49,0
421.23242,421.3366,68,36,0
421.23242,421.3366,65,36,0
421.3366,421.44077,73,36,0
421.44077,421.54492,61,36,0
421.54492,421.6491,73,36,0
421.6491,421.75327,68,36,0
421.6491,421.75327,65,36,0
421.75327,421.85742,73,36,0
421.85742,421.9616,61,36,0
421.9616,422.06577,73,36,0
422.06577,422.16992,68,36,0
422.06577,422.16992,65,36,0
422.16992,422.2741,74,36,0
422.2741,422.37827,62,36,0
422.37827,422.48242,74,36,0
422.48242,422.5866,68,36,0
422.48242,422.5866,65,36,0
422.5866,422.69077,74,36,0
422.69077,422.79495,62,36,0
422.79495,422.8991,74,36,0
422.8991,423.00327,68,36,0
422.8991,423.00327,65,36,0
423.00327,423.10745,74,36,0
423.10745,423.2116,62,36,0
423.2116,423.31577,74,36,0
423.31577,423.41995,68,36,0
423.31577,423.41995,65,36,0
423.41995,423.5241,74,36,0
423.5241,423.62827,62,36,0
423.62827,423.73245,74,36,0
423.73245,423.8366,68,49,0
423.73245,423.8366,65,49,0
423.8366,423.94077,74,49,0
423.94077,424.04495,62,49,0
424.04495,424.1491,74,49,0
424.1491,424.25327,68,62,0
424.1491,424.25327,65,62,0
424.25327,424.35745,74,62,0
424.35745,424.4616,62,62,0
424.4616,424.56577,74,62,0
424.56577,424.66995,67,75,0
424.56577,424.66995,63,75,0
424.66995,424.7741,75,75,0
424.7741,424.87827,58,75,0
424.87827,424.98245,70,75,0
424.98245,425.0866,63,75,0
425.0866,425.19077,70,75,0
425.19077,425.29495,65,75,0
425.29495,425.3991,70,75,0
425.3991,425.50327,67,75,0
425.50327,425.60745,70,75,0
425.60745,425.7116,68,75,0
425.7116,425.81577,70,75,0
425.81577,425.91995,67,36,0
425.91995,426.0241,70,36,0
426.0241,426.12827,58,36,0
426.12827,426.23245,70,36,0
426.23245,426.3366,63,36,0
426.3366,426.44077,70,36,0
426.44077,426.54495,65,36,0
426.54495,426.6491,70,36,0
426.6491,426.75327,67,36,0
426.75327,426.85745,70,36,0
426.85745,426.9616,68,36,0
426.9616,427.06577,70,36,0
427.06577,427.16995,67,75,0
427.16995,427.2741,70,75,0
427.2741,427.37827,58,75,0
427.37827,427.48245,70,75,0
427.48245,427.5866,63,75,0
427.5866,427.69077,70,75,0
427.69077,427.79495,65,75,0
427.79495,427.8991,70,75,0
427.8991,428.00327,67,75,0
428.00327,428.10745,70,75,0
428.10745,428.2116,68,75,0
428.2116,428.31577,70,75,0
428.31577,428.41995,67,36,0
428.41995,428.5241,70,36,0
428.5241,428.62827,58,36,0
428.62827,428.73245,70,36,0
428.73245,428.8366,63,36,0
428.8366,428.94077,70,36,0
428.94077,429.04495,65,36,0
429.04495,429.1491,70,36,0
429.1491,429.25327,67,36,0
429.25327,429.35745,70,36,0
429.35745,429.4616,68,36,0
429.4616,429.56577,70,36,0
429.56577,429.98245,67,36,0
429.56577,429.98245,63,36,0
432.06577,433.10745,54,75,0
432.06577,433.10745,45,75,0
432.06577,433.10745,48,75,0
432.06577,433.10745,51,75,0
433.31577,433.41995,50,101,0
433.41995,433.5241,38,101,0
433.5241,433.62827,41,101,0
433.62827,433.73245,44,101,0
433.73245,433.8366,46,88,0
433.8366,433.94077,50,88,0
433.94077,434.04495,53,88,0
434.04495,434.1491,58,88,0
434.1491,434.16995,62,88,0
434.56577,434.7741,63,36,0
434.7741,434.98245,56,36,0
434.98245,435.3991,58,36,0
435.3991,435.8158,56,36,0
435.3991,435.8158,46,36,0
435.91995,436.0241,51,36,0
436.0241,436.1283,43,36,0
436.1283,436.23245,51,36,0
436.23245,436.3366,46,36,0
436.3366,436.4408,51,36,0
436.4408,436.54495,49,36,0
436.54495,436.6491,51,36,0
436.6491,436.7533,46,36,0
436.7533,436.85745,51,36,0
436.85745,436.9616,43,36,0
436.9616,437.0658,51,36,0
437.16995,437.2741,51,36,0
437.2741,437.3783,43,36,0
437.3783,437.48245,51,36,0
437.48245,437.5866,46,36,0
437.5866,437.6908,51,36,0
437.6908,437.79495,49,36,0
437.79495,437.8991,51,36,0
437.8991,438.0033,46,36,0
438.0033,438.10745,51,36,0
438.10745,438.2116,43,36,0
438.2116,438.3158,51,36,0
438.41995,438.5241,51,36,0
438.5241,438.6283,44,36,0
438.6283,438.73245,51,36,0
438.73245,438.8366,48,36,0
438.8366,438.9408,51,36,0
438.9408,439.04495,50,36,0
439.04495,439.1491,51,36,0
439.1491,439.2533,48,36,0
439.2533,439.35745,51,36,0
439.35745,439.4616,44,36,0
439.4616,439.5658,51,36,0
439.66995,439.7741,51,36,0
439.7741,439.8783,44,36,0
439.8783,439.98245,51,36,0
439.98245,440.0866,48,36,0
440.0866,440.1908,51,36,0
440.1908,440.29495,50,36,0
440.29495,440.3991,51,36,0
440.3991,440.5033,48,36,0
440.5033,440.60745,51,36,0
440.60745,440.7116,44,36,0
440.7116,440.8158,51,36,0
440.91995,441.0241,50,36,0
441.0241,441.1283,41,36,0
441.1283,441.23245,50,36,0
441.23245,441.3366,44,36,0
441.3366,441.4408,50,36,0
441.4408,441.54495,47,36,0
441.54495,441.6491,50,36,0
441.6491,441.7533,44,36,0
441.7533,441.85745,50,36,0
441.85745,441.9616,41,36,0
441.9616,442.0658,50,36,0
442.16995,442.2741,51,36,0
442.2741,442.3783,43,36,0
442.3783,442.48245,51,36,0
442.48245,442.5866,46,36,0
442.5866,442.6908,51,36,0
442.6908,442.79495,50,36,0
442.79495,442.8991,51,36,0
442.8991,443.0033,46,36,0
443.0033,443.10745,51,36,0
443.10745,443.2116,43,36,0
443.2116,443.3158,51,36,0
443.3158,443.73245,39,49,0
443.3158,443.73245,27,49,0
443.73245,444.1491,31,49,0
444.1491,444.5658,34,49,0
444.5658,444.98245,39,75,0
444.98245,445.3991,43,49,0
445.8158,446.23245,39,49,0
445.8158,446.23245,27,49,0
446.23245,446.6491,32,49,0
446.6491,447.0658,36,49,0
447.0658,447.48245,39,75,0
447.48245,447.8991,44,49,0
448.3158,448.9408,47,88,0
448.9408,449.14914,44,49,0
449.14914,449.35745,41,49,0
449.35745,449.5658,38,49,0
449.5658,449.98245,39,49,0
450.1908,450.21164,39,75,0
450.39914,450.41995,41,49,0
450.60745,450.6283,43,49,0
450.8158,451.23245,44,49,0
451.4408,451.46164,44,75,0
451.64914,451.66995,46,49,0
451.85745,451.8783,47,49,0
452.0658,452.48245,46,49,0
452.6908,452.71164,44,75,0
452.89914,452.91995,46,49,0
453.10745,453.1283,34,49,0
453.3158,453.7369,39,49,0
453.95428,453.9765,51,75,0
454.1765,454.1994,53,49,0
454.40552,454.42896,55,49,0
454.6399,455.1258,56,49,0
455.38004,455.40546,56,75,0
455.63428,455.6597,58,49,0
455.88852,455.91394,59,49,0
456.14273,456.6512,58,49,0
456.90546,456.93088,56,75,0
457.1597,457.18512,58,49,0
457.41394,457.43936,46,49,0
457.66815,458.17664,51,49,0
458.17664,459.1936,82,75,0
459.1936,459.70206,46,49,0
459.9563,459.98172,56,75,0
460.21054,460.23596,58,49,0
460.46478,460.4902,46,49,0
460.71902,461.22748,51,49,0
461.22748,462.24445,82,75,0
462.24445,462.75293,34,49,0
463.00714,463.0326,44,75,0
463.26138,463.2868,46,49,0
463.51562,463.54105,34,49,0
463.76987,464.27835,39,49,0
464.27835,464.3292,82,49,0
464.7868,464.83768,79,49,0
465.2953,465.34613,75,49,0
465.80377,465.8546,46,49,0
466.31226,466.3631,43,49,0
466.8207,466.87155,39,49,0
468.34613,468.8546,63,49,0
468.2487,468.8546,51,49,0
468.2826,468.8546,55,49,0
468.31226,468.8546,58,49,0
469.87158,471.397,51,49,0
469.87158,471.397,46,49,0
469.87158,471.397,39,49,0
6.666672,7.916673,44,36,0
16.66668,17.916681,56,36,0
33.33336,34.166695,46,36,0
109.59133,110.84133,46,36,0
110.84133,112.09133,46,36,0
112.09133,113.34133,46,36,0
113.34133,114.59133,46,36,0
114.59133,115.84133,46,36,0
115.84133,117.09134,46,36,0
149.34627,150.59627,44,36,0
159.34628,160.59628,56,36,0
176.01295,176.8463,46,36,0
252.27094,253.52094,46,36,0
253.52094,254.77094,46,36,0
254.77094,256.02094,46,36,0
256.02094,257.27094,46,36,0
257.27094,258.52094,46,36,0
258.52094,259.77094,46,36,0
287.899,288.31567,50,36,0
290.399,290.81567,48,36,0
306.44067,306.64902,61,36,0
306.64902,306.85733,60,36,0
306.85733,307.06567,65,36,0
323.9407,324.14902,39,36,0
324.14902,324.35736,38,36,0
324.35736,324.5657,43,36,0
349.5657,350.8157,44,36,0
359.56573,360.81573,56,36,0
435.8158,437.0658,39,36,0
437.0658,438.3158,39,36,0
438.3158,439.5658,39,36,0
439.5658,440.8158,39,36,0
440.8158,442.0658,39,36,0
442.0658,443.3158,39,36,0
