start_time,end_time,note_value,velocity,instrument_program_number
0.0,1.304348,67,49,0
1.304348,2.282609,70,75,0
2.282609,2.608696,69,49,0
2.608696,3.913044,67,49,0
3.913044,4.239131,74,49,0
4.239131,4.565218,70,49,0
4.565218,4.891305,70,49,0
4.891305,5.217392,67,49,0
5.217392,6.52174,69,49,0
6.52174,7.500001,70,75,0
7.500001,7.6630445,72,49,0
7.6630445,7.826088,70,49,0
7.826088,8.478262,69,49,0
8.478262,8.967393,75,49,0
8.967393,9.130436,74,49,0
9.130436,9.619567,74,49,0
9.619567,9.78261,73,49,0
9.78261,10.000001,72,49,0
10.000001,10.217393,70,49,0
10.206523,10.423915,69,49,0
10.434784,11.739132,67,49,0
10.434784,11.739132,62,49,0
11.739132,12.717393,70,75,0
12.717393,13.04348,69,49,0
13.04348,14.347828,67,49,0
14.347828,14.673915,77,49,0
14.673915,15.000002,75,49,0
15.000002,15.326089,75,49,0
15.326089,15.652176,74,49,0
15.652176,16.956524,72,49,0
15.652176,16.956524,70,49,0
16.956524,17.934786,75,75,0
17.934786,18.097828,77,49,0
18.097828,18.260872,75,49,0
18.260872,18.913046,74,49,0
19.56522,19.891308,82,49,0
19.891308,20.217394,77,49,0
20.217394,20.543482,77,49,0
20.543482,20.869568,74,49,0
20.869568,22.173916,79,49,0
20.869568,22.173916,72,49,0
20.869568,22.173916,70,49,0
22.173916,23.152178,77,75,0
23.152178,23.31522,79,49,0
23.31522,23.478264,77,49,0
23.478264,24.130438,76,49,0
24.782612,25.434786,75,36,0
24.782612,25.434786,69,36,0
25.434786,25.760874,70,36,0
25.760874,26.08696,72,36,0
26.08696,26.739134,74,36,0
26.08696,26.739134,70,36,0
27.391308,28.043482,72,36,0
27.391308,28.043482,69,36,0
28.695656,29.34783,70,36,0
28.695656,29.34783,67,36,0
30.000004,30.652178,69,36,0
30.000004,30.652178,66,36,0
32.6087,33.913048,67,49,0
32.6087,33.913048,62,49,0
33.913048,34.891308,70,75,0
34.891308,35.217396,69,49,0
35.217396,36.521744,67,49,0
35.217396,36.521744,58,49,0
36.521744,36.84783,79,49,0
36.84783,37.17392,74,49,0
37.17392,37.500004,74,49,0
37.500004,37.82609,70,49,0
37.82609,39.13044,69,49,0
37.82609,39.13044,67,49,0
39.13044,40.1087,71,88,0
40.1087,40.271744,69,75,0
40.271744,40.434788,71,75,0
40.434788,41.086964,72,75,0
41.086964,42.39131,73,114,0
42.228268,42.39131,73,88,0
41.086964,42.39131,70,106,0
42.39131,42.88044,82,88,0
42.88044,43.043484,73,88,0
43.043484,44.34783,74,88,0
43.043484,44.34783,70,88,0
44.34783,45.32609,77,75,0
45.32609,45.65218,75,75,0
45.65218,46.63044,74,62,0
45.65218,46.63044,70,62,0
46.63044,46.67392,75,62,0
46.956528,47.000008,74,62,0
47.282616,47.32609,72,62,0
47.608704,47.65218,70,62,0
47.934788,47.978268,69,62,0
48.260876,49.565224,67,36,0
48.260876,49.565224,58,36,0
49.565224,50.543484,70,62,0
50.543484,50.86957,69,36,0
50.86957,51.84783,67,36,0
50.86957,51.84783,58,36,0
51.84783,52.17392,79,62,0
52.17392,52.2174,77,36,0
52.500008,52.543484,75,36,0
52.826096,52.86957,74,36,0
53.15218,53.19566,73,36,0
53.478268,54.456528,74,49,0
54.456528,54.782616,84,75,0
54.782616,54.826096,82,49,0
55.108704,55.15218,81,49,0
55.43479,55.478268,79,49,0
55.760876,55.804356,78,49,0
56.086964,57.065224,79,62,0
56.90218,57.065224,79,88,0
57.065224,57.39131,82,62,0
57.39131,57.43479,81,62,0
57.7174,57.760876,79,62,0
58.043488,58.086964,77,62,0
58.36957,58.41305,75,62,0
58.69566,59.67392,74,75,0
59.510876,59.67392,74,75,0
59.67392,60.000008,84,101,0
60.000008,60.043488,82,75,0
60.326096,60.36957,81,75,0
60.652184,60.69566,79,75,0
60.978268,61.021748,78,75,0
61.304356,62.282616,79,75,0
62.282616,62.608704,80,101,0
62.608704,62.652184,79,75,0
62.93479,62.978268,77,75,0
63.26088,63.304356,75,75,0
63.586964,63.630444,74,75,0
63.91305,64.89131,75,75,0
64.89131,65.2174,75,114,0
65.2174,65.26088,74,114,0
65.54349,65.58697,72,114,0
65.869576,65.913055,70,114,0
66.19566,66.239136,69,114,0
66.52175,67.17392,74,114,0
67.826096,68.47827,66,49,0
67.826096,68.47827,62,49,0
67.826096,68.47827,60,49,0
69.13045,69.19566,67,101,0
69.13045,69.19566,55,101,0
69.13045,69.19566,58,101,0
69.13045,69.19566,63,101,0
69.782616,70.43479,74,75,0
70.43479,71.08697,75,49,0
71.08697,71.73914,79,49,0
71.73914,71.80436,70,101,0
71.73914,71.80436,62,101,0
71.73914,71.80436,65,101,0
71.73914,71.80436,68,101,0
72.39131,73.04349,76,75,0
73.04349,73.369576,77,49,0
73.369576,73.69566,80,49,0
73.69566,74.02175,77,49,0
74.02175,74.34784,74,49,0
74.34784,74.413055,67,101,0
74.34784,74.413055,55,101,0
74.34784,74.413055,60,101,0
74.34784,74.413055,63,101,0
75.00001,75.65218,74,75,0
75.65218,76.30436,75,49,0
76.30436,76.956535,79,49,0
76.956535,77.02175,70,101,0
76.956535,77.02175,62,101,0
76.956535,77.02175,65,101,0
76.956535,77.02175,68,101,0
77.6087,78.26088,76,75,0
78.26088,78.58697,77,49,0
78.58697,78.913055,80,49,0
78.913055,79.23914,77,49,0
79.23914,79.56523,74,49,0
79.56523,79.619576,70,101,0
79.619576,79.67393,75,101,0
79.663055,79.7174,79,101,0
79.72827,80.869576,82,101,0
80.869576,81.19566,80,49,0
81.19566,81.52175,79,49,0
81.52175,81.84784,77,49,0
81.84784,82.17393,76,49,0
82.17393,82.826096,79,49,0
82.826096,83.15218,77,49,0
83.47827,83.80436,83,49,0
83.80436,84.13045,84,49,0
84.13045,84.456535,80,49,0
84.456535,84.78262,77,49,0
84.78262,85.43479,74,49,0
86.08697,86.73914,75,49,0
87.39132,88.04349,79,36,0
88.04349,88.369576,77,36,0
87.39132,88.369576,72,36,0
88.69566,89.34784,75,36,0
89.34784,89.67393,74,36,0
88.69566,89.67393,68,36,0
90.000015,90.06523,67,101,0
90.000015,90.06523,55,101,0
90.000015,90.06523,60,101,0
90.000015,90.06523,63,101,0
90.65218,91.30436,74,75,0
91.30436,91.63045,75,49,0
91.63045,91.956535,79,49,0
91.956535,92.60871,82,49,0
92.60871,92.67393,70,101,0
92.60871,92.67393,62,101,0
92.60871,92.67393,65,101,0
92.60871,92.67393,68,101,0
93.26088,93.913055,76,75,0
93.913055,94.23914,77,49,0
94.23914,94.56523,80,49,0
94.56523,94.78262,84,49,0
94.78262,95.000015,80,49,0
94.98914,95.206535,77,49,0
95.21741,95.28262,67,101,0
95.21741,95.28262,55,101,0
95.21741,95.28262,60,101,0
95.21741,95.28262,63,101,0
95.869576,96.52175,74,75,0
96.52175,96.84784,75,49,0
96.84784,97.17393,79,49,0
97.17393,97.8261,82,49,0
97.8261,97.89132,70,101,0
97.8261,97.89132,62,101,0
97.8261,97.89132,65,101,0
97.8261,97.89132,68,101,0
98.47827,99.13045,76,75,0
99.13045,99.456535,77,49,0
99.456535,99.78262,80,49,0
99.78262,100.000015,84,49,0
100.000015,100.21741,80,49,0
100.206535,100.42393,77,49,0
100.4348,100.48914,70,101,0
100.48914,100.543495,75,101,0
100.53262,100.58697,79,101,0
100.59784,101.73914,82,101,0
101.73914,102.06523,80,49,0
102.06523,102.39132,79,49,0
102.39132,102.71741,77,49,0
102.71741,103.043495,76,49,0
103.043495,103.69566,79,49,0
103.69566,104.02175,77,49,0
105.3261,105.65219,85,49,0
105.65219,106.01804,84,49,0
106.01804,106.383896,82,49,0
106.383896,106.74975,80,49,0
106.74975,107.1156,79,49,0
107.1156,107.84731,82,49,0
107.84731,108.213165,80,49,0
110.042435,110.36852,86,114,0
110.36852,110.69461,87,88,0
110.69461,111.02069,84,88,0
111.02069,111.34678,80,88,0
111.34678,111.998955,79,88,0
111.34678,111.998955,75,88,0
112.65113,112.97722,83,75,0
112.97722,113.30331,84,49,0
113.30331,113.62939,80,49,0
113.62939,113.955475,77,49,0
113.955475,113.998955,75,36,0
114.17287,114.21635,79,36,0
114.17287,114.21635,75,36,0
114.37939,114.42287,79,36,0
114.37939,114.42287,75,36,0
114.60765,114.65113,79,36,0
114.60765,114.65113,75,36,0
114.82504,114.86852,79,36,0
114.82504,114.86852,75,36,0
115.03156,115.07504,79,36,0
115.03156,115.07504,75,36,0
115.25983,115.30331,79,49,0
115.25983,115.30331,75,49,0
115.47722,115.52069,79,49,0
115.47722,115.52069,75,49,0
115.68374,115.72722,79,49,0
115.68374,115.72722,75,49,0
115.912,115.955475,79,49,0
115.912,115.955475,75,49,0
116.12939,116.17287,79,49,0
116.12939,116.17287,75,49,0
116.335915,116.37939,79,49,0
116.335915,116.37939,75,49,0
116.56417,116.78156,79,62,0
116.56417,116.78156,67,62,0
116.56417,116.78156,74,62,0
116.56417,116.78156,77,62,0
116.78156,116.998955,79,62,0
116.98808,116.998955,79,62,0
116.78156,116.998955,77,62,0
116.98808,116.998955,77,62,0
116.78156,116.998955,67,62,0
116.98808,116.998955,67,62,0
116.78156,116.998955,74,62,0
116.98808,116.998955,74,62,0
117.21635,117.43374,79,62,0
117.21635,117.43374,67,62,0
117.21635,117.43374,74,62,0
117.21635,117.43374,77,62,0
117.43374,117.65113,79,62,0
117.64026,117.65113,79,62,0
117.43374,117.65113,77,62,0
117.64026,117.65113,77,62,0
117.43374,117.65113,67,62,0
117.64026,117.65113,67,62,0
117.43374,117.65113,74,62,0
117.64026,117.65113,74,62,0
117.86852,118.085915,79,49,0
117.86852,118.085915,67,49,0
117.86852,118.085915,74,49,0
117.86852,118.085915,77,49,0
118.085915,118.30331,79,49,0
118.292435,118.30331,79,49,0
118.085915,118.30331,77,49,0
118.292435,118.30331,77,49,0
118.085915,118.30331,67,49,0
118.292435,118.30331,67,49,0
118.085915,118.30331,74,49,0
118.292435,118.30331,74,49,0
118.5207,118.73808,79,49,0
118.5207,118.73808,67,49,0
118.5207,118.73808,74,49,0
118.5207,118.73808,77,49,0
118.73808,118.955475,79,49,0
118.94461,118.955475,79,49,0
118.73808,118.955475,77,49,0
118.94461,118.955475,77,49,0
118.73808,118.955475,67,49,0
118.94461,118.955475,67,49,0
118.73808,118.955475,74,49,0
118.94461,118.955475,74,49,0
119.17287,119.39026,79,36,0
119.17287,119.39026,75,36,0
119.17287,119.39026,67,36,0
119.39026,119.60765,79,36,0
119.59678,119.60765,79,36,0
119.39026,119.60765,67,36,0
119.59678,119.60765,67,36,0
119.39026,119.60765,75,36,0
119.59678,119.60765,75,36,0
119.82504,120.042435,79,36,0
119.82504,120.042435,75,36,0
119.82504,120.042435,67,36,0
120.042435,120.25983,79,36,0
120.248955,120.25983,79,36,0
120.042435,120.25983,67,36,0
120.248955,120.25983,67,36,0
120.042435,120.25983,75,36,0
120.248955,120.25983,75,36,0
120.47722,120.69461,79,49,0
120.47722,120.69461,75,49,0
120.47722,120.69461,67,49,0
120.69461,120.912,79,49,0
120.90113,120.912,79,49,0
120.69461,120.912,67,49,0
120.90113,120.912,67,49,0
120.69461,120.912,75,49,0
120.90113,120.912,75,49,0
121.129395,121.34678,79,49,0
121.129395,121.34678,75,49,0
121.129395,121.34678,67,49,0
121.34678,121.56417,79,49,0
121.34678,121.56417,67,49,0
121.34678,121.56417,75,49,0
121.55331,121.56417,75,49,0
121.55331,121.7707,66,49,0
121.55331,121.7707,78,49,0
121.78156,121.998955,77,62,0
121.78156,121.998955,65,62,0
121.78156,121.998955,72,62,0
121.78156,121.998955,75,62,0
121.998955,122.21635,77,62,0
122.205475,122.21635,77,62,0
121.998955,122.21635,75,62,0
122.205475,122.21635,75,62,0
121.998955,122.21635,65,62,0
122.205475,122.21635,65,62,0
121.998955,122.21635,72,62,0
122.205475,122.21635,72,62,0
122.43374,122.65113,77,62,0
122.43374,122.65113,65,62,0
122.43374,122.65113,72,62,0
122.43374,122.65113,75,62,0
122.65113,122.86852,77,62,0
122.85765,122.86852,77,62,0
122.65113,122.86852,75,62,0
122.85765,122.86852,75,62,0
122.65113,122.86852,65,62,0
122.85765,122.86852,65,62,0
122.65113,122.86852,72,62,0
122.85765,122.86852,72,62,0
123.085915,123.30331,77,49,0
123.085915,123.30331,65,49,0
123.085915,123.30331,72,49,0
123.085915,123.30331,75,49,0
123.30331,123.5207,77,49,0
123.50983,123.5207,77,49,0
123.30331,123.5207,75,49,0
123.50983,123.5207,75,49,0
123.30331,123.5207,65,49,0
123.50983,123.5207,65,49,0
123.30331,123.5207,72,49,0
123.50983,123.5207,72,49,0
123.73809,123.955475,77,49,0
123.73809,123.955475,65,49,0
123.73809,123.955475,72,49,0
123.73809,123.955475,75,49,0
123.955475,124.17287,77,49,0
124.162,124.17287,77,49,0
123.955475,124.17287,75,49,0
124.162,124.17287,75,49,0
123.955475,124.17287,65,49,0
124.162,124.17287,65,49,0
123.955475,124.17287,72,49,0
124.162,124.17287,72,49,0
124.39026,124.60765,77,49,0
124.39026,124.60765,74,49,0
124.39026,124.60765,70,49,0
124.60765,124.82504,77,49,0
124.81417,124.82504,77,49,0
124.60765,124.82504,70,49,0
124.81417,124.82504,70,49,0
124.60765,124.82504,74,49,0
124.81417,124.82504,74,49,0
125.042435,125.25983,77,49,0
125.042435,125.25983,74,49,0
125.042435,125.25983,70,49,0
125.25983,125.47722,77,49,0
125.46635,125.47722,77,49,0
125.25983,125.47722,70,49,0
125.46635,125.47722,70,49,0
125.25983,125.47722,74,49,0
125.46635,125.47722,74,49,0
125.69461,125.912,78,49,0
125.69461,125.912,75,49,0
125.69461,125.912,69,49,0
125.912,126.129395,77,49,0
126.11852,126.129395,77,49,0
125.912,126.129395,69,49,0
126.11852,126.129395,69,49,0
125.912,126.129395,75,49,0
126.11852,126.129395,75,49,0
126.34679,126.39026,77,49,0
126.34679,126.39026,75,49,0
126.34679,126.39026,69,49,0
126.56417,126.60765,77,49,0
126.56417,126.60765,75,49,0
126.56417,126.60765,69,49,0
126.7707,126.81417,77,49,0
126.7707,126.81417,75,49,0
126.7707,126.81417,69,49,0
126.998955,127.21635,79,62,0
126.998955,127.21635,74,62,0
126.998955,127.21635,70,62,0
127.21635,127.43374,77,62,0
127.42287,127.43374,77,62,0
127.21635,127.43374,70,62,0
127.42287,127.43374,70,62,0
127.21635,127.43374,74,62,0
127.42287,127.43374,74,62,0
127.65113,127.69461,77,62,0
127.65113,127.69461,74,62,0
127.65113,127.69461,70,62,0
127.86852,127.912,77,62,0
127.86852,127.912,74,62,0
127.86852,127.912,70,62,0
128.07504,128.11852,77,62,0
128.07504,128.11852,74,62,0
128.07504,128.11852,70,62,0
128.3033,128.52069,82,62,0
128.3033,128.52069,78,62,0
128.3033,128.52069,72,62,0
128.52069,128.73808,81,62,0
128.72722,128.73808,81,62,0
128.52069,128.73808,72,62,0
128.72722,128.73808,72,62,0
128.52069,128.73808,78,62,0
128.72722,128.73808,78,62,0
128.95547,128.99896,81,62,0
128.95547,128.99896,78,62,0
128.95547,128.99896,72,62,0
129.17287,129.21635,81,62,0
129.17287,129.21635,78,62,0
129.17287,129.21635,72,62,0
129.3794,129.42287,81,62,0
129.3794,129.42287,78,62,0
129.3794,129.42287,72,62,0
129.60765,129.82504,84,49,0
129.60765,129.82504,77,49,0
129.82504,130.04243,82,49,0
130.03157,130.04243,82,49,0
129.82504,130.04243,77,49,0
130.03157,130.04243,77,49,0
130.25983,130.3033,82,49,0
130.25983,130.3033,77,49,0
130.47722,130.52069,82,49,0
130.47722,130.52069,77,49,0
130.68375,130.72722,82,49,0
130.68375,130.72722,77,49,0
130.912,131.1294,82,49,0
131.1294,131.34679,80,49,0
131.3359,131.34679,80,49,0
131.56418,131.78157,80,49,0
131.78157,131.99896,79,49,0
131.98808,131.99896,79,49,0
132.21635,132.54243,77,49,0
132.21635,132.54243,68,49,0
133.35765,133.52069,84,36,0
133.52069,134.00983,82,36,0
134.00983,134.17287,80,36,0
134.17287,134.662,79,36,0
134.662,134.82504,84,36,0
134.662,134.82504,77,36,0
134.82504,135.04243,84,36,0
134.82504,135.04243,77,36,0
135.04243,135.25983,85,36,0
135.04243,135.25983,76,36,0
135.96635,136.1294,82,36,0
136.1294,136.61853,80,36,0
136.61853,136.78157,79,36,0
136.78157,137.27069,77,36,0
137.27069,137.43375,85,36,0
137.27069,137.43375,76,36,0
137.43375,137.65114,85,36,0
137.43375,137.65114,76,36,0
137.65114,137.86853,84,36,0
137.65114,137.86853,77,36,0
138.57504,138.73808,84,36,0
138.73808,139.22722,80,36,0
139.22722,139.39026,79,36,0
139.39026,139.8794,77,36,0
139.8794,140.04243,83,36,0
139.8794,140.04243,75,36,0
140.04243,140.25983,83,36,0
140.04243,140.25983,75,36,0
140.25983,140.47722,82,36,0
140.25983,140.47722,74,36,0
141.18375,141.34679,77,36,0
141.34679,141.83592,75,36,0
141.83592,141.99896,74,36,0
141.99896,142.48808,71,36,0
142.48808,142.65114,70,36,0
142.65114,143.95547,82,36,0
143.95547,145.25983,82,36,0
145.25983,146.56418,82,36,0
146.56418,147.21635,82,49,0
147.21635,147.54243,85,49,0
147.54243,147.86853,84,49,0
147.86853,148.5207,82,49,0
148.84679,149.17287,85,49,0
149.17287,149.662,82,49,0
149.662,149.82504,80,49,0
149.82504,150.31418,79,49,0
150.31418,150.47722,77,49,0
150.47722,150.69461,76,36,0
150.69461,150.7381,72,36,0
150.69461,150.7381,70,36,0
150.90114,150.94461,72,36,0
150.90114,150.94461,70,36,0
151.1294,151.17287,72,36,0
151.1294,151.17287,70,36,0
151.34679,151.39026,72,36,0
151.34679,151.39026,70,36,0
151.55331,151.59679,72,36,0
151.55331,151.59679,70,36,0
151.78157,151.99896,73,36,0
151.78157,151.99896,70,36,0
151.99896,152.21635,73,36,0
152.20547,152.21635,73,36,0
151.99896,152.21635,70,36,0
152.20547,152.21635,70,36,0
152.43375,152.65114,73,36,0
152.43375,152.65114,70,36,0
152.65114,152.86853,73,36,0
152.85765,152.86853,73,36,0
152.65114,152.86853,70,36,0
152.85765,152.86853,70,36,0
153.08592,153.30331,72,36,0
153.08592,153.30331,70,36,0
153.30331,153.5207,72,36,0
153.50983,153.5207,72,36,0
153.30331,153.5207,70,36,0
153.50983,153.5207,70,36,0
153.7381,153.95547,72,36,0
153.7381,153.95547,70,36,0
153.95547,154.17287,72,36,0
154.162,154.17287,72,36,0
153.95547,154.17287,70,36,0
154.162,154.17287,70,36,0
154.39026,154.60765,73,36,0
154.39026,154.60765,70,36,0
154.60765,154.82504,73,36,0
154.81418,154.82504,73,36,0
154.60765,154.82504,70,36,0
154.81418,154.82504,70,36,0
155.04243,155.25983,73,36,0
155.04243,155.25983,70,36,0
155.25983,155.47722,73,36,0
155.46635,155.47722,73,36,0
155.25983,155.47722,70,36,0
155.46635,155.47722,70,36,0
155.69461,155.912,72,36,0
155.69461,155.912,70,36,0
155.912,156.1294,72,36,0
156.11853,156.1294,72,36,0
155.912,156.1294,70,36,0
156.11853,156.1294,70,36,0
156.34679,156.56418,72,36,0
156.34679,156.56418,70,36,0
156.56418,156.78157,72,36,0
156.56418,156.78157,70,36,0
156.7707,156.78157,70,36,0
156.7707,156.9881,73,36,0
156.99896,157.21635,72,36,0
156.99896,157.21635,70,36,0
157.21635,157.43375,72,36,0
157.42287,157.43375,72,36,0
157.21635,157.43375,70,36,0
157.42287,157.43375,70,36,0
157.65114,157.86853,72,36,0
157.65114,157.86853,70,36,0
157.86853,158.08592,72,36,0
157.86853,158.08592,70,36,0
158.07504,158.08592,70,36,0
158.07504,158.29243,73,36,0
158.30331,158.5207,72,36,0
158.30331,158.5207,70,36,0
158.5207,158.7381,72,36,0
158.72722,158.7381,72,36,0
158.5207,158.7381,70,36,0
158.72722,158.7381,70,36,0
158.95549,159.17287,72,36,0
158.95549,159.17287,70,36,0
159.17287,159.39026,72,36,0
159.3794,159.39026,72,36,0
159.17287,159.39026,70,36,0
159.3794,159.39026,70,36,0
159.60765,159.82504,72,36,0
159.60765,159.82504,70,36,0
159.60765,159.82504,67,36,0
159.82504,160.04243,72,36,0
160.03157,160.04243,72,36,0
159.82504,160.04243,67,36,0
160.03157,160.04243,67,36,0
159.82504,160.04243,70,36,0
160.03157,160.04243,70,36,0
160.25983,160.47722,72,36,0
160.25983,160.47722,69,36,0
160.25983,160.47722,67,36,0
160.47722,160.69461,72,36,0
160.68375,160.69461,72,36,0
160.47722,160.69461,67,36,0
160.68375,160.69461,67,36,0
160.47722,160.69461,69,36,0
160.68375,160.69461,69,36,0
160.912,161.1294,72,36,0
160.912,161.1294,69,36,0
160.912,161.1294,66,36,0
161.1294,161.34679,72,36,0
161.33592,161.34679,72,36,0
161.1294,161.34679,66,36,0
161.33592,161.34679,66,36,0
161.1294,161.34679,69,36,0
161.33592,161.34679,69,36,0
161.56418,161.78157,72,36,0
161.56418,161.78157,69,36,0
161.56418,161.78157,66,36,0
161.78157,161.99896,72,36,0
161.9881,161.99896,72,36,0
161.78157,161.99896,66,36,0
161.78157,161.99896,69,36,0
161.9881,161.99896,69,36,0
161.9881,162.20549,67,36,0
162.21635,162.43375,72,36,0
162.21635,162.43375,69,36,0
162.21635,162.43375,66,36,0
162.43375,162.65114,72,36,0
162.64026,162.65114,72,36,0
162.43375,162.65114,66,36,0
162.64026,162.65114,66,36,0
162.43375,162.65114,69,36,0
162.64026,162.65114,69,36,0
162.86853,163.08592,72,36,0
162.86853,163.08592,69,36,0
162.86853,163.08592,66,36,0
163.08592,163.30331,72,36,0
163.29243,163.30331,72,36,0
163.08592,163.30331,66,36,0
163.08592,163.30331,69,36,0
163.29243,163.30331,69,36,0
163.29243,163.50983,67,36,0
163.5207,163.7381,72,36,0
163.5207,163.7381,69,36,0
163.5207,163.7381,66,36,0
163.7381,163.95549,72,36,0
163.94461,163.95549,72,36,0
163.7381,163.95549,66,36,0
163.94461,163.95549,66,36,0
163.7381,163.95549,69,36,0
163.94461,163.95549,69,36,0
164.17288,164.40543,73,36,0
164.17288,164.40543,69,36,0
164.17288,164.40543,66,36,0
164.40543,164.63799,73,36,0
164.62636,164.63799,73,36,0
164.40543,164.63799,66,36,0
164.62636,164.63799,66,36,0
164.40543,164.63799,69,36,0
164.62636,164.63799,69,36,0
164.87054,165.12054,74,36,0
164.87054,165.12054,69,36,0
164.87054,165.12054,66,36,0
165.12054,165.37054,74,36,0
165.35805,165.37054,74,36,0
165.12054,165.37054,66,36,0
165.35805,165.37054,66,36,0
165.12054,165.37054,69,36,0
165.35805,165.37054,69,36,0
165.62054,165.89082,72,36,0
165.62054,165.89082,69,36,0
165.62054,165.89082,66,36,0
165.89082,166.16109,72,36,0
166.14758,166.16109,72,36,0
165.89082,166.16109,66,36,0
166.14758,166.16109,66,36,0
165.89082,166.16109,69,36,0
166.14758,166.16109,69,36,0
166.43137,166.73439,70,36,0
166.43137,166.73439,66,36,0
166.43137,166.73439,62,36,0
166.73439,167.03741,70,36,0
167.02226,167.03741,70,36,0
166.73439,167.03741,62,36,0
167.02226,167.03741,62,36,0
166.73439,167.03741,66,36,0
167.02226,167.03741,66,36,0
167.34045,167.67378,70,36,0
167.34045,167.67378,67,36,0
167.34045,167.67378,62,36,0
167.67378,168.00711,70,36,0
167.99045,168.00711,70,36,0
167.67378,168.00711,62,36,0
167.99045,168.00711,62,36,0
167.67378,168.00711,67,36,0
167.99045,168.00711,67,36,0
168.34045,168.71082,70,36,0
168.34045,168.71082,66,36,0
168.34045,168.71082,60,36,0
168.71082,169.08119,70,36,0
169.06267,169.08119,70,36,0
168.71082,169.08119,60,36,0
169.06267,169.08119,60,36,0
168.71082,169.08119,66,36,0
169.06267,169.08119,66,36,0
169.45157,169.86823,69,36,0
169.45157,169.86823,66,36,0
169.45157,169.86823,60,36,0
169.86823,170.2849,69,36,0
170.26407,170.2849,69,36,0
169.86823,170.2849,60,36,0
170.26407,170.2849,60,36,0
169.86823,170.2849,66,36,0
170.26407,170.2849,66,36,0
170.70157,172.13013,67,49,0
170.70157,172.13013,58,49,0
172.13013,173.20157,70,75,0
173.20157,173.5587,69,49,0
173.5587,174.98727,67,49,0
174.98727,175.34442,74,49,0
175.34442,175.70157,70,49,0
175.70157,176.0587,70,49,0
176.0587,176.41585,67,49,0
176.41585,177.84442,69,49,0
176.41585,177.84442,66,49,0
177.84442,178.91585,70,75,0
178.91585,179.09442,72,49,0
179.09442,179.273,70,49,0
179.273,179.98727,69,49,0
179.98727,180.523,75,75,0
180.523,180.70155,74,49,0
180.70155,181.23727,74,49,0
181.23727,181.41585,73,49,0
181.41585,181.65395,72,49,0
181.65395,181.89203,70,49,0
181.88013,182.11823,69,49,0
182.13013,183.43448,67,49,0
183.43448,184.41273,70,75,0
184.41273,184.73883,69,49,0
184.73883,186.04317,67,49,0
186.04317,186.36926,79,49,0
186.36926,186.69534,75,49,0
186.69534,187.02144,75,49,0
187.02144,187.34752,72,49,0
187.34752,188.65187,72,49,0
188.65187,189.52144,75,75,0
189.52144,189.73883,79,49,0
189.72795,189.94534,77,49,0
189.95622,190.6084,74,49,0
191.26056,191.58665,82,75,0
191.58665,191.91273,77,49,0
191.91273,192.23883,77,49,0
192.23883,192.56491,74,49,0
192.56491,193.86926,79,49,0
192.56491,193.86926,72,49,0
192.56491,193.86926,70,49,0
193.86926,195.17361,70,62,0
195.17361,195.82579,76,62,0
196.47795,197.7823,75,49,0
196.47795,197.7823,66,49,0
197.7823,198.43448,74,49,0
197.7823,198.43448,70,49,0
197.7823,198.43448,65,49,0
199.08665,199.30405,72,36,0
199.30405,199.52144,75,36,0
199.51057,199.72797,78,36,0
199.73883,200.391,79,36,0
200.391,200.6084,70,36,0
200.6084,200.82579,74,36,0
200.81491,201.0323,76,36,0
201.04318,201.1084,77,36,0
201.69534,201.91273,69,36,0
201.91273,202.13013,72,36,0
202.11926,202.33665,74,36,0
202.34752,202.83665,75,36,0
202.83665,202.9997,69,36,0
202.9997,203.06491,70,101,0
202.9997,203.06491,65,101,0
202.9997,203.06491,62,101,0
203.65187,204.30405,81,75,0
204.30405,204.95622,82,49,0
204.95622,205.6084,86,49,0
205.6084,205.67361,65,101,0
205.6084,205.67361,57,101,0
205.6084,205.67361,60,101,0
205.6084,205.67361,63,101,0
206.26057,206.91273,83,75,0
206.91273,207.23883,84,49,0
207.23883,207.56491,87,49,0
207.56491,207.891,84,49,0
207.891,208.21709,81,49,0
208.21709,208.2823,65,101,0
208.21709,208.2823,53,101,0
208.21709,208.2823,58,101,0
208.21709,208.2823,62,101,0
208.86926,209.52144,81,75,0
209.52144,210.17361,82,49,0
210.17361,210.82579,86,49,0
210.82579,210.891,65,88,0
210.82579,210.891,57,88,0
210.82579,210.891,60,88,0
210.82579,210.891,63,88,0
211.47797,212.13013,83,75,0
212.13013,212.45622,84,49,0
212.45622,212.7823,87,49,0
212.7823,213.1084,84,49,0
213.1084,213.43448,81,49,0
213.43448,213.48883,77,101,0
213.48883,213.54318,82,101,0
213.5323,213.58665,86,101,0
213.59752,214.73883,89,101,0
214.73883,215.06491,87,49,0
215.06491,215.391,86,49,0
215.391,215.71709,84,49,0
215.71709,216.04318,83,49,0
216.04318,216.69536,86,49,0
216.69536,217.02144,84,49,0
217.34752,217.67361,90,75,0
217.67361,217.9997,91,49,0
217.9997,218.32579,87,49,0
218.32579,218.65187,84,49,0
218.65187,219.30405,81,49,0
219.95622,220.6084,82,49,0
221.26057,221.91275,86,36,0
221.91275,222.23883,84,36,0
221.26057,222.23883,79,36,0
222.56491,223.21709,82,36,0
223.21709,223.54318,81,36,0
222.56491,223.54318,75,36,0
223.86926,223.93448,65,62,0
223.86926,223.93448,53,50,0
223.86926,223.93448,58,54,0
223.86926,223.93448,62,58,0
224.52144,225.17361,69,75,0
225.17361,225.4997,70,49,0
225.4997,225.82579,74,49,0
225.82579,226.47797,77,49,0
226.47797,226.54318,65,75,0
226.47797,226.54318,57,63,0
226.47797,226.54318,60,67,0
226.47797,226.54318,63,71,0
227.13014,227.78232,71,75,0
227.78232,228.1084,72,49,0
228.1084,228.43448,75,49,0
228.43448,228.65187,79,49,0
228.65187,228.86926,75,49,0
228.8584,229.07579,72,49,0
229.08665,229.15187,65,75,0
229.08665,229.15187,53,63,0
229.08665,229.15187,58,67,0
229.08665,229.15187,62,71,0
229.73883,230.391,69,75,0
230.391,230.71709,70,49,0
230.71709,231.04318,74,49,0
231.04318,231.69536,77,49,0
231.69536,231.76057,65,75,0
231.69536,231.76057,57,63,0
231.69536,231.76057,60,67,0
231.69536,231.76057,63,71,0
232.34753,232.99971,71,75,0
232.99971,233.32579,72,49,0
233.32579,233.65187,75,49,0
233.65187,233.86926,79,49,0
233.86926,234.08665,75,49,0
234.07579,234.29318,72,49,0
234.30405,234.3584,65,101,0
234.3584,234.41275,70,101,0
234.40187,234.45622,74,101,0
234.46709,235.6084,77,101,0
235.6084,235.93448,75,49,0
235.93448,236.26057,74,49,0
236.26057,236.58665,72,49,0
236.58665,236.91275,71,49,0
236.91275,237.56493,74,49,0
237.56493,237.891,72,49,0
239.19536,239.52144,80,36,0
239.52144,239.8873,79,36,0
239.8873,240.25314,77,36,0
240.25314,240.619,75,36,0
240.619,240.98486,74,36,0
240.98486,241.71657,77,36,0
241.71657,242.08241,75,36,0
243.91168,244.23778,81,114,0
244.23778,244.56386,82,88,0
244.56386,244.88995,79,88,0
244.88995,245.21603,75,88,0
245.21603,245.86821,74,88,0
245.21603,245.86821,70,88,0
246.52039,246.84647,78,75,0
246.84647,247.17256,79,49,0
247.17256,247.49864,75,49,0
247.49864,247.82474,72,49,0
247.82474,247.86821,70,36,0
248.04213,248.0856,74,36,0
248.04213,248.0856,70,36,0
248.24864,248.29213,74,36,0
248.24864,248.29213,70,36,0
248.4769,248.52039,74,36,0
248.4769,248.52039,70,36,0
248.69429,248.73778,74,36,0
248.69429,248.73778,70,36,0
248.90082,248.94429,74,36,0
248.90082,248.94429,70,36,0
249.12907,249.17256,74,36,0
249.12907,249.17256,70,36,0
249.34647,249.38995,74,36,0
249.34647,249.38995,70,36,0
249.553,249.59647,74,36,0
249.553,249.59647,70,36,0
249.78125,249.82474,74,36,0
249.78125,249.82474,70,36,0
249.99864,250.04213,74,36,0
249.99864,250.04213,70,36,0
250.20517,250.24864,74,36,0
250.20517,250.24864,70,36,0
250.43343,250.65082,74,62,0
250.43343,250.65082,62,62,0
250.43343,250.65082,69,62,0
250.43343,250.65082,72,62,0
250.65082,250.86821,74,62,0
250.85735,250.86821,74,62,0
250.65082,250.86821,72,62,0
250.85735,250.86821,72,62,0
250.65082,250.86821,62,62,0
250.85735,250.86821,62,62,0
250.65082,250.86821,69,62,0
250.85735,250.86821,69,62,0
251.0856,251.303,74,36,0
251.0856,251.303,62,36,0
251.0856,251.303,69,36,0
251.0856,251.303,72,36,0
251.303,251.52039,74,36,0
251.50952,251.52039,74,36,0
251.303,251.52039,72,36,0
251.50952,251.52039,72,36,0
251.303,251.52039,62,36,0
251.50952,251.52039,62,36,0
251.303,251.52039,69,36,0
251.50952,251.52039,69,36,0
251.73778,251.95517,74,36,0
251.73778,251.95517,62,36,0
251.73778,251.95517,69,36,0
251.73778,251.95517,72,36,0
251.95517,252.17256,74,36,0
252.16168,252.17256,74,36,0
251.95517,252.17256,72,36,0
252.16168,252.17256,72,36,0
251.95517,252.17256,62,36,0
252.16168,252.17256,62,36,0
251.95517,252.17256,69,36,0
252.16168,252.17256,69,36,0
252.38995,252.60735,74,36,0
252.38995,252.60735,62,36,0
252.38995,252.60735,69,36,0
252.38995,252.60735,72,36,0
252.60735,252.82474,74,36,0
252.81386,252.82474,74,36,0
252.60735,252.82474,72,36,0
252.81386,252.82474,72,36,0
252.60735,252.82474,62,36,0
252.81386,252.82474,62,36,0
252.60735,252.82474,69,36,0
252.81386,252.82474,69,36,0
253.04213,253.25952,74,36,0
253.04213,253.25952,70,36,0
253.04213,253.25952,62,36,0
253.25952,253.47691,74,36,0
253.46603,253.47691,74,36,0
253.25952,253.47691,62,36,0
253.46603,253.47691,62,36,0
253.25952,253.47691,70,36,0
253.46603,253.47691,70,36,0
253.69429,253.91168,74,36,0
253.69429,253.91168,70,36,0
253.69429,253.91168,62,36,0
253.91168,254.12907,74,36,0
254.11821,254.12907,74,36,0
253.91168,254.12907,62,36,0
254.11821,254.12907,62,36,0
253.91168,254.12907,70,36,0
254.11821,254.12907,70,36,0
254.34647,254.56386,74,36,0
254.34647,254.56386,70,36,0
254.34647,254.56386,62,36,0
254.56386,254.78125,74,36,0
254.77039,254.78125,74,36,0
254.56386,254.78125,62,36,0
254.77039,254.78125,62,36,0
254.56386,254.78125,70,36,0
254.77039,254.78125,70,36,0
254.99864,255.21603,74,36,0
254.99864,255.21603,70,36,0
254.99864,255.21603,62,36,0
255.21603,255.43343,74,36,0
255.21603,255.43343,62,36,0
255.21603,255.43343,70,36,0
255.42256,255.43343,70,36,0
255.42256,255.63995,61,36,0
255.42256,255.63995,73,36,0
255.65082,255.86821,72,62,0
255.65082,255.86821,60,62,0
255.65082,255.86821,67,62,0
255.65082,255.86821,70,62,0
255.86821,256.0856,72,62,0
256.07474,256.0856,72,62,0
255.86821,256.0856,70,62,0
256.07474,256.0856,70,62,0
255.86821,256.0856,60,62,0
256.07474,256.0856,60,62,0
255.86821,256.0856,67,62,0
256.07474,256.0856,67,62,0
256.30298,256.5204,72,36,0
256.30298,256.5204,60,36,0
256.30298,256.5204,67,36,0
256.30298,256.5204,70,36,0
256.5204,256.73776,72,36,0
256.7269,256.73776,72,36,0
256.5204,256.73776,70,36,0
256.7269,256.73776,70,36,0
256.5204,256.73776,60,36,0
256.7269,256.73776,60,36,0
256.5204,256.73776,67,36,0
256.7269,256.73776,67,36,0
256.95517,257.17255,72,36,0
256.95517,257.17255,60,36,0
256.95517,257.17255,67,36,0
256.95517,257.17255,70,36,0
257.17255,257.38995,72,36,0
257.3791,257.38995,72,36,0
257.17255,257.38995,70,36,0
257.3791,257.38995,70,36,0
257.17255,257.38995,60,36,0
257.3791,257.38995,60,36,0
257.17255,257.38995,67,36,0
257.3791,257.38995,67,36,0
257.60733,257.82474,72,36,0
257.60733,257.82474,60,36,0
257.60733,257.82474,67,36,0
257.60733,257.82474,70,36,0
257.82474,258.0421,72,36,0
258.03125,258.0421,72,36,0
257.82474,258.0421,70,36,0
258.03125,258.0421,70,36,0
257.82474,258.0421,60,36,0
258.03125,258.0421,60,36,0
257.82474,258.0421,67,36,0
258.03125,258.0421,67,36,0
258.25952,258.4769,72,49,0
258.25952,258.4769,69,49,0
258.25952,258.4769,65,49,0
258.4769,258.6943,72,49,0
258.68344,258.6943,72,49,0
258.4769,258.6943,65,49,0
258.68344,258.6943,65,49,0
258.4769,258.6943,69,49,0
258.68344,258.6943,69,49,0
258.91168,259.1291,72,49,0
258.91168,259.1291,69,49,0
258.91168,259.1291,65,49,0
259.1291,259.34647,72,49,0
259.3356,259.34647,72,49,0
259.1291,259.34647,65,49,0
259.3356,259.34647,65,49,0
259.1291,259.34647,69,49,0
259.3356,259.34647,69,49,0
259.56387,259.78125,73,75,0
259.56387,259.78125,70,70,0
259.56387,259.78125,64,65,0
259.78125,259.99866,72,49,0
259.98776,259.99866,72,49,0
259.78125,259.99866,64,49,0
259.98776,259.99866,64,49,0
259.78125,259.99866,70,49,0
259.98776,259.99866,70,49,0
260.21603,260.25952,72,49,0
260.21603,260.25952,70,49,0
260.21603,260.25952,64,49,0
260.43344,260.4769,72,49,0
260.43344,260.4769,70,49,0
260.43344,260.4769,64,49,0
260.63995,260.68344,72,49,0
260.63995,260.68344,70,49,0
260.63995,260.68344,64,49,0
260.86823,261.0856,74,75,0
260.86823,261.0856,69,70,0
260.86823,261.0856,65,65,0
261.0856,261.303,72,49,0
261.2921,261.303,72,49,0
261.0856,261.303,65,49,0
261.2921,261.303,65,49,0
261.0856,261.303,69,49,0
261.2921,261.303,69,49,0
261.5204,261.56387,72,49,0
261.5204,261.56387,69,49,0
261.5204,261.56387,65,49,0
261.73776,261.78125,72,49,0
261.73776,261.78125,69,49,0
261.73776,261.78125,65,49,0
261.9443,261.98776,72,49,0
261.9443,261.98776,69,49,0
261.9443,261.98776,65,49,0
262.17255,262.38995,77,75,0
262.17255,262.38995,73,70,0
262.17255,262.38995,67,65,0
262.38995,262.60733,76,49,0
262.59647,262.60733,76,49,0
262.38995,262.60733,67,49,0
262.59647,262.60733,67,49,0
262.38995,262.60733,73,49,0
262.59647,262.60733,73,49,0
262.82474,262.86823,76,49,0
262.82474,262.86823,73,49,0
262.82474,262.86823,67,49,0
263.0421,263.0856,76,49,0
263.0421,263.0856,73,49,0
263.0421,263.0856,67,49,0
263.24866,263.2921,76,49,0
263.24866,263.2921,73,49,0
263.24866,263.2921,67,49,0
263.4769,263.6943,79,49,0
263.4769,263.6943,72,49,0
263.6943,263.91168,77,49,0
263.90082,263.91168,77,49,0
263.6943,263.91168,72,49,0
263.90082,263.91168,72,49,0
264.1291,264.17255,77,49,0
264.1291,264.17255,72,49,0
264.34647,264.38995,77,49,0
264.34647,264.38995,72,49,0
264.553,264.59647,77,49,0
264.553,264.59647,72,49,0
264.78125,264.99866,77,49,0
264.99866,265.21603,75,49,0
265.20517,265.21603,75,49,0
265.43344,265.65082,75,49,0
265.65082,265.86823,74,49,0
265.85733,265.86823,74,49,0
266.0856,266.41168,72,36,0
266.0856,266.41168,63,36,0
267.2269,267.38995,79,36,0
267.38995,267.8791,75,36,0
267.8791,268.0421,74,36,0
268.0421,268.53125,72,36,0
268.53125,268.6943,78,36,0
268.53125,268.6943,70,36,0
268.6943,268.91168,78,36,0
268.6943,268.91168,70,36,0
268.91168,269.1291,77,36,0
268.91168,269.1291,69,36,0
269.8356,269.99866,72,36,0
269.99866,270.4878,70,36,0
270.4878,270.65082,69,36,0
270.65082,271.13995,66,36,0
271.13995,271.303,65,36,0
271.303,271.95517,70,49,0
271.95517,272.60733,71,49,0
272.60733,273.25952,72,62,0
273.25952,273.91168,73,62,0
273.91168,274.56387,74,62,0
274.56387,275.21603,73,62,0
275.21603,275.86823,72,49,0
275.86823,276.5204,76,49,0
276.5204,277.17255,77,49,0
277.66168,277.82474,80,36,0
277.82474,278.31387,77,36,0
278.31387,278.4769,75,36,0
278.4769,278.96603,74,36,0
278.96603,279.1291,80,36,0
278.96603,279.1291,72,36,0
279.1291,279.34647,80,36,0
279.1291,279.34647,72,36,0
279.34647,279.56387,79,36,0
279.34647,279.56387,71,36,0
280.2704,280.43344,86,36,0
280.43344,280.92258,83,36,0
280.92258,281.0856,80,36,0
281.0856,281.57474,79,36,0
281.57474,281.7378,83,36,0
281.57474,281.7378,74,36,0
281.7378,281.95517,83,36,0
281.7378,281.95517,74,36,0
281.95517,282.17258,84,36,0
281.95517,282.17258,75,36,0
282.8791,283.0421,79,36,0
283.0421,283.53125,75,36,0
283.53125,283.6943,74,36,0
283.6943,284.18344,72,36,0
284.18344,284.34647,78,36,0
284.18344,284.34647,70,36,0
284.34647,284.56387,78,36,0
284.34647,284.56387,70,36,0
284.56387,284.78125,77,36,0
284.56387,284.78125,69,36,0
285.4878,285.65082,84,36,0
285.65082,286.13995,81,36,0
286.13995,286.303,78,36,0
286.303,286.7921,77,36,0
286.7921,286.95517,81,36,0
286.7921,286.95517,72,36,0
286.95517,287.17258,81,49,0
286.95517,287.17258,72,49,0
287.17258,287.38995,82,49,0
287.3791,287.38995,82,49,0
287.17258,287.38995,70,49,0
287.3791,287.38995,70,49,0
287.60733,287.65082,82,62,0
287.60733,287.65082,70,62,0
287.82474,287.86823,82,62,0
287.82474,287.86823,70,62,0
288.03125,288.07474,82,62,0
288.03125,288.07474,70,62,0
288.25952,288.4769,82,75,0
288.25952,288.4769,70,75,0
288.4769,288.6943,81,75,0
288.68344,288.6943,81,75,0
288.4769,288.6943,72,75,0
288.68344,288.6943,72,75,0
288.91168,288.95517,81,75,0
288.91168,288.95517,72,75,0
289.1291,289.17258,81,75,0
289.1291,289.17258,72,75,0
289.3356,289.3791,81,75,0
289.3356,289.3791,72,75,0
289.56387,289.78125,81,75,0
289.56387,289.78125,72,75,0
289.78125,289.99866,79,75,0
289.9878,289.99866,79,75,0
289.78125,289.99866,70,75,0
289.9878,289.99866,70,75,0
290.21603,290.43344,79,62,0
290.21603,290.43344,70,62,0
290.43344,290.65082,77,62,0
290.63995,290.65082,77,62,0
290.43344,290.65082,71,62,0
290.63995,290.65082,71,62,0
290.86823,291.0856,77,62,0
290.86823,291.0856,71,62,0
291.0856,291.303,75,62,0
291.2921,291.303,75,62,0
291.0856,291.303,72,62,0
291.2921,291.303,72,62,0
291.5204,291.7378,75,49,0
291.5204,291.7378,72,49,0
291.7378,291.95517,73,49,0
291.9443,291.95517,73,49,0
291.7378,291.95517,70,49,0
291.9443,291.95517,70,49,0
292.17258,292.38995,72,36,0
292.17258,292.38995,70,36,0
292.38995,292.60736,74,36,0
292.59647,292.60736,74,36,0
292.38995,292.60736,70,36,0
292.59647,292.60736,70,36,0
292.82474,292.87125,74,36,0
292.82474,292.87125,70,36,0
293.05728,293.10382,74,36,0
293.05728,293.10382,70,36,0
293.27823,293.32474,74,36,0
293.27823,293.32474,70,36,0
293.5224,293.7724,74,36,0
293.5224,293.7724,62,36,0
293.7724,294.0224,66,36,0
294.00992,294.0224,66,36,0
293.7724,294.0224,60,36,0
294.00992,294.0224,60,36,0
294.2724,294.32648,66,36,0
294.2724,294.32648,60,36,0
294.5427,294.59674,66,36,0
294.5427,294.59674,60,36,0
294.79944,294.8535,66,36,0
294.79944,294.8535,60,36,0
295.08322,296.18213,67,49,0
295.08322,296.18213,58,49,0
296.18213,296.56674,79,75,0
296.56674,296.61325,77,49,0
296.9156,296.9621,75,49,0
297.2644,297.31442,74,49,0
297.6394,297.68942,73,49,0
298.0144,299.08585,74,49,0
299.08585,299.443,84,75,0
299.443,299.4906,82,49,0
299.80014,299.84775,81,49,0
300.15726,300.2049,79,49,0
300.5144,300.56204,78,49,0
300.87155,301.943,79,49,0
301.7644,301.943,79,75,0
301.943,302.30014,82,49,0
302.30014,302.34775,81,49,0
302.65726,302.7049,79,49,0
303.0144,303.06204,77,49,0
303.37155,303.4192,75,49,0
303.7287,304.70697,74,62,0
304.5439,304.70697,74,62,0
304.70697,305.03305,84,88,0
305.03305,305.07654,82,62,0
305.35913,305.40262,81,62,0
305.6852,305.7287,79,62,0
306.01132,306.05478,78,62,0
306.3374,307.31564,79,75,0
307.31564,307.64175,80,101,0
307.64175,307.6852,79,75,0
307.96783,308.01132,77,75,0
308.2939,308.3374,75,75,0
308.62,308.66348,74,75,0
308.94608,309.92435,75,75,0
309.92435,310.25043,75,88,0
310.25043,310.2939,74,114,0
310.57654,310.62,72,114,0
310.90262,310.94608,70,114,0
311.2287,311.2722,69,114,0
311.55478,312.20697,74,114,0
312.85913,313.51132,66,49,0
312.85913,313.51132,60,49,0
314.16348,315.46783,67,36,0
314.16348,315.46783,62,36,0
314.16348,315.46783,58,36,0
315.46783,316.7722,67,36,0
315.46783,316.7722,62,36,0
315.46783,316.7722,59,36,0
316.7722,318.07654,67,36,0
316.7722,318.07654,63,36,0
316.7722,318.07654,60,36,0
318.07654,319.38086,66,36,0
318.07654,319.38086,62,36,0
318.07654,319.38086,57,36,0
319.38086,320.7307,67,36,0
319.38086,320.7307,62,36,0
319.38086,320.7307,58,36,0
320.7307,322.29153,67,36,0
320.7307,322.29153,62,36,0
320.7307,322.29153,59,36,0
322.29153,324.20062,67,36,0
322.29153,324.20062,63,36,0
322.29153,324.20062,60,36,0
324.20062,326.56174,66,36,0
324.20062,326.56174,62,36,0
324.20062,326.56174,57,36,0
326.56174,327.9903,67,114,0
327.89508,327.9903,67,114,0
326.56174,327.9903,58,114,0
327.7165,327.9903,58,114,0
326.56174,327.9903,62,114,0
327.81174,327.9903,62,114,0
327.9903,329.29465,70,49,0
329.29465,331.90335,67,36,0
329.29465,331.90335,62,36,0
329.29465,331.90335,58,36,0
0.0,1.304348,62,36,0
1.304348,2.608696,66,36,0
1.304348,2.608696,60,36,0
2.608696,3.913044,58,36,0
6.52174,7.826088,64,36,0
7.826088,8.478262,66,36,0
11.739132,13.04348,66,36,0
16.956524,18.260872,69,36,0
18.260872,18.913046,70,36,0
22.173916,23.478264,70,36,0
23.478264,24.130438,70,36,0
24.782612,26.08696,67,36,0
26.08696,26.739134,65,36,0
33.913048,35.217396,66,36,0
33.913048,35.217396,60,36,0
39.13044,40.434788,67,49,0
39.13044,40.434788,65,49,0
40.434788,41.086964,67,62,0
41.086964,42.39131,67,75,0
44.34783,45.65218,69,62,0
49.565224,50.86957,66,36,0
49.565224,50.86957,60,36,0
69.782616,71.73914,70,36,0
72.39131,74.34784,70,36,0
75.00001,76.956535,70,36,0
77.6087,79.56523,70,36,0
90.65218,92.60871,70,36,0
93.26088,95.21741,70,36,0
95.869576,97.8261,70,36,0
98.47827,100.4348,70,36,0
130.912,131.40114,77,62,0
130.912,131.40114,72,62,0
131.40114,131.56418,77,62,0
131.40114,131.56418,72,62,0
131.56418,132.0533,76,62,0
131.56418,132.0533,70,62,0
132.0533,132.21635,76,62,0
132.0533,132.21635,70,62,0
142.65114,143.30331,75,49,0
143.30331,143.95547,76,49,0
143.95547,144.60765,77,62,0
144.60765,145.25983,78,62,0
145.25983,145.912,79,62,0
145.912,146.56418,78,62,0
146.56418,147.21635,77,49,0
147.21635,147.86853,81,49,0
170.93965,171.17775,62,62,0
171.16585,171.40395,61,36,0
171.41585,171.65395,62,36,0
171.65395,171.89204,63,36,0
171.88013,172.11823,62,36,0
172.13013,173.5587,66,36,0
172.13013,173.5587,60,36,0
173.5587,174.98727,58,36,0
176.65395,176.89204,62,62,0
176.88013,177.11823,61,36,0
177.13013,177.36823,62,36,0
177.36823,177.60632,63,36,0
177.59442,177.83252,62,36,0
177.84442,179.273,67,36,0
177.84442,179.273,62,36,0
179.273,179.98727,66,36,0
179.273,179.98727,62,36,0
182.34752,182.56491,62,62,0
182.55405,182.77144,61,36,0
182.7823,182.9997,62,36,0
182.9997,183.21709,63,36,0
183.20622,183.42361,62,36,0
183.43448,184.73883,66,36,0
183.43448,184.73883,60,36,0
184.73883,186.04317,58,36,0
187.56491,187.7823,63,36,0
187.77144,187.98883,66,36,0
187.9997,188.21709,70,36,0
188.21709,188.43448,66,36,0
188.42361,188.641,63,36,0
188.86926,189.08665,65,36,0
189.07579,189.29318,69,36,0
189.30405,189.52144,72,36,0
189.52144,189.73883,69,36,0
189.72795,190.59752,65,36,0
194.08665,194.30405,77,75,0
194.29318,194.51057,76,49,0
194.52144,194.73883,77,49,0
194.73883,194.95622,79,49,0
194.94534,195.16273,77,49,0
196.69534,196.91273,69,62,0
196.90187,197.11926,70,36,0
197.13013,197.34752,72,36,0
197.34752,197.56491,70,36,0
197.55405,197.77144,69,36,0
199.08665,199.73883,67,36,0
203.65187,205.6084,77,36,0
206.26057,208.21709,77,36,0
208.86926,210.82579,77,36,0
211.47797,213.43448,77,36,0
224.52144,226.47797,65,36,0
227.13014,229.08665,65,36,0
229.73883,231.69536,65,36,0
232.34753,234.30405,65,36,0
264.78125,265.2704,72,36,0
264.78125,265.2704,67,36,0
265.2704,265.43344,72,36,0
265.2704,265.43344,67,36,0
265.43344,265.92255,71,36,0
265.43344,265.92255,65,36,0
265.92255,266.0856,71,36,0
265.92255,266.0856,65,36,0
271.303,272.60733,77,36,0
272.60733,273.91168,77,36,0
273.91168,275.21603,77,36,0
275.21603,275.86823,77,62,0
275.86823,276.1943,80,62,0
276.1943,276.5204,79,62,0
0.0,1.304348,58,36,0
0.0,1.304348,55,36,0
1.304348,2.608696,50,36,0
2.608696,3.913044,43,36,0
4.565218,4.891305,43,36,0
4.891305,5.217392,46,36,0
5.217392,6.52174,54,36,0
5.217392,6.52174,50,36,0
6.52174,7.826088,55,36,0
6.52174,7.826088,49,36,0
7.826088,8.478262,54,36,0
7.826088,8.478262,50,36,0
10.434784,11.739132,58,36,0
10.434784,11.739132,55,36,0
11.739132,13.04348,60,36,0
11.739132,13.04348,50,36,0
13.04348,14.347828,58,36,0
13.04348,14.347828,51,36,0
15.000002,15.326089,51,36,0
15.326089,15.652176,53,36,0
15.652176,16.956524,58,36,0
15.652176,16.956524,54,36,0
16.956524,18.260872,60,36,0
16.956524,18.260872,53,36,0
18.260872,18.913046,62,36,0
18.260872,18.913046,58,36,0
20.869568,21.195656,52,36,0
21.195656,21.521742,55,36,0
21.521742,21.84783,55,36,0
21.84783,22.173916,60,36,0
22.173916,23.478264,65,36,0
22.173916,23.478264,61,36,0
23.478264,24.130438,67,36,0
23.478264,24.130438,60,36,0
24.782612,25.434786,60,36,0
25.434786,25.760874,58,36,0
25.760874,26.08696,57,36,0
26.08696,26.739134,58,36,0
27.391308,28.043482,60,36,0
27.391308,28.043482,57,36,0
28.695656,29.34783,62,36,0
30.000004,30.652178,62,36,0
32.6087,33.913048,58,36,0
32.6087,33.913048,55,36,0
33.913048,35.217396,50,36,0
35.217396,36.521744,43,36,0
37.17392,37.239136,46,36,0
37.82609,39.13044,57,36,0
37.82609,39.13044,55,36,0
37.82609,39.13044,48,36,0
39.13044,40.434788,59,49,0
39.13044,40.434788,55,49,0
39.13044,40.434788,50,49,0
40.434788,41.086964,60,62,0
40.434788,41.086964,55,62,0
40.434788,41.086964,51,62,0
41.086964,42.39131,61,75,0
41.086964,42.39131,52,75,0
41.086964,42.39131,55,75,0
41.086964,42.39131,58,75,0
43.043484,44.34783,62,75,0
43.043484,44.34783,53,75,0
44.34783,45.65218,60,62,0
44.34783,45.65218,54,62,0
45.65218,46.956528,58,49,0
45.65218,46.956528,55,49,0
48.260876,49.565224,50,36,0
49.565224,50.86957,50,36,0
49.565224,50.86957,38,36,0
51.521748,52.17392,62,36,0
52.17392,52.826096,67,36,0
52.826096,53.478268,58,36,0
52.826096,53.478268,55,36,0
53.478268,54.130444,57,36,0
53.478268,54.130444,54,36,0
54.130444,54.782616,69,62,0
54.130444,54.782616,62,54,0
54.782616,55.43479,72,36,0
54.782616,55.43479,63,36,0
55.43479,56.086964,63,36,0
55.43479,56.086964,60,36,0
56.086964,56.73914,62,49,0
56.086964,56.73914,58,49,0
56.73914,57.39131,62,75,0
57.39131,58.043488,63,49,0
58.043488,58.69566,58,49,0
58.043488,58.69566,55,49,0
58.69566,59.347836,57,62,0
58.69566,59.347836,54,62,0
59.347836,60.000008,69,114,0
59.347836,60.000008,62,98,0
60.000008,60.652184,72,62,0
60.000008,60.652184,63,62,0
60.652184,61.304356,63,62,0
60.652184,61.304356,60,62,0
61.304356,61.95653,62,62,0
61.304356,61.95653,58,62,0
61.95653,62.608704,62,62,0
62.608704,63.26088,65,62,0
63.26088,63.91305,68,62,0
63.91305,64.89131,67,62,0
63.91305,64.89131,60,62,0
64.89131,65.2174,63,75,0
64.89131,65.2174,51,75,0
65.2174,65.26088,62,101,0
65.2174,65.26088,50,93,0
65.54349,65.58697,60,101,0
65.54349,65.58697,48,93,0
65.869576,65.913055,58,101,0
65.869576,65.913055,46,93,0
66.19566,66.239136,57,101,0
66.19566,66.239136,45,93,0
66.52175,67.17392,62,101,0
66.52175,67.17392,50,101,0
67.826096,68.47827,50,36,0
67.826096,68.47827,38,36,0
69.13045,69.19566,51,88,0
69.13045,69.19566,46,88,0
69.13045,69.19566,39,88,0
69.782616,71.73914,67,62,0
71.73914,71.80436,58,88,0
71.73914,71.80436,53,88,0
71.73914,71.80436,46,88,0
72.39131,74.34784,68,62,0
74.34784,74.413055,51,88,0
74.34784,74.413055,46,88,0
74.34784,74.413055,39,88,0
75.00001,76.956535,67,62,0
76.956535,77.02175,58,88,0
76.956535,77.02175,53,88,0
76.956535,77.02175,46,88,0
77.6087,79.56523,68,62,0
79.56523,80.2174,63,101,0
79.56523,80.2174,58,101,0
79.56523,80.2174,55,101,0
80.54349,80.869576,55,36,0
80.869576,81.19566,58,36,0
81.19566,81.52175,61,36,0
81.52175,81.84784,58,36,0
81.84784,82.17393,55,36,0
82.17393,82.826096,60,36,0
82.17393,82.826096,56,36,0
83.80436,84.13045,56,36,0
84.13045,84.456535,60,36,0
84.456535,84.78262,65,36,0
84.78262,85.43479,68,36,0
84.78262,85.43479,65,36,0
84.78262,85.43479,59,36,0
86.08697,86.73914,67,36,0
86.08697,86.73914,63,36,0
86.08697,86.73914,60,36,0
87.39132,88.369576,60,36,0
87.39132,88.369576,56,36,0
88.69566,89.67393,65,36,0
88.69566,89.67393,58,36,0
90.000015,90.06523,51,88,0
90.000015,90.06523,46,88,0
90.000015,90.06523,39,88,0
90.65218,92.60871,67,62,0
92.60871,92.67393,58,88,0
92.60871,92.67393,53,88,0
92.60871,92.67393,46,88,0
93.26088,95.21741,68,62,0
95.21741,95.28262,51,88,0
95.21741,95.28262,46,88,0
95.21741,95.28262,39,88,0
95.869576,97.8261,67,62,0
97.8261,97.89132,58,88,0
97.8261,97.89132,53,88,0
97.8261,97.89132,46,88,0
98.47827,100.4348,68,62,0
100.4348,101.08697,63,101,0
100.4348,101.08697,58,101,0
100.4348,101.08697,55,101,0
101.413055,101.73914,55,36,0
101.73914,102.06523,58,36,0
102.06523,102.39132,61,36,0
102.39132,102.71741,58,36,0
102.71741,103.043495,55,36,0
103.043495,103.69566,60,36,0
103.043495,103.69566,56,36,0
105.3261,105.65219,58,36,0
105.65219,106.01804,61,36,0
106.01804,106.383896,64,36,0
106.383896,106.74975,61,36,0
106.74975,107.1156,58,36,0
107.1156,108.213165,63,36,0
107.1156,108.213165,60,36,0
110.36852,110.69461,60,75,0
110.69461,111.02069,63,75,0
111.02069,111.34678,68,75,0
111.34678,111.998955,70,75,0
111.34678,111.998955,58,75,0
112.65113,113.30331,68,36,0
112.65113,113.30331,62,36,0
112.65113,113.30331,58,36,0
113.955475,114.60765,67,49,0
113.955475,114.60765,63,49,0
114.93374,115.25983,67,62,0
114.93374,115.25983,55,62,0
115.25983,115.748955,65,62,0
115.25983,115.748955,53,62,0
115.748955,115.912,63,62,0
115.748955,115.912,51,62,0
115.912,116.40113,62,75,0
115.912,116.40113,50,75,0
116.40113,116.56417,60,75,0
116.40113,116.56417,48,75,0
116.56417,117.542435,59,88,0
116.56417,117.542435,47,88,0
117.542435,117.86852,62,88,0
117.542435,117.86852,50,88,0
117.86852,118.35765,60,75,0
117.86852,118.35765,48,75,0
118.35765,118.5207,59,75,0
118.35765,118.5207,47,75,0
118.5207,119.00983,57,62,0
118.5207,119.00983,45,62,0
119.00983,119.17287,55,62,0
119.00983,119.17287,43,62,0
119.17287,120.15113,60,49,0
119.17287,120.15113,48,49,0
120.15113,120.47722,67,62,0
120.15113,120.47722,55,62,0
120.47722,120.96635,63,62,0
120.47722,120.96635,51,62,0
120.96635,121.129395,62,62,0
120.96635,121.129395,50,62,0
121.129395,121.61852,60,75,0
121.129395,121.61852,48,75,0
121.61852,121.78156,58,75,0
121.61852,121.78156,46,75,0
121.78156,122.75983,57,88,0
121.78156,122.75983,45,88,0
122.75983,123.085915,60,88,0
122.75983,123.085915,48,88,0
123.085915,123.57504,58,75,0
123.085915,123.57504,46,75,0
123.57504,123.73809,57,75,0
123.57504,123.73809,45,75,0
123.73809,124.22722,55,62,0
123.73809,124.22722,43,62,0
124.22722,124.39026,53,62,0
124.22722,124.39026,41,62,0
124.39026,124.60765,65,36,0
124.60765,124.82504,65,36,0
124.81417,124.82504,65,36,0
125.042435,125.25983,65,36,0
125.25983,125.47722,65,36,0
125.46635,125.47722,65,36,0
125.69461,125.912,66,36,0
125.912,126.129395,65,36,0
126.11852,126.129395,65,36,0
126.34679,126.39026,65,36,0
126.56417,126.60765,65,36,0
126.7707,126.81417,65,36,0
126.998955,127.21635,67,49,0
127.21635,127.43374,65,49,0
127.42287,127.43374,65,49,0
127.65113,127.69461,65,49,0
127.86852,127.912,65,49,0
128.07504,128.11852,65,49,0
128.3033,128.52069,70,49,0
128.52069,128.73808,69,49,0
128.72722,128.73808,69,49,0
128.95547,128.99896,69,49,0
129.17287,129.21635,69,49,0
129.3794,129.42287,69,49,0
129.60765,129.82504,72,36,0
129.82504,130.04243,70,36,0
130.03157,130.04243,70,36,0
130.25983,130.3033,70,36,0
130.47722,130.52069,70,36,0
130.68375,130.72722,70,36,0
130.912,131.1294,70,36,0
131.1294,131.34679,68,36,0
131.3359,131.34679,68,36,0
131.56418,131.78157,68,36,0
131.78157,131.99896,67,36,0
131.98808,131.99896,67,36,0
132.21635,132.43375,65,36,0
132.21635,132.43375,53,36,0
132.43375,132.65114,68,36,0
132.64026,132.65114,68,36,0
132.43375,132.65114,65,36,0
132.64026,132.65114,65,36,0
132.86853,133.0859,68,36,0
132.86853,133.0859,65,36,0
133.0859,133.3033,68,36,0
133.29243,133.3033,68,36,0
133.0859,133.3033,65,36,0
133.29243,133.3033,65,36,0
133.52069,133.73808,68,36,0
133.52069,133.73808,65,36,0
133.73808,133.95547,68,36,0
133.94461,133.95547,68,36,0
133.73808,133.95547,65,36,0
133.94461,133.95547,65,36,0
134.17287,134.39026,68,36,0
134.17287,134.39026,65,36,0
134.39026,134.60765,68,36,0
134.59679,134.60765,68,36,0
134.39026,134.60765,65,36,0
134.59679,134.60765,65,36,0
134.82504,135.04243,68,36,0
134.82504,135.04243,65,36,0
135.04243,135.25983,70,36,0
135.24896,135.25983,70,36,0
135.04243,135.25983,67,36,0
135.24896,135.25983,67,36,0
135.47722,135.52069,70,36,0
135.47722,135.52069,67,36,0
135.69461,135.73808,70,36,0
135.69461,135.73808,67,36,0
135.90114,135.94461,70,36,0
135.90114,135.94461,67,36,0
136.1294,136.34679,70,36,0
136.1294,136.34679,67,36,0
136.34679,136.56418,70,36,0
136.5533,136.56418,70,36,0
136.34679,136.56418,67,36,0
136.5533,136.56418,67,36,0
136.78157,136.99896,70,36,0
136.78157,136.99896,67,36,0
136.99896,137.21635,70,36,0
137.20547,137.21635,70,36,0
136.99896,137.21635,67,36,0
137.20547,137.21635,67,36,0
137.43375,137.65114,70,36,0
137.43375,137.65114,67,36,0
137.65114,137.86853,72,36,0
137.85765,137.86853,72,36,0
137.65114,137.86853,68,36,0
137.85765,137.86853,68,36,0
138.08592,138.1294,72,36,0
138.08592,138.1294,68,36,0
138.3033,138.34679,72,36,0
138.3033,138.34679,68,36,0
138.50983,138.5533,72,36,0
138.50983,138.5533,68,36,0
138.73808,138.95547,72,36,0
138.73808,138.95547,68,36,0
138.95547,139.17287,72,36,0
139.162,139.17287,72,36,0
138.95547,139.17287,68,36,0
139.162,139.17287,68,36,0
139.39026,139.60765,72,36,0
139.39026,139.60765,68,36,0
139.60765,139.82504,72,36,0
139.60765,139.82504,68,36,0
139.81418,139.82504,68,36,0
139.81418,140.03157,65,36,0
140.04243,140.25983,68,36,0
140.04243,140.25983,65,36,0
140.25983,140.47722,68,36,0
140.46635,140.47722,68,36,0
140.25983,140.47722,65,36,0
140.46635,140.47722,65,36,0
140.69461,140.912,68,36,0
140.69461,140.912,65,36,0
140.912,141.1294,68,36,0
141.11853,141.1294,68,36,0
140.912,141.1294,65,36,0
141.11853,141.1294,65,36,0
141.34679,141.56418,68,36,0
141.34679,141.56418,65,36,0
141.56418,141.78157,68,36,0
141.77069,141.78157,68,36,0
141.56418,141.78157,65,36,0
141.77069,141.78157,65,36,0
141.99896,142.21635,68,36,0
141.99896,142.21635,65,36,0
142.21635,142.43375,68,36,0
142.42287,142.43375,68,36,0
142.21635,142.43375,65,36,0
142.42287,142.43375,65,36,0
142.65114,142.86853,70,36,0
142.65114,142.86853,67,36,0
142.86853,143.08592,70,36,0
143.07504,143.08592,70,36,0
142.86853,143.08592,67,36,0
143.07504,143.08592,67,36,0
143.30331,143.52069,70,36,0
143.30331,143.52069,67,36,0
143.52069,143.73808,70,36,0
143.72722,143.73808,70,36,0
143.52069,143.73808,67,36,0
143.72722,143.73808,67,36,0
143.95547,144.17287,70,36,0
143.95547,144.17287,68,36,0
143.95547,144.17287,62,36,0
144.17287,144.39026,70,36,0
144.3794,144.39026,70,36,0
144.17287,144.39026,62,36,0
144.3794,144.39026,62,36,0
144.17287,144.39026,68,36,0
144.3794,144.39026,68,36,0
144.60765,144.82504,70,36,0
144.60765,144.82504,68,36,0
144.60765,144.82504,62,36,0
144.82504,145.04243,70,36,0
145.03157,145.04243,70,36,0
144.82504,145.04243,62,36,0
145.03157,145.04243,62,36,0
144.82504,145.04243,68,36,0
145.03157,145.04243,68,36,0
145.25983,145.47722,70,36,0
145.25983,145.47722,67,36,0
145.25983,145.47722,63,36,0
145.47722,145.69461,70,36,0
145.68375,145.69461,70,36,0
145.47722,145.69461,63,36,0
145.68375,145.69461,63,36,0
145.47722,145.69461,67,36,0
145.68375,145.69461,67,36,0
145.912,146.1294,72,36,0
145.912,146.1294,70,36,0
145.912,146.1294,63,36,0
146.1294,146.34679,72,36,0
146.33592,146.34679,72,36,0
146.1294,146.34679,63,36,0
146.33592,146.34679,63,36,0
146.1294,146.34679,70,36,0
146.33592,146.34679,70,36,0
146.56418,146.78157,73,36,0
146.56418,146.78157,70,36,0
146.56418,146.78157,65,36,0
146.78157,146.99896,73,36,0
146.98808,146.99896,73,36,0
146.78157,146.99896,65,36,0
146.98808,146.99896,65,36,0
146.78157,146.99896,70,36,0
146.98808,146.99896,70,36,0
147.21635,147.43375,75,36,0
147.21635,147.43375,65,36,0
147.43375,147.65114,75,36,0
147.64026,147.65114,75,36,0
147.43375,147.65114,65,36,0
147.64026,147.65114,65,36,0
147.86853,148.08592,73,36,0
147.86853,148.08592,70,36,0
148.08592,148.30331,73,36,0
148.29243,148.30331,73,36,0
148.08592,148.30331,70,36,0
148.29243,148.30331,70,36,0
148.5207,148.73808,73,36,0
148.5207,148.73808,70,36,0
148.73808,148.95547,73,36,0
148.94461,148.95547,73,36,0
148.73808,148.95547,70,36,0
148.94461,148.95547,70,36,0
149.17287,149.39026,73,36,0
149.17287,149.39026,70,36,0
149.39026,149.60765,73,36,0
149.59679,149.60765,73,36,0
149.39026,149.60765,70,36,0
149.59679,149.60765,70,36,0
149.82504,150.04243,73,36,0
149.82504,150.04243,70,36,0
150.04243,150.25983,73,36,0
150.24896,150.25983,73,36,0
150.04243,150.25983,70,36,0
150.24896,150.25983,70,36,0
150.47722,150.80331,72,36,0
150.47722,150.80331,70,36,0
151.61853,151.78157,60,49,0
151.78157,152.2707,58,49,0
152.2707,152.43375,56,49,0
152.43375,152.92287,55,49,0
152.92287,153.08592,53,49,0
153.08592,153.7381,52,49,0
154.22722,154.39026,48,49,0
154.39026,154.8794,46,49,0
154.8794,155.04243,44,49,0
155.04243,155.53157,43,49,0
155.53157,155.69461,41,49,0
155.69461,156.34679,40,49,0
156.83592,156.99896,41,49,0
156.99896,157.65114,40,49,0
158.14026,158.30331,41,49,0
158.30331,158.95549,40,49,0
160.25983,160.912,39,49,0
160.912,161.56418,38,49,0
162.05331,162.21635,39,49,0
162.21635,162.86853,38,49,0
163.35765,163.5207,39,49,0
163.5207,166.43137,38,49,0
166.43137,170.70157,50,49,0
166.43137,170.70157,38,49,0
170.70157,172.13013,55,36,0
170.70157,172.13013,43,36,0
172.36823,172.60632,50,62,0
172.59442,172.83252,49,36,0
172.84442,173.08252,50,36,0
173.08252,173.3206,51,36,0
173.3087,173.5468,50,36,0
173.5587,174.98727,43,36,0
175.70157,176.0587,43,36,0
176.0587,176.41585,46,36,0
176.41585,177.84442,50,36,0
178.08252,178.3206,55,62,0
178.3087,178.5468,50,36,0
178.5587,178.7968,46,36,0
178.7968,179.0349,43,36,0
179.023,179.26108,46,36,0
179.273,179.98727,50,36,0
182.13013,183.43448,55,36,0
182.13013,183.43448,43,36,0
183.65187,183.86926,50,62,0
183.8584,184.07579,49,36,0
184.08665,184.30405,50,36,0
184.30405,184.52144,51,36,0
184.51056,184.72795,50,36,0
184.73883,186.04317,51,36,0
186.69534,187.02144,51,36,0
187.02144,187.34752,53,36,0
187.34752,188.65187,58,36,0
187.34752,188.65187,54,36,0
188.65187,189.95622,60,36,0
188.65187,189.95622,53,36,0
189.95622,190.6084,58,36,0
189.95622,190.6084,55,36,0
192.7823,192.9997,52,62,0
192.98883,193.20622,55,36,0
193.21709,193.43448,52,36,0
193.43448,193.65187,55,36,0
193.641,193.8584,60,36,0
193.86926,195.17361,65,49,0
193.86926,195.17361,61,49,0
195.17361,195.82579,67,49,0
195.17361,195.82579,60,49,0
196.47795,196.96709,60,36,0
196.96709,197.13013,58,36,0
197.13013,197.34752,57,36,0
197.34752,197.56491,58,36,0
197.55405,197.77144,60,36,0
197.7823,198.43448,58,36,0
199.08665,199.73883,63,36,0
199.08665,199.73883,51,36,0
200.391,201.04318,62,36,0
200.391,201.04318,58,36,0
200.391,201.04318,53,36,0
201.69534,202.34752,63,36,0
201.69534,202.34752,60,36,0
201.69534,202.34752,53,36,0
202.9997,203.06491,58,88,0
202.9997,203.06491,53,88,0
202.9997,203.06491,46,88,0
203.65187,205.6084,74,62,0
205.6084,205.67361,53,88,0
205.6084,205.67361,48,88,0
205.6084,205.67361,41,88,0
206.26057,208.21709,75,62,0
208.21709,208.2823,46,88,0
208.21709,208.2823,41,88,0
208.21709,208.2823,34,88,0
208.86926,210.82579,74,62,0
210.82579,211.47797,53,101,0
210.82579,211.47797,48,96,0
210.82579,211.47797,41,91,0
211.47797,213.43448,75,62,0
213.43448,214.08665,70,101,0
213.43448,214.08665,65,101,0
213.43448,214.08665,62,101,0
214.41275,214.73883,62,36,0
214.73883,215.06491,65,36,0
215.06491,215.391,68,36,0
215.391,215.71709,65,36,0
215.71709,216.04318,62,36,0
216.04318,216.69536,67,36,0
216.04318,216.69536,63,36,0
217.67361,217.9997,63,36,0
217.9997,218.32579,67,36,0
218.32579,218.65187,72,36,0
218.65187,219.30405,75,36,0
218.65187,219.30405,72,36,0
218.65187,219.30405,66,36,0
219.95622,220.6084,74,36,0
219.95622,220.6084,70,36,0
219.95622,220.6084,67,36,0
221.26057,222.23883,67,36,0
221.26057,222.23883,63,36,0
222.56491,223.54318,72,36,0
222.56491,223.54318,65,36,0
223.86926,223.93448,46,114,0
223.86926,223.93448,34,106,0
224.52144,226.47797,62,62,0
226.47797,226.54318,53,114,0
226.47797,226.54318,48,109,0
226.47797,226.54318,41,104,0
227.13014,229.08665,63,62,0
229.08665,229.15187,46,114,0
229.08665,229.15187,34,106,0
229.73883,231.69536,62,62,0
231.69536,231.76057,53,114,0
231.69536,231.76057,48,109,0
231.69536,231.76057,41,104,0
232.34753,234.30405,63,62,0
234.30405,234.95622,58,101,0
234.30405,234.95622,53,101,0
234.30405,234.95622,50,101,0
235.28232,235.6084,50,36,0
235.6084,235.93448,53,36,0
235.93448,236.26057,56,36,0
236.26057,236.58665,53,36,0
236.58665,236.91275,50,36,0
236.91275,237.891,55,36,0
236.91275,237.891,51,36,0
239.19536,239.52144,53,36,0
239.52144,239.8873,56,36,0
239.8873,240.25314,59,36,0
240.25314,240.619,56,36,0
240.619,240.98486,53,36,0
240.98486,242.08241,58,36,0
240.98486,242.08241,55,36,0
244.23778,244.56386,55,75,0
244.56386,244.88995,58,75,0
244.88995,245.21603,63,75,0
245.21603,245.86821,65,75,0
245.21603,245.86821,53,75,0
246.52039,247.17256,63,36,0
246.52039,247.17256,57,36,0
246.52039,247.17256,53,36,0
247.82474,248.803,62,36,0
247.82474,248.803,58,36,0
248.803,249.12907,62,49,0
248.803,249.12907,50,49,0
249.12907,249.61821,60,49,0
249.12907,249.61821,48,49,0
249.61821,249.78125,58,49,0
249.61821,249.78125,46,49,0
249.78125,250.27039,57,62,0
249.78125,250.27039,45,62,0
250.27039,250.43343,55,62,0
250.27039,250.43343,43,62,0
250.43343,251.41168,54,88,0
250.43343,251.41168,42,88,0
251.41168,251.73778,57,88,0
251.41168,251.73778,45,88,0
251.73778,252.22691,55,75,0
251.73778,252.22691,43,75,0
252.22691,252.38995,54,75,0
252.22691,252.38995,42,75,0
252.38995,252.87907,52,62,0
252.38995,252.87907,40,62,0
252.87907,253.04213,50,62,0
252.87907,253.04213,38,62,0
253.04213,254.02039,55,49,0
253.04213,254.02039,43,49,0
254.02039,254.34647,62,49,0
254.02039,254.34647,50,49,0
254.34647,254.8356,58,62,0
254.34647,254.8356,46,62,0
254.8356,254.99864,57,62,0
254.8356,254.99864,45,62,0
254.99864,255.48778,55,75,0
254.99864,255.48778,43,75,0
255.48778,255.65082,53,75,0
255.48778,255.65082,41,75,0
255.65082,256.6291,52,88,0
255.65082,256.6291,40,88,0
256.6291,256.95517,55,88,0
256.6291,256.95517,43,88,0
256.95517,257.4443,53,75,0
256.95517,257.4443,41,75,0
257.4443,257.60733,52,75,0
257.4443,257.60733,40,75,0
257.60733,258.09647,50,62,0
257.60733,258.09647,38,62,0
258.09647,258.25952,48,62,0
258.09647,258.25952,36,62,0
258.25952,258.4769,60,36,0
258.4769,258.6943,60,36,0
258.68344,258.6943,60,36,0
258.91168,259.1291,60,36,0
259.1291,259.34647,60,36,0
259.3356,259.34647,60,36,0
259.56387,259.78125,61,36,0
259.78125,259.99866,60,36,0
259.98776,259.99866,60,36,0
260.21603,260.25952,60,36,0
260.43344,260.4769,60,36,0
260.63995,260.68344,60,36,0
260.86823,261.0856,62,36,0
261.0856,261.303,60,36,0
261.2921,261.303,60,36,0
261.5204,261.56387,60,36,0
261.73776,261.78125,60,36,0
261.9443,261.98776,60,36,0
262.17255,262.38995,65,36,0
262.38995,262.60733,64,36,0
262.59647,262.60733,64,36,0
262.82474,262.86823,64,36,0
263.0421,263.0856,64,36,0
263.24866,263.2921,64,36,0
263.4769,263.6943,67,36,0
263.6943,263.91168,65,36,0
263.90082,263.91168,65,36,0
264.1291,264.17255,65,36,0
264.34647,264.38995,65,36,0
264.553,264.59647,65,36,0
264.78125,264.99866,65,36,0
264.99866,265.21603,63,36,0
265.20517,265.21603,63,36,0
265.43344,265.65082,63,36,0
265.65082,265.86823,62,36,0
265.85733,265.86823,62,36,0
266.0856,266.303,60,36,0
266.303,266.5204,63,36,0
266.50952,266.5204,63,36,0
266.303,266.5204,60,36,0
266.50952,266.5204,60,36,0
266.73776,266.95517,63,36,0
266.73776,266.95517,60,36,0
266.95517,267.17255,63,36,0
267.16168,267.17255,63,36,0
266.95517,267.17255,60,36,0
267.16168,267.17255,60,36,0
267.38995,267.60733,63,36,0
267.38995,267.60733,60,36,0
267.60733,267.82474,63,36,0
267.81387,267.82474,63,36,0
267.60733,267.82474,60,36,0
267.81387,267.82474,60,36,0
268.0421,268.25952,63,36,0
268.0421,268.25952,60,36,0
268.25952,268.4769,63,36,0
268.46603,268.4769,63,36,0
268.25952,268.4769,60,36,0
268.46603,268.4769,60,36,0
268.6943,268.91168,63,36,0
268.6943,268.91168,60,36,0
268.91168,269.1291,63,36,0
269.11823,269.1291,63,36,0
268.91168,269.1291,60,36,0
269.11823,269.1291,60,36,0
269.34647,269.56387,63,36,0
269.34647,269.56387,60,36,0
269.56387,269.78125,63,36,0
269.7704,269.78125,63,36,0
269.56387,269.78125,60,36,0
269.7704,269.78125,60,36,0
269.99866,270.21603,63,36,0
269.99866,270.21603,60,36,0
270.21603,270.43344,63,36,0
270.42255,270.43344,63,36,0
270.21603,270.43344,60,36,0
270.42255,270.43344,60,36,0
270.65082,270.86823,63,36,0
270.65082,270.86823,60,36,0
270.86823,271.0856,63,36,0
271.07474,271.0856,63,36,0
270.86823,271.0856,60,36,0
271.07474,271.0856,60,36,0
271.303,271.5204,65,36,0
271.303,271.5204,62,36,0
271.5204,271.7378,65,36,0
271.7269,271.7378,65,36,0
271.5204,271.7378,62,36,0
271.7269,271.7378,62,36,0
271.95517,272.17255,65,36,0
271.95517,272.17255,62,36,0
272.17255,272.38995,65,36,0
272.3791,272.38995,65,36,0
272.17255,272.38995,62,36,0
272.3791,272.38995,62,36,0
272.60733,272.82474,65,49,0
272.60733,272.82474,63,49,0
272.60733,272.82474,57,49,0
272.82474,273.0421,65,49,0
273.03125,273.0421,65,49,0
272.82474,273.0421,57,49,0
273.03125,273.0421,57,49,0
272.82474,273.0421,63,49,0
273.03125,273.0421,63,49,0
273.25952,273.4769,65,49,0
273.25952,273.4769,63,49,0
273.25952,273.4769,57,49,0
273.4769,273.6943,65,49,0
273.68344,273.6943,65,49,0
273.4769,273.6943,57,49,0
273.68344,273.6943,57,49,0
273.4769,273.6943,63,49,0
273.68344,273.6943,63,49,0
273.91168,274.1291,65,49,0
273.91168,274.1291,62,49,0
273.91168,274.1291,58,49,0
274.1291,274.34647,65,49,0
274.3356,274.34647,65,49,0
274.1291,274.34647,58,49,0
274.3356,274.34647,58,49,0
274.1291,274.34647,62,49,0
274.3356,274.34647,62,49,0
274.56387,274.78125,65,49,0
274.56387,274.78125,63,49,0
274.56387,274.78125,57,49,0
274.78125,274.99866,65,49,0
274.9878,274.99866,65,49,0
274.78125,274.99866,57,49,0
274.9878,274.99866,57,49,0
274.78125,274.99866,63,49,0
274.9878,274.99866,63,49,0
275.21603,275.43344,68,36,0
275.21603,275.43344,65,36,0
275.21603,275.43344,60,36,0
275.43344,275.65082,68,36,0
275.63995,275.65082,68,36,0
275.43344,275.65082,60,36,0
275.63995,275.65082,60,36,0
275.43344,275.65082,65,36,0
275.63995,275.65082,65,36,0
275.86823,276.0856,70,36,0
275.86823,276.0856,60,36,0
276.0856,276.303,70,36,0
276.2921,276.303,70,36,0
276.0856,276.303,60,36,0
276.2921,276.303,60,36,0
276.5204,276.7378,68,36,0
276.5204,276.7378,65,36,0
276.7378,276.95517,68,36,0
276.9443,276.95517,68,36,0
276.7378,276.95517,65,36,0
276.9443,276.95517,65,36,0
277.17255,277.38995,68,36,0
277.17255,277.38995,65,36,0
277.38995,277.60733,68,36,0
277.59647,277.60733,68,36,0
277.38995,277.60733,65,36,0
277.59647,277.60733,65,36,0
277.82474,278.0421,68,36,0
277.82474,278.0421,65,36,0
278.0421,278.25952,68,36,0
278.24866,278.25952,68,36,0
278.0421,278.25952,65,36,0
278.24866,278.25952,65,36,0
278.4769,278.6943,68,36,0
278.4769,278.6943,65,36,0
278.6943,278.91168,68,36,0
278.90082,278.91168,68,36,0
278.6943,278.91168,65,36,0
278.90082,278.91168,65,36,0
279.1291,279.34647,68,36,0
279.1291,279.34647,65,36,0
279.34647,279.56387,67,36,0
279.553,279.56387,67,36,0
279.34647,279.56387,65,36,0
279.553,279.56387,65,36,0
279.78125,279.82474,67,36,0
279.78125,279.82474,65,36,0
279.99866,280.0421,67,36,0
279.99866,280.0421,65,36,0
280.20517,280.24866,67,36,0
280.20517,280.24866,65,36,0
280.43344,280.65082,67,36,0
280.43344,280.65082,65,36,0
280.65082,280.86823,67,36,0
280.85733,280.86823,67,36,0
280.65082,280.86823,65,36,0
280.85733,280.86823,65,36,0
281.0856,281.303,67,36,0
281.0856,281.303,65,36,0
281.303,281.5204,67,36,0
281.50952,281.5204,67,36,0
281.303,281.5204,65,36,0
281.50952,281.5204,65,36,0
281.7378,281.95517,67,36,0
281.7378,281.95517,65,36,0
281.95517,282.17258,67,36,0
282.16168,282.17258,67,36,0
281.95517,282.17258,63,36,0
282.16168,282.17258,63,36,0
282.38995,282.43344,67,36,0
282.38995,282.43344,63,36,0
282.60733,282.65082,67,36,0
282.60733,282.65082,63,36,0
282.81387,282.85733,67,36,0
282.81387,282.85733,63,36,0
283.0421,283.25952,67,36,0
283.0421,283.25952,63,36,0
283.25952,283.4769,67,36,0
283.46603,283.4769,67,36,0
283.25952,283.4769,63,36,0
283.46603,283.4769,63,36,0
283.6943,283.91168,67,36,0
283.6943,283.91168,63,36,0
283.91168,284.1291,67,36,0
283.91168,284.1291,63,36,0
284.11823,284.1291,63,36,0
284.11823,284.3356,66,36,0
284.34647,284.56387,66,36,0
284.34647,284.56387,63,36,0
284.56387,284.78125,65,36,0
284.7704,284.78125,65,36,0
284.56387,284.78125,63,36,0
284.7704,284.78125,63,36,0
284.99866,285.0421,65,36,0
284.99866,285.0421,63,36,0
285.21603,285.25952,65,36,0
285.21603,285.25952,63,36,0
285.42258,285.46603,65,36,0
285.42258,285.46603,63,36,0
285.65082,285.86823,65,36,0
285.65082,285.86823,63,36,0
285.86823,286.0856,65,36,0
286.07474,286.0856,65,36,0
285.86823,286.0856,63,36,0
286.07474,286.0856,63,36,0
286.303,286.5204,65,36,0
286.303,286.5204,63,36,0
286.5204,286.7378,65,36,0
286.7269,286.7378,65,36,0
286.5204,286.7378,63,36,0
286.7269,286.7378,63,36,0
286.95517,287.17258,65,36,0
286.95517,287.17258,63,36,0
287.17258,287.38995,65,36,0
287.3791,287.38995,65,36,0
287.17258,287.38995,62,36,0
287.3791,287.38995,62,36,0
287.60733,287.65082,65,49,0
287.60733,287.65082,62,49,0
287.82474,287.86823,65,49,0
287.82474,287.86823,62,49,0
288.03125,288.07474,65,49,0
288.03125,288.07474,62,49,0
288.25952,288.4769,65,62,0
288.25952,288.4769,62,62,0
288.4769,288.6943,66,62,0
288.68344,288.6943,66,62,0
288.4769,288.6943,62,62,0
288.68344,288.6943,62,62,0
288.91168,288.95517,66,62,0
288.91168,288.95517,62,62,0
289.1291,289.17258,66,62,0
289.1291,289.17258,62,62,0
289.3356,289.3791,66,62,0
289.3356,289.3791,62,62,0
289.56387,289.78125,66,62,0
289.56387,289.78125,62,62,0
289.78125,289.99866,67,62,0
289.9878,289.99866,67,62,0
289.78125,289.99866,63,62,0
289.9878,289.99866,63,62,0
290.21603,290.43344,67,62,0
290.21603,290.43344,63,62,0
290.43344,290.65082,67,49,0
290.63995,290.65082,67,49,0
290.43344,290.65082,62,49,0
290.63995,290.65082,62,49,0
290.86823,291.0856,67,49,0
290.86823,291.0856,62,49,0
291.0856,291.303,67,49,0
291.2921,291.303,67,49,0
291.0856,291.303,60,49,0
291.2921,291.303,60,49,0
291.5204,291.7378,67,36,0
291.5204,291.7378,60,36,0
291.7378,291.95517,67,36,0
291.9443,291.95517,67,36,0
291.7378,291.95517,63,36,0
291.9443,291.95517,63,36,0
292.17258,292.38995,67,36,0
292.17258,292.38995,63,36,0
292.38995,292.60736,67,36,0
292.59647,292.60736,67,36,0
292.38995,292.60736,62,36,0
292.59647,292.60736,62,36,0
292.82474,292.87125,67,36,0
292.82474,292.87125,62,36,0
293.05728,293.10382,67,36,0
293.05728,293.10382,62,36,0
293.27823,293.32474,67,36,0
293.27823,293.32474,62,36,0
293.5224,293.7724,58,36,0
293.5224,293.7724,50,36,0
293.7724,294.0224,57,36,0
294.00992,294.0224,57,36,0
293.7724,294.0224,50,36,0
294.00992,294.0224,50,36,0
294.2724,294.32648,57,36,0
294.2724,294.32648,50,36,0
294.5427,294.59674,57,36,0
294.5427,294.59674,50,36,0
294.79944,294.8535,57,36,0
294.79944,294.8535,50,36,0
295.08322,295.79752,55,36,0
295.08322,295.79752,43,36,0
295.79752,296.56674,62,36,0
296.56674,297.2644,67,36,0
297.2644,298.0144,58,36,0
297.2644,298.0144,55,36,0
298.0144,298.7287,57,36,0
298.0144,298.7287,54,36,0
298.7287,299.443,69,62,0
298.7287,299.443,62,54,0
299.443,300.15726,72,36,0
299.443,300.15726,63,36,0
300.15726,300.87155,63,36,0
300.15726,300.87155,60,36,0
300.87155,301.58585,62,36,0
300.87155,301.58585,58,36,0
301.58585,302.30014,62,62,0
302.30014,303.0144,63,36,0
303.0144,303.7287,58,36,0
303.0144,303.7287,55,36,0
303.7287,304.38086,57,49,0
303.7287,304.38086,54,49,0
304.38086,305.03305,69,75,0
304.38086,305.03305,62,67,0
305.03305,305.6852,72,49,0
305.03305,305.6852,63,49,0
305.6852,306.3374,63,49,0
305.6852,306.3374,60,49,0
306.3374,306.98956,62,62,0
306.98956,307.64175,62,88,0
307.64175,308.2939,65,62,0
308.2939,308.94608,68,62,0
308.94608,309.92435,67,62,0
308.94608,309.92435,60,62,0
309.92435,310.25043,63,101,0
309.92435,310.25043,51,93,0
310.25043,310.2939,62,101,0
310.25043,310.2939,50,93,0
310.57654,310.62,60,101,0
310.57654,310.62,48,93,0
310.90262,310.94608,58,101,0
310.90262,310.94608,46,93,0
311.2287,311.2722,57,101,0
311.2287,311.2722,45,93,0
311.55478,312.20697,62,101,0
311.55478,312.20697,50,101,0
312.85913,313.51132,57,36,0
312.85913,313.51132,50,36,0
314.16348,315.14175,55,49,0
315.14175,315.46783,55,75,0
315.46783,315.51132,53,49,0
315.7939,315.8374,51,49,0
316.12,316.16348,50,49,0
316.4461,316.48956,53,49,0
316.7722,317.75043,51,49,0
317.75043,318.07654,50,75,0
318.07654,318.12,48,49,0
318.40262,318.4461,46,49,0
318.7287,318.7722,45,49,0
319.05478,319.09827,50,49,0
319.38086,320.3819,43,49,0
320.3819,320.7307,55,75,0
320.7307,320.78073,53,49,0
321.1057,321.15573,51,49,0
321.4807,321.5348,50,49,0
321.88614,321.9402,53,49,0
322.29153,323.70062,51,49,0
323.70062,324.20062,50,75,0
324.20062,324.2747,48,49,0
324.7562,324.83026,46,49,0
325.31174,325.39508,45,49,0
325.93674,326.02008,50,49,0
326.56174,327.9903,43,101,0
327.7165,327.9903,43,101,0
327.9903,329.29465,55,36,0
327.89508,329.29465,50,101,0
327.81174,329.29465,46,101,0
329.29465,331.90335,55,36,0
329.29465,331.90335,50,36,0
329.29465,331.90335,43,36,0
50.86957,51.521748,43,36,0
51.521748,52.826096,58,62,0
56.73914,58.043488,55,49,0
61.95653,63.91305,62,49,0
69.782616,71.08697,63,36,0
71.08697,71.73914,58,36,0
72.39131,73.69566,62,36,0
73.69566,74.34784,58,36,0
75.00001,76.30436,63,36,0
76.30436,76.956535,58,36,0
77.6087,78.913055,62,36,0
78.913055,79.56523,58,36,0
90.65218,91.956535,63,36,0
91.956535,92.60871,58,36,0
93.26088,94.56523,62,36,0
94.56523,95.21741,58,36,0
95.869576,97.17393,63,36,0
97.17393,97.8261,58,36,0
98.47827,99.78262,62,36,0
99.78262,100.4348,58,36,0
124.39026,125.69461,58,49,0
125.69461,126.998955,60,49,0
126.998955,128.3033,62,49,0
128.3033,129.60765,63,49,0
129.60765,130.25983,62,49,0
130.25983,130.912,61,49,0
130.912,131.56418,60,49,0
131.56418,132.21635,60,49,0
203.65187,204.95622,70,36,0
204.95622,205.6084,65,36,0
206.26057,207.56491,69,36,0
207.56491,208.21709,65,36,0
208.86926,210.17361,70,36,0
210.17361,210.82579,65,36,0
211.47797,212.7823,69,36,0
212.7823,213.43448,65,36,0
224.52144,225.82579,58,36,0
225.82579,226.47797,53,36,0
227.13014,228.43448,57,36,0
228.43448,229.08665,53,36,0
229.73883,231.04318,58,36,0
231.04318,231.69536,53,36,0
232.34753,233.65187,57,36,0
233.65187,234.30405,53,36,0
258.25952,259.56387,53,49,0
259.56387,260.86823,55,49,0
260.86823,262.17255,57,49,0
262.17255,263.4769,58,49,0
263.4769,264.1291,57,49,0
264.1291,264.78125,56,49,0
264.78125,265.43344,55,49,0
265.43344,266.0856,55,49,0
295.79752,297.2644,58,75,0
301.58585,303.0144,55,49,0
306.3374,306.98956,58,62,0
306.98956,308.94608,59,62,0
314.16348,316.7722,43,36,0
316.7722,319.38086,43,36,0
319.38086,322.29153,43,36,0
322.29153,326.56174,43,36,0
