start_time,end_time,note_value,velocity,instrument_program_number
0.0,0.714286,86,88,0
0.0,0.714286,74,88,0
0.0,0.714286,78,88,0
0.0,0.714286,81,88,0
0.714286,0.73214316,62,88,0
0.714286,0.73214316,57,88,0
0.8928575,0.9107146,62,88,0
0.8928575,0.9107146,57,88,0
1.071429,1.0892862,62,88,0
1.071429,1.0892862,57,88,0
1.2500005,1.2678577,62,88,0
1.2500005,1.2678577,57,88,0
1.428572,1.785715,57,88,0
1.785715,1.9642864,64,88,0
1.785715,1.9642864,59,88,0
1.428572,1.9642864,62,88,0
2.142858,2.160715,66,88,0
2.142858,2.160715,62,88,0
2.142858,2.160715,60,88,0
2.3214295,2.3392866,66,88,0
2.3214295,2.3392866,62,88,0
2.3214295,2.3392866,60,88,0
2.500001,2.5178583,66,88,0
2.500001,2.5178583,62,88,0
2.500001,2.5178583,60,88,0
2.6785724,2.6964297,66,88,0
2.6785724,2.6964297,62,88,0
2.6785724,2.6964297,60,88,0
2.857144,3.214287,66,88,0
2.857144,3.214287,60,88,0
3.214287,3.3928585,67,88,0
3.214287,3.3928585,59,88,0
2.857144,3.3928585,62,88,0
3.3928585,3.57143,64,88,0
3.57143,3.6904776,67,88,0
3.6875014,3.806549,66,88,0
3.8095253,3.928573,64,88,0
3.928573,4.047621,70,88,0
4.0446444,4.163692,69,88,0
4.1666684,4.285716,67,88,0
4.285716,4.4642873,69,88,0
4.642859,4.7619066,78,49,0
4.7589307,4.8779783,76,49,0
4.8809543,5.000002,74,49,0
5.000002,5.1190495,81,49,0
5.1160736,5.2351213,79,49,0
5.238097,5.357145,78,49,0
5.357145,5.4761925,76,49,0
5.4732165,5.592264,74,49,0
5.59524,5.714288,73,49,0
5.714288,6.428574,86,88,0
5.714288,6.428574,74,88,0
5.714288,6.428574,78,88,0
5.714288,6.428574,81,88,0
6.428574,6.446431,62,88,0
6.428574,6.446431,57,88,0
6.6071453,6.625003,62,88,0
6.6071453,6.625003,57,88,0
6.785717,6.803574,62,88,0
6.785717,6.803574,57,88,0
6.9642887,6.982146,62,88,0
6.9642887,6.982146,57,88,0
7.14286,7.500003,57,88,0
7.500003,7.6785746,64,88,0
7.500003,7.6785746,58,88,0
7.14286,7.6785746,62,88,0
7.857146,7.8750033,66,88,0
7.857146,7.8750033,62,88,0
7.857146,7.8750033,60,88,0
8.035718,8.053575,66,88,0
8.035718,8.053575,62,88,0
8.035718,8.053575,60,88,0
8.214289,8.232146,66,88,0
8.214289,8.232146,62,88,0
8.214289,8.232146,60,88,0
8.39286,8.410718,66,88,0
8.39286,8.410718,62,88,0
8.39286,8.410718,60,88,0
8.571432,8.928575,66,88,0
8.571432,8.928575,60,88,0
8.928575,9.107146,67,88,0
8.928575,9.107146,58,88,0
8.571432,9.107146,62,88,0
9.285718,9.3035755,68,88,0
9.285718,9.3035755,65,88,0
9.285718,9.3035755,62,88,0
9.46429,9.482146,68,88,0
9.46429,9.482146,65,88,0
9.46429,9.482146,62,88,0
9.642861,9.660718,68,88,0
9.642861,9.660718,65,88,0
9.642861,9.660718,62,88,0
9.821432,9.83929,68,88,0
9.821432,9.83929,65,88,0
9.821432,9.83929,62,88,0
10.000004,10.357147,69,88,0
10.000004,10.357147,65,88,0
10.000004,10.357147,60,88,0
10.357147,10.476194,72,88,0
10.473219,10.592266,70,88,0
10.5952425,10.71429,69,88,0
10.71429,10.833338,67,49,0
10.830361,10.9494095,65,49,0
10.952385,11.071433,64,49,0
11.071433,11.19048,62,49,0
11.187505,11.306552,60,49,0
11.309528,11.428576,58,49,0
11.428576,11.547624,57,49,0
11.544647,11.663695,58,49,0
11.666672,11.785719,60,49,0
11.785719,11.904767,72,49,0
11.901791,12.020838,70,49,0
12.023814,12.142862,69,49,0
12.142862,12.2619095,67,49,0
12.258933,12.377981,65,49,0
12.380958,12.500005,64,49,0
12.500005,12.619053,62,49,0
12.616076,12.735125,60,49,0
12.7381,12.857148,58,49,0
12.857148,12.976195,57,49,0
12.97322,13.092267,58,49,0
13.095243,13.214291,60,49,0
13.214291,13.333339,57,49,0
13.330362,13.44941,58,49,0
13.452386,13.571434,60,49,0
13.571434,13.690482,57,49,0
13.687506,13.806553,58,49,0
13.809529,13.928577,60,49,0
13.928577,14.047625,57,49,0
14.044648,14.163696,58,49,0
14.166673,14.28572,60,49,0
14.28572,14.404768,57,62,0
14.401792,14.520839,58,62,0
14.523815,14.642863,60,62,0
14.642863,14.76191,57,75,0
14.758934,14.877982,58,75,0
14.880959,15.000006,60,75,0
15.000006,15.119054,57,88,0
15.116077,15.235126,58,88,0
15.238101,15.357149,60,88,0
15.357149,15.476196,57,101,0
15.473221,15.592268,58,101,0
15.595244,15.714292,60,101,0
15.714292,16.428577,61,114,0
15.714292,16.428577,56,114,0
15.714292,16.428577,53,114,0
16.428577,16.446436,65,49,0
16.428577,16.446436,61,49,0
16.428577,16.446436,56,49,0
16.60715,16.625006,65,49,0
16.60715,16.625006,61,49,0
16.60715,16.625006,56,49,0
16.78572,16.803577,65,49,0
16.78572,16.803577,61,49,0
16.78572,16.803577,56,49,0
16.964293,16.98215,65,49,0
16.964293,16.98215,61,49,0
16.964293,16.98215,56,49,0
17.142864,17.85715,68,49,0
17.142864,17.85715,65,49,0
17.142864,17.85715,61,49,0
17.85715,17.875008,73,49,0
17.85715,17.875008,68,49,0
17.85715,17.875008,65,49,0
18.03572,18.05358,73,49,0
18.03572,18.05358,68,49,0
18.03572,18.05358,65,49,0
18.214293,18.232151,73,49,0
18.214293,18.232151,68,49,0
18.214293,18.232151,65,49,0
18.392864,18.41072,73,49,0
18.392864,18.41072,68,49,0
18.392864,18.41072,65,49,0
18.571436,19.285723,73,62,0
18.571436,19.285723,64,62,0
18.571436,19.285723,67,62,0
18.571436,19.285723,69,62,0
19.285723,19.30358,76,75,0
19.285723,19.30358,67,75,0
19.285723,19.30358,69,75,0
19.285723,19.30358,73,75,0
19.464294,19.482151,76,75,0
19.464294,19.482151,67,75,0
19.464294,19.482151,69,75,0
19.464294,19.482151,73,75,0
19.642864,19.660723,76,75,0
19.642864,19.660723,67,75,0
19.642864,19.660723,69,75,0
19.642864,19.660723,73,75,0
19.821436,19.839294,76,75,0
19.821436,19.839294,67,75,0
19.821436,19.839294,69,75,0
19.821436,19.839294,73,75,0
20.000008,20.714294,81,88,0
20.000008,20.714294,76,88,0
20.000008,20.714294,69,88,0
20.000008,20.714294,73,88,0
20.000008,20.714294,79,88,0
20.714294,20.732151,85,88,0
20.714294,20.732151,76,88,0
20.714294,20.732151,79,88,0
20.714294,20.732151,81,88,0
20.892866,20.910723,85,88,0
20.892866,20.910723,76,88,0
20.892866,20.910723,79,88,0
20.892866,20.910723,81,88,0
21.071438,21.089294,85,88,0
21.071438,21.089294,76,88,0
21.071438,21.089294,79,88,0
21.071438,21.089294,81,88,0
21.250008,21.267866,85,88,0
21.250008,21.267866,76,88,0
21.250008,21.267866,79,88,0
21.250008,21.267866,81,88,0
21.42858,22.142866,86,101,0
21.42858,22.142866,74,101,0
21.42858,22.142866,78,101,0
21.42858,22.142866,81,101,0
22.142866,22.160723,62,101,0
22.142866,22.160723,57,101,0
22.321438,22.339294,62,101,0
22.321438,22.339294,57,101,0
22.50001,22.517866,62,101,0
22.50001,22.517866,57,101,0
22.678581,22.696438,62,101,0
22.678581,22.696438,57,101,0
22.857153,23.214294,57,101,0
23.214294,23.392866,64,75,0
23.214294,23.392866,59,75,0
22.857153,23.392866,62,101,0
23.571438,23.690485,57,75,0
23.68751,23.806557,59,75,0
23.809534,23.928581,60,75,0
23.928581,24.047628,62,75,0
24.044653,24.1637,64,75,0
24.166676,24.285725,66,75,0
24.285725,24.464296,58,101,0
24.464296,24.642866,66,75,0
24.642866,24.821438,59,101,0
24.821438,25.00001,67,75,0
25.00001,25.017868,69,75,0
25.00001,25.017868,67,75,0
25.00001,25.017868,64,75,0
25.178581,25.196438,69,75,0
25.178581,25.196438,67,75,0
25.178581,25.196438,64,75,0
25.357153,25.37501,69,75,0
25.357153,25.37501,67,75,0
25.357153,25.37501,64,75,0
25.535725,25.553581,69,75,0
25.535725,25.553581,67,75,0
25.535725,25.553581,64,75,0
25.714296,26.07144,69,75,0
25.714296,26.07144,64,75,0
26.07144,26.250011,71,75,0
26.07144,26.250011,62,75,0
25.714296,26.250011,67,75,0
26.428581,26.54763,62,75,0
26.544653,26.663702,64,75,0
26.666677,26.785725,66,75,0
26.785725,26.904772,67,75,0
26.901796,27.020844,69,75,0
27.02382,27.142868,71,75,0
27.142868,27.32144,63,101,0
27.32144,27.500011,71,75,0
27.500011,27.678583,64,75,0
27.678583,27.857155,72,75,0
27.857155,27.875011,73,75,0
27.857155,27.875011,70,75,0
27.857155,27.875011,67,75,0
28.035725,28.053583,73,75,0
28.035725,28.053583,70,75,0
28.035725,28.053583,67,75,0
28.214296,28.232155,73,75,0
28.214296,28.232155,70,75,0
28.214296,28.232155,67,75,0
28.392868,28.410727,73,75,0
28.392868,28.410727,70,75,0
28.392868,28.410727,67,75,0
28.57144,28.928583,73,75,0
28.57144,28.928583,67,75,0
28.928583,29.107155,74,75,0
28.928583,29.107155,65,75,0
28.57144,29.107155,70,75,0
29.285727,29.404774,65,75,0
29.401798,29.520845,67,75,0
29.52382,29.64287,69,75,0
29.64287,29.761917,70,75,0
29.75894,29.877989,72,75,0
29.880964,30.000011,74,75,0
30.000011,30.178583,75,75,0
30.178583,30.357155,67,75,0
30.357155,30.535727,74,75,0
30.535727,30.714298,65,75,0
30.714298,30.732155,73,75,0
30.714298,30.732155,64,75,0
30.714298,30.732155,67,75,0
30.714298,30.732155,70,75,0
30.89287,30.910727,73,75,0
30.89287,30.910727,64,75,0
30.89287,30.910727,67,75,0
30.89287,30.910727,70,75,0
31.071442,31.089298,73,75,0
31.071442,31.089298,64,75,0
31.071442,31.089298,67,75,0
31.071442,31.089298,70,75,0
31.250013,31.26787,73,75,0
31.250013,31.26787,64,75,0
31.250013,31.26787,67,75,0
31.250013,31.26787,70,75,0
31.428583,31.785727,73,75,0
31.428583,31.785727,64,75,0
31.428583,31.785727,67,75,0
31.785727,31.964298,74,75,0
31.785727,31.964298,65,75,0
31.428583,31.964298,70,75,0
32.14287,32.261917,65,75,0
32.25894,32.37799,67,75,0
32.380966,32.50001,69,75,0
32.50001,32.61906,70,75,0
32.616085,32.73513,72,75,0
32.73811,32.857155,74,75,0
32.857155,33.03573,79,75,0
32.857155,33.03573,75,75,0
33.03573,33.2143,67,75,0
33.2143,33.39287,77,75,0
33.2143,33.39287,74,75,0
33.39287,33.57144,65,75,0
33.57144,33.5893,73,75,0
33.57144,33.5893,64,75,0
33.57144,33.5893,67,75,0
33.57144,33.5893,71,75,0
33.750015,33.76787,73,75,0
33.750015,33.76787,64,75,0
33.750015,33.76787,67,75,0
33.750015,33.76787,70,75,0
33.928585,33.94644,73,75,0
33.928585,33.94644,64,75,0
33.928585,33.94644,67,75,0
33.928585,33.94644,70,75,0
34.107155,34.125015,73,75,0
34.107155,34.125015,64,75,0
34.107155,34.125015,67,75,0
34.107155,34.125015,70,75,0
34.28573,34.64287,73,75,0
34.28573,34.64287,64,75,0
34.28573,34.64287,67,75,0
34.64287,34.82144,74,75,0
34.64287,34.82144,65,75,0
34.28573,34.82144,70,75,0
35.000015,35.11906,65,75,0
35.116085,35.235134,67,75,0
35.23811,35.35716,69,75,0
35.35716,35.476204,70,75,0
35.47323,35.592278,72,75,0
35.595253,35.7143,74,75,0
35.7143,35.833347,75,75,0
35.83037,35.94942,77,75,0
35.952396,36.07144,79,75,0
36.07144,36.19049,77,75,0
36.187515,36.30656,75,75,0
36.30954,36.428585,74,75,0
36.428585,36.547634,73,75,0
36.54466,36.663704,70,75,0
36.666683,36.78573,67,75,0
36.78573,36.904778,64,75,0
36.901802,37.020847,61,75,0
37.023823,37.14287,64,75,0
37.14287,37.26192,65,75,0
37.25894,37.37799,62,75,0
37.380966,37.500015,65,75,0
37.500015,37.619064,62,75,0
37.616085,37.735134,58,75,0
37.73811,37.85716,62,75,0
37.85716,37.976204,65,75,0
37.97323,38.092278,67,75,0
38.095253,38.214302,69,75,0
38.214302,38.333347,70,75,0
38.33037,38.44942,72,75,0
38.452396,38.571445,74,75,0
38.571445,38.69049,75,75,0
38.687515,38.806564,77,75,0
38.80954,38.92859,79,75,0
38.92859,39.047634,77,75,0
39.04466,39.163708,75,75,0
39.166683,39.28573,74,75,0
39.28573,39.404778,73,75,0
39.401802,39.520847,70,75,0
39.523827,39.64287,67,75,0
39.64287,39.76192,64,75,0
39.758945,39.87799,61,75,0
39.88097,40.000015,64,75,0
40.000015,40.01192,67,101,0
40.11609,40.235134,64,75,0
40.23811,40.35716,67,75,0
40.35716,40.476208,64,75,0
40.473232,40.592278,61,75,0
40.595253,40.714302,64,75,0
40.714302,40.726208,68,114,0
40.83037,40.94942,64,88,0
40.952396,41.071445,68,88,0
41.071445,41.190495,64,88,0
41.187515,41.306564,61,88,0
41.30954,41.42859,64,88,0
41.42859,41.547634,69,114,0
41.54466,41.663708,64,88,0
41.666683,41.785732,69,88,0
41.785732,41.904778,64,88,0
41.901802,42.02085,61,88,0
42.023827,42.142876,64,88,0
42.142876,42.26192,69,114,0
42.258945,42.377995,64,88,0
42.38097,42.500015,69,88,0
42.500015,42.619064,64,88,0
42.61609,42.735138,60,88,0
42.738113,42.85716,64,88,0
42.85716,42.976208,74,114,0
42.973232,43.092278,69,88,0
43.095257,43.214302,74,88,0
43.214302,43.33335,69,88,0
43.330376,43.44942,62,88,0
43.4524,43.571445,69,88,0
43.571445,43.690495,80,114,0
43.68752,43.806564,74,88,0
43.80954,43.92859,80,88,0
43.92859,44.047638,74,88,0
44.04466,44.163708,68,88,0
44.166683,44.285732,74,88,0
44.285732,45.00002,81,114,0
44.285732,45.00002,69,114,0
44.285732,45.00002,73,114,0
44.285732,45.00002,76,114,0
45.00002,45.17859,75,49,0
45.00002,45.17859,72,49,0
45.17859,45.357162,75,49,0
45.17859,45.357162,72,49,0
45.357162,45.535732,75,49,0
45.357162,45.535732,72,49,0
45.535732,45.714306,75,49,0
45.535732,45.714306,72,49,0
45.714306,46.071445,76,49,0
45.714306,46.071445,73,49,0
46.071445,46.25002,85,49,0
47.857162,47.97621,59,75,0
47.973232,48.09228,61,75,0
48.095257,48.214306,62,75,0
48.214306,48.33335,64,75,0
48.330376,48.449425,66,75,0
48.4524,48.57145,68,75,0
48.57145,49.285732,81,101,0
48.57145,49.285732,69,101,0
48.57145,49.285732,73,101,0
48.57145,49.285732,76,101,0
49.285732,49.553593,75,49,0
49.285732,49.553593,72,49,0
49.553593,49.642876,75,49,0
49.553593,49.642876,72,49,0
49.642876,49.910736,75,49,0
49.642876,49.910736,72,49,0
49.910736,50.00002,75,49,0
49.910736,50.00002,72,49,0
50.00002,50.357162,76,49,0
50.00002,50.357162,73,49,0
50.357162,50.535736,85,49,0
52.14288,52.261925,59,75,0
52.25895,52.378,61,75,0
52.380974,52.500023,62,75,0
52.500023,52.61907,64,75,0
52.616093,52.73514,66,75,0
52.738117,52.857162,68,75,0
52.857162,52.97621,69,75,0
52.973236,53.09228,71,75,0
53.09526,53.214306,73,75,0
53.214306,53.333355,74,75,0
53.33038,53.449425,76,75,0
53.452404,53.57145,78,75,0
53.57145,53.6905,80,75,0
53.687523,53.80657,81,75,0
53.809544,53.928593,83,75,0
53.928593,54.04764,85,75,0
54.044666,54.16371,86,75,0
54.166687,54.285736,88,75,0
54.285736,54.404785,86,75,0
54.401806,54.520855,85,75,0
54.52383,54.64288,83,75,0
54.64288,54.76193,81,75,0
54.75895,54.878,80,75,0
54.880974,55.000023,78,75,0
55.000023,55.11907,76,75,0
55.116093,55.23514,74,75,0
55.238117,55.357166,73,75,0
55.357166,55.47621,71,75,0
55.473236,55.592285,69,75,0
55.59526,55.71431,68,75,0
55.71431,56.07145,69,49,0
56.07145,56.250023,61,49,0
56.428593,56.785736,71,49,0
56.785736,56.96431,64,49,0
57.098236,57.14288,64,49,0
57.14288,57.500023,73,49,0
57.500023,57.678593,69,49,0
57.812523,57.857166,69,49,0
57.857166,58.125023,78,75,0
58.125023,58.21431,75,49,0
58.21431,58.482166,78,49,0
58.482166,58.571453,75,49,0
58.571453,58.928596,76,75,0
58.928596,59.107166,64,49,0
59.241096,59.28574,64,49,0
59.28574,59.64288,74,49,0
59.64288,59.821453,71,49,0
59.95538,60.000023,71,49,0
60.000023,60.357166,73,49,0
60.357166,60.53574,64,49,0
60.669666,60.71431,64,49,0
60.71431,60.982166,71,49,0
60.982166,61.071453,68,49,0
61.071453,61.33931,71,49,0
61.33931,61.428596,68,49,0
61.428596,61.547646,69,49,0
61.544666,61.663715,64,49,0
61.66669,61.78574,69,49,0
61.78574,61.96431,61,49,0
62.142883,62.26193,71,49,0
62.258953,62.378002,68,49,0
62.380978,62.500027,71,49,0
62.500027,62.678596,64,49,0
62.857166,62.976215,73,49,0
62.97324,63.09229,71,49,0
63.095264,63.21431,73,49,0
63.21431,63.392883,69,49,0
63.571453,63.690502,78,49,0
63.687527,63.806572,75,49,0
63.80955,63.928596,78,49,0
63.928596,64.047646,81,49,0
64.04467,64.16372,78,49,0
64.166695,64.28574,75,49,0
64.28574,64.404785,76,49,0
64.40181,64.52086,73,49,0
64.523834,64.64288,76,49,0
64.64288,64.82146,64,49,0
65.00002,65.11907,74,49,0
65.1161,65.235146,73,49,0
65.23812,65.35717,74,49,0
65.35717,65.53574,71,49,0
65.71431,65.83336,73,49,0
65.83038,65.94943,69,49,0
65.95241,66.07146,73,49,0
66.07146,66.25002,64,49,0
66.4286,66.69646,71,49,0
66.69646,66.78574,68,49,0
66.78574,67.0536,71,49,0
67.0536,67.14288,68,49,0
67.14288,67.26193,71,101,0
67.25896,67.378006,62,101,0
67.38098,67.50003,71,101,0
67.50003,68.12503,55,101,0
68.12503,68.21431,71,101,0
68.12503,68.21431,62,101,0
68.21431,68.48217,55,101,0
68.48217,68.57146,62,101,0
68.57146,68.690506,71,101,0
68.68753,68.80657,62,101,0
68.809555,68.9286,71,101,0
68.9286,69.5536,55,101,0
69.5536,69.64288,71,101,0
69.5536,69.64288,62,101,0
69.64288,70.26788,55,101,0
70.26788,70.35717,71,101,0
70.26788,70.35717,62,101,0
70.35717,70.98217,55,127,0
70.98217,71.07146,71,101,0
70.98217,71.07146,62,101,0
71.07146,71.33932,55,127,0
71.33932,71.4286,71,101,0
71.33932,71.4286,62,101,0
71.4286,71.547646,72,101,0
71.54467,71.66372,64,101,0
71.666695,71.78574,72,101,0
71.78574,72.41074,76,127,0
72.41074,72.50003,64,101,0
72.50003,72.76788,76,127,0
72.50003,72.76788,72,119,0
72.76788,72.85717,64,101,0
72.85717,72.97622,72,101,0
72.97324,73.09229,64,101,0
73.09527,73.21432,72,101,0
73.21432,73.83932,76,127,0
73.83932,73.928604,64,101,0
73.928604,74.553604,76,127,0
73.928604,74.553604,72,119,0
74.553604,74.64288,64,101,0
74.64288,75.26789,76,127,0
74.64288,75.26789,72,119,0
75.26789,75.35717,64,101,0
75.35717,75.98217,76,127,0
75.35717,75.98217,74,122,0
75.35717,75.98217,68,117,0
75.98217,76.07146,64,49,0
76.07146,76.33932,76,49,0
76.07146,76.33932,74,49,0
76.07146,76.33932,68,49,0
76.33932,76.428604,64,49,0
76.428604,76.69646,76,49,0
76.428604,76.69646,74,49,0
76.428604,76.69646,68,49,0
76.69646,76.78574,64,49,0
76.78574,77.053604,76,49,0
76.78574,77.053604,74,49,0
76.78574,77.053604,68,49,0
77.053604,77.14289,64,49,0
77.14289,77.26193,76,49,0
77.14289,77.26193,69,49,0
77.14289,77.26193,73,49,0
77.25896,77.378006,64,49,0
77.38098,77.50003,69,49,0
77.50003,77.61908,73,49,0
77.616104,77.73515,76,49,0
77.73813,77.85718,81,49,0
77.85718,77.97622,76,49,0
77.97324,78.09229,69,49,0
78.09527,78.21432,73,49,0
78.21432,78.33337,76,49,0
78.33039,78.44943,81,49,0
78.452415,78.57146,85,49,0
78.57146,78.690506,76,49,0
78.68753,78.80658,78,49,0
78.809555,78.928604,76,49,0
78.928604,79.04765,74,49,0
79.04468,79.16372,78,49,0
79.166695,79.28574,74,49,0
79.28574,79.40479,73,49,0
79.40182,79.52087,76,49,0
79.52384,79.64289,73,49,0
79.64289,79.76194,71,49,0
79.75896,79.878006,74,49,0
79.88098,80.00003,71,49,0
80.00003,80.11908,69,49,0
80.116104,80.23515,64,49,0
80.23813,80.35718,69,49,0
80.35718,80.47622,73,49,0
80.47324,80.59229,76,49,0
80.59527,80.71432,81,49,0
80.71432,80.83337,76,49,0
80.83039,80.94944,73,49,0
80.952415,81.071465,76,49,0
81.071465,81.190506,81,49,0
81.18753,81.30658,85,49,0
81.309555,81.428604,88,49,0
81.428604,81.54765,76,49,0
81.54468,81.66373,78,49,0
81.6667,81.78574,76,49,0
81.78574,81.90479,74,49,0
81.90182,82.02087,76,49,0
82.02384,82.14289,74,49,0
82.14289,82.26194,73,49,0
82.258965,82.378006,74,49,0
82.38099,82.50003,73,49,0
82.50003,82.61908,71,49,0
82.616104,82.73515,73,49,0
82.73813,82.85718,71,49,0
82.85718,82.97623,61,36,0
82.97324,83.09229,64,36,0
83.09527,83.21432,61,36,0
83.21432,83.33337,64,36,0
83.33039,83.44944,69,36,0
83.452415,83.571465,64,36,0
83.571465,83.690506,64,36,0
83.68753,83.80658,68,36,0
83.809555,83.928604,64,36,0
83.928604,84.04765,68,36,0
84.04468,84.16373,71,36,0
84.1667,84.28575,68,36,0
84.28575,84.40479,64,36,0
84.40182,84.52087,69,36,0
84.52384,84.64289,64,36,0
84.64289,84.76194,69,36,0
84.758965,84.87801,73,36,0
84.88099,85.00003,69,36,0
85.00003,85.11908,69,36,0
85.116104,85.23515,72,36,0
85.23813,85.35718,69,36,0
85.35718,85.47623,72,36,0
85.47325,85.59229,75,36,0
85.595276,85.71432,72,36,0
85.71432,85.83337,69,36,0
85.83039,85.94944,73,36,0
85.952415,86.071465,69,36,0
86.071465,86.19051,73,36,0
86.18754,86.30658,76,36,0
86.309555,86.428604,73,36,0
86.428604,86.54765,64,36,0
86.54468,86.66373,71,36,0
86.6667,86.78575,64,36,0
86.78575,86.9048,71,36,0
86.90182,87.02087,74,36,0
87.02384,87.14289,71,36,0
87.14289,87.26194,64,36,0
87.258965,87.37801,69,36,0
87.38099,87.50004,64,36,0
87.50004,87.61908,69,36,0
87.616104,87.73515,73,36,0
87.73813,87.85718,69,36,0
87.85718,87.97623,64,36,0
87.97325,88.0923,68,36,0
88.095276,88.21432,64,36,0
88.21432,88.33337,68,36,0
88.33039,88.44944,71,36,0
88.452415,88.571465,68,36,0
88.571465,88.69051,73,36,0
88.68754,88.80658,76,36,0
88.80956,88.928604,73,36,0
88.928604,89.04765,76,36,0
89.04468,89.16373,81,36,0
89.1667,89.28575,76,36,0
89.28575,89.4048,76,36,0
89.401825,89.52087,80,36,0
89.52384,89.64289,76,36,0
89.64289,89.76194,80,36,0
89.758965,89.87801,83,36,0
89.88099,90.00004,80,36,0
90.00004,90.11909,76,36,0
90.116104,90.23515,81,36,0
90.23813,90.35718,76,36,0
90.35718,90.47623,81,36,0
90.47325,90.5923,85,36,0
90.595276,90.714325,81,36,0
90.714325,90.83337,81,36,0
90.83039,90.94944,84,36,0
90.952415,91.071465,81,36,0
91.071465,91.19051,84,36,0
91.18754,91.30659,87,36,0
91.30956,91.42861,84,36,0
91.42861,91.54765,81,49,0
91.54468,91.66373,84,49,0
91.6667,91.78575,81,49,0
91.78575,91.9048,84,49,0
91.901825,92.02087,87,49,0
92.02385,92.14289,84,49,0
92.14289,92.26194,81,49,0
92.258965,92.37801,84,49,0
92.38099,92.50004,81,49,0
92.50004,92.61909,84,49,0
92.61611,92.73515,87,49,0
92.73813,92.85718,84,49,0
92.85718,92.97623,81,49,0
92.97325,93.0923,84,49,0
93.095276,93.214325,81,49,0
93.214325,93.333374,84,49,0
93.33039,93.44944,87,49,0
93.452415,93.571465,84,49,0
93.571465,93.69051,81,49,0
93.68754,93.80659,84,49,0
93.80956,93.92861,81,49,0
93.92861,94.04765,84,49,0
94.04468,94.16373,89,49,0
94.1667,94.28575,84,49,0
94.28575,94.4048,81,49,0
94.401825,94.520874,84,49,0
94.52385,94.6429,81,49,0
94.6429,94.76194,84,49,0
94.758965,94.87801,89,49,0
94.88099,95.00004,84,49,0
95.00004,95.11909,81,49,0
95.11611,95.23516,84,49,0
95.23814,95.35718,81,49,0
95.35718,95.47623,84,49,0
95.47325,95.5923,89,49,0
95.595276,95.714325,84,49,0
95.714325,95.833374,82,49,0
95.8304,95.94944,86,49,0
95.95242,96.071465,82,49,0
96.071465,96.19051,86,49,0
96.18754,96.30659,89,49,0
96.30956,96.42861,86,49,0
96.42861,96.54766,80,49,0
96.54468,96.66373,83,49,0
96.6667,96.78575,80,49,0
96.78575,96.9048,83,49,0
96.901825,97.020874,88,49,0
97.02385,97.1429,83,49,0
97.1429,97.26194,81,49,0
97.258965,97.37801,85,49,0
97.38099,97.50004,81,49,0
97.50004,97.61909,85,49,0
97.61611,97.73516,88,49,0
97.73814,97.857185,85,49,0
97.857185,97.97623,74,49,0
97.97325,98.0923,81,49,0
98.095276,98.214325,74,49,0
98.214325,98.333374,81,49,0
98.3304,98.44945,86,49,0
98.45242,98.571465,81,49,0
98.571465,98.69051,76,49,0
98.68754,98.80659,81,49,0
98.80956,98.92861,76,49,0
98.92861,99.04766,81,49,0
99.044685,99.16373,85,49,0
99.16671,99.28575,81,49,0
99.28575,99.4048,76,49,0
99.401825,99.520874,83,49,0
99.52385,99.6429,80,49,0
99.6429,99.76195,76,49,0
99.75897,99.87801,74,49,0
99.88099,100.00004,71,49,0
100.00004,100.11909,67,101,0
100.11611,100.23516,69,101,0
100.23814,100.357185,67,101,0
100.357185,100.476234,64,101,0
100.47325,100.5923,61,101,0
100.595276,100.714325,57,101,0
100.714325,100.833374,55,127,0
100.8304,100.94945,57,101,0
100.95242,101.07147,55,101,0
101.07147,101.19051,57,101,0
101.18754,101.30659,55,101,0
101.30956,101.42861,57,101,0
101.42861,101.54766,65,114,0
101.544685,101.663734,69,114,0
101.66671,101.78575,65,114,0
101.78575,101.9048,60,114,0
101.901825,102.020874,57,114,0
102.02385,102.1429,53,114,0
102.1429,102.26195,57,114,0
102.25897,102.37801,53,114,0
102.381,102.50004,57,114,0
102.50004,102.61909,53,114,0
102.61611,102.73516,57,114,0
102.73814,102.857185,53,114,0
102.857185,102.976234,67,114,0
102.97326,103.0923,69,114,0
103.095276,103.214325,67,114,0
103.214325,103.333374,64,114,0
103.3304,103.44945,61,114,0
103.45242,103.57147,57,114,0
103.57147,103.69052,55,114,0
103.68754,103.80659,57,114,0
103.80956,103.92861,55,114,0
103.92861,104.04766,57,114,0
104.044685,104.163734,55,114,0
104.16671,104.28576,57,114,0
104.28576,104.4048,65,101,0
104.401825,104.520874,69,101,0
104.52385,104.6429,65,101,0
104.6429,104.76195,60,101,0
104.75897,104.87802,57,101,0
104.881,105.000046,53,101,0
105.000046,105.11909,57,127,0
105.11611,105.23516,53,101,0
105.23814,105.357185,57,101,0
105.357185,105.476234,53,101,0
105.47326,105.5923,57,101,0
105.59528,105.714325,53,101,0
105.714325,105.833374,52,49,0
105.8304,105.94945,54,49,0
105.95242,106.07147,56,49,0
106.07147,106.19052,57,49,0
106.187546,106.30659,59,49,0
106.30956,106.42861,61,49,0
106.42861,106.54766,62,49,0
106.544685,106.663734,64,49,0
106.66671,106.78576,66,49,0
106.78576,106.90481,68,49,0
106.901825,107.020874,69,49,0
107.02385,107.1429,71,49,0
107.1429,107.26195,73,49,0
107.25897,107.37802,74,49,0
107.381,107.500046,76,49,0
107.500046,107.61909,78,49,0
107.61611,107.73516,80,49,0
107.73814,107.857185,81,49,0
107.857185,107.976234,83,49,0
107.97326,108.09231,85,49,0
108.09528,108.21433,86,49,0
108.21433,108.333374,88,49,0
108.3304,108.44945,90,49,0
108.45242,108.57147,92,49,0
108.57147,108.69052,93,49,0
108.687546,108.806595,92,49,0
108.80957,108.92861,90,49,0
108.92861,109.04766,88,49,0
109.044685,109.163734,86,49,0
109.16671,109.28576,85,49,0
109.28576,109.40481,83,49,0
109.40183,109.520874,81,49,0
109.52386,109.6429,80,49,0
109.6429,109.76195,78,49,0
109.75897,109.87802,76,49,0
109.881,110.000046,74,49,0
110.000046,110.119095,73,49,0
110.11611,110.23516,71,49,0
110.23814,110.357185,69,49,0
110.357185,110.476234,68,49,0
110.47326,110.59231,66,49,0
110.59528,110.71433,64,49,0
110.71433,110.833374,62,49,0
110.8304,110.94945,66,49,0
110.95242,111.07147,64,49,0
111.07147,111.19052,62,49,0
111.187546,111.306595,61,49,0
111.30957,111.42862,59,49,0
111.42862,111.54766,67,101,0
111.544685,111.663734,69,101,0
111.66671,111.78576,67,101,0
111.78576,111.90481,64,101,0
111.90183,112.02088,61,101,0
112.02386,112.1429,57,101,0
112.1429,112.26195,55,127,0
112.25897,112.37802,57,101,0
112.381,112.500046,55,101,0
112.500046,112.619095,57,101,0
112.61612,112.73516,55,101,0
112.738144,112.857185,57,101,0
112.857185,112.976234,65,114,0
112.97326,113.09231,69,114,0
113.09528,113.21433,65,114,0
113.21433,113.33338,60,114,0
113.33041,113.44945,57,114,0
113.45242,113.57147,53,114,0
113.57147,113.69052,57,114,0
113.687546,113.806595,53,114,0
113.80957,113.92862,57,114,0
113.92862,114.04767,53,114,0
114.044685,114.163734,57,114,0
114.16671,114.28576,53,114,0
114.28576,114.40481,65,114,0
114.40183,114.52088,67,114,0
114.52386,114.64291,65,114,0
114.64291,114.76195,62,114,0
114.75897,114.87802,59,114,0
114.881,115.000046,55,114,0
115.000046,115.119095,53,114,0
115.11612,115.23517,55,114,0
115.238144,115.357185,53,114,0
115.357185,115.476234,55,114,0
115.47326,115.59231,53,114,0
115.59528,115.71433,55,114,0
115.71433,115.83338,63,114,0
115.83041,115.94945,67,114,0
115.95243,116.07147,63,114,0
116.07147,116.19052,59,114,0
116.187546,116.306595,55,114,0
116.30957,116.42862,51,114,0
116.42862,116.54767,55,114,0
116.54469,116.663734,51,114,0
116.66671,116.78576,55,114,0
116.78576,116.90481,51,114,0
116.90183,117.02088,55,114,0
117.02386,117.14291,51,114,0
122.85719,122.97624,52,49,0
122.97327,123.09231,54,49,0
123.09529,123.21433,56,49,0
123.21433,123.33338,57,49,0
123.33041,123.449455,59,49,0
123.45243,123.57148,61,49,0
123.57148,123.69053,62,49,0
123.687546,123.806595,64,49,0
123.80957,123.92862,66,49,0
123.92862,124.04767,68,49,0
124.04469,124.16374,69,49,0
124.16672,124.28577,71,49,0
124.28577,124.40481,73,49,0
124.40183,124.52088,74,49,0
124.52386,124.64291,76,49,0
124.64291,124.761955,78,49,0
124.75898,124.87803,80,49,0
124.881004,125.00005,81,49,0
125.00005,125.119095,83,49,0
125.11612,125.23517,85,49,0
125.238144,125.35719,86,49,0
125.35719,125.47624,88,49,0
125.47327,125.592316,90,49,0
125.59529,125.71433,92,49,0
125.71433,125.83338,93,49,0
125.83041,125.949455,92,49,0
125.95243,126.07148,90,49,0
126.07148,126.19053,88,49,0
126.18755,126.306595,86,49,0
126.30958,126.42862,85,49,0
126.42862,126.54767,83,49,0
126.54469,126.66374,81,49,0
126.66672,126.78577,80,49,0
126.78577,126.904816,78,49,0
126.90184,127.02088,76,49,0
127.02386,127.14291,74,49,0
127.14291,127.261955,73,49,0
127.25898,127.37803,71,49,0
127.381004,127.50005,69,49,0
127.50005,127.6191,68,49,0
127.61612,127.73517,66,49,0
127.738144,127.85719,64,49,0
127.85719,127.97624,62,49,0
127.97327,128.09232,66,49,0
128.09529,128.21434,64,49,0
128.21434,128.33339,62,49,0
128.33041,128.44946,61,49,0
128.45244,128.57149,59,49,0
128.57149,128.69052,57,49,0
128.68755,128.8066,61,49,0
128.80957,128.92862,57,49,0
128.92862,129.04767,61,49,0
129.0447,129.16374,69,49,0
129.16672,129.28577,61,49,0
129.28577,129.40482,57,49,0
129.40184,129.52089,61,49,0
129.52386,129.64291,57,49,0
129.64291,129.76196,61,49,0
129.75899,129.87802,69,49,0
129.881,130.00005,61,49,0
130.00005,130.1191,61,62,0
130.11612,130.23517,69,62,0
130.23814,130.3572,61,62,0
130.3572,130.47624,69,62,0
130.47327,130.59232,73,62,0
130.59529,130.71434,69,62,0
130.71434,130.83339,61,62,0
130.83041,130.94946,69,62,0
130.95244,131.07149,61,62,0
131.07149,131.19052,69,62,0
131.18755,131.3066,73,62,0
131.30957,131.42862,69,62,0
131.42862,131.54767,64,75,0
131.5447,131.66374,73,75,0
131.66672,131.78577,64,75,0
131.78577,131.90482,73,75,0
131.90184,132.02089,76,75,0
132.02386,132.14291,73,75,0
132.14291,132.26196,64,75,0
132.25899,132.37804,73,75,0
132.38101,132.50005,64,75,0
132.50005,132.6191,73,75,0
132.61612,132.73517,76,75,0
132.73814,132.8572,73,75,0
132.8572,132.97624,69,88,0
132.97327,133.09232,73,88,0
133.09529,133.21434,69,88,0
133.21434,133.33339,73,88,0
133.33041,133.44946,81,88,0
133.45244,133.57149,73,88,0
133.57149,133.69054,73,88,0
133.68756,133.8066,81,88,0
133.80957,133.92862,73,88,0
133.92862,134.04767,81,88,0
134.0447,134.16374,85,88,0
134.16672,134.28577,81,88,0
134.28577,135.00006,86,88,0
134.28577,135.00006,74,88,0
134.28577,135.00006,78,88,0
134.28577,135.00006,81,88,0
135.00006,135.01791,62,88,0
135.00006,135.01791,57,88,0
135.17862,135.19649,62,88,0
135.17862,135.19649,57,88,0
135.3572,135.37506,62,88,0
135.3572,135.37506,57,88,0
135.53577,135.55362,62,88,0
135.53577,135.55362,57,88,0
135.71434,136.07149,57,88,0
136.07149,136.25006,64,88,0
136.07149,136.25006,59,88,0
135.71434,136.25006,62,88,0
136.42862,136.44649,66,88,0
136.42862,136.44649,62,88,0
136.42862,136.44649,60,88,0
136.6072,136.62506,66,88,0
136.6072,136.62506,62,88,0
136.6072,136.62506,60,88,0
136.78577,136.80362,66,88,0
136.78577,136.80362,62,88,0
136.78577,136.80362,60,88,0
136.96434,136.9822,66,88,0
136.96434,136.9822,62,88,0
136.96434,136.9822,60,88,0
137.14291,137.50006,66,88,0
137.14291,137.50006,60,88,0
137.50006,137.67862,67,88,0
137.50006,137.67862,59,88,0
137.14291,137.67862,62,88,0
137.67862,137.8572,64,88,0
137.8572,137.97624,67,88,0
137.97327,138.09232,66,88,0
138.09529,138.21434,64,88,0
138.21434,138.33339,70,88,0
138.33041,138.44946,69,88,0
138.45244,138.57149,67,88,0
138.57149,138.75006,69,88,0
138.92862,139.04767,78,49,0
139.0447,139.16374,76,49,0
139.16672,139.28577,74,49,0
139.28577,139.40482,81,49,0
139.40184,139.52089,79,49,0
139.52386,139.64291,78,49,0
139.64291,139.76196,76,49,0
139.75899,139.87804,74,49,0
139.88101,140.00006,73,49,0
140.00006,140.71434,86,88,0
140.00006,140.71434,74,88,0
140.00006,140.71434,78,88,0
140.00006,140.71434,81,88,0
140.71434,140.7322,62,88,0
140.71434,140.7322,57,88,0
140.89291,140.91077,62,88,0
140.89291,140.91077,57,88,0
141.07149,141.08934,62,88,0
141.07149,141.08934,57,88,0
141.25006,141.26791,62,88,0
141.25006,141.26791,57,88,0
141.42863,141.78577,57,88,0
141.78577,141.96434,64,88,0
141.78577,141.96434,58,88,0
141.42863,141.96434,62,88,0
142.14291,142.16077,66,88,0
142.14291,142.16077,62,88,0
142.14291,142.16077,60,88,0
142.32149,142.33934,66,88,0
142.32149,142.33934,62,88,0
142.32149,142.33934,60,88,0
142.50006,142.51791,66,88,0
142.50006,142.51791,62,88,0
142.50006,142.51791,60,88,0
142.67863,142.69649,66,88,0
142.67863,142.69649,62,88,0
142.67863,142.69649,60,88,0
142.8572,143.21434,66,88,0
142.8572,143.21434,60,88,0
143.21434,143.39291,67,88,0
143.21434,143.39291,58,88,0
142.8572,143.39291,62,88,0
143.57149,143.58934,68,88,0
143.57149,143.58934,65,88,0
143.57149,143.58934,62,88,0
143.75006,143.76791,68,88,0
143.75006,143.76791,65,88,0
143.75006,143.76791,62,88,0
143.92863,143.94649,68,88,0
143.92863,143.94649,65,88,0
143.92863,143.94649,62,88,0
144.1072,144.12506,68,88,0
144.1072,144.12506,65,88,0
144.1072,144.12506,62,88,0
144.28577,144.64291,69,88,0
144.28577,144.64291,65,88,0
144.28577,144.64291,60,88,0
144.64291,144.76196,72,88,0
144.75899,144.87804,70,88,0
144.88101,145.00006,69,88,0
145.00006,145.11911,67,49,0
145.11613,145.23518,65,49,0
145.23816,145.35721,64,49,0
145.35721,145.47624,62,49,0
145.47327,145.59232,60,49,0
145.59529,145.71434,58,49,0
145.71434,145.83339,57,49,0
145.83041,145.94946,58,49,0
145.95244,146.07149,60,49,0
146.07149,146.19054,72,49,0
146.18756,146.30661,70,49,0
146.30959,146.42863,69,49,0
146.42863,146.54768,67,49,0
146.54471,146.66374,65,49,0
146.66673,146.78577,64,49,0
146.78577,146.90482,62,49,0
146.90184,147.02089,60,49,0
147.02386,147.14291,58,49,0
147.14291,147.26196,57,49,0
147.25899,147.37804,58,49,0
147.38101,147.50006,60,49,0
147.50006,147.61911,57,49,0
147.61613,147.73518,58,49,0
147.73816,147.85721,60,49,0
147.85721,147.97624,57,49,0
147.97327,148.09232,58,49,0
148.09529,148.21434,60,49,0
148.21434,148.33339,57,49,0
148.33041,148.44946,58,49,0
148.45244,148.57149,60,49,0
148.57149,148.69054,57,62,0
148.68756,148.80661,58,62,0
148.80959,148.92863,60,62,0
148.92863,149.04768,57,75,0
149.04471,149.16376,58,75,0
149.16673,149.28577,60,75,0
149.28577,149.40482,57,88,0
149.40184,149.52089,58,88,0
149.52386,149.64291,60,88,0
149.64291,149.76196,57,101,0
149.75899,149.87804,58,101,0
149.88101,150.00006,60,101,0
150.00006,150.71434,61,114,0
150.00006,150.71434,56,114,0
150.00006,150.71434,53,114,0
150.71434,150.73221,65,49,0
150.71434,150.73221,61,49,0
150.71434,150.73221,56,49,0
150.89291,150.91078,65,49,0
150.89291,150.91078,61,49,0
150.89291,150.91078,56,49,0
151.07149,151.08934,65,49,0
151.07149,151.08934,61,49,0
151.07149,151.08934,56,49,0
151.25006,151.26791,65,49,0
151.25006,151.26791,61,49,0
151.25006,151.26791,56,49,0
151.42863,152.14291,68,49,0
151.42863,152.14291,65,49,0
151.42863,152.14291,61,49,0
152.14291,152.16078,73,49,0
152.14291,152.16078,68,49,0
152.14291,152.16078,65,49,0
152.32149,152.33934,73,49,0
152.32149,152.33934,68,49,0
152.32149,152.33934,65,49,0
152.50006,152.51791,73,49,0
152.50006,152.51791,68,49,0
152.50006,152.51791,65,49,0
152.67863,152.69649,73,49,0
152.67863,152.69649,68,49,0
152.67863,152.69649,65,49,0
152.85721,153.57149,73,62,0
152.85721,153.57149,64,62,0
152.85721,153.57149,67,62,0
152.85721,153.57149,69,62,0
153.57149,153.58934,76,75,0
153.57149,153.58934,67,75,0
153.57149,153.58934,69,75,0
153.57149,153.58934,73,75,0
153.75006,153.76791,76,75,0
153.75006,153.76791,67,75,0
153.75006,153.76791,69,75,0
153.75006,153.76791,73,75,0
153.92863,153.94649,76,75,0
153.92863,153.94649,67,75,0
153.92863,153.94649,69,75,0
153.92863,153.94649,73,75,0
154.10721,154.12506,76,75,0
154.10721,154.12506,67,75,0
154.10721,154.12506,69,75,0
154.10721,154.12506,73,75,0
154.28578,155.00006,81,88,0
154.28578,155.00006,76,88,0
154.28578,155.00006,69,88,0
154.28578,155.00006,73,88,0
154.28578,155.00006,79,88,0
155.00006,155.01791,85,88,0
155.00006,155.01791,76,88,0
155.00006,155.01791,79,88,0
155.00006,155.01791,81,88,0
155.17863,155.19649,85,88,0
155.17863,155.19649,76,88,0
155.17863,155.19649,79,88,0
155.17863,155.19649,81,88,0
155.35721,155.37506,85,88,0
155.35721,155.37506,76,88,0
155.35721,155.37506,79,88,0
155.35721,155.37506,81,88,0
155.53578,155.55363,85,88,0
155.53578,155.55363,76,88,0
155.53578,155.55363,79,88,0
155.53578,155.55363,81,88,0
155.71436,156.42863,86,101,0
155.71436,156.42863,74,101,0
155.71436,156.42863,78,101,0
155.71436,156.42863,81,101,0
156.42863,156.44649,62,101,0
156.42863,156.44649,57,101,0
156.60721,156.62506,62,101,0
156.60721,156.62506,57,101,0
156.78578,156.80363,62,101,0
156.78578,156.80363,57,101,0
156.96436,156.98221,62,101,0
156.96436,156.98221,57,101,0
157.14291,157.50006,57,101,0
157.50006,157.67863,64,75,0
157.50006,157.67863,59,75,0
157.14291,157.67863,62,101,0
157.85721,157.97626,57,75,0
157.97328,158.09233,59,75,0
158.0953,158.21436,60,75,0
158.21436,158.33339,62,75,0
158.33041,158.44946,64,75,0
158.45244,158.57149,66,75,0
158.57149,158.75006,58,101,0
158.75006,158.92863,66,75,0
158.92863,159.10721,59,101,0
159.10721,159.28578,67,75,0
159.28578,159.30363,69,75,0
159.28578,159.30363,67,75,0
159.28578,159.30363,64,75,0
159.46436,159.48221,69,75,0
159.46436,159.48221,67,75,0
159.46436,159.48221,64,75,0
159.64291,159.66078,69,75,0
159.64291,159.66078,67,75,0
159.64291,159.66078,64,75,0
159.82149,159.83936,69,75,0
159.82149,159.83936,67,75,0
159.82149,159.83936,64,75,0
160.00006,160.35721,69,75,0
160.00006,160.35721,64,75,0
160.35721,160.53578,71,75,0
160.35721,160.53578,62,75,0
160.00006,160.53578,67,75,0
160.71436,160.8334,62,75,0
160.83043,160.94946,64,75,0
160.95244,161.07149,66,75,0
161.07149,161.19054,67,75,0
161.18756,161.30661,69,75,0
161.30959,161.42863,71,75,0
161.42863,161.60721,63,101,0
161.60721,161.78578,71,75,0
161.78578,161.96436,64,75,0
161.96436,162.14293,72,75,0
162.14293,162.16078,73,75,0
162.14293,162.16078,70,75,0
162.14293,162.16078,67,75,0
162.32149,162.33936,73,75,0
162.32149,162.33936,70,75,0
162.32149,162.33936,67,75,0
162.50006,162.51793,73,75,0
162.50006,162.51793,70,75,0
162.50006,162.51793,67,75,0
162.67863,162.69649,73,75,0
162.67863,162.69649,70,75,0
162.67863,162.69649,67,75,0
162.85721,163.21436,73,75,0
162.85721,163.21436,67,75,0
163.21436,163.39293,74,75,0
163.21436,163.39293,65,75,0
162.85721,163.39293,70,75,0
163.57149,163.69054,65,75,0
163.68756,163.80661,67,75,0
163.80959,163.92863,69,75,0
163.92863,164.04768,70,75,0
164.04471,164.16376,72,75,0
164.16673,164.28578,74,75,0
164.28578,164.46436,75,75,0
164.46436,164.64293,67,75,0
164.64293,164.82149,74,75,0
164.82149,165.00006,65,75,0
165.00006,165.01793,73,75,0
165.00006,165.01793,64,75,0
165.00006,165.01793,67,75,0
165.00006,165.01793,70,75,0
165.17863,165.19649,73,75,0
165.17863,165.19649,64,75,0
165.17863,165.19649,67,75,0
165.17863,165.19649,70,75,0
165.35721,165.37506,73,75,0
165.35721,165.37506,64,75,0
165.35721,165.37506,67,75,0
165.35721,165.37506,70,75,0
165.53578,165.55363,73,75,0
165.53578,165.55363,64,75,0
165.53578,165.55363,67,75,0
165.53578,165.55363,70,75,0
165.71436,166.07149,73,75,0
165.71436,166.07149,64,75,0
165.71436,166.07149,67,75,0
166.07149,166.25006,74,75,0
166.07149,166.25006,65,75,0
165.71436,166.25006,70,75,0
166.42863,166.54768,65,75,0
166.54471,166.66376,67,75,0
166.66673,166.78578,69,75,0
166.78578,166.90483,70,75,0
166.90186,167.0209,72,75,0
167.02388,167.14293,74,75,0
167.14293,167.3215,79,75,0
167.14293,167.3215,75,75,0
167.3215,167.50006,67,75,0
167.50006,167.67863,77,75,0
167.50006,167.67863,74,75,0
167.67863,167.85721,65,75,0
167.85721,167.87506,73,75,0
167.85721,167.87506,64,75,0
167.85721,167.87506,67,75,0
167.85721,167.87506,71,75,0
168.03578,168.05363,73,75,0
168.03578,168.05363,64,75,0
168.03578,168.05363,67,75,0
168.03578,168.05363,70,75,0
168.21436,168.23221,73,75,0
168.21436,168.23221,64,75,0
168.21436,168.23221,67,75,0
168.21436,168.23221,70,75,0
168.39293,168.41078,73,75,0
168.39293,168.41078,64,75,0
168.39293,168.41078,67,75,0
168.39293,168.41078,70,75,0
168.5715,168.92863,73,75,0
168.5715,168.92863,64,75,0
168.5715,168.92863,67,75,0
168.92863,169.10721,74,75,0
168.92863,169.10721,65,75,0
168.5715,169.10721,70,75,0
169.28578,169.40483,65,75,0
169.40186,169.5209,67,75,0
169.52388,169.64293,69,75,0
169.64293,169.76198,70,75,0
169.759,169.87805,72,75,0
169.88103,170.00006,74,75,0
170.00006,170.11911,75,75,0
170.11613,170.23518,77,75,0
170.23816,170.35721,79,75,0
170.35721,170.47626,77,75,0
170.47328,170.59233,75,75,0
170.5953,170.71436,74,75,0
170.71436,170.8334,73,75,0
170.83043,170.94948,70,75,0
170.95245,171.0715,67,75,0
171.0715,171.19055,64,75,0
171.18756,171.30661,61,75,0
171.30959,171.42863,64,75,0
171.42863,171.54768,65,75,0
171.54471,171.66376,62,75,0
171.66673,171.78578,65,75,0
171.78578,171.90483,62,75,0
171.90186,172.0209,58,75,0
172.02388,172.14293,62,75,0
172.14293,172.26198,65,75,0
172.259,172.37805,67,75,0
172.38103,172.50008,69,75,0
172.50008,172.61911,70,75,0
172.61613,172.73518,72,75,0
172.73816,172.85721,74,75,0
172.85721,172.97626,75,75,0
172.97328,173.09233,77,75,0
173.0953,173.21436,79,75,0
173.21436,173.3334,77,75,0
173.33043,173.44948,75,75,0
173.45245,173.5715,74,75,0
173.5715,173.69055,73,75,0
173.68758,173.80661,70,75,0
173.8096,173.92863,67,75,0
173.92863,174.04768,64,75,0
174.04471,174.16376,61,75,0
174.16673,174.28578,64,75,0
174.28578,174.29768,67,101,0
174.40186,174.5209,64,75,0
174.52388,174.64293,67,75,0
174.64293,174.76198,64,75,0
174.759,174.87805,61,75,0
174.88103,175.00008,64,75,0
175.00008,175.01198,68,114,0
175.11613,175.23518,64,88,0
175.23816,175.35721,68,88,0
175.35721,175.47626,64,88,0
175.47328,175.59233,61,88,0
175.5953,175.71436,64,88,0
175.71436,175.8334,69,114,0
175.83043,175.94948,64,88,0
175.95245,176.0715,69,88,0
176.0715,176.19055,64,88,0
176.18758,176.30663,61,88,0
176.3096,176.42863,64,88,0
176.42863,176.54768,69,114,0
176.54471,176.66376,64,88,0
176.66673,176.78578,69,88,0
176.78578,176.90483,64,88,0
176.90186,177.0209,60,88,0
177.02388,177.14293,64,88,0
177.14293,177.26198,74,114,0
177.259,177.37805,69,88,0
177.38103,177.50008,74,88,0
177.50008,177.61913,69,88,0
177.61615,177.73518,62,88,0
177.73816,177.85721,69,88,0
177.85721,177.97626,80,114,0
177.97328,178.09233,74,88,0
178.0953,178.21436,80,88,0
178.21436,178.3334,74,88,0
178.33043,178.44948,68,88,0
178.45245,178.5715,74,88,0
178.5715,179.28578,81,114,0
178.5715,179.28578,69,114,0
178.5715,179.28578,73,114,0
178.5715,179.28578,76,114,0
179.28578,179.46436,75,49,0
179.28578,179.46436,72,49,0
179.46436,179.64293,75,49,0
179.46436,179.64293,72,49,0
179.64293,179.8215,75,49,0
179.64293,179.8215,72,49,0
179.8215,180.00008,75,49,0
179.8215,180.00008,72,49,0
180.00008,180.35721,76,49,0
180.00008,180.35721,73,49,0
180.35721,180.53578,85,49,0
182.14293,182.26198,59,75,0
182.259,182.37805,61,75,0
182.38103,182.50008,62,75,0
182.50008,182.61913,64,75,0
182.61615,182.7352,66,75,0
182.73817,182.85722,68,75,0
182.85722,183.5715,81,101,0
182.85722,183.5715,69,101,0
182.85722,183.5715,73,101,0
182.85722,183.5715,76,101,0
183.5715,183.83936,75,49,0
183.5715,183.83936,72,49,0
183.83936,183.92865,75,49,0
183.83936,183.92865,72,49,0
183.92865,184.1965,75,49,0
183.92865,184.1965,72,49,0
184.1965,184.28578,75,49,0
184.1965,184.28578,72,49,0
184.28578,184.64293,76,49,0
184.28578,184.64293,73,49,0
184.64293,184.8215,85,49,0
186.42865,186.5477,59,75,0
186.54472,186.66377,61,75,0
186.66675,186.78578,62,75,0
186.78578,186.90483,64,75,0
186.90186,187.0209,66,75,0
187.02388,187.14293,68,75,0
187.14293,187.26198,69,75,0
187.259,187.37805,71,75,0
187.38103,187.50008,73,75,0
187.50008,187.61913,74,75,0
187.61615,187.7352,76,75,0
187.73817,187.85722,78,75,0
187.85722,187.97627,80,75,0
187.97328,188.09233,81,75,0
188.0953,188.21436,83,75,0
188.21436,188.3334,85,75,0
188.33043,188.44948,86,75,0
188.45245,188.5715,88,75,0
188.5715,188.69055,86,75,0
188.68758,188.80663,85,75,0
188.8096,188.92865,83,75,0
188.92865,189.0477,81,75,0
189.04472,189.16377,80,75,0
189.16675,189.2858,78,75,0
189.2858,189.40483,76,75,0
189.40186,189.5209,74,75,0
189.52388,189.64293,73,75,0
189.64293,189.76198,71,75,0
189.759,189.87805,69,75,0
189.88103,190.00008,68,75,0
190.00008,190.35722,69,49,0
190.35722,190.5358,61,49,0
190.71436,191.0715,71,49,0
191.0715,191.25008,64,49,0
191.384,191.42865,64,49,0
191.42865,191.7858,73,49,0
191.7858,191.96436,69,49,0
192.0983,192.14293,69,49,0
192.14293,192.4108,78,75,0
192.4108,192.50008,75,49,0
192.50008,192.76793,78,49,0
192.76793,192.85722,75,49,0
192.85722,193.21436,76,75,0
193.21436,193.39293,64,49,0
193.52687,193.5715,64,49,0
193.5715,193.92865,74,49,0
193.92865,194.10722,71,49,0
194.24115,194.2858,71,49,0
194.2858,194.64293,73,49,0
194.64293,194.8215,64,49,0
194.95543,195.00008,64,49,0
195.00008,195.26793,71,49,0
195.26793,195.35722,68,49,0
195.35722,195.62508,71,49,0
195.62508,195.71437,68,49,0
195.71437,195.8334,69,49,0
195.83043,195.94948,64,49,0
195.95245,196.0715,69,49,0
196.0715,196.25008,61,49,0
196.42865,196.5477,71,49,0
196.54472,196.66377,68,49,0
196.66675,196.7858,71,49,0
196.7858,196.96437,64,49,0
197.14293,197.26198,73,49,0
197.259,197.37805,71,49,0
197.38103,197.50008,73,49,0
197.50008,197.67865,69,49,0
197.85722,197.97627,78,49,0
197.9733,198.09235,75,49,0
198.09532,198.21437,78,49,0
198.21437,198.33342,81,49,0
198.33043,198.44948,78,49,0
198.45245,198.5715,75,49,0
198.5715,198.69055,76,49,0
198.68758,198.80663,73,49,0
198.8096,198.92865,76,49,0
198.92865,199.10722,64,49,0
199.2858,199.40485,74,49,0
199.40187,199.52092,73,49,0
199.5239,199.64294,74,49,0
199.64294,199.8215,71,49,0
200.00008,200.11913,73,49,0
200.11615,200.2352,69,49,0
200.23817,200.35722,73,49,0
200.35722,200.5358,64,49,0
200.71437,200.98222,71,49,0
200.98222,201.0715,68,49,0
201.0715,201.33937,71,49,0
201.33937,201.42865,68,49,0
201.42865,201.5477,71,101,0
201.54472,201.66377,62,101,0
201.66675,201.7858,71,101,0
201.7858,202.4108,55,101,0
202.4108,202.50008,71,101,0
202.4108,202.50008,62,101,0
202.50008,202.76794,55,101,0
202.76794,202.85722,62,101,0
202.85722,202.97627,71,101,0
202.9733,203.09235,62,101,0
203.09532,203.21437,71,101,0
203.21437,203.83937,55,101,0
203.83937,203.92865,71,101,0
203.83937,203.92865,62,101,0
203.92865,204.55365,55,101,0
204.55365,204.64294,71,101,0
204.55365,204.64294,62,101,0
204.64294,205.26794,55,127,0
205.26794,205.35722,71,101,0
205.26794,205.35722,62,101,0
205.35722,205.62508,55,127,0
205.62508,205.71437,71,101,0
205.62508,205.71437,62,101,0
205.71437,205.83342,72,101,0
205.83044,205.9495,64,101,0
205.95247,206.07152,72,101,0
206.07152,206.69652,76,127,0
206.69652,206.7858,64,101,0
206.7858,207.05365,76,127,0
206.7858,207.05365,72,119,0
207.05365,207.14294,64,101,0
207.14294,207.262,72,101,0
207.25902,207.37805,64,101,0
207.38104,207.50008,72,101,0
207.50008,208.12508,76,127,0
208.12508,208.21437,64,101,0
208.21437,208.83937,76,127,0
208.21437,208.83937,72,119,0
208.83937,208.92865,64,101,0
208.92865,209.55365,76,127,0
208.92865,209.55365,72,119,0
209.55365,209.64294,64,101,0
209.64294,210.26794,76,127,0
209.64294,210.26794,74,122,0
209.64294,210.26794,68,117,0
210.26794,210.35722,64,49,0
210.35722,210.62509,76,49,0
210.35722,210.62509,74,49,0
210.35722,210.62509,68,49,0
210.62509,210.71437,64,49,0
210.71437,210.98222,76,49,0
210.71437,210.98222,74,49,0
210.71437,210.98222,68,49,0
210.98222,211.07152,64,49,0
211.07152,211.33937,76,49,0
211.07152,211.33937,74,49,0
211.07152,211.33937,68,49,0
211.33937,211.42865,64,49,0
211.42865,211.5477,76,49,0
211.42865,211.5477,69,49,0
211.42865,211.5477,73,49,0
211.54472,211.66377,64,49,0
211.66675,211.7858,69,49,0
211.7858,211.90485,73,49,0
211.90187,212.02092,76,49,0
212.0239,212.14294,81,49,0
212.14294,212.262,76,49,0
212.25902,212.37807,69,49,0
212.38104,212.50009,73,49,0
212.50009,212.61913,76,49,0
212.61615,212.7352,81,49,0
212.73817,212.85722,85,49,0
212.85722,212.97627,76,49,0
212.9733,213.09235,78,49,0
213.09532,213.21437,76,49,0
213.21437,213.33342,74,49,0
213.33044,213.4495,78,49,0
213.45247,213.57152,74,49,0
213.57152,213.69057,73,49,0
213.68759,213.80664,76,49,0
213.80962,213.92865,73,49,0
213.92865,214.0477,71,49,0
214.04472,214.16377,74,49,0
214.16675,214.2858,71,49,0
214.2858,214.40485,69,49,0
214.40187,214.52092,64,49,0
214.5239,214.64294,69,49,0
214.64294,214.762,73,49,0
214.75902,214.87807,76,49,0
214.88104,215.00009,81,49,0
215.00009,215.11914,76,49,0
215.11615,215.2352,73,49,0
215.23817,215.35722,76,49,0
215.35722,215.47627,81,49,0
215.4733,215.59235,85,49,0
215.59532,215.71437,88,49,0
215.71437,215.83342,76,49,0
215.83044,215.9495,78,49,0
215.95247,216.07152,76,49,0
216.07152,216.19057,74,49,0
216.18759,216.30664,76,49,0
216.30962,216.42867,74,49,0
216.42867,216.5477,73,49,0
216.54472,216.66377,74,49,0
216.66675,216.7858,73,49,0
216.7858,216.90485,71,49,0
216.90187,217.02092,73,49,0
217.0239,217.14294,71,49,0
217.14294,217.262,61,36,0
217.25902,217.37807,64,36,0
217.38104,217.50009,61,36,0
217.50009,217.61914,64,36,0
217.61617,217.7352,69,36,0
217.73819,217.85722,64,36,0
217.85722,217.97627,64,36,0
217.9733,218.09235,68,36,0
218.09532,218.21437,64,36,0
218.21437,218.33342,68,36,0
218.33044,218.4495,71,36,0
218.45247,218.57152,68,36,0
218.57152,218.69057,64,36,0
218.68759,218.80664,69,36,0
218.80962,218.92867,64,36,0
218.92867,219.04771,69,36,0
219.04472,219.16377,73,36,0
219.16675,219.2858,69,36,0
219.2858,219.40485,69,36,0
219.40187,219.52092,72,36,0
219.5239,219.64294,69,36,0
219.64294,219.762,72,36,0
219.75902,219.87807,75,36,0
219.88104,220.00009,72,36,0
220.00009,220.11914,69,36,0
220.11617,220.23521,73,36,0
220.23819,220.35722,69,36,0
220.35722,220.47627,73,36,0
220.4733,220.59235,76,36,0
220.59532,220.71437,73,36,0
220.71437,220.83342,64,36,0
220.83044,220.9495,71,36,0
220.95247,221.07152,64,36,0
221.07152,221.19057,71,36,0
221.18759,221.30664,74,36,0
221.30962,221.42867,71,36,0
221.42867,221.54771,64,36,0
221.54474,221.66377,69,36,0
221.66675,221.7858,64,36,0
221.7858,221.90485,69,36,0
221.90187,222.02092,73,36,0
222.0239,222.14294,69,36,0
222.14294,222.262,64,36,0
222.25902,222.37807,68,36,0
222.38104,222.50009,64,36,0
222.50009,222.61914,68,36,0
222.61617,222.73521,71,36,0
222.73819,222.85724,68,36,0
222.85724,222.97627,73,36,0
222.9733,223.09235,76,36,0
223.09532,223.21437,73,36,0
223.21437,223.33342,76,36,0
223.33044,223.4495,81,36,0
223.45247,223.57152,76,36,0
223.57152,223.69057,76,36,0
223.68759,223.80664,80,36,0
223.80962,223.92867,76,36,0
223.92867,224.04771,80,36,0
224.04474,224.16377,83,36,0
224.16676,224.2858,80,36,0
224.2858,224.40485,76,36,0
224.40187,224.52092,81,36,0
224.5239,224.64294,76,36,0
224.64294,224.762,81,36,0
224.75902,224.87807,85,36,0
224.88104,225.00009,81,36,0
225.00009,225.11914,81,36,0
225.11617,225.23521,84,36,0
225.23819,225.35724,81,36,0
225.35724,225.47629,84,36,0
225.4733,225.59235,87,36,0
225.59532,225.71437,84,36,0
225.71437,225.83342,81,49,0
225.83044,225.9495,84,49,0
225.95247,226.07152,81,49,0
226.07152,226.19057,84,49,0
226.18759,226.30664,87,49,0
226.30962,226.42867,84,49,0
226.42867,226.54771,81,49,0
226.54474,226.66379,84,49,0
226.66676,226.78581,81,49,0
226.78581,226.90485,84,49,0
226.90187,227.02092,87,49,0
227.0239,227.14294,84,49,0
227.14294,227.262,81,49,0
227.25902,227.37807,84,49,0
227.38104,227.50009,81,49,0
227.50009,227.61914,84,49,0
227.61617,227.73521,87,49,0
227.73819,227.85724,84,49,0
227.85724,227.97629,81,49,0
227.97331,228.09235,84,49,0
228.09534,228.21437,81,49,0
228.21437,228.33342,84,49,0
228.33044,228.4495,89,49,0
228.45247,228.57152,84,49,0
228.57152,228.69057,81,49,0
228.68759,228.80664,84,49,0
228.80962,228.92867,81,49,0
228.92867,229.04771,84,49,0
229.04474,229.16379,89,49,0
229.16676,229.28581,84,49,0
229.28581,229.40485,81,49,0
229.40187,229.52092,84,49,0
229.5239,229.64294,81,49,0
229.64294,229.762,84,49,0
229.75902,229.87807,89,49,0
229.88104,230.00009,84,49,0
230.00009,230.11914,82,49,0
230.11617,230.23521,86,49,0
230.23819,230.35724,82,49,0
230.35724,230.47629,86,49,0
230.47331,230.59236,89,49,0
230.59534,230.71437,86,49,0
230.71437,230.83342,80,49,0
230.83044,230.9495,83,49,0
230.95247,231.07152,80,49,0
231.07152,231.19057,83,49,0
231.18759,231.30664,88,49,0
231.30962,231.42867,83,49,0
231.42867,231.54771,81,49,0
231.54474,231.66379,85,49,0
231.66676,231.78581,81,49,0
231.78581,231.90486,85,49,0
231.90189,232.02092,88,49,0
232.0239,232.14294,85,49,0
232.14294,232.262,74,49,0
232.25902,232.37807,81,49,0
232.38104,232.50009,74,49,0
232.50009,232.61914,81,49,0
232.61617,232.73521,86,49,0
232.73819,232.85724,81,49,0
232.85724,232.97629,76,49,0
232.97331,233.09236,81,49,0
233.09534,233.21439,76,49,0
233.21439,233.33342,81,49,0
233.33044,233.4495,85,49,0
233.45247,233.57152,81,49,0
233.57152,233.69057,76,49,0
233.68759,233.80664,83,49,0
233.80962,233.92867,80,49,0
233.92867,234.04771,76,49,0
234.04474,234.16379,74,49,0
234.16676,234.28581,71,49,0
234.28581,234.40486,67,101,0
234.40189,234.52092,69,101,0
234.52391,234.64294,67,101,0
234.64294,234.762,64,101,0
234.75902,234.87807,61,101,0
234.88104,235.00009,57,101,0
235.00009,235.11914,55,127,0
235.11617,235.23521,57,101,0
235.23819,235.35724,55,101,0
235.35724,235.47629,57,101,0
235.47331,235.59236,55,101,0
235.59534,235.71439,57,101,0
235.71439,235.83344,65,114,0
235.83044,235.9495,69,114,0
235.95247,236.07152,65,114,0
236.07152,236.19057,60,114,0
236.18759,236.30664,57,114,0
236.30962,236.42867,53,114,0
236.42867,236.54771,57,114,0
236.54474,236.66379,53,114,0
236.66676,236.78581,57,114,0
236.78581,236.90486,53,114,0
236.90189,237.02094,57,114,0
237.02391,237.14296,53,114,0
237.14296,237.262,67,114,0
237.25902,237.37807,69,114,0
237.38104,237.50009,67,114,0
237.50009,237.61914,64,114,0
237.61617,237.73521,61,114,0
237.73819,237.85724,57,114,0
237.85724,237.97629,55,114,0
237.97331,238.09236,57,114,0
238.09534,238.21439,55,114,0
238.21439,238.33344,57,114,0
238.33046,238.4495,55,114,0
238.45247,238.57152,57,114,0
238.57152,238.69057,65,101,0
238.68759,238.80664,69,101,0
238.80962,238.92867,65,101,0
238.92867,239.04771,60,101,0
239.04474,239.16379,57,101,0
239.16676,239.28581,53,101,0
239.28581,239.40486,57,127,0
239.40189,239.52094,53,101,0
239.52391,239.64296,57,101,0
239.64296,239.762,53,101,0
239.75902,239.87807,57,101,0
239.88104,240.00009,53,101,0
240.00009,240.11914,52,49,0
240.11617,240.23521,54,49,0
240.23819,240.35724,56,49,0
240.35724,240.47629,57,49,0
240.47331,240.59236,59,49,0
240.59534,240.71439,61,49,0
240.71439,240.83344,62,49,0
240.83046,240.94951,64,49,0
240.95248,241.07152,66,49,0
241.07152,241.19057,68,49,0
241.18759,241.30664,69,49,0
241.30962,241.42867,71,49,0
241.42867,241.54771,73,49,0
241.54474,241.66379,74,49,0
241.66676,241.78581,76,49,0
241.78581,241.90486,78,49,0
241.90189,242.02094,80,49,0
242.02391,242.14296,81,49,0
242.14296,242.26201,83,49,0
242.25902,242.37807,85,49,0
242.38104,242.50009,86,49,0
242.50009,242.61914,88,49,0
242.61617,242.73521,90,49,0
242.73819,242.85724,92,49,0
242.85724,242.97629,93,49,0
242.97331,243.09236,92,49,0
243.09534,243.21439,90,49,0
243.21439,243.33344,88,49,0
243.33046,243.44951,86,49,0
243.45248,243.57153,85,49,0
243.57153,243.69057,83,49,0
243.68759,243.80664,81,49,0
243.80962,243.92867,80,49,0
243.92867,244.04771,78,49,0
244.04474,244.16379,76,49,0
244.16676,244.28581,74,49,0
244.28581,244.40486,73,49,0
244.40189,244.52094,71,49,0
244.52391,244.64296,69,49,0
244.64296,244.76201,68,49,0
244.75903,244.87807,66,49,0
244.88106,245.00009,64,49,0
245.00009,245.11914,62,49,0
245.11617,245.23521,66,49,0
245.23819,245.35724,64,49,0
245.35724,245.47629,62,49,0
245.47331,245.59236,61,49,0
245.59534,245.71439,59,49,0
245.71439,245.83344,67,101,0
245.83046,245.94951,69,101,0
245.95248,246.07153,67,101,0
246.07153,246.19058,64,101,0
246.18759,246.30664,61,101,0
246.30962,246.42867,57,101,0
246.42867,246.54771,55,127,0
246.54474,246.66379,57,101,0
246.66676,246.78581,55,101,0
246.78581,246.90486,57,101,0
246.90189,247.02094,55,101,0
247.02391,247.14296,57,101,0
247.14296,247.26201,65,114,0
247.25903,247.37808,69,114,0
247.38106,247.50009,65,114,0
247.50009,247.61914,60,114,0
247.61617,247.73521,57,114,0
247.73819,247.85724,53,114,0
247.85724,247.97629,57,114,0
247.97331,248.09236,53,114,0
248.09534,248.21439,57,114,0
248.21439,248.33344,53,114,0
248.33046,248.44951,57,114,0
248.45248,248.57153,53,114,0
248.57153,248.69058,65,114,0
248.6876,248.80664,67,114,0
248.80962,248.92867,65,114,0
248.92867,249.04771,62,114,0
249.04474,249.16379,59,114,0
249.16676,249.28581,55,114,0
249.28581,249.40486,53,114,0
249.40189,249.52094,55,114,0
249.52391,249.64296,53,114,0
249.64296,249.76201,55,114,0
249.75903,249.87808,53,114,0
249.88106,250.0001,55,114,0
250.0001,250.11914,63,114,0
250.11617,250.23521,67,114,0
250.23819,250.35724,63,114,0
250.35724,250.47629,59,114,0
250.47331,250.59236,55,114,0
250.59534,250.71439,51,114,0
250.71439,250.83344,55,114,0
250.83046,250.94951,51,114,0
250.95248,251.07153,55,114,0
251.07153,251.19058,51,114,0
251.1876,251.30664,55,114,0
251.30963,251.42867,51,114,0
257.14297,257.262,52,49,0
257.25903,257.37808,54,49,0
257.38104,257.5001,56,49,0
257.5001,257.61914,57,49,0
257.61618,257.73523,59,49,0
257.7382,257.85724,61,49,0
257.85724,257.9763,62,49,0
257.97333,258.09238,64,49,0
258.09534,258.2144,66,49,0
258.2144,258.33344,68,49,0
258.33047,258.4495,69,49,0
258.45248,258.57153,71,49,0
258.57153,258.69058,73,49,0
258.6876,258.80664,74,49,0
258.80963,258.92868,76,49,0
258.92868,259.04773,78,49,0
259.04474,259.1638,80,49,0
259.16678,259.28583,81,49,0
259.28583,259.40488,83,49,0
259.4019,259.52094,85,49,0
259.52393,259.64297,86,49,0
259.64297,259.762,88,49,0
259.75903,259.87808,90,49,0
259.88104,260.0001,92,49,0
260.0001,260.11914,93,49,0
260.11618,260.23523,92,49,0
260.2382,260.35724,90,49,0
260.35724,260.4763,88,49,0
260.47333,260.59238,86,49,0
260.59534,260.7144,85,49,0
260.7144,260.83344,83,49,0
260.83047,260.94952,81,49,0
260.95248,261.07153,80,49,0
261.07153,261.19058,78,49,0
261.1876,261.30664,76,49,0
261.30963,261.42868,74,49,0
261.42868,261.54773,73,49,0
261.54474,261.6638,71,49,0
261.66678,261.78583,69,49,0
261.78583,261.90488,68,49,0
261.9019,262.02094,66,49,0
262.02393,262.14297,64,49,0
262.14297,262.26202,62,49,0
262.25903,262.37808,66,49,0
262.38104,262.5001,64,49,0
262.5001,262.61914,62,49,0
262.61618,262.73523,61,49,0
262.7382,262.85724,59,49,0
262.85724,262.9763,57,49,0
262.97333,263.09238,61,49,0
263.09534,263.2144,57,49,0
263.2144,263.33344,61,49,0
263.33047,263.44952,69,49,0
263.45248,263.57153,61,49,0
263.57153,263.69058,57,49,0
263.6876,263.80664,61,49,0
263.80963,263.92868,57,49,0
263.92868,264.04773,61,49,0
264.04474,264.1638,69,49,0
264.16678,264.28583,61,49,0
264.28583,264.40488,61,62,0
264.4019,264.52094,69,62,0
264.52393,264.64297,61,62,0
264.64297,264.76202,69,62,0
264.75903,264.87808,73,62,0
264.88107,265.0001,69,62,0
265.0001,265.11914,61,62,0
265.11618,265.23523,69,62,0
265.2382,265.35724,61,62,0
265.35724,265.4763,69,62,0
265.47333,265.59238,73,62,0
265.59534,265.7144,69,62,0
265.7144,265.83344,64,75,0
265.83047,265.94952,73,75,0
265.95248,266.07153,64,75,0
266.07153,266.19058,73,75,0
266.1876,266.30664,76,75,0
266.30963,266.42868,73,75,0
266.42868,266.54773,64,75,0
266.54474,266.6638,73,75,0
266.66678,266.78583,64,75,0
266.78583,266.90488,73,75,0
266.9019,267.02094,76,75,0
267.02393,267.14297,73,75,0
267.14297,267.26202,69,88,0
267.25903,267.37808,73,88,0
267.38107,267.50012,69,88,0
267.50012,267.61914,73,88,0
267.61618,267.73523,81,88,0
267.7382,267.85724,73,88,0
267.85724,267.9763,73,88,0
267.97333,268.09238,81,88,0
268.09534,268.2144,73,88,0
268.2144,268.33344,81,88,0
268.33047,268.44952,85,88,0
268.45248,268.57153,81,88,0
268.57153,269.28583,86,114,0
268.57153,269.28583,74,114,0
268.57153,269.28583,77,114,0
268.57153,269.28583,82,114,0
269.28583,269.30368,70,114,0
269.28583,269.30368,62,114,0
269.4644,269.48224,70,114,0
269.4644,269.48224,62,114,0
269.64297,269.66083,70,114,0
269.64297,269.66083,62,114,0
269.82153,269.8394,70,114,0
269.82153,269.8394,62,114,0
270.00012,270.35724,70,114,0
270.00012,270.35724,62,114,0
270.35724,270.53583,72,114,0
270.35724,270.53583,65,114,0
270.7144,271.07153,72,114,0
270.7144,271.07153,65,114,0
271.07153,271.25012,74,114,0
271.07153,271.25012,70,114,0
271.42868,271.78583,74,114,0
271.42868,271.78583,70,114,0
271.78583,271.9644,72,114,0
271.78583,271.9644,65,114,0
272.14297,272.16083,72,114,0
272.14297,272.16083,65,114,0
272.32153,272.3394,72,114,0
272.32153,272.3394,65,114,0
272.50012,272.51797,72,114,0
272.50012,272.51797,65,114,0
272.67868,272.69653,72,114,0
272.67868,272.69653,65,114,0
272.85724,273.2144,72,114,0
272.85724,273.2144,65,114,0
273.2144,273.39297,77,114,0
273.2144,273.39297,74,114,0
273.57153,273.92868,77,114,0
273.57153,273.92868,74,114,0
273.92868,274.10724,75,114,0
273.92868,274.10724,69,114,0
274.28583,274.64297,75,114,0
274.28583,274.64297,69,114,0
274.64297,274.82153,74,114,0
274.64297,274.82153,70,114,0
275.00012,275.01797,82,114,0
275.00012,275.01797,70,114,0
275.00012,275.01797,74,114,0
275.00012,275.01797,79,114,0
275.17868,275.19653,82,114,0
275.17868,275.19653,70,114,0
275.17868,275.19653,74,114,0
275.17868,275.19653,79,114,0
275.35724,275.37512,82,114,0
275.35724,275.37512,70,114,0
275.35724,275.37512,74,114,0
275.35724,275.37512,79,114,0
275.53583,275.55368,82,114,0
275.53583,275.55368,70,114,0
275.53583,275.55368,74,114,0
275.53583,275.55368,79,114,0
275.7144,276.07153,82,114,0
275.7144,276.07153,79,114,0
275.7144,276.07153,74,114,0
276.07153,276.25012,79,114,0
276.07153,276.25012,74,114,0
275.7144,276.25012,70,114,0
276.42868,276.4644,77,114,0
276.42868,276.4644,74,114,0
276.42868,276.4644,65,114,0
276.78583,276.82153,74,114,0
276.78583,276.82153,70,114,0
276.78583,276.82153,65,114,0
277.14297,277.85724,72,114,0
277.14297,277.85724,69,114,0
277.14297,277.85724,65,114,0
277.85724,277.87512,73,114,0
277.85724,277.87512,61,114,0
278.03583,278.05368,73,114,0
278.03583,278.05368,61,114,0
278.2144,278.23227,73,114,0
278.2144,278.23227,61,114,0
278.39297,278.41083,73,114,0
278.39297,278.41083,61,114,0
278.57153,278.92868,77,114,0
278.57153,278.92868,74,114,0
278.92868,279.10727,74,114,0
278.92868,279.10727,70,114,0
278.57153,279.10727,65,114,0
279.28583,279.32153,74,114,0
279.28583,279.32153,70,114,0
279.28583,279.32153,65,114,0
279.64297,279.67868,72,114,0
279.64297,279.67868,69,114,0
279.64297,279.67868,65,114,0
280.00012,280.7144,86,114,0
280.00012,280.7144,74,114,0
280.00012,280.7144,77,114,0
280.00012,280.7144,82,114,0
280.7144,280.83344,65,114,0
280.83047,280.94952,63,114,0
280.95248,281.07153,62,114,0
281.07153,281.19058,70,114,0
281.18762,281.30667,69,114,0
281.30963,281.42868,67,114,0
281.42868,282.14297,65,114,0
282.14297,282.26202,77,114,0
282.25903,282.37808,75,114,0
282.38107,282.50012,74,114,0
282.50012,282.61917,82,114,0
282.61618,282.73523,81,114,0
282.73822,282.85727,79,114,0
282.85727,283.57153,77,114,0
283.57153,283.69058,77,114,0
283.68762,283.80667,81,114,0
283.80963,283.92868,82,114,0
283.92868,284.04773,84,114,0
284.04477,284.16382,86,114,0
284.16678,284.28583,87,114,0
284.28583,285.00012,89,114,0
285.00012,285.11917,81,114,0
285.11618,285.23523,82,114,0
285.23822,285.35727,84,114,0
285.35727,285.47632,86,114,0
285.47333,285.59238,87,114,0
285.59537,285.7144,89,114,0
285.7144,286.07153,90,114,0
286.07153,286.25012,91,114,0
286.42868,286.44653,82,114,0
286.42868,286.44653,70,114,0
286.42868,286.44653,74,114,0
286.42868,286.44653,79,114,0
286.60727,286.62512,82,114,0
286.60727,286.62512,70,114,0
286.60727,286.62512,74,114,0
286.60727,286.62512,79,114,0
286.78583,286.80368,82,114,0
286.78583,286.80368,70,114,0
286.78583,286.80368,74,114,0
286.78583,286.80368,79,114,0
286.9644,286.98227,82,114,0
286.9644,286.98227,70,114,0
286.9644,286.98227,74,114,0
286.9644,286.98227,79,114,0
287.14297,287.50012,82,114,0
287.14297,287.50012,79,114,0
287.14297,287.50012,74,114,0
287.50012,287.67868,79,114,0
287.50012,287.67868,74,114,0
287.14297,287.67868,70,114,0
287.85727,287.89297,77,114,0
287.85727,287.89297,74,114,0
287.85727,287.89297,65,114,0
288.2144,288.25012,74,114,0
288.2144,288.25012,70,114,0
288.2144,288.25012,65,114,0
288.57153,289.28583,72,114,0
288.57153,289.28583,69,114,0
288.57153,289.28583,65,114,0
289.28583,289.40488,68,114,0
289.40192,289.52094,72,114,0
289.52393,289.64297,76,114,0
289.64297,289.76202,77,114,0
289.75903,289.87808,79,114,0
289.88107,290.00012,80,114,0
290.00012,290.35727,84,114,0
290.00012,290.35727,81,114,0
290.35727,290.53583,81,114,0
290.35727,290.53583,77,114,0
290.00012,290.53583,72,114,0
290.71442,290.75012,81,114,0
290.71442,290.75012,77,114,0
290.71442,290.75012,72,114,0
291.07153,291.10727,79,114,0
291.07153,291.10727,76,114,0
291.07153,291.10727,72,114,0
291.42868,292.14297,77,114,0
291.42868,292.14297,72,114,0
291.42868,292.14297,69,114,0
292.14297,292.26202,82,114,0
292.25903,292.37808,81,114,0
292.38107,292.50012,79,114,0
292.50012,292.61917,86,114,0
292.61618,292.73523,84,114,0
292.73822,292.85727,82,114,0
292.85727,292.97632,81,114,0
292.97333,293.09238,79,114,0
293.09537,293.21442,77,114,0
293.21442,293.33347,76,114,0
293.33047,293.44952,74,114,0
293.45248,293.57153,72,114,0
293.57153,293.69058,70,114,0
293.68762,293.80667,69,114,0
293.80963,293.92868,67,114,0
293.92868,294.04773,74,114,0
294.04477,294.16382,72,114,0
294.16678,294.28583,70,114,0
294.28583,295.00012,77,114,0
294.28583,295.00012,65,114,0
294.28583,295.00012,69,114,0
294.28583,295.00012,72,114,0
295.00012,295.11917,82,114,0
295.11618,295.23523,81,114,0
295.23822,295.35727,79,114,0
295.35727,295.47632,86,114,0
295.47333,295.59238,84,114,0
295.59537,295.71442,82,114,0
295.71442,295.83347,81,114,0
295.83047,295.94952,79,114,0
295.95248,296.07153,77,114,0
296.07153,296.19058,76,114,0
296.18762,296.30667,74,114,0
296.30963,296.42868,72,114,0
296.42868,296.54773,70,114,0
296.54477,296.66382,69,114,0
296.66678,296.78583,67,114,0
296.78583,296.90488,74,114,0
296.90192,297.02097,72,114,0
297.02393,297.14297,70,114,0
297.14297,297.26202,69,114,0
297.25903,297.37808,67,114,0
297.38107,297.50012,65,114,0
297.50012,297.61917,64,114,0
297.61618,297.73523,62,114,0
297.73822,297.85727,60,114,0
297.85727,297.97632,58,114,0
297.97333,298.09238,57,114,0
298.09537,298.21442,55,114,0
298.21442,298.33347,61,114,0
298.33047,298.44952,60,114,0
298.4525,298.57153,58,114,0
298.57153,298.69058,61,114,0
298.68762,298.80667,60,114,0
298.80963,298.92868,58,114,0
298.92868,299.04773,61,114,0
299.04477,299.16382,60,114,0
299.16678,299.28583,58,114,0
299.28583,299.40488,61,114,0
299.40192,299.52097,60,114,0
299.52393,299.64297,58,114,0
299.64297,299.76202,61,114,0
299.75906,299.87808,60,114,0
299.88107,300.00012,59,114,0
300.00012,300.11917,60,114,0
300.11618,300.23523,61,114,0
300.23822,300.35727,63,114,0
300.35727,300.47632,65,114,0
300.47333,300.59238,67,114,0
300.59537,300.71442,68,114,0
300.71442,300.83347,70,114,0
300.83047,300.94952,72,114,0
300.9525,301.07156,73,114,0
301.07156,301.19058,75,114,0
301.18762,301.30667,77,114,0
301.30963,301.42868,79,114,0
301.42868,302.14297,80,36,0
301.42868,302.14297,68,36,0
301.42868,302.14297,72,36,0
301.42868,302.14297,75,36,0
302.14297,302.26202,85,36,0
302.25906,302.37808,84,36,0
302.38107,302.50012,82,36,0
302.50012,302.61917,89,36,0
302.61618,302.73523,87,36,0
302.73822,302.85727,85,36,0
302.85727,302.97632,84,36,0
302.97333,303.09238,82,36,0
303.09537,303.21442,80,36,0
303.21442,303.33347,79,36,0
303.33047,303.44952,77,36,0
303.4525,303.57156,75,36,0
303.57156,303.6906,73,36,0
303.68762,303.80667,72,36,0
303.80963,303.92868,70,36,0
303.92868,304.04773,77,36,0
304.04477,304.16382,75,36,0
304.16678,304.28583,73,36,0
304.28583,305.00012,80,62,0
304.28583,305.00012,68,50,0
304.28583,305.00012,72,54,0
304.28583,305.00012,75,58,0
305.00012,305.11917,85,36,0
305.11618,305.23523,84,36,0
305.23822,305.35727,82,36,0
305.35727,305.47632,89,36,0
305.47333,305.59238,87,36,0
305.59537,305.71442,85,36,0
305.71442,305.83347,84,36,0
305.83047,305.94952,82,36,0
305.9525,306.07156,80,36,0
306.07156,306.1906,79,36,0
306.18762,306.30667,77,36,0
306.30963,306.42868,75,36,0
306.42868,306.54773,73,36,0
306.54477,306.66382,72,36,0
306.66678,306.78583,70,36,0
306.78583,306.90488,77,36,0
306.90192,307.02097,75,36,0
307.02393,307.14297,73,36,0
307.14297,307.26202,72,36,0
307.25906,307.3781,70,36,0
307.38107,307.50012,68,36,0
307.50012,307.61917,67,36,0
307.61618,307.73523,65,36,0
307.73822,307.85727,63,36,0
307.85727,307.97632,61,36,0
307.97333,308.09238,60,36,0
308.09537,308.21442,58,36,0
308.21442,308.33347,64,36,0
308.33047,308.44952,63,36,0
308.4525,308.57156,61,36,0
308.57156,308.6906,64,36,0
308.68762,308.80667,63,36,0
308.80966,308.92868,61,36,0
308.92868,309.04773,64,36,0
309.04477,309.16382,63,36,0
309.16678,309.28583,61,36,0
309.28583,309.40488,64,36,0
309.40192,309.52097,63,36,0
309.52393,309.64297,61,36,0
309.64297,309.76202,64,36,0
309.75906,309.8781,63,36,0
309.88107,310.00012,62,36,0
310.00012,310.11917,63,49,0
310.11618,310.23523,64,49,0
310.23822,310.35727,66,49,0
310.35727,310.47632,68,62,0
310.47333,310.59238,70,62,0
310.59537,310.71442,71,62,0
310.71442,310.83347,73,75,0
310.83047,310.94952,75,75,0
310.9525,311.07156,76,75,0
311.07156,311.1906,78,88,0
311.18762,311.30667,80,88,0
311.30966,311.4287,82,88,0
311.4287,312.14297,83,101,0
311.4287,312.14297,71,101,0
311.4287,312.14297,74,101,0
311.4287,312.14297,78,101,0
312.14297,312.16083,83,101,0
312.14297,312.16083,71,101,0
312.14297,312.16083,74,101,0
312.14297,312.16083,78,101,0
312.32156,312.33942,83,101,0
312.32156,312.33942,71,101,0
312.32156,312.33942,74,101,0
312.32156,312.33942,78,101,0
312.50012,312.51797,83,101,0
312.50012,312.51797,71,101,0
312.50012,312.51797,74,101,0
312.50012,312.51797,78,101,0
312.6787,312.69656,83,101,0
312.6787,312.69656,71,101,0
312.6787,312.69656,74,101,0
312.6787,312.69656,78,101,0
312.85727,313.21442,83,101,0
312.85727,313.21442,78,101,0
312.85727,313.21442,74,101,0
313.21442,313.39297,78,101,0
313.21442,313.39297,74,101,0
312.85727,313.39297,71,101,0
313.57156,313.60727,79,101,0
313.57156,313.60727,73,101,0
313.57156,313.60727,71,101,0
313.9287,313.96442,76,101,0
313.9287,313.96442,73,101,0
313.9287,313.96442,71,101,0
314.28583,315.00012,78,127,0
314.28583,315.00012,74,122,0
314.28583,315.00012,71,117,0
315.00012,315.11917,71,101,0
315.1162,315.23526,70,101,0
315.23822,315.35727,71,101,0
315.35727,315.47632,73,101,0
315.47333,315.59238,71,101,0
315.59537,315.71442,70,101,0
315.71442,315.83347,74,101,0
315.83047,315.94952,73,101,0
315.9525,316.07156,71,101,0
316.07156,316.1906,78,101,0
316.18762,316.30667,76,101,0
316.30966,316.4287,74,101,0
316.4287,316.54776,79,101,0
316.54477,316.66382,78,101,0
316.66678,316.78583,76,101,0
316.78583,316.90488,82,101,0
316.90192,317.02097,80,101,0
317.02393,317.14297,78,101,0
317.14297,317.85727,83,101,0
317.14297,317.85727,71,101,0
317.14297,317.85727,74,101,0
317.14297,317.85727,78,101,0
318.57156,318.6906,59,127,0
318.68762,318.80667,58,101,0
318.80966,318.9287,59,101,0
318.9287,319.04776,62,127,0
319.04477,319.16382,61,101,0
319.1668,319.28583,59,101,0
319.28583,319.40488,64,127,0
319.40192,319.52097,62,101,0
319.52393,319.64297,61,101,0
319.64297,319.76202,67,127,0
319.75906,319.8781,66,101,0
319.88107,320.00012,64,101,0
320.00012,320.11917,66,127,0
320.1162,320.23526,65,101,0
320.23822,320.35727,66,101,0
320.35727,320.47632,69,127,0
320.47333,320.59238,68,101,0
320.59537,320.71442,69,101,0
320.71442,320.83347,72,127,0
320.83047,320.94952,71,101,0
320.9525,321.07156,72,101,0
321.07156,321.1906,75,127,0
321.18762,321.30667,74,101,0
321.30966,321.4287,75,101,0
321.4287,321.78586,78,101,0
321.78586,322.14297,84,101,0
321.78586,322.14297,78,101,0
321.78586,322.14297,72,101,0
321.78586,322.14297,75,101,0
321.78586,322.14297,80,101,0
322.14297,322.50012,84,101,0
322.14297,322.50012,78,101,0
322.14297,322.50012,72,101,0
322.14297,322.50012,75,101,0
322.14297,322.50012,80,101,0
322.50012,322.85727,84,101,0
322.50012,322.85727,78,101,0
322.50012,322.85727,72,101,0
322.50012,322.85727,75,101,0
322.50012,322.85727,80,101,0
322.85727,323.57156,85,114,0
322.85727,323.57156,73,114,0
322.85727,323.57156,76,114,0
322.85727,323.57156,80,114,0
323.57156,323.58942,85,114,0
323.57156,323.58942,73,114,0
323.57156,323.58942,76,114,0
323.57156,323.58942,80,114,0
323.75012,323.76797,85,114,0
323.75012,323.76797,73,114,0
323.75012,323.76797,76,114,0
323.75012,323.76797,80,114,0
323.9287,323.94656,85,114,0
323.9287,323.94656,73,114,0
323.9287,323.94656,76,114,0
323.9287,323.94656,80,114,0
324.10727,324.12512,85,114,0
324.10727,324.12512,73,114,0
324.10727,324.12512,76,114,0
324.10727,324.12512,80,114,0
324.28586,324.64297,85,114,0
324.28586,324.64297,80,114,0
324.28586,324.64297,76,114,0
324.64297,324.82156,80,114,0
324.64297,324.82156,76,114,0
324.28586,324.82156,73,114,0
325.00012,325.03586,81,114,0
325.00012,325.03586,75,114,0
325.00012,325.03586,73,114,0
325.35727,325.39297,78,114,0
325.35727,325.39297,75,114,0
325.35727,325.39297,73,114,0
325.71442,326.4287,80,114,0
325.71442,326.4287,76,114,0
325.71442,326.4287,73,114,0
326.4287,326.54776,73,114,0
326.54477,326.66382,72,114,0
326.6668,326.78586,73,114,0
326.78586,326.9049,75,114,0
326.90192,327.02097,73,114,0
327.02393,327.14297,72,114,0
327.14297,327.26202,76,114,0
327.25906,327.3781,75,114,0
327.38107,327.50012,73,114,0
327.50012,327.61917,80,114,0
327.6162,327.73526,78,114,0
327.73822,327.85727,76,114,0
327.85727,327.97632,81,114,0
327.97336,328.0924,80,114,0
328.09537,328.21442,78,114,0
328.21442,328.33347,84,114,0
328.33047,328.44952,82,114,0
328.4525,328.57156,80,114,0
328.57156,329.28586,85,114,0
328.57156,329.28586,73,114,0
328.57156,329.28586,76,114,0
328.57156,329.28586,80,114,0
330.00012,330.11917,61,114,0
330.1162,330.23526,60,114,0
330.23822,330.35727,61,114,0
330.35727,330.47632,64,114,0
330.47336,330.5924,63,114,0
330.59537,330.71442,61,114,0
330.71442,330.83347,66,114,0
330.83047,330.94952,64,114,0
330.9525,331.07156,63,114,0
331.07156,331.1906,69,114,0
331.18762,331.30667,68,114,0
331.30966,331.4287,66,114,0
331.4287,331.54776,68,114,0
331.54477,331.66382,67,114,0
331.6668,331.78586,68,114,0
331.78586,331.9049,71,114,0
331.90192,332.02097,70,114,0
332.02396,332.14297,71,114,0
332.14297,332.26202,74,114,0
332.25906,332.3781,73,114,0
332.38107,332.50012,74,114,0
332.50012,332.61917,77,114,0
332.6162,332.73526,76,114,0
332.73822,332.85727,77,114,0
332.85727,333.21442,80,114,0
333.21442,333.57156,86,114,0
333.21442,333.57156,80,114,0
333.21442,333.57156,74,114,0
333.21442,333.57156,77,114,0
333.21442,333.57156,82,114,0
333.57156,333.9287,86,114,0
333.57156,333.9287,80,114,0
333.57156,333.9287,74,114,0
333.57156,333.9287,77,114,0
333.57156,333.9287,82,114,0
333.9287,334.28586,86,114,0
333.9287,334.28586,80,114,0
333.9287,334.28586,74,114,0
333.9287,334.28586,77,114,0
333.9287,334.28586,82,114,0
334.28586,334.643,87,114,0
334.28586,334.643,75,114,0
334.28586,334.643,78,114,0
334.28586,334.643,82,114,0
334.643,334.6787,75,88,0
334.643,334.6787,66,88,0
334.643,334.6787,69,88,0
334.643,334.6787,71,88,0
335.00012,335.03586,75,75,0
335.00012,335.03586,66,75,0
335.00012,335.03586,69,75,0
335.00012,335.03586,71,75,0
335.35727,335.393,75,62,0
335.35727,335.393,66,62,0
335.35727,335.393,69,62,0
335.35727,335.393,71,62,0
335.71442,336.07156,76,49,0
335.71442,336.07156,71,49,0
335.71442,336.07156,67,49,0
336.07156,336.4287,88,114,0
336.07156,336.4287,82,114,0
336.07156,336.4287,76,114,0
336.07156,336.4287,79,114,0
336.07156,336.4287,84,114,0
336.4287,336.78586,88,101,0
336.4287,336.78586,82,101,0
336.4287,336.78586,76,101,0
336.4287,336.78586,79,101,0
336.4287,336.78586,84,101,0
336.78586,337.143,88,88,0
336.78586,337.143,82,88,0
336.78586,337.143,76,88,0
336.78586,337.143,79,88,0
336.78586,337.143,84,88,0
337.143,337.50012,89,75,0
337.143,337.50012,77,75,0
337.143,337.50012,80,75,0
337.143,337.50012,84,75,0
337.50012,337.53586,77,114,0
337.50012,337.53586,68,114,0
337.50012,337.53586,71,114,0
337.50012,337.53586,73,114,0
337.85727,337.893,77,101,0
337.85727,337.893,68,101,0
337.85727,337.893,71,101,0
337.85727,337.893,73,101,0
338.21442,338.25012,77,88,0
338.21442,338.25012,68,88,0
338.21442,338.25012,71,88,0
338.21442,338.25012,73,88,0
338.57156,338.9287,78,101,0
338.57156,338.9287,74,96,0
338.57156,338.9287,69,91,0
338.9287,339.04776,74,49,0
339.04477,339.16382,73,49,0
339.1668,339.28586,74,49,0
339.28586,339.4049,78,49,0
339.40192,339.52097,76,49,0
339.52396,339.643,74,49,0
339.643,339.76205,81,49,0
339.75906,339.8781,79,49,0
339.8811,340.00012,78,49,0
340.00012,340.11917,76,49,0
340.1162,340.23526,74,49,0
340.23822,340.35727,73,49,0
340.35727,340.47632,74,49,0
340.47336,340.5924,73,49,0
340.59537,340.71442,71,49,0
340.71442,340.83347,69,49,0
340.8305,340.94955,67,49,0
340.9525,341.07156,66,49,0
341.07156,341.1906,64,49,0
341.18762,341.30667,62,49,0
341.30966,341.4287,66,49,0
341.4287,341.60727,64,49,0
341.78586,341.9049,76,49,0
341.90192,342.02097,75,49,0
342.02396,342.143,76,49,0
342.143,342.26205,79,49,0
342.25906,342.3781,78,49,0
342.3811,342.50012,76,49,0
342.50012,342.61917,83,49,0
342.6162,342.73526,81,49,0
342.73822,342.85727,79,49,0
342.85727,342.97632,78,49,0
342.97336,343.0924,76,49,0
343.09537,343.21442,75,49,0
343.21442,343.33347,76,49,0
343.3305,343.44955,74,49,0
343.4525,343.57156,73,49,0
343.57156,343.6906,71,49,0
343.68765,343.80667,69,49,0
343.80966,343.9287,67,49,0
343.9287,344.04776,66,49,0
344.04477,344.16382,64,49,0
344.1668,344.28586,67,49,0
344.28586,344.46442,66,49,0
344.643,344.76205,78,49,0
344.75906,344.8781,77,49,0
344.8811,345.00015,78,49,0
345.00015,345.11917,81,49,0
345.1162,345.23526,79,49,0
345.23822,345.35727,78,49,0
345.35727,345.47632,84,49,0
345.47336,345.5924,83,49,0
345.59537,345.71442,81,49,0
345.71442,345.83347,79,49,0
345.8305,345.94955,78,49,0
345.9525,346.07156,76,49,0
346.07156,346.1906,78,49,0
346.18765,346.30667,76,49,0
346.30966,346.4287,74,49,0
346.4287,346.54776,72,49,0
346.54477,346.66382,71,49,0
346.6668,346.78586,69,49,0
346.78586,346.9049,67,49,0
346.90192,347.02097,66,49,0
347.02396,347.143,69,49,0
347.143,347.26205,67,49,0
347.25906,347.3781,66,49,0
347.3811,347.50015,67,49,0
347.50015,347.6192,71,49,0
347.6162,347.73526,70,49,0
347.73822,347.85727,71,49,0
347.85727,347.97632,74,49,0
347.97336,348.0924,73,49,0
348.09537,348.21442,74,49,0
348.21442,348.33347,79,49,0
348.3305,348.44955,78,49,0
348.4525,348.57156,79,49,0
348.57156,348.6906,83,49,0
348.68765,348.8067,82,49,0
348.80966,348.9287,83,49,0
348.9287,349.04776,86,49,0
349.04477,349.16382,85,49,0
349.1668,349.28586,86,49,0
349.28586,349.4049,89,49,0
349.40192,349.52097,88,49,0
349.52396,349.643,89,49,0
349.643,349.76205,80,49,0
349.75906,349.8781,79,49,0
349.8811,350.00015,80,49,0
350.00015,350.1192,81,36,0
350.1162,350.23526,80,36,0
350.23822,350.35727,81,36,0
350.35727,350.47632,85,36,0
350.47336,350.5924,83,36,0
350.59537,350.71442,81,36,0
350.71442,350.83347,83,36,0
350.8305,350.94955,81,36,0
350.9525,351.07156,80,36,0
351.07156,351.1906,86,36,0
351.18765,351.3067,85,36,0
351.30966,351.4287,83,36,0
351.4287,351.54776,81,36,0
351.54477,351.66382,80,36,0
351.6668,351.78586,78,36,0
351.78586,351.9049,76,36,0
351.90192,352.02097,74,36,0
352.02396,352.143,73,36,0
352.143,352.26205,74,36,0
352.25906,352.3781,73,36,0
352.3811,352.50015,71,36,0
352.50015,352.6192,78,36,0
352.6162,352.73526,76,36,0
352.73825,352.85727,74,36,0
352.85727,352.97632,73,36,0
352.97336,353.0924,76,36,0
353.09537,353.21442,81,36,0
353.21442,353.33347,85,36,0
353.3305,353.44955,83,36,0
353.4525,353.57156,81,36,0
353.57156,353.6906,83,36,0
353.68765,353.8067,81,36,0
353.80966,353.9287,80,36,0
353.9287,354.04776,86,36,0
354.04477,354.16382,85,36,0
354.1668,354.28586,83,36,0
354.28586,354.4049,81,36,0
354.40192,354.52097,80,36,0
354.52396,354.643,78,36,0
354.643,354.76205,76,36,0
354.75906,354.8781,74,36,0
354.8811,355.00015,73,36,0
355.00015,355.1192,74,36,0
355.1162,355.23526,73,36,0
355.23825,355.3573,71,36,0
355.3573,355.47632,78,36,0
355.47336,355.5924,76,36,0
355.59537,355.71442,74,36,0
355.71442,355.83347,73,49,0
355.8305,355.94955,71,49,0
355.9525,356.07156,69,49,0
356.07156,356.1906,76,49,0
356.18765,356.3067,74,49,0
356.30966,356.4287,73,49,0
356.4287,356.54776,79,49,0
356.5448,356.66382,78,49,0
356.6668,356.78586,76,49,0
356.78586,356.9049,83,49,0
356.90192,357.02097,81,49,0
357.02396,357.143,79,49,0
357.143,357.26205,78,62,0
357.25906,357.3781,76,62,0
357.3811,357.50015,74,62,0
357.50015,357.6192,73,62,0
357.6162,357.73526,71,62,0
357.73825,357.8573,69,62,0
357.8573,357.97635,67,62,0
357.97336,358.0924,64,62,0
358.09537,358.21442,66,62,0
358.21442,358.33347,67,62,0
358.3305,358.44955,69,62,0
358.4525,358.57156,71,62,0
358.57156,358.6906,73,62,0
358.68765,358.8067,71,62,0
358.80966,358.9287,69,62,0
358.9287,359.04776,76,62,0
359.0448,359.16385,74,62,0
359.1668,359.28586,73,62,0
359.28586,359.4049,79,75,0
359.40192,359.52097,78,75,0
359.52396,359.643,76,75,0
359.643,359.76205,82,75,0
359.75906,359.8781,81,75,0
359.8811,360.00015,79,75,0
360.00015,360.1192,78,75,0
360.1162,360.23526,76,75,0
360.23825,360.3573,74,75,0
360.3573,360.47635,73,75,0
360.47336,360.5924,71,75,0
360.59537,360.71442,69,75,0
360.71442,360.83347,67,75,0
360.8305,360.94955,64,75,0
360.9525,361.07156,66,75,0
361.07156,361.1906,67,75,0
361.18765,361.3067,69,75,0
361.30966,361.4287,71,75,0
361.4287,361.54776,73,88,0
361.5448,361.66385,71,88,0
361.6668,361.78586,69,88,0
361.78586,361.9049,76,88,0
361.90192,362.02097,74,88,0
362.02396,362.143,73,88,0
362.143,362.26205,79,88,0
362.25906,362.3781,78,88,0
362.3811,362.50015,76,88,0
362.50015,362.6192,76,88,0
362.6162,362.73526,74,88,0
362.73825,362.8573,73,88,0
362.8573,362.97635,79,88,0
362.97336,363.0924,78,88,0
363.0954,363.21442,76,88,0
363.21442,363.33347,83,88,0
363.3305,363.44955,81,88,0
363.4525,363.57156,79,88,0
363.57156,363.6906,79,88,0
363.68765,363.8067,78,88,0
363.80966,363.9287,76,88,0
363.9287,364.04776,83,88,0
364.0448,364.16385,81,88,0
364.1668,364.28586,79,88,0
364.28586,364.4049,85,88,0
364.40192,364.52097,83,88,0
364.52396,364.643,81,88,0
364.643,364.76205,85,88,0
364.75906,364.8781,83,88,0
364.8811,365.00015,81,88,0
365.00015,365.1192,85,88,0
365.1162,365.23526,83,88,0
365.23825,365.3573,81,88,0
365.3573,365.47635,85,88,0
365.47336,365.5924,83,88,0
365.5954,365.71445,81,88,0
365.71445,366.4287,86,101,0
365.71445,366.4287,74,101,0
365.71445,366.4287,78,101,0
365.71445,366.4287,81,101,0
366.4287,366.44656,62,101,0
366.4287,366.44656,57,101,0
366.6073,366.62515,62,101,0
366.6073,366.62515,57,101,0
366.78586,366.8037,62,101,0
366.78586,366.8037,57,101,0
366.96445,366.9823,62,101,0
366.96445,366.9823,57,101,0
367.143,367.50015,57,119,0
367.50015,367.6787,64,101,0
367.50015,367.6787,59,101,0
367.143,367.6787,62,127,0
367.8573,367.87515,66,101,0
367.8573,367.87515,62,101,0
367.8573,367.87515,60,101,0
368.03586,368.0537,66,101,0
368.03586,368.0537,62,101,0
368.03586,368.0537,60,101,0
368.21445,368.2323,66,101,0
368.21445,368.2323,62,101,0
368.21445,368.2323,60,101,0
368.393,368.41086,66,101,0
368.393,368.41086,62,101,0
368.393,368.41086,60,101,0
368.57156,368.9287,66,101,0
368.57156,368.9287,60,101,0
368.9287,369.1073,67,101,0
368.9287,369.1073,59,101,0
368.57156,369.1073,62,101,0
369.1073,369.28586,64,101,0
369.28586,369.4049,67,101,0
369.40195,369.521,66,101,0
369.52396,369.643,64,101,0
369.643,369.76205,70,101,0
369.75906,369.8781,69,101,0
369.8811,370.00015,67,101,0
370.00015,370.1787,69,101,0
370.3573,370.47635,78,49,0
370.47336,370.5924,76,49,0
370.5954,370.71445,74,49,0
370.71445,370.8335,81,49,0
370.8305,370.94955,79,49,0
370.9525,371.07156,78,49,0
371.07156,371.1906,76,49,0
371.18765,371.3067,74,49,0
371.30966,371.4287,73,49,0
371.4287,372.143,86,88,0
371.4287,372.143,74,88,0
371.4287,372.143,78,88,0
371.4287,372.143,81,88,0
372.143,372.16086,62,49,0
372.143,372.16086,57,49,0
372.32156,372.33945,62,49,0
372.32156,372.33945,57,49,0
372.50015,372.518,62,49,0
372.50015,372.518,57,49,0
372.6787,372.69656,62,49,0
372.6787,372.69656,57,49,0
372.8573,373.21445,57,49,0
373.21445,373.393,64,49,0
373.21445,373.393,59,49,0
372.8573,373.393,62,49,0
373.57156,373.6906,57,49,0
373.68765,373.8067,59,49,0
373.80966,373.9287,60,49,0
373.9287,374.04776,62,49,0
374.0448,374.16385,64,49,0
374.1668,374.28586,66,49,0
374.28586,374.46445,58,75,0
374.46445,374.643,66,49,0
374.643,374.82156,59,75,0
374.82156,375.00015,67,49,0
375.00015,375.018,69,49,0
375.00015,375.018,67,49,0
375.00015,375.018,64,49,0
375.1787,375.19656,69,49,0
375.1787,375.19656,67,49,0
375.1787,375.19656,64,49,0
375.3573,375.37515,69,49,0
375.3573,375.37515,67,49,0
375.3573,375.37515,64,49,0
375.53586,375.5537,69,49,0
375.53586,375.5537,67,49,0
375.53586,375.5537,64,49,0
375.71445,376.0716,69,49,0
375.71445,376.0716,64,49,0
376.0716,376.25015,71,49,0
376.0716,376.25015,62,49,0
375.71445,376.25015,67,49,0
376.4287,376.54776,62,49,0
376.5448,376.66385,64,49,0
376.6668,376.78586,66,49,0
376.78586,376.9049,67,49,0
376.90195,377.021,69,49,0
377.02396,377.143,71,49,0
377.143,377.3216,63,75,0
377.3216,377.50015,71,49,0
377.50015,377.6787,64,49,0
377.6787,377.8573,72,49,0
377.8573,377.87515,73,49,0
377.8573,377.87515,70,49,0
377.8573,377.87515,67,49,0
378.03586,378.0537,73,49,0
378.03586,378.0537,70,49,0
378.03586,378.0537,67,49,0
378.21445,378.2323,73,49,0
378.21445,378.2323,70,49,0
378.21445,378.2323,67,49,0
378.393,378.41086,73,49,0
378.393,378.41086,70,49,0
378.393,378.41086,67,49,0
378.5716,378.9287,73,49,0
378.5716,378.9287,67,49,0
378.9287,379.1073,74,49,0
378.9287,379.1073,65,49,0
378.5716,379.1073,70,49,0
379.28586,379.4049,65,49,0
379.40195,379.521,67,49,0
379.52396,379.643,69,49,0
379.643,379.76205,70,49,0
379.7591,379.87814,72,49,0
379.8811,380.00015,74,49,0
380.00015,380.1787,75,75,0
380.1787,380.3573,67,49,0
380.3573,380.53586,74,75,0
380.53586,380.71445,65,49,0
380.71445,380.7323,73,49,0
380.71445,380.7323,64,49,0
380.71445,380.7323,67,49,0
380.71445,380.7323,70,49,0
380.893,380.91086,73,49,0
380.893,380.91086,64,49,0
380.893,380.91086,67,49,0
380.893,380.91086,70,49,0
381.0716,381.08945,73,49,0
381.0716,381.08945,64,49,0
381.0716,381.08945,67,49,0
381.0716,381.08945,70,49,0
381.25015,381.268,73,49,0
381.25015,381.268,64,49,0
381.25015,381.268,67,49,0
381.25015,381.268,70,49,0
381.4287,381.78586,73,49,0
381.4287,381.78586,64,49,0
381.4287,381.78586,67,49,0
381.78586,381.96445,74,49,0
381.78586,381.96445,65,49,0
381.4287,381.96445,70,49,0
382.143,382.26205,65,49,0
382.2591,382.37814,67,49,0
382.3811,382.50015,69,49,0
382.50015,382.6192,70,49,0
382.6162,382.73526,72,49,0
382.73825,382.8573,74,49,0
382.8573,383.03586,79,75,0
382.8573,383.03586,75,67,0
383.03586,383.21445,67,49,0
383.21445,383.393,77,75,0
383.21445,383.393,74,67,0
383.393,383.5716,65,49,0
383.5716,383.75015,73,49,0
383.5716,383.75015,64,49,0
383.5716,383.75015,67,49,0
383.5716,383.75015,71,49,0
383.75015,383.768,73,49,0
383.75015,383.768,64,49,0
383.75015,383.768,67,49,0
383.75015,383.768,70,49,0
383.9287,383.9466,73,49,0
383.9287,383.9466,64,49,0
383.9287,383.9466,67,49,0
383.9287,383.9466,70,49,0
384.1073,384.12515,73,49,0
384.1073,384.12515,64,49,0
384.1073,384.12515,67,49,0
384.1073,384.12515,70,49,0
384.28586,384.643,73,49,0
384.28586,384.643,64,49,0
384.28586,384.643,67,49,0
384.643,384.8216,74,49,0
384.643,384.8216,65,49,0
384.28586,384.8216,70,49,0
385.00015,385.1192,65,49,0
385.1162,385.23526,67,49,0
385.23825,385.3573,69,49,0
385.3573,385.47635,70,49,0
385.47336,385.5924,72,49,0
385.5954,385.71445,74,49,0
385.71445,385.8335,75,49,0
385.8305,385.94955,77,49,0
385.95255,386.0716,79,49,0
386.0716,386.19064,77,49,0
386.18765,386.3067,75,49,0
386.3097,386.4287,74,49,0
386.4287,386.54776,73,49,0
386.5448,386.66385,70,49,0
386.6668,386.78586,67,49,0
386.78586,386.9049,64,49,0
386.90195,387.021,61,49,0
387.02396,387.143,64,49,0
387.143,387.26205,65,49,0
387.2591,387.37814,62,49,0
387.3811,387.50015,65,49,0
387.50015,387.6192,62,49,0
387.61624,387.73526,58,49,0
387.73825,387.8573,62,49,0
387.8573,387.97635,65,49,0
387.97336,388.0924,67,49,0
388.0954,388.21445,69,49,0
388.21445,388.3335,70,49,0
388.3305,388.44955,72,49,0
388.45255,388.5716,74,49,0
388.5716,388.69064,75,49,0
388.68765,388.8067,77,49,0
388.8097,388.92874,79,49,0
388.92874,389.04776,77,49,0
389.0448,389.16385,75,49,0
389.1668,389.28586,74,49,0
389.28586,389.4049,73,49,0
389.40195,389.521,70,49,0
389.52396,389.643,67,49,0
389.643,389.76205,64,49,0
389.7591,389.87814,61,49,0
389.8811,390.00015,64,49,0
390.00015,390.01205,67,75,0
390.11624,390.23526,64,49,0
390.23825,390.3573,67,49,0
390.3573,390.47635,64,49,0
390.47336,390.5924,61,49,0
390.5954,390.71445,64,49,0
390.71445,390.72635,68,114,0
390.8305,390.94955,64,88,0
390.95255,391.0716,68,88,0
391.0716,391.19064,64,88,0
391.18765,391.3067,61,88,0
391.3097,391.42874,64,88,0
391.42874,391.5478,69,114,0
391.5448,391.66385,64,88,0
391.6668,391.78586,69,88,0
391.78586,391.9049,64,88,0
391.90195,392.021,61,88,0
392.02396,392.143,64,88,0
392.143,392.26205,69,114,0
392.2591,392.37814,64,88,0
392.3811,392.50015,69,88,0
392.50015,392.6192,64,88,0
392.61624,392.7353,60,88,0
392.73825,392.8573,64,88,0
392.8573,392.97635,74,114,0
392.97336,393.0924,69,88,0
393.0954,393.21445,74,88,0
393.21445,393.3335,69,88,0
393.3305,393.44955,62,88,0
393.45255,393.5716,69,88,0
393.5716,393.69064,80,114,0
393.68765,393.8067,74,88,0
393.8097,393.92874,80,88,0
393.92874,394.0478,74,88,0
394.0448,394.16385,68,88,0
394.1668,394.28586,74,88,0
394.28586,395.00015,81,114,0
394.28586,395.00015,69,114,0
394.28586,395.00015,73,114,0
394.28586,395.00015,76,114,0
395.00015,395.17874,75,49,0
395.00015,395.17874,72,49,0
395.17874,395.3573,75,49,0
395.17874,395.3573,72,49,0
395.3573,395.53586,75,49,0
395.3573,395.53586,72,49,0
395.53586,395.71445,75,49,0
395.53586,395.71445,72,49,0
395.71445,396.0716,76,49,0
395.71445,396.0716,73,49,0
396.0716,396.25015,85,49,0
397.8573,397.97635,59,75,0
397.9734,398.0924,61,75,0
398.0954,398.21445,62,75,0
398.21445,398.3335,64,75,0
398.3305,398.44955,66,75,0
398.45255,398.5716,68,75,0
398.5716,399.2859,81,101,0
398.5716,399.2859,69,101,0
398.5716,399.2859,73,101,0
398.5716,399.2859,76,101,0
399.2859,399.55374,75,49,0
399.2859,399.55374,72,49,0
399.55374,399.643,75,49,0
399.55374,399.643,72,49,0
399.643,399.9109,75,49,0
399.643,399.9109,72,49,0
399.9109,400.00015,75,49,0
399.9109,400.00015,72,49,0
400.00015,400.3573,76,49,0
400.00015,400.3573,73,49,0
400.3573,400.5359,85,49,0
402.143,402.26205,59,75,0
402.2591,402.37814,61,75,0
402.3811,402.50015,62,75,0
402.50015,402.6192,64,75,0
402.61624,402.7353,66,75,0
402.73825,402.8573,68,75,0
402.8573,402.97635,69,75,0
402.9734,403.09244,71,75,0
403.0954,403.21445,73,75,0
403.21445,403.3335,74,75,0
403.3305,403.44955,76,75,0
403.45255,403.5716,78,75,0
403.5716,403.69064,79,75,0
403.68765,403.8067,80,75,0
403.8097,403.92874,81,75,0
403.92874,404.0478,83,75,0
404.0448,404.16385,85,75,0
404.16684,404.2859,86,75,0
404.2859,404.40494,88,75,0
404.40195,404.521,90,75,0
404.52396,404.643,88,75,0
404.643,404.76205,86,75,0
404.7591,404.87814,85,75,0
404.8811,405.00015,83,75,0
405.00015,405.1192,81,75,0
405.11624,405.2353,83,75,0
405.23825,405.3573,81,75,0
405.3573,405.47635,79,75,0
405.4734,405.59244,78,75,0
405.5954,405.71445,76,75,0
405.71445,406.0716,74,75,0
406.0716,406.25015,66,49,0
406.42874,406.7859,76,75,0
406.7859,406.96445,69,49,0
407.0984,407.143,69,49,0
407.143,407.50015,78,75,0
407.50015,407.67874,74,49,0
407.81265,407.8573,74,49,0
407.8573,408.12515,83,75,0
408.12515,408.21445,80,49,0
408.21445,408.4823,83,49,0
408.4823,408.5716,80,49,0
408.5716,408.92874,81,75,0
408.92874,409.1073,69,49,0
409.24124,409.2859,69,49,0
409.2859,409.64304,79,49,0
409.64304,409.8216,76,49,0
409.95554,410.00015,76,49,0
410.00015,410.3573,78,49,0
410.3573,410.5359,69,49,0
410.6698,410.71445,69,49,0
410.71445,410.9823,76,49,0
410.9823,411.0716,73,49,0
411.0716,411.33945,76,49,0
411.33945,411.42874,73,49,0
411.42874,411.5478,74,49,0
411.5448,411.66385,69,49,0
411.66684,411.7859,74,49,0
411.7859,411.96445,66,49,0
412.14304,412.26205,76,49,0
412.2591,412.37814,73,49,0
412.3811,412.50015,76,49,0
412.50015,412.67874,69,49,0
412.8573,412.97635,78,49,0
412.9734,413.09244,76,49,0
413.0954,413.21445,78,49,0
413.21445,413.39304,74,49,0
413.5716,413.69064,83,75,0
413.68765,413.8067,80,49,0
413.8097,413.92874,83,49,0
413.92874,414.0478,86,49,0
414.0448,414.16385,83,49,0
414.16684,414.2859,80,49,0
414.2859,414.40494,81,49,0
414.40195,414.521,78,49,0
414.524,414.64304,81,49,0
414.64304,414.8216,69,49,0
415.00015,415.1192,79,49,0
415.11624,415.2353,78,49,0
415.23825,415.3573,79,49,0
415.3573,415.5359,76,49,0
415.71445,415.8335,78,49,0
415.83054,415.9496,74,49,0
415.95255,416.0716,78,49,0
416.0716,416.25015,69,49,0
416.42874,416.6966,76,49,0
416.6966,416.7859,73,49,0
416.7859,417.05374,76,49,0
417.05374,417.14304,73,49,0
417.14304,417.2621,76,101,0
417.2591,417.37814,67,101,0
417.38113,417.50015,76,101,0
417.50015,418.12515,60,127,0
418.12515,418.21445,76,101,0
418.12515,418.21445,67,101,0
418.21445,418.4823,60,127,0
418.4823,418.5716,67,101,0
418.5716,418.69064,76,101,0
418.68765,418.8067,67,101,0
418.8097,418.92874,76,101,0
418.92874,419.55374,60,127,0
419.55374,419.64304,76,101,0
419.55374,419.64304,67,101,0
419.64304,420.26804,60,127,0
420.26804,420.3573,76,101,0
420.26804,420.3573,67,101,0
420.3573,420.9823,60,127,0
420.9823,421.0716,76,101,0
420.9823,421.0716,67,101,0
421.0716,421.33945,60,127,0
421.33945,421.42874,76,101,0
421.33945,421.42874,67,101,0
421.42874,421.5478,77,101,0
421.5448,421.66385,69,101,0
421.66684,421.7859,77,101,0
421.7859,422.4109,81,127,0
422.4109,422.50018,69,101,0
422.50018,422.76804,81,101,0
422.50018,422.76804,77,101,0
422.76804,422.8573,69,101,0
422.8573,422.97635,77,101,0
422.9734,423.09244,69,101,0
423.0954,423.21445,77,101,0
423.21445,423.83945,81,127,0
423.83945,423.92874,69,101,0
423.92874,424.55374,81,101,0
423.92874,424.55374,77,101,0
424.55374,424.64304,69,101,0
424.64304,425.26804,81,101,0
424.64304,425.26804,77,101,0
425.26804,425.3573,69,101,0
425.3573,425.9823,81,114,0
425.3573,425.9823,79,114,0
425.3573,425.9823,73,114,0
425.9823,426.0716,69,49,0
426.0716,426.33945,81,49,0
426.0716,426.33945,79,49,0
426.0716,426.33945,73,49,0
426.33945,426.42874,69,49,0
426.42874,426.6966,81,49,0
426.42874,426.6966,79,49,0
426.42874,426.6966,73,49,0
426.6966,426.7859,69,49,0
426.7859,427.05374,81,49,0
426.7859,427.05374,79,49,0
426.7859,427.05374,73,49,0
427.05374,427.14304,69,49,0
427.14304,427.15494,81,49,0
427.14304,427.15494,78,49,0
427.14304,427.15494,74,49,0
427.2591,427.37814,69,49,0
427.38113,427.50018,74,49,0
427.50018,427.61923,78,49,0
427.61624,427.7353,81,49,0
427.73828,427.8573,86,49,0
427.8573,427.97635,81,49,0
427.9734,428.09244,74,49,0
428.0954,428.21445,78,49,0
428.21445,428.3335,81,49,0
428.33054,428.4496,86,49,0
428.45255,428.5716,90,49,0
428.5716,428.69064,81,49,0
428.68768,428.80673,83,49,0
428.8097,428.92874,81,49,0
428.92874,429.0478,79,49,0
429.0448,429.16385,83,49,0
429.16684,429.2859,79,49,0
429.2859,429.40494,78,49,0
429.40195,429.521,81,49,0
429.524,429.64304,78,49,0
429.64304,429.7621,76,49,0
429.7591,429.87814,79,49,0
429.88113,430.00018,76,49,0
430.00018,430.0121,74,49,0
430.11624,430.2353,69,49,0
430.23828,430.3573,74,49,0
430.3573,430.47635,78,49,0
430.4734,430.59244,81,49,0
430.5954,430.71445,86,49,0
430.71445,430.8335,81,49,0
430.83054,430.9496,78,49,0
430.95255,431.0716,81,49,0
431.0716,431.19064,86,49,0
431.18768,431.30673,90,49,0
431.3097,431.42874,93,49,0
431.42874,431.5478,81,49,0
431.54483,431.66385,83,49,0
431.66684,431.7859,81,49,0
431.7859,431.90494,79,49,0
431.90195,432.021,81,49,0
432.024,432.14304,79,49,0
432.14304,432.2621,78,49,0
432.2591,432.37814,79,49,0
432.38113,432.50018,78,49,0
432.50018,432.61923,76,49,0
432.61624,432.7353,78,49,0
432.73828,432.85733,76,49,0
432.85733,432.97635,66,49,0
432.9734,433.09244,69,49,0
433.0954,433.21445,66,49,0
433.21445,433.3335,69,49,0
433.33054,433.4496,74,49,0
433.45255,433.5716,69,49,0
433.5716,433.69064,69,49,0
433.68768,433.80673,73,49,0
433.8097,433.92874,69,49,0
433.92874,434.0478,73,49,0
434.04483,434.16388,76,49,0
434.16684,434.2859,73,49,0
434.2859,434.40494,69,49,0
434.40195,434.521,74,49,0
434.524,434.64304,69,49,0
434.64304,434.7621,74,49,0
434.7591,434.87814,78,49,0
434.88113,435.00018,74,49,0
435.00018,435.11923,74,49,0
435.11624,435.2353,77,49,0
435.23828,435.35733,74,49,0
435.35733,435.47638,77,49,0
435.4734,435.59244,80,49,0
435.5954,435.71445,77,49,0
435.71445,435.8335,74,49,0
435.83054,435.9496,78,49,0
435.95255,436.0716,74,49,0
436.0716,436.19064,78,49,0
436.18768,436.30673,81,49,0
436.3097,436.42874,78,49,0
436.42874,436.5478,69,49,0
436.54483,436.66388,76,49,0
436.66684,436.7859,69,49,0
436.7859,436.90494,76,49,0
436.90195,437.021,79,49,0
437.024,437.14304,76,49,0
437.14304,437.2621,69,49,0
437.2591,437.37814,74,49,0
437.38113,437.50018,69,49,0
437.50018,437.61923,74,49,0
437.61624,437.7353,78,49,0
437.73828,437.85733,74,49,0
437.85733,437.97638,69,49,0
437.9734,438.09244,73,49,0
438.09543,438.21445,69,49,0
438.21445,438.3335,73,49,0
438.33054,438.4496,76,49,0
438.45255,438.5716,73,49,0
438.5716,438.69064,78,49,0
438.68768,438.80673,81,49,0
438.8097,438.92874,78,49,0
438.92874,439.0478,81,49,0
439.04483,439.16388,86,49,0
439.16684,439.2859,81,49,0
439.2859,439.40494,81,49,0
439.40195,439.521,85,49,0
439.524,439.64304,81,49,0
439.64304,439.7621,85,49,0
439.7591,439.87814,88,49,0
439.88113,440.00018,85,49,0
440.00018,440.11923,81,49,0
440.11624,440.2353,86,49,0
440.23828,440.35733,81,49,0
440.35733,440.47638,86,49,0
440.4734,440.59244,90,49,0
440.59543,440.71445,86,49,0
440.71445,440.8335,86,49,0
440.83054,440.9496,89,49,0
440.95255,441.0716,86,49,0
441.0716,441.19064,89,49,0
441.18768,441.30673,92,49,0
441.3097,441.42874,89,49,0
441.42874,441.5478,86,49,0
441.54483,441.66388,89,49,0
441.66684,441.7859,86,49,0
441.7859,441.90494,89,49,0
441.90198,442.021,92,49,0
442.024,442.14304,89,49,0
442.14304,442.2621,86,49,0
442.2591,442.37814,89,49,0
442.38113,442.50018,86,49,0
442.50018,442.61923,89,49,0
442.61624,442.7353,92,49,0
442.73828,442.85733,89,49,0
442.85733,442.97638,86,49,0
442.9734,443.09244,89,49,0
443.09543,443.21448,86,49,0
443.21448,443.3335,89,49,0
443.33054,443.4496,92,49,0
443.45255,443.5716,89,49,0
443.5716,443.69064,86,49,0
443.68768,443.80673,89,49,0
443.8097,443.92874,86,49,0
443.92874,444.0478,89,49,0
444.04483,444.16388,94,49,0
444.16684,444.2859,89,49,0
444.2859,444.40494,86,49,0
444.40198,444.521,89,49,0
444.524,444.64304,86,49,0
444.64304,444.7621,89,49,0
444.7591,444.87814,94,49,0
444.88113,445.00018,89,49,0
445.00018,445.11923,86,49,0
445.11624,445.2353,89,49,0
445.23828,445.35733,86,49,0
445.35733,445.47638,89,49,0
445.4734,445.59244,94,49,0
445.59543,445.71448,89,49,0
445.71448,445.83353,87,49,0
445.83054,445.9496,91,49,0
445.95255,446.0716,87,49,0
446.0716,446.19064,91,49,0
446.18768,446.30673,94,49,0
446.3097,446.42874,91,49,0
446.42874,446.5478,85,49,0
446.54483,446.66388,88,49,0
446.66684,446.7859,85,49,0
446.7859,446.90494,88,49,0
446.90198,447.02103,93,49,0
447.024,447.14304,88,49,0
447.14304,447.2621,86,49,0
447.2591,447.37814,90,49,0
447.38113,447.50018,86,49,0
447.50018,447.61923,90,49,0
447.61624,447.7353,93,49,0
447.73828,447.85733,90,49,0
447.85733,447.97638,79,49,0
447.9734,448.09244,86,49,0
448.09543,448.21448,79,49,0
448.21448,448.33353,86,49,0
448.33054,448.4496,91,49,0
448.45255,448.5716,86,49,0
448.5716,448.69064,81,49,0
448.68768,448.80673,86,49,0
448.8097,448.92874,81,49,0
448.92874,449.0478,86,49,0
449.04483,449.16388,90,49,0
449.16684,449.2859,86,49,0
449.2859,449.40494,81,49,0
449.40198,449.52103,88,49,0
449.524,449.64304,85,49,0
449.64304,449.7621,81,49,0
449.7591,449.87814,79,49,0
449.88113,450.00018,76,49,0
450.00018,450.11923,72,101,0
450.11624,450.2353,74,101,0
450.23828,450.35733,72,101,0
450.35733,450.47638,69,88,0
450.4734,450.59244,66,88,0
450.59543,450.71448,62,88,0
450.71448,450.83353,60,101,0
450.83054,450.9496,62,75,0
450.95258,451.0716,60,75,0
451.0716,451.19064,62,75,0
451.18768,451.30673,60,75,0
451.3097,451.42874,62,75,0
451.42874,451.5478,70,114,0
451.54483,451.66388,74,114,0
451.66684,451.7859,72,114,0
451.7859,451.90494,70,101,0
451.90198,452.02103,65,101,0
452.024,452.14304,62,101,0
452.14304,452.2621,58,114,0
452.2591,452.37814,62,88,0
452.38113,452.50018,58,88,0
452.50018,452.61923,62,88,0
452.61624,452.7353,58,88,0
452.73828,452.85733,62,88,0
452.85733,452.97638,72,114,0
452.9734,453.09244,74,114,0
453.09543,453.21448,72,114,0
453.21448,453.33353,69,101,0
453.33054,453.4496,66,101,0
453.45258,453.57162,62,101,0
453.57162,453.69064,60,114,0
453.68768,453.80673,62,88,0
453.8097,453.92874,60,88,0
453.92874,454.0478,62,88,0
454.04483,454.16388,60,88,0
454.16684,454.2859,62,88,0
454.2859,454.40494,70,114,0
454.40198,454.52103,74,114,0
454.524,454.64304,72,114,0
454.64304,454.7621,70,101,0
454.75912,454.87814,65,101,0
454.88113,455.00018,62,101,0
455.00018,455.11923,58,114,0
455.11624,455.2353,62,88,0
455.23828,455.35733,58,88,0
455.35733,455.47638,62,88,0
455.4734,455.59244,58,88,0
455.59543,455.71448,62,88,0
455.71448,455.83353,57,36,0
455.83054,455.9496,59,36,0
455.95258,456.07162,61,36,0
456.07162,456.19067,62,36,0
456.18768,456.30673,64,36,0
456.3097,456.42874,66,36,0
456.42874,456.5478,67,36,0
456.54483,456.66388,69,36,0
456.66684,456.7859,71,36,0
456.7859,456.90494,73,36,0
456.90198,457.02103,74,36,0
457.024,457.14304,76,36,0
457.14304,457.2621,78,36,0
457.25912,457.37817,79,36,0
457.38113,457.50018,81,36,0
457.50018,457.61923,83,36,0
457.61624,457.7353,85,36,0
457.73828,457.85733,86,36,0
457.85733,457.97638,88,36,0
457.9734,458.09244,90,36,0
458.09543,458.21448,91,36,0
458.21448,458.33353,93,36,0
458.33054,458.4496,95,36,0
458.45258,458.57162,97,36,0
458.57162,458.69067,98,36,0
458.68768,458.80673,97,36,0
458.8097,458.92874,95,36,0
458.92874,459.0478,93,36,0
459.04483,459.16388,91,36,0
459.16684,459.2859,90,36,0
459.2859,459.40494,88,36,0
459.40198,459.52103,86,36,0
459.524,459.64304,85,36,0
459.64304,459.7621,83,36,0
459.75912,459.87817,81,36,0
459.88113,460.00018,79,36,0
460.00018,460.11923,78,36,0
460.11624,460.2353,76,36,0
460.23828,460.35733,74,36,0
460.35733,460.47638,73,36,0
460.4734,460.59244,71,36,0
460.59543,460.71448,69,36,0
460.71448,460.83353,67,36,0
460.83054,460.9496,71,36,0
460.95258,461.07162,69,36,0
461.07162,461.19067,67,36,0
461.18768,461.30673,66,36,0
461.30972,461.42874,64,36,0
461.42874,461.5478,72,101,0
461.54483,461.66388,74,101,0
461.66684,461.7859,72,101,0
461.7859,461.90494,69,88,0
461.90198,462.02103,66,88,0
462.024,462.14304,62,88,0
462.14304,462.2621,60,101,0
462.25912,462.37817,62,75,0
462.38113,462.50018,60,75,0
462.50018,462.61923,62,75,0
462.61624,462.7353,60,75,0
462.73828,462.85733,62,75,0
462.85733,462.97638,70,114,0
462.9734,463.09244,74,114,0
463.09543,463.21448,72,114,0
463.21448,463.33353,70,101,0
463.33054,463.4496,65,101,0
463.45258,463.57162,62,101,0
463.57162,463.69067,58,114,0
463.68768,463.80673,62,88,0
463.80972,463.92877,58,88,0
463.92877,464.0478,62,88,0
464.04483,464.16388,58,88,0
464.16684,464.2859,62,88,0
464.2859,464.40494,70,114,0
464.40198,464.52103,72,114,0
464.524,464.64304,70,114,0
464.64304,464.7621,67,101,0
464.75912,464.87817,64,101,0
464.88113,465.00018,60,101,0
465.00018,465.11923,58,114,0
465.11627,465.2353,60,88,0
465.23828,465.35733,58,88,0
465.35733,465.47638,60,88,0
465.4734,465.59244,58,88,0
465.59543,465.71448,60,88,0
465.71448,465.83353,68,114,0
465.83054,465.9496,72,114,0
465.95258,466.07162,70,114,0
466.07162,466.19067,68,101,0
466.18768,466.30673,63,101,0
466.30972,466.42877,60,101,0
466.42877,466.5478,56,114,0
466.54483,466.66388,60,88,0
466.66684,466.7859,56,88,0
466.7859,466.90494,60,88,0
466.90198,467.02103,56,88,0
467.024,467.14304,60,88,0
467.14304,467.2621,68,114,0
467.25912,467.37817,70,114,0
467.38113,467.50018,68,114,0
467.50018,467.61923,65,114,0
467.61627,467.73532,62,114,0
467.73828,467.85733,58,114,0
467.85733,467.97638,66,114,0
467.9734,468.09244,70,114,0
468.09543,468.21448,66,114,0
468.21448,468.33353,61,114,0
468.33054,468.4496,58,114,0
468.45258,468.57162,54,114,0
468.57162,468.69067,67,114,0
468.68768,468.80673,69,114,0
468.80972,468.92877,67,114,0
468.92877,469.04782,64,114,0
469.04483,469.16388,61,114,0
469.16684,469.2859,57,114,0
469.2859,469.40494,65,114,0
469.40198,469.52103,69,114,0
469.524,469.64304,65,114,0
469.64304,469.7621,60,114,0
469.75912,469.87817,57,114,0
469.88113,470.00018,53,114,0
474.28592,474.40494,66,49,0
474.40198,474.52103,67,49,0
474.524,474.64304,69,49,0
474.64304,474.7621,71,49,0
474.75912,474.87817,73,49,0
474.88113,475.00018,74,49,0
475.00018,475.11923,76,49,0
475.11627,475.23532,78,49,0
475.23828,475.35733,79,49,0
475.35733,475.47638,81,49,0
475.47342,475.59244,83,49,0
475.59543,475.71448,85,49,0
475.71448,475.83353,74,62,0
475.83054,475.9496,76,62,0
475.95258,476.07162,78,62,0
476.07162,476.19067,79,62,0
476.18768,476.30673,81,62,0
476.30972,476.42877,83,62,0
476.42877,476.54782,85,62,0
476.54483,476.66388,86,62,0
476.66687,476.78592,88,62,0
476.78592,476.90494,90,62,0
476.90198,477.02103,91,62,0
477.024,477.14304,93,62,0
477.14304,477.2621,81,75,0
477.25912,477.37817,83,75,0
477.38113,477.50018,85,75,0
477.50018,477.61923,86,75,0
477.61627,477.73532,88,75,0
477.73828,477.85733,90,75,0
477.85733,477.97638,91,75,0
477.97342,478.09247,93,75,0
478.09543,478.21448,95,75,0
478.21448,478.33353,97,75,0
478.33054,478.4496,98,75,0
478.45258,478.57162,100,75,0
478.57162,478.69067,86,88,0
478.68768,478.80673,88,88,0
478.80972,478.92877,86,88,0
478.92877,479.04782,90,88,0
479.04483,479.16388,98,88,0
479.16687,479.28592,90,88,0
479.28592,479.40497,86,88,0
479.40198,479.52103,88,88,0
479.524,479.64304,86,88,0
479.64304,479.7621,90,88,0
479.75912,479.87817,98,88,0
479.88113,480.00018,90,88,0
480.00018,480.11923,81,88,0
480.11627,480.23532,90,88,0
480.23828,480.35733,81,88,0
480.35733,480.47638,90,88,0
480.47342,480.59247,93,88,0
480.59543,480.71448,90,88,0
480.71448,480.83353,81,88,0
480.83054,480.9496,90,88,0
480.95258,481.07162,81,88,0
481.07162,481.19067,90,88,0
481.18768,481.30673,93,88,0
481.30972,481.42877,90,88,0
481.42877,481.54782,78,88,0
481.54483,481.66388,86,88,0
481.66687,481.78592,78,88,0
481.78592,481.90497,86,88,0
481.90198,482.02103,90,88,0
482.02402,482.14304,86,88,0
482.14304,482.2621,78,88,0
482.25912,482.37817,86,88,0
482.38113,482.50018,78,88,0
482.50018,482.61923,86,88,0
482.61627,482.73532,90,88,0
482.73828,482.85733,86,88,0
482.85733,482.97638,74,88,0
482.97342,483.09247,78,88,0
483.09543,483.21448,74,88,0
483.21448,483.33353,78,88,0
483.33054,483.4496,86,88,0
483.45258,483.57162,78,88,0
483.57162,483.69067,74,88,0
483.68768,483.80673,78,88,0
483.80972,483.92877,74,88,0
483.92877,484.04782,78,88,0
484.04483,484.16388,86,88,0
484.16687,484.28592,78,88,0
484.28592,484.87997,86,127,0
484.28592,484.87997,74,115,0
484.28592,484.87997,78,119,0
484.28592,484.87997,81,123,0
484.87997,484.8948,74,101,0
484.87997,484.8948,66,101,0
485.02847,485.04333,74,101,0
485.02847,485.04333,66,101,0
485.177,485.19186,74,101,0
485.177,485.19186,66,101,0
485.3255,485.34036,74,101,0
485.3255,485.34036,66,101,0
485.47403,485.77106,74,127,0
485.47403,485.77106,66,119,0
485.77106,485.9196,76,101,0
485.77106,485.9196,69,101,0
486.06808,486.3651,76,127,0
486.06808,486.3651,69,119,0
486.3651,486.51364,78,101,0
486.3651,486.51364,74,101,0
486.66214,486.95917,78,127,0
486.66214,486.95917,74,119,0
486.95917,487.1077,76,101,0
486.95917,487.1077,69,101,0
487.2562,487.27106,76,101,0
487.2562,487.27106,69,101,0
487.40472,487.4196,76,101,0
487.40472,487.4196,69,101,0
487.55325,487.56808,76,101,0
487.55325,487.56808,69,101,0
487.70175,487.7166,76,101,0
487.70175,487.7166,69,101,0
487.85028,488.1473,76,101,0
487.85028,488.1473,69,101,0
488.1473,488.2958,81,101,0
488.1473,488.2958,78,101,0
488.44434,488.74136,81,101,0
488.44434,488.74136,78,101,0
488.74136,488.88986,79,101,0
488.74136,488.88986,73,101,0
489.0384,489.33542,79,101,0
489.0384,489.33542,73,101,0
489.33542,489.48395,78,101,0
489.33542,489.48395,74,101,0
489.63245,489.6473,86,101,0
489.63245,489.6473,74,101,0
489.63245,489.6473,78,101,0
489.63245,489.6473,83,101,0
489.78098,489.7958,86,101,0
489.78098,489.7958,74,101,0
489.78098,489.7958,78,101,0
489.78098,489.7958,83,101,0
489.92947,489.94434,86,101,0
489.92947,489.94434,74,101,0
489.92947,489.94434,78,101,0
489.92947,489.94434,83,101,0
490.078,490.09283,86,101,0
490.078,490.09283,74,101,0
490.078,490.09283,78,101,0
490.078,490.09283,83,101,0
490.2265,490.52353,86,127,0
490.2265,490.52353,74,115,0
490.2265,490.52353,78,119,0
490.2265,490.52353,83,123,0
490.52353,490.67206,83,101,0
490.52353,490.67206,78,101,0
490.52353,490.67206,71,101,0
490.82056,490.85028,81,101,0
490.82056,490.85028,69,101,0
490.82056,490.85028,74,101,0
490.82056,490.85028,78,101,0
491.11758,491.1473,78,101,0
491.11758,491.1473,74,101,0
491.11758,491.1473,69,101,0
491.41464,492.0087,76,101,0
491.41464,492.0087,73,101,0
491.41464,492.0087,69,101,0
492.0087,492.02353,77,101,0
492.0087,492.02353,65,101,0
492.1572,492.17206,77,101,0
492.1572,492.17206,65,101,0
492.30573,492.32056,77,101,0
492.30573,492.32056,65,101,0
492.45422,492.4691,77,101,0
492.45422,492.4691,65,101,0
492.60275,492.89978,81,101,0
492.60275,492.89978,78,101,0
492.60275,492.89978,74,101,0
492.89978,493.04828,78,101,0
492.89978,493.04828,74,101,0
492.60275,493.04828,69,101,0
493.1968,493.2265,78,101,0
493.1968,493.2265,74,101,0
493.1968,493.2265,69,101,0
493.49384,493.52353,76,101,0
493.49384,493.52353,73,101,0
493.49384,493.52353,69,101,0
493.79086,494.0879,74,101,0
493.79086,494.0879,69,101,0
493.79086,494.0879,66,101,0
494.0879,494.53345,77,101,0
494.0879,494.53345,65,101,0
494.53345,494.5483,77,101,0
494.53345,494.5483,65,101,0
494.68195,494.6968,77,101,0
494.68195,494.6968,65,101,0
494.83047,494.84534,77,101,0
494.83047,494.84534,65,101,0
494.97897,495.27603,81,101,0
494.97897,495.27603,78,101,0
495.27603,495.42453,78,101,0
495.27603,495.42453,74,101,0
494.97897,495.42453,69,101,0
495.57306,495.60275,78,101,0
495.57306,495.60275,74,101,0
495.57306,495.60275,69,101,0
495.8701,495.89978,76,101,0
495.8701,495.89978,73,101,0
495.8701,495.89978,69,101,0
496.1671,496.46414,74,101,0
496.1671,496.46414,69,101,0
496.1671,496.46414,66,101,0
496.46414,496.90967,89,114,0
496.46414,496.90967,86,114,0
496.46414,496.90967,80,114,0
496.90967,496.92453,89,114,0
496.90967,496.92453,86,114,0
496.90967,496.92453,80,114,0
497.0582,497.07306,89,114,0
497.0582,497.07306,86,114,0
497.0582,497.07306,80,114,0
497.20673,497.22156,89,114,0
497.20673,497.22156,86,114,0
497.20673,497.22156,80,114,0
497.35522,497.65225,93,114,0
497.35522,497.65225,90,114,0
497.35522,497.65225,81,114,0
497.65225,497.80078,90,114,0
497.65225,497.80078,86,114,0
497.94928,497.979,90,114,0
497.94928,497.979,86,114,0
497.94928,497.979,81,114,0
498.2463,498.27603,88,114,0
498.2463,498.27603,85,114,0
498.2463,498.27603,81,114,0
498.54333,498.64236,93,114,0
498.6399,498.7389,90,114,0
498.74136,498.8404,81,114,0
498.8404,498.9394,86,114,0
498.93692,499.03592,90,114,0
499.0384,499.13742,95,114,0
499.13742,499.23642,93,114,0
499.23395,499.33295,90,114,0
499.33542,499.43445,81,114,0
499.43445,499.53345,88,114,0
499.53098,499.62997,85,114,0
499.63245,499.73148,81,114,0
499.73148,499.83047,93,114,0
499.828,499.927,90,114,0
499.92947,500.0285,81,114,0
500.0285,500.1275,86,114,0
500.12503,500.22403,90,114,0
500.22653,500.32553,95,114,0
500.32553,500.42453,93,114,0
500.42206,500.5211,90,114,0
500.52356,500.62256,81,114,0
500.62256,500.72156,88,114,0
500.7191,500.8181,85,114,0
500.8206,500.9196,81,114,0
500.9196,501.0186,93,114,0
501.0161,501.11514,81,114,0
501.1176,501.2166,86,114,0
501.2166,501.3156,90,114,0
501.31314,501.41217,93,114,0
501.41464,501.51364,98,114,0
501.51364,501.61267,93,114,0
501.61017,501.7092,90,114,0
501.71167,501.81067,95,114,0
501.81067,501.9097,93,114,0
501.90723,502.00623,91,114,0
502.0087,502.1077,88,114,0
502.1077,502.25623,86,114,0
503.29584,503.39484,59,114,0
503.39236,503.49136,57,114,0
503.49384,503.59286,55,114,0
503.59286,503.69186,61,114,0
503.6894,503.7884,59,114,0
503.79086,503.8899,57,114,0
503.8899,503.9889,62,114,0
503.98642,504.08542,61,114,0
504.08792,504.18692,59,114,0
504.18692,504.28592,64,114,0
504.28345,504.38248,62,114,0
504.38495,504.48395,61,114,0
504.48395,505.078,66,114,0
504.48395,505.078,61,114,0
504.48395,505.078,58,114,0
505.67206,506.2661,81,114,0
505.67206,506.2661,73,114,0
505.67206,506.2661,67,114,0
505.67206,506.2661,69,114,0
505.67206,506.2661,76,114,0
506.8602,507.45425,62,114,0
506.8602,507.45425,57,114,0
506.8602,507.45425,54,114,0
507.45425,507.75128,62,114,0
507.45425,507.75128,57,114,0
507.45425,507.75128,54,114,0
507.75128,508.0483,62,114,0
507.75128,508.0483,57,114,0
507.75128,508.0483,54,114,0
508.0483,508.34534,62,114,0
508.0483,508.34534,57,114,0
508.0483,508.34534,54,114,0
508.64236,508.9394,86,114,0
508.64236,508.9394,74,114,0
508.64236,508.9394,78,114,0
508.64236,508.9394,81,114,0
509.23642,509.83047,62,114,0
509.23642,509.83047,57,114,0
509.23642,509.83047,54,114,0
46.25002,46.42859,49,88,0
46.42859,46.547638,50,88,0
46.544662,46.663708,49,88,0
46.666687,46.785732,47,88,0
46.785732,46.90478,53,88,0
46.901806,47.02085,52,88,0
47.023827,47.142876,50,88,0
47.142876,47.261925,49,49,0
47.25895,47.377995,50,49,0
47.38097,47.50002,52,49,0
47.50002,47.61907,54,49,0
47.61609,47.735138,56,49,0
47.738113,47.857162,57,49,0
50.535736,50.714306,49,88,0
50.714306,50.833355,50,88,0
50.830376,50.949425,49,88,0
50.9524,51.07145,47,88,0
51.07145,51.1905,53,88,0
51.18752,51.30657,52,88,0
51.309544,51.428593,50,88,0
51.428593,51.547638,49,49,0
51.544662,51.66371,50,49,0
51.666687,51.785736,52,49,0
51.785736,51.90478,54,49,0
51.901806,52.020855,56,49,0
52.02383,52.14288,57,49,0
77.97324,78.09229,57,36,0
78.09527,78.21432,61,36,0
78.21432,78.33337,64,36,0
78.33039,78.44943,69,36,0
78.452415,78.57146,73,36,0
80.83039,80.94944,61,36,0
80.952415,81.071465,64,36,0
81.071465,81.190506,69,36,0
81.18753,81.30658,73,36,0
81.309555,81.428604,76,36,0
88.571465,88.69051,69,36,0
88.68754,88.80658,64,36,0
88.80956,88.928604,69,36,0
88.928604,89.10718,61,36,0
89.28575,89.4048,71,36,0
89.401825,89.52087,68,36,0
89.52384,89.64289,71,36,0
89.64289,89.821465,64,36,0
90.00004,90.11909,73,36,0
90.116104,90.23515,71,36,0
90.23813,90.35718,73,36,0
90.35718,90.53575,69,36,0
90.714325,90.98218,78,36,0
90.98218,91.071465,75,36,0
91.071465,91.339325,78,36,0
91.339325,91.42861,75,36,0
91.42861,91.78575,78,62,0
91.78575,91.964325,75,62,0
92.14289,92.50004,78,62,0
92.50004,92.67861,75,62,0
92.85718,93.214325,78,62,0
93.214325,93.39289,75,62,0
93.571465,93.839325,77,62,0
93.839325,93.92861,75,62,0
93.92861,94.196465,77,62,0
94.196465,94.28575,75,62,0
94.28575,94.6429,77,62,0
94.6429,94.821465,75,62,0
95.00004,95.35718,77,62,0
95.35718,95.53575,75,62,0
95.714325,96.071465,77,62,0
96.071465,96.25004,74,62,0
96.42861,96.78575,76,62,0
96.78575,96.964325,74,62,0
97.1429,97.50004,73,62,0
97.50004,97.67861,76,62,0
97.857185,98.214325,66,62,0
98.214325,98.3929,74,62,0
98.214325,98.3929,69,62,0
98.571465,98.92861,64,62,0
98.92861,99.107185,73,62,0
98.92861,99.107185,69,62,0
99.28575,99.6429,64,62,0
99.6429,99.82147,71,62,0
99.6429,99.82147,68,62,0
106.07147,106.339325,76,49,0
106.07147,106.339325,73,49,0
106.339325,106.42861,76,49,0
106.339325,106.42861,73,49,0
106.42861,106.607185,74,49,0
106.42861,106.607185,71,49,0
107.500046,107.7679,76,49,0
107.500046,107.7679,73,49,0
107.7679,107.857185,76,49,0
107.7679,107.857185,73,49,0
107.857185,108.03576,74,49,0
107.857185,108.03576,71,49,0
108.92861,109.19647,76,49,0
108.92861,109.19647,73,49,0
109.19647,109.28576,76,49,0
109.19647,109.28576,73,49,0
109.28576,109.46433,74,49,0
109.28576,109.46433,71,49,0
110.357185,110.625046,76,49,0
110.357185,110.625046,73,49,0
110.625046,110.71433,76,49,0
110.625046,110.71433,73,49,0
110.71433,110.8929,74,49,0
110.71433,110.8929,71,49,0
123.21433,123.48219,76,49,0
123.21433,123.48219,73,49,0
123.48219,123.57148,76,49,0
123.48219,123.57148,73,49,0
123.57148,123.750046,74,49,0
123.57148,123.750046,71,49,0
124.64291,124.91077,76,49,0
124.64291,124.91077,73,49,0
124.91077,125.00005,76,49,0
124.91077,125.00005,73,49,0
125.00005,125.17862,74,49,0
125.00005,125.17862,71,49,0
126.07148,126.33933,76,49,0
126.07148,126.33933,73,49,0
126.33933,126.42862,76,49,0
126.33933,126.42862,73,49,0
126.42862,126.60719,74,49,0
126.42862,126.60719,71,49,0
127.50005,127.76791,76,49,0
127.50005,127.76791,73,49,0
127.76791,127.85719,76,49,0
127.76791,127.85719,73,49,0
127.85719,128.03577,74,49,0
127.85719,128.03577,71,49,0
180.53578,180.71436,49,88,0
180.71436,180.8334,50,88,0
180.83043,180.94948,49,88,0
180.95245,181.0715,47,88,0
181.0715,181.19055,53,88,0
181.18758,181.30663,52,88,0
181.3096,181.42865,50,88,0
181.42865,181.5477,49,49,0
181.54471,181.66376,50,49,0
181.66673,181.78578,52,49,0
181.78578,181.90483,54,49,0
181.90186,182.0209,56,49,0
182.02388,182.14293,57,49,0
184.8215,185.00008,49,88,0
185.00008,185.11913,50,88,0
185.11615,185.2352,49,88,0
185.23817,185.35722,47,88,0
185.35722,185.47626,53,88,0
185.47328,185.59233,52,88,0
185.5953,185.71436,50,88,0
185.71436,185.8334,49,49,0
185.83043,185.94948,50,49,0
185.95245,186.0715,52,49,0
186.0715,186.19055,54,49,0
186.18758,186.30663,56,49,0
186.3096,186.42865,57,49,0
212.25902,212.37807,57,36,0
212.38104,212.50009,61,36,0
212.50009,212.61913,64,36,0
212.61615,212.7352,69,36,0
212.73817,212.85722,73,36,0
215.11615,215.2352,61,36,0
215.23817,215.35722,64,36,0
215.35722,215.47627,69,36,0
215.4733,215.59235,73,36,0
215.59532,215.71437,76,36,0
222.85724,222.97627,69,36,0
222.9733,223.09235,64,36,0
223.09532,223.21437,69,36,0
223.21437,223.39294,61,36,0
223.57152,223.69057,71,36,0
223.68759,223.80664,68,36,0
223.80962,223.92867,71,36,0
223.92867,224.10724,64,36,0
224.2858,224.40485,73,36,0
224.40187,224.52092,71,36,0
224.5239,224.64294,73,36,0
224.64294,224.82152,69,36,0
225.00009,225.26794,78,36,0
225.26794,225.35724,75,36,0
225.35724,225.62509,78,36,0
225.62509,225.71437,75,36,0
225.71437,226.07152,78,62,0
226.07152,226.25009,75,62,0
226.42867,226.78581,78,62,0
226.78581,226.96437,75,62,0
227.14294,227.50009,78,62,0
227.50009,227.67867,75,62,0
227.85724,228.12509,77,62,0
228.12509,228.21437,75,62,0
228.21437,228.48224,77,62,0
228.48224,228.57152,75,62,0
228.57152,228.92867,77,62,0
228.92867,229.10724,75,62,0
229.28581,229.64294,77,62,0
229.64294,229.82152,75,62,0
230.00009,230.35724,77,62,0
230.35724,230.53581,74,62,0
230.71437,231.07152,76,62,0
231.07152,231.25009,74,62,0
231.42867,231.78581,73,62,0
231.78581,231.96439,76,62,0
232.14294,232.50009,66,62,0
232.50009,232.67867,74,62,0
232.50009,232.67867,69,62,0
232.85724,233.21439,64,62,0
233.21439,233.39294,73,62,0
233.21439,233.39294,69,62,0
233.57152,233.92867,64,62,0
233.92867,234.10724,71,62,0
233.92867,234.10724,68,62,0
240.35724,240.62509,76,49,0
240.35724,240.62509,73,49,0
240.62509,240.71439,76,49,0
240.62509,240.71439,73,49,0
240.71439,240.89296,74,49,0
240.71439,240.89296,71,49,0
241.78581,242.05367,76,49,0
241.78581,242.05367,73,49,0
242.05367,242.14296,76,49,0
242.05367,242.14296,73,49,0
242.14296,242.32152,74,49,0
242.14296,242.32152,71,49,0
243.21439,243.48224,76,49,0
243.21439,243.48224,73,49,0
243.48224,243.57153,76,49,0
243.48224,243.57153,73,49,0
243.57153,243.75009,74,49,0
243.57153,243.75009,71,49,0
244.64296,244.91081,76,49,0
244.64296,244.91081,73,49,0
244.91081,245.00009,76,49,0
244.91081,245.00009,73,49,0
245.00009,245.17867,74,49,0
245.00009,245.17867,71,49,0
257.5001,257.76797,76,49,0
257.5001,257.76797,73,49,0
257.76797,257.85724,76,49,0
257.76797,257.85724,73,49,0
257.85724,258.03583,74,49,0
257.85724,258.03583,71,49,0
258.92868,259.19653,76,49,0
258.92868,259.19653,73,49,0
259.19653,259.28583,76,49,0
259.19653,259.28583,73,49,0
259.28583,259.4644,74,49,0
259.28583,259.4644,71,49,0
260.35724,260.6251,76,49,0
260.35724,260.6251,73,49,0
260.6251,260.7144,76,49,0
260.6251,260.7144,73,49,0
260.7144,260.89297,74,49,0
260.7144,260.89297,71,49,0
261.78583,262.05368,76,49,0
261.78583,262.05368,73,49,0
262.05368,262.14297,76,49,0
262.05368,262.14297,73,49,0
262.14297,262.32153,74,49,0
262.14297,262.32153,71,49,0
396.25015,396.42874,49,88,0
396.42874,396.5478,50,88,0
396.5448,396.66385,49,88,0
396.66684,396.78586,47,88,0
396.78586,396.9049,53,88,0
396.90195,397.021,52,88,0
397.02396,397.143,50,88,0
397.143,397.26205,49,49,0
397.2591,397.37814,50,49,0
397.3811,397.50015,52,49,0
397.50015,397.6192,54,49,0
397.61624,397.7353,56,49,0
397.73825,397.8573,57,49,0
400.5359,400.71445,49,88,0
400.71445,400.8335,50,88,0
400.8305,400.94955,49,88,0
400.95255,401.0716,47,88,0
401.0716,401.19064,53,88,0
401.18765,401.3067,52,88,0
401.3097,401.42874,50,88,0
401.42874,401.5478,49,49,0
401.5448,401.66385,50,49,0
401.66684,401.7859,52,49,0
401.7859,401.90494,54,49,0
401.90195,402.021,56,49,0
402.02396,402.143,57,49,0
407.0984,407.143,57,75,0
407.143,407.50015,66,36,0
407.50015,407.67874,62,36,0
407.81265,407.8573,62,36,0
407.8573,408.12515,71,62,0
408.12515,408.21445,68,36,0
408.21445,408.4823,71,36,0
408.4823,408.5716,68,36,0
408.5716,408.92874,69,62,0
408.92874,409.1073,57,36,0
409.24124,409.2859,57,36,0
409.2859,409.64304,67,36,0
409.64304,409.8216,64,36,0
409.95554,410.00015,64,36,0
410.00015,410.3573,66,36,0
410.3573,410.5359,57,36,0
410.6698,410.71445,57,36,0
410.71445,410.9823,64,36,0
410.9823,411.0716,61,36,0
411.0716,411.33945,64,36,0
411.33945,411.42874,61,36,0
412.8573,413.21445,66,36,0
412.8573,413.21445,57,36,0
413.21445,413.39304,62,36,0
413.5716,413.83945,68,36,0
413.5716,413.83945,65,36,0
413.83945,413.92874,62,36,0
413.92874,414.1966,68,36,0
413.92874,414.1966,65,36,0
414.1966,414.2859,62,36,0
414.2859,414.64304,69,36,0
414.2859,414.64304,66,36,0
414.64304,414.8216,57,36,0
415.00015,415.3573,67,36,0
415.00015,415.3573,64,36,0
415.3573,415.5359,57,36,0
415.71445,416.0716,66,36,0
415.71445,416.0716,62,36,0
416.0716,416.25015,57,36,0
416.42874,416.6966,64,36,0
416.42874,416.6966,61,36,0
416.6966,416.7859,57,36,0
416.7859,417.05374,64,36,0
416.7859,417.05374,61,36,0
417.05374,417.14304,57,36,0
427.9734,428.09244,62,36,0
428.0954,428.21445,66,36,0
428.21445,428.3335,69,36,0
428.33054,428.4496,74,36,0
428.45255,428.5716,78,36,0
428.5716,428.75018,69,36,0
428.92874,429.1073,67,36,0
428.92874,429.1073,64,36,0
428.92874,429.1073,57,36,0
429.2859,429.46445,66,36,0
429.2859,429.46445,62,36,0
429.2859,429.46445,57,36,0
429.64304,429.8216,64,36,0
429.64304,429.8216,61,36,0
429.64304,429.8216,57,36,0
430.83054,430.9496,66,36,0
430.95255,431.0716,69,36,0
431.0716,431.19064,74,36,0
431.18768,431.30673,78,36,0
431.3097,431.42874,81,36,0
431.42874,431.60733,69,36,0
431.7859,431.96445,67,36,0
431.7859,431.96445,64,36,0
431.7859,431.96445,57,36,0
432.14304,432.3216,66,36,0
432.14304,432.3216,62,36,0
432.14304,432.3216,57,36,0
432.50018,432.67874,64,36,0
432.50018,432.67874,61,36,0
432.50018,432.67874,57,36,0
432.85733,433.21445,62,49,0
433.21445,433.39304,54,49,0
433.5716,433.92874,64,49,0
433.92874,434.10733,57,49,0
434.2859,434.64304,66,49,0
434.64304,434.8216,62,49,0
435.00018,435.26804,71,49,0
435.26804,435.35733,68,49,0
435.35733,435.62518,71,49,0
435.62518,435.71445,68,49,0
435.71445,436.0716,69,49,0
436.0716,436.25018,57,49,0
436.42874,436.7859,67,49,0
436.7859,436.96445,64,49,0
437.14304,437.50018,66,49,0
437.50018,437.67874,57,49,0
437.85733,438.12518,64,49,0
438.12518,438.21445,61,49,0
438.21445,438.48233,64,49,0
438.48233,438.5716,57,49,0
438.5716,438.92874,74,49,0
438.92874,439.10733,66,49,0
439.2859,439.64304,76,49,0
439.64304,439.8216,69,49,0
440.00018,440.35733,78,49,0
440.35733,440.5359,74,49,0
440.71445,440.98233,83,49,0
440.98233,441.0716,80,49,0
441.0716,441.33945,83,49,0
441.33945,441.42874,80,49,0
441.42874,441.7859,83,49,0
441.7859,441.96448,80,49,0
442.14304,442.50018,83,49,0
442.50018,442.67874,80,49,0
442.85733,443.21448,83,49,0
443.21448,443.39304,80,49,0
443.5716,443.83948,82,49,0
443.83948,443.92874,80,49,0
443.92874,444.1966,82,49,0
444.1966,444.2859,80,49,0
444.2859,444.64304,82,49,0
444.64304,444.8216,80,49,0
445.00018,445.35733,82,49,0
445.35733,445.5359,80,49,0
445.71448,446.0716,82,49,0
446.0716,446.25018,79,49,0
446.42874,446.7859,81,49,0
446.7859,446.96448,79,49,0
447.14304,447.50018,78,49,0
447.50018,447.67874,81,49,0
447.85733,448.21448,71,49,0
448.21448,448.39304,79,49,0
448.21448,448.39304,74,49,0
448.5716,448.92874,69,49,0
448.92874,449.10733,78,49,0
448.92874,449.10733,74,49,0
449.2859,449.64304,69,49,0
449.64304,449.8216,76,49,0
449.64304,449.8216,73,49,0
456.07162,456.33948,81,36,0
456.07162,456.33948,78,36,0
456.33948,456.42874,81,36,0
456.33948,456.42874,78,36,0
456.42874,456.60733,79,36,0
456.42874,456.60733,76,36,0
456.7859,456.96448,64,36,0
456.7859,456.96448,57,36,0
457.50018,457.76804,81,36,0
457.50018,457.76804,78,36,0
457.76804,457.85733,81,36,0
457.76804,457.85733,78,36,0
457.85733,458.0359,79,36,0
457.85733,458.0359,76,36,0
458.21448,458.39304,64,36,0
458.21448,458.39304,57,36,0
458.92874,459.19662,81,36,0
458.92874,459.19662,78,36,0
459.19662,459.2859,81,36,0
459.19662,459.2859,78,36,0
459.2859,459.46448,79,36,0
459.2859,459.46448,76,36,0
459.64304,459.82162,64,36,0
459.64304,459.82162,57,36,0
460.35733,460.62518,81,36,0
460.35733,460.62518,78,36,0
460.62518,460.71448,81,36,0
460.62518,460.71448,78,36,0
460.71448,460.89304,79,36,0
460.71448,460.89304,76,36,0
461.07162,461.25018,57,36,0
473.21448,473.48233,69,49,0
473.21448,473.48233,66,49,0
473.48233,473.57162,69,49,0
473.48233,473.57162,66,49,0
473.57162,473.75018,67,49,0
473.57162,473.75018,64,49,0
474.64304,474.91092,69,49,0
474.64304,474.91092,66,49,0
474.91092,475.00018,69,49,0
474.91092,475.00018,66,49,0
475.00018,475.17877,67,49,0
475.00018,475.17877,64,49,0
476.07162,476.33948,69,62,0
476.07162,476.33948,66,62,0
476.33948,476.42877,69,62,0
476.33948,476.42877,66,62,0
476.42877,476.60733,67,62,0
476.42877,476.60733,64,62,0
477.50018,477.76804,69,75,0
477.50018,477.76804,66,75,0
477.76804,477.85733,69,75,0
477.76804,477.85733,66,75,0
477.85733,478.03592,67,75,0
477.85733,478.03592,64,75,0
482.85733,483.21448,66,75,0
482.85733,483.21448,62,75,0
483.21448,483.39304,69,75,0
483.21448,483.39304,66,75,0
483.57162,483.58948,69,75,0
483.57162,483.58948,66,75,0
483.75018,483.76804,69,75,0
483.75018,483.76804,66,75,0
483.92877,483.94662,69,75,0
483.92877,483.94662,66,75,0
484.10733,484.12518,69,75,0
484.10733,484.12518,66,75,0
497.94928,497.979,66,101,0
497.94928,497.979,62,101,0
497.94928,497.979,57,101,0
498.2463,498.27603,64,101,0
498.2463,498.27603,61,101,0
498.2463,498.27603,57,101,0
498.54333,498.8404,69,101,0
498.54333,498.8404,66,101,0
498.8404,498.9889,66,101,0
498.8404,498.9889,62,101,0
498.54333,498.9889,57,101,0
499.13742,499.1671,66,101,0
499.13742,499.1671,62,101,0
499.13742,499.1671,57,101,0
499.43445,499.46414,64,101,0
499.43445,499.46414,61,101,0
499.43445,499.46414,57,101,0
499.73148,500.0285,69,101,0
499.73148,500.0285,66,101,0
500.0285,500.177,66,101,0
500.0285,500.177,62,101,0
499.73148,500.177,57,101,0
500.32553,500.35522,66,101,0
500.32553,500.35522,62,101,0
500.32553,500.35522,57,101,0
500.62256,500.65225,64,101,0
500.62256,500.65225,61,101,0
500.62256,500.65225,57,101,0
0.0,0.714286,50,75,0
0.0,0.714286,38,75,0
0.714286,0.73214316,50,75,0
0.714286,0.73214316,42,75,0
0.8928575,0.9107146,50,75,0
0.8928575,0.9107146,42,75,0
1.071429,1.0892862,50,75,0
1.071429,1.0892862,42,75,0
1.2500005,1.2678577,50,75,0
1.2500005,1.2678577,42,75,0
1.428572,1.785715,42,75,0
1.785715,1.9642864,52,75,0
1.785715,1.9642864,43,75,0
1.428572,1.9642864,50,75,0
2.142858,2.160715,54,75,0
2.142858,2.160715,50,75,0
2.142858,2.160715,45,75,0
2.3214295,2.3392866,54,75,0
2.3214295,2.3392866,50,75,0
2.3214295,2.3392866,45,75,0
2.500001,2.5178583,54,75,0
2.500001,2.5178583,50,75,0
2.500001,2.5178583,45,75,0
2.6785724,2.6964297,54,75,0
2.6785724,2.6964297,50,75,0
2.6785724,2.6964297,45,75,0
2.857144,3.214287,54,75,0
2.857144,3.214287,45,75,0
3.214287,3.3928585,55,75,0
3.214287,3.3928585,47,75,0
2.857144,3.3928585,50,75,0
3.3928585,3.57143,52,75,0
3.57143,3.6904776,55,75,0
3.6875014,3.806549,54,75,0
3.8095253,3.928573,52,75,0
3.928573,4.047621,58,75,0
4.0446444,4.163692,57,75,0
4.1666684,4.285716,55,75,0
4.285716,4.4642873,57,75,0
4.642859,4.7619066,62,36,0
4.7589307,4.8779783,64,36,0
4.8809543,5.000002,66,36,0
5.000002,5.1190495,57,36,0
5.1160736,5.2351213,61,36,0
5.238097,5.357145,62,36,0
5.357145,5.4761925,64,36,0
5.4732165,5.592264,66,36,0
5.59524,5.714288,67,36,0
5.714288,6.428574,50,75,0
5.714288,6.428574,38,75,0
6.428574,6.446431,50,75,0
6.428574,6.446431,41,75,0
6.6071453,6.625003,50,75,0
6.6071453,6.625003,41,75,0
6.785717,6.803574,50,75,0
6.785717,6.803574,41,75,0
6.9642887,6.982146,50,75,0
6.9642887,6.982146,41,75,0
7.14286,7.500003,41,75,0
7.500003,7.6785746,52,75,0
7.500003,7.6785746,43,75,0
7.14286,7.6785746,50,75,0
7.857146,7.8750033,54,75,0
7.857146,7.8750033,50,75,0
7.857146,7.8750033,45,75,0
8.035718,8.053575,54,75,0
8.035718,8.053575,50,75,0
8.035718,8.053575,45,75,0
8.214289,8.232146,54,75,0
8.214289,8.232146,50,75,0
8.214289,8.232146,45,75,0
8.39286,8.410718,54,75,0
8.39286,8.410718,50,75,0
8.39286,8.410718,45,75,0
8.571432,8.928575,54,75,0
8.571432,8.928575,45,75,0
8.928575,9.107146,55,75,0
8.928575,9.107146,46,75,0
8.571432,9.107146,50,75,0
9.285718,9.3035755,56,75,0
9.285718,9.3035755,53,75,0
9.285718,9.3035755,47,75,0
9.46429,9.482146,56,75,0
9.46429,9.482146,53,75,0
9.46429,9.482146,47,75,0
9.642861,9.660718,56,75,0
9.642861,9.660718,53,75,0
9.642861,9.660718,47,75,0
9.821432,9.83929,56,75,0
9.821432,9.83929,53,75,0
9.821432,9.83929,47,75,0
10.000004,10.71429,57,75,0
10.000004,10.71429,53,75,0
10.000004,10.71429,48,75,0
10.71429,10.732147,48,62,0
10.892861,10.910719,48,62,0
11.071433,11.089291,48,62,0
11.250005,11.267861,48,62,0
11.428576,11.785719,48,88,0
11.785719,11.964291,45,62,0
12.142862,12.160719,48,49,0
12.321433,12.339291,48,49,0
12.500005,12.517862,48,49,0
12.678576,12.696434,48,49,0
12.857148,13.214291,48,75,0
13.214291,13.392862,45,49,0
13.571434,13.690482,53,49,0
13.687506,13.806553,55,49,0
13.809529,13.928577,57,49,0
13.928577,14.047625,45,49,0
14.044648,14.163696,46,49,0
14.166673,14.28572,48,49,0
14.28572,14.404768,41,62,0
14.401792,14.520839,43,62,0
14.523815,14.642863,45,62,0
14.642863,14.76191,33,75,0
14.758934,14.877982,34,75,0
14.880959,15.000006,36,75,0
15.000006,15.119054,33,88,0
15.116077,15.235126,34,88,0
15.238101,15.357149,36,88,0
15.357149,15.476196,33,101,0
15.473221,15.592268,34,101,0
15.595244,15.714292,36,101,0
15.714292,15.732149,37,101,0
15.892863,15.910721,37,101,0
16.071436,16.089293,37,101,0
16.250006,16.267864,37,101,0
16.428577,17.142864,37,49,0
17.142864,17.16072,49,49,0
17.142864,17.16072,37,49,0
17.321436,17.339293,49,49,0
17.321436,17.339293,37,49,0
17.500008,17.517864,49,49,0
17.500008,17.517864,37,49,0
17.67858,17.696436,49,49,0
17.67858,17.696436,37,49,0
17.85715,18.571436,49,49,0
17.85715,18.571436,37,49,0
18.571436,18.589293,45,62,0
18.571436,18.589293,33,62,0
18.750008,18.767864,45,62,0
18.750008,18.767864,33,62,0
18.92858,18.946436,45,62,0
18.92858,18.946436,33,62,0
19.107151,19.125008,45,62,0
19.107151,19.125008,33,62,0
19.285723,20.000008,45,62,0
19.285723,20.000008,33,62,0
20.000008,20.017864,45,88,0
20.000008,20.017864,33,88,0
20.17858,20.196436,45,88,0
20.17858,20.196436,33,88,0
20.357151,20.375008,45,88,0
20.357151,20.375008,33,88,0
20.535723,20.55358,45,88,0
20.535723,20.55358,33,88,0
20.714294,21.42858,45,88,0
20.714294,21.42858,33,88,0
21.42858,22.142866,50,88,0
21.42858,22.142866,38,88,0
21.42858,22.142866,42,88,0
21.42858,22.142866,45,88,0
22.142866,22.160723,50,88,0
22.142866,22.160723,42,88,0
22.321438,22.339294,50,88,0
22.321438,22.339294,42,88,0
22.50001,22.517866,50,88,0
22.50001,22.517866,42,88,0
22.678581,22.696438,50,88,0
22.678581,22.696438,42,88,0
22.857153,23.214294,42,88,0
23.214294,23.392866,52,62,0
23.214294,23.392866,43,62,0
22.857153,23.392866,50,88,0
23.571438,23.690485,45,62,0
23.68751,23.806557,47,62,0
23.809534,23.928581,48,62,0
23.928581,24.047628,50,62,0
24.044653,24.1637,52,62,0
24.166676,24.285725,54,62,0
24.285725,24.464296,46,88,0
24.464296,24.642866,54,62,0
24.642866,24.821438,47,88,0
24.821438,25.00001,55,62,0
25.00001,25.017868,57,62,0
25.00001,25.017868,55,62,0
25.00001,25.017868,49,62,0
25.178581,25.196438,57,62,0
25.178581,25.196438,55,62,0
25.178581,25.196438,49,62,0
25.357153,25.37501,57,62,0
25.357153,25.37501,55,62,0
25.357153,25.37501,49,62,0
25.535725,25.553581,57,62,0
25.535725,25.553581,55,62,0
25.535725,25.553581,49,62,0
25.714296,26.07144,57,62,0
25.714296,26.07144,49,62,0
26.07144,26.250011,59,62,0
26.07144,26.250011,50,62,0
25.714296,26.250011,55,62,0
26.428581,26.54763,50,62,0
26.544653,26.663702,52,62,0
26.666677,26.785725,54,62,0
26.785725,26.904772,55,62,0
26.901796,27.020844,57,62,0
27.02382,27.142868,59,62,0
27.142868,27.32144,51,88,0
27.32144,27.500011,59,62,0
27.500011,27.678583,52,62,0
27.678583,27.857155,60,62,0
27.857155,27.875011,61,62,0
27.857155,27.875011,58,62,0
27.857155,27.875011,52,62,0
28.035725,28.053583,61,62,0
28.035725,28.053583,58,62,0
28.035725,28.053583,52,62,0
28.214296,28.232155,61,62,0
28.214296,28.232155,58,62,0
28.214296,28.232155,52,62,0
28.392868,28.410727,61,62,0
28.392868,28.410727,58,62,0
28.392868,28.410727,52,62,0
28.57144,28.928583,61,62,0
28.57144,28.928583,52,62,0
28.928583,29.107155,62,62,0
28.928583,29.107155,53,62,0
28.57144,29.107155,58,62,0
29.285727,29.404774,53,62,0
29.401798,29.520845,55,62,0
29.52382,29.64287,57,62,0
29.64287,29.761917,58,62,0
29.75894,29.877989,60,62,0
29.880964,30.000011,62,62,0
30.000011,30.178583,51,62,0
30.178583,30.357155,58,62,0
30.357155,30.535727,58,62,0
30.535727,30.714298,62,62,0
30.714298,30.732155,46,62,0
30.714298,30.732155,34,62,0
30.89287,30.910727,46,62,0
30.89287,30.910727,34,62,0
31.071442,31.089298,46,62,0
31.071442,31.089298,34,62,0
31.250013,31.26787,46,62,0
31.250013,31.26787,34,62,0
31.428583,31.964298,46,62,0
31.428583,31.964298,34,62,0
32.14287,32.261917,53,62,0
32.25894,32.37799,55,62,0
32.380966,32.50001,57,62,0
32.50001,32.61906,58,62,0
32.616085,32.73513,60,62,0
32.73811,32.857155,62,62,0
32.857155,33.03573,51,62,0
33.03573,33.2143,58,62,0
33.2143,33.39287,58,62,0
33.39287,33.57144,62,62,0
33.57144,33.5893,46,62,0
33.57144,33.5893,34,62,0
33.750015,33.76787,46,62,0
33.750015,33.76787,34,62,0
33.928585,33.94644,46,62,0
33.928585,33.94644,34,62,0
34.107155,34.125015,46,62,0
34.107155,34.125015,34,62,0
34.28573,34.82144,46,62,0
34.28573,34.82144,34,62,0
35.000015,35.11906,53,62,0
35.116085,35.235134,55,62,0
35.23811,35.35716,57,62,0
35.35716,35.476204,58,62,0
35.47323,35.592278,60,62,0
35.595253,35.7143,62,62,0
35.7143,35.833347,63,62,0
35.83037,35.94942,65,62,0
35.952396,36.07144,67,62,0
36.07144,36.19049,65,62,0
36.187515,36.30656,63,62,0
36.30954,36.428585,62,62,0
36.428585,36.547634,61,62,0
36.54466,36.663704,58,62,0
36.666683,36.78573,55,62,0
36.78573,36.904778,52,62,0
36.901802,37.020847,49,62,0
37.023823,37.14287,52,62,0
37.14287,37.26192,53,62,0
37.25894,37.37799,50,62,0
37.380966,37.500015,53,62,0
37.500015,37.619064,50,62,0
37.616085,37.735134,46,62,0
37.73811,37.85716,50,62,0
37.85716,37.976204,53,62,0
37.97323,38.092278,55,62,0
38.095253,38.214302,57,62,0
38.214302,38.333347,58,62,0
38.33037,38.44942,60,62,0
38.452396,38.571445,62,62,0
38.571445,38.69049,63,62,0
38.687515,38.806564,65,62,0
38.80954,38.92859,67,62,0
38.92859,39.047634,65,62,0
39.04466,39.163708,63,62,0
39.166683,39.28573,62,62,0
39.28573,39.404778,61,62,0
39.401802,39.520847,58,62,0
39.523827,39.64287,55,62,0
39.64287,39.76192,52,62,0
39.758945,39.87799,49,62,0
39.88097,40.000015,52,62,0
40.000015,40.119064,43,88,0
40.11609,40.235134,40,62,0
40.23811,40.35716,43,62,0
40.35716,40.476208,40,62,0
40.473232,40.592278,37,62,0
40.595253,40.714302,40,62,0
40.714302,40.83335,44,101,0
40.83037,40.94942,40,75,0
40.952396,41.071445,44,75,0
41.071445,41.190495,40,75,0
41.187515,41.306564,37,75,0
41.30954,41.42859,40,75,0
41.42859,41.547634,45,101,0
41.54466,41.663708,40,75,0
41.666683,41.785732,45,75,0
41.785732,41.904778,40,75,0
41.901802,42.02085,37,75,0
42.023827,42.142876,40,75,0
42.142876,42.26192,45,101,0
42.258945,42.377995,40,75,0
42.38097,42.500015,45,75,0
42.500015,42.619064,40,75,0
42.61609,42.735138,36,75,0
42.738113,42.85716,40,75,0
42.85716,42.976208,35,101,0
42.973232,43.092278,41,75,0
43.095257,43.214302,35,75,0
43.214302,43.33335,41,75,0
43.330376,43.44942,47,75,0
43.4524,43.571445,41,75,0
43.571445,43.690495,34,101,0
43.68752,43.806564,41,75,0
43.80954,43.92859,34,75,0
43.92859,44.047638,41,75,0
44.04466,44.163708,46,75,0
44.166683,44.285732,41,75,0
44.285732,45.00002,45,101,0
44.285732,45.00002,33,101,0
45.00002,45.17859,66,36,0
45.00002,45.17859,57,36,0
45.17859,45.357162,66,36,0
45.17859,45.357162,57,36,0
45.357162,45.535732,66,36,0
45.357162,45.535732,57,36,0
45.535732,45.714306,66,36,0
45.535732,45.714306,57,36,0
45.714306,46.071445,69,36,0
46.071445,46.25002,64,36,0
45.714306,46.25002,57,36,0
46.25002,46.42859,37,75,0
46.42859,46.547638,38,75,0
46.544662,46.663708,37,75,0
46.666687,46.785732,35,75,0
46.785732,46.90478,41,75,0
46.901806,47.02085,40,75,0
47.023827,47.142876,38,75,0
47.142876,47.32145,40,75,0
48.095257,48.214306,52,62,0
48.214306,48.33335,50,62,0
48.330376,48.449425,49,62,0
48.4524,48.57145,47,62,0
48.57145,49.285732,45,88,0
48.57145,49.285732,33,88,0
49.285732,49.553593,66,36,0
49.285732,49.553593,57,36,0
49.553593,49.642876,66,36,0
49.553593,49.642876,57,36,0
49.642876,49.910736,66,36,0
49.642876,49.910736,57,36,0
49.910736,50.00002,66,36,0
49.910736,50.00002,57,36,0
50.00002,50.357162,69,36,0
50.357162,50.535736,64,36,0
50.00002,50.535736,57,36,0
50.535736,50.714306,37,75,0
50.714306,50.833355,38,75,0
50.830376,50.949425,37,75,0
50.9524,51.07145,35,75,0
51.07145,51.1905,41,75,0
51.18752,51.30657,40,75,0
51.309544,51.428593,38,75,0
51.428593,51.607162,40,75,0
52.380974,52.500023,52,62,0
52.500023,52.61907,50,62,0
52.616093,52.73514,49,62,0
52.738117,52.857162,47,62,0
52.857162,53.035736,45,62,0
55.71431,56.07145,57,36,0
56.07145,56.250023,49,36,0
56.428593,56.785736,59,36,0
56.785736,56.96431,52,36,0
57.098236,57.14288,52,36,0
57.14288,57.500023,61,36,0
57.500023,57.678593,57,36,0
57.812523,57.857166,57,36,0
57.857166,58.125023,66,62,0
58.125023,58.21431,63,36,0
58.21431,58.482166,66,36,0
58.482166,58.571453,63,36,0
58.571453,58.928596,64,62,0
58.928596,59.107166,52,36,0
59.241096,59.28574,52,36,0
59.28574,59.64288,62,36,0
59.64288,59.821453,59,36,0
59.95538,60.000023,59,36,0
60.000023,60.357166,61,36,0
60.357166,60.53574,52,36,0
60.669666,60.71431,52,36,0
60.71431,60.982166,59,36,0
60.982166,61.071453,56,36,0
61.071453,61.33931,59,36,0
61.33931,61.428596,56,36,0
61.428596,61.78574,57,36,0
61.428596,61.78574,49,36,0
61.78574,61.96431,52,36,0
62.142883,62.500027,59,36,0
62.142883,62.500027,56,36,0
62.500027,62.678596,52,36,0
62.857166,63.21431,61,36,0
62.857166,63.21431,52,36,0
63.21431,63.392883,57,36,0
63.571453,63.83931,63,36,0
63.571453,63.83931,60,36,0
63.83931,63.928596,57,36,0
63.928596,64.19646,63,36,0
63.928596,64.19646,60,36,0
64.19646,64.28574,57,36,0
64.28574,64.64288,64,36,0
64.28574,64.64288,61,36,0
64.64288,64.82146,52,36,0
65.00002,65.35717,62,36,0
65.00002,65.35717,59,36,0
65.35717,65.53574,52,36,0
65.71431,66.07146,61,36,0
65.71431,66.07146,57,36,0
66.07146,66.25002,52,36,0
66.4286,66.69646,59,36,0
66.4286,66.69646,56,36,0
66.69646,66.78574,52,36,0
66.78574,67.0536,59,36,0
66.78574,67.0536,56,36,0
67.0536,67.14288,52,36,0
67.14288,67.26193,59,88,0
67.25896,67.378006,50,88,0
67.38098,67.50003,59,88,0
67.50003,68.12503,43,88,0
68.12503,68.21431,59,88,0
68.12503,68.21431,50,88,0
68.21431,68.48217,43,88,0
68.48217,68.57146,50,88,0
68.57146,68.690506,59,88,0
68.68753,68.80657,50,88,0
68.809555,68.9286,59,88,0
68.9286,69.5536,43,88,0
69.5536,69.64288,59,88,0
69.5536,69.64288,50,88,0
69.64288,70.26788,43,88,0
70.26788,70.35717,59,88,0
70.26788,70.35717,50,88,0
70.35717,70.98217,43,114,0
70.98217,71.07146,59,88,0
70.98217,71.07146,50,88,0
71.07146,71.33932,43,114,0
71.33932,71.4286,55,88,0
71.4286,71.547646,48,88,0
71.54467,71.66372,55,88,0
71.666695,71.78574,48,88,0
71.78574,72.41074,36,114,0
72.41074,72.50003,55,88,0
72.41074,72.50003,48,88,0
72.50003,72.76788,36,114,0
72.76788,72.85717,55,88,0
72.85717,72.97622,48,88,0
72.97324,73.09229,55,88,0
73.09527,73.21432,48,88,0
73.21432,73.83932,36,114,0
73.83932,73.928604,55,88,0
73.83932,73.928604,48,88,0
73.928604,74.553604,36,114,0
74.553604,74.64288,55,88,0
74.553604,74.64288,48,88,0
74.64288,75.26789,36,114,0
75.26789,75.35717,40,88,0
75.35717,75.98217,35,114,0
75.98217,76.07146,40,36,0
76.07146,76.33932,35,36,0
76.33932,76.428604,40,36,0
76.428604,76.69646,35,36,0
76.69646,76.78574,40,36,0
76.78574,77.053604,35,36,0
77.053604,77.14289,40,36,0
77.14289,77.32146,33,36,0
78.57146,78.75003,64,36,0
78.928604,79.10718,62,36,0
78.928604,79.10718,59,36,0
78.928604,79.10718,52,36,0
79.28574,79.46432,61,36,0
79.28574,79.46432,57,36,0
79.28574,79.46432,52,36,0
79.64289,79.82146,59,36,0
79.64289,79.82146,56,36,0
79.64289,79.82146,52,36,0
80.00003,80.178604,61,36,0
80.00003,80.178604,57,36,0
81.428604,81.60718,64,36,0
81.78574,81.96432,62,36,0
81.78574,81.96432,59,36,0
81.78574,81.96432,52,36,0
82.14289,82.321465,61,36,0
82.14289,82.321465,57,36,0
82.14289,82.321465,52,36,0
82.50003,82.678604,59,36,0
82.50003,82.678604,56,36,0
82.50003,82.678604,52,36,0
82.85718,83.21432,57,49,0
83.21432,83.39289,49,49,0
83.571465,83.928604,59,49,0
83.928604,84.10718,52,49,0
84.28575,84.64289,61,49,0
84.64289,84.821465,57,49,0
85.00003,85.26789,66,49,0
85.26789,85.35718,63,49,0
85.35718,85.62503,66,49,0
85.62503,85.71432,63,49,0
85.71432,86.071465,64,49,0
86.071465,86.25004,52,49,0
86.428604,86.78575,62,49,0
86.78575,86.96432,59,49,0
87.14289,87.50004,61,49,0
87.50004,87.678604,52,49,0
87.85718,88.12504,59,49,0
88.12504,88.21432,56,49,0
88.21432,88.48218,59,49,0
88.48218,88.571465,52,49,0
100.00004,100.11909,55,88,0
100.11611,100.23516,57,88,0
100.23814,100.357185,55,88,0
100.357185,100.476234,52,88,0
100.47325,100.5923,49,88,0
100.595276,100.714325,45,88,0
100.714325,100.833374,43,88,0
100.8304,100.94945,45,88,0
100.95242,101.07147,43,88,0
101.07147,101.19051,45,88,0
101.18754,101.30659,43,88,0
101.30956,101.42861,45,88,0
101.42861,101.54766,53,101,0
101.544685,101.663734,57,101,0
101.66671,101.78575,53,101,0
101.78575,101.9048,48,101,0
101.901825,102.020874,45,101,0
102.02385,102.1429,41,101,0
102.1429,102.26195,45,101,0
102.25897,102.37801,41,101,0
102.381,102.50004,45,101,0
102.50004,102.61909,41,101,0
102.61611,102.73516,45,101,0
102.73814,102.857185,41,101,0
102.857185,102.976234,55,101,0
102.97326,103.0923,57,101,0
103.095276,103.214325,55,101,0
103.214325,103.333374,52,101,0
103.3304,103.44945,49,101,0
103.45242,103.57147,45,101,0
103.57147,103.69052,43,101,0
103.68754,103.80659,45,101,0
103.80956,103.92861,43,101,0
103.92861,104.04766,45,101,0
104.044685,104.163734,43,101,0
104.16671,104.28576,45,101,0
104.28576,104.4048,53,88,0
104.401825,104.520874,57,88,0
104.52385,104.6429,53,88,0
104.6429,104.76195,48,88,0
104.75897,104.87802,45,88,0
104.881,105.000046,41,88,0
105.000046,105.11909,45,88,0
105.11611,105.23516,41,88,0
105.23814,105.357185,45,88,0
105.357185,105.476234,41,88,0
105.47326,105.5923,45,88,0
105.59528,105.714325,41,88,0
105.714325,105.8929,40,49,0
106.78576,106.964325,59,49,0
106.78576,106.964325,52,49,0
107.1429,107.32147,57,49,0
107.1429,107.32147,49,49,0
107.1429,107.32147,45,49,0
108.21433,108.3929,59,49,0
108.21433,108.3929,52,49,0
108.57147,108.750046,57,49,0
108.57147,108.750046,49,49,0
108.57147,108.750046,45,49,0
109.6429,109.82147,59,49,0
109.6429,109.82147,52,49,0
110.000046,110.17861,57,49,0
110.000046,110.17861,49,49,0
110.000046,110.17861,45,49,0
111.07147,111.250046,52,49,0
111.42862,111.54766,55,88,0
111.544685,111.663734,57,88,0
111.66671,111.78576,55,88,0
111.78576,111.90481,52,88,0
111.90183,112.02088,49,88,0
112.02386,112.1429,45,88,0
112.1429,112.26195,43,88,0
112.25897,112.37802,45,88,0
112.381,112.500046,43,88,0
112.500046,112.619095,45,88,0
112.61612,112.73516,43,88,0
112.738144,112.857185,45,88,0
112.857185,112.976234,53,101,0
112.97326,113.09231,57,101,0
113.09528,113.21433,53,101,0
113.21433,113.33338,48,101,0
113.33041,113.44945,45,101,0
113.45242,113.57147,41,101,0
113.57147,113.69052,45,101,0
113.687546,113.806595,41,101,0
113.80957,113.92862,45,101,0
113.92862,114.04767,41,101,0
114.044685,114.163734,45,101,0
114.16671,114.28576,41,101,0
114.28576,114.40481,53,101,0
114.40183,114.52088,55,101,0
114.52386,114.64291,53,101,0
114.64291,114.76195,50,101,0
114.75897,114.87802,47,101,0
114.881,115.000046,43,101,0
115.000046,115.119095,41,101,0
115.11612,115.23517,43,101,0
115.238144,115.357185,41,101,0
115.357185,115.476234,43,101,0
115.47326,115.59231,41,101,0
115.59528,115.71433,43,101,0
115.71433,115.83338,51,101,0
115.83041,115.94945,55,101,0
115.95243,116.07147,51,101,0
116.07147,116.19052,47,101,0
116.187546,116.306595,43,101,0
116.30957,116.42862,39,101,0
116.42862,116.54767,43,101,0
116.54469,116.663734,39,101,0
116.66671,116.78576,43,101,0
116.78576,116.90481,39,101,0
116.90183,117.02088,43,101,0
117.02386,117.14291,39,101,0
117.14291,117.261955,63,114,0
117.25897,117.37802,65,114,0
117.381,117.500046,63,114,0
117.500046,117.619095,60,114,0
117.61612,117.73517,57,114,0
117.738144,117.85719,53,114,0
117.85719,117.976234,61,114,0
117.97326,118.09231,65,114,0
118.09528,118.21433,61,114,0
118.21433,118.33338,56,114,0
118.33041,118.449455,53,114,0
118.45243,118.57148,49,114,0
118.57148,118.69052,62,114,0
118.687546,118.806595,64,114,0
118.80957,118.92862,62,114,0
118.92862,119.04767,59,114,0
119.04469,119.163734,56,114,0
119.16672,119.28576,52,114,0
119.28576,119.40481,60,114,0
119.40183,119.52088,64,114,0
119.52386,119.64291,60,114,0
119.64291,119.761955,55,114,0
119.75898,119.87802,52,114,0
119.881,120.000046,48,114,0
120.000046,120.119095,53,101,0
120.11612,120.23517,57,101,0
120.238144,120.35719,53,101,0
120.35719,120.47624,48,101,0
120.47326,120.59231,45,101,0
120.59528,120.71433,41,101,0
120.71433,120.83338,45,75,0
120.83041,120.949455,41,75,0
120.95243,121.07148,45,75,0
121.07148,121.19052,41,75,0
121.187546,121.306595,45,75,0
121.30957,121.42862,41,75,0
121.42862,121.54767,57,62,0
121.54469,121.66374,53,62,0
121.66672,121.78577,57,62,0
121.78577,121.90481,53,62,0
121.90183,122.02088,57,62,0
122.02386,122.14291,53,62,0
122.14291,122.261955,57,62,0
122.25898,122.37803,53,62,0
122.381004,122.500046,57,62,0
122.500046,122.619095,53,62,0
122.61612,122.73517,57,62,0
122.738144,122.85719,53,62,0
122.85719,123.03577,40,49,0
123.92862,124.10719,59,49,0
123.92862,124.10719,52,49,0
124.28577,124.46433,57,49,0
124.28577,124.46433,49,49,0
124.28577,124.46433,45,49,0
125.35719,125.53577,59,49,0
125.35719,125.53577,52,49,0
125.71433,125.89291,57,49,0
125.71433,125.89291,49,49,0
125.71433,125.89291,45,49,0
126.78577,126.96434,59,49,0
126.78577,126.96434,52,49,0
127.14291,127.32148,57,49,0
127.14291,127.32148,49,49,0
127.14291,127.32148,45,49,0
128.21434,128.39291,40,49,0
128.57149,129.28577,33,49,0
129.28577,129.30362,45,49,0
129.46434,129.4822,45,49,0
129.64291,129.66077,45,49,0
129.82149,129.83934,45,49,0
130.00005,130.3572,45,49,0
130.3572,130.53577,55,49,0
130.71434,130.7322,45,49,0
130.89291,130.91077,45,49,0
131.07149,131.08934,45,49,0
131.25005,131.26791,45,49,0
131.42862,131.78577,45,62,0
131.78577,131.96434,55,62,0
132.14291,132.50005,57,62,0
132.50005,132.67862,67,62,0
132.8572,133.21434,57,75,0
133.21434,133.39291,67,75,0
133.57149,133.92862,57,75,0
133.92862,134.1072,67,75,0
134.28577,135.00006,50,75,0
134.28577,135.00006,38,75,0
135.00006,135.01791,50,75,0
135.00006,135.01791,42,75,0
135.17862,135.19649,50,75,0
135.17862,135.19649,42,75,0
135.3572,135.37506,50,75,0
135.3572,135.37506,42,75,0
135.53577,135.55362,50,75,0
135.53577,135.55362,42,75,0
135.71434,136.07149,42,75,0
136.07149,136.25006,52,75,0
136.07149,136.25006,43,75,0
135.71434,136.25006,50,75,0
136.42862,136.44649,54,75,0
136.42862,136.44649,50,75,0
136.42862,136.44649,45,75,0
136.6072,136.62506,54,75,0
136.6072,136.62506,50,75,0
136.6072,136.62506,45,75,0
136.78577,136.80362,54,75,0
136.78577,136.80362,50,75,0
136.78577,136.80362,45,75,0
136.96434,136.9822,54,75,0
136.96434,136.9822,50,75,0
136.96434,136.9822,45,75,0
137.14291,137.50006,54,75,0
137.14291,137.50006,45,75,0
137.50006,137.67862,55,75,0
137.50006,137.67862,47,75,0
137.14291,137.67862,50,75,0
137.67862,137.8572,52,75,0
137.8572,137.97624,55,75,0
137.97327,138.09232,54,75,0
138.09529,138.21434,52,75,0
138.21434,138.33339,58,75,0
138.33041,138.44946,57,75,0
138.45244,138.57149,55,75,0
138.57149,138.75006,57,75,0
138.92862,139.04767,62,36,0
139.0447,139.16374,64,36,0
139.16672,139.28577,66,36,0
139.28577,139.40482,57,36,0
139.40184,139.52089,61,36,0
139.52386,139.64291,62,36,0
139.64291,139.76196,64,36,0
139.75899,139.87804,66,36,0
139.88101,140.00006,67,36,0
140.00006,140.71434,50,75,0
140.00006,140.71434,38,75,0
140.71434,140.7322,50,75,0
140.71434,140.7322,41,75,0
140.89291,140.91077,50,75,0
140.89291,140.91077,41,75,0
141.07149,141.08934,50,75,0
141.07149,141.08934,41,75,0
141.25006,141.26791,50,75,0
141.25006,141.26791,41,75,0
141.42863,141.78577,41,75,0
141.78577,141.96434,52,75,0
141.78577,141.96434,43,75,0
141.42863,141.96434,50,75,0
142.14291,142.16077,54,75,0
142.14291,142.16077,50,75,0
142.14291,142.16077,45,75,0
142.32149,142.33934,54,75,0
142.32149,142.33934,50,75,0
142.32149,142.33934,45,75,0
142.50006,142.51791,54,75,0
142.50006,142.51791,50,75,0
142.50006,142.51791,45,75,0
142.67863,142.69649,54,75,0
142.67863,142.69649,50,75,0
142.67863,142.69649,45,75,0
142.8572,143.21434,54,75,0
142.8572,143.21434,45,75,0
143.21434,143.39291,55,75,0
143.21434,143.39291,46,75,0
142.8572,143.39291,50,75,0
143.57149,143.58934,56,75,0
143.57149,143.58934,53,75,0
143.57149,143.58934,47,75,0
143.75006,143.76791,56,75,0
143.75006,143.76791,53,75,0
143.75006,143.76791,47,75,0
143.92863,143.94649,56,75,0
143.92863,143.94649,53,75,0
143.92863,143.94649,47,75,0
144.1072,144.12506,56,75,0
144.1072,144.12506,53,75,0
144.1072,144.12506,47,75,0
144.28577,145.00006,57,75,0
144.28577,145.00006,53,75,0
144.28577,145.00006,48,75,0
145.00006,145.01791,48,62,0
145.17863,145.19649,48,62,0
145.35721,145.37506,48,62,0
145.53577,145.55363,48,62,0
145.71434,146.07149,48,88,0
146.07149,146.25006,45,62,0
146.42863,146.44649,48,49,0
146.60721,146.62506,48,49,0
146.78577,146.80363,48,49,0
146.96434,146.98221,48,49,0
147.14291,147.50006,48,75,0
147.50006,147.67863,45,49,0
147.85721,147.97624,53,49,0
147.97327,148.09232,55,49,0
148.09529,148.21434,57,49,0
148.21434,148.33339,45,49,0
148.33041,148.44946,46,49,0
148.45244,148.57149,48,49,0
148.57149,148.69054,41,62,0
148.68756,148.80661,43,62,0
148.80959,148.92863,45,62,0
148.92863,149.04768,33,75,0
149.04471,149.16376,34,75,0
149.16673,149.28577,36,75,0
149.28577,149.40482,33,88,0
149.40184,149.52089,34,88,0
149.52386,149.64291,36,88,0
149.64291,149.76196,33,101,0
149.75899,149.87804,34,101,0
149.88101,150.00006,36,101,0
150.00006,150.01791,37,101,0
150.17863,150.19649,37,101,0
150.35721,150.37506,37,101,0
150.53578,150.55363,37,101,0
150.71434,151.42863,37,49,0
151.42863,151.44649,49,49,0
151.42863,151.44649,37,49,0
151.60721,151.62506,49,49,0
151.60721,151.62506,37,49,0
151.78578,151.80363,49,49,0
151.78578,151.80363,37,49,0
151.96434,151.98221,49,49,0
151.96434,151.98221,37,49,0
152.14291,152.85721,49,49,0
152.14291,152.85721,37,49,0
152.85721,152.87506,45,62,0
152.85721,152.87506,33,62,0
153.03578,153.05363,45,62,0
153.03578,153.05363,33,62,0
153.21434,153.23221,45,62,0
153.21434,153.23221,33,62,0
153.39291,153.41078,45,62,0
153.39291,153.41078,33,62,0
153.57149,154.28578,45,62,0
153.57149,154.28578,33,62,0
154.28578,154.30363,45,88,0
154.28578,154.30363,33,88,0
154.46434,154.48221,45,88,0
154.46434,154.48221,33,88,0
154.64291,154.66078,45,88,0
154.64291,154.66078,33,88,0
154.82149,154.83934,45,88,0
154.82149,154.83934,33,88,0
155.00006,155.71436,45,88,0
155.00006,155.71436,33,88,0
155.71436,156.42863,50,88,0
155.71436,156.42863,38,88,0
155.71436,156.42863,42,88,0
155.71436,156.42863,45,88,0
156.42863,156.44649,50,88,0
156.42863,156.44649,42,88,0
156.60721,156.62506,50,88,0
156.60721,156.62506,42,88,0
156.78578,156.80363,50,88,0
156.78578,156.80363,42,88,0
156.96436,156.98221,50,88,0
156.96436,156.98221,42,88,0
157.14291,157.50006,42,88,0
157.50006,157.67863,52,62,0
157.50006,157.67863,43,62,0
157.14291,157.67863,50,88,0
157.85721,157.97626,45,62,0
157.97328,158.09233,47,62,0
158.0953,158.21436,48,62,0
158.21436,158.33339,50,62,0
158.33041,158.44946,52,62,0
158.45244,158.57149,54,62,0
158.57149,158.75006,46,88,0
158.75006,158.92863,54,62,0
158.92863,159.10721,47,88,0
159.10721,159.28578,55,62,0
159.28578,159.30363,57,62,0
159.28578,159.30363,55,62,0
159.28578,159.30363,49,62,0
159.46436,159.48221,57,62,0
159.46436,159.48221,55,62,0
159.46436,159.48221,49,62,0
159.64291,159.66078,57,62,0
159.64291,159.66078,55,62,0
159.64291,159.66078,49,62,0
159.82149,159.83936,57,62,0
159.82149,159.83936,55,62,0
159.82149,159.83936,49,62,0
160.00006,160.35721,57,62,0
160.00006,160.35721,49,62,0
160.35721,160.53578,59,62,0
160.35721,160.53578,50,62,0
160.00006,160.53578,55,62,0
160.71436,160.8334,50,62,0
160.83043,160.94946,52,62,0
160.95244,161.07149,54,62,0
161.07149,161.19054,55,62,0
161.18756,161.30661,57,62,0
161.30959,161.42863,59,62,0
161.42863,161.60721,51,88,0
161.60721,161.78578,59,62,0
161.78578,161.96436,52,62,0
161.96436,162.14293,60,62,0
162.14293,162.16078,61,62,0
162.14293,162.16078,58,62,0
162.14293,162.16078,52,62,0
162.32149,162.33936,61,62,0
162.32149,162.33936,58,62,0
162.32149,162.33936,52,62,0
162.50006,162.51793,61,62,0
162.50006,162.51793,58,62,0
162.50006,162.51793,52,62,0
162.67863,162.69649,61,62,0
162.67863,162.69649,58,62,0
162.67863,162.69649,52,62,0
162.85721,163.21436,61,62,0
162.85721,163.21436,52,62,0
163.21436,163.39293,62,62,0
163.21436,163.39293,53,62,0
162.85721,163.39293,58,62,0
163.57149,163.69054,53,62,0
163.68756,163.80661,55,62,0
163.80959,163.92863,57,62,0
163.92863,164.04768,58,62,0
164.04471,164.16376,60,62,0
164.16673,164.28578,62,62,0
164.28578,164.46436,51,62,0
164.46436,164.64293,58,62,0
164.64293,164.82149,58,62,0
164.82149,165.00006,62,62,0
165.00006,165.01793,46,62,0
165.00006,165.01793,34,62,0
165.17863,165.19649,46,62,0
165.17863,165.19649,34,62,0
165.35721,165.37506,46,62,0
165.35721,165.37506,34,62,0
165.53578,165.55363,46,62,0
165.53578,165.55363,34,62,0
165.71436,166.25006,46,62,0
165.71436,166.25006,34,62,0
166.42863,166.54768,53,62,0
166.54471,166.66376,55,62,0
166.66673,166.78578,57,62,0
166.78578,166.90483,58,62,0
166.90186,167.0209,60,62,0
167.02388,167.14293,62,62,0
167.14293,167.3215,51,62,0
167.3215,167.50006,58,62,0
167.50006,167.67863,58,62,0
167.67863,167.85721,62,62,0
167.85721,167.87506,46,62,0
167.85721,167.87506,34,62,0
168.03578,168.05363,46,62,0
168.03578,168.05363,34,62,0
168.21436,168.23221,46,62,0
168.21436,168.23221,34,62,0
168.39293,168.41078,46,62,0
168.39293,168.41078,34,62,0
168.5715,169.10721,46,62,0
168.5715,169.10721,34,62,0
169.28578,169.40483,53,62,0
169.40186,169.5209,55,62,0
169.52388,169.64293,57,62,0
169.64293,169.76198,58,62,0
169.759,169.87805,60,62,0
169.88103,170.00006,62,62,0
170.00006,170.11911,63,62,0
170.11613,170.23518,65,62,0
170.23816,170.35721,67,62,0
170.35721,170.47626,65,62,0
170.47328,170.59233,63,62,0
170.5953,170.71436,62,62,0
170.71436,170.8334,61,62,0
170.83043,170.94948,58,62,0
170.95245,171.0715,55,62,0
171.0715,171.19055,52,62,0
171.18756,171.30661,49,62,0
171.30959,171.42863,52,62,0
171.42863,171.54768,53,62,0
171.54471,171.66376,50,62,0
171.66673,171.78578,53,62,0
171.78578,171.90483,50,62,0
171.90186,172.0209,46,62,0
172.02388,172.14293,50,62,0
172.14293,172.26198,53,62,0
172.259,172.37805,55,62,0
172.38103,172.50008,57,62,0
172.50008,172.61911,58,62,0
172.61613,172.73518,60,62,0
172.73816,172.85721,62,62,0
172.85721,172.97626,63,62,0
172.97328,173.09233,65,62,0
173.0953,173.21436,67,62,0
173.21436,173.3334,65,62,0
173.33043,173.44948,63,62,0
173.45245,173.5715,62,62,0
173.5715,173.69055,61,62,0
173.68758,173.80661,58,62,0
173.8096,173.92863,55,62,0
173.92863,174.04768,52,62,0
174.04471,174.16376,49,62,0
174.16673,174.28578,52,62,0
174.28578,174.40483,43,88,0
174.40186,174.5209,40,62,0
174.52388,174.64293,43,62,0
174.64293,174.76198,40,62,0
174.759,174.87805,37,62,0
174.88103,175.00008,40,62,0
175.00008,175.11911,44,101,0
175.11613,175.23518,40,75,0
175.23816,175.35721,44,75,0
175.35721,175.47626,40,75,0
175.47328,175.59233,37,75,0
175.5953,175.71436,40,75,0
175.71436,175.8334,45,101,0
175.83043,175.94948,40,75,0
175.95245,176.0715,45,75,0
176.0715,176.19055,40,75,0
176.18758,176.30663,37,75,0
176.3096,176.42863,40,75,0
176.42863,176.54768,45,101,0
176.54471,176.66376,40,75,0
176.66673,176.78578,45,75,0
176.78578,176.90483,40,75,0
176.90186,177.0209,36,75,0
177.02388,177.14293,40,75,0
177.14293,177.26198,35,101,0
177.259,177.37805,41,75,0
177.38103,177.50008,35,75,0
177.50008,177.61913,41,75,0
177.61615,177.73518,47,75,0
177.73816,177.85721,41,75,0
177.85721,177.97626,34,101,0
177.97328,178.09233,41,75,0
178.0953,178.21436,34,75,0
178.21436,178.3334,41,75,0
178.33043,178.44948,46,75,0
178.45245,178.5715,41,75,0
178.5715,179.28578,45,101,0
178.5715,179.28578,33,101,0
179.28578,179.46436,66,36,0
179.28578,179.46436,57,36,0
179.46436,179.64293,66,36,0
179.46436,179.64293,57,36,0
179.64293,179.8215,66,36,0
179.64293,179.8215,57,36,0
179.8215,180.00008,66,36,0
179.8215,180.00008,57,36,0
180.00008,180.35721,69,36,0
180.35721,180.53578,64,36,0
180.00008,180.53578,57,36,0
180.53578,180.71436,37,75,0
180.71436,180.8334,38,75,0
180.83043,180.94948,37,75,0
180.95245,181.0715,35,75,0
181.0715,181.19055,41,75,0
181.18758,181.30663,40,75,0
181.3096,181.42865,38,75,0
181.42865,181.60721,40,75,0
182.38103,182.50008,52,62,0
182.50008,182.61913,50,62,0
182.61615,182.7352,49,62,0
182.73817,182.85722,47,62,0
182.85722,183.5715,45,88,0
182.85722,183.5715,33,88,0
183.5715,183.83936,66,36,0
183.5715,183.83936,57,36,0
183.83936,183.92865,66,36,0
183.83936,183.92865,57,36,0
183.92865,184.1965,66,36,0
183.92865,184.1965,57,36,0
184.1965,184.28578,66,36,0
184.1965,184.28578,57,36,0
184.28578,184.64293,69,36,0
184.64293,184.8215,64,36,0
184.28578,184.8215,57,36,0
184.8215,185.00008,37,75,0
185.00008,185.11913,38,75,0
185.11615,185.2352,37,75,0
185.23817,185.35722,35,75,0
185.35722,185.47626,41,75,0
185.47328,185.59233,40,75,0
185.5953,185.71436,38,75,0
185.71436,185.89293,40,75,0
186.66675,186.78578,52,62,0
186.78578,186.90483,50,62,0
186.90186,187.0209,49,62,0
187.02388,187.14293,47,62,0
187.14293,187.3215,45,62,0
190.00008,190.35722,57,36,0
190.35722,190.5358,49,36,0
190.71436,191.0715,59,36,0
191.0715,191.25008,52,36,0
191.384,191.42865,52,36,0
191.42865,191.7858,61,36,0
191.7858,191.96436,57,36,0
192.0983,192.14293,57,36,0
192.14293,192.4108,66,62,0
192.4108,192.50008,63,36,0
192.50008,192.76793,66,36,0
192.76793,192.85722,63,36,0
192.85722,193.21436,64,62,0
193.21436,193.39293,52,36,0
193.52687,193.5715,52,36,0
193.5715,193.92865,62,36,0
193.92865,194.10722,59,36,0
194.24115,194.2858,59,36,0
194.2858,194.64293,61,36,0
194.64293,194.8215,52,36,0
194.95543,195.00008,52,36,0
195.00008,195.26793,59,36,0
195.26793,195.35722,56,36,0
195.35722,195.62508,59,36,0
195.62508,195.71437,56,36,0
195.71437,196.0715,57,36,0
195.71437,196.0715,49,36,0
196.0715,196.25008,52,36,0
196.42865,196.7858,59,36,0
196.42865,196.7858,56,36,0
196.7858,196.96437,52,36,0
197.14293,197.50008,61,36,0
197.14293,197.50008,52,36,0
197.50008,197.67865,57,36,0
197.85722,198.12508,63,36,0
197.85722,198.12508,60,36,0
198.12508,198.21437,57,36,0
198.21437,198.48222,63,36,0
198.21437,198.48222,60,36,0
198.48222,198.5715,57,36,0
198.5715,198.92865,64,36,0
198.5715,198.92865,61,36,0
198.92865,199.10722,52,36,0
199.2858,199.64294,62,36,0
199.2858,199.64294,59,36,0
199.64294,199.8215,52,36,0
200.00008,200.35722,61,36,0
200.00008,200.35722,57,36,0
200.35722,200.5358,52,36,0
200.71437,200.98222,59,36,0
200.71437,200.98222,56,36,0
200.98222,201.0715,52,36,0
201.0715,201.33937,59,36,0
201.0715,201.33937,56,36,0
201.33937,201.42865,52,36,0
201.42865,201.5477,59,88,0
201.54472,201.66377,50,88,0
201.66675,201.7858,59,88,0
201.7858,202.4108,43,88,0
202.4108,202.50008,59,88,0
202.4108,202.50008,50,88,0
202.50008,202.76794,43,88,0
202.76794,202.85722,50,88,0
202.85722,202.97627,59,88,0
202.9733,203.09235,50,88,0
203.09532,203.21437,59,88,0
203.21437,203.83937,43,88,0
203.83937,203.92865,59,88,0
203.83937,203.92865,50,88,0
203.92865,204.55365,43,88,0
204.55365,204.64294,59,88,0
204.55365,204.64294,50,88,0
204.64294,205.26794,43,114,0
205.26794,205.35722,59,88,0
205.26794,205.35722,50,88,0
205.35722,205.62508,43,114,0
205.62508,205.71437,55,88,0
205.71437,205.83342,48,88,0
205.83044,205.9495,55,88,0
205.95247,206.07152,48,88,0
206.07152,206.69652,36,114,0
206.69652,206.7858,55,88,0
206.69652,206.7858,48,88,0
206.7858,207.05365,36,114,0
207.05365,207.14294,55,88,0
207.14294,207.262,48,88,0
207.25902,207.37805,55,88,0
207.38104,207.50008,48,88,0
207.50008,208.12508,36,114,0
208.12508,208.21437,55,88,0
208.12508,208.21437,48,88,0
208.21437,208.83937,36,114,0
208.83937,208.92865,55,88,0
208.83937,208.92865,48,88,0
208.92865,209.55365,36,114,0
209.55365,209.64294,40,88,0
209.64294,210.26794,35,114,0
210.26794,210.35722,40,36,0
210.35722,210.62509,35,36,0
210.62509,210.71437,40,36,0
210.71437,210.98222,35,36,0
210.98222,211.07152,40,36,0
211.07152,211.33937,35,36,0
211.33937,211.42865,40,36,0
211.42865,211.60722,33,36,0
212.85722,213.0358,64,36,0
213.21437,213.39294,62,36,0
213.21437,213.39294,59,36,0
213.21437,213.39294,52,36,0
213.57152,213.75009,61,36,0
213.57152,213.75009,57,36,0
213.57152,213.75009,52,36,0
213.92865,214.10722,59,36,0
213.92865,214.10722,56,36,0
213.92865,214.10722,52,36,0
214.2858,214.46437,61,36,0
214.2858,214.46437,57,36,0
215.71437,215.89294,64,36,0
216.07152,216.25009,62,36,0
216.07152,216.25009,59,36,0
216.07152,216.25009,52,36,0
216.42867,216.60722,61,36,0
216.42867,216.60722,57,36,0
216.42867,216.60722,52,36,0
216.7858,216.96437,59,36,0
216.7858,216.96437,56,36,0
216.7858,216.96437,52,36,0
217.14294,217.50009,57,49,0
217.50009,217.67867,49,49,0
217.85722,218.21437,59,49,0
218.21437,218.39294,52,49,0
218.57152,218.92867,61,49,0
218.92867,219.10722,57,49,0
219.2858,219.55367,66,49,0
219.55367,219.64294,63,49,0
219.64294,219.9108,66,49,0
219.9108,220.00009,63,49,0
220.00009,220.35722,64,49,0
220.35722,220.5358,52,49,0
220.71437,221.07152,62,49,0
221.07152,221.25009,59,49,0
221.42867,221.7858,61,49,0
221.7858,221.96437,52,49,0
222.14294,222.4108,59,49,0
222.4108,222.50009,56,49,0
222.50009,222.76794,59,49,0
222.76794,222.85724,52,49,0
234.28581,234.40486,55,88,0
234.40189,234.52092,57,88,0
234.52391,234.64294,55,88,0
234.64294,234.762,52,88,0
234.75902,234.87807,49,88,0
234.88104,235.00009,45,88,0
235.00009,235.11914,43,88,0
235.11617,235.23521,45,88,0
235.23819,235.35724,43,88,0
235.35724,235.47629,45,88,0
235.47331,235.59236,43,88,0
235.59534,235.71439,45,88,0
235.71439,235.83344,53,101,0
235.83044,235.9495,57,101,0
235.95247,236.07152,53,101,0
236.07152,236.19057,48,101,0
236.18759,236.30664,45,101,0
236.30962,236.42867,41,101,0
236.42867,236.54771,45,101,0
236.54474,236.66379,41,101,0
236.66676,236.78581,45,101,0
236.78581,236.90486,41,101,0
236.90189,237.02094,45,101,0
237.02391,237.14296,41,101,0
237.14296,237.262,55,101,0
237.25902,237.37807,57,101,0
237.38104,237.50009,55,101,0
237.50009,237.61914,52,101,0
237.61617,237.73521,49,101,0
237.73819,237.85724,45,101,0
237.85724,237.97629,43,101,0
237.97331,238.09236,45,101,0
238.09534,238.21439,43,101,0
238.21439,238.33344,45,101,0
238.33046,238.4495,43,101,0
238.45247,238.57152,45,101,0
238.57152,238.69057,53,88,0
238.68759,238.80664,57,88,0
238.80962,238.92867,53,88,0
238.92867,239.04771,48,88,0
239.04474,239.16379,45,88,0
239.16676,239.28581,41,88,0
239.28581,239.40486,45,88,0
239.40189,239.52094,41,88,0
239.52391,239.64296,45,88,0
239.64296,239.762,41,88,0
239.75902,239.87807,45,88,0
239.88104,240.00009,41,88,0
240.00009,240.17867,40,49,0
241.07152,241.25009,59,49,0
241.07152,241.25009,52,49,0
241.42867,241.60724,57,49,0
241.42867,241.60724,49,49,0
241.42867,241.60724,45,49,0
242.50009,242.67867,59,49,0
242.50009,242.67867,52,49,0
242.85724,243.03581,57,49,0
242.85724,243.03581,49,49,0
242.85724,243.03581,45,49,0
243.92867,244.10724,59,49,0
243.92867,244.10724,52,49,0
244.28581,244.46439,57,49,0
244.28581,244.46439,49,49,0
244.28581,244.46439,45,49,0
245.35724,245.53581,52,49,0
245.71439,245.83344,55,88,0
245.83046,245.94951,57,88,0
245.95248,246.07153,55,88,0
246.07153,246.19058,52,88,0
246.18759,246.30664,49,88,0
246.30962,246.42867,45,88,0
246.42867,246.54771,43,88,0
246.54474,246.66379,45,88,0
246.66676,246.78581,43,88,0
246.78581,246.90486,45,88,0
246.90189,247.02094,43,88,0
247.02391,247.14296,45,88,0
247.14296,247.26201,53,101,0
247.25903,247.37808,57,101,0
247.38106,247.50009,53,101,0
247.50009,247.61914,48,101,0
247.61617,247.73521,45,101,0
247.73819,247.85724,41,101,0
247.85724,247.97629,45,101,0
247.97331,248.09236,41,101,0
248.09534,248.21439,45,101,0
248.21439,248.33344,41,101,0
248.33046,248.44951,45,101,0
248.45248,248.57153,41,101,0
248.57153,248.69058,53,101,0
248.6876,248.80664,55,101,0
248.80962,248.92867,53,101,0
248.92867,249.04771,50,101,0
249.04474,249.16379,47,101,0
249.16676,249.28581,43,101,0
249.28581,249.40486,41,101,0
249.40189,249.52094,43,101,0
249.52391,249.64296,41,101,0
249.64296,249.76201,43,101,0
249.75903,249.87808,41,101,0
249.88106,250.0001,43,101,0
250.0001,250.11914,51,101,0
250.11617,250.23521,55,101,0
250.23819,250.35724,51,101,0
250.35724,250.47629,47,101,0
250.47331,250.59236,43,101,0
250.59534,250.71439,39,101,0
250.71439,250.83344,43,101,0
250.83046,250.94951,39,101,0
250.95248,251.07153,43,101,0
251.07153,251.19058,39,101,0
251.1876,251.30664,43,101,0
251.30963,251.42867,39,101,0
251.42867,251.54771,63,114,0
251.54474,251.66379,65,114,0
251.66676,251.78581,63,114,0
251.78581,251.90486,60,114,0
251.90189,252.02094,57,114,0
252.02391,252.14296,53,114,0
252.14296,252.26201,61,114,0
252.25903,252.37808,65,114,0
252.38106,252.5001,61,114,0
252.5001,252.61916,56,114,0
252.61617,252.73521,53,114,0
252.73819,252.85724,49,114,0
252.85724,252.97629,62,114,0
252.97331,253.09236,64,114,0
253.09534,253.21439,62,114,0
253.21439,253.33344,59,114,0
253.33046,253.44951,56,114,0
253.45248,253.57153,52,114,0
253.57153,253.69058,60,114,0
253.6876,253.80666,64,114,0
253.80963,253.92868,60,114,0
253.92868,254.04771,55,114,0
254.04474,254.16379,52,114,0
254.16676,254.28581,48,114,0
254.28581,254.40486,53,101,0
254.40189,254.52094,57,101,0
254.52391,254.64296,53,101,0
254.64296,254.76201,48,101,0
254.75903,254.87808,45,101,0
254.88106,255.0001,41,101,0
255.0001,255.11916,45,75,0
255.11618,255.23521,41,75,0
255.2382,255.35724,45,75,0
255.35724,255.47629,41,75,0
255.47331,255.59236,45,75,0
255.59534,255.71439,41,75,0
255.71439,255.83344,57,62,0
255.83046,255.94951,53,62,0
255.95248,256.07153,57,62,0
256.07153,256.19058,53,62,0
256.1876,256.30664,57,62,0
256.30963,256.42868,53,62,0
256.42868,256.54773,57,62,0
256.54474,256.6638,53,62,0
256.66678,256.78583,57,62,0
256.78583,256.90488,53,62,0
256.9019,257.02094,57,62,0
257.02393,257.14297,53,62,0
257.14297,257.32153,40,49,0
258.2144,258.39297,59,49,0
258.2144,258.39297,52,49,0
258.57153,258.7501,57,49,0
258.57153,258.7501,49,49,0
258.57153,258.7501,45,49,0
259.64297,259.82153,59,49,0
259.64297,259.82153,52,49,0
260.0001,260.17868,57,49,0
260.0001,260.17868,49,49,0
260.0001,260.17868,45,49,0
261.07153,261.2501,59,49,0
261.07153,261.2501,52,49,0
261.42868,261.60724,57,49,0
261.42868,261.60724,49,49,0
261.42868,261.60724,45,49,0
262.5001,262.67868,40,49,0
262.85724,263.57153,33,49,0
263.57153,263.5894,45,49,0
263.7501,263.76797,45,49,0
263.92868,263.94653,45,49,0
264.10724,264.1251,45,49,0
264.28583,264.64297,45,49,0
264.64297,264.82153,55,49,0
265.0001,265.01797,45,49,0
265.17868,265.19653,45,49,0
265.35724,265.3751,45,49,0
265.53583,265.55368,45,49,0
265.7144,266.07153,45,62,0
266.07153,266.2501,55,62,0
266.42868,266.78583,57,62,0
266.78583,266.9644,67,62,0
267.14297,267.50012,57,75,0
267.50012,267.67868,67,75,0
267.85724,268.2144,57,75,0
268.2144,268.39297,67,75,0
268.57153,269.28583,46,101,0
268.57153,269.28583,34,101,0
269.28583,269.30368,58,101,0
269.28583,269.30368,50,101,0
269.4644,269.48224,58,101,0
269.4644,269.48224,50,101,0
269.64297,269.66083,58,101,0
269.64297,269.66083,50,101,0
269.82153,269.8394,58,101,0
269.82153,269.8394,50,101,0
270.00012,270.35724,58,101,0
270.00012,270.35724,50,101,0
270.35724,270.53583,60,101,0
270.35724,270.53583,53,101,0
270.7144,271.07153,60,101,0
270.7144,271.07153,53,101,0
271.07153,271.25012,62,101,0
271.07153,271.25012,58,101,0
271.42868,271.78583,62,101,0
271.42868,271.78583,58,101,0
271.78583,271.9644,60,101,0
271.78583,271.9644,53,101,0
272.14297,272.16083,60,101,0
272.14297,272.16083,53,101,0
272.32153,272.3394,60,101,0
272.32153,272.3394,53,101,0
272.50012,272.51797,60,101,0
272.50012,272.51797,53,101,0
272.67868,272.69653,60,101,0
272.67868,272.69653,53,101,0
272.85724,273.2144,60,101,0
272.85724,273.2144,53,101,0
273.2144,273.39297,65,101,0
273.2144,273.39297,62,101,0
273.57153,273.92868,65,101,0
273.57153,273.92868,62,101,0
273.92868,274.10724,63,101,0
273.92868,274.10724,57,101,0
274.28583,274.64297,63,101,0
274.28583,274.64297,57,101,0
274.64297,274.82153,62,101,0
274.64297,274.82153,58,101,0
275.00012,275.01797,43,101,0
275.00012,275.01797,31,101,0
275.17868,275.19653,43,101,0
275.17868,275.19653,31,101,0
275.35724,275.37512,43,101,0
275.35724,275.37512,31,101,0
275.53583,275.55368,43,101,0
275.53583,275.55368,31,101,0
275.7144,276.07153,43,101,0
275.7144,276.07153,31,101,0
276.07153,276.25012,46,101,0
276.07153,276.25012,34,101,0
276.42868,276.4644,46,101,0
276.42868,276.4644,34,101,0
276.78583,276.82153,50,101,0
276.78583,276.82153,38,101,0
277.14297,277.85724,53,101,0
277.14297,277.85724,41,101,0
277.85724,277.87512,49,101,0
277.85724,277.87512,37,101,0
278.03583,278.05368,49,101,0
278.03583,278.05368,37,101,0
278.2144,278.23227,49,101,0
278.2144,278.23227,37,101,0
278.39297,278.41083,49,101,0
278.39297,278.41083,37,101,0
278.57153,279.28583,53,101,0
278.57153,279.28583,50,101,0
278.57153,279.28583,41,101,0
279.28583,279.32153,62,101,0
279.28583,279.32153,58,101,0
279.28583,279.32153,50,101,0
279.64297,279.67868,60,101,0
279.64297,279.67868,57,101,0
279.64297,279.67868,53,101,0
280.00012,280.7144,46,114,0
280.00012,280.7144,34,114,0
280.7144,280.73227,58,114,0
280.7144,280.73227,50,114,0
280.89297,280.91083,58,114,0
280.89297,280.91083,50,114,0
281.07153,281.0894,58,114,0
281.07153,281.0894,50,114,0
281.25012,281.26797,58,114,0
281.25012,281.26797,50,114,0
281.42868,281.78583,58,114,0
281.42868,281.78583,50,114,0
281.78583,281.9644,60,114,0
281.78583,281.9644,53,114,0
282.14297,282.50012,60,114,0
282.14297,282.50012,53,114,0
282.50012,282.67868,62,114,0
282.50012,282.67868,58,114,0
282.85727,283.2144,62,114,0
282.85727,283.2144,58,114,0
283.2144,283.39297,60,114,0
283.2144,283.39297,53,114,0
283.57153,283.5894,60,114,0
283.57153,283.5894,53,114,0
283.75012,283.76797,60,114,0
283.75012,283.76797,53,114,0
283.92868,283.94653,60,114,0
283.92868,283.94653,53,114,0
284.10727,284.12512,60,114,0
284.10727,284.12512,53,114,0
284.28583,284.64297,60,114,0
284.28583,284.64297,53,114,0
284.64297,284.82153,65,114,0
284.64297,284.82153,62,114,0
285.00012,285.35727,65,114,0
285.00012,285.35727,62,114,0
285.35727,285.53583,63,114,0
285.35727,285.53583,57,114,0
285.7144,286.07153,63,114,0
285.7144,286.07153,57,114,0
286.07153,286.25012,62,114,0
286.07153,286.25012,58,114,0
286.42868,286.54773,31,114,0
286.54477,286.66382,34,114,0
286.66678,286.78583,36,114,0
286.78583,286.90488,38,114,0
286.9019,287.02094,40,114,0
287.02393,287.14297,42,114,0
287.14297,287.50012,43,114,0
287.50012,287.67868,46,114,0
287.85727,287.97632,46,114,0
287.97333,288.09238,45,114,0
288.09537,288.2144,46,114,0
288.2144,288.33344,50,114,0
288.33047,288.44952,48,114,0
288.45248,288.57153,46,114,0
288.57153,289.28583,53,114,0
289.28583,289.30368,56,114,0
289.28583,289.30368,44,114,0
289.46442,289.48227,56,114,0
289.46442,289.48227,44,114,0
289.64297,289.66083,56,114,0
289.64297,289.66083,44,114,0
289.82153,289.83942,56,114,0
289.82153,289.83942,44,114,0
290.00012,290.71442,60,114,0
290.00012,290.71442,57,114,0
290.00012,290.71442,48,114,0
290.71442,290.75012,69,114,0
290.71442,290.75012,65,114,0
290.71442,290.75012,57,114,0
291.07153,291.10727,67,114,0
291.07153,291.10727,64,114,0
291.07153,291.10727,60,114,0
291.42868,291.54773,41,114,0
291.54477,291.66382,43,114,0
291.66678,291.78583,45,114,0
291.78583,291.90488,46,114,0
291.90192,292.02094,48,114,0
292.02393,292.14297,50,114,0
292.14297,292.32153,52,114,0
292.50012,292.51797,60,114,0
292.50012,292.51797,52,114,0
292.67868,292.69653,60,114,0
292.67868,292.69653,52,114,0
292.85727,293.21442,60,114,0
292.85727,293.21442,53,114,0
293.21442,293.39297,57,114,0
293.57153,293.60727,48,114,0
293.57153,293.60727,43,114,0
293.92868,293.96442,48,114,0
293.92868,293.96442,40,114,0
294.28583,294.40488,41,114,0
294.40192,294.52097,43,114,0
294.52393,294.64297,45,114,0
294.64297,294.76202,46,114,0
294.75903,294.87808,48,114,0
294.88107,295.00012,50,114,0
295.00012,295.17868,52,114,0
295.35727,295.37512,60,114,0
295.35727,295.37512,52,114,0
295.53583,295.55368,60,114,0
295.53583,295.55368,52,114,0
295.71442,296.07153,60,114,0
295.71442,296.07153,53,114,0
296.07153,296.25012,57,114,0
296.42868,296.46442,48,114,0
296.42868,296.46442,43,114,0
296.78583,296.82153,48,114,0
296.78583,296.82153,40,114,0
297.14297,297.50012,48,114,0
297.14297,297.50012,41,114,0
297.50012,297.67868,45,114,0
297.85727,297.97632,46,114,0
297.97333,298.09238,45,114,0
298.09537,298.21442,43,114,0
298.21442,298.33347,49,114,0
298.33047,298.44952,48,114,0
298.4525,298.57153,46,114,0
298.57153,298.69058,49,114,0
298.68762,298.80667,48,114,0
298.80963,298.92868,46,114,0
298.92868,299.04773,49,114,0
299.04477,299.16382,48,114,0
299.16678,299.28583,46,114,0
299.28583,299.40488,49,114,0
299.40192,299.52097,48,114,0
299.52393,299.64297,46,114,0
299.64297,299.76202,49,114,0
299.75906,299.87808,48,114,0
299.88107,300.00012,47,114,0
300.00012,300.71442,56,114,0
300.00012,300.71442,51,114,0
300.00012,300.71442,48,114,0
300.71442,301.42868,61,114,0
300.71442,301.42868,51,114,0
300.71442,301.42868,55,114,0
300.71442,301.42868,58,114,0
301.42868,301.54773,44,36,0
301.54477,301.66382,46,36,0
301.66678,301.78583,48,36,0
301.78583,301.90488,49,36,0
301.90192,302.02097,51,36,0
302.02393,302.14297,53,36,0
302.14297,302.32156,55,36,0
302.50012,302.51797,63,36,0
302.50012,302.51797,55,36,0
302.67868,302.69656,63,36,0
302.67868,302.69656,55,36,0
302.85727,303.21442,63,36,0
302.85727,303.21442,56,36,0
303.21442,303.39297,60,36,0
303.57156,303.60727,51,36,0
303.57156,303.60727,46,36,0
303.92868,303.96442,51,36,0
303.92868,303.96442,43,36,0
304.28583,304.40488,44,36,0
304.40192,304.52097,46,36,0
304.52393,304.64297,48,36,0
304.64297,304.76202,49,36,0
304.75906,304.8781,51,36,0
304.88107,305.00012,53,36,0
305.00012,305.17868,55,36,0
305.35727,305.37512,63,36,0
305.35727,305.37512,55,36,0
305.53583,305.55368,63,36,0
305.53583,305.55368,55,36,0
305.71442,306.07156,63,36,0
305.71442,306.07156,56,36,0
306.07156,306.25012,60,36,0
306.42868,306.46442,51,36,0
306.42868,306.46442,46,36,0
306.78583,306.82156,51,36,0
306.78583,306.82156,43,36,0
307.14297,307.85727,51,36,0
307.85727,307.97632,49,36,0
307.97333,308.09238,48,36,0
308.09537,308.21442,46,36,0
308.21442,308.33347,52,36,0
308.33047,308.44952,51,36,0
308.4525,308.57156,49,36,0
308.57156,308.6906,52,36,0
308.68762,308.80667,51,36,0
308.80966,308.92868,49,36,0
308.92868,309.04773,52,36,0
309.04477,309.16382,51,36,0
309.16678,309.28583,49,36,0
309.28583,309.40488,52,36,0
309.40192,309.52097,51,36,0
309.52393,309.64297,49,36,0
309.64297,309.76202,52,36,0
309.75906,309.8781,51,36,0
309.88107,310.00012,50,36,0
310.00012,310.71442,59,36,0
310.00012,310.71442,54,36,0
310.00012,310.71442,51,36,0
310.71442,311.4287,64,62,0
310.71442,311.4287,61,62,0
310.71442,311.4287,54,62,0
311.4287,311.54773,35,101,0
311.54477,311.66382,34,101,0
311.66678,311.78583,35,101,0
311.78583,311.90488,42,101,0
311.90192,312.02097,40,101,0
312.02393,312.14297,38,101,0
312.14297,312.26202,40,101,0
312.25906,312.3781,38,101,0
312.38107,312.50012,37,101,0
312.50012,312.61917,42,101,0
312.6162,312.73523,40,101,0
312.73822,312.85727,38,101,0
312.85727,312.97632,47,101,0
312.97333,313.09238,46,101,0
313.09537,313.21442,47,101,0
313.21442,313.33347,50,101,0
313.33047,313.44952,49,101,0
313.4525,313.57156,47,101,0
313.57156,313.6906,52,101,0
313.68762,313.80667,50,101,0
313.80966,313.9287,49,101,0
313.9287,314.04773,55,101,0
314.04477,314.16382,54,101,0
314.16678,314.28583,52,101,0
314.28583,314.40488,59,101,0
314.40192,314.52097,58,101,0
314.52393,314.64297,59,101,0
314.64297,314.76202,61,101,0
314.75906,314.8781,62,101,0
314.88107,315.00012,64,101,0
315.00012,315.01797,66,101,0
315.00012,315.01797,62,101,0
315.00012,315.01797,54,101,0
315.1787,315.19656,66,101,0
315.1787,315.19656,62,101,0
315.1787,315.19656,54,101,0
315.35727,315.37512,66,101,0
315.35727,315.37512,62,101,0
315.35727,315.37512,54,101,0
315.53583,315.5537,66,101,0
315.53583,315.5537,62,101,0
315.53583,315.5537,54,101,0
315.71442,316.07156,66,101,0
315.71442,316.07156,62,101,0
316.07156,316.25012,62,101,0
316.07156,316.25012,59,101,0
315.71442,316.25012,54,101,0
316.4287,316.46442,61,101,0
316.4287,316.46442,59,101,0
316.4287,316.46442,54,101,0
316.78583,316.82156,66,101,0
316.78583,316.82156,58,101,0
316.78583,316.82156,54,101,0
317.14297,317.26202,35,101,0
317.25906,317.3781,34,101,0
317.38107,317.50012,35,101,0
317.50012,317.61917,38,127,0
317.6162,317.73526,37,101,0
317.73822,317.85727,35,101,0
317.85727,317.97632,40,127,0
317.97333,318.09238,38,101,0
318.09537,318.21442,37,101,0
318.21442,318.33347,43,127,0
318.33047,318.44952,42,101,0
318.4525,318.57156,40,101,0
318.57156,318.6906,38,127,0
318.68762,318.80667,37,101,0
318.80966,318.9287,38,101,0
318.9287,319.04776,42,127,0
319.04477,319.16382,40,101,0
319.1668,319.28583,38,101,0
319.28583,319.40488,43,127,0
319.40192,319.52097,42,101,0
319.52393,319.64297,40,101,0
319.64297,319.76202,46,127,0
319.75906,319.8781,45,101,0
319.88107,320.00012,43,101,0
320.00012,320.11917,45,127,0
320.1162,320.23526,44,101,0
320.23822,320.35727,45,101,0
320.35727,320.47632,42,127,0
320.47333,320.59238,41,101,0
320.59537,320.71442,42,101,0
320.71442,320.83347,39,127,0
320.83047,320.94952,38,101,0
320.9525,321.07156,39,101,0
321.07156,321.1906,36,127,0
321.18762,321.30667,35,101,0
321.30966,321.4287,36,101,0
321.4287,321.78586,33,101,0
321.78586,321.90488,32,101,0
321.90192,322.02097,31,101,0
322.02393,322.14297,32,101,0
322.14297,322.26202,32,101,0
322.25906,322.3781,31,101,0
322.38107,322.50012,32,101,0
322.50012,322.61917,32,101,0
322.6162,322.73526,31,101,0
322.73822,322.85727,32,101,0
322.85727,322.97632,37,101,0
322.97336,323.09238,36,101,0
323.09537,323.21442,37,101,0
323.21442,323.33347,40,101,0
323.33047,323.44952,39,101,0
323.4525,323.57156,37,101,0
323.57156,323.6906,42,101,0
323.68762,323.80667,40,101,0
323.80966,323.9287,39,101,0
323.9287,324.04776,44,101,0
324.04477,324.16382,42,101,0
324.1668,324.28586,40,101,0
324.28586,324.40488,49,101,0
324.40192,324.52097,48,101,0
324.52393,324.64297,49,101,0
324.64297,324.76202,52,101,0
324.75906,324.8781,51,101,0
324.88107,325.00012,49,101,0
325.00012,325.11917,54,101,0
325.1162,325.23526,52,101,0
325.23822,325.35727,51,101,0
325.35727,325.47632,57,101,0
325.47336,325.5924,56,101,0
325.59537,325.71442,54,101,0
325.71442,325.83347,61,101,0
325.83047,325.94952,60,101,0
325.9525,326.07156,61,101,0
326.07156,326.1906,63,101,0
326.18762,326.30667,64,101,0
326.30966,326.4287,66,101,0
326.4287,326.44656,68,101,0
326.4287,326.44656,64,101,0
326.4287,326.44656,56,101,0
326.60727,326.62512,68,101,0
326.60727,326.62512,64,101,0
326.60727,326.62512,56,101,0
326.78586,326.8037,68,101,0
326.78586,326.8037,64,101,0
326.78586,326.8037,56,101,0
326.96442,326.98227,68,101,0
326.96442,326.98227,64,101,0
326.96442,326.98227,56,101,0
327.14297,327.50012,68,101,0
327.14297,327.50012,64,101,0
327.50012,327.6787,64,101,0
327.50012,327.6787,61,101,0
327.14297,327.6787,56,101,0
327.85727,327.89297,63,101,0
327.85727,327.89297,61,101,0
327.85727,327.89297,56,101,0
328.21442,328.25012,68,101,0
328.21442,328.25012,60,101,0
328.21442,328.25012,56,101,0
328.57156,328.6906,37,101,0
328.68762,328.80667,36,101,0
328.80966,328.9287,37,101,0
328.9287,329.04776,40,101,0
329.04477,329.16382,39,101,0
329.1668,329.28586,37,101,0
329.28586,329.4049,42,101,0
329.40192,329.52097,40,101,0
329.52396,329.64297,39,101,0
329.64297,329.76202,45,101,0
329.75906,329.8781,44,101,0
329.88107,330.00012,42,101,0
330.00012,330.11917,40,101,0
330.1162,330.23526,39,101,0
330.23822,330.35727,40,101,0
330.35727,330.47632,44,101,0
330.47336,330.5924,42,101,0
330.59537,330.71442,40,101,0
330.71442,330.83347,45,101,0
330.83047,330.94952,43,101,0
330.9525,331.07156,42,101,0
331.07156,331.1906,48,101,0
331.18762,331.30667,47,101,0
331.30966,331.4287,45,101,0
331.4287,331.54776,47,101,0
331.54477,331.66382,46,101,0
331.6668,331.78586,47,101,0
331.78586,331.9049,44,101,0
331.90192,332.02097,43,101,0
332.02396,332.14297,44,101,0
332.14297,332.26202,42,101,0
332.25906,332.3781,40,101,0
332.38107,332.50012,42,101,0
332.50012,332.61917,38,101,0
332.6162,332.73526,37,101,0
332.73822,332.85727,38,101,0
332.85727,333.21442,35,101,0
333.21442,333.33347,34,101,0
333.3305,333.44952,33,101,0
333.4525,333.57156,34,101,0
333.57156,333.6906,34,101,0
333.68762,333.80667,33,101,0
333.80966,333.9287,34,101,0
333.9287,334.04776,34,101,0
334.04477,334.16382,33,101,0
334.1668,334.28586,34,101,0
334.28586,334.643,39,101,0
334.643,334.76202,45,75,0
334.75906,334.8781,47,75,0
334.88107,335.00012,45,75,0
335.00012,335.11917,43,62,0
335.1162,335.23526,45,62,0
335.23822,335.35727,43,62,0
335.35727,335.47632,42,49,0
335.47336,335.5924,43,49,0
335.59537,335.71442,42,49,0
335.71442,336.07156,40,36,0
336.07156,336.1906,36,101,0
336.18762,336.30667,35,101,0
336.30966,336.4287,36,101,0
336.4287,336.54776,36,88,0
336.54477,336.66382,35,88,0
336.6668,336.78586,36,88,0
336.78586,336.9049,36,75,0
336.90192,337.02097,35,75,0
337.02396,337.143,36,75,0
337.143,337.50012,29,62,0
337.50012,337.61917,47,101,0
337.6162,337.73526,49,101,0
337.73822,337.85727,47,101,0
337.85727,337.97632,45,88,0
337.97336,338.0924,47,88,0
338.09537,338.21442,45,88,0
338.21442,338.33347,44,75,0
338.3305,338.44955,45,75,0
338.4525,338.57156,44,75,0
338.57156,341.4287,50,62,0
338.57156,341.4287,45,62,0
338.57156,341.4287,42,62,0
341.4287,344.28586,52,36,0
341.4287,344.28586,43,36,0
341.4287,344.28586,47,36,0
341.4287,344.28586,50,36,0
344.28586,347.143,54,36,0
344.28586,347.143,45,36,0
344.28586,347.143,48,36,0
344.28586,347.143,50,36,0
347.143,349.28586,55,36,0
347.143,349.28586,50,36,0
347.143,349.28586,47,36,0
349.28586,350.00015,56,36,0
349.28586,350.00015,50,36,0
349.28586,350.00015,46,36,0
350.00015,350.35727,57,36,0
350.00015,350.35727,49,36,0
350.00015,350.35727,45,36,0
350.71442,350.73227,64,36,0
350.71442,350.73227,62,36,0
350.893,350.91086,64,36,0
350.893,350.91086,62,36,0
351.07156,351.08942,64,36,0
351.07156,351.08942,59,36,0
351.25015,351.268,64,36,0
351.25015,351.268,59,36,0
351.4287,351.78586,61,36,0
351.78586,351.96442,57,36,0
351.4287,351.96442,64,36,0
352.143,352.16086,40,36,0
352.143,352.16086,35,36,0
352.32156,352.33942,40,36,0
352.32156,352.33942,35,36,0
352.50015,352.518,40,36,0
352.50015,352.518,32,36,0
352.6787,352.69656,40,36,0
352.6787,352.69656,32,36,0
352.85727,353.21442,40,36,0
352.85727,353.21442,33,36,0
353.21442,353.393,45,36,0
353.57156,353.58942,64,36,0
353.57156,353.58942,62,36,0
353.75015,353.768,64,36,0
353.75015,353.768,62,36,0
353.9287,353.94656,64,36,0
353.9287,353.94656,59,36,0
354.10727,354.12515,64,36,0
354.10727,354.12515,59,36,0
354.28586,354.643,61,36,0
354.643,354.82156,57,36,0
354.28586,354.82156,64,36,0
355.00015,355.018,40,36,0
355.00015,355.018,35,36,0
355.1787,355.19656,40,36,0
355.1787,355.19656,35,36,0
355.3573,355.37515,40,36,0
355.3573,355.37515,32,36,0
355.53586,355.5537,40,36,0
355.53586,355.5537,32,36,0
355.71442,356.07156,40,36,0
355.71442,356.07156,33,36,0
356.07156,356.25015,45,36,0
356.4287,356.44656,61,36,0
356.4287,356.44656,57,36,0
356.6073,356.62515,61,36,0
356.6073,356.62515,57,36,0
356.78586,356.8037,61,36,0
356.78586,356.8037,57,36,0
356.96442,356.9823,61,36,0
356.96442,356.9823,57,36,0
357.143,357.50015,61,49,0
357.50015,357.6787,67,49,0
357.143,357.6787,57,49,0
357.8573,357.87515,45,49,0
357.8573,357.87515,40,49,0
358.03586,358.0537,45,49,0
358.03586,358.0537,40,49,0
358.21442,358.2323,45,49,0
358.21442,358.2323,40,49,0
358.393,358.41086,45,49,0
358.393,358.41086,40,49,0
358.57156,358.9287,45,49,0
358.57156,358.9287,40,49,0
358.9287,359.1073,33,49,0
359.28586,359.3037,61,62,0
359.28586,359.3037,57,62,0
359.46442,359.4823,61,62,0
359.46442,359.4823,57,62,0
359.643,359.66086,61,62,0
359.643,359.66086,57,62,0
359.82156,359.83942,61,62,0
359.82156,359.83942,57,62,0
360.00015,360.3573,61,62,0
360.00015,360.3573,57,62,0
360.3573,360.53586,67,62,0
360.71442,360.7323,45,62,0
360.71442,360.7323,40,62,0
360.893,360.91086,45,62,0
360.893,360.91086,40,62,0
361.07156,361.08942,45,62,0
361.07156,361.08942,40,62,0
361.25015,361.268,45,62,0
361.25015,361.268,40,62,0
361.4287,361.78586,45,75,0
361.4287,361.78586,40,75,0
361.78586,361.96442,33,75,0
362.143,362.50015,49,75,0
362.50015,362.6787,45,75,0
362.8573,363.21442,52,75,0
363.21442,363.393,49,75,0
363.57156,363.9287,61,75,0
363.9287,364.1073,57,75,0
364.28586,364.643,64,75,0
364.643,364.82156,57,75,0
365.00015,365.3573,67,75,0
365.3573,365.53586,64,75,0
365.71445,366.4287,50,88,0
365.71445,366.4287,38,88,0
366.4287,366.44656,50,88,0
366.4287,366.44656,42,88,0
366.6073,366.62515,50,88,0
366.6073,366.62515,42,88,0
366.78586,366.8037,50,88,0
366.78586,366.8037,42,88,0
366.96445,366.9823,50,88,0
366.96445,366.9823,42,88,0
367.143,367.50015,42,106,0
367.50015,367.6787,52,88,0
367.50015,367.6787,43,88,0
367.143,367.6787,50,114,0
367.8573,367.87515,54,88,0
367.8573,367.87515,50,88,0
367.8573,367.87515,45,88,0
368.03586,368.0537,54,88,0
368.03586,368.0537,50,88,0
368.03586,368.0537,45,88,0
368.21445,368.2323,54,88,0
368.21445,368.2323,50,88,0
368.21445,368.2323,45,88,0
368.393,368.41086,54,88,0
368.393,368.41086,50,88,0
368.393,368.41086,45,88,0
368.57156,368.9287,54,88,0
368.57156,368.9287,45,88,0
368.9287,369.1073,55,88,0
368.9287,369.1073,47,88,0
368.57156,369.1073,50,88,0
369.1073,369.28586,52,88,0
369.28586,369.4049,55,88,0
369.40195,369.521,54,88,0
369.52396,369.643,52,88,0
369.643,369.76205,58,88,0
369.75906,369.8781,57,88,0
369.8811,370.00015,55,88,0
370.00015,370.1787,57,88,0
370.3573,370.47635,62,36,0
370.47336,370.5924,64,36,0
370.5954,370.71445,66,36,0
370.71445,370.8335,57,36,0
370.8305,370.94955,61,36,0
370.9525,371.07156,62,36,0
371.07156,371.1906,64,36,0
371.18765,371.3067,66,36,0
371.30966,371.4287,67,36,0
371.4287,372.143,50,75,0
371.4287,372.143,38,75,0
372.143,372.16086,50,36,0
372.143,372.16086,42,36,0
372.32156,372.33945,50,36,0
372.32156,372.33945,42,36,0
372.50015,372.518,50,36,0
372.50015,372.518,42,36,0
372.6787,372.69656,50,36,0
372.6787,372.69656,42,36,0
372.8573,373.21445,42,36,0
373.21445,373.393,52,36,0
373.21445,373.393,43,36,0
372.8573,373.393,50,36,0
373.57156,373.6906,45,36,0
373.68765,373.8067,47,36,0
373.80966,373.9287,48,36,0
373.9287,374.04776,50,36,0
374.0448,374.16385,52,36,0
374.1668,374.28586,54,36,0
374.28586,374.46445,46,62,0
374.46445,374.643,54,36,0
374.643,374.82156,47,62,0
374.82156,375.00015,55,36,0
375.00015,375.018,57,36,0
375.00015,375.018,55,36,0
375.00015,375.018,49,36,0
375.1787,375.19656,57,36,0
375.1787,375.19656,55,36,0
375.1787,375.19656,49,36,0
375.3573,375.37515,57,36,0
375.3573,375.37515,55,36,0
375.3573,375.37515,49,36,0
375.53586,375.5537,57,36,0
375.53586,375.5537,55,36,0
375.53586,375.5537,49,36,0
375.71445,376.0716,57,36,0
375.71445,376.0716,49,36,0
376.0716,376.25015,59,36,0
376.0716,376.25015,50,36,0
375.71445,376.25015,55,36,0
376.4287,376.54776,50,36,0
376.5448,376.66385,52,36,0
376.6668,376.78586,54,36,0
376.78586,376.9049,55,36,0
376.90195,377.021,57,36,0
377.02396,377.143,59,36,0
377.143,377.3216,51,62,0
377.3216,377.50015,59,36,0
377.50015,377.6787,52,36,0
377.6787,377.8573,60,36,0
377.8573,377.87515,61,36,0
377.8573,377.87515,58,36,0
377.8573,377.87515,52,36,0
378.03586,378.0537,61,36,0
378.03586,378.0537,58,36,0
378.03586,378.0537,52,36,0
378.21445,378.2323,61,36,0
378.21445,378.2323,58,36,0
378.21445,378.2323,52,36,0
378.393,378.41086,61,36,0
378.393,378.41086,58,36,0
378.393,378.41086,52,36,0
378.5716,378.9287,61,36,0
378.5716,378.9287,52,36,0
378.9287,379.1073,62,36,0
378.9287,379.1073,53,36,0
378.5716,379.1073,58,36,0
379.28586,379.4049,53,36,0
379.40195,379.521,55,36,0
379.52396,379.643,57,36,0
379.643,379.76205,58,36,0
379.7591,379.87814,60,36,0
379.8811,380.00015,62,36,0
380.00015,380.1787,51,62,0
380.1787,380.3573,63,36,0
380.3573,380.53586,58,62,0
380.53586,380.71445,62,36,0
380.71445,380.7323,46,36,0
380.71445,380.7323,34,36,0
380.893,380.91086,46,36,0
380.893,380.91086,34,36,0
381.0716,381.08945,46,36,0
381.0716,381.08945,34,36,0
381.25015,381.268,46,36,0
381.25015,381.268,34,36,0
381.4287,381.96445,46,36,0
381.4287,381.96445,34,36,0
382.143,382.26205,53,36,0
382.2591,382.37814,55,36,0
382.3811,382.50015,57,36,0
382.50015,382.6192,58,36,0
382.6162,382.73526,60,36,0
382.73825,382.8573,62,36,0
382.8573,383.03586,51,62,0
383.03586,383.21445,58,36,0
383.21445,383.393,58,62,0
383.393,383.5716,62,36,0
383.5716,383.58945,46,36,0
383.5716,383.58945,34,36,0
383.75015,383.768,46,36,0
383.75015,383.768,34,36,0
383.9287,383.9466,46,36,0
383.9287,383.9466,34,36,0
384.1073,384.12515,46,36,0
384.1073,384.12515,34,36,0
384.28586,384.8216,46,36,0
384.28586,384.8216,34,36,0
385.00015,385.1192,53,36,0
385.1162,385.23526,55,36,0
385.23825,385.3573,57,36,0
385.3573,385.47635,58,36,0
385.47336,385.5924,60,36,0
385.5954,385.71445,62,36,0
385.71445,385.8335,63,36,0
385.8305,385.94955,65,36,0
385.95255,386.0716,67,36,0
386.0716,386.19064,65,36,0
386.18765,386.3067,63,36,0
386.3097,386.4287,62,36,0
386.4287,386.54776,61,36,0
386.5448,386.66385,58,36,0
386.6668,386.78586,55,36,0
386.78586,386.9049,52,36,0
386.90195,387.021,49,36,0
387.02396,387.143,52,36,0
387.143,387.26205,53,36,0
387.2591,387.37814,50,36,0
387.3811,387.50015,53,36,0
387.50015,387.6192,50,36,0
387.61624,387.73526,46,36,0
387.73825,387.8573,50,36,0
387.8573,387.97635,53,36,0
387.97336,388.0924,55,36,0
388.0954,388.21445,57,36,0
388.21445,388.3335,58,36,0
388.3305,388.44955,60,36,0
388.45255,388.5716,62,36,0
388.5716,388.69064,63,36,0
388.68765,388.8067,65,36,0
388.8097,388.92874,67,36,0
388.92874,389.04776,65,36,0
389.0448,389.16385,63,36,0
389.1668,389.28586,62,36,0
389.28586,389.4049,61,36,0
389.40195,389.521,58,36,0
389.52396,389.643,55,36,0
389.643,389.76205,52,36,0
389.7591,389.87814,49,36,0
389.8811,390.00015,52,36,0
390.00015,390.1192,43,62,0
390.11624,390.23526,40,36,0
390.23825,390.3573,43,36,0
390.3573,390.47635,40,36,0
390.47336,390.5924,37,36,0
390.5954,390.71445,40,36,0
390.71445,390.8335,44,101,0
390.8305,390.94955,40,75,0
390.95255,391.0716,44,75,0
391.0716,391.19064,40,75,0
391.18765,391.3067,37,75,0
391.3097,391.42874,40,75,0
391.42874,391.5478,45,101,0
391.5448,391.66385,40,75,0
391.6668,391.78586,45,75,0
391.78586,391.9049,40,75,0
391.90195,392.021,37,75,0
392.02396,392.143,40,75,0
392.143,392.26205,45,101,0
392.2591,392.37814,40,75,0
392.3811,392.50015,45,75,0
392.50015,392.6192,40,75,0
392.61624,392.7353,36,75,0
392.73825,392.8573,40,75,0
392.8573,392.97635,35,101,0
392.97336,393.0924,41,75,0
393.0954,393.21445,35,75,0
393.21445,393.3335,41,75,0
393.3305,393.44955,47,75,0
393.45255,393.5716,41,75,0
393.5716,393.69064,34,101,0
393.68765,393.8067,41,75,0
393.8097,393.92874,34,75,0
393.92874,394.0478,41,75,0
394.0448,394.16385,46,75,0
394.1668,394.28586,41,75,0
394.28586,395.00015,45,101,0
394.28586,395.00015,33,101,0
395.00015,395.17874,66,36,0
395.00015,395.17874,57,36,0
395.17874,395.3573,66,36,0
395.17874,395.3573,57,36,0
395.3573,395.53586,66,36,0
395.3573,395.53586,57,36,0
395.53586,395.71445,66,36,0
395.53586,395.71445,57,36,0
395.71445,396.0716,69,36,0
396.0716,396.25015,64,36,0
395.71445,396.25015,57,36,0
396.25015,396.42874,37,75,0
396.42874,396.5478,38,75,0
396.5448,396.66385,37,75,0
396.66684,396.78586,35,75,0
396.78586,396.9049,41,75,0
396.90195,397.021,40,75,0
397.02396,397.143,38,75,0
397.143,397.3216,40,75,0
398.0954,398.21445,52,62,0
398.21445,398.3335,50,62,0
398.3305,398.44955,49,62,0
398.45255,398.5716,47,62,0
398.5716,399.2859,45,88,0
398.5716,399.2859,33,88,0
399.2859,399.55374,66,36,0
399.2859,399.55374,57,36,0
399.55374,399.643,66,36,0
399.55374,399.643,57,36,0
399.643,399.9109,66,36,0
399.643,399.9109,57,36,0
399.9109,400.00015,66,36,0
399.9109,400.00015,57,36,0
400.00015,400.3573,69,36,0
400.3573,400.5359,64,36,0
400.00015,400.5359,57,36,0
400.5359,400.71445,37,75,0
400.71445,400.8335,38,75,0
400.8305,400.94955,37,75,0
400.95255,401.0716,35,75,0
401.0716,401.19064,41,75,0
401.18765,401.3067,40,75,0
401.3097,401.42874,38,75,0
401.42874,401.6073,40,75,0
402.3811,402.50015,52,62,0
402.50015,402.6192,50,62,0
402.61624,402.7353,49,62,0
402.73825,402.8573,47,62,0
402.8573,403.0359,45,62,0
405.71445,406.0716,62,62,0
406.0716,406.25015,54,36,0
406.42874,406.7859,64,62,0
406.7859,406.96445,57,36,0
411.42874,411.7859,62,36,0
411.42874,411.7859,54,36,0
411.7859,411.96445,57,36,0
412.14304,412.50015,64,36,0
412.14304,412.50015,61,36,0
412.50015,412.67874,57,36,0
417.14304,417.2621,64,88,0
417.2591,417.37814,55,88,0
417.38113,417.50015,64,88,0
417.50015,418.12515,48,114,0
418.12515,418.21445,64,88,0
418.12515,418.21445,55,88,0
418.21445,418.4823,48,114,0
418.4823,418.5716,55,88,0
418.5716,418.69064,64,88,0
418.68765,418.8067,55,88,0
418.8097,418.92874,64,88,0
418.92874,419.55374,48,114,0
419.55374,419.64304,64,88,0
419.55374,419.64304,55,88,0
419.64304,420.26804,48,114,0
420.26804,420.3573,64,88,0
420.26804,420.3573,55,88,0
420.3573,420.9823,48,114,0
420.9823,421.0716,64,88,0
420.9823,421.0716,55,88,0
421.0716,421.33945,48,114,0
421.33945,421.42874,55,88,0
421.42874,421.5478,53,88,0
421.5448,421.66385,60,88,0
421.66684,421.7859,53,88,0
421.7859,422.4109,41,114,0
422.4109,422.50018,60,88,0
422.4109,422.50018,53,88,0
422.50018,422.76804,41,88,0
422.76804,422.8573,60,88,0
422.8573,422.97635,53,88,0
422.9734,423.09244,60,88,0
423.0954,423.21445,53,88,0
423.21445,423.83945,41,114,0
423.83945,423.92874,60,88,0
423.83945,423.92874,53,88,0
423.92874,424.55374,41,88,0
424.55374,424.64304,60,88,0
424.55374,424.64304,53,88,0
424.64304,425.26804,41,88,0
425.26804,425.3573,45,88,0
425.3573,425.9823,40,101,0
425.9823,426.0716,45,36,0
426.0716,426.33945,40,36,0
426.33945,426.42874,45,36,0
426.42874,426.6966,40,36,0
426.6966,426.7859,45,36,0
426.7859,427.05374,40,36,0
427.05374,427.14304,45,36,0
427.14304,427.1609,38,36,0
430.00018,430.17874,62,36,0
430.00018,430.17874,54,36,0
430.00018,430.17874,50,36,0
450.00018,450.11923,60,88,0
450.11624,450.2353,62,88,0
450.23828,450.35733,60,88,0
450.35733,450.47638,57,75,0
450.4734,450.59244,54,75,0
450.59543,450.71448,50,75,0
450.71448,450.83353,48,88,0
450.83054,450.9496,50,62,0
450.95258,451.0716,48,62,0
451.0716,451.19064,50,62,0
451.18768,451.30673,48,62,0
451.3097,451.42874,50,62,0
451.42874,451.5478,58,101,0
451.54483,451.66388,62,101,0
451.66684,451.7859,60,101,0
451.7859,451.90494,58,88,0
451.90198,452.02103,53,88,0
452.024,452.14304,50,88,0
452.14304,452.2621,46,101,0
452.2591,452.37814,50,75,0
452.38113,452.50018,46,75,0
452.50018,452.61923,50,75,0
452.61624,452.7353,46,75,0
452.73828,452.85733,50,75,0
452.85733,452.97638,60,101,0
452.9734,453.09244,62,101,0
453.09543,453.21448,60,101,0
453.21448,453.33353,57,88,0
453.33054,453.4496,54,88,0
453.45258,453.57162,50,88,0
453.57162,453.69064,48,101,0
453.68768,453.80673,50,75,0
453.8097,453.92874,48,75,0
453.92874,454.0478,50,75,0
454.04483,454.16388,48,75,0
454.16684,454.2859,50,75,0
454.2859,454.40494,58,101,0
454.40198,454.52103,62,101,0
454.524,454.64304,60,101,0
454.64304,454.7621,58,88,0
454.75912,454.87814,53,88,0
454.88113,455.00018,50,88,0
455.00018,455.11923,46,101,0
455.11624,455.2353,50,75,0
455.23828,455.35733,46,75,0
455.35733,455.47638,50,75,0
455.4734,455.59244,46,75,0
455.59543,455.71448,50,75,0
461.42874,461.5478,60,88,0
461.54483,461.66388,62,88,0
461.66684,461.7859,60,88,0
461.7859,461.90494,57,75,0
461.90198,462.02103,54,75,0
462.024,462.14304,50,75,0
462.14304,462.2621,48,88,0
462.25912,462.37817,50,62,0
462.38113,462.50018,48,62,0
462.50018,462.61923,50,62,0
462.61624,462.7353,48,62,0
462.73828,462.85733,50,62,0
462.85733,462.97638,58,101,0
462.9734,463.09244,62,101,0
463.09543,463.21448,60,101,0
463.21448,463.33353,58,88,0
463.33054,463.4496,53,88,0
463.45258,463.57162,50,88,0
463.57162,463.69067,46,101,0
463.68768,463.80673,50,75,0
463.80972,463.92877,46,75,0
463.92877,464.0478,50,75,0
464.04483,464.16388,46,75,0
464.16684,464.2859,50,75,0
464.2859,464.40494,58,101,0
464.40198,464.52103,60,101,0
464.524,464.64304,58,101,0
464.64304,464.7621,55,88,0
464.75912,464.87817,52,88,0
464.88113,465.00018,48,88,0
465.00018,465.11923,46,101,0
465.11627,465.2353,48,75,0
465.23828,465.35733,46,75,0
465.35733,465.47638,48,75,0
465.4734,465.59244,46,75,0
465.59543,465.71448,48,75,0
465.71448,465.83353,56,101,0
465.83054,465.9496,60,101,0
465.95258,466.07162,58,101,0
466.07162,466.19067,56,88,0
466.18768,466.30673,51,88,0
466.30972,466.42877,48,88,0
466.42877,466.5478,44,101,0
466.54483,466.66388,48,75,0
466.66684,466.7859,44,75,0
466.7859,466.90494,48,75,0
466.90198,467.02103,44,75,0
467.024,467.14304,48,75,0
467.14304,467.2621,56,101,0
467.25912,467.37817,58,101,0
467.38113,467.50018,56,101,0
467.50018,467.61923,53,101,0
467.61627,467.73532,50,101,0
467.73828,467.85733,46,101,0
467.85733,467.97638,54,101,0
467.9734,468.09244,58,101,0
468.09543,468.21448,54,101,0
468.21448,468.33353,49,101,0
468.33054,468.4496,46,101,0
468.45258,468.57162,42,101,0
468.57162,468.69067,55,101,0
468.68768,468.80673,57,101,0
468.80972,468.92877,55,101,0
468.92877,469.04782,52,101,0
469.04483,469.16388,49,101,0
469.16684,469.2859,45,101,0
469.2859,469.40494,53,101,0
469.40198,469.52103,57,101,0
469.524,469.64304,53,101,0
469.64304,469.7621,48,101,0
469.75912,469.87817,45,101,0
469.88113,470.00018,41,101,0
470.00018,470.11923,58,114,0
470.11627,470.23532,62,114,0
470.23828,470.35733,58,114,0
470.35733,470.47638,53,114,0
470.4734,470.59244,50,114,0
470.59543,470.71448,46,114,0
470.71448,470.83353,50,101,0
470.83054,470.9496,46,101,0
470.95258,471.07162,50,101,0
471.07162,471.19067,46,101,0
471.18768,471.30673,50,101,0
471.30972,471.42877,46,101,0
471.42877,471.54782,50,88,0
471.54483,471.66388,46,88,0
471.66687,471.7859,50,88,0
471.7859,471.90494,46,88,0
471.90198,472.02103,50,88,0
472.024,472.14304,46,88,0
472.14304,472.2621,50,75,0
472.25912,472.37817,46,75,0
472.38113,472.50018,50,75,0
472.50018,472.61923,46,75,0
472.61627,472.73532,50,75,0
472.73828,472.85733,46,75,0
472.85733,472.97638,45,49,0
472.9734,473.09244,47,49,0
473.09543,473.21448,49,49,0
473.21448,473.33353,50,49,0
473.33054,473.4496,52,49,0
473.45258,473.57162,54,49,0
473.57162,473.69067,55,49,0
473.68768,473.80673,57,49,0
473.80972,473.92877,59,49,0
473.92877,474.04782,61,49,0
474.04483,474.16388,62,49,0
474.16687,474.28592,64,49,0
478.57162,479.28592,50,88,0
478.57162,479.28592,38,88,0
479.28592,479.30377,54,88,0
479.28592,479.30377,50,88,0
479.46448,479.48233,54,88,0
479.46448,479.48233,50,88,0
479.64304,479.66092,54,88,0
479.64304,479.66092,50,88,0
479.82162,479.83948,54,88,0
479.82162,479.83948,50,88,0
480.00018,480.35733,54,114,0
480.00018,480.35733,50,106,0
480.35733,480.53592,62,88,0
480.35733,480.53592,54,88,0
480.71448,480.73233,62,88,0
480.71448,480.73233,54,88,0
480.89304,480.91092,62,88,0
480.89304,480.91092,54,88,0
481.07162,481.08948,62,88,0
481.07162,481.08948,54,88,0
481.25018,481.26804,62,88,0
481.25018,481.26804,54,88,0
481.42877,481.78592,62,114,0
481.42877,481.78592,54,106,0
481.78592,481.96448,66,88,0
481.78592,481.96448,62,88,0
482.14304,482.16092,66,88,0
482.14304,482.16092,62,88,0
482.32162,482.33948,66,88,0
482.32162,482.33948,62,88,0
482.50018,482.51804,66,88,0
482.50018,482.51804,62,88,0
482.67877,482.69662,66,88,0
482.67877,482.69662,62,88,0
484.28592,484.87997,50,114,0
484.28592,484.87997,38,106,0
484.87997,484.8948,62,88,0
484.87997,484.8948,54,88,0
485.02847,485.04333,62,88,0
485.02847,485.04333,54,88,0
485.177,485.3255,62,88,0
485.177,485.3255,54,88,0
485.3255,485.34036,62,88,0
485.3255,485.34036,54,88,0
485.47403,485.77106,62,114,0
485.47403,485.77106,54,106,0
485.77106,485.9196,64,88,0
485.77106,485.9196,57,88,0
486.06808,486.3651,64,114,0
486.06808,486.3651,57,106,0
486.3651,486.51364,66,88,0
486.3651,486.51364,62,88,0
486.66214,486.95917,66,114,0
486.66214,486.95917,62,106,0
486.95917,487.1077,64,88,0
486.95917,487.1077,57,88,0
487.2562,487.27106,64,88,0
487.2562,487.27106,57,88,0
487.40472,487.4196,64,88,0
487.40472,487.4196,57,88,0
487.55325,487.56808,64,88,0
487.55325,487.56808,57,88,0
487.70175,487.7166,64,88,0
487.70175,487.7166,57,88,0
487.85028,488.1473,64,88,0
487.85028,488.1473,57,88,0
488.1473,488.2958,69,88,0
488.1473,488.2958,66,88,0
488.44434,488.74136,69,88,0
488.44434,488.74136,66,88,0
488.74136,488.88986,67,88,0
488.74136,488.88986,61,88,0
489.0384,489.33542,67,88,0
489.0384,489.33542,61,88,0
489.33542,489.48395,66,88,0
489.33542,489.48395,62,88,0
489.63245,489.6473,47,88,0
489.63245,489.6473,35,88,0
489.78098,489.7958,47,88,0
489.78098,489.7958,35,88,0
489.92947,489.94434,47,88,0
489.92947,489.94434,35,88,0
490.078,490.09283,47,88,0
490.078,490.09283,35,88,0
490.2265,490.52353,47,114,0
490.2265,490.52353,35,106,0
490.52353,490.67206,50,88,0
490.52353,490.67206,38,88,0
490.82056,490.85028,50,88,0
490.82056,490.85028,38,88,0
491.11758,491.1473,54,88,0
491.11758,491.1473,42,88,0
491.41464,492.0087,57,88,0
491.41464,492.0087,45,88,0
492.0087,492.02353,53,88,0
492.0087,492.02353,41,88,0
492.1572,492.17206,53,88,0
492.1572,492.17206,41,88,0
492.30573,492.32056,53,88,0
492.30573,492.32056,41,88,0
492.45422,492.4691,53,88,0
492.45422,492.4691,41,88,0
492.60275,493.1968,57,88,0
492.60275,493.1968,54,88,0
492.60275,493.1968,45,88,0
493.1968,493.2265,66,88,0
493.1968,493.2265,62,88,0
493.1968,493.2265,57,88,0
493.49384,493.52353,64,88,0
493.49384,493.52353,61,88,0
493.49384,493.52353,57,88,0
493.79086,494.0879,62,88,0
493.79086,494.0879,50,88,0
493.79086,494.0879,54,88,0
493.79086,494.0879,57,88,0
494.0879,494.53345,53,88,0
494.0879,494.53345,41,88,0
494.53345,494.5483,53,88,0
494.53345,494.5483,41,88,0
494.68195,494.6968,53,88,0
494.68195,494.6968,41,88,0
494.83047,494.84534,53,88,0
494.83047,494.84534,41,88,0
494.97897,495.57306,57,88,0
494.97897,495.57306,54,88,0
494.97897,495.57306,45,88,0
495.57306,495.60275,66,88,0
495.57306,495.60275,62,88,0
495.57306,495.60275,57,88,0
495.8701,495.89978,64,88,0
495.8701,495.89978,61,88,0
495.8701,495.89978,57,88,0
496.1671,496.46414,62,88,0
496.1671,496.46414,50,88,0
496.1671,496.46414,54,88,0
496.1671,496.46414,57,88,0
496.46414,496.90967,46,101,0
496.46414,496.90967,34,101,0
496.90967,497.0582,46,101,0
496.90967,497.0582,34,101,0
497.0582,497.20673,46,101,0
497.0582,497.20673,34,101,0
497.20673,497.35522,46,101,0
497.20673,497.35522,34,101,0
497.35522,497.94928,57,101,0
497.35522,497.94928,54,101,0
497.35522,497.94928,45,101,0
500.9196,501.2166,69,101,0
500.9196,501.2166,66,101,0
501.2166,501.36514,66,101,0
501.2166,501.36514,62,101,0
500.9196,501.36514,57,101,0
501.51364,501.54337,66,101,0
501.51364,501.54337,62,101,0
501.51364,501.54337,57,101,0
501.81067,501.8404,64,101,0
501.81067,501.8404,61,101,0
501.81067,501.8404,57,101,0
502.30573,502.40472,52,101,0
502.40472,502.50375,54,101,0
502.50128,502.60028,52,101,0
502.60275,502.70178,50,101,0
502.70178,502.80078,55,101,0
502.7983,502.8973,54,101,0
502.89978,502.9988,52,101,0
502.9988,503.0978,57,101,0
503.09534,503.19434,55,101,0
503.1968,503.29584,54,101,0
504.48395,505.078,54,101,0
504.48395,505.078,42,101,0
505.67206,506.2661,45,101,0
505.67206,506.2661,33,101,0
506.8602,507.30573,50,101,0
506.8602,507.30573,38,101,0
507.30573,507.45425,38,114,0
507.45425,507.55325,42,114,0
507.55078,507.64978,40,114,0
507.65228,507.75128,38,114,0
507.75128,507.85028,45,114,0
507.8478,507.9468,43,114,0
507.9493,508.0483,42,114,0
508.0483,508.34534,50,114,0
508.64236,508.9394,62,101,0
508.64236,508.9394,50,101,0
508.64236,508.9394,54,101,0
508.64236,508.9394,57,101,0
509.23642,509.83047,50,101,0
509.23642,509.83047,45,101,0
509.23642,509.83047,38,101,0
47.50002,47.767876,76,49,0
47.50002,47.767876,73,49,0
47.767876,47.857162,76,49,0
47.767876,47.857162,73,49,0
47.857162,48.035732,74,49,0
47.857162,48.035732,71,49,0
51.785736,52.053593,76,49,0
51.785736,52.053593,73,49,0
52.053593,52.14288,76,49,0
52.053593,52.14288,73,49,0
52.14288,52.32145,74,49,0
52.14288,52.32145,71,49,0
117.14291,117.261955,51,101,0
117.25897,117.37802,53,101,0
117.381,117.500046,51,101,0
117.500046,117.619095,48,101,0
117.61612,117.73517,45,101,0
117.738144,117.85719,41,101,0
117.85719,117.976234,49,101,0
117.97326,118.09231,53,101,0
118.09528,118.21433,49,101,0
118.21433,118.33338,44,101,0
118.33041,118.449455,41,101,0
118.45243,118.57148,37,101,0
118.57148,118.69052,50,101,0
118.687546,118.806595,52,101,0
118.80957,118.92862,50,101,0
118.92862,119.04767,47,101,0
119.04469,119.163734,44,101,0
119.16672,119.28576,40,101,0
119.28576,119.40481,48,101,0
119.40183,119.52088,52,101,0
119.52386,119.64291,48,101,0
119.64291,119.761955,43,101,0
119.75898,119.87802,40,101,0
119.881,120.000046,36,101,0
120.000046,120.119095,41,88,0
120.11612,120.23517,45,88,0
120.238144,120.35719,41,88,0
120.35719,120.47624,36,88,0
120.47326,120.59231,33,88,0
120.59528,120.71433,29,88,0
120.71433,120.83338,33,62,0
120.83041,120.949455,29,62,0
120.95243,121.07148,33,62,0
121.07148,121.19052,29,62,0
121.187546,121.306595,33,62,0
121.30957,121.42862,29,62,0
121.42862,121.54767,45,49,0
121.54469,121.66374,41,49,0
121.66672,121.78577,45,49,0
121.78577,121.90481,41,49,0
121.90183,122.02088,45,49,0
122.02386,122.14291,41,49,0
122.14291,122.261955,45,49,0
122.25898,122.37803,41,49,0
122.381004,122.500046,45,49,0
122.500046,122.619095,41,49,0
122.61612,122.73517,45,49,0
122.738144,122.85719,41,49,0
181.78578,182.05365,76,49,0
181.78578,182.05365,73,49,0
182.05365,182.14293,76,49,0
182.05365,182.14293,73,49,0
182.14293,182.3215,74,49,0
182.14293,182.3215,71,49,0
186.0715,186.33936,76,49,0
186.0715,186.33936,73,49,0
186.33936,186.42865,76,49,0
186.33936,186.42865,73,49,0
186.42865,186.60722,74,49,0
186.42865,186.60722,71,49,0
251.42867,251.54771,51,101,0
251.54474,251.66379,53,101,0
251.66676,251.78581,51,101,0
251.78581,251.90486,48,101,0
251.90189,252.02094,45,101,0
252.02391,252.14296,41,101,0
252.14296,252.26201,49,101,0
252.25903,252.37808,53,101,0
252.38106,252.5001,49,101,0
252.5001,252.61916,44,101,0
252.61617,252.73521,41,101,0
252.73819,252.85724,37,101,0
252.85724,252.97629,50,101,0
252.97331,253.09236,52,101,0
253.09534,253.21439,50,101,0
253.21439,253.33344,47,101,0
253.33046,253.44951,44,101,0
253.45248,253.57153,40,101,0
253.57153,253.69058,48,101,0
253.6876,253.80666,52,101,0
253.80963,253.92868,48,101,0
253.92868,254.04771,43,101,0
254.04474,254.16379,40,101,0
254.16676,254.28581,36,101,0
254.28581,254.40486,41,88,0
254.40189,254.52094,45,88,0
254.52391,254.64296,41,88,0
254.64296,254.76201,36,88,0
254.75903,254.87808,33,88,0
254.88106,255.0001,29,88,0
255.0001,255.11916,33,62,0
255.11618,255.23521,29,62,0
255.2382,255.35724,33,62,0
255.35724,255.47629,29,62,0
255.47331,255.59236,33,62,0
255.59534,255.71439,29,62,0
255.71439,255.83344,45,49,0
255.83046,255.94951,41,49,0
255.95248,256.07153,45,49,0
256.07153,256.19058,41,49,0
256.1876,256.30664,45,49,0
256.30963,256.42868,41,49,0
256.42868,256.54773,45,49,0
256.54474,256.6638,41,49,0
256.66678,256.78583,45,49,0
256.78583,256.90488,41,49,0
256.9019,257.02094,45,49,0
257.02393,257.14297,41,49,0
307.14297,307.50012,44,36,0
307.50012,307.67868,48,36,0
397.50015,397.768,76,49,0
397.50015,397.768,73,49,0
397.768,397.8573,76,49,0
397.768,397.8573,73,49,0
397.8573,398.0359,74,49,0
397.8573,398.0359,71,49,0
401.7859,402.05374,76,49,0
401.7859,402.05374,73,49,0
402.05374,402.143,76,49,0
402.05374,402.143,73,49,0
402.143,402.3216,74,49,0
402.143,402.3216,71,49,0
455.71448,455.89304,45,36,0
457.14304,457.32162,62,36,0
457.14304,457.32162,54,36,0
457.14304,457.32162,50,36,0
458.57162,458.75018,62,36,0
458.57162,458.75018,54,36,0
458.57162,458.75018,50,36,0
460.00018,460.17874,62,36,0
460.00018,460.17874,54,36,0
460.00018,460.17874,50,36,0
470.00018,470.11923,46,101,0
470.11627,470.23532,50,101,0
470.23828,470.35733,46,101,0
470.35733,470.47638,41,101,0
470.4734,470.59244,38,101,0
470.59543,470.71448,34,101,0
470.71448,470.83353,38,88,0
470.83054,470.9496,34,88,0
470.95258,471.07162,38,88,0
471.07162,471.19067,34,88,0
471.18768,471.30673,38,88,0
471.30972,471.42877,34,88,0
471.42877,471.54782,38,75,0
471.54483,471.66388,34,75,0
471.66687,471.7859,38,75,0
471.7859,471.90494,34,75,0
471.90198,472.02103,38,75,0
472.024,472.14304,34,75,0
472.14304,472.2621,38,62,0
472.25912,472.37817,34,62,0
472.38113,472.50018,38,62,0
472.50018,472.61923,34,62,0
472.61627,472.73532,38,62,0
472.73828,472.85733,34,62,0
472.85733,473.0359,33,49,0
473.92877,474.10733,52,49,0
473.92877,474.10733,45,49,0
474.28592,474.46448,54,49,0
474.28592,474.46448,50,49,0
475.35733,475.53592,52,49,0
475.35733,475.53592,45,49,0
475.71448,475.89304,54,62,0
475.71448,475.89304,50,62,0
476.78592,476.96448,52,62,0
476.78592,476.96448,45,62,0
477.14304,477.32162,54,75,0
477.14304,477.32162,50,75,0
478.21448,478.39304,52,75,0
478.21448,478.39304,45,75,0
502.1077,502.20673,62,75,0
502.1077,502.20673,54,75,0
502.1077,502.20673,50,75,0
502.30573,502.40472,40,75,0
502.40472,502.50375,42,75,0
502.50128,502.60028,40,75,0
502.60275,502.70178,38,75,0
502.70178,502.80078,43,75,0
502.7983,502.8973,42,75,0
502.89978,502.9988,40,75,0
502.9988,503.0978,45,75,0
503.09534,503.19434,43,75,0
503.1968,503.29584,42,75,0
503.29584,503.39484,47,75,0
503.39236,503.49136,45,75,0
503.49384,503.59286,43,75,0
503.59286,503.69186,49,75,0
503.6894,503.7884,47,75,0
503.79086,503.8899,45,75,0
503.8899,503.9889,50,75,0
503.98642,504.08542,49,75,0
504.08792,504.18692,47,75,0
504.18692,504.28592,52,75,0
504.28345,504.38248,50,75,0
504.38495,504.48395,49,75,0
