start_time,end_time,note_value,velocity,instrument_program_number
0.0,0.4166665,64,49,0
0.0,0.4166665,61,49,0
0.4166665,0.833333,66,75,0
0.4166665,0.833333,62,67,0
0.833333,0.87499964,63,49,0
0.833333,0.87499964,60,49,0
1.2499995,2.499999,64,75,0
1.2499995,2.499999,61,67,0
2.499999,2.9166656,69,49,0
2.9166656,3.333332,71,75,0
3.333332,3.3749986,73,49,0
3.7499986,4.5833316,73,75,0
4.5833316,4.999998,71,49,0
3.7499986,4.999998,66,70,0
3.7499986,4.999998,62,65,0
4.999998,5.4166646,69,49,0
5.4166646,5.833331,68,75,0
4.999998,5.833331,62,49,0
5.833331,5.8749976,66,49,0
5.833331,5.8749976,62,49,0
6.2499976,7.499997,64,49,0
6.2499976,7.499997,62,49,0
7.499997,7.70833,64,49,0
7.6041636,7.70833,64,49,0
7.70833,7.8124967,66,49,0
7.8124967,7.9166636,68,49,0
7.499997,7.9166636,62,49,0
7.9166636,8.33333,66,75,0
7.9166636,8.33333,62,67,0
8.33333,8.374996,64,49,0
8.33333,8.374996,62,49,0
8.749996,9.583329,66,75,0
8.749996,9.583329,62,67,0
9.583329,9.999996,64,75,0
9.583329,9.999996,61,75,0
9.999996,10.416662,61,75,0
9.999996,10.416662,57,75,0
10.416662,10.833329,66,75,0
10.416662,10.833329,62,75,0
10.833329,10.874995,63,75,0
10.833329,10.874995,60,75,0
11.249995,12.499995,64,101,0
11.249995,12.499995,61,93,0
12.916661,13.333328,73,75,0
12.499995,13.333328,69,75,0
12.499995,13.333328,64,75,0
13.333328,13.374994,76,75,0
13.333328,13.374994,64,75,0
13.333328,13.374994,69,75,0
13.333328,13.374994,73,75,0
13.749994,14.999994,76,88,0
13.749994,14.999994,64,88,0
13.749994,14.999994,68,88,0
13.749994,14.999994,73,88,0
14.999994,15.41666,76,49,0
14.999994,15.41666,64,49,0
15.41666,15.833327,75,75,0
15.41666,15.833327,66,65,0
14.999994,15.833327,68,49,0
15.833327,15.874993,68,49,0
15.833327,15.874993,66,49,0
16.249994,17.499992,73,49,0
16.249994,17.499992,68,49,0
16.249994,17.499992,64,49,0
17.499992,17.91666,73,49,0
17.499992,17.91666,61,49,0
17.91666,18.333326,71,75,0
17.91666,18.333326,62,65,0
17.499992,18.333326,64,49,0
18.333326,18.374992,64,49,0
18.333326,18.374992,62,49,0
18.749992,19.583326,69,49,0
18.749992,19.583326,61,49,0
19.999992,20.416658,64,49,0
19.999992,20.416658,61,49,0
20.416658,20.833324,66,75,0
20.416658,20.833324,62,67,0
20.833324,20.874992,63,49,0
20.833324,20.874992,60,49,0
21.249992,22.49999,64,75,0
21.249992,22.49999,61,67,0
22.49999,22.916658,69,49,0
22.916658,23.333324,71,75,0
23.333324,23.37499,73,49,0
23.74999,24.583324,73,75,0
24.583324,24.99999,71,49,0
23.74999,24.99999,66,70,0
23.74999,24.99999,62,65,0
24.99999,25.416656,69,49,0
25.416656,25.833323,68,75,0
24.99999,25.833323,62,49,0
25.833323,25.87499,66,49,0
25.833323,25.87499,62,49,0
26.249989,27.499989,64,49,0
26.249989,27.499989,62,49,0
27.499989,27.708323,64,49,0
27.604156,27.708323,64,49,0
27.708323,27.812489,66,49,0
27.812489,27.916655,68,49,0
27.499989,27.916655,62,49,0
27.916655,28.333323,66,75,0
27.916655,28.333323,62,67,0
28.333323,28.374989,64,49,0
28.333323,28.374989,62,49,0
28.749989,29.58332,66,75,0
28.749989,29.58332,62,67,0
29.58332,29.999989,64,75,0
29.58332,29.999989,61,75,0
29.999989,30.416655,61,75,0
29.999989,30.416655,57,75,0
30.416655,30.83332,66,75,0
30.416655,30.83332,62,75,0
30.83332,30.874989,63,75,0
30.83332,30.874989,60,75,0
31.249987,32.49999,64,101,0
31.249987,32.49999,61,93,0
32.916653,33.33332,73,75,0
32.49999,33.33332,69,75,0
32.49999,33.33332,64,75,0
33.33332,33.37499,76,75,0
33.33332,33.37499,64,75,0
33.33332,33.37499,69,75,0
33.33332,33.37499,73,75,0
33.749985,34.999985,76,88,0
33.749985,34.999985,64,88,0
33.749985,34.999985,68,88,0
33.749985,34.999985,73,88,0
34.999985,35.416653,76,49,0
34.999985,35.416653,64,49,0
35.416653,35.83332,75,75,0
35.416653,35.83332,66,65,0
34.999985,35.83332,68,49,0
35.83332,35.874985,68,49,0
35.83332,35.874985,66,49,0
36.249985,37.499985,73,49,0
36.249985,37.499985,68,49,0
36.249985,37.499985,64,49,0
37.499985,37.916653,73,49,0
37.499985,37.916653,61,49,0
37.916653,38.333317,71,75,0
37.916653,38.333317,62,65,0
37.499985,38.333317,64,49,0
38.333317,38.374985,64,49,0
38.333317,38.374985,62,49,0
38.749985,39.999985,69,49,0
38.749985,39.999985,61,49,0
39.999985,40.41665,70,88,0
39.999985,40.41665,61,88,0
40.41665,40.833317,71,88,0
40.41665,40.833317,62,88,0
39.999985,40.833317,67,88,0
40.833317,40.874985,73,88,0
40.833317,40.874985,64,88,0
40.833317,40.874985,67,88,0
40.833317,40.874985,70,88,0
41.249985,42.499985,74,101,0
41.249985,42.499985,62,101,0
41.249985,42.499985,67,101,0
41.249985,42.499985,71,101,0
42.499985,42.91665,71,49,0
42.91665,43.333317,67,49,0
42.499985,43.333317,62,49,0
43.333317,43.37498,62,49,0
43.333317,43.37498,59,49,0
43.74998,44.99998,64,49,0
43.74998,44.99998,60,49,0
44.99998,45.41665,62,36,0
44.99998,45.41665,59,36,0
45.41665,45.833317,64,36,0
45.41665,45.833317,60,36,0
45.833317,46.24998,65,36,0
45.833317,46.24998,59,36,0
46.24998,46.66665,64,36,0
46.24998,46.66665,60,36,0
46.66665,47.083313,74,36,0
46.66665,47.083313,71,36,0
47.083313,47.49998,76,36,0
47.083313,47.49998,72,36,0
47.49998,47.91665,77,36,0
47.49998,47.91665,71,36,0
47.91665,48.333313,76,36,0
47.91665,48.333313,72,36,0
48.333313,48.74998,62,36,0
48.333313,48.74998,59,36,0
49.06248,49.16665,67,36,0
48.74998,49.16665,64,36,0
48.74998,49.16665,60,36,0
49.16665,49.60143,65,36,0
49.16665,49.60143,59,36,0
49.60143,50.055977,64,36,0
49.60143,50.055977,60,36,0
50.055977,50.532166,64,49,0
50.055977,50.532166,62,49,0
50.532166,51.04064,66,62,0
50.532166,51.04064,64,62,0
50.532166,51.04064,62,62,0
51.04064,51.576355,68,62,0
51.04064,51.576355,64,62,0
51.04064,51.576355,62,62,0
51.576355,51.61983,69,75,0
51.576355,51.61983,64,75,0
51.576355,51.61983,61,75,0
52.011135,52.05659,71,75,0
52.011135,52.05659,69,75,0
52.011135,52.05659,63,75,0
52.465683,53.433426,73,88,0
52.465683,53.433426,69,88,0
52.465683,53.433426,64,88,0
53.433426,54.15923,73,75,0
54.15923,54.401165,71,75,0
54.401165,55.651165,69,75,0
54.401165,55.651165,64,75,0
54.401165,55.651165,61,75,0
55.651165,56.067833,64,49,0
56.067833,56.4845,61,49,0
56.4845,56.526165,57,49,0
56.796997,56.901165,57,49,0
56.901165,58.151165,64,62,0
58.151165,58.567833,64,62,0
58.567833,58.984497,61,62,0
58.984497,59.026165,58,62,0
59.296997,59.401165,58,62,0
59.401165,60.651165,64,75,0
60.651165,61.06783,64,75,0
61.06783,61.484497,62,101,0
61.484497,61.526165,59,75,0
61.796997,61.901165,59,75,0
61.901165,61.94283,66,88,0
62.31783,62.359497,70,88,0
62.31783,62.359497,66,88,0
62.31783,62.359497,61,88,0
62.734497,62.776165,71,75,0
62.734497,62.776165,66,75,0
62.734497,62.776165,59,75,0
63.15116,63.19283,73,75,0
63.15116,63.19283,66,75,0
63.15116,63.19283,61,75,0
63.56783,63.609497,74,62,0
63.56783,63.609497,66,62,0
63.56783,63.609497,62,62,0
63.984497,64.02616,83,49,0
63.984497,64.02616,74,49,0
63.984497,64.02616,71,49,0
64.40116,65.2345,81,49,0
65.2345,65.65116,80,49,0
64.40116,65.65116,74,49,0
64.40116,65.65116,71,49,0
65.65116,66.067825,64,49,0
66.067825,66.4845,59,49,0
66.4845,66.52616,56,49,0
66.797,66.90116,56,49,0
66.90116,68.15116,64,49,0
68.15116,68.567825,64,62,0
68.567825,68.9845,60,62,0
68.9845,69.02616,57,62,0
69.297,69.40116,57,62,0
69.40116,70.65116,64,114,0
70.65116,71.067825,64,101,0
71.067825,71.48449,61,101,0
71.48449,71.52616,58,101,0
71.79699,71.90116,58,101,0
71.90116,71.942825,65,114,0
72.317825,72.35949,69,88,0
72.317825,72.35949,65,88,0
72.317825,72.35949,60,88,0
72.73449,72.77616,70,75,0
72.73449,72.77616,65,75,0
72.73449,72.77616,58,75,0
73.15116,73.192825,72,49,0
73.15116,73.192825,65,49,0
73.15116,73.192825,60,49,0
73.567825,73.60949,74,49,0
73.98449,74.192825,77,49,0
74.192825,74.40116,75,49,0
74.40116,75.23449,75,75,0
74.40116,75.23449,69,75,0
75.23449,75.65116,74,75,0
75.23449,75.65116,70,75,0
74.40116,75.65116,65,75,0
75.65116,76.067825,77,88,0
75.65116,76.067825,74,88,0
75.65116,76.067825,65,88,0
76.067825,76.48449,82,88,0
76.067825,76.48449,77,88,0
76.067825,76.48449,70,88,0
76.48449,76.52616,84,88,0
76.48449,76.52616,77,88,0
76.48449,76.52616,72,88,0
76.90116,78.15115,86,88,0
76.90116,78.15115,77,88,0
76.90116,78.15115,74,88,0
78.15115,78.567825,82,75,0
78.567825,78.98449,77,75,0
78.15115,78.98449,74,75,0
78.15115,78.98449,70,75,0
78.98449,79.02615,75,75,0
78.98449,79.02615,72,75,0
78.98449,79.02615,69,75,0
79.40115,80.65115,74,75,0
79.40115,80.65115,70,75,0
80.65115,81.067825,72,49,0
80.65115,81.067825,63,49,0
81.067825,81.48449,70,49,0
81.067825,81.48449,62,49,0
80.65115,81.48449,65,49,0
81.48449,81.90115,65,49,0
81.48449,81.90115,57,49,0
81.90115,83.15115,62,49,0
81.90115,83.15115,58,49,0
83.15115,83.56782,60,36,0
83.15115,83.56782,57,36,0
83.56782,83.98449,62,36,0
83.56782,83.98449,58,36,0
83.98449,84.40115,63,36,0
83.98449,84.40115,57,36,0
84.40115,84.81782,62,36,0
84.40115,84.81782,58,36,0
84.81782,85.23449,72,36,0
84.81782,85.23449,69,36,0
85.23449,85.65115,74,36,0
85.23449,85.65115,70,36,0
85.65115,86.06782,75,36,0
85.65115,86.06782,69,36,0
86.06782,86.48449,74,36,0
86.06782,86.48449,70,36,0
86.48449,86.90115,60,36,0
86.48449,86.90115,57,36,0
86.90115,87.31782,62,36,0
87.31782,87.53521,65,36,0
87.53521,87.7526,63,36,0
87.7526,88.207146,62,36,0
87.7526,88.207146,58,36,0
88.207146,88.25477,62,62,0
88.207146,88.25477,56,62,0
88.207146,88.25477,53,62,0
88.68334,88.734184,62,75,0
88.68334,88.734184,57,75,0
88.68334,88.734184,53,75,0
89.19181,89.245384,62,75,0
89.19181,89.245384,59,75,0
89.19181,89.245384,52,75,0
89.72752,90.010544,62,88,0
90.010544,90.293564,61,88,0
90.293564,90.59357,59,88,0
90.59357,90.89356,66,88,0
90.89356,92.197914,61,49,0
90.89356,92.197914,57,49,0
90.89356,92.197914,52,49,0
92.197914,92.85009,61,49,0
92.85009,93.33922,59,49,0
93.33922,93.50226,57,49,0
93.50226,94.12726,57,49,0
94.12726,94.335594,61,49,0
94.335594,94.54393,64,49,0
94.54393,94.75226,69,49,0
94.75226,94.960594,73,49,0
94.960594,95.16893,76,49,0
95.16893,95.210594,78,49,0
95.16893,95.210594,74,49,0
95.585594,95.62726,75,49,0
95.585594,95.62726,72,49,0
96.00226,97.25226,76,75,0
96.00226,97.25226,73,67,0
97.25226,97.66892,81,49,0
97.66892,98.085594,83,49,0
97.25226,98.085594,76,49,0
97.25226,98.085594,73,49,0
98.085594,98.12726,85,49,0
98.085594,98.12726,77,49,0
98.085594,98.12726,73,49,0
98.50226,99.335594,85,75,0
99.335594,99.75226,83,49,0
98.50226,99.75226,78,70,0
98.50226,99.75226,74,65,0
99.75226,100.16892,69,49,0
100.16892,100.585594,68,49,0
99.75226,100.585594,62,49,0
100.585594,100.62726,66,49,0
100.585594,100.62726,62,49,0
101.00226,102.25226,64,75,0
101.00226,102.25226,62,67,0
102.460594,102.56476,78,49,0
102.56476,102.66892,80,49,0
102.25226,102.66892,76,49,0
102.66892,103.085594,78,49,0
102.25226,103.085594,74,49,0
103.085594,103.12726,76,49,0
103.085594,103.12726,74,49,0
103.50226,104.33559,78,49,0
103.50226,104.33559,74,49,0
104.33559,104.75226,76,49,0
104.33559,104.75226,73,49,0
104.75226,105.16892,59,62,0
105.16892,105.58559,66,75,0
105.16892,105.58559,57,75,0
104.75226,105.58559,61,62,0
105.58559,105.62726,65,88,0
105.58559,105.62726,61,88,0
105.58559,105.62726,59,88,0
106.00226,107.25226,66,114,0
106.00226,107.25226,62,114,0
106.00226,107.25226,57,114,0
107.25226,107.66892,69,49,0
107.66892,108.08559,71,49,0
107.66892,108.08559,67,49,0
108.08559,108.12726,73,49,0
108.08559,108.12726,69,49,0
108.08559,108.12726,67,49,0
108.50226,111.00225,76,114,0
108.50226,111.00225,73,114,0
108.50226,111.00225,70,114,0
111.00225,111.41892,74,75,0
111.00225,111.41892,71,75,0
108.50226,111.41892,67,114,0
114.75225,114.85642,74,36,0
113.50225,114.96059,72,36,0
114.85642,114.96059,72,36,0
114.96059,115.06475,71,36,0
115.06475,115.16892,72,36,0
115.16892,115.37725,71,36,0
115.37725,115.58559,72,36,0
115.58559,115.79392,76,36,0
115.79392,116.00225,74,36,0
116.00225,116.418915,71,36,0
116.00225,116.418915,67,36,0
117.14809,117.25225,71,36,0
117.25225,117.668915,74,62,0
117.25225,117.668915,67,57,0
117.668915,118.08559,73,36,0
117.668915,118.08559,69,36,0
117.25225,118.08559,62,52,0
118.08559,118.12725,71,36,0
118.08559,118.12725,62,36,0
118.50225,119.75225,69,62,0
118.50225,119.75225,62,54,0
119.75225,120.168915,69,36,0
119.75225,120.168915,62,36,0
120.168915,120.58559,68,49,0
120.168915,120.58559,64,49,0
120.58559,120.62725,66,62,0
121.00225,121.043915,64,62,0
121.418915,121.46059,69,75,0
121.418915,121.46059,63,75,0
121.83559,122.668915,73,88,0
121.83559,122.668915,69,88,0
121.83559,122.668915,64,88,0
122.668915,123.293915,73,88,0
123.293915,123.50225,71,88,0
123.50225,124.75225,69,88,0
123.50225,124.75225,64,88,0
123.50225,124.75225,61,88,0
124.75225,125.168915,69,88,0
125.168915,125.19669,74,88,0
125.168915,125.19669,66,88,0
125.37725,125.793915,74,88,0
125.37725,125.793915,66,88,0
125.793915,126.00225,76,88,0
125.793915,126.00225,69,88,0
126.00225,126.043915,78,88,0
126.00225,126.043915,74,88,0
126.418915,127.043915,78,114,0
126.418915,127.043915,74,106,0
127.043915,127.46058,78,114,0
127.043915,127.46058,74,106,0
127.46058,127.668915,76,88,0
127.46058,127.668915,69,88,0
127.668915,127.87725,74,88,0
127.668915,127.87725,66,88,0
127.87725,128.29391,74,114,0
127.87725,128.29391,71,106,0
128.29391,128.50224,73,88,0
128.29391,128.50224,66,88,0
128.50224,128.54391,71,88,0
128.50224,128.54391,62,88,0
128.91891,129.75224,71,114,0
128.91891,129.75224,62,106,0
129.75224,130.16891,71,88,0
130.16891,130.37724,76,88,0
130.16891,130.37724,67,88,0
130.37724,130.79391,76,88,0
130.37724,130.79391,67,88,0
130.79391,131.00224,78,88,0
130.79391,131.00224,71,88,0
131.00224,131.04391,79,88,0
131.00224,131.04391,76,88,0
131.41891,132.04391,79,114,0
131.41891,132.04391,76,106,0
132.04391,132.46057,79,114,0
132.04391,132.46057,76,106,0
132.46057,132.66891,78,88,0
132.46057,132.66891,71,88,0
132.66891,132.87724,76,88,0
132.66891,132.87724,67,88,0
132.87724,133.29391,76,114,0
132.87724,133.29391,73,106,0
133.29391,133.50224,74,88,0
133.29391,133.50224,68,88,0
133.50224,133.91891,73,88,0
133.50224,133.91891,64,88,0
133.91891,134.54391,73,114,0
133.91891,134.54391,64,106,0
134.54391,134.96057,73,114,0
134.54391,134.96057,69,106,0
134.96057,135.16891,74,88,0
134.96057,135.16891,69,88,0
135.16891,135.37724,76,88,0
135.16891,135.37724,69,88,0
135.16891,135.37724,64,88,0
135.37724,135.79391,78,114,0
135.37724,135.79391,74,109,0
135.37724,135.79391,66,104,0
135.79391,136.00224,79,88,0
135.79391,136.00224,74,88,0
135.79391,136.00224,67,88,0
136.00224,136.04391,81,101,0
136.00224,136.04391,76,101,0
136.00224,136.04391,69,101,0
136.41891,137.04391,81,101,0
136.41891,137.04391,76,101,0
136.41891,137.04391,69,101,0
137.04391,137.25224,81,101,0
137.04391,137.25224,74,101,0
137.25224,137.46057,86,101,0
137.25224,137.46057,78,101,0
137.25224,137.46057,74,101,0
137.46057,137.66891,81,101,0
137.46057,137.66891,74,101,0
137.66891,137.87724,78,101,0
137.66891,137.87724,74,101,0
137.87724,138.08557,74,101,0
138.08557,138.29391,78,101,0
138.08557,138.29391,74,101,0
138.29391,138.50224,81,101,0
138.29391,138.50224,78,101,0
138.29391,138.50224,74,101,0
138.50224,138.54391,83,101,0
138.50224,138.54391,71,101,0
138.50224,138.54391,74,101,0
138.50224,138.54391,79,101,0
138.91891,139.54391,83,127,0
138.91891,139.54391,71,115,0
138.91891,139.54391,74,119,0
138.91891,139.54391,79,123,0
139.54391,139.96057,83,127,0
139.54391,139.96057,74,122,0
139.54391,139.96057,71,117,0
139.96057,140.16891,81,101,0
139.96057,140.16891,76,101,0
139.96057,140.16891,69,101,0
140.16891,140.37724,83,101,0
140.16891,140.37724,74,101,0
140.16891,140.37724,71,101,0
140.37724,140.79391,83,127,0
140.37724,140.79391,74,122,0
140.37724,140.79391,71,117,0
140.79391,141.00224,84,101,0
140.79391,141.00224,74,101,0
140.79391,141.00224,72,101,0
141.00224,141.04391,83,101,0
141.00224,141.04391,74,101,0
141.00224,141.04391,71,101,0
141.41891,142.04391,83,127,0
141.41891,142.04391,74,122,0
141.41891,142.04391,71,117,0
142.04391,142.25224,74,101,0
142.04391,142.25224,71,101,0
142.04391,142.25224,67,101,0
142.25224,142.46057,79,101,0
142.25224,142.46057,71,101,0
142.25224,142.46057,67,101,0
142.46057,142.66891,74,101,0
142.46057,142.66891,71,101,0
142.46057,142.66891,67,101,0
142.66891,142.87724,71,101,0
142.66891,142.87724,67,101,0
142.87724,143.08557,74,101,0
142.87724,143.08557,71,101,0
142.87724,143.08557,67,101,0
143.08557,143.29391,79,101,0
143.08557,143.29391,71,101,0
143.08557,143.29391,67,101,0
143.29391,143.50224,81,101,0
143.29391,143.50224,74,101,0
143.29391,143.50224,69,101,0
143.50224,143.54391,83,101,0
143.50224,143.54391,79,101,0
143.50224,143.54391,71,101,0
143.91891,144.54391,83,127,0
143.91891,144.54391,79,122,0
143.91891,144.54391,71,117,0
144.54391,144.96057,91,127,0
144.54391,144.96057,83,122,0
144.54391,144.96057,79,117,0
144.96057,145.1689,91,101,0
144.96057,145.1689,83,101,0
144.96057,145.1689,79,101,0
145.1689,145.21057,85,101,0
145.1689,145.21057,79,101,0
145.1689,145.21057,73,101,0
145.58557,146.21057,85,127,0
145.58557,146.21057,79,122,0
145.58557,146.21057,73,117,0
146.21057,146.62724,86,127,0
146.21057,146.62724,78,122,0
146.21057,146.62724,74,117,0
146.62724,146.83557,86,101,0
146.62724,146.83557,78,101,0
146.62724,146.83557,74,101,0
146.83557,147.25224,74,101,0
146.83557,147.25224,66,101,0
146.83557,147.25224,62,101,0
147.25224,148.50224,74,127,0
147.25224,148.50224,66,122,0
147.25224,148.50224,62,117,0
148.71057,148.9189,62,36,0
148.9189,149.12724,67,36,0
148.9189,149.12724,59,36,0
149.12724,149.33557,69,36,0
149.12724,149.33557,62,36,0
149.33557,149.37724,71,36,0
149.33557,149.37724,67,36,0
149.75224,150.37724,71,62,0
149.75224,150.37724,67,54,0
150.37724,150.58557,69,36,0
150.37724,150.58557,62,36,0
150.58557,150.7939,71,36,0
150.58557,150.7939,67,36,0
150.7939,151.00224,74,36,0
150.7939,151.00224,69,36,0
151.00224,151.21057,71,36,0
151.00224,151.21057,67,36,0
151.21057,151.4189,69,36,0
151.21057,151.4189,62,36,0
151.4189,151.62724,71,36,0
151.4189,151.62724,67,36,0
151.62724,151.83557,74,36,0
151.62724,151.83557,69,36,0
151.83557,151.87724,71,36,0
151.83557,151.87724,67,36,0
152.25224,152.87724,71,62,0
152.25224,152.87724,67,54,0
152.87724,153.08557,69,36,0
152.87724,153.08557,62,36,0
153.08557,153.2939,71,36,0
153.08557,153.2939,67,36,0
153.2939,153.50224,74,36,0
153.2939,153.50224,69,36,0
153.50224,153.71057,71,36,0
153.50224,153.71057,67,36,0
153.71057,153.9189,69,36,0
153.71057,153.9189,62,36,0
153.9189,154.12724,71,36,0
153.9189,154.12724,67,36,0
154.12724,154.33557,74,36,0
154.12724,154.33557,69,36,0
154.33557,154.37724,76,36,0
154.33557,154.37724,72,36,0
154.75224,155.37724,76,62,0
154.75224,155.37724,72,54,0
155.37724,155.58557,74,36,0
155.37724,155.58557,67,36,0
155.58557,155.7939,76,36,0
155.58557,155.7939,72,36,0
155.7939,156.00224,74,36,0
155.7939,156.00224,67,36,0
156.00224,156.21057,72,36,0
156.00224,156.21057,64,36,0
156.21057,156.4189,67,36,0
156.21057,156.4189,62,36,0
156.4189,156.62724,72,36,0
156.4189,156.62724,64,36,0
156.62724,156.83557,77,36,0
156.62724,156.83557,67,36,0
156.83557,156.87724,76,36,0
156.83557,156.87724,72,36,0
157.25224,157.87723,76,88,0
157.25224,157.87723,72,72,0
157.87723,158.08557,76,36,0
157.87723,158.08557,72,36,0
158.08557,158.2939,79,36,0
158.08557,158.2939,76,36,0
158.2939,158.50223,78,36,0
158.2939,158.50223,74,36,0
158.50223,158.71057,76,36,0
158.50223,158.71057,72,36,0
158.71057,158.9189,72,36,0
158.71057,158.9189,69,36,0
158.9189,159.12723,76,36,0
158.9189,159.12723,72,36,0
159.12723,159.33557,72,36,0
159.12723,159.33557,69,36,0
159.33557,159.37723,69,36,0
159.33557,159.37723,66,36,0
159.75223,160.37723,69,88,0
159.75223,160.37723,66,72,0
160.37723,160.58557,69,36,0
160.37723,160.58557,66,36,0
160.58557,160.7939,72,36,0
160.58557,160.7939,69,36,0
160.7939,161.00223,71,36,0
160.7939,161.00223,67,36,0
161.00223,161.21057,69,36,0
161.00223,161.21057,66,36,0
161.21057,161.4189,71,36,0
161.21057,161.4189,67,36,0
161.4189,161.62723,69,36,0
161.4189,161.62723,66,36,0
161.62723,161.83557,66,36,0
161.62723,161.83557,64,36,0
161.83557,161.87723,71,36,0
161.83557,161.87723,63,36,0
162.25223,162.87723,71,62,0
162.25223,162.87723,63,54,0
162.87723,163.08557,69,36,0
162.87723,163.08557,66,36,0
163.08557,163.2939,72,36,0
163.08557,163.2939,69,36,0
163.2939,163.50223,71,36,0
163.2939,163.50223,67,36,0
163.50223,163.71057,69,36,0
163.50223,163.71057,66,36,0
163.71057,163.9189,71,36,0
163.71057,163.9189,67,36,0
163.9189,164.12723,69,36,0
163.9189,164.12723,66,36,0
164.12723,164.33557,66,36,0
164.12723,164.33557,64,36,0
164.33557,164.37723,71,36,0
164.33557,164.37723,63,36,0
164.75223,165.37723,71,62,0
164.75223,165.37723,63,54,0
165.37723,165.58557,69,36,0
165.37723,165.58557,66,36,0
165.58557,165.7939,72,36,0
165.58557,165.7939,69,36,0
165.7939,166.00223,71,36,0
165.7939,166.00223,67,36,0
166.00223,166.21057,69,36,0
166.00223,166.21057,66,36,0
166.21057,166.4189,71,36,0
166.21057,166.4189,67,36,0
166.4189,166.62723,69,36,0
166.4189,166.62723,66,36,0
166.62723,166.83557,66,36,0
166.62723,166.83557,64,36,0
166.83557,166.87723,71,36,0
166.83557,166.87723,63,36,0
167.25223,167.33557,71,36,0
167.25223,167.33557,63,36,0
168.08557,168.1689,71,36,0
168.08557,168.1689,63,36,0
168.9189,168.96057,71,36,0
168.9189,168.96057,63,36,0
169.33557,169.37723,71,36,0
169.33557,169.37723,63,36,0
169.75223,170.64156,71,36,0
169.75223,170.64156,63,36,0
170.64156,171.62622,71,36,0
170.64156,171.62622,63,36,0
171.62622,171.6798,71,36,0
171.62622,171.6798,63,36,0
172.16194,172.20541,71,49,0
172.16194,172.20541,62,49,0
172.59673,173.27185,71,75,0
172.59673,173.27185,67,67,0
173.27185,173.49245,69,49,0
173.27185,173.49245,62,49,0
173.49245,173.71303,71,49,0
173.49245,173.71303,67,49,0
173.71303,173.93362,74,49,0
173.71303,173.93362,69,49,0
173.93362,174.1542,71,49,0
173.93362,174.1542,67,49,0
174.1542,174.3748,69,49,0
174.1542,174.3748,62,49,0
174.3748,174.59538,71,49,0
174.3748,174.59538,67,49,0
174.59538,174.81598,74,49,0
174.59538,174.81598,69,49,0
174.81598,174.85764,71,49,0
174.81598,174.85764,67,49,0
175.23264,175.85764,71,75,0
175.23264,175.85764,67,67,0
175.85764,176.06598,69,49,0
175.85764,176.06598,62,49,0
176.06598,176.2743,71,49,0
176.06598,176.2743,67,49,0
176.2743,176.48264,74,49,0
176.2743,176.48264,69,49,0
176.48264,176.69096,71,49,0
176.48264,176.69096,67,49,0
176.69096,176.8993,69,49,0
176.69096,176.8993,62,49,0
176.8993,177.10764,71,49,0
176.8993,177.10764,67,49,0
177.10764,177.31596,74,49,0
177.10764,177.31596,69,49,0
177.31596,177.35764,76,49,0
177.31596,177.35764,72,49,0
177.73264,178.35764,76,75,0
177.73264,178.35764,72,67,0
178.35764,178.56596,74,49,0
178.35764,178.56596,67,49,0
178.56596,178.7743,76,49,0
178.56596,178.7743,72,49,0
178.7743,178.98264,74,49,0
178.7743,178.98264,67,49,0
178.98264,179.19096,72,49,0
178.98264,179.19096,64,49,0
179.19096,179.3993,67,49,0
179.19096,179.3993,62,49,0
179.3993,179.60764,72,49,0
179.3993,179.60764,64,49,0
179.60764,179.81596,77,49,0
179.60764,179.81596,67,49,0
179.81596,179.85764,76,49,0
179.81596,179.85764,72,49,0
180.23264,180.85764,76,101,0
180.23264,180.85764,72,85,0
180.85764,181.06596,76,49,0
180.85764,181.06596,72,49,0
181.06596,181.2743,76,49,0
181.06596,181.2743,72,49,0
181.2743,181.48264,76,49,0
181.2743,181.48264,72,49,0
181.48264,182.31596,76,49,0
182.31596,182.35764,76,49,0
182.31596,182.35764,73,49,0
182.73264,183.35764,76,75,0
182.73264,183.35764,73,67,0
183.35764,183.56596,79,49,0
183.35764,183.56596,76,49,0
183.56596,183.7743,82,49,0
183.56596,183.7743,79,49,0
183.7743,183.98264,81,49,0
183.7743,183.98264,77,49,0
183.98264,184.19096,79,49,0
183.98264,184.19096,76,49,0
184.19096,184.3993,81,49,0
184.19096,184.3993,77,49,0
184.3993,184.60764,79,49,0
184.3993,184.60764,76,49,0
184.60764,184.81596,77,49,0
184.60764,184.81596,76,49,0
184.81596,184.85764,81,49,0
184.81596,184.85764,73,49,0
185.23264,185.85764,81,75,0
185.23264,185.85764,73,67,0
185.85764,186.06596,79,49,0
185.85764,186.06596,76,49,0
186.06596,186.2743,82,49,0
186.06596,186.2743,79,49,0
186.2743,186.48264,81,49,0
186.2743,186.48264,77,49,0
186.48264,186.69096,79,49,0
186.48264,186.69096,76,49,0
186.69096,186.8993,81,49,0
186.69096,186.8993,77,49,0
186.8993,187.10764,79,49,0
186.8993,187.10764,76,49,0
187.10764,187.31596,77,49,0
187.10764,187.31596,76,49,0
187.31596,187.35764,81,49,0
187.31596,187.35764,73,49,0
187.73264,188.56596,81,75,0
187.73264,188.56596,73,67,0
188.56596,188.6493,81,49,0
188.56596,188.6493,73,49,0
189.39929,189.44096,81,49,0
189.39929,189.44096,73,49,0
189.81596,189.85764,81,49,0
189.81596,189.85764,73,49,0
190.23264,191.06596,81,75,0
190.23264,191.06596,73,67,0
191.06596,191.09375,81,49,0
191.06596,191.09375,73,49,0
191.27429,191.48264,69,88,0
191.48264,191.5104,74,88,0
191.48264,191.5104,66,88,0
191.69096,192.10764,74,88,0
191.69096,192.10764,66,88,0
192.10764,192.31596,76,88,0
192.10764,192.31596,69,88,0
192.31596,192.35764,78,88,0
192.31596,192.35764,74,88,0
192.73264,193.35764,78,114,0
192.73264,193.35764,74,106,0
193.35764,193.77429,78,114,0
193.35764,193.77429,74,106,0
193.77429,193.98264,76,88,0
193.77429,193.98264,69,88,0
193.98264,194.19096,74,88,0
193.98264,194.19096,66,88,0
194.19096,194.60764,74,88,0
194.19096,194.60764,71,88,0
194.60764,194.81596,73,88,0
194.60764,194.81596,66,88,0
194.81596,194.85764,71,88,0
194.81596,194.85764,62,88,0
195.23264,196.06596,71,114,0
195.23264,196.06596,67,106,0
196.06596,196.48264,71,88,0
196.48264,196.5104,76,88,0
196.48264,196.5104,67,88,0
196.69096,197.10764,76,88,0
196.69096,197.10764,67,88,0
197.10764,197.31596,78,88,0
197.10764,197.31596,71,88,0
197.31596,197.35764,79,88,0
197.31596,197.35764,76,88,0
197.73264,198.35764,79,114,0
197.73264,198.35764,76,106,0
198.35764,198.77429,79,114,0
198.35764,198.77429,76,106,0
198.77429,198.98264,77,88,0
198.77429,198.98264,71,88,0
198.98264,199.19096,76,88,0
198.98264,199.19096,67,88,0
199.19096,199.60764,76,114,0
199.19096,199.60764,72,106,0
199.60764,199.81596,74,88,0
199.60764,199.81596,68,88,0
199.81596,199.85764,72,88,0
199.81596,199.85764,64,88,0
200.23264,200.85764,72,114,0
200.23264,200.85764,64,106,0
200.85764,201.27429,72,88,0
200.85764,201.27429,69,88,0
200.85764,201.27429,60,88,0
201.27429,201.48264,74,88,0
201.27429,201.48264,69,88,0
201.27429,201.48264,62,88,0
201.48264,201.69096,76,88,0
201.48264,201.69096,69,88,0
201.48264,201.69096,64,88,0
201.69096,202.10762,77,88,0
201.69096,202.10762,69,88,0
201.69096,202.10762,65,88,0
202.10762,202.31596,79,88,0
202.10762,202.31596,72,88,0
202.10762,202.31596,67,88,0
202.31596,202.35762,81,101,0
202.31596,202.35762,72,101,0
202.31596,202.35762,69,101,0
202.73262,203.35762,81,127,0
202.73262,203.35762,72,122,0
202.73262,203.35762,69,117,0
203.35762,203.56596,72,101,0
203.35762,203.56596,65,101,0
203.56596,203.77429,77,101,0
203.56596,203.77429,69,101,0
203.56596,203.77429,65,101,0
203.77429,203.98262,72,101,0
203.77429,203.98262,65,101,0
203.98262,204.19096,69,101,0
203.98262,204.19096,65,101,0
204.19096,204.39929,65,101,0
204.39929,204.60762,69,101,0
204.39929,204.60762,65,101,0
204.60762,204.81596,72,101,0
204.60762,204.81596,69,101,0
204.60762,204.81596,65,101,0
204.81596,204.85762,74,101,0
204.81596,204.85762,62,101,0
204.81596,204.85762,65,101,0
204.81596,204.85762,70,101,0
205.23262,205.85762,74,127,0
205.23262,205.85762,62,115,0
205.23262,205.85762,65,119,0
205.23262,205.85762,70,123,0
205.85762,206.27429,74,101,0
205.85762,206.27429,62,101,0
205.85762,206.27429,65,101,0
205.85762,206.27429,70,101,0
206.27429,206.48262,72,101,0
206.27429,206.48262,65,101,0
206.27429,206.48262,60,101,0
206.48262,206.69096,74,101,0
206.48262,206.69096,65,101,0
206.48262,206.69096,62,101,0
206.69096,207.10762,74,101,0
206.69096,207.10762,65,101,0
206.69096,207.10762,62,101,0
207.10762,207.31596,75,101,0
207.10762,207.31596,65,101,0
207.10762,207.31596,63,101,0
207.31596,207.35762,74,101,0
207.31596,207.35762,62,101,0
207.31596,207.35762,65,101,0
207.31596,207.35762,70,101,0
207.73262,208.35762,74,127,0
207.73262,208.35762,62,115,0
207.73262,208.35762,65,119,0
207.73262,208.35762,70,123,0
208.35762,208.56596,77,101,0
208.35762,208.56596,74,101,0
208.35762,208.56596,70,101,0
208.56596,208.77429,82,101,0
208.56596,208.77429,74,101,0
208.56596,208.77429,70,101,0
208.77429,208.98262,77,101,0
208.77429,208.98262,74,101,0
208.77429,208.98262,70,101,0
208.98262,209.19096,74,101,0
208.98262,209.19096,70,101,0
209.19096,209.39929,77,101,0
209.19096,209.39929,74,101,0
209.19096,209.39929,70,101,0
209.39929,209.60762,82,101,0
209.39929,209.60762,74,101,0
209.39929,209.60762,70,101,0
209.60762,209.81596,84,101,0
209.60762,209.81596,77,101,0
209.60762,209.81596,72,101,0
209.81596,209.85762,86,101,0
209.81596,209.85762,82,101,0
209.81596,209.85762,74,101,0
210.23262,210.85762,86,127,0
210.23262,210.85762,82,122,0
210.23262,210.85762,74,117,0
210.85762,211.27429,94,127,0
210.85762,211.27429,86,122,0
210.85762,211.27429,82,117,0
211.27429,211.48262,94,101,0
211.27429,211.48262,86,101,0
211.27429,211.48262,82,101,0
211.48262,211.89929,88,127,0
211.48262,211.89929,82,122,0
211.48262,211.89929,76,117,0
211.89929,212.52429,88,101,0
211.89929,212.52429,82,101,0
211.89929,212.52429,76,101,0
212.52429,212.94096,89,127,0
212.52429,212.94096,81,122,0
212.52429,212.94096,77,117,0
212.94096,213.14929,89,101,0
212.94096,213.14929,81,101,0
212.94096,213.14929,77,101,0
213.14929,213.19096,77,101,0
213.14929,213.19096,69,101,0
213.14929,213.19096,65,101,0
213.56596,214.19096,77,101,0
213.56596,214.19096,69,101,0
213.56596,214.19096,65,101,0
214.19096,214.60762,77,127,0
214.19096,214.60762,69,122,0
214.19096,214.60762,65,117,0
214.60762,214.81595,77,101,0
214.60762,214.81595,69,101,0
214.60762,214.81595,65,101,0
214.81595,214.85762,78,101,0
214.81595,214.85762,69,101,0
214.81595,214.85762,66,101,0
215.23262,215.85762,78,127,0
215.23262,215.85762,69,122,0
215.23262,215.85762,66,117,0
215.85762,216.06595,78,101,0
215.85762,216.06595,69,101,0
216.06595,216.27429,81,101,0
216.06595,216.27429,72,101,0
216.27429,216.48262,79,101,0
216.27429,216.48262,70,101,0
216.48262,216.69095,78,101,0
216.48262,216.69095,69,101,0
216.69095,216.89929,79,101,0
216.69095,216.89929,70,101,0
216.69095,216.89929,67,101,0
216.89929,217.10762,78,101,0
216.89929,217.10762,69,101,0
216.89929,217.10762,66,101,0
217.10762,217.31595,75,101,0
217.10762,217.31595,67,101,0
217.10762,217.31595,63,101,0
217.31595,217.35762,74,101,0
217.31595,217.35762,66,101,0
217.31595,217.35762,62,101,0
217.73262,218.35762,74,127,0
217.73262,218.35762,66,122,0
217.73262,218.35762,62,117,0
218.35762,218.56595,78,36,0
218.35762,218.56595,69,36,0
218.56595,218.77429,81,36,0
218.56595,218.77429,72,36,0
218.77429,218.98262,79,36,0
218.77429,218.98262,70,36,0
218.98262,219.19095,78,36,0
218.98262,219.19095,69,36,0
219.19095,219.39929,79,36,0
219.19095,219.39929,70,36,0
219.19095,219.39929,67,36,0
219.39929,219.60762,78,36,0
219.39929,219.60762,69,36,0
219.39929,219.60762,66,36,0
219.60762,219.81595,75,36,0
219.60762,219.81595,67,36,0
219.60762,219.81595,63,36,0
219.81595,219.85762,74,36,0
219.81595,219.85762,66,36,0
219.81595,219.85762,62,36,0
220.23262,220.85762,74,62,0
220.23262,220.85762,66,57,0
220.23262,220.85762,62,52,0
220.85762,220.89929,74,62,0
220.85762,220.89929,66,57,0
220.85762,220.89929,62,52,0
221.27429,221.30206,74,36,0
221.27429,221.30206,66,36,0
221.27429,221.30206,62,36,0
221.48262,221.52429,74,62,0
221.48262,221.52429,66,57,0
221.48262,221.52429,62,52,0
221.89929,222.52429,74,36,0
221.89929,222.52429,62,36,0
222.52429,222.94095,75,88,0
222.52429,222.94095,63,68,0
221.89929,222.94095,66,36,0
222.94095,222.96873,75,36,0
222.94095,222.96873,66,36,0
222.94095,222.96873,63,36,0
223.14929,223.19095,75,62,0
223.14929,223.19095,66,57,0
223.14929,223.19095,63,52,0
223.56595,224.19095,75,36,0
223.56595,224.19095,66,36,0
223.56595,224.19095,63,36,0
224.19095,224.60762,87,62,0
224.19095,224.60762,78,57,0
224.19095,224.60762,75,52,0
224.60762,224.63539,87,36,0
224.60762,224.63539,78,36,0
224.60762,224.63539,75,36,0
224.81595,224.85762,87,36,0
224.81595,224.85762,78,36,0
224.81595,224.85762,75,36,0
225.23262,225.89467,87,36,0
225.23262,225.89467,78,36,0
225.23262,225.89467,75,36,0
225.89467,225.94012,73,36,0
225.89467,225.94012,64,36,0
225.89467,225.94012,61,36,0
226.36005,226.39178,73,36,0
226.36005,226.39178,64,36,0
226.36005,226.39178,61,36,0
226.59814,226.64899,73,36,0
226.59814,226.64899,64,36,0
226.59814,226.64899,61,36,0
227.10661,227.92534,73,36,0
227.10661,227.92534,64,36,0
227.10661,227.92534,61,36,0
227.92534,228.50836,85,62,0
227.92534,228.50836,77,57,0
227.92534,228.50836,73,52,0
228.50836,228.54837,85,36,0
228.50836,228.54837,77,36,0
228.50836,228.54837,73,36,0
228.80836,228.87358,85,36,0
228.80836,228.87358,77,36,0
228.80836,228.87358,73,36,0
229.46054,230.4388,85,36,0
229.46054,230.4388,77,36,0
229.46054,230.4388,73,36,0
230.4388,231.09097,71,62,0
230.4388,231.09097,62,57,0
230.4388,231.09097,59,52,0
231.09097,231.13445,71,36,0
231.09097,231.13445,62,36,0
231.09097,231.13445,59,36,0
231.74315,232.39532,83,62,0
231.74315,232.39532,75,57,0
231.74315,232.39532,71,52,0
232.39532,232.4388,83,36,0
232.39532,232.4388,75,36,0
232.39532,232.4388,71,36,0
233.0475,233.69966,69,62,0
233.0475,233.69966,60,57,0
233.0475,233.69966,57,52,0
233.69966,233.74315,69,36,0
233.69966,233.74315,60,36,0
233.69966,233.74315,57,36,0
234.35184,235.00401,81,62,0
234.35184,235.00401,73,57,0
234.35184,235.00401,69,52,0
235.00401,235.0475,81,36,0
235.00401,235.0475,73,36,0
235.00401,235.0475,69,36,0
235.98228,237.28662,69,127,0
235.98228,237.28662,59,115,0
235.98228,237.28662,62,119,0
235.98228,237.28662,65,123,0
237.28662,237.35184,69,49,0
237.28662,237.35184,59,49,0
237.28662,237.35184,62,49,0
237.28662,237.35184,65,49,0
238.59097,239.89532,68,62,0
238.59097,239.89532,59,50,0
238.59097,239.89532,62,54,0
238.59097,239.89532,64,58,0
239.89532,239.96054,68,36,0
239.89532,239.96054,59,36,0
239.89532,239.96054,62,36,0
239.89532,239.96054,64,36,0
242.83011,243.03844,76,49,0
243.24677,243.35094,80,49,0
243.35094,243.45511,78,49,0
243.66344,243.76761,76,49,0
243.76761,243.87177,74,49,0
244.08011,244.49677,76,75,0
244.49677,244.70511,73,49,0
244.70511,244.73288,76,49,0
244.91344,244.94121,81,49,0
245.33011,245.35788,81,49,0
245.74677,245.77455,80,49,0
246.16344,246.19121,81,49,0
246.78844,247.41344,82,49,0
247.41344,247.62177,83,49,0
247.83011,247.85788,85,49,0
248.24677,248.27455,86,49,0
248.66344,248.69121,87,49,0
249.28844,249.91344,88,75,0
249.91344,250.12177,90,49,0
250.33011,250.35788,88,49,0
250.74677,250.77455,86,49,0
251.16344,251.19121,83,49,0
251.37177,251.5801,81,49,0
252.41344,252.5176,92,49,0
252.5176,252.62177,90,49,0
252.62177,252.72594,88,49,0
252.72594,252.8301,86,49,0
252.8301,252.93427,85,49,0
252.93427,253.03844,83,49,0
251.5801,253.03844,93,49,0
253.03844,253.24677,81,49,0
253.66344,253.87177,76,49,0
254.0801,254.18427,80,49,0
254.18427,254.28844,78,49,0
254.49677,254.60094,76,49,0
254.60094,254.7051,75,49,0
254.91344,255.3301,76,75,0
255.3301,255.53844,73,49,0
255.53844,255.56621,76,49,0
255.74677,255.77455,81,49,0
256.16342,256.19122,81,49,0
256.5801,256.60788,85,49,0
256.99677,257.02454,87,49,0
257.41342,257.8301,88,49,0
257.8301,258.03842,90,49,0
258.03842,258.24677,92,49,0
258.24677,258.4551,97,49,0
258.66342,258.7676,85,49,0
258.7676,258.87177,88,49,0
259.0801,259.18427,88,49,0
259.18427,259.28842,87,49,0
259.49677,259.60092,87,49,0
259.60092,259.7051,80,49,0
259.91342,260.22592,80,49,0
260.22592,260.3301,82,49,0
260.3301,260.43427,83,49,0
260.43427,260.53842,84,49,0
260.53842,260.56622,85,49,0
260.74677,260.77454,85,49,0
261.16342,261.2676,93,36,0
261.2676,261.37177,97,36,0
261.5801,261.68427,97,36,0
261.68427,261.78842,95,36,0
261.99677,262.10092,95,36,0
262.10092,262.2051,88,36,0
262.41342,262.72592,88,36,0
262.72592,262.8301,90,36,0
262.8301,262.93427,91,36,0
262.93427,263.03842,92,36,0
263.03842,263.24677,93,36,0
263.4551,263.49677,81,36,0
263.4551,263.49677,76,36,0
263.4551,263.49677,73,36,0
263.87177,263.91342,81,36,0
263.87177,263.91342,78,36,0
263.87177,263.91342,74,36,0
264.28842,264.3301,81,36,0
264.28842,264.3301,75,36,0
264.28842,264.3301,72,36,0
264.7051,265.9551,81,62,0
264.7051,265.9551,76,57,0
264.7051,265.9551,73,52,0
265.9551,265.99677,81,36,0
265.9551,265.99677,76,36,0
265.9551,265.99677,73,36,0
266.37177,266.41342,83,36,0
266.37177,266.41342,76,36,0
266.37177,266.41342,73,36,0
266.78842,266.8301,85,36,0
266.78842,266.8301,76,36,0
266.78842,266.8301,73,36,0
267.2051,268.03842,85,62,0
268.03842,268.4551,83,36,0
267.2051,268.4551,78,57,0
267.2051,268.4551,74,52,0
268.4551,268.49677,81,36,0
268.4551,268.49677,74,36,0
268.87177,268.91342,80,36,0
268.87177,268.91342,74,36,0
269.28842,269.3301,78,36,0
269.28842,269.3301,74,36,0
269.7051,270.95508,76,62,0
269.7051,270.95508,74,54,0
270.95508,270.99677,76,36,0
270.95508,270.99677,74,36,0
270.95508,270.99677,68,36,0
271.37177,271.41342,78,36,0
271.37177,271.41342,74,36,0
271.37177,271.41342,69,36,0
271.78842,271.83008,76,36,0
271.78842,271.83008,74,36,0
271.78842,271.83008,68,36,0
272.20508,273.87177,78,62,0
272.20508,273.87177,74,54,0
273.87177,274.28842,76,36,0
273.87177,274.28842,73,36,0
274.28842,274.33008,76,88,0
274.28842,274.33008,73,88,0
274.28842,274.33008,69,88,0
274.70508,274.74677,78,88,0
274.70508,274.74677,74,88,0
274.70508,274.74677,69,88,0
275.12177,275.16342,75,88,0
275.12177,275.16342,72,88,0
275.12177,275.16342,69,88,0
275.53842,276.78842,76,88,0
275.53842,276.78842,73,88,0
275.53842,276.78842,69,88,0
276.78842,276.83008,76,88,0
276.78842,276.83008,73,88,0
276.78842,276.83008,69,88,0
277.20508,277.24677,81,88,0
277.20508,277.24677,76,88,0
277.20508,277.24677,73,88,0
277.62177,277.66342,85,88,0
277.62177,277.66342,81,88,0
277.62177,277.66342,76,88,0
278.03842,279.28842,88,88,0
278.03842,279.28842,76,88,0
278.03842,279.28842,80,88,0
278.03842,279.28842,85,88,0
279.28842,279.33008,85,88,0
279.28842,279.33008,80,88,0
279.28842,279.33008,73,88,0
279.70508,279.74677,87,88,0
279.70508,279.74677,78,88,0
279.70508,279.74677,75,88,0
280.12177,280.16342,92,88,0
280.12177,280.16342,78,88,0
280.12177,280.16342,84,88,0
280.12177,280.16342,87,88,0
280.53842,281.78842,85,88,0
280.53842,281.78842,73,88,0
280.53842,281.78842,76,88,0
280.53842,281.78842,80,88,0
281.78842,281.83008,69,49,0
281.78842,281.83008,64,49,0
282.20508,282.24677,71,49,0
282.20508,282.24677,69,49,0
282.20508,282.24677,63,49,0
282.62177,282.66342,76,49,0
282.62177,282.66342,62,49,0
282.62177,282.66342,68,49,0
282.62177,282.66342,71,49,0
283.03842,284.28842,69,49,0
283.03842,284.28842,61,49,0
284.28842,284.33008,82,88,0
284.28842,284.33008,79,88,0
284.28842,284.33008,73,88,0
284.70508,284.74677,83,88,0
284.70508,284.74677,79,88,0
284.70508,284.74677,74,88,0
285.12177,285.16342,85,88,0
285.12177,285.16342,79,88,0
285.12177,285.16342,76,88,0
285.53842,286.58008,86,114,0
285.53842,286.58008,74,102,0
285.53842,286.58008,79,106,0
285.53842,286.58008,83,110,0
286.58008,286.60788,86,88,0
286.58008,286.60788,83,88,0
286.78842,286.8162,83,88,0
286.78842,286.8162,79,88,0
286.99677,287.02454,79,88,0
286.99677,287.02454,74,88,0
287.20508,287.23288,74,88,0
287.20508,287.23288,71,88,0
287.41342,287.4412,71,88,0
287.41342,287.4412,67,88,0
287.62177,287.64954,67,88,0
287.62177,287.64954,62,88,0
287.83008,287.85785,62,88,0
287.83008,287.85785,59,88,0
288.03842,289.28842,64,88,0
288.03842,289.28842,60,88,0
289.28842,289.3162,62,88,0
289.28842,289.3162,59,88,0
289.49677,289.52454,67,88,0
289.49677,289.52454,62,88,0
289.70508,289.73285,64,88,0
289.70508,289.73285,60,88,0
289.91342,289.9412,72,88,0
289.91342,289.9412,64,88,0
290.12177,290.14954,71,88,0
290.12177,290.14954,65,88,0
290.33008,290.35785,77,88,0
290.33008,290.35785,71,88,0
290.53842,290.58008,76,88,0
290.53842,290.58008,72,88,0
290.95508,290.98285,62,88,0
290.95508,290.98285,59,88,0
291.16342,291.1912,67,88,0
291.16342,291.1912,62,88,0
291.37177,291.39954,64,88,0
291.37177,291.39954,60,88,0
291.58008,291.60785,72,88,0
291.58008,291.60785,64,88,0
291.78842,291.8162,71,88,0
291.78842,291.8162,65,88,0
291.99677,292.02454,77,88,0
291.99677,292.02454,71,88,0
292.20508,292.24677,76,88,0
292.20508,292.24677,72,88,0
292.62177,292.64954,83,88,0
292.62177,292.64954,77,88,0
292.83008,292.85785,89,88,0
292.83008,292.85785,83,88,0
293.03842,293.0662,88,88,0
293.03842,293.0662,84,88,0
293.24677,293.27454,84,88,0
293.24677,293.27454,76,88,0
293.45508,293.48285,83,88,0
293.45508,293.48285,77,88,0
293.66342,293.6912,77,88,0
293.66342,293.6912,71,88,0
293.87177,293.91342,76,88,0
293.87177,293.91342,72,88,0
294.28842,294.33008,76,88,0
294.28842,294.33008,64,88,0
294.28842,294.33008,68,88,0
294.28842,294.33008,74,88,0
294.70508,294.74677,78,101,0
294.70508,294.74677,66,101,0
294.70508,294.74677,69,101,0
294.70508,294.74677,74,101,0
295.12177,295.16342,80,101,0
295.12177,295.16342,68,101,0
295.12177,295.16342,71,101,0
295.12177,295.16342,76,101,0
295.53842,295.58008,81,101,0
295.53842,295.58008,69,101,0
295.53842,295.58008,73,101,0
295.53842,295.58008,76,101,0
295.95508,295.99677,83,101,0
295.95508,295.99677,71,101,0
295.95508,295.99677,75,101,0
295.95508,295.99677,81,101,0
296.37173,296.99673,85,114,0
296.37173,296.99673,73,114,0
296.37173,296.99673,76,114,0
296.37173,296.99673,81,114,0
296.99673,297.20508,69,114,0
297.20508,297.83008,73,114,0
297.83008,298.03842,71,114,0
298.03842,299.28842,69,114,0
298.03842,299.28842,64,114,0
298.03842,299.28842,61,114,0
299.28842,299.49673,76,49,0
299.49673,299.70508,74,49,0
299.70508,299.91342,74,49,0
299.91342,300.12173,73,49,0
300.12173,300.33008,71,49,0
300.33008,300.53842,69,49,0
300.43423,300.53842,69,49,0
300.53842,301.78842,76,75,0
301.78842,301.99673,76,49,0
301.99673,302.20508,74,49,0
302.20508,302.34396,74,49,0
302.34396,302.48285,73,49,0
302.47592,302.6148,71,49,0
302.62173,302.76065,70,49,0
302.76065,302.89954,73,49,0
302.89258,302.96204,74,49,0
302.96896,303.03842,73,49,0
303.03842,304.28842,76,75,0
304.28842,304.49673,70,49,0
304.49673,304.70508,76,49,0
304.70508,304.80923,74,49,0
304.80923,304.91342,76,49,0
304.91342,305.01758,74,49,0
305.01758,305.12173,73,49,0
305.12173,305.22592,71,49,0
305.22592,305.33008,73,49,0
305.33008,305.43423,74,49,0
305.43423,305.53842,76,49,0
305.53842,306.78842,78,75,0
306.78842,307.20508,82,75,0
307.20508,307.62173,83,75,0
307.62173,307.83008,78,75,0
307.83008,308.03842,74,75,0
308.03842,308.87173,73,101,0
308.03842,308.87173,69,93,0
308.87173,309.28842,71,75,0
308.87173,309.28842,68,75,0
309.28842,309.49673,64,75,0
309.49673,309.70508,63,75,0
309.70508,309.91342,64,75,0
309.91342,310.01758,59,75,0
310.01758,310.07312,57,75,0
310.0662,310.12173,59,75,0
310.12173,310.33008,57,75,0
310.33008,310.43423,56,75,0
310.43423,310.53842,56,75,0
310.53842,310.58008,64,75,0
310.95508,311.78842,64,101,0
311.78842,311.99673,64,75,0
311.99673,312.20508,63,75,0
312.20508,312.41342,64,75,0
312.41342,312.51758,60,75,0
312.51758,312.57312,59,75,0
312.5662,312.62173,60,75,0
312.62173,312.83008,59,75,0
312.83008,312.93423,57,75,0
312.93423,313.03842,57,75,0
313.03842,313.08008,65,75,0
313.45508,314.28842,65,101,0
314.28842,314.49673,65,75,0
314.49673,314.70508,64,75,0
314.70508,314.91342,65,75,0
314.91342,315.01758,62,75,0
315.01758,315.07312,60,75,0
315.0662,315.12173,62,75,0
315.12173,315.33008,60,75,0
315.33008,315.43423,59,75,0
315.43423,315.53842,59,75,0
315.53842,315.95508,67,101,0
315.95508,316.37173,71,75,0
315.95508,316.37173,67,75,0
315.95508,316.37173,62,75,0
316.37173,316.78842,72,75,0
316.37173,316.78842,67,75,0
316.37173,316.78842,60,75,0
316.78842,317.20508,74,75,0
316.78842,317.20508,67,75,0
316.78842,317.20508,62,75,0
317.20508,317.62173,76,75,0
317.62173,317.83008,79,75,0
317.83008,318.03842,77,75,0
318.03842,318.87173,77,75,0
318.03842,318.87173,71,75,0
318.87173,319.28842,76,75,0
318.87173,319.28842,72,75,0
318.03842,319.28842,67,75,0
319.28842,319.70508,79,88,0
319.28842,319.70508,76,88,0
319.28842,319.70508,67,88,0
319.70508,320.12173,84,88,0
319.70508,320.12173,79,88,0
319.70508,320.12173,72,88,0
320.12173,320.16342,86,88,0
320.12173,320.16342,79,88,0
320.12173,320.16342,74,88,0
320.53842,320.95508,88,114,0
320.53842,320.95508,79,114,0
320.53842,320.95508,76,114,0
320.95508,321.7884,88,114,0
320.95508,321.7884,79,114,0
320.95508,321.7884,76,114,0
321.7884,322.20508,84,49,0
322.20508,322.62173,79,49,0
321.7884,322.62173,76,49,0
321.7884,322.62173,72,49,0
322.62173,323.0384,77,49,0
322.62173,323.0384,74,49,0
322.62173,323.0384,71,49,0
323.0384,323.45508,76,88,0
323.0384,323.45508,72,88,0
323.45508,324.2884,76,75,0
323.45508,324.2884,72,67,0
324.2884,324.70508,74,36,0
324.2884,324.70508,65,36,0
324.70508,325.12173,72,36,0
324.70508,325.12173,64,36,0
324.2884,325.12173,67,36,0
325.12173,325.5384,67,36,0
325.12173,325.5384,59,36,0
325.5384,325.58008,64,36,0
325.5384,325.58008,60,36,0
325.95508,326.7884,64,62,0
325.95508,326.7884,60,54,0
326.7884,326.99673,64,36,0
326.7884,326.99673,60,36,0
326.99673,327.20508,62,36,0
326.99673,327.20508,59,36,0
327.20508,327.4134,62,36,0
327.20508,327.4134,59,36,0
327.4134,327.62173,64,36,0
327.4134,327.62173,60,36,0
327.62173,327.83008,64,36,0
327.62173,327.83008,60,36,0
327.83008,328.0384,65,36,0
327.83008,328.0384,59,36,0
328.0384,328.45508,64,36,0
328.0384,328.45508,60,36,0
328.45508,328.6634,76,36,0
328.45508,328.6634,72,36,0
328.6634,328.87173,74,36,0
328.6634,328.87173,71,36,0
328.87173,329.08008,74,36,0
329.08008,329.2884,76,36,0
329.2884,329.49673,79,36,0
329.49673,329.70508,77,36,0
329.70508,330.12173,76,36,0
330.12173,330.33008,64,36,0
330.12173,330.33008,60,36,0
330.33008,330.5384,62,36,0
330.33008,330.5384,59,36,0
330.5384,330.74673,62,36,0
330.74673,330.95508,64,36,0
330.95508,331.1634,67,36,0
331.1634,331.37173,65,36,0
331.37173,331.7884,64,36,0
331.7884,332.20508,76,75,0
332.20508,332.4134,76,75,0
332.4134,332.51758,78,75,0
332.51758,332.62173,80,75,0
332.62173,332.93423,78,75,0
332.93423,333.0384,76,75,0
333.0384,333.24673,76,75,0
333.24673,333.45508,81,75,0
333.45508,333.6634,76,75,0
333.6634,333.87173,85,75,0
333.87173,334.70508,80,75,0
334.70508,335.12173,80,36,0
335.12173,335.43423,78,36,0
335.43423,335.5384,76,36,0
335.5384,336.1634,76,36,0
336.7884,337.20508,68,49,0
337.20508,337.62173,73,49,0
337.62173,337.6634,70,49,0
338.0384,338.6634,71,49,0
338.6634,338.87173,59,49,0
338.87173,339.08008,64,49,0
339.49673,339.70508,76,49,0
339.70508,340.12173,78,49,0
339.2884,340.12173,71,49,0
339.08008,340.12173,68,49,0
340.12173,340.1634,80,49,0
340.5384,341.37173,80,75,0
341.37173,341.58008,78,49,0
340.5384,341.58008,73,70,0
340.5384,341.58008,69,65,0
341.58008,341.7884,69,49,0
341.7884,341.99673,73,49,0
341.99673,342.20508,76,49,0
342.20508,342.62173,75,49,0
342.62173,343.0384,73,49,0
343.0384,343.6634,71,75,0
343.6634,343.87173,71,49,0
343.87173,344.08008,75,49,0
344.08008,344.2884,78,49,0
344.2884,344.49673,81,49,0
344.49673,344.6009,83,49,0
344.6009,344.65646,85,49,0
344.6495,344.70508,87,49,0
344.70508,345.12173,85,49,0
345.12173,345.5384,83,49,0
345.5384,346.37173,85,75,0
345.5384,346.37173,81,67,0
346.37173,346.58008,83,49,0
346.37173,346.58008,80,49,0
347.20505,347.62173,73,75,0
346.7884,347.62173,68,62,0
346.7884,347.62173,64,62,0
347.62173,347.6634,72,88,0
347.62173,347.6634,68,88,0
347.62173,347.6634,66,88,0
348.0384,348.6634,73,101,0
348.0384,348.6634,69,101,0
348.0384,348.6634,64,101,0
348.6634,348.87173,63,49,0
348.87173,349.08005,64,49,0
349.08005,349.2884,69,49,0
349.2884,349.49673,73,49,0
349.49673,349.70505,76,49,0
349.70505,350.12173,78,75,0
349.70505,350.12173,76,67,0
350.12173,350.1634,80,49,0
350.12173,350.1634,76,49,0
350.12173,350.1634,74,49,0
350.5384,353.0384,83,88,0
350.5384,353.0384,80,88,0
353.0384,353.45505,81,49,0
353.0384,353.45505,78,49,0
350.5384,353.45505,74,88,0
356.7884,356.89255,81,36,0
355.5384,356.99673,79,36,0
356.89255,356.99673,79,36,0
356.99673,357.1009,78,36,0
357.1009,357.20505,79,36,0
357.20505,357.4134,78,36,0
357.4134,357.62173,79,36,0
357.62173,357.83005,83,36,0
357.83005,358.0384,81,36,0
358.0384,358.45505,78,36,0
358.6634,358.87173,66,36,0
358.87173,359.08005,69,36,0
359.08005,359.2884,74,36,0
359.2884,359.49673,78,36,0
359.49673,359.70505,81,36,0
359.70505,359.74673,80,36,0
360.12173,360.1634,78,36,0
360.5384,361.1634,76,62,0
360.5384,361.1634,69,54,0
361.1634,361.37173,61,36,0
361.37173,361.58005,64,36,0
361.58005,361.7884,69,36,0
361.7884,361.99673,73,36,0
361.99673,362.20505,76,36,0
362.20505,362.24673,75,36,0
362.62173,362.6634,73,36,0
363.0384,363.08005,71,36,0
363.0384,363.08005,64,36,0
363.45505,363.49673,76,36,0
363.45505,363.49673,70,36,0
363.45505,363.49673,66,36,0
363.87173,364.70505,80,75,0
363.87173,364.70505,68,75,0
363.87173,364.70505,71,75,0
363.87173,364.70505,76,75,0
364.70505,365.33005,80,75,0
365.33005,365.5384,78,75,0
365.5384,366.7884,76,75,0
365.5384,366.7884,71,75,0
365.5384,366.7884,68,75,0
366.7884,367.20505,64,88,0
367.20505,367.23282,69,88,0
367.20505,367.23282,61,88,0
367.4134,367.83005,69,88,0
367.4134,367.83005,61,88,0
367.83005,368.0384,71,88,0
367.83005,368.0384,64,88,0
368.0384,368.08005,73,88,0
368.0384,368.08005,69,88,0
368.45505,369.08005,73,114,0
368.45505,369.08005,69,106,0
369.08005,369.49673,73,114,0
369.08005,369.49673,69,106,0
369.49673,369.70505,71,88,0
369.49673,369.70505,64,88,0
369.70505,369.9134,69,88,0
369.70505,369.9134,61,88,0
369.9134,370.33005,69,114,0
369.9134,370.33005,66,106,0
370.33005,370.5384,68,88,0
370.33005,370.5384,61,88,0
370.5384,370.58005,66,88,0
370.5384,370.58005,57,88,0
370.95505,371.7884,66,88,0
370.95505,371.7884,57,88,0
371.7884,372.20505,66,88,0
372.20505,372.23282,71,88,0
372.20505,372.23282,62,88,0
372.4134,372.83005,71,88,0
372.4134,372.83005,62,88,0
372.83005,373.0384,73,88,0
372.83005,373.0384,66,88,0
373.0384,373.08005,74,88,0
373.0384,373.08005,71,88,0
373.45505,374.08005,74,114,0
373.45505,374.08005,71,106,0
374.08005,374.4967,74,88,0
374.08005,374.4967,71,88,0
374.4967,374.70505,73,88,0
374.4967,374.70505,66,88,0
374.70505,374.9134,71,88,0
374.70505,374.9134,62,88,0
374.9134,375.33005,71,114,0
374.9134,375.33005,68,106,0
375.33005,375.5384,69,88,0
375.33005,375.5384,63,88,0
375.5384,375.58005,68,88,0
375.5384,375.58005,59,88,0
375.95505,376.58005,68,114,0
375.95505,376.58005,59,106,0
376.58005,376.9967,68,88,0
376.58005,376.9967,64,88,0
376.58005,376.9967,56,88,0
376.9967,377.20505,69,88,0
376.9967,377.20505,64,88,0
376.9967,377.20505,57,88,0
377.20505,377.4134,71,88,0
377.20505,377.4134,64,88,0
377.20505,377.4134,59,88,0
377.4134,377.83005,73,88,0
377.4134,377.83005,69,88,0
377.4134,377.83005,61,88,0
377.83005,378.0384,74,88,0
377.83005,378.0384,69,88,0
377.83005,378.0384,62,88,0
378.0384,378.45505,76,101,0
378.0384,378.45505,69,101,0
378.0384,378.45505,64,101,0
378.45505,379.08005,76,127,0
378.45505,379.08005,69,122,0
378.45505,379.08005,64,117,0
379.08005,379.2884,76,101,0
379.08005,379.2884,69,101,0
379.2884,379.4967,81,101,0
379.2884,379.4967,73,101,0
379.2884,379.4967,69,101,0
379.4967,379.70505,76,101,0
379.4967,379.70505,69,101,0
379.70505,379.9134,73,101,0
379.70505,379.9134,69,101,0
379.9134,380.1217,69,101,0
380.1217,380.33005,73,101,0
380.1217,380.33005,69,101,0
380.33005,380.5384,76,101,0
380.33005,380.5384,69,101,0
380.5384,380.58005,78,101,0
380.5384,380.58005,69,101,0
380.5384,380.58005,66,101,0
380.95505,381.58005,78,127,0
380.95505,381.58005,69,122,0
380.95505,381.58005,66,117,0
381.58005,381.9967,78,127,0
381.58005,381.9967,69,122,0
381.58005,381.9967,66,117,0
381.9967,382.20505,76,101,0
381.9967,382.20505,69,101,0
381.9967,382.20505,64,101,0
382.20505,382.4134,78,101,0
382.20505,382.4134,69,101,0
382.20505,382.4134,66,101,0
382.4134,382.83005,78,127,0
382.4134,382.83005,69,122,0
382.4134,382.83005,66,117,0
382.83005,383.0384,79,101,0
382.83005,383.0384,69,101,0
382.83005,383.0384,67,101,0
383.0384,383.08005,78,101,0
383.0384,383.08005,74,101,0
383.0384,383.08005,66,101,0
383.45505,384.08005,78,127,0
383.45505,384.08005,74,122,0
383.45505,384.08005,66,117,0
384.08005,384.2884,69,101,0
384.08005,384.2884,62,101,0
384.2884,384.4967,74,101,0
384.2884,384.4967,66,101,0
384.2884,384.4967,62,101,0
384.4967,384.70505,69,101,0
384.4967,384.70505,62,101,0
384.70505,384.9134,66,101,0
384.70505,384.9134,62,101,0
384.9134,385.1217,69,101,0
384.9134,385.1217,62,101,0
385.1217,385.33005,74,101,0
385.1217,385.33005,66,101,0
385.1217,385.33005,62,101,0
385.33005,385.5384,76,101,0
385.33005,385.5384,69,101,0
385.33005,385.5384,64,101,0
385.5384,385.58005,78,101,0
385.5384,385.58005,74,101,0
385.5384,385.58005,66,101,0
385.95505,386.58005,78,127,0
385.95505,386.58005,74,122,0
385.95505,386.58005,66,117,0
386.58005,386.6217,86,127,0
386.58005,386.6217,78,122,0
386.58005,386.6217,74,117,0
386.9967,387.20505,86,101,0
386.9967,387.20505,78,101,0
386.9967,387.20505,74,101,0
387.20505,387.2467,80,101,0
387.20505,387.2467,74,101,0
387.20505,387.2467,68,101,0
387.6217,388.2467,80,101,0
387.6217,388.2467,74,101,0
387.6217,388.2467,68,101,0
388.2467,388.2884,81,127,0
388.2467,388.2884,73,122,0
388.2467,388.2884,69,117,0
388.6634,388.8717,81,101,0
388.6634,388.8717,73,101,0
388.6634,388.8717,69,101,0
388.8717,388.9134,69,101,0
388.8717,388.9134,61,101,0
388.8717,388.9134,57,101,0
389.2884,390.7467,69,127,0
389.2884,390.7467,61,122,0
389.2884,390.7467,57,117,0
390.7467,390.95505,69,36,0
390.95505,391.1634,74,36,0
390.95505,391.1634,66,36,0
391.1634,391.3717,76,36,0
391.1634,391.3717,69,36,0
391.3717,391.4134,78,36,0
391.3717,391.4134,74,36,0
391.7884,392.4134,78,62,0
391.7884,392.4134,74,54,0
392.4134,392.6217,76,36,0
392.4134,392.6217,69,36,0
392.6217,392.83005,78,36,0
392.6217,392.83005,74,36,0
392.83005,393.0384,81,36,0
392.83005,393.0384,76,36,0
393.0384,393.2467,78,36,0
393.0384,393.2467,74,36,0
393.2467,393.45505,76,36,0
393.2467,393.45505,69,36,0
393.45505,393.6634,78,36,0
393.45505,393.6634,74,36,0
393.6634,393.8717,81,36,0
393.6634,393.8717,76,36,0
393.8717,393.9134,78,36,0
393.8717,393.9134,74,36,0
394.2884,394.9134,78,36,0
394.2884,394.9134,74,36,0
394.9134,395.1217,76,36,0
394.9134,395.1217,69,36,0
395.1217,395.33005,78,36,0
395.1217,395.33005,74,36,0
395.33005,395.5384,81,36,0
395.33005,395.5384,76,36,0
395.5384,395.7467,78,36,0
395.5384,395.7467,74,36,0
395.7467,395.95505,76,36,0
395.7467,395.95505,69,36,0
395.95505,396.1634,78,36,0
395.95505,396.1634,74,36,0
396.1634,396.3717,81,36,0
396.1634,396.3717,76,36,0
396.3717,396.4134,83,36,0
396.3717,396.4134,79,36,0
396.7884,397.4134,83,62,0
396.7884,397.4134,79,54,0
397.4134,397.6217,81,36,0
397.4134,397.6217,74,36,0
397.6217,397.83005,83,36,0
397.6217,397.83005,79,36,0
397.83005,398.03836,81,36,0
397.83005,398.03836,74,36,0
398.03836,398.2467,79,36,0
398.03836,398.2467,71,36,0
398.2467,398.45505,74,36,0
398.2467,398.45505,69,36,0
398.45505,398.66336,79,36,0
398.45505,398.66336,71,36,0
398.66336,398.8717,84,36,0
398.66336,398.8717,74,36,0
398.8717,398.91336,83,36,0
398.8717,398.91336,79,36,0
399.28836,399.91336,83,62,0
399.28836,399.91336,79,54,0
399.91336,400.1217,83,36,0
399.91336,400.1217,79,36,0
400.1217,400.33005,86,36,0
400.1217,400.33005,83,36,0
400.33005,400.53836,85,36,0
400.33005,400.53836,81,36,0
400.53836,400.7467,83,36,0
400.53836,400.7467,79,36,0
400.7467,400.95505,79,36,0
400.7467,400.95505,76,36,0
400.95505,401.16336,83,36,0
400.95505,401.16336,79,36,0
401.16336,401.3717,79,36,0
401.16336,401.3717,76,36,0
401.3717,401.41336,76,36,0
401.3717,401.41336,73,36,0
401.78836,402.41336,76,62,0
401.78836,402.41336,73,54,0
402.41336,402.6217,76,36,0
402.41336,402.6217,73,36,0
402.6217,402.83005,79,36,0
402.6217,402.83005,76,36,0
402.83005,403.03836,78,36,0
402.83005,403.03836,74,36,0
403.03836,403.2467,76,36,0
403.03836,403.2467,73,36,0
403.2467,403.45505,78,36,0
403.2467,403.45505,74,36,0
403.45505,403.66336,76,36,0
403.45505,403.66336,73,36,0
403.66336,403.8717,73,36,0
403.66336,403.8717,71,36,0
403.8717,403.91336,78,36,0
403.8717,403.91336,70,36,0
404.28836,404.91336,78,62,0
404.28836,404.91336,70,54,0
404.91336,405.1217,76,36,0
404.91336,405.1217,73,36,0
405.1217,405.33005,79,36,0
405.1217,405.33005,76,36,0
405.33005,405.53836,78,36,0
405.33005,405.53836,74,36,0
405.53836,405.7467,76,36,0
405.53836,405.7467,73,36,0
405.7467,405.95505,78,36,0
405.7467,405.95505,74,36,0
405.95505,406.16336,76,36,0
405.95505,406.16336,73,36,0
406.16336,406.3717,73,36,0
406.16336,406.3717,71,36,0
406.3717,406.41336,78,36,0
406.3717,406.41336,70,36,0
406.78836,407.6217,78,62,0
406.78836,407.6217,70,54,0
407.6217,408.45505,78,62,0
407.6217,408.45505,70,54,0
408.45505,408.4967,78,36,0
408.45505,408.4967,70,36,0
408.8717,408.91336,78,36,0
408.8717,408.91336,69,36,0
409.28836,410.1217,78,62,0
409.28836,410.1217,69,54,0
410.1217,410.95505,78,62,0
410.1217,410.95505,69,54,0
410.95505,411.3717,78,36,0
410.95505,411.3717,69,36,0
411.3717,411.41336,76,36,0
411.3717,411.41336,68,36,0
411.78836,412.41336,76,62,0
411.78836,412.41336,68,54,0
412.41336,412.6217,74,36,0
412.41336,412.6217,71,36,0
412.6217,412.83005,77,36,0
412.6217,412.83005,74,36,0
412.83005,413.03836,76,36,0
412.83005,413.03836,72,36,0
413.03836,413.2467,74,36,0
413.03836,413.2467,71,36,0
413.2467,413.45505,76,36,0
413.2467,413.45505,72,36,0
413.45505,413.66336,74,36,0
413.45505,413.66336,71,36,0
413.66336,413.8717,71,36,0
413.66336,413.8717,69,36,0
413.8717,413.91336,76,36,0
413.8717,413.91336,68,36,0
414.28836,414.91336,76,62,0
414.28836,414.91336,68,54,0
414.91336,415.1217,74,36,0
414.91336,415.1217,71,36,0
415.1217,415.33005,77,36,0
415.1217,415.33005,74,36,0
415.33005,415.53836,76,36,0
415.33005,415.53836,72,36,0
415.53836,415.7467,74,36,0
415.53836,415.7467,71,36,0
415.7467,415.95505,76,36,0
415.7467,415.95505,72,36,0
415.95505,416.16336,74,36,0
415.95505,416.16336,71,36,0
416.16336,416.3717,71,36,0
416.16336,416.3717,69,36,0
416.3717,416.41336,76,36,0
416.3717,416.41336,68,36,0
416.78836,417.6217,76,62,0
416.78836,417.6217,68,54,0
417.6217,417.83005,76,36,0
417.6217,417.83005,68,36,0
417.83005,418.03836,64,88,0
418.03836,418.06613,69,88,0
418.03836,418.06613,61,88,0
418.2467,418.66336,69,88,0
418.2467,418.66336,61,88,0
418.66336,418.8717,71,88,0
418.66336,418.8717,64,88,0
418.8717,418.91336,73,88,0
418.8717,418.91336,69,88,0
419.28836,419.91336,73,114,0
419.28836,419.91336,69,106,0
419.91336,420.33005,73,114,0
419.91336,420.33005,69,106,0
420.33005,420.53836,71,88,0
420.33005,420.53836,64,88,0
420.53836,420.7467,69,88,0
420.53836,420.7467,61,88,0
420.7467,421.16336,69,114,0
420.7467,421.16336,66,106,0
421.16336,421.3717,68,88,0
421.16336,421.3717,61,88,0
421.3717,421.41336,66,88,0
421.3717,421.41336,57,88,0
421.78836,422.6217,66,88,0
421.78836,422.6217,57,88,0
422.6217,423.03836,66,88,0
423.03836,423.06613,71,88,0
423.03836,423.06613,62,88,0
423.2467,423.66336,71,88,0
423.2467,423.66336,62,88,0
423.66336,423.8717,73,88,0
423.66336,423.8717,66,88,0
423.8717,423.91336,74,88,0
423.8717,423.91336,71,88,0
424.28836,424.91336,74,114,0
424.28836,424.91336,71,106,0
424.91336,425.33002,74,88,0
424.91336,425.33002,71,88,0
425.33002,425.53836,72,88,0
425.33002,425.53836,66,88,0
425.53836,425.7467,71,88,0
425.53836,425.7467,62,88,0
425.7467,426.16336,71,114,0
425.7467,426.16336,67,106,0
426.16336,426.3717,69,88,0
426.16336,426.3717,63,88,0
426.3717,426.41336,67,88,0
426.3717,426.41336,59,88,0
426.78836,427.41336,67,114,0
426.78836,427.41336,59,106,0
427.41336,427.83002,67,88,0
427.41336,427.83002,64,88,0
427.41336,427.83002,55,88,0
427.83002,428.03836,69,88,0
427.83002,428.03836,64,88,0
427.83002,428.03836,57,88,0
428.03836,428.2467,71,88,0
428.03836,428.2467,64,88,0
428.03836,428.2467,59,88,0
428.2467,428.66336,72,88,0
428.2467,428.66336,69,88,0
428.2467,428.66336,60,88,0
428.66336,428.8717,74,88,0
428.66336,428.8717,69,88,0
428.66336,428.8717,62,88,0
428.8717,428.91336,76,101,0
428.8717,428.91336,67,101,0
428.8717,428.91336,64,101,0
429.28836,429.91336,76,127,0
429.28836,429.91336,67,122,0
429.28836,429.91336,64,117,0
429.91336,430.1217,79,101,0
429.91336,430.1217,72,101,0
430.1217,430.33002,84,101,0
430.1217,430.33002,76,101,0
430.1217,430.33002,72,101,0
430.33002,430.53836,79,101,0
430.33002,430.53836,72,101,0
430.53836,430.7467,76,101,0
430.53836,430.7467,72,101,0
430.7467,430.95502,72,101,0
430.95502,431.16336,76,101,0
430.95502,431.16336,72,101,0
431.16336,431.3717,79,101,0
431.16336,431.3717,72,101,0
431.3717,431.41336,81,101,0
431.3717,431.41336,69,101,0
431.3717,431.41336,72,101,0
431.3717,431.41336,77,101,0
431.78836,432.41336,81,127,0
431.78836,432.41336,69,115,0
431.78836,432.41336,72,119,0
431.78836,432.41336,77,123,0
432.41336,432.83002,81,101,0
432.41336,432.83002,72,101,0
432.41336,432.83002,69,101,0
432.83002,433.03836,82,101,0
432.83002,433.03836,72,101,0
432.83002,433.03836,70,101,0
433.03836,433.2467,81,101,0
433.03836,433.2467,72,101,0
433.03836,433.2467,69,101,0
433.2467,433.66336,81,101,0
433.2467,433.66336,72,101,0
433.2467,433.66336,69,101,0
433.66336,433.8717,79,101,0
433.66336,433.8717,73,101,0
433.66336,433.8717,67,101,0
433.8717,433.91336,81,101,0
433.8717,433.91336,69,101,0
433.8717,433.91336,74,101,0
433.8717,433.91336,78,101,0
434.28836,434.91336,81,127,0
434.28836,434.91336,69,115,0
434.28836,434.91336,74,119,0
434.28836,434.91336,78,123,0
434.91336,435.1217,81,101,0
434.91336,435.1217,74,101,0
435.1217,435.33002,86,101,0
435.1217,435.33002,78,101,0
435.1217,435.33002,74,101,0
435.33002,435.53836,81,101,0
435.33002,435.53836,78,101,0
435.33002,435.53836,74,101,0
435.53836,435.7467,78,101,0
435.53836,435.7467,74,101,0
435.7467,435.95502,74,101,0
435.95502,436.16336,78,101,0
435.95502,436.16336,74,101,0
436.16336,436.3717,81,101,0
436.16336,436.3717,78,101,0
436.16336,436.3717,74,101,0
436.3717,436.41336,83,101,0
436.3717,436.41336,71,101,0
436.3717,436.41336,74,101,0
436.3717,436.41336,79,101,0
436.78836,437.41336,83,127,0
436.78836,437.41336,71,115,0
436.78836,437.41336,74,119,0
436.78836,437.41336,79,123,0
437.41336,437.83002,83,101,0
437.41336,437.83002,74,101,0
437.41336,437.83002,71,101,0
437.83002,438.03836,84,101,0
437.83002,438.03836,74,101,0
437.83002,438.03836,72,101,0
438.03836,438.2467,83,101,0
438.03836,438.2467,74,101,0
438.03836,438.2467,71,101,0
438.2467,438.66336,83,101,0
438.2467,438.66336,74,101,0
438.2467,438.66336,71,101,0
438.66336,438.8717,81,101,0
438.66336,438.8717,75,101,0
438.66336,438.8717,69,101,0
438.8717,438.91336,83,101,0
438.8717,438.91336,71,101,0
438.8717,438.91336,76,101,0
438.8717,438.91336,80,101,0
439.28836,439.91336,83,127,0
439.28836,439.91336,71,115,0
439.28836,439.91336,76,119,0
439.28836,439.91336,80,123,0
439.91336,440.1217,83,101,0
439.91336,440.1217,76,101,0
440.1217,440.33002,88,101,0
440.1217,440.33002,80,101,0
440.1217,440.33002,76,101,0
440.33002,440.53836,83,101,0
440.33002,440.53836,80,101,0
440.33002,440.53836,76,101,0
440.53836,440.7467,80,101,0
440.53836,440.7467,76,101,0
440.7467,440.95502,76,101,0
440.95502,441.16336,80,101,0
440.95502,441.16336,76,101,0
441.16336,441.3717,83,101,0
441.16336,441.3717,80,101,0
441.16336,441.3717,76,101,0
441.3717,441.41336,84,101,0
441.3717,441.41336,72,101,0
441.3717,441.41336,76,101,0
441.3717,441.41336,81,101,0
441.78836,442.41336,84,127,0
441.78836,442.41336,72,115,0
441.78836,442.41336,76,119,0
441.78836,442.41336,81,123,0
442.41336,442.83002,84,127,0
442.41336,442.83002,72,115,0
442.41336,442.83002,76,119,0
442.41336,442.83002,81,123,0
442.83002,442.8578,84,101,0
442.83002,442.8578,72,101,0
442.83002,442.8578,76,101,0
442.83002,442.8578,81,101,0
443.03836,443.08002,84,101,0
443.03836,443.08002,72,101,0
443.03836,443.08002,76,101,0
443.03836,443.08002,81,101,0
443.45502,444.08002,84,127,0
443.45502,444.08002,72,115,0
443.45502,444.08002,76,119,0
443.45502,444.08002,81,123,0
444.08002,444.4967,84,127,0
444.08002,444.4967,72,115,0
444.08002,444.4967,76,119,0
444.08002,444.4967,81,123,0
444.4967,444.52448,84,101,0
444.4967,444.52448,72,101,0
444.4967,444.52448,76,101,0
444.4967,444.52448,81,101,0
444.70502,445.1217,86,127,0
444.70502,445.1217,74,115,0
444.70502,445.1217,79,119,0
444.70502,445.1217,83,123,0
445.1217,445.7467,86,101,0
445.1217,445.7467,74,101,0
445.1217,445.7467,79,101,0
445.1217,445.7467,83,101,0
445.7467,446.16336,86,127,0
445.7467,446.16336,74,115,0
445.7467,446.16336,79,119,0
445.7467,446.16336,83,123,0
446.16336,446.19113,86,101,0
446.16336,446.19113,74,101,0
446.16336,446.19113,79,101,0
446.16336,446.19113,83,101,0
446.3717,446.41336,86,101,0
446.3717,446.41336,74,101,0
446.3717,446.41336,79,101,0
446.3717,446.41336,83,101,0
446.78836,447.41336,86,127,0
446.78836,447.41336,74,115,0
446.78836,447.41336,79,119,0
446.78836,447.41336,83,123,0
447.41336,447.83002,86,127,0
447.41336,447.83002,74,115,0
447.41336,447.83002,79,119,0
447.41336,447.83002,83,123,0
447.83002,447.8578,86,101,0
447.83002,447.8578,74,101,0
447.83002,447.8578,79,101,0
447.83002,447.8578,83,101,0
448.03836,448.08002,88,101,0
448.03836,448.08002,76,101,0
448.03836,448.08002,79,101,0
448.03836,448.08002,84,101,0
448.45502,449.08002,88,127,0
448.45502,449.08002,76,115,0
448.45502,449.08002,79,119,0
448.45502,449.08002,84,123,0
449.08002,449.49667,88,127,0
449.08002,449.49667,76,115,0
449.08002,449.49667,79,119,0
449.08002,449.49667,84,123,0
449.49667,449.52448,88,101,0
449.49667,449.52448,76,101,0
449.49667,449.52448,79,101,0
449.49667,449.52448,84,101,0
449.70502,449.74667,88,101,0
449.70502,449.74667,76,101,0
449.70502,449.74667,79,101,0
449.70502,449.74667,84,101,0
450.12167,450.74667,88,127,0
450.12167,450.74667,76,115,0
450.12167,450.74667,79,119,0
450.12167,450.74667,84,123,0
450.74667,450.78836,76,49,0
450.74667,450.78836,64,49,0
450.74667,450.78836,67,49,0
450.74667,450.78836,72,49,0
451.16336,451.19113,76,49,0
451.16336,451.19113,64,49,0
451.16336,451.19113,67,49,0
451.16336,451.19113,72,49,0
451.37167,451.78836,76,75,0
451.37167,451.78836,64,63,0
451.37167,451.78836,67,67,0
451.37167,451.78836,72,71,0
451.78836,452.41336,76,49,0
451.78836,452.41336,64,49,0
451.78836,452.41336,67,49,0
451.78836,452.41336,72,49,0
452.41336,452.45502,76,49,0
452.41336,452.45502,64,49,0
452.41336,452.45502,67,49,0
452.41336,452.45502,72,49,0
452.83002,452.8578,76,49,0
452.83002,452.8578,64,49,0
452.83002,452.8578,67,49,0
452.83002,452.8578,72,49,0
453.03836,453.08002,76,49,0
453.03836,453.08002,72,49,0
453.03836,453.08002,65,49,0
453.45502,454.08002,74,49,0
453.45502,454.08002,71,49,0
453.45502,454.08002,65,49,0
454.08002,454.12167,74,36,0
454.08002,454.12167,71,36,0
454.08002,454.12167,65,36,0
454.49667,454.52448,74,36,0
454.49667,454.52448,71,36,0
454.49667,454.52448,65,36,0
454.70502,455.12167,74,62,0
454.70502,455.12167,71,57,0
454.70502,455.12167,64,52,0
455.12167,455.74667,72,36,0
455.12167,455.74667,69,36,0
455.12167,455.74667,64,36,0
455.74667,456.16336,72,62,0
455.74667,456.16336,69,57,0
455.74667,456.16336,64,52,0
456.16336,456.19113,72,36,0
456.16336,456.19113,69,36,0
456.16336,456.19113,64,36,0
456.37167,456.41336,72,36,0
456.37167,456.41336,69,36,0
456.37167,456.41336,64,36,0
456.78836,456.83002,71,36,0
456.78836,456.83002,68,36,0
456.78836,456.83002,64,36,0
458.45502,458.49667,64,36,0
458.45502,458.49667,61,36,0
458.87167,458.91336,66,36,0
458.87167,458.91336,62,36,0
459.28836,459.33002,63,36,0
459.28836,459.33002,60,36,0
459.70502,460.95502,64,36,0
459.70502,460.95502,61,36,0
460.95502,461.37167,69,36,0
460.95502,461.37167,64,36,0
460.95502,461.37167,61,36,0
461.37167,461.41336,71,36,0
461.37167,461.41336,64,36,0
461.37167,461.41336,61,36,0
461.78836,461.83002,73,36,0
461.78836,461.83002,65,36,0
461.78836,461.83002,61,36,0
462.20502,463.03836,73,36,0
463.03836,463.45502,71,36,0
462.20502,463.45502,66,36,0
463.45502,463.66336,71,36,0
463.66336,463.87167,69,36,0
463.87167,464.28836,68,36,0
464.28836,464.70502,66,36,0
464.70502,465.95502,64,36,0
464.70502,465.95502,62,36,0
465.95502,465.99667,64,36,0
465.95502,465.99667,62,36,0
466.16336,466.26752,66,36,0
466.26752,466.37167,68,36,0
466.37167,466.41336,66,36,0
466.37167,466.41336,62,36,0
466.78836,466.83002,64,36,0
466.78836,466.83002,62,36,0
467.20502,468.03836,66,36,0
467.20502,468.03836,62,36,0
468.03836,468.45502,64,36,0
468.03836,468.45502,61,36,0
468.45502,468.49667,76,49,0
468.45502,468.49667,73,49,0
468.45502,468.49667,69,49,0
468.87167,468.91336,78,49,0
468.87167,468.91336,74,49,0
468.87167,468.91336,69,49,0
469.28836,469.33002,75,49,0
469.28836,469.33002,72,49,0
469.28836,469.33002,69,49,0
469.70502,469.7328,76,62,0
469.70502,469.7328,73,62,0
469.70502,469.7328,69,62,0
469.91336,470.33002,85,88,0
469.91336,470.33002,73,76,0
469.91336,470.33002,76,80,0
469.91336,470.33002,81,84,0
470.33002,470.53836,85,62,0
470.33002,470.53836,73,62,0
470.33002,470.53836,76,62,0
470.33002,470.53836,81,62,0
470.53836,470.95502,85,75,0
470.53836,470.95502,73,75,0
470.53836,470.95502,76,75,0
470.53836,470.95502,81,75,0
470.95502,471.16336,85,75,0
470.95502,471.16336,73,75,0
470.95502,471.16336,76,75,0
470.95502,471.16336,81,75,0
471.16336,471.19113,73,75,0
471.16336,471.19113,69,75,0
471.16336,471.19113,64,75,0
471.37167,471.41336,76,75,0
471.37167,471.41336,64,75,0
471.37167,471.41336,69,75,0
471.37167,471.41336,73,75,0
471.78836,471.83002,78,75,0
471.78836,471.83002,66,75,0
471.78836,471.83002,73,75,0
471.78836,471.83002,75,75,0
472.20502,472.2328,80,75,0
472.20502,472.2328,68,75,0
472.20502,472.2328,73,75,0
472.20502,472.2328,76,75,0
472.41336,472.83002,92,101,0
472.41336,472.83002,80,89,0
472.41336,472.83002,85,93,0
472.41336,472.83002,88,97,0
472.83002,473.03836,92,75,0
472.83002,473.03836,80,75,0
472.83002,473.03836,85,75,0
472.83002,473.03836,88,75,0
473.03836,473.45502,92,75,0
473.03836,473.45502,80,75,0
473.03836,473.45502,85,75,0
473.03836,473.45502,88,75,0
473.45502,473.4828,92,75,0
473.45502,473.4828,80,75,0
473.45502,473.4828,85,75,0
473.45502,473.4828,88,75,0
473.66336,473.69113,76,75,0
473.66336,473.69113,68,75,0
473.66336,473.69113,64,75,0
473.87167,473.91336,75,75,0
473.87167,473.91336,68,75,0
473.87167,473.91336,66,75,0
474.28833,474.33002,68,75,0
474.28833,474.33002,66,75,0
474.70502,474.7328,73,75,0
474.70502,474.7328,68,75,0
474.70502,474.7328,64,75,0
474.91333,475.33002,85,101,0
474.91333,475.33002,73,89,0
474.91333,475.33002,76,93,0
474.91333,475.33002,80,97,0
475.33002,475.53833,85,75,0
475.33002,475.53833,73,75,0
475.33002,475.53833,76,75,0
475.33002,475.53833,80,75,0
475.53833,475.95502,85,75,0
475.53833,475.95502,73,75,0
475.53833,475.95502,76,75,0
475.53833,475.95502,80,75,0
475.95502,475.9828,85,75,0
475.95502,475.9828,73,75,0
475.95502,475.9828,76,75,0
475.95502,475.9828,80,75,0
476.16333,476.19113,73,49,0
476.16333,476.19113,64,49,0
476.16333,476.19113,61,49,0
476.37167,476.41333,71,49,0
476.37167,476.41333,64,49,0
476.37167,476.41333,62,49,0
476.78833,476.83002,64,49,0
476.78833,476.83002,62,49,0
477.20502,477.2328,69,49,0
477.20502,477.2328,61,49,0
477.41333,477.83002,81,75,0
477.41333,477.83002,69,63,0
477.41333,477.83002,73,67,0
477.41333,477.83002,78,71,0
477.83002,478.03833,81,49,0
477.83002,478.03833,69,49,0
477.83002,478.03833,73,49,0
477.83002,478.03833,78,49,0
478.03833,478.45502,81,49,0
478.03833,478.45502,69,49,0
478.03833,478.45502,73,49,0
478.03833,478.45502,78,49,0
478.45502,478.4828,81,49,0
478.45502,478.4828,69,49,0
478.45502,478.4828,73,49,0
478.45502,478.4828,78,49,0
478.66333,478.69113,70,88,0
478.66333,478.69113,67,88,0
478.66333,478.69113,61,88,0
478.87167,478.91333,71,88,0
478.87167,478.91333,67,88,0
478.87167,478.91333,62,88,0
479.28833,479.33002,73,88,0
479.28833,479.33002,64,88,0
479.28833,479.33002,67,88,0
479.28833,479.33002,70,88,0
479.70502,479.91333,74,101,0
479.70502,479.91333,62,101,0
479.70502,479.91333,67,101,0
479.70502,479.91333,71,101,0
479.91333,480.33002,86,127,0
479.91333,480.33002,74,115,0
479.91333,480.33002,79,119,0
479.91333,480.33002,83,123,0
480.33002,480.53833,86,101,0
480.33002,480.53833,74,101,0
480.33002,480.53833,79,101,0
480.33002,480.53833,83,101,0
480.53833,480.58002,86,101,0
480.53833,480.58002,74,101,0
480.53833,480.58002,79,101,0
480.53833,480.58002,83,101,0
480.95502,481.58002,86,127,0
480.95502,481.58002,74,115,0
480.95502,481.58002,79,119,0
480.95502,481.58002,83,123,0
481.58002,481.99667,74,75,0
481.58002,481.99667,62,63,0
481.58002,481.99667,66,67,0
481.58002,481.99667,69,71,0
481.99667,482.20502,74,49,0
481.99667,482.20502,62,49,0
481.99667,482.20502,66,49,0
481.99667,482.20502,69,49,0
482.20502,482.24667,74,49,0
482.20502,482.24667,62,49,0
482.20502,482.24667,66,49,0
482.20502,482.24667,69,49,0
482.62167,483.24667,74,49,0
482.62167,483.24667,62,49,0
482.62167,483.24667,66,49,0
482.62167,483.24667,69,49,0
483.24667,483.66333,86,127,0
483.24667,483.66333,74,115,0
483.24667,483.66333,79,119,0
483.24667,483.66333,83,123,0
483.66333,483.87167,86,101,0
483.66333,483.87167,74,101,0
483.66333,483.87167,79,101,0
483.66333,483.87167,83,101,0
483.87167,483.91333,86,101,0
483.87167,483.91333,74,101,0
483.87167,483.91333,79,101,0
483.87167,483.91333,83,101,0
484.28833,484.91333,86,127,0
484.28833,484.91333,74,115,0
484.28833,484.91333,79,119,0
484.28833,484.91333,83,123,0
484.91333,485.33002,74,75,0
484.91333,485.33002,62,63,0
484.91333,485.33002,66,67,0
484.91333,485.33002,69,71,0
485.33002,485.53833,74,49,0
485.33002,485.53833,62,49,0
485.33002,485.53833,66,49,0
485.33002,485.53833,69,49,0
485.53833,485.58002,74,49,0
485.53833,485.58002,62,49,0
485.53833,485.58002,66,49,0
485.53833,485.58002,69,49,0
485.95502,486.58002,74,101,0
485.95502,486.58002,62,101,0
485.95502,486.58002,66,101,0
485.95502,486.58002,69,101,0
486.58002,486.99667,86,101,0
486.58002,486.99667,74,101,0
486.58002,486.99667,79,101,0
486.58002,486.99667,83,101,0
486.99667,487.20502,86,101,0
486.99667,487.20502,74,101,0
486.99667,487.20502,79,101,0
486.99667,487.20502,83,101,0
487.20502,487.62167,86,101,0
487.20502,487.62167,74,101,0
487.20502,487.62167,79,101,0
487.20502,487.62167,83,101,0
487.62167,488.03833,83,101,0
487.62167,488.03833,79,101,0
487.62167,488.03833,74,101,0
488.03833,488.45502,79,101,0
488.03833,488.45502,74,101,0
488.03833,488.45502,71,101,0
488.45502,488.87167,74,101,0
488.45502,488.87167,71,101,0
488.45502,488.87167,67,101,0
488.87167,489.28833,71,101,0
488.87167,489.28833,67,101,0
488.87167,489.28833,62,101,0
489.28833,489.70502,67,101,0
489.28833,489.70502,62,101,0
489.28833,489.70502,59,101,0
489.70502,492.20502,65,114,0
489.70502,492.20502,62,114,0
489.70502,492.20502,55,114,0
492.20502,494.70502,65,101,0
492.20502,494.70502,62,101,0
492.20502,494.70502,55,101,0
494.70502,496.16333,64,75,0
496.05917,496.16333,64,49,0
496.16333,496.26752,66,49,0
496.26752,496.37167,68,49,0
494.70502,496.37167,56,65,0
494.70502,496.37167,62,70,0
496.37167,496.99667,66,49,0
496.99667,497.20502,64,49,0
497.20502,498.66333,64,49,0
498.55917,498.66333,64,49,0
498.66333,498.76752,66,49,0
498.76752,498.87167,68,49,0
497.20502,498.87167,56,49,0
497.20502,498.87167,62,49,0
498.87167,499.49667,66,49,0
499.49667,499.705,64,49,0
499.705,499.91333,64,49,0
499.91333,500.12167,69,49,0
500.12167,500.33,68,49,0
500.33,500.53833,69,49,0
500.53833,501.37167,73,49,0
501.37167,501.99667,73,49,0
501.99667,502.205,71,49,0
502.205,502.41333,69,36,0
502.205,502.41333,64,36,0
502.205,502.41333,61,36,0
502.41333,502.83,69,62,0
502.41333,502.83,57,50,0
502.41333,502.83,61,54,0
502.41333,502.83,64,58,0
502.83,502.8578,69,36,0
502.83,502.8578,57,36,0
502.83,502.8578,61,36,0
502.83,502.8578,64,36,0
503.03833,503.08,69,36,0
503.03833,503.08,57,36,0
503.03833,503.08,61,36,0
503.03833,503.08,64,36,0
503.455,503.49667,69,36,0
503.455,503.49667,57,36,0
503.455,503.49667,61,36,0
503.455,503.49667,64,36,0
504.91333,505.33,69,62,0
504.91333,505.33,57,50,0
504.91333,505.33,61,54,0
504.91333,505.33,67,58,0
505.33,505.3578,69,36,0
505.33,505.3578,57,36,0
505.33,505.3578,61,36,0
505.33,505.3578,67,36,0
505.53833,505.58,69,36,0
505.53833,505.58,57,36,0
505.53833,505.58,61,36,0
505.53833,505.58,67,36,0
505.955,505.99667,69,36,0
505.955,505.99667,57,36,0
505.955,505.99667,61,36,0
505.955,505.99667,67,36,0
507.41333,507.83,69,62,0
507.41333,507.83,57,50,0
507.41333,507.83,62,54,0
507.41333,507.83,66,58,0
507.83,507.8578,69,36,0
507.83,507.8578,57,36,0
507.83,507.8578,62,36,0
507.83,507.8578,66,36,0
508.03833,508.08,69,36,0
508.03833,508.08,57,36,0
508.03833,508.08,62,36,0
508.03833,508.08,66,36,0
508.455,508.49667,69,36,0
508.455,508.49667,57,36,0
508.455,508.49667,62,36,0
508.455,508.49667,66,36,0
509.91333,510.33,68,62,0
509.91333,510.33,57,50,0
509.91333,510.33,62,54,0
509.91333,510.33,65,58,0
510.33,510.3578,68,36,0
510.33,510.3578,57,36,0
510.33,510.3578,62,36,0
510.33,510.3578,65,36,0
510.53833,510.58,68,36,0
510.53833,510.58,57,36,0
510.53833,510.58,62,36,0
510.53833,510.58,65,36,0
510.955,510.99667,68,36,0
510.955,510.99667,57,36,0
510.955,510.99667,62,36,0
510.955,510.99667,65,36,0
512.4133,512.83,69,62,0
512.4133,512.83,57,50,0
512.4133,512.83,61,54,0
512.4133,512.83,64,58,0
512.83,512.8578,69,36,0
512.83,512.8578,57,36,0
512.83,512.8578,61,36,0
512.83,512.8578,64,36,0
513.0383,513.08,69,36,0
513.0383,513.08,57,36,0
513.0383,513.08,61,36,0
513.0383,513.08,64,36,0
513.455,513.49664,69,36,0
513.455,513.49664,57,36,0
513.455,513.49664,61,36,0
513.455,513.49664,64,36,0
514.9133,515.33,67,62,0
514.9133,515.33,58,50,0
514.9133,515.33,61,54,0
514.9133,515.33,64,58,0
515.33,515.3578,67,36,0
515.33,515.3578,58,36,0
515.33,515.3578,61,36,0
515.33,515.3578,64,36,0
515.5383,515.58,67,36,0
515.5383,515.58,58,36,0
515.5383,515.58,61,36,0
515.5383,515.58,64,36,0
515.955,515.99664,67,36,0
515.955,515.99664,58,36,0
515.955,515.99664,61,36,0
515.955,515.99664,64,36,0
517.4133,517.83,66,62,0
517.4133,517.83,62,57,0
517.4133,517.83,57,52,0
517.83,517.8578,66,36,0
517.83,517.8578,62,36,0
517.83,517.8578,57,36,0
518.0383,518.08,66,36,0
518.0383,518.08,62,36,0
518.0383,518.08,57,36,0
518.455,518.49664,66,36,0
518.455,518.49664,62,36,0
518.455,518.49664,57,36,0
519.9133,519.955,65,62,0
519.9133,519.955,56,50,0
519.9133,519.955,59,54,0
519.9133,519.955,62,58,0
520.33905,520.36804,65,36,0
520.33905,520.36804,56,36,0
520.33905,520.36804,59,36,0
520.33905,520.36804,62,36,0
520.55646,520.60187,65,36,0
520.55646,520.60187,56,36,0
520.55646,520.60187,59,36,0
520.55646,520.60187,62,36,0
521.011,521.0586,65,36,0
521.011,521.0586,56,36,0
521.011,521.0586,59,36,0
521.011,521.0586,62,36,0
522.8144,522.871,64,36,0
522.8144,522.871,52,36,0
522.8144,522.871,57,36,0
522.8144,522.871,61,36,0
523.3974,523.4374,64,36,0
523.3974,523.4374,52,36,0
523.3974,523.4374,57,36,0
523.3974,523.4374,61,36,0
523.6974,523.76263,64,36,0
523.6974,523.76263,52,36,0
523.6974,523.76263,57,36,0
523.6974,523.76263,61,36,0
524.3496,524.4148,64,36,0
524.3496,524.4148,52,36,0
524.3496,524.4148,57,36,0
524.3496,524.4148,61,36,0
525.0018,525.06696,61,36,0
525.0018,525.06696,57,36,0
525.0018,525.06696,52,36,0
525.65393,525.7191,61,36,0
525.65393,525.7191,57,36,0
525.65393,525.7191,52,36,0
526.3061,530.2191,57,36,0
526.3061,530.2191,52,36,0
526.3061,530.2191,49,36,0
2.499999,3.333332,64,36,0
2.499999,3.333332,61,36,0
3.333332,3.3749986,65,36,0
3.333332,3.3749986,61,36,0
22.49999,23.333324,64,36,0
22.49999,23.333324,61,36,0
23.333324,23.37499,65,36,0
23.333324,23.37499,61,36,0
53.433426,54.401165,68,62,0
53.433426,54.401165,64,62,0
53.433426,54.401165,62,62,0
73.567825,73.98449,65,36,0
73.567825,73.98449,62,36,0
73.98449,74.40116,69,36,0
73.98449,74.40116,65,36,0
86.90115,87.31782,58,36,0
87.31782,87.7526,57,36,0
97.25226,97.66892,69,36,0
97.66892,98.085594,71,36,0
97.25226,98.085594,64,36,0
97.25226,98.085594,57,36,0
98.085594,98.12726,69,36,0
98.085594,98.12726,65,36,0
98.085594,98.12726,57,36,0
98.50226,99.335594,70,62,0
99.335594,99.75226,71,36,0
98.50226,99.75226,66,57,0
98.50226,99.75226,62,52,0
113.50225,116.00225,66,36,0
113.50225,116.00225,62,36,0
122.668915,123.50225,68,75,0
122.668915,123.50225,64,75,0
122.668915,123.50225,62,75,0
134.54391,134.96057,61,75,0
134.96057,135.16891,62,75,0
181.48264,181.69096,74,75,0
181.69096,181.8993,71,75,0
181.8993,182.10764,73,75,0
182.10764,182.31596,74,75,0
297.20508,298.03842,68,101,0
297.20508,298.03842,64,101,0
297.20508,298.03842,62,101,0
305.95508,306.37173,70,62,0
306.37173,306.78842,71,62,0
306.78842,307.20508,73,62,0
307.20508,307.62173,74,62,0
307.62173,308.03842,71,62,0
317.20508,317.62173,67,62,0
317.20508,317.62173,64,62,0
317.62173,318.03842,71,62,0
317.62173,318.03842,67,62,0
328.87173,329.08008,71,36,0
329.08008,329.2884,72,36,0
329.2884,329.70508,71,36,0
329.70508,330.12173,72,36,0
330.5384,330.74673,59,36,0
330.74673,330.95508,60,36,0
330.95508,331.37173,59,36,0
331.37173,331.7884,60,36,0
331.7884,332.20508,72,62,0
332.20508,332.62173,74,62,0
332.62173,333.0384,74,62,0
333.0384,333.45508,73,62,0
333.45508,333.87173,73,62,0
333.87173,334.70508,76,62,0
333.87173,334.70508,71,62,0
334.70508,335.5384,75,36,0
334.70508,335.5384,69,36,0
335.5384,336.1634,68,36,0
336.1634,336.37173,56,36,0
336.37173,336.58008,59,36,0
336.58008,336.7884,64,36,0
336.99673,337.20508,71,36,0
337.20508,337.62173,69,36,0
337.62173,337.6634,67,36,0
338.0384,338.6634,68,36,0
340.12173,340.1634,72,36,0
340.12173,340.1634,68,36,0
341.7884,342.62173,69,36,0
342.62173,343.0384,69,36,0
343.0384,343.6634,69,36,0
345.12173,345.5384,81,36,0
355.5384,358.0384,73,36,0
358.0384,358.45505,74,36,0
355.5384,358.45505,69,36,0
359.49673,359.70505,74,36,0
359.70505,359.74673,76,36,0
359.49673,359.74673,69,36,0
360.12173,360.1634,69,36,0
361.99673,362.20505,69,36,0
362.20505,362.24673,71,36,0
361.99673,362.24673,64,36,0
362.62173,362.6634,64,36,0
364.70505,365.5384,75,62,0
364.70505,365.5384,71,62,0
364.70505,365.5384,69,62,0
459.91336,459.95502,73,36,0
459.91336,459.95502,69,36,0
460.33002,460.3578,73,36,0
460.33002,460.3578,69,36,0
460.53836,460.58002,73,36,0
460.53836,460.58002,69,36,0
460.95502,460.99667,73,36,0
462.41336,462.45502,78,62,0
462.41336,462.45502,76,54,0
462.83002,462.8578,78,36,0
462.83002,462.8578,76,36,0
463.03836,463.08002,78,36,0
463.03836,463.08002,74,36,0
463.45502,463.49667,78,36,0
463.45502,463.49667,74,36,0
463.45502,463.49667,66,36,0
463.87167,464.28836,62,36,0
464.28836,464.70502,62,36,0
464.91336,465.33002,76,62,0
464.91336,465.33002,74,54,0
465.33002,465.3578,76,36,0
465.33002,465.3578,74,36,0
465.53836,465.58002,76,36,0
465.53836,465.58002,74,36,0
465.95502,465.99667,76,36,0
465.95502,465.99667,74,36,0
467.41336,467.45502,69,36,0
467.83002,467.8578,69,36,0
468.03836,468.08002,69,36,0
499.705,500.12167,61,36,0
500.12167,500.53833,63,36,0
500.53833,501.37167,64,36,0
501.37167,502.205,68,36,0
501.37167,502.205,64,36,0
501.37167,502.205,62,36,0
0.0,0.4166665,52,36,0
0.4166665,0.833333,54,62,0
0.0,0.833333,45,36,0
0.833333,0.87499964,51,36,0
0.833333,0.87499964,45,36,0
1.2499995,2.499999,52,62,0
1.2499995,2.499999,45,54,0
2.499999,2.9166656,57,36,0
2.9166656,3.333332,59,36,0
2.499999,3.333332,52,36,0
2.499999,3.333332,45,36,0
3.333332,3.3749986,57,36,0
3.333332,3.3749986,53,36,0
3.333332,3.3749986,45,36,0
3.7499986,4.5833316,58,36,0
3.7499986,4.5833316,54,36,0
3.7499986,4.5833316,50,36,0
4.5833316,4.999998,59,36,0
4.5833316,4.999998,54,36,0
4.5833316,4.999998,50,36,0
4.999998,5.4166646,54,36,0
4.999998,5.4166646,50,36,0
5.4166646,5.833331,56,36,0
5.4166646,5.833331,52,36,0
5.833331,5.8749976,57,36,0
5.833331,5.8749976,54,36,0
6.2499976,7.499997,52,36,0
6.2499976,7.499997,44,36,0
7.499997,7.9166636,52,36,0
7.499997,7.9166636,44,36,0
7.9166636,8.33333,54,36,0
7.9166636,8.33333,44,36,0
8.33333,8.374996,52,36,0
8.33333,8.374996,44,36,0
8.749996,9.583329,54,62,0
9.583329,9.999996,52,62,0
8.749996,9.999996,45,54,0
9.999996,10.416662,49,62,0
10.416662,10.833329,54,62,0
9.999996,10.833329,45,62,0
10.833329,10.874995,51,62,0
10.833329,10.874995,45,62,0
11.249995,12.499995,52,62,0
11.249995,12.499995,45,62,0
12.499995,12.916661,61,62,0
12.916661,13.333328,57,62,0
13.333328,13.749994,52,62,0
13.333328,13.749994,45,62,0
13.749994,14.999994,56,75,0
13.749994,14.999994,52,75,0
13.749994,14.999994,44,75,0
14.999994,15.41666,61,36,0
15.41666,15.833327,60,62,0
14.999994,15.833327,56,36,0
15.833327,15.874993,63,36,0
15.833327,15.874993,56,36,0
16.249994,17.499992,61,36,0
16.249994,17.499992,56,36,0
16.249994,17.499992,49,36,0
17.499992,17.91666,57,36,0
17.91666,18.333326,56,62,0
17.499992,18.333326,52,36,0
18.333326,18.374992,59,36,0
18.333326,18.374992,52,36,0
18.749992,19.583326,57,36,0
18.749992,19.583326,52,36,0
18.749992,19.583326,45,36,0
19.999992,20.416658,52,36,0
20.416658,20.833324,54,62,0
19.999992,20.833324,45,36,0
20.833324,20.874992,51,36,0
20.833324,20.874992,45,36,0
21.249992,22.49999,52,62,0
21.249992,22.49999,45,54,0
22.49999,22.916658,57,36,0
22.916658,23.333324,59,36,0
22.49999,23.333324,52,36,0
22.49999,23.333324,45,36,0
23.333324,23.37499,57,36,0
23.333324,23.37499,53,36,0
23.333324,23.37499,45,36,0
23.74999,24.583324,58,36,0
23.74999,24.583324,54,36,0
23.74999,24.583324,50,36,0
24.583324,24.99999,59,36,0
24.583324,24.99999,54,36,0
24.583324,24.99999,50,36,0
24.99999,25.416656,54,36,0
24.99999,25.416656,50,36,0
25.416656,25.833323,56,36,0
25.416656,25.833323,52,36,0
25.833323,25.87499,57,36,0
25.833323,25.87499,54,36,0
26.249989,27.499989,52,36,0
26.249989,27.499989,44,36,0
27.499989,27.916655,52,36,0
27.499989,27.916655,44,36,0
27.916655,28.333323,54,36,0
27.916655,28.333323,44,36,0
28.333323,28.374989,52,36,0
28.333323,28.374989,44,36,0
28.749989,29.58332,54,62,0
29.58332,29.999989,52,62,0
28.749989,29.999989,45,54,0
29.999989,30.416655,49,62,0
30.416655,30.83332,54,62,0
29.999989,30.83332,45,62,0
30.83332,30.874989,51,62,0
30.83332,30.874989,45,62,0
31.249987,32.49999,52,62,0
31.249987,32.49999,45,62,0
32.49999,32.916653,61,62,0
32.916653,33.33332,57,62,0
33.33332,33.749985,52,62,0
33.33332,33.749985,45,62,0
33.749985,34.999985,56,75,0
33.749985,34.999985,52,75,0
33.749985,34.999985,44,75,0
34.999985,35.416653,61,36,0
35.416653,35.83332,60,62,0
34.999985,35.83332,56,36,0
35.83332,35.874985,63,36,0
35.83332,35.874985,56,36,0
36.249985,37.499985,61,36,0
36.249985,37.499985,56,36,0
36.249985,37.499985,49,36,0
37.499985,37.916653,57,36,0
37.916653,38.333317,56,62,0
37.499985,38.333317,52,36,0
38.333317,38.374985,59,36,0
38.333317,38.374985,52,36,0
38.749985,39.999985,57,36,0
38.749985,39.999985,54,36,0
39.999985,40.41665,52,75,0
40.41665,40.833317,50,75,0
39.999985,40.833317,55,75,0
40.833317,40.874985,55,75,0
40.833317,40.874985,49,75,0
41.249985,42.499985,55,88,0
41.249985,42.499985,47,88,0
42.499985,42.91665,50,36,0
42.91665,43.333317,53,36,0
42.499985,43.333317,55,36,0
43.333317,43.37498,55,36,0
43.74998,44.99998,55,36,0
43.74998,44.99998,48,36,0
44.99998,45.41665,55,36,0
44.99998,45.41665,43,36,0
45.41665,45.833317,55,36,0
45.41665,45.833317,48,36,0
45.833317,46.24998,55,36,0
45.833317,46.24998,50,36,0
46.24998,46.66665,55,36,0
46.24998,46.66665,48,36,0
46.66665,47.083313,67,36,0
46.66665,47.083313,55,36,0
47.083313,47.49998,67,36,0
47.083313,47.49998,60,36,0
47.49998,47.91665,67,36,0
47.49998,47.91665,62,36,0
47.91665,48.333313,67,36,0
47.91665,48.333313,60,36,0
48.333313,48.74998,55,36,0
48.333313,48.74998,43,36,0
48.74998,49.16665,55,36,0
48.74998,49.16665,48,36,0
49.16665,49.60143,55,36,0
49.16665,49.60143,50,36,0
49.60143,50.055977,55,36,0
49.60143,50.055977,48,36,0
50.055977,50.532166,56,36,0
50.055977,50.532166,52,36,0
50.055977,50.532166,47,36,0
50.532166,51.04064,56,49,0
50.532166,51.04064,52,49,0
50.532166,51.04064,47,49,0
51.04064,51.576355,56,49,0
51.04064,51.576355,52,49,0
51.04064,51.576355,47,49,0
51.576355,51.61983,57,62,0
51.576355,51.61983,52,62,0
51.576355,51.61983,49,62,0
52.011135,52.05659,59,62,0
52.011135,52.05659,57,62,0
52.011135,52.05659,54,62,0
52.465683,53.433426,61,75,0
52.465683,53.433426,57,75,0
52.465683,53.433426,52,75,0
53.433426,54.401165,52,62,0
53.433426,54.401165,40,62,0
54.401165,55.651165,52,62,0
54.401165,55.651165,45,62,0
55.651165,56.067833,52,36,0
56.067833,56.4845,49,36,0
56.4845,56.526165,45,36,0
56.796997,56.901165,45,36,0
56.901165,58.151165,52,49,0
58.151165,58.567833,52,49,0
58.567833,58.984497,49,49,0
58.984497,59.026165,46,49,0
59.296997,59.401165,46,49,0
59.401165,60.651165,52,62,0
60.651165,61.06783,52,62,0
61.06783,61.484497,50,88,0
61.484497,61.526165,47,62,0
61.796997,61.901165,47,62,0
61.901165,61.94283,54,75,0
62.31783,62.359497,54,75,0
62.31783,62.359497,52,75,0
62.734497,62.776165,54,62,0
62.734497,62.776165,50,62,0
63.15116,63.19283,54,62,0
63.15116,63.19283,46,62,0
63.56783,63.609497,54,49,0
63.56783,63.609497,47,49,0
63.984497,64.02616,50,36,0
63.984497,64.02616,41,36,0
64.40116,65.65116,52,36,0
64.40116,65.65116,40,36,0
65.65116,66.067825,52,36,0
66.067825,66.4845,47,36,0
66.4845,66.52616,44,36,0
66.797,66.90116,44,36,0
66.90116,68.15116,52,36,0
68.15116,68.567825,52,49,0
68.567825,68.9845,48,49,0
68.9845,69.02616,45,49,0
69.297,69.40116,45,49,0
69.40116,70.65116,52,101,0
70.65116,71.067825,52,88,0
71.067825,71.48449,49,88,0
71.48449,71.52616,46,88,0
71.79699,71.90116,46,88,0
71.90116,71.942825,53,101,0
72.317825,72.35949,53,75,0
72.317825,72.35949,51,75,0
72.73449,72.77616,53,62,0
72.73449,72.77616,50,62,0
73.15116,73.192825,53,36,0
73.15116,73.192825,45,36,0
73.567825,73.60949,53,36,0
73.567825,73.60949,46,36,0
73.98449,74.02616,53,36,0
73.98449,74.02616,48,36,0
74.40116,75.23449,53,62,0
74.40116,75.23449,48,62,0
75.23449,75.65116,53,62,0
75.23449,75.65116,46,62,0
75.65116,76.067825,53,75,0
75.65116,76.067825,41,75,0
76.067825,76.48449,55,75,0
76.067825,76.48449,53,75,0
76.067825,76.48449,43,75,0
76.48449,76.52616,57,75,0
76.48449,76.52616,53,75,0
76.48449,76.52616,45,75,0
76.90116,78.15115,58,75,0
76.90116,78.15115,53,75,0
76.90116,78.15115,46,75,0
78.15115,78.567825,50,62,0
78.567825,78.98449,53,62,0
78.15115,78.98449,62,62,0
78.15115,78.98449,58,62,0
78.98449,79.02615,63,62,0
78.98449,79.02615,60,62,0
79.40115,80.65115,62,62,0
79.40115,80.65115,58,62,0
79.40115,80.65115,56,62,0
80.65115,81.067825,45,36,0
81.067825,81.48449,46,36,0
80.65115,81.48449,53,36,0
81.48449,81.90115,53,36,0
81.48449,81.90115,48,36,0
81.90115,83.15115,53,36,0
81.90115,83.15115,46,36,0
83.15115,83.56782,53,36,0
83.15115,83.56782,41,36,0
83.56782,83.98449,53,36,0
83.56782,83.98449,46,36,0
83.98449,84.40115,53,36,0
83.98449,84.40115,48,36,0
84.40115,84.81782,53,36,0
84.40115,84.81782,46,36,0
84.81782,85.23449,65,36,0
84.81782,85.23449,53,36,0
85.23449,85.65115,65,36,0
85.23449,85.65115,58,36,0
85.65115,86.06782,65,36,0
85.65115,86.06782,60,36,0
86.06782,86.48449,65,36,0
86.06782,86.48449,58,36,0
86.48449,86.90115,41,36,0
86.90115,87.31782,46,36,0
86.48449,87.31782,53,36,0
87.31782,87.7526,53,36,0
87.31782,87.7526,48,36,0
87.7526,88.207146,53,36,0
87.7526,88.207146,46,36,0
88.207146,88.25477,46,49,0
88.68334,88.734184,45,62,0
89.19181,89.245384,44,62,0
89.72752,90.293564,57,75,0
90.293564,90.89356,54,75,0
92.197914,93.50226,56,49,0
92.197914,93.50226,50,49,0
93.50226,94.335594,49,36,0
96.00226,97.25226,64,62,0
96.00226,97.25226,57,54,0
99.75226,100.16892,54,36,0
99.75226,100.16892,50,36,0
100.16892,100.585594,56,36,0
100.16892,100.585594,52,36,0
100.585594,100.62726,57,36,0
100.585594,100.62726,54,36,0
101.00226,102.25226,52,62,0
101.00226,102.25226,44,54,0
102.25226,102.66892,64,36,0
102.66892,103.085594,66,36,0
102.25226,103.085594,56,36,0
103.085594,103.12726,64,36,0
103.085594,103.12726,56,36,0
103.50226,104.33559,66,36,0
104.33559,104.75226,64,36,0
103.50226,104.75226,57,36,0
104.75226,105.16892,47,49,0
105.16892,105.58559,54,62,0
105.16892,105.58559,45,62,0
104.75226,105.58559,49,49,0
105.58559,105.62726,53,75,0
105.58559,105.62726,49,75,0
105.58559,105.62726,44,75,0
106.00226,107.25226,54,101,0
106.00226,107.25226,42,101,0
106.00226,107.25226,45,101,0
106.00226,107.25226,50,101,0
107.25226,107.66892,54,36,0
107.66892,108.08559,52,36,0
107.25226,108.08559,57,36,0
108.08559,108.12726,57,36,0
108.50226,111.00225,61,101,0
108.50226,111.00225,58,101,0
111.00225,111.41892,62,62,0
111.00225,111.41892,59,62,0
108.50226,111.41892,50,101,0
113.50225,116.00225,57,36,0
113.50225,116.00225,50,36,0
116.00225,116.418915,55,36,0
116.00225,116.418915,43,36,0
117.25225,117.668915,47,36,0
117.668915,118.08559,49,36,0
117.668915,118.08559,45,36,0
118.08559,118.12725,50,36,0
118.08559,118.12725,43,36,0
118.50225,119.75225,50,62,0
118.50225,119.75225,42,54,0
119.75225,120.168915,54,36,0
120.168915,120.58559,56,36,0
120.168915,120.58559,52,36,0
119.75225,120.58559,57,36,0
120.58559,120.62725,57,49,0
120.58559,120.62725,50,49,0
121.00225,121.043915,57,49,0
121.00225,121.043915,49,49,0
121.418915,121.46059,59,62,0
121.418915,121.46059,57,62,0
121.418915,121.46059,54,62,0
121.83559,122.668915,61,75,0
121.83559,122.668915,57,75,0
121.83559,122.668915,52,75,0
122.668915,123.50225,52,75,0
122.668915,123.50225,40,75,0
123.50225,124.75225,52,75,0
123.50225,124.75225,45,75,0
125.58558,125.793915,57,75,0
125.793915,126.00225,61,75,0
126.00225,126.21058,62,75,0
126.21058,126.62725,50,101,0
126.62725,126.83558,38,75,0
126.83558,127.043915,50,75,0
127.25225,127.46058,57,101,0
127.46058,127.668915,61,75,0
127.668915,127.87725,59,75,0
128.08559,128.29391,54,101,0
128.29391,128.50224,57,75,0
128.50224,128.71059,55,75,0
128.71059,129.12724,43,101,0
129.12724,129.33559,31,75,0
129.33559,129.54391,43,75,0
129.54391,129.75224,47,75,0
129.75224,129.96059,43,75,0
129.96059,130.16891,42,75,0
130.16891,130.37724,40,75,0
130.58559,130.79391,59,75,0
130.79391,131.00224,63,75,0
131.00224,131.21059,64,75,0
131.21059,131.62724,52,101,0
131.62724,131.83559,40,75,0
131.83559,132.04391,52,75,0
132.25224,132.46057,59,101,0
132.46057,132.66891,62,75,0
132.66891,132.87724,61,75,0
133.08557,133.29391,56,101,0
133.29391,133.50224,59,75,0
133.50224,133.71057,57,75,0
133.71057,134.12724,45,101,0
134.12724,134.33557,33,75,0
134.33557,134.54391,45,75,0
134.75224,134.96057,57,75,0
134.54391,134.96057,45,75,0
134.96057,135.16891,59,75,0
134.96057,135.16891,57,75,0
134.96057,135.16891,47,75,0
135.16891,135.37724,61,75,0
135.16891,135.37724,57,75,0
135.16891,135.37724,49,75,0
135.58557,135.79391,62,75,0
135.37724,135.79391,50,75,0
135.79391,136.00224,64,75,0
135.79391,136.00224,62,75,0
135.79391,136.00224,52,75,0
136.00224,136.04391,66,88,0
136.00224,136.04391,62,88,0
136.00224,136.04391,54,88,0
136.41891,137.04391,66,114,0
136.41891,137.04391,62,109,0
136.41891,137.04391,54,104,0
137.04391,137.25224,66,88,0
137.04391,137.25224,54,88,0
137.25224,137.46057,69,88,0
137.25224,137.46057,57,88,0
137.46057,137.66891,66,88,0
137.46057,137.66891,54,88,0
137.66891,137.87724,62,88,0
137.66891,137.87724,50,88,0
137.87724,138.08557,61,88,0
137.87724,138.08557,49,88,0
138.08557,138.29391,59,88,0
138.08557,138.29391,47,88,0
138.29391,138.50224,57,88,0
138.29391,138.50224,45,88,0
138.50224,138.54391,55,88,0
138.50224,138.54391,50,88,0
138.50224,138.54391,43,88,0
138.91891,139.54391,55,114,0
138.91891,139.54391,50,109,0
138.91891,139.54391,43,104,0
139.54391,139.75224,50,88,0
139.75224,139.96057,55,114,0
139.96057,140.16891,54,88,0
140.16891,140.37724,55,88,0
140.37724,140.58557,50,88,0
140.58557,140.79391,55,88,0
140.79391,141.00224,57,88,0
141.00224,141.04391,55,88,0
141.00224,141.04391,50,88,0
141.00224,141.04391,43,88,0
141.41891,142.04391,55,114,0
141.41891,142.04391,50,109,0
141.41891,142.04391,43,104,0
142.04391,142.25224,59,88,0
142.04391,142.25224,47,88,0
142.25224,142.46057,62,88,0
142.25224,142.46057,50,88,0
142.46057,142.66891,59,88,0
142.46057,142.66891,47,88,0
142.66891,142.87724,55,88,0
142.66891,142.87724,43,88,0
142.87724,143.08557,59,88,0
142.87724,143.08557,47,88,0
143.08557,143.29391,55,88,0
143.08557,143.29391,43,88,0
143.29391,143.50224,54,88,0
143.29391,143.50224,42,88,0
143.50224,143.54391,52,88,0
143.50224,143.54391,47,88,0
143.50224,143.54391,40,88,0
143.91891,144.54391,52,127,0
143.91891,144.54391,47,127,0
143.91891,144.54391,40,120,0
144.54391,144.96057,52,114,0
144.54391,144.96057,47,109,0
144.54391,144.96057,40,104,0
144.96057,145.1689,52,88,0
144.96057,145.1689,47,88,0
144.96057,145.1689,40,88,0
145.1689,145.21057,57,88,0
145.1689,145.21057,52,88,0
145.1689,145.21057,45,88,0
145.58557,146.21057,57,114,0
145.58557,146.21057,52,109,0
145.58557,146.21057,45,104,0
146.21057,146.62724,50,114,0
146.21057,146.62724,45,109,0
146.21057,146.62724,38,104,0
146.62724,146.83557,50,88,0
146.62724,146.83557,45,88,0
146.62724,146.83557,38,88,0
146.83557,147.25224,57,88,0
146.83557,147.25224,50,88,0
147.25224,148.9189,57,114,0
147.25224,148.9189,50,106,0
149.5439,149.75224,43,36,0
149.75224,149.96057,50,36,0
150.1689,150.21057,50,36,0
149.96057,150.21057,43,36,0
150.58557,151.83557,50,62,0
150.58557,151.83557,43,54,0
152.0439,152.25224,43,36,0
152.25224,152.46057,50,36,0
152.6689,152.71057,50,36,0
152.46057,152.71057,43,36,0
153.08557,154.33557,50,36,0
154.5439,154.75224,36,36,0
154.75224,154.96057,43,36,0
155.1689,155.21057,43,36,0
154.96057,155.21057,36,36,0
155.58557,156.83557,43,62,0
155.58557,156.83557,36,54,0
157.0439,157.25224,36,36,0
157.25224,157.46057,43,36,0
157.6689,157.71057,43,36,0
157.46057,157.71057,36,36,0
158.08557,158.9189,43,62,0
158.9189,159.33557,45,36,0
158.08557,159.33557,36,54,0
159.5439,159.75223,36,36,0
159.75223,159.96057,45,36,0
160.1689,160.21057,45,36,0
159.96057,160.21057,36,36,0
160.58557,161.4189,45,62,0
160.58557,161.4189,36,54,0
161.4189,161.83557,57,36,0
161.4189,161.83557,48,36,0
162.0439,162.25223,47,36,0
162.25223,162.46057,57,36,0
162.6689,162.71057,57,36,0
162.46057,162.71057,47,36,0
163.08557,163.9189,57,36,0
163.08557,163.9189,47,36,0
163.9189,164.33557,57,36,0
163.9189,164.33557,48,36,0
164.5439,164.75223,47,36,0
164.75223,164.96057,57,36,0
164.96057,165.1689,47,36,0
165.1689,165.21057,57,36,0
165.58557,166.4189,57,36,0
165.58557,166.4189,47,36,0
166.4189,166.83557,57,36,0
166.4189,166.83557,48,36,0
167.0439,167.25223,47,36,0
167.25223,167.46057,57,36,0
167.46057,167.6689,47,36,0
167.6689,167.71057,57,36,0
168.08557,168.9189,57,36,0
168.08557,168.9189,47,36,0
168.9189,168.96057,57,36,0
168.9189,168.96057,47,36,0
169.5439,169.75223,47,36,0
169.75223,169.96962,57,36,0
169.96962,170.18701,47,36,0
170.18701,170.23247,57,36,0
170.64156,171.62622,57,36,0
170.64156,171.62622,47,36,0
171.62622,171.6798,57,36,0
171.62622,171.6798,47,36,0
172.16194,172.37933,56,36,0
172.16194,172.37933,43,36,0
172.37933,172.59673,43,36,0
172.59673,172.82399,50,36,0
173.05127,173.09538,50,36,0
172.82399,173.09538,43,36,0
173.49245,174.81598,50,62,0
173.49245,174.81598,43,54,0
175.0243,175.23264,43,36,0
175.23264,175.44098,50,36,0
175.6493,175.69098,50,36,0
175.44098,175.69098,43,36,0
176.06598,177.31596,50,36,0
177.5243,177.73264,36,36,0
177.73264,177.94096,43,36,0
178.1493,178.19096,43,36,0
177.94096,178.19096,36,36,0
178.56596,179.81596,43,62,0
178.56596,179.81596,36,54,0
180.0243,180.23264,36,36,0
180.23264,180.44096,43,36,0
180.6493,180.69096,43,36,0
180.44096,180.69096,36,36,0
181.06596,181.48264,43,36,0
181.48264,182.31596,44,36,0
182.31596,182.5243,45,36,0
182.31596,182.5243,33,36,0
182.5243,182.73264,45,36,0
182.73264,182.94096,55,36,0
183.1493,183.19096,55,36,0
182.94096,183.19096,45,36,0
183.56596,184.3993,55,62,0
183.56596,184.3993,45,54,0
184.3993,184.81596,55,36,0
184.3993,184.81596,46,36,0
185.0243,185.23264,45,36,0
185.23264,185.44096,55,36,0
185.6493,185.69096,55,36,0
185.44096,185.69096,45,36,0
186.06596,186.8993,55,62,0
186.06596,186.8993,45,54,0
186.8993,187.31596,55,36,0
186.8993,187.31596,46,36,0
187.31596,187.5243,55,36,0
187.31596,187.5243,45,36,0
187.5243,187.73264,45,36,0
187.73264,187.94096,55,36,0
188.1493,188.19096,55,36,0
187.94096,188.19096,45,36,0
188.56596,189.39929,55,62,0
188.56596,189.39929,45,54,0
189.39929,189.81596,55,36,0
189.39929,189.81596,45,36,0
190.02429,190.23264,57,36,0
190.23264,190.44096,67,36,0
190.64929,191.06596,67,36,0
190.44096,191.06596,57,36,0
191.06596,191.48264,67,36,0
191.06596,191.48264,57,36,0
191.89929,192.10764,57,88,0
192.10764,192.31596,61,88,0
192.31596,192.52429,62,88,0
192.52429,192.94096,50,114,0
192.94096,193.14929,38,88,0
193.14929,193.35764,50,88,0
193.56596,193.77429,57,114,0
193.77429,193.98264,61,88,0
193.98264,194.19096,59,88,0
194.39929,194.60764,54,88,0
194.60764,194.81596,57,88,0
194.81596,195.02429,55,88,0
195.02429,195.44096,43,114,0
195.44096,195.64929,31,88,0
195.64929,195.85764,43,88,0
195.85764,196.06596,47,88,0
196.06596,196.27429,43,88,0
196.27429,196.48264,42,88,0
196.48264,196.69096,40,88,0
196.89929,197.10764,59,88,0
197.10764,197.31596,63,88,0
197.31596,197.52429,64,88,0
197.52429,197.94096,52,88,0
197.94096,198.14929,40,88,0
198.14929,198.35764,52,88,0
198.56596,198.77429,59,114,0
198.77429,198.98264,62,88,0
198.98264,199.19096,60,88,0
199.39929,199.60764,56,114,0
199.60764,199.81596,59,88,0
199.81596,200.02429,57,88,0
200.02429,200.44096,45,88,0
200.44096,200.64929,33,88,0
200.64929,200.85764,45,88,0
201.06596,201.27429,57,88,0
200.85764,201.27429,45,88,0
201.27429,201.48264,59,88,0
201.27429,201.48264,57,88,0
201.27429,201.48264,47,88,0
201.48264,201.69096,60,88,0
201.48264,201.69096,57,88,0
201.48264,201.69096,48,88,0
201.89929,202.10762,62,88,0
201.69096,202.10762,57,88,0
201.69096,202.10762,50,88,0
202.10762,202.31596,64,88,0
202.10762,202.31596,60,88,0
202.10762,202.31596,52,88,0
202.31596,202.35762,65,88,0
202.31596,202.35762,60,88,0
202.31596,202.35762,53,88,0
202.73262,203.35762,65,114,0
202.73262,203.35762,60,109,0
202.73262,203.35762,53,104,0
203.35762,203.56596,57,88,0
203.35762,203.56596,45,88,0
203.56596,203.77429,60,88,0
203.56596,203.77429,48,88,0
203.77429,203.98262,57,88,0
203.77429,203.98262,45,88,0
203.98262,204.19096,53,88,0
203.98262,204.19096,41,88,0
204.19096,204.39929,52,88,0
204.19096,204.39929,40,88,0
204.39929,204.60762,50,88,0
204.39929,204.60762,38,88,0
204.60762,204.81596,48,88,0
204.60762,204.81596,36,88,0
204.81596,204.85762,46,88,0
204.81596,204.85762,34,88,0
205.23262,205.85762,58,88,0
205.23262,205.85762,53,88,0
205.23262,205.85762,46,88,0
205.85762,206.06596,53,88,0
206.06596,206.27429,58,88,0
206.27429,206.48262,57,88,0
206.48262,206.69096,58,88,0
206.69096,206.89929,53,88,0
206.89929,207.10762,58,88,0
207.10762,207.31596,60,88,0
207.31596,207.35762,58,88,0
207.31596,207.35762,53,88,0
207.31596,207.35762,46,88,0
207.73262,208.35762,58,114,0
207.73262,208.35762,53,109,0
207.73262,208.35762,46,104,0
208.35762,208.56596,62,88,0
208.35762,208.56596,50,88,0
208.56596,208.77429,65,88,0
208.56596,208.77429,53,88,0
208.77429,208.98262,62,88,0
208.77429,208.98262,50,88,0
208.98262,209.19096,58,88,0
208.98262,209.19096,46,88,0
209.19096,209.39929,62,88,0
209.19096,209.39929,50,88,0
209.39929,209.60762,58,88,0
209.39929,209.60762,46,88,0
209.60762,209.81596,57,88,0
209.60762,209.81596,45,88,0
209.81596,209.85762,55,88,0
209.81596,209.85762,43,88,0
210.23262,210.85762,55,114,0
210.23262,210.85762,43,106,0
210.85762,211.27429,43,114,0
210.85762,211.27429,31,106,0
211.27429,211.48262,43,88,0
211.27429,211.48262,31,88,0
211.48262,211.89929,48,114,0
211.48262,211.89929,36,106,0
211.89929,212.52429,48,88,0
211.89929,212.52429,36,88,0
212.52429,212.94096,41,114,0
212.52429,212.94096,29,106,0
212.94096,213.14929,41,88,0
212.94096,213.14929,29,88,0
213.14929,213.19096,53,88,0
213.14929,213.19096,48,88,0
213.14929,213.19096,41,88,0
213.56596,214.19096,53,88,0
213.56596,214.19096,48,88,0
213.56596,214.19096,41,88,0
214.19096,214.60762,60,114,0
214.19096,214.60762,53,106,0
214.60762,214.81595,60,88,0
214.60762,214.81595,51,88,0
214.81595,214.85762,60,88,0
214.81595,214.85762,50,88,0
215.23262,215.85762,60,114,0
215.23262,215.85762,50,106,0
215.85762,216.06595,66,88,0
216.06595,216.27429,69,88,0
216.27429,216.48262,67,88,0
216.48262,216.69095,66,88,0
217.10762,217.31595,57,88,0
217.10762,217.31595,48,88,0
217.31595,217.35762,60,88,0
217.31595,217.35762,50,88,0
217.73262,218.35762,60,114,0
217.73262,218.35762,50,106,0
218.35762,218.56595,66,36,0
218.56595,218.77429,69,36,0
218.77429,218.98262,67,36,0
218.98262,219.19095,66,36,0
219.60762,219.81595,57,36,0
219.60762,219.81595,48,36,0
219.81595,219.85762,60,36,0
219.81595,219.85762,50,36,0
220.23262,220.85762,60,62,0
220.23262,220.85762,50,54,0
220.85762,220.89929,60,36,0
220.85762,220.89929,50,36,0
221.27429,221.30206,60,36,0
221.27429,221.30206,50,36,0
221.48262,221.52429,60,62,0
221.48262,221.52429,50,54,0
221.89929,222.52429,60,36,0
221.89929,222.52429,50,36,0
222.52429,222.94095,57,62,0
222.52429,222.94095,47,54,0
222.94095,222.96873,57,36,0
222.94095,222.96873,47,36,0
223.14929,223.19095,57,36,0
223.14929,223.19095,47,36,0
223.56595,224.19095,57,36,0
223.56595,224.19095,47,36,0
224.19095,224.60762,58,62,0
224.19095,224.60762,46,54,0
224.60762,224.63539,58,36,0
224.60762,224.63539,46,36,0
224.81595,224.85762,58,36,0
224.81595,224.85762,46,36,0
225.23262,225.89467,58,36,0
225.23262,225.89467,46,36,0
225.89467,225.94012,55,36,0
225.89467,225.94012,45,36,0
226.36005,226.39178,55,36,0
226.36005,226.39178,45,36,0
226.59814,226.64899,55,36,0
226.59814,226.64899,45,36,0
227.10661,227.92534,55,36,0
227.10661,227.92534,45,36,0
227.92534,228.50836,56,62,0
227.92534,228.50836,44,54,0
228.50836,228.54837,56,36,0
228.50836,228.54837,44,36,0
228.80836,228.87358,56,36,0
228.80836,228.87358,44,36,0
229.46054,230.4388,56,36,0
229.46054,230.4388,44,36,0
230.4388,231.09097,53,62,0
230.4388,231.09097,43,54,0
231.09097,231.13445,53,36,0
231.09097,231.13445,43,36,0
231.74315,232.39532,54,62,0
231.74315,232.39532,42,54,0
232.39532,232.4388,54,36,0
232.39532,232.4388,42,36,0
233.0475,233.69966,51,62,0
233.0475,233.69966,41,54,0
233.69966,233.74315,51,36,0
233.69966,233.74315,41,36,0
234.35184,235.00401,52,62,0
234.35184,235.00401,40,54,0
235.00401,235.0475,52,36,0
235.00401,235.0475,40,36,0
235.98228,237.28662,52,114,0
235.98228,237.28662,40,106,0
237.28662,237.35184,52,36,0
237.28662,237.35184,40,36,0
238.59097,239.89532,52,62,0
238.59097,239.89532,40,54,0
239.89532,239.96054,52,36,0
239.89532,239.96054,40,36,0
246.37177,247.20511,73,62,0
247.20511,247.62177,71,36,0
246.37177,247.62177,66,57,0
246.37177,247.62177,62,52,0
247.62177,248.03844,69,36,0
247.62177,248.03844,64,36,0
247.62177,248.03844,61,36,0
248.03844,248.45511,68,36,0
248.03844,248.45511,62,36,0
248.03844,248.45511,59,36,0
248.45511,248.87177,66,36,0
248.45511,248.87177,61,36,0
248.45511,248.87177,57,36,0
248.87177,250.12177,64,36,0
248.87177,250.12177,56,36,0
250.33011,250.43427,66,36,0
250.43427,250.53844,68,36,0
250.12177,250.53844,64,36,0
250.12177,250.53844,62,36,0
250.12177,250.53844,56,36,0
250.53844,250.95511,66,36,0
250.53844,250.95511,62,36,0
250.53844,250.95511,56,36,0
250.95511,251.37177,64,36,0
250.95511,251.37177,62,36,0
250.95511,251.37177,56,36,0
254.7051,255.9551,64,36,0
254.7051,255.9551,61,36,0
254.7051,255.9551,57,36,0
255.9551,256.37177,61,36,0
255.9551,256.37177,57,36,0
256.37177,256.78842,64,36,0
256.37177,256.78842,61,36,0
256.37177,256.78842,57,36,0
256.78842,257.2051,66,36,0
256.78842,257.2051,57,36,0
256.78842,257.2051,61,36,0
256.78842,257.2051,63,36,0
257.2051,258.4551,68,36,0
257.2051,258.4551,56,36,0
257.2051,258.4551,61,36,0
257.2051,258.4551,64,36,0
258.4551,258.49677,68,36,0
258.4551,258.49677,64,36,0
258.4551,258.49677,56,36,0
258.87177,258.91342,68,36,0
258.87177,258.91342,66,36,0
258.87177,258.91342,56,36,0
259.28842,259.3301,68,36,0
259.28842,259.3301,63,36,0
259.28842,259.3301,56,36,0
259.7051,260.9551,68,36,0
259.7051,260.9551,64,36,0
259.7051,260.9551,61,36,0
260.9551,260.99677,64,36,0
260.9551,260.99677,61,36,0
260.9551,260.99677,52,36,0
261.37177,261.41342,64,36,0
261.37177,261.41342,62,36,0
261.37177,261.41342,52,36,0
261.78842,261.8301,64,36,0
261.78842,261.8301,61,36,0
261.78842,261.8301,52,36,0
262.2051,263.4551,64,36,0
262.2051,263.4551,61,36,0
262.2051,263.4551,57,36,0
263.66342,263.6912,71,36,0
264.0801,264.10788,69,36,0
264.49677,264.52454,66,36,0
264.91342,265.22592,64,62,0
265.22592,265.3301,69,36,0
265.3301,265.43427,64,36,0
265.43427,265.53842,61,36,0
265.53842,265.5662,57,36,0
265.74677,265.77454,57,36,0
266.16342,266.1912,61,36,0
266.5801,266.60788,64,36,0
266.99677,267.02454,69,36,0
267.41342,267.72592,70,62,0
267.72592,267.8301,73,36,0
267.8301,267.93427,71,36,0
267.93427,268.03842,70,36,0
268.03842,268.0662,71,36,0
268.24677,268.27454,71,36,0
268.66342,268.87177,66,36,0
268.66342,268.87177,62,36,0
269.0801,269.28842,68,36,0
269.0801,269.28842,64,36,0
269.49677,269.7051,69,36,0
269.49677,269.7051,66,36,0
269.91342,270.22592,71,62,0
269.91342,270.22592,68,54,0
270.22592,270.3301,73,36,0
270.22592,270.3301,69,36,0
270.3301,270.43427,71,36,0
270.3301,270.43427,68,36,0
270.43427,270.53842,69,36,0
270.43427,270.53842,66,36,0
270.53842,270.5662,71,36,0
270.53842,270.5662,68,36,0
270.74677,270.77454,71,36,0
270.74677,270.77454,68,36,0
271.16342,271.37177,64,36,0
271.58008,271.78842,62,36,0
271.99677,272.20508,59,36,0
272.20508,272.41342,57,36,0
273.24677,273.35092,68,36,0
273.35092,273.45508,66,36,0
273.45508,273.55927,64,36,0
273.55927,273.66342,62,36,0
273.66342,273.76758,61,36,0
273.76758,273.87177,59,36,0
272.41342,273.87177,69,36,0
273.87177,273.89954,57,36,0
274.08008,274.10788,57,36,0
274.49677,274.52454,59,75,0
274.49677,274.52454,47,75,0
274.91342,274.9412,57,75,0
274.91342,274.9412,45,75,0
275.33008,275.35788,54,75,0
275.33008,275.35788,42,75,0
275.74677,276.16342,52,101,0
275.74677,276.16342,40,93,0
276.16342,276.1912,49,75,0
276.16342,276.1912,37,75,0
276.37177,276.39954,52,75,0
276.37177,276.39954,40,75,0
276.58008,276.60788,57,75,0
276.58008,276.60788,45,75,0
276.99677,277.02454,61,75,0
276.99677,277.02454,49,75,0
277.41342,277.4412,59,75,0
277.41342,277.4412,47,75,0
277.83008,277.85788,57,75,0
277.83008,277.85788,45,75,0
278.24677,278.66342,56,101,0
278.24677,278.66342,44,93,0
278.66342,278.87177,52,75,0
278.66342,278.87177,40,75,0
278.87177,278.89954,56,75,0
278.87177,278.89954,44,75,0
279.08008,279.10788,61,75,0
279.08008,279.10788,49,75,0
279.49677,279.52454,64,75,0
279.49677,279.52454,52,75,0
279.91342,279.9412,69,75,0
279.91342,279.9412,57,75,0
280.33008,280.35788,56,75,0
280.33008,280.35788,44,75,0
280.74677,281.16342,61,101,0
280.74677,281.16342,49,93,0
281.16342,281.37177,56,75,0
281.16342,281.37177,44,75,0
281.37177,281.39954,52,75,0
281.37177,281.39954,40,75,0
281.58008,281.60788,49,75,0
281.58008,281.60788,37,75,0
281.99677,282.02454,49,49,0
282.41342,282.4412,54,49,0
282.83008,282.85788,52,49,0
283.24677,283.66342,54,75,0
283.66342,283.87177,49,49,0
283.87177,283.89954,45,49,0
284.08008,284.10788,42,49,0
284.49677,284.52454,52,88,0
284.49677,284.52454,40,88,0
284.91342,284.9412,50,88,0
284.91342,284.9412,38,88,0
285.33008,285.35788,49,88,0
285.33008,285.35788,37,88,0
285.95508,286.78842,47,114,0
285.95508,286.78842,35,102,0
285.95508,286.78842,38,106,0
285.95508,286.78842,43,110,0
287.83008,288.03842,55,88,0
287.83008,288.03842,43,88,0
288.03842,289.28842,55,88,0
288.03842,289.28842,48,88,0
289.28842,289.3162,55,88,0
289.28842,289.3162,43,88,0
289.49677,289.52454,55,88,0
289.49677,289.52454,47,88,0
289.70508,289.73285,55,88,0
289.70508,289.73285,48,88,0
289.91342,289.9412,55,88,0
289.91342,289.9412,48,88,0
290.12177,290.14954,55,88,0
290.12177,290.14954,50,88,0
290.33008,290.35785,55,88,0
290.33008,290.35785,43,88,0
290.53842,290.58008,55,88,0
290.53842,290.58008,48,88,0
290.95508,290.98285,55,88,0
290.95508,290.98285,43,88,0
291.16342,291.1912,55,88,0
291.16342,291.1912,47,88,0
291.37177,291.39954,55,88,0
291.37177,291.39954,48,88,0
291.58008,291.60785,55,88,0
291.58008,291.60785,48,88,0
291.78842,291.8162,55,88,0
291.78842,291.8162,50,88,0
291.99677,292.02454,55,88,0
291.99677,292.02454,43,88,0
292.20508,292.24677,55,88,0
292.20508,292.24677,48,88,0
292.62177,292.64954,55,88,0
292.62177,292.64954,50,88,0
292.83008,292.85785,55,88,0
292.83008,292.85785,43,88,0
293.03842,293.0662,55,88,0
293.03842,293.0662,48,88,0
293.24677,293.27454,55,88,0
293.24677,293.27454,48,88,0
293.45508,293.48285,55,88,0
293.45508,293.48285,50,88,0
293.66342,293.6912,55,88,0
293.66342,293.6912,43,88,0
293.87177,293.91342,55,88,0
293.87177,293.91342,48,88,0
294.49677,294.52454,47,88,0
294.49677,294.52454,35,88,0
294.91342,294.9412,52,88,0
294.91342,294.9412,40,88,0
295.33008,295.35785,50,88,0
295.33008,295.35785,38,88,0
295.74677,295.77454,49,88,0
295.74677,295.77454,37,88,0
296.16342,296.1912,54,88,0
296.16342,296.1912,42,88,0
296.37173,297.20508,52,101,0
296.37173,297.20508,40,101,0
297.20508,298.03842,52,101,0
297.20508,298.03842,40,101,0
298.03842,299.28842,52,101,0
298.03842,299.28842,45,101,0
299.28842,299.49673,64,36,0
299.49673,299.70508,62,36,0
299.70508,299.91342,62,36,0
299.91342,300.12173,61,36,0
300.12173,300.33008,59,36,0
300.33008,300.53842,57,36,0
300.43423,300.53842,57,36,0
300.53842,301.78842,64,62,0
301.78842,301.99673,64,36,0
301.99673,302.20508,62,36,0
302.20508,302.34396,62,36,0
302.34396,302.48285,61,36,0
302.47592,302.6148,59,36,0
302.62173,302.76065,58,36,0
302.76065,302.89954,61,36,0
302.89258,302.96204,62,36,0
302.96896,303.03842,61,36,0
303.03842,304.28842,64,62,0
304.28842,304.49673,58,36,0
304.49673,304.70508,64,36,0
304.70508,304.80923,62,36,0
304.80923,304.91342,64,36,0
304.91342,305.01758,62,36,0
305.01758,305.12173,61,36,0
305.12173,305.22592,59,36,0
305.22592,305.33008,61,36,0
305.33008,305.43423,62,36,0
305.43423,305.53842,64,36,0
305.53842,306.78842,66,62,0
306.78842,307.20508,66,62,0
308.03842,308.87173,63,88,0
308.87173,309.28842,64,62,0
309.28842,309.49673,52,62,0
309.49673,309.70508,51,62,0
309.70508,309.91342,52,62,0
309.91342,310.01758,47,62,0
310.01758,310.07312,45,62,0
310.0662,310.12173,47,62,0
310.12173,310.33008,45,62,0
310.33008,310.43423,44,62,0
310.43423,310.53842,44,62,0
310.53842,310.58008,52,62,0
310.95508,311.78842,52,88,0
311.78842,311.99673,52,62,0
311.99673,312.20508,51,62,0
312.20508,312.41342,52,62,0
312.41342,312.51758,48,62,0
312.51758,312.57312,47,62,0
312.5662,312.62173,48,62,0
312.62173,312.83008,47,62,0
312.83008,312.93423,45,62,0
312.93423,313.03842,45,62,0
313.03842,313.08008,53,62,0
313.45508,314.28842,53,62,0
314.28842,314.49673,53,62,0
314.49673,314.70508,52,62,0
314.70508,314.91342,53,62,0
314.91342,315.01758,50,62,0
315.01758,315.07312,48,62,0
315.0662,315.12173,50,62,0
315.12173,315.33008,48,62,0
315.33008,315.43423,47,62,0
315.43423,315.53842,47,62,0
315.53842,315.95508,55,88,0
315.95508,316.37173,55,62,0
315.95508,316.37173,53,62,0
316.37173,316.78842,55,62,0
316.37173,316.78842,52,62,0
316.78842,317.20508,55,62,0
316.78842,317.20508,47,62,0
317.20508,317.62173,55,62,0
317.20508,317.62173,48,62,0
317.62173,318.03842,55,62,0
317.62173,318.03842,50,62,0
318.03842,318.87173,50,62,0
318.87173,319.28842,48,62,0
318.03842,319.28842,55,62,0
319.28842,319.70508,43,75,0
319.70508,320.12173,57,75,0
319.70508,320.12173,45,75,0
319.28842,320.12173,55,75,0
320.12173,320.16342,59,75,0
320.12173,320.16342,55,75,0
320.12173,320.16342,47,75,0
320.53842,320.95508,60,101,0
320.53842,320.95508,55,101,0
320.53842,320.95508,48,101,0
320.95508,321.7884,60,101,0
320.95508,321.7884,55,101,0
320.95508,321.7884,48,101,0
321.7884,322.20508,52,36,0
322.20508,322.62173,55,36,0
321.7884,322.62173,64,36,0
321.7884,322.62173,60,36,0
322.62173,323.0384,62,36,0
322.62173,323.0384,59,36,0
322.62173,323.0384,55,36,0
323.0384,323.45508,60,75,0
323.0384,323.45508,57,75,0
323.45508,324.2884,60,62,0
323.45508,324.2884,57,54,0
324.2884,324.70508,47,36,0
324.70508,325.12173,48,36,0
324.2884,325.12173,55,36,0
325.12173,325.5384,55,36,0
325.12173,325.5384,50,36,0
325.5384,325.58008,55,36,0
325.5384,325.58008,48,36,0
325.95508,326.7884,55,62,0
325.95508,326.7884,48,54,0
326.7884,327.20508,55,36,0
327.20508,327.62173,55,36,0
327.62173,328.0384,55,36,0
328.0384,328.45508,55,36,0
328.0384,328.45508,48,36,0
328.45508,328.87173,67,36,0
328.87173,329.2884,67,36,0
329.2884,329.70508,67,36,0
329.70508,330.12173,67,36,0
330.12173,330.5384,55,36,0
330.5384,330.95508,55,36,0
330.95508,331.37173,55,36,0
331.37173,331.7884,55,36,0
331.7884,331.83008,67,62,0
331.7884,331.83008,60,62,0
332.20508,332.24673,68,62,0
332.20508,332.24673,59,62,0
332.62173,332.6634,68,62,0
332.62173,332.6634,59,62,0
333.0384,333.08008,69,62,0
333.0384,333.08008,57,62,0
333.45508,333.49673,69,62,0
333.45508,333.49673,64,62,0
333.45508,333.49673,57,62,0
333.87173,334.70508,68,62,0
333.87173,334.70508,64,62,0
333.87173,334.70508,59,62,0
334.70508,335.5384,59,36,0
334.70508,335.5384,47,36,0
335.5384,336.37173,59,36,0
335.5384,336.37173,52,36,0
336.7884,337.20508,59,36,0
337.20508,337.62173,61,36,0
336.7884,337.62173,52,36,0
337.62173,337.6634,58,36,0
337.62173,337.6634,52,36,0
338.0384,339.2884,59,36,0
338.0384,339.2884,52,36,0
339.2884,339.70508,64,36,0
339.70508,340.12173,66,36,0
339.2884,340.12173,59,36,0
339.2884,340.12173,52,36,0
340.12173,340.1634,64,36,0
340.12173,340.1634,60,36,0
340.12173,340.1634,52,36,0
340.5384,341.37173,65,62,0
341.37173,341.7884,66,36,0
340.5384,341.7884,61,57,0
340.5384,341.7884,57,52,0
341.7884,342.20508,61,36,0
341.7884,342.20508,57,36,0
342.20508,342.62173,63,36,0
342.20508,342.62173,59,36,0
342.62173,343.0384,64,36,0
342.62173,343.0384,61,36,0
343.0384,344.2884,59,36,0
343.0384,344.2884,51,36,0
344.2884,344.70508,71,36,0
344.70508,344.74673,73,36,0
344.2884,344.74673,63,36,0
345.12173,345.1634,71,36,0
345.12173,345.1634,63,36,0
345.5384,346.37173,73,62,0
346.37173,346.58008,71,36,0
345.5384,346.58008,64,54,0
346.58008,346.7884,59,36,0
346.7884,347.20505,56,49,0
347.20505,347.24673,56,62,0
347.62173,347.6634,60,75,0
347.62173,347.6634,56,75,0
347.62173,347.6634,51,75,0
348.0384,349.2884,61,88,0
348.0384,349.2884,49,88,0
348.0384,349.2884,52,88,0
348.0384,349.2884,57,88,0
349.49673,349.70505,61,36,0
349.70505,350.12173,59,54,0
349.49673,350.12173,64,36,0
350.12173,350.1634,64,36,0
350.5384,353.0384,68,75,0
350.5384,353.0384,65,75,0
353.0384,353.45505,69,36,0
353.0384,353.45505,66,36,0
350.5384,353.45505,57,75,0
355.5384,358.0384,64,36,0
355.5384,358.0384,57,36,0
358.0384,358.45505,62,36,0
358.0384,358.45505,57,36,0
358.0384,358.45505,50,36,0
359.49673,359.70505,54,36,0
359.70505,360.12173,56,36,0
359.70505,360.12173,52,36,0
360.12173,360.1634,57,36,0
360.12173,360.1634,50,36,0
360.5384,361.7884,57,36,0
360.5384,361.7884,49,36,0
361.99673,362.20505,61,36,0
362.20505,362.24673,63,36,0
362.20505,362.24673,59,36,0
362.62173,362.6634,64,36,0
362.62173,362.6634,57,36,0
363.0384,363.08005,56,36,0
363.45505,363.49673,64,36,0
363.45505,363.49673,61,36,0
363.87173,364.70505,64,62,0
363.87173,364.70505,59,62,0
364.70505,365.5384,59,62,0
364.70505,365.5384,47,62,0
365.5384,366.7884,59,62,0
365.5384,366.7884,52,62,0
367.62173,367.83005,52,88,0
367.83005,368.0384,56,88,0
368.0384,368.24673,57,88,0
368.24673,368.6634,45,114,0
368.6634,368.87173,33,88,0
368.87173,369.08005,45,88,0
369.2884,369.49673,52,114,0
369.49673,369.70505,56,88,0
369.70505,369.9134,54,88,0
370.12173,370.33005,49,114,0
370.33005,370.5384,52,88,0
370.5384,370.74673,50,88,0
370.74673,371.1634,38,114,0
371.1634,371.37173,33,88,0
371.37173,371.58005,38,88,0
371.58005,371.7884,42,88,0
371.7884,371.99673,38,88,0
371.99673,372.20505,37,88,0
372.20505,372.4134,35,88,0
372.6217,372.83005,54,88,0
372.83005,373.0384,58,88,0
373.0384,373.2467,59,88,0
373.2467,373.6634,47,114,0
373.6634,373.8717,35,88,0
373.8717,374.08005,47,88,0
374.2884,374.4967,54,114,0
374.4967,374.70505,57,88,0
374.70505,374.9134,56,88,0
375.1217,375.33005,51,127,0
375.33005,375.5384,54,88,0
375.5384,375.7467,52,88,0
375.7467,376.1634,40,114,0
376.1634,376.3717,35,88,0
376.3717,376.58005,40,88,0
376.58005,376.9967,52,88,0
376.58005,376.9967,40,88,0
376.9967,377.20505,54,88,0
376.9967,377.20505,52,88,0
376.9967,377.20505,42,88,0
377.20505,377.4134,56,88,0
377.20505,377.4134,52,88,0
377.20505,377.4134,44,88,0
377.4134,377.83005,57,88,0
377.4134,377.83005,45,88,0
377.83005,378.0384,59,88,0
377.83005,378.0384,57,88,0
377.83005,378.0384,47,88,0
378.0384,378.08005,61,88,0
378.0384,378.08005,57,88,0
378.0384,378.08005,49,88,0
378.45505,379.08005,61,114,0
378.45505,379.08005,57,109,0
378.45505,379.08005,49,104,0
379.08005,379.2884,61,88,0
379.08005,379.2884,49,88,0
379.2884,379.4967,64,88,0
379.2884,379.4967,52,88,0
379.4967,379.70505,61,88,0
379.4967,379.70505,49,88,0
379.70505,379.9134,57,88,0
379.70505,379.9134,45,88,0
379.9134,380.1217,56,88,0
379.9134,380.1217,44,88,0
380.1217,380.33005,54,88,0
380.1217,380.33005,42,88,0
380.33005,380.5384,52,88,0
380.33005,380.5384,40,88,0
380.5384,380.58005,50,88,0
380.5384,380.58005,45,88,0
380.5384,380.58005,38,88,0
380.95505,381.58005,50,114,0
380.95505,381.58005,45,109,0
380.95505,381.58005,38,104,0
381.58005,381.7884,45,88,0
381.7884,381.9967,50,88,0
381.9967,382.20505,49,88,0
382.20505,382.4134,50,88,0
382.4134,382.6217,45,88,0
382.6217,382.83005,50,88,0
382.83005,383.0384,52,88,0
383.0384,383.08005,50,88,0
383.0384,383.08005,45,88,0
383.0384,383.08005,38,88,0
383.45505,384.08005,50,114,0
383.45505,384.08005,45,109,0
383.45505,384.08005,38,104,0
384.08005,384.2884,54,88,0
384.08005,384.2884,42,88,0
384.2884,384.4967,57,88,0
384.2884,384.4967,45,88,0
384.4967,384.70505,54,88,0
384.4967,384.70505,42,88,0
384.70505,384.9134,50,88,0
384.70505,384.9134,38,88,0
384.9134,385.1217,54,88,0
384.9134,385.1217,42,88,0
385.1217,385.33005,50,88,0
385.1217,385.33005,38,88,0
385.33005,385.5384,49,88,0
385.33005,385.5384,37,88,0
385.5384,385.58005,47,88,0
385.5384,385.58005,35,88,0
385.95505,386.58005,47,88,0
385.95505,386.58005,35,88,0
386.58005,386.9967,47,114,0
386.58005,386.9967,42,109,0
386.58005,386.9967,35,104,0
386.9967,387.20505,47,88,0
386.9967,387.20505,42,88,0
386.9967,387.20505,35,88,0
387.20505,387.2467,52,88,0
387.20505,387.2467,47,88,0
387.20505,387.2467,40,88,0
387.6217,388.2467,52,88,0
387.6217,388.2467,47,88,0
387.6217,388.2467,40,88,0
388.2467,388.2884,45,88,0
388.2467,388.2884,40,88,0
388.2467,388.2884,33,88,0
388.6634,388.8717,45,88,0
388.6634,388.8717,40,88,0
388.6634,388.8717,33,88,0
388.8717,388.9134,52,88,0
388.8717,388.9134,45,88,0
389.2884,389.9134,52,114,0
389.2884,389.9134,45,106,0
391.58005,391.7884,50,36,0
391.7884,391.9967,57,36,0
392.20505,392.2467,57,36,0
391.9967,392.2467,50,36,0
392.6217,393.8717,57,62,0
392.6217,393.8717,50,54,0
394.08005,394.2884,50,36,0
394.2884,394.4967,57,36,0
394.70505,394.7467,57,36,0
394.4967,394.7467,50,36,0
395.1217,396.3717,57,36,0
396.58005,396.7884,43,36,0
396.7884,396.9967,50,36,0
397.20505,397.2467,50,36,0
396.9967,397.2467,43,36,0
397.6217,398.8717,50,62,0
397.6217,398.8717,43,54,0
399.08005,399.28836,43,36,0
399.28836,399.4967,50,36,0
399.70505,399.7467,50,36,0
399.4967,399.7467,43,36,0
400.1217,401.16336,50,36,0
400.1217,401.16336,43,36,0
401.16336,401.3717,52,36,0
401.16336,401.3717,43,36,0
401.58005,401.78836,43,36,0
401.78836,401.9967,52,36,0
402.20505,402.2467,52,36,0
401.9967,402.2467,43,36,0
402.6217,403.45505,52,62,0
402.6217,403.45505,43,54,0
403.45505,403.8717,64,36,0
403.45505,403.8717,55,36,0
404.08005,404.28836,54,36,0
404.28836,404.4967,64,36,0
404.70505,404.7467,64,36,0
404.4967,404.7467,54,36,0
405.1217,405.95505,64,62,0
405.1217,405.95505,54,54,0
405.95505,406.3717,64,36,0
405.95505,406.3717,55,36,0
406.58005,406.78836,54,36,0
406.78836,406.9967,64,36,0
407.20505,407.6217,64,36,0
406.9967,407.6217,54,36,0
407.6217,408.45505,64,62,0
407.6217,408.45505,54,54,0
408.45505,408.4967,64,36,0
408.45505,408.4967,54,36,0
409.08005,409.28836,47,36,0
409.28836,409.4967,63,36,0
409.70505,410.1217,63,36,0
409.4967,410.1217,47,36,0
410.1217,410.95505,63,62,0
410.1217,410.95505,47,54,0
410.95505,411.3717,63,36,0
410.95505,411.3717,47,36,0
411.58005,411.78836,52,36,0
411.78836,411.9967,62,36,0
412.20505,412.6217,62,36,0
411.9967,412.6217,52,36,0
412.6217,413.45505,62,62,0
412.6217,413.45505,52,54,0
413.45505,413.8717,62,36,0
413.45505,413.8717,53,36,0
414.08005,414.28836,52,36,0
414.28836,414.4967,62,36,0
414.70505,414.7467,62,36,0
414.4967,414.7467,52,36,0
415.1217,415.95505,62,62,0
415.1217,415.95505,52,54,0
415.95505,416.3717,62,36,0
415.95505,416.3717,53,36,0
416.58005,416.78836,52,36,0
416.78836,416.9967,62,36,0
417.20505,417.2467,62,36,0
416.9967,417.2467,52,36,0
417.6217,418.03836,62,36,0
417.6217,418.03836,52,36,0
418.45505,418.66336,52,88,0
418.66336,418.8717,56,88,0
418.8717,419.08005,57,88,0
419.08005,419.4967,45,114,0
419.4967,419.70505,33,88,0
419.70505,419.91336,45,88,0
420.1217,420.33005,52,114,0
420.33005,420.53836,56,88,0
420.53836,420.7467,54,88,0
420.95505,421.16336,49,114,0
421.16336,421.3717,52,88,0
421.3717,421.58005,50,88,0
421.58005,421.9967,38,114,0
421.9967,422.20505,33,88,0
422.20505,422.41336,38,88,0
422.41336,422.6217,42,88,0
422.6217,422.83005,38,88,0
422.83005,423.03836,37,88,0
423.03836,423.2467,35,88,0
423.45502,423.66336,54,88,0
423.66336,423.8717,58,88,0
423.8717,424.08002,59,88,0
424.08002,424.4967,47,114,0
424.4967,424.70502,35,88,0
424.70502,424.91336,47,88,0
425.1217,425.33002,54,114,0
425.33002,425.53836,57,88,0
425.53836,425.7467,55,88,0
425.95502,426.16336,51,127,0
426.16336,426.3717,54,88,0
426.3717,426.58002,52,88,0
426.58002,426.9967,40,114,0
426.9967,427.20502,35,88,0
427.20502,427.41336,40,88,0
427.41336,427.83002,52,88,0
427.41336,427.83002,40,88,0
427.83002,428.03836,54,88,0
427.83002,428.03836,52,88,0
427.83002,428.03836,42,88,0
428.03836,428.2467,55,88,0
428.03836,428.2467,52,88,0
428.03836,428.2467,43,88,0
428.2467,428.66336,57,88,0
428.2467,428.66336,45,88,0
428.66336,428.8717,59,88,0
428.66336,428.8717,57,88,0
428.66336,428.8717,47,88,0
428.8717,428.91336,60,88,0
428.8717,428.91336,55,88,0
428.8717,428.91336,48,88,0
429.28836,429.91336,60,114,0
429.28836,429.91336,55,109,0
429.28836,429.91336,48,104,0
429.91336,430.1217,64,88,0
429.91336,430.1217,52,88,0
430.1217,430.33002,67,88,0
430.1217,430.33002,55,88,0
430.33002,430.53836,64,88,0
430.33002,430.53836,52,88,0
430.53836,430.7467,60,88,0
430.53836,430.7467,48,88,0
430.7467,430.95502,59,88,0
430.7467,430.95502,47,88,0
430.95502,431.16336,57,88,0
430.95502,431.16336,45,88,0
431.16336,431.3717,55,88,0
431.16336,431.3717,43,88,0
431.3717,431.41336,53,88,0
431.3717,431.41336,48,88,0
431.3717,431.41336,41,88,0
431.78836,432.41336,53,114,0
431.78836,432.41336,48,109,0
431.78836,432.41336,41,104,0
432.41336,432.6217,48,88,0
432.6217,432.83002,53,88,0
432.83002,433.03836,55,88,0
433.03836,433.2467,53,88,0
433.2467,433.45502,48,88,0
433.45502,433.66336,53,88,0
433.66336,433.8717,51,88,0
433.8717,433.91336,50,88,0
433.8717,433.91336,38,88,0
434.28836,434.91336,50,114,0
434.28836,434.91336,38,106,0
434.91336,435.1217,66,88,0
434.91336,435.1217,54,88,0
435.1217,435.33002,69,88,0
435.1217,435.33002,57,88,0
435.33002,435.53836,66,88,0
435.33002,435.53836,54,88,0
435.53836,435.7467,62,88,0
435.53836,435.7467,50,88,0
435.7467,435.95502,61,88,0
435.7467,435.95502,49,88,0
435.95502,436.16336,59,88,0
435.95502,436.16336,47,88,0
436.16336,436.3717,57,88,0
436.16336,436.3717,45,88,0
436.3717,436.41336,55,88,0
436.3717,436.41336,50,88,0
436.3717,436.41336,43,88,0
436.78836,437.41336,55,114,0
436.78836,437.41336,50,109,0
436.78836,437.41336,43,104,0
437.41336,437.83002,55,88,0
437.41336,437.83002,50,88,0
437.41336,437.83002,43,88,0
437.83002,438.03836,57,88,0
437.83002,438.03836,50,88,0
437.83002,438.03836,45,88,0
438.03836,438.2467,55,88,0
438.03836,438.2467,50,88,0
438.03836,438.2467,43,88,0
438.2467,438.66336,55,88,0
438.2467,438.66336,50,88,0
438.2467,438.66336,43,88,0
438.66336,438.8717,53,88,0
438.66336,438.8717,41,88,0
438.8717,438.91336,52,88,0
438.8717,438.91336,40,88,0
439.28836,439.91336,52,114,0
439.28836,439.91336,40,106,0
439.91336,440.1217,68,88,0
439.91336,440.1217,56,88,0
440.1217,440.33002,71,88,0
440.1217,440.33002,59,88,0
440.33002,440.53836,68,88,0
440.33002,440.53836,56,88,0
440.53836,440.7467,64,88,0
440.53836,440.7467,52,88,0
440.7467,440.95502,62,88,0
440.7467,440.95502,50,88,0
440.95502,441.16336,60,88,0
440.95502,441.16336,48,88,0
441.16336,441.3717,59,88,0
441.16336,441.3717,47,88,0
441.3717,441.41336,57,88,0
441.3717,441.41336,52,88,0
441.3717,441.41336,45,88,0
441.78836,442.41336,57,114,0
441.78836,442.41336,52,109,0
441.78836,442.41336,45,104,0
442.41336,442.83002,57,114,0
442.41336,442.83002,52,109,0
442.41336,442.83002,45,104,0
442.83002,442.8578,57,88,0
442.83002,442.8578,52,88,0
442.83002,442.8578,45,88,0
443.03836,443.08002,57,88,0
443.03836,443.08002,52,88,0
443.03836,443.08002,45,88,0
443.45502,444.08002,57,114,0
443.45502,444.08002,52,109,0
443.45502,444.08002,45,104,0
444.08002,444.4967,57,114,0
444.08002,444.4967,52,109,0
444.08002,444.4967,45,104,0
444.4967,444.52448,57,88,0
444.4967,444.52448,52,88,0
444.4967,444.52448,45,88,0
444.70502,445.1217,55,114,0
444.70502,445.1217,50,109,0
444.70502,445.1217,43,104,0
445.1217,445.7467,55,88,0
445.1217,445.7467,50,88,0
445.1217,445.7467,43,88,0
445.7467,446.16336,55,114,0
445.7467,446.16336,50,109,0
445.7467,446.16336,43,104,0
446.16336,446.19113,55,88,0
446.16336,446.19113,50,88,0
446.16336,446.19113,43,88,0
446.3717,446.41336,55,88,0
446.3717,446.41336,50,88,0
446.3717,446.41336,43,88,0
446.78836,447.41336,55,114,0
446.78836,447.41336,50,109,0
446.78836,447.41336,43,104,0
447.41336,447.83002,55,114,0
447.41336,447.83002,50,109,0
447.41336,447.83002,43,104,0
447.83002,447.8578,55,88,0
447.83002,447.8578,50,88,0
447.83002,447.8578,43,88,0
448.03836,448.08002,48,88,0
448.03836,448.08002,43,88,0
448.03836,448.08002,36,88,0
448.45502,449.08002,48,114,0
448.45502,449.08002,43,109,0
448.45502,449.08002,36,104,0
449.08002,449.49667,48,114,0
449.08002,449.49667,43,109,0
449.08002,449.49667,36,104,0
449.49667,449.52448,48,88,0
449.49667,449.52448,43,88,0
449.49667,449.52448,36,88,0
449.70502,449.74667,48,88,0
449.70502,449.74667,43,88,0
449.70502,449.74667,36,88,0
450.12167,450.74667,48,114,0
450.12167,450.74667,43,109,0
450.12167,450.74667,36,104,0
450.74667,450.78836,60,36,0
450.74667,450.78836,55,36,0
450.74667,450.78836,48,36,0
451.16336,451.19113,60,36,0
451.16336,451.19113,55,36,0
451.16336,451.19113,48,36,0
451.37167,451.78836,60,62,0
451.37167,451.78836,55,57,0
451.37167,451.78836,48,52,0
451.78836,452.41336,60,36,0
451.78836,452.41336,55,36,0
451.78836,452.41336,48,36,0
452.41336,452.45502,60,36,0
452.41336,452.45502,55,36,0
452.41336,452.45502,48,36,0
452.83002,452.8578,60,36,0
452.83002,452.8578,55,36,0
452.83002,452.8578,48,36,0
453.03836,453.08002,62,36,0
453.03836,453.08002,59,36,0
453.03836,453.08002,50,36,0
453.45502,454.08002,62,36,0
453.45502,454.08002,59,36,0
453.45502,454.08002,50,36,0
454.08002,454.12167,62,36,0
454.08002,454.12167,59,36,0
454.08002,454.12167,50,36,0
454.49667,454.52448,62,36,0
454.49667,454.52448,59,36,0
454.49667,454.52448,50,36,0
454.70502,455.12167,60,62,0
454.70502,455.12167,57,57,0
454.70502,455.12167,52,52,0
455.12167,455.74667,60,36,0
455.12167,455.74667,57,36,0
455.12167,455.74667,52,36,0
455.74667,456.16336,60,62,0
455.74667,456.16336,57,57,0
455.74667,456.16336,52,52,0
456.16336,456.19113,60,36,0
456.16336,456.19113,57,36,0
456.16336,456.19113,52,36,0
456.37167,456.41336,62,36,0
456.37167,456.41336,52,36,0
456.78836,456.83002,62,36,0
456.78836,456.83002,52,36,0
458.45502,458.87167,57,36,0
458.87167,459.28836,57,36,0
459.28836,459.70502,57,36,0
459.70502,460.95502,57,36,0
460.95502,460.99667,57,36,0
461.37167,461.41336,57,36,0
461.78836,461.83002,57,36,0
462.20502,463.45502,62,36,0
463.45502,463.87167,62,36,0
463.87167,464.28836,59,36,0
464.28836,464.70502,57,36,0
464.70502,465.95502,56,36,0
465.95502,465.99667,56,36,0
466.37167,466.41336,56,36,0
466.78836,466.83002,56,36,0
467.20502,468.45502,57,36,0
468.45502,468.49667,57,36,0
468.45502,468.49667,45,36,0
468.87167,468.91336,50,36,0
468.87167,468.91336,38,36,0
469.28836,469.33002,54,36,0
469.28836,469.33002,42,36,0
469.70502,469.7328,57,49,0
469.70502,469.7328,45,49,0
469.91336,470.33002,45,75,0
469.91336,470.33002,40,70,0
469.91336,470.33002,33,65,0
470.33002,470.53836,45,49,0
470.33002,470.53836,40,49,0
470.33002,470.53836,33,49,0
470.53836,470.95502,45,62,0
470.53836,470.95502,40,62,0
470.53836,470.95502,33,62,0
470.95502,471.16336,45,62,0
470.95502,471.16336,40,62,0
470.95502,471.16336,33,62,0
471.16336,471.19113,61,62,0
471.16336,471.19113,49,62,0
471.37167,471.41336,59,62,0
471.37167,471.41336,47,62,0
471.78836,471.83002,57,62,0
471.78836,471.83002,45,62,0
472.20502,472.2328,56,62,0
472.20502,472.2328,44,62,0
472.41336,472.83002,44,88,0
472.41336,472.83002,37,83,0
472.41336,472.83002,32,78,0
472.83002,473.03836,44,62,0
472.83002,473.03836,37,62,0
472.83002,473.03836,32,62,0
473.03836,473.45502,44,62,0
473.03836,473.45502,37,62,0
473.03836,473.45502,32,62,0
473.45502,473.4828,44,62,0
473.45502,473.4828,37,62,0
473.45502,473.4828,32,62,0
473.66336,473.69113,61,62,0
473.66336,473.69113,56,62,0
473.87167,473.91336,60,62,0
473.87167,473.91336,56,62,0
474.28833,474.33002,63,62,0
474.28833,474.33002,56,62,0
474.70502,474.7328,61,62,0
474.70502,474.7328,56,62,0
474.70502,474.7328,49,62,0
474.91333,475.33002,49,88,0
474.91333,475.33002,37,76,0
474.91333,475.33002,40,80,0
474.91333,475.33002,44,84,0
475.33002,475.53833,49,62,0
475.33002,475.53833,37,62,0
475.33002,475.53833,40,62,0
475.33002,475.53833,44,62,0
475.53833,475.95502,49,62,0
475.53833,475.95502,37,62,0
475.53833,475.95502,40,62,0
475.53833,475.95502,44,62,0
475.95502,475.9828,49,62,0
475.95502,475.9828,37,62,0
475.95502,475.9828,40,62,0
475.95502,475.9828,44,62,0
476.16333,476.19113,57,36,0
476.16333,476.19113,52,36,0
476.37167,476.41333,56,36,0
476.37167,476.41333,52,36,0
476.78833,476.83002,59,36,0
476.78833,476.83002,52,36,0
477.20502,477.2328,57,36,0
477.20502,477.2328,54,36,0
477.41333,477.83002,54,62,0
477.41333,477.83002,49,57,0
477.41333,477.83002,42,52,0
477.83002,478.03833,54,36,0
477.83002,478.03833,49,36,0
477.83002,478.03833,42,36,0
478.03833,478.45502,54,36,0
478.03833,478.45502,49,36,0
478.03833,478.45502,42,36,0
478.45502,478.4828,54,75,0
478.45502,478.4828,49,75,0
478.45502,478.4828,42,75,0
478.66333,478.69113,52,75,0
478.66333,478.69113,40,75,0
478.87167,478.91333,50,75,0
478.87167,478.91333,38,75,0
479.28833,479.33002,49,75,0
479.28833,479.33002,37,75,0
479.70502,479.91333,47,88,0
479.70502,479.91333,35,88,0
479.91333,480.33002,47,114,0
479.91333,480.33002,35,102,0
479.91333,480.33002,38,106,0
479.91333,480.33002,43,110,0
480.33002,480.53833,47,88,0
480.33002,480.53833,35,88,0
480.33002,480.53833,38,88,0
480.33002,480.53833,43,88,0
480.53833,480.58002,47,88,0
480.53833,480.58002,35,88,0
480.53833,480.58002,38,88,0
480.53833,480.58002,43,88,0
480.95502,481.58002,47,114,0
480.95502,481.58002,35,102,0
480.95502,481.58002,38,106,0
480.95502,481.58002,43,110,0
481.58002,481.99667,57,62,0
481.58002,481.99667,48,50,0
481.58002,481.99667,50,54,0
481.58002,481.99667,54,58,0
481.99667,482.20502,57,36,0
481.99667,482.20502,48,36,0
481.99667,482.20502,50,36,0
481.99667,482.20502,54,36,0
482.20502,482.24667,57,36,0
482.20502,482.24667,48,36,0
482.20502,482.24667,50,36,0
482.20502,482.24667,54,36,0
482.62167,483.24667,57,36,0
482.62167,483.24667,48,36,0
482.62167,483.24667,50,36,0
482.62167,483.24667,54,36,0
483.24667,483.66333,47,114,0
483.24667,483.66333,35,102,0
483.24667,483.66333,38,106,0
483.24667,483.66333,43,110,0
483.66333,483.87167,47,88,0
483.66333,483.87167,35,88,0
483.66333,483.87167,38,88,0
483.66333,483.87167,43,88,0
483.87167,483.91333,47,88,0
483.87167,483.91333,35,88,0
483.87167,483.91333,38,88,0
483.87167,483.91333,43,88,0
484.28833,484.91333,47,114,0
484.28833,484.91333,35,102,0
484.28833,484.91333,38,106,0
484.28833,484.91333,43,110,0
484.91333,485.53833,57,88,0
484.91333,485.53833,48,64,0
484.91333,485.53833,50,72,0
484.91333,485.53833,54,80,0
485.53833,485.58002,57,36,0
485.53833,485.58002,48,36,0
485.53833,485.58002,50,36,0
485.53833,485.58002,54,36,0
485.95502,486.58002,57,88,0
485.95502,486.58002,48,88,0
485.95502,486.58002,50,88,0
485.95502,486.58002,54,88,0
486.58002,486.99667,47,88,0
486.58002,486.99667,35,88,0
486.58002,486.99667,38,88,0
486.58002,486.99667,43,88,0
486.99667,487.20502,47,88,0
486.99667,487.20502,35,88,0
486.99667,487.20502,38,88,0
486.99667,487.20502,43,88,0
487.20502,487.62167,47,88,0
487.20502,487.62167,35,88,0
487.20502,487.62167,38,88,0
487.20502,487.62167,43,88,0
487.62167,488.03833,47,88,0
487.62167,488.03833,35,88,0
488.03833,488.45502,47,88,0
488.03833,488.45502,35,88,0
488.45502,488.87167,47,88,0
488.45502,488.87167,35,88,0
488.87167,489.28833,47,88,0
488.87167,489.28833,35,88,0
489.28833,489.70502,47,88,0
489.28833,489.70502,35,88,0
489.70502,492.20502,47,101,0
489.70502,492.20502,35,101,0
492.20502,494.70502,47,88,0
492.20502,494.70502,35,88,0
494.70502,497.20502,52,36,0
494.70502,497.20502,50,36,0
494.70502,497.20502,47,36,0
497.20502,499.705,52,36,0
497.20502,499.705,50,36,0
497.20502,499.705,47,36,0
499.705,500.12167,57,36,0
499.705,500.12167,52,36,0
499.705,500.12167,49,36,0
500.12167,500.53833,59,36,0
500.12167,500.53833,57,36,0
500.12167,500.53833,54,36,0
500.53833,501.37167,61,36,0
500.53833,501.37167,57,36,0
500.53833,501.37167,52,36,0
501.37167,502.205,52,36,0
501.37167,502.205,40,36,0
502.205,502.41333,52,49,0
502.205,502.41333,45,49,0
503.455,503.49667,45,49,0
503.87167,503.91333,47,49,0
504.28833,504.33,44,49,0
504.705,505.955,45,75,0
505.955,505.99667,55,49,0
506.37167,506.41333,52,49,0
506.78833,506.83,49,49,0
507.205,508.455,45,75,0
508.455,508.49667,45,49,0
508.87167,508.91333,47,49,0
509.28833,509.33,44,49,0
509.705,510.955,45,49,0
510.955,511.37167,53,49,0
511.37167,511.99667,50,49,0
511.99667,512.205,47,49,0
512.205,513.455,45,75,0
513.455,513.49664,33,49,0
513.87164,513.9133,35,49,0
514.2883,514.33,32,49,0
514.705,515.955,33,75,0
515.955,516.2675,37,49,0
516.2675,516.37164,40,49,0
516.37164,516.4133,43,49,0
516.7883,516.83,46,49,0
517.205,518.455,33,75,0
518.455,518.49664,33,49,0
518.87164,518.9133,35,49,0
519.2883,519.33,32,49,0
519.705,521.011,33,49,0
521.011,521.3681,41,49,0
521.3681,521.4872,40,49,0
521.4872,521.6143,38,49,0
521.6143,521.7414,40,49,0
521.7414,521.99567,38,49,0
521.99567,522.39746,37,49,0
522.39746,522.5314,35,49,0
522.5314,522.6446,33,49,0
523.6974,523.8278,37,49,0
525.0018,525.1322,40,49,0
526.3061,530.2191,45,49,0
526.3061,530.2191,33,49,0
526.3061,530.2191,37,49,0
526.3061,530.2191,40,49,0
89.72752,89.784134,52,75,0
89.72752,89.784134,45,75,0
90.293564,90.35356,50,75,0
90.293564,90.35356,38,75,0
90.89356,92.197914,49,36,0
90.89356,92.197914,40,36,0
92.197914,93.50226,40,36,0
93.50226,94.75226,45,36,0
93.50226,94.75226,33,36,0
94.75226,95.16893,64,36,0
95.16893,95.585594,66,36,0
94.75226,95.585594,57,36,0
95.585594,95.62726,63,36,0
95.585594,95.62726,57,36,0
139.54391,139.96057,43,88,0
139.96057,140.16891,50,88,0
139.96057,140.16891,42,88,0
140.16891,140.37724,50,88,0
140.16891,140.37724,43,88,0
140.37724,140.79391,43,88,0
140.79391,141.00224,50,88,0
140.79391,141.00224,45,88,0
153.08557,153.71057,43,62,0
153.71057,153.9189,42,36,0
153.9189,154.12724,40,36,0
154.12724,154.33557,38,36,0
176.06598,176.69096,43,62,0
176.69096,176.8993,42,36,0
176.8993,177.10764,40,36,0
177.10764,177.31596,38,36,0
181.06596,181.48264,36,36,0
181.48264,181.8993,35,36,0
181.8993,182.31596,40,36,0
205.85762,206.27429,47,88,0
206.27429,206.48262,53,88,0
206.27429,206.48262,45,88,0
206.48262,206.69096,53,88,0
206.48262,206.69096,47,88,0
206.69096,207.10762,47,88,0
207.10762,207.31596,53,88,0
207.10762,207.31596,48,88,0
242.50401,243.03844,64,49,0
242.50401,243.03844,61,49,0
242.50401,243.03844,57,49,0
243.03844,243.45511,66,49,0
243.03844,243.45511,62,49,0
243.03844,243.45511,57,49,0
243.45511,243.87177,63,49,0
243.45511,243.87177,60,49,0
243.45511,243.87177,57,49,0
243.87177,245.12177,64,49,0
243.87177,245.12177,61,49,0
243.87177,245.12177,57,49,0
245.12177,245.53844,69,49,0
245.12177,245.53844,64,49,0
245.12177,245.53844,61,49,0
245.53844,245.95511,71,49,0
245.53844,245.95511,64,49,0
245.53844,245.95511,61,49,0
245.95511,246.37177,73,49,0
245.95511,246.37177,64,49,0
245.95511,246.37177,61,49,0
248.87177,249.49677,59,49,0
249.49677,249.70511,61,49,0
249.70511,250.12177,62,49,0
251.37177,253.03844,66,75,0
251.37177,253.03844,62,70,0
253.03844,253.4551,64,49,0
253.03844,253.4551,61,49,0
251.37177,253.4551,57,65,0
253.4551,253.87177,61,49,0
253.4551,253.87177,57,49,0
253.87177,254.28844,66,49,0
253.87177,254.28844,62,49,0
253.87177,254.28844,57,49,0
254.28844,254.3301,63,49,0
254.28844,254.3301,60,49,0
254.28844,254.3301,57,49,0
305.95508,306.37173,64,49,0
306.37173,306.78842,62,49,0
306.78842,307.20508,64,49,0
306.78842,307.20508,61,49,0
307.20508,307.62173,66,49,0
307.20508,307.62173,62,49,0
307.20508,307.62173,59,49,0
307.62173,308.03842,62,49,0
326.7884,326.99673,48,36,0
326.99673,327.20508,43,36,0
327.20508,327.4134,43,36,0
327.4134,327.62173,48,36,0
327.62173,327.83008,48,36,0
327.83008,328.0384,50,36,0
328.45508,328.6634,60,36,0
328.6634,328.87173,55,36,0
328.87173,329.08008,55,36,0
329.08008,329.2884,60,36,0
329.2884,329.49673,64,36,0
329.49673,329.70508,62,36,0
329.70508,330.12173,60,36,0
330.12173,330.33008,48,36,0
330.33008,330.5384,43,36,0
330.5384,330.74673,43,36,0
330.74673,330.95508,48,36,0
330.95508,331.1634,52,36,0
331.1634,331.37173,50,36,0
331.37173,331.7884,48,36,0
346.99673,347.20505,54,36,0
347.20505,347.62173,52,36,0
381.58005,381.9967,38,88,0
381.9967,382.20505,45,88,0
381.9967,382.20505,37,88,0
382.20505,382.4134,45,88,0
382.20505,382.4134,38,88,0
382.4134,382.83005,38,88,0
382.83005,383.0384,45,88,0
382.83005,383.0384,40,88,0
395.1217,395.7467,50,62,0
395.7467,395.95505,49,36,0
395.95505,396.1634,47,36,0
396.1634,396.3717,45,36,0
432.41336,432.83002,41,75,0
432.83002,433.03836,48,75,0
432.83002,433.03836,43,75,0
433.03836,433.2467,48,75,0
433.03836,433.2467,41,75,0
433.2467,433.66336,41,75,0
433.66336,433.8717,39,75,0
459.91336,459.95502,52,36,0
459.91336,459.95502,45,36,0
460.33002,460.3578,52,36,0
460.33002,460.3578,45,36,0
460.53836,460.58002,52,36,0
460.53836,460.58002,45,36,0
460.95502,460.99667,52,36,0
460.95502,460.99667,45,36,0
462.41336,462.83002,58,62,0
462.41336,462.83002,50,54,0
462.83002,462.8578,58,36,0
462.83002,462.8578,50,36,0
463.03836,463.08002,59,36,0
463.03836,463.08002,50,36,0
463.45502,463.49667,59,36,0
463.45502,463.49667,50,36,0
464.91336,465.33002,52,62,0
464.91336,465.33002,47,54,0
465.33002,465.3578,52,36,0
465.33002,465.3578,47,36,0
465.53836,465.58002,52,36,0
465.53836,465.58002,47,36,0
465.95502,465.99667,52,36,0
465.95502,465.99667,47,36,0
467.41336,467.83002,54,62,0
467.41336,467.83002,50,57,0
467.41336,467.83002,45,52,0
467.83002,467.8578,54,36,0
467.83002,467.8578,50,36,0
467.83002,467.8578,45,36,0
468.03836,468.08002,52,36,0
468.03836,468.08002,49,36,0
468.03836,468.08002,45,36,0
