start_time,end_time,note_value,velocity,instrument_program_number
0.0,0.08333325,61,101,0
0.0,0.08333325,57,101,0
0.0,0.08333325,55,101,0
0.08333325,0.333333,61,101,0
0.08333325,0.333333,57,101,0
0.08333325,0.333333,55,101,0
0.333333,0.41666624,61,101,0
0.333333,0.41666624,57,101,0
0.333333,0.41666624,55,101,0
0.41666624,0.666666,62,101,0
0.41666624,0.666666,57,101,0
0.41666624,0.666666,55,101,0
0.666666,0.7499992,64,101,0
0.666666,0.7499992,57,101,0
0.666666,0.7499992,55,101,0
0.7499992,1.4166652,66,114,0
0.7499992,1.4166652,54,114,0
0.7499992,1.4166652,57,114,0
0.7499992,1.4166652,62,114,0
1.4166652,1.999998,66,114,0
1.4166652,1.999998,54,114,0
1.4166652,1.999998,57,114,0
1.4166652,1.999998,62,114,0
1.999998,2.0833313,66,114,0
2.0833313,2.333331,67,114,0
2.333331,2.3749976,66,114,0
2.3749976,2.39722,64,114,0
2.394442,2.4166644,66,114,0
2.4166644,2.666664,64,114,0
2.666664,2.7499971,62,114,0
2.7499971,3.4166632,69,114,0
2.7499971,3.4166632,64,114,0
2.7499971,3.4166632,57,114,0
3.4166632,3.999996,69,114,0
3.4166632,3.999996,64,114,0
3.4166632,3.999996,57,114,0
3.999996,4.0416627,69,114,0
4.0416627,4.0638847,71,114,0
4.061107,4.0916624,73,114,0
4.0916624,4.258329,71,114,0
4.258329,4.3416624,69,114,0
4.3416624,4.591662,71,114,0
4.591662,4.6749954,73,114,0
4.749995,5.4166613,74,114,0
4.749995,5.4166613,62,114,0
4.749995,5.4166613,66,114,0
4.749995,5.4166613,71,114,0
5.4166613,5.916661,74,114,0
5.4166613,5.916661,62,114,0
5.4166613,5.916661,66,114,0
5.4166613,5.916661,71,114,0
5.916661,5.933327,74,114,0
5.916661,5.933327,68,114,0
6.0833273,6.0999937,74,114,0
6.0833273,6.0999937,68,114,0
6.249994,6.26666,76,114,0
6.249994,6.26666,74,114,0
6.249994,6.26666,68,114,0
6.4166603,6.4333267,78,114,0
6.4166603,6.4333267,74,114,0
6.4166603,6.4333267,68,114,0
6.583327,6.599993,80,114,0
6.583327,6.599993,74,114,0
6.583327,6.599993,68,114,0
6.7499933,7.4166594,81,114,0
6.7499933,7.4166594,73,114,0
6.7499933,7.4166594,69,114,0
7.4166594,8.083325,69,114,0
7.4166594,8.083325,61,114,0
7.4166594,8.083325,57,114,0
8.416658,8.749991,81,49,0
8.749991,9.083324,82,49,0
9.083324,9.194435,83,49,0
9.191657,9.302769,82,49,0
9.305546,9.416657,83,49,0
9.416657,9.527768,88,49,0
9.52499,9.636102,87,49,0
9.638879,9.74999,88,49,0
9.74999,10.333323,91,49,0
10.333323,10.4166565,90,49,0
10.4166565,10.666656,88,49,0
10.666656,10.7499895,86,49,0
10.7499895,10.999989,85,49,0
10.999989,11.083323,83,49,0
11.083323,11.194433,81,49,0
11.191655,11.302767,80,49,0
11.305544,11.416656,81,49,0
11.416656,11.527766,86,49,0
11.524988,11.6361,85,49,0
11.638877,11.749989,86,49,0
11.749989,12.333321,90,75,0
12.333321,12.416655,88,49,0
12.416655,12.666654,86,49,0
12.666654,12.749988,85,49,0
12.749988,12.999987,83,49,0
12.999987,13.083321,81,49,0
13.083321,13.194431,79,49,0
13.191653,13.302765,78,49,0
13.305542,13.416654,79,49,0
13.416654,13.527764,85,49,0
13.524986,13.636098,84,49,0
13.638875,13.749987,85,49,0
13.749987,14.333319,88,75,0
14.333319,14.416653,86,49,0
14.416653,14.666652,85,49,0
14.666652,14.749986,86,49,0
14.749986,14.999985,85,49,0
14.999985,15.083319,83,49,0
15.083319,15.749984,82,75,0
15.083319,15.749984,78,67,0
15.749984,16.249983,82,75,0
15.749984,16.249983,78,67,0
16.249983,16.41665,82,49,0
16.41665,16.66665,83,49,0
16.66665,16.749983,82,49,0
16.749983,16.999983,83,49,0
16.999983,17.083317,82,49,0
17.083317,17.749983,80,75,0
17.083317,17.749983,77,67,0
17.749983,18.24998,80,75,0
17.749983,18.24998,77,67,0
18.24998,18.416649,80,49,0
18.416649,18.666649,82,49,0
18.666649,18.74998,80,49,0
18.74998,18.99998,82,49,0
18.99998,19.083315,80,49,0
19.083315,19.74998,78,75,0
19.74998,20.333313,78,75,0
21.083313,21.749979,62,114,0
21.083313,21.749979,54,114,0
21.083313,21.749979,50,114,0
21.749979,22.333311,62,114,0
21.749979,22.333311,50,114,0
21.749979,22.333311,54,114,0
21.749979,22.333311,59,114,0
22.333311,22.416645,62,114,0
22.416645,22.666643,62,114,0
22.666643,22.749977,64,114,0
22.749977,22.999977,66,114,0
22.999977,23.083311,62,114,0
23.083311,23.749977,69,114,0
23.083311,23.749977,57,114,0
23.083311,23.749977,64,114,0
23.083311,23.749977,67,114,0
23.749977,24.33331,69,114,0
23.749977,24.33331,57,114,0
23.749977,24.33331,64,114,0
23.749977,24.33331,67,114,0
24.33331,24.416643,69,114,0
24.33331,24.416643,67,114,0
24.33331,24.416643,64,114,0
24.416643,24.666641,69,114,0
24.416643,24.666641,67,114,0
24.416643,24.666641,64,114,0
24.666641,24.749975,69,114,0
24.666641,24.749975,67,114,0
24.666641,24.749975,64,114,0
24.749975,24.999975,71,114,0
24.749975,24.999975,67,114,0
24.749975,24.999975,64,114,0
24.999975,25.08331,73,114,0
24.999975,25.08331,67,114,0
24.999975,25.08331,64,114,0
25.08331,25.749973,74,114,0
25.08331,25.749973,62,114,0
25.08331,25.749973,66,114,0
25.08331,25.749973,69,114,0
25.749973,26.249973,74,114,0
25.749973,26.249973,67,114,0
25.749973,26.249973,62,114,0
26.249973,26.26664,74,114,0
26.249973,26.26664,68,114,0
26.41664,26.433308,74,114,0
26.41664,26.433308,68,114,0
26.583307,26.599974,76,114,0
26.583307,26.599974,74,114,0
26.583307,26.599974,68,114,0
26.749973,26.76664,78,114,0
26.749973,26.76664,74,114,0
26.749973,26.76664,68,114,0
26.91664,26.933306,80,114,0
26.91664,26.933306,74,114,0
26.91664,26.933306,68,114,0
27.083305,27.749971,81,114,0
27.083305,27.749971,73,114,0
27.083305,27.749971,69,114,0
27.749971,28.416637,69,114,0
27.749971,28.416637,61,114,0
27.749971,28.416637,57,114,0
28.749971,29.083303,76,49,0
29.083303,29.416637,77,49,0
29.416637,29.527748,78,49,0
29.524971,29.636082,77,49,0
29.638859,29.74997,78,49,0
29.74997,29.861082,83,49,0
29.858303,29.969414,82,49,0
29.972193,30.083303,83,49,0
30.083303,30.666636,86,75,0
30.666636,30.708303,85,49,0
30.708303,30.730524,83,49,0
30.727747,30.74997,85,49,0
30.74997,30.99997,83,49,0
30.99997,31.041636,81,49,0
31.041636,31.063858,80,49,0
31.06108,31.083302,81,49,0
31.083302,31.333302,80,49,0
31.333302,31.416636,78,49,0
31.416636,31.527746,76,49,0
31.52497,31.63608,75,49,0
31.638857,31.749968,76,49,0
31.749968,31.86108,81,49,0
31.858301,31.969412,80,49,0
31.97219,32.0833,81,49,0
32.0833,32.666634,85,75,0
32.666634,32.7083,83,49,0
32.7083,32.730522,81,49,0
32.727745,32.749966,83,49,0
32.749966,32.999966,81,49,0
32.999966,33.041634,80,49,0
33.041634,33.063854,78,49,0
33.061077,33.0833,80,49,0
33.0833,33.3333,78,49,0
33.3333,33.416634,76,49,0
33.416634,33.527744,74,49,0
33.524967,33.636078,73,49,0
33.638855,33.749966,74,49,0
33.749966,33.861076,80,49,0
33.8583,33.96941,79,49,0
33.972187,34.083298,80,49,0
34.083298,34.666634,83,75,0
34.666634,34.749966,81,49,0
34.749966,34.999966,80,49,0
34.999966,35.083298,81,49,0
35.083298,35.333298,80,49,0
35.333298,35.41663,78,49,0
35.41663,36.083298,77,62,0
35.41663,36.083298,73,54,0
36.083298,36.66663,77,36,0
36.083298,36.66663,73,36,0
36.66663,36.74996,77,36,0
36.74996,36.99996,78,36,0
36.99996,37.083298,77,36,0
37.083298,37.333298,78,36,0
37.333298,37.41663,77,36,0
37.41663,38.083294,80,62,0
37.41663,38.083294,76,54,0
38.083294,38.66663,80,62,0
38.083294,38.66663,76,54,0
38.66663,38.74996,76,36,0
38.74996,38.99996,78,36,0
38.99996,39.083294,76,36,0
39.083294,39.333294,78,36,0
39.333294,39.416626,80,36,0
39.416626,40.083294,81,36,0
39.416626,40.083294,73,36,0
39.416626,40.083294,69,36,0
40.083294,40.583294,81,36,0
40.083294,40.583294,73,36,0
40.083294,40.583294,69,36,0
42.666622,42.677734,69,114,0
42.749958,42.774956,69,114,0
42.999958,43.011066,69,114,0
43.08329,43.10829,67,114,0
43.33329,43.344402,69,114,0
43.416622,44.08329,74,114,0
43.416622,44.08329,62,114,0
43.416622,44.08329,65,114,0
43.416622,44.08329,70,114,0
44.08329,44.666622,74,114,0
44.08329,44.666622,62,114,0
44.08329,44.666622,65,114,0
44.08329,44.666622,70,114,0
44.666622,44.677734,77,114,0
44.666622,44.677734,74,114,0
44.749954,44.774956,77,127,0
44.749954,44.774956,74,127,0
44.999954,45.011066,77,114,0
44.999954,45.011066,74,114,0
45.08329,45.108288,76,114,0
45.08329,45.108288,73,114,0
45.333286,45.3444,77,114,0
45.333286,45.3444,74,114,0
45.416622,45.44162,74,127,0
45.416622,45.44162,70,127,0
45.666622,45.67773,74,114,0
45.666622,45.67773,70,114,0
45.749954,45.774956,73,114,0
45.749954,45.774956,69,114,0
45.999954,46.011066,74,114,0
45.999954,46.011066,70,114,0
46.083286,46.108288,70,127,0
46.083286,46.108288,67,127,0
46.333286,46.3444,70,114,0
46.333286,46.3444,67,114,0
46.41662,46.44162,69,114,0
46.41662,46.44162,66,114,0
46.66662,46.67773,70,114,0
46.66662,46.67773,67,114,0
46.749954,47.41662,67,114,0
46.749954,47.41662,63,114,0
47.41662,48.083286,79,114,0
47.41662,48.083286,67,114,0
47.41662,48.083286,71,114,0
47.41662,48.083286,75,114,0
48.083286,48.74995,79,114,0
48.083286,48.74995,67,114,0
48.083286,48.74995,72,114,0
48.083286,48.74995,75,114,0
48.74995,48.783283,77,127,0
48.74995,48.783283,74,127,0
48.74995,48.783283,65,127,0
49.083282,49.11662,81,127,0
49.083282,49.11662,69,127,0
49.083282,49.11662,72,127,0
49.083282,49.11662,75,127,0
49.41662,50.083282,82,114,0
49.41662,50.083282,74,114,0
49.41662,50.083282,70,114,0
50.083282,50.666615,70,114,0
50.083282,50.666615,62,114,0
50.083282,50.666615,58,114,0
50.666615,50.677727,77,49,0
50.666615,50.677727,74,49,0
50.74995,50.77495,77,49,0
50.74995,50.77495,74,49,0
50.99995,51.01106,77,49,0
50.99995,51.01106,74,49,0
51.083282,51.108284,76,49,0
51.083282,51.108284,73,49,0
51.333282,51.344395,77,49,0
51.333282,51.344395,74,49,0
51.416615,52.083282,74,75,0
51.416615,52.083282,70,67,0
52.083282,52.666615,74,75,0
52.083282,52.666615,70,67,0
52.666615,52.677727,74,49,0
52.666615,52.677727,70,49,0
52.749947,52.77495,74,49,0
52.749947,52.77495,70,49,0
52.999947,53.01106,74,49,0
52.999947,53.01106,70,49,0
53.08328,53.10828,73,49,0
53.08328,53.10828,69,49,0
53.33328,53.34439,74,49,0
53.33328,53.34439,70,49,0
53.416615,54.08328,77,75,0
53.416615,54.08328,74,67,0
54.08328,54.66661,75,75,0
54.08328,54.66661,72,67,0
54.66661,54.749947,77,49,0
54.66661,54.749947,75,49,0
54.66661,54.749947,72,49,0
54.749947,54.999947,77,49,0
54.749947,54.999947,75,49,0
54.749947,54.999947,72,49,0
54.999947,55.08328,77,49,0
54.999947,55.08328,75,49,0
54.999947,55.08328,72,49,0
55.08328,55.33328,77,49,0
55.08328,55.33328,74,49,0
55.08328,55.33328,71,49,0
55.33328,55.41661,77,49,0
55.33328,55.41661,75,49,0
55.33328,55.41661,72,49,0
55.41661,56.08328,77,75,0
55.41661,56.08328,72,70,0
55.41661,56.08328,69,65,0
56.08328,56.66661,77,75,0
56.08328,56.66661,72,70,0
56.08328,56.66661,69,65,0
56.66661,56.749943,77,49,0
56.66661,56.749943,72,49,0
56.66661,56.749943,69,49,0
56.749943,56.999943,77,49,0
56.749943,56.999943,72,49,0
56.749943,56.999943,69,49,0
56.999943,57.083275,77,49,0
56.999943,57.083275,72,49,0
56.999943,57.083275,69,49,0
57.083275,57.333275,77,49,0
57.083275,57.333275,71,49,0
57.083275,57.333275,68,49,0
57.333275,57.41661,77,49,0
57.333275,57.41661,72,49,0
57.333275,57.41661,69,49,0
57.41661,58.083275,77,75,0
57.41661,58.083275,73,70,0
57.41661,58.083275,69,65,0
58.083275,58.666607,77,75,0
58.083275,58.666607,74,70,0
58.083275,58.666607,70,65,0
58.666607,58.749943,77,49,0
58.666607,58.749943,74,49,0
58.666607,58.749943,70,49,0
58.749943,58.999943,77,49,0
58.749943,58.999943,74,49,0
58.749943,58.999943,70,49,0
58.999943,59.083275,77,49,0
58.999943,59.083275,74,49,0
58.999943,59.083275,70,49,0
59.083275,59.333275,76,49,0
59.083275,59.333275,74,49,0
59.083275,59.333275,70,49,0
59.333275,59.416607,77,49,0
59.333275,59.416607,74,49,0
59.333275,59.416607,70,49,0
59.416607,60.083275,79,49,0
59.416607,60.083275,74,49,0
59.416607,60.083275,70,49,0
60.083275,60.666607,79,49,0
60.083275,60.666607,74,49,0
60.083275,60.666607,70,49,0
60.666607,60.74994,79,49,0
60.666607,60.74994,74,49,0
60.666607,60.74994,70,49,0
60.74994,60.99994,79,49,0
60.74994,60.99994,74,49,0
60.74994,60.99994,70,49,0
60.99994,61.08327,82,49,0
60.99994,61.08327,74,49,0
60.99994,61.08327,70,49,0
61.08327,61.33327,81,49,0
61.08327,61.33327,74,49,0
61.08327,61.33327,70,49,0
61.33327,61.416607,79,49,0
61.33327,61.416607,74,49,0
61.33327,61.416607,70,49,0
61.416607,62.08327,77,49,0
61.416607,62.08327,74,49,0
61.416607,62.08327,70,49,0
62.08327,62.666603,77,49,0
62.08327,62.666603,74,49,0
62.08327,62.666603,70,49,0
62.666603,62.74994,77,49,0
62.666603,62.74994,74,49,0
62.666603,62.74994,70,49,0
62.74994,62.999935,77,49,0
62.74994,62.999935,74,49,0
62.74994,62.999935,70,49,0
62.999935,63.08327,77,49,0
62.999935,63.08327,74,49,0
62.999935,63.08327,70,49,0
63.08327,63.33327,79,49,0
63.08327,63.33327,75,49,0
63.08327,63.33327,70,49,0
63.33327,63.416603,77,49,0
63.33327,63.416603,74,49,0
63.33327,63.416603,70,49,0
63.416603,64.08327,77,49,0
63.416603,64.08327,74,49,0
63.416603,64.08327,69,49,0
64.08327,64.6666,75,49,0
64.08327,64.6666,72,49,0
64.08327,64.6666,69,49,0
64.6666,64.74994,75,49,0
64.6666,64.74994,72,49,0
64.6666,64.74994,65,49,0
64.74994,64.99993,75,49,0
64.74994,64.99993,72,49,0
64.74994,64.99993,65,49,0
64.99993,65.08327,75,49,0
64.99993,65.08327,72,49,0
64.99993,65.08327,65,49,0
65.08327,65.33327,74,49,0
65.08327,65.33327,70,49,0
65.08327,65.33327,65,49,0
65.33327,65.4166,72,49,0
65.33327,65.4166,69,49,0
65.33327,65.4166,65,49,0
65.4166,66.10061,70,49,0
65.4166,66.10061,65,49,0
65.4166,66.10061,62,49,0
66.10061,66.74445,70,49,0
66.10061,66.74445,65,49,0
66.10061,66.74445,62,49,0
66.74445,66.839386,75,49,0
66.74445,66.839386,72,49,0
66.74445,66.839386,65,49,0
66.839386,67.1316,75,49,0
66.839386,67.1316,72,49,0
66.839386,67.1316,65,49,0
67.1316,67.229,75,49,0
67.1316,67.229,72,49,0
67.1316,67.229,65,49,0
67.229,67.5212,74,49,0
67.229,67.5212,70,49,0
67.229,67.5212,65,49,0
67.5212,67.61861,72,49,0
67.5212,67.61861,69,49,0
67.5212,67.61861,65,49,0
67.61861,68.39783,70,49,0
67.61861,68.39783,65,49,0
67.61861,68.39783,62,49,0
68.39783,69.07964,70,49,0
68.39783,69.07964,65,49,0
68.39783,69.07964,62,49,0
69.07964,69.17705,75,49,0
69.07964,69.17705,72,49,0
69.07964,69.17705,65,49,0
69.17705,69.46925,75,49,0
69.17705,69.46925,72,49,0
69.17705,69.46925,65,49,0
69.46925,69.56666,75,49,0
69.46925,69.56666,72,49,0
69.46925,69.56666,65,49,0
69.56666,69.858864,74,49,0
69.56666,69.858864,70,49,0
69.56666,69.858864,65,49,0
69.858864,69.95627,72,49,0
69.858864,69.95627,69,49,0
69.858864,69.95627,65,49,0
69.95627,70.20627,70,49,0
69.95627,70.20627,65,49,0
69.95627,70.20627,62,49,0
72.95627,73.20627,57,101,0
73.20627,73.2896,69,101,0
73.20627,73.2896,57,101,0
73.2896,73.5396,69,127,0
73.2896,73.5396,57,119,0
73.5396,73.62293,71,101,0
73.5396,73.62293,59,101,0
73.62293,73.87293,73,101,0
73.62293,73.87293,61,101,0
73.87293,73.95626,74,101,0
73.87293,73.95626,62,101,0
73.95626,74.62293,76,114,0
73.95626,74.62293,64,114,0
73.95626,74.62293,69,114,0
73.95626,74.62293,73,114,0
74.62293,75.20626,76,114,0
74.62293,75.20626,64,114,0
74.62293,75.20626,69,114,0
74.62293,75.20626,73,114,0
75.20626,75.2896,76,114,0
75.20626,75.2896,74,114,0
75.20626,75.2896,68,114,0
75.2896,75.5396,76,114,0
75.2896,75.5396,74,114,0
75.2896,75.5396,68,114,0
75.5396,75.62293,76,114,0
75.5396,75.62293,74,114,0
75.5396,75.62293,68,114,0
75.62293,75.87293,78,114,0
75.62293,75.87293,74,114,0
75.62293,75.87293,68,114,0
75.87293,75.95626,80,114,0
75.87293,75.95626,74,114,0
75.87293,75.95626,68,114,0
75.95626,76.622925,81,114,0
75.95626,76.622925,73,114,0
75.95626,76.622925,69,114,0
76.622925,77.20626,81,114,0
76.622925,77.20626,73,114,0
76.622925,77.20626,69,114,0
77.20626,77.21737,61,49,0
77.20626,77.21737,57,49,0
77.20626,77.21737,55,49,0
77.2896,77.31459,62,49,0
77.2896,77.31459,57,49,0
77.2896,77.31459,55,49,0
77.5396,77.550705,61,49,0
77.5396,77.550705,57,49,0
77.5396,77.550705,55,49,0
77.622925,77.64793,62,49,0
77.622925,77.64793,57,49,0
77.622925,77.64793,55,49,0
77.872925,77.88404,64,49,0
77.872925,77.88404,57,49,0
77.872925,77.88404,55,49,0
77.95626,78.622925,57,75,0
77.95626,78.622925,54,67,0
78.622925,79.20626,66,49,0
78.622925,79.20626,57,49,0
79.20626,79.21737,66,49,0
79.20626,79.21737,57,49,0
79.28959,79.31459,67,49,0
79.28959,79.31459,55,49,0
79.53959,79.550705,66,49,0
79.53959,79.550705,55,49,0
79.622925,79.64793,64,49,0
79.622925,79.64793,56,49,0
79.872925,79.88403,62,49,0
79.872925,79.88403,56,49,0
79.95626,80.622925,69,75,0
79.95626,80.622925,61,70,0
79.95626,80.622925,57,65,0
80.622925,81.20626,64,75,0
80.622925,81.20626,61,67,0
81.20626,81.21737,69,49,0
81.20626,81.21737,64,49,0
81.247925,81.25903,73,49,0
81.28959,81.31459,71,49,0
81.28959,81.31459,64,49,0
81.53959,81.5507,69,49,0
81.53959,81.5507,64,49,0
81.622925,81.64793,71,49,0
81.622925,81.64793,64,49,0
81.872925,81.88403,73,49,0
81.872925,81.88403,64,49,0
81.95625,82.622925,74,75,0
81.95625,82.622925,66,70,0
81.95625,82.622925,62,65,0
82.622925,83.20625,66,75,0
82.622925,83.20625,62,67,0
83.20625,83.247925,66,49,0
83.20625,83.247925,62,49,0
83.247925,83.28959,69,49,0
83.28959,83.31459,68,49,0
83.28959,83.31459,62,49,0
83.53959,83.5507,66,49,0
83.53959,83.5507,62,49,0
83.622925,83.64792,68,49,0
83.622925,83.64792,62,49,0
83.872925,83.88403,64,49,0
83.872925,83.88403,62,49,0
83.95625,84.62292,69,75,0
83.95625,84.62292,61,67,0
84.62292,85.28959,69,75,0
84.62292,85.28959,61,67,0
85.28959,85.32292,69,88,0
85.28959,85.32292,66,88,0
85.28959,85.32292,62,88,0
85.62292,85.65625,70,88,0
85.62292,85.65625,66,88,0
85.62292,85.65625,62,88,0
85.95625,86.62292,71,101,0
85.95625,86.62292,67,101,0
85.95625,86.62292,62,101,0
86.62292,86.95625,76,127,0
86.62292,86.95625,71,122,0
86.62292,86.95625,67,117,0
86.95625,86.989586,79,127,0
86.95625,86.989586,76,122,0
86.95625,86.989586,71,117,0
87.28958,87.322914,76,127,0
87.28958,87.322914,71,122,0
87.28958,87.322914,67,117,0
87.62292,87.65625,67,127,0
87.62292,87.65625,64,122,0
87.62292,87.65625,61,117,0
87.95625,88.62292,69,88,0
87.95625,88.62292,66,88,0
87.95625,88.62292,61,88,0
88.62292,88.95625,74,114,0
88.62292,88.95625,69,109,0
88.62292,88.95625,66,104,0
88.95625,88.989586,78,114,0
88.95625,88.989586,74,109,0
88.95625,88.989586,69,104,0
89.28958,89.322914,74,114,0
89.28958,89.322914,69,109,0
89.28958,89.322914,66,104,0
89.62292,89.65625,66,114,0
89.62292,89.65625,62,109,0
89.62292,89.65625,59,104,0
89.956245,90.62292,67,88,0
89.956245,90.62292,64,88,0
89.956245,90.62292,59,88,0
90.62292,90.956245,73,114,0
90.62292,90.956245,67,109,0
90.62292,90.956245,64,104,0
90.956245,90.98958,76,114,0
90.956245,90.98958,73,109,0
90.956245,90.98958,67,104,0
91.28958,91.322914,73,114,0
91.28958,91.322914,67,109,0
91.28958,91.322914,64,104,0
91.62291,91.65625,71,114,0
91.62291,91.65625,68,109,0
91.62291,91.65625,61,104,0
91.956245,92.62291,70,114,0
91.956245,92.62291,66,114,0
91.956245,92.62291,61,114,0
92.62291,93.206245,70,114,0
92.62291,93.206245,66,114,0
92.62291,93.206245,61,114,0
93.206245,93.217354,73,114,0
93.206245,93.217354,66,114,0
93.28958,93.314575,75,114,0
93.28958,93.314575,66,114,0
93.53958,93.55069,73,114,0
93.53958,93.55069,66,114,0
93.62291,93.64791,75,114,0
93.62291,93.64791,66,114,0
93.87291,93.884026,73,114,0
93.87291,93.884026,66,114,0
93.956245,94.62291,77,114,0
93.956245,94.62291,71,114,0
93.956245,94.62291,65,114,0
94.62291,95.206245,77,114,0
94.62291,95.206245,71,114,0
94.62291,95.206245,65,114,0
95.206245,95.217354,77,114,0
95.206245,95.217354,73,114,0
95.206245,95.217354,65,114,0
95.28957,95.314575,77,114,0
95.28957,95.314575,73,114,0
95.28957,95.314575,65,114,0
95.53957,95.55069,77,114,0
95.53957,95.55069,73,114,0
95.53957,95.55069,65,114,0
95.62291,95.64791,77,114,0
95.62291,95.64791,73,114,0
95.62291,95.64791,65,114,0
95.87291,95.88402,77,114,0
95.87291,95.88402,73,114,0
95.87291,95.88402,65,114,0
95.956245,96.62291,78,114,0
95.956245,96.62291,70,114,0
95.956245,96.62291,66,114,0
96.62291,97.20624,78,114,0
96.62291,97.20624,70,114,0
96.62291,97.20624,66,114,0
97.20624,97.217354,73,49,0
97.20624,97.217354,69,49,0
97.20624,97.217354,67,49,0
97.28957,97.314575,73,49,0
97.28957,97.314575,69,49,0
97.28957,97.314575,67,49,0
97.53957,97.55068,73,49,0
97.53957,97.55068,69,49,0
97.53957,97.55068,67,49,0
97.62291,97.6479,74,49,0
97.62291,97.6479,69,49,0
97.62291,97.6479,67,49,0
97.87291,97.88402,76,49,0
97.87291,97.88402,69,49,0
97.87291,97.88402,67,49,0
97.95624,98.62291,69,75,0
97.95624,98.62291,66,67,0
98.62291,99.20624,78,75,0
98.62291,99.20624,69,70,0
98.62291,99.20624,66,65,0
99.20624,99.28957,78,49,0
99.20624,99.28957,66,49,0
99.28957,99.53957,78,49,0
99.28957,99.53957,66,49,0
99.53957,99.6229,78,49,0
99.53957,99.6229,66,49,0
99.6229,99.8729,76,49,0
99.6229,99.8729,68,49,0
99.8729,99.95624,74,49,0
99.8729,99.95624,68,49,0
99.95624,100.6229,73,75,0
99.95624,100.6229,69,67,0
100.6229,101.20624,76,75,0
100.6229,101.20624,69,67,0
101.20624,101.28957,76,49,0
101.20624,101.28957,70,49,0
101.28957,101.53957,76,49,0
101.28957,101.53957,70,49,0
101.53957,101.6229,76,49,0
101.53957,101.6229,70,49,0
101.6229,101.8729,74,49,0
101.6229,101.8729,70,49,0
101.8729,101.95624,73,49,0
101.8729,101.95624,70,49,0
101.95624,102.6229,71,75,0
102.6229,103.20624,74,75,0
102.6229,103.20624,67,67,0
103.20624,103.289566,71,49,0
103.20624,103.289566,67,49,0
103.20624,103.289566,61,49,0
103.289566,103.539566,71,49,0
103.289566,103.539566,67,49,0
103.289566,103.539566,61,49,0
103.539566,103.6229,71,49,0
103.539566,103.6229,67,49,0
103.539566,103.6229,61,49,0
103.6229,103.8729,69,49,0
103.6229,103.8729,66,49,0
103.6229,103.8729,61,49,0
103.8729,103.95624,67,49,0
103.8729,103.95624,64,49,0
103.8729,103.95624,61,49,0
103.95624,104.6229,67,75,0
103.95624,104.6229,64,70,0
103.95624,104.6229,57,65,0
104.6229,105.289566,66,75,0
104.6229,105.289566,62,70,0
104.6229,105.289566,57,65,0
105.289566,105.3229,69,88,0
105.289566,105.3229,66,88,0
105.289566,105.3229,62,88,0
105.6229,105.656235,70,88,0
105.6229,105.656235,66,88,0
105.6229,105.656235,62,88,0
105.95623,106.6229,71,101,0
105.95623,106.6229,67,101,0
105.95623,106.6229,62,101,0
106.6229,106.95623,76,127,0
106.6229,106.95623,71,122,0
106.6229,106.95623,67,117,0
106.95623,106.98956,79,127,0
106.95623,106.98956,76,122,0
106.95623,106.98956,71,117,0
107.289566,107.3229,76,127,0
107.289566,107.3229,71,122,0
107.289566,107.3229,67,117,0
107.622894,107.65623,64,127,0
107.622894,107.65623,61,119,0
107.95623,108.622894,73,101,0
107.95623,108.622894,69,101,0
107.95623,108.622894,64,101,0
108.622894,108.95623,78,101,0
108.622894,108.95623,73,101,0
108.622894,108.95623,69,101,0
108.95623,108.98956,81,101,0
108.95623,108.98956,78,101,0
108.95623,108.98956,73,101,0
109.289566,109.3229,78,101,0
109.289566,109.3229,73,101,0
109.289566,109.3229,69,101,0
109.622894,109.65623,69,101,0
109.622894,109.65623,66,101,0
109.95623,110.622894,74,101,0
109.95623,110.622894,71,101,0
109.95623,110.622894,66,101,0
110.622894,110.95623,79,101,0
110.622894,110.95623,74,101,0
110.622894,110.95623,71,101,0
110.95623,110.98956,83,101,0
110.95623,110.98956,79,101,0
110.95623,110.98956,74,101,0
111.28956,111.32289,79,101,0
111.28956,111.32289,74,101,0
111.28956,111.32289,71,101,0
111.622894,111.65623,71,101,0
111.622894,111.65623,67,101,0
111.95622,112.622894,81,101,0
111.95622,112.622894,69,101,0
111.95622,112.622894,73,101,0
111.95622,112.622894,79,101,0
112.622894,113.20622,81,114,0
112.622894,113.20622,69,114,0
112.622894,113.20622,73,114,0
112.622894,113.20622,79,114,0
113.20622,113.21734,81,114,0
113.20622,113.21734,79,114,0
113.20622,113.21734,73,114,0
113.28956,113.31456,81,114,0
113.28956,113.31456,79,114,0
113.28956,113.31456,73,114,0
113.53956,113.55067,81,114,0
113.53956,113.55067,79,114,0
113.53956,113.55067,73,114,0
113.622894,113.64789,83,114,0
113.622894,113.64789,79,114,0
113.622894,113.64789,73,114,0
113.872894,113.884,85,114,0
113.872894,113.884,79,114,0
113.872894,113.884,73,114,0
113.95622,114.62289,86,114,0
113.95622,114.62289,78,114,0
113.95622,114.62289,74,114,0
114.62289,115.20622,86,114,0
114.62289,115.20622,78,114,0
114.62289,115.20622,74,114,0
115.20622,115.28956,69,49,0
115.20622,115.28956,66,49,0
115.28956,115.53956,69,49,0
115.28956,115.53956,66,49,0
115.53956,115.62289,69,49,0
115.53956,115.62289,66,49,0
115.62289,115.87289,67,49,0
115.62289,115.87289,64,49,0
115.87289,115.95622,66,49,0
115.87289,115.95622,62,49,0
115.95622,116.62289,64,75,0
115.95622,116.62289,57,67,0
116.62289,117.207634,64,75,0
116.62289,117.207634,57,67,0
117.207634,117.29238,71,49,0
117.207634,117.29238,67,49,0
117.29238,117.55251,69,49,0
117.29238,117.55251,66,49,0
117.55251,117.64023,67,49,0
117.55251,117.64023,64,49,0
117.64023,117.91134,66,49,0
117.64023,117.91134,62,49,0
117.91134,118.0028,64,49,0
117.91134,118.0028,57,49,0
118.0028,118.768616,62,75,0
118.0028,118.768616,54,67,0
118.768616,119.45044,62,75,0
118.768616,119.45044,54,67,0
121.57706,121.588165,69,114,0
121.66039,121.68539,69,114,0
121.91039,121.9215,69,114,0
121.99372,122.01872,67,114,0
122.24372,122.25484,69,114,0
122.32706,122.99372,74,114,0
122.32706,122.99372,62,114,0
122.32706,122.99372,65,114,0
122.32706,122.99372,70,114,0
122.99372,123.57706,74,114,0
122.99372,123.57706,62,114,0
122.99372,123.57706,65,114,0
122.99372,123.57706,70,114,0
123.57706,123.588165,77,114,0
123.57706,123.588165,74,114,0
123.660385,123.68539,77,127,0
123.660385,123.68539,74,127,0
123.910385,123.9215,77,114,0
123.910385,123.9215,74,114,0
123.99372,124.01872,76,114,0
123.99372,124.01872,73,114,0
124.24372,124.25483,77,114,0
124.24372,124.25483,74,114,0
124.32706,124.35205,74,127,0
124.32706,124.35205,70,127,0
124.57706,124.588165,74,114,0
124.57706,124.588165,70,114,0
124.660385,124.68539,73,114,0
124.660385,124.68539,69,114,0
124.910385,124.9215,74,114,0
124.910385,124.9215,70,114,0
124.99372,125.01872,70,127,0
124.99372,125.01872,67,127,0
125.24372,125.25483,70,114,0
125.24372,125.25483,67,114,0
125.32706,125.35205,69,114,0
125.32706,125.35205,66,114,0
125.57705,125.588165,70,114,0
125.57705,125.588165,67,114,0
125.660385,126.32705,67,114,0
125.660385,126.32705,63,114,0
126.32705,126.99372,79,114,0
126.32705,126.99372,67,114,0
126.32705,126.99372,71,114,0
126.32705,126.99372,75,114,0
126.99372,127.660385,79,114,0
126.99372,127.660385,67,114,0
126.99372,127.660385,72,114,0
126.99372,127.660385,75,114,0
127.660385,127.69372,77,127,0
127.660385,127.69372,74,127,0
127.660385,127.69372,65,127,0
127.99372,128.02705,81,127,0
127.99372,128.02705,69,127,0
127.99372,128.02705,72,127,0
127.99372,128.02705,75,127,0
128.32706,128.99371,82,114,0
128.32706,128.99371,74,114,0
128.32706,128.99371,70,114,0
128.99371,129.57704,70,114,0
128.99371,129.57704,62,114,0
128.99371,129.57704,58,114,0
129.57704,129.58817,77,49,0
129.57704,129.58817,74,49,0
129.66039,129.68538,77,49,0
129.66039,129.68538,74,49,0
129.91039,129.9215,77,49,0
129.91039,129.9215,74,49,0
129.99371,130.01872,76,49,0
129.99371,130.01872,73,49,0
130.24371,130.25482,77,49,0
130.24371,130.25482,74,49,0
130.32704,130.99371,74,75,0
130.32704,130.99371,70,67,0
130.99371,131.57704,74,75,0
130.99371,131.57704,70,67,0
131.57704,131.58817,74,49,0
131.57704,131.58817,70,49,0
131.66039,131.68538,74,49,0
131.66039,131.68538,70,49,0
131.91039,131.9215,74,49,0
131.91039,131.9215,70,49,0
131.99371,132.0187,73,49,0
131.99371,132.0187,69,49,0
132.24371,132.25482,74,49,0
132.24371,132.25482,70,49,0
132.32704,132.99371,77,75,0
132.32704,132.99371,74,67,0
132.99371,133.57704,75,75,0
132.99371,133.57704,72,67,0
133.57704,133.66039,77,49,0
133.57704,133.66039,75,49,0
133.57704,133.66039,72,49,0
133.66039,133.91039,77,49,0
133.66039,133.91039,75,49,0
133.66039,133.91039,72,49,0
133.91039,133.99371,77,49,0
133.91039,133.99371,75,49,0
133.91039,133.99371,72,49,0
133.99371,134.24371,77,49,0
133.99371,134.24371,74,49,0
133.99371,134.24371,71,49,0
134.24371,134.32704,77,49,0
134.24371,134.32704,75,49,0
134.24371,134.32704,72,49,0
134.32704,134.99371,77,75,0
134.32704,134.99371,72,70,0
134.32704,134.99371,69,65,0
134.99371,135.57704,77,75,0
134.99371,135.57704,72,70,0
134.99371,135.57704,69,65,0
135.57704,135.66037,77,49,0
135.57704,135.66037,72,49,0
135.57704,135.66037,69,49,0
135.66037,135.91037,77,49,0
135.66037,135.91037,72,49,0
135.66037,135.91037,69,49,0
135.91037,135.99371,77,49,0
135.91037,135.99371,72,49,0
135.91037,135.99371,69,49,0
135.99371,136.24371,77,49,0
135.99371,136.24371,71,49,0
135.99371,136.24371,68,49,0
136.24371,136.32704,77,49,0
136.24371,136.32704,72,49,0
136.24371,136.32704,69,49,0
136.32704,136.99371,77,75,0
136.32704,136.99371,73,70,0
136.32704,136.99371,69,65,0
136.99371,137.57704,77,75,0
136.99371,137.57704,74,70,0
136.99371,137.57704,70,65,0
137.57704,137.66037,77,49,0
137.57704,137.66037,74,49,0
137.57704,137.66037,70,49,0
137.66037,137.91037,77,49,0
137.66037,137.91037,74,49,0
137.66037,137.91037,70,49,0
137.91037,137.99371,77,49,0
137.91037,137.99371,74,49,0
137.91037,137.99371,70,49,0
137.99371,138.24371,76,49,0
137.99371,138.24371,74,49,0
137.99371,138.24371,70,49,0
138.24371,138.32704,77,49,0
138.24371,138.32704,74,49,0
138.24371,138.32704,70,49,0
138.32704,138.99371,79,49,0
138.32704,138.99371,74,49,0
138.32704,138.99371,70,49,0
138.99371,139.57704,79,49,0
138.99371,139.57704,74,49,0
138.99371,139.57704,70,49,0
139.57704,139.66037,79,49,0
139.57704,139.66037,74,49,0
139.57704,139.66037,70,49,0
139.66037,139.91037,79,49,0
139.66037,139.91037,74,49,0
139.66037,139.91037,70,49,0
139.91037,139.9937,82,49,0
139.91037,139.9937,74,49,0
139.91037,139.9937,70,49,0
139.9937,140.2437,81,49,0
139.9937,140.2437,74,49,0
139.9937,140.2437,70,49,0
140.2437,140.32704,79,49,0
140.2437,140.32704,74,49,0
140.2437,140.32704,70,49,0
140.32704,140.9937,77,49,0
140.32704,140.9937,74,49,0
140.32704,140.9937,70,49,0
140.9937,141.57704,77,49,0
140.9937,141.57704,74,49,0
140.9937,141.57704,70,49,0
141.57704,141.66037,77,49,0
141.57704,141.66037,74,49,0
141.57704,141.66037,70,49,0
141.66037,141.91037,77,49,0
141.66037,141.91037,74,49,0
141.66037,141.91037,70,49,0
141.91037,141.9937,77,49,0
141.91037,141.9937,74,49,0
141.91037,141.9937,70,49,0
141.9937,142.2437,79,49,0
141.9937,142.2437,75,49,0
141.9937,142.2437,70,49,0
142.2437,142.32704,77,49,0
142.2437,142.32704,74,49,0
142.2437,142.32704,70,49,0
142.32704,142.9937,77,49,0
142.32704,142.9937,74,49,0
142.32704,142.9937,69,49,0
142.9937,143.57704,75,49,0
142.9937,143.57704,72,49,0
142.9937,143.57704,69,49,0
143.57704,143.66037,75,49,0
143.57704,143.66037,72,49,0
143.57704,143.66037,65,49,0
143.66037,143.91037,75,49,0
143.66037,143.91037,72,49,0
143.66037,143.91037,65,49,0
143.91037,143.9937,75,49,0
143.91037,143.9937,72,49,0
143.91037,143.9937,65,49,0
143.9937,144.2437,74,49,0
143.9937,144.2437,70,49,0
143.9937,144.2437,65,49,0
144.2437,144.32704,72,49,0
144.2437,144.32704,69,49,0
144.2437,144.32704,65,49,0
144.32704,145.01105,70,49,0
144.32704,145.01105,65,49,0
144.32704,145.01105,62,49,0
145.01105,145.65489,70,49,0
145.01105,145.65489,65,49,0
145.01105,145.65489,62,49,0
145.65489,145.74982,75,49,0
145.65489,145.74982,72,49,0
145.65489,145.74982,65,49,0
145.74982,146.04202,75,49,0
145.74982,146.04202,72,49,0
145.74982,146.04202,65,49,0
146.04202,146.13943,75,49,0
146.04202,146.13943,72,49,0
146.04202,146.13943,65,49,0
146.13943,146.43164,74,49,0
146.13943,146.43164,70,49,0
146.13943,146.43164,65,49,0
146.43164,146.52904,72,49,0
146.43164,146.52904,69,49,0
146.43164,146.52904,65,49,0
146.52904,147.30826,70,49,0
146.52904,147.30826,65,49,0
146.52904,147.30826,62,49,0
147.30826,147.99008,70,49,0
147.30826,147.99008,65,49,0
147.30826,147.99008,62,49,0
147.99008,148.08748,75,49,0
147.99008,148.08748,72,49,0
147.99008,148.08748,65,49,0
148.08748,148.37968,75,49,0
148.08748,148.37968,72,49,0
148.08748,148.37968,65,49,0
148.37968,148.4771,75,49,0
148.37968,148.4771,72,49,0
148.37968,148.4771,65,49,0
148.4771,148.7693,74,49,0
148.4771,148.7693,70,49,0
148.4771,148.7693,65,49,0
148.7693,148.8667,72,49,0
148.7693,148.8667,69,49,0
148.7693,148.8667,65,49,0
148.8667,149.1167,70,49,0
148.8667,149.1167,65,49,0
148.8667,149.1167,62,49,0
151.8667,152.1167,57,101,0
152.1167,152.20003,69,101,0
152.1167,152.20003,57,101,0
152.20003,152.45003,69,127,0
152.20003,152.45003,57,119,0
152.45003,152.53337,71,101,0
152.45003,152.53337,59,101,0
152.53337,152.78337,73,101,0
152.53337,152.78337,61,101,0
152.78337,152.8667,74,101,0
152.78337,152.8667,62,101,0
152.8667,153.53336,76,114,0
152.8667,153.53336,64,114,0
152.8667,153.53336,69,114,0
152.8667,153.53336,73,114,0
153.53336,154.1167,76,114,0
153.53336,154.1167,64,114,0
153.53336,154.1167,69,114,0
153.53336,154.1167,73,114,0
154.1167,154.20003,76,114,0
154.1167,154.20003,74,114,0
154.1167,154.20003,68,114,0
154.20003,154.45003,76,114,0
154.20003,154.45003,74,114,0
154.20003,154.45003,68,114,0
154.45003,154.53336,76,114,0
154.45003,154.53336,74,114,0
154.45003,154.53336,68,114,0
154.53336,154.78336,78,114,0
154.53336,154.78336,74,114,0
154.53336,154.78336,68,114,0
154.78336,154.8667,80,114,0
154.78336,154.8667,74,114,0
154.78336,154.8667,68,114,0
154.8667,155.53336,81,114,0
154.8667,155.53336,73,114,0
154.8667,155.53336,69,114,0
155.53336,156.1167,81,114,0
155.53336,156.1167,73,114,0
155.53336,156.1167,69,114,0
156.1167,156.1278,61,49,0
156.1167,156.1278,57,49,0
156.1167,156.1278,55,49,0
156.20003,156.22502,62,49,0
156.20003,156.22502,57,49,0
156.20003,156.22502,55,49,0
156.45003,156.46114,61,49,0
156.45003,156.46114,57,49,0
156.45003,156.46114,55,49,0
156.53336,156.55836,62,49,0
156.53336,156.55836,57,49,0
156.53336,156.55836,55,49,0
156.78336,156.79446,64,49,0
156.78336,156.79446,57,49,0
156.78336,156.79446,55,49,0
156.8667,157.53336,57,75,0
156.8667,157.53336,54,67,0
157.53336,158.1167,66,49,0
157.53336,158.1167,57,49,0
158.1167,158.1278,66,49,0
158.1167,158.1278,57,49,0
158.20003,158.22502,67,49,0
158.20003,158.22502,55,49,0
158.45003,158.46114,66,49,0
158.45003,158.46114,55,49,0
158.53336,158.55836,64,49,0
158.53336,158.55836,56,49,0
158.78336,158.79446,62,49,0
158.78336,158.79446,56,49,0
158.86668,159.53336,69,75,0
158.86668,159.53336,61,70,0
158.86668,159.53336,57,65,0
159.53336,160.11668,64,75,0
159.53336,160.11668,61,67,0
160.11668,160.1278,69,49,0
160.11668,160.1278,64,49,0
160.15836,160.16946,73,49,0
160.20003,160.22502,71,49,0
160.20003,160.22502,64,49,0
160.45003,160.46114,69,49,0
160.45003,160.46114,64,49,0
160.53336,160.55835,71,49,0
160.53336,160.55835,64,49,0
160.78336,160.79446,73,49,0
160.78336,160.79446,64,49,0
160.86668,161.53336,74,75,0
160.86668,161.53336,66,70,0
160.86668,161.53336,62,65,0
161.53336,162.11668,66,75,0
161.53336,162.11668,62,67,0
162.11668,162.15836,66,49,0
162.11668,162.15836,62,49,0
162.15836,162.20003,69,49,0
162.20003,162.22502,68,49,0
162.20003,162.22502,62,49,0
162.45003,162.46114,66,49,0
162.45003,162.46114,62,49,0
162.53336,162.55835,68,49,0
162.53336,162.55835,62,49,0
162.78336,162.79446,64,49,0
162.78336,162.79446,62,49,0
162.86668,163.53336,69,75,0
162.86668,163.53336,61,67,0
163.53336,164.20001,69,75,0
163.53336,164.20001,61,67,0
164.20001,164.23335,69,88,0
164.20001,164.23335,66,88,0
164.20001,164.23335,62,88,0
164.53336,164.56668,70,88,0
164.53336,164.56668,66,88,0
164.53336,164.56668,62,88,0
164.86668,165.53336,71,101,0
164.86668,165.53336,67,101,0
164.86668,165.53336,62,101,0
165.53336,165.86668,76,127,0
165.53336,165.86668,71,122,0
165.53336,165.86668,67,117,0
165.86668,165.90002,79,127,0
165.86668,165.90002,76,122,0
165.86668,165.90002,71,117,0
166.20001,166.23335,76,127,0
166.20001,166.23335,71,122,0
166.20001,166.23335,67,117,0
166.53336,166.56668,67,127,0
166.53336,166.56668,64,122,0
166.53336,166.56668,61,117,0
166.86668,167.53336,69,88,0
166.86668,167.53336,66,88,0
166.86668,167.53336,61,88,0
167.53336,167.86668,74,114,0
167.53336,167.86668,69,109,0
167.53336,167.86668,66,104,0
167.86668,167.90001,78,114,0
167.86668,167.90001,74,109,0
167.86668,167.90001,69,104,0
168.20001,168.23335,74,114,0
168.20001,168.23335,69,109,0
168.20001,168.23335,66,104,0
168.53336,168.56668,66,114,0
168.53336,168.56668,62,109,0
168.53336,168.56668,59,104,0
168.86668,169.53334,67,88,0
168.86668,169.53334,64,88,0
168.86668,169.53334,59,88,0
169.53334,169.86668,73,114,0
169.53334,169.86668,67,109,0
169.53334,169.86668,64,104,0
169.86668,169.90001,76,114,0
169.86668,169.90001,73,109,0
169.86668,169.90001,67,104,0
170.20001,170.23335,73,114,0
170.20001,170.23335,67,109,0
170.20001,170.23335,64,104,0
170.53334,170.56668,71,114,0
170.53334,170.56668,68,109,0
170.53334,170.56668,61,104,0
170.86668,171.53334,70,114,0
170.86668,171.53334,66,114,0
170.86668,171.53334,61,114,0
171.53334,172.11668,70,114,0
171.53334,172.11668,66,114,0
171.53334,172.11668,61,114,0
172.11668,172.12779,73,114,0
172.11668,172.12779,66,114,0
172.20001,172.225,75,114,0
172.20001,172.225,66,114,0
172.45001,172.46112,73,114,0
172.45001,172.46112,66,114,0
172.53334,172.55835,75,114,0
172.53334,172.55835,66,114,0
172.78334,172.79445,73,114,0
172.78334,172.79445,66,114,0
172.86668,173.53334,77,114,0
172.86668,173.53334,71,114,0
172.86668,173.53334,65,114,0
173.53334,174.11667,77,114,0
173.53334,174.11667,71,114,0
173.53334,174.11667,65,114,0
174.11667,174.12779,77,114,0
174.11667,174.12779,73,114,0
174.11667,174.12779,65,114,0
174.20001,174.225,77,114,0
174.20001,174.225,73,114,0
174.20001,174.225,65,114,0
174.45001,174.46112,77,114,0
174.45001,174.46112,73,114,0
174.45001,174.46112,65,114,0
174.53334,174.55835,77,114,0
174.53334,174.55835,73,114,0
174.53334,174.55835,65,114,0
174.78334,174.79445,77,114,0
174.78334,174.79445,73,114,0
174.78334,174.79445,65,114,0
174.86667,175.53334,78,114,0
174.86667,175.53334,70,114,0
174.86667,175.53334,66,114,0
175.53334,176.11667,78,114,0
175.53334,176.11667,70,114,0
175.53334,176.11667,66,114,0
176.11667,176.12779,73,49,0
176.11667,176.12779,69,49,0
176.11667,176.12779,67,49,0
176.20001,176.225,73,49,0
176.20001,176.225,69,49,0
176.20001,176.225,67,49,0
176.45001,176.46112,73,49,0
176.45001,176.46112,69,49,0
176.45001,176.46112,67,49,0
176.53334,176.55833,74,49,0
176.53334,176.55833,69,49,0
176.53334,176.55833,67,49,0
176.78334,176.79445,76,49,0
176.78334,176.79445,69,49,0
176.78334,176.79445,67,49,0
176.86667,177.53334,69,75,0
176.86667,177.53334,66,67,0
177.53334,178.11667,78,75,0
177.53334,178.11667,69,70,0
177.53334,178.11667,66,65,0
178.11667,178.20001,78,49,0
178.11667,178.20001,66,49,0
178.20001,178.45001,78,49,0
178.20001,178.45001,66,49,0
178.45001,178.53334,78,49,0
178.45001,178.53334,66,49,0
178.53334,178.78334,76,49,0
178.53334,178.78334,68,49,0
178.78334,178.86667,74,49,0
178.78334,178.86667,68,49,0
178.86667,179.53334,73,75,0
178.86667,179.53334,69,67,0
179.53334,180.11667,76,75,0
179.53334,180.11667,69,67,0
180.11667,180.2,76,49,0
180.11667,180.2,70,49,0
180.2,180.45,76,49,0
180.2,180.45,70,49,0
180.45,180.53334,76,49,0
180.45,180.53334,70,49,0
180.53334,180.78334,74,49,0
180.53334,180.78334,70,49,0
180.78334,180.86667,73,49,0
180.78334,180.86667,70,49,0
180.86667,181.53334,71,75,0
181.53334,182.11667,74,75,0
181.53334,182.11667,67,67,0
182.11667,182.2,71,49,0
182.11667,182.2,67,49,0
182.11667,182.2,61,49,0
182.2,182.45,71,49,0
182.2,182.45,67,49,0
182.2,182.45,61,49,0
182.45,182.53334,71,49,0
182.45,182.53334,67,49,0
182.45,182.53334,61,49,0
182.53334,182.78334,69,49,0
182.53334,182.78334,66,49,0
182.53334,182.78334,61,49,0
182.78334,182.86667,67,49,0
182.78334,182.86667,64,49,0
182.78334,182.86667,61,49,0
182.86667,183.53334,67,75,0
182.86667,183.53334,64,70,0
182.86667,183.53334,57,65,0
183.53334,184.2,66,75,0
183.53334,184.2,62,70,0
183.53334,184.2,57,65,0
184.2,184.23334,69,88,0
184.2,184.23334,66,88,0
184.2,184.23334,62,88,0
184.53333,184.56667,70,88,0
184.53333,184.56667,66,88,0
184.53333,184.56667,62,88,0
184.86667,185.53333,71,101,0
184.86667,185.53333,67,101,0
184.86667,185.53333,62,101,0
185.53333,185.86667,76,127,0
185.53333,185.86667,71,122,0
185.53333,185.86667,67,117,0
185.86667,185.9,79,127,0
185.86667,185.9,76,122,0
185.86667,185.9,71,117,0
186.2,186.23334,76,127,0
186.2,186.23334,71,122,0
186.2,186.23334,67,117,0
186.53333,186.56667,64,127,0
186.53333,186.56667,61,119,0
186.86667,187.53333,73,101,0
186.86667,187.53333,69,101,0
186.86667,187.53333,64,101,0
187.53333,187.86667,78,101,0
187.53333,187.86667,73,101,0
187.53333,187.86667,69,101,0
187.86667,187.9,81,101,0
187.86667,187.9,78,101,0
187.86667,187.9,73,101,0
188.2,188.23332,78,101,0
188.2,188.23332,73,101,0
188.2,188.23332,69,101,0
188.53333,188.56667,69,101,0
188.53333,188.56667,66,101,0
188.86667,189.53333,74,101,0
188.86667,189.53333,71,101,0
188.86667,189.53333,66,101,0
189.53333,189.86665,79,101,0
189.53333,189.86665,74,101,0
189.53333,189.86665,71,101,0
189.86665,189.9,83,101,0
189.86665,189.9,79,101,0
189.86665,189.9,74,101,0
190.2,190.23332,79,101,0
190.2,190.23332,74,101,0
190.2,190.23332,71,101,0
190.53333,190.56667,71,101,0
190.53333,190.56667,67,101,0
190.86665,191.53333,81,101,0
190.86665,191.53333,69,101,0
190.86665,191.53333,73,101,0
190.86665,191.53333,79,101,0
191.53333,192.11665,81,114,0
191.53333,192.11665,69,114,0
191.53333,192.11665,73,114,0
191.53333,192.11665,79,114,0
192.11665,192.12776,81,114,0
192.11665,192.12776,79,114,0
192.11665,192.12776,73,114,0
192.2,192.22499,81,114,0
192.2,192.22499,79,114,0
192.2,192.22499,73,114,0
192.45,192.4611,81,114,0
192.45,192.4611,79,114,0
192.45,192.4611,73,114,0
192.53333,192.55832,83,114,0
192.53333,192.55832,79,114,0
192.53333,192.55832,73,114,0
192.78333,192.79443,85,114,0
192.78333,192.79443,79,114,0
192.78333,192.79443,73,114,0
192.86665,193.53333,86,114,0
192.86665,193.53333,78,114,0
192.86665,193.53333,74,114,0
193.53333,194.11665,86,114,0
193.53333,194.11665,78,114,0
193.53333,194.11665,74,114,0
194.11665,194.19998,69,49,0
194.11665,194.19998,66,49,0
194.19998,194.44998,69,49,0
194.19998,194.44998,66,49,0
194.44998,194.53333,69,49,0
194.44998,194.53333,66,49,0
194.53333,194.78333,67,49,0
194.53333,194.78333,64,49,0
194.78333,194.86665,66,49,0
194.78333,194.86665,62,49,0
194.86665,195.53333,64,75,0
194.86665,195.53333,57,67,0
195.53333,196.11807,64,75,0
195.53333,196.11807,57,67,0
196.11807,196.20282,71,49,0
196.11807,196.20282,67,49,0
196.20282,196.46295,69,49,0
196.20282,196.46295,66,49,0
196.46295,196.55066,67,49,0
196.46295,196.55066,64,49,0
196.55066,196.82176,66,49,0
196.55066,196.82176,62,49,0
196.82176,196.91324,64,49,0
196.82176,196.91324,57,49,0
196.91324,197.67905,62,75,0
196.91324,197.67905,54,67,0
197.67905,198.06866,62,75,0
197.67905,198.06866,54,67,0
198.45827,198.84789,62,49,0
198.84789,199.23749,62,49,0
199.23749,200.01671,71,88,0
199.23749,200.01671,62,88,0
199.23749,200.01671,59,88,0
200.01671,200.40633,71,49,0
200.01671,200.40633,62,49,0
200.01671,200.40633,59,49,0
200.40633,200.79593,71,49,0
200.40633,200.79593,62,49,0
200.40633,200.79593,59,49,0
200.79593,201.18555,71,49,0
200.79593,201.18555,62,49,0
200.79593,201.18555,59,49,0
201.18555,201.57515,71,49,0
201.18555,201.57515,62,49,0
201.18555,201.57515,59,49,0
201.57515,201.96477,71,49,0
201.57515,201.96477,62,49,0
201.57515,201.96477,59,49,0
201.96477,202.35437,76,49,0
201.96477,202.35437,67,49,0
201.96477,202.35437,64,49,0
202.35437,202.74399,74,49,0
202.35437,202.74399,67,49,0
202.35437,202.74399,62,49,0
202.74399,203.13359,74,75,0
202.74399,203.13359,67,75,0
202.74399,203.13359,62,75,0
203.13359,203.52321,74,75,0
203.13359,203.52321,67,75,0
203.13359,203.52321,62,75,0
203.52321,203.91281,74,75,0
203.52321,203.91281,67,75,0
203.52321,203.91281,62,75,0
203.91281,204.30241,74,49,0
203.91281,204.30241,67,49,0
203.91281,204.30241,62,49,0
204.30241,204.69203,69,49,0
204.30241,204.69203,62,49,0
204.30241,204.69203,57,49,0
204.69203,205.08163,72,49,0
204.69203,205.08163,62,49,0
204.69203,205.08163,60,49,0
205.08163,205.47125,72,49,0
205.08163,205.47125,62,49,0
205.08163,205.47125,60,49,0
205.47125,205.86086,71,49,0
205.47125,205.86086,62,49,0
205.47125,205.86086,59,49,0
205.86086,206.25047,69,49,0
205.86086,206.25047,62,49,0
205.86086,206.25047,57,49,0
206.25047,206.64008,69,75,0
206.25047,206.64008,62,70,0
206.25047,206.64008,57,65,0
206.64008,207.0297,71,49,0
206.64008,207.0297,62,49,0
206.64008,207.0297,59,49,0
207.0297,207.4193,71,49,0
207.0297,207.4193,62,49,0
207.0297,207.4193,59,49,0
207.4193,207.80891,71,49,0
207.4193,207.80891,62,49,0
207.4193,207.80891,59,49,0
207.80891,208.19852,69,49,0
207.80891,208.19852,62,49,0
207.80891,208.19852,57,49,0
208.19852,208.58813,67,49,0
208.19852,208.58813,62,49,0
208.19852,208.58813,55,49,0
208.58813,209.36736,69,88,0
208.58813,209.36736,57,88,0
208.58813,209.36736,62,88,0
208.58813,209.36736,66,88,0
209.36736,209.75696,69,49,0
209.36736,209.75696,57,49,0
209.36736,209.75696,62,49,0
209.36736,209.75696,66,49,0
209.75696,210.14658,69,49,0
209.75696,210.14658,57,49,0
209.75696,210.14658,62,49,0
209.75696,210.14658,66,49,0
210.14658,210.53618,69,49,0
210.14658,210.53618,57,49,0
210.14658,210.53618,62,49,0
210.14658,210.53618,66,49,0
210.53618,210.9258,69,49,0
210.53618,210.9258,57,49,0
210.53618,210.9258,62,49,0
210.53618,210.9258,67,49,0
210.9258,211.3154,69,75,0
210.9258,211.3154,62,75,0
210.9258,211.3154,57,75,0
211.3154,211.70502,74,75,0
211.3154,211.70502,66,75,0
211.3154,211.70502,62,75,0
211.70502,212.09462,78,75,0
211.70502,212.09462,69,75,0
211.70502,212.09462,66,75,0
212.09462,212.48424,78,88,0
212.09462,212.48424,69,88,0
212.09462,212.48424,66,88,0
212.48424,212.87384,78,88,0
212.48424,212.87384,69,88,0
212.48424,212.87384,66,88,0
212.87384,213.26346,78,88,0
212.87384,213.26346,69,88,0
212.87384,213.26346,66,88,0
213.26346,213.65306,78,114,0
213.26346,213.65306,70,114,0
213.26346,213.65306,66,114,0
213.65306,214.04268,78,101,0
213.65306,214.04268,70,101,0
213.65306,214.04268,66,101,0
214.04268,214.43228,78,88,0
214.04268,214.43228,70,88,0
214.04268,214.43228,66,88,0
214.43228,214.82188,78,75,0
214.43228,214.82188,70,75,0
214.43228,214.82188,66,75,0
214.82188,215.2115,78,62,0
214.82188,215.2115,70,62,0
214.82188,215.2115,66,62,0
215.2115,215.6011,78,49,0
215.2115,215.6011,70,49,0
215.2115,215.6011,66,49,0
215.6011,215.99072,78,49,0
215.6011,215.99072,69,49,0
215.6011,215.99072,66,49,0
215.99072,216.38033,79,49,0
215.99072,216.38033,69,49,0
215.99072,216.38033,67,49,0
216.38033,216.76994,81,49,0
216.38033,216.76994,69,49,0
217.15955,217.54916,74,49,0
217.15955,217.54916,66,49,0
217.15955,217.54916,62,49,0
217.54916,217.93877,76,49,0
217.54916,217.93877,64,49,0
217.54916,217.93877,67,49,0
217.54916,217.93877,73,49,0
217.93877,218.32838,78,49,0
217.93877,218.32838,66,49,0
217.93877,218.32838,69,49,0
217.93877,218.32838,74,49,0
218.32838,219.1076,76,75,0
218.32838,219.1076,67,63,0
218.32838,219.1076,69,67,0
218.32838,219.1076,73,71,0
219.1076,219.49721,74,49,0
219.1076,219.49721,69,49,0
219.1076,219.49721,66,49,0
219.49721,219.88683,74,49,0
219.49721,219.88683,69,49,0
219.49721,219.88683,66,49,0
219.88683,220.27643,62,49,0
220.27643,220.66605,62,49,0
220.66605,221.44527,71,88,0
220.66605,221.44527,62,88,0
220.66605,221.44527,59,88,0
221.44527,221.83487,71,49,0
221.44527,221.83487,62,49,0
221.44527,221.83487,59,49,0
221.83487,222.22449,71,49,0
221.83487,222.22449,62,49,0
221.83487,222.22449,59,49,0
222.22449,222.61409,71,49,0
222.22449,222.61409,62,49,0
222.22449,222.61409,59,49,0
222.61409,223.00371,71,49,0
222.61409,223.00371,62,49,0
222.61409,223.00371,59,49,0
223.00371,223.39331,71,49,0
223.00371,223.39331,62,49,0
223.00371,223.39331,59,49,0
223.39331,223.78293,76,49,0
223.39331,223.78293,67,49,0
223.39331,223.78293,64,49,0
223.78293,224.17253,74,49,0
223.78293,224.17253,67,49,0
223.78293,224.17253,62,49,0
224.17253,224.56213,74,75,0
224.17253,224.56213,67,75,0
224.17253,224.56213,62,75,0
224.56213,224.95175,74,75,0
224.56213,224.95175,67,75,0
224.56213,224.95175,62,75,0
224.95175,225.34135,74,75,0
224.95175,225.34135,67,75,0
224.95175,225.34135,62,75,0
225.34135,225.73097,74,49,0
225.34135,225.73097,67,49,0
225.34135,225.73097,62,49,0
225.73097,226.12057,69,49,0
225.73097,226.12057,62,49,0
225.73097,226.12057,57,49,0
226.12057,226.5102,72,49,0
226.12057,226.5102,62,49,0
226.12057,226.5102,60,49,0
226.5102,226.8998,72,49,0
226.5102,226.8998,62,49,0
226.5102,226.8998,60,49,0
226.8998,227.28941,71,49,0
226.8998,227.28941,62,49,0
226.8998,227.28941,59,49,0
227.28941,227.67902,69,49,0
227.28941,227.67902,62,49,0
227.28941,227.67902,57,49,0
227.67902,228.06863,69,75,0
227.67902,228.06863,62,70,0
227.67902,228.06863,57,65,0
228.06863,228.45824,71,49,0
228.06863,228.45824,62,49,0
228.06863,228.45824,59,49,0
228.45824,228.84785,71,49,0
228.45824,228.84785,62,49,0
228.45824,228.84785,59,49,0
228.84785,229.23746,71,49,0
228.84785,229.23746,62,49,0
228.84785,229.23746,59,49,0
229.23746,229.62708,69,49,0
229.23746,229.62708,62,49,0
229.23746,229.62708,57,49,0
229.62708,230.01668,67,49,0
229.62708,230.01668,62,49,0
229.62708,230.01668,55,49,0
230.01668,230.7959,69,88,0
230.01668,230.7959,57,88,0
230.01668,230.7959,62,88,0
230.01668,230.7959,66,88,0
230.7959,231.18552,69,49,0
230.7959,231.18552,57,49,0
230.7959,231.18552,62,49,0
230.7959,231.18552,66,49,0
231.18552,231.57512,69,49,0
231.18552,231.57512,57,49,0
231.18552,231.57512,62,49,0
231.18552,231.57512,66,49,0
231.57512,231.96474,69,49,0
231.57512,231.96474,57,49,0
231.57512,231.96474,62,49,0
231.57512,231.96474,66,49,0
231.96474,232.35434,69,49,0
231.96474,232.35434,57,49,0
231.96474,232.35434,62,49,0
231.96474,232.35434,67,49,0
232.35434,232.74396,69,75,0
232.35434,232.74396,62,75,0
232.35434,232.74396,57,75,0
232.74396,233.13356,74,75,0
232.74396,233.13356,66,75,0
232.74396,233.13356,62,75,0
233.13356,233.52318,78,75,0
233.13356,233.52318,69,75,0
233.13356,233.52318,66,75,0
233.52318,233.91278,78,88,0
233.52318,233.91278,69,88,0
233.52318,233.91278,66,88,0
233.91278,234.3024,78,88,0
233.91278,234.3024,69,88,0
233.91278,234.3024,66,88,0
234.3024,234.692,78,88,0
234.3024,234.692,69,88,0
234.3024,234.692,66,88,0
234.692,235.0816,78,114,0
234.692,235.0816,70,114,0
234.692,235.0816,66,114,0
235.0816,235.47122,78,101,0
235.0816,235.47122,70,101,0
235.0816,235.47122,66,101,0
235.47122,235.86082,78,88,0
235.47122,235.86082,70,88,0
235.47122,235.86082,66,88,0
235.86082,236.25044,78,75,0
235.86082,236.25044,70,75,0
235.86082,236.25044,66,75,0
236.25044,236.64005,78,62,0
236.25044,236.64005,70,62,0
236.25044,236.64005,66,62,0
236.64005,237.02966,78,49,0
236.64005,237.02966,70,49,0
236.64005,237.02966,66,49,0
237.02966,237.41927,78,49,0
237.02966,237.41927,69,49,0
237.02966,237.41927,66,49,0
237.41927,237.80888,79,49,0
237.41927,237.80888,69,49,0
237.41927,237.80888,67,49,0
237.80888,238.19849,81,49,0
237.80888,238.19849,69,49,0
238.5881,238.9777,74,49,0
238.5881,238.9777,66,49,0
238.5881,238.9777,62,49,0
238.9777,239.36732,76,49,0
238.9777,239.36732,64,49,0
238.9777,239.36732,67,49,0
238.9777,239.36732,73,49,0
239.36732,239.75693,78,49,0
239.36732,239.75693,66,49,0
239.36732,239.75693,69,49,0
239.36732,239.75693,74,49,0
239.75693,240.53615,76,75,0
239.75693,240.53615,67,63,0
239.75693,240.53615,69,67,0
239.75693,240.53615,73,71,0
240.53615,240.92577,74,49,0
240.53615,240.92577,69,49,0
240.53615,240.92577,66,49,0
240.92577,241.31537,74,49,0
240.92577,241.31537,69,49,0
240.92577,241.31537,66,49,0
241.31537,241.70499,74,49,0
241.70499,242.09459,74,49,0
242.09459,242.87381,76,88,0
242.09459,242.87381,64,88,0
242.09459,242.87381,67,88,0
242.09459,242.87381,72,88,0
242.87381,243.26343,76,88,0
242.87381,243.26343,64,88,0
242.87381,243.26343,67,88,0
242.87381,243.26343,72,88,0
243.26343,243.65303,76,88,0
243.26343,243.65303,64,88,0
243.26343,243.65303,67,88,0
243.26343,243.65303,72,88,0
243.65303,244.04265,76,88,0
243.65303,244.04265,64,88,0
243.65303,244.04265,67,88,0
243.65303,244.04265,72,88,0
244.04265,244.43225,76,88,0
244.04265,244.43225,64,88,0
244.04265,244.43225,67,88,0
244.04265,244.43225,72,88,0
244.43225,244.82185,76,88,0
244.43225,244.82185,67,88,0
244.43225,244.82185,64,88,0
244.82185,245.21147,74,88,0
244.82185,245.21147,67,88,0
244.82185,245.21147,62,88,0
245.21147,245.60107,72,88,0
245.21147,245.60107,67,88,0
245.21147,245.60107,60,88,0
245.60107,245.99069,72,101,0
245.60107,245.99069,67,101,0
245.60107,245.99069,60,101,0
245.99069,246.3803,74,101,0
245.99069,246.3803,67,101,0
245.99069,246.3803,62,101,0
246.3803,246.76991,76,101,0
246.3803,246.76991,67,101,0
246.3803,246.76991,64,101,0
246.76991,247.54913,79,114,0
246.76991,247.54913,70,114,0
246.76991,247.54913,67,114,0
247.54913,247.93874,79,114,0
247.54913,247.93874,70,114,0
247.54913,247.93874,67,114,0
247.93874,248.32835,79,114,0
247.93874,248.32835,70,114,0
247.93874,248.32835,67,114,0
248.32835,248.71796,79,114,0
248.32835,248.71796,70,114,0
248.32835,248.71796,67,114,0
248.71796,249.10757,79,114,0
248.71796,249.10757,70,114,0
248.71796,249.10757,67,114,0
249.10757,249.49718,79,114,0
249.10757,249.49718,70,114,0
249.10757,249.49718,67,114,0
249.49718,249.8868,77,114,0
249.49718,249.8868,70,114,0
249.49718,249.8868,65,114,0
249.8868,250.2764,75,114,0
249.8868,250.2764,70,114,0
249.8868,250.2764,63,114,0
250.2764,250.66602,75,114,0
250.2764,250.66602,70,114,0
250.2764,250.66602,63,114,0
250.66602,251.05562,77,114,0
250.66602,251.05562,70,114,0
250.66602,251.05562,65,114,0
251.05562,251.44524,79,114,0
251.05562,251.44524,70,114,0
251.05562,251.44524,67,114,0
251.44524,252.22446,82,114,0
251.44524,252.22446,73,114,0
251.44524,252.22446,70,114,0
252.22446,252.61406,82,114,0
252.22446,252.61406,73,114,0
252.22446,252.61406,70,114,0
252.61406,253.00368,82,114,0
252.61406,253.00368,73,114,0
252.61406,253.00368,70,114,0
253.00368,253.39328,82,114,0
253.00368,253.39328,73,114,0
253.00368,253.39328,70,114,0
253.39328,253.7829,82,114,0
253.39328,253.7829,73,114,0
253.39328,253.7829,70,114,0
253.7829,254.1725,82,114,0
253.7829,254.1725,73,114,0
253.7829,254.1725,70,114,0
254.1725,254.56212,80,114,0
254.1725,254.56212,73,114,0
254.1725,254.56212,68,114,0
254.56212,254.95172,78,114,0
254.56212,254.95172,73,114,0
254.56212,254.95172,66,114,0
254.95172,255.34132,82,114,0
254.95172,255.34132,78,114,0
254.95172,255.34132,70,114,0
255.34132,255.73094,83,114,0
255.34132,255.73094,78,114,0
255.34132,255.73094,71,114,0
255.73094,256.12054,85,114,0
255.73094,256.12054,78,114,0
255.73094,256.12054,73,114,0
256.12054,256.89978,86,114,0
256.12054,256.89978,78,114,0
256.12054,256.89978,74,114,0
256.89978,257.28937,86,114,0
256.89978,257.28937,78,114,0
256.89978,257.28937,74,114,0
257.28937,257.679,86,114,0
257.28937,257.679,78,114,0
257.28937,257.679,74,114,0
257.679,258.0686,86,114,0
257.679,258.0686,78,114,0
257.679,258.0686,74,114,0
258.0686,258.45822,86,114,0
258.0686,258.45822,78,114,0
258.0686,258.45822,74,114,0
258.45822,259.23743,91,114,0
258.45822,259.23743,83,114,0
258.45822,259.23743,77,114,0
258.45822,259.23743,79,114,0
258.45822,259.23743,86,114,0
259.23743,259.62704,91,114,0
259.23743,259.62704,83,114,0
259.23743,259.62704,77,114,0
259.23743,259.62704,79,114,0
259.23743,259.62704,86,114,0
259.62704,260.01666,91,101,0
259.62704,260.01666,83,101,0
259.62704,260.01666,77,101,0
259.62704,260.01666,79,101,0
259.62704,260.01666,86,101,0
260.01666,260.40625,91,101,0
260.01666,260.40625,83,101,0
260.01666,260.40625,77,101,0
260.01666,260.40625,79,101,0
260.01666,260.40625,86,101,0
260.40625,260.79587,91,101,0
260.40625,260.79587,83,101,0
260.40625,260.79587,77,101,0
260.40625,260.79587,79,101,0
260.40625,260.79587,86,101,0
260.79587,261.5751,88,75,0
260.79587,261.5751,76,75,0
260.79587,261.5751,79,75,0
260.79587,261.5751,84,75,0
261.5751,261.9647,76,75,0
261.5751,261.9647,72,75,0
261.5751,261.9647,64,75,0
261.9647,262.3543,76,75,0
261.9647,262.3543,72,75,0
261.9647,262.3543,64,75,0
262.3543,262.74393,76,75,0
262.3543,262.74393,72,75,0
262.3543,262.74393,64,75,0
262.74393,263.13354,76,75,0
262.74393,263.13354,72,75,0
262.74393,263.13354,64,75,0
263.13354,263.91275,76,49,0
263.13354,263.91275,72,49,0
263.13354,263.91275,64,49,0
263.91275,264.30237,74,49,0
263.91275,264.30237,71,49,0
263.91275,264.30237,64,49,0
264.30237,265.08157,74,49,0
264.30237,265.08157,71,49,0
264.30237,265.08157,64,49,0
265.08157,265.4712,72,49,0
265.08157,265.4712,69,49,0
265.08157,265.4712,64,49,0
265.4712,266.2504,72,49,0
265.4712,266.2504,69,49,0
265.4712,266.2504,64,49,0
266.2504,266.64,71,49,0
266.2504,266.64,67,49,0
266.64,267.41925,71,49,0
266.64,267.41925,67,49,0
267.41925,267.80884,69,49,0
267.41925,267.80884,66,49,0
267.41925,267.80884,62,49,0
267.80884,268.58807,69,36,0
267.80884,268.58807,66,36,0
267.80884,268.58807,62,36,0
268.58807,268.9777,69,36,0
268.58807,268.9777,66,36,0
268.58807,268.9777,62,36,0
268.9777,269.36728,69,36,0
268.9777,269.36728,66,36,0
268.9777,269.36728,62,36,0
269.36728,269.7569,69,36,0
269.36728,269.7569,66,36,0
269.36728,269.7569,62,36,0
269.7569,270.1465,69,36,0
269.7569,270.1465,66,36,0
269.7569,270.1465,62,36,0
270.1465,270.92572,69,36,0
270.1465,270.92572,66,36,0
270.1465,270.92572,62,36,0
270.92572,271.31534,69,36,0
270.92572,271.31534,66,36,0
270.92572,271.31534,62,36,0
271.31534,271.70496,69,36,0
271.31534,271.70496,66,36,0
271.31534,271.70496,62,36,0
271.70496,272.09457,69,36,0
271.70496,272.09457,66,36,0
271.70496,272.09457,62,36,0
272.09457,272.48416,69,36,0
272.09457,272.48416,66,36,0
272.09457,272.48416,62,36,0
272.48416,273.2634,71,36,0
272.48416,273.2634,66,36,0
272.48416,273.2634,63,36,0
273.2634,273.653,71,36,0
273.2634,273.653,66,36,0
273.2634,273.653,63,36,0
273.653,274.0426,71,36,0
273.653,274.0426,66,36,0
273.653,274.0426,63,36,0
274.0426,274.43222,71,36,0
274.0426,274.43222,66,36,0
274.0426,274.43222,63,36,0
274.43222,274.82184,71,36,0
274.43222,274.82184,66,36,0
274.43222,274.82184,63,36,0
274.82184,275.21146,71,49,0
274.82184,275.21146,67,49,0
274.82184,275.21146,62,49,0
275.21146,275.60104,76,49,0
275.21146,275.60104,67,49,0
275.21146,275.60104,64,49,0
275.60104,275.99066,74,49,0
275.60104,275.99066,67,49,0
275.60104,275.99066,62,49,0
275.99066,276.38028,74,36,0
275.99066,276.38028,67,36,0
275.99066,276.38028,62,36,0
276.38028,276.76987,74,36,0
276.38028,276.76987,67,36,0
276.38028,276.76987,62,36,0
276.76987,277.1595,74,36,0
276.76987,277.1595,67,36,0
276.76987,277.1595,62,36,0
277.1595,277.5491,74,62,0
277.1595,277.5491,67,57,0
277.1595,277.5491,62,52,0
277.5491,277.93872,69,36,0
277.5491,277.93872,62,36,0
277.5491,277.93872,57,36,0
277.93872,278.3283,72,36,0
277.93872,278.3283,62,36,0
277.93872,278.3283,60,36,0
278.3283,278.71793,72,36,0
278.3283,278.71793,62,36,0
278.3283,278.71793,60,36,0
278.71793,279.10754,71,36,0
278.71793,279.10754,62,36,0
278.71793,279.10754,59,36,0
279.10754,279.49716,69,36,0
279.10754,279.49716,62,36,0
279.10754,279.49716,57,36,0
279.49716,279.88675,69,62,0
279.49716,279.88675,62,57,0
279.49716,279.88675,57,52,0
279.88675,280.27637,71,36,0
279.88675,280.27637,62,36,0
279.88675,280.27637,59,36,0
280.27637,280.666,71,36,0
280.27637,280.666,62,36,0
280.27637,280.666,59,36,0
280.666,281.0556,71,36,0
280.666,281.0556,62,36,0
280.666,281.0556,59,36,0
281.0556,281.4452,71,36,0
281.0556,281.4452,67,36,0
281.0556,281.4452,59,36,0
281.4452,281.8348,72,36,0
281.4452,281.8348,67,36,0
281.4452,281.8348,60,36,0
281.8348,282.61404,74,88,0
281.8348,282.61404,67,88,0
281.8348,282.61404,62,88,0
282.61404,283.00363,74,49,0
282.61404,283.00363,67,49,0
282.61404,283.00363,62,49,0
283.00363,283.39325,74,49,0
283.00363,283.39325,67,49,0
283.00363,283.39325,62,49,0
283.39325,283.78287,72,49,0
283.39325,283.78287,67,49,0
283.39325,283.78287,60,49,0
283.78287,284.1725,71,49,0
283.78287,284.1725,67,49,0
283.78287,284.1725,59,49,0
284.1725,284.56207,74,75,0
284.1725,284.56207,67,75,0
284.1725,284.56207,62,75,0
284.56207,284.9517,79,75,0
284.56207,284.9517,71,75,0
284.56207,284.9517,67,75,0
284.9517,285.3413,83,75,0
284.9517,285.3413,74,75,0
284.9517,285.3413,71,75,0
285.3413,285.7309,83,101,0
285.3413,285.7309,74,101,0
285.3413,285.7309,71,101,0
285.7309,286.1205,83,101,0
285.7309,286.1205,74,101,0
285.7309,286.1205,71,101,0
286.1205,286.51013,83,101,0
286.1205,286.51013,74,101,0
286.1205,286.51013,71,101,0
286.51013,286.89975,83,114,0
286.51013,286.89975,75,114,0
286.51013,286.89975,71,114,0
286.89975,287.28934,83,114,0
286.89975,287.28934,75,114,0
286.89975,287.28934,71,114,0
287.28934,287.67896,83,101,0
287.28934,287.67896,75,101,0
287.28934,287.67896,71,101,0
287.67896,288.06857,83,88,0
287.67896,288.06857,75,88,0
287.67896,288.06857,71,88,0
288.06857,288.4582,83,75,0
288.06857,288.4582,75,75,0
288.06857,288.4582,71,75,0
288.4582,288.84778,83,62,0
288.4582,288.84778,75,62,0
288.4582,288.84778,71,62,0
288.84778,289.2374,83,36,0
288.84778,289.2374,74,36,0
288.84778,289.2374,71,36,0
289.2374,289.627,84,36,0
289.2374,289.627,74,36,0
289.2374,289.627,72,36,0
289.627,290.01663,86,36,0
289.627,290.01663,74,36,0
290.40622,290.79584,79,36,0
290.40622,290.79584,71,36,0
290.40622,290.79584,67,36,0
290.79584,291.18546,81,36,0
290.79584,291.18546,69,36,0
290.79584,291.18546,74,36,0
290.79584,291.18546,78,36,0
291.18546,291.57507,83,36,0
291.18546,291.57507,71,36,0
291.18546,291.57507,74,36,0
291.18546,291.57507,79,36,0
291.57507,292.35428,81,62,0
291.57507,292.35428,72,50,0
291.57507,292.35428,74,54,0
291.57507,292.35428,78,58,0
292.35428,292.7439,79,36,0
292.35428,292.7439,74,36,0
292.35428,292.7439,71,36,0
292.7439,293.1335,79,36,0
292.7439,293.1335,74,36,0
292.7439,293.1335,71,36,0
293.1335,293.5231,74,36,0
293.5231,293.91272,74,36,0
293.91272,294.69196,76,88,0
293.91272,294.69196,64,88,0
293.91272,294.69196,67,88,0
293.91272,294.69196,72,88,0
294.69196,295.08154,76,88,0
294.69196,295.08154,64,88,0
294.69196,295.08154,67,88,0
294.69196,295.08154,72,88,0
295.08154,295.47116,76,88,0
295.08154,295.47116,64,88,0
295.08154,295.47116,67,88,0
295.08154,295.47116,72,88,0
295.47116,295.86078,76,88,0
295.47116,295.86078,64,88,0
295.47116,295.86078,67,88,0
295.47116,295.86078,72,88,0
295.86078,296.25037,76,88,0
295.86078,296.25037,64,88,0
295.86078,296.25037,67,88,0
295.86078,296.25037,72,88,0
296.25037,296.63998,76,88,0
296.25037,296.63998,67,88,0
296.25037,296.63998,64,88,0
296.63998,297.0296,74,88,0
296.63998,297.0296,67,88,0
296.63998,297.0296,62,88,0
297.0296,297.41922,72,88,0
297.0296,297.41922,67,88,0
297.0296,297.41922,60,88,0
297.41922,297.8088,72,101,0
297.41922,297.8088,67,101,0
297.41922,297.8088,60,101,0
297.8088,298.19843,74,101,0
297.8088,298.19843,67,101,0
297.8088,298.19843,62,101,0
298.19843,298.58804,76,101,0
298.19843,298.58804,67,101,0
298.19843,298.58804,64,101,0
298.58804,299.36725,79,114,0
298.58804,299.36725,70,114,0
298.58804,299.36725,67,114,0
299.36725,299.75687,79,114,0
299.36725,299.75687,70,114,0
299.36725,299.75687,67,114,0
299.75687,300.14648,79,114,0
299.75687,300.14648,70,114,0
299.75687,300.14648,67,114,0
300.14648,300.5361,79,114,0
300.14648,300.5361,70,114,0
300.14648,300.5361,67,114,0
300.5361,300.9257,79,114,0
300.5361,300.9257,70,114,0
300.5361,300.9257,67,114,0
300.9257,301.3153,79,114,0
300.9257,301.3153,70,114,0
300.9257,301.3153,67,114,0
301.3153,301.70493,77,114,0
301.3153,301.70493,70,114,0
301.3153,301.70493,65,114,0
301.70493,302.09454,75,114,0
301.70493,302.09454,70,114,0
301.70493,302.09454,63,114,0
302.09454,302.48413,75,114,0
302.09454,302.48413,70,114,0
302.09454,302.48413,63,114,0
302.48413,302.87375,77,114,0
302.48413,302.87375,70,114,0
302.48413,302.87375,65,114,0
302.87375,303.26337,79,114,0
302.87375,303.26337,70,114,0
302.87375,303.26337,67,114,0
303.26337,304.04257,82,114,0
303.26337,304.04257,73,114,0
303.26337,304.04257,70,114,0
304.04257,304.4322,82,114,0
304.04257,304.4322,73,114,0
304.04257,304.4322,70,114,0
304.4322,304.8218,82,114,0
304.4322,304.8218,73,114,0
304.4322,304.8218,70,114,0
304.8218,305.21143,82,114,0
304.8218,305.21143,73,114,0
304.8218,305.21143,70,114,0
305.21143,305.601,82,114,0
305.21143,305.601,73,114,0
305.21143,305.601,70,114,0
305.601,305.99063,82,114,0
305.601,305.99063,73,114,0
305.601,305.99063,70,114,0
305.99063,306.38025,80,114,0
305.99063,306.38025,73,114,0
305.99063,306.38025,68,114,0
306.38025,306.76984,78,114,0
306.38025,306.76984,73,114,0
306.38025,306.76984,66,114,0
306.76984,307.15945,82,114,0
306.76984,307.15945,78,114,0
306.76984,307.15945,70,114,0
307.15945,307.54907,83,114,0
307.15945,307.54907,78,114,0
307.15945,307.54907,71,114,0
307.54907,307.9387,85,114,0
307.54907,307.9387,78,114,0
307.54907,307.9387,73,114,0
307.9387,308.7179,86,114,0
307.9387,308.7179,78,114,0
307.9387,308.7179,74,114,0
308.7179,309.1075,86,114,0
308.7179,309.1075,78,114,0
308.7179,309.1075,74,114,0
309.1075,309.49713,86,114,0
309.1075,309.49713,78,114,0
309.1075,309.49713,74,114,0
309.49713,309.88672,86,114,0
309.49713,309.88672,78,114,0
309.49713,309.88672,74,114,0
309.88672,310.27634,86,114,0
309.88672,310.27634,78,114,0
309.88672,310.27634,74,114,0
310.27634,311.05557,91,114,0
310.27634,311.05557,83,114,0
310.27634,311.05557,77,114,0
310.27634,311.05557,79,114,0
310.27634,311.05557,86,114,0
311.05557,311.44516,91,114,0
311.05557,311.44516,83,114,0
311.05557,311.44516,77,114,0
311.05557,311.44516,79,114,0
311.05557,311.44516,86,114,0
311.44516,311.83478,91,101,0
311.44516,311.83478,83,101,0
311.44516,311.83478,77,101,0
311.44516,311.83478,79,101,0
311.44516,311.83478,86,101,0
311.83478,312.2244,91,101,0
311.83478,312.2244,83,101,0
311.83478,312.2244,77,101,0
311.83478,312.2244,79,101,0
311.83478,312.2244,86,101,0
312.2244,312.614,91,101,0
312.2244,312.614,83,101,0
312.2244,312.614,77,101,0
312.2244,312.614,79,101,0
312.2244,312.614,86,101,0
312.614,313.39322,88,75,0
312.614,313.39322,76,75,0
312.614,313.39322,79,75,0
312.614,313.39322,84,75,0
313.39322,313.78284,76,75,0
313.39322,313.78284,72,75,0
313.39322,313.78284,64,75,0
313.78284,314.17245,76,75,0
313.78284,314.17245,72,75,0
313.78284,314.17245,64,75,0
314.17245,314.56204,76,75,0
314.17245,314.56204,72,75,0
314.17245,314.56204,64,75,0
314.56204,314.95166,76,75,0
314.56204,314.95166,72,75,0
314.56204,314.95166,64,75,0
314.95166,315.7309,76,49,0
314.95166,315.7309,72,49,0
314.95166,315.7309,64,49,0
315.7309,316.12048,74,49,0
315.7309,316.12048,71,49,0
315.7309,316.12048,64,49,0
316.12048,316.89972,74,49,0
316.12048,316.89972,71,49,0
316.12048,316.89972,64,49,0
316.89972,317.2893,72,49,0
316.89972,317.2893,69,49,0
316.89972,317.2893,64,49,0
317.2893,318.06854,72,49,0
317.2893,318.06854,69,49,0
317.2893,318.06854,64,49,0
318.06854,318.45816,71,49,0
318.06854,318.45816,67,49,0
318.45816,319.23737,71,49,0
318.45816,319.23737,67,49,0
319.23737,319.62698,69,49,0
319.23737,319.62698,66,49,0
319.23737,319.62698,62,49,0
319.62698,320.4062,69,36,0
319.62698,320.4062,66,36,0
319.62698,320.4062,62,36,0
320.4062,320.7958,69,36,0
320.4062,320.7958,66,36,0
320.4062,320.7958,62,36,0
320.7958,321.18542,69,36,0
320.7958,321.18542,66,36,0
320.7958,321.18542,62,36,0
321.18542,321.57504,69,36,0
321.18542,321.57504,66,36,0
321.18542,321.57504,62,36,0
321.57504,321.96463,69,36,0
321.57504,321.96463,66,36,0
321.57504,321.96463,62,36,0
321.96463,322.74387,69,36,0
321.96463,322.74387,66,36,0
321.96463,322.74387,62,36,0
322.74387,323.13348,69,36,0
322.74387,323.13348,66,36,0
322.74387,323.13348,62,36,0
323.13348,323.52307,69,36,0
323.13348,323.52307,66,36,0
323.13348,323.52307,62,36,0
323.52307,323.9127,69,36,0
323.52307,323.9127,66,36,0
323.52307,323.9127,62,36,0
323.9127,324.3023,69,36,0
323.9127,324.3023,66,36,0
323.9127,324.3023,62,36,0
324.3023,325.0815,71,36,0
324.3023,325.0815,66,36,0
324.3023,325.0815,63,36,0
325.0815,325.47113,71,36,0
325.0815,325.47113,66,36,0
325.0815,325.47113,63,36,0
325.47113,325.86075,71,36,0
325.47113,325.86075,66,36,0
325.47113,325.86075,63,36,0
325.86075,326.25037,71,36,0
325.86075,326.25037,66,36,0
325.86075,326.25037,63,36,0
326.25037,326.63995,71,36,0
326.25037,326.63995,66,36,0
326.25037,326.63995,63,36,0
326.63995,327.02957,71,49,0
326.63995,327.02957,67,49,0
326.63995,327.02957,62,49,0
327.02957,327.4192,76,49,0
327.02957,327.4192,67,49,0
327.02957,327.4192,64,49,0
327.4192,327.80878,74,49,0
327.4192,327.80878,67,49,0
327.4192,327.80878,62,49,0
327.80878,328.1984,74,36,0
327.80878,328.1984,67,36,0
327.80878,328.1984,62,36,0
328.1984,328.588,74,36,0
328.1984,328.588,67,36,0
328.1984,328.588,62,36,0
328.588,328.97763,74,36,0
328.588,328.97763,67,36,0
328.588,328.97763,62,36,0
328.97763,329.36722,74,62,0
328.97763,329.36722,67,57,0
328.97763,329.36722,62,52,0
329.36722,329.75684,69,36,0
329.36722,329.75684,62,36,0
329.36722,329.75684,57,36,0
329.75684,330.14645,72,36,0
329.75684,330.14645,62,36,0
329.75684,330.14645,60,36,0
330.14645,330.53607,72,36,0
330.14645,330.53607,62,36,0
330.14645,330.53607,60,36,0
330.53607,330.92566,71,36,0
330.53607,330.92566,62,36,0
330.53607,330.92566,59,36,0
330.92566,331.31528,69,36,0
330.92566,331.31528,62,36,0
330.92566,331.31528,57,36,0
331.31528,331.7049,69,62,0
331.31528,331.7049,62,57,0
331.31528,331.7049,57,52,0
331.7049,332.0945,71,36,0
331.7049,332.0945,62,36,0
331.7049,332.0945,59,36,0
332.0945,332.4841,71,36,0
332.0945,332.4841,62,36,0
332.0945,332.4841,59,36,0
332.4841,332.87372,71,36,0
332.4841,332.87372,62,36,0
332.4841,332.87372,59,36,0
332.87372,333.26334,71,36,0
332.87372,333.26334,67,36,0
332.87372,333.26334,59,36,0
333.26334,333.65295,72,36,0
333.26334,333.65295,67,36,0
333.26334,333.65295,60,36,0
333.65295,334.43216,74,88,0
333.65295,334.43216,67,88,0
333.65295,334.43216,62,88,0
334.43216,334.82178,74,49,0
334.43216,334.82178,67,49,0
334.43216,334.82178,62,49,0
334.82178,335.2114,74,49,0
334.82178,335.2114,67,49,0
334.82178,335.2114,62,49,0
335.2114,335.60098,72,49,0
335.2114,335.60098,67,49,0
335.2114,335.60098,60,49,0
335.60098,335.9906,71,49,0
335.60098,335.9906,67,49,0
335.60098,335.9906,59,49,0
335.9906,336.38022,74,75,0
335.9906,336.38022,67,75,0
335.9906,336.38022,62,75,0
336.38022,336.76984,79,75,0
336.38022,336.76984,71,75,0
336.38022,336.76984,67,75,0
336.76984,337.15942,83,75,0
336.76984,337.15942,74,75,0
336.76984,337.15942,71,75,0
337.15942,337.54904,83,101,0
337.15942,337.54904,74,101,0
337.15942,337.54904,71,101,0
337.54904,337.93866,83,101,0
337.54904,337.93866,74,101,0
337.54904,337.93866,71,101,0
337.93866,338.32825,83,101,0
337.93866,338.32825,74,101,0
337.93866,338.32825,71,101,0
338.32825,338.71786,83,114,0
338.32825,338.71786,75,114,0
338.32825,338.71786,71,114,0
338.71786,339.10748,83,114,0
338.71786,339.10748,75,114,0
338.71786,339.10748,71,114,0
339.10748,339.4971,83,101,0
339.10748,339.4971,75,101,0
339.10748,339.4971,71,101,0
339.4971,339.8867,83,88,0
339.4971,339.8867,75,88,0
339.4971,339.8867,71,88,0
339.8867,340.2763,83,75,0
339.8867,340.2763,75,75,0
339.8867,340.2763,71,75,0
340.2763,340.66592,83,62,0
340.2763,340.66592,75,62,0
340.2763,340.66592,71,62,0
340.66592,341.05554,83,36,0
340.66592,341.05554,74,36,0
340.66592,341.05554,71,36,0
341.05554,341.44513,84,36,0
341.05554,341.44513,74,36,0
341.05554,341.44513,72,36,0
341.44513,341.83475,86,36,0
341.44513,341.83475,74,36,0
342.22437,342.61398,79,36,0
342.22437,342.61398,71,36,0
342.22437,342.61398,67,36,0
342.61398,343.00357,81,36,0
342.61398,343.00357,69,36,0
342.61398,343.00357,74,36,0
342.61398,343.00357,78,36,0
343.00357,343.3932,83,36,0
343.00357,343.3932,71,36,0
343.00357,343.3932,74,36,0
343.00357,343.3932,79,36,0
343.3932,344.17242,81,62,0
343.3932,344.17242,72,50,0
343.3932,344.17242,74,54,0
343.3932,344.17242,78,58,0
344.17242,344.562,79,36,0
344.17242,344.562,74,36,0
344.17242,344.562,71,36,0
344.562,344.95163,79,36,0
344.562,344.95163,74,36,0
344.562,344.95163,71,36,0
344.95163,345.34125,79,49,0
344.95163,345.34125,74,49,0
344.95163,345.34125,71,49,0
345.34125,345.73087,79,49,0
345.34125,345.73087,74,49,0
345.34125,345.73087,71,49,0
345.73087,346.51007,79,49,0
345.73087,346.51007,74,49,0
345.73087,346.51007,71,49,0
346.51007,346.8997,76,49,0
346.51007,346.8997,71,49,0
346.51007,346.8997,67,49,0
346.8997,347.28928,76,49,0
346.8997,347.28928,71,49,0
346.8997,347.28928,67,49,0
347.28928,347.6789,73,49,0
347.28928,347.6789,67,49,0
347.28928,347.6789,64,49,0
347.6789,348.0685,71,49,0
347.6789,348.0685,67,49,0
347.6789,348.0685,62,49,0
348.0685,348.84772,71,49,0
348.0685,348.84772,67,49,0
348.0685,348.84772,61,49,0
348.84772,349.23734,69,49,0
348.84772,349.23734,67,49,0
348.84772,349.23734,61,49,0
349.23734,349.62695,69,49,0
349.23734,349.62695,67,49,0
349.23734,349.62695,61,49,0
349.62695,350.01657,71,49,0
349.62695,350.01657,67,49,0
349.62695,350.01657,62,49,0
350.01657,350.40616,71,49,0
350.01657,350.40616,67,49,0
350.01657,350.40616,62,49,0
350.40616,351.1854,71,75,0
350.40616,351.1854,67,70,0
350.40616,351.1854,61,65,0
351.1854,351.575,69,49,0
351.1854,351.575,67,49,0
351.1854,351.575,61,49,0
351.575,351.9646,69,49,0
351.575,351.9646,67,49,0
351.575,351.9646,61,49,0
351.9646,352.35422,70,49,0
351.9646,352.35422,67,49,0
351.9646,352.35422,62,49,0
352.35422,352.74384,70,49,0
352.35422,352.74384,67,49,0
352.35422,352.74384,62,49,0
352.74384,353.52304,70,49,0
352.74384,353.52304,67,49,0
352.74384,353.52304,61,49,0
353.52304,353.91266,69,49,0
353.52304,353.91266,67,49,0
353.52304,353.91266,61,49,0
353.91266,354.6919,69,49,0
353.91266,354.6919,67,49,0
353.91266,354.6919,61,49,0
354.6919,355.08148,69,49,0
354.6919,355.08148,67,49,0
354.6919,355.08148,61,49,0
355.08148,355.86072,69,49,0
355.08148,355.86072,67,49,0
355.08148,355.86072,61,49,0
355.86072,356.25034,69,49,0
355.86072,356.25034,67,49,0
355.86072,356.25034,61,49,0
356.25034,356.50034,69,49,0
356.25034,356.50034,67,49,0
356.25034,356.50034,61,49,0
356.50034,356.58365,61,101,0
356.50034,356.58365,57,101,0
356.50034,356.58365,55,101,0
356.58365,356.83365,61,101,0
356.58365,356.83365,57,101,0
356.58365,356.83365,55,101,0
356.83365,356.917,61,101,0
356.83365,356.917,57,101,0
356.83365,356.917,55,101,0
356.917,357.167,62,101,0
356.917,357.167,57,101,0
356.917,357.167,55,101,0
357.167,357.2503,64,101,0
357.167,357.2503,57,101,0
357.167,357.2503,55,101,0
357.2503,357.917,66,114,0
357.2503,357.917,54,114,0
357.2503,357.917,57,114,0
357.2503,357.917,62,114,0
357.917,358.5003,66,114,0
357.917,358.5003,54,114,0
357.917,358.5003,57,114,0
357.917,358.5003,62,114,0
358.5003,358.58365,66,114,0
358.58365,358.83365,67,114,0
358.83365,358.8753,66,114,0
358.8753,358.89755,64,114,0
358.89478,358.917,66,114,0
358.917,359.167,64,114,0
359.167,359.2503,62,114,0
359.2503,359.917,69,114,0
359.2503,359.917,64,114,0
359.2503,359.917,57,114,0
359.917,360.5003,69,114,0
359.917,360.5003,64,114,0
359.917,360.5003,57,114,0
360.5003,360.542,69,114,0
360.542,360.5642,71,114,0
360.56143,360.59198,73,114,0
360.59198,360.75864,71,114,0
360.75864,360.84198,69,114,0
360.84198,361.09198,71,114,0
361.09198,361.17532,73,114,0
361.2503,361.917,74,114,0
361.2503,361.917,62,114,0
361.2503,361.917,66,114,0
361.2503,361.917,71,114,0
361.917,362.417,74,114,0
361.917,362.417,62,114,0
361.917,362.417,66,114,0
361.917,362.417,71,114,0
362.417,362.43365,74,114,0
362.417,362.43365,68,114,0
362.58365,362.6003,74,114,0
362.58365,362.6003,68,114,0
362.7503,362.76697,76,114,0
362.7503,362.76697,74,114,0
362.7503,362.76697,68,114,0
362.917,362.93365,78,114,0
362.917,362.93365,74,114,0
362.917,362.93365,68,114,0
363.08365,363.1003,80,114,0
363.08365,363.1003,74,114,0
363.08365,363.1003,68,114,0
363.2503,363.917,81,114,0
363.2503,363.917,73,114,0
363.2503,363.917,69,114,0
363.917,364.58365,69,114,0
363.917,364.58365,61,114,0
363.917,364.58365,57,114,0
364.917,365.2503,81,49,0
365.2503,365.58365,82,49,0
365.58365,365.69476,83,49,0
365.692,365.8031,82,49,0
365.80588,365.917,83,49,0
365.917,366.02808,88,49,0
366.0253,366.1364,87,49,0
366.1392,366.2503,88,49,0
366.2503,366.83365,91,49,0
366.83365,366.917,90,49,0
366.917,367.167,88,49,0
367.167,367.2503,86,49,0
367.2503,367.5003,85,49,0
367.5003,367.58365,83,49,0
367.58365,367.69476,81,49,0
367.692,367.8031,80,49,0
367.80588,367.91696,81,49,0
367.91696,368.02808,86,49,0
368.0253,368.1364,85,49,0
368.1392,368.2503,86,49,0
368.2503,368.83365,90,75,0
368.83365,368.91696,88,49,0
368.91696,369.16696,86,49,0
369.16696,369.2503,85,49,0
369.2503,369.5003,83,49,0
369.5003,369.58365,81,49,0
369.58365,369.69476,79,49,0
369.692,369.8031,78,49,0
369.80588,369.91696,79,49,0
369.91696,370.02808,85,49,0
370.0253,370.1364,84,49,0
370.1392,370.2503,85,49,0
370.2503,370.83365,88,75,0
370.83365,370.91696,86,49,0
370.91696,371.16696,85,49,0
371.16696,371.2503,86,49,0
371.2503,371.5003,85,49,0
371.5003,371.58365,83,49,0
371.58365,372.2503,82,75,0
371.58365,372.2503,78,67,0
372.2503,372.7503,82,75,0
372.2503,372.7503,78,67,0
372.7503,372.91696,82,49,0
372.91696,373.16696,83,49,0
373.16696,373.2503,82,49,0
373.2503,373.5003,83,49,0
373.5003,373.58365,82,49,0
373.58365,374.2503,80,75,0
373.58365,374.2503,77,67,0
374.2503,374.7503,80,75,0
374.2503,374.7503,77,67,0
374.7503,374.91696,80,49,0
374.91696,375.16696,82,49,0
375.16696,375.2503,80,49,0
375.2503,375.5003,82,49,0
375.5003,375.58365,80,49,0
375.58365,376.2503,78,75,0
376.2503,376.83365,78,75,0
377.58362,378.2503,62,114,0
377.58362,378.2503,54,114,0
377.58362,378.2503,50,114,0
378.2503,378.83362,62,114,0
378.2503,378.83362,50,114,0
378.2503,378.83362,54,114,0
378.2503,378.83362,59,114,0
378.83362,378.91696,62,114,0
378.91696,379.16696,62,114,0
379.16696,379.2503,64,114,0
379.2503,379.5003,66,114,0
379.5003,379.58362,62,114,0
379.58362,380.2503,69,114,0
379.58362,380.2503,57,114,0
379.58362,380.2503,64,114,0
379.58362,380.2503,67,114,0
380.2503,380.83362,69,114,0
380.2503,380.83362,57,114,0
380.2503,380.83362,64,114,0
380.2503,380.83362,67,114,0
380.83362,380.91696,69,114,0
380.83362,380.91696,67,114,0
380.83362,380.91696,64,114,0
380.91696,381.16696,69,114,0
380.91696,381.16696,67,114,0
380.91696,381.16696,64,114,0
381.16696,381.2503,69,114,0
381.16696,381.2503,67,114,0
381.16696,381.2503,64,114,0
381.2503,381.5003,71,114,0
381.2503,381.5003,67,114,0
381.2503,381.5003,64,114,0
381.5003,381.58362,73,114,0
381.5003,381.58362,67,114,0
381.5003,381.58362,64,114,0
381.58362,382.2503,74,114,0
381.58362,382.2503,62,114,0
381.58362,382.2503,66,114,0
381.58362,382.2503,69,114,0
382.2503,382.7503,74,114,0
382.2503,382.7503,67,114,0
382.2503,382.7503,62,114,0
382.7503,382.76697,74,114,0
382.7503,382.76697,68,114,0
382.91696,382.93362,74,114,0
382.91696,382.93362,68,114,0
383.08362,383.10028,76,114,0
383.08362,383.10028,74,114,0
383.08362,383.10028,68,114,0
383.2503,383.26697,78,114,0
383.2503,383.26697,74,114,0
383.2503,383.26697,68,114,0
383.41696,383.43362,80,114,0
383.41696,383.43362,74,114,0
383.41696,383.43362,68,114,0
383.58362,384.2503,81,114,0
383.58362,384.2503,73,114,0
383.58362,384.2503,69,114,0
384.2503,384.91696,69,114,0
384.2503,384.91696,61,114,0
384.2503,384.91696,57,114,0
385.2503,385.58362,76,49,0
385.58362,385.91696,77,49,0
385.91696,386.02808,78,49,0
386.0253,386.1364,77,49,0
386.1392,386.2503,78,49,0
386.2503,386.3614,83,49,0
386.3586,386.46973,82,49,0
386.4725,386.58362,83,49,0
386.58362,387.16696,86,75,0
387.16696,387.20862,85,49,0
387.20862,387.23083,83,49,0
387.22806,387.2503,85,49,0
387.2503,387.5003,83,49,0
387.5003,387.54196,81,49,0
387.54196,387.56418,80,49,0
387.5614,387.58362,81,49,0
387.58362,387.83362,80,49,0
387.83362,387.91696,78,49,0
387.91696,388.02808,76,49,0
388.0253,388.1364,75,49,0
388.1392,388.25027,76,49,0
388.25027,388.3614,81,49,0
388.3586,388.46973,80,49,0
388.4725,388.58362,81,49,0
388.58362,389.16696,85,75,0
389.16696,389.20862,83,49,0
389.20862,389.23083,81,49,0
389.22806,389.25027,83,49,0
389.25027,389.50027,81,49,0
389.50027,389.54196,80,49,0
389.54196,389.56418,78,49,0
389.5614,389.58362,80,49,0
389.58362,389.83362,78,49,0
389.83362,389.91696,76,49,0
389.91696,390.02808,74,49,0
390.0253,390.1364,73,49,0
390.1392,390.25027,74,49,0
390.25027,390.3614,80,49,0
390.3586,390.46973,79,49,0
390.4725,390.58362,80,49,0
390.58362,391.16696,83,75,0
391.16696,391.25027,81,49,0
391.25027,391.50027,80,49,0
391.50027,391.58362,81,49,0
391.58362,391.83362,80,49,0
391.83362,391.91696,78,49,0
391.91696,392.58362,77,62,0
391.91696,392.58362,73,54,0
392.58362,393.16696,77,36,0
392.58362,393.16696,73,36,0
393.16696,393.25027,77,36,0
393.25027,393.50027,78,36,0
393.50027,393.58362,77,36,0
393.58362,393.83362,78,36,0
393.83362,393.91696,77,36,0
393.91696,394.58362,80,62,0
393.91696,394.58362,76,54,0
394.58362,395.16696,80,62,0
394.58362,395.16696,76,54,0
395.16696,395.25027,76,36,0
395.25027,395.50027,78,36,0
395.50027,395.58362,76,36,0
395.58362,395.83362,78,36,0
395.83362,395.91696,80,36,0
395.91696,396.58362,81,36,0
395.91696,396.58362,73,36,0
395.91696,396.58362,69,36,0
396.58362,397.08362,81,36,0
396.58362,397.08362,73,36,0
396.58362,397.08362,69,36,0
399.16693,399.17807,69,114,0
399.25027,399.27527,69,114,0
399.50027,399.51138,69,114,0
399.58362,399.6086,67,114,0
399.83362,399.84473,69,114,0
399.91693,400.58362,74,114,0
399.91693,400.58362,62,114,0
399.91693,400.58362,65,114,0
399.91693,400.58362,70,114,0
400.58362,401.16693,74,114,0
400.58362,401.16693,62,114,0
400.58362,401.16693,65,114,0
400.58362,401.16693,70,114,0
401.16693,401.17804,77,114,0
401.16693,401.17804,74,114,0
401.25027,401.27527,77,127,0
401.25027,401.27527,74,127,0
401.50027,401.51138,77,114,0
401.50027,401.51138,74,114,0
401.58362,401.6086,76,114,0
401.58362,401.6086,73,114,0
401.83362,401.84473,77,114,0
401.83362,401.84473,74,114,0
401.91693,401.94196,74,127,0
401.91693,401.94196,70,127,0
402.16693,402.17804,74,114,0
402.16693,402.17804,70,114,0
402.25027,402.27527,73,114,0
402.25027,402.27527,69,114,0
402.50027,402.51138,74,114,0
402.50027,402.51138,70,114,0
402.58362,402.6086,70,127,0
402.58362,402.6086,67,127,0
402.83362,402.84473,70,114,0
402.83362,402.84473,67,114,0
402.91693,402.94196,69,114,0
402.91693,402.94196,66,114,0
403.16693,403.17804,70,114,0
403.16693,403.17804,67,114,0
403.25027,403.91693,67,114,0
403.25027,403.91693,63,114,0
403.91693,404.58362,79,114,0
403.91693,404.58362,67,114,0
403.91693,404.58362,71,114,0
403.91693,404.58362,75,114,0
404.58362,405.25027,79,114,0
404.58362,405.25027,67,114,0
404.58362,405.25027,72,114,0
404.58362,405.25027,75,114,0
405.25027,405.2836,77,127,0
405.25027,405.2836,74,127,0
405.25027,405.2836,65,127,0
405.58362,405.61694,81,127,0
405.58362,405.61694,69,127,0
405.58362,405.61694,72,127,0
405.58362,405.61694,75,127,0
405.91693,406.58362,82,114,0
405.91693,406.58362,74,114,0
405.91693,406.58362,70,114,0
406.58362,407.16693,70,114,0
406.58362,407.16693,62,114,0
406.58362,407.16693,58,114,0
407.16693,407.17804,77,49,0
407.16693,407.17804,74,49,0
407.25027,407.27527,77,49,0
407.25027,407.27527,74,49,0
407.50027,407.51138,77,49,0
407.50027,407.51138,74,49,0
407.58362,407.6086,76,49,0
407.58362,407.6086,73,49,0
407.83362,407.84473,77,49,0
407.83362,407.84473,74,49,0
407.91693,408.5836,74,75,0
407.91693,408.5836,70,67,0
408.5836,409.16693,74,75,0
408.5836,409.16693,70,67,0
409.16693,409.17804,74,49,0
409.16693,409.17804,70,49,0
409.25027,409.27527,74,49,0
409.25027,409.27527,70,49,0
409.50027,409.51138,74,49,0
409.50027,409.51138,70,49,0
409.5836,409.6086,73,49,0
409.5836,409.6086,69,49,0
409.8336,409.84473,74,49,0
409.8336,409.84473,70,49,0
409.91693,410.5836,77,75,0
409.91693,410.5836,74,67,0
410.5836,411.16693,75,75,0
410.5836,411.16693,72,67,0
411.16693,411.25027,77,49,0
411.16693,411.25027,75,49,0
411.16693,411.25027,72,49,0
411.25027,411.50027,77,49,0
411.25027,411.50027,75,49,0
411.25027,411.50027,72,49,0
411.50027,411.5836,77,49,0
411.50027,411.5836,75,49,0
411.50027,411.5836,72,49,0
411.5836,411.8336,77,49,0
411.5836,411.8336,74,49,0
411.5836,411.8336,71,49,0
411.8336,411.91693,77,49,0
411.8336,411.91693,75,49,0
411.8336,411.91693,72,49,0
411.91693,412.5836,77,75,0
411.91693,412.5836,72,70,0
411.91693,412.5836,69,65,0
412.5836,413.16693,77,75,0
412.5836,413.16693,72,70,0
412.5836,413.16693,69,65,0
413.16693,413.25027,77,49,0
413.16693,413.25027,72,49,0
413.16693,413.25027,69,49,0
413.25027,413.50027,77,49,0
413.25027,413.50027,72,49,0
413.25027,413.50027,69,49,0
413.50027,413.5836,77,49,0
413.50027,413.5836,72,49,0
413.50027,413.5836,69,49,0
413.5836,413.8336,77,49,0
413.5836,413.8336,71,49,0
413.5836,413.8336,68,49,0
413.8336,413.91693,77,49,0
413.8336,413.91693,72,49,0
413.8336,413.91693,69,49,0
413.91693,414.5836,77,75,0
413.91693,414.5836,73,70,0
413.91693,414.5836,69,65,0
414.5836,415.16693,77,75,0
414.5836,415.16693,74,70,0
414.5836,415.16693,70,65,0
415.16693,415.25027,77,49,0
415.16693,415.25027,74,49,0
415.16693,415.25027,70,49,0
415.25027,415.50027,77,49,0
415.25027,415.50027,74,49,0
415.25027,415.50027,70,49,0
415.50027,415.5836,77,49,0
415.50027,415.5836,74,49,0
415.50027,415.5836,70,49,0
415.5836,415.8336,76,49,0
415.5836,415.8336,74,49,0
415.5836,415.8336,70,49,0
415.8336,415.91693,77,49,0
415.8336,415.91693,74,49,0
415.8336,415.91693,70,49,0
415.91693,416.5836,79,49,0
415.91693,416.5836,74,49,0
415.91693,416.5836,70,49,0
416.5836,417.16693,79,49,0
416.5836,417.16693,74,49,0
416.5836,417.16693,70,49,0
417.16693,417.25027,79,49,0
417.16693,417.25027,74,49,0
417.16693,417.25027,70,49,0
417.25027,417.50027,79,49,0
417.25027,417.50027,74,49,0
417.25027,417.50027,70,49,0
417.50027,417.5836,82,49,0
417.50027,417.5836,74,49,0
417.50027,417.5836,70,49,0
417.5836,417.8336,81,49,0
417.5836,417.8336,74,49,0
417.5836,417.8336,70,49,0
417.8336,417.91693,79,49,0
417.8336,417.91693,74,49,0
417.8336,417.91693,70,49,0
417.91693,418.5836,77,49,0
417.91693,418.5836,74,49,0
417.91693,418.5836,70,49,0
418.5836,419.16693,77,49,0
418.5836,419.16693,74,49,0
418.5836,419.16693,70,49,0
419.16693,419.25024,77,49,0
419.16693,419.25024,74,49,0
419.16693,419.25024,70,49,0
419.25024,419.50024,77,49,0
419.25024,419.50024,74,49,0
419.25024,419.50024,70,49,0
419.50024,419.5836,77,49,0
419.50024,419.5836,74,49,0
419.50024,419.5836,70,49,0
419.5836,419.8336,79,49,0
419.5836,419.8336,75,49,0
419.5836,419.8336,70,49,0
419.8336,419.91693,77,49,0
419.8336,419.91693,74,49,0
419.8336,419.91693,70,49,0
419.91693,420.5836,77,49,0
419.91693,420.5836,74,49,0
419.91693,420.5836,69,49,0
420.5836,421.16693,75,49,0
420.5836,421.16693,72,49,0
420.5836,421.16693,69,49,0
421.16693,421.25024,75,49,0
421.16693,421.25024,72,49,0
421.16693,421.25024,65,49,0
421.25024,421.50024,75,49,0
421.25024,421.50024,72,49,0
421.25024,421.50024,65,49,0
421.50024,421.5836,75,49,0
421.50024,421.5836,72,49,0
421.50024,421.5836,65,49,0
421.5836,421.8336,74,49,0
421.5836,421.8336,70,49,0
421.5836,421.8336,65,49,0
421.8336,421.91693,72,49,0
421.8336,421.91693,69,49,0
421.8336,421.91693,65,49,0
421.91693,422.5836,70,49,0
421.91693,422.5836,65,49,0
421.91693,422.5836,62,49,0
422.5836,423.16833,70,49,0
422.5836,423.16833,65,49,0
422.5836,423.16833,62,49,0
423.16833,423.25308,75,49,0
423.16833,423.25308,72,49,0
423.16833,423.25308,65,49,0
423.25308,423.5132,75,49,0
423.25308,423.5132,72,49,0
423.25308,423.5132,65,49,0
423.5132,423.60092,75,49,0
423.5132,423.60092,72,49,0
423.5132,423.60092,65,49,0
423.60092,423.87204,74,49,0
423.60092,423.87204,70,49,0
423.60092,423.87204,65,49,0
423.87204,423.9635,72,49,0
423.87204,423.9635,69,49,0
423.87204,423.9635,65,49,0
423.9635,424.7293,70,49,0
423.9635,424.7293,65,49,0
423.9635,424.7293,62,49,0
424.7293,425.41113,70,49,0
424.7293,425.41113,65,49,0
424.7293,425.41113,62,49,0
425.41113,425.50854,75,49,0
425.41113,425.50854,72,49,0
425.41113,425.50854,65,49,0
425.50854,425.80075,75,49,0
425.50854,425.80075,72,49,0
425.50854,425.80075,65,49,0
425.80075,425.89816,75,49,0
425.80075,425.89816,72,49,0
425.80075,425.89816,65,49,0
425.89816,426.19037,74,49,0
425.89816,426.19037,70,49,0
425.89816,426.19037,65,49,0
426.19037,426.28775,72,49,0
426.19037,426.28775,69,49,0
426.19037,426.28775,65,49,0
426.28775,426.53775,70,49,0
426.28775,426.53775,65,49,0
426.28775,426.53775,62,49,0
429.28775,429.53775,57,101,0
429.53775,429.6211,69,101,0
429.53775,429.6211,57,101,0
429.6211,429.8711,69,127,0
429.6211,429.8711,57,119,0
429.8711,429.9544,71,101,0
429.8711,429.9544,59,101,0
429.9544,430.2044,73,101,0
429.9544,430.2044,61,101,0
430.2044,430.28775,74,101,0
430.2044,430.28775,62,101,0
430.28775,430.9544,76,114,0
430.28775,430.9544,64,114,0
430.28775,430.9544,69,114,0
430.28775,430.9544,73,114,0
430.9544,431.53775,76,114,0
430.9544,431.53775,64,114,0
430.9544,431.53775,69,114,0
430.9544,431.53775,73,114,0
431.53775,431.6211,76,114,0
431.53775,431.6211,74,114,0
431.53775,431.6211,68,114,0
431.6211,431.8711,76,114,0
431.6211,431.8711,74,114,0
431.6211,431.8711,68,114,0
431.8711,431.9544,76,114,0
431.8711,431.9544,74,114,0
431.8711,431.9544,68,114,0
431.9544,432.2044,78,114,0
431.9544,432.2044,74,114,0
431.9544,432.2044,68,114,0
432.2044,432.28775,80,114,0
432.2044,432.28775,74,114,0
432.2044,432.28775,68,114,0
432.28775,432.9544,81,114,0
432.28775,432.9544,73,114,0
432.28775,432.9544,69,114,0
432.9544,433.53775,81,114,0
432.9544,433.53775,73,114,0
432.9544,433.53775,69,114,0
433.53775,433.54886,61,49,0
433.53775,433.54886,57,49,0
433.53775,433.54886,55,49,0
433.6211,433.6461,62,49,0
433.6211,433.6461,57,49,0
433.6211,433.6461,55,49,0
433.8711,433.8822,61,49,0
433.8711,433.8822,57,49,0
433.8711,433.8822,55,49,0
433.9544,433.97943,62,49,0
433.9544,433.97943,57,49,0
433.9544,433.97943,55,49,0
434.2044,434.2155,64,49,0
434.2044,434.2155,57,49,0
434.2044,434.2155,55,49,0
434.28775,434.9544,57,75,0
434.28775,434.9544,54,67,0
434.9544,435.53775,66,49,0
434.9544,435.53775,57,49,0
435.53775,435.54886,66,49,0
435.53775,435.54886,57,49,0
435.6211,435.6461,67,49,0
435.6211,435.6461,55,49,0
435.8711,435.8822,66,49,0
435.8711,435.8822,55,49,0
435.9544,435.9794,64,49,0
435.9544,435.9794,56,49,0
436.2044,436.2155,62,49,0
436.2044,436.2155,56,49,0
436.28775,436.9544,69,75,0
436.28775,436.9544,61,70,0
436.28775,436.9544,57,65,0
436.9544,437.53775,64,75,0
436.9544,437.53775,61,67,0
437.53775,437.54886,69,49,0
437.53775,437.54886,64,49,0
437.5794,437.5905,73,49,0
437.6211,437.6461,71,49,0
437.6211,437.6461,64,49,0
437.8711,437.8822,69,49,0
437.8711,437.8822,64,49,0
437.9544,437.9794,71,49,0
437.9544,437.9794,64,49,0
438.2044,438.2155,73,49,0
438.2044,438.2155,64,49,0
438.28775,438.9544,74,75,0
438.28775,438.9544,66,70,0
438.28775,438.9544,62,65,0
438.9544,439.53775,66,75,0
438.9544,439.53775,62,67,0
439.53775,439.5794,66,49,0
439.53775,439.5794,62,49,0
439.5794,439.62106,69,49,0
439.62106,439.6461,68,49,0
439.62106,439.6461,62,49,0
439.87106,439.8822,66,49,0
439.87106,439.8822,62,49,0
439.9544,439.9794,68,49,0
439.9544,439.9794,62,49,0
440.2044,440.2155,64,49,0
440.2044,440.2155,62,49,0
440.28775,440.9544,69,75,0
440.28775,440.9544,61,67,0
440.9544,441.62106,69,75,0
440.9544,441.62106,61,67,0
441.62106,441.65442,69,88,0
441.62106,441.65442,66,88,0
441.62106,441.65442,62,88,0
441.9544,441.98773,70,88,0
441.9544,441.98773,66,88,0
441.9544,441.98773,62,88,0
442.28775,442.9544,71,101,0
442.28775,442.9544,67,101,0
442.28775,442.9544,62,101,0
442.9544,443.28775,76,127,0
442.9544,443.28775,71,122,0
442.9544,443.28775,67,117,0
443.28775,443.32108,79,127,0
443.28775,443.32108,76,122,0
443.28775,443.32108,71,117,0
443.62106,443.65442,76,127,0
443.62106,443.65442,71,122,0
443.62106,443.65442,67,117,0
443.9544,443.98773,67,127,0
443.9544,443.98773,64,122,0
443.9544,443.98773,61,117,0
444.28775,444.9544,69,88,0
444.28775,444.9544,66,88,0
444.28775,444.9544,61,88,0
444.9544,445.28775,74,114,0
444.9544,445.28775,69,109,0
444.9544,445.28775,66,104,0
445.28775,445.32108,78,114,0
445.28775,445.32108,74,109,0
445.28775,445.32108,69,104,0
445.62106,445.65442,74,114,0
445.62106,445.65442,69,109,0
445.62106,445.65442,66,104,0
445.9544,445.98773,66,114,0
445.9544,445.98773,62,109,0
445.9544,445.98773,59,104,0
446.28775,446.9544,67,88,0
446.28775,446.9544,64,88,0
446.28775,446.9544,59,88,0
446.9544,447.28775,73,114,0
446.9544,447.28775,67,109,0
446.9544,447.28775,64,104,0
447.28775,447.32108,76,114,0
447.28775,447.32108,73,109,0
447.28775,447.32108,67,104,0
447.62106,447.6544,73,114,0
447.62106,447.6544,67,109,0
447.62106,447.6544,64,104,0
447.9544,447.98773,71,114,0
447.9544,447.98773,68,109,0
447.9544,447.98773,61,104,0
448.28775,448.9544,70,114,0
448.28775,448.9544,66,114,0
448.28775,448.9544,61,114,0
448.9544,449.53775,70,114,0
448.9544,449.53775,66,114,0
448.9544,449.53775,61,114,0
449.53775,449.54886,73,114,0
449.53775,449.54886,66,114,0
449.62106,449.64606,75,114,0
449.62106,449.64606,66,114,0
449.87106,449.88217,73,114,0
449.87106,449.88217,66,114,0
449.9544,449.9794,75,114,0
449.9544,449.9794,66,114,0
450.2044,450.2155,73,114,0
450.2044,450.2155,66,114,0
450.28772,450.9544,77,114,0
450.28772,450.9544,71,114,0
450.28772,450.9544,65,114,0
450.9544,451.53772,77,114,0
450.9544,451.53772,71,114,0
450.9544,451.53772,65,114,0
451.53772,451.54886,77,114,0
451.53772,451.54886,73,114,0
451.53772,451.54886,65,114,0
451.62106,451.64606,77,114,0
451.62106,451.64606,73,114,0
451.62106,451.64606,65,114,0
451.87106,451.88217,77,114,0
451.87106,451.88217,73,114,0
451.87106,451.88217,65,114,0
451.9544,451.9794,77,114,0
451.9544,451.9794,73,114,0
451.9544,451.9794,65,114,0
452.2044,452.2155,77,114,0
452.2044,452.2155,73,114,0
452.2044,452.2155,65,114,0
452.28772,452.9544,78,114,0
452.28772,452.9544,70,114,0
452.28772,452.9544,66,114,0
452.9544,453.53772,78,114,0
452.9544,453.53772,70,114,0
452.9544,453.53772,66,114,0
453.53772,453.54883,73,49,0
453.53772,453.54883,69,49,0
453.53772,453.54883,67,49,0
453.62106,453.64606,73,49,0
453.62106,453.64606,69,49,0
453.62106,453.64606,67,49,0
453.87106,453.88217,73,49,0
453.87106,453.88217,69,49,0
453.87106,453.88217,67,49,0
453.9544,453.9794,74,49,0
453.9544,453.9794,69,49,0
453.9544,453.9794,67,49,0
454.2044,454.2155,76,49,0
454.2044,454.2155,69,49,0
454.2044,454.2155,67,49,0
454.28772,454.9544,69,75,0
454.28772,454.9544,66,67,0
454.9544,455.53772,78,75,0
454.9544,455.53772,69,70,0
454.9544,455.53772,66,65,0
455.53772,455.62106,78,49,0
455.53772,455.62106,66,49,0
455.62106,455.87106,78,49,0
455.62106,455.87106,66,49,0
455.87106,455.9544,78,49,0
455.87106,455.9544,66,49,0
455.9544,456.2044,76,49,0
455.9544,456.2044,68,49,0
456.2044,456.28772,74,49,0
456.2044,456.28772,68,49,0
456.28772,456.9544,73,75,0
456.28772,456.9544,69,67,0
456.9544,457.53772,76,75,0
456.9544,457.53772,69,67,0
457.53772,457.62106,76,49,0
457.53772,457.62106,70,49,0
457.62106,457.87106,76,49,0
457.62106,457.87106,70,49,0
457.87106,457.9544,76,49,0
457.87106,457.9544,70,49,0
457.9544,458.2044,74,49,0
457.9544,458.2044,70,49,0
458.2044,458.28772,73,49,0
458.2044,458.28772,70,49,0
458.28772,458.9544,71,75,0
458.9544,459.53772,74,75,0
458.9544,459.53772,67,67,0
459.53772,459.62106,71,49,0
459.53772,459.62106,67,49,0
459.53772,459.62106,61,49,0
459.62106,459.87106,71,49,0
459.62106,459.87106,67,49,0
459.62106,459.87106,61,49,0
459.87106,459.95438,71,49,0
459.87106,459.95438,67,49,0
459.87106,459.95438,61,49,0
459.95438,460.20438,69,49,0
459.95438,460.20438,66,49,0
459.95438,460.20438,61,49,0
460.20438,460.28772,67,49,0
460.20438,460.28772,64,49,0
460.20438,460.28772,61,49,0
460.28772,460.95438,67,75,0
460.28772,460.95438,64,70,0
460.28772,460.95438,57,65,0
460.95438,461.62106,66,75,0
460.95438,461.62106,62,70,0
460.95438,461.62106,57,65,0
461.62106,461.6544,69,88,0
461.62106,461.6544,66,88,0
461.62106,461.6544,62,88,0
461.95438,461.98773,70,88,0
461.95438,461.98773,66,88,0
461.95438,461.98773,62,88,0
462.28772,462.95438,71,101,0
462.28772,462.95438,67,101,0
462.28772,462.95438,62,101,0
462.95438,463.28772,76,127,0
462.95438,463.28772,71,122,0
462.95438,463.28772,67,117,0
463.28772,463.32104,79,127,0
463.28772,463.32104,76,122,0
463.28772,463.32104,71,117,0
463.62106,463.6544,76,127,0
463.62106,463.6544,71,122,0
463.62106,463.6544,67,117,0
463.95438,463.98773,64,127,0
463.95438,463.98773,61,119,0
464.28772,464.95438,73,101,0
464.28772,464.95438,69,101,0
464.28772,464.95438,64,101,0
464.95438,465.28772,78,101,0
464.95438,465.28772,73,101,0
464.95438,465.28772,69,101,0
465.28772,465.32104,81,101,0
465.28772,465.32104,78,101,0
465.28772,465.32104,73,101,0
465.62106,465.6544,78,101,0
465.62106,465.6544,73,101,0
465.62106,465.6544,69,101,0
465.95438,465.98773,69,101,0
465.95438,465.98773,66,101,0
466.28772,466.95438,74,101,0
466.28772,466.95438,71,101,0
466.28772,466.95438,66,101,0
466.95438,467.28772,79,101,0
466.95438,467.28772,74,101,0
466.95438,467.28772,71,101,0
467.28772,467.32104,83,101,0
467.28772,467.32104,79,101,0
467.28772,467.32104,74,101,0
467.62106,467.6544,79,101,0
467.62106,467.6544,74,101,0
467.62106,467.6544,71,101,0
467.95438,467.9877,71,101,0
467.95438,467.9877,67,101,0
468.28772,468.95438,81,101,0
468.28772,468.95438,69,101,0
468.28772,468.95438,73,101,0
468.28772,468.95438,79,101,0
468.95438,469.53772,81,114,0
468.95438,469.53772,69,114,0
468.95438,469.53772,73,114,0
468.95438,469.53772,79,114,0
469.53772,469.54883,81,114,0
469.53772,469.54883,79,114,0
469.53772,469.54883,73,114,0
469.62106,469.64606,81,114,0
469.62106,469.64606,79,114,0
469.62106,469.64606,73,114,0
469.87106,469.88217,81,114,0
469.87106,469.88217,79,114,0
469.87106,469.88217,73,114,0
469.95438,469.97937,83,114,0
469.95438,469.97937,79,114,0
469.95438,469.97937,73,114,0
470.20438,470.21548,85,114,0
470.20438,470.21548,79,114,0
470.20438,470.21548,73,114,0
470.28772,470.95438,86,114,0
470.28772,470.95438,78,114,0
470.28772,470.95438,74,114,0
470.95438,471.53772,86,114,0
470.95438,471.53772,78,114,0
470.95438,471.53772,74,114,0
471.87103,471.88217,81,36,0
471.87103,471.88217,78,36,0
471.95438,471.97937,81,36,0
471.95438,471.97937,78,36,0
472.20438,472.21548,81,36,0
472.20438,472.21548,78,36,0
472.28772,472.3127,80,36,0
472.28772,472.3127,77,36,0
472.53772,472.54883,81,36,0
472.53772,472.54883,78,36,0
472.62103,473.28772,78,62,0
472.62103,473.28772,74,54,0
473.28772,473.87103,78,62,0
473.28772,473.87103,74,54,0
473.87103,473.88214,78,36,0
473.87103,473.88214,74,36,0
473.95438,473.97937,78,36,0
473.95438,473.97937,74,36,0
474.20438,474.21548,78,36,0
474.20438,474.21548,74,36,0
474.28772,474.3127,77,36,0
474.28772,474.3127,73,36,0
474.53772,474.54883,78,36,0
474.53772,474.54883,74,36,0
474.62103,475.28772,81,62,0
474.62103,475.28772,78,54,0
475.28772,475.87103,79,62,0
475.28772,475.87103,76,54,0
475.87103,475.88214,81,36,0
475.87103,475.88214,79,36,0
475.87103,475.88214,76,36,0
475.95438,475.97937,81,36,0
475.95438,475.97937,79,36,0
475.95438,475.97937,76,36,0
476.20438,476.21548,81,36,0
476.20438,476.21548,79,36,0
476.20438,476.21548,76,36,0
476.28772,476.3127,81,36,0
476.28772,476.3127,78,36,0
476.28772,476.3127,75,36,0
476.53772,476.54883,81,36,0
476.53772,476.54883,79,36,0
476.53772,476.54883,76,36,0
476.62103,477.28772,81,62,0
476.62103,477.28772,76,57,0
476.62103,477.28772,73,52,0
477.28772,477.87103,81,62,0
477.28772,477.87103,76,57,0
477.28772,477.87103,73,52,0
477.87103,477.95438,81,36,0
477.87103,477.95438,76,36,0
477.87103,477.95438,73,36,0
477.95438,478.20438,81,36,0
477.95438,478.20438,76,36,0
477.95438,478.20438,73,36,0
478.20438,478.28772,81,36,0
478.20438,478.28772,76,36,0
478.20438,478.28772,73,36,0
478.28772,478.53772,81,36,0
478.28772,478.53772,74,36,0
478.28772,478.53772,71,36,0
478.53772,478.62103,81,36,0
478.53772,478.62103,76,36,0
478.53772,478.62103,73,36,0
478.62103,479.28772,81,62,0
478.62103,479.28772,77,57,0
478.62103,479.28772,73,52,0
479.28772,479.87103,81,36,0
479.28772,479.87103,78,36,0
479.28772,479.87103,74,36,0
479.87103,479.95438,81,36,0
479.87103,479.95438,78,36,0
479.87103,479.95438,74,36,0
479.95438,480.20438,81,36,0
479.95438,480.20438,78,36,0
479.95438,480.20438,74,36,0
480.20438,480.2877,81,36,0
480.20438,480.2877,78,36,0
480.20438,480.2877,74,36,0
480.2877,480.5377,80,36,0
480.2877,480.5377,78,36,0
480.2877,480.5377,74,36,0
480.5377,480.62103,81,36,0
480.5377,480.62103,78,36,0
480.5377,480.62103,74,36,0
480.62103,481.2877,83,62,0
480.62103,481.2877,78,57,0
480.62103,481.2877,74,52,0
481.2877,481.87103,83,36,0
481.2877,481.87103,78,36,0
481.2877,481.87103,74,36,0
481.87103,481.95438,83,36,0
481.87103,481.95438,78,36,0
481.87103,481.95438,74,36,0
481.95438,482.20438,83,36,0
481.95438,482.20438,78,36,0
481.95438,482.20438,74,36,0
482.20438,482.2877,86,36,0
482.20438,482.2877,78,36,0
482.20438,482.2877,74,36,0
482.2877,482.5377,85,36,0
482.2877,482.5377,78,36,0
482.2877,482.5377,74,36,0
482.5377,482.62103,83,36,0
482.5377,482.62103,78,36,0
482.5377,482.62103,74,36,0
482.62103,483.2877,81,36,0
482.62103,483.2877,78,36,0
482.62103,483.2877,74,36,0
483.2877,483.87103,81,36,0
483.2877,483.87103,78,36,0
483.2877,483.87103,74,36,0
483.87103,483.95438,81,36,0
483.87103,483.95438,78,36,0
483.87103,483.95438,74,36,0
483.95438,484.20438,81,36,0
483.95438,484.20438,78,36,0
483.95438,484.20438,74,36,0
484.20438,484.2877,81,36,0
484.20438,484.2877,78,36,0
484.20438,484.2877,74,36,0
484.2877,484.5377,83,36,0
484.2877,484.5377,79,36,0
484.2877,484.5377,74,36,0
484.5377,484.62103,81,36,0
484.5377,484.62103,78,36,0
484.5377,484.62103,74,36,0
484.62103,485.2877,81,36,0
484.62103,485.2877,78,36,0
484.62103,485.2877,73,36,0
485.2877,485.87103,79,36,0
485.2877,485.87103,76,36,0
485.2877,485.87103,73,36,0
485.87103,485.95438,79,36,0
485.87103,485.95438,76,36,0
485.87103,485.95438,69,36,0
485.95438,486.20438,79,36,0
485.95438,486.20438,76,36,0
485.95438,486.20438,69,36,0
486.20438,486.2877,79,36,0
486.20438,486.2877,76,36,0
486.20438,486.2877,69,36,0
486.2877,486.5377,78,36,0
486.2877,486.5377,74,36,0
486.2877,486.5377,69,36,0
486.5377,486.62103,76,36,0
486.5377,486.62103,73,36,0
486.5377,486.62103,69,36,0
486.62103,487.2877,74,36,0
486.62103,487.2877,69,36,0
486.62103,487.2877,66,36,0
487.2877,487.62103,74,36,0
487.2877,487.62103,69,36,0
487.2877,487.62103,66,36,0
487.87244,487.95718,79,36,0
487.87244,487.95718,76,36,0
487.87244,487.95718,69,36,0
487.95718,488.21732,79,36,0
487.95718,488.21732,76,36,0
487.95718,488.21732,69,36,0
488.21732,488.30505,79,36,0
488.21732,488.30505,76,36,0
488.21732,488.30505,69,36,0
488.30505,488.57614,78,36,0
488.30505,488.57614,74,36,0
488.30505,488.57614,69,36,0
488.57614,488.6676,76,36,0
488.57614,488.6676,73,36,0
488.57614,488.6676,69,36,0
488.6676,489.43344,74,36,0
488.6676,489.43344,69,36,0
488.6676,489.43344,66,36,0
489.43344,489.82303,74,36,0
489.43344,489.82303,69,36,0
489.43344,489.82303,66,36,0
490.11523,490.21265,79,36,0
490.11523,490.21265,76,36,0
490.11523,490.21265,69,36,0
490.21265,490.50485,79,36,0
490.21265,490.50485,76,36,0
490.21265,490.50485,69,36,0
490.50485,490.60226,79,36,0
490.50485,490.60226,76,36,0
490.50485,490.60226,69,36,0
490.60226,490.89447,78,36,0
490.60226,490.89447,74,36,0
490.60226,490.89447,69,36,0
490.89447,490.99188,76,36,0
490.89447,490.99188,73,36,0
490.89447,490.99188,69,36,0
490.99188,491.7711,74,36,0
490.99188,491.7711,69,36,0
490.99188,491.7711,66,36,0
491.7711,492.1607,74,36,0
491.7711,492.1607,69,36,0
491.7711,492.1607,66,36,0
492.5503,492.58926,74,36,0
492.5503,492.58926,69,36,0
492.5503,492.58926,66,36,0
492.9399,492.97888,69,36,0
492.9399,492.97888,66,36,0
493.32953,494.10873,74,62,0
493.32953,494.10873,69,57,0
493.32953,494.10873,66,52,0
494.10873,494.1477,74,36,0
494.10873,494.1477,69,36,0
494.10873,494.1477,66,36,0
494.88797,494.92694,74,36,0
494.88797,494.92694,69,36,0
494.88797,494.92694,66,36,0
495.2776,495.31653,69,36,0
495.2776,495.31653,66,36,0
495.66718,495.70615,74,36,0
495.66718,495.70615,69,36,0
495.66718,495.70615,66,36,0
496.83603,496.87497,74,36,0
496.83603,496.87497,69,36,0
496.83603,496.87497,66,36,0
498.00485,499.5633,74,36,0
498.00485,499.5633,69,36,0
498.00485,499.5633,66,36,0
2.0833313,2.4166644,57,64,0
2.4166644,2.7499971,57,64,0
4.083329,4.416662,64,64,0
4.416662,4.749995,64,64,0
16.41665,16.749983,78,36,0
16.749983,17.083317,78,36,0
18.416649,18.74998,77,36,0
18.74998,19.083315,77,36,0
20.333313,20.458313,57,88,0
20.333313,20.458313,55,88,0
20.333313,20.458313,49,88,0
20.458313,20.624979,57,88,0
20.458313,20.624979,55,88,0
20.458313,20.624979,49,88,0
20.624979,20.708313,57,88,0
20.624979,20.708313,55,88,0
20.624979,20.708313,49,88,0
20.708313,20.958313,59,88,0
20.708313,20.958313,55,88,0
20.708313,20.958313,49,88,0
20.958313,21.041645,61,88,0
20.958313,21.041645,55,88,0
20.958313,21.041645,49,88,0
22.416645,22.749977,54,101,0
22.749977,23.083311,54,101,0
36.74996,37.083298,73,36,0
37.083298,37.41663,73,36,0
37.41663,38.083294,74,36,0
38.083294,38.41663,74,36,0
38.74996,39.083294,74,36,0
39.083294,39.416626,74,36,0
40.666626,40.67774,57,101,0
40.749958,40.77496,57,101,0
40.999958,41.01107,57,101,0
41.083294,41.10829,55,101,0
41.33329,41.344402,57,101,0
41.416626,42.08329,61,114,0
41.416626,42.08329,52,114,0
41.416626,42.08329,55,114,0
41.416626,42.08329,58,114,0
42.08329,42.58329,61,114,0
42.08329,42.58329,52,114,0
42.08329,42.58329,55,114,0
42.08329,42.58329,58,114,0
70.20627,70.289604,46,88,0
70.289604,70.539604,46,114,0
70.539604,70.62293,46,88,0
70.62293,70.87293,46,88,0
70.87293,70.95627,48,88,0
70.95627,71.20627,50,88,0
71.20627,71.2896,62,88,0
71.20627,71.2896,50,88,0
71.2896,71.5396,62,114,0
71.2896,71.5396,50,106,0
71.5396,71.62293,62,88,0
71.5396,71.62293,50,88,0
71.62293,71.87293,62,88,0
71.62293,71.87293,50,88,0
71.87293,71.95627,64,88,0
71.87293,71.95627,52,88,0
71.95627,72.20627,65,88,0
71.95627,72.20627,53,88,0
72.20627,72.2896,53,88,0
72.2896,72.5396,53,114,0
72.5396,72.62293,53,101,0
72.62293,72.87293,53,101,0
72.87293,72.95627,55,101,0
119.45044,119.463425,57,101,0
119.54784,119.57706,57,101,0
119.84004,119.853035,57,101,0
119.93745,119.96667,55,101,0
120.22965,120.242645,57,101,0
120.32706,120.99372,61,114,0
120.32706,120.99372,52,114,0
120.32706,120.99372,55,114,0
120.32706,120.99372,58,114,0
120.99372,121.49372,61,114,0
120.99372,121.49372,52,114,0
120.99372,121.49372,55,114,0
120.99372,121.49372,58,114,0
149.1167,149.20003,46,88,0
149.20003,149.45003,46,114,0
149.45003,149.53337,46,88,0
149.53337,149.78337,46,88,0
149.78337,149.8667,48,88,0
149.8667,150.1167,50,88,0
150.1167,150.20003,62,88,0
150.1167,150.20003,50,88,0
150.20003,150.45003,62,114,0
150.20003,150.45003,50,106,0
150.45003,150.53337,62,88,0
150.45003,150.53337,50,88,0
150.53337,150.78337,62,88,0
150.53337,150.78337,50,88,0
150.78337,150.8667,64,88,0
150.78337,150.8667,52,88,0
150.8667,151.1167,65,88,0
150.8667,151.1167,53,88,0
151.1167,151.20003,53,88,0
151.20003,151.45003,53,114,0
151.45003,151.53337,53,101,0
151.53337,151.78337,53,101,0
151.78337,151.8667,55,101,0
358.58365,358.917,57,101,0
358.917,359.2503,57,101,0
360.58365,360.917,64,101,0
360.917,361.2503,64,101,0
372.91696,373.2503,78,36,0
373.2503,373.58365,78,36,0
374.91696,375.2503,77,36,0
375.2503,375.58365,77,36,0
376.83365,376.95865,57,88,0
376.83365,376.95865,55,88,0
376.83365,376.95865,49,88,0
376.95865,377.1253,57,88,0
376.95865,377.1253,55,88,0
376.95865,377.1253,49,88,0
377.1253,377.20865,57,88,0
377.1253,377.20865,55,88,0
377.1253,377.20865,49,88,0
377.20865,377.45862,59,88,0
377.20865,377.45862,55,88,0
377.20865,377.45862,49,88,0
377.45862,377.54196,61,88,0
377.45862,377.54196,55,88,0
377.45862,377.54196,49,88,0
378.91696,379.2503,54,101,0
379.2503,379.58362,54,101,0
393.25027,393.58362,73,36,0
393.58362,393.91696,73,36,0
393.91696,394.58362,74,36,0
394.58362,394.91696,74,36,0
395.25027,395.58362,74,36,0
395.58362,395.91696,74,36,0
397.16696,397.17807,57,101,0
397.25027,397.27527,57,101,0
397.50027,397.51138,57,101,0
397.58362,397.6086,55,101,0
397.83362,397.84473,57,101,0
397.91693,398.58362,61,114,0
397.91693,398.58362,52,114,0
397.91693,398.58362,55,114,0
397.91693,398.58362,58,114,0
398.58362,399.08362,61,114,0
398.58362,399.08362,52,114,0
398.58362,399.08362,55,114,0
398.58362,399.08362,58,114,0
426.53775,426.6211,46,88,0
426.6211,426.8711,46,114,0
426.8711,426.95444,46,88,0
426.95444,427.20444,46,88,0
427.20444,427.28775,48,88,0
427.28775,427.53775,50,88,0
427.53775,427.6211,62,88,0
427.53775,427.6211,50,88,0
427.6211,427.8711,62,114,0
427.6211,427.8711,50,106,0
427.8711,427.95444,62,88,0
427.8711,427.95444,50,88,0
427.95444,428.20444,62,88,0
427.95444,428.20444,50,88,0
428.20444,428.28775,64,88,0
428.20444,428.28775,52,88,0
428.28775,428.53775,65,88,0
428.28775,428.53775,53,88,0
428.53775,428.6211,53,88,0
428.6211,428.8711,53,114,0
428.8711,428.95444,53,101,0
428.95444,429.20444,53,101,0
429.20444,429.28775,55,101,0
0.0,0.08333325,45,88,0
0.0,0.08333325,33,88,0
0.08333325,0.333333,45,88,0
0.08333325,0.333333,33,88,0
0.333333,0.41666624,45,88,0
0.333333,0.41666624,33,88,0
0.41666624,0.666666,47,88,0
0.41666624,0.666666,35,88,0
0.666666,0.7499992,49,88,0
0.666666,0.7499992,37,88,0
0.7499992,1.4166652,50,101,0
0.7499992,1.4166652,45,101,0
0.7499992,1.4166652,38,101,0
1.4166652,2.0833313,50,101,0
1.4166652,2.0833313,45,101,0
1.4166652,2.0833313,38,101,0
2.0833313,2.4166644,50,101,0
2.0833313,2.4166644,38,101,0
2.4166644,2.7499971,54,101,0
2.4166644,2.7499971,42,101,0
2.7499971,3.4166632,49,101,0
2.7499971,3.4166632,45,101,0
2.7499971,3.4166632,37,101,0
3.4166632,4.083329,49,101,0
3.4166632,4.083329,45,101,0
3.4166632,4.083329,37,101,0
4.083329,4.416662,49,101,0
4.083329,4.416662,37,101,0
4.416662,4.749995,49,101,0
4.416662,4.749995,37,101,0
4.749995,5.4166613,47,101,0
4.749995,5.4166613,42,101,0
4.749995,5.4166613,35,101,0
5.4166613,5.7499943,42,101,0
5.4166613,5.916661,47,101,0
5.4166613,5.916661,35,101,0
5.916661,5.933327,52,101,0
5.916661,5.933327,40,101,0
6.0833273,6.0999937,52,101,0
6.0833273,6.0999937,40,101,0
6.249994,6.26666,52,101,0
6.249994,6.26666,40,101,0
6.4166603,6.4333267,52,101,0
6.4166603,6.4333267,40,101,0
6.583327,6.599993,52,101,0
6.583327,6.599993,40,101,0
6.7499933,7.4166594,45,101,0
6.7499933,7.4166594,33,101,0
7.4166594,7.7499924,52,101,0
7.4166594,7.7499924,45,101,0
7.7499924,8.083325,45,101,0
7.7499924,8.083325,40,101,0
7.7499924,8.083325,33,101,0
8.416658,8.749991,66,36,0
8.749991,9.083324,62,36,0
9.083324,9.416657,67,36,0
9.416657,9.74999,71,36,0
9.74999,10.0833235,76,36,0
10.0833235,10.2499895,61,36,0
10.4166565,10.7499895,73,36,0
10.7499895,11.083323,67,36,0
11.083323,11.416656,66,36,0
11.416656,11.749989,69,36,0
11.749989,12.083322,74,36,0
12.083322,12.249988,59,36,0
12.416655,12.749988,71,36,0
12.749988,13.083321,66,36,0
13.083321,13.416654,64,36,0
13.416654,13.749987,67,36,0
13.749987,14.08332,73,62,0
14.416653,14.749986,64,36,0
14.749986,15.083319,65,36,0
15.083319,15.749984,73,62,0
15.083319,15.749984,66,54,0
15.749984,16.249983,73,62,0
15.749984,16.249983,66,54,0
16.41665,16.449984,73,36,0
16.41665,16.449984,66,36,0
16.749983,16.783316,73,36,0
16.749983,16.783316,66,36,0
17.083317,17.749983,71,62,0
17.083317,17.749983,61,54,0
17.749983,18.416649,71,62,0
17.749983,18.416649,61,54,0
18.416649,18.449982,71,36,0
18.416649,18.449982,61,36,0
18.74998,18.783314,71,36,0
18.74998,18.783314,61,36,0
19.083315,19.74998,70,62,0
19.083315,19.74998,66,54,0
19.74998,20.333313,70,62,0
19.74998,20.333313,66,54,0
25.08331,25.749973,48,101,0
25.08331,25.749973,36,101,0
25.749973,26.249973,47,101,0
25.749973,26.249973,35,101,0
26.249973,26.26664,46,101,0
26.249973,26.26664,34,101,0
26.41664,26.433308,46,101,0
26.41664,26.433308,34,101,0
26.583307,26.599974,46,101,0
26.583307,26.599974,34,101,0
26.749973,26.76664,46,101,0
26.749973,26.76664,34,101,0
26.91664,26.933306,46,101,0
26.91664,26.933306,34,101,0
27.083305,27.749971,45,101,0
27.083305,27.749971,33,101,0
27.749971,28.416637,52,101,0
27.749971,28.416637,45,101,0
28.749971,29.083303,61,36,0
29.083303,29.416637,57,36,0
29.416637,29.74997,62,36,0
29.74997,30.083303,66,36,0
30.083303,30.416636,71,62,0
30.416636,30.583303,56,36,0
30.74997,31.083302,68,36,0
31.083302,31.416636,62,36,0
31.416636,31.749968,61,36,0
31.749968,32.0833,64,36,0
32.0833,32.416634,69,62,0
32.416634,32.5833,54,36,0
32.749966,33.0833,66,36,0
33.0833,33.416634,61,36,0
33.416634,33.749966,59,36,0
33.749966,34.083298,62,36,0
34.083298,34.416634,68,62,0
34.416634,34.583298,47,36,0
34.749966,35.083298,59,36,0
35.083298,35.41663,60,36,0
35.41663,36.083298,68,62,0
35.41663,36.083298,61,54,0
36.083298,36.74996,68,36,0
36.083298,36.74996,61,36,0
36.74996,36.783295,68,36,0
36.74996,36.783295,61,36,0
37.083298,37.11663,68,36,0
37.083298,37.11663,61,36,0
37.41663,38.083294,68,62,0
37.41663,38.083294,64,57,0
37.41663,38.083294,59,52,0
38.083294,38.66663,68,62,0
38.083294,38.66663,64,57,0
38.083294,38.66663,59,52,0
38.66663,38.74996,68,36,0
38.74996,38.99996,69,36,0
38.99996,39.083294,68,36,0
39.083294,39.333294,69,36,0
39.333294,39.416626,71,36,0
39.416626,40.083294,64,36,0
39.416626,40.083294,57,36,0
40.083294,40.666626,64,36,0
40.083294,40.666626,57,36,0
40.666626,40.67774,45,88,0
40.749958,40.77496,45,88,0
40.999958,41.01107,45,88,0
41.083294,41.10829,43,88,0
41.33329,41.344402,45,88,0
41.416626,42.08329,46,101,0
41.416626,42.08329,34,101,0
42.08329,42.666622,46,101,0
42.08329,42.666622,34,101,0
42.666622,42.677734,57,101,0
42.749958,42.774956,57,101,0
42.999958,43.011066,57,101,0
43.08329,43.10829,55,101,0
43.33329,43.344402,57,101,0
43.416622,44.08329,58,101,0
43.416622,44.08329,53,101,0
43.416622,44.08329,46,101,0
44.08329,44.666622,58,101,0
44.08329,44.666622,53,101,0
44.08329,44.666622,46,101,0
44.666622,44.677734,65,101,0
44.666622,44.677734,62,101,0
44.749954,44.774956,65,127,0
44.749954,44.774956,62,119,0
44.999954,45.011066,65,101,0
44.999954,45.011066,62,101,0
45.08329,45.108288,64,101,0
45.08329,45.108288,61,101,0
45.333286,45.3444,65,101,0
45.333286,45.3444,62,101,0
45.416622,45.44162,62,127,0
45.416622,45.44162,58,119,0
45.666622,45.67773,62,101,0
45.666622,45.67773,58,101,0
45.749954,45.774956,61,101,0
45.749954,45.774956,57,101,0
45.999954,46.011066,62,101,0
45.999954,46.011066,58,101,0
46.083286,46.108288,58,127,0
46.083286,46.108288,55,119,0
46.333286,46.3444,58,101,0
46.333286,46.3444,55,101,0
46.41662,46.44162,57,101,0
46.41662,46.44162,54,101,0
46.66662,46.67773,58,101,0
46.66662,46.67773,55,101,0
46.749954,47.41662,55,101,0
46.749954,47.41662,51,101,0
47.41662,48.083286,50,101,0
47.41662,48.083286,38,101,0
48.083286,48.74995,48,101,0
48.083286,48.74995,36,101,0
48.74995,48.783283,53,127,0
48.74995,48.783283,41,119,0
49.083282,49.11662,53,127,0
49.083282,49.11662,41,119,0
49.41662,50.083282,46,101,0
49.41662,50.083282,34,101,0
50.083282,50.666615,53,101,0
50.083282,50.666615,46,101,0
51.416615,51.449947,46,36,0
51.749947,51.783283,53,62,0
52.083282,52.116615,62,36,0
52.083282,52.116615,58,36,0
52.416615,52.449947,46,36,0
52.749947,52.78328,53,62,0
53.08328,53.116615,62,36,0
53.08328,53.116615,58,36,0
53.416615,53.449947,45,36,0
53.749947,53.78328,53,62,0
54.08328,54.11661,63,36,0
54.08328,54.11661,60,36,0
54.41661,54.449947,45,36,0
54.749947,54.78328,53,62,0
55.08328,55.11661,63,36,0
55.08328,55.11661,60,36,0
55.41661,55.449944,41,36,0
55.749943,55.78328,53,36,0
56.08328,56.11661,63,36,0
56.08328,56.11661,60,36,0
56.41661,56.449944,41,36,0
56.749943,56.783276,53,36,0
57.083275,57.116608,63,36,0
57.083275,57.116608,60,36,0
57.41661,57.449944,46,36,0
57.749943,57.783276,53,62,0
58.083275,58.116608,62,36,0
58.083275,58.116608,58,36,0
58.416607,58.44994,46,36,0
58.749943,58.783276,53,62,0
59.083275,59.116608,62,36,0
59.083275,59.116608,58,36,0
59.416607,59.44994,43,36,0
59.74994,59.78327,55,36,0
60.083275,60.116608,62,36,0
60.083275,60.116608,58,36,0
60.416607,60.74994,43,36,0
60.74994,61.08327,55,36,0
61.08327,61.416607,62,36,0
61.08327,61.416607,58,36,0
61.416607,61.74994,46,36,0
61.74994,62.08327,53,36,0
62.08327,62.416603,62,36,0
62.08327,62.416603,58,36,0
62.416603,62.74994,46,36,0
62.74994,63.08327,53,36,0
63.08327,63.416603,62,36,0
63.08327,63.416603,58,36,0
63.416603,63.749935,41,36,0
63.749935,64.08327,48,36,0
64.08327,64.4166,63,36,0
64.08327,64.4166,60,36,0
64.4166,64.74994,41,36,0
64.74994,65.08327,48,36,0
65.08327,65.4166,63,36,0
65.08327,65.4166,60,36,0
65.4166,65.75276,46,36,0
65.75276,66.10061,50,36,0
66.10061,66.46318,58,36,0
66.10061,66.46318,53,36,0
66.46318,66.839386,41,36,0
66.839386,67.229,51,36,0
67.229,67.61861,57,36,0
67.229,67.61861,53,36,0
67.61861,68.00822,46,36,0
68.00822,68.39783,50,36,0
68.39783,68.78744,58,36,0
68.39783,68.78744,53,36,0
68.78744,69.17705,41,36,0
69.17705,69.56666,51,36,0
69.56666,69.95627,57,36,0
69.56666,69.95627,53,36,0
69.95627,70.20627,46,36,0
70.20627,70.289604,34,75,0
70.289604,70.539604,34,101,0
70.539604,70.62293,34,75,0
70.62293,70.87293,34,75,0
70.87293,70.95627,36,75,0
70.95627,71.20627,38,75,0
71.20627,71.2896,38,75,0
71.2896,71.5396,38,101,0
71.5396,71.62293,38,75,0
71.62293,71.87293,38,75,0
71.87293,71.95627,40,75,0
71.95627,72.20627,41,75,0
72.20627,72.2896,41,75,0
72.2896,72.5396,41,101,0
72.5396,72.62293,41,88,0
72.62293,72.87293,41,88,0
72.87293,72.95627,43,88,0
72.95627,73.20627,45,88,0
73.20627,73.2896,45,88,0
73.20627,73.2896,33,88,0
73.2896,73.5396,45,114,0
73.2896,73.5396,33,106,0
73.5396,73.62293,47,88,0
73.5396,73.62293,35,88,0
73.62293,73.87293,49,88,0
73.62293,73.87293,37,88,0
73.87293,73.95626,50,88,0
73.87293,73.95626,38,88,0
73.95626,74.62293,52,101,0
73.95626,74.62293,40,101,0
73.95626,74.62293,45,101,0
73.95626,74.62293,49,101,0
74.62293,75.20626,52,101,0
74.62293,75.20626,40,101,0
74.62293,75.20626,45,101,0
74.62293,75.20626,49,101,0
75.20626,75.2896,52,101,0
75.20626,75.2896,40,101,0
75.2896,75.5396,52,101,0
75.2896,75.5396,40,101,0
75.5396,75.62293,50,101,0
75.5396,75.62293,38,101,0
75.62293,75.87293,49,101,0
75.62293,75.87293,37,101,0
75.87293,75.95626,47,101,0
75.87293,75.95626,35,101,0
75.95626,76.622925,45,101,0
75.95626,76.622925,33,101,0
76.622925,77.20626,45,101,0
76.622925,77.20626,40,101,0
76.622925,77.20626,33,101,0
77.20626,77.21737,45,36,0
77.2896,77.31459,47,36,0
77.5396,77.550705,45,36,0
77.622925,77.64793,47,36,0
77.872925,77.88404,49,36,0
77.95626,78.622925,50,62,0
78.622925,79.20626,54,36,0
78.622925,79.20626,50,36,0
79.20626,79.21737,50,36,0
79.28959,79.31459,50,36,0
79.28959,79.31459,47,36,0
79.53959,79.550705,50,36,0
79.53959,79.550705,47,36,0
79.622925,79.64793,50,36,0
79.622925,79.64793,46,36,0
79.872925,79.88403,50,36,0
79.872925,79.88403,46,36,0
79.95626,80.622925,52,62,0
79.95626,80.622925,45,54,0
80.622925,81.20626,57,62,0
80.622925,81.20626,45,54,0
81.20626,81.21737,57,36,0
81.20626,81.21737,49,36,0
81.28959,81.31459,57,36,0
81.28959,81.31459,49,36,0
81.53959,81.5507,57,36,0
81.53959,81.5507,49,36,0
81.622925,81.64793,57,36,0
81.622925,81.64793,49,36,0
81.872925,81.88403,57,36,0
81.872925,81.88403,49,36,0
81.95625,82.622925,59,62,0
81.95625,82.622925,54,57,0
81.95625,82.622925,47,52,0
82.622925,83.20625,59,62,0
82.622925,83.20625,50,54,0
83.20625,83.28959,59,36,0
83.20625,83.28959,50,36,0
83.28959,83.31459,59,36,0
83.28959,83.31459,52,36,0
83.53959,83.5507,59,36,0
83.53959,83.5507,52,36,0
83.622925,83.64792,59,36,0
83.622925,83.64792,52,36,0
83.872925,83.88403,59,36,0
83.872925,83.88403,52,36,0
83.95625,84.62292,57,62,0
83.95625,84.62292,52,57,0
83.95625,84.62292,45,52,0
84.62292,85.28959,57,62,0
84.62292,85.28959,52,57,0
84.62292,85.28959,45,52,0
85.28959,85.32292,50,88,0
85.62292,85.65625,49,88,0
85.95625,86.06736,47,114,0
86.06458,86.1757,46,114,0
86.178474,86.28959,47,114,0
86.28959,86.400696,43,114,0
86.39792,86.50903,42,114,0
86.51181,86.62292,43,114,0
86.62292,87.20625,40,127,0
87.20625,87.28958,42,114,0
87.28958,87.53958,43,114,0
87.53958,87.62292,45,114,0
87.62292,87.87292,47,114,0
87.87292,87.95625,49,114,0
87.95625,88.06736,45,88,0
88.06458,88.1757,44,88,0
88.178474,88.28958,45,88,0
88.28958,88.400696,42,88,0
88.39792,88.509026,41,88,0
88.5118,88.62292,42,88,0
88.62292,89.206245,38,114,0
89.206245,89.28958,40,88,0
89.28958,89.53958,42,88,0
89.53958,89.62292,43,88,0
89.62292,89.87292,45,88,0
89.87292,89.956245,47,88,0
89.956245,90.06736,43,88,0
90.06458,90.17569,42,88,0
90.17847,90.28958,43,88,0
90.28958,90.400696,40,88,0
90.39791,90.509026,39,88,0
90.5118,90.62292,40,88,0
90.62292,91.206245,37,114,0
91.206245,91.28958,38,88,0
91.28958,91.53958,40,88,0
91.53958,91.62291,37,88,0
91.62291,91.87291,41,88,0
91.87291,91.956245,37,88,0
91.956245,92.62291,42,101,0
92.62291,93.206245,42,101,0
93.206245,93.217354,46,101,0
93.28958,93.314575,47,101,0
93.53958,93.55069,46,101,0
93.62291,93.64791,47,101,0
93.87291,93.884026,46,101,0
93.956245,94.62291,49,101,0
93.956245,94.62291,44,101,0
94.62291,95.206245,49,101,0
94.62291,95.206245,44,101,0
95.206245,95.217354,49,101,0
95.206245,95.217354,44,101,0
95.28957,95.314575,49,101,0
95.28957,95.314575,46,101,0
95.53957,95.55069,49,101,0
95.53957,95.55069,44,101,0
95.62291,95.64791,49,101,0
95.62291,95.64791,46,101,0
95.87291,95.88402,49,101,0
95.87291,95.88402,44,101,0
95.956245,96.62291,49,101,0
95.956245,96.62291,42,101,0
96.62291,97.20624,49,101,0
96.62291,97.20624,42,101,0
97.20624,97.217354,57,36,0
97.28957,97.314575,57,36,0
97.53957,97.55068,57,36,0
97.62291,97.6479,59,36,0
97.87291,97.88402,61,36,0
97.95624,98.62291,62,62,0
98.62291,99.20624,62,62,0
99.20624,99.28957,62,36,0
99.28957,99.53957,62,36,0
99.53957,99.6229,62,36,0
99.6229,99.8729,62,36,0
99.6229,99.8729,59,36,0
99.8729,99.95624,62,36,0
99.8729,99.95624,59,36,0
99.95624,100.6229,64,62,0
99.95624,100.6229,57,54,0
100.6229,101.20624,61,62,0
100.6229,101.20624,57,54,0
101.20624,101.28957,61,36,0
101.20624,101.28957,54,36,0
101.28957,101.53957,61,36,0
101.28957,101.53957,54,36,0
101.53957,101.6229,61,36,0
101.53957,101.6229,54,36,0
101.6229,101.8729,62,36,0
101.6229,101.8729,54,36,0
101.8729,101.95624,64,36,0
101.8729,101.95624,54,36,0
101.95624,102.6229,62,62,0
101.95624,102.6229,55,54,0
102.6229,103.20624,59,62,0
102.6229,103.20624,55,54,0
103.20624,103.289566,45,36,0
103.289566,103.539566,45,36,0
103.539566,103.6229,45,36,0
103.6229,103.8729,45,36,0
103.8729,103.95624,45,36,0
103.95624,104.6229,50,62,0
104.6229,105.289566,50,62,0
105.289566,105.3229,50,88,0
105.6229,105.656235,49,88,0
105.95623,106.067345,47,114,0
106.06457,106.175674,46,114,0
106.17845,106.289566,47,114,0
106.289566,106.40067,43,114,0
106.397896,106.50901,42,114,0
106.51179,106.6229,43,114,0
106.6229,107.20623,40,127,0
107.20623,107.289566,42,114,0
107.289566,107.539566,43,114,0
107.539566,107.622894,45,114,0
107.622894,107.872894,47,114,0
107.872894,107.95623,49,114,0
107.95623,108.067345,49,114,0
108.06456,108.175674,48,114,0
108.17845,108.289566,49,114,0
108.289566,108.40067,45,114,0
108.397896,108.50901,44,114,0
108.51179,108.622894,45,114,0
108.622894,109.20623,42,114,0
109.20623,109.289566,44,114,0
109.289566,109.53956,45,114,0
109.53956,109.622894,47,114,0
109.622894,109.872894,49,114,0
109.872894,109.95623,52,114,0
109.95623,110.06734,50,114,0
110.06456,110.175674,49,114,0
110.17845,110.28956,50,114,0
110.28956,110.40067,47,114,0
110.397896,110.509,46,114,0
110.51178,110.622894,47,114,0
110.622894,111.20623,43,114,0
111.20623,111.28956,45,114,0
111.28956,111.53956,47,114,0
111.53956,111.622894,49,114,0
111.622894,111.872894,50,114,0
111.872894,111.95622,54,114,0
111.95622,112.622894,52,88,0
112.622894,113.20622,57,101,0
112.622894,113.20622,52,101,0
113.20622,113.21734,57,101,0
113.20622,113.21734,45,101,0
113.28956,113.31456,57,101,0
113.28956,113.31456,45,101,0
113.53956,113.55067,55,101,0
113.53956,113.55067,43,101,0
113.622894,113.64789,54,101,0
113.622894,113.64789,42,101,0
113.872894,113.884,52,101,0
113.872894,113.884,40,101,0
113.95622,114.62289,50,101,0
113.95622,114.62289,45,101,0
113.95622,114.62289,38,101,0
114.62289,115.20622,50,101,0
114.62289,115.20622,45,101,0
114.62289,115.20622,38,101,0
115.95622,116.62289,55,62,0
115.95622,116.62289,49,57,0
115.95622,116.62289,45,52,0
116.62289,117.29238,55,62,0
116.62289,117.29238,49,57,0
116.62289,117.29238,45,52,0
118.0028,118.768616,50,62,0
118.0028,118.768616,45,57,0
118.0028,118.768616,38,52,0
118.768616,119.45044,50,62,0
118.768616,119.45044,45,57,0
118.768616,119.45044,38,52,0
119.45044,119.463425,45,88,0
119.54784,119.57706,45,88,0
119.84004,119.853035,45,88,0
119.93745,119.96667,43,88,0
120.22965,120.242645,45,88,0
120.32706,120.99372,46,101,0
120.32706,120.99372,34,101,0
120.99372,121.57706,46,101,0
120.99372,121.57706,34,101,0
121.57706,121.588165,57,101,0
121.66039,121.68539,57,101,0
121.91039,121.9215,57,101,0
121.99372,122.01872,55,101,0
122.24372,122.25484,57,101,0
122.32706,122.99372,58,101,0
122.32706,122.99372,53,101,0
122.32706,122.99372,46,101,0
122.99372,123.57706,58,101,0
122.99372,123.57706,53,101,0
122.99372,123.57706,46,101,0
123.57706,123.588165,65,101,0
123.57706,123.588165,62,101,0
123.660385,123.68539,65,127,0
123.660385,123.68539,62,119,0
123.910385,123.9215,65,101,0
123.910385,123.9215,62,101,0
123.99372,124.01872,64,101,0
123.99372,124.01872,61,101,0
124.24372,124.25483,65,101,0
124.24372,124.25483,62,101,0
124.32706,124.35205,62,127,0
124.32706,124.35205,58,119,0
124.57706,124.588165,62,101,0
124.57706,124.588165,58,101,0
124.660385,124.68539,61,101,0
124.660385,124.68539,57,101,0
124.910385,124.9215,62,101,0
124.910385,124.9215,58,101,0
124.99372,125.01872,58,127,0
124.99372,125.01872,55,119,0
125.24372,125.25483,58,101,0
125.24372,125.25483,55,101,0
125.32706,125.35205,57,101,0
125.32706,125.35205,54,101,0
125.57705,125.588165,58,101,0
125.57705,125.588165,55,101,0
125.660385,126.32705,55,101,0
125.660385,126.32705,51,101,0
126.32705,126.99372,50,101,0
126.32705,126.99372,38,101,0
126.99372,127.660385,48,101,0
126.99372,127.660385,36,101,0
127.660385,127.69372,53,127,0
127.660385,127.69372,41,119,0
127.99372,128.02705,53,127,0
127.99372,128.02705,41,119,0
128.32706,128.99371,46,101,0
128.32706,128.99371,34,101,0
128.99371,129.57704,53,101,0
128.99371,129.57704,46,101,0
130.32704,130.36038,46,36,0
130.66039,130.69371,53,62,0
130.99371,131.02705,62,36,0
130.99371,131.02705,58,36,0
131.32704,131.36038,46,36,0
131.66039,131.69371,53,62,0
131.99371,132.02705,62,36,0
131.99371,132.02705,58,36,0
132.32704,132.36038,45,36,0
132.66039,132.69371,53,62,0
132.99371,133.02704,63,36,0
132.99371,133.02704,60,36,0
133.32704,133.36038,45,36,0
133.66039,133.69371,53,62,0
133.99371,134.02704,63,36,0
133.99371,134.02704,60,36,0
134.32704,134.36038,41,36,0
134.66037,134.69371,53,36,0
134.99371,135.02704,63,36,0
134.99371,135.02704,60,36,0
135.32704,135.36038,41,36,0
135.66037,135.69371,53,36,0
135.99371,136.02704,63,36,0
135.99371,136.02704,60,36,0
136.32704,136.36038,46,36,0
136.66037,136.69371,53,62,0
136.99371,137.02704,62,36,0
136.99371,137.02704,58,36,0
137.32704,137.36038,46,36,0
137.66037,137.69371,53,62,0
137.99371,138.02704,62,36,0
137.99371,138.02704,58,36,0
138.32704,138.36037,43,36,0
138.66037,138.69371,55,36,0
138.99371,139.02704,62,36,0
138.99371,139.02704,58,36,0
139.32704,139.66037,43,36,0
139.66037,139.9937,55,36,0
139.9937,140.32704,62,36,0
139.9937,140.32704,58,36,0
140.32704,140.66037,46,36,0
140.66037,140.9937,53,36,0
140.9937,141.32704,62,36,0
140.9937,141.32704,58,36,0
141.32704,141.66037,46,36,0
141.66037,141.9937,53,36,0
141.9937,142.32704,62,36,0
141.9937,142.32704,58,36,0
142.32704,142.66037,41,36,0
142.66037,142.9937,48,36,0
142.9937,143.32704,63,36,0
142.9937,143.32704,60,36,0
143.32704,143.66037,41,36,0
143.66037,143.9937,48,36,0
143.9937,144.32704,63,36,0
143.9937,144.32704,60,36,0
144.32704,144.6632,46,36,0
144.6632,145.01105,50,36,0
145.01105,145.37361,58,36,0
145.01105,145.37361,53,36,0
145.37361,145.74982,41,36,0
145.74982,146.13943,51,36,0
146.13943,146.52904,57,36,0
146.13943,146.52904,53,36,0
146.52904,146.91866,46,36,0
146.91866,147.30826,50,36,0
147.30826,147.69788,58,36,0
147.30826,147.69788,53,36,0
147.69788,148.08748,41,36,0
148.08748,148.4771,51,36,0
148.4771,148.8667,57,36,0
148.4771,148.8667,53,36,0
148.8667,149.1167,46,36,0
149.1167,149.20003,34,75,0
149.20003,149.45003,34,101,0
149.45003,149.53337,34,75,0
149.53337,149.78337,34,75,0
149.78337,149.8667,36,75,0
149.8667,150.1167,38,75,0
150.1167,150.20003,38,75,0
150.20003,150.45003,38,101,0
150.45003,150.53337,38,75,0
150.53337,150.78337,38,75,0
150.78337,150.8667,40,75,0
150.8667,151.1167,41,75,0
151.1167,151.20003,41,75,0
151.20003,151.45003,41,101,0
151.45003,151.53337,41,88,0
151.53337,151.78337,41,88,0
151.78337,151.8667,43,88,0
151.8667,152.1167,45,88,0
152.1167,152.20003,45,88,0
152.1167,152.20003,33,88,0
152.20003,152.45003,45,114,0
152.20003,152.45003,33,106,0
152.45003,152.53337,47,88,0
152.45003,152.53337,35,88,0
152.53337,152.78337,49,88,0
152.53337,152.78337,37,88,0
152.78337,152.8667,50,88,0
152.78337,152.8667,38,88,0
152.8667,153.53336,52,101,0
152.8667,153.53336,40,101,0
152.8667,153.53336,45,101,0
152.8667,153.53336,49,101,0
153.53336,154.1167,52,101,0
153.53336,154.1167,40,101,0
153.53336,154.1167,45,101,0
153.53336,154.1167,49,101,0
154.1167,154.20003,52,101,0
154.1167,154.20003,40,101,0
154.20003,154.45003,52,101,0
154.20003,154.45003,40,101,0
154.45003,154.53336,50,101,0
154.45003,154.53336,38,101,0
154.53336,154.78336,49,101,0
154.53336,154.78336,37,101,0
154.78336,154.8667,47,101,0
154.78336,154.8667,35,101,0
154.8667,155.53336,45,101,0
154.8667,155.53336,33,101,0
155.53336,156.1167,45,101,0
155.53336,156.1167,40,101,0
155.53336,156.1167,33,101,0
156.1167,156.1278,45,36,0
156.20003,156.22502,47,36,0
156.45003,156.46114,45,36,0
156.53336,156.55836,47,36,0
156.78336,156.79446,49,36,0
156.8667,157.53336,50,62,0
157.53336,158.1167,54,36,0
157.53336,158.1167,50,36,0
158.1167,158.1278,50,36,0
158.20003,158.22502,50,36,0
158.20003,158.22502,47,36,0
158.45003,158.46114,50,36,0
158.45003,158.46114,47,36,0
158.53336,158.55836,50,36,0
158.53336,158.55836,46,36,0
158.78336,158.79446,50,36,0
158.78336,158.79446,46,36,0
158.86668,159.53336,52,62,0
158.86668,159.53336,45,54,0
159.53336,160.11668,57,62,0
159.53336,160.11668,45,54,0
160.11668,160.1278,57,36,0
160.11668,160.1278,49,36,0
160.20003,160.22502,57,36,0
160.20003,160.22502,49,36,0
160.45003,160.46114,57,36,0
160.45003,160.46114,49,36,0
160.53336,160.55835,57,36,0
160.53336,160.55835,49,36,0
160.78336,160.79446,57,36,0
160.78336,160.79446,49,36,0
160.86668,161.53336,59,62,0
160.86668,161.53336,54,57,0
160.86668,161.53336,47,52,0
161.53336,162.11668,59,62,0
161.53336,162.11668,50,54,0
162.11668,162.20003,59,36,0
162.11668,162.20003,50,36,0
162.20003,162.22502,59,36,0
162.20003,162.22502,52,36,0
162.45003,162.46114,59,36,0
162.45003,162.46114,52,36,0
162.53336,162.55835,59,36,0
162.53336,162.55835,52,36,0
162.78336,162.79446,59,36,0
162.78336,162.79446,52,36,0
162.86668,163.53336,57,62,0
162.86668,163.53336,52,57,0
162.86668,163.53336,45,52,0
163.53336,164.20001,57,62,0
163.53336,164.20001,52,57,0
163.53336,164.20001,45,52,0
164.20001,164.23335,50,88,0
164.53336,164.56668,49,88,0
164.86668,164.9778,47,114,0
164.97502,165.08614,46,114,0
165.08891,165.20001,47,114,0
165.20001,165.31113,43,114,0
165.30835,165.41946,42,114,0
165.42224,165.53336,43,114,0
165.53336,166.11668,40,127,0
166.11668,166.20001,42,114,0
166.20001,166.45001,43,114,0
166.45001,166.53336,45,114,0
166.53336,166.78336,47,114,0
166.78336,166.86668,49,114,0
166.86668,166.9778,45,88,0
166.97502,167.08612,44,88,0
167.0889,167.20001,45,88,0
167.20001,167.31113,42,88,0
167.30835,167.41946,41,88,0
167.42224,167.53336,42,88,0
167.53336,168.11668,38,114,0
168.11668,168.20001,40,88,0
168.20001,168.45001,42,88,0
168.45001,168.53336,43,88,0
168.53336,168.78334,45,88,0
168.78334,168.86668,47,88,0
168.86668,168.9778,43,88,0
168.97502,169.08612,42,88,0
169.0889,169.20001,43,88,0
169.20001,169.31113,40,88,0
169.30835,169.41946,39,88,0
169.42224,169.53334,40,88,0
169.53334,170.11668,37,114,0
170.11668,170.20001,38,88,0
170.20001,170.45001,40,88,0
170.45001,170.53334,37,88,0
170.53334,170.78334,41,88,0
170.78334,170.86668,37,88,0
170.86668,171.53334,42,101,0
171.53334,172.11668,42,101,0
172.11668,172.12779,46,101,0
172.20001,172.225,47,101,0
172.45001,172.46112,46,101,0
172.53334,172.55835,47,101,0
172.78334,172.79445,46,101,0
172.86668,173.53334,49,101,0
172.86668,173.53334,44,101,0
173.53334,174.11667,49,101,0
173.53334,174.11667,44,101,0
174.11667,174.12779,49,101,0
174.11667,174.12779,44,101,0
174.20001,174.225,49,101,0
174.20001,174.225,46,101,0
174.45001,174.46112,49,101,0
174.45001,174.46112,44,101,0
174.53334,174.55835,49,101,0
174.53334,174.55835,46,101,0
174.78334,174.79445,49,101,0
174.78334,174.79445,44,101,0
174.86667,175.53334,49,101,0
174.86667,175.53334,42,101,0
175.53334,176.11667,49,101,0
175.53334,176.11667,42,101,0
176.11667,176.12779,57,36,0
176.20001,176.225,57,36,0
176.45001,176.46112,57,36,0
176.53334,176.55833,59,36,0
176.78334,176.79445,61,36,0
176.86667,177.53334,62,62,0
177.53334,178.11667,62,62,0
178.11667,178.20001,62,36,0
178.20001,178.45001,62,36,0
178.45001,178.53334,62,36,0
178.53334,178.78334,62,36,0
178.53334,178.78334,59,36,0
178.78334,178.86667,62,36,0
178.78334,178.86667,59,36,0
178.86667,179.53334,64,62,0
178.86667,179.53334,57,54,0
179.53334,180.11667,61,62,0
179.53334,180.11667,57,54,0
180.11667,180.2,61,36,0
180.11667,180.2,54,36,0
180.2,180.45,61,36,0
180.2,180.45,54,36,0
180.45,180.53334,61,36,0
180.45,180.53334,54,36,0
180.53334,180.78334,62,36,0
180.53334,180.78334,54,36,0
180.78334,180.86667,64,36,0
180.78334,180.86667,54,36,0
180.86667,181.53334,62,62,0
180.86667,181.53334,55,54,0
181.53334,182.11667,59,62,0
181.53334,182.11667,55,54,0
182.11667,182.2,45,36,0
182.2,182.45,45,36,0
182.45,182.53334,45,36,0
182.53334,182.78334,45,36,0
182.78334,182.86667,45,36,0
182.86667,183.53334,50,62,0
183.53334,184.2,50,62,0
184.2,184.23334,50,88,0
184.53333,184.56667,49,88,0
184.86667,184.97778,47,114,0
184.975,185.0861,46,114,0
185.08888,185.2,47,114,0
185.2,185.31111,43,114,0
185.30833,185.41945,42,114,0
185.42223,185.53333,43,114,0
185.53333,186.11667,40,127,0
186.11667,186.2,42,114,0
186.2,186.45,43,114,0
186.45,186.53333,45,114,0
186.53333,186.78333,47,114,0
186.78333,186.86667,49,114,0
186.86667,186.97777,49,114,0
186.97499,187.0861,48,114,0
187.08888,187.2,49,114,0
187.2,187.31111,45,114,0
187.30833,187.41943,44,114,0
187.42221,187.53333,45,114,0
187.53333,188.11667,42,114,0
188.11667,188.2,44,114,0
188.2,188.45,45,114,0
188.45,188.53333,47,114,0
188.53333,188.78333,49,114,0
188.78333,188.86667,52,114,0
188.86667,188.97777,50,114,0
188.97499,189.0861,49,114,0
189.08888,189.2,50,114,0
189.2,189.31111,47,114,0
189.30833,189.41943,46,114,0
189.42221,189.53333,47,114,0
189.53333,190.11665,43,114,0
190.11665,190.2,45,114,0
190.2,190.45,47,114,0
190.45,190.53333,49,114,0
190.53333,190.78333,50,114,0
190.78333,190.86665,54,114,0
190.86665,191.53333,52,88,0
191.53333,192.11665,57,101,0
191.53333,192.11665,52,101,0
192.11665,192.12776,57,101,0
192.11665,192.12776,45,101,0
192.2,192.22499,57,101,0
192.2,192.22499,45,101,0
192.45,192.4611,55,101,0
192.45,192.4611,43,101,0
192.53333,192.55832,54,101,0
192.53333,192.55832,42,101,0
192.78333,192.79443,52,101,0
192.78333,192.79443,40,101,0
192.86665,193.53333,50,101,0
192.86665,193.53333,45,101,0
192.86665,193.53333,38,101,0
193.53333,194.11665,50,101,0
193.53333,194.11665,45,101,0
193.53333,194.11665,38,101,0
194.86665,195.53333,55,62,0
194.86665,195.53333,49,57,0
194.86665,195.53333,45,52,0
195.53333,196.20282,55,62,0
195.53333,196.20282,49,57,0
195.53333,196.20282,45,52,0
196.91324,197.67905,50,62,0
196.91324,197.67905,45,57,0
196.91324,197.67905,38,52,0
197.67905,198.06866,50,62,0
197.67905,198.06866,45,57,0
197.67905,198.06866,38,52,0
198.45827,198.84789,50,36,0
198.84789,199.23749,50,36,0
199.23749,200.01671,55,75,0
199.23749,200.01671,50,75,0
199.23749,200.01671,43,75,0
200.01671,200.40633,55,36,0
200.01671,200.40633,50,36,0
200.01671,200.40633,43,36,0
200.40633,200.79593,55,36,0
200.40633,200.79593,50,36,0
200.40633,200.79593,43,36,0
200.79593,201.18555,55,36,0
200.79593,201.18555,50,36,0
200.79593,201.18555,43,36,0
201.18555,201.57515,55,36,0
201.18555,201.57515,50,36,0
201.18555,201.57515,43,36,0
201.57515,201.96477,55,36,0
201.57515,201.96477,50,36,0
201.57515,201.96477,43,36,0
201.96477,202.35437,60,36,0
201.96477,202.35437,50,36,0
201.96477,202.35437,48,36,0
202.35437,202.74399,59,36,0
202.35437,202.74399,50,36,0
202.35437,202.74399,47,36,0
202.74399,203.13359,59,62,0
202.74399,203.13359,50,62,0
202.74399,203.13359,47,62,0
203.13359,203.52321,59,62,0
203.13359,203.52321,50,62,0
203.13359,203.52321,47,62,0
203.52321,203.91281,59,62,0
203.52321,203.91281,50,62,0
203.52321,203.91281,47,62,0
203.91281,204.30241,59,36,0
203.91281,204.30241,50,36,0
203.91281,204.30241,47,36,0
204.30241,204.69203,54,36,0
204.30241,204.69203,50,36,0
204.30241,204.69203,42,36,0
204.69203,205.08163,57,36,0
204.69203,205.08163,50,36,0
204.69203,205.08163,45,36,0
205.08163,205.47125,57,36,0
205.08163,205.47125,50,36,0
205.08163,205.47125,45,36,0
205.47125,205.86086,55,36,0
205.47125,205.86086,50,36,0
205.47125,205.86086,43,36,0
205.86086,206.25047,54,36,0
205.86086,206.25047,50,36,0
205.86086,206.25047,42,36,0
206.25047,206.64008,54,62,0
206.25047,206.64008,50,57,0
206.25047,206.64008,42,52,0
206.64008,207.0297,55,36,0
206.64008,207.0297,50,36,0
206.64008,207.0297,43,36,0
207.0297,207.4193,55,36,0
207.0297,207.4193,50,36,0
207.0297,207.4193,43,36,0
207.4193,207.80891,55,36,0
207.4193,207.80891,50,36,0
207.4193,207.80891,43,36,0
207.80891,208.19852,54,36,0
207.80891,208.19852,50,36,0
207.80891,208.19852,42,36,0
208.19852,208.58813,52,36,0
208.19852,208.58813,50,36,0
208.19852,208.58813,40,36,0
208.58813,209.36736,50,75,0
208.58813,209.36736,38,75,0
209.36736,209.75696,50,36,0
209.36736,209.75696,38,36,0
209.75696,210.14658,50,36,0
209.75696,210.14658,38,36,0
210.14658,210.53618,50,36,0
210.14658,210.53618,38,36,0
210.53618,210.9258,52,36,0
210.53618,210.9258,50,36,0
210.53618,210.9258,40,36,0
210.9258,211.3154,54,62,0
210.9258,211.3154,50,62,0
210.9258,211.3154,42,62,0
211.3154,211.70502,57,62,0
211.3154,211.70502,54,62,0
211.3154,211.70502,45,62,0
211.70502,212.09462,62,62,0
211.70502,212.09462,57,62,0
211.70502,212.09462,50,62,0
212.09462,212.48424,62,75,0
212.09462,212.48424,57,75,0
212.09462,212.48424,50,75,0
212.48424,212.87384,62,75,0
212.48424,212.87384,57,75,0
212.48424,212.87384,50,75,0
212.87384,213.26346,62,75,0
212.87384,213.26346,57,75,0
212.87384,213.26346,50,75,0
213.26346,213.65306,61,101,0
213.26346,213.65306,58,101,0
213.26346,213.65306,49,101,0
213.65306,214.04268,61,88,0
213.65306,214.04268,58,88,0
213.65306,214.04268,49,88,0
214.04268,214.43228,61,75,0
214.04268,214.43228,58,75,0
214.04268,214.43228,49,75,0
214.43228,214.82188,61,62,0
214.43228,214.82188,58,62,0
214.43228,214.82188,49,62,0
214.82188,215.2115,61,49,0
214.82188,215.2115,58,49,0
214.82188,215.2115,49,49,0
215.2115,215.6011,61,36,0
215.2115,215.6011,58,36,0
215.2115,215.6011,49,36,0
215.6011,215.99072,62,36,0
215.6011,215.99072,57,36,0
215.6011,215.99072,50,36,0
215.99072,216.38033,64,36,0
215.99072,216.38033,57,36,0
215.99072,216.38033,52,36,0
216.38033,216.76994,66,36,0
216.38033,216.76994,57,36,0
216.38033,216.76994,54,36,0
217.15955,217.54916,59,36,0
217.15955,217.54916,47,36,0
217.54916,217.93877,57,36,0
217.54916,217.93877,45,36,0
217.93877,218.32838,54,36,0
217.93877,218.32838,42,36,0
218.32838,219.1076,57,62,0
218.32838,219.1076,45,54,0
219.1076,219.49721,62,36,0
219.1076,219.49721,57,36,0
219.1076,219.49721,50,36,0
219.49721,219.88683,62,36,0
219.49721,219.88683,57,36,0
219.49721,219.88683,50,36,0
219.88683,220.27643,50,36,0
220.27643,220.66605,50,36,0
220.66605,221.44527,55,75,0
220.66605,221.44527,50,75,0
220.66605,221.44527,43,75,0
221.44527,221.83487,55,36,0
221.44527,221.83487,50,36,0
221.44527,221.83487,43,36,0
221.83487,222.22449,55,36,0
221.83487,222.22449,50,36,0
221.83487,222.22449,43,36,0
222.22449,222.61409,55,36,0
222.22449,222.61409,50,36,0
222.22449,222.61409,43,36,0
222.61409,223.00371,55,36,0
222.61409,223.00371,50,36,0
222.61409,223.00371,43,36,0
223.00371,223.39331,55,36,0
223.00371,223.39331,50,36,0
223.00371,223.39331,43,36,0
223.39331,223.78293,60,36,0
223.39331,223.78293,50,36,0
223.39331,223.78293,48,36,0
223.78293,224.17253,59,36,0
223.78293,224.17253,50,36,0
223.78293,224.17253,47,36,0
224.17253,224.56213,59,62,0
224.17253,224.56213,50,62,0
224.17253,224.56213,47,62,0
224.56213,224.95175,59,62,0
224.56213,224.95175,50,62,0
224.56213,224.95175,47,62,0
224.95175,225.34135,59,62,0
224.95175,225.34135,50,62,0
224.95175,225.34135,47,62,0
225.34135,225.73097,59,36,0
225.34135,225.73097,50,36,0
225.34135,225.73097,47,36,0
225.73097,226.12057,54,36,0
225.73097,226.12057,50,36,0
225.73097,226.12057,42,36,0
226.12057,226.5102,57,36,0
226.12057,226.5102,50,36,0
226.12057,226.5102,45,36,0
226.5102,226.8998,57,36,0
226.5102,226.8998,50,36,0
226.5102,226.8998,45,36,0
226.8998,227.28941,55,36,0
226.8998,227.28941,50,36,0
226.8998,227.28941,43,36,0
227.28941,227.67902,54,36,0
227.28941,227.67902,50,36,0
227.28941,227.67902,42,36,0
227.67902,228.06863,54,62,0
227.67902,228.06863,50,57,0
227.67902,228.06863,42,52,0
228.06863,228.45824,55,36,0
228.06863,228.45824,50,36,0
228.06863,228.45824,43,36,0
228.45824,228.84785,55,36,0
228.45824,228.84785,50,36,0
228.45824,228.84785,43,36,0
228.84785,229.23746,55,36,0
228.84785,229.23746,50,36,0
228.84785,229.23746,43,36,0
229.23746,229.62708,54,36,0
229.23746,229.62708,50,36,0
229.23746,229.62708,42,36,0
229.62708,230.01668,52,36,0
229.62708,230.01668,50,36,0
229.62708,230.01668,40,36,0
230.01668,230.7959,50,75,0
230.01668,230.7959,38,75,0
230.7959,231.18552,50,36,0
230.7959,231.18552,38,36,0
231.18552,231.57512,50,36,0
231.18552,231.57512,38,36,0
231.57512,231.96474,50,36,0
231.57512,231.96474,38,36,0
231.96474,232.35434,52,36,0
231.96474,232.35434,50,36,0
231.96474,232.35434,40,36,0
232.35434,232.74396,54,62,0
232.35434,232.74396,50,62,0
232.35434,232.74396,42,62,0
232.74396,233.13356,57,62,0
232.74396,233.13356,54,62,0
232.74396,233.13356,45,62,0
233.13356,233.52318,62,62,0
233.13356,233.52318,57,62,0
233.13356,233.52318,50,62,0
233.52318,233.91278,62,75,0
233.52318,233.91278,57,75,0
233.52318,233.91278,50,75,0
233.91278,234.3024,62,75,0
233.91278,234.3024,57,75,0
233.91278,234.3024,50,75,0
234.3024,234.692,62,75,0
234.3024,234.692,57,75,0
234.3024,234.692,50,75,0
234.692,235.0816,61,101,0
234.692,235.0816,58,101,0
234.692,235.0816,49,101,0
235.0816,235.47122,61,88,0
235.0816,235.47122,58,88,0
235.0816,235.47122,49,88,0
235.47122,235.86082,61,75,0
235.47122,235.86082,58,75,0
235.47122,235.86082,49,75,0
235.86082,236.25044,61,62,0
235.86082,236.25044,58,62,0
235.86082,236.25044,49,62,0
236.25044,236.64005,61,49,0
236.25044,236.64005,58,49,0
236.25044,236.64005,49,49,0
236.64005,237.02966,61,36,0
236.64005,237.02966,58,36,0
236.64005,237.02966,49,36,0
237.02966,237.41927,62,36,0
237.02966,237.41927,57,36,0
237.02966,237.41927,50,36,0
237.41927,237.80888,64,36,0
237.41927,237.80888,57,36,0
237.41927,237.80888,52,36,0
237.80888,238.19849,66,36,0
237.80888,238.19849,57,36,0
237.80888,238.19849,54,36,0
238.5881,238.9777,59,36,0
238.5881,238.9777,47,36,0
238.9777,239.36732,57,36,0
238.9777,239.36732,45,36,0
239.36732,239.75693,54,36,0
239.36732,239.75693,42,36,0
239.75693,240.53615,57,62,0
239.75693,240.53615,45,54,0
240.53615,240.92577,62,36,0
240.53615,240.92577,57,36,0
240.53615,240.92577,50,36,0
240.92577,241.31537,62,36,0
240.92577,241.31537,57,36,0
240.92577,241.31537,50,36,0
241.31537,241.70499,62,36,0
241.31537,241.70499,50,36,0
241.70499,242.09459,62,36,0
241.70499,242.09459,50,36,0
242.09459,242.87381,60,75,0
242.09459,242.87381,55,75,0
242.09459,242.87381,48,75,0
242.87381,243.26343,60,75,0
242.87381,243.26343,55,75,0
242.87381,243.26343,48,75,0
243.26343,243.65303,60,75,0
243.26343,243.65303,55,75,0
243.26343,243.65303,48,75,0
243.65303,244.04265,60,75,0
243.65303,244.04265,55,75,0
243.65303,244.04265,48,75,0
244.04265,244.43225,60,75,0
244.04265,244.43225,55,75,0
244.04265,244.43225,48,75,0
244.43225,244.82185,60,75,0
244.43225,244.82185,55,75,0
244.43225,244.82185,48,75,0
244.82185,245.21147,55,75,0
244.82185,245.21147,43,75,0
245.21147,245.60107,52,75,0
245.21147,245.60107,43,75,0
245.21147,245.60107,40,75,0
245.60107,245.99069,52,88,0
245.60107,245.99069,43,88,0
245.60107,245.99069,40,88,0
245.99069,246.3803,55,88,0
245.99069,246.3803,43,88,0
246.3803,246.76991,60,88,0
246.3803,246.76991,55,88,0
246.3803,246.76991,48,88,0
246.76991,247.54913,63,101,0
246.76991,247.54913,58,101,0
246.76991,247.54913,51,101,0
247.54913,247.93874,63,101,0
247.54913,247.93874,58,101,0
247.54913,247.93874,51,101,0
247.93874,248.32835,63,101,0
247.93874,248.32835,58,101,0
247.93874,248.32835,51,101,0
248.32835,248.71796,63,101,0
248.32835,248.71796,58,101,0
248.32835,248.71796,51,101,0
248.71796,249.10757,63,101,0
248.71796,249.10757,58,101,0
248.71796,249.10757,51,101,0
249.10757,249.49718,63,101,0
249.10757,249.49718,58,101,0
249.10757,249.49718,51,101,0
249.49718,249.8868,58,101,0
249.49718,249.8868,46,101,0
249.8868,250.2764,55,101,0
249.8868,250.2764,46,101,0
249.8868,250.2764,43,101,0
250.2764,250.66602,55,101,0
250.2764,250.66602,46,101,0
250.2764,250.66602,43,101,0
250.66602,251.05562,58,101,0
250.66602,251.05562,46,101,0
251.05562,251.44524,63,101,0
251.05562,251.44524,58,101,0
251.05562,251.44524,51,101,0
251.44524,252.22446,54,101,0
251.44524,252.22446,49,101,0
251.44524,252.22446,42,101,0
252.22446,252.61406,54,101,0
252.22446,252.61406,49,101,0
252.22446,252.61406,42,101,0
252.61406,253.00368,54,101,0
252.61406,253.00368,49,101,0
252.61406,253.00368,42,101,0
253.00368,253.39328,54,101,0
253.00368,253.39328,49,101,0
253.00368,253.39328,42,101,0
253.39328,253.7829,54,101,0
253.39328,253.7829,49,101,0
253.39328,253.7829,42,101,0
253.7829,254.1725,54,101,0
253.7829,254.1725,49,101,0
253.7829,254.1725,42,101,0
254.1725,254.56212,49,101,0
254.1725,254.56212,37,101,0
254.56212,254.95172,46,101,0
254.56212,254.95172,34,101,0
254.95172,255.34132,54,101,0
254.95172,255.34132,42,101,0
255.34132,255.73094,56,101,0
255.34132,255.73094,54,101,0
255.34132,255.73094,44,101,0
255.73094,256.12054,58,101,0
255.73094,256.12054,54,101,0
255.73094,256.12054,46,101,0
256.12054,256.89978,59,101,0
256.12054,256.89978,54,101,0
256.12054,256.89978,47,101,0
256.89978,257.28937,59,101,0
256.89978,257.28937,54,101,0
256.89978,257.28937,47,101,0
257.28937,257.679,59,101,0
257.28937,257.679,54,101,0
257.28937,257.679,47,101,0
257.679,258.0686,59,101,0
257.679,258.0686,54,101,0
257.679,258.0686,47,101,0
258.0686,258.45822,59,101,0
258.0686,258.45822,54,101,0
258.0686,258.45822,47,101,0
258.45822,259.23743,43,101,0
258.45822,259.23743,31,101,0
259.23743,259.62704,43,101,0
259.23743,259.62704,31,101,0
259.62704,260.01666,47,88,0
259.62704,260.01666,35,88,0
260.01666,260.40625,50,88,0
260.01666,260.40625,38,88,0
260.40625,260.79587,55,88,0
260.40625,260.79587,43,88,0
260.79587,261.5751,48,62,0
260.79587,261.5751,36,62,0
261.5751,261.9647,48,62,0
261.5751,261.9647,36,62,0
261.9647,262.3543,48,49,0
261.9647,262.3543,36,49,0
262.3543,262.74393,48,49,0
262.3543,262.74393,36,49,0
262.74393,263.13354,48,49,0
262.74393,263.13354,36,49,0
263.13354,263.91275,48,36,0
263.13354,263.91275,36,36,0
263.91275,264.30237,48,36,0
263.91275,264.30237,36,36,0
264.30237,265.08157,48,36,0
264.30237,265.08157,36,36,0
265.08157,265.4712,48,36,0
265.08157,265.4712,36,36,0
265.4712,266.2504,48,36,0
265.4712,266.2504,36,36,0
266.2504,266.64,48,36,0
266.2504,266.64,36,36,0
266.64,267.41925,48,36,0
266.64,267.41925,36,36,0
267.41925,267.80884,48,36,0
267.41925,267.80884,36,36,0
267.80884,268.58807,48,36,0
267.80884,268.58807,36,36,0
268.58807,268.9777,48,36,0
268.58807,268.9777,36,36,0
268.9777,269.36728,48,36,0
268.9777,269.36728,36,36,0
269.36728,269.7569,48,36,0
269.36728,269.7569,36,36,0
269.7569,270.1465,48,36,0
269.7569,270.1465,36,36,0
270.1465,270.92572,48,36,0
270.1465,270.92572,36,36,0
270.92572,271.31534,48,36,0
270.92572,271.31534,36,36,0
271.31534,271.70496,48,36,0
271.31534,271.70496,36,36,0
271.70496,272.09457,48,36,0
271.70496,272.09457,36,36,0
272.09457,272.48416,48,36,0
272.09457,272.48416,36,36,0
272.48416,273.2634,47,36,0
272.48416,273.2634,35,36,0
273.2634,273.653,47,36,0
273.653,274.0426,47,36,0
274.0426,274.43222,47,36,0
274.43222,274.82184,47,36,0
274.43222,274.82184,45,36,0
274.82184,275.21146,55,36,0
274.82184,275.21146,47,36,0
274.82184,275.21146,43,36,0
275.21146,275.60104,60,36,0
275.21146,275.60104,50,36,0
275.21146,275.60104,48,36,0
275.60104,275.99066,59,36,0
275.60104,275.99066,50,36,0
275.60104,275.99066,47,36,0
275.99066,276.38028,59,36,0
275.99066,276.38028,50,36,0
275.99066,276.38028,47,36,0
276.38028,276.76987,59,36,0
276.38028,276.76987,50,36,0
276.38028,276.76987,47,36,0
276.76987,277.1595,59,36,0
276.76987,277.1595,50,36,0
276.76987,277.1595,47,36,0
277.1595,277.5491,59,62,0
277.1595,277.5491,50,57,0
277.1595,277.5491,47,52,0
277.5491,277.93872,54,36,0
277.5491,277.93872,50,36,0
277.5491,277.93872,42,36,0
277.93872,278.3283,57,36,0
277.93872,278.3283,50,36,0
277.93872,278.3283,45,36,0
278.3283,278.71793,57,36,0
278.3283,278.71793,50,36,0
278.3283,278.71793,45,36,0
278.71793,279.10754,55,36,0
278.71793,279.10754,50,36,0
278.71793,279.10754,43,36,0
279.10754,279.49716,54,36,0
279.10754,279.49716,50,36,0
279.10754,279.49716,42,36,0
279.49716,279.88675,54,62,0
279.49716,279.88675,50,57,0
279.49716,279.88675,42,52,0
279.88675,280.27637,55,36,0
279.88675,280.27637,50,36,0
279.88675,280.27637,43,36,0
280.27637,280.666,55,36,0
280.27637,280.666,50,36,0
280.27637,280.666,43,36,0
280.666,281.0556,55,36,0
280.666,281.0556,50,36,0
280.666,281.0556,43,36,0
281.0556,281.4452,55,36,0
281.0556,281.4452,50,36,0
281.0556,281.4452,43,36,0
281.4452,281.8348,57,36,0
281.4452,281.8348,50,36,0
281.4452,281.8348,45,36,0
281.8348,282.61404,59,75,0
281.8348,282.61404,50,75,0
281.8348,282.61404,47,75,0
282.61404,283.00363,59,36,0
282.61404,283.00363,50,36,0
282.61404,283.00363,47,36,0
283.00363,283.39325,59,36,0
283.00363,283.39325,50,36,0
283.00363,283.39325,47,36,0
283.39325,283.78287,57,36,0
283.39325,283.78287,50,36,0
283.39325,283.78287,45,36,0
283.78287,284.1725,55,36,0
283.78287,284.1725,50,36,0
283.78287,284.1725,43,36,0
284.1725,284.56207,59,62,0
284.1725,284.56207,55,62,0
284.1725,284.56207,47,62,0
284.56207,284.9517,62,62,0
284.56207,284.9517,59,62,0
284.56207,284.9517,50,62,0
284.9517,285.3413,67,62,0
284.9517,285.3413,62,62,0
284.9517,285.3413,55,62,0
285.3413,285.7309,67,88,0
285.3413,285.7309,62,88,0
285.3413,285.7309,55,88,0
285.7309,286.1205,67,88,0
285.7309,286.1205,62,88,0
285.7309,286.1205,55,88,0
286.1205,286.51013,67,88,0
286.1205,286.51013,62,88,0
286.1205,286.51013,55,88,0
286.51013,286.89975,66,101,0
286.51013,286.89975,63,101,0
286.51013,286.89975,54,101,0
286.89975,287.28934,66,101,0
286.89975,287.28934,63,101,0
286.89975,287.28934,54,101,0
287.28934,287.67896,66,88,0
287.28934,287.67896,63,88,0
287.28934,287.67896,54,88,0
287.67896,288.06857,66,75,0
287.67896,288.06857,63,75,0
287.67896,288.06857,54,75,0
288.06857,288.4582,66,62,0
288.06857,288.4582,63,62,0
288.06857,288.4582,54,62,0
288.4582,288.84778,66,49,0
288.4582,288.84778,63,49,0
288.4582,288.84778,54,49,0
288.84778,289.2374,67,36,0
288.84778,289.2374,62,36,0
288.84778,289.2374,55,36,0
289.2374,289.627,69,36,0
289.2374,289.627,62,36,0
289.2374,289.627,57,36,0
289.627,290.01663,71,36,0
289.627,290.01663,62,36,0
289.627,290.01663,59,36,0
290.40622,290.79584,64,36,0
290.40622,290.79584,52,36,0
290.79584,291.18546,62,36,0
290.79584,291.18546,50,36,0
291.18546,291.57507,59,36,0
291.18546,291.57507,50,36,0
291.18546,291.57507,47,36,0
291.57507,292.35428,62,62,0
291.57507,292.35428,50,54,0
292.35428,292.7439,62,36,0
292.35428,292.7439,55,36,0
292.7439,293.1335,62,36,0
292.7439,293.1335,55,36,0
293.1335,293.5231,62,36,0
293.1335,293.5231,50,36,0
293.5231,293.91272,62,36,0
293.5231,293.91272,50,36,0
293.91272,294.69196,60,75,0
293.91272,294.69196,55,75,0
293.91272,294.69196,48,75,0
294.69196,295.08154,60,75,0
294.69196,295.08154,55,75,0
294.69196,295.08154,48,75,0
295.08154,295.47116,60,75,0
295.08154,295.47116,55,75,0
295.08154,295.47116,48,75,0
295.47116,295.86078,60,75,0
295.47116,295.86078,55,75,0
295.47116,295.86078,48,75,0
295.86078,296.25037,60,75,0
295.86078,296.25037,55,75,0
295.86078,296.25037,48,75,0
296.25037,296.63998,60,75,0
296.25037,296.63998,55,75,0
296.25037,296.63998,48,75,0
296.63998,297.0296,55,75,0
296.63998,297.0296,43,75,0
297.0296,297.41922,52,75,0
297.0296,297.41922,43,75,0
297.0296,297.41922,40,75,0
297.41922,297.8088,52,88,0
297.41922,297.8088,43,88,0
297.41922,297.8088,40,88,0
297.8088,298.19843,55,88,0
297.8088,298.19843,43,88,0
298.19843,298.58804,60,88,0
298.19843,298.58804,55,88,0
298.19843,298.58804,48,88,0
298.58804,299.36725,63,101,0
298.58804,299.36725,58,101,0
298.58804,299.36725,51,101,0
299.36725,299.75687,63,101,0
299.36725,299.75687,58,101,0
299.36725,299.75687,51,101,0
299.75687,300.14648,63,101,0
299.75687,300.14648,58,101,0
299.75687,300.14648,51,101,0
300.14648,300.5361,63,101,0
300.14648,300.5361,58,101,0
300.14648,300.5361,51,101,0
300.5361,300.9257,63,101,0
300.5361,300.9257,58,101,0
300.5361,300.9257,51,101,0
300.9257,301.3153,63,101,0
300.9257,301.3153,58,101,0
300.9257,301.3153,51,101,0
301.3153,301.70493,58,101,0
301.3153,301.70493,46,101,0
301.70493,302.09454,55,101,0
301.70493,302.09454,46,101,0
301.70493,302.09454,43,101,0
302.09454,302.48413,55,101,0
302.09454,302.48413,46,101,0
302.09454,302.48413,43,101,0
302.48413,302.87375,58,101,0
302.48413,302.87375,46,101,0
302.87375,303.26337,63,101,0
302.87375,303.26337,58,101,0
302.87375,303.26337,51,101,0
303.26337,304.04257,54,101,0
303.26337,304.04257,49,101,0
303.26337,304.04257,42,101,0
304.04257,304.4322,54,101,0
304.04257,304.4322,49,101,0
304.04257,304.4322,42,101,0
304.4322,304.8218,54,101,0
304.4322,304.8218,49,101,0
304.4322,304.8218,42,101,0
304.8218,305.21143,54,101,0
304.8218,305.21143,49,101,0
304.8218,305.21143,42,101,0
305.21143,305.601,54,101,0
305.21143,305.601,49,101,0
305.21143,305.601,42,101,0
305.601,305.99063,54,101,0
305.601,305.99063,49,101,0
305.601,305.99063,42,101,0
305.99063,306.38025,49,101,0
305.99063,306.38025,37,101,0
306.38025,306.76984,46,101,0
306.38025,306.76984,34,101,0
306.76984,307.15945,54,101,0
306.76984,307.15945,42,101,0
307.15945,307.54907,56,101,0
307.15945,307.54907,54,101,0
307.15945,307.54907,44,101,0
307.54907,307.9387,58,101,0
307.54907,307.9387,54,101,0
307.54907,307.9387,46,101,0
307.9387,308.7179,59,101,0
307.9387,308.7179,54,101,0
307.9387,308.7179,47,101,0
308.7179,309.1075,59,101,0
308.7179,309.1075,54,101,0
308.7179,309.1075,47,101,0
309.1075,309.49713,59,101,0
309.1075,309.49713,54,101,0
309.1075,309.49713,47,101,0
309.49713,309.88672,59,101,0
309.49713,309.88672,54,101,0
309.49713,309.88672,47,101,0
309.88672,310.27634,59,101,0
309.88672,310.27634,54,101,0
309.88672,310.27634,47,101,0
310.27634,311.05557,43,101,0
310.27634,311.05557,31,101,0
311.05557,311.44516,43,101,0
311.05557,311.44516,31,101,0
311.44516,311.83478,47,88,0
311.44516,311.83478,35,88,0
311.83478,312.2244,50,88,0
311.83478,312.2244,38,88,0
312.2244,312.614,55,88,0
312.2244,312.614,43,88,0
312.614,313.39322,48,62,0
312.614,313.39322,36,62,0
313.39322,313.78284,48,62,0
313.39322,313.78284,36,62,0
313.78284,314.17245,48,49,0
313.78284,314.17245,36,49,0
314.17245,314.56204,48,49,0
314.17245,314.56204,36,49,0
314.56204,314.95166,48,49,0
314.56204,314.95166,36,49,0
314.95166,315.7309,48,36,0
314.95166,315.7309,36,36,0
315.7309,316.12048,48,36,0
315.7309,316.12048,36,36,0
316.12048,316.89972,48,36,0
316.12048,316.89972,36,36,0
316.89972,317.2893,48,36,0
316.89972,317.2893,36,36,0
317.2893,318.06854,48,36,0
317.2893,318.06854,36,36,0
318.06854,318.45816,48,36,0
318.06854,318.45816,36,36,0
318.45816,319.23737,48,36,0
318.45816,319.23737,36,36,0
319.23737,319.62698,48,36,0
319.23737,319.62698,36,36,0
319.62698,320.4062,48,36,0
319.62698,320.4062,36,36,0
320.4062,320.7958,48,36,0
320.4062,320.7958,36,36,0
320.7958,321.18542,48,36,0
320.7958,321.18542,36,36,0
321.18542,321.57504,48,36,0
321.18542,321.57504,36,36,0
321.57504,321.96463,48,36,0
321.57504,321.96463,36,36,0
321.96463,322.74387,48,36,0
321.96463,322.74387,36,36,0
322.74387,323.13348,48,36,0
322.74387,323.13348,36,36,0
323.13348,323.52307,48,36,0
323.13348,323.52307,36,36,0
323.52307,323.9127,48,36,0
323.52307,323.9127,36,36,0
323.9127,324.3023,48,36,0
323.9127,324.3023,36,36,0
324.3023,325.0815,47,36,0
324.3023,325.0815,35,36,0
325.0815,325.47113,47,36,0
325.47113,325.86075,47,36,0
325.86075,326.25037,47,36,0
326.25037,326.63995,47,36,0
326.25037,326.63995,45,36,0
326.63995,327.02957,55,36,0
326.63995,327.02957,47,36,0
326.63995,327.02957,43,36,0
327.02957,327.4192,60,36,0
327.02957,327.4192,50,36,0
327.02957,327.4192,48,36,0
327.4192,327.80878,59,36,0
327.4192,327.80878,50,36,0
327.4192,327.80878,47,36,0
327.80878,328.1984,59,36,0
327.80878,328.1984,50,36,0
327.80878,328.1984,47,36,0
328.1984,328.588,59,36,0
328.1984,328.588,50,36,0
328.1984,328.588,47,36,0
328.588,328.97763,59,36,0
328.588,328.97763,50,36,0
328.588,328.97763,47,36,0
328.97763,329.36722,59,62,0
328.97763,329.36722,50,57,0
328.97763,329.36722,47,52,0
329.36722,329.75684,54,36,0
329.36722,329.75684,50,36,0
329.36722,329.75684,42,36,0
329.75684,330.14645,57,36,0
329.75684,330.14645,50,36,0
329.75684,330.14645,45,36,0
330.14645,330.53607,57,36,0
330.14645,330.53607,50,36,0
330.14645,330.53607,45,36,0
330.53607,330.92566,55,36,0
330.53607,330.92566,50,36,0
330.53607,330.92566,43,36,0
330.92566,331.31528,54,36,0
330.92566,331.31528,50,36,0
330.92566,331.31528,42,36,0
331.31528,331.7049,54,62,0
331.31528,331.7049,50,57,0
331.31528,331.7049,42,52,0
331.7049,332.0945,55,36,0
331.7049,332.0945,50,36,0
331.7049,332.0945,43,36,0
332.0945,332.4841,55,36,0
332.0945,332.4841,50,36,0
332.0945,332.4841,43,36,0
332.4841,332.87372,55,36,0
332.4841,332.87372,50,36,0
332.4841,332.87372,43,36,0
332.87372,333.26334,55,36,0
332.87372,333.26334,50,36,0
332.87372,333.26334,43,36,0
333.26334,333.65295,57,36,0
333.26334,333.65295,50,36,0
333.26334,333.65295,45,36,0
333.65295,334.43216,59,75,0
333.65295,334.43216,50,75,0
333.65295,334.43216,47,75,0
334.43216,334.82178,59,36,0
334.43216,334.82178,50,36,0
334.43216,334.82178,47,36,0
334.82178,335.2114,59,36,0
334.82178,335.2114,50,36,0
334.82178,335.2114,47,36,0
335.2114,335.60098,57,36,0
335.2114,335.60098,50,36,0
335.2114,335.60098,45,36,0
335.60098,335.9906,55,36,0
335.60098,335.9906,50,36,0
335.60098,335.9906,43,36,0
335.9906,336.38022,59,62,0
335.9906,336.38022,55,62,0
335.9906,336.38022,47,62,0
336.38022,336.76984,62,62,0
336.38022,336.76984,59,62,0
336.38022,336.76984,50,62,0
336.76984,337.15942,67,62,0
336.76984,337.15942,62,62,0
336.76984,337.15942,55,62,0
337.15942,337.54904,67,88,0
337.15942,337.54904,62,88,0
337.15942,337.54904,55,88,0
337.54904,337.93866,67,88,0
337.54904,337.93866,62,88,0
337.54904,337.93866,55,88,0
337.93866,338.32825,67,88,0
337.93866,338.32825,62,88,0
337.93866,338.32825,55,88,0
338.32825,338.71786,66,101,0
338.32825,338.71786,63,101,0
338.32825,338.71786,54,101,0
338.71786,339.10748,66,101,0
338.71786,339.10748,63,101,0
338.71786,339.10748,54,101,0
339.10748,339.4971,66,88,0
339.10748,339.4971,63,88,0
339.10748,339.4971,54,88,0
339.4971,339.8867,66,75,0
339.4971,339.8867,63,75,0
339.4971,339.8867,54,75,0
339.8867,340.2763,66,62,0
339.8867,340.2763,63,62,0
339.8867,340.2763,54,62,0
340.2763,340.66592,66,49,0
340.2763,340.66592,63,49,0
340.2763,340.66592,54,49,0
340.66592,341.05554,67,36,0
340.66592,341.05554,62,36,0
340.66592,341.05554,55,36,0
341.05554,341.44513,69,36,0
341.05554,341.44513,62,36,0
341.05554,341.44513,57,36,0
341.44513,341.83475,71,36,0
341.44513,341.83475,62,36,0
341.44513,341.83475,59,36,0
342.22437,342.61398,64,36,0
342.22437,342.61398,52,36,0
342.61398,343.00357,62,36,0
342.61398,343.00357,50,36,0
343.00357,343.3932,59,36,0
343.00357,343.3932,50,36,0
343.00357,343.3932,47,36,0
343.3932,344.17242,62,62,0
343.3932,344.17242,50,54,0
344.17242,344.562,62,36,0
344.17242,344.562,55,36,0
344.562,344.95163,62,36,0
344.562,344.95163,55,36,0
344.95163,345.34125,43,49,0
345.34125,345.73087,43,49,0
345.73087,346.51007,43,49,0
346.51007,346.8997,43,49,0
346.8997,347.28928,43,49,0
347.28928,347.4841,43,49,0
347.4841,347.6789,40,49,0
347.6789,347.87372,42,49,0
347.87372,348.0685,43,49,0
348.0685,348.84772,45,49,0
348.84772,349.23734,45,49,0
349.23734,349.62695,45,49,0
349.62695,349.82175,43,49,0
349.82175,350.01657,40,49,0
350.01657,350.21136,42,49,0
350.21136,350.40616,43,49,0
350.40616,351.1854,45,75,0
351.1854,351.575,45,49,0
351.575,351.9646,45,49,0
351.9646,352.15942,43,49,0
352.15942,352.35422,40,49,0
352.35422,352.549,42,49,0
352.549,352.74384,43,49,0
352.74384,353.52304,45,49,0
353.52304,353.91266,45,49,0
353.91266,354.6919,45,49,0
354.6919,355.08148,45,49,0
355.08148,355.86072,45,49,0
355.86072,356.25034,45,49,0
356.25034,356.50034,45,49,0
356.50034,356.58365,45,88,0
356.50034,356.58365,33,88,0
356.58365,356.83365,45,88,0
356.58365,356.83365,33,88,0
356.83365,356.917,45,88,0
356.83365,356.917,33,88,0
356.917,357.167,47,88,0
356.917,357.167,35,88,0
357.167,357.2503,49,88,0
357.167,357.2503,37,88,0
357.2503,357.917,50,101,0
357.2503,357.917,45,101,0
357.2503,357.917,38,101,0
357.917,358.58365,50,101,0
357.917,358.58365,45,101,0
357.917,358.58365,38,101,0
358.58365,358.917,50,101,0
358.58365,358.917,38,101,0
358.917,359.2503,54,101,0
358.917,359.2503,42,101,0
359.2503,359.917,49,101,0
359.2503,359.917,45,101,0
359.2503,359.917,37,101,0
359.917,360.58365,49,101,0
359.917,360.58365,45,101,0
359.917,360.58365,37,101,0
360.58365,360.917,49,101,0
360.58365,360.917,37,101,0
360.917,361.2503,49,101,0
360.917,361.2503,37,101,0
361.2503,361.917,47,101,0
361.2503,361.917,42,101,0
361.2503,361.917,35,101,0
361.917,362.2503,42,101,0
361.917,362.417,47,101,0
361.917,362.417,35,101,0
362.417,362.43365,52,101,0
362.417,362.43365,40,101,0
362.58365,362.6003,52,101,0
362.58365,362.6003,40,101,0
362.7503,362.76697,52,101,0
362.7503,362.76697,40,101,0
362.917,362.93365,52,101,0
362.917,362.93365,40,101,0
363.08365,363.1003,52,101,0
363.08365,363.1003,40,101,0
363.2503,363.917,45,101,0
363.2503,363.917,33,101,0
363.917,364.2503,52,101,0
363.917,364.2503,45,101,0
364.2503,364.58365,45,101,0
364.2503,364.58365,40,101,0
364.2503,364.58365,33,101,0
364.917,365.2503,66,36,0
365.2503,365.58365,62,36,0
365.58365,365.917,67,36,0
365.917,366.2503,71,36,0
366.2503,366.58365,76,36,0
366.58365,366.7503,61,36,0
366.917,367.2503,73,36,0
367.2503,367.58365,67,36,0
367.58365,367.91696,66,36,0
367.91696,368.2503,69,36,0
368.2503,368.58365,74,36,0
368.58365,368.7503,59,36,0
368.91696,369.2503,71,36,0
369.2503,369.58365,66,36,0
369.58365,369.91696,64,36,0
369.91696,370.2503,67,36,0
370.2503,370.58365,73,62,0
370.91696,371.2503,64,36,0
371.2503,371.58365,65,36,0
371.58365,372.2503,73,62,0
371.58365,372.2503,66,54,0
372.2503,372.7503,73,62,0
372.2503,372.7503,66,54,0
372.91696,372.95032,73,36,0
372.91696,372.95032,66,36,0
373.2503,373.28363,73,36,0
373.2503,373.28363,66,36,0
373.58365,374.2503,71,62,0
373.58365,374.2503,61,54,0
374.2503,374.91696,71,62,0
374.2503,374.91696,61,54,0
374.91696,374.95032,71,36,0
374.91696,374.95032,61,36,0
375.2503,375.28363,71,36,0
375.2503,375.28363,61,36,0
375.58365,376.2503,70,62,0
375.58365,376.2503,66,54,0
376.2503,376.83365,70,62,0
376.2503,376.83365,66,54,0
381.58362,382.2503,48,101,0
381.58362,382.2503,36,101,0
382.2503,382.7503,47,101,0
382.2503,382.7503,35,101,0
382.7503,382.76697,46,101,0
382.7503,382.76697,34,101,0
382.91696,382.93362,46,101,0
382.91696,382.93362,34,101,0
383.08362,383.10028,46,101,0
383.08362,383.10028,34,101,0
383.2503,383.26697,46,101,0
383.2503,383.26697,34,101,0
383.41696,383.43362,46,101,0
383.41696,383.43362,34,101,0
383.58362,384.2503,45,101,0
383.58362,384.2503,33,101,0
384.2503,384.91696,52,101,0
384.2503,384.91696,45,101,0
385.2503,385.58362,61,36,0
385.58362,385.91696,57,36,0
385.91696,386.2503,62,36,0
386.2503,386.58362,66,36,0
386.58362,386.91696,71,62,0
386.91696,387.08362,56,36,0
387.2503,387.58362,68,36,0
387.58362,387.91696,62,36,0
387.91696,388.25027,61,36,0
388.25027,388.58362,64,36,0
388.58362,388.91696,69,62,0
388.91696,389.08362,54,36,0
389.25027,389.58362,66,36,0
389.58362,389.91696,61,36,0
389.91696,390.25027,59,36,0
390.25027,390.58362,62,36,0
390.58362,390.91696,68,62,0
390.91696,391.08362,47,36,0
391.25027,391.58362,59,36,0
391.58362,391.91696,60,36,0
391.91696,392.58362,68,62,0
391.91696,392.58362,61,54,0
392.58362,393.25027,68,36,0
392.58362,393.25027,61,36,0
393.25027,393.28363,68,36,0
393.25027,393.28363,61,36,0
393.58362,393.61694,68,36,0
393.58362,393.61694,61,36,0
393.91696,394.58362,68,62,0
393.91696,394.58362,64,57,0
393.91696,394.58362,59,52,0
394.58362,395.16696,68,62,0
394.58362,395.16696,64,57,0
394.58362,395.16696,59,52,0
395.16696,395.25027,68,36,0
395.25027,395.50027,69,36,0
395.50027,395.58362,68,36,0
395.58362,395.83362,69,36,0
395.83362,395.91696,71,36,0
395.91696,396.58362,64,36,0
395.91696,396.58362,57,36,0
396.58362,397.16696,64,36,0
396.58362,397.16696,57,36,0
397.16696,397.17807,45,88,0
397.25027,397.27527,45,88,0
397.50027,397.51138,45,88,0
397.58362,397.6086,43,88,0
397.83362,397.84473,45,88,0
397.91693,398.58362,46,101,0
397.91693,398.58362,34,101,0
398.58362,399.16693,46,101,0
398.58362,399.16693,34,101,0
399.16693,399.17807,57,101,0
399.25027,399.27527,57,101,0
399.50027,399.51138,57,101,0
399.58362,399.6086,55,101,0
399.83362,399.84473,57,101,0
399.91693,400.58362,58,101,0
399.91693,400.58362,53,101,0
399.91693,400.58362,46,101,0
400.58362,401.16693,58,101,0
400.58362,401.16693,53,101,0
400.58362,401.16693,46,101,0
401.16693,401.17804,65,101,0
401.16693,401.17804,62,101,0
401.25027,401.27527,65,127,0
401.25027,401.27527,62,119,0
401.50027,401.51138,65,101,0
401.50027,401.51138,62,101,0
401.58362,401.6086,64,101,0
401.58362,401.6086,61,101,0
401.83362,401.84473,65,101,0
401.83362,401.84473,62,101,0
401.91693,401.94196,62,127,0
401.91693,401.94196,58,119,0
402.16693,402.17804,62,101,0
402.16693,402.17804,58,101,0
402.25027,402.27527,61,101,0
402.25027,402.27527,57,101,0
402.50027,402.51138,62,101,0
402.50027,402.51138,58,101,0
402.58362,402.6086,58,127,0
402.58362,402.6086,55,119,0
402.83362,402.84473,58,101,0
402.83362,402.84473,55,101,0
402.91693,402.94196,57,101,0
402.91693,402.94196,54,101,0
403.16693,403.17804,58,101,0
403.16693,403.17804,55,101,0
403.25027,403.91693,55,101,0
403.25027,403.91693,51,101,0
403.91693,404.58362,50,101,0
403.91693,404.58362,38,101,0
404.58362,405.25027,48,101,0
404.58362,405.25027,36,101,0
405.25027,405.2836,53,127,0
405.25027,405.2836,41,119,0
405.58362,405.61694,53,127,0
405.58362,405.61694,41,119,0
405.91693,406.58362,46,101,0
405.91693,406.58362,34,101,0
406.58362,407.16693,53,101,0
406.58362,407.16693,46,101,0
407.91693,407.95026,46,36,0
408.25027,408.2836,53,62,0
408.5836,408.61694,62,36,0
408.5836,408.61694,58,36,0
408.91693,408.95026,46,36,0
409.25027,409.2836,53,62,0
409.5836,409.61694,62,36,0
409.5836,409.61694,58,36,0
409.91693,409.95026,45,36,0
410.25027,410.2836,53,62,0
410.5836,410.61694,63,36,0
410.5836,410.61694,60,36,0
410.91693,410.95026,45,36,0
411.25027,411.2836,53,62,0
411.5836,411.61694,63,36,0
411.5836,411.61694,60,36,0
411.91693,411.95026,41,36,0
412.25027,412.2836,53,36,0
412.5836,412.61694,63,36,0
412.5836,412.61694,60,36,0
412.91693,412.95026,41,36,0
413.25027,413.2836,53,36,0
413.5836,413.61694,63,36,0
413.5836,413.61694,60,36,0
413.91693,413.95026,46,36,0
414.25027,414.2836,53,62,0
414.5836,414.61694,62,36,0
414.5836,414.61694,58,36,0
414.91693,414.95026,46,36,0
415.25027,415.2836,53,62,0
415.5836,415.61694,62,36,0
415.5836,415.61694,58,36,0
415.91693,415.95026,43,36,0
416.25027,416.2836,55,36,0
416.5836,416.6169,62,36,0
416.5836,416.6169,58,36,0
416.91693,417.25027,43,36,0
417.25027,417.5836,55,36,0
417.5836,417.91693,62,36,0
417.5836,417.91693,58,36,0
417.91693,418.25024,46,36,0
418.25024,418.5836,53,36,0
418.5836,418.91693,62,36,0
418.5836,418.91693,58,36,0
418.91693,419.25024,46,36,0
419.25024,419.5836,53,36,0
419.5836,419.91693,62,36,0
419.5836,419.91693,58,36,0
419.91693,420.25024,41,36,0
420.25024,420.5836,48,36,0
420.5836,420.91693,63,36,0
420.5836,420.91693,60,36,0
420.91693,421.25024,41,36,0
421.25024,421.5836,48,36,0
421.5836,421.91693,63,36,0
421.5836,421.91693,60,36,0
421.91693,422.25024,46,36,0
422.25024,422.5836,50,36,0
422.5836,422.91693,58,36,0
422.5836,422.91693,53,36,0
422.91693,423.25308,41,36,0
423.25308,423.60092,51,36,0
423.60092,423.9635,57,36,0
423.60092,423.9635,53,36,0
423.9635,424.33972,46,36,0
424.33972,424.7293,50,36,0
424.7293,425.11893,58,36,0
424.7293,425.11893,53,36,0
425.11893,425.50854,41,36,0
425.50854,425.89816,51,36,0
425.89816,426.28775,57,36,0
425.89816,426.28775,53,36,0
426.28775,426.53775,46,36,0
426.53775,426.6211,34,75,0
426.6211,426.8711,34,101,0
426.8711,426.95444,34,75,0
426.95444,427.20444,34,75,0
427.20444,427.28775,36,75,0
427.28775,427.53775,38,75,0
427.53775,427.6211,38,75,0
427.6211,427.8711,38,101,0
427.8711,427.95444,38,75,0
427.95444,428.20444,38,75,0
428.20444,428.28775,40,75,0
428.28775,428.53775,41,75,0
428.53775,428.6211,41,75,0
428.6211,428.8711,41,101,0
428.8711,428.95444,41,88,0
428.95444,429.20444,41,88,0
429.20444,429.28775,43,88,0
429.28775,429.53775,45,88,0
429.53775,429.6211,45,88,0
429.53775,429.6211,33,88,0
429.6211,429.8711,45,114,0
429.6211,429.8711,33,106,0
429.8711,429.9544,47,88,0
429.8711,429.9544,35,88,0
429.9544,430.2044,49,88,0
429.9544,430.2044,37,88,0
430.2044,430.28775,50,88,0
430.2044,430.28775,38,88,0
430.28775,430.9544,52,101,0
430.28775,430.9544,40,101,0
430.28775,430.9544,45,101,0
430.28775,430.9544,49,101,0
430.9544,431.53775,52,101,0
430.9544,431.53775,40,101,0
430.9544,431.53775,45,101,0
430.9544,431.53775,49,101,0
431.53775,431.6211,52,101,0
431.53775,431.6211,40,101,0
431.6211,431.8711,52,101,0
431.6211,431.8711,40,101,0
431.8711,431.9544,50,101,0
431.8711,431.9544,38,101,0
431.9544,432.2044,49,101,0
431.9544,432.2044,37,101,0
432.2044,432.28775,47,101,0
432.2044,432.28775,35,101,0
432.28775,432.9544,45,101,0
432.28775,432.9544,33,101,0
432.9544,433.53775,45,101,0
432.9544,433.53775,40,101,0
432.9544,433.53775,33,101,0
433.53775,433.54886,45,36,0
433.6211,433.6461,47,36,0
433.8711,433.8822,45,36,0
433.9544,433.97943,47,36,0
434.2044,434.2155,49,36,0
434.28775,434.9544,50,62,0
434.9544,435.53775,54,36,0
434.9544,435.53775,50,36,0
435.53775,435.54886,50,36,0
435.6211,435.6461,50,36,0
435.6211,435.6461,47,36,0
435.8711,435.8822,50,36,0
435.8711,435.8822,47,36,0
435.9544,435.9794,50,36,0
435.9544,435.9794,46,36,0
436.2044,436.2155,50,36,0
436.2044,436.2155,46,36,0
436.28775,436.9544,52,62,0
436.28775,436.9544,45,54,0
436.9544,437.53775,57,62,0
436.9544,437.53775,45,54,0
437.53775,437.54886,57,36,0
437.53775,437.54886,49,36,0
437.6211,437.6461,57,36,0
437.6211,437.6461,49,36,0
437.8711,437.8822,57,36,0
437.8711,437.8822,49,36,0
437.9544,437.9794,57,36,0
437.9544,437.9794,49,36,0
438.2044,438.2155,57,36,0
438.2044,438.2155,49,36,0
438.28775,438.9544,59,62,0
438.28775,438.9544,54,57,0
438.28775,438.9544,47,52,0
438.9544,439.53775,59,62,0
438.9544,439.53775,50,54,0
439.53775,439.62106,59,36,0
439.53775,439.62106,50,36,0
439.62106,439.6461,59,36,0
439.62106,439.6461,52,36,0
439.87106,439.8822,59,36,0
439.87106,439.8822,52,36,0
439.9544,439.9794,59,36,0
439.9544,439.9794,52,36,0
440.2044,440.2155,59,36,0
440.2044,440.2155,52,36,0
440.28775,440.9544,57,62,0
440.28775,440.9544,52,57,0
440.28775,440.9544,45,52,0
440.9544,441.62106,57,62,0
440.9544,441.62106,52,57,0
440.9544,441.62106,45,52,0
441.62106,441.65442,50,88,0
441.9544,441.98773,49,88,0
442.28775,442.39886,47,114,0
442.3961,442.50717,46,114,0
442.50998,442.62106,47,114,0
442.62106,442.73218,43,114,0
442.7294,442.8405,42,114,0
442.8433,442.9544,43,114,0
442.9544,443.53775,40,127,0
443.53775,443.62106,42,114,0
443.62106,443.87106,43,114,0
443.87106,443.9544,45,114,0
443.9544,444.2044,47,114,0
444.2044,444.28775,49,114,0
444.28775,444.39886,45,88,0
444.3961,444.50717,44,88,0
444.50995,444.62106,45,88,0
444.62106,444.73218,42,88,0
444.7294,444.8405,41,88,0
444.8433,444.9544,42,88,0
444.9544,445.53775,38,114,0
445.53775,445.62106,40,88,0
445.62106,445.87106,42,88,0
445.87106,445.9544,43,88,0
445.9544,446.2044,45,88,0
446.2044,446.28775,47,88,0
446.28775,446.39883,43,88,0
446.39606,446.50717,42,88,0
446.50995,446.62106,43,88,0
446.62106,446.73218,40,88,0
446.7294,446.8405,39,88,0
446.8433,446.9544,40,88,0
446.9544,447.53775,37,114,0
447.53775,447.62106,38,88,0
447.62106,447.87106,40,88,0
447.87106,447.9544,37,88,0
447.9544,448.2044,41,88,0
448.2044,448.28775,37,88,0
448.28775,448.9544,42,101,0
448.9544,449.53775,42,101,0
449.53775,449.54886,46,101,0
449.62106,449.64606,47,101,0
449.87106,449.88217,46,101,0
449.9544,449.9794,47,101,0
450.2044,450.2155,46,101,0
450.28772,450.9544,49,101,0
450.28772,450.9544,44,101,0
450.9544,451.53772,49,101,0
450.9544,451.53772,44,101,0
451.53772,451.54886,49,101,0
451.53772,451.54886,44,101,0
451.62106,451.64606,49,101,0
451.62106,451.64606,46,101,0
451.87106,451.88217,49,101,0
451.87106,451.88217,44,101,0
451.9544,451.9794,49,101,0
451.9544,451.9794,46,101,0
452.2044,452.2155,49,101,0
452.2044,452.2155,44,101,0
452.28772,452.9544,49,101,0
452.28772,452.9544,42,101,0
452.9544,453.53772,49,101,0
452.9544,453.53772,42,101,0
453.53772,453.54883,57,36,0
453.62106,453.64606,57,36,0
453.87106,453.88217,57,36,0
453.9544,453.9794,59,36,0
454.2044,454.2155,61,36,0
454.28772,454.9544,62,62,0
454.9544,455.53772,62,62,0
455.53772,455.62106,62,36,0
455.62106,455.87106,62,36,0
455.87106,455.9544,62,36,0
455.9544,456.2044,62,36,0
455.9544,456.2044,59,36,0
456.2044,456.28772,62,36,0
456.2044,456.28772,59,36,0
456.28772,456.9544,64,62,0
456.28772,456.9544,57,54,0
456.9544,457.53772,61,62,0
456.9544,457.53772,57,54,0
457.53772,457.62106,61,36,0
457.53772,457.62106,54,36,0
457.62106,457.87106,61,36,0
457.62106,457.87106,54,36,0
457.87106,457.9544,61,36,0
457.87106,457.9544,54,36,0
457.9544,458.2044,62,36,0
457.9544,458.2044,54,36,0
458.2044,458.28772,64,36,0
458.2044,458.28772,54,36,0
458.28772,458.9544,62,62,0
458.28772,458.9544,55,54,0
458.9544,459.53772,59,62,0
458.9544,459.53772,55,54,0
459.53772,459.62106,45,36,0
459.62106,459.87106,45,36,0
459.87106,459.95438,45,36,0
459.95438,460.20438,45,36,0
460.20438,460.28772,45,36,0
460.28772,460.95438,50,62,0
460.95438,461.62106,50,62,0
461.62106,461.6544,50,88,0
461.95438,461.98773,49,88,0
462.28772,462.39883,47,114,0
462.39606,462.50717,46,114,0
462.50995,462.62106,47,114,0
462.62106,462.73218,43,114,0
462.7294,462.84048,42,114,0
462.8433,462.95438,43,114,0
462.95438,463.53772,40,127,0
463.53772,463.62106,42,114,0
463.62106,463.87106,43,114,0
463.87106,463.95438,45,114,0
463.95438,464.20438,47,114,0
464.20438,464.28772,49,114,0
464.28772,464.39883,49,114,0
464.39606,464.50717,48,114,0
464.50995,464.62106,49,114,0
464.62106,464.73218,45,114,0
464.7294,464.84048,44,114,0
464.84326,464.95438,45,114,0
464.95438,465.53772,42,114,0
465.53772,465.62106,44,114,0
465.62106,465.87106,45,114,0
465.87106,465.95438,47,114,0
465.95438,466.20438,49,114,0
466.20438,466.28772,52,114,0
466.28772,466.39883,50,114,0
466.39606,466.50717,49,114,0
466.50995,466.62106,50,114,0
466.62106,466.73215,47,114,0
466.72937,466.84048,46,114,0
466.84326,466.95438,47,114,0
466.95438,467.53772,43,114,0
467.53772,467.62106,45,114,0
467.62106,467.87106,47,114,0
467.87106,467.95438,49,114,0
467.95438,468.20438,50,114,0
468.20438,468.28772,54,114,0
468.28772,468.95438,52,88,0
468.95438,469.53772,57,101,0
468.95438,469.53772,52,101,0
469.53772,469.54883,57,101,0
469.53772,469.54883,45,101,0
469.62106,469.64606,57,101,0
469.62106,469.64606,45,101,0
469.87106,469.88217,55,101,0
469.87106,469.88217,43,101,0
469.95438,469.97937,54,101,0
469.95438,469.97937,42,101,0
470.20438,470.21548,52,101,0
470.20438,470.21548,40,101,0
470.28772,470.95438,50,101,0
470.28772,470.95438,45,101,0
470.28772,470.95438,38,101,0
470.95438,471.53772,50,101,0
470.95438,471.53772,45,101,0
470.95438,471.53772,38,101,0
472.62103,472.6544,50,36,0
472.95438,472.9877,57,62,0
473.28772,473.32104,66,36,0
473.28772,473.32104,62,36,0
473.62103,473.6544,50,36,0
473.95438,473.9877,57,62,0
474.28772,474.32104,66,36,0
474.28772,474.32104,62,36,0
474.62103,474.6544,49,36,0
474.95438,474.9877,57,62,0
475.28772,475.32104,67,36,0
475.28772,475.32104,64,36,0
475.62103,475.6544,49,36,0
475.95438,475.9877,57,62,0
476.28772,476.32104,67,36,0
476.28772,476.32104,64,36,0
476.62103,476.6544,45,36,0
476.95438,476.9877,57,62,0
477.28772,477.32104,67,36,0
477.28772,477.32104,64,36,0
477.62103,477.6544,45,36,0
477.95438,477.9877,57,62,0
478.28772,478.32104,67,36,0
478.28772,478.32104,64,36,0
478.62103,478.65436,50,36,0
478.95438,478.9877,57,36,0
479.28772,479.32104,66,36,0
479.28772,479.32104,62,36,0
479.62103,479.65436,50,36,0
479.95438,479.9877,57,36,0
480.2877,480.32104,66,36,0
480.2877,480.32104,62,36,0
480.62103,480.95438,47,36,0
480.95438,481.2877,59,36,0
481.2877,481.62103,66,36,0
481.2877,481.62103,62,36,0
481.62103,481.95438,47,36,0
481.95438,482.2877,59,36,0
482.2877,482.62103,66,36,0
482.2877,482.62103,62,36,0
482.62103,482.95438,50,36,0
482.95438,483.2877,57,36,0
483.2877,483.62103,66,36,0
483.2877,483.62103,62,36,0
483.62103,483.95438,50,36,0
483.95438,484.2877,57,36,0
484.2877,484.62103,66,36,0
484.2877,484.62103,62,36,0
484.62103,484.95438,45,36,0
484.95438,485.2877,57,36,0
485.2877,485.62103,67,36,0
485.2877,485.62103,64,36,0
485.62103,485.95438,45,36,0
485.95438,486.2877,57,36,0
486.2877,486.62103,67,36,0
486.2877,486.62103,64,36,0
486.62103,486.95438,50,36,0
486.95438,487.2877,54,36,0
487.2877,487.62103,62,36,0
487.2877,487.62103,57,36,0
487.62103,487.95718,45,36,0
487.95718,488.30505,55,36,0
488.30505,488.6676,61,36,0
488.30505,488.6676,57,36,0
488.6676,489.04382,50,36,0
489.04382,489.43344,54,36,0
489.43344,489.82303,62,36,0
489.43344,489.82303,57,36,0
489.82303,490.21265,45,36,0
490.21265,490.60226,55,36,0
490.60226,490.99188,61,36,0
490.60226,490.99188,57,36,0
490.99188,491.38147,50,36,0
491.38147,491.7711,54,36,0
491.7711,492.1607,62,36,0
491.7711,492.1607,57,36,0
492.1607,492.5503,50,36,0
492.5503,492.9399,54,36,0
492.9399,493.32953,62,36,0
492.9399,493.32953,57,36,0
493.32953,493.71915,50,62,0
493.71915,494.10873,54,36,0
494.10873,494.49835,62,36,0
494.10873,494.49835,57,36,0
494.49835,494.88797,50,36,0
494.88797,495.2776,54,36,0
495.2776,495.66718,62,36,0
495.2776,495.66718,57,36,0
495.66718,496.0568,50,36,0
496.83603,497.22562,62,36,0
496.83603,497.22562,57,36,0
496.83603,497.22562,50,36,0
498.00485,499.5633,62,36,0
498.00485,499.5633,57,36,0
498.00485,499.5633,50,36,0
14.08332,14.249986,52,36,0
20.333313,20.416647,45,75,0
20.333313,20.416647,33,75,0
20.416647,20.666645,45,75,0
20.416647,20.666645,33,75,0
20.666645,20.749979,45,75,0
20.666645,20.749979,33,75,0
20.749979,20.999979,45,75,0
20.749979,20.999979,33,75,0
20.999979,21.083313,45,75,0
20.999979,21.083313,33,75,0
21.083313,21.749979,47,101,0
21.083313,21.749979,35,101,0
21.749979,22.416645,47,101,0
21.749979,22.416645,35,101,0
22.416645,22.749977,47,101,0
22.416645,22.749977,35,101,0
22.749977,23.083311,47,101,0
22.749977,23.083311,35,101,0
23.083311,23.749977,49,101,0
23.083311,23.749977,45,101,0
23.083311,23.749977,37,101,0
23.749977,24.416643,49,101,0
23.749977,24.416643,45,101,0
23.749977,24.416643,37,101,0
24.416643,24.749975,49,101,0
24.416643,24.749975,37,101,0
24.749975,25.08331,49,101,0
24.749975,25.08331,37,101,0
38.74996,39.083294,64,36,0
39.083294,39.416626,64,36,0
370.58365,370.7503,52,36,0
376.83365,376.91696,45,75,0
376.83365,376.91696,33,75,0
376.91696,377.16696,45,75,0
376.91696,377.16696,33,75,0
377.16696,377.2503,45,75,0
377.16696,377.2503,33,75,0
377.2503,377.5003,45,75,0
377.2503,377.5003,33,75,0
377.5003,377.58362,45,75,0
377.5003,377.58362,33,75,0
377.58362,378.2503,47,101,0
377.58362,378.2503,35,101,0
378.2503,378.91696,47,101,0
378.2503,378.91696,35,101,0
378.91696,379.2503,47,101,0
378.91696,379.2503,35,101,0
379.2503,379.58362,47,101,0
379.2503,379.58362,35,101,0
379.58362,380.2503,49,101,0
379.58362,380.2503,45,101,0
379.58362,380.2503,37,101,0
380.2503,380.91696,49,101,0
380.2503,380.91696,45,101,0
380.2503,380.91696,37,101,0
380.91696,381.2503,49,101,0
380.91696,381.2503,37,101,0
381.2503,381.58362,49,101,0
381.2503,381.58362,37,101,0
395.25027,395.58362,64,36,0
395.58362,395.91696,64,36,0
