start_time,end_time,note_value,velocity,instrument_program_number
0.0033333334,0.10196081,83,40,0
0.098692834,0.19673209,87,34,0
0.19673209,0.29477134,83,40,0
0.29477134,0.36832756,80,34,0
0.39291775,0.4912785,80,40,0
0.4912785,0.58963925,83,34,0
0.58963925,0.688,80,40,0
0.688,0.7620132,75,34,0
0.7866843,0.8853685,75,40,0
0.8853685,0.9840528,80,34,0
0.9840528,1.0830628,75,40,0
1.0830628,1.1573203,71,34,0
1.1820728,1.2810827,71,40,0
1.2810827,1.3803113,75,34,0
1.3803113,1.479649,71,40,0
1.479649,1.5541524,68,34,0
1.5789868,1.6784345,68,40,0
1.6784345,1.7781023,71,34,0
1.7781023,1.87777,68,40,0
1.87777,1.9775485,63,34,0
1.9775485,2.2162151,70,36,0
1.9775485,2.2162151,67,30,0
2.4562151,2.554576,83,40,0
2.554576,2.6529367,87,34,0
2.6529367,2.7512975,83,40,0
2.7512975,2.8252027,80,34,0
2.8498738,2.948558,80,40,0
2.948558,3.0472424,83,34,0
3.0472424,3.1460352,80,40,0
3.1460352,3.2202926,75,34,0
3.2450452,3.3440552,75,40,0
3.3440552,3.4430652,80,34,0
3.4430652,3.542403,75,40,0
3.542403,3.6169062,71,34,0
3.6417406,3.7410784,71,40,0
3.7410784,3.8406363,75,34,0
3.8406363,3.9403038,71,40,0
3.9403038,4.0150547,68,34,0
4.039972,4.13975,68,40,0
4.13975,4.2397504,71,34,0
4.2397504,4.3397503,68,40,0
4.3397503,4.4415407,63,34,0
4.4415407,4.692587,70,36,0
4.4415407,4.692587,67,30,0
4.943633,5.4206204,71,31,0
4.943633,5.4206204,68,31,0
5.4444995,5.851642,76,31,0
5.4444995,5.851642,70,31,0
5.4444995,5.851642,67,31,0
5.8730707,6.280213,76,36,0
5.8730707,6.280213,70,36,0
5.8730707,6.280213,67,36,0
6.3016415,6.775451,76,37,0
6.3016415,6.775451,70,37,0
6.3016415,6.775451,67,37,0
6.8004513,7.275451,75,31,0
6.8004513,7.275451,70,31,0
6.8004513,7.275451,67,31,0
7.3012085,7.819391,73,31,0
7.3012085,7.819391,70,31,0
7.3012085,7.819391,67,31,0
7.8466635,7.9450245,83,40,0
7.9450245,8.0433855,87,34,0
8.0433855,8.141746,83,40,0
8.141746,8.2156515,80,34,0
8.240322,8.339006,80,40,0
8.339006,8.437691,83,34,0
8.437691,8.536484,80,40,0
8.536484,8.610742,75,34,0
8.635493,8.734504,75,40,0
8.734504,8.833513,80,34,0
8.833513,8.932852,75,40,0
8.932852,9.007355,71,34,0
9.032189,9.131527,71,40,0
9.131527,9.231085,75,34,0
9.231085,9.330752,71,40,0
9.330752,9.405503,68,34,0
9.43042,9.530199,68,40,0
9.530199,9.6301985,71,34,0
9.6301985,9.730199,68,40,0
9.730199,9.83031,63,34,0
9.83031,10.070311,70,36,0
9.83031,10.070311,67,30,0
10.31031,10.408995,83,40,0
10.408995,10.507679,87,34,0
10.507679,10.606363,83,40,0
10.606363,10.680376,80,34,0
10.705048,10.804057,80,40,0
10.804057,10.903068,83,34,0
10.903068,11.002077,80,40,0
11.002077,11.076335,75,34,0
11.101088,11.200425,75,40,0
11.200425,11.299763,80,34,0
11.299763,11.3991,75,40,0
11.3991,11.473603,71,34,0
11.498438,11.598105,71,40,0
11.598105,11.697774,75,34,0
11.697774,11.7974415,71,40,0
11.7974415,11.872192,68,34,0
11.897109,11.997109,68,40,0
11.997109,12.097109,71,34,0
12.097109,12.197109,68,40,0
12.197109,12.29722,63,34,0
12.29722,12.527989,67,30,0
12.29722,12.527989,70,36,0
12.758759,13.235746,71,31,0
12.758759,13.235746,68,31,0
13.259625,13.666768,66,31,0
13.259625,13.666768,70,31,0
13.259625,13.666768,76,31,0
13.688196,14.095339,76,36,0
13.688196,14.095339,70,36,0
13.688196,14.095339,66,36,0
14.116767,14.590577,76,37,0
14.116767,14.590577,70,37,0
14.116767,14.590577,66,37,0
14.615577,15.090577,66,31,0
14.615577,15.090577,70,31,0
14.615577,15.090577,75,31,0
15.116334,15.634517,74,31,0
15.116334,15.634517,66,31,0
15.116334,15.634517,70,31,0
15.661789,15.760799,87,50,0
15.760799,15.85981,90,42,0
15.85981,15.958819,87,50,0
15.958819,16.033077,83,42,0
16.057829,16.15684,83,50,0
16.15684,16.25585,87,42,0
16.25585,16.354969,83,50,0
16.354969,16.429472,78,42,0
16.454306,16.553644,78,50,0
16.553644,16.652983,83,42,0
16.652983,16.75232,78,50,0
16.75232,16.826822,75,42,0
16.851658,16.950994,75,50,0
16.950994,17.050552,78,42,0
17.050552,17.15022,75,50,0
17.15022,17.224972,71,42,0
17.249887,17.349556,71,50,0
17.349556,17.449224,75,42,0
17.449224,17.548891,71,50,0
17.548891,17.64867,66,42,0
17.64867,17.887337,73,45,0
17.64867,17.887337,70,37,0
18.127337,18.22646,87,50,0
18.22646,18.325144,90,42,0
18.325144,18.423828,87,50,0
18.423828,18.49784,83,42,0
18.522512,18.621414,83,50,0
18.621414,18.720425,87,42,0
18.720425,18.819433,83,50,0
18.819433,18.893692,78,42,0
18.918444,19.017672,78,50,0
19.017672,19.11701,83,42,0
19.11701,19.216349,78,50,0
19.216349,19.290852,75,42,0
19.315685,19.415354,75,50,0
19.415354,19.51502,78,42,0
19.51502,19.614689,75,50,0
19.614689,19.68944,71,42,0
19.714357,19.814356,71,50,0
19.814356,19.914356,75,42,0
19.914356,20.014357,71,50,0
20.014357,20.114468,66,42,0
20.114468,20.345238,73,45,0
20.114468,20.345238,70,37,0
20.576006,21.014467,75,41,0
20.576006,21.014467,71,41,0
21.036995,21.444138,73,47,0
21.036995,21.444138,80,47,0
21.036995,21.444138,70,47,0
21.465565,21.872707,70,48,0
21.465565,21.872707,73,48,0
21.465565,21.872707,80,48,0
21.89633,22.34515,70,49,0
21.89633,22.34515,73,49,0
21.89633,22.34515,80,49,0
22.36877,22.81759,75,39,0
22.36877,22.81759,70,39,0
22.36877,22.81759,78,39,0
22.842428,23.360611,70,39,0
22.842428,23.360611,76,39,0
23.387884,23.486568,86,50,0
23.486568,23.585253,90,42,0
23.585253,23.683937,86,50,0
23.683937,23.75795,83,42,0
23.782621,23.881306,83,50,0
23.881306,23.980316,86,42,0
23.980316,24.079325,83,50,0
24.079325,24.153584,78,42,0
24.178335,24.277346,78,50,0
24.277346,24.376465,83,42,0
24.376465,24.475801,78,50,0
24.475801,24.550306,74,42,0
24.57514,24.674479,74,50,0
24.674479,24.773815,78,42,0
24.773815,24.873262,74,50,0
24.873262,24.948013,71,42,0
24.97293,25.0726,71,50,0
25.0726,25.172266,74,42,0
25.172266,25.271935,71,50,0
25.271935,25.371824,66,42,0
25.371824,25.61049,70,37,0
25.371824,25.61049,73,45,0
25.85049,25.949614,86,50,0
25.949614,26.048298,90,42,0
26.048298,26.146982,86,50,0
26.146982,26.220995,83,42,0
26.245667,26.34435,83,50,0
26.34435,26.44325,86,42,0
26.44325,26.542261,83,50,0
26.542261,26.616518,78,42,0
26.641272,26.740282,78,50,0
26.740282,26.83929,83,43,0
26.83929,26.93852,78,50,0
26.93852,27.013023,74,42,0
27.037857,27.137196,74,50,0
27.137196,27.236534,78,42,0
27.236534,27.33587,74,50,0
27.33587,27.410511,71,42,0
27.435429,27.535097,71,50,0
27.535097,27.634764,74,42,0
27.634764,27.734432,71,50,0
27.734432,27.834099,66,42,0
27.834099,28.072767,73,45,0
27.834099,28.072767,70,45,0
28.313387,28.804766,71,41,0
28.313387,28.804766,66,41,0
28.313387,28.804766,74,41,0
28.829151,29.236292,83,50,0
28.829151,29.236292,76,50,0
28.829151,29.236292,73,50,0
29.25772,29.664864,73,48,0
29.25772,29.664864,76,48,0
29.25772,29.664864,83,48,0
29.686293,30.093435,76,46,0
29.686293,30.093435,73,46,0
29.686293,30.093435,83,46,0
30.114862,30.522005,81,44,0
30.114862,30.522005,78,44,0
30.114862,30.522005,73,44,0
30.543434,30.950577,79,42,0
30.543434,30.950577,73,42,0
30.972006,31.397379,78,38,0
30.972006,31.397379,74,38,0
31.419765,31.826908,70,46,0
31.419765,31.826908,73,46,0
31.419765,31.826908,79,46,0
31.848337,32.255478,70,46,0
31.848337,32.255478,73,46,0
31.848337,32.255478,79,46,0
32.27691,32.68405,79,46,0
32.27691,32.68405,70,46,0
32.27691,32.68405,73,46,0
32.70548,33.11262,78,44,0
32.70548,33.11262,73,44,0
32.70548,33.11262,70,44,0
33.13405,33.54119,73,42,0
33.13405,33.54119,76,42,0
33.562622,34.002197,71,41,0
33.562622,34.002197,75,41,0
34.025364,34.432503,68,49,0
34.025364,34.432503,64,49,0
34.025364,34.432503,76,49,0
34.453934,34.861076,64,49,0
34.453934,34.861076,68,49,0
34.453934,34.861076,76,49,0
34.882504,35.289646,76,49,0
34.882504,35.289646,64,49,0
34.882504,35.289646,68,49,0
35.311073,35.718216,68,49,0
35.311073,35.718216,75,49,0
35.311073,35.718216,63,49,0
35.739647,36.14679,61,47,0
35.739647,36.14679,73,47,0
35.739647,36.14679,68,47,0
36.168217,36.59359,63,48,0
36.168217,36.59359,68,48,0
36.168217,36.59359,71,48,0
36.61598,37.04135,71,48,0
36.61598,37.04135,68,48,0
36.61598,37.04135,63,48,0
37.06374,37.540726,71,48,0
37.06374,37.540726,68,48,0
37.06374,37.540726,63,48,0
37.5649,37.98869,63,33,0
37.5649,37.98869,67,33,0
37.5649,37.98869,70,33,0
38.010994,38.434788,67,34,0
38.010994,38.434788,63,34,0
38.010994,38.434788,70,34,0
38.457092,38.95361,70,34,0
38.457092,38.95361,67,34,0
38.457092,38.95361,63,34,0
38.977745,39.076103,84,40,0
39.076103,39.174465,87,34,0
39.174465,39.272827,84,40,0
39.272827,39.346596,80,34,0
39.371185,39.46987,80,40,0
39.46987,39.568554,84,34,0
39.568554,39.66724,80,40,0
39.66724,39.741253,75,34,0
39.765923,39.864933,75,40,0
39.864933,39.963943,80,34,0
39.963943,40.062954,75,40,0
40.062954,40.13721,72,34,0
40.161964,40.2613,72,40,0
40.2613,40.360638,75,34,0
40.360638,40.459976,72,40,0
40.459976,40.53448,68,34,0
40.559315,40.65898,68,40,0
40.65898,40.758648,72,34,0
40.758648,40.85832,68,40,0
40.85832,40.958096,63,34,0
40.958096,41.196762,70,36,0
40.958096,41.196762,67,30,0
41.436764,41.535885,84,40,0
41.535885,41.63457,87,34,0
41.63457,41.733253,84,40,0
41.733253,41.807266,80,34,0
41.83194,41.93084,80,40,0
41.93084,42.02985,84,34,0
42.02985,42.12886,80,40,0
42.12886,42.203117,75,34,0
42.22787,42.327206,75,40,0
42.327206,42.426544,80,34,0
42.426544,42.525883,75,40,0
42.525883,42.600388,72,34,0
42.62522,42.724888,72,40,0
42.724888,42.824554,75,34,0
42.824554,42.924225,72,40,0
42.924225,42.999,68,34,0
43.024002,43.124,68,40,0
43.124,43.224003,72,34,0
43.224003,43.324,68,40,0
43.324,43.424225,63,34,0
43.424225,43.662914,70,36,0
43.424225,43.662914,67,36,0
43.902916,44.001606,87,45,0
44.001606,44.099648,92,38,0
44.099648,44.197685,87,45,0
44.197685,44.27124,84,38,0
44.295834,44.39419,84,45,0
44.39419,44.492554,87,38,0
44.492554,44.591022,84,45,0
44.591022,44.665035,80,38,0
44.689705,44.78839,80,45,0
44.78839,44.887074,84,38,0
44.887074,44.986084,80,45,0
44.986084,45.06034,75,38,0
45.085094,45.184105,75,45,0
45.184105,45.283443,80,38,0
45.283443,45.382782,75,45,0
45.382782,45.457283,72,38,0
45.482117,45.581676,72,45,0
45.581676,45.681343,75,38,0
45.681343,45.78101,72,45,0
45.78101,45.8809,68,38,0
45.8809,46.119568,70,40,0
45.8809,46.119568,67,40,0
46.359566,46.458252,87,50,0
46.458252,46.556934,92,42,0
46.556934,46.65562,87,50,0
46.65562,46.729633,84,42,0
46.754303,46.853313,84,50,0
46.853313,46.952324,87,42,0
46.952324,47.051334,84,50,0
47.051334,47.12559,80,42,0
47.150345,47.249683,80,50,0
47.249683,47.34902,84,42,0
47.34902,47.448357,80,50,0
47.448357,47.52289,75,42,0
47.547806,47.647472,75,50,0
47.647472,47.74714,80,42,0
47.74714,47.84681,75,50,0
47.84681,47.92159,72,42,0
47.946587,48.04659,72,50,0
48.04659,48.146587,75,42,0
48.146587,48.246586,72,50,0
48.246586,48.34681,68,42,0
48.34681,48.5855,70,45,0
48.34681,48.5855,67,45,0
48.8255,48.9255,72,40,0
48.9255,49.025497,75,34,0
49.025497,49.1255,72,40,0
49.1255,49.2005,68,34,0
49.2255,49.3255,68,40,0
49.3255,49.4255,72,34,0
49.4255,49.525497,68,40,0
49.525497,49.6255,63,34,0
49.6255,49.732643,68,40,0
50.05407,50.15407,73,40,0
50.15407,50.25407,77,34,0
50.25407,50.35407,73,40,0
50.35407,50.42907,68,34,0
50.45407,50.55407,68,40,0
50.55407,50.65407,73,34,0
50.65407,50.75407,68,40,0
50.75407,50.85407,65,34,0
50.85407,50.961212,68,40,0
51.282166,51.382164,75,40,0
51.382164,51.482166,79,34,0
51.482166,51.582165,75,40,0
51.582165,51.657166,70,34,0
51.682163,51.782166,70,40,0
51.782166,51.882164,75,34,0
51.882164,51.982166,70,40,0
51.982166,52.082165,67,34,0
52.082165,52.18919,70,40,0
52.511772,52.612106,75,40,0
52.612106,52.71244,80,34,0
52.71244,52.812775,75,40,0
52.812775,52.888027,72,34,0
52.91311,53.013443,72,40,0
53.013443,53.113777,75,34,0
53.113777,53.21411,72,40,0
53.21411,53.314445,68,34,0
53.314445,53.429832,72,40,0
53.775986,53.877323,84,52,0
53.877323,53.977657,87,44,0
53.977657,54.07799,84,52,0
54.07799,54.153244,80,44,0
54.178326,54.27866,80,52,0
54.27866,54.378994,84,44,0
54.378994,54.47933,80,52,0
54.47933,54.579666,75,44,0
54.579666,54.686806,80,52,0
55.008236,55.108906,85,60,0
55.108906,55.20958,89,51,0
55.20958,55.31025,85,60,0
55.31025,55.385754,80,51,0
55.41092,55.511593,80,60,0
55.511593,55.612263,85,51,0
55.612263,55.712933,80,60,0
55.712933,55.813606,77,51,0
55.813606,55.92075,80,60,0
56.242176,56.34251,87,70,0
56.34251,56.442844,91,59,0
56.442844,56.54318,87,70,0
56.54318,56.61843,82,59,0
56.643513,56.74385,82,70,0
56.74385,56.844185,87,59,0
56.844185,56.94452,82,70,0
56.94452,57.044853,79,59,0
57.044853,57.259136,82,70,0
57.473423,57.57342,87,80,0
57.57342,57.673424,92,68,0
57.673424,57.773422,87,80,0
57.773422,57.848423,84,68,0
57.873425,57.973423,84,80,0
57.973423,58.07342,87,68,0
58.07342,58.173424,84,80,0
58.173424,58.27448,80,68,0
58.27448,58.506138,84,80,0
58.7378,58.84523,72,40,0
58.84523,58.952374,75,34,0
58.952374,59.059517,72,40,0
59.059517,59.139874,68,34,0
59.165943,59.265945,68,40,0
59.265945,59.365944,72,34,0
59.365944,59.465946,68,40,0
59.465946,59.565945,63,34,0
59.565945,59.765945,68,40,0
59.965946,60.07271,73,40,0
60.07271,60.179466,77,34,0
60.179466,60.28623,73,40,0
60.28623,60.366302,68,34,0
60.39299,60.492992,68,40,0
60.492992,60.59299,73,34,0
60.59299,60.69299,68,40,0
60.69299,60.79299,65,34,0
60.79299,60.992992,68,40,0
61.19299,61.300014,75,40,0
61.300014,61.407543,79,34,0
61.407543,61.51507,75,40,0
61.51507,61.595715,70,34,0
61.622097,61.722095,70,40,0
61.722095,61.822094,75,34,0
61.822094,61.922096,70,40,0
61.922096,62.022095,67,34,0
62.022095,62.222095,70,40,0
62.422096,62.52924,75,40,0
62.52924,62.63638,80,34,0
62.63638,62.743523,75,40,0
62.743523,62.82388,72,34,0
62.850666,62.95114,72,40,0
62.95114,63.051144,75,34,0
63.051144,63.151142,72,40,0
63.151142,63.251144,68,34,0
63.251144,63.45114,72,40,0
63.651142,63.77211,84,52,0
63.77211,63.893078,87,44,0
63.893078,64.014046,84,52,0
64.014046,64.104774,80,44,0
64.13359,64.23326,80,52,0
64.23326,64.33293,84,44,0
64.33293,64.432594,80,52,0
64.432594,64.532265,75,44,0
64.532265,64.7316,80,52,0
64.93094,65.038666,85,55,0
65.038666,65.146965,89,46,0
65.146965,65.25527,85,55,0
65.25527,65.336494,80,46,0
65.36357,65.46357,80,55,0
65.46357,65.563576,85,46,0
65.563576,65.663574,80,55,0
65.663574,65.76357,77,46,0
65.76357,65.96357,80,55,0
66.1641,66.26936,87,62,0
66.26936,66.374626,91,52,0
66.374626,66.47989,87,62,0
66.47989,66.55884,82,52,0
66.58515,66.68515,82,62,0
66.68515,66.78515,87,52,0
66.78515,66.885155,82,62,0
66.885155,66.98515,79,52,0
66.98515,67.18515,82,62,0
67.38553,67.491165,87,70,0
67.491165,67.596794,92,59,0
67.596794,67.70243,87,70,0
67.70243,67.781654,84,58,0
67.807686,67.907684,84,70,0
67.907684,68.00769,87,59,0
68.00769,68.10769,84,70,0
68.10769,68.20769,80,59,0
68.20769,68.407684,84,70,0
68.60769,68.71692,87,77,0
68.71692,68.826805,91,65,0
68.826805,68.9367,87,77,0
68.9367,69.01911,82,65,0
69.046585,69.14659,82,77,0
69.14659,69.24659,87,65,0
69.24659,69.34659,82,77,0
69.34659,69.44659,79,65,0
69.44659,69.64659,82,77,0
69.84709,69.95462,87,78,0
69.95462,70.06214,92,66,0
70.06214,70.16967,87,78,0
70.16967,70.25031,84,66,0
70.276695,70.37669,84,78,0
70.37669,70.47669,87,66,0
70.47669,70.5767,84,78,0
70.5767,70.6767,80,66,0
70.6767,70.87669,84,78,0
71.0767,71.18863,89,78,0
71.18863,71.30141,93,67,0
71.30141,71.41419,89,78,0
71.41419,71.49878,84,67,0
71.52697,71.62782,84,78,0
71.62782,71.72782,89,67,0
71.72782,71.82783,84,78,0
71.82783,71.927826,81,67,0
71.927826,72.12782,84,78,0
72.32783,72.43497,89,78,0
72.43497,72.54211,94,67,0
72.54211,72.649254,89,78,0
72.649254,72.72961,85,67,0
72.75639,72.85687,85,78,0
72.85687,72.95687,89,67,0
72.95687,73.05687,85,78,0
73.05687,73.15687,82,67,0
73.15687,73.35687,85,78,0
73.55753,73.66742,89,78,0
73.66742,73.77731,93,67,0
73.77731,73.8872,89,78,0
73.8872,73.96962,84,67,0
73.99709,74.09709,84,78,0
74.09709,74.19709,89,67,0
74.19709,74.29709,84,78,0
74.29709,74.39709,81,67,0
74.39709,74.59709,84,78,0
74.79709,74.9031,89,78,0
74.9031,75.0091,94,67,0
75.0091,75.11511,89,78,0
75.11511,75.19462,85,67,0
75.221115,75.32112,85,78,0
75.32112,75.42112,89,67,0
75.42112,75.52112,85,78,0
75.52112,75.62112,82,67,0
75.62112,75.82112,85,78,0
76.02112,76.14112,92,78,0
76.14112,76.261116,96,67,0
76.261116,76.38112,92,78,0
76.38112,76.471115,87,67,0
76.50112,76.60112,87,78,0
76.60112,76.70112,92,67,0
76.70112,76.80112,87,78,0
76.80112,76.901115,84,67,0
76.901115,77.10112,87,78,0
77.30172,77.40772,92,78,0
77.40772,77.51373,97,67,0
77.51373,77.61974,92,78,0
77.61974,77.69924,89,67,0
77.725746,77.82615,89,79,0
77.82615,77.92615,92,68,0
77.92615,78.026146,89,80,0
78.026146,78.126144,85,68,0
78.126144,78.32615,89,81,0
78.526146,78.633675,92,82,0
78.633675,78.7412,96,70,0
78.7412,78.84873,92,83,0
78.84873,78.929375,87,71,0
78.95625,79.056755,87,84,0
79.056755,79.15676,92,72,0
79.15676,79.25676,87,85,0
79.25676,79.35676,84,72,0
79.35676,79.570564,87,85,0
79.78485,79.88196,92,86,0
79.88196,79.97811,97,73,0
79.97811,80.074394,92,86,0
80.074394,80.146736,89,73,0
80.17085,80.26744,89,86,0
80.26744,80.36422,92,73,0
80.36422,80.46111,89,86,0
80.46111,80.53393,85,73,0
80.558205,80.65531,85,86,0
80.65531,80.752716,89,73,0
80.752716,80.850136,85,86,0
80.850136,80.92343,80,73,0
80.94786,81.0456,80,86,0
81.0456,81.14364,85,73,0
81.14364,81.2417,80,86,0
81.2417,81.31547,77,73,0
81.34006,81.43842,77,86,0
81.43842,81.53702,80,73,0
81.53702,81.635704,77,86,0
81.635704,81.70987,73,73,0
81.73463,81.83363,73,86,0
81.83363,81.932884,77,73,0
81.932884,82.03223,73,86,0
82.03223,82.131805,68,73,0
82.131805,82.229126,80,86,0
82.229126,82.325905,85,73,0
82.325905,82.422676,80,86,0
82.422676,82.49531,77,73,0
82.51958,82.61666,77,86,0
82.61666,82.71375,80,73,0
82.71375,82.81097,77,86,0
82.81097,82.88402,73,73,0
82.90836,83.00577,73,86,0
83.00577,83.1033,77,73,0
83.1033,83.20102,73,86,0
83.20102,83.27431,68,73,0
83.29874,83.39658,68,86,0
83.39658,83.49463,73,73,0
83.49463,83.59267,68,86,0
83.59267,83.666245,65,73,0
83.690834,83.78919,65,86,0
83.78919,83.88755,68,73,0
83.88755,83.986046,65,86,0
83.986046,84.06006,61,73,0
84.08473,84.18341,61,86,0
84.18341,84.28223,65,73,0
84.28223,84.38124,61,86,0
84.38124,84.48025,56,73,0
84.48025,84.57939,61,88,0
84.57939,84.67873,64,68,0
84.67873,84.77806,61,80,0
84.77806,84.85257,58,68,0
84.8774,84.97674,58,80,0
84.97674,85.07608,61,68,0
85.07608,85.175415,58,80,0
85.175415,85.27475,55,68,0
85.27475,85.37409,61,89,0
85.37409,85.47343,64,68,0
85.47343,85.57277,61,80,0
85.57277,85.64727,58,68,0
85.672104,85.77144,58,80,0
85.77144,85.87078,61,68,0
85.87078,85.970116,58,80,0
85.970116,86.06946,55,68,0
86.06946,86.16879,61,88,0
86.16879,86.26813,64,68,0
86.26813,86.36747,61,80,0
86.36747,86.44197,58,68,0
86.466805,86.56615,58,80,0
86.56615,86.66548,61,68,0
86.66548,86.76482,58,80,0
86.76482,86.86416,55,68,0
86.86416,86.9637,61,80,0
86.9637,87.06337,63,68,0
87.06337,87.163246,61,79,0
87.163246,87.23824,58,66,0
87.263245,87.36345,58,77,0
87.36345,87.46379,61,65,0
87.46379,87.56433,58,76,0
87.56433,87.665,55,63,0
87.665,87.766,61,82,0
87.766,87.86701,63,64,0
87.86701,87.968346,61,75,0
87.968346,88.04436,58,61,0
88.069695,88.17138,58,76,0
88.17138,88.27317,61,63,0
88.27317,88.37521,58,73,0
88.37521,88.477356,55,59,0
88.477356,88.57974,61,76,0
88.57974,88.682236,63,57,0
88.682236,88.78498,61,66,0
88.78498,88.86217,58,55,0
88.8894,89.0144,58,63,0
89.0144,89.1394,61,52,0
89.1394,89.2644,58,60,0
89.2644,89.3894,55,49,0
89.58464,89.7677,60,40,0
89.7677,89.939964,56,40,0
89.3894,89.939964,63,50,0
90.084045,90.2269,63,40,0
90.2269,90.36976,60,40,0
89.939964,90.36976,68,50,0
90.51261,90.65547,63,40,0
90.65547,90.798325,60,40,0
90.36976,90.798325,67,50,0
90.955666,91.11377,61,40,0
91.11377,91.27111,56,40,0
90.798325,91.27111,65,50,0
91.41397,91.55682,65,40,0
91.55682,91.70042,61,40,0
91.27111,91.70042,73,50,0
91.857895,92.01537,65,40,0
92.01537,92.17285,61,40,0
91.70042,92.17285,70,50,0
92.31693,92.4603,63,40,0
92.4603,92.60367,61,40,0
92.17285,92.60367,70,50,0
92.74704,92.8904,63,40,0
92.8904,93.033775,60,40,0
92.60367,93.033775,68,50,0
93.17715,93.32052,63,40,0
93.32052,93.4634,60,40,0
93.033775,93.4634,68,50,0
93.59848,93.73666,63,40,0
93.73666,93.87793,60,40,0
93.4634,93.87793,68,50,0
94.0226,94.17068,63,40,0
94.17068,94.32249,58,40,0
93.87793,94.32249,67,50,0
94.4964,94.67031,63,40,0
94.67031,94.84422,58,40,0
94.32249,94.84422,67,50,0
94.98711,95.12997,60,40,0
95.12997,95.27282,56,40,0
94.84422,95.27282,63,50,0
95.41568,95.55853,63,40,0
95.55853,95.70139,60,40,0
95.27282,95.70139,68,50,0
95.844246,95.98711,63,40,0
95.98711,96.12996,60,40,0
95.70139,96.12996,67,50,0
96.296104,96.46346,61,40,0
96.46346,96.63083,56,40,0
96.12996,96.63083,65,50,0
96.77369,96.91654,68,40,0
96.91654,97.0594,65,40,0
96.63083,97.0594,77,50,0
97.202255,97.345116,65,40,0
97.345116,97.48797,61,40,0
97.0594,97.48797,73,50,0
97.63111,97.77538,68,40,0
97.77538,97.920815,63,40,0
97.48797,97.920815,73,50,0
98.06741,98.21521,68,40,0
98.21521,98.36421,63,40,0
97.920815,98.36421,72,50,0
98.51806,98.671906,68,40,0
98.671906,98.8252,63,40,0
98.36421,98.8252,72,50,0
98.96909,99.11551,63,40,0
99.11551,99.26451,61,40,0
98.8252,99.26451,72,50,0
99.41621,99.57068,63,40,0
99.57068,99.72807,61,40,0
99.26451,99.72807,70,50,0
99.888466,100.08094,63,40,0
100.08094,100.30316,61,40,0
99.72807,100.30316,70,50,0
100.30316,100.40316,72,48,0
100.40316,100.50317,75,40,0
100.50317,100.603165,72,48,0
100.603165,100.67816,68,40,0
100.70316,100.80316,68,48,0
100.80316,100.90316,72,40,0
100.90316,101.00317,68,48,0
101.00317,101.103165,63,40,0
101.103165,101.31745,68,48,0
101.53173,101.63174,73,48,0
101.63174,101.731735,77,40,0
101.731735,101.83173,73,48,0
101.83173,101.90673,68,40,0
101.93173,102.03173,68,48,0
102.03173,102.13174,73,40,0
102.13174,102.231735,68,48,0
102.231735,102.33173,65,40,0
102.33173,102.54602,68,48,0
102.75983,102.85983,75,48,0
102.85983,102.95983,79,40,0
102.95983,103.05983,75,48,0
103.05983,103.13483,70,40,0
103.15983,103.25983,70,48,0
103.25983,103.35983,75,40,0
103.35983,103.45983,70,48,0
103.45983,103.55983,67,40,0
103.55983,103.77438,70,48,0
103.98943,104.08977,75,48,0
104.08977,104.1901,80,40,0
104.1901,104.290436,75,48,0
104.290436,104.36569,72,40,0
104.39077,104.491104,72,48,0
104.491104,104.591446,75,40,0
104.591446,104.69178,72,48,0
104.69178,104.792114,68,40,0
104.792114,105.02288,72,48,0
105.25365,105.35499,84,64,0
105.35499,105.45532,87,54,0
105.45532,105.55566,84,64,0
105.55566,105.630905,80,54,0
105.65599,105.756325,80,64,0
105.756325,105.85666,84,54,0
105.85666,105.95699,80,64,0
105.95699,106.05733,75,54,0
106.05733,106.271614,80,64,0
106.4859,106.58657,85,72,0
106.58657,106.68724,89,61,0
106.68724,106.78791,85,72,0
106.78791,106.86342,80,61,0
106.88859,106.98926,80,72,0
106.98926,107.08993,85,61,0
107.08993,107.1906,80,72,0
107.1906,107.29127,77,61,0
107.29127,107.505554,80,72,0
107.71984,107.820175,87,84,0
107.820175,107.92051,91,71,0
107.92051,108.02084,87,84,0
108.02084,108.09609,82,71,0
108.12118,108.22151,82,84,0
108.22151,108.321846,87,71,0
108.321846,108.42218,82,84,0
108.42218,108.522514,79,71,0
108.522514,108.7368,82,84,0
108.95109,109.05109,87,91,0
109.05109,109.151085,92,76,0
109.151085,109.25109,87,91,0
109.25109,109.32609,84,76,0
109.35109,109.45109,84,91,0
109.45109,109.55109,87,76,0
109.55109,109.651085,84,91,0
109.651085,109.752144,80,76,0
109.752144,109.9838,84,91,0
110.21546,110.3229,72,48,0
110.3229,110.43004,75,40,0
110.43004,110.53718,72,48,0
110.53718,110.61754,68,40,0
110.64361,110.74361,68,48,0
110.74361,110.84361,72,40,0
110.84361,110.94361,68,48,0
110.94361,111.04361,63,40,0
111.04361,111.24361,68,48,0
111.44361,111.55037,73,48,0
111.55037,111.657135,77,40,0
111.657135,111.76389,73,48,0
111.76389,111.84396,68,40,0
111.87066,111.97066,68,48,0
111.97066,112.070656,73,40,0
112.070656,112.170654,68,48,0
112.170654,112.27065,65,40,0
112.27065,112.47066,68,48,0
112.670654,112.77768,75,48,0
112.77768,112.88521,79,40,0
112.88521,112.99274,75,48,0
112.99274,113.07338,70,40,0
113.09976,113.19976,70,48,0
113.19976,113.29976,75,40,0
113.29976,113.39976,70,48,0
113.39976,113.49976,67,40,0
113.49976,113.69976,70,48,0
113.89976,114.006905,75,48,0
114.006905,114.114044,80,40,0
114.114044,114.22119,75,48,0
114.22119,114.301544,72,40,0
114.32833,114.42881,72,48,0
114.42881,114.52881,75,40,0
114.52881,114.62881,72,48,0
114.62881,114.728806,68,40,0
114.728806,114.92881,72,48,0
115.12881,115.24977,84,68,0
115.24977,115.37074,87,57,0
115.37074,115.49171,84,68,0
115.49171,115.582436,80,57,0
115.61126,115.71092,80,68,0
115.71092,115.81059,84,57,0
115.81059,115.91026,80,68,0
115.91026,116.009926,75,57,0
116.009926,116.20927,80,68,0
116.4086,116.51706,85,68,0
116.51706,116.62615,89,57,0
116.62615,116.735245,85,68,0
116.735245,116.81706,80,57,0
116.84434,116.944336,80,68,0
116.944336,117.044334,85,57,0
117.044334,117.14433,80,68,0
117.14433,117.24434,77,57,0
117.24434,117.444336,80,68,0
117.64433,117.749245,87,68,0
117.749245,117.854515,91,57,0
117.854515,117.95978,87,68,0
117.95978,118.03872,82,57,0
118.06504,118.16504,82,68,0
118.16504,118.26504,87,57,0
118.26504,118.365036,82,68,0
118.365036,118.465034,79,57,0
118.465034,118.66504,82,68,0
118.865036,118.967926,87,80,0
118.967926,119.071014,92,68,0
119.071014,119.17411,87,80,0
119.17411,119.25143,84,68,0
119.27699,119.377,84,80,0
119.377,119.477,87,68,0
119.477,119.576996,84,80,0
119.576996,119.676994,80,68,0
119.676994,119.877,84,80,0
120.076996,120.17938,87,84,0
120.17938,120.28178,91,71,0
120.28178,120.38416,87,84,0
120.38416,120.46095,82,71,0
120.48655,120.586555,82,84,0
120.586555,120.686554,87,71,0
120.686554,120.78655,82,84,0
120.78655,120.88655,79,71,0
120.88655,121.086555,82,84,0
121.28655,121.38911,87,90,0
121.38911,121.49185,92,76,0
121.49185,121.59459,87,90,0
121.59459,121.671646,84,76,0
121.69714,121.79715,84,90,0
121.79715,121.89715,87,76,0
121.89715,121.99715,84,90,0
121.99715,122.097145,80,76,0
122.097145,122.29715,84,90,0
122.49715,122.60003,87,96,0
122.60003,122.703125,91,81,0
122.703125,122.80622,87,96,0
122.80622,122.88354,82,81,0
122.90931,123.00931,82,96,0
123.00931,123.109314,87,81,0
123.109314,123.20931,82,96,0
123.20931,123.30931,79,81,0
123.30931,123.50931,82,96,0
123.70931,123.80607,87,96,0
123.80607,123.90246,92,81,0
123.90246,123.99893,87,96,0
123.99893,124.07146,84,81,0
124.095634,124.19234,84,96,0
124.19234,124.28922,87,81,0
124.28922,124.38624,84,96,0
124.38624,124.45901,80,81,0
124.48326,124.58056,80,96,0
124.58056,124.677895,84,81,0
124.677895,124.7753,80,96,0
124.7753,124.84854,75,81,0
124.87295,124.9706,75,96,0
124.9706,125.06843,80,81,0
125.06843,125.1664,75,96,0
125.1664,125.239876,72,81,0
125.264366,125.362625,72,96,0
125.362625,125.460915,75,81,0
125.460915,125.55928,72,96,0
125.55928,125.63324,68,81,0
125.65789,125.75651,68,96,0
125.75651,125.8553,72,81,0
125.8553,125.95424,68,96,0
125.95424,126.05318,63,80,0
126.05318,126.149734,75,95,0
126.149734,126.246124,80,79,0
126.246124,126.34252,75,93,0
126.34252,126.41502,72,77,0
126.43919,126.535904,72,91,0
126.535904,126.63261,75,76,0
126.63261,126.72959,72,89,0
126.72959,126.80236,68,75,0
126.826614,126.92363,68,87,0
126.92363,127.020935,72,73,0
127.020935,127.11826,68,85,0
127.11826,127.19127,63,71,0
127.2156,127.31322,63,83,0
127.31322,127.410866,68,70,0
127.410866,127.508514,63,79,0
127.508514,127.58196,60,68,0
127.60645,127.70442,60,77,0
127.70442,127.80239,63,66,0
127.80239,127.90065,60,75,0
127.90065,127.99894,56,62,0
127.99894,128.09723,63,70,0
128.09723,128.19582,68,57,0
128.19582,128.29442,63,65,0
128.29442,128.39304,60,53,0
128.39304,128.49199,56,60,0
128.49199,128.591,60,51,0
128.591,128.69002,56,60,0
128.69002,128.78902,51,51,0
128.78902,128.88803,56,60,0
128.88803,128.98705,60,51,0
128.98705,129.08606,56,60,0
129.08606,129.18506,51,51,0
129.18506,129.28407,56,60,0
129.28407,129.38309,60,51,0
129.38309,129.48209,56,60,0
129.48209,129.5811,51,51,0
129.5811,129.68011,56,60,0
129.68011,129.77913,60,51,0
129.77913,129.87813,56,60,0
129.87813,129.97714,51,51,0
129.97714,130.07616,56,60,0
130.07616,130.17516,60,51,0
130.17516,130.27417,56,60,0
130.27417,130.37318,51,51,0
130.37318,130.4722,56,60,0
130.4722,130.5712,60,51,0
130.5712,130.67021,56,60,0
130.67021,130.76929,51,51,0
130.76929,130.86945,63,60,0
130.86945,130.97017,66,51,0
130.97017,131.07143,63,59,0
131.07143,131.17328,56,49,0
131.17328,131.27571,63,57,0
131.27571,131.37871,66,47,0
131.37871,131.48233,63,55,0
131.48233,131.58655,56,46,0
131.58655,131.69135,63,54,0
131.69135,131.79678,66,45,0
131.79678,131.90283,63,52,0
131.90283,132.00949,56,43,0
132.00949,132.11682,63,50,0
132.11682,132.22478,66,42,0
132.22478,132.33337,63,49,0
132.33337,132.44266,56,40,0
132.44266,132.5526,63,47,0
132.5526,132.6632,66,39,0
132.6632,132.77449,63,45,0
132.77449,132.88649,56,38,0
132.88649,133.03574,63,44,0
133.03574,133.185,66,36,0
133.185,133.33424,63,42,0
133.33424,133.4835,56,34,0
130.76929,133.4835,68,60,0
133.71251,133.93007,64,27,0
133.71251,133.93007,56,27,0
133.94151,134.15263,64,26,0
133.94151,134.15263,56,26,0
134.16374,134.37485,64,26,0
134.16374,134.37485,56,26,0
134.38597,134.59708,64,26,0
134.38597,134.59708,56,26,0
134.60818,134.81929,64,26,0
134.60818,134.81929,56,26,0
133.4835,134.83041,68,61,0
135.0447,135.24826,56,26,0
135.0447,135.25897,64,26,0
134.83041,135.25897,68,61,0
135.47327,135.67683,57,27,0
135.47327,135.68755,64,27,0
135.25897,135.68755,69,59,0
135.93536,136.17188,56,26,0
135.93536,136.18346,64,26,0
135.68755,136.18346,68,59,0
136.40651,136.6184,66,26,0
136.40651,136.6184,57,26,0
136.62955,136.84145,66,26,0
136.62955,136.84145,57,26,0
136.8526,137.0645,66,26,0
136.8526,137.0645,57,26,0
137.07565,137.28755,66,26,0
137.07565,137.28755,57,26,0
137.29869,137.51059,66,26,0
137.29869,137.51059,57,26,0
136.18346,137.52174,69,60,0
137.7448,137.9567,66,28,0
137.7448,137.9567,56,28,0
137.96785,138.17973,66,29,0
137.96785,138.17973,56,29,0
138.19089,138.40279,66,29,0
138.19089,138.40279,56,29,0
138.41394,138.62584,66,29,0
138.41394,138.62584,56,29,0
138.637,138.84889,66,29,0
138.637,138.84889,56,29,0
137.52174,138.86003,68,59,0
139.08308,139.29498,64,26,0
139.08308,139.29498,56,26,0
139.30614,139.51804,64,26,0
139.30614,139.51804,56,26,0
139.52919,139.74107,64,26,0
139.52919,139.74107,56,26,0
139.75223,139.96413,64,26,0
139.75223,139.96413,56,26,0
139.97528,140.18718,64,27,0
139.97528,140.18718,56,27,0
138.86003,140.19833,68,60,0
140.4129,140.61647,68,28,0
140.4129,140.61647,64,28,0
140.19833,140.6272,76,68,0
140.84148,141.04504,68,27,0
140.84148,141.04504,63,27,0
140.6272,141.05576,75,63,0
141.31618,141.5651,68,27,0
141.31618,141.5651,61,27,0
141.05576,141.57819,73,60,0
141.80174,142.01285,68,27,0
141.80174,142.01285,61,27,0
142.02396,142.23508,68,27,0
142.02396,142.23508,61,27,0
142.24619,142.45729,68,27,0
142.24619,142.45729,61,27,0
142.4684,142.67952,68,27,0
142.4684,142.67952,61,27,0
142.69063,142.90173,68,27,0
142.69063,142.90173,61,27,0
141.57819,142.91284,73,60,0
143.13507,143.34618,68,27,0
143.13507,143.34618,60,27,0
143.35728,143.5684,68,27,0
143.35728,143.5684,60,27,0
143.57951,143.79062,68,27,0
143.57951,143.79062,60,27,0
143.80173,144.01285,68,27,0
143.80173,144.01285,60,27,0
144.02396,144.23506,68,27,0
144.02396,144.23506,60,27,0
142.91284,144.24681,72,61,0
144.48776,144.71669,69,35,0
144.48776,144.71669,60,35,0
144.24681,144.72787,72,58,0
144.94292,145.14722,69,35,0
144.94292,145.14722,61,35,0
145.15797,145.36227,69,35,0
145.15797,145.36227,61,35,0
145.37303,145.57733,69,35,0
145.37303,145.57733,61,35,0
145.58809,145.79239,69,35,0
145.58809,145.79239,61,35,0
145.80313,146.00745,69,35,0
145.80313,146.00745,61,35,0
144.72787,146.01819,73,68,0
146.23325,146.43755,69,35,0
146.23325,146.43755,61,35,0
146.01819,146.4483,73,70,0
146.66336,146.86766,69,35,0
146.66336,146.86766,61,35,0
146.4483,146.87924,73,69,0
147.11923,147.34724,68,44,0
147.11923,147.34724,61,44,0
146.87924,147.35924,73,70,0
147.57507,147.7801,68,44,0
147.57507,147.7801,62,44,0
147.7909,147.99593,68,44,0
147.7909,147.99593,62,44,0
148.00673,148.21176,68,44,0
148.00673,148.21176,62,44,0
148.22255,148.42758,68,44,0
148.22255,148.42758,62,44,0
148.43837,148.64342,68,44,0
148.43837,148.64342,62,44,0
147.35924,148.6542,74,78,0
148.87003,149.08586,68,44,0
148.87003,149.08586,62,44,0
148.6542,149.08586,74,81,0
149.30168,149.5183,68,44,0
149.30168,149.5183,62,44,0
149.08586,149.5183,74,80,0
149.75734,149.98442,68,51,0
149.75734,149.98442,64,51,0
149.5183,149.99554,76,88,0
150.20984,150.4134,68,51,0
150.20984,150.4134,63,51,0
150.42412,150.62769,68,44,0
150.42412,150.62769,63,44,0
150.63841,150.84198,68,51,0
150.63841,150.84198,63,51,0
149.99554,150.85298,75,84,0
151.07603,151.28793,67,52,0
151.07603,151.28793,64,52,0
150.85298,151.29909,76,88,0
151.51337,151.71754,67,52,0
151.51337,151.71754,63,52,0
151.7301,151.9686,67,52,0
151.7301,151.9686,63,52,0
151.98116,152.21965,67,52,0
151.98116,152.21965,63,52,0
151.29909,152.2322,75,84,0
152.48325,152.69435,63,26,0
152.48325,152.69435,59,26,0
152.70546,152.91658,63,26,0
152.70546,152.91658,59,26,0
152.92769,153.1388,63,26,0
152.92769,153.1388,59,26,0
153.1499,153.36102,63,26,0
153.1499,153.36102,59,26,0
153.37213,153.58324,63,26,0
153.37213,153.58324,59,26,0
152.2322,153.59435,68,73,0
153.81657,154.02768,63,24,0
153.81657,154.02768,66,24,0
153.81657,154.02768,60,24,0
154.0388,154.24991,66,28,0
154.0388,154.24991,63,28,0
154.0388,154.24991,60,28,0
154.26102,154.47212,66,35,0
154.26102,154.47212,63,35,0
154.26102,154.47212,60,35,0
154.48517,154.733,66,30,0
154.48517,154.733,63,30,0
154.48517,154.733,60,30,0
154.74605,154.99387,66,26,0
154.74605,154.99387,63,26,0
154.74605,154.99387,60,26,0
153.59435,155.00691,68,52,0
155.23592,155.45348,64,27,0
155.23592,155.45348,56,27,0
155.46492,155.67604,64,26,0
155.46492,155.67604,56,26,0
155.68715,155.89825,64,26,0
155.68715,155.89825,56,26,0
155.90936,156.12048,64,26,0
155.90936,156.12048,56,26,0
156.13159,156.3427,64,26,0
156.13159,156.3427,56,26,0
155.00691,156.35382,68,61,0
156.5681,156.77167,64,26,0
156.5681,156.77167,56,26,0
156.35382,156.78238,68,61,0
156.99667,157.20024,64,27,0
156.99667,157.20024,57,27,0
156.78238,157.21095,69,59,0
157.45876,157.69528,64,26,0
157.45876,157.69528,56,26,0
157.21095,157.70686,68,59,0
157.92992,158.1418,66,26,0
157.92992,158.1418,57,26,0
158.15295,158.36485,66,26,0
158.15295,158.36485,57,26,0
158.376,158.5879,66,26,0
158.376,158.5879,57,26,0
158.59906,158.81096,66,26,0
158.59906,158.81096,57,26,0
158.8221,159.034,66,26,0
158.8221,159.034,57,26,0
157.70686,159.04515,69,60,0
159.2682,159.4801,66,28,0
159.2682,159.4801,56,28,0
159.49126,159.70314,66,29,0
159.49126,159.70314,56,29,0
159.7143,159.9262,66,29,0
159.7143,159.9262,56,29,0
159.93735,160.14925,66,29,0
159.93735,160.14925,56,29,0
160.1604,160.37228,66,29,0
160.1604,160.37228,56,29,0
159.04515,160.38344,68,59,0
160.60649,160.81839,64,26,0
160.60649,160.81839,56,26,0
160.82954,161.04144,64,26,0
160.82954,161.04144,56,26,0
161.05258,161.26448,64,26,0
161.05258,161.26448,56,26,0
161.27563,161.48753,64,26,0
161.27563,161.48753,56,26,0
161.49869,161.71059,64,27,0
161.49869,161.71059,56,27,0
160.38344,161.72174,68,60,0
161.93631,162.13988,68,28,0
161.93631,162.13988,64,28,0
161.72174,162.1506,76,70,0
162.36488,162.56845,68,27,0
162.36488,162.56845,63,27,0
162.1506,162.57916,75,64,0
162.83958,163.0885,68,27,0
162.83958,163.0885,61,27,0
162.57916,163.1016,73,60,0
163.32515,163.53625,68,27,0
163.32515,163.53625,61,27,0
163.54736,163.75847,68,27,0
163.54736,163.75847,61,27,0
163.76959,163.9807,68,27,0
163.76959,163.9807,61,27,0
163.9918,164.20293,68,27,0
163.9918,164.20293,61,27,0
164.21404,164.42514,68,27,0
164.21404,164.42514,61,27,0
163.1016,164.43625,73,60,0
164.65848,164.86958,68,27,0
164.65848,164.86958,60,27,0
164.88069,165.09181,68,27,0
164.88069,165.09181,60,27,0
165.10292,165.31403,68,27,0
165.10292,165.31403,60,27,0
165.32513,165.53625,68,27,0
165.32513,165.53625,60,27,0
165.54736,165.75847,68,27,0
165.54736,165.75847,60,27,0
164.43625,165.7702,72,61,0
166.01117,166.25127,69,35,0
166.01117,166.25127,60,35,0
165.7702,166.25127,72,58,0
166.46632,166.67062,69,35,0
166.46632,166.67062,61,35,0
166.68138,166.88568,69,35,0
166.68138,166.88568,61,35,0
166.89644,167.10074,69,35,0
166.89644,167.10074,61,35,0
167.1115,167.32654,69,35,0
167.1115,167.32654,61,35,0
167.32654,167.5416,69,35,0
167.32654,167.5416,61,35,0
166.25127,167.5416,73,68,0
167.75665,167.97171,69,35,0
167.75665,167.97171,61,35,0
167.5416,167.97171,73,70,0
168.18675,168.40265,69,35,0
168.18675,168.40265,61,35,0
167.97171,168.40265,73,69,0
168.64264,168.87065,68,44,0
168.64264,168.87065,61,44,0
168.40265,168.88264,73,70,0
169.09848,169.30351,68,44,0
169.09848,169.30351,62,44,0
169.3143,169.51933,68,44,0
169.3143,169.51933,62,44,0
169.53012,169.73517,68,44,0
169.53012,169.73517,62,44,0
169.74596,169.95099,68,44,0
169.74596,169.95099,62,44,0
169.96178,170.16682,68,44,0
169.96178,170.16682,62,44,0
168.88264,170.17761,74,78,0
170.39343,170.60927,68,44,0
170.39343,170.60927,62,44,0
170.17761,170.60927,74,80,0
170.82509,171.04169,68,44,0
170.82509,171.04169,62,44,0
170.60927,171.04169,74,75,0
171.28073,171.50783,68,51,0
171.28073,171.50783,64,51,0
171.04169,171.51895,76,88,0
171.73325,171.93681,68,51,0
171.73325,171.93681,63,51,0
171.94753,172.1511,68,44,0
171.94753,172.1511,63,44,0
172.16182,172.36539,68,51,0
172.16182,172.36539,63,51,0
171.51895,172.37639,75,83,0
172.59944,172.81134,67,52,0
172.59944,172.81134,64,52,0
172.37639,172.8225,76,88,0
173.03677,173.24095,67,52,0
173.03677,173.24095,63,52,0
173.25351,173.492,67,52,0
173.25351,173.492,63,52,0
173.50456,173.74304,67,52,0
173.50456,173.74304,63,52,0
172.8225,173.7556,75,83,0
174.00665,174.21776,63,26,0
174.00665,174.21776,59,26,0
174.22887,174.43999,63,26,0
174.22887,174.43999,59,26,0
174.4511,174.6622,63,26,0
174.4511,174.6622,59,26,0
174.67331,174.88443,63,26,0
174.67331,174.88443,59,26,0
174.89554,175.10664,63,26,0
174.89554,175.10664,59,26,0
175.11775,175.32887,63,26,0
175.11775,175.32887,59,26,0
175.33998,175.55109,63,26,0
175.33998,175.55109,59,26,0
173.7556,175.5622,68,70,0
175.78442,176.00923,63,26,0
175.78442,176.00923,59,26,0
175.5622,176.00923,68,48,0
176.2832,176.55717,63,26,0
176.2832,176.55717,59,26,0
176.00923,176.55717,68,42,0
176.79814,177.02705,60,26,0
176.79814,177.02705,63,26,0
176.55717,177.03911,68,59,0
177.26195,177.47307,63,26,0
177.26195,177.47307,60,26,0
177.48418,177.69528,63,26,0
177.48418,177.69528,60,26,0
177.70639,177.91751,63,26,0
177.70639,177.91751,60,26,0
177.92862,178.13972,63,26,0
177.92862,178.13972,60,26,0
178.15085,178.36195,63,26,0
178.15085,178.36195,60,26,0
177.03911,178.37306,69,61,0
178.59529,178.8064,63,26,0
178.59529,178.8064,60,26,0
178.37306,178.8175,68,60,0
179.03973,179.25084,63,26,0
179.03973,179.25084,60,34,0
178.8175,179.26195,66,56,0
179.47624,179.67981,61,26,0
179.47624,179.67981,56,26,0
179.26195,179.69052,64,70,0
179.9048,180.10838,61,29,0
179.9048,180.10838,64,29,0
179.69052,180.1191,68,64,0
180.33337,180.53696,68,31,0
180.33337,180.53696,64,31,0
180.1191,180.54767,73,68,0
180.76195,180.96552,73,34,0
180.76195,180.96552,68,34,0
180.54767,180.97624,76,77,0
181.19052,181.39409,76,37,0
181.19052,181.39409,73,37,0
180.97624,181.4048,80,75,0
181.6191,181.82266,80,39,0
181.6191,181.82266,76,39,0
181.4048,181.83337,85,79,0
182.07242,182.29951,79,51,0
182.07242,182.29951,75,51,0
181.83337,182.31062,87,99,0
182.53285,182.74396,76,45,0
182.53285,182.74396,79,45,0
182.75507,182.96619,76,40,0
182.75507,182.96619,79,40,0
182.9773,183.1884,76,39,0
182.9773,183.1884,79,39,0
183.19951,183.41063,76,37,0
183.19951,183.41063,79,37,0
183.42174,183.63284,79,37,0
183.42174,183.63284,76,37,0
182.31062,183.64395,88,96,0
183.86618,184.07729,79,31,0
183.86618,184.07729,75,31,0
183.64395,184.08948,87,88,0
184.33339,184.5651,79,28,0
184.33339,184.5651,73,28,0
184.08948,184.5758,85,81,0
184.7901,184.99367,80,26,0
184.7901,184.99367,75,26,0
184.5758,185.00438,85,68,0
185.21866,185.42224,80,26,0
185.21866,185.42224,75,26,0
185.00438,185.43295,84,59,0
185.64723,185.8508,75,26,0
185.64723,185.8508,72,26,0
185.43295,185.86153,80,58,0
186.0758,186.27937,72,26,0
186.0758,186.27937,68,26,0
185.86153,186.29008,75,58,0
186.50438,186.70795,68,26,0
186.50438,186.70795,63,26,0
186.29008,186.71866,72,58,0
186.93295,187.13652,63,26,0
186.93295,187.13652,60,26,0
186.71866,187.14851,68,58,0
187.40826,187.65501,60,26,0
187.40826,187.65501,63,26,0
187.14851,187.668,68,59,0
187.89023,188.10133,63,26,0
187.89023,188.10133,60,26,0
188.11244,188.32356,63,26,0
188.11244,188.32356,60,26,0
188.33467,188.54578,63,26,0
188.33467,188.54578,60,26,0
188.55688,188.768,63,26,0
188.55688,188.768,60,26,0
188.77911,188.99022,63,26,0
188.77911,188.99022,60,26,0
187.668,189.00133,69,61,0
189.22356,189.43466,63,26,0
189.22356,189.43466,60,26,0
189.00133,189.44577,68,60,0
189.668,189.89023,63,26,0
189.668,189.89023,60,34,0
189.44577,189.89023,66,56,0
190.1045,190.30807,61,26,0
190.1045,190.30807,56,26,0
189.89023,190.31879,64,70,0
190.53308,190.73665,61,29,0
190.53308,190.73665,64,29,0
190.31879,190.74736,68,64,0
190.96165,191.16522,68,31,0
190.96165,191.16522,64,31,0
190.74736,191.17593,73,68,0
191.39021,191.5938,73,34,0
191.39021,191.5938,68,34,0
191.17593,191.6045,76,77,0
191.81879,192.02235,76,37,0
191.81879,192.02235,73,37,0
191.6045,192.03308,80,75,0
192.24736,192.45093,80,39,0
192.24736,192.45093,76,39,0
192.03308,192.46164,85,79,0
192.70068,192.92778,79,51,0
192.70068,192.92778,75,51,0
192.46164,192.93889,87,99,0
193.16112,193.37222,76,45,0
193.16112,193.37222,79,45,0
193.38333,193.59445,76,40,0
193.38333,193.59445,79,40,0
193.60556,193.81667,76,39,0
193.60556,193.81667,79,39,0
193.82779,194.0389,76,37,0
193.82779,194.0389,79,37,0
194.05,194.26111,79,37,0
194.05,194.26111,76,37,0
192.93889,194.27223,88,96,0
194.49445,194.70555,79,31,0
194.49445,194.70555,75,31,0
194.27223,194.71667,87,88,0
194.93889,195.16112,79,28,0
194.93889,195.16112,73,28,0
194.71667,195.16112,85,81,0
195.38333,195.59445,80,27,0
195.38333,195.59445,76,23,0
195.38333,195.59445,73,23,0
195.60556,195.81667,80,27,0
195.60556,195.81667,76,23,0
195.60556,195.81667,73,23,0
195.82777,196.0389,80,27,0
195.82777,196.0389,76,23,0
195.82777,196.0389,73,23,0
196.05,196.26111,80,27,0
196.05,196.26111,76,23,0
196.05,196.26111,73,23,0
196.27222,196.48334,80,25,0
196.27222,196.48334,76,20,0
196.27222,196.48334,73,20,0
195.16112,196.49445,85,71,0
196.71667,196.92778,75,22,0
196.71667,196.92778,72,22,0
196.93889,197.15,75,20,0
196.93889,197.15,72,20,0
197.16112,197.37222,75,20,0
197.16112,197.37222,72,20,0
197.38333,197.64188,75,20,0
197.38333,197.64188,72,20,0
197.65558,197.91585,75,20,0
197.65558,197.91585,72,20,0
196.49445,197.92955,80,60,0
198.15855,198.37611,56,27,0
198.15855,198.37611,65,27,0
198.38757,198.59868,56,26,0
198.38757,198.59868,65,26,0
198.60979,198.8209,56,26,0
198.60979,198.8209,65,26,0
198.83202,199.04312,56,26,0
198.83202,199.04312,65,26,0
199.05423,199.27646,56,26,0
199.05423,199.27646,65,26,0
197.92955,199.27646,68,48,0
199.52646,199.76396,56,26,0
199.52646,199.76396,65,26,0
199.27646,199.77646,68,45,0
199.99074,200.19432,65,27,0
199.99074,200.19432,58,27,0
199.77646,200.20503,70,52,0
200.42699,200.63809,56,26,0
200.42699,200.64923,65,26,0
200.20503,200.64923,68,45,0
200.87228,201.08418,66,26,0
200.87228,201.08418,56,26,0
201.09534,201.30722,66,26,0
201.09534,201.30722,56,26,0
201.31837,201.53027,66,26,0
201.31837,201.53027,56,26,0
201.54143,201.75333,66,26,0
201.54143,201.75333,56,26,0
201.76448,201.97638,66,26,0
201.76448,201.97638,56,26,0
200.64923,201.98752,70,57,0
202.21057,202.42247,66,28,0
202.21057,202.42247,56,28,0
202.43362,202.64552,66,29,0
202.43362,202.64552,56,29,0
202.65668,202.86856,66,29,0
202.65668,202.86856,56,29,0
202.87971,203.09161,66,29,0
202.87971,203.09161,56,29,0
203.10277,203.31467,66,29,0
203.10277,203.31467,56,29,0
201.98752,203.32582,68,50,0
203.54886,203.76076,56,26,0
203.54886,203.76076,65,26,0
203.77191,203.98381,56,26,0
203.77191,203.98381,65,26,0
203.99496,204.20686,56,26,0
203.99496,204.20686,65,26,0
204.21802,204.4299,56,26,0
204.21802,204.4299,65,26,0
204.44106,204.65295,56,27,0
204.44106,204.65295,65,27,0
203.32582,204.66411,68,52,0
204.8787,205.08226,68,28,0
204.8787,205.08226,65,28,0
204.66411,205.09297,77,64,0
205.30725,205.51083,68,27,0
205.30725,205.51083,63,27,0
205.09297,205.52155,75,59,0
205.78197,206.03087,68,27,0
205.78197,206.03087,61,27,0
205.52155,206.04396,73,60,0
206.26752,206.47862,68,27,0
206.26752,206.47862,61,27,0
206.48973,206.70085,68,27,0
206.48973,206.70085,61,27,0
206.71196,206.92307,68,27,0
206.71196,206.92307,61,27,0
206.93419,207.1453,68,27,0
206.93419,207.1453,61,27,0
207.1564,207.36751,68,27,0
207.1564,207.36751,61,27,0
206.04396,207.37863,73,60,0
207.60085,207.81197,68,27,0
207.60085,207.81197,60,27,0
207.82307,208.03418,68,27,0
207.82307,208.03418,60,27,0
208.04529,208.25641,68,27,0
208.04529,208.25641,60,27,0
208.26752,208.47862,68,27,0
208.26752,208.47862,60,27,0
208.48973,208.70085,68,27,0
208.48973,208.70085,60,27,0
207.37863,208.71259,72,61,0
208.95355,209.18246,69,35,0
208.95355,209.18246,60,35,0
208.71259,209.19365,72,58,0
209.4087,209.613,69,35,0
209.4087,209.613,61,35,0
209.62375,209.82806,69,35,0
209.62375,209.82806,61,35,0
209.8388,210.0431,69,35,0
209.8388,210.0431,61,35,0
210.05386,210.25816,69,35,0
210.05386,210.25816,61,35,0
210.26892,210.47322,69,35,0
210.26892,210.47322,61,35,0
209.19365,210.48398,73,68,0
210.69902,210.91408,69,35,0
210.69902,210.91408,61,35,0
210.48398,210.91408,73,70,0
211.12914,211.34502,69,35,0
211.12914,211.34502,61,35,0
210.91408,211.34502,73,69,0
211.58502,211.81302,68,44,0
211.58502,211.81302,61,44,0
211.34502,211.82501,73,70,0
212.04085,212.24588,68,44,0
212.04085,212.24588,62,44,0
212.25667,212.46172,68,44,0
212.25667,212.46172,62,44,0
212.4725,212.67754,68,44,0
212.4725,212.67754,62,44,0
212.68832,212.89337,68,44,0
212.68832,212.89337,62,44,0
212.90416,213.10919,68,44,0
212.90416,213.10919,62,44,0
211.82501,213.11998,74,78,0
213.33582,213.55164,68,44,0
213.33582,213.55164,62,44,0
213.11998,213.55164,74,75,0
213.76747,213.98407,68,44,0
213.76747,213.98407,62,44,0
213.55164,213.98407,74,75,0
214.22408,214.45207,74,46,0
214.22408,214.45207,65,46,0
213.98407,214.46407,77,84,0
214.6799,214.88493,74,48,0
214.6799,214.88493,66,48,0
214.89572,215.10075,74,47,0
214.89572,215.10075,66,47,0
215.11156,215.31659,74,47,0
215.11156,215.31659,66,47,0
215.32738,215.53241,74,47,0
215.32738,215.53241,66,47,0
215.54321,215.74825,74,47,0
215.54321,215.74825,66,47,0
214.46407,215.75903,78,88,0
215.97485,216.19069,74,48,0
215.97485,216.19069,66,48,0
215.75903,216.19069,78,86,0
216.40651,216.62312,74,47,0
216.40651,216.62312,66,47,0
216.19069,216.62312,78,86,0
216.86311,217.10312,73,47,0
216.86311,217.10312,66,47,0
216.62312,217.10312,78,86,0
217.31894,217.52399,73,49,0
217.31894,217.52399,67,49,0
217.53477,217.7398,73,49,0
217.53477,217.7398,67,49,0
217.7506,217.95564,73,49,0
217.7506,217.95564,67,49,0
217.96643,218.17146,73,49,0
217.96643,218.17146,67,49,0
218.18225,218.38728,73,49,0
218.18225,218.38728,67,49,0
217.10312,218.39809,79,96,0
218.6139,218.82974,73,48,0
218.6139,218.82974,67,48,0
218.39809,218.82974,79,93,0
219.04556,219.26216,73,50,0
219.04556,219.26216,67,50,0
218.82974,219.26216,79,96,0
219.5012,219.7283,69,51,0
219.5012,219.7283,73,51,0
219.26216,219.73943,81,98,0
219.95372,220.15729,73,51,0
219.95372,220.15729,68,51,0
220.168,220.37157,73,44,0
220.168,220.37157,68,44,0
220.38228,220.58586,73,51,0
220.38228,220.58586,68,51,0
219.73943,220.59686,80,95,0
220.81992,221.03181,72,52,0
220.81992,221.03181,69,52,0
220.59686,221.04295,81,97,0
221.25725,221.46143,72,52,0
221.25725,221.46143,68,52,0
221.47398,221.71248,72,52,0
221.47398,221.71248,68,52,0
221.72502,221.96352,72,52,0
221.72502,221.96352,68,52,0
221.04295,221.97607,80,93,0
222.22711,222.43823,64,44,0
222.22711,222.43823,61,44,0
222.22711,222.43823,68,44,0
222.44934,222.66045,64,44,0
222.44934,222.66045,61,44,0
222.44934,222.66045,68,44,0
222.67157,222.88268,64,44,0
222.67157,222.88268,61,44,0
222.67157,222.88268,68,44,0
222.89378,223.10489,64,44,0
222.89378,223.10489,61,44,0
222.89378,223.10489,68,44,0
223.11601,223.32712,64,44,0
223.11601,223.32712,61,44,0
223.11601,223.32712,68,44,0
223.33823,223.54935,64,44,0
223.33823,223.54935,61,44,0
223.33823,223.54935,68,44,0
223.56046,223.77156,64,44,0
223.56046,223.77156,61,44,0
223.56046,223.77156,68,44,0
221.97607,223.78267,73,86,0
224.0049,224.216,64,26,0
224.0049,224.216,61,26,0
223.78267,224.2297,68,48,0
224.50368,224.76395,64,26,0
224.50368,224.76395,61,26,0
224.2297,224.77765,68,42,0
225.01862,225.24753,60,26,0
225.01862,225.24753,63,26,0
224.77765,225.25958,68,59,0
225.48242,225.69354,63,26,0
225.48242,225.69354,60,26,0
225.70465,225.91576,63,26,0
225.70465,225.91576,60,26,0
225.92686,226.13799,63,26,0
225.92686,226.13799,60,26,0
226.1491,226.3602,63,26,0
226.1491,226.3602,60,26,0
226.3713,226.58243,63,26,0
226.3713,226.58243,60,26,0
225.25958,226.59354,69,61,0
226.81575,227.02687,63,26,0
226.81575,227.02687,60,26,0
226.59354,227.03798,68,60,0
227.2602,227.47131,63,26,0
227.2602,227.47131,60,34,0
227.03798,227.48242,66,56,0
227.6967,227.90028,61,26,0
227.6967,227.90028,56,26,0
227.48242,227.911,64,69,0
228.12527,228.32886,61,29,0
228.12527,228.32886,64,29,0
227.911,228.33957,68,64,0
228.55385,228.75742,68,31,0
228.55385,228.75742,64,31,0
228.33957,228.76814,73,68,0
228.98242,229.18599,73,34,0
228.98242,229.18599,68,34,0
228.76814,229.1967,76,77,0
229.411,229.61456,76,37,0
229.411,229.61456,73,37,0
229.1967,229.62527,80,75,0
229.83957,230.04314,80,39,0
229.83957,230.04314,76,39,0
229.62527,230.05385,85,79,0
230.2929,230.51999,79,51,0
230.2929,230.51999,75,51,0
230.05385,230.5311,87,99,0
230.75331,230.96443,76,45,0
230.75331,230.96443,79,45,0
230.97554,231.18665,76,40,0
230.97554,231.18665,79,40,0
231.19775,231.40887,76,39,0
231.19775,231.40887,79,39,0
231.41998,231.63109,76,37,0
231.41998,231.63109,79,37,0
231.64221,231.85332,79,37,0
231.64221,231.85332,76,37,0
230.5311,231.86443,88,96,0
232.08665,232.29776,79,31,0
232.08665,232.29776,75,31,0
231.86443,232.30995,87,88,0
232.55386,232.78557,79,28,0
232.55386,232.78557,73,28,0
232.30995,232.79628,85,81,0
233.01056,233.22485,80,26,0
233.01056,233.22485,75,26,0
232.79628,233.22485,85,68,0
233.43913,233.65343,80,26,0
233.43913,233.65343,75,26,0
233.22485,233.65343,84,59,0
233.8677,234.07127,75,26,0
233.8677,234.07127,72,26,0
233.65343,234.08199,80,58,0
234.29628,234.49985,72,26,0
234.29628,234.49985,68,26,0
234.08199,234.51056,75,58,0
234.72485,234.92842,68,26,0
234.72485,234.92842,63,26,0
234.51056,234.93913,72,58,0
235.15343,235.357,63,26,0
235.15343,235.357,60,26,0
234.93913,235.36899,68,58,0
235.62874,235.87549,60,26,0
235.62874,235.87549,63,26,0
235.36899,235.88847,68,59,0
236.11069,236.32181,63,26,0
236.11069,236.32181,60,26,0
236.33292,236.54402,63,26,0
236.33292,236.54402,60,26,0
236.55515,236.76625,63,26,0
236.55515,236.76625,60,26,0
236.77736,236.98846,63,26,0
236.77736,236.98846,60,26,0
236.99959,237.2107,63,26,0
236.99959,237.2107,60,26,0
235.88847,237.2218,69,61,0
237.44403,237.65514,63,26,0
237.44403,237.65514,60,26,0
237.2218,237.66624,68,60,0
237.88847,238.09958,63,26,0
237.88847,238.09958,60,34,0
237.66624,238.11069,66,56,0
238.32498,238.52855,61,26,0
238.32498,238.52855,56,26,0
238.11069,238.53926,64,68,0
238.75356,238.95712,61,29,0
238.75356,238.95712,64,29,0
238.53926,238.96783,68,64,0
239.18211,239.3857,68,31,0
239.18211,239.3857,64,31,0
238.96783,239.39641,73,68,0
239.61069,239.81425,73,34,0
239.61069,239.81425,68,34,0
239.39641,239.82498,76,71,0
240.03926,240.24283,76,37,0
240.03926,240.24283,73,37,0
239.82498,240.25354,80,75,0
240.46783,240.6714,80,39,0
240.46783,240.6714,76,39,0
240.25354,240.68211,85,79,0
240.92116,241.14825,79,51,0
240.92116,241.14825,75,51,0
240.68211,241.15936,87,99,0
241.38159,241.5927,76,45,0
241.38159,241.5927,79,45,0
241.6038,241.81493,76,40,0
241.6038,241.81493,79,40,0
241.82603,242.03714,76,39,0
241.82603,242.03714,79,39,0
242.04825,242.25937,76,37,0
242.04825,242.25937,79,37,0
242.27048,242.48158,79,37,0
242.27048,242.48158,76,37,0
241.15936,242.49269,88,96,0
242.71492,242.92603,79,31,0
242.71492,242.92603,75,31,0
242.49269,242.93713,87,88,0
243.15936,243.37047,79,28,0
243.15936,243.37047,73,28,0
242.93713,243.38159,85,81,0
243.6038,243.81491,80,27,0
243.6038,243.81491,76,27,0
243.6038,243.81491,73,27,0
243.82603,244.03714,80,27,0
243.82603,244.03714,76,27,0
243.82603,244.03714,73,27,0
244.04825,244.25937,80,27,0
244.04825,244.25937,76,27,0
244.04825,244.25937,73,27,0
244.27048,244.48158,80,27,0
244.27048,244.48158,76,27,0
244.27048,244.48158,73,27,0
244.49269,244.70381,80,25,0
244.49269,244.70381,76,25,0
244.49269,244.70381,73,25,0
243.38159,244.71492,85,71,0
244.93713,245.14825,75,22,0
244.93713,245.14825,72,22,0
245.15936,245.37047,75,20,0
245.15936,245.37047,72,20,0
245.38158,245.5927,75,20,0
245.38158,245.5927,72,20,0
245.6038,245.86235,75,20,0
245.6038,245.86235,72,20,0
245.87605,246.13632,75,20,0
245.87605,246.13632,72,20,0
244.71492,246.15002,80,62,0
246.37903,246.59659,56,27,0
246.37903,246.59659,65,27,0
246.60805,246.81915,56,26,0
246.60805,246.81915,65,26,0
246.83026,247.04137,56,26,0
246.83026,247.04137,65,26,0
247.05249,247.2636,56,26,0
247.05249,247.2636,65,26,0
247.2747,247.48581,56,26,0
247.2747,247.48581,65,26,0
246.15002,247.49693,68,48,0
247.74693,247.98442,56,26,0
247.74693,247.98442,65,26,0
247.49693,247.99515,68,50,0
248.20943,248.413,65,27,0
248.20943,248.413,58,27,0
247.99515,248.4237,70,52,0
248.64594,248.85704,56,26,0
248.64594,248.85704,65,26,0
248.4237,248.86818,68,45,0
249.09123,249.30313,66,26,0
249.09123,249.30313,56,26,0
249.31429,249.52618,66,26,0
249.31429,249.52618,56,26,0
249.53732,249.74922,66,26,0
249.53732,249.74922,56,26,0
249.76038,249.97227,66,26,0
249.76038,249.97227,56,26,0
249.98343,250.20648,66,26,0
249.98343,250.20648,56,26,0
248.86818,250.20648,70,57,0
250.42952,250.64142,66,28,0
250.42952,250.64142,56,28,0
250.65257,250.86447,66,29,0
250.65257,250.86447,56,29,0
250.87563,251.08752,66,29,0
250.87563,251.08752,56,29,0
251.09866,251.31056,66,29,0
251.09866,251.31056,56,29,0
251.32172,251.53362,66,29,0
251.32172,251.53362,56,29,0
250.20648,251.54477,68,50,0
251.76782,251.9797,56,26,0
251.76782,251.9797,65,26,0
251.99086,252.20276,56,26,0
251.99086,252.20276,65,26,0
252.21391,252.42581,56,26,0
252.21391,252.42581,65,26,0
252.43697,252.64885,56,26,0
252.43697,252.64885,65,26,0
252.66,252.88306,56,27,0
252.66,252.88306,65,27,0
251.54477,252.88306,68,52,0
253.09764,253.30121,68,28,0
253.09764,253.30121,65,28,0
252.88306,253.31192,77,66,0
253.5262,253.72978,68,27,0
253.5262,253.72978,63,27,0
253.31192,253.7405,75,62,0
254.00092,254.24982,68,27,0
254.00092,254.24982,61,27,0
253.7405,254.26292,73,60,0
254.48647,254.69757,68,27,0
254.48647,254.69757,61,27,0
254.7087,254.9198,68,27,0
254.7087,254.9198,61,27,0
254.93091,255.14203,68,27,0
254.93091,255.14203,61,27,0
255.15314,255.36424,68,27,0
255.15314,255.36424,61,27,0
255.37535,255.58647,68,27,0
255.37535,255.58647,61,27,0
254.26292,255.59758,73,60,0
255.8198,256.0309,68,27,0
255.8198,256.0309,60,27,0
256.04202,256.25314,68,27,0
256.04202,256.25314,60,27,0
256.26425,256.47534,68,27,0
256.26425,256.47534,60,27,0
256.48645,256.69757,68,27,0
256.48645,256.69757,60,27,0
256.70868,256.9198,68,27,0
256.70868,256.9198,60,27,0
255.59758,256.93152,72,61,0
257.1725,257.4014,69,35,0
257.1725,257.4014,60,35,0
256.93152,257.4126,72,58,0
257.62766,257.83194,69,35,0
257.62766,257.83194,61,35,0
257.8427,258.047,69,35,0
257.8427,258.047,61,35,0
258.05777,258.26205,69,35,0
258.05777,258.26205,61,35,0
258.27283,258.4771,69,35,0
258.27283,258.4771,61,35,0
258.48785,258.69217,69,35,0
258.48785,258.69217,61,35,0
257.4126,258.7029,73,68,0
258.91797,259.13303,69,35,0
258.91797,259.13303,61,35,0
258.7029,259.13303,73,70,0
259.34808,259.56396,69,35,0
259.34808,259.56396,61,35,0
259.13303,259.56396,73,69,0
259.80396,260.03198,68,44,0
259.80396,260.03198,61,44,0
259.56396,260.04398,73,70,0
260.2598,260.46484,68,44,0
260.2598,260.46484,62,44,0
260.47562,260.68066,68,44,0
260.47562,260.68066,62,44,0
260.69144,260.89648,68,44,0
260.69144,260.89648,62,44,0
260.9073,261.1123,68,44,0
260.9073,261.1123,62,44,0
261.1231,261.32816,68,44,0
261.1231,261.32816,62,44,0
260.04398,261.33893,74,78,0
261.55475,261.7706,68,44,0
261.55475,261.7706,62,44,0
261.33893,261.7706,74,75,0
261.98642,262.203,68,44,0
261.98642,262.203,62,44,0
261.7706,262.203,74,75,0
262.44302,262.67102,74,46,0
262.44302,262.67102,65,46,0
262.203,262.683,77,84,0
262.89883,263.10388,74,48,0
262.89883,263.10388,66,48,0
263.1147,263.3197,74,47,0
263.1147,263.3197,66,47,0
263.3305,263.53552,74,47,0
263.3305,263.53552,66,47,0
263.54633,263.75137,74,47,0
263.54633,263.75137,66,47,0
263.76215,263.9672,74,47,0
263.76215,263.9672,66,47,0
262.683,263.978,78,88,0
264.19382,264.40964,74,48,0
264.19382,264.40964,66,48,0
263.978,264.40964,78,86,0
264.62546,264.84207,74,47,0
264.62546,264.84207,66,47,0
264.40964,264.84207,78,86,0
265.08206,265.32205,73,47,0
265.08206,265.32205,66,47,0
264.84207,265.32205,78,86,0
265.5379,265.74292,73,49,0
265.5379,265.74292,67,49,0
265.75372,265.95877,73,49,0
265.75372,265.95877,67,49,0
265.96954,266.1746,73,49,0
265.96954,266.1746,67,49,0
266.18536,266.3904,73,49,0
266.18536,266.3904,67,49,0
266.4012,266.60623,73,49,0
266.4012,266.60623,67,49,0
265.32205,266.61703,79,96,0
266.83286,267.04868,73,48,0
266.83286,267.04868,67,48,0
266.61703,267.04868,79,94,0
267.26453,267.4811,73,50,0
267.26453,267.4811,67,50,0
267.04868,267.4811,79,97,0
267.72015,267.94727,69,51,0
267.72015,267.94727,73,51,0
267.4811,267.95837,81,99,0
268.17267,268.37622,73,51,0
268.17267,268.37622,68,51,0
268.38696,268.5905,73,44,0
268.38696,268.5905,68,44,0
268.60123,268.8048,73,51,0
268.60123,268.8048,68,51,0
267.95837,268.81583,80,96,0
269.03885,269.25076,72,52,0
269.03885,269.25076,69,52,0
268.81583,269.2619,81,99,0
269.4762,269.6804,72,52,0
269.4762,269.6804,68,52,0
269.69293,269.93143,72,52,0
269.69293,269.93143,68,52,0
269.94397,270.18246,72,52,0
269.94397,270.18246,68,52,0
269.2619,270.19504,80,95,0
270.44608,270.65717,64,44,0
270.44608,270.65717,61,44,0
270.44608,270.65717,68,44,0
270.6683,270.8794,64,44,0
270.6683,270.8794,61,44,0
270.6683,270.8794,68,44,0
270.8905,271.10162,64,44,0
270.8905,271.10162,61,44,0
270.8905,271.10162,68,44,0
271.11273,271.32385,64,44,0
271.11273,271.32385,61,44,0
271.11273,271.32385,68,44,0
271.33496,271.54608,64,44,0
271.33496,271.54608,61,44,0
271.33496,271.54608,68,44,0
271.5572,271.76828,64,44,0
271.5572,271.76828,61,44,0
271.5572,271.76828,68,44,0
271.7794,271.9905,64,44,0
271.7794,271.9905,61,44,0
271.7794,271.9905,68,44,0
270.19504,272.00162,73,86,0
272.22385,272.43497,64,26,0
272.22385,272.43497,61,26,0
272.00162,272.44608,68,48,0
272.6683,272.8794,64,26,0
272.6683,272.8794,61,26,0
272.44608,272.8905,68,42,0
273.11273,273.32385,64,26,0
273.11273,273.32385,61,26,0
273.33496,273.54605,64,26,0
273.33496,273.54605,61,26,0
273.5572,273.76828,64,26,0
273.5572,273.76828,61,26,0
273.7794,273.9905,64,26,0
273.7794,273.9905,61,26,0
274.00162,274.21274,64,26,0
274.00162,274.21274,61,26,0
274.22385,274.43497,64,26,0
274.22385,274.43497,61,26,0
274.44608,274.65717,64,26,0
274.44608,274.65717,61,26,0
272.8905,274.66827,68,42,0
274.91934,275.15784,64,26,0
274.91934,275.15784,61,26,0
274.66827,275.17038,68,42,0
275.42142,275.6599,64,26,0
275.42142,275.6599,61,26,0
275.17038,275.6725,70,42,0
275.89468,276.1058,61,26,0
275.89468,276.1058,58,26,0
276.1169,276.32803,61,26,0
276.1169,276.32803,58,26,0
276.33914,276.55026,61,25,0
276.33914,276.55026,58,25,0
276.56137,276.77246,61,25,0
276.56137,276.77246,58,25,0
276.78357,276.9947,61,24,0
276.78357,276.9947,58,24,0
277.0058,277.2166,61,24,0
277.0058,277.2166,58,24,0
277.22775,277.4404,61,24,0
277.22775,277.4404,58,24,0
277.45163,277.66608,61,23,0
277.45163,277.66608,58,23,0
277.6774,277.8938,61,23,0
277.6774,277.8938,58,23,0
277.90527,278.1236,61,22,0
277.90527,278.1236,58,22,0
278.13513,278.35538,61,22,0
278.13513,278.35538,58,22,0
275.6725,278.367,68,37,0
278.6011,278.82544,61,22,0
278.6011,278.82544,58,22,0
278.83728,279.06366,61,22,0
278.83728,279.06366,58,22,0
279.07562,279.30417,61,20,0
279.07562,279.30417,58,20,0
279.31628,279.54697,61,20,0
279.31628,279.54697,58,20,0
279.55917,279.79202,61,19,0
279.55917,279.79202,58,19,0
279.80432,280.03888,61,19,0
279.80432,280.03888,58,19,0
280.05124,280.2858,61,19,0
280.05124,280.2858,58,19,0
280.29813,280.5327,61,18,0
280.29813,280.5327,58,18,0
280.54504,280.77963,61,18,0
280.54504,280.77963,58,18,0
280.79196,281.07657,61,17,0
280.79196,281.07657,58,17,0
281.09164,281.37808,61,17,0
281.09164,281.37808,58,17,0
278.367,281.39316,67,31,0
281.39316,281.50766,67,41,0
281.50766,281.62082,70,34,0
281.62082,281.73254,67,41,0
281.73254,281.84296,64,34,0
281.84296,281.95206,70,41,0
281.95206,282.05978,73,34,0
282.05978,282.16635,70,41,0
282.16635,282.2716,67,34,0
282.2716,282.37567,73,41,0
282.37567,282.47858,76,34,0
282.47858,282.58032,73,41,0
282.58032,282.68112,70,34,0
282.68112,282.7818,76,40,0
282.7818,282.88248,79,36,0
282.88248,282.98312,76,46,0
282.98312,283.0838,73,42,0
283.0838,283.18448,79,53,0
283.18448,283.28516,82,47,0
283.28516,283.38583,79,60,0
283.38583,283.48648,76,53,0
283.48648,283.58716,82,66,0
283.58716,283.68784,85,59,0
283.68784,283.7885,82,73,0
283.7885,283.88824,79,64,0
283.88824,283.98627,85,80,0
283.98627,284.08432,88,68,0
284.08432,284.18234,85,79,0
284.18234,284.2806,82,66,0
284.2806,284.37897,85,77,0
284.37897,284.47733,88,64,0
284.47733,284.5757,85,75,0
284.5757,284.67438,82,63,0
284.67438,284.77307,85,74,0
284.77307,284.87177,88,62,0
284.87177,284.97055,85,72,0
284.97055,285.06958,82,60,0
285.06958,285.16858,85,70,0
285.16858,285.2676,88,59,0
285.2676,285.36694,85,69,0
285.36694,285.46628,82,57,0
285.46628,285.5656,85,67,0
285.5656,285.66507,88,56,0
285.66507,285.76474,85,65,0
285.76474,285.8644,82,55,0
285.8644,285.96408,85,64,0
285.96408,286.06396,88,53,0
286.06396,286.16397,85,62,0
286.16397,286.26398,82,51,0
286.26398,286.36407,85,60,0
286.36407,286.46442,87,51,0
286.46442,286.56476,85,59,0
286.56476,286.6651,82,49,0
286.6651,286.7654,85,57,0
286.7654,286.86575,87,47,0
286.86575,286.9661,85,55,0
286.9661,287.06644,82,46,0
287.06644,287.16675,85,54,0
287.16675,287.2671,87,45,0
287.2671,287.36743,85,52,0
287.36743,287.46768,82,43,0
287.46768,287.56732,85,50,0
287.56732,287.6674,87,42,0
287.6674,287.76794,85,49,0
287.76794,287.86902,82,40,0
287.86902,287.9706,85,47,0
287.9706,288.07272,87,39,0
288.07272,288.17535,85,45,0
288.17535,288.27853,82,38,0
288.27853,288.40353,85,44,0
288.40353,288.52853,87,36,0
288.52853,288.65353,85,42,0
288.65353,288.77853,82,34,0
288.77853,288.8769,83,40,0
288.8769,288.9749,87,34,0
288.9749,289.07297,83,40,0
289.07297,289.14658,80,34,0
289.17117,289.26953,80,40,0
289.26953,289.3679,83,34,0
289.3679,289.4664,80,40,0
289.4664,289.54044,75,34,0
289.5651,289.6638,75,40,0
289.6638,289.76263,80,34,0
289.76263,289.86163,75,40,0
289.86163,289.93588,71,34,0
289.96066,290.05972,71,40,0
290.05972,290.15906,75,34,0
290.15906,290.2584,71,40,0
290.2584,290.3329,68,34,0
290.3578,290.45746,68,40,0
290.45746,290.55713,71,34,0
290.55713,290.65683,68,40,0
290.65683,290.75684,63,34,0
290.75684,290.9955,70,36,0
290.75684,290.9955,67,30,0
291.23184,291.3299,83,40,0
291.3299,291.42792,87,34,0
291.42792,291.52597,83,40,0
291.52597,291.59967,80,34,0
291.62427,291.72263,80,40,0
291.72263,291.82098,83,34,0
291.82098,291.91953,80,40,0
291.91953,291.99353,75,34,0
292.0182,292.11688,75,40,0
292.11688,292.21573,80,34,0
292.21573,292.31473,75,40,0
292.31473,292.389,71,34,0
292.41376,292.51282,71,40,0
292.51282,292.61215,75,34,0
292.61215,292.7115,71,40,0
292.7115,292.78598,68,34,0
292.81082,292.91043,68,40,0
292.91043,293.0101,71,34,0
293.0101,293.10977,68,40,0
293.10977,293.21143,63,34,0
293.21143,293.46246,70,36,0
293.21143,293.46246,67,30,0
293.7135,294.1905,71,31,0
293.7135,294.1905,68,31,0
294.2144,294.62152,76,31,0
294.2144,294.62152,70,31,0
294.2144,294.62152,67,31,0
294.64294,295.0501,76,36,0
294.64294,295.0501,70,36,0
294.64294,295.0501,67,36,0
295.07153,295.54532,76,37,0
295.07153,295.54532,67,37,0
295.07153,295.54532,70,37,0
295.57034,296.04532,75,31,0
295.57034,296.04532,70,31,0
295.57034,296.04532,67,31,0
296.0711,296.58926,73,31,0
296.0711,296.58926,70,31,0
296.0711,296.58926,67,31,0
296.61655,296.7154,83,40,0
296.7154,296.81314,87,34,0
296.81314,296.91086,83,40,0
296.91086,296.98422,80,34,0
297.00873,297.10675,80,40,0
297.10675,297.2048,83,34,0
297.2048,297.3031,80,40,0
297.3031,297.3769,75,34,0
297.40146,297.49988,75,40,0
297.49988,297.59857,80,34,0
297.59857,297.69727,75,40,0
297.69727,297.77136,71,34,0
297.7961,297.8951,71,40,0
297.8951,297.9941,75,34,0
297.9941,298.0934,71,40,0
298.0934,298.1679,68,34,0
298.19275,298.29214,68,40,0
298.29214,298.3918,71,34,0
298.3918,298.4915,68,40,0
298.4915,298.5913,63,34,0
298.5913,298.8313,70,36,0
298.5913,298.8313,67,30,0
299.07132,299.17154,83,40,0
299.17154,299.27023,87,34,0
299.27023,299.3689,83,40,0
299.3689,299.44293,80,34,0
299.4676,299.56656,80,40,0
299.56656,299.66556,83,34,0
299.66556,299.76456,80,40,0
299.76456,299.83884,75,34,0
299.8636,299.96286,75,40,0
299.96286,300.0622,80,34,0
300.0622,300.16153,75,40,0
300.16153,300.23605,71,34,0
300.26093,300.3606,71,40,0
300.3606,300.46027,75,34,0
300.46027,300.55994,71,40,0
300.55994,300.63467,68,34,0
300.65967,300.75964,68,40,0
300.75964,300.85965,71,34,0
300.85965,300.95966,68,40,0
300.95966,301.0598,63,34,0
301.0598,301.2906,70,36,0
301.0598,301.2906,67,30,0
301.52136,301.99835,71,31,0
301.52136,301.99835,68,31,0
302.02222,302.42938,76,31,0
302.02222,302.42938,70,31,0
302.02222,302.42938,66,31,0
302.4508,302.85794,76,36,0
302.4508,302.85794,70,36,0
302.4508,302.85794,66,36,0
302.87936,303.35318,76,37,0
302.87936,303.35318,70,37,0
302.87936,303.35318,66,37,0
303.37817,303.85318,75,31,0
303.37817,303.85318,70,31,0
303.37817,303.85318,66,31,0
303.87894,304.39713,70,31,0
303.87894,304.39713,74,31,0
303.87894,304.39713,66,31,0
304.4244,304.52304,87,50,0
304.52304,304.6214,90,42,0
304.6214,304.71976,87,50,0
304.71976,304.7936,83,42,0
304.81827,304.91696,83,50,0
304.91696,305.01562,87,42,0
305.01562,305.11438,83,50,0
305.11438,305.18863,78,42,0
305.21338,305.3124,78,50,0
305.3124,305.41147,83,42,0
305.41147,305.5108,78,50,0
305.5108,305.5853,75,42,0
305.61014,305.70947,75,50,0
305.70947,305.80908,78,42,0
305.80908,305.90875,75,50,0
305.90875,305.98352,71,42,0
306.00842,306.10825,71,50,0
306.10825,306.20825,75,42,0
306.20825,306.30826,71,50,0
306.30826,306.40842,66,42,0
306.40842,306.64713,73,45,0
306.40842,306.64713,70,37,0
306.8835,306.98187,87,50,0
306.98187,307.08023,90,42,0
307.08023,307.1786,87,50,0
307.1786,307.25256,83,42,0
307.27722,307.37592,83,50,0
307.37592,307.47458,87,42,0
307.47458,307.57343,83,50,0
307.57343,307.6477,78,42,0
307.67245,307.77145,78,50,0
307.77145,307.8705,83,42,0
307.8705,307.96985,78,50,0
307.96985,308.04437,75,42,0
308.06918,308.16855,75,50,0
308.16855,308.26816,78,42,0
308.26816,308.36783,75,50,0
308.36783,308.44257,71,42,0
308.46747,308.56732,71,50,0
308.56732,308.66733,75,42,0
308.66733,308.7673,71,50,0
308.7673,308.86737,66,42,0
308.86737,309.09814,73,45,0
308.86737,309.09814,70,37,0
309.32892,309.76736,75,41,0
309.32892,309.76736,71,41,0
309.7899,310.19705,80,47,0
309.7899,310.19705,73,47,0
309.7899,310.19705,70,47,0
310.21848,310.6256,80,48,0
310.21848,310.6256,73,48,0
310.21848,310.6256,70,48,0
310.64923,311.09805,80,49,0
310.64923,311.09805,73,49,0
310.64923,311.09805,70,49,0
311.12167,311.5705,75,39,0
311.12167,311.5705,70,39,0
311.12167,311.5705,78,39,0
311.59534,312.11353,70,39,0
311.59534,312.11353,76,39,0
312.14078,312.23917,86,50,0
312.23917,312.3372,90,42,0
312.3372,312.43524,86,50,0
312.43524,312.50894,83,42,0
312.53354,312.6319,83,50,0
312.6319,312.73032,86,42,0
312.73032,312.829,83,50,0
312.829,312.903,78,42,0
312.92767,313.02643,78,50,0
313.02643,313.12543,83,42,0
313.12543,313.22446,78,50,0
313.22446,313.29877,74,42,0
313.3236,313.42294,74,50,0
313.42294,313.52228,78,42,0
313.52228,313.6218,74,50,0
313.6218,313.69653,71,42,0
313.72147,313.82114,71,50,0
313.82114,313.92108,74,42,0
313.92108,314.0211,71,50,0
314.0211,314.12112,66,42,0
314.12112,314.35983,73,45,0
314.12112,314.35983,70,37,0
314.59982,314.69846,86,50,0
314.69846,314.7968,90,42,0
314.7968,314.89517,86,50,0
314.89517,314.96902,83,42,0
314.99368,315.09238,83,50,0
315.09238,315.19107,86,42,0
315.19107,315.2898,83,50,0
315.2898,315.36407,78,42,0
315.38882,315.48782,78,50,0
315.48782,315.58682,83,42,0
315.58682,315.68613,78,50,0
315.68613,315.76062,74,42,0
315.78546,315.8848,74,50,0
315.8848,315.98428,78,42,0
315.98428,316.08395,74,50,0
316.08395,316.15872,71,42,0
316.18362,316.28336,71,50,0
316.28336,316.38336,74,42,0
316.38336,316.48337,71,50,0
316.48337,316.5834,66,42,0
316.5834,316.8221,73,45,0
316.5834,316.8221,70,37,0
317.0627,317.5541,71,41,0
317.0627,317.5541,66,41,0
317.0627,317.5541,74,41,0
317.5785,317.98563,83,50,0
317.5785,317.98563,76,50,0
317.5785,317.98563,73,50,0
318.00705,318.41418,83,48,0
318.00705,318.41418,76,48,0
318.00705,318.41418,73,48,0
318.43564,318.84277,83,46,0
318.43564,318.84277,76,46,0
318.43564,318.84277,73,46,0
318.8642,319.27133,81,44,0
318.8642,319.27133,78,44,0
318.8642,319.27133,73,44,0
319.29276,319.69992,79,42,0
319.29276,319.69992,73,42,0
319.72134,320.1467,78,38,0
319.72134,320.1467,74,38,0
320.1691,320.57623,79,46,0
320.1691,320.57623,73,46,0
320.1691,320.57623,70,46,0
320.59766,321.00482,79,46,0
320.59766,321.00482,73,46,0
320.59766,321.00482,70,46,0
321.02625,321.43338,70,46,0
321.02625,321.43338,79,46,0
321.02625,321.43338,73,46,0
321.4548,321.86197,70,44,0
321.4548,321.86197,73,44,0
321.4548,321.86197,78,44,0
321.8834,322.29053,73,42,0
321.8834,322.29053,76,42,0
322.31195,322.75153,71,41,0
322.31195,322.75153,75,41,0
322.7747,323.18182,76,49,0
322.7747,323.18182,64,49,0
322.7747,323.18182,68,49,0
323.20328,323.6104,64,49,0
323.20328,323.6104,68,49,0
323.20328,323.6104,76,49,0
323.63184,324.03897,76,49,0
323.63184,324.03897,64,49,0
323.63184,324.03897,68,49,0
324.0604,324.46756,63,49,0
324.0604,324.46756,68,49,0
324.0604,324.46756,75,49,0
324.48898,324.89612,68,47,0
324.48898,324.89612,73,47,0
324.48898,324.89612,61,47,0
324.91754,325.34293,71,48,0
324.91754,325.34293,68,48,0
324.91754,325.34293,63,48,0
325.36533,325.79068,71,48,0
325.36533,325.79068,68,48,0
325.36533,325.79068,63,48,0
325.81308,326.29007,71,48,0
325.81308,326.29007,68,48,0
325.81308,326.29007,63,48,0
326.31424,326.73804,70,33,0
326.31424,326.73804,67,33,0
326.31424,326.73804,63,33,0
326.7603,327.1841,70,34,0
326.7603,327.1841,67,34,0
326.7603,327.1841,63,34,0
327.20642,327.70294,70,34,0
327.20642,327.70294,67,34,0
327.20642,327.70294,63,34,0
327.72708,327.82535,84,40,0
327.82535,327.92337,87,34,0
327.92337,328.02142,84,40,0
328.02142,328.09506,80,34,0
328.11963,328.218,80,40,0
328.218,328.31635,84,34,0
328.31635,328.4148,80,40,0
328.4148,328.4888,75,34,0
328.5135,328.61215,75,40,0
328.61215,328.7109,80,34,0
328.7109,328.80994,75,40,0
328.80994,328.8842,72,34,0
328.90894,329.00793,72,40,0
329.00793,329.10724,75,34,0
329.10724,329.20657,72,40,0
329.20657,329.2811,68,34,0
329.3059,329.40543,68,40,0
329.40543,329.5051,72,34,0
329.5051,329.60477,68,40,0
329.60477,329.70462,63,34,0
329.70462,329.9433,70,36,0
329.70462,329.9433,67,30,0
330.1786,330.27698,84,40,0
330.27698,330.37534,87,34,0
330.37534,330.4737,84,40,0
330.4737,330.54745,80,34,0
330.5721,330.6708,80,40,0
330.6708,330.76947,84,34,0
330.76947,330.86816,80,40,0
330.86816,330.94217,75,34,0
330.96692,331.06595,75,40,0
331.06595,331.16495,80,34,0
331.16495,331.26395,75,40,0
331.26395,331.33832,72,34,0
331.36313,331.4625,72,40,0
331.4625,331.56183,75,34,0
331.56183,331.66116,72,40,0
331.66116,331.73575,68,34,0
331.76068,331.86035,68,40,0
331.86035,331.96002,72,34,0
331.96002,332.0597,68,40,0
332.0597,332.15964,63,34,0
332.15964,332.39832,70,36,0
332.15964,332.39832,67,30,0
332.62607,332.7238,87,45,0
332.7238,332.8215,92,38,0
332.8215,332.9194,87,45,0
332.9194,332.99292,84,38,0
333.01743,333.11548,84,45,0
333.11548,333.21378,87,38,0
333.21378,333.31216,84,45,0
333.31216,333.38593,80,38,0
333.41052,333.50916,80,45,0
333.50916,333.60785,84,38,0
333.60785,333.7066,80,45,0
333.7066,333.78085,75,38,0
333.8056,333.9046,75,45,0
333.9046,334.0037,80,38,0
334.0037,334.10303,75,45,0
334.10303,334.17755,72,38,0
334.20236,334.30188,72,45,0
334.30188,334.40155,75,38,0
334.40155,334.50122,72,45,0
334.50122,334.6012,68,38,0
334.6012,334.83984,70,40,0
334.6012,334.83984,67,40,0
335.07516,335.17352,87,50,0
335.17352,335.27188,92,42,0
335.27188,335.37024,87,50,0
335.37024,335.44403,84,42,0
335.4687,335.56735,84,50,0
335.56735,335.66605,87,42,0
335.66605,335.76474,84,50,0
335.76474,335.83875,80,42,0
335.8635,335.9625,80,50,0
335.9625,336.06152,84,42,0
336.06152,336.16052,80,50,0
336.16052,336.23477,75,42,0
336.2596,336.35895,75,50,0
336.35895,336.45828,80,42,0
336.45828,336.55762,75,50,0
336.55762,336.6321,72,42,0
336.657,336.75668,72,50,0
336.75668,336.85635,75,42,0
336.85635,336.95602,72,50,0
336.95602,337.05588,68,42,0
337.05588,337.29456,70,45,0
337.05588,337.29456,67,45,0
337.53455,337.63455,72,40,0
337.63455,337.73453,75,34,0
337.73453,337.83453,72,40,0
337.83453,337.90955,68,34,0
337.93454,338.03455,68,40,0
338.03455,338.13455,72,34,0
338.13455,338.23453,68,40,0
338.23453,338.33453,63,34,0
338.33453,338.44168,68,40,0
338.76312,338.8631,73,40,0
338.8631,338.9631,77,34,0
338.9631,339.0631,73,40,0
339.0631,339.13812,68,34,0
339.16312,339.26312,68,40,0
339.26312,339.3631,73,34,0
339.3631,339.4631,68,40,0
339.4631,339.5631,65,34,0
339.5631,339.67026,68,40,0
339.9912,340.09122,75,40,0
340.09122,340.19122,79,34,0
340.19122,340.2912,75,40,0
340.2912,340.3662,70,34,0
340.3912,340.4912,70,40,0
340.4912,340.59122,75,34,0
340.59122,340.69122,70,40,0
340.69122,340.7912,67,34,0
340.7912,340.89822,70,40,0
341.22083,341.32114,75,40,0
341.32114,341.42148,80,34,0
341.42148,341.52182,75,40,0
341.52182,341.59708,72,34,0
341.62216,341.72247,72,40,0
341.72247,341.8228,75,34,0
341.8228,341.92316,72,40,0
341.92316,342.0235,68,34,0
342.0235,342.1389,72,40,0
342.48502,342.58636,84,53,0
342.58636,342.6867,87,45,0
342.6867,342.78705,84,53,0
342.78705,342.86227,80,45,0
342.88736,342.9877,80,53,0
342.9877,343.08804,84,45,0
343.08804,343.1884,80,53,0
343.1884,343.2887,75,45,0
343.2887,343.39584,80,53,0
343.7173,343.81796,85,60,0
343.81796,343.9186,89,51,0
343.9186,344.0193,85,60,0
344.0193,344.0948,80,51,0
344.11996,344.22064,80,60,0
344.22064,344.32132,85,51,0
344.32132,344.42197,80,60,0
344.42197,344.52264,77,51,0
344.52264,344.6298,80,60,0
344.95123,345.05154,87,70,0
345.05154,345.1519,91,59,0
345.1519,345.25223,87,70,0
345.25223,345.32748,82,59,0
345.35257,345.45288,82,70,0
345.45288,345.55322,87,59,0
345.55322,345.65356,82,70,0
345.65356,345.7539,79,59,0
345.7539,345.96817,82,70,0
346.18246,346.28247,87,80,0
346.28247,346.38248,92,68,0
346.38248,346.48245,87,80,0
346.48245,346.55746,84,68,0
346.58246,346.68246,84,80,0
346.68246,346.78247,87,68,0
346.78247,346.88248,84,80,0
346.88248,346.98352,80,68,0
346.98352,347.21518,84,80,0
347.44684,347.55426,72,40,0
347.55426,347.6614,75,34,0
347.6614,347.76855,72,40,0
347.76855,347.8489,68,34,0
347.875,347.97498,68,40,0
347.97498,348.07498,72,34,0
348.07498,348.175,68,40,0
348.175,348.275,63,34,0
348.275,348.47498,68,40,0
348.675,348.78174,73,40,0
348.78174,348.88852,77,34,0
348.88852,348.99527,73,40,0
348.99527,349.07535,68,34,0
349.10202,349.20203,68,40,0
349.20203,349.30203,73,34,0
349.30203,349.40204,68,40,0
349.40204,349.50204,65,34,0
349.50204,349.70203,68,40,0
349.90204,350.00906,75,40,0
350.00906,350.11658,79,34,0
350.11658,350.22412,75,40,0
350.22412,350.30475,70,34,0
350.33115,350.43115,70,40,0
350.43115,350.53113,75,34,0
350.53113,350.63113,70,40,0
350.63113,350.73114,67,34,0
350.73114,350.93115,70,40,0
351.13113,351.23828,75,40,0
351.23828,351.34543,80,34,0
351.34543,351.45258,75,40,0
351.45258,351.53293,72,34,0
351.55972,351.6602,72,40,0
351.6602,351.7602,75,34,0
351.7602,351.8602,72,40,0
351.8602,351.96017,68,34,0
351.96017,352.1602,72,40,0
352.3602,352.48114,84,50,0
352.48114,352.6021,87,42,0
352.6021,352.72308,84,50,0
352.72308,352.8138,80,42,0
352.84265,352.9423,80,50,0
352.9423,353.04196,84,42,0
353.04196,353.14163,80,50,0
353.14163,353.2413,75,42,0
353.2413,353.44064,80,50,0
353.63998,353.7477,85,56,0
353.7477,353.85602,89,47,0
353.85602,353.96432,85,56,0
353.96432,354.04553,80,47,0
354.0726,354.1726,80,56,0
354.1726,354.2726,85,47,0
354.2726,354.37262,80,56,0
354.37262,354.47263,77,47,0
354.47263,354.6726,80,56,0
354.87314,354.9784,87,60,0
354.9784,355.08368,91,51,0
355.08368,355.18893,87,60,0
355.18893,355.26788,82,51,0
355.2942,355.3942,82,60,0
355.3942,355.4942,87,51,0
355.4942,355.5942,82,60,0
355.5942,355.69418,79,51,0
355.69418,355.8942,82,60,0
356.09457,356.2002,87,70,0
356.2002,356.30585,92,59,0
356.30585,356.41147,87,70,0
356.41147,356.4907,84,59,0
356.51672,356.61673,84,70,0
356.61673,356.71674,87,59,0
356.71674,356.81674,84,70,0
356.81674,356.91672,80,59,0
356.91672,357.11673,84,70,0
357.31674,357.42596,87,76,0
357.42596,357.53586,91,64,0
357.53586,357.64575,87,76,0
357.64575,357.72815,82,64,0
357.75565,357.85562,82,76,0
357.85562,357.95563,87,64,0
357.95563,358.05563,82,76,0
358.05563,358.15564,79,64,0
358.15564,358.35562,82,76,0
358.55612,358.66367,87,80,0
358.66367,358.77118,92,67,0
358.77118,358.87872,87,80,0
358.87872,358.95935,84,67,0
358.98575,359.08572,84,80,0
359.08572,359.18573,87,67,0
359.18573,359.28574,84,80,0
359.28574,359.38574,80,67,0
359.38574,359.58572,84,80,0
359.78574,359.89767,89,79,0
359.89767,360.01044,93,67,0
360.01044,360.12323,89,79,0
360.12323,360.20782,84,67,0
360.23602,360.33685,84,79,0
360.33685,360.43686,89,67,0
360.43686,360.53687,84,79,0
360.53687,360.63687,81,67,0
360.63687,360.83685,84,79,0
361.03687,361.144,89,80,0
361.144,361.25116,94,68,0
361.25116,361.3583,89,80,0
361.3583,361.43866,85,68,0
361.46542,361.56592,85,80,0
361.56592,361.66592,89,68,0
361.66592,361.7659,85,80,0
361.7659,361.8659,82,68,0
361.8659,362.06592,85,80,0
362.26657,362.37646,89,80,0
362.37646,362.48636,93,68,0
362.48636,362.59625,89,80,0
362.59625,362.67865,84,68,0
362.70615,362.80612,84,80,0
362.80612,362.90613,89,68,0
362.90613,363.00613,84,80,0
363.00613,363.10614,81,68,0
363.10614,363.30612,84,80,0
363.50613,363.61215,89,80,0
363.61215,363.71814,94,68,0
363.71814,363.82416,89,80,0
363.82416,363.90366,85,68,0
363.93018,364.03015,85,80,0
364.03015,364.13016,89,68,0
364.13016,364.23016,85,80,0
364.23016,364.33017,82,68,0
364.33017,364.53015,85,80,0
364.73016,364.85016,92,80,0
364.85016,364.97015,96,68,0
364.97015,365.09015,92,80,0
365.09015,365.18018,87,68,0
365.21017,365.31015,87,80,0
365.31015,365.41016,92,68,0
365.41016,365.51016,87,80,0
365.51016,365.61017,84,68,0
365.61017,365.81015,87,80,0
366.01077,366.11676,92,80,0
366.11676,366.22278,97,68,0
366.22278,366.3288,92,80,0
366.3288,366.4083,89,68,0
366.43478,366.5352,89,81,0
366.5352,366.6352,92,69,0
366.6352,366.7352,89,82,0
366.7352,366.8352,85,69,0
366.8352,367.0352,89,83,0
367.2352,367.3427,92,84,0
367.3427,367.45026,96,71,0
367.45026,367.55777,92,85,0
367.55777,367.63843,87,72,0
367.6653,367.7658,87,86,0
367.7658,367.8658,92,73,0
367.8658,367.9658,87,87,0
367.9658,368.0658,84,73,0
368.0658,368.2796,87,87,0
368.4914,368.58786,92,88,0
368.58786,368.68433,97,74,0
368.68433,368.78107,92,88,0
368.78107,368.85367,89,74,0
368.87784,368.9748,89,88,0
368.9748,369.0719,92,74,0
369.0719,369.16904,89,88,0
369.16904,369.2421,85,74,0
369.26645,369.36386,85,88,0
369.36386,369.46155,89,74,0
369.46155,369.55927,85,88,0
369.55927,369.63266,80,74,0
369.65717,369.7552,80,88,0
369.7552,369.8533,85,74,0
369.8533,369.95166,80,88,0
369.95166,370.02545,77,74,0
370.05005,370.14868,77,88,0
370.14868,370.24738,80,74,0
370.24738,370.34625,77,88,0
370.34625,370.4205,73,74,0
370.44525,370.54434,73,88,0
370.54434,370.64368,77,74,0
370.64368,370.743,73,88,0
370.743,370.81772,68,74,0
370.84198,370.93875,80,88,0
370.93875,371.03552,85,74,0
371.03552,371.13235,80,88,0
371.13235,371.20517,77,74,0
371.22946,371.32654,77,88,0
371.32654,371.4238,80,74,0
371.4238,371.5212,77,88,0
371.5212,371.59427,73,74,0
371.61862,371.7163,73,88,0
371.7163,371.81403,77,74,0
371.81403,371.9118,73,88,0
371.9118,371.98535,68,74,0
372.00986,372.10788,68,88,0
372.10788,372.20612,73,74,0
372.20612,372.30447,68,88,0
372.30447,372.37823,65,74,0
372.40283,372.5015,65,88,0
372.5015,372.60016,68,74,0
372.60016,372.69894,65,88,0
372.69894,372.7732,61,74,0
372.79794,372.89694,61,88,0
372.89694,372.99615,65,74,0
372.99615,373.0955,61,88,0
373.0955,373.19482,56,74,0
373.19482,373.29446,61,90,0
373.29446,373.39413,64,69,0
373.39413,373.4938,61,82,0
373.4938,373.56854,58,69,0
373.59348,373.69315,58,82,0
373.69315,373.7928,61,69,0
373.7928,373.89246,58,82,0
373.89246,373.99213,55,69,0
373.99213,374.0918,61,91,0
374.0918,374.19147,64,69,0
374.19147,374.29114,61,82,0
374.29114,374.36588,58,69,0
374.3908,374.49048,58,82,0
374.49048,374.59015,61,69,0
374.59015,374.68982,58,82,0
374.68982,374.7895,55,69,0
374.7895,374.88913,61,90,0
374.88913,374.9888,64,69,0
374.9888,375.08847,61,82,0
375.08847,375.18814,58,69,0
375.18814,375.2878,58,82,0
375.2878,375.38748,61,69,0
375.38748,375.48715,58,82,0
375.48715,375.58682,55,69,0
375.58682,375.6865,61,81,0
375.6865,375.78635,63,68,0
375.78635,375.88635,61,81,0
375.88635,375.96155,58,67,0
375.98663,376.08707,58,80,0
376.08707,376.1877,61,66,0
376.1877,376.2886,58,79,0
376.2886,376.3896,55,66,0
376.3896,376.4909,61,84,0
376.4909,376.59235,63,65,0
376.59235,376.69403,61,76,0
376.69403,376.77042,58,62,0
376.79593,376.89798,58,76,0
376.89798,377.00034,61,63,0
377.00034,377.1028,58,73,0
377.1028,377.20554,55,59,0
377.20554,377.30847,61,76,0
377.30847,377.41156,63,57,0
377.41156,377.51498,61,66,0
377.51498,377.59268,58,55,0
377.62006,377.74506,58,63,0
377.74506,377.87006,61,52,0
377.87006,377.99506,58,60,0
377.99506,378.12006,55,49,0
378.31528,378.49835,60,40,0
378.49835,378.67062,56,40,0
378.12006,378.67062,63,50,0
378.8147,378.95755,63,40,0
378.95755,379.1004,60,40,0
378.67062,379.1004,68,50,0
379.24326,379.3861,63,40,0
379.3861,379.529,60,40,0
379.1004,379.529,67,50,0
379.6863,379.84442,61,40,0
379.84442,380.00177,56,40,0
379.529,380.00177,65,50,0
380.14462,380.28748,65,40,0
380.28748,380.43106,61,40,0
380.00177,380.43106,73,50,0
380.58853,380.74603,65,40,0
380.74603,380.9035,61,40,0
380.43106,380.9035,70,50,0
381.04758,381.19095,63,40,0
381.19095,381.33432,61,40,0
380.9035,381.33432,70,50,0
381.4777,381.62106,63,40,0
381.62106,381.76443,60,40,0
381.33432,381.76443,68,50,0
381.9078,382.05118,63,40,0
382.05118,382.19406,60,40,0
381.76443,382.19406,68,50,0
382.32913,382.46732,63,40,0
382.46732,382.60858,60,40,0
382.19406,382.60858,68,50,0
382.75327,382.90134,63,40,0
382.90134,383.05313,58,40,0
382.60858,383.05313,67,50,0
383.22705,383.40097,63,40,0
383.40097,383.5749,58,40,0
383.05313,383.5749,67,50,0
383.71774,383.86063,60,40,0
383.86063,384.00348,56,40,0
383.5749,384.00348,63,50,0
384.14633,384.28918,63,40,0
384.28918,384.43204,60,40,0
384.00348,384.43204,68,50,0
384.5749,384.71774,63,40,0
384.71774,384.86063,60,40,0
384.43204,384.86063,67,50,0
385.02676,385.19412,61,40,0
385.19412,385.36148,56,40,0
384.86063,385.36148,65,50,0
385.50433,385.6472,68,40,0
385.6472,385.79004,65,40,0
385.36148,385.79004,77,50,0
385.93292,386.07578,65,40,0
386.07578,386.21863,61,40,0
385.79004,386.21863,73,50,0
386.36176,386.50604,68,40,0
386.50604,386.65146,63,40,0
386.21863,386.65146,73,50,0
386.79807,386.94586,68,40,0
386.94586,387.09488,63,40,0
386.65146,387.09488,72,50,0
387.24872,387.40256,68,40,0
387.40256,387.55585,63,40,0
387.09488,387.55585,72,50,0
387.69974,387.84616,63,40,0
387.84616,387.99518,61,40,0
387.55585,387.99518,72,50,0
388.14685,388.30133,63,40,0
388.30133,388.4587,61,40,0
387.99518,388.4587,70,50,0
388.6191,388.81158,63,40,0
388.81158,389.0338,61,40,0
388.4587,389.0338,70,50,0
389.0338,389.13382,72,48,0
389.13382,389.23383,75,40,0
389.23383,389.3338,72,48,0
389.3338,389.4088,68,40,0
389.4338,389.5338,68,48,0
389.5338,389.63382,72,40,0
389.63382,389.73383,68,48,0
389.73383,389.8338,63,40,0
389.8338,390.0481,68,48,0
390.2624,390.3624,73,48,0
390.3624,390.46237,77,40,0
390.46237,390.56238,73,48,0
390.56238,390.6374,68,40,0
390.66238,390.7624,68,48,0
390.7624,390.8624,73,40,0
390.8624,390.96237,68,48,0
390.96237,391.06238,65,40,0
391.06238,391.27667,68,48,0
391.49048,391.59048,75,48,0
391.59048,391.6905,79,40,0
391.6905,391.79047,75,48,0
391.79047,391.86548,70,40,0
391.89047,391.99048,70,48,0
391.99048,392.09048,75,40,0
392.09048,392.1905,70,48,0
392.1905,392.29047,67,40,0
392.29047,392.50504,70,48,0
392.7201,392.82043,75,48,0
392.82043,392.92075,80,40,0
392.92075,393.0211,75,48,0
393.0211,393.09634,72,40,0
393.12143,393.22177,72,48,0
393.22177,393.32208,75,40,0
393.32208,393.42242,72,48,0
393.42242,393.52277,68,40,0
393.52277,393.75354,72,48,0
393.9843,394.08563,84,60,0
394.08563,394.18597,87,51,0
394.18597,394.28632,84,60,0
394.28632,394.36157,80,51,0
394.38663,394.48697,80,60,0
394.48697,394.5873,84,51,0
394.5873,394.68765,80,60,0
394.68765,394.788,75,51,0
394.788,395.00226,80,60,0
395.21655,395.31723,85,72,0
395.31723,395.4179,89,61,0
395.4179,395.51855,85,72,0
395.51855,395.59406,80,61,0
395.61923,395.7199,80,72,0
395.7199,395.8206,85,61,0
395.8206,395.92126,80,72,0
395.92126,396.0219,77,61,0
396.0219,396.2362,80,72,0
396.4505,396.5508,87,84,0
396.5508,396.65115,91,71,0
396.65115,396.7515,87,84,0
396.7515,396.82675,82,71,0
396.85184,396.95218,82,84,0
396.95218,397.0525,87,71,0
397.0525,397.15283,82,84,0
397.15283,397.25317,79,71,0
397.25317,397.46747,82,84,0
397.68173,397.78174,87,93,0
397.78174,397.88174,92,79,0
397.88174,397.98175,87,93,0
397.98175,398.05673,84,79,0
398.08173,398.18173,84,93,0
398.18173,398.28174,87,79,0
398.28174,398.38174,84,93,0
398.38174,398.4828,80,79,0
398.4828,398.71445,84,93,0
398.9461,399.05356,72,48,0
399.05356,399.16068,75,40,0
399.16068,399.26782,72,48,0
399.26782,399.34818,68,40,0
399.37427,399.47427,68,48,0
399.47427,399.57425,72,40,0
399.57425,399.67426,68,48,0
399.67426,399.77426,63,40,0
399.77426,399.97427,68,48,0
400.17426,400.28104,73,48,0
400.28104,400.3878,77,40,0
400.3878,400.49454,73,48,0
400.49454,400.57462,68,40,0
400.60132,400.7013,68,48,0
400.7013,400.8013,73,40,0
400.8013,400.9013,68,48,0
400.9013,401.0013,65,40,0
401.0013,401.2013,68,48,0
401.4013,401.50833,75,48,0
401.50833,401.61584,79,40,0
401.61584,401.7234,75,48,0
401.7234,401.80405,70,40,0
401.8304,401.93042,70,48,0
401.93042,402.03043,75,40,0
402.03043,402.1304,70,48,0
402.1304,402.2304,67,40,0
402.2304,402.43042,70,48,0
402.6304,402.73755,75,48,0
402.73755,402.8447,80,40,0
402.8447,402.95184,75,48,0
402.95184,403.0322,72,40,0
403.059,403.15945,72,48,0
403.15945,403.25946,75,40,0
403.25946,403.35947,72,48,0
403.35947,403.45947,68,40,0
403.45947,403.65945,72,48,0
403.85947,403.98044,84,68,0
403.98044,404.10138,87,57,0
404.10138,404.22235,84,68,0
404.22235,404.31308,80,57,0
404.34192,404.4416,80,68,0
404.4416,404.54126,84,57,0
404.54126,404.6409,80,68,0
404.6409,404.74057,75,57,0
404.74057,404.9399,80,68,0
405.13925,405.2477,85,68,0
405.2477,405.3568,89,57,0
405.3568,405.46588,85,68,0
405.46588,405.54773,80,57,0
405.57498,405.675,80,68,0
405.675,405.775,85,57,0
405.775,405.875,80,68,0
405.875,405.97498,77,57,0
405.97498,406.175,80,68,0
406.375,406.4799,87,68,0
406.4799,406.58517,91,57,0
406.58517,406.69043,87,68,0
406.69043,406.76938,82,57,0
406.7957,406.8957,82,68,0
406.8957,406.9957,87,57,0
406.9957,407.0957,82,68,0
407.0957,407.19568,79,57,0
407.19568,407.3957,82,68,0
407.5957,407.69858,87,82,0
407.69858,407.80167,92,69,0
407.80167,407.90475,87,82,0
407.90475,407.9821,84,69,0
408.00766,408.10764,84,82,0
408.10764,408.20764,87,69,0
408.20764,408.30765,84,82,0
408.30765,408.40765,80,69,0
408.40765,408.60764,84,82,0
408.80765,408.91003,87,86,0
408.91003,409.01242,91,72,0
409.01242,409.1148,87,86,0
409.1148,409.19162,82,72,0
409.2172,409.3172,82,86,0
409.3172,409.4172,87,72,0
409.4172,409.5172,82,86,0
409.5172,409.61722,79,72,0
409.61722,409.8172,82,86,0
410.0172,410.11975,87,92,0
410.11975,410.2225,92,77,0
410.2225,410.32523,87,92,0
410.32523,410.40228,84,77,0
410.4278,410.5278,84,92,0
410.5278,410.6278,87,77,0
410.6278,410.72778,84,92,0
410.72778,410.8278,80,77,0
410.8278,411.0278,84,92,0
411.22778,411.3307,87,98,0
411.3307,411.43378,91,83,0
411.43378,411.53687,87,98,0
411.53687,411.6142,82,83,0
411.63995,411.73996,82,98,0
411.73996,411.83997,87,83,0
411.83997,411.93997,82,98,0
411.93997,412.03995,79,83,0
412.03995,412.23996,82,98,0
412.43997,412.53677,87,98,0
412.53677,412.63324,92,83,0
412.63324,412.7297,87,98,0
412.7297,412.80225,84,83,0
412.82645,412.92322,84,98,0
412.92322,413.02008,87,83,0
413.02008,413.11716,84,98,0
413.11716,413.18997,80,83,0
413.21423,413.31152,80,98,0
413.31152,413.4089,84,83,0
413.4089,413.50632,80,98,0
413.50632,413.57956,75,83,0
413.604,413.70172,75,98,0
413.70172,413.79953,80,83,0
413.79953,413.89755,75,98,0
413.89755,413.9711,72,83,0
413.9956,414.0938,72,98,0
414.0938,414.19217,75,83,0
414.19217,414.29053,72,98,0
414.29053,414.36453,68,83,0
414.3892,414.48788,68,98,0
414.48788,414.58664,72,83,0
414.58664,414.68564,68,98,0
414.68564,414.75992,63,83,0
414.78467,414.8825,75,98,0
414.8825,414.9803,80,83,0
414.9803,415.07834,75,97,0
415.07834,415.15207,72,82,0
415.17667,415.27512,72,96,0
415.27512,415.37378,75,80,0
415.37378,415.47278,72,94,0
415.47278,415.54703,68,79,0
415.57184,415.6712,68,93,0
415.6712,415.7708,72,78,0
415.7708,415.87057,68,92,0
415.87057,415.94556,63,76,0
415.97058,416.07086,63,90,0
416.07086,416.1712,68,76,0
416.1712,416.27155,63,89,0
416.27155,416.34702,60,74,0
416.37225,416.47327,60,87,0
416.47327,416.57428,63,73,0
416.57428,416.6753,60,86,0
416.6753,416.7765,56,72,0
416.7765,416.87784,63,85,0
416.87784,416.9792,68,70,0
416.9792,417.08054,63,83,0
417.08054,417.1821,60,69,0
417.1821,417.58887,56,81,0
418.40244,418.8092,75,102,0
418.40244,418.8092,87,112,0
418.40244,418.8092,82,102,0
418.40244,418.8092,79,102,0
419.62277,420.02954,75,98,0
419.62277,420.02954,84,108,0
419.62277,420.02954,80,98,0
419.62277,420.02954,72,98,0
0.0033333334,0.20000006,44,40,0
0.39291775,1.9775485,59,34,0
0.39291775,1.9775485,63,40,0
0.39291775,1.9775485,56,34,0
1.9775485,2.2162151,63,34,0
1.9775485,2.2162151,51,28,0
1.9775485,2.2162151,58,28,0
2.4562151,2.6529367,44,40,0
2.8498738,4.4415407,59,34,0
2.8498738,4.4415407,63,40,0
2.8498738,4.4415407,56,34,0
4.4415407,4.692587,58,28,0
4.4415407,4.692587,63,34,0
4.4415407,4.692587,51,28,0
4.943633,5.4206204,59,27,0
4.943633,5.4206204,56,27,0
4.943633,5.4206204,63,27,0
5.4444995,5.851642,64,27,0
5.4444995,5.851642,58,27,0
5.4444995,5.851642,51,27,0
5.8730707,6.280213,51,31,0
5.8730707,6.280213,64,31,0
5.8730707,6.280213,58,31,0
6.3016415,6.775451,58,31,0
6.3016415,6.775451,64,31,0
6.3016415,6.775451,51,31,0
6.8004513,7.275451,63,25,0
6.8004513,7.275451,51,25,0
6.8004513,7.275451,58,25,0
7.3012085,7.819391,51,25,0
7.3012085,7.819391,58,25,0
7.3012085,7.819391,61,25,0
7.8466635,8.0433855,44,40,0
8.240322,9.83031,59,34,0
8.240322,9.83031,63,40,0
8.240322,9.83031,56,34,0
9.83031,10.070311,58,26,0
9.83031,10.070311,63,31,0
9.83031,10.070311,51,26,0
10.31031,10.507679,44,40,0
10.705048,12.29722,56,34,0
10.705048,12.29722,63,40,0
10.705048,12.29722,59,34,0
12.29722,12.527989,51,27,0
12.29722,12.527989,63,32,0
12.29722,12.527989,58,27,0
12.758759,13.235746,63,27,0
12.758759,13.235746,56,27,0
12.758759,13.235746,59,27,0
13.259625,13.666768,58,27,0
13.259625,13.666768,54,27,0
13.259625,13.666768,64,27,0
13.688196,14.095339,58,31,0
13.688196,14.095339,64,31,0
13.688196,14.095339,54,31,0
14.116767,14.590577,54,31,0
14.116767,14.590577,64,31,0
14.116767,14.590577,58,31,0
14.615577,15.090577,58,25,0
14.615577,15.090577,63,25,0
14.615577,15.090577,54,25,0
15.116334,15.634517,58,25,0
15.116334,15.634517,54,25,0
15.116334,15.634517,62,25,0
15.661789,15.85981,47,50,0
16.057829,17.64867,59,42,0
16.057829,17.64867,54,42,0
16.057829,17.64867,63,50,0
17.64867,17.887337,64,41,0
17.64867,17.887337,54,35,0
18.127337,18.325144,47,50,0
18.522512,20.114468,54,42,0
18.522512,20.114468,63,50,0
18.522512,20.114468,59,42,0
20.114468,20.345238,54,35,0
20.114468,20.345238,64,41,0
20.576006,21.014467,63,36,0
20.576006,21.014467,59,36,0
21.036995,21.444138,64,41,0
21.036995,21.444138,54,41,0
21.465565,21.872707,64,45,0
21.465565,21.872707,54,45,0
21.89633,22.34515,64,45,0
21.89633,22.34515,54,45,0
22.36877,22.81759,54,36,0
22.36877,22.81759,63,36,0
22.842428,23.360611,54,36,0
22.842428,23.360611,61,36,0
23.387884,23.585253,47,50,0
23.782621,25.371824,54,42,0
23.782621,25.371824,62,50,0
23.782621,25.371824,59,42,0
25.371824,25.61049,64,40,0
25.371824,25.61049,54,34,0
25.85049,26.048298,47,50,0
26.245667,27.834099,59,42,0
26.245667,27.834099,54,42,0
26.245667,27.834099,62,50,0
27.834099,28.072767,64,41,0
27.834099,28.072767,54,35,0
28.313387,28.804766,59,40,0
28.313387,28.804766,62,40,0
28.829151,29.236292,67,45,0
28.829151,29.236292,57,45,0
29.25772,29.664864,67,43,0
29.25772,29.664864,57,43,0
29.686293,30.093435,57,41,0
29.686293,30.093435,67,41,0
30.114862,30.522005,57,39,0
30.114862,30.522005,66,39,0
30.543434,30.950577,57,37,0
30.543434,30.950577,64,37,0
30.972006,31.397379,62,36,0
30.972006,31.397379,59,36,0
31.419765,31.826908,54,42,0
31.419765,31.826908,64,42,0
31.848337,32.255478,54,41,0
31.848337,32.255478,64,41,0
32.27691,32.68405,54,41,0
32.27691,32.68405,64,41,0
32.70548,33.11262,61,39,0
32.70548,33.11262,54,39,0
33.13405,33.54119,58,37,0
33.13405,33.54119,54,37,0
33.562622,34.002197,59,36,0
33.562622,34.002197,56,36,0
34.025364,34.432503,49,44,0
34.025364,34.432503,61,44,0
34.025364,34.432503,56,44,0
34.453934,34.861076,56,42,0
34.453934,34.861076,61,42,0
34.453934,34.861076,49,42,0
34.882504,35.289646,56,44,0
34.882504,35.289646,49,44,0
34.882504,35.289646,61,44,0
35.311073,35.718216,59,43,0
35.311073,35.718216,56,43,0
35.311073,35.718216,51,43,0
35.739647,36.14679,56,42,0
35.739647,36.14679,52,42,0
36.168217,36.59359,59,41,0
36.168217,36.59359,51,41,0
36.168217,36.59359,56,41,0
36.61598,37.04135,51,40,0
36.61598,37.04135,59,40,0
36.61598,37.04135,56,40,0
37.06374,37.540726,56,40,0
37.06374,37.540726,59,40,0
37.06374,37.540726,51,40,0
37.5649,37.98869,58,31,0
37.5649,37.98869,51,31,0
37.5649,37.98869,55,31,0
38.010994,38.434788,55,30,0
38.010994,38.434788,58,30,0
38.010994,38.434788,51,30,0
38.457092,38.95361,51,29,0
38.457092,38.95361,58,29,0
38.457092,38.95361,55,29,0
38.977745,39.371185,44,40,0
39.371185,40.958096,51,34,0
39.371185,40.958096,56,34,0
39.371185,40.958096,60,40,0
40.958096,41.196762,51,27,0
40.958096,41.196762,61,32,0
41.436764,41.83194,44,40,0
41.83194,43.424225,60,40,0
41.83194,43.424225,56,34,0
41.83194,43.424225,51,34,0
43.424225,43.662914,61,34,0
43.424225,43.662914,51,28,0
43.902916,44.295834,44,45,0
44.295834,45.8809,60,49,0
44.295834,45.8809,56,41,0
44.295834,45.8809,51,41,0
45.8809,46.119568,61,39,0
45.8809,46.119568,51,33,0
46.359566,46.754303,44,50,0
46.754303,48.34681,56,40,0
46.754303,48.34681,51,40,0
46.754303,48.34681,60,48,0
48.34681,48.5855,51,32,0
48.34681,48.5855,61,38,0
48.8255,49.2255,44,40,0
49.2255,50.05407,54,27,0
49.2255,50.05407,56,27,0
49.2255,50.05407,60,33,0
50.05407,50.45407,49,40,0
50.45407,51.282166,56,25,0
50.45407,51.282166,53,25,0
50.45407,51.282166,61,29,0
51.282166,51.682163,39,40,0
51.682163,52.511772,61,35,0
51.682163,52.511772,58,29,0
51.682163,52.511772,51,29,0
52.511772,52.91311,44,40,0
52.91311,53.775986,60,37,0
52.91311,53.775986,51,31,0
52.91311,53.775986,56,31,0
53.775986,54.178326,44,52,0
54.178326,55.008236,56,35,0
54.178326,55.008236,54,35,0
54.178326,55.008236,60,43,0
55.008236,55.41092,49,60,0
55.41092,56.242176,56,44,0
55.41092,56.242176,53,44,0
55.41092,56.242176,61,52,0
56.242176,56.643513,39,70,0
56.643513,57.473423,61,61,0
56.643513,57.473423,51,51,0
56.643513,57.473423,58,51,0
57.473423,57.873425,44,76,0
57.873425,58.7378,51,53,0
57.873425,58.7378,60,63,0
57.873425,58.7378,56,53,0
58.7378,59.165943,51,50,0
59.165943,59.765945,56,60,0
59.765945,59.965946,55,50,0
58.7378,59.965946,44,34,0
59.965946,60.39299,53,50,0
60.39299,60.992992,61,60,0
60.992992,61.19299,60,50,0
59.965946,61.19299,49,34,0
61.19299,61.622097,58,50,0
61.622097,62.222095,63,60,0
62.222095,62.422096,61,50,0
61.19299,62.422096,51,34,0
62.422096,62.850666,60,50,0
62.850666,63.651142,63,60,0
62.422096,63.651142,56,34,0
63.651142,64.13359,51,65,0
64.13359,64.7316,56,73,0
64.7316,64.93094,55,60,0
63.651142,64.93094,44,55,0
64.93094,65.36357,53,67,0
65.36357,65.96357,61,76,0
65.96357,66.1641,60,66,0
64.93094,66.1641,49,56,0
66.1641,66.58515,58,71,0
66.58515,67.18515,63,79,0
67.18515,67.38553,61,69,0
66.1641,67.38553,51,60,0
67.38553,67.807686,60,73,0
67.807686,68.407684,63,82,0
68.407684,68.60769,60,72,0
67.38553,68.60769,56,61,0
68.60769,69.046585,58,77,0
69.046585,69.64659,63,84,0
69.64659,69.84709,61,79,0
68.60769,69.84709,51,66,0
69.84709,70.276695,60,78,0
70.276695,70.87669,63,83,0
70.87669,71.0767,60,76,0
69.84709,71.0767,56,66,0
71.0767,71.52697,60,76,0
71.52697,72.12782,65,82,0
72.12782,72.32783,63,72,0
71.0767,72.32783,53,63,0
72.32783,72.75639,61,76,0
72.75639,73.35687,65,82,0
73.35687,73.55753,61,72,0
72.32783,73.55753,58,64,0
73.55753,73.99709,60,75,0
73.99709,74.59709,65,81,0
74.59709,74.79709,63,72,0
73.55753,74.79709,53,62,0
74.79709,75.221115,61,77,0
75.221115,75.82112,65,81,0
75.82112,76.02112,61,73,0
74.79709,76.02112,58,59,0
76.02112,76.50112,63,77,0
76.50112,77.10112,68,81,0
77.10112,77.30172,66,73,0
76.02112,77.30172,56,59,0
77.30172,77.725746,65,80,0
77.725746,78.32615,68,83,0
78.32615,78.526146,65,75,0
77.30172,78.526146,61,67,0
78.526146,78.95625,63,78,0
78.95625,79.570564,68,84,0
79.570564,79.78485,66,76,0
78.526146,79.78485,56,66,0
79.78485,80.17085,65,85,0
79.78485,80.17085,61,85,0
82.131805,82.325905,68,84,0
82.51958,82.71375,65,79,0
82.90836,83.1033,61,79,0
83.29874,83.49463,56,82,0
83.690834,83.88755,53,79,0
84.08473,84.28223,49,79,0
84.48025,85.2673,43,58,0
84.48025,85.2673,52,68,0
84.48025,85.2673,46,58,0
84.48025,85.2673,49,58,0
85.27475,86.062004,49,58,0
85.27475,86.062004,52,68,0
85.27475,86.062004,46,58,0
85.27475,86.062004,43,58,0
86.06946,86.856705,43,58,0
86.06946,86.856705,52,68,0
86.06946,86.856705,46,58,0
86.06946,86.856705,49,58,0
86.86416,87.657455,43,51,0
86.86416,87.657455,51,61,0
86.86416,87.657455,46,51,0
86.86416,87.657455,49,51,0
87.665,88.46968,49,42,0
87.665,88.46968,51,50,0
87.665,88.46968,46,42,0
87.665,88.46968,43,42,0
88.477356,89.3894,43,38,0
88.477356,89.3894,51,45,0
88.477356,89.3894,46,38,0
88.477356,89.3894,49,38,0
89.3894,90.36976,44,40,0
90.36976,90.798325,48,40,0
90.798325,91.27111,49,40,0
91.27111,91.70042,46,40,0
91.70042,92.17285,49,40,0
92.17285,93.4634,51,40,0
93.4634,94.84422,39,40,0
94.84422,95.70139,44,40,0
95.70139,96.12996,48,40,0
96.12996,96.63083,49,40,0
96.63083,97.0594,46,40,0
97.0594,97.48797,49,40,0
97.0594,97.920815,58,40,0
97.920815,98.36421,56,40,0
97.48797,98.8252,51,40,0
98.36421,99.26451,56,40,0
99.26451,99.72807,55,40,0
99.72807,100.30316,55,40,0
98.8252,100.30316,51,40,0
100.30316,100.603165,44,48,0
100.70316,101.53173,54,33,0
100.70316,101.53173,56,33,0
100.70316,101.53173,60,39,0
101.53173,101.83173,49,48,0
101.93173,102.75983,53,29,0
101.93173,102.75983,61,35,0
101.93173,102.75983,56,29,0
102.75983,103.05983,39,48,0
103.15983,103.98943,51,35,0
103.15983,103.98943,58,35,0
103.15983,103.98943,61,42,0
103.98943,104.290436,44,48,0
104.39077,105.25365,56,37,0
104.39077,105.25365,51,37,0
104.39077,105.25365,60,44,0
105.25365,105.55566,44,60,0
105.65599,106.4859,60,49,0
105.65599,106.4859,56,41,0
105.65599,106.4859,54,41,0
106.4859,106.78791,49,72,0
106.88859,107.71984,56,52,0
106.88859,107.71984,53,52,0
106.88859,107.71984,61,62,0
107.71984,108.02084,39,84,0
108.12118,108.95109,58,62,0
108.12118,108.95109,51,62,0
108.12118,108.95109,61,73,0
108.95109,109.25109,44,88,0
109.35109,110.21546,56,64,0
109.35109,110.21546,51,64,0
109.35109,110.21546,60,76,0
110.21546,110.64361,51,60,0
110.64361,111.24361,56,72,0
111.24361,111.44361,55,60,0
110.21546,111.44361,44,40,0
111.44361,111.87066,53,60,0
111.87066,112.47066,61,72,0
112.47066,112.670654,60,60,0
111.44361,112.670654,49,40,0
112.670654,113.09976,58,60,0
113.09976,113.69976,63,72,0
113.69976,113.89976,61,60,0
112.670654,113.89976,51,40,0
113.89976,114.32833,60,60,0
114.32833,115.12881,63,72,0
113.89976,115.12881,56,40,0
115.12881,115.61126,51,68,0
115.61126,116.20927,56,78,0
116.20927,116.4086,55,68,0
115.12881,116.4086,44,57,0
116.4086,116.84434,53,68,0
116.84434,117.444336,61,79,0
117.444336,117.64433,60,68,0
116.4086,117.64433,49,57,0
117.64433,118.06504,58,71,0
118.06504,118.66504,63,81,0
118.66504,118.865036,61,68,0
117.64433,118.865036,51,59,0
118.865036,119.27699,60,76,0
119.27699,119.877,63,86,0
119.877,120.076996,60,80,0
118.865036,120.076996,56,64,0
120.076996,120.48655,58,80,0
120.48655,121.086555,63,88,0
121.086555,121.28655,61,80,0
120.076996,121.28655,51,60,0
121.28655,121.69714,60,86,0
121.69714,122.29715,63,93,0
122.29715,122.49715,60,85,0
121.28655,122.49715,56,73,0
122.49715,122.90931,58,89,0
122.90931,123.50931,63,95,0
123.50931,123.70931,61,87,0
122.49715,123.70931,51,75,0
123.70931,124.095634,60,96,0
123.70931,124.095634,56,81,0
126.05318,126.246124,63,99,0
126.43919,126.63261,60,99,0
126.826614,127.020935,56,93,0
127.2156,127.410866,51,88,0
127.60645,127.80239,48,84,0
127.99894,128.19582,51,80,0
128.39304,128.78902,44,72,0
130.76929,133.4835,44,60,0
130.76929,133.4835,48,60,0
130.76929,133.4835,36,60,0
133.4835,133.71251,37,42,0
133.71251,133.93007,44,22,0
133.71251,133.93007,49,22,0
133.71251,133.93007,52,26,0
133.94151,134.15263,52,26,0
133.94151,134.15263,49,22,0
133.94151,134.15263,44,22,0
134.16374,134.37485,52,26,0
134.16374,134.37485,49,22,0
134.16374,134.37485,44,22,0
134.38597,134.59708,52,26,0
134.38597,134.59708,49,22,0
134.38597,134.59708,44,22,0
134.60818,134.81929,52,26,0
134.60818,134.81929,49,22,0
134.60818,134.81929,44,22,0
134.83041,135.03398,52,26,0
134.83041,135.03398,49,22,0
134.83041,135.03398,44,22,0
135.0447,135.24826,52,26,0
135.0447,135.24826,49,22,0
135.0447,135.24826,44,22,0
135.25897,135.46255,52,26,0
135.25897,135.46255,49,22,0
135.25897,135.46255,44,22,0
135.47327,135.67683,52,26,0
135.47327,135.67683,49,22,0
135.47327,135.67683,44,22,0
135.68755,135.92291,52,26,0
135.68755,135.92291,49,22,0
135.68755,135.92291,44,22,0
135.93536,136.17188,52,26,0
135.93536,136.17188,44,22,0
135.93536,136.17188,49,22,0
136.18346,136.39536,36,41,0
136.40651,136.6184,44,22,0
136.40651,136.6184,54,26,0
136.40651,136.6184,51,22,0
136.62955,136.84145,54,26,0
136.62955,136.84145,51,22,0
136.62955,136.84145,44,22,0
136.8526,137.0645,54,26,0
136.8526,137.0645,51,22,0
136.8526,137.0645,44,22,0
137.07565,137.28755,54,26,0
137.07565,137.28755,51,22,0
137.07565,137.28755,44,22,0
137.29869,137.51059,54,26,0
137.29869,137.51059,51,22,0
137.29869,137.51059,44,22,0
137.52174,137.73364,54,26,0
137.52174,137.73364,51,22,0
137.52174,137.73364,44,22,0
137.7448,137.9567,54,26,0
137.7448,137.9567,51,22,0
137.7448,137.9567,44,22,0
137.96785,138.17973,54,26,0
137.96785,138.17973,51,22,0
137.96785,138.17973,44,22,0
138.19089,138.40279,54,26,0
138.19089,138.40279,51,22,0
138.19089,138.40279,44,22,0
138.41394,138.62584,54,26,0
138.41394,138.62584,44,22,0
138.41394,138.62584,51,22,0
138.637,138.84889,54,26,0
138.637,138.84889,51,22,0
138.637,138.84889,44,22,0
138.86003,139.07193,37,40,0
139.08308,139.29498,44,22,0
139.08308,139.29498,49,22,0
139.08308,139.29498,52,26,0
139.30614,139.51804,52,26,0
139.30614,139.51804,49,22,0
139.30614,139.51804,44,22,0
139.52919,139.74107,52,26,0
139.52919,139.74107,49,22,0
139.52919,139.74107,44,22,0
139.75223,139.96413,52,26,0
139.75223,139.96413,49,22,0
139.75223,139.96413,44,22,0
139.97528,140.18718,52,26,0
139.97528,140.18718,49,22,0
139.97528,140.18718,44,22,0
140.19833,140.40219,52,26,0
140.19833,140.40219,49,22,0
140.19833,140.40219,44,22,0
140.4129,140.61647,52,26,0
140.4129,140.61647,49,22,0
140.4129,140.61647,44,22,0
140.6272,140.83076,52,26,0
140.6272,140.83076,49,22,0
140.6272,140.83076,44,22,0
140.84148,141.04504,52,26,0
140.84148,141.04504,49,22,0
140.84148,141.04504,44,22,0
141.05576,141.30309,52,26,0
141.05576,141.30309,49,22,0
141.05576,141.30309,44,22,0
141.31618,141.5651,52,26,0
141.31618,141.5651,44,22,0
141.31618,141.5651,49,22,0
141.57819,141.79062,39,39,0
141.80174,142.01285,44,22,0
141.80174,142.01285,54,26,0
141.80174,142.01285,51,22,0
142.02396,142.23508,54,26,0
142.02396,142.23508,51,22,0
142.02396,142.23508,44,22,0
142.24619,142.45729,54,26,0
142.24619,142.45729,51,22,0
142.24619,142.45729,44,22,0
142.4684,142.67952,54,26,0
142.4684,142.67952,51,22,0
142.4684,142.67952,44,22,0
142.69063,142.90173,54,26,0
142.69063,142.90173,51,22,0
142.69063,142.90173,44,22,0
142.91284,143.12396,54,26,0
142.91284,143.12396,51,22,0
142.91284,143.12396,44,22,0
143.13507,143.34618,54,26,0
143.13507,143.34618,51,22,0
143.13507,143.34618,44,22,0
143.35728,143.5684,54,26,0
143.35728,143.5684,51,22,0
143.35728,143.5684,44,22,0
143.57951,143.79062,54,26,0
143.57951,143.79062,51,22,0
143.57951,143.79062,44,22,0
143.80173,144.01285,54,26,0
143.80173,144.01285,44,22,0
143.80173,144.01285,51,22,0
144.02396,144.23506,54,26,0
144.02396,144.23506,51,22,0
144.02396,144.23506,44,22,0
144.24681,144.47572,40,42,0
144.48776,144.71669,45,29,0
144.48776,144.71669,52,35,0
144.72787,144.93217,52,35,0
144.72787,144.93217,45,29,0
144.94292,145.14722,52,35,0
144.94292,145.14722,45,29,0
145.15797,145.36227,52,35,0
145.15797,145.36227,45,29,0
145.37303,145.57733,52,35,0
145.37303,145.57733,45,29,0
145.58809,145.79239,45,29,0
145.58809,145.79239,52,35,0
145.80313,146.00745,52,35,0
145.80313,146.00745,45,29,0
146.23325,146.43755,45,29,0
146.23325,146.43755,52,35,0
146.01819,146.4483,40,35,0
146.66336,146.86766,45,29,0
146.66336,146.86766,52,35,0
146.4483,146.87924,40,35,0
146.87924,147.10724,35,52,0
147.11923,147.34724,40,37,0
147.11923,147.34724,47,44,0
147.35924,147.56427,47,44,0
147.35924,147.56427,40,37,0
147.57507,147.7801,47,44,0
147.57507,147.7801,40,37,0
147.7909,147.99593,40,37,0
147.7909,147.99593,47,44,0
148.00673,148.21176,47,44,0
148.00673,148.21176,40,37,0
148.22255,148.42758,47,44,0
148.22255,148.42758,40,37,0
148.43837,148.64342,47,44,0
148.43837,148.64342,40,37,0
148.87003,149.08586,47,44,0
148.87003,149.08586,40,37,0
148.6542,149.08586,35,44,0
149.30168,149.5183,47,37,0
149.30168,149.5183,52,44,0
149.08586,149.5183,40,44,0
149.75734,149.98442,47,39,0
149.75734,149.98442,51,45,0
149.99554,150.19913,51,45,0
149.99554,150.19913,47,39,0
150.20984,150.4134,51,46,0
150.20984,150.4134,47,39,0
150.42412,150.62769,51,46,0
150.42412,150.62769,47,46,0
150.63841,150.84198,51,46,0
150.63841,150.84198,47,39,0
149.5183,150.85298,39,61,0
151.07603,151.28793,46,39,0
151.07603,151.28793,51,46,0
151.07603,151.28793,49,39,0
151.29909,151.50266,46,39,0
151.29909,151.50266,49,39,0
151.29909,151.50266,51,46,0
151.51337,151.71754,46,39,0
151.51337,151.71754,49,39,0
151.51337,151.71754,51,46,0
151.7301,151.9686,46,39,0
151.7301,151.9686,49,45,0
151.7301,151.9686,51,45,0
151.98116,152.21965,46,45,0
151.98116,152.21965,49,45,0
151.98116,152.21965,51,45,0
150.85298,152.2322,39,61,0
152.48325,152.69435,47,22,0
152.48325,152.69435,51,26,0
152.70546,152.91658,47,22,0
152.70546,152.91658,51,26,0
152.92769,153.1388,47,22,0
152.92769,153.1388,51,26,0
153.1499,153.36102,47,26,0
153.1499,153.36102,51,26,0
153.37213,153.58324,47,22,0
153.37213,153.58324,51,26,0
152.2322,153.59435,44,52,0
153.81657,154.02768,54,26,0
153.81657,154.02768,51,22,0
154.0388,154.24991,51,24,0
154.0388,154.24991,54,29,0
154.26102,154.47212,51,29,0
154.26102,154.47212,54,35,0
154.48517,154.733,51,29,0
154.48517,154.733,54,35,0
154.74605,154.99387,51,24,0
154.74605,154.99387,54,29,0
153.59435,155.00691,44,52,0
155.00691,155.22447,37,42,0
155.23592,155.45348,44,22,0
155.23592,155.45348,49,22,0
155.23592,155.45348,52,26,0
155.46492,155.67604,52,26,0
155.46492,155.67604,49,22,0
155.46492,155.67604,44,22,0
155.68715,155.89825,52,26,0
155.68715,155.89825,49,22,0
155.68715,155.89825,44,22,0
155.90936,156.12048,52,26,0
155.90936,156.12048,49,22,0
155.90936,156.12048,44,22,0
156.13159,156.3427,52,26,0
156.13159,156.3427,49,22,0
156.13159,156.3427,44,22,0
156.35382,156.55739,52,26,0
156.35382,156.55739,49,22,0
156.35382,156.55739,44,22,0
156.5681,156.77167,52,26,0
156.5681,156.77167,49,22,0
156.5681,156.77167,44,22,0
156.78238,156.98596,52,26,0
156.78238,156.98596,49,22,0
156.78238,156.98596,44,22,0
156.99667,157.20024,52,26,0
156.99667,157.20024,49,22,0
156.99667,157.20024,44,22,0
157.21095,157.44632,52,26,0
157.21095,157.44632,49,22,0
157.21095,157.44632,44,22,0
157.45876,157.69528,52,26,0
157.45876,157.69528,44,22,0
157.45876,157.69528,49,22,0
157.70686,157.91876,36,41,0
157.92992,158.1418,44,22,0
157.92992,158.1418,54,26,0
157.92992,158.1418,51,22,0
158.15295,158.36485,54,26,0
158.15295,158.36485,51,22,0
158.15295,158.36485,44,22,0
158.376,158.5879,54,26,0
158.376,158.5879,51,22,0
158.376,158.5879,44,22,0
158.59906,158.81096,54,26,0
158.59906,158.81096,51,22,0
158.59906,158.81096,44,22,0
158.8221,159.034,54,26,0
158.8221,159.034,51,22,0
158.8221,159.034,44,22,0
159.04515,159.25705,54,26,0
159.04515,159.25705,51,22,0
159.04515,159.25705,44,22,0
159.2682,159.4801,54,26,0
159.2682,159.4801,51,22,0
159.2682,159.4801,44,22,0
159.49126,159.70314,54,26,0
159.49126,159.70314,51,22,0
159.49126,159.70314,44,22,0
159.7143,159.9262,54,26,0
159.7143,159.9262,51,22,0
159.7143,159.9262,44,22,0
159.93735,160.14925,54,26,0
159.93735,160.14925,44,22,0
159.93735,160.14925,51,22,0
160.1604,160.37228,54,26,0
160.1604,160.37228,51,22,0
160.1604,160.37228,44,22,0
160.38344,160.59534,37,40,0
160.60649,160.81839,44,22,0
160.60649,160.81839,49,22,0
160.60649,160.81839,52,26,0
160.82954,161.04144,52,26,0
160.82954,161.04144,49,22,0
160.82954,161.04144,44,22,0
161.05258,161.26448,52,26,0
161.05258,161.26448,49,22,0
161.05258,161.26448,44,22,0
161.27563,161.48753,52,26,0
161.27563,161.48753,49,22,0
161.27563,161.48753,44,22,0
161.49869,161.71059,52,26,0
161.49869,161.71059,49,22,0
161.49869,161.71059,44,22,0
161.72174,161.9256,52,26,0
161.72174,161.9256,49,22,0
161.72174,161.9256,44,22,0
161.93631,162.13988,52,26,0
161.93631,162.13988,49,22,0
161.93631,162.13988,44,22,0
162.1506,162.35417,52,26,0
162.1506,162.35417,49,22,0
162.1506,162.35417,44,22,0
162.36488,162.56845,52,26,0
162.36488,162.56845,49,22,0
162.36488,162.56845,44,22,0
162.57916,162.82649,52,26,0
162.57916,162.82649,49,22,0
162.57916,162.82649,44,22,0
162.83958,163.0885,52,26,0
162.83958,163.0885,44,22,0
162.83958,163.0885,49,22,0
163.1016,163.31403,39,39,0
163.32515,163.53625,44,22,0
163.32515,163.53625,54,26,0
163.32515,163.53625,51,22,0
163.54736,163.75847,54,26,0
163.54736,163.75847,51,22,0
163.54736,163.75847,44,22,0
163.76959,163.9807,54,26,0
163.76959,163.9807,51,22,0
163.76959,163.9807,44,22,0
163.9918,164.20293,54,26,0
163.9918,164.20293,51,22,0
163.9918,164.20293,44,22,0
164.21404,164.42514,54,26,0
164.21404,164.42514,51,22,0
164.21404,164.42514,44,22,0
164.43625,164.64737,54,26,0
164.43625,164.64737,51,22,0
164.43625,164.64737,44,22,0
164.65848,164.86958,54,26,0
164.65848,164.86958,51,22,0
164.65848,164.86958,44,22,0
164.88069,165.09181,54,26,0
164.88069,165.09181,51,22,0
164.88069,165.09181,44,22,0
165.10292,165.31403,54,26,0
165.10292,165.31403,51,22,0
165.10292,165.31403,44,22,0
165.32513,165.53625,54,26,0
165.32513,165.53625,44,22,0
165.32513,165.53625,51,22,0
165.54736,165.75847,54,26,0
165.54736,165.75847,51,22,0
165.54736,165.75847,44,22,0
165.7702,165.99913,40,42,0
166.01117,166.24008,45,29,0
166.01117,166.24008,52,35,0
166.25127,166.45558,52,35,0
166.25127,166.45558,45,29,0
166.46632,166.67062,52,35,0
166.46632,166.67062,45,29,0
166.68138,166.88568,52,35,0
166.68138,166.88568,45,29,0
166.89644,167.10074,52,35,0
166.89644,167.10074,45,29,0
167.1115,167.32654,45,29,0
167.1115,167.32654,52,35,0
167.32654,167.5416,52,35,0
167.32654,167.5416,45,29,0
167.75665,167.97171,45,29,0
167.75665,167.97171,52,35,0
167.5416,167.97171,40,35,0
168.18675,168.40265,45,29,0
168.18675,168.40265,52,35,0
167.97171,168.40265,40,35,0
168.40265,168.63065,35,52,0
168.64264,168.87065,40,37,0
168.64264,168.87065,47,44,0
168.88264,169.08768,47,44,0
168.88264,169.08768,40,37,0
169.09848,169.30351,47,44,0
169.09848,169.30351,40,37,0
169.3143,169.51933,40,37,0
169.3143,169.51933,47,44,0
169.53012,169.73517,47,44,0
169.53012,169.73517,40,37,0
169.74596,169.95099,47,44,0
169.74596,169.95099,40,37,0
169.96178,170.16682,47,44,0
169.96178,170.16682,40,37,0
170.39343,170.60927,47,44,0
170.39343,170.60927,40,37,0
170.17761,170.60927,35,44,0
170.82509,171.04169,47,44,0
170.82509,171.04169,52,44,0
170.60927,171.04169,40,44,0
171.28073,171.50783,47,39,0
171.28073,171.50783,51,45,0
171.51895,171.72253,51,45,0
171.51895,171.72253,47,39,0
171.73325,171.93681,51,46,0
171.73325,171.93681,47,39,0
171.94753,172.1511,51,46,0
171.94753,172.1511,47,39,0
172.16182,172.37639,51,46,0
172.16182,172.37639,47,39,0
171.04169,172.37639,39,61,0
172.59944,172.81134,46,39,0
172.59944,172.81134,51,46,0
172.59944,172.81134,49,39,0
172.8225,173.02606,46,39,0
172.8225,173.02606,49,39,0
172.8225,173.02606,51,46,0
173.03677,173.24095,46,39,0
173.03677,173.24095,49,39,0
173.03677,173.24095,51,46,0
173.25351,173.492,46,39,0
173.25351,173.492,49,39,0
173.25351,173.492,51,45,0
173.50456,173.74304,46,39,0
173.50456,173.74304,49,39,0
173.50456,173.74304,51,45,0
172.37639,173.7556,39,61,0
174.00665,174.21776,51,22,0
174.00665,174.21776,56,26,0
174.22887,174.43999,51,22,0
174.22887,174.43999,56,26,0
174.4511,174.6622,51,22,0
174.4511,174.6622,56,26,0
174.67331,174.88443,51,22,0
174.67331,174.88443,56,26,0
174.89554,175.10664,51,22,0
174.89554,175.10664,56,26,0
175.11775,175.32887,56,26,0
175.11775,175.32887,51,22,0
175.33998,175.55109,56,26,0
175.33998,175.55109,51,22,0
173.7556,175.5622,44,52,0
175.78442,176.00923,56,26,0
175.78442,176.00923,51,22,0
175.5622,176.00923,44,26,0
176.2832,176.55717,56,26,0
176.2832,176.55717,51,22,0
176.00923,176.55717,44,26,0
176.55717,176.78609,32,26,0
176.79814,177.02705,44,22,0
176.79814,177.02705,51,22,0
176.79814,177.02705,54,26,0
177.03911,177.25084,44,22,0
177.03911,177.25084,51,22,0
177.03911,177.25084,54,26,0
177.26195,177.47307,44,22,0
177.26195,177.47307,51,22,0
177.26195,177.47307,54,26,0
177.48418,177.69528,54,26,0
177.48418,177.69528,51,22,0
177.48418,177.69528,44,22,0
177.70639,177.91751,54,26,0
177.70639,177.91751,44,22,0
177.70639,177.91751,51,22,0
177.92862,178.13972,54,26,0
177.92862,178.13972,51,22,0
177.92862,178.13972,44,22,0
178.15085,178.36195,44,22,0
178.15085,178.36195,51,22,0
178.15085,178.36195,54,26,0
178.37306,178.58417,44,22,0
178.37306,178.58417,51,22,0
178.37306,178.58417,54,26,0
178.59529,178.8064,44,22,0
178.59529,178.8064,51,22,0
178.59529,178.8064,54,26,0
178.8175,179.02863,54,26,0
178.8175,179.02863,51,22,0
178.8175,179.02863,44,22,0
179.03973,179.25084,54,26,0
179.03973,179.25084,44,22,0
179.03973,179.25084,51,22,0
179.26195,179.46552,32,26,0
179.47624,179.67981,44,22,0
179.47624,179.67981,49,22,0
179.47624,179.67981,52,26,0
179.69052,179.89409,52,28,0
179.69052,179.89409,49,24,0
179.69052,179.89409,44,24,0
179.9048,180.10838,52,29,0
179.9048,180.10838,49,24,0
179.9048,180.10838,44,24,0
180.1191,180.32266,52,30,0
180.1191,180.32266,49,26,0
180.1191,180.32266,44,26,0
180.33337,180.53696,49,26,0
180.33337,180.53696,44,26,0
180.33337,180.53696,52,31,0
180.54767,180.75124,52,34,0
180.54767,180.75124,49,28,0
180.54767,180.75124,44,28,0
180.76195,180.96552,52,35,0
180.76195,180.96552,44,29,0
180.76195,180.96552,49,29,0
180.97624,181.17981,52,36,0
180.97624,181.17981,49,30,0
180.97624,181.17981,44,30,0
181.19052,181.39409,49,30,0
181.19052,181.39409,44,30,0
181.19052,181.39409,52,37,0
181.4048,181.60838,52,39,0
181.4048,181.60838,49,33,0
181.4048,181.60838,44,33,0
181.6191,181.82266,49,34,0
181.6191,181.82266,44,34,0
181.6191,181.82266,52,39,0
181.83337,182.06047,33,47,0
182.07242,182.29951,45,35,0
182.07242,182.29951,49,35,0
182.07242,182.29951,52,42,0
182.31062,182.52173,52,45,0
182.31062,182.52173,49,38,0
182.31062,182.52173,45,38,0
182.53285,182.74396,49,36,0
182.53285,182.74396,45,36,0
182.53285,182.74396,52,44,0
182.75507,182.96619,49,34,0
182.75507,182.96619,45,34,0
182.75507,182.96619,52,40,0
182.9773,183.1884,49,33,0
182.9773,183.1884,45,33,0
182.9773,183.1884,52,39,0
183.19951,183.41063,49,30,0
183.19951,183.41063,45,30,0
183.19951,183.41063,52,37,0
183.42174,183.63284,52,35,0
183.42174,183.63284,49,29,0
183.42174,183.63284,45,29,0
183.64395,183.85507,45,28,0
183.64395,183.85507,51,34,0
183.86618,184.07729,45,26,0
183.86618,184.07729,51,31,0
184.08948,184.3212,45,25,0
184.08948,184.3212,51,30,0
184.33339,184.5651,45,24,0
184.33339,184.5651,51,28,0
184.5758,184.77937,32,26,0
184.7901,184.99367,44,26,0
185.00438,185.20795,44,22,0
185.00438,185.20795,51,26,0
185.00438,185.20795,48,22,0
185.21866,185.42224,44,22,0
185.21866,185.42224,51,26,0
185.21866,185.42224,48,22,0
185.43295,185.63652,44,22,0
185.43295,185.63652,51,26,0
185.43295,185.63652,48,22,0
185.64723,185.8508,44,22,0
185.64723,185.8508,51,26,0
185.64723,185.8508,48,22,0
185.86153,186.0651,44,22,0
185.86153,186.0651,51,26,0
185.86153,186.0651,48,22,0
186.0758,186.27937,44,22,0
186.0758,186.27937,51,26,0
186.0758,186.27937,48,22,0
186.29008,186.49367,44,22,0
186.29008,186.49367,51,26,0
186.29008,186.49367,48,22,0
186.50438,186.70795,44,22,0
186.50438,186.70795,51,26,0
186.50438,186.70795,48,22,0
186.71866,186.92224,44,22,0
186.71866,186.92224,51,26,0
186.71866,186.92224,48,22,0
186.93295,187.13652,44,22,0
186.93295,187.13652,51,26,0
186.93295,187.13652,48,22,0
187.14851,187.39528,32,26,0
187.40826,187.65501,44,22,0
187.40826,187.65501,51,22,0
187.40826,187.65501,54,26,0
187.668,187.8791,44,22,0
187.668,187.8791,51,22,0
187.668,187.8791,54,26,0
187.89023,188.10133,44,22,0
187.89023,188.10133,51,22,0
187.89023,188.10133,54,26,0
188.11244,188.32356,54,26,0
188.11244,188.32356,51,22,0
188.11244,188.32356,44,22,0
188.33467,188.54578,54,26,0
188.33467,188.54578,44,22,0
188.33467,188.54578,51,22,0
188.55688,188.768,54,26,0
188.55688,188.768,51,22,0
188.55688,188.768,44,22,0
188.77911,188.99022,44,22,0
188.77911,188.99022,51,22,0
188.77911,188.99022,54,26,0
189.00133,189.21245,44,22,0
189.00133,189.21245,51,22,0
189.00133,189.21245,54,26,0
189.22356,189.43466,44,22,0
189.22356,189.43466,51,22,0
189.22356,189.43466,54,26,0
189.44577,189.65689,54,26,0
189.44577,189.65689,51,22,0
189.44577,189.65689,44,22,0
189.668,189.8791,54,26,0
189.668,189.8791,44,22,0
189.668,189.8791,51,22,0
189.89023,190.0938,32,26,0
190.1045,190.30807,44,22,0
190.1045,190.30807,49,22,0
190.1045,190.30807,52,26,0
190.31879,190.52237,52,26,0
190.31879,190.52237,49,22,0
190.31879,190.52237,44,22,0
190.53308,190.73665,52,26,0
190.53308,190.73665,49,22,0
190.53308,190.73665,44,22,0
190.74736,190.95093,52,26,0
190.74736,190.95093,49,22,0
190.74736,190.95093,44,22,0
190.96165,191.16522,52,26,0
190.96165,191.16522,49,22,0
190.96165,191.16522,44,22,0
191.17593,191.3795,52,26,0
191.17593,191.3795,49,22,0
191.17593,191.3795,44,22,0
191.39021,191.5938,52,28,0
191.39021,191.5938,44,24,0
191.39021,191.5938,49,24,0
191.6045,191.80807,52,30,0
191.6045,191.80807,49,26,0
191.6045,191.80807,44,26,0
191.81879,192.02235,52,35,0
191.81879,192.02235,49,29,0
191.81879,192.02235,44,29,0
192.03308,192.23665,52,37,0
192.03308,192.23665,49,30,0
192.03308,192.23665,44,30,0
192.24736,192.45093,52,39,0
192.24736,192.45093,49,34,0
192.24736,192.45093,44,34,0
192.46164,192.68874,33,41,0
192.70068,192.92778,45,35,0
192.70068,192.92778,49,35,0
192.70068,192.92778,52,41,0
192.93889,193.15001,52,44,0
192.93889,193.15001,49,36,0
192.93889,193.15001,45,36,0
193.16112,193.37222,52,42,0
193.16112,193.37222,49,35,0
193.16112,193.37222,45,35,0
193.38333,193.59445,52,40,0
193.38333,193.59445,49,34,0
193.38333,193.59445,45,34,0
193.60556,193.81667,52,39,0
193.60556,193.81667,49,33,0
193.60556,193.81667,45,33,0
193.82779,194.0389,52,37,0
193.82779,194.0389,49,30,0
193.82779,194.0389,45,30,0
194.05,194.26111,52,35,0
194.05,194.26111,49,29,0
194.05,194.26111,45,29,0
194.27223,194.48334,52,34,0
194.27223,194.48334,49,28,0
194.27223,194.48334,45,28,0
194.49445,194.70555,52,31,0
194.49445,194.70555,49,26,0
194.49445,194.70555,45,26,0
194.71667,194.92778,52,30,0
194.71667,194.92778,49,25,0
194.71667,194.92778,45,25,0
194.93889,195.15001,52,28,0
194.93889,195.15001,49,24,0
194.93889,195.15001,45,24,0
195.16112,195.37222,32,27,0
195.38333,195.59445,44,22,0
195.38333,195.59445,49,22,0
195.38333,195.59445,52,26,0
195.60556,195.81667,44,22,0
195.60556,195.81667,49,22,0
195.60556,195.81667,52,26,0
195.82777,196.0389,44,22,0
195.82777,196.0389,49,22,0
195.82777,196.0389,52,26,0
196.05,196.26111,44,22,0
196.05,196.26111,49,22,0
196.05,196.26111,52,26,0
196.27222,196.48334,44,22,0
196.27222,196.48334,49,22,0
196.27222,196.48334,52,26,0
196.49445,196.70555,32,26,0
196.71667,196.92778,44,19,0
196.71667,196.92778,48,19,0
196.71667,196.92778,51,24,0
196.93889,197.15,44,19,0
196.93889,197.15,48,19,0
196.93889,197.15,51,24,0
197.16112,197.37222,44,18,0
197.16112,197.37222,48,18,0
197.16112,197.37222,51,22,0
197.38333,197.64188,44,17,0
197.38333,197.64188,48,17,0
197.38333,197.64188,51,22,0
197.65558,197.91585,44,17,0
197.65558,197.91585,48,17,0
197.65558,197.91585,51,22,0
197.92955,198.14711,37,42,0
198.15855,198.37611,44,22,0
198.15855,198.37611,49,22,0
198.15855,198.37611,53,26,0
198.38757,198.59868,49,22,0
198.38757,198.59868,44,22,0
198.38757,198.59868,53,26,0
198.60979,198.8209,49,22,0
198.60979,198.8209,44,22,0
198.60979,198.8209,53,26,0
198.83202,199.04312,49,22,0
198.83202,199.04312,44,22,0
198.83202,199.04312,53,26,0
199.05423,199.26535,49,22,0
199.05423,199.26535,44,22,0
199.05423,199.26535,53,26,0
199.27646,199.51396,49,22,0
199.27646,199.51396,44,22,0
199.27646,199.51396,53,26,0
199.52646,199.76396,49,22,0
199.52646,199.76396,44,22,0
199.52646,199.76396,53,26,0
199.77646,199.98003,49,22,0
199.77646,199.98003,44,22,0
199.77646,199.98003,53,26,0
199.99074,200.19432,49,22,0
199.99074,200.19432,44,22,0
199.99074,200.19432,53,26,0
200.20503,200.41588,49,22,0
200.20503,200.41588,44,22,0
200.20503,200.41588,53,26,0
200.42699,200.63809,44,22,0
200.42699,200.63809,49,22,0
200.42699,200.63809,53,26,0
200.64923,200.86113,36,41,0
200.87228,201.08418,44,22,0
200.87228,201.08418,54,26,0
200.87228,201.08418,51,22,0
201.09534,201.30722,54,26,0
201.09534,201.30722,51,22,0
201.09534,201.30722,44,22,0
201.31837,201.53027,54,26,0
201.31837,201.53027,51,22,0
201.31837,201.53027,44,22,0
201.54143,201.75333,54,26,0
201.54143,201.75333,51,22,0
201.54143,201.75333,44,22,0
201.76448,201.97638,54,26,0
201.76448,201.97638,51,22,0
201.76448,201.97638,44,22,0
201.98752,202.19942,54,26,0
201.98752,202.19942,51,22,0
201.98752,202.19942,44,22,0
202.21057,202.42247,54,26,0
202.21057,202.42247,51,22,0
202.21057,202.42247,44,22,0
202.43362,202.64552,54,26,0
202.43362,202.64552,51,22,0
202.43362,202.64552,44,22,0
202.65668,202.86856,54,26,0
202.65668,202.86856,51,22,0
202.65668,202.86856,44,22,0
202.87971,203.09161,54,26,0
202.87971,203.09161,44,22,0
202.87971,203.09161,51,22,0
203.10277,203.31467,54,26,0
203.10277,203.31467,51,22,0
203.10277,203.31467,44,22,0
203.32582,203.53772,37,40,0
203.54886,203.76076,44,22,0
203.54886,203.76076,49,22,0
203.54886,203.76076,53,26,0
203.77191,203.98381,49,22,0
203.77191,203.98381,44,22,0
203.77191,203.98381,53,26,0
203.99496,204.20686,49,22,0
203.99496,204.20686,44,22,0
203.99496,204.20686,53,26,0
204.21802,204.4299,49,22,0
204.21802,204.4299,44,22,0
204.21802,204.4299,53,26,0
204.44106,204.65295,49,22,0
204.44106,204.65295,44,22,0
204.44106,204.65295,53,26,0
204.66411,204.86797,49,22,0
204.66411,204.86797,44,22,0
204.66411,204.86797,53,26,0
204.8787,205.08226,49,22,0
204.8787,205.08226,44,22,0
204.8787,205.08226,53,26,0
205.09297,205.29654,49,22,0
205.09297,205.29654,44,22,0
205.09297,205.29654,53,26,0
205.30725,205.51083,49,22,0
205.30725,205.51083,44,22,0
205.30725,205.51083,53,26,0
205.52155,205.76886,49,22,0
205.52155,205.76886,44,22,0
205.52155,205.76886,53,26,0
205.78197,206.03087,44,22,0
205.78197,206.03087,49,22,0
205.78197,206.03087,53,26,0
206.04396,206.25641,39,39,0
206.26752,206.47862,44,22,0
206.26752,206.47862,54,26,0
206.26752,206.47862,51,22,0
206.48973,206.70085,54,26,0
206.48973,206.70085,51,22,0
206.48973,206.70085,44,22,0
206.71196,206.92307,54,26,0
206.71196,206.92307,51,22,0
206.71196,206.92307,44,22,0
206.93419,207.1453,54,26,0
206.93419,207.1453,51,22,0
206.93419,207.1453,44,22,0
207.1564,207.36751,54,26,0
207.1564,207.36751,51,22,0
207.1564,207.36751,44,22,0
207.37863,207.58974,54,26,0
207.37863,207.58974,51,22,0
207.37863,207.58974,44,22,0
207.60085,207.81197,54,26,0
207.60085,207.81197,51,22,0
207.60085,207.81197,44,22,0
207.82307,208.03418,54,26,0
207.82307,208.03418,51,22,0
207.82307,208.03418,44,22,0
208.04529,208.25641,54,26,0
208.04529,208.25641,51,22,0
208.04529,208.25641,44,22,0
208.26752,208.47862,54,26,0
208.26752,208.47862,44,22,0
208.26752,208.47862,51,22,0
208.48973,208.70085,54,26,0
208.48973,208.70085,51,22,0
208.48973,208.70085,44,22,0
208.71259,208.9415,40,42,0
208.95355,209.18246,45,29,0
208.95355,209.18246,52,35,0
209.19365,209.39795,52,35,0
209.19365,209.39795,45,29,0
209.4087,209.613,52,35,0
209.4087,209.613,45,29,0
209.62375,209.82806,52,35,0
209.62375,209.82806,45,29,0
209.8388,210.0431,52,35,0
209.8388,210.0431,45,29,0
210.05386,210.25816,45,29,0
210.05386,210.25816,52,35,0
210.26892,210.47322,52,35,0
210.26892,210.47322,45,29,0
210.69902,210.91408,45,29,0
210.69902,210.91408,52,35,0
210.48398,210.91408,40,35,0
211.12914,211.34502,45,29,0
211.12914,211.34502,52,35,0
210.91408,211.34502,40,35,0
211.34502,211.57301,35,42,0
211.58502,211.81302,40,31,0
211.58502,211.81302,47,38,0
211.82501,212.03006,47,38,0
211.82501,212.03006,40,31,0
212.04085,212.24588,47,38,0
212.04085,212.24588,40,31,0
212.25667,212.46172,40,31,0
212.25667,212.46172,47,38,0
212.4725,212.67754,47,38,0
212.4725,212.67754,40,31,0
212.68832,212.89337,47,39,0
212.68832,212.89337,40,34,0
212.90416,213.10919,47,39,0
212.90416,213.10919,40,34,0
213.33582,213.55164,47,39,0
213.33582,213.55164,40,34,0
213.11998,213.55164,35,39,0
213.76747,213.98407,40,34,0
213.76747,213.98407,47,39,0
213.55164,213.98407,35,39,0
213.98407,214.22408,38,49,0
214.22408,214.45207,50,42,0
214.22408,214.45207,45,35,0
214.46407,214.6691,50,42,0
214.46407,214.6691,45,35,0
214.6799,214.88493,50,42,0
214.6799,214.88493,45,35,0
214.89572,215.10075,50,42,0
214.89572,215.10075,45,35,0
215.11156,215.31659,50,42,0
215.11156,215.31659,45,35,0
215.32738,215.53241,45,39,0
215.32738,215.53241,50,46,0
215.54321,215.74825,45,38,0
215.54321,215.74825,50,45,0
215.97485,216.19069,45,38,0
215.97485,216.19069,50,45,0
215.75903,216.19069,38,45,0
216.40651,216.62312,45,38,0
216.40651,216.62312,50,45,0
216.19069,216.62312,38,45,0
216.86311,217.10312,40,38,0
216.86311,217.10312,45,45,0
216.62312,217.10312,33,45,0
217.10312,217.31894,33,45,0
217.31894,217.52399,40,38,0
217.31894,217.52399,45,45,0
217.53477,217.7398,40,38,0
217.53477,217.7398,45,45,0
217.7506,217.95564,40,38,0
217.7506,217.95564,45,45,0
217.96643,218.17146,40,41,0
217.96643,218.17146,45,49,0
218.18225,218.38728,40,41,0
218.18225,218.38728,45,49,0
218.6139,218.82974,40,41,0
218.6139,218.82974,45,49,0
218.39809,218.82974,33,49,0
219.04556,219.26216,40,41,0
219.04556,219.26216,45,49,0
218.82974,219.26216,33,49,0
219.26216,219.48926,32,61,0
219.5012,219.7283,52,51,0
219.5012,219.7283,49,44,0
219.5012,219.7283,44,44,0
219.73943,219.943,52,51,0
219.73943,219.943,49,44,0
219.73943,219.943,44,44,0
219.95372,220.15729,52,52,0
219.95372,220.15729,49,44,0
219.95372,220.15729,44,44,0
220.168,220.37157,52,52,0
220.168,220.37157,49,44,0
220.168,220.37157,44,44,0
220.38228,220.58586,52,52,0
220.38228,220.58586,49,44,0
220.38228,220.58586,44,44,0
220.59686,220.80876,32,61,0
220.81992,221.03181,54,52,0
220.81992,221.03181,51,44,0
220.81992,221.03181,44,44,0
221.04295,221.24654,54,52,0
221.04295,221.24654,51,44,0
221.04295,221.24654,44,44,0
221.25725,221.46143,54,52,0
221.25725,221.46143,51,44,0
221.25725,221.46143,44,44,0
221.47398,221.71248,54,51,0
221.47398,221.71248,51,44,0
221.47398,221.71248,44,44,0
221.72502,221.96352,54,51,0
221.72502,221.96352,51,44,0
221.72502,221.96352,44,44,0
221.97607,222.21457,37,52,0
222.22711,222.43823,52,40,0
222.22711,222.43823,49,34,0
222.22711,222.43823,44,34,0
222.44934,222.66045,52,40,0
222.44934,222.66045,49,34,0
222.44934,222.66045,44,34,0
222.67157,222.88268,52,40,0
222.67157,222.88268,49,34,0
222.67157,222.88268,44,34,0
222.89378,223.10489,52,40,0
222.89378,223.10489,49,34,0
222.89378,223.10489,44,34,0
223.11601,223.32712,52,40,0
223.11601,223.32712,49,34,0
223.11601,223.32712,44,34,0
223.33823,223.54935,52,39,0
223.33823,223.54935,44,34,0
223.33823,223.54935,49,34,0
223.56046,223.77156,52,39,0
223.56046,223.77156,49,34,0
223.56046,223.77156,44,34,0
223.78267,223.99379,52,37,0
223.78267,223.99379,49,30,0
223.78267,223.99379,44,30,0
224.0049,224.216,52,36,0
224.0049,224.216,49,30,0
224.0049,224.216,44,30,0
224.2297,224.48997,52,34,0
224.2297,224.48997,49,28,0
224.2297,224.48997,44,28,0
224.50368,224.76395,52,30,0
224.50368,224.76395,49,25,0
224.50368,224.76395,44,25,0
224.77765,225.00656,32,26,0
225.01862,225.24753,44,22,0
225.01862,225.24753,51,22,0
225.01862,225.24753,54,26,0
225.25958,225.47131,44,22,0
225.25958,225.47131,51,22,0
225.25958,225.47131,54,26,0
225.48242,225.69354,44,22,0
225.48242,225.69354,51,22,0
225.48242,225.69354,54,26,0
225.70465,225.91576,54,26,0
225.70465,225.91576,51,22,0
225.70465,225.91576,44,22,0
225.92686,226.13799,54,26,0
225.92686,226.13799,44,22,0
225.92686,226.13799,51,22,0
226.1491,226.3602,54,26,0
226.1491,226.3602,51,22,0
226.1491,226.3602,44,22,0
226.3713,226.58243,44,22,0
226.3713,226.58243,51,22,0
226.3713,226.58243,54,26,0
226.59354,226.80464,44,22,0
226.59354,226.80464,51,22,0
226.59354,226.80464,54,26,0
226.81575,227.02687,44,22,0
226.81575,227.02687,51,22,0
226.81575,227.02687,54,26,0
227.03798,227.24908,54,26,0
227.03798,227.24908,51,22,0
227.03798,227.24908,44,22,0
227.2602,227.47131,54,26,0
227.2602,227.47131,44,22,0
227.2602,227.47131,51,22,0
227.48242,227.68599,32,26,0
227.6967,227.90028,44,22,0
227.6967,227.90028,49,22,0
227.6967,227.90028,52,26,0
227.911,228.11456,52,28,0
227.911,228.11456,49,24,0
227.911,228.11456,44,24,0
228.12527,228.32886,52,29,0
228.12527,228.32886,49,24,0
228.12527,228.32886,44,24,0
228.33957,228.54314,52,30,0
228.33957,228.54314,49,26,0
228.33957,228.54314,44,26,0
228.55385,228.75742,49,26,0
228.55385,228.75742,44,26,0
228.55385,228.75742,52,31,0
228.76814,228.97171,52,34,0
228.76814,228.97171,49,28,0
228.76814,228.97171,44,28,0
228.98242,229.18599,52,35,0
228.98242,229.18599,44,29,0
228.98242,229.18599,49,29,0
229.1967,229.40028,52,36,0
229.1967,229.40028,49,30,0
229.1967,229.40028,44,30,0
229.411,229.61456,49,30,0
229.411,229.61456,44,30,0
229.411,229.61456,52,37,0
229.62527,229.82884,52,39,0
229.62527,229.82884,49,33,0
229.62527,229.82884,44,33,0
229.83957,230.04314,49,34,0
229.83957,230.04314,44,34,0
229.83957,230.04314,52,39,0
230.05385,230.28094,33,47,0
230.2929,230.51999,45,35,0
230.2929,230.51999,49,35,0
230.2929,230.51999,52,42,0
230.5311,230.7422,52,45,0
230.5311,230.7422,49,38,0
230.5311,230.7422,45,38,0
230.75331,230.96443,49,36,0
230.75331,230.96443,45,36,0
230.75331,230.96443,52,44,0
230.97554,231.18665,49,34,0
230.97554,231.18665,45,34,0
230.97554,231.18665,52,40,0
231.19775,231.40887,49,33,0
231.19775,231.40887,45,33,0
231.19775,231.40887,52,39,0
231.41998,231.63109,49,30,0
231.41998,231.63109,45,30,0
231.41998,231.63109,52,37,0
231.64221,231.85332,52,35,0
231.64221,231.85332,49,29,0
231.64221,231.85332,45,29,0
231.86443,232.07553,45,28,0
231.86443,232.07553,51,34,0
232.08665,232.29776,45,26,0
232.08665,232.29776,51,31,0
232.30995,232.54166,45,25,0
232.30995,232.54166,51,30,0
232.55386,232.78557,45,24,0
232.55386,232.78557,51,28,0
232.79628,232.99985,32,26,0
233.01056,233.21414,44,26,0
233.22485,233.42842,44,26,0
233.22485,233.42842,51,26,0
233.22485,233.42842,48,26,0
233.43913,233.6427,44,22,0
233.43913,233.6427,51,26,0
233.43913,233.6427,48,22,0
233.65343,233.857,44,22,0
233.65343,233.857,51,26,0
233.65343,233.857,48,22,0
233.8677,234.07127,44,22,0
233.8677,234.07127,51,26,0
233.8677,234.07127,48,22,0
234.08199,234.28557,44,22,0
234.08199,234.28557,51,26,0
234.08199,234.28557,48,22,0
234.29628,234.49985,44,22,0
234.29628,234.49985,51,26,0
234.29628,234.49985,48,22,0
234.51056,234.71414,44,22,0
234.51056,234.71414,51,26,0
234.51056,234.71414,48,22,0
234.72485,234.92842,44,22,0
234.72485,234.92842,51,26,0
234.72485,234.92842,48,22,0
234.93913,235.1427,44,22,0
234.93913,235.1427,51,26,0
234.93913,235.1427,48,22,0
235.15343,235.357,44,22,0
235.15343,235.357,51,26,0
235.15343,235.357,48,22,0
235.36899,235.61574,32,26,0
235.62874,235.87549,44,22,0
235.62874,235.87549,51,22,0
235.62874,235.87549,54,26,0
235.88847,236.09958,44,22,0
235.88847,236.09958,51,22,0
235.88847,236.09958,54,26,0
236.11069,236.32181,44,22,0
236.11069,236.32181,51,22,0
236.11069,236.32181,54,26,0
236.33292,236.54402,54,26,0
236.33292,236.54402,51,22,0
236.33292,236.54402,44,22,0
236.55515,236.76625,54,26,0
236.55515,236.76625,44,22,0
236.55515,236.76625,51,22,0
236.77736,236.98846,54,26,0
236.77736,236.98846,51,22,0
236.77736,236.98846,44,22,0
236.99959,237.2107,44,22,0
236.99959,237.2107,51,22,0
236.99959,237.2107,54,26,0
237.2218,237.43292,44,22,0
237.2218,237.43292,51,22,0
237.2218,237.43292,54,26,0
237.44403,237.65514,44,22,0
237.44403,237.65514,51,22,0
237.44403,237.65514,54,26,0
237.66624,237.87737,54,26,0
237.66624,237.87737,51,22,0
237.66624,237.87737,44,22,0
237.88847,238.09958,54,26,0
237.88847,238.09958,44,22,0
237.88847,238.09958,51,22,0
238.11069,238.31427,32,26,0
238.32498,238.52855,44,22,0
238.32498,238.52855,49,22,0
238.32498,238.52855,52,26,0
238.53926,238.74283,52,26,0
238.53926,238.74283,49,22,0
238.53926,238.74283,44,22,0
238.75356,238.95712,52,26,0
238.75356,238.95712,49,22,0
238.75356,238.95712,44,22,0
238.96783,239.1714,52,26,0
238.96783,239.1714,49,22,0
238.96783,239.1714,44,22,0
239.18211,239.3857,52,26,0
239.18211,239.3857,49,22,0
239.18211,239.3857,44,22,0
239.39641,239.59998,52,26,0
239.39641,239.59998,49,22,0
239.39641,239.59998,44,22,0
239.61069,239.81425,52,28,0
239.61069,239.81425,44,24,0
239.61069,239.81425,49,24,0
239.82498,240.02855,52,30,0
239.82498,240.02855,49,26,0
239.82498,240.02855,44,26,0
240.03926,240.24283,52,35,0
240.03926,240.24283,49,29,0
240.03926,240.24283,44,29,0
240.25354,240.45712,52,37,0
240.25354,240.45712,49,30,0
240.25354,240.45712,44,30,0
240.46783,240.6714,52,39,0
240.46783,240.6714,49,34,0
240.46783,240.6714,44,34,0
240.68211,240.90921,33,41,0
240.92116,241.14825,45,35,0
240.92116,241.14825,49,35,0
240.92116,241.14825,52,41,0
241.15936,241.37048,52,44,0
241.15936,241.37048,49,36,0
241.15936,241.37048,45,36,0
241.38159,241.5927,52,42,0
241.38159,241.5927,49,35,0
241.38159,241.5927,45,35,0
241.6038,241.81493,52,40,0
241.6038,241.81493,49,34,0
241.6038,241.81493,45,34,0
241.82603,242.03714,52,39,0
241.82603,242.03714,49,33,0
241.82603,242.03714,45,33,0
242.04825,242.25937,52,37,0
242.04825,242.25937,49,30,0
242.04825,242.25937,45,30,0
242.27048,242.48158,52,35,0
242.27048,242.48158,49,29,0
242.27048,242.48158,45,29,0
242.49269,242.70381,52,34,0
242.49269,242.70381,49,28,0
242.49269,242.70381,45,28,0
242.71492,242.92603,52,31,0
242.71492,242.92603,49,26,0
242.71492,242.92603,45,26,0
242.93713,243.14825,52,30,0
242.93713,243.14825,49,25,0
242.93713,243.14825,45,25,0
243.15936,243.37047,52,28,0
243.15936,243.37047,49,24,0
243.15936,243.37047,45,24,0
243.38159,243.5927,32,27,0
243.6038,243.81491,44,22,0
243.6038,243.81491,49,22,0
243.6038,243.81491,52,26,0
243.82603,244.03714,44,22,0
243.82603,244.03714,49,22,0
243.82603,244.03714,52,26,0
244.04825,244.25937,44,22,0
244.04825,244.25937,49,22,0
244.04825,244.25937,52,26,0
244.27048,244.48158,44,22,0
244.27048,244.48158,49,22,0
244.27048,244.48158,52,26,0
244.49269,244.70381,44,22,0
244.49269,244.70381,49,22,0
244.49269,244.70381,52,26,0
244.71492,244.92603,32,26,0
244.93713,245.14825,44,19,0
244.93713,245.14825,48,19,0
244.93713,245.14825,51,24,0
245.15936,245.37047,44,19,0
245.15936,245.37047,48,19,0
245.15936,245.37047,51,24,0
245.38158,245.5927,44,18,0
245.38158,245.5927,48,18,0
245.38158,245.5927,51,22,0
245.6038,245.86235,44,17,0
245.6038,245.86235,48,17,0
245.6038,245.86235,51,22,0
245.87605,246.13632,44,17,0
245.87605,246.13632,48,17,0
245.87605,246.13632,51,22,0
246.15002,246.36758,37,42,0
246.37903,246.59659,44,22,0
246.37903,246.59659,49,22,0
246.37903,246.59659,53,26,0
246.60805,246.81915,49,22,0
246.60805,246.81915,44,22,0
246.60805,246.81915,53,26,0
246.83026,247.04137,49,22,0
246.83026,247.04137,44,22,0
246.83026,247.04137,53,26,0
247.05249,247.2636,49,22,0
247.05249,247.2636,44,22,0
247.05249,247.2636,53,26,0
247.2747,247.48581,49,22,0
247.2747,247.48581,44,22,0
247.2747,247.48581,53,26,0
247.49693,247.73442,49,22,0
247.49693,247.73442,44,22,0
247.49693,247.73442,53,26,0
247.74693,247.98442,49,22,0
247.74693,247.98442,44,22,0
247.74693,247.98442,53,26,0
247.99515,248.19872,49,22,0
247.99515,248.19872,44,22,0
247.99515,248.19872,53,26,0
248.20943,248.413,49,22,0
248.20943,248.413,44,22,0
248.20943,248.413,53,26,0
248.4237,248.63483,49,22,0
248.4237,248.63483,44,22,0
248.4237,248.63483,53,26,0
248.64594,248.85704,44,22,0
248.64594,248.85704,49,22,0
248.64594,248.85704,53,26,0
248.86818,249.08008,36,41,0
249.09123,249.30313,44,22,0
249.09123,249.30313,54,26,0
249.09123,249.30313,51,22,0
249.31429,249.52618,54,26,0
249.31429,249.52618,51,22,0
249.31429,249.52618,44,22,0
249.53732,249.74922,54,26,0
249.53732,249.74922,51,22,0
249.53732,249.74922,44,22,0
249.76038,249.97227,54,26,0
249.76038,249.97227,51,22,0
249.76038,249.97227,44,22,0
249.98343,250.19533,54,26,0
249.98343,250.19533,51,22,0
249.98343,250.19533,44,22,0
250.20648,250.41837,54,26,0
250.20648,250.41837,51,22,0
250.20648,250.41837,44,22,0
250.42952,250.64142,54,26,0
250.42952,250.64142,51,22,0
250.42952,250.64142,44,22,0
250.65257,250.86447,54,26,0
250.65257,250.86447,51,22,0
250.65257,250.86447,44,22,0
250.87563,251.08752,54,26,0
250.87563,251.08752,51,22,0
250.87563,251.08752,44,22,0
251.09866,251.31056,54,26,0
251.09866,251.31056,44,22,0
251.09866,251.31056,51,22,0
251.32172,251.53362,54,26,0
251.32172,251.53362,51,22,0
251.32172,251.53362,44,22,0
251.54477,251.75667,37,40,0
251.76782,251.9797,44,22,0
251.76782,251.9797,49,22,0
251.76782,251.9797,53,26,0
251.99086,252.20276,49,22,0
251.99086,252.20276,44,22,0
251.99086,252.20276,53,26,0
252.21391,252.42581,49,22,0
252.21391,252.42581,44,22,0
252.21391,252.42581,53,26,0
252.43697,252.64885,49,22,0
252.43697,252.64885,44,22,0
252.43697,252.64885,53,26,0
252.66,252.8719,49,22,0
252.66,252.8719,44,22,0
252.66,252.8719,53,26,0
252.88306,253.08691,49,22,0
252.88306,253.08691,44,22,0
252.88306,253.08691,53,26,0
253.09764,253.30121,49,22,0
253.09764,253.30121,44,22,0
253.09764,253.30121,53,26,0
253.31192,253.51549,49,22,0
253.31192,253.51549,44,22,0
253.31192,253.51549,53,26,0
253.5262,253.72978,49,22,0
253.5262,253.72978,44,22,0
253.5262,253.72978,53,26,0
253.7405,253.98781,49,22,0
253.7405,253.98781,44,22,0
253.7405,253.98781,53,26,0
254.00092,254.24982,44,22,0
254.00092,254.24982,49,22,0
254.00092,254.24982,53,26,0
254.26292,254.47536,39,39,0
254.48647,254.69757,44,22,0
254.48647,254.69757,54,26,0
254.48647,254.69757,51,22,0
254.7087,254.9198,54,26,0
254.7087,254.9198,51,22,0
254.7087,254.9198,44,22,0
254.93091,255.14203,54,26,0
254.93091,255.14203,51,22,0
254.93091,255.14203,44,22,0
255.15314,255.36424,54,26,0
255.15314,255.36424,51,22,0
255.15314,255.36424,44,22,0
255.37535,255.58647,54,26,0
255.37535,255.58647,51,22,0
255.37535,255.58647,44,22,0
255.59758,255.80869,54,26,0
255.59758,255.80869,51,22,0
255.59758,255.80869,44,22,0
255.8198,256.0309,54,26,0
255.8198,256.0309,51,22,0
255.8198,256.0309,44,22,0
256.04202,256.25314,54,26,0
256.04202,256.25314,51,22,0
256.04202,256.25314,44,22,0
256.26425,256.47534,54,26,0
256.26425,256.47534,51,22,0
256.26425,256.47534,44,22,0
256.48645,256.69757,54,26,0
256.48645,256.69757,44,22,0
256.48645,256.69757,51,22,0
256.70868,256.9198,54,26,0
256.70868,256.9198,51,22,0
256.70868,256.9198,44,22,0
256.93152,257.16046,40,42,0
257.1725,257.4014,45,29,0
257.1725,257.4014,52,35,0
257.4126,257.6169,52,35,0
257.4126,257.6169,45,29,0
257.62766,257.83194,52,35,0
257.62766,257.83194,45,29,0
257.8427,258.047,52,35,0
257.8427,258.047,45,29,0
258.05777,258.26205,52,35,0
258.05777,258.26205,45,29,0
258.27283,258.4771,45,29,0
258.27283,258.4771,52,35,0
258.48785,258.69217,52,35,0
258.48785,258.69217,45,29,0
258.91797,259.13303,45,29,0
258.91797,259.13303,52,35,0
258.7029,259.13303,40,35,0
259.34808,259.56396,45,29,0
259.34808,259.56396,52,35,0
259.13303,259.56396,40,35,0
259.56396,259.79196,35,42,0
259.80396,260.03198,40,31,0
259.80396,260.03198,47,38,0
260.04398,260.249,47,38,0
260.04398,260.249,40,31,0
260.2598,260.46484,47,38,0
260.2598,260.46484,40,31,0
260.47562,260.68066,40,31,0
260.47562,260.68066,47,38,0
260.69144,260.89648,47,38,0
260.69144,260.89648,40,31,0
260.9073,261.1123,47,39,0
260.9073,261.1123,40,34,0
261.1231,261.32816,47,39,0
261.1231,261.32816,40,34,0
261.55475,261.7706,47,39,0
261.55475,261.7706,40,34,0
261.33893,261.7706,35,39,0
261.98642,262.203,40,34,0
261.98642,262.203,47,39,0
261.7706,262.203,35,39,0
262.203,262.43103,38,49,0
262.44302,262.67102,50,42,0
262.44302,262.67102,45,35,0
262.683,262.88806,50,42,0
262.683,262.88806,45,35,0
262.89883,263.10388,50,42,0
262.89883,263.10388,45,35,0
263.1147,263.3197,50,42,0
263.1147,263.3197,45,35,0
263.3305,263.53552,50,42,0
263.3305,263.53552,45,35,0
263.54633,263.75137,45,39,0
263.54633,263.75137,50,46,0
263.76215,263.9672,45,38,0
263.76215,263.9672,50,45,0
264.19382,264.40964,45,38,0
264.19382,264.40964,50,45,0
263.978,264.40964,38,45,0
264.62546,264.84207,45,38,0
264.62546,264.84207,50,45,0
264.40964,264.84207,38,45,0
265.08206,265.32205,40,38,0
265.08206,265.32205,45,45,0
264.84207,265.32205,33,45,0
265.32205,265.5379,33,45,0
265.5379,265.74292,40,38,0
265.5379,265.74292,45,45,0
265.75372,265.95877,40,38,0
265.75372,265.95877,45,45,0
265.96954,266.1746,40,38,0
265.96954,266.1746,45,45,0
266.18536,266.3904,40,41,0
266.18536,266.3904,45,49,0
266.4012,266.60623,40,41,0
266.4012,266.60623,45,49,0
266.83286,267.04868,40,41,0
266.83286,267.04868,45,49,0
266.61703,267.04868,33,49,0
267.26453,267.4811,40,41,0
267.26453,267.4811,45,49,0
267.04868,267.4811,33,49,0
267.4811,267.70822,32,61,0
267.72015,267.94727,52,51,0
267.72015,267.94727,49,44,0
267.72015,267.94727,44,44,0
267.95837,268.16196,52,51,0
267.95837,268.16196,49,44,0
267.95837,268.16196,44,44,0
268.17267,268.37622,52,52,0
268.17267,268.37622,49,44,0
268.17267,268.37622,44,44,0
268.38696,268.5905,52,52,0
268.38696,268.5905,49,44,0
268.38696,268.5905,44,44,0
268.60123,268.8048,52,52,0
268.60123,268.8048,49,44,0
268.60123,268.8048,44,44,0
268.81583,269.0277,32,61,0
269.03885,269.25076,54,52,0
269.03885,269.25076,51,44,0
269.03885,269.25076,44,44,0
269.2619,269.46548,54,52,0
269.2619,269.46548,51,44,0
269.2619,269.46548,44,44,0
269.4762,269.6804,54,52,0
269.4762,269.6804,51,44,0
269.4762,269.6804,44,44,0
269.69293,269.93143,54,51,0
269.69293,269.93143,51,44,0
269.69293,269.93143,44,44,0
269.94397,270.18246,54,51,0
269.94397,270.18246,51,44,0
269.94397,270.18246,44,44,0
270.19504,270.4335,37,52,0
270.44608,270.65717,52,40,0
270.44608,270.65717,49,34,0
270.44608,270.65717,44,34,0
270.6683,270.8794,52,40,0
270.6683,270.8794,49,34,0
270.6683,270.8794,44,34,0
270.8905,271.10162,52,40,0
270.8905,271.10162,49,34,0
270.8905,271.10162,44,34,0
271.11273,271.32385,52,40,0
271.11273,271.32385,49,34,0
271.11273,271.32385,44,34,0
271.33496,271.54608,52,40,0
271.33496,271.54608,49,34,0
271.33496,271.54608,44,34,0
271.5572,271.76828,52,39,0
271.5572,271.76828,44,34,0
271.5572,271.76828,49,34,0
271.7794,271.9905,52,39,0
271.7794,271.9905,49,34,0
271.7794,271.9905,44,34,0
272.00162,272.21274,52,37,0
272.00162,272.21274,49,30,0
272.00162,272.21274,44,30,0
272.22385,272.43497,52,36,0
272.22385,272.43497,49,30,0
272.22385,272.43497,44,30,0
272.44608,272.65717,52,34,0
272.44608,272.65717,49,28,0
272.44608,272.65717,44,28,0
272.6683,272.8794,52,30,0
272.6683,272.8794,49,25,0
272.6683,272.8794,44,25,0
272.8905,273.10162,37,26,0
273.11273,273.32385,49,22,0
273.11273,273.32385,52,26,0
273.33496,273.54605,49,22,0
273.33496,273.54605,52,26,0
273.5572,273.76828,49,22,0
273.5572,273.76828,52,26,0
273.7794,273.9905,49,22,0
273.7794,273.9905,52,26,0
274.00162,274.21274,49,22,0
274.00162,274.21274,52,26,0
274.22385,274.43497,52,26,0
274.22385,274.43497,49,22,0
274.44608,274.65717,52,26,0
274.44608,274.65717,49,22,0
274.66827,274.90677,52,26,0
274.66827,274.90677,49,22,0
274.91934,275.15784,52,26,0
274.91934,275.15784,49,22,0
275.17038,275.40887,52,26,0
275.17038,275.40887,49,22,0
275.42142,275.6599,52,26,0
275.42142,275.6599,49,22,0
275.6725,275.88358,39,26,0
275.89468,276.1058,51,26,0
276.1169,276.32803,51,26,0
276.33914,276.55026,51,25,0
276.56137,276.77246,51,25,0
276.78357,276.9947,51,24,0
277.0058,277.2166,51,24,0
277.22775,277.4404,51,24,0
277.45163,277.66608,51,23,0
277.6774,277.8938,51,23,0
277.90527,278.1236,51,22,0
278.13513,278.35538,51,22,0
278.367,278.58932,39,22,0
278.6011,278.82544,51,22,0
278.83728,279.06366,51,22,0
279.07562,279.30417,51,20,0
279.31628,279.54697,51,20,0
279.55917,279.79202,51,19,0
279.80432,280.03888,51,19,0
280.05124,280.2858,51,19,0
280.29813,280.5327,51,18,0
280.54504,280.77963,51,18,0
280.79196,281.07657,51,17,0
281.09164,281.37808,51,17,0
281.39316,281.73254,39,46,0
281.84296,283.88824,51,35,0
281.84296,283.88824,58,35,0
281.84296,283.88824,61,42,0
283.88824,286.26398,61,60,0
283.88824,286.26398,55,51,0
283.88824,286.26398,51,51,0
283.88824,286.26398,58,51,0
286.26398,288.77853,55,42,0
286.26398,288.77853,51,42,0
286.26398,288.77853,61,50,0
286.26398,288.77853,58,42,0
288.77853,288.9749,44,40,0
289.17117,290.75684,63,40,0
289.17117,290.75684,56,34,0
289.17117,290.75684,59,34,0
290.75684,290.9955,63,33,0
290.75684,290.9955,58,27,0
290.75684,290.9955,51,27,0
291.23184,291.42792,44,40,0
291.62427,293.21143,63,40,0
291.62427,293.21143,56,34,0
291.62427,293.21143,59,34,0
293.21143,293.46246,63,33,0
293.21143,293.46246,58,27,0
293.21143,293.46246,51,27,0
293.7135,294.1905,56,27,0
293.7135,294.1905,59,27,0
293.7135,294.1905,63,27,0
294.2144,294.62152,58,27,0
294.2144,294.62152,64,27,0
294.2144,294.62152,51,27,0
294.64294,295.0501,64,31,0
294.64294,295.0501,58,31,0
294.64294,295.0501,51,31,0
295.07153,295.54532,64,31,0
295.07153,295.54532,58,31,0
295.07153,295.54532,51,31,0
295.57034,296.04532,63,25,0
295.57034,296.04532,58,25,0
295.57034,296.04532,51,25,0
296.0711,296.58926,58,25,0
296.0711,296.58926,51,25,0
296.0711,296.58926,61,25,0
296.61655,296.81314,44,40,0
297.00873,298.5913,63,40,0
297.00873,298.5913,56,34,0
297.00873,298.5913,59,34,0
298.5913,298.8313,63,32,0
298.5913,298.8313,58,27,0
298.5913,298.8313,51,27,0
299.07132,299.27023,44,40,0
299.4676,301.0598,63,40,0
299.4676,301.0598,56,34,0
299.4676,301.0598,59,34,0
301.0598,301.2906,63,32,0
301.0598,301.2906,58,27,0
301.0598,301.2906,51,27,0
301.52136,301.99835,56,27,0
301.52136,301.99835,59,27,0
301.52136,301.99835,63,27,0
302.02222,302.42938,58,27,0
302.02222,302.42938,64,27,0
302.02222,302.42938,54,27,0
302.4508,302.85794,64,31,0
302.4508,302.85794,58,31,0
302.4508,302.85794,54,31,0
302.87936,303.35318,64,31,0
302.87936,303.35318,58,31,0
302.87936,303.35318,54,31,0
303.37817,303.85318,63,25,0
303.37817,303.85318,58,25,0
303.37817,303.85318,54,25,0
303.87894,304.39713,58,25,0
303.87894,304.39713,62,25,0
303.87894,304.39713,54,25,0
304.4244,304.6214,47,50,0
304.81827,306.40842,54,42,0
304.81827,306.40842,59,42,0
304.81827,306.40842,63,50,0
306.40842,306.64713,54,35,0
306.40842,306.64713,64,41,0
306.8835,307.08023,47,50,0
307.27722,308.86737,54,42,0
307.27722,308.86737,59,42,0
307.27722,308.86737,63,50,0
308.86737,309.09814,54,35,0
308.86737,309.09814,64,41,0
309.32892,309.76736,59,36,0
309.32892,309.76736,63,36,0
309.7899,310.19705,64,41,0
309.7899,310.19705,54,41,0
310.21848,310.6256,64,45,0
310.21848,310.6256,54,45,0
310.64923,311.09805,64,45,0
310.64923,311.09805,54,45,0
311.12167,311.5705,54,36,0
311.12167,311.5705,63,36,0
311.59534,312.11353,54,36,0
311.59534,312.11353,61,36,0
312.14078,312.3372,47,50,0
312.53354,314.12112,54,42,0
312.53354,314.12112,59,42,0
312.53354,314.12112,62,50,0
314.12112,314.35983,54,35,0
314.12112,314.35983,64,42,0
314.59982,314.7968,47,50,0
314.99368,316.5834,54,42,0
314.99368,316.5834,59,42,0
314.99368,316.5834,62,50,0
316.5834,316.8221,54,35,0
316.5834,316.8221,64,41,0
317.0627,317.5541,59,40,0
317.0627,317.5541,62,40,0
317.5785,317.98563,67,45,0
317.5785,317.98563,57,45,0
318.00705,318.41418,67,43,0
318.00705,318.41418,57,43,0
318.43564,318.84277,67,41,0
318.43564,318.84277,57,41,0
318.8642,319.27133,66,39,0
318.8642,319.27133,57,39,0
319.29276,319.69992,64,37,0
319.29276,319.69992,57,37,0
319.72134,320.1467,59,36,0
319.72134,320.1467,62,36,0
320.1691,320.57623,64,42,0
320.1691,320.57623,54,42,0
320.59766,321.00482,64,41,0
320.59766,321.00482,54,41,0
321.02625,321.43338,64,41,0
321.02625,321.43338,54,41,0
321.4548,321.86197,54,39,0
321.4548,321.86197,61,39,0
321.8834,322.29053,54,37,0
321.8834,322.29053,58,37,0
322.31195,322.75153,56,36,0
322.31195,322.75153,59,36,0
322.7747,323.18182,61,44,0
322.7747,323.18182,56,44,0
322.7747,323.18182,49,44,0
323.20328,323.6104,61,42,0
323.20328,323.6104,56,42,0
323.20328,323.6104,49,42,0
323.63184,324.03897,56,44,0
323.63184,324.03897,61,44,0
323.63184,324.03897,49,44,0
324.0604,324.46756,56,43,0
324.0604,324.46756,59,43,0
324.0604,324.46756,51,43,0
324.48898,324.89612,52,42,0
324.48898,324.89612,56,42,0
324.91754,325.34293,59,41,0
324.91754,325.34293,56,41,0
324.91754,325.34293,51,41,0
325.36533,325.79068,59,40,0
325.36533,325.79068,56,40,0
325.36533,325.79068,51,40,0
325.81308,326.29007,59,40,0
325.81308,326.29007,56,40,0
325.81308,326.29007,51,40,0
326.31424,326.73804,58,31,0
326.31424,326.73804,55,31,0
326.31424,326.73804,51,31,0
326.7603,327.1841,58,30,0
326.7603,327.1841,55,30,0
326.7603,327.1841,51,30,0
327.20642,327.70294,58,29,0
327.20642,327.70294,55,29,0
327.20642,327.70294,51,29,0
327.72708,328.11963,44,40,0
328.11963,329.70462,56,34,0
328.11963,329.70462,60,40,0
328.11963,329.70462,51,34,0
329.70462,329.9433,51,27,0
329.70462,329.9433,61,32,0
330.1786,330.5721,44,40,0
330.5721,332.15964,56,34,0
330.5721,332.15964,60,40,0
330.5721,332.15964,51,34,0
332.15964,332.39832,51,27,0
332.15964,332.39832,61,32,0
332.62607,333.01743,44,45,0
333.01743,334.6012,56,41,0
333.01743,334.6012,60,49,0
333.01743,334.6012,51,41,0
334.6012,334.83984,51,30,0
334.6012,334.83984,61,36,0
335.07516,335.4687,44,50,0
335.4687,337.05588,56,40,0
335.4687,337.05588,60,48,0
335.4687,337.05588,51,40,0
337.05588,337.29456,51,34,0
337.05588,337.29456,61,40,0
337.53455,337.93454,44,40,0
337.93454,338.76312,56,27,0
337.93454,338.76312,60,33,0
337.93454,338.76312,54,27,0
338.76312,339.16312,49,40,0
339.16312,339.9912,53,25,0
339.16312,339.9912,56,25,0
339.16312,339.9912,61,29,0
339.9912,340.3912,39,40,0
340.3912,341.22083,58,29,0
340.3912,341.22083,61,35,0
340.3912,341.22083,51,29,0
341.22083,341.62216,44,40,0
341.62216,342.48502,51,31,0
341.62216,342.48502,56,31,0
341.62216,342.48502,60,37,0
342.48502,342.88736,44,50,0
342.88736,343.7173,56,34,0
342.88736,343.7173,60,41,0
342.88736,343.7173,54,34,0
343.7173,344.11996,49,60,0
344.11996,344.95123,53,44,0
344.11996,344.95123,61,52,0
344.11996,344.95123,56,44,0
344.95123,345.35257,39,70,0
345.35257,346.18246,51,51,0
345.35257,346.18246,58,51,0
345.35257,346.18246,61,61,0
346.18246,346.58246,44,76,0
346.58246,347.44684,51,53,0
346.58246,347.44684,56,53,0
346.58246,347.44684,60,63,0
347.44684,347.875,51,50,0
347.875,348.47498,56,60,0
348.47498,348.675,55,50,0
347.44684,348.675,44,34,0
348.675,349.10202,53,50,0
349.10202,349.70203,61,60,0
349.70203,349.90204,60,50,0
348.675,349.90204,49,34,0
349.90204,350.33115,58,50,0
350.33115,350.93115,63,60,0
350.93115,351.13113,61,50,0
349.90204,351.13113,51,34,0
351.13113,351.55972,60,50,0
351.55972,352.3602,63,60,0
351.13113,352.3602,56,34,0
352.3602,352.84265,51,66,0
352.84265,353.44064,56,73,0
353.44064,353.63998,55,60,0
352.3602,353.63998,44,56,0
353.63998,354.0726,53,68,0
354.0726,354.6726,61,76,0
354.6726,354.87314,60,70,0
353.63998,354.87314,49,57,0
354.87314,355.2942,58,72,0
355.2942,355.8942,63,78,0
355.8942,356.09457,61,71,0
354.87314,356.09457,51,61,0
356.09457,356.51672,60,72,0
356.51672,357.11673,63,79,0
357.11673,357.31674,60,69,0
356.09457,357.31674,56,60,0
357.31674,357.75565,58,78,0
357.75565,358.35562,63,86,0
358.35562,358.55612,61,79,0
357.31674,358.55612,51,66,0
358.55612,358.98575,60,80,0
358.98575,359.58572,63,87,0
359.58572,359.78574,60,78,0
358.55612,359.78574,56,67,0
359.78574,360.23602,60,74,0
360.23602,360.83685,65,79,0
360.83685,361.03687,63,71,0
359.78574,361.03687,53,61,0
361.03687,361.46542,61,76,0
361.46542,362.06592,65,80,0
362.06592,362.26657,61,71,0
361.03687,362.26657,58,58,0
362.26657,362.70615,60,76,0
362.70615,363.30612,65,80,0
363.30612,363.50613,63,71,0
362.26657,363.50613,53,58,0
363.50613,363.93018,61,76,0
363.93018,364.53015,65,79,0
364.53015,364.73016,61,71,0
363.50613,364.73016,58,58,0
364.73016,365.21017,63,76,0
365.21017,365.81015,68,80,0
365.81015,366.01077,66,73,0
364.73016,366.01077,56,58,0
366.01077,366.43478,65,78,0
366.43478,367.0352,68,81,0
367.0352,367.2352,65,72,0
366.01077,367.2352,61,65,0
367.2352,367.6653,63,76,0
367.6653,368.2796,68,82,0
368.2796,368.4914,66,71,0
367.2352,368.4914,56,64,0
368.4914,368.87784,61,67,0
368.4914,368.87784,65,80,0
370.84198,371.03552,68,88,0
371.22946,371.4238,65,84,0
371.61862,371.81403,61,84,0
372.00986,372.20612,56,88,0
372.40283,372.60016,53,84,0
372.79794,372.99615,49,84,0
373.19482,373.98383,52,70,0
373.19482,373.98465,49,59,0
373.19482,373.98465,46,59,0
373.19482,373.98465,43,59,0
373.99213,374.782,43,59,0
373.99213,374.782,52,70,0
373.99213,374.782,49,59,0
373.99213,374.782,46,59,0
374.7895,375.57935,43,59,0
374.7895,375.57935,52,70,0
374.7895,375.57935,49,59,0
374.7895,375.57935,46,59,0
375.58682,376.38202,43,55,0
375.58682,376.38202,51,65,0
375.58682,376.38202,49,55,0
375.58682,376.38202,46,55,0
376.3896,377.19785,43,43,0
376.3896,377.19785,51,51,0
376.3896,377.19785,49,43,0
376.3896,377.19785,46,43,0
377.20554,378.1107,43,38,0
377.20554,378.1107,51,45,0
377.20554,378.1107,49,38,0
377.20554,378.1107,46,38,0
378.12006,379.1004,44,40,0
379.1004,379.529,48,40,0
379.529,380.00177,49,40,0
380.00177,380.43106,46,40,0
380.43106,380.9035,49,40,0
380.9035,382.19406,51,40,0
382.19406,383.5749,39,40,0
383.5749,384.43204,44,40,0
384.43204,384.86063,48,40,0
384.86063,385.36148,49,40,0
385.36148,385.79004,46,40,0
385.79004,386.21863,49,40,0
385.79004,386.65146,58,40,0
386.65146,387.09488,56,40,0
386.21863,387.55585,51,40,0
387.09488,387.99518,56,40,0
387.99518,388.4587,55,40,0
388.4587,389.0338,55,40,0
387.55585,389.0338,51,40,0
389.0338,389.3338,44,48,0
389.4338,390.2624,56,36,0
389.4338,390.2624,60,39,0
389.4338,390.2624,54,36,0
390.2624,390.56238,49,48,0
390.66238,391.49048,53,32,0
390.66238,391.49048,56,32,0
390.66238,391.49048,61,35,0
391.49048,391.79047,39,48,0
391.89047,392.7201,58,34,0
391.89047,392.7201,61,37,0
391.89047,392.7201,51,34,0
392.7201,393.0211,44,48,0
393.12143,393.9843,51,36,0
393.12143,393.9843,56,36,0
393.12143,393.9843,60,39,0
393.9843,394.28632,44,60,0
394.38663,395.21655,56,45,0
394.38663,395.21655,60,49,0
394.38663,395.21655,54,45,0
395.21655,395.51855,49,72,0
395.61923,396.4505,53,57,0
395.61923,396.4505,61,62,0
395.61923,396.4505,56,57,0
396.4505,396.7515,39,84,0
396.85184,397.68173,51,68,0
396.85184,397.68173,58,68,0
396.85184,397.68173,61,73,0
397.68173,397.98175,44,88,0
398.08173,398.9461,51,70,0
398.08173,398.9461,56,70,0
398.08173,398.9461,60,76,0
398.9461,399.37427,51,60,0
399.37427,399.97427,56,72,0
399.97427,400.17426,55,60,0
398.9461,400.17426,44,48,0
400.17426,400.60132,53,60,0
400.60132,401.2013,61,72,0
401.2013,401.4013,60,60,0
400.17426,401.4013,49,48,0
401.4013,401.8304,58,60,0
401.8304,402.43042,63,72,0
402.43042,402.6304,61,60,0
401.4013,402.6304,51,48,0
402.6304,403.059,60,60,0
403.059,403.85947,63,72,0
402.6304,403.85947,56,48,0
403.85947,404.34192,51,80,0
404.34192,404.9399,56,79,0
404.9399,405.13925,55,68,0
403.85947,405.13925,44,68,0
405.13925,405.57498,53,75,0
405.57498,406.175,61,79,0
406.175,406.375,60,68,0
405.13925,406.375,49,63,0
406.375,406.7957,58,78,0
406.7957,407.3957,63,85,0
407.3957,407.5957,61,68,0
406.375,407.5957,51,66,0
407.5957,408.00766,60,77,0
408.00766,408.60764,63,85,0
408.60764,408.80765,60,77,0
407.5957,408.80765,56,65,0
408.80765,409.2172,58,82,0
409.2172,409.8172,63,90,0
409.8172,410.0172,61,82,0
408.80765,410.0172,51,62,0
410.0172,410.4278,60,90,0
410.4278,411.0278,63,94,0
411.0278,411.22778,60,90,0
410.0172,411.22778,56,69,0
411.22778,411.63995,58,94,0
411.63995,412.23996,63,96,0
412.23996,412.43997,61,91,0
411.22778,412.43997,51,79,0
412.43997,412.82645,60,98,0
412.43997,412.82645,56,83,0
414.78467,414.9803,63,98,0
415.17667,415.37378,60,96,0
415.57184,415.7708,56,93,0
415.97058,416.1712,51,91,0
416.37225,416.57428,48,88,0
416.7765,416.9792,51,85,0
417.1821,417.58887,44,82,0
418.40244,418.8092,51,91,0
418.40244,418.8092,39,91,0
419.62277,420.02954,44,88,0
419.62277,420.02954,32,88,0
