start_time,end_time,note_value,velocity,instrument_program_number
0.0,2.108222,68,35,0
0.0,2.108222,56,29,0
0.0,2.108222,61,29,0
0.0,2.108222,64,29,0
2.108222,3.1178296,68,35,0
2.108222,3.1178296,56,28,0
2.108222,3.1178296,61,28,0
2.108222,3.1178296,64,28,0
3.128457,4.309344,68,35,0
3.128457,4.309344,56,29,0
3.128457,4.309344,64,29,0
3.128457,4.309344,61,29,0
4.321774,5.9029403,68,44,0
4.321774,5.9029403,56,37,0
5.9029403,6.429996,69,39,0
5.9029403,6.429996,57,39,0
6.429996,8.584015,56,39,0
4.321774,8.584015,63,37,0
4.321774,8.584015,66,37,0
6.429996,8.584015,68,39,0
8.584015,10.692237,61,37,0
8.584015,10.692237,64,44,0
8.584015,10.692237,52,37,0
8.584015,10.692237,56,37,0
10.692237,12.931043,66,51,0
10.692237,12.931043,54,42,0
10.692237,12.931043,57,42,0
10.692237,12.931043,61,42,0
13.512495,17.675056,68,48,0
13.2790365,17.724318,56,39,0
13.358892,17.724318,60,41,0
13.436687,17.724318,63,46,0
17.724318,19.83254,68,39,0
17.724318,19.83254,56,33,0
17.724318,19.83254,61,33,0
17.724318,19.83254,64,33,0
19.83254,20.85028,68,40,0
19.83254,20.85028,56,33,0
19.83254,20.85028,61,33,0
19.83254,20.85028,64,33,0
20.860994,22.04188,68,44,0
20.860994,22.04188,56,36,0
20.860994,22.04188,64,36,0
20.860994,22.04188,61,36,0
22.054312,24.162533,71,51,0
22.054312,24.162533,65,40,0
22.054312,24.162533,62,40,0
22.054312,24.162533,68,44,0
24.162533,25.190987,66,39,0
24.162533,25.190987,69,39,0
24.162533,25.190987,61,39,0
25.190987,26.290895,66,35,0
25.190987,26.290895,61,35,0
25.190987,26.290895,54,35,0
26.290895,28.399117,61,33,0
26.290895,28.399117,56,33,0
26.290895,28.399117,64,39,0
28.399117,30.637922,68,40,0
28.399117,30.637922,54,34,0
28.399117,30.637922,60,34,0
28.399117,30.637922,63,34,0
30.637922,33.446323,61,37,0
33.446323,33.890194,63,35,0
30.637922,34.11213,56,30,0
30.637922,34.11213,52,30,0
33.890194,34.33406,64,36,0
34.33406,34.793465,66,37,0
34.793465,35.299477,69,37,0
35.299477,37.407696,68,35,0
35.299477,37.407696,56,29,0
35.299477,37.407696,61,29,0
35.299477,37.407696,64,29,0
37.407696,38.417305,68,35,0
37.407696,38.417305,56,28,0
37.407696,38.417305,61,28,0
37.407696,38.417305,64,28,0
38.427933,39.608818,68,35,0
38.427933,39.608818,56,29,0
38.427933,39.608818,64,29,0
38.427933,39.608818,61,29,0
39.62125,41.202415,68,44,0
39.62125,41.202415,56,37,0
41.202415,41.729473,69,39,0
41.202415,41.729473,57,39,0
41.729473,43.88349,56,39,0
39.62125,43.88349,63,37,0
39.62125,43.88349,66,37,0
41.729473,43.88349,68,39,0
43.88349,45.99171,61,37,0
43.88349,45.99171,64,44,0
43.88349,45.99171,52,37,0
43.88349,45.99171,56,37,0
45.99171,48.23052,66,51,0
45.99171,48.23052,54,42,0
45.99171,48.23052,57,42,0
45.99171,48.23052,61,42,0
48.81197,52.974533,68,48,0
48.578514,53.023792,56,39,0
48.658367,53.023792,60,41,0
48.736164,53.023792,63,46,0
53.023792,55.132015,68,39,0
53.023792,55.132015,56,33,0
53.023792,55.132015,61,33,0
53.023792,55.132015,64,33,0
55.132015,56.105377,68,40,0
55.132015,56.105377,59,33,0
55.132015,56.105377,61,33,0
55.132015,56.105377,65,33,0
56.115623,57.29651,68,44,0
56.115623,57.29651,59,36,0
56.115623,57.29651,65,36,0
56.115623,57.29651,61,36,0
57.30894,59.41716,73,51,0
57.30894,59.41716,66,44,0
59.41716,60.47127,69,39,0
57.30894,60.47127,57,40,0
57.30894,60.47127,61,40,0
60.47127,61.57118,66,35,0
60.47127,61.57118,60,35,0
60.47127,61.57118,57,35,0
61.57118,63.6794,64,33,0
61.57118,63.6794,56,33,0
61.57118,63.6794,71,39,0
63.6794,65.918205,63,40,0
63.6794,65.918205,59,34,0
63.6794,65.918205,57,34,0
65.918205,68.72661,64,37,0
68.72661,69.17048,66,35,0
65.918205,69.39241,59,30,0
65.918205,69.39241,56,30,0
69.17048,69.61435,68,36,0
69.61435,70.05822,69,37,0
70.05822,70.50208,73,37,0
70.50208,71.02001,64,31,0
70.98017,71.4981,66,25,0
71.45826,71.97619,64,31,0
70.50208,72.41444,71,38,0
71.93635,72.452995,66,25,0
72.41444,72.91567,68,31,0
72.41444,73.33979,71,38,0
72.87711,73.381004,66,24,0
73.33979,73.875565,68,31,0
73.83435,74.38043,64,24,0
73.33979,74.38043,71,38,0
74.38043,74.89836,63,31,0
74.85852,75.37645,64,24,0
74.38043,75.80438,71,48,0
75.33661,75.84263,63,31,0
75.80438,76.27086,73,42,0
75.80438,76.31037,64,25,0
76.27086,76.78453,66,31,0
76.74502,77.25869,65,25,0
77.21918,77.741234,66,31,0
77.70002,78.220474,63,25,0
76.27086,78.220474,71,42,0
78.220474,78.7384,64,31,0
78.69856,79.21649,66,26,0
79.17665,79.69458,64,31,0
78.220474,80.13283,71,48,0
79.65474,80.17335,66,25,0
80.13283,80.66303,68,31,0
80.13283,80.66303,73,50,0
80.62182,81.16304,64,25,0
80.62182,81.16304,71,48,0
81.120735,81.670746,59,31,0
81.120735,81.670746,68,46,0
81.62843,82.13614,64,44,0
82.13614,82.67663,63,31,0
82.635056,83.13397,64,26,0
83.13397,83.67447,63,31,0
83.63289,84.173386,61,25,0
84.13181,84.67595,59,31,0
82.13614,85.14591,66,49,0
84.633644,85.18937,58,25,0
85.14591,85.71093,59,31,0
85.667465,86.189026,63,26,0
85.14591,86.189026,67,50,0
86.189026,86.706955,64,31,0
86.667114,87.185036,63,25,0
87.145195,87.663124,61,31,0
86.189026,88.10137,68,45,0
87.62328,88.13993,63,25,0
88.10137,88.60261,64,31,0
88.10137,89.026726,68,39,0
88.56405,89.06794,63,24,0
89.026726,89.5625,64,31,0
89.521286,90.067375,61,24,0
89.026726,90.067375,68,40,0
90.067375,90.585304,63,31,0
90.54546,91.06339,61,24,0
90.067375,91.49132,68,48,0
91.02355,91.52957,60,31,0
91.49132,91.9578,69,42,0
91.49132,91.997314,61,25,0
91.9578,92.47147,63,31,0
92.43196,92.94563,61,25,0
92.90612,93.42818,63,31,0
93.38696,93.90742,60,25,0
91.9578,93.90742,68,42,0
93.90742,94.42535,61,37,0
94.385506,94.90343,63,41,0
94.863594,95.381516,64,43,0
95.341675,95.86028,66,44,0
93.90742,96.34997,73,48,0
96.308754,96.84998,72,55,0
96.80767,97.35768,75,60,0
95.81976,97.823074,67,51,0
97.31538,97.86429,73,55,0
97.823074,99.838066,68,29,0
97.823074,99.838066,72,51,0
99.838066,100.37384,73,53,0
100.33263,100.8684,72,45,0
100.82719,101.36296,75,49,0
99.838066,101.8422,67,29,0
101.32175,101.883415,73,45,0
101.8422,103.849,68,29,0
101.8422,103.849,72,48,0
103.849,104.39901,73,50,0
104.3567,104.90826,72,42,0
104.8644,105.25914,75,50,0
105.21528,105.610016,73,42,0
105.566154,105.908264,72,42,0
103.849,105.91703,67,29,0
105.91703,109.07268,72,50,0
105.91703,109.07268,68,29,0
109.07268,109.63511,69,29,0
109.63511,110.17988,63,29,0
109.07268,110.17988,71,42,0
110.17988,110.71,64,31,0
110.66935,111.19258,66,25,0
111.15258,111.672585,64,31,0
110.17988,112.11258,71,38,0
111.63258,112.15114,66,25,0
112.11258,112.613815,68,31,0
112.11258,113.03794,71,38,0
112.575264,113.07915,66,24,0
113.03794,113.57371,68,31,0
113.5325,114.07858,64,24,0
113.03794,114.07858,71,38,0
114.07858,114.59651,63,31,0
114.55667,115.0746,64,24,0
114.07858,115.502525,71,48,0
115.03476,115.54078,63,31,0
115.502525,115.96901,73,42,0
115.502525,116.00852,64,25,0
115.96901,116.48268,66,31,0
116.44317,116.95684,65,25,0
116.91733,117.439384,66,31,0
117.39817,117.918625,63,25,0
115.96901,117.918625,71,42,0
117.918625,118.436554,64,31,0
118.39671,118.91464,66,26,0
118.8748,119.39273,64,31,0
117.918625,119.83097,71,48,0
119.35289,119.87149,66,25,0
119.83097,120.361176,68,31,0
119.83097,120.361176,73,50,0
120.31996,120.86119,64,25,0
120.31996,120.86119,71,48,0
120.81888,121.36889,68,46,0
120.81888,121.36889,59,31,0
121.326584,121.83428,64,44,0
121.83428,122.37478,63,31,0
122.3332,122.873695,64,26,0
122.83212,123.37261,63,31,0
123.33104,123.87154,61,25,0
123.829956,124.3741,63,31,0
121.83428,124.844055,66,49,0
124.331795,124.88752,59,25,0
124.844055,125.40907,61,31,0
125.365616,125.88717,63,26,0
124.844055,125.88717,67,50,0
125.88717,126.4051,60,31,0
126.36526,126.88319,63,25,0
126.843346,127.361275,62,31,0
127.321434,127.79952,63,25,0
125.88717,127.79952,68,56,0
127.79952,128.30075,64,39,0
127.79952,128.72487,69,53,0
128.26219,128.76608,61,33,0
128.72487,129.26065,60,37,0
129.21944,129.71399,61,30,0
128.72487,129.71399,69,51,0
129.71399,130.23192,60,31,0
130.19208,130.71,63,24,0
130.67017,131.1881,62,31,0
129.71399,131.62634,68,56,0
131.14825,131.6652,63,25,0
131.62634,132.13164,64,39,0
131.62634,132.55919,69,57,0
132.09276,132.5987,61,31,0
132.55919,133.08124,60,38,0
133.04002,133.53459,61,30,0
132.55919,133.53459,69,52,0
133.53459,133.98282,68,53,0
133.98282,134.45303,75,58,0
133.53459,134.45303,60,38,0
134.45303,134.90834,73,53,0
134.90834,135.36365,75,56,0
134.45303,135.36365,68,37,0
134.45303,135.36365,64,37,0
135.36365,135.82202,72,53,0
135.82202,136.28287,73,50,0
135.36365,136.28287,66,36,0
135.36365,136.28287,63,36,0
136.28287,136.74554,69,51,0
136.74554,137.21196,71,46,0
136.28287,137.21196,64,35,0
136.28287,137.21196,61,35,0
137.21196,137.68091,68,49,0
137.68091,138.15244,69,41,0
137.21196,138.15244,63,34,0
137.21196,138.15244,60,34,0
138.15244,138.6266,66,47,0
138.6266,139.10469,68,41,0
138.15244,139.10469,61,33,0
138.15244,139.10469,57,33,0
139.10469,139.58543,64,47,0
139.58543,140.07373,66,40,0
139.10469,140.07373,61,31,0
139.10469,140.07373,56,31,0
140.07373,140.57047,63,45,0
140.57047,141.07375,64,40,0
140.07373,141.07375,60,30,0
140.07373,141.07375,54,30,0
141.07375,142.90556,61,40,0
141.07375,142.90556,56,33,0
141.07375,142.90556,52,33,0
142.90556,143.79408,61,43,0
142.90556,143.79408,56,35,0
142.90556,143.79408,52,35,0
143.8038,144.73444,61,45,0
143.8038,144.73444,56,36,0
143.8038,144.73444,52,36,0
144.74423,148.38513,64,48,0
144.74423,148.38513,52,38,0
144.74423,148.38513,56,38,0
144.74423,148.38513,61,38,0
148.38513,150.15002,61,45,0
148.38513,150.15002,57,37,0
148.38513,150.15002,52,37,0
150.15002,150.99547,61,45,0
150.15002,150.99547,57,37,0
150.15002,150.99547,52,37,0
151.00436,151.86061,61,52,0
151.00436,151.86061,57,44,0
151.00436,151.86061,52,44,0
151.86993,155.28728,64,52,0
151.86993,155.28728,52,44,0
151.86993,155.28728,57,44,0
151.86993,155.28728,61,44,0
155.28728,156.98094,62,50,0
155.28728,156.98094,57,42,0
155.28728,156.98094,54,42,0
156.98094,157.78166,62,52,0
156.98094,157.78166,57,44,0
156.98094,157.78166,54,44,0
157.79,158.56758,62,52,0
157.79,158.56758,57,44,0
157.79,158.56758,54,44,0
158.57565,161.53905,69,56,0
158.57565,161.53905,57,47,0
158.57565,161.53905,62,47,0
158.57565,161.53905,66,47,0
161.53905,162.87946,72,70,0
161.53905,162.87946,66,59,0
161.53905,162.87946,60,59,0
161.53905,162.87946,63,59,0
161.53905,162.87946,68,59,0
162.87946,164.1422,73,78,0
162.87946,164.1422,61,66,0
162.87946,164.1422,64,66,0
162.87946,164.1422,68,66,0
164.1422,165.37073,76,88,0
164.1422,165.37073,64,74,0
164.1422,165.37073,68,74,0
164.1422,165.37073,73,74,0
165.37073,166.55362,79,101,0
165.37073,166.55362,67,85,0
165.37073,166.55362,73,85,0
165.37073,166.55362,75,85,0
166.55362,166.83012,80,103,0
166.55362,166.83012,68,88,0
166.55362,166.83012,72,88,0
166.55362,166.83012,75,88,0
166.83012,166.96837,68,89,0
166.83012,166.96837,63,74,0
166.83012,166.96837,60,74,0
167.10661,167.25159,69,93,0
167.10661,167.25159,63,79,0
167.10661,167.25159,60,79,0
167.93564,168.20518,64,74,0
167.93564,168.20518,68,89,0
167.93564,168.20518,61,74,0
168.20518,168.48454,73,97,0
168.20518,168.48454,64,81,0
168.20518,168.48454,61,81,0
169.02092,169.28911,73,89,0
169.02092,169.28911,67,74,0
169.02092,169.28911,63,74,0
169.28911,169.55731,73,81,0
169.28911,169.55731,63,81,0
169.28911,169.55731,67,81,0
169.28911,169.55731,75,97,0
170.11317,170.38408,75,88,0
170.11317,170.38408,72,74,0
170.11317,170.38408,68,74,0
170.38408,170.65498,80,97,0
170.38408,170.65498,72,81,0
170.38408,170.65498,68,81,0
171.18753,171.31181,80,89,0
171.18753,171.31181,75,74,0
171.18753,171.31181,72,74,0
171.31836,171.44263,80,89,0
171.31836,171.44263,75,74,0
171.31836,171.44263,72,74,0
171.44917,171.72284,81,93,0
171.44917,171.72284,75,79,0
171.44917,171.72284,72,79,0
172.2513,172.3768,76,74,0
172.2513,172.3768,80,89,0
172.2513,172.3768,73,74,0
172.3834,172.50891,80,89,0
172.3834,172.50891,76,74,0
172.3834,172.50891,73,74,0
172.51552,172.7878,85,97,0
172.51552,172.7878,76,81,0
172.51552,172.7878,73,81,0
173.31108,173.43536,85,89,0
173.31108,173.43536,79,74,0
173.31108,173.43536,75,74,0
173.44191,173.5662,85,89,0
173.44191,173.5662,79,74,0
173.44191,173.5662,75,74,0
173.57272,173.83437,85,97,0
173.57272,173.83437,75,81,0
173.57272,173.83437,79,81,0
173.57272,173.83437,87,97,0
174.3722,174.50087,87,88,0
174.3722,174.50087,84,74,0
174.3722,174.50087,80,74,0
174.50764,174.63632,87,88,0
174.50764,174.63632,84,74,0
174.50764,174.63632,80,74,0
174.6431,174.90863,92,97,0
174.6431,174.90863,84,81,0
174.6431,174.90863,80,81,0
175.46085,175.59279,81,68,0
175.46085,175.59279,93,81,0
175.46085,175.59279,87,68,0
175.46085,175.59279,84,68,0
175.59973,175.73167,93,80,0
175.59973,175.73167,81,67,0
175.59973,175.73167,84,67,0
175.59973,175.73167,87,67,0
176.00528,176.13196,78,67,0
176.00528,176.13196,90,80,0
176.00528,176.13196,84,67,0
176.00528,176.13196,81,67,0
176.13863,176.26529,90,79,0
176.13863,176.26529,78,67,0
176.13863,176.26529,81,67,0
176.13863,176.26529,84,67,0
176.53862,176.66528,75,63,0
176.53862,176.66528,87,75,0
176.53862,176.66528,81,63,0
176.53862,176.66528,78,63,0
176.67195,176.79861,87,75,0
176.67195,176.79861,75,63,0
176.67195,176.79861,78,63,0
176.67195,176.79861,81,63,0
177.07195,177.20149,72,61,0
177.07195,177.20149,84,72,0
177.07195,177.20149,78,61,0
177.07195,177.20149,75,61,0
177.20831,177.33786,84,72,0
177.20831,177.33786,72,61,0
177.20831,177.33786,75,61,0
177.20831,177.33786,78,61,0
177.6174,177.74695,84,77,0
177.6174,177.74695,72,64,0
177.6174,177.74695,75,64,0
177.6174,177.74695,78,64,0
177.75377,177.88274,72,66,0
177.75377,177.88274,84,78,0
177.75377,177.88274,78,66,0
177.75377,177.88274,75,66,0
178.16225,178.29239,73,68,0
178.16225,178.29239,85,81,0
178.16225,178.29239,79,68,0
178.16225,178.29239,76,68,0
178.29924,178.42996,85,84,0
178.29924,178.42996,73,70,0
178.29924,178.42996,76,70,0
178.29924,178.42996,79,70,0
178.71335,178.84972,75,74,0
178.71335,178.84972,87,89,0
178.71335,178.84972,85,89,0
178.71335,178.84972,79,74,0
178.85689,178.99326,87,90,0
178.85689,178.99326,75,75,0
178.85689,178.99326,79,75,0
178.85689,178.99326,85,90,0
179.00043,179.27315,80,90,0
179.00043,179.27315,92,106,0
179.00043,179.27315,87,90,0
179.00043,179.27315,84,90,0
179.80649,179.93315,69,45,0
179.80649,179.93315,81,53,0
179.80649,179.93315,75,45,0
179.80649,179.93315,72,45,0
179.93982,180.06648,81,53,0
179.93982,180.06648,69,45,0
179.93982,180.06648,72,45,0
179.93982,180.06648,75,45,0
180.33981,180.46649,66,44,0
180.33981,180.46649,78,52,0
180.33981,180.46649,72,44,0
180.33981,180.46649,69,44,0
180.47316,180.59982,78,52,0
180.47316,180.59982,66,44,0
180.47316,180.59982,69,44,0
180.47316,180.59982,72,44,0
180.87218,180.99884,63,42,0
180.87218,180.99884,75,51,0
180.87218,180.99884,69,42,0
180.87218,180.99884,66,42,0
181.00551,181.13274,75,51,0
181.00551,181.13274,63,42,0
181.00551,181.13274,66,42,0
181.00551,181.13274,69,42,0
181.4085,181.54167,60,42,0
181.4085,181.54167,72,50,0
181.4085,181.54167,66,42,0
181.4085,181.54167,63,42,0
181.54868,181.68185,72,50,0
181.54868,181.68185,60,42,0
181.54868,181.68185,63,42,0
181.54868,181.68185,66,42,0
181.9699,182.10411,72,49,0
181.9699,182.10411,60,41,0
181.9699,182.10411,63,41,0
181.9699,182.10411,66,41,0
182.11119,182.2458,60,41,0
182.11119,182.2458,72,49,0
182.11119,182.2458,66,41,0
182.11119,182.2458,63,41,0
182.53796,182.67409,61,40,0
182.53796,182.67409,73,48,0
182.53796,182.67409,67,40,0
182.53796,182.67409,64,40,0
182.68127,182.81783,73,47,0
182.68127,182.81783,61,39,0
182.68127,182.81783,64,39,0
182.68127,182.81783,67,39,0
183.11916,183.2511,63,56,0
183.11916,183.2511,75,67,0
183.11916,183.2511,73,56,0
183.11916,183.2511,67,56,0
183.25804,183.38998,75,67,0
183.25804,183.38998,63,56,0
183.25804,183.38998,67,56,0
183.25804,183.38998,73,56,0
183.39694,183.67601,68,61,0
183.39694,183.67601,80,73,0
183.39694,183.67601,75,61,0
183.39694,183.67601,72,61,0
184.25359,184.32434,60,36,0
184.25359,184.32434,63,36,0
184.25359,184.32434,66,51,0
184.3951,184.46585,66,51,0
184.3951,184.46585,63,36,0
184.3951,184.46585,60,36,0
184.82928,184.90245,57,33,0
184.82928,184.90245,63,33,0
184.82928,184.90245,66,48,0
184.97563,185.0488,66,48,0
184.97563,185.0488,63,33,0
184.97563,185.0488,57,33,0
185.42047,185.4974,60,31,0
185.42047,185.4974,63,31,0
185.42047,185.4974,66,45,0
185.57433,185.65125,66,45,0
185.57433,185.65125,63,31,0
185.57433,185.65125,60,31,0
186.05075,186.12767,57,28,0
186.05075,186.12767,63,28,0
186.05075,186.12767,66,42,0
186.20459,186.28152,66,40,0
186.20459,186.28152,63,28,0
186.20459,186.28152,57,28,0
186.67424,186.75417,68,39,0
186.67424,186.75417,66,26,0
186.67424,186.75417,60,26,0
186.83438,186.91502,60,26,0
186.83438,186.91502,66,26,0
186.83438,186.91502,68,39,0
187.32355,187.40642,60,25,0
187.32355,187.40642,56,26,0
187.32355,187.40642,68,35,0
187.32355,187.40642,66,30,0
187.4896,187.5734,68,33,0
187.4896,187.5734,56,24,0
187.4896,187.5734,60,23,0
187.4896,187.5734,66,28,0
188.01106,188.10503,68,33,0
188.01106,188.10503,66,28,0
188.01106,188.10503,60,23,0
188.2016,188.30072,60,23,0
188.2016,188.30072,66,28,0
188.2016,188.30072,68,33,0
188.8192,188.93549,60,22,0
188.8192,188.93549,56,22,0
188.8192,188.93549,68,31,0
188.8192,188.93549,66,27,0
189.05176,189.2166,68,29,0
189.05176,189.2166,56,21,0
189.05176,189.2166,60,21,0
189.05176,189.2166,66,25,0
189.38144,191.35641,80,37,0
189.38144,191.35641,68,28,0
191.35641,192.29352,80,37,0
191.35641,192.29352,68,27,0
192.30339,193.3048,80,37,0
192.30339,193.3048,68,28,0
193.31604,194.78093,80,47,0
193.31604,194.78093,68,36,0
194.78093,195.25833,82,40,0
194.78093,195.25833,70,38,0
195.25833,197.25052,68,38,0
195.25833,197.25052,80,40,0
197.25052,199.2255,77,37,0
197.25052,199.2255,65,28,0
199.2255,199.69897,80,37,0
199.2255,199.69897,68,27,0
199.69897,200.17247,79,37,0
199.69897,200.17247,67,27,0
200.17247,200.66202,77,37,0
200.17247,200.66202,65,28,0
200.66202,201.18512,79,37,0
200.66202,201.18512,67,27,0
201.18512,204.1149,80,47,0
201.18512,204.1149,68,36,0
204.1149,204.86192,82,44,0
204.1149,204.86192,70,39,0
204.86192,205.14409,80,40,0
204.86192,205.14409,68,38,0
205.15895,207.13393,80,37,0
205.15895,207.13393,68,28,0
207.13393,208.07103,80,38,0
207.13393,208.07103,68,28,0
208.0809,209.0823,80,39,0
208.0809,209.0823,68,29,0
209.09355,211.03584,83,49,0
209.09355,211.03584,71,38,0
211.03584,212.02333,70,38,0
211.03584,212.02333,82,40,0
212.02333,212.52568,80,40,0
212.02333,212.52568,68,38,0
212.52568,213.02803,78,39,0
212.52568,213.02803,66,36,0
213.02803,215.003,77,37,0
213.02803,215.003,65,28,0
215.003,215.4765,75,37,0
215.003,215.4765,63,27,0
215.4765,215.94998,77,37,0
215.4765,215.94998,65,27,0
215.94998,216.43954,78,37,0
215.94998,216.43954,66,28,0
216.43954,216.96263,80,37,0
216.43954,216.96263,68,24,0
216.96263,220.9044,73,47,0
216.96263,220.9044,61,36,0
220.9044,222.74973,80,44,0
220.9044,222.74973,68,33,0
222.74973,223.5806,80,44,0
222.74973,223.5806,68,31,0
223.5806,224.45227,80,44,0
223.5806,224.45227,68,33,0
224.45227,225.71779,80,56,0
224.45227,225.71779,68,42,0
225.71779,226.12187,81,49,0
225.71779,226.12187,69,45,0
226.12187,227.84485,68,45,0
226.12187,227.84485,80,49,0
227.84485,229.55734,76,44,0
227.84485,229.55734,64,33,0
229.55734,230.0057,80,44,0
229.55734,230.0057,68,31,0
230.0057,230.4207,78,44,0
230.0057,230.4207,66,31,0
230.4207,230.8626,76,44,0
230.4207,230.8626,64,33,0
230.8626,231.3323,78,44,0
230.8626,231.3323,66,31,0
231.3323,233.8999,80,56,0
231.3323,233.8999,68,42,0
233.8999,234.559,81,51,0
233.8999,234.559,69,48,0
234.559,234.78516,80,49,0
234.559,234.78516,68,45,0
234.79706,236.47336,80,44,0
234.79706,236.47336,68,33,0
236.47336,237.34895,80,47,0
236.47336,237.34895,68,35,0
237.34895,238.2847,80,50,0
237.34895,238.2847,68,37,0
238.2847,239.98512,85,67,0
238.2847,239.98512,73,50,0
239.98512,240.85736,69,50,0
239.98512,240.85736,81,55,0
240.85736,241.30898,80,55,0
240.85736,241.30898,68,50,0
241.30898,241.72961,78,52,0
241.30898,241.72961,66,48,0
241.72961,243.49818,83,49,0
241.72961,243.49818,71,37,0
243.49818,243.92767,75,49,0
243.49818,243.92767,63,36,0
243.92767,244.35718,76,49,0
243.92767,244.35718,64,36,0
244.35718,244.7867,78,49,0
244.35718,244.7867,66,37,0
244.7867,245.22543,80,49,0
244.7867,245.22543,68,36,0
245.22543,246.95059,76,58,0
245.22543,246.95059,64,45,0
246.95059,248.86092,75,51,0
246.95059,248.86092,63,40,0
249.10779,249.35466,56,22,0
249.35466,249.60153,61,17,0
249.35466,249.60153,65,22,0
249.60153,249.8484,56,22,0
249.8484,250.09529,65,22,0
249.8484,250.09529,61,17,0
250.09529,250.34216,56,22,0
250.34216,250.58904,65,22,0
250.34216,250.58904,61,17,0
250.58904,250.8359,56,22,0
248.86092,250.8359,68,41,0
251.07265,251.30939,56,24,0
251.30939,251.54613,61,18,0
251.30939,251.54613,65,24,0
251.54613,251.78287,56,24,0
250.8359,251.78287,68,41,0
251.78287,252.02765,61,17,0
251.78287,252.02765,65,22,0
252.02765,252.27243,56,27,0
252.27243,252.52559,61,21,0
252.27243,252.52559,65,27,0
252.52559,252.79552,56,27,0
251.78287,252.79552,68,41,0
253.04552,253.29552,56,26,0
253.29552,253.52989,60,20,0
253.29552,253.52989,66,26,0
253.52989,253.76427,56,26,0
253.76427,254.00298,66,26,0
253.76427,254.00298,60,20,0
254.00298,254.24167,56,26,0
252.79552,254.24167,68,52,0
254.24167,254.50029,66,22,0
254.24167,254.50029,60,17,0
254.50029,254.75891,56,22,0
254.24167,254.75891,70,46,0
255.00578,255.25266,56,22,0
255.25266,255.49953,66,22,0
255.25266,255.49953,60,17,0
255.49953,255.74641,56,22,0
255.74641,255.99757,66,22,0
255.74641,255.99757,60,17,0
255.99757,256.24875,56,22,0
256.24875,256.49994,66,22,0
256.24875,256.49994,60,17,0
256.49994,256.7511,56,22,0
254.75891,256.7511,68,46,0
257.01425,257.2774,53,22,0
257.2774,257.52332,56,17,0
257.2774,257.52332,61,22,0
257.52332,257.76923,53,22,0
257.76923,258.01114,56,17,0
257.76923,258.01114,61,22,0
258.01114,258.25308,53,22,0
258.25308,258.49503,56,17,0
258.25308,258.49503,61,22,0
258.49503,258.73697,53,22,0
256.7511,258.73697,65,41,0
258.9737,259.21045,58,25,0
258.73697,259.21045,68,41,0
259.21045,259.44717,63,22,0
259.21045,259.44717,61,17,0
259.44717,259.68393,58,26,0
259.21045,259.68393,67,41,0
259.68393,259.9287,63,22,0
259.68393,259.9287,61,17,0
259.9287,260.1735,58,28,0
259.68393,260.1735,65,41,0
260.1735,260.42664,63,22,0
260.1735,260.42664,61,17,0
260.42664,260.69656,58,30,0
260.1735,260.69656,67,41,0
260.94345,261.1903,56,22,0
261.1903,261.4372,63,23,0
261.1903,261.4372,60,17,0
261.4372,261.68408,56,23,0
261.68408,261.92276,60,19,0
261.68408,261.92276,63,24,0
261.92276,262.16147,56,25,0
262.16147,262.40018,60,20,0
262.16147,262.40018,63,26,0
262.40018,262.6389,56,27,0
262.88574,263.13263,56,28,0
263.13263,263.3795,66,28,0
263.13263,263.3795,60,22,0
263.3795,263.62637,56,28,0
260.69656,263.62637,68,52,0
263.62637,263.8806,66,22,0
263.62637,263.8806,60,17,0
263.8806,264.13483,56,22,0
264.13483,264.38907,66,22,0
264.13483,264.38907,60,17,0
263.62637,264.38907,70,49,0
264.38907,264.6861,56,22,0
264.38907,264.6861,68,42,0
264.93298,265.17984,56,22,0
265.17984,265.42673,65,22,0
265.17984,265.42673,61,17,0
265.42673,265.67358,56,22,0
265.67358,265.91168,61,17,0
265.67358,265.91168,65,22,0
265.91168,266.14978,56,22,0
266.14978,266.39978,61,17,0
266.14978,266.39978,65,22,0
266.39978,266.64978,56,22,0
264.6861,266.64978,68,41,0
266.88654,267.12326,56,22,0
267.12326,267.36002,65,23,0
267.12326,267.36002,61,18,0
267.36002,267.59677,56,26,0
266.64978,267.59677,68,42,0
267.59677,267.84155,61,18,0
267.59677,267.84155,65,24,0
267.84155,268.0863,56,29,0
268.0863,268.33948,65,32,0
268.0863,268.33948,61,24,0
268.33948,268.6094,56,35,0
267.59677,268.6094,68,44,0
268.8563,269.10315,59,35,0
269.10315,269.35004,68,32,0
269.10315,269.35004,65,24,0
269.10315,269.35004,62,24,0
269.35004,269.5969,59,30,0
269.5969,269.8356,68,28,0
269.5969,269.8356,65,21,0
269.5969,269.8356,62,21,0
269.8356,270.0743,59,26,0
270.0743,270.31302,68,24,0
270.0743,270.31302,65,18,0
270.0743,270.31302,62,18,0
270.31302,270.5517,59,23,0
268.6094,270.5517,71,56,0
270.79858,271.04544,58,26,0
271.04544,271.29233,61,20,0
271.04544,271.29233,66,26,0
271.29233,271.53918,58,26,0
270.5517,271.53918,70,46,0
271.53918,271.79037,61,17,0
271.79037,272.04153,58,27,0
271.53918,272.04153,68,46,0
272.04153,272.29272,61,17,0
272.29272,272.54388,58,25,0
272.04153,272.54388,66,40,0
272.79077,273.03763,53,22,0
273.03763,273.28452,61,22,0
273.03763,273.28452,56,22,0
273.28452,273.53137,53,22,0
273.53137,273.77826,61,22,0
273.53137,273.77826,56,22,0
273.77826,274.02512,53,22,0
274.02512,274.272,61,22,0
274.02512,274.272,56,22,0
274.272,274.51886,53,22,0
272.54388,274.51886,65,41,0
274.51886,274.7556,60,17,0
274.7556,274.99234,54,29,0
274.51886,274.99234,63,41,0
274.99234,275.2291,60,17,0
275.2291,275.46585,54,28,0
274.99234,275.46585,65,41,0
275.46585,275.71063,60,17,0
275.71063,275.95538,54,28,0
275.46585,275.95538,66,41,0
275.95538,276.20856,60,17,0
276.20856,276.4785,54,30,0
275.95538,276.4785,68,41,0
276.72537,276.97223,49,22,0
276.97223,277.21912,53,17,0
276.97223,277.21912,56,22,0
277.21912,277.46597,49,24,0
277.46597,277.71286,56,25,0
277.46597,277.71286,53,19,0
277.71286,277.95972,49,26,0
277.95972,278.2066,56,27,0
277.95972,278.2066,53,21,0
278.2066,278.48697,49,29,0
278.48697,278.7412,57,29,0
278.48697,278.7412,54,22,0
278.7412,278.99545,49,28,0
278.99545,279.2497,57,25,0
278.99545,279.2497,54,20,0
279.2497,279.50113,49,23,0
276.4785,279.50113,61,52,0
279.50113,279.75397,56,17,0
279.50113,279.75397,54,13,0
279.75397,280.01038,51,22,0
280.01038,280.27283,56,22,0
280.01038,280.27283,54,17,0
280.27283,280.5588,51,22,0
279.50113,280.5588,60,38,0
279.50113,280.5588,63,41,0
281.05255,281.176,92,38,0
281.176,281.29944,90,38,0
281.29944,281.42288,88,38,0
281.42288,281.5463,87,37,0
281.5463,281.66824,85,37,0
281.66824,281.79022,83,37,0
281.79022,281.91116,81,36,0
281.91116,282.0315,80,36,0
282.0315,282.15118,78,35,0
282.15118,282.27023,76,35,0
282.27023,282.38928,75,34,0
282.38928,282.50833,73,33,0
282.50833,282.6267,72,31,0
282.6267,282.74506,73,31,0
282.74506,282.86343,75,33,0
282.86343,282.9818,73,33,0
282.9818,283.1002,76,34,0
283.1002,283.21854,75,34,0
283.21854,283.3369,78,35,0
283.3369,283.4553,76,35,0
283.4553,283.57767,80,36,0
283.57767,283.70007,78,36,0
283.70007,283.82245,81,37,0
283.82245,283.94485,80,37,0
283.94485,284.06723,85,38,0
284.06723,284.19138,84,38,0
284.19138,284.32788,87,39,0
284.32788,284.4817,85,39,0
284.97543,285.09885,93,38,0
285.09885,285.2223,92,38,0
285.2223,285.34573,90,38,0
285.34573,285.46918,88,37,0
285.46918,285.58853,87,37,0
285.58853,285.7079,85,37,0
285.7079,285.8272,84,36,0
285.8272,285.94656,81,36,0
285.94656,286.06592,80,35,0
286.06592,286.18527,78,35,0
286.18527,286.31802,76,34,0
286.31802,286.48285,75,33,0
286.48285,286.6063,73,31,0
286.6063,286.72974,72,31,0
286.72974,286.85315,75,33,0
286.85315,286.9766,73,33,0
286.9766,287.10004,76,34,0
287.10004,287.22348,75,34,0
287.22348,287.34692,78,35,0
287.34692,287.47034,76,35,0
287.47034,287.59592,80,36,0
287.59592,287.72153,78,36,0
287.72153,287.8471,81,37,0
287.8471,287.9727,80,37,0
287.9727,288.09827,85,38,0
288.09827,288.22388,84,38,0
288.22388,288.34946,88,39,0
288.34946,288.47504,87,39,0
288.96878,289.08878,100,38,0
289.08878,289.20877,99,38,0
289.20877,289.32877,97,38,0
289.32877,289.4488,95,37,0
289.4488,289.56845,93,37,0
289.56845,289.6875,92,37,0
289.6875,289.80655,90,36,0
289.80655,289.9256,88,36,0
289.9256,290.04434,87,35,0
290.04434,290.16245,85,35,0
290.16245,290.28055,84,34,0
290.28055,290.39868,85,33,0
290.87216,290.99054,97,38,0
290.99054,291.1089,93,38,0
291.1089,291.22726,92,38,0
291.22726,291.34564,90,37,0
291.34564,291.46802,88,36,0
291.46802,291.59042,85,37,0
291.59042,291.7128,83,38,0
291.7128,291.8352,81,39,0
291.8352,291.95758,78,40,0
291.95758,292.08173,76,41,0
292.08173,292.21738,75,42,0
292.21738,292.3589,73,45,0
292.85263,292.97607,92,47,0
292.97607,293.09952,91,45,0
293.09952,293.22296,92,44,0
293.22296,293.34637,87,41,0
293.34637,293.46573,84,40,0
293.46573,293.58508,87,38,0
293.58508,293.70444,84,36,0
293.70444,293.8238,80,36,0
293.8238,293.94315,75,35,0
293.94315,294.0625,80,35,0
294.0625,294.18182,75,34,0
294.18182,294.30118,72,33,0
294.30118,294.42462,68,31,0
294.42462,294.54807,70,31,0
294.54807,294.6715,72,33,0
294.6715,294.79492,73,33,0
294.79492,294.91837,75,34,0
294.91837,295.0418,76,34,0
295.0418,295.16525,78,35,0
295.16525,295.2887,80,35,0
295.2887,295.41428,81,36,0
295.41428,295.53986,84,36,0
295.53986,295.66544,85,37,0
295.66544,295.79102,87,37,0
295.79102,295.91663,88,38,0
295.91663,296.0411,90,38,0
296.0411,296.17648,92,39,0
296.17648,296.34595,93,39,0
296.8397,296.96198,92,38,0
296.96198,297.08197,90,38,0
297.08197,297.20197,88,38,0
297.20197,297.32196,87,37,0
297.32196,297.442,85,37,0
297.442,297.56198,83,37,0
297.56198,297.68103,81,36,0
297.68103,297.80008,80,36,0
297.80008,297.91913,78,35,0
297.91913,298.03818,76,35,0
298.03818,298.15723,75,34,0
298.15723,298.27563,73,33,0
298.27563,298.394,72,31,0
298.394,298.5124,73,31,0
298.5124,298.63074,75,33,0
298.63074,298.7491,73,33,0
298.7491,298.8675,76,34,0
298.8675,298.98587,75,34,0
298.98587,299.10425,78,35,0
299.10425,299.2226,76,35,0
299.2226,299.345,80,35,0
299.345,299.46738,78,36,0
299.46738,299.58978,81,37,0
299.58978,299.71216,80,39,0
299.71216,299.83456,85,40,0
299.83456,299.9601,84,42,0
299.9601,300.09912,87,44,0
300.09912,300.2533,85,46,0
300.74704,300.86514,98,42,0
300.86514,300.98328,97,41,0
300.98328,301.10138,95,40,0
301.10138,301.21887,93,39,0
301.21887,301.33823,92,38,0
301.33823,301.45758,90,37,0
301.45758,301.57693,89,36,0
301.57693,301.6963,86,36,0
301.6963,301.8156,85,35,0
301.8156,301.93497,83,35,0
301.93497,302.05432,81,34,0
302.05432,302.17368,80,33,0
302.17368,302.2942,78,31,0
302.2942,302.41324,77,31,0
302.41324,302.5323,80,33,0
302.5323,302.65134,78,33,0
302.65134,302.77133,81,34,0
302.77133,302.89133,80,34,0
302.89133,303.01132,83,35,0
303.01132,303.132,81,35,0
303.132,303.25293,85,36,0
303.25293,303.3739,83,36,0
303.3739,303.49585,86,37,0
303.49585,303.61783,85,37,0
303.61783,303.74042,90,38,0
303.74042,303.86407,89,38,0
303.86407,303.9938,92,39,0
303.9938,304.13187,90,39,0
304.6256,304.74564,95,38,0
304.74564,304.86563,100,38,0
304.86563,304.98563,99,38,0
304.98563,305.10562,97,37,0
305.10562,305.22467,95,37,0
305.22467,305.34372,93,37,0
305.34372,305.46277,92,36,0
305.46277,305.5815,90,36,0
305.5815,305.69962,88,35,0
305.69962,305.81772,87,35,0
305.81772,305.93582,85,34,0
305.93582,306.0533,83,33,0
306.52682,306.64517,83,38,0
306.64517,306.76355,93,38,0
306.76355,306.88193,92,38,0
306.88193,307.0003,90,37,0
307.0003,307.12268,88,36,0
307.12268,307.2451,87,37,0
307.2451,307.36746,85,38,0
307.36746,307.48987,83,39,0
307.48987,307.6121,82,40,0
307.6121,307.74112,83,41,0
307.74112,307.88318,81,42,0
307.88318,308.03894,78,45,0
308.03894,308.15344,76,45,0
308.15344,308.26794,75,45,0
308.26794,308.38245,73,45,0
308.38245,308.49695,71,45,0
308.49695,308.61145,70,47,0
308.61145,308.72595,71,45,0
308.72595,308.84048,73,44,0
308.84048,308.955,75,41,0
308.955,309.0686,76,44,0
309.0686,309.18225,75,45,0
309.18225,309.2956,76,46,0
309.2956,309.4084,78,47,0
309.4084,309.52115,80,50,0
309.52115,309.6334,79,51,0
309.6334,309.74533,80,53,0
309.74533,309.85727,82,55,0
309.85727,309.96838,83,57,0
309.96838,310.0795,82,58,0
310.0795,310.19034,83,59,0
310.19034,310.30063,87,61,0
310.30063,310.41092,88,62,0
310.41092,310.52066,87,63,0
310.52066,310.63016,88,64,0
310.63016,310.73965,90,67,0
310.73965,310.84836,92,70,0
310.84836,310.95703,91,69,0
310.95703,311.06546,92,71,0
311.06546,311.1734,93,72,0
311.1734,311.2813,92,74,0
311.2813,311.3887,91,75,0
311.3887,311.49585,92,78,0
311.49585,311.60248,93,80,0
311.70663,311.81082,93,77,0
311.60248,311.81082,90,85,0
311.91498,312.01913,93,77,0
311.81082,312.01913,88,81,0
312.1226,312.22604,93,77,0
312.01913,312.22604,87,81,0
312.3295,312.43246,93,77,0
312.22604,312.43246,85,81,0
312.53522,312.63794,87,77,0
312.43246,312.63794,84,85,0
312.74045,312.8425,87,77,0
312.63794,312.8425,81,81,0
312.94455,313.04657,87,77,0
312.8425,313.04657,80,81,0
313.14792,313.24927,87,77,0
313.04657,313.24927,79,81,0
313.35062,313.45154,81,77,0
313.24927,313.45154,78,85,0
313.5522,313.65286,81,77,0
313.45154,313.65286,76,81,0
313.75333,313.85333,81,78,0
313.65286,313.85333,75,81,0
313.9533,314.0533,81,79,0
313.85333,314.0533,73,82,0
314.15265,314.25198,75,79,0
314.0533,314.25198,72,88,0
314.35132,314.45068,75,80,0
314.25198,314.45068,69,83,0
314.55002,314.64935,75,81,0
314.45068,314.64935,68,84,0
314.7487,314.84802,75,81,0
314.64935,314.84802,67,85,0
314.84802,314.94736,66,91,0
314.94736,315.0467,69,81,0
315.0467,315.14603,64,86,0
315.14603,315.24536,69,82,0
315.24536,315.3447,63,88,0
315.3447,315.44406,69,83,0
315.44406,315.5434,61,89,0
315.5434,315.64273,69,84,0
315.64273,315.74207,60,94,0
315.74207,315.8414,63,84,0
315.8414,315.94073,57,90,0
315.94073,316.04007,63,85,0
316.04007,316.1394,56,91,0
316.1394,316.23874,63,86,0
316.23874,316.33807,55,92,0
316.33807,316.43744,63,86,0
316.43744,316.53677,54,88,0
316.53677,316.6361,57,79,0
316.6361,316.73544,51,85,0
316.73544,316.83478,57,81,0
316.83478,316.9341,49,88,0
316.9341,317.03345,57,83,0
317.03345,317.13278,48,90,0
317.13278,317.23212,57,85,0
317.23212,317.33145,54,88,0
317.33145,317.43082,57,79,0
317.43082,317.53015,51,85,0
317.53015,317.6295,57,81,0
317.6295,317.72903,49,88,0
317.72903,317.82904,57,83,0
317.82904,317.92905,48,90,0
317.92905,318.02902,57,85,0
318.02902,318.1297,54,88,0
318.1297,318.23038,57,79,0
318.23038,318.33127,50,84,0
318.33127,318.43262,57,80,0
318.43262,318.5342,49,85,0
318.5342,318.63626,57,80,0
318.63626,318.73853,48,86,0
318.73853,318.84128,57,81,0
318.84128,318.944,54,82,0
318.944,319.0472,57,75,0
319.0472,319.15067,50,79,0
319.15067,319.25458,57,75,0
319.25458,319.35876,49,82,0
319.35876,319.4634,57,77,0
319.4634,319.5683,48,82,0
319.5683,319.6737,57,77,0
319.6737,319.77933,49,79,0
319.77933,319.88495,57,71,0
319.88495,319.9906,52,77,0
319.9906,320.09622,57,74,0
320.09622,320.20187,54,80,0
320.20187,320.3075,57,78,0
320.3075,320.41312,55,83,0
320.41312,320.51877,57,81,0
320.51877,320.6244,54,88,0
320.6244,320.73004,57,78,0
320.73004,320.83566,52,81,0
320.83566,320.94128,57,75,0
320.94128,321.04694,50,79,0
321.04694,321.15256,57,73,0
321.15256,321.2582,48,77,0
321.2582,321.3636,58,72,0
321.3636,321.46848,47,79,0
321.46848,321.57312,59,71,0
321.57312,321.6773,51,77,0
321.6773,321.78122,59,74,0
321.78122,321.88467,54,80,0
321.88467,321.98788,59,78,0
321.98788,322.09064,57,83,0
322.09064,322.1929,59,81,0
322.1929,322.29495,56,88,0
322.29495,322.39767,59,78,0
322.39767,322.50067,54,81,0
322.50067,322.6041,59,75,0
322.6041,322.70877,52,79,0
322.70877,322.81696,59,73,0
322.81696,322.9324,50,77,0
322.9324,323.05145,60,72,0
323.05145,323.15707,49,79,0
323.15707,323.26224,61,71,0
323.26224,323.36688,53,77,0
323.36688,323.47104,61,74,0
323.47104,323.5745,56,80,0
323.5745,323.67746,61,78,0
323.67746,323.77997,59,83,0
323.77997,323.88202,61,81,0
323.88202,323.98337,58,88,0
323.98337,324.08542,61,78,0
324.08542,324.18814,56,81,0
324.18814,324.2916,61,75,0
324.2916,324.3953,54,79,0
324.3953,324.49997,61,73,0
324.49997,324.61053,52,77,0
324.61053,324.72626,62,72,0
324.72626,324.8319,51,79,0
324.8319,324.93753,63,71,0
324.93753,325.04315,55,77,0
325.04315,325.1488,63,74,0
325.1488,325.25443,58,80,0
325.25443,325.36008,63,78,0
325.36008,325.4657,61,83,0
325.4657,325.57135,63,81,0
325.57135,325.67407,60,88,0
325.67407,325.77682,63,79,0
325.77682,325.87955,58,83,0
325.87955,325.9823,63,77,0
325.9823,326.08502,56,81,0
326.08502,326.18777,63,77,0
326.18777,326.29053,54,81,0
326.29053,326.39325,64,75,0
326.39325,326.4967,53,81,0
326.4967,326.60016,65,74,0
326.60016,326.70288,57,81,0
326.70288,326.80563,65,79,0
326.80563,326.90768,60,85,0
326.90768,327.0097,65,83,0
327.0097,327.11105,63,90,0
327.11105,327.2124,65,88,0
327.2124,327.31308,62,94,0
327.31308,327.41397,65,85,0
327.41397,327.51532,60,92,0
327.51532,327.61737,66,85,0
327.61737,327.71988,59,92,0
327.71988,327.82285,67,85,0
327.82285,327.928,65,92,0
327.928,328.03726,67,86,0
328.03726,328.1393,64,99,0
328.1393,328.24133,67,88,0
328.24133,328.34338,62,93,0
328.34338,328.44543,68,89,0
328.44543,328.54745,61,94,0
328.54745,328.6495,69,89,0
328.6495,328.75156,67,94,0
328.75156,328.85358,69,91,0
328.85358,328.95633,66,102,0
328.95633,329.05905,69,91,0
329.05905,329.1611,64,96,0
329.1611,329.26315,70,92,0
329.26315,329.3645,63,97,0
329.3645,329.4654,71,93,0
329.4654,329.56607,69,99,0
329.56607,329.6663,71,93,0
329.6663,329.76608,68,104,0
329.76608,329.86542,71,93,0
329.86542,329.96475,66,100,0
329.96475,330.0641,72,93,0
330.0641,330.16342,65,102,0
330.16342,330.26276,73,95,0
330.26276,330.3621,71,102,0
330.3621,330.46143,73,95,0
330.46143,330.561,71,100,0
330.561,330.66104,73,95,0
330.66104,330.7633,71,96,0
330.7633,330.86243,73,97,0
330.86243,330.9627,71,97,0
330.9627,331.06473,73,95,0
331.06473,331.16568,71,91,0
331.16568,331.2677,73,89,0
331.2677,331.3677,71,100,0
331.3677,331.4677,73,90,0
331.4677,331.56772,68,96,0
331.56772,331.6677,73,91,0
331.6677,331.7677,66,97,0
331.7677,331.8677,73,93,0
331.8677,331.9677,65,99,0
331.9677,332.06772,73,94,0
332.06772,332.16574,71,105,0
332.16574,332.2638,74,95,0
332.2638,332.36182,68,102,0
332.36182,332.45987,74,96,0
332.45987,332.56625,66,103,0
332.56625,332.67264,74,99,0
332.67264,332.8042,65,104,0
332.8042,332.9358,74,100,0
332.9358,333.24402,80,93,0
332.9358,333.24402,77,93,0
332.9358,333.24402,86,111,0
332.9358,333.24402,83,93,0
333.24402,333.3416,77,84,0
333.24402,333.3416,83,99,0
333.24402,333.3416,80,84,0
333.24402,333.3416,74,84,0
333.34674,333.65497,83,107,0
333.34674,333.65497,74,91,0
333.34674,333.65497,77,91,0
333.34674,333.65497,80,91,0
333.65497,333.75256,80,99,0
333.65497,333.75256,71,84,0
333.65497,333.75256,74,84,0
333.65497,333.75256,77,84,0
333.7577,334.07462,80,107,0
333.7577,334.07462,71,91,0
333.7577,334.07462,74,91,0
333.7577,334.07462,77,91,0
334.07462,334.17496,77,95,0
334.07462,334.17496,68,80,0
334.07462,334.17496,71,80,0
334.07462,334.17496,74,80,0
334.18024,334.29303,77,104,0
334.18024,334.29303,68,88,0
334.18024,334.29303,71,88,0
334.18024,334.29303,74,88,0
334.4058,334.53513,74,95,0
334.4058,334.53513,65,80,0
334.4058,334.53513,68,80,0
334.4058,334.53513,71,80,0
334.66443,334.76578,71,100,0
334.76578,334.86713,73,90,0
334.86713,334.96848,68,96,0
334.96848,335.06982,73,91,0
335.06982,335.16916,66,97,0
335.16916,335.2685,73,93,0
335.2685,335.36783,65,99,0
335.36783,335.4672,73,94,0
335.4672,335.56784,71,105,0
335.56784,335.66852,74,95,0
335.66852,335.7692,68,102,0
335.7692,335.86987,74,96,0
335.86987,335.97055,66,103,0
335.97055,336.0712,74,99,0
336.0712,336.1875,65,104,0
336.1875,336.30377,74,100,0
336.30377,336.60782,80,93,0
336.30377,336.60782,77,93,0
336.30377,336.60782,86,111,0
336.30377,336.60782,83,93,0
336.60782,336.7041,77,84,0
336.60782,336.7041,83,99,0
336.60782,336.7041,80,84,0
336.60782,336.7041,74,84,0
336.70917,337.0132,83,107,0
336.70917,337.0132,74,91,0
336.70917,337.0132,77,91,0
336.70917,337.0132,80,91,0
337.0132,337.1095,80,99,0
337.0132,337.1095,71,84,0
337.0132,337.1095,74,84,0
337.0132,337.1095,77,84,0
337.11456,337.42706,80,107,0
337.11456,337.42706,71,91,0
337.11456,337.42706,74,91,0
337.11456,337.42706,77,91,0
337.42706,337.52603,77,95,0
337.42706,337.52603,68,80,0
337.42706,337.52603,71,80,0
337.42706,337.52603,74,80,0
337.53125,337.64075,77,104,0
337.53125,337.64075,68,88,0
337.53125,337.64075,71,88,0
337.53125,337.64075,74,88,0
337.7502,337.87216,74,95,0
337.7502,337.87216,65,80,0
337.7502,337.87216,68,80,0
337.7502,337.87216,71,80,0
337.9941,338.2982,81,93,0
337.9941,338.2982,78,93,0
337.9941,338.2982,90,111,0
337.9941,338.2982,87,93,0
338.2982,338.39447,78,84,0
338.2982,338.39447,87,99,0
338.2982,338.39447,83,84,0
338.2982,338.39447,75,84,0
338.39954,338.70358,87,107,0
338.39954,338.70358,75,91,0
338.39954,338.70358,78,91,0
338.39954,338.70358,83,91,0
338.70358,338.79987,81,99,0
338.70358,338.79987,69,84,0
338.70358,338.79987,75,84,0
338.70358,338.79987,78,84,0
338.80493,339.10495,81,107,0
338.80493,339.10495,69,91,0
338.80493,339.10495,75,91,0
338.80493,339.10495,78,91,0
339.10495,339.19992,78,95,0
339.10495,339.19992,66,80,0
339.10495,339.19992,69,80,0
339.10495,339.19992,75,80,0
339.20493,339.31058,78,104,0
339.20493,339.31058,66,88,0
339.20493,339.31058,69,88,0
339.20493,339.31058,75,88,0
339.4162,339.52814,75,95,0
339.4162,339.52814,63,80,0
339.4162,339.52814,66,80,0
339.4162,339.52814,69,80,0
339.64008,339.94412,81,93,0
339.64008,339.94412,78,93,0
339.64008,339.94412,90,111,0
339.64008,339.94412,85,93,0
339.94412,340.04044,78,84,0
339.94412,340.04044,87,99,0
339.94412,340.04044,81,84,0
339.94412,340.04044,75,84,0
340.0455,340.34955,87,107,0
340.0455,340.34955,75,91,0
340.0455,340.34955,78,91,0
340.0455,340.34955,81,91,0
340.34955,340.44583,81,99,0
340.34955,340.44583,69,84,0
340.34955,340.44583,73,84,0
340.34955,340.44583,78,84,0
340.4509,340.75912,81,107,0
340.4509,340.75912,69,91,0
340.4509,340.75912,73,91,0
340.4509,340.75912,78,91,0
340.75912,340.85672,78,95,0
340.75912,340.85672,66,80,0
340.75912,340.85672,69,80,0
340.75912,340.85672,73,80,0
340.86185,340.97214,78,104,0
340.86185,340.97214,66,88,0
340.86185,340.97214,69,88,0
340.86185,340.97214,73,88,0
341.08243,341.20538,73,95,0
341.08243,341.20538,61,80,0
341.08243,341.20538,66,80,0
341.08243,341.20538,69,80,0
341.32834,341.63657,81,93,0
341.32834,341.63657,78,93,0
341.32834,341.63657,90,111,0
341.32834,341.63657,87,93,0
341.63657,341.73416,78,84,0
341.63657,341.73416,87,99,0
341.63657,341.73416,83,84,0
341.63657,341.73416,75,84,0
341.7393,342.04752,87,107,0
341.7393,342.04752,75,91,0
341.7393,342.04752,78,91,0
341.7393,342.04752,83,91,0
342.04752,342.1451,81,99,0
342.04752,342.1451,69,84,0
342.04752,342.1451,75,84,0
342.04752,342.1451,78,84,0
342.15027,342.46716,81,107,0
342.15027,342.46716,69,91,0
342.15027,342.46716,75,91,0
342.15027,342.46716,78,91,0
342.46716,342.5675,78,95,0
342.46716,342.5675,66,80,0
342.46716,342.5675,69,80,0
342.46716,342.5675,75,80,0
342.57278,342.68817,78,104,0
342.57278,342.68817,66,88,0
342.57278,342.68817,69,88,0
342.57278,342.68817,75,88,0
342.80356,342.95062,75,95,0
342.80356,342.95062,63,80,0
342.80356,342.95062,66,80,0
342.80356,342.95062,69,80,0
343.0977,343.43103,87,97,0
343.0977,343.43103,80,97,0
343.0977,343.43103,92,116,0
343.0977,343.43103,90,97,0
343.43103,343.53656,80,88,0
343.43103,343.53656,90,103,0
343.43103,343.53656,87,88,0
343.43103,343.53656,78,88,0
343.5421,343.87546,90,111,0
343.5421,343.87546,78,94,0
343.5421,343.87546,80,94,0
343.5421,343.87546,87,94,0
343.87546,343.98102,87,101,0
343.87546,343.98102,75,86,0
343.87546,343.98102,78,86,0
343.87546,343.98102,80,86,0
343.98657,344.30524,87,110,0
343.98657,344.30524,75,93,0
343.98657,344.30524,78,93,0
343.98657,344.30524,80,93,0
344.30524,344.40723,80,96,0
344.30524,344.40723,68,81,0
344.30524,344.40723,75,81,0
344.30524,344.40723,78,81,0
344.41263,344.52213,80,105,0
344.41263,344.52213,68,89,0
344.41263,344.52213,75,89,0
344.41263,344.52213,78,89,0
344.63406,344.74857,78,95,0
344.63406,344.74857,66,80,0
344.63406,344.74857,68,80,0
344.63406,344.74857,75,80,0
344.86575,345.08798,77,105,0
344.86575,345.08798,65,81,0
344.86575,345.08798,68,81,0
344.86575,345.08798,73,81,0
348.54922,348.62204,59,29,0
348.62204,348.69348,62,25,0
348.69348,348.76358,59,29,0
348.76358,348.8324,62,25,0
348.8324,348.89996,59,30,0
348.89996,348.96634,62,25,0
348.96634,349.03137,59,30,0
349.03137,349.09494,62,24,0
349.09494,349.1585,59,30,0
349.1585,349.22205,62,26,0
349.22205,349.28543,59,31,0
349.28543,349.34845,62,27,0
349.34845,349.4115,59,31,0
349.4115,349.47452,62,26,0
349.47452,349.53735,59,33,0
349.53735,349.59985,62,26,0
349.59985,349.66235,59,33,0
349.66235,349.72485,62,28,0
349.72485,349.7872,59,33,0
349.7872,349.84918,62,28,0
349.84918,349.91116,59,34,0
349.91116,349.97314,62,28,0
349.97314,350.03494,59,34,0
350.03494,350.09644,62,27,0
350.09644,350.1579,59,35,0
350.1579,350.2194,62,29,0
350.2194,350.2807,59,35,0
350.2807,350.34167,62,30,0
350.34167,350.40265,59,36,0
350.40265,350.46362,62,29,0
350.46362,350.52444,59,36,0
350.52444,350.5849,62,28,0
350.5849,350.6454,59,37,0
350.6454,350.70557,62,30,0
350.70557,350.76556,59,36,0
350.76556,350.82556,62,30,0
350.82556,350.88556,59,36,0
350.88556,350.94556,62,29,0
350.94556,351.00555,59,35,0
351.00555,351.06555,62,27,0
351.06555,351.12604,59,35,0
351.12604,351.18652,62,29,0
351.18652,351.247,59,34,0
351.247,351.3075,62,28,0
351.3075,351.36798,59,34,0
351.36798,351.42847,62,27,0
351.42847,351.4891,59,33,0
351.4891,351.55008,62,26,0
351.55008,351.61105,59,33,0
351.61105,351.67203,62,28,0
351.67203,351.733,59,33,0
351.733,351.79398,62,27,0
351.79398,351.85495,59,31,0
351.85495,351.91626,62,26,0
351.91626,351.97885,59,31,0
351.97885,352.043,62,25,0
352.043,352.10886,59,30,0
352.10886,352.17648,62,26,0
352.17648,352.246,59,30,0
352.246,352.31824,62,26,0
352.31824,352.39566,59,30,0
352.39566,352.47913,62,24,0
352.47913,352.57022,59,29,0
352.57022,352.66895,62,25,0
352.66895,354.63614,80,49,0
352.66895,354.63614,68,33,0
354.63614,355.57327,80,44,0
354.63614,355.57327,68,31,0
355.58313,356.66086,80,44,0
355.58313,356.66086,68,33,0
356.66086,358.3559,80,50,0
356.66086,358.3559,68,39,0
358.3559,358.5998,81,45,0
358.3559,358.5998,69,40,0
358.5998,360.64798,68,40,0
358.5998,360.64798,80,45,0
360.64798,362.62296,77,44,0
360.64798,362.62296,65,33,0
362.62296,363.09647,80,44,0
362.62296,363.09647,68,31,0
363.09647,363.56995,78,44,0
363.09647,363.56995,66,31,0
363.56995,364.05948,77,44,0
363.56995,364.05948,65,33,0
364.05948,364.61014,78,44,0
364.05948,364.61014,66,31,0
364.61014,366.55246,80,50,0
364.61014,366.55246,68,39,0
366.55246,367.0462,73,40,0
366.55246,367.0462,85,53,0
367.0462,367.53995,84,49,0
367.0462,367.53995,72,38,0
367.53995,368.03793,87,55,0
367.53995,368.03793,75,41,0
368.03793,368.56628,77,39,0
368.03793,368.56628,89,50,0
368.56628,370.4752,73,47,0
368.56628,370.4752,85,50,0
372.391,372.4638,59,26,0
372.4638,372.53525,62,22,0
372.53525,372.60535,59,26,0
372.60535,372.67416,62,22,0
372.67416,372.74173,59,27,0
372.74173,372.8081,62,22,0
372.8081,372.87314,59,27,0
372.87314,372.9367,62,20,0
372.9367,373.00027,59,27,0
373.00027,373.0638,62,23,0
373.0638,373.1272,59,28,0
373.1272,373.19025,62,24,0
373.19025,373.25327,59,28,0
373.25327,373.31628,62,23,0
373.31628,373.37912,59,29,0
373.37912,373.44162,62,23,0
373.44162,373.50412,59,29,0
373.50412,373.56662,62,25,0
373.56662,373.62897,59,29,0
373.62897,373.69095,62,25,0
373.69095,373.75293,59,29,0
373.75293,373.8149,62,25,0
373.8149,373.87674,59,29,0
373.87674,373.9382,62,24,0
373.9382,373.99966,59,30,0
373.99966,374.06116,62,26,0
374.06116,374.12247,59,30,0
374.12247,374.18344,62,27,0
374.18344,374.24442,59,31,0
374.24442,374.3054,62,26,0
374.3054,374.3662,59,31,0
374.3662,374.4267,62,25,0
374.4267,374.48715,59,33,0
374.48715,374.54733,62,27,0
374.54733,374.60733,59,31,0
374.60733,374.66733,62,27,0
374.66733,374.72733,59,31,0
374.72733,374.78732,62,26,0
374.78732,374.84732,59,30,0
374.84732,374.90732,62,24,0
374.90732,374.9678,59,30,0
374.9678,375.0283,62,26,0
375.0283,375.08878,59,29,0
375.08878,375.14926,62,25,0
375.14926,375.20975,59,29,0
375.20975,375.27023,62,24,0
375.27023,375.33087,59,29,0
375.33087,375.39185,62,23,0
375.39185,375.45282,59,29,0
375.45282,375.5138,62,25,0
375.5138,375.57477,59,29,0
375.57477,375.63574,62,24,0
375.63574,375.69714,59,28,0
375.69714,375.75967,62,23,0
375.75967,375.82346,59,28,0
375.82346,375.8887,62,22,0
375.8887,375.95532,59,27,0
375.95532,376.02353,62,23,0
376.02353,376.09454,59,27,0
376.09454,376.17044,62,23,0
376.17044,376.2523,59,27,0
376.2523,376.34232,62,20,0
376.34232,376.4038,59,26,0
376.4038,376.46527,62,22,0
376.46527,378.39798,83,49,0
376.46527,378.39798,71,33,0
378.39798,379.33508,83,44,0
378.39798,379.33508,71,31,0
379.34494,380.4121,83,44,0
379.34494,380.4121,71,33,0
380.4227,382.1177,83,50,0
380.4227,382.1177,71,39,0
382.1177,382.36163,84,45,0
382.1177,382.36163,72,40,0
382.36163,384.40982,71,40,0
382.36163,384.40982,83,45,0
384.40982,386.35617,80,44,0
384.40982,386.35617,68,33,0
386.35617,386.82965,83,44,0
386.35617,386.82965,71,31,0
386.82965,387.30313,81,44,0
386.82965,387.30313,69,31,0
387.30313,387.7927,80,44,0
387.30313,387.7927,68,33,0
387.7927,388.34335,81,44,0
387.7927,388.34335,69,31,0
388.34335,390.29395,83,50,0
388.34335,390.29395,71,39,0
390.29395,390.82028,76,40,0
390.29395,390.82028,88,53,0
390.82028,391.3466,87,49,0
390.82028,391.3466,75,38,0
391.3466,391.89203,90,55,0
391.3466,391.89203,78,41,0
391.89203,392.43726,80,39,0
391.89203,392.43726,92,50,0
392.43726,394.41434,76,47,0
392.43726,394.41434,88,50,0
396.40152,398.3438,76,50,0
396.40152,398.3438,72,33,0
396.40152,398.3438,69,33,0
398.3438,398.83755,76,53,0
398.83755,399.3313,75,49,0
399.3313,399.8293,76,55,0
399.8293,400.37534,78,50,0
398.3438,400.37534,72,34,0
398.3438,400.37534,69,34,0
400.37534,402.3503,68,47,0
400.37534,402.3503,80,50,0
400.37534,402.3503,71,47,0
404.3375,406.27982,64,39,0
404.3375,406.27982,60,26,0
404.3375,406.27982,57,26,0
406.27982,406.77356,64,42,0
406.77356,407.2673,63,39,0
407.2673,407.7653,64,44,0
407.7653,408.3199,66,39,0
406.27982,408.3199,60,26,0
406.27982,408.3199,57,26,0
408.3199,410.29486,56,26,0
408.3199,410.29486,68,39,0
408.3199,410.29486,59,29,0
0.0,2.108222,49,26,0
0.0,2.108222,37,20,0
0.0,2.108222,40,20,0
0.0,2.108222,44,20,0
2.108222,3.1178296,49,26,0
2.108222,3.1178296,37,22,0
2.108222,3.1178296,40,22,0
2.108222,3.1178296,44,22,0
3.128457,4.309344,49,27,0
3.128457,4.309344,37,23,0
3.128457,4.309344,40,23,0
3.128457,4.309344,44,23,0
4.321774,8.584015,39,25,0
4.321774,8.584015,44,25,0
4.321774,8.584015,48,30,0
4.321774,8.584015,36,25,0
8.584015,10.692237,40,27,0
8.584015,10.692237,37,27,0
8.584015,10.692237,44,27,0
8.584015,10.692237,49,33,0
10.692237,12.931043,45,39,0
10.692237,12.931043,33,33,0
10.692237,12.931043,37,33,0
10.692237,12.931043,42,33,0
13.195814,17.724318,44,36,0
12.931043,17.724318,32,29,0
13.02193,17.724318,36,30,0
13.110149,17.724318,39,34,0
17.724318,19.83254,49,29,0
17.724318,19.83254,37,24,0
17.724318,19.83254,40,24,0
17.724318,19.83254,44,24,0
19.83254,20.85028,49,30,0
19.83254,20.85028,37,26,0
19.83254,20.85028,40,26,0
19.83254,20.85028,44,26,0
20.860994,22.04188,49,34,0
20.860994,22.04188,37,28,0
20.860994,22.04188,40,28,0
20.860994,22.04188,44,28,0
22.054312,25.190987,30,27,0
22.054312,25.190987,42,33,0
25.190987,26.290895,45,27,0
25.190987,26.290895,33,22,0
26.290895,28.399117,44,29,0
26.290895,28.399117,32,24,0
28.399117,30.637922,44,31,0
28.399117,30.637922,32,26,0
30.637922,34.11213,37,25,0
30.637922,34.11213,40,25,0
30.637922,34.11213,44,25,0
30.637922,34.11213,49,30,0
35.299477,37.407696,49,26,0
35.299477,37.407696,37,20,0
35.299477,37.407696,40,20,0
35.299477,37.407696,44,20,0
37.407696,38.417305,49,26,0
37.407696,38.417305,37,22,0
37.407696,38.417305,40,22,0
37.407696,38.417305,44,22,0
38.427933,39.608818,49,27,0
38.427933,39.608818,37,23,0
38.427933,39.608818,40,23,0
38.427933,39.608818,44,23,0
39.62125,43.88349,39,25,0
39.62125,43.88349,44,25,0
39.62125,43.88349,48,30,0
39.62125,43.88349,36,25,0
43.88349,45.99171,40,27,0
43.88349,45.99171,37,27,0
43.88349,45.99171,44,27,0
43.88349,45.99171,49,33,0
45.99171,48.23052,45,39,0
45.99171,48.23052,33,33,0
45.99171,48.23052,37,33,0
45.99171,48.23052,42,33,0
48.49529,53.023792,44,36,0
48.23052,53.023792,32,29,0
48.321404,53.023792,36,30,0
48.409626,53.023792,39,34,0
53.023792,55.132015,49,29,0
53.023792,55.132015,37,24,0
55.132015,56.105377,49,30,0
55.132015,56.105377,37,26,0
56.115623,57.29651,49,34,0
56.115623,57.29651,37,28,0
57.30894,60.47127,30,27,0
57.30894,60.47127,42,33,0
60.47127,61.57118,45,27,0
60.47127,61.57118,33,22,0
61.57118,63.6794,47,29,0
61.57118,63.6794,35,24,0
63.6794,65.918205,54,31,0
63.6794,65.918205,47,26,0
65.918205,69.39241,52,30,0
65.918205,69.39241,47,25,0
65.918205,69.39241,40,25,0
70.50208,71.02001,56,27,0
70.98017,71.4981,57,22,0
71.45826,71.97619,56,27,0
71.93635,72.452995,57,19,0
72.41444,72.91567,59,27,0
72.87711,73.381004,57,19,0
73.33979,73.875565,59,27,0
73.83435,74.38043,56,20,0
70.50208,74.38043,52,26,0
74.38043,74.89836,54,27,0
74.85852,75.37645,56,19,0
75.33661,75.84263,54,27,0
75.80438,76.31037,56,18,0
76.27086,76.78453,57,27,0
76.74502,77.25869,56,19,0
77.21918,77.741234,57,27,0
77.70002,78.220474,54,19,0
74.38043,78.220474,47,30,0
78.220474,78.7384,56,27,0
78.69856,79.21649,57,18,0
79.17665,79.69458,56,27,0
79.65474,80.17335,57,19,0
80.13283,80.66303,59,27,0
80.62182,81.16304,56,19,0
78.220474,81.670746,52,33,0
81.120735,81.670746,52,27,0
81.62843,82.13614,56,19,0
82.13614,82.67663,59,27,0
82.635056,83.17555,61,22,0
83.13397,83.67447,59,27,0
83.63289,84.173386,54,19,0
84.13181,84.67595,51,27,0
84.633644,85.18937,50,19,0
85.14591,85.71093,51,27,0
85.667465,86.189026,57,20,0
82.13614,86.189026,47,30,0
86.189026,86.706955,56,27,0
86.667114,87.185036,54,22,0
86.189026,87.663124,52,26,0
87.145195,87.663124,52,27,0
87.62328,88.13993,54,19,0
88.10137,88.60261,56,27,0
88.56405,89.06794,55,19,0
89.026726,89.5625,56,27,0
89.521286,90.067375,52,20,0
90.067375,90.585304,54,27,0
90.54546,91.06339,52,19,0
91.02355,91.52957,51,27,0
91.49132,91.997314,52,18,0
91.9578,92.47147,54,27,0
92.43196,92.94563,52,19,0
92.90612,93.42818,54,27,0
93.38696,93.90742,51,19,0
90.067375,93.90742,44,30,0
93.90742,95.341675,49,39,0
95.341675,95.81976,51,36,0
93.90742,97.823074,45,33,0
95.81976,98.317635,52,41,0
98.317635,98.812195,51,40,0
98.812195,99.306755,48,40,0
97.823074,99.306755,44,33,0
99.306755,99.838066,44,40,0
99.838066,101.8422,45,33,0
99.838066,102.33676,52,45,0
102.33676,102.83132,51,37,0
101.8422,103.32176,44,33,0
102.83132,103.32588,48,37,0
103.849,105.91703,45,31,0
103.849,106.433914,52,42,0
103.32588,106.950806,44,36,0
106.433914,106.99387,51,31,0
106.950806,107.510765,48,35,0
107.46769,108.01017,44,38,0
108.01017,108.58569,56,45,0
108.54142,109.119545,54,38,0
109.07268,109.68198,51,30,0
109.63511,110.17988,57,31,0
109.07268,110.17988,47,33,0
110.17988,110.71,56,27,0
110.66935,111.19258,57,22,0
111.15258,111.672585,56,27,0
111.63258,112.15114,57,19,0
112.11258,112.613815,59,27,0
112.575264,113.07915,57,19,0
113.03794,113.57371,59,27,0
113.5325,114.07858,56,20,0
110.17988,114.07858,52,26,0
114.07858,114.55667,54,27,0
114.55667,115.0746,56,19,0
115.03476,115.502525,54,27,0
115.502525,116.00852,56,18,0
115.96901,116.48268,57,27,0
116.44317,116.95684,56,19,0
116.91733,117.439384,57,27,0
117.39817,117.918625,54,19,0
114.07858,117.918625,47,30,0
117.918625,118.436554,56,27,0
118.39671,118.91464,57,18,0
118.8748,119.39273,56,27,0
119.35289,119.87149,57,19,0
119.83097,120.361176,59,27,0
120.31996,120.86119,56,19,0
117.918625,121.36889,52,33,0
120.81888,121.36889,52,27,0
121.326584,121.83428,56,19,0
121.83428,122.37478,59,27,0
122.3332,122.873695,61,22,0
122.83212,123.37261,59,27,0
123.33104,123.87154,54,19,0
123.829956,124.32967,59,27,0
124.331795,124.844055,51,19,0
121.83428,124.844055,47,30,0
124.844055,125.40907,52,27,0
125.365616,125.88717,51,20,0
124.844055,125.88717,45,30,0
125.88717,126.4051,51,27,0
126.36526,126.88319,48,22,0
126.843346,127.361275,47,27,0
127.321434,127.79952,48,19,0
125.88717,127.79952,44,26,0
127.79952,128.30075,49,30,0
127.79952,128.72487,42,26,0
128.26219,128.76608,52,25,0
128.72487,129.26065,51,30,0
129.21944,129.71399,52,25,0
128.72487,129.71399,42,26,0
129.71399,130.23192,51,27,0
130.19208,130.71,48,19,0
130.67017,131.1881,47,27,0
129.71399,131.62634,44,30,0
131.14825,131.6652,48,18,0
131.62634,132.13164,49,33,0
131.62634,132.55919,42,26,0
132.09276,132.5987,52,22,0
132.55919,133.08124,51,29,0
133.04002,133.53459,52,20,0
132.55919,133.53459,42,26,0
133.53459,134.45303,51,26,0
133.53459,134.45303,44,26,0
134.45303,138.15244,56,26,0
138.15244,141.07375,44,26,0
141.07375,141.34573,37,27,0
141.30687,141.5776,36,22,0
141.53906,141.80852,37,27,0
141.7703,142.03784,36,23,0
141.99962,142.26593,37,28,0
142.22801,142.4931,36,25,0
142.45549,142.71873,37,28,0
142.68112,142.94257,36,26,0
142.90556,143.16463,37,29,0
143.12761,143.38669,36,23,0
143.34967,143.61142,37,29,0
143.5735,143.84299,36,25,0
143.8038,144.0781,37,30,0
144.03891,144.3132,36,27,0
144.27402,144.54831,37,30,0
144.50912,144.74423,36,28,0
144.74423,145.00748,37,31,0
144.96986,145.23311,36,25,0
145.1955,145.45874,37,31,0
145.42113,145.68437,36,27,0
145.64676,145.91,37,32,0
145.87239,146.13564,36,28,0
146.09802,146.36127,37,31,0
146.32365,146.5869,36,29,0
146.54929,146.81253,37,30,0
146.77492,147.03816,36,24,0
147.00055,147.2638,37,29,0
147.22618,147.48943,36,25,0
147.45181,147.71721,37,28,0
147.67899,147.94939,36,25,0
147.91054,148.18617,37,28,0
148.14632,148.42305,35,25,0
148.38513,148.65022,33,27,0
148.61261,148.87555,32,22,0
148.83824,149.09848,33,27,0
149.06148,149.31966,32,23,0
149.28294,149.53911,33,27,0
149.50267,149.75627,32,25,0
149.72012,149.97177,33,29,0
149.9359,150.18562,32,26,0
150.15002,150.3992,33,30,0
150.3636,150.6128,32,23,0
150.5772,150.82637,33,30,0
150.79077,151.03996,32,25,0
151.00436,151.25354,33,31,0
151.21794,151.46686,32,27,0
151.43098,151.6846,33,31,0
151.64789,151.86993,32,27,0
151.86993,152.11913,33,32,0
152.08353,152.3327,32,25,0
152.2971,152.5463,33,32,0
152.5107,152.75987,32,26,0
152.72427,152.97345,33,32,0
152.93785,153.18704,32,27,0
153.15144,153.40062,33,32,0
153.36502,153.61421,32,27,0
153.57861,153.82779,33,32,0
153.79219,154.04138,32,25,0
154.00578,154.25496,33,32,0
154.21936,154.46854,32,26,0
154.43295,154.68213,33,32,0
154.64653,154.8957,32,27,0
154.8601,155.1093,33,32,0
155.0737,155.32352,32,27,0
155.28728,155.54065,30,32,0
155.50467,155.75621,29,25,0
155.7205,155.97025,30,32,0
155.93478,156.18227,29,26,0
156.14705,156.39279,30,33,0
156.35783,156.60185,29,27,0
156.56714,156.80946,30,33,0
156.775,157.01518,29,29,0
156.98094,157.2195,30,34,0
157.18549,157.42221,29,26,0
157.38864,157.62332,30,34,0
157.59,157.8231,29,28,0
157.79,158.02156,30,35,0
157.98866,158.21829,29,30,0
158.18561,158.41373,30,37,0
158.38126,158.57565,29,33,0
158.57565,158.76878,30,38,0
158.76878,158.96027,29,30,0
158.96027,159.15054,30,39,0
159.15054,159.34042,32,33,0
159.34042,159.5291,33,40,0
159.5291,159.717,32,35,0
159.717,159.90372,33,41,0
159.90372,160.08968,37,37,0
160.08968,160.27448,38,42,0
160.27448,160.45815,37,34,0
160.45815,160.64108,38,44,0
160.64108,160.82289,41,36,0
160.82289,161.00362,42,45,0
161.00362,161.18362,41,38,0
161.18362,161.36255,42,45,0
161.36255,161.53905,45,40,0
161.53905,161.71179,44,50,0
161.71179,161.8829,43,51,0
161.8829,162.0527,44,51,0
162.0527,162.22093,43,52,0
162.22093,162.38791,44,53,0
162.38791,162.55336,43,55,0
162.55336,162.717,44,55,0
162.717,162.87946,42,57,0
162.87946,163.04045,40,58,0
163.04045,163.20032,39,59,0
163.20032,163.35876,40,59,0
163.35876,163.51584,39,60,0
163.51584,163.67262,40,61,0
163.67262,163.8297,39,63,0
163.8297,163.98595,40,64,0
163.98595,164.1422,39,64,0
164.1422,164.29764,37,66,0
164.29764,164.4528,36,67,0
164.4528,164.60745,37,69,0
164.60745,164.76157,36,69,0
164.76157,164.9154,37,70,0
164.9154,165.06795,36,71,0
165.06795,165.21973,37,72,0
165.21973,165.37073,35,74,0
165.37073,165.52098,33,74,0
165.52098,165.67049,32,75,0
165.67049,165.81949,33,78,0
165.81949,165.96776,32,79,0
165.96776,166.1153,33,79,0
166.1153,166.26212,37,81,0
166.26212,166.40823,39,82,0
166.40823,166.55362,45,83,0
166.55362,167.10661,44,94,0
166.55362,167.10661,32,80,0
167.39656,167.53133,44,82,0
167.39656,167.53133,32,69,0
167.66609,167.80087,52,88,0
167.66609,167.80087,40,74,0
168.48454,168.75273,44,80,0
168.48454,168.75273,32,67,0
168.75273,169.02092,45,74,0
168.75273,169.02092,57,88,0
169.55731,169.83524,44,89,0
169.55731,169.83524,32,74,0
169.83524,170.11317,56,93,0
169.83524,170.11317,44,79,0
170.65498,170.79044,56,93,0
170.65498,170.79044,44,79,0
170.79044,170.92589,56,93,0
170.79044,170.92589,44,79,0
170.92589,171.44917,66,94,0
170.92589,171.44917,54,80,0
171.72284,171.84836,56,82,0
171.72284,171.84836,44,69,0
171.85497,171.98047,56,82,0
171.85497,171.98047,44,69,0
171.98708,172.2513,64,88,0
171.98708,172.2513,52,74,0
172.7878,172.91208,56,80,0
172.7878,172.91208,44,67,0
172.91862,173.04291,56,80,0
172.91862,173.04291,44,67,0
173.04944,173.31108,57,74,0
173.04944,173.31108,69,88,0
173.83437,173.9637,56,89,0
173.83437,173.9637,44,74,0
173.9705,174.09984,56,89,0
173.9705,174.09984,44,74,0
174.10666,174.3722,68,93,0
174.10666,174.3722,56,79,0
174.90863,175.0437,68,89,0
174.90863,175.0437,56,74,0
175.05081,175.18588,68,90,0
175.05081,175.18588,56,75,0
175.19298,175.46085,54,79,0
175.19298,175.46085,66,93,0
175.59973,175.73862,66,82,0
175.59973,175.73862,54,69,0
175.73862,176.00528,63,90,0
175.73862,176.00528,51,75,0
176.13863,176.27196,51,66,0
176.13863,176.27196,63,78,0
176.27196,176.53862,60,86,0
176.27196,176.53862,48,73,0
176.67195,176.80528,60,75,0
176.67195,176.80528,48,63,0
176.80528,177.07195,56,82,0
176.80528,177.07195,44,69,0
177.20831,177.34468,56,73,0
177.20831,177.34468,44,61,0
177.34468,177.6174,57,84,0
177.34468,177.6174,45,70,0
177.75377,177.88274,45,79,0
177.75377,177.88274,33,67,0
177.88951,178.16225,45,89,0
177.88951,178.16225,33,74,0
178.29924,178.42996,45,85,0
178.29924,178.42996,33,72,0
178.43684,178.71335,45,93,0
178.43684,178.71335,33,79,0
178.85689,179.00043,45,88,0
178.85689,179.00043,33,74,0
179.00043,179.27315,44,100,0
179.00043,179.27315,32,84,0
179.27315,179.4065,56,53,0
179.27315,179.4065,44,45,0
179.4065,179.53983,56,53,0
179.4065,179.53983,44,45,0
179.53983,179.80649,42,49,0
179.53983,179.80649,54,58,0
179.93982,180.06648,54,53,0
179.93982,180.06648,42,45,0
180.07315,180.33981,51,57,0
180.07315,180.33981,39,48,0
180.47316,180.59982,39,42,0
180.47316,180.59982,51,51,0
180.60649,180.87218,48,56,0
180.60649,180.87218,36,47,0
181.00551,181.13274,48,50,0
181.00551,181.13274,36,42,0
181.13943,181.4085,44,55,0
181.13943,181.4085,32,46,0
181.54868,181.68185,44,49,0
181.54868,181.68185,32,41,0
181.68887,181.9699,45,53,0
181.68887,181.9699,33,45,0
182.11119,182.2458,45,47,0
182.11119,182.2458,33,39,0
182.25291,182.53796,45,52,0
182.25291,182.53796,33,44,0
182.68127,182.81783,45,47,0
182.68127,182.81783,33,39,0
182.82504,183.11916,45,50,0
182.82504,183.11916,33,42,0
183.25804,183.38998,45,66,0
183.25804,183.38998,33,56,0
183.39694,183.67601,44,70,0
183.39694,183.67601,32,59,0
183.67601,183.80856,44,56,0
183.81554,183.9481,44,56,0
183.95508,184.10432,45,49,0
184.5366,184.68294,48,53,0
185.12196,185.27122,45,49,0
185.72816,185.88947,48,46,0
186.35844,186.51578,44,39,0
186.99596,187.15901,51,36,0
187.6575,187.82994,44,33,0
188.40254,188.61087,51,29,0
189.38144,189.54602,49,34,0
189.7106,190.03976,56,29,0
190.03976,190.36893,61,29,0
190.36893,190.69809,65,29,0
190.69809,191.02725,61,29,0
191.02725,191.35641,56,29,0
191.35641,191.51425,49,34,0
191.67207,191.98773,56,29,0
191.98773,192.30339,61,29,0
192.30339,192.62976,65,29,0
192.62976,192.95613,61,29,0
192.95613,193.31604,56,29,0
193.31604,193.48062,48,34,0
193.6452,193.97437,56,30,0
193.97437,194.30353,63,30,0
194.30353,194.6218,66,30,0
194.6218,194.94006,63,30,0
194.94006,195.25833,56,30,0
195.25833,195.42291,48,34,0
195.5875,195.91666,56,30,0
195.91666,196.24582,63,30,0
196.24582,196.58072,66,29,0
196.58072,196.91562,63,29,0
196.91562,197.25052,56,29,0
197.25052,197.4151,49,34,0
197.57968,197.90884,56,29,0
197.90884,198.238,61,29,0
198.238,198.56717,65,29,0
198.56717,198.89633,61,29,0
198.89633,199.2255,56,29,0
199.2255,199.38333,46,34,0
199.54115,199.85681,61,29,0
199.85681,200.17247,63,29,0
200.17247,200.49884,51,29,0
200.49884,200.82521,61,29,0
200.82521,201.18512,63,29,0
201.18512,201.3497,44,34,0
201.51428,201.84344,56,30,0
201.84344,202.1726,60,30,0
202.1726,202.49088,63,30,0
202.49088,202.80914,60,30,0
202.80914,203.12741,56,30,0
203.12741,203.29199,44,42,0
203.45657,203.78574,60,30,0
203.78574,204.1149,63,30,0
204.1149,204.44691,66,36,0
204.44691,204.77892,63,33,0
204.77892,205.15895,60,30,0
205.15895,205.32353,49,34,0
205.48811,205.81728,56,29,0
205.81728,206.14644,61,29,0
206.14644,206.4756,65,29,0
206.4756,206.80476,61,29,0
206.80476,207.13393,56,29,0
207.13393,207.29176,49,39,0
207.44958,207.76524,59,33,0
207.76524,208.0809,61,33,0
208.0809,208.40727,65,41,0
208.40727,208.73364,61,35,0
208.73364,209.09355,59,36,0
209.09355,209.25813,42,42,0
209.42271,209.75188,56,33,0
209.75188,210.08104,62,33,0
210.08104,210.3993,65,34,0
210.3993,210.71758,62,31,0
210.71758,211.03584,56,30,0
211.03584,211.20042,42,40,0
211.365,211.69417,58,34,0
211.69417,212.02333,61,30,0
212.02333,212.35823,66,29,0
212.35823,212.69313,61,29,0
212.69313,213.02803,58,29,0
213.02803,213.19261,49,34,0
213.3572,213.68636,53,29,0
213.68636,214.01552,56,29,0
214.01552,214.34468,61,29,0
214.34468,214.67384,56,29,0
214.67384,215.003,53,29,0
215.003,215.16084,44,34,0
215.31866,215.63432,54,29,0
215.63432,215.94998,56,29,0
215.94998,216.27635,60,29,0
216.27635,216.60272,56,29,0
216.60272,216.96263,54,29,0
216.96263,217.12721,49,34,0
217.2918,217.62096,53,30,0
217.62096,217.95012,56,30,0
217.95012,218.26839,61,30,0
218.26839,218.58665,56,30,0
218.58665,218.90492,53,30,0
218.90492,219.23409,56,34,0
219.23409,219.56325,53,30,0
219.56325,219.89243,49,30,0
219.89243,220.22443,53,29,0
220.22443,220.55643,49,29,0
220.55643,220.9044,44,29,0
220.9044,221.24281,37,37,0
221.24281,221.41202,56,24,0
221.24281,221.41202,61,24,0
221.24281,221.41202,64,31,0
221.5624,221.71277,56,24,0
221.5624,221.71277,61,24,0
221.5624,221.71277,64,31,0
221.86314,222.17564,63,31,0
222.17564,222.47118,64,40,0
221.86314,222.47118,56,29,0
221.86314,222.47118,61,37,0
222.47118,222.61044,64,31,0
222.47118,222.61044,56,24,0
222.47118,222.61044,61,24,0
222.74973,223.03606,37,37,0
223.03606,223.17921,56,24,0
223.03606,223.17921,61,24,0
223.03606,223.17921,64,31,0
223.313,223.44681,56,24,0
223.313,223.44681,61,24,0
223.313,223.44681,64,31,0
223.5806,223.86896,63,40,0
223.86896,224.14961,64,40,0
223.5806,224.14961,56,29,0
223.5806,224.14961,61,29,0
224.14961,224.29599,64,31,0
224.14961,224.29599,56,24,0
224.14961,224.29599,61,24,0
224.45227,224.74062,37,37,0
224.74062,224.8848,60,24,0
224.74062,224.8848,56,24,0
224.74062,224.8848,66,31,0
224.74062,224.8848,63,24,0
225.02127,225.15776,60,24,0
225.02127,225.15776,56,24,0
225.02127,225.15776,66,31,0
225.02127,225.15776,63,24,0
225.29424,225.5766,65,40,0
225.5766,225.85248,66,40,0
225.29424,225.85248,56,29,0
225.29424,225.85248,63,29,0
225.29424,225.85248,60,29,0
225.85248,225.98718,66,31,0
225.85248,225.98718,60,29,0
225.85248,225.98718,63,24,0
225.85248,225.98718,56,24,0
226.12187,226.41228,37,37,0
226.41228,226.55748,60,24,0
226.41228,226.55748,56,24,0
226.41228,226.55748,66,31,0
226.41228,226.55748,63,24,0
226.69397,226.83044,60,24,0
226.69397,226.83044,56,24,0
226.69397,226.83044,66,31,0
226.69397,226.83044,63,24,0
226.96693,227.26152,65,40,0
227.26152,227.54439,66,40,0
226.96693,227.54439,56,29,0
226.96693,227.54439,63,29,0
226.96693,227.54439,60,29,0
227.54439,227.68974,66,31,0
227.54439,227.68974,60,29,0
227.54439,227.68974,63,24,0
227.54439,227.68974,56,24,0
227.84485,228.14375,37,37,0
228.14375,228.29321,56,26,0
228.14375,228.29321,61,24,0
228.14375,228.29321,64,29,0
228.4279,228.5626,56,26,0
228.4279,228.5626,61,24,0
228.4279,228.5626,64,29,0
228.69731,228.994,55,40,0
228.994,229.28067,56,40,0
228.69731,229.28067,64,29,0
228.69731,229.28067,61,29,0
229.28067,229.419,64,29,0
229.28067,229.419,56,26,0
229.28067,229.419,61,24,0
229.55734,229.85625,45,37,0
229.85625,230.0057,57,24,0
229.85625,230.0057,61,31,0
230.14403,230.28236,57,24,0
230.14403,230.28236,61,31,0
230.4207,230.71529,60,40,0
230.71529,231.00989,61,40,0
230.4207,231.00989,57,29,0
231.00989,231.1711,61,31,0
231.00989,231.1711,57,24,0
231.3323,231.63562,44,37,0
231.63562,231.78728,60,24,0
231.63562,231.78728,63,29,0
231.63562,231.78728,56,26,0
231.92375,232.06023,60,24,0
231.92375,232.06023,63,29,0
231.92375,232.06023,56,26,0
232.19672,232.48712,55,40,0
232.48712,232.76611,56,31,0
232.19672,232.76611,63,29,0
232.19672,232.76611,60,29,0
232.76611,232.89992,63,24,0
232.76611,232.89992,56,31,0
232.76611,232.89992,60,24,0
233.0337,233.33261,48,37,0
233.33261,233.48207,63,24,0
233.33261,233.48207,66,31,0
233.33261,233.48207,56,24,0
233.62135,233.76062,63,24,0
233.62135,233.76062,66,31,0
233.62135,233.76062,56,24,0
233.8999,234.20097,65,40,0
233.8999,234.20097,56,29,0
233.8999,234.20097,63,29,0
234.20097,234.48984,66,40,0
234.20097,234.48984,63,29,0
234.20097,234.48984,56,29,0
234.48984,234.63835,66,31,0
234.48984,234.63835,56,24,0
234.48984,234.63835,63,24,0
234.79706,235.0854,49,37,0
235.0854,235.22958,56,24,0
235.0854,235.22958,61,24,0
235.0854,235.22958,64,31,0
235.36792,235.50624,56,24,0
235.36792,235.50624,61,24,0
235.36792,235.50624,64,31,0
235.64458,235.93294,63,40,0
235.93294,236.20918,64,41,0
235.64458,236.20918,56,30,0
235.64458,236.20918,61,30,0
236.20918,236.34128,64,33,0
236.20918,236.34128,56,25,0
236.20918,236.34128,61,25,0
236.47336,236.77666,49,39,0
236.77666,236.92831,56,25,0
236.77666,236.92831,59,25,0
236.77666,236.92831,65,30,0
236.77666,236.92831,61,27,0
237.06853,237.20874,56,27,0
237.06853,237.20874,59,27,0
237.06853,237.20874,65,31,0
237.06853,237.20874,61,29,0
237.34895,237.65002,62,44,0
237.65002,237.93983,61,47,0
237.34895,237.93983,56,35,0
237.34895,237.93983,59,35,0
237.34895,237.93983,65,35,0
237.93983,238.10121,65,29,0
237.93983,238.10121,59,36,0
237.93983,238.10121,61,38,0
237.93983,238.10121,56,29,0
238.2847,238.58577,42,64,0
238.58577,238.7363,61,33,0
238.58577,238.7363,66,37,0
238.58577,238.7363,57,31,0
238.8737,239.01111,61,33,0
238.8737,239.01111,66,37,0
238.8737,239.01111,57,31,0
239.1485,239.43686,60,45,0
239.43686,239.71573,61,45,0
239.1485,239.71573,57,34,0
239.1485,239.71573,66,34,0
239.71573,239.85042,66,27,0
239.71573,239.85042,61,36,0
239.71573,239.85042,57,34,0
239.98512,240.2862,45,41,0
240.2862,240.43672,57,27,0
240.2862,240.43672,60,29,0
240.2862,240.43672,66,33,0
240.57693,240.71715,57,27,0
240.57693,240.71715,60,29,0
240.57693,240.71715,66,33,0
240.85736,241.15843,59,45,0
241.15843,241.44919,60,45,0
240.85736,241.44919,57,34,0
240.85736,241.44919,66,34,0
241.44919,241.5894,66,27,0
241.44919,241.5894,57,27,0
241.44919,241.5894,60,36,0
241.72961,242.03067,47,41,0
242.03067,242.18121,56,27,0
242.03067,242.18121,59,27,0
242.03067,242.18121,64,33,0
242.3254,242.46956,56,27,0
242.3254,242.46956,59,27,0
242.3254,242.46956,64,33,0
242.61374,242.91704,66,41,0
242.91704,243.21187,64,41,0
242.61374,243.21187,56,34,0
242.61374,243.21187,59,34,0
243.21187,243.35503,64,33,0
243.21187,243.35503,56,27,0
243.21187,243.35503,59,27,0
243.49818,243.78452,47,41,0
243.78452,243.92767,57,27,0
243.78452,243.92767,63,33,0
243.78452,243.92767,59,27,0
244.07085,244.214,57,27,0
244.07085,244.214,63,33,0
244.07085,244.214,59,27,0
244.35718,244.64252,64,41,0
244.64252,244.9319,63,41,0
244.35718,244.9319,57,34,0
244.35718,244.9319,59,34,0
244.9319,245.07814,63,33,0
244.9319,245.07814,57,27,0
244.9319,245.07814,59,34,0
245.22543,245.52003,52,41,0
245.52003,245.66733,59,33,0
245.52003,245.66733,56,27,0
245.80661,245.94588,59,31,0
245.80661,245.94588,56,26,0
246.08516,246.37975,58,33,0
246.37975,246.66823,59,33,0
246.08516,246.66823,56,40,0
246.66823,246.80942,56,30,0
246.66823,246.80942,59,26,0
246.95059,247.24582,44,39,0
247.24582,247.39677,56,24,0
247.24582,247.39677,60,29,0
247.24582,247.39677,54,24,0
247.55003,247.70567,56,23,0
247.55003,247.70567,60,28,0
247.55003,247.70567,54,23,0
247.86377,248.18378,61,34,0
248.18378,248.50377,60,32,0
247.86377,248.50377,54,27,0
247.86377,248.50377,56,27,0
248.50377,248.68234,60,24,0
248.50377,248.68234,54,20,0
248.50377,248.68234,56,20,0
248.86092,249.10779,37,33,0
249.35466,249.60153,44,27,0
249.8484,250.09529,49,27,0
250.34216,250.58904,53,27,0
250.8359,251.07265,37,33,0
251.30939,251.54613,44,29,0
251.78287,252.02765,49,29,0
252.27243,252.52559,53,29,0
252.79552,253.04552,32,33,0
253.29552,253.52989,44,33,0
253.76427,254.00298,51,28,0
254.24167,254.50029,54,28,0
254.75891,255.00578,32,33,0
255.25266,255.49953,44,27,0
255.74641,255.99757,51,27,0
256.24875,256.49994,54,27,0
256.7511,257.01425,37,33,0
257.2774,257.76923,44,27,0
257.76923,258.25308,49,27,0
258.25308,258.73697,53,27,0
258.73697,259.21045,34,33,0
259.21045,259.68393,49,33,0
259.68393,260.1735,39,28,0
260.1735,260.69656,51,28,0
260.69656,261.1903,32,33,0
261.1903,261.68408,44,27,0
261.68408,262.16147,48,29,0
262.16147,262.6389,51,31,0
262.6389,263.13263,32,36,0
263.13263,263.62637,44,33,0
263.62637,264.13483,51,33,0
264.13483,264.6861,54,29,0
264.6861,265.17984,37,33,0
265.17984,265.67358,44,28,0
265.67358,266.14978,49,29,0
266.14978,266.64978,53,29,0
266.64978,267.12326,37,34,0
267.12326,267.59677,47,30,0
267.59677,268.0863,49,30,0
268.0863,268.6094,53,30,0
268.6094,269.10315,30,35,0
269.10315,269.5969,47,29,0
269.5969,270.0743,50,29,0
270.0743,270.5517,53,29,0
270.5517,271.04544,30,33,0
271.04544,271.53918,46,29,0
271.53918,272.04153,49,28,0
272.04153,272.54388,54,28,0
272.54388,273.03763,32,33,0
273.03763,273.53137,41,29,0
273.53137,274.02512,44,29,0
274.02512,274.51886,49,29,0
274.51886,274.99234,32,33,0
274.99234,275.46585,42,29,0
275.46585,275.95538,44,29,0
275.95538,276.4785,48,29,0
276.4785,276.97223,37,33,0
276.97223,277.46597,41,30,0
277.46597,277.95972,44,31,0
277.95972,278.48697,49,34,0
278.48697,278.99545,33,40,0
278.99545,279.50113,45,35,0
279.50113,280.01038,32,31,0
280.01038,280.5588,44,28,0
280.5588,280.8057,37,33,0
280.8057,281.05255,56,22,0
281.05255,281.29944,61,17,0
281.05255,281.29944,68,33,0
281.05255,281.29944,64,17,0
281.29944,281.5463,56,22,0
281.5463,281.79022,61,17,0
281.5463,281.79022,68,33,0
281.5463,281.79022,64,17,0
281.79022,282.0315,56,22,0
282.0315,282.27023,68,33,0
282.0315,282.27023,61,17,0
282.0315,282.27023,64,17,0
282.27023,282.50833,56,22,0
282.50833,282.74506,37,33,0
282.74506,282.9818,56,22,0
282.9818,283.21854,61,17,0
282.9818,283.21854,68,33,0
282.9818,283.21854,64,17,0
283.21854,283.4553,56,22,0
283.4553,283.70007,61,17,0
283.4553,283.70007,68,33,0
283.4553,283.70007,64,17,0
283.70007,283.94485,56,22,0
283.94485,284.19138,64,17,0
283.94485,284.19138,68,33,0
283.94485,284.19138,61,17,0
284.19138,284.4817,56,22,0
284.4817,284.72855,32,27,0
284.4817,284.72855,44,33,0
284.72855,284.97543,56,22,0
284.97543,285.2223,60,17,0
284.97543,285.2223,68,37,0
284.97543,285.2223,66,17,0
285.2223,285.46918,56,22,0
285.46918,285.7079,60,17,0
285.46918,285.7079,68,40,0
285.46918,285.7079,66,17,0
285.7079,285.94656,56,22,0
285.94656,286.18527,69,41,0
285.94656,286.18527,60,17,0
285.94656,286.18527,66,17,0
286.18527,286.48285,56,22,0
286.48285,286.72974,32,27,0
286.48285,286.72974,44,33,0
286.72974,286.9766,56,22,0
286.9766,287.22348,68,33,0
286.9766,287.22348,60,17,0
286.9766,287.22348,66,17,0
287.22348,287.47034,56,22,0
287.47034,287.72153,68,33,0
287.47034,287.72153,60,17,0
287.47034,287.72153,66,17,0
287.72153,287.9727,56,22,0
287.9727,288.22388,68,33,0
287.9727,288.22388,60,17,0
287.9727,288.22388,66,17,0
288.22388,288.47504,56,22,0
288.47504,288.7219,37,33,0
288.7219,288.96878,56,22,0
288.96878,289.20877,61,17,0
288.96878,289.20877,64,33,0
289.20877,289.4488,56,22,0
289.4488,289.6875,61,17,0
289.4488,289.6875,64,33,0
289.6875,289.9256,56,22,0
289.9256,290.16245,64,33,0
289.9256,290.16245,61,17,0
290.16245,290.39868,56,22,0
290.39868,290.6354,45,41,0
290.6354,290.87216,57,24,0
290.87216,291.1089,61,19,0
290.87216,291.1089,66,45,0
291.1089,291.34564,57,25,0
291.34564,291.59042,61,20,0
291.34564,291.59042,64,51,0
291.59042,291.8352,57,26,0
291.8352,292.08173,66,52,0
291.8352,292.08173,61,22,0
292.08173,292.3589,57,28,0
292.3589,292.60577,44,49,0
292.60577,292.85263,56,27,0
292.85263,293.09952,60,22,0
292.85263,293.09952,68,45,0
292.85263,293.09952,63,22,0
293.09952,293.34637,56,26,0
293.34637,293.58508,60,20,0
293.34637,293.58508,68,43,0
293.34637,293.58508,63,20,0
293.58508,293.8238,56,25,0
293.8238,294.0625,68,42,0
293.8238,294.0625,60,19,0
293.8238,294.0625,63,19,0
294.0625,294.30118,56,24,0
294.30118,294.54807,44,37,0
294.54807,294.79492,56,22,0
294.79492,295.0418,68,40,0
294.79492,295.0418,60,17,0
294.79492,295.0418,66,17,0
295.0418,295.2887,56,22,0
295.2887,295.53986,69,42,0
295.2887,295.53986,60,17,0
295.2887,295.53986,66,17,0
295.53986,295.79102,56,22,0
295.79102,296.0411,68,40,0
295.79102,296.0411,60,17,0
295.79102,296.0411,66,17,0
296.0411,296.34595,56,22,0
296.34595,296.5928,37,33,0
296.5928,296.8397,56,22,0
296.8397,297.08197,61,17,0
296.8397,297.08197,68,33,0
296.8397,297.08197,64,17,0
297.08197,297.32196,56,22,0
297.32196,297.56198,61,17,0
297.32196,297.56198,68,33,0
297.32196,297.56198,64,17,0
297.56198,297.80008,56,22,0
297.80008,298.03818,68,33,0
297.80008,298.03818,61,17,0
297.80008,298.03818,64,17,0
298.03818,298.27563,56,22,0
298.27563,298.5124,37,33,0
298.5124,298.7491,56,22,0
298.7491,298.98587,61,17,0
298.7491,298.98587,68,33,0
298.7491,298.98587,64,17,0
298.98587,299.2226,56,22,0
299.2226,299.46738,61,17,0
299.2226,299.46738,68,33,0
299.2226,299.46738,64,17,0
299.46738,299.71216,56,22,0
299.71216,299.9601,64,17,0
299.71216,299.9601,68,33,0
299.71216,299.9601,61,17,0
299.9601,300.2533,56,22,0
300.2533,300.50018,42,46,0
300.50018,300.74704,62,28,0
300.74704,300.98328,65,22,0
300.74704,300.98328,71,46,0
300.74704,300.98328,68,22,0
300.98328,301.21887,62,26,0
301.21887,301.45758,65,20,0
301.21887,301.45758,71,43,0
301.21887,301.45758,68,20,0
301.45758,301.6963,62,25,0
301.6963,301.93497,71,42,0
301.6963,301.93497,65,19,0
301.6963,301.93497,68,19,0
301.93497,302.17368,62,24,0
302.17368,302.41324,42,33,0
302.41324,302.65134,61,22,0
302.65134,302.89133,69,33,0
302.65134,302.89133,66,17,0
302.89133,303.132,61,22,0
303.132,303.3739,66,33,0
303.132,303.3739,57,17,0
303.3739,303.61783,61,22,0
303.61783,303.86407,66,33,0
303.61783,303.86407,57,17,0
303.86407,304.13187,60,22,0
304.13187,304.37875,47,33,0
304.37875,304.6256,59,22,0
304.6256,304.86563,56,17,0
304.6256,304.86563,64,33,0
304.86563,305.10562,59,22,0
305.10562,305.34372,56,17,0
305.10562,305.34372,64,33,0
305.34372,305.5815,59,22,0
305.5815,305.81772,64,33,0
305.5815,305.81772,56,17,0
305.81772,306.0533,59,22,0
306.0533,306.29007,47,41,0
306.29007,306.52682,59,24,0
306.52682,306.76355,57,19,0
306.52682,306.76355,68,45,0
306.52682,306.76355,63,19,0
306.76355,307.0003,59,25,0
307.0003,307.2451,57,20,0
307.0003,307.2451,68,51,0
307.0003,307.2451,63,20,0
307.2451,307.48987,59,26,0
307.48987,307.74112,66,52,0
307.48987,307.74112,57,22,0
307.48987,307.74112,63,22,0
307.74112,308.03894,59,28,0
308.03894,308.26794,40,42,0
308.26794,308.49695,59,27,0
308.49695,308.72595,56,22,0
308.49695,308.72595,64,45,0
308.72595,308.955,59,26,0
308.955,309.18225,56,20,0
308.955,309.18225,64,43,0
309.18225,309.4084,59,25,0
309.4084,309.6334,64,42,0
309.4084,309.6334,56,19,0
309.6334,309.85727,59,24,0
309.85727,310.0795,64,49,0
309.85727,310.0795,56,22,0
311.1734,311.2813,80,67,0
311.2813,311.3887,79,68,0
311.3887,311.49585,80,69,0
311.49585,311.60248,81,70,0
311.70663,311.81082,81,64,0
311.60248,311.81082,78,72,0
311.91498,312.01913,81,64,0
311.81082,312.01913,76,68,0
312.1226,312.22604,81,64,0
312.01913,312.22604,75,68,0
312.3295,312.43246,81,64,0
312.22604,312.43246,73,68,0
312.53522,312.63794,75,64,0
312.43246,312.63794,72,72,0
312.74045,312.8425,75,64,0
312.63794,312.8425,69,68,0
312.94455,313.04657,75,64,0
312.8425,313.04657,68,68,0
313.14792,313.24927,75,64,0
313.04657,313.24927,67,68,0
313.35062,313.45154,69,64,0
313.24927,313.45154,66,72,0
313.5522,313.65286,69,64,0
313.45154,313.65286,64,68,0
313.75333,313.85333,69,66,0
313.65286,313.85333,63,68,0
313.9533,314.0533,69,66,0
313.85333,314.0533,61,69,0
314.15265,314.25198,63,67,0
314.0533,314.25198,60,73,0
314.35132,314.45068,63,67,0
314.25198,314.45068,57,70,0
314.55002,314.64935,63,68,0
314.45068,314.64935,56,71,0
314.7487,314.84802,63,69,0
314.64935,314.84802,55,71,0
314.84802,314.94736,54,77,0
314.94736,315.0467,57,69,0
315.0467,315.14603,52,72,0
315.14603,315.24536,57,69,0
315.24536,315.3447,51,73,0
315.3447,315.44406,57,70,0
315.44406,315.5434,49,74,0
315.5434,315.64273,57,70,0
315.64273,315.74207,48,80,0
315.74207,315.8414,51,71,0
315.8414,315.94073,45,75,0
315.94073,316.04007,51,72,0
316.04007,316.1394,44,77,0
316.1394,316.23874,51,72,0
316.23874,316.33807,43,77,0
316.33807,316.43744,51,73,0
316.43744,316.53677,42,73,0
316.53677,316.6361,45,66,0
316.6361,316.73544,39,71,0
316.73544,316.83478,45,68,0
316.83478,316.9341,37,73,0
316.9341,317.03345,45,70,0
317.03345,317.13278,36,74,0
317.13278,317.23212,45,71,0
317.23212,317.33145,42,73,0
317.33145,317.43082,45,66,0
317.43082,317.53015,39,71,0
317.53015,317.6295,45,68,0
317.6295,317.72903,37,73,0
317.72903,317.82904,45,70,0
317.82904,317.92905,36,74,0
317.92905,318.02902,45,71,0
318.02902,318.1297,42,73,0
318.1297,318.23038,45,66,0
318.23038,318.33127,38,70,0
318.33127,318.43262,45,67,0
318.43262,318.5342,37,71,0
318.5342,318.63626,45,67,0
318.63626,318.73853,36,71,0
318.73853,318.84128,45,68,0
318.84128,318.944,42,69,0
318.944,319.0472,45,62,0
319.0472,319.15067,38,66,0
319.15067,319.25458,45,62,0
319.25458,319.35876,37,68,0
319.35876,319.4634,45,63,0
319.4634,319.5683,36,69,0
319.5683,319.6737,45,63,0
319.6737,319.77933,37,66,0
319.77933,319.88495,45,59,0
319.88495,319.9906,40,63,0
319.9906,320.09622,45,62,0
320.09622,320.20187,42,67,0
320.20187,320.3075,45,64,0
320.3075,320.41312,43,69,0
320.41312,320.51877,45,67,0
320.51877,320.6244,42,73,0
320.6244,320.73004,45,64,0
320.73004,320.83566,40,67,0
320.83566,320.94128,45,63,0
320.94128,321.04694,38,64,0
321.04694,321.15256,45,61,0
321.15256,321.2582,36,63,0
321.2582,321.3636,46,60,0
321.3636,321.46848,35,66,0
321.46848,321.57312,47,59,0
321.57312,321.6773,39,63,0
321.6773,321.78122,47,62,0
321.78122,321.88467,42,67,0
321.88467,321.98788,47,64,0
321.98788,322.09064,45,69,0
322.09064,322.1929,47,67,0
322.1929,322.29495,44,73,0
322.29495,322.39767,47,64,0
322.39767,322.50067,42,67,0
322.50067,322.6041,47,63,0
322.6041,322.70877,40,64,0
322.70877,322.81696,47,61,0
322.81696,322.9324,38,63,0
322.9324,323.05145,48,60,0
323.05145,323.15707,37,66,0
323.15707,323.26224,49,59,0
323.26224,323.36688,41,63,0
323.36688,323.47104,49,62,0
323.47104,323.5745,44,67,0
323.5745,323.67746,49,64,0
323.67746,323.77997,47,69,0
323.77997,323.88202,49,67,0
323.88202,323.98337,46,73,0
323.98337,324.08542,49,64,0
324.08542,324.18814,44,67,0
324.18814,324.2916,49,63,0
324.2916,324.3953,42,64,0
324.3953,324.49997,49,61,0
324.49997,324.61053,40,63,0
324.61053,324.72626,50,60,0
324.72626,324.8319,39,66,0
324.8319,324.93753,51,59,0
324.93753,325.04315,43,63,0
325.04315,325.1488,51,62,0
325.1488,325.25443,46,67,0
325.25443,325.36008,51,64,0
325.36008,325.4657,49,69,0
325.4657,325.57135,51,67,0
325.57135,325.67407,48,74,0
325.67407,325.77682,51,66,0
325.77682,325.87955,46,69,0
325.87955,325.9823,51,64,0
325.9823,326.08502,44,67,0
326.08502,326.18777,51,64,0
326.18777,326.29053,42,68,0
326.29053,326.39325,52,62,0
326.39325,326.4967,41,69,0
326.4967,326.60016,53,62,0
326.60016,326.70288,45,68,0
326.70288,326.80563,53,64,0
326.80563,326.90768,48,70,0
326.90768,327.0097,53,69,0
327.0097,327.11105,51,74,0
327.11105,327.2124,53,72,0
327.2124,327.31308,50,79,0
327.31308,327.41397,53,71,0
327.41397,327.51532,48,77,0
327.51532,327.61737,54,72,0
327.61737,327.71988,47,77,0
327.71988,327.82285,55,72,0
327.82285,327.928,53,77,0
327.928,328.03726,55,72,0
328.03726,328.1393,52,83,0
328.1393,328.24133,55,73,0
328.24133,328.34338,50,78,0
328.34338,328.44543,56,74,0
328.44543,328.54745,49,79,0
328.54745,328.6495,57,74,0
328.6495,328.75156,55,79,0
328.75156,328.85358,57,77,0
328.85358,328.95633,54,84,0
328.95633,329.05905,57,77,0
329.05905,329.1611,52,80,0
329.1611,329.26315,58,77,0
329.26315,329.3645,51,81,0
329.3645,329.4654,59,77,0
329.4654,329.56607,57,82,0
329.56607,329.6663,59,78,0
329.6663,329.76608,56,88,0
329.76608,329.86542,59,78,0
329.86542,329.96475,54,82,0
329.96475,330.0641,60,78,0
330.0641,330.16342,53,84,0
330.16342,330.26276,61,80,0
330.26276,330.3621,59,84,0
330.3621,330.46143,61,80,0
330.46143,330.561,59,79,0
330.561,330.66104,61,80,0
330.66104,330.7633,59,80,0
330.7633,330.86243,61,81,0
330.86243,330.9627,59,82,0
330.9627,331.06473,61,79,0
331.06473,331.16568,59,77,0
331.16568,331.2677,61,75,0
331.2677,331.3677,59,84,0
331.3677,331.4677,61,75,0
331.4677,331.56772,56,80,0
331.56772,331.6677,61,77,0
331.6677,331.7677,54,81,0
331.7677,331.8677,61,78,0
331.8677,331.9677,53,82,0
331.9677,332.06772,61,79,0
332.06772,332.16574,59,89,0
332.16574,332.2638,62,80,0
332.2638,332.36182,56,84,0
332.36182,332.45987,62,80,0
332.45987,332.56625,54,85,0
332.56625,332.67264,62,82,0
332.67264,332.8042,53,86,0
332.8042,332.9358,62,83,0
332.9358,333.24402,65,78,0
332.9358,333.24402,68,78,0
332.9358,333.24402,74,93,0
332.9358,333.24402,71,78,0
333.24402,333.3416,65,70,0
333.24402,333.3416,68,70,0
333.24402,333.3416,71,84,0
333.24402,333.3416,62,70,0
333.34674,333.65497,68,78,0
333.34674,333.65497,71,91,0
333.34674,333.65497,62,78,0
333.34674,333.65497,65,78,0
333.65497,333.75256,68,84,0
333.65497,333.75256,65,70,0
333.65497,333.75256,59,70,0
333.65497,333.75256,62,70,0
333.7577,334.07462,68,91,0
333.7577,334.07462,62,78,0
333.7577,334.07462,59,78,0
333.7577,334.07462,65,78,0
334.07462,334.17496,62,68,0
334.07462,334.17496,65,80,0
334.07462,334.17496,56,68,0
334.07462,334.17496,59,68,0
334.18024,334.29303,65,88,0
334.18024,334.29303,62,73,0
334.18024,334.29303,56,73,0
334.18024,334.29303,59,73,0
334.4058,334.53513,62,80,0
334.4058,334.53513,53,68,0
334.4058,334.53513,56,68,0
334.4058,334.53513,59,68,0
334.66443,334.76578,59,84,0
334.76578,334.86713,61,75,0
334.86713,334.96848,56,80,0
334.96848,335.06982,61,77,0
335.06982,335.16916,54,81,0
335.16916,335.2685,61,78,0
335.2685,335.36783,53,82,0
335.36783,335.4672,61,79,0
335.4672,335.56784,59,89,0
335.56784,335.66852,62,80,0
335.66852,335.7692,56,84,0
335.7692,335.86987,62,80,0
335.86987,335.97055,54,85,0
335.97055,336.0712,62,82,0
336.0712,336.1875,53,86,0
336.1875,336.30377,62,83,0
336.30377,336.60782,65,78,0
336.30377,336.60782,68,78,0
336.30377,336.60782,74,93,0
336.30377,336.60782,71,78,0
336.60782,336.7041,65,70,0
336.60782,336.7041,68,70,0
336.60782,336.7041,71,84,0
336.60782,336.7041,62,70,0
336.70917,337.0132,68,78,0
336.70917,337.0132,71,91,0
336.70917,337.0132,62,78,0
336.70917,337.0132,65,78,0
337.0132,337.1095,68,84,0
337.0132,337.1095,65,70,0
337.0132,337.1095,59,70,0
337.0132,337.1095,62,70,0
337.11456,337.42706,68,91,0
337.11456,337.42706,62,78,0
337.11456,337.42706,59,78,0
337.11456,337.42706,65,78,0
337.42706,337.52603,62,68,0
337.42706,337.52603,65,80,0
337.42706,337.52603,56,68,0
337.42706,337.52603,59,68,0
337.53125,337.64075,65,88,0
337.53125,337.64075,62,73,0
337.53125,337.64075,56,73,0
337.53125,337.64075,59,73,0
337.7502,337.87216,62,80,0
337.7502,337.87216,53,68,0
337.7502,337.87216,56,68,0
337.7502,337.87216,59,68,0
337.9941,338.2982,36,66,0
337.9941,338.2982,48,79,0
338.2982,338.39447,39,59,0
338.2982,338.39447,51,71,0
338.39954,338.70358,39,66,0
338.39954,338.70358,51,77,0
338.70358,338.79987,54,71,0
338.70358,338.79987,42,59,0
338.80493,339.10495,54,77,0
338.80493,339.10495,42,66,0
339.10495,339.19992,45,57,0
339.10495,339.19992,57,68,0
339.20493,339.31058,57,74,0
339.20493,339.31058,45,61,0
339.4162,339.52814,60,68,0
339.4162,339.52814,48,57,0
339.64008,339.94412,37,66,0
339.64008,339.94412,49,79,0
339.94412,340.04044,42,59,0
339.94412,340.04044,54,71,0
340.0455,340.34955,42,66,0
340.0455,340.34955,54,77,0
340.34955,340.44583,57,71,0
340.34955,340.44583,45,59,0
340.4509,340.75912,57,77,0
340.4509,340.75912,45,66,0
340.75912,340.85672,49,57,0
340.75912,340.85672,61,68,0
340.86185,340.97214,61,74,0
340.86185,340.97214,49,61,0
341.08243,341.20538,54,68,0
341.32834,341.63657,36,66,0
341.32834,341.63657,48,79,0
341.63657,341.73416,39,59,0
341.63657,341.73416,51,71,0
341.7393,342.04752,39,66,0
341.7393,342.04752,51,77,0
342.04752,342.1451,54,71,0
342.04752,342.1451,42,59,0
342.15027,342.46716,54,77,0
342.15027,342.46716,42,66,0
342.46716,342.5675,45,57,0
342.46716,342.5675,57,68,0
342.57278,342.68817,57,74,0
342.57278,342.68817,45,61,0
342.80356,342.95062,60,68,0
342.80356,342.95062,48,57,0
343.0977,343.43103,32,69,0
343.0977,343.43103,44,82,0
343.43103,343.53656,36,61,0
343.43103,343.53656,48,74,0
343.5421,343.87546,36,68,0
343.5421,343.87546,48,79,0
343.87546,343.98102,51,72,0
343.87546,343.98657,39,60,0
343.98657,344.30524,51,79,0
343.98657,344.30524,39,67,0
344.30524,344.40723,44,58,0
344.30524,344.40723,56,69,0
344.41263,344.52213,56,75,0
344.41263,344.52213,44,62,0
344.63406,344.74857,60,68,0
344.63406,344.74857,48,61,0
344.86575,345.08798,61,75,0
344.86575,345.08798,49,62,0
345.08798,345.1991,44,75,0
345.1991,345.3102,49,66,0
345.3102,345.42133,41,75,0
345.42133,345.53244,49,66,0
345.53244,345.64355,37,74,0
345.64355,345.75467,49,67,0
345.75467,345.86575,48,75,0
345.86575,345.97687,49,64,0
345.97687,346.08798,44,72,0
346.08798,346.19992,49,62,0
346.19992,346.31186,41,69,0
346.31186,346.4241,49,59,0
346.4241,346.53687,37,66,0
346.53687,346.64966,49,56,0
346.64966,346.763,48,62,0
346.763,346.87665,49,55,0
346.87665,346.99026,44,60,0
346.99026,347.1048,49,51,0
347.1048,347.2193,41,56,0
347.2193,347.33408,49,47,0
347.33408,347.44946,37,52,0
347.44946,347.56485,49,45,0
347.56485,347.68085,48,50,0
347.68085,347.7962,49,42,0
347.7962,347.9128,44,47,0
347.9128,348.0306,49,40,0
348.0306,348.15125,41,44,0
348.15125,348.27454,49,37,0
348.27454,348.40475,37,40,0
348.40475,348.54922,49,34,0
348.54922,348.69348,48,33,0
348.69348,348.8324,49,29,0
348.8324,348.96634,44,33,0
348.96634,349.09494,49,29,0
349.09494,349.22205,41,33,0
349.22205,349.34845,49,29,0
349.34845,349.47452,37,33,0
349.47452,349.59985,49,29,0
349.59985,349.72485,48,33,0
349.72485,349.84918,49,29,0
349.84918,349.97314,44,33,0
349.97314,350.09644,49,29,0
350.09644,350.2194,41,33,0
350.2194,350.34167,49,29,0
350.34167,350.46362,37,33,0
350.46362,350.5849,49,29,0
350.5849,350.70557,48,33,0
350.70557,350.82556,49,29,0
350.82556,350.94556,44,33,0
350.94556,351.06555,49,29,0
351.06555,351.18652,41,33,0
351.18652,351.3075,49,29,0
351.3075,351.42847,37,33,0
351.42847,351.55008,49,29,0
351.55008,351.67203,48,33,0
351.67203,351.79398,49,28,0
351.79398,351.91626,44,29,0
351.91626,352.043,49,26,0
352.043,352.17648,41,27,0
352.17648,352.31824,49,23,0
352.31824,352.47913,37,25,0
352.47913,352.66895,49,20,0
352.66895,352.7919,47,39,0
352.7919,352.91483,50,32,0
352.91483,353.03778,44,36,0
353.03778,353.16074,50,30,0
353.16074,353.2837,42,34,0
353.2837,353.40665,50,27,0
353.40665,353.5296,41,32,0
353.5296,353.65256,50,26,0
353.65256,353.77548,47,39,0
353.77548,353.89844,50,33,0
353.89844,354.0214,44,36,0
354.0214,354.14435,50,30,0
354.14435,354.2673,42,34,0
354.2673,354.39026,50,28,0
354.39026,354.5132,41,32,0
354.5132,354.63614,50,26,0
354.63614,354.75452,47,33,0
354.75452,354.8729,50,28,0
354.8729,354.99127,44,32,0
354.99127,355.10965,50,27,0
355.10965,355.228,42,31,0
355.228,355.34637,50,26,0
355.34637,355.46475,41,31,0
355.46475,355.58313,50,26,0
355.58313,355.7055,47,30,0
355.7055,355.8279,50,26,0
355.8279,355.95013,44,30,0
355.95013,356.07343,50,26,0
356.07343,356.20166,42,30,0
356.20166,356.33566,50,25,0
356.33566,356.49246,40,31,0
356.49246,356.66086,49,26,0
356.66086,356.78726,39,32,0
356.78726,356.91193,48,28,0
356.91193,357.03522,42,32,0
357.03522,357.15652,48,27,0
357.15652,357.27747,44,33,0
357.27747,357.39844,48,26,0
357.39844,357.5194,36,31,0
357.5194,357.64038,48,26,0
357.64038,357.75974,39,30,0
357.75974,357.8791,48,26,0
357.8791,357.99844,42,30,0
357.99844,358.1178,48,26,0
358.1178,358.2362,44,35,0
358.2362,358.3559,48,25,0
358.3559,358.47717,36,31,0
358.47717,358.5998,48,26,0
358.5998,358.7238,39,30,0
358.7238,358.84775,48,26,0
358.84775,358.9717,42,30,0
358.9717,359.09567,48,26,0
359.09567,359.21964,44,34,0
359.21964,359.3436,48,25,0
359.3436,359.46756,36,31,0
359.46756,359.59256,48,26,0
359.59256,359.71817,39,30,0
359.71817,359.84375,48,26,0
359.84375,359.96933,42,30,0
359.96933,360.0949,48,26,0
360.0949,360.21976,44,33,0
360.21976,360.34872,48,25,0
360.34872,360.4839,36,31,0
360.4839,360.64798,48,26,0
360.64798,360.77142,37,30,0
360.77142,360.89487,49,26,0
360.89487,361.01828,41,31,0
361.01828,361.14172,49,29,0
361.14172,361.26517,44,34,0
361.26517,361.3886,49,29,0
361.3886,361.51202,48,37,0
361.51202,361.63547,49,32,0
361.63547,361.7589,37,30,0
361.7589,361.88235,49,26,0
361.88235,362.0058,41,31,0
362.0058,362.1292,49,28,0
362.1292,362.25266,44,34,0
362.25266,362.3761,49,29,0
362.3761,362.49954,48,37,0
362.49954,362.62296,49,33,0
362.62296,362.74133,46,30,0
362.74133,362.8597,58,26,0
362.8597,362.9781,49,30,0
362.9781,363.09647,58,26,0
363.09647,363.2148,54,31,0
363.2148,363.3332,58,26,0
363.3332,363.45157,57,33,0
363.45157,363.56995,58,28,0
363.56995,363.69232,46,32,0
363.69232,363.81473,58,26,0
363.81473,363.9371,49,30,0
363.9371,364.05948,58,27,0
364.05948,364.1819,54,31,0
364.1819,364.309,58,26,0
364.309,364.44098,57,33,0
364.44098,364.61014,58,28,0
364.61014,364.73358,44,30,0
364.73358,364.85703,56,26,0
364.85703,364.98047,49,31,0
364.98047,365.10388,56,27,0
365.10388,365.22733,53,32,0
365.22733,365.35077,56,27,0
365.35077,365.4742,55,34,0
365.4742,365.59766,56,29,0
365.59766,365.71698,44,30,0
365.71698,365.83633,56,26,0
365.83633,365.9557,49,31,0
365.9557,366.07504,56,27,0
366.07504,366.1944,53,32,0
366.1944,366.31375,56,27,0
366.31375,366.4331,55,34,0
366.4331,366.55246,56,29,0
366.55246,366.67587,44,30,0
366.67587,366.79932,56,26,0
366.79932,366.92276,51,30,0
366.92276,367.0462,56,27,0
367.0462,367.16962,54,31,0
367.16962,367.29306,56,26,0
367.29306,367.4165,55,33,0
367.4165,367.53995,56,28,0
367.53995,367.66443,44,30,0
367.66443,367.78894,56,26,0
367.78894,367.91345,51,30,0
367.91345,368.03793,56,27,0
368.03793,368.16245,54,31,0
368.16245,368.28696,56,26,0
368.28696,368.43546,55,33,0
368.43546,368.56628,56,28,0
368.56628,368.68823,48,37,0
368.68823,368.81018,49,32,0
368.81018,368.93115,44,35,0
368.93115,369.05212,49,30,0
369.05212,369.17276,41,33,0
369.17276,369.29276,49,29,0
369.29276,369.41275,37,30,0
369.41275,369.53214,49,26,0
369.53214,369.65115,48,36,0
369.65115,369.7702,49,32,0
369.7702,369.88834,44,35,0
369.88834,370.00644,49,30,0
370.00644,370.12424,41,33,0
370.12424,370.24142,49,29,0
370.24142,370.3586,37,30,0
370.3586,370.4752,49,26,0
370.4752,370.59146,48,31,0
370.59146,370.70776,49,28,0
370.70776,370.82404,44,31,0
370.82404,370.9403,49,27,0
370.9403,371.05658,41,30,0
371.05658,371.17288,49,27,0
371.17288,371.28915,37,29,0
371.28915,371.40543,49,26,0
371.40543,371.5217,48,31,0
371.5217,371.638,49,28,0
371.638,371.75458,44,31,0
371.75458,371.87238,49,27,0
371.87238,371.993,41,30,0
371.993,372.1163,49,27,0
372.1163,372.24652,37,29,0
372.24652,372.391,49,26,0
372.391,372.53525,48,29,0
372.53525,372.67416,49,28,0
372.67416,372.8081,44,31,0
372.8081,372.9367,49,27,0
372.9367,373.0638,41,30,0
373.0638,373.19025,49,27,0
373.19025,373.31628,37,29,0
373.31628,373.44162,49,26,0
373.44162,373.56662,48,31,0
373.56662,373.69095,49,28,0
373.69095,373.8149,44,31,0
373.8149,373.9382,49,27,0
373.9382,374.06116,41,30,0
374.06116,374.18344,49,27,0
374.18344,374.3054,37,29,0
374.3054,374.4267,49,26,0
374.4267,374.54733,48,29,0
374.54733,374.66733,49,26,0
374.66733,374.78732,44,29,0
374.78732,374.90732,49,26,0
374.90732,375.0283,41,29,0
375.0283,375.14926,49,26,0
375.14926,375.27023,37,29,0
375.27023,375.39185,49,26,0
375.39185,375.5138,48,29,0
375.5138,375.63574,49,25,0
375.63574,375.75967,44,26,0
375.75967,375.8887,49,23,0
375.8887,376.02353,41,24,0
376.02353,376.17044,49,19,0
376.17044,376.34232,37,22,0
376.34232,376.46527,49,18,0
376.46527,376.58823,47,39,0
376.58823,376.71085,50,32,0
376.71085,376.8328,44,36,0
376.8328,376.95474,50,30,0
376.95474,377.07605,42,33,0
377.07605,377.19702,50,27,0
377.19702,377.318,41,32,0
377.318,377.438,50,26,0
377.438,377.55798,47,39,0
377.55798,377.67798,50,32,0
377.67798,377.79797,44,36,0
377.79797,377.91797,50,30,0
377.91797,378.038,42,34,0
378.038,378.158,50,28,0
378.158,378.27798,41,32,0
378.27798,378.39798,50,26,0
378.39798,378.51636,47,33,0
378.51636,378.63474,50,28,0
378.63474,378.75308,44,32,0
378.75308,378.87146,50,27,0
378.87146,378.98984,42,31,0
378.98984,379.10822,50,26,0
379.10822,379.2266,41,31,0
379.2266,379.34494,50,26,0
379.34494,379.46735,47,33,0
379.46735,379.58972,50,28,0
379.58972,379.71198,44,32,0
379.71198,379.83527,50,27,0
379.83527,379.9635,42,31,0
379.9635,380.09747,50,26,0
380.09747,380.2543,41,31,0
380.2543,380.4227,50,26,0
380.4227,380.5491,42,30,0
380.5491,380.67377,51,26,0
380.67377,380.79706,45,31,0
380.79706,380.91833,51,26,0
380.91833,381.0393,47,34,0
381.0393,381.16028,51,25,0
381.16028,381.28125,39,31,0
381.28125,381.40222,51,26,0
381.40222,381.52158,42,30,0
381.52158,381.6409,51,26,0
381.6409,381.76025,45,31,0
381.76025,381.8796,51,26,0
381.8796,381.99805,47,35,0
381.99805,382.1177,51,25,0
382.1177,382.239,39,31,0
382.239,382.36163,51,26,0
382.36163,382.4856,42,30,0
382.4856,382.60956,51,26,0
382.60956,382.73352,45,32,0
382.73352,382.8575,51,26,0
382.8575,382.98148,47,35,0
382.98148,383.10544,51,25,0
383.10544,383.2294,39,31,0
383.2294,383.3544,51,26,0
383.3544,383.47998,42,30,0
383.47998,383.60556,51,26,0
383.60556,383.73117,45,33,0
383.73117,383.85675,51,26,0
383.85675,383.9816,47,35,0
383.9816,384.11057,51,25,0
384.11057,384.24573,39,31,0
384.24573,384.40982,51,26,0
384.40982,384.53323,40,30,0
384.53323,384.65668,52,26,0
384.65668,384.78012,44,32,0
384.78012,384.90356,52,30,0
384.90356,385.027,47,36,0
385.027,385.15042,52,31,0
385.15042,385.27386,51,40,0
385.27386,385.39615,52,35,0
385.39615,385.51614,40,30,0
385.51614,385.63617,52,26,0
385.63617,385.75616,44,32,0
385.75616,385.87616,52,29,0
385.87616,385.99615,47,36,0
385.99615,386.11615,52,31,0
386.11615,386.23615,51,40,0
386.23615,386.35617,52,35,0
386.35617,386.47452,49,30,0
386.47452,386.5929,61,26,0
386.5929,386.71127,52,31,0
386.71127,386.82965,61,27,0
386.82965,386.948,57,33,0
386.948,387.06638,61,28,0
387.06638,387.18475,60,35,0
387.18475,387.30313,61,30,0
387.30313,387.4255,49,35,0
387.4255,387.5479,61,26,0
387.5479,387.6703,52,31,0
387.6703,387.7927,61,27,0
387.7927,387.91507,57,33,0
387.91507,388.0422,61,28,0
388.0422,388.17416,60,35,0
388.17416,388.34335,61,30,0
388.34335,388.46677,47,30,0
388.46677,388.5902,59,26,0
388.5902,388.71365,52,31,0
388.71365,388.8371,59,27,0
388.8371,388.9605,56,32,0
388.9605,389.08395,59,28,0
389.08395,389.2074,58,35,0
389.2074,389.33084,59,30,0
389.33084,389.4502,47,30,0
389.4502,389.56952,59,26,0
389.56952,389.68887,52,31,0
389.68887,389.80804,59,28,0
389.80804,389.9274,56,33,0
389.9274,390.04803,59,28,0
390.04803,390.17032,58,35,0
390.17032,390.29395,59,30,0
390.29395,390.42554,47,30,0
390.42554,390.55713,59,26,0
390.55713,390.6887,54,31,0
390.6887,390.82028,59,27,0
390.82028,390.95184,57,33,0
390.95184,391.08344,59,28,0
391.08344,391.215,58,35,0
391.215,391.3466,59,30,0
391.3466,391.48294,47,30,0
391.48294,391.61932,59,26,0
391.61932,391.75568,54,31,0
391.75568,391.89203,59,28,0
391.89203,392.0284,57,33,0
392.0284,392.16476,59,28,0
392.16476,392.3133,58,35,0
392.3133,392.43726,59,30,0
392.43726,392.56122,63,43,0
392.56122,392.68518,64,35,0
392.68518,392.80914,59,39,0
392.80914,392.93277,64,32,0
392.93277,393.05573,56,36,0
393.05573,393.17868,64,27,0
393.17868,393.30164,52,33,0
393.30164,393.4246,64,26,0
393.4246,393.54755,63,42,0
393.54755,393.6705,64,34,0
393.6705,393.79343,59,38,0
393.79343,393.91776,64,32,0
393.91776,394.04276,56,35,0
394.04276,394.16705,64,27,0
394.16705,394.29105,52,33,0
394.29105,394.41434,64,26,0
394.41434,394.53268,63,36,0
394.53268,394.65106,64,30,0
394.65106,394.76944,59,34,0
394.76944,394.88782,64,28,0
394.88782,395.00616,56,32,0
395.00616,395.12454,64,27,0
395.12454,395.24292,52,31,0
395.24292,395.3613,64,26,0
395.3613,395.48367,63,33,0
395.48367,395.60608,64,28,0
395.60608,395.72845,59,32,0
395.72845,395.85086,64,27,0
395.85086,395.97324,56,31,0
395.97324,396.10037,64,26,0
396.10037,396.23233,52,31,0
396.23233,396.40152,64,26,0
396.40152,396.52493,63,33,0
396.52493,396.64838,64,28,0
396.64838,396.77182,60,32,0
396.77182,396.89526,64,27,0
396.89526,397.01868,57,31,0
397.01868,397.14212,64,26,0
397.14212,397.26556,52,31,0
397.26556,397.389,64,26,0
397.389,397.50836,63,33,0
397.50836,397.6277,64,28,0
397.6277,397.74704,60,32,0
397.74704,397.8664,64,27,0
397.8664,397.98575,57,31,0
397.98575,398.1051,64,26,0
398.1051,398.22446,52,31,0
398.22446,398.3438,64,26,0
398.3438,398.46725,63,33,0
398.46725,398.59067,64,28,0
398.59067,398.7141,60,32,0
398.7141,398.83755,64,27,0
398.83755,398.961,57,31,0
398.961,399.0844,64,26,0
399.0844,399.20786,52,31,0
399.20786,399.3313,64,26,0
399.3313,399.4558,63,33,0
399.4558,399.5803,64,28,0
399.5803,399.7048,60,32,0
399.7048,399.8293,64,27,0
399.8293,399.9538,57,31,0
399.9538,400.0783,64,26,0
400.0783,400.22684,52,31,0
400.22684,400.37534,64,26,0
400.37534,400.49878,51,34,0
400.49878,400.62222,52,29,0
400.62222,400.74564,47,33,0
400.74564,400.86908,52,26,0
400.86908,400.99252,44,30,0
400.99252,401.11597,52,23,0
401.11597,401.23938,40,29,0
401.23938,401.36282,52,23,0
401.36282,401.48627,51,34,0
401.48627,401.6097,52,29,0
401.6097,401.73315,47,33,0
401.73315,401.85657,52,26,0
401.85657,401.98,44,30,0
401.98,402.10345,52,23,0
402.10345,402.2269,40,29,0
402.2269,402.3503,52,23,0
402.3503,402.4687,51,31,0
402.4687,402.58707,52,27,0
402.58707,402.70544,47,31,0
402.70544,402.8238,52,25,0
402.8238,402.94217,44,29,0
402.94217,403.06055,52,22,0
403.06055,403.17892,40,28,0
403.17892,403.2973,52,23,0
403.2973,403.41968,51,29,0
403.41968,403.54208,52,25,0
403.54208,403.66446,47,29,0
403.66446,403.78683,52,24,0
403.78683,403.90924,44,28,0
403.90924,404.03635,52,22,0
404.03635,404.16833,40,28,0
404.16833,404.3375,52,23,0
404.3375,404.46094,51,29,0
404.46094,404.58438,52,25,0
404.58438,404.70782,48,29,0
404.70782,404.83124,52,24,0
404.83124,404.95468,45,28,0
404.95468,405.07812,52,22,0
405.07812,405.20157,40,28,0
405.20157,405.325,52,23,0
405.325,405.44434,51,29,0
405.44434,405.5637,52,25,0
405.5637,405.68304,48,29,0
405.68304,405.8024,52,24,0
405.8024,405.92175,45,28,0
405.92175,406.0411,52,22,0
406.0411,406.16046,40,28,0
406.16046,406.27982,52,23,0
406.27982,406.40323,51,29,0
406.40323,406.52667,52,25,0
406.52667,406.65012,48,29,0
406.65012,406.77356,52,24,0
406.77356,406.89697,45,28,0
406.89697,407.02042,52,22,0
407.02042,407.14386,40,28,0
407.14386,407.2673,52,23,0
407.2673,407.39178,51,29,0
407.39178,407.5163,52,25,0
407.5163,407.6408,48,29,0
407.6408,407.7653,52,24,0
407.7653,407.8898,45,28,0
407.8898,408.0143,52,22,0
408.0143,408.14648,40,28,0
408.14648,408.3199,52,23,0
408.3199,408.44333,51,34,0
408.44333,408.56677,52,29,0
408.56677,408.6902,47,33,0
408.6902,408.81363,52,26,0
408.81363,408.93707,44,30,0
408.93707,409.06052,52,23,0
409.06052,409.18393,40,29,0
409.18393,409.30737,52,23,0
409.30737,409.43082,51,34,0
409.43082,409.55426,52,29,0
409.55426,409.67767,47,33,0
409.67767,409.80112,52,26,0
409.80112,409.92456,44,30,0
409.92456,410.048,52,23,0
410.048,410.17145,40,29,0
410.17145,410.29486,52,23,0
410.29486,410.41324,51,29,0
410.41324,410.53162,52,25,0
410.53162,410.65,47,29,0
410.65,410.76834,52,24,0
410.76834,410.88672,44,28,0
410.88672,411.0051,52,22,0
411.0051,411.12347,40,28,0
411.12347,411.24185,52,23,0
411.24185,411.36423,51,29,0
411.36423,411.4866,52,25,0
411.4866,411.609,47,29,0
411.609,411.73138,52,24,0
411.73138,411.8538,44,28,0
411.8538,411.9809,52,22,0
411.9809,412.11288,40,28,0
412.11288,412.28204,52,23,0
412.28204,412.40918,50,27,0
412.40918,412.5363,52,21,0
412.5363,412.66376,47,26,0
412.66376,412.79196,52,21,0
412.79196,412.92056,44,26,0
412.92056,413.04987,52,19,0
413.04987,413.17844,40,25,0
413.17844,413.30557,52,20,0
413.30557,413.436,50,26,0
413.436,413.56796,52,20,0
413.56796,413.7015,47,25,0
413.7015,413.83704,52,20,0
413.83704,413.97382,44,25,0
413.97382,414.11227,52,19,0
414.11227,414.2529,40,24,0
414.2529,414.39532,52,19,0
414.39532,414.54,50,25,0
414.54,414.68707,52,20,0
414.68707,414.8371,47,24,0
414.8371,414.98965,52,20,0
414.98965,415.14536,44,24,0
415.14536,415.30438,52,18,0
415.30438,415.46625,40,23,0
415.46625,415.63168,52,19,0
415.63168,415.80283,50,24,0
415.80283,415.98288,52,20,0
415.98288,416.17358,47,23,0
416.17358,416.37546,52,19,0
416.37546,416.59082,44,23,0
416.59082,416.82034,52,17,0
416.82034,417.18665,40,22,0
417.18665,417.9009,52,14,0
