start_time,end_time,note_value,velocity,instrument_program_number
0.29032275,0.33870986,55,59,0
0.29032275,0.33870986,61,70,0
0.29032275,0.33870986,57,59,0
0.387097,0.6774197,57,64,0
0.387097,0.6774197,55,64,0
0.387097,0.6774197,61,76,0
0.6774197,0.7258069,57,59,0
0.6774197,0.7258069,61,70,0
0.6774197,0.7258069,55,59,0
0.774194,1.0708352,57,63,0
0.774194,1.0708352,62,75,0
0.774194,1.0708352,55,63,0
1.0708352,1.1223816,64,70,0
1.0708352,1.1223816,55,59,0
1.0708352,1.1223816,57,59,0
1.173928,1.9345492,62,68,0
1.173928,1.9345492,54,68,0
1.173928,1.9345492,57,68,0
1.173928,1.9345492,66,80,0
1.958242,2.6155005,62,68,0
1.958242,2.6155005,57,68,0
1.958242,2.6155005,54,68,0
1.958242,2.6155005,66,80,0
2.6356618,2.732436,66,67,0
2.732436,3.0208972,67,75,0
2.732436,3.105833,57,66,0
3.0208972,3.117051,66,70,0
3.117051,3.2132049,64,74,0
3.2132049,3.3093586,66,66,0
3.3093586,3.421718,64,66,0
3.117051,3.520969,57,66,0
3.421718,3.5340774,62,70,0
3.5340774,4.2897587,64,68,0
3.5340774,4.2897587,57,68,0
3.5340774,4.2897587,69,80,0
4.3132973,4.970556,64,68,0
4.3132973,4.970556,69,80,0
4.3132973,4.970556,57,68,0
4.9907174,5.0874915,69,67,0
5.0874915,5.183033,71,75,0
5.183033,5.2785745,73,66,0
5.2785745,5.374116,71,68,0
5.0874915,5.458511,64,66,0
5.374116,5.4696574,69,70,0
5.4696574,5.773948,71,74,0
5.773948,5.8871555,73,70,0
5.4696574,5.8871555,64,66,0
5.8871555,6.640393,74,80,0
5.8871555,6.640393,66,68,0
5.8871555,6.640393,71,68,0
5.8871555,6.640393,62,68,0
6.6638556,7.23638,71,68,0
6.6638556,7.23638,62,68,0
6.6638556,7.23638,66,68,0
6.6638556,7.23638,74,80,0
7.2442417,7.338051,74,75,0
7.2442417,7.338051,68,63,0
7.430955,7.5234003,74,80,0
7.430955,7.5234003,68,68,0
7.615322,7.7064962,76,79,0
7.615322,7.7064962,68,67,0
7.615322,7.7064962,74,79,0
7.796924,7.8866487,78,83,0
7.796924,7.8866487,74,70,0
7.796924,7.8866487,68,70,0
7.9762006,8.091585,80,86,0
7.9762006,8.091585,74,73,0
7.9762006,8.091585,68,73,0
8.20697,8.945858,81,90,0
8.20697,8.945858,73,76,0
8.20697,8.945858,69,76,0
8.968874,9.730778,69,87,0
8.968874,9.730778,61,73,0
8.968874,9.730778,57,73,0
9.730778,10.11173,81,61,0
10.11173,10.4975815,82,58,0
10.4975815,10.615229,83,62,0
10.615229,10.732876,82,57,0
10.732876,10.850523,83,57,0
10.850523,10.969217,88,63,0
10.969217,11.087912,87,61,0
11.087912,11.221691,88,65,0
11.221691,11.859989,91,70,0
11.859989,11.951175,90,61,0
11.951175,12.224731,88,69,0
12.224731,12.315917,86,62,0
12.315917,12.590214,85,70,0
12.590214,12.690214,83,62,0
12.690214,12.807516,81,69,0
12.807516,12.924818,80,60,0
12.924818,13.04212,81,55,0
13.04212,13.1618805,86,68,0
13.1618805,13.281641,85,65,0
13.281641,13.415421,86,69,0
13.415421,14.053719,90,72,0
14.053719,14.144904,88,61,0
14.144904,14.418461,86,69,0
14.418461,14.509646,85,62,0
14.509646,14.783943,83,70,0
14.783943,14.883944,81,62,0
14.883944,15.001591,79,67,0
15.001591,15.119238,78,58,0
15.119238,15.236884,79,58,0
15.236884,15.357367,85,63,0
15.357367,15.477848,84,61,0
15.477848,15.611628,85,65,0
15.611628,16.249926,88,70,0
16.249926,16.341112,86,59,0
16.341112,16.618889,85,68,0
16.618889,16.711481,86,57,0
16.711481,17.012884,85,67,0
17.012884,17.135334,83,58,0
17.135334,17.908588,82,63,0
17.135334,17.908588,78,53,0
17.932674,18.589933,82,56,0
17.932674,18.60203,78,47,0
18.610094,18.70687,82,46,0
18.70687,18.99533,83,52,0
18.70687,19.080267,78,46,0
18.99533,19.091484,82,49,0
19.091484,19.39615,83,51,0
19.091484,19.495401,78,46,0
19.39615,19.50851,82,49,0
19.50851,20.264193,80,56,0
19.50851,20.264193,77,47,0
20.287731,20.944988,80,56,0
20.287731,20.957087,77,47,0
20.96515,21.061924,80,46,0
21.061924,21.350386,82,52,0
21.061924,21.43452,77,46,0
21.350386,21.446539,80,49,0
21.446539,21.751207,82,51,0
21.446539,21.849522,77,46,0
21.751207,21.863565,80,49,0
21.863565,22.619247,78,56,0
22.642786,23.316486,78,56,0
23.324604,23.372992,57,70,0
23.324604,23.372992,55,59,0
23.324604,23.372992,49,59,0
23.421377,23.7117,57,76,0
23.421377,23.7117,49,64,0
23.421377,23.7117,55,64,0
23.7117,23.760088,57,70,0
23.7117,23.760088,49,59,0
23.7117,23.760088,55,59,0
23.808475,24.105116,55,63,0
23.808475,24.105116,49,63,0
23.808475,24.105116,59,75,0
24.105116,24.156662,61,70,0
24.105116,24.156662,55,59,0
24.105116,24.156662,49,59,0
24.208208,24.96883,62,80,0
24.208208,24.96883,54,68,0
24.208208,24.96883,50,68,0
24.992523,25.649782,62,80,0
24.992523,25.74333,50,68,0
24.992523,25.74333,54,68,0
24.992523,25.74333,59,68,0
25.669943,25.766716,62,67,0
25.766716,26.055178,62,75,0
25.766716,26.140114,54,66,0
26.055178,26.15133,64,70,0
26.15133,26.456,66,74,0
26.15133,26.55525,54,66,0
26.456,26.568357,62,70,0
26.568357,27.32404,64,68,0
26.568357,27.32404,57,68,0
26.568357,27.32404,69,80,0
26.568357,27.347578,67,68,0
27.347578,28.004837,64,68,0
27.347578,28.004837,67,68,0
27.347578,28.004837,69,80,0
27.347578,28.004837,57,68,0
28.024998,28.116934,67,53,0
28.024998,28.116934,64,53,0
28.024998,28.116934,69,67,0
28.121773,28.3869,69,75,0
28.121773,28.394066,67,60,0
28.121773,28.394066,64,60,0
28.408398,28.49916,69,70,0
28.408398,28.49916,67,56,0
28.408398,28.49916,64,56,0
28.503939,28.791248,71,74,0
28.503939,28.791248,67,59,0
28.503939,28.791248,64,59,0
28.80823,28.921436,73,70,0
28.80823,28.921436,67,56,0
28.80823,28.921436,64,56,0
28.921436,29.674673,74,80,0
28.921436,29.674673,62,68,0
28.921436,29.674673,66,68,0
28.921436,29.674673,69,68,0
29.698137,30.27066,74,80,0
29.698137,30.27066,67,68,0
29.698137,30.27066,62,68,0
30.278522,30.372332,74,75,0
30.278522,30.372332,68,63,0
30.465237,30.557682,74,80,0
30.465237,30.557682,68,68,0
30.649603,30.740778,76,79,0
30.649603,30.740778,74,79,0
30.649603,30.740778,68,67,0
30.831205,30.920929,78,83,0
30.831205,30.920929,74,70,0
30.831205,30.920929,68,70,0
31.01048,31.125866,80,86,0
31.01048,31.125866,74,73,0
31.01048,31.125866,68,73,0
31.241251,31.980139,81,90,0
31.241251,31.980139,73,76,0
31.241251,31.980139,69,76,0
32.003155,32.76506,69,87,0
32.003155,32.76506,61,73,0
32.003155,32.76506,57,73,0
32.76506,33.14601,76,61,0
33.14601,33.531864,77,58,0
33.531864,33.64951,78,62,0
33.64951,33.76716,77,57,0
33.76716,33.884804,78,57,0
33.884804,34.003498,83,63,0
34.003498,34.122192,82,61,0
34.122192,34.25597,83,65,0
34.25597,34.89427,86,70,0
34.89427,34.985455,85,61,0
34.985455,35.07664,83,69,0
35.07664,35.167828,85,63,0
35.167828,35.25901,83,63,0
35.25901,35.350197,81,62,0
35.350197,35.44056,80,70,0
35.44056,35.530922,81,65,0
35.530922,35.624496,80,66,0
35.624496,35.724495,78,62,0
35.724495,35.841797,76,69,0
35.841797,35.9591,75,60,0
35.9591,36.0764,76,55,0
36.0764,36.196163,81,68,0
36.196163,36.31592,80,65,0
36.31592,36.4497,81,69,0
36.4497,37.088,85,72,0
37.088,37.179184,83,61,0
37.179184,37.27037,81,69,0
37.27037,37.361557,83,63,0
37.361557,37.45274,81,63,0
37.45274,37.543926,80,62,0
37.543926,37.63429,78,70,0
37.63429,37.72465,80,65,0
37.72465,37.818226,78,65,0
37.818226,37.918224,76,62,0
37.918224,38.03587,74,67,0
38.03587,38.15352,73,58,0
38.15352,38.271164,74,58,0
38.271164,38.391647,80,63,0
38.391647,38.51213,79,61,0
38.51213,38.64591,80,65,0
38.64591,39.284206,83,70,0
39.284206,39.375393,81,59,0
39.375393,39.65317,80,68,0
39.65317,39.74576,81,57,0
39.74576,40.047165,80,67,0
40.047165,40.169613,78,58,0
40.169613,40.94287,73,53,0
40.169613,40.94287,77,63,0
40.966957,41.624214,77,56,0
40.966957,41.733086,73,47,0
41.644375,41.74115,77,46,0
41.74115,42.02961,78,52,0
41.74115,42.114548,73,46,0
42.02961,42.125767,77,49,0
42.125767,42.43043,78,51,0
42.125767,42.529682,73,46,0
42.43043,42.542793,77,49,0
42.542793,43.298473,76,51,0
42.542793,43.298473,74,51,0
42.542793,43.298473,80,61,0
43.32201,43.991367,76,51,0
43.32201,43.991367,80,61,0
43.32201,43.991367,74,51,0
43.99943,44.096207,76,50,0
44.096207,44.384666,78,57,0
44.096207,44.4688,74,50,0
44.384666,44.48082,76,53,0
44.48082,44.78549,78,56,0
44.48082,44.8838,74,50,0
44.78549,44.897846,80,53,0
44.897846,45.653526,73,51,0
44.897846,45.653526,81,61,0
44.897846,45.653526,69,51,0
45.677067,46.35077,81,61,0
45.677067,46.35077,69,51,0
45.677067,46.35077,73,51,0
46.358883,46.407272,57,70,0
46.455658,46.552433,57,76,0
46.742374,46.78896,57,70,0
46.835545,46.927284,55,75,0
47.12212,47.173668,57,70,0
47.225216,47.985836,52,68,0
47.225216,47.985836,55,68,0
47.225216,47.985836,61,80,0
47.225216,48.00953,58,68,0
48.00953,48.666786,58,68,0
48.00953,48.666786,52,68,0
48.00953,48.666786,55,68,0
48.00953,48.666786,61,80,0
48.686947,48.735336,69,70,0
48.783722,48.877182,69,76,0
49.064095,49.110825,69,70,0
49.157555,49.24902,67,75,0
49.443573,49.49512,69,70,0
49.546665,50.30729,65,68,0
49.546665,50.30729,74,80,0
49.546665,50.30729,62,68,0
49.546665,50.330982,70,68,0
50.330982,50.98824,65,68,0
50.330982,50.98824,70,68,0
50.330982,50.98824,62,68,0
50.330982,50.98824,74,80,0
51.0084,51.05679,77,70,0
51.0084,51.05679,74,59,0
51.105175,51.199512,74,64,0
51.105175,51.199512,77,76,0
51.388195,51.435364,77,70,0
51.388195,51.435364,74,59,0
51.482533,51.57456,76,75,0
51.482533,51.57456,73,63,0
51.76592,51.81559,74,59,0
51.76592,51.81559,77,70,0
51.865257,51.9593,74,76,0
51.865257,51.9593,70,64,0
52.14739,52.194412,70,59,0
52.14739,52.194412,74,70,0
52.241432,52.333458,73,75,0
52.241432,52.333458,69,63,0
52.52482,52.57449,70,59,0
52.52482,52.57449,74,70,0
52.623966,52.7186,67,64,0
52.623966,52.7186,70,76,0
52.90788,52.955196,70,70,0
52.90788,52.955196,67,59,0
53.002514,53.094822,66,63,0
53.002514,53.094822,69,75,0
53.28861,53.338947,70,70,0
53.28861,53.338947,67,59,0
53.389282,54.149902,67,80,0
53.389282,54.173595,63,68,0
54.173595,54.96791,71,74,0
54.173595,54.96791,75,74,0
54.173595,54.96791,67,74,0
54.173595,54.96791,79,88,0
54.976273,55.77325,72,74,0
54.976273,55.77325,75,74,0
54.976273,55.77325,67,74,0
54.976273,55.77325,79,88,0
55.781643,55.884735,74,74,0
55.781643,55.884735,77,88,0
55.781643,55.884735,65,74,0
56.19401,56.303104,75,74,0
56.19401,56.303104,69,74,0
56.19401,56.303104,72,74,0
56.19401,56.303104,81,88,0
56.630375,57.469597,82,101,0
56.630375,57.469597,70,85,0
56.630375,57.469597,74,85,0
57.47843,58.26511,70,88,0
57.47843,58.26511,62,74,0
57.47843,58.26511,58,74,0
58.28924,58.33763,77,56,0
58.28924,58.33763,74,47,0
58.386017,58.480354,77,60,0
58.386017,58.480354,74,51,0
58.669037,58.716206,77,56,0
58.669037,58.716206,74,47,0
58.763374,58.8554,76,60,0
58.763374,58.8554,73,50,0
59.058125,59.113476,77,56,0
59.058125,59.113476,74,47,0
59.168827,60.037983,74,60,0
59.168827,60.037983,70,51,0
60.037983,60.750393,74,60,0
60.037983,60.750393,70,51,0
60.772247,60.820633,74,56,0
60.772247,60.820633,70,47,0
60.869022,60.96336,74,60,0
60.869022,60.96336,70,51,0
61.15204,61.199207,74,56,0
61.15204,61.199207,70,47,0
61.24638,61.3384,73,60,0
61.24638,61.3384,69,50,0
61.54113,61.596478,74,56,0
61.54113,61.596478,70,47,0
61.65183,62.520985,77,60,0
61.65183,62.520985,74,51,0
62.520985,63.2334,75,60,0
62.520985,63.2334,72,51,0
63.25525,63.30364,75,56,0
63.25525,63.30364,72,47,0
63.25525,63.30364,77,47,0
63.352024,63.446365,75,60,0
63.352024,63.446365,72,51,0
63.352024,63.446365,77,51,0
63.635044,63.682213,75,56,0
63.635044,63.682213,72,47,0
63.635044,63.682213,77,47,0
63.72938,63.821407,74,60,0
63.72938,63.821407,71,50,0
63.72938,63.821407,77,50,0
64.02413,64.07948,75,56,0
64.02413,64.07948,72,47,0
64.02413,64.07948,77,56,0
64.134834,64.97019,77,60,0
64.134834,64.97019,72,51,0
64.134834,64.97019,69,51,0
64.97843,65.69085,77,60,0
64.97843,65.69085,72,51,0
64.97843,65.69085,69,51,0
65.7127,65.761086,72,56,0
65.7127,65.761086,69,47,0
65.7127,65.761086,77,47,0
65.80947,65.90382,72,60,0
65.80947,65.90382,69,51,0
65.80947,65.90382,77,51,0
66.09249,66.13966,77,47,0
66.09249,66.13966,72,56,0
66.09249,66.13966,69,47,0
66.18683,66.278854,77,50,0
66.18683,66.278854,71,60,0
66.18683,66.278854,68,50,0
66.49854,66.56237,77,56,0
66.49854,66.56237,72,56,0
66.49854,66.56237,69,47,0
66.6262,67.53107,73,45,0
66.6262,67.532036,69,45,0
66.6262,67.532036,77,54,0
67.54076,68.25317,74,45,0
67.54076,68.25317,77,54,0
67.54076,68.25317,70,45,0
68.27502,68.3234,74,47,0
68.27502,68.3234,77,56,0
68.27502,68.3234,70,47,0
68.371796,68.46613,77,60,0
68.371796,68.46613,74,51,0
68.371796,68.46613,70,51,0
68.65481,68.70198,77,57,0
68.65481,68.70198,74,48,0
68.65481,68.70198,70,48,0
68.74915,68.84118,70,52,0
68.74915,68.84118,76,63,0
68.74915,68.84118,74,52,0
69.0439,69.09925,70,50,0
69.0439,69.09925,77,60,0
69.0439,69.09925,74,50,0
69.1546,70.01504,74,56,0
69.1546,70.01504,79,66,0
69.1546,70.01504,70,56,0
70.02376,70.730156,79,66,0
70.02376,70.730156,70,56,0
70.02376,70.730156,74,56,0
70.75156,70.79994,79,61,0
70.75156,70.79994,70,51,0
70.75156,70.79994,74,51,0
70.84833,70.94267,74,56,0
70.84833,70.94267,79,66,0
70.84833,70.94267,70,56,0
71.13135,71.17852,74,50,0
71.13135,71.17852,82,60,0
71.13135,71.17852,70,50,0
71.22569,71.31771,74,54,0
71.22569,71.31771,81,64,0
71.22569,71.31771,70,54,0
71.52044,71.57579,70,49,0
71.52044,71.57579,79,59,0
71.52044,71.57579,74,49,0
71.63114,72.49158,74,51,0
71.63114,72.49158,77,60,0
71.63114,72.49158,70,51,0
72.5003,73.21271,77,60,0
72.5003,73.21271,74,51,0
72.5003,73.21271,70,60,0
73.23456,73.28295,74,56,0
73.23456,73.28295,70,47,0
73.23456,73.28295,77,47,0
73.33134,73.425674,74,60,0
73.33134,73.425674,70,51,0
73.33134,73.425674,77,51,0
73.61436,73.66152,77,47,0
73.61436,73.66152,74,56,0
73.61436,73.66152,70,47,0
73.708694,73.80072,79,50,0
73.708694,73.80072,75,60,0
73.708694,73.80072,70,50,0
74.00344,74.05879,70,47,0
74.00344,74.05879,77,56,0
74.00344,74.05879,74,56,0
74.11414,74.9833,72,51,0
74.11414,74.9833,77,60,0
74.11414,74.9833,69,51,0
74.9833,75.69571,72,48,0
74.9833,75.69571,75,57,0
74.9833,75.69571,69,48,0
75.71757,75.767235,72,53,0
75.71757,75.767235,75,44,0
75.71757,75.767235,65,44,0
75.8169,75.91337,72,57,0
75.8169,75.91337,65,48,0
75.8169,75.91337,75,48,0
76.10629,76.154526,75,44,0
76.10629,76.154526,65,44,0
76.10629,76.154526,72,53,0
76.20276,76.2971,65,47,0
76.20276,76.2971,71,57,0
76.20276,76.2971,74,47,0
76.5191,76.582924,65,44,0
76.5191,76.582924,69,53,0
76.5191,76.582924,72,53,0
76.64675,77.56131,70,48,0
76.64675,77.56131,62,40,0
76.64675,77.56131,65,40,0
77.56131,78.27372,70,48,0
77.56131,78.27372,65,40,0
77.56131,78.27372,62,40,0
78.29557,78.34591,75,39,0
78.29557,78.34591,72,47,0
78.29557,78.34591,65,39,0
78.39624,78.494286,75,43,0
78.39624,78.494286,72,51,0
78.39624,78.494286,65,43,0
78.69036,78.73938,65,39,0
78.69036,78.73938,75,39,0
78.69036,78.73938,72,47,0
78.7884,78.88455,65,42,0
78.7884,78.88455,70,51,0
78.7884,78.88455,74,42,0
79.10837,79.172195,65,39,0
79.10837,79.172195,69,47,0
79.10837,79.172195,72,47,0
79.23603,80.15058,62,38,0
79.23603,80.15058,70,45,0
79.23603,80.15058,65,38,0
80.15058,80.86299,62,38,0
80.15058,80.86299,65,38,0
80.15058,80.86299,70,45,0
80.88485,80.93675,72,42,0
80.88485,80.93675,65,35,0
80.88485,80.93675,75,35,0
80.988655,81.089325,72,45,0
80.988655,81.089325,65,38,0
80.988655,81.089325,75,38,0
81.290665,81.341,72,41,0
81.290665,81.341,65,34,0
81.290665,81.341,75,34,0
81.391335,81.4897,70,44,0
81.391335,81.4897,65,36,0
81.391335,81.4897,74,36,0
81.71572,81.77955,69,39,0
81.71572,81.77955,65,33,0
81.71572,81.77955,72,39,0
81.843376,82.17109,70,37,0
81.843376,82.17109,65,31,0
81.843376,82.17109,62,31,0
82.18046,82.22884,46,70,0
82.27723,82.37401,46,76,0
82.56395,82.61053,46,70,0
82.65711,82.748856,46,75,0
82.93406,82.98079,48,70,0
83.02752,83.3144,50,75,0
83.3226,83.37099,62,70,0
83.3226,83.37099,50,59,0
83.41937,83.51614,62,76,0
83.41937,83.51614,50,64,0
83.70609,83.75267,62,70,0
83.70609,83.75267,50,59,0
83.799255,83.891,62,75,0
83.799255,83.891,50,63,0
84.07708,84.12425,64,70,0
84.07708,84.12425,52,59,0
84.171425,84.458305,65,82,0
84.171425,84.46651,53,69,0
84.46651,84.51489,53,77,0
84.56328,84.66005,53,83,0
84.84999,84.896576,53,77,0
84.94316,85.034904,53,82,0
85.220985,85.26816,55,77,0
85.31533,85.60221,57,90,0
85.61041,85.6588,69,71,0
85.61041,85.6588,57,60,0
85.707184,85.803955,69,78,0
85.707184,85.803955,57,65,0
85.9939,86.04048,71,73,0
85.9939,86.04048,59,61,0
86.08707,86.17881,73,79,0
86.08707,86.17881,61,66,0
86.36489,86.41206,74,76,0
86.36489,86.41206,62,64,0
86.459236,87.21491,76,83,0
86.459236,87.21491,69,70,0
86.459236,87.21491,64,70,0
86.459236,87.23845,73,70,0
87.23845,87.89571,69,70,0
87.23845,87.89571,76,83,0
87.23845,87.89571,73,70,0
87.23845,87.89571,64,70,0
87.91587,88.007805,76,73,0
87.91587,88.007805,68,58,0
87.91587,88.007805,74,58,0
88.01265,88.27777,76,82,0
88.01265,88.28494,74,66,0
88.01265,88.28494,68,66,0
88.29927,88.39004,74,63,0
88.29927,88.39004,68,63,0
88.29927,88.39004,76,80,0
88.39481,88.678535,74,67,0
88.39481,88.678535,68,67,0
88.39481,88.678535,78,85,0
88.69552,88.80873,80,83,0
88.69552,88.80873,74,65,0
88.69552,88.80873,68,65,0
88.80873,89.561966,81,93,0
88.80873,89.561966,73,78,0
88.80873,89.561966,69,78,0
89.58543,90.248856,81,93,0
89.58543,90.248856,69,78,0
89.58543,90.248856,73,78,0
90.26504,90.31343,61,56,0
90.26504,90.31343,55,47,0
90.26504,90.31343,57,47,0
90.36182,90.457054,57,51,0
90.36182,90.457054,55,51,0
90.36182,90.457054,62,60,0
90.64753,90.695145,61,56,0
90.64753,90.695145,57,47,0
90.64753,90.695145,55,47,0
90.74277,90.83594,62,60,0
90.74277,90.83594,57,50,0
90.74277,90.83594,55,50,0
91.032196,91.08374,64,56,0
91.032196,91.08374,55,47,0
91.032196,91.08374,57,47,0
91.135284,91.89591,54,54,0
91.135284,91.89591,57,64,0
91.9196,92.57686,66,64,0
91.9196,92.57686,57,54,0
92.59702,92.693794,57,53,0
92.59702,92.693794,66,53,0
92.693794,92.78995,67,60,0
92.693794,92.78995,55,60,0
92.982254,93.07841,66,56,0
92.982254,93.07841,55,56,0
93.07841,93.172455,56,59,0
93.07841,93.172455,64,59,0
93.37559,93.48468,62,56,0
93.37559,93.48468,56,56,0
93.48468,94.240364,69,64,0
93.48468,94.240364,57,54,0
93.48468,94.240364,61,54,0
94.2639,94.92116,64,64,0
94.2639,94.92116,61,54,0
94.94132,94.98971,69,53,0
94.98971,95.03809,73,53,0
94.94132,95.03809,64,53,0
95.03809,95.13364,71,60,0
95.03809,95.13364,64,60,0
95.32472,95.42026,69,56,0
95.32472,95.42026,64,56,0
95.42026,95.5146,71,59,0
95.42026,95.5146,64,59,0
95.7213,95.83366,73,56,0
95.7213,95.83366,64,56,0
95.83366,96.58934,74,64,0
95.83366,96.58934,66,54,0
95.83366,96.58934,62,54,0
96.61288,97.270134,62,54,0
96.61288,97.270134,66,64,0
97.2903,97.338684,66,53,0
97.338684,97.38707,69,53,0
97.2903,97.38707,62,53,0
97.38707,97.48322,68,60,0
97.38707,97.48322,62,60,0
97.67554,97.77169,66,56,0
97.67554,97.77169,62,56,0
97.77169,97.86573,68,59,0
97.77169,97.86573,62,59,0
98.072136,98.184494,64,56,0
98.072136,98.184494,62,56,0
98.184494,98.96292,71,64,0
98.184494,98.96292,61,54,0
98.98717,99.7533,61,54,0
98.98717,99.7533,69,64,0
99.76137,100.1312,69,67,0
99.76137,100.1312,66,56,0
99.76137,100.1312,62,56,0
100.14232,100.516914,70,63,0
100.14232,100.516914,66,53,0
100.14232,100.516914,62,53,0
100.52817,101.25228,71,60,0
100.52817,101.25228,67,51,0
100.52817,101.25228,62,51,0
101.25228,101.606384,76,67,0
101.25228,101.606384,71,56,0
101.25228,101.606384,67,56,0
101.61702,101.79939,79,74,0
101.61702,101.79939,76,62,0
101.61702,101.79939,71,62,0
101.98176,102.16413,71,53,0
101.98176,102.16413,67,53,0
101.98176,102.17173,76,63,0
102.346504,102.52723,67,58,0
102.346504,102.52723,64,49,0
102.346504,102.52723,61,49,0
102.7208,103.44601,69,65,0
102.7208,103.44601,66,55,0
102.7208,103.44601,61,55,0
103.44601,103.80011,74,70,0
103.44601,103.80011,69,59,0
103.44601,103.80011,66,59,0
103.810745,103.99312,78,71,0
103.810745,103.99312,74,59,0
103.810745,103.99312,69,59,0
104.17549,104.357864,74,60,0
104.17549,104.357864,69,51,0
104.17549,104.357864,66,51,0
104.54023,104.720955,66,56,0
104.54023,104.720955,62,47,0
104.54023,104.720955,59,47,0
104.91453,105.64221,59,56,0
104.91453,105.64221,67,67,0
104.91453,105.64221,64,56,0
105.64221,105.996315,64,57,0
105.64221,105.996315,73,68,0
105.64221,105.996315,67,57,0
106.00696,106.18933,73,70,0
106.00696,106.18933,67,59,0
106.00696,106.18933,76,70,0
106.3717,106.556885,67,55,0
106.3717,106.556885,73,65,0
106.3717,106.556885,64,55,0
106.742065,106.93751,68,59,0
106.742065,106.93751,71,59,0
106.742065,106.93751,61,50,0
107.16592,107.93918,70,65,0
107.16592,107.93918,61,55,0
107.16592,107.963264,66,55,0
107.963264,108.62052,70,60,0
107.963264,108.62052,61,51,0
107.963264,108.62052,66,51,0
108.64068,108.68907,66,60,0
108.64068,108.68907,73,71,0
108.73746,108.83423,66,65,0
108.73746,108.83423,75,78,0
109.02417,109.070755,66,61,0
109.02417,109.070755,73,73,0
109.11734,109.20908,75,79,0
109.11734,109.20908,66,66,0
109.395164,109.44234,66,64,0
109.395164,109.44234,73,76,0
109.4895,110.245186,65,70,0
109.4895,110.245186,77,83,0
109.4895,110.26872,71,70,0
110.26872,110.92598,71,70,0
110.26872,110.92598,65,70,0
110.26872,110.92598,77,83,0
110.946144,111.03808,77,73,0
110.946144,111.03808,65,58,0
110.946144,111.03808,73,58,0
111.042915,111.30725,77,82,0
111.042915,111.31521,73,66,0
111.042915,111.31521,65,66,0
111.329544,111.42031,65,63,0
111.329544,111.42031,77,80,0
111.329544,111.42031,73,63,0
111.42509,111.70881,65,67,0
111.42509,111.70881,77,85,0
111.42509,111.70881,73,67,0
111.72579,111.839,73,65,0
111.72579,111.839,65,65,0
111.72579,111.839,77,83,0
111.839,112.59224,66,78,0
111.839,112.59224,78,93,0
111.839,112.59224,70,78,0
112.6157,113.27913,66,78,0
112.6157,113.27913,78,93,0
112.6157,113.27913,70,78,0
113.29531,113.3437,69,47,0
113.29531,113.3437,67,47,0
113.29531,113.3437,73,56,0
113.39209,113.66907,67,51,0
113.39209,113.66907,69,51,0
113.39209,113.66907,73,60,0
113.6778,113.72542,73,56,0
113.6778,113.72542,69,47,0
113.6778,113.72542,67,47,0
113.761925,114.04099,69,50,0
113.761925,114.04099,74,60,0
113.761925,114.04099,67,50,0
114.06247,114.11401,76,56,0
114.06247,114.11401,67,47,0
114.06247,114.11401,69,47,0
114.16556,114.92618,66,54,0
114.16556,114.92618,69,64,0
114.949875,115.60713,69,54,0
114.949875,115.60713,66,54,0
114.949875,115.60713,78,64,0
115.6273,115.72084,78,53,0
115.6273,115.72165,66,53,0
115.72407,115.82022,66,60,0
115.72407,115.82022,78,60,0
116.00131,116.09426,66,56,0
116.00131,116.09426,78,56,0
116.10868,116.20273,68,59,0
116.10868,116.20273,76,59,0
116.40586,116.51495,74,56,0
116.40586,116.51495,68,56,0
116.51495,117.27064,73,64,0
116.51495,117.27064,69,54,0
117.294174,117.95143,69,54,0
117.294174,117.95143,76,64,0
117.971596,118.06595,70,53,0
117.971596,118.06595,76,53,0
118.06837,118.16391,76,60,0
118.06837,118.16391,70,60,0
118.34384,118.4362,76,56,0
118.34384,118.4362,70,56,0
118.45053,118.54487,70,59,0
118.45053,118.54487,74,59,0
118.75157,118.86393,73,56,0
118.75157,118.86393,70,56,0
118.86393,119.61961,71,64,0
119.64315,120.30041,67,54,0
119.64315,120.30041,74,64,0
120.32057,120.41734,61,53,0
120.32057,120.41734,71,53,0
120.32057,120.41734,67,53,0
120.41734,120.5135,67,60,0
120.41734,120.5135,61,60,0
120.41734,120.5135,71,60,0
120.7058,120.801956,67,56,0
120.7058,120.801956,61,56,0
120.7058,120.801956,71,56,0
120.801956,120.896,69,59,0
120.801956,120.896,66,59,0
120.801956,120.896,61,59,0
121.10241,121.21477,64,56,0
121.10241,121.21477,67,56,0
121.10241,121.21477,61,56,0
121.21477,121.993195,67,64,0
121.21477,121.993195,57,54,0
121.21477,122.01744,64,54,0
122.01744,122.78357,66,64,0
122.01744,122.78357,62,54,0
122.01744,122.78357,57,54,0
122.79163,123.15354,66,56,0
122.79163,123.15354,69,67,0
122.79163,123.15354,62,56,0
123.17259,123.55844,70,63,0
123.17259,123.55844,66,53,0
123.17259,123.55844,62,53,0
123.55844,124.28255,71,60,0
123.55844,124.28255,67,51,0
123.55844,124.28255,62,51,0
124.28255,124.63665,67,56,0
124.28255,124.63665,76,67,0
124.28255,124.63665,71,56,0
124.64729,124.829666,71,58,0
124.64729,124.829666,79,70,0
124.64729,124.829666,76,58,0
125.01203,125.194405,67,53,0
125.01203,125.194405,71,53,0
125.01203,125.202,76,63,0
125.37678,125.557495,67,58,0
125.37678,125.557495,64,49,0
125.751076,126.47628,73,65,0
125.751076,126.47628,69,55,0
125.751076,126.47628,64,55,0
126.47628,126.83038,69,59,0
126.47628,126.83038,78,70,0
126.47628,126.83038,73,59,0
126.84102,127.02339,78,59,0
126.84102,127.02339,81,71,0
126.84102,127.02339,73,59,0
127.205765,127.38814,73,51,0
127.205765,127.38814,78,60,0
127.205765,127.38814,69,51,0
127.5705,127.75123,69,56,0
127.5705,127.75123,66,47,0
127.9448,128.67249,66,56,0
127.9448,128.67249,74,67,0
127.9448,128.67249,71,56,0
128.67249,129.0266,71,63,0
128.67249,129.0266,79,74,0
128.67249,129.0266,74,63,0
129.03723,129.2196,79,74,0
129.03723,129.2196,83,74,0
129.03723,129.2196,74,63,0
129.40198,129.58716,74,60,0
129.40198,129.58716,79,71,0
129.40198,129.58716,71,60,0
129.77234,129.96777,71,75,0
129.77234,129.96777,67,68,0
130.1962,130.96945,81,78,0
130.1962,130.96945,69,66,0
130.1962,130.96945,73,66,0
130.1962,130.99353,79,66,0
130.99353,131.65079,79,61,0
130.99353,131.65079,73,61,0
130.99353,131.65079,81,72,0
130.99353,131.65079,69,61,0
131.67096,131.7629,81,73,0
131.67096,131.7629,73,58,0
131.67096,131.7629,79,58,0
131.76773,132.03285,81,82,0
131.76773,132.04002,73,66,0
131.76773,132.04002,79,66,0
132.05435,132.14511,73,63,0
132.05435,132.14511,81,80,0
132.05435,132.14511,79,63,0
132.14989,132.43362,79,67,0
132.14989,132.43362,73,67,0
132.14989,132.43362,83,85,0
132.4506,132.56381,79,65,0
132.4506,132.56381,73,65,0
132.4506,132.56381,85,83,0
132.56381,133.31705,86,93,0
132.56381,133.31705,78,78,0
132.56381,133.31705,74,78,0
133.34052,134.00394,78,78,0
133.34052,134.00394,86,93,0
133.34052,134.00394,74,78,0
134.02013,134.06851,66,47,0
134.02013,134.06851,69,56,0
134.1169,134.39388,69,60,0
134.1169,134.39388,66,51,0
134.4026,134.45023,69,56,0
134.4026,134.45023,66,47,0
134.49785,134.77783,64,50,0
134.49785,134.77783,67,60,0
134.78728,134.83882,62,47,0
134.78728,134.83882,66,56,0
134.89037,135.65099,64,64,0
134.89037,135.65099,57,54,0
135.67468,136.33818,64,64,0
135.67468,136.33818,57,54,0
136.35881,136.40831,67,41,0
136.35881,136.40831,71,50,0
136.45782,136.74019,69,53,0
136.45782,136.74019,66,44,0
136.74908,136.79762,64,39,0
136.74908,136.79762,67,47,0
136.84618,137.14925,66,50,0
136.84618,137.14925,62,41,0
137.16043,137.2214,57,36,0
137.16043,137.2214,64,44,0
137.28238,138.09619,62,46,0
137.28238,138.09619,54,39,0
138.12154,138.82901,62,44,0
138.12154,138.82901,54,37,0
138.85071,138.8991,57,70,0
138.94748,139.04425,57,76,0
139.23277,139.27864,57,70,0
139.32451,139.41487,55,75,0
139.60834,139.65988,57,70,0
139.71143,140.47205,52,68,0
139.71143,140.47205,61,80,0
139.71143,140.47205,55,68,0
139.71143,140.49574,58,68,0
140.49574,141.153,52,68,0
140.49574,141.153,55,68,0
140.49574,141.153,61,80,0
140.49574,141.153,58,68,0
141.17316,141.22154,69,70,0
141.26993,141.36339,69,76,0
141.55031,141.59703,69,70,0
141.64377,141.7344,67,75,0
141.92813,141.97968,69,70,0
142.03122,142.79184,65,68,0
142.03122,142.79184,74,80,0
142.03122,142.79184,62,68,0
142.03122,142.81554,70,68,0
142.81554,143.4728,65,68,0
142.81554,143.4728,70,68,0
142.81554,143.4728,74,80,0
142.81554,143.4728,62,68,0
143.49295,143.54134,77,70,0
143.49295,143.54134,74,59,0
143.58972,143.68407,77,76,0
143.58972,143.68407,74,64,0
143.87274,143.91992,74,59,0
143.87274,143.91992,77,70,0
143.96709,144.05855,76,75,0
143.96709,144.05855,73,63,0
144.24934,144.29901,77,70,0
144.24934,144.29901,74,59,0
144.3487,144.44273,74,76,0
144.3487,144.44273,70,64,0
144.63081,144.67784,70,59,0
144.63081,144.67784,74,70,0
144.72487,144.81606,69,63,0
144.72487,144.81606,73,75,0
145.00658,145.05624,70,59,0
145.00658,145.05624,74,70,0
145.10571,145.20035,67,64,0
145.10571,145.20035,70,76,0
145.38963,145.43695,70,70,0
145.38963,145.43695,67,59,0
145.48427,145.57657,66,63,0
145.48427,145.57657,69,75,0
145.77036,145.8207,67,59,0
145.77036,145.8207,70,70,0
145.87103,146.63165,67,80,0
145.87103,146.65535,63,68,0
146.65535,147.44966,71,74,0
146.65535,147.44966,67,74,0
146.65535,147.44966,75,74,0
146.65535,147.44966,79,88,0
147.45802,148.255,72,74,0
147.45802,148.255,75,74,0
147.45802,148.255,79,88,0
147.45802,148.255,67,74,0
148.2634,148.36649,65,74,0
148.2634,148.36649,77,88,0
148.2634,148.36649,74,74,0
148.67577,148.78485,81,88,0
148.67577,148.78485,72,74,0
148.67577,148.78485,69,74,0
148.67577,148.78485,75,74,0
149.11212,149.95135,82,101,0
149.11212,149.95135,70,85,0
149.11212,149.95135,74,85,0
149.96019,150.74686,70,88,0
149.96019,150.74686,62,74,0
149.96019,150.74686,58,74,0
150.771,150.81938,77,56,0
150.771,150.81938,74,47,0
150.86777,150.96211,77,60,0
150.86777,150.96211,74,51,0
151.15079,151.19795,77,56,0
151.15079,151.19795,74,47,0
151.24513,151.33716,76,60,0
151.24513,151.33716,73,50,0
151.53987,151.59523,77,56,0
151.53987,151.59523,74,47,0
151.65057,152.51973,74,60,0
151.65057,152.51973,70,51,0
152.51973,153.23215,74,60,0
152.51973,153.23215,70,51,0
153.254,153.30238,74,56,0
153.254,153.30238,70,47,0
153.35077,153.44511,74,60,0
153.35077,153.44511,70,51,0
153.63379,153.68095,74,56,0
153.63379,153.68095,70,47,0
153.72813,153.82016,73,60,0
153.72813,153.82016,69,50,0
154.02802,154.08592,74,56,0
154.02802,154.08592,70,47,0
154.14384,155.013,77,60,0
154.14384,155.013,74,51,0
155.013,155.7254,75,60,0
155.013,155.7254,72,51,0
155.74725,155.79565,75,56,0
155.74725,155.79565,72,47,0
155.74725,155.79565,77,47,0
155.84404,155.93692,75,60,0
155.84404,155.93692,72,51,0
155.84404,155.93692,77,51,0
156.12267,156.16911,75,56,0
156.12267,156.16911,72,47,0
156.12267,156.16911,77,47,0
156.21555,156.30618,74,60,0
156.21555,156.30618,71,50,0
156.21555,156.30618,77,50,0
156.50752,156.56287,75,56,0
156.50752,156.56287,72,47,0
156.50752,156.56287,77,56,0
156.61823,157.45358,77,60,0
156.61823,157.45358,72,51,0
156.61823,157.45358,69,51,0
157.46182,158.17424,77,60,0
157.46182,158.17424,72,51,0
157.46182,158.17424,69,51,0
158.19609,158.24448,72,56,0
158.19609,158.24448,69,47,0
158.19609,158.24448,77,47,0
158.29286,158.3872,72,60,0
158.29286,158.3872,77,51,0
158.29286,158.3872,69,51,0
158.57588,158.62305,69,47,0
158.57588,158.62305,77,47,0
158.57588,158.62305,72,56,0
158.67023,158.76224,68,50,0
158.67023,158.76224,77,50,0
158.67023,158.76224,71,60,0
158.98941,159.05698,69,47,0
158.98941,159.05698,77,56,0
158.98941,159.05698,72,56,0
159.12454,160.02328,73,45,0
159.12454,160.02426,77,54,0
159.12454,160.02426,69,45,0
160.03308,160.7455,77,54,0
160.03308,160.7455,74,45,0
160.03308,160.7455,70,45,0
160.76735,160.81573,77,56,0
160.76735,160.81573,70,47,0
160.76735,160.81573,74,47,0
160.86412,160.95847,77,60,0
160.86412,160.95847,70,51,0
160.86412,160.95847,74,51,0
161.14714,161.1943,74,48,0
161.14714,161.1943,70,48,0
161.14714,161.1943,77,57,0
161.24149,161.33351,76,63,0
161.24149,161.33351,74,52,0
161.24149,161.33351,70,52,0
161.53622,161.59158,77,60,0
161.53622,161.59158,74,50,0
161.53622,161.59158,70,50,0
161.64693,162.50737,79,66,0
161.64693,162.50737,74,56,0
161.64693,162.50737,70,56,0
162.51608,163.22249,79,66,0
162.51608,163.22249,74,56,0
162.51608,163.22249,70,56,0
163.24388,163.29228,70,51,0
163.24388,163.29228,74,51,0
163.24388,163.29228,79,61,0
163.34067,163.435,70,56,0
163.34067,163.435,74,56,0
163.34067,163.435,79,66,0
163.62369,163.67085,70,50,0
163.62369,163.67085,74,50,0
163.62369,163.67085,82,60,0
163.71802,163.81004,81,64,0
163.71802,163.81004,70,54,0
163.71802,163.81004,74,54,0
164.01277,164.06812,79,59,0
164.01277,164.06812,70,49,0
164.01277,164.06812,74,49,0
164.12347,164.9839,74,51,0
164.12347,164.9839,70,51,0
164.12347,164.9839,77,60,0
164.99263,165.70503,77,60,0
164.99263,165.70503,70,60,0
164.99263,165.70503,74,51,0
165.7269,165.77528,74,56,0
165.7269,165.77528,70,47,0
165.7269,165.77528,77,47,0
165.82367,165.918,74,60,0
165.82367,165.918,70,51,0
165.82367,165.918,77,51,0
166.10669,166.15385,74,56,0
166.10669,166.15385,70,47,0
166.10669,166.15385,77,47,0
166.20102,166.29305,75,60,0
166.20102,166.29305,70,50,0
166.20102,166.29305,79,50,0
166.49577,166.55112,74,56,0
166.49577,166.55112,70,47,0
166.49577,166.55112,77,56,0
166.60648,167.47563,77,60,0
166.60648,167.47563,72,51,0
166.60648,167.47563,69,51,0
167.47563,168.18805,75,57,0
167.47563,168.18805,72,48,0
167.47563,168.18805,69,48,0
168.2099,168.25957,72,53,0
168.2099,168.25957,65,44,0
168.2099,168.25957,75,44,0
168.30923,168.4057,72,57,0
168.30923,168.4057,65,48,0
168.30923,168.4057,75,48,0
168.59862,168.64685,72,53,0
168.59862,168.64685,65,44,0
168.59862,168.64685,75,44,0
168.69508,168.78943,71,57,0
168.69508,168.78943,65,47,0
168.69508,168.78943,74,47,0
169.01143,169.07526,69,53,0
169.01143,169.07526,65,44,0
169.01143,169.07526,72,53,0
169.13908,170.05363,70,48,0
169.13908,170.05363,65,40,0
169.13908,170.05363,62,40,0
170.05363,170.76605,70,48,0
170.05363,170.76605,65,40,0
170.05363,170.76605,62,40,0
170.7879,170.83824,72,47,0
170.7879,170.83824,65,39,0
170.7879,170.83824,75,39,0
170.88858,170.98662,72,51,0
170.88858,170.98662,65,43,0
170.88858,170.98662,75,43,0
171.1827,171.2317,72,47,0
171.1827,171.2317,65,39,0
171.1827,171.2317,75,39,0
171.28073,171.37689,70,51,0
171.28073,171.37689,65,42,0
171.28073,171.37689,74,42,0
171.6007,171.66452,69,47,0
171.6007,171.66452,65,39,0
171.6007,171.66452,72,47,0
171.72836,172.64291,65,38,0
171.72836,172.64291,70,45,0
171.72836,172.64291,62,38,0
172.64291,173.35532,65,38,0
172.64291,173.35532,70,45,0
172.64291,173.35532,62,38,0
173.37718,173.42908,72,42,0
173.37718,173.42908,75,35,0
173.37718,173.42908,65,35,0
173.48099,173.58165,72,45,0
173.48099,173.58165,65,38,0
173.48099,173.58165,75,38,0
173.78299,173.83333,75,34,0
173.78299,173.83333,72,41,0
173.78299,173.83333,65,34,0
173.88367,173.98203,74,36,0
173.88367,173.98203,70,44,0
173.88367,173.98203,65,36,0
174.20805,174.27188,65,33,0
174.20805,174.27188,72,39,0
174.20805,174.27188,69,39,0
174.33571,174.66342,65,31,0
174.33571,174.66342,70,37,0
174.33571,174.66342,62,31,0
174.67279,174.72118,46,70,0
174.76956,174.86633,46,76,0
175.05513,175.10115,46,70,0
175.14716,175.2378,46,75,0
175.42189,175.46861,48,70,0
175.51535,175.80223,50,75,0
175.81042,175.85881,50,59,0
175.81042,175.85881,62,70,0
175.9072,176.00397,62,76,0
175.9072,176.00397,50,64,0
176.19278,176.23878,50,59,0
176.19278,176.23878,62,70,0
176.28479,176.37543,62,75,0
176.28479,176.37543,50,63,0
176.56041,176.60757,64,70,0
176.56041,176.60757,52,59,0
176.65474,176.94164,65,82,0
176.65474,176.94983,53,69,0
176.94983,176.99821,53,77,0
177.0466,177.14337,53,83,0
177.33246,177.37862,53,77,0
177.42476,177.5154,53,82,0
177.70038,177.74754,55,77,0
177.79471,178.0816,57,90,0
178.0898,178.13818,57,60,0
178.0898,178.13818,69,71,0
178.18657,178.28334,69,78,0
178.18657,178.28334,57,65,0
178.47328,178.51987,71,73,0
178.47328,178.51987,59,61,0
178.56645,178.65709,61,66,0
178.56645,178.65709,73,79,0
178.84206,178.88924,74,76,0
178.84206,178.88924,62,64,0
178.9364,179.69208,64,70,0
178.9364,179.69208,69,70,0
178.9364,179.69208,76,83,0
178.9364,179.71562,73,70,0
179.71562,180.37288,76,83,0
179.71562,180.37288,73,70,0
179.71562,180.37288,64,70,0
179.71562,180.37288,69,70,0
180.39304,180.48497,68,58,0
180.39304,180.48497,76,73,0
180.39304,180.48497,74,58,0
180.48982,180.74916,76,82,0
180.48982,180.75616,68,66,0
180.48982,180.75616,74,66,0
180.77019,180.85898,68,63,0
180.77019,180.85898,76,80,0
180.77019,180.85898,74,63,0
180.86365,181.14224,74,67,0
180.86365,181.14224,78,85,0
180.86365,181.14224,68,67,0
181.15923,181.27243,74,65,0
181.15923,181.27243,80,83,0
181.15923,181.27243,68,65,0
181.27243,182.02567,81,93,0
181.27243,182.02567,73,78,0
181.27243,182.02567,69,78,0
182.04913,182.71257,81,93,0
182.04913,182.71257,73,78,0
182.04913,182.71257,69,78,0
182.72874,182.77713,55,47,0
182.72874,182.77713,61,56,0
182.72874,182.77713,57,47,0
182.82552,182.91927,55,51,0
182.82552,182.91927,62,60,0
182.82552,182.91927,57,51,0
183.10677,183.15364,55,47,0
183.10677,183.15364,61,56,0
183.10677,183.15364,57,47,0
183.20052,183.29227,62,60,0
183.20052,183.29227,57,50,0
183.20052,183.29227,55,50,0
183.4871,183.53865,64,56,0
183.4871,183.53865,57,47,0
183.4871,183.53865,55,47,0
183.5902,184.35081,54,54,0
183.5902,184.35081,57,64,0
184.37451,185.03177,66,64,0
184.37451,185.03177,57,54,0
185.05193,185.1487,66,53,0
185.05193,185.1487,57,53,0
185.1487,185.24486,55,60,0
185.1487,185.24486,67,60,0
185.43716,185.53331,66,56,0
185.43716,185.53331,55,56,0
185.53331,185.62737,56,59,0
185.53331,185.62737,64,59,0
185.83049,185.93959,62,56,0
185.83049,185.93959,56,56,0
185.93959,186.69527,57,54,0
185.93959,186.69527,69,64,0
185.93959,186.69527,61,54,0
186.71881,187.37607,64,64,0
186.71881,187.37607,61,54,0
187.39622,187.44461,69,53,0
187.44461,187.493,73,53,0
187.39622,187.493,64,53,0
187.493,187.58855,71,60,0
187.493,187.58855,64,60,0
187.77962,187.87517,69,56,0
187.77962,187.87517,64,56,0
187.87517,187.9695,71,59,0
187.87517,187.9695,64,59,0
188.17621,188.28856,73,56,0
188.17621,188.28856,64,56,0
188.28856,189.04425,74,64,0
188.28856,189.04425,66,54,0
188.28856,189.04425,62,54,0
189.06778,189.72504,62,54,0
189.06778,189.72504,66,64,0
189.74521,189.7936,66,53,0
189.7936,189.84198,69,53,0
189.74521,189.84198,62,53,0
189.84198,189.93813,68,60,0
189.84198,189.93813,62,60,0
190.13043,190.2266,66,56,0
190.13043,190.2266,62,56,0
190.2266,190.32063,68,59,0
190.2266,190.32063,62,59,0
190.53052,190.64635,64,56,0
190.53052,190.64635,62,56,0
190.64635,191.42477,71,64,0
190.64635,191.42477,61,54,0
191.44902,192.21515,61,54,0
191.44902,192.21515,69,64,0
192.2232,192.58511,69,67,0
192.2232,192.58511,66,56,0
192.2232,192.58511,62,56,0
192.60416,192.97876,70,63,0
192.60416,192.97876,66,53,0
192.60416,192.97876,62,53,0
192.99002,193.71103,71,60,0
192.99002,193.71103,67,51,0
192.99002,193.71103,62,51,0
193.71103,194.06514,76,67,0
193.71103,194.06514,71,56,0
193.71103,194.06514,67,56,0
194.07578,194.25815,79,68,0
194.07578,194.25815,76,57,0
194.07578,194.25815,71,57,0
194.44052,194.6229,71,53,0
194.44052,194.6229,67,53,0
194.44052,194.6305,76,63,0
194.80527,194.986,67,58,0
194.80527,194.986,64,49,0
194.80527,194.986,61,49,0
195.17957,195.89967,69,65,0
195.17957,195.89967,66,55,0
195.17957,195.89967,61,55,0
195.89967,196.25815,74,70,0
195.89967,196.25815,69,59,0
195.89967,196.25815,66,59,0
196.2689,196.45018,78,69,0
196.2689,196.45018,74,58,0
196.2689,196.45018,69,58,0
196.63145,196.81271,66,51,0
196.63145,196.81271,74,60,0
196.63145,196.81271,69,51,0
196.99399,197.17471,59,47,0
196.99399,197.17471,66,56,0
196.99399,197.17471,62,47,0
197.36829,198.09596,59,56,0
197.36829,198.09596,67,67,0
197.36829,198.09596,64,56,0
198.09596,198.45007,64,60,0
198.09596,198.45007,73,71,0
198.09596,198.45007,67,60,0
198.46071,198.64308,73,71,0
198.46071,198.64308,76,71,0
198.46071,198.64308,67,60,0
198.82545,199.01064,67,55,0
198.82545,199.01064,73,65,0
198.82545,199.01064,64,55,0
199.19582,199.39127,71,59,0
199.19582,199.39127,68,59,0
199.19582,199.39127,61,50,0
199.61967,200.39293,70,65,0
199.61967,200.39293,61,55,0
199.61967,200.41702,66,55,0
200.41702,201.07428,66,51,0
200.41702,201.07428,70,60,0
200.41702,201.07428,61,51,0
201.09444,201.14282,66,60,0
201.09444,201.14282,73,71,0
201.19121,201.28798,75,78,0
201.19121,201.28798,66,65,0
201.47707,201.52322,66,61,0
201.47707,201.52322,73,73,0
201.56938,201.65973,75,79,0
201.56938,201.65973,66,66,0
201.84444,201.8916,66,64,0
201.84444,201.8916,73,76,0
201.93878,202.69446,65,70,0
201.93878,202.69446,77,83,0
201.93878,202.718,71,70,0
202.718,203.37526,65,70,0
202.718,203.37526,71,70,0
202.718,203.37526,77,83,0
203.39542,203.48735,77,73,0
203.39542,203.48735,73,58,0
203.39542,203.48735,65,58,0
203.49219,203.75652,77,82,0
203.49219,203.76448,65,66,0
203.49219,203.76448,73,66,0
203.77881,203.86958,65,63,0
203.77881,203.86958,77,80,0
203.77881,203.86958,73,63,0
203.87436,204.15808,65,67,0
203.87436,204.15808,77,85,0
203.87436,204.15808,73,67,0
204.17506,204.28827,73,65,0
204.17506,204.28827,77,83,0
204.17506,204.28827,65,65,0
204.28827,205.0415,70,78,0
204.28827,205.0415,78,93,0
204.28827,205.0415,66,78,0
205.06497,205.72841,70,78,0
205.06497,205.72841,78,93,0
205.06497,205.72841,66,78,0
205.74458,205.79297,73,56,0
205.74458,205.79297,67,47,0
205.74458,205.79297,69,47,0
205.84135,206.11835,73,60,0
205.84135,206.11835,69,51,0
205.84135,206.11835,67,51,0
206.12708,206.1747,67,47,0
206.12708,206.1747,73,56,0
206.12708,206.1747,69,47,0
206.2112,206.49026,67,50,0
206.2112,206.49026,74,60,0
206.2112,206.49026,69,50,0
206.51173,206.56328,69,47,0
206.51173,206.56328,67,47,0
206.51173,206.56328,76,56,0
206.61484,207.37546,69,64,0
206.61484,207.37546,66,54,0
207.39914,208.05641,78,64,0
207.39914,208.05641,69,54,0
207.39914,208.05641,66,54,0
208.07657,208.17012,78,53,0
208.07657,208.17091,66,53,0
208.17334,208.2695,66,60,0
208.17334,208.2695,78,60,0
208.45058,208.54353,66,56,0
208.45058,208.54353,78,56,0
208.55795,208.652,76,59,0
208.55795,208.652,68,59,0
208.85513,208.96422,68,56,0
208.85513,208.96422,74,56,0
208.96422,209.71991,73,64,0
208.96422,209.71991,69,54,0
209.74344,210.4007,69,54,0
209.74344,210.4007,76,64,0
210.42087,210.51521,70,53,0
210.42087,210.51521,76,53,0
210.51764,210.61317,70,60,0
210.51764,210.61317,76,60,0
210.79312,210.88547,70,56,0
210.79312,210.88547,76,56,0
210.89981,210.99414,74,59,0
210.89981,210.99414,70,59,0
211.20084,211.3132,70,56,0
211.20084,211.3132,73,56,0
211.3132,212.06888,71,64,0
212.09242,212.74968,74,64,0
212.09242,212.74968,67,54,0
212.76984,212.86662,67,53,0
212.76984,212.86662,71,53,0
212.76984,212.86662,61,53,0
212.86662,212.96277,61,60,0
212.86662,212.96277,71,60,0
212.86662,212.96277,67,60,0
213.15508,213.25124,61,56,0
213.15508,213.25124,67,56,0
213.15508,213.25124,71,56,0
213.25124,213.34528,69,59,0
213.25124,213.34528,66,59,0
213.25124,213.34528,61,59,0
213.55168,213.66403,67,56,0
213.55168,213.66403,64,56,0
213.55168,213.66403,61,56,0
213.66403,214.44247,67,64,0
213.66403,214.44247,57,54,0
213.66403,214.46672,64,54,0
214.46672,215.23285,62,54,0
214.46672,215.23285,66,64,0
214.46672,215.23285,57,54,0
215.2409,215.60281,69,67,0
215.2409,215.60281,66,56,0
215.2409,215.60281,62,56,0
215.62186,215.99646,70,63,0
215.62186,215.99646,66,53,0
215.62186,215.99646,62,53,0
216.0077,216.72223,71,60,0
216.0077,216.72223,67,51,0
216.0077,216.72223,62,51,0
216.72223,217.08698,76,67,0
216.72223,217.08698,71,56,0
216.72223,217.08698,67,56,0
217.08698,217.26935,79,68,0
217.08698,217.26935,76,57,0
217.08698,217.26935,71,57,0
217.45172,217.63408,71,53,0
217.45172,217.63408,67,53,0
217.45172,217.64168,76,63,0
217.81645,217.99718,67,58,0
217.81645,217.99718,64,49,0
218.19075,218.90735,73,65,0
218.19075,218.90735,69,55,0
218.19075,218.90735,64,55,0
218.90735,219.27208,78,70,0
218.90735,219.27208,73,59,0
218.90735,219.27208,69,59,0
219.27208,219.45445,81,69,0
219.27208,219.45445,78,58,0
219.27208,219.45445,73,58,0
219.63683,219.8192,78,60,0
219.63683,219.8192,73,51,0
219.63683,219.8192,69,51,0
220.00157,220.1823,69,56,0
220.00157,220.1823,66,47,0
220.37587,221.09843,74,67,0
220.37587,221.09843,71,56,0
220.37587,221.09843,66,56,0
221.09843,221.46318,79,71,0
221.09843,221.46318,74,60,0
221.09843,221.46318,71,60,0
221.46318,221.64555,83,71,0
221.46318,221.64555,79,71,0
221.46318,221.64555,74,60,0
221.82793,222.01483,79,71,0
221.82793,222.01483,74,60,0
221.82793,222.01483,71,60,0
222.20175,222.39719,71,75,0
222.20175,222.39719,67,68,0
222.62561,223.39886,81,78,0
222.62561,223.39886,73,66,0
222.62561,223.39886,69,66,0
222.62561,223.42294,79,66,0
223.42294,224.0802,81,72,0
223.42294,224.0802,79,61,0
223.42294,224.0802,69,61,0
223.42294,224.0802,73,61,0
224.10036,224.1923,81,73,0
224.10036,224.1923,79,58,0
224.10036,224.1923,73,58,0
224.19714,224.46227,81,82,0
224.19714,224.46944,73,66,0
224.19714,224.46944,79,66,0
224.48376,224.57452,81,80,0
224.48376,224.57452,73,63,0
224.48376,224.57452,79,63,0
224.5793,224.86304,79,67,0
224.5793,224.86304,73,67,0
224.5793,224.86304,83,85,0
224.88,224.99323,79,65,0
224.88,224.99323,73,65,0
224.88,224.99323,85,83,0
224.99323,225.74646,78,78,0
224.99323,225.74646,74,78,0
224.99323,225.74646,86,93,0
225.76991,226.43335,86,93,0
225.76991,226.43335,74,78,0
225.76991,226.43335,78,78,0
226.44954,226.49792,66,47,0
226.44954,226.49792,69,56,0
226.54631,226.82329,69,60,0
226.54631,226.82329,66,51,0
226.83202,226.87964,66,47,0
226.83202,226.87964,69,56,0
226.92726,227.20723,64,50,0
226.92726,227.20723,67,60,0
227.21669,227.26823,66,56,0
227.21669,227.26823,62,47,0
227.31978,228.0804,57,54,0
227.31978,228.0804,64,64,0
228.1041,228.7676,64,64,0
228.1041,228.7676,57,54,0
228.78822,228.83772,67,41,0
228.78822,228.83772,71,50,0
228.88724,229.16959,69,53,0
228.88724,229.16959,66,44,0
229.1785,229.22704,64,39,0
229.1785,229.22704,67,47,0
229.27557,229.57866,62,41,0
229.27557,229.57866,66,50,0
229.58984,229.65082,64,44,0
229.58984,229.65082,57,36,0
229.71179,230.5256,54,39,0
229.71179,230.5256,62,46,0
230.55095,231.37561,54,37,0
230.55095,231.37561,62,44,0
231.38428,231.78429,62,44,0
231.80534,232.23552,62,41,0
232.25816,233.09532,71,44,0
232.25816,233.09532,62,37,0
232.25816,233.09532,59,37,0
233.10324,233.49634,71,44,0
233.10324,233.49634,62,37,0
233.10324,233.49634,59,37,0
233.51703,233.89203,71,44,0
233.51703,233.89203,62,37,0
233.51703,233.89203,59,37,0
233.91177,234.27715,71,42,0
233.91177,234.27715,62,35,0
233.91177,234.27715,59,35,0
234.29639,234.68414,71,42,0
234.29639,234.68414,62,35,0
234.29639,234.68414,59,35,0
234.70454,235.08582,71,44,0
234.70454,235.08582,62,37,0
234.70454,235.08582,59,37,0
235.10588,235.48291,76,48,0
235.10588,235.48291,67,40,0
235.10588,235.48291,64,40,0
235.49423,235.88199,74,44,0
235.49423,235.88199,67,37,0
235.49423,235.88199,62,37,0
235.90239,236.26895,74,44,0
235.90239,236.26895,67,37,0
235.90239,236.26895,62,37,0
236.28825,236.6513,74,40,0
236.28825,236.6513,67,34,0
236.28825,236.6513,62,34,0
236.67041,237.06352,74,40,0
236.67041,237.06352,67,34,0
236.67041,237.06352,62,34,0
237.08421,237.4713,74,44,0
237.08421,237.4713,67,37,0
237.08421,237.4713,62,37,0
237.4713,237.86093,69,39,0
237.4713,237.86093,62,33,0
237.4713,237.86093,57,33,0
237.87263,238.2777,72,39,0
237.87263,238.2777,60,33,0
237.87263,238.27856,62,33,0
238.29076,238.66576,72,44,0
238.29076,238.66576,60,37,0
238.29076,238.66656,62,37,0
238.67786,239.0662,71,42,0
238.67786,239.0662,62,35,0
238.67786,239.0662,59,35,0
239.07785,239.4852,69,42,0
239.07785,239.4852,62,35,0
239.07785,239.4852,57,35,0
239.49744,239.89778,69,44,0
239.49744,239.89778,62,37,0
239.49744,239.89778,57,37,0
239.9098,240.29814,71,39,0
239.9098,240.29814,62,33,0
239.9098,240.29814,59,33,0
240.30981,240.72293,71,39,0
240.30981,240.72293,62,33,0
240.30981,240.72293,59,33,0
240.73534,241.12497,71,44,0
240.73534,241.12497,62,37,0
240.73534,241.12497,59,37,0
241.13667,241.5384,57,43,0
241.13667,241.5384,69,51,0
241.13667,241.5384,62,43,0
241.55048,241.96803,55,50,0
241.55048,241.96803,67,60,0
241.55048,241.96803,62,50,0
241.98058,242.80238,66,55,0
241.98058,242.80238,62,55,0
241.98058,242.80324,69,66,0
241.98058,242.80324,57,55,0
242.81104,243.20549,69,52,0
242.81104,243.20549,57,44,0
242.81104,243.20549,62,44,0
242.81104,243.20549,66,44,0
243.22626,243.5976,69,52,0
243.22626,243.5976,57,44,0
243.22626,243.5976,62,44,0
243.22626,243.5976,66,44,0
243.61713,244.00098,62,42,0
243.61713,244.00098,66,42,0
243.61713,244.00098,57,42,0
243.61713,244.00098,69,50,0
244.02118,244.41428,69,50,0
244.02118,244.41428,62,42,0
244.02118,244.41428,57,42,0
244.02118,244.41428,67,42,0
244.43497,244.82806,69,54,0
244.43497,244.82806,62,45,0
244.43497,244.82806,57,45,0
244.84875,245.23073,62,53,0
244.84875,245.23073,74,63,0
244.84875,245.23073,66,53,0
245.2422,245.62996,66,56,0
245.2422,245.62996,78,66,0
245.2422,245.62996,69,56,0
245.65036,246.03421,69,56,0
245.65036,246.03421,66,56,0
245.65036,246.03421,78,66,0
246.05441,246.44751,69,58,0
246.05441,246.44751,78,69,0
246.05441,246.44751,66,58,0
246.4682,246.90166,69,61,0
246.4682,246.90166,78,72,0
246.4682,246.90166,66,61,0
246.92447,247.32307,78,75,0
246.92447,247.32307,66,63,0
246.92447,247.32307,70,63,0
247.34406,247.76163,78,66,0
247.34406,247.76163,70,56,0
247.34406,247.76163,66,56,0
247.78362,248.20119,66,52,0
247.78362,248.20119,70,52,0
247.78362,248.20119,78,61,0
248.22318,248.61763,66,44,0
248.22318,248.61763,78,52,0
248.22318,248.61763,70,44,0
248.6384,249.047,70,40,0
248.6384,249.047,66,40,0
248.6384,249.047,78,48,0
249.06851,249.50867,70,36,0
249.06851,249.50867,66,36,0
249.06851,249.50867,78,43,0
249.53183,249.9698,66,32,0
249.53183,249.9698,78,39,0
249.53183,249.9698,69,32,0
249.98296,250.45462,69,31,0
249.98296,250.45462,67,31,0
249.98296,250.45462,79,36,0
250.46878,251.19238,69,32,0
250.46878,251.19238,81,38,0
251.21413,251.60904,74,43,0
251.21413,251.60904,62,36,0
251.21413,251.60904,66,36,0
251.62091,252.00923,73,30,0
251.62091,252.00923,67,30,0
251.62091,252.00923,64,30,0
251.62091,252.00923,76,36,0
252.0209,252.43698,78,36,0
252.0209,252.43698,69,30,0
252.0209,252.43698,66,30,0
252.0209,252.43698,74,30,0
252.44948,253.25815,73,34,0
252.44948,253.25815,67,34,0
252.44948,253.25815,76,41,0
252.44948,253.25815,69,34,0
253.26581,253.70877,74,38,0
253.26581,253.70877,69,32,0
253.26581,253.70877,66,32,0
253.72208,254.2308,69,36,0
253.72208,254.2308,74,43,0
253.72208,254.2308,66,36,0
254.2461,254.64609,62,44,0
254.66714,255.08781,62,41,0
255.10995,255.9471,71,44,0
255.10995,255.9471,62,37,0
255.10995,255.9471,59,37,0
255.95502,256.34277,62,37,0
255.95502,256.34277,71,44,0
255.95502,256.34277,59,37,0
256.3632,256.73697,71,44,0
256.3632,256.73697,59,37,0
256.3632,256.73697,62,37,0
256.75662,257.12085,71,42,0
256.75662,257.12085,59,35,0
256.75662,257.12085,62,35,0
257.14,257.52646,59,35,0
257.14,257.52646,71,42,0
257.14,257.52646,62,35,0
257.54678,257.93323,62,37,0
257.54678,257.93323,59,37,0
257.54678,257.93323,71,44,0
257.95358,258.3343,67,40,0
257.95358,258.3343,64,40,0
257.95358,258.3343,76,48,0
258.34573,258.7335,74,44,0
258.34573,258.7335,67,37,0
258.34573,258.7335,62,37,0
258.7539,259.12045,67,37,0
258.7539,259.12045,74,44,0
258.7539,259.12045,62,37,0
259.13974,259.49936,62,34,0
259.13974,259.49936,74,40,0
259.13974,259.49936,67,34,0
259.51828,259.9114,67,34,0
259.51828,259.9114,74,40,0
259.51828,259.9114,62,34,0
259.9321,260.32297,67,37,0
259.9321,260.32297,74,44,0
259.9321,260.32297,62,37,0
260.32297,260.7113,69,39,0
260.32297,260.7113,62,33,0
260.32297,260.7113,57,33,0
260.72296,261.11972,72,39,0
260.72296,261.11972,60,33,0
260.72296,261.12057,62,33,0
261.1325,261.51367,60,37,0
261.1325,261.51367,72,44,0
261.1325,261.5145,62,37,0
261.52597,261.9182,59,35,0
261.52597,261.9182,71,42,0
261.52597,261.9182,62,35,0
261.93,262.34607,57,35,0
261.93,262.34607,69,42,0
261.93,262.34607,62,35,0
262.35858,262.7589,62,37,0
262.35858,262.7589,69,44,0
262.35858,262.7589,57,37,0
262.77094,263.15927,62,33,0
262.77094,263.15927,71,39,0
262.77094,263.15927,59,33,0
263.17096,263.58408,59,33,0
263.17096,263.58408,71,39,0
263.17096,263.58408,62,33,0
263.59647,263.9861,59,37,0
263.59647,263.9861,71,44,0
263.59647,263.9861,62,37,0
263.9978,264.39954,57,43,0
263.9978,264.39954,69,51,0
263.9978,264.39954,62,43,0
264.41162,264.82916,62,50,0
264.41162,264.82916,67,60,0
264.41162,264.82916,55,50,0
264.8417,265.6635,62,55,0
264.8417,265.6635,66,55,0
264.8417,265.6644,69,66,0
264.8417,265.6644,57,55,0
265.67218,266.06662,57,44,0
265.67218,266.06662,66,44,0
265.67218,266.06662,62,44,0
265.67218,266.06662,69,52,0
266.0874,266.45993,66,44,0
266.0874,266.45993,57,44,0
266.0874,266.45993,62,44,0
266.0874,266.45993,69,52,0
266.47955,266.8634,69,50,0
266.47955,266.8634,57,42,0
266.47955,266.8634,62,42,0
266.47955,266.8634,66,42,0
266.88358,267.2767,57,42,0
266.88358,267.2767,62,42,0
266.88358,267.2767,69,50,0
266.88358,267.2767,67,42,0
267.2974,267.6905,69,59,0
267.2974,267.6905,57,49,0
267.2974,267.6905,62,49,0
267.71118,268.09692,74,69,0
267.71118,268.09692,62,58,0
267.71118,268.09692,66,58,0
268.10852,268.49628,66,63,0
268.10852,268.49628,78,74,0
268.10852,268.49628,69,63,0
268.5167,268.89542,69,63,0
268.5167,268.89542,66,63,0
268.5167,268.89542,78,75,0
268.91537,269.31677,69,67,0
268.91537,269.31677,66,67,0
268.91537,269.31677,78,80,0
269.3379,269.8013,78,84,0
269.3379,269.8013,69,71,0
269.3379,269.8013,66,71,0
269.8257,270.2243,70,70,0
269.8257,270.2243,78,84,0
269.8257,270.2243,66,70,0
270.24527,270.65536,78,72,0
270.24527,270.65536,66,61,0
270.24527,270.65536,70,61,0
270.67694,271.0945,78,65,0
270.67694,271.0945,66,56,0
270.67694,271.0945,70,56,0
271.1165,271.51096,66,46,0
271.1165,271.51096,70,46,0
271.1165,271.51096,78,55,0
271.5317,271.94034,78,49,0
271.5317,271.94034,70,41,0
271.5317,271.94034,66,41,0
271.96182,272.40198,70,36,0
271.96182,272.40198,78,43,0
271.96182,272.40198,66,36,0
272.42514,272.86313,78,39,0
272.42514,272.86313,66,32,0
272.42514,272.86313,69,32,0
272.87628,273.34793,79,36,0
272.87628,273.34793,67,31,0
272.87628,273.34793,69,31,0
273.36212,274.08572,69,32,0
273.36212,274.08572,81,38,0
274.10745,274.50235,74,43,0
274.10745,274.50235,66,36,0
274.10745,274.50235,62,36,0
274.51422,274.90915,73,30,0
274.51422,274.90915,64,30,0
274.51422,274.90915,76,36,0
274.51422,274.90915,67,30,0
274.92102,275.33707,74,30,0
274.92102,275.33707,66,30,0
274.92102,275.33707,78,36,0
274.92102,275.33707,69,30,0
275.34958,276.15826,76,41,0
275.34958,276.15826,69,34,0
275.34958,276.15826,73,34,0
275.34958,276.15826,67,34,0
276.1659,276.6089,66,32,0
276.1659,276.6089,74,38,0
276.1659,276.6089,69,32,0
276.6222,277.13092,66,36,0
276.6222,277.13092,74,43,0
276.6222,277.13092,69,36,0
277.1462,277.5462,74,44,0
277.56726,277.9879,74,46,0
278.01004,278.82343,67,48,0
278.01004,278.82343,64,48,0
278.01004,278.82428,76,57,0
278.01004,278.82428,72,48,0
278.83197,279.20697,72,37,0
278.83197,279.20697,67,37,0
278.83197,279.20697,76,44,0
278.83197,279.20697,64,37,0
279.2267,279.59326,67,37,0
279.2267,279.59326,64,37,0
279.2267,279.59326,72,37,0
279.2267,279.59326,76,44,0
279.61255,279.96994,64,35,0
279.61255,279.96994,76,42,0
279.61255,279.96994,67,35,0
279.61255,279.96994,72,35,0
279.98874,280.35648,67,35,0
279.98874,280.35648,64,35,0
279.98874,280.35648,72,35,0
279.98874,280.35648,76,42,0
280.37582,280.7436,67,37,0
280.37582,280.7436,64,37,0
280.37582,280.7436,76,44,0
280.76294,281.12473,67,40,0
280.76294,281.12473,74,48,0
280.76294,281.12473,62,40,0
281.1356,281.50278,67,37,0
281.1356,281.50278,72,44,0
281.1356,281.50278,60,37,0
281.52206,281.88055,72,44,0
281.52206,281.88055,60,37,0
281.52206,281.88055,67,37,0
281.89944,282.26135,74,48,0
281.89944,282.26135,67,40,0
281.89944,282.26135,62,40,0
282.2804,282.64694,64,46,0
282.2804,282.64694,76,54,0
282.2804,282.64694,67,46,0
282.66623,283.44525,67,56,0
282.66623,283.44525,70,56,0
282.66623,283.44608,79,67,0
283.45346,283.826,70,50,0
283.45346,283.826,67,50,0
283.45346,283.826,79,60,0
283.8456,284.20523,67,50,0
283.8456,284.20523,79,60,0
283.8456,284.20523,70,50,0
284.22415,284.5782,79,57,0
284.22415,284.5782,70,47,0
284.22415,284.5782,67,47,0
284.59683,284.96167,79,57,0
284.59683,284.96167,70,47,0
284.59683,284.96167,67,47,0
284.98083,285.34045,79,60,0
284.98083,285.34045,70,50,0
284.98083,285.34045,67,50,0
285.35938,285.72726,77,66,0
285.35938,285.72726,70,55,0
285.35938,285.72726,65,55,0
285.73914,286.11047,75,60,0
285.73914,286.11047,70,50,0
285.73914,286.11047,63,50,0
286.13,286.48737,75,60,0
286.13,286.48737,70,50,0
286.13,286.48737,63,50,0
286.5062,286.85696,77,66,0
286.5062,286.85696,70,55,0
286.5062,286.85696,65,55,0
286.87543,287.25043,79,71,0
286.87543,287.25043,70,59,0
286.87543,287.25043,67,59,0
287.27014,288.0338,82,76,0
287.27014,288.0338,70,63,0
287.27014,288.0338,73,63,0
288.04184,288.40723,82,68,0
288.04184,288.40723,70,57,0
288.04184,288.40723,73,57,0
288.42648,288.78052,82,68,0
288.42648,288.78052,70,57,0
288.42648,288.78052,73,57,0
288.79913,289.1554,82,65,0
288.79913,289.1554,73,53,0
288.79913,289.1554,70,53,0
289.17413,289.54132,82,65,0
289.17413,289.54132,70,53,0
289.17413,289.54132,73,53,0
289.5606,289.9272,82,68,0
289.5606,289.9272,70,57,0
289.5606,289.9272,73,57,0
289.94647,290.30862,80,67,0
289.94647,290.30862,73,56,0
289.94647,290.30862,68,56,0
290.3203,290.68686,78,68,0
290.3203,290.68686,73,57,0
290.3203,290.68686,66,57,0
290.70615,291.06464,82,68,0
290.70615,291.06464,78,57,0
290.70615,291.06464,70,57,0
291.0835,291.43646,83,78,0
291.0835,291.43646,78,65,0
291.0835,291.43646,71,65,0
291.45502,291.83252,85,89,0
291.45502,291.83252,78,73,0
291.45502,291.83252,73,73,0
291.8524,292.61697,86,100,0
291.8524,292.61697,74,82,0
291.8524,292.61697,78,82,0
292.62503,292.99756,86,89,0
292.62503,292.99756,74,74,0
292.62503,292.99756,78,74,0
293.01718,293.3768,86,89,0
293.01718,293.3768,74,74,0
293.01718,293.3768,78,74,0
293.39572,293.74976,86,85,0
293.39572,293.74976,74,69,0
293.39572,293.74976,78,69,0
293.7684,294.14218,86,85,0
293.7684,294.14218,78,69,0
293.7684,294.14218,74,69,0
294.16183,294.95615,91,100,0
294.16183,294.95615,79,82,0
294.16183,294.95615,86,82,0
294.16183,294.95615,77,82,0
294.16183,294.95615,83,82,0
294.9645,295.35593,83,74,0
294.9645,295.35593,79,74,0
294.9645,295.35593,91,89,0
294.9645,295.35593,77,74,0
294.9645,295.35593,86,74,0
295.37653,295.77072,91,89,0
295.37653,295.77072,79,74,0
295.37653,295.77072,86,74,0
295.37653,295.77072,77,74,0
295.37653,295.77072,83,74,0
295.7914,296.1914,91,79,0
295.7914,296.1914,79,64,0
295.7914,296.1914,83,64,0
295.7914,296.1914,77,64,0
295.7914,296.1914,86,64,0
296.21246,296.63312,83,60,0
296.21246,296.63312,79,60,0
296.21246,296.63312,91,73,0
296.21246,296.63312,77,60,0
296.21246,296.63312,86,60,0
296.65527,297.4955,88,69,0
296.65527,297.4955,84,58,0
296.65527,297.4955,76,58,0
296.65527,297.4955,79,58,0
297.5217,297.9148,72,32,0
297.5217,297.9148,64,32,0
297.5217,297.9148,76,38,0
297.9355,298.3105,72,36,0
297.9355,298.3105,64,36,0
297.9355,298.3105,76,43,0
298.33023,298.69678,72,32,0
298.33023,298.69678,64,32,0
298.33023,298.69678,76,38,0
298.71606,299.11465,76,38,0
298.71606,299.11465,72,32,0
298.71606,299.11465,64,32,0
299.13565,299.8981,76,43,0
299.13565,299.8981,72,36,0
299.92188,300.30795,71,32,0
299.92188,300.30795,74,38,0
299.13565,300.32828,64,36,0
300.32828,301.09576,74,44,0
300.32828,301.09576,71,37,0
301.1197,301.50974,72,36,0
301.1197,301.50974,69,31,0
300.32828,301.53027,64,37,0
301.53027,302.29776,72,41,0
301.53027,302.29776,69,35,0
301.53027,302.29776,64,35,0
302.3217,302.71442,71,32,0
302.3217,302.71442,67,27,0
302.7351,303.49756,71,38,0
302.7351,303.49756,67,32,0
303.5213,303.91678,69,30,0
303.5213,303.91678,66,26,0
303.5213,303.91678,62,26,0
303.9376,304.70007,69,35,0
303.9376,304.70007,62,29,0
303.9376,304.70007,66,29,0
304.72382,305.10477,69,29,0
304.72382,305.10477,66,25,0
304.72382,305.10477,62,25,0
305.12482,305.49582,69,31,0
305.12482,305.49582,66,27,0
305.12482,305.49582,62,27,0
305.51535,305.87497,69,29,0
305.51535,305.87497,66,25,0
305.51535,305.87497,62,25,0
305.89392,306.27484,69,29,0
305.89392,306.27484,66,25,0
305.89392,306.27484,62,25,0
306.2949,307.0524,69,35,0
306.2949,307.0524,62,29,0
306.2949,307.0524,66,29,0
307.076,307.4595,69,29,0
307.076,307.4595,66,25,0
307.076,307.4595,62,25,0
307.47968,307.85684,69,31,0
307.47968,307.85684,66,27,0
307.47968,307.85684,62,27,0
307.87668,308.24207,69,29,0
307.87668,308.24207,66,25,0
307.87668,308.24207,62,25,0
308.26132,308.63263,69,29,0
308.26132,308.63263,66,25,0
308.26132,308.63263,62,25,0
308.6522,309.48846,63,29,0
308.6522,309.48935,71,35,0
308.6522,309.48935,66,29,0
309.49725,309.89035,71,35,0
309.49725,309.89035,66,29,0
309.49725,309.89035,63,29,0
309.91104,310.2898,71,35,0
309.91104,310.2898,63,29,0
309.91104,310.2898,66,29,0
310.30972,310.67865,71,33,0
310.30972,310.67865,66,28,0
310.30972,310.67865,63,28,0
310.69806,311.0912,71,33,0
310.69806,311.0912,66,28,0
310.69806,311.0912,63,28,0
311.11188,311.50497,71,39,0
311.11188,311.50497,67,33,0
311.11188,311.50497,62,33,0
311.52567,311.90268,76,43,0
311.52567,311.90268,67,36,0
311.52567,311.90268,64,36,0
311.914,312.30176,62,33,0
311.914,312.30176,74,39,0
311.914,312.30176,67,33,0
312.32217,312.6923,62,33,0
312.32217,312.6923,74,39,0
312.32217,312.6923,67,33,0
312.7118,313.076,67,30,0
312.7118,313.076,62,30,0
312.7118,313.076,74,36,0
313.09515,313.48828,67,30,0
313.09515,313.48828,74,36,0
313.09515,313.48828,62,30,0
313.50897,313.90335,67,33,0
313.50897,313.90335,74,39,0
313.50897,313.90335,62,33,0
313.90335,314.29526,69,35,0
313.90335,314.29526,57,29,0
313.90335,314.29526,62,29,0
314.30704,314.7121,72,35,0
314.30704,314.7121,60,29,0
314.30704,314.71298,62,29,0
314.72516,315.10724,60,33,0
314.72516,315.10724,72,39,0
314.72516,315.10806,62,33,0
315.11957,315.51147,62,31,0
315.11957,315.51147,71,37,0
315.11957,315.51147,59,31,0
315.52325,315.9306,62,31,0
315.52325,315.9306,69,37,0
315.52325,315.9306,57,31,0
315.94284,316.34317,69,39,0
315.94284,316.34317,57,33,0
315.94284,316.34317,62,33,0
316.3552,316.74353,71,39,0
316.3552,316.74353,62,33,0
316.3552,316.74353,59,33,0
316.7552,317.16833,59,33,0
316.7552,317.16833,71,39,0
316.7552,317.16833,62,33,0
317.18073,317.56744,59,37,0
317.18073,317.56744,71,44,0
317.18073,317.56744,62,37,0
317.57907,317.98077,67,43,0
317.57907,317.98077,59,43,0
317.57907,317.98077,71,51,0
317.99286,318.41043,67,50,0
317.99286,318.41043,72,60,0
317.99286,318.41043,60,50,0
318.42297,319.24475,62,55,0
318.42297,319.24475,67,55,0
318.42297,319.24564,74,66,0
319.25342,319.6479,67,44,0
319.25342,319.6479,74,52,0
319.25342,319.6479,62,44,0
319.66864,320.04486,67,44,0
319.66864,320.04486,74,52,0
319.66864,320.04486,62,44,0
320.06467,320.44852,67,42,0
320.06467,320.44852,72,50,0
320.06467,320.44852,60,42,0
320.46872,320.86182,67,42,0
320.46872,320.86182,71,50,0
320.46872,320.86182,59,42,0
320.8825,321.2756,67,45,0
320.8825,321.2756,74,54,0
320.8825,321.2756,62,45,0
321.2963,321.68207,71,53,0
321.2963,321.68207,79,63,0
321.2963,321.68207,67,53,0
321.69366,322.08142,83,66,0
321.69366,322.08142,74,56,0
321.69366,322.08142,71,56,0
322.1018,322.48566,83,66,0
322.1018,322.48566,74,56,0
322.1018,322.48566,71,56,0
322.50586,322.89896,71,58,0
322.50586,322.89896,83,69,0
322.50586,322.89896,74,58,0
322.91965,323.35312,71,61,0
322.91965,323.35312,83,72,0
322.91965,323.35312,74,61,0
323.37592,323.77454,71,63,0
323.37592,323.77454,83,75,0
323.37592,323.77454,75,63,0
323.7955,324.21307,75,56,0
323.7955,324.21307,83,66,0
323.7955,324.21307,71,56,0
324.23508,324.65265,75,52,0
324.23508,324.65265,83,61,0
324.23508,324.65265,71,52,0
324.67462,325.0691,71,44,0
324.67462,325.0691,83,52,0
324.67462,325.0691,75,44,0
325.08984,325.49844,71,40,0
325.08984,325.49844,83,48,0
325.08984,325.49844,75,40,0
325.51996,325.9601,71,36,0
325.51996,325.9601,83,43,0
325.51996,325.9601,75,36,0
325.98328,326.42123,74,32,0
325.98328,326.42123,83,39,0
325.98328,326.42123,71,32,0
326.43442,326.90607,74,31,0
326.43442,326.90607,84,36,0
326.43442,326.90607,72,31,0
326.92023,327.64383,86,38,0
326.92023,327.64383,74,32,0
327.6656,328.0526,67,36,0
327.6656,328.0526,79,43,0
327.6656,328.0526,71,36,0
328.06424,328.4552,69,30,0
328.06424,328.4552,74,30,0
328.06424,328.4552,78,30,0
328.06424,328.4552,81,36,0
328.46692,328.883,83,36,0
328.46692,328.883,74,30,0
328.46692,328.883,79,30,0
328.46692,328.883,71,30,0
328.8955,329.70416,81,41,0
328.8955,329.70416,72,34,0
328.8955,329.70416,74,34,0
328.8955,329.70416,78,34,0
329.71182,330.1548,79,38,0
329.71182,330.1548,74,32,0
329.71182,330.1548,71,32,0
330.1681,330.67685,79,43,0
330.1681,330.67685,74,36,0
330.1681,330.67685,71,36,0
330.6921,331.09213,74,44,0
331.1132,331.53384,74,46,0
331.55597,332.36932,64,46,0
331.55597,332.36932,67,46,0
331.55597,332.37018,72,46,0
331.55597,332.37018,76,55,0
332.3779,332.75662,76,44,0
332.3779,332.75662,67,37,0
332.3779,332.75662,64,37,0
332.3779,332.75662,72,37,0
332.77658,333.14078,76,44,0
332.77658,333.14078,64,37,0
332.77658,333.14078,67,37,0
332.77658,333.14078,72,37,0
333.15994,333.51733,76,42,0
333.15994,333.51733,72,35,0
333.15994,333.51733,64,35,0
333.15994,333.51733,67,35,0
333.53613,333.90387,76,42,0
333.53613,333.90387,64,35,0
333.53613,333.90387,67,35,0
333.53613,333.90387,72,35,0
333.92322,334.291,76,44,0
333.92322,334.291,67,37,0
333.92322,334.291,64,37,0
334.31033,334.67212,74,48,0
334.31033,334.67212,67,40,0
334.31033,334.67212,62,40,0
334.68298,335.05017,72,44,0
334.68298,335.05017,67,37,0
334.68298,335.05017,60,37,0
335.06946,335.42795,72,44,0
335.06946,335.42795,67,37,0
335.06946,335.42795,60,37,0
335.44684,335.80875,74,48,0
335.44684,335.80875,67,40,0
335.44684,335.80875,62,40,0
335.8278,336.19434,76,54,0
335.8278,336.19434,67,46,0
335.8278,336.19434,64,46,0
336.21362,336.99265,70,56,0
336.21362,336.99265,67,56,0
336.21362,336.99347,79,67,0
337.00085,337.37338,79,60,0
337.00085,337.37338,70,50,0
337.00085,337.37338,67,50,0
337.393,337.75037,79,60,0
337.393,337.75037,70,50,0
337.393,337.75037,67,50,0
337.76917,338.11887,70,47,0
337.76917,338.11887,79,57,0
337.76917,338.11887,67,47,0
338.13727,338.5021,67,47,0
338.13727,338.5021,79,57,0
338.13727,338.5021,70,47,0
338.52127,338.8809,67,50,0
338.52127,338.8809,79,60,0
338.52127,338.8809,70,50,0
338.89984,339.2677,65,55,0
338.89984,339.2677,77,66,0
338.89984,339.2677,70,55,0
339.27957,339.6509,70,50,0
339.27957,339.6509,75,60,0
339.27957,339.6509,63,50,0
339.67044,340.02783,70,50,0
339.67044,340.02783,75,60,0
339.67044,340.02783,63,50,0
340.04663,340.39957,77,66,0
340.04663,340.39957,70,55,0
340.04663,340.39957,65,55,0
340.41815,340.79315,79,71,0
340.41815,340.79315,70,59,0
340.41815,340.79315,67,59,0
340.8129,341.57654,73,63,0
340.8129,341.57654,82,76,0
340.8129,341.57654,70,63,0
341.5846,341.94998,73,57,0
341.5846,341.94998,82,68,0
341.5846,341.94998,70,57,0
341.9692,342.33224,73,57,0
341.9692,342.33224,82,68,0
341.9692,342.33224,70,57,0
342.35138,342.7054,82,65,0
342.35138,342.7054,73,53,0
342.35138,342.7054,70,53,0
342.72403,343.09122,82,65,0
342.72403,343.09122,70,53,0
342.72403,343.09122,73,53,0
343.1105,343.47708,73,57,0
343.1105,343.47708,82,68,0
343.1105,343.47708,70,57,0
343.49637,343.85852,68,56,0
343.49637,343.85852,80,67,0
343.49637,343.85852,73,56,0
343.8702,344.23676,66,57,0
343.8702,344.23676,78,68,0
343.8702,344.23676,73,57,0
344.25604,344.61453,78,57,0
344.25604,344.61453,82,68,0
344.25604,344.61453,70,57,0
344.63342,344.98636,78,65,0
344.63342,344.98636,83,78,0
344.63342,344.98636,71,65,0
345.0049,345.38242,85,89,0
345.0049,345.38242,78,73,0
345.0049,345.38242,73,73,0
345.40228,346.16687,86,100,0
345.40228,346.16687,74,82,0
345.40228,346.16687,78,82,0
346.17493,346.5475,86,89,0
346.17493,346.5475,74,74,0
346.17493,346.5475,78,74,0
346.56708,346.9267,78,74,0
346.56708,346.9267,86,89,0
346.56708,346.9267,74,74,0
346.94562,347.29965,74,69,0
346.94562,347.29965,86,85,0
346.94562,347.29965,78,69,0
347.3183,347.69208,74,69,0
347.3183,347.69208,78,69,0
347.3183,347.69208,86,85,0
347.71173,348.50604,91,100,0
347.71173,348.50604,83,82,0
347.71173,348.50604,77,82,0
347.71173,348.50604,86,82,0
347.71173,348.50604,79,82,0
348.5144,348.90582,83,74,0
348.5144,348.90582,77,74,0
348.5144,348.90582,79,74,0
348.5144,348.90582,86,74,0
348.5144,348.90582,91,89,0
348.92642,349.32062,86,74,0
348.92642,349.32062,83,74,0
348.92642,349.32062,77,74,0
348.92642,349.32062,91,89,0
348.92642,349.32062,79,74,0
349.3413,349.7413,91,79,0
349.3413,349.7413,86,64,0
349.3413,349.7413,77,64,0
349.3413,349.7413,83,64,0
349.3413,349.7413,79,64,0
349.76236,350.17993,83,60,0
349.76236,350.17993,77,60,0
349.76236,350.17993,79,60,0
349.76236,350.17993,86,60,0
349.76236,350.17993,91,73,0
350.2019,351.04218,84,58,0
350.2019,351.04218,76,58,0
350.2019,351.04218,88,69,0
350.2019,351.04218,79,58,0
351.06833,351.46146,72,32,0
351.06833,351.46146,76,38,0
351.06833,351.46146,64,32,0
351.48215,351.85107,72,36,0
351.48215,351.85107,76,43,0
351.48215,351.85107,64,36,0
351.87048,352.23123,76,38,0
351.87048,352.23123,64,32,0
351.87048,352.23123,72,32,0
352.25024,352.64334,76,38,0
352.25024,352.64334,72,32,0
352.25024,352.64334,64,32,0
352.66403,353.42648,72,36,0
352.66403,353.42648,76,43,0
353.45023,353.83633,74,38,0
353.45023,353.83633,71,32,0
352.66403,353.85666,64,36,0
353.85666,354.62415,71,37,0
353.85666,354.62415,74,44,0
354.64807,355.03812,72,36,0
354.64807,355.03812,69,31,0
353.85666,355.05865,64,37,0
355.05865,355.82614,72,41,0
355.05865,355.82614,69,35,0
355.05865,355.82614,64,35,0
355.85007,356.2428,71,32,0
355.85007,356.2428,67,27,0
356.2635,357.02594,71,38,0
356.2635,357.02594,67,32,0
357.04968,357.44516,69,30,0
357.04968,357.44516,66,26,0
357.04968,357.44516,62,26,0
357.46597,358.22845,69,35,0
357.46597,358.22845,62,29,0
357.46597,358.22845,66,29,0
358.2522,358.63315,69,29,0
358.2522,358.63315,66,25,0
358.2522,358.63315,62,25,0
358.6532,359.0174,69,31,0
358.6532,359.0174,66,27,0
358.6532,359.0174,62,27,0
359.03656,359.39734,69,29,0
359.03656,359.39734,66,25,0
359.03656,359.39734,62,25,0
359.41632,359.79727,69,29,0
359.41632,359.79727,66,25,0
359.41632,359.79727,62,25,0
359.81732,360.5748,69,35,0
359.81732,360.5748,62,29,0
359.81732,360.5748,66,29,0
360.59842,360.9819,69,29,0
360.59842,360.9819,66,25,0
360.59842,360.9819,62,25,0
361.0021,361.37924,69,31,0
361.0021,361.37924,66,27,0
361.0021,361.37924,62,27,0
361.3991,361.7645,69,29,0
361.3991,361.7645,66,25,0
361.3991,361.7645,62,25,0
361.78372,362.1782,69,29,0
361.78372,362.1782,66,25,0
361.78372,362.1782,62,25,0
362.19894,363.03522,63,29,0
362.19894,363.0361,71,35,0
362.19894,363.0361,66,29,0
363.044,363.4371,71,35,0
363.044,363.4371,66,29,0
363.044,363.4371,63,29,0
363.4578,363.83655,71,35,0
363.4578,363.83655,63,29,0
363.4578,363.83655,66,29,0
363.85648,364.2278,71,33,0
363.85648,364.2278,66,28,0
363.85648,364.2278,63,28,0
364.24734,364.64047,71,33,0
364.24734,364.64047,66,28,0
364.24734,364.64047,63,28,0
364.66116,365.04498,71,39,0
364.66116,365.04498,67,33,0
364.66116,365.04498,62,33,0
365.0652,365.4456,76,43,0
365.0652,365.4456,67,36,0
365.0652,365.4456,64,36,0
365.457,365.84476,74,39,0
365.457,365.84476,62,33,0
365.457,365.84476,67,33,0
365.86517,366.23532,74,39,0
365.86517,366.23532,62,33,0
365.86517,366.23532,67,33,0
366.2548,366.62253,67,30,0
366.2548,366.62253,62,30,0
366.2548,366.62253,74,36,0
366.64188,367.03497,67,30,0
366.64188,367.03497,62,30,0
366.64188,367.03497,74,36,0
367.05566,367.45007,67,33,0
367.05566,367.45007,62,33,0
367.05566,367.45007,74,39,0
367.45007,367.84198,69,35,0
367.45007,367.84198,62,29,0
367.45007,367.84198,57,29,0
367.85376,368.25882,72,35,0
367.85376,368.25882,60,29,0
367.85376,368.25967,62,29,0
368.27188,368.65396,60,33,0
368.27188,368.65396,72,39,0
368.27188,368.6548,62,33,0
368.6663,369.0582,62,31,0
368.6663,369.0582,59,31,0
368.6663,369.0582,71,37,0
369.06998,369.47733,62,31,0
369.06998,369.47733,57,31,0
369.06998,369.47733,69,37,0
369.48956,369.8899,69,39,0
369.48956,369.8899,62,33,0
369.48956,369.8899,57,33,0
369.90192,370.29025,71,39,0
369.90192,370.29025,62,33,0
369.90192,370.29025,59,33,0
370.3019,370.71503,71,39,0
370.3019,370.71503,59,33,0
370.3019,370.71503,62,33,0
370.72745,371.1082,71,44,0
370.72745,371.1082,59,37,0
370.72745,371.1082,62,37,0
371.1196,371.52133,67,43,0
371.1196,371.52133,59,43,0
371.1196,371.52133,71,51,0
371.53342,371.95398,67,50,0
371.53342,371.95398,60,50,0
371.53342,371.95398,72,60,0
371.9666,372.78842,62,55,0
371.9666,372.78842,67,55,0
371.9666,372.78928,74,66,0
372.79706,373.19153,62,44,0
372.79706,373.19153,67,44,0
372.79706,373.19153,74,52,0
373.21228,373.58853,74,52,0
373.21228,373.58853,62,44,0
373.21228,373.58853,67,44,0
373.60834,373.99216,72,50,0
373.60834,373.99216,60,42,0
373.60834,373.99216,67,42,0
374.01236,374.4055,71,50,0
374.01236,374.4055,59,42,0
374.01236,374.4055,67,42,0
374.42618,374.81927,74,54,0
374.42618,374.81927,67,45,0
374.42618,374.81927,62,45,0
374.83997,375.2257,79,63,0
374.83997,375.2257,71,53,0
374.83997,375.2257,67,53,0
375.2373,375.62506,83,66,0
375.2373,375.62506,74,56,0
375.2373,375.62506,71,56,0
375.64548,376.0293,83,66,0
375.64548,376.0293,74,56,0
375.64548,376.0293,71,56,0
376.0495,376.44263,83,69,0
376.0495,376.44263,74,58,0
376.0495,376.44263,71,58,0
376.46332,376.89676,83,72,0
376.46332,376.89676,74,61,0
376.46332,376.89676,71,61,0
376.9196,377.31818,83,75,0
376.9196,377.31818,75,63,0
376.9196,377.31818,71,63,0
377.33917,377.75674,83,66,0
377.33917,377.75674,75,56,0
377.33917,377.75674,71,56,0
377.77872,378.1963,83,61,0
377.77872,378.1963,75,52,0
377.77872,378.1963,71,52,0
378.2183,378.61273,83,52,0
378.2183,378.61273,75,44,0
378.2183,378.61273,71,44,0
378.6335,379.0421,83,48,0
378.6335,379.0421,75,40,0
378.6335,379.0421,71,40,0
379.0636,379.50375,83,43,0
379.0636,379.50375,75,36,0
379.0636,379.50375,71,36,0
379.52692,379.9649,83,39,0
379.52692,379.9649,74,32,0
379.52692,379.9649,71,32,0
379.97806,380.4497,84,36,0
379.97806,380.4497,74,31,0
379.97806,380.4497,72,31,0
380.4639,381.1875,86,38,0
380.4639,381.1875,74,32,0
381.20923,381.60416,79,43,0
381.20923,381.60416,71,36,0
381.20923,381.60416,67,36,0
381.616,382.01093,81,36,0
381.616,382.01093,69,30,0
381.616,382.01093,74,30,0
381.616,382.01093,78,30,0
382.0228,382.43887,83,36,0
382.0228,382.43887,74,30,0
382.0228,382.43887,79,30,0
382.0228,382.43887,71,30,0
382.45135,383.26004,81,41,0
382.45135,383.26004,74,34,0
382.45135,383.26004,78,34,0
382.45135,383.26004,72,34,0
383.2677,383.71066,79,38,0
383.2677,383.71066,74,32,0
383.2677,383.71066,71,32,0
383.72397,384.17905,71,30,0
383.72397,384.17905,79,36,0
383.72397,384.17905,74,30,0
384.19272,384.5699,71,21,0
384.19272,384.5699,79,29,0
384.19272,384.5699,74,21,0
384.58972,384.9669,74,21,0
384.58972,384.9669,71,21,0
384.58972,384.9669,79,29,0
384.98672,385.8022,71,31,0
384.98672,385.80304,74,31,0
384.98672,385.80304,79,37,0
385.81076,386.18826,71,27,0
385.81076,386.18826,76,32,0
385.81076,386.18826,67,27,0
386.20813,386.57587,71,30,0
386.20813,386.57587,67,30,0
386.20813,386.57587,76,36,0
386.5952,386.9335,64,28,0
386.5952,386.9335,73,33,0
386.5952,386.9335,67,28,0
386.9513,387.3073,67,28,0
386.9513,387.3073,62,28,0
386.9513,387.3073,71,33,0
387.32654,388.14197,61,31,0
387.32654,388.14285,67,31,0
387.32654,388.14285,71,37,0
388.15057,388.52805,67,27,0
388.15057,388.52805,69,32,0
388.15057,388.52805,61,27,0
388.5479,388.91568,69,36,0
388.5479,388.91568,67,30,0
388.5479,388.91568,61,30,0
388.93503,389.2723,71,33,0
388.93503,389.2723,67,28,0
388.93503,389.2723,62,28,0
389.29004,389.65057,62,28,0
389.29004,389.65057,71,33,0
389.29004,389.65057,67,28,0
389.66998,390.48544,61,31,0
389.66998,390.4863,71,37,0
389.66998,390.4863,67,31,0
390.49402,390.8715,67,26,0
390.49402,390.8715,61,26,0
390.49402,390.8715,69,31,0
390.8914,391.2664,67,29,0
390.8914,391.2664,69,34,0
390.8914,391.2664,61,29,0
391.2861,391.65955,62,26,0
391.2861,391.65955,70,31,0
391.2861,391.65955,67,26,0
391.67975,392.08307,67,26,0
391.67975,392.08307,62,26,0
391.67975,392.08307,70,31,0
392.10513,392.93808,61,28,0
392.10513,392.93808,70,34,0
392.10513,392.93896,67,28,0
392.94687,393.32434,69,28,0
392.94687,393.32434,67,24,0
392.94687,393.32434,61,24,0
393.3442,394.17175,69,32,0
393.3442,394.17175,61,27,0
393.3442,394.1726,67,27,0
394.18045,394.55792,69,27,0
394.18045,394.55792,61,23,0
394.18045,394.55792,67,23,0
394.5778,395.39676,69,31,0
394.5778,395.39676,61,26,0
394.5778,395.39764,67,26,0
395.4054,395.8054,61,22,0
395.4054,395.8054,69,26,0
395.4054,395.8054,67,22,0
395.82645,396.14233,67,25,0
395.82645,396.14233,61,25,0
395.82645,396.14233,69,29,0
396.15137,396.19974,57,59,0
396.15137,396.19974,55,59,0
396.15137,396.19974,61,70,0
396.24814,396.53845,61,76,0
396.24814,396.53845,57,64,0
396.24814,396.53845,55,64,0
396.53845,396.58682,57,59,0
396.53845,396.58682,61,70,0
396.53845,396.58682,55,59,0
396.63522,396.93185,55,63,0
396.63522,396.93185,62,75,0
396.63522,396.93185,57,63,0
396.93185,396.9834,57,59,0
396.93185,396.9834,55,59,0
396.93185,396.9834,64,70,0
397.03494,397.7956,57,68,0
397.03494,397.7956,62,68,0
397.03494,397.7956,66,80,0
397.03494,397.7956,54,68,0
397.81927,398.47653,66,80,0
397.81927,398.47653,62,68,0
397.81927,398.47653,54,68,0
397.81927,398.47653,57,68,0
398.4967,398.59348,66,67,0
398.59348,398.88193,67,75,0
398.59348,398.96686,57,66,0
398.88193,398.9781,66,70,0
398.9781,399.07425,64,74,0
399.07425,399.17038,66,66,0
399.17038,399.28275,64,66,0
398.9781,399.382,57,66,0
399.28275,399.3951,62,70,0
399.3951,400.1508,69,80,0
399.3951,400.1508,64,68,0
399.3951,400.1508,57,68,0
400.17432,400.83157,64,68,0
400.17432,400.83157,69,80,0
400.17432,400.83157,57,68,0
400.85175,400.94852,69,67,0
400.94852,401.04407,71,75,0
401.04407,401.13962,73,66,0
401.13962,401.23514,71,68,0
400.94852,401.31955,64,66,0
401.23514,401.3307,69,70,0
401.3307,401.63498,71,74,0
401.63498,401.7482,73,70,0
401.3307,401.7482,64,66,0
401.7482,402.50143,71,68,0
401.7482,402.50143,62,68,0
401.7482,402.50143,66,68,0
401.7482,402.50143,74,80,0
402.52487,403.0974,66,68,0
402.52487,403.0974,62,68,0
402.52487,403.0974,71,68,0
402.52487,403.0974,74,80,0
403.1053,403.19907,74,75,0
403.1053,403.19907,68,63,0
403.292,403.38443,74,80,0
403.292,403.38443,68,68,0
403.47635,403.56754,68,67,0
403.47635,403.56754,76,79,0
403.47635,403.56754,74,79,0
403.65796,403.74768,74,70,0
403.65796,403.74768,78,83,0
403.65796,403.74768,68,70,0
403.83722,403.9526,74,73,0
403.83722,403.9526,80,86,0
403.83722,403.9526,68,73,0
404.068,404.8069,69,76,0
404.068,404.8069,81,90,0
404.068,404.8069,73,76,0
404.8299,405.5918,57,73,0
404.8299,405.5918,69,87,0
404.8299,405.5918,61,73,0
405.5918,405.97275,81,61,0
405.97275,406.3586,82,58,0
406.3586,406.47626,83,62,0
406.47626,406.5939,82,57,0
406.5939,406.71155,83,57,0
406.71155,406.83026,88,63,0
406.83026,406.94894,87,61,0
406.94894,407.08273,88,65,0
407.08273,407.721,91,70,0
407.721,407.8122,90,61,0
407.8122,408.08575,88,69,0
408.08575,408.17694,86,62,0
408.17694,408.45123,85,70,0
408.45123,408.55124,83,62,0
408.55124,408.66855,81,69,0
408.66855,408.78586,80,60,0
408.78586,408.90314,81,55,0
408.90314,409.02292,86,68,0
409.02292,409.14267,85,65,0
409.14267,409.27646,86,69,0
409.27646,409.91473,90,72,0
409.91473,410.00592,88,61,0
410.00592,410.27948,86,69,0
410.27948,410.37067,85,62,0
410.37067,410.64496,83,70,0
410.64496,410.74496,81,62,0
410.74496,410.8626,79,67,0
410.8626,410.98026,78,58,0
410.98026,411.0979,79,58,0
411.0979,411.21838,85,63,0
411.21838,411.33887,84,61,0
411.33887,411.47266,85,65,0
411.47266,412.11096,88,70,0
412.11096,412.20215,86,59,0
412.20215,412.47992,85,68,0
412.47992,412.5725,86,57,0
412.5725,412.8739,85,67,0
412.8739,412.99637,83,58,0
412.99637,413.76962,78,53,0
412.99637,413.76962,82,63,0
413.7937,414.45096,82,56,0
413.7937,414.55984,78,47,0
414.47113,414.5679,82,46,0
414.5679,414.85635,83,52,0
414.5679,414.94128,78,46,0
414.85635,414.9525,82,49,0
414.9525,415.25717,83,51,0
414.9525,415.35645,78,46,0
415.25717,415.36954,82,49,0
415.36954,416.1252,80,56,0
415.36954,416.1252,77,47,0
416.14877,416.80603,80,56,0
416.14877,416.9149,77,47,0
416.82617,416.92294,80,46,0
416.92294,417.21143,82,52,0
416.92294,417.29556,77,46,0
417.21143,417.30756,80,49,0
417.30756,417.61224,82,51,0
417.30756,417.71054,77,46,0
417.61224,417.7246,80,49,0
417.7246,418.4803,78,56,0
418.5038,419.17752,78,56,0
419.18564,419.234,57,70,0
419.18564,419.234,49,59,0
419.18564,419.234,55,59,0
419.2824,419.57272,57,76,0
419.2824,419.57272,49,64,0
419.2824,419.57272,55,64,0
419.57272,419.62112,49,59,0
419.57272,419.62112,57,70,0
419.57272,419.62112,55,59,0
419.6695,419.96616,55,63,0
419.6695,419.96616,49,63,0
419.6695,419.96616,59,75,0
419.96616,420.0177,55,59,0
419.96616,420.0177,49,59,0
419.96616,420.0177,61,70,0
420.06924,420.82986,62,80,0
420.06924,420.82986,54,68,0
420.06924,420.82986,50,68,0
420.85355,421.5108,62,80,0
420.85355,421.60437,59,68,0
420.85355,421.60437,50,68,0
420.85355,421.60437,54,68,0
421.53098,421.62775,62,67,0
421.62775,421.9162,62,75,0
421.62775,422.00113,54,66,0
421.9162,422.01236,64,70,0
422.01236,422.31702,66,74,0
422.01236,422.4163,54,66,0
422.31702,422.42938,62,70,0
422.42938,423.18506,57,68,0
422.42938,423.18506,64,68,0
422.42938,423.18506,69,80,0
422.42938,423.20862,67,68,0
423.20862,423.86588,69,80,0
423.20862,423.86588,57,68,0
423.20862,423.86588,64,68,0
423.20862,423.86588,67,68,0
423.88602,423.97797,64,53,0
423.88602,423.97797,69,67,0
423.88602,423.97797,67,53,0
423.9828,424.24792,69,75,0
423.9828,424.2551,64,60,0
423.9828,424.2551,67,60,0
424.26944,424.3602,67,56,0
424.26944,424.3602,64,56,0
424.26944,424.3602,69,70,0
424.36496,424.65228,71,74,0
424.36496,424.65228,64,59,0
424.36496,424.65228,67,59,0
424.66925,424.78247,73,70,0
424.66925,424.78247,67,56,0
424.66925,424.78247,64,56,0
424.78247,425.5357,74,80,0
424.78247,425.5357,66,68,0
424.78247,425.5357,69,68,0
424.78247,425.5357,62,68,0
425.55917,426.13168,74,80,0
425.55917,426.13168,67,68,0
425.55917,426.13168,62,68,0
426.13956,426.23337,68,63,0
426.13956,426.23337,74,75,0
426.32626,426.4187,74,80,0
426.32626,426.4187,68,68,0
426.51062,426.6018,76,79,0
426.51062,426.6018,74,79,0
426.51062,426.6018,68,67,0
426.69223,426.78195,68,70,0
426.69223,426.78195,78,83,0
426.69223,426.78195,74,70,0
426.87152,426.9869,68,73,0
426.87152,426.9869,80,86,0
426.87152,426.9869,74,73,0
427.1023,427.84116,73,76,0
427.1023,427.84116,69,76,0
427.1023,427.84116,81,90,0
427.8642,428.6261,57,73,0
427.8642,428.6261,69,87,0
427.8642,428.6261,61,73,0
428.6261,429.00705,76,61,0
429.00705,429.39288,77,58,0
429.39288,429.51053,78,62,0
429.51053,429.62817,77,57,0
429.62817,429.74582,78,57,0
429.74582,429.86453,83,63,0
429.86453,429.98322,82,61,0
429.98322,430.117,83,65,0
430.117,430.7553,86,70,0
430.7553,430.8465,85,61,0
430.8465,430.93768,83,69,0
430.93768,431.02887,85,63,0
431.02887,431.12006,83,63,0
431.12006,431.2112,81,62,0
431.2112,431.30157,80,70,0
431.30157,431.39194,81,65,0
431.39194,431.48553,80,66,0
431.48553,431.5855,78,62,0
431.5855,431.70282,76,69,0
431.70282,431.82013,75,60,0
431.82013,431.93744,76,55,0
431.93744,432.0572,81,68,0
432.0572,432.17694,80,65,0
432.17694,432.31073,81,69,0
432.31073,432.94904,85,72,0
432.94904,433.04022,83,61,0
433.04022,433.1314,81,69,0
433.1314,433.2226,83,63,0
433.2226,433.31378,81,63,0
433.31378,433.40497,80,62,0
433.40497,433.49533,78,70,0
433.49533,433.5857,80,65,0
433.5857,433.67926,78,65,0
433.67926,433.77927,76,62,0
433.77927,433.8969,74,67,0
433.8969,434.01456,73,58,0
434.01456,434.1322,74,58,0
434.1322,434.2527,80,63,0
434.2527,434.37317,79,61,0
434.37317,434.50693,80,65,0
434.50693,435.14523,83,70,0
435.14523,435.23642,81,59,0
435.23642,435.5142,80,68,0
435.5142,435.60678,81,57,0
435.60678,435.9082,80,67,0
435.9082,436.03064,78,58,0
436.03064,436.8039,77,63,0
436.03064,436.8039,73,53,0
436.82797,437.48523,77,56,0
436.82797,437.59412,73,47,0
437.5054,437.60217,77,46,0
437.60217,437.89066,78,52,0
437.60217,437.9756,73,46,0
437.89066,437.9868,77,49,0
437.9868,438.29147,78,51,0
437.9868,438.39072,73,46,0
438.29147,438.4038,77,49,0
438.4038,439.15952,80,61,0
438.4038,439.15952,76,51,0
438.4038,439.15952,74,51,0
439.18304,439.8524,80,61,0
439.18304,439.8524,76,51,0
439.18304,439.94916,74,51,0
439.86047,439.95724,76,50,0
439.95724,440.2457,78,57,0
439.95724,440.32983,74,50,0
440.2457,440.34186,76,53,0
440.34186,440.6465,78,56,0
440.34186,440.74484,74,50,0
440.6465,440.75888,80,53,0
440.75888,441.51456,81,61,0
440.75888,441.51456,73,51,0
440.75888,441.51456,69,51,0
441.5381,442.2118,81,61,0
441.5381,442.2118,69,51,0
441.5381,442.2118,73,51,0
442.2199,442.2683,57,70,0
442.31668,442.41345,57,76,0
442.6034,442.65,57,70,0
442.69656,442.78833,55,75,0
442.98315,443.0347,57,70,0
443.08624,443.84686,55,68,0
443.08624,443.84686,52,68,0
443.08624,443.84686,61,80,0
443.08624,443.87054,58,68,0
443.87054,444.5278,55,68,0
443.87054,444.5278,61,80,0
443.87054,444.5278,58,68,0
443.87054,444.5278,52,68,0
444.54797,444.59637,69,70,0
444.64474,444.73822,69,76,0
444.92514,444.97186,69,70,0
445.0186,445.11005,67,75,0
445.3046,445.35614,69,70,0
445.40768,446.1683,74,80,0
445.40768,446.1683,62,68,0
445.40768,446.1683,65,68,0
445.40768,446.19202,70,68,0
446.19202,446.84927,74,80,0
446.19202,446.84927,62,68,0
446.19202,446.84927,70,68,0
446.19202,446.84927,65,68,0
446.86942,446.91782,74,59,0
446.86942,446.91782,77,70,0
446.96622,447.06055,77,76,0
446.96622,447.06055,74,64,0
447.24924,447.2964,77,70,0
447.24924,447.2964,74,59,0
447.34357,447.43558,73,63,0
447.34357,447.43558,76,75,0
447.62695,447.6766,77,70,0
447.62695,447.6766,74,59,0
447.7263,447.82034,70,64,0
447.7263,447.82034,74,76,0
448.00842,448.05545,74,70,0
448.00842,448.05545,70,59,0
448.10245,448.1945,69,63,0
448.10245,448.1945,73,75,0
448.38586,448.43552,70,59,0
448.38586,448.43552,74,70,0
448.485,448.57962,67,64,0
448.485,448.57962,70,76,0
448.76892,448.81622,67,59,0
448.76892,448.81622,70,70,0
448.86356,448.95584,66,63,0
448.86356,448.95584,69,75,0
449.14963,449.19998,67,59,0
449.14963,449.19998,70,70,0
449.2503,450.01093,67,80,0
449.2503,450.03464,63,68,0
450.03464,450.82895,79,88,0
450.03464,450.82895,75,74,0
450.03464,450.82895,67,74,0
450.03464,450.82895,71,74,0
450.8373,451.63428,79,88,0
450.8373,451.63428,75,74,0
450.8373,451.63428,67,74,0
450.8373,451.63428,72,74,0
451.64267,451.74576,77,88,0
451.64267,451.74576,74,74,0
451.64267,451.74576,65,74,0
452.05505,452.16412,81,88,0
452.05505,452.16412,69,74,0
452.05505,452.16412,72,74,0
452.05505,452.16412,75,74,0
452.4914,453.33063,82,101,0
452.4914,453.33063,70,85,0
452.4914,453.33063,74,85,0
453.33945,454.1175,70,88,0
453.33945,454.1175,62,74,0
453.33945,454.1175,58,74,0
454.13934,454.1902,77,56,0
454.13934,454.1902,74,47,0
454.24103,454.3427,77,60,0
454.24103,454.3427,74,51,0
454.5461,454.59695,77,56,0
454.5461,454.59695,74,47,0
454.6478,454.73984,76,60,0
454.6478,454.73984,73,50,0
454.94635,455.00363,77,56,0
454.94635,455.00363,74,47,0
455.06088,455.94266,74,60,0
455.06088,455.94266,70,51,0
455.94266,456.65506,74,60,0
455.94266,456.65506,70,51,0
456.6769,456.7253,74,56,0
456.6769,456.7253,70,47,0
456.77368,456.86804,74,60,0
456.77368,456.86804,70,51,0
457.0567,457.10388,74,56,0
457.0567,457.10388,70,47,0
457.15106,457.24307,73,60,0
457.15106,457.24307,69,50,0
457.4458,457.50116,74,56,0
457.4458,457.50116,70,47,0
457.5565,458.42566,77,60,0
457.5565,458.42566,74,51,0
458.42566,459.13806,75,60,0
458.42566,459.13806,72,51,0
459.1599,459.2083,72,47,0
459.1599,459.2083,75,56,0
459.1599,459.2083,77,47,0
459.25668,459.35104,72,51,0
459.25668,459.35104,75,60,0
459.25668,459.35104,77,51,0
459.5397,459.58688,75,56,0
459.5397,459.58688,77,47,0
459.5397,459.58688,72,47,0
459.63406,459.72607,74,60,0
459.63406,459.72607,71,50,0
459.63406,459.72607,77,50,0
459.9288,459.98416,77,56,0
459.9288,459.98416,75,56,0
459.9288,459.98416,72,47,0
460.0395,460.87485,69,51,0
460.0395,460.87485,77,60,0
460.0395,460.87485,72,51,0
460.88312,461.59552,72,51,0
460.88312,461.59552,69,51,0
460.88312,461.59552,77,60,0
461.61737,461.66574,69,47,0
461.61737,461.66574,72,56,0
461.61737,461.66574,77,47,0
461.71414,461.80847,69,51,0
461.71414,461.80847,72,60,0
461.71414,461.80847,77,51,0
461.99716,462.04434,77,47,0
461.99716,462.04434,69,47,0
461.99716,462.04434,72,56,0
462.0915,462.18353,77,50,0
462.0915,462.18353,71,60,0
462.0915,462.18353,68,50,0
462.4032,462.46704,69,47,0
462.4032,462.46704,77,56,0
462.4032,462.46704,72,56,0
462.53088,463.43573,73,45,0
462.53088,463.4367,77,54,0
462.53088,463.4367,69,45,0
463.44543,464.15784,74,45,0
463.44543,464.15784,77,54,0
463.44543,464.15784,70,45,0
464.1797,464.2281,77,56,0
464.1797,464.2281,70,47,0
464.1797,464.2281,74,47,0
464.27646,464.3708,77,60,0
464.27646,464.3708,74,51,0
464.27646,464.3708,70,51,0
464.55948,464.60666,70,48,0
464.55948,464.60666,77,57,0
464.55948,464.60666,74,48,0
464.6538,464.74585,70,52,0
464.6538,464.74585,76,63,0
464.6538,464.74585,74,52,0
464.94858,465.0039,74,50,0
464.94858,465.0039,70,50,0
464.94858,465.0039,77,60,0
465.05927,465.9197,74,56,0
465.05927,465.9197,79,66,0
465.05927,465.9197,70,56,0
465.92844,466.63483,74,56,0
465.92844,466.63483,70,56,0
465.92844,466.63483,79,66,0
466.65622,466.70462,74,51,0
466.65622,466.70462,79,61,0
466.65622,466.70462,70,51,0
466.753,466.84735,74,56,0
466.753,466.84735,79,66,0
466.753,466.84735,70,56,0
467.036,467.0832,74,50,0
467.036,467.0832,82,60,0
467.036,467.0832,70,50,0
467.13037,467.22238,74,54,0
467.13037,467.22238,81,64,0
467.13037,467.22238,70,54,0
467.4251,467.48047,70,49,0
467.4251,467.48047,79,59,0
467.4251,467.48047,74,49,0
467.5358,468.39624,74,51,0
467.5358,468.39624,77,60,0
467.5358,468.39624,70,51,0
468.40497,469.11737,77,60,0
468.40497,469.11737,74,51,0
468.40497,469.11737,70,60,0
469.13922,469.18762,74,56,0
469.13922,469.18762,70,47,0
469.13922,469.18762,77,47,0
469.236,469.33035,77,51,0
469.236,469.33035,74,60,0
469.236,469.33035,70,51,0
469.519,469.5662,77,47,0
469.519,469.5662,74,56,0
469.519,469.5662,70,47,0
469.61337,469.70538,79,50,0
469.61337,469.70538,75,60,0
469.61337,469.70538,70,50,0
469.9081,469.96347,74,56,0
469.9081,469.96347,70,47,0
469.9081,469.96347,77,56,0
470.01883,470.88797,77,60,0
470.01883,470.88797,72,51,0
470.01883,470.88797,69,51,0
470.88797,471.60037,69,48,0
470.88797,471.60037,75,57,0
470.88797,471.60037,72,48,0
471.62222,471.6719,75,44,0
471.62222,471.6719,72,53,0
471.62222,471.6719,65,44,0
471.72156,471.81802,75,48,0
471.72156,471.81802,72,57,0
471.72156,471.81802,65,48,0
472.01096,472.0592,65,44,0
472.01096,472.0592,72,53,0
472.01096,472.0592,75,44,0
472.10742,472.20175,65,47,0
472.10742,472.20175,71,57,0
472.10742,472.20175,74,47,0
472.42377,472.48758,69,53,0
472.42377,472.48758,65,44,0
472.42377,472.48758,72,53,0
472.55142,473.46597,70,48,0
472.55142,473.46597,65,40,0
472.55142,473.46597,62,40,0
473.46597,474.17838,70,48,0
473.46597,474.17838,65,40,0
473.46597,474.17838,62,40,0
474.20026,474.25058,72,47,0
474.20026,474.25058,65,39,0
474.20026,474.25058,75,39,0
474.3009,474.39896,72,51,0
474.3009,474.39896,65,43,0
474.3009,474.39896,75,43,0
474.59503,474.64404,72,47,0
474.59503,474.64404,65,39,0
474.59503,474.64404,75,39,0
474.69308,474.7892,70,51,0
474.69308,474.7892,65,42,0
474.69308,474.7892,74,42,0
475.01303,475.07687,69,47,0
475.01303,475.07687,65,39,0
475.01303,475.07687,72,47,0
475.1407,476.05524,70,45,0
475.1407,476.05524,65,38,0
475.1407,476.05524,62,38,0
476.05524,476.76767,70,45,0
476.05524,476.76767,65,38,0
476.05524,476.76767,62,38,0
476.78952,476.84143,72,42,0
476.78952,476.84143,65,35,0
476.78952,476.84143,75,35,0
476.8933,476.994,72,45,0
476.8933,476.994,65,38,0
476.8933,476.994,75,38,0
477.19534,477.24567,72,41,0
477.19534,477.24567,65,34,0
477.19534,477.24567,75,34,0
477.29602,477.39438,70,44,0
477.29602,477.39438,65,36,0
477.29602,477.39438,74,36,0
477.6204,477.6842,69,39,0
477.6204,477.6842,65,33,0
477.6204,477.6842,72,39,0
477.74805,478.07578,70,37,0
477.74805,478.07578,65,31,0
477.74805,478.07578,62,31,0
478.0851,478.1335,46,70,0
478.18192,478.2787,46,76,0
478.46805,478.51434,46,70,0
478.56064,478.65128,46,75,0
478.83536,478.88208,48,70,0
478.92883,479.2157,50,75,0
479.2239,479.27228,62,70,0
479.2239,479.27228,50,59,0
479.32068,479.41745,62,76,0
479.32068,479.41745,50,64,0
479.60654,479.65268,62,70,0
479.60654,479.65268,50,59,0
479.69885,479.78973,62,75,0
479.69885,479.78973,50,63,0
479.975,480.02216,64,70,0
479.975,480.02216,52,59,0
480.06934,480.35623,65,82,0
480.06934,480.3644,53,69,0
480.3644,480.4128,53,77,0
480.46118,480.55795,53,83,0
480.74762,480.79407,53,77,0
480.84048,480.9314,53,82,0
481.11667,481.16382,55,77,0
481.211,481.4979,57,90,0
481.50607,481.55447,69,71,0
481.50607,481.55447,57,60,0
481.60284,481.69962,57,65,0
481.60284,481.69962,69,78,0
481.88928,481.93573,71,73,0
481.88928,481.93573,59,61,0
481.98215,482.07306,61,66,0
481.98215,482.07306,73,79,0
482.25833,482.30548,74,76,0
482.25833,482.30548,62,64,0
482.35266,483.10834,76,83,0
482.35266,483.10834,64,70,0
482.35266,483.10834,69,70,0
482.35266,483.13187,73,70,0
483.13187,483.78912,64,70,0
483.13187,483.78912,76,83,0
483.13187,483.78912,73,70,0
483.13187,483.78912,69,70,0
483.8093,483.90125,76,73,0
483.8093,483.90125,74,58,0
483.8093,483.90125,68,58,0
483.90607,484.1712,76,82,0
483.90607,484.17838,74,66,0
483.90607,484.17838,68,66,0
484.1927,484.28345,68,63,0
484.1927,484.28345,76,80,0
484.1927,484.28345,74,63,0
484.28824,484.57196,74,67,0
484.28824,484.57196,78,85,0
484.28824,484.57196,68,67,0
484.58896,484.70215,74,65,0
484.58896,484.70215,80,83,0
484.58896,484.70215,68,65,0
484.70215,485.45538,81,93,0
484.70215,485.45538,73,78,0
484.70215,485.45538,69,78,0
485.47885,486.14227,81,93,0
485.47885,486.14227,73,78,0
485.47885,486.14227,69,78,0
486.15848,486.20685,55,47,0
486.15848,486.20685,61,56,0
486.15848,486.20685,57,47,0
486.25525,486.54095,55,51,0
486.25525,486.54095,62,60,0
486.25525,486.54095,57,51,0
486.54095,486.58856,55,47,0
486.54095,486.58856,61,56,0
486.54095,486.58856,57,47,0
486.6362,486.92563,57,50,0
486.6362,486.92563,62,60,0
486.6362,486.92563,55,50,0
486.92563,486.97717,57,47,0
486.92563,486.97717,64,56,0
486.92563,486.97717,55,47,0
487.02872,487.78934,57,64,0
487.02872,487.78934,54,54,0
487.81302,488.47028,57,54,0
487.81302,488.47028,66,64,0
488.49045,488.58722,66,53,0
488.49045,488.58722,57,53,0
488.58722,488.68338,67,60,0
488.58722,488.68338,55,60,0
488.87567,488.97183,55,56,0
488.87567,488.97183,66,56,0
488.97183,489.0659,56,59,0
488.97183,489.0659,64,59,0
489.269,489.3781,56,56,0
489.269,489.3781,62,56,0
489.3781,490.1338,61,54,0
489.3781,490.1338,69,64,0
489.3781,490.1338,57,54,0
490.15732,490.81458,64,64,0
490.15732,490.81458,61,54,0
490.83475,490.88312,69,53,0
490.88312,490.93152,73,53,0
490.83475,490.93152,64,53,0
490.93152,491.02707,64,60,0
490.93152,491.02707,71,60,0
491.21814,491.3137,69,56,0
491.21814,491.3137,64,56,0
491.3137,491.40802,71,59,0
491.3137,491.40802,64,59,0
491.61472,491.72708,73,56,0
491.61472,491.72708,64,56,0
491.72708,492.48276,66,54,0
491.72708,492.48276,62,54,0
491.72708,492.48276,74,64,0
492.50632,493.16357,62,54,0
492.50632,493.16357,66,64,0
493.18372,493.23212,66,53,0
493.23212,493.2805,69,53,0
493.18372,493.2805,62,53,0
493.2805,493.37665,62,60,0
493.2805,493.37665,68,60,0
493.56897,493.6651,66,56,0
493.56897,493.6651,62,56,0
493.6651,493.75916,68,59,0
493.6651,493.75916,62,59,0
493.96555,494.0779,62,56,0
493.96555,494.0779,64,56,0
494.0779,494.85635,61,54,0
494.0779,494.85635,71,64,0
494.88058,495.64673,69,64,0
494.88058,495.64673,61,54,0
495.6548,496.0167,66,56,0
495.6548,496.0167,69,67,0
495.6548,496.0167,62,56,0
496.03574,496.41034,62,53,0
496.03574,496.41034,70,63,0
496.03574,496.41034,66,53,0
496.4216,497.1457,62,51,0
496.4216,497.1457,67,51,0
496.4216,497.1457,71,60,0
497.1457,497.49982,76,67,0
497.1457,497.49982,71,56,0
497.1457,497.49982,67,56,0
497.51044,497.6928,79,68,0
497.51044,497.6928,76,57,0
497.51044,497.6928,71,57,0
497.87518,498.05756,71,53,0
497.87518,498.05756,67,53,0
497.87518,498.06516,76,63,0
498.23993,498.42065,67,58,0
498.23993,498.42065,64,49,0
498.23993,498.42065,61,49,0
498.61423,499.33942,69,65,0
498.61423,499.33942,66,55,0
498.61423,499.33942,61,55,0
499.33942,499.69354,74,70,0
499.33942,499.69354,69,59,0
499.33942,499.69354,66,59,0
499.70416,499.88654,78,69,0
499.70416,499.88654,74,58,0
499.70416,499.88654,69,58,0
500.0689,500.25128,74,60,0
500.0689,500.25128,69,51,0
500.0689,500.25128,66,51,0
500.43365,500.61438,66,56,0
500.43365,500.61438,62,47,0
500.43365,500.61438,59,47,0
500.80795,501.53564,67,67,0
500.80795,501.53564,64,56,0
500.80795,501.53564,59,56,0
501.53564,501.88974,73,71,0
501.53564,501.88974,67,60,0
501.53564,501.88974,64,60,0
501.9004,502.08276,76,71,0
501.9004,502.08276,73,71,0
501.9004,502.08276,67,60,0
502.26514,502.45032,73,65,0
502.26514,502.45032,67,55,0
502.26514,502.45032,64,55,0
502.6355,502.83093,71,59,0
502.6355,502.83093,68,59,0
502.6355,502.83093,61,50,0
503.05936,503.8326,70,65,0
503.05936,503.8326,61,55,0
503.05936,503.8567,66,55,0
503.8567,504.51395,70,60,0
503.8567,504.51395,61,51,0
503.8567,504.51395,66,51,0
504.53412,504.5825,73,71,0
504.53412,504.5825,66,60,0
504.6309,504.72766,75,78,0
504.6309,504.72766,66,65,0
504.9176,504.96417,73,73,0
504.9176,504.96417,66,61,0
505.01077,505.1025,75,79,0
505.01077,505.1025,66,66,0
505.2886,505.33575,73,76,0
505.2886,505.33575,66,64,0
505.38293,506.1386,77,83,0
505.38293,506.1386,65,70,0
505.38293,506.16214,71,70,0
506.16214,506.8194,65,70,0
506.16214,506.8194,71,70,0
506.16214,506.8194,77,83,0
506.83957,506.93152,77,73,0
506.83957,506.93152,65,58,0
506.83957,506.93152,73,58,0
506.93634,507.20068,77,82,0
506.93634,507.20865,65,66,0
506.93634,507.20865,73,66,0
507.22296,507.31372,73,63,0
507.22296,507.31372,65,63,0
507.22296,507.31372,77,80,0
507.3185,507.60223,73,67,0
507.3185,507.60223,65,67,0
507.3185,507.60223,77,85,0
507.6192,507.73242,73,65,0
507.6192,507.73242,65,65,0
507.6192,507.73242,77,83,0
507.73242,508.48566,78,93,0
507.73242,508.48566,70,78,0
507.73242,508.48566,66,78,0
508.50912,509.17255,78,93,0
508.50912,509.17255,70,78,0
508.50912,509.17255,66,78,0
509.18875,509.23712,69,47,0
509.18875,509.23712,67,47,0
509.18875,509.23712,73,56,0
509.28552,509.5625,69,51,0
509.28552,509.5625,67,51,0
509.28552,509.5625,73,60,0
509.57123,509.61884,69,47,0
509.57123,509.61884,67,47,0
509.57123,509.61884,73,56,0
509.65536,509.93442,74,60,0
509.65536,509.93442,69,50,0
509.65536,509.93442,67,50,0
509.9559,510.00745,76,56,0
509.9559,510.00745,69,47,0
509.9559,510.00745,67,47,0
510.059,510.8196,66,54,0
510.059,510.8196,69,64,0
510.8433,511.50055,69,54,0
510.8433,511.50055,66,54,0
510.8433,511.50055,78,64,0
511.52072,511.61426,78,53,0
511.52072,511.61508,66,53,0
511.6175,511.71365,66,60,0
511.6175,511.71365,78,60,0
511.89474,511.98767,78,56,0
511.89474,511.98767,66,56,0
512.00214,512.0961,76,59,0
512.00214,512.0961,68,59,0
512.2993,512.4084,68,56,0
512.2993,512.4084,74,56,0
512.4084,513.16406,69,54,0
512.4084,513.16406,73,64,0
513.1876,513.84485,76,64,0
513.1876,513.84485,69,54,0
513.865,513.95935,76,53,0
513.865,513.95935,70,53,0
513.9618,514.0573,76,60,0
513.9618,514.0573,70,60,0
514.23724,514.32965,76,56,0
514.23724,514.32965,70,56,0
514.34393,514.4383,74,59,0
514.34393,514.4383,70,59,0
514.645,514.7574,73,56,0
514.645,514.7574,70,56,0
514.7574,515.51306,71,64,0
515.53656,516.19385,67,54,0
515.53656,516.19385,74,64,0
516.214,516.3108,71,53,0
516.214,516.3108,67,53,0
516.214,516.3108,61,53,0
516.3108,516.4069,71,60,0
516.3108,516.4069,67,60,0
516.3108,516.4069,61,60,0
516.59924,516.6954,71,56,0
516.59924,516.6954,67,56,0
516.59924,516.6954,61,56,0
516.6954,516.7894,69,59,0
516.6954,516.7894,66,59,0
516.6954,516.7894,61,59,0
516.99585,517.1082,67,56,0
516.99585,517.1082,64,56,0
516.99585,517.1082,61,56,0
517.1082,517.8866,67,64,0
517.1082,517.8866,57,54,0
517.1082,517.9109,64,54,0
517.9109,518.677,62,54,0
517.9109,518.677,66,64,0
517.9109,518.677,57,54,0
518.68506,519.04694,69,67,0
518.68506,519.04694,66,56,0
518.68506,519.04694,62,56,0
519.06604,519.43256,70,63,0
519.06604,519.43256,66,53,0
519.06604,519.43256,62,53,0
519.45184,520.17596,71,60,0
519.45184,520.17596,67,51,0
519.45184,520.17596,62,51,0
520.17596,520.5301,76,67,0
520.17596,520.5301,71,56,0
520.17596,520.5301,67,56,0
520.5407,520.7231,79,68,0
520.5407,520.7231,76,57,0
520.5407,520.7231,71,57,0
520.90546,521.0878,71,53,0
520.90546,521.0878,67,53,0
520.90546,521.0954,76,63,0
521.2702,521.4509,67,58,0
521.2702,521.4509,64,49,0
521.6445,522.3697,73,65,0
521.6445,522.3697,69,55,0
521.6445,522.3697,64,55,0
522.3697,522.7238,78,70,0
522.3697,522.7238,73,59,0
522.3697,522.7238,69,59,0
522.73444,522.9168,81,69,0
522.73444,522.9168,78,58,0
522.73444,522.9168,73,58,0
523.0992,523.28156,69,51,0
523.0992,523.28156,78,60,0
523.0992,523.28156,73,51,0
523.4639,523.64465,66,47,0
523.4639,523.64465,69,56,0
523.83826,524.5659,71,56,0
523.83826,524.5659,74,67,0
523.83826,524.5659,66,56,0
524.5659,524.92004,79,78,0
524.5659,524.92004,71,66,0
524.5659,524.92004,74,66,0
524.93066,525.11304,83,71,0
524.93066,525.11304,79,71,0
524.93066,525.11304,74,60,0
525.2954,525.4806,71,60,0
525.2954,525.4806,79,71,0
525.2954,525.4806,74,60,0
525.6658,525.8612,67,68,0
525.6658,525.8612,71,75,0
526.0896,526.86285,73,66,0
526.0896,526.86285,69,66,0
526.0896,526.86285,81,78,0
526.0896,526.88696,79,66,0
526.88696,527.5442,73,61,0
526.88696,527.5442,79,61,0
526.88696,527.5442,69,61,0
526.88696,527.5442,81,72,0
527.5644,527.6563,79,58,0
527.5644,527.6563,81,73,0
527.5644,527.6563,73,58,0
527.66113,527.9263,81,82,0
527.66113,527.9335,73,66,0
527.66113,527.9335,79,66,0
527.94775,528.0385,81,80,0
527.94775,528.0385,79,63,0
527.94775,528.0385,73,63,0
528.04333,528.327,73,67,0
528.04333,528.327,83,85,0
528.04333,528.327,79,67,0
528.34406,528.4572,73,65,0
528.34406,528.4572,85,83,0
528.34406,528.4572,79,65,0
528.4572,529.21045,78,78,0
528.4572,529.21045,74,78,0
528.4572,529.21045,86,93,0
529.23395,529.9019,78,78,0
529.23395,529.9019,86,93,0
529.23395,529.9019,74,78,0
529.91833,529.9675,81,50,0
529.91833,529.9675,78,42,0
530.0167,530.3,78,45,0
530.0167,530.3,81,54,0
530.3089,530.3576,81,50,0
530.3089,530.3576,78,42,0
530.4063,530.6903,77,45,0
530.4063,530.6903,80,54,0
530.7002,530.7539,81,50,0
530.7002,530.7539,78,42,0
530.8077,531.6769,74,40,0
530.8077,531.6769,78,48,0
531.6769,532.3893,74,40,0
531.6769,532.3893,78,48,0
532.41113,532.45953,78,44,0
532.41113,532.45953,74,37,0
532.5079,532.60223,74,40,0
532.5079,532.60223,78,48,0
532.7909,532.8381,78,44,0
532.7909,532.8381,74,37,0
532.88525,532.9773,77,48,0
532.88525,532.9773,73,40,0
533.18,533.23535,74,37,0
533.18,533.23535,78,44,0
533.2907,534.15985,81,48,0
533.2907,534.15985,78,40,0
534.15985,534.87225,79,48,0
534.15985,534.87225,76,40,0
534.8941,534.9425,76,37,0
534.8941,534.9425,81,37,0
534.8941,534.9425,79,44,0
534.9909,535.08405,79,48,0
534.9909,535.08405,76,40,0
534.9909,535.08405,81,40,0
535.2704,535.31696,79,44,0
535.2704,535.31696,76,37,0
535.2704,535.31696,81,37,0
535.3636,535.45447,78,48,0
535.3636,535.45447,81,40,0
535.3636,535.45447,75,40,0
535.65607,535.7114,79,44,0
535.65607,535.7114,76,37,0
535.65607,535.7114,81,44,0
535.7668,536.6022,73,40,0
535.7668,536.6022,76,40,0
535.7668,536.6022,81,48,0
536.6104,537.3228,81,48,0
536.6104,537.3228,76,40,0
536.6104,537.3228,73,40,0
537.34467,537.39307,76,44,0
537.34467,537.39307,73,37,0
537.34467,537.39307,81,37,0
537.4414,537.53577,76,48,0
537.4414,537.53577,81,40,0
537.4414,537.53577,73,40,0
537.7244,537.7716,76,44,0
537.7244,537.7716,73,37,0
537.7244,537.7716,81,37,0
537.8188,537.9108,71,40,0
537.8188,537.9108,81,40,0
537.8188,537.9108,74,48,0
538.1305,538.19434,76,44,0
538.1305,538.19434,73,37,0
538.1305,538.19434,81,44,0
538.2582,539.163,77,36,0
538.2582,539.164,73,36,0
538.2582,539.164,81,43,0
539.1727,539.88513,81,43,0
539.1727,539.88513,78,36,0
539.1727,539.88513,74,36,0
539.907,539.9554,78,37,0
539.907,539.9554,81,44,0
539.907,539.9554,74,37,0
540.0037,540.0981,74,40,0
540.0037,540.0981,78,40,0
540.0037,540.0981,81,48,0
540.28674,540.3339,81,45,0
540.28674,540.3339,78,38,0
540.28674,540.3339,74,38,0
540.3811,540.47314,78,41,0
540.3811,540.47314,80,50,0
540.3811,540.47314,74,41,0
540.67584,540.7312,81,48,0
540.67584,540.7312,74,40,0
540.67584,540.7312,78,40,0
540.78656,541.647,83,52,0
540.78656,541.647,78,44,0
540.78656,541.647,74,44,0
541.6557,542.3621,78,44,0
541.6557,542.3621,83,52,0
541.6557,542.3621,74,44,0
542.3835,542.4319,74,40,0
542.3835,542.4319,78,40,0
542.3835,542.4319,83,48,0
542.4803,542.57465,74,44,0
542.4803,542.57465,78,44,0
542.4803,542.57465,83,52,0
542.7633,542.8105,86,48,0
542.7633,542.8105,74,40,0
542.7633,542.8105,78,40,0
542.85767,542.94965,74,43,0
542.85767,542.94965,85,51,0
542.85767,542.94965,78,43,0
543.1524,543.20776,78,39,0
543.1524,543.20776,83,47,0
543.1524,543.20776,74,39,0
543.2631,544.12354,78,40,0
543.2631,544.12354,74,40,0
543.2631,544.12354,81,48,0
544.13226,544.84467,78,40,0
544.13226,544.84467,74,48,0
544.13226,544.84467,81,48,0
544.8665,544.9149,78,44,0
544.8665,544.9149,74,37,0
544.8665,544.9149,81,37,0
544.9633,545.0576,74,40,0
544.9633,545.0576,78,48,0
544.9633,545.0576,81,40,0
545.2463,545.29346,78,44,0
545.2463,545.29346,81,37,0
545.2463,545.29346,74,37,0
545.34064,545.4327,79,48,0
545.34064,545.4327,83,40,0
545.34064,545.4327,74,40,0
545.6354,545.69073,81,44,0
545.6354,545.69073,78,44,0
545.6354,545.69073,74,37,0
545.7461,546.58716,78,40,0
545.7461,546.58716,73,40,0
545.7461,546.58716,81,48,0
546.61523,547.32764,73,38,0
546.61523,547.32764,76,38,0
546.61523,547.32764,79,45,0
547.34955,547.3992,69,35,0
547.34955,547.3992,79,35,0
547.34955,547.3992,76,42,0
547.44885,547.54535,76,45,0
547.44885,547.54535,69,38,0
547.44885,547.54535,79,38,0
547.7382,547.7865,76,42,0
547.7382,547.7865,69,35,0
547.7382,547.7865,79,35,0
547.8347,547.9291,74,45,0
547.8347,547.9291,78,37,0
547.8347,547.9291,69,37,0
548.15106,548.2149,73,42,0
548.15106,548.2149,69,35,0
548.15106,548.2149,76,42,0
548.2787,549.16516,69,32,0
548.2787,549.16516,66,32,0
548.2787,549.16516,74,38,0
549.19324,549.61285,74,38,0
549.19324,549.61285,69,32,0
549.19324,549.61285,66,32,0
549.92755,549.97784,69,30,0
549.92755,549.97784,79,30,0
549.92755,549.97784,76,36,0
550.0282,550.1262,76,39,0
550.0282,550.1262,69,33,0
550.0282,550.1262,79,33,0
550.3223,550.37134,69,30,0
550.3223,550.37134,76,35,0
550.3223,550.37134,79,30,0
550.42035,550.5165,78,31,0
550.42035,550.5165,69,31,0
550.42035,550.5165,74,38,0
550.7403,550.80414,73,34,0
550.7403,550.80414,69,29,0
550.7403,550.80414,76,34,0
550.868,551.75446,69,28,0
550.868,551.75446,66,28,0
550.868,551.75446,74,33,0
551.78253,552.2021,74,32,0
551.78253,552.2021,69,26,0
551.78253,552.2021,66,26,0
552.5168,552.5687,76,28,0
552.5168,552.5687,69,23,0
552.5168,552.5687,79,23,0
552.6206,552.72125,76,30,0
552.6206,552.72125,79,25,0
552.6206,552.72125,69,25,0
552.9226,552.97296,76,26,0
552.9226,552.97296,69,22,0
552.9226,552.97296,79,22,0
553.0233,553.12164,69,23,0
553.0233,553.12164,78,23,0
553.0233,553.12164,74,29,0
553.34766,553.4115,73,25,0
553.34766,553.4115,69,21,0
553.34766,553.4115,76,25,0
553.47534,554.36176,66,24,0
553.47534,554.36176,74,28,0
553.47534,554.36176,69,24,0
554.3899,554.6081,74,28,0
554.3899,554.6081,69,24,0
554.3899,554.6081,66,24,0
555.2757,555.4877,66,24,0
555.2757,555.4877,74,28,0
555.2757,555.4877,69,24,0
555.6997,555.9236,66,24,0
555.6997,555.9236,69,28,0
556.14746,557.0664,74,28,0
556.14746,557.0664,66,24,0
556.14746,557.0664,69,24,0
557.09454,557.3135,66,24,0
557.09454,557.3135,69,24,0
557.09454,557.3135,74,28,0
557.98193,558.1939,66,24,0
557.98193,558.1939,69,24,0
557.98193,558.1939,74,28,0
558.40594,558.63153,69,28,0
558.40594,558.63153,66,24,0
558.85706,559.0818,69,24,0
558.85706,559.0818,66,24,0
558.85706,559.0818,74,28,0
560.2054,560.44635,74,26,0
560.2054,560.44635,69,23,0
560.2054,560.44635,66,23,0
561.6512,563.81335,66,21,0
561.6512,563.81335,74,25,0
561.6512,563.81335,69,21,0
0.29032275,0.33870986,45,60,0
0.29032275,0.33870986,33,51,0
0.387097,0.6774197,45,64,0
0.387097,0.6774197,33,54,0
0.6774197,0.7258069,45,59,0
0.6774197,0.7258069,33,50,0
0.774194,1.0708352,47,64,0
0.774194,1.0708352,35,54,0
1.0708352,1.1223816,49,60,0
1.0708352,1.1223816,37,51,0
1.173928,1.9345492,50,68,0
1.173928,1.9345492,45,57,0
1.173928,1.9345492,38,57,0
1.958242,2.709049,50,68,0
1.958242,2.709049,45,57,0
1.958242,2.709049,38,57,0
2.732436,3.117051,50,63,0
2.732436,3.117051,38,53,0
3.117051,3.5340774,54,63,0
3.117051,3.5340774,42,53,0
3.5340774,4.2897587,49,68,0
3.5340774,4.2897587,45,57,0
3.5340774,4.2897587,37,57,0
4.3132973,5.0641046,49,68,0
4.3132973,5.0641046,45,57,0
4.3132973,5.0641046,37,57,0
5.0874915,5.458511,49,63,0
5.0874915,5.458511,37,53,0
5.4696574,5.8871555,49,63,0
5.4696574,5.8871555,37,53,0
5.8871555,6.640393,47,68,0
5.8871555,6.640393,42,57,0
5.8871555,6.640393,35,57,0
6.6638556,7.23638,47,68,0
6.6638556,7.23638,42,57,0
6.6638556,7.23638,35,57,0
7.2442417,7.338051,52,62,0
7.2442417,7.338051,40,52,0
7.430955,7.5234003,52,63,0
7.430955,7.5234003,40,53,0
7.615322,7.7064962,52,66,0
7.615322,7.7064962,40,56,0
7.796924,7.8866487,52,68,0
7.796924,7.8866487,40,57,0
7.9762006,8.091585,52,70,0
7.9762006,8.091585,40,59,0
8.20697,8.945858,45,73,0
8.20697,8.945858,33,62,0
8.968874,9.707762,52,68,0
8.968874,9.707762,45,57,0
9.730778,10.11173,66,45,0
10.11173,10.4975815,62,37,0
10.4975815,10.850523,67,45,0
10.850523,11.221691,71,39,0
11.221691,11.586432,76,39,0
11.586432,11.768804,61,44,0
11.951175,12.315917,73,36,0
12.315917,12.690214,67,36,0
12.690214,13.04212,66,45,0
13.04212,13.415421,69,39,0
13.415421,13.780162,74,39,0
13.780162,13.962533,59,44,0
14.144904,14.509646,71,36,0
14.509646,14.883944,66,36,0
14.883944,15.236884,64,45,0
15.236884,15.611628,67,39,0
15.611628,15.97637,73,39,0
15.97637,16.158741,52,44,0
16.341112,16.711481,64,34,0
16.711481,17.135334,65,32,0
17.135334,17.908588,73,30,0
17.135334,17.908588,66,25,0
17.932674,18.51332,73,47,0
17.932674,18.51332,66,39,0
18.70687,19.053022,73,44,0
18.70687,19.053022,66,37,0
19.091484,19.463568,73,44,0
19.091484,19.463568,66,37,0
19.50851,20.264193,71,47,0
19.50851,20.264193,61,39,0
20.287731,21.05386,71,47,0
20.287731,21.05386,61,39,0
21.061924,21.408077,71,44,0
21.061924,21.408077,61,37,0
21.446539,21.818623,71,44,0
21.446539,21.818623,61,37,0
21.863565,22.619247,70,47,0
21.863565,22.619247,66,39,0
22.642786,23.316486,70,47,0
22.642786,23.316486,66,39,0
23.324604,23.372992,45,60,0
23.324604,23.372992,33,51,0
23.421377,23.7117,45,64,0
23.421377,23.7117,33,54,0
23.7117,23.760088,45,59,0
23.7117,23.760088,33,50,0
23.808475,24.105116,45,64,0
23.808475,24.105116,33,54,0
24.105116,24.156662,45,60,0
24.105116,24.156662,33,51,0
24.208208,24.96883,47,68,0
24.208208,24.96883,35,57,0
24.992523,25.74333,47,68,0
24.992523,25.74333,35,57,0
25.766716,26.15133,47,63,0
25.766716,26.15133,35,53,0
26.15133,26.568357,47,63,0
26.15133,26.568357,35,53,0
26.568357,27.32404,49,68,0
26.568357,27.32404,45,57,0
26.568357,27.32404,37,57,0
27.347578,28.098385,49,68,0
27.347578,28.098385,45,57,0
27.347578,28.098385,37,57,0
28.121773,28.492792,49,63,0
28.121773,28.492792,37,53,0
28.503939,28.921436,49,63,0
28.503939,28.921436,37,53,0
28.921436,29.674673,48,68,0
28.921436,29.674673,36,57,0
29.698137,30.27066,47,68,0
29.698137,30.27066,35,57,0
30.278522,30.372332,46,62,0
30.278522,30.372332,34,52,0
30.465237,30.557682,46,63,0
30.465237,30.557682,34,53,0
30.649603,30.740778,46,66,0
30.649603,30.740778,34,56,0
30.831205,30.920929,46,68,0
30.831205,30.920929,34,57,0
31.01048,31.125866,46,70,0
31.01048,31.125866,34,59,0
31.241251,31.980139,45,73,0
31.241251,31.980139,33,62,0
32.003155,32.742043,52,68,0
32.003155,32.742043,45,57,0
32.76506,33.14601,61,45,0
33.14601,33.531864,57,37,0
33.531864,33.884804,62,45,0
33.884804,34.25597,66,39,0
34.25597,34.620712,71,39,0
34.620712,34.803085,56,44,0
34.985455,35.350197,68,36,0
35.350197,35.724495,62,36,0
35.724495,36.0764,61,45,0
36.0764,36.4497,64,39,0
36.4497,36.81444,69,39,0
36.81444,36.996815,54,44,0
37.179184,37.543926,66,36,0
37.543926,37.918224,61,36,0
37.918224,38.271164,59,45,0
38.271164,38.64591,62,39,0
38.64591,39.01065,68,39,0
39.01065,39.19302,47,44,0
39.375393,39.74576,59,34,0
39.74576,40.169613,60,32,0
40.169613,40.94287,68,30,0
40.169613,40.94287,61,25,0
40.966957,41.733086,68,47,0
40.966957,41.733086,61,39,0
41.74115,42.087303,68,44,0
41.74115,42.087303,61,37,0
42.125767,42.49785,68,44,0
42.125767,42.49785,61,37,0
42.542793,43.298473,68,47,0
42.542793,43.298473,64,39,0
42.542793,43.298473,59,39,0
43.32201,43.991367,68,47,0
43.32201,43.991367,64,39,0
43.32201,43.991367,59,39,0
43.99943,44.096207,68,39,0
44.096207,44.384666,69,44,0
44.096207,44.4688,64,39,0
44.384666,44.48082,68,41,0
44.48082,44.78549,69,43,0
44.48082,44.8838,64,39,0
44.78549,44.897846,71,41,0
44.897846,45.653526,57,39,0
44.897846,45.653526,64,47,0
45.677067,46.35077,64,47,0
45.677067,46.35077,57,39,0
46.358883,46.407272,45,60,0
46.455658,46.552433,45,64,0
46.742374,46.78896,45,59,0
46.835545,46.927284,43,64,0
47.12212,47.173668,45,60,0
47.225216,47.985836,46,68,0
47.225216,47.985836,34,57,0
48.00953,48.666786,46,68,0
48.00953,48.666786,34,57,0
48.686947,48.735336,57,60,0
48.783722,48.877182,57,64,0
49.064095,49.110825,57,59,0
49.157555,49.24902,55,64,0
49.443573,49.49512,57,60,0
49.546665,50.30729,58,68,0
49.546665,50.30729,46,57,0
49.546665,50.330982,53,57,0
50.330982,50.98824,58,68,0
50.330982,50.98824,46,57,0
50.330982,50.98824,53,57,0
51.0084,51.05679,65,60,0
51.0084,51.05679,62,51,0
51.105175,51.199512,65,64,0
51.105175,51.199512,62,54,0
51.388195,51.435364,65,59,0
51.388195,51.435364,62,50,0
51.482533,51.57456,64,64,0
51.482533,51.57456,61,54,0
51.76592,51.81559,65,60,0
51.76592,51.81559,62,51,0
51.865257,51.9593,62,64,0
51.865257,51.9593,58,54,0
52.14739,52.194412,62,59,0
52.14739,52.194412,58,50,0
52.241432,52.333458,61,64,0
52.241432,52.333458,57,54,0
52.52482,52.57449,62,60,0
52.52482,52.57449,58,51,0
52.623966,52.7186,58,64,0
52.623966,52.7186,55,54,0
52.90788,52.955196,55,50,0
52.90788,52.955196,58,59,0
53.002514,53.094822,54,54,0
53.002514,53.094822,57,64,0
53.28861,53.338947,55,51,0
53.28861,53.338947,58,60,0
53.389282,54.149902,55,68,0
53.389282,54.173595,51,57,0
54.173595,54.96791,50,68,0
54.173595,54.96791,38,57,0
54.976273,55.77325,48,68,0
54.976273,55.77325,36,57,0
55.781643,55.884735,53,68,0
55.781643,55.884735,41,57,0
56.19401,56.303104,53,68,0
56.19401,56.303104,41,57,0
56.630375,57.469597,46,68,0
56.630375,57.469597,34,57,0
57.47843,58.26511,53,68,0
57.47843,58.26511,46,57,0
59.168827,59.370846,46,55,0
59.572865,59.805424,53,42,0
60.037983,60.247772,58,35,0
60.037983,60.247772,62,42,0
60.45756,60.66735,46,55,0
60.869022,61.0577,53,42,0
61.24638,61.430428,62,42,0
61.24638,61.430428,58,35,0
61.65183,61.85385,45,55,0
62.05587,62.28843,53,42,0
62.520985,62.730778,60,35,0
62.520985,62.730778,63,42,0
62.940567,63.150356,45,55,0
63.352024,63.540703,53,42,0
63.72938,63.913433,63,42,0
63.72938,63.913433,60,35,0
64.134834,64.33685,41,55,0
64.53887,64.75865,53,42,0
64.97843,65.188225,60,35,0
64.97843,65.188225,63,42,0
65.39802,65.6078,41,55,0
65.80947,65.99815,53,42,0
66.18683,66.37088,63,42,0
66.18683,66.37088,60,35,0
66.6262,66.85092,46,49,0
67.07564,67.3082,53,37,0
67.54076,67.75054,58,31,0
67.54076,67.75054,62,37,0
67.960335,68.17012,46,55,0
68.371796,68.56047,53,37,0
68.74915,68.9332,58,32,0
68.74915,68.9332,62,38,0
69.1546,69.35662,43,60,0
69.55864,69.7912,55,46,0
70.02376,70.23355,58,38,0
70.02376,70.23355,62,46,0
70.44334,70.64882,43,55,0
70.84833,71.03701,55,46,0
71.22569,71.40974,62,45,0
71.22569,71.40974,58,37,0
71.63114,71.83316,46,55,0
72.03518,72.26774,53,42,0
72.5003,72.71008,58,35,0
72.5003,72.71008,62,42,0
72.919876,73.12967,46,55,0
73.33134,73.52001,53,42,0
73.708694,73.892746,58,35,0
73.708694,73.892746,62,42,0
74.11414,74.31616,41,55,0
74.51818,74.75074,53,42,0
74.9833,75.19309,63,39,0
74.9833,75.19309,60,33,0
75.40288,75.61267,41,52,0
75.8169,76.00983,53,39,0
76.20276,76.39143,60,33,0
76.20276,76.39143,63,39,0
76.64675,76.871475,46,44,0
77.09619,77.32875,50,33,0
77.56131,77.771095,53,27,0
77.56131,77.771095,58,33,0
77.98089,78.190674,41,49,0
78.39624,78.59232,51,35,0
78.7884,78.980705,53,29,0
78.7884,78.980705,57,35,0
79.23603,79.46075,46,41,0
79.68546,79.91802,50,31,0
80.15058,80.360374,53,25,0
80.15058,80.360374,58,31,0
80.57016,80.77995,41,46,0
80.988655,81.189995,51,31,0
81.391335,81.58806,53,25,0
81.391335,81.58806,57,30,0
81.843376,82.17109,46,34,0
82.18046,82.22884,34,60,0
82.27723,82.37401,34,64,0
82.56395,82.61053,34,59,0
82.65711,82.748856,34,64,0
82.93406,82.98079,36,60,0
83.02752,83.3144,38,67,0
83.3226,83.37099,38,60,0
83.41937,83.51614,38,64,0
83.70609,83.75267,38,59,0
83.799255,83.891,38,64,0
84.07708,84.12425,40,60,0
84.171425,84.458305,41,73,0
84.46651,84.51489,41,66,0
84.56328,84.66005,41,70,0
84.84999,84.896576,41,64,0
84.94316,85.034904,41,70,0
85.220985,85.26816,43,66,0
85.31533,85.60221,45,80,0
85.61041,85.6588,45,61,0
85.61041,85.6588,33,52,0
85.707184,85.803955,45,65,0
85.707184,85.803955,33,55,0
85.9939,86.04048,47,61,0
85.9939,86.04048,35,52,0
86.08707,86.17881,49,67,0
86.08707,86.17881,37,57,0
86.36489,86.41206,50,65,0
86.36489,86.41206,38,55,0
86.459236,87.21491,52,70,0
86.459236,87.21491,49,58,0
86.459236,87.21491,40,58,0
86.459236,87.23845,45,58,0
87.23845,87.89571,52,70,0
87.23845,87.89571,45,58,0
87.23845,87.89571,40,58,0
87.23845,87.89571,49,58,0
87.91587,88.01265,52,66,0
87.91587,88.01265,40,56,0
88.01265,88.27698,52,69,0
88.01265,88.27698,40,58,0
88.29927,88.39481,50,65,0
88.29927,88.39481,38,55,0
88.39481,88.669106,49,72,0
88.39481,88.669106,37,60,0
88.69552,88.80873,47,74,0
88.69552,88.80873,35,62,0
88.80873,89.561966,45,74,0
88.80873,89.561966,33,65,0
89.58543,90.248856,45,74,0
89.58543,90.248856,33,65,0
89.58543,90.248856,40,65,0
90.26504,90.31343,45,48,0
90.36182,90.457054,47,51,0
90.64753,90.695145,45,47,0
90.74277,90.83594,47,51,0
91.032196,91.08374,49,48,0
91.135284,91.89591,50,54,0
91.9196,92.57686,54,54,0
91.9196,92.57686,50,45,0
92.59702,92.68573,50,44,0
92.693794,92.78995,47,42,0
92.693794,92.78995,50,50,0
92.982254,93.07841,47,40,0
92.982254,93.07841,50,47,0
93.0736,93.167755,46,41,0
93.083115,93.177155,50,49,0
93.37559,93.48468,50,47,0
93.37559,93.48468,46,40,0
93.48468,94.240364,52,54,0
93.48468,94.240364,45,45,0
94.2639,94.92116,57,54,0
94.2639,94.92116,45,45,0
94.94132,95.03003,57,44,0
94.94132,95.03003,49,35,0
95.03809,95.13364,49,42,0
95.03809,95.13364,57,50,0
95.32472,95.42026,49,40,0
95.32472,95.42026,57,47,0
95.42026,95.5146,57,49,0
95.42026,95.5146,49,41,0
95.7213,95.83366,57,47,0
95.7213,95.83366,49,40,0
95.83366,96.58934,59,54,0
95.83366,96.58934,47,45,0
95.83366,96.61288,54,45,0
96.61288,97.270134,59,54,0
96.61288,97.270134,50,45,0
97.2903,97.379005,59,44,0
97.2903,97.379005,52,35,0
97.38707,97.48322,52,42,0
97.38707,97.48322,59,50,0
97.67554,97.77169,52,40,0
97.67554,97.77169,59,47,0
97.77169,97.86573,59,49,0
97.77169,97.86573,52,41,0
98.072136,98.184494,59,47,0
98.072136,98.184494,52,40,0
98.184494,98.96292,57,54,0
98.184494,98.96292,45,45,0
98.184494,98.98717,52,45,0
98.98717,99.7533,57,54,0
98.98717,99.7533,52,45,0
98.98717,99.7533,45,45,0
99.76137,100.1312,50,45,0
100.14232,100.516914,49,37,0
100.52817,100.64581,47,67,0
100.64581,100.763466,46,57,0
100.763466,100.88111,47,57,0
100.88111,100.9998,43,68,0
100.9998,101.1185,42,61,0
101.1185,101.25228,43,65,0
101.25228,101.89058,40,74,0
101.89058,101.98176,42,61,0
101.98176,102.25532,43,69,0
102.25532,102.346504,45,62,0
102.346504,102.620804,47,70,0
102.620804,102.7208,49,62,0
102.7208,102.838104,45,69,0
102.838104,102.95541,44,63,0
102.95541,103.07271,45,59,0
103.07271,103.19247,42,68,0
103.19247,103.312225,41,65,0
103.312225,103.44601,42,69,0
103.44601,104.084305,38,74,0
104.084305,104.17549,40,61,0
104.17549,104.44905,42,69,0
104.44905,104.54023,43,62,0
104.54023,104.81453,45,70,0
104.81453,104.91453,47,62,0
104.91453,105.03218,43,70,0
105.03218,105.149826,42,58,0
105.149826,105.26747,43,58,0
105.26747,105.387955,40,63,0
105.387955,105.50844,39,65,0
105.50844,105.64221,40,68,0
105.64221,106.28051,37,72,0
106.28051,106.3717,38,59,0
106.3717,106.649475,40,73,0
106.649475,106.742065,37,57,0
106.742065,107.04347,41,71,0
107.04347,107.16592,37,58,0
107.16592,107.93918,42,71,0
107.963264,108.62052,42,68,0
108.64068,108.68907,46,61,0
108.73746,108.83423,47,65,0
109.02417,109.070755,46,61,0
109.11734,109.20908,47,67,0
109.395164,109.44234,46,65,0
109.4895,110.245186,49,70,0
109.4895,110.26872,44,58,0
110.26872,110.92598,49,70,0
110.26872,110.92598,44,58,0
110.946144,111.042915,49,66,0
110.946144,111.042915,44,56,0
111.042915,111.30725,49,69,0
111.042915,111.30725,46,58,0
111.329544,111.42509,49,65,0
111.329544,111.42509,44,55,0
111.42509,111.69938,49,72,0
111.42509,111.69938,46,60,0
111.72579,111.839,49,74,0
111.72579,111.839,44,62,0
111.839,112.59224,49,74,0
111.839,112.59224,42,65,0
112.6157,113.27913,49,74,0
112.6157,113.27913,42,65,0
113.29531,113.3437,57,48,0
113.39209,113.66907,57,51,0
113.6778,113.72542,57,47,0
113.761925,114.04099,59,51,0
114.06247,114.11401,61,48,0
114.16556,114.92618,62,54,0
114.949875,115.60713,62,54,0
115.6273,115.713585,62,44,0
115.72407,115.82022,62,50,0
116.00131,116.09426,62,47,0
116.10868,116.20273,62,49,0
116.10868,116.20273,59,41,0
116.40586,116.51495,62,47,0
116.40586,116.51495,59,40,0
116.51495,117.27064,64,54,0
116.51495,117.27064,57,45,0
117.294174,117.95143,61,54,0
117.294174,117.95143,57,45,0
117.971596,118.057884,61,44,0
117.971596,118.057884,54,35,0
118.06837,118.16391,54,42,0
118.06837,118.16391,61,50,0
118.34384,118.4362,54,40,0
118.34384,118.4362,61,47,0
118.45053,118.54487,62,49,0
118.45053,118.54487,54,41,0
118.75157,118.86393,64,47,0
118.75157,118.86393,54,40,0
118.86393,119.61961,62,54,0
118.86393,119.64315,55,45,0
119.64315,120.30041,59,54,0
119.64315,120.30041,55,45,0
120.32057,120.40928,45,44,0
120.41734,120.5135,45,50,0
120.7058,120.801956,45,47,0
120.801956,120.896,45,49,0
121.10241,121.21477,45,47,0
121.21477,121.993195,50,54,0
122.01744,122.78357,50,54,0
122.79163,123.15354,50,45,0
123.17259,123.55844,49,37,0
123.55844,123.67609,47,67,0
123.67609,123.79373,46,57,0
123.79373,123.911385,47,57,0
123.911385,124.030075,43,68,0
124.030075,124.14877,42,61,0
124.14877,124.28255,43,65,0
124.28255,124.920845,40,74,0
124.920845,125.01203,42,61,0
125.01203,125.28559,43,69,0
125.28559,125.37678,45,62,0
125.37678,125.65107,47,70,0
125.65107,125.751076,50,62,0
125.751076,125.86838,49,69,0
125.86838,125.98568,48,63,0
125.98568,126.10298,49,59,0
126.10298,126.22274,45,68,0
126.22274,126.3425,44,65,0
126.3425,126.47628,45,69,0
126.47628,127.11458,42,74,0
127.11458,127.205765,44,61,0
127.205765,127.47932,45,69,0
127.47932,127.5705,47,62,0
127.5705,127.8448,49,70,0
127.8448,127.9448,52,62,0
127.9448,128.06245,50,70,0
128.06245,128.1801,49,58,0
128.1801,128.29774,50,58,0
128.29774,128.41823,47,63,0
128.41823,128.53871,46,65,0
128.53871,128.67249,47,68,0
128.67249,129.31079,43,72,0
129.31079,129.40198,45,59,0
129.40198,129.67975,47,73,0
129.67975,129.77234,49,57,0
129.77234,130.07375,50,71,0
130.07375,130.1962,54,58,0
130.1962,130.96945,52,85,0
130.99353,131.65079,57,81,0
130.99353,131.65079,52,68,0
131.67096,131.76773,57,66,0
131.67096,131.76773,45,56,0
131.76773,132.03206,57,69,0
131.76773,132.03206,45,58,0
132.05435,132.14989,55,65,0
132.05435,132.14989,43,55,0
132.14989,132.42418,54,72,0
132.14989,132.42418,42,60,0
132.4506,132.56381,52,74,0
132.4506,132.56381,40,62,0
132.56381,133.31705,50,74,0
132.56381,133.31705,45,65,0
132.56381,133.31705,38,65,0
133.34052,134.00394,50,74,0
133.34052,134.00394,38,65,0
133.34052,134.00394,45,65,0
134.89037,135.65099,55,54,0
134.89037,135.67468,49,45,0
134.89037,135.67468,45,45,0
135.67468,136.45782,55,54,0
135.67468,136.45782,49,45,0
135.67468,136.45782,45,45,0
137.28238,138.09619,50,39,0
137.28238,138.12154,45,33,0
137.28238,138.12154,38,33,0
138.12154,138.82901,50,37,0
138.12154,138.82901,45,31,0
138.12154,138.82901,38,31,0
138.85071,138.8991,45,60,0
138.94748,139.04425,45,64,0
139.23277,139.27864,45,59,0
139.32451,139.41487,43,64,0
139.60834,139.65988,45,60,0
139.71143,140.47205,46,68,0
139.71143,140.47205,34,57,0
140.49574,141.153,46,68,0
140.49574,141.153,34,57,0
141.17316,141.22154,57,60,0
141.26993,141.36339,57,64,0
141.55031,141.59703,57,59,0
141.64377,141.7344,55,64,0
141.92813,141.97968,57,60,0
142.03122,142.79184,58,68,0
142.03122,142.79184,46,57,0
142.03122,142.81554,53,57,0
142.81554,143.4728,58,68,0
142.81554,143.4728,46,57,0
142.81554,143.4728,53,57,0
143.49295,143.54134,65,60,0
143.49295,143.54134,62,51,0
143.58972,143.68407,65,64,0
143.58972,143.68407,62,54,0
143.87274,143.91992,65,59,0
143.87274,143.91992,62,50,0
143.96709,144.05855,64,64,0
143.96709,144.05855,61,54,0
144.24934,144.29901,65,60,0
144.24934,144.29901,62,51,0
144.3487,144.44273,62,64,0
144.3487,144.44273,58,54,0
144.63081,144.67784,62,59,0
144.63081,144.67784,58,50,0
144.72487,144.81606,61,64,0
144.72487,144.81606,57,54,0
145.00658,145.05624,62,60,0
145.00658,145.05624,58,51,0
145.10571,145.20035,58,64,0
145.10571,145.20035,55,54,0
145.38963,145.43695,55,50,0
145.38963,145.43695,58,59,0
145.48427,145.57657,54,54,0
145.48427,145.57657,57,64,0
145.77036,145.8207,55,51,0
145.77036,145.8207,58,60,0
145.87103,146.63165,55,68,0
145.87103,146.65535,51,57,0
146.65535,147.44966,50,68,0
146.65535,147.44966,38,57,0
147.45802,148.255,48,68,0
147.45802,148.255,36,57,0
148.2634,148.36649,53,68,0
148.2634,148.36649,41,57,0
148.67577,148.78485,53,68,0
148.67577,148.78485,41,57,0
149.11212,149.95135,46,68,0
149.11212,149.95135,34,57,0
149.96019,150.74686,53,68,0
149.96019,150.74686,46,57,0
151.65057,151.8526,46,55,0
152.05461,152.28717,53,42,0
152.51973,152.72952,58,35,0
152.51973,152.72952,62,42,0
152.93932,153.14911,46,55,0
153.35077,153.53946,53,42,0
153.72813,153.91219,62,42,0
153.72813,153.91219,58,35,0
154.14384,154.34586,45,55,0
154.54788,154.78044,53,42,0
155.013,155.22278,60,35,0
155.013,155.22278,63,42,0
155.43257,155.64236,45,55,0
155.84404,156.0298,53,42,0
156.21555,156.39682,63,42,0
156.21555,156.39682,60,35,0
156.61823,156.82024,41,55,0
157.02226,157.24205,53,42,0
157.46182,157.67162,60,35,0
157.46182,157.67162,63,42,0
157.88141,158.09119,41,55,0
158.29286,158.48154,53,42,0
158.67023,158.85426,63,42,0
158.67023,158.85426,60,35,0
159.12454,159.34352,46,49,0
159.5625,159.79779,53,37,0
160.03308,160.24287,58,31,0
160.03308,160.24287,62,37,0
160.45267,160.66246,46,55,0
160.86412,161.0528,53,37,0
161.24149,161.42554,58,32,0
161.24149,161.42554,62,38,0
161.64693,161.84895,43,60,0
162.05098,162.28352,55,46,0
162.51608,162.72588,58,38,0
162.51608,162.72588,62,46,0
162.93567,163.14114,43,55,0
163.34067,163.52934,55,46,0
163.71802,163.90207,62,45,0
163.71802,163.90207,58,37,0
164.12347,164.32549,46,55,0
164.52751,164.76007,53,42,0
164.99263,165.20242,58,35,0
164.99263,165.20242,62,42,0
165.4122,165.622,46,55,0
165.82367,166.01234,53,42,0
166.20102,166.38507,58,35,0
166.20102,166.38507,62,42,0
166.60648,166.8085,41,55,0
167.01051,167.24307,53,42,0
167.47563,167.68542,63,39,0
167.47563,167.68542,60,33,0
167.89522,168.105,41,52,0
168.30923,168.50217,53,39,0
168.69508,168.88376,60,33,0
168.69508,168.88376,63,39,0
169.13908,169.3638,46,44,0
169.58852,169.82108,50,33,0
170.05363,170.26343,53,27,0
170.05363,170.26343,58,33,0
170.47322,170.68301,41,49,0
170.88858,171.08466,51,35,0
171.28073,171.47304,53,29,0
171.28073,171.47304,57,35,0
171.72836,171.95308,46,41,0
172.1778,172.41035,50,31,0
172.64291,172.8527,53,25,0
172.64291,172.8527,58,31,0
173.06248,173.27228,41,46,0
173.48099,173.68233,51,31,0
173.88367,174.08038,53,25,0
173.88367,174.08038,57,30,0
174.33571,174.66342,46,34,0
174.67279,174.72118,34,60,0
174.76956,174.86633,34,64,0
175.05513,175.10115,34,59,0
175.14716,175.2378,34,64,0
175.42189,175.46861,36,60,0
175.51535,175.80223,38,67,0
175.81042,175.85881,38,60,0
175.9072,176.00397,38,64,0
176.19278,176.23878,38,59,0
176.28479,176.37543,38,64,0
176.56041,176.60757,40,60,0
176.65474,176.94164,41,73,0
176.94983,176.99821,41,66,0
177.0466,177.14337,41,70,0
177.33246,177.37862,41,64,0
177.42476,177.5154,41,70,0
177.70038,177.74754,43,66,0
177.79471,178.0816,45,80,0
178.0898,178.13818,45,61,0
178.0898,178.13818,33,52,0
178.18657,178.28334,45,65,0
178.18657,178.28334,33,55,0
178.47328,178.51987,47,61,0
178.47328,178.51987,35,52,0
178.56645,178.65709,49,67,0
178.56645,178.65709,37,57,0
178.84206,178.88924,50,65,0
178.84206,178.88924,38,55,0
178.9364,179.69208,52,70,0
178.9364,179.69208,49,58,0
178.9364,179.69208,40,58,0
178.9364,179.71562,45,58,0
179.71562,180.37288,52,70,0
179.71562,180.37288,45,58,0
179.71562,180.37288,40,58,0
179.71562,180.37288,49,58,0
180.39304,180.48982,52,66,0
180.39304,180.48982,40,56,0
180.48982,180.74838,52,69,0
180.48982,180.74838,40,58,0
180.77019,180.86365,50,65,0
180.77019,180.86365,38,55,0
180.86365,181.13281,49,72,0
180.86365,181.13281,37,60,0
181.15923,181.27243,47,74,0
181.15923,181.27243,35,62,0
181.27243,182.02567,45,74,0
181.27243,182.02567,33,65,0
182.04913,182.71257,45,74,0
182.04913,182.71257,33,65,0
182.04913,182.71257,40,65,0
182.72874,182.77713,45,48,0
182.82552,182.91927,47,51,0
183.10677,183.15364,45,47,0
183.20052,183.29227,47,51,0
183.4871,183.53865,49,48,0
183.5902,184.35081,50,54,0
184.37451,185.03177,54,54,0
184.37451,185.03177,50,45,0
185.05193,185.14064,50,44,0
185.1487,185.24486,47,42,0
185.1487,185.24486,50,50,0
185.43716,185.53331,47,40,0
185.43716,185.53331,50,47,0
185.5285,185.62265,46,41,0
185.53802,185.63206,50,49,0
185.83049,185.93959,50,47,0
185.83049,185.93959,46,40,0
185.93959,186.69527,52,54,0
185.93959,186.69527,45,45,0
186.71881,187.37607,57,54,0
186.71881,187.37607,45,45,0
187.39622,187.48494,57,44,0
187.39622,187.48494,49,35,0
187.493,187.58855,49,42,0
187.493,187.58855,57,50,0
187.77962,187.87517,49,40,0
187.77962,187.87517,57,47,0
187.87517,187.9695,57,49,0
187.87517,187.9695,49,41,0
188.17621,188.28856,57,47,0
188.17621,188.28856,49,40,0
188.28856,189.04425,59,54,0
188.28856,189.04425,47,45,0
188.28856,189.06778,54,45,0
189.06778,189.72504,59,54,0
189.06778,189.72504,50,45,0
189.74521,189.83391,59,44,0
189.74521,189.83391,52,35,0
189.84198,189.93813,52,42,0
189.84198,189.93813,59,50,0
190.13043,190.2266,52,40,0
190.13043,190.2266,59,47,0
190.2266,190.32063,59,49,0
190.2266,190.32063,52,41,0
190.53052,190.64635,59,47,0
190.53052,190.64635,52,40,0
190.64635,191.42477,57,54,0
190.64635,191.42477,45,45,0
190.64635,191.44902,52,45,0
191.44902,192.21515,57,54,0
191.44902,192.21515,52,45,0
191.44902,192.21515,45,45,0
192.2232,192.58511,50,45,0
192.60416,192.97876,49,37,0
192.99002,193.10663,47,67,0
193.10663,193.22325,46,57,0
193.22325,193.33987,47,57,0
193.33987,193.45856,43,68,0
193.45856,193.57726,42,61,0
193.57726,193.71103,43,65,0
193.71103,194.34933,40,74,0
194.34933,194.44052,42,61,0
194.44052,194.71408,43,69,0
194.71408,194.80527,45,62,0
194.80527,195.07956,47,70,0
195.07956,195.17957,49,62,0
195.17957,195.29517,45,69,0
195.29517,195.41077,44,63,0
195.41077,195.52638,45,59,0
195.52638,195.64615,42,68,0
195.64615,195.7659,41,65,0
195.7659,195.89967,42,69,0
195.89967,196.54082,38,74,0
196.54082,196.63145,40,61,0
196.63145,196.90335,42,69,0
196.90335,196.99399,43,62,0
196.99399,197.26828,45,70,0
197.26828,197.36829,47,62,0
197.36829,197.48593,43,70,0
197.48593,197.60358,42,58,0
197.60358,197.72122,43,58,0
197.72122,197.8417,40,63,0
197.8417,197.96219,39,65,0
197.96219,198.09596,40,68,0
198.09596,198.73427,37,72,0
198.73427,198.82545,38,59,0
198.82545,199.10323,40,73,0
199.10323,199.19582,37,57,0
199.19582,199.49722,41,71,0
199.49722,199.61967,37,58,0
199.61967,200.39293,42,71,0
200.41702,201.07428,42,68,0
201.09444,201.14282,46,61,0
201.19121,201.28798,47,65,0
201.47707,201.52322,46,61,0
201.56938,201.65973,47,67,0
201.84444,201.8916,46,65,0
201.93878,202.69446,49,70,0
201.93878,202.718,44,58,0
202.718,203.37526,49,70,0
202.718,203.37526,44,58,0
203.39542,203.49219,49,66,0
203.39542,203.49219,44,56,0
203.49219,203.75652,49,69,0
203.49219,203.75652,46,58,0
203.77881,203.87436,49,65,0
203.77881,203.87436,44,55,0
203.87436,204.14865,49,72,0
203.87436,204.14865,46,60,0
204.17506,204.28827,49,74,0
204.17506,204.28827,44,62,0
204.28827,205.0415,49,74,0
204.28827,205.0415,42,65,0
205.06497,205.72841,49,74,0
205.06497,205.72841,42,65,0
205.74458,205.79297,57,48,0
205.84135,206.11835,57,51,0
206.12708,206.1747,57,47,0
206.2112,206.49026,59,51,0
206.51173,206.56328,61,48,0
206.61484,207.37546,62,54,0
207.39914,208.05641,62,54,0
208.07657,208.16286,62,44,0
208.17334,208.2695,62,50,0
208.45058,208.54353,62,47,0
208.55795,208.652,62,49,0
208.55795,208.652,59,41,0
208.85513,208.96422,62,47,0
208.85513,208.96422,59,40,0
208.96422,209.71991,64,54,0
208.96422,209.71991,57,45,0
209.74344,210.4007,61,54,0
209.74344,210.4007,57,45,0
210.42087,210.50716,61,44,0
210.42087,210.50716,54,35,0
210.51764,210.61317,54,42,0
210.51764,210.61317,61,50,0
210.79312,210.88547,54,40,0
210.79312,210.88547,61,47,0
210.89981,210.99414,62,49,0
210.89981,210.99414,54,41,0
211.20084,211.3132,64,47,0
211.20084,211.3132,54,40,0
211.3132,212.06888,62,54,0
211.3132,212.09242,55,45,0
212.09242,212.74968,59,54,0
212.09242,212.74968,55,45,0
212.76984,212.85855,45,44,0
212.86662,212.96277,45,50,0
213.15508,213.25124,45,47,0
213.25124,213.34528,45,49,0
213.55168,213.66403,45,47,0
213.66403,214.44247,50,54,0
214.46672,215.23285,50,54,0
215.2409,215.60281,50,45,0
215.62186,215.99646,49,37,0
216.0077,216.12332,47,67,0
216.12332,216.23892,46,57,0
216.23892,216.35454,47,57,0
216.35454,216.4715,43,68,0
216.4715,216.58846,42,61,0
216.58846,216.72223,43,65,0
216.72223,217.36053,40,74,0
217.36053,217.45172,42,61,0
217.45172,217.72527,43,69,0
217.72527,217.81645,45,62,0
217.81645,218.09076,47,70,0
218.09076,218.19075,50,62,0
218.19075,218.30637,49,69,0
218.30637,218.42197,48,63,0
218.42197,218.53758,49,59,0
218.53758,218.65556,45,68,0
218.65556,218.77356,44,65,0
218.77356,218.90735,45,69,0
218.90735,219.54564,42,74,0
219.54564,219.63683,44,61,0
219.63683,219.91039,45,69,0
219.91039,220.00157,47,62,0
220.00157,220.27586,49,70,0
220.27586,220.37587,52,62,0
220.37587,220.4918,50,70,0
220.4918,220.60776,49,58,0
220.60776,220.7237,50,58,0
220.7237,220.84418,47,63,0
220.84418,220.96466,46,65,0
220.96466,221.09843,47,68,0
221.09843,221.73674,43,72,0
221.73674,221.82793,45,59,0
221.82793,222.10829,47,73,0
222.10829,222.20175,49,57,0
222.20175,222.50316,50,71,0
222.50316,222.62561,54,58,0
222.62561,223.39886,52,85,0
223.42294,224.0802,57,81,0
223.42294,224.0802,52,68,0
224.10036,224.19714,57,66,0
224.10036,224.19714,45,56,0
224.19714,224.46147,57,69,0
224.19714,224.46147,45,58,0
224.48376,224.5793,55,65,0
224.48376,224.5793,43,55,0
224.5793,224.85359,54,72,0
224.5793,224.85359,42,60,0
224.88,224.99323,52,74,0
224.88,224.99323,40,62,0
224.99323,225.74646,50,74,0
224.99323,225.74646,45,65,0
224.99323,225.74646,38,65,0
225.76991,226.43335,50,74,0
225.76991,226.43335,38,65,0
225.76991,226.43335,45,65,0
227.31978,228.0804,55,54,0
227.31978,228.0804,49,45,0
227.31978,228.0804,45,45,0
228.1041,228.88724,55,54,0
228.1041,228.88724,49,45,0
228.1041,228.88724,45,45,0
229.71179,230.5256,50,39,0
229.71179,230.55095,45,33,0
229.71179,230.55095,38,33,0
230.55095,231.37561,50,37,0
230.55095,231.37561,45,31,0
230.55095,231.37561,38,31,0
231.38428,231.78429,50,35,0
231.80534,232.23552,50,32,0
232.25816,233.09532,55,35,0
232.25816,233.09532,50,29,0
232.25816,233.09532,43,29,0
233.10324,233.49634,55,35,0
233.10324,233.49634,50,29,0
233.10324,233.49634,43,29,0
233.51703,233.89203,55,35,0
233.51703,233.89203,50,29,0
233.51703,233.89203,43,29,0
233.91177,234.27715,55,33,0
233.91177,234.27715,50,28,0
233.91177,234.27715,43,28,0
234.29639,234.68414,55,33,0
234.29639,234.68414,50,28,0
234.29639,234.68414,43,28,0
234.70454,235.08582,55,35,0
234.70454,235.08582,50,29,0
234.70454,235.08582,43,29,0
235.10588,235.4821,60,38,0
235.10588,235.4821,48,32,0
235.10588,235.48291,50,32,0
235.49423,235.88199,59,35,0
235.49423,235.88199,47,29,0
235.49423,235.88199,50,29,0
235.90239,236.26895,59,35,0
235.90239,236.26895,50,29,0
235.90239,236.26895,47,29,0
236.28825,236.6513,59,32,0
236.28825,236.6513,50,27,0
236.28825,236.6513,47,27,0
236.67041,237.06352,59,32,0
236.67041,237.06352,50,27,0
236.67041,237.06352,47,27,0
237.08421,237.4713,59,35,0
237.08421,237.4713,50,29,0
237.08421,237.4713,47,29,0
237.4713,237.86093,54,31,0
237.4713,237.86093,50,26,0
237.4713,237.86093,42,26,0
237.87263,238.27856,57,31,0
237.87263,238.27856,50,26,0
237.87263,238.27856,45,26,0
238.29076,238.66656,57,35,0
238.29076,238.66656,50,29,0
238.29076,238.66656,45,29,0
238.67786,239.0662,55,33,0
238.67786,239.0662,50,28,0
238.67786,239.0662,43,28,0
239.07785,239.4852,54,33,0
239.07785,239.4852,50,28,0
239.07785,239.4852,42,28,0
239.49744,239.89778,54,35,0
239.49744,239.89778,50,29,0
239.49744,239.89778,42,29,0
239.9098,240.29814,55,31,0
239.9098,240.29814,50,26,0
239.9098,240.29814,43,26,0
240.30981,240.72293,55,31,0
240.30981,240.72293,50,26,0
240.30981,240.72293,43,26,0
240.73534,241.12497,55,35,0
240.73534,241.12497,50,29,0
240.73534,241.12497,43,29,0
241.13667,241.5384,54,40,0
241.13667,241.5384,50,33,0
241.13667,241.5384,42,33,0
241.55048,241.96803,52,47,0
241.55048,241.96803,50,39,0
241.55048,241.96803,40,39,0
241.98058,242.80324,50,52,0
241.98058,242.80324,38,43,0
242.81104,243.20549,50,42,0
242.81104,243.20549,38,34,0
243.22626,243.5976,50,42,0
243.22626,243.5976,38,34,0
243.61713,244.00098,50,39,0
243.61713,244.00098,38,33,0
244.02118,244.41428,52,39,0
244.02118,244.41428,50,33,0
244.02118,244.41428,40,33,0
244.43497,244.82806,54,42,0
244.43497,244.82806,50,28,0
244.43497,244.82806,42,28,0
244.84875,245.23073,57,50,0
244.84875,245.23073,54,36,0
244.84875,245.23073,45,36,0
245.2422,245.62996,62,52,0
245.2422,245.62996,50,36,0
245.2422,245.62996,57,36,0
245.65036,246.03421,62,60,0
245.65036,246.03421,57,51,0
245.65036,246.03421,50,51,0
246.05441,246.44751,62,62,0
246.05441,246.44751,57,52,0
246.05441,246.44751,50,52,0
246.4682,246.90166,62,64,0
246.4682,246.90166,57,54,0
246.4682,246.90166,50,54,0
246.92447,247.32307,61,66,0
246.92447,247.32307,58,56,0
246.92447,247.32307,49,56,0
247.34406,247.76163,61,56,0
247.34406,247.76163,58,47,0
247.34406,247.76163,49,47,0
247.78362,248.20119,61,52,0
247.78362,248.20119,58,44,0
247.78362,248.20119,49,44,0
248.22318,248.61763,61,44,0
248.22318,248.61763,58,37,0
248.22318,248.61763,49,37,0
248.6384,249.047,61,40,0
248.6384,249.047,58,33,0
248.6384,249.047,49,33,0
249.06851,249.50867,61,36,0
249.06851,249.50867,58,29,0
249.06851,249.50867,49,29,0
249.53183,249.9698,62,33,0
249.53183,249.9698,57,28,0
249.53183,249.9698,50,28,0
249.98296,250.45462,64,30,0
249.98296,250.45462,57,25,0
249.98296,250.45462,52,25,0
250.46878,251.19238,66,30,0
250.46878,251.19238,57,25,0
250.46878,251.19238,54,25,0
251.21413,251.60904,59,35,0
251.21413,251.60904,47,29,0
251.62091,252.00923,57,30,0
251.62091,252.00923,45,25,0
252.0209,252.43698,54,30,0
252.0209,252.43698,42,25,0
252.44948,253.25815,57,37,0
252.44948,253.25815,45,31,0
253.26581,253.70877,62,31,0
253.26581,253.70877,57,26,0
253.26581,253.70877,50,26,0
253.72208,254.2308,62,36,0
253.72208,254.2308,57,30,0
253.72208,254.2308,50,30,0
254.2461,254.64609,50,35,0
254.66714,255.08781,50,32,0
255.10995,255.9471,55,35,0
255.10995,255.9471,50,29,0
255.10995,255.9471,43,29,0
255.95502,256.34277,55,35,0
255.95502,256.34277,50,29,0
255.95502,256.34277,43,29,0
256.3632,256.73697,55,35,0
256.3632,256.73697,50,29,0
256.3632,256.73697,43,29,0
256.75662,257.12085,55,33,0
256.75662,257.12085,50,28,0
256.75662,257.12085,43,28,0
257.14,257.52646,55,33,0
257.14,257.52646,50,28,0
257.14,257.52646,43,28,0
257.54678,257.93323,55,35,0
257.54678,257.93323,50,29,0
257.54678,257.93323,43,29,0
257.95358,258.33347,60,38,0
257.95358,258.33347,48,32,0
257.95358,258.3343,50,32,0
258.34573,258.7335,59,35,0
258.34573,258.7335,47,29,0
258.34573,258.7335,50,29,0
258.7539,259.12045,59,35,0
258.7539,259.12045,50,29,0
258.7539,259.12045,47,29,0
259.13974,259.49936,59,32,0
259.13974,259.49936,50,27,0
259.13974,259.49936,47,27,0
259.51828,259.9114,59,32,0
259.51828,259.9114,50,27,0
259.51828,259.9114,47,27,0
259.9321,260.32297,59,35,0
259.9321,260.32297,50,29,0
259.9321,260.32297,47,29,0
260.32297,260.7113,54,31,0
260.32297,260.7113,50,26,0
260.32297,260.7113,42,26,0
260.72296,261.12057,57,31,0
260.72296,261.12057,50,26,0
260.72296,261.12057,45,26,0
261.1325,261.5145,57,35,0
261.1325,261.5145,50,29,0
261.1325,261.5145,45,29,0
261.52597,261.9182,55,33,0
261.52597,261.9182,50,28,0
261.52597,261.9182,43,28,0
261.93,262.34607,54,33,0
261.93,262.34607,50,28,0
261.93,262.34607,42,28,0
262.35858,262.7589,54,35,0
262.35858,262.7589,50,29,0
262.35858,262.7589,42,29,0
262.77094,263.15927,55,31,0
262.77094,263.15927,50,26,0
262.77094,263.15927,43,26,0
263.17096,263.58408,55,31,0
263.17096,263.58408,50,26,0
263.17096,263.58408,43,26,0
263.59647,263.9861,55,35,0
263.59647,263.9861,50,29,0
263.59647,263.9861,43,29,0
263.9978,264.39954,54,40,0
263.9978,264.39954,50,33,0
263.9978,264.39954,42,33,0
264.41162,264.82916,52,47,0
264.41162,264.82916,50,39,0
264.41162,264.82916,40,39,0
264.8417,265.6644,50,52,0
264.8417,265.6644,38,43,0
265.67218,266.06662,50,42,0
265.67218,266.06662,38,34,0
266.0874,266.45993,50,42,0
266.0874,266.45993,38,34,0
266.47955,266.8634,50,39,0
266.47955,266.8634,38,33,0
266.88358,267.2767,52,39,0
266.88358,267.2767,50,33,0
266.88358,267.2767,40,33,0
267.2974,267.6905,54,46,0
267.2974,267.6905,50,30,0
267.2974,267.6905,42,30,0
267.71118,268.09692,57,55,0
267.71118,268.09692,54,39,0
267.71118,268.09692,45,39,0
268.10852,268.49628,62,58,0
268.10852,268.49628,50,40,0
268.10852,268.49628,57,40,0
268.5167,268.89542,62,68,0
268.5167,268.89542,57,58,0
268.5167,268.89542,50,58,0
268.91537,269.31677,62,71,0
268.91537,269.31677,57,60,0
268.91537,269.31677,50,60,0
269.3379,269.8013,62,74,0
269.3379,269.8013,57,63,0
269.3379,269.8013,50,63,0
269.8257,270.2243,61,74,0
269.8257,270.2243,58,62,0
269.8257,270.2243,49,62,0
270.24527,270.65536,61,61,0
270.24527,270.65536,58,51,0
270.24527,270.65536,49,51,0
270.67694,271.0945,61,56,0
270.67694,271.0945,58,47,0
270.67694,271.0945,49,47,0
271.1165,271.51096,61,46,0
271.1165,271.51096,58,39,0
271.1165,271.51096,49,39,0
271.5317,271.94034,61,41,0
271.5317,271.94034,58,34,0
271.5317,271.94034,49,34,0
271.96182,272.40198,61,36,0
271.96182,272.40198,58,29,0
271.96182,272.40198,49,29,0
272.42514,272.86313,62,33,0
272.42514,272.86313,57,28,0
272.42514,272.86313,50,28,0
272.87628,273.34793,64,30,0
272.87628,273.34793,57,25,0
272.87628,273.34793,52,25,0
273.36212,274.08572,66,30,0
273.36212,274.08572,57,25,0
273.36212,274.08572,54,25,0
274.10745,274.50235,59,35,0
274.10745,274.50235,47,29,0
274.51422,274.90915,57,30,0
274.51422,274.90915,45,25,0
274.92102,275.33707,54,30,0
274.92102,275.33707,42,25,0
275.34958,276.15826,57,37,0
275.34958,276.15826,45,31,0
276.1659,276.6089,62,31,0
276.1659,276.6089,57,26,0
276.1659,276.6089,50,26,0
276.6222,277.13092,62,36,0
276.6222,277.13092,57,30,0
276.6222,277.13092,50,30,0
277.1462,277.5462,62,35,0
277.1462,277.5462,50,35,0
277.56726,277.9879,62,36,0
277.56726,277.9879,50,36,0
278.01004,278.82428,60,46,0
278.01004,278.82428,55,37,0
278.01004,278.82428,48,37,0
278.83197,279.20697,60,35,0
278.83197,279.20697,55,29,0
278.83197,279.20697,48,29,0
279.2267,279.59326,60,35,0
279.2267,279.59326,55,29,0
279.2267,279.59326,48,29,0
279.61255,279.96994,60,33,0
279.61255,279.96994,55,28,0
279.61255,279.96994,48,28,0
279.98874,280.35648,60,33,0
279.98874,280.35648,55,28,0
279.98874,280.35648,48,28,0
280.37582,280.7436,60,35,0
280.37582,280.7436,55,29,0
280.37582,280.7436,48,29,0
280.76294,281.12396,55,38,0
280.76294,281.12396,43,32,0
281.1356,281.50278,52,35,0
281.1356,281.50278,40,29,0
281.1356,281.50278,43,29,0
281.52206,281.88055,52,35,0
281.52206,281.88055,43,29,0
281.52206,281.88055,40,29,0
281.89944,282.26135,55,38,0
281.89944,282.26135,43,32,0
282.2804,282.64694,60,42,0
282.2804,282.64694,55,36,0
282.2804,282.64694,48,36,0
282.66623,283.44525,63,53,0
282.66623,283.44525,58,44,0
282.66623,283.44525,51,44,0
283.45346,283.826,63,47,0
283.45346,283.826,58,39,0
283.45346,283.826,51,39,0
283.8456,284.20523,63,47,0
283.8456,284.20523,58,39,0
283.8456,284.20523,51,39,0
284.22415,284.5782,63,45,0
284.22415,284.5782,58,38,0
284.22415,284.5782,51,38,0
284.59683,284.96167,63,45,0
284.59683,284.96167,58,38,0
284.59683,284.96167,51,38,0
284.98083,285.34045,63,47,0
284.98083,285.34045,58,39,0
284.98083,285.34045,51,39,0
285.35938,285.72726,58,51,0
285.35938,285.72726,46,44,0
285.73914,286.11047,55,47,0
285.73914,286.11047,46,39,0
285.73914,286.11047,43,39,0
286.13,286.48737,55,47,0
286.13,286.48737,46,39,0
286.13,286.48737,43,39,0
286.5062,286.85696,58,52,0
286.5062,286.85696,46,42,0
286.87543,287.25043,63,57,0
286.87543,287.25043,58,46,0
286.87543,287.25043,51,46,0
287.27014,288.0338,54,61,0
287.27014,288.0338,49,50,0
287.27014,288.0338,42,50,0
288.04184,288.40723,54,53,0
288.04184,288.40723,49,45,0
288.04184,288.40723,42,45,0
288.42648,288.78052,54,53,0
288.42648,288.78052,49,45,0
288.42648,288.78052,42,45,0
288.79913,289.1554,54,51,0
288.79913,289.1554,49,43,0
288.79913,289.1554,42,43,0
289.17413,289.54132,54,51,0
289.17413,289.54132,49,43,0
289.17413,289.54132,42,43,0
289.5606,289.9272,54,53,0
289.5606,289.9272,49,45,0
289.5606,289.9272,42,45,0
289.94647,290.30862,49,53,0
289.94647,290.30862,37,45,0
290.3203,290.68686,46,53,0
290.3203,290.68686,34,45,0
290.70615,291.06464,54,53,0
290.70615,291.06464,42,45,0
291.0835,291.43646,56,63,0
291.0835,291.43646,44,50,0
291.0835,291.45502,54,50,0
291.45502,291.83252,58,71,0
291.45502,291.83252,54,57,0
291.45502,291.83252,46,57,0
291.8524,292.61697,59,80,0
291.8524,292.61697,54,65,0
291.8524,292.61697,47,65,0
292.62503,292.99756,59,69,0
292.62503,292.99756,54,58,0
292.62503,292.99756,47,58,0
293.01718,293.3768,59,69,0
293.01718,293.3768,54,58,0
293.01718,293.3768,47,58,0
293.39572,293.74976,59,66,0
293.39572,293.74976,54,56,0
293.39572,293.74976,47,56,0
293.7684,294.14218,59,66,0
293.7684,294.14218,54,56,0
293.7684,294.14218,47,56,0
294.16183,294.95615,43,80,0
294.16183,294.95615,31,65,0
294.9645,295.35593,43,69,0
294.9645,295.35593,31,58,0
295.37653,295.77072,47,69,0
295.37653,295.77072,35,58,0
295.7914,296.1914,50,62,0
295.7914,296.1914,38,52,0
296.21246,296.63312,55,57,0
296.21246,296.63312,43,48,0
296.65527,297.4955,48,55,0
296.65527,297.4955,36,46,0
297.5217,297.9148,48,32,0
297.5217,297.9148,36,27,0
297.9355,298.3105,48,33,0
297.9355,298.3105,36,23,0
298.33023,298.69678,48,28,0
298.33023,298.69678,36,23,0
298.71606,299.11465,48,28,0
298.71606,299.11465,36,23,0
299.13565,299.8981,48,36,0
299.13565,299.8981,36,30,0
299.92188,300.30795,48,28,0
299.92188,300.30795,36,23,0
300.32828,301.09576,48,35,0
300.32828,301.09576,36,29,0
301.1197,301.50974,48,26,0
301.1197,301.50974,36,21,0
301.53027,302.29776,48,34,0
301.53027,302.29776,36,28,0
302.3217,302.71442,48,26,0
302.3217,302.71442,36,21,0
302.7351,303.49756,48,30,0
302.7351,303.49756,36,25,0
303.5213,303.91678,48,26,0
303.5213,303.91678,36,22,0
303.9376,304.70007,48,28,0
303.9376,304.70007,36,23,0
304.72382,305.10477,48,25,0
304.72382,305.10477,36,21,0
305.12482,305.49582,48,27,0
305.12482,305.49582,36,23,0
305.51535,305.87497,48,25,0
305.51535,305.87497,36,21,0
305.89392,306.27484,48,25,0
305.89392,306.27484,36,21,0
306.2949,307.0524,48,28,0
306.2949,307.0524,36,23,0
307.076,307.4595,48,25,0
307.076,307.4595,36,21,0
307.47968,307.85684,48,27,0
307.47968,307.85684,36,23,0
307.87668,308.24207,48,25,0
307.87668,308.24207,36,21,0
308.26132,308.63263,48,25,0
308.26132,308.63263,36,21,0
308.6522,309.48935,47,28,0
308.6522,309.48935,35,23,0
309.49725,309.89035,47,28,0
309.91104,310.2898,47,28,0
310.30972,310.67865,47,26,0
310.69806,311.0912,47,26,0
310.69806,311.0912,45,22,0
311.11188,311.50497,55,31,0
311.11188,311.50497,47,26,0
311.11188,311.50497,43,26,0
311.52567,311.9019,60,34,0
311.52567,311.9019,48,28,0
311.52567,311.90268,50,28,0
311.914,312.30176,59,31,0
311.914,312.30176,47,26,0
311.914,312.30176,50,26,0
312.32217,312.6923,59,31,0
312.32217,312.6923,50,26,0
312.32217,312.6923,47,26,0
312.7118,313.076,59,28,0
312.7118,313.076,50,24,0
312.7118,313.076,47,24,0
313.09515,313.48828,59,28,0
313.09515,313.48828,50,24,0
313.09515,313.48828,47,24,0
313.50897,313.90335,59,31,0
313.50897,313.90335,50,26,0
313.50897,313.90335,47,26,0
313.90335,314.29526,54,27,0
313.90335,314.29526,50,23,0
313.90335,314.29526,42,23,0
314.30704,314.71298,57,27,0
314.30704,314.71298,50,23,0
314.30704,314.71298,45,23,0
314.72516,315.10806,57,31,0
314.72516,315.10806,50,26,0
314.72516,315.10806,45,26,0
315.11957,315.51147,55,29,0
315.11957,315.51147,50,25,0
315.11957,315.51147,43,25,0
315.52325,315.9306,54,29,0
315.52325,315.9306,50,25,0
315.52325,315.9306,42,25,0
315.94284,316.34317,54,31,0
315.94284,316.34317,50,26,0
315.94284,316.34317,42,26,0
316.3552,316.74353,55,31,0
316.3552,316.74353,50,26,0
316.3552,316.74353,43,26,0
316.7552,317.16833,55,31,0
316.7552,317.16833,50,26,0
316.7552,317.16833,43,26,0
317.18073,317.56744,55,35,0
317.18073,317.56744,50,29,0
317.18073,317.56744,43,29,0
317.57907,317.98077,55,40,0
317.57907,317.98077,50,33,0
317.57907,317.98077,43,33,0
317.99286,318.41043,57,47,0
317.99286,318.41043,50,39,0
317.99286,318.41043,45,39,0
318.42297,319.24475,47,43,0
318.42297,319.24475,50,43,0
318.42297,319.24564,59,52,0
319.25342,319.6479,59,42,0
319.25342,319.6479,47,34,0
319.25342,319.6479,50,34,0
319.66864,320.04486,59,42,0
319.66864,320.04486,47,34,0
319.66864,320.04486,50,34,0
320.06467,320.44852,57,39,0
320.06467,320.44852,45,33,0
320.06467,320.44852,50,33,0
320.46872,320.86182,55,39,0
320.46872,320.86182,50,33,0
320.46872,320.86182,43,33,0
320.8825,321.2756,59,42,0
320.8825,321.2756,55,28,0
320.8825,321.2756,47,28,0
321.2963,321.68207,62,50,0
321.2963,321.68207,59,36,0
321.2963,321.68207,50,36,0
321.69366,322.08142,67,52,0
321.69366,322.08142,55,36,0
321.69366,322.08142,62,36,0
322.1018,322.48566,67,60,0
322.1018,322.48566,62,51,0
322.1018,322.48566,55,51,0
322.50586,322.89896,67,62,0
322.50586,322.89896,62,52,0
322.50586,322.89896,55,52,0
322.91965,323.35312,67,64,0
322.91965,323.35312,62,54,0
322.91965,323.35312,55,54,0
323.37592,323.77454,66,66,0
323.37592,323.77454,63,56,0
323.37592,323.77454,54,56,0
323.7955,324.21307,66,56,0
323.7955,324.21307,63,47,0
323.7955,324.21307,54,47,0
324.23508,324.65265,66,52,0
324.23508,324.65265,63,44,0
324.23508,324.65265,54,44,0
324.67462,325.0691,66,44,0
324.67462,325.0691,63,37,0
324.67462,325.0691,54,37,0
325.08984,325.49844,66,40,0
325.08984,325.49844,63,33,0
325.08984,325.49844,54,33,0
325.51996,325.9601,66,36,0
325.51996,325.9601,63,29,0
325.51996,325.9601,54,29,0
325.98328,326.42123,67,33,0
325.98328,326.42123,62,28,0
325.98328,326.42123,55,28,0
326.43442,326.90607,69,30,0
326.43442,326.90607,62,25,0
326.43442,326.90607,57,25,0
326.92023,327.64383,71,30,0
326.92023,327.64383,62,25,0
326.92023,327.64383,59,25,0
327.6656,328.0526,64,35,0
327.6656,328.0526,52,29,0
328.06424,328.4552,62,30,0
328.06424,328.4552,50,25,0
328.46692,328.87408,50,25,0
328.46692,328.883,59,30,0
328.46692,328.883,47,25,0
328.8955,329.70416,62,37,0
328.8955,329.70416,50,31,0
329.71182,330.1548,62,31,0
329.71182,330.1548,55,26,0
330.1681,330.67685,62,36,0
330.1681,330.67685,55,30,0
330.6921,331.09213,62,35,0
330.6921,331.09213,50,35,0
331.1132,331.53384,62,36,0
331.1132,331.53384,50,36,0
331.55597,332.37018,60,44,0
331.55597,332.37018,55,36,0
331.55597,332.37018,48,36,0
332.3779,332.75662,60,35,0
332.3779,332.75662,55,29,0
332.3779,332.75662,48,29,0
332.77658,333.14078,60,35,0
332.77658,333.14078,55,29,0
332.77658,333.14078,48,29,0
333.15994,333.51733,60,33,0
333.15994,333.51733,55,28,0
333.15994,333.51733,48,28,0
333.53613,333.90387,60,33,0
333.53613,333.90387,55,28,0
333.53613,333.90387,48,28,0
333.92322,334.291,60,35,0
333.92322,334.291,55,29,0
333.92322,334.291,48,29,0
334.31033,334.67136,55,38,0
334.31033,334.67136,43,32,0
334.68298,335.05017,52,35,0
334.68298,335.05017,40,29,0
334.68298,335.05017,43,29,0
335.06946,335.42795,52,35,0
335.06946,335.42795,43,29,0
335.06946,335.42795,40,29,0
335.44684,335.80875,55,38,0
335.44684,335.80875,43,32,0
335.8278,336.19434,60,42,0
335.8278,336.19434,55,36,0
335.8278,336.19434,48,36,0
336.21362,336.99265,63,53,0
336.21362,336.99265,58,44,0
336.21362,336.99265,51,44,0
337.00085,337.37338,63,47,0
337.00085,337.37338,58,39,0
337.00085,337.37338,51,39,0
337.393,337.75037,63,47,0
337.393,337.75037,58,39,0
337.393,337.75037,51,39,0
337.76917,338.11887,63,45,0
337.76917,338.11887,58,38,0
337.76917,338.11887,51,38,0
338.13727,338.5021,63,45,0
338.13727,338.5021,58,38,0
338.13727,338.5021,51,38,0
338.52127,338.8809,63,47,0
338.52127,338.8809,58,39,0
338.52127,338.8809,51,39,0
338.89984,339.2677,58,51,0
338.89984,339.2677,46,44,0
339.27957,339.6509,55,47,0
339.27957,339.6509,46,39,0
339.27957,339.6509,43,39,0
339.67044,340.02783,55,47,0
339.67044,340.02783,46,39,0
339.67044,340.02783,43,39,0
340.04663,340.39957,58,52,0
340.04663,340.39957,46,42,0
340.41815,340.79315,63,57,0
340.41815,340.79315,58,46,0
340.41815,340.79315,51,46,0
340.8129,341.57654,54,61,0
340.8129,341.57654,49,50,0
340.8129,341.57654,42,50,0
341.5846,341.94998,54,53,0
341.5846,341.94998,49,45,0
341.5846,341.94998,42,45,0
341.9692,342.33224,54,53,0
341.9692,342.33224,49,45,0
341.9692,342.33224,42,45,0
342.35138,342.7054,54,51,0
342.35138,342.7054,49,43,0
342.35138,342.7054,42,43,0
342.72403,343.09122,54,51,0
342.72403,343.09122,49,43,0
342.72403,343.09122,42,43,0
343.1105,343.47708,54,53,0
343.1105,343.47708,49,45,0
343.1105,343.47708,42,45,0
343.49637,343.85852,49,53,0
343.49637,343.85852,37,45,0
343.8702,344.23676,46,53,0
343.8702,344.23676,34,45,0
344.25604,344.61453,54,53,0
344.25604,344.61453,42,45,0
344.63342,344.98636,56,63,0
344.63342,344.98636,44,50,0
344.63342,345.0049,54,50,0
345.0049,345.38242,58,71,0
345.0049,345.38242,54,57,0
345.0049,345.38242,46,57,0
345.40228,346.16687,59,80,0
345.40228,346.16687,54,65,0
345.40228,346.16687,47,65,0
346.17493,346.5475,59,69,0
346.17493,346.5475,54,58,0
346.17493,346.5475,47,58,0
346.56708,346.9267,59,69,0
346.56708,346.9267,54,58,0
346.56708,346.9267,47,58,0
346.94562,347.29965,59,66,0
346.94562,347.29965,54,56,0
346.94562,347.29965,47,56,0
347.3183,347.69208,59,66,0
347.3183,347.69208,54,56,0
347.3183,347.69208,47,56,0
347.71173,348.50604,43,80,0
347.71173,348.50604,31,65,0
348.5144,348.90582,43,69,0
348.5144,348.90582,31,58,0
348.92642,349.32062,47,69,0
348.92642,349.32062,35,58,0
349.3413,349.7413,50,62,0
349.3413,349.7413,38,52,0
349.76236,350.17993,55,57,0
349.76236,350.17993,43,48,0
350.2019,351.04218,48,55,0
350.2019,351.04218,36,46,0
351.06833,351.46146,48,32,0
351.06833,351.46146,36,27,0
351.48215,351.85107,48,33,0
351.48215,351.85107,36,23,0
351.87048,352.23123,48,28,0
351.87048,352.23123,36,23,0
352.25024,352.64334,48,28,0
352.25024,352.64334,36,23,0
352.66403,353.42648,48,36,0
352.66403,353.42648,36,30,0
353.45023,353.83633,48,28,0
353.45023,353.83633,36,23,0
353.85666,354.62415,48,35,0
353.85666,354.62415,36,29,0
354.64807,355.03812,48,26,0
354.64807,355.03812,36,21,0
355.05865,355.82614,48,34,0
355.05865,355.82614,36,28,0
355.85007,356.2428,48,26,0
355.85007,356.2428,36,21,0
356.2635,357.02594,48,30,0
356.2635,357.02594,36,25,0
357.04968,357.44516,48,26,0
357.04968,357.44516,36,22,0
357.46597,358.22845,48,28,0
357.46597,358.22845,36,23,0
358.2522,358.63315,48,25,0
358.2522,358.63315,36,21,0
358.6532,359.0174,48,27,0
358.6532,359.0174,36,23,0
359.03656,359.39734,48,25,0
359.03656,359.39734,36,21,0
359.41632,359.79727,48,25,0
359.41632,359.79727,36,21,0
359.81732,360.5748,48,28,0
359.81732,360.5748,36,23,0
360.59842,360.9819,48,25,0
360.59842,360.9819,36,21,0
361.0021,361.37924,48,27,0
361.0021,361.37924,36,23,0
361.3991,361.7645,48,25,0
361.3991,361.7645,36,21,0
361.78372,362.1782,48,25,0
361.78372,362.1782,36,21,0
362.19894,363.0361,47,28,0
362.19894,363.0361,35,23,0
363.044,363.4371,47,28,0
363.4578,363.83655,47,28,0
363.85648,364.2278,47,26,0
364.24734,364.64047,47,26,0
364.24734,364.64047,45,22,0
364.66116,365.04498,55,31,0
364.66116,365.04498,47,26,0
364.66116,365.04498,43,26,0
365.0652,365.44476,60,34,0
365.0652,365.44476,48,28,0
365.0652,365.4456,50,28,0
365.457,365.84476,59,31,0
365.457,365.84476,47,26,0
365.457,365.84476,50,26,0
365.86517,366.23532,59,31,0
365.86517,366.23532,50,26,0
365.86517,366.23532,47,26,0
366.2548,366.62253,59,28,0
366.2548,366.62253,50,24,0
366.2548,366.62253,47,24,0
366.64188,367.03497,59,28,0
366.64188,367.03497,50,24,0
366.64188,367.03497,47,24,0
367.05566,367.45007,59,31,0
367.05566,367.45007,50,26,0
367.05566,367.45007,47,26,0
367.45007,367.84198,54,27,0
367.45007,367.84198,50,23,0
367.45007,367.84198,42,23,0
367.85376,368.25967,57,27,0
367.85376,368.25967,50,23,0
367.85376,368.25967,45,23,0
368.27188,368.6548,57,31,0
368.27188,368.6548,50,26,0
368.27188,368.6548,45,26,0
368.6663,369.0582,55,29,0
368.6663,369.0582,50,25,0
368.6663,369.0582,43,25,0
369.06998,369.47733,54,29,0
369.06998,369.47733,50,25,0
369.06998,369.47733,42,25,0
369.48956,369.8899,54,31,0
369.48956,369.8899,50,26,0
369.48956,369.8899,42,26,0
369.90192,370.29025,55,31,0
369.90192,370.29025,50,26,0
369.90192,370.29025,43,26,0
370.3019,370.71503,55,31,0
370.3019,370.71503,50,26,0
370.3019,370.71503,43,26,0
370.72745,371.1082,55,35,0
370.72745,371.1082,50,29,0
370.72745,371.1082,43,29,0
371.1196,371.52133,55,40,0
371.1196,371.52133,50,33,0
371.1196,371.52133,43,33,0
371.53342,371.95398,57,47,0
371.53342,371.95398,50,39,0
371.53342,371.95398,45,39,0
371.9666,372.78842,47,43,0
371.9666,372.78842,50,43,0
371.9666,372.78928,59,52,0
372.79706,373.19153,59,42,0
372.79706,373.19153,47,34,0
372.79706,373.19153,50,34,0
373.21228,373.58853,59,42,0
373.21228,373.58853,47,34,0
373.21228,373.58853,50,34,0
373.60834,373.99216,57,39,0
373.60834,373.99216,45,33,0
373.60834,373.99216,50,33,0
374.01236,374.4055,55,39,0
374.01236,374.4055,50,33,0
374.01236,374.4055,43,33,0
374.42618,374.81927,59,42,0
374.42618,374.81927,55,28,0
374.42618,374.81927,47,28,0
374.83997,375.2257,62,50,0
374.83997,375.2257,59,36,0
374.83997,375.2257,50,36,0
375.2373,375.62506,67,52,0
375.2373,375.62506,55,36,0
375.2373,375.62506,62,36,0
375.64548,376.0293,67,60,0
375.64548,376.0293,62,51,0
375.64548,376.0293,55,51,0
376.0495,376.44263,67,62,0
376.0495,376.44263,62,52,0
376.0495,376.44263,55,52,0
376.46332,376.89676,67,64,0
376.46332,376.89676,62,54,0
376.46332,376.89676,55,54,0
376.9196,377.31818,66,66,0
376.9196,377.31818,63,56,0
376.9196,377.31818,54,56,0
377.33917,377.75674,66,56,0
377.33917,377.75674,63,47,0
377.33917,377.75674,54,47,0
377.77872,378.1963,66,52,0
377.77872,378.1963,63,44,0
377.77872,378.1963,54,44,0
378.2183,378.61273,66,44,0
378.2183,378.61273,63,37,0
378.2183,378.61273,54,37,0
378.6335,379.0421,66,40,0
378.6335,379.0421,63,33,0
378.6335,379.0421,54,33,0
379.0636,379.50375,66,36,0
379.0636,379.50375,63,29,0
379.0636,379.50375,54,29,0
379.52692,379.9649,67,33,0
379.52692,379.9649,62,28,0
379.52692,379.9649,55,28,0
379.97806,380.4497,69,30,0
379.97806,380.4497,62,25,0
379.97806,380.4497,57,25,0
380.4639,381.1875,71,30,0
380.4639,381.1875,62,25,0
380.4639,381.1875,59,25,0
381.20923,381.60416,64,35,0
381.20923,381.60416,52,29,0
381.616,382.01093,62,30,0
381.616,382.01093,50,25,0
382.0228,382.42993,50,25,0
382.0228,382.43887,59,30,0
382.0228,382.43887,47,25,0
382.45135,383.26004,62,37,0
382.45135,383.26004,50,31,0
383.2677,383.71066,62,31,0
383.2677,383.71066,55,26,0
383.72397,384.17905,62,30,0
383.72397,384.17905,55,25,0
384.19272,384.5699,43,25,0
384.58972,384.9669,43,25,0
384.98672,385.80304,43,32,0
385.81076,386.18826,43,25,0
386.20813,386.57587,43,33,0
386.5952,386.77325,43,50,0
386.77325,386.9513,40,42,0
386.9513,387.13422,42,47,0
387.13422,387.32654,43,52,0
387.32654,388.14285,45,53,0
388.15057,388.52805,45,25,0
388.5479,388.91568,45,33,0
388.93503,389.11255,43,54,0
389.11255,389.29004,40,43,0
389.29004,389.4758,42,47,0
389.4758,389.66998,43,50,0
389.66998,390.4863,45,52,0
390.49402,390.8715,45,24,0
390.8914,391.2664,45,32,0
391.2861,391.47842,43,50,0
391.47842,391.67975,40,39,0
391.67975,391.88455,42,45,0
391.88455,392.10513,43,38,0
392.10513,392.93896,45,41,0
392.94687,393.32434,45,22,0
393.3442,394.1726,45,28,0
394.18045,394.55792,45,21,0
394.5778,395.39764,45,27,0
395.4054,395.8054,45,20,0
395.82645,396.14233,45,25,0
396.15137,396.19974,45,60,0
396.15137,396.19974,33,51,0
396.24814,396.53845,45,64,0
396.24814,396.53845,33,54,0
396.53845,396.58682,45,59,0
396.53845,396.58682,33,50,0
396.63522,396.93185,47,64,0
396.63522,396.93185,35,54,0
396.93185,396.9834,49,60,0
396.93185,396.9834,37,51,0
397.03494,397.7956,50,68,0
397.03494,397.7956,45,57,0
397.03494,397.7956,38,57,0
397.81927,398.57007,50,68,0
397.81927,398.57007,45,57,0
397.81927,398.57007,38,57,0
398.59348,398.9781,50,63,0
398.59348,398.9781,38,53,0
398.9781,399.3951,54,63,0
398.9781,399.3951,42,53,0
399.3951,400.1508,49,68,0
399.3951,400.1508,45,57,0
399.3951,400.1508,37,57,0
400.17432,400.92514,49,68,0
400.17432,400.92514,45,57,0
400.17432,400.92514,37,57,0
400.94852,401.31955,49,63,0
400.94852,401.31955,37,53,0
401.3307,401.7482,49,63,0
401.3307,401.7482,37,53,0
401.7482,402.50143,47,68,0
401.7482,402.50143,42,57,0
401.7482,402.50143,35,57,0
402.52487,403.0974,47,68,0
402.52487,403.0974,42,57,0
402.52487,403.0974,35,57,0
403.1053,403.19907,52,62,0
403.1053,403.19907,40,52,0
403.292,403.38443,52,63,0
403.292,403.38443,40,53,0
403.47635,403.56754,52,66,0
403.47635,403.56754,40,56,0
403.65796,403.74768,52,68,0
403.65796,403.74768,40,57,0
403.83722,403.9526,52,70,0
403.83722,403.9526,40,59,0
404.068,404.8069,45,73,0
404.068,404.8069,33,62,0
404.8299,405.5688,52,68,0
404.8299,405.5688,45,57,0
405.5918,405.97275,66,45,0
405.97275,406.3586,62,37,0
406.3586,406.71155,67,45,0
406.71155,407.08273,71,39,0
407.08273,407.44745,76,39,0
407.44745,407.62982,61,44,0
407.8122,408.17694,73,36,0
408.17694,408.55124,67,36,0
408.55124,408.90314,66,45,0
408.90314,409.27646,69,39,0
409.27646,409.6412,74,39,0
409.6412,409.82355,59,44,0
410.00592,410.37067,71,36,0
410.37067,410.74496,66,36,0
410.74496,411.0979,64,45,0
411.0979,411.47266,67,39,0
411.47266,411.8374,73,39,0
411.8374,412.01978,52,44,0
412.20215,412.5725,64,34,0
412.5725,412.99637,65,32,0
412.99637,413.76962,73,30,0
412.99637,413.76962,66,25,0
413.7937,414.37436,73,47,0
413.7937,414.37436,66,39,0
414.5679,414.91406,73,44,0
414.5679,414.91406,66,37,0
414.9525,415.3246,73,44,0
414.9525,415.3246,66,37,0
415.36954,416.1252,71,47,0
415.36954,416.1252,61,39,0
416.14877,416.9149,71,47,0
416.14877,416.9149,61,39,0
416.92294,417.2691,71,44,0
416.92294,417.2691,61,37,0
417.30756,417.67966,71,44,0
417.30756,417.67966,61,37,0
417.7246,418.4803,70,47,0
417.7246,418.4803,66,39,0
418.5038,419.17752,70,47,0
418.5038,419.17752,66,39,0
419.18564,419.234,45,60,0
419.18564,419.234,33,51,0
419.2824,419.57272,45,64,0
419.2824,419.57272,33,54,0
419.57272,419.62112,45,59,0
419.57272,419.62112,33,50,0
419.6695,419.96616,45,64,0
419.6695,419.96616,33,54,0
419.96616,420.0177,45,60,0
419.96616,420.0177,33,51,0
420.06924,420.82986,47,68,0
420.06924,420.82986,35,57,0
420.85355,421.60437,47,68,0
420.85355,421.60437,35,57,0
421.62775,422.01236,47,63,0
421.62775,422.01236,35,53,0
422.01236,422.42938,47,63,0
422.01236,422.42938,35,53,0
422.42938,423.18506,49,68,0
422.42938,423.18506,45,57,0
422.42938,423.18506,37,57,0
423.20862,423.9594,49,68,0
423.20862,423.9594,45,57,0
423.20862,423.9594,37,57,0
423.9828,424.35382,49,63,0
423.9828,424.35382,37,53,0
424.36496,424.78247,49,63,0
424.36496,424.78247,37,53,0
424.78247,425.5357,48,68,0
424.78247,425.5357,36,57,0
425.55917,426.13168,47,68,0
425.55917,426.13168,35,57,0
426.13956,426.23337,46,62,0
426.13956,426.23337,34,52,0
426.32626,426.4187,46,63,0
426.32626,426.4187,34,53,0
426.51062,426.6018,46,66,0
426.51062,426.6018,34,56,0
426.69223,426.78195,46,68,0
426.69223,426.78195,34,57,0
426.87152,426.9869,46,70,0
426.87152,426.9869,34,59,0
427.1023,427.84116,45,73,0
427.1023,427.84116,33,62,0
427.8642,428.60306,52,68,0
427.8642,428.60306,45,57,0
428.6261,429.00705,61,45,0
429.00705,429.39288,57,37,0
429.39288,429.74582,62,45,0
429.74582,430.117,66,39,0
430.117,430.48175,71,39,0
430.48175,430.66412,56,44,0
430.8465,431.2112,68,36,0
431.2112,431.5855,62,36,0
431.5855,431.93744,61,45,0
431.93744,432.31073,64,39,0
432.31073,432.67548,69,39,0
432.67548,432.85785,54,44,0
433.04022,433.40497,66,36,0
433.40497,433.77927,61,36,0
433.77927,434.1322,59,45,0
434.1322,434.50693,62,39,0
434.50693,434.87167,68,39,0
434.87167,435.05405,47,44,0
435.23642,435.60678,59,34,0
435.60678,436.03064,60,32,0
436.03064,436.8039,68,30,0
436.03064,436.8039,61,25,0
436.82797,437.59412,68,47,0
436.82797,437.59412,61,39,0
437.60217,437.94833,68,44,0
437.60217,437.94833,61,37,0
437.9868,438.3589,68,44,0
437.9868,438.3589,61,37,0
438.4038,439.15952,68,47,0
438.4038,439.15952,64,39,0
438.4038,439.15952,59,39,0
439.18304,439.8524,68,47,0
439.18304,439.8524,64,39,0
439.18304,439.94916,59,39,0
439.86047,439.95724,68,39,0
439.95724,440.2457,69,44,0
439.95724,440.32983,64,39,0
440.2457,440.34186,68,41,0
440.34186,440.6465,69,43,0
440.34186,440.74484,64,39,0
440.6465,440.75888,71,41,0
440.75888,441.51456,57,39,0
440.75888,441.51456,64,47,0
441.5381,442.2118,64,47,0
441.5381,442.2118,57,39,0
442.2199,442.2683,45,60,0
442.31668,442.41345,45,64,0
442.6034,442.65,45,59,0
442.69656,442.78833,43,64,0
442.98315,443.0347,45,60,0
443.08624,443.84686,46,68,0
443.08624,443.84686,34,57,0
443.87054,444.5278,46,68,0
443.87054,444.5278,34,57,0
444.54797,444.59637,57,60,0
444.64474,444.73822,57,64,0
444.92514,444.97186,57,59,0
445.0186,445.11005,55,64,0
445.3046,445.35614,57,60,0
445.40768,446.1683,58,68,0
445.40768,446.1683,46,57,0
445.40768,446.19202,53,57,0
446.19202,446.84927,58,68,0
446.19202,446.84927,46,57,0
446.19202,446.84927,53,57,0
446.86942,446.91782,65,60,0
446.86942,446.91782,62,51,0
446.96622,447.06055,65,64,0
446.96622,447.06055,62,54,0
447.24924,447.2964,65,59,0
447.24924,447.2964,62,50,0
447.34357,447.43558,64,64,0
447.34357,447.43558,61,54,0
447.62695,447.6766,65,60,0
447.62695,447.6766,62,51,0
447.7263,447.82034,62,64,0
447.7263,447.82034,58,54,0
448.00842,448.05545,62,59,0
448.00842,448.05545,58,50,0
448.10245,448.1945,61,64,0
448.10245,448.1945,57,54,0
448.38586,448.43552,62,60,0
448.38586,448.43552,58,51,0
448.485,448.57962,58,64,0
448.485,448.57962,55,54,0
448.76892,448.81622,55,50,0
448.76892,448.81622,58,59,0
448.86356,448.95584,54,54,0
448.86356,448.95584,57,64,0
449.14963,449.19998,55,51,0
449.14963,449.19998,58,60,0
449.2503,450.01093,55,68,0
449.2503,450.03464,51,57,0
450.03464,450.82895,50,68,0
450.03464,450.82895,38,57,0
450.8373,451.63428,48,68,0
450.8373,451.63428,36,57,0
451.64267,451.74576,53,68,0
451.64267,451.74576,41,57,0
452.05505,452.16412,53,68,0
452.05505,452.16412,41,57,0
452.4914,453.33063,46,68,0
452.4914,453.33063,34,57,0
453.33945,454.1175,53,68,0
453.33945,454.1175,46,57,0
455.06088,455.2692,46,55,0
455.47754,455.71008,53,42,0
455.94266,456.15244,58,35,0
455.94266,456.15244,62,42,0
456.36224,456.57202,46,55,0
456.77368,456.96237,53,42,0
457.15106,457.33508,62,42,0
457.15106,457.33508,58,35,0
457.5565,457.7585,45,55,0
457.96054,458.19308,53,42,0
458.42566,458.63544,60,35,0
458.42566,458.63544,63,42,0
458.84525,459.05502,45,55,0
459.25668,459.44537,53,42,0
459.63406,459.8181,63,42,0
459.63406,459.8181,60,35,0
460.0395,460.24152,41,55,0
460.44354,460.66333,53,42,0
460.88312,461.0929,60,35,0
460.88312,461.0929,63,42,0
461.30267,461.51248,41,55,0
461.71414,461.90283,53,42,0
462.0915,462.27554,63,42,0
462.0915,462.27554,60,35,0
462.53088,462.75558,46,49,0
462.98032,463.21286,53,37,0
463.44543,463.6552,58,31,0
463.44543,463.6552,62,37,0
463.865,464.0748,46,55,0
464.27646,464.46515,53,37,0
464.6538,464.83786,58,32,0
464.6538,464.83786,62,38,0
465.05927,465.2613,43,60,0
465.46332,465.69586,55,46,0
465.92844,466.1382,58,38,0
465.92844,466.1382,62,46,0
466.34802,466.5535,43,55,0
466.753,466.94168,55,46,0
467.13037,467.31442,62,45,0
467.13037,467.31442,58,37,0
467.5358,467.73782,46,55,0
467.93985,468.1724,53,42,0
468.40497,468.61475,58,35,0
468.40497,468.61475,62,42,0
468.82455,469.03433,46,55,0
469.236,469.42468,53,42,0
469.61337,469.79742,58,35,0
469.61337,469.79742,62,42,0
470.01883,470.22083,41,55,0
470.42285,470.65543,53,42,0
470.88797,471.09775,63,39,0
470.88797,471.09775,60,33,0
471.30756,471.51733,41,52,0
471.72156,471.9145,53,39,0
472.10742,472.2961,60,33,0
472.10742,472.2961,63,39,0
472.55142,472.77615,46,44,0
473.00085,473.23343,50,33,0
473.46597,473.67578,53,27,0
473.46597,473.67578,58,33,0
473.88556,474.09534,41,49,0
474.3009,474.49698,51,35,0
474.69308,474.88538,53,29,0
474.69308,474.88538,57,35,0
475.1407,475.36542,46,41,0
475.59015,475.8227,50,31,0
476.05524,476.26505,53,25,0
476.05524,476.26505,58,31,0
476.47482,476.68463,41,46,0
476.8933,477.09467,51,31,0
477.29602,477.49274,53,25,0
477.29602,477.49274,57,30,0
477.74805,478.07578,46,34,0
478.0851,478.1335,34,60,0
478.18192,478.2787,34,64,0
478.46805,478.51434,34,59,0
478.56064,478.65128,34,64,0
478.83536,478.88208,36,60,0
478.92883,479.2157,38,67,0
479.2239,479.27228,38,60,0
479.32068,479.41745,38,64,0
479.60654,479.65268,38,59,0
479.69885,479.78973,38,64,0
479.975,480.02216,40,60,0
480.06934,480.35623,41,73,0
480.3644,480.4128,41,66,0
480.46118,480.55795,41,70,0
480.74762,480.79407,41,64,0
480.84048,480.9314,41,70,0
481.11667,481.16382,43,66,0
481.211,481.4979,45,80,0
481.50607,481.55447,45,61,0
481.50607,481.55447,33,52,0
481.60284,481.69962,45,65,0
481.60284,481.69962,33,55,0
481.88928,481.93573,47,61,0
481.88928,481.93573,35,52,0
481.98215,482.07306,49,67,0
481.98215,482.07306,37,57,0
482.25833,482.30548,50,65,0
482.25833,482.30548,38,55,0
482.35266,483.10834,52,70,0
482.35266,483.10834,49,58,0
482.35266,483.10834,40,58,0
482.35266,483.13187,45,58,0
483.13187,483.78912,52,70,0
483.13187,483.78912,45,58,0
483.13187,483.78912,40,58,0
483.13187,483.78912,49,58,0
483.8093,483.90607,52,66,0
483.8093,483.90607,40,56,0
483.90607,484.1704,52,69,0
483.90607,484.1704,40,58,0
484.1927,484.28824,50,65,0
484.1927,484.28824,38,55,0
484.28824,484.56253,49,72,0
484.28824,484.56253,37,60,0
484.58896,484.70215,47,74,0
484.58896,484.70215,35,62,0
484.70215,485.45538,45,74,0
484.70215,485.45538,33,65,0
485.47885,486.14227,45,74,0
485.47885,486.14227,33,65,0
485.47885,486.14227,40,65,0
486.15848,486.20685,45,48,0
486.25525,486.54095,47,51,0
486.54095,486.58856,45,47,0
486.6362,486.92563,47,51,0
486.92563,486.97717,49,48,0
487.02872,487.78934,50,54,0
487.81302,488.47028,54,54,0
487.81302,488.47028,50,45,0
488.49045,488.57916,50,44,0
488.58722,488.68338,47,42,0
488.58722,488.68338,50,50,0
488.87567,488.97183,47,40,0
488.87567,488.97183,50,47,0
488.96704,489.0612,46,41,0
488.97653,489.0706,50,49,0
489.269,489.3781,50,47,0
489.269,489.3781,46,40,0
489.3781,490.1338,52,54,0
489.3781,490.1338,45,45,0
490.15732,490.81458,57,54,0
490.15732,490.81458,45,45,0
490.83475,490.92346,57,44,0
490.83475,490.92346,49,35,0
490.93152,491.02707,49,42,0
490.93152,491.02707,57,50,0
491.21814,491.3137,49,40,0
491.21814,491.3137,57,47,0
491.3137,491.40802,57,49,0
491.3137,491.40802,49,41,0
491.61472,491.72708,57,47,0
491.61472,491.72708,49,40,0
491.72708,492.48276,59,54,0
491.72708,492.48276,47,45,0
491.72708,492.50632,54,45,0
492.50632,493.16357,59,54,0
492.50632,493.16357,50,45,0
493.18372,493.27243,59,44,0
493.18372,493.27243,52,35,0
493.2805,493.37665,52,42,0
493.2805,493.37665,59,50,0
493.56897,493.6651,52,40,0
493.56897,493.6651,59,47,0
493.6651,493.75916,59,49,0
493.6651,493.75916,52,41,0
493.96555,494.0779,59,47,0
493.96555,494.0779,52,40,0
494.0779,494.85635,57,54,0
494.0779,494.85635,45,45,0
494.0779,494.88058,52,45,0
494.88058,495.64673,57,54,0
494.88058,495.64673,52,45,0
494.88058,495.64673,45,45,0
495.6548,496.0167,50,45,0
496.03574,496.41034,49,37,0
496.4216,496.53925,47,67,0
496.53925,496.6569,46,57,0
496.6569,496.77454,47,57,0
496.77454,496.89322,43,68,0
496.89322,497.01193,42,61,0
497.01193,497.1457,43,65,0
497.1457,497.784,40,74,0
497.784,497.87518,42,61,0
497.87518,498.14874,43,69,0
498.14874,498.23993,45,62,0
498.23993,498.51422,47,70,0
498.51422,498.61423,49,62,0
498.61423,498.73154,45,69,0
498.73154,498.84882,44,63,0
498.84882,498.96613,45,59,0
498.96613,499.08588,42,68,0
499.08588,499.20566,41,65,0
499.20566,499.33942,42,69,0
499.33942,499.97772,38,74,0
499.97772,500.0689,40,61,0
500.0689,500.34247,42,69,0
500.34247,500.43365,43,62,0
500.43365,500.70795,45,70,0
500.70795,500.80795,47,62,0
500.80795,500.9256,43,70,0
500.9256,501.04324,42,58,0
501.04324,501.1609,43,58,0
501.1609,501.28137,40,63,0
501.28137,501.40186,39,65,0
501.40186,501.53564,40,68,0
501.53564,502.17395,37,72,0
502.17395,502.26514,38,59,0
502.26514,502.5429,40,73,0
502.5429,502.6355,37,57,0
502.6355,502.9369,41,71,0
502.9369,503.05936,37,58,0
503.05936,503.8326,42,71,0
503.8567,504.51395,42,68,0
504.53412,504.5825,46,61,0
504.6309,504.72766,47,65,0
504.9176,504.96417,46,61,0
505.01077,505.1025,47,67,0
505.2886,505.33575,46,65,0
505.38293,506.1386,49,70,0
505.38293,506.16214,44,58,0
506.16214,506.8194,49,70,0
506.16214,506.8194,44,58,0
506.83957,506.93634,49,66,0
506.83957,506.93634,44,56,0
506.93634,507.20068,49,69,0
506.93634,507.20068,46,58,0
507.22296,507.3185,49,65,0
507.22296,507.3185,44,55,0
507.3185,507.5928,49,72,0
507.3185,507.5928,46,60,0
507.6192,507.73242,49,74,0
507.6192,507.73242,44,62,0
507.73242,508.48566,49,74,0
507.73242,508.48566,42,65,0
508.50912,509.17255,49,74,0
508.50912,509.17255,42,65,0
509.18875,509.23712,57,48,0
509.28552,509.5625,57,51,0
509.57123,509.61884,57,47,0
509.65536,509.93442,59,51,0
509.9559,510.00745,61,48,0
510.059,510.8196,62,54,0
510.8433,511.50055,62,54,0
511.52072,511.607,62,44,0
511.6175,511.71365,62,50,0
511.89474,511.98767,62,47,0
512.00214,512.0961,62,49,0
512.00214,512.0961,59,41,0
512.2993,512.4084,62,47,0
512.2993,512.4084,59,40,0
512.4084,513.16406,64,54,0
512.4084,513.16406,57,45,0
513.1876,513.84485,61,54,0
513.1876,513.84485,57,45,0
513.865,513.9513,61,44,0
513.865,513.9513,54,35,0
513.9618,514.0573,54,42,0
513.9618,514.0573,61,50,0
514.23724,514.32965,54,40,0
514.23724,514.32965,61,47,0
514.34393,514.4383,62,49,0
514.34393,514.4383,54,41,0
514.645,514.7574,64,47,0
514.645,514.7574,54,40,0
514.7574,515.51306,62,54,0
514.7574,515.53656,55,45,0
515.53656,516.19385,59,54,0
515.53656,516.19385,55,45,0
516.214,516.30273,45,44,0
516.3108,516.4069,45,50,0
516.59924,516.6954,45,47,0
516.6954,516.7894,45,49,0
516.99585,517.1082,45,47,0
517.1082,517.8866,50,54,0
517.9109,518.677,50,54,0
518.68506,519.04694,50,45,0
519.06604,519.43256,49,37,0
519.45184,519.5695,47,67,0
519.5695,519.68713,46,57,0
519.68713,519.8048,47,57,0
519.8048,519.9235,43,68,0
519.9235,520.0422,42,61,0
520.0422,520.17596,43,65,0
520.17596,520.8143,40,74,0
520.8143,520.90546,42,61,0
520.90546,521.179,43,69,0
521.179,521.2702,45,62,0
521.2702,521.5445,47,70,0
521.5445,521.6445,50,62,0
521.6445,521.7618,49,69,0
521.7618,521.8791,48,63,0
521.8791,521.9964,49,59,0
521.9964,522.11615,45,68,0
522.11615,522.2359,44,65,0
522.2359,522.3697,45,69,0
522.3697,523.008,42,74,0
523.008,523.0992,44,61,0
523.0992,523.37274,45,69,0
523.37274,523.4639,47,62,0
523.4639,523.7382,49,70,0
523.7382,523.83826,52,62,0
523.83826,523.9559,50,70,0
523.9559,524.07355,49,58,0
524.07355,524.19116,50,58,0
524.19116,524.31165,47,63,0
524.31165,524.4321,46,65,0
524.4321,524.5659,47,68,0
524.5659,525.2042,43,72,0
525.2042,525.2954,45,59,0
525.2954,525.5732,47,73,0
525.5732,525.6658,49,57,0
525.6658,525.96716,50,71,0
525.96716,526.0896,54,58,0
526.0896,526.86285,52,85,0
526.88696,527.5442,57,81,0
526.88696,527.5442,52,68,0
527.5644,527.66113,57,66,0
527.5644,527.66113,45,56,0
527.66113,527.9255,57,69,0
527.66113,527.9255,45,58,0
527.94775,528.04333,55,65,0
527.94775,528.04333,43,55,0
528.04333,528.3176,54,72,0
528.04333,528.3176,42,60,0
528.34406,528.4572,52,74,0
528.34406,528.4572,40,62,0
528.4572,529.21045,50,74,0
528.4572,529.21045,45,65,0
528.4572,529.21045,38,65,0
529.23395,529.9019,50,74,0
529.23395,529.9019,38,65,0
529.23395,529.9019,45,65,0
530.8077,531.0097,50,44,0
531.21173,531.4443,57,33,0
531.6769,531.88666,62,28,0
531.6769,531.88666,66,33,0
532.09644,532.3062,50,44,0
532.5079,532.6966,57,33,0
532.88525,533.0693,66,33,0
532.88525,533.0693,62,28,0
533.2907,533.49274,49,44,0
533.69476,533.9273,57,33,0
534.15985,534.3696,64,28,0
534.15985,534.3696,67,33,0
534.5794,534.78925,49,44,0
534.9909,535.17725,57,33,0
535.3636,535.5454,67,33,0
535.3636,535.5454,64,28,0
535.7668,535.9688,45,44,0
536.17084,536.3906,57,33,0
536.6104,536.8202,64,28,0
536.6104,536.8202,67,33,0
537.02997,537.23975,45,44,0
537.4414,537.6301,57,33,0
537.8188,538.0028,67,33,0
537.8188,538.0028,64,28,0
538.2582,538.48285,50,39,0
538.7076,538.9401,57,29,0
539.1727,539.3825,62,24,0
539.1727,539.3825,66,29,0
539.5923,539.80206,50,44,0
540.0037,540.19244,57,29,0
540.3811,540.5651,62,25,0
540.3811,540.5651,66,30,0
540.78656,540.9886,47,48,0
541.1906,541.42316,59,36,0
541.6557,541.8655,62,30,0
541.6557,541.8655,66,36,0
542.0753,542.28076,47,44,0
542.4803,542.66895,59,36,0
542.85767,543.0417,66,36,0
542.85767,543.0417,62,29,0
543.2631,543.4651,50,44,0
543.6671,543.8997,57,33,0
544.13226,544.34204,62,28,0
544.13226,544.34204,66,33,0
544.5518,544.7616,50,44,0
544.9633,545.152,57,33,0
545.34064,545.5247,62,28,0
545.34064,545.5247,66,33,0
545.7461,545.9481,45,44,0
546.15015,546.3827,57,33,0
546.61523,546.8251,67,31,0
546.61523,546.8251,64,26,0
547.03485,547.2446,45,41,0
547.44885,547.6418,57,31,0
547.8347,548.0234,64,26,0
547.8347,548.0234,67,31,0
548.2787,548.5034,50,35,0
548.72815,548.9607,54,26,0
549.19324,549.4031,57,21,0
549.19324,549.4031,62,26,0
549.61285,549.82263,45,39,0
550.0282,550.2243,55,27,0
550.42035,550.6127,57,22,0
550.42035,550.6127,61,26,0
550.868,551.0927,50,30,0
551.31744,551.55,54,22,0
551.78253,551.9923,57,17,0
551.78253,551.9923,62,21,0
552.2021,552.4119,45,31,0
552.6206,552.82196,55,20,0
553.0233,553.22003,57,16,0
553.0233,553.22003,61,19,0
553.47534,553.7001,50,25,0
553.92474,554.15735,54,19,0
554.3899,554.6081,57,16,0
554.3899,554.6081,62,19,0
554.82623,555.05096,50,25,0
555.2757,555.4877,54,19,0
555.6997,555.9236,62,19,0
555.6997,555.9236,57,16,0
556.14746,556.3884,50,25,0
556.6294,556.86194,54,19,0
557.09454,557.3135,57,16,0
557.09454,557.3135,62,19,0
557.5325,557.7572,50,25,0
557.98193,558.1939,54,19,0
558.40594,558.63153,62,19,0
558.40594,558.63153,57,16,0
558.85706,559.0818,50,25,0
560.2054,560.44635,57,20,0
560.2054,560.44635,50,20,0
560.2054,560.44635,62,24,0
561.6512,563.81335,62,22,0
561.6512,563.81335,57,19,0
561.6512,563.81335,50,19,0
