start_time,end_time,note_value,velocity,instrument_program_number
1.19403,1.784826,63,46,0
1.791045,2.3818412,63,34,0
1.791045,2.3818412,60,34,0
1.791045,2.3818412,68,46,0
2.38806,3.2062426,68,46,0
3.2062426,3.47897,70,39,0
2.38806,3.47897,63,34,0
2.38806,3.47897,60,34,0
3.47897,4.0719247,68,46,0
3.47897,4.0719247,63,34,0
3.47897,4.0719247,61,34,0
4.077606,4.8957887,67,46,0
4.8957887,5.1662436,70,37,0
4.077606,5.168516,63,34,0
4.077606,5.168516,61,34,0
5.168516,5.7082896,70,46,0
5.713971,6.2537446,68,51,0
5.713971,6.2537446,63,38,0
6.2594266,6.8531766,70,52,0
6.2594266,6.8531766,61,39,0
6.2594266,6.8531766,63,39,0
6.8594265,7.96117,72,55,0
6.8594265,7.96117,60,40,0
6.8594265,7.96117,63,40,0
7.96117,8.55492,63,55,0
8.56117,9.15492,63,49,0
8.56117,9.15492,60,49,0
8.56117,9.15492,72,66,0
9.16117,9.979394,72,67,0
9.16117,9.979394,60,50,0
9.16117,9.979394,63,50,0
9.979394,10.252122,63,42,0
9.979394,10.252122,73,57,0
9.979394,10.252122,61,42,0
10.252122,10.844962,60,48,0
10.252122,10.844962,72,65,0
10.252122,10.844962,63,48,0
10.8512125,11.67313,70,58,0
10.8512125,11.67313,63,43,0
10.8512125,11.67313,58,43,0
11.67313,11.947103,60,39,0
11.67313,11.947103,63,39,0
11.67313,11.947103,72,52,0
11.947103,12.540853,70,56,0
11.947103,12.540853,63,41,0
11.947103,12.540853,58,41,0
12.547103,13.178752,56,39,0
12.547103,13.178752,68,52,0
12.547103,13.178752,63,39,0
13.1854,13.664124,75,66,0
13.664124,13.823698,73,59,0
13.1854,13.823698,70,49,0
13.1854,13.823698,63,49,0
13.823698,15.067223,63,37,0
13.823698,15.067223,72,50,0
13.823698,15.067223,68,37,0
15.067223,15.660929,75,56,0
15.667148,16.257944,80,54,0
15.667148,16.257944,72,34,0
15.667148,16.257944,75,34,0
16.264162,17.082346,80,57,0
17.082346,17.355072,82,50,0
16.264162,17.355072,72,34,0
16.264162,17.355072,75,34,0
17.355072,17.919737,75,34,0
17.355072,17.919737,80,57,0
17.355072,17.919737,73,34,0
17.925419,18.743603,79,57,0
18.743603,19.016329,82,57,0
17.925419,19.016329,73,34,0
17.925419,19.016329,75,34,0
19.016329,19.556103,82,57,0
19.561785,20.102016,75,35,0
19.561785,20.102016,80,59,0
20.108027,20.676208,75,37,0
20.108027,20.676208,82,62,0
20.108027,20.676208,73,37,0
20.68219,21.783503,84,66,0
20.68219,21.783503,72,40,0
20.68219,21.783503,75,40,0
21.783503,22.377253,75,65,0
22.383503,22.977253,72,44,0
22.383503,22.977253,75,44,0
22.383503,22.977253,84,73,0
22.983501,23.801727,84,74,0
23.801727,24.087181,85,67,0
22.983501,24.087181,72,44,0
22.983501,24.087181,75,44,0
24.087181,24.680931,76,37,0
24.087181,24.680931,84,58,0
24.087181,24.680931,72,37,0
24.687181,25.509098,82,52,0
25.509098,25.783072,84,54,0
24.687181,25.783072,72,36,0
24.687181,25.783072,76,36,0
25.783072,26.376822,77,36,0
25.783072,26.376822,82,49,0
25.783072,26.376822,72,36,0
26.383072,26.576307,80,47,0
26.576307,26.672926,82,52,0
26.672926,26.769545,80,52,0
26.769545,26.866163,79,52,0
26.383072,26.956743,77,34,0
26.383072,26.956743,72,34,0
26.866163,26.962782,80,52,0
26.962782,27.432634,84,67,0
27.432634,27.606045,82,63,0
26.962782,27.606045,79,39,0
26.962782,27.606045,73,39,0
27.606045,28.861958,72,36,0
27.606045,28.861958,80,56,0
28.861958,29.45869,63,46,0
29.464972,30.058722,68,46,0
29.464972,30.058722,63,34,0
29.464972,30.058722,60,34,0
30.064972,30.883154,68,46,0
30.883154,31.155882,70,39,0
30.064972,31.155882,63,34,0
30.064972,31.155882,60,34,0
31.155882,31.748837,63,34,0
31.155882,31.748837,68,46,0
31.155882,31.748837,61,34,0
31.754519,32.5727,67,46,0
32.5727,32.843155,70,37,0
31.754519,32.84543,61,34,0
31.754519,32.84543,63,34,0
32.84543,33.3852,70,46,0
33.390884,33.930656,68,51,0
33.390884,33.930656,63,38,0
33.93634,34.53009,70,52,0
33.93634,34.53009,61,39,0
33.93634,34.53009,63,39,0
34.53634,35.63808,60,40,0
34.53634,35.63808,63,40,0
34.53634,35.63808,72,55,0
35.63808,36.23183,63,55,0
36.238083,36.831833,72,66,0
36.238083,36.831833,63,49,0
36.238083,36.831833,60,49,0
36.83808,37.656307,72,67,0
36.83808,37.656307,60,50,0
36.83808,37.656307,63,50,0
37.656307,37.929035,73,57,0
37.656307,37.929035,61,42,0
37.656307,37.929035,63,42,0
37.929035,38.521873,72,65,0
37.929035,38.521873,63,48,0
37.929035,38.521873,60,48,0
38.528126,39.35004,58,43,0
38.528126,39.35004,63,43,0
38.528126,39.35004,70,58,0
39.35004,39.624016,60,39,0
39.35004,39.624016,63,39,0
39.35004,39.624016,72,52,0
39.624016,40.217766,70,56,0
39.624016,40.217766,63,41,0
39.624016,40.217766,58,41,0
40.224014,40.855663,68,52,0
40.224014,40.855663,63,39,0
40.224014,40.855663,56,39,0
40.862312,41.341038,75,66,0
41.341038,41.50061,73,60,0
40.862312,41.50061,63,49,0
40.862312,41.50061,70,56,0
41.50061,42.73138,72,50,0
41.50061,42.73138,68,37,0
41.50061,42.73138,63,37,0
42.73138,43.32509,75,56,0
43.331306,43.922104,72,34,0
43.331306,43.922104,75,34,0
43.331306,43.922104,80,54,0
43.92832,44.746502,80,57,0
44.746502,45.01923,82,53,0
43.92832,45.01923,75,34,0
43.92832,45.01923,72,34,0
45.01923,45.583897,75,34,0
45.01923,45.583897,80,57,0
45.01923,45.583897,73,34,0
45.589577,46.40776,79,57,0
46.40776,46.678215,82,57,0
45.589577,46.68049,75,34,0
45.589577,46.68049,73,34,0
46.68049,47.22026,82,57,0
47.225945,47.766174,80,59,0
47.225945,47.766174,75,35,0
47.772186,48.340366,73,37,0
47.772186,48.340366,82,62,0
47.772186,48.340366,75,37,0
48.346348,49.447662,84,66,0
48.346348,49.447662,72,40,0
48.346348,49.447662,75,40,0
49.447662,50.041412,75,65,0
50.04766,50.64141,75,44,0
50.04766,50.64141,84,73,0
50.04766,50.64141,72,44,0
50.64766,51.465885,84,74,0
51.465885,51.75134,85,65,0
50.64766,51.75134,72,44,0
50.64766,51.75134,75,44,0
51.75134,52.34509,72,37,0
51.75134,52.34509,76,37,0
51.75134,52.34509,84,58,0
52.35134,53.173256,82,52,0
53.173256,53.44723,84,54,0
52.35134,53.44723,72,36,0
52.35134,53.44723,76,36,0
53.44723,54.04723,72,36,0
53.44723,54.04723,82,49,0
53.44723,54.04723,77,36,0
54.04723,54.240467,80,47,0
54.240467,54.337086,82,52,0
54.337086,54.433704,80,52,0
54.433704,54.53032,79,52,0
54.53032,54.626938,80,52,0
54.04723,54.626938,77,34,0
54.04723,54.626938,72,34,0
54.626938,55.096794,84,67,0
55.096794,55.270203,82,63,0
54.626938,55.270203,79,39,0
54.626938,55.270203,73,39,0
55.270203,56.52675,80,55,0
55.270203,56.52675,72,36,0
56.84088,57.093002,75,80,0
56.84088,57.093002,68,68,0
56.84088,57.093002,63,68,0
57.09512,57.639847,68,77,0
57.09512,57.639847,75,91,0
57.09512,57.639847,63,77,0
57.64558,58.422638,75,88,0
57.64558,58.422638,63,74,0
57.64558,58.422638,68,74,0
58.42996,58.678913,60,68,0
58.42996,58.678913,72,80,0
58.42996,58.678913,63,68,0
58.681004,59.22824,60,77,0
58.681004,59.22824,72,91,0
58.681004,59.22824,63,77,0
59.234,60.036312,72,86,0
59.234,60.036312,63,73,0
59.234,60.036312,60,73,0
60.043953,60.30596,60,67,0
60.043953,60.30596,68,79,0
60.043953,60.30596,65,67,0
60.30596,60.697266,60,67,0
60.30596,60.697266,68,79,0
60.30596,60.697266,65,67,0
60.8277,61.23494,70,80,0
60.8277,61.23494,63,68,0
60.8277,61.23494,61,68,0
61.370686,61.79322,70,68,0
61.370686,61.79322,67,68,0
61.370686,61.79322,63,68,0
61.370686,61.79322,61,68,0
61.370686,61.79322,73,80,0
61.934067,63.28061,68,80,0
61.934067,63.28061,72,80,0
61.934067,63.28061,60,68,0
61.934067,63.28061,63,68,0
63.28061,63.552296,68,79,0
63.28061,63.552296,65,79,0
63.28061,63.552296,77,93,0
63.55458,64.09682,68,85,0
63.55458,64.09682,77,100,0
63.55458,64.09682,65,85,0
64.10252,64.91645,77,100,0
64.10252,64.91645,65,85,0
64.10252,64.91645,68,85,0
64.924446,65.18091,68,79,0
64.924446,65.18091,65,79,0
64.924446,65.18091,73,93,0
65.18307,65.7253,73,100,0
65.18307,65.7253,68,85,0
65.18307,65.7253,65,85,0
65.73101,66.54494,73,100,0
65.73101,66.54494,68,85,0
65.73101,66.54494,65,85,0
66.552925,66.824615,68,93,0
66.552925,66.824615,65,79,0
66.8269,67.25959,65,84,0
66.8269,67.25959,68,99,0
67.403824,67.83652,73,99,0
67.403824,67.83652,69,84,0
67.403824,67.83652,66,84,0
67.98074,68.43036,73,84,0
67.98074,68.43036,66,84,0
67.98074,68.43036,78,99,0
67.98074,68.43036,69,84,0
68.58036,69.67127,65,84,0
68.58036,69.93676,77,99,0
68.58036,69.93676,68,84,0
68.58036,69.93676,73,84,0
69.93676,70.20003,73,86,0
69.93676,70.20003,66,86,0
69.93676,70.20003,78,102,0
70.20224,71.8166,66,87,0
70.20224,71.8166,73,87,0
70.20224,71.8166,78,103,0
71.8166,72.35471,76,61,0
72.35471,72.92614,75,61,0
71.8166,72.92614,73,51,0
72.92614,73.22614,73,60,0
71.8166,73.22614,67,51,0
73.22614,73.37614,68,68,0
73.22614,73.37614,61,57,0
73.52477,74.987274,68,68,0
74.987274,75.081024,70,35,0
75.081024,75.174774,68,35,0
75.174774,75.268524,67,35,0
75.268524,75.362274,68,35,0
73.52477,75.362274,61,57,0
75.50226,76.09828,71,52,0
76.09828,76.72005,70,53,0
75.362274,77.38671,68,52,0
76.72005,77.38671,68,53,0
75.50226,77.38671,62,52,0
77.38671,78.04643,63,40,0
78.05338,79.38671,63,40,0
77.38671,79.38671,56,34,0
77.38671,79.38671,60,34,0
79.38671,80.04644,63,40,0
80.05338,81.24378,63,40,0
79.38671,81.25641,61,34,0
79.38671,81.25641,58,34,0
79.38671,81.25641,55,34,0
81.25641,81.98494,63,40,0
81.99261,82.583405,60,34,0
81.99261,82.583405,63,34,0
81.99261,82.583405,68,46,0
82.58962,83.42839,68,46,0
83.42839,83.70112,70,39,0
82.58962,83.70112,60,34,0
82.58962,83.70112,63,34,0
83.70112,84.29407,68,46,0
83.70112,84.29407,61,34,0
83.70112,84.29407,63,34,0
84.29975,85.117935,67,46,0
85.117935,85.38839,70,37,0
84.29975,85.39066,63,34,0
84.29975,85.39066,61,34,0
85.39066,85.930435,70,46,0
85.93612,86.47589,68,51,0
85.93612,86.47589,63,38,0
86.481575,87.075325,61,39,0
86.481575,87.075325,70,52,0
86.481575,87.075325,63,39,0
87.08157,88.31234,60,40,0
87.08157,88.31234,72,55,0
87.08157,88.31234,63,40,0
88.31234,88.90609,63,52,0
88.91234,89.503136,72,72,0
88.91234,89.503136,60,53,0
88.91234,89.503136,63,53,0
89.50935,90.32754,60,53,0
89.50935,90.32754,63,53,0
89.50935,90.32754,72,72,0
90.32754,90.59799,70,70,0
90.32754,90.59799,58,51,0
90.32754,90.59799,61,51,0
90.600266,91.16493,61,56,0
90.600266,91.16493,58,56,0
90.600266,91.16493,70,75,0
91.170616,91.98879,57,53,0
91.170616,91.98879,69,71,0
91.170616,91.98879,60,53,0
91.98879,92.2593,70,67,0
91.98879,92.2593,58,50,0
91.98879,92.2593,61,50,0
92.26159,92.82069,58,52,0
92.26159,92.82069,70,71,0
92.26159,92.82069,61,52,0
92.82069,93.40621,56,43,0
92.82069,93.40621,60,43,0
92.82069,93.40621,68,59,0
93.40621,93.9576,58,44,0
93.40621,93.9576,55,44,0
93.40621,93.9576,67,60,0
94.019775,95.2633,56,43,0
94.019775,95.2633,68,59,0
94.019775,95.2633,60,43,0
95.2633,95.85701,75,56,0
95.86323,96.45402,75,34,0
95.86323,96.45402,72,34,0
95.86323,96.45402,80,54,0
96.46024,97.27842,80,57,0
97.27842,97.548874,82,52,0
96.46024,97.55115,72,34,0
96.46024,97.55115,75,34,0
97.55115,98.115814,75,34,0
97.55115,98.115814,73,34,0
97.55115,98.115814,80,57,0
98.1215,98.93968,79,57,0
98.93968,99.21014,82,57,0
98.1215,99.21241,73,34,0
98.1215,99.21241,75,34,0
99.21241,99.75218,82,57,0
99.757866,100.298096,75,35,0
99.757866,100.298096,80,59,0
100.3041,100.872284,73,37,0
100.3041,100.872284,75,37,0
100.3041,100.872284,82,62,0
100.878265,101.979576,84,66,0
100.878265,101.979576,72,40,0
100.878265,101.979576,75,40,0
101.979576,102.573326,75,72,0
102.57958,103.17038,72,53,0
102.57958,103.17038,84,72,0
102.57958,103.17038,75,53,0
103.1766,103.994774,84,72,0
103.1766,103.994774,75,53,0
103.1766,103.994774,72,53,0
103.994774,104.265236,70,51,0
103.994774,104.265236,73,51,0
103.994774,104.265236,82,70,0
104.2675,104.83217,73,56,0
104.2675,104.83217,82,75,0
104.2675,104.83217,70,56,0
104.83785,105.64808,72,53,0
104.83785,105.64808,69,53,0
104.83785,105.64808,81,71,0
105.65604,105.926544,73,50,0
105.65604,105.926544,70,50,0
105.65604,105.926544,82,67,0
105.928825,106.48197,82,71,0
105.928825,106.48197,73,52,0
105.928825,106.48197,70,52,0
106.48792,107.0672,68,43,0
106.48792,107.0672,72,43,0
106.48792,107.0672,80,59,0
107.073456,107.62519,67,44,0
107.073456,107.62519,70,44,0
107.073456,107.62519,79,60,0
107.68769,108.93769,72,43,0
107.68769,108.93769,80,59,0
107.68769,108.93769,68,43,0
109.25019,109.50019,68,68,0
109.25019,109.50019,63,68,0
109.25019,109.50019,75,80,0
109.50229,110.04701,75,91,0
109.50229,110.04701,68,77,0
109.50229,110.04701,63,77,0
110.05275,110.8298,68,74,0
110.05275,110.8298,75,88,0
110.05275,110.8298,63,74,0
110.83713,111.08608,72,80,0
110.83713,111.08608,63,68,0
110.83713,111.08608,60,68,0
111.08817,111.63541,63,77,0
111.08817,111.63541,72,91,0
111.08817,111.63541,60,77,0
111.64117,112.44348,60,73,0
111.64117,112.44348,63,73,0
111.64117,112.44348,72,86,0
112.451126,112.710945,60,67,0
112.451126,112.710945,65,67,0
112.451126,112.710945,68,79,0
112.71313,113.10444,68,79,0
112.71313,113.10444,65,67,0
112.71313,113.10444,60,67,0
113.23487,113.64211,70,80,0
113.23487,113.64211,61,68,0
113.23487,113.64211,63,68,0
113.777855,114.20039,67,68,0
113.777855,114.20039,73,80,0
113.777855,114.20039,61,68,0
113.777855,114.20039,70,68,0
113.777855,114.20039,63,68,0
114.34123,115.687775,68,80,0
114.34123,115.687775,72,80,0
114.34123,115.687775,60,68,0
114.34123,115.687775,63,68,0
115.687775,115.959465,77,93,0
115.687775,115.959465,65,79,0
115.687775,115.959465,68,79,0
115.96175,116.50399,77,100,0
115.96175,116.50399,65,85,0
115.96175,116.50399,68,85,0
116.5097,117.32362,68,85,0
116.5097,117.32362,77,100,0
116.5097,117.32362,65,85,0
117.33161,117.58808,68,79,0
117.33161,117.58808,73,93,0
117.33161,117.58808,65,79,0
117.59023,118.13247,73,100,0
117.59023,118.13247,68,85,0
117.59023,118.13247,65,85,0
118.138176,118.9521,65,85,0
118.138176,118.9521,68,85,0
118.138176,118.9521,73,100,0
118.9601,119.23178,68,93,0
118.9601,119.23178,65,79,0
119.23407,119.66676,65,84,0
119.23407,119.66676,68,99,0
119.81099,120.24368,66,84,0
119.81099,120.24368,69,84,0
119.81099,120.24368,73,99,0
120.38792,120.83753,73,99,0
120.38792,120.83753,78,99,0
120.38792,120.83753,66,84,0
120.38792,120.83753,69,84,0
120.987526,122.343925,77,99,0
120.987526,122.343925,65,84,0
120.987526,122.343925,68,84,0
120.987526,122.343925,73,84,0
122.343925,122.6072,66,86,0
122.343925,122.6072,78,102,0
122.343925,122.6072,73,86,0
122.60941,124.22376,73,87,0
122.60941,124.22376,66,87,0
122.60941,124.22376,78,103,0
124.22376,124.76188,76,61,0
124.76188,125.33331,75,61,0
124.22376,125.33331,73,51,0
125.33331,125.63331,73,60,0
124.22376,125.63331,67,51,0
125.63331,125.78331,68,68,0
125.63331,125.78331,61,57,0
125.931946,127.39445,68,68,0
127.39445,127.4882,70,35,0
127.4882,127.58195,68,35,0
127.58195,127.6757,67,35,0
127.6757,127.76945,68,35,0
125.931946,127.76945,61,57,0
127.909424,128.50545,71,52,0
128.50545,129.12721,70,53,0
127.76945,129.79388,68,52,0
129.12721,129.79388,68,53,0
127.909424,129.79388,62,52,0
129.79388,130.4536,63,40,0
130.46056,131.79388,63,40,0
129.79388,131.79388,60,34,0
129.79388,131.79388,56,34,0
131.79388,132.45361,63,40,0
132.46056,133.65096,63,40,0
131.79388,133.66357,55,34,0
131.79388,133.66357,58,34,0
131.79388,133.66357,61,40,0
133.66357,134.3921,63,40,0
134.39978,134.99057,63,34,0
134.39978,134.99057,68,46,0
134.39978,134.99057,60,34,0
134.9968,135.83556,68,46,0
135.83556,136.10829,70,39,0
134.9968,136.10829,63,34,0
134.9968,136.10829,60,34,0
136.10829,136.70123,68,46,0
136.10829,136.70123,61,34,0
136.10829,136.70123,63,34,0
136.70692,137.5251,67,46,0
137.5251,137.79784,70,37,0
136.70692,137.79784,63,34,0
136.70692,137.79784,61,34,0
137.79784,138.3376,70,46,0
138.34329,138.88306,68,51,0
138.34329,138.88306,63,38,0
138.88875,139.4825,63,39,0
138.88875,139.4825,70,52,0
138.88875,139.4825,61,39,0
139.48874,140.71951,72,55,0
139.48874,140.71951,60,40,0
139.48874,140.71951,63,40,0
140.71951,141.31326,63,52,0
141.3195,141.91031,60,53,0
141.3195,141.91031,63,53,0
141.3195,141.91031,72,72,0
141.91652,142.73471,72,72,0
141.91652,142.73471,63,53,0
141.91652,142.73471,60,53,0
142.73471,143.00516,58,51,0
142.73471,143.00516,61,51,0
142.73471,143.00516,70,70,0
143.00743,143.5721,70,75,0
143.00743,143.5721,61,56,0
143.00743,143.5721,58,56,0
143.57779,144.39597,57,53,0
143.57779,144.39597,60,53,0
143.57779,144.39597,69,71,0
144.39597,144.66647,58,50,0
144.39597,144.66647,70,67,0
144.39597,144.66647,61,50,0
144.66876,145.22191,70,71,0
144.66876,145.22191,58,52,0
144.66876,145.22191,61,52,0
145.22786,145.80713,56,43,0
145.22786,145.80713,68,59,0
145.22786,145.80713,60,43,0
145.81339,146.36476,67,60,0
145.81339,146.36476,55,44,0
145.81339,146.36476,58,44,0
146.42694,147.67047,60,43,0
146.42694,147.67047,68,59,0
146.42694,147.67047,56,43,0
147.67047,148.26418,75,56,0
148.2704,148.86119,72,34,0
148.2704,148.86119,80,54,0
148.2704,148.86119,75,34,0
148.86742,149.6856,80,57,0
149.6856,149.95831,82,52,0
148.86742,149.95831,75,34,0
148.86742,149.95831,72,34,0
149.95831,150.52298,80,57,0
149.95831,150.52298,73,34,0
149.95831,150.52298,75,34,0
150.52867,151.34685,79,57,0
151.34685,151.61731,82,57,0
150.52867,151.61958,75,34,0
150.52867,151.61958,73,34,0
151.61958,152.15935,82,57,0
152.16502,152.70526,80,59,0
152.16502,152.70526,75,35,0
152.71127,153.27945,82,62,0
152.71127,153.27945,73,37,0
152.71127,153.27945,75,37,0
153.28543,154.38675,72,40,0
153.28543,154.38675,75,40,0
153.28543,154.38675,84,66,0
154.38675,154.9805,75,72,0
154.98676,155.57755,84,72,0
154.98676,155.57755,75,53,0
154.98676,155.57755,72,53,0
155.58377,156.40195,72,53,0
155.58377,156.40195,75,53,0
155.58377,156.40195,84,72,0
156.40195,156.6724,82,70,0
156.40195,156.6724,73,51,0
156.40195,156.6724,70,51,0
156.67467,157.23933,70,56,0
156.67467,157.23933,73,56,0
156.67467,157.23933,82,75,0
157.24503,158.0632,69,53,0
157.24503,158.0632,81,71,0
157.24503,158.0632,72,53,0
158.0632,158.33371,82,68,0
158.0632,158.33371,70,50,0
158.0632,158.33371,73,50,0
158.336,158.8951,73,53,0
158.336,158.8951,70,53,0
158.336,158.8951,82,71,0
158.8951,159.48062,72,43,0
158.8951,159.48062,68,43,0
158.8951,159.48062,80,59,0
159.48062,160.03236,67,45,0
159.48062,160.03236,79,60,0
159.48062,160.03236,70,45,0
160.09486,161.34486,68,44,0
160.09486,161.34486,80,60,0
160.09486,161.34486,72,44,0
161.34486,161.93886,56,52,0
161.93886,162.09875,53,52,0
162.09875,162.25803,56,52,0
162.25803,162.41646,61,47,0
162.41646,162.57426,65,59,0
162.57426,162.73145,61,52,0
162.73145,162.8878,56,48,0
162.8878,163.04347,53,52,0
163.04347,163.20004,56,50,0
163.20004,163.35815,61,50,0
163.35815,163.512,56,52,0
163.512,163.66585,61,50,0
163.66585,163.81969,65,50,0
163.81969,163.97353,68,61,0
163.97353,164.12738,65,52,0
164.12738,164.28122,61,49,0
164.28122,164.43507,56,52,0
164.43507,164.58891,61,50,0
164.58891,164.74277,65,50,0
164.74277,164.8966,62,52,0
164.8966,165.05046,65,49,0
165.05046,165.2043,68,49,0
165.2043,165.35524,63,52,0
165.35524,165.50618,66,52,0
165.50618,165.65714,68,52,0
165.65714,165.80922,63,54,0
165.80922,165.96132,66,57,0
165.96132,166.1134,69,57,0
166.1134,166.2655,60,63,0
166.2655,166.41759,66,58,0
166.41759,166.56967,70,55,0
166.56967,166.72177,60,52,0
166.72177,166.87386,65,49,0
166.87386,167.02596,68,50,0
167.02596,167.18596,60,52,0
167.18596,167.34595,63,49,0
167.34595,167.50595,66,49,0
167.50595,167.65921,65,52,0
167.65921,167.81247,68,49,0
167.81247,167.96573,73,49,0
167.96573,168.11897,77,59,0
168.11897,168.27223,73,50,0
168.27223,168.42549,68,52,0
168.42549,168.57875,65,52,0
168.57875,168.73201,68,50,0
168.73201,168.88527,73,50,0
168.88527,169.03851,68,52,0
169.03851,169.19177,73,49,0
169.19177,169.34503,77,49,0
169.34503,169.49829,80,59,0
169.49829,169.65155,77,50,0
169.65155,169.80481,73,50,0
169.80481,169.95805,68,52,0
169.95805,170.11131,73,49,0
170.11131,170.26457,77,49,0
170.26457,170.41783,74,52,0
170.41783,170.57109,77,50,0
170.57109,170.72433,80,50,0
170.72433,170.87473,75,52,0
170.87473,171.0251,78,49,0
171.0251,171.17548,80,49,0
171.17548,171.32585,75,54,0
171.32585,171.47623,78,57,0
171.47623,171.6266,81,59,0
171.6266,171.77698,72,63,0
171.77698,171.92735,78,58,0
171.92735,172.07773,82,55,0
172.07773,172.23099,72,52,0
172.23099,172.38425,77,50,0
172.38425,172.53749,80,50,0
172.53749,172.69075,72,52,0
172.69075,172.84401,75,49,0
172.84401,172.99727,78,49,0
172.99727,173.15053,72,51,0
173.15053,173.30377,75,48,0
173.30377,173.45703,77,50,0
173.45703,173.61029,70,49,0
173.61029,173.76355,73,44,0
173.76355,173.91681,77,44,0
173.91681,174.07184,68,46,0
174.07184,174.22688,72,43,0
174.22688,174.38193,77,43,0
174.38193,174.53459,68,44,0
174.53459,174.68727,70,40,0
174.68727,174.83994,77,41,0
174.83994,174.99261,66,41,0
174.99261,175.14528,70,38,0
175.14528,175.29796,75,38,0
175.29796,175.45062,65,39,0
175.45062,175.6033,70,34,0
175.6033,175.75597,73,34,0
175.75597,175.90865,63,36,0
175.90865,176.06131,68,35,0
176.06131,176.21399,72,34,0
176.21399,176.36783,65,34,0
176.36783,176.52167,68,33,0
176.52167,176.67552,73,33,0
176.67552,176.83116,66,34,0
176.83116,176.9868,68,34,0
176.9868,177.14244,75,34,0
177.14244,177.2981,65,34,0
177.2981,177.45374,68,33,0
177.45374,177.60938,73,33,0
177.60938,177.76501,68,34,0
177.76501,177.92065,65,31,0
177.92065,178.0763,61,31,0
178.0763,178.23694,65,34,0
178.23694,178.39758,61,32,0
178.39758,178.55823,56,32,0
178.55823,178.71266,53,52,0
178.71266,178.86711,56,51,0
178.86711,179.02155,61,51,0
179.02155,179.17598,65,59,0
179.17598,179.33043,61,50,0
179.33043,179.48486,56,50,0
179.48486,179.63931,53,52,0
179.63931,179.79375,56,49,0
179.79375,179.94818,61,49,0
179.94818,180.10263,56,52,0
180.10263,180.25706,61,49,0
180.25706,180.4115,65,49,0
180.4115,180.56595,68,61,0
180.56595,180.72038,65,49,0
180.72038,180.87483,61,49,0
180.87483,181.02927,56,52,0
181.02927,181.1865,61,48,0
181.1865,181.34648,65,48,0
181.34648,181.50093,62,52,0
181.50093,181.65536,65,48,0
181.65536,181.8098,68,48,0
181.8098,181.96248,63,52,0
181.96248,182.11514,66,49,0
182.11514,182.26782,68,50,0
182.26782,182.42049,63,54,0
182.42049,182.57317,66,57,0
182.57317,182.72583,69,56,0
182.72583,182.87851,60,63,0
182.87851,183.03117,66,58,0
183.03117,183.18385,70,55,0
183.18385,183.33652,60,52,0
183.33652,183.4892,65,49,0
183.4892,183.64186,68,49,0
183.64186,183.8006,60,52,0
183.8006,183.95932,63,50,0
183.95932,184.11806,66,50,0
184.11806,184.2719,65,52,0
184.2719,184.42575,68,50,0
184.42575,184.57959,73,50,0
184.57959,184.73344,77,59,0
184.73344,184.88728,73,49,0
184.88728,185.04114,68,49,0
185.04114,185.19498,65,52,0
185.19498,185.34883,68,49,0
185.34883,185.50267,73,49,0
185.50267,185.65651,68,52,0
185.65651,185.81036,73,49,0
185.81036,185.9642,77,49,0
185.9642,186.11806,80,61,0
186.11806,186.2719,77,49,0
186.2719,186.42575,73,49,0
186.42575,186.57959,68,52,0
186.57959,186.73344,73,49,0
186.73344,186.88728,77,49,0
186.88728,187.04114,74,52,0
187.04114,187.19498,77,50,0
187.19498,187.34882,80,50,0
187.34882,187.5015,75,52,0
187.5015,187.65416,78,49,0
187.65416,187.80684,80,49,0
187.80684,187.9595,75,54,0
187.9595,188.11218,78,57,0
188.11218,188.26485,81,56,0
188.26485,188.41737,72,63,0
188.41737,188.56947,78,58,0
188.56947,188.72156,82,55,0
188.72156,188.87424,72,52,0
188.87424,189.0269,77,48,0
189.0269,189.17958,80,48,0
189.17958,189.33401,72,52,0
189.33401,189.48845,75,48,0
189.48845,189.6429,78,48,0
189.6429,189.79498,72,51,0
189.79498,189.94708,75,46,0
189.94708,190.09917,77,46,0
190.09917,190.25127,70,49,0
190.25127,190.40335,73,45,0
190.40335,190.55545,77,45,0
190.55545,190.70753,68,46,0
190.70753,190.85963,72,42,0
190.85963,191.01172,77,42,0
191.01172,191.1638,68,44,0
191.1638,191.3159,70,41,0
191.3159,191.46799,77,41,0
191.46799,191.62009,66,41,0
191.62009,191.77217,70,40,0
191.77217,191.92427,75,38,0
191.92427,192.07635,65,39,0
192.07635,192.22845,70,35,0
192.22845,192.38054,73,34,0
192.38054,192.5344,63,36,0
192.5344,192.68823,68,34,0
192.68823,192.84207,72,34,0
192.84207,192.99593,65,34,0
192.99593,193.14977,68,32,0
193.14977,193.30362,73,32,0
193.30362,193.45746,66,34,0
193.45746,193.61131,68,32,0
193.61131,193.76515,75,32,0
193.76515,193.919,65,34,0
193.919,194.07285,68,32,0
194.07285,194.2267,73,32,0
194.2267,194.38295,68,34,0
194.38295,194.5392,65,31,0
194.5392,194.69545,61,31,0
194.69545,194.8517,65,34,0
194.8517,195.00795,61,32,0
195.00795,195.1642,56,32,0
195.1642,195.31744,52,74,0
195.31744,195.4707,56,68,0
195.4707,195.62396,61,68,0
195.62396,195.77722,64,84,0
195.77722,195.93048,61,69,0
195.93048,196.08372,56,69,0
196.08372,196.23698,52,74,0
196.23698,196.39024,56,70,0
196.39024,196.5435,61,70,0
196.5435,196.69676,56,74,0
196.69676,196.85002,61,68,0
196.85002,197.00327,64,68,0
197.00327,197.15652,68,85,0
197.15652,197.30978,64,68,0
197.30978,197.46304,61,68,0
197.46304,197.6163,56,74,0
197.6163,197.76956,61,68,0
197.76956,197.9228,64,68,0
197.9228,198.07607,62,74,0
198.07607,198.22932,65,69,0
198.22932,198.38258,68,69,0
198.38258,198.53352,63,74,0
198.53352,198.68446,66,67,0
198.68446,198.83542,68,69,0
198.83542,198.98636,62,76,0
198.98636,199.1373,65,78,0
199.1373,199.28824,68,81,0
199.28824,199.43918,63,90,0
199.43918,199.59013,66,82,0
199.59013,199.74107,69,78,0
199.74107,199.89374,60,74,0
199.89374,200.04642,64,70,0
200.04642,200.19908,68,70,0
200.19908,200.35909,60,74,0
200.35909,200.51909,63,69,0
200.51909,200.6791,66,69,0
200.6791,200.83293,64,74,0
200.83293,200.98679,68,68,0
200.98679,201.14062,73,69,0
201.14062,201.29446,76,84,0
201.29446,201.44832,73,69,0
201.44832,201.60216,68,69,0
201.60216,201.75601,64,74,0
201.75601,201.9123,68,69,0
201.9123,202.07103,73,69,0
202.07103,202.22429,68,74,0
202.22429,202.37755,73,68,0
202.37755,202.53079,76,68,0
202.53079,202.68405,80,83,0
202.68405,202.83731,76,70,0
202.83731,202.99057,73,70,0
202.99057,203.14255,68,74,0
203.14255,203.2907,73,69,0
203.2907,203.43884,76,69,0
203.43884,203.59314,75,74,0
203.59314,203.74698,78,69,0
203.74698,203.90083,80,69,0
203.90083,204.05292,75,74,0
204.05292,204.205,78,70,0
204.205,204.3571,82,70,0
204.3571,204.50919,75,76,0
204.50919,204.66129,78,81,0
204.66129,204.81337,84,87,0
204.81337,204.96547,73,87,0
204.96547,205.11755,76,82,0
205.11755,205.26965,85,82,0
205.26965,205.42116,75,87,0
205.42116,205.57268,78,83,0
205.57268,205.7242,87,83,0
205.7242,205.8757,76,87,0
205.8757,206.02722,80,82,0
206.02722,206.17874,88,82,0
206.17874,206.33025,78,87,0
206.33025,206.48177,81,84,0
206.48177,206.63329,90,85,0
206.63329,206.7848,80,92,0
206.7848,206.93631,83,90,0
206.93631,207.08783,92,90,0
207.08783,207.23935,81,98,0
207.23935,207.39085,85,90,0
207.39085,207.54237,93,94,0
207.54237,207.6939,80,103,0
207.6939,207.8454,88,97,0
207.8454,207.99692,92,97,0
207.99692,208.14844,81,105,0
208.14844,208.29994,90,96,0
208.29994,208.45146,93,96,0
208.45146,208.60298,83,109,0
208.60298,208.75842,92,101,0
208.75842,208.91779,95,101,0
208.91779,209.06873,85,114,0
209.06873,209.21967,88,103,0
209.21967,209.36977,93,102,0
209.36977,209.51917,97,114,0
209.51917,209.66731,93,99,0
209.66731,209.81546,88,99,0
209.81546,209.96361,93,106,0
209.96361,210.11519,88,96,0
210.11519,210.27023,85,101,0
210.27023,210.4157,81,105,0
210.4157,210.56114,85,97,0
210.56114,210.7066,88,100,0
210.7066,210.85205,93,113,0
210.85205,210.99751,88,96,0
210.99751,211.14296,85,96,0
211.14296,211.28842,88,105,0
211.28842,211.4369,85,100,0
211.4369,211.58841,81,95,0
211.58841,211.73494,73,104,0
211.73494,211.88145,76,100,0
211.88145,212.02797,81,95,0
212.02797,212.1745,85,114,0
212.1745,212.32101,81,95,0
212.32101,212.46754,76,98,0
212.46754,212.61406,81,103,0
212.61406,212.76057,76,95,0
212.76057,212.9071,73,95,0
212.9071,213.05362,69,103,0
213.05362,213.20013,73,95,0
213.20013,213.34666,76,95,0
213.34666,213.49318,81,114,0
213.49318,213.6397,76,98,0
213.6397,213.78622,73,98,0
213.78622,213.93274,76,102,0
213.93274,214.07925,73,98,0
214.07925,214.22578,69,98,0
214.22578,214.37253,76,102,0
214.37253,214.51982,73,97,0
214.51982,214.66765,69,97,0
214.66765,214.81602,73,113,0
214.81602,214.96497,69,97,0
214.96497,215.11446,64,97,0
215.11446,215.26451,69,102,0
215.26451,215.41513,64,97,0
215.41513,215.56631,61,97,0
215.56631,215.71808,69,99,0
215.71808,215.8704,64,93,0
215.8704,216.02333,61,87,0
216.02333,216.17683,64,81,0
216.17683,216.33093,61,78,0
216.33093,216.4915,57,72,0
216.4915,216.65886,61,67,0
216.65886,216.82623,57,61,0
216.82623,216.99359,52,54,0
216.99359,217.14803,49,52,0
217.14803,217.30247,52,50,0
217.30247,217.45691,57,50,0
217.45691,217.61134,61,51,0
217.61134,217.7658,57,47,0
217.7658,217.92023,52,48,0
217.92023,218.07468,49,51,0
218.07468,218.22911,52,47,0
218.22911,218.38387,57,47,0
218.38387,218.53879,49,51,0
218.53879,218.69135,54,49,0
218.69135,218.8417,57,49,0
218.8417,218.99152,61,52,0
218.99152,219.14134,57,49,0
219.14134,219.29115,54,49,0
219.29115,219.44211,49,52,0
219.44211,219.59412,54,48,0
219.59412,219.74718,57,48,0
219.74718,219.90163,49,51,0
219.90163,220.05606,53,48,0
220.05606,220.2105,56,48,0
220.2105,220.36494,61,50,0
220.36494,220.51938,56,45,0
220.51938,220.67381,53,45,0
220.67381,220.82826,49,48,0
220.82826,220.9827,53,45,0
220.9827,221.13715,56,45,0
221.13715,221.29279,51,46,0
221.29279,221.44843,54,42,0
221.44843,221.60406,56,42,0
221.60406,221.76016,60,45,0
221.76016,221.91765,56,41,0
221.91765,222.07513,54,41,0
222.07513,222.23727,51,44,0
222.23727,222.41257,54,40,0
222.41257,222.59647,56,41,0
222.59647,222.75092,53,52,0
222.75092,222.90535,56,47,0
222.90535,223.05978,61,47,0
223.05978,223.21423,65,59,0
223.21423,223.36867,61,48,0
223.36867,223.52312,56,48,0
223.52312,223.67755,53,52,0
223.67755,223.83199,56,48,0
223.83199,223.98643,61,48,0
223.98643,224.14087,56,52,0
224.14087,224.29532,61,48,0
224.29532,224.44975,65,48,0
224.44975,224.60419,68,61,0
224.60419,224.75864,65,47,0
224.75864,224.91307,61,47,0
224.91307,225.06607,56,52,0
225.06607,225.21533,61,47,0
225.21533,225.36514,65,47,0
225.36514,225.519,62,52,0
225.519,225.67284,65,48,0
225.67284,225.82668,68,48,0
225.82668,225.98053,63,52,0
225.98053,226.13437,66,48,0
226.13437,226.28822,68,48,0
226.28822,226.43974,63,54,0
226.43974,226.59125,66,57,0
226.59125,226.74277,69,56,0
226.74277,226.89429,60,63,0
226.89429,227.04579,66,58,0
227.04579,227.19731,70,55,0
227.19731,227.34883,60,52,0
227.34883,227.50034,65,47,0
227.50034,227.65186,68,47,0
227.65186,227.8106,60,52,0
227.8106,227.96931,63,49,0
227.96931,228.12805,66,49,0
228.12805,228.2813,65,52,0
228.2813,228.43456,68,49,0
228.43456,228.58781,73,49,0
228.58781,228.74107,77,59,0
228.74107,228.89433,73,49,0
228.89433,229.04759,68,52,0
229.04759,229.20158,65,52,0
229.20158,229.35783,68,49,0
229.35783,229.51184,73,49,0
229.51184,229.6651,68,52,0
229.6651,229.81836,73,49,0
229.81836,229.97162,77,49,0
229.97162,230.12488,80,61,0
230.12488,230.27812,77,50,0
230.27812,230.43138,73,50,0
230.43138,230.58464,68,52,0
230.58464,230.7379,73,48,0
230.7379,230.89116,77,52,0
230.89116,231.04442,74,52,0
231.04442,231.19766,77,49,0
231.19766,231.3492,80,52,0
231.3492,231.50014,75,52,0
231.50014,231.65108,78,49,0
231.65108,231.80202,80,49,0
231.80202,231.95296,75,54,0
231.95296,232.10391,78,57,0
232.10391,232.25485,81,57,0
232.25485,232.40579,72,63,0
232.40579,232.55673,78,58,0
232.55673,232.70769,82,55,0
232.70769,232.85863,72,52,0
232.85863,233.00957,77,48,0
233.00957,233.1605,80,48,0
233.1605,233.31377,72,52,0
233.31377,233.46703,75,49,0
233.46703,233.62029,78,49,0
233.62029,233.77354,72,51,0
233.77354,233.92679,75,46,0
233.92679,234.08005,77,46,0
234.08005,234.23099,70,49,0
234.23099,234.38194,73,45,0
234.38194,234.53288,77,45,0
234.53288,234.68382,68,46,0
234.68382,234.83476,72,42,0
234.83476,234.98572,77,42,0
234.98572,235.13666,68,44,0
235.13666,235.2876,70,39,0
235.2876,235.43854,77,39,0
235.43854,235.58948,66,41,0
235.58948,235.74043,70,37,0
235.74043,235.89137,75,37,0
235.89137,236.04231,65,39,0
236.04231,236.19325,70,35,0
236.19325,236.34421,73,35,0
236.34421,236.4982,63,36,0
236.4982,236.65263,68,32,0
236.65263,236.80707,72,34,0
236.80707,236.96152,65,34,0
236.96152,237.11595,68,33,0
237.11595,237.2704,73,33,0
237.2704,237.42484,66,34,0
237.42484,237.57927,68,33,0
237.57927,237.73372,75,33,0
237.73372,237.89058,65,34,0
237.89058,238.04744,68,32,0
238.04744,238.2043,73,31,0
238.2043,238.36116,68,34,0
238.36116,238.51804,65,29,0
238.51804,238.6749,61,29,0
238.6749,238.84155,65,34,0
238.84155,239.00822,61,29,0
239.00822,239.1749,56,29,0
239.1749,239.32816,52,74,0
239.32816,239.4814,56,68,0
239.4814,239.63466,61,68,0
239.63466,239.78792,64,84,0
239.78792,239.94118,61,69,0
239.94118,240.09444,56,69,0
240.09444,240.24768,52,74,0
240.24768,240.40094,56,70,0
240.40094,240.5542,61,70,0
240.5542,240.70746,56,74,0
240.70746,240.86072,61,68,0
240.86072,241.01398,64,68,0
241.01398,241.16722,68,85,0
241.16722,241.32048,64,68,0
241.32048,241.47374,61,68,0
241.47374,241.627,56,74,0
241.627,241.78026,61,68,0
241.78026,241.93352,64,68,0
241.93352,242.08676,62,74,0
242.08676,242.24002,65,69,0
242.24002,242.39328,68,69,0
242.39328,242.54422,63,74,0
242.54422,242.69518,66,67,0
242.69518,242.84612,68,69,0
242.84612,242.99706,62,76,0
242.99706,243.148,65,78,0
243.148,243.29893,68,81,0
243.29893,243.44989,63,90,0
243.44989,243.60083,66,82,0
243.60083,243.75177,69,78,0
243.75177,243.90445,60,74,0
243.90445,244.05711,64,70,0
244.05711,244.2098,68,70,0
244.2098,244.36978,60,74,0
244.36978,244.52979,63,69,0
244.52979,244.68979,66,69,0
244.68979,244.84363,64,74,0
244.84363,244.99748,68,68,0
244.99748,245.15132,73,69,0
245.15132,245.30518,76,84,0
245.30518,245.45901,73,69,0
245.45901,245.61287,68,69,0
245.61287,245.76671,64,74,0
245.76671,245.92299,68,69,0
245.92299,246.08173,73,69,0
246.08173,246.23499,68,74,0
246.23499,246.38824,73,68,0
246.38824,246.54149,76,68,0
246.54149,246.69475,80,83,0
246.69475,246.848,76,70,0
246.848,247.00127,73,70,0
247.00127,247.15324,68,74,0
247.15324,247.30139,73,69,0
247.30139,247.44954,76,69,0
247.44954,247.60384,75,74,0
247.60384,247.75768,78,69,0
247.75768,247.91153,80,69,0
247.91153,248.06361,75,74,0
248.06361,248.21571,78,70,0
248.21571,248.3678,82,70,0
248.3678,248.5199,75,76,0
248.5199,248.67198,78,81,0
248.67198,248.82407,84,87,0
248.82407,248.97617,73,87,0
248.97617,249.12825,76,82,0
249.12825,249.28035,85,82,0
249.28035,249.43187,75,87,0
249.43187,249.58337,78,83,0
249.58337,249.7349,87,83,0
249.7349,249.88641,76,87,0
249.88641,250.03792,80,82,0
250.03792,250.18944,88,82,0
250.18944,250.34096,78,87,0
250.34096,250.49246,81,84,0
250.49246,250.64398,90,85,0
250.64398,250.7955,80,92,0
250.7955,250.947,83,90,0
250.947,251.09853,92,90,0
251.09853,251.25005,81,98,0
251.25005,251.40155,85,90,0
251.40155,251.55307,93,94,0
251.55307,251.70459,80,103,0
251.70459,251.85611,88,97,0
251.85611,252.00761,92,97,0
252.00761,252.15913,81,105,0
252.15913,252.31065,90,96,0
252.31065,252.46216,93,96,0
252.46216,252.61368,83,109,0
252.61368,252.76912,92,101,0
252.76912,252.92848,95,101,0
252.92848,253.07942,85,114,0
253.07942,253.23036,88,103,0
253.23036,253.38046,93,102,0
253.38046,253.52986,97,114,0
253.52986,253.67801,93,99,0
253.67801,253.82616,88,99,0
253.82616,253.9743,93,106,0
253.9743,254.1259,88,96,0
254.1259,254.28093,85,101,0
254.28093,254.42639,81,105,0
254.42639,254.57184,85,97,0
254.57184,254.7173,88,100,0
254.7173,254.86275,93,113,0
254.86275,255.00821,88,96,0
255.00821,255.15366,85,96,0
255.15366,255.29912,88,105,0
255.29912,255.4476,85,100,0
255.4476,255.59912,81,95,0
255.59912,255.74564,73,104,0
255.74564,255.89215,76,100,0
255.89215,256.03867,81,95,0
256.03867,256.18518,85,114,0
256.18518,256.33173,81,95,0
256.33173,256.47824,76,98,0
256.47824,256.62476,81,103,0
256.62476,256.77127,76,95,0
256.77127,256.9178,73,95,0
256.9178,257.0643,69,103,0
257.0643,257.21085,73,95,0
257.21085,257.35736,76,95,0
257.35736,257.50388,81,114,0
257.50388,257.6504,76,98,0
257.6504,257.7969,73,98,0
257.7969,257.94345,76,102,0
257.94345,258.08997,73,98,0
258.08997,258.23648,69,98,0
258.23648,258.38324,76,102,0
258.38324,258.53052,73,97,0
258.53052,258.67834,69,97,0
258.67834,258.82672,73,113,0
258.82672,258.97568,69,97,0
258.97568,259.12515,64,97,0
259.12515,259.2752,69,102,0
259.2752,259.4258,64,97,0
259.4258,259.57703,61,97,0
259.57703,259.72876,69,99,0
259.72876,259.8811,64,93,0
259.8811,260.03403,61,87,0
260.03403,260.18753,64,81,0
260.18753,260.34164,61,78,0
260.34164,260.5022,57,72,0
260.5022,260.66956,61,67,0
260.66956,260.8369,57,61,0
260.8369,261.0043,52,54,0
261.0043,261.15872,49,52,0
261.15872,261.31317,52,50,0
261.31317,261.46762,57,50,0
261.46762,261.62204,61,51,0
261.62204,261.7765,57,47,0
261.7765,261.93094,52,48,0
261.93094,262.08536,49,51,0
262.08536,262.2398,52,47,0
262.2398,262.39456,57,47,0
262.39456,262.5495,49,51,0
262.5495,262.70206,54,49,0
262.70206,262.85242,57,49,0
262.85242,263.00223,61,52,0
263.00223,263.15204,57,49,0
263.15204,263.30185,54,49,0
263.30185,263.45282,49,52,0
263.45282,263.6048,54,48,0
263.6048,263.75787,57,48,0
263.75787,263.91232,49,51,0
263.91232,264.06677,53,48,0
264.06677,264.2212,56,48,0
264.2212,264.37564,61,50,0
264.37564,264.5301,56,45,0
264.5301,264.6845,53,45,0
264.6845,264.83896,49,48,0
264.83896,264.9934,53,45,0
264.9934,265.14783,56,45,0
265.14783,265.30347,51,46,0
265.30347,265.45914,54,42,0
265.45914,265.61478,56,42,0
265.61478,265.77087,60,45,0
265.77087,265.92834,56,41,0
265.92834,266.08582,54,41,0
266.08582,266.248,51,44,0
266.248,266.42325,54,40,0
266.42325,266.60718,56,41,0
266.60718,266.7616,53,52,0
266.7616,266.91605,56,47,0
266.91605,267.0705,61,47,0
267.0705,267.22495,65,59,0
267.22495,267.37936,61,48,0
267.37936,267.5338,56,48,0
267.5338,267.68826,53,52,0
267.68826,267.84268,56,48,0
267.84268,267.99713,61,48,0
267.99713,268.15158,56,52,0
268.15158,268.306,61,48,0
268.306,268.46045,65,48,0
268.46045,268.6149,68,61,0
268.6149,268.76932,65,47,0
268.76932,268.92377,61,47,0
268.92377,269.07678,56,52,0
269.07678,269.22604,61,47,0
269.22604,269.37585,65,47,0
269.37585,269.5297,62,52,0
269.5297,269.68353,65,48,0
269.68353,269.83737,68,48,0
269.83737,269.99124,63,52,0
269.99124,270.14508,66,48,0
270.14508,270.29892,68,48,0
270.29892,270.45044,63,54,0
270.45044,270.60196,66,57,0
270.60196,270.75348,69,56,0
270.75348,270.90497,60,63,0
270.90497,271.0565,66,58,0
271.0565,271.208,70,55,0
271.208,271.35953,60,52,0
271.35953,271.51105,65,47,0
271.51105,271.66257,68,47,0
271.66257,271.8213,60,52,0
271.8213,271.98,63,49,0
271.98,272.13873,66,49,0
272.13873,272.292,65,52,0
272.292,272.44525,68,49,0
272.44525,272.5985,73,49,0
272.5985,272.75177,77,59,0
272.75177,272.90503,73,49,0
272.90503,273.0583,68,52,0
273.0583,273.21228,65,52,0
273.21228,273.36853,68,49,0
273.36853,273.52255,73,49,0
273.52255,273.6758,68,52,0
273.6758,273.82907,73,49,0
273.82907,273.9823,77,49,0
273.9823,274.13556,80,61,0
274.13556,274.28882,77,50,0
274.28882,274.44208,73,50,0
274.44208,274.59534,68,52,0
274.59534,274.7486,73,48,0
274.7486,274.90186,77,52,0
274.90186,275.0551,74,52,0
275.0551,275.20837,77,49,0
275.20837,275.3599,80,52,0
275.3599,275.51083,75,52,0
275.51083,275.66177,78,49,0
275.66177,275.8127,80,49,0
275.8127,275.96365,75,54,0
275.96365,276.1146,78,57,0
276.1146,276.26556,81,57,0
276.26556,276.4165,72,63,0
276.4165,276.56744,78,58,0
276.56744,276.71838,82,55,0
276.71838,276.86932,72,52,0
276.86932,277.02026,77,48,0
277.02026,277.1712,80,48,0
277.1712,277.32446,72,52,0
277.32446,277.47772,75,49,0
277.47772,277.63098,78,49,0
277.63098,277.78424,72,51,0
277.78424,277.9375,75,46,0
277.9375,278.09076,77,46,0
278.09076,278.2417,70,49,0
278.2417,278.39264,73,45,0
278.39264,278.54358,77,45,0
278.54358,278.69452,68,46,0
278.69452,278.84546,72,42,0
278.84546,278.9964,77,42,0
278.9964,279.14734,68,44,0
279.14734,279.2983,70,39,0
279.2983,279.44925,77,39,0
279.44925,279.6002,66,41,0
279.6002,279.75113,70,37,0
279.75113,279.90207,75,37,0
279.90207,280.053,65,39,0
280.053,280.20395,70,35,0
280.20395,280.3549,73,35,0
280.3549,280.50888,63,36,0
280.50888,280.66333,68,32,0
280.66333,280.81778,72,34,0
280.81778,280.97223,65,34,0
280.97223,281.12665,68,33,0
281.12665,281.2811,73,33,0
281.2811,281.43555,66,34,0
281.43555,281.58997,68,33,0
281.58997,281.74442,75,33,0
281.74442,281.90128,65,34,0
281.90128,282.05814,68,32,0
282.05814,282.215,73,31,0
282.215,282.37186,68,34,0
282.37186,282.52872,65,29,0
282.52872,282.68558,61,29,0
282.68558,282.85226,65,34,0
282.85226,283.01892,61,29,0
283.01892,283.18558,56,29,0
283.18558,283.33945,53,36,0
283.33945,283.4933,56,32,0
283.4933,283.64713,61,32,0
283.64713,283.80096,65,36,0
283.80096,283.95483,61,29,0
283.95483,284.10867,56,31,0
284.10867,284.2625,53,35,0
284.2625,284.41635,56,31,0
284.41635,284.5702,61,31,0
284.5702,284.72406,53,34,0
284.72406,284.8779,56,30,0
284.8779,285.03174,61,30,0
285.03174,285.18558,65,34,0
285.18558,285.33945,61,30,0
285.33945,285.4933,56,30,0
285.4933,285.65924,53,34,0
285.65924,285.82523,56,30,0
285.82523,285.9912,61,30,0
285.9912,286.1439,52,33,0
286.1439,286.29654,56,28,0
286.29654,286.44922,61,28,0
286.44922,286.6019,64,32,0
286.6019,286.75458,61,28,0
286.75458,286.90723,56,28,0
286.90723,287.0599,52,32,0
287.0599,287.2126,56,27,0
287.2126,287.36658,61,28,0
287.36658,287.52103,52,31,0
287.52103,287.67545,58,27,0
287.67545,287.8299,61,27,0
287.8299,287.98434,64,30,0
287.98434,288.13876,61,27,0
288.13876,288.2932,58,27,0
288.2932,288.45386,52,29,0
288.45386,288.6145,58,27,0
288.6145,288.77515,61,27,0
288.77515,288.93018,51,29,0
288.93018,289.08524,58,27,0
289.08524,289.24026,61,27,0
289.24026,289.3953,63,28,0
289.3953,289.55032,61,27,0
289.55032,289.70538,58,27,0
289.70538,289.8604,51,28,0
289.8604,290.01544,58,23,0
290.01544,290.1705,61,23,0
290.1705,290.3305,51,28,0
290.3305,290.49048,58,24,0
290.49048,290.65048,61,24,0
290.65048,290.8105,63,27,0
290.8105,290.9705,61,25,0
290.9705,291.1305,58,25,0
291.1305,291.2905,51,26,0
291.2905,291.4505,58,26,0
291.4505,291.6105,61,26,0
291.6105,292.10675,63,38,0
292.11218,292.64087,63,39,0
292.64658,293.20737,63,39,0
293.2135,293.81738,63,40,0
293.824,294.47824,63,40,0
294.4854,295.08215,63,46,0
295.08844,295.6822,60,34,0
295.08844,295.6822,63,34,0
295.08844,295.6822,68,46,0
295.68845,296.50662,68,46,0
296.50662,296.77936,70,39,0
295.68845,296.77936,60,34,0
295.68845,296.77936,63,34,0
296.77936,297.37228,63,34,0
296.77936,297.37228,68,46,0
296.77936,297.37228,61,34,0
297.378,298.19617,67,46,0
298.19617,298.4666,70,37,0
297.378,298.4689,61,34,0
297.378,298.4689,63,34,0
298.4689,299.00867,70,46,0
299.01434,299.5541,68,51,0
299.01434,299.5541,63,38,0
299.5598,300.15356,70,52,0
299.5598,300.15356,63,39,0
299.5598,300.15356,61,39,0
300.1598,301.26154,63,40,0
300.1598,301.26154,60,40,0
300.1598,301.26154,72,55,0
301.26154,301.8553,63,59,0
301.86154,302.4553,63,54,0
301.86154,302.4553,60,54,0
301.86154,302.4553,72,72,0
302.46155,303.27975,72,73,0
302.46155,303.27975,60,55,0
302.46155,303.27975,63,55,0
303.27975,303.55023,63,46,0
303.27975,303.55023,73,63,0
303.27975,303.55023,61,46,0
303.5525,304.14532,63,52,0
303.5525,304.14532,60,52,0
303.5525,304.14532,72,71,0
304.15158,304.9735,58,47,0
304.15158,304.9735,63,47,0
304.15158,304.9735,70,64,0
304.9735,305.2452,63,39,0
304.9735,305.2452,72,52,0
304.9735,305.2452,60,39,0
305.24747,305.84122,58,41,0
305.24747,305.84122,63,41,0
305.24747,305.84122,70,56,0
305.84747,306.47913,63,39,0
305.84747,306.47913,56,39,0
305.84747,306.47913,68,52,0
306.48578,306.9645,75,66,0
306.9645,307.12408,73,59,0
306.48578,307.12408,63,49,0
306.48578,307.12408,70,56,0
307.12408,308.35483,68,36,0
307.12408,308.35483,72,49,0
307.12408,308.35483,63,36,0
308.35483,308.94855,75,56,0
308.95477,309.54556,72,34,0
308.95477,309.54556,80,54,0
308.95477,309.54556,75,34,0
309.5518,310.36996,80,57,0
310.36996,310.6427,82,53,0
309.5518,310.6427,72,34,0
309.5518,310.6427,75,34,0
310.6427,311.20737,75,34,0
310.6427,311.20737,80,57,0
310.6427,311.20737,73,34,0
311.21304,312.03122,79,57,0
312.03122,312.30396,82,57,0
311.21304,312.30396,73,34,0
311.21304,312.30396,75,34,0
312.30396,312.84372,82,57,0
312.8494,313.38965,80,59,0
312.8494,313.38965,75,35,0
313.39566,313.96384,75,37,0
313.39566,313.96384,82,62,0
313.39566,313.96384,73,37,0
313.96982,315.07114,72,40,0
313.96982,315.07114,84,66,0
313.96982,315.07114,75,40,0
315.07114,315.6649,75,65,0
315.6711,316.26486,75,44,0
315.6711,316.26486,72,44,0
315.6711,316.26486,84,73,0
316.27112,317.08936,84,74,0
317.08936,317.3748,85,70,0
316.27112,317.3748,75,44,0
316.27112,317.3748,72,44,0
317.3748,317.96854,76,37,0
317.3748,317.96854,84,59,0
317.3748,317.96854,72,37,0
317.9748,318.79672,82,52,0
318.79672,319.07068,84,54,0
317.9748,319.07068,72,36,0
317.9748,319.07068,76,36,0
319.07068,319.66443,82,49,0
319.07068,319.66443,77,36,0
319.07068,319.66443,72,36,0
319.6707,319.86392,80,47,0
319.86392,319.96054,82,52,0
319.96054,320.05716,80,51,0
320.05716,320.15378,79,51,0
319.6707,320.24435,77,34,0
319.6707,320.24435,72,34,0
320.15378,320.2504,80,51,0
320.2504,320.72025,84,64,0
320.72025,320.89368,82,62,0
320.2504,320.89368,79,37,0
320.2504,320.89368,73,37,0
320.89368,322.1502,80,54,0
320.89368,322.1502,72,35,0
322.46436,322.71225,68,68,0
322.46436,322.71225,63,68,0
322.46436,322.71225,75,80,0
322.71436,323.25906,68,77,0
322.71436,323.25906,63,77,0
322.71436,323.25906,75,91,0
323.2648,324.04187,63,74,0
323.2648,324.04187,75,88,0
323.2648,324.04187,68,74,0
324.0492,324.29813,63,68,0
324.0492,324.29813,72,80,0
324.0492,324.29813,60,68,0
324.30023,324.84747,60,77,0
324.30023,324.84747,63,77,0
324.30023,324.84747,72,91,0
324.8532,325.65555,72,86,0
324.8532,325.65555,60,73,0
324.8532,325.65555,63,73,0
325.66318,325.923,68,79,0
325.66318,325.923,60,67,0
325.66318,325.923,65,67,0
325.9252,326.3165,60,67,0
325.9252,326.3165,68,79,0
325.9252,326.3165,65,67,0
326.44693,326.85416,63,68,0
326.44693,326.85416,70,80,0
326.44693,326.85416,61,68,0
326.9899,327.41245,70,68,0
326.9899,327.41245,63,68,0
326.9899,327.41245,61,68,0
326.9899,327.41245,67,68,0
326.9899,327.41245,73,80,0
327.55328,328.89984,72,80,0
327.55328,328.89984,60,68,0
327.55328,328.89984,63,68,0
327.55328,328.89984,68,80,0
328.89984,329.1715,68,79,0
328.89984,329.1715,65,79,0
328.89984,329.1715,77,93,0
329.1738,329.71603,68,85,0
329.1738,329.71603,77,100,0
329.1738,329.71603,65,85,0
329.72174,330.53568,65,85,0
329.72174,330.53568,77,100,0
329.72174,330.53568,68,85,0
330.54367,330.80014,65,79,0
330.54367,330.80014,73,93,0
330.54367,330.80014,68,79,0
330.80228,331.3445,65,85,0
330.80228,331.3445,73,100,0
330.80228,331.3445,68,85,0
331.35022,332.16415,65,85,0
331.35022,332.16415,73,100,0
331.35022,332.16415,68,85,0
332.17215,332.44385,65,79,0
332.17215,332.44385,68,93,0
332.44614,332.8788,68,99,0
332.44614,332.8788,65,84,0
333.02304,333.45575,73,99,0
333.02304,333.45575,66,84,0
333.02304,333.45575,69,84,0
333.59998,334.0496,66,84,0
333.59998,334.0496,69,84,0
333.59998,334.0496,73,99,0
333.59998,334.0496,78,99,0
334.1996,335.55597,77,99,0
334.1996,335.55597,68,84,0
334.1996,335.55597,73,84,0
334.1996,335.55597,65,84,0
335.55597,335.81924,78,102,0
335.55597,335.81924,73,86,0
335.55597,335.81924,66,86,0
335.82147,337.43582,66,87,0
335.82147,337.43582,78,103,0
335.82147,337.43582,73,87,0
337.43582,337.97394,76,61,0
337.97394,338.54538,75,61,0
337.43582,338.54538,73,51,0
338.54538,338.84537,73,60,0
337.43582,338.84537,67,51,0
338.84537,338.99536,68,68,0
338.84537,338.99536,61,57,0
339.144,340.6065,68,68,0
340.6065,340.70026,70,35,0
340.70026,340.794,68,35,0
340.794,340.88776,67,35,0
340.88776,340.9815,68,35,0
339.144,340.9815,61,57,0
341.1215,341.7175,71,52,0
341.7175,342.33926,70,53,0
340.9815,343.00595,68,52,0
342.33926,343.00595,68,53,0
341.1215,343.00595,62,52,0
343.00595,343.66565,63,40,0
343.6726,345.00595,63,40,0
343.00595,345.00595,56,34,0
343.00595,345.00595,60,34,0
345.00595,345.7086,63,40,0
345.716,346.90714,63,40,0
345.00595,346.91974,61,40,0
345.00595,346.91974,58,34,0
345.00595,346.91974,55,34,0
346.91974,347.6483,63,40,0
347.65594,348.24673,68,46,0
347.65594,348.24673,63,34,0
347.65594,348.24673,60,34,0
348.25296,349.09174,68,46,0
349.09174,349.36444,70,39,0
348.25296,349.36444,60,34,0
348.25296,349.36444,63,34,0
349.36444,349.9574,68,46,0
349.36444,349.9574,63,34,0
349.36444,349.9574,61,34,0
349.9631,350.78128,67,46,0
350.78128,351.05402,70,37,0
349.9631,351.05402,61,34,0
349.9631,351.05402,63,34,0
351.05402,351.59378,70,46,0
351.59946,352.13922,63,38,0
351.59946,352.13922,68,51,0
352.1449,352.73865,61,39,0
352.1449,352.73865,70,52,0
352.1449,352.73865,63,39,0
352.7449,353.97568,63,40,0
352.7449,353.97568,72,55,0
352.7449,353.97568,60,40,0
353.97568,354.56943,63,52,0
354.57568,355.16647,60,53,0
354.57568,355.16647,72,72,0
354.57568,355.16647,63,53,0
355.1727,355.99088,60,53,0
355.1727,355.99088,63,53,0
355.1727,355.99088,72,72,0
355.99088,356.26132,58,51,0
355.99088,356.26132,70,70,0
355.99088,356.26132,61,51,0
356.2636,356.82828,61,56,0
356.2636,356.82828,70,75,0
356.2636,356.82828,58,56,0
356.83395,357.65213,57,53,0
356.83395,357.65213,69,71,0
356.83395,357.65213,60,53,0
357.65213,357.92264,70,67,0
357.65213,357.92264,61,50,0
357.65213,357.92264,58,50,0
357.92493,358.48404,61,52,0
357.92493,358.48404,58,52,0
357.92493,358.48404,70,71,0
358.48404,359.06955,68,59,0
358.48404,359.06955,60,43,0
358.48404,359.06955,56,43,0
359.06955,359.62094,67,60,0
359.06955,359.62094,58,44,0
359.06955,359.62094,55,44,0
359.6831,360.92664,60,43,0
359.6831,360.92664,68,59,0
359.6831,360.92664,56,43,0
360.92664,361.52036,75,56,0
361.52655,362.11737,72,34,0
361.52655,362.11737,80,54,0
361.52655,362.11737,75,34,0
362.12357,362.94177,80,57,0
362.94177,363.21448,82,52,0
362.12357,363.21448,72,34,0
362.12357,363.21448,75,34,0
363.21448,363.77914,75,34,0
363.21448,363.77914,73,34,0
363.21448,363.77914,80,57,0
363.78485,364.60303,79,57,0
364.60303,364.87347,82,57,0
363.78485,364.87573,75,34,0
363.78485,364.87573,73,34,0
364.87573,365.41553,82,57,0
365.4212,365.96143,75,35,0
365.4212,365.96143,80,59,0
365.96744,366.5356,73,37,0
365.96744,366.5356,75,37,0
365.96744,366.5356,82,62,0
366.5416,367.6429,84,66,0
366.5416,367.6429,72,40,0
366.5416,367.6429,75,40,0
367.6429,368.23666,75,72,0
368.24292,368.8337,72,53,0
368.24292,368.8337,75,53,0
368.24292,368.8337,84,72,0
368.83994,369.6581,84,72,0
368.83994,369.6581,75,53,0
368.83994,369.6581,72,53,0
369.6581,369.92856,70,51,0
369.6581,369.92856,82,70,0
369.6581,369.92856,73,51,0
369.93085,370.4955,70,56,0
369.93085,370.4955,73,56,0
369.93085,370.4955,82,75,0
370.5012,371.31937,69,53,0
370.5012,371.31937,81,71,0
370.5012,371.31937,72,53,0
371.31937,371.58987,73,50,0
371.31937,371.58987,82,67,0
371.31937,371.58987,70,50,0
371.59216,372.14532,70,52,0
371.59216,372.14532,73,52,0
371.59216,372.14532,82,71,0
372.15128,372.73053,72,43,0
372.15128,372.73053,80,59,0
372.15128,372.73053,68,43,0
372.7368,373.28854,67,44,0
372.7368,373.28854,70,44,0
372.7368,373.28854,79,60,0
373.35104,374.60104,72,43,0
373.35104,374.60104,80,59,0
373.35104,374.60104,68,43,0
374.91354,375.22342,58,51,0
374.91354,375.22342,61,51,0
374.91354,375.22342,70,73,0
375.22604,375.85104,70,72,0
375.22604,375.85104,58,50,0
375.22604,375.85104,61,50,0
375.85104,376.47604,60,42,0
375.85104,376.47604,56,42,0
375.85104,376.47604,68,60,0
376.47604,377.03854,58,39,0
376.47604,377.03854,67,55,0
376.47604,377.03854,55,39,0
377.10104,378.67307,56,37,0
377.10104,378.67307,60,37,0
377.10104,378.67307,68,53,0
378.67307,378.97058,70,67,0
378.67307,378.97058,61,56,0
378.67307,378.97058,73,79,0
378.97305,379.6129,73,79,0
378.97305,379.6129,70,67,0
378.97305,379.6129,61,56,0
379.6129,380.35898,72,70,0
379.6129,380.35898,60,50,0
379.6129,380.35898,68,59,0
380.35898,381.15582,70,64,0
380.35898,381.15582,67,54,0
380.35898,381.15582,58,45,0
381.25378,382.7262,68,61,0
381.25378,382.7262,56,43,0
1.19403,1.784826,51,27,0
1.791045,2.3818412,51,27,0
2.38806,3.47897,51,27,0
1.791045,3.47897,44,27,0
3.47897,4.0719247,51,27,0
4.077606,5.168516,51,27,0
3.47897,5.168516,46,27,0
5.168516,5.7082896,51,27,0
5.713971,6.2537446,51,27,0
5.168516,6.2594266,48,27,0
6.2594266,6.8531766,51,27,0
6.2594266,6.8594265,43,27,0
6.8594265,7.96117,51,27,0
6.8594265,7.96117,44,27,0
7.96117,8.55492,51,31,0
8.56117,9.15492,51,31,0
9.16117,10.252122,51,31,0
8.56117,10.252122,44,31,0
10.252122,10.844962,51,31,0
10.8512125,11.947103,51,31,0
10.252122,11.947103,49,31,0
11.947103,12.540853,51,31,0
12.547103,13.178752,51,31,0
11.947103,13.1854,48,31,0
13.1854,13.823698,51,31,0
13.1854,13.823698,43,31,0
13.823698,15.067223,51,29,0
13.823698,15.067223,44,29,0
15.067223,15.660929,51,27,0
15.667148,16.257944,51,27,0
16.264162,17.355072,51,27,0
15.667148,17.355072,44,27,0
17.355072,17.919737,51,27,0
17.925419,19.016329,51,27,0
17.355072,19.016329,46,27,0
19.016329,19.556103,51,27,0
19.561785,20.102016,51,28,0
19.016329,20.108027,48,27,0
20.108027,20.676208,51,29,0
20.108027,20.676208,43,29,0
20.68219,21.783503,51,32,0
20.68219,21.783503,44,32,0
21.783503,22.377253,51,31,0
22.383503,22.977253,51,34,0
22.983501,24.087181,51,35,0
22.383503,24.087181,44,34,0
24.087181,24.680931,48,31,0
24.687181,25.783072,48,31,0
24.087181,25.783072,43,31,0
25.783072,26.376822,48,31,0
26.383072,26.956743,48,31,0
25.783072,26.962782,41,31,0
26.962782,27.606045,39,31,0
26.962782,27.606045,51,31,0
27.606045,28.861958,51,29,0
27.606045,28.861958,44,29,0
28.861958,29.45869,51,27,0
29.464972,30.058722,51,27,0
30.064972,31.155882,51,27,0
29.464972,31.155882,44,27,0
31.155882,31.748837,51,27,0
31.754519,32.84543,51,27,0
31.155882,32.84543,46,27,0
32.84543,33.3852,51,27,0
32.84543,33.926113,48,27,0
33.390884,33.930656,51,27,0
33.93634,34.53009,43,27,0
33.93634,34.53009,51,27,0
34.53634,35.63808,51,27,0
34.53634,35.63808,44,27,0
35.63808,36.23183,51,31,0
36.238083,36.831833,51,31,0
36.83808,37.929035,51,31,0
36.238083,37.929035,44,31,0
37.929035,38.521873,51,31,0
38.528126,39.624016,51,31,0
37.929035,39.624016,49,31,0
39.624016,40.217766,51,31,0
40.224014,40.855663,51,31,0
39.624016,40.862312,48,31,0
40.862312,41.50061,51,31,0
40.862312,41.50061,43,31,0
41.50061,42.73138,51,29,0
41.50061,42.73138,44,29,0
42.73138,43.32509,51,27,0
43.331306,43.922104,51,27,0
43.92832,45.01923,51,27,0
43.331306,45.01923,44,27,0
45.01923,45.583897,51,27,0
45.589577,46.68049,51,27,0
45.01923,46.68049,46,27,0
46.68049,47.22026,51,27,0
47.225945,47.766174,51,28,0
46.68049,47.772186,48,27,0
47.772186,48.340366,51,29,0
47.772186,48.340366,43,29,0
48.346348,49.447662,44,32,0
48.346348,49.447662,51,32,0
49.447662,50.041412,51,31,0
50.04766,50.64141,51,34,0
50.64766,51.75134,51,35,0
50.04766,51.75134,44,34,0
51.75134,52.34509,48,31,0
52.35134,53.44723,48,31,0
51.75134,53.44723,43,31,0
53.44723,54.04723,48,31,0
54.04723,54.626938,48,31,0
53.44723,54.626938,41,31,0
54.626938,55.270203,39,31,0
54.626938,55.270203,51,31,0
55.270203,56.52675,51,28,0
55.270203,56.52675,44,28,0
56.84088,57.093002,48,54,0
56.84088,57.093002,60,64,0
56.84088,57.093002,56,54,0
57.09512,57.639847,56,62,0
57.09512,57.639847,48,62,0
57.09512,57.639847,60,73,0
57.64558,58.422638,48,59,0
57.64558,58.422638,60,70,0
57.64558,58.422638,56,59,0
58.42996,58.678913,44,54,0
58.42996,58.678913,51,54,0
58.42996,58.678913,56,64,0
58.681004,59.22824,56,72,0
58.681004,59.22824,51,61,0
58.681004,59.22824,44,61,0
59.234,60.036312,44,59,0
59.234,60.036312,51,59,0
59.234,60.036312,56,70,0
60.043953,60.30596,53,64,0
60.043953,60.30596,41,54,0
60.30596,60.697266,53,64,0
60.30596,60.697266,41,54,0
60.8277,61.23494,43,54,0
60.8277,61.23494,55,64,0
61.370686,61.79322,51,64,0
61.370686,61.79322,39,54,0
61.934067,63.28061,51,54,0
61.934067,63.28061,44,54,0
61.934067,63.28061,56,64,0
63.28061,63.552296,49,80,0
63.28061,63.552296,37,68,0
63.28061,63.552296,44,68,0
63.55458,64.09682,49,80,0
63.55458,64.09682,37,68,0
63.55458,64.09682,44,68,0
64.10252,64.91645,49,80,0
64.10252,64.91645,44,68,0
64.10252,64.91645,37,68,0
64.924446,65.18091,44,68,0
64.924446,65.18091,49,80,0
64.924446,65.18091,37,68,0
65.18307,65.7253,49,80,0
65.18307,65.7253,37,68,0
65.18307,65.7253,44,68,0
65.73101,66.54494,37,68,0
65.73101,66.54494,44,68,0
65.73101,66.54494,49,80,0
66.552925,66.824615,37,68,0
66.552925,66.824615,49,80,0
66.8269,67.25959,49,80,0
66.8269,67.25959,37,68,0
67.403824,67.83652,33,68,0
67.403824,67.83652,45,80,0
67.98074,68.43036,42,80,0
67.98074,68.43036,30,68,0
68.58036,69.93676,49,80,0
68.58036,69.93676,37,68,0
69.93676,70.20003,33,68,0
69.93676,70.20003,45,80,0
70.20224,73.22614,33,68,0
70.20224,73.22614,45,80,0
73.22614,73.37614,40,45,0
73.22614,73.37614,52,54,0
73.52477,77.38671,40,45,0
73.52477,77.38671,52,54,0
77.38671,78.04643,51,27,0
78.05338,79.38671,51,27,0
77.38671,79.38671,39,27,0
79.38671,80.04644,51,27,0
80.05338,81.24378,51,27,0
79.38671,81.25641,39,27,0
81.25641,81.98494,51,27,0
81.99261,82.583405,51,27,0
82.58962,83.70112,51,27,0
81.99261,83.70112,44,27,0
83.70112,84.29407,51,27,0
84.29975,85.39066,51,27,0
83.70112,85.39066,46,27,0
85.39066,85.930435,51,27,0
85.93612,86.47589,51,27,0
85.39066,86.481575,48,27,0
86.481575,87.075325,43,27,0
86.481575,87.075325,51,27,0
87.08157,88.31234,44,27,0
87.08157,88.31234,51,27,0
88.31234,88.90609,51,29,0
88.91234,89.503136,51,36,0
89.50935,90.600266,51,37,0
88.91234,90.600266,42,36,0
90.600266,91.16493,51,37,0
91.170616,91.98879,51,35,0
90.600266,91.98879,41,37,0
91.98879,92.2593,49,35,0
91.98879,92.2593,40,35,0
92.26159,92.82069,49,35,0
92.26159,92.82069,40,35,0
92.82069,93.40621,39,28,0
92.82069,93.40621,51,29,0
93.40621,93.9576,39,30,0
93.40621,93.9576,49,30,0
93.40621,93.9576,51,30,0
94.019775,95.2633,44,28,0
94.019775,95.2633,51,28,0
94.019775,95.2633,48,28,0
95.2633,95.85701,51,27,0
95.86323,96.45402,51,27,0
96.46024,97.55115,51,27,0
95.86323,97.55115,44,27,0
97.55115,98.115814,51,27,0
98.1215,99.21241,51,27,0
97.55115,99.21241,46,27,0
99.21241,99.75218,51,27,0
99.757866,100.298096,51,28,0
99.21241,100.3041,48,27,0
100.3041,100.872284,51,29,0
100.3041,100.872284,43,29,0
100.878265,101.979576,51,32,0
100.878265,101.979576,44,32,0
101.979576,102.573326,51,37,0
102.57958,103.17038,51,36,0
103.1766,104.2675,51,37,0
102.57958,104.2675,42,36,0
104.2675,104.83217,51,37,0
104.83785,105.64808,51,35,0
104.2675,105.65604,41,37,0
105.65604,105.926544,40,35,0
105.65604,105.926544,49,35,0
105.928825,106.48197,40,35,0
105.928825,106.48197,49,35,0
106.48792,107.0672,39,28,0
106.48792,107.0672,51,29,0
107.073456,107.62519,39,30,0
107.073456,107.62519,49,30,0
107.073456,107.62519,51,30,0
107.68769,108.93769,44,28,0
107.68769,108.93769,51,28,0
107.68769,108.93769,48,28,0
109.25019,109.50019,48,54,0
109.25019,109.50019,60,64,0
109.25019,109.50019,56,54,0
109.50229,110.04701,60,73,0
109.50229,110.04701,48,62,0
109.50229,110.04701,56,62,0
110.05275,110.8298,60,70,0
110.05275,110.8298,56,59,0
110.05275,110.8298,48,59,0
110.83713,111.08608,56,64,0
110.83713,111.08608,44,54,0
110.83713,111.08608,51,54,0
111.08817,111.63541,44,61,0
111.08817,111.63541,56,72,0
111.08817,111.63541,51,61,0
111.64117,112.44348,44,59,0
111.64117,112.44348,56,70,0
111.64117,112.44348,51,59,0
112.451126,112.710945,53,64,0
112.451126,112.710945,41,54,0
112.71313,113.10444,53,64,0
112.71313,113.10444,41,54,0
113.23487,113.64211,43,54,0
113.23487,113.64211,55,64,0
113.777855,114.20039,51,64,0
113.777855,114.20039,39,54,0
114.34123,115.687775,44,54,0
114.34123,115.687775,56,64,0
114.34123,115.687775,51,54,0
115.687775,115.959465,49,80,0
115.687775,115.959465,44,68,0
115.687775,115.959465,37,68,0
115.96175,116.50399,44,68,0
115.96175,116.50399,49,80,0
115.96175,116.50399,37,68,0
116.5097,117.32362,44,68,0
116.5097,117.32362,37,68,0
116.5097,117.32362,49,80,0
117.33161,117.58808,37,68,0
117.33161,117.58808,49,80,0
117.33161,117.58808,44,68,0
117.59023,118.13247,37,68,0
117.59023,118.13247,49,80,0
117.59023,118.13247,44,68,0
118.138176,118.9521,37,68,0
118.138176,118.9521,49,80,0
118.138176,118.9521,44,68,0
118.9601,119.23178,49,80,0
118.9601,119.23178,37,68,0
119.23407,119.66676,37,68,0
119.23407,119.66676,49,80,0
119.81099,120.24368,33,68,0
119.81099,120.24368,45,80,0
120.38792,120.83753,30,68,0
120.38792,120.83753,42,80,0
120.987526,122.343925,49,80,0
120.987526,122.343925,37,68,0
122.343925,122.6072,45,80,0
122.343925,122.6072,33,68,0
122.60941,125.63331,33,68,0
122.60941,125.63331,45,80,0
125.63331,125.78331,40,45,0
125.63331,125.78331,52,54,0
125.931946,129.79388,52,54,0
125.931946,129.79388,40,45,0
129.79388,130.4536,51,27,0
130.46056,131.79388,51,27,0
129.79388,131.79388,39,27,0
131.79388,132.45361,51,27,0
132.46056,133.65096,51,27,0
131.79388,133.66357,39,27,0
133.66357,134.3921,51,27,0
134.39978,134.99057,51,27,0
134.9968,136.10829,51,27,0
134.39978,136.10829,44,27,0
136.10829,136.70123,51,27,0
136.70692,137.79784,51,27,0
136.10829,137.79784,46,27,0
137.79784,138.3376,51,27,0
137.79784,138.87851,48,27,0
138.34329,138.88306,51,27,0
138.88875,139.4825,43,27,0
138.88875,139.4825,51,27,0
139.48874,140.71951,44,27,0
139.48874,140.71951,51,27,0
140.71951,141.31326,51,29,0
141.3195,141.91031,51,36,0
141.91652,143.00743,51,37,0
141.3195,143.00743,42,36,0
143.00743,143.5721,51,37,0
143.57779,144.39597,51,35,0
143.00743,144.39597,41,37,0
144.39597,144.66647,49,35,0
144.39597,144.66647,40,35,0
144.66876,145.22191,40,35,0
144.66876,145.22191,49,35,0
145.22786,145.80713,51,29,0
145.22786,145.80713,39,28,0
145.81339,146.36476,51,30,0
145.81339,146.36476,49,30,0
145.81339,146.36476,39,30,0
146.42694,147.67047,44,28,0
146.42694,147.67047,48,28,0
146.42694,147.67047,51,28,0
147.67047,148.26418,51,27,0
148.2704,148.86119,51,27,0
148.86742,149.95831,51,27,0
148.2704,149.95831,44,27,0
149.95831,150.52298,51,27,0
150.52867,151.61958,51,27,0
149.95831,151.61958,46,27,0
151.61958,152.15935,51,27,0
152.16502,152.70526,51,28,0
151.61958,152.71127,48,27,0
152.71127,153.27945,51,29,0
152.71127,153.27945,43,29,0
153.28543,154.38675,51,32,0
153.28543,154.38675,44,32,0
154.38675,154.9805,51,37,0
154.98676,155.57755,51,36,0
155.58377,156.67467,51,37,0
154.98676,156.67467,42,36,0
156.67467,157.23933,51,37,0
157.24503,158.0632,51,35,0
156.67467,158.0632,41,37,0
158.0632,158.33371,49,36,0
158.0632,158.33371,40,36,0
158.336,158.8951,40,35,0
158.336,158.8951,49,35,0
158.8951,159.48062,39,28,0
158.8951,159.48062,51,29,0
159.48062,160.03236,39,30,0
159.48062,160.03236,49,30,0
159.48062,160.03236,51,30,0
160.09486,161.34486,44,29,0
160.09486,161.34486,51,29,0
160.09486,161.34486,48,29,0
161.34486,161.93886,44,51,0
161.93886,163.35815,37,51,0
162.41646,163.81969,44,60,0
163.35815,164.74277,41,51,0
163.81969,165.2043,44,61,0
164.74277,166.1134,36,52,0
165.2043,166.56967,44,59,0
166.1134,167.50595,32,52,0
166.56967,167.96573,44,59,0
167.50595,168.88527,37,51,0
167.96573,169.34503,44,60,0
168.88527,170.26457,41,51,0
169.34503,170.72433,44,61,0
170.26457,171.6266,36,52,0
170.72433,172.07773,44,59,0
172.07773,172.99727,44,59,0
171.6266,172.99727,32,52,0
173.45703,174.38193,46,49,0
172.99727,174.38193,34,51,0
174.83994,175.29796,51,41,0
174.38193,175.29796,39,44,0
175.29796,175.75597,42,39,0
175.29796,175.75597,54,39,0
175.75597,177.14244,44,36,0
177.14244,178.0763,49,34,0
176.21399,178.0763,56,34,0
178.55823,179.94818,37,51,0
179.02155,180.4115,44,60,0
179.94818,181.34648,41,51,0
180.4115,181.8098,44,61,0
181.34648,182.72583,36,52,0
181.8098,183.18385,44,59,0
182.72583,184.11806,32,52,0
183.18385,184.57959,44,59,0
184.11806,185.50267,37,51,0
184.57959,185.9642,44,60,0
185.50267,186.88728,41,51,0
185.9642,187.34882,44,61,0
186.88728,188.26485,36,52,0
187.34882,188.72156,44,59,0
188.72156,189.6429,44,59,0
188.26485,189.6429,32,52,0
190.09917,191.01172,46,49,0
189.6429,191.01172,34,51,0
191.46799,191.92427,51,41,0
191.01172,191.92427,39,44,0
191.92427,192.38054,54,39,0
191.92427,192.38054,42,39,0
192.38054,193.76515,44,36,0
193.76515,194.69545,49,34,0
192.84207,194.69545,56,34,0
195.1642,196.5435,37,73,0
195.62396,197.00327,44,85,0
196.5435,197.9228,40,73,0
197.00327,198.38258,44,86,0
197.9228,199.28824,36,74,0
198.38258,199.74107,44,84,0
199.28824,200.6791,32,74,0
199.74107,201.14062,44,84,0
200.6791,202.07103,37,73,0
201.14062,202.53079,44,85,0
202.07103,203.43884,40,73,0
202.53079,203.90083,44,86,0
203.43884,204.81337,32,74,0
203.90083,205.26965,44,84,0
205.26965,206.17874,44,87,0
204.81337,206.17874,37,73,0
206.63329,207.54237,42,92,0
206.17874,207.54237,30,87,0
207.99692,208.91779,52,99,0
207.54237,208.91779,40,94,0
208.91779,209.1442,33,86,0
208.91779,209.1442,40,86,0
208.91779,209.1442,45,102,0
209.36977,210.27023,45,107,0
209.36977,210.27023,40,90,0
209.36977,210.27023,33,90,0
210.27023,210.48842,40,86,0
210.27023,210.48842,33,86,0
210.27023,210.48842,45,102,0
210.7066,211.58841,40,92,0
210.7066,211.58841,45,109,0
210.7066,211.58841,33,92,0
211.58841,211.8082,40,86,0
211.58841,211.8082,45,102,0
211.58841,211.8082,33,86,0
212.02797,212.9071,33,91,0
212.02797,212.9071,45,108,0
212.02797,212.9071,40,91,0
212.9071,213.12688,40,86,0
212.9071,213.12688,45,102,0
212.9071,213.12688,33,86,0
213.34666,214.66765,33,92,0
213.34666,214.66765,45,109,0
213.34666,214.66765,40,92,0
214.66765,215.11446,33,71,0
214.66765,215.11446,40,71,0
214.66765,215.11446,45,84,0
215.11446,215.56631,40,73,0
215.11446,215.56631,33,73,0
215.11446,215.56631,45,86,0
215.56631,216.02333,33,68,0
215.56631,216.02333,45,80,0
215.56631,216.02333,40,68,0
216.02333,216.4915,45,76,0
216.02333,216.4915,40,64,0
216.02333,216.4915,33,64,0
216.4915,216.99359,45,72,0
216.4915,216.99359,33,61,0
216.4915,216.99359,40,61,0
216.99359,218.38387,33,68,0
218.38387,218.46162,30,38,0
218.46162,218.53879,32,33,0
218.53879,218.61536,30,38,0
218.61441,218.6904,32,32,0
218.6904,218.76582,30,38,0
218.76582,218.84077,32,33,0
218.84077,218.91568,30,38,0
218.91475,218.98965,32,34,0
218.99059,219.06549,30,38,0
219.06456,219.13947,32,34,0
219.13947,219.21437,30,38,0
219.21437,219.28928,32,34,0
219.29115,219.38162,30,38,0
219.38162,219.47241,32,34,0
219.47241,219.5636,30,38,0
219.5636,219.65523,29,35,0
219.65523,219.74718,30,35,0
219.74718,222.59647,32,43,0
222.59647,223.98643,37,51,0
223.05978,224.44975,44,60,0
223.98643,225.36514,41,51,0
224.44975,225.82668,44,61,0
225.36514,226.74277,36,52,0
225.82668,227.19731,44,59,0
226.74277,228.12805,32,52,0
227.19731,228.58781,44,59,0
228.12805,229.51184,37,51,0
228.58781,229.97162,44,60,0
229.51184,230.89116,41,51,0
229.97162,231.3492,44,61,0
230.89116,232.25485,36,52,0
231.3492,232.70769,44,59,0
232.70769,233.62029,44,59,0
232.25485,233.62029,32,52,0
234.08005,234.98572,46,49,0
233.62029,234.98572,34,51,0
235.43854,235.89137,51,41,0
234.98572,235.89137,39,44,0
235.89137,236.34421,54,39,0
235.89137,236.34421,42,39,0
236.34421,237.73372,44,36,0
237.73372,238.6749,49,34,0
236.80707,238.6749,56,34,0
239.1749,240.5542,37,73,0
239.63466,241.01398,44,85,0
240.5542,241.93352,40,73,0
241.01398,242.39328,44,86,0
241.93352,243.29893,36,74,0
242.39328,243.75177,44,84,0
243.29893,244.68979,32,74,0
243.75177,245.15132,44,84,0
244.68979,246.08173,37,73,0
245.15132,246.54149,44,85,0
246.08173,247.44954,40,73,0
246.54149,247.91153,44,86,0
247.44954,248.82407,32,74,0
247.91153,249.28035,44,84,0
249.28035,250.18944,44,87,0
248.82407,250.18944,37,73,0
250.64398,251.55307,42,92,0
250.18944,251.55307,30,87,0
252.00761,252.92848,52,99,0
251.55307,252.92848,40,94,0
252.92848,253.15489,40,86,0
252.92848,253.15489,45,102,0
252.92848,253.15489,33,86,0
253.38046,254.28093,40,90,0
253.38046,254.28093,33,90,0
253.38046,254.28093,45,107,0
254.28093,254.49911,33,86,0
254.28093,254.49911,45,102,0
254.28093,254.49911,40,86,0
254.7173,255.59912,45,109,0
254.7173,255.59912,33,92,0
254.7173,255.59912,40,92,0
255.59912,255.8189,33,86,0
255.59912,255.8189,45,102,0
255.59912,255.8189,40,86,0
256.03867,256.9178,45,108,0
256.03867,256.9178,33,91,0
256.03867,256.9178,40,91,0
256.9178,257.13757,45,102,0
256.9178,257.13757,40,86,0
256.9178,257.13757,33,86,0
257.35736,258.67834,45,109,0
257.35736,258.67834,33,92,0
257.35736,258.67834,40,92,0
258.67834,259.12515,33,71,0
258.67834,259.12515,40,71,0
258.67834,259.12515,45,84,0
259.12515,259.57703,40,73,0
259.12515,259.57703,33,73,0
259.12515,259.57703,45,86,0
259.57703,260.03403,33,68,0
259.57703,260.03403,40,68,0
259.57703,260.03403,45,80,0
260.03403,260.5022,40,64,0
260.03403,260.5022,45,76,0
260.03403,260.5022,33,64,0
260.5022,261.0043,33,61,0
260.5022,261.0043,45,72,0
260.5022,261.0043,40,61,0
261.0043,262.39456,33,68,0
262.39456,262.47232,30,38,0
262.47232,262.5495,32,33,0
262.5495,262.62607,30,38,0
262.6251,262.7011,32,32,0
262.7011,262.77652,30,38,0
262.77652,262.85147,32,33,0
262.85147,262.9264,30,38,0
262.92545,263.00034,32,34,0
263.00128,263.0762,30,38,0
263.07526,263.15018,32,34,0
263.15018,263.22507,30,38,0
263.22507,263.3,32,34,0
263.30185,263.39233,30,38,0
263.39233,263.48312,32,34,0
263.48312,263.57428,30,38,0
263.57428,263.66592,29,35,0
263.66592,263.75787,30,35,0
263.75787,266.60718,32,45,0
266.60718,267.99713,37,51,0
267.0705,268.46045,44,60,0
267.99713,269.37585,41,51,0
268.46045,269.83737,44,61,0
269.37585,270.75348,36,52,0
269.83737,271.208,44,59,0
270.75348,272.13873,32,52,0
271.208,272.5985,44,59,0
272.13873,273.52255,37,51,0
272.5985,273.9823,44,60,0
273.52255,274.90186,41,51,0
273.9823,275.3599,44,61,0
274.90186,276.26556,36,52,0
275.3599,276.71838,44,59,0
276.71838,277.63098,44,59,0
276.26556,277.63098,32,52,0
278.09076,278.9964,46,49,0
277.63098,278.9964,34,51,0
279.44925,279.90207,51,41,0
278.9964,279.90207,39,44,0
279.90207,280.3549,54,39,0
279.90207,280.3549,42,39,0
280.3549,281.74442,44,36,0
281.74442,282.68558,49,34,0
280.81778,282.68558,56,34,0
283.18558,285.9912,49,32,0
283.18558,285.9912,37,27,0
283.18558,285.9912,44,27,0
285.9912,287.36658,37,26,0
285.9912,287.36658,49,31,0
287.36658,288.77515,34,26,0
287.36658,288.77515,46,31,0
288.77515,290.1705,31,26,0
288.77515,290.1705,43,31,0
288.77515,290.1705,39,26,0
290.1705,291.6105,43,31,0
290.1705,291.6105,39,26,0
290.1705,291.6105,31,26,0
291.6105,292.64658,58,26,0
291.6105,292.64658,61,26,0
291.6105,292.64658,51,26,0
291.6105,292.64658,43,22,0
291.6105,292.64658,39,22,0
291.6105,292.64658,31,22,0
292.64658,293.20737,51,27,0
293.2135,293.81738,51,27,0
293.824,294.47824,51,27,0
294.4854,295.08215,51,27,0
295.08844,295.6822,51,27,0
295.68845,296.77936,51,27,0
295.08844,296.77936,44,27,0
296.77936,297.37228,51,27,0
297.378,298.4689,51,27,0
296.77936,298.4689,46,27,0
298.4689,299.00867,51,27,0
299.01434,299.5541,51,27,0
298.4689,299.5598,48,27,0
299.5598,300.15356,43,27,0
299.5598,300.15356,51,27,0
300.1598,301.26154,44,27,0
300.1598,301.26154,51,27,0
301.26154,301.8553,51,33,0
301.86154,302.4553,51,33,0
302.46155,303.5525,51,33,0
301.86154,303.5525,44,33,0
303.5525,304.14532,51,33,0
304.15158,305.24747,51,33,0
303.5525,305.24747,49,33,0
305.24747,305.84122,51,31,0
305.84747,306.47913,51,31,0
305.24747,306.48578,48,31,0
306.48578,307.12408,51,31,0
306.48578,307.12408,43,31,0
307.12408,308.35483,44,29,0
307.12408,308.35483,51,29,0
308.35483,308.94855,51,27,0
308.95477,309.54556,51,27,0
309.5518,310.6427,51,27,0
308.95477,310.6427,44,27,0
310.6427,311.20737,51,27,0
311.21304,311.75848,51,27,0
310.6427,312.30396,46,27,0
312.30396,312.84372,51,27,0
312.8494,313.38965,51,28,0
312.30396,313.39566,48,27,0
313.39566,313.96384,43,29,0
313.39566,313.96384,51,29,0
313.96982,315.07114,44,32,0
313.96982,315.07114,51,32,0
315.07114,315.6649,51,31,0
315.6711,316.26486,51,34,0
316.27112,317.3748,51,35,0
315.6711,317.3748,44,34,0
317.3748,317.96854,48,31,0
317.9748,319.07068,48,31,0
317.3748,319.07068,43,31,0
319.07068,319.66443,48,31,0
319.6707,320.24435,48,31,0
319.07068,320.2504,41,31,0
320.2504,320.89368,51,29,0
320.2504,320.89368,39,29,0
320.89368,322.1502,44,28,0
320.89368,322.1502,51,28,0
322.46436,322.71225,48,54,0
322.46436,322.71225,60,64,0
322.46436,322.71225,56,54,0
322.71436,323.25906,48,62,0
322.71436,323.25906,56,62,0
322.71436,323.25906,60,73,0
323.2648,324.04187,60,70,0
323.2648,324.04187,56,59,0
323.2648,324.04187,48,59,0
324.0492,324.29813,56,64,0
324.0492,324.29813,51,54,0
324.0492,324.29813,44,54,0
324.30023,324.84747,51,61,0
324.30023,324.84747,56,72,0
324.30023,324.84747,44,61,0
324.8532,325.65555,56,70,0
324.8532,325.65555,51,59,0
324.8532,325.65555,44,59,0
325.66318,325.923,41,54,0
325.66318,325.923,53,64,0
325.9252,326.3165,53,64,0
325.9252,326.3165,41,54,0
326.44693,326.85416,55,64,0
326.44693,326.85416,43,54,0
326.9899,327.41245,51,64,0
326.9899,327.41245,39,54,0
327.55328,328.89984,56,64,0
327.55328,328.89984,51,54,0
327.55328,328.89984,44,54,0
328.89984,329.1715,49,80,0
328.89984,329.1715,44,68,0
328.89984,329.1715,37,68,0
329.1738,329.71603,37,68,0
329.1738,329.71603,44,68,0
329.1738,329.71603,49,80,0
329.72174,330.53568,49,80,0
329.72174,330.53568,37,68,0
329.72174,330.53568,44,68,0
330.54367,330.80014,44,68,0
330.54367,330.80014,37,68,0
330.54367,330.80014,49,80,0
330.80228,331.3445,37,68,0
330.80228,331.3445,44,68,0
330.80228,331.3445,49,80,0
331.35022,332.16415,49,80,0
331.35022,332.16415,44,68,0
331.35022,332.16415,37,68,0
332.17215,332.44385,49,80,0
332.17215,332.44385,37,68,0
332.44614,332.8788,37,68,0
332.44614,332.8788,49,80,0
333.02304,333.45575,45,80,0
333.02304,333.45575,33,68,0
333.59998,334.0496,30,68,0
333.59998,334.0496,42,80,0
334.1996,335.55597,37,68,0
334.1996,335.55597,49,80,0
335.55597,335.81924,45,80,0
335.55597,335.81924,33,68,0
335.82147,338.84537,45,80,0
335.82147,338.84537,33,68,0
338.84537,338.99536,40,45,0
338.84537,338.99536,52,54,0
339.144,343.00595,52,54,0
339.144,343.00595,40,45,0
343.00595,343.66565,51,27,0
343.6726,345.00595,51,27,0
343.00595,345.00595,39,27,0
345.00595,345.7086,51,27,0
345.716,346.90714,51,27,0
345.00595,346.91974,39,27,0
346.91974,347.6483,51,27,0
347.65594,348.24673,51,27,0
348.25296,349.36444,51,27,0
347.65594,349.36444,44,27,0
349.36444,349.9574,51,27,0
349.9631,351.05402,51,27,0
349.36444,351.05402,46,27,0
351.05402,351.59378,51,27,0
351.05402,352.13467,48,27,0
351.59946,352.13922,51,27,0
352.1449,352.73865,43,27,0
352.1449,352.73865,51,27,0
352.7449,353.97568,51,27,0
352.7449,353.97568,44,27,0
353.97568,354.56943,51,29,0
354.57568,355.16647,51,36,0
355.1727,356.2636,51,37,0
354.57568,356.2636,42,36,0
356.2636,356.82828,51,37,0
356.83395,357.65213,51,35,0
356.2636,357.65213,41,37,0
357.65213,357.92264,40,35,0
357.65213,357.92264,49,35,0
357.92493,358.48404,49,35,0
357.92493,358.48404,40,35,0
358.48404,359.06955,51,29,0
358.48404,359.06955,39,28,0
359.06955,359.62094,51,30,0
359.06955,359.62094,49,30,0
359.06955,359.62094,39,30,0
359.6831,360.92664,48,28,0
359.6831,360.92664,44,28,0
359.6831,360.92664,51,28,0
360.92664,361.52036,51,27,0
361.52655,362.11737,51,27,0
362.12357,363.21448,51,27,0
361.52655,363.21448,44,27,0
363.21448,363.77914,51,27,0
363.78485,364.87573,51,27,0
363.21448,364.87573,46,27,0
364.87573,365.41553,51,27,0
365.4212,365.96143,51,28,0
364.87573,365.96744,48,27,0
365.96744,366.5356,51,29,0
365.96744,366.5356,43,29,0
366.5416,367.6429,51,32,0
366.5416,367.6429,44,32,0
367.6429,368.23666,51,37,0
368.24292,368.8337,51,36,0
368.83994,369.93085,51,37,0
368.24292,369.93085,42,36,0
369.93085,370.4955,51,37,0
370.5012,371.31937,51,35,0
369.93085,371.31937,41,37,0
371.31937,371.58987,49,35,0
371.31937,371.58987,40,35,0
371.59216,372.14532,40,35,0
371.59216,372.14532,49,35,0
372.15128,372.73053,51,29,0
372.15128,372.73053,39,28,0
372.7368,373.28854,49,30,0
372.7368,373.28854,51,30,0
372.7368,373.28854,39,30,0
373.35104,374.60104,44,28,0
373.35104,374.60104,48,28,0
373.35104,374.60104,51,28,0
374.91354,375.22342,49,35,0
374.91354,375.22342,40,35,0
375.22604,375.85104,40,35,0
375.22604,375.85104,49,35,0
375.85104,376.47604,51,29,0
375.85104,376.47604,39,28,0
376.47604,377.03854,39,30,0
376.47604,377.03854,51,30,0
376.47604,377.03854,49,30,0
377.10104,378.67307,48,28,0
377.10104,378.67307,44,28,0
377.10104,378.67307,51,28,0
378.67307,378.97058,40,35,0
378.67307,378.97058,46,35,0
378.67307,378.97058,49,35,0
378.97305,379.6129,46,35,0
378.97305,379.6129,40,35,0
378.97305,379.6129,49,35,0
379.6129,380.35898,48,27,0
379.6129,380.35898,39,27,0
379.6129,380.35898,51,28,0
380.35898,381.15582,51,29,0
380.35898,381.15582,39,29,0
380.35898,381.15582,49,29,0
381.25378,382.7262,48,28,0
381.25378,382.7262,44,28,0
381.25378,382.7262,51,28,0
