start_time,end_time,note_value,velocity,instrument_program_number
1.2857145,1.714286,64,46,0
1.2857145,1.714286,61,39,0
1.714286,2.1000004,66,50,0
1.714286,2.1000004,62,42,0
2.1428576,2.6083748,63,40,0
2.1428576,2.6083748,60,34,0
2.660099,3.9370768,64,47,0
2.660099,3.9370768,61,39,0
3.9550624,4.386717,69,55,0
4.386717,4.8033834,71,57,0
3.9550624,4.8033834,64,42,0
3.9550624,4.8033834,61,42,0
4.8033834,5.298796,73,61,0
4.8033834,5.298796,65,47,0
4.8033834,5.298796,61,47,0
5.353842,6.269873,73,58,0
6.269873,6.7616763,71,44,0
5.353842,6.7616763,66,45,0
5.353842,6.7616763,62,38,0
6.7616763,7.193331,69,56,0
7.193331,7.644459,68,53,0
6.7616763,7.644459,62,40,0
7.644459,8.076459,66,48,0
7.644459,8.076459,62,37,0
8.124459,9.383325,64,50,0
8.124459,9.383325,62,42,0
9.401055,9.617591,64,50,0
9.401055,9.637276,62,42,0
9.637276,9.699004,64,40,0
9.699004,9.760733,66,40,0
9.760733,9.822461,68,40,0
9.822461,10.208175,66,50,0
9.822461,10.208175,62,42,0
10.251032,10.704814,64,42,0
10.251032,10.704814,62,35,0
10.755234,11.65749,66,50,0
10.755234,11.65749,62,42,0
11.65749,12.172723,64,44,0
11.65749,12.172723,61,37,0
12.195125,12.623695,61,57,0
12.195125,12.623695,57,48,0
12.623695,13.00941,66,62,0
12.623695,13.00941,62,52,0
13.052267,13.517785,63,50,0
13.052267,13.517785,60,42,0
13.569509,14.846487,64,59,0
13.569509,14.846487,61,48,0
14.864472,15.695432,69,69,0
14.864472,15.695432,64,59,0
15.296126,15.712793,73,78,0
15.712793,16.208206,76,75,0
15.712793,16.208206,69,63,0
15.712793,16.208206,64,63,0
15.712793,16.208206,73,63,0
16.263252,17.650595,76,79,0
16.263252,17.650595,68,67,0
16.263252,17.650595,73,67,0
16.263252,17.671085,64,67,0
17.671085,18.084755,68,40,0
17.671085,18.102741,76,56,0
17.671085,18.102741,64,40,0
18.102741,18.535072,68,42,0
18.102741,18.535072,66,42,0
18.102741,18.55387,75,53,0
18.55387,18.985868,68,48,0
18.55387,18.985868,66,37,0
19.033869,20.292734,73,55,0
19.033869,20.292734,64,42,0
19.033869,20.310465,68,42,0
20.310465,20.739569,64,42,0
20.310465,20.758226,73,50,0
20.310465,20.758226,61,42,0
20.758226,21.183422,71,50,0
20.758226,21.183422,64,42,0
20.758226,21.230667,62,42,0
21.230667,21.767447,64,42,0
21.230667,21.767447,62,35,0
21.827087,22.779469,69,50,0
21.827087,22.779469,61,42,0
23.248219,23.67679,64,46,0
23.248219,23.67679,61,39,0
23.67679,24.062506,66,50,0
23.67679,24.062506,62,42,0
24.105362,24.570879,63,40,0
24.105362,24.570879,60,34,0
24.622604,25.899582,64,47,0
24.622604,25.899582,61,39,0
25.917566,26.349222,69,55,0
26.349222,26.765888,71,57,0
25.917566,26.765888,64,42,0
25.917566,26.765888,61,42,0
26.765888,27.243765,73,61,0
26.765888,27.243765,65,47,0
26.765888,27.243765,61,47,0
27.296862,28.212893,73,58,0
28.212893,28.696764,71,44,0
27.296862,28.696764,66,45,0
27.296862,28.696764,62,38,0
28.696764,29.128418,69,56,0
29.128418,29.579546,68,53,0
28.696764,29.579546,62,40,0
29.579546,30.011547,66,48,0
29.579546,30.011547,62,37,0
30.059546,31.31841,64,50,0
30.059546,31.31841,62,42,0
31.336142,31.552677,64,50,0
31.336142,31.572363,62,42,0
31.572363,31.63409,64,40,0
31.63409,31.69582,66,40,0
31.69582,31.757547,68,40,0
31.757547,32.14326,66,50,0
31.757547,32.14326,62,42,0
32.18612,32.6399,64,42,0
32.18612,32.6399,62,35,0
32.690323,33.59258,66,50,0
32.690323,33.59258,62,42,0
33.59258,34.1201,64,44,0
33.59258,34.1201,61,37,0
34.143036,34.571606,61,57,0
34.143036,34.571606,57,48,0
34.571606,34.94923,66,62,0
34.571606,34.94923,62,52,0
34.991188,35.456703,63,50,0
34.991188,35.456703,60,42,0
35.50843,36.785408,64,59,0
35.50843,36.785408,61,48,0
36.803394,37.634354,69,69,0
36.803394,37.634354,64,59,0
37.235046,37.651714,73,78,0
37.651714,38.147125,76,75,0
37.651714,38.147125,69,63,0
37.651714,38.147125,64,63,0
37.651714,38.147125,73,63,0
38.20217,39.589516,76,79,0
38.20217,39.589516,68,67,0
38.20217,39.589516,73,67,0
38.20217,39.61001,64,67,0
39.61001,40.023674,68,40,0
39.61001,40.04166,76,56,0
39.61001,40.04166,64,40,0
40.04166,40.464455,68,42,0
40.04166,40.464455,66,42,0
40.04166,40.482838,75,53,0
40.482838,40.91832,68,48,0
40.482838,40.91832,66,37,0
40.96671,42.225574,73,55,0
40.96671,42.225574,64,42,0
40.96671,42.243305,68,42,0
42.243305,42.67241,64,42,0
42.243305,42.691067,73,50,0
42.243305,42.691067,61,42,0
42.691067,43.11626,71,50,0
42.691067,43.11626,64,42,0
42.691067,43.163506,62,42,0
43.163506,43.700287,64,42,0
43.163506,43.700287,62,35,0
43.75993,45.1885,69,50,0
43.75993,45.1885,61,42,0
45.1885,45.611294,70,59,0
45.1885,45.611294,67,50,0
45.1885,45.611294,61,50,0
45.629677,46.070854,71,64,0
45.629677,46.070854,67,54,0
45.629677,46.070854,62,54,0
46.070854,46.61085,73,68,0
46.070854,46.61085,64,57,0
46.070854,46.61085,70,68,0
46.070854,46.61085,67,57,0
46.670853,47.965816,74,72,0
46.670853,47.965816,62,61,0
46.670853,47.965816,67,61,0
46.670853,47.965816,71,61,0
47.965816,48.379486,62,40,0
47.965816,48.397472,71,56,0
48.397472,48.8298,62,40,0
48.397472,48.8486,67,51,0
48.8486,49.3486,62,48,0
48.8486,49.3486,59,37,0
49.404156,50.66302,64,49,0
49.404156,50.66302,60,37,0
50.68075,51.112404,62,47,0
50.68075,51.112404,59,34,0
51.112404,51.532112,60,34,0
51.112404,51.55036,64,43,0
51.55036,51.956375,65,40,0
51.55036,51.956375,59,31,0
52.001488,52.39156,64,46,0
52.001488,52.39156,60,35,0
52.42702,52.858673,74,47,0
52.42702,52.858673,71,34,0
52.858673,53.281467,72,34,0
52.858673,53.29985,76,43,0
53.29985,53.699852,77,40,0
53.29985,53.699852,71,31,0
53.744297,54.12624,76,46,0
53.744297,54.12624,72,35,0
54.16096,54.6225,62,47,0
54.16096,54.6225,59,34,0
54.6225,55.08998,60,34,0
54.988354,55.110306,67,37,0
54.6225,55.110306,64,43,0
55.110306,55.596794,65,40,0
55.110306,55.596794,59,31,0
55.65085,56.061295,64,46,0
55.65085,56.061295,60,35,0
56.098606,56.546368,64,53,0
56.098606,56.546368,62,45,0
56.546368,56.987545,66,53,0
56.546368,56.987545,64,45,0
56.546368,56.987545,62,45,0
56.987545,57.428722,64,48,0
56.987545,57.428722,62,48,0
56.987545,57.428722,68,60,0
57.428722,57.8699,69,66,0
57.428722,57.8699,61,56,0
57.428722,57.8699,57,56,0
57.8699,58.361702,69,59,0
57.8699,58.361702,71,70,0
57.8699,58.361702,63,59,0
58.361702,59.306583,73,74,0
58.361702,59.306583,69,62,0
58.361702,59.306583,64,62,0
59.306583,59.993607,73,74,0
59.993607,60.263878,71,61,0
59.306583,60.263878,68,62,0
59.306583,60.263878,64,62,0
59.306583,60.263878,62,62,0
60.263878,61.54959,69,52,0
60.263878,61.54959,64,44,0
60.263878,61.54959,61,44,0
61.54959,61.981247,64,47,0
61.981247,62.432373,61,51,0
62.432373,62.78654,57,43,0
62.807373,62.94833,57,37,0
62.932373,64.19124,64,49,0
64.20897,64.640625,64,51,0
64.640625,65.09175,61,56,0
65.09175,65.4489,58,47,0
65.4699,65.61191,58,40,0
65.595955,66.85482,64,53,0
66.87255,67.30421,64,56,0
67.30421,67.75533,62,65,0
67.75533,68.092636,59,58,0
68.11247,68.24896,59,52,0
68.23152,68.65013,66,69,0
68.69664,69.08235,70,67,0
68.69664,69.08235,66,56,0
68.69664,69.08235,61,56,0
69.12521,69.510925,71,64,0
69.12521,69.510925,66,54,0
69.12521,69.510925,59,54,0
69.55378,69.9395,73,61,0
69.55378,69.9395,66,51,0
69.55378,69.9395,61,51,0
69.98235,70.382355,74,58,0
69.98235,70.382355,66,49,0
69.98235,70.382355,62,49,0
70.426796,70.93147,83,69,0
70.426796,70.93147,74,57,0
70.426796,70.93147,71,57,0
70.98755,71.939926,81,63,0
71.939926,72.416115,80,55,0
70.98755,72.416115,74,53,0
70.98755,72.416115,71,53,0
72.416115,72.84777,64,47,0
72.84777,73.2989,59,51,0
73.2989,73.65307,56,43,0
73.6739,73.81486,56,37,0
73.7989,75.05776,64,49,0
75.07549,75.50715,64,51,0
75.50715,75.958275,60,56,0
75.958275,76.31542,57,47,0
76.33643,76.47844,57,40,0
76.46248,77.721344,64,53,0
77.739075,78.17073,64,56,0
78.17073,78.62186,61,65,0
78.62186,78.95916,58,58,0
78.979004,79.11549,58,52,0
79.098045,79.516655,65,69,0
79.56316,79.963165,69,67,0
79.56316,79.963165,65,56,0
79.56316,79.963165,60,56,0
80.00761,80.39059,70,64,0
80.00761,80.39059,65,54,0
80.00761,80.39059,58,54,0
80.43314,80.816124,72,61,0
80.43314,80.816124,65,51,0
80.43314,80.816124,60,51,0
80.85867,81.258675,74,58,0
80.85867,81.258675,65,49,0
80.85867,81.258675,62,49,0
81.303116,81.53213,77,68,0
81.303116,81.82842,69,57,0
81.303116,81.82842,65,57,0
81.53213,81.871635,75,65,0
81.9025,82.85488,75,63,0
81.9025,82.85488,69,53,0
82.85488,83.29138,74,55,0
82.85488,83.29138,70,52,0
81.9025,83.33107,65,53,0
83.33107,83.73821,77,78,0
83.33107,83.73821,74,65,0
83.33107,83.73821,65,65,0
83.75996,84.17907,82,86,0
83.75996,84.17907,77,72,0
83.75996,84.17907,70,72,0
84.20113,84.67023,72,74,0
84.20113,84.67023,77,74,0
84.20113,84.67023,84,88,0
84.72428,86.01624,86,92,0
84.72428,86.01624,77,78,0
84.72428,86.01624,74,78,0
86.03436,86.50311,82,78,0
86.50311,86.97555,77,69,0
86.03436,86.97555,74,56,0
86.03436,86.97555,70,56,0
86.97555,87.44107,75,64,0
86.97555,87.44107,72,49,0
86.97555,87.49279,69,49,0
87.49279,88.751656,74,63,0
87.49279,88.751656,70,48,0
88.76939,89.24939,72,56,0
88.76939,89.24939,63,40,0
89.24939,89.74508,62,40,0
88.76939,89.74508,65,40,0
89.24939,89.76663,70,51,0
89.76663,90.323326,65,48,0
89.76663,90.323326,57,34,0
90.385185,91.64405,62,49,0
90.385185,91.64405,58,37,0
91.66178,92.09344,60,47,0
91.66178,92.09344,57,34,0
92.09344,92.513145,58,34,0
92.09344,92.531395,62,43,0
92.531395,92.93741,63,40,0
92.531395,92.93741,57,31,0
92.98252,93.37259,62,46,0
92.98252,93.37259,58,35,0
93.40805,93.83971,72,47,0
93.40805,93.83971,69,34,0
93.83971,94.2625,70,34,0
93.83971,94.28088,74,43,0
94.28088,94.680885,75,40,0
94.28088,94.680885,69,31,0
94.72533,95.1154,74,46,0
94.72533,95.1154,70,35,0
95.150856,95.536575,60,61,0
95.150856,95.536575,57,51,0
95.57943,95.97943,62,58,0
95.57943,95.97943,58,49,0
96.02387,96.252884,65,68,0
96.02387,96.43609,57,57,0
96.252884,96.48189,63,65,0
96.48189,96.93824,62,63,0
96.48189,96.93824,58,53,0
96.958084,97.36107,62,62,0
96.958084,97.36107,56,52,0
96.958084,97.36107,53,52,0
97.405846,97.818054,62,66,0
97.405846,97.818054,57,56,0
97.405846,97.818054,53,56,0
97.86386,98.31014,59,58,0
97.86386,98.31014,52,58,0
97.86386,98.31014,62,69,0
98.359726,98.60766,62,66,0
98.60766,98.85559,61,64,0
98.359726,98.85559,57,56,0
98.359726,98.85559,52,56,0
98.85559,99.101494,59,70,0
98.85559,99.101494,54,59,0
99.101494,99.3474,66,68,0
99.3474,100.29228,61,74,0
99.3474,100.29228,57,62,0
99.3474,100.29228,52,62,0
100.29228,100.7503,61,68,0
100.7503,101.1372,59,61,0
101.1372,101.29509,57,57,0
100.29228,101.29509,56,57,0
101.29509,102.06432,57,52,0
102.06432,102.27861,61,51,0
101.29509,102.27861,49,44,0
102.27861,102.484085,64,58,0
102.484085,102.68957,69,51,0
102.68957,102.89936,73,56,0
102.89936,103.109146,76,52,0
103.109146,103.494865,78,60,0
103.109146,103.494865,74,51,0
103.53772,103.976746,75,54,0
103.53772,103.976746,72,45,0
104.02553,105.31124,76,56,0
104.02553,105.31124,73,47,0
105.31124,105.7429,81,66,0
105.7429,106.15956,83,68,0
105.31124,106.15956,76,50,0
105.31124,106.15956,73,50,0
106.15956,106.654976,85,73,0
106.15956,106.654976,77,56,0
106.15956,106.654976,73,56,0
106.71002,107.62605,85,71,0
107.62605,108.11785,83,52,0
106.71002,108.11785,78,54,0
106.71002,108.11785,74,45,0
108.11785,108.54951,69,56,0
108.54951,109.00063,68,51,0
108.11785,109.00063,62,40,0
109.00063,109.43263,66,48,0
109.00063,109.43263,62,37,0
109.48064,110.7395,64,50,0
109.48064,110.7395,62,42,0
110.75723,110.97377,76,57,0
110.75723,110.993454,74,48,0
110.993454,111.05518,76,46,0
111.05518,111.11691,78,46,0
111.11691,111.178635,80,46,0
111.178635,111.564354,78,57,0
111.178635,111.564354,74,48,0
111.60721,112.06099,76,48,0
111.60721,112.06099,74,40,0
112.11141,113.013664,78,57,0
112.11141,113.013664,74,48,0
113.013664,113.492836,76,50,0
113.013664,113.492836,73,42,0
113.513664,113.94927,61,75,0
113.513664,113.96821,59,63,0
113.96821,114.36527,66,81,0
113.96821,114.36527,61,68,0
113.96821,114.409386,57,68,0
114.409386,114.87491,65,72,0
114.409386,114.87491,61,61,0
114.409386,114.92663,59,61,0
114.92663,116.51145,66,78,0
114.92663,116.51145,62,66,0
114.92663,116.533775,57,66,0
116.533775,116.96856,69,55,0
116.96856,117.38522,71,63,0
116.96856,117.38522,67,63,0
117.38522,117.88064,73,56,0
117.38522,117.88064,69,56,0
117.38522,117.88064,67,56,0
117.935684,120.401436,76,69,0
117.935684,120.401436,70,58,0
117.935684,120.401436,73,58,0
120.401436,120.81239,74,56,0
120.401436,120.81239,71,47,0
117.935684,120.81239,67,58,0
122.86719,124.134796,72,56,0
124.134796,124.233475,74,45,0
124.233475,124.33216,72,42,0
124.33216,124.43085,71,45,0
124.43085,124.56359,72,42,0
124.56359,124.82446,71,53,0
124.82446,125.08533,72,49,0
125.08533,125.363106,76,56,0
125.363106,125.724556,74,50,0
122.86719,125.724556,66,36,0
125.724556,126.150085,71,46,0
125.724556,126.150085,67,40,0
122.86719,126.150085,62,36,0
126.89477,127.00115,71,53,0
127.00115,127.4328,74,69,0
127.00115,127.4328,67,59,0
127.00115,127.83211,62,59,0
127.4328,127.84947,73,78,0
127.4328,127.84947,69,59,0
127.84947,128.34488,71,72,0
127.84947,128.34488,62,61,0
128.39993,129.78728,69,79,0
128.39993,129.78728,62,67,0
129.80777,130.23941,69,66,0
129.80777,130.23941,62,56,0
130.23941,130.67175,64,58,0
130.23941,130.69055,68,69,0
130.69055,131.12254,66,75,0
131.17055,131.62167,64,66,0
131.62167,132.13014,69,74,0
131.62167,132.13014,63,62,0
132.13014,133.09015,73,80,0
132.13014,133.09015,69,67,0
132.13014,133.09015,64,67,0
133.09015,133.82785,73,76,0
133.82785,134.14365,71,69,0
133.09015,134.14365,68,64,0
133.09015,134.14365,62,64,0
133.09015,134.14365,64,64,0
134.14365,135.57222,69,59,0
134.14365,135.57222,61,50,0
134.14365,135.57222,64,50,0
135.57222,136.0484,69,76,0
136.0484,136.2627,74,81,0
136.0484,136.2627,66,68,0
136.2865,136.73334,66,63,0
136.2865,136.73334,74,75,0
136.73334,136.9659,76,76,0
136.73334,136.9659,69,64,0
136.9659,137.39705,78,86,0
136.9659,137.39705,74,73,0
137.44284,138.16301,78,85,0
137.44284,138.16301,74,72,0
138.16882,138.63394,78,86,0
138.16882,138.63394,74,73,0
138.63394,138.8665,76,73,0
138.63394,138.8665,69,61,0
138.8665,139.0758,74,77,0
138.8665,139.0758,66,65,0
139.09906,139.56393,74,86,0
139.09906,139.56393,71,73,0
139.56393,139.7947,73,76,0
139.56393,139.7947,66,64,0
139.7947,140.2468,71,80,0
139.7947,140.2468,62,68,0
140.2968,141.21988,71,86,0
140.2968,141.21988,62,73,0
141.21988,141.69606,71,76,0
141.69606,141.91035,76,81,0
141.69606,141.91035,67,68,0
141.93416,142.36943,67,63,0
141.93416,142.36943,76,75,0
142.36943,142.60197,78,76,0
142.36943,142.60197,71,64,0
142.60197,143.04834,79,86,0
142.60197,143.04834,76,73,0
143.09415,143.81432,79,85,0
143.09415,143.81432,76,72,0
143.82013,144.28525,79,86,0
143.82013,144.28525,76,73,0
144.28525,144.5178,78,73,0
144.28525,144.5178,71,61,0
144.5178,144.7193,76,77,0
144.5178,144.7193,67,65,0
144.74168,145.17343,76,86,0
144.74168,145.17343,73,73,0
145.17343,145.4042,74,76,0
145.17343,145.4042,68,64,0
145.4042,145.63301,73,80,0
145.4042,145.63301,64,68,0
145.90843,146.59497,73,86,0
145.90843,146.59497,64,73,0
146.60075,147.06198,69,73,0
146.60075,147.06586,73,86,0
147.06586,147.29842,74,73,0
147.29842,147.49991,76,77,0
147.29842,147.49991,64,65,0
147.06586,147.52231,69,61,0
147.52231,147.95404,78,86,0
147.52231,147.95404,74,73,0
147.52231,147.95404,66,73,0
147.95404,148.18481,79,76,0
147.95404,148.18481,67,64,0
147.95404,148.18481,74,64,0
148.18481,148.41171,81,80,0
148.18481,148.41171,74,68,0
148.18481,148.43692,69,68,0
148.68692,149.36674,81,86,0
148.68692,149.36674,74,73,0
148.68692,149.36674,69,73,0
149.37233,149.59248,81,83,0
149.37233,149.59248,74,70,0
149.59622,149.80844,86,86,0
149.59622,149.80844,78,73,0
149.59622,149.80844,74,73,0
149.81204,150.02428,81,82,0
149.81204,150.02428,74,69,0
150.02786,150.2401,78,86,0
150.02786,150.2401,74,73,0
150.2437,150.45593,74,83,0
150.45952,150.68472,78,83,0
150.45952,150.68472,74,70,0
150.68854,150.91754,78,70,0
150.68854,150.91754,81,83,0
150.68854,150.91754,74,70,0
150.91754,151.1503,83,80,0
150.91754,151.1503,74,68,0
150.91754,151.17616,71,68,0
150.91754,151.17616,79,68,0
151.42616,152.10599,83,86,0
151.42616,152.10599,79,73,0
151.42616,152.10599,71,73,0
151.42616,152.10599,74,73,0
152.11157,152.54768,74,77,0
152.11157,152.55128,83,91,0
152.11157,152.55128,71,77,0
152.55128,152.76712,81,82,0
152.55128,152.76712,74,69,0
152.55128,152.76712,69,69,0
152.76712,152.97215,83,86,0
152.76712,152.97215,74,73,0
152.76712,152.97215,71,73,0
152.98294,153.42778,83,83,0
152.98294,153.42778,74,83,0
152.98294,153.42778,71,83,0
153.42778,153.65678,74,70,0
153.42778,153.65678,84,83,0
153.42778,153.65678,72,70,0
153.65678,153.88954,83,80,0
153.65678,153.88954,74,68,0
153.65678,153.9154,71,68,0
154.1654,154.85083,83,86,0
154.1654,154.85083,74,73,0
154.1654,154.85083,71,73,0
154.85083,155.07097,74,83,0
154.85083,155.07097,67,70,0
155.0747,155.28694,79,86,0
155.0747,155.28694,71,73,0
155.0747,155.28694,67,73,0
155.29053,155.50276,74,82,0
155.29053,155.50276,67,69,0
155.50636,155.71858,71,86,0
155.50636,155.71858,67,73,0
155.72218,155.93442,74,78,0
155.72218,155.93442,67,69,0
155.93802,156.16321,79,83,0
155.93802,156.16321,67,70,0
155.93802,156.16321,71,70,0
156.16702,156.39603,74,70,0
156.16702,156.39603,81,83,0
156.16702,156.39603,69,70,0
156.39603,156.63081,83,80,0
156.39603,156.6569,71,68,0
156.39603,156.6569,79,68,0
156.9069,157.58672,83,86,0
156.9069,157.58672,71,73,0
156.9069,157.58672,79,73,0
157.59232,158.02838,91,92,0
157.59232,158.02838,83,78,0
157.59232,158.02838,79,78,0
158.04921,158.27998,91,98,0
158.04921,158.27998,83,83,0
158.04921,158.27998,79,83,0
158.27998,158.51683,85,80,0
158.27998,158.54314,73,68,0
158.27998,158.54314,79,68,0
158.79314,159.48544,85,86,0
158.79314,159.48544,73,73,0
158.79314,159.48544,79,73,0
159.48544,159.92151,86,92,0
159.48544,159.92151,78,78,0
159.48544,159.92151,74,78,0
159.94235,160.17311,86,98,0
159.94235,160.17311,78,83,0
159.94235,160.17311,74,83,0
160.17311,160.41418,74,80,0
160.17311,160.44098,62,68,0
160.17311,160.44098,66,68,0
160.70647,162.33344,74,86,0
160.70647,162.33344,62,73,0
160.70647,162.33344,66,73,0
162.33344,162.58427,62,37,0
162.58427,162.84836,67,37,0
162.58427,162.84836,59,37,0
162.84836,163.12717,69,37,0
162.84836,163.12717,62,37,0
163.12717,163.35992,71,40,0
163.12717,163.35992,67,34,0
163.63579,164.3257,71,47,0
163.63579,164.3257,67,39,0
164.34499,164.5726,69,41,0
164.34499,164.5726,62,35,0
164.57646,164.79564,71,43,0
164.57646,164.79564,67,36,0
164.79935,165.01851,74,41,0
164.79935,165.01851,69,34,0
165.02223,165.2414,71,43,0
165.02223,165.2414,67,36,0
165.24512,165.46428,69,38,0
165.24512,165.46428,62,38,0
165.46799,165.69388,71,41,0
165.46799,165.69388,67,35,0
165.69771,165.93282,74,38,0
165.69771,165.93282,69,38,0
165.93282,166.14778,71,40,0
165.93282,166.14778,67,34,0
166.40677,167.08553,71,47,0
166.40677,167.08553,67,39,0
167.10483,167.33244,69,41,0
167.10483,167.33244,62,35,0
167.3363,167.55547,71,44,0
167.3363,167.55547,67,37,0
167.55919,167.77835,74,43,0
167.55919,167.77835,69,35,0
167.78207,168.00124,71,46,0
167.78207,168.00124,67,38,0
168.00494,168.22412,69,41,0
168.00494,168.22412,62,41,0
168.22783,168.4537,71,45,0
168.22783,168.4537,67,38,0
168.45753,168.70964,74,42,0
168.45753,168.70964,69,42,0
168.70964,168.9424,76,46,0
168.70964,168.9424,72,39,0
169.21826,169.90816,72,41,0
169.21826,169.90816,76,49,0
169.92744,170.15315,67,40,0
169.92744,170.15508,74,47,0
170.15894,170.37624,72,41,0
170.15894,170.3781,76,49,0
170.38182,170.59912,67,39,0
170.38182,170.60098,74,47,0
170.60469,170.822,72,49,0
170.60469,170.82387,64,41,0
170.82758,171.04489,67,43,0
170.82758,171.04675,62,43,0
171.05046,171.27443,72,47,0
171.05046,171.27634,64,40,0
171.28017,171.51527,77,43,0
171.28017,171.51527,67,43,0
171.51527,171.74805,76,46,0
171.51527,171.74805,72,39,0
172.0239,172.7138,72,41,0
172.0239,172.7138,76,49,0
172.7331,172.95879,72,45,0
172.7331,172.96071,76,53,0
172.96457,173.18188,79,58,0
172.96457,173.18188,76,49,0
173.18745,173.40477,74,45,0
173.18745,173.40662,78,54,0
173.41034,173.62764,76,59,0
173.41034,173.62764,72,50,0
173.63322,173.85052,72,51,0
173.63322,173.85239,69,43,0
173.8561,174.08006,76,56,0
173.8561,174.08006,72,47,0
174.08582,174.32092,72,51,0
174.08582,174.32092,69,43,0
174.32092,174.55368,69,46,0
174.32092,174.55368,66,39,0
174.82954,175.51944,66,45,0
174.82954,175.51944,69,53,0
175.53873,175.76442,66,45,0
175.53873,175.76636,69,53,0
175.77022,175.98752,72,58,0
175.77022,175.98752,69,49,0
175.99309,176.2104,67,45,0
175.99309,176.21227,71,54,0
176.21597,176.43329,69,59,0
176.21597,176.43329,66,50,0
176.43886,176.65617,71,51,0
176.43886,176.65617,67,43,0
176.66174,176.88571,69,56,0
176.66174,176.88571,66,47,0
176.89145,177.12656,66,51,0
176.89145,177.12656,64,43,0
177.12656,177.35931,71,46,0
177.12656,177.35931,63,39,0
177.63518,178.32507,63,41,0
177.63518,178.32507,71,49,0
178.34438,178.57007,66,45,0
178.34438,178.57199,69,53,0
178.57585,178.79317,72,58,0
178.57585,178.79317,69,49,0
178.79874,179.01604,67,45,0
178.79874,179.0179,71,54,0
179.02162,179.23892,69,59,0
179.02162,179.23892,66,50,0
179.24449,179.4618,71,51,0
179.24449,179.4618,67,43,0
179.46738,179.69135,69,56,0
179.46738,179.69135,66,47,0
179.69708,179.9322,66,51,0
179.69708,179.9322,64,43,0
179.9322,180.16496,71,46,0
179.9322,180.16496,63,39,0
180.44083,181.13072,63,41,0
180.44083,181.13072,71,49,0
181.15001,181.3757,66,45,0
181.15001,181.37764,69,53,0
181.38148,181.5988,72,58,0
181.38148,181.5988,69,49,0
181.60437,181.82169,67,45,0
181.60437,181.82355,71,54,0
181.82726,182.04457,69,59,0
181.82726,182.04457,66,50,0
182.05014,182.26744,71,51,0
182.05014,182.26744,67,43,0
182.27303,182.497,69,56,0
182.27303,182.497,66,47,0
182.50273,182.75697,66,51,0
182.50273,182.75697,64,43,0
182.75697,182.98973,71,46,0
182.75697,182.98973,63,39,0
183.2656,184.20917,63,40,0
183.2656,184.20917,71,48,0
184.22891,185.14775,71,46,0
184.22891,185.14775,63,46,0
185.14775,185.65366,71,45,0
185.14775,185.65366,63,45,0
185.65366,185.89133,71,41,0
185.65366,185.89133,63,35,0
186.17503,187.12964,63,36,0
186.17503,187.12964,71,43,0
187.14986,188.09773,71,41,0
187.14986,188.09773,63,41,0
188.09773,188.61739,71,40,0
188.09773,188.61739,63,40,0
188.61739,188.85014,71,40,0
188.61739,188.85014,67,34,0
189.126,189.8159,71,47,0
189.126,189.8159,67,39,0
189.83519,190.06282,69,41,0
189.83519,190.06282,62,35,0
190.06668,190.28584,71,43,0
190.06668,190.28584,67,36,0
190.28955,190.50687,74,41,0
190.28955,190.50873,69,34,0
190.51244,190.73161,71,43,0
190.51244,190.73161,67,36,0
190.73532,190.95448,69,38,0
190.73532,190.95448,62,38,0
190.9582,191.18408,71,41,0
190.9582,191.18408,67,35,0
191.18791,191.42302,74,38,0
191.18791,191.42302,69,38,0
191.42302,191.63799,71,40,0
191.42302,191.63799,67,34,0
191.89699,192.57574,71,47,0
191.89699,192.57574,67,39,0
192.59503,192.82265,69,41,0
192.59503,192.82265,62,35,0
192.8265,193.04568,71,44,0
192.8265,193.04568,67,37,0
193.0494,193.26857,74,43,0
193.0494,193.26857,69,35,0
193.27228,193.49144,71,46,0
193.27228,193.49144,67,38,0
193.49516,193.71432,69,41,0
193.49516,193.71432,62,41,0
193.71805,193.94392,71,45,0
193.71805,193.94392,67,38,0
193.94775,194.23077,74,42,0
193.94775,194.23077,69,42,0
194.23077,194.46353,76,46,0
194.23077,194.46353,72,39,0
194.7394,195.42929,72,41,0
194.7394,195.42929,76,49,0
195.44858,195.67427,67,40,0
195.44858,195.67621,74,47,0
195.68005,195.89737,72,41,0
195.68005,195.89923,76,49,0
195.90294,196.12025,67,39,0
195.90294,196.12212,74,47,0
196.12582,196.34314,72,49,0
196.12582,196.345,64,41,0
196.34871,196.56602,67,43,0
196.34871,196.56787,62,43,0
196.5716,196.79556,72,47,0
196.5716,196.79747,64,40,0
196.8013,197.0364,77,43,0
196.8013,197.0364,67,43,0
197.0364,197.26917,76,46,0
197.0364,197.26917,72,39,0
197.54503,198.23492,72,41,0
197.54503,198.23492,76,49,0
198.25421,198.47992,72,45,0
198.25421,198.48184,76,53,0
198.4857,198.70302,76,58,0
198.4857,198.70302,72,49,0
198.70859,198.92589,72,45,0
198.70859,198.92775,76,54,0
198.93147,199.14877,74,58,0
199.15434,199.37166,71,55,0
199.37723,199.6012,73,56,0
198.93147,199.82246,76,61,0
199.60693,199.84206,74,53,0
199.84206,200.07481,76,60,0
199.84206,200.07481,73,60,0
200.35066,201.04057,73,63,0
200.35066,201.04057,76,63,0
201.05986,201.28555,79,58,0
201.05986,201.28555,76,49,0
201.29134,201.50865,82,63,0
201.29134,201.50865,79,53,0
201.51422,201.73154,77,48,0
201.51422,201.73338,81,58,0
201.7371,201.95442,79,62,0
201.7371,201.95442,76,53,0
201.95999,202.17729,81,53,0
201.95999,202.17729,77,45,0
202.18288,202.40683,79,57,0
202.18288,202.40683,76,48,0
202.41258,202.64769,76,52,0
202.41258,202.64769,74,43,0
202.64769,202.88045,81,46,0
202.64769,202.88045,73,39,0
203.15631,203.8462,73,45,0
203.15631,203.8462,81,53,0
203.8655,204.09119,79,53,0
203.8655,204.09119,76,45,0
204.09698,204.31429,82,58,0
204.09698,204.31429,79,49,0
204.31985,204.53717,77,45,0
204.31985,204.53903,81,54,0
204.54274,204.76006,79,59,0
204.54274,204.76006,76,50,0
204.76562,204.98294,81,51,0
204.76562,204.98294,77,43,0
204.98851,205.21248,79,56,0
204.98851,205.21248,76,47,0
205.21822,205.47462,76,51,0
205.21822,205.47462,74,43,0
205.47462,205.70738,81,46,0
205.47462,205.70738,73,39,0
205.98325,206.92683,73,40,0
205.98325,206.92683,81,48,0
206.94658,207.86542,81,46,0
206.94658,207.86542,73,46,0
207.86542,208.37132,81,45,0
207.86542,208.37132,73,45,0
208.37132,208.609,81,48,0
208.37132,208.609,73,40,0
208.89268,209.8473,73,47,0
208.89268,209.8473,81,56,0
210.10562,210.34372,69,76,0
210.34372,210.558,74,81,0
210.34372,210.558,66,68,0
210.58182,211.02866,66,63,0
210.58182,211.02866,74,75,0
211.02866,211.26122,76,76,0
211.02866,211.26122,69,64,0
211.26122,211.69235,78,86,0
211.26122,211.69235,74,73,0
211.73816,212.45833,78,85,0
211.73816,212.45833,74,72,0
212.46414,212.92926,78,86,0
212.46414,212.92926,74,73,0
212.92926,213.16182,76,77,0
212.92926,213.16182,69,65,0
213.16182,213.37112,74,77,0
213.16182,213.37112,66,65,0
213.39438,213.84384,74,86,0
213.39438,213.84384,71,73,0
213.84384,214.07462,73,76,0
213.84384,214.07462,66,64,0
214.07462,214.52672,71,80,0
214.07462,214.52672,62,68,0
214.5767,215.49979,71,86,0
214.5767,215.49979,67,73,0
215.49979,215.97598,71,76,0
215.97598,216.19026,76,81,0
215.97598,216.19026,67,68,0
216.21408,216.66092,67,63,0
216.21408,216.66092,76,75,0
216.66092,216.89348,78,76,0
216.66092,216.89348,71,64,0
216.89348,217.33984,79,86,0
216.89348,217.33984,76,73,0
217.38565,218.10582,79,85,0
217.38565,218.10582,76,72,0
218.11163,218.57675,79,86,0
218.11163,218.57675,76,73,0
218.57675,218.80931,77,74,0
218.57675,218.80931,71,63,0
218.80931,219.0108,76,77,0
218.80931,219.0108,67,65,0
219.03319,219.46494,76,86,0
219.03319,219.46494,72,73,0
219.46494,219.6957,74,73,0
219.46494,219.6957,68,62,0
219.6957,219.92451,72,80,0
219.6957,219.92451,64,68,0
220.19994,220.88455,72,86,0
220.19994,220.88647,64,73,0
220.89224,221.35349,69,73,0
220.89224,221.35736,72,86,0
220.89224,221.35736,60,73,0
221.35736,221.58992,74,74,0
221.35736,221.58992,62,63,0
221.58992,221.79141,76,77,0
221.58992,221.79141,64,65,0
221.35736,221.8138,69,63,0
221.8138,222.24554,77,86,0
221.8138,222.24554,74,73,0
221.8138,222.24554,65,73,0
222.24554,222.47632,79,76,0
222.24554,222.47632,67,64,0
222.24554,222.47632,74,64,0
222.47632,222.7032,81,80,0
222.47632,222.7032,72,68,0
222.47632,222.72841,69,68,0
222.97841,223.65637,72,73,0
222.97841,223.65823,81,86,0
222.97841,223.65823,69,73,0
223.66383,223.88211,72,83,0
223.66383,223.88211,65,70,0
223.88771,224.09814,77,86,0
223.88771,224.09814,65,73,0
223.88771,224.09995,69,73,0
224.10355,224.31396,72,82,0
224.10355,224.31396,65,69,0
224.31937,224.5298,65,73,0
224.31937,224.5316,69,86,0
224.53519,224.74562,65,80,0
224.75102,224.9743,65,70,0
224.75102,224.97621,69,83,0
224.98003,225.20903,69,67,0
224.98003,225.20903,72,80,0
224.98003,225.20903,65,67,0
225.20903,225.4418,74,80,0
225.20903,225.4418,65,68,0
225.20903,225.46765,62,68,0
225.20903,225.46765,70,68,0
225.71765,226.39561,65,73,0
225.71765,226.39561,70,73,0
225.71765,226.39748,62,73,0
225.71765,226.39748,74,86,0
226.40308,226.83919,65,77,0
226.40308,226.84279,74,91,0
226.40308,226.84279,62,77,0
226.84279,227.05861,72,82,0
226.84279,227.05861,65,69,0
226.84279,227.05861,60,69,0
227.05861,227.26364,74,86,0
227.05861,227.26364,65,73,0
227.05861,227.26364,62,73,0
227.27444,227.71927,74,83,0
227.27444,227.71927,65,83,0
227.27444,227.71927,62,83,0
227.71927,227.94829,65,70,0
227.71927,227.94829,75,83,0
227.71927,227.94829,63,70,0
227.94829,228.18105,74,80,0
227.94829,228.18105,65,68,0
227.94829,228.20691,62,68,0
228.45691,229.14232,74,86,0
228.45691,229.14232,65,73,0
228.45691,229.14232,62,73,0
229.14232,229.36061,77,83,0
229.14232,229.36061,70,70,0
229.3662,229.57663,82,86,0
229.3662,229.57663,70,73,0
229.3662,229.57843,74,73,0
229.58203,229.79247,77,82,0
229.58203,229.79247,70,69,0
229.79785,230.00829,70,73,0
229.79785,230.01009,74,86,0
230.01369,230.22412,77,80,0
230.01369,230.22412,70,70,0
230.2295,230.45279,82,83,0
230.2295,230.45279,70,70,0
230.2295,230.4547,74,70,0
230.45851,230.68753,77,70,0
230.45851,230.68753,84,84,0
230.45851,230.68753,72,70,0
230.68753,230.9223,86,92,0
230.68753,230.9484,74,78,0
230.68753,230.9484,82,78,0
231.1984,231.87636,82,83,0
231.1984,231.87822,86,98,0
231.1984,231.87822,74,83,0
231.88382,232.31989,94,106,0
231.88382,232.31989,86,90,0
231.88382,232.31989,82,90,0
232.34071,232.57149,94,102,0
232.34071,232.57149,86,87,0
232.34071,232.57149,82,87,0
232.57149,232.80832,88,92,0
232.57149,232.83464,76,78,0
232.57149,232.83464,82,78,0
233.08464,233.77695,88,98,0
233.08464,233.77695,76,83,0
233.08464,233.77695,82,83,0
233.77695,234.21301,89,106,0
233.77695,234.21301,81,90,0
233.77695,234.21301,77,90,0
234.23384,234.46461,89,102,0
234.23384,234.46461,81,87,0
234.23384,234.46461,77,87,0
234.46461,234.69737,77,80,0
234.46461,234.69737,65,68,0
234.46461,234.72324,69,68,0
234.97324,235.842,77,86,0
234.97324,235.842,65,73,0
234.97324,235.8597,69,73,0
235.8597,236.40326,77,56,0
235.8597,236.40326,65,47,0
235.8597,236.40326,69,47,0
236.4262,236.7262,77,60,0
236.4262,236.7262,69,51,0
236.4262,236.7262,65,51,0
236.7262,236.98682,78,56,0
236.7262,236.98682,66,47,0
236.7262,237.01576,69,47,0
237.27754,237.9709,78,60,0
237.27754,237.9709,66,51,0
237.27754,237.98067,69,51,0
237.98067,238.21504,66,40,0
237.98067,238.21504,78,48,0
237.98067,238.21504,69,40,0
238.21504,238.44061,81,52,0
238.21504,238.44061,72,44,0
238.21504,238.44061,69,44,0
238.44061,238.66617,79,48,0
238.44061,238.66617,70,40,0
238.44061,238.66617,67,40,0
238.66617,238.88356,78,52,0
238.66617,238.88356,69,44,0
238.66617,238.88356,66,44,0
238.88356,239.10095,79,47,0
238.88356,239.10095,70,39,0
238.88356,239.10095,67,39,0
239.10095,239.31834,78,47,0
239.10095,239.31834,69,39,0
239.10095,239.31834,66,39,0
239.31834,239.56029,75,45,0
239.31834,239.56029,67,37,0
239.31834,239.56029,63,37,0
239.56029,239.81743,74,46,0
239.56029,239.81743,62,39,0
239.56029,239.846,66,39,0
240.13171,241.11037,74,51,0
240.13171,241.11037,62,42,0
240.13171,241.12807,66,42,0
241.12807,241.38669,66,40,0
241.12807,241.38669,78,48,0
241.12807,241.38669,69,40,0
241.38669,241.62863,81,52,0
241.38669,241.62863,72,44,0
241.38669,241.62863,69,44,0
241.62863,241.87056,79,48,0
241.62863,241.87056,70,40,0
241.62863,241.87056,67,40,0
241.87056,242.09956,78,52,0
241.87056,242.09956,69,44,0
241.87056,242.09956,66,44,0
242.09956,242.32858,79,47,0
242.09956,242.32858,70,39,0
242.09956,242.32858,67,39,0
242.32858,242.55759,78,47,0
242.32858,242.55759,69,39,0
242.32858,242.55759,66,39,0
242.55759,242.81183,75,45,0
242.55759,242.81183,67,37,0
242.55759,242.81183,63,37,0
242.81183,243.06897,74,46,0
242.81183,243.06897,62,39,0
242.81183,243.09753,66,39,0
243.38326,244.22849,74,51,0
243.38326,244.22849,62,42,0
243.38326,244.24039,66,42,0
244.24039,244.68394,74,52,0
244.24039,244.68394,62,44,0
244.24039,244.68394,66,44,0
244.72426,244.94604,74,47,0
244.72426,244.94604,66,39,0
244.72426,244.94604,62,39,0
244.9662,245.22334,74,52,0
244.9662,245.22334,62,44,0
244.9662,245.25192,66,44,0
245.53763,246.38287,74,47,0
245.53763,246.38287,62,39,0
245.53763,246.39478,66,39,0
246.39478,246.61252,75,52,0
246.39478,246.61252,63,44,0
246.39478,246.6367,66,44,0
246.87865,247.10042,75,47,0
246.87865,247.10042,66,39,0
246.87865,247.10042,63,39,0
247.12057,247.67613,75,52,0
247.12057,247.67613,63,44,0
247.12057,247.67613,66,44,0
247.72664,248.62311,75,47,0
247.72664,248.62311,63,39,0
247.72664,248.63573,66,39,0
248.63573,248.87051,87,57,0
248.63573,248.87051,75,48,0
248.63573,248.8966,78,48,0
249.15747,249.3966,87,47,0
249.15747,249.3966,78,39,0
249.15747,249.3966,75,39,0
249.41833,250.02274,87,52,0
249.41833,250.02274,75,44,0
249.41833,250.02274,78,44,0
250.07768,251.05295,87,47,0
250.07768,251.05295,75,39,0
250.07768,251.0667,78,39,0
251.0667,251.31439,73,48,0
251.0667,251.31439,61,40,0
251.0667,251.34192,64,40,0
251.61714,251.86945,73,39,0
251.61714,251.86945,64,33,0
251.61714,251.86945,61,33,0
251.89238,252.52457,73,44,0
251.89238,252.52457,61,37,0
251.89238,252.52457,64,37,0
252.58203,253.60214,73,39,0
252.58203,253.60214,61,33,0
252.58203,253.61652,64,33,0
253.61652,253.86885,85,44,0
253.61652,253.86885,73,37,0
253.61652,253.89688,77,37,0
254.17726,254.43427,85,39,0
254.17726,254.43427,77,33,0
254.17726,254.43427,73,33,0
254.45764,255.20088,85,44,0
254.45764,255.20088,73,37,0
254.45764,255.20088,77,37,0
255.26845,256.46777,85,39,0
255.26845,256.46777,73,33,0
255.26845,256.48465,77,33,0
256.48465,256.76886,71,37,0
256.48465,256.76886,59,31,0
256.48465,256.80045,62,31,0
257.11624,257.40573,71,33,0
257.11624,257.40573,62,28,0
257.11624,257.40573,59,28,0
257.82166,258.1723,83,37,0
257.82166,258.1723,71,31,0
257.82166,258.21124,75,31,0
258.60086,258.958,83,33,0
258.60086,258.958,75,28,0
258.60086,258.958,71,28,0
259.3801,259.73074,69,31,0
259.3801,259.73074,57,26,0
259.3801,259.76968,60,26,0
260.1593,260.51645,69,28,0
260.1593,260.51645,60,23,0
260.1593,260.51645,57,23,0
260.93854,261.28918,81,31,0
260.93854,261.28918,69,26,0
260.93854,261.32812,73,26,0
261.71774,262.0749,81,28,0
261.71774,262.0749,73,23,0
261.71774,262.0749,69,23,0
262.88657,264.3671,69,72,0
262.88657,264.3671,59,60,0
262.88657,264.3671,62,60,0
262.88657,264.3671,65,60,0
264.445,265.22424,69,49,0
264.445,265.22424,59,41,0
264.445,265.22424,62,41,0
264.445,265.22424,65,41,0
266.22424,268.22424,68,33,0
266.22424,268.22424,59,28,0
266.22424,268.22424,62,28,0
266.22424,268.22424,64,28,0
268.22424,269.12424,68,29,0
268.22424,269.12424,59,24,0
268.22424,269.12424,62,24,0
268.22424,269.12424,64,24,0
270.92023,271.09464,76,52,0
271.38535,271.50162,80,52,0
271.50162,271.6179,78,46,0
271.84344,271.97058,76,54,0
271.97058,272.0977,75,46,0
272.32495,272.7795,76,50,0
272.7795,273.00677,73,54,0
273.00677,273.23407,76,55,0
273.23407,273.4045,81,55,0
273.6886,273.85907,81,61,0
274.12863,274.29654,80,65,0
274.5781,274.77545,81,67,0
275.2654,275.95276,82,69,0
275.95276,276.18896,83,63,0
276.4048,276.56668,85,64,0
276.84283,277.00952,86,72,0
277.29062,277.47064,87,78,0
277.93604,278.57434,88,77,0
278.57434,278.7871,90,68,0
279.0161,279.17798,88,71,0
279.4592,279.62967,86,66,0
279.91904,280.12173,83,62,0
280.1893,280.4149,81,62,0
280.4149,280.97794,93,75,0
280.97794,281.04205,92,54,0
281.04205,281.10706,90,53,0
281.10706,281.1732,88,51,0
281.1732,281.2406,86,50,0
281.2406,281.30927,85,48,0
281.30927,281.37872,83,46,0
281.37872,281.5694,81,53,0
282.11975,282.29416,76,62,0
282.58133,282.69327,80,62,0
282.69327,282.8052,78,59,0
283.02908,283.1642,76,62,0
283.1642,283.29935,75,57,0
283.52322,283.97098,76,66,0
283.97098,284.20535,73,66,0
284.20535,284.43436,76,69,0
284.43436,284.6023,81,66,0
284.88214,285.05005,81,75,0
285.3203,285.48102,85,81,0
285.76358,285.9627,87,85,0
286.2581,286.72708,88,80,0
286.72708,286.971,90,76,0
286.971,287.23416,92,82,0
287.23416,287.4464,97,75,0
287.74106,287.853,85,62,0
287.853,287.96494,88,56,0
288.1993,288.3165,88,62,0
288.3165,288.4337,87,57,0
288.6816,288.80557,87,62,0
288.80557,288.92957,80,56,0
289.15344,289.54813,80,62,0
289.54813,289.67007,81,57,0
289.67007,289.79202,83,59,0
289.79202,289.91397,84,60,0
289.91397,290.08063,85,62,0
290.1362,290.30286,85,62,0
290.59277,290.70996,93,62,0
290.70996,290.82715,97,57,0
291.07108,291.19302,97,62,0
291.19302,291.31497,95,57,0
291.56085,291.70938,95,62,0
291.70938,291.8579,88,57,0
292.1018,292.47845,88,62,0
292.47845,292.61118,90,56,0
292.61118,292.74393,91,58,0
292.74393,292.87668,92,60,0
292.87668,293.1246,93,62,0
293.37256,293.8564,76,52,0
293.37256,293.8564,73,44,0
293.37256,293.8564,81,44,0
293.8564,294.28162,78,57,0
293.8564,294.28162,74,48,0
293.8564,294.32886,81,48,0
294.32886,294.7702,75,46,0
294.32886,294.7702,72,39,0
294.32886,294.82147,81,39,0
294.82147,296.1697,76,54,0
294.82147,296.1697,73,44,0
294.82147,296.1697,81,44,0
296.1888,296.6806,81,63,0
296.6806,297.14572,83,65,0
296.1888,297.14572,76,48,0
296.1888,297.14572,73,48,0
297.14572,297.59622,85,70,0
297.14572,297.59622,76,54,0
297.14572,297.59622,73,54,0
297.6498,298.55612,85,66,0
298.55612,299.05197,83,50,0
297.6498,299.05197,78,51,0
297.6498,299.05197,74,43,0
299.05197,299.4843,74,46,0
299.05197,299.5031,81,64,0
299.5031,299.94205,74,46,0
299.5031,299.96112,80,58,0
299.96112,300.40625,78,55,0
299.96112,300.40625,74,42,0
300.45755,301.79892,76,57,0
300.45755,301.79892,74,48,0
301.81802,302.27185,76,59,0
301.81802,302.27185,74,50,0
301.81802,302.27185,68,50,0
302.29092,302.70312,78,65,0
302.29092,302.70312,74,56,0
302.29092,302.70312,68,55,0
302.74893,303.1729,76,59,0
302.74893,303.1729,74,50,0
302.74893,303.1729,68,50,0
303.22375,304.35834,78,69,0
303.22375,304.35834,74,58,0
304.35834,304.8258,76,50,0
304.35834,304.8258,73,42,0
304.84613,305.2989,69,60,0
304.84613,305.31857,73,71,0
304.84613,305.31857,76,60,0
305.31857,305.73718,78,78,0
305.31857,305.73718,74,64,0
305.31857,305.73718,69,64,0
305.7837,306.21957,75,71,0
305.7837,306.21957,72,59,0
305.7837,306.21957,69,59,0
306.27087,307.61252,76,82,0
306.27087,307.61252,73,66,0
306.27087,307.6322,69,66,0
307.6322,308.07114,76,78,0
307.6322,308.07114,73,66,0
307.6322,308.07114,69,66,0
308.0902,308.53595,76,78,0
308.0902,308.53595,73,78,0
308.0902,308.55533,81,88,0
308.55533,309.03146,85,84,0
308.55533,309.03146,81,70,0
308.55533,309.03146,76,70,0
309.08105,310.53366,88,89,0
309.08105,310.53366,80,75,0
309.08105,310.53366,85,75,0
309.08105,310.5554,76,75,0
310.5554,310.991,80,61,0
310.5554,311.00995,85,84,0
310.5554,311.00995,73,61,0
311.00995,311.4627,87,84,0
311.00995,311.4627,78,73,0
311.00995,311.4627,75,68,0
311.4824,311.93237,92,72,0
311.4824,311.93237,87,56,0
311.4824,311.93237,78,56,0
311.4824,311.9824,84,56,0
311.9824,313.31592,85,84,0
311.9824,313.31592,73,62,0
311.9824,313.33456,76,62,0
311.9824,313.33456,80,62,0
313.33456,313.8033,69,46,0
313.33456,313.8033,64,37,0
313.8033,314.2388,71,46,0
313.8033,314.2388,69,37,0
313.8033,314.2872,63,37,0
314.2872,314.75952,76,37,0
314.2872,314.75952,71,32,0
314.2872,314.75952,62,32,0
314.2872,314.81613,68,32,0
314.81613,316.26773,69,46,0
314.81613,316.26773,61,37,0
316.26773,316.75092,79,47,0
316.26773,316.77194,82,77,0
316.26773,316.77194,73,47,0
316.77194,317.28534,79,68,0
316.77194,317.28534,74,68,0
316.77194,317.30765,83,80,0
317.30765,317.82193,85,84,0
317.30765,317.82193,76,71,0
317.30765,317.8791,79,71,0
317.8791,319.25302,86,102,0
317.8791,319.25302,79,69,0
317.8791,319.25302,83,76,0
317.8791,319.25302,74,69,0
319.27405,319.4631,86,62,0
319.27405,319.4631,83,52,0
319.52612,319.7152,83,69,0
319.52612,319.7152,79,58,0
319.77823,319.96732,79,61,0
319.77823,319.96732,74,51,0
320.03033,320.21942,74,66,0
320.03033,320.21942,71,56,0
320.28244,320.47153,71,55,0
320.28244,320.47153,67,46,0
320.53455,320.7302,67,62,0
320.53455,320.7302,62,52,0
320.7954,321.0511,62,53,0
320.7954,321.0511,59,45,0
321.13632,322.67477,64,62,0
321.13632,322.67477,60,52,0
322.67477,322.8671,62,49,0
322.67477,322.8671,59,41,0
322.93118,323.1235,67,43,0
322.93118,323.1235,62,36,0
323.1876,323.3751,64,49,0
323.1876,323.3751,60,41,0
323.4376,323.6251,72,40,0
323.4376,323.6251,64,34,0
323.6876,323.8885,65,41,0
323.6876,323.8885,71,49,0
323.95544,324.22015,77,43,0
323.95544,324.22015,71,36,0
324.3084,324.69302,76,49,0
324.3084,324.69302,72,41,0
324.82123,325.01352,62,49,0
324.82123,325.01352,59,41,0
325.07764,325.26993,67,43,0
325.07764,325.26993,62,36,0
325.33405,325.52155,64,49,0
325.33405,325.52155,60,41,0
325.58405,325.77155,72,40,0
325.58405,325.77155,64,34,0
325.83405,326.03494,65,41,0
325.83405,326.03494,71,49,0
326.1019,326.33148,77,43,0
326.1019,326.33148,71,36,0
326.40802,326.79263,76,49,0
326.40802,326.79263,72,41,0
326.92084,327.11316,83,64,0
326.92084,327.11316,77,54,0
327.17725,327.36957,89,56,0
327.17725,327.36957,83,47,0
327.43365,327.62115,88,61,0
327.43365,327.62115,84,51,0
327.68365,327.87115,84,54,0
327.68365,327.87115,76,45,0
327.93365,328.13455,77,41,0
327.93365,328.13455,83,49,0
328.2015,328.44345,77,43,0
328.2015,328.44345,71,36,0
328.5241,328.90872,76,49,0
328.5241,328.90872,72,41,0
329.03693,329.38855,74,55,0
329.03693,329.40277,68,55,0
329.03693,329.40277,64,55,0
329.03693,329.40277,76,65,0
329.52472,329.8735,74,58,0
329.52472,329.8735,66,58,0
329.52472,329.88763,69,58,0
329.52472,329.88763,78,69,0
330.0086,330.325,80,75,0
330.0086,330.325,68,63,0
330.0086,330.36017,76,63,0
330.0086,330.36017,71,63,0
330.47736,330.85236,81,81,0
330.47736,330.85236,73,68,0
330.47736,330.85236,76,68,0
330.47736,330.85236,69,68,0
330.97736,331.4186,81,73,0
330.97736,331.4186,71,73,0
330.97736,331.4186,75,73,0
330.97736,331.4186,83,87,0
331.58716,332.39795,76,78,0
331.58716,332.39795,85,92,0
331.58716,332.39795,81,78,0
331.58716,332.39795,73,78,0
332.39795,332.66824,69,66,0
332.66824,333.4577,73,75,0
333.4577,333.7702,71,64,0
332.66824,333.7702,68,63,0
332.66824,333.7702,64,63,0
332.66824,333.7702,62,63,0
333.7702,335.43686,69,63,0
333.7702,335.43686,64,53,0
333.7702,335.43686,61,53,0
335.43686,335.67688,76,53,0
335.67688,335.85687,74,48,0
335.91687,336.15686,74,53,0
336.15686,336.39688,73,47,0
336.39688,336.63687,71,53,0
336.63687,336.74103,69,49,0
336.77576,336.91464,69,45,0
336.91464,338.34323,76,56,0
338.34323,338.58322,76,53,0
338.58322,338.7632,74,48,0
338.8232,338.98322,74,53,0
338.98322,339.14322,73,47,0
339.14322,339.30322,71,47,0
339.30322,339.46323,70,53,0
339.46323,339.6358,73,47,0
339.7284,339.82098,73,45,0
339.6358,339.82098,74,47,0
339.82098,341.24957,76,53,0
341.24957,341.48956,70,62,0
341.48956,341.72955,78,57,0
341.72955,341.84958,74,61,0
341.84958,341.96957,76,59,0
341.96957,342.08914,74,59,0
342.08914,342.20914,73,60,0
342.20914,342.33063,71,63,0
342.33063,342.45374,73,65,0
342.45374,342.57834,74,68,0
342.57834,342.70435,76,71,0
343.20435,343.68054,70,68,0
343.68054,344.15112,71,70,0
342.70435,344.15112,78,78,0
344.15112,344.67288,73,65,0
344.15112,344.67288,82,77,0
344.67288,345.1453,74,68,0
344.67288,345.1453,83,81,0
345.1453,345.3953,78,60,0
345.3953,345.6757,74,45,0
345.1453,345.6757,71,51,0
345.6757,346.71017,73,55,0
345.6757,346.71017,69,46,0
346.71017,347.22742,71,51,0
346.71017,347.22742,68,43,0
347.22742,347.50742,64,60,0
347.4674,347.6474,63,55,0
347.7074,347.94742,64,60,0
347.94742,348.1874,59,54,0
348.1874,348.2474,57,55,0
348.2474,348.3074,59,56,0
348.3074,348.4274,57,60,0
348.4274,348.52194,56,56,0
348.55347,348.6795,56,51,0
348.6795,348.945,64,64,0
349.21048,350.2503,64,68,0
350.27243,350.55243,64,60,0
350.51242,350.6924,63,55,0
350.75244,350.99243,64,60,0
350.99243,351.23242,60,54,0
351.23242,351.29242,59,55,0
351.29242,351.35242,60,56,0
351.35242,351.47244,59,60,0
351.47244,351.56696,57,56,0
351.59848,351.72452,57,51,0
351.72452,351.99002,65,64,0
352.2555,353.29532,65,68,0
353.31744,353.59744,65,66,0
353.55746,353.73746,64,61,0
353.79745,354.03745,65,68,0
354.03745,354.27744,62,62,0
354.27744,354.33746,60,65,0
354.33746,354.39746,62,66,0
354.39746,354.51746,60,72,0
354.51746,354.612,59,67,0
354.6435,354.76956,59,62,0
354.76956,355.26523,67,78,0
355.2868,355.8003,71,50,0
355.2868,355.8003,67,42,0
355.2868,355.8003,62,42,0
355.82733,356.34085,72,50,0
355.82733,356.34085,67,42,0
355.82733,356.34085,60,42,0
356.36786,356.85925,74,55,0
356.36786,356.85925,67,46,0
356.36786,356.85925,62,46,0
356.8851,357.38953,76,63,0
356.8851,357.38953,67,53,0
356.8851,357.38953,64,53,0
357.41608,357.6888,79,59,0
357.41608,357.9922,71,50,0
357.41608,357.9922,67,50,0
357.6888,357.9978,77,52,0
358.02588,359.16876,77,50,0
358.02588,359.16876,71,42,0
359.16876,359.686,76,44,0
359.16876,359.686,72,37,0
358.02588,359.686,67,42,0
359.686,360.14233,79,73,0
359.686,360.14233,76,62,0
359.686,360.14233,67,62,0
360.16217,360.61853,79,67,0
360.16217,360.63837,84,80,0
360.16217,360.63837,72,67,0
360.63837,361.0774,86,85,0
360.63837,361.0774,74,71,0
360.63837,361.0774,79,85,0
361.1262,361.5209,88,96,0
361.1262,361.5209,79,80,0
361.1262,361.5209,76,80,0
361.6525,362.57993,88,89,0
361.6525,362.57993,79,75,0
361.6525,362.57993,76,75,0
362.62024,363.0818,84,56,0
362.62024,363.5141,76,40,0
363.0818,363.5329,79,55,0
362.62024,363.5329,72,40,0
363.5329,363.96838,77,48,0
363.5329,363.96838,74,37,0
363.5329,364.01678,71,37,0
364.01678,364.415,76,73,0
364.01678,364.415,72,55,0
364.54776,365.5734,76,50,0
364.54776,365.5734,72,38,0
365.5734,366.06924,74,47,0
365.5734,366.06924,65,34,0
365.5734,366.54446,67,34,0
366.06924,366.56512,72,43,0
366.06924,366.56512,64,34,0
366.56512,367.0794,67,40,0
366.56512,367.13657,59,31,0
367.13657,367.5348,64,41,0
367.13657,367.5348,60,31,0
367.66754,368.70667,64,39,0
367.66754,368.70667,60,30,0
368.70667,368.9546,60,34,0
368.70667,368.9546,64,41,0
368.9546,369.17773,62,35,0
368.9546,369.17773,59,29,0
369.20255,369.44644,62,41,0
369.20255,369.44644,59,34,0
369.44644,369.66595,64,36,0
369.44644,369.66595,60,30,0
369.69034,369.94894,64,41,0
369.69034,369.94894,60,34,0
369.94894,370.25198,65,35,0
369.94894,370.25198,59,29,0
370.25198,370.7648,64,41,0
370.25198,370.7648,60,34,0
370.7648,371.01276,72,37,0
370.7648,371.01276,76,45,0
371.01276,371.23587,74,38,0
371.01276,371.23587,71,31,0
371.26068,371.50458,74,45,0
371.26068,371.50458,71,37,0
371.50458,371.7241,76,39,0
371.50458,371.7241,72,33,0
371.74847,372.0071,79,49,0
372.0071,372.31012,77,41,0
371.74847,372.31012,71,37,0
372.31012,372.82736,76,45,0
372.31012,372.82736,72,37,0
372.82736,373.07532,60,31,0
372.82736,373.07532,64,38,0
373.07532,373.29846,62,32,0
373.07532,373.29846,59,26,0
373.32324,373.56714,62,38,0
373.32324,373.56714,59,31,0
373.56714,373.78665,64,33,0
373.56714,373.78665,60,28,0
373.81104,374.06967,67,41,0
374.06967,374.3727,65,34,0
373.81104,374.3727,59,31,0
374.3727,374.8527,64,38,0
374.3727,374.8527,60,31,0
374.8527,375.3327,76,45,0
374.8527,375.3327,72,45,0
375.3327,375.59586,76,49,0
375.3327,375.59586,74,49,0
375.59586,375.66165,78,48,0
375.66165,375.72745,76,48,0
375.72745,375.734,74,48,0
375.7932,375.859,76,48,0
375.859,376.21902,78,61,0
376.21902,376.33902,76,53,0
375.859,376.33902,74,51,0
376.33902,376.57712,76,68,0
376.33902,376.79364,73,49,0
376.57712,376.81332,81,61,0
376.81332,377.04956,76,64,0
377.04956,377.3174,85,59,0
376.81332,377.3174,73,45,0
377.3174,378.2623,80,56,0
377.3174,378.2623,76,39,0
377.3174,378.2623,71,39,0
378.2623,378.73474,80,55,0
378.73474,379.10983,78,48,0
379.10983,379.24872,76,45,0
378.2623,379.24872,75,39,0
378.2623,379.24872,69,39,0
379.24872,379.963,76,48,0
379.24872,379.963,68,48,0
379.963,380.1773,56,34,0
380.2011,380.40723,59,41,0
380.4301,380.63623,64,35,0
380.8781,381.13235,71,33,0
380.65912,381.13235,68,41,0
381.13235,381.55423,73,41,0
381.13235,381.55423,69,41,0
381.6011,382.0437,70,36,0
381.6011,382.0437,67,36,0
382.0929,382.8072,71,48,0
382.0929,382.8072,68,48,0
382.8072,383.02145,59,34,0
383.0453,383.24527,64,41,0
383.2675,383.46036,68,35,0
383.48178,383.69608,71,41,0
383.48178,383.9291,68,41,0
383.69608,383.95032,76,33,0
383.95032,384.3722,78,45,0
383.95032,384.3722,71,41,0
383.95032,384.39954,68,41,0
384.41907,384.91907,80,43,0
384.41907,384.91907,72,36,0
384.41907,384.97195,68,36,0
384.97195,385.95557,80,51,0
385.95557,386.20148,78,47,0
384.97195,386.20148,73,43,0
384.97195,386.20148,69,43,0
386.20148,386.40756,69,41,0
386.43048,386.86554,69,38,0
386.64944,386.9037,76,36,0
386.43048,386.9037,73,45,0
386.9037,387.32556,75,46,0
386.9037,387.32556,69,39,0
387.37244,387.81506,73,42,0
387.37244,387.81506,69,35,0
387.86423,388.34042,69,45,0
387.86423,388.57852,71,53,0
388.57852,388.79282,71,40,0
388.81662,389.01663,75,43,0
389.03885,389.2317,78,45,0
389.4674,389.59454,83,49,0
389.59454,389.65808,85,44,0
389.25314,389.70047,81,47,0
389.65808,389.72165,87,44,0
389.72165,390.14352,85,52,0
389.72165,390.14352,81,44,0
390.1904,390.6904,83,46,0
390.1904,390.6904,81,39,0
390.7433,391.7269,85,54,0
390.7433,391.7269,81,45,0
391.7269,391.9728,83,56,0
392.68387,393.1454,73,74,0
392.21872,393.1454,68,62,0
392.21872,393.1454,64,52,0
393.1454,393.68594,72,77,0
393.1454,393.68594,68,64,0
393.1454,393.68594,66,64,0
393.68594,394.4824,73,84,0
393.68594,394.4824,69,71,0
393.68594,394.4824,64,71,0
394.4824,394.7114,63,50,0
394.7114,394.9404,64,57,0
394.9404,395.1694,69,55,0
395.1694,395.39844,73,57,0
395.39844,395.60834,76,59,0
395.62744,396.06638,76,52,0
395.62744,396.08545,78,62,0
396.08545,396.48367,76,55,0
396.08545,396.48367,80,65,0
396.08545,396.48367,74,55,0
396.61642,399.28308,80,68,0
396.61642,399.28308,83,81,0
399.28308,399.74463,81,50,0
399.28308,399.74463,78,50,0
396.61642,399.74463,74,68,0
401.99722,403.40347,79,47,0
403.40347,403.4996,81,39,0
403.4996,403.59576,79,36,0
403.59576,403.69193,78,39,0
403.69193,403.7881,79,36,0
403.7881,404.01364,78,46,0
404.01364,404.2392,79,39,0
404.2392,404.47543,83,47,0
404.47543,404.77844,81,37,0
401.99722,404.77844,73,39,0
404.77844,405.27432,78,46,0
404.77844,405.27432,74,39,0
401.99722,405.27432,69,39,0
405.52225,405.75125,66,50,0
405.75125,405.9803,69,57,0
405.9803,406.2093,74,55,0
406.2093,406.4383,78,57,0
406.4383,406.6673,81,59,0
406.4383,406.6673,74,51,0
406.4383,407.10623,69,51,0
406.6673,407.1253,76,52,0
406.6673,407.1253,80,62,0
407.1253,407.52353,78,65,0
407.1253,407.52353,69,46,0
407.65628,408.45276,76,69,0
407.65628,408.45276,69,58,0
408.45276,408.69324,61,50,0
408.69324,408.92096,64,57,0
408.92096,409.14868,69,55,0
409.14868,409.3764,73,57,0
409.3764,409.60413,76,59,0
409.3764,409.60413,69,51,0
409.60413,410.05957,71,52,0
409.60413,410.05957,75,62,0
409.3764,410.05957,64,51,0
410.05957,410.41464,73,65,0
410.05957,410.41464,64,46,0
410.533,410.89374,71,69,0
410.533,410.89374,64,58,0
411.01398,411.42035,76,73,0
411.01398,411.42035,70,73,0
411.01398,411.42035,66,73,0
411.5558,412.60162,76,65,0
411.5558,412.60162,68,65,0
411.5558,412.60162,71,65,0
411.5558,412.60162,80,77,0
412.60162,413.4448,80,62,0
412.60162,413.73816,71,52,0
412.60162,413.76483,69,52,0
412.60162,413.76483,75,52,0
413.4448,413.76483,78,42,0
413.76483,415.46713,76,49,0
413.76483,415.46713,71,41,0
413.76483,415.46713,68,41,0
415.46713,415.94333,64,76,0
415.94333,416.1576,69,81,0
415.94333,416.1576,61,68,0
416.18143,416.62827,61,63,0
416.18143,416.62827,69,75,0
416.62827,416.8608,71,76,0
416.62827,416.8608,64,64,0
416.8608,417.29196,73,86,0
416.8608,417.29196,69,73,0
417.33777,418.05792,73,85,0
417.33777,418.05792,69,72,0
418.06375,418.52887,73,86,0
418.06375,418.52887,69,73,0
418.52887,418.7614,71,74,0
418.52887,418.7614,64,63,0
418.7614,418.97073,69,77,0
418.7614,418.97073,61,65,0
418.994,419.45883,69,86,0
418.994,419.45883,66,73,0
419.45883,419.6896,68,76,0
419.45883,419.6896,61,64,0
419.6896,420.14172,66,80,0
419.6896,420.14172,57,68,0
420.1917,421.11478,66,86,0
420.1917,421.11478,57,73,0
421.11478,421.59097,66,76,0
421.59097,421.80527,71,81,0
421.59097,421.80527,62,68,0
421.82907,422.27432,62,63,0
421.82907,422.27432,71,75,0
422.27432,422.51822,73,76,0
422.27432,422.51822,66,64,0
422.51822,422.9646,74,86,0
422.51822,422.9646,71,73,0
423.01038,423.73056,74,85,0
423.01038,423.73056,71,72,0
423.7364,424.20148,74,86,0
423.7364,424.20148,71,73,0
424.20148,424.43405,73,74,0
424.20148,424.43405,66,63,0
424.43405,424.63553,71,77,0
424.43405,424.63553,62,65,0
424.65793,425.08966,71,86,0
424.65793,425.08966,68,73,0
425.08966,425.32043,69,76,0
425.08966,425.32043,63,64,0
425.32043,425.54926,68,80,0
425.32043,425.54926,59,68,0
425.82468,426.51123,68,86,0
425.82468,426.51123,59,73,0
426.517,426.97824,64,73,0
426.517,426.98212,68,86,0
426.517,426.98212,56,73,0
426.98212,427.19528,64,63,0
426.98212,427.21466,69,74,0
426.98212,427.21466,57,63,0
427.21466,427.41617,71,77,0
427.21466,427.41617,59,65,0
427.21466,427.43854,64,65,0
427.43854,427.8703,73,86,0
427.43854,427.8703,69,73,0
427.43854,427.8703,61,73,0
427.8703,428.10104,74,76,0
427.8703,428.10104,62,64,0
427.8703,428.10104,69,64,0
428.10104,428.32794,76,80,0
428.10104,428.32794,69,68,0
428.10104,428.35315,64,68,0
428.60315,429.283,76,86,0
428.60315,429.283,69,73,0
428.60315,429.283,64,73,0
429.28857,429.50873,76,83,0
429.28857,429.50873,69,70,0
429.51245,429.7247,81,86,0
429.51245,429.7247,73,73,0
429.51245,429.7247,69,73,0
429.72827,429.94052,76,82,0
429.72827,429.94052,69,69,0
429.94412,430.15634,73,86,0
429.94412,430.15634,69,73,0
430.15994,430.37216,69,80,0
430.37576,430.60095,73,83,0
430.37576,430.60095,69,70,0
430.60477,430.83377,76,83,0
430.60477,430.83377,69,70,0
430.83377,431.06653,78,80,0
430.83377,431.06653,69,68,0
430.83377,431.0924,66,68,0
430.83377,431.0924,74,68,0
431.3424,432.02222,78,86,0
431.3424,432.02222,74,73,0
431.3424,432.02222,66,73,0
431.3424,432.02222,69,73,0
432.02783,432.46393,69,77,0
432.02783,432.46753,78,91,0
432.02783,432.46753,66,77,0
432.46753,432.68335,76,82,0
432.46753,432.68335,69,69,0
432.46753,432.68335,64,69,0
432.68335,432.8884,78,86,0
432.68335,432.8884,69,73,0
432.68335,432.8884,66,73,0
432.89917,433.34402,78,83,0
432.89917,433.34402,69,83,0
432.89917,433.34402,66,83,0
433.34402,433.57303,69,70,0
433.34402,433.57303,79,83,0
433.34402,433.57303,67,70,0
433.57303,433.8058,78,88,0
433.57303,433.8058,74,74,0
433.57303,433.83163,66,74,0
434.08163,434.76706,78,86,0
434.08163,434.76706,74,73,0
434.08163,434.76706,66,73,0
434.76706,434.9872,69,83,0
434.76706,434.9872,62,70,0
434.99094,435.2032,74,86,0
434.99094,435.2032,66,73,0
434.99094,435.2032,62,73,0
435.2068,435.419,69,82,0
435.2068,435.419,62,69,0
435.4226,435.63483,66,83,0
435.4226,435.63483,62,70,0
435.63843,435.85065,69,83,0
435.63843,435.85065,62,73,0
435.85425,436.07944,74,80,0
435.85425,436.07944,62,67,0
435.85425,436.07944,66,67,0
436.08325,436.3123,69,70,0
436.08325,436.3123,76,83,0
436.08325,436.3123,64,70,0
436.3123,436.54706,78,80,0
436.3123,436.57315,66,68,0
436.3123,436.57315,74,68,0
436.82315,437.50296,78,86,0
436.82315,437.50296,66,73,0
436.82315,437.50296,74,73,0
437.50858,437.9446,86,101,0
437.50858,437.9446,78,85,0
437.50858,437.9446,74,85,0
437.96545,438.19623,86,98,0
437.96545,438.19623,78,83,0
437.96545,438.19623,74,83,0
438.19623,438.43307,80,80,0
438.19623,438.45938,68,68,0
438.19623,438.45938,74,68,0
438.70938,439.4017,80,86,0
438.70938,439.4017,68,73,0
438.70938,439.4017,74,73,0
439.4017,439.83777,81,101,0
439.4017,439.83777,73,85,0
439.4017,439.83777,69,85,0
439.85858,440.08936,81,88,0
439.85858,440.08936,73,74,0
439.85858,440.08936,69,74,0
440.08936,440.33044,69,80,0
440.08936,440.3572,57,68,0
440.08936,440.3572,61,68,0
440.6227,442.2497,69,86,0
440.6227,442.2497,57,73,0
440.6227,442.2497,61,73,0
442.2497,442.50052,69,37,0
442.50052,442.76462,74,37,0
442.50052,442.76462,66,37,0
442.76462,443.04343,76,37,0
442.76462,443.04343,69,37,0
443.04343,443.27618,78,40,0
443.04343,443.27618,74,34,0
443.55203,444.24194,78,43,0
443.55203,444.24194,74,36,0
444.26123,444.48886,76,41,0
444.26123,444.48886,69,35,0
444.4927,444.71188,78,43,0
444.4927,444.71188,74,36,0
444.71558,444.93475,81,41,0
444.71558,444.93475,76,34,0
444.93848,445.15765,78,43,0
444.93848,445.15765,74,36,0
445.16135,445.38052,76,38,0
445.16135,445.38052,69,38,0
445.38425,445.6101,78,41,0
445.38425,445.6101,74,35,0
445.61395,445.84906,81,38,0
445.61395,445.84906,76,38,0
445.84906,446.06403,78,40,0
445.84906,446.06403,74,34,0
446.32303,447.00177,78,43,0
446.32303,447.00177,74,36,0
447.02106,447.2487,76,41,0
447.02106,447.2487,69,35,0
447.25253,447.4717,78,44,0
447.25253,447.4717,74,37,0
447.47543,447.69458,81,43,0
447.47543,447.69458,76,35,0
447.6983,447.91748,78,46,0
447.6983,447.91748,74,38,0
447.9212,448.14035,76,41,0
447.9212,448.14035,69,41,0
448.14407,448.36996,78,45,0
448.14407,448.36996,74,38,0
448.37378,448.61264,81,42,0
448.37378,448.61264,76,42,0
448.61264,448.8454,83,46,0
448.61264,448.8454,79,39,0
449.12125,449.81116,79,41,0
449.12125,449.81116,83,49,0
449.83044,450.05615,74,40,0
449.83044,450.05807,81,47,0
450.06192,450.27924,79,41,0
450.06192,450.2811,83,49,0
450.28482,450.5021,74,39,0
450.28482,450.50397,81,47,0
450.5077,450.725,79,49,0
450.5077,450.72687,71,41,0
450.73056,450.94788,74,43,0
450.73056,450.94974,69,43,0
450.95346,451.17743,79,47,0
450.95346,451.17935,71,40,0
451.18317,451.41827,84,43,0
451.18317,451.41827,74,43,0
451.41827,451.65103,83,46,0
451.41827,451.65103,79,39,0
451.9269,452.6168,79,41,0
451.9269,452.6168,83,49,0
452.63608,452.8618,79,45,0
452.63608,452.8637,83,53,0
452.86755,453.08487,86,58,0
452.86755,453.08487,83,49,0
453.09045,453.30777,81,45,0
453.09045,453.30963,85,54,0
453.31332,453.53064,83,59,0
453.31332,453.53064,79,50,0
453.53622,453.75354,79,51,0
453.53622,453.75537,76,43,0
453.7591,453.98306,83,56,0
453.7591,453.98306,79,47,0
453.9888,454.2239,79,51,0
453.9888,454.2239,76,43,0
454.2239,454.45667,76,46,0
454.2239,454.45667,73,39,0
454.73254,455.42242,73,41,0
454.73254,455.42242,76,49,0
455.4417,455.66742,73,45,0
455.4417,455.66934,76,53,0
455.67322,455.8905,79,58,0
455.67322,455.8905,76,49,0
455.8961,456.1134,74,45,0
455.8961,456.11526,78,54,0
456.11896,456.33627,76,59,0
456.11896,456.33627,73,50,0
456.34186,456.55917,78,51,0
456.34186,456.55917,74,43,0
456.56473,456.7887,76,56,0
456.56473,456.7887,73,47,0
456.79443,457.02954,73,51,0
456.79443,457.02954,71,43,0
457.02954,457.26233,78,46,0
457.02954,457.26233,70,39,0
457.53818,458.2281,70,41,0
457.53818,458.2281,78,49,0
458.24738,458.47305,73,45,0
458.24738,458.47498,76,53,0
458.47885,458.70044,79,58,0
458.47885,458.70044,76,49,0
458.70612,458.9277,74,45,0
458.70612,458.9296,78,54,0
458.93338,459.15497,76,59,0
458.93338,459.15497,73,50,0
459.16068,459.38226,78,51,0
459.16068,459.38226,74,43,0
459.38794,459.6201,76,56,0
459.38794,459.6201,73,47,0
459.62604,459.87604,73,51,0
459.62604,459.87604,71,43,0
459.87604,460.1088,78,46,0
459.87604,460.1088,70,39,0
460.38464,461.30603,70,41,0
460.38464,461.30603,78,49,0
461.32532,462.19827,78,46,0
461.32532,462.19827,70,46,0
462.21686,462.68655,78,45,0
462.21686,462.68655,70,45,0
462.74655,462.9793,78,46,0
462.74655,462.9793,69,39,0
463.2552,464.19876,69,40,0
463.2552,464.19876,78,48,0
464.2185,465.1182,78,46,0
464.2185,465.1182,69,46,0
465.13736,465.59265,78,45,0
465.13736,465.59265,69,45,0
465.64325,465.88092,76,41,0
465.64325,465.88092,68,35,0
466.1646,467.10892,68,36,0
466.1646,467.10892,76,43,0
466.89673,467.12244,71,39,0
466.89673,467.12244,74,46,0
467.12823,467.34552,77,50,0
467.12823,467.34552,74,42,0
467.3511,467.56842,72,38,0
467.3511,467.57028,76,46,0
467.57397,467.7913,74,49,0
467.57397,467.7913,71,42,0
467.79688,468.0142,76,42,0
467.79688,468.0142,72,36,0
468.01974,468.2437,74,45,0
468.01974,468.2437,71,38,0
468.24945,468.48456,71,41,0
468.24945,468.48456,69,34,0
468.48456,468.71732,76,36,0
468.48456,468.71732,68,31,0
468.9932,469.68307,68,32,0
468.9932,469.68307,76,39,0
469.7024,469.92807,74,42,0
469.7024,469.92807,71,36,0
469.93387,470.15118,77,46,0
469.93387,470.15118,74,39,0
470.15674,470.37405,72,36,0
470.15674,470.37592,76,43,0
470.37964,470.59692,74,47,0
470.37964,470.59692,71,40,0
470.6025,470.81982,76,40,0
470.6025,470.81982,72,34,0
470.82538,471.04935,74,44,0
470.82538,471.04935,71,37,0
471.0551,471.29022,71,40,0
471.0551,471.29022,69,34,0
471.29022,471.52298,76,36,0
471.29022,471.52298,68,31,0
471.79883,472.7424,68,32,0
471.79883,472.7424,76,38,0
473.00024,473.23834,64,76,0
473.23834,473.45264,69,81,0
473.23834,473.45264,61,68,0
473.47644,473.92328,61,63,0
473.47644,473.92328,69,75,0
473.92328,474.15585,71,76,0
473.92328,474.15585,64,64,0
474.15585,474.58698,73,86,0
474.15585,474.58698,69,73,0
474.63278,475.35297,73,85,0
474.63278,475.35297,69,72,0
475.35876,475.82388,73,86,0
475.35876,475.82388,69,73,0
475.82388,476.05646,71,74,0
475.82388,476.05646,64,63,0
476.05646,476.26575,69,77,0
476.05646,476.26575,61,65,0
476.289,476.7459,69,86,0
476.289,476.7459,66,73,0
476.7459,476.97668,68,76,0
476.7459,476.97668,61,64,0
476.97668,477.42877,66,80,0
476.97668,477.42877,57,68,0
477.4788,478.40186,66,86,0
477.4788,478.40186,57,73,0
478.40186,478.87805,66,76,0
478.87805,479.09232,71,81,0
478.87805,479.09232,62,68,0
479.11615,479.563,62,63,0
479.11615,479.563,71,75,0
479.563,479.79553,73,76,0
479.563,479.79553,66,64,0
479.79553,480.2419,74,86,0
479.79553,480.2419,71,73,0
480.28772,481.00787,74,85,0
480.28772,481.00787,71,72,0
481.0137,481.47882,74,86,0
481.0137,481.47882,71,73,0
481.47882,481.71136,72,74,0
481.47882,481.71136,66,63,0
481.71136,481.91287,71,77,0
481.71136,481.91287,62,65,0
481.93524,482.367,71,86,0
481.93524,482.367,67,73,0
482.367,482.59775,69,76,0
482.367,482.59775,63,64,0
482.59775,482.82657,67,80,0
482.59775,482.82657,59,68,0
483.102,483.78662,67,86,0
483.102,483.78854,59,73,0
483.7943,484.25555,64,73,0
483.7943,484.25943,67,86,0
483.7943,484.25943,55,73,0
484.25943,484.4881,64,64,0
484.25943,484.49197,69,77,0
484.25943,484.49197,57,64,0
484.49197,484.69348,71,81,0
484.49197,484.69348,59,68,0
484.49197,484.71585,64,67,0
484.71585,485.1476,72,89,0
484.71585,485.1476,69,75,0
484.71585,485.1476,60,75,0
485.1476,485.3784,74,85,0
485.1476,485.3784,62,71,0
485.1476,485.3784,67,71,0
485.3784,485.60526,76,92,0
485.3784,485.60526,67,78,0
485.3784,485.63046,64,78,0
485.88046,486.55844,67,83,0
485.88046,486.5603,76,98,0
485.88046,486.5603,64,83,0
486.5659,486.78418,79,95,0
486.5659,486.78418,72,80,0
486.78976,487.0002,84,98,0
486.78976,487.0002,72,83,0
486.78976,487.002,76,83,0
487.0056,487.21603,79,94,0
487.0056,487.21603,72,79,0
487.22144,487.43185,72,83,0
487.22144,487.43365,76,98,0
487.43726,487.64767,72,92,0
487.65308,487.87637,72,80,0
487.65308,487.87827,76,95,0
487.88208,488.1111,72,80,0
487.88208,488.1111,79,95,0
488.1111,488.34387,81,92,0
488.1111,488.34387,72,78,0
488.1111,488.36972,69,78,0
488.1111,488.36972,77,78,0
488.61972,489.29767,72,78,0
488.61972,489.29767,77,78,0
488.61972,489.29953,69,78,0
488.61972,489.29953,81,93,0
489.30515,489.74124,72,80,0
489.30515,489.74484,81,95,0
489.30515,489.74484,69,80,0
489.74484,489.96066,82,89,0
489.74484,489.96066,72,75,0
489.74484,489.96066,70,75,0
489.96066,490.1657,81,93,0
489.96066,490.1657,72,78,0
489.96066,490.1657,69,78,0
490.1765,490.62134,81,90,0
490.1765,490.62134,72,90,0
490.1765,490.62134,69,90,0
490.62134,490.85034,73,80,0
490.62134,490.85034,79,95,0
490.62134,490.85034,67,80,0
490.85034,491.0831,81,92,0
490.85034,491.0831,78,78,0
490.85034,491.0831,74,78,0
490.85034,491.10898,69,78,0
491.35898,492.02573,81,98,0
491.35898,492.02573,74,83,0
491.35898,492.04437,78,83,0
491.35898,492.04437,69,83,0
492.04437,492.26453,81,95,0
492.04437,492.26453,74,80,0
492.26825,492.4787,74,83,0
492.26825,492.4805,86,98,0
492.26825,492.4805,78,83,0
492.4841,492.69632,81,94,0
492.4841,492.69632,74,79,0
492.69992,492.91034,74,83,0
492.69992,492.91214,78,98,0
492.91574,493.128,74,92,0
493.13156,493.35486,78,95,0
493.13156,493.35486,74,80,0
493.3606,493.5896,78,77,0
493.3606,493.5896,81,92,0
493.3606,493.5896,74,77,0
493.5896,493.82437,83,92,0
493.5896,493.85046,74,78,0
493.5896,493.85046,79,78,0
493.5896,493.85046,71,78,0
494.10046,494.7784,79,83,0
494.10046,494.78027,83,98,0
494.10046,494.78027,71,83,0
494.10046,494.7859,74,83,0
494.7859,495.22195,83,96,0
494.7859,495.22195,74,81,0
494.7859,495.24277,71,81,0
495.24277,495.47354,84,93,0
495.24277,495.47354,74,79,0
495.24277,495.47354,72,79,0
495.47354,495.6786,83,99,0
495.47354,495.6786,74,84,0
495.47354,495.6786,71,84,0
495.68936,496.13422,83,95,0
495.68936,496.13422,74,80,0
495.68936,496.13422,71,80,0
496.13422,496.36322,75,80,0
496.13422,496.36322,81,95,0
496.13422,496.36322,69,80,0
496.36322,496.59598,83,92,0
496.36322,496.59598,80,78,0
496.36322,496.59598,76,78,0
496.36322,496.62183,71,78,0
496.87183,497.57892,83,98,0
496.87183,497.57892,76,83,0
496.87183,497.60123,80,83,0
496.87183,497.60123,71,83,0
497.60123,497.82138,83,95,0
497.60123,497.82138,76,80,0
497.8251,498.03555,76,83,0
497.8251,498.03735,88,98,0
497.8251,498.03735,80,83,0
498.04092,498.25317,83,94,0
498.04092,498.25317,76,79,0
498.25677,498.4672,76,83,0
498.25677,498.469,80,98,0
498.4726,498.6848,76,95,0
498.68842,498.9117,80,95,0
498.68842,498.9117,76,80,0
498.91742,499.14642,80,77,0
498.91742,499.14642,83,92,0
498.91742,499.14642,76,77,0
499.14642,499.36487,84,92,0
499.14642,499.38916,76,78,0
499.14642,499.38916,81,78,0
499.14642,499.38916,72,78,0
499.63187,500.3165,84,95,0
499.63187,500.3165,72,80,0
499.63187,500.3165,81,80,0
499.63187,500.3242,76,80,0
500.3242,500.73315,84,95,0
500.3242,500.73315,81,80,0
500.3242,500.73315,72,80,0
500.3242,500.73315,76,80,0
500.75092,500.95007,76,75,0
500.75092,500.9643,81,75,0
500.75092,500.9643,72,75,0
500.75092,500.9643,84,89,0
500.9643,501.19388,84,92,0
500.9643,501.2194,72,77,0
500.9643,501.2194,81,77,0
500.9643,501.2194,76,77,0
501.4745,502.16895,84,93,0
501.4745,502.16895,81,78,0
501.4745,502.16895,76,78,0
501.4745,502.16895,72,78,0
502.16895,502.59613,84,98,0
502.16895,502.59613,81,83,0
502.16895,502.59613,72,83,0
502.16895,502.59613,76,83,0
502.61472,502.85355,84,91,0
502.61472,502.85355,72,76,0
502.61472,502.85355,76,76,0
502.61472,502.85355,81,76,0
502.85355,503.0793,86,93,0
502.85355,503.0793,79,74,0
502.85355,503.1044,74,74,0
502.85355,503.1044,83,74,0
503.35522,504.07913,86,96,0
503.35522,504.07913,74,80,0
503.35522,504.08932,79,80,0
503.35522,504.08932,83,80,0
504.08932,504.2914,86,99,0
504.08932,504.2914,74,84,0
504.08932,504.31387,79,84,0
504.08932,504.31387,83,84,0
504.53842,504.78314,86,96,0
504.53842,504.78314,83,81,0
504.53842,504.78314,74,81,0
504.53842,504.78314,79,81,0
504.78314,505.01468,86,99,0
504.78314,505.0404,79,84,0
504.78314,505.0404,83,84,0
504.78314,505.0404,74,84,0
505.2977,506.012,86,103,0
505.2977,506.012,74,87,0
505.2977,506.012,83,87,0
505.2977,506.02002,79,87,0
506.02002,506.45856,86,104,0
506.02002,506.45856,83,88,0
506.02002,506.45856,74,88,0
506.02002,506.45856,79,88,0
506.4777,506.72635,79,81,0
506.4777,506.7441,83,81,0
506.4777,506.7441,74,81,0
506.4777,506.7441,86,96,0
506.7441,506.97372,88,100,0
506.7441,506.99924,76,84,0
506.7441,506.99924,84,84,0
506.7441,506.99924,79,84,0
507.25433,508.00058,88,101,0
507.25433,508.00058,84,86,0
507.25433,508.00058,79,86,0
507.25433,508.00058,76,86,0
508.00058,508.4658,88,106,0
508.00058,508.4658,84,89,0
508.00058,508.4658,76,89,0
508.00058,508.4658,79,89,0
508.48602,508.76227,88,98,0
508.48602,508.76227,76,82,0
508.48602,508.76227,79,82,0
508.48602,508.76227,84,82,0
508.76227,509.028,88,103,0
508.76227,509.028,79,73,0
508.76227,509.05756,76,73,0
508.76227,509.05756,84,73,0
509.3528,510.35452,88,99,0
509.3528,510.35452,76,83,0
509.3528,510.36862,79,83,0
509.3528,510.36862,84,83,0
510.36862,510.5944,76,57,0
510.36862,510.5944,64,48,0
510.36862,510.61948,67,48,0
510.36862,510.61948,72,48,0
510.8703,511.11008,76,54,0
510.8703,511.11008,72,45,0
510.8703,511.11008,64,45,0
510.8703,511.11008,67,45,0
511.13672,511.40247,76,53,0
511.13672,511.432,67,45,0
511.13672,511.432,72,45,0
511.13672,511.432,64,45,0
511.72726,512.5248,76,53,0
511.72726,512.5248,64,45,0
511.72726,512.5248,72,45,0
511.72726,512.53375,67,45,0
512.53375,513.0334,76,52,0
512.53375,513.0334,72,44,0
512.53375,513.0334,64,44,0
512.53375,513.0334,67,44,0
513.05505,513.32196,67,39,0
513.05505,513.34045,72,39,0
513.05505,513.34045,64,39,0
513.05505,513.34045,76,47,0
513.37213,513.6278,76,50,0
513.37213,513.65625,72,42,0
513.37213,513.65625,65,42,0
513.9403,514.75464,74,45,0
513.9403,514.75464,65,38,0
513.9403,514.75464,71,38,0
514.7615,515.2504,74,47,0
514.7615,515.2504,65,40,0
514.7615,515.2504,71,40,0
515.2717,515.542,65,36,0
515.2717,515.5613,74,42,0
515.2717,515.5613,71,36,0
515.5613,515.8467,74,45,0
515.5613,515.8784,71,38,0
515.5613,515.8784,64,38,0
516.19556,517.0827,72,41,0
516.19556,517.0827,64,34,0
516.19556,517.0827,69,34,0
517.09015,517.6399,72,42,0
517.09015,517.6399,64,35,0
517.09015,517.6399,69,35,0
517.66376,518.0391,64,32,0
517.66376,518.0659,72,38,0
517.66376,518.0659,69,32,0
518.0659,518.43274,72,40,0
518.0659,518.4735,69,34,0
518.0659,518.4735,64,34,0
518.88116,521.1457,71,36,0
518.88116,521.1457,64,30,0
518.88116,521.1457,68,30,0
522.50934,522.9413,64,46,0
522.50934,522.9413,61,39,0
522.9893,523.4213,66,50,0
522.9893,523.4213,62,42,0
523.4693,523.9936,63,40,0
523.4693,523.9936,60,34,0
524.2918,524.75183,73,38,0
524.2918,524.75183,69,38,0
524.77185,525.01184,73,38,0
524.77185,525.01184,69,38,0
524.0518,525.47186,64,47,0
524.0518,525.47186,61,39,0
525.01184,525.4918,69,38,0
525.01184,525.4918,73,38,0
525.4918,525.95184,64,42,0
525.4918,525.95184,61,42,0
525.4918,525.97186,73,31,0
525.4918,525.97186,69,55,0
525.97186,526.4406,71,57,0
525.97186,526.4406,64,42,0
525.97186,526.4406,61,42,0
526.4406,526.89435,73,61,0
526.4406,526.89435,65,47,0
526.4406,526.89435,61,47,0
527.1867,527.65045,76,48,0
527.1867,527.65045,78,48,0
527.6706,527.91254,76,41,0
527.6706,527.91254,78,41,0
526.94476,527.91254,73,58,0
527.91254,528.4259,78,38,0
526.94476,528.4259,66,45,0
527.91254,528.4259,74,38,0
527.91254,528.44824,71,48,0
528.44824,528.6826,71,51,0
528.6826,528.917,69,48,0
528.44824,528.917,78,35,0
528.44824,528.917,74,35,0
528.44824,528.917,66,56,0
528.917,529.41284,68,51,0
528.917,529.41284,62,37,0
529.41284,529.89935,66,48,0
529.41284,529.89935,62,37,0
530.1973,530.6648,76,40,0
530.1973,530.6648,74,40,0
530.6851,530.9087,76,35,0
530.6851,530.9087,74,35,0
530.929,531.3965,76,40,0
529.9534,531.3965,62,42,0
529.9534,531.3965,64,50,0
530.929,531.3965,74,40,0
531.4168,531.63336,64,50,0
531.4168,531.653,62,42,0
531.71924,531.78546,66,40,0
531.78546,531.8517,68,40,0
531.4168,531.8517,76,40,0
531.4168,531.8517,74,40,0
531.8517,532.27356,66,50,0
531.8517,532.27356,62,42,0
532.32043,532.81586,64,42,0
532.32043,532.81586,62,35,0
533.12305,533.6062,69,35,0
533.6272,533.85834,69,31,0
532.8709,533.87933,66,50,0
532.8709,533.87933,62,42,0
533.87933,534.41174,64,44,0
533.87933,534.41174,61,37,0
533.87933,534.4349,69,36,0
534.4349,534.91406,69,65,0
534.4349,534.9349,76,77,0
534.4349,534.9349,73,65,0
534.9349,535.3849,78,85,0
534.9349,535.3849,74,72,0
534.9349,535.41406,69,72,0
535.4349,535.9349,75,75,0
535.4349,535.9349,72,63,0
535.4349,535.9904,69,63,0
535.9904,536.2317,76,84,0
535.9904,536.2317,73,71,0
535.9904,536.2317,69,71,0
536.2536,536.7454,73,65,0
536.2536,536.7454,85,77,0
536.2536,536.7454,81,65,0
536.2536,536.7454,76,65,0
536.7454,536.9913,85,68,0
536.7454,536.9913,73,57,0
536.7454,536.9913,76,57,0
536.7454,536.9913,81,57,0
536.9913,537.4831,85,78,0
536.9913,537.4831,73,66,0
536.9913,537.4831,76,66,0
536.9913,537.4831,81,66,0
537.4831,537.76086,85,71,0
537.4831,537.76086,73,60,0
537.4831,537.76086,76,60,0
537.4831,537.76086,81,60,0
537.76086,537.9787,73,50,0
537.76086,537.9787,64,50,0
537.76086,537.9787,69,50,0
537.98816,538.40674,76,78,0
537.98816,538.40674,64,56,0
537.98816,538.40674,69,56,0
537.98816,538.40674,73,56,0
538.45325,538.90326,78,77,0
538.45325,538.90326,73,65,0
538.45325,538.90326,66,65,0
538.45325,538.90326,75,65,0
538.95325,539.1945,80,84,0
538.95325,539.1945,76,71,0
538.95325,539.1945,68,71,0
538.95325,539.21643,73,71,0
539.21643,539.70825,80,65,0
539.21643,539.70825,92,77,0
539.21643,539.70825,88,65,0
539.21643,539.70825,85,65,0
539.70825,539.95416,92,68,0
539.70825,539.95416,80,57,0
539.70825,539.95416,85,57,0
539.70825,539.95416,88,57,0
539.95416,540.4459,92,78,0
539.95416,540.4459,80,66,0
539.95416,540.4459,85,66,0
539.95416,540.4459,88,66,0
540.4459,540.7237,92,71,0
540.4459,540.7237,80,60,0
540.4459,540.7237,85,60,0
540.4459,540.7237,88,60,0
540.7237,540.9415,76,67,0
540.7237,540.9415,64,56,0
540.7237,540.9415,68,56,0
540.951,541.36957,75,78,0
540.951,541.36957,68,56,0
540.951,541.36957,66,56,0
541.4161,541.8661,68,75,0
541.4161,541.8661,66,62,0
541.9161,542.15735,73,75,0
541.9161,542.15735,68,63,0
541.9161,542.15735,64,63,0
542.17926,542.6711,73,58,0
542.17926,542.6711,85,69,0
542.17926,542.6711,80,58,0
542.17926,542.6711,76,58,0
542.6711,542.917,85,61,0
542.6711,542.917,73,51,0
542.6711,542.917,76,51,0
542.6711,542.917,80,51,0
542.917,543.40875,85,70,0
542.917,543.40875,73,59,0
542.917,543.40875,76,59,0
542.917,543.40875,80,59,0
543.40875,543.6865,85,63,0
543.40875,543.6865,73,53,0
543.40875,543.6865,76,53,0
543.40875,543.6865,80,53,0
543.6865,543.90436,73,46,0
543.6865,543.90436,61,39,0
543.6865,543.90436,64,39,0
543.9138,544.3324,71,54,0
543.9138,544.3324,64,39,0
543.9138,544.3324,62,39,0
544.37897,544.8289,64,53,0
544.37897,544.8289,62,45,0
544.87897,545.1202,69,58,0
544.87897,545.1202,61,49,0
545.1421,545.6339,69,45,0
545.1421,545.6339,81,53,0
545.1421,545.6339,78,53,0
545.1421,545.6339,73,45,0
545.6339,545.8798,81,47,0
545.6339,545.8798,69,39,0
545.6339,545.8798,73,39,0
545.6339,545.8798,78,47,0
545.8798,546.3716,81,54,0
545.8798,546.3716,69,45,0
545.8798,546.3716,73,45,0
545.8798,546.3716,78,54,0
546.3716,546.64935,81,49,0
546.3716,546.64935,69,41,0
546.3716,546.64935,73,41,0
546.3716,546.64935,78,49,0
546.64935,546.8672,70,67,0
546.64935,546.8672,61,56,0
546.64935,546.8672,68,56,0
546.87665,547.2953,71,80,0
546.87665,547.2953,68,56,0
546.87665,547.2953,62,56,0
547.3418,547.79175,73,83,0
547.3418,547.79175,68,70,0
547.3418,547.79175,64,70,0
547.3418,547.79175,70,70,0
547.8418,548.083,74,100,0
547.8418,548.083,71,85,0
547.8418,548.083,62,85,0
547.8418,548.1049,67,85,0
548.1049,548.5849,74,85,0
548.1049,548.5849,86,101,0
548.1049,548.5849,83,85,0
548.1049,548.5849,79,85,0
548.5849,548.82495,86,89,0
548.5849,548.82495,74,74,0
548.5849,548.82495,79,74,0
548.5849,548.82495,83,74,0
548.82495,549.30493,86,102,0
548.82495,549.30493,74,86,0
548.82495,549.30493,79,86,0
548.82495,549.30493,83,86,0
549.30493,550.0528,86,93,0
549.30493,550.0528,74,79,0
549.30493,550.0528,79,79,0
549.30493,550.0528,83,79,0
550.07416,550.55035,62,42,0
550.07416,550.55035,74,50,0
550.07416,550.55035,66,42,0
550.08606,550.56226,69,42,0
550.55035,550.56226,69,37,0
550.55035,550.78845,62,37,0
550.55035,550.78845,66,37,0
550.55035,550.78845,74,44,0
550.78845,551.26465,74,51,0
550.78845,551.26465,62,43,0
550.78845,551.26465,66,43,0
550.78845,551.26465,69,43,0
551.26465,551.976,74,46,0
551.26465,551.976,69,39,0
551.26465,551.976,62,39,0
551.26465,551.976,66,39,0
551.99634,552.4763,74,85,0
551.99634,552.4763,86,101,0
551.99634,552.4763,83,85,0
551.99634,552.4763,79,85,0
552.4763,552.7164,86,89,0
552.4763,552.7164,74,74,0
552.4763,552.7164,79,74,0
552.4763,552.7164,83,74,0
552.7164,553.19635,86,102,0
552.7164,553.19635,74,86,0
552.7164,553.19635,79,86,0
552.7164,553.19635,83,86,0
553.19635,553.9442,86,93,0
553.19635,553.9442,74,79,0
553.19635,553.9442,79,79,0
553.19635,553.9442,83,79,0
553.9656,554.4418,62,42,0
553.9656,554.4418,74,50,0
553.9656,554.4418,66,42,0
553.9775,554.4537,69,42,0
554.4418,554.4537,69,37,0
554.4418,554.6799,62,37,0
554.4418,554.6799,66,37,0
554.4418,554.6799,74,44,0
554.6799,555.15607,74,51,0
554.6799,555.15607,62,43,0
554.6799,555.15607,66,43,0
554.6799,555.15607,69,43,0
555.15607,555.86743,74,46,0
555.15607,555.86743,69,39,0
555.15607,555.86743,62,39,0
555.15607,555.86743,66,39,0
555.88776,556.34375,74,72,0
555.88776,556.34375,86,101,0
555.88776,556.34375,83,72,0
555.88776,556.34375,79,72,0
556.36774,556.59576,86,89,0
556.36774,556.59576,74,62,0
556.36774,556.59576,79,62,0
556.36774,556.59576,83,62,0
556.6078,556.80255,86,92,0
556.6078,556.80255,74,78,0
556.6078,556.80255,79,78,0
556.6078,556.80255,83,78,0
556.9974,557.1781,83,88,0
556.9974,557.1781,79,74,0
556.9974,557.1781,74,74,0
557.3588,557.5303,79,85,0
557.3588,557.5303,74,72,0
557.3588,557.5303,71,72,0
557.70166,557.87024,74,82,0
557.70166,557.87024,71,69,0
557.70166,557.87024,67,69,0
558.03876,558.2009,71,79,0
558.03876,558.2009,67,67,0
558.03876,558.2009,62,67,0
558.3631,558.63336,67,76,0
558.3631,558.63336,62,64,0
558.3631,558.63336,59,64,0
558.9036,561.04645,65,95,0
558.9036,561.04645,62,80,0
558.9036,561.04645,55,80,0
561.04645,563.18933,65,89,0
561.04645,563.18933,62,75,0
561.04645,563.18933,55,75,0
563.18933,564.4725,64,47,0
564.4807,564.5801,64,42,0
564.5801,564.6794,66,42,0
564.6794,564.77875,68,42,0
563.18933,564.77875,62,47,0
563.18933,564.77875,56,39,0
564.77875,565.3483,66,49,0
565.3483,565.5738,64,48,0
565.59424,566.83624,64,47,0
566.84424,566.9404,64,42,0
566.9404,567.03656,66,42,0
567.03656,567.1327,68,42,0
565.59424,567.1327,62,47,0
565.59424,567.1327,56,39,0
567.1327,567.6952,66,49,0
567.6952,567.91345,64,42,0
567.9333,568.1623,64,48,0
568.1623,568.4103,69,42,0
567.9333,568.4103,61,40,0
568.4103,568.6393,68,48,0
568.6393,568.8852,69,43,0
568.4103,568.8852,63,40,0
568.8852,569.8082,73,48,0
568.8852,569.8082,69,40,0
568.8852,569.8082,64,40,0
569.8082,570.50055,73,45,0
570.50055,570.789,71,41,0
569.8082,570.789,68,38,0
569.8082,570.789,64,38,0
569.8082,570.789,62,38,0
570.789,571.05927,69,37,0
570.789,571.05927,64,31,0
570.789,571.05927,61,31,0
571.05927,571.4545,69,41,0
571.05927,571.4545,57,34,0
571.05927,571.4545,61,34,0
571.05927,571.4545,64,34,0
571.5795,571.767,69,32,0
571.5795,571.767,57,27,0
571.5795,571.767,61,27,0
571.5795,571.767,64,27,0
571.8295,572.2045,69,35,0
571.8295,572.2045,57,29,0
571.8295,572.2045,61,29,0
571.8295,572.2045,64,29,0
572.3295,572.7209,69,32,0
572.3295,572.7209,57,27,0
572.3295,572.7209,61,27,0
572.3295,572.7209,64,27,0
574.16504,574.5603,69,41,0
574.16504,574.5603,57,34,0
574.16504,574.5603,61,34,0
574.16504,574.5603,67,34,0
574.6853,574.8728,69,32,0
574.6853,574.8728,57,27,0
574.6853,574.8728,61,27,0
574.6853,574.8728,67,27,0
574.9353,575.3103,69,35,0
574.9353,575.3103,57,29,0
574.9353,575.3103,61,29,0
574.9353,575.3103,67,29,0
575.4353,575.8266,69,32,0
575.4353,575.8266,57,27,0
575.4353,575.8266,61,27,0
575.4353,575.8266,67,27,0
577.2708,577.6661,69,41,0
577.2708,577.6661,57,34,0
577.2708,577.6661,62,34,0
577.2708,577.6661,66,34,0
577.7911,577.9786,69,32,0
577.7911,577.9786,57,27,0
577.7911,577.9786,62,27,0
577.7911,577.9786,66,27,0
578.0411,578.4161,69,35,0
578.0411,578.4161,57,29,0
578.0411,578.4161,62,29,0
578.0411,578.4161,66,29,0
578.5411,578.9324,69,32,0
578.5411,578.9324,57,27,0
578.5411,578.9324,62,27,0
578.5411,578.9324,66,27,0
580.3765,580.77185,68,41,0
580.3765,580.77185,57,34,0
580.3765,580.77185,62,34,0
580.3765,580.77185,65,34,0
580.89685,581.08435,68,32,0
580.89685,581.08435,57,27,0
580.89685,581.08435,62,27,0
580.89685,581.08435,65,27,0
581.14685,581.52185,68,35,0
581.14685,581.52185,57,29,0
581.14685,581.52185,62,29,0
581.14685,581.52185,65,29,0
581.64685,582.03815,68,32,0
581.64685,582.03815,57,27,0
581.64685,582.03815,62,27,0
581.64685,582.03815,65,27,0
583.4823,583.87756,69,36,0
583.4823,583.87756,57,30,0
583.4823,583.87756,61,30,0
583.4823,583.87756,64,30,0
584.00256,584.19006,69,27,0
584.00256,584.19006,57,23,0
584.00256,584.19006,61,23,0
584.00256,584.19006,64,23,0
584.25256,584.62756,69,30,0
584.25256,584.62756,57,25,0
584.25256,584.62756,61,25,0
584.25256,584.62756,64,25,0
584.75256,585.14386,69,27,0
584.75256,585.14386,57,23,0
584.75256,585.14386,61,23,0
584.75256,585.14386,64,23,0
586.5881,586.98334,67,34,0
586.5881,586.98334,58,23,0
586.5881,586.98334,61,23,0
586.5881,586.98334,64,28,0
587.10834,587.29584,67,26,0
587.10834,587.29584,58,18,0
587.10834,587.29584,61,18,0
587.10834,587.29584,64,22,0
587.35834,587.73334,67,29,0
587.35834,587.73334,58,20,0
587.35834,587.73334,61,20,0
587.35834,587.73334,64,24,0
587.85834,588.24963,67,26,0
587.85834,588.24963,58,18,0
587.85834,588.24963,61,18,0
587.85834,588.24963,64,22,0
589.69385,590.0891,66,32,0
589.69385,590.0891,62,27,0
589.69385,590.0891,57,22,0
590.2141,590.4016,66,24,0
590.2141,590.4016,62,21,0
590.2141,590.4016,57,17,0
590.4641,590.8391,66,27,0
590.4641,590.8391,62,23,0
590.4641,590.8391,57,19,0
590.9641,591.3554,66,24,0
590.9641,591.3554,62,21,0
590.9641,591.3554,57,17,0
592.8514,593.28064,65,30,0
592.8514,593.28064,56,25,0
592.8514,593.28064,59,25,0
592.8514,593.28064,62,25,0
593.4158,593.61847,65,23,0
593.4158,593.61847,56,20,0
593.4158,593.61847,59,20,0
593.4158,593.61847,62,20,0
593.68604,594.09143,65,26,0
593.68604,594.09143,56,21,0
593.68604,594.09143,59,21,0
593.68604,594.09143,62,21,0
594.22656,594.65515,65,23,0
594.22656,594.65515,56,19,0
594.22656,594.65515,59,19,0
594.22656,594.65515,62,19,0
596.4002,596.8529,64,27,0
596.4002,596.8529,52,22,0
596.4002,596.8529,57,22,0
596.4002,596.8529,61,22,0
596.9931,597.20337,64,19,0
596.9931,597.20337,52,17,0
596.9931,597.20337,57,17,0
596.9931,597.20337,61,17,0
597.27344,597.69403,64,24,0
597.27344,597.69403,52,20,0
597.27344,597.69403,57,20,0
597.27344,597.69403,61,20,0
597.8342,598.28876,64,21,0
597.8342,598.28876,52,18,0
597.8342,598.28876,57,18,0
597.8342,598.28876,61,18,0
598.44025,598.92413,61,23,0
598.44025,598.92413,57,19,0
598.44025,598.92413,52,19,0
599.08545,599.7472,61,20,0
599.08545,599.7472,57,17,0
599.08545,599.7472,52,17,0
599.9678,605.2619,57,19,0
599.9678,605.2619,52,16,0
599.9678,605.2619,49,16,0
1.2857145,1.714286,52,34,0
1.2857145,1.714286,45,28,0
1.714286,2.1000004,54,40,0
1.714286,2.1000004,45,34,0
2.1428576,2.6083748,51,29,0
2.1428576,2.6083748,45,24,0
2.660099,3.9370768,52,37,0
2.660099,3.9370768,45,31,0
3.9550624,4.386717,57,41,0
4.386717,4.8033834,59,43,0
3.9550624,4.8033834,52,34,0
3.9550624,4.8033834,45,34,0
4.8033834,5.298796,57,45,0
4.8033834,5.298796,53,38,0
4.8033834,5.298796,45,38,0
5.353842,6.269873,58,42,0
6.269873,6.7616763,59,37,0
5.353842,6.7616763,54,35,0
5.353842,6.7616763,50,29,0
6.7616763,7.193331,54,38,0
6.7616763,7.193331,50,32,0
7.193331,7.644459,56,35,0
7.193331,7.644459,52,29,0
7.644459,8.076459,57,34,0
7.644459,8.076459,54,28,0
8.124459,9.383325,52,37,0
8.124459,9.383325,44,31,0
9.401055,9.822461,52,40,0
9.401055,9.822461,44,34,0
9.822461,10.208175,54,37,0
9.822461,10.208175,44,31,0
10.251032,10.704814,52,35,0
10.251032,10.704814,44,29,0
10.755234,11.65749,54,40,0
11.65749,12.172723,52,36,0
10.755234,12.195125,45,34,0
12.195125,12.623695,49,42,0
12.195125,12.623695,45,35,0
12.623695,13.00941,54,50,0
12.623695,13.00941,45,42,0
13.052267,13.517785,51,36,0
13.052267,13.517785,45,29,0
13.569509,14.846487,52,46,0
13.569509,14.846487,45,38,0
14.864472,15.296126,61,57,0
15.296126,15.712793,57,61,0
15.712793,16.208206,52,64,0
15.712793,16.208206,45,54,0
16.263252,17.671085,56,70,0
16.263252,17.671085,52,59,0
16.263252,17.671085,44,59,0
17.671085,18.084755,56,32,0
17.671085,18.102741,61,38,0
18.102741,18.535072,56,29,0
18.102741,18.55387,60,35,0
18.55387,18.985868,63,34,0
18.55387,18.985868,56,28,0
19.033869,20.292734,61,37,0
19.033869,20.292734,49,31,0
19.033869,20.310465,56,31,0
20.310465,20.739569,52,34,0
20.310465,20.758226,57,40,0
20.758226,21.183422,56,37,0
20.758226,21.183422,52,31,0
21.230667,21.767447,59,35,0
21.230667,21.767447,52,29,0
21.827087,22.779469,57,40,0
21.827087,22.779469,45,34,0
21.827087,22.779469,52,34,0
23.248219,23.67679,52,34,0
23.248219,23.67679,45,28,0
23.67679,24.062506,54,40,0
23.67679,24.062506,45,34,0
24.105362,24.570879,51,29,0
24.105362,24.570879,45,24,0
24.622604,25.899582,52,37,0
24.622604,25.899582,45,31,0
25.917566,26.349222,57,41,0
26.349222,26.765888,59,43,0
25.917566,26.765888,52,34,0
25.917566,26.765888,45,34,0
26.765888,27.243765,57,45,0
26.765888,27.243765,53,38,0
26.765888,27.243765,45,38,0
27.296862,28.212893,58,42,0
28.212893,28.696764,59,37,0
27.296862,28.696764,54,35,0
27.296862,28.696764,50,29,0
28.696764,29.128418,54,38,0
28.696764,29.128418,50,32,0
29.128418,29.579546,56,35,0
29.128418,29.579546,52,29,0
29.579546,30.011547,57,34,0
29.579546,30.011547,54,28,0
30.059546,31.31841,52,37,0
30.059546,31.31841,44,31,0
31.336142,31.757547,52,40,0
31.336142,31.757547,44,34,0
31.757547,32.14326,54,37,0
31.757547,32.14326,44,31,0
32.18612,32.6399,52,35,0
32.18612,32.6399,44,29,0
32.690323,33.59258,54,40,0
33.59258,34.1201,52,36,0
32.690323,34.143036,45,34,0
34.143036,34.571606,49,42,0
34.143036,34.571606,45,35,0
34.571606,34.94923,54,50,0
34.571606,34.94923,45,42,0
34.991188,35.456703,51,36,0
34.991188,35.456703,45,29,0
35.50843,36.785408,52,46,0
35.50843,36.785408,45,38,0
36.803394,37.235046,61,57,0
37.235046,37.651714,57,61,0
37.651714,38.147125,52,64,0
37.651714,38.147125,45,54,0
38.20217,39.61001,56,70,0
38.20217,39.61001,52,59,0
38.20217,39.61001,44,59,0
39.61001,40.023674,56,32,0
39.61001,40.04166,61,38,0
40.04166,40.464455,60,35,0
40.04166,40.464455,56,29,0
40.482838,40.91832,63,34,0
40.482838,40.91832,56,28,0
40.96671,42.225574,61,37,0
40.96671,42.225574,49,31,0
40.96671,42.243305,56,31,0
42.243305,42.67241,52,34,0
42.243305,42.691067,57,40,0
42.691067,43.11626,56,37,0
42.691067,43.11626,52,31,0
43.163506,43.700287,59,35,0
43.163506,43.700287,52,29,0
43.75993,45.1885,57,40,0
43.75993,45.1885,54,34,0
45.1885,45.611294,55,43,0
45.1885,45.611294,52,36,0
45.629677,46.070854,55,46,0
45.629677,46.070854,50,39,0
46.070854,46.61085,55,48,0
46.070854,46.61085,49,40,0
46.670853,47.965816,55,51,0
46.670853,47.965816,47,43,0
47.965816,48.379486,55,38,0
47.965816,48.379486,50,32,0
48.397472,48.8298,53,28,0
48.397472,48.8486,55,34,0
48.8486,49.3486,55,34,0
49.404156,50.66302,55,33,0
49.404156,50.66302,48,27,0
50.68075,51.094418,43,27,0
50.68075,51.112404,55,32,0
51.112404,51.532112,48,23,0
51.112404,51.55036,55,28,0
51.55036,51.956375,55,28,0
51.55036,52.001488,50,23,0
52.001488,52.39156,55,31,0
52.001488,52.39156,48,26,0
52.42702,52.84069,55,27,0
52.42702,52.858673,67,32,0
52.858673,53.281467,60,23,0
52.858673,53.29985,67,28,0
53.29985,53.699852,67,28,0
53.29985,53.744297,62,23,0
53.744297,54.12624,67,31,0
53.744297,54.12624,60,26,0
54.16096,54.60327,43,27,0
54.16096,54.6225,55,32,0
54.6225,55.08998,48,23,0
54.6225,55.110306,55,28,0
55.110306,55.596794,55,28,0
55.110306,55.65085,50,23,0
55.65085,56.061295,55,31,0
55.65085,56.061295,48,26,0
56.098606,56.546368,56,35,0
56.098606,56.546368,52,29,0
56.098606,56.546368,47,29,0
56.546368,56.987545,56,38,0
56.546368,56.987545,52,31,0
56.546368,56.987545,47,31,0
56.987545,57.428722,56,44,0
56.987545,57.428722,52,37,0
56.987545,57.428722,47,37,0
57.428722,57.8699,57,51,0
57.428722,57.8699,52,42,0
57.428722,57.8699,49,42,0
57.8699,58.361702,59,56,0
57.8699,58.361702,57,47,0
57.8699,58.361702,54,47,0
58.361702,59.306583,61,59,0
58.361702,59.306583,57,49,0
58.361702,59.306583,52,49,0
59.306583,60.263878,52,50,0
59.306583,60.263878,40,42,0
60.263878,61.54959,52,41,0
60.263878,61.54959,45,34,0
61.54959,61.96326,52,30,0
61.981247,62.432373,49,34,0
62.432373,62.78654,45,34,0
62.807373,62.932373,45,27,0
62.932373,64.19124,52,33,0
64.20897,64.62264,52,33,0
64.640625,65.09175,49,37,0
65.09175,65.4489,46,37,0
65.4699,65.595955,46,29,0
65.595955,66.85482,52,36,0
66.87255,67.28622,52,36,0
67.30421,67.75533,50,43,0
67.75533,68.092636,47,46,0
68.11247,68.23152,47,37,0
68.23152,68.65013,54,54,0
68.69664,69.08235,54,54,0
68.69664,69.08235,52,45,0
69.12521,69.510925,54,52,0
69.12521,69.510925,50,44,0
69.55378,69.9395,54,49,0
69.55378,69.9395,46,41,0
69.98235,70.382355,54,45,0
69.98235,70.382355,47,38,0
70.426796,70.93147,50,53,0
70.426796,70.93147,41,45,0
70.98755,72.416115,52,46,0
70.98755,72.416115,40,39,0
72.416115,72.82979,52,30,0
72.84777,73.2989,47,34,0
73.2989,73.65307,44,34,0
73.6739,73.7989,44,27,0
73.7989,75.05776,52,33,0
75.07549,75.48917,52,33,0
75.50715,75.958275,48,37,0
75.958275,76.31542,45,37,0
76.33643,76.46248,45,29,0
76.46248,77.721344,52,36,0
77.739075,78.15275,52,36,0
78.17073,78.62186,49,43,0
78.62186,78.95916,46,46,0
78.979004,79.098045,46,37,0
79.098045,79.516655,53,54,0
79.56316,79.963165,53,54,0
79.56316,79.963165,51,45,0
80.00761,80.39059,53,52,0
80.00761,80.39059,50,44,0
80.43314,80.816124,53,49,0
80.43314,80.816124,45,41,0
80.85867,81.258675,53,45,0
80.85867,81.258675,46,38,0
81.303116,81.82842,53,53,0
81.303116,81.82842,48,45,0
81.9025,82.85488,48,39,0
82.85488,83.29138,46,39,0
81.9025,83.33107,53,46,0
83.33107,83.73821,53,59,0
83.33107,83.73821,41,50,0
83.75996,84.17907,55,64,0
83.75996,84.17907,53,54,0
83.75996,84.17907,43,54,0
84.20113,84.67023,57,69,0
84.20113,84.67023,53,58,0
84.20113,84.67023,45,58,0
84.72428,86.01624,58,74,0
84.72428,86.01624,46,63,0
84.72428,86.03436,53,63,0
86.03436,86.50311,50,44,0
86.50311,86.97555,53,46,0
86.03436,86.97555,62,53,0
86.03436,86.97555,58,44,0
86.97555,87.44107,63,45,0
86.97555,87.49279,60,38,0
86.97555,87.49279,53,38,0
87.49279,88.751656,62,42,0
87.49279,88.751656,58,35,0
87.49279,88.76939,55,35,0
88.76939,89.229385,45,32,0
89.24939,89.74508,46,28,0
88.76939,89.74508,53,38,0
89.76663,90.323326,53,31,0
89.76663,90.385185,48,25,0
90.385185,91.64405,53,33,0
90.385185,91.64405,46,27,0
91.66178,92.07545,41,27,0
91.66178,92.09344,53,32,0
92.09344,92.513145,46,23,0
92.09344,92.531395,53,28,0
92.531395,92.93741,53,28,0
92.531395,92.98252,48,23,0
92.98252,93.37259,53,31,0
92.98252,93.37259,46,26,0
93.40805,93.821724,53,27,0
93.40805,93.83971,65,32,0
93.83971,94.2625,58,23,0
93.83971,94.28088,65,28,0
94.28088,94.680885,65,28,0
94.28088,94.72533,60,23,0
94.72533,95.1154,65,31,0
94.72533,95.1154,58,26,0
95.150856,95.536575,41,41,0
95.57943,95.97943,46,45,0
95.150856,96.005356,53,49,0
96.02387,96.43609,48,45,0
96.48189,96.93824,46,46,0
96.02387,96.958084,53,53,0
96.958084,97.36107,46,47,0
97.405846,97.818054,45,50,0
97.86386,98.31014,44,53,0
98.359726,98.85559,45,51,0
98.85559,99.3474,50,56,0
98.85559,99.3474,38,47,0
99.3474,100.29228,49,59,0
99.3474,100.29228,40,49,0
100.29228,101.29509,50,50,0
100.29228,101.29509,40,42,0
101.29509,102.68957,45,41,0
101.29509,102.68957,33,34,0
102.68957,103.109146,57,33,0
102.68957,103.109146,64,39,0
103.109146,103.494865,57,34,0
103.109146,103.494865,66,41,0
103.53772,103.976746,57,32,0
103.53772,103.976746,63,38,0
104.02553,105.31124,57,34,0
104.02553,105.31124,64,41,0
105.31124,105.7429,69,49,0
105.7429,106.15956,71,51,0
105.31124,106.15956,64,40,0
105.31124,106.15956,57,40,0
106.15956,106.654976,69,54,0
106.15956,106.654976,65,45,0
106.15956,106.654976,57,45,0
106.71002,107.62605,70,50,0
107.62605,108.11785,71,44,0
106.71002,108.11785,66,42,0
106.71002,108.11785,62,34,0
108.11785,108.54951,54,38,0
108.11785,108.54951,50,32,0
108.54951,109.00063,56,34,0
108.54951,109.00063,52,28,0
109.00063,109.43263,57,34,0
109.00063,109.43263,54,28,0
109.48064,110.7395,52,37,0
109.48064,110.7395,44,31,0
110.75723,111.178635,64,46,0
110.75723,111.178635,56,39,0
111.178635,111.564354,66,42,0
111.178635,111.564354,56,35,0
111.60721,112.06099,64,40,0
111.60721,112.06099,56,33,0
112.11141,113.013664,66,46,0
113.013664,113.492836,64,41,0
112.11141,113.513664,57,39,0
113.513664,113.96821,49,57,0
113.513664,113.96821,47,48,0
113.96821,114.36527,54,61,0
113.96821,114.36527,45,51,0
113.96821,114.39101,49,51,0
114.409386,114.87491,53,53,0
114.409386,114.87491,44,45,0
114.409386,114.92663,49,45,0
114.92663,116.51145,54,66,0
114.92663,116.51145,45,56,0
114.92663,116.533775,42,56,0
114.92663,116.533775,50,56,0
116.533775,116.96856,54,44,0
116.533775,117.36786,57,44,0
116.96856,117.38522,52,49,0
117.38522,117.88064,57,45,0
117.935684,120.401436,61,57,0
117.935684,120.401436,58,48,0
120.401436,120.81239,59,33,0
120.401436,120.81239,62,39,0
117.935684,120.81239,50,48,0
122.86719,125.724556,57,29,0
122.86719,125.724556,50,29,0
125.724556,126.150085,55,32,0
125.724556,126.150085,43,29,0
127.00115,127.4328,47,57,0
127.4328,127.84947,49,61,0
127.4328,127.84947,45,54,0
127.84947,128.34488,50,62,0
127.84947,128.34488,43,52,0
128.39993,129.80777,50,70,0
128.39993,129.80777,42,59,0
129.80777,130.22144,54,29,0
130.23941,130.67175,52,25,0
129.80777,130.67175,57,41,0
130.23941,130.69055,56,37,0
130.69055,131.12254,57,47,0
130.69055,131.12254,50,38,0
131.17055,131.62167,57,50,0
131.17055,131.62167,49,42,0
131.62167,132.13014,57,40,0
131.62167,132.13014,59,48,0
131.62167,132.13014,54,40,0
132.13014,133.07014,52,46,0
132.13014,133.09015,61,54,0
132.13014,133.09015,57,46,0
133.09015,134.11732,52,47,0
133.09015,134.14365,40,39,0
134.14365,135.57222,52,40,0
134.14365,135.57222,45,28,0
136.50078,136.73334,57,66,0
136.73334,136.9659,61,61,0
136.9659,137.21384,62,66,0
137.21384,137.70372,50,77,0
137.70372,137.93626,38,59,0
137.93626,138.16882,50,65,0
138.40138,138.63394,57,73,0
138.63394,138.8665,61,61,0
138.8665,139.09906,59,65,0
139.31183,139.56393,54,71,0
139.56393,139.7947,57,63,0
139.7947,140.0468,55,65,0
140.0468,140.52757,43,74,0
140.52757,140.75833,31,65,0
140.75833,140.9891,43,65,0
140.9891,141.21988,47,58,0
141.21988,141.45798,43,61,0
141.45798,141.69606,42,64,0
141.69606,141.93416,40,68,0
142.13687,142.36943,59,66,0
142.36943,142.60197,63,61,0
142.60197,142.86514,64,66,0
142.86514,143.35501,52,77,0
143.35501,143.58757,40,59,0
143.58757,143.82013,52,65,0
144.05269,144.28525,59,73,0
144.28525,144.5178,62,62,0
144.5178,144.74168,61,65,0
144.95445,145.17343,56,71,0
145.17343,145.4042,59,63,0
145.4042,145.65843,57,65,0
145.65843,146.1392,45,74,0
146.1392,146.36998,33,65,0
146.8333,147.06586,57,73,0
146.36998,147.06586,45,70,0
147.06586,147.29842,59,65,0
147.06586,147.29842,47,58,0
147.29842,147.52231,61,65,0
147.29842,147.52231,49,55,0
147.06586,147.52231,57,58,0
147.73506,147.95404,62,71,0
147.52231,147.95404,50,63,0
147.95404,148.18481,64,63,0
147.95404,148.18481,52,61,0
147.95404,148.18481,62,61,0
148.18481,148.43692,66,65,0
148.18481,148.43692,62,55,0
148.18481,148.43692,54,55,0
148.68692,149.36674,66,74,0
148.68692,149.36674,62,62,0
148.68692,149.36674,54,62,0
149.37233,149.59622,54,60,0
149.37233,149.59622,66,71,0
149.59622,149.81204,57,62,0
149.59622,149.81204,69,74,0
149.81204,150.02786,54,59,0
149.81204,150.02786,66,70,0
150.02786,150.2437,62,74,0
150.02786,150.2437,50,62,0
150.2437,150.45952,61,68,0
150.2437,150.45952,49,58,0
150.45952,150.68854,59,71,0
150.45952,150.68854,47,60,0
150.68854,150.91754,57,68,0
150.68854,150.91754,45,58,0
150.91754,151.17616,55,65,0
150.91754,151.17616,50,55,0
150.91754,151.17616,43,55,0
151.42616,152.10599,55,74,0
151.42616,152.10599,50,62,0
151.42616,152.10599,43,62,0
152.11157,152.33546,43,60,0
152.11157,152.33546,50,71,0
152.33546,152.55128,55,82,0
152.55128,152.76712,42,59,0
152.55128,152.76712,54,70,0
152.55128,152.76712,50,59,0
152.76712,152.97215,55,74,0
152.76712,152.97215,50,62,0
152.76712,152.97215,43,62,0
152.98294,153.19878,50,71,0
153.19878,153.42778,55,71,0
152.98294,153.42778,43,60,0
153.42778,153.65678,57,71,0
153.42778,153.65678,45,65,0
153.42778,153.65678,50,67,0
153.65678,153.9154,55,65,0
153.65678,153.9154,50,55,0
153.65678,153.9154,43,55,0
154.1654,154.85083,55,74,0
154.1654,154.85083,50,62,0
154.1654,154.85083,43,62,0
154.85083,155.0747,47,60,0
154.85083,155.0747,59,71,0
155.0747,155.29053,50,62,0
155.0747,155.29053,62,74,0
155.29053,155.50636,47,59,0
155.29053,155.50636,59,70,0
155.50636,155.72218,55,74,0
155.50636,155.72218,43,62,0
155.72218,155.93802,59,68,0
155.72218,155.93802,47,58,0
155.93802,156.16702,55,71,0
155.93802,156.16702,43,60,0
156.16702,156.39603,54,68,0
156.16702,156.39603,42,58,0
156.39603,156.6569,52,65,0
156.39603,156.6569,47,55,0
156.39603,156.6569,40,55,0
156.9069,157.58672,52,74,0
156.9069,157.58672,47,62,0
156.9069,157.58672,40,62,0
157.59232,158.02838,52,65,0
157.59232,158.02838,47,55,0
157.59232,158.02838,40,55,0
158.04921,158.27998,52,74,0
158.04921,158.27998,47,62,0
158.04921,158.27998,40,62,0
158.27998,158.54314,57,65,0
158.27998,158.54314,52,55,0
158.27998,158.54314,45,55,0
158.79314,159.48544,57,74,0
158.79314,159.48544,52,62,0
158.79314,159.48544,45,62,0
159.48544,159.92151,50,65,0
159.48544,159.92151,45,55,0
159.48544,159.92151,38,55,0
159.94235,160.17311,50,74,0
159.94235,160.17311,45,62,0
159.94235,160.17311,38,62,0
160.17311,160.44098,57,65,0
160.17311,160.44098,50,55,0
160.70647,162.33344,57,74,0
160.70647,162.33344,50,62,0
163.38579,163.63579,43,32,0
163.63579,163.87465,50,35,0
164.1135,164.55717,50,36,0
163.87465,164.55717,43,32,0
164.57646,165.93282,43,31,0
164.57646,165.93282,50,37,0
166.17166,166.40677,43,32,0
166.40677,166.64006,50,35,0
166.87334,167.31702,50,36,0
166.64006,167.31702,43,32,0
167.3363,168.00494,43,31,0
168.00494,168.22783,42,32,0
168.22783,168.45753,40,35,0
168.45753,168.70964,38,39,0
167.3363,168.70964,50,38,0
168.96826,169.21826,36,36,0
169.21826,169.45712,43,40,0
169.69597,170.13965,43,41,0
169.45712,170.13965,36,36,0
170.15894,171.51527,36,35,0
170.15894,171.51527,43,42,0
171.7739,172.0239,36,36,0
172.0239,172.26276,43,40,0
172.5016,172.94528,43,41,0
172.26276,172.94528,36,36,0
172.96457,173.8561,43,42,0
173.8561,174.32092,45,39,0
172.96457,174.32092,36,35,0
174.57954,174.82954,36,36,0
174.82954,175.06839,45,40,0
175.30725,175.75092,45,41,0
175.06839,175.75092,36,36,0
175.77022,176.66174,36,35,0
175.77022,176.66174,45,42,0
176.66174,177.12656,57,42,0
176.66174,177.12656,48,35,0
177.38518,177.63518,47,36,0
177.63518,177.87404,57,40,0
178.11288,178.55656,57,41,0
177.87404,178.55656,47,36,0
178.57585,179.46738,47,35,0
178.57585,179.46738,57,42,0
179.46738,179.9322,57,42,0
179.46738,179.9322,48,35,0
180.19083,180.44083,47,36,0
180.44083,180.67967,57,40,0
180.91853,181.3622,57,41,0
180.67967,181.3622,47,36,0
181.38148,182.27303,47,35,0
181.38148,182.27303,57,42,0
182.27303,182.75697,57,42,0
182.27303,182.75697,48,35,0
183.0156,183.2656,47,36,0
183.2656,183.51028,57,39,0
183.75499,184.20917,57,39,0
183.51028,184.20917,47,35,0
184.22891,185.12862,47,33,0
184.22891,185.12862,57,39,0
185.14775,185.65366,57,38,0
185.14775,185.65366,47,32,0
185.91774,186.17503,47,32,0
186.17503,186.41972,57,35,0
186.66443,187.12964,57,35,0
186.41972,187.12964,47,31,0
187.14986,188.07799,47,29,0
187.14986,188.07799,57,35,0
188.09773,188.61739,57,34,0
188.09773,188.61739,47,28,0
188.876,189.126,43,32,0
189.126,189.36485,50,35,0
189.60371,190.04738,50,36,0
189.36485,190.04738,43,32,0
190.06668,191.42302,43,31,0
190.06668,191.42302,50,37,0
191.66188,191.89699,43,32,0
191.89699,192.13026,50,35,0
192.36356,192.80722,50,36,0
192.13026,192.80722,43,32,0
192.8265,193.49516,43,31,0
193.49516,193.71805,42,32,0
193.71805,193.94775,40,35,0
193.94775,194.23077,38,39,0
192.8265,194.23077,50,38,0
194.4894,194.7394,36,36,0
194.7394,194.97824,43,40,0
195.2171,195.66077,43,41,0
194.97824,195.66077,36,36,0
195.68005,197.0364,36,35,0
195.68005,197.0364,43,42,0
197.29503,197.54503,36,36,0
197.54503,197.78389,43,40,0
198.02274,198.46642,43,41,0
197.78389,198.46642,36,36,0
198.4857,198.93147,36,45,0
198.4857,198.93147,43,45,0
198.93147,199.37723,35,44,0
199.37723,199.84206,40,42,0
198.93147,199.84206,44,48,0
199.84206,200.07912,45,46,0
199.84206,200.10066,33,41,0
200.10066,200.35066,45,36,0
200.35066,200.58952,55,46,0
200.82838,201.27205,55,45,0
200.58952,201.27205,45,41,0
201.29134,202.18288,45,38,0
201.29134,202.18288,55,45,0
202.18288,202.64769,55,43,0
202.18288,202.64769,46,36,0
202.90631,203.15631,45,36,0
203.15631,203.39516,55,40,0
203.63402,204.07768,55,41,0
203.39516,204.07768,45,36,0
204.09698,204.98851,45,35,0
204.09698,204.98851,55,42,0
204.98851,205.47462,55,42,0
204.98851,205.47462,46,35,0
205.47462,205.72462,45,29,0
205.47462,205.73325,55,37,0
205.73325,205.98325,45,34,0
205.98325,206.22795,55,37,0
206.47264,206.92683,55,37,0
206.22795,206.92683,45,33,0
206.94658,207.84627,45,31,0
206.94658,207.84627,55,37,0
207.86542,208.37132,55,36,0
207.86542,208.37132,45,30,0
208.6354,208.89268,57,38,0
208.89268,209.13739,67,43,0
209.3821,209.8473,67,47,0
209.13739,209.8473,57,38,0
209.86752,210.2961,67,39,0
209.86752,210.2961,57,30,0
210.7961,211.02866,57,66,0
211.02866,211.26122,61,61,0
211.26122,211.50914,62,66,0
211.50914,211.99902,50,77,0
211.99902,212.23158,38,59,0
212.23158,212.46414,50,65,0
212.6967,212.92926,57,73,0
212.92926,213.16182,61,65,0
213.16182,213.39438,59,65,0
213.59174,213.84384,54,71,0
213.84384,214.07462,57,65,0
214.07462,214.3267,55,65,0
214.3267,214.80748,43,74,0
214.80748,215.03825,31,65,0
215.03825,215.26903,43,65,0
215.26903,215.49979,47,58,0
215.49979,215.73788,43,61,0
215.73788,215.97598,42,64,0
215.97598,216.21408,40,68,0
216.42836,216.66092,59,66,0
216.66092,216.89348,63,61,0
216.89348,217.15663,64,66,0
217.15663,217.64651,52,77,0
217.64651,217.87907,40,59,0
217.87907,218.11163,52,65,0
218.3442,218.57675,59,70,0
218.57675,218.80931,62,63,0
218.80931,219.03319,60,65,0
219.24596,219.46494,56,71,0
219.46494,219.6957,59,63,0
219.6957,219.94994,57,65,0
219.94994,220.43071,45,74,0
220.43071,220.66147,33,65,0
221.1248,221.35736,57,73,0
220.66147,221.35736,45,65,0
221.35736,221.58992,59,63,0
221.35736,221.58992,47,56,0
221.58992,221.8138,60,65,0
221.58992,221.8138,48,55,0
221.35736,221.8138,57,56,0
222.02657,222.24554,62,71,0
221.8138,222.24554,50,63,0
221.8138,222.24554,57,58,0
222.24554,222.47632,64,65,0
222.24554,222.47632,52,63,0
222.24554,222.47632,60,63,0
222.47632,222.72841,65,65,0
222.47632,222.72841,60,55,0
222.47632,222.72841,53,55,0
222.97841,223.65637,65,74,0
222.97841,223.65637,60,62,0
222.97841,223.65637,53,62,0
223.66383,223.88771,45,60,0
223.66383,223.88771,57,71,0
223.88771,224.10355,48,62,0
223.88771,224.10355,60,74,0
224.10355,224.31937,45,59,0
224.10355,224.31937,57,70,0
224.31937,224.53519,53,74,0
224.31937,224.53519,41,62,0
224.53519,224.75102,52,68,0
224.53519,224.75102,40,58,0
224.75102,224.98003,50,71,0
224.75102,224.98003,38,60,0
224.98003,225.20903,48,68,0
224.98003,225.20903,36,58,0
225.20903,225.46765,46,65,0
225.20903,225.46765,34,55,0
225.71765,226.39561,58,74,0
225.71765,226.39561,53,62,0
225.71765,226.39561,46,62,0
226.40308,226.62695,46,60,0
226.40308,226.62695,53,71,0
226.62695,226.84279,58,82,0
226.84279,227.05861,45,59,0
226.84279,227.05861,57,70,0
226.84279,227.05861,53,59,0
227.05861,227.26364,58,74,0
227.05861,227.26364,53,62,0
227.05861,227.26364,46,62,0
227.27444,227.49026,53,71,0
227.49026,227.71927,58,71,0
227.27444,227.71927,46,60,0
227.71927,227.94829,60,71,0
227.71927,227.94829,48,60,0
227.71927,227.94829,53,60,0
227.94829,228.20691,58,65,0
227.94829,228.20691,53,55,0
227.94829,228.20691,46,55,0
228.45691,229.14232,58,74,0
228.45691,229.14232,53,62,0
228.45691,229.14232,46,62,0
229.14232,229.3662,50,60,0
229.14232,229.3662,62,71,0
229.3662,229.58203,53,62,0
229.3662,229.58203,65,74,0
229.58203,229.79785,50,59,0
229.58203,229.79785,62,70,0
229.79785,230.01369,58,74,0
229.79785,230.01369,46,62,0
230.01369,230.2295,62,68,0
230.01369,230.2295,50,58,0
230.2295,230.45851,58,71,0
230.2295,230.45851,46,60,0
230.45851,230.68753,57,71,0
230.45851,230.68753,45,60,0
230.68753,230.9484,55,74,0
230.68753,230.9484,43,63,0
231.1984,231.87636,55,85,0
231.1984,231.87636,43,71,0
231.88382,232.31989,43,74,0
231.88382,232.31989,31,64,0
232.34071,232.57149,43,77,0
232.34071,232.57149,31,64,0
232.57149,232.83464,48,74,0
232.57149,232.83464,36,63,0
233.08464,233.77695,48,85,0
233.08464,233.77695,36,71,0
233.77695,234.21301,41,74,0
233.77695,234.21301,29,64,0
234.23384,234.46461,41,77,0
234.23384,234.46461,29,64,0
234.46461,234.72324,53,65,0
234.46461,234.72324,48,55,0
234.46461,234.72324,41,55,0
234.97324,235.842,53,74,0
234.97324,235.842,48,62,0
234.97324,235.842,41,62,0
235.8597,236.40326,60,45,0
235.8597,236.40326,53,38,0
236.4262,236.71619,60,51,0
236.4262,236.7262,51,43,0
236.7262,237.01576,60,45,0
236.7262,237.01576,50,38,0
237.27754,237.9709,60,51,0
237.27754,237.9709,50,43,0
239.31834,239.56029,57,38,0
239.31834,239.56029,48,38,0
239.56029,239.846,60,39,0
239.56029,239.846,50,33,0
240.13171,241.11037,60,42,0
240.13171,241.11037,50,36,0
242.55759,242.81183,57,38,0
242.55759,242.81183,48,38,0
242.81183,243.09753,60,39,0
242.81183,243.09753,50,33,0
243.38326,244.22849,60,42,0
243.38326,244.22849,50,36,0
244.24039,244.68394,60,44,0
244.24039,244.68394,50,37,0
244.72426,244.94604,60,39,0
244.72426,244.94604,50,33,0
244.9662,245.25192,60,44,0
244.9662,245.25192,50,37,0
245.53763,246.38287,60,39,0
245.53763,246.38287,50,33,0
246.39478,246.6367,57,44,0
246.39478,246.6367,47,37,0
246.87865,247.10042,57,39,0
246.87865,247.10042,47,33,0
247.12057,247.67613,57,44,0
247.12057,247.67613,47,37,0
247.72664,248.62311,57,39,0
247.72664,248.62311,47,33,0
248.63573,248.8966,58,48,0
248.63573,248.8966,46,40,0
249.15747,249.3966,58,39,0
249.15747,249.3966,46,33,0
249.41833,250.02274,58,44,0
249.41833,250.02274,46,37,0
250.07768,251.05295,58,39,0
250.07768,251.05295,46,33,0
251.0667,251.34192,55,40,0
251.0667,251.34192,45,34,0
251.61714,251.86945,55,33,0
251.61714,251.86945,45,28,0
251.89238,252.52457,55,37,0
251.89238,252.52457,45,31,0
252.58203,253.60214,55,33,0
252.58203,253.60214,45,28,0
253.61652,253.89688,56,37,0
253.61652,253.89688,44,31,0
254.17726,254.43427,56,33,0
254.17726,254.43427,44,28,0
254.45764,255.20088,56,37,0
254.45764,255.20088,44,31,0
255.26845,256.46777,56,33,0
255.26845,256.46777,44,28,0
256.48465,256.80045,53,31,0
256.48465,256.80045,43,26,0
257.11624,257.40573,53,28,0
257.11624,257.40573,43,23,0
257.82166,258.21124,54,31,0
257.82166,258.21124,42,26,0
258.60086,258.958,54,28,0
258.60086,258.958,42,23,0
259.3801,259.76968,51,26,0
259.3801,259.76968,41,22,0
260.1593,260.51645,51,23,0
260.1593,260.51645,41,19,0
260.93854,261.32812,52,26,0
260.93854,261.32812,40,22,0
261.71774,262.0749,52,23,0
261.71774,262.0749,40,19,0
262.88657,264.3671,52,60,0
262.88657,264.3671,40,51,0
264.445,265.22424,52,41,0
264.445,265.22424,40,34,0
266.22424,268.22424,52,30,0
266.22424,268.22424,40,25,0
268.22424,269.12424,52,26,0
268.22424,269.12424,40,22,0
270.68765,271.10626,57,39,0
270.68765,271.15277,64,46,0
270.68765,271.15277,61,39,0
271.15277,271.57138,66,50,0
271.15277,271.57138,62,42,0
271.15277,271.57138,57,42,0
271.6179,272.04684,63,34,0
271.6179,272.04684,60,28,0
271.6179,272.04684,57,28,0
272.0977,273.44238,64,44,0
272.0977,273.44238,61,37,0
272.0977,273.46133,57,37,0
273.46133,273.89694,64,42,0
273.46133,273.89694,61,42,0
273.46133,273.91586,69,55,0
273.91586,274.33386,61,42,0
273.91586,274.3525,71,57,0
273.91586,274.3525,64,42,0
274.3525,274.7886,73,61,0
274.3525,274.7886,64,47,0
274.3525,274.7886,61,47,0
274.84125,275.71652,73,58,0
275.71652,276.18896,71,44,0
274.84125,276.18896,66,45,0
274.84125,276.18896,62,38,0
276.18896,276.62064,69,56,0
276.18896,276.62064,64,40,0
276.18896,276.62064,61,40,0
276.62064,277.06506,68,51,0
276.62064,277.06506,62,40,0
276.62064,277.06506,59,40,0
277.06506,277.48264,66,48,0
277.06506,277.48264,61,37,0
277.06506,277.53064,57,37,0
277.53064,278.1488,59,42,0
278.1488,278.36157,61,42,0
277.53064,278.76938,64,50,0
277.53064,278.76938,56,42,0
278.36157,278.7871,62,42,0
278.7871,278.99704,64,50,0
278.7871,278.99704,56,42,0
278.7871,279.0161,62,42,0
279.0161,279.12402,66,40,0
279.12402,279.23193,68,40,0
279.23193,279.64102,66,50,0
279.23193,279.64102,62,42,0
279.23193,279.64102,56,42,0
279.6865,280.13525,64,42,0
279.6865,280.13525,62,35,0
279.6865,280.13525,56,35,0
280.1893,281.37872,66,50,0
280.1893,281.37872,62,42,0
281.37872,281.866,64,44,0
281.37872,281.866,61,37,0
280.1893,281.866,57,42,0
281.8872,282.3523,61,57,0
281.8872,282.3523,57,48,0
282.3523,282.7604,66,62,0
282.3523,282.7604,62,52,0
282.3523,282.7604,57,52,0
282.8052,283.2453,63,45,0
282.8052,283.2453,60,37,0
282.8052,283.2453,57,37,0
283.29935,284.6396,64,53,0
283.29935,284.6396,61,43,0
283.29935,284.65826,57,43,0
284.65826,285.08737,61,62,0
284.65826,285.08737,57,53,0
285.10602,285.51672,61,62,0
285.10602,285.51672,57,62,0
285.10602,285.53458,64,70,0
285.53458,285.97598,66,67,0
285.53458,285.97598,61,56,0
285.53458,285.97598,57,56,0
285.53458,285.97598,63,56,0
286.02908,287.4936,68,71,0
286.02908,287.4936,61,60,0
286.02908,287.4936,64,60,0
286.02908,287.51718,56,60,0
287.51718,287.9463,64,32,0
287.51718,287.96494,68,44,0
287.51718,287.96494,56,32,0
287.96494,288.41415,66,32,0
287.96494,288.41415,56,32,0
287.96494,288.4337,68,40,0
288.4337,288.87997,68,38,0
288.4337,288.87997,63,29,0
288.4337,288.87997,56,29,0
288.92957,290.3399,68,44,0
288.92957,290.3399,61,33,0
288.92957,290.3584,64,33,0
290.3584,290.80762,61,33,0
290.3584,290.82715,64,40,0
290.3584,290.82715,52,33,0
290.82715,291.26617,64,40,0
290.82715,291.26617,62,33,0
290.82715,291.31497,52,33,0
291.31497,291.7985,64,33,0
291.31497,291.7985,59,28,0
291.31497,291.7985,52,28,0
291.8579,293.37256,64,40,0
291.8579,293.37256,61,33,0
291.8579,293.37256,57,33,0
293.61447,293.79593,71,52,0
294.09262,294.2698,69,48,0
294.56506,294.7574,66,52,0
295.05225,295.39496,64,54,0
295.39496,295.5069,69,47,0
295.5069,295.61884,64,44,0
295.61884,295.73077,61,44,0
295.73077,295.90253,57,52,0
295.9598,296.13156,57,52,0
296.4347,296.61914,61,48,0
296.91318,297.0876,64,52,0
297.38193,297.58282,69,54,0
297.872,298.20728,70,58,0
298.20728,298.32355,73,47,0
298.32355,298.43985,71,48,0
298.43985,298.55612,70,48,0
298.55612,298.74207,71,52,0
298.80405,298.99,71,51,0
299.27756,299.44672,66,46,0
299.27756,299.44672,62,39,0
299.73212,299.90387,68,42,0
299.73212,299.90387,64,35,0
300.20114,300.39343,69,46,0
300.20114,300.39343,66,39,0
300.67975,301.01648,71,46,0
300.67975,301.01648,68,39,0
301.01648,301.13098,73,41,0
301.01648,301.13098,69,35,0
301.13098,301.24548,71,41,0
301.13098,301.24548,68,35,0
301.24548,301.36,69,41,0
301.24548,301.36,66,35,0
301.36,301.53174,71,45,0
301.36,301.53174,68,38,0
301.58902,301.76077,71,46,0
301.58902,301.76077,68,39,0
302.06192,302.23367,64,52,0
302.51993,302.69168,62,54,0
302.9695,303.16022,59,59,0
303.22375,303.46185,57,62,0
303.46185,303.94165,69,71,0
303.94165,304.0111,68,46,0
304.0111,304.08054,66,45,0
304.08054,304.15,64,44,0
304.15,304.21942,62,43,0
304.21942,304.28888,61,42,0
304.28888,304.35834,59,40,0
304.35834,304.49652,57,47,0
304.60223,304.78516,57,52,0
305.08234,305.25952,59,63,0
305.08234,305.25952,47,53,0
305.55112,305.72556,57,71,0
305.55112,305.72556,45,60,0
306.01447,306.20676,54,66,0
306.01447,306.20676,42,62,0
306.4931,306.93753,52,71,0
306.4931,306.93753,40,60,0
306.93753,307.1042,49,60,0
306.93753,307.1042,37,51,0
307.15976,307.3369,52,66,0
307.15976,307.3369,40,56,0
307.39597,307.57315,57,60,0
307.39597,307.57315,45,51,0
307.8612,308.03296,49,51,0
307.8612,308.03296,61,60,0
308.32278,308.4972,59,66,0
308.32278,308.4972,47,56,0
308.8331,309.01904,57,68,0
308.8331,309.01904,45,57,0
309.31543,309.79172,56,72,0
309.31543,309.79172,44,61,0
309.79172,310.03366,52,58,0
309.79172,310.03366,40,49,0
310.03366,310.2293,56,61,0
310.03366,310.2293,44,51,0
310.29453,310.49017,49,48,0
310.29453,310.49017,61,57,0
310.78268,310.95312,52,51,0
310.78268,310.95312,64,61,0
311.24615,311.42334,57,47,0
311.24615,311.42334,69,56,0
311.7324,311.9199,56,61,0
311.7324,311.9199,44,51,0
312.19516,312.66293,61,70,0
312.19516,312.66293,49,59,0
312.66293,312.8868,56,59,0
312.66293,312.8868,44,50,0
312.8868,313.05472,52,63,0
312.8868,313.05472,40,53,0
313.1107,313.2786,49,60,0
313.1107,313.2786,37,51,0
313.56894,313.74472,49,39,0
314.04526,314.2267,54,44,0
314.5331,314.74536,52,41,0
315.05804,315.54193,54,51,0
315.54193,315.7234,49,39,0
315.78387,316.0258,45,44,0
316.0258,316.26773,42,39,0
316.51984,316.77194,52,59,0
316.51984,316.77194,40,50,0
317.0398,317.30765,50,62,0
317.0398,317.30765,38,52,0
317.59335,317.8791,49,67,0
317.59335,317.8791,37,56,0
318.4505,319.02194,47,67,0
318.4505,319.02194,35,56,0
318.4505,319.02194,38,56,0
318.4505,319.02194,43,56,0
320.7954,321.0511,55,53,0
320.7954,321.0511,43,45,0
321.13632,322.67477,55,53,0
321.13632,322.67477,48,45,0
322.67477,322.8671,55,39,0
322.67477,322.8671,43,33,0
322.93118,323.1235,55,33,0
322.93118,323.1235,47,28,0
323.1876,323.3751,55,39,0
323.1876,323.3751,48,33,0
323.4376,323.6251,55,32,0
323.4376,323.6251,48,27,0
323.6876,323.8885,55,39,0
323.6876,323.8885,50,33,0
323.95544,324.22015,55,33,0
323.95544,324.22015,43,28,0
324.3084,324.69302,55,39,0
324.3084,324.69302,48,33,0
324.82123,325.01352,55,39,0
324.82123,325.01352,43,33,0
325.07764,325.26993,55,33,0
325.07764,325.26993,47,28,0
325.33405,325.52155,55,39,0
325.33405,325.52155,48,33,0
325.58405,325.77155,55,32,0
325.58405,325.77155,48,27,0
325.83405,326.03494,55,39,0
325.83405,326.03494,50,33,0
326.1019,326.33148,55,33,0
326.1019,326.33148,43,28,0
326.40802,326.79263,55,39,0
326.40802,326.79263,48,33,0
326.92084,327.11316,55,39,0
326.92084,327.11316,50,33,0
327.17725,327.36957,55,33,0
327.17725,327.36957,43,28,0
327.43365,327.62115,55,39,0
327.43365,327.62115,48,33,0
327.68365,327.87115,55,32,0
327.68365,327.87115,48,27,0
327.93365,328.13455,55,39,0
327.93365,328.13455,50,33,0
328.2015,328.44345,55,33,0
328.2015,328.44345,43,28,0
328.5241,328.90872,55,39,0
328.5241,328.90872,48,33,0
329.28082,329.52472,47,63,0
329.28082,329.52472,35,53,0
329.76666,330.0086,52,66,0
329.76666,330.0086,40,56,0
330.24298,330.47736,50,67,0
330.24298,330.47736,38,47,0
330.72736,330.97736,49,66,0
330.72736,330.97736,37,56,0
331.25006,331.58716,54,67,0
331.25006,331.58716,42,56,0
331.58716,332.66824,52,76,0
331.58716,332.66824,40,64,0
332.66824,333.7702,52,62,0
332.66824,333.7702,40,52,0
333.7702,335.43686,52,49,0
333.7702,335.43686,45,41,0
335.43686,335.67688,64,45,0
335.67688,335.85687,62,40,0
335.91687,336.15686,62,45,0
336.15686,336.39688,61,39,0
336.39688,336.63687,59,45,0
336.63687,336.74103,57,41,0
336.77576,336.91464,57,38,0
336.91464,338.34323,64,47,0
338.34323,338.58322,64,45,0
338.58322,338.7632,62,40,0
338.8232,338.98322,62,45,0
338.98322,339.14322,61,39,0
339.14322,339.30322,59,39,0
339.30322,339.46323,58,45,0
339.46323,339.6358,61,39,0
339.7284,339.82098,61,38,0
339.6358,339.82098,62,39,0
339.82098,341.24957,64,45,0
341.24957,341.48956,58,52,0
341.48956,341.72955,66,48,0
341.72955,341.84958,62,52,0
341.84958,341.96957,64,49,0
341.96957,342.08914,62,50,0
342.08914,342.20914,61,51,0
342.20914,342.33063,59,53,0
342.33063,342.45374,61,55,0
342.45374,342.57834,62,57,0
342.57834,342.70435,64,60,0
343.20435,343.68054,64,45,0
343.68054,344.15112,62,38,0
342.70435,344.15112,66,66,0
344.15112,344.65112,66,38,0
344.15112,344.67288,61,32,0
344.15112,344.67288,64,32,0
344.67288,345.1256,62,38,0
344.67288,345.1453,59,38,0
345.1453,345.6757,62,37,0
344.67288,345.6757,66,45,0
345.6757,346.71017,63,42,0
346.71017,347.22742,64,39,0
347.22742,347.50742,52,51,0
347.4674,347.6474,51,46,0
347.7074,347.94742,52,51,0
347.94742,348.1874,47,44,0
348.1874,348.2474,45,47,0
348.2474,348.3074,47,47,0
348.3074,348.4274,45,51,0
348.4274,348.52194,44,47,0
348.55347,348.6795,44,43,0
348.6795,348.945,52,54,0
349.21048,350.2503,52,56,0
350.27243,350.55243,52,51,0
350.51242,350.6924,51,46,0
350.75244,350.99243,52,51,0
350.99243,351.23242,48,44,0
351.23242,351.29242,47,47,0
351.29242,351.35242,48,47,0
351.35242,351.47244,47,51,0
351.47244,351.56696,45,47,0
351.59848,351.72452,45,43,0
351.72452,351.99002,53,54,0
352.2555,353.29532,53,56,0
353.31744,353.59744,53,56,0
353.55746,353.73746,52,51,0
353.79745,354.03745,53,58,0
354.03745,354.27744,50,51,0
354.27744,354.33746,48,55,0
354.33746,354.39746,50,55,0
354.39746,354.51746,48,61,0
354.51746,354.612,47,56,0
354.6435,354.76956,47,52,0
354.76956,355.26523,55,66,0
355.2868,355.8003,55,40,0
355.2868,355.8003,53,34,0
355.82733,356.34085,55,40,0
355.82733,356.34085,52,34,0
356.36786,356.85925,55,45,0
356.36786,356.85925,47,38,0
356.8851,357.38953,55,51,0
356.8851,357.38953,48,43,0
357.41608,357.9922,55,41,0
357.41608,357.9922,50,34,0
358.02588,359.16876,50,34,0
359.16876,359.686,48,35,0
358.02588,359.686,55,40,0
359.686,360.14233,43,45,0
359.686,360.61853,55,53,0
360.16217,360.63837,57,57,0
360.16217,360.63837,45,48,0
360.63837,361.0774,59,60,0
360.63837,361.0774,55,50,0
360.63837,361.1262,47,50,0
361.1262,361.5209,60,66,0
361.1262,361.5209,55,56,0
361.1262,361.5209,48,56,0
361.6525,362.57993,60,61,0
361.6525,362.57993,55,52,0
361.6525,362.57993,48,52,0
362.62024,363.0818,52,32,0
363.0818,363.5141,55,35,0
362.62024,363.5329,64,38,0
362.62024,363.5329,60,32,0
363.5329,363.96838,55,28,0
363.5329,364.01678,59,28,0
363.5329,364.01678,62,34,0
364.01678,364.415,60,49,0
364.01678,364.415,57,39,0
364.54776,365.5734,60,34,0
364.54776,365.5734,57,27,0
365.5734,366.06924,47,27,0
366.06924,366.54446,48,23,0
365.5734,366.56512,55,32,0
366.56512,367.13657,50,23,0
367.13657,367.5348,48,28,0
366.56512,367.5348,55,28,0
367.66754,368.70667,55,27,0
367.66754,368.70667,48,21,0
368.70667,368.9546,48,38,0
368.9546,369.17773,43,34,0
368.70667,369.1819,55,38,0
369.20255,369.44644,43,40,0
369.44644,369.66595,48,35,0
369.20255,369.67,55,38,0
369.69034,369.94894,48,40,0
369.69034,370.22675,55,38,0
369.94894,370.25198,50,34,0
370.25198,370.7648,55,40,0
370.25198,370.7648,48,34,0
370.7648,371.01276,60,41,0
371.01276,371.23587,55,37,0
370.7648,371.24002,67,41,0
371.26068,371.50458,55,44,0
371.50458,371.7241,60,38,0
371.26068,371.72815,67,41,0
371.74847,372.0071,64,44,0
371.74847,372.28488,67,41,0
372.0071,372.31012,62,37,0
372.31012,372.82736,67,44,0
372.31012,372.82736,60,37,0
372.82736,373.07532,48,34,0
373.07532,373.29846,43,31,0
372.82736,373.30258,55,34,0
373.32324,373.56714,43,37,0
373.56714,373.78665,48,32,0
373.32324,373.7907,55,34,0
373.81104,374.06967,52,37,0
373.81104,374.34744,55,34,0
374.06967,374.3727,50,31,0
374.3727,374.8527,55,37,0
374.3727,374.8527,48,31,0
374.8527,375.2847,67,37,0
374.8527,375.2847,60,31,0
375.3327,375.8064,68,38,0
375.3327,375.8064,59,32,0
375.859,376.29102,68,42,0
375.859,376.29102,59,35,0
376.33902,376.76608,69,40,0
376.33902,376.76608,57,34,0
376.81332,377.26382,69,34,0
376.81332,377.26382,64,28,0
376.81332,377.26382,57,28,0
377.3174,378.2623,68,33,0
377.3174,378.2623,64,28,0
377.3174,378.2623,59,28,0
378.2623,379.24872,59,33,0
378.2623,379.24872,47,28,0
379.24872,380.2011,59,34,0
379.24872,380.2011,52,28,0
380.65912,381.13235,59,31,0
380.65912,381.13235,52,31,0
381.13235,381.55423,52,36,0
381.13235,381.55423,61,36,0
381.6011,382.0437,58,33,0
381.6011,382.0437,52,33,0
382.0929,382.78732,59,34,0
382.0929,383.46393,52,28,0
383.48178,383.9291,59,31,0
383.48178,383.95032,64,31,0
383.48178,383.95032,52,31,0
383.95032,384.3722,52,36,0
383.95032,384.3722,66,36,0
383.95032,384.39954,59,36,0
384.41907,384.91907,64,33,0
384.41907,384.91907,52,33,0
384.41907,384.97195,60,33,0
384.97195,385.95557,65,44,0
384.97195,386.20148,61,37,0
384.97195,386.20148,57,37,0
386.43048,386.9037,61,31,0
386.43048,386.9037,57,31,0
386.9037,387.32556,59,36,0
386.9037,387.32556,63,36,0
387.37244,387.81506,64,33,0
387.37244,387.81506,61,33,0
387.86423,389.23526,59,34,0
387.86423,389.23526,51,28,0
389.25314,389.70047,63,31,0
389.25314,389.72165,71,31,0
389.72165,390.14352,73,36,0
389.72165,390.17087,63,36,0
390.1904,390.6904,71,33,0
390.1904,390.7433,63,33,0
390.7433,391.7269,73,44,0
391.7269,391.9728,71,44,0
390.7433,391.9728,64,37,0
391.9728,392.21872,59,55,0
392.4531,392.68387,54,60,0
392.68387,393.1454,52,51,0
392.21872,393.1454,56,57,0
393.1454,393.68594,51,51,0
393.1454,393.68594,56,51,0
393.1454,393.68594,60,61,0
393.68594,395.1694,61,70,0
393.68594,395.1694,49,58,0
393.68594,395.1694,52,58,0
393.68594,395.1694,57,58,0
395.39844,395.62744,61,45,0
395.62744,396.08545,59,60,0
395.39844,396.08545,64,54,0
396.08545,396.48367,64,58,0
396.61642,399.28308,65,58,0
396.61642,399.28308,68,69,0
399.28308,399.74463,66,37,0
399.28308,399.74463,69,44,0
396.61642,399.74463,57,58,0
401.99722,404.77844,64,39,0
404.77844,405.27432,62,36,0
404.77844,405.27432,50,30,0
401.99722,405.27432,57,33,0
406.4383,406.6673,54,45,0
406.6673,407.1253,56,60,0
406.6673,407.1253,52,60,0
407.1253,407.52353,57,58,0
407.1253,407.52353,50,49,0
407.65628,409.14868,57,65,0
407.65628,409.14868,49,55,0
409.3764,409.60413,61,45,0
409.60413,410.05957,63,60,0
409.60413,410.05957,59,60,0
410.05957,410.41464,64,58,0
410.05957,410.41464,57,49,0
410.533,410.89374,56,65,0
411.01398,411.42035,61,67,0
411.01398,411.42035,64,67,0
411.5558,412.60162,64,72,0
411.5558,412.60162,59,61,0
412.60162,413.73816,59,45,0
412.60162,413.73816,47,38,0
413.76483,415.46713,59,37,0
413.76483,415.46713,52,31,0
416.3957,416.62827,52,66,0
416.62827,416.8608,56,61,0
416.8608,417.10876,57,66,0
417.10876,417.59863,45,77,0
417.59863,417.83118,33,59,0
417.83118,418.06375,45,65,0
418.2963,418.52887,52,73,0
418.52887,418.7614,56,63,0
418.7614,418.994,54,65,0
419.20676,419.45883,49,71,0
419.45883,419.6896,52,62,0
419.6896,419.9417,50,65,0
419.9417,420.4225,38,74,0
420.4225,420.65326,33,65,0
420.65326,420.88403,38,65,0
420.88403,421.11478,42,58,0
421.11478,421.35287,38,61,0
421.35287,421.59097,37,64,0
421.59097,421.82907,35,68,0
422.03043,422.27432,54,66,0
422.27432,422.51822,58,61,0
422.51822,422.78137,59,66,0
422.78137,423.27127,47,77,0
423.27127,423.5038,35,59,0
423.5038,423.7364,47,65,0
423.96893,424.20148,54,73,0
424.20148,424.43405,57,63,0
424.43405,424.65793,56,65,0
424.8707,425.08966,51,71,0
425.08966,425.32043,54,65,0
425.32043,425.57468,52,65,0
425.57468,426.05545,40,74,0
426.05545,426.28622,35,65,0
426.28622,426.73016,40,65,0
426.517,426.73016,40,73,0
426.517,426.96274,52,73,0
426.98212,427.21466,54,63,0
426.98212,427.21466,42,56,0
427.21466,427.43854,56,65,0
427.21466,427.43854,44,55,0
426.98212,427.43854,52,56,0
427.43854,427.85205,57,71,0
427.43854,427.8703,45,63,0
427.8703,428.10104,59,65,0
427.8703,428.10104,47,63,0
427.8703,428.10104,57,63,0
428.10104,428.35315,61,65,0
428.10104,428.35315,57,55,0
428.10104,428.35315,49,55,0
428.60315,429.283,61,74,0
428.60315,429.283,57,62,0
428.60315,429.283,49,62,0
429.28857,429.51245,49,60,0
429.28857,429.51245,61,71,0
429.51245,429.72827,52,62,0
429.51245,429.72827,64,74,0
429.72827,429.94412,49,59,0
429.72827,429.94412,61,70,0
429.94412,430.15994,57,74,0
429.94412,430.15994,45,62,0
430.15994,430.37576,56,68,0
430.15994,430.37576,44,58,0
430.37576,430.60477,54,71,0
430.37576,430.60477,42,60,0
430.60477,430.83377,52,71,0
430.60477,430.83377,40,60,0
430.83377,431.0924,50,65,0
430.83377,431.0924,45,55,0
430.83377,431.0924,38,55,0
431.3424,432.02222,50,74,0
431.3424,432.02222,45,62,0
431.3424,432.02222,38,62,0
432.02783,432.2517,45,71,0
432.2517,432.46753,50,82,0
432.02783,432.46753,38,60,0
432.46753,432.68335,37,59,0
432.46753,432.68335,49,70,0
432.46753,432.68335,45,59,0
432.68335,432.8884,50,74,0
432.68335,432.8884,45,62,0
432.68335,432.8884,38,62,0
432.89917,433.11502,45,71,0
433.11502,433.34402,50,68,0
432.89917,433.34402,38,60,0
433.34402,433.57303,52,71,0
433.34402,433.57303,40,60,0
433.34402,433.57303,47,60,0
433.57303,433.83163,50,71,0
433.57303,433.83163,45,60,0
433.57303,433.83163,38,60,0
434.08163,434.76706,50,74,0
434.08163,434.76706,45,62,0
434.08163,434.76706,38,62,0
434.76706,434.99094,42,60,0
434.76706,434.99094,54,71,0
434.99094,435.2068,45,62,0
434.99094,435.2068,57,74,0
435.2068,435.4226,42,59,0
435.2068,435.4226,54,70,0
435.4226,435.63843,50,71,0
435.4226,435.63843,38,60,0
435.63843,435.85425,54,71,0
435.63843,435.85425,42,60,0
435.85425,436.08325,50,68,0
435.85425,436.08325,38,58,0
436.08325,436.3123,49,71,0
436.08325,436.3123,37,60,0
436.3123,436.57315,47,65,0
436.3123,436.57315,35,55,0
436.82315,437.50296,47,74,0
436.82315,437.50296,42,62,0
436.82315,437.50296,35,62,0
437.50858,437.9446,47,71,0
437.50858,437.9446,42,60,0
437.50858,437.9446,35,60,0
437.96545,438.19623,47,74,0
437.96545,438.19623,42,62,0
437.96545,438.19623,35,62,0
438.19623,438.45938,52,65,0
438.19623,438.45938,47,55,0
438.19623,438.45938,40,55,0
438.70938,439.4017,52,74,0
438.70938,439.4017,47,62,0
438.70938,439.4017,40,62,0
439.4017,439.83777,45,71,0
439.4017,439.83777,40,60,0
439.4017,439.83777,33,60,0
439.85858,440.08936,45,66,0
439.85858,440.08936,40,55,0
439.85858,440.08936,33,55,0
440.08936,440.3572,52,65,0
440.08936,440.3572,45,55,0
440.6227,442.2497,52,74,0
440.6227,442.2497,45,62,0
443.30203,443.55203,50,32,0
443.55203,443.7909,57,35,0
444.02975,444.43484,57,36,0
443.7909,444.43484,50,32,0
444.4927,445.84906,50,31,0
444.4927,445.84906,57,37,0
446.08792,446.32303,50,32,0
446.32303,446.5563,57,35,0
446.78958,447.19467,57,36,0
446.5563,447.19467,50,32,0
447.25253,447.9212,50,31,0
447.9212,448.14407,49,32,0
448.14407,448.37378,47,35,0
448.37378,448.61264,45,39,0
447.25253,448.61264,57,38,0
448.87125,449.12125,43,36,0
449.12125,449.3601,50,40,0
449.59897,450.00406,50,41,0
449.3601,450.00406,43,36,0
450.06192,451.41827,43,35,0
450.06192,451.41827,50,42,0
451.6769,451.9269,43,36,0
451.9269,452.16574,50,40,0
452.4046,452.8097,50,41,0
452.16574,452.8097,43,36,0
452.86755,453.985,43,35,0
452.86755,453.9888,50,42,0
453.9888,454.2239,52,39,0
453.9888,454.2239,43,31,0
454.48254,454.73254,43,36,0
454.73254,454.9714,52,40,0
455.21024,455.61533,52,41,0
454.9714,455.61533,43,36,0
455.67322,456.56473,43,35,0
455.67322,456.56473,52,42,0
456.56473,457.02954,64,42,0
456.56473,457.02954,55,35,0
457.28818,457.53818,54,36,0
457.53818,457.77704,64,40,0
458.01587,458.421,64,41,0
457.77704,458.421,54,36,0
458.47885,459.38794,54,35,0
458.47885,459.38794,64,42,0
459.38794,459.87604,64,42,0
459.38794,459.87604,55,35,0
460.13464,460.38464,54,36,0
460.38464,460.6235,64,40,0
460.86237,461.26746,64,41,0
460.6235,461.26746,54,36,0
461.32532,462.21686,54,35,0
461.32532,462.21686,64,42,0
462.21686,462.68655,64,42,0
462.21686,462.68655,54,35,0
463.0052,463.2552,47,36,0
463.2552,463.49988,63,39,0
463.74457,464.15927,63,39,0
463.49988,464.15927,47,35,0
464.2185,465.1182,47,33,0
464.2185,465.1182,63,39,0
465.13736,465.59265,63,38,0
465.13736,465.59265,47,32,0
465.90735,466.1646,52,32,0
466.1646,466.40933,62,35,0
466.65402,467.07034,62,35,0
466.40933,467.07034,52,31,0
467.12823,468.01974,52,30,0
467.12823,468.01974,62,36,0
468.01974,468.48456,62,34,0
468.01974,468.48456,53,28,0
468.7432,468.9932,52,28,0
468.9932,469.23206,62,32,0
469.4709,469.87598,62,32,0
469.23206,469.87598,52,28,0
469.93387,470.82538,52,28,0
469.93387,470.82538,62,33,0
470.82538,471.29022,62,33,0
470.82538,471.29022,53,28,0
471.54883,471.79883,52,28,0
471.79883,472.04352,62,31,0
472.28824,472.7029,62,31,0
472.04352,472.7029,52,28,0
472.76215,472.9923,52,31,0
472.76215,473.00024,62,35,0
473.69073,473.92328,52,66,0
473.92328,474.15585,56,61,0
474.15585,474.40378,57,66,0
474.40378,474.89365,45,77,0
474.89365,475.12622,33,59,0
475.12622,475.35876,45,65,0
475.59134,475.82388,52,73,0
475.82388,476.05646,56,63,0
476.05646,476.289,54,65,0
476.4959,476.7459,49,71,0
476.7459,476.97668,52,65,0
476.97668,477.2288,50,65,0
477.2288,477.70953,38,74,0
477.70953,477.9403,33,65,0
477.9403,478.17108,38,65,0
478.17108,478.40186,42,58,0
478.40186,478.63995,38,61,0
478.63995,478.87805,37,64,0
478.87805,479.11615,35,68,0
479.3304,479.563,54,66,0
479.563,479.79553,58,61,0
479.79553,480.0587,59,66,0
480.0587,480.54858,47,77,0
480.54858,480.78113,35,59,0
480.78113,481.0137,47,65,0
481.24625,481.47882,54,73,0
481.47882,481.71136,57,63,0
481.71136,481.93524,55,65,0
482.148,482.367,51,71,0
482.367,482.59775,54,65,0
482.59775,482.852,52,65,0
482.852,483.33276,40,74,0
483.33276,483.56354,35,65,0
483.56354,484.00748,40,65,0
483.7943,484.00748,40,73,0
483.7943,484.24005,52,73,0
484.25943,484.4881,52,58,0
484.25943,484.49197,54,64,0
484.25943,484.49197,42,60,0
484.49197,484.71585,55,68,0
484.49197,484.71585,43,58,0
484.49197,484.71585,52,60,0
484.71585,485.12936,57,73,0
484.71585,485.1476,45,65,0
484.71585,485.1476,52,65,0
485.1476,485.3784,59,72,0
485.1476,485.3784,47,70,0
485.1476,485.3784,55,70,0
485.3784,485.63046,60,74,0
485.3784,485.63046,55,63,0
485.3784,485.63046,48,63,0
485.88046,486.55844,60,85,0
485.88046,486.55844,55,71,0
485.88046,486.55844,48,71,0
486.5659,486.78976,52,69,0
486.5659,486.78976,64,81,0
486.78976,487.0056,55,71,0
486.78976,487.0056,67,85,0
487.0056,487.22144,52,67,0
487.0056,487.22144,64,80,0
487.22144,487.43726,60,85,0
487.22144,487.43726,48,71,0
487.43726,487.65308,59,78,0
487.43726,487.65308,47,66,0
487.65308,487.88208,57,81,0
487.65308,487.88208,45,69,0
487.88208,488.1111,55,81,0
487.88208,488.1111,43,69,0
488.1111,488.36972,53,74,0
488.1111,488.36972,48,63,0
488.1111,488.36972,41,63,0
488.61972,489.29767,53,80,0
488.61972,489.29767,48,67,0
488.61972,489.29767,41,67,0
489.30515,489.52902,48,76,0
489.52902,489.74484,53,81,0
489.30515,489.74484,41,55,0
489.74484,489.9427,43,63,0
489.74484,489.9427,48,63,0
489.74484,489.96066,55,76,0
489.96066,490.1657,53,80,0
489.96066,490.1657,48,67,0
489.96066,490.1657,41,67,0
490.1765,490.39233,48,76,0
490.39233,490.62134,53,76,0
490.1765,490.62134,41,65,0
490.62134,490.85034,51,81,0
490.62134,490.85034,39,69,0
490.85034,491.10898,50,74,0
490.85034,491.10898,38,63,0
491.35898,492.04437,50,85,0
491.35898,492.04437,38,71,0
492.04437,492.26825,54,69,0
492.04437,492.26825,66,81,0
492.26825,492.4841,57,71,0
492.26825,492.4841,69,85,0
492.4841,492.69992,54,67,0
492.4841,492.69992,66,80,0
492.69992,492.91574,62,85,0
492.69992,492.91574,50,71,0
492.91574,493.13156,61,78,0
492.91574,493.13156,49,66,0
493.13156,493.3606,59,81,0
493.13156,493.3606,47,69,0
493.3606,493.5896,57,78,0
493.3606,493.5896,45,66,0
493.5896,493.85046,55,74,0
493.5896,493.85046,43,63,0
493.5896,493.85046,50,63,0
494.10046,494.7784,55,85,0
494.10046,494.7784,43,71,0
494.10046,494.78027,50,71,0
494.7859,495.22195,55,74,0
494.7859,495.22195,50,53,0
494.7859,495.22195,43,53,0
495.24277,495.47354,57,80,0
495.24277,495.47354,50,68,0
495.24277,495.47354,45,68,0
495.47354,495.6786,55,85,0
495.47354,495.6786,50,60,0
495.47354,495.6786,43,60,0
495.68936,496.13422,55,81,0
495.68936,496.13422,43,58,0
495.68936,496.13422,50,58,0
496.13422,496.36322,53,81,0
496.13422,496.36322,41,69,0
496.36322,496.62183,52,74,0
496.36322,496.62183,40,63,0
496.87183,497.60123,52,85,0
496.87183,497.60123,40,71,0
497.60123,497.8251,56,69,0
497.60123,497.8251,64,81,0
497.8251,498.04092,59,71,0
497.8251,498.04092,71,85,0
498.04092,498.25677,56,67,0
498.04092,498.25677,68,80,0
498.25677,498.4726,64,85,0
498.25677,498.4726,52,71,0
498.4726,498.68842,62,81,0
498.4726,498.68842,50,69,0
498.68842,498.91742,60,81,0
498.68842,498.91742,48,69,0
498.91742,499.14642,59,78,0
498.91742,499.14642,47,66,0
499.14642,499.38916,57,74,0
499.14642,499.38916,45,63,0
499.14642,499.38916,52,63,0
499.63187,500.3165,57,81,0
499.63187,500.3165,45,69,0
499.63187,500.31842,52,69,0
500.3242,500.73315,57,85,0
500.3242,500.73315,45,60,0
500.3242,500.73315,52,60,0
500.75092,500.9643,57,76,0
500.75092,500.9643,45,65,0
500.75092,500.9643,52,65,0
500.9643,501.2194,57,83,0
500.9643,501.2194,45,71,0
500.9643,501.2194,52,71,0
501.4745,502.16895,57,88,0
501.4745,502.16895,45,74,0
501.4745,502.16895,52,74,0
502.16895,502.59613,57,88,0
502.16895,502.59613,45,62,0
502.16895,502.59613,52,62,0
502.61472,502.85355,57,84,0
502.61472,502.85355,45,70,0
502.61472,502.85355,52,70,0
502.85355,503.1044,55,86,0
502.85355,503.1044,50,71,0
502.85355,503.1044,43,71,0
503.35522,504.07913,55,99,0
503.35522,504.07913,50,85,0
503.35522,504.07913,43,85,0
504.08932,504.31387,55,99,0
504.08932,504.31387,43,84,0
504.08932,504.31387,50,84,0
504.53842,504.77496,55,96,0
504.53842,504.78314,43,81,0
504.53842,504.78314,50,81,0
504.78314,505.0404,55,79,0
504.78314,505.0404,43,68,0
504.78314,505.0404,50,68,0
505.2977,506.012,55,88,0
505.2977,506.012,43,75,0
505.2977,506.014,50,75,0
506.02002,506.45856,55,93,0
506.02002,506.45856,43,66,0
506.02002,506.45856,50,66,0
506.4777,506.7441,55,82,0
506.4777,506.7441,43,70,0
506.4777,506.7441,50,70,0
506.7441,506.99924,48,88,0
506.7441,506.99924,36,74,0
506.7441,506.99924,43,74,0
507.25433,508.00058,48,100,0
507.25433,508.00058,36,83,0
507.25433,508.00058,43,83,0
508.00058,508.4658,48,95,0
508.00058,508.4658,36,67,0
508.00058,508.4658,43,67,0
508.48602,508.76227,48,90,0
508.48602,508.76227,36,75,0
508.48602,508.76227,43,75,0
508.76227,509.05756,48,96,0
508.76227,509.05756,43,80,0
508.76227,509.05756,36,80,0
509.3528,510.35452,48,102,0
509.3528,510.35452,43,87,0
509.3528,510.35452,36,87,0
510.36862,510.61948,60,57,0
510.36862,510.61948,48,48,0
510.36862,510.61948,55,48,0
510.8703,511.10342,60,54,0
510.8703,511.11008,48,45,0
510.8703,511.11008,55,45,0
511.13672,511.432,60,42,0
511.13672,511.432,48,36,0
511.13672,511.432,55,36,0
511.72726,512.5248,60,45,0
511.72726,512.5248,55,39,0
511.72726,512.5248,48,39,0
512.53375,513.0334,60,46,0
512.53375,513.0334,48,33,0
512.53375,513.0334,55,33,0
513.05505,513.34045,60,40,0
513.05505,513.34045,48,34,0
513.05505,513.34045,55,34,0
513.37213,513.65625,62,44,0
513.37213,513.65625,50,37,0
513.37213,513.65625,59,37,0
513.9403,514.75464,62,45,0
513.9403,514.75464,50,37,0
513.9403,514.75464,59,37,0
514.7615,515.2504,62,42,0
514.7615,515.2504,50,30,0
514.7615,515.2504,59,30,0
515.2717,515.5613,62,36,0
515.2717,515.5613,50,31,0
515.2717,515.5613,59,31,0
515.5613,515.8784,60,39,0
515.5613,515.8784,52,34,0
515.5613,515.8784,57,34,0
516.19556,517.0827,60,41,0
516.19556,517.0827,52,33,0
516.19556,517.0827,57,33,0
517.09015,517.6399,60,37,0
517.09015,517.6399,52,26,0
517.09015,517.6399,57,26,0
517.66376,518.0659,60,32,0
517.66376,518.0659,52,28,0
517.66376,518.0659,57,28,0
518.0659,518.4735,62,35,0
518.0659,518.4735,52,30,0
518.88116,521.1457,62,36,0
518.88116,521.1457,52,30,0
522.50934,522.9413,57,34,0
522.9893,523.4213,57,40,0
523.4693,523.9936,57,29,0
524.2918,524.75183,52,31,0
524.2918,524.75183,45,31,0
524.77185,525.01184,52,31,0
524.77185,525.01184,45,31,0
525.01184,525.47186,52,31,0
525.01184,525.47186,45,31,0
524.0518,525.47186,57,37,0
525.4918,525.97186,57,41,0
525.4918,525.97186,52,34,0
525.4918,525.97186,45,34,0
525.97186,526.4406,57,43,0
526.4406,526.89435,57,45,0
527.1867,527.6706,58,35,0
527.1867,527.6706,50,29,0
527.6706,527.91254,58,31,0
527.6706,527.91254,50,31,0
527.91254,528.44824,59,38,0
527.91254,528.44824,50,32,0
526.94476,528.44824,62,38,0
528.44824,528.917,62,40,0
528.44824,528.917,59,34,0
528.44824,528.917,50,28,0
528.917,529.41284,59,34,0
529.41284,529.89935,57,34,0
530.1973,530.6851,52,35,0
530.1973,530.6851,47,35,0
530.6851,530.929,52,31,0
530.6851,530.929,47,31,0
529.9534,531.3965,56,37,0
530.929,531.4168,52,35,0
530.929,531.4168,47,35,0
531.4168,531.8517,56,40,0
531.4168,531.8517,47,34,0
531.4168,531.8517,52,35,0
531.8517,532.27356,56,37,0
532.32043,532.81586,56,35,0
533.12305,533.6272,54,35,0
533.12305,533.6272,50,29,0
533.12305,533.6272,45,29,0
533.6272,533.85834,45,26,0
533.6272,533.87933,54,31,0
533.6272,533.87933,50,26,0
532.8709,533.9349,57,40,0
533.87933,534.41174,52,36,0
533.87933,534.4349,49,35,0
533.87933,534.4349,45,29,0
534.4349,534.9349,57,57,0
534.4349,534.9349,45,48,0
534.9349,535.3849,50,67,0
534.9349,535.3849,38,47,0
535.4349,535.9349,54,57,0
535.4349,535.9349,42,48,0
535.9904,536.2317,57,60,0
535.9904,536.2317,45,60,0
536.2536,536.7454,45,55,0
536.2536,536.7454,40,46,0
536.2536,536.7454,33,46,0
536.7454,536.9913,45,47,0
536.7454,536.9913,40,39,0
536.7454,536.9913,33,39,0
536.9913,537.4831,45,55,0
536.9913,537.4831,40,46,0
536.9913,537.4831,33,46,0
537.4831,537.76086,45,51,0
537.4831,537.76086,40,43,0
537.4831,537.76086,33,43,0
537.76086,537.98816,61,49,0
537.76086,537.98816,49,41,0
537.98816,538.45325,59,65,0
537.98816,538.45325,47,55,0
538.45325,538.90326,57,64,0
538.45325,538.90326,45,45,0
538.95325,539.1945,56,60,0
538.95325,539.1945,44,51,0
539.21643,539.70825,44,55,0
539.21643,539.70825,37,46,0
539.21643,539.70825,32,46,0
539.70825,539.95416,44,47,0
539.70825,539.95416,37,39,0
539.70825,539.95416,32,39,0
539.95416,540.4459,44,55,0
539.95416,540.4459,37,46,0
539.95416,540.4459,32,46,0
540.4459,540.7237,44,51,0
540.4459,540.7237,37,43,0
540.4459,540.7237,32,43,0
540.7237,540.951,61,55,0
540.7237,540.951,56,46,0
540.951,541.4161,60,65,0
540.951,541.4161,56,55,0
541.4161,541.8661,63,64,0
541.4161,541.8661,56,45,0
541.9161,542.15735,61,54,0
541.9161,542.15735,49,45,0
541.9161,542.15735,56,45,0
542.17926,542.6711,49,49,0
542.17926,542.6711,37,41,0
542.17926,542.6711,40,41,0
542.17926,542.6711,44,41,0
542.6711,542.917,49,42,0
542.6711,542.917,37,35,0
542.6711,542.917,40,35,0
542.6711,542.917,44,35,0
542.917,543.40875,49,49,0
542.917,543.40875,37,41,0
542.917,543.40875,40,41,0
542.917,543.40875,44,41,0
543.40875,543.6865,49,45,0
543.40875,543.6865,37,38,0
543.40875,543.6865,40,38,0
543.40875,543.6865,44,38,0
543.6865,543.9138,57,38,0
543.6865,543.9138,52,38,0
543.9138,544.37897,56,38,0
543.9138,544.37897,52,45,0
544.37897,544.8289,59,44,0
544.37897,544.8289,52,37,0
544.87897,545.1202,57,42,0
544.87897,545.1202,54,35,0
545.1421,545.6339,54,38,0
545.1421,545.6339,49,32,0
545.1421,545.6339,42,32,0
545.6339,545.8798,54,32,0
545.6339,545.8798,49,27,0
545.6339,545.8798,42,27,0
545.8798,546.3716,54,38,0
545.8798,546.3716,49,32,0
545.8798,546.3716,42,32,0
546.3716,546.64935,54,35,0
546.3716,546.64935,49,29,0
546.3716,546.64935,42,29,0
546.64935,546.87665,52,55,0
546.64935,546.87665,40,46,0
546.87665,547.3418,50,66,0
546.87665,547.3418,38,56,0
547.3418,547.79175,49,69,0
547.3418,547.79175,37,49,0
547.8418,548.083,47,72,0
547.8418,548.083,35,61,0
548.1049,548.5849,47,66,0
548.1049,548.5849,35,56,0
548.1049,548.5849,43,56,0
548.1049,548.5849,38,56,0
548.5849,548.82495,47,56,0
548.5849,548.82495,43,47,0
548.5849,548.82495,38,47,0
548.5849,548.82495,35,47,0
548.82495,549.30493,47,66,0
548.82495,549.30493,43,56,0
548.82495,549.30493,38,56,0
548.82495,549.30493,35,56,0
549.30493,550.0528,47,61,0
549.30493,550.0528,43,51,0
549.30493,550.0528,35,51,0
549.30493,550.0528,38,51,0
550.07416,550.55035,57,36,0
550.07416,550.55035,48,30,0
550.07416,550.55035,54,30,0
550.07416,550.55035,50,30,0
550.55035,550.78845,57,30,0
550.55035,550.78845,54,25,0
550.55035,550.78845,50,25,0
550.55035,550.78845,48,25,0
550.78845,551.26465,57,36,0
550.78845,551.26465,54,30,0
550.78845,551.26465,50,30,0
550.78845,551.26465,48,30,0
551.26465,551.976,57,33,0
551.26465,551.976,54,28,0
551.26465,551.976,48,28,0
551.26465,551.976,50,28,0
551.99634,552.4763,47,66,0
551.99634,552.4763,35,56,0
551.99634,552.4763,43,56,0
551.99634,552.4763,38,56,0
552.4763,552.7164,47,56,0
552.4763,552.7164,43,47,0
552.4763,552.7164,38,47,0
552.4763,552.7164,35,47,0
552.7164,553.19635,47,66,0
552.7164,553.19635,43,56,0
552.7164,553.19635,38,56,0
552.7164,553.19635,35,56,0
553.19635,553.9442,47,61,0
553.19635,553.9442,43,51,0
553.19635,553.9442,35,51,0
553.19635,553.9442,38,51,0
553.9656,554.4418,57,36,0
553.9656,554.4418,48,30,0
553.9656,554.4418,54,30,0
553.9656,554.4418,50,30,0
554.4418,554.6799,57,30,0
554.4418,554.6799,54,25,0
554.4418,554.6799,50,25,0
554.4418,554.6799,48,25,0
554.6799,555.15607,57,36,0
554.6799,555.15607,54,30,0
554.6799,555.15607,50,30,0
554.6799,555.15607,48,30,0
555.15607,555.86743,57,33,0
555.15607,555.86743,54,28,0
555.15607,555.86743,48,28,0
555.15607,555.86743,50,28,0
555.88776,556.34375,47,66,0
555.88776,556.34375,35,47,0
555.88776,556.34375,43,47,0
555.88776,556.34375,38,47,0
556.36774,556.59576,47,56,0
556.36774,556.59576,43,39,0
556.36774,556.59576,38,39,0
556.36774,556.59576,35,39,0
556.6078,556.80255,47,66,0
556.6078,556.80255,35,56,0
556.6078,556.80255,38,56,0
556.6078,556.80255,43,56,0
556.9974,557.1781,47,66,0
556.9974,557.1781,35,56,0
557.3588,557.5303,47,64,0
557.3588,557.5303,35,54,0
557.70166,557.87024,47,62,0
557.70166,557.87024,35,52,0
558.03876,558.2009,47,60,0
558.03876,558.2009,35,51,0
558.3631,558.63336,47,58,0
558.3631,558.63336,35,49,0
558.9036,561.04645,47,71,0
558.9036,561.04645,35,60,0
561.04645,563.18933,47,66,0
561.04645,563.18933,35,56,0
563.18933,565.59424,52,39,0
563.18933,565.59424,50,33,0
563.18933,565.59424,47,33,0
565.59424,567.9333,52,39,0
565.59424,567.9333,50,33,0
565.59424,567.9333,47,33,0
567.9333,568.4103,57,43,0
567.9333,568.4103,52,36,0
567.9333,568.4103,49,36,0
568.4103,568.8852,54,30,0
568.4103,568.8852,59,36,0
568.4103,568.8852,57,30,0
568.8852,569.8082,57,36,0
568.8852,569.8082,52,36,0
568.8852,569.8082,61,43,0
569.8082,570.789,52,41,0
569.8082,570.789,40,34,0
570.789,571.05927,52,33,0
570.789,571.05927,45,28,0
572.3295,572.79913,45,36,0
572.8513,573.32086,47,44,0
573.37305,573.8426,44,40,0
573.8948,575.4353,45,48,0
575.4353,575.90485,55,39,0
575.95703,576.42664,52,48,0
576.47876,576.94836,49,44,0
577.00055,578.5411,45,48,0
578.5411,579.0106,45,36,0
579.0628,579.53235,47,44,0
579.58453,580.05414,44,40,0
580.10626,581.64685,45,44,0
581.64685,582.1164,53,39,0
582.1686,582.9512,50,45,0
582.9512,583.21204,47,37,0
583.21204,584.75256,45,42,0
584.75256,585.22217,33,31,0
585.2743,585.7439,35,37,0
585.7961,586.2656,32,34,0
586.3178,587.85834,33,37,0
587.85834,588.24963,37,36,0
588.24963,588.38007,40,28,0
588.38007,588.8497,43,40,0
588.9018,589.3714,46,32,0
589.4236,590.9641,33,35,0
590.9641,591.43365,33,28,0
591.48584,591.96796,35,33,0
592.02155,592.5037,32,30,0
592.55725,594.22656,33,33,0
594.22656,594.65515,41,32,0
594.65515,594.798,40,27,0
594.7654,594.83374,38,31,0
594.83374,594.90155,40,24,0
594.90155,594.97034,38,31,0
594.97034,595.04016,40,25,0
595.04016,595.13477,38,31,0
595.13477,595.1444,40,26,0
595.2318,595.33276,38,31,0
595.36816,595.8721,37,25,0
595.8721,596.0669,35,23,0
596.0669,597.27344,33,33,0
597.27344,598.44025,37,31,0
598.44025,599.9678,40,29,0
599.9678,605.2619,45,21,0
599.9678,605.2619,33,18,0
599.9678,605.2619,37,18,0
599.9678,605.2619,40,18,0
