start_time,end_time,note_value,velocity,instrument_program_number
0.0011295854,0.47555545,67,60,0
0.47442588,0.542201,69,50,0
0.542201,0.716114,67,60,0
0.716114,0.8841813,64,57,0
0.8841813,1.0522487,60,53,0
1.0522487,1.4769216,67,60,0
1.4769216,1.636734,76,56,0
1.636734,2.815864,76,60,0
2.815864,3.1106465,72,44,0
3.405429,3.879855,67,59,0
3.879855,3.94763,65,50,0
3.94763,4.1283636,64,60,0
4.1283636,4.3038025,60,56,0
4.3038025,4.479241,55,52,0
4.479241,4.653154,60,60,0
4.653154,4.827067,64,57,0
4.827067,5.00098,67,54,0
5.00098,5.1424894,67,56,0
5.00098,5.1424894,64,56,0
5.00098,5.1424894,55,56,0
5.283999,5.419134,55,53,0
5.283999,5.419134,62,53,0
5.283999,5.419134,65,53,0
5.5542693,5.6614122,64,56,0
5.5542693,5.6614122,60,56,0
5.5542693,5.6614122,55,56,0
5.839984,5.952484,62,50,0
5.839984,5.952484,55,50,0
5.839984,5.952484,59,50,0
6.139984,6.247403,60,56,0
6.139984,6.247403,64,56,0
6.139984,6.247403,55,56,0
6.712886,6.858517,67,41,0
6.712886,6.858517,63,41,0
6.712886,6.858517,55,41,0
7.004148,7.144335,62,37,0
7.004148,7.144335,55,37,0
7.004148,7.144335,65,37,0
7.284522,7.391665,63,41,0
7.284522,7.391665,60,41,0
7.284522,7.391665,55,41,0
7.5702367,7.6784096,59,38,0
7.5702367,7.6784096,55,38,0
7.5702367,7.6784096,62,38,0
7.858698,7.96483,63,43,0
7.858698,7.96483,60,43,0
7.858698,7.96483,55,43,0
8.141717,8.244928,62,38,0
8.141717,8.244928,58,38,0
8.141717,8.244928,65,38,0
8.416946,8.680104,65,53,0
8.416946,8.680104,62,53,0
8.416946,8.680104,58,53,0
8.680104,8.890385,67,49,0
8.680104,8.890385,58,49,0
8.680104,8.890385,63,49,0
8.960479,9.230749,63,58,0
8.960479,9.230749,67,58,0
8.960479,9.230749,58,58,0
9.230749,9.445587,69,53,0
9.230749,9.445587,66,53,0
9.230749,9.445587,62,53,0
9.5172,9.794978,62,63,0
9.5172,9.794978,66,63,0
9.5172,9.794978,69,63,0
9.794978,10.009264,70,58,0
9.794978,10.009264,67,58,0
9.794978,10.009264,62,58,0
10.080692,10.366407,67,68,0
10.080692,10.366407,62,68,0
10.080692,10.366407,70,68,0
10.366407,10.712587,71,66,0
10.366407,10.712587,67,66,0
10.366407,10.712587,62,66,0
10.712587,11.69202,71,71,0
10.712587,11.69202,62,71,0
10.712587,11.69202,67,71,0
11.69202,12.049248,71,54,0
11.69202,12.049248,77,54,0
11.69202,12.049248,65,54,0
12.049248,13.817943,76,54,0
12.049248,13.817943,72,54,0
12.049248,13.817943,64,54,0
13.817943,14.292369,67,60,0
14.292369,14.360144,69,50,0
14.360144,14.535583,67,60,0
14.535583,14.706561,64,57,0
14.706561,14.876053,60,53,0
14.876053,15.300726,67,60,0
15.300726,15.460538,76,56,0
15.460538,16.639668,76,60,0
16.639668,16.93445,72,44,0
17.229233,17.70366,67,59,0
17.70366,17.771435,65,50,0
17.771435,17.952168,64,60,0
17.952168,18.127607,60,56,0
18.127607,18.303045,55,52,0
18.303045,18.478483,60,60,0
18.478483,18.653923,64,57,0
18.653923,18.829361,67,57,0
18.829361,18.972218,67,56,0
18.829361,18.972218,64,56,0
18.829361,18.972218,55,56,0
19.115076,19.250212,65,53,0
19.115076,19.250212,62,53,0
19.115076,19.250212,55,53,0
19.385345,19.493519,64,56,0
19.385345,19.493519,60,56,0
19.385345,19.493519,55,56,0
19.673807,19.785194,62,50,0
19.673807,19.785194,59,50,0
19.673807,19.785194,55,50,0
19.970837,20.078257,64,56,0
19.970837,20.078257,60,56,0
19.970837,20.078257,55,56,0
20.54374,20.68937,67,41,0
20.54374,20.68937,63,41,0
20.54374,20.68937,55,41,0
20.835001,20.975187,65,37,0
20.835001,20.975187,62,37,0
20.835001,20.975187,55,37,0
21.115376,21.222519,63,41,0
21.115376,21.222519,60,41,0
21.115376,21.222519,55,41,0
21.401089,21.50623,62,38,0
21.401089,21.50623,59,38,0
21.401089,21.50623,55,38,0
21.681463,21.788607,63,45,0
21.681463,21.788607,60,45,0
21.681463,21.788607,55,45,0
21.967178,22.106068,65,41,0
21.967178,22.106068,62,41,0
21.967178,22.106068,58,41,0
22.244957,22.508114,65,51,0
22.244957,22.508114,62,51,0
22.244957,22.508114,58,51,0
22.508114,22.7224,67,48,0
22.508114,22.7224,63,48,0
22.508114,22.7224,58,48,0
22.793829,23.064098,67,57,0
22.793829,23.064098,63,57,0
22.793829,23.064098,58,57,0
23.064098,23.278936,69,54,0
23.064098,23.278936,66,54,0
23.064098,23.278936,62,54,0
23.35055,23.630924,69,64,0
23.35055,23.630924,66,64,0
23.35055,23.630924,62,64,0
23.630924,23.841204,70,57,0
23.630924,23.841204,67,57,0
23.630924,23.841204,62,57,0
23.911299,24.197012,70,66,0
23.911299,24.197012,67,66,0
23.911299,24.197012,62,66,0
24.197012,24.541206,71,66,0
24.197012,24.541206,67,66,0
24.197012,24.541206,62,66,0
24.541206,25.52064,71,69,0
24.541206,25.52064,67,69,0
24.541206,25.52064,62,69,0
25.52064,25.877867,77,54,0
25.52064,25.877867,71,54,0
25.52064,25.877867,65,54,0
25.877867,27.646563,76,54,0
25.877867,27.646563,72,54,0
25.877867,27.646563,64,54,0
27.646563,28.13855,76,54,0
28.13855,28.208834,77,44,0
28.208834,28.385826,76,54,0
28.385826,28.562817,72,50,0
28.562817,28.68074,69,47,0
28.68074,28.750433,74,44,0
28.750433,28.930614,72,54,0
28.930614,29.110794,69,51,0
29.110794,29.305422,64,47,0
29.305422,29.583975,72,54,0
29.305422,29.583975,69,54,0
29.583975,29.862526,71,51,0
29.583975,29.862526,68,43,0
29.305422,29.862526,64,54,0
29.862526,30.178314,71,54,0
29.862526,30.178314,64,45,0
29.862526,30.178314,68,45,0
30.178314,30.498909,69,51,0
30.178314,30.498909,64,43,0
30.178314,30.498909,66,43,0
30.498909,31.094265,71,54,0
30.498909,31.094265,68,45,0
30.498909,31.094265,64,45,0
31.094265,31.380716,72,54,0
31.380716,31.667168,71,51,0
31.094265,31.667168,67,45,0
31.094265,31.667168,64,45,0
31.667168,31.976446,71,54,0
31.667168,31.976446,67,45,0
31.667168,31.976446,64,45,0
31.976446,32.273476,72,52,0
31.976446,32.273476,67,44,0
31.976446,32.273476,64,44,0
32.273476,32.579597,71,54,0
32.579597,32.88572,77,53,0
32.273476,32.88572,67,45,0
32.88572,33.421436,76,54,0
33.421436,33.497967,74,43,0
33.497967,33.70205,72,53,0
33.70205,33.906128,71,51,0
33.906128,34.11021,69,52,0
34.11021,34.74851,71,55,0
34.74851,35.258217,71,68,0
35.258217,35.320717,72,58,0
35.320717,35.496155,71,68,0
35.496155,35.664223,67,66,0
35.664223,35.808453,64,64,0
35.85653,36.13176,79,82,0
36.13176,36.245396,76,72,0
36.43479,36.93479,71,70,0
36.93479,36.998352,72,60,0
36.998352,37.17379,71,71,0
37.17379,37.341858,67,69,0
37.341858,37.484715,64,66,0
37.532333,37.8059,79,85,0
37.8059,37.915127,76,74,0
38.097164,38.382877,78,90,0
38.097164,38.382877,75,90,0
38.097164,38.382877,83,90,0
38.382877,38.49002,71,87,0
38.597164,38.65864,81,70,0
38.65864,38.828133,79,87,0
38.828133,38.997623,78,83,0
38.997623,39.189987,76,78,0
39.189987,39.467762,78,93,0
39.189987,39.467762,75,93,0
39.189987,39.467762,83,93,0
39.467762,39.57193,71,86,0
39.676098,39.73757,81,74,0
39.73757,39.907063,79,89,0
39.907063,40.076557,78,85,0
40.076557,40.274574,76,82,0
40.274574,40.56855,78,95,0
40.274574,40.56855,75,95,0
40.274574,40.56855,83,95,0
40.56855,40.677773,71,89,0
40.85981,41.168484,95,117,0
41.168484,41.284237,83,93,0
43.11352,43.393898,79,45,0
43.393898,43.538128,76,30,0
43.682358,43.960136,79,43,0
43.960136,44.104366,76,31,0
44.248596,44.528973,79,42,0
44.528973,44.674603,76,31,0
44.820232,45.10061,79,41,0
45.10061,45.243465,76,29,0
45.386322,45.666695,79,38,0
45.666695,45.809555,76,27,0
45.95241,46.232784,79,37,0
46.232784,46.37564,76,26,0
46.5185,46.7896,76,36,0
46.5185,46.7896,79,36,0
46.7896,46.92515,67,27,0
47.0607,47.331802,79,36,0
47.0607,47.331802,76,36,0
47.331802,47.46735,67,27,0
47.6029,47.881454,79,36,0
47.6029,47.881454,76,36,0
47.881454,48.027573,67,27,0
48.187386,48.48217,79,38,0
48.187386,48.48217,76,38,0
48.48217,48.625027,67,29,0
48.767883,49.053596,79,38,0
48.767883,49.053596,76,38,0
49.053596,49.196457,67,27,0
49.339314,49.625027,79,34,0
49.339314,49.625027,76,34,0
49.625027,49.767883,67,26,0
49.910744,50.385166,67,51,0
50.385166,50.45294,69,48,0
50.45294,50.633675,67,57,0
50.633675,50.809116,64,53,0
50.809116,50.984554,60,46,0
50.984554,51.409225,67,57,0
51.409225,51.56904,76,52,0
51.56904,52.640636,76,57,0
52.640636,52.918415,72,35,0
53.212532,53.68696,79,72,0
53.68696,53.754734,77,56,0
53.754734,53.935467,76,68,0
53.935467,54.116203,72,63,0
54.116203,54.296936,67,59,0
54.296936,54.47767,72,69,0
54.47767,54.6584,76,65,0
54.6584,54.839138,79,61,0
54.839138,54.980644,79,70,0
54.839138,54.980644,76,70,0
54.839138,54.980644,67,70,0
55.122154,55.25852,77,66,0
55.122154,55.25852,74,66,0
55.122154,55.25852,67,66,0
55.394882,55.502026,76,70,0
55.394882,55.502026,72,70,0
55.394882,55.502026,67,70,0
55.6806,55.78877,74,63,0
55.6806,55.78877,71,63,0
55.6806,55.78877,67,63,0
55.96906,56.076477,76,70,0
55.96906,56.076477,72,70,0
55.96906,56.076477,67,70,0
56.54196,56.83322,67,45,0
56.83322,56.97341,69,41,0
56.97341,57.113598,71,41,0
57.113598,57.22177,72,45,0
57.402058,57.50819,67,39,0
57.685078,57.79222,72,48,0
57.97079,58.108406,82,67,0
57.97079,58.108406,70,67,0
58.24602,58.37995,82,68,0
58.24602,58.37995,70,68,0
58.513878,58.652767,75,73,0
58.513878,58.652767,87,73,0
58.791656,58.926792,75,78,0
58.791656,58.926792,87,78,0
59.061928,59.200817,74,74,0
59.061928,59.200817,86,74,0
59.339706,59.482563,86,81,0
59.339706,59.482563,74,81,0
59.62542,59.768276,79,79,0
59.62542,59.768276,91,79,0
59.911133,60.05399,91,83,0
59.911133,60.05399,79,83,0
60.19685,60.35176,77,70,0
60.19685,60.35176,89,70,0
60.506668,61.486103,77,66,0
60.506668,61.486103,89,66,0
61.486103,61.84333,83,50,0
61.486103,61.84333,71,50,0
61.84333,63.595364,72,45,0
61.84333,63.595364,84,45,0
63.595364,64.08735,76,54,0
64.08735,64.15763,77,44,0
64.15763,64.33837,76,54,0
64.33837,64.519104,72,50,0
64.519104,64.637024,69,47,0
64.637024,64.70672,74,44,0
64.70672,64.8869,72,54,0
64.8869,65.06708,69,51,0
65.06708,65.26171,64,47,0
65.26171,65.54026,72,54,0
65.26171,65.54026,69,45,0
65.54026,65.81881,71,51,0
65.54026,65.81881,68,43,0
65.26171,65.81881,64,45,0
65.81881,66.1346,71,54,0
65.81881,66.1346,64,45,0
65.81881,66.1346,68,45,0
66.1346,66.45519,69,51,0
66.1346,66.45519,64,43,0
66.1346,66.45519,66,43,0
66.45519,67.05055,71,54,0
66.45519,67.05055,68,45,0
66.45519,67.05055,64,45,0
67.05055,67.337006,72,54,0
67.337006,67.62345,71,51,0
67.05055,67.62345,67,45,0
67.05055,67.62345,64,45,0
67.62345,67.93273,71,54,0
67.62345,67.93273,67,45,0
67.62345,67.93273,64,45,0
67.93273,68.22399,72,52,0
67.93273,68.22399,67,44,0
67.93273,68.22399,64,44,0
68.22399,68.53011,71,54,0
68.53011,68.836235,77,53,0
68.22399,68.836235,67,45,0
68.836235,69.371956,76,54,0
69.371956,69.44849,74,43,0
69.44849,69.652565,72,53,0
69.652565,69.85664,71,51,0
69.85664,70.06073,69,52,0
70.06073,70.69903,71,55,0
70.69903,71.20873,71,68,0
71.20873,71.27176,72,58,0
71.27176,71.44875,71,68,0
71.44875,71.61682,67,66,0
71.61682,71.765335,64,64,0
71.814835,72.09261,79,82,0
72.09261,72.2149,76,72,0
72.4187,72.92351,71,70,0
72.92351,72.986534,72,56,0
72.986534,73.16353,71,71,0
73.16353,73.3316,67,69,0
73.3316,73.4816,64,66,0
73.53159,73.801865,79,85,0
73.801865,73.916664,76,74,0
74.10799,74.39645,78,90,0
74.10799,74.39645,75,90,0
74.10799,74.39645,83,90,0
74.39645,74.50462,71,87,0
74.61279,74.67478,81,71,0
74.67478,74.84284,79,87,0
74.84284,75.01091,78,83,0
75.01091,75.2167,76,78,0
75.2167,75.49972,78,93,0
75.2167,75.49972,75,93,0
75.2167,75.49972,83,93,0
75.49972,75.60585,71,86,0
75.711975,75.77296,81,74,0
75.77296,75.94389,79,89,0
75.94389,76.109184,78,85,0
76.109184,76.30336,76,82,0
76.30336,76.58638,78,95,0
76.30336,76.58638,75,95,0
76.30336,76.58638,83,95,0
76.58638,76.69455,71,89,0
76.87484,77.18351,95,114,0
77.18351,77.29926,83,93,0
79.12855,79.40893,79,45,0
79.40893,79.553154,76,30,0
79.69739,79.97517,79,43,0
79.97517,80.11802,76,31,0
80.26088,80.54125,79,42,0
80.54125,80.68688,76,31,0
80.83251,81.11289,79,41,0
81.11289,81.255745,76,29,0
81.398605,81.67898,79,38,0
81.67898,81.82184,76,27,0
81.96469,82.24506,79,37,0
82.24506,82.387924,76,26,0
82.53078,82.80188,76,36,0
82.53078,82.80188,79,36,0
82.80188,82.93743,67,27,0
83.07298,83.340675,79,36,0
83.07298,83.340675,76,36,0
83.340675,83.47111,67,27,0
83.60154,83.8801,79,36,0
83.60154,83.8801,76,36,0
83.8801,84.026215,67,27,0
84.18603,84.48081,79,38,0
84.18603,84.48081,76,38,0
84.48081,84.623665,67,29,0
84.766525,85.05224,79,38,0
84.766525,85.05224,76,38,0
85.05224,85.1951,67,27,0
85.33795,85.623665,79,34,0
85.33795,85.623665,76,34,0
85.623665,85.766525,67,26,0
85.90938,86.383804,67,51,0
86.383804,86.451584,69,48,0
86.451584,86.63232,67,57,0
86.63232,86.807755,64,53,0
86.807755,86.98319,60,46,0
86.98319,87.40787,67,57,0
87.40787,87.56768,76,52,0
87.56768,88.639275,76,57,0
88.639275,88.91705,72,35,0
89.211174,89.6856,79,72,0
89.6856,89.75337,77,56,0
89.75337,89.934105,76,68,0
89.934105,90.114845,72,63,0
90.114845,90.29558,67,59,0
90.29558,90.47631,72,69,0
90.47631,90.65704,76,65,0
90.65704,90.837776,79,61,0
90.837776,90.98064,79,70,0
90.837776,90.98064,76,70,0
90.837776,90.98064,67,70,0
91.12349,91.26111,77,66,0
91.12349,91.26111,74,66,0
91.12349,91.26111,67,66,0
91.39872,91.5069,76,70,0
91.39872,91.5069,72,70,0
91.39872,91.5069,67,70,0
91.68718,91.79748,74,63,0
91.68718,91.79748,71,63,0
91.68718,91.79748,67,63,0
91.9813,92.088715,76,70,0
91.9813,92.088715,72,70,0
91.9813,92.088715,67,70,0
92.5542,92.8542,67,45,0
92.8542,92.990974,69,41,0
92.990974,93.12775,71,41,0
93.12775,93.23592,72,45,0
93.416214,93.52335,67,39,0
93.70193,93.80806,72,48,0
93.98495,94.12383,82,64,0
93.98495,94.12383,70,64,0
94.262726,94.39707,82,66,0
94.262726,94.39707,70,66,0
94.53142,94.67031,75,71,0
94.53142,94.67031,87,71,0
94.8092,94.944336,75,74,0
94.8092,94.944336,87,74,0
95.07947,95.2198,74,70,0
95.07947,95.2198,86,70,0
95.35869,95.50155,86,79,0
95.35869,95.50155,74,79,0
95.64441,95.78726,79,81,0
95.64441,95.78726,91,81,0
95.93012,96.072975,91,85,0
95.93012,96.072975,79,85,0
96.215836,96.37074,77,70,0
96.215836,96.37074,89,70,0
96.52566,97.50509,77,66,0
96.52566,97.50509,89,66,0
97.50509,97.86232,83,50,0
97.50509,97.86232,71,50,0
97.86232,99.578545,72,45,0
97.86232,99.578545,84,45,0
99.61435,99.79453,67,50,0
99.79453,99.97471,62,40,0
99.97471,100.15489,59,34,0
100.15489,100.33507,67,47,0
100.33507,100.51525,62,37,0
100.51525,100.69543,59,32,0
100.69543,100.880615,66,47,0
100.880615,101.0658,62,38,0
101.0658,101.25811,57,33,0
101.25811,101.438286,69,50,0
101.438286,101.61847,62,41,0
101.61847,101.79865,60,33,0
101.79865,101.97883,69,48,0
101.97883,102.15901,62,38,0
102.15901,102.33919,60,30,0
102.33919,102.51937,67,48,0
102.51937,102.699554,62,38,0
102.699554,102.87973,59,31,0
102.87973,103.05991,67,47,0
103.05991,103.24859,62,38,0
103.24859,103.442764,59,31,0
103.442764,103.740234,69,56,0
103.442764,103.740234,66,47,0
103.442764,103.740234,62,47,0
103.740234,104.06275,71,61,0
103.740234,104.06275,67,51,0
103.740234,104.06275,62,51,0
104.06275,104.51977,72,64,0
104.06275,104.51977,69,55,0
104.06275,104.51977,62,55,0
104.51977,104.67639,71,59,0
104.51977,104.67639,67,49,0
104.51977,104.67639,62,49,0
104.67639,105.30153,71,53,0
104.67639,105.30153,67,45,0
104.67639,105.30153,62,45,0
105.30153,105.63457,69,37,0
105.30153,105.63457,66,31,0
105.30153,105.63457,62,31,0
105.63457,105.95371,67,35,0
105.63457,105.95371,64,29,0
105.63457,105.95371,62,29,0
105.95371,106.59201,69,37,0
105.95371,106.59201,66,31,0
105.95371,106.59201,62,31,0
106.59201,106.772194,67,50,0
106.772194,106.95237,62,40,0
106.95237,107.13255,71,34,0
107.13255,107.31274,67,47,0
107.31274,107.49291,62,37,0
107.49291,107.673096,71,32,0
107.673096,107.85828,66,47,0
107.85828,108.043465,62,38,0
108.043465,108.23577,69,33,0
106.59201,108.23577,74,53,0
108.23577,108.415955,69,50,0
108.415955,108.59613,62,41,0
108.59613,108.77631,72,33,0
108.77631,108.9565,69,48,0
108.9565,109.13667,62,38,0
109.13667,109.31686,72,30,0
109.31686,109.50204,67,48,0
109.50204,109.687225,62,38,0
109.687225,109.88525,71,31,0
108.23577,109.88525,74,53,0
109.88525,110.173706,62,70,0
110.173706,110.489494,74,68,0
110.489494,110.786964,76,66,0
110.489494,110.786964,64,56,0
110.786964,111.1203,78,72,0
110.786964,111.1203,66,61,0
111.1203,111.58422,79,82,0
111.1203,111.58422,67,69,0
111.58422,111.73886,71,55,0
111.58422,111.73886,67,46,0
111.58422,111.73886,62,46,0
111.73886,112.374084,74,61,0
111.73886,112.374084,71,51,0
111.73886,112.374084,62,51,0
112.374084,112.86669,72,50,0
112.374084,112.86669,66,42,0
112.374084,112.86669,62,42,0
112.86669,113.02627,71,44,0
112.86669,113.02627,67,37,0
112.86669,113.02627,62,37,0
113.02627,113.664566,71,41,0
113.02627,113.664566,67,34,0
113.02627,113.664566,62,34,0
113.664566,113.84475,67,50,0
113.84475,114.024925,62,40,0
114.024925,114.20511,59,34,0
114.20511,114.385284,67,47,0
114.385284,114.56547,62,37,0
114.56547,114.74565,59,32,0
114.74565,114.93083,66,47,0
114.93083,115.11602,62,38,0
115.11602,115.30833,57,33,0
115.30833,115.4885,69,50,0
115.4885,115.668686,62,41,0
115.668686,115.84887,60,33,0
115.84887,116.029045,69,48,0
116.029045,116.20923,62,38,0
116.20923,116.389404,60,30,0
116.389404,116.56959,67,48,0
116.56959,116.74977,62,38,0
116.74977,116.92995,59,31,0
116.92995,117.11013,67,47,0
117.11013,117.298805,62,38,0
117.298805,117.49298,59,31,0
117.49298,117.79045,69,59,0
117.49298,117.79045,66,49,0
117.49298,117.79045,62,49,0
117.79045,118.11297,71,61,0
117.79045,118.11297,67,51,0
117.79045,118.11297,62,51,0
118.11297,118.569984,72,63,0
118.11297,118.569984,69,53,0
118.11297,118.569984,62,53,0
118.569984,118.72661,71,59,0
118.569984,118.72661,67,49,0
118.569984,118.72661,62,49,0
118.72661,119.351746,71,53,0
118.72661,119.351746,67,45,0
118.72661,119.351746,62,45,0
119.351746,119.684784,69,37,0
119.351746,119.684784,66,31,0
119.351746,119.684784,62,31,0
119.684784,120.00393,67,29,0
119.684784,120.00393,64,29,0
119.684784,120.00393,62,29,0
120.00393,120.64223,69,37,0
120.00393,120.64223,66,31,0
120.00393,120.64223,62,31,0
120.64223,120.82241,67,50,0
120.82241,121.00259,62,40,0
121.00259,121.18277,71,34,0
121.18277,121.36295,67,47,0
121.36295,121.54313,62,37,0
121.54313,121.72331,71,32,0
121.72331,121.90849,66,47,0
121.90849,122.09368,62,38,0
122.09368,122.28599,69,33,0
120.64223,122.28599,74,53,0
122.28599,122.46617,69,50,0
122.46617,122.64635,62,41,0
122.64635,122.82653,72,33,0
122.82653,123.006714,69,48,0
123.006714,123.18689,62,38,0
123.18689,123.36707,72,30,0
123.36707,123.55225,67,48,0
123.55225,123.73744,62,38,0
123.73744,123.93546,71,31,0
122.28599,123.93546,74,53,0
123.93546,124.22392,62,70,0
124.22392,124.53971,74,68,0
124.53971,124.83718,76,66,0
124.53971,124.83718,64,56,0
124.83718,125.17052,78,72,0
124.83718,125.17052,66,61,0
125.17052,125.63444,79,81,0
125.17052,125.63444,67,68,0
125.63444,125.78908,71,55,0
125.63444,125.78908,67,46,0
125.63444,125.78908,62,46,0
125.78908,126.4243,74,61,0
125.78908,126.4243,71,51,0
125.78908,126.4243,62,51,0
126.4243,126.91691,72,50,0
126.4243,126.91691,66,42,0
126.4243,126.91691,62,42,0
126.91691,127.076485,71,44,0
126.91691,127.076485,67,37,0
126.91691,127.076485,62,37,0
127.076485,127.701485,71,41,0
127.076485,127.701485,67,34,0
127.076485,127.701485,62,34,0
127.71478,128.29607,69,44,0
127.71478,128.29607,66,37,0
127.71478,128.29607,57,37,0
128.29607,128.73203,67,38,0
128.29607,128.73203,64,32,0
128.29607,128.73203,57,32,0
128.73203,128.87735,66,36,0
128.73203,128.87735,62,30,0
128.73203,128.87735,57,30,0
128.87735,129.45863,66,38,0
128.87735,129.45863,62,32,0
128.87735,129.45863,57,32,0
129.45863,129.89459,74,44,0
129.45863,129.89459,66,37,0
129.89459,130.03992,76,41,0
129.89459,130.03992,67,35,0
130.03992,130.6212,74,48,0
130.03992,130.6212,66,40,0
130.6212,130.91183,76,44,0
130.6212,130.91183,69,37,0
131.20248,131.77245,71,56,0
131.20248,131.77245,67,47,0
131.20248,131.77245,57,47,0
131.77245,132.19992,69,48,0
131.77245,132.19992,66,40,0
131.77245,132.19992,57,40,0
132.19992,132.3424,67,38,0
132.19992,132.3424,64,32,0
132.19992,132.3424,57,32,0
132.3424,132.93967,67,42,0
132.3424,132.93967,64,35,0
132.3424,132.93967,57,35,0
132.93967,133.3734,76,50,0
132.93967,133.3734,69,42,0
133.3734,133.51729,78,47,0
133.3734,133.51729,74,39,0
133.51729,134.0929,76,52,0
133.51729,134.0929,69,44,0
134.0929,134.38069,78,49,0
134.0929,134.38069,74,41,0
134.68332,135.2646,74,67,0
134.68332,135.2646,66,56,0
135.2646,135.56111,73,45,0
135.2646,135.56111,69,38,0
135.56111,135.8701,71,45,0
135.56111,135.8701,67,38,0
135.8701,136.46913,69,57,0
135.8701,136.46913,66,48,0
135.8701,136.46913,57,48,0
136.46913,136.76564,67,45,0
136.46913,136.76564,64,38,0
136.46913,136.76564,57,38,0
136.76564,137.07463,66,45,0
136.76564,137.07463,62,38,0
136.76564,137.07463,57,38,0
137.07463,137.6799,71,58,0
137.07463,137.6799,67,49,0
137.07463,137.6799,57,49,0
137.6799,137.98889,69,50,0
137.6799,137.98889,66,42,0
137.6799,137.98889,57,42,0
137.98889,138.29788,67,49,0
137.98889,138.29788,64,41,0
137.98889,138.29788,57,41,0
138.29788,138.60687,66,52,0
138.29788,138.60687,62,44,0
138.60687,138.91586,64,48,0
138.60687,138.91586,57,40,0
138.91586,140.09831,62,53,0
138.91586,140.09831,54,45,0
140.09831,140.6796,69,50,0
140.09831,140.6796,66,42,0
140.09831,140.6796,57,42,0
140.6796,141.11555,67,47,0
140.6796,141.11555,64,39,0
140.6796,141.11555,57,39,0
141.11555,141.26088,66,46,0
141.11555,141.26088,62,39,0
141.11555,141.26088,57,39,0
141.26088,141.84216,66,48,0
141.26088,141.84216,62,40,0
141.26088,141.84216,57,40,0
141.84216,142.42345,69,57,0
141.84216,142.42345,66,48,0
141.84216,142.42345,57,48,0
142.42345,142.8594,67,54,0
142.42345,142.8594,64,45,0
142.42345,142.8594,57,45,0
142.8594,143.00473,66,45,0
142.8594,143.00473,62,45,0
142.8594,143.00473,57,45,0
143.00473,143.611,66,56,0
143.00473,143.611,62,47,0
143.00473,143.611,57,47,0
143.611,144.19228,66,59,0
143.611,144.19228,62,59,0
143.611,144.19228,72,70,0
144.19228,144.62823,71,64,0
144.19228,144.62823,62,54,0
144.19228,144.62823,67,54,0
144.62823,144.77356,66,50,0
144.62823,144.77356,62,50,0
144.62823,144.77356,69,59,0
144.77356,145.38678,66,51,0
144.77356,145.38678,62,51,0
144.77356,145.38678,69,61,0
145.38678,145.99834,76,74,0
145.38678,145.99834,72,62,0
145.38678,145.99834,62,62,0
145.99834,146.47177,74,70,0
145.99834,146.47177,71,59,0
145.99834,146.47177,62,59,0
146.47177,146.62958,72,67,0
146.47177,146.62958,69,56,0
146.47177,146.62958,62,56,0
146.62958,147.26083,69,59,0
146.62958,147.26083,72,70,0
146.62958,147.26083,62,59,0
147.26083,147.87881,72,52,0
147.26083,147.87881,62,44,0
147.26083,147.87881,57,44,0
147.87881,148.3423,71,46,0
147.87881,148.3423,62,39,0
147.87881,148.3423,59,39,0
148.3423,148.4968,69,42,0
148.3423,148.4968,62,35,0
148.3423,148.4968,60,35,0
148.4968,150.78328,69,42,0
148.4968,150.78328,62,35,0
148.4968,150.78328,60,35,0
150.78328,150.96346,67,50,0
150.96346,151.14363,62,40,0
151.14363,151.32382,58,34,0
151.32382,151.504,67,47,0
151.504,151.68417,62,37,0
151.68417,151.86436,58,32,0
151.86436,152.04955,66,47,0
152.04955,152.23473,62,38,0
152.23473,152.42703,57,33,0
152.42703,152.60722,69,50,0
152.60722,152.7874,62,41,0
152.7874,152.96758,60,33,0
152.96758,153.14775,69,48,0
153.14775,153.32794,62,38,0
153.32794,153.50812,60,30,0
153.50812,153.6883,67,48,0
153.6883,153.86848,62,38,0
153.86848,154.04866,58,31,0
154.04866,154.22884,67,47,0
154.22884,154.41753,62,38,0
154.41753,154.6117,58,31,0
154.6117,154.90916,69,53,0
154.6117,154.90916,66,45,0
154.6117,154.90916,62,45,0
154.90916,155.23167,70,56,0
154.90916,155.23167,67,47,0
154.90916,155.23167,62,47,0
155.23167,155.68227,72,58,0
155.23167,155.68227,69,49,0
155.23167,155.68227,62,49,0
155.68227,155.83246,70,54,0
155.68227,155.83246,67,45,0
155.68227,155.83246,62,45,0
155.83246,156.4588,70,53,0
155.83246,156.4588,67,45,0
155.83246,156.4588,62,45,0
156.4588,156.79182,69,37,0
156.4588,156.79182,66,31,0
156.4588,156.79182,62,31,0
156.79182,157.11098,67,35,0
156.79182,157.11098,64,29,0
156.79182,157.11098,62,29,0
157.11098,157.74928,69,37,0
157.11098,157.74928,66,31,0
157.11098,157.74928,62,31,0
157.74928,157.92946,67,50,0
157.92946,158.10963,62,40,0
158.10963,158.28983,71,34,0
158.28983,158.47,67,47,0
158.47,158.65018,62,37,0
158.65018,158.83035,71,32,0
158.83035,159.01555,66,47,0
159.01555,159.20073,62,38,0
159.20073,159.39304,69,33,0
157.74928,159.39304,74,53,0
159.39304,159.57321,69,50,0
159.57321,159.7534,62,41,0
159.7534,159.93358,72,33,0
159.93358,160.11375,69,48,0
160.11375,160.29395,62,38,0
160.29395,160.47412,72,30,0
160.47412,160.6593,67,48,0
160.6593,160.8445,62,38,0
160.8445,161.04251,71,31,0
159.39304,161.04251,74,53,0
161.04251,161.33098,62,70,0
161.33098,161.64676,74,68,0
161.64676,161.94423,76,66,0
161.64676,161.94423,64,56,0
161.94423,162.27757,78,74,0
161.94423,162.27757,66,62,0
162.27757,162.74149,79,83,0
162.27757,162.74149,67,70,0
162.74149,162.89612,71,55,0
162.74149,162.89612,67,46,0
162.74149,162.89612,62,46,0
162.89612,163.53134,74,61,0
162.89612,163.53134,71,51,0
162.89612,163.53134,62,51,0
163.53134,164.02396,72,50,0
163.53134,164.02396,66,42,0
163.53134,164.02396,62,42,0
164.02396,164.18353,71,44,0
164.02396,164.18353,67,37,0
164.02396,164.18353,62,37,0
164.18353,164.82184,71,41,0
164.18353,164.82184,67,34,0
164.18353,164.82184,62,34,0
164.82184,165.40312,69,44,0
164.82184,165.40312,66,37,0
164.82184,165.40312,57,37,0
165.40312,165.83908,67,38,0
165.40312,165.83908,64,32,0
165.40312,165.83908,57,32,0
165.83908,165.9844,66,36,0
165.83908,165.9844,62,30,0
165.83908,165.9844,57,30,0
165.9844,166.56567,66,38,0
165.9844,166.56567,62,32,0
165.9844,166.56567,57,32,0
166.56567,167.00165,74,44,0
166.56567,167.00165,66,37,0
167.00165,167.14696,76,41,0
167.00165,167.14696,67,35,0
167.14696,167.72824,74,48,0
167.14696,167.72824,66,40,0
167.72824,168.01889,76,44,0
167.72824,168.01889,69,37,0
168.30952,168.87949,71,55,0
168.30952,168.87949,67,46,0
168.30952,168.87949,57,46,0
168.87949,169.30696,69,47,0
168.87949,169.30696,66,39,0
168.87949,169.30696,57,39,0
169.30696,169.44946,67,38,0
169.30696,169.44946,64,32,0
169.30696,169.44946,57,32,0
169.44946,170.0467,67,42,0
169.44946,170.0467,64,35,0
169.44946,170.0467,57,35,0
170.0467,170.48044,76,50,0
170.0467,170.48044,69,42,0
170.48044,170.62434,78,47,0
170.48044,170.62434,74,39,0
170.62434,171.19994,76,52,0
170.62434,171.19994,69,44,0
171.19994,171.48773,78,49,0
171.19994,171.48773,74,41,0
171.79037,172.37166,74,61,0
171.79037,172.37166,66,51,0
172.37166,172.66815,73,45,0
172.37166,172.66815,69,38,0
172.66815,172.97714,71,45,0
172.66815,172.97714,67,38,0
172.97714,173.57619,69,57,0
172.97714,173.57619,66,48,0
172.97714,173.57619,57,48,0
173.57619,173.8727,67,45,0
173.57619,173.8727,64,38,0
173.57619,173.8727,57,38,0
173.8727,174.18169,66,38,0
173.8727,174.18169,62,38,0
173.8727,174.18169,57,38,0
174.18169,174.78694,71,58,0
174.18169,174.78694,67,49,0
174.18169,174.78694,57,49,0
174.78694,175.09593,69,50,0
174.78694,175.09593,66,42,0
174.78694,175.09593,57,42,0
175.09593,175.40492,67,49,0
175.09593,175.40492,64,41,0
175.09593,175.40492,57,41,0
175.40492,175.71393,66,52,0
175.40492,175.71393,62,44,0
175.71393,176.02292,64,48,0
175.71393,176.02292,57,40,0
176.02292,177.20535,62,53,0
176.02292,177.20535,54,45,0
177.20535,177.78664,69,52,0
177.20535,177.78664,66,44,0
177.20535,177.78664,57,44,0
177.78664,178.22261,67,49,0
177.78664,178.22261,64,41,0
177.78664,178.22261,57,41,0
178.22261,178.36792,66,46,0
178.22261,178.36792,62,39,0
178.22261,178.36792,57,39,0
178.36792,178.9492,66,48,0
178.36792,178.9492,62,40,0
178.36792,178.9492,57,40,0
178.9492,179.53049,69,57,0
178.9492,179.53049,66,57,0
178.9492,179.53049,57,48,0
179.53049,179.96645,67,54,0
179.53049,179.96645,64,45,0
179.53049,179.96645,57,45,0
179.96645,180.11177,66,53,0
179.96645,180.11177,62,45,0
179.96645,180.11177,57,45,0
180.11177,180.71803,66,56,0
180.11177,180.71803,62,47,0
180.11177,180.71803,57,47,0
180.71803,181.29932,66,59,0
180.71803,181.29932,62,59,0
180.71803,181.29932,72,70,0
181.29932,181.73529,71,66,0
181.29932,181.73529,62,56,0
181.29932,181.73529,67,66,0
181.73529,181.8806,66,50,0
181.73529,181.8806,62,50,0
181.73529,181.8806,69,59,0
181.8806,182.49382,66,51,0
181.8806,182.49382,62,51,0
181.8806,182.49382,69,61,0
182.49382,183.10538,76,72,0
182.49382,183.10538,72,61,0
182.49382,183.10538,62,61,0
183.10538,183.57883,74,70,0
183.10538,183.57883,71,59,0
183.10538,183.57883,62,59,0
183.57883,183.73663,72,67,0
183.57883,183.73663,69,56,0
183.57883,183.73663,62,56,0
183.73663,184.36787,69,59,0
183.73663,184.36787,72,70,0
183.73663,184.36787,62,59,0
184.36787,184.98586,72,52,0
184.36787,184.98586,62,44,0
184.36787,184.98586,57,44,0
184.98586,185.44936,71,46,0
184.98586,185.44936,62,39,0
184.98586,185.44936,59,39,0
185.44936,185.60385,69,42,0
185.44936,185.60385,62,35,0
185.44936,185.60385,60,35,0
185.60385,187.89032,69,42,0
185.60385,187.89032,62,35,0
185.60385,187.89032,60,35,0
187.89032,188.07051,67,50,0
188.07051,188.25069,62,40,0
188.25069,188.43086,58,34,0
188.43086,188.61105,67,47,0
188.61105,188.79123,62,37,0
188.79123,188.9714,58,32,0
188.9714,189.1566,66,47,0
189.1566,189.34178,62,38,0
189.34178,189.53409,57,33,0
189.53409,189.71426,69,50,0
189.71426,189.89444,62,41,0
189.89444,190.07463,60,33,0
190.07463,190.2548,69,48,0
190.2548,190.43498,62,38,0
190.43498,190.61517,60,30,0
190.61517,190.79535,67,48,0
190.79535,190.97552,62,38,0
190.97552,191.15572,58,31,0
191.15572,191.33589,67,47,0
191.33589,191.52457,62,38,0
191.52457,191.71875,58,31,0
191.71875,192.01622,69,53,0
191.71875,192.01622,66,45,0
191.71875,192.01622,62,45,0
192.01622,192.33873,70,55,0
192.01622,192.33873,67,46,0
192.01622,192.33873,62,46,0
192.33873,192.7893,72,59,0
192.33873,192.7893,69,59,0
192.33873,192.7893,62,50,0
192.7893,192.93951,70,54,0
192.7893,192.93951,67,45,0
192.7893,192.93951,62,45,0
192.93951,193.56584,70,53,0
192.93951,193.56584,67,45,0
192.93951,193.56584,62,45,0
193.56584,193.89888,69,37,0
193.56584,193.89888,66,31,0
193.56584,193.89888,62,31,0
193.89888,194.21803,67,35,0
193.89888,194.21803,64,29,0
193.89888,194.21803,62,29,0
194.21803,194.85632,69,37,0
194.21803,194.85632,66,31,0
194.21803,194.85632,62,31,0
194.85632,195.03651,67,50,0
195.03651,195.21669,62,40,0
195.21669,195.39687,71,34,0
195.39687,195.57704,67,47,0
195.57704,195.75723,62,37,0
195.75723,195.93741,71,32,0
195.93741,196.12259,66,47,0
196.12259,196.30779,62,38,0
196.30779,196.50009,69,33,0
194.85632,196.50009,74,53,0
196.50009,196.68027,69,50,0
196.68027,196.86044,62,41,0
196.86044,197.04063,72,33,0
197.04063,197.22081,69,48,0
197.22081,197.40099,62,38,0
197.40099,197.58118,72,30,0
197.58118,197.76636,67,48,0
197.76636,197.95154,62,38,0
197.95154,198.14957,71,31,0
196.50009,198.14957,74,53,0
198.14957,198.43802,62,70,0
198.43802,198.75381,74,68,0
198.75381,199.05128,76,66,0
198.75381,199.05128,64,56,0
199.05128,199.38461,78,73,0
199.05128,199.38461,66,62,0
199.38461,199.84854,79,82,0
199.38461,199.84854,67,69,0
199.84854,200.00317,71,55,0
199.84854,200.00317,67,46,0
199.84854,200.00317,62,46,0
200.00317,200.6384,74,61,0
200.00317,200.6384,71,61,0
200.6384,201.13101,72,50,0
200.6384,201.13101,66,42,0
200.6384,201.13101,62,42,0
201.13101,201.29059,71,44,0
201.13101,201.29059,67,37,0
201.13101,201.29059,62,37,0
201.29059,201.92888,71,41,0
201.29059,201.92888,67,34,0
201.29059,201.92888,62,34,0
201.92888,202.51016,72,40,0
201.92888,202.51016,67,40,0
201.92888,202.51016,64,40,0
202.51016,202.94612,71,38,0
202.51016,202.94612,67,38,0
202.51016,202.94612,62,38,0
202.94612,203.09145,69,36,0
202.94612,203.09145,67,36,0
202.94612,203.09145,60,36,0
203.09145,203.67273,69,38,0
203.09145,203.67273,67,38,0
203.09145,203.67273,60,38,0
203.67273,204.25401,71,40,0
203.67273,204.25401,62,40,0
204.25401,204.68997,69,38,0
204.25401,204.68997,62,38,0
204.25401,204.68997,60,38,0
204.68997,204.8353,67,36,0
204.68997,204.8353,62,36,0
204.68997,204.8353,59,36,0
204.8353,205.43207,67,38,0
204.8353,205.43207,62,38,0
204.8353,205.43207,59,38,0
205.43207,206.01334,69,40,0
205.43207,206.01334,62,40,0
205.43207,206.01334,60,40,0
206.01334,206.44931,67,38,0
206.01334,206.44931,62,38,0
206.01334,206.44931,59,38,0
206.44931,206.59462,66,36,0
206.44931,206.59462,60,36,0
206.44931,206.59462,57,36,0
206.59462,207.1759,66,38,0
206.59462,207.1759,60,38,0
206.59462,207.1759,57,38,0
207.1759,207.75719,67,40,0
207.1759,207.75719,59,40,0
207.75719,208.19316,62,38,0
207.75719,208.19316,57,38,0
208.19316,208.33847,59,36,0
208.19316,208.33847,55,36,0
208.33847,208.93214,59,38,0
208.33847,208.93214,55,38,0
208.93214,209.53215,65,38,0
208.93214,209.53215,62,38,0
208.93214,209.53215,55,38,0
209.53215,209.98215,64,36,0
209.53215,209.98215,60,36,0
209.53215,209.98215,55,36,0
209.98215,210.13214,62,34,0
209.98215,210.13214,59,34,0
209.98215,210.13214,55,34,0
210.13214,210.73215,62,36,0
210.13214,210.73215,59,36,0
210.13214,210.73215,55,36,0
210.73215,211.32524,65,38,0
210.73215,211.32524,69,38,0
210.73215,211.32524,59,38,0
211.32524,211.76213,64,34,0
211.32524,211.76213,67,34,0
211.32524,211.76213,59,34,0
211.76213,211.90778,65,31,0
211.76213,211.90778,59,31,0
211.76213,211.90778,62,31,0
211.90778,212.50516,62,32,0
211.90778,212.50516,59,32,0
211.90778,212.50516,65,32,0
212.50516,213.48239,69,36,0
213.48239,213.82076,68,36,0
213.82076,214.2005,67,36,0
214.2005,214.61717,69,36,0
212.50516,214.61717,65,36,0
212.50516,214.61717,59,36,0
214.61717,215.49953,69,36,0
215.49953,217.16618,67,36,0
214.61717,217.16618,65,36,0
214.61717,217.16618,59,36,0
217.16731,217.64174,67,60,0
217.64061,217.70839,69,50,0
217.70839,217.88383,67,60,0
217.88383,218.05331,64,57,0
218.05331,218.22281,60,53,0
218.22281,218.64749,67,60,0
218.64749,218.8073,76,56,0
218.8073,219.98643,76,60,0
219.98643,220.2812,72,44,0
220.57599,221.05042,67,59,0
221.05042,221.1182,65,50,0
221.1182,221.29892,64,60,0
221.29892,221.47966,60,56,0
221.47966,221.6604,55,52,0
221.6604,221.83739,60,60,0
221.83739,222.01437,64,57,0
222.01437,222.19136,67,54,0
222.19136,222.3356,67,56,0
222.19136,222.3356,64,56,0
222.19136,222.3356,55,56,0
222.47983,222.61745,65,53,0
222.47983,222.61745,62,53,0
222.47983,222.61745,55,53,0
222.75507,222.8622,64,56,0
222.75507,222.8622,60,56,0
222.75507,222.8622,55,56,0
223.04077,223.15106,62,50,0
223.04077,223.15106,59,50,0
223.04077,223.15106,55,50,0
223.33488,223.47812,64,56,0
223.33488,223.47812,60,56,0
223.33488,223.47812,55,56,0
223.90779,224.05342,67,41,0
223.90779,224.05342,63,41,0
223.90779,224.05342,55,41,0
224.19905,224.33925,65,37,0
224.19905,224.33925,62,37,0
224.19905,224.33925,55,37,0
224.47943,224.58556,63,41,0
224.47943,224.58556,60,41,0
224.47943,224.58556,55,41,0
224.76245,224.86958,62,38,0
224.76245,224.86958,59,38,0
224.76245,224.86958,55,38,0
225.04816,225.1553,63,41,0
225.04816,225.1553,60,41,0
225.04816,225.1553,55,41,0
225.33388,225.43709,65,38,0
225.33388,225.43709,62,38,0
225.33388,225.43709,58,38,0
225.6091,225.8778,65,50,0
225.6091,225.8778,62,50,0
225.6091,225.8778,58,50,0
225.8778,226.08614,67,48,0
225.8778,226.08614,63,48,0
225.8778,226.08614,58,48,0
226.15558,226.4316,67,52,0
226.15558,226.4316,63,52,0
226.15558,226.4316,58,52,0
226.4316,226.64644,69,54,0
226.4316,226.64644,66,54,0
226.4316,226.64644,62,54,0
226.71805,226.99582,69,60,0
226.71805,226.99582,66,60,0
226.71805,226.99582,62,60,0
226.99582,227.21011,70,57,0
226.99582,227.21011,67,57,0
226.99582,227.21011,62,57,0
227.28154,227.56726,70,66,0
227.28154,227.56726,67,66,0
227.28154,227.56726,62,66,0
227.56726,227.91953,71,64,0
227.56726,227.91953,67,64,0
227.56726,227.91953,62,64,0
227.91953,228.89896,71,70,0
227.91953,228.89896,67,70,0
227.91953,228.89896,62,70,0
228.89896,229.2562,77,54,0
228.89896,229.2562,71,54,0
228.89896,229.2562,65,54,0
229.2562,231.02489,76,54,0
229.2562,231.02489,72,54,0
229.2562,231.02489,64,54,0
231.02489,231.51688,76,54,0
231.51688,231.58716,77,44,0
231.58716,231.7679,76,54,0
231.7679,231.94862,72,50,0
231.94862,232.06654,69,47,0
232.06654,232.13625,74,44,0
232.13625,232.31642,72,54,0
232.31642,232.4966,69,51,0
232.4966,232.69124,64,47,0
232.69124,232.96979,72,54,0
232.69124,232.96979,69,45,0
232.96979,233.24834,71,51,0
232.96979,233.24834,68,43,0
232.69124,233.24834,64,45,0
233.24834,233.56412,71,54,0
233.24834,233.56412,64,45,0
233.24834,233.56412,68,54,0
233.56412,233.88472,69,51,0
233.56412,233.88472,64,43,0
233.56412,233.88472,66,43,0
233.88472,234.48007,71,54,0
233.88472,234.48007,68,45,0
233.88472,234.48007,64,45,0
234.48007,234.76653,72,54,0
234.76653,235.05298,71,51,0
234.48007,235.05298,67,45,0
234.48007,235.05298,64,45,0
235.05298,235.36548,71,54,0
235.05298,235.36548,67,45,0
235.05298,235.36548,64,45,0
235.36548,235.65674,72,52,0
235.36548,235.65674,67,44,0
235.36548,235.65674,64,44,0
235.65674,235.96286,71,54,0
235.96286,236.26898,77,53,0
235.65674,236.26898,67,45,0
236.26898,236.8047,76,54,0
236.8047,236.88123,74,43,0
236.88123,237.08531,72,53,0
237.08531,237.2894,71,51,0
237.2894,237.49347,69,52,0
237.49347,238.13177,71,55,0
238.13177,238.64148,71,68,0
238.64148,238.70451,72,58,0
238.70451,238.87994,71,68,0
238.87994,239.04944,67,66,0
239.04944,239.19795,64,64,0
239.24745,239.52269,79,82,0
239.52269,239.64497,76,72,0
239.84877,240.34406,71,70,0
240.34406,240.40707,72,60,0
240.40707,240.581,71,71,0
240.581,240.74907,67,69,0
240.74907,240.8947,64,66,0
240.94324,241.21596,79,85,0
241.21596,241.33076,76,74,0
241.52208,241.8051,78,90,0
241.52208,241.8051,75,90,0
241.52208,241.8051,83,90,0
241.8051,241.91124,71,87,0
242.01736,242.07986,81,70,0
242.07986,242.25081,79,87,0
242.25081,242.41609,78,83,0
242.41609,242.62189,76,78,0
242.62189,242.9049,78,93,0
242.62189,242.9049,75,93,0
242.62189,242.9049,83,93,0
242.9049,243.01103,71,86,0
243.11717,243.17967,81,72,0
243.17967,243.34773,79,89,0
243.34773,243.51302,78,85,0
243.51302,243.70532,76,82,0
243.70532,243.9857,78,95,0
243.70532,243.9857,75,95,0
243.70532,243.9857,83,95,0
243.9857,244.09709,71,89,0
244.28273,244.5914,95,115,0
244.5914,244.70715,83,93,0
246.53644,246.81682,79,45,0
246.81682,246.96245,76,30,0
247.10808,247.38586,79,43,0
247.38586,247.52872,76,31,0
247.67157,247.95195,79,42,0
247.95195,248.0948,76,31,0
248.23766,248.51804,79,41,0
248.51804,248.66089,76,29,0
248.80376,249.08412,79,38,0
249.08412,249.22697,76,27,0
249.36984,249.6502,79,37,0
249.6502,249.79308,76,26,0
249.93593,250.20703,76,36,0
249.93593,250.20703,79,36,0
250.20703,250.34258,67,27,0
250.47813,250.74922,79,36,0
250.47813,250.74922,76,36,0
250.74922,250.88478,67,27,0
251.02032,251.29887,79,36,0
251.02032,251.29887,76,36,0
251.29887,251.445,67,27,0
251.60481,251.8996,79,38,0
251.60481,251.8996,76,38,0
251.8996,252.04245,67,29,0
252.18532,252.47102,79,38,0
252.18532,252.47102,76,38,0
252.47102,252.61388,67,27,0
252.75674,253.04245,79,34,0
252.75674,253.04245,76,34,0
253.04245,253.18532,67,26,0
253.32817,253.8026,67,47,0
253.8026,253.87038,69,44,0
253.87038,254.0511,67,52,0
254.0511,254.22655,64,49,0
254.22655,254.40198,60,42,0
254.40198,254.82666,67,52,0
254.82666,254.98647,76,48,0
254.98647,256.06754,76,52,0
256.06754,256.34534,72,35,0
256.63943,257.11386,79,70,0
257.11386,257.18164,77,51,0
257.18164,257.36237,76,61,0
257.36237,257.54312,72,57,0
257.54312,257.72385,67,55,0
257.72385,257.90457,72,63,0
257.90457,258.08533,76,59,0
258.08533,258.26605,79,56,0
258.26605,258.4089,79,70,0
258.26605,258.4089,76,70,0
258.26605,258.4089,67,70,0
258.55176,258.6869,77,66,0
258.55176,258.6869,74,66,0
258.55176,258.6869,67,66,0
258.82202,258.92816,76,70,0
258.82202,258.92816,72,70,0
258.82202,258.92816,67,70,0
259.10504,259.21533,74,63,0
259.10504,259.21533,71,63,0
259.10504,259.21533,67,63,0
259.39917,259.5424,76,70,0
259.39917,259.5424,72,70,0
259.39917,259.5424,67,70,0
259.97208,260.26334,67,45,0
260.26334,260.40485,69,41,0
260.40485,260.54636,71,41,0
260.54636,260.65665,72,45,0
260.84045,260.94864,67,39,0
261.12894,261.23508,72,48,0
261.41196,261.5483,82,65,0
261.41196,261.5483,70,65,0
261.6847,261.8186,82,67,0
261.6847,261.8186,70,67,0
261.95255,262.0954,75,70,0
261.95255,262.0954,87,70,0
262.23825,262.37714,75,73,0
262.23825,262.37714,87,73,0
262.51602,262.65924,74,71,0
262.51602,262.65924,86,71,0
262.8025,262.9457,86,78,0
262.8025,262.9457,74,78,0
263.08893,263.236,79,77,0
263.08893,263.236,91,77,0
263.38306,263.5301,91,84,0
263.38306,263.5301,79,84,0
263.67715,263.83206,77,70,0
263.67715,263.83206,89,70,0
263.987,265.07132,77,66,0
263.987,265.07132,89,66,0
265.07132,265.44168,83,48,0
265.07132,265.44168,71,48,0
265.44168,267.2104,72,45,0
265.44168,267.2104,84,45,0
0.0011295854,0.47555545,55,54,0
0.47442588,0.542201,57,44,0
0.542201,0.716114,55,54,0
0.716114,0.8841813,52,50,0
0.8841813,1.0522487,48,47,0
1.0522487,1.4769216,55,54,0
1.4769216,1.636734,64,51,0
1.636734,2.815864,64,54,0
2.815864,3.1106465,60,40,0
5.00098,5.1424894,43,51,0
5.283999,5.419134,45,46,0
5.419134,5.5542693,47,46,0
5.5542693,5.6614122,48,51,0
5.839984,5.952484,43,45,0
6.139984,6.247403,48,51,0
6.712886,7.004148,43,36,0
7.004148,7.144335,45,34,0
7.144335,7.284522,47,35,0
7.284522,7.391665,48,36,0
7.5702367,7.6784096,43,33,0
7.858698,7.96483,48,36,0
8.141717,8.244928,46,33,0
8.416946,8.680104,46,49,0
8.680104,8.890385,51,43,0
8.960479,9.230749,51,50,0
9.230749,9.445587,50,47,0
9.5172,9.794978,50,56,0
9.794978,10.009264,55,54,0
10.080692,10.366407,55,59,0
10.366407,10.712587,53,57,0
10.366407,10.712587,55,57,0
10.366407,10.712587,43,57,0
10.712587,11.69202,55,61,0
10.712587,11.69202,43,61,0
10.712587,11.69202,53,61,0
11.69202,12.049248,55,48,0
11.69202,12.049248,43,48,0
11.69202,12.049248,50,48,0
12.049248,13.817943,48,48,0
12.049248,13.817943,55,48,0
13.817943,14.292369,55,54,0
14.292369,14.360144,57,44,0
14.360144,14.535583,55,54,0
14.535583,14.706561,52,50,0
14.706561,14.876053,48,47,0
14.876053,15.300726,55,54,0
15.300726,15.460538,64,51,0
15.460538,16.639668,64,54,0
16.639668,16.93445,60,40,0
18.829361,18.972218,43,51,0
19.115076,19.250212,45,46,0
19.250212,19.385345,47,46,0
19.385345,19.493519,48,51,0
19.673807,19.785194,43,45,0
19.970837,20.078257,48,51,0
20.54374,20.835001,43,36,0
20.835001,20.975187,45,34,0
20.975187,21.115376,47,35,0
21.115376,21.222519,48,36,0
21.401089,21.50623,43,33,0
21.681463,21.788607,48,38,0
21.967178,22.106068,46,36,0
22.244957,22.508114,46,47,0
22.508114,22.7224,51,43,0
22.793829,23.064098,51,50,0
23.064098,23.278936,50,48,0
23.35055,23.630924,50,56,0
23.630924,23.841204,55,52,0
23.911299,24.197012,55,59,0
24.197012,24.541206,55,56,0
24.197012,24.541206,53,56,0
24.197012,24.541206,43,56,0
24.541206,25.52064,55,63,0
24.541206,25.52064,53,63,0
24.541206,25.52064,43,63,0
25.52064,25.877867,55,48,0
25.52064,25.877867,50,48,0
25.52064,25.877867,43,48,0
25.877867,27.646563,55,48,0
25.877867,27.646563,48,48,0
29.305422,29.792887,52,52,0
29.792887,29.862526,53,44,0
29.862526,30.073051,52,58,0
30.073051,30.283579,47,57,0
30.283579,30.498909,40,54,0
30.498909,31.094265,52,59,0
31.094265,31.595554,52,52,0
31.595554,31.667168,53,44,0
31.667168,31.873354,52,59,0
31.873354,32.075455,55,55,0
32.075455,32.273476,60,53,0
32.273476,32.88572,62,45,0
32.273476,32.88572,65,53,0
32.88572,33.497967,60,44,0
32.88572,33.497967,64,52,0
33.497967,33.80409,62,46,0
33.497967,33.80409,66,55,0
33.80409,34.11021,62,45,0
33.80409,34.11021,66,53,0
34.11021,34.74851,67,56,0
34.11021,34.74851,55,47,0
34.11021,34.74851,62,47,0
34.74851,35.258217,59,61,0
35.258217,35.320717,60,51,0
35.320717,35.496155,59,61,0
35.496155,35.664223,55,59,0
35.664223,35.808453,52,56,0
35.85653,36.13176,67,74,0
36.13176,36.245396,64,64,0
36.43479,36.93479,59,62,0
36.93479,36.998352,60,53,0
36.998352,37.17379,59,64,0
37.17379,37.341858,55,61,0
37.341858,37.484715,52,57,0
37.532333,37.8059,67,76,0
37.8059,37.915127,64,66,0
38.097164,38.382877,47,77,0
38.382877,38.49002,59,72,0
38.597164,38.65864,63,57,0
38.65864,38.828133,64,73,0
38.828133,38.997623,66,67,0
38.997623,39.189987,67,78,0
39.189987,39.467762,47,79,0
39.467762,39.57193,59,73,0
39.676098,39.73757,63,57,0
39.73757,39.907063,64,75,0
39.907063,40.076557,66,68,0
40.076557,40.274574,67,66,0
40.274574,40.56855,47,80,0
40.56855,40.677773,59,75,0
40.85981,41.168484,35,81,0
41.168484,41.284237,47,70,0
43.11352,43.393898,64,36,0
43.393898,43.538128,67,25,0
43.682358,43.960136,64,34,0
43.960136,44.104366,67,25,0
44.248596,44.528973,64,33,0
44.528973,44.674603,67,26,0
44.820232,45.10061,64,33,0
45.10061,45.243465,67,24,0
45.386322,45.666695,64,31,0
45.666695,45.809555,67,23,0
45.95241,46.232784,64,30,0
46.232784,46.37564,67,21,0
46.5185,46.992924,55,48,0
46.992924,47.0607,57,40,0
47.0607,47.241436,55,48,0
47.241436,47.42217,52,45,0
47.42217,47.6029,48,39,0
47.6029,48.027573,55,48,0
48.027573,48.187386,64,45,0
48.187386,49.339314,64,48,0
49.339314,49.625027,60,36,0
51.56904,52.04201,55,48,0
52.04201,52.10958,57,40,0
52.10958,52.28976,55,48,0
52.28976,52.4652,52,45,0
52.4652,52.640636,48,41,0
52.640636,53.065475,55,48,0
53.065475,53.212532,64,45,0
53.212532,54.296936,64,48,0
54.296936,54.568035,60,38,0
54.839138,54.980644,43,61,0
55.122154,55.25852,45,55,0
55.25852,55.394882,47,55,0
55.394882,55.502026,48,61,0
55.6806,55.78877,43,53,0
55.96906,56.076477,48,61,0
56.54196,56.68759,55,38,0
56.54196,56.68759,51,38,0
56.83322,56.97341,55,35,0
56.83322,56.97341,53,35,0
56.83322,56.97341,50,35,0
57.113598,57.22177,55,38,0
57.113598,57.22177,51,38,0
57.113598,57.22177,48,38,0
57.402058,57.50819,55,35,0
57.402058,57.50819,50,35,0
57.402058,57.50819,47,35,0
57.685078,57.79222,55,42,0
57.685078,57.79222,51,42,0
57.685078,57.79222,48,42,0
57.97079,58.108406,58,51,0
57.97079,58.108406,53,51,0
57.97079,58.108406,50,51,0
58.24602,58.37995,58,55,0
58.24602,58.37995,56,55,0
58.24602,58.37995,53,55,0
58.513878,58.652767,58,50,0
58.513878,58.652767,55,50,0
58.513878,58.652767,51,50,0
58.791656,58.926792,58,55,0
58.791656,58.926792,55,55,0
58.791656,58.926792,51,55,0
59.061928,59.200817,62,51,0
59.061928,59.200817,57,51,0
59.061928,59.200817,54,51,0
59.339706,59.482563,62,64,0
59.339706,59.482563,60,64,0
59.339706,59.482563,57,64,0
59.62542,59.768276,62,60,0
59.62542,59.768276,58,60,0
59.62542,59.768276,55,60,0
59.911133,60.05399,62,65,0
59.911133,60.05399,58,65,0
59.911133,60.05399,55,65,0
60.19685,60.35176,59,49,0
60.19685,60.35176,50,49,0
60.19685,60.35176,43,49,0
60.506668,61.486103,59,47,0
60.506668,61.486103,50,47,0
60.506668,61.486103,43,47,0
61.486103,61.84333,55,37,0
61.486103,61.84333,67,37,0
61.486103,61.84333,65,37,0
61.84333,63.595364,60,35,0
61.84333,63.595364,64,35,0
61.84333,63.595364,67,35,0
65.26171,65.749176,52,52,0
65.749176,65.81881,53,44,0
65.81881,66.029335,52,58,0
66.029335,66.23986,47,57,0
66.23986,66.45519,40,54,0
66.45519,67.05055,52,59,0
67.05055,67.55184,52,52,0
67.55184,67.62345,53,44,0
67.62345,67.829636,52,59,0
67.829636,68.029816,55,55,0
68.029816,68.22399,60,53,0
68.22399,68.836235,62,45,0
68.22399,68.836235,65,53,0
68.836235,69.44849,60,44,0
68.836235,69.44849,64,52,0
69.44849,69.75461,62,46,0
69.44849,69.75461,66,55,0
69.75461,70.06073,62,45,0
69.75461,70.06073,66,53,0
70.06073,70.69903,67,56,0
70.06073,70.69903,55,47,0
70.06073,70.69903,62,47,0
70.69903,71.20873,59,61,0
71.20873,71.27176,60,51,0
71.27176,71.44875,59,61,0
71.44875,71.61682,55,59,0
71.61682,71.765335,52,56,0
71.814835,72.09261,67,76,0
72.09261,72.2149,64,64,0
72.4187,72.92351,59,62,0
72.92351,72.986534,60,53,0
72.986534,73.16353,59,64,0
73.16353,73.3316,55,61,0
73.3316,73.4816,52,57,0
73.53159,73.801865,67,76,0
73.801865,73.916664,64,66,0
74.10799,74.39645,47,77,0
74.39645,74.50462,59,72,0
74.61279,74.67478,63,58,0
74.67478,74.84284,64,73,0
74.84284,75.01091,66,67,0
75.01091,75.2167,67,78,0
75.2167,75.49972,47,79,0
75.49972,75.60585,59,73,0
75.711975,75.77296,63,58,0
75.77296,75.94389,64,75,0
75.94389,76.109184,66,68,0
76.109184,76.30336,67,66,0
76.30336,76.58638,47,80,0
76.58638,76.69455,59,75,0
76.87484,77.18351,35,81,0
77.18351,77.29926,47,70,0
79.12855,79.40893,64,36,0
79.40893,79.553154,67,25,0
79.69739,79.97517,64,34,0
79.97517,80.11802,67,25,0
80.26088,80.54125,64,33,0
80.54125,80.68688,67,26,0
80.83251,81.11289,64,33,0
81.11289,81.255745,67,24,0
81.398605,81.67898,64,31,0
81.67898,81.82184,67,23,0
81.96469,82.24506,64,30,0
82.24506,82.387924,67,21,0
82.53078,83.0052,55,48,0
83.0052,83.07298,57,40,0
83.07298,83.253716,55,48,0
83.253716,83.42763,52,45,0
83.42763,83.60154,48,39,0
83.60154,84.026215,55,48,0
84.026215,84.18603,64,45,0
84.18603,85.33795,64,48,0
85.33795,85.623665,60,36,0
87.56768,88.04065,55,48,0
88.04065,88.10822,57,40,0
88.10822,88.2884,55,48,0
88.2884,88.46384,52,45,0
88.46384,88.639275,48,41,0
88.639275,89.06412,55,48,0
89.06412,89.211174,64,45,0
89.211174,90.29558,64,48,0
90.29558,90.56667,60,38,0
90.837776,90.98064,43,61,0
91.12349,91.26111,45,55,0
91.26111,91.39872,47,55,0
91.39872,91.5069,48,61,0
91.68718,91.79748,43,53,0
91.9813,92.088715,48,61,0
92.5542,92.7042,55,38,0
92.5542,92.7042,51,38,0
92.8542,92.990974,55,35,0
92.8542,92.990974,53,35,0
92.8542,92.990974,50,35,0
93.12775,93.23592,55,38,0
93.12775,93.23592,51,38,0
93.12775,93.23592,48,38,0
93.416214,93.52335,55,35,0
93.416214,93.52335,50,35,0
93.416214,93.52335,47,35,0
93.70193,93.80806,55,42,0
93.70193,93.80806,51,42,0
93.70193,93.80806,48,42,0
93.98495,94.12383,58,49,0
93.98495,94.12383,53,49,0
93.98495,94.12383,50,49,0
94.262726,94.39707,58,52,0
94.262726,94.39707,56,52,0
94.262726,94.39707,53,52,0
94.53142,94.67031,58,52,0
94.53142,94.67031,55,52,0
94.53142,94.67031,51,52,0
94.8092,94.944336,58,56,0
94.8092,94.944336,55,56,0
94.8092,94.944336,51,56,0
95.07947,95.2198,62,54,0
95.07947,95.2198,57,54,0
95.07947,95.2198,54,54,0
95.35869,95.50155,62,59,0
95.35869,95.50155,60,59,0
95.35869,95.50155,57,59,0
95.64441,95.78726,62,56,0
95.64441,95.78726,58,56,0
95.64441,95.78726,55,56,0
95.93012,96.072975,62,64,0
95.93012,96.072975,58,64,0
95.93012,96.072975,55,64,0
96.215836,96.37074,59,49,0
96.215836,96.37074,50,49,0
96.215836,96.37074,43,49,0
96.52566,97.50509,59,47,0
96.52566,97.50509,50,47,0
96.52566,97.50509,43,47,0
97.50509,97.86232,55,37,0
97.50509,97.86232,67,37,0
97.50509,97.86232,65,37,0
97.86232,99.578545,60,35,0
97.86232,99.578545,64,35,0
97.86232,99.578545,67,35,0
99.61435,99.79453,47,45,0
99.79453,99.97471,50,36,0
99.97471,100.15489,55,31,0
100.15489,100.33507,47,42,0
100.33507,100.51525,50,33,0
100.51525,100.69543,55,27,0
100.69543,100.880615,45,41,0
100.880615,101.0658,50,33,0
101.0658,101.25811,54,27,0
99.61435,101.25811,43,31,0
101.25811,101.438286,48,45,0
101.438286,101.61847,50,36,0
101.61847,101.79865,57,29,0
101.79865,101.97883,48,43,0
101.97883,102.15901,50,33,0
102.15901,102.33919,57,28,0
102.33919,102.51937,47,43,0
102.51937,102.699554,50,33,0
102.699554,102.87973,55,28,0
101.25811,102.87973,43,31,0
102.87973,103.05991,47,42,0
103.05991,103.24859,50,33,0
103.24859,103.442764,55,28,0
103.442764,103.740234,57,50,0
103.442764,103.740234,54,42,0
103.442764,103.740234,50,42,0
103.740234,104.06275,59,53,0
103.740234,104.06275,55,45,0
103.740234,104.06275,50,45,0
104.06275,104.51977,60,57,0
104.06275,104.51977,57,48,0
104.06275,104.51977,50,48,0
104.51977,104.67639,59,51,0
104.51977,104.67639,55,42,0
104.51977,104.67639,50,42,0
104.67639,105.30153,59,45,0
104.67639,105.30153,55,38,0
104.67639,105.30153,50,38,0
105.30153,105.63457,57,32,0
105.30153,105.63457,54,27,0
105.30153,105.63457,50,27,0
105.63457,105.95371,55,31,0
105.63457,105.95371,52,26,0
105.63457,105.95371,50,26,0
105.95371,106.59201,57,33,0
105.95371,106.59201,54,28,0
105.95371,106.59201,50,28,0
106.59201,106.772194,47,45,0
106.772194,106.95237,50,36,0
106.95237,107.13255,55,31,0
107.13255,107.31274,47,42,0
107.31274,107.49291,50,33,0
107.49291,107.673096,55,27,0
107.673096,107.85828,45,41,0
107.85828,108.043465,50,33,0
108.043465,108.23577,54,27,0
106.59201,108.23577,43,31,0
108.23577,108.415955,48,45,0
108.415955,108.59613,50,36,0
108.59613,108.77631,57,29,0
108.77631,108.9565,48,43,0
108.9565,109.13667,50,33,0
109.13667,109.31686,57,28,0
109.31686,109.50204,47,43,0
109.50204,109.687225,50,33,0
109.687225,109.88525,55,28,0
108.23577,109.88525,43,31,0
109.88525,110.489494,43,39,0
109.88525,110.489494,47,39,0
109.88525,110.489494,50,46,0
110.489494,110.786964,52,55,0
110.489494,110.786964,48,46,0
110.489494,110.786964,43,46,0
110.786964,111.1203,54,58,0
110.786964,111.1203,45,49,0
110.786964,111.1203,43,49,0
111.1203,111.58422,47,57,0
111.1203,111.58422,55,68,0
111.1203,111.58422,43,57,0
111.58422,111.73886,59,49,0
111.58422,111.73886,55,41,0
111.58422,111.73886,50,41,0
111.73886,112.374084,59,45,0
111.73886,112.374084,62,54,0
111.73886,112.374084,50,45,0
112.374084,112.86669,60,46,0
112.374084,112.86669,57,39,0
112.374084,112.86669,50,39,0
112.86669,113.02627,59,37,0
112.86669,113.02627,55,31,0
113.02627,113.664566,59,34,0
113.02627,113.664566,55,28,0
113.664566,113.84475,47,45,0
113.84475,114.024925,50,36,0
114.024925,114.20511,55,31,0
114.20511,114.385284,47,42,0
114.385284,114.56547,50,33,0
114.56547,114.74565,55,27,0
114.74565,114.93083,45,41,0
114.93083,115.11602,50,33,0
115.11602,115.30833,54,27,0
113.664566,115.30833,43,31,0
115.30833,115.4885,48,45,0
115.4885,115.668686,50,36,0
115.668686,115.84887,57,29,0
115.84887,116.029045,48,43,0
116.029045,116.20923,50,33,0
116.20923,116.389404,57,28,0
116.389404,116.56959,47,43,0
116.56959,116.74977,50,33,0
116.74977,116.92995,55,28,0
115.30833,116.92995,43,31,0
116.92995,117.11013,47,42,0
117.11013,117.298805,50,33,0
117.298805,117.49298,55,28,0
117.49298,117.79045,57,50,0
117.49298,117.79045,54,42,0
117.49298,117.79045,50,42,0
117.79045,118.11297,59,53,0
117.79045,118.11297,55,45,0
117.79045,118.11297,50,45,0
118.11297,118.569984,60,57,0
118.11297,118.569984,57,57,0
118.11297,118.569984,50,48,0
118.569984,118.72661,59,51,0
118.569984,118.72661,55,42,0
118.569984,118.72661,50,42,0
118.72661,119.351746,59,45,0
118.72661,119.351746,55,38,0
118.72661,119.351746,50,38,0
119.351746,119.684784,57,32,0
119.351746,119.684784,54,27,0
119.351746,119.684784,50,27,0
119.684784,120.00393,55,31,0
119.684784,120.00393,52,26,0
119.684784,120.00393,50,26,0
120.00393,120.64223,57,33,0
120.00393,120.64223,54,28,0
120.00393,120.64223,50,28,0
120.64223,120.82241,47,45,0
120.82241,121.00259,50,36,0
121.00259,121.18277,55,31,0
121.18277,121.36295,47,42,0
121.36295,121.54313,50,33,0
121.54313,121.72331,55,27,0
121.72331,121.90849,45,41,0
121.90849,122.09368,50,33,0
122.09368,122.28599,54,27,0
120.64223,122.28599,43,31,0
122.28599,122.46617,48,45,0
122.46617,122.64635,50,36,0
122.64635,122.82653,57,29,0
122.82653,123.006714,48,43,0
123.006714,123.18689,50,33,0
123.18689,123.36707,57,28,0
123.36707,123.55225,47,43,0
123.55225,123.73744,50,33,0
123.73744,123.93546,55,28,0
122.28599,123.93546,43,31,0
123.93546,124.53971,43,39,0
123.93546,124.53971,47,39,0
123.93546,124.53971,50,46,0
124.53971,124.83718,52,55,0
124.53971,124.83718,48,46,0
124.53971,124.83718,43,46,0
124.83718,125.17052,54,58,0
124.83718,125.17052,45,49,0
124.83718,125.17052,43,49,0
125.17052,125.63444,47,57,0
125.17052,125.63444,55,68,0
125.17052,125.63444,43,57,0
125.63444,125.78908,59,49,0
125.63444,125.78908,55,41,0
125.63444,125.78908,50,41,0
125.78908,126.4243,59,45,0
125.78908,126.4243,62,54,0
125.78908,126.4243,50,45,0
126.4243,126.91691,60,46,0
126.4243,126.91691,57,39,0
126.4243,126.91691,50,39,0
126.91691,127.076485,59,37,0
126.91691,127.076485,55,31,0
127.076485,127.701485,59,34,0
127.076485,127.701485,55,28,0
127.71478,127.90855,38,30,0
127.90855,128.10231,45,26,0
128.10231,128.29607,38,27,0
128.29607,128.48982,33,30,0
128.48982,128.6836,38,26,0
128.6836,128.87735,33,26,0
128.87735,129.0711,38,30,0
129.0711,129.26488,45,26,0
129.26488,129.45863,38,26,0
129.45863,129.65239,33,32,0
129.65239,129.84616,38,27,0
129.84616,130.03992,33,27,0
130.03992,130.23367,38,33,0
130.23367,130.42743,45,29,0
130.42743,130.6212,38,29,0
130.6212,130.81496,33,34,0
130.81496,131.00871,37,29,0
131.00871,131.20248,33,29,0
131.20248,131.39247,37,30,0
131.39247,131.58246,45,27,0
131.58246,131.77245,37,27,0
131.77245,131.96243,33,30,0
131.96243,132.15242,37,27,0
132.15242,132.3424,33,27,0
132.3424,132.5324,37,33,0
132.5324,132.73148,45,29,0
132.73148,132.93967,37,29,0
132.93967,133.13356,33,34,0
133.13356,133.32542,37,30,0
133.32542,133.51729,33,30,0
133.51729,133.70917,37,35,0
133.70917,133.90103,45,30,0
133.90103,134.0929,37,30,0
134.0929,134.28476,33,35,0
134.28476,134.48157,38,30,0
134.48157,134.68332,33,30,0
134.68332,134.87708,38,34,0
134.87708,135.07085,45,29,0
135.07085,135.2646,38,31,0
135.2646,135.46227,33,34,0
135.46227,135.66411,38,29,0
135.66411,135.8701,33,29,0
135.8701,136.06978,38,39,0
136.06978,136.26945,45,34,0
136.26945,136.46913,38,34,0
136.46913,136.66681,33,36,0
136.66681,136.86864,38,31,0
136.86864,137.07463,33,31,0
137.07463,137.27638,37,37,0
137.27638,137.47815,45,33,0
137.47815,137.6799,37,33,0
137.6799,137.8859,33,35,0
137.8859,138.09189,37,31,0
138.09189,138.29788,33,30,0
138.29788,138.50388,38,36,0
138.50388,138.70987,45,29,0
138.70987,138.91586,38,31,0
138.91586,139.11116,33,37,0
139.11116,139.30492,38,30,0
139.30492,139.49867,33,30,0
139.49867,139.69244,38,36,0
139.69244,139.89232,45,32,0
139.89232,140.09831,38,32,0
140.09831,140.29207,33,42,0
140.29207,140.48582,38,39,0
140.48582,140.6796,33,39,0
140.6796,140.87335,35,43,0
140.87335,141.06711,38,39,0
141.06711,141.25725,36,40,0
141.26088,141.45464,36,46,0
141.45464,141.64839,38,42,0
141.64839,141.84216,36,42,0
141.84216,142.03592,33,48,0
142.03592,142.22968,38,43,0
142.22968,142.42345,33,43,0
142.42345,142.6172,35,49,0
142.6172,142.81096,38,44,0
142.81096,143.00473,36,44,0
143.00473,143.19849,36,54,0
143.19849,143.40057,38,44,0
143.40057,143.611,36,46,0
143.611,143.80475,33,57,0
143.80475,143.9985,38,51,0
143.9985,144.19228,33,51,0
144.19228,144.38603,35,64,0
144.38603,144.57979,38,54,0
144.57979,144.76993,36,54,0
144.77356,144.96732,36,71,0
144.96732,145.17172,38,55,0
145.17172,145.38678,36,55,0
145.38678,145.59062,38,72,0
145.59062,145.79448,50,62,0
145.79448,145.99834,38,62,0
145.99834,146.20876,40,69,0
146.20876,146.41916,50,57,0
146.41916,146.62958,42,60,0
146.62958,146.84,42,66,0
146.84,147.05042,50,60,0
147.05042,147.26083,42,60,0
147.26083,147.46683,42,43,0
147.46683,147.67282,50,36,0
147.67282,147.87881,42,37,0
147.87881,148.08481,50,37,0
148.08481,148.2908,42,33,0
148.2908,148.4968,50,33,0
148.4968,148.69446,42,37,0
148.69446,148.89214,50,31,0
148.89214,149.0898,42,31,0
149.0898,149.27797,50,35,0
149.27797,149.46613,42,30,0
149.46613,149.6543,50,30,0
149.6543,149.84245,42,35,0
149.84245,150.03062,50,30,0
150.03062,150.21878,42,30,0
150.21878,150.40695,50,35,0
150.40695,150.59511,42,29,0
150.59511,150.78328,50,29,0
150.78328,150.96346,46,45,0
150.96346,151.14363,50,36,0
151.14363,151.32382,55,31,0
151.32382,151.504,46,42,0
151.504,151.68417,50,33,0
151.68417,151.86436,55,27,0
151.86436,152.04955,45,41,0
152.04955,152.23473,50,33,0
152.23473,152.42703,54,27,0
150.78328,152.42703,43,31,0
152.42703,152.60722,48,45,0
152.60722,152.7874,50,36,0
152.7874,152.96758,57,29,0
152.96758,153.14775,48,43,0
153.14775,153.32794,50,33,0
153.32794,153.50812,57,28,0
153.50812,153.6883,46,43,0
153.6883,153.86848,50,33,0
153.86848,154.04866,55,28,0
152.42703,154.04866,43,31,0
154.04866,154.22884,46,42,0
154.22884,154.41753,50,33,0
154.41753,154.6117,55,28,0
154.6117,154.90916,57,39,0
154.6117,154.90916,54,39,0
154.6117,154.90916,50,39,0
154.90916,155.23167,58,49,0
154.90916,155.23167,55,41,0
154.90916,155.23167,50,41,0
155.23167,155.68227,60,52,0
155.23167,155.68227,57,44,0
155.23167,155.68227,50,44,0
155.68227,155.83246,58,47,0
155.68227,155.83246,55,39,0
155.68227,155.83246,50,39,0
155.83246,156.4588,58,45,0
155.83246,156.4588,55,38,0
155.83246,156.4588,50,38,0
156.4588,156.79182,57,32,0
156.4588,156.79182,54,27,0
156.4588,156.79182,50,27,0
156.79182,157.11098,55,31,0
156.79182,157.11098,52,26,0
156.79182,157.11098,50,26,0
157.11098,157.74928,57,33,0
157.11098,157.74928,54,28,0
157.11098,157.74928,50,28,0
157.74928,157.92946,47,45,0
157.92946,158.10963,50,36,0
158.10963,158.28983,55,31,0
158.28983,158.47,47,42,0
158.47,158.65018,50,33,0
158.65018,158.83035,55,27,0
158.83035,159.01555,45,41,0
159.01555,159.20073,50,33,0
159.20073,159.39304,54,27,0
157.74928,159.39304,43,31,0
159.39304,159.57321,48,45,0
159.57321,159.7534,50,36,0
159.7534,159.93358,57,29,0
159.93358,160.11375,48,43,0
160.11375,160.29395,50,33,0
160.29395,160.47412,57,28,0
160.47412,160.6593,47,43,0
160.6593,160.8445,50,33,0
160.8445,161.04251,55,28,0
159.39304,161.04251,43,31,0
161.04251,161.64676,43,39,0
161.04251,161.64676,47,39,0
161.04251,161.64676,50,46,0
161.64676,161.94423,52,55,0
161.64676,161.94423,48,46,0
161.64676,161.94423,43,46,0
161.94423,162.27757,54,58,0
161.94423,162.27757,45,49,0
161.94423,162.27757,43,49,0
162.27757,162.74149,47,57,0
162.27757,162.74149,55,68,0
162.27757,162.74149,43,57,0
162.74149,162.89612,59,49,0
162.74149,162.89612,55,41,0
162.74149,162.89612,50,41,0
162.89612,163.53134,59,45,0
162.89612,163.53134,50,45,0
163.53134,164.02396,60,46,0
163.53134,164.02396,57,39,0
163.53134,164.02396,50,39,0
164.02396,164.18353,59,37,0
164.02396,164.18353,55,31,0
164.18353,164.82184,59,34,0
164.18353,164.82184,55,28,0
164.82184,165.0156,38,30,0
165.0156,165.20935,45,26,0
165.20935,165.40312,38,27,0
165.40312,165.59688,33,30,0
165.59688,165.79063,38,26,0
165.79063,165.9844,33,26,0
165.9844,166.17816,38,30,0
166.17816,166.37192,45,26,0
166.37192,166.56567,38,26,0
166.56567,166.75945,33,32,0
166.75945,166.9532,38,27,0
166.9532,167.14696,33,27,0
167.14696,167.34073,38,33,0
167.34073,167.53448,45,29,0
167.53448,167.72824,38,29,0
167.72824,167.92201,33,34,0
167.92201,168.11577,37,29,0
168.11577,168.30952,33,29,0
168.30952,168.49951,37,30,0
168.49951,168.6895,45,27,0
168.6895,168.87949,37,27,0
168.87949,169.06947,33,30,0
169.06947,169.25948,37,27,0
169.25948,169.44946,33,27,0
169.44946,169.63945,37,33,0
169.63945,169.83853,45,29,0
169.83853,170.0467,37,29,0
170.0467,170.24062,33,34,0
170.24062,170.43248,37,30,0
170.43248,170.62434,33,30,0
170.62434,170.81621,37,35,0
170.81621,171.00807,45,30,0
171.00807,171.19994,37,30,0
171.19994,171.3918,33,35,0
171.3918,171.58861,38,30,0
171.58861,171.79037,33,30,0
171.79037,171.98413,38,34,0
171.98413,172.17789,45,29,0
172.17789,172.37166,38,31,0
172.37166,172.56932,33,34,0
172.56932,172.77115,38,29,0
172.77115,172.97714,33,29,0
172.97714,173.17683,38,39,0
173.17683,173.37651,45,34,0
173.37651,173.57619,38,34,0
173.57619,173.77385,33,36,0
173.77385,173.9757,38,31,0
173.9757,174.18169,33,31,0
174.18169,174.38344,37,37,0
174.38344,174.58519,45,33,0
174.58519,174.78694,37,33,0
174.78694,174.99294,33,35,0
174.99294,175.19893,37,31,0
175.19893,175.40492,33,30,0
175.40492,175.61093,38,36,0
175.61093,175.81693,45,29,0
175.81693,176.02292,38,31,0
176.02292,176.2182,33,37,0
176.2182,176.41196,38,30,0
176.41196,176.60573,33,30,0
176.60573,176.79948,38,36,0
176.79948,176.99936,45,32,0
176.99936,177.20535,38,32,0
177.20535,177.39912,33,42,0
177.39912,177.59288,38,39,0
177.59288,177.78664,33,39,0
177.78664,177.98041,35,43,0
177.98041,178.17416,38,39,0
178.17416,178.36792,36,40,0
178.36792,178.56169,36,46,0
178.56169,178.75545,38,42,0
178.75545,178.9492,36,42,0
178.9492,179.14297,33,48,0
179.14297,179.33673,38,43,0
179.33673,179.53049,33,43,0
179.53049,179.72426,35,49,0
179.72426,179.91801,38,44,0
179.91801,180.11177,36,44,0
180.11177,180.30553,36,54,0
180.30553,180.50763,38,44,0
180.50763,180.71803,36,46,0
180.71803,180.9118,33,57,0
180.9118,181.10556,38,51,0
181.10556,181.29932,33,51,0
181.29932,181.49309,35,64,0
181.49309,181.68684,38,54,0
181.68684,181.8806,36,54,0
181.8806,182.07437,36,71,0
182.07437,182.27878,38,55,0
182.27878,182.49382,36,55,0
182.49382,182.69768,38,72,0
182.69768,182.90154,50,62,0
182.90154,183.10538,38,62,0
183.10538,183.3158,40,69,0
183.3158,183.52621,50,57,0
183.52621,183.73663,42,60,0
183.73663,183.94705,42,66,0
183.94705,184.15746,50,60,0
184.15746,184.35999,42,60,0
184.36787,184.57387,42,43,0
184.57387,184.77986,50,36,0
184.77986,184.98586,42,37,0
184.98586,185.19185,50,37,0
185.19185,185.39784,42,33,0
185.39784,185.60385,50,33,0
185.60385,185.80151,42,37,0
185.80151,185.99918,50,31,0
185.99918,186.19685,42,31,0
186.19685,186.38501,50,35,0
186.38501,186.57318,42,30,0
186.57318,186.76134,50,30,0
186.76134,186.94951,42,35,0
186.94951,187.13766,50,30,0
187.13766,187.32584,42,30,0
187.32584,187.51399,50,35,0
187.51399,187.70216,42,29,0
187.70216,187.89032,50,29,0
187.89032,188.07051,46,45,0
188.07051,188.25069,50,36,0
188.25069,188.43086,55,31,0
188.43086,188.61105,46,42,0
188.61105,188.79123,50,33,0
188.79123,188.9714,55,27,0
188.9714,189.1566,45,41,0
189.1566,189.34178,50,33,0
189.34178,189.53409,54,27,0
187.89032,189.53409,43,31,0
189.53409,189.71426,48,45,0
189.71426,189.89444,50,36,0
189.89444,190.07463,57,29,0
190.07463,190.2548,48,43,0
190.2548,190.43498,50,33,0
190.43498,190.61517,57,28,0
190.61517,190.79535,46,43,0
190.79535,190.97552,50,33,0
190.97552,191.15572,55,28,0
189.53409,191.15572,43,31,0
191.15572,191.33589,46,42,0
191.33589,191.52457,50,33,0
191.52457,191.71875,55,28,0
191.71875,192.01622,57,46,0
191.71875,192.01622,54,39,0
191.71875,192.01622,50,39,0
192.01622,192.33873,58,49,0
192.01622,192.33873,55,41,0
192.01622,192.33873,50,41,0
192.33873,192.7893,60,52,0
192.33873,192.7893,57,44,0
192.33873,192.7893,50,44,0
192.7893,192.93951,58,47,0
192.7893,192.93951,55,39,0
192.7893,192.93951,50,39,0
192.93951,193.56584,58,45,0
192.93951,193.56584,55,38,0
192.93951,193.56584,50,38,0
193.56584,193.89888,57,32,0
193.56584,193.89888,54,27,0
193.56584,193.89888,50,27,0
193.89888,194.21803,55,26,0
193.89888,194.21803,52,26,0
193.89888,194.21803,50,26,0
194.21803,194.85632,57,33,0
194.21803,194.85632,54,28,0
194.21803,194.85632,50,28,0
194.85632,195.03651,47,45,0
195.03651,195.21669,50,36,0
195.21669,195.39687,55,31,0
195.39687,195.57704,47,42,0
195.57704,195.75723,50,33,0
195.75723,195.93741,55,27,0
195.93741,196.12259,45,41,0
196.12259,196.30779,50,33,0
196.30779,196.50009,54,27,0
194.85632,196.50009,43,31,0
196.50009,196.68027,48,45,0
196.68027,196.86044,50,36,0
196.86044,197.04063,57,29,0
197.04063,197.22081,48,43,0
197.22081,197.40099,50,33,0
197.40099,197.58118,57,28,0
197.58118,197.76636,47,43,0
197.76636,197.95154,50,33,0
197.95154,198.14957,55,28,0
196.50009,198.14957,43,31,0
198.14957,198.75381,43,39,0
198.14957,198.75381,47,39,0
198.14957,198.75381,50,46,0
198.75381,199.05128,52,55,0
198.75381,199.05128,48,46,0
198.75381,199.05128,43,46,0
199.05128,199.38461,54,58,0
199.05128,199.38461,45,49,0
199.05128,199.38461,43,49,0
199.38461,199.84854,47,57,0
199.38461,199.84854,55,68,0
199.38461,199.84854,43,57,0
199.84854,200.00317,59,49,0
199.84854,200.00317,55,41,0
199.84854,200.00317,50,41,0
200.00317,200.6384,59,45,0
200.00317,200.6384,62,54,0
200.00317,200.6384,50,45,0
200.6384,201.13101,60,46,0
200.6384,201.13101,57,39,0
200.6384,201.13101,50,39,0
201.13101,201.29059,59,37,0
201.13101,201.29059,55,31,0
201.29059,201.92888,59,34,0
201.29059,201.92888,55,28,0
201.92888,202.12265,43,30,0
202.12265,202.3164,55,26,0
202.3164,202.51016,43,27,0
202.51016,202.70392,55,30,0
202.70392,202.89769,43,26,0
202.89769,203.09145,55,26,0
203.09145,203.2852,43,30,0
203.2852,203.47897,55,26,0
203.47897,203.6691,43,26,0
203.67273,203.86649,43,30,0
203.86649,204.06026,55,26,0
204.06026,204.25401,43,27,0
204.25401,204.44777,55,30,0
204.44777,204.64154,43,26,0
204.64154,204.8353,55,26,0
204.8353,205.02905,43,30,0
205.02905,205.22798,55,26,0
205.22798,205.43207,43,26,0
205.43207,205.62582,31,30,0
205.62582,205.81958,43,26,0
205.81958,206.01334,31,27,0
206.01334,206.2071,43,30,0
206.2071,206.40086,31,26,0
206.40086,206.59462,43,26,0
206.59462,206.78839,31,30,0
206.78839,206.98215,43,26,0
206.98215,207.17227,31,26,0
207.1759,207.36967,31,30,0
207.36967,207.56343,43,26,0
207.56343,207.75719,31,27,0
207.75719,207.95096,43,30,0
207.95096,208.14471,31,26,0
208.14471,208.33847,43,26,0
208.33847,208.53224,31,30,0
208.53224,208.73013,43,26,0
208.73013,208.92836,31,26,0
208.93214,209.13214,31,28,0
209.13214,209.33215,43,24,0
209.33215,209.53215,31,25,0
209.53215,209.73215,43,28,0
209.73215,209.93214,31,24,0
209.93214,210.13214,43,24,0
210.13214,210.33215,31,28,0
210.33215,210.53215,43,24,0
210.53215,210.7284,31,24,0
210.73215,210.93016,31,28,0
210.93016,211.12819,43,24,0
211.12819,211.32524,31,24,0
211.32524,211.51942,43,27,0
211.51942,211.7136,31,23,0
211.7136,211.90778,43,22,0
211.90778,212.10194,31,25,0
212.10194,212.30107,43,21,0
212.30107,212.50133,31,21,0
212.50516,212.72255,31,27,0
212.72255,212.93762,43,23,0
212.93762,213.1527,31,24,0
213.1527,213.37128,43,27,0
213.37128,213.59412,31,23,0
213.59412,213.82076,43,23,0
213.82076,214.07393,31,27,0
214.07393,214.33939,43,23,0
214.33939,214.61717,31,23,0
214.61717,217.16618,50,23,0
214.61717,217.16618,43,23,0
217.16731,217.64174,55,54,0
217.64061,217.70839,57,44,0
217.70839,217.88383,55,54,0
217.88383,218.05331,52,50,0
218.05331,218.22281,48,47,0
218.22281,218.64749,55,54,0
218.64749,218.8073,64,51,0
218.8073,219.98643,64,54,0
219.98643,220.2812,60,40,0
222.19136,222.3356,43,51,0
222.47983,222.61745,45,46,0
222.61745,222.75507,47,46,0
222.75507,222.8622,48,51,0
223.04077,223.15106,43,45,0
223.33488,223.47812,48,51,0
223.90779,224.19905,43,36,0
224.19905,224.33925,45,34,0
224.33925,224.47943,47,35,0
224.47943,224.62094,48,36,0
224.76245,224.86958,43,33,0
225.04816,225.1553,48,36,0
225.33388,225.43709,46,33,0
225.6091,225.8778,46,46,0
225.8778,226.08614,51,43,0
226.15558,226.4316,51,48,0
226.4316,226.64644,50,46,0
226.71805,226.99582,50,54,0
226.99582,227.21011,55,51,0
227.28154,227.56726,55,59,0
227.56726,227.91953,55,55,0
227.56726,227.91953,53,55,0
227.56726,227.91953,43,55,0
227.91953,228.89896,55,61,0
227.91953,228.89896,53,61,0
227.91953,228.89896,43,61,0
228.89896,229.2562,55,48,0
228.89896,229.2562,50,48,0
228.89896,229.2562,43,48,0
229.2562,231.02489,55,48,0
229.2562,231.02489,48,48,0
232.69124,233.1787,52,52,0
233.1787,233.24834,53,44,0
233.24834,233.45886,52,58,0
233.45886,233.66939,47,57,0
233.66939,233.88472,40,54,0
233.88472,234.48007,52,59,0
234.48007,234.98137,52,52,0
234.98137,235.05298,53,44,0
235.05298,235.2613,52,59,0
235.2613,235.46257,55,55,0
235.46257,235.65674,60,53,0
235.65674,236.26898,62,45,0
235.65674,236.26898,65,53,0
236.26898,236.88123,60,44,0
236.26898,236.88123,64,52,0
236.88123,237.18735,62,46,0
236.88123,237.18735,66,55,0
237.18735,237.49347,62,45,0
237.18735,237.49347,66,53,0
237.49347,238.13177,67,56,0
237.49347,238.13177,55,47,0
237.49347,238.13177,62,47,0
238.13177,238.64148,59,61,0
238.64148,238.70451,60,51,0
238.70451,238.87994,59,61,0
238.87994,239.04944,55,59,0
239.04944,239.19795,52,56,0
239.24745,239.52269,67,76,0
239.52269,239.64497,64,64,0
239.84877,240.34406,59,62,0
240.34406,240.40707,60,53,0
240.40707,240.581,59,64,0
240.581,240.74907,55,61,0
240.74907,240.8947,52,57,0
240.94324,241.21596,67,76,0
241.21596,241.33076,64,66,0
241.52208,241.8051,47,77,0
241.8051,241.91124,59,72,0
242.01736,242.07986,63,55,0
242.07986,242.25081,64,73,0
242.25081,242.41609,66,67,0
242.41609,242.62189,67,78,0
242.62189,242.9049,47,79,0
242.9049,243.01103,59,73,0
243.11717,243.17967,63,58,0
243.17967,243.34773,64,75,0
243.34773,243.51302,66,68,0
243.51302,243.70532,67,66,0
243.70532,243.9857,47,80,0
243.9857,244.09709,59,75,0
244.28273,244.5914,35,81,0
244.5914,244.70715,47,70,0
246.53644,246.81682,64,36,0
246.81682,246.96245,67,25,0
247.10808,247.38586,64,34,0
247.38586,247.52872,67,25,0
247.67157,247.95195,64,33,0
247.95195,248.0948,67,26,0
248.23766,248.51804,64,33,0
248.51804,248.66089,67,24,0
248.80376,249.08412,64,31,0
249.08412,249.22697,67,23,0
249.36984,249.6502,64,30,0
249.6502,249.79308,67,21,0
249.93593,250.41035,55,48,0
250.41035,250.47813,57,40,0
250.47813,250.65886,55,48,0
250.65886,250.8396,52,45,0
250.8396,251.02032,48,39,0
251.02032,251.445,55,48,0
251.445,251.60481,64,45,0
251.60481,252.75674,64,48,0
252.75674,253.04245,60,36,0
254.98647,255.45944,55,48,0
255.45944,255.52701,57,40,0
255.52701,255.70718,55,48,0
255.70718,255.88737,52,45,0
255.88737,256.06754,48,41,0
256.06754,256.49237,55,48,0
256.49237,256.63943,64,45,0
256.63943,257.72385,64,48,0
257.72385,257.99493,60,38,0
258.26605,258.4089,43,61,0
258.55176,258.6869,45,55,0
258.6869,258.82202,47,55,0
258.82202,258.92816,48,61,0
259.10504,259.21533,43,53,0
259.39917,259.5424,48,61,0
259.97208,260.1177,55,38,0
259.97208,260.1177,51,38,0
260.26334,260.40485,55,35,0
260.26334,260.40485,53,35,0
260.26334,260.40485,50,35,0
260.54636,260.65665,55,38,0
260.54636,260.65665,51,38,0
260.54636,260.65665,48,38,0
260.84045,260.94864,55,35,0
260.84045,260.94864,50,35,0
260.84045,260.94864,47,35,0
261.12894,261.23508,55,42,0
261.12894,261.23508,51,42,0
261.12894,261.23508,48,42,0
261.41196,261.5483,58,49,0
261.41196,261.5483,53,49,0
261.41196,261.5483,50,49,0
261.6847,261.8186,58,52,0
261.6847,261.8186,56,52,0
261.6847,261.8186,53,52,0
261.95255,262.0954,58,49,0
261.95255,262.0954,55,49,0
261.95255,262.0954,51,49,0
262.23825,262.37714,58,53,0
262.23825,262.37714,55,53,0
262.23825,262.37714,51,53,0
262.51602,262.65924,62,51,0
262.51602,262.65924,57,51,0
262.51602,262.65924,54,51,0
262.8025,262.9457,62,57,0
262.8025,262.9457,60,57,0
262.8025,262.9457,57,57,0
263.08893,263.236,62,55,0
263.08893,263.236,58,55,0
263.08893,263.236,55,55,0
263.38306,263.5301,62,62,0
263.38306,263.5301,58,62,0
263.38306,263.5301,55,62,0
263.67715,263.83206,59,49,0
263.67715,263.83206,50,49,0
263.67715,263.83206,43,49,0
263.987,265.07132,59,47,0
263.987,265.07132,50,47,0
263.987,265.07132,43,47,0
265.07132,265.44168,55,37,0
265.07132,265.44168,67,37,0
265.07132,265.44168,65,37,0
265.44168,267.2104,60,35,0
265.44168,267.2104,64,35,0
265.44168,267.2104,67,35,0
