start_time,end_time,note_value,velocity,instrument_program_number
0.1798232,0.35784608,58,26,0
0.35784608,0.53391385,61,26,0
0.53391385,0.7081699,66,29,0
0.7081699,0.88065034,61,25,0
0.88065034,1.0513059,58,22,0
1.0513059,1.220248,61,30,0
1.220248,1.3875208,58,25,0
1.3875208,1.55308,61,25,0
1.55308,1.7174138,66,29,0
1.7174138,1.8816714,61,26,0
1.8816714,2.0459292,58,23,0
0.0,2.0459292,70,44,0
2.2089682,2.3720071,58,27,0
2.3720071,2.535046,61,29,0
2.535046,2.6986854,66,31,0
2.6986854,2.8623247,61,26,0
2.8623247,3.025366,58,29,0
2.0459292,3.025366,70,41,0
3.1887052,3.3535733,58,28,0
3.3535733,3.5212893,61,30,0
3.5212893,3.701567,66,35,0
3.701567,3.8818448,61,31,0
3.8818448,4.0624895,58,33,0
3.025366,4.0624895,70,44,0
4.241951,4.4196157,58,27,0
4.4196157,4.595683,63,27,0
4.595683,4.7701097,66,34,0
4.7701097,4.942925,63,29,0
4.942925,5.114242,58,26,0
5.114242,5.283992,63,37,0
5.283992,5.452214,58,29,0
5.452214,5.6190157,63,29,0
5.6190157,5.7845736,66,36,0
5.7845736,5.950054,63,29,0
5.950054,6.1155353,58,25,0
4.0624895,6.1155353,70,49,0
6.278574,6.441613,54,30,0
6.441613,6.604652,58,30,0
6.604652,6.767691,63,36,0
6.767691,6.93073,58,30,0
6.93073,7.094229,54,30,0
7.094229,7.2616596,58,37,0
7.2616596,7.430843,54,30,0
7.430843,7.6017466,58,30,0
7.6017466,7.7820244,63,35,0
7.7820244,7.9623017,58,30,0
7.9623017,8.142579,54,27,0
6.1155353,8.142579,66,49,0
8.317204,8.4896,56,29,0
8.4896,8.660421,59,29,0
8.660421,8.829765,63,37,0
8.829765,8.99767,59,29,0
8.99767,9.164003,56,29,0
9.164003,9.328949,59,37,0
9.328949,9.492517,56,29,0
9.492517,9.654666,59,29,0
9.654666,9.81593,63,36,0
9.81593,9.977195,59,29,0
9.977195,10.138459,56,29,0
8.142579,10.138459,68,49,0
10.30031,10.462162,56,29,0
10.462162,10.624014,59,29,0
10.138459,10.624014,66,46,0
10.788123,10.953451,56,28,0
10.953451,11.119862,59,28,0
10.624014,11.119862,65,45,0
11.288482,11.457102,56,29,0
11.457102,11.625722,59,30,0
11.119862,11.625722,63,44,0
11.798285,11.970847,53,29,0
11.970847,12.14341,56,30,0
11.625722,12.14341,61,40,0
12.321878,12.498652,54,32,0
12.498652,12.673852,58,33,0
12.14341,12.673852,66,49,0
12.673852,12.847258,61,35,0
12.847258,13.019072,58,36,0
13.019072,13.18915,54,38,0
13.357691,13.52465,60,38,0
13.52465,13.690054,63,36,0
13.18915,13.690054,70,48,0
13.690054,13.854312,66,35,0
13.854312,14.01857,63,33,0
14.01857,14.182827,60,32,0
14.345281,14.507133,56,27,0
14.507133,14.668983,61,27,0
14.668983,14.830835,65,30,0
14.830835,14.992687,61,27,0
14.992687,15.15621,56,27,0
15.15621,15.324196,61,30,0
15.324196,15.49477,56,27,0
15.49477,15.668009,61,27,0
14.182827,15.668009,68,41,0
15.668009,15.848287,65,31,0
15.848287,16.028564,61,24,0
16.028564,16.208841,57,24,0
15.668009,16.208841,69,39,0
16.388664,16.566689,58,26,0
16.566689,16.742756,61,26,0
16.742756,16.917011,66,29,0
16.917011,17.089493,61,25,0
17.089493,17.260147,58,25,0
17.260147,17.42909,61,30,0
17.42909,17.596363,58,25,0
17.596363,17.76192,61,21,0
17.76192,17.924364,66,29,0
17.924364,18.086807,61,26,0
18.086807,18.24925,58,24,0
16.208841,18.24925,70,44,0
18.411102,18.572954,58,27,0
18.572954,18.734806,61,29,0
18.734806,18.894934,66,31,0
18.894934,19.05389,61,26,0
19.05389,19.213741,58,29,0
18.24925,19.213741,70,41,0
19.38078,19.549963,58,28,0
19.549963,19.72153,61,30,0
19.72153,19.901808,66,35,0
19.901808,20.082087,61,31,0
20.082087,20.26273,58,33,0
19.213741,20.26273,70,44,0
20.442192,20.619856,58,27,0
20.619856,20.795925,63,27,0
20.795925,20.97035,66,34,0
20.97035,21.143166,63,29,0
21.143166,21.314484,58,29,0
21.314484,21.484232,63,37,0
21.484232,21.652454,58,29,0
21.652454,21.819256,63,29,0
21.819256,21.984354,66,36,0
21.984354,22.147993,63,29,0
22.147993,22.311632,58,29,0
20.26273,22.311632,70,49,0
22.474672,22.63771,54,30,0
22.63771,22.80075,58,30,0
22.80075,22.963789,63,36,0
22.963789,23.126827,58,30,0
23.126827,23.290327,54,30,0
22.311632,23.290327,66,49,0
23.457758,23.626942,53,30,0
23.626942,23.797844,56,30,0
23.797844,23.96974,62,35,0
23.96974,24.141634,56,30,0
24.141634,24.31353,53,30,0
23.290327,24.31353,65,49,0
24.488153,24.660551,51,35,0
24.660551,24.831371,54,38,0
24.831371,25.000715,59,43,0
25.000715,25.168621,54,45,0
25.168621,25.334953,51,49,0
24.31353,25.334953,63,49,0
25.499899,25.663467,56,41,0
25.663467,25.825615,59,41,0
25.825615,25.98688,63,47,0
25.98688,26.148144,59,33,0
26.148144,26.309408,56,33,0
25.334953,26.309408,68,58,0
26.47126,26.633112,59,29,0
26.633112,26.794964,56,29,0
26.309408,26.794964,66,46,0
26.959072,27.124401,59,28,0
27.124401,27.290812,56,28,0
26.794964,27.290812,65,45,0
27.45943,27.628052,59,29,0
27.628052,27.79667,56,30,0
27.290812,27.79667,63,44,0
27.969234,28.141796,59,29,0
28.141796,28.31436,56,30,0
27.79667,28.31436,65,40,0
28.493576,28.666803,59,27,0
28.666803,28.834068,61,27,0
28.834068,28.997108,65,34,0
28.997108,29.160147,61,29,0
29.160147,29.323187,59,29,0
29.323187,29.488052,61,37,0
29.488052,29.65292,59,29,0
29.65292,29.818947,61,29,0
29.818947,29.981985,65,36,0
29.981985,30.145025,61,29,0
30.145025,30.308064,59,29,0
28.31436,30.308064,68,49,0
30.471104,30.634142,54,30,0
30.634142,30.79718,58,24,0
30.79718,30.96022,61,36,0
30.96022,31.123259,58,30,0
31.123259,31.286758,54,24,0
31.286758,31.45419,58,37,0
31.45419,31.623371,54,30,0
31.623371,31.794275,58,26,0
31.794275,31.974552,61,35,0
31.974552,32.15483,58,30,0
32.15483,32.33511,54,26,0
30.308064,32.33511,66,49,0
32.511936,32.686905,56,26,0
32.686905,32.859913,61,26,0
32.859913,33.031082,65,29,0
33.031082,33.20037,61,25,0
33.20037,33.367825,56,25,0
33.367825,33.53356,61,30,0
33.53356,33.697536,56,26,0
33.697536,33.85992,61,26,0
33.85992,34.02177,65,30,0
34.02177,34.183624,61,27,0
34.183624,34.345474,56,27,0
32.33511,34.345474,68,44,0
34.50674,34.668003,61,29,0
34.668003,34.82927,63,31,0
34.82927,34.986526,67,39,0
34.986526,35.143784,63,31,0
35.143784,35.302555,61,44,0
35.302555,35.465,63,47,0
35.465,35.62744,61,51,0
35.62744,35.789597,63,54,0
35.789597,35.952465,67,55,0
35.952465,36.116703,63,62,0
36.116703,36.283966,61,67,0
34.345474,36.283966,70,43,0
36.453846,36.621902,61,51,0
36.621902,36.79012,63,51,0
36.79012,36.957485,68,66,0
36.957485,37.1236,63,49,0
37.1236,37.288483,61,49,0
37.288483,37.452293,63,55,0
37.452293,37.614902,61,37,0
37.614902,37.776394,63,33,0
36.283966,37.776394,73,74,0
37.776394,37.93766,68,37,0
37.93766,38.098923,63,33,0
38.098923,38.26019,59,33,0
37.776394,38.26019,71,50,0
38.423225,38.586266,59,28,0
38.586266,38.749306,63,28,0
38.749306,38.912342,68,30,0
38.912342,39.075382,63,25,0
39.075382,39.23888,59,25,0
39.23888,39.40631,63,31,0
39.40631,39.575497,59,25,0
39.575497,39.7464,63,25,0
39.7464,39.926678,68,29,0
39.926678,40.106953,63,25,0
40.106953,40.28723,59,25,0
38.26019,40.28723,71,41,0
40.464058,40.639027,59,33,0
40.639027,40.81211,64,33,0
40.81211,40.982975,68,37,0
40.982975,41.150898,64,32,0
41.150898,41.31596,59,32,0
41.31596,41.478275,64,39,0
41.478275,41.637962,59,33,0
41.637962,41.79697,64,33,0
41.79697,41.956497,68,39,0
41.956497,42.116024,64,35,0
42.116024,42.275555,59,36,0
40.28723,42.275555,71,54,0
42.431705,42.587856,59,37,0
42.587856,42.74401,63,40,0
42.74401,42.90469,66,44,0
42.90469,43.065372,63,37,0
43.065372,43.226757,59,39,0
42.275555,43.226757,71,49,0
43.3892,43.551643,64,49,0
43.551643,43.7138,66,51,0
43.7138,43.876667,70,60,0
43.876667,44.040905,66,64,0
44.040905,44.208164,64,63,0
43.226757,44.208164,73,55,0
44.378048,44.546104,64,57,0
44.546104,44.714317,66,57,0
44.714317,44.881683,71,63,0
44.881683,45.047802,66,48,0
45.047802,45.212685,64,48,0
45.212685,45.376495,66,54,0
45.376495,45.539104,64,35,0
45.539104,45.70053,66,37,0
44.208164,45.70053,76,69,0
45.70053,45.86561,71,42,0
45.86561,46.03109,66,37,0
46.03109,46.19657,63,37,0
45.70053,46.19657,75,57,0
46.359608,46.522648,63,31,0
46.522648,46.685688,66,31,0
46.685688,46.848724,71,34,0
46.848724,47.011765,66,28,0
47.011765,47.175262,63,28,0
47.175262,47.339527,66,35,0
47.339527,47.505722,63,28,0
47.505722,47.67469,66,28,0
47.67469,47.85497,71,34,0
47.85497,48.035248,66,28,0
48.035248,48.215126,63,28,0
46.19657,48.215126,75,45,0
48.388153,48.558933,63,32,0
48.558933,48.727474,66,32,0
48.727474,48.89385,71,45,0
48.89385,49.058105,66,32,0
49.058105,49.22029,63,35,0
49.22029,49.381554,66,31,0
49.381554,49.54282,63,31,0
49.54282,49.704304,66,31,0
49.704304,49.865566,71,36,0
49.865566,50.026833,66,30,0
50.026833,50.188095,63,30,0
48.215126,50.188095,75,47,0
50.35054,50.51298,68,29,0
50.51298,50.675426,65,29,0
50.188095,50.675426,75,46,0
50.837868,51.000313,68,28,0
51.000313,51.162754,65,28,0
50.675426,51.162754,71,43,0
51.325794,51.488834,65,28,0
51.488834,51.65187,61,28,0
51.162754,51.65187,70,43,0
51.81551,51.97915,65,28,0
51.97915,52.143143,61,28,0
51.65187,52.143143,68,39,0
52.311924,52.479076,61,32,0
52.479076,52.644714,66,32,0
52.644714,52.808777,70,32,0
52.808777,52.97137,66,32,0
52.97137,53.132454,61,31,0
53.132454,53.290268,66,41,0
53.290268,53.448086,61,31,0
53.448086,53.607845,66,27,0
53.607845,53.769108,70,36,0
53.769108,53.930374,66,30,0
53.930374,54.091637,61,26,0
52.143143,54.091637,73,47,0
54.25408,54.416523,66,29,0
54.416523,54.578968,63,29,0
54.091637,54.578968,73,46,0
54.74141,54.903854,66,28,0
54.903854,55.066296,63,28,0
54.578968,55.066296,71,43,0
55.229336,55.392376,63,28,0
55.392376,55.555412,59,28,0
55.066296,55.555412,68,43,0
55.727978,55.90054,59,28,0
55.90054,56.0731,56,28,0
55.555412,56.0731,63,39,0
56.241882,56.40904,54,29,0
56.40904,56.574673,58,29,0
56.574673,56.73874,61,39,0
56.73874,56.90133,58,29,0
56.90133,57.062412,54,29,0
57.062412,57.222515,58,36,0
57.222515,57.382618,54,30,0
57.382618,57.54352,58,30,0
57.54352,57.70479,61,36,0
57.70479,57.86605,58,30,0
57.86605,58.027313,54,30,0
56.0731,58.027313,66,47,0
58.18976,58.3522,59,29,0
58.3522,58.514645,56,29,0
58.027313,58.514645,66,45,0
58.677086,58.83953,59,28,0
58.83953,59.001972,56,28,0
58.514645,59.001972,65,41,0
59.165012,59.328053,61,28,0
59.328053,59.49109,59,28,0
59.001972,59.49109,70,42,0
59.663654,59.836216,61,26,0
59.836216,60.008778,59,26,0
59.49109,60.008778,68,39,0
60.17756,60.344715,54,29,0
60.344715,60.51035,58,29,0
60.51035,60.674416,61,29,0
60.674416,60.837006,58,29,0
60.837006,60.99809,54,26,0
60.99809,61.15819,58,36,0
61.15819,61.318295,54,30,0
61.318295,61.4792,58,30,0
61.4792,61.640465,61,36,0
61.640465,61.801727,58,30,0
61.801727,61.962994,54,30,0
60.008778,61.962994,66,47,0
62.131775,62.298927,54,29,0
62.298927,62.464565,58,29,0
62.464565,62.628628,61,36,0
62.628628,62.79122,58,29,0
62.79122,62.952305,54,31,0
61.962994,62.952305,66,47,0
63.112408,63.27251,55,30,0
63.27251,63.43341,58,30,0
63.43341,63.60203,61,36,0
63.60203,63.770653,58,30,0
63.770653,63.939274,55,30,0
62.952305,63.939274,67,47,0
64.1161,64.29107,56,26,0
64.29107,64.46408,61,26,0
64.46408,64.63543,65,29,0
64.63543,64.804146,61,25,0
64.804146,64.9701,56,25,0
64.9701,65.13331,61,30,0
65.13331,65.29392,56,26,0
65.29392,65.45288,61,26,0
65.45288,65.61183,65,30,0
65.61183,65.77079,61,27,0
65.77079,65.92975,56,27,0
63.939274,65.92975,68,44,0
66.084816,66.239876,61,29,0
66.239876,66.394936,64,31,0
66.394936,66.55562,67,42,0
66.55562,66.7163,64,38,0
66.7163,66.877686,61,43,0
66.877686,67.04013,63,48,0
67.04013,67.20257,61,52,0
67.20257,67.36472,63,57,0
67.36472,67.527596,67,62,0
67.527596,67.69183,63,58,0
67.69183,67.85909,61,60,0
65.92975,67.85909,70,43,0
68.02898,68.19703,61,59,0
68.19703,68.36525,63,57,0
68.36525,68.532616,70,68,0
68.532616,68.69873,63,42,0
68.69873,68.86361,61,47,0
68.86361,69.02742,63,56,0
69.02742,69.19003,61,35,0
69.19003,69.351524,63,36,0
67.85909,69.351524,73,78,0
69.351524,69.51279,68,37,0
69.51279,69.67405,63,33,0
69.67405,69.83532,59,33,0
69.351524,69.83532,71,50,0
69.99835,70.16139,59,28,0
70.16139,70.32443,63,28,0
70.32443,70.48747,68,30,0
70.48747,70.65051,63,25,0
70.65051,70.81401,59,25,0
70.81401,70.98144,63,31,0
70.98144,71.15063,59,25,0
71.15063,71.321526,63,25,0
71.321526,71.50181,68,29,0
71.50181,71.68208,63,25,0
71.68208,71.86236,59,25,0
69.83532,71.86236,71,41,0
72.039185,72.21416,59,33,0
72.21416,72.38724,64,33,0
72.38724,72.558105,68,37,0
72.558105,72.72603,64,32,0
72.72603,72.89109,59,32,0
72.89109,73.053406,64,39,0
73.053406,73.21309,59,33,0
73.21309,73.3721,64,33,0
73.3721,73.531624,68,43,0
73.531624,73.691154,64,36,0
73.691154,73.85068,59,37,0
71.86236,73.85068,71,54,0
74.00629,74.161896,59,39,0
74.161896,74.3175,63,40,0
74.3175,74.47818,66,49,0
74.47818,74.63886,63,43,0
74.63886,74.80025,59,45,0
73.85068,74.80025,71,58,0
74.962685,75.12513,64,46,0
75.12513,75.287285,66,49,0
75.287285,75.45016,70,62,0
75.45016,75.614395,66,59,0
75.614395,75.781654,64,67,0
74.80025,75.781654,73,54,0
75.95154,76.11959,64,53,0
76.11959,76.2878,66,52,0
76.2878,76.45518,73,63,0
76.45518,76.62129,66,46,0
76.62129,76.78617,64,46,0
76.78617,76.94998,66,54,0
76.94998,77.112595,64,40,0
77.112595,77.27402,66,40,0
75.781654,77.27402,76,77,0
77.27402,77.439095,71,51,0
77.439095,77.604576,66,37,0
77.604576,77.77006,63,37,0
77.27402,77.77006,75,51,0
77.9331,78.09614,63,35,0
78.09614,78.25918,66,35,0
78.25918,78.42221,71,45,0
78.42221,78.58525,66,30,0
78.58525,78.74875,63,32,0
78.74875,78.91236,66,42,0
78.91236,79.07707,63,31,0
79.07707,79.24404,66,31,0
79.24404,79.42432,71,41,0
79.42432,79.6046,66,31,0
79.6046,79.78448,63,31,0
77.77006,79.78448,75,55,0
79.957504,80.12828,63,32,0
80.12828,80.29682,66,32,0
80.29682,80.463196,71,37,0
80.463196,80.62746,66,32,0
80.62746,80.78964,63,33,0
80.78964,80.950905,66,35,0
80.950905,81.11217,63,31,0
81.11217,81.27365,66,31,0
81.27365,81.43492,71,36,0
81.43492,81.59618,66,30,0
81.59618,81.75745,63,30,0
79.78448,81.75745,75,47,0
81.91989,82.08233,68,29,0
82.08233,82.244774,65,29,0
81.75745,82.244774,75,50,0
82.40722,82.569664,68,28,0
82.569664,82.7321,65,28,0
82.244774,82.7321,74,48,0
82.89514,83.05818,65,28,0
83.05818,83.22122,62,28,0
82.7321,83.22122,71,42,0
83.38486,83.5485,65,28,0
83.5485,83.712494,61,28,0
83.22122,83.712494,68,39,0
83.88127,84.04842,61,32,0
84.04842,84.214066,66,32,0
84.214066,84.37813,70,36,0
84.37813,84.54072,66,32,0
84.54072,84.701805,61,32,0
84.701805,84.86191,66,36,0
84.86191,85.02201,61,31,0
85.02201,85.182915,66,31,0
85.182915,85.34418,70,36,0
85.34418,85.50544,66,30,0
85.50544,85.6667,61,30,0
83.712494,85.6667,73,47,0
85.82915,85.99159,67,29,0
85.99159,86.15404,63,29,0
85.6667,86.15404,73,46,0
86.316475,86.47892,68,28,0
86.47892,86.641365,63,28,0
86.15404,86.641365,71,43,0
86.804405,86.96744,63,28,0
86.96744,87.13048,59,28,0
86.641365,87.13048,68,43,0
87.30304,87.47561,60,28,0
87.47561,87.64817,56,28,0
87.13048,87.64817,63,39,0
87.81695,87.9841,54,29,0
87.9841,88.14974,58,29,0
88.14974,88.313805,61,34,0
88.313805,88.476395,58,29,0
88.476395,88.63748,54,30,0
88.63748,88.797585,58,34,0
88.797585,88.95769,54,30,0
88.95769,89.11859,58,30,0
89.11859,89.279854,61,36,0
89.279854,89.44112,58,30,0
89.44112,89.60238,54,30,0
87.64817,89.60238,66,47,0
89.764824,89.92727,59,29,0
89.92727,90.089714,56,29,0
89.60238,90.089714,66,45,0
90.25215,90.4146,59,28,0
90.4146,90.57704,56,28,0
90.089714,90.57704,65,41,0
90.74008,90.903114,61,28,0
90.903114,91.066154,59,28,0
90.57704,91.066154,70,42,0
91.238716,91.411285,61,26,0
91.411285,91.58385,59,26,0
91.066154,91.58385,68,39,0
91.752625,91.919785,54,29,0
91.919785,92.08542,58,29,0
92.08542,92.24948,61,33,0
92.24948,92.41207,58,29,0
92.41207,92.57316,54,29,0
92.57316,92.73326,58,32,0
92.73326,92.893364,54,30,0
92.893364,93.05427,58,30,0
93.05427,93.21553,61,36,0
93.21553,93.37679,58,30,0
93.37679,93.538055,54,30,0
93.538055,93.70684,58,37,0
93.70684,93.87399,54,29,0
93.87399,94.03963,58,29,0
94.03963,94.2037,61,32,0
94.2037,94.36629,58,29,0
94.36629,94.527374,54,45,0
94.527374,94.68747,58,48,0
94.68747,94.84757,54,51,0
94.84757,95.00848,58,53,0
95.00848,95.1771,62,56,0
95.1771,95.34572,58,59,0
95.34572,95.514336,54,61,0
91.58385,95.514336,66,47,0
95.68312,95.85027,58,50,0
95.85027,96.015915,63,50,0
96.015915,96.17998,66,63,0
96.17998,96.34257,63,49,0
96.34257,96.503654,58,48,0
96.503654,96.66376,63,61,0
96.66376,96.82385,58,48,0
96.82385,96.98476,63,48,0
96.98476,97.14603,66,55,0
97.14603,97.30729,63,47,0
97.30729,97.46855,58,47,0
95.514336,97.46855,70,76,0
97.63734,97.80449,58,44,0
97.80449,97.97012,63,44,0
97.97012,98.134186,66,53,0
98.134186,98.29678,63,43,0
98.29678,98.45786,58,43,0
98.45786,98.617966,63,55,0
98.617966,98.77807,58,44,0
98.77807,98.93897,63,45,0
98.93897,99.1076,66,51,0
99.1076,99.276215,63,46,0
99.276215,99.44483,58,46,0
97.46855,99.44483,70,73,0
99.61346,99.782074,62,54,0
99.782074,99.95069,65,54,0
99.44483,99.95069,70,68,0
100.11495,100.279205,65,44,0
100.279205,100.44347,68,44,0
99.95069,100.44347,77,65,0
100.605316,100.767166,65,41,0
100.767166,100.92902,68,41,0
100.44347,100.92902,74,61,0
101.099594,101.27017,65,35,0
101.27017,101.44075,68,35,0
100.92902,101.44075,71,52,0
101.60685,101.77295,65,38,0
101.77295,101.93905,68,38,0
101.44075,101.93905,71,53,0
102.108955,102.27886,65,35,0
102.27886,102.44878,68,35,0
101.93905,102.44878,70,50,0
102.61425,102.77973,58,37,0
102.77973,102.94521,65,38,0
102.44878,102.94521,70,49,0
103.110695,103.27618,58,32,0
103.27618,103.44166,65,31,0
102.94521,103.44166,68,47,0
103.60234,103.763016,58,33,0
103.763016,103.9237,63,35,0
103.44166,103.9237,68,44,0
104.08857,104.25343,58,32,0
104.25343,104.418304,63,32,0
103.9237,104.418304,66,44,0
104.57898,104.73966,56,31,0
104.73966,104.900345,59,31,0
104.418304,104.900345,65,40,0
105.064606,105.22886,56,30,0
105.22886,105.39312,59,30,0
104.900345,105.39312,68,44,0
105.55322,105.713326,51,32,0
105.713326,105.87343,54,32,0
105.87343,106.03528,58,39,0
106.03528,106.19713,54,32,0
106.19713,106.35898,51,32,0
105.39312,106.35898,63,42,0
106.52142,106.68387,50,33,0
106.68387,106.846306,53,33,0
106.846306,107.01303,58,43,0
106.35898,107.09639,62,42,0
107.01303,107.179756,53,48,0
107.179756,107.33606,70,54,0
107.51526,107.68241,58,48,0
107.68241,107.848045,63,48,0
107.848045,108.012115,66,56,0
108.012115,108.174706,63,48,0
108.174706,108.33579,58,48,0
108.33579,108.49589,63,56,0
108.49589,108.65599,58,48,0
108.65599,108.816895,63,48,0
108.816895,108.978165,66,48,0
108.978165,109.13943,63,48,0
109.13943,109.30069,58,44,0
107.34647,109.30069,70,66,0
109.469475,109.63663,58,41,0
109.63663,109.80226,63,44,0
109.80226,109.966324,66,49,0
109.966324,110.12892,63,45,0
110.12892,110.29,58,44,0
110.29,110.4501,63,51,0
110.4501,110.61021,58,47,0
110.61021,110.77111,63,44,0
109.30069,110.77111,70,62,0
110.77111,110.93973,66,47,0
110.93973,111.10835,63,42,0
111.10835,111.27697,58,42,0
110.77111,111.27697,71,60,0
111.445595,111.61421,62,46,0
111.61421,111.78283,65,46,0
111.27697,111.78283,70,55,0
111.94709,112.11134,65,44,0
112.11134,112.275604,68,44,0
111.78283,112.275604,77,59,0
112.437454,112.599304,65,41,0
112.599304,112.76116,68,41,0
112.275604,112.76116,74,53,0
112.93173,113.10231,65,35,0
113.10231,113.27289,68,35,0
112.76116,113.27289,71,47,0
113.43899,113.60509,65,38,0
113.60509,113.77119,68,38,0
113.27289,113.77119,70,53,0
113.93482,114.098465,65,35,0
114.098465,114.2621,68,35,0
113.77119,114.2621,71,50,0
114.42758,114.59306,58,37,0
114.59306,114.758545,65,38,0
114.2621,114.758545,70,49,0
114.92403,115.08951,58,32,0
115.08951,115.25498,65,31,0
114.758545,115.25498,68,47,0
115.25498,115.415665,68,44,0
115.415665,115.57635,58,33,0
115.57635,115.73703,63,35,0
115.73703,115.90189,66,44,0
115.90189,116.066765,58,32,0
116.066765,116.23163,63,32,0
116.23163,116.39231,65,40,0
116.39231,116.55299,56,31,0
116.55299,116.71368,59,31,0
116.71368,116.87793,71,44,0
116.87793,117.04219,59,30,0
117.04219,117.20644,65,30,0
117.36655,117.52665,51,32,0
117.52665,117.68675,54,32,0
117.68675,117.8486,58,32,0
117.8486,118.01046,54,32,0
118.01046,118.17231,51,32,0
117.20644,118.17231,63,42,0
118.334755,118.49719,50,33,0
118.49719,118.65964,53,33,0
118.49719,118.65964,58,33,0
118.17231,118.90972,62,42,0
118.82636,118.99308,58,33,0
118.99308,119.159805,65,44,0
118.65964,119.159805,70,33,0
119.159805,119.32049,68,37,0
119.32049,119.48117,58,28,0
119.48117,119.641846,63,29,0
119.641846,119.80672,66,37,0
119.80672,119.97158,58,27,0
119.97158,120.13645,63,27,0
120.13645,120.297134,64,34,0
120.297134,120.45781,56,26,0
120.45781,120.61849,59,26,0
120.61849,120.78275,71,37,0
120.78275,120.94701,59,25,0
120.94701,121.11127,64,25,0
121.27137,121.43147,51,27,0
121.43147,121.591576,54,27,0
121.591576,121.753426,59,27,0
121.753426,121.915276,54,27,0
121.915276,122.077126,51,27,0
121.11127,122.077126,63,35,0
122.23957,122.402016,49,28,0
122.402016,122.56446,54,28,0
122.56446,122.73118,58,28,0
122.73118,122.8979,54,28,0
122.8979,123.06463,49,31,0
122.077126,123.06463,61,35,0
123.23166,123.39744,54,24,0
123.39744,123.56161,59,24,0
123.56161,123.72412,63,24,0
123.72412,123.885155,59,24,0
123.885155,124.04584,54,24,0
124.04584,124.20652,59,27,0
124.20652,124.3672,54,24,0
124.3672,124.527885,59,22,0
124.527885,124.69152,63,25,0
124.69152,124.85516,59,23,0
124.85516,125.0188,54,22,0
123.06463,125.0188,66,39,0
125.1789,125.339005,54,25,0
125.339005,125.49911,58,26,0
125.49911,125.66096,64,28,0
125.66096,125.822815,58,25,0
125.822815,125.984665,54,25,0
125.0188,125.984665,66,35,0
126.14477,126.30487,58,27,0
126.30487,126.46497,64,27,0
125.984665,126.46497,68,34,0
126.63169,126.798416,64,27,0
126.798416,126.992676,58,27,0
126.46497,126.992676,66,33,0
127.16145,127.32861,63,25,0
127.32861,127.49425,66,25,0
127.49425,127.65831,71,31,0
127.65831,127.8209,66,25,0
127.8209,127.98199,63,25,0
127.98199,128.14209,66,28,0
128.14209,128.30809,63,25,0
128.30809,128.47865,66,28,0
126.992676,128.47865,75,41,0
128.63933,128.80002,67,23,0
128.80002,128.9607,63,23,0
128.47865,128.9607,73,31,0
129.12314,129.28558,68,25,0
129.28558,129.44803,59,23,0
128.9607,129.44803,73,37,0
129.61047,129.77292,68,22,0
129.77292,129.93535,59,22,0
129.44803,129.93535,71,36,0
130.09839,130.26143,64,23,0
130.26143,130.42447,59,23,0
129.93535,130.42447,68,35,0
130.59703,130.76959,61,22,0
130.76959,130.94215,56,22,0
130.42447,130.94215,64,31,0
131.11095,131.27809,51,26,0
131.27809,131.44373,54,26,0
131.44373,131.6078,59,28,0
131.6078,131.77039,54,26,0
131.77039,131.93147,51,26,0
131.93147,132.09157,54,27,0
132.09157,132.25168,51,26,0
132.25168,132.41258,54,28,0
130.94215,132.41258,63,38,0
132.41258,132.57385,59,28,0
132.57385,132.7351,54,28,0
132.7351,132.89638,51,28,0
132.41258,132.89638,63,35,0
133.05882,133.22127,58,28,0
133.22127,133.3837,61,28,0
132.89638,133.3837,68,38,0
133.54614,133.70859,58,27,0
133.70859,133.87103,61,28,0
133.3837,133.87103,66,36,0
134.03407,134.19711,54,27,0
134.19711,134.36015,58,27,0
133.87103,134.36015,64,35,0
134.53271,134.70528,54,26,0
134.70528,134.87784,58,26,0
134.36015,134.87784,61,34,0
135.04662,135.21378,47,20,0
135.21378,135.37941,51,20,0
135.37941,135.54347,54,22,0
135.54347,135.70607,51,20,0
135.70607,135.86716,47,20,0
135.86716,136.02725,51,21,0
136.02725,136.18735,47,20,0
136.18735,136.34825,51,22,0
134.87784,136.34825,59,30,0
136.34825,136.50952,54,22,0
136.50952,136.67079,51,22,0
136.67079,136.83205,47,22,0
137.00084,137.16798,47,20,0
137.16798,137.33362,52,20,0
137.33362,137.49768,55,22,0
137.49768,137.66028,52,20,0
137.66028,137.82137,47,20,0
137.82137,137.98146,52,21,0
137.98146,138.14157,47,20,0
138.14157,138.30247,52,22,0
136.83205,138.30247,59,30,0
138.30247,138.46373,55,22,0
138.46373,138.625,52,22,0
138.625,138.78627,47,22,0
138.95505,139.12221,47,20,0
139.12221,139.28784,51,20,0
139.28784,139.4519,54,22,0
139.4519,139.61449,51,20,0
139.61449,139.77557,47,20,0
139.77557,139.93568,51,25,0
139.93568,140.09578,47,34,0
140.09578,140.25668,51,38,0
138.78627,140.25668,59,30,0
140.25668,140.41795,54,42,0
140.41795,140.57921,51,46,0
140.57921,140.74048,47,50,0
140.90926,141.07642,47,51,0
141.07642,141.24205,50,47,0
141.24205,141.40611,53,42,0
141.40611,141.56871,50,38,0
141.56871,141.7298,47,34,0
140.74048,141.7298,59,54,0
141.8899,142.05,49,20,0
142.05,142.21089,52,22,0
142.21089,142.37216,54,22,0
142.37216,142.53343,52,22,0
142.53343,142.69469,49,22,0
141.7298,142.69469,58,39,0
142.86348,143.03062,47,20,0
143.03062,143.19626,51,20,0
143.19626,143.36032,54,22,0
143.36032,143.52292,51,20,0
143.52292,143.684,47,20,0
143.684,143.8441,51,21,0
143.8441,144.00421,47,20,0
144.00421,144.16512,51,22,0
142.69469,144.16512,59,30,0
144.16512,144.32637,54,22,0
144.32637,144.48764,51,22,0
144.48764,144.64891,47,22,0
144.81769,144.98485,47,20,0
144.98485,145.15048,52,20,0
145.15048,145.31454,56,22,0
145.31454,145.47714,52,20,0
145.47714,145.63821,47,20,0
145.63821,145.79832,52,21,0
145.79832,145.95842,47,20,0
145.95842,146.11932,52,22,0
144.64891,146.11932,59,30,0
146.11932,146.2806,56,22,0
146.2806,146.44185,52,22,0
146.44185,146.60312,47,22,0
146.7719,146.93906,47,20,0
146.93906,147.10469,51,20,0
147.10469,147.26875,54,22,0
147.26875,147.43135,51,20,0
147.43135,147.59244,47,20,0
147.59244,147.75253,51,25,0
147.75253,147.91264,47,33,0
147.91264,148.07355,51,36,0
146.60312,148.07355,59,30,0
148.07355,148.2348,54,39,0
148.2348,148.39607,51,42,0
148.39607,148.55733,47,45,0
148.72612,148.89326,47,45,0
148.89326,149.0589,50,42,0
149.0589,149.22298,53,40,0
149.22298,149.38556,50,37,0
149.38556,149.54665,47,35,0
148.55733,149.54665,59,48,0
149.70674,149.86685,49,20,0
149.86685,150.02776,52,22,0
150.02776,150.18903,54,22,0
150.18903,150.35028,52,22,0
150.35028,150.51155,49,22,0
149.54665,150.51155,58,39,0
150.68033,150.84749,47,20,0
150.84749,151.01312,51,20,0
151.01312,151.17719,54,22,0
151.17719,151.33978,51,20,0
151.33978,151.50085,47,20,0
151.50085,151.66096,51,25,0
151.66096,151.82106,47,28,0
151.82106,151.98196,51,31,0
150.51155,151.98196,59,30,0
151.98196,152.14323,54,34,0
152.14323,152.30449,51,37,0
152.30449,152.46576,47,40,0
152.62529,152.78482,51,41,0
152.78482,152.94435,54,41,0
152.46576,152.94435,59,49,0
153.10216,153.25998,54,46,0
153.25998,153.41779,59,42,0
152.94435,153.41779,63,54,0
153.57394,153.7301,59,49,0
153.7301,153.88625,63,53,0
153.41779,153.88625,66,62,0
154.0505,154.21477,63,55,0
154.21477,154.37903,66,58,0
153.88625,154.37903,71,67,0
154.5478,154.71495,59,60,0
154.71495,154.8806,62,60,0
154.8806,155.04466,65,68,0
155.04466,155.20724,62,49,0
155.20724,155.36833,59,57,0
155.36833,155.52844,62,65,0
155.52844,155.68854,59,54,0
155.68854,155.84944,62,54,0
155.84944,156.01492,65,63,0
156.01492,156.1801,62,54,0
156.1801,156.34497,59,54,0
154.37903,156.34497,71,77,0
156.51375,156.6809,56,50,0
156.6809,156.84654,62,50,0
156.34497,156.84654,70,75,0
156.84654,157.0106,65,46,0
157.0106,157.17319,62,49,0
157.17319,157.33427,56,44,0
157.33427,157.49438,62,56,0
157.49438,157.65448,56,46,0
157.65448,157.81538,62,41,0
157.81538,157.9821,65,57,0
157.9821,158.14883,62,46,0
158.14883,158.31555,56,46,0
156.84654,158.31555,68,68,0
158.48433,158.65149,56,53,0
158.65149,158.81712,58,53,0
158.31555,158.81712,66,75,0
158.81712,158.98119,59,46,0
158.98119,159.14378,58,44,0
159.14378,159.30487,56,46,0
159.30487,159.46497,58,56,0
159.46497,159.62506,56,46,0
159.62506,159.78596,58,41,0
159.78596,159.9527,59,53,0
159.9527,160.11942,58,46,0
160.11942,160.28613,56,46,0
158.81712,160.28613,65,68,0
160.45493,160.62207,56,53,0
160.62207,160.7877,58,53,0
160.28613,160.7877,63,75,0
160.7877,160.95178,59,46,0
160.95178,161.11436,58,50,0
161.11436,161.27545,56,50,0
161.27545,161.43555,58,56,0
161.43555,161.59566,56,41,0
161.59566,161.75656,58,35,0
161.75656,161.92328,59,49,0
161.92328,162.09001,58,37,0
162.09001,162.25673,56,35,0
160.7877,162.25673,62,68,0
162.41933,162.58177,54,30,0
162.58177,162.74422,58,24,0
162.25673,162.74422,65,45,0
162.90958,163.07506,54,29,0
163.07506,163.24054,58,24,0
162.74422,163.24054,63,44,0
163.4031,163.56554,56,30,0
163.56554,163.72798,59,24,0
163.24054,163.72798,66,47,0
163.89276,164.05763,56,35,0
164.05763,164.2225,59,30,0
163.72798,164.2225,65,44,0
164.3839,164.54517,58,37,0
164.54517,164.70642,63,30,0
164.2225,164.70642,68,54,0
164.87115,165.03603,58,30,0
165.03603,165.2009,63,26,0
164.70642,165.2009,66,47,0
165.36458,165.52821,56,29,0
165.52821,165.69185,59,24,0
165.2009,165.69185,65,50,0
165.85704,166.02252,56,29,0
166.02252,166.188,59,25,0
165.69185,166.188,68,45,0
166.35678,166.52394,51,20,0
166.52394,166.68958,54,20,0
166.68958,166.85364,58,22,0
166.85364,167.01622,54,20,0
167.01622,167.1773,51,20,0
167.1773,167.33742,54,25,0
167.33742,167.49751,51,28,0
167.49751,167.65842,54,28,0
166.188,167.65842,63,30,0
167.65842,167.81969,58,34,0
167.81969,167.98094,54,37,0
167.98094,168.14221,51,40,0
168.30174,168.46127,50,41,0
168.46127,168.62079,53,41,0
168.62079,168.77861,58,40,0
168.77861,168.93643,53,42,0
168.93643,169.09424,50,42,0
168.14221,169.09424,62,49,0
169.2504,169.40654,58,49,0
169.40654,169.5627,62,53,0
169.09424,169.5627,65,58,0
169.72696,169.89122,62,54,0
169.89122,170.05547,65,58,0
169.5627,170.05547,70,64,0
170.22426,170.3914,59,51,0
170.3914,170.55704,62,56,0
170.55704,170.72112,65,66,0
170.72112,170.8837,62,49,0
170.8837,171.04478,59,56,0
171.04478,171.20488,62,61,0
171.20488,171.36499,59,56,0
171.36499,171.5259,62,56,0
171.5259,171.69138,65,56,0
171.69138,171.85655,62,56,0
171.85655,172.02141,59,57,0
170.05547,172.02141,71,77,0
172.1902,172.35735,56,52,0
172.35735,172.52298,62,52,0
172.02141,172.52298,70,75,0
172.52298,172.68706,65,46,0
172.68706,172.84964,62,48,0
172.84964,173.01073,56,48,0
173.01073,173.17082,62,56,0
173.17082,173.33093,56,46,0
173.33093,173.49184,62,41,0
173.49184,173.65855,65,53,0
173.65855,173.82529,62,46,0
173.82529,173.992,56,46,0
172.52298,173.992,68,68,0
174.16078,174.32794,56,52,0
174.32794,174.49358,58,53,0
173.992,174.49358,66,75,0
174.49358,174.65764,59,46,0
174.65764,174.82024,58,44,0
174.82024,174.98131,56,50,0
174.98131,175.14142,58,56,0
175.14142,175.30151,56,46,0
175.30151,175.46242,58,41,0
175.46242,175.62915,59,53,0
175.62915,175.79587,58,46,0
175.79587,175.96259,56,46,0
174.49358,175.96259,65,68,0
176.13138,176.29852,56,56,0
176.29852,176.46416,58,56,0
175.96259,176.46416,63,75,0
176.46416,176.62822,59,46,0
176.62822,176.79082,58,47,0
176.79082,176.9519,56,47,0
176.9519,177.112,58,56,0
177.112,177.27211,56,41,0
177.27211,177.43301,58,39,0
177.43301,177.59973,59,49,0
177.59973,177.76645,58,37,0
177.76645,177.93318,56,35,0
176.46416,177.93318,62,68,0
178.09578,178.25822,54,30,0
178.25822,178.42067,58,24,0
177.93318,178.42067,65,45,0
178.58603,178.75151,54,29,0
178.75151,178.91699,58,24,0
178.42067,178.91699,63,44,0
179.07956,179.24199,56,30,0
179.24199,179.40443,59,24,0
178.91699,179.40443,66,47,0
179.56921,179.73409,56,35,0
179.73409,179.89894,59,30,0
179.40443,179.89894,65,44,0
180.06035,180.22162,58,37,0
180.22162,180.38287,63,30,0
179.89894,180.38287,68,54,0
180.5476,180.71248,58,30,0
180.71248,180.87733,63,26,0
180.38287,180.87733,66,47,0
181.04103,181.20467,56,29,0
181.20467,181.3683,59,24,0
180.87733,181.3683,64,50,0
181.5335,181.69897,59,29,0
181.35399,181.84998,71,45,0
181.69897,181.86446,64,25,0
182.03323,182.20038,51,20,0
182.20038,182.36603,54,20,0
182.36603,182.53009,58,22,0
182.53009,182.69267,54,20,0
182.69267,182.85376,51,20,0
182.85376,183.01387,54,25,0
183.01387,183.17397,51,28,0
183.17397,183.33487,54,28,0
181.86446,183.33487,63,30,0
183.33487,183.49614,58,34,0
183.49614,183.6574,54,37,0
183.6574,183.81866,51,40,0
183.9782,184.13771,50,41,0
184.13771,184.29724,53,38,0
184.29724,184.45506,58,40,0
184.45506,184.61287,53,35,0
184.61287,184.77069,50,36,0
183.81866,184.77069,62,49,0
184.77069,184.92685,53,40,0
184.92685,185.083,50,35,0
185.083,185.23915,53,35,0
185.23915,185.40341,58,40,0
185.40341,185.56766,53,35,0
185.56766,185.73192,50,36,0
185.90495,186.07573,58,32,0
186.07573,186.24428,63,32,0
186.24428,186.41064,67,37,0
186.41064,186.5749,63,32,0
186.5749,186.73709,58,33,0
186.73709,186.89835,63,35,0
186.89835,187.05962,58,31,0
187.05962,187.2211,63,31,0
187.2211,187.38237,67,36,0
187.38237,187.54362,63,30,0
187.54362,187.7049,58,30,0
185.73192,187.7049,70,47,0
187.86385,188.02281,58,29,0
188.02281,188.18176,62,29,0
187.7049,188.18176,70,50,0
188.18176,188.34303,68,38,0
188.34303,188.50429,62,28,0
188.50429,188.66556,58,28,0
188.8286,188.99164,62,28,0
188.99164,189.15468,68,28,0
188.66556,189.15468,72,42,0
189.32996,189.50525,68,28,0
189.50525,189.68016,62,28,0
189.15468,189.68016,70,39,0
189.84894,190.01608,67,25,0
190.01608,190.18173,70,25,0
190.18173,190.3458,75,31,0
190.3458,190.50838,70,25,0
190.50838,190.66946,67,25,0
190.66946,190.82957,70,28,0
190.82957,190.99556,67,25,0
190.99556,191.16614,70,28,0
189.68016,191.16614,79,41,0
191.32681,191.4875,71,23,0
191.4875,191.64818,67,23,0
191.16614,191.64818,77,31,0
191.81062,191.97307,72,25,0
191.97307,192.13551,63,23,0
191.64818,192.13551,77,37,0
192.29794,192.46039,72,22,0
192.46039,192.62283,63,22,0
192.13551,192.62283,75,36,0
192.78587,192.94891,68,23,0
192.94891,193.11195,63,23,0
192.62283,193.11195,72,35,0
193.28452,193.45708,65,22,0
193.45708,193.62964,60,22,0
193.11195,193.62964,68,31,0
193.79987,193.96703,55,24,0
193.96703,194.13266,58,24,0
194.13266,194.29672,63,29,0
194.29672,194.45932,58,25,0
194.45932,194.62039,55,25,0
194.62039,194.7805,58,29,0
194.7805,194.9406,55,24,0
194.9406,195.1015,58,24,0
193.62964,195.1015,67,39,0
195.1015,195.26277,63,38,0
195.26277,195.42403,58,25,0
195.42403,195.5853,55,25,0
195.1015,195.5853,67,38,0
195.74774,195.91019,62,26,0
195.91019,196.07263,65,26,0
195.5853,196.07263,72,36,0
196.23508,196.3975,62,22,0
196.3975,196.55995,65,22,0
196.07263,196.55995,70,36,0
196.72299,196.88603,58,24,0
196.88603,197.04907,62,24,0
196.55995,197.04907,68,33,0
197.22163,197.3942,58,22,0
197.3942,197.56676,62,22,0
197.04907,197.56676,65,33,0
197.73555,197.9027,51,20,0
197.9027,198.06833,55,20,0
198.06833,198.23239,58,22,0
198.23239,198.39499,55,20,0
198.39499,198.55608,51,20,0
198.55608,198.71617,55,21,0
198.71617,198.87628,51,20,0
198.87628,199.03719,55,22,0
197.56676,199.03719,63,30,0
199.03719,199.19844,58,22,0
199.19844,199.35971,55,22,0
199.35971,199.52098,51,22,0
199.68976,199.85692,51,20,0
199.85692,200.02255,55,20,0
200.02255,200.18661,58,22,0
200.18661,200.3492,55,20,0
200.3492,200.51028,51,20,0
200.51028,200.6704,55,21,0
200.6704,200.83049,51,20,0
200.83049,200.9914,55,22,0
199.52098,200.9914,63,30,0
200.9914,201.15266,58,22,0
201.15266,201.31392,55,22,0
201.31392,201.47519,51,22,0
201.64397,201.81113,51,20,0
201.81113,201.97676,56,20,0
201.97676,202.14082,59,22,0
202.14082,202.30342,56,20,0
202.30342,202.46451,51,20,0
202.46451,202.6246,56,21,0
202.6246,202.7847,51,20,0
202.7847,202.9456,56,22,0
201.47519,202.9456,63,30,0
202.9456,203.10687,59,22,0
203.10687,203.26814,56,22,0
203.26814,203.4294,51,22,0
203.59819,203.76534,51,20,0
203.76534,203.93097,55,20,0
203.93097,204.09503,61,22,0
204.09503,204.25763,55,20,0
204.25763,204.41872,51,20,0
204.41872,204.57881,55,21,0
204.57881,204.73892,51,20,0
204.73892,204.89983,55,22,0
203.4294,204.89983,63,30,0
204.89983,205.06108,61,22,0
205.06108,205.22235,55,22,0
205.22235,205.38362,51,22,0
205.5524,205.71956,51,20,0
205.71956,205.8852,56,20,0
205.8852,206.04926,59,22,0
206.04926,206.21185,56,20,0
206.21185,206.37292,51,20,0
206.37292,206.53304,56,21,0
206.53304,206.69313,51,20,0
206.69313,206.85403,56,22,0
205.38362,206.85403,63,30,0
206.85403,207.0153,59,22,0
207.0153,207.17656,56,22,0
207.17656,207.33783,51,22,0
207.5066,207.67377,56,24,0
207.67377,207.8394,59,24,0
207.8394,208.00346,62,27,0
208.00346,208.16606,59,25,0
208.16606,208.32715,56,25,0
208.32715,208.48724,59,39,0
208.48724,208.64735,56,43,0
208.64735,208.80826,59,46,0
207.33783,208.80826,68,36,0
208.80826,208.96951,62,50,0
208.96951,209.13078,59,54,0
209.13078,209.29204,56,57,0
209.46083,209.62798,59,55,0
209.62798,209.79361,61,55,0
209.79361,209.95769,68,64,0
209.95769,210.12027,61,48,0
210.12027,210.28136,59,48,0
210.28136,210.44145,61,52,0
210.44145,210.60156,59,42,0
210.60156,210.76247,61,42,0
210.76247,210.92795,68,51,0
210.92795,211.0963,61,38,0
211.0963,211.26753,59,36,0
211.26753,211.43713,62,46,0
211.43713,211.60869,59,38,0
211.60869,211.78201,62,37,0
211.78201,211.95721,68,36,0
211.95721,212.13426,62,36,0
212.13426,212.31317,59,35,0
212.31317,212.50005,61,34,0
212.50005,212.69078,59,33,0
212.69078,212.88487,61,32,0
212.88487,213.08199,68,31,0
213.08199,213.28267,61,30,0
213.28267,213.6773,59,29,0
209.29204,213.6773,71,74,0
213.87035,214.05583,58,26,0
214.05583,214.23413,61,26,0
214.23413,214.40623,66,29,0
214.40623,214.57434,61,25,0
214.57434,214.74232,58,25,0
214.74232,214.90993,61,30,0
214.90993,215.0766,58,25,0
215.0766,215.24216,61,25,0
215.24216,215.4065,66,29,0
215.4065,215.57076,61,26,0
215.57076,215.73502,58,26,0
213.6773,215.73502,70,44,0
215.89569,216.05638,58,27,0
216.05638,216.21706,61,29,0
216.21706,216.3789,66,31,0
216.3789,216.54076,61,26,0
216.54076,216.70314,58,29,0
215.73502,216.70314,70,41,0
216.8667,217.03212,58,28,0
217.03212,217.1997,61,30,0
217.1997,217.37999,66,35,0
217.37999,217.56026,61,31,0
217.56026,217.7409,58,33,0
216.70314,217.7409,70,44,0
217.92036,218.09804,58,27,0
218.09804,218.27411,63,27,0
218.27411,218.44853,66,34,0
218.44853,218.62134,63,29,0
218.62134,218.79266,58,29,0
218.79266,218.9624,63,37,0
218.9624,219.13063,58,29,0
219.13063,219.29744,63,29,0
219.29744,219.463,66,36,0
219.463,219.62848,63,29,0
219.62848,219.79396,58,29,0
217.7409,219.79396,70,49,0
219.95639,220.11884,54,30,0
220.11884,220.28128,58,30,0
220.28128,220.44373,63,36,0
220.44373,220.60617,58,30,0
220.60617,220.76889,54,30,0
220.76889,220.9325,58,37,0
220.9325,221.09732,54,30,0
221.09732,221.26404,58,30,0
221.26404,221.4443,63,35,0
221.4443,221.62459,58,30,0
221.62459,221.80487,54,30,0
219.79396,221.80487,66,49,0
221.97949,222.15189,56,29,0
222.15189,222.32271,59,29,0
222.32271,222.49205,63,37,0
222.49205,222.65996,59,29,0
222.65996,222.8263,56,29,0
222.8263,222.99124,59,37,0
222.99124,223.1548,56,29,0
223.1548,223.31696,59,29,0
223.31696,223.47821,63,36,0
223.47821,223.63948,59,29,0
223.63948,223.80075,56,29,0
221.80487,223.80075,68,49,0
223.9626,224.12445,56,29,0
224.12445,224.2863,59,29,0
223.80075,224.2863,66,46,0
224.45041,224.61574,56,28,0
224.61574,224.78215,59,28,0
224.2863,224.78215,65,45,0
224.95078,225.11938,56,29,0
225.11938,225.28801,59,30,0
224.78215,225.28801,63,44,0
225.46057,225.63313,53,29,0
225.63313,225.8057,56,30,0
225.28801,225.8057,61,40,0
225.98416,226.16093,54,32,0
226.16093,226.33614,58,33,0
226.33614,226.50955,61,35,0
226.50955,226.68137,58,36,0
226.68137,226.85144,54,38,0
225.8057,226.85144,66,49,0
227.01997,227.18694,60,38,0
227.18694,227.35234,63,36,0
227.35234,227.5166,66,35,0
227.5166,227.68086,63,33,0
227.68086,227.84511,60,32,0
226.85144,227.84511,70,48,0
228.00757,228.16942,56,27,0
228.16942,228.33127,61,27,0
228.33127,228.48853,65,30,0
228.48853,228.64578,61,27,0
228.64578,228.80592,56,27,0
228.80592,228.97,61,30,0
228.97,229.13603,56,27,0
229.13603,229.30632,61,27,0
227.84511,229.30632,68,41,0
229.30632,229.48659,65,31,0
229.48659,229.66687,61,24,0
229.66687,229.84715,57,24,0
229.30632,229.84715,69,39,0
230.02698,230.20499,58,26,0
230.20499,230.38106,61,26,0
230.38106,230.55531,66,29,0
230.55531,230.7278,61,25,0
230.7278,230.89845,58,25,0
230.89845,231.0674,61,30,0
231.0674,231.23466,58,25,0
231.23466,231.40022,61,25,0
231.40022,231.56267,66,29,0
231.56267,231.72511,61,26,0
231.72511,231.88756,58,26,0
229.84715,231.88756,70,44,0
232.04594,232.20433,58,27,0
232.20433,232.36273,61,29,0
232.36273,232.52226,66,31,0
232.52226,232.68178,61,26,0
232.68178,232.84131,58,29,0
231.88756,232.84131,70,41,0
233.002,233.16547,58,28,0
233.16547,233.33284,61,30,0
233.33284,233.51312,66,35,0
233.51312,233.6934,61,31,0
233.6934,233.87404,58,33,0
232.84131,233.87404,70,44,0
234.0535,234.23117,58,27,0
234.23117,234.40707,63,27,0
234.40707,234.57857,66,34,0
234.57857,234.74858,63,29,0
234.74858,234.9171,58,29,0
234.9171,235.08408,63,37,0
235.08408,235.24965,58,29,0
235.24965,235.41382,63,29,0
235.41382,235.57922,66,36,0
235.57922,235.7447,63,29,0
235.7447,235.91019,58,29,0
233.87404,235.91019,70,49,0
236.07323,236.23627,54,30,0
236.23627,236.3993,58,30,0
236.3993,236.56233,63,36,0
236.56233,236.72537,58,30,0
236.72537,236.88887,54,30,0
235.91019,236.88887,66,49,0
237.0563,237.2255,53,30,0
237.2255,237.3964,56,30,0
237.3964,237.56828,62,35,0
237.56828,237.74019,56,30,0
237.74019,237.91208,53,30,0
236.88887,237.91208,65,49,0
238.0867,238.2591,51,35,0
238.2591,238.42992,54,40,0
238.42992,238.5987,59,45,0
238.5987,238.76517,54,50,0
238.76517,238.9298,51,56,0
237.91208,238.9298,63,49,0
239.09259,239.25362,56,48,0
239.25362,239.41432,59,45,0
239.41432,239.57103,63,55,0
239.57103,239.72774,59,33,0
239.72774,239.88443,56,36,0
238.9298,239.88443,68,65,0
240.04543,240.20381,56,29,0
240.20381,240.3622,59,29,0
239.88443,240.3622,66,46,0
240.52379,240.68541,56,28,0
240.68541,240.84836,59,28,0
240.3622,240.84836,65,45,0
241.01698,241.1856,56,29,0
241.1856,241.35422,59,30,0
240.84836,241.35422,63,44,0
241.52678,241.69934,56,29,0
241.69934,241.8719,59,30,0
241.35422,241.8719,65,40,0
242.05112,242.22435,59,27,0
242.22435,242.39162,61,27,0
242.39162,242.55466,65,34,0
242.55466,242.7177,61,29,0
242.7177,242.88074,59,29,0
242.88074,243.0456,61,37,0
243.0456,243.21046,59,29,0
243.21046,243.3765,61,29,0
243.3765,243.53954,65,36,0
243.53954,243.70258,61,29,0
243.70258,243.86562,59,29,0
241.8719,243.86562,68,49,0
244.02864,244.19168,54,30,0
244.19168,244.35472,58,30,0
244.35472,244.51776,61,36,0
244.51776,244.6808,58,30,0
244.6808,244.8443,54,30,0
244.8443,245.01173,58,37,0
245.01173,245.18092,54,30,0
245.18092,245.35182,58,30,0
245.35182,245.5321,61,35,0
245.5321,245.71237,58,30,0
245.71237,245.89265,54,30,0
243.86562,245.89265,66,49,0
246.06947,246.24445,56,26,0
246.24445,246.41747,61,26,0
246.41747,246.58862,65,29,0
246.58862,246.75792,61,25,0
246.75792,246.92537,56,25,0
246.92537,247.09111,61,30,0
247.09111,247.25508,56,26,0
247.25508,247.41747,61,26,0
247.41747,247.57932,65,30,0
247.57932,247.74117,61,27,0
247.74117,247.90302,56,27,0
245.89265,247.90302,68,44,0
248.06429,248.22556,61,29,0
248.22556,248.38681,64,31,0
248.38681,248.54407,67,39,0
248.54407,248.70132,64,31,0
248.70132,248.8601,61,38,0
248.8601,249.02254,63,42,0
249.02254,249.18498,61,45,0
249.18498,249.34714,63,49,0
249.34714,249.51001,67,55,0
249.51001,249.67426,63,53,0
249.67426,249.8415,61,59,0
247.90302,249.8415,70,43,0
250.0114,250.17944,61,48,0
250.17944,250.34766,63,49,0
250.34032,250.50774,70,58,0
250.51503,250.68115,63,39,0
250.68115,250.84602,61,42,0
250.84602,251.00984,63,53,0
251.00984,251.17244,61,40,0
251.17244,251.33394,63,33,0
249.8415,251.33394,73,70,0
251.33394,251.49521,68,37,0
251.49521,251.65646,63,33,0
251.65646,251.81773,59,33,0
251.33394,251.81773,71,50,0
251.98077,252.14381,59,28,0
252.14381,252.30685,63,28,0
252.30685,252.4699,68,30,0
252.4699,252.63293,63,25,0
252.63293,252.79643,59,25,0
252.79643,252.96385,63,31,0
252.96385,253.13304,59,25,0
253.13304,253.30394,63,25,0
253.30394,253.48422,68,29,0
253.48422,253.6645,63,25,0
253.6645,253.84477,59,25,0
251.81773,253.84477,71,41,0
254.0216,254.19658,59,33,0
254.19658,254.36966,64,33,0
254.36966,254.54053,68,37,0
254.54053,254.70845,64,32,0
254.70845,254.8735,59,32,0
254.8735,255.03581,64,39,0
255.03581,255.19551,59,33,0
255.19551,255.3545,64,33,0
255.3545,255.51404,68,39,0
255.51404,255.67357,64,35,0
255.67357,255.8331,59,36,0
253.84477,255.8331,71,54,0
255.98924,256.14542,59,37,0
256.14542,256.30154,63,40,0
256.30154,256.46225,66,44,0
256.46225,256.62292,63,38,0
256.62292,256.7843,59,40,0
255.8331,256.7843,71,49,0
256.94675,257.1092,64,46,0
257.1092,257.27133,66,49,0
257.27133,257.4342,70,58,0
257.4342,257.59845,66,54,0
257.59845,257.76572,64,62,0
256.7843,257.76572,73,51,0
257.93558,258.10364,64,49,0
258.10364,258.27185,66,49,0
258.27185,258.43924,73,63,0
258.43924,258.60535,66,46,0
258.60535,258.77023,64,46,0
258.77023,258.93405,66,54,0
258.93405,259.09665,64,36,0
259.09665,259.2581,66,37,0
257.76572,259.2581,76,69,0
259.2581,259.42316,71,42,0
259.42316,259.58862,66,37,0
259.58862,259.75412,63,37,0
259.2581,259.75412,75,57,0
259.91714,260.0802,63,31,0
260.0802,260.24323,66,31,0
260.24323,260.40628,71,34,0
260.40628,260.5693,66,28,0
260.5693,260.73267,63,28,0
260.73267,260.89667,66,35,0
260.89667,261.06223,63,28,0
261.06223,261.22998,66,28,0
261.22998,261.41028,71,34,0
261.41028,261.59055,66,28,0
261.59055,261.77042,63,28,0
259.75412,261.77042,75,45,0
261.94345,262.11423,63,32,0
262.11423,262.28278,66,32,0
262.28278,262.44916,71,32,0
262.44916,262.6134,66,32,0
262.6134,262.77557,63,43,0
262.77557,262.93686,66,31,0
262.93686,263.0981,63,31,0
263.0981,263.2596,66,31,0
263.2596,263.41913,71,36,0
263.41913,263.57864,66,30,0
263.57864,263.7382,63,30,0
261.77042,263.7382,75,47,0
263.90002,264.06015,68,29,0
264.06015,264.22025,65,29,0
263.7382,264.22025,75,46,0
264.38065,264.5419,68,28,0
264.5419,264.70316,65,28,0
264.22025,264.70316,71,43,0
264.8662,265.02924,65,28,0
265.02924,265.1923,61,28,0
264.70316,265.1923,70,43,0
265.35593,265.51956,65,28,0
265.51956,265.68356,61,28,0
265.1923,265.68356,68,39,0
265.85233,266.0195,61,32,0
266.0195,266.18512,66,32,0
266.18512,266.34918,70,42,0
266.34918,266.51178,66,32,0
266.51178,266.67285,61,32,0
266.67285,266.83127,66,35,0
266.83127,266.98965,61,31,0
266.98965,267.1497,66,31,0
267.1497,267.31094,70,36,0
267.31094,267.47223,66,30,0
267.47223,267.63348,61,30,0
265.68356,267.63348,73,47,0
267.7955,267.95618,66,29,0
267.95618,268.11685,63,29,0
267.63348,268.11685,73,46,0
268.27872,268.44055,66,28,0
268.44055,268.60242,63,28,0
268.11685,268.60242,71,43,0
268.76544,268.9285,63,28,0
268.9285,269.09152,59,28,0
268.60242,269.09152,68,43,0
269.2641,269.43665,59,28,0
269.43665,269.60922,56,28,0
269.09152,269.60922,63,39,0
269.77798,269.94516,54,29,0
269.94516,270.11078,58,29,0
270.11078,270.27484,61,38,0
270.27484,270.43744,58,29,0
270.43744,270.5985,54,31,0
270.5985,270.75864,58,35,0
270.75864,270.91873,54,30,0
270.91873,271.07962,58,30,0
271.07962,271.2409,61,36,0
271.2409,271.40216,58,30,0
271.40216,271.56342,54,30,0
269.60922,271.56342,66,47,0
271.72586,271.8883,59,29,0
271.8883,272.05075,56,29,0
271.56342,272.05075,66,45,0
272.2132,272.37564,59,28,0
272.37564,272.5381,56,28,0
272.05075,272.5381,65,41,0
272.7011,272.86417,61,28,0
272.86417,273.0272,59,28,0
272.5381,273.0272,70,42,0
273.19977,273.3723,61,26,0
273.3723,273.5449,59,26,0
273.0272,273.5449,68,39,0
273.71368,273.88083,59,29,0
273.88083,274.04645,63,29,0
274.04645,274.2105,66,29,0
274.2105,274.3731,63,29,0
274.3731,274.5342,59,26,0
274.5342,274.6926,63,36,0
274.6926,274.85098,59,30,0
274.85098,275.01102,63,30,0
275.01102,275.1723,66,48,0
275.1723,275.33356,63,37,0
275.33356,275.4948,59,37,0
273.5449,275.4948,71,47,0
275.6636,275.83075,64,41,0
275.83075,275.9964,66,36,0
275.9964,276.16046,70,54,0
276.16046,276.32306,66,44,0
276.32306,276.48413,64,45,0
275.4948,276.48413,73,58,0
276.64423,276.80435,64,44,0
276.80435,276.96524,66,44,0
276.96524,277.13385,70,56,0
277.13385,277.3025,66,51,0
277.3025,277.4711,64,53,0
276.48413,277.4711,74,67,0
277.64413,277.8149,63,38,0
277.8149,277.98346,66,37,0
277.98346,278.14984,71,42,0
278.14984,278.3141,66,36,0
278.3141,278.47626,63,36,0
278.47626,278.63754,66,38,0
278.63754,278.7988,63,33,0
278.7988,278.9603,66,33,0
278.9603,279.12155,71,37,0
279.12155,279.2828,66,31,0
279.2828,279.44406,63,30,0
277.4711,279.44406,75,71,0
279.6065,279.76895,68,29,0
279.76895,279.9314,65,29,0
279.44406,279.9314,75,50,0
280.09384,280.2563,68,28,0
280.2563,280.41873,65,28,0
279.9314,280.41873,74,48,0
280.58176,280.7448,65,28,0
280.7448,280.90784,62,28,0
280.41873,280.90784,71,42,0
281.0715,281.23514,65,28,0
281.23514,281.3991,61,28,0
280.90784,281.3991,68,39,0
281.5679,281.73505,61,32,0
281.73505,281.9007,66,32,0
281.9007,282.06476,70,36,0
282.06476,282.22736,66,32,0
282.22736,282.38843,61,32,0
282.38843,282.54852,66,36,0
282.54852,282.70865,61,31,0
282.70865,282.86954,66,31,0
282.86954,283.0308,70,36,0
283.0308,283.19208,66,30,0
283.19208,283.35333,61,30,0
281.3991,283.35333,73,47,0
283.5149,283.67386,67,29,0
283.67386,283.83282,63,29,0
283.35333,283.83282,73,46,0
283.99768,284.16257,68,28,0
284.16257,284.32742,63,28,0
283.83282,284.32742,71,43,0
284.49045,284.6535,63,28,0
284.6535,284.81653,59,28,0
284.32742,284.81653,68,43,0
284.9891,285.16165,60,28,0
285.16165,285.33423,56,28,0
284.81653,285.33423,63,39,0
285.50302,285.67017,54,29,0
285.67017,285.8358,58,29,0
285.8358,285.99985,61,34,0
285.99985,286.16245,58,29,0
286.16245,286.32355,54,30,0
286.32355,286.48364,58,34,0
286.48364,286.64374,54,30,0
286.64374,286.80466,58,30,0
286.80466,286.9659,61,36,0
286.9659,287.12717,58,30,0
287.12717,287.28845,54,30,0
285.33423,287.28845,66,47,0
287.45087,287.6133,59,29,0
287.6133,287.77576,56,29,0
287.28845,287.77576,66,45,0
287.9382,288.10065,59,28,0
288.10065,288.2631,56,28,0
287.77576,288.2631,65,41,0
288.42615,288.58917,61,28,0
288.58917,288.75223,59,28,0
288.2631,288.75223,70,42,0
288.92477,289.09735,61,26,0
289.09735,289.2699,59,26,0
288.75223,289.2699,68,39,0
289.4387,289.60583,54,29,0
289.60583,289.77148,58,29,0
289.77148,289.93555,61,33,0
289.93555,290.09814,58,29,0
290.09814,290.25922,54,29,0
290.25922,290.4193,58,32,0
290.4193,290.5794,54,30,0
290.5794,290.74033,58,30,0
290.74033,290.90158,61,36,0
290.90158,291.06287,58,30,0
291.06287,291.22412,54,30,0
289.2699,291.22412,66,47,0
291.39288,291.56006,54,29,0
291.56006,291.72568,58,29,0
291.72568,291.88974,61,32,0
291.88974,292.05234,58,29,0
292.05234,292.21344,54,37,0
292.21344,292.37354,58,41,0
292.37354,292.53363,54,43,0
292.53363,292.69455,58,45,0
292.69455,292.86316,61,47,0
292.86316,293.03177,58,50,0
293.03177,293.2004,54,52,0
291.22412,293.2004,66,47,0
293.36917,293.53635,54,47,0
293.53635,293.70197,59,43,0
293.70197,293.86603,62,57,0
293.86603,294.02863,59,46,0
294.02863,294.1897,54,46,0
294.1897,294.3485,59,58,0
294.3485,294.50693,54,44,0
294.50693,294.66696,59,45,0
294.66696,294.82822,62,61,0
294.82822,294.9895,59,51,0
294.9895,295.15076,54,53,0
293.2004,295.15076,66,60,0
295.31955,295.4867,54,48,0
295.4867,295.6523,58,48,0
295.6523,295.8164,64,61,0
295.8164,295.97897,58,52,0
295.97897,296.14008,54,52,0
295.15076,296.14008,66,72,0
296.14008,296.30017,58,58,0
296.30017,296.46027,54,59,0
296.46027,296.6212,58,59,0
296.14008,296.6212,67,66,0
296.6212,296.7898,64,67,0
296.7898,296.9584,58,62,0
296.9584,297.12704,54,62,0
296.6212,297.12704,66,67,0
297.2958,297.46298,54,58,0
297.46298,297.6286,59,59,0
297.6286,297.79266,62,70,0
297.79266,297.95526,59,60,0
297.95526,298.11636,54,61,0
298.11636,298.27646,59,71,0
298.27646,298.43655,54,63,0
298.43655,298.59744,59,59,0
298.59744,298.75873,62,75,0
298.75873,298.91998,59,63,0
298.91998,299.08124,54,64,0
297.12704,299.08124,66,80,0
299.25003,299.41718,48,67,0
299.41718,299.58282,54,65,0
299.58282,299.7469,57,63,0
299.7469,299.9095,54,61,0
299.9095,300.07056,48,59,0
299.08124,300.07056,60,82,0
300.07056,300.23065,54,56,0
300.23065,300.39078,48,54,0
300.39078,300.55173,54,50,0
300.55173,300.72327,57,46,0
300.72327,300.90216,54,42,0
300.90216,301.13297,48,39,0
301.30176,301.4689,49,33,0
301.4689,301.63455,54,33,0
301.63455,301.7986,58,36,0
301.7986,301.9612,54,32,0
301.9612,302.12228,49,32,0
302.12228,302.28238,54,35,0
302.28238,302.44247,49,31,0
302.44247,302.6034,54,31,0
302.6034,302.76465,58,37,0
302.76465,302.92593,54,30,0
302.92593,303.0872,49,30,0
301.13297,303.0872,61,45,0
303.24963,303.41208,53,29,0
303.41208,303.57452,56,29,0
303.0872,303.57452,61,45,0
303.73697,303.8994,59,28,0
303.8994,304.06183,61,28,0
303.57452,304.06183,71,41,0
304.22488,304.3879,59,28,0
304.3879,304.55096,61,28,0
304.06183,304.55096,68,42,0
304.7235,304.8961,59,26,0
304.8961,305.06863,61,26,0
304.55096,305.06863,65,39,0
305.23743,305.40457,54,27,0
305.40457,305.57022,58,27,0
305.57022,305.73428,61,33,0
305.73428,305.89688,58,27,0
305.89688,306.05795,54,27,0
306.05795,306.21805,58,32,0
306.21805,306.37817,54,30,0
306.37817,306.53906,58,30,0
306.53906,306.70035,61,36,0
306.70035,306.8616,58,30,0
306.8616,307.02286,54,30,0
305.06863,307.02286,66,47,0
307.19165,307.3588,54,29,0
307.3588,307.52444,58,29,0
307.52444,307.6885,61,32,0
307.6885,307.8511,58,29,0
307.8511,308.01218,54,37,0
308.01218,308.17227,58,41,0
308.17227,308.33237,54,43,0
308.33237,308.4933,58,45,0
308.4933,308.6619,61,47,0
308.6619,308.83054,58,50,0
308.83054,308.99915,54,52,0
307.02286,308.99915,66,47,0
309.16794,309.33508,54,44,0
309.33508,309.5007,59,43,0
309.5007,309.66476,62,52,0
309.66476,309.82736,59,46,0
309.82736,309.98846,54,46,0
309.98846,310.14856,59,53,0
310.14856,310.30865,54,44,0
310.30865,310.46957,59,45,0
310.46957,310.63083,62,56,0
310.63083,310.79208,59,46,0
310.79208,310.95337,54,46,0
308.99915,310.95337,66,60,0
311.12213,311.2893,54,48,0
311.2893,311.45493,57,48,0
311.45493,311.619,62,58,0
311.619,311.7816,57,47,0
311.7816,311.94266,54,48,0
311.94266,312.10278,57,58,0
312.10278,312.26288,54,59,0
312.26288,312.42377,57,59,0
312.42377,312.5924,62,67,0
312.5924,312.76102,57,62,0
312.76102,312.92963,54,62,0
310.95337,312.92963,66,64,0
313.09842,313.26556,55,53,0
313.26556,313.4312,58,54,0
313.4312,313.59528,62,67,0
313.59528,313.75787,58,56,0
313.75787,313.91895,55,56,0
313.91895,314.07904,58,70,0
314.07904,314.23917,55,58,0
314.23917,314.40005,58,59,0
314.40005,314.5613,62,72,0
314.5613,314.7226,58,55,0
314.7226,314.88385,55,60,0
312.92963,314.88385,67,80,0
315.05264,315.2198,48,67,0
315.2198,315.38544,54,65,0
315.38544,315.5495,57,63,0
315.5495,315.71207,54,61,0
315.71207,315.87317,48,59,0
314.88385,315.87317,60,83,0
315.87317,316.03326,54,56,0
316.03326,316.19336,48,54,0
316.19336,316.3543,54,50,0
316.3543,316.52585,57,46,0
316.52585,316.70477,54,42,0
316.70477,316.93558,48,39,0
317.10434,317.2715,49,33,0
317.2715,317.43713,54,33,0
317.43713,317.6012,58,36,0
317.6012,317.7638,54,32,0
317.7638,317.9249,49,32,0
317.9249,318.085,54,35,0
318.085,318.2451,49,31,0
318.2451,318.406,54,31,0
318.406,318.56726,58,37,0
318.56726,318.72852,54,30,0
318.72852,318.88977,49,30,0
316.93558,318.88977,61,45,0
319.05212,319.21457,53,29,0
319.21457,319.377,56,29,0
318.88977,319.377,61,45,0
319.53946,319.7019,59,28,0
319.7019,319.86435,61,28,0
319.377,319.86435,71,41,0
320.0273,320.19037,59,28,0
320.19037,320.3534,61,28,0
319.86435,320.3534,68,42,0
320.52515,320.6977,59,26,0
320.6977,320.87027,61,26,0
320.3534,320.87027,65,39,0
321.03903,321.2062,54,32,0
321.2062,321.37183,58,32,0
321.37183,321.5359,61,34,0
321.5359,321.6985,54,30,0
321.6985,321.85956,58,30,0
321.85956,322.01968,63,38,0
322.01968,322.17978,54,28,0
322.17978,322.34067,59,27,0
322.34067,322.50195,61,32,0
322.50195,322.6632,54,26,0
322.6632,322.82446,58,26,0
320.87027,322.82446,66,45,0
322.98682,323.14926,59,23,0
323.14926,323.3117,61,23,0
322.82446,323.3117,65,40,0
323.47415,323.6366,59,25,0
323.6366,323.79904,61,25,0
323.3117,323.79904,71,38,0
323.962,324.12506,59,22,0
324.12506,324.2881,61,26,0
323.79904,324.2881,68,39,0
324.4598,324.6324,59,20,0
324.6324,324.80496,61,20,0
324.2881,324.80496,65,35,0
324.97372,325.14087,54,25,0
325.14087,325.30652,58,26,0
325.30652,325.47058,61,32,0
325.47058,325.63318,54,26,0
325.63318,325.79425,58,26,0
325.79425,325.95438,63,38,0
325.95438,326.11447,54,25,0
326.11447,326.27536,59,25,0
326.27536,326.43665,61,32,0
326.43665,326.5979,54,26,0
326.5979,326.75916,58,26,0
324.80496,326.75916,66,42,0
326.94473,327.13028,59,23,0
327.13028,327.31586,61,23,0
326.75916,327.31586,65,36,0
327.4783,327.64075,65,22,0
327.64075,327.8032,68,22,0
327.31586,327.8032,75,40,0
327.96616,328.1292,61,22,0
328.1292,328.29224,65,22,0
327.8032,328.29224,71,37,0
328.464,328.63654,61,20,0
328.63654,328.8091,65,20,0
328.29224,328.8091,68,31,0
328.97934,329.14648,54,26,0
329.14648,329.3121,58,26,0
329.3121,329.47617,61,28,0
329.47617,329.63876,58,25,0
329.63876,329.79987,54,25,0
329.79987,329.95996,58,32,0
329.95996,330.12006,54,24,0
330.12006,330.28098,58,24,0
330.28098,330.44223,61,29,0
330.44223,330.6035,58,24,0
330.6035,330.76477,54,24,0
328.8091,330.76477,66,36,0
330.76477,330.93353,58,32,0
330.93353,331.1007,54,26,0
331.1007,331.26633,58,26,0
331.26633,331.4304,61,28,0
331.4304,331.593,58,25,0
331.593,331.75406,54,25,0
330.76477,331.75406,66,36,0
331.75406,331.91418,58,32,0
331.91418,332.07428,54,24,0
332.07428,332.23517,58,24,0
332.23517,332.39645,61,29,0
332.39645,332.5577,58,24,0
332.5577,332.71896,54,24,0
331.75406,332.71896,66,36,0
332.71896,334.686,66,36,0
332.71896,334.686,58,25,0
332.71896,334.686,54,25,0
334.686,335.67548,66,32,0
334.686,335.67548,58,22,0
334.686,335.67548,54,22,0
335.67548,336.78412,66,30,0
335.67548,336.78412,58,20,0
335.67548,336.78412,54,20,0
336.78412,342.53745,66,28,0
336.78412,342.53745,58,19,0
336.78412,342.53745,54,19,0
0.0,2.0459292,49,35,0
0.0,2.0459292,42,29,0
2.0459292,3.025366,42,29,0
2.0459292,3.025366,49,35,0
3.025366,4.0624895,49,35,0
3.025366,4.0624895,42,29,0
4.0624895,8.142579,39,29,0
4.0624895,8.142579,51,35,0
8.142579,10.138459,47,35,0
8.142579,10.138459,35,29,0
10.138459,11.625722,49,35,0
10.138459,11.625722,37,29,0
11.625722,12.14341,49,26,0
11.625722,12.14341,47,20,0
12.14341,13.18915,49,35,0
12.14341,13.18915,46,29,0
13.18915,14.059634,42,29,0
13.18915,14.059634,51,35,0
14.182827,16.208841,53,35,0
14.059634,16.208841,37,29,0
16.208841,18.24925,42,29,0
16.208841,18.24925,49,35,0
18.24925,19.213741,42,29,0
18.24925,19.213741,49,35,0
19.213741,20.26273,42,29,0
19.213741,20.26273,49,35,0
20.26273,22.311632,39,29,0
20.26273,22.311632,51,35,0
22.311632,23.290327,51,35,0
22.311632,23.290327,39,29,0
23.290327,24.31353,34,29,0
23.290327,24.31353,46,35,0
24.31353,25.334953,47,35,0
24.31353,25.334953,35,29,0
25.334953,26.309408,32,29,0
25.334953,26.309408,44,35,0
26.309408,28.31436,49,35,0
26.309408,28.31436,37,29,0
28.31436,32.33511,49,35,0
28.31436,32.33511,42,29,0
32.33511,34.345474,49,29,0
32.33511,34.345474,53,35,0
34.345474,36.283966,46,34,0
34.345474,36.283966,55,40,0
34.345474,36.283966,51,34,0
36.283966,38.26019,51,41,0
36.283966,38.26019,44,41,0
36.283966,38.26019,56,50,0
38.26019,40.28723,44,29,0
38.26019,40.28723,51,29,0
38.26019,40.28723,56,35,0
40.28723,42.275555,56,40,0
40.28723,42.275555,52,33,0
42.275555,43.226757,51,39,0
42.275555,43.226757,54,46,0
43.226757,44.208164,54,39,0
43.226757,44.208164,49,39,0
43.226757,44.208164,58,46,0
44.208164,46.19657,59,57,0
44.208164,46.19657,54,47,0
44.208164,46.19657,47,47,0
46.19657,48.215126,59,40,0
46.19657,48.215126,54,33,0
46.19657,48.215126,47,33,0
48.215126,50.188095,54,35,0
48.215126,50.188095,47,29,0
50.188095,51.162754,56,35,0
51.162754,52.143143,53,35,0
50.188095,52.143143,47,29,0
52.143143,54.091637,54,35,0
52.143143,54.091637,46,29,0
54.091637,55.066296,54,35,0
55.066296,55.89838,56,35,0
54.091637,56.0731,47,29,0
57.90637,58.027313,37,35,0
56.0731,58.027313,49,35,0
59.001972,59.49109,54,35,0
59.49109,60.008778,53,35,0
58.027313,60.008778,49,35,0
60.008778,61.962994,49,35,0
60.008778,61.962994,42,30,0
61.962994,62.952305,46,30,0
61.962994,62.952305,49,35,0
62.952305,63.939274,49,35,0
62.952305,63.939274,46,30,0
63.939274,65.92975,53,35,0
63.939274,65.92975,49,29,0
65.92975,66.877686,52,34,0
65.92975,67.85909,55,40,0
65.92975,67.85909,46,34,0
66.88377,67.865486,51,55,0
67.85909,67.865486,51,41,0
67.85909,69.351524,55,50,0
69.351524,69.83532,56,44,0
67.85909,69.83532,44,41,0
69.83532,71.59194,44,29,0
71.59194,71.86236,42,60,0
69.83532,71.86236,56,35,0
69.83532,71.86236,51,29,0
71.86236,73.85068,40,68,0
73.85068,74.80025,39,55,0
74.80025,74.89771,37,56,0
74.89771,74.99518,39,38,0
74.99518,75.09264,37,45,0
75.09264,75.19011,39,39,0
75.19011,75.287285,37,42,0
75.287285,75.38487,39,44,0
75.38487,75.51569,37,55,0
75.51569,75.64741,35,46,0
75.64741,75.781654,37,56,0
75.781654,79.78448,35,67,0
79.78448,81.75745,54,35,0
79.78448,81.75745,47,29,0
81.75745,82.7321,56,35,0
82.7321,83.712494,53,35,0
81.75745,83.712494,47,29,0
83.712494,85.6667,46,29,0
83.712494,85.6667,54,35,0
85.6667,86.15404,55,35,0
86.15404,86.641365,56,35,0
85.6667,87.13048,47,29,0
87.13048,87.64817,48,29,0
86.641365,87.64817,51,35,0
89.48143,89.60238,37,35,0
87.64817,89.60238,49,35,0
90.57704,91.066154,54,35,0
91.066154,91.58385,53,35,0
89.60238,91.58385,49,35,0
91.58385,94.527374,49,35,0
91.58385,94.527374,42,30,0
94.527374,95.514336,41,55,0
94.527374,95.514336,50,55,0
95.514336,96.98476,51,58,0
95.514336,96.98476,39,58,0
96.98476,97.14603,39,57,0
97.14603,97.30729,41,61,0
97.30729,97.46855,42,65,0
97.46855,98.93897,42,69,0
98.93897,99.1076,42,60,0
99.1076,99.276215,44,63,0
99.276215,99.44483,46,67,0
99.95069,100.44347,59,56,0
100.44347,100.92902,56,54,0
100.92902,101.44075,53,49,0
101.44075,103.193436,50,49,0
103.193436,103.31754,48,35,0
103.31754,103.44166,50,35,0
99.44483,103.44166,46,77,0
103.44166,104.418304,51,44,0
104.418304,105.39312,44,44,0
105.39312,106.846306,46,42,0
106.846306,107.01303,44,59,0
107.01303,107.179756,42,62,0
107.179756,107.34647,41,66,0
107.34647,108.816895,51,69,0
107.34647,108.816895,39,69,0
108.816895,108.978165,39,61,0
108.978165,109.13943,41,64,0
109.13943,109.30069,42,67,0
109.30069,110.77111,42,70,0
110.77111,110.93973,42,58,0
110.93973,111.10835,44,61,0
111.10835,111.27697,46,64,0
111.78283,112.275604,59,56,0
112.275604,112.76116,56,54,0
112.76116,113.27289,53,49,0
113.27289,114.2621,50,49,0
114.2621,114.36139,50,35,0
114.36139,114.46068,51,30,0
114.46068,114.54962,50,35,0
114.54962,114.637535,51,30,0
114.637535,114.72648,50,35,0
114.72648,114.81439,51,30,0
114.81439,114.903336,50,35,0
114.902306,114.99125,51,32,0
114.99125,115.07916,50,35,0
115.07916,115.168106,48,32,0
115.167076,115.25498,50,38,0
111.27697,115.25498,46,74,0
115.25498,116.23163,51,44,0
116.23163,117.20644,44,44,0
117.20644,118.65964,46,42,0
118.65964,119.159805,50,40,0
118.65964,119.159805,38,35,0
119.159805,120.13645,51,37,0
119.159805,120.13645,39,31,0
120.13645,121.11127,44,37,0
120.13645,121.11127,32,31,0
121.11127,122.077126,30,29,0
121.11127,122.077126,42,35,0
122.077126,123.06463,40,35,0
123.06463,125.0188,39,35,0
125.0188,126.992676,37,32,0
126.992676,128.9607,35,37,0
128.9607,130.94215,40,33,0
130.94215,132.89638,42,37,0
132.89638,134.36015,49,33,0
134.36015,134.87784,52,33,0
132.89638,134.87784,42,33,0
134.87784,136.83205,35,29,0
136.83205,138.30247,31,29,0
138.30247,138.46373,31,29,0
138.46373,138.625,33,29,0
138.625,138.77618,35,29,0
138.78627,140.25668,35,29,0
140.25668,140.37764,37,49,0
140.37764,140.49858,39,51,0
140.49858,140.61954,40,54,0
140.61954,140.74048,42,58,0
140.74048,141.7298,43,61,0
141.7298,142.69469,42,38,0
142.69469,144.64891,35,29,0
144.64891,146.11932,32,29,0
146.11932,146.2806,32,29,0
146.2806,146.44185,34,29,0
146.44185,146.59305,35,29,0
146.60312,148.07355,35,29,0
148.07355,148.19449,37,50,0
148.19449,148.31543,39,53,0
148.31543,148.43639,40,57,0
148.43639,148.55733,42,61,0
148.55733,149.54665,44,65,0
149.54665,150.51155,42,38,0
150.51155,154.37903,35,29,0
154.37903,155.84944,44,74,0
155.84944,156.01492,44,55,0
156.01492,156.1801,46,59,0
156.1801,156.33466,47,63,0
156.34497,157.81538,47,73,0
157.81538,157.9821,47,56,0
157.9821,158.14883,49,61,0
158.14883,158.30513,50,64,0
158.31555,159.78596,50,73,0
159.78596,159.9527,50,56,0
159.9527,160.11942,51,61,0
160.11942,160.27573,53,64,0
160.28613,161.75656,53,73,0
161.75656,162.25673,41,56,0
162.25673,163.24054,42,40,0
163.24054,164.2225,38,40,0
164.2225,165.2009,39,49,0
165.2009,166.188,32,40,0
166.188,167.33742,34,29,0
167.33742,167.49751,33,25,0
167.49751,167.65842,34,25,0
167.65842,167.81969,35,29,0
167.81969,167.98094,34,25,0
167.98094,168.14221,33,25,0
168.14221,169.5627,34,29,0
169.5627,170.05547,34,29,0
169.5627,170.05547,46,29,0
170.05547,171.5259,32,64,0
170.05547,171.5259,44,74,0
171.5259,171.69138,44,55,0
171.69138,171.85655,46,59,0
171.85655,172.01111,47,63,0
172.02141,173.49184,47,73,0
172.02141,173.49184,35,64,0
173.49184,173.65855,47,56,0
173.65855,173.82529,49,61,0
173.82529,173.98158,50,64,0
173.992,175.46242,50,73,0
173.9994,175.46971,38,64,0
175.46242,175.62915,50,56,0
175.62915,175.79587,51,61,0
175.79587,175.95216,53,64,0
175.96259,177.43301,53,73,0
175.96259,177.43301,41,64,0
177.43301,177.93318,41,56,0
177.93318,178.91699,42,40,0
178.91699,179.0562,38,40,0
179.0562,179.1953,39,36,0
179.1953,179.33438,38,40,0
179.33438,179.47441,39,36,0
179.47339,179.61455,38,40,0
179.61455,179.75572,36,35,0
179.75572,179.89894,38,36,0
179.89894,180.87733,39,49,0
180.87733,181.86446,32,40,0
181.86446,183.01387,34,29,0
183.01387,183.17397,33,25,0
183.17397,183.33487,34,25,0
183.33487,183.49614,35,29,0
183.49614,183.6574,34,25,0
183.6574,183.81866,33,25,0
183.81866,184.77069,34,29,0
184.77069,185.73192,32,29,0
185.73192,187.7049,43,35,0
185.73192,187.7049,31,29,0
187.7049,189.68016,41,35,0
189.68016,191.64818,39,37,0
191.64818,193.62964,44,33,0
193.62964,195.5853,46,35,0
195.5853,197.04907,53,35,0
197.04907,197.56676,56,35,0
195.5853,197.56676,46,29,0
197.56676,199.52098,39,29,0
199.52098,200.9914,37,35,0
200.9914,201.15266,40,24,0
201.15266,201.31392,39,28,0
201.31392,201.47519,37,31,0
201.47519,203.4294,35,29,0
203.4294,204.57881,34,35,0
204.57881,204.73892,35,24,0
204.73892,204.89983,34,24,0
204.89983,205.06108,37,27,0
205.06108,205.22235,35,24,0
205.22235,205.38362,34,24,0
205.38362,207.33783,32,29,0
207.33783,207.43929,30,22,0
207.43929,207.5402,32,18,0
207.5402,207.64046,30,24,0
207.64046,207.7402,32,21,0
207.7402,207.8394,30,22,0
207.8394,207.93805,32,18,0
207.93805,208.03607,30,24,0
208.03607,208.13368,32,21,0
208.13368,208.23068,30,27,0
208.23068,208.32715,32,23,0
208.32715,208.4232,30,31,0
208.4232,208.51927,32,26,0
208.51927,208.61533,30,35,0
208.61533,208.7114,32,29,0
208.7114,208.80826,30,38,0
208.80826,208.90501,32,32,0
208.90501,209.03403,30,42,0
209.03403,209.16302,29,37,0
209.16302,209.29204,30,38,0
209.29204,210.28136,29,60,0
209.29204,210.28136,41,68,0
210.52151,210.76247,44,41,0
210.76247,211.01068,47,41,0
211.01068,211.26753,49,41,0
210.28136,211.26753,41,50,0
211.26753,212.31317,50,49,0
211.26753,212.31317,41,40,0
212.31317,213.6773,49,31,0
213.6773,215.73502,49,35,0
213.6773,215.73502,42,29,0
215.73502,216.70314,42,29,0
215.73502,216.70314,49,35,0
216.70314,217.7409,49,35,0
216.70314,217.7409,42,29,0
217.7409,221.80487,39,29,0
217.7409,221.80487,51,35,0
221.80937,223.8048,35,29,0
221.81276,223.80783,47,35,0
223.80075,225.28801,37,29,0
223.80075,225.28801,49,35,0
225.28801,225.8057,49,26,0
225.28801,225.8057,47,20,0
225.8057,226.85144,49,35,0
225.8057,226.85144,46,29,0
226.85144,227.72192,42,29,0
226.85144,227.72192,51,35,0
227.84511,229.84715,53,35,0
227.72192,229.84715,37,29,0
229.84715,231.88756,42,29,0
229.84715,231.88756,49,35,0
231.88756,232.84131,42,29,0
231.88756,232.84131,49,35,0
232.84131,233.87404,42,29,0
232.84131,233.87404,49,35,0
233.87404,236.88887,51,35,0
233.87404,236.88887,39,29,0
236.88887,237.91208,34,29,0
236.88887,237.91208,46,35,0
237.91658,238.93388,35,29,0
237.91997,238.93695,47,35,0
238.9298,239.88443,44,40,0
238.9298,239.88443,32,33,0
239.88443,241.8719,49,35,0
239.88443,241.8719,37,29,0
241.8719,245.89265,49,35,0
241.8719,245.89265,42,29,0
245.89265,247.90302,49,29,0
245.89265,247.90302,53,35,0
247.90302,248.8601,52,34,0
248.8601,249.8415,51,41,0
247.90302,249.8415,46,34,0
247.90302,249.8415,55,40,0
249.84897,251.34099,55,50,0
249.8415,251.81773,51,41,0
249.8415,251.81773,44,41,0
251.34805,251.832,56,44,0
251.81773,251.832,56,35,0
251.81773,253.57436,44,29,0
253.57436,253.84477,42,43,0
251.81773,253.84477,51,29,0
253.84477,255.8331,40,68,0
255.8331,256.7843,39,55,0
256.7843,256.88177,37,44,0
256.88177,256.97922,39,44,0
256.97922,257.0574,37,56,0
257.0574,257.1356,39,39,0
257.1356,257.21368,37,56,0
257.21368,257.29163,39,39,0
257.29062,257.36893,37,42,0
257.36893,257.4475,39,44,0
257.4475,257.55313,37,55,0
257.5521,257.65836,35,46,0
257.65836,257.76572,37,56,0
257.76572,261.77042,35,67,0
261.77042,263.7382,54,35,0
261.77478,263.74225,47,29,0
263.7382,263.74225,47,29,0
263.7382,264.70316,56,35,0
264.70316,265.68356,53,35,0
265.68356,267.63348,46,29,0
265.68356,267.63348,54,35,0
267.63348,268.60242,54,35,0
268.60242,269.42587,56,35,0
267.63348,269.60922,47,29,0
271.44247,271.56342,37,35,0
269.60922,271.56342,49,35,0
272.5381,273.0272,54,35,0
273.0272,273.5449,53,35,0
271.56342,273.5449,49,42,0
273.5449,275.4948,54,35,0
273.5449,275.4948,51,30,0
275.4948,277.4711,58,42,0
275.4948,277.4711,54,35,0
277.4711,279.44406,59,57,0
277.4711,279.44406,54,46,0
277.4711,279.44406,47,46,0
279.44406,280.41873,56,35,0
280.41873,281.3991,53,35,0
279.44406,281.3991,47,29,0
281.3991,283.35333,46,29,0
281.3991,283.35333,54,35,0
283.35333,283.83282,55,35,0
283.83282,284.32742,56,35,0
283.35333,284.81653,47,29,0
284.81653,285.33423,48,29,0
284.32742,285.33423,51,35,0
287.16748,287.28845,37,35,0
285.33423,287.28845,49,35,0
288.2631,288.75223,54,35,0
288.75223,289.2699,53,35,0
287.28845,289.2699,49,35,0
289.2699,291.22412,42,35,0
291.22412,293.2004,40,43,0
293.2004,295.15076,38,63,0
295.15076,295.2522,38,44,0
295.2522,295.35312,37,41,0
295.35312,295.4534,38,44,0
295.4534,295.55313,37,42,0
295.55313,295.66675,38,44,0
295.66675,295.7786,37,45,0
295.7786,295.89078,38,47,0
295.89078,296.00125,37,48,0
296.00125,296.112,38,50,0
296.111,296.22113,37,51,0
296.22113,296.33218,38,52,0
296.3332,296.44226,37,54,0
296.44226,296.55246,38,55,0
296.55246,296.6644,37,56,0
296.6644,296.7803,38,58,0
296.77927,296.89517,37,59,0
296.89517,297.01007,35,60,0
297.01007,297.12704,37,62,0
297.12704,299.08124,35,84,0
299.08124,301.13297,38,77,0
301.13297,303.0872,37,40,0
303.0872,303.57452,37,35,0
304.06183,304.55096,53,31,0
304.55096,305.06863,56,31,0
303.57452,305.06863,49,35,0
305.06863,307.02286,42,35,0
307.02286,308.99915,40,43,0
308.99915,310.95337,38,63,0
310.95337,311.0548,36,37,0
311.0548,311.15573,38,33,0
311.15573,311.25598,36,37,0
311.25598,311.35574,38,33,0
311.35574,311.45493,36,38,0
311.45493,311.5536,38,39,0
311.5536,311.6516,36,41,0
311.6516,311.7492,38,44,0
311.7492,311.8462,36,45,0
311.8462,311.94266,38,47,0
311.94266,312.03873,36,50,0
312.03873,312.1348,38,51,0
312.1348,312.23087,36,54,0
312.23087,312.3269,38,55,0
312.3269,312.42377,36,58,0
312.42377,312.52496,38,60,0
312.52496,312.65985,36,62,0
312.65985,312.79474,34,65,0
312.79474,312.92963,36,68,0
312.93494,314.88913,34,84,0
314.88385,316.93558,38,77,0
316.93558,318.88977,37,40,0
318.88977,319.377,37,35,0
319.86435,320.3534,53,31,0
320.3534,320.87027,56,31,0
319.377,320.87027,49,35,0
321.37183,321.85956,46,27,0
321.37183,321.85956,49,27,0
321.85956,322.34067,51,30,0
321.85956,322.34067,47,26,0
322.34067,322.82446,46,24,0
322.34067,322.82446,49,24,0
320.87027,322.82446,42,40,0
322.82446,323.3117,37,28,0
323.79904,324.2881,53,24,0
324.2881,324.80496,56,24,0
323.3117,324.80496,49,28,0
325.30652,325.79425,46,24,0
325.30652,325.79425,49,24,0
325.79425,326.27536,51,27,0
325.79425,326.27536,47,23,0
326.27536,326.75916,46,21,0
326.27536,326.75916,49,21,0
324.80496,326.75916,42,40,0
326.75916,327.31586,37,28,0
327.8032,328.29224,56,24,0
328.29224,328.8091,59,24,0
327.31586,328.8091,49,28,0
328.8091,330.76477,42,28,0
328.8091,330.76477,49,32,0
330.76477,331.75406,42,25,0
330.76477,331.75406,49,28,0
331.75406,332.71896,49,28,0
331.75406,332.71896,42,25,0
332.88754,333.05457,42,26,0
333.05457,333.2208,46,25,0
333.2208,333.38614,49,27,0
333.38614,333.5507,46,24,0
333.5507,333.7141,42,24,0
333.7141,333.87646,46,30,0
333.87646,334.03952,42,22,0
334.03952,334.2022,46,22,0
334.2022,334.36346,49,26,0
334.36346,334.52475,46,22,0
334.52475,334.686,42,21,0
334.686,334.8548,46,28,0
334.8548,335.02194,42,23,0
335.02194,335.18756,46,23,0
335.18756,335.35162,49,24,0
335.35162,335.5139,46,21,0
335.5139,335.67548,42,21,0
335.67548,335.83884,46,27,0
335.83884,336.00418,42,20,0
336.00418,336.1714,37,20,0
336.1714,336.35504,42,24,0
336.35504,336.54437,37,19,0
336.54437,336.78412,34,19,0
336.78412,342.53745,42,23,0
336.78412,342.53745,37,20,0
336.78412,342.53745,30,20,0
