start_time,end_time,note_value,velocity,instrument_program_number
0.0,0.10309275,67,84,0
0.10309275,0.2061855,68,70,0
0.2061855,0.31332824,63,75,0
0.31332824,0.420471,60,70,0
0.420471,0.5419285,56,76,0
0.663386,0.76719224,67,85,0
0.76719224,0.8709985,68,70,0
0.8709985,0.97776,63,75,0
0.97776,1.0845215,60,70,0
1.0845215,1.203569,56,76,0
1.3226165,1.6498895,75,89,0
1.3226165,1.6498895,72,75,0
1.3226165,1.6498895,63,75,0
1.6498895,1.753526,75,85,0
1.6498895,1.753526,72,72,0
1.6498895,1.753526,63,72,0
1.7589805,1.878028,75,89,0
1.7589805,1.878028,72,75,0
1.7589805,1.878028,63,75,0
1.9970756,2.3243484,75,89,0
1.9970756,2.3243484,72,75,0
1.9970756,2.3243484,63,75,0
2.3243484,2.427985,75,85,0
2.3243484,2.427985,72,72,0
2.3243484,2.427985,63,72,0
2.4334395,2.5520165,75,89,0
2.4334395,2.5520165,72,75,0
2.4334395,2.5520165,63,75,0
2.6705935,2.7740417,75,80,0
2.6705935,2.7740417,71,68,0
2.6705935,2.7740417,63,68,0
2.7740417,2.87749,72,73,0
2.87749,2.9842515,68,73,0
2.9842515,3.091013,63,73,0
3.091013,3.207292,60,80,0
3.323571,3.4281006,63,84,0
3.4281006,3.53263,68,74,0
3.53263,3.6393914,72,74,0
3.6393914,3.746153,75,74,0
3.746153,3.86473,80,79,0
3.983307,4.046598,69,65,0
3.983307,4.046598,81,77,0
4.2364717,4.6927457,82,86,0
4.2364717,4.6927457,70,73,0
4.6927457,4.7965517,62,85,0
4.7965517,4.900358,63,70,0
4.900358,5.0071197,58,75,0
5.0071197,5.113881,55,70,0
5.113881,5.2329283,51,76,0
5.351976,5.679249,75,89,0
5.351976,5.679249,73,75,0
5.351976,5.679249,63,75,0
5.679249,5.7828856,75,85,0
5.679249,5.7828856,73,72,0
5.679249,5.7828856,63,72,0
5.78834,5.9073877,75,89,0
5.78834,5.9073877,73,75,0
5.78834,5.9073877,63,75,0
6.026435,6.353708,75,89,0
6.026435,6.353708,73,75,0
6.026435,6.353708,63,75,0
6.353708,6.4573445,75,85,0
6.353708,6.4573445,73,72,0
6.353708,6.4573445,63,72,0
6.462799,6.581376,75,89,0
6.462799,6.581376,73,75,0
6.462799,6.581376,63,75,0
6.699953,6.8034015,75,80,0
6.699953,6.8034015,72,68,0
6.699953,6.8034015,63,68,0
6.8034015,6.9068494,73,73,0
6.9068494,7.013611,70,73,0
7.013611,7.1203723,67,73,0
7.1203723,7.2366514,63,80,0
7.3529305,7.45746,67,84,0
7.45746,7.5619893,70,74,0
7.5619893,7.668751,73,74,0
7.668751,7.7755127,75,74,0
7.7755127,7.8940897,79,79,0
8.012667,8.075957,71,65,0
8.012667,8.075957,83,77,0
8.265831,8.722105,84,86,0
8.265831,8.722105,72,73,0
8.722105,8.8259115,67,85,0
8.8259115,8.929717,68,70,0
8.929717,9.036479,63,75,0
9.036479,9.143241,60,70,0
9.143241,9.262288,56,76,0
9.381335,9.708609,78,89,0
9.381335,9.708609,66,75,0
9.381335,9.708609,68,75,0
9.381335,9.708609,75,75,0
9.708609,9.812245,78,85,0
9.708609,9.812245,66,72,0
9.708609,9.812245,68,72,0
9.708609,9.812245,75,72,0
9.817699,9.936747,78,89,0
9.817699,9.936747,66,75,0
9.817699,9.936747,68,75,0
9.817699,9.936747,75,75,0
10.055795,10.159601,76,85,0
10.159601,10.263407,77,70,0
10.263407,10.370169,73,75,0
10.370169,10.47693,68,70,0
10.47693,10.595978,65,76,0
10.715025,11.042298,75,89,0
10.715025,11.042298,63,75,0
10.715025,11.042298,65,75,0
10.715025,11.042298,72,75,0
11.042298,11.145934,75,85,0
11.042298,11.145934,63,72,0
11.042298,11.145934,65,72,0
11.042298,11.145934,72,72,0
11.151389,11.270436,75,89,0
11.151389,11.270436,63,75,0
11.151389,11.270436,65,75,0
11.151389,11.270436,72,75,0
11.389484,11.49329,72,85,0
11.49329,11.597096,73,70,0
11.597096,11.703858,70,75,0
11.703858,11.810619,65,70,0
11.810619,11.93667,61,76,0
12.06272,12.166527,84,59,0
12.166527,12.270333,85,49,0
12.270333,12.377094,82,52,0
12.377094,12.483856,79,49,0
12.483856,12.602903,73,53,0
12.721951,12.825757,83,59,0
12.825757,12.9295635,84,49,0
12.9295635,13.036325,80,52,0
13.036325,13.143086,75,49,0
13.143086,13.262134,72,53,0
13.381182,13.484988,75,64,0
13.484988,13.588794,76,53,0
13.588794,13.695556,73,57,0
13.695556,13.802317,70,53,0
13.802317,13.921365,64,58,0
14.040412,14.144218,74,70,0
14.144218,14.248025,75,58,0
14.248025,14.354786,71,62,0
14.354786,14.461548,68,58,0
14.461548,14.580595,63,63,0
14.699642,14.810344,75,56,0
14.699642,14.810344,68,47,0
14.810344,14.920637,80,58,0
14.920637,15.03046,75,59,0
14.920637,15.03046,68,50,0
15.03046,15.139883,80,61,0
15.139883,15.248842,75,63,0
15.139883,15.248842,68,53,0
15.248842,15.357408,80,65,0
15.357408,15.465516,75,67,0
15.357408,15.465516,68,56,0
15.465516,15.573236,80,68,0
15.573236,15.680508,75,70,0
15.573236,15.680508,68,59,0
15.680508,15.7873955,80,72,0
15.7873955,15.893842,75,74,0
15.7873955,15.893842,68,62,0
15.893842,15.999787,80,76,0
15.999787,16.104929,74,77,0
15.999787,16.104929,68,65,0
16.104929,16.20958,80,79,0
16.20958,16.313625,74,81,0
16.20958,16.313625,68,68,0
16.313625,16.417253,80,83,0
16.417253,16.520346,74,85,0
16.417253,16.520346,68,72,0
16.520346,16.622911,80,86,0
16.622911,16.7253,74,88,0
16.622911,16.7253,68,74,0
16.7253,16.827688,80,90,0
16.827688,16.930079,74,92,0
16.827688,16.930079,68,78,0
16.930079,17.032467,80,94,0
17.032467,17.134855,74,95,0
17.032467,17.134855,68,80,0
17.134855,17.237246,80,97,0
17.237246,17.459467,80,106,0
17.237246,17.459467,74,90,0
17.237246,17.459467,68,90,0
17.459467,17.565474,82,95,0
17.459467,17.565474,70,80,0
17.459467,17.565474,74,80,0
17.459467,17.565474,80,80,0
17.67148,17.780176,82,95,0
17.67148,17.780176,70,80,0
17.67148,17.780176,74,80,0
17.67148,17.780176,80,80,0
17.888872,17.997568,82,100,0
17.888872,17.997568,70,85,0
17.888872,17.997568,74,85,0
17.888872,17.997568,80,85,0
18.106264,18.211897,82,90,0
18.106264,18.211897,70,76,0
18.106264,18.211897,74,76,0
18.106264,18.211897,80,76,0
18.317532,18.425835,82,90,0
18.317532,18.425835,70,76,0
18.317532,18.425835,74,76,0
18.317532,18.425835,80,76,0
18.534138,18.770359,82,95,0
18.534138,18.770359,70,80,0
18.534138,18.770359,75,80,0
18.534138,18.770359,79,80,0
18.770359,18.881882,75,80,0
18.770359,18.881882,87,95,0
18.770359,18.881882,82,80,0
18.770359,18.881882,79,80,0
19.216455,19.339912,70,83,0
19.216455,19.339912,67,70,0
19.216455,19.339912,63,70,0
19.46337,19.573664,75,76,0
19.46337,19.573664,63,64,0
19.46337,19.573664,67,64,0
19.46337,19.573664,70,64,0
20.01729,20.344563,75,53,0
20.01729,20.344563,72,45,0
20.01729,20.344563,63,45,0
20.344563,20.4482,75,51,0
20.344563,20.4482,72,43,0
20.344563,20.4482,63,43,0
20.453655,20.572702,75,53,0
20.453655,20.572702,72,45,0
20.453655,20.572702,63,45,0
20.69175,21.019022,75,53,0
20.69175,21.019022,72,45,0
20.69175,21.019022,63,45,0
21.019022,21.12266,75,51,0
21.019022,21.12266,72,43,0
21.019022,21.12266,63,43,0
21.128113,21.24669,75,53,0
21.128113,21.24669,72,45,0
21.128113,21.24669,63,45,0
21.365267,21.468716,75,48,0
21.365267,21.468716,71,40,0
21.365267,21.468716,63,40,0
21.468716,21.572165,72,43,0
21.572165,21.678925,68,43,0
21.678925,21.785686,63,43,0
21.785686,21.901966,60,48,0
22.018246,22.122774,63,50,0
22.122774,22.227304,68,44,0
22.227304,22.334064,72,44,0
22.334064,22.440826,75,44,0
22.440826,22.559404,80,47,0
22.67798,22.741272,69,39,0
22.67798,22.741272,81,46,0
22.931145,23.387419,82,51,0
22.931145,23.387419,70,43,0
23.387419,23.491226,62,51,0
23.491226,23.595032,63,42,0
23.595032,23.701794,58,45,0
23.701794,23.808556,55,42,0
23.808556,23.927603,51,45,0
24.04665,24.373922,75,53,0
24.04665,24.373922,73,45,0
24.04665,24.373922,63,45,0
24.373922,24.47756,75,51,0
24.373922,24.47756,73,43,0
24.373922,24.47756,63,43,0
24.483013,24.602062,75,53,0
24.483013,24.602062,73,45,0
24.483013,24.602062,63,45,0
24.72111,25.048382,75,53,0
24.72111,25.048382,73,45,0
24.72111,25.048382,63,45,0
25.048382,25.152018,75,51,0
25.048382,25.152018,73,43,0
25.048382,25.152018,63,43,0
25.157473,25.27605,75,53,0
25.157473,25.27605,73,45,0
25.157473,25.27605,63,45,0
25.394627,25.498075,75,48,0
25.394627,25.498075,72,40,0
25.394627,25.498075,63,40,0
25.498075,25.601522,73,43,0
25.601522,25.708284,70,43,0
25.708284,25.815046,67,43,0
25.815046,25.931326,63,48,0
26.047604,26.152134,67,50,0
26.152134,26.256662,70,44,0
26.256662,26.363424,73,44,0
26.363424,26.470186,75,44,0
26.470186,26.588764,79,47,0
26.70734,26.770632,71,39,0
26.70734,26.770632,83,46,0
26.960505,27.416779,84,51,0
26.960505,27.416779,72,43,0
27.416779,27.520584,67,51,0
27.520584,27.624392,68,42,0
27.624392,27.731153,63,45,0
27.731153,27.837914,60,42,0
27.837914,27.956963,56,45,0
28.07601,28.1855,68,49,0
28.1855,28.294987,69,48,0
28.294987,28.404476,70,51,0
28.404476,28.513966,71,54,0
28.513966,28.652855,72,57,0
28.791744,28.916225,72,51,0
28.916225,29.011162,73,49,0
29.042807,29.569122,80,57,0
29.569122,29.688644,65,45,0
29.688644,29.808167,66,46,0
29.808167,29.927689,67,47,0
29.927689,30.04721,68,49,0
30.04721,30.18546,69,50,0
30.323708,30.448189,69,51,0
30.448189,30.543127,70,49,0
30.574772,31.101088,77,57,0
31.101088,31.211788,74,56,0
31.211788,31.294815,75,56,0
31.32249,31.775639,85,63,0
31.32249,31.775639,75,53,0
31.32249,31.775639,73,53,0
31.775639,31.885128,71,59,0
31.885128,31.967245,72,59,0
31.994617,32.445293,84,67,0
31.994617,32.445293,75,57,0
31.994617,32.445293,72,57,0
32.445293,32.553596,74,64,0
32.553596,32.634823,75,64,0
32.6619,33.105724,85,71,0
32.6619,33.105724,75,59,0
32.6619,33.105724,73,59,0
33.105724,33.21364,71,67,0
33.21364,33.294575,72,67,0
33.321552,33.763588,84,76,0
33.321552,33.763588,75,64,0
33.321552,33.763588,72,64,0
33.763588,34.094406,80,79,0
33.763588,34.094406,68,67,0
33.763588,34.094406,75,67,0
34.094406,34.198376,80,76,0
34.094406,34.198376,75,64,0
34.094406,34.198376,68,64,0
34.20383,34.31279,80,76,0
34.20383,34.31279,68,64,0
34.20383,34.31279,75,64,0
34.421356,34.529465,80,81,0
34.421356,34.529465,68,68,0
34.421356,34.529465,75,68,0
34.637184,34.744453,80,75,0
34.637184,34.744453,75,63,0
34.637184,34.744453,68,63,0
34.85134,34.95779,80,75,0
34.85134,34.95779,68,63,0
34.85134,34.95779,75,63,0
35.063736,35.168877,74,77,0
35.063736,35.168877,68,65,0
35.168877,35.273525,80,79,0
35.273525,35.377575,74,81,0
35.273525,35.377575,68,68,0
35.377575,35.4812,80,83,0
35.4812,35.584293,74,85,0
35.4812,35.584293,68,72,0
35.584293,35.68686,80,86,0
35.68686,35.789246,74,88,0
35.68686,35.789246,68,74,0
35.789246,35.891636,80,90,0
35.891636,35.994026,74,92,0
35.891636,35.994026,68,78,0
35.994026,36.096413,80,94,0
36.096413,36.198803,74,95,0
36.096413,36.198803,68,80,0
36.198803,36.301193,80,97,0
36.301193,36.523415,80,106,0
36.301193,36.523415,74,90,0
36.301193,36.523415,68,90,0
36.523415,36.628677,82,95,0
36.523415,36.628677,70,80,0
36.523415,36.628677,74,80,0
36.523415,36.628677,80,80,0
36.73394,36.842636,82,95,0
36.73394,36.842636,70,80,0
36.73394,36.842636,74,80,0
36.73394,36.842636,80,80,0
36.951332,37.060028,82,100,0
36.951332,37.060028,70,85,0
36.951332,37.060028,74,85,0
36.951332,37.060028,80,85,0
37.168724,37.27511,82,92,0
37.168724,37.27511,70,77,0
37.168724,37.27511,74,77,0
37.168724,37.27511,80,77,0
37.38149,37.48979,82,92,0
37.38149,37.48979,70,77,0
37.38149,37.48979,74,77,0
37.38149,37.48979,80,77,0
37.598095,37.716206,82,95,0
37.598095,37.716206,70,80,0
37.598095,37.716206,75,80,0
37.598095,37.716206,79,80,0
37.834316,37.94461,75,80,0
37.834316,37.94461,87,95,0
37.834316,37.94461,82,80,0
37.834316,37.94461,79,80,0
38.275494,38.393604,70,83,0
38.275494,38.393604,67,70,0
38.275494,38.393604,63,70,0
38.511715,38.622005,75,76,0
38.511715,38.622005,67,64,0
38.511715,38.622005,63,64,0
40.41172,40.486626,79,71,0
40.486626,40.561253,76,69,0
40.561253,40.6356,73,66,0
40.6356,40.709743,70,64,0
40.709743,40.783615,67,62,0
40.783615,40.85728,64,59,0
40.85728,40.930676,61,56,0
40.930676,41.00387,58,56,0
41.00387,41.076794,55,56,0
41.076794,41.14952,52,56,0
41.14952,41.222446,55,55,0
41.222446,41.295574,58,56,0
41.295574,41.3689,61,56,0
41.3689,41.44243,64,57,0
41.44243,41.516163,67,58,0
41.516163,41.5901,70,60,0
41.5901,41.66424,73,63,0
41.66424,41.738594,76,64,0
41.738594,41.8135,79,67,0
41.8135,41.888195,76,66,0
41.888195,41.962616,73,65,0
41.962616,42.036827,70,64,0
42.036827,42.110764,67,63,0
42.110764,42.18443,64,62,0
42.18443,42.25789,61,61,0
42.25789,42.331085,58,60,0
42.331085,42.40401,55,59,0
42.40401,42.476738,52,58,0
42.476738,42.54973,55,55,0
42.54973,42.62299,58,56,0
42.62299,42.696518,61,56,0
42.696518,42.77032,64,57,0
42.77032,42.844395,67,58,0
42.844395,42.918743,70,59,0
42.918743,42.99337,73,59,0
42.99337,43.068275,76,62,0
43.068275,43.39555,79,72,0
43.068275,43.39555,76,60,0
43.068275,43.39555,67,60,0
43.39555,43.499187,76,64,0
43.39555,43.499187,67,64,0
43.39555,43.499187,79,76,0
43.504642,43.623688,79,80,0
43.504642,43.623688,76,67,0
43.504642,43.623688,67,67,0
43.742737,44.070007,80,80,0
43.742737,44.070007,76,67,0
43.742737,44.070007,68,67,0
44.070007,44.173645,76,64,0
44.070007,44.173645,68,64,0
44.070007,44.173645,80,76,0
44.1791,44.298145,80,80,0
44.1791,44.298145,76,67,0
44.1791,44.298145,68,67,0
44.417194,44.74447,79,80,0
44.417194,44.74447,76,67,0
44.417194,44.74447,67,67,0
44.74447,44.848103,76,64,0
44.74447,44.848103,67,64,0
44.74447,44.848103,79,76,0
44.853558,44.972607,79,80,0
44.853558,44.972607,76,67,0
44.853558,44.972607,67,67,0
45.091652,45.418926,80,80,0
45.091652,45.418926,76,67,0
45.091652,45.418926,68,67,0
45.418926,45.522564,76,64,0
45.418926,45.522564,68,64,0
45.418926,45.522564,80,76,0
45.52802,45.647064,80,80,0
45.52802,45.647064,76,67,0
45.52802,45.647064,68,67,0
45.766113,46.093384,82,80,0
45.766113,46.093384,78,67,0
45.766113,46.093384,70,67,0
45.766113,46.093384,76,67,0
46.093384,46.19702,76,64,0
46.093384,46.19702,78,64,0
46.093384,46.19702,82,76,0
46.093384,46.19702,70,64,0
46.202477,46.321526,82,80,0
46.202477,46.321526,78,67,0
46.202477,46.321526,70,67,0
46.202477,46.321526,76,67,0
46.44057,46.767845,83,80,0
46.44057,46.767845,78,67,0
46.44057,46.767845,71,67,0
46.767845,46.871483,78,68,0
46.767845,46.871483,71,68,0
46.767845,46.871483,83,81,0
46.876934,46.995983,83,88,0
46.876934,46.995983,78,73,0
46.876934,46.995983,71,73,0
47.115032,47.442303,87,92,0
47.115032,47.442303,75,77,0
47.115032,47.442303,83,77,0
47.115032,47.442303,78,77,0
47.442303,47.54594,78,69,0
47.442303,47.54594,75,69,0
47.442303,47.54594,87,82,0
47.442303,47.54594,83,69,0
47.551395,47.67044,87,84,0
47.551395,47.67044,75,70,0
47.551395,47.67044,83,70,0
47.551395,47.67044,78,70,0
47.78949,48.116764,85,80,0
47.78949,48.116764,82,67,0
47.78949,48.116764,78,67,0
47.78949,48.116764,76,67,0
48.116764,48.220398,76,64,0
48.116764,48.220398,82,64,0
48.116764,48.220398,85,76,0
48.116764,48.220398,78,64,0
48.225853,48.344902,85,80,0
48.225853,48.344902,82,67,0
48.225853,48.344902,78,67,0
48.225853,48.344902,76,67,0
48.463947,48.68213,83,88,0
48.463947,48.68213,78,74,0
48.463947,48.68213,75,74,0
49.81003,49.88494,77,70,0
49.88494,49.959568,74,68,0
49.959568,50.033916,71,67,0
50.033916,50.10806,68,65,0
50.10806,50.181927,65,64,0
50.181927,50.255592,62,62,0
50.255592,50.328987,59,61,0
50.328987,50.40218,56,59,0
50.40218,50.47511,53,58,0
50.47511,50.547836,50,56,0
50.547836,50.62076,53,55,0
50.62076,50.693886,56,56,0
50.693886,50.767216,59,56,0
50.767216,50.840744,62,57,0
50.840744,50.91448,65,58,0
50.91448,50.988415,68,59,0
50.988415,51.062557,71,60,0
51.062557,51.136906,74,63,0
51.136906,51.21181,77,65,0
51.21181,51.28651,74,64,0
51.28651,51.360928,71,63,0
51.360928,51.43514,68,62,0
51.43514,51.50908,65,61,0
51.50908,51.58274,62,59,0
51.58274,51.656204,59,58,0
51.656204,51.729397,56,57,0
51.729397,51.802322,53,56,0
51.802322,51.87505,50,56,0
51.87505,51.948044,53,55,0
51.948044,52.021236,56,56,0
52.021236,52.095177,59,56,0
52.095177,52.170223,62,57,0
52.170223,52.246414,65,58,0
52.246414,52.304405,68,60,0
52.304405,52.363384,71,62,0
52.363384,52.42562,74,63,0
52.42562,52.49239,77,66,0
52.49239,52.858246,78,77,0
52.49239,52.858246,66,65,0
52.858246,52.9741,66,41,0
52.858246,52.9741,78,49,0
52.980194,53.237705,78,52,0
52.980194,53.237705,66,44,0
53.237705,53.60356,83,55,0
53.237705,53.60356,71,46,0
53.60356,53.719414,71,41,0
53.60356,53.719414,83,49,0
53.72551,53.98083,83,54,0
53.72551,53.98083,71,45,0
53.98083,54.346684,82,55,0
53.98083,54.346684,70,46,0
54.346684,54.462536,70,41,0
54.346684,54.462536,82,49,0
54.468636,54.75849,82,54,0
54.468636,54.75849,70,45,0
54.75849,55.570942,88,55,0
54.75849,55.570942,76,46,0
55.570942,55.936794,87,55,0
55.570942,55.936794,75,46,0
55.936794,56.05265,75,41,0
55.936794,56.05265,87,49,0
56.058746,56.314064,83,54,0
56.058746,56.314064,71,45,0
56.314064,56.67992,80,55,0
56.314064,56.67992,68,46,0
56.67992,56.795773,68,41,0
56.67992,56.795773,80,49,0
56.80187,57.05828,85,54,0
56.80187,57.05828,73,45,0
57.05828,57.424133,82,55,0
57.05828,57.424133,70,46,0
57.424133,57.53999,70,41,0
57.424133,57.53999,82,49,0
57.546085,57.820057,85,54,0
57.546085,57.820057,73,45,0
57.820057,58.20547,78,55,0
57.820057,58.20547,66,46,0
58.20547,58.343086,87,53,0
58.343086,58.476418,88,53,0
58.476418,58.609753,89,53,0
58.609753,58.98165,90,60,0
58.609753,58.98165,78,50,0
58.98165,59.10562,78,45,0
58.98165,59.10562,90,53,0
59.10562,59.36313,90,57,0
59.10562,59.36313,78,48,0
59.36313,59.7335,95,60,0
59.36313,59.7335,83,50,0
59.7335,59.856956,83,45,0
59.7335,59.856956,95,53,0
59.856956,60.112274,95,59,0
59.856956,60.112274,83,49,0
60.112274,60.47813,94,60,0
60.112274,60.47813,82,50,0
60.47813,60.600082,82,45,0
60.47813,60.600082,94,53,0
60.600082,60.874054,94,59,0
60.600082,60.874054,82,49,0
60.874054,61.64239,100,60,0
60.874054,61.64239,88,50,0
61.64239,62.008244,99,60,0
61.64239,62.008244,87,50,0
62.008244,62.130196,87,45,0
62.008244,62.130196,99,53,0
62.130196,62.385513,95,59,0
62.130196,62.385513,83,49,0
62.385513,62.75137,92,60,0
62.385513,62.75137,80,50,0
62.75137,62.87332,80,45,0
62.75137,62.87332,92,53,0
62.87332,63.12973,97,59,0
62.87332,63.12973,85,49,0
63.12973,63.501633,94,60,0
63.12973,63.501633,82,50,0
63.501633,63.6256,82,45,0
63.501633,63.6256,94,53,0
63.6256,63.89957,97,59,0
63.6256,63.89957,85,49,0
63.89957,64.67774,95,60,0
63.89957,64.67774,83,50,0
64.796326,64.9149,66,67,0
64.9149,65.03348,75,63,0
64.9149,65.03348,78,75,0
65.03348,65.152054,71,63,0
65.152054,65.27551,71,56,0
65.152054,65.27551,75,67,0
65.27551,65.398964,66,63,0
65.5157,65.63243,71,67,0
65.63243,65.74916,80,64,0
65.63243,65.74916,83,76,0
65.74916,65.86589,77,64,0
65.86589,65.99355,77,56,0
65.86589,65.99355,80,67,0
65.99355,66.121216,71,63,0
66.24073,66.36025,70,67,0
66.36025,66.479774,75,64,0
66.36025,66.479774,80,64,0
66.36025,66.479774,82,76,0
66.479774,66.5993,70,63,0
66.5993,66.73629,75,56,0
66.5993,66.73629,78,67,0
66.73629,66.873276,70,63,0
66.998795,67.12432,65,67,0
67.12432,67.24627,70,65,0
67.12432,67.24627,75,65,0
67.12432,67.24627,77,77,0
67.24627,67.36822,65,64,0
67.36822,67.49017,74,67,0
67.36822,67.49017,70,56,0
67.49017,67.61212,65,63,0
67.7307,67.84928,68,67,0
67.84928,67.96786,77,63,0
67.84928,67.96786,80,75,0
67.96786,68.08643,73,63,0
68.08643,68.209885,73,56,0
68.08643,68.209885,77,67,0
68.209885,68.33334,68,63,0
68.45007,68.56681,73,67,0
68.56681,68.68354,82,64,0
68.56681,68.68354,85,76,0
68.68354,68.80027,79,64,0
68.80027,68.92793,79,56,0
68.80027,68.92793,82,67,0
68.92793,69.05559,73,63,0
69.17511,69.29463,72,67,0
69.29463,69.414154,79,64,0
69.29463,69.414154,82,64,0
69.29463,69.414154,84,76,0
69.414154,69.533676,72,63,0
69.533676,69.67066,77,56,0
69.533676,69.67066,80,67,0
69.67066,69.80765,72,63,0
69.933174,70.05869,67,67,0
70.05869,70.18065,72,65,0
70.05869,70.18065,77,65,0
70.05869,70.18065,79,77,0
70.18065,70.3026,67,64,0
70.3026,70.42455,76,67,0
70.3026,70.42455,72,56,0
70.42455,70.5465,67,63,0
70.66508,70.78365,70,70,0
70.78365,70.90223,79,66,0
70.78365,70.90223,82,78,0
70.90223,71.02081,75,66,0
71.02081,71.144264,75,59,0
71.02081,71.144264,79,71,0
71.144264,71.26772,70,66,0
71.38445,71.50118,76,71,0
71.50118,71.61792,85,68,0
71.50118,71.61792,88,81,0
71.61792,71.73465,82,68,0
71.73465,71.86231,82,59,0
71.73465,71.86231,85,71,0
71.86231,71.98997,76,68,0
72.10949,72.22901,75,72,0
72.22901,72.34853,82,69,0
72.22901,72.34853,85,69,0
72.22901,72.34853,87,82,0
72.34853,72.468056,75,68,0
72.468056,72.60504,80,61,0
72.468056,72.60504,83,73,0
72.60504,72.74203,75,68,0
72.86703,72.99203,70,70,0
72.99203,73.11251,75,68,0
72.99203,73.11251,80,68,0
72.99203,73.11251,82,80,0
73.11251,73.232994,70,67,0
73.232994,73.35348,79,70,0
73.232994,73.35348,75,58,0
73.35348,73.47395,70,66,0
73.47395,73.793106,88,95,0
73.47395,73.793106,76,80,0
73.47395,73.793106,79,80,0
73.47395,73.793106,82,80,0
73.793106,73.89417,88,90,0
73.793106,73.89417,76,76,0
73.793106,73.89417,79,76,0
73.793106,73.89417,82,76,0
73.89949,74.13758,88,94,0
73.89949,74.13758,76,79,0
73.89949,74.13758,79,79,0
73.89949,74.13758,82,79,0
74.13758,74.45448,88,95,0
74.13758,74.45448,76,80,0
74.13758,74.45448,79,80,0
74.13758,74.45448,82,80,0
74.45448,74.55484,88,90,0
74.45448,74.55484,76,76,0
74.45448,74.55484,79,76,0
74.45448,74.55484,82,76,0
74.56012,74.79821,88,94,0
74.56012,74.79821,76,79,0
74.56012,74.79821,79,79,0
74.56012,74.79821,82,79,0
74.79821,74.87758,88,74,0
74.79821,74.87758,76,62,0
74.79821,74.87758,82,62,0
74.79821,74.87758,79,62,0
74.87758,74.9522,85,67,0
74.9522,75.02656,82,66,0
75.02656,75.1007,79,65,0
75.1007,75.17457,76,65,0
75.17457,75.24823,73,64,0
75.24823,75.321625,70,63,0
75.321625,75.39482,67,63,0
75.39482,75.46774,64,63,0
75.46774,75.540474,61,63,0
75.540474,75.6134,64,62,0
75.6134,75.68652,67,63,0
75.68652,75.75985,70,63,0
75.75985,75.83338,73,64,0
75.83338,75.90711,76,65,0
75.90711,75.98106,79,66,0
75.98106,76.0552,82,67,0
76.0552,76.12955,85,70,0
76.12955,76.44983,89,95,0
76.12955,76.44983,77,80,0
76.12955,76.44983,80,80,0
76.12955,76.44983,83,80,0
76.44983,76.551254,89,90,0
76.44983,76.551254,77,76,0
76.44983,76.551254,80,76,0
76.44983,76.551254,83,76,0
76.556595,76.794685,89,94,0
76.556595,76.794685,77,79,0
76.556595,76.794685,80,79,0
76.556595,76.794685,83,79,0
76.794685,77.11271,89,95,0
76.794685,77.11271,77,80,0
76.794685,77.11271,80,80,0
76.794685,77.11271,83,80,0
77.11271,77.21342,89,90,0
77.11271,77.21342,77,76,0
77.11271,77.21342,80,76,0
77.11271,77.21342,83,76,0
77.21871,77.45681,89,94,0
77.21871,77.45681,77,79,0
77.21871,77.45681,80,79,0
77.21871,77.45681,83,79,0
77.45681,77.53617,89,74,0
77.45681,77.53617,80,62,0
77.45681,77.53617,77,62,0
77.53617,77.6108,83,67,0
77.6108,77.68515,80,66,0
77.68515,77.75929,77,65,0
77.75929,77.83316,71,65,0
77.83316,77.90683,68,64,0
77.90683,77.980225,65,63,0
77.980225,78.05341,59,63,0
78.05341,78.12634,56,63,0
78.12634,78.199066,53,63,0
78.199066,78.271996,56,62,0
78.271996,78.34512,59,63,0
78.34512,78.41845,65,63,0
78.41845,78.49198,68,64,0
78.49198,78.56571,71,65,0
78.56571,78.63965,77,66,0
78.63965,78.71379,80,67,0
78.71379,78.78814,83,70,0
78.78814,79.10729,92,95,0
78.78814,79.10729,80,80,0
78.78814,79.10729,83,80,0
78.78814,79.10729,86,80,0
79.10729,79.20835,92,90,0
79.10729,79.20835,80,76,0
79.10729,79.20835,83,76,0
79.10729,79.20835,86,76,0
79.21368,79.45177,92,94,0
79.21368,79.45177,80,79,0
79.21368,79.45177,83,79,0
79.21368,79.45177,86,79,0
79.45177,79.76867,92,95,0
79.45177,79.76867,80,80,0
79.45177,79.76867,83,80,0
79.45177,79.76867,86,80,0
79.76867,79.86902,92,90,0
79.76867,79.86902,80,76,0
79.76867,79.86902,83,76,0
79.76867,79.86902,86,76,0
79.874306,80.1124,92,94,0
79.874306,80.1124,80,79,0
79.874306,80.1124,83,79,0
79.874306,80.1124,86,79,0
80.1124,80.191765,92,74,0
80.1124,80.191765,83,62,0
80.1124,80.191765,80,62,0
80.191765,80.26639,86,67,0
80.26639,80.34074,83,66,0
80.34074,80.41488,80,65,0
80.41488,80.488754,74,65,0
80.488754,80.562416,71,64,0
80.562416,80.63581,68,63,0
80.63581,80.70901,62,63,0
80.70901,80.78193,59,63,0
80.78193,80.85466,56,63,0
80.85466,80.92758,59,62,0
80.92758,81.00071,62,63,0
81.00071,81.074036,68,63,0
81.074036,81.14757,71,64,0
81.14757,81.2213,74,65,0
81.2213,81.295235,80,66,0
81.295235,81.36938,83,67,0
81.36938,81.4624,92,70,0
81.4624,81.780426,87,95,0
81.4624,81.780426,75,80,0
81.4624,81.780426,79,80,0
81.4624,81.780426,82,80,0
81.780426,81.881134,75,90,0
81.88643,82.00548,75,94,0
82.12453,82.44143,87,95,0
82.12453,82.44143,75,80,0
82.12453,82.44143,80,80,0
82.12453,82.44143,83,80,0
82.44143,82.54178,75,90,0
82.54706,82.66611,75,94,0
82.78516,83.10318,87,95,0
82.78516,83.10318,75,80,0
82.78516,83.10318,79,80,0
82.78516,83.10318,82,80,0
83.10318,83.20388,75,90,0
83.20918,83.32823,75,94,0
83.44728,83.76196,87,95,0
83.44728,83.76196,75,80,0
83.44728,83.76196,80,80,0
83.44728,83.76196,83,80,0
83.76196,83.86162,75,90,0
83.86686,83.98591,75,94,0
84.10496,84.44203,75,54,0
84.10496,84.44203,63,40,0
84.10496,84.44203,67,40,0
84.10496,84.44203,70,40,0
84.44203,84.548775,63,54,0
84.55439,84.685974,63,54,0
84.81755,85.15975,75,54,0
84.81755,85.15975,63,40,0
84.81755,85.15975,68,40,0
84.81755,85.15975,71,40,0
85.15975,85.26812,63,53,0
85.27383,85.40258,63,55,0
85.531334,85.87749,75,54,0
85.531334,85.87749,63,40,0
85.531334,85.87749,67,40,0
85.531334,85.87749,70,40,0
85.87749,85.98711,63,54,0
85.992874,86.12445,63,54,0
86.25603,86.60897,75,54,0
86.25603,86.60897,63,40,0
86.25603,86.60897,68,40,0
86.25603,86.60897,71,40,0
86.60897,86.72073,63,53,0
86.726616,86.874405,63,55,0
87.02219,87.40517,63,37,0
87.02219,87.40517,51,32,0
87.02219,87.40517,55,32,0
87.02219,87.40517,58,32,0
87.40517,87.52644,51,41,0
87.53282,87.68826,51,41,0
87.843704,88.26037,63,34,0
87.843704,88.26037,51,30,0
87.843704,88.26037,56,30,0
87.843704,88.26037,59,30,0
88.26037,88.39232,51,37,0
88.39926,88.55551,51,39,0
88.71176,89.14865,63,32,0
88.71176,89.14865,51,27,0
88.71176,89.14865,56,27,0
88.71176,89.14865,58,27,0
89.14865,89.287,51,36,0
89.29428,89.463776,51,35,0
89.63327,90.0948,63,29,0
89.63327,90.0948,51,25,0
89.63327,90.0948,55,25,0
89.63327,90.0948,58,25,0
90.0948,90.24096,51,32,0
90.24865,90.43047,51,33,0
90.61229,90.93956,75,42,0
90.61229,90.93956,72,36,0
90.61229,90.93956,63,36,0
90.93956,91.0432,75,40,0
90.93956,91.0432,72,34,0
90.93956,91.0432,63,34,0
91.04865,91.1677,75,42,0
91.04865,91.1677,72,36,0
91.04865,91.1677,63,36,0
91.28675,91.61402,75,42,0
91.28675,91.61402,72,36,0
91.28675,91.61402,63,36,0
91.61402,91.71766,75,40,0
91.61402,91.71766,72,34,0
91.61402,91.71766,63,34,0
91.723114,91.84169,75,42,0
91.723114,91.84169,72,36,0
91.723114,91.84169,63,36,0
91.960266,92.06371,75,48,0
91.960266,92.06371,71,40,0
91.960266,92.06371,63,40,0
92.06371,92.16716,72,43,0
92.16716,92.273926,68,43,0
92.273926,92.380684,63,43,0
92.380684,92.49696,60,48,0
92.61324,92.71777,63,50,0
92.71777,92.8223,68,44,0
92.8223,92.92906,72,44,0
92.92906,93.03583,75,44,0
93.03583,93.1544,80,47,0
93.27298,93.33627,69,39,0
93.27298,93.33627,81,46,0
93.526146,93.982414,82,51,0
93.526146,93.982414,70,43,0
93.982414,94.08446,62,51,0
94.08446,94.1865,63,42,0
94.1865,94.29326,58,45,0
94.29326,94.400024,55,42,0
94.400024,94.519066,51,45,0
94.638115,94.96539,75,53,0
94.638115,94.96539,73,45,0
94.638115,94.96539,63,45,0
94.96539,95.06902,75,51,0
94.96539,95.06902,73,43,0
94.96539,95.06902,63,43,0
95.07448,95.19353,75,53,0
95.07448,95.19353,73,45,0
95.07448,95.19353,63,45,0
95.31258,95.63985,75,53,0
95.31258,95.63985,73,45,0
95.31258,95.63985,63,45,0
95.63985,95.743484,75,51,0
95.63985,95.743484,73,43,0
95.63985,95.743484,63,43,0
95.74894,95.867516,75,53,0
95.74894,95.867516,73,45,0
95.74894,95.867516,63,45,0
95.98609,96.08955,75,48,0
95.98609,96.08955,72,40,0
95.98609,96.08955,63,40,0
96.08955,96.19299,73,43,0
96.19299,96.29975,70,43,0
96.29975,96.40652,67,43,0
96.40652,96.52279,63,48,0
96.63907,96.7436,67,50,0
96.7436,96.84813,70,44,0
96.84813,96.954895,73,44,0
96.954895,97.06165,75,44,0
97.06165,97.18023,79,47,0
97.298805,97.3621,71,39,0
97.298805,97.3621,83,46,0
97.55197,98.00825,84,51,0
97.55197,98.00825,72,43,0
98.00825,98.1096,67,51,0
98.1096,98.210945,68,42,0
98.210945,98.31771,63,45,0
98.31771,98.42447,60,42,0
98.42447,98.54352,56,45,0
98.66257,98.98984,78,89,0
98.66257,98.98984,66,75,0
98.66257,98.98984,68,75,0
98.66257,98.98984,75,75,0
98.98984,99.093475,78,85,0
98.98984,99.093475,66,72,0
98.98984,99.093475,68,72,0
98.98984,99.093475,75,72,0
99.09893,99.21798,78,89,0
99.09893,99.21798,66,75,0
99.09893,99.21798,68,75,0
99.09893,99.21798,75,75,0
99.33703,99.440834,76,85,0
99.440834,99.54464,77,70,0
99.54464,99.6514,73,75,0
99.6514,99.75816,68,70,0
99.75816,99.877205,65,76,0
99.996254,100.32353,75,89,0
99.996254,100.32353,63,75,0
99.996254,100.32353,65,75,0
99.996254,100.32353,72,75,0
100.32353,100.42716,75,85,0
100.32353,100.42716,63,72,0
100.32353,100.42716,65,72,0
100.32353,100.42716,72,72,0
100.43262,100.55167,75,89,0
100.43262,100.55167,63,75,0
100.43262,100.55167,65,75,0
100.43262,100.55167,72,75,0
100.670715,100.77452,72,85,0
100.77452,100.87833,73,70,0
100.87833,100.98509,70,75,0
100.98509,101.09185,65,70,0
101.09185,101.2179,61,76,0
101.34395,101.44776,84,59,0
101.44776,101.55157,85,49,0
101.55157,101.658325,82,52,0
101.658325,101.76509,79,49,0
101.76509,101.88413,73,53,0
102.00318,102.10699,83,64,0
102.10699,102.21079,84,53,0
102.21079,102.31756,80,57,0
102.31756,102.42432,75,53,0
102.42432,102.543365,72,58,0
102.662415,102.7648,75,76,0
102.7648,102.86719,76,63,0
102.86719,102.97395,73,68,0
102.97395,103.08071,70,63,0
103.08071,103.193924,64,69,0
103.30713,103.40917,74,84,0
103.40917,103.51121,75,69,0
103.51121,103.61797,71,74,0
103.61797,103.72473,68,69,0
103.72473,103.84378,63,75,0
103.96283,104.29365,80,94,0
103.96283,104.29365,68,80,0
103.96283,104.29365,75,80,0
104.29365,104.39761,80,91,0
104.29365,104.39761,75,76,0
104.29365,104.39761,68,76,0
104.40307,104.62059,80,91,0
104.40307,104.62059,68,76,0
104.40307,104.62059,75,76,0
104.62059,104.82567,80,97,0
104.62059,104.82567,68,81,0
104.62059,104.82567,75,81,0
104.836426,105.0399,80,90,0
104.836426,105.0399,75,75,0
104.836426,105.0399,68,75,0
105.05058,105.25245,80,90,0
105.05058,105.25245,68,75,0
105.05058,105.25245,75,75,0
105.26297,105.36811,74,77,0
105.26297,105.36811,68,65,0
105.36811,105.47276,80,79,0
105.47276,105.57681,74,81,0
105.47276,105.57681,68,68,0
105.57681,105.680435,80,83,0
105.680435,105.78353,74,85,0
105.680435,105.78353,68,72,0
105.78353,105.88609,80,86,0
105.88609,105.98849,74,88,0
105.88609,105.98849,68,74,0
105.98849,106.09087,80,90,0
106.09087,106.19326,74,92,0
106.09087,106.19326,68,78,0
106.19326,106.295654,80,94,0
106.295654,106.39804,74,95,0
106.295654,106.39804,68,80,0
106.39804,106.50043,80,97,0
106.50043,106.72265,80,106,0
106.50043,106.72265,74,90,0
106.50043,106.72265,68,90,0
106.72265,106.827545,82,95,0
106.72265,106.827545,70,80,0
106.72265,106.827545,74,80,0
106.72265,106.827545,80,80,0
106.93244,107.04114,82,95,0
106.93244,107.04114,70,80,0
106.93244,107.04114,74,80,0
106.93244,107.04114,80,80,0
107.14983,107.25853,82,104,0
107.14983,107.25853,70,88,0
107.14983,107.25853,74,88,0
107.14983,107.25853,80,88,0
107.367226,107.47286,82,95,0
107.367226,107.47286,70,80,0
107.367226,107.47286,74,80,0
107.367226,107.47286,80,80,0
107.57849,107.68719,82,95,0
107.57849,107.68719,70,80,0
107.57849,107.68719,74,80,0
107.57849,107.68719,80,80,0
107.79588,107.913994,84,95,0
107.79588,107.913994,72,80,0
107.79588,107.913994,75,80,0
107.79588,107.913994,80,80,0
108.032104,108.1424,75,80,0
108.032104,108.1424,87,95,0
108.032104,108.1424,84,80,0
108.032104,108.1424,80,80,0
108.47328,108.59139,82,95,0
108.47328,108.59139,79,80,0
108.47328,108.59139,75,80,0
108.7095,108.81979,75,80,0
108.7095,108.81979,79,80,0
108.7095,108.81979,87,95,0
109.19915,109.30944,72,47,0
109.19915,109.30944,68,40,0
109.19915,109.30944,63,40,0
109.49326,109.59601,63,40,0
109.49326,109.59601,72,40,0
109.49326,109.59601,75,47,0
110.08982,110.220634,70,47,0
110.08982,110.220634,67,40,0
110.08982,110.220634,63,40,0
110.43865,110.558334,63,40,0
110.43865,110.558334,67,40,0
110.43865,110.558334,75,47,0
111.07695,111.47021,75,49,0
111.07695,111.47021,63,41,0
111.47021,111.594734,63,36,0
111.47021,111.594734,75,44,0
111.60129,111.87848,75,46,0
111.60129,111.87848,63,39,0
111.87848,112.27013,80,49,0
111.87848,112.27013,68,41,0
112.27013,112.39414,68,36,0
112.27013,112.39414,80,44,0
112.40067,112.668434,80,48,0
112.40067,112.668434,68,40,0
112.668434,113.05683,79,49,0
112.668434,113.05683,67,41,0
113.05683,113.179825,67,36,0
113.05683,113.179825,79,44,0
113.1863,113.4736,79,48,0
113.1863,113.4736,67,40,0
113.4736,114.31545,85,49,0
113.4736,114.31545,73,41,0
114.31545,114.70386,84,49,0
114.31545,114.70386,72,41,0
114.70386,114.83332,72,36,0
114.70386,114.83332,84,44,0
114.83332,115.10108,80,48,0
114.83332,115.10108,68,40,0
115.10108,115.48475,77,49,0
115.10108,115.48475,65,41,0
115.48475,115.61263,65,36,0
115.48475,115.61263,77,44,0
115.61263,115.88152,82,48,0
115.61263,115.88152,70,40,0
115.88152,116.26519,79,49,0
115.88152,116.26519,67,41,0
116.26519,116.39308,67,36,0
116.26519,116.39308,79,44,0
116.39308,116.68038,82,48,0
116.39308,116.68038,70,40,0
116.68038,117.07901,75,49,0
116.68038,117.07901,63,41,0
117.07901,117.21522,84,47,0
117.21522,117.35142,85,47,0
117.35142,117.487625,86,47,0
117.487625,117.8776,87,54,0
117.487625,117.8776,75,45,0
117.8776,118.0011,75,40,0
117.8776,118.0011,87,47,0
118.0076,118.27765,87,51,0
118.0076,118.27765,75,43,0
118.27765,118.666046,92,54,0
118.27765,118.666046,80,45,0
118.666046,118.78904,80,40,0
118.666046,118.78904,92,47,0
118.79552,119.06328,92,53,0
118.79552,119.06328,80,44,0
119.06328,119.44694,91,54,0
119.06328,119.44694,79,45,0
119.44694,119.568436,79,40,0
119.44694,119.568436,91,47,0
119.57483,119.86213,91,53,0
119.57483,119.86213,79,44,0
119.86213,120.667854,97,54,0
119.86213,120.667854,85,45,0
120.667854,121.05152,96,54,0
120.667854,121.05152,84,45,0
121.05152,121.179405,84,40,0
121.05152,121.179405,96,47,0
121.179405,121.44717,92,53,0
121.179405,121.44717,80,44,0
121.44717,121.83083,89,54,0
121.44717,121.83083,77,45,0
121.83083,121.958725,77,40,0
121.83083,121.958725,89,47,0
121.958725,122.22761,94,53,0
121.958725,122.22761,82,44,0
122.22761,122.61759,91,54,0
122.22761,122.61759,79,45,0
122.61759,122.74759,79,40,0
122.61759,122.74759,91,47,0
122.74759,123.03489,94,53,0
122.74759,123.03489,82,44,0
123.03489,123.88408,92,54,0
123.03489,123.88408,80,45,0
123.88408,124.17138,79,89,0
123.88408,124.17138,73,75,0
123.88408,124.17138,67,75,0
123.88408,124.17138,70,75,0
123.88408,124.17138,75,75,0
124.74598,125.03328,80,91,0
124.74598,125.03328,68,77,0
124.74598,125.03328,72,77,0
124.74598,125.03328,75,77,0
125.60789,126.43214,68,45,0
126.43214,127.23881,68,45,0
127.23881,127.53284,67,46,0
127.53284,127.79393,70,42,0
127.79393,128.33403,68,45,0
128.33403,128.58159,68,42,0
128.60408,128.85164,68,43,0
128.87415,129.15504,67,46,0
129.15504,129.41292,70,42,0
129.41292,129.95303,68,45,0
129.95303,130.19743,68,43,0
130.21965,130.46405,68,43,0
130.48627,130.76717,67,47,0
130.76717,131.03378,70,44,0
131.03378,131.32507,68,44,0
131.32507,131.63051,67,49,0
131.63051,131.9077,70,44,0
131.9077,132.20592,68,44,0
132.20592,132.48808,67,48,0
132.48808,132.74701,70,45,0
132.74701,133.01706,68,45,0
133.01706,133.82677,73,48,0
133.82677,134.10893,67,48,0
134.10893,134.36787,70,45,0
134.36787,134.63792,68,45,0
134.63792,135.44763,73,48,0
135.44763,135.71312,74,48,0
135.71312,135.97205,77,45,0
135.97205,136.2421,75,45,0
136.2421,137.0518,68,48,0
137.0518,137.31729,74,48,0
137.31729,137.57623,77,45,0
137.57623,137.84628,75,45,0
137.84628,138.65599,68,48,0
138.65599,138.93317,68,51,0
138.93317,139.19756,78,55,0
139.19756,139.46997,77,53,0
139.46997,139.74002,75,59,0
139.74002,140.01007,73,56,0
140.01007,140.28012,65,43,0
140.01007,140.5561,72,51,0
140.5561,140.84082,70,45,0
140.84082,141.13486,75,45,0
140.28012,141.13486,61,40,0
141.13486,141.58423,68,48,0
141.13486,141.58423,60,40,0
141.58423,141.72845,68,43,0
141.72845,141.87338,70,43,0
141.87338,142.01831,68,43,0
142.01831,142.30048,67,48,0
142.30048,142.5594,70,45,0
142.5594,142.82945,68,45,0
142.82945,143.63916,73,48,0
143.63916,143.92134,67,48,0
143.92134,144.18027,70,45,0
144.18027,144.45032,68,45,0
144.45032,145.26003,73,48,0
145.26003,145.52551,74,48,0
145.52551,145.78444,77,45,0
145.78444,146.0545,75,45,0
146.0545,146.86421,68,48,0
146.86421,147.12968,74,48,0
147.12968,147.38863,77,45,0
147.38863,147.65868,75,45,0
147.65868,148.46838,68,48,0
148.46838,148.74557,68,51,0
148.74557,149.00996,78,55,0
149.00996,149.28236,77,53,0
149.28236,149.54898,75,59,0
149.54898,149.81903,73,56,0
149.81903,150.08908,72,51,0
149.81903,150.08908,66,43,0
150.08908,150.36508,70,51,0
150.36508,150.62834,75,55,0
150.62834,150.90076,73,53,0
150.90076,151.16965,72,52,0
151.16965,151.44322,70,49,0
150.08908,151.71678,65,40,0
151.44322,151.99521,68,45,0
151.99521,152.26526,67,45,0
152.26526,152.53648,72,45,0
151.71678,152.53648,64,42,0
152.53648,152.80653,68,45,0
152.80653,153.07776,67,45,0
153.07776,153.35374,73,45,0
152.53648,153.35374,60,42,0
153.35374,153.62497,68,45,0
153.62497,153.8962,67,45,0
153.8962,154.17462,72,45,0
153.35374,154.17462,64,42,0
154.17462,154.45303,65,45,0
157.05122,157.19106,66,50,0
157.19106,157.3309,68,55,0
157.3309,157.47073,66,51,0
157.47073,157.7504,65,61,0
157.7504,157.9077,72,55,0
157.05122,157.9077,63,42,0
157.05122,157.9077,60,42,0
160.36667,160.5065,67,50,0
160.5065,160.64633,68,55,0
160.64633,160.78618,67,51,0
160.36667,160.78618,61,42,0
160.78618,161.06584,68,61,0
161.06584,161.20567,75,55,0
160.78618,161.20567,60,42,0
163.89984,164.03905,69,38,0
164.03905,164.17825,70,41,0
164.17825,164.3246,69,38,0
163.89984,164.3246,60,31,0
164.3246,165.15793,70,46,0
164.3246,165.15793,61,31,0
165.5746,165.7138,69,38,0
165.7138,165.84834,70,41,0
165.84834,165.9912,69,38,0
165.5746,165.9912,60,31,0
165.9912,166.82452,70,46,0
165.9912,166.82452,61,31,0
167.24127,167.38048,69,38,0
167.38048,167.51685,70,41,0
167.48616,167.62971,69,38,0
167.24127,167.66248,60,31,0
167.66248,168.20811,61,31,0
168.20811,168.4994,62,48,0
167.66248,168.4994,70,46,0
168.4994,168.7803,73,53,0
168.7803,169.07027,71,47,0
168.4994,169.07027,63,45,0
169.07027,169.36023,61,40,0
169.07027,169.64113,70,48,0
169.64113,169.9311,68,42,0
169.36023,169.9311,60,41,0
169.9311,170.22107,70,42,0
169.9311,170.22107,61,36,0
170.22107,170.801,66,49,0
170.22107,170.801,58,41,0
170.801,171.09097,70,48,0
170.801,171.09097,61,40,0
171.09097,171.38226,64,45,0
171.38226,171.66316,67,49,0
171.66316,171.95181,66,50,0
171.95181,172.24048,64,44,0
171.09097,172.24048,73,53,0
172.24048,172.52391,63,37,0
172.24048,172.52391,71,44,0
172.52391,172.79749,61,37,0
172.52391,173.08351,70,44,0
173.08351,173.36568,68,44,0
172.79749,173.36568,60,40,0
173.36568,173.65697,61,37,0
173.36568,173.65697,70,44,0
173.65697,174.23955,66,49,0
174.23955,174.52171,70,49,0
173.65697,174.52171,58,41,0
174.52171,175.1043,68,49,0
175.1043,175.38774,70,47,0
174.52171,175.38774,59,41,0
175.38774,175.96767,66,46,0
175.96767,176.25238,70,45,0
175.38774,176.25238,58,39,0
176.25238,176.84044,68,44,0
176.84044,177.13448,70,42,0
176.25238,177.13448,59,37,0
177.13448,178.01657,66,40,0
178.01657,178.94922,65,40,0
178.94922,179.92218,64,38,0
177.13448,179.92218,58,37,0
179.92218,180.57083,63,37,0
180.57083,180.87083,68,35,0
180.87083,181.153,67,47,0
181.153,181.41849,70,44,0
181.41849,181.68854,68,44,0
181.68854,182.49825,73,47,0
182.49825,182.78041,67,47,0
182.78041,183.03935,70,44,0
183.03935,183.3094,68,44,0
183.3094,184.11911,73,47,0
184.11911,184.38916,74,47,0
184.38916,184.64809,77,44,0
184.64809,184.91814,75,44,0
184.91814,185.72784,68,47,0
185.72784,185.99333,74,47,0
185.99333,186.25227,77,44,0
186.25227,186.52232,75,44,0
186.52232,187.33203,68,47,0
187.33203,187.60922,68,49,0
187.60922,187.8736,78,53,0
187.8736,188.14601,77,51,0
188.14601,188.4232,73,49,0
188.4232,188.68758,82,53,0
188.68758,188.95999,80,51,0
188.95999,189.25128,75,49,0
188.95999,189.25128,66,41,0
189.25128,189.53094,78,53,0
189.25128,189.53094,70,45,0
189.53094,189.82916,77,51,0
189.53094,189.82916,68,43,0
189.82916,190.27647,73,49,0
190.27647,190.41933,80,49,0
190.41933,190.56784,82,49,0
190.56784,190.71635,80,49,0
190.71635,191.00482,79,47,0
190.71635,191.00482,67,39,0
191.00482,191.26375,82,44,0
191.00482,191.26375,70,37,0
191.26375,191.5338,80,44,0
191.26375,191.5338,68,37,0
191.5338,192.3435,85,47,0
191.5338,192.3435,73,39,0
192.3435,192.62569,79,47,0
192.3435,192.62569,67,39,0
192.62569,192.88461,82,44,0
192.62569,192.88461,70,37,0
192.88461,193.15466,80,44,0
192.88461,193.15466,68,37,0
193.15466,193.96437,85,47,0
193.15466,193.96437,73,39,0
193.96437,194.23442,86,47,0
193.96437,194.23442,74,39,0
194.23442,194.49336,89,44,0
194.23442,194.49336,77,37,0
194.49336,194.76341,87,44,0
194.49336,194.76341,75,37,0
194.76341,195.57312,80,47,0
194.76341,195.57312,68,39,0
195.57312,195.83861,86,47,0
195.57312,195.83861,74,39,0
195.83861,196.09753,89,44,0
195.83861,196.09753,77,37,0
196.09753,196.36758,87,44,0
196.09753,196.36758,75,37,0
196.36758,197.17729,80,47,0
196.36758,197.17729,68,39,0
197.17729,197.31589,80,49,0
197.17729,197.31589,68,41,0
197.45448,197.71887,90,53,0
197.45448,197.71887,78,45,0
197.71887,197.99127,89,51,0
197.71887,197.99127,77,43,0
197.99127,198.13829,85,49,0
197.99127,198.13829,73,41,0
198.28531,198.5613,94,53,0
198.28531,198.5613,82,45,0
198.5613,198.85258,92,51,0
198.5613,198.85258,80,43,0
198.85258,199.00989,87,49,0
198.85258,199.00989,75,41,0
199.16718,199.47263,90,53,0
199.16718,199.47263,78,45,0
199.47263,199.79863,89,51,0
199.47263,199.79863,77,43,0
199.79863,200.45067,85,49,0
199.79863,200.45067,73,41,0
200.77669,201.10515,73,49,0
201.10515,201.20917,73,45,0
201.21465,201.44902,73,49,0
201.44902,201.77748,73,49,0
201.77748,201.8815,73,43,0
201.88696,202.12134,73,49,0
202.12134,202.45345,76,52,0
202.12134,202.45345,73,44,0
202.45345,202.55861,76,49,0
202.45345,202.55861,73,41,0
202.56415,202.7967,76,53,0
202.56415,202.7967,73,45,0
202.7967,203.12517,76,52,0
202.7967,203.12517,73,44,0
203.12517,203.22919,76,47,0
203.12517,203.22919,73,39,0
203.23466,203.46996,76,53,0
203.23466,203.46996,73,45,0
203.46996,203.79605,76,54,0
203.46996,203.79605,73,45,0
203.79605,203.8993,76,49,0
203.79605,203.8993,73,41,0
203.90474,204.13911,76,54,0
203.90474,204.13911,73,45,0
204.13911,204.46878,76,53,0
204.13911,204.46878,73,45,0
204.46878,204.57318,76,49,0
204.46878,204.57318,73,41,0
204.57867,204.8149,76,54,0
204.57867,204.8149,73,45,0
204.8149,205.14098,75,70,0
204.8149,205.14098,73,59,0
205.14098,205.24425,75,61,0
205.14098,205.24425,73,51,0
205.24968,205.4859,75,72,0
205.24968,205.4859,73,61,0
205.4859,205.81436,75,89,0
205.4859,205.81436,73,75,0
205.81436,205.91838,75,81,0
205.81436,205.91838,73,69,0
205.92386,206.15732,75,83,0
205.92386,206.15732,73,77,0
206.15732,206.48459,75,89,0
206.15732,206.48459,72,75,0
206.15732,206.48459,63,75,0
206.48459,206.58823,75,85,0
206.48459,206.58823,72,72,0
206.48459,206.58823,63,72,0
206.59369,206.71272,63,75,0
206.59369,206.71272,75,89,0
206.59369,206.71272,72,75,0
206.83177,207.15904,63,75,0
206.83177,207.15904,75,89,0
206.83177,207.15904,72,75,0
207.15904,207.26268,72,72,0
207.15904,207.26268,63,72,0
207.15904,207.26268,75,85,0
207.26814,207.38672,72,75,0
207.26814,207.38672,63,75,0
207.26814,207.38672,75,89,0
207.5053,207.60875,75,80,0
207.5053,207.60875,71,68,0
207.5053,207.60875,63,68,0
207.60875,207.71219,72,73,0
207.71219,207.81895,68,73,0
207.81895,207.92572,63,73,0
207.92572,208.04199,60,80,0
208.15828,208.2628,63,84,0
208.2628,208.36732,68,74,0
208.36732,208.47409,72,74,0
208.47409,208.58086,75,74,0
208.58086,208.69943,80,79,0
208.81801,208.8813,69,65,0
208.81801,208.8813,81,77,0
209.07117,209.52745,82,86,0
209.07117,209.52745,70,73,0
209.52745,209.63126,62,85,0
209.63126,209.73506,63,70,0
209.73506,209.84183,58,75,0
209.84183,209.94858,55,70,0
209.94858,210.06763,51,76,0
210.18668,210.51395,63,75,0
210.18668,210.51395,73,75,0
210.18668,210.51395,75,89,0
210.51395,210.61758,75,85,0
210.51395,210.61758,73,72,0
210.51395,210.61758,63,72,0
210.62305,210.7421,75,89,0
210.62305,210.7421,73,75,0
210.62305,210.7421,63,75,0
210.86113,211.18842,75,89,0
210.86113,211.18842,73,75,0
210.86113,211.18842,63,75,0
211.18842,211.29204,75,85,0
211.18842,211.29204,73,72,0
211.18842,211.29204,63,72,0
211.2975,211.41608,75,89,0
211.2975,211.41608,73,75,0
211.2975,211.41608,63,75,0
211.53465,211.6381,75,80,0
211.53465,211.6381,72,68,0
211.53465,211.6381,63,68,0
211.6381,211.74155,73,73,0
211.74155,211.84831,70,73,0
211.84831,211.95508,67,73,0
211.95508,212.07135,63,80,0
212.18764,212.29216,67,84,0
212.29216,212.3967,70,74,0
212.3967,212.50345,73,74,0
212.50345,212.61021,75,74,0
212.61021,212.72879,79,79,0
212.84737,212.91066,71,65,0
212.84737,212.91066,83,77,0
213.10052,213.55681,84,86,0
213.10052,213.55681,72,73,0
213.55681,213.66061,67,85,0
213.66061,213.76442,68,70,0
213.76442,213.87119,63,75,0
213.87119,213.97794,60,70,0
213.97794,214.09698,56,76,0
214.21603,214.5433,63,75,0
214.21603,214.5433,71,75,0
214.21603,214.5433,75,89,0
214.5433,214.64694,75,85,0
214.5433,214.64694,71,72,0
214.5433,214.64694,63,72,0
214.6524,214.77145,75,89,0
214.6524,214.77145,71,75,0
214.6524,214.77145,63,75,0
214.8905,215.21777,76,89,0
214.8905,215.21777,71,75,0
214.8905,215.21777,64,75,0
214.8905,215.21777,74,75,0
215.21777,215.32141,76,85,0
215.21777,215.32141,71,72,0
215.21777,215.32141,64,72,0
215.21777,215.32141,74,72,0
215.32686,215.44543,76,89,0
215.32686,215.44543,71,75,0
215.32686,215.44543,64,75,0
215.32686,215.44543,74,75,0
215.56401,215.66747,76,80,0
215.56401,215.66747,71,68,0
215.56401,215.66747,64,68,0
215.66747,215.7709,72,73,0
215.7709,215.87544,69,73,0
215.87544,215.97997,64,73,0
215.97997,216.09361,60,80,0
216.20724,216.31105,69,84,0
216.31105,216.41444,72,74,0
216.41444,216.51747,76,76,0
216.51747,216.62009,81,77,0
216.62009,216.73868,84,83,0
216.85725,217.18452,64,75,0
216.85725,217.18452,72,75,0
216.85725,217.18452,76,89,0
217.18452,217.28816,76,85,0
217.18452,217.28816,72,72,0
217.18452,217.28816,64,72,0
217.29361,217.41266,76,89,0
217.29361,217.41266,72,75,0
217.29361,217.41266,64,75,0
217.53171,217.85898,77,89,0
217.53171,217.85898,72,75,0
217.53171,217.85898,65,75,0
217.53171,217.85898,75,75,0
217.85898,217.96262,77,85,0
217.85898,217.96262,72,72,0
217.85898,217.96262,65,72,0
217.85898,217.96262,75,72,0
217.96806,218.08665,77,89,0
217.96806,218.08665,72,75,0
217.96806,218.08665,65,75,0
217.96806,218.08665,75,75,0
218.20523,218.30867,77,80,0
218.20523,218.30867,72,68,0
218.20523,218.30867,65,68,0
218.30867,218.41212,73,73,0
218.41212,218.51628,70,73,0
218.51628,218.62045,65,73,0
218.62045,218.7381,61,80,0
218.85574,218.96028,70,84,0
218.96028,219.0645,73,75,0
219.0645,219.1683,77,76,0
219.1683,219.2717,82,78,0
219.2717,219.39027,85,85,0
219.50885,219.83612,66,75,0
219.50885,219.83612,76,75,0
219.50885,219.83612,78,89,0
219.50885,219.83612,73,75,0
219.83612,219.93976,78,85,0
219.83612,219.93976,76,72,0
219.83612,219.93976,66,72,0
219.83612,219.93976,73,72,0
219.94522,220.06427,78,89,0
219.94522,220.06427,76,75,0
219.94522,220.06427,66,75,0
219.94522,220.06427,73,75,0
220.18332,220.28676,78,80,0
220.18332,220.28676,73,68,0
220.18332,220.28676,66,68,0
220.28676,220.39021,74,73,0
220.39021,220.4951,71,73,0
220.4951,220.6,66,73,0
220.6,220.71628,62,80,0
220.83257,221.15984,67,75,0
220.83257,221.15984,77,75,0
220.83257,221.15984,79,89,0
220.83257,221.15984,74,75,0
221.15984,221.26347,79,85,0
221.15984,221.26347,77,72,0
221.15984,221.26347,67,72,0
221.15984,221.26347,74,72,0
221.26892,221.38797,79,89,0
221.26892,221.38797,77,75,0
221.26892,221.38797,67,75,0
221.26892,221.38797,74,75,0
221.50702,221.61046,79,80,0
221.50702,221.61046,74,68,0
221.50702,221.61046,67,68,0
221.61046,221.71391,75,73,0
221.71391,221.81918,72,73,0
221.81918,221.92444,67,73,0
221.92444,222.04073,63,80,0
222.157,222.26314,79,53,0
222.157,222.26314,72,45,0
222.26314,222.36778,84,55,0
222.36778,222.47183,79,56,0
222.36778,222.47183,72,47,0
222.47183,222.57547,84,58,0
222.57547,222.67856,79,59,0
222.57547,222.67856,72,50,0
222.67856,222.78111,84,60,0
222.78111,222.88351,79,61,0
222.78111,222.88351,72,51,0
222.88351,222.9859,84,63,0
222.9859,223.08829,79,64,0
222.9859,223.08829,72,54,0
223.08829,223.19067,84,65,0
223.19067,223.29306,79,66,0
223.19067,223.29306,72,56,0
223.29306,223.39545,84,67,0
223.39545,223.49867,78,69,0
223.39545,223.49867,72,58,0
223.49867,223.60333,84,71,0
223.60333,223.70738,78,72,0
223.60333,223.70738,72,61,0
223.70738,223.811,84,74,0
223.811,223.9141,78,76,0
223.811,223.9141,72,64,0
223.9141,224.01666,84,77,0
224.01666,224.11905,72,66,0
224.01666,224.11905,78,79,0
224.11905,224.22144,84,81,0
224.22144,224.32382,78,82,0
224.22144,224.32382,72,70,0
224.32382,224.42622,84,84,0
224.42622,224.52861,72,72,0
224.42622,224.52861,78,85,0
224.52861,224.631,84,87,0
224.631,224.85321,72,81,0
224.631,224.85321,84,95,0
224.631,224.85321,78,81,0
224.85321,224.96191,86,85,0
224.85321,224.96191,74,72,0
224.85321,224.96191,78,72,0
224.85321,224.96191,84,72,0
225.0706,225.17699,74,72,0
225.0706,225.17699,78,72,0
225.0706,225.17699,84,72,0
225.0706,225.17699,86,85,0
225.28337,225.39326,86,93,0
225.28337,225.39326,74,79,0
225.28337,225.39326,78,79,0
225.28337,225.39326,84,79,0
225.50316,225.60991,86,85,0
225.50316,225.60991,78,72,0
225.50316,225.60991,84,72,0
225.50316,225.60991,74,72,0
225.71667,225.82344,84,72,0
225.71667,225.82344,74,72,0
225.71667,225.82344,78,72,0
225.71667,225.82344,86,85,0
225.9302,226.15834,86,85,0
225.9302,226.15834,74,72,0
225.9302,226.15834,79,72,0
225.9302,226.15834,83,72,0
226.15834,226.2625,86,72,0
226.15834,226.2625,91,85,0
226.15834,226.2625,83,72,0
226.15834,226.2625,79,72,0
226.58173,226.80728,74,85,0
226.58173,226.80728,67,72,0
226.58173,226.80728,62,72,0
226.58173,226.80728,71,72,0
226.80728,226.91182,71,72,0
226.80728,226.91182,79,85,0
226.80728,226.91182,74,72,0
226.80728,226.91182,67,72,0
227.23064,227.45451,80,85,0
227.23064,227.45451,71,72,0
227.23064,227.45451,68,72,0
227.23064,227.45451,74,72,0
227.45451,227.55797,74,72,0
227.45451,227.55797,83,85,0
227.45451,227.55797,80,72,0
227.45451,227.55797,71,72,0
227.87418,228.09723,81,86,0
227.87418,228.09723,72,73,0
227.87418,228.09723,69,73,0
227.87418,228.09723,76,73,0
228.09723,228.20067,76,73,0
228.09723,228.20067,84,86,0
228.09723,228.20067,81,73,0
228.09723,228.20067,72,73,0
228.51689,228.73993,76,74,0
228.51689,228.73993,81,87,0
228.51689,228.73993,72,74,0
228.51689,228.73993,69,74,0
228.73993,228.84303,76,74,0
228.73993,228.84303,84,88,0
228.73993,228.84303,81,74,0
228.73993,228.84303,72,74,0
229.15814,229.38036,70,75,0
229.15814,229.38036,73,75,0
229.15814,229.38036,76,75,0
229.15814,229.38036,82,89,0
229.38036,229.48453,76,75,0
229.38036,229.48453,85,89,0
229.38036,229.48453,82,75,0
229.38036,229.48453,73,75,0
229.80145,230.0245,83,90,0
229.80145,230.0245,74,76,0
229.80145,230.0245,71,76,0
229.80145,230.0245,78,76,0
230.0245,230.12868,86,90,0
230.0245,230.12868,83,76,0
230.0245,230.12868,74,76,0
230.0245,230.12868,78,76,0
230.44485,230.66791,78,77,0
230.44485,230.66791,74,77,0
230.44485,230.66791,71,77,0
230.44485,230.66791,83,90,0
230.66791,230.77171,78,77,0
230.66791,230.77171,86,90,0
230.66791,230.77171,83,77,0
230.66791,230.77171,74,77,0
231.08678,231.30818,84,91,0
231.08678,231.30818,75,77,0
231.08678,231.30818,78,77,0
231.08678,231.30818,72,77,0
231.30818,231.41309,87,92,0
231.30818,231.41309,75,78,0
231.30818,231.41309,78,78,0
231.30818,231.41309,84,78,0
231.73149,231.95706,85,93,0
231.73149,231.95706,73,79,0
231.73149,231.95706,80,79,0
231.73149,231.95706,76,79,0
231.95706,232.06345,80,79,0
231.95706,232.06345,88,93,0
231.95706,232.06345,85,79,0
231.95706,232.06345,76,79,0
232.38565,232.61911,73,79,0
232.38565,232.61911,76,79,0
232.38565,232.61911,85,94,0
232.38565,232.61911,80,79,0
232.61911,232.72742,88,94,0
232.61911,232.72742,85,79,0
232.61911,232.72742,76,79,0
232.61911,232.72742,80,79,0
233.0555,233.29172,81,80,0
233.0555,233.29172,76,80,0
233.0555,233.29172,73,80,0
233.0555,233.29172,85,95,0
233.29172,233.40042,76,80,0
233.29172,233.40042,88,95,0
233.29172,233.40042,85,80,0
233.29172,233.40042,81,80,0
233.7289,233.98752,77,81,0
233.7289,233.98752,81,81,0
233.7289,233.98752,86,96,0
233.7289,233.98752,74,81,0
233.98752,234.11148,77,82,0
233.98752,234.11148,89,96,0
233.98752,234.11148,81,82,0
233.98752,234.11148,86,82,0
234.49632,234.57845,90,74,0
234.49632,234.57845,84,62,0
234.49632,234.57845,81,62,0
234.49632,234.57845,78,62,0
234.57845,234.65965,87,67,0
234.65965,234.74057,84,66,0
234.74057,234.82124,81,65,0
234.82124,234.90163,78,65,0
234.90163,234.9818,75,64,0
234.9818,235.06168,72,63,0
235.06168,235.14133,69,63,0
235.14133,235.22069,66,63,0
235.22069,235.29984,63,63,0
235.29984,235.3792,66,62,0
235.3792,235.45877,69,63,0
235.45877,235.53857,72,63,0
235.53857,235.61859,75,64,0
235.61859,235.69884,78,65,0
235.69884,235.7793,81,66,0
235.7793,235.85997,84,67,0
235.85997,235.95273,87,70,0
235.95273,236.03455,90,74,0
236.03455,236.11577,87,67,0
236.11577,236.19667,84,66,0
236.19667,236.27734,81,65,0
236.27734,236.35774,78,65,0
236.35774,236.4379,75,64,0
236.4379,236.51778,72,63,0
236.51778,236.59743,69,63,0
236.59743,236.67679,66,63,0
236.67679,236.75594,63,63,0
236.75594,236.8353,66,62,0
236.8353,236.91487,69,63,0
236.91487,236.99467,72,63,0
236.99467,237.07469,75,64,0
237.07469,237.15494,78,65,0
237.15494,237.2354,81,66,0
237.2354,237.31609,84,67,0
237.31609,237.43169,87,70,0
237.43169,237.51381,90,74,0
237.51381,237.59502,87,67,0
237.59502,237.67593,82,66,0
237.67593,237.7566,78,65,0
237.7566,237.83699,75,65,0
237.83699,237.91716,70,64,0
237.91716,237.99704,66,63,0
237.99704,238.07669,63,63,0
238.07669,238.15605,58,63,0
238.15605,238.2352,54,63,0
238.2352,238.31456,58,62,0
238.31456,238.39413,63,63,0
238.39413,238.47394,66,63,0
238.47394,238.55396,70,64,0
238.55396,238.6342,75,65,0
238.6342,238.71466,78,66,0
238.71466,238.79533,82,67,0
238.79533,238.89752,87,70,0
238.89752,238.97997,90,74,0
238.97997,239.06117,87,67,0
239.06117,239.14207,82,66,0
239.14207,239.22276,78,65,0
239.22276,239.30315,75,65,0
239.30315,239.38332,70,64,0
239.38332,239.4632,66,63,0
239.4632,239.54285,63,63,0
239.54285,239.62221,58,63,0
239.62221,239.70135,54,63,0
239.70135,239.78072,58,62,0
239.78072,239.86029,63,63,0
239.86029,239.9401,66,63,0
239.9401,240.02011,70,64,0
240.02011,240.10036,75,65,0
240.10036,240.18082,78,66,0
240.18082,240.26149,82,67,0
240.26149,240.38889,87,70,0
240.38889,240.47101,90,74,0
240.47101,240.55222,87,67,0
240.55222,240.63313,81,66,0
240.63313,240.7138,78,65,0
240.7138,240.79419,75,65,0
240.79419,240.87436,69,64,0
240.87436,240.95424,66,63,0
240.95424,241.03389,63,63,0
241.03389,241.11325,57,63,0
241.11325,241.1924,54,63,0
241.1924,241.27176,57,62,0
241.27176,241.35133,63,63,0
241.35133,241.43114,66,63,0
241.43114,241.51115,69,64,0
241.51115,241.5914,75,65,0
241.5914,241.67186,78,66,0
241.67186,241.75253,81,67,0
241.75253,241.8466,87,70,0
241.8466,241.92873,90,74,0
241.92873,242.00993,86,67,0
242.00993,242.09084,81,66,0
242.09084,242.17152,78,65,0
242.17152,242.2519,74,65,0
242.2519,242.33208,69,64,0
242.33208,242.41196,66,63,0
242.41196,242.49161,62,63,0
242.49161,242.57097,57,63,0
242.57097,242.65012,54,63,0
242.65012,242.72948,57,62,0
242.72948,242.80905,62,63,0
242.80905,242.88885,66,63,0
242.88885,242.96887,69,64,0
242.96887,243.04912,74,65,0
243.04912,243.12958,78,66,0
243.12958,243.21025,81,67,0
243.21025,243.30963,86,70,0
243.30963,243.39146,93,74,0
243.39146,243.47267,90,67,0
243.47267,243.55357,85,66,0
243.55357,243.63425,81,65,0
243.63425,243.71465,78,65,0
243.71465,243.7948,73,64,0
243.7948,243.87468,69,63,0
243.87468,243.95433,66,63,0
243.95433,244.03369,61,63,0
244.03369,244.11284,57,63,0
244.11284,244.1922,61,62,0
244.1922,244.27179,66,63,0
244.27179,244.35158,69,63,0
244.35158,244.4316,73,64,0
244.4316,244.51184,78,65,0
244.51184,244.5923,81,66,0
244.5923,244.67299,85,67,0
244.67299,244.77237,90,70,0
244.77237,244.85419,93,74,0
244.85419,244.9354,91,67,0
244.9354,245.0163,88,66,0
245.0163,245.09698,81,65,0
245.09698,245.17737,79,65,0
245.17737,245.25754,76,64,0
245.25754,245.3374,69,63,0
245.3374,245.41707,67,63,0
245.41707,245.49643,64,63,0
245.49643,245.57558,57,63,0
245.57558,245.65494,64,62,0
245.65494,245.73451,67,63,0
245.73451,245.81432,69,63,0
245.81432,245.89433,76,64,0
245.89433,245.97456,79,65,0
245.97456,246.05504,81,66,0
246.05504,246.13571,85,67,0
246.13571,246.28497,88,70,0
246.28497,246.36922,93,74,0
246.36922,246.45164,89,67,0
246.45164,246.53343,86,66,0
246.53343,246.61462,81,65,0
246.61462,246.69534,77,65,0
246.69534,246.77682,74,64,0
246.77682,246.85925,69,63,0
246.85925,246.9419,65,63,0
246.9419,247.07724,62,63,0
247.07724,247.16046,91,74,0
247.16046,247.2432,89,67,0
247.2432,247.32547,86,66,0
247.32547,247.40718,79,65,0
247.40718,247.48851,77,65,0
247.48851,247.57062,74,64,0
247.57062,247.65376,67,63,0
247.65376,247.73795,65,63,0
247.73795,247.8861,62,63,0
247.8861,247.96875,91,74,0
247.96875,248.05101,88,67,0
248.05101,248.13272,84,66,0
248.13272,248.21407,79,65,0
248.21407,248.29517,76,65,0
248.29517,248.37704,72,64,0
248.37704,248.45978,67,63,0
248.45978,248.5434,64,63,0
248.5434,248.68727,60,63,0
248.68727,248.77121,96,74,0
248.77121,248.85458,93,67,0
248.85458,248.93733,88,66,0
248.93733,249.01944,84,65,0
249.01944,249.10107,81,65,0
249.10107,249.18349,76,64,0
249.18349,249.26695,72,63,0
249.26695,249.35147,69,63,0
249.35147,249.53328,64,63,0
249.53328,249.61578,93,74,0
249.61578,249.69821,86,67,0
249.69821,249.78001,84,66,0
249.78001,249.86119,81,65,0
249.86119,249.94244,74,65,0
249.94244,250.02455,72,64,0
250.02455,250.10753,69,63,0
250.10753,250.19139,62,63,0
250.19139,250.33527,60,63,0
250.33527,250.41824,91,74,0
250.41824,250.50082,86,67,0
250.50082,250.58301,83,66,0
250.58301,250.66473,79,65,0
250.66473,250.74606,74,65,0
250.74606,250.82832,71,64,0
250.82832,250.91187,67,63,0
250.91187,250.99672,62,63,0
250.99672,251.13756,59,63,0
251.13756,251.46722,87,90,0
251.13756,251.46722,75,76,0
251.13756,251.46722,78,76,0
251.13756,251.46722,84,76,0
251.46722,251.57162,87,84,0
251.46722,251.57162,75,71,0
251.46722,251.57162,78,71,0
251.46722,251.57162,84,71,0
251.57712,251.82004,87,91,0
251.57712,251.82004,75,76,0
251.57712,251.82004,78,76,0
251.57712,251.82004,84,76,0
251.82004,252.1497,87,90,0
251.82004,252.1497,75,76,0
251.82004,252.1497,78,76,0
251.82004,252.1497,84,76,0
252.1497,252.2541,87,84,0
252.1497,252.2541,75,71,0
252.1497,252.2541,78,71,0
252.1497,252.2541,84,71,0
252.2596,252.5025,87,91,0
252.2596,252.5025,75,76,0
252.2596,252.5025,78,76,0
252.2596,252.5025,84,76,0
252.5025,252.83218,87,90,0
252.5025,252.83218,75,76,0
252.5025,252.83218,78,76,0
252.5025,252.83218,84,76,0
252.83218,252.93657,87,84,0
252.83218,252.93657,75,71,0
252.83218,252.93657,78,71,0
252.83218,252.93657,84,71,0
252.94206,253.18498,87,91,0
252.94206,253.18498,75,76,0
252.94206,253.18498,78,76,0
252.94206,253.18498,84,76,0
253.18498,253.51465,87,90,0
253.18498,253.51465,75,76,0
253.18498,253.51465,78,76,0
253.18498,253.51465,84,76,0
253.51465,253.61905,87,84,0
253.51465,253.61905,75,71,0
253.51465,253.61905,78,71,0
253.51465,253.61905,84,71,0
253.62454,253.86746,87,91,0
253.62454,253.86746,75,76,0
253.62454,253.86746,78,76,0
253.62454,253.86746,84,76,0
253.86746,254.07625,87,85,0
253.86746,254.07625,75,71,0
253.86746,254.07625,78,71,0
253.86746,254.07625,84,71,0
254.08723,254.29602,87,79,0
254.08723,254.29602,78,67,0
254.08723,254.29602,75,67,0
254.08723,254.29602,84,67,0
254.30702,254.52211,87,81,0
254.30702,254.52211,75,69,0
254.30702,254.52211,78,69,0
254.30702,254.52211,84,69,0
254.53343,254.74692,87,90,0
254.53343,254.74692,75,75,0
254.53343,254.74692,78,75,0
254.53343,254.74692,84,75,0
254.75815,254.97163,87,86,0
254.75815,254.97163,75,72,0
254.75815,254.97163,78,72,0
254.75815,254.97163,84,72,0
254.98286,255.20543,87,86,0
254.98286,255.20543,75,72,0
254.98286,255.20543,78,72,0
254.98286,255.20543,84,72,0
255.21703,255.43898,90,93,0
255.21703,255.43898,87,78,0
255.21703,255.43898,78,78,0
255.21703,255.43898,84,78,0
255.45079,255.6774,90,87,0
255.45079,255.6774,78,73,0
255.45079,255.6774,87,73,0
255.45079,255.6774,84,73,0
255.68945,255.92082,90,92,0
255.68945,255.92082,87,77,0
255.68945,255.92082,78,77,0
255.68945,255.92082,84,77,0
255.93312,256.16953,90,99,0
255.93312,256.16953,87,84,0
255.93312,256.16953,78,84,0
255.93312,256.16953,84,84,0
256.1821,256.42374,90,95,0
256.1821,256.42374,87,79,0
256.1821,256.42374,78,79,0
256.1821,256.42374,84,79,0
256.4366,256.71878,90,97,0
256.4366,256.71878,87,82,0
256.4366,256.71878,78,82,0
256.4366,256.71878,84,82,0
256.73364,256.98364,91,103,0
256.73364,256.98364,79,87,0
256.73364,256.98364,84,87,0
256.73364,256.98364,88,87,0
258.23364,258.48364,83,91,0
258.23364,258.48364,91,108,0
258.23364,258.48364,79,91,0
258.23364,258.48364,86,91,0
0.0,0.10309275,55,74,0
0.10309275,0.2061855,56,67,0
0.2061855,0.31332824,51,70,0
0.31332824,0.420471,48,67,0
0.420471,0.5419285,44,70,0
0.663386,0.76719224,55,73,0
0.76719224,0.8709985,56,67,0
0.8709985,0.97776,51,70,0
0.97776,1.0845215,48,67,0
1.0845215,1.203569,44,70,0
1.3226165,1.6498895,56,72,0
1.3226165,1.6498895,51,61,0
1.3226165,1.6498895,44,61,0
1.6498895,1.753526,56,67,0
1.6498895,1.753526,51,56,0
1.6498895,1.753526,44,56,0
1.7589805,1.878028,56,73,0
1.7589805,1.878028,51,62,0
1.7589805,1.878028,44,62,0
1.9970756,2.3243484,56,72,0
1.9970756,2.3243484,51,61,0
1.9970756,2.3243484,44,61,0
2.3243484,2.427985,56,67,0
2.3243484,2.427985,51,56,0
2.3243484,2.427985,44,56,0
2.4334395,2.5520165,56,73,0
2.4334395,2.5520165,51,62,0
2.4334395,2.5520165,44,62,0
2.6705935,2.87749,56,74,0
2.6705935,2.87749,51,62,0
2.6705935,2.87749,44,62,0
3.983307,4.046598,55,62,0
3.983307,4.046598,61,62,0
3.983307,4.046598,63,74,0
4.2364717,4.6927457,55,62,0
4.2364717,4.6927457,61,62,0
4.2364717,4.6927457,63,74,0
4.6927457,4.7965517,50,73,0
4.7965517,4.900358,51,67,0
4.900358,5.0071197,46,70,0
5.0071197,5.113881,43,67,0
5.113881,5.2329283,39,70,0
5.351976,5.679249,58,72,0
5.351976,5.679249,51,61,0
5.351976,5.679249,46,61,0
5.679249,5.7828856,58,67,0
5.679249,5.7828856,51,56,0
5.679249,5.7828856,46,56,0
5.78834,5.9073877,58,73,0
5.78834,5.9073877,51,62,0
5.78834,5.9073877,46,62,0
6.026435,6.353708,58,72,0
6.026435,6.353708,51,61,0
6.026435,6.353708,46,61,0
6.353708,6.4573445,58,67,0
6.353708,6.4573445,51,56,0
6.353708,6.4573445,46,56,0
6.462799,6.581376,58,73,0
6.462799,6.581376,51,62,0
6.462799,6.581376,46,62,0
6.699953,6.9068494,58,74,0
6.699953,6.9068494,51,62,0
6.699953,6.9068494,46,62,0
8.012667,8.075957,56,62,0
8.012667,8.075957,63,62,0
8.012667,8.075957,67,74,0
8.265831,8.722105,56,62,0
8.265831,8.722105,63,62,0
8.265831,8.722105,68,74,0
8.722105,8.8259115,55,73,0
8.8259115,8.929717,56,67,0
8.929717,9.036479,51,70,0
9.036479,9.143241,48,67,0
9.143241,9.262288,44,70,0
9.381335,9.490426,44,73,0
9.490426,9.599518,45,71,0
9.599518,9.708609,46,75,0
9.708609,9.817699,47,79,0
9.817699,9.936747,48,83,0
10.055795,10.159601,49,73,0
10.159601,10.263407,61,67,0
10.263407,10.370169,56,70,0
10.370169,10.47693,53,67,0
10.47693,10.595978,49,70,0
10.715025,10.824116,41,73,0
10.824116,10.933207,42,71,0
10.933207,11.042298,43,74,0
11.042298,11.151389,44,77,0
11.151389,11.270436,45,80,0
11.389484,11.49329,46,73,0
11.49329,11.597096,58,67,0
11.597096,11.703858,53,70,0
11.703858,11.810619,49,67,0
11.810619,11.93667,46,70,0
12.06272,12.483856,55,45,0
12.06272,12.483856,43,37,0
12.483856,12.602903,55,31,0
12.483856,12.602903,64,37,0
12.483856,12.602903,61,31,0
12.483856,12.602903,58,31,0
12.721951,13.143086,56,45,0
12.721951,13.143086,44,37,0
13.143086,13.262134,56,31,0
13.143086,13.262134,60,31,0
13.143086,13.262134,63,37,0
13.381182,13.802317,46,49,0
13.381182,13.802317,34,41,0
13.802317,13.921365,46,34,0
13.802317,13.921365,49,34,0
13.802317,13.921365,55,41,0
14.040412,14.461548,47,54,0
14.040412,14.461548,35,45,0
14.461548,14.580595,47,37,0
14.461548,14.580595,51,37,0
14.461548,14.580595,56,45,0
14.699642,14.810344,40,32,0
14.810344,14.920637,52,38,0
14.920637,15.03046,40,40,0
15.03046,15.139883,52,41,0
15.139883,15.248842,40,43,0
15.248842,15.357408,52,45,0
15.357408,15.465516,40,47,0
15.465516,15.573236,52,48,0
15.573236,15.680508,40,50,0
15.680508,15.7873955,52,52,0
15.7873955,15.893842,40,54,0
15.893842,15.999787,52,55,0
15.999787,16.104929,41,57,0
16.104929,16.20958,42,59,0
16.20958,16.313625,43,61,0
16.313625,16.417253,44,62,0
16.417253,16.520346,45,64,0
16.520346,16.622911,46,66,0
16.622911,16.7253,47,68,0
16.7253,16.827688,48,70,0
16.827688,16.930079,49,71,0
16.930079,17.032467,50,73,0
17.032467,17.134855,51,75,0
17.134855,17.237246,52,77,0
17.237246,17.459467,64,85,0
17.237246,17.459467,52,72,0
17.459467,17.565474,64,77,0
17.459467,17.565474,52,65,0
17.67148,17.780176,64,77,0
17.67148,17.780176,52,65,0
17.888872,17.997568,64,85,0
17.888872,17.997568,52,72,0
18.106264,18.211897,64,77,0
18.106264,18.211897,52,65,0
18.317532,18.425835,64,77,0
18.317532,18.425835,52,65,0
18.534138,18.770359,63,87,0
18.534138,18.770359,51,73,0
18.770359,18.881882,51,77,0
18.770359,18.881882,39,65,0
19.216455,19.339912,51,68,0
19.216455,19.339912,39,57,0
19.46337,19.573664,39,61,0
19.46337,19.573664,27,52,0
20.01729,20.344563,56,43,0
20.01729,20.344563,51,36,0
20.01729,20.344563,44,36,0
20.344563,20.4482,56,40,0
20.344563,20.4482,51,33,0
20.344563,20.4482,44,33,0
20.453655,20.572702,56,43,0
20.453655,20.572702,51,37,0
20.453655,20.572702,44,37,0
20.69175,21.019022,56,43,0
20.69175,21.019022,51,36,0
20.69175,21.019022,44,36,0
21.019022,21.12266,56,40,0
21.019022,21.12266,51,33,0
21.019022,21.12266,44,33,0
21.128113,21.24669,56,43,0
21.128113,21.24669,51,37,0
21.128113,21.24669,44,37,0
21.365267,21.572165,56,44,0
21.365267,21.572165,51,37,0
21.365267,21.572165,44,37,0
22.67798,22.741272,55,37,0
22.67798,22.741272,61,37,0
22.67798,22.741272,63,44,0
22.931145,23.387419,55,37,0
22.931145,23.387419,61,37,0
22.931145,23.387419,63,44,0
23.387419,23.491226,50,43,0
23.491226,23.595032,51,40,0
23.595032,23.701794,46,42,0
23.701794,23.808556,43,40,0
23.808556,23.927603,39,42,0
24.04665,24.373922,58,43,0
24.04665,24.373922,51,36,0
24.04665,24.373922,46,36,0
24.373922,24.47756,58,40,0
24.373922,24.47756,51,33,0
24.373922,24.47756,46,33,0
24.483013,24.602062,58,43,0
24.483013,24.602062,51,37,0
24.483013,24.602062,46,37,0
24.72111,25.048382,58,43,0
24.72111,25.048382,51,36,0
24.72111,25.048382,46,36,0
25.048382,25.152018,58,40,0
25.048382,25.152018,51,33,0
25.048382,25.152018,46,33,0
25.157473,25.27605,58,43,0
25.157473,25.27605,51,37,0
25.157473,25.27605,46,37,0
25.394627,25.601522,58,44,0
25.394627,25.601522,51,37,0
25.394627,25.601522,46,37,0
26.70734,26.770632,56,37,0
26.70734,26.770632,63,37,0
26.70734,26.770632,67,44,0
26.960505,27.416779,56,37,0
26.960505,27.416779,63,37,0
26.960505,27.416779,68,44,0
27.416779,27.520584,55,43,0
27.520584,27.624392,56,40,0
27.624392,27.731153,51,42,0
27.731153,27.837914,48,40,0
27.837914,27.956963,44,42,0
28.07601,28.404476,63,43,0
28.07601,28.404476,56,36,0
28.07601,28.404476,54,36,0
28.404476,28.513966,63,35,0
28.404476,28.513966,56,29,0
28.404476,28.513966,54,29,0
28.513966,28.652855,63,38,0
28.513966,28.652855,56,32,0
28.513966,28.652855,54,32,0
28.791744,29.042807,61,39,0
28.791744,29.042807,56,33,0
28.791744,29.042807,53,33,0
29.042807,29.569122,61,39,0
29.042807,29.569122,53,33,0
29.042807,29.569122,49,33,0
29.569122,29.927689,60,43,0
29.569122,29.927689,53,36,0
29.569122,29.927689,51,36,0
29.927689,30.04721,60,35,0
29.927689,30.04721,53,29,0
29.927689,30.04721,51,29,0
30.04721,30.18546,60,38,0
30.04721,30.18546,53,32,0
30.04721,30.18546,51,32,0
30.323708,30.574772,58,39,0
30.323708,30.574772,53,33,0
30.323708,30.574772,49,33,0
30.574772,31.101088,58,39,0
30.574772,31.101088,49,33,0
30.574772,31.101088,46,33,0
31.101088,31.32249,51,42,0
31.32249,31.430017,62,51,0
31.430017,31.537544,63,43,0
31.537544,31.656591,70,51,0
31.32249,31.775639,55,43,0
31.775639,31.994617,51,44,0
31.994617,32.10138,62,54,0
32.10138,32.20814,63,46,0
32.20814,32.326717,68,56,0
31.994617,32.445293,56,46,0
32.445293,32.6619,51,48,0
32.6619,32.767532,62,57,0
32.767532,32.87317,63,49,0
32.87317,32.98945,70,59,0
32.6619,33.105724,55,48,0
33.105724,33.321552,51,51,0
33.321552,33.42719,62,61,0
33.42719,33.53282,63,52,0
33.53282,33.648205,68,63,0
33.321552,33.763588,56,51,0
33.763588,34.094406,64,59,0
33.763588,34.094406,52,50,0
34.094406,34.198376,52,54,0
34.094406,34.198376,40,45,0
34.20383,34.31279,52,54,0
34.20383,34.31279,40,45,0
34.421356,34.529465,52,60,0
34.421356,34.529465,40,51,0
34.637184,34.744453,52,55,0
34.637184,34.744453,40,46,0
34.85134,34.95779,52,55,0
34.85134,34.95779,40,46,0
35.063736,35.168877,41,57,0
35.168877,35.273525,42,59,0
35.273525,35.377575,43,61,0
35.377575,35.4812,44,62,0
35.4812,35.584293,45,64,0
35.584293,35.68686,46,66,0
35.68686,35.789246,47,68,0
35.789246,35.891636,48,70,0
35.891636,35.994026,49,71,0
35.994026,36.096413,50,73,0
36.096413,36.198803,51,75,0
36.198803,36.301193,52,77,0
36.301193,36.523415,52,85,0
36.301193,36.523415,40,72,0
36.523415,36.628677,64,77,0
36.523415,36.628677,52,65,0
36.73394,36.842636,52,65,0
36.73394,36.842636,64,77,0
36.951332,37.060028,64,85,0
36.951332,37.060028,52,72,0
37.168724,37.27511,64,77,0
37.168724,37.27511,52,65,0
37.38149,37.48979,64,77,0
37.38149,37.48979,52,65,0
37.598095,37.716206,63,87,0
37.598095,37.716206,51,73,0
37.834316,37.94461,39,65,0
37.834316,37.94461,51,77,0
38.275494,38.393604,39,57,0
38.275494,38.393604,51,68,0
38.511715,38.622005,27,52,0
38.511715,38.622005,39,61,0
39.065636,39.392906,49,86,0
39.065636,39.392906,37,73,0
39.392906,39.502,49,80,0
39.392906,39.502,37,68,0
39.502,39.740093,49,87,0
39.502,39.740093,37,73,0
39.740093,40.067368,49,86,0
39.740093,40.067368,37,73,0
40.067368,40.176456,49,80,0
40.067368,40.176456,37,68,0
40.176456,40.41172,49,87,0
40.176456,40.41172,37,73,0
40.41172,41.405666,49,86,0
40.41172,41.405666,37,73,0
41.405666,41.510628,49,80,0
41.405666,41.510628,37,68,0
41.516163,41.738594,49,87,0
41.516163,41.738594,37,73,0
41.738594,42.73342,49,86,0
41.738594,42.73342,37,73,0
42.73342,42.838837,49,80,0
42.73342,42.838837,37,68,0
42.844395,43.068275,49,87,0
42.844395,43.068275,37,73,0
43.068275,43.39555,49,64,0
43.068275,43.39555,37,54,0
43.39555,43.499187,49,60,0
43.39555,43.499187,37,50,0
43.504642,43.623688,49,65,0
43.504642,43.623688,37,55,0
43.742737,44.070007,49,64,0
43.742737,44.070007,37,54,0
44.070007,44.173645,49,60,0
44.070007,44.173645,37,50,0
44.1791,44.298145,49,65,0
44.1791,44.298145,37,55,0
44.417194,44.74447,49,64,0
44.417194,44.74447,37,54,0
44.74447,44.848103,49,60,0
44.74447,44.848103,37,50,0
44.853558,44.972607,49,65,0
44.853558,44.972607,37,55,0
45.091652,45.418926,49,64,0
45.091652,45.418926,37,54,0
45.418926,45.522564,49,60,0
45.418926,45.522564,37,50,0
45.52802,45.647064,49,65,0
45.52802,45.647064,37,55,0
45.766113,46.093384,61,64,0
45.766113,46.093384,49,54,0
46.093384,46.19702,61,60,0
46.093384,46.19702,49,50,0
46.202477,46.321526,61,65,0
46.202477,46.321526,49,55,0
46.44057,46.767845,63,64,0
46.44057,46.767845,51,54,0
46.767845,46.871483,63,64,0
46.767845,46.871483,51,53,0
46.876934,46.995983,63,71,0
46.876934,46.995983,51,60,0
47.115032,47.442303,66,73,0
47.115032,47.442303,54,62,0
47.442303,47.54594,66,64,0
47.442303,47.54594,54,54,0
47.551395,47.67044,66,68,0
47.551395,47.67044,54,57,0
47.78949,48.116764,54,64,0
47.78949,48.116764,42,54,0
48.116764,48.220398,54,60,0
48.116764,48.220398,42,50,0
48.225853,48.344902,54,65,0
48.225853,48.344902,42,55,0
48.463947,48.79122,47,86,0
48.463947,48.79122,35,73,0
48.79122,48.89486,47,80,0
48.79122,48.89486,35,68,0
48.900314,49.13841,47,87,0
48.900314,49.13841,35,73,0
49.13841,49.46568,47,86,0
49.13841,49.46568,35,73,0
49.46568,49.569317,47,80,0
49.46568,49.569317,35,68,0
49.57477,49.81003,47,87,0
49.57477,49.81003,35,73,0
49.81003,50.803978,47,86,0
49.81003,50.803978,35,73,0
50.803978,50.908943,47,80,0
50.803978,50.908943,35,68,0
50.91448,51.136906,47,87,0
50.91448,51.136906,35,73,0
51.136906,52.13256,47,86,0
51.136906,52.13256,35,73,0
52.13256,52.24067,47,80,0
52.13256,52.24067,35,68,0
52.246414,52.49239,47,87,0
52.246414,52.49239,35,73,0
52.49239,52.675316,47,49,0
52.736294,53.237705,54,32,0
52.736294,53.237705,59,32,0
52.736294,53.237705,63,38,0
53.237705,53.42063,51,49,0
53.48161,53.98083,59,30,0
53.48161,53.98083,63,30,0
53.48161,53.98083,66,36,0
53.98083,54.163757,49,49,0
54.22473,54.75849,58,30,0
54.22473,54.75849,64,30,0
54.22473,54.75849,66,36,0
54.75849,54.988083,42,49,0
55.064613,55.570942,58,30,0
55.064613,55.570942,61,30,0
55.064613,55.570942,66,36,0
55.570942,55.75387,47,49,0
55.814842,56.314064,59,30,0
55.814842,56.314064,63,30,0
55.814842,56.314064,66,36,0
56.314064,56.496994,40,49,0
56.55797,57.05828,56,30,0
56.55797,57.05828,61,30,0
56.55797,57.05828,64,36,0
57.05828,57.241207,42,49,0
57.302185,57.820057,54,30,0
57.302185,57.820057,58,30,0
57.302185,57.820057,64,36,0
57.820057,58.002987,46,49,0
58.06396,58.609753,54,30,0
58.06396,58.609753,61,30,0
58.06396,58.609753,64,36,0
58.609753,58.671734,47,45,0
58.73372,58.857685,54,35,0
58.857685,58.98165,59,35,0
58.98165,59.10562,63,35,0
59.10562,59.234375,59,35,0
59.234375,59.36313,54,35,0
59.36313,59.42486,51,45,0
59.486588,59.610043,59,35,0
59.610043,59.7335,63,35,0
59.7335,59.856956,66,35,0
59.856956,59.984615,63,35,0
59.984615,60.112274,59,35,0
60.112274,60.173252,49,50,0
60.234226,60.35618,58,35,0
60.35618,60.47813,64,35,0
60.47813,60.600082,66,35,0
60.600082,60.73707,64,35,0
60.73707,60.874054,58,35,0
60.874054,60.939556,42,47,0
61.00506,61.136063,58,35,0
61.136063,61.262646,61,35,0
61.262646,61.389225,66,35,0
61.389225,61.51581,61,35,0
61.51581,61.64239,58,35,0
61.64239,61.703365,47,46,0
61.764343,61.886295,59,35,0
61.886295,62.008244,63,35,0
62.008244,62.130196,66,35,0
62.130196,62.257854,63,35,0
62.257854,62.385513,59,35,0
62.385513,62.44649,40,49,0
62.507465,62.629417,56,35,0
62.629417,62.75137,61,35,0
62.75137,62.87332,64,35,0
62.87332,63.001526,61,35,0
63.001526,63.12973,56,35,0
63.12973,63.191715,42,52,0
63.253696,63.377663,54,35,0
63.377663,63.501633,58,35,0
63.501633,63.6256,64,35,0
63.6256,63.762585,58,35,0
63.762585,63.89957,54,35,0
63.89957,63.962597,47,49,0
64.02562,64.15167,54,35,0
64.15167,64.277725,59,35,0
64.277725,64.40377,63,35,0
64.40377,64.54076,59,35,0
64.54076,64.67774,54,35,0
64.67774,65.03348,47,88,0
64.67774,65.03348,35,74,0
65.03348,65.146126,35,65,0
65.03348,65.146126,47,77,0
65.152054,65.27551,47,84,0
65.152054,65.27551,35,71,0
65.398964,65.74916,50,89,0
65.398964,65.74916,38,75,0
65.74916,65.860054,38,65,0
65.74916,65.860054,50,77,0
65.86589,65.99355,50,80,0
65.86589,65.99355,38,68,0
66.121216,66.479774,51,85,0
66.121216,66.479774,39,72,0
66.479774,66.5993,39,69,0
66.479774,66.5993,51,81,0
66.5993,66.73629,54,83,0
66.5993,66.73629,42,70,0
66.873276,67.61212,58,89,0
66.873276,67.61212,46,75,0
67.61212,67.96786,49,88,0
67.61212,67.96786,37,74,0
67.96786,68.080505,37,65,0
67.96786,68.080505,49,77,0
68.08643,68.209885,49,84,0
68.08643,68.209885,37,71,0
68.33334,68.68354,52,89,0
68.33334,68.68354,40,75,0
68.68354,68.79443,40,65,0
68.68354,68.79443,52,77,0
68.80027,68.92793,52,80,0
68.80027,68.92793,40,68,0
69.05559,69.414154,53,85,0
69.05559,69.414154,41,72,0
69.414154,69.533676,41,69,0
69.414154,69.533676,53,81,0
69.533676,69.67066,56,83,0
69.533676,69.67066,44,70,0
69.80765,70.5465,60,89,0
69.80765,70.5465,48,75,0
70.5465,70.90223,51,92,0
70.5465,70.90223,39,77,0
70.90223,71.01488,39,68,0
70.90223,71.01488,51,80,0
71.02081,71.144264,51,89,0
71.02081,71.144264,39,75,0
71.26772,71.61792,55,94,0
71.26772,71.61792,43,79,0
71.61792,71.72881,43,69,0
71.61792,71.72881,55,82,0
71.73465,71.86231,55,85,0
71.73465,71.86231,43,72,0
71.98997,72.34853,56,91,0
71.98997,72.34853,44,77,0
72.34853,72.468056,44,75,0
72.34853,72.468056,56,88,0
72.468056,72.60504,59,90,0
72.468056,72.60504,47,76,0
72.74203,73.47395,63,93,0
72.74203,73.47395,51,78,0
73.47395,73.793106,61,81,0
73.47395,73.793106,49,68,0
73.793106,73.89417,61,73,0
73.793106,73.89417,49,62,0
73.89949,74.13758,61,82,0
73.89949,74.13758,49,69,0
74.13758,74.45448,61,86,0
74.13758,74.45448,49,62,0
74.45448,74.55484,61,72,0
74.45448,74.55484,49,61,0
74.56012,74.79821,61,79,0
74.56012,74.79821,49,67,0
74.79821,75.137665,61,89,0
74.79821,75.137665,49,89,0
75.137665,75.24823,49,78,0
75.137665,75.24823,37,78,0
75.24823,76.12955,49,86,0
75.24823,76.12955,37,86,0
76.12955,76.44983,62,81,0
76.12955,76.44983,50,68,0
76.44983,76.551254,62,73,0
76.44983,76.551254,50,62,0
76.556595,76.794685,62,82,0
76.556595,76.794685,50,69,0
76.794685,77.11271,62,86,0
76.794685,77.11271,50,62,0
77.11271,77.21342,62,72,0
77.11271,77.21342,50,61,0
77.21871,77.45681,62,79,0
77.21871,77.45681,50,67,0
77.45681,77.796265,62,89,0
77.45681,77.796265,50,89,0
77.796265,77.90683,50,78,0
77.796265,77.90683,38,78,0
77.90683,78.78814,50,86,0
77.90683,78.78814,38,86,0
78.78814,79.10729,64,81,0
78.78814,79.10729,52,68,0
79.10729,79.20835,64,73,0
79.10729,79.20835,52,62,0
79.21368,79.45177,64,82,0
79.21368,79.45177,52,69,0
79.45177,79.76867,64,86,0
79.45177,79.76867,52,62,0
79.76867,79.86902,64,72,0
79.76867,79.86902,52,61,0
79.874306,80.1124,64,79,0
79.874306,80.1124,52,67,0
80.1124,80.45185,64,89,0
80.1124,80.45185,52,89,0
80.45185,80.562416,52,78,0
80.45185,80.562416,40,78,0
80.562416,81.4624,52,86,0
80.562416,81.4624,40,86,0
81.4624,81.780426,63,81,0
81.4624,81.780426,58,68,0
81.4624,81.780426,51,68,0
81.4624,81.780426,55,68,0
81.780426,81.881134,63,73,0
81.88643,82.00548,63,82,0
82.12453,82.44143,63,81,0
82.12453,82.44143,59,68,0
82.12453,82.44143,51,68,0
82.12453,82.44143,56,68,0
82.44143,82.54178,63,73,0
82.54706,82.66611,63,82,0
82.78516,83.10318,63,81,0
82.78516,83.10318,58,68,0
82.78516,83.10318,51,68,0
82.78516,83.10318,55,68,0
83.10318,83.20388,63,73,0
83.20918,83.32823,63,82,0
83.44728,83.76196,63,81,0
83.44728,83.76196,59,68,0
83.44728,83.76196,51,68,0
83.44728,83.76196,56,68,0
83.76196,83.86162,63,73,0
83.86686,83.98591,63,82,0
84.10496,84.44203,51,46,0
84.10496,84.44203,39,34,0
84.44203,84.548775,51,43,0
84.55439,84.685974,51,48,0
84.81755,85.15975,51,46,0
84.81755,85.15975,39,34,0
85.15975,85.26812,51,41,0
85.27383,85.40258,51,47,0
85.531334,85.87749,51,46,0
85.531334,85.87749,39,34,0
85.87749,85.98711,51,43,0
85.992874,86.12445,51,48,0
86.25603,86.60897,51,46,0
86.25603,86.60897,39,34,0
86.60897,86.72073,51,41,0
86.726616,86.874405,51,47,0
87.02219,87.277504,39,32,0
87.843704,88.12148,39,30,0
88.71176,89.00302,39,27,0
89.63327,89.940956,39,25,0
90.61229,90.93956,56,34,0
90.61229,90.93956,51,28,0
90.61229,90.93956,44,28,0
90.93956,91.0432,56,32,0
90.93956,91.0432,51,26,0
90.93956,91.0432,44,26,0
91.04865,91.1677,56,34,0
91.04865,91.1677,51,29,0
91.04865,91.1677,44,29,0
91.28675,91.61402,56,34,0
91.28675,91.61402,51,28,0
91.28675,91.61402,44,28,0
91.61402,91.71766,56,32,0
91.61402,91.71766,51,26,0
91.61402,91.71766,44,26,0
91.723114,91.84169,56,34,0
91.723114,91.84169,51,29,0
91.723114,91.84169,44,29,0
91.960266,92.16716,56,39,0
91.960266,92.16716,51,33,0
91.960266,92.16716,44,33,0
93.27298,93.33627,55,37,0
93.27298,93.33627,61,37,0
93.27298,93.33627,63,44,0
93.526146,93.982414,55,37,0
93.526146,93.982414,61,37,0
93.526146,93.982414,63,44,0
93.982414,94.08446,50,43,0
94.08446,94.1865,51,40,0
94.1865,94.29326,46,42,0
94.29326,94.400024,43,40,0
94.400024,94.519066,39,42,0
94.638115,94.96539,58,43,0
94.638115,94.96539,51,36,0
94.638115,94.96539,46,36,0
94.96539,95.06902,58,40,0
94.96539,95.06902,51,33,0
94.96539,95.06902,46,33,0
95.07448,95.19353,58,43,0
95.07448,95.19353,51,37,0
95.07448,95.19353,46,37,0
95.31258,95.63985,58,43,0
95.31258,95.63985,51,36,0
95.31258,95.63985,46,36,0
95.63985,95.743484,58,40,0
95.63985,95.743484,51,33,0
95.63985,95.743484,46,33,0
95.74894,95.867516,58,43,0
95.74894,95.867516,51,37,0
95.74894,95.867516,46,37,0
95.98609,96.19299,58,44,0
95.98609,96.19299,51,37,0
95.98609,96.19299,46,37,0
97.298805,97.3621,56,37,0
97.298805,97.3621,63,37,0
97.298805,97.3621,67,44,0
97.55197,98.00825,56,37,0
97.55197,98.00825,63,37,0
97.55197,98.00825,68,44,0
98.00825,98.1096,55,43,0
98.1096,98.210945,56,40,0
98.210945,98.31771,51,42,0
98.31771,98.42447,48,40,0
98.42447,98.54352,44,42,0
98.66257,98.77166,44,73,0
98.77166,98.880745,45,68,0
98.880745,98.98984,46,72,0
98.98984,99.09893,47,76,0
99.09893,99.21798,48,80,0
99.33703,99.440834,49,73,0
99.440834,99.54464,61,67,0
99.54464,99.6514,56,70,0
99.6514,99.75816,53,67,0
99.75816,99.877205,49,70,0
99.996254,100.10535,41,73,0
100.10535,100.21444,42,70,0
100.21444,100.32353,43,74,0
100.32353,100.43262,44,77,0
100.43262,100.55167,45,81,0
100.670715,100.77452,46,73,0
100.77452,100.87833,58,67,0
100.87833,100.98509,53,70,0
100.98509,101.09185,49,67,0
101.09185,101.2179,46,70,0
101.34395,101.76509,55,45,0
101.34395,101.76509,43,37,0
101.76509,101.88413,55,31,0
101.76509,101.88413,64,37,0
101.76509,101.88413,61,31,0
101.76509,101.88413,58,31,0
102.00318,102.42432,56,49,0
102.00318,102.42432,44,40,0
102.42432,102.543365,56,34,0
102.42432,102.543365,60,34,0
102.42432,102.543365,63,40,0
102.662415,103.08071,46,58,0
102.662415,103.08071,34,49,0
103.08071,103.193924,46,40,0
103.08071,103.193924,49,40,0
103.08071,103.193924,55,49,0
103.30713,103.72473,47,64,0
103.30713,103.72473,35,54,0
103.72473,103.84378,47,44,0
103.72473,103.84378,51,44,0
103.72473,103.84378,56,54,0
103.96283,104.29365,52,70,0
103.96283,104.29365,40,60,0
104.29365,104.39761,40,64,0
104.29365,104.39761,28,54,0
104.40307,104.62059,40,64,0
104.40307,104.62059,28,54,0
104.62059,104.82567,40,72,0
104.62059,104.82567,28,61,0
104.836426,105.0399,40,66,0
104.836426,105.0399,28,55,0
105.05058,105.25245,40,66,0
105.05058,105.25245,28,55,0
105.26297,105.36811,41,57,0
105.36811,105.47276,42,59,0
105.47276,105.57681,43,61,0
105.57681,105.680435,44,62,0
105.680435,105.78353,45,64,0
105.78353,105.88609,46,66,0
105.88609,105.98849,47,68,0
105.98849,106.09087,48,70,0
106.09087,106.19326,49,71,0
106.19326,106.295654,50,73,0
106.295654,106.39804,51,75,0
106.39804,106.50043,52,77,0
106.50043,106.72265,52,85,0
106.50043,106.72265,40,72,0
106.72265,106.827545,64,77,0
106.72265,106.827545,52,65,0
106.93244,107.04114,52,65,0
106.93244,107.04114,64,77,0
107.14983,107.25853,64,85,0
107.14983,107.25853,52,72,0
107.367226,107.47286,64,77,0
107.367226,107.47286,52,65,0
107.57849,107.68719,64,77,0
107.57849,107.68719,52,65,0
107.79588,107.913994,63,87,0
107.79588,107.913994,51,73,0
108.032104,108.1424,39,65,0
108.032104,108.1424,51,77,0
108.47328,108.59139,63,87,0
108.47328,108.59139,51,73,0
108.7095,108.81979,39,65,0
108.7095,108.81979,51,77,0
109.19915,109.30944,51,43,0
109.49326,109.59601,39,38,0
110.08982,110.220634,51,43,0
110.43865,110.558334,39,38,0
111.07695,111.27358,44,35,0
111.33912,111.87848,51,25,0
111.33912,111.87848,56,25,0
111.33912,111.87848,60,30,0
111.87848,112.0743,48,35,0
112.13957,112.668434,56,24,0
112.13957,112.668434,60,24,0
112.13957,112.668434,63,28,0
112.668434,112.86263,46,35,0
112.92737,113.4736,55,24,0
112.92737,113.4736,61,24,0
112.92737,113.4736,63,28,0
113.4736,113.706764,39,37,0
113.784485,114.31545,55,24,0
113.784485,114.31545,58,24,0
113.784485,114.31545,63,28,0
114.31545,114.50965,44,36,0
114.57439,115.10108,56,24,0
114.57439,115.10108,60,24,0
114.57439,115.10108,63,28,0
115.10108,115.292915,37,36,0
115.35686,115.88152,53,24,0
115.35686,115.88152,58,24,0
115.35686,115.88152,61,28,0
115.88152,116.07336,39,36,0
116.1373,116.68038,51,24,0
116.1373,116.68038,55,24,0
116.1373,116.68038,58,28,0
116.68038,116.872215,43,35,0
116.93616,117.487625,51,24,0
116.93616,117.487625,58,24,0
116.93616,117.487625,61,28,0
117.487625,117.55262,44,36,0
117.617615,117.74761,51,28,0
117.74761,117.8776,56,28,0
117.8776,118.0076,60,28,0
118.0076,118.142624,56,28,0
118.142624,118.27765,51,28,0
118.27765,118.342384,48,36,0
118.40711,118.53658,56,28,0
118.53658,118.666046,60,28,0
118.666046,118.79552,63,28,0
118.79552,118.9294,60,28,0
118.9294,119.06328,56,28,0
119.06328,119.12722,46,40,0
119.19116,119.31905,55,28,0
119.31905,119.44694,61,28,0
119.44694,119.57483,63,28,0
119.57483,119.71848,61,28,0
119.71848,119.86213,55,28,0
119.86213,119.93082,39,37,0
119.999504,120.13688,55,28,0
120.13688,120.26962,58,28,0
120.26962,120.40237,63,28,0
120.40237,120.53511,58,28,0
120.53511,120.667854,55,28,0
120.667854,120.7318,44,36,0
120.795746,120.92363,56,28,0
120.92363,121.05152,60,28,0
121.05152,121.179405,63,28,0
121.179405,121.313286,60,28,0
121.313286,121.44717,56,28,0
121.44717,121.511116,37,39,0
121.57506,121.70294,53,28,0
121.70294,121.83083,58,28,0
121.83083,121.958725,61,28,0
121.958725,122.09317,58,28,0
122.09317,122.22761,53,28,0
122.22761,122.29261,39,41,0
122.357605,122.4876,51,28,0
122.4876,122.61759,55,28,0
122.61759,122.74759,61,28,0
122.74759,122.891235,55,28,0
122.891235,123.03489,51,28,0
123.03489,123.10098,44,39,0
123.16708,123.29928,51,28,0
123.29928,123.43147,56,28,0
123.43147,123.56366,60,28,0
123.56366,123.70731,56,28,0
123.70731,123.88408,51,28,0
123.88408,124.17138,51,75,0
123.88408,124.17138,39,63,0
124.74598,125.03328,44,81,0
124.74598,125.03328,32,68,0
128.87415,129.68297,63,36,0
129.68297,130.48627,64,36,0
128.87415,130.48627,60,30,0
130.48627,131.32507,61,30,0
130.48627,131.32507,65,36,0
131.32507,132.20592,56,30,0
131.32507,132.20592,63,36,0
132.20592,133.29672,61,36,0
132.20592,133.29672,53,30,0
132.20592,133.29672,49,30,0
133.29672,133.55672,65,43,0
133.29672,133.55672,61,36,0
133.55672,133.69174,56,30,0
133.82677,134.91759,61,36,0
133.82677,134.91759,53,30,0
133.82677,134.91759,49,30,0
134.91759,135.17758,65,43,0
134.91759,135.17758,61,36,0
135.17758,135.3126,56,29,0
135.44763,136.52177,56,36,0
135.44763,136.52177,54,30,0
135.44763,136.52177,48,30,0
136.52177,136.78175,66,43,0
136.52177,136.78175,63,36,0
136.78175,136.91678,56,31,0
137.0518,138.12595,56,36,0
137.0518,138.12595,54,30,0
137.0518,138.12595,48,30,0
138.12595,138.38594,66,43,0
138.12595,138.38594,63,36,0
138.38594,138.52097,56,31,0
138.65599,139.19756,56,36,0
139.19756,139.46997,57,45,0
139.46997,140.01007,58,48,0
138.65599,140.01007,49,30,0
140.01007,140.28012,56,41,0
140.01007,140.28012,50,35,0
140.28012,141.13486,55,36,0
141.13486,141.58423,56,36,0
141.13486,141.58423,44,29,0
140.28012,141.58423,51,30,0
142.01831,143.10913,61,36,0
142.01831,143.10913,53,30,0
142.01831,143.10913,49,30,0
143.10913,143.36911,65,43,0
143.10913,143.36911,61,36,0
143.36911,143.50414,61,30,0
143.36911,143.50414,53,25,0
143.63916,144.72998,61,36,0
143.63916,144.72998,53,30,0
143.63916,144.72998,49,30,0
144.72998,144.98997,65,43,0
144.72998,144.98997,61,36,0
144.98997,145.125,61,29,0
144.98997,145.125,53,25,0
145.26003,146.33417,56,36,0
145.26003,146.33417,54,30,0
145.26003,146.33417,48,30,0
146.33417,146.59415,66,43,0
146.33417,146.59415,63,36,0
146.59415,146.72917,56,26,0
146.59415,146.72917,63,31,0
146.86421,147.93834,56,36,0
146.86421,147.93834,54,30,0
146.86421,147.93834,48,30,0
147.93834,148.19833,66,43,0
147.93834,148.19833,63,36,0
148.19833,148.33336,56,26,0
148.19833,148.33336,63,31,0
148.46838,149.00996,56,36,0
149.00996,149.28236,57,45,0
149.28236,149.81903,58,48,0
149.81903,150.08908,57,41,0
150.08908,150.62834,58,48,0
150.62834,150.90076,53,45,0
150.90076,151.44322,61,48,0
151.44322,151.71678,59,44,0
148.46838,151.71678,49,30,0
151.71678,152.53648,58,48,0
152.53648,153.35374,56,48,0
153.35374,154.17462,58,48,0
151.71678,154.17462,48,30,0
154.17462,154.45303,56,40,0
154.17462,154.45303,53,36,0
154.59225,154.72903,53,51,0
154.72903,154.86583,54,51,0
154.86583,155.00261,53,51,0
155.00261,155.27266,51,57,0
155.27266,155.55884,54,60,0
155.27266,155.55884,42,50,0
155.53593,155.83359,41,46,0
155.53593,155.83359,53,55,0
155.81068,156.10765,39,51,0
155.81068,156.10765,51,61,0
156.08543,156.37537,37,45,0
156.08543,156.37537,49,53,0
156.35205,156.65503,36,48,0
156.35205,156.65503,48,58,0
156.63173,157.47073,34,53,0
156.63173,157.47073,46,64,0
157.47073,157.7504,45,69,0
157.47073,157.7504,33,59,0
157.9077,158.04448,53,51,0
158.04448,158.18127,54,51,0
158.18127,158.31805,53,51,0
158.31805,158.5881,51,57,0
158.5881,158.87428,54,60,0
158.5881,158.87428,42,50,0
158.85138,159.14903,39,46,0
158.85138,159.14903,51,55,0
159.12613,159.4231,37,51,0
159.12613,159.4231,49,61,0
159.40088,159.69081,36,45,0
159.40088,159.69081,48,53,0
159.6675,159.97047,34,48,0
159.6675,159.97047,46,58,0
159.94717,160.78618,33,53,0
159.94717,160.78618,45,64,0
160.78618,161.06584,44,69,0
160.78618,161.06584,32,59,0
161.20567,161.35066,53,51,0
161.35066,161.49564,54,51,0
161.49564,161.64062,53,51,0
161.64062,161.93466,51,57,0
161.93466,162.23827,54,52,0
161.93466,162.23827,42,44,0
162.21432,162.52637,39,39,0
162.21432,162.52637,51,47,0
162.50163,162.82442,36,37,0
162.50163,162.82442,48,44,0
162.79845,163.13744,33,34,0
162.79845,163.13744,45,41,0
163.10997,163.46501,32,32,0
163.10997,163.46501,44,38,0
163.43942,173.65697,30,29,0
163.43942,173.65697,42,35,0
174.52171,175.38774,50,40,0
175.38774,176.25238,49,38,0
176.25238,177.13448,50,36,0
173.65697,177.13448,42,35,0
177.13448,178.94922,42,32,0
178.94922,179.92218,43,34,0
177.13448,179.92218,49,36,0
179.92218,180.87083,54,31,0
179.92218,180.87083,48,26,0
179.92218,180.87083,44,26,0
180.87083,181.9682,61,35,0
180.87083,181.9682,53,29,0
180.87083,181.9682,49,29,0
181.9682,182.2282,65,41,0
181.9682,182.2282,61,35,0
182.2282,182.36322,56,28,0
182.49825,183.58907,61,35,0
182.49825,183.58907,49,29,0
182.49825,183.58907,53,29,0
183.58907,183.84906,65,41,0
183.58907,183.84906,61,35,0
183.84906,183.98409,56,28,0
184.11911,185.19781,56,35,0
184.11911,185.19781,54,29,0
184.11911,185.19781,48,29,0
185.19781,185.4578,63,35,0
185.19781,185.4578,66,41,0
185.4578,185.59282,56,30,0
185.72784,186.80199,48,29,0
185.72784,186.80199,56,35,0
185.72784,186.80199,54,29,0
186.80199,187.06198,66,41,0
186.80199,187.06198,63,35,0
187.06198,187.197,56,30,0
187.33203,188.14601,61,35,0
187.33203,188.14601,49,29,0
187.33203,188.14601,56,29,0
188.14601,188.95999,61,35,0
188.14601,188.95999,56,29,0
188.14601,188.95999,53,29,0
188.95999,189.82916,60,35,0
188.95999,189.82916,56,29,0
189.82916,190.41933,61,29,0
189.82916,190.41933,65,35,0
190.71635,191.81348,61,35,0
190.71635,191.81348,53,29,0
190.71635,191.81348,49,29,0
191.81348,192.07346,65,41,0
191.81348,192.07346,61,35,0
192.07346,192.20848,56,28,0
192.3435,193.43433,61,35,0
192.3435,193.43433,49,29,0
192.3435,193.43433,53,29,0
193.43433,193.69432,65,41,0
193.43433,193.69432,61,35,0
193.69432,193.82935,56,28,0
193.96437,195.04308,56,35,0
193.96437,195.04308,54,29,0
193.96437,195.04308,48,29,0
195.04308,195.30307,63,35,0
195.04308,195.30307,66,41,0
195.30307,195.4381,56,30,0
195.57312,196.64725,48,29,0
195.57312,196.64725,56,35,0
195.57312,196.64725,54,29,0
196.64725,196.90724,66,41,0
196.64725,196.90724,63,35,0
196.90724,197.04227,56,30,0
197.17729,197.99127,61,35,0
197.17729,197.99127,49,29,0
197.17729,197.99127,56,29,0
197.99127,198.85258,61,35,0
197.99127,198.85258,56,29,0
197.99127,198.85258,53,29,0
198.85258,199.00989,66,34,0
199.16718,199.47263,70,38,0
199.47263,199.79863,68,36,0
198.85258,199.79863,60,35,0
198.85258,199.79863,56,29,0
199.79863,200.45067,61,29,0
199.79863,200.45067,65,35,0
203.46996,203.79605,69,49,0
203.79605,203.8993,69,44,0
203.90474,204.13911,69,49,0
204.13911,204.46878,69,49,0
204.46878,204.57318,69,45,0
204.57867,204.8149,69,49,0
204.8149,205.14098,70,60,0
204.8149,205.14098,67,50,0
205.14098,205.24425,70,54,0
205.14098,205.24425,67,45,0
205.24968,205.4859,70,63,0
205.24968,205.4859,67,53,0
205.4859,205.81436,70,69,0
205.4859,205.81436,67,58,0
205.4859,205.81436,63,58,0
205.81436,205.91838,70,64,0
205.81436,205.91838,67,53,0
205.81436,205.91838,63,53,0
205.92386,206.15732,70,70,0
205.92386,206.15732,67,60,0
205.92386,206.15732,63,60,0
206.15732,206.48459,56,72,0
206.15732,206.48459,51,61,0
206.15732,206.48459,44,61,0
206.48459,206.58823,56,67,0
206.48459,206.58823,51,56,0
206.48459,206.58823,44,56,0
206.59369,206.71272,56,73,0
206.59369,206.71272,51,62,0
206.59369,206.71272,44,62,0
206.83177,207.15904,56,72,0
206.83177,207.15904,51,61,0
206.83177,207.15904,44,61,0
207.15904,207.26268,56,67,0
207.15904,207.26268,51,56,0
207.15904,207.26268,44,56,0
207.26814,207.38672,56,73,0
207.26814,207.38672,51,62,0
207.26814,207.38672,44,62,0
207.5053,207.71219,56,74,0
207.5053,207.71219,51,62,0
207.5053,207.71219,44,62,0
208.81801,208.8813,55,62,0
208.81801,208.8813,61,62,0
208.81801,208.8813,63,74,0
209.07117,209.52745,55,62,0
209.07117,209.52745,61,62,0
209.07117,209.52745,63,74,0
209.52745,209.63126,50,73,0
209.63126,209.73506,51,67,0
209.73506,209.84183,46,70,0
209.84183,209.94858,43,67,0
209.94858,210.06763,39,70,0
210.18668,210.51395,58,72,0
210.18668,210.51395,51,61,0
210.18668,210.51395,46,61,0
210.51395,210.61758,58,67,0
210.51395,210.61758,51,56,0
210.51395,210.61758,46,56,0
210.62305,210.7421,58,73,0
210.62305,210.7421,51,62,0
210.62305,210.7421,46,62,0
210.86113,211.18842,58,72,0
210.86113,211.18842,51,61,0
210.86113,211.18842,46,61,0
211.18842,211.29204,58,67,0
211.18842,211.29204,51,56,0
211.18842,211.29204,46,56,0
211.2975,211.41608,58,73,0
211.2975,211.41608,51,62,0
211.2975,211.41608,46,62,0
211.53465,211.74155,58,74,0
211.53465,211.74155,51,62,0
211.53465,211.74155,46,62,0
212.84737,212.91066,56,62,0
212.84737,212.91066,63,62,0
212.84737,212.91066,67,74,0
213.10052,213.55681,56,62,0
213.10052,213.55681,63,62,0
213.10052,213.55681,68,74,0
213.55681,213.66061,55,73,0
213.66061,213.76442,56,67,0
213.76442,213.87119,51,70,0
213.87119,213.97794,48,67,0
213.97794,214.09698,44,70,0
214.21603,214.5433,56,72,0
214.21603,214.5433,51,61,0
214.21603,214.5433,44,61,0
214.5433,214.64694,56,67,0
214.5433,214.64694,51,56,0
214.5433,214.64694,44,56,0
214.6524,214.77145,56,73,0
214.6524,214.77145,51,62,0
214.6524,214.77145,44,62,0
214.8905,215.21777,56,72,0
214.8905,215.21777,52,61,0
214.8905,215.21777,44,61,0
215.21777,215.32141,56,67,0
215.21777,215.32141,52,56,0
215.21777,215.32141,44,56,0
215.32686,215.44543,56,73,0
215.32686,215.44543,52,62,0
215.32686,215.44543,44,62,0
215.56401,215.7709,57,74,0
215.56401,215.7709,52,62,0
215.56401,215.7709,45,62,0
216.20724,216.31105,48,63,0
216.31105,216.41444,45,55,0
216.41444,216.51747,40,56,0
216.51747,216.62009,36,57,0
216.62009,216.73868,33,62,0
216.85725,217.18452,57,72,0
216.85725,217.18452,52,61,0
216.85725,217.18452,45,61,0
217.18452,217.28816,57,67,0
217.18452,217.28816,52,56,0
217.18452,217.28816,45,56,0
217.29361,217.41266,57,73,0
217.29361,217.41266,52,62,0
217.29361,217.41266,45,62,0
217.53171,217.85898,57,72,0
217.53171,217.85898,53,61,0
217.53171,217.85898,45,61,0
217.85898,217.96262,57,67,0
217.85898,217.96262,53,56,0
217.85898,217.96262,45,56,0
217.96806,218.08665,57,73,0
217.96806,218.08665,53,62,0
217.96806,218.08665,45,62,0
218.20523,218.41212,58,74,0
218.20523,218.41212,53,62,0
218.20523,218.41212,46,62,0
218.85574,218.96028,49,63,0
218.96028,219.0645,46,56,0
219.0645,219.1683,41,57,0
219.1683,219.2717,37,58,0
219.2717,219.39027,34,63,0
219.50885,219.83612,58,72,0
219.50885,219.83612,54,61,0
219.50885,219.83612,46,61,0
219.83612,219.93976,58,67,0
219.83612,219.93976,54,56,0
219.83612,219.93976,46,56,0
219.94522,220.06427,58,73,0
219.94522,220.06427,54,62,0
219.94522,220.06427,46,62,0
220.18332,220.39021,59,74,0
220.18332,220.39021,54,62,0
220.18332,220.39021,47,62,0
220.83257,221.15984,59,72,0
220.83257,221.15984,55,61,0
220.83257,221.15984,47,61,0
221.15984,221.26347,59,67,0
221.15984,221.26347,55,56,0
221.15984,221.26347,47,56,0
221.26892,221.38797,59,73,0
221.26892,221.38797,55,62,0
221.26892,221.38797,47,62,0
221.50702,221.71391,60,74,0
221.50702,221.71391,55,62,0
221.50702,221.71391,48,62,0
222.157,222.26314,32,39,0
222.26314,222.36778,44,41,0
222.36778,222.47183,32,42,0
222.47183,222.57547,44,43,0
222.57547,222.67856,32,44,0
222.67856,222.78111,44,46,0
222.78111,222.88351,32,47,0
222.88351,222.9859,44,49,0
222.9859,223.08829,32,49,0
223.08829,223.19067,44,51,0
223.19067,223.29306,32,52,0
223.29306,223.39545,44,53,0
223.39545,223.49867,45,51,0
223.49867,223.60333,46,53,0
223.60333,223.70738,47,54,0
223.70738,223.811,48,55,0
223.811,223.9141,49,57,0
223.9141,224.01666,50,59,0
224.01666,224.11905,51,61,0
224.11905,224.22144,52,63,0
224.22144,224.32382,53,63,0
224.32382,224.42622,54,65,0
224.42622,224.52861,55,67,0
224.52861,224.631,56,69,0
224.631,224.85321,44,64,0
224.631,224.85321,56,76,0
224.85321,224.96191,56,58,0
224.85321,224.96191,68,69,0
225.0706,225.17699,56,58,0
225.0706,225.17699,68,69,0
225.28337,225.39326,68,76,0
225.28337,225.39326,56,64,0
225.50316,225.60991,56,58,0
225.50316,225.60991,68,69,0
225.71667,225.82344,68,69,0
225.71667,225.82344,56,58,0
225.9302,226.15834,67,78,0
225.9302,226.15834,55,65,0
226.15834,226.2625,55,69,0
226.15834,226.2625,43,58,0
226.36667,226.4742,43,62,0
226.36667,226.4742,31,52,0
226.80728,226.91182,53,58,0
226.80728,226.91182,65,69,0
227.01634,227.12349,41,52,0
227.01634,227.12349,53,62,0
227.45451,227.55797,52,58,0
227.45451,227.55797,64,69,0
227.6614,227.76779,40,53,0
227.6614,227.76779,52,63,0
228.09723,228.20067,57,59,0
228.09723,228.20067,69,70,0
228.30412,228.4105,45,53,0
228.30412,228.4105,57,63,0
228.73993,228.84303,55,60,0
228.73993,228.84303,67,71,0
228.94612,229.05212,55,64,0
228.94612,229.05212,43,54,0
229.38036,229.48453,66,72,0
229.38036,229.48453,54,60,0
229.58868,229.69507,42,54,0
229.58868,229.69507,54,65,0
230.0245,230.12868,47,61,0
230.0245,230.12868,59,73,0
230.23283,230.33885,47,66,0
230.23283,230.33885,35,55,0
230.66791,230.77171,57,73,0
230.66791,230.77171,45,62,0
230.87552,230.98114,33,56,0
230.87552,230.98114,45,66,0
231.30818,231.41309,44,63,0
231.30818,231.41309,56,75,0
231.51797,231.62474,32,56,0
231.51797,231.62474,44,67,0
231.95706,232.06345,49,63,0
231.95706,232.06345,61,75,0
232.16983,232.27774,49,68,0
232.16983,232.27774,37,57,0
232.61911,232.72742,47,64,0
232.61911,232.72742,59,76,0
232.83572,232.94562,35,58,0
232.83572,232.94562,47,69,0
233.29172,233.40042,45,64,0
233.29172,233.40042,57,77,0
233.50911,233.619,45,70,0
233.50911,233.619,33,58,0
233.98752,234.11148,45,66,0
233.98752,234.11148,57,78,0
234.23544,234.36589,33,70,0
234.23544,234.36589,45,86,0
234.49632,235.57858,45,92,0
234.49632,235.57858,33,78,0
235.57858,235.69281,57,84,0
235.57858,235.69281,45,71,0
235.69884,235.95273,57,91,0
235.69884,235.95273,45,76,0
235.95273,237.03468,45,90,0
235.95273,237.03468,33,76,0
237.03468,237.15494,57,84,0
237.03468,237.15494,45,71,0
237.15494,237.43169,57,91,0
237.15494,237.43169,45,76,0
237.43169,238.51395,46,90,0
237.43169,238.51395,34,76,0
238.51395,238.62817,58,84,0
238.51395,238.62817,46,71,0
238.6342,238.89752,58,91,0
238.6342,238.89752,46,76,0
238.89752,239.9801,46,90,0
238.89752,239.9801,34,76,0
239.9801,240.09433,58,84,0
239.9801,240.09433,46,71,0
240.10036,240.38889,58,91,0
240.10036,240.38889,46,76,0
240.38889,241.47115,47,93,0
240.38889,241.47115,35,79,0
241.47115,241.58537,59,84,0
241.47115,241.58537,47,71,0
241.5914,241.8466,59,91,0
241.5914,241.8466,47,76,0
241.8466,242.92886,48,91,0
241.8466,242.92886,36,76,0
242.92886,243.04309,60,84,0
242.92886,243.04309,48,71,0
243.04912,243.30963,60,91,0
243.04912,243.30963,48,76,0
243.30963,244.39159,49,90,0
243.30963,244.39159,37,76,0
244.39159,244.50581,61,84,0
244.39159,244.50581,49,71,0
244.51184,244.77237,61,91,0
244.51184,244.77237,49,76,0
244.77237,245.85432,49,90,0
244.77237,245.85432,37,76,0
245.85432,245.96855,61,84,0
245.85432,245.96855,49,71,0
245.97456,246.28497,61,91,0
245.97456,246.28497,49,76,0
246.28497,246.65498,50,90,0
246.28497,246.65498,38,76,0
246.65498,246.77069,62,84,0
246.65498,246.77069,50,71,0
246.77682,247.07724,62,91,0
246.77682,247.07724,50,76,0
247.07724,247.44785,47,90,0
247.07724,247.44785,35,76,0
247.44785,247.56444,59,84,0
247.44785,247.56444,47,71,0
247.57062,247.8861,59,91,0
247.57062,247.8861,47,76,0
247.8861,248.2545,48,90,0
247.8861,248.2545,36,76,0
248.2545,248.37088,60,84,0
248.2545,248.37088,48,71,0
248.37704,248.68727,60,91,0
248.37704,248.68727,48,76,0
248.68727,249.06026,45,90,0
248.68727,249.06026,33,76,0
249.06026,249.17729,57,84,0
249.06026,249.17729,45,71,0
249.18349,249.53328,57,91,0
249.18349,249.53328,45,76,0
249.53328,249.9017,41,90,0
249.53328,249.9017,29,76,0
249.9017,250.01837,53,84,0
249.9017,250.01837,41,71,0
250.02455,250.33527,53,91,0
250.02455,250.33527,41,76,0
250.33527,250.7054,43,90,0
250.33527,250.7054,31,76,0
250.7054,250.82211,55,84,0
250.7054,250.82211,43,71,0
250.82832,251.13756,55,91,0
250.82832,251.13756,43,76,0
251.13756,251.24745,32,81,0
251.24745,251.35733,44,72,0
251.35733,251.46722,36,81,0
251.46722,251.57712,48,69,0
251.57712,251.69858,32,81,0
251.69858,251.82004,44,69,0
251.82004,251.92992,39,81,0
251.92992,252.03981,51,72,0
252.03981,252.1497,36,81,0
252.1497,252.2596,48,69,0
252.2596,252.38104,44,81,0
252.38104,252.5025,56,69,0
252.5025,252.6124,32,81,0
252.6124,252.72229,44,72,0
252.72229,252.83218,39,81,0
252.83218,252.94206,51,69,0
252.94206,253.06352,36,81,0
253.06352,253.18498,48,69,0
253.18498,253.29488,44,81,0
253.29488,253.40475,56,72,0
253.40475,253.51465,39,81,0
253.51465,253.62454,51,69,0
253.62454,253.746,48,81,0
253.746,253.86746,60,69,0
253.86746,253.97734,44,83,0
253.97734,254.08723,56,73,0
254.08723,254.19713,51,81,0
254.19713,254.30702,63,71,0
254.30702,254.42023,48,81,0
254.42023,254.53343,60,70,0
254.53343,254.6458,44,80,0
254.6458,254.75815,56,72,0
254.75815,254.87051,39,82,0
254.87051,254.98286,51,71,0
254.98286,255.10005,36,84,0
255.10005,255.21703,48,72,0
255.21703,255.3333,39,82,0
255.3333,255.45079,51,74,0
255.45079,255.56944,48,84,0
255.56944,255.68945,60,72,0
255.68945,255.81067,44,87,0
255.81067,255.93312,56,73,0
255.93312,256.05692,39,90,0
256.05692,256.1821,51,80,0
256.1821,256.3087,36,92,0
256.3087,256.4366,48,79,0
256.4366,256.5851,32,94,0
256.5851,256.73364,44,81,0
256.73364,256.98364,43,91,0
256.73364,256.98364,31,75,0
258.23364,258.48364,55,95,0
258.23364,258.48364,50,79,0
258.23364,258.48364,47,79,0
258.23364,258.48364,43,79,0
