start_time,end_time,note_value,velocity,instrument_program_number
0.0,0.412343,64,88,0
0.0,0.412343,52,74,0
0.0,0.412343,55,74,0
0.0,0.412343,60,74,0
0.412343,0.51290625,64,83,0
0.412343,0.51290625,52,70,0
0.412343,0.51290625,55,70,0
0.412343,0.51290625,60,70,0
0.6134695,0.71403277,64,83,0
0.6134695,0.71403277,52,70,0
0.6134695,0.71403277,55,70,0
0.6134695,0.71403277,60,70,0
0.814596,1.226939,64,88,0
0.814596,1.226939,52,74,0
0.814596,1.226939,55,74,0
0.814596,1.226939,60,74,0
1.226939,1.3275023,64,82,0
1.226939,1.3275023,52,69,0
1.226939,1.3275023,55,69,0
1.226939,1.3275023,60,69,0
1.4280655,1.5286287,64,82,0
1.4280655,1.5286287,52,69,0
1.4280655,1.5286287,55,69,0
1.4280655,1.5286287,60,69,0
1.629192,1.834629,64,88,0
1.629192,1.834629,52,74,0
1.629192,1.834629,55,74,0
1.629192,1.834629,60,74,0
1.834629,1.9373475,48,79,0
1.9373475,2.0399446,52,81,0
2.0399446,2.1426642,55,83,0
2.1426642,2.246246,60,85,0
2.246246,2.350708,64,89,0
2.350708,2.455296,67,91,0
2.455296,2.8736482,71,88,0
2.455296,2.8736482,59,88,0
2.8736482,2.9782362,72,84,0
2.8736482,2.9782362,60,70,0
3.082824,3.187412,72,84,0
3.082824,3.187412,60,70,0
3.292,3.510978,73,91,0
3.292,3.510978,65,76,0
3.292,3.510978,67,76,0
3.292,3.510978,71,91,0
3.7299562,3.948934,74,85,0
3.7299562,3.948934,67,71,0
3.7299562,3.948934,65,71,0
3.7299562,3.948934,71,85,0
5.0589867,5.4713297,62,76,0
5.0589867,5.4713297,53,64,0
5.0589867,5.4713297,55,64,0
5.0589867,5.4713297,59,64,0
5.4713297,5.5718927,62,72,0
5.4713297,5.5718927,53,60,0
5.4713297,5.5718927,55,60,0
5.4713297,5.5718927,59,60,0
5.6724563,5.7730193,62,72,0
5.6724563,5.7730193,53,60,0
5.6724563,5.7730193,55,60,0
5.6724563,5.7730193,59,60,0
5.873583,6.285926,62,76,0
5.873583,6.285926,53,64,0
5.873583,6.285926,55,64,0
5.873583,6.285926,59,64,0
6.285926,6.386489,62,71,0
6.285926,6.386489,53,59,0
6.285926,6.386489,55,59,0
6.285926,6.386489,59,59,0
6.487052,6.5876155,62,71,0
6.487052,6.5876155,53,59,0
6.487052,6.5876155,55,59,0
6.487052,6.5876155,59,59,0
6.6881785,6.8936157,62,76,0
6.6881785,6.8936157,53,64,0
6.6881785,6.8936157,55,64,0
6.6881785,6.8936157,59,64,0
6.8936157,6.996334,55,68,0
6.996334,7.0989313,59,70,0
7.0989313,7.2016506,62,72,0
7.2016506,7.305233,65,74,0
7.305233,7.4096947,67,76,0
7.4096947,7.5142827,71,78,0
7.5142827,7.932635,73,88,0
7.5142827,7.932635,61,88,0
7.932635,8.037223,74,83,0
7.932635,8.037223,62,70,0
8.14181,8.246399,74,83,0
8.14181,8.246399,62,70,0
8.3509865,8.569964,75,91,0
8.3509865,8.569964,63,77,0
8.3509865,8.569964,67,77,0
8.3509865,8.569964,72,91,0
8.788942,9.007921,76,84,0
8.788942,9.007921,67,71,0
8.788942,9.007921,64,71,0
8.788942,9.007921,72,84,0
9.4457445,9.547095,55,64,0
9.547095,9.648447,60,66,0
9.648447,9.746486,64,68,0
9.746486,9.844525,67,70,0
9.844525,9.942564,72,72,0
9.942564,10.040604,76,74,0
10.040604,10.454396,79,78,0
10.040604,10.454396,76,66,0
10.040604,10.454396,67,66,0
10.454396,10.646316,79,70,0
10.454396,10.646316,76,58,0
10.454396,10.646316,67,58,0
10.656417,10.848335,79,70,0
10.656417,10.848335,76,58,0
10.656417,10.848335,67,58,0
10.858437,11.488044,79,78,0
10.858437,11.488044,74,65,0
10.858437,11.488044,67,65,0
11.488044,11.690064,79,80,0
11.488044,11.690064,74,67,0
11.488044,11.690064,67,67,0
11.690064,12.09814,84,88,0
11.690064,12.09814,79,74,0
11.690064,12.09814,72,74,0
12.102435,12.298311,84,75,0
12.102435,12.298311,78,63,0
12.102435,12.298311,72,63,0
12.30862,12.504497,84,73,0
12.30862,12.504497,78,61,0
12.30862,12.504497,72,61,0
12.514806,12.728329,83,76,0
12.514806,12.728329,79,64,0
12.514806,12.728329,71,64,0
12.728329,12.829,55,64,0
12.829,12.929671,60,66,0
12.929671,13.027711,64,68,0
13.027711,13.125751,67,70,0
13.125751,13.223789,72,72,0
13.223789,13.321829,76,74,0
13.321829,13.731311,79,78,0
13.321829,13.731311,76,66,0
13.321829,13.731311,67,66,0
13.735621,13.937641,79,70,0
13.735621,13.937641,76,58,0
13.735621,13.937641,67,58,0
13.937641,14.139662,79,70,0
13.937641,14.139662,76,58,0
13.937641,14.139662,67,58,0
14.139662,14.769269,79,78,0
14.139662,14.769269,74,65,0
14.139662,14.769269,67,65,0
14.769269,14.971289,79,80,0
14.769269,14.971289,74,67,0
14.769269,14.971289,67,67,0
14.971289,15.379365,84,88,0
14.971289,15.379365,79,74,0
14.971289,15.379365,72,74,0
15.38366,15.579536,84,75,0
15.38366,15.579536,78,63,0
15.38366,15.579536,72,63,0
15.589846,15.785722,84,73,0
15.589846,15.785722,78,61,0
15.589846,15.785722,72,61,0
15.796031,16.002216,83,76,0
15.796031,16.002216,79,64,0
15.796031,16.002216,71,64,0
16.002216,16.102888,60,64,0
16.102888,16.20356,65,66,0
16.20356,16.301598,69,68,0
16.301598,16.399637,72,70,0
16.399637,16.497677,77,72,0
16.497677,16.595716,81,74,0
16.595716,17.0052,84,85,0
16.595716,17.0052,81,72,0
16.595716,17.0052,72,72,0
17.00951,17.201427,84,77,0
17.00951,17.201427,81,63,0
17.00951,17.201427,72,63,0
17.211529,17.403448,84,77,0
17.211529,17.403448,81,63,0
17.211529,17.403448,72,63,0
17.41355,18.054659,84,85,0
17.41355,18.054659,79,71,0
17.41355,18.054659,72,71,0
18.054659,18.268183,84,88,0
18.054659,18.268183,79,73,0
18.054659,18.268183,72,73,0
18.268183,18.676258,89,96,0
18.268183,18.676258,84,81,0
18.268183,18.676258,77,81,0
18.680553,18.87643,89,90,0
18.680553,18.87643,83,75,0
18.680553,18.87643,77,75,0
18.88674,19.082615,89,88,0
18.88674,19.082615,83,73,0
18.88674,19.082615,77,73,0
19.092924,19.501,88,92,0
19.092924,19.501,83,76,0
19.092924,19.501,76,76,0
19.505295,19.905127,76,73,0
19.505295,19.905127,81,73,0
19.505295,19.905127,88,88,0
19.909336,20.321707,86,95,0
19.909336,20.321707,81,81,0
19.909336,20.321707,74,81,0
20.321707,20.517582,86,88,0
20.321707,20.517582,80,74,0
20.321707,20.517582,74,74,0
20.527891,20.723768,86,85,0
20.527891,20.723768,80,71,0
20.527891,20.723768,74,71,0
20.734077,21.146448,84,89,0
20.734077,21.146448,81,74,0
20.734077,21.146448,72,74,0
21.146448,21.560242,69,56,0
21.146448,21.560242,72,56,0
21.146448,21.560242,81,67,0
21.560242,21.66465,76,42,0
21.560242,21.66465,69,35,0
21.66465,21.768457,81,44,0
21.768457,21.871552,76,45,0
21.768457,21.871552,69,38,0
21.871552,21.974056,81,47,0
21.974056,22.075867,76,49,0
21.974056,22.075867,69,41,0
22.075867,22.17699,81,51,0
22.17699,22.27755,76,53,0
22.17699,22.27755,69,45,0
22.27755,22.37744,81,54,0
22.37744,22.476776,76,56,0
22.37744,22.476776,69,47,0
22.476776,22.575787,81,58,0
22.575787,22.674688,76,60,0
22.575787,22.674688,69,51,0
22.674688,22.773373,81,62,0
22.773373,22.871948,76,63,0
22.773373,22.871948,69,53,0
22.871948,22.97031,81,65,0
22.97031,23.068457,76,67,0
22.97031,23.068457,69,56,0
23.068457,23.166494,81,69,0
23.166494,23.263582,75,73,0
23.166494,23.263582,69,62,0
23.263582,23.360462,81,74,0
23.360462,23.457027,75,75,0
23.360462,23.457027,69,63,0
23.457027,23.553389,81,76,0
23.553389,23.649439,75,78,0
23.553389,23.649439,69,66,0
23.649439,23.745287,81,80,0
23.745287,23.841337,75,81,0
23.745287,23.841337,69,69,0
23.841337,23.937492,81,83,0
23.937492,24.033955,75,85,0
23.937492,24.033955,69,71,0
24.033955,24.130522,81,86,0
24.130522,24.227295,75,87,0
24.130522,24.227295,69,74,0
24.227295,24.324278,81,89,0
24.324278,24.52836,81,90,0
24.324278,24.52836,75,90,0
24.324278,24.52836,69,77,0
24.52836,24.73244,81,93,0
24.52836,24.73244,75,93,0
24.52836,24.73244,69,78,0
24.73244,24.83845,81,100,0
24.73244,24.83845,75,84,0
24.73244,24.83845,69,84,0
24.944456,25.04615,81,90,0
24.944456,25.04615,71,75,0
24.944456,25.04615,75,75,0
24.944456,25.04615,83,90,0
25.147846,25.251293,83,90,0
25.147846,25.251293,71,75,0
25.147846,25.251293,75,75,0
25.147846,25.251293,81,90,0
25.354742,25.456436,83,90,0
25.354742,25.456436,71,75,0
25.354742,25.456436,75,75,0
25.354742,25.456436,81,90,0
25.558132,25.659826,83,90,0
25.558132,25.659826,71,75,0
25.558132,25.659826,75,75,0
25.558132,25.659826,81,90,0
25.761522,25.863216,83,90,0
25.761522,25.863216,71,75,0
25.761522,25.863216,75,75,0
25.761522,25.863216,81,90,0
25.964912,26.068718,83,90,0
25.964912,26.068718,71,75,0
25.964912,26.068718,75,75,0
25.964912,26.068718,81,90,0
26.172525,26.27633,83,90,0
26.172525,26.27633,71,75,0
26.172525,26.27633,75,75,0
26.172525,26.27633,81,90,0
26.380136,26.589195,83,101,0
26.380136,26.589195,71,85,0
26.380136,26.589195,76,85,0
26.380136,26.589195,80,85,0
26.798256,27.007315,76,86,0
26.798256,27.007315,88,102,0
26.798256,27.007315,83,86,0
26.798256,27.007315,80,86,0
28.052608,28.460657,64,36,0
28.052608,28.460657,52,29,0
28.052608,28.460657,55,29,0
28.052608,28.460657,60,29,0
28.464952,28.565516,64,34,0
28.464952,28.565516,52,28,0
28.464952,28.565516,55,28,0
28.464952,28.565516,60,28,0
28.666079,28.766642,64,34,0
28.666079,28.766642,52,28,0
28.666079,28.766642,55,28,0
28.666079,28.766642,60,28,0
28.867205,29.275253,64,36,0
28.867205,29.275253,52,29,0
28.867205,29.275253,55,29,0
28.867205,29.275253,60,29,0
29.279549,29.380112,64,33,0
29.279549,29.380112,52,27,0
29.279549,29.380112,55,27,0
29.279549,29.380112,60,27,0
29.480675,29.581238,64,33,0
29.480675,29.581238,52,27,0
29.480675,29.581238,55,27,0
29.480675,29.581238,60,27,0
29.6818,29.887238,64,36,0
29.6818,29.887238,52,29,0
29.6818,29.887238,55,29,0
29.6818,29.887238,60,29,0
29.887238,29.989956,48,32,0
29.989956,30.092554,52,33,0
30.092554,30.195272,55,34,0
30.195272,30.298855,60,35,0
30.298855,30.403316,64,36,0
30.403316,30.507906,67,37,0
30.507906,30.926256,71,36,0
30.507906,30.926256,59,36,0
30.926256,31.030846,72,34,0
30.926256,31.030846,60,28,0
31.135433,31.24002,72,34,0
31.135433,31.24002,60,28,0
31.344608,31.563587,73,37,0
31.344608,31.563587,65,31,0
31.344608,31.563587,67,31,0
31.344608,31.563587,71,37,0
31.782564,32.051624,74,35,0
31.782564,32.051624,67,28,0
31.782564,32.051624,65,28,0
31.782564,32.051624,71,35,0
32.320683,33.22294,83,35,0
32.320683,33.22294,77,35,0
32.320683,33.22294,79,35,0
32.320683,33.22294,86,35,0
33.22294,33.630985,62,31,0
33.22294,33.630985,53,25,0
33.22294,33.630985,55,25,0
33.22294,33.630985,59,25,0
33.63528,33.735844,62,28,0
33.63528,33.735844,53,24,0
33.63528,33.735844,55,24,0
33.63528,33.735844,59,24,0
33.836407,33.93697,62,28,0
33.836407,33.93697,53,24,0
33.836407,33.93697,55,24,0
33.836407,33.93697,59,24,0
34.037533,34.445583,62,31,0
34.037533,34.445583,53,25,0
34.037533,34.445583,55,25,0
34.037533,34.445583,59,25,0
34.44988,34.55044,62,28,0
34.44988,34.55044,53,23,0
34.44988,34.55044,55,23,0
34.44988,34.55044,59,23,0
34.651005,34.751568,62,28,0
34.651005,34.751568,53,23,0
34.651005,34.751568,55,23,0
34.651005,34.751568,59,23,0
34.85213,35.057568,62,31,0
34.85213,35.057568,53,25,0
34.85213,35.057568,55,25,0
34.85213,35.057568,59,25,0
35.057568,35.160286,55,27,0
35.160286,35.262882,59,28,0
35.262882,35.3656,62,28,0
35.3656,35.469185,65,29,0
35.469185,35.573647,67,31,0
35.573647,35.678234,71,32,0
35.678234,36.096584,73,36,0
35.678234,36.096584,61,36,0
36.096584,36.201176,74,34,0
36.096584,36.201176,62,28,0
36.305763,36.41035,74,34,0
36.305763,36.41035,62,28,0
36.51494,36.733917,75,37,0
36.51494,36.733917,63,31,0
36.51494,36.733917,67,31,0
36.51494,36.733917,72,37,0
36.952892,37.22439,76,34,0
36.952892,37.22439,67,28,0
36.952892,37.22439,64,28,0
36.952892,37.22439,72,34,0
37.49588,38.398136,84,35,0
37.49588,38.398136,76,35,0
37.49588,38.398136,79,35,0
37.49588,38.398136,88,35,0
38.6237,38.732395,55,27,0
38.732395,38.84109,60,28,0
38.84109,38.949787,64,28,0
38.949787,39.058483,67,29,0
39.058483,39.16718,72,31,0
39.16718,39.275875,76,32,0
39.275875,39.63878,79,37,0
39.275875,39.63878,67,30,0
39.275875,39.63878,72,30,0
39.759747,40.06744,77,36,0
39.759747,40.06744,72,29,0
39.759747,40.06744,65,29,0
40.37513,41.277386,77,28,0
40.37513,41.277386,84,35,0
41.502953,41.611645,57,24,0
41.611645,41.72034,60,25,0
41.72034,41.829037,65,25,0
41.829037,41.937733,69,26,0
41.937733,42.04643,72,27,0
42.04643,42.155125,77,27,0
42.155125,42.527027,81,32,0
42.155125,42.527027,69,26,0
42.155125,42.527027,72,26,0
42.650993,42.986187,79,32,0
42.650993,42.986187,72,26,0
42.650993,42.986187,67,26,0
43.321384,45.125896,79,25,0
43.321384,45.125896,84,31,0
43.321384,45.125896,72,25,0
45.328598,45.42995,60,76,0
45.42995,45.5313,64,78,0
45.5313,45.632652,67,80,0
45.632652,45.734005,72,82,0
45.734005,45.835354,76,84,0
45.835354,45.936707,79,86,0
45.936707,46.78316,84,93,0
45.936707,46.78316,72,79,0
45.936707,46.78316,77,79,0
45.936707,46.78316,80,79,0
46.78316,47.59672,79,77,0
46.78316,47.59672,71,77,0
46.78316,47.59672,77,77,0
46.78316,47.59672,83,91,0
47.59672,48.01339,79,78,0
47.59672,48.01339,84,92,0
47.59672,48.01339,72,78,0
48.01339,48.430054,78,76,0
48.01339,48.430054,76,76,0
48.01339,48.430054,88,90,0
48.01339,48.430054,81,76,0
48.430054,48.654774,79,79,0
48.430054,48.654774,74,79,0
48.430054,48.654774,86,94,0
48.430054,48.654774,83,79,0
48.654774,48.755444,62,76,0
48.755444,48.856117,67,79,0
48.856117,48.956787,71,82,0
48.956787,49.05746,74,85,0
49.05746,49.15813,79,88,0
49.15813,49.2588,83,91,0
49.2588,50.105255,84,93,0
49.2588,50.105255,72,79,0
49.2588,50.105255,77,79,0
49.2588,50.105255,80,79,0
50.105255,50.918816,79,77,0
50.105255,50.918816,71,77,0
50.105255,50.918816,77,77,0
50.105255,50.918816,83,91,0
50.918816,51.34135,79,78,0
50.918816,51.34135,84,92,0
50.918816,51.34135,72,78,0
51.34135,51.763885,78,76,0
51.34135,51.763885,76,76,0
51.34135,51.763885,88,90,0
51.34135,51.763885,81,76,0
51.763885,51.975155,79,79,0
51.763885,51.975155,74,79,0
51.763885,51.975155,86,94,0
51.763885,51.975155,83,79,0
51.975155,52.079323,67,76,0
52.079323,52.183487,71,79,0
52.183487,52.287655,74,82,0
52.287655,52.391823,79,85,0
52.391823,52.495987,83,88,0
52.495987,52.600155,86,91,0
52.600155,53.450558,91,93,0
52.600155,53.450558,79,79,0
52.600155,53.450558,82,79,0
52.600155,53.450558,85,79,0
54.27249,54.376297,88,89,0
54.376297,54.480103,91,82,0
54.480103,54.583908,88,82,0
54.583908,54.687717,85,82,0
54.687717,54.791523,82,86,0
54.791523,54.89533,79,75,0
54.89533,54.999134,76,75,0
54.999134,55.109837,73,75,0
55.109837,55.213642,76,81,0
55.213642,55.317448,79,73,0
55.317448,55.421253,76,73,0
55.421253,55.52506,73,73,0
55.52506,55.62887,70,80,0
55.62887,55.732674,67,74,0
55.732674,55.83648,64,74,0
55.83648,55.94637,61,74,0
55.94637,56.050537,64,77,0
56.050537,56.1547,67,58,0
56.1547,56.25887,64,58,0
56.25887,56.363037,61,58,0
56.363037,56.4672,64,64,0
56.4672,56.57137,67,53,0
56.57137,56.675056,64,52,0
56.675056,56.778507,61,52,0
56.778507,56.8816,64,57,0
56.8816,56.984573,67,48,0
56.984573,57.087315,64,48,0
57.087315,57.18982,61,48,0
57.18982,57.29221,64,54,0
57.29221,57.39425,67,46,0
57.39425,57.496174,64,46,0
57.496174,57.59787,61,46,0
57.59787,57.699223,62,50,0
57.699223,57.80057,67,41,0
57.80057,57.901924,62,41,0
57.901924,58.003273,55,41,0
58.003273,58.104626,62,49,0
58.104626,58.20598,67,41,0
58.20598,58.307327,62,41,0
58.307327,58.40868,55,41,0
58.40868,58.51003,62,48,0
58.51003,58.61138,67,41,0
58.61138,58.712734,62,41,0
58.712734,58.814083,55,41,0
58.814083,58.915096,62,48,0
58.915096,59.01656,67,41,0
59.01656,59.118484,62,40,0
59.118484,59.220993,55,40,0
59.32373,59.42647,64,41,0
59.42647,59.52921,71,41,0
59.52921,59.63195,64,41,0
59.220993,59.63195,59,55,0
59.73469,59.83743,64,41,0
59.83743,59.94017,71,41,0
59.94017,60.04291,64,41,0
59.63195,60.04291,59,53,0
60.14565,60.24839,64,41,0
60.24839,60.351128,71,41,0
60.351128,60.45387,64,41,0
60.04291,60.45387,59,52,0
60.55661,60.659348,64,41,0
60.659348,60.76209,69,40,0
60.76209,60.864826,64,40,0
60.45387,60.864826,57,52,0
60.864826,60.96876,59,50,0
60.96876,61.073532,62,41,0
61.073532,61.178673,69,41,0
61.178673,61.284184,62,41,0
61.284184,61.390068,59,49,0
61.390068,61.496326,62,41,0
61.496326,61.60296,67,41,0
61.60296,61.709976,62,41,0
61.709976,61.81712,60,48,0
61.81712,61.924263,62,41,0
61.924263,62.032047,67,41,0
62.032047,62.141674,62,41,0
62.141674,62.252785,60,48,0
62.252785,62.363895,62,41,0
62.363895,62.475006,66,40,0
62.475006,62.60053,62,40,0
62.60053,63.45093,91,93,0
62.60053,63.45093,79,79,0
62.60053,63.45093,82,79,0
62.60053,63.45093,85,79,0
64.272865,64.37667,88,89,0
64.37667,64.48048,91,82,0
64.48048,64.58428,88,82,0
64.58428,64.68809,85,82,0
64.68809,64.79189,82,86,0
64.79189,64.8957,79,75,0
64.8957,64.99951,76,75,0
64.99951,65.11021,73,75,0
65.11021,65.21401,76,81,0
65.21401,65.317825,79,73,0
65.317825,65.42163,76,73,0
65.42163,65.52544,73,73,0
65.52544,65.62924,70,80,0
65.62924,65.73305,67,74,0
65.73305,65.83685,64,74,0
65.83685,65.94675,61,74,0
65.94675,66.05091,64,77,0
66.05091,66.155075,67,58,0
66.155075,66.25925,64,58,0
66.25925,66.36341,61,58,0
66.36341,66.467575,64,64,0
66.467575,66.57175,67,53,0
66.57175,66.67543,64,52,0
66.67543,66.77888,61,52,0
66.77888,66.88197,64,57,0
66.88197,66.98495,67,48,0
66.98495,67.087685,64,48,0
67.087685,67.19019,61,48,0
67.19019,67.29258,64,54,0
67.29258,67.39462,67,46,0
67.39462,67.49655,64,46,0
67.49655,67.59824,61,46,0
67.59824,67.69959,64,50,0
67.69959,67.80095,67,41,0
67.80095,67.9023,64,41,0
67.9023,68.00365,55,41,0
68.00365,68.104996,64,49,0
68.104996,68.20635,67,41,0
68.20635,68.3077,64,41,0
68.3077,68.40905,55,41,0
68.40905,68.51041,64,48,0
68.51041,68.611755,67,41,0
68.611755,68.713104,64,41,0
68.713104,68.81446,55,41,0
68.81446,68.91547,64,48,0
68.91547,69.01694,67,41,0
69.01694,69.11886,64,40,0
69.11886,69.22137,55,40,0
69.324104,69.42684,64,41,0
69.42684,69.52959,71,41,0
69.52959,69.632324,64,41,0
69.22137,69.632324,59,55,0
69.73506,69.83781,64,41,0
69.83781,69.940544,71,41,0
69.940544,70.04328,64,41,0
69.632324,70.04328,59,53,0
70.14603,70.248764,64,41,0
70.248764,70.3515,71,41,0
70.3515,70.45424,64,41,0
70.04328,70.45424,59,52,0
70.55746,70.66126,64,41,0
70.66126,70.76579,69,40,0
70.76579,70.871056,64,40,0
70.45424,70.871056,57,52,0
70.871056,70.97379,59,34,0
70.97379,71.07654,62,34,0
71.179276,71.28201,62,34,0
71.28201,71.38475,59,32,0
71.38475,71.487495,62,34,0
71.07654,71.487495,69,40,0
71.59023,71.69297,62,33,0
71.69297,71.795715,59,32,0
71.795715,71.89869,62,33,0
71.487495,71.89869,69,40,0
72.00178,72.10523,62,33,0
72.10523,72.20879,59,32,0
72.20879,72.3126,62,33,0
71.89869,72.3126,69,39,0
72.41665,72.520935,62,33,0
72.520935,72.62368,60,33,0
72.62368,72.72642,62,33,0
72.3126,72.72642,67,39,0
72.829155,72.93189,62,33,0
72.93189,73.03464,60,31,0
73.03464,73.137375,62,33,0
72.72642,73.137375,67,39,0
73.24011,73.342735,62,33,0
73.342735,73.44513,60,34,0
73.44513,73.54787,62,35,0
73.137375,73.54787,66,39,0
73.65084,73.75417,62,34,0
73.75417,73.85774,60,35,0
73.85774,73.96166,62,34,0
73.54787,73.96166,64,40,0
74.065834,74.170364,62,34,0
73.96166,74.170364,66,40,0
74.170364,74.42568,71,40,0
74.170364,74.42568,59,40,0
74.42568,74.91079,71,47,0
74.93632,75.421425,71,47,0
75.44696,75.93206,71,47,0
75.957596,76.4427,71,44,0
76.46823,76.979965,72,50,0
76.979965,77.50345,71,48,0
77.50345,78.040985,70,48,0
78.040985,78.34402,69,45,0
78.34402,78.855865,68,36,0
78.34402,78.855865,56,30,0
78.86126,79.10695,68,34,0
78.86126,79.10695,56,27,0
79.11988,79.36557,68,34,0
79.11988,79.36557,56,27,0
79.3785,79.89035,68,36,0
79.3785,79.89035,56,30,0
79.89574,80.141426,68,33,0
79.89574,80.141426,56,27,0
80.15436,80.40005,68,33,0
80.15436,80.40005,56,27,0
80.41298,80.664024,68,36,0
80.41298,80.664024,56,30,0
80.664024,80.91507,71,34,0
80.664024,80.91507,59,27,0
80.91507,81.43231,69,34,0
80.91507,81.43231,57,27,0
82.460266,82.97212,69,36,0
82.460266,82.97212,57,30,0
82.97751,83.2232,69,34,0
82.97751,83.2232,57,27,0
83.23613,83.48182,69,34,0
83.23613,83.48182,57,27,0
83.49475,84.00661,69,36,0
83.49475,84.00661,57,30,0
84.01199,84.25768,69,33,0
84.01199,84.25768,57,27,0
84.270615,84.52283,69,33,0
84.270615,84.52283,57,27,0
84.5361,84.78715,70,36,0
84.5361,84.78715,58,30,0
84.78715,85.03819,73,34,0
84.78715,85.03819,61,27,0
85.03819,85.80967,71,34,0
85.03819,85.80967,59,27,0
85.80967,86.05863,76,43,0
85.80967,86.05863,64,30,0
86.05863,86.31614,78,47,0
86.05863,86.31614,66,33,0
86.31614,86.573654,80,52,0
86.31614,86.573654,68,36,0
86.31614,86.83116,76,52,0
86.83116,87.08868,75,54,0
87.08868,87.34618,73,51,0
87.34618,87.6037,71,50,0
86.573654,87.861206,81,59,0
86.573654,87.861206,69,41,0
87.861206,88.11871,80,40,0
87.861206,88.11871,68,27,0
88.11871,88.37623,78,40,0
88.11871,88.37623,69,27,0
88.37623,88.64772,76,40,0
87.6037,88.64772,71,46,0
88.37623,88.64772,71,27,0
88.64772,88.90523,76,47,0
88.90523,89.16274,75,41,0
88.64772,89.16274,71,34,0
89.16274,89.42475,75,44,0
89.42475,89.68676,73,36,0
89.16274,89.68676,70,29,0
89.68676,89.96713,71,36,0
89.96713,90.23029,71,27,0
89.96713,90.23029,83,39,0
90.23029,90.49345,82,36,0
90.23029,90.49345,70,26,0
90.49345,90.75661,81,36,0
90.49345,90.75661,69,25,0
90.75661,91.268456,80,36,0
90.75661,91.268456,68,30,0
91.27385,91.51954,80,34,0
91.27385,91.51954,68,27,0
91.53247,91.77816,80,34,0
91.53247,91.77816,68,27,0
91.791084,92.30294,80,36,0
91.791084,92.30294,68,30,0
92.30833,92.554016,80,33,0
92.30833,92.554016,68,27,0
92.56695,92.81264,80,33,0
92.56695,92.81264,68,27,0
92.82557,93.076614,80,36,0
92.82557,93.076614,68,30,0
93.076614,93.32766,83,34,0
93.076614,93.32766,71,27,0
93.32766,93.8449,81,34,0
93.32766,93.8449,69,27,0
94.86809,95.379944,81,36,0
94.86809,95.379944,69,30,0
95.38533,95.63102,81,34,0
95.38533,95.63102,69,27,0
95.64395,95.88964,81,34,0
95.64395,95.88964,69,27,0
95.90257,96.41442,81,36,0
95.90257,96.41442,69,30,0
96.41981,96.67091,81,33,0
96.41981,96.67091,69,27,0
96.68413,96.9468,81,33,0
96.68413,96.9468,69,27,0
96.960625,97.21272,82,36,0
96.960625,97.21272,70,30,0
97.21272,97.46483,84,34,0
97.21272,97.46483,72,27,0
97.46483,98.22898,83,34,0
97.46483,98.22898,71,27,0
99.008705,99.26081,83,45,0
99.008705,99.26081,71,45,0
99.26081,99.51291,86,40,0
99.26081,99.51291,74,40,0
99.51291,100.04302,84,41,0
99.51291,100.04302,72,41,0
100.04302,100.80879,88,54,0
100.04302,100.80879,76,54,0
100.80879,101.06966,84,43,0
100.80879,101.06966,72,43,0
101.06966,101.32176,82,45,0
101.06966,101.32176,70,45,0
101.32176,101.57386,84,40,0
101.32176,101.57386,72,40,0
101.57386,102.10397,83,41,0
101.57386,102.10397,71,41,0
102.10397,102.86974,88,54,0
102.10397,102.86974,76,54,0
102.86974,103.130615,83,43,0
102.86974,103.130615,71,43,0
103.130615,103.39149,81,46,0
103.130615,103.39149,69,39,0
103.39149,103.646805,83,49,0
103.39149,103.646805,71,41,0
103.646805,103.90212,84,51,0
103.646805,103.90212,72,51,0
103.90212,104.16528,81,46,0
103.90212,104.16528,69,39,0
104.16528,104.42844,79,45,0
104.16528,104.42844,67,37,0
104.42844,104.68595,82,46,0
104.42844,104.68595,70,39,0
104.68595,104.94346,83,49,0
104.68595,104.94346,71,41,0
104.94346,105.21013,79,45,0
104.94346,105.21013,67,37,0
105.21013,106.25601,78,43,0
105.21013,106.25601,75,36,0
105.21013,106.25601,66,36,0
107.31144,107.57345,69,46,0
107.31144,107.57345,57,39,0
107.57345,107.82877,71,49,0
107.57345,107.82877,59,41,0
107.82877,108.08409,72,51,0
107.82877,108.08409,60,51,0
108.08409,108.347244,69,46,0
108.08409,108.347244,57,39,0
108.347244,108.610405,67,45,0
108.347244,108.610405,55,37,0
108.610405,108.86791,70,46,0
108.610405,108.86791,58,39,0
108.86791,109.12543,71,49,0
108.86791,109.12543,59,41,0
109.12543,109.39209,67,45,0
109.12543,109.39209,55,37,0
109.39209,110.43798,66,43,0
109.39209,110.43798,63,36,0
109.39209,110.43798,54,36,0
110.69772,110.96088,66,40,0
110.69772,110.96088,62,40,0
110.96088,111.22404,66,42,0
110.96088,111.22404,64,42,0
110.96088,111.22404,61,42,0
111.22404,111.4872,66,44,0
111.22404,111.4872,62,44,0
111.22404,111.4872,59,44,0
111.4872,112.01966,66,45,0
112.01966,112.2794,65,44,0
111.4872,112.2794,56,45,0
112.2794,112.53915,66,45,0
112.2794,112.53915,61,45,0
112.2794,112.53915,57,45,0
112.53915,113.058624,68,47,0
112.53915,113.058624,65,47,0
112.53915,113.058624,61,47,0
113.058624,113.31837,69,47,0
113.058624,113.31837,66,47,0
113.058624,113.31837,61,47,0
113.31837,113.59234,73,47,0
113.31837,113.59234,65,47,0
113.31837,113.59234,61,47,0
113.59234,114.11182,71,51,0
114.11182,114.37498,69,45,0
113.59234,114.37498,66,51,0
113.59234,114.37498,61,51,0
114.37498,114.63814,68,45,0
114.37498,114.63814,61,45,0
114.37498,114.63814,59,45,0
114.63814,115.41736,66,49,0
114.63814,115.41736,61,49,0
114.63814,115.41736,57,49,0
115.41736,115.68642,64,45,0
115.41736,115.68642,56,45,0
115.68642,116.205894,64,46,0
116.205894,116.470215,63,45,0
115.68642,116.470215,54,46,0
116.470215,116.73453,64,45,0
116.470215,116.73453,59,45,0
116.470215,116.73453,56,45,0
116.73453,117.26316,66,49,0
116.73453,117.26316,63,49,0
116.73453,117.26316,59,49,0
117.26316,117.5229,68,43,0
117.26316,117.5229,64,43,0
117.26316,117.5229,59,43,0
117.5229,117.782646,71,43,0
117.5229,117.782646,63,43,0
117.5229,117.782646,59,43,0
117.782646,118.30896,69,47,0
118.30896,118.57563,68,39,0
117.782646,118.57563,64,47,0
117.782646,118.57563,59,47,0
118.57563,118.84229,66,37,0
118.57563,118.84229,59,37,0
118.57563,118.84229,57,37,0
118.84229,119.39275,64,43,0
118.84229,119.39275,59,43,0
118.84229,119.39275,56,43,0
119.39275,119.98099,64,36,0
119.39275,119.98099,59,36,0
119.39275,119.98099,56,36,0
119.98099,120.09757,64,36,0
119.98099,120.09757,60,30,0
120.09757,120.21355,55,30,0
120.21355,120.32879,64,36,0
120.21355,120.32879,60,31,0
120.32879,120.443436,55,32,0
120.443436,120.55736,64,38,0
120.443436,120.55736,60,32,0
120.55736,120.67057,55,33,0
120.67057,120.783066,64,40,0
120.67057,120.783066,60,34,0
120.783066,120.89487,55,34,0
120.89487,121.00612,64,41,0
120.89487,121.00612,60,35,0
121.00612,121.116684,55,34,0
121.116684,121.22658,64,44,0
121.116684,121.22658,60,36,0
121.22658,121.3358,55,37,0
121.3358,121.44437,64,46,0
121.3358,121.44437,60,38,0
121.44437,121.55241,55,37,0
121.55241,121.659805,64,46,0
121.55241,121.659805,60,39,0
121.659805,121.76657,55,40,0
121.76657,121.872826,67,49,0
121.76657,121.872826,64,41,0
121.872826,121.978584,60,41,0
121.978584,122.08397,67,50,0
121.978584,122.08397,64,42,0
122.08397,122.18899,60,43,0
122.18899,122.29364,67,52,0
122.18899,122.29364,64,44,0
122.29364,122.39781,60,44,0
122.39781,122.50162,67,54,0
122.39781,122.50162,64,46,0
122.50162,122.605064,60,44,0
122.605064,122.70804,72,57,0
122.605064,122.70804,67,48,0
122.70804,122.81066,64,48,0
122.81066,122.91293,72,57,0
122.81066,122.91293,67,49,0
122.91293,123.01486,64,48,0
123.01486,123.116325,72,59,0
123.01486,123.116325,67,50,0
123.116325,123.217445,64,49,0
123.217445,123.31823,72,61,0
123.217445,123.31823,67,52,0
123.31823,123.41868,64,51,0
123.41868,123.51868,76,63,0
123.41868,123.51868,72,53,0
123.51868,123.61857,67,52,0
123.61857,123.71824,76,65,0
123.61857,123.71824,72,55,0
123.71824,123.81769,67,53,0
123.81769,123.916916,79,67,0
123.81769,123.916916,76,57,0
123.916916,124.01592,72,56,0
124.01592,124.114716,79,68,0
124.01592,124.114716,76,58,0
124.114716,124.213295,72,57,0
124.213295,124.31165,79,60,0
124.213295,124.31165,84,71,0
124.31165,124.4098,76,59,0
124.4098,124.50773,84,72,0
124.4098,124.50773,79,61,0
124.50773,124.60545,76,62,0
124.60545,124.70296,84,63,0
124.60545,124.70296,88,75,0
124.70296,124.800255,79,62,0
124.800255,124.90664,84,65,0
124.800255,124.90664,88,77,0
124.90664,125.01302,79,64,0
125.01302,125.421074,88,88,0
125.01302,125.421074,76,74,0
125.01302,125.421074,79,74,0
125.01302,125.421074,84,74,0
125.42537,125.61644,88,83,0
125.42537,125.61644,76,70,0
125.42537,125.61644,79,70,0
125.42537,125.61644,84,70,0
125.626495,125.817566,88,83,0
125.626495,125.817566,76,70,0
125.626495,125.817566,79,70,0
125.626495,125.817566,84,70,0
125.82762,126.235664,88,88,0
125.82762,126.235664,76,74,0
125.82762,126.235664,79,74,0
125.82762,126.235664,84,74,0
126.23996,126.43103,88,82,0
126.23996,126.43103,76,69,0
126.23996,126.43103,79,69,0
126.23996,126.43103,84,69,0
126.441086,126.63216,88,82,0
126.441086,126.63216,76,69,0
126.441086,126.63216,79,69,0
126.441086,126.63216,84,69,0
126.64221,126.84766,88,88,0
126.64221,126.84766,76,74,0
126.64221,126.84766,79,74,0
126.64221,126.84766,84,74,0
128.30502,128.524,79,91,0
128.30502,128.524,67,76,0
128.30502,128.524,71,76,0
128.30502,128.524,77,91,0
128.74298,128.96196,67,85,0
128.74298,128.96196,59,71,0
128.74298,128.96196,55,71,0
128.74298,128.96196,65,85,0
130.072,130.48006,86,88,0
130.072,130.48006,77,74,0
130.072,130.48006,79,74,0
130.072,130.48006,83,74,0
130.48436,130.67543,86,83,0
130.48436,130.67543,77,70,0
130.48436,130.67543,79,70,0
130.48436,130.67543,83,70,0
130.68549,130.87656,86,83,0
130.68549,130.87656,77,70,0
130.68549,130.87656,79,70,0
130.68549,130.87656,83,70,0
130.88661,131.29465,86,88,0
130.88661,131.29465,77,74,0
130.88661,131.29465,79,74,0
130.88661,131.29465,83,74,0
131.29895,131.49002,86,82,0
131.29895,131.49002,77,69,0
131.29895,131.49002,79,69,0
131.29895,131.49002,83,69,0
131.50008,131.69115,86,82,0
131.50008,131.69115,77,69,0
131.50008,131.69115,79,69,0
131.50008,131.69115,83,69,0
131.7012,131.90665,86,88,0
131.7012,131.90665,77,74,0
131.7012,131.90665,79,74,0
131.7012,131.90665,83,74,0
133.36401,133.583,79,95,0
133.36401,133.583,72,79,0
133.36401,133.583,67,79,0
133.80197,134.02095,67,89,0
133.80197,134.02095,55,74,0
133.80197,134.02095,60,74,0
134.45877,134.56012,55,64,0
134.56012,134.66147,60,66,0
134.66147,134.7595,64,68,0
134.7595,134.85754,67,70,0
134.85754,134.95558,72,72,0
134.95558,135.05363,76,74,0
135.05363,135.4631,79,78,0
135.05363,135.4631,76,66,0
135.05363,135.4631,67,66,0
135.46742,135.65933,79,70,0
135.46742,135.65933,76,58,0
135.46742,135.65933,67,58,0
135.66943,135.86136,79,70,0
135.66943,135.86136,76,58,0
135.66943,135.86136,67,58,0
135.87146,136.50107,79,78,0
135.87146,136.50107,74,65,0
135.87146,136.50107,67,65,0
136.50107,136.7031,79,80,0
136.50107,136.7031,74,67,0
136.50107,136.7031,67,67,0
136.7031,137.11546,84,88,0
136.7031,137.11546,79,74,0
136.7031,137.11546,72,74,0
137.11546,137.32164,84,75,0
137.11546,137.32164,78,63,0
137.11546,137.32164,72,63,0
137.32164,137.52783,84,73,0
137.32164,137.52783,78,61,0
137.32164,137.52783,72,61,0
137.52783,137.74135,83,76,0
137.52783,137.74135,79,64,0
137.52783,137.74135,71,64,0
137.74135,137.84203,55,64,0
137.84203,137.94269,60,66,0
137.94269,138.04074,64,68,0
138.04074,138.13878,67,70,0
138.13878,138.23682,72,72,0
138.23682,138.33485,76,74,0
138.33485,138.74434,79,78,0
138.33485,138.74434,76,66,0
138.33485,138.74434,67,66,0
138.74864,138.94057,79,70,0
138.74864,138.94057,76,58,0
138.74864,138.94057,67,58,0
138.95067,139.14258,79,70,0
138.95067,139.14258,76,58,0
138.95067,139.14258,67,58,0
139.15268,139.78229,79,78,0
139.15268,139.78229,74,65,0
139.15268,139.78229,67,65,0
139.78229,139.98431,79,80,0
139.78229,139.98431,74,67,0
139.78229,139.98431,67,67,0
139.98431,140.39668,84,88,0
139.98431,140.39668,79,74,0
139.98431,140.39668,72,74,0
140.39668,140.80905,84,75,0
140.39668,140.80905,78,63,0
140.39668,140.80905,72,63,0
140.80905,141.01524,83,76,0
140.80905,141.01524,79,64,0
140.80905,141.01524,71,64,0
141.01524,141.1159,60,64,0
141.1159,141.21658,65,66,0
141.21658,141.31462,69,68,0
141.31462,141.41266,72,70,0
141.41266,141.5107,77,72,0
141.5107,141.60873,81,74,0
141.60873,142.01822,84,85,0
141.60873,142.01822,81,72,0
141.60873,142.01822,72,72,0
142.02254,142.21445,84,77,0
142.02254,142.21445,81,63,0
142.02254,142.21445,72,63,0
142.22455,142.41647,84,77,0
142.22455,142.41647,81,63,0
142.22455,142.41647,72,63,0
142.42657,143.06769,84,85,0
142.42657,143.06769,79,71,0
142.42657,143.06769,72,71,0
143.06769,143.2812,84,88,0
143.06769,143.2812,79,73,0
143.06769,143.2812,72,73,0
143.2812,143.68929,89,96,0
143.2812,143.68929,84,81,0
143.2812,143.68929,77,81,0
143.69357,143.88945,89,90,0
143.69357,143.88945,83,75,0
143.69357,143.88945,77,75,0
143.89977,144.09564,89,78,0
143.89977,144.09564,83,66,0
143.89977,144.09564,77,66,0
144.10594,144.51402,88,92,0
144.10594,144.51402,83,76,0
144.10594,144.51402,76,76,0
144.51833,144.92236,76,70,0
144.51833,144.92236,81,70,0
144.51833,144.92236,88,84,0
144.92236,145.12854,86,92,0
144.92236,145.12854,81,78,0
144.92236,145.12854,74,78,0
145.12854,145.33473,86,78,0
145.12854,145.33473,80,78,0
145.12854,145.33473,74,78,0
145.33473,145.7471,84,87,0
145.33473,145.7471,81,73,0
145.33473,145.7471,72,73,0
145.7471,146.15947,83,92,0
145.7471,146.15947,81,76,0
145.7471,146.15947,71,76,0
145.7471,146.15947,77,76,0
146.15947,146.52432,71,74,0
146.15947,146.52432,80,74,0
146.15947,146.52432,83,89,0
146.15947,146.52432,76,74,0
146.52432,146.5745,81,82,0
146.5745,146.77788,93,92,0
146.77788,146.87958,91,82,0
146.87958,146.98128,89,82,0
146.98128,147.08296,88,81,0
147.08296,147.18466,86,81,0
147.18466,147.28636,84,80,0
147.28636,147.38805,83,79,0
147.38805,147.48975,81,79,0
147.48975,147.59145,79,78,0
147.59145,147.69313,77,78,0
147.69313,147.79483,76,77,0
147.79483,147.89653,74,77,0
147.89653,147.99821,72,75,0
147.99821,148.09991,71,74,0
148.09991,148.20161,69,74,0
148.20161,148.29997,68,71,0
148.29997,148.39833,65,64,0
148.39833,148.50287,64,64,0
148.50287,148.60739,62,64,0
148.60739,148.71013,68,63,0
148.71013,148.81287,65,57,0
148.81287,148.91562,64,57,0
148.91562,149.01836,62,57,0
149.01836,149.1211,68,67,0
149.1211,149.22383,65,58,0
149.22383,149.32657,64,58,0
149.32657,149.4293,62,58,0
149.4293,149.53204,68,64,0
149.53204,149.6348,65,59,0
149.6348,149.75063,64,59,0
149.75063,149.80095,62,59,0
149.80095,149.85129,83,81,0
149.85129,150.05469,95,92,0
150.05469,150.15637,93,82,0
150.15637,150.25807,92,82,0
150.25807,150.35977,89,81,0
150.35977,150.46146,88,81,0
150.46146,150.56316,86,80,0
150.56316,150.66486,84,79,0
150.66486,150.76654,83,79,0
150.76654,150.86824,81,78,0
150.86824,150.96994,80,78,0
150.96994,151.07162,77,77,0
151.07162,151.17332,76,77,0
151.17332,151.27502,74,75,0
151.27502,151.37671,72,74,0
151.37671,151.47841,71,74,0
151.47841,151.57677,69,71,0
151.57677,151.67513,63,64,0
151.67513,151.77966,64,64,0
151.77966,151.88419,57,64,0
151.88419,151.98694,69,63,0
151.98694,152.08968,63,57,0
152.08968,152.19241,64,57,0
152.19241,152.29515,57,57,0
152.29515,152.39789,69,67,0
152.39789,152.50063,63,58,0
152.50063,152.60336,64,58,0
152.60336,152.70612,57,58,0
152.70612,152.80885,69,64,0
152.80885,152.91159,63,59,0
152.91159,153.01433,64,59,0
153.01433,153.11707,57,59,0
153.11707,153.21542,70,67,0
153.21542,153.3138,64,61,0
153.3138,153.41832,65,61,0
153.41832,153.52284,58,61,0
153.52284,153.6256,70,60,0
153.6256,153.72833,64,53,0
153.72833,153.83107,65,53,0
153.83107,153.9338,58,53,0
153.9338,154.03654,70,59,0
154.03654,154.13928,64,51,0
154.13928,154.24202,65,51,0
154.24202,154.34477,58,51,0
154.34477,154.44751,70,58,0
154.44751,154.55025,64,52,0
154.55025,154.65298,65,52,0
154.65298,154.75572,58,52,0
154.75572,154.85846,73,53,0
154.85846,154.96088,66,47,0
154.96088,155.06306,67,47,0
155.06306,155.16502,61,48,0
155.16502,155.26672,74,54,0
155.26672,155.3681,68,48,0
155.3681,155.46925,69,48,0
155.46925,155.57018,62,49,0
155.57018,155.67085,76,55,0
155.67085,155.77121,70,49,0
155.77121,155.87135,71,49,0
155.87135,155.97127,64,49,0
155.97127,156.07094,77,56,0
156.07094,156.1703,71,49,0
156.1703,156.26944,72,49,0
156.26944,156.36845,65,50,0
156.36845,156.46747,80,57,0
156.46747,156.56648,75,52,0
156.56648,156.66548,76,53,0
156.66548,156.7645,68,54,0
156.7645,156.86484,81,59,0
156.86484,156.96516,75,52,0
156.96516,157.0655,76,53,0
157.0655,157.16583,69,53,0
157.16583,157.26485,83,66,0
157.26485,157.36386,75,54,0
157.36386,157.46286,81,53,0
157.46286,157.56187,71,52,0
157.56187,157.66089,84,57,0
157.66089,157.75989,76,49,0
157.75989,157.8589,80,48,0
157.8589,157.95792,72,48,0
157.95792,158.36046,93,79,0
157.95792,158.36046,81,66,0
158.3647,158.5579,93,73,0
158.3647,158.5579,81,62,0
158.56808,158.7613,93,73,0
158.56808,158.7613,81,62,0
158.77147,159.17401,93,79,0
158.77147,159.17401,81,66,0
159.17825,159.37148,93,73,0
159.17825,159.37148,81,62,0
159.38164,159.57486,93,72,0
159.38164,159.57486,81,61,0
159.58504,159.78175,93,79,0
159.58504,159.78175,81,66,0
159.78175,159.99081,90,73,0
159.78175,159.99081,78,62,0
159.99081,160.40831,91,76,0
159.99081,160.40831,79,64,0
160.40831,161.23022,45,97,0
161.23022,161.63277,91,79,0
161.23022,161.63277,79,66,0
161.63701,161.83023,91,73,0
161.63701,161.83023,79,62,0
161.8404,162.03362,91,73,0
161.8404,162.03362,79,62,0
162.0438,162.44633,91,79,0
162.0438,162.44633,79,66,0
162.45056,162.64378,91,73,0
162.45056,162.64378,79,62,0
162.65396,162.84718,91,72,0
162.65396,162.84718,79,61,0
162.85735,163.05406,91,79,0
162.85735,163.05406,79,66,0
163.05406,163.26312,88,73,0
163.05406,163.26312,76,62,0
163.26312,163.67987,89,76,0
163.26312,163.67987,77,64,0
163.67987,164.50179,45,97,0
164.50179,164.69852,89,75,0
164.50179,164.69852,77,62,0
164.69852,164.90758,87,68,0
164.69852,164.90758,75,58,0
164.90758,165.32433,88,69,0
164.90758,165.32433,76,58,0
165.32433,166.14624,45,86,0
166.14624,166.34557,88,65,0
166.14624,166.34557,76,54,0
166.34557,166.5591,85,59,0
166.34557,166.5591,73,50,0
166.5591,166.9787,86,60,0
166.5591,166.9787,74,51,0
166.9787,167.80061,45,74,0
167.80061,168.004,86,58,0
167.80061,168.004,74,48,0
168.004,168.22623,83,53,0
168.004,168.22623,71,45,0
168.22623,168.6565,84,54,0
168.22623,168.6565,72,45,0
168.6565,168.86926,69,47,0
168.6565,168.86926,81,56,0
168.86926,169.08203,83,59,0
168.86926,169.08203,71,50,0
169.08203,169.2948,84,62,0
169.08203,169.2948,72,52,0
169.2948,169.50757,86,65,0
169.2948,169.50757,74,55,0
169.50757,169.94589,76,57,0
169.50757,169.94589,88,68,0
169.94589,170.27316,86,66,0
169.94589,170.27316,74,56,0
170.27316,170.38428,84,55,0
170.27316,170.38428,72,46,0
170.38428,170.82872,72,51,0
170.38428,170.82872,84,61,0
170.82872,171.29047,83,56,0
170.82872,171.29047,71,47,0
171.29047,171.73656,80,59,0
171.29047,171.73656,68,50,0
171.73656,171.95961,81,56,0
171.73656,171.95961,69,47,0
172.19289,172.41846,69,47,0
172.19289,172.41846,81,56,0
172.41846,172.64403,83,59,0
172.41846,172.64403,71,50,0
172.64403,172.86958,84,62,0
172.64403,172.86958,72,52,0
172.86958,173.09515,86,65,0
172.86958,173.09515,74,55,0
173.09515,173.56085,76,57,0
173.09515,173.56085,88,68,0
173.56085,173.9058,86,66,0
173.56085,173.9058,74,56,0
173.9058,174.022,84,55,0
173.9058,174.022,72,46,0
174.022,174.49393,72,51,0
174.022,174.49393,84,61,0
174.49393,174.97156,83,56,0
174.49393,174.97156,71,47,0
174.96205,175.07613,81,69,0
175.07613,175.1902,75,61,0
175.1902,175.29889,76,61,0
175.29889,175.4076,69,61,0
175.4076,175.51869,69,66,0
175.51869,175.6298,63,61,0
175.6298,175.74092,64,61,0
175.74092,175.85204,57,61,0
175.85204,175.96524,82,69,0
175.96524,176.07845,76,62,0
176.07845,176.18713,77,62,0
176.18713,176.29584,70,62,0
176.29584,176.40654,70,66,0
176.40654,176.51724,64,62,0
176.51724,176.62794,65,62,0
176.62794,176.73865,58,63,0
176.73865,176.84933,85,72,0
176.84933,176.96004,78,63,0
176.96004,177.06718,79,64,0
177.06718,177.17433,73,64,0
177.17433,177.28545,73,70,0
177.28545,177.39655,66,64,0
177.39655,177.50766,67,63,0
177.50766,177.61877,61,63,0
177.61877,177.72786,86,75,0
177.72786,177.83696,80,63,0
177.83696,177.94185,81,64,0
177.94185,178.04674,74,64,0
178.04674,178.15826,74,69,0
178.15826,178.26979,68,64,0
178.26979,178.38132,69,64,0
178.38132,178.49284,62,64,0
178.49284,178.60274,89,76,0
178.60274,178.71262,85,65,0
178.71262,178.82935,86,65,0
178.82935,178.94609,77,65,0
178.94609,179.05887,89,71,0
179.05887,179.17165,85,66,0
179.17165,179.28442,86,66,0
179.28442,179.39722,77,66,0
179.39722,179.51,89,70,0
179.51,179.62277,85,61,0
179.62277,179.73557,86,61,0
179.73557,179.86377,77,61,0
179.86377,179.9828,80,64,0
179.9828,180.10185,83,58,0
180.10185,180.2209,86,58,0
180.2209,180.33995,89,58,0
180.33995,180.7894,76,51,0
180.33995,180.7894,88,61,0
180.7894,181.11667,86,59,0
180.7894,181.11667,74,50,0
181.11667,181.22778,84,49,0
181.11667,181.22778,72,41,0
181.22778,181.67223,72,45,0
181.22778,181.67223,84,54,0
181.67223,182.15913,83,50,0
181.67223,182.15913,71,42,0
182.15913,182.61632,76,36,0
182.15913,182.61632,88,43,0
182.61632,182.94843,86,42,0
182.61632,182.94843,74,36,0
182.94843,183.05952,84,35,0
182.94843,183.05952,72,28,0
183.05952,183.51581,72,32,0
183.05952,183.51581,84,38,0
183.51581,183.99794,83,36,0
183.51581,183.99794,71,29,0
183.99794,184.11288,81,69,0
184.11288,184.22781,75,61,0
184.22781,184.33812,76,61,0
184.33812,184.44197,69,61,0
184.44841,184.56078,69,66,0
184.56078,184.67313,63,61,0
184.67313,184.78549,64,61,0
184.78549,184.89784,57,61,0
184.89784,185.00937,82,68,0
185.00937,185.1209,76,61,0
185.1209,185.22958,77,62,0
185.22958,185.33104,70,62,0
185.33829,185.44899,70,66,0
185.44899,185.5597,64,62,0
185.5597,185.6704,65,62,0
185.6704,185.7811,58,62,0
185.7811,185.89178,85,72,0
185.89178,186.00249,78,62,0
186.00249,186.10963,79,62,0
186.10963,186.21053,73,62,0
186.21678,186.32707,73,69,0
186.32707,186.43736,66,63,0
186.43736,186.54765,67,62,0
186.54765,186.65796,61,62,0
186.65796,186.76625,86,74,0
186.76625,186.87456,80,63,0
186.87456,186.97873,81,63,0
186.97873,187.07681,74,63,0
187.0829,187.19441,74,68,0
187.19441,187.30594,68,63,0
187.30594,187.41747,69,63,0
187.41747,187.52899,62,63,0
187.52899,187.6373,88,74,0
187.6373,187.7456,82,64,0
187.7456,187.8505,83,65,0
187.8505,187.94753,76,65,0
187.95538,188.0665,76,71,0
188.0665,188.17761,70,65,0
188.17761,188.28873,71,64,0
188.28873,188.39983,64,64,0
188.39983,188.51094,89,76,0
188.51094,188.62206,83,64,0
188.62206,188.72997,84,64,0
188.72997,188.82799,77,64,0
188.83788,188.9494,77,70,0
188.9494,189.06093,71,65,0
189.06093,189.18541,72,65,0
189.18541,189.30264,65,65,0
189.30264,189.50812,92,88,0
189.30264,189.50812,80,81,0
189.50812,189.61122,91,81,0
189.61122,189.71431,89,80,0
189.71431,189.81764,87,79,0
189.81764,189.92108,86,78,0
189.92108,190.02466,84,77,0
190.02466,190.12846,82,76,0
190.12846,190.23227,80,75,0
190.23227,190.33644,79,74,0
190.33644,190.4406,77,73,0
190.4406,190.54501,75,72,0
190.54501,190.64954,74,72,0
190.64954,190.7542,72,71,0
190.7542,190.85909,70,70,0
190.85909,190.96397,69,69,0
190.96397,191.06924,68,68,0
191.06924,191.17476,67,66,0
191.17476,191.28052,65,65,0
191.28052,191.38652,63,64,0
191.38652,191.4929,62,63,0
191.4929,191.59953,60,62,0
191.59953,191.70642,58,61,0
191.70642,191.81357,56,60,0
191.81357,191.9211,57,59,0
191.9211,192.02888,58,59,0
192.02888,192.13693,60,58,0
192.13693,192.24522,58,57,0
192.24522,192.35393,57,56,0
192.35393,192.46289,58,55,0
192.46289,192.57211,60,54,0
192.57211,192.6816,58,53,0
192.6816,192.82852,57,53,0
192.82852,192.97694,60,46,0
192.97694,193.12704,58,46,0
193.12704,193.27885,57,51,0
193.27885,193.4324,60,45,0
193.4324,193.58774,58,45,0
193.58774,193.7476,57,53,0
193.7476,193.91536,60,42,0
193.91536,194.092,58,42,0
194.092,194.27765,57,49,0
194.27765,194.47592,60,38,0
194.47592,194.74496,58,38,0
194.74496,195.04495,69,44,0
194.74496,195.04495,57,36,0
195.04495,195.33623,72,36,0
195.04495,195.33623,60,30,0
195.33623,195.92749,70,36,0
195.33623,195.92749,58,30,0
195.92749,196.21875,69,42,0
195.92749,196.21875,57,35,0
196.21875,196.51001,72,35,0
196.21875,196.51001,60,29,0
196.51001,197.11377,70,35,0
196.51001,197.11377,58,29,0
197.11377,197.41833,69,44,0
197.41833,197.71245,72,39,0
197.71245,198.5696,70,50,0
198.5696,198.84998,72,46,0
198.84998,199.13034,74,48,0
199.13034,199.42592,75,50,0
199.42592,199.72003,69,52,0
199.72003,200.0044,72,49,0
200.0044,200.85747,70,53,0
200.85747,201.13785,72,47,0
201.13785,201.41821,74,49,0
201.41821,201.71379,75,52,0
201.71379,202.01991,76,57,0
202.01991,202.30428,79,55,0
202.30428,203.15735,77,58,0
203.15735,203.43773,74,55,0
203.43773,203.7181,72,53,0
203.7181,204.01366,70,53,0
204.01366,204.30779,76,57,0
204.30779,204.59213,79,53,0
204.59213,205.44522,77,58,0
205.44522,205.7256,74,55,0
205.7256,206.00209,72,53,0
206.00209,206.29765,70,53,0
206.29765,206.60378,69,46,0
206.29765,206.60378,81,55,0
206.60378,206.88814,72,42,0
206.60378,206.88814,84,51,0
206.88814,207.74123,70,49,0
206.88814,207.74123,82,58,0
207.74123,208.02159,72,42,0
207.74123,208.02159,84,50,0
208.02159,208.30197,74,44,0
208.02159,208.30197,86,52,0
208.30197,208.59753,75,46,0
208.30197,208.59753,87,55,0
208.59753,208.89165,69,48,0
208.59753,208.89165,81,57,0
208.89165,209.17601,72,45,0
208.89165,209.17601,84,53,0
209.17601,210.03741,70,49,0
209.17601,210.03741,82,58,0
210.03741,210.3178,72,42,0
210.03741,210.3178,84,51,0
210.3178,210.59428,74,45,0
210.3178,210.59428,86,53,0
210.59428,210.88985,75,48,0
210.59428,210.88985,87,57,0
210.88985,211.18398,76,52,0
210.88985,211.18398,88,62,0
211.18398,211.46834,79,47,0
211.18398,211.46834,91,56,0
211.46834,212.32141,77,51,0
211.46834,212.32141,89,61,0
212.32141,212.60179,74,50,0
212.32141,212.60179,86,60,0
212.60179,212.88216,72,49,0
212.60179,212.88216,84,58,0
212.88216,213.19144,70,49,0
212.88216,213.19144,82,58,0
213.19144,213.48555,76,52,0
213.19144,213.48555,88,62,0
213.48555,213.76991,79,48,0
213.48555,213.76991,91,57,0
213.76991,214.623,77,52,0
213.76991,214.623,89,62,0
214.623,214.90337,74,50,0
214.623,214.90337,86,60,0
214.90337,215.18375,72,49,0
214.90337,215.18375,84,58,0
215.18375,215.47931,70,49,0
215.18375,215.47931,82,58,0
215.47931,215.7951,70,52,0
215.47931,215.7951,82,62,0
215.7951,216.07945,80,48,0
215.7951,216.07945,92,57,0
216.07945,216.94086,79,52,0
216.07945,216.94086,91,62,0
216.94086,217.22124,77,50,0
216.94086,217.22124,89,60,0
217.22124,217.50162,74,49,0
217.22124,217.50162,86,58,0
217.50162,217.79718,71,49,0
217.50162,217.79718,83,58,0
217.79718,218.09718,67,52,0
217.79718,218.09718,79,62,0
218.09718,218.38153,77,48,0
218.09718,218.38153,89,57,0
218.38153,219.24294,75,52,0
218.38153,219.24294,87,62,0
219.24294,219.52332,73,50,0
219.24294,219.52332,85,60,0
219.52332,219.80368,70,49,0
219.52332,219.80368,82,58,0
219.80368,220.09926,67,49,0
219.80368,220.09926,79,58,0
220.09926,220.39926,63,52,0
220.09926,220.39926,75,62,0
220.39926,220.68361,73,47,0
220.39926,220.68361,85,56,0
220.68361,221.55846,72,50,0
220.68361,221.55846,84,60,0
221.55846,221.83884,70,45,0
221.55846,221.83884,82,54,0
221.83884,222.1192,72,43,0
221.83884,222.1192,84,51,0
222.1192,222.41476,73,42,0
222.1192,222.41476,85,50,0
222.41476,222.71477,63,44,0
222.41476,222.71477,75,52,0
222.71477,222.99913,70,40,0
222.71477,222.99913,82,47,0
222.99913,223.86053,68,42,0
222.99913,223.86053,80,50,0
223.86053,224.14626,67,38,0
223.86053,224.14626,79,45,0
224.14626,224.4361,68,36,0
224.14626,224.4361,80,42,0
224.4361,224.75024,70,35,0
224.4361,224.75024,82,41,0
224.75024,225.04436,74,44,0
225.04436,225.32872,77,40,0
225.32872,226.11884,75,46,0
226.11884,226.19237,72,41,0
226.19237,226.40665,87,55,0
226.40665,226.47809,70,38,0
226.47809,226.69237,85,52,0
226.69237,226.7638,68,38,0
226.7638,227.05936,84,52,0
227.05936,227.35349,74,44,0
227.35349,227.63785,77,40,0
227.63785,228.42441,75,46,0
228.42441,228.49687,72,41,0
228.49687,228.70715,87,55,0
228.70715,228.77725,70,38,0
228.77725,228.98753,85,52,0
228.98753,229.05762,68,38,0
229.05762,229.3532,84,52,0
229.3532,229.64731,69,44,0
229.64731,229.93167,72,40,0
229.93167,230.73569,70,46,0
230.73569,230.81381,63,41,0
230.81381,231.0281,79,55,0
231.0281,231.09953,65,38,0
231.09953,231.31381,80,52,0
231.31381,231.38525,67,38,0
231.38525,231.68082,82,52,0
231.68082,231.97493,69,44,0
231.97493,232.2593,72,40,0
232.2593,233.05301,70,46,0
233.05301,233.128,63,41,0
233.128,233.34969,79,55,0
233.34969,233.42358,65,38,0
233.42358,233.64525,80,52,0
233.64525,233.71915,67,38,0
233.71915,234.02843,82,52,0
234.02843,234.34421,63,49,0
234.02843,234.34421,75,58,0
234.34421,234.62857,73,45,0
234.34421,234.62857,85,54,0
234.62857,235.48997,72,49,0
234.62857,235.48997,84,58,0
235.48997,235.77036,70,47,0
235.48997,235.77036,82,57,0
235.77036,236.05072,67,46,0
235.77036,236.05072,79,55,0
236.05072,236.3463,64,46,0
236.05072,236.3463,76,55,0
236.3463,236.64629,72,49,0
236.3463,236.64629,84,58,0
236.64629,236.93065,82,45,0
236.64629,236.93065,94,54,0
236.93065,237.79205,80,49,0
236.93065,237.79205,92,58,0
237.79205,238.07243,78,47,0
237.79205,238.07243,90,57,0
238.07243,238.3528,75,46,0
238.07243,238.3528,87,55,0
238.3528,238.66208,72,46,0
238.3528,238.66208,84,55,0
238.66208,238.96208,68,52,0
238.66208,238.96208,80,62,0
238.96208,239.24644,78,47,0
238.96208,239.24644,90,56,0
239.24644,240.10785,77,50,0
239.24644,240.10785,89,60,0
240.10785,240.39355,75,45,0
240.10785,240.39355,87,54,0
240.39355,240.67928,77,43,0
240.39355,240.67928,89,51,0
240.67928,240.97484,78,42,0
240.67928,240.97484,90,50,0
240.97484,241.27484,68,44,0
240.97484,241.27484,80,52,0
241.27484,241.5592,75,40,0
241.27484,241.5592,87,47,0
241.5592,242.44041,73,42,0
241.5592,242.44041,85,50,0
242.44041,242.73454,72,38,0
242.44041,242.73454,84,45,0
242.73454,243.02866,73,36,0
242.73454,243.02866,85,42,0
243.02866,243.32422,75,35,0
243.02866,243.32422,87,41,0
243.32422,243.71614,89,92,0
243.32422,243.71614,77,77,0
243.32422,243.71614,80,77,0
243.32422,243.71614,85,77,0
243.72026,243.81685,89,87,0
243.72026,243.81685,77,73,0
243.72026,243.81685,80,73,0
243.72026,243.81685,85,73,0
243.91344,244.01003,89,87,0
243.91344,244.01003,77,73,0
243.91344,244.01003,80,73,0
243.91344,244.01003,85,73,0
244.10661,244.49852,89,92,0
244.10661,244.49852,77,77,0
244.10661,244.49852,80,77,0
244.10661,244.49852,85,77,0
244.50266,244.59924,89,86,0
244.50266,244.59924,77,72,0
244.50266,244.59924,80,72,0
244.50266,244.59924,85,72,0
244.69583,244.7924,89,86,0
244.69583,244.7924,77,72,0
244.69583,244.7924,80,72,0
244.69583,244.7924,85,72,0
244.88899,245.03699,89,92,0
244.88899,245.03699,77,77,0
244.88899,245.03699,80,77,0
244.88899,245.03699,85,77,0
245.08632,245.18141,89,70,0
245.18141,245.2765,85,72,0
245.2765,245.3716,80,73,0
245.3716,245.46669,77,75,0
245.46669,245.56178,73,77,0
245.56178,245.65688,68,78,0
245.65688,245.75197,65,81,0
245.75197,245.84727,61,80,0
245.84727,245.94289,65,79,0
245.94289,246.03883,68,78,0
246.03883,246.13498,73,78,0
246.13498,246.23145,77,77,0
246.23145,246.33661,80,76,0
246.33661,246.48987,85,75,0
246.48987,246.88179,89,92,0
246.48987,246.88179,77,77,0
246.48987,246.88179,82,77,0
246.48987,246.88179,85,77,0
246.88591,246.9825,89,87,0
246.88591,246.9825,77,73,0
246.88591,246.9825,82,73,0
246.88591,246.9825,85,73,0
247.07909,247.17567,89,87,0
247.07909,247.17567,77,73,0
247.07909,247.17567,82,73,0
247.07909,247.17567,85,73,0
247.27226,247.66417,89,92,0
247.27226,247.66417,77,77,0
247.27226,247.66417,82,77,0
247.27226,247.66417,85,77,0
247.6683,247.7649,89,86,0
247.6683,247.7649,77,72,0
247.6683,247.7649,82,72,0
247.6683,247.7649,85,72,0
247.86148,247.95807,89,86,0
247.86148,247.95807,77,72,0
247.86148,247.95807,82,72,0
247.86148,247.95807,85,72,0
248.05466,248.20264,89,92,0
248.05466,248.20264,77,77,0
248.05466,248.20264,82,77,0
248.05466,248.20264,85,77,0
248.25197,248.34706,89,71,0
248.34706,248.44215,85,72,0
248.44215,248.53725,82,73,0
248.53725,248.63234,77,74,0
248.63234,248.72743,73,75,0
248.72743,248.82253,70,75,0
248.82253,248.91762,65,76,0
248.91762,249.01292,61,77,0
249.01292,249.10854,65,76,0
249.10854,249.20448,70,75,0
249.20448,249.30063,73,74,0
249.30063,249.3971,77,73,0
249.3971,249.50342,82,73,0
249.50342,249.65273,85,72,0
249.65273,250.04463,90,82,0
249.65273,250.04463,78,69,0
249.65273,250.04463,82,69,0
249.65273,250.04463,85,69,0
250.04877,250.14534,90,77,0
250.04877,250.14534,78,66,0
250.04877,250.14534,82,66,0
250.04877,250.14534,85,66,0
250.24193,250.33852,90,77,0
250.24193,250.33852,78,66,0
250.24193,250.33852,82,66,0
250.24193,250.33852,85,66,0
250.4351,250.82703,90,90,0
250.4351,250.82703,78,75,0
250.4351,250.82703,81,75,0
250.4351,250.82703,86,75,0
250.83115,250.92773,90,84,0
250.83115,250.92773,78,71,0
250.83115,250.92773,81,71,0
250.83115,250.92773,86,71,0
251.02432,251.12091,90,84,0
251.02432,251.12091,78,71,0
251.02432,251.12091,81,71,0
251.02432,251.12091,86,71,0
251.2175,251.36548,90,90,0
251.2175,251.36548,78,75,0
251.2175,251.36548,80,75,0
251.2175,251.36548,87,75,0
251.41481,251.5099,78,60,0
251.5099,251.605,77,62,0
251.605,251.70009,75,63,0
251.70009,251.79518,77,64,0
251.79518,251.89027,75,66,0
251.89027,251.98537,73,67,0
251.98537,252.08046,72,70,0
252.08046,252.17577,73,70,0
252.17577,252.2714,72,69,0
252.2714,252.36732,73,68,0
252.36732,252.46347,75,67,0
252.46347,252.55995,77,66,0
252.55995,252.66628,78,65,0
252.66628,252.81557,80,64,0
252.81557,253.20749,90,82,0
252.81557,253.20749,78,69,0
252.81557,253.20749,82,69,0
252.81557,253.20749,85,69,0
253.21161,253.3082,90,77,0
253.21161,253.3082,78,66,0
253.21161,253.3082,82,66,0
253.21161,253.3082,85,66,0
253.40479,253.50137,90,77,0
253.40479,253.50137,78,66,0
253.40479,253.50137,82,66,0
253.40479,253.50137,85,66,0
253.59796,253.98987,90,90,0
253.59796,253.98987,78,75,0
253.59796,253.98987,81,75,0
253.59796,253.98987,86,75,0
253.994,254.09059,90,84,0
253.994,254.09059,78,71,0
253.994,254.09059,81,71,0
253.994,254.09059,86,71,0
254.18716,254.28375,90,84,0
254.18716,254.28375,78,71,0
254.18716,254.28375,81,71,0
254.18716,254.28375,86,71,0
254.38034,254.52834,90,90,0
254.38034,254.52834,78,75,0
254.38034,254.52834,80,75,0
254.38034,254.52834,87,75,0
254.57767,254.67276,78,61,0
254.67276,254.76785,77,62,0
254.76785,254.86295,75,63,0
254.86295,254.95804,77,64,0
254.95804,255.05313,75,65,0
255.05313,255.14822,73,67,0
255.14822,255.24332,72,68,0
255.24332,255.33862,73,68,0
255.33862,255.43423,72,68,0
255.43423,255.53017,73,67,0
255.53017,255.62633,75,66,0
255.62633,255.7228,77,66,0
255.7228,255.82912,78,65,0
255.82912,255.97841,80,65,0
255.97841,256.37033,81,80,0
255.97841,256.37033,69,68,0
255.97841,256.37033,73,68,0
255.97841,256.37033,78,68,0
256.37445,256.47104,81,74,0
256.37445,256.47104,69,63,0
256.37445,256.47104,73,63,0
256.37445,256.47104,78,63,0
256.56763,256.6642,81,74,0
256.56763,256.6642,69,63,0
256.56763,256.6642,78,63,0
256.56763,256.6642,73,63,0
256.7608,257.1527,86,81,0
256.7608,257.1527,74,69,0
256.7608,257.1527,78,69,0
256.7608,257.1527,81,69,0
257.15683,257.25342,86,76,0
257.15683,257.25342,74,65,0
257.15683,257.25342,78,65,0
257.15683,257.25342,81,65,0
257.35,257.4466,86,77,0
257.35,257.4466,74,65,0
257.35,257.4466,78,65,0
257.35,257.4466,81,65,0
257.54318,257.93924,83,82,0
257.54318,257.93924,79,58,0
257.54318,257.93924,71,58,0
257.93924,258.3256,84,75,0
257.93924,258.3256,72,64,0
257.93924,258.3256,76,64,0
257.93924,258.3256,81,64,0
258.3256,258.72162,81,80,0
258.3256,258.72162,69,68,0
258.3256,258.72162,74,68,0
258.3256,258.72162,79,68,0
258.72162,259.11377,86,82,0
258.72162,259.11377,74,70,0
258.72162,259.11377,78,70,0
258.72162,259.11377,81,70,0
259.11377,259.52335,83,81,0
259.11377,259.52335,79,69,0
259.11377,259.52335,71,69,0
259.52335,259.91937,84,77,0
259.52335,259.91937,72,65,0
259.52335,259.91937,76,65,0
259.52335,259.91937,81,77,0
259.91937,260.33032,81,85,0
259.91937,260.33032,69,72,0
259.91937,260.33032,74,72,0
259.91937,260.33032,79,72,0
260.33032,260.75137,86,88,0
260.33032,260.75137,74,75,0
260.33032,260.75137,78,75,0
260.33032,260.75137,81,75,0
260.75137,261.15393,79,88,0
260.75137,261.15393,71,74,0
260.75137,261.15393,67,74,0
261.15817,261.25717,79,80,0
261.15817,261.25717,71,67,0
261.15817,261.25717,67,67,0
261.3562,261.4552,79,80,0
261.3562,261.4552,71,67,0
261.3562,261.4552,67,67,0
261.5542,261.95404,79,86,0
261.5542,261.95404,71,72,0
261.5542,261.95404,67,72,0
261.95825,262.05695,79,80,0
261.95825,262.05695,71,67,0
261.95825,262.05695,67,67,0
262.1556,262.2543,79,80,0
262.1556,262.2543,71,67,0
262.1556,262.2543,67,67,0
262.353,262.76114,79,87,0
262.353,262.76114,72,73,0
262.353,262.76114,67,73,0
262.76114,263.17926,77,80,0
262.76114,263.17926,72,67,0
262.76114,263.17926,65,67,0
263.17926,263.38336,89,84,0
263.17926,263.38336,84,70,0
263.17926,263.38336,77,70,0
263.38336,263.47647,77,70,0
263.38336,263.47647,72,58,0
263.38336,263.47647,65,58,0
263.48138,263.57452,77,70,0
263.48138,263.57452,72,58,0
263.48138,263.57452,65,58,0
263.57944,263.7753,77,77,0
263.57944,263.7753,72,65,0
263.57944,263.7753,65,65,0
263.7856,263.98148,77,75,0
263.7856,263.98148,72,64,0
263.7856,263.98148,65,64,0
263.9918,264.39435,77,88,0
263.9918,264.39435,72,74,0
263.9918,264.39435,68,74,0
264.3986,264.4976,77,80,0
264.3986,264.4976,72,67,0
264.3986,264.4976,68,67,0
264.5966,264.69562,77,80,0
264.5966,264.69562,72,67,0
264.5966,264.69562,68,67,0
264.79462,265.19446,77,86,0
264.79462,265.19446,72,72,0
264.79462,265.19446,68,72,0
265.19867,265.29733,77,80,0
265.19867,265.29733,72,67,0
265.19867,265.29733,68,67,0
265.39603,265.49472,77,80,0
265.39603,265.49472,72,67,0
265.39603,265.49472,68,67,0
265.59338,266.00156,77,87,0
265.59338,266.00156,70,73,0
265.59338,266.00156,67,73,0
266.00156,266.3989,75,80,0
266.00156,266.3989,70,67,0
266.00156,266.3989,67,67,0
266.3989,266.603,87,88,0
266.3989,266.603,82,73,0
266.3989,266.603,75,73,0
266.603,266.69614,75,70,0
266.603,266.69614,70,58,0
266.603,266.69614,63,58,0
266.70102,266.79416,75,70,0
266.70102,266.79416,70,58,0
266.70102,266.79416,63,58,0
266.79907,266.99493,75,77,0
266.79907,266.99493,70,65,0
266.79907,266.99493,63,65,0
267.00525,267.20114,75,75,0
267.00525,267.20114,70,64,0
267.00525,267.20114,63,64,0
267.21143,267.61823,75,88,0
267.21143,267.61823,70,74,0
267.21143,267.61823,67,74,0
267.61823,267.71722,75,80,0
267.61823,267.71722,70,67,0
267.61823,267.71722,67,67,0
267.81625,267.91525,75,80,0
267.81625,267.91525,70,67,0
267.81625,267.91525,67,67,0
268.01425,268.4183,75,86,0
268.01425,268.4183,70,72,0
268.01425,268.4183,67,72,0
268.4183,268.51697,75,80,0
268.4183,268.51697,70,67,0
268.4183,268.51697,67,67,0
268.61566,268.71436,75,80,0
268.61566,268.71436,70,67,0
268.61566,268.71436,67,67,0
268.81305,269.2212,75,87,0
268.81305,269.2212,68,73,0
268.81305,269.2212,65,73,0
269.2212,269.6393,73,80,0
269.2212,269.6393,68,67,0
269.2212,269.6393,65,67,0
269.6393,269.8332,85,88,0
269.6393,269.8332,80,73,0
269.6393,269.8332,73,73,0
269.84338,269.93652,73,70,0
269.84338,269.93652,68,58,0
269.84338,269.93652,61,58,0
269.94144,270.03458,73,70,0
269.94144,270.03458,68,58,0
269.94144,270.03458,61,58,0
270.0395,270.23535,73,77,0
270.0395,270.23535,68,65,0
270.0395,270.23535,61,65,0
270.24567,270.44153,73,75,0
270.24567,270.44153,68,64,0
270.24567,270.44153,61,64,0
270.45184,270.86002,73,87,0
270.45184,270.86002,67,73,0
270.45184,270.86002,61,73,0
270.86002,271.26404,72,80,0
270.86002,271.26404,67,67,0
270.86002,271.26404,60,67,0
271.26404,271.45792,84,88,0
271.26404,271.45792,79,73,0
271.26404,271.45792,72,73,0
271.46814,271.56128,72,70,0
271.46814,271.56128,67,58,0
271.46814,271.56128,60,58,0
271.56616,271.6593,72,70,0
271.56616,271.6593,67,58,0
271.56616,271.6593,60,58,0
271.6642,271.86008,72,77,0
271.6642,271.86008,67,65,0
271.6642,271.86008,60,65,0
271.8704,272.06628,72,75,0
271.8704,272.06628,67,64,0
271.8704,272.06628,60,64,0
272.07657,272.47394,72,87,0
272.07657,272.47394,65,73,0
272.07657,272.47394,60,73,0
272.47394,272.89206,70,80,0
272.47394,272.89206,65,67,0
272.47394,272.89206,58,67,0
272.89206,273.2907,82,90,0
272.89206,273.2907,75,76,0
272.89206,273.2907,70,76,0
273.2907,273.70883,80,84,0
273.2907,273.70883,75,70,0
273.2907,273.70883,68,70,0
273.70883,274.117,68,90,0
273.70883,274.117,62,76,0
273.70883,274.117,56,76,0
274.117,274.5518,67,84,0
274.117,274.5518,62,70,0
274.117,274.5518,55,70,0
274.5518,274.967,79,94,0
274.5518,274.967,72,80,0
274.5518,274.967,67,80,0
274.967,275.39713,78,87,0
274.967,275.39713,72,73,0
274.967,275.39713,66,73,0
275.39713,275.5081,79,73,0
275.39713,275.5081,67,73,0
275.5081,275.61853,81,74,0
275.61853,275.72827,79,75,0
275.72827,275.8375,81,76,0
275.8375,275.94608,83,77,0
275.94608,276.0541,84,78,0
276.0541,276.1615,83,79,0
276.1615,276.2684,84,80,0
276.2684,276.37515,86,81,0
276.37515,276.48193,87,82,0
276.48193,276.58868,86,84,0
276.58868,276.69543,87,85,0
276.69543,276.80222,89,86,0
276.80222,276.90897,91,87,0
276.90897,277.01572,89,88,0
277.01572,277.1225,91,89,0
277.1225,277.96802,92,90,0
277.1225,277.96802,80,90,0
277.96802,278.8075,80,77,0
277.96802,278.8075,68,77,0
278.8075,278.91846,77,73,0
278.91846,279.0289,79,74,0
279.0289,279.13864,77,75,0
279.13864,279.24786,79,76,0
279.24786,279.35645,80,77,0
279.35645,279.46448,82,78,0
279.46448,279.57187,80,79,0
279.57187,279.67877,82,80,0
279.67877,279.78552,84,81,0
279.78552,279.8923,86,82,0
279.8923,279.99905,84,84,0
279.99905,280.1058,86,85,0
280.1058,280.2126,87,86,0
280.2126,280.31934,89,87,0
280.31934,280.42612,87,88,0
280.42612,280.53287,89,89,0
280.53287,281.37842,91,90,0
280.53287,281.37842,79,90,0
281.37842,282.21786,79,77,0
281.37842,282.21786,67,77,0
282.21786,282.32883,75,73,0
282.32883,282.43927,77,74,0
282.43927,282.549,75,75,0
282.549,282.65826,77,76,0
282.65826,282.7668,79,77,0
282.7668,282.87485,80,78,0
282.87485,282.98227,79,79,0
282.98227,283.08914,80,80,0
283.08914,283.1959,82,81,0
283.1959,283.30267,84,82,0
283.30267,283.40942,82,84,0
283.40942,283.5162,84,85,0
283.5162,283.62296,86,86,0
283.62296,283.7297,87,87,0
283.7297,283.8365,86,88,0
283.8365,283.94324,87,89,0
283.94324,284.7888,89,90,0
283.94324,284.7888,77,90,0
284.7888,285.62823,77,77,0
284.7888,285.62823,65,77,0
285.62823,286.4738,87,90,0
285.62823,286.4738,75,90,0
286.4738,287.31323,75,77,0
286.4738,287.31323,63,77,0
287.31323,287.62503,85,90,0
287.31323,287.62503,73,76,0
287.62503,287.72397,73,79,0
287.62503,287.72397,61,67,0
287.7292,288.15363,73,79,0
287.7292,288.15363,61,67,0
288.15363,288.4654,84,90,0
288.15363,288.4654,72,76,0
288.4654,288.56436,72,79,0
288.4654,288.56436,60,67,0
288.56958,288.99402,72,79,0
288.56958,288.99402,60,67,0
288.99402,289.30652,82,90,0
288.99402,289.30652,70,76,0
289.30652,289.40546,70,79,0
289.30652,289.40546,58,67,0
289.41068,289.8351,70,79,0
289.41068,289.8351,58,67,0
289.8351,290.15616,80,90,0
289.8351,290.15616,75,76,0
289.8351,290.15616,72,76,0
289.8351,290.15616,68,76,0
290.15887,290.26138,68,79,0
290.15887,290.26138,63,67,0
290.15887,290.26138,60,67,0
290.15887,290.26138,56,67,0
290.26678,290.71298,68,79,0
290.26678,290.71298,63,67,0
290.26678,290.71298,60,67,0
290.26678,290.71298,56,67,0
290.71298,291.16483,67,87,0
290.71298,291.16483,62,73,0
290.71298,291.16483,59,73,0
291.16483,291.24734,74,78,0
291.16483,291.24734,62,66,0
291.27472,291.3565,75,80,0
291.27472,291.3565,63,68,0
291.38367,291.46475,77,82,0
291.38367,291.46475,65,70,0
291.49173,291.57217,79,86,0
291.49173,291.57217,67,72,0
291.59888,292.03546,80,88,0
291.59888,292.03546,68,74,0
292.04004,292.26227,80,80,0
292.04004,292.26227,75,68,0
292.04004,292.26227,72,68,0
292.26227,292.491,80,78,0
292.26227,292.491,75,66,0
292.26227,292.491,72,66,0
292.491,292.93985,79,87,0
292.491,292.93985,74,73,0
292.491,292.93985,71,73,0
292.94443,293.02695,86,78,0
292.94443,293.02695,74,66,0
293.05432,293.1361,87,80,0
293.05432,293.1361,75,68,0
293.16327,293.24435,89,82,0
293.16327,293.24435,77,70,0
293.27133,293.35178,91,86,0
293.27133,293.35178,79,72,0
293.37848,293.81964,92,88,0
293.37848,293.81964,80,74,0
293.81964,294.04187,92,80,0
293.81964,294.04187,87,68,0
293.81964,294.04187,84,68,0
294.04187,294.26947,92,78,0
294.04187,294.26947,87,66,0
294.04187,294.26947,84,66,0
294.26947,294.3548,86,78,0
294.26947,294.3548,74,66,0
294.38312,294.46747,87,80,0
294.38312,294.46747,75,68,0
294.49545,294.57907,89,82,0
294.49545,294.57907,77,70,0
294.60678,294.699,91,86,0
294.60678,294.699,79,72,0
294.72974,295.18942,92,88,0
294.72974,295.18942,87,74,0
294.72974,295.18942,84,74,0
294.72974,295.18942,80,74,0
295.18942,295.27444,86,78,0
295.18942,295.27444,74,66,0
295.30264,295.3867,87,80,0
295.30264,295.3867,75,68,0
295.41458,295.4977,89,82,0
295.41458,295.4977,77,70,0
295.52527,295.616,91,86,0
295.52527,295.616,79,72,0
295.64624,296.10425,92,88,0
295.64624,296.10425,87,74,0
295.64624,296.10425,84,74,0
295.64624,296.10425,80,74,0
296.10425,296.1899,74,78,0
296.2182,296.30258,75,80,0
296.33057,296.41418,77,82,0
296.4419,296.5341,79,87,0
296.56485,297.05878,80,90,0
296.56485,297.05878,75,76,0
296.56485,297.05878,72,76,0
296.56485,297.05878,68,76,0
297.05878,297.15457,74,84,0
297.05878,297.15457,62,70,0
297.18625,297.28043,75,87,0
297.18625,297.28043,63,73,0
297.31158,297.40424,77,90,0
297.31158,297.40424,65,76,0
297.43484,297.54047,79,94,0
297.43484,297.54047,67,78,0
297.57568,298.14496,80,97,0
297.57568,298.14496,75,81,0
297.57568,298.14496,72,81,0
297.57568,298.14496,68,81,0
298.14496,298.61996,79,100,0
298.14496,298.61996,67,76,0
298.14496,298.61996,71,76,0
298.14496,298.61996,74,85,0
298.62497,298.74307,67,50,0
298.86118,298.98364,67,51,0
299.10608,299.5811,67,53,0
299.5861,299.70514,67,50,0
299.8242,299.94614,67,50,0
300.06808,300.5431,67,53,0
300.5481,300.66666,67,50,0
300.78525,300.9067,67,50,0
301.02817,301.50314,67,53,0
301.50815,301.6272,67,49,0
301.74625,301.86722,67,49,0
301.9882,302.4632,80,100,0
301.9882,302.4632,68,76,0
301.9882,302.4632,71,76,0
301.9882,302.4632,74,85,0
302.46817,302.58725,68,51,0
302.7058,302.82678,68,52,0
302.94775,303.42276,68,53,0
303.42773,303.485,71,49,0
303.42773,303.485,68,41,0
303.65677,303.7214,71,50,0
303.65677,303.7214,68,42,0
303.91537,304.39038,71,53,0
303.91537,304.39038,68,45,0
304.3954,304.45352,71,48,0
304.3954,304.45352,68,40,0
304.62793,304.6915,71,48,0
304.62793,304.6915,68,40,0
304.88217,305.35718,71,53,0
304.88217,305.35718,68,45,0
305.36218,305.41986,71,48,0
305.36218,305.41986,68,40,0
305.59293,305.65704,71,48,0
305.59293,305.65704,68,40,0
305.84937,306.32434,80,100,0
305.84937,306.32434,68,76,0
305.84937,306.32434,71,76,0
305.84937,306.32434,73,85,0
306.32935,306.38748,71,49,0
306.32935,306.38748,68,41,0
306.56192,306.62683,71,49,0
306.56192,306.62683,68,41,0
306.82166,307.29666,73,53,0
306.82166,307.29666,71,45,0
306.82166,307.29666,68,45,0
307.30164,307.36002,73,48,0
307.30164,307.36002,71,40,0
307.30164,307.36002,68,40,0
307.53513,307.59763,73,48,0
307.53513,307.59763,71,40,0
307.53513,307.59763,68,40,0
307.78513,308.2601,80,100,0
307.78513,308.2601,68,76,0
307.78513,308.2601,71,76,0
307.78513,308.2601,74,85,0
308.2651,308.32324,71,49,0
308.2651,308.32324,68,41,0
308.49768,308.56122,71,49,0
308.49768,308.56122,68,41,0
308.75192,309.2269,74,53,0
308.75192,309.2269,71,45,0
308.75192,309.2269,68,45,0
309.2319,309.29028,74,49,0
309.2319,309.29028,71,41,0
309.2319,309.29028,68,41,0
309.46536,309.5271,74,49,0
309.46536,309.5271,71,41,0
309.46536,309.5271,68,41,0
309.71228,310.1873,80,100,0
309.71228,310.1873,68,76,0
309.71228,310.1873,71,76,0
309.71228,310.1873,73,85,0
310.1923,310.2509,71,42,0
310.1923,310.2509,68,35,0
310.42667,310.4897,71,42,0
310.42667,310.4897,68,35,0
310.67877,311.15375,73,47,0
310.67877,311.15375,71,39,0
310.67877,311.15375,68,39,0
311.15875,311.21735,73,42,0
311.15875,311.21735,71,35,0
311.15875,311.21735,68,35,0
311.39313,311.4559,73,42,0
311.39313,311.4559,71,35,0
311.39313,311.4559,68,35,0
311.6442,312.11917,80,100,0
311.6442,312.11917,68,76,0
311.6442,312.11917,71,76,0
311.6442,312.11917,74,85,0
312.12418,312.18277,71,40,0
312.12418,312.18277,68,40,0
312.35855,312.4208,71,40,0
312.35855,312.4208,68,40,0
312.6075,313.08252,74,46,0
312.6075,313.08252,71,39,0
312.6075,313.08252,68,39,0
313.08752,313.14633,74,40,0
313.08752,313.14633,71,34,0
313.08752,313.14633,68,34,0
313.3228,313.38504,74,41,0
313.3228,313.38504,71,34,0
313.3228,313.38504,68,34,0
313.57178,314.04678,80,100,0
313.57178,314.04678,68,76,0
313.57178,314.04678,71,76,0
313.57178,314.04678,74,85,0
314.0518,314.11038,74,48,0
314.0518,314.11038,71,48,0
314.28616,314.3484,74,48,0
314.28616,314.3484,71,48,0
314.53513,315.0101,80,100,0
314.53513,315.0101,68,76,0
314.53513,315.0101,71,76,0
314.53513,315.0101,73,85,0
315.0151,315.0737,73,48,0
315.0151,315.0737,71,48,0
315.24948,315.31174,73,48,0
315.24948,315.31174,71,48,0
315.49844,315.97345,80,85,0
315.49844,315.97345,68,71,0
315.49844,315.97345,71,71,0
315.49844,315.97345,73,71,0
315.97845,316.03705,73,48,0
315.97845,316.03705,71,48,0
316.21283,316.27505,73,48,0
316.21283,316.27505,71,48,0
316.4618,316.9368,78,78,0
316.4618,316.9368,66,65,0
316.4618,316.9368,69,65,0
316.4618,316.9368,73,65,0
316.9418,317.0004,73,48,0
316.9418,317.0004,69,48,0
317.17618,317.2384,73,48,0
317.17618,317.2384,69,48,0
317.42514,317.90982,78,76,0
317.42514,317.90982,66,63,0
317.42514,317.90982,68,63,0
317.42514,317.90982,73,63,0
317.91492,317.97467,68,48,0
317.91492,317.97467,66,48,0
318.15396,318.2189,68,48,0
318.15396,318.2189,66,48,0
318.4137,318.9004,76,73,0
318.4137,318.9004,64,61,0
318.4137,318.9004,68,61,0
318.4137,318.9004,73,61,0
318.90552,318.96576,68,48,0
318.90552,318.96576,64,48,0
319.14648,319.21225,68,48,0
319.14648,319.21225,64,48,0
319.40964,319.90442,75,71,0
319.40964,319.90442,63,59,0
319.40964,319.90442,68,59,0
319.40964,319.90442,72,59,0
319.90964,319.97086,72,48,0
319.90964,319.97086,63,48,0
320.15454,320.2212,72,48,0
320.15454,320.2212,63,48,0
320.4212,320.92868,75,74,0
320.4212,320.92868,63,62,0
320.4212,320.92868,67,62,0
320.4212,320.92868,73,62,0
320.93402,320.99524,73,48,0
320.93402,320.99524,63,48,0
321.17892,321.24557,73,48,0
321.17892,321.24557,63,48,0
321.4456,321.95966,75,71,0
321.4456,321.95966,63,59,0
321.4456,321.95966,68,59,0
321.4456,321.95966,72,59,0
321.96506,322.02783,63,38,0
321.96506,322.02783,60,32,0
322.2161,322.2822,63,37,0
322.2161,322.2822,60,31,0
322.48044,322.99228,63,45,0
322.48044,322.99228,60,38,0
322.99768,323.06223,63,37,0
322.99768,323.06223,60,31,0
323.2609,323.32895,63,37,0
323.2609,323.32895,60,31,0
323.53806,324.05438,63,45,0
323.53806,324.05438,61,38,0
324.0598,324.12256,63,34,0
324.0598,324.12256,61,28,0
324.31085,324.37665,63,33,0
324.31085,324.37665,61,28,0
324.574,325.08585,63,39,0
324.574,325.08585,61,33,0
325.09125,325.156,63,33,0
325.09125,325.156,61,28,0
325.35425,325.42194,63,33,0
325.35425,325.42194,61,27,0
325.62845,326.14478,63,34,0
325.62845,326.14478,60,28,0
326.1502,326.21295,63,28,0
326.1502,326.21295,60,24,0
326.40125,326.46732,63,27,0
326.40125,326.46732,60,23,0
326.66556,327.1774,63,34,0
326.66556,327.1774,60,28,0
327.1828,327.24738,63,27,0
327.1828,327.24738,60,23,0
327.446,327.5141,63,27,0
327.446,327.5141,60,23,0
327.7232,328.2395,63,34,0
327.7232,328.2395,61,28,0
328.24493,328.3077,63,27,0
328.24493,328.3077,61,22,0
328.49597,328.56177,63,27,0
328.49597,328.56177,61,22,0
328.75916,329.271,63,32,0
328.75916,329.271,61,27,0
329.2764,329.34113,63,28,0
329.2764,329.34113,61,24,0
329.5394,329.60706,63,28,0
329.5394,329.60706,61,24,0
329.8136,330.3659,63,34,0
329.8136,330.3659,60,28,0
330.37173,330.50748,68,28,0
330.37173,330.50748,56,23,0
330.64322,330.7854,68,28,0
330.64322,330.7854,56,23,0
330.92758,331.48315,68,31,0
330.92758,331.48315,56,26,0
332.59726,332.73425,68,28,0
332.59726,332.73425,56,23,0
332.87125,333.01477,68,28,0
332.87125,333.01477,56,23,0
333.15833,333.71387,68,31,0
333.15833,333.71387,56,26,0
334.83707,334.97467,68,28,0
334.83707,334.97467,56,23,0
335.1123,335.25653,68,28,0
335.1123,335.25653,56,23,0
335.40076,335.98654,68,31,0
335.40076,335.98654,56,26,0
337.18332,337.3255,68,28,0
337.18332,337.3255,56,23,0
337.46768,337.62393,68,28,0
337.46768,337.62393,56,23,0
337.78018,338.3713,68,31,0
337.78018,338.3713,56,26,0
339.61725,339.76797,68,28,0
339.61725,339.76797,56,23,0
339.61725,339.76797,66,23,0
339.91873,340.0818,68,28,0
339.91873,340.0818,56,23,0
339.91873,340.0818,66,23,0
340.24484,340.8731,68,31,0
340.24484,340.8731,56,26,0
340.24484,340.8731,66,26,0
342.13382,342.28687,68,28,0
342.13382,342.28687,56,23,0
342.13382,342.28687,66,23,0
342.43994,342.60754,68,28,0
342.43994,342.60754,56,23,0
342.43994,342.60754,66,23,0
343.42377,343.58167,68,28,0
343.42377,343.58167,56,23,0
343.42377,343.58167,66,23,0
343.73956,343.91605,68,28,0
343.73956,343.91605,56,23,0
343.73956,343.91605,66,23,0
344.7592,345.42584,68,27,0
344.7592,345.42584,56,22,0
344.7592,345.42584,66,22,0
346.0925,346.82422,68,26,0
346.0925,346.82422,56,21,0
346.0925,346.82422,66,21,0
347.60852,348.43613,69,25,0
347.60852,348.43613,57,20,0
347.60852,348.43613,66,20,0
349.39612,351.39612,68,24,0
349.39612,351.39612,56,20,0
349.39612,351.39612,66,20,0
0.0,0.412343,48,64,0
0.0,0.412343,43,55,0
0.0,0.412343,36,55,0
0.412343,0.51290625,48,59,0
0.412343,0.51290625,43,49,0
0.412343,0.51290625,36,49,0
0.6134695,0.71403277,48,59,0
0.6134695,0.71403277,43,49,0
0.6134695,0.71403277,36,49,0
0.814596,1.226939,48,66,0
0.814596,1.226939,43,56,0
0.814596,1.226939,36,56,0
1.226939,1.3275023,48,60,0
1.226939,1.3275023,43,50,0
1.226939,1.3275023,36,50,0
1.4280655,1.5286287,48,60,0
1.4280655,1.5286287,43,50,0
1.4280655,1.5286287,36,50,0
1.629192,1.834629,48,66,0
1.629192,1.834629,43,56,0
1.629192,1.834629,36,56,0
3.292,3.510978,43,68,0
3.292,3.510978,31,57,0
3.7299562,3.948934,55,68,0
3.7299562,3.948934,43,57,0
5.0589867,5.4713297,43,56,0
5.0589867,5.4713297,31,47,0
5.4713297,5.5718927,43,51,0
5.4713297,5.5718927,31,42,0
5.6724563,5.7730193,43,51,0
5.6724563,5.7730193,31,42,0
5.873583,6.285926,43,57,0
5.873583,6.285926,31,48,0
6.285926,6.386489,43,52,0
6.285926,6.386489,31,43,0
6.487052,6.5876155,43,52,0
6.487052,6.5876155,31,43,0
6.6881785,6.8936157,43,57,0
6.6881785,6.8936157,31,48,0
8.3509865,8.569964,48,62,0
8.3509865,8.569964,36,52,0
8.3509865,8.569964,43,52,0
8.788942,9.007921,60,60,0
8.788942,9.007921,48,50,0
8.788942,9.007921,55,50,0
10.040604,10.858437,48,60,0
10.040604,10.858437,36,50,0
10.858437,11.286024,47,53,0
10.858437,11.286024,35,44,0
11.286024,11.488044,59,70,0
11.286024,11.488044,47,57,0
11.488044,11.690064,59,65,0
11.488044,11.690064,47,53,0
11.690064,12.09814,57,72,0
11.690064,12.09814,45,63,0
12.102435,12.514806,50,61,0
12.102435,12.514806,38,50,0
12.514806,12.72655,55,59,0
12.514806,12.728329,43,48,0
13.321829,14.139662,48,60,0
13.321829,14.139662,36,50,0
14.139662,14.567249,47,53,0
14.139662,14.567249,35,44,0
14.567249,14.759168,59,67,0
14.567249,14.759168,47,55,0
14.769269,14.961188,59,65,0
14.769269,14.961188,47,53,0
14.971289,15.379365,57,72,0
14.971289,15.379365,45,63,0
15.38366,15.796031,50,61,0
15.38366,15.796031,38,50,0
15.796031,16.002216,55,59,0
15.796031,16.002216,43,48,0
16.595716,17.41355,53,60,0
16.595716,17.41355,41,50,0
17.41355,17.841137,52,53,0
17.41355,17.841137,40,44,0
17.841137,18.043983,64,70,0
17.841137,18.043983,52,57,0
18.054659,18.257507,64,65,0
18.054659,18.257507,52,53,0
18.268183,18.676258,62,72,0
18.268183,18.676258,50,63,0
18.680553,19.092924,55,67,0
18.680553,19.092924,43,54,0
19.092924,19.505295,60,65,0
19.092924,19.505295,48,52,0
19.505295,19.697214,53,70,0
19.505295,19.697214,41,57,0
19.707315,19.899235,53,65,0
19.707315,19.899235,41,53,0
19.909336,20.321707,59,71,0
19.909336,20.321707,47,62,0
20.321707,20.734077,52,65,0
20.321707,20.734077,40,53,0
20.734077,21.146448,57,63,0
20.734077,21.146448,45,51,0
21.146448,21.249897,45,53,0
21.146448,21.249897,33,44,0
21.353346,21.456793,43,49,0
21.353346,21.456793,31,40,0
21.560242,21.66465,29,34,0
21.66465,21.768457,41,35,0
21.768457,21.871552,29,37,0
21.871552,21.974056,41,38,0
21.974056,22.075867,29,39,0
22.075867,22.17699,41,41,0
22.17699,22.27755,29,42,0
22.27755,22.37744,41,44,0
22.37744,22.476776,29,45,0
22.476776,22.575787,41,47,0
22.575787,22.674688,29,48,0
22.674688,22.773373,41,50,0
22.773373,22.871948,29,51,0
22.871948,22.97031,41,52,0
22.97031,23.068457,29,54,0
23.068457,23.166494,41,55,0
23.166494,23.263582,42,61,0
23.263582,23.360462,43,62,0
23.360462,23.457027,44,63,0
23.457027,23.553389,45,64,0
23.553389,23.649439,46,66,0
23.649439,23.745287,47,67,0
23.745287,23.841337,48,69,0
23.841337,23.937492,49,70,0
23.937492,24.033955,50,72,0
24.033955,24.130522,51,73,0
24.130522,24.227295,52,75,0
24.227295,24.324278,53,76,0
24.324278,24.52836,53,78,0
24.324278,24.52836,41,66,0
24.52836,24.73244,53,79,0
24.52836,24.73244,41,66,0
24.73244,24.83845,53,88,0
24.73244,24.83845,41,74,0
24.944456,25.04615,65,81,0
24.944456,25.04615,53,68,0
25.147846,25.251293,65,81,0
25.147846,25.251293,53,68,0
25.354742,25.456436,65,81,0
25.354742,25.456436,53,68,0
25.558132,25.659826,65,81,0
25.558132,25.659826,53,68,0
25.761522,25.863216,65,81,0
25.761522,25.863216,53,68,0
25.964912,26.068718,65,81,0
25.964912,26.068718,53,68,0
26.172525,26.27633,65,81,0
26.172525,26.27633,53,68,0
26.380136,26.589195,52,77,0
26.380136,26.589195,64,91,0
26.798256,27.007315,52,88,0
26.798256,27.007315,40,74,0
28.052608,28.460657,48,25,0
28.052608,28.460657,43,22,0
28.052608,28.460657,36,22,0
28.464952,28.565516,48,23,0
28.464952,28.565516,43,19,0
28.464952,28.565516,36,19,0
28.666079,28.766642,48,23,0
28.666079,28.766642,43,19,0
28.666079,28.766642,36,19,0
28.867205,29.275253,48,26,0
28.867205,29.275253,43,22,0
28.867205,29.275253,36,22,0
29.279549,29.380112,48,24,0
29.279549,29.380112,43,20,0
29.279549,29.380112,36,20,0
29.480675,29.581238,48,24,0
29.480675,29.581238,43,20,0
29.480675,29.581238,36,20,0
29.6818,29.887238,48,26,0
29.6818,29.887238,43,22,0
29.6818,29.887238,36,22,0
31.344608,31.563587,43,27,0
31.344608,31.563587,31,22,0
31.782564,32.051624,55,27,0
31.782564,32.051624,43,22,0
32.320683,33.22294,67,22,0
32.320683,33.22294,71,22,0
32.320683,33.22294,74,27,0
33.22294,33.630985,43,22,0
33.22294,33.630985,31,18,0
33.63528,33.735844,43,20,0
33.63528,33.735844,31,16,0
33.836407,33.93697,43,20,0
33.836407,33.93697,31,16,0
34.037533,34.445583,43,22,0
34.037533,34.445583,31,19,0
34.44988,34.55044,43,20,0
34.44988,34.55044,31,17,0
34.651005,34.751568,43,20,0
34.651005,34.751568,31,17,0
34.85213,35.057568,43,22,0
34.85213,35.057568,31,19,0
36.51494,36.733917,48,24,0
36.51494,36.733917,36,20,0
36.51494,36.733917,43,20,0
36.952892,37.22439,60,24,0
36.952892,37.22439,48,20,0
36.952892,37.22439,55,20,0
37.49588,38.398136,60,22,0
37.49588,38.398136,67,22,0
37.49588,38.398136,72,27,0
39.275875,39.63878,45,35,0
39.275875,39.63878,33,29,0
39.759747,40.06744,60,32,0
39.759747,40.06744,57,26,0
40.37513,41.277386,69,18,0
40.37513,41.277386,72,27,0
42.155125,42.527027,52,29,0
42.155125,42.527027,40,25,0
42.650993,42.986187,55,27,0
42.650993,42.986187,52,23,0
43.321384,45.125896,64,16,0
43.321384,45.125896,67,24,0
46.16659,46.271484,38,72,0
46.271484,46.37638,41,74,0
46.37638,46.478077,44,76,0
46.478077,46.579773,50,78,0
46.579773,46.681465,53,80,0
46.681465,46.78316,56,82,0
46.78316,47.59672,62,84,0
46.78316,47.59672,50,71,0
47.59672,48.01339,64,80,0
47.59672,48.01339,52,68,0
48.01339,48.430054,60,76,0
48.01339,48.430054,48,64,0
48.430054,48.654774,55,80,0
48.430054,48.654774,43,68,0
49.488686,49.593582,38,72,0
49.593582,49.698475,41,74,0
49.698475,49.80017,44,76,0
49.80017,49.901867,50,78,0
49.901867,50.003563,53,80,0
50.003563,50.105255,56,82,0
50.105255,50.918816,62,84,0
50.105255,50.918816,50,71,0
50.918816,51.34135,64,80,0
50.918816,51.34135,52,68,0
51.34135,51.763885,60,76,0
51.34135,51.763885,48,64,0
51.763885,51.975155,55,80,0
51.763885,51.975155,43,68,0
52.82694,52.932323,52,73,0
52.932323,53.037098,55,75,0
53.037098,53.141384,58,77,0
53.141384,53.24507,61,79,0
53.24507,53.34828,67,80,0
53.34828,53.450558,70,82,0
53.450558,53.552597,73,88,0
53.552597,53.65487,76,82,0
53.65487,53.75726,73,81,0
53.75726,53.859997,70,80,0
53.859997,53.962856,67,76,0
53.962856,54.06595,64,78,0
54.06595,54.169277,61,78,0
54.169277,54.27249,58,76,0
54.27249,54.376297,61,76,0
54.376297,54.480103,64,68,0
54.480103,54.583908,61,69,0
54.583908,54.687717,58,69,0
54.687717,54.791523,55,73,0
54.791523,54.89533,52,66,0
54.89533,54.999134,49,66,0
54.999134,55.109837,46,66,0
55.109837,55.213642,49,66,0
55.213642,55.317448,52,60,0
55.317448,55.421253,49,60,0
55.421253,55.52506,46,60,0
55.52506,55.62887,43,67,0
55.62887,55.732674,40,59,0
55.732674,55.83648,37,60,0
55.83648,55.94637,34,60,0
55.94637,56.050537,37,68,0
56.050537,56.1547,40,47,0
56.1547,56.25887,37,47,0
56.25887,56.363037,34,47,0
56.363037,56.4672,37,58,0
56.4672,56.57137,40,45,0
56.57137,56.675056,37,45,0
56.675056,56.778507,34,45,0
56.778507,56.8816,37,53,0
56.8816,56.984573,40,39,0
56.984573,57.087315,37,39,0
57.087315,57.18982,34,39,0
57.18982,57.29221,37,51,0
57.29221,57.39425,40,34,0
57.39425,57.496174,37,34,0
57.496174,57.59787,34,34,0
57.59787,57.699223,35,37,0
57.699223,57.80057,38,30,0
57.80057,57.901924,43,30,0
57.901924,58.003273,38,30,0
58.003273,58.104626,35,35,0
58.104626,58.20598,38,30,0
58.20598,58.307327,43,30,0
58.307327,58.40868,38,30,0
58.40868,58.51003,35,35,0
58.51003,58.61138,38,30,0
58.61138,58.712734,43,30,0
58.712734,58.814083,38,30,0
58.814083,58.915096,35,35,0
58.915096,59.01656,38,30,0
59.01656,59.118484,43,30,0
59.118484,59.220993,38,30,0
59.220993,59.32373,36,37,0
59.32373,59.42647,40,30,0
59.42647,59.52921,45,30,0
59.52921,59.63195,40,30,0
59.63195,59.73469,36,35,0
59.73469,59.83743,40,30,0
59.83743,59.94017,45,30,0
59.94017,60.04291,40,30,0
60.04291,60.14565,36,35,0
60.14565,60.24839,40,30,0
60.24839,60.351128,45,30,0
60.351128,60.45387,40,30,0
60.45387,60.55661,36,35,0
60.55661,60.659348,40,30,0
60.659348,60.76209,45,30,0
60.76209,60.864826,40,30,0
60.864826,60.96876,38,37,0
60.96876,61.073532,43,30,0
61.073532,61.178673,47,30,0
61.178673,61.284184,43,30,0
61.284184,61.390068,38,35,0
61.390068,61.496326,43,30,0
61.496326,61.60296,47,30,0
61.60296,61.709976,43,30,0
61.709976,61.81712,38,35,0
61.81712,61.924263,45,30,0
61.924263,62.032047,48,30,0
62.032047,62.141674,45,30,0
62.141674,62.252785,38,35,0
62.252785,62.363895,45,30,0
62.363895,62.475006,48,30,0
62.475006,62.60053,45,30,0
62.827312,62.932697,52,73,0
62.932697,63.03747,55,75,0
63.03747,63.141758,58,77,0
63.141758,63.245445,61,79,0
63.245445,63.348656,67,80,0
63.348656,63.45093,70,82,0
63.45093,63.55297,73,88,0
63.55297,63.655243,76,82,0
63.655243,63.757633,73,81,0
63.757633,63.86037,70,80,0
63.86037,63.96323,67,76,0
63.96323,64.06632,64,78,0
64.06632,64.169655,61,78,0
64.169655,64.272865,58,76,0
64.272865,64.37667,61,76,0
64.37667,64.48048,64,68,0
64.48048,64.58428,61,69,0
64.58428,64.68809,58,69,0
64.68809,64.79189,55,73,0
64.79189,64.8957,52,66,0
64.8957,64.99951,49,66,0
64.99951,65.11021,46,66,0
65.11021,65.21401,49,66,0
65.21401,65.317825,52,60,0
65.317825,65.42163,49,60,0
65.42163,65.52544,46,60,0
65.52544,65.62924,43,67,0
65.62924,65.73305,40,59,0
65.73305,65.83685,37,60,0
65.83685,65.94675,34,60,0
65.94675,66.05091,37,68,0
66.05091,66.155075,40,47,0
66.155075,66.25925,37,47,0
66.25925,66.36341,34,47,0
66.36341,66.467575,37,58,0
66.467575,66.57175,40,45,0
66.57175,66.67543,37,45,0
66.67543,66.77888,34,45,0
66.77888,66.88197,37,53,0
66.88197,66.98495,40,39,0
66.98495,67.087685,37,39,0
67.087685,67.19019,34,39,0
67.19019,67.29258,37,51,0
67.29258,67.39462,40,34,0
67.39462,67.49655,37,34,0
67.49655,67.59824,34,34,0
67.59824,67.69959,35,37,0
67.69959,67.80095,40,30,0
67.80095,67.9023,43,30,0
67.9023,68.00365,40,30,0
68.00365,68.104996,35,35,0
68.104996,68.20635,40,30,0
68.20635,68.3077,43,30,0
68.3077,68.40905,40,30,0
68.40905,68.51041,35,35,0
68.51041,68.611755,40,30,0
68.611755,68.713104,43,30,0
68.713104,68.81446,40,30,0
68.81446,68.91547,35,35,0
68.91547,69.01694,40,30,0
69.01694,69.11886,43,30,0
69.11886,69.22137,40,30,0
69.22137,69.324104,36,37,0
69.324104,69.42684,40,30,0
69.42684,69.52959,45,30,0
69.52959,69.632324,40,30,0
69.632324,69.73506,36,35,0
69.73506,69.83781,40,30,0
69.83781,69.940544,45,30,0
69.940544,70.04328,40,30,0
70.04328,70.14603,36,35,0
70.14603,70.248764,40,30,0
70.248764,70.3515,45,30,0
70.3515,70.45424,40,30,0
70.45424,70.55746,36,35,0
70.55746,70.66126,40,30,0
70.66126,70.76579,45,30,0
70.76579,70.871056,40,30,0
70.871056,70.97379,38,27,0
70.97379,71.07654,43,28,0
71.07654,71.179276,47,28,0
71.179276,71.28201,43,28,0
71.28201,71.38475,38,28,0
71.38475,71.487495,43,28,0
71.487495,71.59023,47,28,0
71.59023,71.69297,43,28,0
71.69297,71.795715,38,28,0
71.795715,71.89869,43,28,0
71.89869,72.00178,47,28,0
72.00178,72.10523,43,28,0
72.10523,72.20879,38,29,0
72.20879,72.3126,43,28,0
72.3126,72.41665,47,28,0
72.41665,72.520935,43,28,0
72.520935,72.62368,38,29,0
72.62368,72.72642,45,28,0
72.72642,72.829155,48,28,0
72.829155,72.93189,45,28,0
72.93189,73.03464,38,29,0
73.03464,73.137375,45,28,0
73.137375,73.24011,48,28,0
73.24011,73.342735,45,28,0
73.342735,73.44513,38,29,0
73.44513,73.54787,45,28,0
73.54787,73.65084,48,28,0
73.65084,73.75417,45,28,0
73.75417,73.85774,38,28,0
73.85774,73.96166,45,28,0
73.96166,74.065834,48,28,0
74.065834,74.170364,45,28,0
74.170364,74.42568,43,28,0
78.60264,79.3785,47,27,0
78.34402,79.3785,40,33,0
79.637115,80.41298,47,27,0
79.3785,80.41298,40,31,0
80.664024,80.90252,47,27,0
80.91507,81.16076,47,27,0
81.17369,81.41938,47,27,0
81.43231,81.686554,47,32,0
81.686554,81.94079,49,35,0
81.94079,82.070656,47,31,0
82.20053,82.3304,47,31,0
80.41298,82.460266,42,32,0
82.71889,83.49475,47,27,0
82.460266,83.49475,42,33,0
83.75337,84.5361,47,27,0
83.49475,84.5361,42,31,0
84.78715,85.02564,47,27,0
85.03819,85.28388,47,27,0
85.296814,85.5425,47,27,0
85.555435,85.80967,47,32,0
85.80967,86.05863,49,39,0
86.05863,86.187386,47,41,0
86.31614,86.4449,47,46,0
84.5361,86.573654,44,32,0
86.83116,87.08868,59,43,0
87.08868,87.34618,61,41,0
87.34618,87.6037,63,40,0
86.573654,87.6037,54,54,0
87.6037,88.11871,64,45,0
87.6037,88.11871,52,30,0
88.11871,88.37623,63,39,0
88.11871,88.37623,54,27,0
88.37623,88.64772,64,37,0
88.37623,88.64772,56,26,0
88.64772,89.16274,54,30,0
88.64772,89.16274,66,45,0
89.16274,89.68676,54,25,0
89.16274,89.68676,64,36,0
89.68676,89.96713,59,25,0
89.68676,89.96713,63,36,0
91.01523,91.791084,59,27,0
90.75661,91.791084,52,33,0
92.049706,92.82557,59,27,0
91.791084,92.82557,52,31,0
93.076614,93.31511,59,27,0
93.32766,93.57335,59,27,0
93.58628,93.83197,59,27,0
93.8449,93.96836,58,32,0
93.96836,94.09182,59,27,0
94.09182,94.21527,61,27,0
94.21527,94.34861,59,29,0
94.34861,94.47848,59,31,0
94.608345,94.73822,59,31,0
92.82557,94.86809,54,32,0
95.12671,95.90257,59,27,0
94.86809,95.90257,54,33,0
96.16119,96.960625,59,27,0
95.90257,96.960625,54,31,0
97.21272,97.452225,59,27,0
97.46483,97.71052,59,27,0
97.72345,97.96914,59,27,0
97.98207,98.10552,58,32,0
98.10552,98.22898,59,27,0
98.22898,98.35244,60,27,0
98.35244,98.48697,59,27,0
98.48697,98.6174,59,31,0
98.74783,98.87827,59,31,0
96.960625,99.008705,55,32,0
99.26081,99.500305,64,27,0
99.51291,99.7586,64,27,0
99.77153,100.02945,64,27,0
100.04302,100.16648,59,36,0
100.16648,100.28993,60,32,0
100.28993,100.41339,62,35,0
100.41339,100.54792,60,37,0
100.54792,100.80879,62,35,0
100.80879,101.06966,64,34,0
99.008705,101.06966,57,32,0
101.32176,101.56126,64,27,0
101.57386,101.81955,64,27,0
101.83248,102.0904,64,27,0
102.10397,102.22743,58,36,0
102.22743,102.35089,59,33,0
102.35089,102.47434,60,35,0
102.47434,102.60887,59,38,0
102.60887,102.86974,64,40,0
102.86974,103.130615,67,34,0
101.06966,103.130615,55,32,0
103.130615,103.39149,54,33,0
103.39149,103.646805,55,36,0
103.646805,103.90212,57,33,0
103.646805,103.90212,59,39,0
103.90212,104.16528,54,29,0
103.90212,104.16528,59,35,0
104.16528,104.42844,52,33,0
104.42844,104.68595,54,36,0
104.68595,104.94346,55,34,0
104.68595,104.94346,59,41,0
104.94346,105.21013,52,30,0
104.94346,105.21013,59,36,0
105.21013,105.47679,59,43,0
105.47679,105.736534,58,39,0
105.736534,105.99627,59,42,0
105.99627,106.25601,60,44,0
105.21013,106.25601,47,36,0
106.25601,106.51632,59,47,0
106.51632,106.77929,57,44,0
106.77929,107.04478,54,44,0
107.04478,107.31144,51,43,0
107.31144,107.57345,42,33,0
107.57345,107.82877,43,36,0
107.82877,108.08409,45,33,0
107.82877,108.08409,47,39,0
108.08409,108.347244,42,29,0
108.08409,108.347244,47,35,0
108.347244,108.610405,40,33,0
108.610405,108.86791,42,36,0
108.86791,109.12543,43,34,0
108.86791,109.12543,47,41,0
109.12543,109.39209,40,30,0
109.12543,109.39209,47,36,0
109.39209,109.913086,47,43,0
109.39209,109.913086,35,43,0
109.9185,110.16525,47,36,0
109.9185,110.16525,35,36,0
110.17824,110.424995,47,36,0
110.17824,110.424995,35,36,0
110.43798,110.9554,47,43,0
110.43798,110.9554,35,43,0
110.96088,111.21088,47,36,0
110.96088,111.21088,35,36,0
111.22404,111.47404,47,37,0
111.22404,111.47404,35,37,0
111.4872,111.74693,47,43,0
111.4872,111.74693,35,43,0
111.74693,112.01966,50,36,0
111.74693,112.01966,38,36,0
112.01966,112.79888,49,36,0
112.01966,112.79888,37,36,0
112.79888,113.058624,47,36,0
112.79888,113.058624,35,36,0
113.058624,113.31837,45,36,0
113.058624,113.31837,33,36,0
113.31837,113.59234,44,36,0
113.31837,113.59234,32,36,0
113.59234,114.89787,42,40,0
113.59234,114.89787,30,40,0
114.89787,115.157616,44,36,0
114.89787,115.157616,32,36,0
115.157616,115.41736,45,36,0
115.157616,115.41736,33,36,0
115.41736,115.68642,46,36,0
115.41736,115.68642,34,36,0
115.68642,115.94616,46,43,0
115.68642,115.94616,34,43,0
115.94616,116.205894,49,35,0
115.94616,116.205894,37,35,0
116.205894,116.99885,47,35,0
116.205894,116.99885,35,35,0
116.99885,117.26316,45,35,0
116.99885,117.26316,33,35,0
117.26316,117.5229,44,36,0
117.26316,117.5229,32,36,0
117.5229,117.782646,42,36,0
117.5229,117.782646,30,36,0
117.782646,119.39275,40,37,0
119.39275,119.98099,38,34,0
119.98099,120.09757,36,31,0
120.09757,120.21355,43,27,0
120.21355,120.32879,36,32,0
120.32879,120.443436,43,29,0
120.443436,120.55736,36,33,0
120.55736,120.67057,43,30,0
120.67057,120.783066,36,35,0
120.783066,120.89487,43,31,0
120.89487,121.00612,36,36,0
121.00612,121.116684,43,31,0
121.116684,121.22658,36,38,0
121.22658,121.3358,43,32,0
121.3358,121.44437,36,39,0
121.44437,121.55241,43,34,0
121.55241,121.659805,36,41,0
121.659805,121.76657,43,36,0
121.76657,121.872826,36,42,0
121.872826,121.978584,43,38,0
121.978584,122.08397,36,43,0
122.08397,122.18899,43,39,0
122.18899,122.29364,36,46,0
122.29364,122.39781,43,41,0
122.39781,122.50162,36,47,0
122.50162,122.605064,43,41,0
122.605064,122.70804,36,49,0
122.70804,122.81066,43,44,0
122.81066,122.91293,36,50,0
122.91293,123.01486,43,43,0
123.01486,123.116325,36,52,0
123.116325,123.217445,43,46,0
123.217445,123.31823,36,53,0
123.31823,123.41868,43,45,0
123.41868,123.51868,36,55,0
123.51868,123.61857,43,49,0
123.61857,123.71824,36,57,0
123.71824,123.81769,43,51,0
123.81769,123.916916,36,59,0
123.916916,124.01592,43,52,0
124.01592,124.114716,36,60,0
124.114716,124.213295,43,52,0
124.213295,124.31165,36,62,0
124.31165,124.4098,43,55,0
124.4098,124.50773,36,63,0
124.50773,124.60545,43,56,0
124.60545,124.70296,36,65,0
124.70296,124.800255,43,56,0
124.800255,124.90664,36,67,0
124.90664,125.01302,43,58,0
125.01302,125.421074,72,64,0
125.01302,125.421074,67,55,0
125.01302,125.421074,60,55,0
125.42537,125.61644,72,59,0
125.42537,125.61644,67,49,0
125.42537,125.61644,60,49,0
125.626495,125.817566,72,59,0
125.626495,125.817566,67,49,0
125.626495,125.817566,60,49,0
125.82762,126.235664,72,66,0
125.82762,126.235664,67,56,0
125.82762,126.235664,60,56,0
126.23996,126.43103,72,60,0
126.23996,126.43103,67,50,0
126.23996,126.43103,60,50,0
126.441086,126.63216,72,60,0
126.441086,126.63216,67,50,0
126.441086,126.63216,60,50,0
126.64221,126.84766,72,66,0
126.64221,126.84766,64,56,0
126.64221,126.84766,60,56,0
126.64221,126.84766,67,56,0
126.84766,126.95037,67,79,0
126.95037,127.05297,64,81,0
127.05297,127.155685,60,83,0
127.155685,127.25927,55,85,0
127.25927,127.36373,52,89,0
127.36373,127.46832,48,91,0
127.46832,127.88667,35,96,0
127.46832,127.88667,47,96,0
127.88667,127.99126,36,77,0
127.88667,127.99126,48,92,0
128.09584,128.20044,36,77,0
128.09584,128.20044,48,92,0
128.30502,128.524,49,68,0
128.30502,128.524,37,57,0
128.74298,128.96196,50,68,0
128.74298,128.96196,38,57,0
130.072,130.48006,67,64,0
130.072,130.48006,55,55,0
130.48436,130.67543,67,59,0
130.48436,130.67543,55,49,0
130.68549,130.87656,67,59,0
130.68549,130.87656,55,49,0
130.88661,131.29465,67,66,0
130.88661,131.29465,55,56,0
131.29895,131.49002,67,60,0
131.29895,131.49002,55,50,0
131.50008,131.69115,67,60,0
131.50008,131.69115,55,50,0
131.7012,131.90665,67,66,0
131.7012,131.90665,55,56,0
131.90665,132.00935,65,79,0
132.00935,132.11195,62,81,0
132.11195,132.21468,59,83,0
132.21468,132.31825,55,85,0
132.31825,132.42271,53,89,0
132.42271,132.52731,50,91,0
132.52731,132.94566,37,96,0
132.52731,132.94566,49,96,0
132.94566,133.05025,38,77,0
132.94566,133.05025,50,92,0
133.15483,133.25943,38,77,0
133.15483,133.25943,50,92,0
133.36401,133.583,51,71,0
133.36401,133.583,39,59,0
133.80197,134.02095,52,71,0
133.80197,134.02095,40,59,0
135.05363,135.87146,48,60,0
135.05363,135.87146,36,50,0
135.87146,136.29904,47,53,0
135.87146,136.29904,35,44,0
136.29904,136.49097,59,70,0
136.29904,136.49097,47,57,0
136.50107,136.693,59,65,0
136.50107,136.693,47,53,0
136.7031,137.11546,57,72,0
136.7031,137.11546,45,63,0
137.11546,137.52783,50,61,0
137.11546,137.52783,38,50,0
137.52783,137.73958,55,59,0
137.52783,137.74135,43,48,0
138.33485,139.15268,48,60,0
138.33485,139.15268,36,50,0
139.15268,139.58028,47,53,0
139.15268,139.58028,35,44,0
139.58028,139.77219,59,70,0
139.58028,139.77219,47,57,0
139.78229,139.97421,59,65,0
139.78229,139.97421,47,53,0
139.98431,140.39668,57,72,0
139.98431,140.39668,45,63,0
140.39668,140.80905,50,61,0
140.39668,140.80905,38,50,0
140.80905,141.01524,55,59,0
140.80905,141.01524,43,48,0
141.60873,142.42657,53,60,0
141.60873,142.42657,41,50,0
142.42657,142.85416,52,53,0
142.42657,142.85416,40,44,0
142.85416,143.057,64,70,0
142.85416,143.057,52,57,0
143.06769,143.27052,64,65,0
143.06769,143.27052,52,53,0
143.2812,143.68929,62,72,0
143.2812,143.68929,50,63,0
143.69357,144.10594,55,67,0
143.69357,144.10594,43,54,0
144.10594,144.51402,60,65,0
144.10594,144.51402,48,52,0
144.51833,144.71024,53,67,0
144.51833,144.71024,41,55,0
144.72034,144.91226,53,62,0
144.72034,144.91226,41,51,0
144.92236,145.33473,59,69,0
144.92236,145.33473,47,60,0
145.33473,145.7471,60,65,0
145.33473,145.7471,48,53,0
145.7471,145.94298,62,65,0
145.7471,145.94298,50,52,0
145.9533,146.14917,62,55,0
145.9533,146.14917,50,55,0
146.15947,146.5745,64,71,0
146.15947,146.5745,52,58,0
146.5745,146.97704,45,96,0
146.5745,146.97704,33,81,0
146.98128,147.1745,45,90,0
146.98128,147.1745,33,75,0
147.18466,147.37788,45,90,0
147.18466,147.37788,33,75,0
147.38805,147.79059,45,96,0
147.38805,147.79059,33,81,0
147.79483,147.98805,45,90,0
147.79483,147.98805,33,75,0
147.99821,148.19144,45,88,0
147.99821,148.19144,33,74,0
148.20161,148.39833,45,96,0
148.20161,148.39833,33,81,0
148.39833,148.60739,48,90,0
148.39833,148.60739,36,75,0
148.60739,149.01836,47,93,0
148.60739,149.01836,35,79,0
149.01836,149.85129,77,93,0
149.01836,149.85129,74,79,0
149.85129,150.25383,47,96,0
149.85129,150.25383,35,81,0
150.25807,150.4513,47,90,0
150.25807,150.4513,35,75,0
150.46146,150.65468,47,90,0
150.46146,150.65468,35,75,0
150.66486,151.0674,47,96,0
150.66486,151.0674,35,81,0
151.07162,151.26485,47,90,0
151.07162,151.26485,35,75,0
151.27502,151.46825,47,88,0
151.27502,151.46825,35,74,0
151.47841,151.67513,47,96,0
151.47841,151.67513,35,81,0
151.67513,151.88419,50,90,0
151.67513,151.88419,38,75,0
151.88419,152.29515,48,93,0
151.88419,152.29515,36,79,0
152.29515,153.11707,81,93,0
152.29515,153.11707,76,79,0
152.29515,153.11707,72,79,0
153.11707,153.3138,49,91,0
153.11707,153.3138,37,77,0
153.3138,153.52284,52,84,0
153.3138,153.52284,40,71,0
153.52284,153.9338,50,88,0
153.52284,153.9338,38,74,0
153.9338,154.75572,82,85,0
153.9338,154.75572,77,72,0
153.9338,154.75572,74,70,0
154.75572,155.16502,52,52,0
154.75572,155.16502,40,52,0
155.16502,155.57018,53,55,0
155.16502,155.57018,41,55,0
155.57018,155.97127,56,58,0
155.57018,155.97127,44,58,0
155.97127,156.36845,57,60,0
155.97127,156.36845,45,60,0
156.36845,156.7645,59,63,0
156.36845,156.7645,47,63,0
156.7645,157.16583,60,66,0
156.7645,157.16583,48,66,0
157.16583,157.56187,53,68,0
157.16583,157.56187,65,68,0
157.56187,157.95792,64,65,0
157.56187,157.95792,52,65,0
157.95792,158.1613,33,75,0
158.1613,158.263,35,67,0
158.263,158.3647,36,67,0
158.3647,158.46638,38,66,0
158.46638,158.56808,40,66,0
158.56808,158.66978,42,65,0
158.66978,158.77147,44,64,0
158.77147,158.87317,45,64,0
158.87317,158.97487,47,63,0
158.97487,159.07655,48,63,0
159.07655,159.17825,50,63,0
159.17825,159.27995,52,63,0
159.27995,159.38164,54,62,0
159.38164,159.48334,56,61,0
159.48334,159.58504,57,61,0
159.58504,159.6834,58,58,0
159.6834,159.78175,61,53,0
159.78175,159.88629,62,53,0
159.88629,159.99081,64,53,0
159.99081,160.09355,58,52,0
160.09355,160.19629,61,46,0
160.19629,160.3023,62,46,0
160.3023,160.40831,64,46,0
160.40831,160.51105,58,54,0
160.51105,160.61378,61,47,0
160.61378,160.71652,62,47,0
160.71652,160.81926,64,47,0
160.81926,160.92201,58,53,0
160.92201,161.02475,61,48,0
161.02475,161.12749,62,48,0
161.12749,161.23022,64,48,0
161.23022,161.43361,37,75,0
161.43361,161.53531,38,67,0
161.53531,161.63701,40,67,0
161.63701,161.73871,41,66,0
161.73871,161.8404,43,66,0
161.8404,161.9421,45,65,0
161.9421,162.0438,47,64,0
162.0438,162.14548,49,64,0
162.14548,162.24718,50,63,0
162.24718,162.34888,52,63,0
162.34888,162.45056,53,63,0
162.45056,162.55226,55,63,0
162.55226,162.65396,57,62,0
162.65396,162.75565,59,61,0
162.75565,162.85735,61,61,0
162.85735,162.9557,62,58,0
162.9557,163.05406,65,53,0
163.05406,163.1586,68,53,0
163.1586,163.26312,69,53,0
163.26312,163.36586,62,52,0
163.36586,163.46861,65,46,0
163.46861,163.57423,68,46,0
163.57423,163.67987,69,46,0
163.67987,163.78261,62,54,0
163.78261,163.88536,65,47,0
163.88536,163.9881,68,47,0
163.9881,164.09084,69,47,0
164.09084,164.19357,62,53,0
164.19357,164.29631,65,48,0
164.29631,164.39905,68,48,0
164.39905,164.50179,69,48,0
164.50179,164.60016,60,55,0
164.60016,164.69852,64,50,0
164.69852,164.80304,68,49,0
164.80304,164.90758,69,49,0
164.90758,165.01031,60,47,0
165.01031,165.11305,64,42,0
165.11305,165.21869,68,41,0
165.21869,165.32433,69,41,0
165.32433,165.42706,60,48,0
165.42706,165.5298,64,41,0
165.5298,165.63254,68,41,0
165.63254,165.73528,69,40,0
165.73528,165.83801,60,45,0
165.83801,165.94075,64,40,0
165.94075,166.0435,68,40,0
166.0435,166.14624,69,40,0
166.14624,166.24591,59,48,0
166.24591,166.34557,62,43,0
166.34557,166.45233,68,42,0
166.45233,166.5591,69,42,0
166.5591,166.66327,59,41,0
166.66327,166.76743,62,36,0
166.76743,166.87306,68,35,0
166.87306,166.9787,69,35,0
166.9787,167.08144,59,41,0
167.08144,167.18417,62,35,0
167.18417,167.28691,68,35,0
167.28691,167.38965,69,34,0
167.38965,167.4924,59,39,0
167.4924,167.59514,62,35,0
167.59514,167.69788,68,34,0
167.69788,167.80061,69,34,0
167.80061,167.90231,57,43,0
167.90231,168.004,60,35,0
168.004,168.11511,68,35,0
168.11511,168.22623,69,35,0
168.22623,168.33261,57,35,0
168.33261,168.439,60,35,0
168.439,168.54808,68,31,0
168.54808,168.6565,69,31,0
168.6565,168.76288,48,40,0
168.76288,168.86926,57,36,0
168.86926,168.97565,50,37,0
168.97565,169.08203,57,38,0
169.08203,169.18842,45,46,0
169.18842,169.2948,57,40,0
169.2948,169.40118,47,41,0
169.40118,169.50757,57,42,0
169.50757,169.61394,48,50,0
169.61394,169.72032,57,43,0
169.72032,169.83311,52,43,0
169.83311,169.94589,57,43,0
169.94589,170.05498,50,47,0
170.05498,170.16408,57,39,0
170.16408,170.27316,53,39,0
170.27316,170.38428,57,39,0
170.38428,170.49539,52,45,0
170.49539,170.60649,60,35,0
170.60649,170.7176,57,35,0
170.7176,170.82872,60,35,0
170.82872,170.94298,52,46,0
170.94298,171.0588,62,35,0
171.0588,171.17464,56,35,0
171.17464,171.29047,62,35,0
171.29047,171.402,53,41,0
171.402,171.51352,60,32,0
171.51352,171.62505,57,33,0
171.62505,171.73656,60,33,0
171.73656,171.84808,53,41,0
171.84808,171.95961,60,35,0
171.95961,172.07127,57,35,0
172.07127,172.1835,60,35,0
172.19289,172.30568,48,40,0
172.30568,172.41846,57,36,0
172.41846,172.53123,50,37,0
172.53123,172.64403,57,38,0
172.64403,172.7568,45,46,0
172.7568,172.86958,57,40,0
172.86958,172.98236,47,41,0
172.98236,173.09515,57,42,0
173.09515,173.20793,48,50,0
173.20793,173.32132,57,43,0
173.32132,173.44131,52,43,0
173.44131,173.56085,57,43,0
173.56085,173.67535,50,47,0
173.67535,173.79024,57,39,0
173.79024,173.9058,53,39,0
173.9058,174.022,57,39,0
174.022,174.13893,52,45,0
174.13893,174.2565,60,35,0
174.2565,174.3748,57,35,0
174.3748,174.49393,60,35,0
174.49393,174.61345,52,46,0
174.61345,174.73297,62,35,0
174.73297,174.8525,56,35,0
174.8525,174.97156,62,35,0
174.96205,175.07613,47,80,0
174.96205,175.07613,35,68,0
175.1902,175.29889,50,76,0
175.1902,175.29889,38,64,0
175.4076,175.85204,48,82,0
175.4076,175.85204,36,69,0
175.85204,175.96524,49,81,0
175.85204,175.96524,37,69,0
176.07845,176.18713,52,76,0
176.07845,176.18713,40,64,0
176.29584,176.73865,50,82,0
176.29584,176.73865,38,70,0
176.73865,176.84933,51,83,0
176.73865,176.84933,39,70,0
176.96004,177.06718,53,77,0
176.96004,177.06718,41,65,0
177.17433,177.61877,52,84,0
177.17433,177.61877,40,71,0
177.61877,177.72786,52,84,0
177.61877,177.72786,40,72,0
177.83696,177.94185,55,79,0
177.83696,177.94185,43,66,0
178.04674,178.49284,53,85,0
178.04674,178.49284,41,72,0
178.49284,178.60274,56,86,0
178.49284,178.60274,44,73,0
178.71262,178.82935,59,67,0
178.71262,178.82935,62,80,0
178.94609,179.86377,56,74,0
178.94609,179.86377,65,88,0
178.94609,179.86377,62,74,0
178.94609,179.86377,59,74,0
179.86377,180.33995,59,45,0
179.86377,180.33995,56,37,0
179.86377,180.33995,52,37,0
180.33995,180.45189,48,45,0
180.45189,180.56383,57,38,0
180.56383,180.67662,52,38,0
180.67662,180.7894,57,38,0
180.7894,180.89848,50,42,0
180.89848,181.00758,57,35,0
181.00758,181.11667,53,35,0
181.11667,181.22778,57,35,0
181.22778,181.3389,52,40,0
181.3389,181.45,60,31,0
181.45,181.56111,57,31,0
181.56111,181.67223,60,31,0
181.67223,181.78851,52,41,0
181.78851,181.90616,62,31,0
181.90616,182.0252,56,31,0
182.0252,182.15913,62,31,0
182.15913,182.27234,48,32,0
182.27234,182.38554,57,27,0
182.38554,182.50093,52,27,0
182.50093,182.61632,57,27,0
182.61632,182.72702,50,29,0
182.72702,182.83772,57,25,0
182.83772,182.94843,53,25,0
182.94843,183.05952,57,25,0
183.05952,183.1736,52,28,0
183.1736,183.28766,60,21,0
183.28766,183.40173,57,21,0
183.40173,183.51581,60,21,0
183.51581,183.63104,52,28,0
183.63104,183.74979,62,21,0
183.74979,183.8724,56,21,0
183.8724,183.99794,62,21,0
183.99794,184.11288,47,80,0
183.99794,184.11288,35,68,0
184.22781,184.33812,50,76,0
184.22781,184.33812,38,64,0
184.44841,184.89784,48,82,0
184.44841,184.89784,36,69,0
184.89784,185.00937,49,80,0
184.89784,185.00937,37,68,0
185.1209,185.22958,52,76,0
185.1209,185.22958,40,64,0
185.33829,185.7811,50,81,0
185.33829,185.7811,38,69,0
185.7811,185.89178,51,82,0
185.7811,185.89178,39,70,0
186.00249,186.10963,53,76,0
186.00249,186.10963,41,63,0
186.21678,186.65796,52,83,0
186.21678,186.65796,40,70,0
186.65796,186.76625,52,84,0
186.65796,186.76625,40,71,0
186.87456,186.97873,55,77,0
186.87456,186.97873,43,65,0
187.0829,187.52899,53,84,0
187.0829,187.52899,41,71,0
187.52899,187.6373,54,84,0
187.52899,187.6373,42,72,0
187.7456,187.8505,57,79,0
187.7456,187.8505,45,66,0
187.95538,188.39983,56,85,0
187.95538,188.39983,44,72,0
188.39983,188.51094,56,86,0
188.39983,188.51094,44,73,0
188.62206,188.72997,59,79,0
188.62206,188.72997,47,66,0
188.83788,189.30264,57,87,0
188.83788,189.30264,45,74,0
189.30264,190.1276,68,92,0
189.30264,190.12846,58,77,0
189.30264,190.12846,62,77,0
189.30264,190.12846,65,77,0
197.11377,197.26605,51,36,0
197.26605,197.41833,58,30,0
197.41833,197.5654,55,31,0
197.5654,197.71245,58,31,0
197.71245,197.85532,63,36,0
197.85532,197.99817,58,31,0
197.99817,198.14102,55,31,0
198.14102,198.28389,58,31,0
198.28389,198.42674,51,36,0
198.42674,198.5696,58,31,0
198.5696,198.7098,55,31,0
198.7098,198.84998,58,32,0
198.84998,198.99016,63,36,0
198.99016,199.13034,58,31,0
199.13034,199.27814,55,31,0
199.27814,199.42592,58,31,0
199.42592,199.57297,51,36,0
199.57297,199.72003,58,30,0
199.72003,199.86221,55,31,0
199.86221,200.0044,58,31,0
200.0044,200.14658,63,36,0
200.14658,200.28876,58,31,0
200.28876,200.43092,55,31,0
200.43092,200.5731,58,31,0
200.5731,200.71529,51,36,0
200.71529,200.85747,58,31,0
200.85747,200.99767,55,31,0
200.99767,201.13785,58,32,0
201.13785,201.27803,63,36,0
201.27803,201.41821,58,31,0
201.41821,201.56601,55,31,0
201.56601,201.71379,58,31,0
201.71379,201.86685,46,40,0
201.86685,202.01991,58,33,0
202.01991,202.1621,56,34,0
202.1621,202.30428,58,34,0
202.30428,202.44644,62,40,0
202.44644,202.58862,58,34,0
202.58862,202.7308,56,34,0
202.7308,202.87299,58,34,0
202.87299,203.01517,46,40,0
203.01517,203.15735,58,34,0
203.15735,203.29753,56,34,0
203.29753,203.43773,58,35,0
203.43773,203.57791,62,40,0
203.57791,203.7181,58,34,0
203.7181,203.86588,56,34,0
203.86588,204.01366,58,34,0
204.01366,204.16072,46,40,0
204.16072,204.30779,58,33,0
204.30779,204.44997,56,34,0
204.44997,204.59213,58,34,0
204.59213,204.73431,62,40,0
204.73431,204.8765,58,34,0
204.8765,205.01868,56,34,0
205.01868,205.16086,58,34,0
205.16086,205.30304,46,40,0
205.30304,205.44522,58,34,0
205.44522,205.5854,56,34,0
205.5854,205.7256,58,35,0
205.7256,205.86385,62,40,0
205.86385,206.00209,58,34,0
206.00209,206.14987,56,34,0
206.14987,206.29765,58,34,0
206.29765,206.45071,51,40,0
206.45071,206.60378,58,33,0
206.60378,206.74596,55,34,0
206.74596,206.88814,58,34,0
206.88814,207.03032,63,40,0
207.03032,207.1725,58,34,0
207.1725,207.31468,55,34,0
207.31468,207.45686,58,34,0
207.45686,207.59904,51,40,0
207.59904,207.74123,58,34,0
207.74123,207.88141,55,34,0
207.88141,208.02159,58,35,0
208.02159,208.16179,63,40,0
208.16179,208.30197,58,34,0
208.30197,208.44975,55,34,0
208.44975,208.59753,58,34,0
208.59753,208.7446,51,40,0
208.7446,208.89165,58,33,0
208.89165,209.03383,55,34,0
209.03383,209.17601,58,34,0
209.17601,209.31819,63,40,0
209.31819,209.46037,58,34,0
209.46037,209.60255,55,34,0
209.60255,209.74474,58,34,0
209.74474,209.89107,51,40,0
209.89107,210.03741,58,34,0
210.03741,210.1776,55,34,0
210.1776,210.3178,58,35,0
210.3178,210.45604,63,40,0
210.45604,210.59428,58,34,0
210.59428,210.74207,55,34,0
210.74207,210.88985,58,34,0
210.88985,211.03691,46,44,0
211.03691,211.18398,58,36,0
211.18398,211.32616,56,36,0
211.32616,211.46834,58,36,0
211.46834,211.6105,62,44,0
211.6105,211.75269,58,36,0
211.75269,211.89487,56,36,0
211.89487,212.03705,58,36,0
212.03705,212.17923,46,44,0
212.17923,212.32141,58,36,0
212.32141,212.4616,56,36,0
212.4616,212.60179,58,37,0
212.60179,212.74197,62,44,0
212.74197,212.88216,58,36,0
212.88216,213.0368,56,36,0
213.0368,213.19144,58,36,0
213.19144,213.3385,46,44,0
213.3385,213.48555,58,36,0
213.48555,213.62773,56,36,0
213.62773,213.76991,58,36,0
213.76991,213.9121,62,44,0
213.9121,214.05428,58,36,0
214.05428,214.19646,56,36,0
214.19646,214.33864,58,36,0
214.33864,214.48082,46,44,0
214.48082,214.623,58,36,0
214.623,214.76318,56,36,0
214.76318,214.90337,58,37,0
214.90337,215.04355,62,44,0
215.04355,215.18375,58,36,0
215.18375,215.33153,56,36,0
215.33153,215.47931,58,36,0
215.47931,215.6372,51,44,0
215.6372,215.7951,58,36,0
215.7951,215.93729,55,36,0
215.93729,216.07945,58,36,0
216.07945,216.22163,63,44,0
216.22163,216.36382,58,36,0
216.36382,216.506,55,36,0
216.506,216.64818,58,36,0
216.64818,216.79453,43,44,0
216.79453,216.94086,59,36,0
216.94086,217.08105,55,36,0
217.08105,217.22124,59,37,0
217.22124,217.36142,65,44,0
217.36142,217.50162,59,36,0
217.50162,217.6494,55,36,0
217.6494,217.79718,59,36,0
217.79718,217.94717,48,44,0
217.94717,218.09718,55,36,0
218.09718,218.23935,51,36,0
218.23935,218.38153,55,36,0
218.38153,218.52371,60,44,0
218.52371,218.6659,55,36,0
218.6659,218.80807,51,36,0
218.80807,218.95026,55,36,0
218.95026,219.0966,39,44,0
219.0966,219.24294,55,36,0
219.24294,219.38313,51,36,0
219.38313,219.52332,55,37,0
219.52332,219.6635,61,44,0
219.6635,219.80368,55,36,0
219.80368,219.95148,51,36,0
219.95148,220.09926,55,36,0
220.09926,220.24925,44,44,0
220.24925,220.39926,51,36,0
220.39926,220.54143,48,36,0
220.54143,220.68361,51,36,0
220.68361,220.82579,56,42,0
220.82579,220.96797,51,35,0
220.96797,221.11015,48,34,0
221.11015,221.25233,51,34,0
221.25233,221.4054,37,40,0
221.4054,221.55846,53,33,0
221.55846,221.69864,49,33,0
221.69864,221.83884,53,33,0
221.83884,221.97902,58,38,0
221.97902,222.1192,53,32,0
222.1192,222.26698,49,31,0
222.26698,222.41476,53,31,0
222.41476,222.56477,39,36,0
222.56477,222.71477,51,30,0
222.71477,222.85695,48,30,0
222.85695,222.99913,51,30,0
222.99913,223.14131,56,36,0
223.14131,223.2835,51,29,0
223.2835,223.42567,48,28,0
223.42567,223.56786,51,28,0
223.56786,223.71419,39,34,0
223.71419,223.86053,51,27,0
223.86053,224.00339,49,27,0
224.00339,224.14626,51,27,0
224.14626,224.29118,58,32,0
224.29118,224.4361,51,26,0
224.4361,224.59317,49,26,0
224.59317,224.75024,51,26,0
224.75024,224.8973,56,26,0
224.8973,225.04436,63,25,0
225.04436,225.18654,60,26,0
225.18654,225.32872,63,26,0
225.32872,225.4709,68,29,0
225.4709,225.61308,63,26,0
225.61308,225.75526,60,26,0
225.75526,225.89825,63,26,0
225.89825,226.0453,56,29,0
226.0453,226.19237,63,26,0
226.19237,226.33522,60,26,0
226.33522,226.47809,63,26,0
226.47809,226.62094,67,29,0
226.62094,226.7638,63,26,0
226.7638,226.91158,68,26,0
226.91158,227.05936,63,26,0
227.05936,227.20642,56,29,0
227.20642,227.35349,63,25,0
227.35349,227.49567,60,26,0
227.49567,227.63785,63,26,0
227.63785,227.78001,68,29,0
227.78001,227.9222,63,26,0
227.9222,228.06438,60,26,0
228.06438,228.20702,63,26,0
228.20702,228.35194,56,29,0
228.35194,228.49687,63,26,0
228.49687,228.63705,60,26,0
228.63705,228.77725,63,26,0
228.77725,228.91743,67,29,0
228.91743,229.05762,63,26,0
229.05762,229.2054,68,26,0
229.2054,229.3532,63,26,0
229.3532,229.50024,51,31,0
229.50024,229.64731,63,26,0
229.64731,229.78949,61,27,0
229.78949,229.93167,63,27,0
229.93167,230.07385,67,31,0
230.07385,230.21602,63,27,0
230.21602,230.3582,61,27,0
230.3582,230.50131,63,27,0
230.50131,230.65756,51,31,0
230.65756,230.81381,63,27,0
230.81381,230.95668,65,27,0
230.95668,231.09953,63,27,0
231.09953,231.24239,62,31,0
231.24239,231.38525,63,27,0
231.38525,231.53304,61,27,0
231.53304,231.68082,63,27,0
231.68082,231.82788,51,31,0
231.82788,231.97493,63,26,0
231.97493,232.11711,61,27,0
232.11711,232.2593,63,27,0
232.2593,232.40147,67,31,0
232.40147,232.54366,63,27,0
232.54366,232.68584,61,27,0
232.68584,232.82802,63,27,0
232.82802,232.97801,51,31,0
232.97801,233.128,63,27,0
233.128,233.2758,65,27,0
233.2758,233.42358,63,27,0
233.42358,233.57137,62,31,0
233.57137,233.71915,63,27,0
233.71915,233.87378,61,27,0
233.87378,234.02843,63,27,0
234.02843,234.18633,56,46,0
234.18633,234.34421,63,38,0
234.34421,234.48639,60,38,0
234.48639,234.62857,63,38,0
234.62857,234.77075,68,46,0
234.77075,234.91293,63,38,0
234.91293,235.05511,60,38,0
235.05511,235.1973,63,38,0
235.1973,235.34363,48,46,0
235.34363,235.48997,60,38,0
235.48997,235.63016,55,38,0
235.63016,235.77036,60,39,0
235.77036,235.91054,64,46,0
235.91054,236.05072,60,38,0
236.05072,236.1985,55,38,0
236.1985,236.3463,60,38,0
236.3463,236.49629,53,46,0
236.49629,236.64629,60,38,0
236.64629,236.78847,56,38,0
236.78847,236.93065,60,38,0
236.93065,237.07283,65,46,0
237.07283,237.21501,60,38,0
237.21501,237.3572,56,38,0
237.3572,237.49937,60,38,0
237.49937,237.6457,44,46,0
237.6457,237.79205,56,38,0
237.79205,237.93224,51,38,0
237.93224,238.07243,56,39,0
238.07243,238.21262,60,46,0
238.21262,238.3528,56,38,0
238.3528,238.50745,51,38,0
238.50745,238.66208,56,38,0
238.66208,238.81207,49,49,0
238.81207,238.96208,56,40,0
238.96208,239.10426,53,40,0
239.10426,239.24644,56,40,0
239.24644,239.38863,61,47,0
239.38863,239.5308,56,39,0
239.5308,239.67297,53,38,0
239.67297,239.81516,56,38,0
239.81516,239.9615,42,45,0
239.9615,240.10785,58,37,0
240.10785,240.2507,54,37,0
240.2507,240.39355,58,37,0
240.39355,240.53642,63,43,0
240.53642,240.67928,58,36,0
240.67928,240.82706,54,35,0
240.82706,240.97484,58,35,0
240.97484,241.12483,44,41,0
241.12483,241.27484,56,34,0
241.27484,241.41702,53,34,0
241.41702,241.5592,56,34,0
241.5592,241.70139,61,40,0
241.70139,241.84355,56,33,0
241.84355,241.98573,53,32,0
241.98573,242.12791,56,32,0
242.12791,242.28416,44,38,0
242.28416,242.44041,56,31,0
242.44041,242.58748,54,31,0
242.58748,242.73454,56,31,0
242.73454,242.88159,63,36,0
242.88159,243.02866,56,29,0
243.02866,243.17644,54,29,0
243.17644,243.32422,56,29,0
243.32422,243.71614,61,67,0
243.32422,243.71614,53,57,0
243.32422,243.71614,49,57,0
243.32422,243.71614,56,57,0
243.72026,243.81685,61,61,0
243.72026,243.81685,53,51,0
243.72026,243.81685,49,51,0
243.72026,243.81685,56,51,0
243.91344,244.01003,61,61,0
243.91344,244.01003,53,51,0
243.91344,244.01003,49,51,0
243.91344,244.01003,56,51,0
244.10661,244.49852,61,69,0
244.10661,244.49852,53,58,0
244.10661,244.49852,49,58,0
244.10661,244.49852,56,58,0
244.50266,244.59924,61,63,0
244.50266,244.59924,49,52,0
244.50266,244.59924,56,52,0
244.50748,244.60406,53,52,0
244.69583,244.7924,61,63,0
244.69583,244.7924,53,52,0
244.69583,244.7924,49,52,0
244.69583,244.7924,56,52,0
244.88899,245.03699,61,69,0
244.88899,245.03699,53,58,0
244.88899,245.03699,49,58,0
244.88899,245.03699,56,58,0
245.08632,245.18141,61,52,0
245.18141,245.2765,56,54,0
245.2765,245.3716,53,56,0
245.3716,245.46669,49,58,0
245.46669,245.56178,44,59,0
245.56178,245.65688,41,61,0
245.65688,245.75197,37,62,0
245.75197,245.84727,32,61,0
245.84727,245.94289,37,60,0
245.94289,246.03883,41,59,0
246.03883,246.13498,44,58,0
246.13498,246.23145,49,57,0
246.23145,246.33661,53,57,0
246.33661,246.48987,56,56,0
246.48987,246.88179,58,67,0
246.48987,246.88179,53,57,0
246.48987,246.88179,49,57,0
246.48987,246.88179,46,57,0
246.88591,246.9825,58,61,0
246.88591,246.9825,53,51,0
246.88591,246.9825,49,51,0
246.88591,246.9825,46,51,0
247.07909,247.17567,58,61,0
247.07909,247.17567,53,51,0
247.07909,247.17567,49,51,0
247.07909,247.17567,46,51,0
247.27226,247.66417,58,69,0
247.27226,247.66417,53,58,0
247.27226,247.66417,49,58,0
247.27226,247.66417,46,58,0
247.6683,247.7649,58,63,0
247.6683,247.7649,49,52,0
247.6683,247.7649,46,52,0
247.67313,247.76971,53,52,0
247.86148,247.95807,58,63,0
247.86148,247.95807,53,52,0
247.86148,247.95807,49,52,0
247.86148,247.95807,46,52,0
248.05466,248.20264,58,69,0
248.05466,248.20264,53,58,0
248.05466,248.20264,49,58,0
248.05466,248.20264,46,58,0
248.25197,248.34706,61,53,0
248.34706,248.44215,58,55,0
248.44215,248.53725,53,57,0
248.53725,248.63234,49,58,0
248.63234,248.72743,46,60,0
248.72743,248.82253,41,62,0
248.82253,248.91762,37,64,0
248.91762,249.01292,34,64,0
249.01292,249.10854,37,63,0
249.10854,249.20448,41,62,0
249.20448,249.30063,46,61,0
249.30063,249.3971,49,60,0
249.3971,249.50342,53,59,0
249.50342,249.65273,58,60,0
249.65273,250.04463,61,59,0
249.65273,250.04463,58,51,0
249.65273,250.04463,54,51,0
250.04877,250.14534,61,55,0
250.04877,250.14534,58,46,0
250.04877,250.14534,54,46,0
250.24193,250.33852,61,55,0
250.24193,250.33852,58,46,0
250.24193,250.33852,54,46,0
250.4351,250.82703,62,67,0
250.4351,250.82703,50,57,0
250.4351,250.82703,54,57,0
250.4351,250.82703,57,57,0
250.83115,250.92773,62,61,0
250.83115,250.92773,50,51,0
250.83115,250.92773,57,51,0
250.83598,250.93257,54,51,0
251.02432,251.12091,62,61,0
251.02432,251.12091,50,51,0
251.02432,251.12091,54,51,0
251.02432,251.12091,57,51,0
251.2175,251.36548,60,67,0
251.2175,251.36548,48,57,0
251.2175,251.36548,51,57,0
251.2175,251.36548,56,57,0
251.41481,251.5099,63,47,0
251.5099,251.605,61,48,0
251.605,251.70009,60,50,0
251.70009,251.79518,61,51,0
251.79518,251.89027,60,52,0
251.89027,251.98537,58,54,0
251.98537,252.08046,56,55,0
252.08046,252.17577,58,53,0
252.17577,252.2714,56,52,0
252.2714,252.36732,58,52,0
252.36732,252.46347,60,51,0
252.46347,252.55995,61,51,0
252.55995,252.66628,63,50,0
252.66628,252.81557,65,50,0
252.81557,253.20749,61,59,0
252.81557,253.20749,58,51,0
252.81557,253.20749,54,51,0
253.21161,253.3082,61,55,0
253.21161,253.3082,58,46,0
253.21161,253.3082,54,46,0
253.40479,253.50137,61,55,0
253.40479,253.50137,58,46,0
253.40479,253.50137,54,46,0
253.59796,253.98987,62,67,0
253.59796,253.98987,50,57,0
253.59796,253.98987,54,57,0
253.59796,253.98987,57,57,0
253.994,254.09059,62,61,0
253.994,254.09059,50,51,0
253.994,254.09059,57,51,0
253.99883,254.09541,54,51,0
254.18716,254.28375,62,61,0
254.18716,254.28375,50,51,0
254.18716,254.28375,54,51,0
254.18716,254.28375,57,51,0
254.38034,254.52834,60,67,0
254.38034,254.52834,48,57,0
254.38034,254.52834,51,57,0
254.38034,254.52834,56,57,0
254.57767,254.67276,63,47,0
254.67276,254.76785,61,48,0
254.76785,254.86295,60,50,0
254.86295,254.95804,61,51,0
254.95804,255.05313,60,51,0
255.05313,255.14822,58,53,0
255.14822,255.24332,56,55,0
255.24332,255.33862,58,55,0
255.33862,255.43423,56,53,0
255.43423,255.53017,58,52,0
255.53017,255.62633,60,50,0
255.62633,255.7228,61,49,0
255.7228,255.82912,63,48,0
255.82912,255.97841,65,47,0
255.97841,256.37033,66,66,0
255.97841,256.37033,54,55,0
255.97841,256.37033,57,55,0
255.97841,256.37033,61,55,0
256.37445,256.47104,66,55,0
256.37445,256.47104,54,38,0
256.37445,256.47104,57,38,0
256.37445,256.47104,61,38,0
256.56763,256.6642,66,54,0
256.56763,256.6642,54,46,0
256.56763,256.6642,57,46,0
256.56763,256.6642,61,46,0
256.7608,257.1527,62,60,0
256.7608,257.1527,50,51,0
256.7608,257.1527,54,51,0
256.7608,257.1527,57,51,0
257.15683,257.25342,62,56,0
257.15683,257.25342,54,47,0
257.15683,257.25342,50,47,0
257.15683,257.25342,57,47,0
257.35,257.4466,62,57,0
257.35,257.4466,50,48,0
257.35,257.4466,54,48,0
257.35,257.4466,57,48,0
257.54318,257.93924,64,65,0
257.54318,257.93924,52,54,0
257.54318,257.93924,55,54,0
257.54318,257.93924,59,54,0
257.93924,258.3256,60,56,0
257.93924,258.3256,48,47,0
257.93924,258.3256,52,47,0
257.93924,258.3256,57,47,0
258.3256,258.72162,62,63,0
258.3256,258.72162,57,53,0
258.3256,258.72162,50,53,0
258.72162,259.11377,50,61,0
258.72162,259.11377,38,51,0
259.11377,259.52335,52,61,0
259.11377,259.52335,40,52,0
259.52335,259.91937,60,55,0
259.52335,259.91937,48,47,0
259.52335,259.91937,52,47,0
259.52335,259.91937,57,47,0
259.91937,260.33032,62,65,0
259.91937,260.33032,57,54,0
259.91937,260.33032,50,54,0
260.33032,260.75137,50,68,0
260.33032,260.75137,38,57,0
260.75137,260.8531,43,61,0
260.8531,260.95477,45,57,0
260.95477,261.05646,43,57,0
261.05646,261.15817,45,57,0
261.15817,261.25717,47,61,0
261.25717,261.3562,48,57,0
261.3562,261.4552,47,57,0
261.4552,261.5542,48,57,0
261.5542,261.6552,50,63,0
261.6552,261.75623,51,57,0
261.75623,261.85724,50,57,0
261.85724,261.95825,51,57,0
261.95825,262.05695,53,61,0
262.05695,262.1556,55,57,0
262.1556,262.2543,53,57,0
262.2543,262.353,55,57,0
262.353,263.17926,56,67,0
262.353,263.17926,44,67,0
263.17926,263.9918,44,66,0
263.17926,263.9918,32,66,0
263.9918,264.0935,41,61,0
264.0935,264.1952,43,57,0
264.1952,264.29688,41,57,0
264.29688,264.3986,43,57,0
264.3986,264.4976,44,61,0
264.4976,264.5966,46,57,0
264.5966,264.69562,44,57,0
264.69562,264.79462,46,57,0
264.79462,264.89563,48,63,0
264.89563,264.99664,50,57,0
264.99664,265.09766,48,57,0
265.09766,265.19867,50,57,0
265.19867,265.29733,51,61,0
265.29733,265.39603,53,57,0
265.39603,265.49472,51,57,0
265.49472,265.59338,53,57,0
265.59338,266.3989,55,67,0
265.59338,266.3989,43,67,0
266.3989,267.21143,43,66,0
266.3989,267.21143,31,66,0
267.21143,267.31314,39,61,0
267.31314,267.41483,41,57,0
267.41483,267.5165,39,57,0
267.5165,267.61823,41,57,0
267.61823,267.71722,43,61,0
267.71722,267.81625,44,57,0
267.81625,267.91525,43,57,0
267.91525,268.01425,44,57,0
268.01425,268.11526,46,63,0
268.11526,268.21628,48,57,0
268.21628,268.3173,46,57,0
268.3173,268.4183,48,57,0
268.4183,268.51697,50,61,0
268.51697,268.61566,51,57,0
268.61566,268.71436,50,57,0
268.71436,268.81305,51,57,0
268.81305,269.6393,53,67,0
268.81305,269.6393,41,67,0
269.6393,270.45184,41,66,0
269.6393,270.45184,29,66,0
270.45184,271.26404,51,67,0
270.45184,271.26404,39,67,0
271.26404,272.07657,39,66,0
271.26404,272.07657,27,66,0
272.07657,272.3746,61,67,0
272.07657,272.3746,49,67,0
272.3746,272.46896,49,60,0
272.3746,272.46896,37,60,0
272.47394,272.89206,49,67,0
272.47394,272.89206,37,67,0
272.89206,273.19104,60,70,0
272.89206,273.19104,48,70,0
273.19104,273.28574,48,63,0
273.19104,273.28574,36,63,0
273.2907,273.70883,48,70,0
273.2907,273.70883,36,70,0
273.70883,274.01495,58,70,0
273.70883,274.01495,46,70,0
274.01495,274.1119,46,63,0
274.01495,274.1119,34,63,0
274.117,274.5518,46,70,0
274.117,274.5518,34,70,0
274.5518,274.8632,56,73,0
274.5518,274.8632,44,73,0
274.8632,274.96182,44,65,0
274.8632,274.96182,32,65,0
274.967,275.39713,44,73,0
274.967,275.39713,32,73,0
275.39713,275.8375,43,75,0
275.39713,275.8375,31,75,0
275.8375,275.94608,55,70,0
275.8375,275.94608,67,70,0
276.0541,276.1615,67,70,0
276.0541,276.1615,55,70,0
276.2684,276.691,55,73,0
276.2684,276.691,67,73,0
276.69543,276.80222,55,70,0
276.69543,276.80222,67,70,0
276.90897,277.33527,55,70,0
276.90897,277.33527,67,70,0
277.33527,277.4134,65,70,0
277.33527,277.4134,53,70,0
277.43942,277.51755,64,70,0
277.43942,277.51755,52,70,0
277.54358,277.64777,65,73,0
277.54358,277.64777,53,73,0
277.75192,277.91205,53,67,0
277.75192,277.91205,41,67,0
277.96802,278.1304,56,68,0
277.96802,278.1304,44,68,0
278.1825,278.33875,60,68,0
278.1825,278.33875,48,68,0
278.39084,278.5471,62,68,0
278.39084,278.5471,50,68,0
278.59915,278.7554,64,68,0
278.59915,278.7554,52,68,0
278.8075,279.24332,65,75,0
278.8075,279.24332,53,75,0
279.24786,279.35645,53,70,0
279.24786,279.35645,65,70,0
279.46448,279.57187,65,70,0
279.46448,279.57187,53,70,0
279.67877,280.10138,53,73,0
279.67877,280.10138,65,73,0
280.1058,280.2126,53,70,0
280.1058,280.2126,65,70,0
280.31934,280.74564,53,70,0
280.31934,280.74564,65,70,0
280.74564,280.82376,63,70,0
280.74564,280.82376,51,70,0
280.8498,280.92792,62,70,0
280.8498,280.92792,50,70,0
280.95395,281.05814,63,73,0
280.95395,281.05814,51,73,0
281.1623,281.32245,51,67,0
281.1623,281.32245,39,67,0
281.37842,281.54077,55,68,0
281.37842,281.54077,43,68,0
281.59286,281.7491,58,68,0
281.59286,281.7491,46,68,0
281.8012,281.95746,60,68,0
281.8012,281.95746,48,68,0
282.00952,282.16577,62,68,0
282.00952,282.16577,50,68,0
282.21786,282.65372,63,75,0
282.21786,282.65372,51,75,0
282.65826,282.7668,51,70,0
282.65826,282.7668,63,70,0
282.87485,282.98227,63,70,0
282.87485,282.98227,51,70,0
283.08914,283.51175,51,73,0
283.08914,283.51175,63,73,0
283.5162,283.62296,51,70,0
283.5162,283.62296,63,70,0
283.7297,284.156,51,70,0
283.7297,284.156,63,70,0
284.156,284.23413,61,70,0
284.156,284.23413,49,70,0
284.26016,284.3383,60,70,0
284.26016,284.3383,48,70,0
284.36435,284.4685,61,73,0
284.36435,284.4685,49,73,0
284.57266,284.73282,61,67,0
284.57266,284.73282,49,67,0
284.7888,284.95114,56,68,0
284.7888,284.95114,44,68,0
285.00323,285.1595,53,68,0
285.00323,285.1595,41,68,0
285.21158,285.36783,56,68,0
285.21158,285.36783,44,68,0
285.4199,285.841,61,68,0
285.4199,285.841,49,68,0
285.841,285.91913,60,70,0
285.841,285.91913,48,70,0
285.94516,286.0233,59,70,0
285.94516,286.0233,47,70,0
286.04935,286.1535,60,73,0
286.04935,286.1535,48,73,0
286.25766,286.41782,60,67,0
286.25766,286.41782,48,67,0
286.4738,286.63617,55,68,0
286.4738,286.63617,43,68,0
286.68823,286.84448,51,68,0
286.68823,286.84448,39,68,0
286.89658,287.05283,55,68,0
286.89658,287.05283,43,68,0
287.10492,287.52084,60,68,0
287.10492,287.52084,48,68,0
287.52084,287.59897,58,61,0
287.52084,287.59897,46,52,0
287.62503,287.70316,57,63,0
287.62503,287.70316,45,53,0
287.7292,287.83334,58,69,0
287.7292,287.83334,46,58,0
287.93753,288.09766,46,60,0
287.93753,288.09766,34,51,0
288.15363,288.25745,58,68,0
288.15363,288.25745,46,68,0
288.36124,288.43936,56,61,0
288.36124,288.43936,44,52,0
288.4654,288.54352,55,63,0
288.4654,288.54352,43,53,0
288.56958,288.67374,56,69,0
288.56958,288.67374,44,58,0
288.7779,288.93805,44,60,0
288.7779,288.93805,32,51,0
288.99402,289.09818,56,68,0
288.99402,289.09818,44,68,0
289.20233,289.28046,55,61,0
289.20233,289.28046,43,52,0
289.30652,289.38464,54,63,0
289.30652,289.38464,42,53,0
289.41068,289.51483,55,69,0
289.41068,289.51483,43,58,0
289.61902,289.77914,43,60,0
289.61902,289.77914,31,51,0
289.8351,289.94302,55,68,0
289.8351,289.94302,43,68,0
290.05093,290.1319,53,61,0
290.05093,290.1319,41,52,0
290.15887,290.2398,52,63,0
290.15887,290.2398,40,53,0
290.26678,290.37668,53,69,0
290.26678,290.37668,41,58,0
290.48654,290.59976,54,68,0
290.48654,290.59976,42,64,0
290.71298,291.16025,55,69,0
290.71298,291.16025,43,58,0
290.71298,291.16025,47,58,0
290.71298,291.16025,50,58,0
291.16483,291.3728,55,66,0
291.16483,291.3728,43,55,0
291.16483,291.3728,47,55,0
291.16483,291.3728,50,55,0
291.38367,291.5882,55,66,0
291.38367,291.5882,43,55,0
291.38367,291.5882,47,55,0
291.38367,291.5882,50,55,0
291.59888,292.03546,48,69,0
291.59888,292.03546,36,58,0
291.59888,292.03546,39,58,0
291.59888,292.03546,44,58,0
292.04004,292.12366,48,68,0
292.04004,292.12366,36,57,0
292.15143,292.2346,50,72,0
292.15143,292.2346,38,60,0
292.26227,292.34494,51,75,0
292.26227,292.34494,39,63,0
292.37244,292.46136,53,78,0
292.37244,292.46136,41,67,0
292.491,292.93985,55,69,0
292.491,292.93985,43,58,0
292.94443,293.1524,67,66,0
292.94443,293.1524,55,55,0
292.94443,293.1524,59,55,0
292.94443,293.1524,62,55,0
293.16327,293.3678,67,66,0
293.16327,293.3678,55,55,0
293.16327,293.3678,59,55,0
293.16327,293.3678,62,55,0
293.37848,293.81964,60,69,0
293.37848,293.81964,48,58,0
293.37848,293.81964,51,58,0
293.37848,293.81964,56,58,0
293.81964,293.90326,60,68,0
293.81964,293.90326,48,57,0
293.93103,294.0142,62,72,0
293.93103,294.0142,50,60,0
294.04187,294.12457,63,75,0
294.04187,294.12457,51,63,0
294.15204,294.2406,65,78,0
294.15204,294.2406,53,67,0
294.26947,294.72974,67,66,0
294.26947,294.72974,55,55,0
294.26947,294.72974,59,55,0
294.26947,294.72974,62,55,0
294.72974,294.8152,60,68,0
294.72974,294.8152,48,57,0
294.8435,294.92822,62,72,0
294.8435,294.92822,50,60,0
294.9563,295.04016,63,75,0
294.9563,295.04016,51,63,0
295.06796,295.15906,65,78,0
295.06796,295.15906,53,67,0
295.18942,295.64624,67,66,0
295.18942,295.64624,55,55,0
295.18942,295.64624,59,55,0
295.18942,295.64624,62,55,0
295.64624,295.73105,60,68,0
295.64624,295.73105,48,57,0
295.75925,295.84332,62,72,0
295.75925,295.84332,50,60,0
295.87125,295.95462,63,75,0
295.87125,295.95462,51,63,0
295.9823,296.07376,65,78,0
295.9823,296.07376,53,67,0
296.10425,296.56485,67,66,0
296.10425,296.56485,55,55,0
296.10425,296.56485,59,55,0
296.10425,296.56485,62,55,0
296.56485,296.65527,48,69,0
296.56485,296.65527,36,58,0
296.68518,296.7743,50,74,0
296.68518,296.7743,38,63,0
296.80377,296.8915,51,78,0
296.80377,296.8915,39,66,0
296.92053,297.0242,53,82,0
296.92053,297.0242,41,70,0
297.05878,297.57568,55,70,0
297.05878,297.57568,43,58,0
297.05878,297.57568,47,58,0
297.05878,297.57568,50,58,0
297.57568,297.67276,48,75,0
297.57568,297.67276,36,64,0
297.7055,297.80505,50,80,0
297.7055,297.80505,38,67,0
297.83868,297.94092,51,85,0
297.83868,297.94092,39,70,0
297.97546,298.1026,53,89,0
297.97546,298.1026,41,75,0
298.14496,298.61996,55,75,0
298.14496,298.61996,43,56,0
298.14496,298.61996,47,56,0
298.14496,298.61996,50,63,0
301.9882,302.4632,53,75,0
301.9882,302.4632,41,56,0
301.9882,302.4632,47,56,0
301.9882,302.4632,50,63,0
305.84937,306.32434,53,75,0
305.84937,306.32434,41,56,0
305.84937,306.32434,47,56,0
305.84937,306.32434,49,63,0
307.78513,308.2601,54,75,0
307.78513,308.2601,42,56,0
307.78513,308.2601,47,56,0
307.78513,308.2601,50,63,0
309.71228,310.1873,53,75,0
309.71228,310.1873,41,56,0
309.71228,310.1873,44,56,0
309.71228,310.1873,49,63,0
311.6442,312.11917,54,75,0
311.6442,312.11917,42,56,0
311.6442,312.11917,47,56,0
311.6442,312.11917,50,63,0
313.57178,314.04678,53,75,0
313.57178,314.04678,41,56,0
313.57178,314.04678,47,56,0
313.57178,314.04678,50,63,0
314.53513,315.0101,41,75,0
314.53513,315.0101,29,56,0
315.49844,315.97345,42,64,0
315.49844,315.97345,30,53,0
316.4618,316.9368,45,59,0
316.4618,316.9368,33,49,0
317.42514,317.90982,49,57,0
317.42514,317.90982,37,47,0
318.4137,318.9004,52,55,0
318.4137,318.9004,40,46,0
319.40964,319.90442,56,53,0
319.40964,319.90442,44,44,0
320.4212,320.92868,57,56,0
320.4212,320.92868,45,47,0
321.4456,321.95966,56,53,0
321.4456,321.95966,44,44,0
322.99768,323.12753,32,32,0
323.12753,323.2609,36,35,0
323.2609,323.3979,39,38,0
323.3979,323.53806,44,41,0
323.53806,323.79892,45,44,0
325.09125,325.2213,31,27,0
325.2213,325.35425,34,29,0
325.35425,325.4902,39,31,0
325.4902,325.62845,43,34,0
325.62845,325.8893,44,33,0
327.1828,327.31268,32,24,0
327.31268,327.446,36,26,0
327.446,327.583,39,28,0
327.583,327.7232,44,30,0
327.7232,327.9819,45,33,0
329.2764,329.40643,31,24,0
329.40643,329.5394,34,26,0
329.5394,329.67535,39,27,0
329.67535,329.8136,43,30,0
329.8136,330.09033,44,33,0
331.48315,331.6189,48,28,0
331.48315,331.6189,44,23,0
331.75464,331.89816,48,28,0
331.75464,331.89816,44,23,0
332.04172,332.59726,48,33,0
332.04172,332.59726,44,28,0
333.71387,333.85086,48,28,0
333.71387,333.85086,44,23,0
333.98785,334.13208,48,28,0
333.98785,334.13208,44,23,0
334.2763,334.83707,48,33,0
334.2763,334.83707,44,28,0
335.98654,336.13147,49,28,0
335.98654,336.13147,45,23,0
336.2764,336.4343,49,28,0
336.2764,336.4343,45,23,0
336.59216,337.18332,49,33,0
336.59216,337.18332,45,28,0
338.3713,338.51694,49,28,0
338.3713,338.51694,45,23,0
338.66257,338.8274,49,28,0
338.66257,338.8274,45,23,0
338.99225,339.61725,51,33,0
338.99225,339.61725,48,28,0
340.8731,341.0254,51,28,0
340.8731,341.0254,48,23,0
341.17767,341.3416,51,28,0
341.17767,341.3416,48,23,0
341.50552,342.13382,51,33,0
341.50552,342.13382,48,28,0
342.77512,343.42377,51,33,0
342.77512,343.42377,48,28,0
344.0925,344.7592,51,33,0
344.0925,344.7592,48,28,0
345.42584,346.0925,51,32,0
345.42584,346.0925,48,27,0
346.82422,347.60852,51,30,0
346.82422,347.60852,48,26,0
348.43613,349.39612,51,29,0
348.43613,349.39612,48,25,0
