start_time,end_time,note_value,velocity,instrument_program_number
0.0,0.0565185,73,40,0
0.0565185,0.113037,72,51,0
0.23320113,0.3434871,72,45,0
0.3434871,0.4537731,73,39,0
0.4537731,0.5100582,72,46,0
0.6815954,0.7378805,73,40,0
0.7378805,0.7941656,72,49,0
0.9067359,1.0170219,72,44,0
1.0170219,1.1273079,73,36,0
1.1273079,1.1824509,72,42,0
1.3572918,1.4104042,72,40,0
1.4104042,1.4635166,71,52,0
1.5697414,1.6809267,71,47,0
1.6809267,1.7921119,74,40,0
1.7921119,1.9046822,72,45,0
1.9046822,2.0217698,71,36,0
2.0217698,2.085714,72,46,0
2.2775464,2.7339246,67,39,0
2.7339246,2.7892957,72,46,0
2.9554086,3.0107796,67,39,0
3.1768925,3.2322636,72,46,0
3.3983767,3.6198606,70,46,0
3.6198606,3.7283912,68,39,0
3.7283912,3.8369217,67,39,0
3.8369217,4.0618668,65,43,0
4.0618668,4.172609,67,46,0
4.172609,4.2833505,70,38,0
4.2833505,4.3940926,67,46,0
4.3940926,4.5048347,70,40,0
4.5048347,4.612935,64,46,0
4.612935,4.7259717,67,40,0
4.7259717,4.834502,65,46,0
4.834502,4.942621,68,37,0
4.942621,5.04992,72,42,0
5.04992,5.156379,77,47,0
5.156379,5.262016,80,52,0
5.262016,5.371705,82,57,0
5.371705,5.4282236,84,65,0
5.6040273,5.7143135,84,54,0
5.7143135,5.8245993,85,46,0
5.8245993,5.880649,84,55,0
6.0541945,6.10846,85,48,0
6.10846,6.162725,84,64,0
6.2712555,6.3819976,84,52,0
6.3819976,6.4927397,85,43,0
6.4927397,6.5481105,84,50,0
6.7218776,6.834448,84,61,0
6.834448,6.9456334,83,48,0
6.9456334,7.0550346,89,56,0
7.0550346,7.164436,83,48,0
7.164436,7.273837,89,54,0
7.273837,7.3893404,83,43,0
7.3893404,7.4532843,84,55,0
7.645117,8.103301,79,46,0
8.103301,8.158672,84,57,0
8.324785,8.3801565,79,46,0
8.546269,8.601641,84,55,0
8.767754,8.989238,82,55,0
8.989238,9.097768,80,46,0
9.097768,9.206299,79,46,0
9.206299,9.428328,77,51,0
9.428328,9.53907,79,55,0
9.53907,9.649812,82,45,0
9.649812,9.759213,79,55,0
9.759213,9.868614,82,48,0
9.868614,9.976714,76,55,0
9.976714,10.089751,79,48,0
10.089751,10.306812,77,55,0
10.306812,10.415343,65,68,0
10.415343,10.523873,67,69,0
10.523873,10.632404,68,71,0
10.632404,10.745611,70,73,0
10.745611,10.796907,72,74,0
10.954054,11.006979,60,68,0
11.17019,11.221662,72,75,0
11.378612,11.431351,60,60,0
11.593491,11.64649,72,74,0
11.80549,11.858489,60,60,0
12.021775,12.07604,67,59,0
12.021775,12.07604,70,59,0
12.238836,12.344835,68,46,0
12.238836,12.344835,65,46,0
12.344835,12.450835,67,46,0
12.344835,12.450835,64,46,0
12.450835,12.556835,65,46,0
12.450835,12.556835,68,46,0
12.556835,12.662834,67,46,0
12.556835,12.662834,70,46,0
12.662834,13.314084,64,52,0
12.662834,13.314084,67,52,0
13.314084,13.365032,72,74,0
13.521273,13.574012,60,68,0
13.74303,13.955029,72,75,0
13.955029,14.170429,73,77,0
14.170429,14.223429,61,62,0
14.382428,14.435428,73,74,0
14.598714,14.707244,72,52,0
14.598714,14.707244,68,52,0
14.707244,14.815775,67,46,0
14.707244,14.815775,70,46,0
14.815775,14.921774,65,44,0
14.815775,14.921774,68,44,0
14.921774,15.027774,70,42,0
14.921774,15.027774,67,42,0
15.027774,15.133773,65,40,0
15.027774,15.133773,68,40,0
15.133773,15.239773,67,38,0
15.133773,15.239773,64,38,0
15.239773,15.453418,65,49,0
15.453418,15.561948,77,74,0
15.561948,15.670479,79,75,0
15.670479,15.779009,80,78,0
15.779009,15.88754,82,80,0
15.88754,15.938661,84,81,0
16.095633,16.148558,72,74,0
16.311768,16.363596,84,82,0
16.520903,16.573828,72,66,0
16.736155,16.789154,84,81,0
16.948153,17.001152,72,66,0
17.164438,17.218704,79,64,0
17.164438,17.218704,82,64,0
17.3815,17.4875,77,50,0
17.3815,17.4875,80,50,0
17.4875,17.593498,76,50,0
17.4875,17.593498,79,50,0
17.593498,17.699497,77,50,0
17.593498,17.699497,80,50,0
17.699497,17.805498,79,50,0
17.699497,17.805498,82,50,0
17.805498,18.456747,76,57,0
17.805498,18.456747,79,57,0
18.456747,18.508396,84,81,0
18.665895,18.71882,72,74,0
18.882032,19.09403,84,82,0
19.09403,19.30673,85,84,0
19.30673,19.359732,73,68,0
19.51873,19.57173,85,81,0
19.735016,19.843546,70,52,0
19.735016,19.843546,73,52,0
19.843546,19.952076,68,46,0
19.843546,19.952076,71,46,0
19.952076,20.058077,66,44,0
19.952076,20.058077,70,44,0
20.058077,20.164076,71,42,0
20.058077,20.164076,68,42,0
20.164076,20.270075,66,40,0
20.164076,20.270075,70,40,0
20.270075,20.376074,68,38,0
20.270075,20.376074,65,38,0
20.376074,20.482897,70,46,0
20.376074,20.482897,66,46,0
20.58972,20.699121,66,38,0
20.58972,20.699121,70,38,0
20.808521,20.917923,66,38,0
20.808521,20.917923,70,38,0
21.027325,21.135855,68,50,0
21.027325,21.135855,65,42,0
21.027325,21.135855,71,50,0
21.244385,21.352917,71,51,0
21.244385,21.352917,65,43,0
21.244385,21.352917,68,51,0
21.461447,21.569977,65,47,0
21.461447,21.569977,71,56,0
21.461447,21.569977,68,56,0
21.678507,21.785757,77,50,0
21.678507,21.785757,83,59,0
21.678507,21.785757,80,59,0
21.893007,22.000257,83,64,0
21.893007,22.000257,80,64,0
21.893007,22.000257,77,54,0
22.107508,22.214758,77,59,0
22.107508,22.214758,80,70,0
22.107508,22.214758,83,70,0
22.326857,22.434107,96,74,0
22.326857,22.434107,92,62,0
22.434107,22.541357,91,56,0
22.434107,22.541357,94,66,0
22.541357,22.648607,89,61,0
22.541357,22.648607,92,73,0
22.648607,22.755857,94,64,0
22.648607,22.755857,91,55,0
22.755857,22.863108,89,61,0
22.755857,22.863108,92,73,0
22.863108,22.977568,88,55,0
22.863108,22.977568,91,64,0
22.977568,23.103617,89,73,0
23.229668,23.338198,65,68,0
23.338198,23.44673,67,69,0
23.44673,23.55526,68,71,0
23.55526,23.66379,70,73,0
23.66379,23.71491,72,74,0
23.871141,23.923695,60,68,0
24.086535,24.138184,72,75,0
24.295311,24.348051,60,60,0
24.510191,24.56319,72,74,0
24.722189,24.775188,60,60,0
24.941397,24.995663,70,59,0
24.941397,24.995663,67,59,0
25.158457,25.264458,68,46,0
25.158457,25.264458,65,46,0
25.264458,25.370457,64,46,0
25.264458,25.370457,67,46,0
25.370457,25.476456,65,46,0
25.370457,25.476456,68,46,0
25.476456,25.582455,70,46,0
25.476456,25.582455,67,46,0
25.582455,26.233706,67,52,0
25.582455,26.233706,64,52,0
26.233706,26.285355,72,74,0
26.442854,26.495779,60,68,0
26.661064,26.873062,72,75,0
26.873062,27.088463,73,77,0
27.088463,27.141464,61,62,0
27.300463,27.353462,73,74,0
27.516748,27.625278,72,52,0
27.516748,27.625278,68,52,0
27.625278,27.733809,67,46,0
27.625278,27.733809,70,46,0
27.733809,27.83981,65,44,0
27.733809,27.83981,68,44,0
27.83981,27.945808,70,42,0
27.83981,27.945808,67,42,0
27.945808,28.051807,68,40,0
27.945808,28.051807,65,40,0
28.051807,28.157806,64,38,0
28.051807,28.157806,67,38,0
28.157806,28.378698,65,49,0
28.378698,28.487228,77,74,0
28.487228,28.595758,79,75,0
28.595758,28.70429,80,78,0
28.70429,28.81282,82,80,0
28.81282,28.86447,84,81,0
29.021969,29.074894,72,74,0
29.238106,29.290112,84,82,0
29.44797,29.500895,72,66,0
29.663221,29.71622,84,81,0
29.87522,29.92822,72,66,0
30.091505,30.145771,79,64,0
30.091505,30.145771,82,64,0
30.308567,30.414566,80,50,0
30.308567,30.414566,77,50,0
30.414566,30.520565,76,50,0
30.414566,30.520565,79,50,0
30.520565,30.626566,80,50,0
30.520565,30.626566,77,50,0
30.626566,30.732565,82,50,0
30.626566,30.732565,79,50,0
30.732565,31.386772,76,57,0
30.732565,31.386772,79,57,0
31.386772,31.438423,84,81,0
31.596296,31.649408,72,74,0
31.812807,32.024807,84,82,0
32.024807,32.240208,85,84,0
32.240208,32.293205,73,68,0
32.452206,32.505207,85,81,0
32.66849,32.777023,70,52,0
32.66849,32.777023,73,52,0
32.777023,32.88555,71,46,0
32.777023,32.88555,68,46,0
32.88555,32.99155,70,44,0
32.88555,32.99155,66,44,0
32.99155,33.097553,71,42,0
32.99155,33.097553,68,42,0
33.097553,33.203552,70,40,0
33.097553,33.203552,66,40,0
33.203552,33.30955,65,38,0
33.203552,33.30955,68,38,0
33.30955,33.416374,70,46,0
33.30955,33.416374,66,46,0
33.523197,33.632595,70,38,0
33.523197,33.632595,66,38,0
33.741997,33.8514,66,38,0
33.741997,33.8514,70,38,0
33.9608,34.069332,65,42,0
33.9608,34.069332,68,50,0
33.9608,34.069332,71,50,0
34.17786,34.286392,65,43,0
34.17786,34.286392,71,51,0
34.17786,34.286392,68,51,0
34.394924,34.503452,65,47,0
34.394924,34.503452,71,56,0
34.394924,34.503452,68,56,0
34.611984,34.719234,77,50,0
34.611984,34.719234,80,59,0
34.611984,34.719234,83,59,0
34.826485,34.933735,77,54,0
34.826485,34.933735,80,64,0
34.826485,34.933735,83,64,0
35.040985,35.14823,83,70,0
35.040985,35.14823,80,70,0
35.040985,35.14823,77,59,0
35.260334,35.36544,92,62,0
35.260334,35.36544,96,74,0
35.36544,35.47055,91,56,0
35.36544,35.47055,94,66,0
35.47055,35.577152,89,61,0
35.47055,35.577152,92,73,0
35.577152,35.683754,94,64,0
35.577152,35.683754,91,55,0
35.683754,35.790356,92,73,0
35.683754,35.790356,89,61,0
35.790356,35.904816,88,55,0
35.790356,35.904816,91,64,0
35.904816,36.013348,89,73,0
36.121876,36.175568,91,73,0
36.175568,36.229702,92,67,0
36.229702,36.283447,91,58,0
36.283447,36.337223,92,54,0
36.337223,36.391064,91,58,0
36.391064,36.445248,92,52,0
36.445248,36.499126,91,58,0
36.499126,36.552654,92,52,0
36.552654,36.606018,91,58,0
36.606018,36.659157,92,52,0
36.659157,36.729668,91,58,0
36.729668,36.800343,92,54,0
36.800343,36.871567,91,58,0
36.871567,36.925312,90,54,0
36.925312,36.97941,91,56,0
36.97941,37.08751,92,69,0
37.08751,37.19561,91,61,0
37.19561,37.30371,89,81,0
37.41181,37.466587,79,73,0
37.466587,37.52164,80,67,0
37.52164,37.57649,79,58,0
37.57649,37.630836,80,54,0
37.630836,37.68549,79,58,0
37.68549,37.740547,80,52,0
37.740547,37.79524,79,58,0
37.79524,37.849567,80,52,0
37.849567,37.90356,79,58,0
37.90356,37.957195,80,52,0
37.957195,38.02813,79,58,0
38.02813,38.099285,80,54,0
38.099285,38.17126,79,58,0
38.17126,38.22578,78,54,0
38.22578,38.28052,79,56,0
38.28052,38.388622,80,69,0
38.388622,38.496723,79,63,0
38.496723,38.60482,77,81,0
38.71292,38.766613,91,73,0
38.766613,38.820747,92,67,0
38.820747,38.874493,91,58,0
38.874493,38.92827,92,54,0
38.92827,38.98211,91,58,0
38.98211,39.036293,92,52,0
39.036293,39.09017,91,58,0
39.09017,39.144585,92,52,0
39.144585,39.200855,90,58,0
39.200855,39.256664,91,53,0
39.256664,39.312016,92,54,0
39.312016,39.366875,94,56,0
39.366875,39.421314,96,57,0
39.421314,39.476143,97,58,0
39.476143,39.531364,100,60,0
39.531364,39.586994,101,62,0
39.586994,39.624264,100,63,0
39.624264,39.661728,97,62,0
39.662666,39.70032,96,61,0
39.70032,39.738148,94,61,0
39.7372,39.775223,92,60,0
39.775223,39.81339,91,59,0
39.81339,39.927895,89,81,0
40.042397,40.09609,79,73,0
40.09609,40.150223,80,53,0
40.150223,40.203968,79,58,0
40.203968,40.257744,80,54,0
40.257744,40.311584,79,58,0
40.311584,40.366154,80,52,0
40.366154,40.42093,79,58,0
40.42093,40.475925,80,52,0
40.475925,40.522022,78,58,0
40.522022,40.567993,79,53,0
40.567993,40.613525,80,54,0
40.613525,40.658634,82,56,0
40.658634,40.703136,84,57,0
40.703136,40.747402,85,58,0
40.747402,40.791683,88,60,0
40.791683,40.835964,89,62,0
40.835964,40.880245,91,62,0
40.880245,40.924522,89,62,0
40.924522,40.954967,88,63,0
40.954967,40.98541,85,63,0
40.98541,41.015854,84,62,0
41.015854,41.046295,82,61,0
41.046295,41.076736,80,61,0
41.076736,41.10718,79,60,0
41.10718,41.14584,77,59,0
41.14584,41.201035,76,58,0
41.201035,41.25652,73,55,0
41.25652,41.31236,72,53,0
41.31236,41.368504,70,51,0
41.368504,41.425026,68,49,0
41.425026,41.481907,67,47,0
41.481907,41.539104,66,45,0
41.539104,41.59667,67,42,0
41.59667,41.635265,68,40,0
41.635265,41.673904,69,40,0
41.673904,41.712677,70,39,0
41.712677,41.751583,71,39,0
41.751583,41.79062,72,37,0
41.79062,41.829845,73,37,0
41.829845,41.886364,72,56,0
42.063046,42.173332,72,45,0
42.173332,42.28362,73,39,0
42.28362,42.3399,72,46,0
42.51144,42.567726,73,40,0
42.567726,42.624012,72,49,0
42.73658,42.846867,72,44,0
42.846867,42.957153,73,36,0
42.957153,43.012295,72,42,0
43.187138,43.299706,72,40,0
43.299706,43.355175,71,52,0
43.410645,43.519176,71,47,0
43.519176,43.627705,74,40,0
43.627705,43.740276,72,45,0
43.740276,43.857365,71,36,0
43.857365,43.921307,72,46,0
44.11314,44.56903,67,39,0
44.56903,44.6244,72,46,0
44.790512,44.845882,67,39,0
45.011997,45.067368,72,46,0
45.233482,45.454964,70,46,0
45.454964,45.563496,68,39,0
45.563496,45.672028,67,39,0
45.672028,45.898666,65,43,0
45.898666,46.009407,67,46,0
46.009407,46.12015,70,38,0
46.12015,46.230892,67,46,0
46.230892,46.341637,70,40,0
46.341637,46.449734,64,46,0
46.449734,46.56277,67,40,0
46.56277,46.671303,65,46,0
46.671303,46.779423,68,37,0
46.779423,46.88672,72,42,0
46.88672,46.99318,77,47,0
46.99318,47.098816,80,52,0
47.098816,47.208504,82,57,0
47.208504,47.265022,84,65,0
47.440826,47.551113,84,54,0
47.551113,47.6614,85,46,0
47.6614,47.71745,84,55,0
47.890034,47.94632,85,48,0
47.94632,48.0026,84,64,0
48.115173,48.225914,84,52,0
48.225914,48.33666,85,43,0
48.33666,48.39203,84,50,0
48.56304,48.67561,84,61,0
48.67561,48.786797,83,48,0
48.786797,48.8962,89,56,0
48.8962,49.005596,83,48,0
49.005596,49.114998,89,54,0
49.114998,49.230503,83,43,0
49.230503,49.294445,84,55,0
49.48628,49.944466,79,46,0
49.944466,49.999836,84,57,0
50.165947,50.221317,79,46,0
50.387432,50.442802,84,55,0
50.608917,50.8304,82,62,0
50.8304,50.93893,80,49,0
50.93893,51.047462,79,49,0
51.047462,51.26949,77,57,0
51.26949,51.32486,82,61,0
51.490974,51.546345,77,48,0
51.71246,51.76783,82,57,0
51.93394,52.155426,80,63,0
52.155426,52.263958,79,50,0
52.263958,52.372486,77,50,0
52.372486,52.594517,75,55,0
52.594517,52.64715,80,64,0
52.80731,52.86107,75,49,0
53.02512,53.07917,80,58,0
53.24132,53.294136,81,63,0
53.45448,53.508244,75,53,0
53.673195,53.72703,81,61,0
53.88854,53.942165,82,75,0
54.106533,54.16037,77,69,0
54.106533,54.16037,74,69,0
54.32539,54.377945,86,80,0
54.540787,54.59297,77,71,0
54.540787,54.59297,82,71,0
54.754562,54.806393,89,83,0
54.96632,55.017616,86,73,0
54.96632,55.017616,82,73,0
55.178753,55.283524,92,78,0
55.283524,55.388294,90,66,0
55.388294,55.493065,89,77,0
55.493065,55.597836,90,62,0
55.597836,55.702606,87,71,0
55.807377,55.912148,84,66,0
56.01692,56.122395,81,61,0
56.22787,56.33335,78,52,0
56.438828,56.492455,82,75,0
56.65682,56.710655,74,69,0
56.65682,56.710655,77,69,0
56.87568,56.92879,86,80,0
57.09219,57.14438,82,71,0
57.09219,57.14438,77,71,0
57.305965,57.357616,89,83,0
57.517365,57.568314,82,73,0
57.517365,57.568314,86,73,0
57.729103,57.83291,92,78,0
57.83291,57.936714,90,66,0
57.936714,58.040524,89,77,0
58.040524,58.14433,90,62,0
58.14433,58.24959,87,69,0
58.354855,58.459023,84,66,0
58.563187,58.667355,81,61,0
58.771523,58.876785,78,52,0
58.982048,59.035675,82,75,0
59.20004,59.253876,74,69,0
59.20004,59.253876,77,69,0
59.4189,59.472736,83,77,0
59.63686,59.689857,77,71,0
59.63686,59.689857,74,71,0
59.85226,59.905052,86,83,0
60.06595,60.117935,77,73,0
60.06595,60.117935,83,73,0
60.279762,60.333385,84,75,0
60.497753,60.55159,79,69,0
60.497753,60.55159,76,69,0
60.716614,60.77045,88,77,0
60.934574,60.98757,85,71,0
60.934574,60.98757,79,71,0
61.149975,61.202766,91,83,0
61.363663,61.41565,88,73,0
61.363663,61.41565,82,73,0
61.363663,61.41565,85,73,0
61.577477,61.6311,89,75,0
61.795467,61.849304,84,69,0
61.795467,61.849304,77,69,0
62.014328,62.068165,94,77,0
62.23229,62.285286,82,71,0
62.44769,62.50048,96,83,0
62.661377,62.713364,84,73,0
62.875175,62.98425,89,73,0
62.875175,62.98425,101,87,0
63.093338,63.1476,91,73,0
63.1476,63.201725,92,67,0
63.201725,63.25584,91,58,0
63.25584,63.31002,92,54,0
63.31002,63.364674,91,58,0
63.364674,63.41909,92,52,0
63.41909,63.473263,91,58,0
63.473263,63.527172,92,52,0
63.527172,63.58085,91,58,0
63.58085,63.634296,92,52,0
63.634296,63.705048,91,58,0
63.705048,63.77589,92,54,0
63.77589,63.847404,91,58,0
63.847404,63.901478,90,54,0
63.901478,63.95595,91,56,0
63.95595,64.06406,92,64,0
64.06406,64.17216,91,58,0
64.17216,64.28025,89,81,0
64.38844,64.442894,79,73,0
64.442894,64.49748,80,67,0
64.49748,64.55186,79,58,0
64.55186,64.606476,80,54,0
64.606476,64.66104,79,58,0
64.66104,64.71594,80,52,0
64.71594,64.77061,79,58,0
64.77061,64.82476,80,52,0
64.82476,64.87845,79,58,0
64.87845,64.93168,80,52,0
64.93168,65.00186,79,58,0
65.00186,65.07199,80,54,0
65.07199,65.14293,79,58,0
65.14293,65.19667,78,54,0
65.19667,65.25089,79,56,0
65.25089,65.35899,80,64,0
65.35899,65.467094,79,58,0
65.467094,65.575195,77,81,0
65.6833,65.73754,91,73,0
65.73754,65.79179,92,67,0
65.79179,65.84605,91,58,0
65.84605,65.899956,92,54,0
65.899956,65.95438,91,58,0
65.95438,66.008484,92,52,0
66.008484,66.06236,91,58,0
66.06236,66.116486,92,52,0
66.116486,66.17377,90,58,0
66.17377,66.23048,91,53,0
66.23048,66.286476,92,54,0
66.286476,66.34189,94,56,0
66.34189,66.39681,96,57,0
66.39681,66.45196,97,58,0
66.45196,66.507324,100,60,0
66.507324,66.562965,101,62,0
66.562965,66.60018,100,63,0
66.60018,66.63751,97,62,0
66.63845,66.675865,96,61,0
66.675865,66.71339,94,61,0
66.71245,66.7501,92,60,0
66.7501,66.78787,91,59,0
66.78787,66.9018,89,81,0
67.01675,67.070435,79,73,0
67.070435,67.12457,80,67,0
67.12457,67.178314,79,58,0
67.178314,67.23209,80,54,0
67.23209,67.285934,79,58,0
67.285934,67.3405,80,52,0
67.3405,67.39528,79,58,0
67.39528,67.450516,80,52,0
67.450516,67.49806,78,58,0
67.49806,67.545204,79,53,0
67.545204,67.591896,80,54,0
67.591896,67.63814,82,56,0
67.63814,67.68394,84,57,0
67.68394,67.72965,86,58,0
67.72965,67.77545,88,60,0
67.77545,67.82125,89,62,0
67.82125,67.86705,91,62,0
67.86705,67.91606,89,62,0
67.91606,67.93652,88,60,0
67.93652,67.95705,86,59,0
67.95705,67.97768,84,57,0
67.97768,67.998375,82,56,0
67.997154,68.01791,80,55,0
68.01791,68.03849,79,53,0
68.03849,68.05916,77,51,0
68.05916,68.080414,76,50,0
68.080414,68.10198,73,48,0
68.10071,68.12911,72,47,0
68.12911,68.158,70,46,0
68.158,68.187454,68,44,0
68.187454,68.21893,67,42,0
68.21893,68.47472,65,70,0
68.98627,69.41355,79,79,0
68.98627,69.41355,75,67,0
68.98627,69.41355,73,67,0
68.98627,69.41355,70,67,0
68.98627,69.41355,67,67,0
70.25827,70.363884,80,40,0
70.363884,70.468765,82,39,0
70.468765,70.57291,84,41,0
70.57291,70.67634,85,43,0
70.67634,70.77906,87,46,0
70.77906,70.88106,85,46,0
70.88106,70.9835,84,46,0
70.9835,71.08656,82,45,0
71.08656,71.19016,80,44,0
71.19016,71.29434,79,43,0
71.29434,71.39913,77,42,0
71.39913,71.50452,75,41,0
71.50452,71.610504,73,41,0
71.610504,71.71708,72,39,0
71.71708,71.82428,70,38,0
71.82428,71.93206,68,38,0
71.93206,72.03942,67,36,0
72.03942,72.14679,68,35,0
72.14679,72.25401,70,33,0
72.25401,72.36074,72,33,0
72.36074,72.46696,73,34,0
72.46696,72.57267,75,36,0
72.57267,72.6779,77,37,0
72.6779,72.78269,79,39,0
72.78269,72.88722,80,40,0
72.88722,72.9913,82,39,0
72.9913,73.094826,84,41,0
73.094826,73.19789,85,43,0
73.19188,73.29443,89,46,0
73.3004,73.40244,87,46,0
73.40244,73.50387,85,46,0
73.50387,73.60584,84,45,0
73.60584,73.70859,82,44,0
73.70859,73.8121,80,43,0
73.8121,73.91638,79,42,0
73.91638,74.028206,77,41,0
74.028206,74.13186,75,41,0
74.13186,74.23552,77,33,0
74.23552,74.33917,73,38,0
74.33917,74.442825,75,32,0
74.442825,74.546486,72,36,0
74.546486,74.65014,75,29,0
74.65014,74.75377,70,33,0
74.75377,74.857376,75,30,0
74.857376,74.961235,68,38,0
74.961235,75.0657,75,31,0
75.0657,75.170685,67,40,0
75.170685,75.27622,75,33,0
75.27622,75.381836,80,40,0
75.381836,75.48671,82,39,0
75.48671,75.59086,83,41,0
75.59086,75.69429,85,43,0
75.69429,75.79701,87,46,0
75.79701,75.89901,85,46,0
75.89901,76.00145,83,46,0
76.00145,76.104515,82,45,0
76.104515,76.20811,80,44,0
76.20811,76.312294,78,43,0
76.312294,76.41708,76,42,0
76.41708,76.52246,75,41,0
76.52246,76.62845,73,41,0
76.62845,76.73502,71,39,0
76.73502,76.842224,70,38,0
76.842224,76.950005,68,38,0
76.950005,77.05737,67,36,0
77.05737,77.164734,68,35,0
77.164734,77.271965,70,33,0
77.271965,77.37869,71,33,0
77.37869,77.4849,73,34,0
77.4849,77.590614,75,36,0
77.590614,77.69585,76,37,0
77.69585,77.80064,79,39,0
77.80064,77.905174,80,40,0
77.905174,78.00925,82,39,0
78.00925,78.11277,83,41,0
78.11277,78.215836,85,43,0
78.215836,78.318344,88,46,0
78.318344,78.420395,87,46,0
78.420395,78.52182,85,46,0
78.52182,78.623795,83,45,0
78.623795,78.72654,82,44,0
78.72654,78.830055,80,43,0
78.830055,78.93433,78,42,0
78.93433,79.04616,76,41,0
79.04616,79.25346,75,46,0
79.25346,79.357124,73,38,0
79.357124,79.46078,75,32,0
79.46078,79.56443,71,36,0
79.56443,79.66809,75,29,0
79.66809,79.77172,70,33,0
79.77172,79.87533,75,30,0
79.87533,79.97919,68,38,0
79.97919,80.08365,75,31,0
80.08365,80.18864,67,40,0
80.29417,80.39978,80,46,0
80.39978,80.50466,82,44,0
80.50466,80.60881,84,47,0
80.60881,80.712234,85,49,0
80.712234,80.81496,87,52,0
80.81496,80.916954,85,52,0
80.916954,81.0194,84,52,0
81.0194,81.12246,82,51,0
81.12246,81.22606,80,50,0
81.22606,81.33024,79,49,0
81.33024,81.43503,77,48,0
81.43503,81.54041,75,47,0
81.54041,81.6464,73,47,0
81.6464,81.752975,72,44,0
81.752975,81.860176,70,43,0
81.860176,81.96796,68,43,0
81.96796,82.07532,67,41,0
82.07532,82.182686,68,40,0
82.182686,82.28991,70,37,0
82.28991,82.39664,72,37,0
82.39664,82.50285,73,39,0
82.50285,82.60857,75,41,0
82.60857,82.7138,77,42,0
82.7138,82.81859,79,44,0
82.81859,82.92313,80,46,0
82.92313,83.0272,82,47,0
83.0272,83.13072,84,49,0
83.13072,83.23379,85,52,0
83.23379,83.336296,87,54,0
83.336296,83.43807,89,56,0
83.43807,83.53903,91,59,0
83.53903,83.63928,92,61,0
83.63928,83.73883,94,63,0
83.73883,83.83773,96,66,0
83.83773,83.93591,97,68,0
83.93591,84.033455,99,70,0
84.033455,84.13043,101,73,0
84.13043,84.227585,99,73,0
84.227585,84.32499,97,72,0
84.32499,84.422646,96,71,0
84.422646,84.52055,94,70,0
84.52055,84.618774,92,69,0
84.618774,84.71728,91,68,0
84.71728,84.8168,89,67,0
84.8168,84.91744,87,66,0
84.91744,85.019325,85,66,0
85.019325,85.12238,84,65,0
85.12238,85.22658,82,64,0
85.22658,85.330475,80,67,0
85.330475,85.43327,82,68,0
85.43327,85.53499,83,69,0
85.53499,85.63564,85,71,0
85.63564,85.7353,87,72,0
85.7353,85.83399,85,73,0
85.83399,85.93306,83,74,0
85.93306,86.03273,82,73,0
86.03273,86.13302,80,71,0
86.13302,86.23389,78,70,0
86.23389,86.33536,76,68,0
86.33536,86.437454,75,67,0
86.437454,86.54021,73,65,0
86.54021,86.64357,71,64,0
86.64357,86.74758,70,62,0
86.74758,86.852295,68,61,0
86.852295,86.95768,67,59,0
86.95768,87.06263,68,58,0
87.06263,87.16714,70,56,0
87.16714,87.271194,71,55,0
87.271194,87.37476,73,56,0
87.37476,87.47794,75,58,0
87.47794,87.580696,76,60,0
87.580696,87.68303,79,62,0
87.68303,87.7849,80,65,0
87.7849,87.88633,82,63,0
87.88633,87.98738,83,65,0
87.98738,88.088036,85,66,0
88.088036,88.18827,87,67,0
88.18827,88.28805,89,68,0
88.28805,88.38743,91,69,0
88.38743,88.48646,92,70,0
88.48646,88.58508,94,72,0
88.58508,88.68329,95,73,0
88.68329,88.78108,97,74,0
88.78108,88.878494,99,75,0
88.878494,88.97553,100,76,0
88.97553,89.072685,99,77,0
89.072685,89.17008,97,72,0
89.17008,89.26774,95,71,0
89.26774,89.36565,94,70,0
89.36565,89.463875,92,69,0
89.463875,89.56239,91,71,0
89.56239,89.66118,88,68,0
89.66118,89.760216,87,65,0
89.760216,89.85952,85,62,0
89.85952,89.95909,83,60,0
89.95909,90.07484,82,57,0
90.07484,90.172775,87,63,0
90.172775,90.27107,85,62,0
90.27107,90.36968,83,60,0
90.36968,90.46866,82,58,0
90.46866,90.56799,80,57,0
90.56799,90.667656,78,55,0
90.667656,90.767685,76,53,0
90.767685,90.86805,75,52,0
90.86805,90.96879,73,50,0
90.96879,91.06989,71,48,0
91.06989,91.17135,70,46,0
91.17135,91.27318,68,45,0
91.27318,91.369835,69,46,0
91.369835,91.4665,73,43,0
91.4665,91.56316,69,48,0
91.56316,91.66371,73,42,0
91.66371,91.8011,76,53,0
91.938484,92.03515,67,46,0
92.03515,92.13181,70,43,0
92.13181,92.22847,67,48,0
92.22847,92.329025,70,42,0
92.329025,92.465164,75,53,0
92.6013,92.69924,99,70,0
92.69924,92.79754,97,69,0
92.79754,92.89615,95,67,0
92.89615,92.995125,94,65,0
92.995125,93.09446,92,63,0
93.09446,93.19412,90,62,0
93.19412,93.29415,88,60,0
93.29415,93.394516,87,58,0
93.394516,93.495255,85,57,0
93.495255,93.59636,83,55,0
93.59636,93.697815,82,53,0
93.697815,93.799644,80,52,0
93.799644,93.8963,81,50,0
93.8963,93.992966,85,45,0
93.992966,94.08963,81,52,0
94.08963,94.19018,85,46,0
94.19018,94.32819,88,54,0
94.46622,94.56288,79,51,0
94.56288,94.65954,82,44,0
94.65954,94.7562,79,51,0
94.7562,94.85675,82,45,0
94.85675,94.99289,87,53,0
95.129036,95.226974,92,70,0
95.226974,95.325264,87,68,0
95.325264,95.42388,85,66,0
95.42388,95.52286,83,64,0
95.52286,95.58901,82,62,0
95.58901,95.655365,80,60,0
95.655365,95.721855,78,59,0
95.721855,95.821884,76,57,0
95.821884,95.92225,75,55,0
95.92225,96.02298,73,53,0
96.02298,96.12409,71,51,0
96.12409,96.22554,70,49,0
96.22554,96.32737,68,47,0
96.32737,96.424034,69,51,0
96.424034,96.52069,73,45,0
96.52069,96.617355,69,50,0
96.617355,96.7179,73,45,0
96.7179,97.20158,76,50,0
97.20158,97.4868,75,39,0
97.4868,98.122665,67,34,0
98.122665,98.21933,68,42,0
98.21933,98.31599,71,35,0
98.31599,98.41265,68,42,0
98.41265,98.5132,71,35,0
98.5132,98.66676,80,53,0
98.82033,98.91699,70,42,0
98.91699,99.01365,73,35,0
99.01365,99.11031,70,42,0
99.11031,99.21086,73,35,0
99.21086,99.36134,82,53,0
99.511826,99.60849,71,42,0
99.60849,99.70515,75,35,0
99.70515,99.80181,71,42,0
99.80181,99.90236,75,35,0
99.90236,100.05284,83,53,0
100.20332,100.2569,82,46,0
100.20332,100.2569,73,39,0
100.20332,100.2569,70,39,0
100.41761,100.47215,82,43,0
100.41761,100.47215,70,36,0
100.41761,100.47215,73,36,0
100.635796,100.69523,80,43,0
100.635796,100.69523,71,36,0
100.635796,100.69523,68,36,0
100.87355,100.97021,67,42,0
100.97021,101.06687,70,35,0
101.06687,101.163536,67,42,0
101.163536,101.264084,70,35,0
101.264084,101.41765,79,53,0
101.571205,101.66787,68,42,0
101.66787,101.764534,71,35,0
101.764534,101.8612,68,42,0
101.8612,101.96175,71,35,0
101.96175,102.10432,80,53,0
102.24689,102.34355,70,42,0
102.34355,102.440216,73,35,0
102.440216,102.53687,70,42,0
102.53687,102.63742,73,35,0
102.63742,102.7879,82,53,0
102.938385,102.99177,80,46,0
102.938385,102.99177,68,39,0
102.938385,102.99177,71,39,0
103.15191,103.20646,71,36,0
103.15191,103.20646,80,43,0
103.15191,103.20646,68,36,0
103.370094,103.42953,67,36,0
103.370094,103.42953,79,43,0
103.370094,103.42953,70,36,0
103.60785,103.704506,68,46,0
103.704506,103.80117,71,38,0
103.80117,103.897835,68,46,0
103.897835,103.99838,71,38,0
103.99838,104.15195,80,58,0
104.30551,104.40217,70,46,0
104.40217,104.49883,73,38,0
104.49883,104.5955,70,46,0
104.5955,104.696045,73,38,0
104.696045,104.84653,82,58,0
104.99701,105.093666,71,46,0
105.093666,105.19033,75,38,0
105.19033,105.286995,71,46,0
105.286995,105.38754,75,38,0
105.38754,105.52746,83,58,0
105.667366,105.72132,73,50,0
105.667366,105.72132,85,59,0
105.667366,105.72132,76,50,0
105.883194,105.93794,85,55,0
105.883194,105.93794,73,46,0
105.883194,105.93794,76,46,0
106.10217,106.169014,87,55,0
106.10217,106.169014,75,46,0
106.10217,106.169014,78,46,0
106.36953,106.466194,71,46,0
106.466194,106.56285,75,38,0
106.56285,106.659515,71,46,0
106.659515,106.76006,75,38,0
106.76006,106.910545,83,58,0
107.06103,107.11479,76,50,0
107.06103,107.11479,73,50,0
107.06103,107.11479,85,59,0
107.276085,107.330826,85,55,0
107.276085,107.330826,73,46,0
107.276085,107.330826,76,46,0
107.49506,107.5545,87,55,0
107.49506,107.5545,78,46,0
107.49506,107.5545,75,46,0
107.73282,107.829475,70,52,0
107.829475,107.92614,75,43,0
107.92614,108.022804,70,52,0
108.022804,108.12335,75,43,0
108.12335,108.3537,82,66,0
108.43047,108.52714,71,52,0
108.52714,108.6238,75,43,0
108.6238,108.72047,71,52,0
108.72047,108.821014,75,43,0
108.821014,109.04674,83,66,0
109.12198,109.218636,73,52,0
109.218636,109.3153,76,43,0
109.3153,109.411964,73,52,0
109.411964,109.51251,76,43,0
109.51251,109.738235,85,66,0
109.81348,109.86743,71,57,0
109.81348,109.86743,75,57,0
109.81348,109.86743,83,67,0
109.81348,109.86743,80,57,0
110.029305,110.084045,80,52,0
110.029305,110.084045,75,52,0
110.029305,110.084045,83,63,0
110.029305,110.084045,71,52,0
110.24828,110.30772,79,52,0
110.24828,110.30772,70,52,0
110.24828,110.30772,82,63,0
110.24828,110.30772,75,52,0
110.48604,110.582695,70,57,0
110.582695,110.67936,75,47,0
110.67936,110.776024,70,57,0
110.776024,110.87657,75,47,0
110.87657,111.08644,82,72,0
111.156395,111.25306,71,57,0
111.25306,111.34972,75,47,0
111.34972,111.44638,71,57,0
111.44638,111.54693,75,47,0
111.54693,111.75978,83,72,0
111.83073,111.92739,73,57,0
111.92739,112.02405,76,47,0
112.02405,112.12071,73,57,0
112.12071,112.22126,76,47,0
112.22126,112.44698,85,72,0
112.522224,112.57599,75,57,0
112.522224,112.57599,83,67,0
112.522224,112.57599,80,57,0
112.522224,112.57599,71,57,0
112.73728,112.79222,75,52,0
112.73728,112.79222,83,63,0
112.73728,112.79222,71,52,0
112.73728,112.79222,80,52,0
112.95706,113.016495,75,52,0
112.95706,113.016495,79,52,0
112.95706,113.016495,70,52,0
112.95706,113.016495,82,63,0
113.19482,113.29147,73,62,0
113.29147,113.38814,82,51,0
113.38814,113.4848,73,62,0
113.4848,113.58535,82,51,0
113.58535,113.8157,85,79,0
113.89248,113.989136,75,62,0
113.989136,114.0858,83,51,0
114.0858,114.182465,75,62,0
114.182465,114.28301,83,51,0
114.28301,114.508736,87,79,0
114.58398,114.68063,76,62,0
114.68063,114.7773,85,51,0
114.7773,114.87396,76,62,0
114.87396,114.97451,85,51,0
114.97451,115.20023,88,79,0
115.275475,115.32963,73,62,0
115.275475,115.32963,82,62,0
115.275475,115.32963,85,73,0
115.49208,115.547226,85,69,0
115.49208,115.547226,73,57,0
115.49208,115.547226,82,57,0
115.71267,115.77211,79,57,0
115.71267,115.77211,82,69,0
115.71267,115.77211,70,57,0
115.950424,116.04709,76,62,0
116.04709,116.143745,85,51,0
116.143745,116.24041,76,62,0
116.24041,116.34096,85,51,0
116.34096,116.54328,88,79,0
116.61072,116.66487,85,73,0
116.61072,116.66487,82,62,0
116.61072,116.66487,73,62,0
116.827324,116.88207,82,57,0
116.827324,116.88207,73,57,0
116.827324,116.88207,85,69,0
117.0463,117.10844,82,69,0
117.0463,117.10844,79,57,0
117.0463,117.10844,70,57,0
117.29483,117.39057,76,62,0
117.39057,117.486305,85,51,0
117.486305,117.58205,76,62,0
117.58205,117.682594,85,51,0
117.682594,117.87879,88,79,0
117.94419,118.03932,79,68,0
118.03932,118.13445,88,56,0
118.13445,118.229576,79,68,0
118.229576,118.33013,88,57,0
118.33013,118.521324,91,89,0
118.58506,118.67929,82,71,0
118.67929,118.77352,91,58,0
118.77352,118.86776,82,71,0
118.86776,118.96831,91,59,0
118.96831,119.15475,94,93,0
119.216896,119.31084,85,74,0
119.31084,119.40477,94,61,0
119.40477,119.49871,85,75,0
119.49871,119.59926,94,62,0
119.59926,119.80073,97,97,0
119.86789,119.96282,88,77,0
119.96282,120.05776,97,63,0
120.05776,120.152695,88,78,0
120.152695,120.25833,97,64,0
120.25833,120.484055,100,101,0
121.76735,121.864006,76,42,0
121.864006,121.96067,85,35,0
121.96067,122.057335,76,42,0
122.057335,122.15788,85,35,0
122.15788,122.31145,88,53,0
122.465004,122.56167,76,42,0
122.56167,122.65833,85,35,0
122.65833,122.75499,76,42,0
122.75499,122.855545,85,35,0
122.855545,123.00603,88,53,0
123.15651,123.25317,76,42,0
123.25317,123.34983,85,35,0
123.34983,123.446495,76,42,0
123.446495,123.54704,85,35,0
123.54704,123.697525,88,53,0
123.84801,123.90157,86,46,0
123.84801,123.90157,74,39,0
123.84801,123.90157,83,39,0
124.062294,124.11684,74,36,0
124.062294,124.11684,86,43,0
124.062294,124.11684,83,36,0
124.28047,124.33991,81,36,0
124.28047,124.33991,73,36,0
124.28047,124.33991,85,43,0
124.51823,124.61489,74,42,0
124.61489,124.711555,83,35,0
124.711555,124.80821,74,42,0
124.80821,124.90876,83,35,0
124.90876,125.062325,86,53,0
125.21589,125.31255,74,42,0
125.31255,125.40921,83,35,0
125.40921,125.505875,74,42,0
125.505875,125.60642,83,35,0
125.60642,125.74569,86,53,0
125.88495,125.98161,74,42,0
125.98161,126.07828,83,35,0
126.07828,126.174934,74,42,0
126.174934,126.27549,83,35,0
126.27549,126.42668,86,53,0
126.57787,126.63145,73,39,0
126.57787,126.63145,85,46,0
126.57787,126.63145,81,39,0
126.79216,126.8467,81,36,0
126.79216,126.8467,85,43,0
126.79216,126.8467,73,36,0
127.010345,127.06978,71,36,0
127.010345,127.06978,83,43,0
127.010345,127.06978,80,36,0
127.2481,127.34476,76,42,0
127.34476,127.44142,85,35,0
127.44142,127.538086,76,42,0
127.538086,127.63863,85,35,0
127.63863,127.7922,88,53,0
127.94576,128.04242,76,42,0
128.04242,128.13908,85,35,0
128.13908,128.23575,76,42,0
128.23575,128.33629,85,35,0
128.33629,128.48677,88,53,0
128.63725,128.73392,76,42,0
128.73392,128.83058,85,35,0
128.83058,128.92725,76,42,0
128.92725,129.02779,85,35,0
129.02779,129.17827,88,53,0
129.32875,129.38232,88,50,0
129.32875,129.38232,80,50,0
129.32875,129.38232,92,60,0
129.54305,129.5976,88,46,0
129.54305,129.5976,92,56,0
129.54305,129.5976,80,46,0
129.76123,129.82066,93,56,0
129.76123,129.82066,88,46,0
129.76123,129.82066,81,46,0
129.99898,130.09564,74,42,0
130.09564,130.1923,83,35,0
130.1923,130.28897,74,42,0
130.28897,130.38951,83,35,0
130.38951,130.54308,86,53,0
130.69664,130.7933,74,42,0
130.7933,130.88997,83,35,0
130.88997,130.98663,74,42,0
130.98663,131.08717,83,35,0
131.08717,131.23766,86,53,0
131.38814,131.4848,74,42,0
131.4848,131.58147,83,35,0
131.58147,131.67813,74,42,0
131.67813,131.77867,83,35,0
131.77867,131.92915,86,53,0
132.07964,132.13321,93,60,0
132.07964,132.13321,85,50,0
132.07964,132.13321,81,50,0
132.29393,132.34846,85,46,0
132.29393,132.34846,93,56,0
132.29393,132.34846,81,46,0
132.5121,132.57155,95,56,0
132.5121,132.57155,86,46,0
132.5121,132.57155,83,46,0
132.74986,132.84653,73,46,0
132.84653,132.94319,81,38,0
132.94319,133.03984,73,47,0
133.03984,133.1404,81,39,0
133.1404,133.26915,85,60,0
133.3979,133.49457,71,49,0
133.49457,133.59123,80,41,0
133.59123,133.6879,71,50,0
133.6879,133.78844,80,42,0
133.78844,133.91666,83,64,0
134.04486,134.14151,73,52,0
134.14151,134.23817,81,44,0
134.23817,134.33484,73,53,0
134.33484,134.4354,81,44,0
134.4354,134.56091,85,68,0
134.68643,134.7831,74,55,0
134.7831,134.87976,83,46,0
134.87976,134.97643,74,56,0
134.97643,135.07697,83,47,0
135.07697,135.22745,86,72,0
135.37793,135.47585,84,74,0
135.47585,135.57376,87,66,0
135.57376,135.67166,84,71,0
135.67166,135.7694,87,62,0
135.7694,135.86578,92,74,0
135.86578,135.96254,91,65,0
135.96254,136.05968,89,73,0
136.05968,136.1572,87,60,0
136.1572,136.25513,85,66,0
136.25513,136.35347,84,64,0
136.35347,136.45221,82,62,0
136.45221,136.55133,80,60,0
136.55133,136.65091,79,58,0
136.65091,136.75089,77,56,0
136.75089,136.85127,75,54,0
136.85127,136.95206,73,52,0
136.95206,137.05325,72,50,0
137.05325,137.15448,70,48,0
137.15448,137.25569,68,45,0
137.25569,137.35722,67,44,0
137.35722,137.45905,65,41,0
137.45905,137.56123,64,39,0
137.56123,137.77913,63,37,0
137.77913,137.87704,87,74,0
137.87704,137.97496,92,66,0
137.97496,138.07286,87,71,0
138.07286,138.1706,92,62,0
138.1706,138.26698,96,74,0
138.26698,138.36374,94,65,0
138.36374,138.46088,92,73,0
138.46088,138.55838,91,60,0
138.55838,138.65633,89,66,0
138.65633,138.75467,87,64,0
138.75467,138.85341,85,62,0
138.85341,138.95253,84,60,0
138.95253,139.05211,82,58,0
139.05211,139.15208,80,56,0
139.15208,139.25247,79,54,0
139.25247,139.35326,77,52,0
139.35326,139.45445,75,50,0
139.45445,139.55568,73,48,0
139.55568,139.65689,72,45,0
139.65689,139.75842,70,44,0
139.75842,139.86024,68,41,0
139.86024,139.96243,67,39,0
139.96243,140.06494,65,37,0
140.06494,140.21243,63,37,0
140.21243,140.31035,92,76,0
140.31035,140.40825,96,66,0
140.40825,140.50616,92,71,0
140.50616,140.6039,96,62,0
140.6039,140.70027,99,77,0
140.70027,140.79704,97,69,0
140.79704,140.89417,96,79,0
140.89417,140.99168,94,71,0
140.99168,141.08963,92,74,0
141.08963,141.18797,91,72,0
141.18797,141.28671,89,70,0
141.28671,141.38583,87,68,0
141.38583,141.4854,85,65,0
141.4854,141.58539,84,63,0
141.58539,141.68576,82,61,0
141.68576,141.78656,80,59,0
141.78656,141.88776,79,57,0
141.88776,141.98897,77,54,0
141.98897,142.05644,75,52,0
142.05644,142.12401,73,52,0
142.12401,142.19171,72,53,0
142.19171,142.2426,70,53,0
142.2426,142.29355,68,54,0
142.29355,142.3446,67,55,0
142.3446,142.39574,65,56,0
142.39574,142.44693,63,57,0
142.44693,142.49823,61,58,0
142.49823,142.54962,60,60,0
142.54962,142.6014,58,61,0
142.6014,142.81088,56,70,0
142.81088,142.9261,56,70,0
142.91562,143.03084,60,62,0
143.02036,143.13388,63,70,0
143.12366,143.2349,61,68,0
143.22493,143.33443,60,68,0
143.32446,143.43408,58,67,0
143.42409,143.53395,56,66,0
143.52396,143.63406,55,65,0
143.62404,143.73427,53,64,0
143.72424,143.83481,51,63,0
143.82475,143.93547,49,62,0
143.92538,144.03635,48,61,0
144.02625,144.13742,46,60,0
144.1273,144.23865,44,59,0
144.22852,144.3405,43,58,0
144.3303,144.44232,44,57,0
144.43216,144.54387,46,56,0
144.53372,144.64522,48,58,0
144.6351,144.74643,49,59,0
144.73631,144.8473,51,60,0
144.83722,144.94806,53,61,0
144.938,145.04858,55,62,0
145.03853,145.14888,56,63,0
145.13885,145.24904,58,64,0
145.23904,145.34889,60,65,0
145.33891,145.4486,61,66,0
145.43864,145.54814,63,67,0
145.53818,145.64738,65,68,0
145.63747,145.7465,67,70,0
145.73662,145.84538,68,71,0
145.8355,145.94406,70,73,0
145.9342,146.04262,72,74,0
146.03276,146.14085,73,76,0
146.13103,146.23885,75,78,0
146.22911,146.33615,77,79,0
146.3264,146.43379,75,79,0
146.424,146.53174,73,77,0
146.52191,146.63002,72,75,0
146.62016,146.7286,70,73,0
146.71872,146.82753,68,71,0
146.81761,146.92677,67,69,0
146.91682,147.02635,65,67,0
147.01637,147.12639,63,65,0
147.11633,147.22777,61,63,0
147.21759,147.33055,60,61,0
147.32022,147.43475,58,59,0
147.42429,147.63377,56,62,0
147.63377,147.749,68,49,0
147.73853,147.85373,72,43,0
147.84326,147.95677,75,49,0
147.94655,148.05779,73,47,0
148.04784,148.15732,72,47,0
148.14737,148.25697,70,46,0
148.247,148.35684,68,46,0
148.34686,148.45697,67,45,0
148.44695,148.55716,65,44,0
148.54715,148.6577,63,44,0
148.64764,148.75836,61,43,0
148.74828,148.85924,60,42,0
148.84915,148.96033,58,42,0
148.95021,149.06154,56,41,0
149.05142,149.16339,55,40,0
149.15321,149.26521,56,39,0
149.25507,149.36678,58,39,0
149.35661,149.46811,60,40,0
149.458,149.56934,61,41,0
149.5592,149.6702,63,42,0
149.66011,149.77095,65,42,0
149.7609,149.87149,67,43,0
149.86143,149.97177,68,44,0
149.96175,150.07193,70,44,0
150.06195,150.1718,72,45,0
150.1618,150.2715,73,46,0
150.26155,150.37103,75,46,0
150.36108,150.47028,77,47,0
150.46036,150.56941,79,49,0
150.55952,150.66829,80,49,0
150.6584,150.76697,82,51,0
150.75711,150.86551,84,51,0
150.85567,150.96375,85,53,0
150.95392,151.06174,87,54,0
151.05202,151.15906,89,55,0
151.14929,151.25668,87,55,0
151.2469,151.35464,85,53,0
151.34482,151.45291,84,52,0
151.44305,151.55151,82,51,0
151.54161,151.65042,80,49,0
151.6405,151.74968,79,48,0
151.73972,151.84924,77,46,0
151.83926,151.94928,75,45,0
151.93922,152.05067,73,44,0
152.04048,152.15344,72,42,0
152.14311,152.25766,70,41,0
152.24718,152.45668,68,43,0
152.45668,152.57188,68,70,0
152.56142,152.67664,71,62,0
152.66615,152.77968,75,70,0
152.76945,152.88068,73,68,0
152.87073,152.98022,71,68,0
152.97026,153.07988,70,67,0
153.06989,153.17975,68,66,0
153.16975,153.27986,66,65,0
153.26984,153.38007,64,64,0
153.37004,153.4806,63,63,0
153.47055,153.58127,61,62,0
153.57117,153.68213,59,61,0
153.67204,153.78322,58,60,0
153.7731,153.88443,56,59,0
153.87431,153.9863,55,58,0
153.9761,154.08812,56,57,0
154.07796,154.18967,58,56,0
154.17952,154.29102,59,58,0
154.28088,154.39223,61,59,0
154.38211,154.4931,63,60,0
154.48302,154.59384,65,61,0
154.5838,154.69438,67,62,0
154.68433,154.79466,68,63,0
154.78465,154.89482,70,65,0
154.88484,154.99469,71,67,0
154.98471,155.09439,73,68,0
155.08444,155.19394,75,70,0
155.18398,155.29318,77,72,0
155.28326,155.3923,79,74,0
155.38242,155.49118,80,76,0
155.4813,155.58986,82,78,0
155.58,155.68842,83,80,0
155.67856,155.78665,85,83,0
155.77682,155.88464,87,85,0
155.87491,155.98195,88,90,0
155.9722,156.07959,86,89,0
156.0698,156.17754,85,88,0
156.16771,156.2758,83,86,0
156.26596,156.3744,81,85,0
156.36452,156.47333,80,83,0
156.46341,156.57257,78,82,0
156.56262,156.67215,76,81,0
156.66216,156.77219,74,79,0
156.76213,156.87357,73,78,0
156.86337,156.97635,71,76,0
156.96602,157.08,69,75,0
157.07008,157.17924,68,74,0
157.1693,157.27882,66,72,0
157.26883,157.37886,64,71,0
157.3688,157.48024,62,69,0
157.47005,157.58302,61,68,0
157.5727,157.68668,59,67,0
157.67674,157.78592,57,69,0
157.77597,157.8855,56,71,0
157.8755,157.98553,54,73,0
157.97548,158.08691,52,75,0
158.07672,158.15271,50,77,0
158.14584,158.22168,49,78,0
158.21388,158.28342,47,79,0
158.28342,158.38008,45,78,0
158.38008,158.47675,49,67,0
158.47675,158.57341,45,78,0
158.57341,158.67397,49,65,0
158.67397,158.88345,52,73,0
158.88345,158.98012,49,62,0
158.98012,159.07678,52,53,0
159.07678,159.17345,49,62,0
159.17345,159.27399,52,52,0
159.27399,159.48276,57,58,0
159.48276,159.57942,52,62,0
159.57942,159.67609,57,53,0
159.67609,159.77275,52,62,0
159.77275,159.87329,57,52,0
159.87329,160.07991,61,58,0
160.07991,160.17657,57,62,0
160.17657,160.27322,61,53,0
160.27322,160.36989,57,62,0
160.36989,160.47044,61,52,0
160.47044,160.67511,64,58,0
160.67511,160.77177,61,62,0
160.77177,160.86844,64,53,0
160.86844,160.9651,61,62,0
160.9651,161.06566,64,52,0
161.06566,161.27084,69,58,0
161.27084,161.36751,64,62,0
161.36751,161.46417,69,53,0
161.46417,161.56084,64,62,0
161.56084,161.66139,69,52,0
161.66139,161.86871,73,58,0
161.86871,161.96538,69,58,0
161.96538,162.06204,73,46,0
162.06204,162.15869,69,56,0
162.15869,162.25925,73,45,0
162.25925,162.47067,76,58,0
162.47067,162.56734,71,49,0
162.56734,162.66399,74,42,0
162.66399,162.76065,71,49,0
162.76065,162.85953,74,41,0
162.85953,163.06686,83,54,0
163.06686,163.16353,72,49,0
163.16353,163.26018,75,42,0
163.26018,163.35684,72,49,0
163.35684,163.45572,75,41,0
163.45572,163.55939,84,54,0
163.66306,163.75787,75,49,0
163.75787,163.85268,84,42,0
163.85268,163.9475,75,49,0
163.9475,164.04639,84,41,0
164.04639,164.14897,87,56,0
164.25157,164.347,73,49,0
164.347,164.44241,82,42,0
164.44241,164.53784,73,49,0
164.53784,164.63704,82,41,0
164.63704,164.73999,85,55,0
164.84294,164.9396,70,49,0
164.9396,165.03627,79,42,0
165.03627,165.13293,70,49,0
165.13293,165.23181,79,41,0
165.23181,165.33441,82,55,0
165.43701,165.53368,72,49,0
165.53368,165.63034,75,42,0
165.63034,165.72699,72,49,0
165.72699,165.82755,75,41,0
165.82755,165.93121,84,56,0
166.03487,166.1294,80,57,0
166.1294,166.2239,87,47,0
166.2239,166.31842,80,56,0
166.31842,166.41602,87,49,0
166.41602,166.51897,92,59,0
166.62192,166.71614,79,58,0
166.71614,166.81036,85,50,0
166.81036,166.90459,79,58,0
166.90459,167.00249,85,49,0
167.00249,167.10475,91,65,0
167.207,167.30241,73,58,0
167.30241,167.39783,79,50,0
167.39783,167.49326,73,58,0
167.49326,167.59181,79,49,0
167.59181,167.69511,85,66,0
167.79842,167.89508,72,58,0
167.89508,167.99174,80,50,0
167.99174,168.08841,72,58,0
168.08841,168.18895,80,49,0
168.18895,168.29262,84,66,0
168.40482,168.50146,87,72,0
168.50146,168.59813,96,64,0
168.59813,168.6948,87,73,0
168.6948,168.79335,96,64,0
168.79335,168.89702,99,78,0
169.00067,169.0961,85,70,0
169.0961,169.19151,94,61,0
169.19151,169.28694,85,71,0
169.28694,169.38484,94,61,0
169.38484,169.48572,97,78,0
169.5866,169.68326,82,69,0
169.68326,169.77992,91,60,0
169.77992,169.87659,82,67,0
169.87659,169.97713,91,61,0
169.97713,170.0808,94,75,0
170.2169,170.31357,72,49,0
170.31357,170.41023,79,42,0
170.41023,170.5069,72,49,0
170.5069,170.60744,79,41,0
170.60744,170.7111,84,46,0
170.81477,170.91144,72,49,0
170.91144,171.00809,79,42,0
171.00809,171.10475,72,49,0
171.10475,171.2053,79,41,0
171.2053,171.30756,84,46,0
171.4098,171.50552,79,49,0
171.50552,171.60126,84,42,0
171.60126,171.69698,79,49,0
171.69698,171.79553,84,41,0
171.79553,171.8992,91,46,0
172.00285,172.09952,84,49,0
172.09952,172.19618,91,42,0
172.19618,172.29285,84,49,0
172.29285,172.39339,91,41,0
172.39339,172.49706,96,46,0
172.60072,172.69862,84,53,0
172.69862,172.79654,87,46,0
172.79654,172.89445,84,58,0
172.89445,172.99219,87,50,0
172.99219,173.08856,92,61,0
173.08856,173.18532,91,49,0
173.18532,173.28246,89,64,0
173.28246,173.37997,87,51,0
173.37997,173.47792,85,52,0
173.47792,173.57626,84,51,0
173.57626,173.67499,82,50,0
173.67499,173.77412,80,49,0
173.77412,173.87369,79,47,0
173.87369,173.97366,77,46,0
173.97366,174.07405,75,45,0
174.07405,174.17485,73,44,0
174.17485,174.27605,72,42,0
174.27605,174.37726,70,41,0
174.37726,174.47847,68,40,0
174.47847,174.58,67,38,0
174.58,174.68182,65,37,0
174.68182,174.78403,64,36,0
174.78403,175.00192,63,34,0
175.00192,175.09857,72,58,0
175.09857,175.19524,79,50,0
175.19524,175.2919,72,58,0
175.2919,175.39246,79,49,0
175.39246,175.49611,84,55,0
175.59978,175.69644,72,58,0
175.69644,175.7931,79,50,0
175.7931,175.88977,72,58,0
175.88977,175.99031,79,49,0
175.99031,176.09256,84,55,0
176.19481,176.29054,79,58,0
176.29054,176.38626,84,50,0
176.38626,176.48198,79,58,0
176.48198,176.58054,84,49,0
176.58054,176.6842,91,55,0
176.78787,176.88452,84,58,0
176.88452,176.98119,91,50,0
176.98119,177.07785,84,58,0
177.07785,177.1784,91,49,0
177.1784,177.28206,96,55,0
177.38573,177.48364,87,63,0
177.48364,177.58154,92,55,0
177.58154,177.67946,87,69,0
177.67946,177.77719,92,60,0
177.77719,177.87358,96,73,0
177.87358,177.97034,94,58,0
177.97034,178.06747,92,76,0
178.06747,178.16498,91,61,0
178.16498,178.26292,89,62,0
178.26292,178.36127,87,61,0
178.36127,178.46,85,60,0
178.46,178.55913,84,58,0
178.55913,178.65869,82,56,0
178.65869,178.75868,80,55,0
178.75868,178.85907,79,54,0
178.85907,178.95985,77,52,0
178.95985,179.06105,75,50,0
179.06105,179.16226,73,49,0
179.16226,179.26347,72,48,0
179.26347,179.365,70,45,0
179.365,179.43288,68,44,0
179.43288,179.50087,67,43,0
179.50087,179.56903,65,42,0
179.56903,179.78693,63,40,0
179.78693,179.88359,72,69,0
179.88359,179.98026,79,60,0
179.98026,180.0769,72,69,0
180.0769,180.17746,79,58,0
180.17746,180.28113,84,66,0
180.38478,180.48145,72,69,0
180.48145,180.57811,79,60,0
180.57811,180.67477,72,69,0
180.67477,180.77533,79,58,0
180.77533,180.87758,84,66,0
180.97983,181.07555,79,69,0
181.07555,181.17126,84,60,0
181.17126,181.267,79,69,0
181.267,181.36555,84,58,0
181.36555,181.46921,91,66,0
181.57288,181.66954,84,69,0
181.66954,181.7662,91,60,0
181.7662,181.86285,84,69,0
181.86285,181.96341,91,58,0
181.96341,182.06708,96,66,0
182.17073,182.26865,91,75,0
182.26865,182.36656,96,66,0
182.36656,182.46446,91,82,0
182.46446,182.5622,96,72,0
182.5622,182.65858,100,87,0
182.65858,182.75534,98,69,0
182.75534,182.85248,96,87,0
182.85248,182.95,95,73,0
182.95,183.04793,93,74,0
183.04793,183.14627,91,73,0
183.14627,183.24501,89,72,0
183.24501,183.34413,88,69,0
183.34413,183.44371,86,67,0
183.44371,183.54369,84,66,0
183.54369,183.64407,83,64,0
183.64407,183.74486,81,62,0
183.74486,183.81317,79,60,0
183.81317,183.88065,77,58,0
183.87979,183.94728,76,57,0
183.94728,184.0485,74,54,0
184.0485,184.15002,72,52,0
184.15002,184.25185,71,51,0
184.25185,184.35403,69,51,0
184.35403,184.57193,67,48,0
184.57193,184.66985,92,76,0
184.66985,184.76776,96,66,0
184.76776,184.86566,92,71,0
184.86566,184.9634,96,68,0
184.9634,185.05978,99,77,0
185.05978,185.15654,97,69,0
185.15654,185.25368,96,82,0
185.25368,185.3512,94,71,0
185.3512,185.44913,92,80,0
185.44913,185.54747,91,78,0
185.54747,185.64621,89,77,0
185.64621,185.74533,87,75,0
185.74533,185.84491,85,74,0
185.84491,185.94489,84,72,0
185.94489,186.04527,82,70,0
186.04527,186.14606,80,69,0
186.14606,186.24725,79,67,0
186.24725,186.34848,77,66,0
186.34848,186.41595,75,64,0
186.41595,186.4835,73,61,0
186.4835,186.55122,72,63,0
186.55122,186.61993,70,65,0
186.61993,186.68793,68,66,0
186.68707,186.75523,67,68,0
186.75523,186.79617,65,69,0
186.79617,186.83722,63,70,0
186.83722,186.87827,61,71,0
186.87827,186.91942,60,72,0
186.91942,186.9609,58,73,0
186.9609,187.17038,56,90,0
187.17038,187.2856,68,77,0
187.27513,187.39034,72,68,0
187.37987,187.49338,75,77,0
187.48315,187.59439,73,74,0
187.58444,187.69392,72,74,0
187.68398,187.79358,70,73,0
187.7836,187.89345,68,72,0
187.88347,187.99358,67,71,0
187.98355,188.09377,65,70,0
188.08376,188.1943,63,69,0
188.18425,188.29497,61,68,0
188.28488,188.39584,60,67,0
188.38576,188.49693,58,66,0
188.48682,188.59814,56,64,0
188.58803,188.7,55,63,0
188.68982,188.80182,53,62,0
188.79167,188.90338,51,61,0
188.89322,189.00471,53,65,0
188.9946,189.10594,51,67,0
189.09581,189.2068,49,69,0
189.19672,189.30756,48,71,0
189.2975,189.4075,46,73,0
189.39804,189.49268,44,78,0
189.49268,189.5873,48,67,0
189.5873,189.68193,44,78,0
189.68193,189.77997,48,65,0
189.77997,189.88472,51,73,0
189.98946,190.0835,44,78,0
190.0835,190.17754,48,67,0
190.17754,190.27158,44,78,0
190.27158,190.36961,48,65,0
190.36961,190.47437,51,73,0
190.5791,190.67345,44,78,0
190.67345,190.76778,48,67,0
190.76778,190.8621,44,78,0
190.8621,190.95982,48,65,0
190.95982,191.06458,51,73,0
191.16931,191.26366,44,78,0
191.26366,191.35799,48,67,0
191.35799,191.45232,44,78,0
191.45232,191.55003,48,65,0
191.55003,191.65479,51,73,0
191.75954,191.85446,44,70,0
191.85446,191.94939,48,59,0
191.94939,192.04433,44,67,0
192.04433,192.14235,48,55,0
192.14235,192.24602,51,61,0
192.34967,192.4446,48,62,0
192.4446,192.53952,51,52,0
192.53952,192.63446,48,60,0
192.63446,192.73218,51,48,0
192.73218,192.83546,56,54,0
192.93877,193.0334,51,54,0
193.0334,193.12804,56,46,0
193.12804,193.22266,51,52,0
193.22266,193.3207,56,42,0
193.3207,193.42224,60,46,0
193.5238,193.61903,56,46,0
193.61903,193.71426,60,39,0
193.71426,193.8095,56,44,0
193.8095,193.91005,60,35,0
193.91005,194.01703,63,39,0
194.12401,194.2252,56,46,0
194.2252,194.32593,60,39,0
194.32593,194.42609,56,46,0
194.42609,194.52563,60,39,0
194.52563,194.6247,63,46,0
194.6247,194.72322,61,46,0
194.72322,194.83052,60,42,0
196.69551,196.80241,60,47,0
196.79271,196.89958,61,50,0
196.88979,196.99883,63,52,0
196.9888,197.08142,64,55,0
197.0899,199.38315,64,58,0
197.0899,199.38315,61,58,0
197.0899,199.38315,58,58,0
199.97134,200.07254,68,46,0
200.07254,200.17326,72,39,0
200.17326,200.27342,68,46,0
200.27342,200.37297,72,39,0
200.37297,200.47203,75,46,0
200.47203,200.57056,73,43,0
200.57056,200.67786,72,45,0
200.66812,200.76555,70,45,0
200.76555,200.86327,68,44,0
200.86327,200.96117,67,44,0
200.96117,201.05923,65,43,0
201.05923,201.1576,63,42,0
201.1576,201.2561,61,42,0
201.2561,201.35478,60,41,0
201.35478,201.45378,58,41,0
201.45378,201.55295,56,40,0
201.55295,201.65227,55,40,0
201.65227,201.75241,56,40,0
201.75241,201.8525,58,41,0
201.8525,201.95221,60,41,0
201.95221,202.05154,61,42,0
202.05154,202.15051,63,42,0
202.15051,202.24911,65,43,0
202.24911,202.34737,67,44,0
202.34737,202.44528,68,44,0
202.44528,202.54283,70,47,0
202.54283,202.64975,72,47,0
202.64005,202.74692,73,50,0
202.73712,202.84616,75,52,0
202.83612,202.93723,76,55,0
202.93723,205.23682,73,58,0
202.93723,205.23682,70,58,0
202.93723,205.23682,76,58,0
205.82501,205.92296,79,42,0
205.92296,206.02039,82,43,0
206.02039,206.11725,85,45,0
206.11725,206.21355,84,46,0
206.21355,206.30908,82,47,0
206.30908,206.40497,80,46,0
206.40497,206.50119,79,45,0
206.50119,206.59778,77,45,0
206.59778,206.6947,76,44,0
206.6947,206.79199,73,43,0
206.79199,206.88963,72,42,0
206.88963,206.98763,73,41,0
206.98763,207.0857,76,43,0
207.0857,207.18324,77,45,0
207.18324,207.2802,79,47,0
207.2802,207.3766,80,48,0
207.3766,207.47252,82,49,0
207.47252,207.56964,84,49,0
207.56964,209.2922,79,53,0
207.56964,209.2922,82,53,0
207.56964,209.2922,85,53,0
209.8747,209.97264,88,42,0
209.97264,210.07007,91,43,0
210.07007,210.16695,94,45,0
210.16695,210.26323,92,46,0
210.26323,210.35876,91,47,0
210.35876,210.45465,89,46,0
210.45465,210.55087,88,45,0
210.55087,210.64746,85,45,0
210.64746,210.74438,84,44,0
210.74438,210.84167,82,43,0
210.84167,210.93932,81,42,0
210.93932,211.03731,82,41,0
211.03731,211.13538,84,43,0
211.13538,211.23293,85,45,0
211.23293,211.32988,88,47,0
211.32988,211.42628,89,48,0
211.42628,211.52222,91,49,0
211.52222,211.61932,92,49,0
211.61932,213.33678,94,53,0
211.61932,213.33678,91,53,0
211.61932,213.33678,88,53,0
213.91927,215.66632,83,48,0
213.91927,215.66632,80,48,0
213.91927,215.66632,77,48,0
216.27438,219.56766,64,38,0
216.27438,219.56766,67,38,0
216.27438,219.56766,72,38,0
219.56766,219.62021,72,51,0
219.78249,219.83598,60,43,0
220.0,220.05527,72,51,0
220.22105,220.27473,60,44,0
220.43936,220.49483,72,51,0
220.66124,220.71828,60,42,0
222.2203,222.2736,73,40,0
222.2736,222.3269,72,51,0
222.44385,222.55414,72,45,0
222.55414,222.66443,73,39,0
222.66443,222.7207,72,46,0
222.89224,222.94853,72,49,0
223.11739,223.17253,72,44,0
223.33795,223.3931,72,42,0
223.56085,223.61397,73,40,0
223.61397,223.66708,72,51,0
223.78384,223.89413,72,45,0
223.89413,224.00441,73,39,0
224.00441,224.0607,72,46,0
224.23224,224.28853,72,49,0
224.45738,224.51251,72,44,0
224.67795,224.7331,72,42,0
224.90338,224.95528,73,40,0
224.95528,225.00719,72,51,0
225.12273,225.23302,72,45,0
225.23302,225.3433,73,39,0
225.3433,225.39958,72,46,0
225.57112,225.62764,73,40,0
225.62764,225.68416,72,51,0
225.80432,225.91461,72,45,0
225.91461,226.0249,73,39,0
226.0249,226.08119,72,46,0
226.25005,226.30685,72,51,0
226.47787,226.53514,72,52,0
226.7079,226.76582,72,54,0
226.94037,226.99887,72,56,0
227.17616,227.23618,72,56,0
227.419,227.48886,72,53,0
227.69817,227.75279,73,40,0
227.75279,227.80742,72,51,0
227.92357,228.03015,72,45,0
228.03015,228.13675,73,39,0
228.13675,228.19116,72,46,0
228.35696,228.41136,73,40,0
228.41136,228.46576,72,49,0
228.57457,228.68117,72,44,0
228.68117,228.78777,73,36,0
228.78777,228.84105,72,42,0
229.02829,229.13582,72,40,0
229.13582,229.23439,71,52,0
229.24335,229.34862,71,47,0
229.34862,229.45387,74,40,0
229.45387,229.56268,72,45,0
229.56268,229.67586,71,36,0
229.67586,229.73766,72,46,0
229.92307,230.3642,67,39,0
230.3642,230.41771,72,46,0
230.57826,230.63177,67,39,0
230.79233,230.84586,72,46,0
231.00641,231.22047,70,46,0
231.22047,231.32538,68,39,0
231.32538,231.43028,67,39,0
231.43028,231.6477,65,43,0
231.6477,231.75475,67,46,0
231.75475,231.86177,70,38,0
231.86177,231.96881,67,46,0
231.96881,232.07585,70,40,0
232.07585,232.18033,64,46,0
232.18033,232.2896,67,40,0
232.2896,232.39449,65,46,0
232.39449,232.499,68,37,0
232.499,232.6027,72,42,0
232.6027,232.7056,77,47,0
232.7056,232.80771,80,52,0
232.80771,232.91373,82,57,0
232.91373,232.96835,84,65,0
233.13828,233.24487,84,54,0
233.24487,233.35147,85,46,0
233.35147,233.40564,84,55,0
233.57338,233.6254,85,48,0
233.6254,233.6774,84,64,0
233.78793,233.89496,84,52,0
233.89496,234.002,85,43,0
234.002,234.05551,84,50,0
234.22346,234.33228,84,61,0
234.33228,234.43974,83,48,0
234.43974,234.54549,89,56,0
234.54549,234.65123,83,48,0
234.65123,234.75697,89,54,0
234.75697,234.86862,83,43,0
234.86862,234.93042,84,55,0
235.11583,235.33165,79,46,0
235.5587,235.61052,84,57,0
235.76933,235.82283,79,46,0
235.98329,236.03679,84,55,0
236.19727,236.41122,82,55,0
236.41122,236.51613,80,46,0
236.51613,236.62103,79,46,0
236.62103,236.83565,77,51,0
236.83565,236.94267,79,55,0
236.94267,237.04971,82,45,0
237.04971,237.15546,79,55,0
237.15546,237.2612,82,48,0
237.2612,237.36569,76,55,0
237.36569,237.47495,79,48,0
237.47495,237.68475,77,55,0
237.68475,237.78966,65,68,0
237.78966,237.89456,67,69,0
237.89456,237.99947,68,71,0
237.99947,238.10889,70,73,0
238.10889,238.15881,72,74,0
238.31099,238.3621,60,68,0
238.51982,238.56943,72,75,0
238.72127,238.77238,60,60,0
238.92926,238.98048,72,74,0
239.13416,239.18538,60,60,0
239.3432,239.39566,70,59,0
239.3432,239.39566,67,59,0
239.55301,239.65546,65,46,0
239.55301,239.65546,68,46,0
239.65546,239.75792,64,46,0
239.65546,239.75792,67,46,0
239.75792,239.86037,65,46,0
239.75792,239.86037,68,46,0
239.86037,239.96281,70,46,0
239.86037,239.96281,67,46,0
239.96281,240.5923,64,52,0
239.96281,240.5923,67,52,0
240.5923,240.64223,72,74,0
240.7951,240.84657,60,68,0
241.01044,241.21535,72,75,0
241.21535,241.42354,73,77,0
241.42354,241.47476,61,62,0
241.62845,241.67967,73,74,0
241.8375,241.9424,72,52,0
241.8375,241.9424,68,52,0
241.9424,242.0473,67,46,0
241.9424,242.0473,70,46,0
242.0473,242.14975,65,44,0
242.0473,242.14975,68,44,0
242.14975,242.2522,67,42,0
242.14975,242.2522,70,42,0
242.2522,242.35466,68,40,0
242.2522,242.35466,65,40,0
242.35466,242.4571,67,38,0
242.35466,242.4571,64,38,0
242.4571,242.6636,65,49,0
242.6636,242.76851,77,74,0
242.76851,242.87341,79,75,0
242.87341,242.97832,80,78,0
242.97832,243.08322,82,80,0
243.08322,243.13315,84,81,0
243.28532,243.33644,72,74,0
243.49416,243.5436,84,82,0
243.69527,243.7464,72,66,0
243.90326,243.95448,84,81,0
244.10817,244.1594,72,66,0
244.31721,244.36966,79,64,0
244.31721,244.36966,82,64,0
244.52701,244.62947,80,50,0
244.52701,244.62947,77,50,0
244.62947,244.73192,79,50,0
244.62947,244.73192,76,50,0
244.73192,244.83437,80,50,0
244.73192,244.83437,77,50,0
244.83437,244.93683,82,50,0
244.83437,244.93683,79,50,0
244.93683,245.5663,76,57,0
244.93683,245.5663,79,57,0
245.5663,245.6159,84,81,0
245.76775,245.81886,72,74,0
245.97658,246.18149,84,82,0
246.18149,246.38968,85,84,0
246.38968,246.4409,73,68,0
246.59459,246.64581,85,81,0
246.80363,246.90854,70,52,0
246.80363,246.90854,73,52,0
246.90854,247.01344,71,46,0
246.90854,247.01344,68,46,0
247.01344,247.11589,70,44,0
247.01344,247.11589,66,44,0
247.11589,247.21834,71,42,0
247.11589,247.21834,68,42,0
247.21834,247.3208,70,40,0
247.21834,247.3208,66,40,0
247.3208,247.42325,68,38,0
247.3208,247.42325,65,38,0
247.42325,247.52649,70,46,0
247.42325,247.52649,66,46,0
247.62975,247.73549,66,38,0
247.62975,247.73549,70,38,0
247.84123,247.94698,66,38,0
247.84123,247.94698,70,38,0
248.05273,248.15762,71,50,0
248.05273,248.15762,68,50,0
248.05273,248.15762,65,42,0
248.26253,248.36743,65,43,0
248.26253,248.36743,68,51,0
248.26253,248.36743,71,51,0
248.47234,248.57724,71,56,0
248.47234,248.57724,65,47,0
248.47234,248.57724,68,56,0
248.68214,248.7858,80,59,0
248.68214,248.7858,83,59,0
248.68214,248.7858,77,50,0
248.88947,248.99313,83,64,0
248.88947,248.99313,77,54,0
248.88947,248.99313,80,64,0
249.09679,249.20045,80,70,0
249.09679,249.20045,77,59,0
249.09679,249.20045,83,70,0
249.3088,249.41248,92,62,0
249.3088,249.41248,96,74,0
249.41248,249.51613,91,56,0
249.41248,249.51613,94,66,0
249.51613,249.6198,92,73,0
249.51613,249.6198,89,61,0
249.6198,249.72345,94,64,0
249.6198,249.72345,91,55,0
249.72345,249.82712,89,61,0
249.72345,249.82712,92,73,0
249.82712,249.93776,88,55,0
249.82712,249.93776,91,64,0
249.93776,250.05959,89,73,0
250.18143,250.2333,91,73,0
250.2333,250.28564,92,67,0
250.28564,250.33759,91,58,0
250.33759,250.38956,92,54,0
250.38956,250.4416,91,58,0
250.4416,250.49397,92,52,0
250.49397,250.54605,91,58,0
250.54605,250.5978,92,52,0
250.5978,250.64937,91,58,0
250.64937,250.70073,92,52,0
250.70073,250.76888,91,58,0
250.76888,250.83719,92,54,0
250.83719,250.90604,91,58,0
250.90604,250.95798,90,54,0
250.95798,251.01027,91,56,0
251.01027,251.11476,92,64,0
251.11476,251.21924,91,58,0
251.21924,251.32373,89,81,0
251.4282,251.48116,79,73,0
251.48116,251.53438,80,67,0
251.53438,251.58739,79,58,0
251.58739,251.63991,80,54,0
251.63991,251.69273,79,58,0
251.69273,251.74596,80,52,0
251.74596,251.79881,79,58,0
251.79881,251.85132,80,52,0
251.85132,251.90352,79,58,0
251.90352,251.95535,80,52,0
251.95535,252.02391,79,58,0
252.02391,252.0927,80,54,0
252.0927,252.16226,79,58,0
252.16226,252.21495,78,54,0
252.21495,252.26787,79,56,0
252.26787,252.37234,80,64,0
252.37234,252.47684,79,58,0
252.47684,252.58133,77,81,0
252.6858,252.7377,91,73,0
252.7377,252.79002,92,67,0
252.79002,252.84198,91,58,0
252.84198,252.89395,92,54,0
252.89395,252.946,91,58,0
252.946,252.99837,92,52,0
252.99837,253.05045,91,58,0
253.05045,253.10304,92,52,0
253.10304,253.15742,90,58,0
253.15742,253.21136,91,53,0
253.21136,253.26486,92,54,0
253.26486,253.31789,94,56,0
253.31789,253.37051,96,57,0
253.37051,253.42351,97,58,0
253.42351,253.47688,100,60,0
253.47688,253.53065,101,62,0
253.53065,253.56667,100,63,0
253.56667,253.60287,97,62,0
253.60379,253.64018,96,61,0
253.64018,253.67674,94,61,0
253.67583,253.71259,92,60,0
253.71259,253.74947,91,59,0
253.74947,253.86015,89,81,0
253.97083,254.02272,79,73,0
254.02272,254.07504,80,67,0
254.07504,254.127,79,58,0
254.127,254.17897,80,54,0
254.17897,254.231,79,58,0
254.231,254.28375,80,52,0
254.28375,254.3367,79,58,0
254.3367,254.38986,80,52,0
254.38986,254.43442,78,58,0
254.43442,254.47885,79,53,0
254.47885,254.52286,80,54,0
254.52286,254.56645,82,56,0
254.56645,254.60947,84,57,0
254.60947,254.65225,86,58,0
254.65225,254.69505,88,60,0
254.69505,254.73785,89,62,0
254.73785,254.78065,91,62,0
254.78065,254.82346,89,62,0
254.82346,254.85287,88,63,0
254.85287,254.8823,86,63,0
254.8823,254.91173,84,62,0
254.91173,254.94115,82,61,0
254.94115,254.97057,80,61,0
254.97057,255.0,79,60,0
255.0,255.03737,77,59,0
255.03737,255.09071,76,58,0
255.09071,255.14433,73,56,0
255.14433,255.1983,72,54,0
255.1983,255.25258,70,52,0
255.25258,255.3072,68,49,0
255.3072,255.3622,67,48,0
255.3622,255.41748,66,45,0
255.41748,255.47311,67,42,0
255.47311,255.51042,68,39,0
255.51042,255.54776,69,40,0
255.54776,255.58524,70,38,0
255.58524,255.62285,71,36,0
255.62285,255.66057,72,34,0
255.66057,255.69849,73,33,0
255.69849,255.75311,72,56,0
255.92389,256.0305,72,45,0
256.0305,256.1371,73,39,0
256.1371,256.1915,72,46,0
256.3573,256.41168,73,40,0
256.41168,256.4661,72,49,0
256.5749,256.6815,72,44,0
256.6815,256.7881,73,36,0
256.7881,256.84137,72,42,0
257.01038,257.11917,72,40,0
257.11917,257.21893,71,52,0
257.228,257.33545,71,47,0
257.33545,257.4429,74,40,0
257.4429,257.55173,72,45,0
257.55173,257.6649,71,36,0
257.6649,257.72668,72,46,0
257.9121,258.12793,67,39,0
258.35275,258.40457,72,46,0
258.56415,258.61804,67,39,0
258.77966,258.83353,72,46,0
258.99518,259.21066,70,46,0
259.21066,259.31558,68,39,0
259.31558,259.42047,67,39,0
259.42047,259.63953,65,43,0
259.63953,259.74658,67,46,0
259.74658,259.8536,70,38,0
259.8536,259.96063,67,46,0
259.96063,260.0677,70,40,0
260.0677,260.17218,64,46,0
260.17218,260.28143,67,40,0
260.28143,260.38632,65,46,0
260.38632,260.49084,68,37,0
260.49084,260.59454,72,42,0
260.59454,260.69745,77,47,0
260.69745,260.79953,80,52,0
260.79953,260.90555,82,57,0
260.90555,260.96017,84,65,0
261.13013,261.2367,84,54,0
261.2367,261.3433,85,46,0
261.3433,261.3975,84,55,0
261.5643,261.61868,85,48,0
261.61868,261.6731,84,64,0
261.7819,261.88895,84,52,0
261.88895,261.99597,85,43,0
261.99597,262.0495,84,50,0
262.21478,262.32358,84,61,0
262.32358,262.43106,83,48,0
262.43106,262.5368,89,56,0
262.5368,262.64255,83,48,0
262.64255,262.7483,89,54,0
262.7483,262.85992,83,43,0
262.85992,262.92172,84,55,0
263.10715,263.55002,79,46,0
263.55002,263.60095,84,57,0
263.75616,263.80945,79,46,0
263.96936,264.02264,84,55,0
264.18256,264.39575,82,62,0
264.39575,264.50067,80,49,0
264.50067,264.60556,79,49,0
264.60556,264.8202,77,57,0
264.8202,264.87146,82,61,0
265.02936,265.08267,77,48,0
265.24258,265.29587,82,57,0
265.45578,265.66898,80,63,0
265.66898,265.7739,79,50,0
265.7739,265.87878,77,50,0
265.87878,266.09338,75,55,0
266.09338,266.144,80,64,0
266.29898,266.35117,75,49,0
266.50995,266.5622,80,58,0
266.71893,266.7697,81,63,0
266.92487,266.97705,75,53,0
267.1367,267.18872,81,61,0
267.34485,267.39667,82,75,0
267.55554,267.60757,77,69,0
267.55554,267.60757,74,69,0
267.7671,267.81912,86,77,0
267.97775,268.02896,82,71,0
267.97775,268.02896,77,71,0
268.18594,268.23697,89,83,0
268.3925,268.44272,82,73,0
268.3925,268.44272,86,73,0
268.59915,268.7004,92,78,0
268.7004,268.8017,90,66,0
268.8017,268.90295,89,77,0
268.90295,269.0042,90,62,0
269.0042,269.1055,87,69,0
269.20676,269.308,84,66,0
269.4093,269.51056,81,61,0
269.61185,269.7131,78,52,0
269.81436,269.8662,82,75,0
270.0251,270.07712,74,69,0
270.0251,270.07712,77,69,0
270.2366,270.28864,86,77,0
270.44727,270.4985,77,71,0
270.44727,270.4985,82,71,0
270.6555,270.7065,89,83,0
270.86203,270.91226,82,73,0
270.86203,270.91226,86,73,0
271.06866,271.16754,92,78,0
271.16754,271.26642,90,66,0
271.26642,271.36765,89,77,0
271.36765,271.46884,90,62,0
271.46884,271.57004,87,69,0
271.67126,271.77252,84,66,0
271.87378,271.97568,81,61,0
272.07758,272.17947,78,52,0
272.28137,272.3332,82,75,0
272.49207,272.5441,74,69,0
272.49207,272.5441,77,69,0
272.7036,272.75565,83,77,0
272.91428,272.9655,74,71,0
272.91428,272.9655,77,71,0
273.12247,273.1735,86,85,0
273.329,273.37927,77,73,0
273.329,273.37927,83,73,0
273.53568,273.5875,84,75,0
273.74637,273.7984,79,69,0
273.74637,273.7984,76,69,0
273.95792,274.00995,88,77,0
274.16858,274.21982,79,71,0
274.16858,274.21982,85,71,0
274.37677,274.4278,91,83,0
274.5833,274.63358,88,73,0
274.5833,274.63358,85,73,0
274.5833,274.63358,82,73,0
274.78998,274.8418,89,75,0
275.00067,275.0527,84,69,0
275.00067,275.0527,77,69,0
275.21222,275.26425,94,77,0
275.42288,275.47412,82,71,0
275.63107,275.6821,96,83,0
275.83762,275.88788,84,73,0
276.04428,276.1497,101,87,0
276.04428,276.1497,89,73,0
276.25513,276.3076,91,73,0
276.3076,276.3599,92,53,0
276.3599,276.4122,91,58,0
276.4122,276.46457,92,54,0
276.46457,276.5174,91,58,0
276.5174,276.56998,92,52,0
276.56998,276.62234,91,58,0
276.62234,276.67444,92,52,0
276.67444,276.72632,91,58,0
276.72632,276.77798,92,52,0
276.77798,276.84637,91,58,0
276.84637,276.91486,92,54,0
276.91486,276.98398,91,58,0
276.98398,277.03622,90,54,0
277.03622,277.0889,91,56,0
277.0889,277.1934,92,64,0
277.1934,277.29785,91,58,0
277.29785,277.40234,89,81,0
277.50693,277.55954,79,73,0
277.55954,277.6123,80,67,0
277.6123,277.66486,79,58,0
277.66486,277.71765,80,54,0
277.71765,277.7704,79,58,0
277.7704,277.82346,80,52,0
277.82346,277.87628,79,58,0
277.87628,277.92865,80,52,0
277.92865,277.98053,79,58,0
277.98053,278.03198,80,52,0
278.03198,278.09982,79,58,0
278.09982,278.1676,80,54,0
278.1676,278.23618,79,58,0
278.23618,278.28812,78,54,0
278.28812,278.3405,79,56,0
278.3405,278.445,80,64,0
278.445,278.5495,79,58,0
278.5495,278.654,77,81,0
278.75845,278.8109,91,73,0
278.8109,278.86334,92,67,0
278.86334,278.91577,91,58,0
278.91577,278.96786,92,54,0
278.96786,279.02048,91,58,0
279.02048,279.07278,92,52,0
279.07278,279.12485,91,58,0
279.12485,279.1772,92,52,0
279.1772,279.23254,90,58,0
279.23254,279.28735,91,53,0
279.28735,279.3415,92,54,0
279.3415,279.39505,94,56,0
279.39505,279.44812,96,57,0
279.44812,279.5014,97,58,0
279.5014,279.55493,100,60,0
279.55493,279.6087,101,62,0
279.6087,279.64468,100,63,0
279.64468,279.68076,97,62,0
279.68167,279.71783,96,61,0
279.71783,279.75412,94,61,0
279.7532,279.78958,92,60,0
279.78958,279.8261,91,59,0
279.8261,279.93622,89,81,0
280.04733,280.0992,79,73,0
280.0992,280.15155,80,67,0
280.15155,280.2035,79,58,0
280.2035,280.25546,80,54,0
280.25546,280.3075,79,58,0
280.3075,280.36026,80,52,0
280.36026,280.41318,79,58,0
280.41318,280.4694,80,52,0
280.4694,280.5051,78,55,0
280.5051,280.53955,79,55,0
280.54065,280.57492,80,57,0
280.57492,280.6101,82,57,0
280.6101,280.64404,84,60,0
280.64404,280.67783,85,62,0
280.67892,280.71362,88,64,0
280.71362,280.74817,89,67,0
280.74817,280.78146,91,68,0
280.78146,280.81567,89,68,0
280.81567,280.84866,88,65,0
280.84763,280.88046,85,63,0
280.88153,280.9145,84,61,0
280.9145,280.94778,82,59,0
280.9467,280.9804,80,57,0
280.9804,281.01447,79,57,0
281.01447,281.04898,77,54,0
281.04898,281.08386,76,50,0
281.08386,281.1192,73,49,0
281.11807,281.1538,72,47,0
281.1538,281.19,70,46,0
281.19,281.22708,68,44,0
281.22577,281.2705,67,42,0
281.2705,281.31488,65,64,0
281.4479,281.49307,60,43,0
281.6285,281.67258,65,51,0
281.80484,281.8496,60,44,0
281.98383,282.02765,65,51,0
282.15915,282.20416,60,42,0
282.3392,282.3829,65,52,0
282.514,282.55887,60,43,0
282.6935,282.7372,65,51,0
282.86832,282.91278,60,44,0
283.04623,283.08994,65,51,0
283.22104,283.26636,60,42,0
283.40234,283.4462,65,52,0
283.40234,283.4462,68,52,0
283.57767,283.62207,65,42,0
283.57767,283.62207,60,42,0
283.75528,283.7991,65,49,0
283.75528,283.7991,68,49,0
283.93057,283.97467,65,41,0
283.93057,283.97467,60,41,0
284.10696,284.15067,68,40,0
284.10696,284.15067,65,47,0
284.28177,284.32632,65,40,0
284.28177,284.32632,60,38,0
284.46,284.50394,65,46,0
284.46,284.50394,68,46,0
284.63583,284.68042,60,38,0
284.63583,284.68042,65,38,0
284.81427,284.8579,68,44,0
284.81427,284.8579,65,44,0
284.98886,285.03296,60,37,0
284.98886,285.03296,65,37,0
285.16525,285.20895,68,36,0
285.16525,285.20895,65,42,0
285.34006,285.38538,60,34,0
285.34006,285.38538,65,36,0
285.5214,285.56522,65,41,0
285.5214,285.56522,68,41,0
285.6967,285.74158,61,34,0
285.6967,285.74158,65,34,0
285.87622,285.92017,65,40,0
285.87622,285.92017,68,40,0
286.05203,286.09677,65,35,0
286.05203,286.09677,61,35,0
286.23102,286.27512,68,35,0
286.23102,286.27512,65,40,0
286.40735,286.4525,61,33,0
286.40735,286.4525,65,35,0
286.58795,286.6319,68,41,0
286.58795,286.6319,65,41,0
286.7638,286.80853,65,34,0
286.7638,286.80853,61,34,0
286.94275,286.9866,65,40,0
286.94275,286.9866,68,40,0
287.11807,287.1628,61,35,0
287.11807,287.1628,65,35,0
287.29706,287.34088,65,40,0
287.29706,287.34088,68,35,0
287.47238,287.5177,65,35,0
287.47238,287.5177,61,33,0
287.6537,287.6975,66,41,0
287.6537,287.6975,68,41,0
287.829,287.87387,63,34,0
287.829,287.87387,66,34,0
288.0085,288.05222,66,40,0
288.0085,288.05222,68,40,0
288.18332,288.22794,63,35,0
288.18332,288.22794,66,35,0
288.36176,288.40546,66,40,0
288.36176,288.40546,68,35,0
288.53656,288.58127,63,33,0
288.53656,288.58127,66,35,0
288.7154,288.75903,66,41,0
288.7154,288.75903,68,41,0
288.88998,288.9344,75,43,0
288.88998,288.9344,68,43,0
289.0676,289.11124,75,45,0
289.0676,289.11124,78,45,0
289.2422,289.2863,80,48,0
289.2422,289.2863,78,48,0
289.41858,289.4621,87,50,0
289.41858,289.4621,80,50,0
289.5926,289.63794,87,53,0
289.5926,289.63794,90,53,0
289.77393,289.81674,89,55,0
289.77393,289.81674,85,55,0
289.94516,289.98953,77,53,0
289.94516,289.98953,80,53,0
290.12274,290.16638,85,57,0
290.12274,290.16638,89,57,0
290.29733,290.34143,80,49,0
290.29733,290.34143,77,49,0
290.47372,290.51724,85,56,0
290.47372,290.51724,89,56,0
290.64777,290.69247,80,50,0
290.64777,290.69247,77,50,0
290.82657,290.86963,85,56,0
290.82657,290.86963,89,56,0
290.99878,291.04318,85,54,0
290.99878,291.04318,80,54,0
291.1764,291.22003,80,51,0
291.1764,291.22003,77,51,0
291.35098,291.39508,73,47,0
291.35098,291.39508,77,47,0
291.52737,291.57086,68,44,0
291.52737,291.57086,73,44,0
291.7014,291.74673,65,41,0
291.7014,291.74673,68,41,0
291.88272,291.92566,66,41,0
291.88272,291.92566,68,41,0
292.05444,292.09882,66,34,0
292.05444,292.09882,63,34,0
292.23203,292.27496,66,40,0
292.23203,292.27496,68,40,0
292.40375,292.44785,69,44,0
292.40375,292.44785,66,44,0
292.58014,292.62363,63,40,0
292.58014,292.62363,66,35,0
292.75415,292.79886,66,33,0
292.75415,292.79886,69,35,0
292.93298,292.97662,68,41,0
292.93298,292.97662,66,41,0
293.10757,293.15198,75,43,0
293.10757,293.15198,68,43,0
293.28516,293.32883,75,45,0
293.28516,293.32883,78,45,0
293.45978,293.50388,78,48,0
293.45978,293.50388,80,48,0
293.63617,293.67966,87,50,0
293.63617,293.67966,80,50,0
293.81018,293.8555,87,53,0
293.81018,293.8555,90,53,0
293.99152,294.035,89,55,0
293.99152,294.035,85,55,0
294.16553,294.20993,80,53,0
294.16553,294.20993,77,53,0
294.34314,294.3863,85,57,0
294.34314,294.3863,89,57,0
294.51584,294.55994,77,49,0
294.51584,294.55994,82,49,0
294.69223,294.73572,89,56,0
294.69223,294.73572,85,56,0
294.86624,294.91095,82,50,0
294.86624,294.91095,77,50,0
295.04504,295.0887,89,56,0
295.04504,295.0887,85,56,0
295.21967,295.26407,85,54,0
295.21967,295.26407,80,54,0
295.39725,295.44092,80,51,0
295.39725,295.44092,77,51,0
295.57187,295.61597,77,47,0
295.57187,295.61597,73,47,0
295.74826,295.79175,68,44,0
295.74826,295.79175,73,44,0
295.92227,295.9676,65,41,0
295.92227,295.9676,68,41,0
296.1036,296.1464,77,41,0
296.1036,296.1464,75,41,0
296.2748,296.3192,65,34,0
296.2748,296.3192,69,34,0
296.45242,296.49533,77,40,0
296.45242,296.49533,75,40,0
296.62415,296.6682,66,35,0
296.62415,296.6682,69,35,0
296.8005,296.84402,75,40,0
296.8005,296.84402,78,35,0
296.97455,297.01926,69,35,0
296.97455,297.01926,66,33,0
297.15335,297.19702,77,41,0
297.15335,297.19702,75,41,0
297.32797,297.37234,69,43,0
297.32797,297.37234,65,43,0
297.50555,297.5492,77,45,0
297.50555,297.5492,75,45,0
297.68015,297.72424,81,48,0
297.68015,297.72424,77,48,0
297.85654,297.90005,81,50,0
297.85654,297.90005,87,50,0
298.03058,298.0759,89,53,0
298.03058,298.0759,87,53,0
298.21188,298.25482,89,55,0
298.21188,298.25482,85,55,0
298.3836,298.428,77,53,0
298.3836,298.428,82,53,0
298.56122,298.60486,85,57,0
298.56122,298.60486,89,57,0
298.7358,298.7799,78,49,0
298.7358,298.7799,82,49,0
298.9122,298.9557,90,56,0
298.9122,298.9557,85,56,0
299.0862,299.13092,78,50,0
299.0862,299.13092,82,50,0
299.26505,299.3087,85,56,0
299.26505,299.3087,89,56,0
299.43964,299.48404,82,54,0
299.43964,299.48404,85,54,0
299.61725,299.6609,82,51,0
299.61725,299.6609,77,51,0
299.79184,299.83594,73,47,0
299.79184,299.83594,77,47,0
299.96823,300.01172,73,44,0
299.96823,300.01172,70,44,0
300.14224,300.1876,65,41,0
300.14224,300.1876,70,41,0
300.32358,300.36652,73,41,0
300.32358,300.36652,65,41,0
300.4953,300.53967,61,34,0
300.4953,300.53967,65,34,0
300.67288,300.71606,65,40,0
300.67288,300.71606,73,40,0
300.84558,300.88968,61,35,0
300.84558,300.88968,65,35,0
301.02197,301.0655,73,35,0
301.02197,301.0655,65,40,0
301.19598,301.2407,61,33,0
301.19598,301.2407,65,35,0
301.37482,301.41788,65,45,0
301.37482,301.41788,72,45,0
301.54703,301.59143,60,40,0
301.54703,301.59143,65,40,0
301.7246,301.76828,72,45,0
301.7246,301.76828,65,45,0
301.89923,301.94333,60,43,0
301.89923,301.94333,65,43,0
302.07562,302.1191,65,43,0
302.07562,302.1191,72,43,0
302.24963,302.29434,60,33,0
302.24963,302.29434,65,35,0
302.42844,302.4715,68,55,0
302.42844,302.4715,71,55,0
302.60065,302.64505,65,43,0
302.60065,302.64505,68,43,0
302.77826,302.8219,71,45,0
302.77826,302.8219,68,45,0
302.95285,302.99695,65,48,0
302.95285,302.99695,68,48,0
303.12924,303.17276,71,50,0
303.12924,303.17276,68,50,0
303.30325,303.3486,71,53,0
303.30325,303.3486,77,53,0
303.4846,303.52777,77,56,0
303.4846,303.52777,80,56,0
303.6573,303.7017,83,54,0
303.6573,303.7017,80,54,0
303.8349,303.87854,80,51,0
303.8349,303.87854,77,51,0
304.0095,304.0536,77,47,0
304.0095,304.0536,71,47,0
304.18588,304.22937,71,44,0
304.18588,304.22937,68,44,0
304.3599,304.40524,65,41,0
304.3599,304.40524,68,41,0
304.54123,304.58417,67,41,0
304.54123,304.58417,70,41,0
304.71295,304.75732,61,34,0
304.71295,304.75732,67,34,0
304.89053,304.9342,70,40,0
304.89053,304.9342,67,40,0
305.06516,305.10922,61,35,0
305.06516,305.10922,67,35,0
305.24152,305.28503,67,40,0
305.24152,305.28503,70,35,0
305.41556,305.46027,61,33,0
305.41556,305.46027,67,35,0
305.59436,305.63742,69,45,0
305.59436,305.63742,65,45,0
305.76657,305.81097,60,40,0
305.76657,305.81097,65,40,0
305.94418,305.98782,69,45,0
305.94418,305.98782,65,45,0
306.11877,306.16287,60,43,0
306.11877,306.16287,65,43,0
306.29517,306.33865,69,43,0
306.29517,306.33865,65,43,0
306.46918,306.5139,60,33,0
306.46918,306.5139,65,35,0
306.648,306.69165,68,55,0
306.648,306.69165,65,55,0
306.8226,306.867,62,43,0
306.8226,306.867,65,43,0
307.0002,307.04385,68,45,0
307.0002,307.04385,65,45,0
307.1748,307.2189,65,48,0
307.1748,307.2189,62,48,0
307.3512,307.39468,65,46,0
307.3512,307.39468,68,46,0
307.5252,307.57056,62,44,0
307.5252,307.57056,65,44,0
307.70654,307.75018,62,45,0
307.70654,307.75018,67,45,0
307.88113,307.92554,62,38,0
307.88113,307.92554,55,38,0
308.05875,308.1024,67,45,0
308.05875,308.1024,62,45,0
308.23334,308.27744,62,38,0
308.23334,308.27744,65,38,0
308.40973,308.45325,56,44,0
308.40973,308.45325,62,44,0
308.58374,308.6291,65,40,0
308.58374,308.6291,62,40,0
308.76508,308.80872,65,39,0
308.76508,308.80872,60,39,0
308.93967,308.98407,60,35,0
308.93967,308.98407,56,35,0
309.11728,309.16034,65,41,0
309.11728,309.16034,60,41,0
309.2895,309.3336,56,35,0
309.2895,309.3336,60,35,0
309.46588,309.50937,65,41,0
309.46588,309.50937,60,41,0
309.6399,309.6852,60,35,0
309.6399,309.6852,56,35,0
309.82123,309.86426,65,40,0
309.82123,309.86426,60,40,0
309.9934,310.0378,60,31,0
309.9934,310.0378,55,31,0
310.17102,310.21466,60,45,0
310.17102,310.21466,65,45,0
310.3456,310.3897,55,40,0
310.3456,310.3897,60,40,0
310.522,310.56552,64,48,0
310.522,310.56552,60,48,0
310.69604,310.74136,68,42,0
310.69604,310.74136,64,42,0
310.87735,310.92053,65,56,0
310.87735,310.92053,68,56,0
311.05005,311.09445,61,44,0
311.05005,311.09445,65,44,0
311.22766,311.2713,65,51,0
311.22766,311.2713,68,51,0
311.40225,311.44635,65,35,0
311.40225,311.44635,61,35,0
311.57864,311.62216,68,44,0
311.57864,311.62216,65,44,0
311.7527,311.798,65,35,0
311.7527,311.798,61,35,0
311.934,311.97705,67,43,0
311.934,311.97705,65,43,0
312.1062,312.1506,65,34,0
312.1062,312.1506,61,34,0
312.2838,312.32745,67,43,0
312.2838,312.32745,65,43,0
312.4584,312.5025,65,34,0
312.4584,312.5025,62,34,0
312.6348,312.67828,55,41,0
312.6348,312.67828,62,41,0
312.8088,312.85416,62,36,0
312.8088,312.85416,65,36,0
312.99014,313.0332,60,39,0
312.99014,313.0332,65,39,0
313.16235,313.20676,60,35,0
313.16235,313.20676,56,35,0
313.33994,313.3836,65,41,0
313.33994,313.3836,60,41,0
313.51456,313.55865,60,35,0
313.51456,313.55865,56,35,0
313.69092,313.73444,60,41,0
313.69092,313.73444,65,41,0
313.86496,313.91028,60,35,0
313.86496,313.91028,56,35,0
314.04626,314.08945,60,40,0
314.04626,314.08945,65,40,0
314.219,314.26337,60,31,0
314.219,314.26337,56,31,0
314.39658,314.44022,65,38,0
314.39658,314.44022,60,38,0
314.57117,314.61526,56,30,0
314.57117,314.61526,60,30,0
314.74756,314.79108,65,39,0
314.74756,314.79108,60,39,0
314.9216,314.96692,60,32,0
314.9216,314.96692,56,32,0
315.1029,315.14584,60,39,0
315.1029,315.14584,65,39,0
315.27463,315.31903,55,34,0
315.27463,315.31903,60,34,0
315.45224,315.49588,60,38,0
315.45224,315.49588,65,38,0
315.62683,315.67093,60,32,0
315.62683,315.67093,55,32,0
315.80322,315.8467,60,36,0
315.80322,315.8467,65,36,0
315.97723,316.02258,60,30,0
315.97723,316.02258,55,30,0
316.15857,316.20267,60,34,0
316.15857,316.20267,64,34,0
316.33496,316.38043,55,25,0
316.33496,316.38043,60,25,0
316.5169,316.56146,60,30,0
316.5169,316.56146,64,30,0
316.69513,316.74142,55,23,0
316.69513,316.74142,60,23,0
316.88034,316.9258,64,29,0
316.88034,316.9258,60,29,0
317.0623,317.1112,60,23,0
317.0623,317.1112,55,23,0
318.43216,318.59933,77,88,0
318.59933,318.76865,65,80,0
318.76865,318.81146,77,80,0
318.93994,319.10666,80,88,0
319.10666,319.27502,68,80,0
319.27502,319.31784,80,80,0
319.44632,319.61328,84,88,0
319.61328,319.7821,72,80,0
319.7821,319.82504,84,80,0
319.9539,320.1179,79,88,0
320.1179,320.2839,67,80,0
320.2839,320.32635,79,80,0
320.45377,320.61798,82,88,0
320.61798,320.7849,70,80,0
320.7849,320.82748,82,80,0
320.95523,321.1199,77,88,0
321.1199,321.28638,65,80,0
321.28638,321.3297,77,80,0
321.45966,321.62686,77,74,0
321.45966,321.62686,80,88,0
321.62686,321.79565,68,80,0
321.79565,321.8385,80,80,0
321.79565,321.8385,77,68,0
321.96698,322.13336,76,60,0
321.96698,322.13336,79,88,0
322.13336,322.30215,67,80,0
322.30215,322.3455,76,68,0
322.30215,322.3455,79,80,0
322.47546,322.64148,77,88,0
322.64148,322.80887,65,80,0
322.80887,322.85184,77,80,0
322.98068,323.14658,77,74,0
322.98068,323.14658,80,88,0
323.14658,323.31494,68,80,0
323.31494,323.358,80,80,0
323.31494,323.358,77,68,0
323.4872,323.6528,84,88,0
323.4872,323.6528,75,60,0
323.6528,323.8202,72,80,0
323.8202,323.86316,84,80,0
323.8202,323.86316,75,68,0
323.992,324.15884,79,88,0
323.992,324.15884,75,74,0
324.15884,324.32764,70,80,0
324.32764,324.37097,75,68,0
324.32764,324.37097,79,80,0
324.50095,324.66907,73,74,0
324.50095,324.66907,82,88,0
324.50095,324.66907,77,74,0
324.66907,324.83835,70,80,0
324.83835,324.88165,82,80,0
324.83835,324.88165,73,68,0
324.83835,324.88165,77,68,0
325.01163,325.18005,77,88,0
325.01163,325.18005,68,60,0
325.18005,325.34848,65,80,0
325.34848,325.3918,77,80,0
325.34848,325.3918,68,68,0
325.5218,325.68973,80,88,0
325.5218,325.68973,77,74,0
325.68973,325.8577,68,80,0
325.8577,325.90076,80,80,0
325.8577,325.90076,77,68,0
326.02997,326.19748,79,88,0
326.02997,326.19748,76,74,0
326.19748,326.36496,67,80,0
326.36496,326.4101,76,68,0
326.36496,326.4101,79,80,0
326.54553,326.71783,89,88,0
326.71783,326.80087,77,72,0
326.80087,326.88394,89,72,0
326.88394,326.92856,77,80,0
327.06238,327.2337,89,74,0
327.06238,327.2337,92,88,0
327.2337,327.31604,80,72,0
327.31604,327.3984,89,50,0
327.31604,327.3984,92,59,0
327.3984,327.4421,80,80,0
327.5732,327.74213,87,74,0
327.5732,327.74213,96,88,0
327.74213,327.82382,84,72,0
327.82382,327.9055,96,62,0
327.82382,327.9055,87,52,0
327.9055,327.94858,84,80,0
328.0778,328.2467,91,88,0
328.0778,328.2467,87,74,0
328.2467,328.32883,82,72,0
328.32883,328.41098,87,54,0
328.32883,328.41098,91,64,0
328.41098,328.4544,82,80,0
328.58478,328.7546,94,88,0
328.58478,328.7546,85,74,0
328.58478,328.7546,89,74,0
328.7546,328.83698,82,72,0
328.83698,328.91934,89,54,0
328.83698,328.91934,85,54,0
328.83698,328.91934,94,64,0
328.91934,328.96317,82,80,0
329.09467,329.26453,89,88,0
329.09467,329.26453,80,74,0
329.26453,329.34756,77,72,0
329.34756,329.4306,89,63,0
329.34756,329.4306,80,53,0
329.4306,329.47406,77,80,0
329.6044,329.77377,92,88,0
329.6044,329.77377,89,74,0
329.77377,329.85498,80,72,0
329.85498,329.9362,92,63,0
329.85498,329.9362,89,53,0
329.9362,329.97928,80,80,0
330.1085,330.27692,91,88,0
330.1085,330.27692,88,60,0
330.27692,330.3595,79,72,0
330.3595,330.4421,91,62,0
330.3595,330.4421,88,52,0
330.4421,330.48517,79,80,0
330.61438,330.7828,89,74,0
330.61438,330.7828,92,88,0
330.7828,330.86426,80,72,0
330.86426,330.94568,89,54,0
330.86426,330.94568,92,64,0
330.94568,330.98874,80,81,0
331.11798,331.2864,91,77,0
331.11798,331.2864,96,91,0
331.11798,331.2864,88,77,0
331.2864,331.3683,84,75,0
331.3683,331.45013,91,66,0
331.3683,331.45013,88,56,0
331.3683,331.45013,96,66,0
331.45013,331.4937,84,84,0
331.62445,331.79477,89,64,0
331.62445,331.79477,92,64,0
331.62445,331.79477,96,95,0
331.79477,331.87738,84,78,0
331.87738,331.95996,92,58,0
331.87738,331.95996,89,58,0
331.87738,331.95996,96,69,0
331.95996,332.0047,84,88,0
332.13895,332.31122,100,98,0
332.13895,332.31122,96,83,0
332.13895,332.31122,91,83,0
332.31122,332.39474,88,81,0
332.39474,332.47824,100,72,0
332.39474,332.47824,91,61,0
332.39474,332.47824,96,61,0
332.47824,332.52274,88,91,0
332.5672,332.59686,89,85,0
332.59686,332.62653,92,90,0
332.62653,332.65616,96,96,0
332.65616,332.7399,101,105,0
332.7399,332.82388,99,103,0
332.82388,332.90826,97,101,0
332.90826,332.9931,96,98,0
332.9931,333.07834,94,96,0
333.07834,333.16403,92,94,0
333.16403,333.2497,91,92,0
333.2497,333.33536,89,89,0
333.33536,333.42123,87,87,0
333.42123,333.50717,85,85,0
333.50717,333.59332,84,82,0
333.59332,333.6794,82,80,0
333.6794,333.76532,80,80,0
333.76532,333.85123,79,79,0
333.85123,333.9371,77,78,0
333.9371,334.02277,75,78,0
334.02277,334.1084,73,77,0
334.1084,334.19394,72,76,0
334.19394,334.27887,70,75,0
334.27887,334.36365,68,74,0
334.36365,334.44833,67,73,0
334.44833,334.5328,65,72,0
334.5328,334.6172,63,71,0
334.6172,334.7014,61,70,0
0.0,0.0565185,53,35,0
0.23320113,0.28834412,65,30,0
0.23320113,0.28834412,60,25,0
0.23320113,0.28834412,56,25,0
0.4537731,0.5100582,53,30,0
0.6815954,0.7378805,65,35,0
0.6815954,0.7378805,56,29,0
0.6815954,0.7378805,60,29,0
0.9067359,0.9618789,53,31,0
1.1273079,1.1824509,60,26,0
1.1273079,1.1824509,65,31,0
1.1273079,1.1824509,56,26,0
1.3572918,1.4104042,53,35,0
1.5697414,1.625334,56,26,0
1.5697414,1.625334,59,26,0
1.5697414,1.625334,62,31,0
1.7921119,1.848397,53,31,0
2.0217698,2.085714,48,35,0
2.2775464,2.3333664,52,27,0
2.2775464,2.3333664,55,27,0
2.2775464,2.3333664,60,32,0
2.5008268,2.556647,48,32,0
2.7339246,2.7892957,55,29,0
2.7339246,2.7892957,52,29,0
2.7339246,2.7892957,60,35,0
2.9554086,3.0107796,48,31,0
3.1768925,3.2322636,55,26,0
3.1768925,3.2322636,60,31,0
3.1768925,3.2322636,52,26,0
3.3983767,3.4537475,49,35,0
3.6198606,3.674126,53,26,0
3.6198606,3.674126,61,31,0
3.8369217,3.891187,49,31,0
4.0618668,4.2833505,46,35,0
4.2833505,4.5048347,55,28,0
4.2833505,4.5048347,58,33,0
4.5048347,4.612935,55,28,0
4.5048347,4.612935,58,33,0
4.5048347,4.612935,48,28,0
4.7259717,5.156379,56,40,0
4.7259717,5.156379,53,34,0
5.371705,5.4282236,53,35,0
5.6040273,5.6591706,56,25,0
5.6040273,5.6591706,65,30,0
5.6040273,5.6591706,60,25,0
5.8245993,5.880649,53,30,0
6.0541945,6.10846,56,29,0
6.0541945,6.10846,65,35,0
6.0541945,6.10846,60,29,0
6.2712555,6.3266263,53,31,0
6.4927397,6.5481105,60,26,0
6.4927397,6.5481105,65,31,0
6.4927397,6.5481105,56,26,0
6.7218776,6.778163,53,35,0
6.9456334,7.000334,62,31,0
6.9456334,7.000334,59,26,0
6.9456334,7.000334,56,26,0
7.164436,7.219136,53,31,0
7.3893404,7.4532843,48,35,0
7.645117,7.700937,60,32,0
7.645117,7.700937,55,27,0
7.645117,7.700937,52,27,0
7.868397,7.924217,48,32,0
8.103301,8.158672,52,29,0
8.103301,8.158672,55,29,0
8.103301,8.158672,60,35,0
8.324785,8.3801565,48,31,0
8.546269,8.601641,55,26,0
8.546269,8.601641,60,31,0
8.546269,8.601641,52,26,0
8.767754,8.823125,49,35,0
8.989238,9.043503,53,26,0
8.989238,9.043503,61,31,0
9.206299,9.260564,49,31,0
9.428328,9.649812,46,35,0
9.649812,9.868614,58,33,0
9.649812,9.868614,55,28,0
9.868614,10.089751,55,28,0
9.868614,10.089751,48,28,0
9.868614,10.089751,58,33,0
10.089751,10.306812,53,34,0
10.089751,10.306812,56,40,0
10.745611,10.796907,36,60,0
10.954054,11.006979,48,55,0
11.17019,11.221662,36,60,0
11.378612,11.431351,48,53,0
11.593491,11.64649,36,60,0
11.80549,11.858489,48,52,0
12.021775,12.07604,36,49,0
12.238836,12.291836,48,43,0
12.450835,12.503835,36,43,0
12.662834,12.716246,48,43,0
12.876479,12.93118,36,41,0
13.095282,13.149982,48,43,0
13.314084,13.365032,36,60,0
13.521273,13.574012,48,55,0
13.74303,13.955029,36,60,0
13.955029,14.170429,37,60,0
14.170429,14.223429,49,49,0
14.382428,14.435428,37,57,0
14.598714,14.652979,36,49,0
14.815775,14.868774,48,43,0
15.027774,15.080773,36,43,0
15.239773,15.453418,41,43,0
15.88754,15.938661,48,60,0
16.095633,16.148558,60,55,0
16.311768,16.363596,48,60,0
16.520903,16.573828,60,53,0
16.736155,16.789154,48,60,0
16.948153,17.001152,60,52,0
17.164438,17.218704,47,49,0
17.3815,17.4345,59,43,0
17.593498,17.646498,47,43,0
17.805498,17.858908,60,43,0
18.019142,18.073843,48,41,0
18.237946,18.292646,60,43,0
18.456747,18.508396,48,60,0
18.665895,18.71882,60,55,0
18.882032,19.09403,48,60,0
19.09403,19.30673,49,60,0
19.30673,19.359732,61,49,0
19.51873,19.57173,49,57,0
19.735016,19.78928,49,49,0
19.952076,20.005075,61,43,0
20.164076,20.217075,49,43,0
20.376074,20.482897,61,43,0
20.58972,20.699121,49,43,0
20.808521,20.917923,61,43,0
21.027325,21.135855,49,43,0
21.244385,21.352917,61,43,0
21.461447,21.569977,49,44,0
21.678507,21.785757,61,45,0
21.893007,22.000257,49,50,0
22.107508,22.214758,61,51,0
22.326857,22.434107,48,51,0
22.541357,22.648607,60,53,0
22.755857,22.863108,48,57,0
22.977568,23.103617,53,60,0
23.66379,23.71491,36,60,0
23.871141,23.923695,48,55,0
24.086535,24.138184,36,60,0
24.295311,24.348051,48,53,0
24.510191,24.56319,36,60,0
24.722189,24.775188,48,52,0
24.941397,24.995663,36,49,0
25.158457,25.211458,48,43,0
25.370457,25.423456,36,43,0
25.582455,25.635866,48,43,0
25.7961,25.850801,36,41,0
26.014904,26.069603,48,43,0
26.233706,26.285355,36,60,0
26.442854,26.495779,48,55,0
26.661064,26.873062,36,60,0
26.873062,27.088463,37,60,0
27.088463,27.141464,49,49,0
27.300463,27.353462,37,57,0
27.516748,27.571012,36,49,0
27.733809,27.786808,48,43,0
27.945808,27.998808,36,43,0
28.157806,28.378698,41,43,0
28.81282,28.86447,48,60,0
29.021969,29.074894,60,55,0
29.238106,29.290112,48,60,0
29.44797,29.500895,60,53,0
29.663221,29.71622,48,60,0
29.87522,29.92822,60,52,0
30.091505,30.145771,47,49,0
30.308567,30.361567,59,43,0
30.520565,30.573565,47,43,0
30.732565,30.785976,60,43,0
30.946209,31.00091,48,41,0
31.165012,31.219713,60,43,0
31.386772,31.438423,48,60,0
31.596296,31.649408,60,55,0
31.812807,32.024807,48,60,0
32.024807,32.240208,49,60,0
32.240208,32.293205,61,49,0
32.452206,32.505207,49,57,0
32.66849,32.722755,49,49,0
32.88555,32.938553,61,43,0
33.097553,33.15055,49,43,0
33.30955,33.416374,61,43,0
33.523197,33.632595,49,43,0
33.741997,33.8514,61,43,0
33.9608,34.069332,49,43,0
34.17786,34.286392,61,43,0
34.394924,34.503452,49,44,0
34.611984,34.719234,61,45,0
34.826485,34.933735,49,50,0
35.040985,35.14823,61,51,0
35.260334,35.36544,48,51,0
35.47055,35.577152,60,53,0
35.683754,35.790356,48,57,0
35.904816,36.013348,53,60,0
36.121876,37.19561,64,61,0
36.121876,37.19561,61,51,0
36.121876,37.19561,53,51,0
36.121876,37.19561,58,51,0
37.19561,37.30371,56,52,0
37.19561,37.30371,60,52,0
37.19561,37.30371,53,52,0
37.19561,37.30371,65,62,0
37.41181,38.496723,58,51,0
37.41181,38.496723,53,51,0
37.41181,38.496723,64,61,0
37.41181,38.496723,61,51,0
38.496723,38.60482,56,52,0
38.496723,38.60482,53,52,0
38.496723,38.60482,60,52,0
38.496723,38.60482,65,62,0
38.71292,39.81339,53,51,0
38.71292,39.81339,61,51,0
38.71292,39.81339,58,51,0
38.71292,39.81339,64,61,0
39.81339,39.927895,65,62,0
39.81339,39.927895,56,52,0
39.81339,39.927895,53,52,0
39.81339,39.927895,60,52,0
40.042397,41.829845,64,61,0
40.042397,41.829845,53,51,0
40.042397,41.829845,58,51,0
40.042397,41.829845,61,51,0
41.829845,41.886364,53,35,0
42.063046,42.118187,60,25,0
42.063046,42.118187,65,30,0
42.063046,42.118187,56,25,0
42.28362,42.3399,53,30,0
42.51144,42.567726,65,35,0
42.51144,42.567726,60,29,0
42.51144,42.567726,56,29,0
42.73658,42.791725,53,31,0
42.957153,43.012295,60,26,0
42.957153,43.012295,65,31,0
42.957153,43.012295,56,26,0
43.187138,43.243423,53,35,0
43.410645,43.46491,59,26,0
43.410645,43.46491,56,26,0
43.410645,43.46491,62,31,0
43.627705,43.68399,53,31,0
43.857365,43.921307,48,35,0
44.11314,44.16896,55,27,0
44.11314,44.16896,60,32,0
44.11314,44.16896,52,27,0
44.336422,44.392242,48,32,0
44.56903,44.6244,55,29,0
44.56903,44.6244,60,35,0
44.56903,44.6244,52,29,0
44.790512,44.845882,48,31,0
45.011997,45.067368,60,31,0
45.011997,45.067368,55,26,0
45.011997,45.067368,52,26,0
45.233482,45.288853,49,35,0
45.454964,45.50923,61,31,0
45.454964,45.50923,53,26,0
45.672028,45.72629,49,31,0
45.898666,46.12015,46,35,0
46.12015,46.341637,55,28,0
46.12015,46.341637,58,33,0
46.341637,46.449734,58,33,0
46.341637,46.449734,55,28,0
46.341637,46.449734,48,28,0
46.56277,46.99318,56,40,0
46.56277,46.99318,53,34,0
47.208504,47.265022,53,35,0
47.440826,47.49597,56,25,0
47.440826,47.49597,65,30,0
47.440826,47.49597,60,25,0
47.6614,47.71745,53,30,0
47.890034,47.94632,56,29,0
47.890034,47.94632,65,35,0
47.890034,47.94632,60,29,0
48.115173,48.170544,53,31,0
48.33666,48.39203,56,26,0
48.33666,48.39203,65,31,0
48.33666,48.39203,60,26,0
48.56304,48.619324,53,35,0
48.786797,48.841496,62,31,0
48.786797,48.841496,59,26,0
48.786797,48.841496,56,26,0
49.005596,49.0603,53,31,0
49.230503,49.294445,48,35,0
49.48628,49.5421,55,27,0
49.48628,49.5421,52,27,0
49.48628,49.5421,60,32,0
49.70956,49.76538,48,32,0
49.944466,49.999836,52,29,0
49.944466,49.999836,60,35,0
49.944466,49.999836,55,29,0
50.165947,50.221317,48,31,0
50.387432,50.442802,55,26,0
50.387432,50.442802,52,26,0
50.387432,50.442802,60,31,0
50.608917,50.664288,49,35,0
50.8304,50.884666,53,26,0
50.8304,50.884666,61,31,0
51.047462,51.101727,49,31,0
51.26949,51.32486,50,35,0
51.490974,51.546345,58,31,0
51.490974,51.546345,62,31,0
51.71246,51.76783,50,31,0
51.93394,51.98931,51,39,0
52.155426,52.20969,58,33,0
52.155426,52.20969,63,33,0
52.372486,52.426754,51,33,0
52.594517,52.64715,48,41,0
52.80731,52.86107,60,32,0
53.02512,53.07917,48,31,0
53.24132,53.294136,47,40,0
53.45448,53.508244,59,36,0
53.673195,53.72703,47,36,0
53.88854,53.942165,46,51,0
54.106533,54.16037,62,43,0
54.106533,54.16037,53,36,0
54.106533,54.16037,58,36,0
54.32539,54.377945,46,57,0
54.540787,54.59297,62,46,0
54.540787,54.59297,53,39,0
54.540787,54.59297,58,39,0
54.754562,54.806393,46,55,0
54.96632,55.017616,58,40,0
54.96632,55.017616,62,48,0
54.96632,55.017616,53,40,0
55.178753,55.231136,46,61,0
55.388294,55.440678,54,39,0
55.388294,55.440678,63,47,0
55.388294,55.440678,57,39,0
55.597836,55.65022,46,60,0
55.807377,55.85976,57,48,0
55.807377,55.85976,54,48,0
55.807377,55.85976,63,57,0
56.01692,56.069656,46,46,0
56.22787,56.280613,54,38,0
56.22787,56.280613,63,45,0
56.22787,56.280613,57,38,0
56.438828,56.492455,46,51,0
56.65682,56.710655,53,36,0
56.65682,56.710655,62,43,0
56.65682,56.710655,58,36,0
56.87568,56.92879,46,57,0
57.09219,57.14438,58,39,0
57.09219,57.14438,62,46,0
57.09219,57.14438,53,39,0
57.305965,57.357616,46,55,0
57.517365,57.568314,58,40,0
57.517365,57.568314,53,40,0
57.517365,57.568314,62,48,0
57.729103,57.781006,46,61,0
57.936714,57.98862,57,39,0
57.936714,57.98862,54,39,0
57.936714,57.98862,63,47,0
58.14433,58.19696,46,60,0
58.354855,58.406937,63,57,0
58.354855,58.406937,54,48,0
58.354855,58.406937,57,48,0
58.563187,58.615273,46,46,0
58.771523,58.824154,57,38,0
58.771523,58.824154,63,45,0
58.771523,58.824154,54,38,0
58.982048,59.035675,46,51,0
59.20004,59.253876,53,36,0
59.20004,59.253876,62,43,0
59.20004,59.253876,58,36,0
59.4189,59.472736,44,57,0
59.63686,59.689857,56,46,0
59.85226,59.905052,43,55,0
60.06595,60.117935,55,48,0
60.279762,60.333385,48,51,0
60.497753,60.55159,60,43,0
60.716614,60.77045,46,57,0
60.934574,60.98757,58,46,0
61.149975,61.202766,43,55,0
61.363663,61.41565,55,48,0
61.577477,61.6311,44,57,0
61.795467,61.849304,56,49,0
62.014328,62.068165,34,57,0
62.23229,62.285286,46,46,0
62.44769,62.50048,36,64,0
62.661377,62.713364,48,58,0
62.875175,62.98425,41,65,0
62.875175,62.98425,29,60,0
63.093338,64.17216,64,61,0
63.093338,64.17216,61,51,0
63.093338,64.17216,58,51,0
63.093338,64.17216,53,51,0
64.17216,64.28025,56,52,0
64.17216,64.28025,53,52,0
64.17216,64.28025,60,52,0
64.17216,64.28025,65,62,0
64.38844,65.467094,53,51,0
64.38844,65.467094,61,51,0
64.38844,65.467094,64,61,0
64.38844,65.467094,58,51,0
65.467094,65.575195,65,62,0
65.467094,65.575195,56,52,0
65.467094,65.575195,60,52,0
65.467094,65.575195,53,52,0
65.6833,66.78787,53,51,0
65.6833,66.78787,58,51,0
65.6833,66.78787,61,51,0
65.6833,66.78787,64,61,0
66.78787,66.9018,53,52,0
66.78787,66.9018,56,52,0
66.78787,66.9018,60,52,0
66.78787,66.9018,65,62,0
67.01675,68.21893,58,51,0
67.01675,68.21893,64,61,0
67.01675,68.21893,53,51,0
67.01675,68.21893,61,51,0
68.21893,68.47472,60,79,0
68.21893,68.47472,56,67,0
68.21893,68.47472,53,67,0
68.98627,69.41355,61,67,0
68.98627,69.41355,51,67,0
68.98627,69.41355,63,79,0
68.98627,69.41355,58,67,0
70.25827,70.44784,63,32,0
70.25827,70.44784,56,27,0
70.25827,70.44784,60,32,0
70.468765,70.6557,60,29,0
70.468765,70.6557,56,24,0
70.468765,70.6557,63,29,0
70.67634,71.50452,60,29,0
70.67634,71.50452,63,29,0
71.50452,72.78269,61,26,0
71.50452,72.78269,65,31,0
70.67634,72.78269,56,24,0
72.78269,72.97052,60,27,0
72.78269,72.97052,63,32,0
72.78269,72.97052,56,27,0
72.9913,73.1773,63,29,0
72.9913,73.1773,56,24,0
72.9913,73.1773,60,24,0
73.19789,74.028206,60,24,0
74.028206,74.23552,61,31,0
74.23552,74.442825,58,30,0
74.442825,74.65014,60,30,0
74.65014,74.857376,61,31,0
74.857376,75.0657,60,28,0
75.0657,75.27622,58,31,0
73.19789,75.27622,56,24,0
73.19789,75.27622,63,29,0
75.27622,75.46579,63,32,0
75.27622,75.46579,56,27,0
75.27622,75.46579,59,27,0
75.48671,75.67365,56,24,0
75.48671,75.67365,59,24,0
75.48671,75.67365,63,29,0
75.69429,76.52246,63,29,0
75.69429,76.52246,59,24,0
76.52246,77.80064,64,31,0
76.52246,77.80064,61,26,0
75.69429,77.80064,56,24,0
77.80064,77.98847,56,27,0
77.80064,77.98847,63,32,0
77.80064,77.98847,59,27,0
78.00925,78.195244,56,24,0
78.00925,78.195244,63,29,0
78.00925,78.195244,59,24,0
78.215836,79.04616,59,24,0
79.04616,79.25346,61,31,0
79.25346,79.46078,58,30,0
79.46078,79.66809,59,30,0
79.66809,79.87533,61,31,0
79.87533,80.08365,59,28,0
80.08365,80.18864,58,31,0
78.215836,80.29417,63,29,0
78.215836,80.29417,56,24,0
80.29417,80.483734,63,32,0
80.29417,80.483734,56,27,0
80.29417,80.483734,60,27,0
80.50466,80.6916,63,29,0
80.50466,80.6916,60,24,0
80.50466,80.6916,56,24,0
80.712234,81.54041,63,29,0
80.712234,81.54041,60,24,0
81.54041,82.81859,61,26,0
81.54041,82.81859,65,31,0
80.712234,82.81859,56,24,0
82.81859,83.00642,63,38,0
82.81859,83.00642,60,32,0
82.81859,83.00642,56,32,0
83.0272,83.213196,60,29,0
83.0272,83.213196,56,29,0
83.0272,83.213196,63,35,0
83.23379,84.033455,56,30,0
83.23379,84.033455,60,30,0
84.033455,85.22658,61,33,0
83.23379,85.22658,63,36,0
84.033455,85.22658,58,33,0
84.033455,85.22658,55,33,0
85.22658,85.4128,63,48,0
85.22658,85.4128,56,40,0
85.22658,85.4128,59,40,0
85.43327,85.6156,56,36,0
85.43327,85.6156,63,43,0
85.43327,85.6156,59,36,0
85.63564,86.437454,59,36,0
85.63564,86.437454,63,43,0
86.437454,87.68303,64,46,0
86.437454,87.68303,61,39,0
85.63564,87.68303,56,36,0
87.68303,87.86609,63,48,0
87.68303,87.86609,56,40,0
87.68303,87.86609,59,40,0
87.88633,88.06793,59,36,0
87.88633,88.06793,63,43,0
87.88633,88.06793,56,36,0
88.088036,88.878494,56,36,0
88.088036,88.878494,59,36,0
88.088036,88.878494,63,43,0
88.878494,89.463875,64,43,0
89.463875,90.07484,63,43,0
88.878494,90.07484,55,36,0
88.878494,90.07484,61,36,0
88.878494,90.07484,58,36,0
90.07484,90.667656,56,34,0
90.07484,90.667656,59,34,0
90.07484,90.667656,63,41,0
90.667656,91.27318,47,29,0
90.667656,91.27318,51,29,0
90.667656,91.27318,56,35,0
91.66371,91.8011,57,29,0
91.66371,91.8011,61,29,0
91.27318,91.938484,49,36,0
92.329025,92.465164,58,29,0
92.329025,92.465164,61,29,0
91.938484,92.6013,51,36,0
92.995125,93.799644,56,29,0
92.6013,93.799644,47,41,0
92.995125,93.799644,51,29,0
92.995125,93.799644,59,35,0
94.19018,94.32819,61,29,0
94.19018,94.32819,57,24,0
93.799644,94.46622,49,36,0
94.85675,94.99289,61,29,0
94.85675,94.99289,58,24,0
94.46622,95.129036,51,36,0
95.52286,96.32737,56,29,0
95.129036,96.32737,47,41,0
95.52286,96.32737,51,29,0
95.52286,96.32737,59,35,0
96.7179,96.95195,57,24,0
96.7179,96.95195,61,29,0
96.32737,96.95195,49,36,0
97.4868,98.122665,61,30,0
97.4868,98.122665,58,25,0
96.95195,98.122665,51,35,0
98.122665,98.31599,44,44,0
98.5132,98.66676,59,29,0
98.5132,98.66676,56,24,0
98.82033,99.01365,44,44,0
99.21086,99.36134,61,29,0
99.21086,99.36134,58,24,0
99.511826,99.70515,44,44,0
99.90236,100.05284,59,24,0
99.90236,100.05284,63,29,0
100.20332,100.2569,61,26,0
100.20332,100.2569,58,26,0
100.20332,100.2569,63,31,0
100.41761,100.47215,61,24,0
100.41761,100.47215,63,29,0
100.41761,100.47215,58,24,0
100.635796,100.69523,63,29,0
100.635796,100.69523,56,24,0
100.635796,100.69523,59,24,0
100.87355,101.264084,51,44,0
101.264084,101.41765,58,29,0
101.264084,101.41765,55,24,0
101.571205,101.96175,51,44,0
101.96175,102.10432,59,29,0
101.96175,102.10432,56,24,0
102.24689,102.63742,51,44,0
102.63742,102.7879,61,29,0
102.63742,102.7879,58,24,0
102.938385,102.99177,59,31,0
102.938385,102.99177,51,26,0
102.938385,102.99177,56,26,0
103.15191,103.20646,56,24,0
103.15191,103.20646,51,24,0
103.15191,103.20646,59,29,0
103.370094,103.42953,55,24,0
103.370094,103.42953,58,29,0
103.370094,103.42953,51,24,0
103.60785,103.99838,44,48,0
103.99838,104.15195,59,31,0
103.99838,104.15195,56,26,0
104.30551,104.696045,44,48,0
104.696045,104.84653,61,31,0
104.696045,104.84653,58,26,0
104.99701,105.38754,44,48,0
105.38754,105.52746,63,31,0
105.38754,105.52746,59,26,0
105.667366,105.72132,61,33,0
105.667366,105.72132,54,33,0
105.667366,105.72132,64,40,0
105.883194,105.93794,54,31,0
105.883194,105.93794,61,31,0
105.883194,105.93794,64,37,0
106.10217,106.169014,66,37,0
106.10217,106.169014,58,31,0
106.10217,106.169014,54,31,0
106.76006,106.910545,63,31,0
106.76006,106.910545,59,26,0
106.36953,107.06103,54,48,0
107.06103,107.11479,54,33,0
107.06103,107.11479,61,33,0
107.06103,107.11479,64,40,0
107.276085,107.330826,54,31,0
107.276085,107.330826,61,31,0
107.276085,107.330826,64,37,0
107.49506,107.5545,66,37,0
107.49506,107.5545,54,31,0
107.49506,107.5545,58,31,0
108.12335,108.3537,58,29,0
108.12335,108.3537,63,35,0
107.73282,108.43047,55,69,0
108.821014,109.04674,63,35,0
108.821014,109.04674,59,29,0
108.43047,109.12198,56,68,0
109.12198,109.51251,49,65,0
109.51251,109.738235,64,35,0
109.51251,109.738235,61,29,0
109.81348,109.86743,51,37,0
109.81348,109.86743,59,37,0
109.81348,109.86743,63,46,0
110.029305,110.084045,59,35,0
110.029305,110.084045,51,35,0
110.029305,110.084045,63,42,0
110.24828,110.30772,63,42,0
110.24828,110.30772,58,35,0
110.24828,110.30772,51,35,0
110.87657,111.08644,63,35,0
110.87657,111.08644,58,29,0
110.48604,111.156395,55,69,0
111.54693,111.75978,63,35,0
111.54693,111.75978,59,29,0
111.156395,111.83073,56,68,0
111.83073,112.22126,49,65,0
112.22126,112.44698,61,29,0
112.22126,112.44698,64,35,0
112.522224,112.57599,59,37,0
112.522224,112.57599,63,46,0
112.522224,112.57599,51,37,0
112.73728,112.79222,59,35,0
112.73728,112.79222,51,35,0
112.73728,112.79222,63,42,0
112.95706,113.016495,58,35,0
112.95706,113.016495,63,42,0
112.95706,113.016495,51,35,0
113.19482,113.58535,51,75,0
113.58535,113.8157,61,38,0
113.58535,113.8157,58,31,0
113.89248,114.28301,51,74,0
114.28301,114.508736,59,31,0
114.28301,114.508736,63,38,0
114.58398,114.97451,51,71,0
114.97451,115.20023,61,31,0
114.97451,115.20023,64,38,0
115.275475,115.32963,61,50,0
115.275475,115.32963,58,40,0
115.275475,115.32963,51,40,0
115.49208,115.547226,61,46,0
115.49208,115.547226,51,38,0
115.49208,115.547226,58,38,0
115.71267,115.77211,51,38,0
115.71267,115.77211,55,38,0
115.71267,115.77211,58,46,0
115.950424,116.34096,51,71,0
116.34096,116.54328,64,38,0
116.34096,116.54328,61,31,0
116.61072,116.66487,61,50,0
116.61072,116.66487,51,40,0
116.61072,116.66487,58,40,0
116.827324,116.88207,58,38,0
116.827324,116.88207,61,46,0
116.827324,116.88207,51,38,0
117.0463,117.10844,58,46,0
117.0463,117.10844,55,38,0
117.0463,117.10844,51,38,0
117.29483,117.682594,51,71,0
117.682594,117.87879,61,31,0
117.682594,117.87879,64,38,0
117.94419,118.33013,51,68,0
118.33013,118.521324,64,42,0
118.33013,118.521324,61,35,0
118.58506,118.96831,51,72,0
118.96831,119.15475,64,44,0
118.96831,119.15475,61,36,0
119.216896,119.59926,51,75,0
119.59926,119.80073,61,38,0
119.59926,119.80073,64,46,0
119.86789,120.25833,51,76,0
120.25833,120.484055,64,48,0
120.25833,120.484055,61,39,0
121.76735,122.15788,52,44,0
122.15788,122.31145,64,29,0
122.15788,122.31145,61,24,0
122.465004,122.855545,52,44,0
122.855545,123.00603,61,24,0
122.855545,123.00603,64,29,0
123.15651,123.54704,52,44,0
123.54704,123.697525,61,24,0
123.54704,123.697525,64,29,0
123.84801,123.90157,62,31,0
123.84801,123.90157,59,26,0
123.84801,123.90157,52,26,0
124.062294,124.11684,59,24,0
124.062294,124.11684,52,24,0
124.062294,124.11684,62,29,0
124.28047,124.33991,52,24,0
124.28047,124.33991,61,29,0
124.28047,124.33991,57,24,0
124.51823,124.90876,52,44,0
124.90876,125.062325,59,24,0
124.90876,125.062325,62,29,0
125.21589,125.60642,52,44,0
125.60642,125.74569,62,29,0
125.60642,125.74569,59,24,0
125.88495,126.27549,52,44,0
126.27549,126.42668,59,24,0
126.27549,126.42668,62,29,0
126.57787,126.63145,61,31,0
126.57787,126.63145,57,26,0
126.57787,126.63145,52,26,0
126.79216,126.8467,61,29,0
126.79216,126.8467,57,24,0
126.79216,126.8467,52,24,0
127.010345,127.06978,56,24,0
127.010345,127.06978,59,29,0
127.010345,127.06978,52,24,0
127.2481,127.63863,52,44,0
127.63863,127.7922,64,29,0
127.63863,127.7922,61,24,0
127.94576,128.33629,52,44,0
128.33629,128.48677,64,29,0
128.33629,128.48677,61,24,0
128.63725,129.02779,52,44,0
129.02779,129.17827,61,24,0
129.02779,129.17827,64,29,0
129.32875,129.38232,52,30,0
129.32875,129.38232,59,30,0
129.32875,129.38232,62,37,0
129.54305,129.5976,59,28,0
129.54305,129.5976,62,34,0
129.54305,129.5976,52,28,0
129.76123,129.82066,61,34,0
129.76123,129.82066,52,28,0
129.76123,129.82066,57,28,0
129.99898,130.38951,52,44,0
130.38951,130.54308,59,24,0
130.38951,130.54308,62,29,0
130.69664,131.08717,52,44,0
131.08717,131.23766,59,24,0
131.08717,131.23766,62,29,0
131.38814,131.77867,52,44,0
131.77867,131.92915,62,29,0
131.77867,131.92915,59,24,0
132.07964,132.13321,57,30,0
132.07964,132.13321,52,30,0
132.07964,132.13321,61,37,0
132.29393,132.34846,52,28,0
132.29393,132.34846,61,34,0
132.29393,132.34846,57,28,0
132.5121,132.57155,56,28,0
132.5121,132.57155,59,34,0
132.5121,132.57155,52,28,0
132.74986,133.1404,52,48,0
133.1404,133.26915,57,27,0
133.1404,133.26915,61,33,0
133.3979,133.78844,52,51,0
133.78844,133.91666,56,29,0
133.78844,133.91666,59,35,0
134.04486,134.4354,52,55,0
134.4354,134.56091,57,31,0
134.4354,134.56091,61,37,0
134.68643,135.07697,52,58,0
135.07697,135.22745,59,32,0
135.07697,135.22745,62,39,0
135.37793,135.55417,56,56,0
135.37793,135.55417,63,67,0
135.37793,135.55417,60,56,0
135.37793,135.55417,51,56,0
135.57376,135.75,56,34,0
135.57376,135.75,60,34,0
135.57376,135.75,63,41,0
135.57376,135.75,51,34,0
135.7694,136.55133,56,34,0
135.7694,136.55133,60,34,0
136.55133,137.77913,58,34,0
135.7694,137.77913,63,41,0
135.7694,137.77913,51,34,0
136.55133,137.77913,61,41,0
137.77913,137.95537,56,56,0
137.77913,137.95537,60,56,0
137.77913,137.95537,63,67,0
137.77913,137.95537,51,56,0
137.97496,138.1512,56,34,0
137.97496,138.1512,60,34,0
137.97496,138.1512,63,41,0
137.97496,138.1512,51,34,0
138.1706,138.95253,60,34,0
138.1706,138.95253,56,34,0
138.95253,140.21243,61,41,0
138.1706,140.21243,63,41,0
138.1706,140.21243,51,34,0
138.95253,140.21243,55,34,0
140.21243,140.38867,56,56,0
140.21243,140.38867,51,56,0
140.21243,140.38867,60,56,0
140.21243,140.38867,63,67,0
140.40825,140.58449,56,34,0
140.40825,140.58449,60,34,0
140.40825,140.58449,51,34,0
140.40825,140.58449,63,41,0
140.6039,141.38583,60,34,0
140.6039,141.38583,56,34,0
141.38583,142.19171,61,41,0
140.6039,142.19171,51,34,0
140.6039,142.19171,63,41,0
141.38583,142.19171,55,34,0
142.81088,142.9261,44,56,0
142.91562,143.03084,48,49,0
143.02036,143.13388,51,56,0
143.12366,143.2349,49,54,0
143.22493,143.33443,48,54,0
143.32446,143.43408,46,53,0
143.42409,143.53395,44,52,0
143.52396,143.63406,43,52,0
143.62404,143.73427,41,51,0
143.72424,143.83481,39,50,0
143.82475,143.93547,37,49,0
143.92538,144.03635,36,48,0
144.02625,144.13742,34,48,0
144.1273,144.23865,32,47,0
144.22852,144.3405,31,46,0
144.3303,144.44232,32,45,0
144.43216,144.54387,34,44,0
144.53372,144.64522,36,46,0
144.6351,144.74643,37,47,0
144.73631,144.8473,39,48,0
144.83722,144.94806,41,48,0
144.938,145.04858,43,49,0
145.03853,145.14888,44,50,0
145.13885,145.24904,46,51,0
145.23904,145.34889,48,52,0
145.33891,145.4486,49,52,0
145.43864,145.54814,51,53,0
145.53818,145.64738,53,54,0
145.63747,145.7465,55,56,0
145.73662,145.84538,56,56,0
145.8355,145.94406,58,58,0
145.9342,146.04262,60,59,0
146.03276,146.14085,61,60,0
146.13103,146.23885,63,62,0
146.22911,146.33615,65,63,0
146.3264,146.43379,63,63,0
146.424,146.53174,61,61,0
146.52191,146.63002,60,60,0
146.62016,146.7286,58,58,0
146.71872,146.82753,56,56,0
146.81761,146.92677,55,55,0
146.91682,147.02635,53,53,0
147.01637,147.12639,51,52,0
147.11633,147.22777,49,50,0
147.21759,147.33055,48,48,0
147.32022,147.43475,46,47,0
147.42429,147.63377,44,49,0
147.63377,147.749,56,39,0
147.73853,147.85373,60,34,0
147.84326,147.95677,63,39,0
147.94655,148.05779,61,37,0
148.04784,148.15732,60,37,0
148.14737,148.25697,58,37,0
148.247,148.35684,56,36,0
148.34686,148.45697,55,36,0
148.44695,148.55716,53,35,0
148.54715,148.6577,51,35,0
148.64764,148.75836,49,34,0
148.74828,148.85924,48,33,0
148.84915,148.96033,46,33,0
148.95021,149.06154,44,32,0
149.05142,149.16339,43,32,0
149.15321,149.26521,44,31,0
149.25507,149.36678,46,30,0
149.35661,149.46811,48,32,0
149.458,149.56934,49,32,0
149.5592,149.6702,51,33,0
149.66011,149.77095,53,33,0
149.7609,149.87149,55,34,0
149.86143,149.97177,56,35,0
149.96175,150.07193,58,35,0
150.06195,150.1718,60,36,0
150.1618,150.2715,61,36,0
150.26155,150.37103,63,37,0
150.36108,150.47028,65,37,0
150.46036,150.56941,67,39,0
150.55952,150.66829,68,39,0
150.6584,150.76697,70,40,0
150.75711,150.86551,72,41,0
150.85567,150.96375,73,42,0
150.95392,151.06174,75,43,0
151.05202,151.15906,77,44,0
151.14929,151.25668,75,44,0
151.2469,151.35464,73,42,0
151.34482,151.45291,72,42,0
151.44305,151.55151,70,40,0
151.54161,151.65042,68,39,0
151.6405,151.74968,67,38,0
151.73972,151.84924,65,37,0
151.83926,151.94928,63,36,0
151.93922,152.05067,61,35,0
152.04048,152.15344,60,33,0
152.14311,152.25766,58,32,0
152.24718,152.45668,56,34,0
152.45668,152.57188,56,56,0
152.56142,152.67664,59,49,0
152.66615,152.77968,63,56,0
152.76945,152.88068,61,54,0
152.87073,152.98022,59,54,0
152.97026,153.07988,58,53,0
153.06989,153.17975,56,52,0
153.16975,153.27986,54,52,0
153.26984,153.38007,52,51,0
153.37004,153.4806,51,50,0
153.47055,153.58127,49,49,0
153.57117,153.68213,47,48,0
153.67204,153.78322,46,48,0
153.7731,153.88443,44,47,0
153.87431,153.9863,43,46,0
153.9761,154.08812,44,45,0
154.07796,154.18967,46,44,0
154.17952,154.29102,47,46,0
154.28088,154.39223,49,47,0
154.38211,154.4931,51,48,0
154.48302,154.59384,53,48,0
154.5838,154.69438,55,49,0
154.68433,154.79466,56,50,0
154.78465,154.89482,58,55,0
154.88484,154.99469,59,56,0
154.98471,155.09439,61,57,0
155.08444,155.19394,63,59,0
155.18398,155.29318,65,60,0
155.28326,155.3923,67,62,0
155.38242,155.49118,68,60,0
155.4813,155.58986,70,63,0
155.58,155.68842,71,65,0
155.67856,155.78665,73,68,0
155.77682,155.88464,75,71,0
155.87491,155.98195,76,73,0
155.9722,156.07959,74,74,0
156.0698,156.17754,73,73,0
156.16771,156.2758,71,72,0
156.26596,156.3744,69,70,0
156.36452,156.47333,68,69,0
156.46341,156.57257,66,68,0
156.56262,156.67215,64,66,0
156.66216,156.77219,62,65,0
156.76213,156.87357,61,64,0
156.86337,156.97635,59,62,0
156.96602,157.08,57,61,0
157.07008,157.17924,56,60,0
157.1693,157.27882,54,58,0
157.26883,157.37886,52,57,0
157.3688,157.48024,50,56,0
157.47005,157.58302,49,54,0
157.5727,157.68668,47,53,0
157.67674,157.78592,45,58,0
157.77597,157.8855,44,60,0
157.8755,157.98553,42,62,0
157.97548,158.08691,40,64,0
158.07672,158.15271,38,66,0
158.14584,158.22168,37,67,0
158.21388,158.28342,35,68,0
158.28342,158.88345,33,66,0
158.88345,159.48276,45,66,0
158.88345,159.48276,33,56,0
159.48276,160.07991,33,52,0
159.48276,160.07991,45,62,0
160.07991,160.67511,33,52,0
160.07991,160.67511,45,62,0
160.67511,161.27084,45,64,0
160.67511,161.27084,33,54,0
161.27084,161.86871,45,54,0
161.27084,161.86871,52,64,0
161.27084,161.86871,49,54,0
161.86871,162.47067,45,54,0
161.86871,162.47067,57,64,0
161.86871,162.47067,52,54,0
161.86871,162.47067,49,54,0
162.47067,163.06686,59,51,0
162.47067,163.06686,56,43,0
162.47067,163.06686,52,43,0
163.45572,163.55939,60,34,0
163.45572,163.55939,56,28,0
163.06686,163.66306,51,43,0
164.04639,164.14897,60,28,0
164.04639,164.14897,63,34,0
163.66306,164.25157,51,43,0
164.63704,164.73999,61,34,0
164.63704,164.73999,58,28,0
164.25157,164.84294,51,43,0
165.23181,165.33441,58,34,0
165.23181,165.33441,55,28,0
164.84294,165.43701,51,43,0
165.82755,165.93121,60,34,0
165.82755,165.93121,56,28,0
165.43701,166.03487,51,43,0
166.41602,166.51897,63,34,0
166.41602,166.51897,60,28,0
166.03487,166.62192,51,43,0
167.00249,167.10475,58,37,0
167.00249,167.10475,61,44,0
166.62192,167.207,51,56,0
167.59181,167.69511,58,44,0
167.59181,167.69511,55,37,0
167.207,167.79842,51,56,0
168.18895,168.29262,56,37,0
168.18895,168.29262,60,44,0
167.79842,168.40482,51,56,0
168.79335,168.89702,60,44,0
168.79335,168.89702,57,37,0
168.79335,168.89702,54,37,0
168.79335,168.89702,51,37,0
168.40482,169.00067,48,56,0
169.38484,169.48572,61,44,0
169.38484,169.48572,58,37,0
169.38484,169.48572,53,37,0
169.00067,169.5866,49,56,0
169.97713,170.0808,58,44,0
169.97713,170.0808,55,37,0
169.5866,170.2169,51,56,0
170.2169,170.60744,40,40,0
170.60744,170.7111,55,27,0
170.60744,170.7111,60,32,0
170.60744,170.7111,52,27,0
170.81477,171.2053,40,40,0
171.2053,171.30756,52,27,0
171.2053,171.30756,55,27,0
171.2053,171.30756,60,32,0
171.4098,171.79553,40,40,0
171.79553,171.8992,55,27,0
171.79553,171.8992,52,27,0
171.79553,171.8992,60,32,0
172.00285,172.39339,40,40,0
172.39339,172.49706,60,32,0
172.39339,172.49706,52,27,0
172.39339,172.49706,55,27,0
172.60072,172.99219,39,43,0
172.99219,173.77412,56,27,0
172.99219,173.77412,60,27,0
173.77412,175.00192,58,27,0
173.77412,175.00192,61,32,0
172.99219,175.00192,51,27,0
175.00192,175.19524,40,48,0
175.39246,175.49611,55,32,0
175.39246,175.49611,52,32,0
175.39246,175.49611,60,38,0
175.59978,175.7931,40,48,0
175.99031,176.09256,60,38,0
175.99031,176.09256,52,32,0
175.99031,176.09256,55,32,0
176.19481,176.38626,40,48,0
176.58054,176.6842,55,32,0
176.58054,176.6842,52,32,0
176.58054,176.6842,60,38,0
176.78787,176.98119,40,48,0
177.1784,177.28206,55,32,0
177.1784,177.28206,52,32,0
177.1784,177.28206,60,38,0
177.38573,177.58154,39,51,0
177.77719,178.55913,60,32,0
177.77719,178.55913,56,32,0
178.55913,179.78693,61,38,0
178.55913,179.78693,55,32,0
177.77719,179.78693,51,32,0
179.78693,180.17746,40,57,0
180.17746,180.28113,55,38,0
180.17746,180.28113,60,45,0
180.17746,180.28113,52,38,0
180.38478,180.77533,40,57,0
180.77533,180.87758,52,38,0
180.77533,180.87758,60,45,0
180.77533,180.87758,55,38,0
180.97983,181.36555,40,57,0
181.36555,181.46921,55,38,0
181.36555,181.46921,52,38,0
181.36555,181.46921,60,45,0
181.57288,181.96341,40,57,0
181.96341,182.06708,55,38,0
181.96341,182.06708,52,38,0
181.96341,182.06708,60,45,0
182.17073,182.5622,43,61,0
182.5622,183.34413,55,38,0
182.5622,183.34413,52,38,0
182.5622,183.34413,60,38,0
183.34413,184.57193,55,38,0
183.34413,184.57193,59,45,0
183.34413,184.57193,53,38,0
184.57193,184.76776,39,67,0
184.9634,185.74533,56,51,0
184.9634,185.74533,60,61,0
185.74533,186.75523,58,51,0
185.74533,186.75523,61,61,0
184.9634,186.75523,51,51,0
185.74533,186.9609,55,51,0
186.9609,187.17038,44,83,0
187.17038,187.2856,56,61,0
187.27513,187.39034,60,53,0
187.37987,187.49338,63,61,0
187.48315,187.59439,61,59,0
187.58444,187.69392,60,59,0
187.68398,187.79358,58,58,0
187.7836,187.89345,56,57,0
187.88347,187.99358,55,57,0
187.98355,188.09377,53,56,0
188.08376,188.1943,51,55,0
188.18425,188.29497,49,53,0
188.28488,188.39584,48,52,0
188.38576,188.49693,46,52,0
188.48682,188.59814,44,51,0
188.58803,188.7,43,50,0
188.68982,188.80182,41,49,0
188.79167,188.90338,39,48,0
188.89322,189.00471,41,50,0
188.9946,189.10594,39,53,0
189.09581,189.2068,37,55,0
189.19672,189.30756,36,57,0
189.2975,189.4075,34,59,0
189.39804,189.49268,32,62,0
189.49268,189.5873,36,53,0
189.5873,189.68193,32,62,0
189.68193,189.77997,36,52,0
189.77997,189.88472,39,58,0
189.98946,190.0835,32,62,0
190.0835,190.17754,36,53,0
190.17754,190.27158,32,62,0
190.27158,190.36961,36,52,0
190.36961,190.47437,39,58,0
190.5791,190.67345,32,62,0
190.67345,190.76778,36,53,0
190.76778,190.8621,32,62,0
190.8621,190.95982,36,52,0
190.95982,191.06458,39,58,0
191.16931,191.26366,32,62,0
191.26366,191.35799,36,53,0
191.35799,191.45232,32,62,0
191.45232,191.55003,36,52,0
191.55003,191.65479,39,58,0
191.75954,191.94939,32,55,0
194.82079,194.928,58,45,0
194.91821,195.0257,56,45,0
195.01593,195.12364,55,44,0
195.11385,195.22174,53,44,0
195.21191,195.3201,51,43,0
195.31026,195.41864,49,43,0
195.40877,195.51735,48,42,0
195.50745,195.61635,46,41,0
195.60645,195.71555,44,41,0
195.70561,195.8149,43,40,0
195.80495,195.91512,44,40,0
195.90509,196.01517,46,40,0
196.00517,196.1148,48,41,0
196.10487,196.21411,49,41,0
196.20421,196.31305,51,42,0
196.30319,196.41162,53,43,0
196.4018,196.50983,55,44,0
196.50003,196.60771,56,45,0
196.59795,196.69551,58,46,0
197.67238,197.76613,43,70,0
197.76613,197.85988,46,55,0
197.85988,197.95361,43,65,0
197.95361,198.04736,46,56,0
198.04736,198.14476,49,65,0
198.24216,198.3362,43,71,0
198.3362,198.43024,46,54,0
198.43024,198.52426,43,63,0
198.52426,198.6183,46,54,0
198.6183,198.71402,49,66,0
198.80974,198.90408,43,71,0
198.90408,198.99841,46,62,0
198.99841,199.09274,43,66,0
199.09274,199.18707,46,54,0
199.18707,199.28511,49,65,0
203.51971,203.61346,55,70,0
203.61346,203.7072,58,55,0
203.7072,203.80095,55,65,0
203.80095,203.8947,58,56,0
203.8947,203.99011,61,65,0
204.08553,204.17957,55,71,0
204.17957,204.2736,58,54,0
204.2736,204.36763,55,63,0
204.36763,204.46167,58,54,0
204.46167,204.56255,61,66,0
204.6634,204.75774,55,71,0
204.75774,204.85208,58,62,0
204.85208,204.94641,55,66,0
204.94641,205.04074,58,54,0
205.04074,205.13878,61,65,0
208.15211,208.24586,64,42,0
208.24586,208.33961,67,33,0
208.33961,208.43335,64,39,0
208.43335,208.5271,67,33,0
208.5271,208.6245,70,39,0
208.7219,208.81593,64,42,0
208.81593,208.90997,67,32,0
208.90997,209.004,64,37,0
209.004,209.09804,67,32,0
209.09804,209.19513,70,39,0
212.20181,212.29555,72,42,0
212.29555,212.3893,79,33,0
212.3893,212.48303,72,39,0
212.48303,212.57678,79,33,0
212.57678,212.67418,82,39,0
212.77158,212.86433,72,42,0
212.86433,212.95709,79,32,0
212.95709,213.04985,72,37,0
213.04985,213.14261,79,32,0
213.14261,213.23969,82,39,0
214.50174,214.59727,60,35,0
214.59727,214.69281,68,28,0
214.69281,214.78835,60,33,0
214.78835,214.88388,68,28,0
214.88388,214.98592,71,33,0
215.08795,215.18187,60,35,0
215.18187,215.27579,68,27,0
215.27579,215.36972,60,31,0
215.36972,215.46364,68,27,0
215.46364,215.56497,71,33,0
216.89503,216.99992,48,28,0
216.99992,217.10481,55,22,0
217.10481,217.2097,48,26,0
217.2097,217.31459,55,22,0
217.31459,217.53764,60,26,0
217.53764,217.65096,48,28,0
217.65096,217.76813,55,21,0
217.76813,217.88907,48,24,0
217.88907,218.01405,55,21,0
218.01405,219.56766,60,26,0
220.88937,220.94249,48,47,0
221.10654,221.16042,60,39,0
221.32564,221.38132,48,47,0
221.54834,221.60242,60,39,0
221.76866,221.82475,48,47,0
221.99303,222.04985,60,43,0
222.2203,222.2736,48,29,0
222.2203,222.2736,52,35,0
222.44385,222.499,60,30,0
222.66443,222.7207,48,25,0
222.66443,222.7207,52,30,0
222.89224,222.94853,60,35,0
223.11739,223.17253,48,26,0
223.11739,223.17253,52,31,0
223.33795,223.3931,60,31,0
223.56085,223.61397,53,35,0
223.56085,223.61397,49,29,0
223.78384,223.83899,60,30,0
224.00441,224.0607,49,25,0
224.00441,224.0607,53,30,0
224.23224,224.28853,60,35,0
224.45738,224.51251,53,31,0
224.45738,224.51251,49,26,0
224.67795,224.7331,60,31,0
224.90338,224.95528,52,29,0
224.90338,224.95528,55,35,0
225.12273,225.17787,60,30,0
225.3433,225.39958,55,30,0
225.3433,225.39958,52,25,0
225.57112,225.62764,53,29,0
225.57112,225.62764,56,35,0
225.80432,225.85947,60,30,0
226.0249,226.08119,56,30,0
226.0249,226.08119,53,25,0
226.25005,226.30685,55,28,0
226.25005,226.30685,58,33,0
226.47787,226.53514,60,36,0
226.47787,226.53514,58,30,0
226.47787,226.53514,55,30,0
226.7079,226.76582,58,34,0
226.7079,226.76582,61,40,0
226.7079,226.76582,55,34,0
226.94037,226.99887,62,43,0
226.94037,226.99887,58,36,0
226.94037,226.99887,55,36,0
227.17616,227.23618,58,34,0
227.17616,227.23618,55,34,0
227.17616,227.23618,63,40,0
227.419,227.48886,58,32,0
227.419,227.48886,64,38,0
227.419,227.48886,55,32,0
227.69817,227.75279,53,35,0
227.92357,227.97687,56,25,0
227.92357,227.97687,65,30,0
227.92357,227.97687,60,25,0
228.13675,228.19116,53,30,0
228.35696,228.41136,56,29,0
228.35696,228.41136,65,35,0
228.35696,228.41136,60,29,0
228.57457,228.62787,53,31,0
228.78777,228.84105,56,26,0
228.78777,228.84105,60,26,0
228.78777,228.84105,65,31,0
229.02829,229.08206,53,35,0
229.24335,229.29597,56,26,0
229.24335,229.29597,59,26,0
229.24335,229.29597,62,31,0
229.45387,229.50829,53,31,0
229.67586,229.73766,48,35,0
229.92307,229.97702,55,27,0
229.92307,229.97702,52,27,0
229.92307,229.97702,60,32,0
230.13889,230.19284,48,32,0
230.3642,230.41771,52,29,0
230.3642,230.41771,55,29,0
230.3642,230.41771,60,35,0
230.57826,230.63177,48,31,0
230.79233,230.84586,60,31,0
230.79233,230.84586,52,26,0
230.79233,230.84586,55,26,0
231.00641,231.05992,49,35,0
231.22047,231.27293,61,31,0
231.22047,231.27293,53,26,0
231.43028,231.48273,49,31,0
231.6477,231.86177,46,35,0
231.86177,232.07585,58,33,0
231.86177,232.07585,55,28,0
232.07585,232.18033,55,28,0
232.07585,232.18033,58,33,0
232.07585,232.18033,48,28,0
232.2896,232.7056,56,40,0
232.2896,232.7056,53,34,0
232.91373,232.96835,53,35,0
233.13828,233.19157,65,30,0
233.13828,233.19157,56,25,0
233.13828,233.19157,60,25,0
233.35147,233.40564,53,30,0
233.57338,233.6254,60,29,0
233.57338,233.6254,56,29,0
233.57338,233.6254,65,35,0
233.78793,233.84145,53,31,0
234.002,234.05551,65,31,0
234.002,234.05551,60,26,0
234.002,234.05551,56,26,0
234.22346,234.27788,53,35,0
234.43974,234.49261,56,26,0
234.43974,234.49261,62,31,0
234.43974,234.49261,59,26,0
234.65123,234.7041,53,31,0
234.86862,234.93042,48,35,0
235.11583,235.16978,55,27,0
235.11583,235.16978,60,32,0
235.11583,235.16978,52,27,0
235.33165,235.3856,48,32,0
235.5587,235.61052,55,29,0
235.5587,235.61052,60,35,0
235.5587,235.61052,52,29,0
235.76933,235.82283,48,31,0
235.98329,236.03679,55,26,0
235.98329,236.03679,52,26,0
235.98329,236.03679,60,31,0
236.19727,236.25076,49,35,0
236.41122,236.46368,53,26,0
236.41122,236.46368,61,31,0
236.62103,236.6735,49,31,0
236.83565,237.04971,46,35,0
237.04971,237.2612,55,28,0
237.04971,237.2612,58,33,0
237.2612,237.47495,58,33,0
237.2612,237.47495,48,28,0
237.2612,237.47495,55,28,0
237.47495,237.89456,53,34,0
237.47495,237.89456,56,40,0
238.10889,238.15881,36,60,0
238.31099,238.3621,48,55,0
238.51982,238.56943,36,60,0
238.72127,238.77238,48,53,0
238.92926,238.98048,36,60,0
239.13416,239.18538,48,52,0
239.3432,239.39566,36,49,0
239.55301,239.60423,48,43,0
239.75792,239.80914,36,43,0
239.96281,240.01445,48,43,0
240.16931,240.22218,36,41,0
240.38081,240.43369,48,43,0
240.5923,240.64223,36,60,0
240.7951,240.84657,48,55,0
241.01044,241.21535,36,60,0
241.21535,241.42354,37,60,0
241.42354,241.47476,49,49,0
241.62845,241.67967,37,57,0
241.8375,241.88994,36,49,0
242.0473,242.09853,48,43,0
242.2522,242.30344,36,43,0
242.4571,242.6636,41,43,0
243.08322,243.13315,48,60,0
243.28532,243.33644,60,55,0
243.49416,243.5436,48,60,0
243.69527,243.7464,60,53,0
243.90326,243.95448,48,60,0
244.10817,244.1594,60,52,0
244.31721,244.36966,59,49,0
244.52701,244.57825,47,43,0
244.73192,244.78314,59,43,0
244.93683,244.98845,60,43,0
245.14333,245.1962,48,41,0
245.35481,245.40768,60,43,0
245.5663,245.6159,48,60,0
245.76775,245.81886,60,55,0
245.97658,246.18149,48,60,0
246.18149,246.38968,49,60,0
246.38968,246.4409,61,49,0
246.59459,246.64581,49,57,0
246.80363,246.85608,61,49,0
247.01344,247.06467,49,43,0
247.21834,247.26956,61,43,0
247.42325,247.52649,49,43,0
247.62975,247.73549,61,43,0
247.84123,247.94698,49,43,0
248.05273,248.15762,61,43,0
248.26253,248.36743,49,43,0
248.47234,248.57724,61,44,0
248.68214,248.7858,49,45,0
248.88947,248.99313,61,50,0
249.09679,249.20045,49,51,0
249.3088,249.41248,48,51,0
249.51613,249.6198,60,53,0
249.72345,249.82712,48,57,0
249.93776,250.05959,53,60,0
250.18143,251.21924,58,51,0
250.18143,251.21924,53,51,0
250.18143,251.21924,64,61,0
250.18143,251.21924,61,51,0
251.21924,251.32373,56,52,0
251.21924,251.32373,60,52,0
251.21924,251.32373,53,52,0
251.21924,251.32373,65,62,0
251.4282,252.47684,64,61,0
251.4282,252.47684,61,51,0
251.4282,252.47684,53,51,0
251.4282,252.47684,58,51,0
252.47684,252.58133,60,52,0
252.47684,252.58133,56,52,0
252.47684,252.58133,53,52,0
252.47684,252.58133,65,62,0
252.6858,253.74947,61,51,0
252.6858,253.74947,64,61,0
252.6858,253.74947,58,51,0
252.6858,253.74947,53,51,0
253.74947,253.86015,56,52,0
253.74947,253.86015,60,52,0
253.74947,253.86015,53,52,0
253.74947,253.86015,65,62,0
253.97083,255.69849,58,51,0
253.97083,255.69849,61,51,0
253.97083,255.69849,64,61,0
253.97083,255.69849,53,51,0
255.69849,255.75311,53,35,0
255.92389,255.97719,65,30,0
255.92389,255.97719,60,25,0
255.92389,255.97719,56,25,0
256.1371,256.1915,53,30,0
256.3573,256.41168,56,29,0
256.3573,256.41168,60,29,0
256.3573,256.41168,65,35,0
256.5749,256.6282,53,31,0
256.7881,256.84137,60,26,0
256.7881,256.84137,56,26,0
256.7881,256.84137,65,31,0
257.01038,257.0648,53,35,0
257.228,257.2817,56,26,0
257.228,257.2817,59,26,0
257.228,257.2817,62,31,0
257.4429,257.4973,53,31,0
257.6649,257.72668,48,35,0
257.9121,257.96606,55,27,0
257.9121,257.96606,60,32,0
257.9121,257.96606,52,27,0
258.12793,258.1819,48,32,0
258.35275,258.40457,55,29,0
258.35275,258.40457,52,29,0
258.35275,258.40457,60,35,0
258.56415,258.61804,48,31,0
258.77966,258.83353,55,26,0
258.77966,258.83353,52,26,0
258.77966,258.83353,60,31,0
258.99518,259.04904,49,35,0
259.21066,259.26312,53,26,0
259.21066,259.26312,61,31,0
259.42047,259.47293,49,31,0
259.63953,259.8536,46,35,0
259.8536,260.0677,55,28,0
259.8536,260.0677,58,33,0
260.0677,260.17218,55,28,0
260.0677,260.17218,58,33,0
260.0677,260.17218,48,28,0
260.28143,260.69745,53,34,0
260.28143,260.69745,56,40,0
260.90555,260.96017,53,35,0
261.13013,261.1834,60,25,0
261.13013,261.1834,56,25,0
261.13013,261.1834,65,30,0
261.3433,261.3975,53,30,0
261.5643,261.61868,60,29,0
261.5643,261.61868,56,29,0
261.5643,261.61868,65,35,0
261.7819,261.83542,53,31,0
261.99597,262.0495,56,26,0
261.99597,262.0495,60,26,0
261.99597,262.0495,65,31,0
262.21478,262.2692,53,35,0
262.43106,262.48392,59,26,0
262.43106,262.48392,56,26,0
262.43106,262.48392,62,31,0
262.64255,262.6954,53,31,0
262.85992,262.92172,48,35,0
263.10715,263.1611,60,32,0
263.10715,263.1611,52,27,0
263.10715,263.1611,55,27,0
263.32297,263.37692,48,32,0
263.55002,263.60095,60,35,0
263.55002,263.60095,55,29,0
263.55002,263.60095,52,29,0
263.75616,263.80945,48,31,0
263.96936,264.02264,60,31,0
263.96936,264.02264,55,26,0
263.96936,264.02264,52,26,0
264.18256,264.23587,49,35,0
264.39575,264.4482,61,31,0
264.39575,264.4482,53,26,0
264.60556,264.65802,49,31,0
264.8202,264.87146,50,35,0
265.02936,265.08267,58,31,0
265.02936,265.08267,62,31,0
265.24258,265.29587,50,31,0
265.45578,265.5091,51,39,0
265.66898,265.72144,63,33,0
265.66898,265.72144,58,33,0
265.87878,265.93124,51,33,0
266.09338,266.144,48,41,0
266.29898,266.35117,60,32,0
266.50995,266.5622,48,31,0
266.71893,266.7697,47,40,0
266.92487,266.97705,59,36,0
267.1367,267.18872,47,36,0
267.34485,267.39667,46,51,0
267.55554,267.60757,62,43,0
267.55554,267.60757,58,36,0
267.55554,267.60757,53,36,0
267.7671,267.81912,46,57,0
267.97775,268.02896,58,39,0
267.97775,268.02896,62,46,0
267.97775,268.02896,53,39,0
268.18594,268.23697,46,55,0
268.3925,268.44272,62,48,0
268.3925,268.44272,58,40,0
268.3925,268.44272,53,40,0
268.59915,268.64978,46,61,0
268.8017,268.85233,63,47,0
268.8017,268.85233,57,39,0
268.8017,268.85233,54,39,0
269.0042,269.05484,46,60,0
269.20676,269.2574,54,48,0
269.20676,269.2574,63,57,0
269.20676,269.2574,57,48,0
269.4093,269.45993,46,46,0
269.61185,269.66248,54,38,0
269.61185,269.66248,57,38,0
269.61185,269.66248,63,45,0
269.81436,269.8662,46,51,0
270.0251,270.07712,62,43,0
270.0251,270.07712,53,36,0
270.0251,270.07712,58,36,0
270.2366,270.28864,46,57,0
270.44727,270.4985,53,39,0
270.44727,270.4985,58,39,0
270.44727,270.4985,62,46,0
270.6555,270.7065,46,55,0
270.86203,270.91226,62,48,0
270.86203,270.91226,53,40,0
270.86203,270.91226,58,40,0
271.06866,271.1181,46,61,0
271.26642,271.31702,63,47,0
271.26642,271.31702,54,39,0
271.26642,271.31702,57,39,0
271.46884,271.51944,46,60,0
271.67126,271.7219,63,57,0
271.67126,271.7219,57,48,0
271.67126,271.7219,54,48,0
271.87378,271.92474,46,46,0
272.07758,272.12854,63,45,0
272.07758,272.12854,54,38,0
272.07758,272.12854,57,38,0
272.28137,272.3332,46,51,0
272.49207,272.5441,62,43,0
272.49207,272.5441,58,36,0
272.49207,272.5441,53,36,0
272.7036,272.75565,44,57,0
272.91428,272.9655,56,46,0
273.12247,273.1735,43,55,0
273.329,273.37927,55,48,0
273.53568,273.5875,48,51,0
273.74637,273.7984,60,43,0
273.95792,274.00995,46,57,0
274.16858,274.21982,58,46,0
274.37677,274.4278,43,55,0
274.5833,274.63358,55,48,0
274.78998,274.8418,44,57,0
275.00067,275.0527,56,49,0
275.21222,275.26425,34,57,0
275.42288,275.47412,46,46,0
275.63107,275.6821,36,64,0
275.83762,275.88788,48,58,0
276.04428,276.1497,41,65,0
276.04428,276.1497,29,58,0
276.25513,277.29785,58,51,0
276.25513,277.29785,61,51,0
276.25513,277.29785,53,51,0
276.25513,277.29785,64,61,0
277.29785,277.40234,65,62,0
277.29785,277.40234,56,52,0
277.29785,277.40234,60,52,0
277.29785,277.40234,53,52,0
277.50693,278.5495,61,51,0
277.50693,278.5495,58,51,0
277.50693,278.5495,53,51,0
277.50693,278.5495,64,61,0
278.5495,278.654,53,52,0
278.5495,278.654,60,52,0
278.5495,278.654,56,52,0
278.5495,278.654,65,62,0
278.75845,279.8261,61,51,0
278.75845,279.8261,64,61,0
278.75845,279.8261,58,51,0
278.75845,279.8261,53,51,0
279.8261,279.93622,60,52,0
279.8261,279.93622,56,52,0
279.8261,279.93622,65,62,0
279.8261,279.93622,53,52,0
280.04733,281.2705,61,51,0
280.04733,281.2705,58,51,0
280.04733,281.2705,64,61,0
280.04733,281.2705,53,51,0
281.2705,281.31488,56,61,0
281.2705,281.31488,53,61,0
281.2705,281.31488,60,72,0
285.5214,287.6537,37,35,0
285.5214,287.6537,49,35,0
285.5214,287.6537,44,35,0
287.6537,289.77393,48,35,0
287.6537,289.77393,44,35,0
287.6537,289.77393,36,35,0
289.77393,291.88272,49,35,0
289.77393,291.88272,37,35,0
289.77393,291.88272,44,35,0
291.88272,292.40375,44,35,0
292.40375,292.93298,45,41,0
292.93298,293.99152,44,35,0
291.88272,293.99152,36,35,0
291.88272,293.99152,48,35,0
293.99152,294.51584,44,35,0
294.51584,295.04504,46,43,0
295.04504,296.1036,44,35,0
293.99152,296.1036,49,35,0
293.99152,296.1036,37,35,0
296.1036,296.62415,41,35,0
296.62415,297.15335,42,41,0
297.15335,298.21188,41,35,0
296.1036,298.21188,48,35,0
296.1036,298.21188,36,35,0
298.21188,298.7358,41,35,0
298.7358,299.26505,42,42,0
299.26505,300.32358,41,35,0
298.21188,300.32358,34,35,0
298.21188,300.32358,46,35,0
300.32358,301.37482,58,35,0
300.32358,301.37482,46,35,0
301.37482,302.42844,56,35,0
301.37482,302.42844,44,35,0
302.42844,304.54123,38,44,0
302.42844,304.54123,50,44,0
304.54123,305.59436,40,35,0
304.54123,305.59436,52,35,0
305.59436,306.648,41,35,0
305.59436,306.648,53,35,0
306.648,308.76508,35,44,0
306.648,308.76508,47,44,0
308.76508,310.87735,48,36,0
308.76508,310.87735,36,36,0
310.87735,312.4584,34,36,0
310.87735,312.4584,46,36,0
312.4584,312.99014,35,31,0
312.4584,312.99014,47,31,0
312.99014,315.1029,48,36,0
312.99014,315.1029,36,36,0
315.1029,317.258,48,36,0
315.1029,317.258,36,36,0
318.43216,318.59933,41,80,0
318.59933,318.76865,53,71,0
318.76865,318.81146,41,71,0
318.93994,319.10666,44,80,0
319.10666,319.27502,56,75,0
319.27502,319.31784,44,80,0
319.44632,319.61328,48,80,0
319.61328,319.7821,60,74,0
319.7821,319.82504,48,74,0
319.9539,320.1179,43,80,0
320.1179,320.2839,55,71,0
320.2839,320.32635,43,71,0
320.45377,320.61798,46,80,0
320.61798,320.7849,58,75,0
320.7849,320.82748,46,80,0
320.95523,321.1199,41,80,0
321.1199,321.28638,53,74,0
321.28638,321.3297,41,74,0
321.45966,321.62686,36,80,0
321.62686,321.79565,48,71,0
321.79565,321.8385,36,71,0
321.96698,322.13336,36,80,0
322.13336,322.30215,48,75,0
322.30215,322.3455,36,80,0
322.47546,322.64148,41,80,0
322.64148,322.80887,53,74,0
322.80887,322.85184,41,74,0
322.98068,323.14658,37,80,0
323.14658,323.31494,49,71,0
323.31494,323.358,37,71,0
323.4872,323.6528,32,80,0
323.6528,323.8202,44,75,0
323.8202,323.86316,32,80,0
323.992,324.15884,39,80,0
324.15884,324.32764,51,74,0
324.32764,324.37097,39,74,0
324.50095,324.66907,34,80,0
324.66907,324.83835,46,71,0
324.83835,324.88165,34,71,0
325.01163,325.18005,37,80,0
325.18005,325.34848,49,75,0
325.34848,325.3918,37,80,0
325.5218,325.68973,36,80,0
325.68973,325.8577,48,74,0
325.8577,325.90076,36,74,0
326.02997,326.19748,36,80,0
326.19748,326.36496,48,74,0
326.36496,326.4101,36,74,0
326.54553,326.71783,53,80,0
326.71783,326.80087,65,63,0
326.80087,326.88394,53,54,0
326.88394,326.92856,65,71,0
327.06238,327.2337,49,80,0
327.2337,327.31604,61,67,0
327.31604,327.3984,49,57,0
327.3984,327.4421,61,80,0
327.5732,327.74213,44,80,0
327.74213,327.82382,56,66,0
327.82382,327.9055,44,56,0
327.9055,327.94858,56,74,0
328.0778,328.2467,51,80,0
328.2467,328.32883,63,63,0
328.32883,328.41098,51,56,0
328.41098,328.4544,63,71,0
328.58478,328.7546,46,80,0
328.7546,328.83698,58,67,0
328.83698,328.91934,46,59,0
328.91934,328.96317,58,80,0
329.09467,329.26453,49,80,0
329.26453,329.34756,61,66,0
329.34756,329.4306,49,59,0
329.4306,329.47406,61,74,0
329.6044,329.77377,48,80,0
329.77377,329.85498,60,63,0
329.85498,329.9362,48,54,0
329.9362,329.97928,60,71,0
330.1085,330.27692,48,80,0
330.27692,330.3595,60,67,0
330.3595,330.4421,48,59,0
330.4421,330.48517,60,80,0
330.61438,330.7828,48,80,0
330.7828,330.86426,60,66,0
330.86426,330.94568,48,58,0
330.94568,330.98874,60,75,0
331.11798,331.2864,48,83,0
331.2864,331.3683,60,66,0
331.3683,331.45013,48,58,0
331.45013,331.4937,60,75,0
331.62445,331.79477,48,86,0
331.79477,331.87738,60,73,0
331.87738,331.95996,48,64,0
331.95996,332.0047,60,88,0
332.13895,332.31122,48,89,0
332.31122,332.39474,60,74,0
332.39474,332.47824,48,64,0
332.47824,332.52274,60,84,0
332.65616,332.80704,53,56,0
332.65616,332.80704,65,67,0
332.65616,332.80704,60,56,0
332.65616,332.80704,56,56,0
332.82388,332.9761,53,48,0
332.82388,332.9761,65,57,0
332.82388,332.9761,60,48,0
332.82388,332.9761,56,48,0
332.9931,334.36365,53,48,0
332.9931,334.36365,65,57,0
332.9931,334.36365,60,48,0
332.9931,334.36365,56,48,0
334.7014,334.78543,60,68,0
334.78543,334.8694,58,67,0
334.8694,334.95337,56,67,0
334.95337,335.03735,55,66,0
335.03735,335.12134,53,65,0
335.12134,335.20532,51,64,0
335.20532,335.28955,49,63,0
335.28955,335.37375,48,63,0
335.37375,335.45798,46,64,0
335.45798,335.54242,44,65,0
335.54242,335.62686,43,66,0
335.62686,335.71124,41,67,0
335.71124,335.79587,39,68,0
335.79587,335.8811,37,69,0
335.8811,335.967,36,70,0
335.967,336.05356,34,74,0
336.05356,336.1408,32,79,0
336.1408,336.22873,31,83,0
336.22873,336.40558,29,102,0
